<?xml version="1.0" encoding="UTF-8" standalone="no"?>
<!-- Created with Inkscape (http://www.inkscape.org/) -->

<svg
   version="1.1"
   id="svg1"
   width="245.49913"
   height="63.436134"
   viewBox="0 0 245.49912 63.436134"
   sodipodi:docname="cell.svg"
   xmlns:inkscape="http://www.inkscape.org/namespaces/inkscape"
   xmlns:sodipodi="http://sodipodi.sourceforge.net/DTD/sodipodi-0.dtd"
   xmlns="http://www.w3.org/2000/svg"
   xmlns:svg="http://www.w3.org/2000/svg">
  <sodipodi:namedview
     id="namedview1"
     pagecolor="#ffffff"
     bordercolor="#000000"
     borderopacity="0.25"
     inkscape:showpageshadow="2"
     inkscape:pageopacity="0.0"
     inkscape:pagecheckerboard="0"
     inkscape:deskcolor="#d1d1d1">
    <inkscape:page
       x="0"
       y="0"
       inkscape:label="1"
       id="page1"
       width="245.49911"
       height="63.436134"
       margin="0"
       bleed="0" />
  </sodipodi:namedview>
  <defs
     id="defs1" />
  <path
     style="fill:#fab41d;fill-opacity:1;fill-rule:nonzero;stroke:none"
     d="m 48.403346,40.881411 c -2.973,0.989 -3.724,0.88 -4.64,0.807 -5.761003,-0.474 -5.881003,2.365 -4.491003,4.886 1.631,2.974 2.162003,4.072 7.918003,1.526 1.598,-0.714 8.093,-2.631 8.093,-2.631 2.423,-0.375 4.584,-2.025 4.974,-3.427 0.416,-1.478 0.146,-0.926 0.276,-2.354 0.135,-1.38 -0.797,-3.359 -1.99,-3.682 -1.145,-0.313 -2.343,0.844 -4.285,2.291 -1.543,1.131 -5.855,2.584 -5.855,2.584"
     id="path416" />
  <path
     style="fill:none;stroke:#231f20;stroke-width:0.565977;stroke-linecap:butt;stroke-linejoin:miter;stroke-miterlimit:4;stroke-dasharray:none;stroke-opacity:1"
     d="m 48.403346,40.881411 c -2.973,0.989 -3.724,0.88 -4.64,0.807 -5.761003,-0.474 -5.881003,2.365 -4.491003,4.886 1.631,2.974 2.162003,4.072 7.918003,1.526 1.598,-0.714 8.093,-2.631 8.093,-2.631 2.423,-0.375 4.584,-2.025 4.974,-3.427 0.416,-1.478 0.146,-0.926 0.276,-2.354 0.135,-1.38 -0.797,-3.359 -1.99,-3.682 -1.145,-0.313 -2.343,0.844 -4.285,2.291 -1.543,1.131 -5.855,2.584 -5.855,2.584 z"
     id="path417" />
  <path
     style="fill:#ffffff;fill-opacity:1;fill-rule:nonzero;stroke:none"
     d="m 66.965346,40.501411 c 0.244,-0.047 0.724,1.005 1.219,0.817 0.495,-0.182 0.407,-0.973 1.797,-2.396 l 0.015,-0.014 c 1.043,-1.006 1.547,-2.308 1.204,-3.516 -0.573,-1.995 -3.235,-2.986 -5.948,-2.214 -2.724,0.776 -4.453,3.026 -3.891,5.02 0.536,1.912 3.015,2.902 5.604,2.303"
     id="path418" />
  <path
     style="fill:none;stroke:#231f20;stroke-width:0.565977;stroke-linecap:butt;stroke-linejoin:miter;stroke-miterlimit:4;stroke-dasharray:none;stroke-opacity:1"
     d="m 66.965346,40.501411 c 0.244,-0.047 0.724,1.005 1.219,0.817 0.495,-0.182 0.407,-0.973 1.797,-2.396 l 0.015,-0.014 c 1.043,-1.006 1.547,-2.308 1.204,-3.516 -0.573,-1.995 -3.235,-2.986 -5.948,-2.214 -2.724,0.776 -4.453,3.026 -3.891,5.02 0.536,1.912 3.015,2.902 5.604,2.303 z"
     id="path419" />
  <path
     style="fill:#231f20;fill-opacity:1;fill-rule:nonzero;stroke:none"
     d="m 23.763343,53.574411 c -0.615,-2.177 -1.032,-2.516 -1.969,-2.313 -0.626,0.136 -1.246,0.041 -1.631,0.104 -1.276,0.204 -3.348,1.089 -8.563,5.109 -1.176,0.912 -2.8480004,2.178 -3.5720004,2.642 -1.13,0.738 0.854,2.14 1.312,1.848 1.4540004,-0.911 2.5220004,-1.411 3.0840004,-1.671 0.391,-0.177 1.036,-0.584 2.635,-1.068 2.417,-0.735 3.975,-0.819 5.912,-1.661 0.901,-0.396 1.823,-0.115 2.511,-0.959 0.697,-0.828 0.281,-2.031 0.281,-2.031"
     id="path420" />
  <path
     style="fill:none;stroke:#231f20;stroke-width:0.565977;stroke-linecap:butt;stroke-linejoin:miter;stroke-miterlimit:4;stroke-dasharray:none;stroke-opacity:1"
     d="m 23.763343,53.574411 c -0.615,-2.177 -1.032,-2.516 -1.969,-2.313 -0.626,0.136 -1.246,0.041 -1.631,0.104 -1.276,0.204 -3.348,1.089 -8.563,5.109 -1.176,0.912 -2.8480004,2.178 -3.5720004,2.642 -1.13,0.738 0.854,2.14 1.312,1.848 1.4540004,-0.911 2.5220004,-1.411 3.0840004,-1.671 0.391,-0.177 1.036,-0.584 2.635,-1.068 2.417,-0.735 3.975,-0.819 5.912,-1.661 0.901,-0.396 1.823,-0.115 2.511,-0.959 0.697,-0.828 0.281,-2.031 0.281,-2.031 z"
     id="path421" />
  <path
     style="fill:#231f20;fill-opacity:1;fill-rule:nonzero;stroke:#231f20;stroke-width:0.565977;stroke-linecap:round;stroke-linejoin:round;stroke-miterlimit:4;stroke-dasharray:none;stroke-opacity:1"
     d="m 22.450343,55.714411 c 1.24,0.683 2.974,-0.598 3.308,-0.661 4.932,-0.923 5.26,-1.115 8.952,-2.084 5.354,-1.391 8.802003,-3.172 8.901003,-6.525 0.063,-2.266 -0.885,-3.604 -2.093,-4.126 -1.339003,-0.573 -4.511003,-0.338 -5.875003,2.203 l -1.485,0.86 c -1.067,0.453 -1.594,0.683 -2.14,0.864 -0.948,0.313 -1.954,0.709 -3.776,1.423 -3.23,1.276 -6.235,3.672 -6.235,3.672 -0.281,0.124 -0.473,0.328 -0.593,0.568"
     id="path422" />
  <path
     style="fill:#fab41d;fill-opacity:1;fill-rule:nonzero;stroke:none"
     d="m 41.919346,42.460411 c -1.339003,-0.579 -4.511003,-0.36 -5.880003,2.181 l 2.156,7.511 c 3.547003,-1.25 5.719003,-2.911 5.801003,-5.558 0.068,-2.265 -0.869,-3.614 -2.077,-4.134"
     id="path423" />
  <path
     style="fill:none;stroke:#231f20;stroke-width:0.565977;stroke-linecap:butt;stroke-linejoin:miter;stroke-miterlimit:4;stroke-dasharray:none;stroke-opacity:1"
     d="m 41.919346,42.460411 c -1.339003,-0.579 -4.511003,-0.36 -5.880003,2.181 l 2.156,7.511 c 3.547003,-1.25 5.719003,-2.911 5.801003,-5.558 0.068,-2.265 -0.869,-3.614 -2.077,-4.134 z"
     id="path424" />
  <path
     style="fill:#231f20;fill-opacity:1;fill-rule:nonzero;stroke:none"
     d="m 55.856346,60.354411 c -0.328,-0.546 -0.016,-2.468 -0.374,-4.036 -0.246,-1.062 0.276,-3.749 -0.043,-4.786 -0.296,-0.954 -0.343,-1.411 0.677,-1.932 0.61,-0.312 1.984,-0.522 2.235,-0.079 0.588,1.037 0.702,1.98 0.604,3.043 -0.115,1.208 -0.714,4.468 -0.88,5.052 -0.412,1.468 -0.136,2.15 -0.203,2.546 -0.141,0.75 -0.464,0.88 -0.964,0.902 -0.964,0.03 -1.052,-0.71 -1.052,-0.71"
     id="path425" />
  <path
     style="fill:none;stroke:#231f20;stroke-width:0.565977;stroke-linecap:butt;stroke-linejoin:miter;stroke-miterlimit:4;stroke-dasharray:none;stroke-opacity:1"
     d="m 55.856346,60.354411 c -0.328,-0.546 -0.016,-2.468 -0.374,-4.036 -0.246,-1.062 0.276,-3.749 -0.043,-4.786 -0.296,-0.954 -0.343,-1.411 0.677,-1.932 0.61,-0.312 1.984,-0.522 2.235,-0.079 0.588,1.037 0.702,1.98 0.604,3.043 -0.115,1.208 -0.714,4.468 -0.88,5.052 -0.412,1.468 -0.136,2.15 -0.203,2.546 -0.141,0.75 -0.464,0.88 -0.964,0.902 -0.964,0.03 -1.052,-0.71 -1.052,-0.71 z"
     id="path426" />
  <path
     style="fill:#231f20;fill-opacity:1;fill-rule:nonzero;stroke:none"
     d="m 56.064346,51.297411 c -1.281,-0.171 -0.65,-2.109 -0.562,-2.635 0.094,-0.541 0.172,-2.098 0.078,-3.312 -0.098,-1.224 0.307,-2.792 0.135,-5.109 -0.088,-1.22 0.595,-2.464 2.365,-2.516 1.755,-0.057 2.448,0.905 2.339,2.401 -0.115,1.49 -0.85,2.843 -1.068,4.343 -0.219,1.495 -0.303,3.037 -0.308,4.251 -0.01,1.385 -0.52,2.068 -0.968,2.244 -1.104,0.464 -2.011,0.333 -2.011,0.333"
     id="path427" />
  <path
     style="fill:none;stroke:#231f20;stroke-width:0.565977;stroke-linecap:butt;stroke-linejoin:miter;stroke-miterlimit:4;stroke-dasharray:none;stroke-opacity:1"
     d="m 56.064346,51.297411 c -1.281,-0.171 -0.65,-2.109 -0.562,-2.635 0.094,-0.541 0.172,-2.098 0.078,-3.312 -0.098,-1.224 0.307,-2.792 0.135,-5.109 -0.088,-1.22 0.595,-2.464 2.365,-2.516 1.755,-0.057 2.448,0.905 2.339,2.401 -0.115,1.49 -0.85,2.843 -1.068,4.343 -0.219,1.495 -0.303,3.037 -0.308,4.251 -0.01,1.385 -0.52,2.068 -0.968,2.244 -1.104,0.464 -2.011,0.333 -2.011,0.333 z"
     id="path428" />
  <path
     style="fill:#231f20;fill-opacity:1;fill-rule:nonzero;stroke:none"
     d="m 62.491346,62.720411 c -0.698,0.229 -3.948,0.104 -4.687,0.03 -0.661,-0.052 -1.792,0.219 -2.188,-0.869 -0.177,-0.421 -0.109,-1.177 -0.005,-1.479 0.089,-0.245 0.412,-0.318 0.797,-0.245 0.662,0.109 0.807,0.401 2.047,0.693 0,0 0.286,0.114 0.776,0.354 1.478,0.693 0.76,0.526 3.13,1.057 0.167,0.032 0.244,0.229 0.219,0.333 -0.057,0.178 -0.089,0.126 -0.089,0.126"
     id="path429" />
  <path
     style="fill:none;stroke:#231f20;stroke-width:0.565977;stroke-linecap:round;stroke-linejoin:round;stroke-miterlimit:4;stroke-dasharray:none;stroke-opacity:1"
     d="m 62.491346,62.720411 c -0.698,0.229 -3.948,0.104 -4.687,0.03 -0.661,-0.052 -1.792,0.219 -2.188,-0.869 -0.177,-0.421 -0.109,-1.177 -0.005,-1.479 0.089,-0.245 0.412,-0.318 0.797,-0.245 0.662,0.109 0.807,0.401 2.047,0.693 0,0 0.286,0.114 0.776,0.354 1.478,0.693 0.76,0.526 3.13,1.057 0.167,0.032 0.244,0.229 0.219,0.333 -0.057,0.178 -0.089,0.126 -0.089,0.126 z"
     id="path431" />
  <path
     style="fill:#231f20;fill-opacity:1;fill-rule:nonzero;stroke:none"
     d="m 5.5483426,59.673411 c 0.344,-1.308 1.339,-1.412 2.188,-0.828 0.26,0.176 0.662,0.057 0.896,0.249 0.552,0.443 0.672,2.183 -0.76,2.651 -0.094,0.037 -0.766,0.516 -1.313,0.797 -1.088,0.547 -3.516,1.126 -5.79599996,-0.322 -1.079,-0.678 -0.469,-1.188 0.047,-1.052 1.64499996,0.462 1.87999996,0.177 2.36399996,0.134 1.614,-0.118 2.374,-1.629 2.374,-1.629"
     id="path433" />
  <path
     style="fill:none;stroke:#231f20;stroke-width:0.332927;stroke-linecap:butt;stroke-linejoin:miter;stroke-miterlimit:4;stroke-dasharray:none;stroke-opacity:1"
     d="m 5.5483426,59.673411 c 0.344,-1.308 1.339,-1.412 2.188,-0.828 0.26,0.176 0.662,0.057 0.896,0.249 0.552,0.443 0.672,2.183 -0.76,2.651 -0.094,0.037 -0.766,0.516 -1.313,0.797 -1.088,0.547 -3.516,1.126 -5.79599996,-0.322 -1.079,-0.678 -0.469,-1.188 0.047,-1.052 1.64499996,0.462 1.87999996,0.177 2.36399996,0.134 1.614,-0.118 2.374,-1.629 2.374,-1.629 z"
     id="path435" />
  <path
     style="fill:#fab41d;fill-opacity:1;fill-rule:nonzero;stroke:none"
     d="m 224.23535,45.954411 c -2.86,1.266 -3.35,1.848 -3.98,2.52 -3.95,4.214 -5.95,2.194 -6.61,-0.609 -0.78,-3.301 -1.13,-4.473 4.85,-6.443 1.66,-0.546 7.77,-3.489 7.77,-3.489 2.04,-1.344 4.75,-1.568 5.98,-0.797 1.3,0.824 0.73,0.594 1.79,1.562 1.02,0.932 1.66,3.022 0.99,4.068 -0.64,1 -2.3,0.943 -4.71,1.178 -1.91,0.192 -6.08,2.01 -6.08,2.01"
     id="path437" />
  <path
     style="fill:none;stroke:#231f20;stroke-width:0.565977;stroke-linecap:butt;stroke-linejoin:miter;stroke-miterlimit:4;stroke-dasharray:none;stroke-opacity:1"
     d="m 224.23535,45.954411 c -2.86,1.266 -3.35,1.848 -3.98,2.52 -3.95,4.214 -5.95,2.194 -6.61,-0.609 -0.78,-3.301 -1.13,-4.473 4.85,-6.443 1.66,-0.546 7.77,-3.489 7.77,-3.489 2.04,-1.344 4.75,-1.568 5.98,-0.797 1.3,0.824 0.73,0.594 1.79,1.562 1.02,0.932 1.66,3.022 0.99,4.068 -0.64,1 -2.3,0.943 -4.71,1.178 -1.91,0.192 -6.08,2.01 -6.08,2.01 z"
     id="path438" />
  <path
     style="fill:#ffffff;fill-opacity:1;fill-rule:nonzero;stroke:none"
     d="m 238.41535,33.933411 c 0.21,-0.125 -0.11,-1.24 0.38,-1.416 0.5,-0.188 0.95,0.468 2.92,0.64 h 0.03 c 1.45,0.084 2.68,0.735 3.21,1.875 0.87,1.885 -0.5,4.37 -3.06,5.562 -2.57,1.194 -5.35,0.62 -6.23,-1.26 -0.84,-1.802 0.39,-4.166 2.75,-5.401"
     id="path439" />
  <path
     style="fill:none;stroke:#231f20;stroke-width:0.565977;stroke-linecap:butt;stroke-linejoin:miter;stroke-miterlimit:4;stroke-dasharray:none;stroke-opacity:1"
     d="m 238.41535,33.933411 c 0.21,-0.125 -0.11,-1.24 0.38,-1.416 0.5,-0.188 0.95,0.468 2.92,0.64 h 0.03 c 1.45,0.084 2.68,0.735 3.21,1.875 0.87,1.885 -0.5,4.37 -3.06,5.562 -2.57,1.194 -5.35,0.62 -6.23,-1.26 -0.84,-1.802 0.39,-4.166 2.75,-5.401 z"
     id="path440" />
  <path
     style="fill:#231f20;fill-opacity:1;fill-rule:nonzero;stroke:none"
     d="m 197.44535,53.084411 c 1.01,2.021 0.93,2.557 0.1,3.032 -0.55,0.322 -0.95,0.806 -1.28,1.02 -1.08,0.709 -3.21,1.442 -9.774,1.958 -1.484,0.115 -3.572,0.298 -4.422,0.438 -1.338,0.213 -0.802,-2.156 -0.27,-2.25 1.692,-0.302 2.817,-0.646 3.41,-0.828 0.407,-0.136 1.158,-0.261 2.667,-0.98 2.287,-1.077 3.5,-2.057 5.499,-2.734 0.93,-0.312 1.43,-1.14 2.5,-0.974 1.08,0.146 1.57,1.318 1.57,1.318"
     id="path441" />
  <path
     style="fill:none;stroke:#231f20;stroke-width:0.565977;stroke-linecap:butt;stroke-linejoin:miter;stroke-miterlimit:4;stroke-dasharray:none;stroke-opacity:1"
     d="m 197.44535,53.084411 c 1.01,2.021 0.93,2.557 0.1,3.032 -0.55,0.322 -0.95,0.806 -1.28,1.02 -1.08,0.709 -3.21,1.442 -9.774,1.958 -1.484,0.115 -3.572,0.298 -4.422,0.438 -1.338,0.213 -0.802,-2.156 -0.27,-2.25 1.692,-0.302 2.817,-0.646 3.41,-0.828 0.407,-0.136 1.158,-0.261 2.667,-0.98 2.287,-1.077 3.5,-2.057 5.499,-2.734 0.93,-0.312 1.43,-1.14 2.5,-0.974 1.08,0.146 1.57,1.318 1.57,1.318 z"
     id="path442" />
  <path
     style="fill:#231f20;fill-opacity:1;fill-rule:nonzero;stroke:#231f20;stroke-width:0.565977;stroke-linecap:round;stroke-linejoin:round;stroke-miterlimit:4;stroke-dasharray:none;stroke-opacity:1"
     d="m 195.04535,52.381411 c 0.46,-1.339 2.6,-1.557 2.89,-1.735 4.27,-2.625 4.65,-2.697 8.04,-4.462 4.91,-2.563 8.66,-3.554 10.97,-1.136 1.57,1.64 1.77,3.265 1.22,4.464 -0.61,1.328 -3.11,3.281 -5.83,2.306 l -1.68,0.36 c -1.1,0.386 -1.64,0.567 -2.16,0.796 -0.92,0.407 -1.93,0.787 -3.76,1.48 -3.25,1.23 -7.09,1.463 -7.09,1.463 -0.29,0.1 -0.57,0.079 -0.82,-0.02"
     id="path443" />
  <path
     style="fill:#fab41d;fill-opacity:1;fill-rule:nonzero;stroke:none"
     d="m 217.13535,44.678411 c -1.84,-1.906 -4.56,-1.677 -8.03,-0.229 l 3.44,7.015 c 2.72,0.964 5.22,-1 5.83,-2.328 0.54,-1.198 0.33,-2.823 -1.24,-4.458"
     id="path444" />
  <path
     style="fill:none;stroke:#231f20;stroke-width:0.565977;stroke-linecap:butt;stroke-linejoin:miter;stroke-miterlimit:4;stroke-dasharray:none;stroke-opacity:1"
     d="m 217.13535,44.678411 c -1.84,-1.906 -4.56,-1.677 -8.03,-0.229 l 3.44,7.015 c 2.72,0.964 5.22,-1 5.83,-2.328 0.54,-1.198 0.33,-2.823 -1.24,-4.458 z"
     id="path445" />
  <path
     style="fill:#231f20;fill-opacity:1;fill-rule:nonzero;stroke:none"
     d="m 229.37535,60.354411 c -0.33,-0.546 -0.01,-2.468 -0.37,-4.036 -0.25,-1.062 0.27,-3.749 -0.05,-4.786 -0.29,-0.954 -0.34,-1.411 0.68,-1.932 0.61,-0.312 1.98,-0.522 2.24,-0.079 0.58,1.037 0.7,1.98 0.6,3.043 -0.11,1.208 -0.71,4.468 -0.88,5.052 -0.41,1.468 -0.14,2.15 -0.2,2.546 -0.14,0.75 -0.47,0.88 -0.97,0.902 -0.96,0.03 -1.05,-0.71 -1.05,-0.71"
     id="path446" />
  <path
     style="fill:none;stroke:#231f20;stroke-width:0.565977;stroke-linecap:butt;stroke-linejoin:miter;stroke-miterlimit:4;stroke-dasharray:none;stroke-opacity:1"
     d="m 229.37535,60.354411 c -0.33,-0.546 -0.01,-2.468 -0.37,-4.036 -0.25,-1.062 0.27,-3.749 -0.05,-4.786 -0.29,-0.954 -0.34,-1.411 0.68,-1.932 0.61,-0.312 1.98,-0.522 2.24,-0.079 0.58,1.037 0.7,1.98 0.6,3.043 -0.11,1.208 -0.71,4.468 -0.88,5.052 -0.41,1.468 -0.14,2.15 -0.2,2.546 -0.14,0.75 -0.47,0.88 -0.97,0.902 -0.96,0.03 -1.05,-0.71 -1.05,-0.71 z"
     id="path447" />
  <path
     style="fill:#231f20;fill-opacity:1;fill-rule:nonzero;stroke:none"
     d="m 229.58535,51.297411 c -1.28,-0.171 -0.65,-2.109 -0.56,-2.635 0.09,-0.541 0.17,-2.098 0.07,-3.312 -0.09,-1.224 0.31,-2.792 0.14,-5.109 -0.09,-1.22 0.59,-2.464 2.36,-2.516 1.76,-0.057 2.45,0.905 2.34,2.401 -0.11,1.49 -0.84,2.843 -1.06,4.343 -0.22,1.495 -0.31,3.037 -0.31,4.251 -0.01,1.385 -0.52,2.068 -0.97,2.244 -1.1,0.464 -2.01,0.333 -2.01,0.333"
     id="path448" />
  <path
     style="fill:none;stroke:#231f20;stroke-width:0.565977;stroke-linecap:butt;stroke-linejoin:miter;stroke-miterlimit:4;stroke-dasharray:none;stroke-opacity:1"
     d="m 229.58535,51.297411 c -1.28,-0.171 -0.65,-2.109 -0.56,-2.635 0.09,-0.541 0.17,-2.098 0.07,-3.312 -0.09,-1.224 0.31,-2.792 0.14,-5.109 -0.09,-1.22 0.59,-2.464 2.36,-2.516 1.76,-0.057 2.45,0.905 2.34,2.401 -0.11,1.49 -0.84,2.843 -1.06,4.343 -0.22,1.495 -0.31,3.037 -0.31,4.251 -0.01,1.385 -0.52,2.068 -0.97,2.244 -1.1,0.464 -2.01,0.333 -2.01,0.333 z"
     id="path449" />
  <path
     style="fill:#231f20;fill-opacity:1;fill-rule:nonzero;stroke:none"
     d="m 236.01535,62.720411 c -0.7,0.229 -3.95,0.104 -4.69,0.03 -0.66,-0.052 -1.79,0.219 -2.19,-0.869 -0.18,-0.421 -0.11,-1.177 0,-1.479 0.08,-0.245 0.41,-0.318 0.79,-0.245 0.67,0.109 0.81,0.401 2.05,0.693 0,0 0.29,0.114 0.78,0.354 1.48,0.693 0.76,0.526 3.13,1.057 0.16,0.032 0.24,0.229 0.21,0.333 -0.05,0.178 -0.08,0.126 -0.08,0.126"
     id="path450" />
  <path
     style="fill:none;stroke:#231f20;stroke-width:0.565977;stroke-linecap:round;stroke-linejoin:round;stroke-miterlimit:4;stroke-dasharray:none;stroke-opacity:1"
     d="m 236.01535,62.720411 c -0.7,0.229 -3.95,0.104 -4.69,0.03 -0.66,-0.052 -1.79,0.219 -2.19,-0.869 -0.18,-0.421 -0.11,-1.177 0,-1.479 0.08,-0.245 0.41,-0.318 0.79,-0.245 0.67,0.109 0.81,0.401 2.05,0.693 0,0 0.29,0.114 0.78,0.354 1.48,0.693 0.76,0.526 3.13,1.057 0.16,0.032 0.24,0.229 0.21,0.333 -0.05,0.178 -0.08,0.126 -0.08,0.126 z"
     id="path452" />
  <path
     style="fill:#231f20;fill-opacity:1;fill-rule:nonzero;stroke:none"
     d="m 156.20535,63.021411 c -0.698,0.229 -3.948,0.105 -4.688,0.032 -0.661,-0.052 -1.786,0.219 -2.188,-0.865 -0.177,-0.427 -0.109,-1.182 -0.005,-1.479 0.095,-0.249 0.412,-0.323 0.797,-0.249 0.662,0.109 0.808,0.4 2.052,0.692 0,0 0.287,0.114 0.776,0.354 1.475,0.692 0.76,0.526 3.126,1.058 0.166,0.036 0.249,0.229 0.218,0.333 -0.057,0.176 -0.088,0.124 -0.088,0.124"
     id="path454" />
  <path
     style="fill:none;stroke:#231f20;stroke-width:0.565977;stroke-linecap:round;stroke-linejoin:round;stroke-miterlimit:4;stroke-dasharray:none;stroke-opacity:1"
     d="m 156.20535,63.021411 c -0.698,0.229 -3.948,0.105 -4.688,0.032 -0.661,-0.052 -1.786,0.219 -2.188,-0.865 -0.177,-0.427 -0.109,-1.182 -0.005,-1.479 0.095,-0.249 0.412,-0.323 0.797,-0.249 0.662,0.109 0.808,0.4 2.052,0.692 0,0 0.287,0.114 0.776,0.354 1.475,0.692 0.76,0.526 3.126,1.058 0.166,0.036 0.249,0.229 0.218,0.333 -0.057,0.176 -0.088,0.124 -0.088,0.124 z"
     id="path456" />
  <path
     style="fill:#231f20;fill-opacity:1;fill-rule:nonzero;stroke:none"
     d="m 179.85635,60.782411 c 1.135,0.744 1.937,0.151 2.177,-0.854 0.072,-0.302 0.452,-0.479 0.5,-0.787 0.104,-0.692 -0.969,-2.063 -2.344,-1.453 -0.098,0.042 -0.912,0.136 -1.51,0.292 -1.172,0.322 -3.355,1.526 -4.079,4.13 -0.343,1.224 0.448,1.198 0.74,0.75 0.912,-1.448 1.276,-1.396 1.661,-1.687 1.276,-0.995 2.855,-0.391 2.855,-0.391"
     id="path458" />
  <path
     style="fill:none;stroke:#231f20;stroke-width:0.332927;stroke-linecap:butt;stroke-linejoin:miter;stroke-miterlimit:4;stroke-dasharray:none;stroke-opacity:1"
     d="m 179.85635,60.782411 c 1.135,0.744 1.937,0.151 2.177,-0.854 0.072,-0.302 0.452,-0.479 0.5,-0.787 0.104,-0.692 -0.969,-2.063 -2.344,-1.453 -0.098,0.042 -0.912,0.136 -1.51,0.292 -1.172,0.322 -3.355,1.526 -4.079,4.13 -0.343,1.224 0.448,1.198 0.74,0.75 0.912,-1.448 1.276,-1.396 1.661,-1.687 1.276,-0.995 2.855,-0.391 2.855,-0.391 z"
     id="path460" />
  <path
     style="fill:#231f20;fill-opacity:1;fill-rule:nonzero;stroke:#231f20;stroke-width:0.565977;stroke-linecap:round;stroke-linejoin:round;stroke-miterlimit:4;stroke-dasharray:none;stroke-opacity:1"
     d="m 149.02335,29.960411 c 0,0 1.082,0.76 1.609,1.796 0.525,1.041 0.635,2.39 0.635,2.39 l -2.911,1.542 -2.245,-4.228 z"
     id="path462" />
  <path
     style="fill:#231f20;fill-opacity:1;fill-rule:nonzero;stroke:none"
     d="m 136.87235,42.777411 c 1.156,3.416 -0.516,3.635 -3.939,5.853 -3.744,2.423 -7.91,4.548 -11.156,5.126 -3.634,0.65 -3.718,1.166 -4.91,-0.339 -1.194,-1.505 -0.595,-2.005 -0.267,-3.249 0.381,-1.443 7.548,-3.095 11.443,-5.818 1.829,-1.281 5.37,-5.516 6.458,-4.553 1.09,0.969 2.371,2.98 2.371,2.98"
     id="path463" />
  <path
     style="fill:none;stroke:#231f20;stroke-width:0.565977;stroke-linecap:butt;stroke-linejoin:miter;stroke-miterlimit:4;stroke-dasharray:none;stroke-opacity:1"
     d="m 136.87235,42.777411 c 1.156,3.416 -0.516,3.635 -3.939,5.853 -3.744,2.423 -7.91,4.548 -11.156,5.126 -3.634,0.65 -3.718,1.166 -4.91,-0.339 -1.194,-1.505 -0.595,-2.005 -0.267,-3.249 0.381,-1.443 7.548,-3.095 11.443,-5.818 1.829,-1.281 5.37,-5.516 6.458,-4.553 1.09,0.969 2.371,2.98 2.371,2.98 z"
     id="path464" />
  <path
     style="fill:#231f20;fill-opacity:1;fill-rule:nonzero;stroke:none"
     d="m 118.16835,51.574411 c 1.193,1.922 1.568,2.468 -0.744,3.438 -0.584,0.244 -2.267,0.812 -2.568,1.052 -1.016,0.812 -2.265,1.656 -8.751,2.806 -1.005,0.178 -2.864,0.85 -4.218,1.214 -1.312,0.349 -1.006,-2.063 -0.495,-2.208 1.656,-0.459 2.615,-1.12 3.188,-1.37 0.391,-0.166 1.177,-0.36 2.489,-1.376 3.396,-2.609 5.136,-2.145 5.896,-2.634 2.172,-1.391 3.744,-3.027 4.282,-2.636 0.874,0.646 0.921,1.714 0.921,1.714"
     id="path465" />
  <path
     style="fill:none;stroke:#231f20;stroke-width:0.565977;stroke-linecap:butt;stroke-linejoin:miter;stroke-miterlimit:4;stroke-dasharray:none;stroke-opacity:1"
     d="m 118.16835,51.574411 c 1.193,1.922 1.568,2.468 -0.744,3.438 -0.584,0.244 -2.267,0.812 -2.568,1.052 -1.016,0.812 -2.265,1.656 -8.751,2.806 -1.005,0.178 -2.864,0.85 -4.218,1.214 -1.312,0.349 -1.006,-2.063 -0.495,-2.208 1.656,-0.459 2.615,-1.12 3.188,-1.37 0.391,-0.166 1.177,-0.36 2.489,-1.376 3.396,-2.609 5.136,-2.145 5.896,-2.634 2.172,-1.391 3.744,-3.027 4.282,-2.636 0.874,0.646 0.921,1.714 0.921,1.714 z"
     id="path466" />
  <path
     style="fill:#231f20;fill-opacity:1;fill-rule:nonzero;stroke:none"
     d="m 133.77235,37.370411 c -2.052,-2.968 -3.224,-1.76 -7.047,-0.338 -4.177,1.557 -8.369,3.625 -10.776,5.885 -2.686,2.527 -3.15,2.287 -2.656,4.141 0.49,1.854 1.25,1.678 2.443,2.156 1.385,0.558 6.995,-4.202 11.505,-5.702 2.115,-0.704 7.631,-1.011 7.506,-2.459 -0.126,-1.448 -0.975,-3.683 -0.975,-3.683"
     id="path467" />
  <path
     style="fill:none;stroke:#231f20;stroke-width:0.565977;stroke-linecap:butt;stroke-linejoin:miter;stroke-miterlimit:4;stroke-dasharray:none;stroke-opacity:1"
     d="m 133.77235,37.370411 c -2.052,-2.968 -3.224,-1.76 -7.047,-0.338 -4.177,1.557 -8.369,3.625 -10.776,5.885 -2.686,2.527 -3.15,2.287 -2.656,4.141 0.49,1.854 1.25,1.678 2.443,2.156 1.385,0.558 6.995,-4.202 11.505,-5.702 2.115,-0.704 7.631,-1.011 7.506,-2.459 -0.126,-1.448 -0.975,-3.683 -0.975,-3.683 z"
     id="path468" />
  <path
     style="fill:#fab41d;fill-opacity:1;fill-rule:nonzero;stroke:none"
     d="m 128.03335,43.808411 c 0.234,0.437 0.896,0.77 0.896,0.77 0,0 5.458,-2.088 8.062,-0.39 l 0.182,0.308 c -0.338,1.208 0.834,-0.902 1.495,-1.24 2.901,-1.468 7.875,-2.594 9.213,-2.558 1.834,0.052 3.486,2.084 4.658,0.266 0,0 1.342,-1.406 -0.282,-3.698 -0.584,-0.833 -0.99,-3.12 -0.99,-3.12 -0.031,0.027 -0.062,0.052 -0.099,0.068 -1.104,0.588 -2.239,-0.021 -2.88,-1.193 l 0.032,0.068 c -0.605,-1.192 -0.423,-2.5 0.629,-3.057 0.038,-0.02 0.074,-0.031 0.115,-0.042 0,0 -1.667,-1.614 -2.025,-2.567 -0.986,-2.63 -3.12,-2.13 -3.12,-2.13 -2.162,-0.052 -1.194,2.282 -2.178,3.823 -0.718,1.129 -4.442,4.614 -7.286,6.192 -0.651,0.365 -3.052,0.146 -1.864,0.542 l 0.156,0.328 c -0.058,3.11 -4.85,6.452 -4.85,6.452 0,0 -0.093,0.74 0.136,1.178"
     id="path469" />
  <path
     style="fill:none;stroke:#231f20;stroke-width:0.565977;stroke-linecap:butt;stroke-linejoin:miter;stroke-miterlimit:4;stroke-dasharray:none;stroke-opacity:1"
     d="m 128.03335,43.808411 c 0.234,0.437 0.896,0.77 0.896,0.77 0,0 5.458,-2.088 8.062,-0.39 l 0.182,0.308 c -0.338,1.208 0.834,-0.902 1.495,-1.24 2.901,-1.468 7.875,-2.594 9.213,-2.558 1.834,0.052 3.486,2.084 4.658,0.266 0,0 1.342,-1.406 -0.282,-3.698 -0.584,-0.833 -0.99,-3.12 -0.99,-3.12 -0.031,0.027 -0.062,0.052 -0.099,0.068 -1.104,0.588 -2.239,-0.021 -2.88,-1.193 l 0.032,0.068 c -0.605,-1.192 -0.423,-2.5 0.629,-3.057 0.038,-0.02 0.074,-0.031 0.115,-0.042 0,0 -1.667,-1.614 -2.025,-2.567 -0.986,-2.63 -3.12,-2.13 -3.12,-2.13 -2.162,-0.052 -1.194,2.282 -2.178,3.823 -0.718,1.129 -4.442,4.614 -7.286,6.192 -0.651,0.365 -3.052,0.146 -1.864,0.542 l 0.156,0.328 c -0.058,3.11 -4.85,6.452 -4.85,6.452 0,0 -0.093,0.74 0.136,1.178 z"
     id="path470" />
  <path
     style="fill:#ffffff;fill-opacity:1;fill-rule:nonzero;stroke:none"
     d="m 152.65735,26.303411 c -2.494,1.313 -3.733,3.87 -2.765,5.709 0.964,1.838 3.776,2.254 6.276,0.937 2.5,-1.319 3.74,-3.876 2.765,-5.708 -0.968,-1.838 -3.776,-2.256 -6.276,-0.938"
     id="path471" />
  <path
     style="fill:none;stroke:#231f20;stroke-width:0.565977;stroke-linecap:butt;stroke-linejoin:miter;stroke-miterlimit:4;stroke-dasharray:none;stroke-opacity:1"
     d="m 152.65735,26.303411 c -2.494,1.313 -3.733,3.87 -2.765,5.709 0.964,1.838 3.776,2.254 6.276,0.937 2.5,-1.319 3.74,-3.876 2.765,-5.708 -0.968,-1.838 -3.776,-2.256 -6.276,-0.938 z"
     id="path472" />
  <path
     style="fill:#231f20;fill-opacity:1;fill-rule:nonzero;stroke:none"
     d="m 115.54835,47.094411 c -0.839,-2.104 -1.057,-2.729 -3.203,-1.448 -0.546,0.334 -2.005,1.35 -2.38,1.454 -1.25,0.338 -2.672,0.838 -7.442,5.374 -0.74,0.71 -2.38,1.808 -3.480004,2.683 -1.062,0.849 1.068004,2.036 1.485004,1.708 1.353,-1.057 2.453,-1.437 2.989,-1.755 0.37,-0.213 0.99,-0.734 2.588,-1.193 4.115,-1.181 4.771,-2.859 5.615,-3.181 2.412,-0.928 4.661,-1.224 4.661,-1.891 0,-1.084 -0.833,-1.751 -0.833,-1.751"
     id="path473" />
  <path
     style="fill:none;stroke:#231f20;stroke-width:0.565977;stroke-linecap:butt;stroke-linejoin:miter;stroke-miterlimit:4;stroke-dasharray:none;stroke-opacity:1"
     d="m 115.54835,47.094411 c -0.839,-2.104 -1.057,-2.729 -3.203,-1.448 -0.546,0.334 -2.005,1.35 -2.38,1.454 -1.25,0.338 -2.672,0.838 -7.442,5.374 -0.74,0.71 -2.38,1.808 -3.480004,2.683 -1.062,0.849 1.068004,2.036 1.485004,1.708 1.353,-1.057 2.453,-1.437 2.989,-1.755 0.37,-0.213 0.99,-0.734 2.588,-1.193 4.115,-1.181 4.771,-2.859 5.615,-3.181 2.412,-0.928 4.661,-1.224 4.661,-1.891 0,-1.084 -0.833,-1.751 -0.833,-1.751 z"
     id="path474" />
  <path
     style="fill:#231f20;fill-opacity:1;fill-rule:nonzero;stroke:none"
     d="m 138.36735,16.704411 c 1.118,-0.645 1.801,1.271 2.057,1.745 0.26,0.479 1.145,1.755 1.963,2.667 0.822,0.911 1.458,2.396 3.01,4.125 0.818,0.906 1.042,2.312 -0.328,3.438 -1.354,1.114 -2.494,0.781 -3.317,-0.47 -0.823,-1.249 -1.073,-2.77 -1.813,-4.093 -0.739,-1.313 -1.619,-2.589 -2.354,-3.552 -0.838,-1.104 -0.844,-1.953 -0.609,-2.376 0.593,-1.036 1.391,-1.484 1.391,-1.484"
     id="path475" />
  <path
     style="fill:none;stroke:#231f20;stroke-width:0.565977;stroke-linecap:butt;stroke-linejoin:miter;stroke-miterlimit:4;stroke-dasharray:none;stroke-opacity:1"
     d="m 138.36735,16.704411 c 1.118,-0.645 1.801,1.271 2.057,1.745 0.26,0.479 1.145,1.755 1.963,2.667 0.822,0.911 1.458,2.396 3.01,4.125 0.818,0.906 1.042,2.312 -0.328,3.438 -1.354,1.114 -2.494,0.781 -3.317,-0.47 -0.823,-1.249 -1.073,-2.77 -1.813,-4.093 -0.739,-1.313 -1.619,-2.589 -2.354,-3.552 -0.838,-1.104 -0.844,-1.953 -0.609,-2.376 0.593,-1.036 1.391,-1.484 1.391,-1.484 z"
     id="path476" />
  <path
     style="fill:#231f20;fill-opacity:1;fill-rule:nonzero;stroke:none"
     d="m 131.23635,10.725411 c 0.052,0.646 1.448,2.006 2.079,3.49 0.426,0.994 2.432,2.864 2.781,3.89 0.323,0.943 0.557,1.339 1.697,1.162 0.672,-0.11 1.902,-0.75 1.844,-1.26 -0.136,-1.183 -0.598,-2.006 -1.308,-2.808 -0.801,-0.911 -3.208,-3.187 -3.686,-3.568 -1.204,-0.938 -1.376,-1.6559998 -1.672,-1.9319998 -0.552,-0.526 -0.886,-0.443 -1.308,-0.156 -0.787,0.5359998 -0.427,1.1819998 -0.427,1.1819998"
     id="path477" />
  <path
     style="fill:none;stroke:#231f20;stroke-width:0.565977;stroke-linecap:butt;stroke-linejoin:miter;stroke-miterlimit:4;stroke-dasharray:none;stroke-opacity:1"
     d="m 131.23635,10.725411 c 0.052,0.646 1.448,2.006 2.079,3.49 0.426,0.994 2.432,2.864 2.781,3.89 0.323,0.943 0.557,1.339 1.697,1.162 0.672,-0.11 1.902,-0.75 1.844,-1.26 -0.136,-1.183 -0.598,-2.006 -1.308,-2.808 -0.801,-0.911 -3.208,-3.187 -3.686,-3.568 -1.204,-0.938 -1.376,-1.6559998 -1.672,-1.9319998 -0.552,-0.526 -0.886,-0.443 -1.308,-0.156 -0.787,0.5359998 -0.427,1.1819998 -0.427,1.1819998 z"
     id="path478" />
  <path
     style="fill:#231f20;fill-opacity:1;fill-rule:nonzero;stroke:none"
     d="m 127.35135,4.8514112 c 0.145,0.713 1.838,3.489 2.254,4.109 0.366,0.552 0.678,1.6609998 1.824,1.4949998 0.458,-0.068 1.088,-0.4909998 1.296,-0.7299998 0.167,-0.193 0.084,-0.51 -0.172,-0.822 -0.416,-0.516 -0.738,-0.5 -1.604,-1.443 0,0 -0.234,-0.193 -0.682,-0.516 -1.328,-0.948 -0.834,-0.401 -2.443,-2.208 -0.119,-0.131 -0.328,-0.109 -0.411,-0.021 -0.12,0.13 -0.062,0.136 -0.062,0.136"
     id="path479" />
  <path
     style="fill:none;stroke:#231f20;stroke-width:0.565977;stroke-linecap:round;stroke-linejoin:round;stroke-miterlimit:4;stroke-dasharray:none;stroke-opacity:1"
     d="m 127.35135,4.8514112 c 0.145,0.713 1.838,3.489 2.254,4.109 0.366,0.552 0.678,1.6609998 1.824,1.4949998 0.458,-0.068 1.088,-0.4909998 1.296,-0.7299998 0.167,-0.193 0.084,-0.51 -0.172,-0.822 -0.416,-0.516 -0.738,-0.5 -1.604,-1.443 0,0 -0.234,-0.193 -0.682,-0.516 -1.328,-0.948 -0.834,-0.401 -2.443,-2.208 -0.119,-0.131 -0.328,-0.109 -0.411,-0.021 -0.12,0.13 -0.062,0.136 -0.062,0.136 z"
     id="path480" />
  <path
     style="fill:#231f20;fill-opacity:1;fill-rule:nonzero;stroke:none"
     d="m 151.95535,51.797411 c 1.292,-0.099 0.765,-2.067 0.708,-2.604 -0.063,-0.541 -0.052,-2.093 0.109,-3.307 0.157,-1.218 -0.156,-2.802 0.147,-5.104 0.161,-1.213 -0.454,-2.494 -2.219,-2.652 -1.756,-0.15 -2.5,0.772 -2.469,2.267 0.026,1.5 0.688,2.891 0.817,4.396 0.136,1.509 0.136,3.057 0.073,4.265 -0.068,1.386 0.412,2.094 0.844,2.296 1.074,0.522 1.99,0.443 1.99,0.443"
     id="path481" />
  <path
     style="fill:none;stroke:#231f20;stroke-width:0.565977;stroke-linecap:butt;stroke-linejoin:miter;stroke-miterlimit:4;stroke-dasharray:none;stroke-opacity:1"
     d="m 151.95535,51.797411 c 1.292,-0.099 0.765,-2.067 0.708,-2.604 -0.063,-0.541 -0.052,-2.093 0.109,-3.307 0.157,-1.218 -0.156,-2.802 0.147,-5.104 0.161,-1.213 -0.454,-2.494 -2.219,-2.652 -1.756,-0.15 -2.5,0.772 -2.469,2.267 0.026,1.5 0.688,2.891 0.817,4.396 0.136,1.509 0.136,3.057 0.073,4.265 -0.068,1.386 0.412,2.094 0.844,2.296 1.074,0.522 1.99,0.443 1.99,0.443 z"
     id="path482" />
  <path
     style="fill:#231f20;fill-opacity:1;fill-rule:nonzero;stroke:none"
     d="m 149.46035,60.756411 c -0.323,-0.558 0.057,-2.468 -0.265,-4.042 -0.214,-1.068 0.385,-3.745 0.093,-4.786 -0.265,-0.959 -0.301,-1.422 0.74,-1.916 0.615,-0.292 1.995,-0.459 2.235,-0.006 0.556,1.047 0.64,1.99 0.509,3.058 -0.145,1.202 -0.839,4.442 -1.02,5.025 -0.459,1.453 -0.193,2.141 -0.281,2.537 -0.156,0.744 -0.484,0.87 -0.986,0.87 -0.957,0 -1.025,-0.74 -1.025,-0.74"
     id="path483" />
  <path
     style="fill:none;stroke:#231f20;stroke-width:0.565977;stroke-linecap:butt;stroke-linejoin:miter;stroke-miterlimit:4;stroke-dasharray:none;stroke-opacity:1"
     d="m 149.46035,60.756411 c -0.323,-0.558 0.057,-2.468 -0.265,-4.042 -0.214,-1.068 0.385,-3.745 0.093,-4.786 -0.265,-0.959 -0.301,-1.422 0.74,-1.916 0.615,-0.292 1.995,-0.459 2.235,-0.006 0.556,1.047 0.64,1.99 0.509,3.058 -0.145,1.202 -0.839,4.442 -1.02,5.025 -0.459,1.453 -0.193,2.141 -0.281,2.537 -0.156,0.744 -0.484,0.87 -0.986,0.87 -0.957,0 -1.025,-0.74 -1.025,-0.74 z"
     id="path484" />
  <path
     style="fill:#fab41d;fill-opacity:1;fill-rule:nonzero;stroke:none"
     d="m 133.33535,35.485411 c -0.348,-0.052 -1.714,-0.057 -2.178,-0.011 -2.952,0.328 -6.4,2.251 -7.629,2.595 -1.229,0.348 1.911,6.145 1.911,6.145 l 1.896,-0.469 c -0.167,0.6 0.458,0.876 0.458,0.876 l -1.526,1.317 c 0,0 2.808,5.828 3.62,5.23 1.125,-0.828 5.172,-3.068 6.734,-4.959 0.86,-1.036 1.088,-2.031 1.088,-2.031 0,0 -2.666,-2.714 -3.333,-3.974 -0.667,-1.26 -1.041,-4.719 -1.041,-4.719"
     id="path486" />
  <path
     style="fill:none;stroke:#231f20;stroke-width:0.565977;stroke-linecap:butt;stroke-linejoin:miter;stroke-miterlimit:4;stroke-dasharray:none;stroke-opacity:1"
     d="m 133.33535,35.485411 c -0.348,-0.052 -1.714,-0.057 -2.178,-0.011 -2.952,0.328 -6.4,2.251 -7.629,2.595 -1.229,0.348 1.911,6.145 1.911,6.145 l 1.896,-0.469 c -0.167,0.6 0.458,0.876 0.458,0.876 l -1.526,1.317 c 0,0 2.808,5.828 3.62,5.23 1.125,-0.828 5.172,-3.068 6.734,-4.959 0.86,-1.036 1.088,-2.031 1.088,-2.031 0,0 -2.666,-2.714 -3.333,-3.974 -0.667,-1.26 -1.041,-4.719 -1.041,-4.719 z"
     id="path487" />
  <path
     style="fill:#231f20;fill-opacity:1;fill-rule:nonzero;stroke:none"
     d="m 93.679346,57.652411 c 0.276,-0.604 2.078,-0.531 3.604,-1.771 0.317,-0.255 0.688,-0.307 1.041,-0.421 1.439,-0.47 2.991004,-0.106 0.729,2.984 -0.317,0.426 -2.15,1.453 -2.562,2.12 -0.974,1.588 -4.239,2.213 -4.452,1.738 -0.47,-1.014 1.64,-4.65 1.64,-4.65"
     id="path488" />
  <path
     style="fill:none;stroke:#231f20;stroke-width:0.644548;stroke-linecap:round;stroke-linejoin:round;stroke-miterlimit:4;stroke-dasharray:none;stroke-opacity:1"
     d="m 93.679346,57.652411 c 0.276,-0.604 2.078,-0.531 3.604,-1.771 0.317,-0.255 0.688,-0.307 1.041,-0.421 1.439,-0.47 2.991004,-0.106 0.729,2.984 -0.317,0.426 -2.15,1.453 -2.562,2.12 -0.974,1.588 -4.239,2.213 -4.452,1.738 -0.47,-1.014 1.64,-4.65 1.64,-4.65 z"
     id="path490" />
  <path
     style="fill:#231f20;fill-opacity:1;fill-rule:nonzero;stroke:none"
     d="m 98.408346,62.902411 c 0.667,0.02 1.396,-1.625 3.183004,-2.458 0.364,-0.172 0.577,-0.48 0.838,-0.746 1.052,-1.082 1.406,-2.64 -2.365,-1.968 -0.521004,0.099 -2.249004,1.287 -3.031004,1.364 -1.854,0.178 -3.854,2.834 -3.526,3.235 0.702,0.869 4.901,0.573 4.901,0.573"
     id="path492" />
  <path
     style="fill:none;stroke:#231f20;stroke-width:0.644548;stroke-linecap:round;stroke-linejoin:round;stroke-miterlimit:4;stroke-dasharray:none;stroke-opacity:1"
     d="m 98.408346,62.902411 c 0.667,0.02 1.396,-1.625 3.183004,-2.458 0.364,-0.172 0.577,-0.48 0.838,-0.746 1.052,-1.082 1.406,-2.64 -2.365,-1.968 -0.521004,0.099 -2.249004,1.287 -3.031004,1.364 -1.854,0.178 -3.854,2.834 -3.526,3.235 0.702,0.869 4.901,0.573 4.901,0.573 z"
     id="path494" />
  <path
     style="fill:none;stroke:#231f20;stroke-width:0.49806;stroke-linecap:butt;stroke-linejoin:miter;stroke-miterlimit:4;stroke-dasharray:none;stroke-opacity:1"
     d="m 126.99135,26.860411 c -18.228,-49.583 28.354,-14.676 28.354,-14.676"
     id="path496" />
  <path
     style="fill:#231f20;fill-opacity:1;fill-rule:nonzero;stroke:none"
     d="m 156.55335,13.084411 c -0.724,-0.213 -1.697,-0.38 -2.416,-0.328 l 1.052,-0.692 0.37,-1.204 c 0.15,0.704 0.584,1.589 0.994,2.224"
     id="path497" />
</svg>
