<?xml version="1.0" encoding="UTF-8" standalone="no"?>
<!-- Created with Inkscape (http://www.inkscape.org/) -->

<svg
   version="1.1"
   id="svg1"
   width="72.608162"
   height="28.979977"
   viewBox="0 0 72.608158 28.979976"
   sodipodi:docname="cell.svg"
   xmlns:inkscape="http://www.inkscape.org/namespaces/inkscape"
   xmlns:sodipodi="http://sodipodi.sourceforge.net/DTD/sodipodi-0.dtd"
   xmlns="http://www.w3.org/2000/svg"
   xmlns:svg="http://www.w3.org/2000/svg">
  <sodipodi:namedview
     id="namedview1"
     pagecolor="#ffffff"
     bordercolor="#000000"
     borderopacity="0.25"
     inkscape:showpageshadow="2"
     inkscape:pageopacity="0.0"
     inkscape:pagecheckerboard="0"
     inkscape:deskcolor="#d1d1d1">
    <inkscape:page
       x="0"
       y="0"
       inkscape:label="1"
       id="page1"
       width="72.608154"
       height="28.979977"
       margin="0"
       bleed="0" />
  </sodipodi:namedview>
  <defs
     id="defs1" />
  <path
     style="fill:#fab41d;fill-opacity:1;fill-rule:nonzero;stroke:none"
     d="m 22.542484,6.9095236 c 3.13,-0.104 3.792,-0.469 4.625,-0.86 5.24,-2.448 6.344,0.167 5.916,3.016 -0.495,3.3590004 -0.609,4.5740004 -6.891,4.1880004 -1.744,-0.11 -8.505,0.354 -8.505,0.354 -2.4,0.489 -5,-0.302 -5.859,-1.479 -0.901,-1.245 -0.458,-0.823 -1.078,-2.115 -0.604,-1.2450004 -0.416,-3.4220004 0.584,-4.1410004 0.964,-0.692 2.494,-0.025 4.822,0.652 1.834,0.525 6.386,0.385 6.386,0.385"
     id="path596" />
  <path
     style="fill:none;stroke:#231f20;stroke-width:0.565977;stroke-linecap:butt;stroke-linejoin:miter;stroke-miterlimit:4;stroke-dasharray:none;stroke-opacity:1"
     d="m 22.542484,6.9095236 c 3.13,-0.104 3.792,-0.469 4.625,-0.86 5.24,-2.448 6.344,0.167 5.916,3.016 -0.495,3.3590004 -0.609,4.5740004 -6.891,4.1880004 -1.744,-0.11 -8.505,0.354 -8.505,0.354 -2.4,0.489 -5,-0.302 -5.859,-1.479 -0.901,-1.245 -0.458,-0.823 -1.078,-2.115 -0.604,-1.2450004 -0.416,-3.4220004 0.584,-4.1410004 0.964,-0.692 2.494,-0.025 4.822,0.652 1.834,0.525 6.386,0.385 6.386,0.385 z"
     id="path597" />
  <path
     style="fill:#ffffff;fill-opacity:1;fill-rule:nonzero;stroke:none"
     d="m 2.4684839,7.7005236 c -0.186,-0.156 -1.104,0.548 -1.457,0.163 -0.34900004,-0.396 0.093,-1.058 -0.47500004,-2.959 l -0.005,-0.027 c -0.457,-1.374 -0.296,-2.76 0.56800004,-3.666 1.432,-1.50599997 4.251,-1.13999997 6.292,0.802 2.052,1.954 2.541,4.75 1.109,6.255 -1.365,1.437 -4.016,1.167 -6.032,-0.568"
     id="path598" />
  <path
     style="fill:none;stroke:#231f20;stroke-width:0.565977;stroke-linecap:butt;stroke-linejoin:miter;stroke-miterlimit:4;stroke-dasharray:none;stroke-opacity:1"
     d="m 2.4684839,7.7005236 c -0.186,-0.156 -1.104,0.548 -1.457,0.163 -0.34900004,-0.396 0.093,-1.058 -0.47500004,-2.959 l -0.005,-0.027 c -0.457,-1.374 -0.296,-2.76 0.56800004,-3.666 1.432,-1.50599997 4.251,-1.13999997 6.292,0.802 2.052,1.954 2.541,4.75 1.109,6.255 -1.365,1.437 -4.016,1.167 -6.032,-0.568 z"
     id="path599" />
  <path
     style="fill:#231f20;fill-opacity:1;fill-rule:nonzero;stroke:none"
     d="m 48.011484,6.8475236 c -0.568,-2.188 -0.38,-2.694 0.531,-2.984 0.609,-0.204 1.093,-0.6 1.458,-0.735 1.203,-0.475 3.443,-0.761 9.974,0.072 1.474,0.193 3.557,0.444 4.412,0.475 1.354,0.068 0.349,2.276 -0.194,2.26 -1.713,-0.047 -2.885,0.057 -3.505,0.114 -0.427,0.047 -1.187,0.022 -2.812,0.412 -2.459,0.588 -3.844,1.302 -5.943,1.558 -0.973,0.114 -1.63,0.822 -2.65,0.442 -1.022,-0.365 -1.271,-1.614 -1.271,-1.614"
     id="path600" />
  <path
     style="fill:none;stroke:#231f20;stroke-width:0.565977;stroke-linecap:butt;stroke-linejoin:miter;stroke-miterlimit:4;stroke-dasharray:none;stroke-opacity:1"
     d="m 48.011484,6.8475236 c -0.568,-2.188 -0.38,-2.694 0.531,-2.984 0.609,-0.204 1.093,-0.6 1.458,-0.735 1.203,-0.475 3.443,-0.761 9.974,0.072 1.474,0.193 3.557,0.444 4.412,0.475 1.354,0.068 0.349,2.276 -0.194,2.26 -1.713,-0.047 -2.885,0.057 -3.505,0.114 -0.427,0.047 -1.187,0.022 -2.812,0.412 -2.459,0.588 -3.844,1.302 -5.943,1.558 -0.973,0.114 -1.63,0.822 -2.65,0.442 -1.022,-0.365 -1.271,-1.614 -1.271,-1.614 z"
     id="path601" />
  <path
     style="fill:#231f20;fill-opacity:1;fill-rule:nonzero;stroke:#231f20;stroke-width:0.565977;stroke-linecap:round;stroke-linejoin:round;stroke-miterlimit:4;stroke-dasharray:none;stroke-opacity:1"
     d="m 50.224484,8.0335236 c -0.724,1.215 -2.87,0.986 -3.188,1.095 -4.718,1.7030004 -5.098,1.6970004 -8.776,2.7350004 -5.322,1.5 -9.202,1.708 -10.978,-1.136 -1.199,-1.9220004 -1.058,-3.5580004 -0.282,-4.6150004 0.87,-1.177 3.724,-2.573 6.183,-1.068 l 1.719,-0.011 c 1.15,-0.15 1.718,-0.224 2.281,-0.333 0.979,-0.213 2.047,-0.375 3.979,-0.681 3.432,-0.532 7.24,0.014 7.24,0.014 0.301,-0.036 0.572,0.038 0.796,0.188"
     id="path602" />
  <path
     style="fill:#fab41d;fill-opacity:1;fill-rule:nonzero;stroke:#231f20;stroke-width:0.565977;stroke-linecap:butt;stroke-linejoin:miter;stroke-miterlimit:4;stroke-dasharray:none;stroke-opacity:1"
     d="m 32.902484,5.3475236 c -2.464,-1.5 -5.314,-0.09 -6.178,1.088 -0.776,1.062 -0.901,2.698 0.302,4.6140004 1.406,2.246 4.12,2.579 7.813,1.871 z"
     id="path603" />
  <path
     style="fill:#231f20;fill-opacity:1;fill-rule:nonzero;stroke:none"
     d="m 24.536484,25.363524 c 0.052,-0.642 -1.098,-2.22 -1.478,-3.782 -0.256,-1.052 -1.932,-3.224 -2.11,-4.292 -0.161,-0.984 -0.328,-1.417 -1.474,-1.422 -0.687,-0.004 -2.006,0.428 -2.031,0.938 -0.057,1.192 0.26,2.078 0.823,2.984 0.65,1.036 2.645,3.672 3.057,4.126 1.031,1.118 1.084,1.853 1.328,2.176 0.464,0.609 0.813,0.578 1.265,0.37 0.876,-0.401 0.62,-1.098 0.62,-1.098"
     id="path604" />
  <path
     style="fill:none;stroke:#231f20;stroke-width:0.565977;stroke-linecap:butt;stroke-linejoin:miter;stroke-miterlimit:4;stroke-dasharray:none;stroke-opacity:1"
     d="m 24.536484,25.363524 c 0.052,-0.642 -1.098,-2.22 -1.478,-3.782 -0.256,-1.052 -1.932,-3.224 -2.11,-4.292 -0.161,-0.984 -0.328,-1.417 -1.474,-1.422 -0.687,-0.004 -2.006,0.428 -2.031,0.938 -0.057,1.192 0.26,2.078 0.823,2.984 0.65,1.036 2.645,3.672 3.057,4.126 1.031,1.118 1.084,1.853 1.328,2.176 0.464,0.609 0.813,0.578 1.265,0.37 0.876,-0.401 0.62,-1.098 0.62,-1.098 z"
     id="path605" />
  <path
     style="fill:#231f20;fill-opacity:1;fill-rule:nonzero;stroke:none"
     d="m 20.282484,17.363524 c 1.068,-0.735 -0.366,-2.178 -0.683,-2.615 -0.323,-0.433 -1.093,-1.787 -1.557,-2.917 -0.464,-1.14 -1.531,-2.3550004 -2.416,-4.5000004 -0.47,-1.131 -1.642,-1.938 -3.246,-1.188 -1.593,0.74 -1.781,1.912 -1.01,3.198 0.77,1.2760004 2.041,2.1620004 2.906,3.3960004 0.87,1.24 1.635,2.583 2.188,3.662 0.63,1.229 1.391,1.614 1.87,1.573 1.197,-0.084 1.948,-0.609 1.948,-0.609"
     id="path606" />
  <path
     style="fill:none;stroke:#231f20;stroke-width:0.565977;stroke-linecap:butt;stroke-linejoin:miter;stroke-miterlimit:4;stroke-dasharray:none;stroke-opacity:1"
     d="m 20.282484,17.363524 c 1.068,-0.735 -0.366,-2.178 -0.683,-2.615 -0.323,-0.433 -1.093,-1.787 -1.557,-2.917 -0.464,-1.14 -1.531,-2.3550004 -2.416,-4.5000004 -0.47,-1.131 -1.642,-1.938 -3.246,-1.188 -1.593,0.74 -1.781,1.912 -1.01,3.198 0.77,1.2760004 2.041,2.1620004 2.906,3.3960004 0.87,1.24 1.635,2.583 2.188,3.662 0.63,1.229 1.391,1.614 1.87,1.573 1.197,-0.084 1.948,-0.609 1.948,-0.609 z"
     id="path607" />
  <path
     style="fill:#231f20;fill-opacity:1;fill-rule:nonzero;stroke:none"
     d="m 17.760484,28.617524 c 0.708,0.203 3.948,-0.036 4.688,-0.13 0.656,-0.078 1.792,0.157 2.156,-0.948 0.162,-0.427 0.068,-1.182 -0.046,-1.479 -0.104,-0.24 -0.423,-0.303 -0.808,-0.213 -0.656,0.125 -0.796,0.426 -2.02,0.76 0,0 -0.287,0.125 -0.766,0.38 -1.453,0.745 -0.745,0.552 -3.089,1.166 -0.167,0.043 -0.24,0.235 -0.208,0.344 0.063,0.172 0.093,0.12 0.093,0.12"
     id="path608" />
  <path
     style="fill:none;stroke:#231f20;stroke-width:0.565977;stroke-linecap:round;stroke-linejoin:round;stroke-miterlimit:4;stroke-dasharray:none;stroke-opacity:1"
     d="m 17.760484,28.617524 c 0.708,0.203 3.948,-0.036 4.688,-0.13 0.656,-0.078 1.792,0.157 2.156,-0.948 0.162,-0.427 0.068,-1.182 -0.046,-1.479 -0.104,-0.24 -0.423,-0.303 -0.808,-0.213 -0.656,0.125 -0.796,0.426 -2.02,0.76 0,0 -0.287,0.125 -0.766,0.38 -1.453,0.745 -0.745,0.552 -3.089,1.166 -0.167,0.043 -0.24,0.235 -0.208,0.344 0.063,0.172 0.093,0.12 0.093,0.12 z"
     id="path610" />
  <path
     style="fill:#231f20;fill-opacity:1;fill-rule:nonzero;stroke:none"
     d="m 66.807484,2.9095236 c -0.957,-0.958 -1.864,-0.546 -2.301,0.391 -0.136,0.281 -0.542,0.375 -0.651,0.667 -0.245,0.656 0.531,2.218 2,1.9 0.099,-0.02 0.916,0.057 1.536,0.026 1.213,-0.078 3.599,-0.806 4.839,-3.208 0.588,-1.13 -0.199,-1.27 -0.574,-0.885 -1.188,1.229 -1.53,1.104 -1.973,1.307 -1.453,0.713 -2.876,-0.198 -2.876,-0.198"
     id="path612" />
  <path
     style="fill:none;stroke:#231f20;stroke-width:0.332927;stroke-linecap:butt;stroke-linejoin:miter;stroke-miterlimit:4;stroke-dasharray:none;stroke-opacity:1"
     d="m 66.807484,2.9095236 c -0.957,-0.958 -1.864,-0.546 -2.301,0.391 -0.136,0.281 -0.542,0.375 -0.651,0.667 -0.245,0.656 0.531,2.218 2,1.9 0.099,-0.02 0.916,0.057 1.536,0.026 1.213,-0.078 3.599,-0.806 4.839,-3.208 0.588,-1.13 -0.199,-1.27 -0.574,-0.885 -1.188,1.229 -1.53,1.104 -1.973,1.307 -1.453,0.713 -2.876,-0.198 -2.876,-0.198 z"
     id="path613" />
</svg>
