<?xml version="1.0" encoding="UTF-8" standalone="no"?>
<!-- Created with Inkscape (http://www.inkscape.org/) -->

<svg
   version="1.1"
   id="svg1"
   width="92.320297"
   height="58.942684"
   viewBox="0 0 92.320292 58.942686"
   sodipodi:docname="cell.svg"
   xmlns:inkscape="http://www.inkscape.org/namespaces/inkscape"
   xmlns:sodipodi="http://sodipodi.sourceforge.net/DTD/sodipodi-0.dtd"
   xmlns="http://www.w3.org/2000/svg"
   xmlns:svg="http://www.w3.org/2000/svg">
  <sodipodi:namedview
     id="namedview1"
     pagecolor="#ffffff"
     bordercolor="#000000"
     borderopacity="0.25"
     inkscape:showpageshadow="2"
     inkscape:pageopacity="0.0"
     inkscape:pagecheckerboard="0"
     inkscape:deskcolor="#d1d1d1">
    <inkscape:page
       x="0"
       y="0"
       inkscape:label="1"
       id="page1"
       width="92.32029"
       height="58.942684"
       margin="0"
       bleed="0" />
  </sodipodi:namedview>
  <defs
     id="defs1" />
  <path
     style="fill:#231f20;fill-opacity:1;fill-rule:nonzero;stroke:none"
     d="m 44.436048,40.644936 c 0.984,3.469 -0.688,3.609 -4.218,5.657 -3.855,2.234 -8.12,4.156 -11.396,4.578 -3.651,0.469 -3.766,0.98 -4.88,-0.578 -1.12,-1.562 -0.5,-2.037 -0.11,-3.261 0.448,-1.421 7.688,-2.729 11.708,-5.255 1.886,-1.188 5.631,-5.245 6.672,-4.229 1.042,1.011 2.224,3.088 2.224,3.088"
     id="path587" />
  <path
     style="fill:none;stroke:#231f20;stroke-width:0.565977;stroke-linecap:butt;stroke-linejoin:miter;stroke-miterlimit:4;stroke-dasharray:none;stroke-opacity:1"
     d="m 44.436048,40.644936 c 0.984,3.469 -0.688,3.609 -4.218,5.657 -3.855,2.234 -8.12,4.156 -11.396,4.578 -3.651,0.469 -3.766,0.98 -4.88,-0.578 -1.12,-1.562 -0.5,-2.037 -0.11,-3.261 0.448,-1.421 7.688,-2.729 11.708,-5.255 1.886,-1.188 5.631,-5.245 6.672,-4.229 1.042,1.011 2.224,3.088 2.224,3.088 z"
     id="path588" />
  <path
     style="fill:#231f20;fill-opacity:1;fill-rule:nonzero;stroke:#231f20;stroke-width:0.565977;stroke-linecap:butt;stroke-linejoin:miter;stroke-miterlimit:4;stroke-dasharray:none;stroke-opacity:1"
     d="m 26.171048,50.635936 c -0.073,0.494 -0.579,0.853 -1.756,1.281 -0.593,0.219 -2.296,0.703 -2.619,0.932 -1.052,0.749 -2.338,1.541 -8.87,2.38 -1.015,0.12 -2.906,0.703 -4.2760004,0.995 -1.328,0.292 -0.906,-2.11 -0.386,-2.224 1.672,-0.38 2.6620004,-0.995 3.2460004,-1.208 0.401,-0.156 1.192,-0.308 2.562,-1.256 3.51,-2.443 5.23,-1.9 6.01,-2.348 2.24,-1.282 3.89,-2.839 4.412,-2.423"
     id="path589" />
  <path
     style="fill:#231f20;fill-opacity:1;fill-rule:nonzero;stroke:none"
     d="m 5.1300476,58.613936 c 0.656,0.11 1.604,-1.432 3.484,-2.005 0.385,-0.12 0.64,-0.396 0.932,-0.625 1.1880004,-0.932 1.7500004,-2.427 -2.074,-2.271 -0.53,0.027 -2.405,0.969 -3.192,0.937 -1.86,-0.072 -4.20199995,2.276 -3.93199995,2.724 0.578,0.954 4.78199995,1.24 4.78199995,1.24"
     id="path590" />
  <path
     style="fill:none;stroke:#231f20;stroke-width:0.644548;stroke-linecap:round;stroke-linejoin:round;stroke-miterlimit:4;stroke-dasharray:none;stroke-opacity:1"
     d="m 5.1300476,58.613936 c 0.656,0.11 1.604,-1.432 3.484,-2.005 0.385,-0.12 0.64,-0.396 0.932,-0.625 1.1880004,-0.932 1.7500004,-2.427 -2.074,-2.271 -0.53,0.027 -2.405,0.969 -3.192,0.937 -1.86,-0.072 -4.20199995,2.276 -3.93199995,2.724 0.578,0.954 4.78199995,1.24 4.78199995,1.24 z"
     id="path592" />
  <path
     style="fill:#231f20;fill-opacity:1;fill-rule:nonzero;stroke:none"
     d="m 47.884048,40.644936 c -0.984,3.469 0.694,3.609 4.219,5.657 3.86,2.234 8.12,4.156 11.396,4.578 3.656,0.469 3.771,0.98 4.885,-0.578 1.115,-1.562 0.495,-2.037 0.11,-3.261 -0.454,-1.421 -7.692,-2.729 -11.714,-5.255 -1.885,-1.188 -5.63,-5.245 -6.672,-4.229 -1.041,1.011 -2.224,3.088 -2.224,3.088"
     id="path594" />
  <path
     style="fill:none;stroke:#231f20;stroke-width:0.565977;stroke-linecap:butt;stroke-linejoin:miter;stroke-miterlimit:4;stroke-dasharray:none;stroke-opacity:1"
     d="m 47.884048,40.644936 c -0.984,3.469 0.694,3.609 4.219,5.657 3.86,2.234 8.12,4.156 11.396,4.578 3.656,0.469 3.771,0.98 4.885,-0.578 1.115,-1.562 0.495,-2.037 0.11,-3.261 -0.454,-1.421 -7.692,-2.729 -11.714,-5.255 -1.885,-1.188 -5.63,-5.245 -6.672,-4.229 -1.041,1.011 -2.224,3.088 -2.224,3.088 z"
     id="path595" />
  <path
     style="fill:#231f20;fill-opacity:1;fill-rule:nonzero;stroke:#231f20;stroke-width:0.565977;stroke-linecap:butt;stroke-linejoin:miter;stroke-miterlimit:4;stroke-dasharray:none;stroke-opacity:1"
     d="m 66.155048,50.635936 c 0.068,0.494 0.573,0.853 1.751,1.281 0.593,0.219 2.301,0.703 2.614,0.932 1.058,0.749 2.343,1.541 8.875,2.38 1.016,0.12 2.906,0.703 4.276,0.995 1.333,0.292 0.906,-2.11 0.385,-2.224 -1.672,-0.38 -2.661,-0.995 -3.245,-1.208 -0.4,-0.156 -1.192,-0.308 -2.563,-1.256 -3.509,-2.443 -5.228,-1.9 -6.009,-2.348 -2.24,-1.282 -3.891,-2.839 -4.412,-2.423"
     id="path596" />
  <path
     style="fill:#231f20;fill-opacity:1;fill-rule:nonzero;stroke:none"
     d="m 87.191048,58.613936 c -0.651,0.11 -1.604,-1.432 -3.484,-2.005 -0.386,-0.12 -0.635,-0.396 -0.932,-0.625 -1.188,-0.932 -1.75,-2.427 2.073,-2.271 0.531,0.027 2.405,0.969 3.192,0.937 1.86,-0.072 4.204,2.276 3.932,2.724 -0.577,0.954 -4.781,1.24 -4.781,1.24"
     id="path597" />
  <path
     style="fill:none;stroke:#231f20;stroke-width:0.644548;stroke-linecap:round;stroke-linejoin:round;stroke-miterlimit:4;stroke-dasharray:none;stroke-opacity:1"
     d="m 87.191048,58.613936 c -0.651,0.11 -1.604,-1.432 -3.484,-2.005 -0.386,-0.12 -0.635,-0.396 -0.932,-0.625 -1.188,-0.932 -1.75,-2.427 2.073,-2.271 0.531,0.027 2.405,0.969 3.192,0.937 1.86,-0.072 4.204,2.276 3.932,2.724 -0.577,0.954 -4.781,1.24 -4.781,1.24 z"
     id="path599" />
  <path
     style="fill:#231f20;fill-opacity:1;fill-rule:nonzero;stroke:#231f20;stroke-width:0.565977;stroke-linecap:round;stroke-linejoin:round;stroke-miterlimit:4;stroke-dasharray:none;stroke-opacity:1"
     d="m 43.802048,20.155936 c 0,0 1.166,-0.615 2.333,-0.609 1.161,0 2.416,0.521 2.416,0.521 l 0.047,3.292 -4.787,0.072 z"
     id="path601" />
  <path
     style="fill:none;stroke:#231f20;stroke-width:0.665856;stroke-linecap:butt;stroke-linejoin:miter;stroke-miterlimit:4;stroke-dasharray:none;stroke-opacity:1"
     d="m 48.472048,2.7189359 c 0,1.317 -1.072,2.385 -2.39,2.385 -1.318,0 -2.386,-1.068 -2.386,-2.385 0,-1.318 1.068,-2.386 2.386,-2.386 1.318,0 2.39,1.068 2.39,2.386 z"
     id="path606" />
  <path
     style="fill:#fab41d;fill-opacity:1;fill-rule:nonzero;stroke:none"
     d="m 46.452048,45.149936 c 0.5,-0.005 1.099,-0.448 1.099,-0.448 0,0 0.625,-5.806 3.323,-7.353 l 0.36,-0.027 c 0.916,0.855 -0.423,-1.15 -0.423,-1.89 0.011,-3.255 1.276,-8.198 1.917,-9.369 0.88,-1.604 3.448,-2.151 2.359,-4.022 0,0 -0.64,-1.838 -3.421,-1.437 -1.006,0.147 -3.23,-0.536 -3.23,-0.536 0.011,0.036 0.022,0.077 0.022,0.115 0.02,1.254 -1.043,1.984 -2.376,2.025 l 0.073,-0.005 c -1.339,0 -2.416,-0.76 -2.437,-1.948 0,-0.042 0.01,-0.083 0.021,-0.124 0,0 -2.204,0.749 -3.209,0.634 -2.796,-0.317 -3.318,1.808 -3.318,1.808 -1.036,1.906 1.484,2.099 2.407,3.681 0.683,1.152 2.088,6.058 2.197,9.308 0.027,0.74 -1.26,2.787 -0.369,1.907 l 0.359,0.009 c 2.745,1.47 3.542,7.256 3.542,7.256 0,0 0.615,0.422 1.104,0.416"
     id="path607" />
  <path
     style="fill:none;stroke:#231f20;stroke-width:0.565977;stroke-linecap:butt;stroke-linejoin:miter;stroke-miterlimit:4;stroke-dasharray:none;stroke-opacity:1"
     d="m 46.452048,45.149936 c 0.5,-0.005 1.099,-0.448 1.099,-0.448 0,0 0.625,-5.806 3.323,-7.353 l 0.36,-0.027 c 0.916,0.855 -0.423,-1.15 -0.423,-1.89 0.011,-3.255 1.276,-8.198 1.917,-9.369 0.88,-1.604 3.448,-2.151 2.359,-4.022 0,0 -0.64,-1.838 -3.421,-1.437 -1.006,0.147 -3.23,-0.536 -3.23,-0.536 0.011,0.036 0.022,0.077 0.022,0.115 0.02,1.254 -1.043,1.984 -2.376,2.025 l 0.073,-0.005 c -1.339,0 -2.416,-0.76 -2.437,-1.948 0,-0.042 0.01,-0.083 0.021,-0.124 0,0 -2.204,0.749 -3.209,0.634 -2.796,-0.317 -3.318,1.808 -3.318,1.808 -1.036,1.906 1.484,2.099 2.407,3.681 0.683,1.152 2.088,6.058 2.197,9.308 0.027,0.74 -1.26,2.787 -0.369,1.907 l 0.359,0.009 c 2.745,1.47 3.542,7.256 3.542,7.256 0,0 0.615,0.422 1.104,0.416 z"
     id="path608" />
  <path
     style="fill:#ffffff;fill-opacity:1;fill-rule:nonzero;stroke:none"
     d="m 42.202048,15.254936 c 0.032,2.818 1.745,5.089 3.818,5.062 2.078,-0.025 3.728,-2.338 3.698,-5.161 -0.036,-2.823 -1.75,-5.093 -3.823,-5.063 -2.073,0.027 -3.729,2.334 -3.693,5.162"
     id="path609" />
  <path
     style="fill:none;stroke:#231f20;stroke-width:0.565977;stroke-linecap:butt;stroke-linejoin:miter;stroke-miterlimit:4;stroke-dasharray:none;stroke-opacity:1"
     d="m 42.202048,15.254936 c 0.032,2.818 1.745,5.089 3.818,5.062 2.078,-0.025 3.728,-2.338 3.698,-5.161 -0.036,-2.823 -1.75,-5.093 -3.823,-5.063 -2.073,0.027 -3.729,2.334 -3.693,5.162 z"
     id="path610" />
  <path
     style="fill:#fab41d;fill-opacity:1;fill-rule:nonzero;stroke:none"
     d="m 51.431048,37.067936 c 0.391,-0.183 2.667,2.442 2.667,2.442 -4.276,2.719 -3.11,5.932 -3.11,5.932 -4.328,0.667 -3.754,-0.489 -4.828,-0.161 -2.385,0.719 -3.729,0.969 -4.77,0.276 -0.5,-0.333 0.792,-3.735 -3.328,-5.771 0.828,-0.557 2.77,-2.052 3.385,-2.385 3.38,1.609 9.984,-0.333 9.984,-0.333"
     id="path611" />
  <path
     style="fill:none;stroke:#231f20;stroke-width:0.565977;stroke-linecap:butt;stroke-linejoin:miter;stroke-miterlimit:4;stroke-dasharray:none;stroke-opacity:1"
     d="m 51.431048,37.067936 c 0.391,-0.183 2.667,2.442 2.667,2.442 -4.276,2.719 -3.11,5.932 -3.11,5.932 -4.328,0.667 -3.754,-0.489 -4.828,-0.161 -2.385,0.719 -3.729,0.969 -4.77,0.276 -0.5,-0.333 0.792,-3.735 -3.328,-5.771 0.828,-0.557 2.77,-2.052 3.385,-2.385 3.38,1.609 9.984,-0.333 9.984,-0.333 z"
     id="path612" />
  <path
     style="fill:#231f20;fill-opacity:1;fill-rule:nonzero;stroke:none"
     d="m 19.400048,24.092936 c 0.5,-0.4 2.448,-0.338 3.954,-0.9 1.014,-0.385 3.749,-0.218 4.738,-0.677 0.902,-0.417 1.355,-0.527 2.006,0.427 0.39,0.552 0.765,1.89 0.365,2.198 -0.948,0.723 -1.865,0.958 -2.928,1 -1.219,0.041 -4.525,-0.12 -5.129,-0.209 -1.506,-0.219 -2.147,0.152 -2.552,0.131 -0.762,-0.036 -0.934,-0.339 -1.016,-0.834 -0.156,-0.948 0.562,-1.136 0.562,-1.136"
     id="path613" />
  <path
     style="fill:none;stroke:#231f20;stroke-width:0.565977;stroke-linecap:butt;stroke-linejoin:miter;stroke-miterlimit:4;stroke-dasharray:none;stroke-opacity:1"
     d="m 19.400048,24.092936 c 0.5,-0.4 2.448,-0.338 3.954,-0.9 1.014,-0.385 3.749,-0.218 4.738,-0.677 0.902,-0.417 1.355,-0.527 2.006,0.427 0.39,0.552 0.765,1.89 0.365,2.198 -0.948,0.723 -1.865,0.958 -2.928,1 -1.219,0.041 -4.525,-0.12 -5.129,-0.209 -1.506,-0.219 -2.147,0.152 -2.552,0.131 -0.762,-0.036 -0.934,-0.339 -1.016,-0.834 -0.156,-0.948 0.562,-1.136 0.562,-1.136 z"
     id="path614" />
  <path
     style="fill:#231f20;fill-opacity:1;fill-rule:nonzero;stroke:none"
     d="m 28.234048,23.114936 c -0.043,-1.298 1.973,-0.995 2.505,-0.995 0.552,0 2.093,-0.177 3.276,-0.469 1.197,-0.291 2.807,-0.156 5.063,-0.708 1.186,-0.292 2.525,0.177 2.874,1.921 0.344,1.715 -0.489,2.563 -1.984,2.699 -1.49,0.136 -2.948,-0.37 -4.458,-0.339 -1.511,0.031 -3.047,0.203 -4.246,0.401 -1.364,0.219 -2.125,-0.177 -2.374,-0.584 -0.642,-1.009 -0.656,-1.926 -0.656,-1.926"
     id="path615" />
  <path
     style="fill:none;stroke:#231f20;stroke-width:0.565977;stroke-linecap:butt;stroke-linejoin:miter;stroke-miterlimit:4;stroke-dasharray:none;stroke-opacity:1"
     d="m 28.234048,23.114936 c -0.043,-1.298 1.973,-0.995 2.505,-0.995 0.552,0 2.093,-0.177 3.276,-0.469 1.197,-0.291 2.807,-0.156 5.063,-0.708 1.186,-0.292 2.525,0.177 2.874,1.921 0.344,1.715 -0.489,2.563 -1.984,2.699 -1.49,0.136 -2.948,-0.37 -4.458,-0.339 -1.511,0.031 -3.047,0.203 -4.246,0.401 -1.364,0.219 -2.125,-0.177 -2.374,-0.584 -0.642,-1.009 -0.656,-1.926 -0.656,-1.926 z"
     id="path616" />
  <path
     style="fill:#231f20;fill-opacity:1;fill-rule:nonzero;stroke:none"
     d="m 12.676048,25.723936 c 0.667,0.308 3.906,0.573 4.651,0.593 0.661,0.027 1.751,0.433 2.281,-0.598 0.219,-0.402 0.246,-1.162 0.172,-1.468 -0.057,-0.262 -0.365,-0.366 -0.76,-0.344 -0.661,0.03 -0.849,0.301 -2.114,0.442 0,0 -0.292,0.078 -0.814,0.26 -1.546,0.511 -0.817,0.427 -3.229,0.672 -0.171,0.022 -0.276,0.194 -0.26,0.307 0.041,0.183 0.073,0.136 0.073,0.136"
     id="path617" />
  <path
     style="fill:none;stroke:#231f20;stroke-width:0.565977;stroke-linecap:round;stroke-linejoin:round;stroke-miterlimit:4;stroke-dasharray:none;stroke-opacity:1"
     d="m 12.676048,25.723936 c 0.667,0.308 3.906,0.573 4.651,0.593 0.661,0.027 1.751,0.433 2.281,-0.598 0.219,-0.402 0.246,-1.162 0.172,-1.468 -0.057,-0.262 -0.365,-0.366 -0.76,-0.344 -0.661,0.03 -0.849,0.301 -2.114,0.442 0,0 -0.292,0.078 -0.814,0.26 -1.546,0.511 -0.817,0.427 -3.229,0.672 -0.171,0.022 -0.276,0.194 -0.26,0.307 0.041,0.183 0.073,0.136 0.073,0.136 z"
     id="path618" />
  <path
     style="fill:#231f20;fill-opacity:1;fill-rule:nonzero;stroke:none"
     d="m 72.963048,23.759936 c -0.495,-0.4 -2.443,-0.339 -3.948,-0.9 -1.016,-0.385 -3.756,-0.219 -4.74,-0.677 -0.901,-0.412 -1.355,-0.527 -2.005,0.426 -0.391,0.558 -0.771,1.891 -0.37,2.199 0.948,0.723 1.864,0.957 2.932,1 1.219,0.047 4.527,-0.12 5.126,-0.209 1.51,-0.219 2.15,0.152 2.551,0.136 0.76,-0.042 0.938,-0.344 1.02,-0.839 0.158,-0.948 -0.566,-1.136 -0.566,-1.136"
     id="path619" />
  <path
     style="fill:none;stroke:#231f20;stroke-width:0.565977;stroke-linecap:butt;stroke-linejoin:miter;stroke-miterlimit:4;stroke-dasharray:none;stroke-opacity:1"
     d="m 72.963048,23.759936 c -0.495,-0.4 -2.443,-0.339 -3.948,-0.9 -1.016,-0.385 -3.756,-0.219 -4.74,-0.677 -0.901,-0.412 -1.355,-0.527 -2.005,0.426 -0.391,0.558 -0.771,1.891 -0.37,2.199 0.948,0.723 1.864,0.957 2.932,1 1.219,0.047 4.527,-0.12 5.126,-0.209 1.51,-0.219 2.15,0.152 2.551,0.136 0.76,-0.042 0.938,-0.344 1.02,-0.839 0.158,-0.948 -0.566,-1.136 -0.566,-1.136 z"
     id="path620" />
  <path
     style="fill:#231f20;fill-opacity:1;fill-rule:nonzero;stroke:none"
     d="m 64.135048,22.780936 c 0.041,-1.297 -1.975,-0.989 -2.511,-0.989 -0.546,0 -2.094,-0.183 -3.276,-0.475 -1.193,-0.29 -2.802,-0.156 -5.062,-0.702 -1.183,-0.298 -2.527,0.172 -2.875,1.916 -0.344,1.72 0.495,2.562 1.984,2.698 1.489,0.136 2.948,-0.369 4.459,-0.338 1.509,0.03 3.052,0.202 4.249,0.401 1.365,0.219 2.12,-0.177 2.369,-0.584 0.642,-1.009 0.663,-1.927 0.663,-1.927"
     id="path621" />
  <path
     style="fill:none;stroke:#231f20;stroke-width:0.565977;stroke-linecap:butt;stroke-linejoin:miter;stroke-miterlimit:4;stroke-dasharray:none;stroke-opacity:1"
     d="m 64.135048,22.780936 c 0.041,-1.297 -1.975,-0.989 -2.511,-0.989 -0.546,0 -2.094,-0.183 -3.276,-0.475 -1.193,-0.29 -2.802,-0.156 -5.062,-0.702 -1.183,-0.298 -2.527,0.172 -2.875,1.916 -0.344,1.72 0.495,2.562 1.984,2.698 1.489,0.136 2.948,-0.369 4.459,-0.338 1.509,0.03 3.052,0.202 4.249,0.401 1.365,0.219 2.12,-0.177 2.369,-0.584 0.642,-1.009 0.663,-1.927 0.663,-1.927 z"
     id="path622" />
  <path
     style="fill:#231f20;fill-opacity:1;fill-rule:nonzero;stroke:none"
     d="m 79.692048,25.390936 c -0.672,0.308 -3.912,0.573 -4.652,0.593 -0.667,0.027 -1.755,0.433 -2.281,-0.599 -0.224,-0.401 -0.25,-1.161 -0.178,-1.468 0.058,-0.256 0.371,-0.365 0.762,-0.344 0.666,0.031 0.848,0.302 2.114,0.443 0,0 0.296,0.077 0.812,0.26 1.547,0.511 0.823,0.427 3.235,0.672 0.167,0.021 0.271,0.193 0.255,0.307 -0.036,0.182 -0.067,0.136 -0.067,0.136"
     id="path623" />
  <path
     style="fill:none;stroke:#231f20;stroke-width:0.565977;stroke-linecap:round;stroke-linejoin:round;stroke-miterlimit:4;stroke-dasharray:none;stroke-opacity:1"
     d="m 79.692048,25.390936 c -0.672,0.308 -3.912,0.573 -4.652,0.593 -0.667,0.027 -1.755,0.433 -2.281,-0.599 -0.224,-0.401 -0.25,-1.161 -0.178,-1.468 0.058,-0.256 0.371,-0.365 0.762,-0.344 0.666,0.031 0.848,0.302 2.114,0.443 0,0 0.296,0.077 0.812,0.26 1.547,0.511 0.823,0.427 3.235,0.672 0.167,0.021 0.271,0.193 0.255,0.307 -0.036,0.182 -0.067,0.136 -0.067,0.136 z"
     id="path624" />
</svg>
