<?xml version="1.0" encoding="UTF-8" standalone="no"?>
<!-- Created with Inkscape (http://www.inkscape.org/) -->

<svg
   version="1.1"
   id="svg1"
   width="304.94946"
   height="97.396805"
   viewBox="0 0 304.94945 97.396803"
   sodipodi:docname="cell.svg"
   xmlns:inkscape="http://www.inkscape.org/namespaces/inkscape"
   xmlns:sodipodi="http://sodipodi.sourceforge.net/DTD/sodipodi-0.dtd"
   xmlns="http://www.w3.org/2000/svg"
   xmlns:svg="http://www.w3.org/2000/svg">
  <sodipodi:namedview
     id="namedview1"
     pagecolor="#ffffff"
     bordercolor="#000000"
     borderopacity="0.25"
     inkscape:showpageshadow="2"
     inkscape:pageopacity="0.0"
     inkscape:pagecheckerboard="0"
     inkscape:deskcolor="#d1d1d1">
    <inkscape:page
       x="3.1260944e-07"
       y="1.8987235e-07"
       inkscape:label="1"
       id="page1"
       width="304.94946"
       height="97.396805"
       margin="0"
       bleed="0" />
  </sodipodi:namedview>
  <defs
     id="defs1" />
  <path
     style="fill:#231f20;fill-opacity:1;fill-rule:nonzero;stroke:none"
     d="m 58.970429,80.720992 c -1.048,-2.011 -1.522,-2.261 -2.402,-1.876 -0.584,0.25 -1.213,0.292 -1.578,0.433 -1.214,0.463 -3.058,1.739 -7.348,6.734 -0.97,1.136 -2.344,2.718 -2.959,3.318 -0.969,0.948 1.265,1.916 1.651,1.547 1.234,-1.188 2.182,-1.901 2.688,-2.266 0.342,-0.256 0.896,-0.781 2.358,-1.578 2.214,-1.208 3.724,-1.609 5.454,-2.828 0.802,-0.563 1.765,-0.484 2.27,-1.438 0.506,-0.964 -0.134,-2.046 -0.134,-2.046"
     id="path859" />
  <path
     style="fill:none;stroke:#231f20;stroke-width:0.565977;stroke-linecap:butt;stroke-linejoin:miter;stroke-miterlimit:4;stroke-dasharray:none;stroke-opacity:1"
     d="m 58.970429,80.720992 c -1.048,-2.011 -1.522,-2.261 -2.402,-1.876 -0.584,0.25 -1.213,0.292 -1.578,0.433 -1.214,0.463 -3.058,1.739 -7.348,6.734 -0.97,1.136 -2.344,2.718 -2.959,3.318 -0.969,0.948 1.265,1.916 1.651,1.547 1.234,-1.188 2.182,-1.901 2.688,-2.266 0.342,-0.256 0.896,-0.781 2.358,-1.578 2.214,-1.208 3.724,-1.609 5.454,-2.828 0.802,-0.563 1.765,-0.484 2.27,-1.438 0.506,-0.964 -0.134,-2.046 -0.134,-2.046 z"
     id="path860" />
  <path
     style="fill:#231f20;fill-opacity:1;fill-rule:nonzero;stroke:none"
     d="m 42.970429,92.053992 c -0.819,-0.709 0.14,-1.516 1.066,-2.324 0.235,-0.202 0.434,-0.411 0.678,-0.588 0.989,-0.724 2.037,-0.74 2.188,2.251 0.005,0.109 0.734,2.171 1.036,2.718 1.448,2.605 2.125,2.105 1.448,2.605 -0.448,0.333 -0.854,0.03 -1.35,-0.361 -0.672,-0.52 -2.885,-2.588 -3.244,-2.879 -0.349,-0.287 -1.822,-1.422 -1.822,-1.422"
     id="path861" />
  <path
     style="fill:none;stroke:#231f20;stroke-width:0.565977;stroke-linecap:butt;stroke-linejoin:miter;stroke-miterlimit:4;stroke-dasharray:none;stroke-opacity:1"
     d="m 42.970429,92.053992 c -0.819,-0.709 0.14,-1.516 1.066,-2.324 0.235,-0.202 0.434,-0.411 0.678,-0.588 0.989,-0.724 2.037,-0.74 2.188,2.251 0.005,0.109 0.734,2.171 1.036,2.718 1.448,2.605 2.125,2.105 1.448,2.605 -0.448,0.333 -0.854,0.03 -1.35,-0.361 -0.672,-0.52 -2.885,-2.588 -3.244,-2.879 -0.349,-0.287 -1.822,-1.422 -1.822,-1.422 z"
     id="path863" />
  <path
     style="fill:#231f20;fill-opacity:1;fill-rule:nonzero;stroke:none"
     d="m 56.568429,81.329992 c 1.542,3.698 4.214,0.61 4.651,0.432 4.641,-1.907 4.923,-2.156 8.349,-3.855 4.954,-2.447 7.968003,-4.885 7.386003,-8.186 -0.396,-2.24 -1.594,-3.355 -2.880003,-3.62 -1.432,-0.292 -4.49,0.577 -5.308,3.349 l -1.276,1.14 c -0.958,0.656 -1.432,0.989 -1.927,1.276 -0.869,0.5 -1.771,1.088 -3.412,2.162 -2.905,1.896 -5.353,4.854 -5.353,4.854 -1.027,0.703 -0.23,2.448 -0.23,2.448"
     id="path865" />
  <path
     style="fill:none;stroke:#231f20;stroke-width:0.565977;stroke-linecap:butt;stroke-linejoin:miter;stroke-miterlimit:4;stroke-dasharray:none;stroke-opacity:1"
     d="m 56.568429,81.329992 c 1.542,3.698 4.214,0.61 4.651,0.432 4.641,-1.907 4.923,-2.156 8.349,-3.855 4.954,-2.447 7.968003,-4.885 7.386003,-8.186 -0.396,-2.24 -1.594,-3.355 -2.880003,-3.62 -1.432,-0.292 -4.49,0.577 -5.308,3.349 l -1.276,1.14 c -0.958,0.656 -1.432,0.989 -1.927,1.276 -0.869,0.5 -1.771,1.088 -3.412,2.162 -2.905,1.896 -5.353,4.854 -5.353,4.854 -1.027,0.703 -0.23,2.448 -0.23,2.448 z"
     id="path866" />
  <path
     style="fill:#fab41d;fill-opacity:1;fill-rule:nonzero;stroke:none"
     d="m 9.7664294,50.578992 c -1.364,2.823 -1.968,3.276 -2.662,3.881 -4.364,3.797 -2.416,5.859 0.36,6.63 3.2709996,0.907 4.4219996,1.298 6.6199996,-4.604 0.61,-1.641 3.771,-7.636 3.771,-7.636 1.421,-1.989 1.744,-4.691 1.015,-5.948 -0.766,-1.333 -0.558,-0.749 -1.495,-1.853 -0.891,-1.047 -2.953,-1.761 -4.02,-1.136 -1.021,0.599 -1.032,2.265 -1.36,4.666 -0.255,1.897 -2.2289996,6 -2.2289996,6"
     id="path867" />
  <path
     style="fill:none;stroke:#231f20;stroke-width:0.565977;stroke-linecap:butt;stroke-linejoin:miter;stroke-miterlimit:4;stroke-dasharray:none;stroke-opacity:1"
     d="m 9.7664294,50.578992 c -1.364,2.823 -1.968,3.276 -2.662,3.881 -4.364,3.797 -2.416,5.859 0.36,6.63 3.2709996,0.907 4.4219996,1.298 6.6199996,-4.604 0.61,-1.641 3.771,-7.636 3.771,-7.636 1.421,-1.989 1.744,-4.691 1.015,-5.948 -0.766,-1.333 -0.558,-0.749 -1.495,-1.853 -0.891,-1.047 -2.953,-1.761 -4.02,-1.136 -1.021,0.599 -1.032,2.265 -1.36,4.666 -0.255,1.897 -2.2289996,6 -2.2289996,6 z"
     id="path868" />
  <path
     style="fill:#231f20;fill-opacity:1;fill-rule:nonzero;stroke:none"
     d="m 34.271429,36.735992 c -0.369,0.526 -2.249,1.01 -3.536,1.98 -0.869,0.655 -3.547,1.265 -4.36,1.978 -0.744,0.656 -1.151,0.885 -2.047,0.156 -0.53,-0.426 -1.27,-1.598 -0.968,-2.01 0.703,-0.952 1.52,-1.438 2.536,-1.78 1.151,-0.386 4.37,-1.153001 4.974,-1.241001 1.51,-0.213 2.021,-0.75 2.412,-0.843 0.74,-0.178 0.989,0.062 1.208,0.515 0.417,0.864 -0.219,1.245001 -0.219,1.245001"
     id="path869" />
  <path
     style="fill:none;stroke:#231f20;stroke-width:0.565977;stroke-linecap:butt;stroke-linejoin:miter;stroke-miterlimit:4;stroke-dasharray:none;stroke-opacity:1"
     d="m 34.271429,36.735992 c -0.369,0.526 -2.249,1.01 -3.536,1.98 -0.869,0.655 -3.547,1.265 -4.36,1.978 -0.744,0.656 -1.151,0.885 -2.047,0.156 -0.53,-0.426 -1.27,-1.598 -0.968,-2.01 0.703,-0.952 1.52,-1.438 2.536,-1.78 1.151,-0.386 4.37,-1.153001 4.974,-1.241001 1.51,-0.213 2.021,-0.75 2.412,-0.843 0.74,-0.178 0.989,0.062 1.208,0.515 0.417,0.864 -0.219,1.245001 -0.219,1.245001 z"
     id="path870" />
  <path
     style="fill:#231f20;fill-opacity:1;fill-rule:nonzero;stroke:none"
     d="m 25.907429,40.215992 c 0.359,1.238 -1.661,1.448 -2.188,1.582 -0.525,0.136 -1.979,0.688 -3.057,1.266 -1.078,0.584 -2.672,0.843 -4.724,1.943 -1.078,0.578 -2.495,0.453 -3.26,-1.141 -0.76,-1.583 -0.162,-2.609 1.249,-3.114 1.412,-0.5 2.948,-0.375 4.401,-0.781 1.459,-0.402 2.902,-0.954 4.016,-1.438 1.271,-0.552 2.099,-0.355 2.448,-0.021 0.864,0.818 1.115,1.704 1.115,1.704"
     id="path871" />
  <path
     style="fill:none;stroke:#231f20;stroke-width:0.565977;stroke-linecap:butt;stroke-linejoin:miter;stroke-miterlimit:4;stroke-dasharray:none;stroke-opacity:1"
     d="m 25.907429,40.215992 c 0.359,1.238 -1.661,1.448 -2.188,1.582 -0.525,0.136 -1.979,0.688 -3.057,1.266 -1.078,0.584 -2.672,0.843 -4.724,1.943 -1.078,0.578 -2.495,0.453 -3.26,-1.141 -0.76,-1.583 -0.162,-2.609 1.249,-3.114 1.412,-0.5 2.948,-0.375 4.401,-0.781 1.459,-0.402 2.902,-0.954 4.016,-1.438 1.271,-0.552 2.099,-0.355 2.448,-0.021 0.864,0.818 1.115,1.704 1.115,1.704 z"
     id="path872" />
  <path
     style="fill:#231f20;fill-opacity:1;fill-rule:nonzero;stroke:none"
     d="m 40.724429,34.147991 c -0.536,0.489 -3.546,1.718 -4.249,1.969 -0.625,0.228 -1.537,0.943001 -2.355,0.124 -0.328,-0.328 -0.588,-1.041 -0.614,-1.353 -0.016,-0.262 0.24,-0.464 0.625,-0.563 0.645,-0.167 0.896,0.036 2.151,-0.208 0,0 0.302,-0.022 0.854,-0.011 1.63,0.02 0.906,0.167 3.276,-0.328 0.172,-0.042 0.328,0.104 0.343,0.224 0.021,0.176 -0.031,0.146 -0.031,0.146"
     id="path873" />
  <path
     style="fill:none;stroke:#231f20;stroke-width:0.565977;stroke-linecap:round;stroke-linejoin:round;stroke-miterlimit:4;stroke-dasharray:none;stroke-opacity:1"
     d="m 40.724429,34.147991 c -0.536,0.489 -3.546,1.718 -4.249,1.969 -0.625,0.228 -1.537,0.943001 -2.355,0.124 -0.328,-0.328 -0.588,-1.041 -0.614,-1.353 -0.016,-0.262 0.24,-0.464 0.625,-0.563 0.645,-0.167 0.896,0.036 2.151,-0.208 0,0 0.302,-0.022 0.854,-0.011 1.63,0.02 0.906,0.167 3.276,-0.328 0.172,-0.042 0.328,0.104 0.343,0.224 0.021,0.176 -0.031,0.146 -0.031,0.146 z"
     id="path874" />
  <path
     style="fill:#ffffff;fill-opacity:1;fill-rule:nonzero;stroke:none"
     d="m 22.058429,36.641992 c 0.141,-0.197 1.218,0.203 1.437,-0.276001 0.213,-0.473 -0.396,-0.973 -0.416,-2.969 l 0.005,-0.02 c 0.031,-1.453 -0.532,-2.724 -1.625,-3.339 -1.808,-1.016 -4.396,0.156 -5.776,2.62 -1.385,2.459 -1.037,5.282001 0.771,6.296001 1.734,0.975 4.182,-0.061 5.604,-2.312"
     id="path875" />
  <path
     style="fill:none;stroke:#231f20;stroke-width:0.565977;stroke-linecap:butt;stroke-linejoin:miter;stroke-miterlimit:4;stroke-dasharray:none;stroke-opacity:1"
     d="m 22.058429,36.641992 c 0.141,-0.197 1.218,0.203 1.437,-0.276001 0.213,-0.473 -0.396,-0.973 -0.416,-2.969 l 0.005,-0.02 c 0.031,-1.453 -0.532,-2.724 -1.625,-3.339 -1.808,-1.016 -4.396,0.156 -5.776,2.62 -1.385,2.459 -1.037,5.282001 0.771,6.296001 1.734,0.975 4.182,-0.061 5.604,-2.312 z"
     id="path876" />
  <path
     style="fill:#231f20;fill-opacity:1;fill-rule:nonzero;stroke:none"
     d="m 140.36943,31.277991 c 1.334,-0.229 1.839,0.624 1.662,1.646 -0.056,0.306 0.22,0.619 0.141,0.921 -0.177,0.677 -1.708,1.51 -2.724,0.407 -0.073,-0.079 -0.787,-0.49 -1.271,-0.87 -0.948,-0.761 -2.48,-2.734 -2.109,-5.406 0.167,-1.266 0.885,-0.927 0.973,-0.397 0.267,1.688 0.62,1.782 0.86,2.205 0.776,1.426 2.468,1.494 2.468,1.494"
     id="path877" />
  <path
     style="fill:none;stroke:#231f20;stroke-width:0.332927;stroke-linecap:butt;stroke-linejoin:miter;stroke-miterlimit:4;stroke-dasharray:none;stroke-opacity:1"
     d="m 140.36943,31.277991 c 1.334,-0.229 1.839,0.624 1.662,1.646 -0.056,0.306 0.22,0.619 0.141,0.921 -0.177,0.677 -1.708,1.51 -2.724,0.407 -0.073,-0.079 -0.787,-0.49 -1.271,-0.87 -0.948,-0.761 -2.48,-2.734 -2.109,-5.406 0.167,-1.266 0.885,-0.927 0.973,-0.397 0.267,1.688 0.62,1.782 0.86,2.205 0.776,1.426 2.468,1.494 2.468,1.494 z"
     id="path878" />
  <path
     style="fill:#231f20;fill-opacity:1;fill-rule:nonzero;stroke:none"
     d="m 150.13143,47.715992 c 2.057,-0.97 2.322,-1.428 1.968,-2.323 -0.224,-0.595 -0.239,-1.22 -0.359,-1.595 -0.407,-1.224 -1.609,-3.134 -6.417,-7.629001 -1.088,-1.021 -2.61,-2.464 -3.178,-3.1 -0.91,-1.005 -1.973,1.188 -1.618,1.589 1.134,1.287 1.801,2.260001 2.145,2.782001 0.24,0.353 0.745,0.921 1.479,2.421 1.109,2.27 1.442,3.792 2.589,5.568 0.531,0.833 0.401,1.787 1.344,2.328 0.932,0.552 2.047,-0.041 2.047,-0.041"
     id="path879" />
  <path
     style="fill:none;stroke:#231f20;stroke-width:0.565977;stroke-linecap:butt;stroke-linejoin:miter;stroke-miterlimit:4;stroke-dasharray:none;stroke-opacity:1"
     d="m 150.13143,47.715992 c 2.057,-0.97 2.322,-1.428 1.968,-2.323 -0.224,-0.595 -0.239,-1.22 -0.359,-1.595 -0.407,-1.224 -1.609,-3.134 -6.417,-7.629001 -1.088,-1.021 -2.61,-2.464 -3.178,-3.1 -0.91,-1.005 -1.973,1.188 -1.618,1.589 1.134,1.287 1.801,2.260001 2.145,2.782001 0.24,0.353 0.745,0.921 1.479,2.421 1.109,2.27 1.442,3.792 2.589,5.568 0.531,0.833 0.401,1.787 1.344,2.328 0.932,0.552 2.047,-0.041 2.047,-0.041 z"
     id="path880" />
  <path
     style="fill:#231f20;fill-opacity:1;fill-rule:nonzero;stroke:#231f20;stroke-width:0.565977;stroke-linecap:round;stroke-linejoin:round;stroke-miterlimit:4;stroke-dasharray:none;stroke-opacity:1"
     d="m 147.81743,46.751992 c -0.478,1.338 1.063,2.843 1.178,3.166 1.702,4.713 1.948,5.006 3.489,8.506 2.24,5.057 4.552,8.171 7.865,7.734 2.255,-0.303 3.427,-1.453 3.739,-2.729 0.349,-1.417 -0.38,-4.511 -3.113,-5.443 l -1.084,-1.327 c -0.626,-0.985 -0.932,-1.47 -1.198,-1.976 -0.458,-0.895 -1.01,-1.817 -2.01,-3.5 -1.776,-2.989 -4.62,-5.566 -4.62,-5.566 -0.172,-0.267 -0.407,-0.412 -0.662,-0.496"
     id="path881" />
  <path
     style="fill:#fab41d;fill-opacity:1;fill-rule:nonzero;stroke:none"
     d="m 166.60943,68.485992 c -1.754,-2.593 -1.854,-3.344 -2.03,-4.25 -1.115,-5.672 -3.876,-5.015 -5.928,-2.995 -2.416,2.38 -3.334,3.188 0.688,8.032 1.114,1.348 4.729,7.082 4.729,7.082 1.016,2.224 3.192,3.861 4.645,3.855 1.538,-0.005 0.932,-0.115 2.344,-0.374 1.36,-0.251 3.011,-1.678 3.006,-2.912 -0.011,-1.194 -1.448,-2.031 -3.37,-3.511 -1.516,-1.172 -4.084,-4.927 -4.084,-4.927"
     id="path882" />
  <path
     style="fill:none;stroke:#231f20;stroke-width:0.565977;stroke-linecap:butt;stroke-linejoin:miter;stroke-miterlimit:4;stroke-dasharray:none;stroke-opacity:1"
     d="m 166.60943,68.485992 c -1.754,-2.593 -1.854,-3.344 -2.03,-4.25 -1.115,-5.672 -3.876,-5.015 -5.928,-2.995 -2.416,2.38 -3.334,3.188 0.688,8.032 1.114,1.348 4.729,7.082 4.729,7.082 1.016,2.224 3.192,3.861 4.645,3.855 1.538,-0.005 0.932,-0.115 2.344,-0.374 1.36,-0.251 3.011,-1.678 3.006,-2.912 -0.011,-1.194 -1.448,-2.031 -3.37,-3.511 -1.516,-1.172 -4.084,-4.927 -4.084,-4.927 z"
     id="path883" />
  <path
     style="fill:#ffffff;fill-opacity:1;fill-rule:nonzero;stroke:none"
     d="m 172.23543,86.199992 c 0.12,0.218 -0.746,0.989 -0.427,1.406 0.328,0.416 1.057,0.099 2.823,1.011 l 0.02,0.009 c 1.266,0.704 2.661,0.803 3.713,0.115 1.74,-1.135 1.896,-3.968 0.365,-6.334 -1.546,-2.374 -4.202,-3.364 -5.948,-2.238 -1.666,1.077 -1.885,3.733 -0.546,6.031"
     id="path884" />
  <path
     style="fill:none;stroke:#231f20;stroke-width:0.565977;stroke-linecap:butt;stroke-linejoin:miter;stroke-miterlimit:4;stroke-dasharray:none;stroke-opacity:1"
     d="m 172.23543,86.199992 c 0.12,0.218 -0.746,0.989 -0.427,1.406 0.328,0.416 1.057,0.099 2.823,1.011 l 0.02,0.009 c 1.266,0.704 2.661,0.803 3.713,0.115 1.74,-1.135 1.896,-3.968 0.365,-6.334 -1.546,-2.374 -4.202,-3.364 -5.948,-2.238 -1.666,1.077 -1.885,3.733 -0.546,6.031 z"
     id="path885" />
  <path
     style="fill:#231f20;fill-opacity:1;fill-rule:nonzero;stroke:none"
     d="m 150.09343,77.063992 c -1.724,-1.458 -2.26,-1.51 -2.921,-0.818 -0.448,0.459 -1.016,0.73 -1.297,0.995 -0.948,0.885 -2.172,2.776 -4.244,9.021 -0.47,1.412 -1.147,3.402 -1.49,4.188 -0.526,1.244 1.906,1.296 2.119,0.802 0.704,-1.569 1.303,-2.578 1.625,-3.11 0.224,-0.364 0.532,-1.063 1.59,-2.359 1.598,-1.958 2.837,-2.895 3.968,-4.677 0.536,-0.828 1.453,-1.12 1.552,-2.199 0.114,-1.077 -0.902,-1.843 -0.902,-1.843"
     id="path886" />
  <path
     style="fill:none;stroke:#231f20;stroke-width:0.565977;stroke-linecap:butt;stroke-linejoin:miter;stroke-miterlimit:4;stroke-dasharray:none;stroke-opacity:1"
     d="m 150.09343,77.063992 c -1.724,-1.458 -2.26,-1.51 -2.921,-0.818 -0.448,0.459 -1.016,0.73 -1.297,0.995 -0.948,0.885 -2.172,2.776 -4.244,9.021 -0.47,1.412 -1.147,3.402 -1.49,4.188 -0.526,1.244 1.906,1.296 2.119,0.802 0.704,-1.569 1.303,-2.578 1.625,-3.11 0.224,-0.364 0.532,-1.063 1.59,-2.359 1.598,-1.958 2.837,-2.895 3.968,-4.677 0.536,-0.828 1.453,-1.12 1.552,-2.199 0.114,-1.077 -0.902,-1.843 -0.902,-1.843 z"
     id="path887" />
  <path
     style="fill:#231f20;fill-opacity:1;fill-rule:nonzero;stroke:#231f20;stroke-width:0.565977;stroke-linecap:round;stroke-linejoin:round;stroke-miterlimit:4;stroke-dasharray:none;stroke-opacity:1"
     d="m 150.19943,79.568992 c 1.41,-0.124 2.134,-2.151 2.38,-2.396 3.572,-3.515 3.733,-3.859 6.26,-6.728 3.661,-4.147 5.525,-7.548 3.734,-10.381 -1.213,-1.916 -2.745,-2.495 -4.041,-2.255 -1.433,0.276 -3.928,2.24 -3.636,5.109 l -0.755,1.542 c -0.641,0.974 -0.942,1.458 -1.292,1.917 -0.62,0.787 -1.229,1.677 -2.338,3.287 -1.97,2.864 -3.126,6.53 -3.126,6.53 -0.161,0.26 -0.202,0.532 -0.172,0.803"
     id="path888" />
  <path
     style="fill:#fab41d;fill-opacity:1;fill-rule:nonzero;stroke:none"
     d="m 162.97943,59.975992 c -1.214,-1.922 -2.744,-2.516 -4.036,-2.276 -1.432,0.27 -3.943,2.224 -3.656,5.098 l 5.984,5.027 c 2.24,-3.022 3.114,-5.609 1.708,-7.849"
     id="path889" />
  <path
     style="fill:none;stroke:#231f20;stroke-width:0.565977;stroke-linecap:butt;stroke-linejoin:miter;stroke-miterlimit:4;stroke-dasharray:none;stroke-opacity:1"
     d="m 162.97943,59.975992 c -1.214,-1.922 -2.744,-2.516 -4.036,-2.276 -1.432,0.27 -3.943,2.224 -3.656,5.098 l 5.984,5.027 c 2.24,-3.022 3.114,-5.609 1.708,-7.849 z"
     id="path890" />
  <path
     style="fill:#231f20;fill-opacity:1;fill-rule:nonzero;stroke:none"
     d="m 180.70343,94.475992 c -0.599,-0.224 -1.531,-1.938 -2.782,-2.954 -0.848,-0.682 -2.088,-3.125 -2.978,-3.744 -0.818,-0.562 -1.14,-0.896 -0.651,-1.942 0.287,-0.62 1.244,-1.626 1.713,-1.434 1.099,0.459 1.771,1.126 2.344,2.027 0.656,1.025 2.187,3.958 2.422,4.525 0.573,1.412 1.208,1.776 1.401,2.136 0.349,0.677 0.177,0.974 -0.208,1.297 -0.735,0.62 -1.261,0.089 -1.261,0.089"
     id="path891" />
  <path
     style="fill:none;stroke:#231f20;stroke-width:0.565977;stroke-linecap:butt;stroke-linejoin:miter;stroke-miterlimit:4;stroke-dasharray:none;stroke-opacity:1"
     d="m 180.70343,94.475992 c -0.599,-0.224 -1.531,-1.938 -2.782,-2.954 -0.848,-0.682 -2.088,-3.125 -2.978,-3.744 -0.818,-0.562 -1.14,-0.896 -0.651,-1.942 0.287,-0.62 1.244,-1.626 1.713,-1.434 1.099,0.459 1.771,1.126 2.344,2.027 0.656,1.025 2.187,3.958 2.422,4.525 0.573,1.412 1.208,1.776 1.401,2.136 0.349,0.677 0.177,0.974 -0.208,1.297 -0.735,0.62 -1.261,0.089 -1.261,0.089 z"
     id="path892" />
  <path
     style="fill:#231f20;fill-opacity:1;fill-rule:nonzero;stroke:none"
     d="m 175.29743,87.209992 c -1.12,0.651 -1.813,-1.26 -2.068,-1.734 -0.26,-0.479 -1.15,-1.755 -1.978,-2.657 -0.824,-0.906 -1.47,-2.39 -3.032,-4.114 -0.823,-0.902 -1.047,-2.308 0.317,-3.438 1.349,-1.125 2.491,-0.791 3.324,0.454 0.823,1.244 1.077,2.771 1.828,4.082 0.744,1.318 1.629,2.585 2.375,3.542 0.838,1.1 0.854,1.953 0.614,2.365 -0.584,1.042 -1.38,1.5 -1.38,1.5"
     id="path893" />
  <path
     style="fill:none;stroke:#231f20;stroke-width:0.565977;stroke-linecap:butt;stroke-linejoin:miter;stroke-miterlimit:4;stroke-dasharray:none;stroke-opacity:1"
     d="m 175.29743,87.209992 c -1.12,0.651 -1.813,-1.26 -2.068,-1.734 -0.26,-0.479 -1.15,-1.755 -1.978,-2.657 -0.824,-0.906 -1.47,-2.39 -3.032,-4.114 -0.823,-0.902 -1.047,-2.308 0.317,-3.438 1.349,-1.125 2.491,-0.791 3.324,0.454 0.823,1.244 1.077,2.771 1.828,4.082 0.744,1.318 1.629,2.585 2.375,3.542 0.838,1.1 0.854,1.953 0.614,2.365 -0.584,1.042 -1.38,1.5 -1.38,1.5 z"
     id="path894" />
  <path
     style="fill:#231f20;fill-opacity:1;fill-rule:nonzero;stroke:none"
     d="m 187.09943,96.548992 c -0.698,0.224 -3.948,0.098 -4.687,0.03 -0.667,-0.051 -1.787,0.219 -2.193,-0.863 -0.172,-0.429 -0.11,-1.188 0,-1.486 0.089,-0.244 0.412,-0.317 0.797,-0.244 0.656,0.104 0.807,0.401 2.047,0.692 0,0 0.286,0.115 0.776,0.355 1.473,0.693 0.76,0.526 3.13,1.052 0.167,0.041 0.244,0.229 0.214,0.338 -0.052,0.178 -0.084,0.126 -0.084,0.126"
     id="path895" />
  <path
     style="fill:none;stroke:#231f20;stroke-width:0.565977;stroke-linecap:round;stroke-linejoin:round;stroke-miterlimit:4;stroke-dasharray:none;stroke-opacity:1"
     d="m 187.09943,96.548992 c -0.698,0.224 -3.948,0.098 -4.687,0.03 -0.667,-0.051 -1.787,0.219 -2.193,-0.863 -0.172,-0.429 -0.11,-1.188 0,-1.486 0.089,-0.244 0.412,-0.317 0.797,-0.244 0.656,0.104 0.807,0.401 2.047,0.692 0,0 0.286,0.115 0.776,0.355 1.473,0.693 0.76,0.526 3.13,1.052 0.167,0.041 0.244,0.229 0.214,0.338 -0.052,0.178 -0.084,0.126 -0.084,0.126 z"
     id="path896" />
  <path
     style="fill:#231f20;fill-opacity:1;fill-rule:nonzero;stroke:none"
     d="m 138.39643,92.297992 c -0.443,-1.281 0.317,-1.916 1.355,-1.905 0.312,0 0.572,-0.324 0.88,-0.298 0.702,0.063 1.77,1.438 0.853,2.621 -0.063,0.087 -0.348,0.853 -0.645,1.401 -0.599,1.052 -2.292,2.89 -4.99,2.968 -1.276,0.036 -1.057,-0.724 -0.546,-0.902 1.618,-0.536 1.656,-0.9 2.03,-1.207 1.276,-1 1.063,-2.678 1.063,-2.678"
     id="path898" />
  <path
     style="fill:none;stroke:#231f20;stroke-width:0.332927;stroke-linecap:butt;stroke-linejoin:miter;stroke-miterlimit:4;stroke-dasharray:none;stroke-opacity:1"
     d="m 138.39643,92.297992 c -0.443,-1.281 0.317,-1.916 1.355,-1.905 0.312,0 0.572,-0.324 0.88,-0.298 0.702,0.063 1.77,1.438 0.853,2.621 -0.063,0.087 -0.348,0.853 -0.645,1.401 -0.599,1.052 -2.292,2.89 -4.99,2.968 -1.276,0.036 -1.057,-0.724 -0.546,-0.902 1.618,-0.536 1.656,-0.9 2.03,-1.207 1.276,-1 1.063,-2.678 1.063,-2.678 z"
     id="path900" />
  <path
     style="fill:#231f20;fill-opacity:1;fill-rule:nonzero;stroke:none"
     d="m 8.9484294,76.111992 c -1.969,-1.12 -2.5,-1.074 -3.03,-0.276 -0.355,0.53 -0.86,0.905 -1.095,1.218 -0.765,1.052 -1.62,3.124 -2.515,9.646 -0.204,1.478 -0.5,3.557 -0.688,4.39 -0.302,1.323 2.099,0.921 2.224,0.412 0.396,-1.672 0.802,-2.786 1.026,-3.371 0.157,-0.396 0.333,-1.134 1.13,-2.603 1.203,-2.219 2.26,-3.364 3.047,-5.328 0.371,-0.912 1.2189996,-1.364 1.1249996,-2.443 -0.093,-1.083 -1.2239996,-1.645 -1.2239996,-1.645"
     id="path902" />
  <path
     style="fill:none;stroke:#231f20;stroke-width:0.565977;stroke-linecap:butt;stroke-linejoin:miter;stroke-miterlimit:4;stroke-dasharray:none;stroke-opacity:1"
     d="m 8.9484294,76.111992 c -1.969,-1.12 -2.5,-1.074 -3.03,-0.276 -0.355,0.53 -0.86,0.905 -1.095,1.218 -0.765,1.052 -1.62,3.124 -2.515,9.646 -0.204,1.478 -0.5,3.557 -0.688,4.39 -0.302,1.323 2.099,0.921 2.224,0.412 0.396,-1.672 0.802,-2.786 1.026,-3.371 0.157,-0.396 0.333,-1.134 1.13,-2.603 1.203,-2.219 2.26,-3.364 3.047,-5.328 0.371,-0.912 1.2189996,-1.364 1.1249996,-2.443 -0.093,-1.083 -1.2239996,-1.645 -1.2239996,-1.645 z"
     id="path903" />
  <path
     style="fill:#231f20;fill-opacity:1;fill-rule:nonzero;stroke:#231f20;stroke-width:0.565977;stroke-linecap:round;stroke-linejoin:miter;stroke-miterlimit:4;stroke-dasharray:none;stroke-opacity:1"
     d="m 9.9184294,78.647992 c 1.0249996,-0.875 0.6659996,-2.865 0.7489996,-3.183 1.317,-4.834 1.292,-5.213 2.036,-8.963 1.079,-5.423 0.985,-9.302 -1.984,-10.849 -2.0159996,-1.047 -3.6309996,-0.782 -4.6309996,0.077 -1.104,0.959 -2.276,3.912 -0.577,6.246 l 0.125,1.707 c -0.068,1.162 -0.089,1.741 -0.161,2.309 -0.136,0.994 -0.215,2.068 -0.371,4.02 -0.265,3.453 0.584,7.209 0.584,7.209 -0.016,0.307 0.088,0.567 0.255,0.781"
     id="path904" />
  <path
     style="fill:#fab41d;fill-opacity:1;fill-rule:nonzero;stroke:none"
     d="m 13.099429,59.001992 c -0.339,-1.521 -1.072,-2.666 -2.38,-3.349 -2.0159996,-1.047 -3.6349996,-0.782 -4.6309996,0.077 -1.104,0.959 -2.276,3.907 -0.577,6.246 l 7.7029996,1.312 c 0.068,-0.651 0.098,-1.26 0.104,-1.843 0.026,-0.079 0.057,-0.152 0.089,-0.215 0.375,-0.713 0.135,-1.29 -0.308,-2.228"
     id="path905" />
  <path
     style="fill:none;stroke:#231f20;stroke-width:0.565977;stroke-linecap:round;stroke-linejoin:round;stroke-miterlimit:4;stroke-dasharray:none;stroke-opacity:1"
     d="m 13.099429,59.001992 c -0.339,-1.521 -1.072,-2.666 -2.38,-3.349 -2.0159996,-1.047 -3.6349996,-0.782 -4.6309996,0.077 -1.104,0.959 -2.276,3.907 -0.577,6.246 l 7.7029996,1.312 c 0.068,-0.651 0.098,-1.26 0.104,-1.843 0.026,-0.079 0.057,-0.152 0.089,-0.215 0.375,-0.713 0.135,-1.29 -0.308,-2.228 z"
     id="path906" />
  <path
     style="fill:#231f20;fill-opacity:1;fill-rule:nonzero;stroke:none"
     d="m 0.79842938,94.229992 c -1,-0.416 -0.344,-1.484 0.28600002,-2.541 0.156,-0.26 0.28,-0.525 0.458,-0.771 0.713,-0.995 1.704,-1.339 2.781,1.453 0.041,0.105 1.375,1.839 1.833,2.26 2.194,2.022 2.678,1.339 2.194,2.022 -0.323,0.458 -0.808,0.297 -1.396,0.082 -0.803,-0.29 -3.552,-1.557 -3.984,-1.724 -0.418,-0.161 -2.17200002,-0.781 -2.17200002,-0.781"
     id="path907" />
  <path
     style="fill:none;stroke:#231f20;stroke-width:0.565977;stroke-linecap:butt;stroke-linejoin:miter;stroke-miterlimit:4;stroke-dasharray:none;stroke-opacity:1"
     d="m 0.79842938,94.229992 c -1,-0.416 -0.344,-1.484 0.28600002,-2.541 0.156,-0.26 0.28,-0.525 0.458,-0.771 0.713,-0.995 1.704,-1.339 2.781,1.453 0.041,0.105 1.375,1.839 1.833,2.26 2.194,2.022 2.678,1.339 2.194,2.022 -0.323,0.458 -0.808,0.297 -1.396,0.082 -0.803,-0.29 -3.552,-1.557 -3.984,-1.724 -0.418,-0.161 -2.17200002,-0.781 -2.17200002,-0.781 z"
     id="path909" />
  <path
     style="fill:#fab41d;fill-opacity:1;fill-rule:nonzero;stroke:none"
     d="m 78.355432,62.387992 c -2.719,1.562 -4.480003,3.093 -5.235003,3.619 -2.62,1.823 -3.698,4.219 -1.828,6.411 2.192,2.589 4.963003,2.079 8.271003,-0.442 1.401,-1.069 2.427,-1.74 2.427,-1.74 7.474,-2.433 8.756,-5.771 8.994,-6.495 0.454,-1.353 0.058,-0.905 -0.229,-2.323 -0.536,-2.62 -1.495,-3.213 -2.681,-3.202 -1.194,0.014 -2.308,0.666 -4.574,1.536 -2.166,0.838 -5.145,2.636 -5.145,2.636"
     id="path911" />
  <path
     style="fill:none;stroke:#231f20;stroke-width:0.565977;stroke-linecap:butt;stroke-linejoin:miter;stroke-miterlimit:4;stroke-dasharray:none;stroke-opacity:1"
     d="m 78.355432,62.387992 c -2.719,1.562 -4.480003,3.093 -5.235003,3.619 -2.62,1.823 -3.698,4.219 -1.828,6.411 2.192,2.589 4.963003,2.079 8.271003,-0.442 1.401,-1.069 2.427,-1.74 2.427,-1.74 7.474,-2.433 8.756,-5.771 8.994,-6.495 0.454,-1.353 0.058,-0.905 -0.229,-2.323 -0.536,-2.62 -1.495,-3.213 -2.681,-3.202 -1.194,0.014 -2.308,0.666 -4.574,1.536 -2.166,0.838 -5.145,2.636 -5.145,2.636 z"
     id="path912" />
  <path
     style="fill:#ffffff;fill-opacity:1;fill-rule:nonzero;stroke:none"
     d="m 300.33743,32.844991 c 0.04,-0.239 1.17,-0.38 1.15,-0.9 -0.03,-0.527 -0.79,-0.688 -1.73,-2.448 l -0.01,-0.016 c -0.64,-1.308 -1.72,-2.177 -2.98,-2.219 -2.07,-0.073 -3.83,2.156 -3.92,4.979 -0.1,2.828 1.51,5.166001 3.58,5.240001 1.99,0.068 3.69,-1.979001 3.91,-4.636001"
     id="path913" />
  <path
     style="fill:none;stroke:#231f20;stroke-width:0.565977;stroke-linecap:butt;stroke-linejoin:miter;stroke-miterlimit:4;stroke-dasharray:none;stroke-opacity:1"
     d="m 300.33743,32.844991 c 0.04,-0.239 1.17,-0.38 1.15,-0.9 -0.03,-0.527 -0.79,-0.688 -1.73,-2.448 l -0.01,-0.016 c -0.64,-1.308 -1.72,-2.177 -2.98,-2.219 -2.07,-0.073 -3.83,2.156 -3.92,4.979 -0.1,2.828 1.51,5.166001 3.58,5.240001 1.99,0.068 3.69,-1.979001 3.91,-4.636001 z"
     id="path914" />
  <path
     style="fill:#fab41d;fill-opacity:1;fill-rule:nonzero;stroke:none"
     d="m 295.83743,50.876992 c 0.09,3.135 -0.24,3.817 -0.58,4.672 -2.13,5.375 0.55,6.317 3.38,5.718 3.31,-0.703 4.51,-0.879 3.75,-7.136 -0.21,-1.734 -0.16,-8.505 -0.16,-8.505 0.35,-2.426 -0.61,-4.968 -1.84,-5.755 -1.29,-0.828 -0.84,-0.406 -2.17,-0.958 -1.28,-0.52 -3.44,-0.208 -4.1,0.839 -0.63,1.005 0.13,2.494 0.94,4.776 0.65,1.802 0.78,6.349 0.78,6.349"
     id="path915" />
  <path
     style="fill:none;stroke:#231f20;stroke-width:0.565977;stroke-linecap:butt;stroke-linejoin:miter;stroke-miterlimit:4;stroke-dasharray:none;stroke-opacity:1"
     d="m 295.83743,50.876992 c 0.09,3.135 -0.24,3.817 -0.58,4.672 -2.13,5.375 0.55,6.317 3.38,5.718 3.31,-0.703 4.51,-0.879 3.75,-7.136 -0.21,-1.734 -0.16,-8.505 -0.16,-8.505 0.35,-2.426 -0.61,-4.968 -1.84,-5.755 -1.29,-0.828 -0.84,-0.406 -2.17,-0.958 -1.28,-0.52 -3.44,-0.208 -4.1,0.839 -0.63,1.005 0.13,2.494 0.94,4.776 0.65,1.802 0.78,6.349 0.78,6.349 z"
     id="path916" />
  <path
     style="fill:#231f20;fill-opacity:1;fill-rule:nonzero;stroke:none"
     d="m 287.59743,22.865991 c 0.57,0.292 1.32,2.084 2.46,3.224 0.77,0.76 1.75,3.323 2.58,4.031 0.75,0.646 1.04,1.016 0.45,2.005 -0.35,0.584 -1.4,1.486 -1.86,1.246 -1.04,-0.563 -1.64,-1.308 -2.12,-2.26 -0.54,-1.084 -1.76,-4.162 -1.94,-4.751 -0.42,-1.464 -1.03,-1.89 -1.17,-2.265 -0.28,-0.708 -0.09,-0.99 0.34,-1.271 0.79,-0.537 1.26,0.041 1.26,0.041"
     id="path917" />
  <path
     style="fill:none;stroke:#231f20;stroke-width:0.565977;stroke-linecap:butt;stroke-linejoin:miter;stroke-miterlimit:4;stroke-dasharray:none;stroke-opacity:1"
     d="m 287.59743,22.865991 c 0.57,0.292 1.32,2.084 2.46,3.224 0.77,0.76 1.75,3.323 2.58,4.031 0.75,0.646 1.04,1.016 0.45,2.005 -0.35,0.584 -1.4,1.486 -1.86,1.246 -1.04,-0.563 -1.64,-1.308 -2.12,-2.26 -0.54,-1.084 -1.76,-4.162 -1.94,-4.751 -0.42,-1.464 -1.03,-1.89 -1.17,-2.265 -0.28,-0.708 -0.09,-0.99 0.34,-1.271 0.79,-0.537 1.26,0.041 1.26,0.041 z"
     id="path918" />
  <path
     style="fill:#231f20;fill-opacity:1;fill-rule:nonzero;stroke:none"
     d="m 292.22743,30.652991 c 1.17,-0.532 1.66,1.443 1.88,1.943 0.2,0.5 0.96,1.858 1.68,2.844 0.73,0.984 1.22,2.525001 2.6,4.400001 0.72,0.985 0.8,2.406 -0.67,3.39 -1.46,0.98 -2.56,0.532 -3.25,-0.796 -0.7,-1.322 -0.8,-2.865 -1.41,-4.245 -0.6,-1.385 -1.35,-2.739001 -1.99,-3.771001 -0.73,-1.182 -0.65,-2.03 -0.37,-2.416 0.69,-0.98 1.53,-1.349 1.53,-1.349"
     id="path919" />
  <path
     style="fill:none;stroke:#231f20;stroke-width:0.565977;stroke-linecap:butt;stroke-linejoin:miter;stroke-miterlimit:4;stroke-dasharray:none;stroke-opacity:1"
     d="m 292.22743,30.652991 c 1.17,-0.532 1.66,1.443 1.88,1.943 0.2,0.5 0.96,1.858 1.68,2.844 0.73,0.984 1.22,2.525001 2.6,4.400001 0.72,0.985 0.8,2.406 -0.67,3.39 -1.46,0.98 -2.56,0.532 -3.25,-0.796 -0.7,-1.322 -0.8,-2.865 -1.41,-4.245 -0.6,-1.385 -1.35,-2.739001 -1.99,-3.771001 -0.73,-1.182 -0.65,-2.03 -0.37,-2.416 0.69,-0.98 1.53,-1.349 1.53,-1.349 z"
     id="path920" />
  <path
     style="fill:#231f20;fill-opacity:1;fill-rule:nonzero;stroke:none"
     d="m 284.11743,16.844991 c 0.56,0.464 2.21,3.267 2.55,3.928 0.32,0.588 1.15,1.385 0.46,2.317 -0.28,0.37 -0.94,0.719 -1.26,0.792 -0.25,0.058 -0.49,-0.166 -0.64,-0.537 -0.25,-0.615 -0.09,-0.891 -0.51,-2.093 0,0 -0.06,-0.302 -0.13,-0.85 -0.21,-1.614 0.03,-0.921 -0.79,-3.197 -0.06,-0.161 0.06,-0.339 0.17,-0.369 0.17,-0.048 0.15,0.009 0.15,0.009"
     id="path921" />
  <path
     style="fill:none;stroke:#231f20;stroke-width:0.565977;stroke-linecap:round;stroke-linejoin:round;stroke-miterlimit:4;stroke-dasharray:none;stroke-opacity:1"
     d="m 284.11743,16.844991 c 0.56,0.464 2.21,3.267 2.55,3.928 0.32,0.588 1.15,1.385 0.46,2.317 -0.28,0.37 -0.94,0.719 -1.26,0.792 -0.25,0.058 -0.49,-0.166 -0.64,-0.537 -0.25,-0.615 -0.09,-0.891 -0.51,-2.093 0,0 -0.06,-0.302 -0.13,-0.85 -0.21,-1.614 0.03,-0.921 -0.79,-3.197 -0.06,-0.161 0.06,-0.339 0.17,-0.369 0.17,-0.048 0.15,0.009 0.15,0.009 z"
     id="path922" />
  <path
     style="fill:#231f20;fill-opacity:1;fill-rule:nonzero;stroke:none"
     d="m 298.27743,76.578992 c -2.23,-0.396 -2.72,-0.166 -2.95,0.762 -0.16,0.613 -0.51,1.14 -0.62,1.509 -0.37,1.251 -0.48,3.491 0.86,9.937 0.3,1.459 0.72,3.516 0.82,4.366 0.16,1.349 2.29,0.166 2.23,-0.36 -0.18,-1.708 -0.17,-2.896 -0.15,-3.515 0.01,-0.433 -0.07,-1.188 0.18,-2.833 0.4,-2.495 1,-3.933 1.09,-6.043 0.04,-0.984 0.69,-1.697 0.24,-2.681 -0.45,-0.985 -1.7,-1.142 -1.7,-1.142"
     id="path923" />
  <path
     style="fill:none;stroke:#231f20;stroke-width:0.565977;stroke-linecap:butt;stroke-linejoin:miter;stroke-miterlimit:4;stroke-dasharray:none;stroke-opacity:1"
     d="m 298.27743,76.578992 c -2.23,-0.396 -2.72,-0.166 -2.95,0.762 -0.16,0.613 -0.51,1.14 -0.62,1.509 -0.37,1.251 -0.48,3.491 0.86,9.937 0.3,1.459 0.72,3.516 0.82,4.366 0.16,1.349 2.29,0.166 2.23,-0.36 -0.18,-1.708 -0.17,-2.896 -0.15,-3.515 0.01,-0.433 -0.07,-1.188 0.18,-2.833 0.4,-2.495 1,-3.933 1.09,-6.043 0.04,-0.984 0.69,-1.697 0.24,-2.681 -0.45,-0.985 -1.7,-1.142 -1.7,-1.142 z"
     id="path924" />
  <path
     style="fill:#231f20;fill-opacity:1;fill-rule:nonzero;stroke:#231f20;stroke-width:0.565977;stroke-linecap:round;stroke-linejoin:miter;stroke-miterlimit:4;stroke-dasharray:none;stroke-opacity:1"
     d="m 299.72743,78.611992 c 1.02,-0.876 0.66,-2.866 0.75,-3.183 1.31,-4.834 1.29,-5.213 2.03,-8.964 1.08,-5.416 0.99,-9.296 -1.98,-10.844 -2.02,-1.052 -3.64,-0.781 -4.63,0.079 -1.11,0.953 -2.28,3.906 -0.59,6.245 l 0.14,1.708 c -0.07,1.161 -0.09,1.735 -0.17,2.307 -0.14,0.994 -0.21,2.062 -0.36,4.016 -0.27,3.458 0.58,7.207 0.58,7.207 -0.02,0.314 0.09,0.574 0.25,0.787"
     id="path925" />
  <path
     style="fill:#fab41d;fill-opacity:1;fill-rule:nonzero;stroke:none"
     d="m 302.90743,58.964992 c -0.34,-1.515 -1.07,-2.662 -2.38,-3.344 -2.02,-1.052 -3.64,-0.781 -4.63,0.079 -1.11,0.953 -2.28,3.906 -0.59,6.245 l 7.71,1.312 c 0.07,-0.651 0.1,-1.26 0.11,-1.85 0.02,-0.071 0.06,-0.145 0.09,-0.207 0.38,-0.714 0.13,-1.298 -0.31,-2.235"
     id="path926" />
  <path
     style="fill:none;stroke:#231f20;stroke-width:0.565977;stroke-linecap:round;stroke-linejoin:round;stroke-miterlimit:4;stroke-dasharray:none;stroke-opacity:1"
     d="m 302.90743,58.964992 c -0.34,-1.515 -1.07,-2.662 -2.38,-3.344 -2.02,-1.052 -3.64,-0.781 -4.63,0.079 -1.11,0.953 -2.28,3.906 -0.59,6.245 l 7.71,1.312 c 0.07,-0.651 0.1,-1.26 0.11,-1.85 0.02,-0.071 0.06,-0.145 0.09,-0.207 0.38,-0.714 0.13,-1.298 -0.31,-2.235 z"
     id="path927" />
  <path
     style="fill:#231f20;fill-opacity:1;fill-rule:nonzero;stroke:none"
     d="m 296.66743,96.386992 c -1.08,-0.057 -0.82,-1.286 -0.58,-2.49 0.06,-0.302 0.09,-0.594 0.17,-0.88 0.34,-1.182 1.16,-1.834 3.11,0.437 0.07,0.084 1.91,1.267 2.48,1.516 2.75,1.167 2.98,0.36 2.75,1.167 -0.15,0.541 -0.67,0.552 -1.29,0.546 -0.85,-0.005 -3.87,-0.281 -4.33,-0.29 -0.45,-0.011 -2.31,-0.006 -2.31,-0.006"
     id="path928" />
  <path
     style="fill:none;stroke:#231f20;stroke-width:0.565977;stroke-linecap:butt;stroke-linejoin:miter;stroke-miterlimit:4;stroke-dasharray:none;stroke-opacity:1"
     d="m 296.66743,96.386992 c -1.08,-0.057 -0.82,-1.286 -0.58,-2.49 0.06,-0.302 0.09,-0.594 0.17,-0.88 0.34,-1.182 1.16,-1.834 3.11,0.437 0.07,0.084 1.91,1.267 2.48,1.516 2.75,1.167 2.98,0.36 2.75,1.167 -0.15,0.541 -0.67,0.552 -1.29,0.546 -0.85,-0.005 -3.87,-0.281 -4.33,-0.29 -0.45,-0.011 -2.31,-0.006 -2.31,-0.006 z"
     id="path929" />
  <path
     style="fill:#ffffff;fill-opacity:1;fill-rule:nonzero;stroke:none"
     d="m 99.073432,59.235992 c 0.182,-0.162 1.145998,0.464 1.462998,0.042 0.319,-0.417 -0.172,-1.037 0.24,-2.985 l 0.005,-0.02 c 0.35,-1.412 0.079,-2.771 -0.853998,-3.609 -1.547,-1.386 -4.334,-0.809 -6.214,1.296 -1.885,2.109 -2.155,4.937 -0.609,6.323 1.48,1.323 4.095,0.848 5.969,-1.047"
     id="path931" />
  <path
     style="fill:none;stroke:#231f20;stroke-width:0.565977;stroke-linecap:butt;stroke-linejoin:miter;stroke-miterlimit:4;stroke-dasharray:none;stroke-opacity:1"
     d="m 99.073432,59.235992 c 0.182,-0.162 1.145998,0.464 1.462998,0.042 0.319,-0.417 -0.172,-1.037 0.24,-2.985 l 0.005,-0.02 c 0.35,-1.412 0.079,-2.771 -0.853998,-3.609 -1.547,-1.386 -4.334,-0.809 -6.214,1.296 -1.885,2.109 -2.155,4.937 -0.609,6.323 1.48,1.323 4.095,0.848 5.969,-1.047 z"
     id="path932" />
  <path
     style="fill:#231f20;fill-opacity:1;fill-rule:nonzero;stroke:none"
     d="m 107.80843,52.245992 c -0.292,0.573 -2.084,1.323 -3.224,2.464 -0.767,0.771 -3.324,1.755 -4.032,2.578 -0.644998,0.755 -1.015998,1.042 -2.004998,0.448 -0.583,-0.348 -1.484,-1.406 -1.244,-1.854 0.562,-1.046 1.301,-1.641 2.26,-2.125 1.077998,-0.541 4.160998,-1.765 4.744998,-1.938 1.468,-0.422 1.895,-1.026 2.271,-1.171 0.708,-0.282 0.989,-0.084 1.27,0.338 0.531,0.792 -0.041,1.26 -0.041,1.26"
     id="path933" />
  <path
     style="fill:none;stroke:#231f20;stroke-width:0.565977;stroke-linecap:butt;stroke-linejoin:miter;stroke-miterlimit:4;stroke-dasharray:none;stroke-opacity:1"
     d="m 107.80843,52.245992 c -0.292,0.573 -2.084,1.323 -3.224,2.464 -0.767,0.771 -3.324,1.755 -4.032,2.578 -0.644998,0.755 -1.015998,1.042 -2.004998,0.448 -0.583,-0.348 -1.484,-1.406 -1.244,-1.854 0.562,-1.046 1.301,-1.641 2.26,-2.125 1.077998,-0.541 4.160998,-1.765 4.744998,-1.938 1.468,-0.422 1.895,-1.026 2.271,-1.171 0.708,-0.282 0.989,-0.084 1.27,0.338 0.531,0.792 -0.041,1.26 -0.041,1.26 z"
     id="path934" />
  <path
     style="fill:#231f20;fill-opacity:1;fill-rule:nonzero;stroke:none"
     d="m 100.01643,56.876992 c 0.536,1.177 -1.436998,1.666 -1.936998,1.88 -0.506,0.208 -1.86,0.964 -2.839,1.693 -0.995,0.723 -2.532,1.214 -4.406,2.588 -0.984,0.729 -2.402,0.807 -3.391,-0.667 -0.979,-1.458 -0.531,-2.557 0.797,-3.254 1.323,-0.699 2.859,-0.792 4.244,-1.401 1.385,-0.61 2.735,-1.361 3.771,-1.995 1.182,-0.724 2.026,-0.652 2.417,-0.371 0.979,0.688 1.343998,1.527 1.343998,1.527"
     id="path935" />
  <path
     style="fill:none;stroke:#231f20;stroke-width:0.565977;stroke-linecap:butt;stroke-linejoin:miter;stroke-miterlimit:4;stroke-dasharray:none;stroke-opacity:1"
     d="m 100.01643,56.876992 c 0.536,1.177 -1.436998,1.666 -1.936998,1.88 -0.506,0.208 -1.86,0.964 -2.839,1.693 -0.995,0.723 -2.532,1.214 -4.406,2.588 -0.984,0.729 -2.402,0.807 -3.391,-0.667 -0.979,-1.458 -0.531,-2.557 0.797,-3.254 1.323,-0.699 2.859,-0.792 4.244,-1.401 1.385,-0.61 2.735,-1.361 3.771,-1.995 1.182,-0.724 2.026,-0.652 2.417,-0.371 0.979,0.688 1.343998,1.527 1.343998,1.527 z"
     id="path936" />
  <path
     style="fill:#231f20;fill-opacity:1;fill-rule:nonzero;stroke:none"
     d="m 113.82843,48.772992 c -0.464,0.557 -3.271,2.203 -3.927,2.546 -0.584,0.318 -1.385,1.151 -2.313,0.464 -0.375,-0.281 -0.728,-0.947 -0.801,-1.261 -0.052,-0.249 0.172,-0.489 0.541,-0.645 0.615,-0.256 0.885,-0.089 2.093,-0.511 0,0 0.298,-0.057 0.844,-0.125 1.62,-0.213 0.928,0.032 3.204,-0.796 0.162,-0.063 0.339,0.057 0.364,0.172 0.047,0.171 -0.005,0.156 -0.005,0.156"
     id="path937" />
  <path
     style="fill:none;stroke:#231f20;stroke-width:0.565977;stroke-linecap:round;stroke-linejoin:round;stroke-miterlimit:4;stroke-dasharray:none;stroke-opacity:1"
     d="m 113.82843,48.772992 c -0.464,0.557 -3.271,2.203 -3.927,2.546 -0.584,0.318 -1.385,1.151 -2.313,0.464 -0.375,-0.281 -0.728,-0.947 -0.801,-1.261 -0.052,-0.249 0.172,-0.489 0.541,-0.645 0.615,-0.256 0.885,-0.089 2.093,-0.511 0,0 0.298,-0.057 0.844,-0.125 1.62,-0.213 0.928,0.032 3.204,-0.796 0.162,-0.063 0.339,0.057 0.364,0.172 0.047,0.171 -0.005,0.156 -0.005,0.156 z"
     id="path938" />
  <path
     style="fill:#231f20;fill-opacity:1;fill-rule:nonzero;stroke:none"
     d="m 85.364432,83.824992 c -1.165,-1.932 -1.656,-2.156 -2.509,-1.719 -0.568,0.291 -1.193,0.37 -1.547,0.525 -1.182,0.542 -2.944,1.933 -6.912003,7.183 -0.906,1.193 -2.177,2.86 -2.75,3.495 -0.911,1.01 1.376,1.833 1.74,1.443 1.161,-1.26 2.062003,-2.036 2.541003,-2.433 0.328,-0.27 0.849,-0.827 2.256,-1.718 2.14,-1.344 3.62,-1.834 5.271,-3.156 0.765,-0.62 1.729,-0.595 2.177,-1.584 0.443,-0.984 -0.267,-2.036 -0.267,-2.036"
     id="path939" />
  <path
     style="fill:none;stroke:#231f20;stroke-width:0.565977;stroke-linecap:butt;stroke-linejoin:miter;stroke-miterlimit:4;stroke-dasharray:none;stroke-opacity:1"
     d="m 85.364432,83.824992 c -1.165,-1.932 -1.656,-2.156 -2.509,-1.719 -0.568,0.291 -1.193,0.37 -1.547,0.525 -1.182,0.542 -2.944,1.933 -6.912003,7.183 -0.906,1.193 -2.177,2.86 -2.75,3.495 -0.911,1.01 1.376,1.833 1.74,1.443 1.161,-1.26 2.062003,-2.036 2.541003,-2.433 0.328,-0.27 0.849,-0.827 2.256,-1.718 2.14,-1.344 3.62,-1.834 5.271,-3.156 0.765,-0.62 1.729,-0.595 2.177,-1.584 0.443,-0.984 -0.267,-2.036 -0.267,-2.036 z"
     id="path940" />
  <path
     style="fill:#231f20;fill-opacity:1;fill-rule:nonzero;stroke:#231f20;stroke-width:0.565977;stroke-linecap:round;stroke-linejoin:miter;stroke-miterlimit:4;stroke-dasharray:none;stroke-opacity:1"
     d="m 85.511432,85.256992 c 0.312,-1.312 -1.151,-2.703 -1.271,-3.005 -1.786,-4.683 -2.037,-4.974 -3.646,-8.443 -2.328,-5.016 -4.687,-8.088 -8.000003,-7.588 -2.25,0.343 -3.395,1.515 -3.692,2.796 -0.328,1.423 0.468,4.5 3.218,5.385 l 1.11,1.303 c 0.63,0.973 0.953,1.453 1.224,1.964 0.484,0.88 1.052003,1.791 2.078003,3.457 1.823,2.948 4.723,5.475 4.723,5.475 0.172,0.26 0.407,0.411 0.667,0.484"
     id="path941" />
  <path
     style="fill:#fab41d;fill-opacity:1;fill-rule:nonzero;stroke:none"
     d="m 72.594429,66.220992 c -2.25,0.343 -3.395,1.515 -3.692,2.796 -0.328,1.423 0.468,4.5 3.218,5.385 l 6.990003,-3.484 c -1.88,-3.26 -3.902003,-5.093 -6.516003,-4.697"
     id="path942" />
  <path
     style="fill:none;stroke:#231f20;stroke-width:0.565977;stroke-linecap:round;stroke-linejoin:round;stroke-miterlimit:4;stroke-dasharray:none;stroke-opacity:1"
     d="m 72.594429,66.220992 c -2.25,0.343 -3.395,1.515 -3.692,2.796 -0.328,1.423 0.468,4.5 3.218,5.385 l 6.990003,-3.484 c -1.88,-3.26 -3.902003,-5.093 -6.516003,-4.697 z"
     id="path943" />
  <path
     style="fill:#231f20;fill-opacity:1;fill-rule:nonzero;stroke:none"
     d="m 71.828429,97.042992 c -1.088,-0.021 -0.864,-1.256 -0.666,-2.469 0.046,-0.307 0.068,-0.593 0.141,-0.891 0.296,-1.186 1.093,-1.869 3.119,0.334 0.078,0.084 1.953003,1.204 2.537003,1.428 2.781,1.077 2.979,0.26 2.781,1.077 -0.13,0.542 -0.641,0.573 -1.27,0.589 -0.844,0.026 -3.871003,-0.146 -4.334003,-0.141 -0.448,0.006 -2.308,0.073 -2.308,0.073"
     id="path944" />
  <path
     style="fill:none;stroke:#231f20;stroke-width:0.565977;stroke-linecap:butt;stroke-linejoin:miter;stroke-miterlimit:4;stroke-dasharray:none;stroke-opacity:1"
     d="m 71.828429,97.042992 c -1.088,-0.021 -0.864,-1.256 -0.666,-2.469 0.046,-0.307 0.068,-0.593 0.141,-0.891 0.296,-1.186 1.093,-1.869 3.119,0.334 0.078,0.084 1.953003,1.204 2.537003,1.428 2.781,1.077 2.979,0.26 2.781,1.077 -0.13,0.542 -0.641,0.573 -1.27,0.589 -0.844,0.026 -3.871003,-0.146 -4.334003,-0.141 -0.448,0.006 -2.308,0.073 -2.308,0.073 z"
     id="path946" />
  <path
     style="fill:none;stroke:#231f20;stroke-width:0.49806;stroke-linecap:butt;stroke-linejoin:miter;stroke-miterlimit:4;stroke-dasharray:none;stroke-opacity:1"
     d="m 130.83943,53.699992 c 10.161,-15.151 28.286,-19.912001 28.286,-19.912001"
     id="path948" />
  <path
     style="fill:#231f20;fill-opacity:1;fill-rule:nonzero;stroke:none"
     d="m 160.57943,33.407991 c -0.615,0.432 -1.35,1.089 -1.756,1.687 l 0.109,-1.255 -0.713,-1.036 c 0.646,0.317 1.609,0.532 2.36,0.604"
     id="path949" />
  <path
     style="fill:none;stroke:#231f20;stroke-width:0.49806;stroke-linecap:butt;stroke-linejoin:miter;stroke-miterlimit:4;stroke-dasharray:none;stroke-opacity:1"
     d="m 54.375429,29.100991 c 18.027,2.844 29.969003,17.281001 29.969003,17.281001"
     id="path950" />
  <path
     style="fill:#231f20;fill-opacity:1;fill-rule:nonzero;stroke:none"
     d="m 85.303432,47.542992 c -0.652,-0.379 -1.557,-0.765 -2.272,-0.884 l 1.188,-0.429 0.641,-1.082 c -0.016,0.718 0.198,1.682 0.443,2.395"
     id="path951" />
  <path
     style="fill:#ffffff;fill-opacity:1;fill-rule:nonzero;stroke:none"
     d="m 243.35743,13.277991 c 1.01,2.026 1.48,2.291 2.36,1.916 0.59,-0.244 1.22,-0.265 1.59,-0.396 1.21,-0.432 3.09,-1.681 7.48,-6.5879998 0.99,-1.104 2.41,-2.656 3.04,-3.245 0.98,-0.932 -1.23,-1.948 -1.63,-1.577 -1.27,1.161 -2.22,1.848 -2.73,2.202 -0.35,0.246 -0.91,0.76 -2.39,1.531 -2.25,1.163 -3.76,1.527 -5.51,2.715 -0.82,0.5459998 -1.78,0.4419998 -2.3,1.3939998 -0.53,0.943 0.09,2.048 0.09,2.048"
     id="path952" />
  <path
     style="fill:none;stroke:#231f20;stroke-width:0.565977;stroke-linecap:butt;stroke-linejoin:miter;stroke-miterlimit:4;stroke-dasharray:none;stroke-opacity:1"
     d="m 243.35743,13.277991 c 1.01,2.026 1.48,2.291 2.36,1.916 0.59,-0.244 1.22,-0.265 1.59,-0.396 1.21,-0.432 3.09,-1.681 7.48,-6.5879998 0.99,-1.104 2.41,-2.656 3.04,-3.245 0.98,-0.932 -1.23,-1.948 -1.63,-1.577 -1.27,1.161 -2.22,1.848 -2.73,2.202 -0.35,0.246 -0.91,0.76 -2.39,1.531 -2.25,1.163 -3.76,1.527 -5.51,2.715 -0.82,0.5459998 -1.78,0.4419998 -2.3,1.3939998 -0.53,0.943 0.09,2.048 0.09,2.048 z"
     id="path953" />
  <path
     style="fill:#ffffff;fill-opacity:1;fill-rule:nonzero;stroke:#231f20;stroke-width:0.565977;stroke-linecap:round;stroke-linejoin:round;stroke-miterlimit:4;stroke-dasharray:none;stroke-opacity:1"
     d="m 244.26743,10.933991 c -1.35,-0.442 -2.82,1.135 -3.14,1.255 -4.67,1.803 -4.96,2.057 -8.42,3.677 -5.01,2.344 -8.076,4.73 -7.562,8.042 0.355,2.24 1.522,3.385 2.812,3.671 1.42,0.323 4.5,-0.483 5.37,-3.234 l 1.31,-1.115 c 0.97,-0.64 1.44,-0.957 1.94,-1.239 0.88,-0.479 1.8,-1.051 3.46,-2.089 2.94,-1.842 5.46,-4.744 5.46,-4.744 0.26,-0.172 0.4,-0.406 0.48,-0.666"
     id="path954" />
  <path
     style="fill:#231f20;fill-opacity:1;fill-rule:nonzero;stroke:none"
     d="m 260.15743,3.9649912 c -0.09,1.349 -1.05,1.631 -2,1.213 -0.28,-0.129 -0.65,0.063 -0.93,-0.077 -0.61,-0.344 -1.04,-2.032 0.27,-2.751 0.09,-0.052 0.66,-0.645 1.15,-1.025 0.97,-0.72899996 3.25,-1.73999996 5.76,-0.73499996 1.18,0.46999996 0.68,1.08399996 0.14,1.04199996 -1.7,-0.151 -1.88,0.166 -2.34,0.302 -1.57,0.411 -2.05,2.031 -2.05,2.031"
     id="path955" />
  <path
     style="fill:none;stroke:#231f20;stroke-width:0.332927;stroke-linecap:butt;stroke-linejoin:miter;stroke-miterlimit:4;stroke-dasharray:none;stroke-opacity:1"
     d="m 260.15743,3.9649912 c -0.09,1.349 -1.05,1.631 -2,1.213 -0.28,-0.129 -0.65,0.063 -0.93,-0.077 -0.61,-0.344 -1.04,-2.032 0.27,-2.751 0.09,-0.052 0.66,-0.645 1.15,-1.025 0.97,-0.72899996 3.25,-1.73999996 5.76,-0.73499996 1.18,0.46999996 0.68,1.08399996 0.14,1.04199996 -1.7,-0.151 -1.88,0.166 -2.34,0.302 -1.57,0.411 -2.05,2.031 -2.05,2.031 z"
     id="path956" />
  <path
     style="fill:#fab41d;fill-opacity:1;fill-rule:nonzero;stroke:none"
     d="m 222.18343,31.131991 c 2.546,-1.818 3.296,-1.938 4.194,-2.135 5.64,-1.256 4.92,-4 2.85,-6 -2.44,-2.355 -3.27,-3.251 -8.014,0.885 -1.317,1.151 -6.962,4.902 -6.962,4.902 -2.199,1.077 -3.772,3.29 -3.735,4.744 0.041,1.536 0.135,0.932 0.432,2.333 0.281,1.355001 1.755,2.969001 2.989,2.927001 1.188,-0.036 1.99,-1.495 3.423,-3.452001 1.129,-1.538 4.823,-4.204 4.823,-4.204"
     id="path957" />
  <path
     style="fill:none;stroke:#231f20;stroke-width:0.565977;stroke-linecap:butt;stroke-linejoin:miter;stroke-miterlimit:4;stroke-dasharray:none;stroke-opacity:1"
     d="m 222.18343,31.131991 c 2.546,-1.818 3.296,-1.938 4.194,-2.135 5.64,-1.256 4.92,-4 2.85,-6 -2.44,-2.355 -3.27,-3.251 -8.014,0.885 -1.317,1.151 -6.962,4.902 -6.962,4.902 -2.199,1.077 -3.772,3.29 -3.735,4.744 0.041,1.536 0.135,0.932 0.432,2.333 0.281,1.355001 1.755,2.969001 2.989,2.927001 1.188,-0.036 1.99,-1.495 3.423,-3.452001 1.129,-1.538 4.823,-4.204 4.823,-4.204 z"
     id="path958" />
  <path
     style="fill:#ffffff;fill-opacity:1;fill-rule:nonzero;stroke:none"
     d="m 205.37543,41.387992 c -0.104,0.218 -1.234,-0.006 -1.38,0.5 -0.14,0.509 0.552,0.9 0.88,2.858 l 0.005,0.027 c 0.204,1.437 0.959,2.609 2.136,3.041 1.953,0.708 4.317,-0.86 5.292,-3.511 0.973,-2.655 0.171,-5.374 -1.776,-6.098 -1.86,-0.683 -4.115,0.729 -5.157,3.183"
     id="path959" />
  <path
     style="fill:none;stroke:#231f20;stroke-width:0.565977;stroke-linecap:butt;stroke-linejoin:miter;stroke-miterlimit:4;stroke-dasharray:none;stroke-opacity:1"
     d="m 205.37543,41.387992 c -0.104,0.218 -1.234,-0.006 -1.38,0.5 -0.14,0.509 0.552,0.9 0.88,2.858 l 0.005,0.027 c 0.204,1.437 0.959,2.609 2.136,3.041 1.953,0.708 4.317,-0.86 5.292,-3.511 0.973,-2.655 0.171,-5.374 -1.776,-6.098 -1.86,-0.683 -4.115,0.729 -5.157,3.183 z"
     id="path960" />
  <path
     style="fill:#231f20;fill-opacity:1;fill-rule:nonzero;stroke:none"
     d="m 246.26743,21.266991 c -0.04,2.261 0.26,2.709 1.22,2.782 0.64,0.057 1.21,0.323 1.59,0.375 1.28,0.177 3.52,-0.074 9.67,-2.412 1.39,-0.531 3.36,-1.26 4.18,-1.495 1.31,-0.385 -0.19,-2.296 -0.71,-2.151 -1.65,0.454 -2.82,0.626 -3.44,0.708 -0.43,0.058 -1.16,0.262 -2.83,0.262 -2.53,0 -4.04,-0.371 -6.14,-0.12 -0.97,0.114 -1.78,-0.423 -2.68,0.186 -0.9,0.595 -0.86,1.865 -0.86,1.865"
     id="path961" />
  <path
     style="fill:none;stroke:#231f20;stroke-width:0.565977;stroke-linecap:butt;stroke-linejoin:miter;stroke-miterlimit:4;stroke-dasharray:none;stroke-opacity:1"
     d="m 246.26743,21.266991 c -0.04,2.261 0.26,2.709 1.22,2.782 0.64,0.057 1.21,0.323 1.59,0.375 1.28,0.177 3.52,-0.074 9.67,-2.412 1.39,-0.531 3.36,-1.26 4.18,-1.495 1.31,-0.385 -0.19,-2.296 -0.71,-2.151 -1.65,0.454 -2.82,0.626 -3.44,0.708 -0.43,0.058 -1.16,0.262 -2.83,0.262 -2.53,0 -4.04,-0.371 -6.14,-0.12 -0.97,0.114 -1.78,-0.423 -2.68,0.186 -0.9,0.595 -0.86,1.865 -0.86,1.865 z"
     id="path962" />
  <path
     style="fill:#231f20;fill-opacity:1;fill-rule:nonzero;stroke:#231f20;stroke-width:0.565977;stroke-linecap:round;stroke-linejoin:round;stroke-miterlimit:4;stroke-dasharray:none;stroke-opacity:1"
     d="m 248.14743,19.600991 c -0.99,-1.011 -3.02,-0.292 -3.36,-0.323 -4.98,-0.548 -5.36,-0.453 -9.17,-0.604 -5.53,-0.214 -9.35,0.495 -10.409,3.676 -0.713,2.152 -0.197,3.704 0.809,4.552 1.12,0.938 4.22,1.636 6.26,-0.405 l 1.67,-0.396 c 1.16,-0.12 1.72,-0.188 2.3,-0.208 1,-0.021 2.08,-0.109 4.03,-0.267 3.46,-0.285 7.03,-1.713 7.03,-1.713 0.31,-0.031 0.55,-0.172 0.73,-0.37"
     id="path963" />
  <path
     style="fill:#fab41d;fill-opacity:1;fill-rule:nonzero;stroke:none"
     d="m 224.88543,22.089991 c -0.724,2.151 -0.218,3.714 0.792,4.563 1.11,0.943 4.21,1.651 6.25,-0.386 l 0.12,-7.817 c -3.76,0.176 -6.32,1.135 -7.162,3.64"
     id="path964" />
  <path
     style="fill:none;stroke:#231f20;stroke-width:0.565977;stroke-linecap:butt;stroke-linejoin:miter;stroke-miterlimit:4;stroke-dasharray:none;stroke-opacity:1"
     d="m 224.88543,22.089991 c -0.724,2.151 -0.218,3.714 0.792,4.563 1.11,0.943 4.21,1.651 6.25,-0.386 l 0.12,-7.817 c -3.76,0.176 -6.32,1.135 -7.162,3.64 z"
     id="path965" />
  <path
     style="fill:#231f20;fill-opacity:1;fill-rule:nonzero;stroke:none"
     d="m 265.46743,20.699991 c -0.71,1.15 -1.69,0.964 -2.33,0.161 -0.19,-0.244 -0.62,-0.244 -0.79,-0.5 -0.39,-0.583 -0.01,-2.281 1.5,-2.323 0.1,0 0.88,-0.265 1.49,-0.374 1.19,-0.21 3.69,-0.058 5.45,1.984 0.84,0.958 0.11,1.276 -0.35,0.994 -1.44,-0.916 -1.74,-0.713 -2.22,-0.812 -1.58,-0.354 -2.75,0.87 -2.75,0.87"
     id="path966" />
  <path
     style="fill:none;stroke:#231f20;stroke-width:0.332927;stroke-linecap:butt;stroke-linejoin:miter;stroke-miterlimit:4;stroke-dasharray:none;stroke-opacity:1"
     d="m 265.46743,20.699991 c -0.71,1.15 -1.69,0.964 -2.33,0.161 -0.19,-0.244 -0.62,-0.244 -0.79,-0.5 -0.39,-0.583 -0.01,-2.281 1.5,-2.323 0.1,0 0.88,-0.265 1.49,-0.374 1.19,-0.21 3.69,-0.058 5.45,1.984 0.84,0.958 0.11,1.276 -0.35,0.994 -1.44,-0.916 -1.74,-0.713 -2.22,-0.812 -1.58,-0.354 -2.75,0.87 -2.75,0.87 z"
     id="path967" />
  <path
     style="fill:#231f20;fill-opacity:1;fill-rule:nonzero;stroke:none"
     d="m 196.65143,48.953992 c 0.146,-0.629 1.704,-1.79 2.526,-3.176 0.558,-0.933 2.802,-2.511 3.287,-3.48 0.443,-0.891 0.729,-1.26 1.839,-0.921 0.65,0.192 1.781,1 1.656,1.489 -0.292,1.156 -0.866,1.912 -1.678,2.615 -0.912,0.786 -3.604,2.724 -4.13,3.031 -1.318,0.771 -1.583,1.458 -1.916,1.693 -0.62,0.443 -0.938,0.317 -1.314,-0.016 -0.713,-0.646 -0.27,-1.235 -0.27,-1.235"
     id="path968" />
  <path
     style="fill:none;stroke:#231f20;stroke-width:0.565977;stroke-linecap:butt;stroke-linejoin:miter;stroke-miterlimit:4;stroke-dasharray:none;stroke-opacity:1"
     d="m 196.65143,48.953992 c 0.146,-0.629 1.704,-1.79 2.526,-3.176 0.558,-0.933 2.802,-2.511 3.287,-3.48 0.443,-0.891 0.729,-1.26 1.839,-0.921 0.65,0.192 1.781,1 1.656,1.489 -0.292,1.156 -0.866,1.912 -1.678,2.615 -0.912,0.786 -3.604,2.724 -4.13,3.031 -1.318,0.771 -1.583,1.458 -1.916,1.693 -0.62,0.443 -0.938,0.317 -1.314,-0.016 -0.713,-0.646 -0.27,-1.235 -0.27,-1.235 z"
     id="path969" />
  <path
     style="fill:#231f20;fill-opacity:1;fill-rule:nonzero;stroke:none"
     d="m 203.08443,42.563992 c -0.808,-1.01 0.989,-1.969 1.421,-2.297 0.438,-0.317 1.568,-1.385 2.344,-2.327 0.787,-0.949 2.156,-1.792001 3.646,-3.585001 0.776,-0.947 2.136,-1.364 3.453,-0.177 1.303,1.172 1.131,2.350001 0.016,3.350001 -1.115,0.994 -2.584,1.463 -3.776,2.39 -1.199,0.927 -2.328,1.984 -3.172,2.855 -0.969,0.989 -1.813,1.12 -2.256,0.948 -1.119,-0.433 -1.676,-1.157 -1.676,-1.157"
     id="path970" />
  <path
     style="fill:none;stroke:#231f20;stroke-width:0.565977;stroke-linecap:butt;stroke-linejoin:miter;stroke-miterlimit:4;stroke-dasharray:none;stroke-opacity:1"
     d="m 203.08443,42.563992 c -0.808,-1.01 0.989,-1.969 1.421,-2.297 0.438,-0.317 1.568,-1.385 2.344,-2.327 0.787,-0.949 2.156,-1.792001 3.646,-3.585001 0.776,-0.947 2.136,-1.364 3.453,-0.177 1.303,1.172 1.131,2.350001 0.016,3.350001 -1.115,0.994 -2.584,1.463 -3.776,2.39 -1.199,0.927 -2.328,1.984 -3.172,2.855 -0.969,0.989 -1.813,1.12 -2.256,0.948 -1.119,-0.433 -1.676,-1.157 -1.676,-1.157 z"
     id="path971" />
  <path
     style="fill:#231f20;fill-opacity:1;fill-rule:nonzero;stroke:none"
     d="m 191.66143,53.787992 c 0.314,-0.657 2.636,-2.933 3.188,-3.433 0.49,-0.448 1.063,-1.448 2.13,-1.005 0.433,0.178 0.938,0.745 1.084,1.027 0.114,0.229 -0.047,0.516 -0.366,0.754 -0.536,0.397 -0.842,0.303 -1.905,1.006 0,0 -0.276,0.13 -0.792,0.328 -1.521,0.599 -0.907,0.194 -2.912,1.552 -0.14,0.095 -0.343,0.021 -0.4,-0.083 -0.084,-0.151 -0.027,-0.146 -0.027,-0.146"
     id="path972" />
  <path
     style="fill:none;stroke:#231f20;stroke-width:0.565977;stroke-linecap:round;stroke-linejoin:round;stroke-miterlimit:4;stroke-dasharray:none;stroke-opacity:1"
     d="m 191.66143,53.787992 c 0.314,-0.657 2.636,-2.933 3.188,-3.433 0.49,-0.448 1.063,-1.448 2.13,-1.005 0.433,0.178 0.938,0.745 1.084,1.027 0.114,0.229 -0.047,0.516 -0.366,0.754 -0.536,0.397 -0.842,0.303 -1.905,1.006 0,0 -0.276,0.13 -0.792,0.328 -1.521,0.599 -0.907,0.194 -2.912,1.552 -0.14,0.095 -0.343,0.021 -0.4,-0.083 -0.084,-0.151 -0.027,-0.146 -0.027,-0.146 z"
     id="path973" />
</svg>
