<?xml version="1.0" encoding="UTF-8" standalone="no"?>
<!-- Created with Inkscape (http://www.inkscape.org/) -->

<svg
   version="1.1"
   id="svg1"
   width="336.3616"
   height="99.84964"
   viewBox="0 0 336.36159 99.84964"
   sodipodi:docname="cell.svg"
   xmlns:inkscape="http://www.inkscape.org/namespaces/inkscape"
   xmlns:sodipodi="http://sodipodi.sourceforge.net/DTD/sodipodi-0.dtd"
   xmlns="http://www.w3.org/2000/svg"
   xmlns:svg="http://www.w3.org/2000/svg">
  <sodipodi:namedview
     id="namedview1"
     pagecolor="#ffffff"
     bordercolor="#000000"
     borderopacity="0.25"
     inkscape:showpageshadow="2"
     inkscape:pageopacity="0.0"
     inkscape:pagecheckerboard="0"
     inkscape:deskcolor="#d1d1d1">
    <inkscape:page
       x="0"
       y="0"
       inkscape:label="1"
       id="page1"
       width="336.3616"
       height="99.84964"
       margin="0"
       bleed="0" />
  </sodipodi:namedview>
  <defs
     id="defs1" />
  <path
     style="fill:#fab41d;fill-opacity:1;fill-rule:nonzero;stroke:none"
     d="m 230.30723,55.614086 c -0.801,-3.025 -0.64,-3.771 -0.505,-4.683 0.833,-5.718 -1.995,-6.02 -4.599,-4.79 -3.068,1.442 -4.197,1.9 -2.021,7.801 0.609,1.647 2.105,8.251 2.105,8.251 0.224,2.437 1.733,4.702 3.109,5.181 1.448,0.51 0.916,0.204 2.334,0.428 1.364,0.218 3.4,-0.584 3.796,-1.751 0.39,-1.125 -0.692,-2.401 -2.011,-4.426 -1.036,-1.615 -2.208,-6.011 -2.208,-6.011"
     id="path3" />
  <path
     style="fill:none;stroke:#231f20;stroke-width:0.565977;stroke-linecap:butt;stroke-linejoin:miter;stroke-miterlimit:4;stroke-dasharray:none;stroke-opacity:1"
     d="m 230.30723,55.614086 c -0.801,-3.025 -0.64,-3.771 -0.505,-4.683 0.833,-5.718 -1.995,-6.02 -4.599,-4.79 -3.068,1.442 -4.197,1.9 -2.021,7.801 0.609,1.647 2.105,8.251 2.105,8.251 0.224,2.437 1.733,4.702 3.109,5.181 1.448,0.51 0.916,0.204 2.334,0.428 1.364,0.218 3.4,-0.584 3.796,-1.751 0.39,-1.125 -0.692,-2.401 -2.011,-4.426 -1.036,-1.615 -2.208,-6.011 -2.208,-6.011 z"
     id="path4" />
  <path
     style="fill:#ffffff;fill-opacity:1;fill-rule:nonzero;stroke:none"
     d="m 229.72423,74.192086 c 0.036,0.25 -1.032,0.687 -0.865,1.187 0.167,0.5 0.959,0.443 2.323,1.891 l 0.016,0.016 c 0.964,1.084 2.24,1.64 3.464,1.344 2.016,-0.495 3.109,-3.115 2.448,-5.855 -0.667,-2.755 -2.85,-4.573 -4.866,-4.088 -1.932,0.463 -3.02,2.896 -2.52,5.505"
     id="path5" />
  <path
     style="fill:none;stroke:#231f20;stroke-width:0.565977;stroke-linecap:butt;stroke-linejoin:miter;stroke-miterlimit:4;stroke-dasharray:none;stroke-opacity:1"
     d="m 229.72423,74.192086 c 0.036,0.25 -1.032,0.687 -0.865,1.187 0.167,0.5 0.959,0.443 2.323,1.891 l 0.016,0.016 c 0.964,1.084 2.24,1.64 3.464,1.344 2.016,-0.495 3.109,-3.115 2.448,-5.855 -0.667,-2.755 -2.85,-4.573 -4.866,-4.088 -1.932,0.463 -3.02,2.896 -2.52,5.505 z"
     id="path6" />
  <path
     style="fill:#231f20;fill-opacity:1;fill-rule:nonzero;stroke:none"
     d="m 219.20323,30.218086 c 2.213,-0.473 2.579,-0.864 2.432,-1.812 -0.093,-0.636 0.043,-1.251 0.005,-1.636 -0.125,-1.291 -0.88,-3.411 -4.557,-8.869 -0.833,-1.235 -1.995,-2.984 -2.411,-3.735 -0.661,-1.177 -2.188,0.713 -1.928,1.188 0.819,1.511 1.251,2.604 1.475,3.187 0.151,0.401 0.511,1.068 0.896,2.698 0.577,2.459 0.563,4.016 1.287,6.006 0.333,0.921 -0.006,1.828 0.79,2.562 0.787,0.75 2.011,0.411 2.011,0.411"
     id="path7" />
  <path
     style="fill:none;stroke:#231f20;stroke-width:0.565977;stroke-linecap:butt;stroke-linejoin:miter;stroke-miterlimit:4;stroke-dasharray:none;stroke-opacity:1"
     d="m 219.20323,30.218086 c 2.213,-0.473 2.579,-0.864 2.432,-1.812 -0.093,-0.636 0.043,-1.251 0.005,-1.636 -0.125,-1.291 -0.88,-3.411 -4.557,-8.869 -0.833,-1.235 -1.995,-2.984 -2.411,-3.735 -0.661,-1.177 -2.188,0.713 -1.928,1.188 0.819,1.511 1.251,2.604 1.475,3.187 0.151,0.401 0.511,1.068 0.896,2.698 0.577,2.459 0.563,4.016 1.287,6.006 0.333,0.921 -0.006,1.828 0.79,2.562 0.787,0.75 2.011,0.411 2.011,0.411 z"
     id="path8" />
  <path
     style="fill:#231f20;fill-opacity:1;fill-rule:nonzero;stroke:#231f20;stroke-width:0.565977;stroke-linecap:round;stroke-linejoin:round;stroke-miterlimit:4;stroke-dasharray:none;stroke-opacity:1"
     d="m 217.15623,28.775086 c -0.765,1.194 0.407,3.006 0.448,3.344 0.604,4.974 0.776,5.318 1.506,9.068 1.052,5.427 2.614,8.984 5.948,9.296 2.26,0.204 3.656,-0.656 4.254,-1.828 0.656,-1.301 0.62,-4.484 -1.833,-6 l -0.755,-1.541 c -0.385,-1.093 -0.578,-1.635 -0.729,-2.188 -0.251,-0.968 -0.584,-1.995 -1.183,-3.864 -1.068,-3.303 -3.265,-6.453 -3.265,-6.453 -0.104,-0.292 -0.297,-0.495 -0.532,-0.63"
     id="path9" />
  <path
     style="fill:#fab41d;fill-opacity:1;fill-rule:nonzero;stroke:none"
     d="m 227.33923,43.041086 -7.631,1.672 c 1.022,3.62 2.542,5.89 5.178,6.141 2.26,0.213 3.661,-0.636 4.254,-1.808 0.667,-1.301 0.651,-4.479 -1.801,-6.005"
     id="path10" />
  <path
     style="fill:none;stroke:#231f20;stroke-width:0.565977;stroke-linecap:butt;stroke-linejoin:miter;stroke-miterlimit:4;stroke-dasharray:none;stroke-opacity:1"
     d="m 227.33923,43.041086 -7.631,1.672 c 1.022,3.62 2.542,5.89 5.178,6.141 2.26,0.213 3.661,-0.636 4.254,-1.808 0.667,-1.301 0.651,-4.479 -1.801,-6.005 z"
     id="path11" />
  <path
     style="fill:#231f20;fill-opacity:1;fill-rule:nonzero;stroke:none"
     d="m 234.96323,84.816086 c -0.489,-0.416 -0.801,-2.337 -1.645,-3.708 -0.568,-0.926 -0.932,-3.645 -1.563,-4.525 -0.583,-0.808 -0.771,-1.229 0.027,-2.048 0.478,-0.489 1.713,-1.119 2.093,-0.78 0.891,0.796 1.297,1.645 1.541,2.687 0.276,1.188 0.746,4.464 0.776,5.073 0.074,1.521 0.558,2.077 0.615,2.479 0.109,0.756 -0.156,0.98 -0.625,1.156 -0.906,0.338 -1.219,-0.334 -1.219,-0.334"
     id="path12" />
  <path
     style="fill:none;stroke:#231f20;stroke-width:0.565977;stroke-linecap:butt;stroke-linejoin:miter;stroke-miterlimit:4;stroke-dasharray:none;stroke-opacity:1"
     d="m 234.96323,84.816086 c -0.489,-0.416 -0.801,-2.337 -1.645,-3.708 -0.568,-0.926 -0.932,-3.645 -1.563,-4.525 -0.583,-0.808 -0.771,-1.229 0.027,-2.048 0.478,-0.489 1.713,-1.119 2.093,-0.78 0.891,0.796 1.297,1.645 1.541,2.687 0.276,1.188 0.746,4.464 0.776,5.073 0.074,1.521 0.558,2.077 0.615,2.479 0.109,0.756 -0.156,0.98 -0.625,1.156 -0.906,0.338 -1.219,-0.334 -1.219,-0.334 z"
     id="path13" />
  <path
     style="fill:#231f20;fill-opacity:1;fill-rule:nonzero;stroke:none"
     d="m 232.27623,76.160086 c -1.27,0.251 -1.292,-1.786 -1.376,-2.317 -0.082,-0.541 -0.498,-2.041 -0.978,-3.167 -0.479,-1.13 -0.594,-2.74 -1.495,-4.885 -0.473,-1.125 -0.224,-2.521 1.443,-3.141 1.645,-0.609 2.609,0.084 2.978,1.537 0.366,1.448 0.106,2.968 0.371,4.459 0.265,1.484 0.677,2.978 1.057,4.129 0.438,1.313 0.167,2.12 -0.198,2.432 -0.9,0.792 -1.802,0.953 -1.802,0.953"
     id="path14" />
  <path
     style="fill:none;stroke:#231f20;stroke-width:0.565977;stroke-linecap:butt;stroke-linejoin:miter;stroke-miterlimit:4;stroke-dasharray:none;stroke-opacity:1"
     d="m 232.27623,76.160086 c -1.27,0.251 -1.292,-1.786 -1.376,-2.317 -0.082,-0.541 -0.498,-2.041 -0.978,-3.167 -0.479,-1.13 -0.594,-2.74 -1.495,-4.885 -0.473,-1.125 -0.224,-2.521 1.443,-3.141 1.645,-0.609 2.609,0.084 2.978,1.537 0.366,1.448 0.106,2.968 0.371,4.459 0.265,1.484 0.677,2.978 1.057,4.129 0.438,1.313 0.167,2.12 -0.198,2.432 -0.9,0.792 -1.802,0.953 -1.802,0.953 z"
     id="path15" />
  <path
     style="fill:#231f20;fill-opacity:1;fill-rule:nonzero;stroke:none"
     d="m 238.92223,90.291086 c -0.656,-0.339 -2.844,-2.74 -3.318,-3.317 -0.426,-0.506 -1.412,-1.12 -0.917,-2.167 0.177,-0.423 0.767,-0.907 1.052,-1.043 0.24,-0.109 0.516,0.074 0.735,0.396 0.385,0.543 0.281,0.86 0.948,1.943 0,0 0.12,0.287 0.286,0.803 0.547,1.536 0.162,0.91 1.448,2.968 0.088,0.141 0.011,0.338 -0.084,0.39 -0.166,0.084 -0.15,0.027 -0.15,0.027"
     id="path16" />
  <path
     style="fill:none;stroke:#231f20;stroke-width:0.565977;stroke-linecap:round;stroke-linejoin:round;stroke-miterlimit:4;stroke-dasharray:none;stroke-opacity:1"
     d="m 238.92223,90.291086 c -0.656,-0.339 -2.844,-2.74 -3.318,-3.317 -0.426,-0.506 -1.412,-1.12 -0.917,-2.167 0.177,-0.423 0.767,-0.907 1.052,-1.043 0.24,-0.109 0.516,0.074 0.735,0.396 0.385,0.543 0.281,0.86 0.948,1.943 0,0 0.12,0.287 0.286,0.803 0.547,1.536 0.162,0.91 1.448,2.968 0.088,0.141 0.011,0.338 -0.084,0.39 -0.166,0.084 -0.15,0.027 -0.15,0.027 z"
     id="path17" />
  <path
     style="fill:#231f20;fill-opacity:1;fill-rule:nonzero;stroke:none"
     d="m 214.27123,11.655086 c 1.287,0.428 1.328,1.423 0.687,2.235 -0.187,0.245 -0.094,0.656 -0.302,0.885 -0.478,0.511 -2.218,0.522 -2.598,-0.932 -0.032,-0.098 -0.464,-0.797 -0.714,-1.364 -0.469,-1.114 -0.89,-3.5783999 0.692,-5.7609999 0.746,-1.036 1.219,-0.396 1.047,0.1146 -0.563,1.6094 -0.296,1.86 -0.281,2.3494 0.016,1.6199999 1.469,2.4729999 1.469,2.4729999"
     id="path18" />
  <path
     style="fill:none;stroke:#231f20;stroke-width:0.332927;stroke-linecap:butt;stroke-linejoin:miter;stroke-miterlimit:4;stroke-dasharray:none;stroke-opacity:1"
     d="m 214.27123,11.655086 c 1.287,0.428 1.328,1.423 0.687,2.235 -0.187,0.245 -0.094,0.656 -0.302,0.885 -0.478,0.511 -2.218,0.522 -2.598,-0.932 -0.032,-0.098 -0.464,-0.797 -0.714,-1.364 -0.469,-1.114 -0.89,-3.5783999 0.692,-5.7609999 0.746,-1.036 1.219,-0.396 1.047,0.1146 -0.563,1.6094 -0.296,1.86 -0.281,2.3494 0.016,1.6199999 1.469,2.4729999 1.469,2.4729999 z"
     id="path19" />
  <path
     style="fill:#fab41d;fill-opacity:1;fill-rule:nonzero;stroke:none"
     d="m 97.245234,17.635086 c -2.484,1.911 -3.23,2.052 -4.115,2.287 -5.593,1.452 -4.776,4.171 -2.629,6.093 2.52,2.266 3.38,3.135 7.973,-1.172 1.276,-1.193 6.780996,-5.145 6.780996,-5.145 2.156,-1.157 3.656,-3.428 3.563,-4.876 -0.093,-1.536 -0.172,-0.927 -0.516,-2.323 -0.328,-1.338 -1.859,-2.9009999 -3.093,-2.8116999 -1.183,0.0773 -1.938,1.5676999 -3.292,3.5716999 -1.078,1.579 -4.671996,4.376 -4.671996,4.376"
     id="path20" />
  <path
     style="fill:none;stroke:#231f20;stroke-width:0.565977;stroke-linecap:butt;stroke-linejoin:miter;stroke-miterlimit:4;stroke-dasharray:none;stroke-opacity:1"
     d="m 97.245234,17.635086 c -2.484,1.911 -3.23,2.052 -4.115,2.287 -5.593,1.452 -4.776,4.171 -2.629,6.093 2.52,2.266 3.38,3.135 7.973,-1.172 1.276,-1.193 6.780996,-5.145 6.780996,-5.145 2.156,-1.157 3.656,-3.428 3.563,-4.876 -0.093,-1.536 -0.172,-0.927 -0.516,-2.323 -0.328,-1.338 -1.859,-2.9009999 -3.093,-2.8116999 -1.183,0.0773 -1.938,1.5676999 -3.292,3.5716999 -1.078,1.579 -4.671996,4.376 -4.671996,4.376 z"
     id="path21" />
  <path
     style="fill:#ffffff;fill-opacity:1;fill-rule:nonzero;stroke:none"
     d="m 113.67323,6.7860861 c 0.093,-0.2294 1.238,-0.0414 1.358,-0.552 0.126,-0.5107 -0.582,-0.88 -0.984,-2.828 l -0.005,-0.0267 c -0.251,-1.4266 -1.041,-2.57199995 -2.24,-2.95729995 -1.973,-0.6467 -4.281,1.01469995 -5.156,3.69199995 -0.88,2.6933 0.016,5.3853 1.989,6.0319999 1.886,0.619 4.09,-0.8759999 5.038,-3.3599999"
     id="path22" />
  <path
     style="fill:none;stroke:#231f20;stroke-width:0.565977;stroke-linecap:butt;stroke-linejoin:miter;stroke-miterlimit:4;stroke-dasharray:none;stroke-opacity:1"
     d="m 113.67323,6.7860861 c 0.093,-0.2294 1.238,-0.0414 1.358,-0.552 0.126,-0.5107 -0.582,-0.88 -0.984,-2.828 l -0.005,-0.0267 c -0.251,-1.4266 -1.041,-2.57199995 -2.24,-2.95729995 -1.973,-0.6467 -4.281,1.01469995 -5.156,3.69199995 -0.88,2.6933 0.016,5.3853 1.989,6.0319999 1.886,0.619 4.09,-0.8759999 5.038,-3.3599999 z"
     id="path23" />
  <path
     style="fill:#231f20;fill-opacity:1;fill-rule:nonzero;stroke:none"
     d="m 74.615234,32.322086 c -0.552,-2.192 -0.953,-2.547 -1.895,-2.369 -0.631,0.109 -1.251,0 -1.637,0.052 -1.281,0.161 -3.3794,0.984 -8.7128,4.844 -1.2026,0.874 -2.912,2.093 -3.6505,2.536 -1.1563,0.704 0.7916,2.161 1.2547,1.885 1.4797,-0.864 2.5573,-1.339 3.1358,-1.577 0.3959,-0.162 1.0464,-0.547 2.6667,-0.986 2.4371,-0.661 3.9941,-0.697 5.9581,-1.484 0.911,-0.364 1.828,-0.057 2.536,-0.88 0.719,-0.808 0.344,-2.021 0.344,-2.021"
     id="path24" />
  <path
     style="fill:none;stroke:#231f20;stroke-width:0.565977;stroke-linecap:butt;stroke-linejoin:miter;stroke-miterlimit:4;stroke-dasharray:none;stroke-opacity:1"
     d="m 74.615234,32.322086 c -0.552,-2.192 -0.953,-2.547 -1.895,-2.369 -0.631,0.109 -1.251,0 -1.637,0.052 -1.281,0.161 -3.3794,0.984 -8.7128,4.844 -1.2026,0.874 -2.912,2.093 -3.6505,2.536 -1.1563,0.704 0.7916,2.161 1.2547,1.885 1.4797,-0.864 2.5573,-1.339 3.1358,-1.577 0.3959,-0.162 1.0464,-0.547 2.6667,-0.986 2.4371,-0.661 3.9941,-0.697 5.9581,-1.484 0.911,-0.364 1.828,-0.057 2.536,-0.88 0.719,-0.808 0.344,-2.021 0.344,-2.021 z"
     id="path25" />
  <path
     style="fill:#231f20;fill-opacity:1;fill-rule:nonzero;stroke:#231f20;stroke-width:0.565977;stroke-linecap:round;stroke-linejoin:round;stroke-miterlimit:4;stroke-dasharray:none;stroke-opacity:1"
     d="m 73.234234,34.417086 c 1.224,0.724 2.996,-0.506 3.329,-0.558 4.952,-0.77 5.291,-0.958 9.015,-1.808 5.391,-1.234 8.891,-2.905 9.095,-6.254 0.124,-2.266 -0.776,-3.631 -1.97,-4.194 -1.322,-0.609 -4.499,-0.473 -5.937,2.032 l -1.51,0.812 c -1.083,0.418 -1.615,0.631 -2.167,0.798 -0.959,0.281 -1.974,0.65 -3.818,1.306 -3.27,1.178 -6.344,3.486 -6.344,3.486 -0.286,0.109 -0.483,0.312 -0.614,0.546"
     id="path26" />
  <path
     style="fill:#fab41d;fill-opacity:1;fill-rule:nonzero;stroke:none"
     d="m 93.099234,21.759086 c -1.322,-0.618 -4.5,-0.494 -5.937,2.006 l 1.921,7.573 c 3.579,-1.145 5.803,-2.74 5.964,-5.38 0.14,-2.265 -0.756,-3.641 -1.948,-4.199"
     id="path27" />
  <path
     style="fill:none;stroke:#231f20;stroke-width:0.565977;stroke-linecap:butt;stroke-linejoin:miter;stroke-miterlimit:4;stroke-dasharray:none;stroke-opacity:1"
     d="m 93.099234,21.759086 c -1.322,-0.618 -4.5,-0.494 -5.937,2.006 l 1.921,7.573 c 3.579,-1.145 5.803,-2.74 5.964,-5.38 0.14,-2.265 -0.756,-3.641 -1.948,-4.199 z"
     id="path28" />
  <path
     style="fill:#231f20;fill-opacity:1;fill-rule:nonzero;stroke:none"
     d="m 124.51123,10.280686 c -0.281,0.5844 -2.062,1.3654 -3.177,2.5264 -0.756,0.782 -3.292,1.812 -3.985,2.646 -0.64,0.765 -0.995,1.057 -1.995,0.484 -0.593,-0.339 -1.515,-1.375 -1.281,-1.828 0.548,-1.058 1.266,-1.667 2.214,-2.167 1.083,-0.563 4.135,-1.8387 4.719,-2.0253999 1.452,-0.448 1.869,-1.0573 2.244,-1.2186 0.704,-0.2867 0.989,-0.0894 1.276,0.3173 0.557,0.792 -0.015,1.2652999 -0.015,1.2652999"
     id="path29" />
  <path
     style="fill:none;stroke:#231f20;stroke-width:0.565977;stroke-linecap:butt;stroke-linejoin:miter;stroke-miterlimit:4;stroke-dasharray:none;stroke-opacity:1"
     d="m 124.51123,10.280686 c -0.281,0.5844 -2.062,1.3654 -3.177,2.5264 -0.756,0.782 -3.292,1.812 -3.985,2.646 -0.64,0.765 -0.995,1.057 -1.995,0.484 -0.593,-0.339 -1.515,-1.375 -1.281,-1.828 0.548,-1.058 1.266,-1.667 2.214,-2.167 1.083,-0.563 4.135,-1.8387 4.719,-2.0253999 1.452,-0.448 1.869,-1.0573 2.244,-1.2186 0.704,-0.2867 0.989,-0.0894 1.276,0.3173 0.557,0.792 -0.015,1.2652999 -0.015,1.2652999 z"
     id="path30" />
  <path
     style="fill:#231f20;fill-opacity:1;fill-rule:nonzero;stroke:none"
     d="m 116.82923,15.187086 c -0.12,1.292 -2.079,0.739 -2.615,0.672 -0.541,-0.073 -2.099,-0.089 -3.308,0.058 -1.224,0.14 -2.801,-0.204 -5.115,0.066 -1.213,0.142 -2.484,-0.494 -2.609,-2.265 -0.124,-1.749 0.808,-2.484 2.308,-2.432 1.489,0.052 2.88,0.735 4.38,0.896 1.505,0.156 3.047,0.183 4.265,0.135 1.38,-0.047 2.084,0.438 2.276,0.876 0.511,1.082 0.418,1.994 0.418,1.994"
     id="path31" />
  <path
     style="fill:none;stroke:#231f20;stroke-width:0.565977;stroke-linecap:butt;stroke-linejoin:miter;stroke-miterlimit:4;stroke-dasharray:none;stroke-opacity:1"
     d="m 116.82923,15.187086 c -0.12,1.292 -2.079,0.739 -2.615,0.672 -0.541,-0.073 -2.099,-0.089 -3.308,0.058 -1.224,0.14 -2.801,-0.204 -5.115,0.066 -1.213,0.142 -2.484,-0.494 -2.609,-2.265 -0.124,-1.749 0.808,-2.484 2.308,-2.432 1.489,0.052 2.88,0.735 4.38,0.896 1.505,0.156 3.047,0.183 4.265,0.135 1.38,-0.047 2.084,0.438 2.276,0.876 0.511,1.082 0.418,1.994 0.418,1.994 z"
     id="path32" />
  <path
     style="fill:#231f20;fill-opacity:1;fill-rule:nonzero;stroke:none"
     d="m 130.23023,6.6500861 c -0.412,0.6093 -3.037,2.516 -3.667,2.9226 -0.552,0.364 -1.272,1.2763999 -2.256,0.6666999 -0.401,-0.224 -0.817,-0.8599999 -0.916,-1.1666999 -0.084,-0.2453 0.124,-0.5 0.474,-0.6826 0.584,-0.3227 0.88,-0.1827 2.036,-0.7187 0,0 0.297,-0.088 0.829,-0.1973 1.588,-0.3707 0.927,-0.0627 3.115,-1.104 0.15,-0.0733 0.337,0.0253 0.38,0.124 0.062,0.1773 0.005,0.156 0.005,0.156"
     id="path33" />
  <path
     style="fill:none;stroke:#231f20;stroke-width:0.565977;stroke-linecap:round;stroke-linejoin:round;stroke-miterlimit:4;stroke-dasharray:none;stroke-opacity:1"
     d="m 130.23023,6.6500861 c -0.412,0.6093 -3.037,2.516 -3.667,2.9226 -0.552,0.364 -1.272,1.2763999 -2.256,0.6666999 -0.401,-0.224 -0.817,-0.8599999 -0.916,-1.1666999 -0.084,-0.2453 0.124,-0.5 0.474,-0.6826 0.584,-0.3227 0.88,-0.1827 2.036,-0.7187 0,0 0.297,-0.088 0.829,-0.1973 1.588,-0.3707 0.927,-0.0627 3.115,-1.104 0.15,-0.0733 0.337,0.0253 0.38,0.124 0.062,0.1773 0.005,0.156 0.005,0.156 z"
     id="path34" />
  <path
     style="fill:#231f20;fill-opacity:1;fill-rule:nonzero;stroke:none"
     d="m 56.225134,37.865086 c 0.3853,-1.298 1.3744,-1.371 2.2129,-0.762 0.2496,0.188 0.6563,0.074 0.8907,0.276 0.5308,0.464 0.5989,2.204 -0.8437,2.631 -0.0984,0.031 -0.7812,0.489 -1.3386,0.755 -1.0989,0.51 -3.5469,1.01 -5.7811,-0.5 -1.0574,-0.708 -0.4376,-1.208 0.0785,-1.047 1.6292,0.505 1.8693,0.229 2.3532,0.204 1.6197,-0.073 2.4281,-1.557 2.4281,-1.557"
     id="path35" />
  <path
     style="fill:none;stroke:#231f20;stroke-width:0.332927;stroke-linecap:butt;stroke-linejoin:miter;stroke-miterlimit:4;stroke-dasharray:none;stroke-opacity:1"
     d="m 56.225134,37.865086 c 0.3853,-1.298 1.3744,-1.371 2.2129,-0.762 0.2496,0.188 0.6563,0.074 0.8907,0.276 0.5308,0.464 0.5989,2.204 -0.8437,2.631 -0.0984,0.031 -0.7812,0.489 -1.3386,0.755 -1.0989,0.51 -3.5469,1.01 -5.7811,-0.5 -1.0574,-0.708 -0.4376,-1.208 0.0785,-1.047 1.6292,0.505 1.8693,0.229 2.3532,0.204 1.6197,-0.073 2.4281,-1.557 2.4281,-1.557 z"
     id="path36" />
  <path
     style="fill:#fab41d;fill-opacity:1;fill-rule:nonzero;stroke:none"
     d="m 182.44823,21.213086 c -3.089,0.5 -3.813,0.27 -4.704,0.052 -5.614,-1.386 -6.186,1.401 -5.213,4.109 1.136,3.193 1.484,4.365 7.568,2.767 1.692,-0.443 8.416,-1.298 8.416,-1.298 2.443,0.011 4.844,-1.276 5.453,-2.593 0.647,-1.391 0.292,-0.896 0.652,-2.281 0.343,-1.339 -0.256,-3.438 -1.381,-3.948 -1.077,-0.495 -2.448,0.458 -4.599,1.572 -1.697,0.876 -6.192,1.62 -6.192,1.62"
     id="path37" />
  <path
     style="fill:none;stroke:#231f20;stroke-width:0.565977;stroke-linecap:butt;stroke-linejoin:miter;stroke-miterlimit:4;stroke-dasharray:none;stroke-opacity:1"
     d="m 182.44823,21.213086 c -3.089,0.5 -3.813,0.27 -4.704,0.052 -5.614,-1.386 -6.186,1.401 -5.213,4.109 1.136,3.193 1.484,4.365 7.568,2.767 1.692,-0.443 8.416,-1.298 8.416,-1.298 2.443,0.011 4.844,-1.276 5.453,-2.593 0.647,-1.391 0.292,-0.896 0.652,-2.281 0.343,-1.339 -0.256,-3.438 -1.381,-3.948 -1.077,-0.495 -2.448,0.458 -4.599,1.572 -1.697,0.876 -6.192,1.62 -6.192,1.62 z"
     id="path38" />
  <path
     style="fill:#ffffff;fill-opacity:1;fill-rule:nonzero;stroke:none"
     d="m 202.06323,19.494086 c 0.192,-0.151 1.109,0.557 1.463,0.167 0.344,-0.396 -0.099,-1.052 0.48,-2.958 l 0.005,-0.021 c 0.457,-1.375 0.301,-2.76 -0.563,-3.672 -1.433,-1.505 -4.245,-1.145 -6.297,0.792 -2.052,1.948 -2.547,4.744 -1.12,6.249 1.365,1.443 4.016,1.178 6.032,-0.557"
     id="path39" />
  <path
     style="fill:none;stroke:#231f20;stroke-width:0.565977;stroke-linecap:butt;stroke-linejoin:miter;stroke-miterlimit:4;stroke-dasharray:none;stroke-opacity:1"
     d="m 202.06323,19.494086 c 0.192,-0.151 1.109,0.557 1.463,0.167 0.344,-0.396 -0.099,-1.052 0.48,-2.958 l 0.005,-0.021 c 0.457,-1.375 0.301,-2.76 -0.563,-3.672 -1.433,-1.505 -4.245,-1.145 -6.297,0.792 -2.052,1.948 -2.547,4.744 -1.12,6.249 1.365,1.443 4.016,1.178 6.032,-0.557 z"
     id="path40" />
  <path
     style="fill:#231f20;fill-opacity:1;fill-rule:nonzero;stroke:none"
     d="m 156.46923,19.447086 c 1.042,-2.01 0.969,-2.541 0.141,-3.03 -0.547,-0.334 -0.932,-0.828 -1.261,-1.043 -1.067,-0.724 -3.187,-1.495 -9.739,-2.115 -1.485,-0.134 -3.573,-0.353 -4.417,-0.504 -1.334,-0.234 -0.834,2.14 -0.302,2.244 1.682,0.328 2.802,0.683 3.396,0.886 0.4,0.136 1.151,0.281 2.651,1.016 2.265,1.12 3.459,2.12 5.453,2.822 0.927,0.328 1.411,1.162 2.484,1.011 1.079,-0.125 1.594,-1.287 1.594,-1.287"
     id="path41" />
  <path
     style="fill:none;stroke:#231f20;stroke-width:0.565977;stroke-linecap:butt;stroke-linejoin:miter;stroke-miterlimit:4;stroke-dasharray:none;stroke-opacity:1"
     d="m 156.46923,19.447086 c 1.042,-2.01 0.969,-2.541 0.141,-3.03 -0.547,-0.334 -0.932,-0.828 -1.261,-1.043 -1.067,-0.724 -3.187,-1.495 -9.739,-2.115 -1.485,-0.134 -3.573,-0.353 -4.417,-0.504 -1.334,-0.234 -0.834,2.14 -0.302,2.244 1.682,0.328 2.802,0.683 3.396,0.886 0.4,0.136 1.151,0.281 2.651,1.016 2.265,1.12 3.459,2.12 5.453,2.822 0.927,0.328 1.411,1.162 2.484,1.011 1.079,-0.125 1.594,-1.287 1.594,-1.287 z"
     id="path42" />
  <path
     style="fill:#231f20;fill-opacity:1;fill-rule:nonzero;stroke:#231f20;stroke-width:0.565977;stroke-linecap:round;stroke-linejoin:round;stroke-miterlimit:4;stroke-dasharray:none;stroke-opacity:1"
     d="m 154.05323,20.114086 c 0.437,1.344 2.582,1.593 2.869,1.771 4.224,2.693 4.599,2.776 7.953,4.594 4.864,2.635 8.599,3.692 10.959,1.312 1.593,-1.62 1.817,-3.245 1.286,-4.448 -0.589,-1.333 -3.062,-3.328 -5.792,-2.396 l -1.672,-0.39 c -1.093,-0.402 -1.63,-0.594 -2.155,-0.828 -0.902,-0.422 -1.912,-0.818 -3.724,-1.542 -3.235,-1.27 -7.063,-1.573 -7.063,-1.573 -0.292,-0.109 -0.568,-0.083 -0.823,0.011"
     id="path43" />
  <path
     style="fill:#fab41d;fill-opacity:1;fill-rule:nonzero;stroke:none"
     d="m 177.31823,23.723086 c -0.583,-1.344 -3.047,-3.344 -5.787,-2.416 l -3.552,6.958 c 3.443,1.5 6.161,1.772 8.032,-0.104 1.599,-1.61 1.833,-3.235 1.307,-4.438"
     id="path44" />
  <path
     style="fill:none;stroke:#231f20;stroke-width:0.565977;stroke-linecap:butt;stroke-linejoin:miter;stroke-miterlimit:4;stroke-dasharray:none;stroke-opacity:1"
     d="m 177.31823,23.723086 c -0.583,-1.344 -3.047,-3.344 -5.787,-2.416 l -3.552,6.958 c 3.443,1.5 6.161,1.772 8.032,-0.104 1.599,-1.61 1.833,-3.235 1.307,-4.438 z"
     id="path45" />
  <path
     style="fill:#231f20;fill-opacity:1;fill-rule:nonzero;stroke:none"
     d="m 173.39123,12.166086 c 0.249,0.589 1.989,1.464 3.047,2.677 0.713,0.818 3.197,1.97 3.849,2.839 0.599,0.797 0.943,1.109 1.963,0.583 0.609,-0.307 1.584,-1.302 1.374,-1.766 -0.494,-1.082 -1.186,-1.724 -2.109,-2.27 -1.052,-0.615 -4.041,-2.042 -4.609,-2.255 -1.432,-0.521 -1.818,-1.147 -2.182,-1.328 -0.693,-0.324 -0.985,-0.136 -1.292,0.255 -0.593,0.76 -0.041,1.265 -0.041,1.265"
     id="path46" />
  <path
     style="fill:none;stroke:#231f20;stroke-width:0.565977;stroke-linecap:butt;stroke-linejoin:miter;stroke-miterlimit:4;stroke-dasharray:none;stroke-opacity:1"
     d="m 173.39123,12.166086 c 0.249,0.589 1.989,1.464 3.047,2.677 0.713,0.818 3.197,1.97 3.849,2.839 0.599,0.797 0.943,1.109 1.963,0.583 0.609,-0.307 1.584,-1.302 1.374,-1.766 -0.494,-1.082 -1.186,-1.724 -2.109,-2.27 -1.052,-0.615 -4.041,-2.042 -4.609,-2.255 -1.432,-0.521 -1.818,-1.147 -2.182,-1.328 -0.693,-0.324 -0.985,-0.136 -1.292,0.255 -0.593,0.76 -0.041,1.265 -0.041,1.265 z"
     id="path47" />
  <path
     style="fill:#231f20;fill-opacity:1;fill-rule:nonzero;stroke:none"
     d="m 180.26023,17.031086 c -0.525,1.182 1.454,1.662 1.948,1.864 0.506,0.203 1.87,0.954 2.86,1.672 0.99,0.724 2.536,1.198 4.416,2.568 0.995,0.714 2.412,0.787 3.386,-0.698 0.969,-1.463 0.516,-2.558 -0.818,-3.25 -1.328,-0.682 -2.865,-0.77 -4.256,-1.37 -1.39,-0.594 -2.744,-1.334 -3.785,-1.968 -1.177,-0.719 -2.027,-0.642 -2.412,-0.355 -0.975,0.699 -1.339,1.537 -1.339,1.537"
     id="path48" />
  <path
     style="fill:none;stroke:#231f20;stroke-width:0.565977;stroke-linecap:butt;stroke-linejoin:miter;stroke-miterlimit:4;stroke-dasharray:none;stroke-opacity:1"
     d="m 180.26023,17.031086 c -0.525,1.182 1.454,1.662 1.948,1.864 0.506,0.203 1.87,0.954 2.86,1.672 0.99,0.724 2.536,1.198 4.416,2.568 0.995,0.714 2.412,0.787 3.386,-0.698 0.969,-1.463 0.516,-2.558 -0.818,-3.25 -1.328,-0.682 -2.865,-0.77 -4.256,-1.37 -1.39,-0.594 -2.744,-1.334 -3.785,-1.968 -1.177,-0.719 -2.027,-0.642 -2.412,-0.355 -0.975,0.699 -1.339,1.537 -1.339,1.537 z"
     id="path49" />
  <path
     style="fill:#231f20;fill-opacity:1;fill-rule:nonzero;stroke:none"
     d="m 167.85923,8.2553861 c 0.375,0.6293 2.907,2.6666999 3.516,3.0986999 0.536,0.396 1.203,1.339 2.219,0.781 0.412,-0.209 0.854,-0.822 0.973,-1.12 0.095,-0.245 -0.104,-0.505 -0.443,-0.7077 -0.566,-0.3492999 -0.869,-0.224 -1.994,-0.8186999 0,0 -0.291,-0.104 -0.818,-0.2386 -1.573,-0.448 -0.921,-0.104 -3.057,-1.256 -0.145,-0.0827 -0.333,0.0106 -0.385,0.1093 -0.068,0.172 -0.011,0.152 -0.011,0.152"
     id="path50" />
  <path
     style="fill:none;stroke:#231f20;stroke-width:0.565977;stroke-linecap:round;stroke-linejoin:round;stroke-miterlimit:4;stroke-dasharray:none;stroke-opacity:1"
     d="m 167.85923,8.2553861 c 0.375,0.6293 2.907,2.6666999 3.516,3.0986999 0.536,0.396 1.203,1.339 2.219,0.781 0.412,-0.209 0.854,-0.822 0.973,-1.12 0.095,-0.245 -0.104,-0.505 -0.443,-0.7077 -0.566,-0.3492999 -0.869,-0.224 -1.994,-0.8186999 0,0 -0.291,-0.104 -0.818,-0.2386 -1.573,-0.448 -0.921,-0.104 -3.057,-1.256 -0.145,-0.0827 -0.333,0.0106 -0.385,0.1093 -0.068,0.172 -0.011,0.152 -0.011,0.152 z"
     id="path51" />
  <path
     style="fill:#231f20;fill-opacity:1;fill-rule:nonzero;stroke:none"
     d="m 139.00123,11.469086 c 1.145,-0.724 1.942,-0.12 2.161,0.885 0.072,0.307 0.443,0.489 0.489,0.796 0.094,0.699 -1.005,2.048 -2.369,1.417 -0.095,-0.041 -0.907,-0.145 -1.5,-0.317 -1.167,-0.339 -3.333,-1.579 -4.021,-4.1934 -0.323,-1.2292999 0.473,-1.1919999 0.754,-0.7345999 0.891,1.4589999 1.256,1.4119999 1.636,1.7089999 1.26,1.02 2.85,0.438 2.85,0.438"
     id="path52" />
  <path
     style="fill:none;stroke:#231f20;stroke-width:0.332927;stroke-linecap:butt;stroke-linejoin:miter;stroke-miterlimit:4;stroke-dasharray:none;stroke-opacity:1"
     d="m 139.00123,11.469086 c 1.145,-0.724 1.942,-0.12 2.161,0.885 0.072,0.307 0.443,0.489 0.489,0.796 0.094,0.699 -1.005,2.048 -2.369,1.417 -0.095,-0.041 -0.907,-0.145 -1.5,-0.317 -1.167,-0.339 -3.333,-1.579 -4.021,-4.1934 -0.323,-1.2292999 0.473,-1.1919999 0.754,-0.7345999 0.891,1.4589999 1.256,1.4119999 1.636,1.7089999 1.26,1.02 2.85,0.438 2.85,0.438 z"
     id="path53" />
  <path
     style="fill:#fab41d;fill-opacity:1;fill-rule:nonzero;stroke:none"
     d="m 271.82823,90.707086 c 1.807,-2.561 2.766,-4.692 3.23,-5.484 1.609,-2.755 1.577,-5.385 -1.043,-6.588 -3.077,-1.423 -5.375,0.203 -7.317,3.88 -0.818,1.557 -3.464,4.536 -3.464,4.536 -2.443,2.141 -3.447,2.287 -2.572,4.912 0.484,1.453 -0.532,3.672 0.317,4.839 1.593,2.15 2.713,2.286 3.787,1.77 1.073,-0.51 1.812,-1.568 3.5,-3.313 1.614,-1.671 3.562,-4.552 3.562,-4.552"
     id="path54" />
  <path
     style="fill:none;stroke:#231f20;stroke-width:0.565977;stroke-linecap:butt;stroke-linejoin:miter;stroke-miterlimit:4;stroke-dasharray:none;stroke-opacity:1"
     d="m 271.82823,90.707086 c 1.807,-2.561 2.766,-4.692 3.23,-5.484 1.609,-2.755 1.577,-5.385 -1.043,-6.588 -3.077,-1.423 -5.375,0.203 -7.317,3.88 -0.818,1.557 -3.464,4.536 -3.464,4.536 -2.443,2.141 -3.447,2.287 -2.572,4.912 0.484,1.453 -0.532,3.672 0.317,4.839 1.593,2.15 2.713,2.286 3.787,1.77 1.073,-0.51 1.812,-1.568 3.5,-3.313 1.614,-1.671 3.562,-4.552 3.562,-4.552 z"
     id="path56" />
  <path
     style="fill:#ffffff;fill-opacity:1;fill-rule:nonzero;stroke:none"
     d="m 254.69823,92.088086 c -0.244,-0.042 -0.318,-1.198 -0.839,-1.204 -0.525,-0.005 -0.729,0.762 -2.541,1.579 l -0.022,0.011 c -1.342,0.557 -2.285,1.588 -2.4,2.833 -0.193,2.072 1.927,3.957 4.728,4.228 2.819,0.267 5.256,-1.197 5.454,-3.26 0.193,-1.984 -1.75,-3.801 -4.38,-4.187"
     id="path58" />
  <path
     style="fill:none;stroke:#231f20;stroke-width:0.565977;stroke-linecap:butt;stroke-linejoin:miter;stroke-miterlimit:4;stroke-dasharray:none;stroke-opacity:1"
     d="m 254.69823,92.088086 c -0.244,-0.042 -0.318,-1.198 -0.839,-1.204 -0.525,-0.005 -0.729,0.762 -2.541,1.579 l -0.022,0.011 c -1.342,0.557 -2.285,1.588 -2.4,2.833 -0.193,2.072 1.927,3.957 4.728,4.228 2.819,0.267 5.256,-1.197 5.454,-3.26 0.193,-1.984 -1.75,-3.801 -4.38,-4.187 z"
     id="path60" />
  <path
     style="fill:#231f20;fill-opacity:1;fill-rule:nonzero;stroke:none"
     d="m 273.76623,65.089086 c 2.208,0.494 2.702,0.285 2.969,-0.636 0.181,-0.615 0.561,-1.11 0.687,-1.479 0.426,-1.224 0.636,-3.469 -0.432,-9.964 -0.24,-1.469 -0.568,-3.541 -0.631,-4.396 -0.115,-1.355 -2.287,-0.265 -2.249,0.276 0.109,1.708 0.046,2.885 0.01,3.511 -0.037,0.426 0.015,1.182 -0.313,2.822 -0.505,2.475 -1.167,3.886 -1.344,5.99 -0.083,0.98 -0.765,1.661 -0.348,2.661 0.396,1.011 1.651,1.215 1.651,1.215"
     id="path62" />
  <path
     style="fill:none;stroke:#231f20;stroke-width:0.565977;stroke-linecap:butt;stroke-linejoin:miter;stroke-miterlimit:4;stroke-dasharray:none;stroke-opacity:1"
     d="m 273.76623,65.089086 c 2.208,0.494 2.702,0.285 2.969,-0.636 0.181,-0.615 0.561,-1.11 0.687,-1.479 0.426,-1.224 0.636,-3.469 -0.432,-9.964 -0.24,-1.469 -0.568,-3.541 -0.631,-4.396 -0.115,-1.355 -2.287,-0.265 -2.249,0.276 0.109,1.708 0.046,2.885 0.01,3.511 -0.037,0.426 0.015,1.182 -0.313,2.822 -0.505,2.475 -1.167,3.886 -1.344,5.99 -0.083,0.98 -0.765,1.661 -0.348,2.661 0.396,1.011 1.651,1.215 1.651,1.215 z"
     id="path63" />
  <path
     style="fill:#231f20;fill-opacity:1;fill-rule:nonzero;stroke:#231f20;stroke-width:0.565977;stroke-linecap:round;stroke-linejoin:round;stroke-miterlimit:4;stroke-dasharray:none;stroke-opacity:1"
     d="m 272.59423,61.479086 c -1.188,0.766 -0.886,2.895 -0.984,3.224 -1.527,4.78 -1.506,5.161 -2.407,8.869 -1.303,5.38 -1.364,9.26 1.536,10.932 1.975,1.131 3.605,0.927 4.631,0.11 1.141,-0.911 2.432,-3.812 0.833,-6.219 l -0.052,-1.713 c 0.115,-1.156 0.156,-1.73 0.255,-2.298 0.177,-0.984 0.302,-2.057 0.532,-4 0.41,-3.453 -0.282,-7.229 -0.282,-7.229 0.026,-0.306 -0.068,-0.572 -0.224,-0.796"
     id="path64" />
  <path
     style="fill:#fab41d;fill-opacity:1;fill-rule:nonzero;stroke:none"
     d="m 276.16723,78.526086 -7.636,-1.658 c -0.573,3.72 -0.145,6.412 2.151,7.74 1.964,1.131 3.594,0.943 4.625,0.126 1.147,-0.902 2.453,-3.803 0.86,-6.208"
     id="path65" />
  <path
     style="fill:none;stroke:#231f20;stroke-width:0.565977;stroke-linecap:butt;stroke-linejoin:miter;stroke-miterlimit:4;stroke-dasharray:none;stroke-opacity:1"
     d="m 276.16723,78.526086 -7.636,-1.658 c -0.573,3.72 -0.145,6.412 2.151,7.74 1.964,1.131 3.594,0.943 4.625,0.126 1.147,-0.902 2.453,-3.803 0.86,-6.208 z"
     id="path66" />
  <path
     style="fill:#231f20;fill-opacity:1;fill-rule:nonzero;stroke:none"
     d="m 248.19223,96.040086 c -0.046,-0.634 1.131,-2.197 1.527,-3.754 0.276,-1.052 1.979,-3.198 2.172,-4.266 0.181,-0.984 0.348,-1.406 1.495,-1.401 0.686,0.005 2,0.459 2.02,0.964 0.042,1.192 -0.291,2.072 -0.87,2.979 -0.661,1.016 -2.692,3.63 -3.109,4.073 -1.047,1.115 -1.115,1.844 -1.359,2.167 -0.474,0.598 -0.813,0.568 -1.266,0.353 -0.875,-0.421 -0.61,-1.115 -0.61,-1.115"
     id="path67" />
  <path
     style="fill:none;stroke:#231f20;stroke-width:0.565977;stroke-linecap:butt;stroke-linejoin:miter;stroke-miterlimit:4;stroke-dasharray:none;stroke-opacity:1"
     d="m 248.19223,96.040086 c -0.046,-0.634 1.131,-2.197 1.527,-3.754 0.276,-1.052 1.979,-3.198 2.172,-4.266 0.181,-0.984 0.348,-1.406 1.495,-1.401 0.686,0.005 2,0.459 2.02,0.964 0.042,1.192 -0.291,2.072 -0.87,2.979 -0.661,1.016 -2.692,3.63 -3.109,4.073 -1.047,1.115 -1.115,1.844 -1.359,2.167 -0.474,0.598 -0.813,0.568 -1.266,0.353 -0.875,-0.421 -0.61,-1.115 -0.61,-1.115 z"
     id="path68" />
  <path
     style="fill:#231f20;fill-opacity:1;fill-rule:nonzero;stroke:none"
     d="m 252.89623,87.108086 c 0.692,-1.093 2.187,0.292 2.63,0.595 0.448,0.307 1.822,1.036 2.969,1.457 1.145,0.432 2.401,1.459 4.573,2.282 1.146,0.426 1.99,1.573 1.291,3.204 -0.687,1.613 -1.853,1.837 -3.161,1.109 -1.302,-0.729 -2.224,-1.969 -3.495,-2.797 -1.255,-0.828 -2.625,-1.552 -3.729,-2.068 -1.244,-0.594 -1.651,-1.344 -1.626,-1.818 0.048,-1.204 0.548,-1.964 0.548,-1.964"
     id="path69" />
  <path
     style="fill:none;stroke:#231f20;stroke-width:0.565977;stroke-linecap:butt;stroke-linejoin:miter;stroke-miterlimit:4;stroke-dasharray:none;stroke-opacity:1"
     d="m 252.89623,87.108086 c 0.692,-1.093 2.187,0.292 2.63,0.595 0.448,0.307 1.822,1.036 2.969,1.457 1.145,0.432 2.401,1.459 4.573,2.282 1.146,0.426 1.99,1.573 1.291,3.204 -0.687,1.613 -1.853,1.837 -3.161,1.109 -1.302,-0.729 -2.224,-1.969 -3.495,-2.797 -1.255,-0.828 -2.625,-1.552 -3.729,-2.068 -1.244,-0.594 -1.651,-1.344 -1.626,-1.818 0.048,-1.204 0.548,-1.964 0.548,-1.964 z"
     id="path70" />
  <path
     style="fill:#231f20;fill-opacity:1;fill-rule:nonzero;stroke:none"
     d="m 254.82323,99.223086 c -0.708,0.208 -3.948,-0.011 -4.693,-0.099 -0.656,-0.073 -1.786,0.172 -2.156,-0.926 -0.167,-0.434 -0.078,-1.188 0.037,-1.48 0.099,-0.244 0.421,-0.302 0.801,-0.224 0.656,0.125 0.798,0.422 2.027,0.75 0,0 0.285,0.12 0.765,0.375 1.459,0.735 0.744,0.541 3.094,1.14 0.166,0.043 0.245,0.24 0.213,0.344 -0.063,0.177 -0.088,0.12 -0.088,0.12"
     id="path71" />
  <path
     style="fill:none;stroke:#231f20;stroke-width:0.565977;stroke-linecap:round;stroke-linejoin:round;stroke-miterlimit:4;stroke-dasharray:none;stroke-opacity:1"
     d="m 254.82323,99.223086 c -0.708,0.208 -3.948,-0.011 -4.693,-0.099 -0.656,-0.073 -1.786,0.172 -2.156,-0.926 -0.167,-0.434 -0.078,-1.188 0.037,-1.48 0.099,-0.244 0.421,-0.302 0.801,-0.224 0.656,0.125 0.798,0.422 2.027,0.75 0,0 0.285,0.12 0.765,0.375 1.459,0.735 0.744,0.541 3.094,1.14 0.166,0.043 0.245,0.24 0.213,0.344 -0.063,0.177 -0.088,0.12 -0.088,0.12 z"
     id="path73" />
  <path
     style="fill:#231f20;fill-opacity:1;fill-rule:nonzero;stroke:none"
     d="m 277.04723,46.161086 c 0.984,0.928 0.609,1.849 -0.308,2.328 -0.281,0.136 -0.364,0.548 -0.651,0.666 -0.645,0.267 -2.234,-0.448 -1.968,-1.926 0.01,-0.104 -0.094,-0.916 -0.078,-1.536 0.036,-1.214 0.682,-3.626 3.03,-4.948 1.115,-0.631 1.276,0.15 0.907,0.536 -1.183,1.234 -1.047,1.578 -1.24,2.021 -0.661,1.473 0.308,2.859 0.308,2.859"
     id="path75" />
  <path
     style="fill:none;stroke:#231f20;stroke-width:0.332927;stroke-linecap:butt;stroke-linejoin:miter;stroke-miterlimit:4;stroke-dasharray:none;stroke-opacity:1"
     d="m 277.04723,46.161086 c 0.984,0.928 0.609,1.849 -0.308,2.328 -0.281,0.136 -0.364,0.548 -0.651,0.666 -0.645,0.267 -2.234,-0.448 -1.968,-1.926 0.01,-0.104 -0.094,-0.916 -0.078,-1.536 0.036,-1.214 0.682,-3.626 3.03,-4.948 1.115,-0.631 1.276,0.15 0.907,0.536 -1.183,1.234 -1.047,1.578 -1.24,2.021 -0.661,1.473 0.308,2.859 0.308,2.859 z"
     id="path76" />
  <path
     style="fill:#ffffff;fill-opacity:1;fill-rule:nonzero;stroke:none"
     d="m 316.06323,62.822086 c 0.088,-0.229 1.228,-0.119 1.317,-0.64 0.088,-0.516 -0.631,-0.839 -1.172,-2.756 l -0.005,-0.02 c -0.339,-1.412 -1.214,-2.495 -2.427,-2.808 -2.011,-0.509 -4.213,1.292 -4.907,4.032 -0.692,2.735 0.375,5.369 2.386,5.88 1.926,0.489 4.021,-1.145 4.808,-3.688"
     id="path77" />
  <path
     style="fill:none;stroke:#231f20;stroke-width:0.565977;stroke-linecap:butt;stroke-linejoin:miter;stroke-miterlimit:4;stroke-dasharray:none;stroke-opacity:1"
     d="m 316.06323,62.822086 c 0.088,-0.229 1.228,-0.119 1.317,-0.64 0.088,-0.516 -0.631,-0.839 -1.172,-2.756 l -0.005,-0.02 c -0.339,-1.412 -1.214,-2.495 -2.427,-2.808 -2.011,-0.509 -4.213,1.292 -4.907,4.032 -0.692,2.735 0.375,5.369 2.386,5.88 1.926,0.489 4.021,-1.145 4.808,-3.688 z"
     id="path78" />
  <path
     style="fill:#fab41d;fill-opacity:1;fill-rule:nonzero;stroke:none"
     d="m 301.62423,76.780086 c -1.957,2.443 -2.65,2.751 -3.462,3.183 -5.094,2.729 -3.662,5.183 -1.12,6.547 2.984,1.614 4.021,2.249 7.473,-3.016 0.958,-1.463 5.381,-6.599 5.381,-6.599 1.828,-1.625 2.744,-4.188 2.317,-5.579 -0.453,-1.462 -0.38,-0.848 -1.046,-2.134 -0.636,-1.219 -2.49,-2.38 -3.667,-2.006 -1.131,0.355 -1.511,1.979 -2.36,4.25 -0.677,1.786 -3.516,5.354 -3.516,5.354"
     id="path79" />
  <path
     style="fill:none;stroke:#231f20;stroke-width:0.565977;stroke-linecap:butt;stroke-linejoin:miter;stroke-miterlimit:4;stroke-dasharray:none;stroke-opacity:1"
     d="m 301.62423,76.780086 c -1.957,2.443 -2.65,2.751 -3.462,3.183 -5.094,2.729 -3.662,5.183 -1.12,6.547 2.984,1.614 4.021,2.249 7.473,-3.016 0.958,-1.463 5.381,-6.599 5.381,-6.599 1.828,-1.625 2.744,-4.188 2.317,-5.579 -0.453,-1.462 -0.38,-0.848 -1.046,-2.134 -0.636,-1.219 -2.49,-2.38 -3.667,-2.006 -1.131,0.355 -1.511,1.979 -2.36,4.25 -0.677,1.786 -3.516,5.354 -3.516,5.354 z"
     id="path80" />
  <path
     style="fill:#231f20;fill-opacity:1;fill-rule:nonzero;stroke:none"
     d="m 329.05223,69.868086 c -0.527,0.376 -2.464,0.22 -3.995,0.715 -1.032,0.333 -3.761,0.031 -4.766,0.443 -0.922,0.374 -1.38,0.457 -1.99,-0.522 -0.358,-0.578 -0.672,-1.932 -0.254,-2.218 0.984,-0.672 1.91,-0.864 2.978,-0.855 1.219,0.016 4.511,0.339 5.11,0.459 1.5,0.292 2.156,-0.047 2.557,-0.006 0.761,0.074 0.917,0.38 0.975,0.88 0.109,0.954 -0.615,1.104 -0.615,1.104"
     id="path81" />
  <path
     style="fill:none;stroke:#231f20;stroke-width:0.565977;stroke-linecap:butt;stroke-linejoin:miter;stroke-miterlimit:4;stroke-dasharray:none;stroke-opacity:1"
     d="m 329.05223,69.868086 c -0.527,0.376 -2.464,0.22 -3.995,0.715 -1.032,0.333 -3.761,0.031 -4.766,0.443 -0.922,0.374 -1.38,0.457 -1.99,-0.522 -0.358,-0.578 -0.672,-1.932 -0.254,-2.218 0.984,-0.672 1.91,-0.864 2.978,-0.855 1.219,0.016 4.511,0.339 5.11,0.459 1.5,0.292 2.156,-0.047 2.557,-0.006 0.761,0.074 0.917,0.38 0.975,0.88 0.109,0.954 -0.615,1.104 -0.615,1.104 z"
     id="path82" />
  <path
     style="fill:#231f20;fill-opacity:1;fill-rule:nonzero;stroke:none"
     d="m 320.00523,70.416086 c -0.062,1.291 -2.042,0.823 -2.584,0.782 -0.541,-0.048 -2.098,0 -3.301,0.192 -1.215,0.198 -2.803,-0.078 -5.1,0.286 -1.213,0.198 -2.505,-0.385 -2.708,-2.145 -0.203,-1.745 0.703,-2.516 2.199,-2.527 1.494,-0.01 2.91,0.604 4.416,0.699 1.51,0.099 3.057,0.052 4.265,-0.043 1.38,-0.104 2.099,0.355 2.319,0.776 0.552,1.063 0.494,1.98 0.494,1.98"
     id="path83" />
  <path
     style="fill:none;stroke:#231f20;stroke-width:0.565977;stroke-linecap:butt;stroke-linejoin:miter;stroke-miterlimit:4;stroke-dasharray:none;stroke-opacity:1"
     d="m 320.00523,70.416086 c -0.062,1.291 -2.042,0.823 -2.584,0.782 -0.541,-0.048 -2.098,0 -3.301,0.192 -1.215,0.198 -2.803,-0.078 -5.1,0.286 -1.213,0.198 -2.505,-0.385 -2.708,-2.145 -0.203,-1.745 0.703,-2.516 2.199,-2.527 1.494,-0.01 2.91,0.604 4.416,0.699 1.51,0.099 3.057,0.052 4.265,-0.043 1.38,-0.104 2.099,0.355 2.319,0.776 0.552,1.063 0.494,1.98 0.494,1.98 z"
     id="path84" />
  <path
     style="fill:#231f20;fill-opacity:1;fill-rule:nonzero;stroke:none"
     d="m 335.99523,69.540086 c -0.667,0.282 -3.918,0.459 -4.662,0.47 -0.661,0.005 -1.756,0.38 -2.265,-0.656 -0.204,-0.418 -0.215,-1.172 -0.136,-1.486 0.068,-0.249 0.38,-0.358 0.776,-0.322 0.661,0.052 0.833,0.328 2.099,0.505 0,0 0.292,0.084 0.808,0.271 1.536,0.557 0.806,0.453 3.208,0.761 0.172,0.02 0.276,0.208 0.249,0.323 -0.041,0.177 -0.077,0.134 -0.077,0.134"
     id="path85" />
  <path
     style="fill:none;stroke:#231f20;stroke-width:0.565977;stroke-linecap:round;stroke-linejoin:round;stroke-miterlimit:4;stroke-dasharray:none;stroke-opacity:1"
     d="m 335.99523,69.540086 c -0.667,0.282 -3.918,0.459 -4.662,0.47 -0.661,0.005 -1.756,0.38 -2.265,-0.656 -0.204,-0.418 -0.215,-1.172 -0.136,-1.486 0.068,-0.249 0.38,-0.358 0.776,-0.322 0.661,0.052 0.833,0.328 2.099,0.505 0,0 0.292,0.084 0.808,0.271 1.536,0.557 0.806,0.453 3.208,0.761 0.172,0.02 0.276,0.208 0.249,0.323 -0.041,0.177 -0.077,0.134 -0.077,0.134 z"
     id="path86" />
  <path
     style="fill:#231f20;fill-opacity:1;fill-rule:nonzero;stroke:none"
     d="m 319.47923,85.952086 c -1.167,-1.937 -1.656,-2.156 -2.516,-1.718 -0.562,0.292 -1.187,0.369 -1.542,0.53 -1.182,0.538 -2.948,1.928 -6.916,7.178 -0.901,1.193 -2.177,2.86 -2.75,3.494 -0.907,1.011 1.38,1.834 1.745,1.443 1.161,-1.255 2.063,-2.036 2.541,-2.432 0.328,-0.271 0.85,-0.828 2.255,-1.719 2.141,-1.338 3.62,-1.833 5.271,-3.156 0.766,-0.62 1.729,-0.593 2.177,-1.584 0.443,-0.984 -0.265,-2.036 -0.265,-2.036"
     id="path87" />
  <path
     style="fill:none;stroke:#231f20;stroke-width:0.565977;stroke-linecap:butt;stroke-linejoin:miter;stroke-miterlimit:4;stroke-dasharray:none;stroke-opacity:1"
     d="m 319.47923,85.952086 c -1.167,-1.937 -1.656,-2.156 -2.516,-1.718 -0.562,0.292 -1.187,0.369 -1.542,0.53 -1.182,0.538 -2.948,1.928 -6.916,7.178 -0.901,1.193 -2.177,2.86 -2.75,3.494 -0.907,1.011 1.38,1.834 1.745,1.443 1.161,-1.255 2.063,-2.036 2.541,-2.432 0.328,-0.271 0.85,-0.828 2.255,-1.719 2.141,-1.338 3.62,-1.833 5.271,-3.156 0.766,-0.62 1.729,-0.593 2.177,-1.584 0.443,-0.984 -0.265,-2.036 -0.265,-2.036 z"
     id="path88" />
  <path
     style="fill:#231f20;fill-opacity:1;fill-rule:nonzero;stroke:#231f20;stroke-width:0.565977;stroke-linecap:round;stroke-linejoin:miter;stroke-miterlimit:4;stroke-dasharray:none;stroke-opacity:1"
     d="m 318.21323,84.646086 c -0.802,-1.084 -2.812,-0.855 -3.12,-0.959 -4.74,-1.636 -5.12,-1.631 -8.812,-2.62 -5.338,-1.437 -9.213,-1.599 -10.953,1.265 -1.182,1.943 -1.021,3.568 -0.229,4.62 0.88,1.167 3.749,2.531 6.192,0.995 l 1.714,-0.016 c 1.151,0.141 1.73,0.199 2.291,0.319 0.985,0.197 2.048,0.342 3.985,0.624 3.432,0.5 7.23,-0.104 7.23,-0.104 0.312,0.037 0.577,-0.047 0.801,-0.203"
     id="path89" />
  <path
     style="fill:#fab41d;fill-opacity:1;fill-rule:nonzero;stroke:none"
     d="m 295.32823,82.332086 c -1.182,1.943 -1.021,3.568 -0.229,4.62 0.88,1.167 3.749,2.531 6.192,0.99 l 1.824,-7.599 c -3.709,-0.645 -6.412,-0.271 -7.787,1.989"
     id="path90" />
  <path
     style="fill:none;stroke:#231f20;stroke-width:0.565977;stroke-linecap:round;stroke-linejoin:round;stroke-miterlimit:4;stroke-dasharray:none;stroke-opacity:1"
     d="m 295.32823,82.332086 c -1.182,1.943 -1.021,3.568 -0.229,4.62 0.88,1.167 3.749,2.531 6.192,0.99 l 1.824,-7.599 c -3.709,-0.645 -6.412,-0.271 -7.787,1.989 z"
     id="path91" />
  <path
     style="fill:#231f20;fill-opacity:1;fill-rule:nonzero;stroke:none"
     d="m 305.94323,99.171086 c -1.09,-0.025 -0.871,-1.255 -0.667,-2.468 0.047,-0.308 0.068,-0.595 0.14,-0.891 0.297,-1.188 1.095,-1.87 3.12,0.334 0.079,0.082 1.953,1.202 2.536,1.426 2.781,1.078 2.98,0.26 2.781,1.078 -0.129,0.542 -0.64,0.568 -1.27,0.589 -0.848,0.025 -3.87,-0.147 -4.334,-0.141 -0.448,0 -2.306,0.073 -2.306,0.073"
     id="path92" />
  <path
     style="fill:none;stroke:#231f20;stroke-width:0.565977;stroke-linecap:butt;stroke-linejoin:miter;stroke-miterlimit:4;stroke-dasharray:none;stroke-opacity:1"
     d="m 305.94323,99.171086 c -1.09,-0.025 -0.871,-1.255 -0.667,-2.468 0.047,-0.308 0.068,-0.595 0.14,-0.891 0.297,-1.188 1.095,-1.87 3.12,0.334 0.079,0.082 1.953,1.202 2.536,1.426 2.781,1.078 2.98,0.26 2.781,1.078 -0.129,0.542 -0.64,0.568 -1.27,0.589 -0.848,0.025 -3.87,-0.147 -4.334,-0.141 -0.448,0 -2.306,0.073 -2.306,0.073 z"
     id="path94" />
  <path
     style="fill:#ffffff;fill-opacity:1;fill-rule:nonzero;stroke:none"
     d="m 21.198734,37.849086 c 0.1358,-0.203 1.229,0.156 1.4317,-0.328 0.1932,-0.484 -0.4317,-0.964 -0.5308,-2.954 v -0.016 c -0.0213,-1.458 -0.6307,-2.702 -1.7452,-3.276 -1.8428,-0.948 -4.3907,0.323 -5.6761,2.839 -1.2864,2.516 -0.8333,5.317 1.0146,6.26 1.7656,0.912 4.1776,-0.219 5.5058,-2.525"
     id="path96" />
  <path
     style="fill:none;stroke:#231f20;stroke-width:0.565977;stroke-linecap:butt;stroke-linejoin:miter;stroke-miterlimit:4;stroke-dasharray:none;stroke-opacity:1"
     d="m 21.198734,37.849086 c 0.1358,-0.203 1.229,0.156 1.4317,-0.328 0.1932,-0.484 -0.4317,-0.964 -0.5308,-2.954 v -0.016 c -0.0213,-1.458 -0.6307,-2.702 -1.7452,-3.276 -1.8428,-0.948 -4.3907,0.323 -5.6761,2.839 -1.2864,2.516 -0.8333,5.317 1.0146,6.26 1.7656,0.912 4.1776,-0.219 5.5058,-2.525 z"
     id="path97" />
  <path
     style="fill:#fab41d;fill-opacity:1;fill-rule:nonzero;stroke:none"
     d="m 8.5892336,51.750086 c -1.5057,2.749 -2.1306,3.172 -2.8536,3.739 -4.5478,3.573 -2.7093,5.734 0.0307,6.641 3.2188,1.068 4.3495004,1.516 6.8385004,-4.271 0.6923,-1.604 4.1511,-7.433 4.1511,-7.433 1.5156,-1.916 1.9745,-4.593 1.313,-5.895 -0.6984,-1.365 -0.5213,-0.772 -1.401,-1.917 -0.8334,-1.099 -2.8656,-1.916 -3.9588,-1.339 -1.0521,0.547 -1.1453,2.214 -1.5933,4.594 -0.3495,1.881 -2.5266004,5.881 -2.5266004,5.881"
     id="path98" />
  <path
     style="fill:none;stroke:#231f20;stroke-width:0.565977;stroke-linecap:butt;stroke-linejoin:miter;stroke-miterlimit:4;stroke-dasharray:none;stroke-opacity:1"
     d="m 8.5892336,51.750086 c -1.5057,2.749 -2.1306,3.172 -2.8536,3.739 -4.5478,3.573 -2.7093,5.734 0.0307,6.641 3.2188,1.068 4.3495004,1.516 6.8385004,-4.271 0.6923,-1.604 4.1511,-7.433 4.1511,-7.433 1.5156,-1.916 1.9745,-4.593 1.313,-5.895 -0.6984,-1.365 -0.5213,-0.772 -1.401,-1.917 -0.8334,-1.099 -2.8656,-1.916 -3.9588,-1.339 -1.0521,0.547 -1.1453,2.214 -1.5933,4.594 -0.3495,1.881 -2.5266004,5.881 -2.5266004,5.881 z"
     id="path99" />
  <path
     style="fill:#231f20;fill-opacity:1;fill-rule:nonzero;stroke:none"
     d="m 35.406434,40.890086 c -0.4626,0.453 -2.4052,0.584 -3.8427,1.292 -0.9745,0.484 -3.7188,0.588 -4.6521,1.145 -0.8531,0.511 -1.2959,0.656 -2.0411,-0.224 -0.4428,-0.52 -0.9537,-1.806 -0.5828,-2.156 0.8744,-0.812 1.7599,-1.13 2.8228,-1.281 1.2027,-0.161 4.5052,-0.328 5.1199,-0.301 1.5254,0.066 2.1186,-0.366 2.5254,-0.386 0.7652,-0.032 0.9642,0.244 1.0932,0.728 0.2506,0.928 -0.4426,1.183 -0.4426,1.183"
     id="path100" />
  <path
     style="fill:none;stroke:#231f20;stroke-width:0.565977;stroke-linecap:butt;stroke-linejoin:miter;stroke-miterlimit:4;stroke-dasharray:none;stroke-opacity:1"
     d="m 35.406434,40.890086 c -0.4626,0.453 -2.4052,0.584 -3.8427,1.292 -0.9745,0.484 -3.7188,0.588 -4.6521,1.145 -0.8531,0.511 -1.2959,0.656 -2.0411,-0.224 -0.4428,-0.52 -0.9537,-1.806 -0.5828,-2.156 0.8744,-0.812 1.7599,-1.13 2.8228,-1.281 1.2027,-0.161 4.5052,-0.328 5.1199,-0.301 1.5254,0.066 2.1186,-0.366 2.5254,-0.386 0.7652,-0.032 0.9642,0.244 1.0932,0.728 0.2506,0.928 -0.4426,1.183 -0.4426,1.183 z"
     id="path101" />
  <path
     style="fill:#231f20;fill-opacity:1;fill-rule:nonzero;stroke:none"
     d="m 26.542434,42.765086 c 0.1255,1.286 -1.9011,1.114 -2.4428,1.157 -0.5463,0.031 -2.0733,0.307 -3.24,0.681 -1.1667,0.371 -2.7865,0.334 -5,1.032 -1.1666,0.375 -2.536,-0.01 -3,-1.724 -0.4532,-1.693 0.3282,-2.589 1.8026,-2.822 1.4843,-0.23 2.9682,0.17 4.4734,0.046 1.5109,-0.136 3.0323,-0.406 4.2135,-0.677 1.3496,-0.312 2.1256,0.041 2.412,0.427 0.6974,0.969 0.7813,1.88 0.7813,1.88"
     id="path102" />
  <path
     style="fill:none;stroke:#231f20;stroke-width:0.565977;stroke-linecap:butt;stroke-linejoin:miter;stroke-miterlimit:4;stroke-dasharray:none;stroke-opacity:1"
     d="m 26.542434,42.765086 c 0.1255,1.286 -1.9011,1.114 -2.4428,1.157 -0.5463,0.031 -2.0733,0.307 -3.24,0.681 -1.1667,0.371 -2.7865,0.334 -5,1.032 -1.1666,0.375 -2.536,-0.01 -3,-1.724 -0.4532,-1.693 0.3282,-2.589 1.8026,-2.822 1.4843,-0.23 2.9682,0.17 4.4734,0.046 1.5109,-0.136 3.0323,-0.406 4.2135,-0.677 1.3496,-0.312 2.1256,0.041 2.412,0.427 0.6974,0.969 0.7813,1.88 0.7813,1.88 z"
     id="path103" />
  <path
     style="fill:#231f20;fill-opacity:1;fill-rule:nonzero;stroke:none"
     d="m 42.219934,39.541086 c -0.6151,0.381 -3.8031,1.032 -4.5375,1.152 -0.6562,0.104 -1.6812,0.64 -2.3375,-0.314 -0.2667,-0.385 -0.3864,-1.129 -0.3495,-1.448 0.0256,-0.254 0.3178,-0.41 0.7188,-0.432 0.6615,-0.041 0.8692,0.199 2.1454,0.188 0,0 0.3025,0.042 0.8442,0.146 1.5984,0.328 0.864,0.333 3.2812,0.286 0.1771,-0.005 0.3027,0.167 0.2973,0.282 -0.0161,0.172 -0.0624,0.14 -0.0624,0.14"
     id="path104" />
  <path
     style="fill:none;stroke:#231f20;stroke-width:0.565977;stroke-linecap:round;stroke-linejoin:round;stroke-miterlimit:4;stroke-dasharray:none;stroke-opacity:1"
     d="m 42.219934,39.541086 c -0.6151,0.381 -3.8031,1.032 -4.5375,1.152 -0.6562,0.104 -1.6812,0.64 -2.3375,-0.314 -0.2667,-0.385 -0.3864,-1.129 -0.3495,-1.448 0.0256,-0.254 0.3178,-0.41 0.7188,-0.432 0.6615,-0.041 0.8692,0.199 2.1454,0.188 0,0 0.3025,0.042 0.8442,0.146 1.5984,0.328 0.864,0.333 3.2812,0.286 0.1771,-0.005 0.3027,0.167 0.2973,0.282 -0.0161,0.172 -0.0624,0.14 -0.0624,0.14 z"
     id="path105" />
  <path
     style="fill:#231f20;fill-opacity:1;fill-rule:nonzero;stroke:none"
     d="m 8.6466336,77.535086 c -2.0162,-1.025 -2.547,-0.952 -3.0418,-0.135 -0.3276,0.547 -0.817,0.943 -1.0369,1.266 -0.7188,1.078 -1.4844,3.193 -2.088,9.75 -0.1308,1.484 -0.3385,3.572 -0.4896,4.416 -0.2401,1.334 2.1401,0.828 2.2401,0.308 0.323,-1.682 0.676,-2.818 0.8802,-3.406 0.1344,-0.407 0.2813,-1.156 1.0105,-2.651 1.1041,-2.271 2.1093,-3.469 2.8067,-5.464 0.3224,-0.927 1.1557004,-1.417 1.0161,-2.489 -0.1416,-1.074 -1.2973,-1.595 -1.2973,-1.595"
     id="path106" />
  <path
     style="fill:none;stroke:#231f20;stroke-width:0.565977;stroke-linecap:butt;stroke-linejoin:miter;stroke-miterlimit:4;stroke-dasharray:none;stroke-opacity:1"
     d="m 8.6466336,77.535086 c -2.0162,-1.025 -2.547,-0.952 -3.0418,-0.135 -0.3276,0.547 -0.817,0.943 -1.0369,1.266 -0.7188,1.078 -1.4844,3.193 -2.088,9.75 -0.1308,1.484 -0.3385,3.572 -0.4896,4.416 -0.2401,1.334 2.1401,0.828 2.2401,0.308 0.323,-1.682 0.676,-2.818 0.8802,-3.406 0.1344,-0.407 0.2813,-1.156 1.0105,-2.651 1.1041,-2.271 2.1093,-3.469 2.8067,-5.464 0.3224,-0.927 1.1557004,-1.417 1.0161,-2.489 -0.1416,-1.074 -1.2973,-1.595 -1.2973,-1.595 z"
     id="path107" />
  <path
     style="fill:#231f20;fill-opacity:1;fill-rule:nonzero;stroke:#231f20;stroke-width:0.565977;stroke-linecap:round;stroke-linejoin:miter;stroke-miterlimit:4;stroke-dasharray:none;stroke-opacity:1"
     d="m 9.4382336,79.906086 c 0.9589004,-0.948 0.4537,-2.907 0.5162,-3.23 0.9734004,-4.912 0.9162004,-5.292 1.3906004,-9.084 0.687,-5.483 0.3172,-9.347 -2.7615004,-10.675 -2.0823,-0.907 -3.6771,-0.522 -4.6088,0.41 -1.0308,1.027 -1.9948,4.063 -0.1297,6.271 l 0.2494,1.688 c 0.0214,1.166 0.036,1.745 0,2.317 -0.0624,1 -0.0624,2.073 -0.0733,4.032 -0.0199,3.473 1.0947,7.145 1.0947,7.145 0.0053,0.318 0.1292,0.568 0.312,0.771"
     id="path108" />
  <path
     style="fill:#fab41d;fill-opacity:1;fill-rule:nonzero;stroke:none"
     d="m 11.198734,60.083086 c -0.4428,-1.49 -1.2605004,-2.578 -2.6152004,-3.166 -2.0823,-0.907 -3.6771,-0.522 -4.6088,0.41 -1.0308,1.027 -1.9948,4.058 -0.1297,6.271 l 7.7761004,0.756 c 0.0203,-0.656 0.0093,-1.265 -0.0267,-1.855 0.0214,-0.073 0.0412,-0.15 0.0735,-0.213 0.3224,-0.735 0.0412,-1.297 -0.4692,-2.203"
     id="path109" />
  <path
     style="fill:none;stroke:#231f20;stroke-width:0.565977;stroke-linecap:round;stroke-linejoin:round;stroke-miterlimit:4;stroke-dasharray:none;stroke-opacity:1"
     d="m 11.198734,60.083086 c -0.4428,-1.49 -1.2605004,-2.578 -2.6152004,-3.166 -2.0823,-0.907 -3.6771,-0.522 -4.6088,0.41 -1.0308,1.027 -1.9948,4.058 -0.1297,6.271 l 7.7761004,0.756 c 0.0203,-0.656 0.0093,-1.265 -0.0267,-1.855 0.0214,-0.073 0.0412,-0.15 0.0735,-0.213 0.3224,-0.735 0.0412,-1.297 -0.4692,-2.203 z"
     id="path110" />
  <path
     style="fill:#231f20;fill-opacity:1;fill-rule:nonzero;stroke:none"
     d="m 0.66793359,95.535086 c -0.9016,-0.609 -0.0426,-1.525 0.77600001,-2.437 0.2027,-0.23 0.3797,-0.468 0.5985,-0.672 0.8958,-0.838 1.9323,-0.984 2.4479,1.969 0.0213,0.109 0.9948,2.063 1.3588,2.568 1.7557,2.411 2.3652,1.833 1.7557,2.411 -0.4009,0.385 -0.8437,0.136 -1.3796,-0.192 -0.7349,-0.438 -3.1828,-2.219 -3.5734,-2.464 -0.3803,-0.239 -1.98390001,-1.183 -1.98390001,-1.183"
     id="path111" />
  <path
     style="fill:none;stroke:#231f20;stroke-width:0.565977;stroke-linecap:butt;stroke-linejoin:miter;stroke-miterlimit:4;stroke-dasharray:none;stroke-opacity:1"
     d="m 0.66793359,95.535086 c -0.9016,-0.609 -0.0426,-1.525 0.77600001,-2.437 0.2027,-0.23 0.3797,-0.468 0.5985,-0.672 0.8958,-0.838 1.9323,-0.984 2.4479,1.969 0.0213,0.109 0.9948,2.063 1.3588,2.568 1.7557,2.411 2.3652,1.833 1.7557,2.411 -0.4009,0.385 -0.8437,0.136 -1.3796,-0.192 -0.7349,-0.438 -3.1828,-2.219 -3.5734,-2.464 -0.3803,-0.239 -1.98390001,-1.183 -1.98390001,-1.183 z"
     id="path113" />
</svg>
