<?xml version="1.0" encoding="UTF-8" standalone="no"?>
<!-- Created with Inkscape (http://www.inkscape.org/) -->

<svg
   version="1.1"
   id="svg1"
   width="269.97235"
   height="143.101"
   viewBox="0 0 269.97234 143.101"
   sodipodi:docname="cell.svg"
   xmlns:inkscape="http://www.inkscape.org/namespaces/inkscape"
   xmlns:sodipodi="http://sodipodi.sourceforge.net/DTD/sodipodi-0.dtd"
   xmlns="http://www.w3.org/2000/svg"
   xmlns:svg="http://www.w3.org/2000/svg">
  <sodipodi:namedview
     id="namedview1"
     pagecolor="#ffffff"
     bordercolor="#000000"
     borderopacity="0.25"
     inkscape:showpageshadow="2"
     inkscape:pageopacity="0.0"
     inkscape:pagecheckerboard="0"
     inkscape:deskcolor="#d1d1d1">
    <inkscape:page
       x="0"
       y="0"
       inkscape:label="1"
       id="page1"
       width="269.97235"
       height="143.101"
       margin="0"
       bleed="0" />
  </sodipodi:namedview>
  <defs
     id="defs1" />
  <path
     style="fill:#fab41d;fill-opacity:1;fill-rule:nonzero;stroke:none"
     d="m 93.605962,53.405423 c -3.131,0.146 -3.818,-0.162 -4.683,-0.484 -5.421,-2.011 -6.301,0.688 -5.645,3.489 0.765,3.303 0.973,4.505 7.202,3.609 1.735,-0.249 8.511,-0.333 8.511,-0.333 2.426998,0.292 4.958998,-0.713 5.712998,-1.952 0.803,-1.313 0.391,-0.86 0.907,-2.199 0.5,-1.286 0.135,-3.442 -0.923,-4.077 -1.014,-0.615 -2.484,0.176 -4.743998,1.041 -1.792,0.678 -6.338,0.906 -6.338,0.906"
     id="path566" />
  <path
     style="fill:none;stroke:#231f20;stroke-width:0.565977;stroke-linecap:butt;stroke-linejoin:miter;stroke-miterlimit:4;stroke-dasharray:none;stroke-opacity:1"
     d="m 93.605962,53.405423 c -3.131,0.146 -3.818,-0.162 -4.683,-0.484 -5.421,-2.011 -6.301,0.688 -5.645,3.489 0.765,3.303 0.973,4.505 7.202,3.609 1.735,-0.249 8.511,-0.333 8.511,-0.333 2.426998,0.292 4.958998,-0.713 5.712998,-1.952 0.803,-1.313 0.391,-0.86 0.907,-2.199 0.5,-1.286 0.135,-3.442 -0.923,-4.077 -1.014,-0.615 -2.484,0.176 -4.743998,1.041 -1.792,0.678 -6.338,0.906 -6.338,0.906 z"
     id="path567" />
  <path
     style="fill:#ffffff;fill-opacity:1;fill-rule:nonzero;stroke:none"
     d="m 113.28796,53.926423 c 0.208,-0.131 1.036,0.677 1.432,0.328 0.391,-0.349 0.026,-1.057 0.812,-2.88 l 0.011,-0.027 c 0.609,-1.312 0.615,-2.708 -0.14,-3.708 -1.256,-1.661 -4.095,-1.62 -6.349,0.074 -2.26,1.702 -3.063,4.421 -1.823,6.082 1.192,1.59 3.853,1.626 6.057,0.131"
     id="path568" />
  <path
     style="fill:none;stroke:#231f20;stroke-width:0.565977;stroke-linecap:butt;stroke-linejoin:miter;stroke-miterlimit:4;stroke-dasharray:none;stroke-opacity:1"
     d="m 113.28796,53.926423 c 0.208,-0.131 1.036,0.677 1.432,0.328 0.391,-0.349 0.026,-1.057 0.812,-2.88 l 0.011,-0.027 c 0.609,-1.312 0.615,-2.708 -0.14,-3.708 -1.256,-1.661 -4.095,-1.62 -6.349,0.074 -2.26,1.702 -3.063,4.421 -1.823,6.082 1.192,1.59 3.853,1.626 6.057,0.131 z"
     id="path569" />
  <path
     style="fill:#231f20;fill-opacity:1;fill-rule:nonzero;stroke:none"
     d="m 68.047962,64.265423 c -0.688,-2.156 -1.114,-2.484 -2.040998,-2.251 -0.62,0.152 -1.245,0.079 -1.631,0.152 -1.265,0.244 -3.312,1.197 -8.39,5.38 -1.146,0.948 -2.782,2.271 -3.49,2.755 -1.109,0.776 0.927,2.109 1.375,1.807 1.423,-0.953 2.469,-1.489 3.027,-1.77 0.385,-0.188 1.014,-0.615 2.598,-1.152 2.396,-0.807 3.948,-0.943 5.855,-1.848 0.889,-0.418 1.822998,-0.172 2.478998,-1.037 0.672,-0.848 0.218,-2.036 0.218,-2.036"
     id="path570" />
  <path
     style="fill:none;stroke:#231f20;stroke-width:0.565977;stroke-linecap:butt;stroke-linejoin:miter;stroke-miterlimit:4;stroke-dasharray:none;stroke-opacity:1"
     d="m 68.047962,64.265423 c -0.688,-2.156 -1.114,-2.484 -2.040998,-2.251 -0.62,0.152 -1.245,0.079 -1.631,0.152 -1.265,0.244 -3.312,1.197 -8.39,5.38 -1.146,0.948 -2.782,2.271 -3.49,2.755 -1.109,0.776 0.927,2.109 1.375,1.807 1.423,-0.953 2.469,-1.489 3.027,-1.77 0.385,-0.188 1.014,-0.615 2.598,-1.152 2.396,-0.807 3.948,-0.943 5.855,-1.848 0.889,-0.418 1.822998,-0.172 2.478998,-1.037 0.672,-0.848 0.218,-2.036 0.218,-2.036 z"
     id="path571" />
  <path
     style="fill:#231f20;fill-opacity:1;fill-rule:nonzero;stroke:#231f20;stroke-width:0.565977;stroke-linecap:round;stroke-linejoin:round;stroke-miterlimit:4;stroke-dasharray:none;stroke-opacity:1"
     d="m 66.802964,66.442423 c 1.260998,0.64 2.952998,-0.693 3.286998,-0.765 4.896,-1.079 5.218,-1.282 8.885,-2.366 5.303,-1.562 8.693,-3.453 8.683,-6.806 -0.011,-2.271 -1,-3.579 -2.224,-4.058 -1.36,-0.532 -4.516,-0.198 -5.798,2.391 l -1.457,0.905 c -1.057,0.486 -1.579,0.73 -2.109,0.934 -0.943,0.337 -1.934,0.765 -3.735,1.536 -3.188,1.38 -6.114998,3.874 -6.114998,3.874 -0.276,0.126 -0.464,0.339 -0.578,0.584"
     id="path572" />
  <path
     style="fill:#fab41d;fill-opacity:1;fill-rule:nonzero;stroke:none"
     d="m 85.839962,52.577423 c -1.354,-0.536 -4.521,-0.219 -5.802,2.37 l 2.39,7.432 c 3.5,-1.365 5.62,-3.088 5.615,-5.734 0,-2.271 -0.979,-3.588 -2.203,-4.068"
     id="path573" />
  <path
     style="fill:none;stroke:#231f20;stroke-width:0.565977;stroke-linecap:butt;stroke-linejoin:miter;stroke-miterlimit:4;stroke-dasharray:none;stroke-opacity:1"
     d="m 85.839962,52.577423 c -1.354,-0.536 -4.521,-0.219 -5.802,2.37 l 2.39,7.432 c 3.5,-1.365 5.62,-3.088 5.615,-5.734 0,-2.271 -0.979,-3.588 -2.203,-4.068 z"
     id="path574" />
  <path
     style="fill:#231f20;fill-opacity:1;fill-rule:nonzero;stroke:none"
     d="m 93.730962,72.765423 c -0.095,-0.636 0.932,-2.292 1.192,-3.875 0.177,-1.073 1.693,-3.36 1.792,-4.437 0.088,-0.991 0.224,-1.439 1.364,-1.527 0.688,-0.057 2.036998,0.276 2.094998,0.781 0.145,1.183 -0.104,2.094 -0.599998,3.036 -0.572,1.084 -2.37,3.86 -2.744,4.339 -0.948,1.199 -0.948,1.932 -1.162,2.276 -0.422,0.641 -0.765,0.636 -1.234,0.459 -0.907,-0.339 -0.703,-1.052 -0.703,-1.052"
     id="path575" />
  <path
     style="fill:none;stroke:#231f20;stroke-width:0.565977;stroke-linecap:butt;stroke-linejoin:miter;stroke-miterlimit:4;stroke-dasharray:none;stroke-opacity:1"
     d="m 93.730962,72.765423 c -0.095,-0.636 0.932,-2.292 1.192,-3.875 0.177,-1.073 1.693,-3.36 1.792,-4.437 0.088,-0.991 0.224,-1.439 1.364,-1.527 0.688,-0.057 2.036998,0.276 2.094998,0.781 0.145,1.183 -0.104,2.094 -0.599998,3.036 -0.572,1.084 -2.37,3.86 -2.744,4.339 -0.948,1.199 -0.948,1.932 -1.162,2.276 -0.422,0.641 -0.765,0.636 -1.234,0.459 -0.907,-0.339 -0.703,-1.052 -0.703,-1.052 z"
     id="path576" />
  <path
     style="fill:#231f20;fill-opacity:1;fill-rule:nonzero;stroke:none"
     d="m 97.469962,65.311423 c -1.172,-0.557 0.021,-2.208 0.266,-2.686 0.25,-0.486 0.802,-1.944 1.078,-3.131 0.281,-1.193 1.146,-2.563 1.687998,-4.823 0.281,-1.188 1.312,-2.166 3.02,-1.677 1.688,0.479 2.057,1.609 1.496,3 -0.563,1.38 -1.672,2.453 -2.339,3.807 -0.667,1.36 -1.215,2.808 -1.589,3.964 -0.432,1.312 -1.125998,1.802 -1.603998,1.838 -1.192,0.104 -2.016,-0.292 -2.016,-0.292"
     id="path577" />
  <path
     style="fill:none;stroke:#231f20;stroke-width:0.565977;stroke-linecap:butt;stroke-linejoin:miter;stroke-miterlimit:4;stroke-dasharray:none;stroke-opacity:1"
     d="m 97.469962,65.311423 c -1.172,-0.557 0.021,-2.208 0.266,-2.686 0.25,-0.486 0.802,-1.944 1.078,-3.131 0.281,-1.193 1.146,-2.563 1.687998,-4.823 0.281,-1.188 1.312,-2.166 3.02,-1.677 1.688,0.479 2.057,1.609 1.496,3 -0.563,1.38 -1.672,2.453 -2.339,3.807 -0.667,1.36 -1.215,2.808 -1.589,3.964 -0.432,1.312 -1.125998,1.802 -1.603998,1.838 -1.192,0.104 -2.016,-0.292 -2.016,-0.292 z"
     id="path578" />
  <path
     style="fill:#231f20;fill-opacity:1;fill-rule:nonzero;stroke:none"
     d="m 91.069962,78.999423 c -0.011,-0.734 1.077,-3.803 1.369,-4.484 0.249,-0.614 0.328,-1.772 1.484,-1.829 0.459,-0.041 1.161,0.251 1.417,0.443 0.203,0.162 0.176,0.479 -0.005,0.833 -0.303,0.595 -0.625,0.646 -1.276,1.745 0,0 -0.193,0.24 -0.568,0.631 -1.104,1.203 -0.729,0.572 -1.948,2.672 -0.079,0.145 -0.287,0.172 -0.38,0.109 -0.156,-0.109 -0.093,-0.12 -0.093,-0.12"
     id="path579" />
  <path
     style="fill:none;stroke:#231f20;stroke-width:0.565977;stroke-linecap:round;stroke-linejoin:round;stroke-miterlimit:4;stroke-dasharray:none;stroke-opacity:1"
     d="m 91.069962,78.999423 c -0.011,-0.734 1.077,-3.803 1.369,-4.484 0.249,-0.614 0.328,-1.772 1.484,-1.829 0.459,-0.041 1.161,0.251 1.417,0.443 0.203,0.162 0.176,0.479 -0.005,0.833 -0.303,0.595 -0.625,0.646 -1.276,1.745 0,0 -0.193,0.24 -0.568,0.631 -1.104,1.203 -0.729,0.572 -1.948,2.672 -0.079,0.145 -0.287,0.172 -0.38,0.109 -0.156,-0.109 -0.093,-0.12 -0.093,-0.12 z"
     id="path580" />
  <path
     style="fill:#231f20;fill-opacity:1;fill-rule:nonzero;stroke:none"
     d="m 50.037964,70.942423 c 0.302,-1.323 1.292,-1.459 2.161,-0.901 0.261,0.172 0.656,0.03 0.907,0.218 0.557,0.427 0.734,2.161 -0.678,2.678 -0.098,0.036 -0.749,0.536 -1.292,0.838 -1.066,0.578 -3.473,1.23 -5.801,-0.141 -1.098,-0.64 -0.51,-1.176 0.016,-1.052 1.656,0.407 1.885,0.12 2.364,0.057 1.615,-0.172 2.323,-1.697 2.323,-1.697"
     id="path581" />
  <path
     style="fill:none;stroke:#231f20;stroke-width:0.332927;stroke-linecap:butt;stroke-linejoin:miter;stroke-miterlimit:4;stroke-dasharray:none;stroke-opacity:1"
     d="m 50.037964,70.942423 c 0.302,-1.323 1.292,-1.459 2.161,-0.901 0.261,0.172 0.656,0.03 0.907,0.218 0.557,0.427 0.734,2.161 -0.678,2.678 -0.098,0.036 -0.749,0.536 -1.292,0.838 -1.066,0.578 -3.473,1.23 -5.801,-0.141 -1.098,-0.64 -0.51,-1.176 0.016,-1.052 1.656,0.407 1.885,0.12 2.364,0.057 1.615,-0.172 2.323,-1.697 2.323,-1.697 z"
     id="path582" />
  <path
     style="fill:#fab41d;fill-opacity:1;fill-rule:nonzero;stroke:none"
     d="m 146.65796,48.473423 c -1.959,-2.448 -2.115,-3.187 -2.36,-4.072 -1.558,-5.568 -4.266,-4.699 -6.146,-2.516 -2.224,2.557 -3.073,3.437 1.312,7.948 1.22,1.254 5.276,6.686 5.276,6.686 1.194,2.142 3.491,3.595 4.939,3.475 1.536,-0.12 0.927,-0.183 2.307,-0.552 1.338,-0.355 2.874,-1.917 2.765,-3.141 -0.099,-1.187 -1.604,-1.911 -3.635,-3.234 -1.6,-1.048 -4.458,-4.594 -4.458,-4.594"
     id="path583" />
  <path
     style="fill:none;stroke:#231f20;stroke-width:0.565977;stroke-linecap:butt;stroke-linejoin:miter;stroke-miterlimit:4;stroke-dasharray:none;stroke-opacity:1"
     d="m 146.65796,48.473423 c -1.959,-2.448 -2.115,-3.187 -2.36,-4.072 -1.558,-5.568 -4.266,-4.699 -6.146,-2.516 -2.224,2.557 -3.073,3.437 1.312,7.948 1.22,1.254 5.276,6.686 5.276,6.686 1.194,2.142 3.491,3.595 4.939,3.475 1.536,-0.12 0.927,-0.183 2.307,-0.552 1.338,-0.355 2.874,-1.917 2.765,-3.141 -0.099,-1.187 -1.604,-1.911 -3.635,-3.234 -1.6,-1.048 -4.458,-4.594 -4.458,-4.594 z"
     id="path584" />
  <path
     style="fill:#ffffff;fill-opacity:1;fill-rule:nonzero;stroke:none"
     d="m 157.80296,64.707423 c 0.229,0.088 0.063,1.235 0.579,1.35 0.516,0.114 0.869,-0.599 2.812,-1.038 h 0.021 c 1.421,-0.281 2.557,-1.098 2.921,-2.296 0.61,-1.989 -1.088,-4.265 -3.785,-5.094 -2.709,-0.834 -5.387,0.12 -6,2.1 -0.589,1.896 0.952,4.072 3.452,4.978"
     id="path585" />
  <path
     style="fill:none;stroke:#231f20;stroke-width:0.565977;stroke-linecap:butt;stroke-linejoin:miter;stroke-miterlimit:4;stroke-dasharray:none;stroke-opacity:1"
     d="m 157.80296,64.707423 c 0.229,0.088 0.063,1.235 0.579,1.35 0.516,0.114 0.869,-0.599 2.812,-1.038 h 0.021 c 1.421,-0.281 2.557,-1.098 2.921,-2.296 0.61,-1.989 -1.088,-4.265 -3.785,-5.094 -2.709,-0.834 -5.387,0.12 -6,2.1 -0.589,1.896 0.952,4.072 3.452,4.978 z"
     id="path586" />
  <path
     style="fill:#231f20;fill-opacity:1;fill-rule:nonzero;stroke:none"
     d="m 135.40696,24.978423 c 2.261,-0.088 2.693,-0.411 2.715,-1.369 0.02,-0.642 0.254,-1.224 0.285,-1.61 0.1,-1.286 -0.271,-3.51 -2.957,-9.526 -0.604,-1.359 -1.448,-3.2820001 -1.724,-4.0940001 -0.454,-1.276 -2.282,0.328 -2.11,0.844 0.542,1.6260001 0.787,2.7760001 0.9,3.3910001 0.079,0.421 0.324,1.14 0.418,2.807 0.145,2.526 -0.136,4.057 0.229,6.141 0.167,0.968 -0.317,1.801 0.339,2.661 0.645,0.875 1.905,0.755 1.905,0.755"
     id="path587" />
  <path
     style="fill:none;stroke:#231f20;stroke-width:0.565977;stroke-linecap:butt;stroke-linejoin:miter;stroke-miterlimit:4;stroke-dasharray:none;stroke-opacity:1"
     d="m 135.40696,24.978423 c 2.261,-0.088 2.693,-0.411 2.715,-1.369 0.02,-0.642 0.254,-1.224 0.285,-1.61 0.1,-1.286 -0.271,-3.51 -2.957,-9.526 -0.604,-1.359 -1.448,-3.2820001 -1.724,-4.0940001 -0.454,-1.276 -2.282,0.328 -2.11,0.844 0.542,1.6260001 0.787,2.7760001 0.9,3.3910001 0.079,0.421 0.324,1.14 0.418,2.807 0.145,2.526 -0.136,4.057 0.229,6.141 0.167,0.968 -0.317,1.801 0.339,2.661 0.645,0.875 1.905,0.755 1.905,0.755 z"
     id="path588" />
  <path
     style="fill:#231f20;fill-opacity:1;fill-rule:nonzero;stroke:#231f20;stroke-width:0.565977;stroke-linecap:round;stroke-linejoin:round;stroke-miterlimit:4;stroke-dasharray:none;stroke-opacity:1"
     d="m 133.63596,23.197423 c -0.952,1.046 -0.114,3.032 -0.129,3.37 -0.267,5.004 -0.156,5.375 -0.089,9.192 0.098,5.532 1.021,9.303 4.256,10.188 2.192,0.588 3.718,-0.016 4.509,-1.068 0.871,-1.166 1.391,-4.308 -0.765,-6.229 l -0.484,-1.64 c -0.188,-1.147 -0.287,-1.715 -0.339,-2.287 -0.079,-0.994 -0.229,-2.062 -0.495,-4.005 -0.478,-3.437 -2.104,-6.923 -2.104,-6.923 -0.046,-0.306 -0.208,-0.536 -0.412,-0.713"
     id="path589" />
  <path
     style="fill:#fab41d;fill-opacity:1;fill-rule:nonzero;stroke:none"
     d="m 141.20396,39.010423 -7.806,0.328 c 0.385,3.739 1.484,6.244 4.041,6.943 2.188,0.604 3.719,0.01 4.511,-1.043 0.88,-1.167 1.41,-4.301 -0.746,-6.228"
     id="path590" />
  <path
     style="fill:none;stroke:#231f20;stroke-width:0.565977;stroke-linecap:butt;stroke-linejoin:miter;stroke-miterlimit:4;stroke-dasharray:none;stroke-opacity:1"
     d="m 141.20396,39.010423 -7.806,0.328 c 0.385,3.739 1.484,6.244 4.041,6.943 2.188,0.604 3.719,0.01 4.511,-1.043 0.88,-1.167 1.41,-4.301 -0.746,-6.228 z"
     id="path591" />
  <path
     style="fill:#231f20;fill-opacity:1;fill-rule:nonzero;stroke:none"
     d="m 166.71996,44.286423 c -0.641,-0.032 -2.177,1.172 -3.724,1.604 -1.052,0.292 -3.161,2.041 -4.224,2.26 -0.974,0.197 -1.401,0.375 -1.365,1.527 0.016,0.681 0.491,1.984 1,1.994 1.193,0.015 2.073,-0.333 2.959,-0.928 1.01,-0.686 3.578,-2.77 4.021,-3.202 1.083,-1.068 1.812,-1.146 2.135,-1.396 0.584,-0.49 0.548,-0.834 0.324,-1.276 -0.434,-0.864 -1.126,-0.583 -1.126,-0.583"
     id="path592" />
  <path
     style="fill:none;stroke:#231f20;stroke-width:0.565977;stroke-linecap:butt;stroke-linejoin:miter;stroke-miterlimit:4;stroke-dasharray:none;stroke-opacity:1"
     d="m 166.71996,44.286423 c -0.641,-0.032 -2.177,1.172 -3.724,1.604 -1.052,0.292 -3.161,2.041 -4.224,2.26 -0.974,0.197 -1.401,0.375 -1.365,1.527 0.016,0.681 0.491,1.984 1,1.994 1.193,0.015 2.073,-0.333 2.959,-0.928 1.01,-0.686 3.578,-2.77 4.021,-3.202 1.083,-1.068 1.812,-1.146 2.135,-1.396 0.584,-0.49 0.548,-0.834 0.324,-1.276 -0.434,-0.864 -1.126,-0.583 -1.126,-0.583 z"
     id="path593" />
  <path
     style="fill:#231f20;fill-opacity:1;fill-rule:nonzero;stroke:none"
     d="m 159.37596,48.405423 c -0.844,-0.984 -2.13,0.6 -2.526,0.958 -0.4,0.375 -1.662,1.287 -2.739,1.866 -1.079,0.588 -2.172,1.776 -4.213,2.89 -1.074,0.588 -1.746,1.839 -0.824,3.359 0.906,1.5 2.094,1.557 3.286,0.656 1.188,-0.905 1.928,-2.26 3.063,-3.26 1.141,-1 2.391,-1.907 3.407,-2.573 1.156,-0.76 1.448,-1.558 1.353,-2.026 -0.208,-1.182 -0.807,-1.87 -0.807,-1.87"
     id="path594" />
  <path
     style="fill:none;stroke:#231f20;stroke-width:0.565977;stroke-linecap:butt;stroke-linejoin:miter;stroke-miterlimit:4;stroke-dasharray:none;stroke-opacity:1"
     d="m 159.37596,48.405423 c -0.844,-0.984 -2.13,0.6 -2.526,0.958 -0.4,0.375 -1.662,1.287 -2.739,1.866 -1.079,0.588 -2.172,1.776 -4.213,2.89 -1.074,0.588 -1.746,1.839 -0.824,3.359 0.906,1.5 2.094,1.557 3.286,0.656 1.188,-0.905 1.928,-2.26 3.063,-3.26 1.141,-1 2.391,-1.907 3.407,-2.573 1.156,-0.76 1.448,-1.558 1.353,-2.026 -0.208,-1.182 -0.807,-1.87 -0.807,-1.87 z"
     id="path595" />
  <path
     style="fill:#231f20;fill-opacity:1;fill-rule:nonzero;stroke:none"
     d="m 172.62696,40.962423 c -0.729,0.068 -3.657,1.485 -4.308,1.849 -0.583,0.318 -1.729,0.516 -1.656,1.672 0.005,0.459 0.369,1.126 0.593,1.36 0.183,0.187 0.5,0.124 0.828,-0.1 0.552,-0.358 0.574,-0.686 1.595,-1.452 0,0 0.219,-0.22 0.567,-0.636 1.078,-1.224 0.49,-0.786 2.442,-2.224 0.142,-0.093 0.142,-0.302 0.068,-0.39 -0.125,-0.14 -0.129,-0.079 -0.129,-0.079"
     id="path596" />
  <path
     style="fill:none;stroke:#231f20;stroke-width:0.565977;stroke-linecap:round;stroke-linejoin:round;stroke-miterlimit:4;stroke-dasharray:none;stroke-opacity:1"
     d="m 172.62696,40.962423 c -0.729,0.068 -3.657,1.485 -4.308,1.849 -0.583,0.318 -1.729,0.516 -1.656,1.672 0.005,0.459 0.369,1.126 0.593,1.36 0.183,0.187 0.5,0.124 0.828,-0.1 0.552,-0.358 0.574,-0.686 1.595,-1.452 0,0 0.219,-0.22 0.567,-0.636 1.078,-1.224 0.49,-0.786 2.442,-2.224 0.142,-0.093 0.142,-0.302 0.068,-0.39 -0.125,-0.14 -0.129,-0.079 -0.129,-0.079 z"
     id="path597" />
  <path
     style="fill:#231f20;fill-opacity:1;fill-rule:nonzero;stroke:none"
     d="m 133.76196,5.8434229 c 1.193,0.64 1.057,1.63 0.292,2.318 -0.235,0.208 -0.208,0.625 -0.454,0.817 -0.557,0.423 -2.276,0.131 -2.396,-1.364 -0.01,-0.104 -0.322,-0.865 -0.464,-1.469 -0.276,-1.183 -0.265,-3.678 1.672,-5.55799998 0.918,-0.885 1.272,-0.177 1.011,0.292 -0.828,1.49499998 -0.609,1.78699998 -0.683,2.26599998 -0.265,1.598 1.022,2.698 1.022,2.698"
     id="path598" />
  <path
     style="fill:none;stroke:#231f20;stroke-width:0.332927;stroke-linecap:butt;stroke-linejoin:miter;stroke-miterlimit:4;stroke-dasharray:none;stroke-opacity:1"
     d="m 133.76196,5.8434229 c 1.193,0.64 1.057,1.63 0.292,2.318 -0.235,0.208 -0.208,0.625 -0.454,0.817 -0.557,0.423 -2.276,0.131 -2.396,-1.364 -0.01,-0.104 -0.322,-0.865 -0.464,-1.469 -0.276,-1.183 -0.265,-3.678 1.672,-5.55799998 0.918,-0.885 1.272,-0.177 1.011,0.292 -0.828,1.49499998 -0.609,1.78699998 -0.683,2.26599998 -0.265,1.598 1.022,2.698 1.022,2.698 z"
     id="path599" />
  <path
     style="fill:#fab41d;fill-opacity:1;fill-rule:nonzero;stroke:none"
     d="m 202.45496,56.749423 c 1.645,2.666 1.713,3.417 1.853,4.328 0.875,5.718 3.661,5.177 5.797,3.24 2.511,-2.276 3.459,-3.042 -0.354,-8.047 -1.058,-1.396 -4.427,-7.276 -4.427,-7.276 -0.921,-2.265 -3.031,-3.984 -4.484,-4.041 -1.537,-0.063 -0.937,0.072 -2.36,0.27 -1.364,0.192 -3.073,1.558 -3.115,2.787 -0.041,1.187 1.36,2.088 3.219,3.645 1.453,1.235 3.871,5.094 3.871,5.094"
     id="path600" />
  <path
     style="fill:none;stroke:#231f20;stroke-width:0.565977;stroke-linecap:butt;stroke-linejoin:miter;stroke-miterlimit:4;stroke-dasharray:none;stroke-opacity:1"
     d="m 202.45496,56.749423 c 1.645,2.666 1.713,3.417 1.853,4.328 0.875,5.718 3.661,5.177 5.797,3.24 2.511,-2.276 3.459,-3.042 -0.354,-8.047 -1.058,-1.396 -4.427,-7.276 -4.427,-7.276 -0.921,-2.265 -3.031,-3.984 -4.484,-4.041 -1.537,-0.063 -0.937,0.072 -2.36,0.27 -1.364,0.192 -3.073,1.558 -3.115,2.787 -0.041,1.187 1.36,2.088 3.219,3.645 1.453,1.235 3.871,5.094 3.871,5.094 z"
     id="path601" />
  <path
     style="fill:#ffffff;fill-opacity:1;fill-rule:nonzero;stroke:none"
     d="m 197.68396,38.791423 c -0.084,-0.234 0.889,-0.86 0.64,-1.324 -0.245,-0.457 -1.021,-0.265 -2.615,-1.448 l -0.021,-0.014 c -1.14,-0.896 -2.5,-1.219 -3.645,-0.71 -1.902,0.839 -2.516,3.615 -1.38,6.194 1.14,2.593 3.609,4 5.51,3.166 1.818,-0.797 2.458,-3.385 1.511,-5.864"
     id="path602" />
  <path
     style="fill:none;stroke:#231f20;stroke-width:0.565977;stroke-linecap:butt;stroke-linejoin:miter;stroke-miterlimit:4;stroke-dasharray:none;stroke-opacity:1"
     d="m 197.68396,38.791423 c -0.084,-0.234 0.889,-0.86 0.64,-1.324 -0.245,-0.457 -1.021,-0.265 -2.615,-1.448 l -0.021,-0.014 c -1.14,-0.896 -2.5,-1.219 -3.645,-0.71 -1.902,0.839 -2.516,3.615 -1.38,6.194 1.14,2.593 3.609,4 5.51,3.166 1.818,-0.797 2.458,-3.385 1.511,-5.864 z"
     id="path603" />
  <path
     style="fill:#231f20;fill-opacity:1;fill-rule:nonzero;stroke:none"
     d="m 220.90696,76.014423 c -1.88,1.251 -2.078,1.751 -1.588,2.579 0.312,0.557 0.412,1.177 0.593,1.526 0.584,1.151 2.068,2.848001 7.495,6.572001 1.229,0.839 2.953,2.043 3.614,2.584 1.058,0.854 1.772,-1.469 1.355,-1.817 -1.312,-1.1 -2.12,-1.959 -2.536,-2.423 -0.292,-0.312 -0.876,-0.801 -1.828,-2.172 -1.443,-2.077001 -2,-3.531001 -3.401,-5.114001 -0.651,-0.739 -0.672,-1.703 -1.683,-2.088 -1.005,-0.412 -2.021,0.353 -2.021,0.353"
     id="path604" />
  <path
     style="fill:none;stroke:#231f20;stroke-width:0.565977;stroke-linecap:butt;stroke-linejoin:miter;stroke-miterlimit:4;stroke-dasharray:none;stroke-opacity:1"
     d="m 220.90696,76.014423 c -1.88,1.251 -2.078,1.751 -1.588,2.579 0.312,0.557 0.412,1.177 0.593,1.526 0.584,1.151 2.068,2.848001 7.495,6.572001 1.229,0.839 2.953,2.043 3.614,2.584 1.058,0.854 1.772,-1.469 1.355,-1.817 -1.312,-1.1 -2.12,-1.959 -2.536,-2.423 -0.292,-0.312 -0.876,-0.801 -1.828,-2.172 -1.443,-2.077001 -2,-3.531001 -3.401,-5.114001 -0.651,-0.739 -0.672,-1.703 -1.683,-2.088 -1.005,-0.412 -2.021,0.353 -2.021,0.353 z"
     id="path605" />
  <path
     style="fill:#231f20;fill-opacity:1;fill-rule:nonzero;stroke:#231f20;stroke-width:0.565977;stroke-linecap:round;stroke-linejoin:round;stroke-miterlimit:4;stroke-dasharray:none;stroke-opacity:1"
     d="m 223.34496,76.603423 c 0.266,-1.39 -1.485,-2.645 -1.646,-2.942 -2.391,-4.407 -2.678,-4.656 -4.735,-7.88 -2.973,-4.662 -5.733,-7.396 -8.947,-6.459 -2.182,0.64 -3.162,1.953 -3.286,3.26 -0.131,1.453 1.066,4.401 3.91,4.912 l 1.271,1.145 c 0.756,0.88 1.141,1.314 1.48,1.771 0.588,0.813 1.276,1.647 2.515,3.161 2.209,2.678 5.417,4.803 5.417,4.803 0.203,0.234 0.453,0.349 0.719,0.391"
     id="path606" />
  <path
     style="fill:#fab41d;fill-opacity:1;fill-rule:nonzero;stroke:none"
     d="m 208.03696,58.910423 c -2.177,0.636 -3.172,1.939 -3.297,3.245 -0.14,1.459 1.048,4.407 3.891,4.922 l 6.485,-4.359 c -2.287,-2.984 -4.532,-4.541 -7.079,-3.808"
     id="path607" />
  <path
     style="fill:none;stroke:#231f20;stroke-width:0.565977;stroke-linecap:butt;stroke-linejoin:miter;stroke-miterlimit:4;stroke-dasharray:none;stroke-opacity:1"
     d="m 208.03696,58.910423 c -2.177,0.636 -3.172,1.939 -3.297,3.245 -0.14,1.459 1.048,4.407 3.891,4.922 l 6.485,-4.359 c -2.287,-2.984 -4.532,-4.541 -7.079,-3.808 z"
     id="path608" />
  <path
     style="fill:#231f20;fill-opacity:1;fill-rule:nonzero;stroke:none"
     d="m 182.04296,58.499423 c 0.636,0.11 2.302,-0.901 3.89,-1.146 1.074,-0.162 3.38,-1.646 4.459,-1.734 0.995,-0.078 1.443,-0.204 1.541,-1.349 0.068,-0.683 -0.254,-2.032 -0.754,-2.099 -1.183,-0.161 -2.095,0.078 -3.048,0.563 -1.083,0.557 -3.886,2.323 -4.37,2.692 -1.202,0.932 -1.942,0.921 -2.292,1.136 -0.634,0.411 -0.64,0.755 -0.468,1.229 0.323,0.906 1.042,0.708 1.042,0.708"
     id="path609" />
  <path
     style="fill:none;stroke:#231f20;stroke-width:0.565977;stroke-linecap:butt;stroke-linejoin:miter;stroke-miterlimit:4;stroke-dasharray:none;stroke-opacity:1"
     d="m 182.04296,58.499423 c 0.636,0.11 2.302,-0.901 3.89,-1.146 1.074,-0.162 3.38,-1.646 4.459,-1.734 0.995,-0.078 1.443,-0.204 1.541,-1.349 0.068,-0.683 -0.254,-2.032 -0.754,-2.099 -1.183,-0.161 -2.095,0.078 -3.048,0.563 -1.083,0.557 -3.886,2.323 -4.37,2.692 -1.202,0.932 -1.942,0.921 -2.292,1.136 -0.634,0.411 -0.64,0.755 -0.468,1.229 0.323,0.906 1.042,0.708 1.042,0.708 z"
     id="path610" />
  <path
     style="fill:#231f20;fill-opacity:1;fill-rule:nonzero;stroke:none"
     d="m 189.82396,55.291423 c 0.724,1.083 2.183,-0.333 2.625,-0.646 0.438,-0.323 1.802,-1.078 2.938,-1.526 1.14,-0.453 2.369,-1.505 4.53,-2.365 1.136,-0.453 1.954,-1.615 1.224,-3.229 -0.724,-1.604 -1.896,-1.802 -3.186,-1.047 -1.287,0.756 -2.183,2.011 -3.434,2.865 -1.249,0.854 -2.598,1.61 -3.686,2.146 -1.235,0.614 -1.626,1.374 -1.59,1.854 0.068,1.192 0.579,1.948 0.579,1.948"
     id="path611" />
  <path
     style="fill:none;stroke:#231f20;stroke-width:0.565977;stroke-linecap:butt;stroke-linejoin:miter;stroke-miterlimit:4;stroke-dasharray:none;stroke-opacity:1"
     d="m 189.82396,55.291423 c 0.724,1.083 2.183,-0.333 2.625,-0.646 0.438,-0.323 1.802,-1.078 2.938,-1.526 1.14,-0.453 2.369,-1.505 4.53,-2.365 1.136,-0.453 1.954,-1.615 1.224,-3.229 -0.724,-1.604 -1.896,-1.802 -3.186,-1.047 -1.287,0.756 -2.183,2.011 -3.434,2.865 -1.249,0.854 -2.598,1.61 -3.686,2.146 -1.235,0.614 -1.626,1.374 -1.59,1.854 0.068,1.192 0.579,1.948 0.579,1.948 z"
     id="path612" />
  <path
     style="fill:#231f20;fill-opacity:1;fill-rule:nonzero;stroke:none"
     d="m 175.78296,61.093423 c 0.733,0.016 3.806,-1.036 4.5,-1.323 0.62,-0.24 1.77,-0.303 1.844,-1.459 0.046,-0.458 -0.235,-1.161 -0.428,-1.421 -0.156,-0.209 -0.484,-0.183 -0.834,-0.005 -0.593,0.292 -0.656,0.62 -1.76,1.254 0,0 -0.24,0.188 -0.636,0.563 -1.218,1.089 -0.582,0.724 -2.691,1.912 -0.151,0.077 -0.178,0.287 -0.12,0.385 0.109,0.151 0.125,0.094 0.125,0.094"
     id="path613" />
  <path
     style="fill:none;stroke:#231f20;stroke-width:0.565977;stroke-linecap:round;stroke-linejoin:round;stroke-miterlimit:4;stroke-dasharray:none;stroke-opacity:1"
     d="m 175.78296,61.093423 c 0.733,0.016 3.806,-1.036 4.5,-1.323 0.62,-0.24 1.77,-0.303 1.844,-1.459 0.046,-0.458 -0.235,-1.161 -0.428,-1.421 -0.156,-0.209 -0.484,-0.183 -0.834,-0.005 -0.593,0.292 -0.656,0.62 -1.76,1.254 0,0 -0.24,0.188 -0.636,0.563 -1.218,1.089 -0.582,0.724 -2.691,1.912 -0.151,0.077 -0.178,0.287 -0.12,0.385 0.109,0.151 0.125,0.094 0.125,0.094 z"
     id="path614" />
  <path
     style="fill:#231f20;fill-opacity:1;fill-rule:nonzero;stroke:none"
     d="m 232.31896,91.462424 c -1.355,0.079 -1.755,-0.838 -1.464,-1.828 0.089,-0.296 -0.151,-0.64 -0.042,-0.927 0.256,-0.656 1.871,-1.306 2.76,-0.093 0.063,0.082 0.724,0.572 1.163,1.005 0.853,0.864 2.151,3 1.479,5.615 -0.312,1.233 -0.99,0.817 -1.016,0.281 -0.072,-1.709 -0.411,-1.844 -0.604,-2.286 -0.61,-1.506 -2.276,-1.767 -2.276,-1.767"
     id="path615" />
  <path
     style="fill:none;stroke:#231f20;stroke-width:0.332927;stroke-linecap:butt;stroke-linejoin:miter;stroke-miterlimit:4;stroke-dasharray:none;stroke-opacity:1"
     d="m 232.31896,91.462424 c -1.355,0.079 -1.755,-0.838 -1.464,-1.828 0.089,-0.296 -0.151,-0.64 -0.042,-0.927 0.256,-0.656 1.871,-1.306 2.76,-0.093 0.063,0.082 0.724,0.572 1.163,1.005 0.853,0.864 2.151,3 1.479,5.615 -0.312,1.233 -0.99,0.817 -1.016,0.281 -0.072,-1.709 -0.411,-1.844 -0.604,-2.286 -0.61,-1.506 -2.276,-1.767 -2.276,-1.767 z"
     id="path616" />
  <path
     style="fill:#ffffff;fill-opacity:1;fill-rule:nonzero;stroke:none"
     d="m 265.36496,78.562423 c 0.038,-0.245 1.178,-0.38 1.151,-0.907 -0.025,-0.526 -0.796,-0.688 -1.728,-2.448 l -0.011,-0.016 c -0.636,-1.307 -1.718,-2.177 -2.974,-2.218 -2.072,-0.072 -3.839,2.161 -3.927,4.985 -0.093,2.823 1.511,5.166001 3.584,5.233001 1.989,0.068 3.681,-1.979001 3.905,-4.629001"
     id="path617" />
  <path
     style="fill:none;stroke:#231f20;stroke-width:0.565977;stroke-linecap:butt;stroke-linejoin:miter;stroke-miterlimit:4;stroke-dasharray:none;stroke-opacity:1"
     d="m 265.36496,78.562423 c 0.038,-0.245 1.178,-0.38 1.151,-0.907 -0.025,-0.526 -0.796,-0.688 -1.728,-2.448 l -0.011,-0.016 c -0.636,-1.307 -1.718,-2.177 -2.974,-2.218 -2.072,-0.072 -3.839,2.161 -3.927,4.985 -0.093,2.823 1.511,5.166001 3.584,5.233001 1.989,0.068 3.681,-1.979001 3.905,-4.629001 z"
     id="path618" />
  <path
     style="fill:#fab41d;fill-opacity:1;fill-rule:nonzero;stroke:none"
     d="m 260.87096,96.593424 c 0.084,3.13 -0.244,3.811996 -0.583,4.665996 -2.125,5.375 0.552,6.318 3.375,5.719 3.317,-0.697 4.52,-0.88 3.754,-7.129996 -0.213,-1.734 -0.161,-8.51 -0.161,-8.51 0.349,-2.423 -0.609,-4.969 -1.833,-5.756 -1.292,-0.828 -0.844,-0.405 -2.183,-0.953 -1.271,-0.526 -3.432,-0.209 -4.093,0.838 -0.631,1 0.13,2.491 0.942,4.771 0.642,1.803 0.782,6.355 0.782,6.355"
     id="path619" />
  <path
     style="fill:none;stroke:#231f20;stroke-width:0.565977;stroke-linecap:butt;stroke-linejoin:miter;stroke-miterlimit:4;stroke-dasharray:none;stroke-opacity:1"
     d="m 260.87096,96.593424 c 0.084,3.13 -0.244,3.811996 -0.583,4.665996 -2.125,5.375 0.552,6.318 3.375,5.719 3.317,-0.697 4.52,-0.88 3.754,-7.129996 -0.213,-1.734 -0.161,-8.51 -0.161,-8.51 0.349,-2.423 -0.609,-4.969 -1.833,-5.756 -1.292,-0.828 -0.844,-0.405 -2.183,-0.953 -1.271,-0.526 -3.432,-0.209 -4.093,0.838 -0.631,1 0.13,2.491 0.942,4.771 0.642,1.803 0.782,6.355 0.782,6.355 z"
     id="path620" />
  <path
     style="fill:#231f20;fill-opacity:1;fill-rule:nonzero;stroke:none"
     d="m 252.62096,68.577423 c 0.578,0.292 1.323,2.089 2.468,3.224 0.771,0.761 1.751,3.328 2.579,4.031 0.755,0.646 1.036,1.017 0.443,2.006 -0.35,0.588 -1.402,1.489 -1.85,1.244 -1.046,-0.557 -1.64,-1.301 -2.125,-2.255 -0.541,-1.089 -1.765,-4.166 -1.937,-4.75 -0.427,-1.469 -1.026,-1.895 -1.172,-2.271 -0.282,-0.708 -0.083,-0.989 0.338,-1.271 0.792,-0.536 1.256,0.042 1.256,0.042"
     id="path621" />
  <path
     style="fill:none;stroke:#231f20;stroke-width:0.565977;stroke-linecap:butt;stroke-linejoin:miter;stroke-miterlimit:4;stroke-dasharray:none;stroke-opacity:1"
     d="m 252.62096,68.577423 c 0.578,0.292 1.323,2.089 2.468,3.224 0.771,0.761 1.751,3.328 2.579,4.031 0.755,0.646 1.036,1.017 0.443,2.006 -0.35,0.588 -1.402,1.489 -1.85,1.244 -1.046,-0.557 -1.64,-1.301 -2.125,-2.255 -0.541,-1.089 -1.765,-4.166 -1.937,-4.75 -0.427,-1.469 -1.026,-1.895 -1.172,-2.271 -0.282,-0.708 -0.083,-0.989 0.338,-1.271 0.792,-0.536 1.256,0.042 1.256,0.042 z"
     id="path622" />
  <path
     style="fill:#231f20;fill-opacity:1;fill-rule:nonzero;stroke:none"
     d="m 257.25596,76.363423 c 1.177,-0.531 1.667,1.443 1.875,1.943 0.209,0.5 0.969,1.86 1.693,2.844 0.724,0.989 1.213,2.527001 2.588,4.401001 0.729,0.99 0.808,2.407 -0.667,3.391 -1.457,0.978 -2.562,0.53 -3.254,-0.797 -0.698,-1.323 -0.792,-2.864 -1.402,-4.244 -0.604,-1.386 -1.353,-2.735001 -1.994,-3.772001 -0.724,-1.176 -0.646,-2.026 -0.37,-2.416 0.692,-0.975 1.531,-1.35 1.531,-1.35"
     id="path623" />
  <path
     style="fill:none;stroke:#231f20;stroke-width:0.565977;stroke-linecap:butt;stroke-linejoin:miter;stroke-miterlimit:4;stroke-dasharray:none;stroke-opacity:1"
     d="m 257.25596,76.363423 c 1.177,-0.531 1.667,1.443 1.875,1.943 0.209,0.5 0.969,1.86 1.693,2.844 0.724,0.989 1.213,2.527001 2.588,4.401001 0.729,0.99 0.808,2.407 -0.667,3.391 -1.457,0.978 -2.562,0.53 -3.254,-0.797 -0.698,-1.323 -0.792,-2.864 -1.402,-4.244 -0.604,-1.386 -1.353,-2.735001 -1.994,-3.772001 -0.724,-1.176 -0.646,-2.026 -0.37,-2.416 0.692,-0.975 1.531,-1.35 1.531,-1.35 z"
     id="path624" />
  <path
     style="fill:#231f20;fill-opacity:1;fill-rule:nonzero;stroke:none"
     d="m 249.15196,62.557423 c 0.557,0.462 2.199,3.265 2.547,3.926 0.318,0.588 1.15,1.386 0.458,2.318 -0.276,0.37 -0.942,0.724 -1.254,0.792 -0.251,0.062 -0.491,-0.167 -0.647,-0.536 -0.255,-0.615 -0.088,-0.886 -0.511,-2.095 0,0 -0.057,-0.301 -0.129,-0.843 -0.209,-1.62 0.036,-0.928 -0.792,-3.198 -0.057,-0.167 0.063,-0.344 0.177,-0.375 0.172,-0.047 0.151,0.011 0.151,0.011"
     id="path625" />
  <path
     style="fill:none;stroke:#231f20;stroke-width:0.565977;stroke-linecap:round;stroke-linejoin:round;stroke-miterlimit:4;stroke-dasharray:none;stroke-opacity:1"
     d="m 249.15196,62.557423 c 0.557,0.462 2.199,3.265 2.547,3.926 0.318,0.588 1.15,1.386 0.458,2.318 -0.276,0.37 -0.942,0.724 -1.254,0.792 -0.251,0.062 -0.491,-0.167 -0.647,-0.536 -0.255,-0.615 -0.088,-0.886 -0.511,-2.095 0,0 -0.057,-0.301 -0.129,-0.843 -0.209,-1.62 0.036,-0.928 -0.792,-3.198 -0.057,-0.167 0.063,-0.344 0.177,-0.375 0.172,-0.047 0.151,0.011 0.151,0.011 z"
     id="path626" />
  <path
     style="fill:#231f20;fill-opacity:1;fill-rule:nonzero;stroke:none"
     d="m 263.30296,122.29542 c -2.23,-0.394 -2.719,-0.171 -2.948,0.756 -0.151,0.62 -0.51,1.14 -0.619,1.516 -0.371,1.244 -0.485,3.484 0.859,9.932 0.308,1.459 0.724,3.515 0.822,4.364 0.162,1.349 2.292,0.167 2.235,-0.358 -0.183,-1.705 -0.177,-2.897 -0.161,-3.517 0.016,-0.426 -0.068,-1.188 0.193,-2.833 0.395,-2.495 1,-3.932 1.088,-6.041 0.036,-0.98 0.688,-1.699 0.24,-2.683 -0.453,-0.984 -1.709,-1.136 -1.709,-1.136"
     id="path627" />
  <path
     style="fill:none;stroke:#231f20;stroke-width:0.565977;stroke-linecap:butt;stroke-linejoin:miter;stroke-miterlimit:4;stroke-dasharray:none;stroke-opacity:1"
     d="m 263.30296,122.29542 c -2.23,-0.394 -2.719,-0.171 -2.948,0.756 -0.151,0.62 -0.51,1.14 -0.619,1.516 -0.371,1.244 -0.485,3.484 0.859,9.932 0.308,1.459 0.724,3.515 0.822,4.364 0.162,1.349 2.292,0.167 2.235,-0.358 -0.183,-1.705 -0.177,-2.897 -0.161,-3.517 0.016,-0.426 -0.068,-1.188 0.193,-2.833 0.395,-2.495 1,-3.932 1.088,-6.041 0.036,-0.98 0.688,-1.699 0.24,-2.683 -0.453,-0.984 -1.709,-1.136 -1.709,-1.136 z"
     id="path628" />
  <path
     style="fill:#231f20;fill-opacity:1;fill-rule:nonzero;stroke:#231f20;stroke-width:0.565977;stroke-linecap:round;stroke-linejoin:miter;stroke-miterlimit:4;stroke-dasharray:none;stroke-opacity:1"
     d="m 264.75096,124.32242 c 1.026,-0.869 0.666,-2.86 0.75,-3.178 1.323,-4.833 1.292,-5.218 2.036,-8.967 1.079,-5.418 0.99,-9.298 -1.984,-10.844 -2.016,-1.052 -3.63,-0.782 -4.625,0.077 -1.104,0.959 -2.281,3.907 -0.583,6.245 l 0.124,1.708 c -0.062,1.161 -0.082,1.735 -0.161,2.308 -0.135,0.995 -0.208,2.067 -0.364,4.015 -0.271,3.458 0.577,7.209 0.577,7.209 -0.014,0.312 0.09,0.572 0.256,0.786"
     id="path629" />
  <path
     style="fill:#fab41d;fill-opacity:1;fill-rule:nonzero;stroke:none"
     d="m 267.93296,104.67742 c -0.338,-1.517 -1.073,-2.663 -2.38,-3.344 -2.016,-1.052 -3.63,-0.782 -4.625,0.077 -1.104,0.959 -2.281,3.907 -0.583,6.245 l 7.703,1.317 c 0.073,-0.655 0.099,-1.265 0.109,-1.848 0.026,-0.078 0.052,-0.152 0.088,-0.214 0.376,-0.714 0.131,-1.291 -0.312,-2.233"
     id="path630" />
  <path
     style="fill:none;stroke:#231f20;stroke-width:0.565977;stroke-linecap:round;stroke-linejoin:round;stroke-miterlimit:4;stroke-dasharray:none;stroke-opacity:1"
     d="m 267.93296,104.67742 c -0.338,-1.517 -1.073,-2.663 -2.38,-3.344 -2.016,-1.052 -3.63,-0.782 -4.625,0.077 -1.104,0.959 -2.281,3.907 -0.583,6.245 l 7.703,1.317 c 0.073,-0.655 0.099,-1.265 0.109,-1.848 0.026,-0.078 0.052,-0.152 0.088,-0.214 0.376,-0.714 0.131,-1.291 -0.312,-2.233 z"
     id="path631" />
  <path
     style="fill:#231f20;fill-opacity:1;fill-rule:nonzero;stroke:none"
     d="m 261.69896,142.09842 c -1.083,-0.058 -0.823,-1.287 -0.583,-2.49 0.063,-0.302 0.088,-0.589 0.172,-0.88 0.339,-1.177 1.161,-1.833 3.109,0.438 0.072,0.082 1.911,1.27 2.484,1.515 2.74,1.171 2.968,0.359 2.74,1.171 -0.146,0.538 -0.657,0.548 -1.281,0.543 -0.855,-0.005 -3.871,-0.276 -4.333,-0.292 -0.448,-0.01 -2.308,-0.005 -2.308,-0.005"
     id="path632" />
  <path
     style="fill:none;stroke:#231f20;stroke-width:0.565977;stroke-linecap:butt;stroke-linejoin:miter;stroke-miterlimit:4;stroke-dasharray:none;stroke-opacity:1"
     d="m 261.69896,142.09842 c -1.083,-0.058 -0.823,-1.287 -0.583,-2.49 0.063,-0.302 0.088,-0.589 0.172,-0.88 0.339,-1.177 1.161,-1.833 3.109,0.438 0.072,0.082 1.911,1.27 2.484,1.515 2.74,1.171 2.968,0.359 2.74,1.171 -0.146,0.538 -0.657,0.548 -1.281,0.543 -0.855,-0.005 -3.871,-0.276 -4.333,-0.292 -0.448,-0.01 -2.308,-0.005 -2.308,-0.005 z"
     id="path633" />
  <path
     style="fill:#ffffff;fill-opacity:1;fill-rule:nonzero;stroke:none"
     d="m 21.198964,81.103423 c 0.136,-0.202 1.23,0.156 1.428,-0.333 0.198,-0.479 -0.428,-0.958 -0.526,-2.948 l -0.006,-0.016 c -0.016,-1.459 -0.63,-2.703 -1.744,-3.281 -1.844,-0.943 -4.39,0.324 -5.677,2.838 -1.287,2.516 -0.828,5.318001 1.015,6.266001 1.772,0.906 4.177,-0.219 5.51,-2.526001"
     id="path635" />
  <path
     style="fill:none;stroke:#231f20;stroke-width:0.565977;stroke-linecap:butt;stroke-linejoin:miter;stroke-miterlimit:4;stroke-dasharray:none;stroke-opacity:1"
     d="m 21.198964,81.103423 c 0.136,-0.202 1.23,0.156 1.428,-0.333 0.198,-0.479 -0.428,-0.958 -0.526,-2.948 l -0.006,-0.016 c -0.016,-1.459 -0.63,-2.703 -1.744,-3.281 -1.844,-0.943 -4.39,0.324 -5.677,2.838 -1.287,2.516 -0.828,5.318001 1.015,6.266001 1.772,0.906 4.177,-0.219 5.51,-2.526001 z"
     id="path636" />
  <path
     style="fill:#fab41d;fill-opacity:1;fill-rule:nonzero;stroke:none"
     d="m 8.5849641,95.000424 c -1.5,2.748 -2.13,3.177 -2.854,3.743 -4.542,3.567996 -2.709,5.728996 0.031,6.640996 3.219,1.069 4.3549999,1.517 6.8439999,-4.27 0.688,-1.608996 4.145,-7.432996 4.145,-7.432996 1.522,-1.922 1.98,-4.599 1.314,-5.895 -0.694,-1.366 -0.516,-0.772 -1.396,-1.917 -0.839,-1.099 -2.866,-1.916 -3.959,-1.345 -1.052,0.547 -1.145,2.214 -1.593,4.6 -0.35,1.876 -2.5319999,5.876 -2.5319999,5.876"
     id="path637" />
  <path
     style="fill:none;stroke:#231f20;stroke-width:0.565977;stroke-linecap:butt;stroke-linejoin:miter;stroke-miterlimit:4;stroke-dasharray:none;stroke-opacity:1"
     d="m 8.5849641,95.000424 c -1.5,2.748 -2.13,3.177 -2.854,3.743 -4.542,3.567996 -2.709,5.728996 0.031,6.640996 3.219,1.069 4.3549999,1.517 6.8439999,-4.27 0.688,-1.608996 4.145,-7.432996 4.145,-7.432996 1.522,-1.922 1.98,-4.599 1.314,-5.895 -0.694,-1.366 -0.516,-0.772 -1.396,-1.917 -0.839,-1.099 -2.866,-1.916 -3.959,-1.345 -1.052,0.547 -1.145,2.214 -1.593,4.6 -0.35,1.876 -2.5319999,5.876 -2.5319999,5.876 z"
     id="path638" />
  <path
     style="fill:#231f20;fill-opacity:1;fill-rule:nonzero;stroke:none"
     d="m 35.402964,84.139424 c -0.458,0.454 -2.401,0.584 -3.844,1.297 -0.974,0.484 -3.713,0.588 -4.652,1.146 -0.853,0.505 -1.29,0.656 -2.041,-0.224 -0.443,-0.52 -0.953,-1.812 -0.577,-2.162 0.869,-0.806 1.76,-1.129 2.817,-1.281 1.203,-0.161 4.511,-0.328 5.125,-0.301 1.52,0.067 2.12,-0.360001 2.52,-0.385001 0.766,-0.033 0.964,0.243001 1.099,0.733001 0.245,0.928 -0.447,1.177 -0.447,1.177"
     id="path639" />
  <path
     style="fill:none;stroke:#231f20;stroke-width:0.565977;stroke-linecap:butt;stroke-linejoin:miter;stroke-miterlimit:4;stroke-dasharray:none;stroke-opacity:1"
     d="m 35.402964,84.139424 c -0.458,0.454 -2.401,0.584 -3.844,1.297 -0.974,0.484 -3.713,0.588 -4.652,1.146 -0.853,0.505 -1.29,0.656 -2.041,-0.224 -0.443,-0.52 -0.953,-1.812 -0.577,-2.162 0.869,-0.806 1.76,-1.129 2.817,-1.281 1.203,-0.161 4.511,-0.328 5.125,-0.301 1.52,0.067 2.12,-0.360001 2.52,-0.385001 0.766,-0.033 0.964,0.243001 1.099,0.733001 0.245,0.928 -0.447,1.177 -0.447,1.177 z"
     id="path640" />
  <path
     style="fill:#231f20;fill-opacity:1;fill-rule:nonzero;stroke:none"
     d="m 26.537964,86.019424 c 0.131,1.282 -1.901,1.115 -2.443,1.152 -0.541,0.036 -2.073,0.312 -3.234,0.682 -1.172,0.37 -2.787,0.338 -5.006,1.037 -1.166,0.369 -2.536,-0.011 -2.994,-1.73 -0.454,-1.693 0.328,-2.589 1.802,-2.822 1.479,-0.23 2.964,0.177 4.474,0.046 1.505,-0.13 3.026,-0.401 4.214,-0.677 1.343,-0.306 2.124,0.041 2.406,0.427 0.698,0.974 0.781,1.885 0.781,1.885"
     id="path641" />
  <path
     style="fill:none;stroke:#231f20;stroke-width:0.565977;stroke-linecap:butt;stroke-linejoin:miter;stroke-miterlimit:4;stroke-dasharray:none;stroke-opacity:1"
     d="m 26.537964,86.019424 c 0.131,1.282 -1.901,1.115 -2.443,1.152 -0.541,0.036 -2.073,0.312 -3.234,0.682 -1.172,0.37 -2.787,0.338 -5.006,1.037 -1.166,0.369 -2.536,-0.011 -2.994,-1.73 -0.454,-1.693 0.328,-2.589 1.802,-2.822 1.479,-0.23 2.964,0.177 4.474,0.046 1.505,-0.13 3.026,-0.401 4.214,-0.677 1.343,-0.306 2.124,0.041 2.406,0.427 0.698,0.974 0.781,1.885 0.781,1.885 z"
     id="path642" />
  <path
     style="fill:#231f20;fill-opacity:1;fill-rule:nonzero;stroke:none"
     d="m 42.220964,82.795424 c -0.62,0.376 -3.803,1.032 -4.536,1.147 -0.658,0.109 -1.688,0.64 -2.339,-0.308 -0.267,-0.386 -0.385,-1.135 -0.349,-1.448001 0.025,-0.255 0.317,-0.411 0.713,-0.438 0.667,-0.041 0.869,0.199 2.151,0.194 0,0 0.302,0.036 0.838,0.145 1.599,0.328001 0.866,0.333001 3.287,0.282001 0.172,-0.006 0.303,0.166 0.292,0.286 -0.011,0.172 -0.057,0.14 -0.057,0.14"
     id="path643" />
  <path
     style="fill:none;stroke:#231f20;stroke-width:0.565977;stroke-linecap:round;stroke-linejoin:round;stroke-miterlimit:4;stroke-dasharray:none;stroke-opacity:1"
     d="m 42.220964,82.795424 c -0.62,0.376 -3.803,1.032 -4.536,1.147 -0.658,0.109 -1.688,0.64 -2.339,-0.308 -0.267,-0.386 -0.385,-1.135 -0.349,-1.448001 0.025,-0.255 0.317,-0.411 0.713,-0.438 0.667,-0.041 0.869,0.199 2.151,0.194 0,0 0.302,0.036 0.838,0.145 1.599,0.328001 0.866,0.333001 3.287,0.282001 0.172,-0.006 0.303,0.166 0.292,0.286 -0.011,0.172 -0.057,0.14 -0.057,0.14 z"
     id="path644" />
  <path
     style="fill:#231f20;fill-opacity:1;fill-rule:nonzero;stroke:none"
     d="m 8.6419641,120.79142 c -2.015,-1.026 -2.547,-0.958 -3.041,-0.136 -0.323,0.547 -0.818,0.943 -1.031,1.265 -0.724,1.079 -1.485,3.188 -2.089,9.746 -0.135,1.489 -0.344,3.572 -0.495,4.416 -0.24,1.338 2.141,0.833 2.24,0.313 0.328,-1.688 0.681,-2.824 0.88,-3.406 0.135,-0.407 0.281,-1.162 1.011,-2.651 1.109,-2.271 2.109,-3.469 2.806,-5.469 0.328,-0.922 1.1619999,-1.416 1.022,-2.485 -0.147,-1.078 -1.303,-1.593 -1.303,-1.593"
     id="path645" />
  <path
     style="fill:none;stroke:#231f20;stroke-width:0.565977;stroke-linecap:butt;stroke-linejoin:miter;stroke-miterlimit:4;stroke-dasharray:none;stroke-opacity:1"
     d="m 8.6419641,120.79142 c -2.015,-1.026 -2.547,-0.958 -3.041,-0.136 -0.323,0.547 -0.818,0.943 -1.031,1.265 -0.724,1.079 -1.485,3.188 -2.089,9.746 -0.135,1.489 -0.344,3.572 -0.495,4.416 -0.24,1.338 2.141,0.833 2.24,0.313 0.328,-1.688 0.681,-2.824 0.88,-3.406 0.135,-0.407 0.281,-1.162 1.011,-2.651 1.109,-2.271 2.109,-3.469 2.806,-5.469 0.328,-0.922 1.1619999,-1.416 1.022,-2.485 -0.147,-1.078 -1.303,-1.593 -1.303,-1.593 z"
     id="path646" />
  <path
     style="fill:#231f20;fill-opacity:1;fill-rule:nonzero;stroke:#231f20;stroke-width:0.565977;stroke-linecap:round;stroke-linejoin:miter;stroke-miterlimit:4;stroke-dasharray:none;stroke-opacity:1"
     d="m 9.4339641,123.15542 c 0.9589999,-0.943 0.459,-2.907 0.521,-3.224 0.9679999,-4.912 0.9109999,-5.297 1.3859999,-9.083 0.686,-5.485 0.317,-9.348 -2.7559999,-10.682 -2.088,-0.900996 -3.678,-0.521996 -4.615,0.411 -1.031,1.031 -1.989,4.062 -0.124,6.271 l 0.244,1.693 c 0.021,1.166 0.041,1.74 0.005,2.317 -0.068,0.995 -0.068,2.073 -0.077,4.032 -0.021,3.468 1.093,7.145 1.093,7.145 0.011,0.318 0.13,0.568 0.312,0.766"
     id="path647" />
  <path
     style="fill:#fab41d;fill-opacity:1;fill-rule:nonzero;stroke:none"
     d="m 11.198964,103.33342 c -0.448,-1.485 -1.2599999,-2.579 -2.6139999,-3.167 -2.088,-0.900996 -3.682,-0.521996 -4.61,0.411 -1.036,1.031 -1.994,4.062 -0.129,6.271 l 7.7709999,0.76 c 0.025,-0.655 0.01,-1.265 -0.022,-1.854 0.022,-0.077 0.042,-0.151 0.074,-0.219 0.322,-0.734 0.041,-1.297 -0.47,-2.202"
     id="path648" />
  <path
     style="fill:none;stroke:#231f20;stroke-width:0.565977;stroke-linecap:round;stroke-linejoin:round;stroke-miterlimit:4;stroke-dasharray:none;stroke-opacity:1"
     d="m 11.198964,103.33342 c -0.448,-1.485 -1.2599999,-2.579 -2.6139999,-3.167 -2.088,-0.900996 -3.682,-0.521996 -4.61,0.411 -1.036,1.031 -1.994,4.062 -0.129,6.271 l 7.7709999,0.76 c 0.025,-0.655 0.01,-1.265 -0.022,-1.854 0.022,-0.077 0.042,-0.151 0.074,-0.219 0.322,-0.734 0.041,-1.297 -0.47,-2.202 z"
     id="path649" />
  <path
     style="fill:#231f20;fill-opacity:1;fill-rule:nonzero;stroke:none"
     d="m 0.66896415,138.78642 c -0.902,-0.604 -0.047,-1.527 0.77599995,-2.439 0.202,-0.228 0.38,-0.463 0.598,-0.671 0.896,-0.833 1.927,-0.985 2.448,1.968 0.016,0.11 0.99,2.068 1.355,2.574 1.76,2.41 2.369,1.828 1.76,2.41 -0.407,0.386 -0.844,0.131 -1.385,-0.192 -0.73,-0.442 -3.178,-2.218 -3.574,-2.464 -0.38,-0.244 -1.97799995,-1.186 -1.97799995,-1.186"
     id="path650" />
  <path
     style="fill:none;stroke:#231f20;stroke-width:0.565977;stroke-linecap:butt;stroke-linejoin:miter;stroke-miterlimit:4;stroke-dasharray:none;stroke-opacity:1"
     d="m 0.66896415,138.78642 c -0.902,-0.604 -0.047,-1.527 0.77599995,-2.439 0.202,-0.228 0.38,-0.463 0.598,-0.671 0.896,-0.833 1.927,-0.985 2.448,1.968 0.016,0.11 0.99,2.068 1.355,2.574 1.76,2.41 2.369,1.828 1.76,2.41 -0.407,0.386 -0.844,0.131 -1.385,-0.192 -0.73,-0.442 -3.178,-2.218 -3.574,-2.464 -0.38,-0.244 -1.97799995,-1.186 -1.97799995,-1.186 z"
     id="path652" />
  <path
     style="fill:none;stroke:#231f20;stroke-width:0.49806;stroke-linecap:butt;stroke-linejoin:miter;stroke-miterlimit:4;stroke-dasharray:none;stroke-opacity:1"
     d="m 118.09496,19.806423 c 15.677,-9.339 34.093,-5.875 34.093,-5.875"
     id="path654" />
  <path
     style="fill:#231f20;fill-opacity:1;fill-rule:nonzero;stroke:none"
     d="m 153.66796,14.207423 c -0.745,0.131 -1.693,0.407 -2.313,0.771 l 0.641,-1.083 -0.202,-1.245 c 0.446,0.568 1.228,1.172 1.874,1.557"
     id="path655" />
</svg>
