<?xml version="1.0" encoding="UTF-8" standalone="no"?>
<!-- Created with Inkscape (http://www.inkscape.org/) -->

<svg
   version="1.1"
   id="svg1"
   width="288.03003"
   height="121.88184"
   viewBox="0 0 288.03002 121.88184"
   sodipodi:docname="cell.svg"
   xmlns:inkscape="http://www.inkscape.org/namespaces/inkscape"
   xmlns:sodipodi="http://sodipodi.sourceforge.net/DTD/sodipodi-0.dtd"
   xmlns="http://www.w3.org/2000/svg"
   xmlns:svg="http://www.w3.org/2000/svg">
  <sodipodi:namedview
     id="namedview1"
     pagecolor="#ffffff"
     bordercolor="#000000"
     borderopacity="0.25"
     inkscape:showpageshadow="2"
     inkscape:pageopacity="0.0"
     inkscape:pagecheckerboard="0"
     inkscape:deskcolor="#d1d1d1">
    <inkscape:page
       x="0"
       y="0"
       inkscape:label="1"
       id="page1"
       width="288.03003"
       height="121.88184"
       margin="0"
       bleed="0" />
  </sodipodi:namedview>
  <defs
     id="defs1" />
  <path
     style="fill:#231f20;fill-opacity:1;fill-rule:nonzero;stroke:none"
     d="m 171.56232,35.129652 c -0.647,-0.359 -2.761,-2.828 -3.213,-3.411 -0.412,-0.527 -1.371,-1.161 -0.844,-2.199 0.186,-0.421 0.786,-0.885 1.077,-1.005 0.24,-0.104 0.516,0.084 0.719,0.417 0.37,0.552 0.261,0.864 0.89,1.968 0,0 0.11,0.287 0.262,0.814 0.5,1.552 0.134,0.91 1.348,3.01 0.094,0.146 0.005,0.334 -0.094,0.391 -0.166,0.077 -0.145,0.015 -0.145,0.015"
     id="path777" />
  <path
     style="fill:none;stroke:#231f20;stroke-width:0.565977;stroke-linecap:round;stroke-linejoin:round;stroke-miterlimit:4;stroke-dasharray:none;stroke-opacity:1"
     d="m 171.56232,35.129652 c -0.647,-0.359 -2.761,-2.828 -3.213,-3.411 -0.412,-0.527 -1.371,-1.161 -0.844,-2.199 0.186,-0.421 0.786,-0.885 1.077,-1.005 0.24,-0.104 0.516,0.084 0.719,0.417 0.37,0.552 0.261,0.864 0.89,1.968 0,0 0.11,0.287 0.262,0.814 0.5,1.552 0.134,0.91 1.348,3.01 0.094,0.146 0.005,0.334 -0.094,0.391 -0.166,0.077 -0.145,0.015 -0.145,0.015 z"
     id="path778" />
  <path
     style="fill:#231f20;fill-opacity:1;fill-rule:nonzero;stroke:none"
     d="m 167.17132,29.781652 c -0.5,-0.412 -0.833,-2.328 -1.698,-3.683 -0.583,-0.923 -0.984,-3.636 -1.63,-4.505 -0.589,-0.798 -0.786,-1.219 0,-2.058 0.474,-0.489 1.698,-1.136 2.088,-0.802 0.891,0.776 1.312,1.63 1.579,2.666 0.291,1.183 0.801,4.454 0.843,5.063 0.094,1.521 0.589,2.068 0.657,2.469 0.115,0.755 -0.147,0.984 -0.615,1.162 -0.901,0.349 -1.224,-0.312 -1.224,-0.312"
     id="path779" />
  <path
     style="fill:none;stroke:#231f20;stroke-width:0.565977;stroke-linecap:butt;stroke-linejoin:miter;stroke-miterlimit:4;stroke-dasharray:none;stroke-opacity:1"
     d="m 167.17132,29.781652 c -0.5,-0.412 -0.833,-2.328 -1.698,-3.683 -0.583,-0.923 -0.984,-3.636 -1.63,-4.505 -0.589,-0.798 -0.786,-1.219 0,-2.058 0.474,-0.489 1.698,-1.136 2.088,-0.802 0.891,0.776 1.312,1.63 1.579,2.666 0.291,1.183 0.801,4.454 0.843,5.063 0.094,1.521 0.589,2.068 0.657,2.469 0.115,0.755 -0.147,0.984 -0.615,1.162 -0.901,0.349 -1.224,-0.312 -1.224,-0.312 z"
     id="path780" />
  <path
     style="fill:#231f20;fill-opacity:1;fill-rule:nonzero;stroke:none"
     d="m 166.83832,20.686652 c 0.864,0.964 -0.88,2.021 -1.303,2.365 -0.416,0.348 -1.489,1.474 -2.213,2.458 -0.729,0.99 -2.057,1.906 -3.443,3.776 -0.724,0.985 -2.046,1.485 -3.432,0.365 -1.365,-1.104 -1.261,-2.281 -0.204,-3.344 1.063,-1.057 2.506,-1.599 3.647,-2.593 1.145,-0.99 2.213,-2.104 3.011,-3.016 0.91,-1.052 1.744,-1.219 2.202,-1.074 1.14,0.371 1.735,1.063 1.735,1.063"
     id="path781" />
  <path
     style="fill:none;stroke:#231f20;stroke-width:0.565977;stroke-linecap:butt;stroke-linejoin:miter;stroke-miterlimit:4;stroke-dasharray:none;stroke-opacity:1"
     d="m 166.83832,20.686652 c 0.864,0.964 -0.88,2.021 -1.303,2.365 -0.416,0.348 -1.489,1.474 -2.213,2.458 -0.729,0.99 -2.057,1.906 -3.443,3.776 -0.724,0.985 -2.046,1.485 -3.432,0.365 -1.365,-1.104 -1.261,-2.281 -0.204,-3.344 1.063,-1.057 2.506,-1.599 3.647,-2.593 1.145,-0.99 2.213,-2.104 3.011,-3.016 0.91,-1.052 1.744,-1.219 2.202,-1.074 1.14,0.371 1.735,1.063 1.735,1.063 z"
     id="path782" />
  <path
     style="fill:#ffffff;fill-opacity:1;fill-rule:nonzero;stroke:none"
     d="m 271.19132,57.618652 c -0.04,-0.239 -1.18,-0.38 -1.15,-0.9 0.03,-0.527 0.8,-0.688 1.73,-2.448 l 0.01,-0.016 c 0.64,-1.312 1.72,-2.183 2.97,-2.219 2.08,-0.073 3.84,2.156 3.93,4.979 0.1,2.828 -1.51,5.167001 -3.58,5.240001 -1.99,0.068 -3.69,-1.979001 -3.91,-4.636001"
     id="path783" />
  <path
     style="fill:none;stroke:#231f20;stroke-width:0.565977;stroke-linecap:butt;stroke-linejoin:miter;stroke-miterlimit:4;stroke-dasharray:none;stroke-opacity:1"
     d="m 271.19132,57.618652 c -0.04,-0.239 -1.18,-0.38 -1.15,-0.9 0.03,-0.527 0.8,-0.688 1.73,-2.448 l 0.01,-0.016 c 0.64,-1.312 1.72,-2.183 2.97,-2.219 2.08,-0.073 3.84,2.156 3.93,4.979 0.1,2.828 -1.51,5.167001 -3.58,5.240001 -1.99,0.068 -3.69,-1.979001 -3.91,-4.636001 z"
     id="path784" />
  <path
     style="fill:#fab41d;fill-opacity:1;fill-rule:nonzero;stroke:none"
     d="m 275.68132,75.650653 c -0.08,3.136 0.25,3.817 0.59,4.672 2.12,5.375 -0.55,6.317 -3.38,5.718 -3.31,-0.702 -4.52,-0.879 -3.75,-7.135 0.21,-1.734 0.16,-8.506 0.16,-8.506 -0.35,-2.426 0.61,-4.968 1.83,-5.76 1.3,-0.823 0.85,-0.401 2.19,-0.953 1.27,-0.52 3.43,-0.208 4.09,0.838 0.63,1.006 -0.13,2.495 -0.94,4.776 -0.64,1.804 -0.79,6.35 -0.79,6.35"
     id="path785" />
  <path
     style="fill:none;stroke:#231f20;stroke-width:0.565977;stroke-linecap:butt;stroke-linejoin:miter;stroke-miterlimit:4;stroke-dasharray:none;stroke-opacity:1"
     d="m 275.68132,75.650653 c -0.08,3.136 0.25,3.817 0.59,4.672 2.12,5.375 -0.55,6.317 -3.38,5.718 -3.31,-0.702 -4.52,-0.879 -3.75,-7.135 0.21,-1.734 0.16,-8.506 0.16,-8.506 -0.35,-2.426 0.61,-4.968 1.83,-5.76 1.3,-0.823 0.85,-0.401 2.19,-0.953 1.27,-0.52 3.43,-0.208 4.09,0.838 0.63,1.006 -0.13,2.495 -0.94,4.776 -0.64,1.804 -0.79,6.35 -0.79,6.35 z"
     id="path786" />
  <path
     style="fill:#231f20;fill-opacity:1;fill-rule:nonzero;stroke:none"
     d="m 283.94132,47.639652 c -0.58,0.287 -1.33,2.084 -2.47,3.224 -0.77,0.76 -1.75,3.323 -2.58,4.027 -0.76,0.645 -1.04,1.02 -0.45,2.009 0.35,0.584 1.41,1.486 1.85,1.246 1.06,-0.563 1.65,-1.307 2.13,-2.26 0.54,-1.085 1.76,-4.162 1.93,-4.751 0.43,-1.463 1.03,-1.891 1.18,-2.271 0.28,-0.702 0.08,-0.984 -0.33,-1.265 -0.8,-0.536 -1.26,0.041 -1.26,0.041"
     id="path787" />
  <path
     style="fill:none;stroke:#231f20;stroke-width:0.565977;stroke-linecap:butt;stroke-linejoin:miter;stroke-miterlimit:4;stroke-dasharray:none;stroke-opacity:1"
     d="m 283.94132,47.639652 c -0.58,0.287 -1.33,2.084 -2.47,3.224 -0.77,0.76 -1.75,3.323 -2.58,4.027 -0.76,0.645 -1.04,1.02 -0.45,2.009 0.35,0.584 1.41,1.486 1.85,1.246 1.06,-0.563 1.65,-1.307 2.13,-2.26 0.54,-1.085 1.76,-4.162 1.93,-4.751 0.43,-1.463 1.03,-1.891 1.18,-2.271 0.28,-0.702 0.08,-0.984 -0.33,-1.265 -0.8,-0.536 -1.26,0.041 -1.26,0.041 z"
     id="path788" />
  <path
     style="fill:#231f20;fill-opacity:1;fill-rule:nonzero;stroke:none"
     d="m 279.30132,55.426652 c -1.18,-0.531 -1.67,1.443 -1.88,1.943 -0.2,0.5 -0.96,1.859 -1.69,2.843 -0.72,0.985001 -1.21,2.526001 -2.59,4.397001 -0.72,0.989 -0.8,2.405 0.67,3.396 1.46,0.978 2.56,0.525 3.26,-0.798 0.69,-1.322 0.79,-2.865 1.4,-4.245 0.61,-1.391 1.35,-2.739001 1.99,-3.771001 0.72,-1.182 0.65,-2.03 0.37,-2.421 -0.69,-0.975 -1.53,-1.344 -1.53,-1.344"
     id="path789" />
  <path
     style="fill:none;stroke:#231f20;stroke-width:0.565977;stroke-linecap:butt;stroke-linejoin:miter;stroke-miterlimit:4;stroke-dasharray:none;stroke-opacity:1"
     d="m 279.30132,55.426652 c -1.18,-0.531 -1.67,1.443 -1.88,1.943 -0.2,0.5 -0.96,1.859 -1.69,2.843 -0.72,0.985001 -1.21,2.526001 -2.59,4.397001 -0.72,0.989 -0.8,2.405 0.67,3.396 1.46,0.978 2.56,0.525 3.26,-0.798 0.69,-1.322 0.79,-2.865 1.4,-4.245 0.61,-1.391 1.35,-2.739001 1.99,-3.771001 0.72,-1.182 0.65,-2.03 0.37,-2.421 -0.69,-0.975 -1.53,-1.344 -1.53,-1.344 z"
     id="path790" />
  <path
     style="fill:#231f20;fill-opacity:1;fill-rule:nonzero;stroke:none"
     d="m 287.40132,41.618652 c -0.55,0.464 -2.2,3.267 -2.55,3.928 -0.31,0.583 -1.14,1.385 -0.46,2.317 0.29,0.37 0.95,0.719 1.26,0.792 0.25,0.057 0.49,-0.167 0.65,-0.536 0.25,-0.614 0.09,-0.89 0.51,-2.095 0,0 0.06,-0.301 0.13,-0.849 0.2,-1.618 -0.04,-0.921 0.79,-3.197 0.06,-0.167 -0.06,-0.339 -0.17,-0.369 -0.18,-0.047 -0.16,0.009 -0.16,0.009"
     id="path791" />
  <path
     style="fill:none;stroke:#231f20;stroke-width:0.565977;stroke-linecap:round;stroke-linejoin:round;stroke-miterlimit:4;stroke-dasharray:none;stroke-opacity:1"
     d="m 287.40132,41.618652 c -0.55,0.464 -2.2,3.267 -2.55,3.928 -0.31,0.583 -1.14,1.385 -0.46,2.317 0.29,0.37 0.95,0.719 1.26,0.792 0.25,0.057 0.49,-0.167 0.65,-0.536 0.25,-0.614 0.09,-0.89 0.51,-2.095 0,0 0.06,-0.301 0.13,-0.849 0.2,-1.618 -0.04,-0.921 0.79,-3.197 0.06,-0.167 -0.06,-0.339 -0.17,-0.369 -0.18,-0.047 -0.16,0.009 -0.16,0.009 z"
     id="path792" />
  <path
     style="fill:#231f20;fill-opacity:1;fill-rule:nonzero;stroke:none"
     d="m 273.25132,101.35265 c 2.23,-0.395 2.72,-0.171 2.95,0.762 0.16,0.614 0.51,1.14 0.62,1.509 0.37,1.246 0.48,3.491 -0.86,9.939 -0.31,1.457 -0.72,3.514 -0.82,4.364 -0.16,1.349 -2.29,0.166 -2.24,-0.36 0.19,-1.708 0.18,-2.895 0.17,-3.515 -0.01,-0.433 0.06,-1.188 -0.2,-2.833 -0.39,-2.495 -1,-3.933 -1.08,-6.043 -0.04,-0.984 -0.69,-1.697 -0.25,-2.681 0.46,-0.985 1.71,-1.142 1.71,-1.142"
     id="path793" />
  <path
     style="fill:none;stroke:#231f20;stroke-width:0.565977;stroke-linecap:butt;stroke-linejoin:miter;stroke-miterlimit:4;stroke-dasharray:none;stroke-opacity:1"
     d="m 273.25132,101.35265 c 2.23,-0.395 2.72,-0.171 2.95,0.762 0.16,0.614 0.51,1.14 0.62,1.509 0.37,1.246 0.48,3.491 -0.86,9.939 -0.31,1.457 -0.72,3.514 -0.82,4.364 -0.16,1.349 -2.29,0.166 -2.24,-0.36 0.19,-1.708 0.18,-2.895 0.17,-3.515 -0.01,-0.433 0.06,-1.188 -0.2,-2.833 -0.39,-2.495 -1,-3.933 -1.08,-6.043 -0.04,-0.984 -0.69,-1.697 -0.25,-2.681 0.46,-0.985 1.71,-1.142 1.71,-1.142 z"
     id="path794" />
  <path
     style="fill:#231f20;fill-opacity:1;fill-rule:nonzero;stroke:#231f20;stroke-width:0.565977;stroke-linecap:round;stroke-linejoin:miter;stroke-miterlimit:4;stroke-dasharray:none;stroke-opacity:1"
     d="m 271.80132,103.38565 c -1.02,-0.876 -0.66,-2.866 -0.74,-3.183 -1.33,-4.832997 -1.3,-5.213997 -2.04,-8.963997 -1.08,-5.416 -0.99,-9.296 1.98,-10.843 2.02,-1.053 3.63,-0.786 4.63,0.078 1.1,0.953 2.28,3.906 0.58,6.245 l -0.12,1.708 c 0.06,1.161 0.08,1.735 0.16,2.307 0.13,0.99 0.21,2.062 0.36,4.015 0.27,3.459 -0.58,7.208997 -0.58,7.208997 0.02,0.313 -0.08,0.573 -0.25,0.781"
     id="path795" />
  <path
     style="fill:#fab41d;fill-opacity:1;fill-rule:nonzero;stroke:none"
     d="m 275.63132,80.473653 c -1,-0.859 -2.61,-1.131 -4.63,-0.078 -1.3,0.681 -2.04,1.828 -2.38,3.343 -0.44,0.937 -0.68,1.521 -0.3,2.235 0.03,0.062 0.05,0.136 0.08,0.208 0.01,0.589 0.04,1.198 0.11,1.849 l 7.7,-1.312 c 1.7,-2.339 0.52,-5.292 -0.58,-6.245"
     id="path796" />
  <path
     style="fill:none;stroke:#231f20;stroke-width:0.565977;stroke-linecap:round;stroke-linejoin:round;stroke-miterlimit:4;stroke-dasharray:none;stroke-opacity:1"
     d="m 275.63132,80.473653 c -1,-0.859 -2.61,-1.131 -4.63,-0.078 -1.3,0.681 -2.04,1.828 -2.38,3.343 -0.44,0.937 -0.68,1.521 -0.3,2.235 0.03,0.062 0.05,0.136 0.08,0.208 0.01,0.589 0.04,1.198 0.11,1.849 l 7.7,-1.312 c 1.7,-2.339 0.52,-5.292 -0.58,-6.245 z"
     id="path797" />
  <path
     style="fill:#231f20;fill-opacity:1;fill-rule:nonzero;stroke:none"
     d="m 274.86132,121.16165 c 1.08,-0.058 0.82,-1.287 0.58,-2.49 -0.06,-0.303 -0.09,-0.595 -0.17,-0.881 -0.34,-1.181 -1.16,-1.834 -3.11,0.438 -0.07,0.083 -1.91,1.266 -2.48,1.515 -2.74,1.167 -2.97,0.36 -2.74,1.167 0.14,0.542 0.65,0.552 1.28,0.546 0.85,-0.004 3.87,-0.281 4.33,-0.29 0.45,-0.011 2.31,-0.005 2.31,-0.005"
     id="path798" />
  <path
     style="fill:none;stroke:#231f20;stroke-width:0.565977;stroke-linecap:butt;stroke-linejoin:miter;stroke-miterlimit:4;stroke-dasharray:none;stroke-opacity:1"
     d="m 274.86132,121.16165 c 1.08,-0.058 0.82,-1.287 0.58,-2.49 -0.06,-0.303 -0.09,-0.595 -0.17,-0.881 -0.34,-1.181 -1.16,-1.834 -3.11,0.438 -0.07,0.083 -1.91,1.266 -2.48,1.515 -2.74,1.167 -2.97,0.36 -2.74,1.167 0.14,0.542 0.65,0.552 1.28,0.546 0.85,-0.004 3.87,-0.281 4.33,-0.29 0.45,-0.011 2.31,-0.005 2.31,-0.005 z"
     id="path800" />
  <path
     style="fill:#fab41d;fill-opacity:1;fill-rule:nonzero;stroke:none"
     d="m 74.192321,15.295652 c -3.115,-0.369 -5.443,-0.192 -6.359,-0.224 -3.193003,-0.104 -5.489003,1.178 -5.297003,4.052 0.208,3.386 2.734003,4.631 6.901003,4.584 1.755,-0.021 5.636,0.886 5.636,0.886 3.041,1.13 3.651,1.948 5.541,-0.074 1.047,-1.114 3.484,-1.281 4.104,-2.588 1.131,-2.422 0.719,-3.474 -0.245,-4.172 -0.958,-0.697 -2.244,-0.849 -4.583,-1.494 -2.24,-0.626 -5.698,-0.97 -5.698,-0.97"
     id="path802" />
  <path
     style="fill:none;stroke:#231f20;stroke-width:0.565977;stroke-linecap:butt;stroke-linejoin:miter;stroke-miterlimit:4;stroke-dasharray:none;stroke-opacity:1"
     d="m 74.192321,15.295652 c -3.115,-0.369 -5.443,-0.192 -6.359,-0.224 -3.193003,-0.104 -5.489003,1.178 -5.297003,4.052 0.208,3.386 2.734003,4.631 6.901003,4.584 1.755,-0.021 5.636,0.886 5.636,0.886 3.041,1.13 3.651,1.948 5.541,-0.074 1.047,-1.114 3.484,-1.281 4.104,-2.588 1.131,-2.422 0.719,-3.474 -0.245,-4.172 -0.958,-0.697 -2.244,-0.849 -4.583,-1.494 -2.24,-0.626 -5.698,-0.97 -5.698,-0.97 z"
     id="path803" />
  <path
     style="fill:#ffffff;fill-opacity:1;fill-rule:nonzero;stroke:none"
     d="m 88.343321,25.978652 c 0.192,0.145 -0.27,1.203 0.187,1.453 0.464,0.244 1,-0.338 2.985,-0.24 l 0.026,0.006 c 1.448,0.114 2.76,-0.37 3.426,-1.427 1.12,-1.756 0.1,-4.401 -2.27,-5.928 -2.38,-1.52 -5.219,-1.333 -6.339,0.407 -1.077,1.672 -0.181,4.182 1.985,5.729"
     id="path804" />
  <path
     style="fill:none;stroke:#231f20;stroke-width:0.565977;stroke-linecap:butt;stroke-linejoin:miter;stroke-miterlimit:4;stroke-dasharray:none;stroke-opacity:1"
     d="m 88.343321,25.978652 c 0.192,0.145 -0.27,1.203 0.187,1.453 0.464,0.244 1,-0.338 2.985,-0.24 l 0.026,0.006 c 1.448,0.114 2.76,-0.37 3.426,-1.427 1.12,-1.756 0.1,-4.401 -2.27,-5.928 -2.38,-1.52 -5.219,-1.333 -6.339,0.407 -1.077,1.672 -0.181,4.182 1.985,5.729 z"
     id="path805" />
  <path
     style="fill:#231f20;fill-opacity:1;fill-rule:nonzero;stroke:none"
     d="m 67.000321,36.087652 c -1.063,-1.994 -1.542,-2.24 -2.418003,-1.844 -0.582,0.262 -1.208,0.303 -1.566,0.443 -1.21,0.469 -3.054,1.771 -7.292,6.808 -0.959,1.129 -2.323,2.724 -2.932,3.333 -0.954,0.963 1.285,1.906 1.666,1.531 1.234,-1.197 2.167,-1.916 2.667,-2.287 0.343,-0.254 0.885,-0.79 2.343,-1.604 2.214,-1.224 3.714,-1.634 5.433,-2.869 0.796003,-0.573 1.755003,-0.495 2.249003,-1.464 0.506,-0.963 -0.15,-2.047 -0.15,-2.047"
     id="path806" />
  <path
     style="fill:none;stroke:#231f20;stroke-width:0.565977;stroke-linecap:butt;stroke-linejoin:miter;stroke-miterlimit:4;stroke-dasharray:none;stroke-opacity:1"
     d="m 67.000321,36.087652 c -1.063,-1.994 -1.542,-2.24 -2.418003,-1.844 -0.582,0.262 -1.208,0.303 -1.566,0.443 -1.21,0.469 -3.054,1.771 -7.292,6.808 -0.959,1.129 -2.323,2.724 -2.932,3.333 -0.954,0.963 1.285,1.906 1.666,1.531 1.234,-1.197 2.167,-1.916 2.667,-2.287 0.343,-0.254 0.885,-0.79 2.343,-1.604 2.214,-1.224 3.714,-1.634 5.433,-2.869 0.796003,-0.573 1.755003,-0.495 2.249003,-1.464 0.506,-0.963 -0.15,-2.047 -0.15,-2.047 z"
     id="path807" />
  <path
     style="fill:#231f20;fill-opacity:1;fill-rule:nonzero;stroke:#231f20;stroke-width:0.565977;stroke-linecap:round;stroke-linejoin:round;stroke-miterlimit:4;stroke-dasharray:none;stroke-opacity:1"
     d="m 66.645321,38.587652 c 1.151,-0.822 0.751,-2.937 0.833,-3.265 1.298,-4.849 1.262,-5.229 1.99,-8.975 1.048,-5.437 0.928,-9.312 -2.047,-10.853 -2.025,-1.032 -3.640003,-0.756 -4.629003,0.115 -1.1,0.957 -2.251,3.921 -0.543,6.249 l 0.131,1.708 c -0.058,1.163 -0.074,1.74 -0.146,2.303 -0.13,0.994 -0.204,2.073 -0.344,4.026 -0.25,3.463 0.62,7.208 0.62,7.208 -0.016,0.307 0.094,0.568 0.26,0.782"
     id="path808" />
  <path
     style="fill:#fab41d;fill-opacity:1;fill-rule:nonzero;stroke:none"
     d="m 67.473321,15.395652 c -2.015,-1.042 -3.635003,-0.781 -4.629003,0.088 -1.1,0.954 -2.272,3.916 -0.563,6.246 l 7.703003,1.296 c 0.401,-3.744 -0.156,-6.416 -2.511,-7.63"
     id="path809" />
  <path
     style="fill:none;stroke:#231f20;stroke-width:0.565977;stroke-linecap:butt;stroke-linejoin:miter;stroke-miterlimit:4;stroke-dasharray:none;stroke-opacity:1"
     d="m 67.473321,15.395652 c -2.015,-1.042 -3.635003,-0.781 -4.629003,0.088 -1.1,0.954 -2.272,3.916 -0.563,6.246 l 7.703003,1.296 c 0.401,-3.744 -0.156,-6.416 -2.511,-7.63 z"
     id="path810" />
  <path
     style="fill:#231f20;fill-opacity:1;fill-rule:nonzero;stroke:none"
     d="m 79.317321,40.426652 c -0.317,-0.557 0.057,-2.469 -0.26,-4.047 -0.213,-1.062 0.396,-3.74 0.104,-4.786 -0.265,-0.959 -0.303,-1.418 0.74,-1.907 0.615,-0.296 1.995,-0.457 2.233,-0.011 0.552,1.058 0.641,1.996 0.511,3.058 -0.156,1.204 -0.849,4.442 -1.025,5.021 -0.464,1.459 -0.21,2.145 -0.287,2.541 -0.161,0.751 -0.489,0.866 -0.989,0.871 -0.964,0.005 -1.027,-0.74 -1.027,-0.74"
     id="path811" />
  <path
     style="fill:none;stroke:#231f20;stroke-width:0.565977;stroke-linecap:butt;stroke-linejoin:miter;stroke-miterlimit:4;stroke-dasharray:none;stroke-opacity:1"
     d="m 79.317321,40.426652 c -0.317,-0.557 0.057,-2.469 -0.26,-4.047 -0.213,-1.062 0.396,-3.74 0.104,-4.786 -0.265,-0.959 -0.303,-1.418 0.74,-1.907 0.615,-0.296 1.995,-0.457 2.233,-0.011 0.552,1.058 0.641,1.996 0.511,3.058 -0.156,1.204 -0.849,4.442 -1.025,5.021 -0.464,1.459 -0.21,2.145 -0.287,2.541 -0.161,0.751 -0.489,0.866 -0.989,0.871 -0.964,0.005 -1.027,-0.74 -1.027,-0.74 z"
     id="path812" />
  <path
     style="fill:#231f20;fill-opacity:1;fill-rule:nonzero;stroke:none"
     d="m 79.666321,31.139652 c -1.276,-0.24 -0.541,-2.14 -0.428,-2.666 0.12,-0.531 0.278,-2.083 0.24,-3.302 -0.025,-1.224 0.459,-2.766 0.402,-5.094 -0.027,-1.219 0.718,-2.432 2.494,-2.396 1.755,0.037 2.401,1.037 2.208,2.521 -0.181,1.479 -0.995,2.797 -1.287,4.287 -0.301,1.478 -0.457,3.016 -0.52,4.234 -0.089,1.38 -0.635,2.026 -1.089,2.182 -1.124,0.406 -2.02,0.234 -2.02,0.234"
     id="path813" />
  <path
     style="fill:none;stroke:#231f20;stroke-width:0.565977;stroke-linecap:butt;stroke-linejoin:miter;stroke-miterlimit:4;stroke-dasharray:none;stroke-opacity:1"
     d="m 79.666321,31.139652 c -1.276,-0.24 -0.541,-2.14 -0.428,-2.666 0.12,-0.531 0.278,-2.083 0.24,-3.302 -0.025,-1.224 0.459,-2.766 0.402,-5.094 -0.027,-1.219 0.718,-2.432 2.494,-2.396 1.755,0.037 2.401,1.037 2.208,2.521 -0.181,1.479 -0.995,2.797 -1.287,4.287 -0.301,1.478 -0.457,3.016 -0.52,4.234 -0.089,1.38 -0.635,2.026 -1.089,2.182 -1.124,0.406 -2.02,0.234 -2.02,0.234 z"
     id="path814" />
  <path
     style="fill:#231f20;fill-opacity:1;fill-rule:nonzero;stroke:none"
     d="m 79.682321,46.962652 c -0.302,-0.677 -0.51,-3.916 -0.521,-4.667 -0.011,-0.661 -0.396,-1.744 0.645,-2.254 0.402,-0.23 1.162,-0.235 1.464,-0.156 0.26,0.057 0.364,0.374 0.328,0.76 -0.036,0.672 -0.312,0.849 -0.473,2.109 0,0 -0.084,0.297 -0.276,0.808 -0.537,1.541 -0.439,0.812 -0.729,3.219 -0.016,0.17 -0.199,0.27 -0.314,0.254 -0.181,-0.041 -0.124,-0.073 -0.124,-0.073"
     id="path815" />
  <path
     style="fill:none;stroke:#231f20;stroke-width:0.565977;stroke-linecap:round;stroke-linejoin:round;stroke-miterlimit:4;stroke-dasharray:none;stroke-opacity:1"
     d="m 79.682321,46.962652 c -0.302,-0.677 -0.51,-3.916 -0.521,-4.667 -0.011,-0.661 -0.396,-1.744 0.645,-2.254 0.402,-0.23 1.162,-0.235 1.464,-0.156 0.26,0.057 0.364,0.374 0.328,0.76 -0.036,0.672 -0.312,0.849 -0.473,2.109 0,0 -0.084,0.297 -0.276,0.808 -0.537,1.541 -0.439,0.812 -0.729,3.219 -0.016,0.17 -0.199,0.27 -0.314,0.254 -0.181,-0.041 -0.124,-0.073 -0.124,-0.073 z"
     id="path816" />
  <path
     style="fill:#231f20;fill-opacity:1;fill-rule:nonzero;stroke:none"
     d="m 50.484318,45.895652 c 0.062,-1.349 1,-1.662 1.964,-1.272 0.286,0.12 0.656,-0.088 0.932,0.052 0.62,0.319 1.109,1.991 -0.188,2.751 -0.088,0.057 -0.64,0.667 -1.115,1.057 -0.948,0.76 -3.197,1.839 -5.733,0.912 -1.199,-0.438 -0.715,-1.068 -0.178,-1.037 1.703,0.099 1.875,-0.229 2.339,-0.37 1.552,-0.458 1.979,-2.093 1.979,-2.093"
     id="path817" />
  <path
     style="fill:none;stroke:#231f20;stroke-width:0.332927;stroke-linecap:butt;stroke-linejoin:miter;stroke-miterlimit:4;stroke-dasharray:none;stroke-opacity:1"
     d="m 50.484318,45.895652 c 0.062,-1.349 1,-1.662 1.964,-1.272 0.286,0.12 0.656,-0.088 0.932,0.052 0.62,0.319 1.109,1.991 -0.188,2.751 -0.088,0.057 -0.64,0.667 -1.115,1.057 -0.948,0.76 -3.197,1.839 -5.733,0.912 -1.199,-0.438 -0.715,-1.068 -0.178,-1.037 1.703,0.099 1.875,-0.229 2.339,-0.37 1.552,-0.458 1.979,-2.093 1.979,-2.093 z"
     id="path818" />
  <path
     style="fill:#fab41d;fill-opacity:1;fill-rule:nonzero;stroke:none"
     d="m 129.77032,27.639652 c 1.989,-2.426 3.088,-4.484 3.609,-5.244 1.803,-2.63 1.954,-5.256 -0.573,-6.646 -2.963,-1.63 -5.375,-0.178 -7.572,3.36 -0.928,1.494 -3.776,4.281 -3.776,4.281 -2.584,1.957 -3.401,2.771 -3.761,5.719 -0.182,1.514 0.057,2.62 0.822,3.842 1.439,2.256 2.543,2.475 3.652,2.043 1.104,-0.437 1.916,-1.443 3.724,-3.068 1.73,-1.552 3.875,-4.287 3.875,-4.287"
     id="path819" />
  <path
     style="fill:none;stroke:#231f20;stroke-width:0.565977;stroke-linecap:butt;stroke-linejoin:miter;stroke-miterlimit:4;stroke-dasharray:none;stroke-opacity:1"
     d="m 129.77032,27.639652 c 1.989,-2.426 3.088,-4.484 3.609,-5.244 1.803,-2.63 1.954,-5.256 -0.573,-6.646 -2.963,-1.63 -5.375,-0.178 -7.572,3.36 -0.928,1.494 -3.776,4.281 -3.776,4.281 -2.584,1.957 -3.401,2.771 -3.761,5.719 -0.182,1.514 0.057,2.62 0.822,3.842 1.439,2.256 2.543,2.475 3.652,2.043 1.104,-0.437 1.916,-1.443 3.724,-3.068 1.73,-1.552 3.875,-4.287 3.875,-4.287 z"
     id="path820" />
  <path
     style="fill:#ffffff;fill-opacity:1;fill-rule:nonzero;stroke:none"
     d="m 113.16632,33.838652 c -0.235,0.083 -0.875,-0.881 -1.333,-0.625 -0.459,0.26 -0.251,1.03 -1.402,2.645 l -0.016,0.021 c -0.874,1.156 -1.172,2.526 -0.64,3.656 0.875,1.886 3.656,2.448 6.219,1.266 2.563,-1.187 3.927,-3.678 3.063,-5.563 -0.834,-1.807 -3.428,-2.4 -5.891,-1.4"
     id="path821" />
  <path
     style="fill:none;stroke:#231f20;stroke-width:0.565977;stroke-linecap:butt;stroke-linejoin:miter;stroke-miterlimit:4;stroke-dasharray:none;stroke-opacity:1"
     d="m 113.16632,33.838652 c -0.235,0.083 -0.875,-0.881 -1.333,-0.625 -0.459,0.26 -0.251,1.03 -1.402,2.645 l -0.016,0.021 c -0.874,1.156 -1.172,2.526 -0.64,3.656 0.875,1.886 3.656,2.448 6.219,1.266 2.563,-1.187 3.927,-3.678 3.063,-5.563 -0.834,-1.807 -3.428,-2.4 -5.891,-1.4 z"
     id="path822" />
  <path
     style="fill:#231f20;fill-opacity:1;fill-rule:nonzero;stroke:none"
     d="m 110.66132,16.947652 c 1.218,1.906 1.713,2.11 2.552,1.64 0.562,-0.306 1.182,-0.396 1.53,-0.568 1.167,-0.566 2.896,-2.014 6.715,-7.38 0.859,-1.2080002 2.093,-2.9060002 2.651,-3.5570002 0.869,-1.041 -1.438,-1.801 -1.792,-1.391 -1.126,1.292 -2,2.084 -2.468,2.495 -0.319,0.281 -0.819,0.855 -2.21,1.787 -2.104,1.4010002 -3.566,1.9320002 -5.177,3.3080002 -0.749,0.634 -1.708,0.634 -2.119,1.64 -0.428,1 0.318,2.026 0.318,2.026"
     id="path823" />
  <path
     style="fill:none;stroke:#231f20;stroke-width:0.565977;stroke-linecap:butt;stroke-linejoin:miter;stroke-miterlimit:4;stroke-dasharray:none;stroke-opacity:1"
     d="m 110.66132,16.947652 c 1.218,1.906 1.713,2.11 2.552,1.64 0.562,-0.306 1.182,-0.396 1.53,-0.568 1.167,-0.566 2.896,-2.014 6.715,-7.38 0.859,-1.2080002 2.093,-2.9060002 2.651,-3.5570002 0.869,-1.041 -1.438,-1.801 -1.792,-1.391 -1.126,1.292 -2,2.084 -2.468,2.495 -0.319,0.281 -0.819,0.855 -2.21,1.787 -2.104,1.4010002 -3.566,1.9320002 -5.177,3.3080002 -0.749,0.634 -1.708,0.634 -2.119,1.64 -0.428,1 0.318,2.026 0.318,2.026 z"
     id="path824" />
  <path
     style="fill:#231f20;fill-opacity:1;fill-rule:nonzero;stroke:#231f20;stroke-width:0.565977;stroke-linecap:round;stroke-linejoin:round;stroke-miterlimit:4;stroke-dasharray:none;stroke-opacity:1"
     d="m 111.34932,17.869652 c 0.728,1.213 2.869,0.984 3.186,1.098 4.724,1.683 5.11,1.683 8.787,2.708 5.328,1.491 9.203,1.694 10.979,-1.15 1.193,-1.932 1.048,-3.568 0.27,-4.626 -0.874,-1.166 -3.728,-2.561 -6.186,-1.052 l -1.714,-0.005 c -1.156,-0.151 -1.724,-0.219 -2.286,-0.333 -0.975,-0.214 -2.047,-0.37 -3.979,-0.671 -3.439,-0.532 -7.235,0.031 -7.235,0.031 -0.308,-0.042 -0.578,0.041 -0.802,0.193"
     id="path825" />
  <path
     style="fill:#fab41d;fill-opacity:1;fill-rule:nonzero;stroke:none"
     d="m 134.68632,15.967652 c -0.859,-1.177 -3.719,-2.582 -6.176,-1.072 l -1.923,7.567 c 3.699,0.704 6.407,0.365 7.814,-1.875 1.202,-1.926 1.066,-3.557 0.285,-4.62"
     id="path826" />
  <path
     style="fill:none;stroke:#231f20;stroke-width:0.565977;stroke-linecap:butt;stroke-linejoin:miter;stroke-miterlimit:4;stroke-dasharray:none;stroke-opacity:1"
     d="m 134.68632,15.967652 c -0.859,-1.177 -3.719,-2.582 -6.176,-1.072 l -1.923,7.567 c 3.699,0.704 6.407,0.365 7.814,-1.875 1.202,-1.926 1.066,-3.557 0.285,-4.62 z"
     id="path827" />
  <path
     style="fill:#231f20;fill-opacity:1;fill-rule:nonzero;stroke:none"
     d="m 118.86932,11.390652 c 0.448,0.452 0.584,2.4 1.297,3.843 0.479,0.969 0.588,3.714 1.14,4.646 0.505,0.859 0.656,1.296 -0.219,2.036 -0.525,0.448 -1.812,0.959 -2.161,0.584 -0.807,-0.87 -1.131,-1.761 -1.281,-2.813 -0.167,-1.208 -0.334,-4.515 -0.307,-5.124 0.068,-1.521 -0.36,-2.12 -0.385,-2.527 -0.038,-0.765 0.249,-0.958 0.729,-1.093 0.937,-0.251 1.187,0.448 1.187,0.448"
     id="path828" />
  <path
     style="fill:none;stroke:#231f20;stroke-width:0.565977;stroke-linecap:butt;stroke-linejoin:miter;stroke-miterlimit:4;stroke-dasharray:none;stroke-opacity:1"
     d="m 118.86932,11.390652 c 0.448,0.452 0.584,2.4 1.297,3.843 0.479,0.969 0.588,3.714 1.14,4.646 0.505,0.859 0.656,1.296 -0.219,2.036 -0.525,0.448 -1.812,0.959 -2.161,0.584 -0.807,-0.87 -1.131,-1.761 -1.281,-2.813 -0.167,-1.208 -0.334,-4.515 -0.307,-5.124 0.068,-1.521 -0.36,-2.12 -0.385,-2.527 -0.038,-0.765 0.249,-0.958 0.729,-1.093 0.937,-0.251 1.187,0.448 1.187,0.448 z"
     id="path829" />
  <path
     style="fill:#231f20;fill-opacity:1;fill-rule:nonzero;stroke:none"
     d="m 120.93132,20.453652 c 1.298,-0.1 1.084,1.921 1.11,2.462 0.021,0.547 0.265,2.084 0.62,3.256 0.344,1.176 0.276,2.786 0.926,5.02 0.344,1.172 -0.062,2.532 -1.786,2.959 -1.703,0.421 -2.583,-0.38 -2.786,-1.86 -0.204,-1.484 0.234,-2.963 0.135,-4.473 -0.093,-1.506 -0.339,-3.036 -0.588,-4.224 -0.276,-1.36 0.083,-2.126 0.479,-2.391 0.978,-0.688 1.89,-0.749 1.89,-0.749"
     id="path830" />
  <path
     style="fill:none;stroke:#231f20;stroke-width:0.565977;stroke-linecap:butt;stroke-linejoin:miter;stroke-miterlimit:4;stroke-dasharray:none;stroke-opacity:1"
     d="m 120.93132,20.453652 c 1.298,-0.1 1.084,1.921 1.11,2.462 0.021,0.547 0.265,2.084 0.62,3.256 0.344,1.176 0.276,2.786 0.926,5.02 0.344,1.172 -0.062,2.532 -1.786,2.959 -1.703,0.421 -2.583,-0.38 -2.786,-1.86 -0.204,-1.484 0.234,-2.963 0.135,-4.473 -0.093,-1.506 -0.339,-3.036 -0.588,-4.224 -0.276,-1.36 0.083,-2.126 0.479,-2.391 0.978,-0.688 1.89,-0.749 1.89,-0.749 z"
     id="path831" />
  <path
     style="fill:#231f20;fill-opacity:1;fill-rule:nonzero;stroke:none"
     d="m 125.87432,4.8536518 c 0.391,1.292 -0.385,1.901 -1.427,1.854 -0.313,-0.016 -0.589,0.302 -0.89,0.266 -0.699,-0.094 -1.714,-1.506 -0.751,-2.656 0.063,-0.079 0.38,-0.839 0.699,-1.37 0.629,-1.032 2.396,-2.80199998 5.093,-2.78099998 1.276,0.009 1.031,0.771 0.516,0.92099998 -1.636,0.475 -1.693,0.844 -2.079,1.131 -1.306,0.953 -1.161,2.635 -1.161,2.635"
     id="path832" />
  <path
     style="fill:none;stroke:#231f20;stroke-width:0.332927;stroke-linecap:butt;stroke-linejoin:miter;stroke-miterlimit:4;stroke-dasharray:none;stroke-opacity:1"
     d="m 125.87432,4.8536518 c 0.391,1.292 -0.385,1.901 -1.427,1.854 -0.313,-0.016 -0.589,0.302 -0.89,0.266 -0.699,-0.094 -1.714,-1.506 -0.751,-2.656 0.063,-0.079 0.38,-0.839 0.699,-1.37 0.629,-1.032 2.396,-2.80199998 5.093,-2.78099998 1.276,0.009 1.031,0.771 0.516,0.92099998 -1.636,0.475 -1.693,0.844 -2.079,1.131 -1.306,0.953 -1.161,2.635 -1.161,2.635 z"
     id="path833" />
  <path
     style="fill:#ffffff;fill-opacity:1;fill-rule:nonzero;stroke:none"
     d="m 20.916318,60.161652 c 0.136,-0.204 1.229,0.155 1.428,-0.328 0.197,-0.481 -0.428,-0.964 -0.527,-2.948 l -0.005,-0.022 c -0.016,-1.453 -0.63,-2.697 -1.744,-3.276 -1.844,-0.942 -4.391,0.323 -5.678,2.839 -1.286,2.516 -0.828,5.317001 1.016,6.265001 1.771,0.907 4.176,-0.224 5.51,-2.530001"
     id="path834" />
  <path
     style="fill:none;stroke:#231f20;stroke-width:0.565977;stroke-linecap:butt;stroke-linejoin:miter;stroke-miterlimit:4;stroke-dasharray:none;stroke-opacity:1"
     d="m 20.916318,60.161652 c 0.136,-0.204 1.229,0.155 1.428,-0.328 0.197,-0.481 -0.428,-0.964 -0.527,-2.948 l -0.005,-0.022 c -0.016,-1.453 -0.63,-2.697 -1.744,-3.276 -1.844,-0.942 -4.391,0.323 -5.678,2.839 -1.286,2.516 -0.828,5.317001 1.016,6.265001 1.771,0.907 4.176,-0.224 5.51,-2.530001 z"
     id="path835" />
  <path
     style="fill:#fab41d;fill-opacity:1;fill-rule:nonzero;stroke:none"
     d="m 8.3063184,74.062653 c -1.505,2.749 -2.134,3.171 -2.858,3.744 -4.54300002,3.568 -2.704,5.729 0.03,6.636 3.219,1.067 4.355,1.515 6.8439996,-4.271 0.688,-1.605 4.146,-7.428 4.146,-7.428 1.521,-1.921 1.98,-4.598 1.318,-5.901 -0.698,-1.364 -0.521,-0.771 -1.401,-1.916 -0.839,-1.093 -2.865,-1.912 -3.959,-1.339 -1.052,0.547 -1.145,2.213 -1.593,4.594 -0.349,1.881 -2.5269996,5.881 -2.5269996,5.881"
     id="path836" />
  <path
     style="fill:none;stroke:#231f20;stroke-width:0.565977;stroke-linecap:butt;stroke-linejoin:miter;stroke-miterlimit:4;stroke-dasharray:none;stroke-opacity:1"
     d="m 8.3063184,74.062653 c -1.505,2.749 -2.134,3.171 -2.858,3.744 -4.54300002,3.568 -2.704,5.729 0.03,6.636 3.219,1.067 4.355,1.515 6.8439996,-4.271 0.688,-1.605 4.146,-7.428 4.146,-7.428 1.521,-1.921 1.98,-4.598 1.318,-5.901 -0.698,-1.364 -0.521,-0.771 -1.401,-1.916 -0.839,-1.093 -2.865,-1.912 -3.959,-1.339 -1.052,0.547 -1.145,2.213 -1.593,4.594 -0.349,1.881 -2.5269996,5.881 -2.5269996,5.881 z"
     id="path837" />
  <path
     style="fill:#231f20;fill-opacity:1;fill-rule:nonzero;stroke:none"
     d="m 35.120318,63.202653 c -0.459,0.453 -2.402,0.584 -3.844,1.297 -0.975,0.479 -3.714,0.588 -4.651,1.14 -0.855,0.511 -1.292,0.661 -2.043,-0.223 -0.442,-0.517 -0.953,-1.807 -0.577,-2.157 0.869,-0.807 1.76,-1.131 2.817,-1.281 1.203,-0.162 4.511,-0.328 5.126,-0.303 1.52,0.068 2.12,-0.364 2.52,-0.385 0.766,-0.031 0.964,0.245 1.1,0.734 0.244,0.923 -0.448,1.178 -0.448,1.178"
     id="path838" />
  <path
     style="fill:none;stroke:#231f20;stroke-width:0.565977;stroke-linecap:butt;stroke-linejoin:miter;stroke-miterlimit:4;stroke-dasharray:none;stroke-opacity:1"
     d="m 35.120318,63.202653 c -0.459,0.453 -2.402,0.584 -3.844,1.297 -0.975,0.479 -3.714,0.588 -4.651,1.14 -0.855,0.511 -1.292,0.661 -2.043,-0.223 -0.442,-0.517 -0.953,-1.807 -0.577,-2.157 0.869,-0.807 1.76,-1.131 2.817,-1.281 1.203,-0.162 4.511,-0.328 5.126,-0.303 1.52,0.068 2.12,-0.364 2.52,-0.385 0.766,-0.031 0.964,0.245 1.1,0.734 0.244,0.923 -0.448,1.178 -0.448,1.178 z"
     id="path839" />
  <path
     style="fill:#231f20;fill-opacity:1;fill-rule:nonzero;stroke:none"
     d="m 26.254318,65.076653 c 0.131,1.287 -1.901,1.121 -2.442,1.157 -0.542,0.037 -2.072,0.313 -3.235,0.683 -1.171,0.369 -2.785,0.333 -5.005,1.031 -1.166,0.375 -2.536,-0.01 -2.995,-1.724 -0.452,-1.693 0.328,-2.589 1.803,-2.824 1.478,-0.228 2.969,0.177 4.473,0.048 1.505,-0.131 3.027,-0.407 4.215,-0.677 1.342,-0.313 2.124,0.041 2.405,0.427 0.699,0.969 0.781,1.879 0.781,1.879"
     id="path840" />
  <path
     style="fill:none;stroke:#231f20;stroke-width:0.565977;stroke-linecap:butt;stroke-linejoin:miter;stroke-miterlimit:4;stroke-dasharray:none;stroke-opacity:1"
     d="m 26.254318,65.076653 c 0.131,1.287 -1.901,1.121 -2.442,1.157 -0.542,0.037 -2.072,0.313 -3.235,0.683 -1.171,0.369 -2.785,0.333 -5.005,1.031 -1.166,0.375 -2.536,-0.01 -2.995,-1.724 -0.452,-1.693 0.328,-2.589 1.803,-2.824 1.478,-0.228 2.969,0.177 4.473,0.048 1.505,-0.131 3.027,-0.407 4.215,-0.677 1.342,-0.313 2.124,0.041 2.405,0.427 0.699,0.969 0.781,1.879 0.781,1.879 z"
     id="path841" />
  <path
     style="fill:#231f20;fill-opacity:1;fill-rule:nonzero;stroke:none"
     d="m 41.937318,61.852653 c -0.62,0.381 -3.803,1.038 -4.536,1.153 -0.657,0.109 -1.688,0.64 -2.339,-0.308 -0.266,-0.391 -0.385,-1.135 -0.349,-1.454 0.027,-0.255 0.317,-0.410001 0.713,-0.432001 0.667,-0.041 0.87,0.198001 2.151,0.188001 0,0 0.303,0.041 0.839,0.151 1.6,0.328 0.865,0.328 3.286,0.281 0.172,-0.005 0.303,0.167 0.292,0.287 -0.01,0.172 -0.057,0.134 -0.057,0.134"
     id="path842" />
  <path
     style="fill:none;stroke:#231f20;stroke-width:0.565977;stroke-linecap:round;stroke-linejoin:round;stroke-miterlimit:4;stroke-dasharray:none;stroke-opacity:1"
     d="m 41.937318,61.852653 c -0.62,0.381 -3.803,1.038 -4.536,1.153 -0.657,0.109 -1.688,0.64 -2.339,-0.308 -0.266,-0.391 -0.385,-1.135 -0.349,-1.454 0.027,-0.255 0.317,-0.410001 0.713,-0.432001 0.667,-0.041 0.87,0.198001 2.151,0.188001 0,0 0.303,0.041 0.839,0.151 1.6,0.328 0.865,0.328 3.286,0.281 0.172,-0.005 0.303,0.167 0.292,0.287 -0.01,0.172 -0.057,0.134 -0.057,0.134 z"
     id="path843" />
  <path
     style="fill:#231f20;fill-opacity:1;fill-rule:nonzero;stroke:none"
     d="m 8.3583184,99.852653 c -2.014,-1.03 -2.546,-0.957 -3.041,-0.14 -0.323,0.551997 -0.817,0.942997 -1.031,1.265997 -0.724,1.079 -1.485,3.193 -2.089,9.75 -0.135,1.49 -0.344,3.572 -0.495,4.416 -0.24,1.339 2.142,0.834 2.24,0.308 0.328,-1.682 0.683,-2.818 0.88,-3.406 0.136,-0.407 0.282,-1.156 1.011,-2.651 1.109,-2.272 2.109,-3.469 2.807,-5.464 0.328,-0.926 1.161,-1.417 1.021,-2.484 -0.145,-1.078 -1.303,-1.594997 -1.303,-1.594997"
     id="path844" />
  <path
     style="fill:none;stroke:#231f20;stroke-width:0.565977;stroke-linecap:butt;stroke-linejoin:miter;stroke-miterlimit:4;stroke-dasharray:none;stroke-opacity:1"
     d="m 8.3583184,99.852653 c -2.014,-1.03 -2.546,-0.957 -3.041,-0.14 -0.323,0.551997 -0.817,0.942997 -1.031,1.265997 -0.724,1.079 -1.485,3.193 -2.089,9.75 -0.135,1.49 -0.344,3.572 -0.495,4.416 -0.24,1.339 2.142,0.834 2.24,0.308 0.328,-1.682 0.683,-2.818 0.88,-3.406 0.136,-0.407 0.282,-1.156 1.011,-2.651 1.109,-2.272 2.109,-3.469 2.807,-5.464 0.328,-0.926 1.161,-1.417 1.021,-2.484 -0.145,-1.078 -1.303,-1.594997 -1.303,-1.594997 z"
     id="path845" />
  <path
     style="fill:#231f20;fill-opacity:1;fill-rule:nonzero;stroke:#231f20;stroke-width:0.565977;stroke-linecap:round;stroke-linejoin:miter;stroke-miterlimit:4;stroke-dasharray:none;stroke-opacity:1"
     d="m 9.1503184,102.21865 c 0.9589996,-0.943 0.459,-2.906997 0.522,-3.223997 0.9679996,-4.918 0.9099996,-5.297 1.3849996,-9.089 0.687,-5.484 0.317,-9.348 -2.7559996,-10.677 -2.088,-0.906 -3.676,-0.521 -4.615,0.411 -1.03,1.027 -1.989,4.063 -0.124,6.271 l 0.244,1.693 c 0.022,1.161 0.043,1.739 0.006,2.312 -0.068,1 -0.068,2.073 -0.078,4.036 -0.021,3.47 1.094,7.146997 1.094,7.146997 0.01,0.312 0.13,0.563 0.312,0.765"
     id="path846" />
  <path
     style="fill:#fab41d;fill-opacity:1;fill-rule:nonzero;stroke:none"
     d="m 10.916318,82.395653 c -0.448,-1.49 -1.2599996,-2.579 -2.6149996,-3.167 -2.088,-0.906 -3.676,-0.521 -4.609,0.411 -1.036,1.027 -1.995,4.063 -0.13,6.271 l 7.7709996,0.761 c 0.025,-0.662 0.011,-1.272 -0.021,-1.855 0.021,-0.078 0.041,-0.15 0.073,-0.218 0.323,-0.735 0.041,-1.298 -0.469,-2.203"
     id="path847" />
  <path
     style="fill:none;stroke:#231f20;stroke-width:0.565977;stroke-linecap:round;stroke-linejoin:round;stroke-miterlimit:4;stroke-dasharray:none;stroke-opacity:1"
     d="m 10.916318,82.395653 c -0.448,-1.49 -1.2599996,-2.579 -2.6149996,-3.167 -2.088,-0.906 -3.676,-0.521 -4.609,0.411 -1.036,1.027 -1.995,4.063 -0.13,6.271 l 7.7709996,0.761 c 0.025,-0.662 0.011,-1.272 -0.021,-1.855 0.021,-0.078 0.041,-0.15 0.073,-0.218 0.323,-0.735 0.041,-1.298 -0.469,-2.203 z"
     id="path848" />
  <path
     style="fill:#231f20;fill-opacity:1;fill-rule:nonzero;stroke:none"
     d="m 0.38531838,117.84765 c -0.901,-0.604 -0.047,-1.525 0.77600002,-2.437 0.203,-0.23 0.38,-0.463 0.599,-0.672 0.896,-0.839 1.926,-0.984 2.448,1.969 0.016,0.109 0.989,2.068 1.354,2.568 1.76,2.411 2.37,1.834 1.76,2.411 -0.406,0.385 -0.844,0.136 -1.385,-0.192 -0.729,-0.438 -3.177,-2.219 -3.573,-2.459 -0.38,-0.245 -1.97900002,-1.188 -1.97900002,-1.188"
     id="path849" />
  <path
     style="fill:#fab41d;fill-opacity:1;fill-rule:nonzero;stroke:none"
     d="m 233.05132,43.301652 c 2.48,1.917 4.02,3.677 4.69,4.297 2.36,2.161 3.09,4.683 0.94,6.604 -2.52,2.26 -5.2,1.385 -8.13,-1.568 -1.25,-1.249 -4.65,-3.317 -4.65,-3.317 -2.95,-1.329 -3.85,-3.052 -3.9,-3.943 -0.08,-1.527 -1.58,-3.355 -1.11,-4.719 0.89,-2.521 1.93,-2.984 3.1,-2.808 1.17,0.178 2.19,0.97 4.32,2.147 2.03,1.12 4.74,3.307 4.74,3.307"
     id="path853" />
  <path
     style="fill:none;stroke:#231f20;stroke-width:0.565977;stroke-linecap:butt;stroke-linejoin:miter;stroke-miterlimit:4;stroke-dasharray:none;stroke-opacity:1"
     d="m 233.05132,43.301652 c 2.48,1.917 4.02,3.677 4.69,4.297 2.36,2.161 3.09,4.683 0.94,6.604 -2.52,2.26 -5.2,1.385 -8.13,-1.568 -1.25,-1.249 -4.65,-3.317 -4.65,-3.317 -2.95,-1.329 -3.85,-3.052 -3.9,-3.943 -0.08,-1.527 -1.58,-3.355 -1.11,-4.719 0.89,-2.521 1.93,-2.984 3.1,-2.808 1.17,0.178 2.19,0.97 4.32,2.147 2.03,1.12 4.74,3.307 4.74,3.307 z"
     id="path854" />
  <path
     style="fill:#ffffff;fill-opacity:1;fill-rule:nonzero;stroke:none"
     d="m 214.98932,38.478652 c -0.208,-0.131 -1.036,0.683 -1.427,0.344 -0.396,-0.355 -0.043,-1.063 -0.839,-2.88 l -0.01,-0.021 c -0.626,-1.312 -0.636,-2.708 0.114,-3.708 1.24,-1.672 4.074,-1.656 6.354,0.02 2.26,1.682 3.09,4.401 1.86,6.068 -1.18,1.598 -3.84,1.656 -6.052,0.177"
     id="path855" />
  <path
     style="fill:none;stroke:#231f20;stroke-width:0.565977;stroke-linecap:butt;stroke-linejoin:miter;stroke-miterlimit:4;stroke-dasharray:none;stroke-opacity:1"
     d="m 214.98932,38.478652 c -0.208,-0.131 -1.036,0.683 -1.427,0.344 -0.396,-0.355 -0.043,-1.063 -0.839,-2.88 l -0.01,-0.021 c -0.626,-1.312 -0.636,-2.708 0.114,-3.708 1.24,-1.672 4.074,-1.656 6.354,0.02 2.26,1.682 3.09,4.401 1.86,6.068 -1.18,1.598 -3.84,1.656 -6.052,0.177 z"
     id="path856" />
  <path
     style="fill:#231f20;fill-opacity:1;fill-rule:nonzero;stroke:none"
     d="m 227.14132,66.416653 c 1.87,-1.261 2.42,-1.25 2.99,-0.49 0.4,0.505 0.93,0.833 1.18,1.131 0.85,0.983 1.86,3 3.23,9.437 0.31,1.453 0.76,3.5 1.01,4.322 0.39,1.303 -2.04,1.079 -2.2,0.563 -0.52,-1.631 -1,-2.704 -1.26,-3.27 -0.19,-0.386 -0.41,-1.11 -1.32,-2.516 -1.37,-2.12 -2.5,-3.194 -3.43,-5.094 -0.44,-0.881 -1.32,-1.271 -1.3,-2.354 0.01,-1.083 1.1,-1.729 1.1,-1.729"
     id="path857" />
  <path
     style="fill:none;stroke:#231f20;stroke-width:0.565977;stroke-linecap:butt;stroke-linejoin:miter;stroke-miterlimit:4;stroke-dasharray:none;stroke-opacity:1"
     d="m 227.14132,66.416653 c 1.87,-1.261 2.42,-1.25 2.99,-0.49 0.4,0.505 0.93,0.833 1.18,1.131 0.85,0.983 1.86,3 3.23,9.437 0.31,1.453 0.76,3.5 1.01,4.322 0.39,1.303 -2.04,1.079 -2.2,0.563 -0.52,-1.631 -1,-2.704 -1.26,-3.27 -0.19,-0.386 -0.41,-1.11 -1.32,-2.516 -1.37,-2.12 -2.5,-3.194 -3.43,-5.094 -0.44,-0.881 -1.32,-1.271 -1.3,-2.354 0.01,-1.083 1.1,-1.729 1.1,-1.729 z"
     id="path858" />
  <path
     style="fill:#231f20;fill-opacity:1;fill-rule:nonzero;stroke:#231f20;stroke-width:0.565977;stroke-linecap:round;stroke-linejoin:round;stroke-miterlimit:4;stroke-dasharray:none;stroke-opacity:1"
     d="m 226.27132,68.786653 c -0.63,-1.272 0.73,-2.948 0.81,-3.272 1.14,-4.886001 1.35,-5.208001 2.48,-8.859001 1.63,-5.281 3.56,-8.65 6.91,-8.604 2.27,0.047 3.57,1.058 4.03,2.287 0.51,1.364 0.14,4.52 -2.46,5.765 l -0.92,1.448 c -0.5,1.052 -0.76,1.568 -0.97,2.099 -0.35,0.932 -0.79,1.916001 -1.58,3.708001 -1.42,3.177 -3.95,6.068 -3.95,6.068 -0.13,0.276 -0.35,0.453 -0.6,0.568"
     id="path859" />
  <path
     style="fill:#fab41d;fill-opacity:1;fill-rule:nonzero;stroke:none"
     d="m 240.51132,50.197652 c -0.47,-1.23 -1.77,-2.23 -4.04,-2.255 -2.64,-0.043 -4.4,2.057 -5.81,5.546 l 7.41,2.485 c 2.6,-1.25 2.96,-4.411 2.44,-5.776"
     id="path860" />
  <path
     style="fill:none;stroke:#231f20;stroke-width:0.565977;stroke-linecap:butt;stroke-linejoin:miter;stroke-miterlimit:4;stroke-dasharray:none;stroke-opacity:1"
     d="m 240.51132,50.197652 c -0.47,-1.23 -1.77,-2.23 -4.04,-2.255 -2.64,-0.043 -4.4,2.057 -5.81,5.546 l 7.41,2.485 c 2.6,-1.25 2.96,-4.411 2.44,-5.776 z"
     id="path861" />
  <path
     style="fill:#231f20;fill-opacity:1;fill-rule:nonzero;stroke:none"
     d="m 211.78132,57.629652 c 0.614,-0.172 1.692,-1.802 3.025,-2.703 0.895,-0.609 2.335,-2.943 3.275,-3.484 0.87,-0.5 1.21,-0.803 0.81,-1.88 -0.23,-0.646 -1.1,-1.724 -1.59,-1.574 -1.13,0.365 -1.848,0.974 -2.5,1.818 -0.734,0.969 -2.51,3.765 -2.786,4.308 -0.693,1.359 -1.36,1.672 -1.584,2.009 -0.406,0.647 -0.249,0.959 0.099,1.319 0.688,0.672 1.251,0.187 1.251,0.187"
     id="path862" />
  <path
     style="fill:none;stroke:#231f20;stroke-width:0.565977;stroke-linecap:butt;stroke-linejoin:miter;stroke-miterlimit:4;stroke-dasharray:none;stroke-opacity:1"
     d="m 211.78132,57.629652 c 0.614,-0.172 1.692,-1.802 3.025,-2.703 0.895,-0.609 2.335,-2.943 3.275,-3.484 0.87,-0.5 1.21,-0.803 0.81,-1.88 -0.23,-0.646 -1.1,-1.724 -1.59,-1.574 -1.13,0.365 -1.848,0.974 -2.5,1.818 -0.734,0.969 -2.51,3.765 -2.786,4.308 -0.693,1.359 -1.36,1.672 -1.584,2.009 -0.406,0.647 -0.249,0.959 0.099,1.319 0.688,0.672 1.251,0.187 1.251,0.187 z"
     id="path863" />
  <path
     style="fill:#231f20;fill-opacity:1;fill-rule:nonzero;stroke:none"
     d="m 218.04132,50.759652 c 1.08,0.724 1.89,-1.141 2.18,-1.593 0.28,-0.469 1.26,-1.688 2.14,-2.532 0.88,-0.853 1.61,-2.292 3.28,-3.911 0.87,-0.854 1.19,-2.24 -0.1,-3.458 -1.28,-1.208 -2.44,-0.943 -3.34,0.249 -0.91,1.188 -1.25,2.693 -2.09,3.953 -0.82,1.271 -1.78,2.48 -2.59,3.391 -0.91,1.047 -0.97,1.891 -0.76,2.317 0.52,1.079 1.28,1.584 1.28,1.584"
     id="path864" />
  <path
     style="fill:none;stroke:#231f20;stroke-width:0.565977;stroke-linecap:butt;stroke-linejoin:miter;stroke-miterlimit:4;stroke-dasharray:none;stroke-opacity:1"
     d="m 218.04132,50.759652 c 1.08,0.724 1.89,-1.141 2.18,-1.593 0.28,-0.469 1.26,-1.688 2.14,-2.532 0.88,-0.853 1.61,-2.292 3.28,-3.911 0.87,-0.854 1.19,-2.24 -0.1,-3.458 -1.28,-1.208 -2.44,-0.943 -3.34,0.249 -0.91,1.188 -1.25,2.693 -2.09,3.953 -0.82,1.271 -1.78,2.48 -2.59,3.391 -0.91,1.047 -0.97,1.891 -0.76,2.317 0.52,1.079 1.28,1.584 1.28,1.584 z"
     id="path865" />
  <path
     style="fill:#231f20;fill-opacity:1;fill-rule:nonzero;stroke:none"
     d="m 206.94232,62.040653 c 0.687,-0.276 3.109,-2.442001 3.635,-2.969001 0.474,-0.457 1.51,-0.962 1.13,-2.057 -0.13,-0.443 -0.666,-0.984 -0.937,-1.14 -0.229,-0.136 -0.521,0.011 -0.771,0.312 -0.437,0.505 -0.37,0.823 -1.141,1.838 0,0 -0.145,0.266 -0.369,0.771 -0.694,1.475 -0.251,0.886 -1.735,2.803001 -0.104,0.135 -0.047,0.338 0.052,0.401 0.152,0.099 0.136,0.041 0.136,0.041"
     id="path866" />
  <path
     style="fill:none;stroke:#231f20;stroke-width:0.565977;stroke-linecap:round;stroke-linejoin:round;stroke-miterlimit:4;stroke-dasharray:none;stroke-opacity:1"
     d="m 206.94232,62.040653 c 0.687,-0.276 3.109,-2.442001 3.635,-2.969001 0.474,-0.457 1.51,-0.962 1.13,-2.057 -0.13,-0.443 -0.666,-0.984 -0.937,-1.14 -0.229,-0.136 -0.521,0.011 -0.771,0.312 -0.437,0.505 -0.37,0.823 -1.141,1.838 0,0 -0.145,0.266 -0.369,0.771 -0.694,1.475 -0.251,0.886 -1.735,2.803001 -0.104,0.135 -0.047,0.338 0.052,0.401 0.152,0.099 0.136,0.041 0.136,0.041 z"
     id="path867" />
  <path
     style="fill:#231f20;fill-opacity:1;fill-rule:nonzero;stroke:none"
     d="m 237.08132,82.852653 c 0.58,-1.224 -0.1,-1.942 -1.13,-2.052 -0.31,-0.03 -0.54,-0.385 -0.85,-0.395 -0.7,-0.01 -1.92,1.234 -1.13,2.521 0.05,0.083 0.25,0.885 0.48,1.453 0.48,1.12 1.96,3.13 4.63,3.511 1.26,0.176 1.13,-0.605 0.65,-0.833 -1.55,-0.715 -1.55,-1.084 -1.89,-1.429 -1.16,-1.14 -0.76,-2.776 -0.76,-2.776"
     id="path868" />
  <path
     style="fill:none;stroke:#231f20;stroke-width:0.332927;stroke-linecap:butt;stroke-linejoin:miter;stroke-miterlimit:4;stroke-dasharray:none;stroke-opacity:1"
     d="m 237.08132,82.852653 c 0.58,-1.224 -0.1,-1.942 -1.13,-2.052 -0.31,-0.03 -0.54,-0.385 -0.85,-0.395 -0.7,-0.01 -1.92,1.234 -1.13,2.521 0.05,0.083 0.25,0.885 0.48,1.453 0.48,1.12 1.96,3.13 4.63,3.511 1.26,0.176 1.13,-0.605 0.65,-0.833 -1.55,-0.715 -1.55,-1.084 -1.89,-1.429 -1.16,-1.14 -0.76,-2.776 -0.76,-2.776 z"
     id="path869" />
  <path
     style="fill:#ffffff;fill-opacity:1;fill-rule:nonzero;stroke:none"
     d="m 151.28132,32.781652 c -0.162,0.17 -1.355,0.29 -0.438,1.218 0.916,0.927 1.458,0.234 2.058,-0.302 0.541,-0.49 2.312,-1.167 4.009,-1.25 0.011,-0.37 -0.015,-0.734 -0.145,-1.084 -0.683,-1.869 -3.219,-2.677 -5.76,-1.885 -0.24,0.057 -0.798,-0.948 -1.266,-0.729 -0.485,0.218 -0.344,1 -1.62,2.526 l -0.016,0.015 c -0.145,0.163 -0.27,0.328 -0.39,0.496 0.021,0.047 0.046,0.083 0.062,0.14 0.375,1.213 3.667,0.688 3.506,0.855"
     id="path870" />
  <path
     style="fill:none;stroke:#231f20;stroke-width:0.565977;stroke-linecap:butt;stroke-linejoin:miter;stroke-miterlimit:4;stroke-dasharray:none;stroke-opacity:1"
     d="m 151.28132,32.781652 c -0.162,0.17 -1.355,0.29 -0.438,1.218 0.916,0.927 1.458,0.234 2.058,-0.302 0.541,-0.49 2.312,-1.167 4.009,-1.25 0.011,-0.37 -0.015,-0.734 -0.145,-1.084 -0.683,-1.869 -3.219,-2.677 -5.76,-1.885 -0.24,0.057 -0.798,-0.948 -1.266,-0.729 -0.485,0.218 -0.344,1 -1.62,2.526 l -0.016,0.015 c -0.145,0.163 -0.27,0.328 -0.39,0.496 0.021,0.047 0.046,0.083 0.062,0.14 0.375,1.213 3.667,0.688 3.506,0.855 z"
     id="path871" />
  <path
     style="fill:#231f20;fill-opacity:1;fill-rule:nonzero;stroke:none"
     d="m 147.16132,34.874652 c 0.713,1.959 3.525,3.755 6.172,2.792 2.182,-0.803 3.52,-3.547 3.577,-5.219 -1.697,0.083 -3.468,0.76 -4.009,1.25 -0.6,0.536 -1.142,1.229 -2.058,0.302 -0.917,-0.928 0.276,-1.048 0.438,-1.218 0.161,-0.167 -3.131,0.358 -3.506,-0.855 -0.016,-0.057 -0.041,-0.093 -0.062,-0.14 -0.678,0.979 -0.922,2.088 -0.552,3.088"
     id="path872" />
  <path
     style="fill:none;stroke:#231f20;stroke-width:0.565977;stroke-linecap:butt;stroke-linejoin:miter;stroke-miterlimit:4;stroke-dasharray:none;stroke-opacity:1"
     d="m 147.16132,34.874652 c 0.713,1.959 3.525,3.755 6.172,2.792 2.182,-0.803 3.52,-3.547 3.577,-5.219 -1.697,0.083 -3.468,0.76 -4.009,1.25 -0.6,0.536 -1.142,1.229 -2.058,0.302 -0.917,-0.928 0.276,-1.048 0.438,-1.218 0.161,-0.167 -3.131,0.358 -3.506,-0.855 -0.016,-0.057 -0.041,-0.093 -0.062,-0.14 -0.678,0.979 -0.922,2.088 -0.552,3.088 z"
     id="path873" />
  <path
     style="fill:#231f20;fill-opacity:1;fill-rule:nonzero;stroke:none"
     d="m 199.51032,8.4836518 c -0.652,-0.145 -1.677,1.334 -3.589,1.8070002 -0.391,0.1 -0.662,0.355 -0.963,0.568 -1.245,0.871 -1.885,2.328 1.943,2.385 0.53,0.006 2.452,-0.833 3.233,-0.76 1.855,0.183 4.328,-2.041 4.073,-2.5000002 -0.521,-0.989 -4.697,-1.5 -4.697,-1.5"
     id="path874" />
  <path
     style="fill:none;stroke:#231f20;stroke-width:0.644548;stroke-linecap:round;stroke-linejoin:round;stroke-miterlimit:4;stroke-dasharray:none;stroke-opacity:1"
     d="m 199.51032,8.4836518 c -0.652,-0.145 -1.677,1.334 -3.589,1.8070002 -0.391,0.1 -0.662,0.355 -0.963,0.568 -1.245,0.871 -1.885,2.328 1.943,2.385 0.53,0.006 2.452,-0.833 3.233,-0.76 1.855,0.183 4.328,-2.041 4.073,-2.5000002 -0.521,-0.989 -4.697,-1.5 -4.697,-1.5 z"
     id="path875" />
  <path
     style="fill:#231f20;fill-opacity:1;fill-rule:nonzero;stroke:none"
     d="m 166.49932,31.223652 c -2.489,-2.605 -1.073,-3.51 1.088,-6.969 2.366,-3.781 5.24,-7.468 7.932,-9.375 3.016,-2.12 2.876,-2.625 4.59,-1.765 1.718,0.853 1.39,1.561 1.62,2.828 0.27,1.468 -5.522,6 -7.896,10.12 -1.115,1.927 -2.532,7.265 -3.923,6.859 -1.395,-0.416 -3.411,-1.698 -3.411,-1.698"
     id="path876" />
  <path
     style="fill:none;stroke:#231f20;stroke-width:0.565977;stroke-linecap:butt;stroke-linejoin:miter;stroke-miterlimit:4;stroke-dasharray:none;stroke-opacity:1"
     d="m 166.49932,31.223652 c -2.489,-2.605 -1.073,-3.51 1.088,-6.969 2.366,-3.781 5.24,-7.468 7.932,-9.375 3.016,-2.12 2.876,-2.625 4.59,-1.765 1.718,0.853 1.39,1.561 1.62,2.828 0.27,1.468 -5.522,6 -7.896,10.12 -1.115,1.927 -2.532,7.265 -3.923,6.859 -1.395,-0.416 -3.411,-1.698 -3.411,-1.698 z"
     id="path877" />
  <path
     style="fill:#231f20;fill-opacity:1;fill-rule:nonzero;stroke:none"
     d="m 178.77532,15.598652 c -0.808,-2.115 -1.068,-2.719 1.386,-3.229 0.625,-0.126 2.385,-0.36 2.729,-0.542 1.151,-0.598 2.536,-1.193 9.12,-1.073 1.025,0.016 2.979,-0.287 4.375,-0.385 1.354,-0.088 0.593,2.218 0.062,2.26 -1.708,0.141 -2.781,0.604 -3.385,0.729 -0.423,0.095 -1.224,0.131 -2.713,0.875 -3.83,1.912 -5.448,1.125 -6.287,1.458 -2.407,0.948 -4.261,2.251 -4.713,1.762 -0.735,-0.792 -0.574,-1.855 -0.574,-1.855"
     id="path878" />
  <path
     style="fill:none;stroke:#231f20;stroke-width:0.565977;stroke-linecap:butt;stroke-linejoin:miter;stroke-miterlimit:4;stroke-dasharray:none;stroke-opacity:1"
     d="m 178.77532,15.598652 c -0.808,-2.115 -1.068,-2.719 1.386,-3.229 0.625,-0.126 2.385,-0.36 2.729,-0.542 1.151,-0.598 2.536,-1.193 9.12,-1.073 1.025,0.016 2.979,-0.287 4.375,-0.385 1.354,-0.088 0.593,2.218 0.062,2.26 -1.708,0.141 -2.781,0.604 -3.385,0.729 -0.423,0.095 -1.224,0.131 -2.713,0.875 -3.83,1.912 -5.448,1.125 -6.287,1.458 -2.407,0.948 -4.261,2.251 -4.713,1.762 -0.735,-0.792 -0.574,-1.855 -0.574,-1.855 z"
     id="path879" />
  <path
     style="fill:#231f20;fill-opacity:1;fill-rule:nonzero;stroke:none"
     d="m 170.68232,34.453652 c 3.088,1.858 3.661,0.28 6.561,-2.59 3.172,-3.134 6.147,-6.744 7.412,-9.792 1.418,-3.405 1.938,-3.374 0.724,-4.869 -1.213,-1.484 -1.828,-1.011 -3.114,-0.959 -1.495,0.063 -4.651,6.704 -8.146,9.918 -1.641,1.51 -6.548,4.062 -5.833,5.328 0.708,1.27 2.396,2.964 2.396,2.964"
     id="path880" />
  <path
     style="fill:none;stroke:#231f20;stroke-width:0.565977;stroke-linecap:butt;stroke-linejoin:miter;stroke-miterlimit:4;stroke-dasharray:none;stroke-opacity:1"
     d="m 170.68232,34.453652 c 3.088,1.858 3.661,0.28 6.561,-2.59 3.172,-3.134 6.147,-6.744 7.412,-9.792 1.418,-3.405 1.938,-3.374 0.724,-4.869 -1.213,-1.484 -1.828,-1.011 -3.114,-0.959 -1.495,0.063 -4.651,6.704 -8.146,9.918 -1.641,1.51 -6.548,4.062 -5.833,5.328 0.708,1.27 2.396,2.964 2.396,2.964 z"
     id="path881" />
  <path
     style="fill:#231f20;fill-opacity:1;fill-rule:nonzero;stroke:none"
     d="m 179.68232,19.999652 c 0.391,2.23 0.473,2.886 2.843,2.067 0.6,-0.208 2.234,-0.9 2.625,-0.927 1.292,-0.073 2.787,-0.27 8.391,-3.724 0.869,-0.541 2.702,-1.276 3.958,-1.906 1.208,-0.614 -0.625,-2.214 -1.104,-1.974 -1.537,0.75 -2.693,0.902 -3.286,1.094 -0.407,0.136 -1.115,0.516 -2.776,0.636 -4.271,0.312 -5.26,1.812 -6.151,1.958 -2.548,0.406 -4.813,0.234 -4.953,0.886 -0.224,1.062 0.453,1.89 0.453,1.89"
     id="path882" />
  <path
     style="fill:none;stroke:#231f20;stroke-width:0.565977;stroke-linecap:butt;stroke-linejoin:miter;stroke-miterlimit:4;stroke-dasharray:none;stroke-opacity:1"
     d="m 179.68232,19.999652 c 0.391,2.23 0.473,2.886 2.843,2.067 0.6,-0.208 2.234,-0.9 2.625,-0.927 1.292,-0.073 2.787,-0.27 8.391,-3.724 0.869,-0.541 2.702,-1.276 3.958,-1.906 1.208,-0.614 -0.625,-2.214 -1.104,-1.974 -1.537,0.75 -2.693,0.902 -3.286,1.094 -0.407,0.136 -1.115,0.516 -2.776,0.636 -4.271,0.312 -5.26,1.812 -6.151,1.958 -2.548,0.406 -4.813,0.234 -4.953,0.886 -0.224,1.062 0.453,1.89 0.453,1.89 z"
     id="path883" />
  <path
     style="fill:#231f20;fill-opacity:1;fill-rule:nonzero;stroke:none"
     d="m 201.10932,16.369652 c -0.506,0.426 -2.11,-0.407 -4.022,0.062 -0.39,0.094 -0.749,-0.01 -1.12,-0.057 -1.5,-0.193 -2.749,-1.188 0.615,-3.016 0.464,-0.249 2.557,-0.396 3.219,-0.823 1.557,-1.026 4.781,-0.202 4.77,0.318 -0.004,1.12 -3.462,3.516 -3.462,3.516"
     id="path884" />
  <path
     style="fill:none;stroke:#231f20;stroke-width:0.644548;stroke-linecap:round;stroke-linejoin:round;stroke-miterlimit:4;stroke-dasharray:none;stroke-opacity:1"
     d="m 201.10932,16.369652 c -0.506,0.426 -2.11,-0.407 -4.022,0.062 -0.39,0.094 -0.749,-0.01 -1.12,-0.057 -1.5,-0.193 -2.749,-1.188 0.615,-3.016 0.464,-0.249 2.557,-0.396 3.219,-0.823 1.557,-1.026 4.781,-0.202 4.77,0.318 -0.004,1.12 -3.462,3.516 -3.462,3.516 z"
     id="path885" />
  <path
     style="fill:#fab41d;fill-opacity:1;fill-rule:nonzero;stroke:none"
     d="m 173.12932,34.713652 c -3.318,2.234 -6.802,2.672 -11.276,2.604 -2.588,-0.036 -4.11,-0.735 -5.042,-1.766 0,0 -1.27,-0.292 -1.645,-7.078 -0.151,-2.714 2.484,-2.964 2.484,-2.964 0.396,-0.01 2.469,1.36 4.573,1.209 3.76,-0.256 6.38,-3.625 6.38,-3.625 4.818,7.145 4.526,11.62 4.526,11.62"
     id="path886" />
  <path
     style="fill:none;stroke:#231f20;stroke-width:0.565977;stroke-linecap:butt;stroke-linejoin:miter;stroke-miterlimit:4;stroke-dasharray:none;stroke-opacity:1"
     d="m 173.12932,34.713652 c -3.318,2.234 -6.802,2.672 -11.276,2.604 -2.588,-0.036 -4.11,-0.735 -5.042,-1.766 0,0 -1.27,-0.292 -1.645,-7.078 -0.151,-2.714 2.484,-2.964 2.484,-2.964 0.396,-0.01 2.469,1.36 4.573,1.209 3.76,-0.256 6.38,-3.625 6.38,-3.625 4.818,7.145 4.526,11.62 4.526,11.62 z"
     id="path887" />
  <path
     style="fill:#fab41d;fill-opacity:1;fill-rule:nonzero;stroke:none"
     d="m 172.15032,36.005652 c 2.099,-0.563 4.199,-1.73 4.803,-2.391 1.817,-1.975 -3.292,-5.453 -3.292,-5.453 l -1.151,-0.095 c -0.136,-0.088 -0.115,-0.145 -0.115,-0.145 l 0.115,-1.298 c 0,0 -1.5,-5.41 -4.021,-4.254 -0.88,0.396 -2.823,2.921 -3.454,4.62 -0.344,0.926 -1.421,2.718 1.448,6.286 2.812,3.5 5.334,2.818 5.667,2.73"
     id="path888" />
  <path
     style="fill:none;stroke:#231f20;stroke-width:0.565977;stroke-linecap:butt;stroke-linejoin:miter;stroke-miterlimit:4;stroke-dasharray:none;stroke-opacity:1"
     d="m 172.15032,36.005652 c 2.099,-0.563 4.199,-1.73 4.803,-2.391 1.817,-1.975 -3.292,-5.453 -3.292,-5.453 l -1.151,-0.095 c -0.136,-0.088 -0.115,-0.145 -0.115,-0.145 l 0.115,-1.298 c 0,0 -1.5,-5.41 -4.021,-4.254 -0.88,0.396 -2.823,2.921 -3.454,4.62 -0.344,0.926 -1.421,2.718 1.448,6.286 2.812,3.5 5.334,2.818 5.667,2.73 z"
     id="path889" />
  <path
     style="fill:none;stroke:#231f20;stroke-width:0.467431;stroke-linecap:round;stroke-linejoin:round;stroke-miterlimit:4;stroke-dasharray:none;stroke-opacity:1"
     d="m 174.20232,30.691652 c -0.151,-1.552 -1.869,-2.666 -1.869,-2.666 -0.719,-1.626 -1.995,-2.432 -1.995,-2.432"
     id="path890" />
  <path
     style="fill:none;stroke:#231f20;stroke-width:0.399514;stroke-linecap:butt;stroke-linejoin:miter;stroke-miterlimit:4;stroke-dasharray:none;stroke-opacity:1"
     d="m 197.65032,21.557652 c -10.588,-24.2820002 -23.016,-19.6000002 -23.301,-11.188"
     id="path891" />
  <path
     style="fill:#231f20;fill-opacity:1;fill-rule:nonzero;stroke:none"
     d="m 174.30632,11.571652 c -0.192,-0.572 -0.525,-1.286 -0.891,-1.7380002 l 0.938,0.3800002 0.964,-0.3140002 c -0.396,0.4230002 -0.782,1.1150002 -1.011,1.6720002"
     id="path892" />
</svg>
