<?xml version="1.0" encoding="UTF-8" standalone="no"?>
<!-- Created with Inkscape (http://www.inkscape.org/) -->

<svg
   version="1.1"
   id="svg1"
   width="341.13965"
   height="86.661263"
   viewBox="0 0 341.13963 86.661262"
   sodipodi:docname="cell.svg"
   xmlns:inkscape="http://www.inkscape.org/namespaces/inkscape"
   xmlns:sodipodi="http://sodipodi.sourceforge.net/DTD/sodipodi-0.dtd"
   xmlns="http://www.w3.org/2000/svg"
   xmlns:svg="http://www.w3.org/2000/svg">
  <sodipodi:namedview
     id="namedview1"
     pagecolor="#ffffff"
     bordercolor="#000000"
     borderopacity="0.25"
     inkscape:showpageshadow="2"
     inkscape:pageopacity="0.0"
     inkscape:pagecheckerboard="0"
     inkscape:deskcolor="#d1d1d1">
    <inkscape:page
       x="0"
       y="0"
       inkscape:label="1"
       id="page1"
       width="341.13962"
       height="86.661263"
       margin="0"
       bleed="0" />
  </sodipodi:namedview>
  <defs
     id="defs1" />
  <path
     style="fill:#fab41d;fill-opacity:1;fill-rule:nonzero;stroke:none"
     d="m 23.124993,26.11449 c -2.1614,2.266 -2.8744,2.52 -3.7186,2.886 -5.3063,2.286 -4.0824,4.854 -1.6719,6.421 2.8385,1.86 3.8239,2.584 7.7093,-2.369 1.0776,-1.375 5.9109,-6.12 5.9109,-6.12 1.9583,-1.467999 3.0932,-3.942999 2.7864,-5.363999 -0.3333,-1.5 -0.312,-0.886 -0.864,-2.21 -0.5317,-1.276 -2.2813,-2.588 -3.4854,-2.312 -1.1558,0.26 -1.6771,1.844 -2.7129,4.031 -0.8282,1.729 -3.9538,5.036999 -3.9538,5.036999"
     id="path320" />
  <path
     style="fill:none;stroke:#231f20;stroke-width:0.565977;stroke-linecap:butt;stroke-linejoin:miter;stroke-miterlimit:4;stroke-dasharray:none;stroke-opacity:1"
     d="m 23.124993,26.11449 c -2.1614,2.266 -2.8744,2.52 -3.7186,2.886 -5.3063,2.286 -4.0824,4.854 -1.6719,6.421 2.8385,1.86 3.8239,2.584 7.7093,-2.369 1.0776,-1.375 5.9109,-6.12 5.9109,-6.12 1.9583,-1.467999 3.0932,-3.942999 2.7864,-5.363999 -0.3333,-1.5 -0.312,-0.886 -0.864,-2.21 -0.5317,-1.276 -2.2813,-2.588 -3.4854,-2.312 -1.1558,0.26 -1.6771,1.844 -2.7129,4.031 -0.8282,1.729 -3.9538,5.036999 -3.9538,5.036999 z"
     id="path321" />
  <path
     style="fill:#ffffff;fill-opacity:1;fill-rule:nonzero;stroke:none"
     d="m 39.250593,16.858491 c 0.188,-0.156 1.1249,0.522 1.4583,0.12 0.3442,-0.405 -0.125,-1.052 0.3912,-2.973 l 0.0052,-0.021 c 0.4161,-1.391 0.2186,-2.771 -0.6719,-3.651 -1.4803,-1.464 -4.2871,-1.016 -6.2709,0.989 -1.9906,2.006 -2.3958,4.818 -0.9228,6.282 1.4066,1.401 4.0468,1.052 6.0109,-0.746"
     id="path322" />
  <path
     style="fill:none;stroke:#231f20;stroke-width:0.565977;stroke-linecap:butt;stroke-linejoin:miter;stroke-miterlimit:4;stroke-dasharray:none;stroke-opacity:1"
     d="m 39.250593,16.858491 c 0.188,-0.156 1.1249,0.522 1.4583,0.12 0.3442,-0.405 -0.125,-1.052 0.3912,-2.973 l 0.0052,-0.021 c 0.4161,-1.391 0.2186,-2.771 -0.6719,-3.651 -1.4803,-1.464 -4.2871,-1.016 -6.2709,0.989 -1.9906,2.006 -2.3958,4.818 -0.9228,6.282 1.4066,1.401 4.0468,1.052 6.0109,-0.746 z"
     id="path323" />
  <path
     style="fill:#231f20;fill-opacity:1;fill-rule:nonzero;stroke:none"
     d="m 11.365193,51.72949 c -1.9693002,-1.109 -2.5052002,-1.057 -3.0213002,-0.251 -0.3532,0.538 -0.8532,0.907 -1.088,1.224 -0.7547,1.047 -1.5986,3.136 -2.4532,9.662 -0.1922,1.474 -0.4787,3.557 -0.6667,4.396 -0.276,1.322 2.1147,0.912 2.2396,0.385 0.3855,-1.672 0.7817,-2.781 1,-3.369 0.1511,-0.396 0.3229,-1.142 1.1151,-2.61 1.1917,-2.229 2.2344002,-3.385 3.0052002,-5.354 0.3693,-0.911 1.2188,-1.37 1.1094,-2.448 -0.0948,-1.078 -1.2401,-1.635 -1.2401,-1.635"
     id="path324" />
  <path
     style="fill:none;stroke:#231f20;stroke-width:0.565977;stroke-linecap:butt;stroke-linejoin:miter;stroke-miterlimit:4;stroke-dasharray:none;stroke-opacity:1"
     d="m 11.365193,51.72949 c -1.9693002,-1.109 -2.5052002,-1.057 -3.0213002,-0.251 -0.3532,0.538 -0.8532,0.907 -1.088,1.224 -0.7547,1.047 -1.5986,3.136 -2.4532,9.662 -0.1922,1.474 -0.4787,3.557 -0.6667,4.396 -0.276,1.322 2.1147,0.912 2.2396,0.385 0.3855,-1.672 0.7817,-2.781 1,-3.369 0.1511,-0.396 0.3229,-1.142 1.1151,-2.61 1.1917,-2.229 2.2344002,-3.385 3.0052002,-5.354 0.3693,-0.911 1.2188,-1.37 1.1094,-2.448 -0.0948,-1.078 -1.2401,-1.635 -1.2401,-1.635 z"
     id="path325" />
  <path
     style="fill:#231f20;fill-opacity:1;fill-rule:nonzero;stroke:#231f20;stroke-width:0.565977;stroke-linecap:round;stroke-linejoin:round;stroke-miterlimit:4;stroke-dasharray:none;stroke-opacity:1"
     d="m 11.943893,54.16649 c 1.364,-0.39 1.6864,-2.521 1.8801,-2.802 2.8438,-4.13 2.937,-4.506 4.8693,-7.796 2.8079,-4.767 3.9891,-8.464 1.6984,-10.907 -1.5625,-1.651 -3.1771,-1.927 -4.4011,-1.443 -1.3546,0.542 -3.4322,2.948 -2.5989,5.708 l -0.4478,1.656 c -0.4386,1.074 -0.6522,1.61 -0.9016,2.126 -0.4583,0.89 -0.885,1.88 -1.6719,3.677 -1.3907002,3.183 -1.8224002,7 -1.8224002,7 -0.1203,0.287 -0.1093,0.568 -0.0213,0.823"
     id="path326" />
  <path
     style="fill:#fab41d;fill-opacity:1;fill-rule:nonzero;stroke:none"
     d="m 20.766793,32.50049 c -1.5522,-1.656 -3.1667,-1.948 -4.3912,-1.464 -1.3599,0.537 -3.4479,2.932 -2.6197,5.698 l 6.8281,3.796 c 1.6249,-3.39 1.9948,-6.098 0.1828,-8.03"
     id="path327" />
  <path
     style="fill:none;stroke:#231f20;stroke-width:0.565977;stroke-linecap:butt;stroke-linejoin:miter;stroke-miterlimit:4;stroke-dasharray:none;stroke-opacity:1"
     d="m 20.766793,32.50049 c -1.5522,-1.656 -3.1667,-1.948 -4.3912,-1.464 -1.3599,0.537 -3.4479,2.932 -2.6197,5.698 l 6.8281,3.796 c 1.6249,-3.39 1.9948,-6.098 0.1828,-8.03 z"
     id="path328" />
  <path
     style="fill:#231f20;fill-opacity:1;fill-rule:nonzero;stroke:none"
     d="m 49.151493,11.734491 c -0.2812,0.578 -2.0728,1.354 -3.1932,2.506 -0.7599,0.781 -3.3011,1.796 -4,2.629 -0.6401,0.761 -1,1.047 -1.9948,0.469 -0.5932,-0.338 -1.5104,-1.385 -1.2702,-1.833 0.5521,-1.063 1.276,-1.661 2.224,-2.156 1.0838,-0.557 4.1451,-1.819 4.729,-2 1.4589,-0.437 1.8803,-1.043 2.2548,-1.204 0.7041,-0.287 0.9905,-0.088 1.2708,0.323 0.5531,0.797 -0.0204,1.266 -0.0204,1.266"
     id="path329" />
  <path
     style="fill:none;stroke:#231f20;stroke-width:0.565977;stroke-linecap:butt;stroke-linejoin:miter;stroke-miterlimit:4;stroke-dasharray:none;stroke-opacity:1"
     d="m 49.151493,11.734491 c -0.2812,0.578 -2.0728,1.354 -3.1932,2.506 -0.7599,0.781 -3.3011,1.796 -4,2.629 -0.6401,0.761 -1,1.047 -1.9948,0.469 -0.5932,-0.338 -1.5104,-1.385 -1.2702,-1.833 0.5521,-1.063 1.276,-1.661 2.224,-2.156 1.0838,-0.557 4.1451,-1.819 4.729,-2 1.4589,-0.437 1.8803,-1.043 2.2548,-1.204 0.7041,-0.287 0.9905,-0.088 1.2708,0.323 0.5531,0.797 -0.0204,1.266 -0.0204,1.266 z"
     id="path330" />
  <path
     style="fill:#231f20;fill-opacity:1;fill-rule:nonzero;stroke:none"
     d="m 41.422493,16.464491 c 0.5467,1.17 -1.4214,1.686 -1.9172,1.9 -0.5,0.214 -1.8538,0.99 -2.823,1.729 -0.9786,0.745 -2.5145,1.245 -4.3693,2.647 -0.9785,0.733 -2.3957,0.838 -3.3957,-0.626 -1,-1.453 -0.5625,-2.552 0.7505,-3.27 1.3171,-0.71 2.8536,-0.823 4.2333,-1.448 1.376,-0.626 2.7187,-1.391 3.7452,-2.042 1.1667,-0.74 2.0162,-0.677 2.4068,-0.401 0.9891,0.677 1.3694,1.511 1.3694,1.511"
     id="path331" />
  <path
     style="fill:none;stroke:#231f20;stroke-width:0.565977;stroke-linecap:butt;stroke-linejoin:miter;stroke-miterlimit:4;stroke-dasharray:none;stroke-opacity:1"
     d="m 41.422493,16.464491 c 0.5467,1.17 -1.4214,1.686 -1.9172,1.9 -0.5,0.214 -1.8538,0.99 -2.823,1.729 -0.9786,0.745 -2.5145,1.245 -4.3693,2.647 -0.9785,0.733 -2.3957,0.838 -3.3957,-0.626 -1,-1.453 -0.5625,-2.552 0.7505,-3.27 1.3171,-0.71 2.8536,-0.823 4.2333,-1.448 1.376,-0.626 2.7187,-1.391 3.7452,-2.042 1.1667,-0.74 2.0162,-0.677 2.4068,-0.401 0.9891,0.677 1.3694,1.511 1.3694,1.511 z"
     id="path332" />
  <path
     style="fill:#231f20;fill-opacity:1;fill-rule:nonzero;stroke:none"
     d="m 53.484793,6.557491 c -0.1666,0.713 -1.9582,3.427 -2.4009,4.025 -0.3907,0.538 -0.7401,1.642 -1.8751,1.423 -0.453,-0.068 -1.0677,-0.516 -1.2702,-0.765 -0.1615,-0.204 -0.0522,-0.516 0.2025,-0.814 0.4319,-0.505 0.7652,-0.478 1.6557,-1.385 0,0 0.2454,-0.192 0.7043,-0.484 1.3588,-0.907 0.8427,-0.375 2.5255,-2.125 0.1145,-0.126 0.3224,-0.094 0.401,-0.016 0.1203,0.141 0.0572,0.141 0.0572,0.141"
     id="path333" />
  <path
     style="fill:none;stroke:#231f20;stroke-width:0.565977;stroke-linecap:round;stroke-linejoin:round;stroke-miterlimit:4;stroke-dasharray:none;stroke-opacity:1"
     d="m 53.484793,6.557491 c -0.1666,0.713 -1.9582,3.427 -2.4009,4.025 -0.3907,0.538 -0.7401,1.642 -1.8751,1.423 -0.453,-0.068 -1.0677,-0.516 -1.2702,-0.765 -0.1615,-0.204 -0.0522,-0.516 0.2025,-0.814 0.4319,-0.505 0.7652,-0.478 1.6557,-1.385 0,0 0.2454,-0.192 0.7043,-0.484 1.3588,-0.907 0.8427,-0.375 2.5255,-2.125 0.1145,-0.126 0.3224,-0.094 0.401,-0.016 0.1203,0.141 0.0572,0.141 0.0572,0.141 z"
     id="path334" />
  <path
     style="fill:#231f20;fill-opacity:1;fill-rule:nonzero;stroke:none"
     d="m 2.7771928,68.90649 c -0.6771,-1.172 -0.0521,-1.942 0.9625,-2.13 0.3083,-0.058 0.5058,-0.427 0.8135,-0.459 0.7027,-0.072 2.0093,1.073 1.3333,2.412 -0.0478,0.099 -0.1776,0.905 -0.3708,1.495 -0.3797,1.15 -1.6974,3.276 -4.3333,3.864 -1.23849996,0.281 -1.17179996,-0.51 -0.70779996,-0.776 1.48899996,-0.839 1.45309996,-1.208 1.76509996,-1.572 1.063,-1.23 0.5375,-2.834 0.5375,-2.834"
     id="path335" />
  <path
     style="fill:none;stroke:#231f20;stroke-width:0.332927;stroke-linecap:butt;stroke-linejoin:miter;stroke-miterlimit:4;stroke-dasharray:none;stroke-opacity:1"
     d="m 2.7771928,68.90649 c -0.6771,-1.172 -0.0521,-1.942 0.9625,-2.13 0.3083,-0.058 0.5058,-0.427 0.8135,-0.459 0.7027,-0.072 2.0093,1.073 1.3333,2.412 -0.0478,0.099 -0.1776,0.905 -0.3708,1.495 -0.3797,1.15 -1.6974,3.276 -4.3333,3.864 -1.23849996,0.281 -1.17179996,-0.51 -0.70779996,-0.776 1.48899996,-0.839 1.45309996,-1.208 1.76509996,-1.572 1.063,-1.23 0.5375,-2.834 0.5375,-2.834 z"
     id="path336" />
  <path
     style="fill:#231f20;fill-opacity:1;fill-rule:nonzero;stroke:none"
     d="m 58.953093,66.81249 c -2.2334,0.354 -2.6187,0.724 -2.5359,1.677 0.0572,0.636 -0.1043,1.251 -0.0881,1.636 0.0521,1.296 0.6813,3.448 4.0625,9.104 0.7599,1.281 1.8281,3.088 2.2027,3.859 0.5937,1.218 2.2186,-0.594 1.9896,-1.072 -0.7292,-1.552 -1.1147,-2.678 -1.2975,-3.272 -0.1292,-0.406 -0.452,-1.094 -0.7495,-2.734 -0.4426,-2.489 -0.3385,-4.046 -0.9478,-6.068 -0.2866,-0.942 0.0989,-1.833 -0.6454,-2.609 -0.7505,-0.787 -1.9906,-0.521 -1.9906,-0.521"
     id="path337" />
  <path
     style="fill:none;stroke:#231f20;stroke-width:0.565977;stroke-linecap:butt;stroke-linejoin:miter;stroke-miterlimit:4;stroke-dasharray:none;stroke-opacity:1"
     d="m 58.953093,66.81249 c -2.2334,0.354 -2.6187,0.724 -2.5359,1.677 0.0572,0.636 -0.1043,1.251 -0.0881,1.636 0.0521,1.296 0.6813,3.448 4.0625,9.104 0.7599,1.281 1.8281,3.088 2.2027,3.859 0.5937,1.218 2.2186,-0.594 1.9896,-1.072 -0.7292,-1.552 -1.1147,-2.678 -1.2975,-3.272 -0.1292,-0.406 -0.452,-1.094 -0.7495,-2.734 -0.4426,-2.489 -0.3385,-4.046 -0.9478,-6.068 -0.2866,-0.942 0.0989,-1.833 -0.6454,-2.609 -0.7505,-0.787 -1.9906,-0.521 -1.9906,-0.521 z"
     id="path338" />
  <path
     style="fill:#231f20;fill-opacity:1;fill-rule:nonzero;stroke:#231f20;stroke-width:0.565977;stroke-linecap:round;stroke-linejoin:miter;stroke-miterlimit:4;stroke-dasharray:none;stroke-opacity:1"
     d="m 61.031693,68.09849 c 0.088,-1.349 -1.5838,-2.478 -1.7494,-2.76 -2.5318,-4.322 -2.8292,-4.568 -4.9907,-7.724 -3.1197,-4.562 -5.9572,-7.208 -9.1401,-6.166 -2.1609,0.708 -3.0984,2.052 -3.1823,3.364 -0.088,1.458 1.2027,4.365 4.0626,4.781 l 1.3068,1.104 c 0.7864,0.86 1.1828,1.276 1.5369,1.729 0.6151,0.792 1.3281,1.595 2.6151,3.068 2.2865,2.615 5.5625,4.626 5.5625,4.626 0.2078,0.229 0.4682,0.338 0.7385,0.369"
     id="path339" />
  <path
     style="fill:#231f20;fill-opacity:1;fill-rule:nonzero;stroke:none"
     d="m 63.911993,86.05249 c -1.0417,0.297 -1.1923,-0.943 -1.3589,-2.162 -0.0479,-0.308 -0.1094,-0.589 -0.1307,-0.89 -0.0677,-1.224 0.4948,-2.11 3.0828,-0.604 0.0948,0.057 2.2197,0.577 2.8385,0.62 2.9806,0.213 2.9286,-0.626 2.9806,0.213 0.03,0.557 -0.443,0.729 -1.038,0.932 -0.812,0.276 -3.7494,1 -4.192,1.14 -0.4266,0.141 -2.1823,0.751 -2.1823,0.751"
     id="path340" />
  <path
     style="fill:none;stroke:#231f20;stroke-width:0.565977;stroke-linecap:butt;stroke-linejoin:miter;stroke-miterlimit:4;stroke-dasharray:none;stroke-opacity:1"
     d="m 63.911993,86.05249 c -1.0417,0.297 -1.1923,-0.943 -1.3589,-2.162 -0.0479,-0.308 -0.1094,-0.589 -0.1307,-0.89 -0.0677,-1.224 0.4948,-2.11 3.0828,-0.604 0.0948,0.057 2.2197,0.577 2.8385,0.62 2.9806,0.213 2.9286,-0.626 2.9806,0.213 0.03,0.557 -0.443,0.729 -1.038,0.932 -0.812,0.276 -3.7494,1 -4.192,1.14 -0.4266,0.141 -2.1823,0.751 -2.1823,0.751 z"
     id="path342" />
  <path
     style="fill:#ffffff;fill-opacity:1;fill-rule:nonzero;stroke:none"
     d="m 73.042293,51.88549 c 0.219,-0.099 0.948,0.792 1.375,0.489 0.426,-0.301 0.156,-1.041 1.136,-2.77 l 0.009,-0.022 c 0.767,-1.238 0.917,-2.618 0.281,-3.697 -1.052,-1.792 -3.88,-2.084 -6.312,-0.651 -2.4313,1.438 -3.5517,4.047 -2.4996,5.839 1.0104,1.713 3.6456,2.052 6.0106,0.812"
     id="path344" />
  <path
     style="fill:none;stroke:#231f20;stroke-width:0.565977;stroke-linecap:butt;stroke-linejoin:miter;stroke-miterlimit:4;stroke-dasharray:none;stroke-opacity:1"
     d="m 73.042293,51.88549 c 0.219,-0.099 0.948,0.792 1.375,0.489 0.426,-0.301 0.156,-1.041 1.136,-2.77 l 0.009,-0.022 c 0.767,-1.238 0.917,-2.618 0.281,-3.697 -1.052,-1.792 -3.88,-2.084 -6.312,-0.651 -2.4313,1.438 -3.5517,4.047 -2.4996,5.839 1.0104,1.713 3.6456,2.052 6.0106,0.812 z"
     id="path345" />
  <path
     style="fill:#fab41d;fill-opacity:1;fill-rule:nonzero;stroke:none"
     d="m 52.963493,51.46449 c -3.1197,0.328 -3.8224,0.052 -4.7025,-0.215 -5.5214,-1.697 -6.2558,1.048 -5.4371,3.813 0.9573,3.25 1.2344,4.438 7.4052,3.183 1.7147,-0.349 8.4745,-0.829 8.4745,-0.829 2.4427,0.157 4.9068,-1 5.588,-2.282 0.724,-1.353 0.3385,-0.869 0.7813,-2.244 0.4228,-1.312 -0.0625,-3.442 -1.1557,-4.016 -1.0469,-0.552 -2.4693,0.323 -4.6828,1.314 -1.7439,0.78 -6.2709,1.276 -6.2709,1.276"
     id="path346" />
  <path
     style="fill:none;stroke:#231f20;stroke-width:0.565977;stroke-linecap:butt;stroke-linejoin:miter;stroke-miterlimit:4;stroke-dasharray:none;stroke-opacity:1"
     d="m 52.963493,51.46449 c -3.1197,0.328 -3.8224,0.052 -4.7025,-0.215 -5.5214,-1.697 -6.2558,1.048 -5.4371,3.813 0.9573,3.25 1.2344,4.438 7.4052,3.183 1.7147,-0.349 8.4745,-0.829 8.4745,-0.829 2.4427,0.157 4.9068,-1 5.588,-2.282 0.724,-1.353 0.3385,-0.869 0.7813,-2.244 0.4228,-1.312 -0.0625,-3.442 -1.1557,-4.016 -1.0469,-0.552 -2.4693,0.323 -4.6828,1.314 -1.7439,0.78 -6.2709,1.276 -6.2709,1.276 z"
     id="path347" />
  <path
     style="fill:#231f20;fill-opacity:1;fill-rule:nonzero;stroke:none"
     d="m 77.182293,66.07349 c -0.64,-0.105 -1.891,-1.595 -3.322,-2.333 -0.959,-0.495 -2.672,-2.647 -3.667,-3.074 -0.916,-0.39 -1.298,-0.656 -1.031,-1.776 0.156,-0.666 0.896,-1.838 1.396,-1.745 1.167,0.224 1.957,0.751 2.703,1.516 0.844,0.869 2.932,3.443 3.276,3.948 0.844,1.271 1.547,1.495 1.801,1.812 0.48,0.589 0.37,0.917 0.057,1.313 -0.599,0.75 -1.213,0.339 -1.213,0.339"
     id="path348" />
  <path
     style="fill:none;stroke:#231f20;stroke-width:0.565977;stroke-linecap:butt;stroke-linejoin:miter;stroke-miterlimit:4;stroke-dasharray:none;stroke-opacity:1"
     d="m 77.182293,66.07349 c -0.64,-0.105 -1.891,-1.595 -3.322,-2.333 -0.959,-0.495 -2.672,-2.647 -3.667,-3.074 -0.916,-0.39 -1.298,-0.656 -1.031,-1.776 0.156,-0.666 0.896,-1.838 1.396,-1.745 1.167,0.224 1.957,0.751 2.703,1.516 0.844,0.869 2.932,3.443 3.276,3.948 0.844,1.271 1.547,1.495 1.801,1.812 0.48,0.589 0.37,0.917 0.057,1.313 -0.599,0.75 -1.213,0.339 -1.213,0.339 z"
     id="path349" />
  <path
     style="fill:#231f20;fill-opacity:1;fill-rule:nonzero;stroke:none"
     d="m 70.422293,60.03049 c -0.964,0.871 -2.021,-0.869 -2.3744,-1.281 -0.3495,-0.416 -1.4802,-1.484 -2.464,-2.208 -0.9896,-0.724 -1.9162,-2.047 -3.7975,-3.416 -0.9839,-0.724 -1.4896,-2.052 -0.3801,-3.437 1.0989,-1.371 2.2817,-1.272 3.3442,-0.22 1.0624,1.057 1.6198,2.496 2.6146,3.63 0.9948,1.142 2.1142,2.203 3.0362,3 1.042,0.907 1.224,1.74 1.078,2.194 -0.365,1.14 -1.057,1.738 -1.057,1.738"
     id="path350" />
  <path
     style="fill:none;stroke:#231f20;stroke-width:0.565977;stroke-linecap:butt;stroke-linejoin:miter;stroke-miterlimit:4;stroke-dasharray:none;stroke-opacity:1"
     d="m 70.422293,60.03049 c -0.964,0.871 -2.021,-0.869 -2.3744,-1.281 -0.3495,-0.416 -1.4802,-1.484 -2.464,-2.208 -0.9896,-0.724 -1.9162,-2.047 -3.7975,-3.416 -0.9839,-0.724 -1.4896,-2.052 -0.3801,-3.437 1.0989,-1.371 2.2817,-1.272 3.3442,-0.22 1.0624,1.057 1.6198,2.496 2.6146,3.63 0.9948,1.142 2.1142,2.203 3.0362,3 1.042,0.907 1.224,1.74 1.078,2.194 -0.365,1.14 -1.057,1.738 -1.057,1.738 z"
     id="path351" />
  <path
     style="fill:#231f20;fill-opacity:1;fill-rule:nonzero;stroke:none"
     d="m 81.933293,70.91249 c -0.667,-0.272 -3.079,-2.454 -3.609,-2.975 -0.481,-0.469 -1.511,-0.979 -1.136,-2.073 0.155,-0.438 0.687,-0.979 0.963,-1.14 0.224,-0.131 0.516,0.016 0.776,0.322 0.427,0.511 0.355,0.823 1.121,1.844 0,0 0.14,0.266 0.369,0.766 0.688,1.484 0.25,0.896 1.719,2.817 0.109,0.136 0.046,0.339 -0.052,0.401 -0.151,0.094 -0.151,0.038 -0.151,0.038"
     id="path352" />
  <path
     style="fill:none;stroke:#231f20;stroke-width:0.565977;stroke-linecap:round;stroke-linejoin:round;stroke-miterlimit:4;stroke-dasharray:none;stroke-opacity:1"
     d="m 81.933293,70.91249 c -0.667,-0.272 -3.079,-2.454 -3.609,-2.975 -0.481,-0.469 -1.511,-0.979 -1.136,-2.073 0.155,-0.438 0.687,-0.979 0.963,-1.14 0.224,-0.131 0.516,0.016 0.776,0.322 0.427,0.511 0.355,0.823 1.121,1.844 0,0 0.14,0.266 0.369,0.766 0.688,1.484 0.25,0.896 1.719,2.817 0.109,0.136 0.046,0.339 -0.052,0.401 -0.151,0.094 -0.151,0.038 -0.151,0.038 z"
     id="path353" />
  <path
     style="fill:#231f20;fill-opacity:1;fill-rule:nonzero;stroke:none"
     d="m 47.708793,72.40149 c -0.5786,-2.193 -0.9838,-2.537 -1.9276,-2.36 -0.624,0.125 -1.2494,0.027 -1.6297,0.079 -1.2916,0.186 -3.365,1.03 -8.6462,4.962 -1.1975,0.891 -2.8896,2.136 -3.6188,2.584 -1.1574,0.719 0.812,2.146 1.2708,1.87 1.4677,-0.88 2.5464,-1.375 3.1198,-1.62 0.3907,-0.172 1.0468,-0.562 2.6454,-1.015 2.4322,-0.699 3.9895,-0.756 5.9426,-1.568 0.9068,-0.375 1.8281,-0.084 2.5307,-0.907 0.7042,-0.822 0.313,-2.025 0.313,-2.025"
     id="path354" />
  <path
     style="fill:none;stroke:#231f20;stroke-width:0.565977;stroke-linecap:butt;stroke-linejoin:miter;stroke-miterlimit:4;stroke-dasharray:none;stroke-opacity:1"
     d="m 47.708793,72.40149 c -0.5786,-2.193 -0.9838,-2.537 -1.9276,-2.36 -0.624,0.125 -1.2494,0.027 -1.6297,0.079 -1.2916,0.186 -3.365,1.03 -8.6462,4.962 -1.1975,0.891 -2.8896,2.136 -3.6188,2.584 -1.1574,0.719 0.812,2.146 1.2708,1.87 1.4677,-0.88 2.5464,-1.375 3.1198,-1.62 0.3907,-0.172 1.0468,-0.562 2.6454,-1.015 2.4322,-0.699 3.9895,-0.756 5.9426,-1.568 0.9068,-0.375 1.8281,-0.084 2.5307,-0.907 0.7042,-0.822 0.313,-2.025 0.313,-2.025 z"
     id="path355" />
  <path
     style="fill:#231f20;fill-opacity:1;fill-rule:nonzero;stroke:#231f20;stroke-width:0.565977;stroke-linecap:round;stroke-linejoin:miter;stroke-miterlimit:4;stroke-dasharray:none;stroke-opacity:1"
     d="m 47.250593,74.66149 c 1.0052,-0.901 0.5984,-2.88 0.6718,-3.197 1.2078,-4.86 1.1719,-5.246 1.8282,-9.011 0.9478,-5.443 0.765,-9.319 -2.2454,-10.792 -2.0417,-1.005 -3.6505,-0.697 -4.624,0.183 -1.0786,0.984 -2.1827,3.962 -0.4333,6.26 l 0.1677,1.702 c -0.0369,1.162 -0.0478,1.74 -0.1104,2.314 -0.1094,0.994 -0.1614,2.068 -0.2708,4.02 -0.1813,3.464 0.7562,7.198 0.7562,7.198 -0.011,0.307 0.0985,0.563 0.2704,0.776"
     id="path356" />
  <path
     style="fill:#fab41d;fill-opacity:1;fill-rule:nonzero;stroke:none"
     d="m 47.505193,51.65649 c -2.0417,-1 -3.6505,-0.692 -4.624,0.188 -1.0786,0.984 -2.1827,3.962 -0.4333,6.26 l 7.7344,1.13 c 0.3135,-3.75 -0.3011,-6.412 -2.6771,-7.578"
     id="path357" />
  <path
     style="fill:none;stroke:#231f20;stroke-width:0.565977;stroke-linecap:round;stroke-linejoin:round;stroke-miterlimit:4;stroke-dasharray:none;stroke-opacity:1"
     d="m 47.505193,51.65649 c -2.0417,-1 -3.6505,-0.692 -4.624,0.188 -1.0786,0.984 -2.1827,3.962 -0.4333,6.26 l 7.7344,1.13 c 0.3135,-3.75 -0.3011,-6.412 -2.6771,-7.578 z"
     id="path358" />
  <path
     style="fill:#231f20;fill-opacity:1;fill-rule:nonzero;stroke:none"
     d="m 29.072993,79.28149 c -0.4011,-1.005 0.8187,-1.287 2.0109,-1.573 0.3026,-0.074 0.5734,-0.172 0.8744,-0.219 1.2136,-0.188 2.147,0.276 0.912,3.005 -0.0464,0.099 -0.3489,2.271 -0.3281,2.891 0.088,2.979 0.9213,2.844 0.088,2.979 -0.5463,0.094 -0.7703,-0.364 -1.0301,-0.938 -0.3604,-0.776 -1.3751,-3.625 -1.5631,-4.046 -0.1771,-0.412 -0.964,-2.099 -0.964,-2.099"
     id="path359" />
  <path
     style="fill:none;stroke:#231f20;stroke-width:0.565977;stroke-linecap:butt;stroke-linejoin:miter;stroke-miterlimit:4;stroke-dasharray:none;stroke-opacity:1"
     d="m 29.072993,79.28149 c -0.4011,-1.005 0.8187,-1.287 2.0109,-1.573 0.3026,-0.074 0.5734,-0.172 0.8744,-0.219 1.2136,-0.188 2.147,0.276 0.912,3.005 -0.0464,0.099 -0.3489,2.271 -0.3281,2.891 0.088,2.979 0.9213,2.844 0.088,2.979 -0.5463,0.094 -0.7703,-0.364 -1.0301,-0.938 -0.3604,-0.776 -1.3751,-3.625 -1.5631,-4.046 -0.1771,-0.412 -0.964,-2.099 -0.964,-2.099 z"
     id="path361" />
  <path
     style="fill:#fab41d;fill-opacity:1;fill-rule:nonzero;stroke:none"
     d="m 284.61029,73.34449 c 0.785,-3.038 0.916,-5.371 1.077,-6.276 0.527,-3.147 -0.432,-5.595 -3.312,-5.792 -3.375,-0.24 -4.948,2.093 -5.464,6.224 -0.213,1.745 -1.635,5.468 -1.635,5.468 -0.36,1.365 -0.652,5.714 -0.666,5.505 -0.095,-1.531 -0.163,3.5 2.014,4.412 2.47,1.027 3.344,1.177 4.167,0.312 0.824,-0.853 1.141,-2.104 2.1,-4.339 0.916,-2.134 1.719,-5.514 1.719,-5.514"
     id="path363" />
  <path
     style="fill:none;stroke:#231f20;stroke-width:0.565977;stroke-linecap:butt;stroke-linejoin:miter;stroke-miterlimit:4;stroke-dasharray:none;stroke-opacity:1"
     d="m 284.61029,73.34449 c 0.785,-3.038 0.916,-5.371 1.077,-6.276 0.527,-3.147 -0.432,-5.595 -3.312,-5.792 -3.375,-0.24 -4.948,2.093 -5.464,6.224 -0.213,1.745 -1.635,5.468 -1.635,5.468 -0.36,1.365 -0.652,5.714 -0.666,5.505 -0.095,-1.531 -0.163,3.5 2.014,4.412 2.47,1.027 3.344,1.177 4.167,0.312 0.824,-0.853 1.141,-2.104 2.1,-4.339 0.916,-2.134 1.719,-5.514 1.719,-5.514 z"
     id="path364" />
  <path
     style="fill:#ffffff;fill-opacity:1;fill-rule:nonzero;stroke:none"
     d="m 270.01029,78.63049 c -0.239,-0.042 -0.312,-1.198 -0.834,-1.209 -0.525,0 -0.733,0.761 -2.541,1.579 l -0.02,0.01 c -1.344,0.563 -2.287,1.594 -2.407,2.839 -0.188,2.067 1.932,3.957 4.735,4.228 2.817,0.267 5.255,-1.203 5.452,-3.265 0.193,-1.979 -1.749,-3.802 -4.385,-4.182"
     id="path365" />
  <path
     style="fill:none;stroke:#231f20;stroke-width:0.565977;stroke-linecap:butt;stroke-linejoin:miter;stroke-miterlimit:4;stroke-dasharray:none;stroke-opacity:1"
     d="m 270.01029,78.63049 c -0.239,-0.042 -0.312,-1.198 -0.834,-1.209 -0.525,0 -0.733,0.761 -2.541,1.579 l -0.02,0.01 c -1.344,0.563 -2.287,1.594 -2.407,2.839 -0.188,2.067 1.932,3.957 4.735,4.228 2.817,0.267 5.255,-1.203 5.452,-3.265 0.193,-1.979 -1.749,-3.802 -4.385,-4.182 z"
     id="path367" />
  <path
     style="fill:#231f20;fill-opacity:1;fill-rule:nonzero;stroke:none"
     d="m 265.87029,54.50049 c 1.473,1.718 1.994,1.854 2.76,1.276 0.51,-0.386 1.114,-0.563 1.437,-0.782 1.068,-0.724 2.584,-2.401 5.609,-8.245 0.688,-1.317 1.667,-3.167 2.131,-3.895 0.719,-1.146 -1.677,-1.578 -1.969,-1.125 -0.932,1.437 -1.687,2.344 -2.094,2.817 -0.276,0.323 -0.692,0.964 -1.937,2.079 -1.885,1.681 -3.26,2.411 -4.661,3.995 -0.656,0.734 -1.61,0.869 -1.875,1.921 -0.287,1.047 0.599,1.959 0.599,1.959"
     id="path369" />
  <path
     style="fill:none;stroke:#231f20;stroke-width:0.565977;stroke-linecap:butt;stroke-linejoin:miter;stroke-miterlimit:4;stroke-dasharray:none;stroke-opacity:1"
     d="m 265.87029,54.50049 c 1.473,1.718 1.994,1.854 2.76,1.276 0.51,-0.386 1.114,-0.563 1.437,-0.782 1.068,-0.724 2.584,-2.401 5.609,-8.245 0.688,-1.317 1.667,-3.167 2.131,-3.895 0.719,-1.146 -1.677,-1.578 -1.969,-1.125 -0.932,1.437 -1.687,2.344 -2.094,2.817 -0.276,0.323 -0.692,0.964 -1.937,2.079 -1.885,1.681 -3.26,2.411 -4.661,3.995 -0.656,0.734 -1.61,0.869 -1.875,1.921 -0.287,1.047 0.599,1.959 0.599,1.959 z"
     id="path370" />
  <path
     style="fill:#231f20;fill-opacity:1;fill-rule:nonzero;stroke:#231f20;stroke-width:0.565977;stroke-linecap:round;stroke-linejoin:round;stroke-miterlimit:4;stroke-dasharray:none;stroke-opacity:1"
     d="m 265.61929,53.65649 c -0.047,1.417 1.881,2.38 2.089,2.65 3.063,3.975 3.386,4.178 5.922,7.027 3.677,4.135 6.833,6.396 9.86,4.964 2.052,-0.98 2.812,-2.433 2.724,-3.74 -0.1,-1.453 -1.751,-4.172 -4.636,-4.229 l -1.438,-0.932 c -0.885,-0.756 -1.328,-1.115 -1.74,-1.516 -0.708,-0.708 -1.52,-1.422 -2.984,-2.719 -2.604,-2.303 -6.104,-3.885 -6.104,-3.885 -0.24,-0.199 -0.505,-0.271 -0.781,-0.271"
     id="path371" />
  <path
     style="fill:#fab41d;fill-opacity:1;fill-rule:nonzero;stroke:none"
     d="m 281.66729,60.43249 -5.715,5.328 c 2.735,2.594 5.194,3.776 7.59,2.646 2.052,-0.969 2.822,-2.417 2.734,-3.729 -0.089,-1.459 -1.724,-4.183 -4.609,-4.245"
     id="path372" />
  <path
     style="fill:none;stroke:#231f20;stroke-width:0.565977;stroke-linecap:butt;stroke-linejoin:miter;stroke-miterlimit:4;stroke-dasharray:none;stroke-opacity:1"
     d="m 281.66729,60.43249 -5.715,5.328 c 2.735,2.594 5.194,3.776 7.59,2.646 2.052,-0.969 2.822,-2.417 2.734,-3.729 -0.089,-1.459 -1.724,-4.183 -4.609,-4.245 z"
     id="path373" />
  <path
     style="fill:#231f20;fill-opacity:1;fill-rule:nonzero;stroke:none"
     d="m 263.07229,82.13049 c -0.005,-0.641 1.276,-2.114 1.787,-3.646 0.344,-1.026 2.199,-3.047 2.464,-4.099 0.255,-0.969 0.448,-1.38 1.593,-1.292 0.683,0.052 1.959,0.595 1.943,1.104 -0.041,1.188 -0.437,2.048 -1.073,2.907 -0.734,0.969 -2.943,3.432 -3.395,3.849 -1.12,1.036 -1.235,1.76 -1.5,2.068 -0.516,0.561 -0.855,0.504 -1.292,0.26 -0.839,-0.48 -0.527,-1.151 -0.527,-1.151"
     id="path374" />
  <path
     style="fill:none;stroke:#231f20;stroke-width:0.565977;stroke-linecap:butt;stroke-linejoin:miter;stroke-miterlimit:4;stroke-dasharray:none;stroke-opacity:1"
     d="m 263.07229,82.13049 c -0.005,-0.641 1.276,-2.114 1.787,-3.646 0.344,-1.026 2.199,-3.047 2.464,-4.099 0.255,-0.969 0.448,-1.38 1.593,-1.292 0.683,0.052 1.959,0.595 1.943,1.104 -0.041,1.188 -0.437,2.048 -1.073,2.907 -0.734,0.969 -2.943,3.432 -3.395,3.849 -1.12,1.036 -1.235,1.76 -1.5,2.068 -0.516,0.561 -0.855,0.504 -1.292,0.26 -0.839,-0.48 -0.527,-1.151 -0.527,-1.151 z"
     id="path375" />
  <path
     style="fill:#231f20;fill-opacity:1;fill-rule:nonzero;stroke:none"
     d="m 268.30729,73.57849 c 0.697,-1.094 2.188,0.291 2.631,0.594 0.453,0.312 1.828,1.036 2.973,1.462 1.147,0.428 2.396,1.454 4.573,2.278 1.146,0.426 1.99,1.572 1.292,3.202 -0.688,1.615 -1.854,1.844 -3.166,1.11 -1.303,-0.73 -2.219,-1.97 -3.491,-2.792 -1.26,-0.834 -2.624,-1.558 -3.728,-2.074 -1.251,-0.593 -1.652,-1.342 -1.625,-1.817 0.041,-1.197 0.541,-1.963 0.541,-1.963"
     id="path376" />
  <path
     style="fill:none;stroke:#231f20;stroke-width:0.565977;stroke-linecap:butt;stroke-linejoin:miter;stroke-miterlimit:4;stroke-dasharray:none;stroke-opacity:1"
     d="m 268.30729,73.57849 c 0.697,-1.094 2.188,0.291 2.631,0.594 0.453,0.312 1.828,1.036 2.973,1.462 1.147,0.428 2.396,1.454 4.573,2.278 1.146,0.426 1.99,1.572 1.292,3.202 -0.688,1.615 -1.854,1.844 -3.166,1.11 -1.303,-0.73 -2.219,-1.97 -3.491,-2.792 -1.26,-0.834 -2.624,-1.558 -3.728,-2.074 -1.251,-0.593 -1.652,-1.342 -1.625,-1.817 0.041,-1.197 0.541,-1.963 0.541,-1.963 z"
     id="path377" />
  <path
     style="fill:#231f20;fill-opacity:1;fill-rule:nonzero;stroke:none"
     d="m 269.45829,85.77049 c -0.719,0.156 -3.938,-0.292 -4.672,-0.432 -0.651,-0.12 -1.791,0.042 -2.088,-1.073 -0.131,-0.443 0.01,-1.192 0.145,-1.473 0.109,-0.24 0.439,-0.276 0.813,-0.172 0.646,0.172 0.766,0.478 1.968,0.89 0,0 0.276,0.14 0.74,0.432 1.402,0.834 0.703,0.588 3.006,1.355 0.166,0.052 0.224,0.255 0.182,0.359 -0.068,0.166 -0.094,0.114 -0.094,0.114"
     id="path378" />
  <path
     style="fill:none;stroke:#231f20;stroke-width:0.565977;stroke-linecap:round;stroke-linejoin:round;stroke-miterlimit:4;stroke-dasharray:none;stroke-opacity:1"
     d="m 269.45829,85.77049 c -0.719,0.156 -3.938,-0.292 -4.672,-0.432 -0.651,-0.12 -1.791,0.042 -2.088,-1.073 -0.131,-0.443 0.01,-1.192 0.145,-1.473 0.109,-0.24 0.439,-0.276 0.813,-0.172 0.646,0.172 0.766,0.478 1.968,0.89 0,0 0.276,0.14 0.74,0.432 1.402,0.834 0.703,0.588 3.006,1.355 0.166,0.052 0.224,0.255 0.182,0.359 -0.068,0.166 -0.094,0.114 -0.094,0.114 z"
     id="path380" />
  <path
     style="fill:#231f20;fill-opacity:1;fill-rule:nonzero;stroke:none"
     d="m 279.82329,41.30149 c 0.235,1.333 -0.615,1.849 -1.636,1.677 -0.307,-0.052 -0.625,0.224 -0.921,0.152 -0.678,-0.172 -1.522,-1.698 -0.423,-2.724 0.068,-0.078 0.469,-0.792 0.855,-1.276 0.754,-0.953 2.713,-2.496 5.396,-2.152 1.26,0.162 0.926,0.88 0.401,0.975 -1.688,0.276 -1.787,0.635 -2.204,0.88 -1.416,0.787 -1.468,2.468 -1.468,2.468"
     id="path382" />
  <path
     style="fill:none;stroke:#231f20;stroke-width:0.332927;stroke-linecap:butt;stroke-linejoin:miter;stroke-miterlimit:4;stroke-dasharray:none;stroke-opacity:1"
     d="m 279.82329,41.30149 c 0.235,1.333 -0.615,1.849 -1.636,1.677 -0.307,-0.052 -0.625,0.224 -0.921,0.152 -0.678,-0.172 -1.522,-1.698 -0.423,-2.724 0.068,-0.078 0.469,-0.792 0.855,-1.276 0.754,-0.953 2.713,-2.496 5.396,-2.152 1.26,0.162 0.926,0.88 0.401,0.975 -1.688,0.276 -1.787,0.635 -2.204,0.88 -1.416,0.787 -1.468,2.468 -1.468,2.468 z"
     id="path383" />
  <path
     style="fill:#ffffff;fill-opacity:1;fill-rule:nonzero;stroke:none"
     d="m 321.49529,40.76549 c 0.104,-0.219 1.233,-0.011 1.369,-0.516 0.131,-0.509 -0.557,-0.895 -0.921,-2.848 l -0.006,-0.027 c -0.218,-1.432 -0.989,-2.588 -2.172,-3.005 -1.958,-0.687 -4.308,0.917 -5.24,3.579 -0.937,2.666 -0.104,5.385 1.855,6.073 1.875,0.656 4.109,-0.787 5.115,-3.256"
     id="path384" />
  <path
     style="fill:none;stroke:#231f20;stroke-width:0.565977;stroke-linecap:butt;stroke-linejoin:miter;stroke-miterlimit:4;stroke-dasharray:none;stroke-opacity:1"
     d="m 321.49529,40.76549 c 0.104,-0.219 1.233,-0.011 1.369,-0.516 0.131,-0.509 -0.557,-0.895 -0.921,-2.848 l -0.006,-0.027 c -0.218,-1.432 -0.989,-2.588 -2.172,-3.005 -1.958,-0.687 -4.308,0.917 -5.24,3.579 -0.937,2.666 -0.104,5.385 1.855,6.073 1.875,0.656 4.109,-0.787 5.115,-3.256 z"
     id="path385" />
  <path
     style="fill:#fab41d;fill-opacity:1;fill-rule:nonzero;stroke:none"
     d="m 305.89129,53.39649 c -2.167,2.265 -2.887,2.51 -3.73,2.874 -5.318,2.26 -4.103,4.834 -1.693,6.422 2.828,1.865 3.808,2.589 7.708,-2.348 1.079,-1.371 5.933,-6.099 5.933,-6.099 1.968,-1.459 3.104,-3.928 2.802,-5.349 -0.323,-1.506 -0.302,-0.886 -0.854,-2.224 -0.526,-1.271 -2.266,-2.595 -3.474,-2.323 -1.156,0.255 -1.683,1.843 -2.73,4.025 -0.828,1.724 -3.962,5.022 -3.962,5.022"
     id="path386" />
  <path
     style="fill:none;stroke:#231f20;stroke-width:0.565977;stroke-linecap:butt;stroke-linejoin:miter;stroke-miterlimit:4;stroke-dasharray:none;stroke-opacity:1"
     d="m 305.89129,53.39649 c -2.167,2.265 -2.887,2.51 -3.73,2.874 -5.318,2.26 -4.103,4.834 -1.693,6.422 2.828,1.865 3.808,2.589 7.708,-2.348 1.079,-1.371 5.933,-6.099 5.933,-6.099 1.968,-1.459 3.104,-3.928 2.802,-5.349 -0.323,-1.506 -0.302,-0.886 -0.854,-2.224 -0.526,-1.271 -2.266,-2.595 -3.474,-2.323 -1.156,0.255 -1.683,1.843 -2.73,4.025 -0.828,1.724 -3.962,5.022 -3.962,5.022 z"
     id="path387" />
  <path
     style="fill:#231f20;fill-opacity:1;fill-rule:nonzero;stroke:none"
     d="m 333.81229,48.93249 c -0.552,0.333 -2.469,0 -4.041,0.36 -1.058,0.238 -3.751,-0.298 -4.787,0.02 -0.948,0.292 -1.412,0.338 -1.932,-0.698 -0.308,-0.604 -0.505,-1.98 -0.057,-2.229 1.03,-0.584 1.973,-0.688 3.041,-0.588 1.208,0.119 4.459,0.739 5.047,0.905 1.464,0.423 2.145,0.147 2.546,0.219 0.751,0.141 0.875,0.464 0.891,0.969 0.027,0.959 -0.708,1.042 -0.708,1.042"
     id="path388" />
  <path
     style="fill:none;stroke:#231f20;stroke-width:0.565977;stroke-linecap:butt;stroke-linejoin:miter;stroke-miterlimit:4;stroke-dasharray:none;stroke-opacity:1"
     d="m 333.81229,48.93249 c -0.552,0.333 -2.469,0 -4.041,0.36 -1.058,0.238 -3.751,-0.298 -4.787,0.02 -0.948,0.292 -1.412,0.338 -1.932,-0.698 -0.308,-0.604 -0.505,-1.98 -0.057,-2.229 1.03,-0.584 1.973,-0.688 3.041,-0.588 1.208,0.119 4.459,0.739 5.047,0.905 1.464,0.423 2.145,0.147 2.546,0.219 0.751,0.141 0.875,0.464 0.891,0.969 0.027,0.959 -0.708,1.042 -0.708,1.042 z"
     id="path389" />
  <path
     style="fill:#231f20;fill-opacity:1;fill-rule:nonzero;stroke:none"
     d="m 324.75529,48.67749 c -0.178,1.287 -2.11,0.64 -2.646,0.552 -0.537,-0.095 -2.089,-0.183 -3.308,-0.095 -1.224,0.09 -2.781,-0.328 -5.104,-0.166 -1.224,0.089 -2.458,-0.604 -2.505,-2.38 -0.047,-1.75 0.921,-2.443 2.412,-2.323 1.495,0.125 2.843,0.865 4.339,1.093 1.494,0.224 3.036,0.314 4.249,0.33 1.385,0.014 2.063,0.536 2.245,0.978 0.454,1.104 0.318,2.011 0.318,2.011"
     id="path390" />
  <path
     style="fill:none;stroke:#231f20;stroke-width:0.565977;stroke-linecap:butt;stroke-linejoin:miter;stroke-miterlimit:4;stroke-dasharray:none;stroke-opacity:1"
     d="m 324.75529,48.67749 c -0.178,1.287 -2.11,0.64 -2.646,0.552 -0.537,-0.095 -2.089,-0.183 -3.308,-0.095 -1.224,0.09 -2.781,-0.328 -5.104,-0.166 -1.224,0.089 -2.458,-0.604 -2.505,-2.38 -0.047,-1.75 0.921,-2.443 2.412,-2.323 1.495,0.125 2.843,0.865 4.339,1.093 1.494,0.224 3.036,0.314 4.249,0.33 1.385,0.014 2.063,0.536 2.245,0.978 0.454,1.104 0.318,2.011 0.318,2.011 z"
     id="path391" />
  <path
     style="fill:#231f20;fill-opacity:1;fill-rule:nonzero;stroke:none"
     d="m 340.75529,49.21849 c -0.688,0.224 -3.938,0.11 -4.683,0.052 -0.661,-0.046 -1.781,0.23 -2.197,-0.849 -0.167,-0.437 -0.11,-1.187 0,-1.489 0.082,-0.244 0.406,-0.323 0.796,-0.255 0.657,0.115 0.802,0.4 2.048,0.687 0,0 0.281,0.109 0.781,0.344 1.479,0.688 0.76,0.526 3.124,1.041 0.172,0.032 0.261,0.229 0.219,0.344 -0.052,0.167 -0.088,0.125 -0.088,0.125"
     id="path392" />
  <path
     style="fill:none;stroke:#231f20;stroke-width:0.565977;stroke-linecap:round;stroke-linejoin:round;stroke-miterlimit:4;stroke-dasharray:none;stroke-opacity:1"
     d="m 340.75529,49.21849 c -0.688,0.224 -3.938,0.11 -4.683,0.052 -0.661,-0.046 -1.781,0.23 -2.197,-0.849 -0.167,-0.437 -0.11,-1.187 0,-1.489 0.082,-0.244 0.406,-0.323 0.796,-0.255 0.657,0.115 0.802,0.4 2.048,0.687 0,0 0.281,0.109 0.781,0.344 1.479,0.688 0.76,0.526 3.124,1.041 0.172,0.032 0.261,0.229 0.219,0.344 -0.052,0.167 -0.088,0.125 -0.088,0.125 z"
     id="path393" />
  <path
     style="fill:#231f20;fill-opacity:1;fill-rule:nonzero;stroke:none"
     d="m 315.09929,72.83849 c -1.167,-1.937 -1.656,-2.156 -2.511,-1.718 -0.568,0.29 -1.193,0.369 -1.547,0.525 -1.177,0.543 -2.942,1.928 -6.906,7.183 -0.907,1.193 -2.178,2.86 -2.749,3.494 -0.912,1.011 1.374,1.834 1.738,1.443 1.161,-1.26 2.063,-2.036 2.543,-2.432 0.328,-0.271 0.848,-0.833 2.249,-1.719 2.145,-1.344 3.62,-1.833 5.271,-3.156 0.765,-0.62 1.729,-0.6 2.172,-1.584 0.448,-0.989 -0.26,-2.036 -0.26,-2.036"
     id="path394" />
  <path
     style="fill:none;stroke:#231f20;stroke-width:0.565977;stroke-linecap:butt;stroke-linejoin:miter;stroke-miterlimit:4;stroke-dasharray:none;stroke-opacity:1"
     d="m 315.09929,72.83849 c -1.167,-1.937 -1.656,-2.156 -2.511,-1.718 -0.568,0.29 -1.193,0.369 -1.547,0.525 -1.177,0.543 -2.942,1.928 -6.906,7.183 -0.907,1.193 -2.178,2.86 -2.749,3.494 -0.912,1.011 1.374,1.834 1.738,1.443 1.161,-1.26 2.063,-2.036 2.543,-2.432 0.328,-0.271 0.848,-0.833 2.249,-1.719 2.145,-1.344 3.62,-1.833 5.271,-3.156 0.765,-0.62 1.729,-0.6 2.172,-1.584 0.448,-0.989 -0.26,-2.036 -0.26,-2.036 z"
     id="path395" />
  <path
     style="fill:#231f20;fill-opacity:1;fill-rule:nonzero;stroke:#231f20;stroke-width:0.565977;stroke-linecap:round;stroke-linejoin:miter;stroke-miterlimit:4;stroke-dasharray:none;stroke-opacity:1"
     d="m 315.78529,73.86949 c 0.12,-1.344 -1.53,-2.511 -1.692,-2.796 -2.442,-4.376 -2.724,-4.625 -4.822,-7.828 -3.027,-4.62 -5.803,-7.324 -9.005,-6.349 -2.178,0.661 -3.142,1.984 -3.251,3.296 -0.12,1.453 1.115,4.386 3.959,4.865 l 1.286,1.131 c 0.76,0.874 1.151,1.296 1.5,1.765 0.599,0.801 1.292,1.62 2.547,3.12 2.229,2.656 5.458,4.739 5.458,4.739 0.214,0.234 0.463,0.344 0.735,0.38"
     id="path396" />
  <path
     style="fill:#fab41d;fill-opacity:1;fill-rule:nonzero;stroke:none"
     d="m 300.26629,56.89649 c -2.178,0.661 -3.142,1.984 -3.251,3.296 -0.12,1.453 1.115,4.386 3.959,4.865 l 6.417,-4.453 c -2.334,-2.959 -4.6,-4.474 -7.125,-3.708"
     id="path397" />
  <path
     style="fill:none;stroke:#231f20;stroke-width:0.565977;stroke-linecap:round;stroke-linejoin:round;stroke-miterlimit:4;stroke-dasharray:none;stroke-opacity:1"
     d="m 300.26629,56.89649 c -2.178,0.661 -3.142,1.984 -3.251,3.296 -0.12,1.453 1.115,4.386 3.959,4.865 l 6.417,-4.453 c -2.334,-2.959 -4.6,-4.474 -7.125,-3.708 z"
     id="path398" />
  <path
     style="fill:#231f20;fill-opacity:1;fill-rule:nonzero;stroke:none"
     d="m 301.56729,86.05749 c -1.088,-0.027 -0.864,-1.256 -0.667,-2.469 0.048,-0.307 0.068,-0.594 0.142,-0.891 0.296,-1.187 1.093,-1.869 3.125,0.333 0.072,0.079 1.946,1.204 2.53,1.428 2.776,1.078 2.979,0.26 2.776,1.078 -0.125,0.541 -0.636,0.568 -1.265,0.589 -0.849,0.025 -3.871,-0.152 -4.333,-0.141 -0.448,0 -2.308,0.073 -2.308,0.073"
     id="path399" />
  <path
     style="fill:none;stroke:#231f20;stroke-width:0.565977;stroke-linecap:butt;stroke-linejoin:miter;stroke-miterlimit:4;stroke-dasharray:none;stroke-opacity:1"
     d="m 301.56729,86.05749 c -1.088,-0.027 -0.864,-1.256 -0.667,-2.469 0.048,-0.307 0.068,-0.594 0.142,-0.891 0.296,-1.187 1.093,-1.869 3.125,0.333 0.072,0.079 1.946,1.204 2.53,1.428 2.776,1.078 2.979,0.26 2.776,1.078 -0.125,0.541 -0.636,0.568 -1.265,0.589 -0.849,0.025 -3.871,-0.152 -4.333,-0.141 -0.448,0 -2.308,0.073 -2.308,0.073 z"
     id="path401" />
  <path
     style="fill:#fab41d;fill-opacity:1;fill-rule:nonzero;stroke:none"
     d="m 219.21429,30.04649 c 1.989,-2.426 3.088,-4.483999 3.609,-5.244999 1.801,-2.629 1.957,-5.255 -0.573,-6.645 -2.964,-1.631 -5.375,-0.178 -7.568,3.36 -0.932,1.494 -3.782,4.281 -3.782,4.281 -2.582,1.956999 -3.4,2.770999 -3.76,5.718999 -0.182,1.514 0.058,2.618 0.828,3.842 1.432,2.256 2.542,2.475 3.651,2.043 1.1,-0.437 1.917,-1.443 3.719,-3.063 1.734,-1.557 3.876,-4.292 3.876,-4.292"
     id="path403" />
  <path
     style="fill:none;stroke:#231f20;stroke-width:0.565977;stroke-linecap:butt;stroke-linejoin:miter;stroke-miterlimit:4;stroke-dasharray:none;stroke-opacity:1"
     d="m 219.21429,30.04649 c 1.989,-2.426 3.088,-4.483999 3.609,-5.244999 1.801,-2.629 1.957,-5.255 -0.573,-6.645 -2.964,-1.631 -5.375,-0.178 -7.568,3.36 -0.932,1.494 -3.782,4.281 -3.782,4.281 -2.582,1.956999 -3.4,2.770999 -3.76,5.718999 -0.182,1.514 0.058,2.618 0.828,3.842 1.432,2.256 2.542,2.475 3.651,2.043 1.1,-0.437 1.917,-1.443 3.719,-3.063 1.734,-1.557 3.876,-4.292 3.876,-4.292 z"
     id="path404" />
  <path
     style="fill:#ffffff;fill-opacity:1;fill-rule:nonzero;stroke:none"
     d="m 202.61029,36.24549 c -0.235,0.083 -0.876,-0.881 -1.328,-0.625 -0.459,0.26 -0.256,1.03 -1.407,2.645 l -0.016,0.021 c -0.875,1.156 -1.172,2.526 -0.635,3.656 0.87,1.886 3.651,2.448 6.214,1.266 2.562,-1.187 3.932,-3.678 3.066,-5.563 -0.833,-1.807 -3.432,-2.4 -5.894,-1.4"
     id="path405" />
  <path
     style="fill:none;stroke:#231f20;stroke-width:0.565977;stroke-linecap:butt;stroke-linejoin:miter;stroke-miterlimit:4;stroke-dasharray:none;stroke-opacity:1"
     d="m 202.61029,36.24549 c -0.235,0.083 -0.876,-0.881 -1.328,-0.625 -0.459,0.26 -0.256,1.03 -1.407,2.645 l -0.016,0.021 c -0.875,1.156 -1.172,2.526 -0.635,3.656 0.87,1.886 3.651,2.448 6.214,1.266 2.562,-1.187 3.932,-3.678 3.066,-5.563 -0.833,-1.807 -3.432,-2.4 -5.894,-1.4 z"
     id="path406" />
  <path
     style="fill:#231f20;fill-opacity:1;fill-rule:nonzero;stroke:none"
     d="m 204.08329,18.968491 c 0.536,-2.198 0.344,-2.698 -0.573,-2.984 -0.615,-0.192 -1.104,-0.578 -1.468,-0.714 -1.214,-0.453 -3.459,-0.708 -9.975,0.23 -1.468,0.208 -3.547,0.489 -4.405,0.53 -1.355,0.09 -0.314,2.287 0.229,2.256 1.713,-0.073 2.885,0.011 3.509,0.068 0.423,0.036 1.183,0 2.814,0.364 2.468,0.558 3.864,1.25 5.968,1.474 0.98,0.105 1.641,0.797 2.652,0.406 1.014,-0.385 1.249,-1.63 1.249,-1.63"
     id="path407" />
  <path
     style="fill:none;stroke:#231f20;stroke-width:0.565977;stroke-linecap:butt;stroke-linejoin:miter;stroke-miterlimit:4;stroke-dasharray:none;stroke-opacity:1"
     d="m 204.08329,18.968491 c 0.536,-2.198 0.344,-2.698 -0.573,-2.984 -0.615,-0.192 -1.104,-0.578 -1.468,-0.714 -1.214,-0.453 -3.459,-0.708 -9.975,0.23 -1.468,0.208 -3.547,0.489 -4.405,0.53 -1.355,0.09 -0.314,2.287 0.229,2.256 1.713,-0.073 2.885,0.011 3.509,0.068 0.423,0.036 1.183,0 2.814,0.364 2.468,0.558 3.864,1.25 5.968,1.474 0.98,0.105 1.641,0.797 2.652,0.406 1.014,-0.385 1.249,-1.63 1.249,-1.63 z"
     id="path408" />
  <path
     style="fill:#231f20;fill-opacity:1;fill-rule:nonzero;stroke:#231f20;stroke-width:0.565977;stroke-linecap:round;stroke-linejoin:round;stroke-miterlimit:4;stroke-dasharray:none;stroke-opacity:1"
     d="m 200.79129,20.276491 c 0.729,1.213 2.876,0.984 3.193,1.098 4.719,1.683 5.104,1.683 8.782,2.714 5.328,1.485 9.208,1.688 10.978,-1.156 1.194,-1.932 1.047,-3.568 0.271,-4.626 -0.869,-1.166 -3.729,-2.562 -6.187,-1.052 l -1.714,-0.005 c -1.151,-0.151 -1.723,-0.219 -2.286,-0.333 -0.974,-0.214 -2.042,-0.37 -3.98,-0.667 -3.437,-0.536 -7.233,0.027 -7.233,0.027 -0.308,-0.042 -0.573,0.041 -0.803,0.192"
     id="path409" />
  <path
     style="fill:#fab41d;fill-opacity:1;fill-rule:nonzero;stroke:none"
     d="m 224.13529,18.374491 c -0.864,-1.177 -3.724,-2.582 -6.183,-1.073 l -1.921,7.568 c 3.697,0.704 6.412,0.365 7.812,-1.875 1.204,-1.926 1.068,-3.557 0.292,-4.62"
     id="path410" />
  <path
     style="fill:none;stroke:#231f20;stroke-width:0.565977;stroke-linecap:butt;stroke-linejoin:miter;stroke-miterlimit:4;stroke-dasharray:none;stroke-opacity:1"
     d="m 224.13529,18.374491 c -0.864,-1.177 -3.724,-2.582 -6.183,-1.073 l -1.921,7.568 c 3.697,0.704 6.412,0.365 7.812,-1.875 1.204,-1.926 1.068,-3.557 0.292,-4.62 z"
     id="path411" />
  <path
     style="fill:#231f20;fill-opacity:1;fill-rule:nonzero;stroke:none"
     d="m 200.84829,16.390491 c 0.59,0.25 1.448,2.006 2.652,3.068 0.812,0.724 1.947,3.219 2.812,3.875 0.792,0.609 1.099,0.953 0.563,1.968 -0.313,0.610999 -1.313,1.567999 -1.776,1.354999 -1.079,-0.5 -1.713,-1.197999 -2.251,-2.119999 -0.609,-1.058 -2.01,-4.058 -2.218,-4.63 -0.516,-1.433 -1.13,-1.829 -1.307,-2.193 -0.323,-0.697 -0.136,-0.984 0.26,-1.292 0.771,-0.583 1.265,-0.031 1.265,-0.031"
     id="path412" />
  <path
     style="fill:none;stroke:#231f20;stroke-width:0.565977;stroke-linecap:butt;stroke-linejoin:miter;stroke-miterlimit:4;stroke-dasharray:none;stroke-opacity:1"
     d="m 200.84829,16.390491 c 0.59,0.25 1.448,2.006 2.652,3.068 0.812,0.724 1.947,3.219 2.812,3.875 0.792,0.609 1.099,0.953 0.563,1.968 -0.313,0.610999 -1.313,1.567999 -1.776,1.354999 -1.079,-0.5 -1.713,-1.197999 -2.251,-2.119999 -0.609,-1.058 -2.01,-4.058 -2.218,-4.63 -0.516,-1.433 -1.13,-1.829 -1.307,-2.193 -0.323,-0.697 -0.136,-0.984 0.26,-1.292 0.771,-0.583 1.265,-0.031 1.265,-0.031 z"
     id="path413" />
  <path
     style="fill:#231f20;fill-opacity:1;fill-rule:nonzero;stroke:none"
     d="m 206.18229,24.005491 c 1.161,-0.579 1.724,1.369 1.953,1.863999 0.229,0.495 1.036,1.828 1.803,2.776 0.765,0.964 1.306,2.485 2.754,4.303 0.76,0.953 0.896,2.369 -0.536,3.41 -1.422,1.038 -2.541,0.631 -3.281,-0.67 -0.751,-1.292 -0.901,-2.83 -1.568,-4.188 -0.651,-1.36 -1.453,-2.688 -2.14,-3.694 -0.767,-1.15 -0.724,-2 -0.453,-2.395999 0.645,-1 1.468,-1.405 1.468,-1.405"
     id="path414" />
  <path
     style="fill:none;stroke:#231f20;stroke-width:0.565977;stroke-linecap:butt;stroke-linejoin:miter;stroke-miterlimit:4;stroke-dasharray:none;stroke-opacity:1"
     d="m 206.18229,24.005491 c 1.161,-0.579 1.724,1.369 1.953,1.863999 0.229,0.495 1.036,1.828 1.803,2.776 0.765,0.964 1.306,2.485 2.754,4.303 0.76,0.953 0.896,2.369 -0.536,3.41 -1.422,1.038 -2.541,0.631 -3.281,-0.67 -0.751,-1.292 -0.901,-2.83 -1.568,-4.188 -0.651,-1.36 -1.453,-2.688 -2.14,-3.694 -0.767,-1.15 -0.724,-2 -0.453,-2.395999 0.645,-1 1.468,-1.405 1.468,-1.405 z"
     id="path415" />
  <path
     style="fill:#231f20;fill-opacity:1;fill-rule:nonzero;stroke:none"
     d="m 195.57229,13.328491 c 0.73,0.114 3.563,1.718 4.188,2.114 0.563,0.355 1.683,0.626 1.542,1.776 -0.031,0.459 -0.443,1.099 -0.678,1.312 -0.186,0.183 -0.51,0.1 -0.812,-0.14 -0.541,-0.396 -0.541,-0.729 -1.505,-1.552 0,0 -0.203,-0.234 -0.531,-0.677 -0.99,-1.287 -0.433,-0.807 -2.292,-2.369 -0.13,-0.104 -0.114,-0.314 -0.041,-0.402 0.135,-0.125 0.129,-0.062 0.129,-0.062"
     id="path416" />
  <path
     style="fill:none;stroke:#231f20;stroke-width:0.565977;stroke-linecap:round;stroke-linejoin:round;stroke-miterlimit:4;stroke-dasharray:none;stroke-opacity:1"
     d="m 195.57229,13.328491 c 0.73,0.114 3.563,1.718 4.188,2.114 0.563,0.355 1.683,0.626 1.542,1.776 -0.031,0.459 -0.443,1.099 -0.678,1.312 -0.186,0.183 -0.51,0.1 -0.812,-0.14 -0.541,-0.396 -0.541,-0.729 -1.505,-1.552 0,0 -0.203,-0.234 -0.531,-0.677 -0.99,-1.287 -0.433,-0.807 -2.292,-2.369 -0.13,-0.104 -0.114,-0.314 -0.041,-0.402 0.135,-0.125 0.129,-0.062 0.129,-0.062 z"
     id="path417" />
  <path
     style="fill:#231f20;fill-opacity:1;fill-rule:nonzero;stroke:none"
     d="m 184.83429,16.292491 c 0.661,-1.178 1.64,-1.032 2.322,-0.251 0.203,0.24 0.624,0.224 0.807,0.469 0.417,0.567 0.095,2.282 -1.405,2.37 -0.1,0.01 -0.871,0.308 -1.475,0.442 -1.183,0.256 -3.683,0.199 -5.531,-1.77 -0.87,-0.932 -0.152,-1.276 0.312,-1.011 1.474,0.86 1.776,0.647 2.255,0.724 1.595,0.292 2.715,-0.973 2.715,-0.973"
     id="path418" />
  <path
     style="fill:none;stroke:#231f20;stroke-width:0.332927;stroke-linecap:butt;stroke-linejoin:miter;stroke-miterlimit:4;stroke-dasharray:none;stroke-opacity:1"
     d="m 184.83429,16.292491 c 0.661,-1.178 1.64,-1.032 2.322,-0.251 0.203,0.24 0.624,0.224 0.807,0.469 0.417,0.567 0.095,2.282 -1.405,2.37 -0.1,0.01 -0.871,0.308 -1.475,0.442 -1.183,0.256 -3.683,0.199 -5.531,-1.77 -0.87,-0.932 -0.152,-1.276 0.312,-1.011 1.474,0.86 1.776,0.647 2.255,0.724 1.595,0.292 2.715,-0.973 2.715,-0.973 z"
     id="path419" />
  <path
     style="fill:#fab41d;fill-opacity:1;fill-rule:nonzero;stroke:none"
     d="m 229.84329,48.88049 c 0.86,3.016 1.928,5.093 2.256,5.948 1.14,2.984 3.208,4.604 5.792,3.317 3.031,-1.511 3.203,-4.317 1.552,-8.14 -0.704,-1.615 -1.371,-5.541 -1.371,-5.541 -0.14,-3.24 -0.344,-4.371 -2.562,-6.344 -1.146,-1.022 -2.187,-1.448 -3.63,-1.516 -2.677,-0.099 -3.485,0.688 -3.756,1.844 -0.27,1.156 0.09,2.396 0.402,4.801 0.292,2.308 1.317,5.631 1.317,5.631"
     id="path420" />
  <path
     style="fill:none;stroke:#231f20;stroke-width:0.565977;stroke-linecap:butt;stroke-linejoin:miter;stroke-miterlimit:4;stroke-dasharray:none;stroke-opacity:1"
     d="m 229.84329,48.88049 c 0.86,3.016 1.928,5.093 2.256,5.948 1.14,2.984 3.208,4.604 5.792,3.317 3.031,-1.511 3.203,-4.317 1.552,-8.14 -0.704,-1.615 -1.371,-5.541 -1.371,-5.541 -0.14,-3.24 -0.344,-4.371 -2.562,-6.344 -1.146,-1.022 -2.187,-1.448 -3.63,-1.516 -2.677,-0.099 -3.485,0.688 -3.756,1.844 -0.27,1.156 0.09,2.396 0.402,4.801 0.292,2.308 1.317,5.631 1.317,5.631 z"
     id="path421" />
  <path
     style="fill:#ffffff;fill-opacity:1;fill-rule:nonzero;stroke:none"
     d="m 234.20329,31.69749 c 0.063,-0.239 1.219,-0.219 1.265,-0.739 0.047,-0.526 -0.697,-0.792 -1.374,-2.661 l -0.006,-0.021 c -0.458,-1.38 -1.412,-2.402 -2.645,-2.603999 -2.048,-0.36 -4.095,1.608999 -4.579,4.389999 -0.484,2.782 0.787,5.323 2.828,5.682 1.959,0.344 3.927,-1.452 4.511,-4.047"
     id="path422" />
  <path
     style="fill:none;stroke:#231f20;stroke-width:0.565977;stroke-linecap:butt;stroke-linejoin:miter;stroke-miterlimit:4;stroke-dasharray:none;stroke-opacity:1"
     d="m 234.20329,31.69749 c 0.063,-0.239 1.219,-0.219 1.265,-0.739 0.047,-0.526 -0.697,-0.792 -1.374,-2.661 l -0.006,-0.021 c -0.458,-1.38 -1.412,-2.402 -2.645,-2.603999 -2.048,-0.36 -4.095,1.608999 -4.579,4.389999 -0.484,2.782 0.787,5.323 2.828,5.682 1.959,0.344 3.927,-1.452 4.511,-4.047 z"
     id="path423" />
  <path
     style="fill:#231f20;fill-opacity:1;fill-rule:nonzero;stroke:none"
     d="m 247.56729,42.74449 c 1.5,1.693 2.027,1.813 2.776,1.224 0.511,-0.39 1.104,-0.578 1.423,-0.802 1.068,-0.734 2.552,-2.432 5.494,-8.328 0.662,-1.322 1.615,-3.193 2.068,-3.926 0.698,-1.163 -1.704,-1.554 -1.985,-1.095 -0.916,1.448 -1.656,2.371 -2.052,2.844 -0.276,0.333 -0.676,0.979 -1.905,2.109 -1.86,1.714 -3.224,2.464 -4.606,4.068 -0.64,0.744 -1.588,0.902 -1.842,1.954 -0.267,1.052 0.629,1.952 0.629,1.952"
     id="path424" />
  <path
     style="fill:none;stroke:#231f20;stroke-width:0.565977;stroke-linecap:butt;stroke-linejoin:miter;stroke-miterlimit:4;stroke-dasharray:none;stroke-opacity:1"
     d="m 247.56729,42.74449 c 1.5,1.693 2.027,1.813 2.776,1.224 0.511,-0.39 1.104,-0.578 1.423,-0.802 1.068,-0.734 2.552,-2.432 5.494,-8.328 0.662,-1.322 1.615,-3.193 2.068,-3.926 0.698,-1.163 -1.704,-1.554 -1.985,-1.095 -0.916,1.448 -1.656,2.371 -2.052,2.844 -0.276,0.333 -0.676,0.979 -1.905,2.109 -1.86,1.714 -3.224,2.464 -4.606,4.068 -0.64,0.744 -1.588,0.902 -1.842,1.954 -0.267,1.052 0.629,1.952 0.629,1.952 z"
     id="path425" />
  <path
     style="fill:#231f20;fill-opacity:1;fill-rule:nonzero;stroke:#231f20;stroke-width:0.565977;stroke-linecap:round;stroke-linejoin:round;stroke-miterlimit:4;stroke-dasharray:none;stroke-opacity:1"
     d="m 248.36429,39.29749 c -1.416,-0.095 -2.448,1.801 -2.718,1.995 -4.074,2.921 -4.292,3.244 -7.235,5.681 -4.255,3.532 -6.625,6.605 -5.297,9.683 0.906,2.084 2.333,2.89 3.646,2.849 1.459,-0.047 4.23,-1.604 4.391,-4.484 l 0.979,-1.407 c 0.776,-0.865 1.161,-1.297 1.573,-1.693 0.729,-0.676 1.468,-1.468 2.817,-2.891 2.391,-2.52 4.095,-5.957 4.095,-5.957 0.208,-0.229 0.291,-0.5 0.301,-0.772"
     id="path426" />
  <path
     style="fill:#fab41d;fill-opacity:1;fill-rule:nonzero;stroke:#231f20;stroke-width:0.565977;stroke-linecap:butt;stroke-linejoin:miter;stroke-miterlimit:4;stroke-dasharray:none;stroke-opacity:1"
     d="m 235.91129,49.20849 c -2.687,2.641 -3.948,5.062 -2.907,7.489 0.902,2.084 2.319,2.907 3.636,2.871 1.459,-0.043 4.246,-1.59 4.402,-4.47 z"
     id="path427" />
  <path
     style="fill:#231f20;fill-opacity:1;fill-rule:nonzero;stroke:none"
     d="m 251.52629,41.55249 c -0.542,0.338 -2.468,0.046 -4.036,0.432 -1.052,0.261 -3.756,-0.23 -4.782,0.104 -0.953,0.313 -1.406,0.37 -1.942,-0.656 -0.323,-0.604 -0.538,-1.974 -0.099,-2.23 1.025,-0.604 1.963,-0.724 3.025,-0.645 1.214,0.099 4.479,0.656 5.068,0.812 1.474,0.396 2.146,0.109 2.552,0.172 0.75,0.131 0.88,0.453 0.907,0.953 0.041,0.964 -0.693,1.058 -0.693,1.058"
     id="path428" />
  <path
     style="fill:none;stroke:#231f20;stroke-width:0.565977;stroke-linecap:butt;stroke-linejoin:miter;stroke-miterlimit:4;stroke-dasharray:none;stroke-opacity:1"
     d="m 251.52629,41.55249 c -0.542,0.338 -2.468,0.046 -4.036,0.432 -1.052,0.261 -3.756,-0.23 -4.782,0.104 -0.953,0.313 -1.406,0.37 -1.942,-0.656 -0.323,-0.604 -0.538,-1.974 -0.099,-2.23 1.025,-0.604 1.963,-0.724 3.025,-0.645 1.214,0.099 4.479,0.656 5.068,0.812 1.474,0.396 2.146,0.109 2.552,0.172 0.75,0.131 0.88,0.453 0.907,0.953 0.041,0.964 -0.693,1.058 -0.693,1.058 z"
     id="path429" />
  <path
     style="fill:#231f20;fill-opacity:1;fill-rule:nonzero;stroke:none"
     d="m 242.22829,41.60449 c -0.186,1.286 -2.109,0.636 -2.645,0.546 -0.536,-0.098 -2.088,-0.192 -3.307,-0.104 -1.224,0.084 -2.786,-0.333 -5.105,-0.182 -1.219,0.084 -2.457,-0.61 -2.5,-2.386 -0.047,-1.754 0.928,-2.442 2.423,-2.317 1.489,0.125 2.838,0.875 4.333,1.099 1.489,0.24 3.036,0.333 4.255,0.344 1.38,0.026 2.057,0.541 2.229,0.989 0.453,1.104 0.317,2.011 0.317,2.011"
     id="path430" />
  <path
     style="fill:none;stroke:#231f20;stroke-width:0.565977;stroke-linecap:butt;stroke-linejoin:miter;stroke-miterlimit:4;stroke-dasharray:none;stroke-opacity:1"
     d="m 242.22829,41.60449 c -0.186,1.286 -2.109,0.636 -2.645,0.546 -0.536,-0.098 -2.088,-0.192 -3.307,-0.104 -1.224,0.084 -2.786,-0.333 -5.105,-0.182 -1.219,0.084 -2.457,-0.61 -2.5,-2.386 -0.047,-1.754 0.928,-2.442 2.423,-2.317 1.489,0.125 2.838,0.875 4.333,1.099 1.489,0.24 3.036,0.333 4.255,0.344 1.38,0.026 2.057,0.541 2.229,0.989 0.453,1.104 0.317,2.011 0.317,2.011 z"
     id="path431" />
  <path
     style="fill:#231f20;fill-opacity:1;fill-rule:nonzero;stroke:none"
     d="m 257.04729,38.95849 c -0.511,0.536 -3.437,1.948 -4.12,2.239 -0.615,0.261 -1.475,1.027 -2.339,0.256 -0.36,-0.287 -0.656,-0.989 -0.697,-1.303 -0.043,-0.26 0.208,-0.473 0.583,-0.593 0.63,-0.213 0.906,-0.027 2.13,-0.349 0,0 0.312,-0.036 0.854,-0.052 1.63,-0.083 0.917,0.104 3.261,-0.536 0.156,-0.047 0.323,0.088 0.348,0.197 0.032,0.183 -0.02,0.141 -0.02,0.141"
     id="path432" />
  <path
     style="fill:none;stroke:#231f20;stroke-width:0.565977;stroke-linecap:round;stroke-linejoin:round;stroke-miterlimit:4;stroke-dasharray:none;stroke-opacity:1"
     d="m 257.04729,38.95849 c -0.511,0.536 -3.437,1.948 -4.12,2.239 -0.615,0.261 -1.475,1.027 -2.339,0.256 -0.36,-0.287 -0.656,-0.989 -0.697,-1.303 -0.043,-0.26 0.208,-0.473 0.583,-0.593 0.63,-0.213 0.906,-0.027 2.13,-0.349 0,0 0.312,-0.036 0.854,-0.052 1.63,-0.083 0.917,0.104 3.261,-0.536 0.156,-0.047 0.323,0.088 0.348,0.197 0.032,0.183 -0.02,0.141 -0.02,0.141 z"
     id="path433" />
  <path
     style="fill:#231f20;fill-opacity:1;fill-rule:nonzero;stroke:none"
     d="m 260.72429,28.43749 c 0.588,1.219 -0.089,1.943 -1.12,2.057 -0.313,0.031 -0.537,0.386 -0.844,0.402 -0.698,0.01 -1.926,-1.224 -1.15,-2.511 0.052,-0.088 0.244,-0.891 0.478,-1.464 0.464,-1.115 1.932,-3.139999 4.604,-3.535999 1.26,-0.188 1.136,0.599 0.651,0.833 -1.547,0.719 -1.541,1.088 -1.88,1.438 -1.145,1.144999 -0.739,2.780999 -0.739,2.780999"
     id="path434" />
  <path
     style="fill:none;stroke:#231f20;stroke-width:0.332927;stroke-linecap:butt;stroke-linejoin:miter;stroke-miterlimit:4;stroke-dasharray:none;stroke-opacity:1"
     d="m 260.72429,28.43749 c 0.588,1.219 -0.089,1.943 -1.12,2.057 -0.313,0.031 -0.537,0.386 -0.844,0.402 -0.698,0.01 -1.926,-1.224 -1.15,-2.511 0.052,-0.088 0.244,-0.891 0.478,-1.464 0.464,-1.115 1.932,-3.139999 4.604,-3.535999 1.26,-0.188 1.136,0.599 0.651,0.833 -1.547,0.719 -1.541,1.088 -1.88,1.438 -1.145,1.144999 -0.739,2.780999 -0.739,2.780999 z"
     id="path435" />
  <path
     style="fill:#fab41d;fill-opacity:1;fill-rule:nonzero;stroke:none"
     d="m 152.72929,44.45349 c 0.682,-3.057 1.162,-3.641 1.704,-4.391 3.364,-4.698 0.994,-6.265 -1.886,-6.37 -3.385,-0.13 -4.604,-0.239 -5.38,6.005 -0.214,1.735 -1.912,8.292 -1.912,8.292 -0.926,2.271 -0.62,4.975 0.375,6.032 1.057,1.113 0.724,0.599 1.88,1.447 1.115,0.824 3.287,1.042 4.177,0.188 0.86,-0.818 0.484,-2.443 0.251,-4.855 -0.183,-1.9 0.791,-6.348 0.791,-6.348"
     id="path436" />
  <path
     style="fill:none;stroke:#231f20;stroke-width:0.565977;stroke-linecap:butt;stroke-linejoin:miter;stroke-miterlimit:4;stroke-dasharray:none;stroke-opacity:1"
     d="m 152.72929,44.45349 c 0.682,-3.057 1.162,-3.641 1.704,-4.391 3.364,-4.698 0.994,-6.265 -1.886,-6.37 -3.385,-0.13 -4.604,-0.239 -5.38,6.005 -0.214,1.735 -1.912,8.292 -1.912,8.292 -0.926,2.271 -0.62,4.975 0.375,6.032 1.057,1.113 0.724,0.599 1.88,1.447 1.115,0.824 3.287,1.042 4.177,0.188 0.86,-0.818 0.484,-2.443 0.251,-4.855 -0.183,-1.9 0.791,-6.348 0.791,-6.348 z"
     id="path437" />
  <path
     style="fill:#ffffff;fill-opacity:1;fill-rule:nonzero;stroke:none"
     d="m 143.68229,60.68849 c -0.077,0.233 -1.235,0.134 -1.312,0.656 -0.088,0.52 0.645,0.833 1.192,2.744 l 0.011,0.021 c 0.36,1.407 1.24,2.489 2.458,2.781 2.022,0.49 4.194,-1.333 4.86,-4.073 0.676,-2.749 -0.428,-5.369 -2.444,-5.864 -1.926,-0.475 -4.009,1.187 -4.765,3.735"
     id="path438" />
  <path
     style="fill:none;stroke:#231f20;stroke-width:0.565977;stroke-linecap:butt;stroke-linejoin:miter;stroke-miterlimit:4;stroke-dasharray:none;stroke-opacity:1"
     d="m 143.68229,60.68849 c -0.077,0.233 -1.235,0.134 -1.312,0.656 -0.088,0.52 0.645,0.833 1.192,2.744 l 0.011,0.021 c 0.36,1.407 1.24,2.489 2.458,2.781 2.022,0.49 4.194,-1.333 4.86,-4.073 0.676,-2.749 -0.428,-5.369 -2.444,-5.864 -1.926,-0.475 -4.009,1.187 -4.765,3.735 z"
     id="path439" />
  <path
     style="fill:#231f20;fill-opacity:1;fill-rule:nonzero;stroke:none"
     d="m 162.25029,19.812491 c 1.688,1.51 2.219,1.573 2.901,0.896 0.459,-0.448 1.026,-0.703 1.323,-0.964 0.964,-0.854 2.24,-2.719 4.474,-8.911 0.504,-1.396 1.234,-3.365 1.599,-4.141 0.557,-1.234 -1.871,-1.343 -2.1,-0.859 -0.739,1.547 -1.369,2.541 -1.708,3.068 -0.235,0.359 -0.557,1.047 -1.645,2.312 -1.647,1.917 -2.917,2.828 -4.093,4.584 -0.554,0.812 -1.48,1.072 -1.606,2.151 -0.14,1.073 0.855,1.864 0.855,1.864"
     id="path440" />
  <path
     style="fill:none;stroke:#231f20;stroke-width:0.565977;stroke-linecap:butt;stroke-linejoin:miter;stroke-miterlimit:4;stroke-dasharray:none;stroke-opacity:1"
     d="m 162.25029,19.812491 c 1.688,1.51 2.219,1.573 2.901,0.896 0.459,-0.448 1.026,-0.703 1.323,-0.964 0.964,-0.854 2.24,-2.719 4.474,-8.911 0.504,-1.396 1.234,-3.365 1.599,-4.141 0.557,-1.234 -1.871,-1.343 -2.1,-0.859 -0.739,1.547 -1.369,2.541 -1.708,3.068 -0.235,0.359 -0.557,1.047 -1.645,2.312 -1.647,1.917 -2.917,2.828 -4.093,4.584 -0.554,0.812 -1.48,1.072 -1.606,2.151 -0.14,1.073 0.855,1.864 0.855,1.864 z"
     id="path441" />
  <path
     style="fill:#231f20;fill-opacity:1;fill-rule:nonzero;stroke:#231f20;stroke-width:0.565977;stroke-linecap:round;stroke-linejoin:round;stroke-miterlimit:4;stroke-dasharray:none;stroke-opacity:1"
     d="m 162.20929,17.306491 c -1.412,0.09 -2.188,2.1 -2.438,2.334 -3.661,3.422 -3.833,3.761 -6.433,6.561999 -3.765,4.052 -5.719,7.407 -4.004,10.287 1.171,1.943 2.687,2.568 3.984,2.36 1.437,-0.24 3.984,-2.141 3.771,-5.016 l 0.792,-1.521 c 0.661,-0.958 0.978,-1.432 1.338,-1.88 0.635,-0.776 1.271,-1.646 2.427,-3.23 2.036,-2.811999 3.287,-6.447999 3.287,-6.447999 0.177,-0.249 0.224,-0.53 0.197,-0.796"
     id="path442" />
  <path
     style="fill:#fab41d;fill-opacity:1;fill-rule:nonzero;stroke:#231f20;stroke-width:0.565977;stroke-linecap:butt;stroke-linejoin:miter;stroke-miterlimit:4;stroke-dasharray:none;stroke-opacity:1"
     d="m 150.83829,28.76549 c -2.317,2.959 -3.26,5.527 -1.905,7.803 1.156,1.948 2.672,2.582 3.968,2.374 1.442,-0.234 4,-2.12 3.786,-5 z"
     id="path443" />
  <path
     style="fill:#231f20;fill-opacity:1;fill-rule:nonzero;stroke:none"
     d="m 143.45329,72.53049 c -0.239,-0.593 0.365,-2.448 0.245,-4.052 -0.083,-1.082 0.844,-3.661 0.688,-4.734 -0.147,-0.984 -0.12,-1.447 0.968,-1.807 0.647,-0.219 2.037,-0.208 2.219,0.265 0.422,1.115 0.39,2.058 0.13,3.095 -0.297,1.181 -1.385,4.312 -1.636,4.864 -0.634,1.385 -0.462,2.099 -0.593,2.484 -0.249,0.719 -0.588,0.803 -1.088,0.74 -0.959,-0.115 -0.933,-0.855 -0.933,-0.855"
     id="path444" />
  <path
     style="fill:none;stroke:#231f20;stroke-width:0.565977;stroke-linecap:butt;stroke-linejoin:miter;stroke-miterlimit:4;stroke-dasharray:none;stroke-opacity:1"
     d="m 143.45329,72.53049 c -0.239,-0.593 0.365,-2.448 0.245,-4.052 -0.083,-1.082 0.844,-3.661 0.688,-4.734 -0.147,-0.984 -0.12,-1.447 0.968,-1.807 0.647,-0.219 2.037,-0.208 2.219,0.265 0.422,1.115 0.39,2.058 0.13,3.095 -0.297,1.181 -1.385,4.312 -1.636,4.864 -0.634,1.385 -0.462,2.099 -0.593,2.484 -0.249,0.719 -0.588,0.803 -1.088,0.74 -0.959,-0.115 -0.933,-0.855 -0.933,-0.855 z"
     id="path445" />
  <path
     style="fill:#231f20;fill-opacity:1;fill-rule:nonzero;stroke:none"
     d="m 145.04729,63.60949 c -1.245,-0.364 -0.322,-2.183 -0.156,-2.693 0.171,-0.52 0.49,-2.042 0.578,-3.26 0.093,-1.224 0.734,-2.708 0.917,-5.026 0.099,-1.22 0.963,-2.349 2.724,-2.13 1.744,0.218 2.281,1.276 1.943,2.734 -0.339,1.454 -1.272,2.682 -1.719,4.13 -0.448,1.442 -0.767,2.953 -0.953,4.157 -0.219,1.364 -0.834,1.957 -1.298,2.067 -1.166,0.292 -2.036,0.021 -2.036,0.021"
     id="path446" />
  <path
     style="fill:none;stroke:#231f20;stroke-width:0.565977;stroke-linecap:butt;stroke-linejoin:miter;stroke-miterlimit:4;stroke-dasharray:none;stroke-opacity:1"
     d="m 145.04729,63.60949 c -1.245,-0.364 -0.322,-2.183 -0.156,-2.693 0.171,-0.52 0.49,-2.042 0.578,-3.26 0.093,-1.224 0.734,-2.708 0.917,-5.026 0.099,-1.22 0.963,-2.349 2.724,-2.13 1.744,0.218 2.281,1.276 1.943,2.734 -0.339,1.454 -1.272,2.682 -1.719,4.13 -0.448,1.442 -0.767,2.953 -0.953,4.157 -0.219,1.364 -0.834,1.957 -1.298,2.067 -1.166,0.292 -2.036,0.021 -2.036,0.021 z"
     id="path447" />
  <path
     style="fill:#231f20;fill-opacity:1;fill-rule:nonzero;stroke:none"
     d="m 144.45829,79.20849 c -0.421,-0.599 -1.265,-3.74 -1.421,-4.464 -0.146,-0.651 -0.74,-1.646 0.177,-2.348 0.353,-0.298 1.099,-0.459 1.416,-0.443 0.261,0.015 0.423,0.296 0.469,0.687 0.094,0.661 -0.141,0.89 -0.052,2.161 0,0 -0.021,0.308 -0.109,0.844 -0.219,1.62 -0.276,0.885 -0.084,3.303 0.016,0.172 -0.145,0.306 -0.249,0.312 -0.188,-0.006 -0.147,-0.052 -0.147,-0.052"
     id="path448" />
  <path
     style="fill:none;stroke:#231f20;stroke-width:0.565977;stroke-linecap:round;stroke-linejoin:round;stroke-miterlimit:4;stroke-dasharray:none;stroke-opacity:1"
     d="m 144.45829,79.20849 c -0.421,-0.599 -1.265,-3.74 -1.421,-4.464 -0.146,-0.651 -0.74,-1.646 0.177,-2.348 0.353,-0.298 1.099,-0.459 1.416,-0.443 0.261,0.015 0.423,0.296 0.469,0.687 0.094,0.661 -0.141,0.89 -0.052,2.161 0,0 -0.021,0.308 -0.109,0.844 -0.219,1.62 -0.276,0.885 -0.084,3.303 0.016,0.172 -0.145,0.306 -0.249,0.312 -0.188,-0.006 -0.147,-0.052 -0.147,-0.052 z"
     id="path449" />
  <path
     style="fill:#231f20;fill-opacity:1;fill-rule:nonzero;stroke:none"
     d="m 174.33429,4.885491 c 0.416,1.292 -0.366,1.912 -1.402,1.875 -0.308,-0.011 -0.584,0.308 -0.885,0.276 -0.704,-0.088 -1.735,-1.484 -0.787,-2.651 0.068,-0.084 0.375,-0.844 0.683,-1.375 0.624,-1.042 2.364,-2.83300001 5.061,-2.84400001 1.278,-0.005 1.043,0.755 0.527,0.91100001 -1.631,0.501 -1.677,0.865 -2.063,1.163 -1.301,0.962 -1.134,2.645 -1.134,2.645"
     id="path450" />
  <path
     style="fill:none;stroke:#231f20;stroke-width:0.332927;stroke-linecap:butt;stroke-linejoin:miter;stroke-miterlimit:4;stroke-dasharray:none;stroke-opacity:1"
     d="m 174.33429,4.885491 c 0.416,1.292 -0.366,1.912 -1.402,1.875 -0.308,-0.011 -0.584,0.308 -0.885,0.276 -0.704,-0.088 -1.735,-1.484 -0.787,-2.651 0.068,-0.084 0.375,-0.844 0.683,-1.375 0.624,-1.042 2.364,-2.83300001 5.061,-2.84400001 1.278,-0.005 1.043,0.755 0.527,0.91100001 -1.631,0.501 -1.677,0.865 -2.063,1.163 -1.301,0.962 -1.134,2.645 -1.134,2.645 z"
     id="path451" />
  <path
     style="fill:none;stroke:#231f20;stroke-width:0.49806;stroke-linecap:butt;stroke-linejoin:miter;stroke-miterlimit:4;stroke-dasharray:none;stroke-opacity:1"
     d="M 88.521293,28.16149 C 104.19329,18.822491 122.61029,22.292491 122.61029,22.292491"
     id="path452" />
  <path
     style="fill:#231f20;fill-opacity:1;fill-rule:nonzero;stroke:none"
     d="m 124.08929,22.568491 c -0.746,0.124 -1.688,0.405 -2.312,0.77 l 0.64,-1.084 -0.203,-1.244 c 0.448,0.563 1.229,1.167 1.875,1.558"
     id="path453" />
  <path
     style="fill:#231f20;fill-opacity:1;fill-rule:nonzero;stroke:none"
     d="m 98.114293,16.942491 c 1.349,-0.145 1.798,0.74 1.553,1.75 -0.067,0.297 0.187,0.63 0.088,0.922 -0.218,0.672 -1.797,1.402 -2.745,0.24 -0.067,-0.084 -0.755,-0.532 -1.219,-0.942 -0.89,-0.824 -2.296,-2.887 -1.765,-5.532 0.251,-1.255 0.943,-0.87 1,-0.334 0.162,1.698 0.511,1.818 0.719,2.255 0.693,1.469 2.369,1.641 2.369,1.641"
     id="path454" />
  <path
     style="fill:none;stroke:#231f20;stroke-width:0.332927;stroke-linecap:butt;stroke-linejoin:miter;stroke-miterlimit:4;stroke-dasharray:none;stroke-opacity:1"
     d="m 98.114293,16.942491 c 1.349,-0.145 1.798,0.74 1.553,1.75 -0.067,0.297 0.187,0.63 0.088,0.922 -0.218,0.672 -1.797,1.402 -2.745,0.24 -0.067,-0.084 -0.755,-0.532 -1.219,-0.942 -0.89,-0.824 -2.296,-2.887 -1.765,-5.532 0.251,-1.255 0.943,-0.87 1,-0.334 0.162,1.698 0.511,1.818 0.719,2.255 0.693,1.469 2.369,1.641 2.369,1.641 z"
     id="path455" />
  <path
     style="fill:#231f20;fill-opacity:1;fill-rule:nonzero;stroke:none"
     d="m 106.83429,33.95849 c 2.109,-0.833 2.405,-1.281 2.109,-2.193 -0.188,-0.609 -0.162,-1.235 -0.261,-1.609 -0.328,-1.255 -1.411,-3.235 -5.927,-8.021999 -1.021,-1.082 -2.448,-2.618 -2.977997,-3.29 -0.85,-1.058 -2.043,1.057 -1.715,1.484 1.052,1.354 1.657,2.369 1.968997,2.912 0.214,0.369 0.683,0.968 1.323,2.504 0.969,2.332999 1.204,3.875999 2.235,5.723999 0.478,0.86 0.292,1.808 1.197,2.406 0.896,0.61 2.048,0.084 2.048,0.084"
     id="path456" />
  <path
     style="fill:none;stroke:#231f20;stroke-width:0.565977;stroke-linecap:butt;stroke-linejoin:miter;stroke-miterlimit:4;stroke-dasharray:none;stroke-opacity:1"
     d="m 106.83429,33.95849 c 2.109,-0.833 2.405,-1.281 2.109,-2.193 -0.188,-0.609 -0.162,-1.235 -0.261,-1.609 -0.328,-1.255 -1.411,-3.235 -5.927,-8.021999 -1.021,-1.082 -2.448,-2.618 -2.977997,-3.29 -0.85,-1.058 -2.043,1.057 -1.715,1.484 1.052,1.354 1.657,2.369 1.968997,2.912 0.214,0.369 0.683,0.968 1.323,2.504 0.969,2.332999 1.204,3.875999 2.235,5.723999 0.478,0.86 0.292,1.808 1.197,2.406 0.896,0.61 2.048,0.084 2.048,0.084 z"
     id="path457" />
  <path
     style="fill:#231f20;fill-opacity:1;fill-rule:nonzero;stroke:#231f20;stroke-width:0.565977;stroke-linecap:round;stroke-linejoin:round;stroke-miterlimit:4;stroke-dasharray:none;stroke-opacity:1"
     d="m 104.58929,32.85449 c -0.568,1.302 0.88,2.9 0.973,3.228 1.407,4.814 1.631,5.126 2.953,8.71 1.918,5.186 4.032,8.442 7.366,8.213 2.27,-0.161 3.51,-1.24 3.905,-2.489 0.439,-1.391 -0.104,-4.527 -2.771,-5.631 l -1,-1.391 c -0.562,-1.021 -0.838,-1.526 -1.066,-2.046 -0.407,-0.923 -0.902,-1.88 -1.792,-3.62 -1.584,-3.094 -4.266,-5.844 -4.266,-5.844 -0.152,-0.276 -0.381,-0.438 -0.63,-0.536"
     id="path458" />
  <path
     style="fill:#fab41d;fill-opacity:1;fill-rule:nonzero;stroke:none"
     d="m 120.56729,56.10949 c -1.233,-2.88 -1.186,-3.636 -1.186,-4.557 -0.016,-5.782 -2.855,-5.667 -5.251,-4.068 -2.823,1.874 -3.88,2.494 -0.853,8.016 0.837,1.536 3.296,7.849 3.296,7.849 0.578,2.38 2.401,4.395 3.833,4.672 1.511,0.285 0.932,0.061 2.371,0.077 1.385,0.011 3.276,-1.077 3.5,-2.292 0.218,-1.166 -1.038,-2.27 -2.642,-4.082 -1.26,-1.443 -3.068,-5.615 -3.068,-5.615"
     id="path459" />
  <path
     style="fill:none;stroke:#231f20;stroke-width:0.565977;stroke-linecap:butt;stroke-linejoin:miter;stroke-miterlimit:4;stroke-dasharray:none;stroke-opacity:1"
     d="m 120.56729,56.10949 c -1.233,-2.88 -1.186,-3.636 -1.186,-4.557 -0.016,-5.782 -2.855,-5.667 -5.251,-4.068 -2.823,1.874 -3.88,2.494 -0.853,8.016 0.837,1.536 3.296,7.849 3.296,7.849 0.578,2.38 2.401,4.395 3.833,4.672 1.511,0.285 0.932,0.061 2.371,0.077 1.385,0.011 3.276,-1.077 3.5,-2.292 0.218,-1.166 -1.038,-2.27 -2.642,-4.082 -1.26,-1.443 -3.068,-5.615 -3.068,-5.615 z"
     id="path460" />
  <path
     style="fill:#ffffff;fill-opacity:1;fill-rule:nonzero;stroke:none"
     d="m 122.71929,74.56849 c 0.072,0.238 -0.917,0.833 -0.682,1.301 0.24,0.469 1.01,0.297 2.573,1.527 l 0.02,0.014 c 1.109,0.928 2.459,1.292 3.625,0.819 1.922,-0.787 2.615,-3.537 1.563,-6.152 -1.068,-2.619 -3.489,-4.104 -5.417,-3.328 -1.839,0.745 -2.558,3.308 -1.682,5.819"
     id="path461" />
  <path
     style="fill:none;stroke:#231f20;stroke-width:0.565977;stroke-linecap:butt;stroke-linejoin:miter;stroke-miterlimit:4;stroke-dasharray:none;stroke-opacity:1"
     d="m 122.71929,74.56849 c 0.072,0.238 -0.917,0.833 -0.682,1.301 0.24,0.469 1.01,0.297 2.573,1.527 l 0.02,0.014 c 1.109,0.928 2.459,1.292 3.625,0.819 1.922,-0.787 2.615,-3.537 1.563,-6.152 -1.068,-2.619 -3.489,-4.104 -5.417,-3.328 -1.839,0.745 -2.558,3.308 -1.682,5.819 z"
     id="path462" />
  <path
     style="fill:#231f20;fill-opacity:1;fill-rule:nonzero;stroke:none"
     d="m 105.38129,63.44249 c -1.688,-1.51 -2.219,-1.573 -2.902,-0.901 -0.458,0.448 -1.032,0.704 -1.322,0.959 -0.975,0.858 -2.250997,2.718 -4.494997,8.906 -0.511,1.395 -1.24,3.359 -1.604,4.14 -0.563,1.23 1.864,1.344 2.093,0.86 0.74,-1.548 1.37,-2.542 1.714,-3.062 0.235,-0.36 0.557,-1.047 1.649997,-2.314 1.652,-1.91 2.918,-2.817 4.1,-4.566 0.556,-0.814 1.484,-1.079 1.614,-2.152 0.141,-1.072 -0.848,-1.87 -0.848,-1.87"
     id="path463" />
  <path
     style="fill:none;stroke:#231f20;stroke-width:0.565977;stroke-linecap:butt;stroke-linejoin:miter;stroke-miterlimit:4;stroke-dasharray:none;stroke-opacity:1"
     d="m 105.38129,63.44249 c -1.688,-1.51 -2.219,-1.573 -2.902,-0.901 -0.458,0.448 -1.032,0.704 -1.322,0.959 -0.975,0.858 -2.250997,2.718 -4.494997,8.906 -0.511,1.395 -1.24,3.359 -1.604,4.14 -0.563,1.23 1.864,1.344 2.093,0.86 0.74,-1.548 1.37,-2.542 1.714,-3.062 0.235,-0.36 0.557,-1.047 1.649997,-2.314 1.652,-1.91 2.918,-2.817 4.1,-4.566 0.556,-0.814 1.484,-1.079 1.614,-2.152 0.141,-1.072 -0.848,-1.87 -0.848,-1.87 z"
     id="path464" />
  <path
     style="fill:#231f20;fill-opacity:1;fill-rule:nonzero;stroke:#231f20;stroke-width:0.565977;stroke-linecap:round;stroke-linejoin:round;stroke-miterlimit:4;stroke-dasharray:none;stroke-opacity:1"
     d="m 105.41129,65.95349 c 1.412,-0.089 2.199,-2.099 2.443,-2.328 3.672,-3.417 3.844,-3.761 6.448,-6.552 3.776,-4.048 5.735,-7.396 4.027,-10.281 -1.167,-1.948 -2.683,-2.568 -3.98,-2.36 -1.438,0.234 -3.99,2.125 -3.776,5.005 l -0.802,1.521 c -0.661,0.954 -0.985,1.427 -1.344,1.875 -0.636,0.771 -1.27,1.64 -2.426,3.224 -2.052,2.807 -3.303,6.437 -3.303,6.437 -0.177,0.255 -0.224,0.531 -0.197,0.803"
     id="path465" />
  <path
     style="fill:#fab41d;fill-opacity:1;fill-rule:nonzero;stroke:none"
     d="m 118.72929,46.71849 c -1.151,-1.958 -2.667,-2.588 -3.963,-2.385 -1.448,0.229 -4.005,2.109 -3.803,4.989 l 5.844,5.194 c 2.323,-2.959 3.271,-5.522 1.922,-7.798"
     id="path466" />
  <path
     style="fill:none;stroke:#231f20;stroke-width:0.565977;stroke-linecap:butt;stroke-linejoin:miter;stroke-miterlimit:4;stroke-dasharray:none;stroke-opacity:1"
     d="m 118.72929,46.71849 c -1.151,-1.958 -2.667,-2.588 -3.963,-2.385 -1.448,0.229 -4.005,2.109 -3.803,4.989 l 5.844,5.194 c 2.323,-2.959 3.271,-5.522 1.922,-7.798 z"
     id="path467" />
  <path
     style="fill:#231f20;fill-opacity:1;fill-rule:nonzero;stroke:none"
     d="m 129.45829,84.30649 c -0.541,-0.338 -1.135,-2.192 -2.167,-3.426 -0.702,-0.834 -1.453,-3.47 -2.213,-4.246 -0.692,-0.713 -0.948,-1.098 -0.271,-2.03 0.402,-0.558 1.531,-1.359 1.959,-1.083 0.995,0.661 1.52,1.443 1.916,2.432 0.448,1.135 1.391,4.307 1.511,4.905 0.297,1.496 0.854,1.975 0.974,2.366 0.214,0.729 -0.016,0.989 -0.448,1.234 -0.849,0.468 -1.261,-0.152 -1.261,-0.152"
     id="path468" />
  <path
     style="fill:none;stroke:#231f20;stroke-width:0.565977;stroke-linecap:butt;stroke-linejoin:miter;stroke-miterlimit:4;stroke-dasharray:none;stroke-opacity:1"
     d="m 129.45829,84.30649 c -0.541,-0.338 -1.135,-2.192 -2.167,-3.426 -0.702,-0.834 -1.453,-3.47 -2.213,-4.246 -0.692,-0.713 -0.948,-1.098 -0.271,-2.03 0.402,-0.558 1.531,-1.359 1.959,-1.083 0.995,0.661 1.52,1.443 1.916,2.432 0.448,1.135 1.391,4.307 1.511,4.905 0.297,1.496 0.854,1.975 0.974,2.366 0.214,0.729 -0.016,0.989 -0.448,1.234 -0.849,0.468 -1.261,-0.152 -1.261,-0.152 z"
     id="path469" />
  <path
     style="fill:#231f20;fill-opacity:1;fill-rule:nonzero;stroke:none"
     d="m 125.53729,76.14049 c -1.224,0.433 -1.542,-1.583 -1.703,-2.094 -0.163,-0.521 -0.797,-1.942 -1.439,-2.984 -0.634,-1.046 -0.984,-2.625 -2.192,-4.614 -0.636,-1.042 -0.588,-2.464 0.964,-3.318 1.542,-0.844 2.599,-0.302 3.176,1.078 0.574,1.38 0.532,2.922 1.016,4.36 0.479,1.426 1.11,2.842 1.662,3.926 0.614,1.24 0.469,2.074 0.15,2.438 -0.77,0.912 -1.634,1.208 -1.634,1.208"
     id="path470" />
  <path
     style="fill:none;stroke:#231f20;stroke-width:0.565977;stroke-linecap:butt;stroke-linejoin:miter;stroke-miterlimit:4;stroke-dasharray:none;stroke-opacity:1"
     d="m 125.53729,76.14049 c -1.224,0.433 -1.542,-1.583 -1.703,-2.094 -0.163,-0.521 -0.797,-1.942 -1.439,-2.984 -0.634,-1.046 -0.984,-2.625 -2.192,-4.614 -0.636,-1.042 -0.588,-2.464 0.964,-3.318 1.542,-0.844 2.599,-0.302 3.176,1.078 0.574,1.38 0.532,2.922 1.016,4.36 0.479,1.426 1.11,2.842 1.662,3.926 0.614,1.24 0.469,2.074 0.15,2.438 -0.77,0.912 -1.634,1.208 -1.634,1.208 z"
     id="path471" />
  <path
     style="fill:#231f20;fill-opacity:1;fill-rule:nonzero;stroke:none"
     d="m 136.23429,85.57349 c -0.656,0.328 -3.891,0.651 -4.635,0.687 -0.661,0.037 -1.74,0.458 -2.286,-0.558 -0.23,-0.396 -0.271,-1.156 -0.208,-1.468 0.057,-0.256 0.364,-0.37 0.754,-0.354 0.667,0.016 0.855,0.286 2.126,0.401 0,0 0.297,0.077 0.812,0.244 1.562,0.48 0.828,0.412 3.245,0.615 0.172,0.01 0.276,0.193 0.265,0.302 -0.03,0.183 -0.073,0.131 -0.073,0.131"
     id="path472" />
  <path
     style="fill:none;stroke:#231f20;stroke-width:0.565977;stroke-linecap:round;stroke-linejoin:round;stroke-miterlimit:4;stroke-dasharray:none;stroke-opacity:1"
     d="m 136.23429,85.57349 c -0.656,0.328 -3.891,0.651 -4.635,0.687 -0.661,0.037 -1.74,0.458 -2.286,-0.558 -0.23,-0.396 -0.271,-1.156 -0.208,-1.468 0.057,-0.256 0.364,-0.37 0.754,-0.354 0.667,0.016 0.855,0.286 2.126,0.401 0,0 0.297,0.077 0.812,0.244 1.562,0.48 0.828,0.412 3.245,0.615 0.172,0.01 0.276,0.193 0.265,0.302 -0.03,0.183 -0.073,0.131 -0.073,0.131 z"
     id="path474" />
  <path
     style="fill:#231f20;fill-opacity:1;fill-rule:nonzero;stroke:none"
     d="m 93.261293,78.34449 c -0.412,-1.292 0.369,-1.907 1.406,-1.871 0.312,0.011 0.588,-0.307 0.891,-0.271 0.697,0.084 1.728,1.486 0.776,2.647 -0.068,0.083 -0.376,0.843 -0.688,1.38 -0.625,1.036 -2.364,2.828 -5.068,2.828 -1.276,0.005 -1.036,-0.751 -0.52,-0.912 1.63,-0.495 1.681,-0.859 2.067,-1.156 1.297,-0.964 1.136,-2.645 1.136,-2.645"
     id="path476" />
  <path
     style="fill:none;stroke:#231f20;stroke-width:0.332927;stroke-linecap:butt;stroke-linejoin:miter;stroke-miterlimit:4;stroke-dasharray:none;stroke-opacity:1"
     d="m 93.261293,78.34449 c -0.412,-1.292 0.369,-1.907 1.406,-1.871 0.312,0.011 0.588,-0.307 0.891,-0.271 0.697,0.084 1.728,1.486 0.776,2.647 -0.068,0.083 -0.376,0.843 -0.688,1.38 -0.625,1.036 -2.364,2.828 -5.068,2.828 -1.276,0.005 -1.036,-0.751 -0.52,-0.912 1.63,-0.495 1.681,-0.859 2.067,-1.156 1.297,-0.964 1.136,-2.645 1.136,-2.645 z"
     id="path477" />
</svg>
