<?xml version="1.0" encoding="UTF-8" standalone="no"?>
<!-- Created with Inkscape (http://www.inkscape.org/) -->

<svg
   version="1.1"
   id="svg1"
   width="271.28824"
   height="80.60498"
   viewBox="0 0 271.28823 80.604979"
   sodipodi:docname="cell.svg"
   xmlns:inkscape="http://www.inkscape.org/namespaces/inkscape"
   xmlns:sodipodi="http://sodipodi.sourceforge.net/DTD/sodipodi-0.dtd"
   xmlns="http://www.w3.org/2000/svg"
   xmlns:svg="http://www.w3.org/2000/svg">
  <sodipodi:namedview
     id="namedview1"
     pagecolor="#ffffff"
     bordercolor="#000000"
     borderopacity="0.25"
     inkscape:showpageshadow="2"
     inkscape:pageopacity="0.0"
     inkscape:pagecheckerboard="0"
     inkscape:deskcolor="#d1d1d1">
    <inkscape:page
       x="0"
       y="0"
       inkscape:label="1"
       id="page1"
       width="271.28824"
       height="80.60498"
       margin="0"
       bleed="0" />
  </sodipodi:namedview>
  <defs
     id="defs1" />
  <path
     style="fill:#231f20;fill-opacity:1;fill-rule:nonzero;stroke:none"
     d="m 261.90288,58.174644 c 1.994,-1.068 2.525,-1.005 3.036,-0.193 0.338,0.536 0.838,0.927 1.057,1.245 0.74,1.072 1.541,3.167 2.26,9.714 0.163,1.484 0.407,3.568 0.573,4.405 0.266,1.333 -2.125,0.871 -2.234,0.349 -0.354,-1.677 -0.728,-2.806 -0.938,-3.39 -0.145,-0.406 -0.301,-1.151 -1.057,-2.635 -1.151,-2.251 -2.172,-3.428 -2.905,-5.412 -0.344,-0.916 -1.188,-1.396 -1.063,-2.468 0.124,-1.079 1.271,-1.615 1.271,-1.615"
     id="path391" />
  <path
     style="fill:none;stroke:#231f20;stroke-width:0.565977;stroke-linecap:butt;stroke-linejoin:miter;stroke-miterlimit:4;stroke-dasharray:none;stroke-opacity:1"
     d="m 261.90288,58.174644 c 1.994,-1.068 2.525,-1.005 3.036,-0.193 0.338,0.536 0.838,0.927 1.057,1.245 0.74,1.072 1.541,3.167 2.26,9.714 0.163,1.484 0.407,3.568 0.573,4.405 0.266,1.333 -2.125,0.871 -2.234,0.349 -0.354,-1.677 -0.728,-2.806 -0.938,-3.39 -0.145,-0.406 -0.301,-1.151 -1.057,-2.635 -1.151,-2.251 -2.172,-3.428 -2.905,-5.412 -0.344,-0.916 -1.188,-1.396 -1.063,-2.468 0.124,-1.079 1.271,-1.615 1.271,-1.615 z"
     id="path392" />
  <path
     style="fill:#231f20;fill-opacity:1;fill-rule:nonzero;stroke:#231f20;stroke-width:0.565977;stroke-linecap:round;stroke-linejoin:miter;stroke-miterlimit:4;stroke-dasharray:none;stroke-opacity:1"
     d="m 261.15188,60.554644 c -1.244,-0.516 -1.52,-2.521 -1.697,-2.792 -2.756,-4.188 -2.844,-4.562 -4.714,-7.896 -2.709,-4.817 -3.822,-8.53 -1.474,-10.921 1.589,-1.625 3.209,-1.87 4.422,-1.36 1.343,0.563 3.38,3.006 2.49,5.756 l 0.406,1.662 c 0.422,1.082 0.619,1.624 0.875,2.145 0.432,0.901 0.839,1.896 1.588,3.702 1.328,3.204 1.683,7.032 1.683,7.032 0.114,0.292 0.093,0.574 0,0.828"
     id="path393" />
  <path
     style="fill:#fab41d;fill-opacity:1;fill-rule:nonzero;stroke:none"
     d="m 257.68888,37.585644 c -1.213,-0.51 -2.833,-0.265 -4.422,1.36 -1.036,1.052 -1.375,2.37 -1.23,3.916 -0.129,1.032 -0.181,1.656 0.402,2.219 0.052,0.047 0.098,0.109 0.146,0.172 0.192,0.557 0.406,1.125 0.676,1.724 l 6.918,-3.635 c 0.885,-2.75 -1.142,-5.193 -2.49,-5.756"
     id="path394" />
  <path
     style="fill:none;stroke:#231f20;stroke-width:0.565977;stroke-linecap:round;stroke-linejoin:round;stroke-miterlimit:4;stroke-dasharray:none;stroke-opacity:1"
     d="m 257.68888,37.585644 c -1.213,-0.51 -2.833,-0.265 -4.422,1.36 -1.036,1.052 -1.375,2.37 -1.23,3.916 -0.129,1.032 -0.181,1.656 0.402,2.219 0.052,0.047 0.098,0.109 0.146,0.172 0.192,0.557 0.406,1.125 0.676,1.724 l 6.918,-3.635 c 0.885,-2.75 -1.142,-5.193 -2.49,-5.756 z"
     id="path395" />
  <path
     style="fill:#231f20;fill-opacity:1;fill-rule:nonzero;stroke:none"
     d="m 268.39688,77.074644 c 1.079,-0.077 0.803,-1.301 0.542,-2.5 -0.063,-0.301 -0.099,-0.588 -0.183,-0.88 -0.353,-1.172 -1.181,-1.817 -3.104,0.48 -0.067,0.088 -1.891,1.296 -2.457,1.552 -2.73,1.208 -2.97,0.4 -2.73,1.208 0.162,0.536 0.667,0.542 1.296,0.526 0.855,-0.015 3.86,-0.334 4.324,-0.354 0.452,-0.01 2.312,-0.032 2.312,-0.032"
     id="path396" />
  <path
     style="fill:none;stroke:#231f20;stroke-width:0.565977;stroke-linecap:butt;stroke-linejoin:miter;stroke-miterlimit:4;stroke-dasharray:none;stroke-opacity:1"
     d="m 268.39688,77.074644 c 1.079,-0.077 0.803,-1.301 0.542,-2.5 -0.063,-0.301 -0.099,-0.588 -0.183,-0.88 -0.353,-1.172 -1.181,-1.817 -3.104,0.48 -0.067,0.088 -1.891,1.296 -2.457,1.552 -2.73,1.208 -2.97,0.4 -2.73,1.208 0.162,0.536 0.667,0.542 1.296,0.526 0.855,-0.015 3.86,-0.334 4.324,-0.354 0.452,-0.01 2.312,-0.032 2.312,-0.032 z"
     id="path397" />
  <path
     style="fill:#231f20;fill-opacity:1;fill-rule:nonzero;stroke:none"
     d="m 123.85088,45.856644 c -2.104,-0.839 -2.396,-1.287 -2.095,-2.192 0.199,-0.615 0.167,-1.24 0.276,-1.615 0.334,-1.25 1.434,-3.218 5.98,-7.98 1.026,-1.072 2.464,-2.604 3,-3.276 0.855,-1.046 2.036,1.079 1.703,1.5 -1.063,1.355 -1.667,2.355 -1.989,2.891 -0.214,0.376 -0.688,0.969 -1.339,2.505 -0.984,2.328 -1.229,3.871 -2.276,5.71 -0.484,0.853 -0.307,1.801 -1.213,2.39 -0.902,0.61 -2.047,0.067 -2.047,0.067"
     id="path398" />
  <path
     style="fill:none;stroke:#231f20;stroke-width:0.565977;stroke-linecap:butt;stroke-linejoin:miter;stroke-miterlimit:4;stroke-dasharray:none;stroke-opacity:1"
     d="m 123.85088,45.856644 c -2.104,-0.839 -2.396,-1.287 -2.095,-2.192 0.199,-0.615 0.167,-1.24 0.276,-1.615 0.334,-1.25 1.434,-3.218 5.98,-7.98 1.026,-1.072 2.464,-2.604 3,-3.276 0.855,-1.046 2.036,1.079 1.703,1.5 -1.063,1.355 -1.667,2.355 -1.989,2.891 -0.214,0.376 -0.688,0.969 -1.339,2.505 -0.984,2.328 -1.229,3.871 -2.276,5.71 -0.484,0.853 -0.307,1.801 -1.213,2.39 -0.902,0.61 -2.047,0.067 -2.047,0.067 z"
     id="path399" />
  <path
     style="fill:#231f20;fill-opacity:1;fill-rule:nonzero;stroke:#231f20;stroke-width:0.565977;stroke-linecap:round;stroke-linejoin:round;stroke-miterlimit:4;stroke-dasharray:none;stroke-opacity:1"
     d="m 126.11088,44.779644 c 0.552,1.301 -0.907,2.895 -1.005,3.218 -1.432,4.807 -1.662,5.115 -3.011,8.692 -1.948,5.172 -4.077,8.417 -7.427,8.156 -2.26,-0.171 -3.489,-1.255 -3.885,-2.509 -0.427,-1.396 0.14,-4.522 2.812,-5.61 l 1.011,-1.39 c 0.562,-1.016 0.844,-1.516 1.089,-2.038 0.405,-0.916 0.905,-1.864 1.812,-3.604 1.604,-3.082 4.303,-5.817 4.303,-5.817 0.15,-0.265 0.374,-0.437 0.629,-0.532"
     id="path400" />
  <path
     style="fill:#231f20;fill-opacity:1;fill-rule:nonzero;stroke:none"
     d="m 131.82388,28.393644 c -1.338,0.198 -1.541,1.172 -1.052,2.088 0.151,0.271 -0.01,0.656 0.151,0.918 0.387,0.582 2.105,0.889 2.72,-0.48 0.047,-0.094 0.588,-0.708 0.932,-1.224 0.656,-1.02 1.489,-3.375 0.292,-5.796 -0.563,-1.142 -1.136,-0.595 -1.053,-0.068 0.281,1.686 -0.02,1.885 -0.119,2.364 -0.287,1.594 -1.871,2.198 -1.871,2.198"
     id="path401" />
  <path
     style="fill:none;stroke:#231f20;stroke-width:0.332927;stroke-linecap:butt;stroke-linejoin:miter;stroke-miterlimit:4;stroke-dasharray:none;stroke-opacity:1"
     d="m 131.82388,28.393644 c -1.338,0.198 -1.541,1.172 -1.052,2.088 0.151,0.271 -0.01,0.656 0.151,0.918 0.387,0.582 2.105,0.889 2.72,-0.48 0.047,-0.094 0.588,-0.708 0.932,-1.224 0.656,-1.02 1.489,-3.375 0.292,-5.796 -0.563,-1.142 -1.136,-0.595 -1.053,-0.068 0.281,1.686 -0.02,1.885 -0.119,2.364 -0.287,1.594 -1.871,2.198 -1.871,2.198 z"
     id="path402" />
  <path
     style="fill:#fab41d;fill-opacity:1;fill-rule:nonzero;stroke:none"
     d="m 116.00688,71.304644 c -1.953,-2.454 -3.027,-4.526 -3.536,-5.287 -1.772,-2.656 -1.885,-5.281 0.661,-6.64 2.99,-1.593 5.375,-0.104 7.526,3.459 0.906,1.505 3.718,4.328 3.718,4.328 2.558,1.994 3.172,5.421 3.152,6.692 -0.032,1.532 0.438,1.698 -0.338,2.912 -1.47,2.24 -2.579,2.437 -3.683,1.984 -1.099,-0.443 -1.896,-1.464 -3.683,-3.104 -1.708,-1.579 -3.817,-4.344 -3.817,-4.344"
     id="path403" />
  <path
     style="fill:none;stroke:#231f20;stroke-width:0.565977;stroke-linecap:butt;stroke-linejoin:miter;stroke-miterlimit:4;stroke-dasharray:none;stroke-opacity:1"
     d="m 116.00688,71.304644 c -1.953,-2.454 -3.027,-4.526 -3.536,-5.287 -1.772,-2.656 -1.885,-5.281 0.661,-6.64 2.99,-1.593 5.375,-0.104 7.526,3.459 0.906,1.505 3.718,4.328 3.718,4.328 2.558,1.994 3.172,5.421 3.152,6.692 -0.032,1.532 0.438,1.698 -0.338,2.912 -1.47,2.24 -2.579,2.437 -3.683,1.984 -1.099,-0.443 -1.896,-1.464 -3.683,-3.104 -1.708,-1.579 -3.817,-4.344 -3.817,-4.344 z"
     id="path404" />
  <path
     style="fill:#ffffff;fill-opacity:1;fill-rule:nonzero;stroke:none"
     d="m 132.82988,72.716644 c 0.25,-0.042 0.328,-1.199 0.854,-1.199 0.526,0 0.724,0.771 2.52,1.615 l 0.022,0.01 c 1.333,0.579 2.26,1.615 2.364,2.866 0.166,2.072 -1.979,3.932 -4.791,4.161 -2.819,0.233 -5.229,-1.261 -5.407,-3.333 -0.166,-1.98 1.803,-3.771 4.438,-4.12"
     id="path406" />
  <path
     style="fill:none;stroke:#231f20;stroke-width:0.565977;stroke-linecap:butt;stroke-linejoin:miter;stroke-miterlimit:4;stroke-dasharray:none;stroke-opacity:1"
     d="m 132.82988,72.716644 c 0.25,-0.042 0.328,-1.199 0.854,-1.199 0.526,0 0.724,0.771 2.52,1.615 l 0.022,0.01 c 1.333,0.579 2.26,1.615 2.364,2.866 0.166,2.072 -1.979,3.932 -4.791,4.161 -2.819,0.233 -5.229,-1.261 -5.407,-3.333 -0.166,-1.98 1.803,-3.771 4.438,-4.12 z"
     id="path408" />
  <path
     style="fill:#231f20;fill-opacity:1;fill-rule:nonzero;stroke:none"
     d="m 128.38688,49.700644 c -1.708,-1.479 -1.844,-2 -1.26,-2.76 0.391,-0.516 0.563,-1.115 0.787,-1.437 0.718,-1.068 2.4,-2.574 8.249,-5.595 1.328,-0.676 3.183,-1.656 3.912,-2.115 1.145,-0.713 1.572,1.678 1.12,1.975 -1.443,0.932 -2.349,1.683 -2.829,2.083 -0.323,0.281 -0.963,0.688 -2.078,1.933 -1.688,1.88 -2.426,3.255 -4.016,4.656 -0.734,0.645 -0.874,1.598 -1.926,1.864 -1.047,0.281 -1.959,-0.604 -1.959,-0.604"
     id="path410" />
  <path
     style="fill:none;stroke:#231f20;stroke-width:0.565977;stroke-linecap:butt;stroke-linejoin:miter;stroke-miterlimit:4;stroke-dasharray:none;stroke-opacity:1"
     d="m 128.38688,49.700644 c -1.708,-1.479 -1.844,-2 -1.26,-2.76 0.391,-0.516 0.563,-1.115 0.787,-1.437 0.718,-1.068 2.4,-2.574 8.249,-5.595 1.328,-0.676 3.183,-1.656 3.912,-2.115 1.145,-0.713 1.572,1.678 1.12,1.975 -1.443,0.932 -2.349,1.683 -2.829,2.083 -0.323,0.281 -0.963,0.688 -2.078,1.933 -1.688,1.88 -2.426,3.255 -4.016,4.656 -0.734,0.645 -0.874,1.598 -1.926,1.864 -1.047,0.281 -1.959,-0.604 -1.959,-0.604 z"
     id="path411" />
  <path
     style="fill:#231f20;fill-opacity:1;fill-rule:nonzero;stroke:#231f20;stroke-width:0.565977;stroke-linecap:round;stroke-linejoin:round;stroke-miterlimit:4;stroke-dasharray:none;stroke-opacity:1"
     d="m 130.88188,49.413644 c 0.094,1.417 -1.802,2.443 -2.006,2.719 -2.916,4.078 -3.233,4.292 -5.676,7.234 -3.532,4.255 -6.605,6.626 -9.682,5.292 -2.079,-0.906 -2.891,-2.328 -2.85,-3.641 0.047,-1.457 1.604,-4.233 4.484,-4.385 l 1.412,-0.984 c 0.859,-0.776 1.292,-1.162 1.688,-1.574 0.682,-0.733 1.468,-1.468 2.891,-2.817 2.52,-2.391 5.963,-4.093 5.963,-4.093 0.229,-0.209 0.494,-0.292 0.765,-0.303"
     id="path412" />
  <path
     style="fill:#fab41d;fill-opacity:1;fill-rule:nonzero;stroke:#231f20;stroke-width:0.565977;stroke-linecap:butt;stroke-linejoin:miter;stroke-miterlimit:4;stroke-dasharray:none;stroke-opacity:1"
     d="m 115.09488,57.038644 c -2.88,0.162 -4.421,2.943 -4.468,4.407 -0.037,1.307 0.787,2.729 2.864,3.624 2.432,1.048 4.86,-0.219 7.495,-2.895 z"
     id="path413" />
  <path
     style="fill:#231f20;fill-opacity:1;fill-rule:nonzero;stroke:none"
     d="m 139.90788,74.585644 c -0.141,-0.625 -1.708,-1.787 -2.542,-3.156 -0.562,-0.937 -2.807,-2.5 -3.302,-3.469 -0.453,-0.886 -0.734,-1.25 -1.833,-0.911 -0.656,0.197 -1.781,1.011 -1.656,1.505 0.301,1.151 0.869,1.902 1.681,2.594 0.928,0.792 3.626,2.713 4.152,3.021 1.318,0.765 1.594,1.443 1.922,1.681 0.62,0.438 0.942,0.308 1.317,-0.025 0.715,-0.651 0.261,-1.24 0.261,-1.24"
     id="path414" />
  <path
     style="fill:none;stroke:#231f20;stroke-width:0.565977;stroke-linecap:butt;stroke-linejoin:miter;stroke-miterlimit:4;stroke-dasharray:none;stroke-opacity:1"
     d="m 139.90788,74.585644 c -0.141,-0.625 -1.708,-1.787 -2.542,-3.156 -0.562,-0.937 -2.807,-2.5 -3.302,-3.469 -0.453,-0.886 -0.734,-1.25 -1.833,-0.911 -0.656,0.197 -1.781,1.011 -1.656,1.505 0.301,1.151 0.869,1.902 1.681,2.594 0.928,0.792 3.626,2.713 4.152,3.021 1.318,0.765 1.594,1.443 1.922,1.681 0.62,0.438 0.942,0.308 1.317,-0.025 0.715,-0.651 0.261,-1.24 0.261,-1.24 z"
     id="path415" />
  <path
     style="fill:#231f20;fill-opacity:1;fill-rule:nonzero;stroke:none"
     d="m 132.97988,67.101644 c -0.837,-0.989 -2.124,0.588 -2.525,0.948 -0.401,0.364 -1.672,1.271 -2.751,1.844 -1.077,0.583 -2.181,1.765 -4.228,2.869 -1.073,0.583 -1.756,1.828 -0.844,3.35 0.896,1.509 2.083,1.572 3.282,0.677 1.192,-0.896 1.937,-2.251 3.082,-3.24 1.142,-0.995 2.402,-1.896 3.418,-2.552 1.161,-0.756 1.457,-1.552 1.374,-2.021 -0.208,-1.178 -0.808,-1.875 -0.808,-1.875"
     id="path416" />
  <path
     style="fill:none;stroke:#231f20;stroke-width:0.565977;stroke-linecap:butt;stroke-linejoin:miter;stroke-miterlimit:4;stroke-dasharray:none;stroke-opacity:1"
     d="m 132.97988,67.101644 c -0.837,-0.989 -2.124,0.588 -2.525,0.948 -0.401,0.364 -1.672,1.271 -2.751,1.844 -1.077,0.583 -2.181,1.765 -4.228,2.869 -1.073,0.583 -1.756,1.828 -0.844,3.35 0.896,1.509 2.083,1.572 3.282,0.677 1.192,-0.896 1.937,-2.251 3.082,-3.24 1.142,-0.995 2.402,-1.896 3.418,-2.552 1.161,-0.756 1.457,-1.552 1.374,-2.021 -0.208,-1.178 -0.808,-1.875 -0.808,-1.875 z"
     id="path417" />
  <path
     style="fill:#231f20;fill-opacity:1;fill-rule:nonzero;stroke:none"
     d="m 135.14688,79.902644 c 0.683,-0.29 3.037,-2.525 3.552,-3.066 0.464,-0.475 1.485,-1.011 1.073,-2.095 -0.145,-0.437 -0.697,-0.963 -0.978,-1.115 -0.224,-0.124 -0.511,0.032 -0.756,0.344 -0.427,0.511 -0.348,0.828 -1.088,1.871 0,0 -0.14,0.271 -0.35,0.771 -0.656,1.494 -0.229,0.9 -1.656,2.858 -0.104,0.136 -0.036,0.334 0.058,0.396 0.156,0.094 0.145,0.036 0.145,0.036"
     id="path418" />
  <path
     style="fill:none;stroke:#231f20;stroke-width:0.565977;stroke-linecap:round;stroke-linejoin:round;stroke-miterlimit:4;stroke-dasharray:none;stroke-opacity:1"
     d="m 135.14688,79.902644 c 0.683,-0.29 3.037,-2.525 3.552,-3.066 0.464,-0.475 1.485,-1.011 1.073,-2.095 -0.145,-0.437 -0.697,-0.963 -0.978,-1.115 -0.224,-0.124 -0.511,0.032 -0.756,0.344 -0.427,0.511 -0.348,0.828 -1.088,1.871 0,0 -0.14,0.271 -0.35,0.771 -0.656,1.494 -0.229,0.9 -1.656,2.858 -0.104,0.136 -0.036,0.334 0.058,0.396 0.156,0.094 0.145,0.036 0.145,0.036 z"
     id="path420" />
  <path
     style="fill:#231f20;fill-opacity:1;fill-rule:nonzero;stroke:none"
     d="m 141.62688,35.789644 c -1.333,-0.245 -1.844,0.61 -1.677,1.63 0.052,0.308 -0.23,0.62 -0.156,0.917 0.177,0.676 1.697,1.525 2.729,0.432 0.072,-0.073 0.787,-0.475 1.281,-0.849 0.952,-0.755 2.506,-2.714 2.162,-5.391 -0.156,-1.26 -0.876,-0.932 -0.975,-0.401 -0.276,1.682 -0.635,1.776 -0.88,2.193 -0.792,1.416 -2.484,1.469 -2.484,1.469"
     id="path422" />
  <path
     style="fill:none;stroke:#231f20;stroke-width:0.332927;stroke-linecap:butt;stroke-linejoin:miter;stroke-miterlimit:4;stroke-dasharray:none;stroke-opacity:1"
     d="m 141.62688,35.789644 c -1.333,-0.245 -1.844,0.61 -1.677,1.63 0.052,0.308 -0.23,0.62 -0.156,0.917 0.177,0.676 1.697,1.525 2.729,0.432 0.072,-0.073 0.787,-0.475 1.281,-0.849 0.952,-0.755 2.506,-2.714 2.162,-5.391 -0.156,-1.26 -0.876,-0.932 -0.975,-0.401 -0.276,1.682 -0.635,1.776 -0.88,2.193 -0.792,1.416 -2.484,1.469 -2.484,1.469 z"
     id="path423" />
  <path
     style="fill:#231f20;fill-opacity:1;fill-rule:nonzero;stroke:none"
     d="m 206.78788,59.069644 c 1.708,-1.479 2.249,-1.536 2.911,-0.853 0.453,0.458 1.026,0.718 1.308,0.989 0.958,0.864 2.202,2.749 4.344,8.973 0.484,1.407 1.182,3.387 1.536,4.172 0.536,1.235 -1.896,1.314 -2.12,0.824 -0.714,-1.562 -1.323,-2.568 -1.656,-3.1 -0.23,-0.358 -0.536,-1.052 -1.61,-2.333 -1.62,-1.948 -2.869,-2.869 -4.025,-4.645 -0.537,-0.823 -1.459,-1.099 -1.568,-2.178 -0.125,-1.073 0.88,-1.849 0.88,-1.849"
     id="path424" />
  <path
     style="fill:none;stroke:#231f20;stroke-width:0.565977;stroke-linecap:butt;stroke-linejoin:miter;stroke-miterlimit:4;stroke-dasharray:none;stroke-opacity:1"
     d="m 206.78788,59.069644 c 1.708,-1.479 2.249,-1.536 2.911,-0.853 0.453,0.458 1.026,0.718 1.308,0.989 0.958,0.864 2.202,2.749 4.344,8.973 0.484,1.407 1.182,3.387 1.536,4.172 0.536,1.235 -1.896,1.314 -2.12,0.824 -0.714,-1.562 -1.323,-2.568 -1.656,-3.1 -0.23,-0.358 -0.536,-1.052 -1.61,-2.333 -1.62,-1.948 -2.869,-2.869 -4.025,-4.645 -0.537,-0.823 -1.459,-1.099 -1.568,-2.178 -0.125,-1.073 0.88,-1.849 0.88,-1.849 z"
     id="path425" />
  <path
     style="fill:#231f20;fill-opacity:1;fill-rule:nonzero;stroke:#231f20;stroke-width:0.565977;stroke-linecap:round;stroke-linejoin:round;stroke-miterlimit:4;stroke-dasharray:none;stroke-opacity:1"
     d="m 206.70888,61.574644 c -1.41,-0.109 -2.156,-2.129 -2.4,-2.369 -3.614,-3.479 -3.781,-3.823 -6.338,-6.661 -3.704,-4.11 -5.606,-7.489 -3.839,-10.349 1.197,-1.927 2.719,-2.526 4.015,-2.292 1.438,0.256 3.953,2.198 3.693,5.068 l 0.771,1.537 c 0.641,0.963 0.964,1.442 1.312,1.9 0.625,0.781 1.24,1.661 2.37,3.266 2,2.838 3.192,6.495 3.192,6.495 0.167,0.255 0.214,0.531 0.183,0.801"
     id="path426" />
  <path
     style="fill:#fab41d;fill-opacity:1;fill-rule:nonzero;stroke:none"
     d="m 187.48488,47.487644 c 1.886,-2.506 3.626,-4.058 4.235,-4.746 2.131,-2.374 4.641,-3.145 6.593,-1.02 2.292,2.5 1.448,5.178 -1.462,8.151 -1.235,1.254 -3.266,4.688 -3.266,4.688 -1.292,2.973 -4.453,4.426 -5.688,4.724 -1.494,0.353 -1.532,0.848 -2.901,0.394 -2.536,-0.853 -3.011,-1.885 -2.844,-3.061 0.157,-1.177 0.937,-2.204 2.084,-4.344 1.099,-2.047 3.249,-4.786 3.249,-4.786"
     id="path427" />
  <path
     style="fill:none;stroke:#231f20;stroke-width:0.565977;stroke-linecap:butt;stroke-linejoin:miter;stroke-miterlimit:4;stroke-dasharray:none;stroke-opacity:1"
     d="m 187.48488,47.487644 c 1.886,-2.506 3.626,-4.058 4.235,-4.746 2.131,-2.374 4.641,-3.145 6.593,-1.02 2.292,2.5 1.448,5.178 -1.462,8.151 -1.235,1.254 -3.266,4.688 -3.266,4.688 -1.292,2.973 -4.453,4.426 -5.688,4.724 -1.494,0.353 -1.532,0.848 -2.901,0.394 -2.536,-0.853 -3.011,-1.885 -2.844,-3.061 0.157,-1.177 0.937,-2.204 2.084,-4.344 1.099,-2.047 3.249,-4.786 3.249,-4.786 z"
     id="path428" />
  <path
     style="fill:#ffffff;fill-opacity:1;fill-rule:nonzero;stroke:none"
     d="m 183.36088,67.456644 c -0.188,0.156 0.338,1.192 -0.109,1.462 -0.453,0.271 -1.021,-0.286 -2.996,-0.077 l -0.02,0.004 c -1.437,0.193 -2.776,-0.213 -3.505,-1.233 -1.214,-1.683 -0.339,-4.386 1.942,-6.038 2.298,-1.661 5.136,-1.629 6.355,0.058 1.167,1.604 0.411,4.161 -1.667,5.824"
     id="path429" />
  <path
     style="fill:none;stroke:#231f20;stroke-width:0.565977;stroke-linecap:butt;stroke-linejoin:miter;stroke-miterlimit:4;stroke-dasharray:none;stroke-opacity:1"
     d="m 183.36088,67.456644 c -0.188,0.156 0.338,1.192 -0.109,1.462 -0.453,0.271 -1.021,-0.286 -2.996,-0.077 l -0.02,0.004 c -1.437,0.193 -2.776,-0.213 -3.505,-1.233 -1.214,-1.683 -0.339,-4.386 1.942,-6.038 2.298,-1.661 5.136,-1.629 6.355,0.058 1.167,1.604 0.411,4.161 -1.667,5.824 z"
     id="path430" />
  <path
     style="fill:#231f20;fill-opacity:1;fill-rule:nonzero;stroke:none"
     d="m 201.29288,61.336644 c 2.099,-0.839 2.626,-0.719 3.031,0.145 0.276,0.584 0.735,1.011 0.917,1.36 0.615,1.129 1.182,3.317 1.178,9.9 -0.006,1.485 0.014,3.584 0.088,4.443 0.104,1.344 -2.214,0.625 -2.271,0.089 -0.161,-1.708 -0.412,-2.86 -0.552,-3.469 -0.104,-0.416 -0.172,-1.172 -0.761,-2.735 -0.895,-2.364 -1.776,-3.645 -2.291,-5.697 -0.24,-0.954 -1.027,-1.516 -0.776,-2.574 0.233,-1.057 1.437,-1.462 1.437,-1.462"
     id="path431" />
  <path
     style="fill:none;stroke:#231f20;stroke-width:0.565977;stroke-linecap:butt;stroke-linejoin:miter;stroke-miterlimit:4;stroke-dasharray:none;stroke-opacity:1"
     d="m 201.29288,61.336644 c 2.099,-0.839 2.626,-0.719 3.031,0.145 0.276,0.584 0.735,1.011 0.917,1.36 0.615,1.129 1.182,3.317 1.178,9.9 -0.006,1.485 0.014,3.584 0.088,4.443 0.104,1.344 -2.214,0.625 -2.271,0.089 -0.161,-1.708 -0.412,-2.86 -0.552,-3.469 -0.104,-0.416 -0.172,-1.172 -0.761,-2.735 -0.895,-2.364 -1.776,-3.645 -2.291,-5.697 -0.24,-0.954 -1.027,-1.516 -0.776,-2.574 0.233,-1.057 1.437,-1.462 1.437,-1.462 z"
     id="path432" />
  <path
     style="fill:#231f20;fill-opacity:1;fill-rule:nonzero;stroke:#231f20;stroke-width:0.565977;stroke-linecap:round;stroke-linejoin:round;stroke-miterlimit:4;stroke-dasharray:none;stroke-opacity:1"
     d="m 200.40288,63.684644 c -1.303,-0.567 -1.344,-2.719 -1.495,-3.026 -2.281,-4.469 -2.328,-4.844 -3.823,-8.37 -2.162,-5.083 -2.854,-8.905 -0.256,-11.025 1.756,-1.432 3.396,-1.506 4.547,-0.864 1.271,0.713 3.016,3.369 1.833,6 l 0.23,1.702 c 0.292,1.125 0.432,1.683 0.62,2.224 0.338,0.943 0.63,1.979 1.177,3.859 0.964,3.338 0.896,7.177 0.896,7.177 0.077,0.303 0.036,0.579 -0.084,0.823"
     id="path433" />
  <path
     style="fill:#fab41d;fill-opacity:1;fill-rule:nonzero;stroke:none"
     d="m 199.01688,40.169644 c -1.15,-0.636 -2.792,-0.557 -4.541,0.88 -2.048,1.683 -2.037,4.416 -0.871,7.989 l 7.271,-2.879 c 1.177,-2.636 -0.583,-5.282 -1.859,-5.99"
     id="path434" />
  <path
     style="fill:none;stroke:#231f20;stroke-width:0.565977;stroke-linecap:butt;stroke-linejoin:miter;stroke-miterlimit:4;stroke-dasharray:none;stroke-opacity:1"
     d="m 199.01688,40.169644 c -1.15,-0.636 -2.792,-0.557 -4.541,0.88 -2.048,1.683 -2.037,4.416 -0.871,7.989 l 7.271,-2.879 c 1.177,-2.636 -0.583,-5.282 -1.859,-5.99 z"
     id="path435" />
  <path
     style="fill:#ffffff;fill-opacity:1;fill-rule:nonzero;stroke:none"
     d="m 1.8188829,23.741644 c -0.161,-0.176 -1.19199996,0.339 -1.46199996,-0.109 -0.267,-0.453 0.286,-1.015 0.088,-3 v -0.015 c -0.203,-1.442 0.218,-2.766 1.23399996,-3.5 1.683,-1.209 4.391,-0.333 6.036,1.963 1.647,2.297 1.615,5.136 -0.072,6.349 -1.614,1.156 -4.162,0.396 -5.824,-1.688"
     id="path436" />
  <path
     style="fill:none;stroke:#231f20;stroke-width:0.565977;stroke-linecap:butt;stroke-linejoin:miter;stroke-miterlimit:4;stroke-dasharray:none;stroke-opacity:1"
     d="m 1.8188829,23.741644 c -0.161,-0.176 -1.19199996,0.339 -1.46199996,-0.109 -0.267,-0.453 0.286,-1.015 0.088,-3 v -0.015 c -0.203,-1.442 0.218,-2.766 1.23399996,-3.5 1.683,-1.209 4.391,-0.333 6.036,1.963 1.647,2.297 1.615,5.136 -0.072,6.349 -1.614,1.156 -4.162,0.396 -5.824,-1.688 z"
     id="path437" />
  <path
     style="fill:#fab41d;fill-opacity:1;fill-rule:nonzero;stroke:none"
     d="m 16.356883,35.617644 c 1.896,2.495 2.577,2.818 3.38,3.276 5.025,2.854 3.525,5.266 0.953,6.572 -3.027,1.532 -4.079,2.141 -7.396,-3.208 -0.923,-1.489 -5.2080001,-6.734 -5.2080001,-6.734 -1.787,-1.672 -2.636,-4.255 -2.177,-5.635 0.489,-1.453 0.401,-0.844 1.098,-2.104 0.667,-1.209 2.552,-2.319 3.7190001,-1.912 1.12,0.38 1.459,2.016 2.26,4.307 0.62,1.802 3.371,5.438 3.371,5.438"
     id="path438" />
  <path
     style="fill:none;stroke:#231f20;stroke-width:0.565977;stroke-linecap:butt;stroke-linejoin:miter;stroke-miterlimit:4;stroke-dasharray:none;stroke-opacity:1"
     d="m 16.356883,35.617644 c 1.896,2.495 2.577,2.818 3.38,3.276 5.025,2.854 3.525,5.266 0.953,6.572 -3.027,1.532 -4.079,2.141 -7.396,-3.208 -0.923,-1.489 -5.2080001,-6.734 -5.2080001,-6.734 -1.787,-1.672 -2.636,-4.255 -2.177,-5.635 0.489,-1.453 0.401,-0.844 1.098,-2.104 0.667,-1.209 2.552,-2.319 3.7190001,-1.912 1.12,0.38 1.459,2.016 2.26,4.307 0.62,1.802 3.371,5.438 3.371,5.438 z"
     id="path439" />
  <path
     style="fill:#231f20;fill-opacity:1;fill-rule:nonzero;stroke:none"
     d="m 28.949883,36.205644 c -0.349,-0.541 -2.213,-1.098 -3.464,-2.104 -0.843,-0.688 -3.5,-1.396 -4.285,-2.141 -0.724,-0.676 -1.12,-0.921 -2.043,-0.228 -0.547,0.411 -1.328,1.556 -1.041,1.979 0.672,0.978 1.469,1.489 2.473,1.869 1.136,0.423 4.324,1.313 4.933,1.417 1.5,0.266 1.984,0.818 2.375,0.927 0.74,0.203 0.995,-0.025 1.229,-0.468 0.443,-0.849 -0.177,-1.251 -0.177,-1.251"
     id="path440" />
  <path
     style="fill:none;stroke:#231f20;stroke-width:0.565977;stroke-linecap:butt;stroke-linejoin:miter;stroke-miterlimit:4;stroke-dasharray:none;stroke-opacity:1"
     d="m 28.949883,36.205644 c -0.349,-0.541 -2.213,-1.098 -3.464,-2.104 -0.843,-0.688 -3.5,-1.396 -4.285,-2.141 -0.724,-0.676 -1.12,-0.921 -2.043,-0.228 -0.547,0.411 -1.328,1.556 -1.041,1.979 0.672,0.978 1.469,1.489 2.473,1.869 1.136,0.423 4.324,1.313 4.933,1.417 1.5,0.266 1.984,0.818 2.375,0.927 0.74,0.203 0.995,-0.025 1.229,-0.468 0.443,-0.849 -0.177,-1.251 -0.177,-1.251 z"
     id="path441" />
  <path
     style="fill:#231f20;fill-opacity:1;fill-rule:nonzero;stroke:none"
     d="m 20.709883,32.429644 c 0.407,-1.224 -1.609,-1.505 -2.129,-1.661 -0.522,-0.151 -1.948,-0.756 -3.006,-1.375 -1.062,-0.62 -2.646,-0.937 -4.656,-2.105 -1.0520001,-0.613 -2.4740001,-0.547 -3.3020001,1.027 -0.812,1.557 -0.251,2.598 1.14,3.15 1.3960001,0.547 2.9330001,0.486 4.3810001,0.938 1.437,0.458 2.864,1.057 3.957,1.584 1.251,0.593 2.084,0.421 2.443,0.109 0.896,-0.797 1.172,-1.667 1.172,-1.667"
     id="path442" />
  <path
     style="fill:none;stroke:#231f20;stroke-width:0.565977;stroke-linecap:butt;stroke-linejoin:miter;stroke-miterlimit:4;stroke-dasharray:none;stroke-opacity:1"
     d="m 20.709883,32.429644 c 0.407,-1.224 -1.609,-1.505 -2.129,-1.661 -0.522,-0.151 -1.948,-0.756 -3.006,-1.375 -1.062,-0.62 -2.646,-0.937 -4.656,-2.105 -1.0520001,-0.613 -2.4740001,-0.547 -3.3020001,1.027 -0.812,1.557 -0.251,2.598 1.14,3.15 1.3960001,0.547 2.9330001,0.486 4.3810001,0.938 1.437,0.458 2.864,1.057 3.957,1.584 1.251,0.593 2.084,0.421 2.443,0.109 0.896,-0.797 1.172,-1.667 1.172,-1.667 z"
     id="path443" />
  <path
     style="fill:#231f20;fill-opacity:1;fill-rule:nonzero;stroke:none"
     d="m 35.309883,39.012644 c -0.521,-0.504 -3.485,-1.843 -4.177,-2.119 -0.615,-0.245 -1.506,-0.99 -2.35,-0.209 -0.344,0.324 -0.625,1.027 -0.656,1.339 -0.037,0.256 0.219,0.469 0.599,0.584 0.64,0.186 0.891,-0.006 2.141,0.281 0,0 0.302,0.031 0.854,0.041 1.63,0.031 0.917,-0.136 3.265,0.443 0.167,0.047 0.328,-0.093 0.349,-0.208 0.022,-0.177 -0.025,-0.152 -0.025,-0.152"
     id="path444" />
  <path
     style="fill:none;stroke:#231f20;stroke-width:0.565977;stroke-linecap:round;stroke-linejoin:round;stroke-miterlimit:4;stroke-dasharray:none;stroke-opacity:1"
     d="m 35.309883,39.012644 c -0.521,-0.504 -3.485,-1.843 -4.177,-2.119 -0.615,-0.245 -1.506,-0.99 -2.35,-0.209 -0.344,0.324 -0.625,1.027 -0.656,1.339 -0.037,0.256 0.219,0.469 0.599,0.584 0.64,0.186 0.891,-0.006 2.141,0.281 0,0 0.302,0.031 0.854,0.041 1.63,0.031 0.917,-0.136 3.265,0.443 0.167,0.047 0.328,-0.093 0.349,-0.208 0.022,-0.177 -0.025,-0.152 -0.025,-0.152 z"
     id="path445" />
  <path
     style="fill:#231f20;fill-opacity:1;fill-rule:nonzero;stroke:none"
     d="m 183.62688,77.621644 c 0.432,-0.479 0.5,-2.421 1.161,-3.889 0.448,-0.986 0.464,-3.735 0.979,-4.683 0.48,-0.875 0.614,-1.317 -0.291,-2.037 -0.532,-0.427 -1.839,-0.89 -2.172,-0.504 -0.781,0.894 -1.073,1.796 -1.188,2.864 -0.125,1.208 -0.172,4.51 -0.125,5.13 0.12,1.52 -0.292,2.13 -0.296,2.531 -0.011,0.765 0.276,0.953 0.765,1.068 0.932,0.219 1.167,-0.48 1.167,-0.48"
     id="path446" />
  <path
     style="fill:none;stroke:#231f20;stroke-width:0.565977;stroke-linecap:butt;stroke-linejoin:miter;stroke-miterlimit:4;stroke-dasharray:none;stroke-opacity:1"
     d="m 183.62688,77.621644 c 0.432,-0.479 0.5,-2.421 1.161,-3.889 0.448,-0.986 0.464,-3.735 0.979,-4.683 0.48,-0.875 0.614,-1.317 -0.291,-2.037 -0.532,-0.427 -1.839,-0.89 -2.172,-0.504 -0.781,0.894 -1.073,1.796 -1.188,2.864 -0.125,1.208 -0.172,4.51 -0.125,5.13 0.12,1.52 -0.292,2.13 -0.296,2.531 -0.011,0.765 0.276,0.953 0.765,1.068 0.932,0.219 1.167,-0.48 1.167,-0.48 z"
     id="path447" />
  <path
     style="fill:#231f20;fill-opacity:1;fill-rule:nonzero;stroke:none"
     d="m 185.19488,68.694644 c 1.285,0.084 1.052,-1.937 1.072,-2.484 0.01,-0.541 0.24,-2.078 0.568,-3.256 0.333,-1.181 0.24,-2.796 0.864,-5.036 0.329,-1.177 -0.099,-2.53 -1.832,-2.932 -1.71,-0.396 -2.574,0.412 -2.762,1.896 -0.172,1.49 0.276,2.959 0.204,4.474 -0.078,1.505 -0.302,3.037 -0.532,4.229 -0.265,1.36 0.115,2.125 0.511,2.391 0.995,0.666 1.907,0.718 1.907,0.718"
     id="path448" />
  <path
     style="fill:none;stroke:#231f20;stroke-width:0.565977;stroke-linecap:butt;stroke-linejoin:miter;stroke-miterlimit:4;stroke-dasharray:none;stroke-opacity:1"
     d="m 185.19488,68.694644 c 1.285,0.084 1.052,-1.937 1.072,-2.484 0.01,-0.541 0.24,-2.078 0.568,-3.256 0.333,-1.181 0.24,-2.796 0.864,-5.036 0.329,-1.177 -0.099,-2.53 -1.832,-2.932 -1.71,-0.396 -2.574,0.412 -2.762,1.896 -0.172,1.49 0.276,2.959 0.204,4.474 -0.078,1.505 -0.302,3.037 -0.532,4.229 -0.265,1.36 0.115,2.125 0.511,2.391 0.995,0.666 1.907,0.718 1.907,0.718 z"
     id="path449" />
  <path
     style="fill:#231f20;fill-opacity:1;fill-rule:nonzero;stroke:none"
     d="m 177.38688,80.022644 c 0.718,0.068 3.869,-0.744 4.578,-0.962 0.635,-0.194 1.796,-0.167 1.968,-1.303 0.068,-0.469 -0.156,-1.188 -0.328,-1.459 -0.134,-0.218 -0.462,-0.229 -0.833,-0.077 -0.615,0.255 -0.692,0.563 -1.844,1.115 0,0 -0.255,0.172 -0.692,0.505 -1.292,0.995 -0.631,0.676 -2.823,1.697 -0.166,0.068 -0.198,0.282 -0.141,0.38 0.084,0.151 0.115,0.104 0.115,0.104"
     id="path450" />
  <path
     style="fill:none;stroke:#231f20;stroke-width:0.565977;stroke-linecap:round;stroke-linejoin:round;stroke-miterlimit:4;stroke-dasharray:none;stroke-opacity:1"
     d="m 177.38688,80.022644 c 0.718,0.068 3.869,-0.744 4.578,-0.962 0.635,-0.194 1.796,-0.167 1.968,-1.303 0.068,-0.469 -0.156,-1.188 -0.328,-1.459 -0.134,-0.218 -0.462,-0.229 -0.833,-0.077 -0.615,0.255 -0.692,0.563 -1.844,1.115 0,0 -0.255,0.172 -0.692,0.505 -1.292,0.995 -0.631,0.676 -2.823,1.697 -0.166,0.068 -0.198,0.282 -0.141,0.38 0.084,0.151 0.115,0.104 0.115,0.104 z"
     id="path452" />
  <path
     style="fill:#231f20;fill-opacity:1;fill-rule:nonzero;stroke:none"
     d="m 10.304883,59.408644 c 2.26,-0.156 2.718,0.12 2.853,1.073 0.084,0.631 0.38,1.188 0.448,1.568 0.24,1.276 0.115,3.516 -1.911,9.781 -0.458,1.422 -1.094,3.422 -1.281,4.255 -0.308,1.328 -2.2970001,-0.077 -2.1830001,-0.593 0.364,-1.678 0.484,-2.86 0.531,-3.48 0.032,-0.427 0.199,-1.176 0.115,-2.834 -0.124,-2.525 -0.578,-4.02 -0.438,-6.129 0.068,-0.98 -0.505,-1.756 0.047,-2.688 0.552,-0.932 1.8190001,-0.953 1.8190001,-0.953"
     id="path454" />
  <path
     style="fill:none;stroke:#231f20;stroke-width:0.565977;stroke-linecap:butt;stroke-linejoin:miter;stroke-miterlimit:4;stroke-dasharray:none;stroke-opacity:1"
     d="m 10.304883,59.408644 c 2.26,-0.156 2.718,0.12 2.853,1.073 0.084,0.631 0.38,1.188 0.448,1.568 0.24,1.276 0.115,3.516 -1.911,9.781 -0.458,1.422 -1.094,3.422 -1.281,4.255 -0.308,1.328 -2.2970001,-0.077 -2.1830001,-0.593 0.364,-1.678 0.484,-2.86 0.531,-3.48 0.032,-0.427 0.199,-1.176 0.115,-2.834 -0.124,-2.525 -0.578,-4.02 -0.438,-6.129 0.068,-0.98 -0.505,-1.756 0.047,-2.688 0.552,-0.932 1.8190001,-0.953 1.8190001,-0.953 z"
     id="path455" />
  <path
     style="fill:#231f20;fill-opacity:1;fill-rule:nonzero;stroke:#231f20;stroke-width:0.565977;stroke-linecap:round;stroke-linejoin:miter;stroke-miterlimit:4;stroke-dasharray:none;stroke-opacity:1"
     d="m 8.6468829,61.273644 c -0.509,-1.245 0.724,-2.849 0.792,-3.172 1.0380001,-4.896 1.2400001,-5.229 2.2980001,-8.896 1.525,-5.317 3.385,-8.718 6.734,-8.734 2.276,-0.011 3.588,0.969 4.078,2.193 0.541,1.348 0.234,4.515 -2.348,5.817 l -0.891,1.459 c -0.48,1.062 -0.72,1.582 -0.917,2.125 -0.334,0.943 -0.755,1.932 -1.516,3.739 -1.343,3.198 -3.818,6.136 -3.818,6.136 -0.125,0.292 -0.338,0.468 -0.582,0.582"
     id="path456" />
  <path
     style="fill:#fab41d;fill-opacity:1;fill-rule:nonzero;stroke:none"
     d="m 22.548883,42.664644 c -0.49,-1.224 -1.802,-2.204 -4.078,-2.193 -1.474,0.005 -2.657,0.693 -3.652,1.885 -0.822,0.631 -1.301,1.037 -1.296,1.839 0.006,0.073 -0.005,0.15 -0.016,0.229 -0.265,0.527 -0.516,1.079 -0.754,1.693 l 7.448,2.364 c 2.582,-1.302 2.889,-4.469 2.348,-5.817"
     id="path457" />
  <path
     style="fill:none;stroke:#231f20;stroke-width:0.565977;stroke-linecap:round;stroke-linejoin:round;stroke-miterlimit:4;stroke-dasharray:none;stroke-opacity:1"
     d="m 22.548883,42.664644 c -0.49,-1.224 -1.802,-2.204 -4.078,-2.193 -1.474,0.005 -2.657,0.693 -3.652,1.885 -0.822,0.631 -1.301,1.037 -1.296,1.839 0.006,0.073 -0.005,0.15 -0.016,0.229 -0.265,0.527 -0.516,1.079 -0.754,1.693 l 7.448,2.364 c 2.582,-1.302 2.889,-4.469 2.348,-5.817 z"
     id="path458" />
  <path
     style="fill:#231f20;fill-opacity:1;fill-rule:nonzero;stroke:none"
     d="m 10.558883,79.090644 c 1.068,-0.202 0.646,-1.385 0.251,-2.541 -0.1,-0.297 -0.167,-0.579 -0.292,-0.86 -0.489,-1.12 -1.3850001,-1.661 -3.0210001,0.849 -0.063,0.094 -1.73,1.511 -2.26,1.828 -2.563,1.527 -2.896,0.756 -2.563,1.527 0.219,0.515 0.724,0.457 1.344,0.369 0.849,-0.12 3.796,-0.792 4.255,-0.86 0.442,-0.072 2.2860001,-0.312 2.2860001,-0.312"
     id="path459" />
  <path
     style="fill:none;stroke:#231f20;stroke-width:0.565977;stroke-linecap:butt;stroke-linejoin:miter;stroke-miterlimit:4;stroke-dasharray:none;stroke-opacity:1"
     d="m 10.558883,79.090644 c 1.068,-0.202 0.646,-1.385 0.251,-2.541 -0.1,-0.297 -0.167,-0.579 -0.292,-0.86 -0.489,-1.12 -1.3850001,-1.661 -3.0210001,0.849 -0.063,0.094 -1.73,1.511 -2.26,1.828 -2.563,1.527 -2.896,0.756 -2.563,1.527 0.219,0.515 0.724,0.457 1.344,0.369 0.849,-0.12 3.796,-0.792 4.255,-0.86 0.442,-0.072 2.2860001,-0.312 2.2860001,-0.312 z"
     id="path461" />
  <path
     style="fill:#231f20;fill-opacity:1;fill-rule:nonzero;stroke:none"
     d="m 216.79288,76.284644 c 1.078,-0.11 0.766,-1.324 0.474,-2.516 -0.072,-0.303 -0.115,-0.59 -0.208,-0.875 -0.391,-1.161 -1.235,-1.781 -3.088,0.567 -0.068,0.089 -1.855,1.349 -2.418,1.62 -2.686,1.281 -2.953,0.485 -2.686,1.281 0.17,0.537 0.676,0.521 1.301,0.495 0.855,-0.047 3.855,-0.443 4.317,-0.474 0.448,-0.032 2.308,-0.098 2.308,-0.098"
     id="path463" />
  <path
     style="fill:none;stroke:#231f20;stroke-width:0.565977;stroke-linecap:butt;stroke-linejoin:miter;stroke-miterlimit:4;stroke-dasharray:none;stroke-opacity:1"
     d="m 216.79288,76.284644 c 1.078,-0.11 0.766,-1.324 0.474,-2.516 -0.072,-0.303 -0.115,-0.59 -0.208,-0.875 -0.391,-1.161 -1.235,-1.781 -3.088,0.567 -0.068,0.089 -1.855,1.349 -2.418,1.62 -2.686,1.281 -2.953,0.485 -2.686,1.281 0.17,0.537 0.676,0.521 1.301,0.495 0.855,-0.047 3.855,-0.443 4.317,-0.474 0.448,-0.032 2.308,-0.098 2.308,-0.098 z"
     id="path464" />
  <path
     style="fill:#231f20;fill-opacity:1;fill-rule:nonzero;stroke:none"
     d="m 206.36488,79.554644 c 1.079,-0.109 0.762,-1.322 0.475,-2.516 -0.073,-0.297 -0.115,-0.588 -0.213,-0.874 -0.386,-1.162 -1.23,-1.782 -3.084,0.568 -0.072,0.088 -1.859,1.348 -2.416,1.618 -2.694,1.287 -2.954,0.486 -2.694,1.287 0.172,0.532 0.683,0.516 1.308,0.489 0.854,-0.041 3.848,-0.442 4.312,-0.473 0.448,-0.032 2.312,-0.099 2.312,-0.099"
     id="path465" />
  <path
     style="fill:none;stroke:#231f20;stroke-width:0.565977;stroke-linecap:butt;stroke-linejoin:miter;stroke-miterlimit:4;stroke-dasharray:none;stroke-opacity:1"
     d="m 206.36488,79.554644 c 1.079,-0.109 0.762,-1.322 0.475,-2.516 -0.073,-0.297 -0.115,-0.588 -0.213,-0.874 -0.386,-1.162 -1.23,-1.782 -3.084,0.568 -0.072,0.088 -1.859,1.348 -2.416,1.618 -2.694,1.287 -2.954,0.486 -2.694,1.287 0.172,0.532 0.683,0.516 1.308,0.489 0.854,-0.041 3.848,-0.442 4.312,-0.473 0.448,-0.032 2.312,-0.099 2.312,-0.099 z"
     id="path467" />
  <path
     style="fill:#fab41d;fill-opacity:1;fill-rule:nonzero;stroke:none"
     d="m 62.803881,67.522644 c -2.421998,-1.994 -3.900998,-3.796 -4.561998,-4.437 -2.276,-2.235 -2.943,-4.776 -0.73,-6.635 2.594,-2.182 5.234998,-1.218 8.077998,1.818 1.204,1.286 4.542,3.464 4.542,3.464 1.094,0.889 3.891,4.233 3.776,4.057 -0.822,-1.292 2.192,2.739 0.963,4.755 -1.385,2.281 -2.009,2.916 -3.181,2.702 -1.167,-0.202 -2.162,-1.03 -4.251,-2.27 -1.995,-1.187 -4.635,-3.454 -4.635,-3.454"
     id="path469" />
  <path
     style="fill:none;stroke:#231f20;stroke-width:0.565977;stroke-linecap:butt;stroke-linejoin:miter;stroke-miterlimit:4;stroke-dasharray:none;stroke-opacity:1"
     d="m 62.803881,67.522644 c -2.421998,-1.994 -3.900998,-3.796 -4.561998,-4.437 -2.276,-2.235 -2.943,-4.776 -0.73,-6.635 2.594,-2.182 5.234998,-1.218 8.077998,1.818 1.204,1.286 4.542,3.464 4.542,3.464 1.094,0.889 3.891,4.233 3.776,4.057 -0.822,-1.292 2.192,2.739 0.963,4.755 -1.385,2.281 -2.009,2.916 -3.181,2.702 -1.167,-0.202 -2.162,-1.03 -4.251,-2.27 -1.995,-1.187 -4.635,-3.454 -4.635,-3.454 z"
     id="path470" />
  <path
     style="fill:#ffffff;fill-opacity:1;fill-rule:nonzero;stroke:none"
     d="m 79.522881,70.825644 c 0.244,0.005 0.552,-1.109 1.067,-1.011 0.516,0.099 0.557,0.891 2.166,2.058 l 0.022,0.016 c 1.198,0.817 1.912,2.014 1.776,3.26 -0.23,2.068 -2.687,3.484 -5.49,3.188 -2.812,-0.319 -4.901,-2.24 -4.677,-4.303 0.213,-1.973 2.484,-3.364 5.136,-3.208"
     id="path471" />
  <path
     style="fill:none;stroke:#231f20;stroke-width:0.565977;stroke-linecap:butt;stroke-linejoin:miter;stroke-miterlimit:4;stroke-dasharray:none;stroke-opacity:1"
     d="m 79.522881,70.825644 c 0.244,0.005 0.552,-1.109 1.067,-1.011 0.516,0.099 0.557,0.891 2.166,2.058 l 0.022,0.016 c 1.198,0.817 1.912,2.014 1.776,3.26 -0.23,2.068 -2.687,3.484 -5.49,3.188 -2.812,-0.319 -4.901,-2.24 -4.677,-4.303 0.213,-1.973 2.484,-3.364 5.136,-3.208 z"
     id="path472" />
  <path
     style="fill:#231f20;fill-opacity:1;fill-rule:nonzero;stroke:none"
     d="m 78.490881,53.122644 c -1.359,1.802 -1.869,1.968 -2.672,1.438 -0.536,-0.35 -1.145,-0.491 -1.484,-0.688 -1.115,-0.651 -2.729,-2.23 -6.115,-7.875 -0.765,-1.27 -1.858,-3.062 -2.364,-3.761 -0.792,-1.104 1.572,-1.681 1.891,-1.239 1.025,1.37 1.833,2.23 2.265,2.678 0.298,0.301 0.755,0.916 2.063,1.952 1.989,1.557 3.405,2.209 4.901,3.698 0.703,0.687 1.662,0.771 1.99,1.797 0.348,1.031 -0.475,2 -0.475,2"
     id="path473" />
  <path
     style="fill:none;stroke:#231f20;stroke-width:0.565977;stroke-linecap:butt;stroke-linejoin:miter;stroke-miterlimit:4;stroke-dasharray:none;stroke-opacity:1"
     d="m 78.490881,53.122644 c -1.359,1.802 -1.869,1.968 -2.672,1.438 -0.536,-0.35 -1.145,-0.491 -1.484,-0.688 -1.115,-0.651 -2.729,-2.23 -6.115,-7.875 -0.765,-1.27 -1.858,-3.062 -2.364,-3.761 -0.792,-1.104 1.572,-1.681 1.891,-1.239 1.025,1.37 1.833,2.23 2.265,2.678 0.298,0.301 0.755,0.916 2.063,1.952 1.989,1.557 3.405,2.209 4.901,3.698 0.703,0.687 1.662,0.771 1.99,1.797 0.348,1.031 -0.475,2 -0.475,2 z"
     id="path474" />
  <path
     style="fill:#231f20;fill-opacity:1;fill-rule:nonzero;stroke:#231f20;stroke-width:0.565977;stroke-linecap:round;stroke-linejoin:round;stroke-miterlimit:4;stroke-dasharray:none;stroke-opacity:1"
     d="m 78.746881,53.189644 c -0.391,1.36 -2.516,1.693 -2.797,1.891 -4.12,2.854 -4.49,2.953 -7.771,4.906 -4.76,2.823 -8.447998,4.026 -10.900998,1.74 -1.656,-1.552 -1.943,-3.172 -1.464,-4.39 0.537,-1.355 2.933,-3.448 5.697998,-2.626 l 1.656,-0.453 c 1.074,-0.453 1.604,-0.656 2.12,-0.921 0.891,-0.459 1.875,-0.891 3.662,-1.678 3.182,-1.412 6.994,-1.86 6.994,-1.86 0.287,-0.114 0.568,-0.104 0.828,-0.02"
     id="path475" />
  <path
     style="fill:#fab41d;fill-opacity:1;fill-rule:nonzero;stroke:#231f20;stroke-width:0.565977;stroke-linecap:butt;stroke-linejoin:miter;stroke-miterlimit:4;stroke-dasharray:none;stroke-opacity:1"
     d="m 61.402881,54.784644 c -2.770998,-0.814 -5.155998,1.285 -5.687998,2.645 -0.479,1.224 -0.181,2.839 1.48,4.385 1.943,1.803 4.644998,1.418 8.030998,-0.218 z"
     id="path476" />
  <path
     style="fill:#231f20;fill-opacity:1;fill-rule:nonzero;stroke:none"
     d="m 86.407881,76.293644 c 0.198,-0.609 -0.562,-2.405 -0.578,-4.015 -0.011,-1.089 -1.156,-3.578 -1.083,-4.661 0.057,-1 0,-1.453 -1.115,-1.719 -0.666,-0.162 -2.052,-0.037 -2.188,0.452 -0.333,1.142 -0.218,2.079 0.12,3.095 0.402,1.151 1.746,4.172 2.047,4.708 0.751,1.333 0.636,2.052 0.792,2.427 0.317,0.698 0.661,0.74 1.151,0.646 0.942,-0.198 0.854,-0.933 0.854,-0.933"
     id="path477" />
  <path
     style="fill:none;stroke:#231f20;stroke-width:0.565977;stroke-linecap:butt;stroke-linejoin:miter;stroke-miterlimit:4;stroke-dasharray:none;stroke-opacity:1"
     d="m 86.407881,76.293644 c 0.198,-0.609 -0.562,-2.405 -0.578,-4.015 -0.011,-1.089 -1.156,-3.578 -1.083,-4.661 0.057,-1 0,-1.453 -1.115,-1.719 -0.666,-0.162 -2.052,-0.037 -2.188,0.452 -0.333,1.142 -0.218,2.079 0.12,3.095 0.402,1.151 1.746,4.172 2.047,4.708 0.751,1.333 0.636,2.052 0.792,2.427 0.317,0.698 0.661,0.74 1.151,0.646 0.942,-0.198 0.854,-0.933 0.854,-0.933 z"
     id="path478" />
  <path
     style="fill:#231f20;fill-opacity:1;fill-rule:nonzero;stroke:none"
     d="m 84.058881,66.544644 c -0.323,-1.256 -2.172,-0.396 -2.688,-0.246 -0.52,0.162 -2.057,0.428 -3.276,0.475 -1.224,0.057 -2.729,0.651 -5.052,0.76 -1.219,0.057 -2.38,0.885 -2.213,2.651 0.156,1.75 1.198,2.324 2.666,2.032 1.464,-0.292 2.719,-1.194 4.183,-1.59 1.453,-0.4 2.979,-0.666 4.188,-0.817 1.369,-0.183 1.984,-0.771 2.104,-1.235 0.328,-1.15 0.088,-2.03 0.088,-2.03"
     id="path479" />
  <path
     style="fill:none;stroke:#231f20;stroke-width:0.565977;stroke-linecap:butt;stroke-linejoin:miter;stroke-miterlimit:4;stroke-dasharray:none;stroke-opacity:1"
     d="m 84.058881,66.544644 c -0.323,-1.256 -2.172,-0.396 -2.688,-0.246 -0.52,0.162 -2.057,0.428 -3.276,0.475 -1.224,0.057 -2.729,0.651 -5.052,0.76 -1.219,0.057 -2.38,0.885 -2.213,2.651 0.156,1.75 1.198,2.324 2.666,2.032 1.464,-0.292 2.719,-1.194 4.183,-1.59 1.453,-0.4 2.979,-0.666 4.188,-0.817 1.369,-0.183 1.984,-0.771 2.104,-1.235 0.328,-1.15 0.088,-2.03 0.088,-2.03 z"
     id="path480" />
  <path
     style="fill:#231f20;fill-opacity:1;fill-rule:nonzero;stroke:none"
     d="m 79.402881,79.732644 c 0.713,0.161 3.932,-0.287 4.672,-0.428 0.645,-0.12 1.792,0.046 2.088,-1.078 0.131,-0.437 -0.011,-1.188 -0.145,-1.469 -0.115,-0.24 -0.438,-0.276 -0.818,-0.167 -0.641,0.172 -0.766,0.475 -1.964,0.886 0,0 -0.276,0.141 -0.745,0.432 -1.396,0.833 -0.703,0.589 -3,1.354 -0.167,0.052 -0.229,0.255 -0.187,0.359 0.072,0.168 0.099,0.111 0.099,0.111"
     id="path481" />
  <path
     style="fill:none;stroke:#231f20;stroke-width:0.565977;stroke-linecap:round;stroke-linejoin:round;stroke-miterlimit:4;stroke-dasharray:none;stroke-opacity:1"
     d="m 79.402881,79.732644 c 0.713,0.161 3.932,-0.287 4.672,-0.428 0.645,-0.12 1.792,0.046 2.088,-1.078 0.131,-0.437 -0.011,-1.188 -0.145,-1.469 -0.115,-0.24 -0.438,-0.276 -0.818,-0.167 -0.641,0.172 -0.766,0.475 -1.964,0.886 0,0 -0.276,0.141 -0.745,0.432 -1.396,0.833 -0.703,0.589 -3,1.354 -0.167,0.052 -0.229,0.255 -0.187,0.359 0.072,0.168 0.099,0.111 0.099,0.111 z"
     id="path483" />
  <path
     style="fill:#231f20;fill-opacity:1;fill-rule:nonzero;stroke:none"
     d="m 63.746881,40.815644 c -0.157,1.344 0.724,1.802 1.739,1.573 0.297,-0.073 0.63,0.181 0.928,0.093 0.661,-0.213 1.41,-1.792 0.249,-2.745 -0.073,-0.072 -0.52,-0.76 -0.932,-1.224 -0.812,-0.9 -2.864,-2.323 -5.515998,-1.812 -1.255,0.245 -0.875,0.943 -0.344,1 1.698998,0.172 1.823998,0.527 2.250998,0.74 1.464,0.697 1.625,2.375 1.625,2.375"
     id="path485" />
  <path
     style="fill:none;stroke:#231f20;stroke-width:0.332927;stroke-linecap:butt;stroke-linejoin:miter;stroke-miterlimit:4;stroke-dasharray:none;stroke-opacity:1"
     d="m 63.746881,40.815644 c -0.157,1.344 0.724,1.802 1.739,1.573 0.297,-0.073 0.63,0.181 0.928,0.093 0.661,-0.213 1.41,-1.792 0.249,-2.745 -0.073,-0.072 -0.52,-0.76 -0.932,-1.224 -0.812,-0.9 -2.864,-2.323 -5.515998,-1.812 -1.255,0.245 -0.875,0.943 -0.344,1 1.698998,0.172 1.823998,0.527 2.250998,0.74 1.464,0.697 1.625,2.375 1.625,2.375 z"
     id="path486" />
  <path
     style="fill:#ffffff;fill-opacity:1;fill-rule:nonzero;stroke:none"
     d="m 254.44888,16.320644 c -0.036,-0.24 -1.177,-0.38 -1.156,-0.901 0.031,-0.526 0.796,-0.687 1.735,-2.448 l 0.009,-0.016 c 0.636,-1.312 1.719,-2.182 2.975,-2.223 2.073,-0.068 3.833,2.161 3.927,4.984 0.093,2.828 -1.511,5.167 -3.583,5.239 -1.991,0.068 -3.688,-1.979 -3.907,-4.635"
     id="path487" />
  <path
     style="fill:none;stroke:#231f20;stroke-width:0.565977;stroke-linecap:butt;stroke-linejoin:miter;stroke-miterlimit:4;stroke-dasharray:none;stroke-opacity:1"
     d="m 254.44888,16.320644 c -0.036,-0.24 -1.177,-0.38 -1.156,-0.901 0.031,-0.526 0.796,-0.687 1.735,-2.448 l 0.009,-0.016 c 0.636,-1.312 1.719,-2.182 2.975,-2.223 2.073,-0.068 3.833,2.161 3.927,4.984 0.093,2.828 -1.511,5.167 -3.583,5.239 -1.991,0.068 -3.688,-1.979 -3.907,-4.635 z"
     id="path488" />
  <path
     style="fill:#fab41d;fill-opacity:1;fill-rule:nonzero;stroke:none"
     d="m 258.94388,34.351644 c -0.083,3.136 0.245,3.818 0.579,4.672 2.129,5.376 -0.552,6.318 -3.371,5.718 -3.317,-0.702 -4.52,-0.88 -3.755,-7.134 0.208,-1.735 0.162,-8.511 0.162,-8.511 -0.35,-2.421 0.609,-4.969 1.833,-5.755 1.292,-0.824 0.839,-0.401 2.177,-0.953 1.276,-0.521 3.438,-0.209 4.099,0.839 0.631,1.005 -0.131,2.494 -0.943,4.776 -0.64,1.801 -0.781,6.348 -0.781,6.348"
     id="path489" />
  <path
     style="fill:none;stroke:#231f20;stroke-width:0.565977;stroke-linecap:butt;stroke-linejoin:miter;stroke-miterlimit:4;stroke-dasharray:none;stroke-opacity:1"
     d="m 258.94388,34.351644 c -0.083,3.136 0.245,3.818 0.579,4.672 2.129,5.376 -0.552,6.318 -3.371,5.718 -3.317,-0.702 -4.52,-0.88 -3.755,-7.134 0.208,-1.735 0.162,-8.511 0.162,-8.511 -0.35,-2.421 0.609,-4.969 1.833,-5.755 1.292,-0.824 0.839,-0.401 2.177,-0.953 1.276,-0.521 3.438,-0.209 4.099,0.839 0.631,1.005 -0.131,2.494 -0.943,4.776 -0.64,1.801 -0.781,6.348 -0.781,6.348 z"
     id="path490" />
  <path
     style="fill:#231f20;fill-opacity:1;fill-rule:nonzero;stroke:none"
     d="m 267.18888,6.3416441 c -0.578,0.286 -1.322,2.083 -2.464,3.224 -0.77,0.7599999 -1.754,3.3229999 -2.578,4.0259999 -0.755,0.645 -1.036,1.021 -0.448,2.01 0.349,0.583 1.406,1.49 1.854,1.244 1.047,-0.561 1.642,-1.306 2.126,-2.26 0.541,-1.088 1.76,-4.161 1.932,-4.7489999 0.426,-1.464 1.032,-1.891 1.177,-2.271 0.281,-0.704 0.083,-0.985 -0.339,-1.266 -0.797,-0.536 -1.26,0.042 -1.26,0.042"
     id="path491" />
  <path
     style="fill:none;stroke:#231f20;stroke-width:0.565977;stroke-linecap:butt;stroke-linejoin:miter;stroke-miterlimit:4;stroke-dasharray:none;stroke-opacity:1"
     d="m 267.18888,6.3416441 c -0.578,0.286 -1.322,2.083 -2.464,3.224 -0.77,0.7599999 -1.754,3.3229999 -2.578,4.0259999 -0.755,0.645 -1.036,1.021 -0.448,2.01 0.349,0.583 1.406,1.49 1.854,1.244 1.047,-0.561 1.642,-1.306 2.126,-2.26 0.541,-1.088 1.76,-4.161 1.932,-4.7489999 0.426,-1.464 1.032,-1.891 1.177,-2.271 0.281,-0.704 0.083,-0.985 -0.339,-1.266 -0.797,-0.536 -1.26,0.042 -1.26,0.042 z"
     id="path492" />
  <path
     style="fill:#231f20;fill-opacity:1;fill-rule:nonzero;stroke:none"
     d="m 262.55888,14.127644 c -1.178,-0.536 -1.667,1.442 -1.88,1.942 -0.203,0.5 -0.964,1.855 -1.688,2.844 -0.73,0.986 -1.214,2.527 -2.594,4.396 -0.724,0.99 -0.802,2.407 0.672,3.396 1.459,0.979 2.558,0.527 3.255,-0.797 0.699,-1.323 0.792,-2.864 1.401,-4.249 0.604,-1.386 1.355,-2.735 1.99,-3.766 0.729,-1.182 0.65,-2.032 0.374,-2.422 -0.692,-0.974 -1.53,-1.344 -1.53,-1.344"
     id="path493" />
  <path
     style="fill:none;stroke:#231f20;stroke-width:0.565977;stroke-linecap:butt;stroke-linejoin:miter;stroke-miterlimit:4;stroke-dasharray:none;stroke-opacity:1"
     d="m 262.55888,14.127644 c -1.178,-0.536 -1.667,1.442 -1.88,1.942 -0.203,0.5 -0.964,1.855 -1.688,2.844 -0.73,0.986 -1.214,2.527 -2.594,4.396 -0.724,0.99 -0.802,2.407 0.672,3.396 1.459,0.979 2.558,0.527 3.255,-0.797 0.699,-1.323 0.792,-2.864 1.401,-4.249 0.604,-1.386 1.355,-2.735 1.99,-3.766 0.729,-1.182 0.65,-2.032 0.374,-2.422 -0.692,-0.974 -1.53,-1.344 -1.53,-1.344 z"
     id="path494" />
  <path
     style="fill:#231f20;fill-opacity:1;fill-rule:nonzero;stroke:none"
     d="m 270.66288,0.32064409 c -0.558,0.464 -2.203,3.26500001 -2.552,3.92700001 -0.312,0.584 -1.146,1.385 -0.459,2.318 0.281,0.37 0.948,0.719 1.261,0.791 0.25,0.057 0.49,-0.167 0.64,-0.536 0.256,-0.615 0.094,-0.891 0.516,-2.093 0,0 0.058,-0.303 0.131,-0.85 0.203,-1.62 -0.037,-0.922 0.791,-3.19800001 0.057,-0.167 -0.063,-0.338 -0.178,-0.37 -0.17,-0.046 -0.15,0.011 -0.15,0.011"
     id="path495" />
  <path
     style="fill:none;stroke:#231f20;stroke-width:0.565977;stroke-linecap:round;stroke-linejoin:round;stroke-miterlimit:4;stroke-dasharray:none;stroke-opacity:1"
     d="m 270.66288,0.32064409 c -0.558,0.464 -2.203,3.26500001 -2.552,3.92700001 -0.312,0.584 -1.146,1.385 -0.459,2.318 0.281,0.37 0.948,0.719 1.261,0.791 0.25,0.057 0.49,-0.167 0.64,-0.536 0.256,-0.615 0.094,-0.891 0.516,-2.093 0,0 0.058,-0.303 0.131,-0.85 0.203,-1.62 -0.037,-0.922 0.791,-3.19800001 0.057,-0.167 -0.063,-0.338 -0.178,-0.37 -0.17,-0.046 -0.15,0.011 -0.15,0.011 z"
     id="path496" />
  <path
     style="fill:#231f20;fill-opacity:1;fill-rule:nonzero;stroke:none"
     d="m 256.51188,60.054644 c 2.229,-0.396 2.713,-0.166 2.948,0.76 0.151,0.615 0.505,1.14 0.62,1.511 0.369,1.244 0.479,3.489 -0.865,9.937 -0.302,1.459 -0.719,3.516 -0.823,4.364 -0.161,1.35 -2.287,0.167 -2.229,-0.358 0.182,-1.708 0.177,-2.896 0.156,-3.522 -0.01,-0.426 0.073,-1.181 -0.187,-2.828 -0.396,-2.494 -1,-3.932 -1.089,-6.041 -0.036,-0.984 -0.687,-1.699 -0.239,-2.683 0.452,-0.989 1.708,-1.14 1.708,-1.14"
     id="path497" />
  <path
     style="fill:none;stroke:#231f20;stroke-width:0.565977;stroke-linecap:butt;stroke-linejoin:miter;stroke-miterlimit:4;stroke-dasharray:none;stroke-opacity:1"
     d="m 256.51188,60.054644 c 2.229,-0.396 2.713,-0.166 2.948,0.76 0.151,0.615 0.505,1.14 0.62,1.511 0.369,1.244 0.479,3.489 -0.865,9.937 -0.302,1.459 -0.719,3.516 -0.823,4.364 -0.161,1.35 -2.287,0.167 -2.229,-0.358 0.182,-1.708 0.177,-2.896 0.156,-3.522 -0.01,-0.426 0.073,-1.181 -0.187,-2.828 -0.396,-2.494 -1,-3.932 -1.089,-6.041 -0.036,-0.984 -0.687,-1.699 -0.239,-2.683 0.452,-0.989 1.708,-1.14 1.708,-1.14 z"
     id="path498" />
  <path
     style="fill:#231f20;fill-opacity:1;fill-rule:nonzero;stroke:#231f20;stroke-width:0.565977;stroke-linecap:round;stroke-linejoin:miter;stroke-miterlimit:4;stroke-dasharray:none;stroke-opacity:1"
     d="m 255.05888,62.085644 c -1.027,-0.875 -0.662,-2.864 -0.75,-3.183 -1.318,-4.833 -1.292,-5.213 -2.037,-8.962 -1.077,-5.417 -0.984,-9.297 1.984,-10.844 2.021,-1.052 3.636,-0.787 4.631,0.079 1.104,0.952 2.276,3.905 0.584,6.238 l -0.131,1.714 c 0.068,1.157 0.088,1.734 0.167,2.302 0.13,0.995 0.208,2.068 0.364,4.021 0.272,3.458 -0.583,7.208 -0.583,7.208 0.021,0.312 -0.088,0.574 -0.251,0.782"
     id="path499" />
  <path
     style="fill:#fab41d;fill-opacity:1;fill-rule:nonzero;stroke:none"
     d="m 258.88688,39.175644 c -0.995,-0.86 -2.61,-1.131 -4.626,-0.079 -1.312,0.677 -2.046,1.828 -2.385,3.344 -0.443,0.937 -0.681,1.515 -0.307,2.235 0.031,0.061 0.063,0.134 0.088,0.208 0.011,0.588 0.038,1.197 0.11,1.849 l 7.704,-1.313 c 1.697,-2.339 0.52,-5.292 -0.584,-6.244"
     id="path500" />
  <path
     style="fill:none;stroke:#231f20;stroke-width:0.565977;stroke-linecap:round;stroke-linejoin:round;stroke-miterlimit:4;stroke-dasharray:none;stroke-opacity:1"
     d="m 258.88688,39.175644 c -0.995,-0.86 -2.61,-1.131 -4.626,-0.079 -1.312,0.677 -2.046,1.828 -2.385,3.344 -0.443,0.937 -0.681,1.515 -0.307,2.235 0.031,0.061 0.063,0.134 0.088,0.208 0.011,0.588 0.038,1.197 0.11,1.849 l 7.704,-1.313 c 1.697,-2.339 0.52,-5.292 -0.584,-6.244 z"
     id="path501" />
  <path
     style="fill:#231f20;fill-opacity:1;fill-rule:nonzero;stroke:none"
     d="m 258.11588,79.861644 c 1.084,-0.063 0.817,-1.287 0.583,-2.489 -0.062,-0.303 -0.094,-0.594 -0.176,-0.88 -0.339,-1.183 -1.158,-1.834 -3.104,0.437 -0.074,0.079 -1.918,1.265 -2.486,1.516 -2.744,1.167 -2.968,0.359 -2.744,1.167 0.151,0.541 0.662,0.552 1.287,0.546 0.853,-0.005 3.869,-0.281 4.333,-0.292 0.447,-0.01 2.307,-0.005 2.307,-0.005"
     id="path502" />
  <path
     style="fill:none;stroke:#231f20;stroke-width:0.565977;stroke-linecap:butt;stroke-linejoin:miter;stroke-miterlimit:4;stroke-dasharray:none;stroke-opacity:1"
     d="m 258.11588,79.861644 c 1.084,-0.063 0.817,-1.287 0.583,-2.489 -0.062,-0.303 -0.094,-0.594 -0.176,-0.88 -0.339,-1.183 -1.158,-1.834 -3.104,0.437 -0.074,0.079 -1.918,1.265 -2.486,1.516 -2.744,1.167 -2.968,0.359 -2.744,1.167 0.151,0.541 0.662,0.552 1.287,0.546 0.853,-0.005 3.869,-0.281 4.333,-0.292 0.447,-0.01 2.307,-0.005 2.307,-0.005 z"
     id="path504" />
</svg>
