<?xml version="1.0" encoding="UTF-8" standalone="no"?>
<!-- Created with Inkscape (http://www.inkscape.org/) -->

<svg
   version="1.1"
   id="svg1"
   width="325.81497"
   height="95.697685"
   viewBox="0 0 325.81496 95.697683"
   sodipodi:docname="cell.svg"
   xmlns:inkscape="http://www.inkscape.org/namespaces/inkscape"
   xmlns:sodipodi="http://sodipodi.sourceforge.net/DTD/sodipodi-0.dtd"
   xmlns="http://www.w3.org/2000/svg"
   xmlns:svg="http://www.w3.org/2000/svg">
  <sodipodi:namedview
     id="namedview1"
     pagecolor="#ffffff"
     bordercolor="#000000"
     borderopacity="0.25"
     inkscape:showpageshadow="2"
     inkscape:pageopacity="0.0"
     inkscape:pagecheckerboard="0"
     inkscape:deskcolor="#d1d1d1">
    <inkscape:page
       x="9.3443006e-08"
       y="2.9750339e-07"
       inkscape:label="1"
       id="page1"
       width="325.81497"
       height="95.697685"
       margin="0"
       bleed="0" />
  </sodipodi:namedview>
  <defs
     id="defs1" />
  <path
     style="fill:#ffffff;fill-opacity:1;fill-rule:nonzero;stroke:none"
     d="m 1.819991,38.569339 c -0.161,-0.182 -1.19299996,0.339 -1.46399996,-0.114 -0.265,-0.448 0.287,-1.011 0.089,-2.995 v -0.016 c -0.204,-1.447999 0.219,-2.764999 1.23499996,-3.499999 1.681,-1.208 4.389,-0.333 6.041,1.964 1.64,2.296999 1.61,5.135999 -0.078,6.348999 -1.615,1.156 -4.162,0.396 -5.823,-1.688"
     id="path714" />
  <path
     style="fill:none;stroke:#231f20;stroke-width:0.565977;stroke-linecap:butt;stroke-linejoin:miter;stroke-miterlimit:4;stroke-dasharray:none;stroke-opacity:1"
     d="m 1.819991,38.569339 c -0.161,-0.182 -1.19299996,0.339 -1.46399996,-0.114 -0.265,-0.448 0.287,-1.011 0.089,-2.995 v -0.016 c -0.204,-1.447999 0.219,-2.764999 1.23499996,-3.499999 1.681,-1.208 4.389,-0.333 6.041,1.964 1.64,2.296999 1.61,5.135999 -0.078,6.348999 -1.615,1.156 -4.162,0.396 -5.823,-1.688 z"
     id="path715" />
  <path
     style="fill:#fab41d;fill-opacity:1;fill-rule:nonzero;stroke:none"
     d="m 16.355991,50.444339 c 1.896,2.495 2.579,2.819 3.38,3.271 5.027,2.86 3.527,5.272 0.953,6.573 -3.02,1.532 -4.077,2.147 -7.396,-3.208 -0.921,-1.484 -5.208,-6.729 -5.208,-6.729 -1.786,-1.672 -2.634,-4.255 -2.177,-5.636 0.491,-1.452 0.401,-0.843 1.105,-2.11 0.662,-1.202 2.547,-2.312 3.714,-1.91 1.12,0.385 1.457,2.02 2.26,4.312 0.62,1.802 3.369,5.437 3.369,5.437"
     id="path716" />
  <path
     style="fill:none;stroke:#231f20;stroke-width:0.565977;stroke-linecap:butt;stroke-linejoin:miter;stroke-miterlimit:4;stroke-dasharray:none;stroke-opacity:1"
     d="m 16.355991,50.444339 c 1.896,2.495 2.579,2.819 3.38,3.271 5.027,2.86 3.527,5.272 0.953,6.573 -3.02,1.532 -4.077,2.147 -7.396,-3.208 -0.921,-1.484 -5.208,-6.729 -5.208,-6.729 -1.786,-1.672 -2.634,-4.255 -2.177,-5.636 0.491,-1.452 0.401,-0.843 1.105,-2.11 0.662,-1.202 2.547,-2.312 3.714,-1.91 1.12,0.385 1.457,2.02 2.26,4.312 0.62,1.802 3.369,5.437 3.369,5.437 z"
     id="path717" />
  <path
     style="fill:#231f20;fill-opacity:1;fill-rule:nonzero;stroke:none"
     d="m 28.950991,51.028339 c -0.35,-0.541 -2.215,-1.093 -3.464,-2.104 -0.844,-0.683 -3.5,-1.391 -4.287,-2.136 -0.724,-0.677 -1.12,-0.921 -2.041,-0.229 -0.547,0.412 -1.328,1.557 -1.042,1.98 0.672,0.978 1.468,1.489 2.474,1.864 1.136,0.426 4.322,1.312 4.932,1.422 1.5,0.266 1.985,0.818 2.376,0.927 0.738,0.203 0.994,-0.027 1.228,-0.475 0.444,-0.842 -0.176,-1.249 -0.176,-1.249"
     id="path718" />
  <path
     style="fill:none;stroke:#231f20;stroke-width:0.565977;stroke-linecap:butt;stroke-linejoin:miter;stroke-miterlimit:4;stroke-dasharray:none;stroke-opacity:1"
     d="m 28.950991,51.028339 c -0.35,-0.541 -2.215,-1.093 -3.464,-2.104 -0.844,-0.683 -3.5,-1.391 -4.287,-2.136 -0.724,-0.677 -1.12,-0.921 -2.041,-0.229 -0.547,0.412 -1.328,1.557 -1.042,1.98 0.672,0.978 1.468,1.489 2.474,1.864 1.136,0.426 4.322,1.312 4.932,1.422 1.5,0.266 1.985,0.818 2.376,0.927 0.738,0.203 0.994,-0.027 1.228,-0.475 0.444,-0.842 -0.176,-1.249 -0.176,-1.249 z"
     id="path719" />
  <path
     style="fill:#231f20;fill-opacity:1;fill-rule:nonzero;stroke:none"
     d="m 20.710991,47.257339 c 0.406,-1.224 -1.61,-1.505 -2.131,-1.661 -0.52,-0.152 -1.948,-0.756 -3.005,-1.376 -1.062,-0.619 -2.646,-0.937 -4.656,-2.104 -1.052,-0.615 -2.474,-0.547 -3.302,1.027 -0.813,1.552 -0.25,2.598 1.14,3.15 1.396,0.547 2.932,0.479 4.38,0.932 1.438,0.459 2.866,1.063 3.959,1.59 1.251,0.593 2.084,0.421 2.443,0.104 0.896,-0.792 1.172,-1.662 1.172,-1.662"
     id="path720" />
  <path
     style="fill:none;stroke:#231f20;stroke-width:0.565977;stroke-linecap:butt;stroke-linejoin:miter;stroke-miterlimit:4;stroke-dasharray:none;stroke-opacity:1"
     d="m 20.710991,47.257339 c 0.406,-1.224 -1.61,-1.505 -2.131,-1.661 -0.52,-0.152 -1.948,-0.756 -3.005,-1.376 -1.062,-0.619 -2.646,-0.937 -4.656,-2.104 -1.052,-0.615 -2.474,-0.547 -3.302,1.027 -0.813,1.552 -0.25,2.598 1.14,3.15 1.396,0.547 2.932,0.479 4.38,0.932 1.438,0.459 2.866,1.063 3.959,1.59 1.251,0.593 2.084,0.421 2.443,0.104 0.896,-0.792 1.172,-1.662 1.172,-1.662 z"
     id="path721" />
  <path
     style="fill:#231f20;fill-opacity:1;fill-rule:nonzero;stroke:none"
     d="m 35.308991,53.840339 c -0.52,-0.505 -3.484,-1.844 -4.177,-2.12 -0.615,-0.244 -1.505,-0.989 -2.348,-0.208 -0.344,0.317 -0.625,1.021 -0.657,1.339 -0.036,0.254 0.22,0.469 0.6,0.584 0.64,0.186 0.89,-0.006 2.14,0.28 0,0 0.302,0.032 0.854,0.042 1.63,0.031 0.916,-0.136 3.266,0.443 0.166,0.047 0.328,-0.095 0.349,-0.213 0.02,-0.172 -0.027,-0.147 -0.027,-0.147"
     id="path722" />
  <path
     style="fill:none;stroke:#231f20;stroke-width:0.565977;stroke-linecap:round;stroke-linejoin:round;stroke-miterlimit:4;stroke-dasharray:none;stroke-opacity:1"
     d="m 35.308991,53.840339 c -0.52,-0.505 -3.484,-1.844 -4.177,-2.12 -0.615,-0.244 -1.505,-0.989 -2.348,-0.208 -0.344,0.317 -0.625,1.021 -0.657,1.339 -0.036,0.254 0.22,0.469 0.6,0.584 0.64,0.186 0.89,-0.006 2.14,0.28 0,0 0.302,0.032 0.854,0.042 1.63,0.031 0.916,-0.136 3.266,0.443 0.166,0.047 0.328,-0.095 0.349,-0.213 0.02,-0.172 -0.027,-0.147 -0.027,-0.147 z"
     id="path723" />
  <path
     style="fill:#231f20;fill-opacity:1;fill-rule:nonzero;stroke:none"
     d="m 10.303991,74.236339 c 2.261,-0.156 2.719,0.12 2.855,1.073 0.082,0.63 0.38,1.183 0.448,1.568 0.24,1.276 0.114,3.515 -1.912,9.78 -0.458,1.423 -1.094,3.418 -1.282,4.256 -0.306,1.323 -2.296,-0.078 -2.181,-0.598 0.364,-1.672 0.484,-2.855 0.531,-3.475 0.03,-0.427 0.197,-1.177 0.114,-2.833 -0.125,-2.526 -0.578,-4.02 -0.437,-6.13 0.068,-0.98 -0.505,-1.761 0.047,-2.688 0.552,-0.932 1.817,-0.953 1.817,-0.953"
     id="path724" />
  <path
     style="fill:none;stroke:#231f20;stroke-width:0.565977;stroke-linecap:butt;stroke-linejoin:miter;stroke-miterlimit:4;stroke-dasharray:none;stroke-opacity:1"
     d="m 10.303991,74.236339 c 2.261,-0.156 2.719,0.12 2.855,1.073 0.082,0.63 0.38,1.183 0.448,1.568 0.24,1.276 0.114,3.515 -1.912,9.78 -0.458,1.423 -1.094,3.418 -1.282,4.256 -0.306,1.323 -2.296,-0.078 -2.181,-0.598 0.364,-1.672 0.484,-2.855 0.531,-3.475 0.03,-0.427 0.197,-1.177 0.114,-2.833 -0.125,-2.526 -0.578,-4.02 -0.437,-6.13 0.068,-0.98 -0.505,-1.761 0.047,-2.688 0.552,-0.932 1.817,-0.953 1.817,-0.953 z"
     id="path725" />
  <path
     style="fill:#231f20;fill-opacity:1;fill-rule:nonzero;stroke:#231f20;stroke-width:0.565977;stroke-linecap:round;stroke-linejoin:miter;stroke-miterlimit:4;stroke-dasharray:none;stroke-opacity:1"
     d="m 8.647991,76.101339 c -0.511,-1.245 0.724,-2.849 0.792,-3.172 1.036,-4.901 1.24,-5.229 2.296,-8.896 1.527,-5.318 3.387,-8.718 6.735,-8.74 2.276,-0.005 3.589,0.975 4.078,2.194 0.542,1.353 0.235,4.52 -2.349,5.817 l -0.891,1.459 c -0.478,1.062 -0.718,1.582 -0.916,2.129 -0.333,0.943 -0.756,1.933 -1.516,3.735 -1.344,3.202 -3.817,6.141 -3.817,6.141 -0.125,0.285 -0.339,0.468 -0.584,0.583"
     id="path726" />
  <path
     style="fill:#fab41d;fill-opacity:1;fill-rule:nonzero;stroke:none"
     d="m 22.548991,57.487339 c -0.489,-1.219 -1.802,-2.199 -4.078,-2.188 -1.474,0.005 -2.656,0.688 -3.656,1.885 -0.818,0.631 -1.298,1.036 -1.292,1.839 0.005,0.073 -0.006,0.15 -0.015,0.229 -0.267,0.525 -0.516,1.077 -0.756,1.692 l 7.448,2.36 c 2.584,-1.297 2.891,-4.464 2.349,-5.817"
     id="path727" />
  <path
     style="fill:none;stroke:#231f20;stroke-width:0.565977;stroke-linecap:round;stroke-linejoin:round;stroke-miterlimit:4;stroke-dasharray:none;stroke-opacity:1"
     d="m 22.548991,57.487339 c -0.489,-1.219 -1.802,-2.199 -4.078,-2.188 -1.474,0.005 -2.656,0.688 -3.656,1.885 -0.818,0.631 -1.298,1.036 -1.292,1.839 0.005,0.073 -0.006,0.15 -0.015,0.229 -0.267,0.525 -0.516,1.077 -0.756,1.692 l 7.448,2.36 c 2.584,-1.297 2.891,-4.464 2.349,-5.817 z"
     id="path728" />
  <path
     style="fill:#231f20;fill-opacity:1;fill-rule:nonzero;stroke:none"
     d="m 10.559991,93.919339 c 1.067,-0.204 0.645,-1.386 0.249,-2.547 -0.098,-0.292 -0.166,-0.573 -0.292,-0.855 -0.489,-1.12 -1.385,-1.661 -3.02,0.85 -0.062,0.093 -1.729,1.51 -2.26,1.828 -2.562,1.525 -2.896,0.754 -2.562,1.525 0.218,0.516 0.724,0.453 1.342,0.371 0.85,-0.12 3.798,-0.792 4.256,-0.86 0.443,-0.078 2.287,-0.312 2.287,-0.312"
     id="path729" />
  <path
     style="fill:none;stroke:#231f20;stroke-width:0.565977;stroke-linecap:butt;stroke-linejoin:miter;stroke-miterlimit:4;stroke-dasharray:none;stroke-opacity:1"
     d="m 10.559991,93.919339 c 1.067,-0.204 0.645,-1.386 0.249,-2.547 -0.098,-0.292 -0.166,-0.573 -0.292,-0.855 -0.489,-1.12 -1.385,-1.661 -3.02,0.85 -0.062,0.093 -1.729,1.51 -2.26,1.828 -2.562,1.525 -2.896,0.754 -2.562,1.525 0.218,0.516 0.724,0.453 1.342,0.371 0.85,-0.12 3.798,-0.792 4.256,-0.86 0.443,-0.078 2.287,-0.312 2.287,-0.312 z"
     id="path731" />
  <path
     style="fill:#fab41d;fill-opacity:1;fill-rule:nonzero;stroke:none"
     d="m 91.111994,43.517339 c -1.505,2.755 -3.005003,4.547 -3.511003,5.308 -1.765,2.662 -4.145,3.786 -6.38,1.963 -2.625,-2.14 -2.177,-4.916 0.282,-8.281 1.036,-1.422 2.552,-5.104 2.552,-5.104 0.849,-3.130999 2.405,-4.281999 3.276,-4.467999 1.5,-0.319 3.072003,-2.09 4.489003,-1.834 2.631,0.484 3.249,1.427 3.26,2.619 0.005,1.188 -0.615,2.318999 -1.443,4.599999 -0.79,2.187 -2.525,5.197 -2.525,5.197"
     id="path733" />
  <path
     style="fill:none;stroke:#231f20;stroke-width:0.565977;stroke-linecap:butt;stroke-linejoin:miter;stroke-miterlimit:4;stroke-dasharray:none;stroke-opacity:1"
     d="m 91.111994,43.517339 c -1.505,2.755 -3.005003,4.547 -3.511003,5.308 -1.765,2.662 -4.145,3.786 -6.38,1.963 -2.625,-2.14 -2.177,-4.916 0.282,-8.281 1.036,-1.422 2.552,-5.104 2.552,-5.104 0.849,-3.130999 2.405,-4.281999 3.276,-4.467999 1.5,-0.319 3.072003,-2.09 4.489003,-1.834 2.631,0.484 3.249,1.427 3.26,2.619 0.005,1.188 -0.615,2.318999 -1.443,4.599999 -0.79,2.187 -2.525,5.197 -2.525,5.197 z"
     id="path734" />
  <path
     style="fill:#ffffff;fill-opacity:1;fill-rule:nonzero;stroke:none"
     d="m 90.636994,25.79934 c -0.01,-0.246 -1.145,-0.479 -1.077,-1 0.072,-0.522 0.859,-0.615 1.927,-2.292 l 0.016,-0.02 c 0.738,-1.246 1.896,-2.032 3.15,-1.964 2.074,0.104 3.636,2.473 3.5,5.292 -0.14,2.817 -1.937,5.02 -4.01,4.921 -1.99,-0.093 -3.511,-2.276 -3.506,-4.937"
     id="path735" />
  <path
     style="fill:none;stroke:#231f20;stroke-width:0.565977;stroke-linecap:butt;stroke-linejoin:miter;stroke-miterlimit:4;stroke-dasharray:none;stroke-opacity:1"
     d="m 90.636994,25.79934 c -0.01,-0.246 -1.145,-0.479 -1.077,-1 0.072,-0.522 0.859,-0.615 1.927,-2.292 l 0.016,-0.02 c 0.738,-1.246 1.896,-2.032 3.15,-1.964 2.074,0.104 3.636,2.473 3.5,5.292 -0.14,2.817 -1.937,5.02 -4.01,4.921 -1.99,-0.093 -3.511,-2.276 -3.506,-4.937 z"
     id="path736" />
  <path
     style="fill:#231f20;fill-opacity:1;fill-rule:nonzero;stroke:none"
     d="m 70.007991,37.304339 c 1.009,2.02 0.932,2.552 0.104,3.031 -0.557,0.328 -0.948,0.813 -1.276,1.021 -1.084,0.713 -3.213,1.459 -9.776,1.989 -1.48,0.12 -3.568,0.308 -4.417,0.454 -1.339,0.213 -0.807,-2.162 -0.271,-2.251 1.683,-0.312 2.808,-0.651 3.401,-0.843 0.407,-0.13 1.156,-0.266 2.667,-0.98 2.281,-1.088 3.489,-2.072 5.495,-2.749 0.926,-0.323 1.426,-1.147 2.494,-0.985 1.079,0.146 1.579,1.313 1.579,1.313"
     id="path737" />
  <path
     style="fill:none;stroke:#231f20;stroke-width:0.565977;stroke-linecap:butt;stroke-linejoin:miter;stroke-miterlimit:4;stroke-dasharray:none;stroke-opacity:1"
     d="m 70.007991,37.304339 c 1.009,2.02 0.932,2.552 0.104,3.031 -0.557,0.328 -0.948,0.813 -1.276,1.021 -1.084,0.713 -3.213,1.459 -9.776,1.989 -1.48,0.12 -3.568,0.308 -4.417,0.454 -1.339,0.213 -0.807,-2.162 -0.271,-2.251 1.683,-0.312 2.808,-0.651 3.401,-0.843 0.407,-0.13 1.156,-0.266 2.667,-0.98 2.281,-1.088 3.489,-2.072 5.495,-2.749 0.926,-0.323 1.426,-1.147 2.494,-0.985 1.079,0.146 1.579,1.313 1.579,1.313 z"
     id="path738" />
  <path
     style="fill:#231f20;fill-opacity:1;fill-rule:nonzero;stroke:#231f20;stroke-width:0.565977;stroke-linecap:round;stroke-linejoin:round;stroke-miterlimit:4;stroke-dasharray:none;stroke-opacity:1"
     d="m 67.767991,36.137339 c 1.339,-0.458 2.828,1.099 3.14,1.219 4.699,1.755 4.996,2.011 8.469,3.593 5.026,2.303 8.12,4.652 7.64,7.97 -0.337,2.244 -1.5,3.401 -2.78,3.702 -1.417,0.334 -4.501,-0.448 -5.401,-3.186 l -1.319,-1.1 c -0.973,-0.63 -1.452,-0.954 -1.957,-1.224 -0.88,-0.463 -1.803,-1.031 -3.475,-2.052 -2.968,-1.812 -5.51,-4.687 -5.51,-4.687 -0.26,-0.172 -0.406,-0.407 -0.484,-0.667"
     id="path739" />
  <path
     style="fill:#fab41d;fill-opacity:1;fill-rule:nonzero;stroke:none"
     d="m 82.376991,42.455339 -3.417,7.026 c 0.907,2.744 3.991,3.506 5.412,3.167 1.281,-0.308 2.437,-1.469 2.76,-3.719 0.376,-2.614 -1.479,-4.625 -4.755,-6.474"
     id="path740" />
  <path
     style="fill:none;stroke:#231f20;stroke-width:0.565977;stroke-linecap:butt;stroke-linejoin:miter;stroke-miterlimit:4;stroke-dasharray:none;stroke-opacity:1"
     d="m 82.376991,42.455339 -3.417,7.026 c 0.907,2.744 3.991,3.506 5.412,3.167 1.281,-0.308 2.437,-1.469 2.76,-3.719 0.376,-2.614 -1.479,-4.625 -4.755,-6.474 z"
     id="path741" />
  <path
     style="fill:#231f20;fill-opacity:1;fill-rule:nonzero;stroke:none"
     d="m 73.631991,24.75234 c 0.261,0.583 2.043,1.391 3.141,2.563 0.74,0.79 3.276,1.853 3.954,2.697 0.629,0.776 0.984,1.068 1.984,0.505 0.598,-0.333 1.53,-1.358 1.306,-1.817 -0.536,-1.063 -1.254,-1.677 -2.186,-2.188 -1.074,-0.573 -4.115,-1.891 -4.694,-2.077 -1.453,-0.475 -1.858,-1.084 -2.229,-1.251 -0.703,-0.297 -0.989,-0.099 -1.285,0.303 -0.563,0.785 0.009,1.265 0.009,1.265"
     id="path742" />
  <path
     style="fill:none;stroke:#231f20;stroke-width:0.565977;stroke-linecap:butt;stroke-linejoin:miter;stroke-miterlimit:4;stroke-dasharray:none;stroke-opacity:1"
     d="m 73.631991,24.75234 c 0.261,0.583 2.043,1.391 3.141,2.563 0.74,0.79 3.276,1.853 3.954,2.697 0.629,0.776 0.984,1.068 1.984,0.505 0.598,-0.333 1.53,-1.358 1.306,-1.817 -0.536,-1.063 -1.254,-1.677 -2.186,-2.188 -1.074,-0.573 -4.115,-1.891 -4.694,-2.077 -1.453,-0.475 -1.858,-1.084 -2.229,-1.251 -0.703,-0.297 -0.989,-0.099 -1.285,0.303 -0.563,0.785 0.009,1.265 0.009,1.265 z"
     id="path743" />
  <path
     style="fill:#231f20;fill-opacity:1;fill-rule:nonzero;stroke:none"
     d="m 81.392991,29.86134 c -0.546,1.178 1.427,1.687 1.922,1.902 0.5,0.208 1.86,0.978 2.828,1.718 0.984,0.734 2.521,1.234 4.380003,2.629999 0.98,0.729 2.396,0.828 3.396,-0.64 0.994,-1.447999 0.552,-2.551999 -0.766,-3.259999 -1.317,-0.71 -2.854,-0.819 -4.234003,-1.439 -1.38,-0.613 -2.724,-1.38 -3.75,-2.036 -1.177,-0.735 -2.026,-0.661 -2.412,-0.385 -0.984,0.682 -1.364,1.51 -1.364,1.51"
     id="path744" />
  <path
     style="fill:none;stroke:#231f20;stroke-width:0.565977;stroke-linecap:butt;stroke-linejoin:miter;stroke-miterlimit:4;stroke-dasharray:none;stroke-opacity:1"
     d="m 81.392991,29.86134 c -0.546,1.178 1.427,1.687 1.922,1.902 0.5,0.208 1.86,0.978 2.828,1.718 0.984,0.734 2.521,1.234 4.380003,2.629999 0.98,0.729 2.396,0.828 3.396,-0.64 0.994,-1.447999 0.552,-2.551999 -0.766,-3.259999 -1.317,-0.71 -2.854,-0.819 -4.234003,-1.439 -1.38,-0.613 -2.724,-1.38 -3.75,-2.036 -1.177,-0.735 -2.026,-0.661 -2.412,-0.385 -0.984,0.682 -1.364,1.51 -1.364,1.51 z"
     id="path745" />
  <path
     style="fill:#231f20;fill-opacity:1;fill-rule:nonzero;stroke:none"
     d="m 68.516991,20.66334 c 0.382,0.641 2.896,2.693 3.496,3.13 0.531,0.396 1.198,1.339 2.214,0.787 0.421,-0.193 0.869,-0.808 0.978,-1.104 0.104,-0.24 -0.093,-0.511 -0.432,-0.708 -0.562,-0.355 -0.869,-0.235 -1.989,-0.839 0,0 -0.287,-0.1 -0.819,-0.245 -1.566,-0.459 -0.916,-0.109 -3.041,-1.271 -0.151,-0.089 -0.339,0.006 -0.391,0.104 -0.073,0.172 -0.016,0.146 -0.016,0.146"
     id="path746" />
  <path
     style="fill:none;stroke:#231f20;stroke-width:0.565977;stroke-linecap:round;stroke-linejoin:round;stroke-miterlimit:4;stroke-dasharray:none;stroke-opacity:1"
     d="m 68.516991,20.66334 c 0.382,0.641 2.896,2.693 3.496,3.13 0.531,0.396 1.198,1.339 2.214,0.787 0.421,-0.193 0.869,-0.808 0.978,-1.104 0.104,-0.24 -0.093,-0.511 -0.432,-0.708 -0.562,-0.355 -0.869,-0.235 -1.989,-0.839 0,0 -0.287,-0.1 -0.819,-0.245 -1.566,-0.459 -0.916,-0.109 -3.041,-1.271 -0.151,-0.089 -0.339,0.006 -0.391,0.104 -0.073,0.172 -0.016,0.146 -0.016,0.146 z"
     id="path747" />
  <path
     style="fill:#231f20;fill-opacity:1;fill-rule:nonzero;stroke:none"
     d="m 52.434991,45.048339 c 1.136,0.74 1.937,0.157 2.177,-0.859 0.068,-0.302 0.448,-0.478 0.5,-0.786 0.099,-0.692 -0.98,-2.058 -2.355,-1.448 -0.093,0.041 -0.906,0.136 -1.51,0.297 -1.167,0.328 -3.348,1.536 -4.067,4.14 -0.339,1.229 0.452,1.199 0.739,0.745 0.912,-1.448 1.276,-1.396 1.661,-1.688 1.276,-1 2.855,-0.401 2.855,-0.401"
     id="path748" />
  <path
     style="fill:none;stroke:#231f20;stroke-width:0.332927;stroke-linecap:butt;stroke-linejoin:miter;stroke-miterlimit:4;stroke-dasharray:none;stroke-opacity:1"
     d="m 52.434991,45.048339 c 1.136,0.74 1.937,0.157 2.177,-0.859 0.068,-0.302 0.448,-0.478 0.5,-0.786 0.099,-0.692 -0.98,-2.058 -2.355,-1.448 -0.093,0.041 -0.906,0.136 -1.51,0.297 -1.167,0.328 -3.348,1.536 -4.067,4.14 -0.339,1.229 0.452,1.199 0.739,0.745 0.912,-1.448 1.276,-1.396 1.661,-1.688 1.276,-1 2.855,-0.401 2.855,-0.401 z"
     id="path749" />
  <path
     style="fill:#fab41d;fill-opacity:1;fill-rule:nonzero;stroke:none"
     d="m 146.85599,33.56434 c -2.656,1.660999 -4.839,2.488999 -5.656,2.911999 -2.844,1.459 -5.464,1.276 -6.52,-1.412 -1.246,-3.144999 0.504,-5.352999 4.29,-7.082999 1.6,-0.734 4.724,-3.204 4.724,-3.204 2.271,-2.317 3.183,-3.02 6.152,-3.005 1.531,0.011 2.588,0.387 3.703,1.303 2.057,1.713 2.135,2.838 1.563,3.885 -0.574,1.036 -1.672,1.719 -3.506,3.303 -1.76,1.52 -4.75,3.301 -4.75,3.301"
     id="path750" />
  <path
     style="fill:none;stroke:#231f20;stroke-width:0.565977;stroke-linecap:butt;stroke-linejoin:miter;stroke-miterlimit:4;stroke-dasharray:none;stroke-opacity:1"
     d="m 146.85599,33.56434 c -2.656,1.660999 -4.839,2.488999 -5.656,2.911999 -2.844,1.459 -5.464,1.276 -6.52,-1.412 -1.246,-3.144999 0.504,-5.352999 4.29,-7.082999 1.6,-0.734 4.724,-3.204 4.724,-3.204 2.271,-2.317 3.183,-3.02 6.152,-3.005 1.531,0.011 2.588,0.387 3.703,1.303 2.057,1.713 2.135,2.838 1.563,3.885 -0.574,1.036 -1.672,1.719 -3.506,3.303 -1.76,1.52 -4.75,3.301 -4.75,3.301 z"
     id="path751" />
  <path
     style="fill:#ffffff;fill-opacity:1;fill-rule:nonzero;stroke:none"
     d="m 155.11199,17.87734 c 0.109,-0.224 -0.762,-0.98 -0.448,-1.401 0.312,-0.423 1.046,-0.12 2.796,-1.057 l 0.021,-0.011 c 1.26,-0.724 2.651,-0.844 3.708,-0.172 1.761,1.109 1.964,3.937 0.469,6.328 -1.505,2.391 -4.145,3.432 -5.906,2.333 -1.687,-1.052 -1.948,-3.708 -0.64,-6.02"
     id="path752" />
  <path
     style="fill:none;stroke:#231f20;stroke-width:0.565977;stroke-linecap:butt;stroke-linejoin:miter;stroke-miterlimit:4;stroke-dasharray:none;stroke-opacity:1"
     d="m 155.11199,17.87734 c 0.109,-0.224 -0.762,-0.98 -0.448,-1.401 0.312,-0.423 1.046,-0.12 2.796,-1.057 l 0.021,-0.011 c 1.26,-0.724 2.651,-0.844 3.708,-0.172 1.761,1.109 1.964,3.937 0.469,6.328 -1.505,2.391 -4.145,3.432 -5.906,2.333 -1.687,-1.052 -1.948,-3.708 -0.64,-6.02 z"
     id="path753" />
  <path
     style="fill:#231f20;fill-opacity:1;fill-rule:nonzero;stroke:none"
     d="m 138.67399,13.25234 c 1.734,1.448 1.875,1.963 1.307,2.735 -0.38,0.52 -0.547,1.124 -0.76,1.448 -0.708,1.088 -2.365,2.618 -8.172,5.728 -1.308,0.698 -3.145,1.704 -3.865,2.177 -1.146,0.729 -1.604,-1.656 -1.151,-1.953 1.423,-0.952 2.317,-1.724 2.787,-2.13 0.322,-0.281 0.953,-0.704 2.052,-1.964 1.656,-1.912 2.369,-3.297 3.937,-4.718 0.724,-0.667 0.849,-1.62 1.896,-1.902 1.047,-0.296 1.969,0.579 1.969,0.579"
     id="path754" />
  <path
     style="fill:none;stroke:#231f20;stroke-width:0.565977;stroke-linecap:butt;stroke-linejoin:miter;stroke-miterlimit:4;stroke-dasharray:none;stroke-opacity:1"
     d="m 138.67399,13.25234 c 1.734,1.448 1.875,1.963 1.307,2.735 -0.38,0.52 -0.547,1.124 -0.76,1.448 -0.708,1.088 -2.365,2.618 -8.172,5.728 -1.308,0.698 -3.145,1.704 -3.865,2.177 -1.146,0.729 -1.604,-1.656 -1.151,-1.953 1.423,-0.952 2.317,-1.724 2.787,-2.13 0.322,-0.281 0.953,-0.704 2.052,-1.964 1.656,-1.912 2.369,-3.297 3.937,-4.718 0.724,-0.667 0.849,-1.62 1.896,-1.902 1.047,-0.296 1.969,0.579 1.969,0.579 z"
     id="path755" />
  <path
     style="fill:#231f20;fill-opacity:1;fill-rule:nonzero;stroke:#231f20;stroke-width:0.565977;stroke-linecap:round;stroke-linejoin:round;stroke-miterlimit:4;stroke-dasharray:none;stroke-opacity:1"
     d="m 139.50199,14.04834 c 1.11,0.876 0.61,2.975 0.682,3.303 1.073,4.901 1.021,5.281 1.578,9.062 0.803,5.474 0.511,9.338999 -2.536,10.745999 -2.068,0.932 -3.672,0.582 -4.62,-0.324 -1.046,-1.01 -2.073,-4.019999 -0.26,-6.270999 l 0.208,-1.703 c 0,-1.161 0.006,-1.74 -0.037,-2.308 -0.088,-0.989 -0.109,-2.072 -0.161,-4.03 -0.088,-3.479 0.948,-7.172 0.948,-7.172 -0.006,-0.312 0.114,-0.568 0.292,-0.776"
     id="path756" />
  <path
     style="fill:#fab41d;fill-opacity:1;fill-rule:nonzero;stroke:none"
     d="m 142.12599,29.74734 -7.754,0.948 c -1.807,2.249 -0.771,5.259999 0.286,6.264999 0.948,0.912 2.558,1.251 4.615,0.297 2.407,-1.104 3.083,-3.755999 2.853,-7.509999"
     id="path757" />
  <path
     style="fill:none;stroke:#231f20;stroke-width:0.565977;stroke-linecap:butt;stroke-linejoin:miter;stroke-miterlimit:4;stroke-dasharray:none;stroke-opacity:1"
     d="m 142.12599,29.74734 -7.754,0.948 c -1.807,2.249 -0.771,5.259999 0.286,6.264999 0.948,0.912 2.558,1.251 4.615,0.297 2.407,-1.104 3.083,-3.755999 2.853,-7.509999 z"
     id="path758" />
  <path
     style="fill:#231f20;fill-opacity:1;fill-rule:nonzero;stroke:none"
     d="m 132.12199,20.68434 c 0.391,0.505 2.307,0.885 3.646,1.776 0.906,0.599 3.614,1.057 4.469,1.719 0.785,0.614 1.197,0.817 2.047,0.041 0.505,-0.457 1.176,-1.672 0.853,-2.067 -0.765,-0.912 -1.604,-1.344 -2.629,-1.625 -1.178,-0.317 -4.439,-0.901 -5.043,-0.953 -1.525,-0.131 -2.063,-0.631 -2.457,-0.708 -0.756,-0.131 -0.986,0.129 -1.183,0.588 -0.365,0.896 0.297,1.229 0.297,1.229"
     id="path759" />
  <path
     style="fill:none;stroke:#231f20;stroke-width:0.565977;stroke-linecap:butt;stroke-linejoin:miter;stroke-miterlimit:4;stroke-dasharray:none;stroke-opacity:1"
     d="m 132.12199,20.68434 c 0.391,0.505 2.307,0.885 3.646,1.776 0.906,0.599 3.614,1.057 4.469,1.719 0.785,0.614 1.197,0.817 2.047,0.041 0.505,-0.457 1.176,-1.672 0.853,-2.067 -0.765,-0.912 -1.604,-1.344 -2.629,-1.625 -1.178,-0.317 -4.439,-0.901 -5.043,-0.953 -1.525,-0.131 -2.063,-0.631 -2.457,-0.708 -0.756,-0.131 -0.986,0.129 -1.183,0.588 -0.365,0.896 0.297,1.229 0.297,1.229 z"
     id="path760" />
  <path
     style="fill:#231f20;fill-opacity:1;fill-rule:nonzero;stroke:none"
     d="m 140.84599,23.88734 c -0.256,1.266 1.771,1.313 2.307,1.406 0.536,0.094 2.031,0.532 3.145,1.027 1.126,0.495 2.735,0.629 4.866,1.561 1.12,0.486 2.52,0.256 3.156,-1.4 0.64,-1.636 -0.042,-2.614 -1.49,-3 -1.442,-0.39 -2.964,-0.141 -4.448,-0.433 -1.484,-0.28 -2.969,-0.719 -4.12,-1.119 -1.306,-0.448 -2.114,-0.188 -2.432,0.172 -0.802,0.886 -0.984,1.786 -0.984,1.786"
     id="path761" />
  <path
     style="fill:none;stroke:#231f20;stroke-width:0.565977;stroke-linecap:butt;stroke-linejoin:miter;stroke-miterlimit:4;stroke-dasharray:none;stroke-opacity:1"
     d="m 140.84599,23.88734 c -0.256,1.266 1.771,1.313 2.307,1.406 0.536,0.094 2.031,0.532 3.145,1.027 1.126,0.495 2.735,0.629 4.866,1.561 1.12,0.486 2.52,0.256 3.156,-1.4 0.64,-1.636 -0.042,-2.614 -1.49,-3 -1.442,-0.39 -2.964,-0.141 -4.448,-0.433 -1.484,-0.28 -2.969,-0.719 -4.12,-1.119 -1.306,-0.448 -2.114,-0.188 -2.432,0.172 -0.802,0.886 -0.984,1.786 -0.984,1.786 z"
     id="path762" />
  <path
     style="fill:#231f20;fill-opacity:1;fill-rule:nonzero;stroke:none"
     d="m 126.66399,22.14834 c 0.724,0.151 3.937,-0.349 4.666,-0.5 0.651,-0.136 1.792,0.005 2.068,-1.12 0.13,-0.443 -0.026,-1.183 -0.172,-1.464 -0.109,-0.239 -0.437,-0.271 -0.813,-0.156 -0.64,0.183 -0.76,0.489 -1.953,0.921 0,0 -0.276,0.142 -0.728,0.443 -1.391,0.86 -0.699,0.605 -2.986,1.412 -0.161,0.047 -0.218,0.255 -0.181,0.36 0.077,0.167 0.099,0.104 0.099,0.104"
     id="path763" />
  <path
     style="fill:none;stroke:#231f20;stroke-width:0.565977;stroke-linecap:round;stroke-linejoin:round;stroke-miterlimit:4;stroke-dasharray:none;stroke-opacity:1"
     d="m 126.66399,22.14834 c 0.724,0.151 3.937,-0.349 4.666,-0.5 0.651,-0.136 1.792,0.005 2.068,-1.12 0.13,-0.443 -0.026,-1.183 -0.172,-1.464 -0.109,-0.239 -0.437,-0.271 -0.813,-0.156 -0.64,0.183 -0.76,0.489 -1.953,0.921 0,0 -0.276,0.142 -0.728,0.443 -1.391,0.86 -0.699,0.605 -2.986,1.412 -0.161,0.047 -0.218,0.255 -0.181,0.36 0.077,0.167 0.099,0.104 0.099,0.104 z"
     id="path764" />
  <path
     style="fill:#231f20;fill-opacity:1;fill-rule:nonzero;stroke:none"
     d="m 124.74599,26.80434 c 1.235,0.557 1.938,-0.141 2.027,-1.177 0.02,-0.307 0.369,-0.542 0.375,-0.855 -0.006,-0.697 -1.276,-1.891 -2.542,-1.072 -0.084,0.052 -0.88,0.265 -1.448,0.515 -1.104,0.5 -3.084,2.021 -3.401,4.704 -0.156,1.265 0.631,1.12 0.844,0.629 0.683,-1.567 1.052,-1.572 1.391,-1.921 1.109,-1.178 2.754,-0.823 2.754,-0.823"
     id="path765" />
  <path
     style="fill:none;stroke:#231f20;stroke-width:0.332927;stroke-linecap:butt;stroke-linejoin:miter;stroke-miterlimit:4;stroke-dasharray:none;stroke-opacity:1"
     d="m 124.74599,26.80434 c 1.235,0.557 1.938,-0.141 2.027,-1.177 0.02,-0.307 0.369,-0.542 0.375,-0.855 -0.006,-0.697 -1.276,-1.891 -2.542,-1.072 -0.084,0.052 -0.88,0.265 -1.448,0.515 -1.104,0.5 -3.084,2.021 -3.401,4.704 -0.156,1.265 0.631,1.12 0.844,0.629 0.683,-1.567 1.052,-1.572 1.391,-1.921 1.109,-1.178 2.754,-0.823 2.754,-0.823 z"
     id="path766" />
  <path
     style="fill:#fab41d;fill-opacity:1;fill-rule:nonzero;stroke:none"
     d="m 186.26799,26.85634 c -1.443,-2.781 -2.094,-5.027 -2.448,-5.875 -1.219,-2.948 -0.828,-5.542 1.932,-6.385 3.24,-0.985 5.297,0.937 6.718,4.848 0.599,1.657 2.814,4.964 2.814,4.964 2.124,2.453 2.754,3.417 2.5,6.375 -0.136,1.526 -0.6,2.557 -1.604,3.594 -1.871,1.910999 -3,1.894999 -3.996,1.238999 -0.984,-0.650999 -1.578,-1.800999 -3.004,-3.764999 -1.376,-1.875 -2.912,-4.995 -2.912,-4.995"
     id="path767" />
  <path
     style="fill:none;stroke:#231f20;stroke-width:0.565977;stroke-linecap:butt;stroke-linejoin:miter;stroke-miterlimit:4;stroke-dasharray:none;stroke-opacity:1"
     d="m 186.26799,26.85634 c -1.443,-2.781 -2.094,-5.027 -2.448,-5.875 -1.219,-2.948 -0.828,-5.542 1.932,-6.385 3.24,-0.985 5.297,0.937 6.718,4.848 0.599,1.657 2.814,4.964 2.814,4.964 2.124,2.453 2.754,3.417 2.5,6.375 -0.136,1.526 -0.6,2.557 -1.604,3.594 -1.871,1.910999 -3,1.894999 -3.996,1.238999 -0.984,-0.650999 -1.578,-1.800999 -3.004,-3.764999 -1.376,-1.875 -2.912,-4.995 -2.912,-4.995 z"
     id="path768" />
  <path
     style="fill:#ffffff;fill-opacity:1;fill-rule:nonzero;stroke:none"
     d="m 201.24099,36.345339 c 0.209,0.131 1.037,-0.677 1.433,-0.333 0.395,0.349 0.031,1.057 0.823,2.875 l 0.011,0.026 c 0.618,1.318 0.624,2.708 -0.131,3.708 -1.245,1.667 -4.079,1.642 -6.339,-0.041 -2.265,-1.693 -3.088,-4.412 -1.854,-6.079 1.188,-1.592999 3.849,-1.639999 6.057,-0.156"
     id="path769" />
  <path
     style="fill:none;stroke:#231f20;stroke-width:0.565977;stroke-linecap:butt;stroke-linejoin:miter;stroke-miterlimit:4;stroke-dasharray:none;stroke-opacity:1"
     d="m 201.24099,36.345339 c 0.209,0.131 1.037,-0.677 1.433,-0.333 0.395,0.349 0.031,1.057 0.823,2.875 l 0.011,0.026 c 0.618,1.318 0.624,2.708 -0.131,3.708 -1.245,1.667 -4.079,1.642 -6.339,-0.041 -2.265,-1.693 -3.088,-4.412 -1.854,-6.079 1.188,-1.592999 3.849,-1.639999 6.057,-0.156 z"
     id="path770" />
  <path
     style="fill:#231f20;fill-opacity:1;fill-rule:nonzero;stroke:none"
     d="m 207.17399,20.33534 c -1.584,1.614 -2.114,1.709 -2.833,1.084 -0.491,-0.423 -1.079,-0.636 -1.381,-0.875 -1.026,-0.792 -2.422,-2.568 -5.047,-8.605 -0.588,-1.359 -1.453,-3.2760004 -1.859,-4.0310004 -0.641,-1.197 1.776,-1.459 2.042,-0.989 0.833,1.494 1.526,2.453 1.896,2.948 0.254,0.3440004 0.625,1.0100004 1.786,2.2080004 1.771,1.802 3.099,2.625 4.391,4.302 0.604,0.776 1.541,0.979 1.739,2.042 0.209,1.068 -0.734,1.916 -0.734,1.916"
     id="path771" />
  <path
     style="fill:none;stroke:#231f20;stroke-width:0.565977;stroke-linecap:butt;stroke-linejoin:miter;stroke-miterlimit:4;stroke-dasharray:none;stroke-opacity:1"
     d="m 207.17399,20.33534 c -1.584,1.614 -2.114,1.709 -2.833,1.084 -0.491,-0.423 -1.079,-0.636 -1.381,-0.875 -1.026,-0.792 -2.422,-2.568 -5.047,-8.605 -0.588,-1.359 -1.453,-3.2760004 -1.859,-4.0310004 -0.641,-1.197 1.776,-1.459 2.042,-0.989 0.833,1.494 1.526,2.453 1.896,2.948 0.254,0.3440004 0.625,1.0100004 1.786,2.2080004 1.771,1.802 3.099,2.625 4.391,4.302 0.604,0.776 1.541,0.979 1.739,2.042 0.209,1.068 -0.734,1.916 -0.734,1.916 z"
     id="path772" />
  <path
     style="fill:#231f20;fill-opacity:1;fill-rule:nonzero;stroke:#231f20;stroke-width:0.565977;stroke-linecap:round;stroke-linejoin:round;stroke-miterlimit:4;stroke-dasharray:none;stroke-opacity:1"
     d="m 206.30899,21.09634 c -0.959,1.041 -3.011,0.369 -3.344,0.416 -4.968,0.677 -5.348,0.593 -9.156,0.844 -5.52,0.355 -9.353,-0.245 -10.505,-3.396 -0.766,-2.14 -0.287,-3.708 0.688,-4.579 1.098,-0.968 4.182,-1.738 6.276,0.246 l 1.677,0.344 c 1.161,0.093 1.735,0.145 2.307,0.15 0.994,-0.005 2.073,0.058 4.032,0.167 3.473,0.188 7.072,1.521 7.072,1.521 0.313,0.02 0.552,0.162 0.745,0.354"
     id="path773" />
  <path
     style="fill:#fab41d;fill-opacity:1;fill-rule:nonzero;stroke:#231f20;stroke-width:0.565977;stroke-linecap:butt;stroke-linejoin:miter;stroke-miterlimit:4;stroke-dasharray:none;stroke-opacity:1"
     d="m 190.13199,14.64334 c -2.094,-1.986 -5.176,-1.194 -6.26,-0.224 -0.99,0.88 -1.454,2.453 -0.678,4.582 0.912,2.486 3.495,3.371 7.256,3.448 z"
     id="path774" />
  <path
     style="fill:#231f20;fill-opacity:1;fill-rule:nonzero;stroke:none"
     d="m 200.29299,13.20534 c -0.536,0.354 -1.067,2.23 -2.067,3.495 -0.666,0.848 -1.338,3.511 -2.073,4.312 -0.672,0.735 -0.912,1.131 -0.203,2.036 0.416,0.548 1.572,1.308 1.99,1.016 0.973,-0.683 1.473,-1.489 1.838,-2.489 0.406,-1.146 1.255,-4.35 1.354,-4.948 0.25,-1.506 0.792,-2 0.901,-2.396 0.193,-0.739 -0.047,-0.99 -0.489,-1.219 -0.864,-0.437 -1.251,0.193 -1.251,0.193"
     id="path775" />
  <path
     style="fill:none;stroke:#231f20;stroke-width:0.565977;stroke-linecap:butt;stroke-linejoin:miter;stroke-miterlimit:4;stroke-dasharray:none;stroke-opacity:1"
     d="m 200.29299,13.20534 c -0.536,0.354 -1.067,2.23 -2.067,3.495 -0.666,0.848 -1.338,3.511 -2.073,4.312 -0.672,0.735 -0.912,1.131 -0.203,2.036 0.416,0.548 1.572,1.308 1.99,1.016 0.973,-0.683 1.473,-1.489 1.838,-2.489 0.406,-1.146 1.255,-4.35 1.354,-4.948 0.25,-1.506 0.792,-2 0.901,-2.396 0.193,-0.739 -0.047,-0.99 -0.489,-1.219 -0.864,-0.437 -1.251,0.193 -1.251,0.193 z"
     id="path776" />
  <path
     style="fill:#231f20;fill-opacity:1;fill-rule:nonzero;stroke:none"
     d="m 196.39799,21.64834 c -1.245,-0.365 -1.453,1.656 -1.589,2.181 -0.135,0.527 -0.692,1.986 -1.276,3.058 -0.583,1.078 -0.849,2.672 -1.948,4.718 -0.577,1.079 -0.463,2.496 1.136,3.267 1.583,0.764999 2.615,0.167 3.115,-1.245 0.505,-1.412 0.38,-2.948 0.79,-4.407 0.402,-1.452 0.954,-2.9 1.448,-4.009 0.552,-1.272 0.355,-2.1 0.022,-2.443 -0.818,-0.871 -1.698,-1.12 -1.698,-1.12"
     id="path777" />
  <path
     style="fill:none;stroke:#231f20;stroke-width:0.565977;stroke-linecap:butt;stroke-linejoin:miter;stroke-miterlimit:4;stroke-dasharray:none;stroke-opacity:1"
     d="m 196.39799,21.64834 c -1.245,-0.365 -1.453,1.656 -1.589,2.181 -0.135,0.527 -0.692,1.986 -1.276,3.058 -0.583,1.078 -0.849,2.672 -1.948,4.718 -0.577,1.079 -0.463,2.496 1.136,3.267 1.583,0.764999 2.615,0.167 3.115,-1.245 0.505,-1.412 0.38,-2.948 0.79,-4.407 0.402,-1.452 0.954,-2.9 1.448,-4.009 0.552,-1.272 0.355,-2.1 0.022,-2.443 -0.818,-0.871 -1.698,-1.12 -1.698,-1.12 z"
     id="path778" />
  <path
     style="fill:#231f20;fill-opacity:1;fill-rule:nonzero;stroke:none"
     d="m 199.27299,7.6483396 c -0.208,0.708 0.031,3.9530004 0.129,4.6920004 0.079,0.656 -0.156,1.787 0.944,2.152 0.432,0.165 1.182,0.067 1.474,-0.053 0.249,-0.094 0.306,-0.416 0.224,-0.802 -0.131,-0.65 -0.427,-0.792 -0.76,-2.021 0,0 -0.126,-0.281 -0.386,-0.76 -0.745,-1.4530004 -0.548,-0.745 -1.166,-3.0880004 -0.038,-0.167 -0.235,-0.24 -0.344,-0.209 -0.172,0.062 -0.115,0.089 -0.115,0.089"
     id="path779" />
  <path
     style="fill:none;stroke:#231f20;stroke-width:0.565977;stroke-linecap:round;stroke-linejoin:round;stroke-miterlimit:4;stroke-dasharray:none;stroke-opacity:1"
     d="m 199.27299,7.6483396 c -0.208,0.708 0.031,3.9530004 0.129,4.6920004 0.079,0.656 -0.156,1.787 0.944,2.152 0.432,0.165 1.182,0.067 1.474,-0.053 0.249,-0.094 0.306,-0.416 0.224,-0.802 -0.131,-0.65 -0.427,-0.792 -0.76,-2.021 0,0 -0.126,-0.281 -0.386,-0.76 -0.745,-1.4530004 -0.548,-0.745 -1.166,-3.0880004 -0.038,-0.167 -0.235,-0.24 -0.344,-0.209 -0.172,0.062 -0.115,0.089 -0.115,0.089 z"
     id="path780" />
  <path
     style="fill:#231f20;fill-opacity:1;fill-rule:nonzero;stroke:none"
     d="m 194.78899,5.3613396 c -0.652,1.187 -0.016,1.943 1.009,2.115 0.308,0.047 0.516,0.411 0.819,0.443 0.697,0.052 1.989,-1.12 1.281,-2.443 -0.048,-0.095 -0.198,-0.907 -0.401,-1.489 -0.407,-1.142 -1.771,-3.23499998 -4.412,-3.77199998 -1.249,-0.25 -1.167,0.537 -0.697,0.79199998 1.51,0.808 1.484,1.177 1.801,1.541 1.084,1.199 0.6,2.813 0.6,2.813"
     id="path781" />
  <path
     style="fill:none;stroke:#231f20;stroke-width:0.332927;stroke-linecap:butt;stroke-linejoin:miter;stroke-miterlimit:4;stroke-dasharray:none;stroke-opacity:1"
     d="m 194.78899,5.3613396 c -0.652,1.187 -0.016,1.943 1.009,2.115 0.308,0.047 0.516,0.411 0.819,0.443 0.697,0.052 1.989,-1.12 1.281,-2.443 -0.048,-0.095 -0.198,-0.907 -0.401,-1.489 -0.407,-1.142 -1.771,-3.23499998 -4.412,-3.77199998 -1.249,-0.25 -1.167,0.537 -0.697,0.79199998 1.51,0.808 1.484,1.177 1.801,1.541 1.084,1.199 0.6,2.813 0.6,2.813 z"
     id="path782" />
  <path
     style="fill:#ffffff;fill-opacity:1;fill-rule:nonzero;stroke:none"
     d="m 308.97199,31.58034 c -0.03,-0.245 -1.17,-0.385 -1.15,-0.907 0.03,-0.525 0.8,-0.686 1.73,-2.448 l 0.01,-0.014 c 0.64,-1.308 1.72,-2.178 2.98,-2.22 2.07,-0.072 3.83,2.157 3.93,4.98 0.09,2.822 -1.51,5.165999 -3.59,5.239999 -1.98,0.066 -3.68,-1.979999 -3.91,-4.630999"
     id="path783" />
  <path
     style="fill:none;stroke:#231f20;stroke-width:0.565977;stroke-linecap:butt;stroke-linejoin:miter;stroke-miterlimit:4;stroke-dasharray:none;stroke-opacity:1"
     d="m 308.97199,31.58034 c -0.03,-0.245 -1.17,-0.385 -1.15,-0.907 0.03,-0.525 0.8,-0.686 1.73,-2.448 l 0.01,-0.014 c 0.64,-1.308 1.72,-2.178 2.98,-2.22 2.07,-0.072 3.83,2.157 3.93,4.98 0.09,2.822 -1.51,5.165999 -3.59,5.239999 -1.98,0.066 -3.68,-1.979999 -3.91,-4.630999 z"
     id="path784" />
  <path
     style="fill:#fab41d;fill-opacity:1;fill-rule:nonzero;stroke:none"
     d="m 313.47199,49.611339 c -0.08,3.13 0.24,3.813 0.58,4.666 2.13,5.376 -0.55,6.319 -3.37,5.719 -3.32,-0.697 -4.52,-0.88 -3.75,-7.135 0.2,-1.734 0.16,-8.505 0.16,-8.505 -0.35,-2.427 0.6,-4.969 1.83,-5.755 1.29,-0.833 0.84,-0.401 2.18,-0.953 1.27,-0.521 3.44,-0.209 4.09,0.839 0.63,1.005 -0.12,2.484 -0.94,4.77 -0.64,1.796 -0.78,6.354 -0.78,6.354"
     id="path785" />
  <path
     style="fill:none;stroke:#231f20;stroke-width:0.565977;stroke-linecap:butt;stroke-linejoin:miter;stroke-miterlimit:4;stroke-dasharray:none;stroke-opacity:1"
     d="m 313.47199,49.611339 c -0.08,3.13 0.24,3.813 0.58,4.666 2.13,5.376 -0.55,6.319 -3.37,5.719 -3.32,-0.697 -4.52,-0.88 -3.75,-7.135 0.2,-1.734 0.16,-8.505 0.16,-8.505 -0.35,-2.427 0.6,-4.969 1.83,-5.755 1.29,-0.833 0.84,-0.401 2.18,-0.953 1.27,-0.521 3.44,-0.209 4.09,0.839 0.63,1.005 -0.12,2.484 -0.94,4.77 -0.64,1.796 -0.78,6.354 -0.78,6.354 z"
     id="path786" />
  <path
     style="fill:#231f20;fill-opacity:1;fill-rule:nonzero;stroke:none"
     d="m 321.72199,21.59634 c -0.58,0.285 -1.32,2.083 -2.47,3.224 -0.77,0.76 -1.75,3.323 -2.58,4.031 -0.75,0.645 -1.04,1.016 -0.44,2.005 0.35,0.583 1.4,1.484 1.85,1.24 1.05,-0.557 1.64,-1.303 2.12,-2.251 0.55,-1.088 1.77,-4.166 1.94,-4.754 0.43,-1.464 1.03,-1.891 1.17,-2.266 0.28,-0.709 0.09,-0.99 -0.33,-1.272 -0.8,-0.536 -1.26,0.043 -1.26,0.043"
     id="path787" />
  <path
     style="fill:none;stroke:#231f20;stroke-width:0.565977;stroke-linecap:butt;stroke-linejoin:miter;stroke-miterlimit:4;stroke-dasharray:none;stroke-opacity:1"
     d="m 321.72199,21.59634 c -0.58,0.285 -1.32,2.083 -2.47,3.224 -0.77,0.76 -1.75,3.323 -2.58,4.031 -0.75,0.645 -1.04,1.016 -0.44,2.005 0.35,0.583 1.4,1.484 1.85,1.24 1.05,-0.557 1.64,-1.303 2.12,-2.251 0.55,-1.088 1.77,-4.166 1.94,-4.754 0.43,-1.464 1.03,-1.891 1.17,-2.266 0.28,-0.709 0.09,-0.99 -0.33,-1.272 -0.8,-0.536 -1.26,0.043 -1.26,0.043 z"
     id="path788" />
  <path
     style="fill:#231f20;fill-opacity:1;fill-rule:nonzero;stroke:none"
     d="m 317.09199,29.38734 c -1.18,-0.536 -1.67,1.438 -1.88,1.937 -0.21,0.501 -0.97,1.86 -1.7,2.844 -0.72,0.990999 -1.21,2.526999 -2.58,4.400999 -0.73,0.984 -0.81,2.402 0.66,3.391 1.47,0.979 2.57,0.527 3.26,-0.797 0.7,-1.323 0.8,-2.864 1.4,-4.244 0.61,-1.386 1.36,-2.739999 1.99,-3.770999 0.73,-1.183 0.66,-2.027 0.37,-2.423 -0.68,-0.973 -1.52,-1.338 -1.52,-1.338"
     id="path789" />
  <path
     style="fill:none;stroke:#231f20;stroke-width:0.565977;stroke-linecap:butt;stroke-linejoin:miter;stroke-miterlimit:4;stroke-dasharray:none;stroke-opacity:1"
     d="m 317.09199,29.38734 c -1.18,-0.536 -1.67,1.438 -1.88,1.937 -0.21,0.501 -0.97,1.86 -1.7,2.844 -0.72,0.990999 -1.21,2.526999 -2.58,4.400999 -0.73,0.984 -0.81,2.402 0.66,3.391 1.47,0.979 2.57,0.527 3.26,-0.797 0.7,-1.323 0.8,-2.864 1.4,-4.244 0.61,-1.386 1.36,-2.739999 1.99,-3.770999 0.73,-1.183 0.66,-2.027 0.37,-2.423 -0.68,-0.973 -1.52,-1.338 -1.52,-1.338 z"
     id="path790" />
  <path
     style="fill:#231f20;fill-opacity:1;fill-rule:nonzero;stroke:none"
     d="m 325.19199,15.57534 c -0.56,0.464 -2.2,3.265 -2.55,3.926 -0.31,0.584 -1.15,1.386 -0.46,2.314 0.28,0.374 0.95,0.729 1.26,0.796 0.25,0.062 0.49,-0.167 0.64,-0.536 0.26,-0.615 0.09,-0.886 0.51,-2.094 0,0 0.07,-0.302 0.13,-0.844 0.21,-1.62 -0.03,-0.926 0.79,-3.202 0.07,-0.163 -0.05,-0.339 -0.17,-0.371 -0.17,-0.047 -0.15,0.011 -0.15,0.011"
     id="path791" />
  <path
     style="fill:none;stroke:#231f20;stroke-width:0.565977;stroke-linecap:round;stroke-linejoin:round;stroke-miterlimit:4;stroke-dasharray:none;stroke-opacity:1"
     d="m 325.19199,15.57534 c -0.56,0.464 -2.2,3.265 -2.55,3.926 -0.31,0.584 -1.15,1.386 -0.46,2.314 0.28,0.374 0.95,0.729 1.26,0.796 0.25,0.062 0.49,-0.167 0.64,-0.536 0.26,-0.615 0.09,-0.886 0.51,-2.094 0,0 0.07,-0.302 0.13,-0.844 0.21,-1.62 -0.03,-0.926 0.79,-3.202 0.07,-0.163 -0.05,-0.339 -0.17,-0.371 -0.17,-0.047 -0.15,0.011 -0.15,0.011 z"
     id="path792" />
  <path
     style="fill:#231f20;fill-opacity:1;fill-rule:nonzero;stroke:none"
     d="m 311.04199,75.315339 c 2.23,-0.402 2.71,-0.178 2.94,0.754 0.16,0.62 0.51,1.142 0.62,1.511 0.38,1.249 0.49,3.484 -0.86,9.932 -0.3,1.469 -0.71,3.521 -0.82,4.369 -0.16,1.35 -2.29,0.167 -2.23,-0.358 0.18,-1.703 0.17,-2.896 0.16,-3.516 -0.01,-0.432 0.07,-1.187 -0.19,-2.834 -0.39,-2.489 -1,-3.932 -1.09,-6.046 -0.04,-0.979 -0.69,-1.692 -0.24,-2.678 0.46,-0.984 1.71,-1.134 1.71,-1.134"
     id="path793" />
  <path
     style="fill:none;stroke:#231f20;stroke-width:0.565977;stroke-linecap:butt;stroke-linejoin:miter;stroke-miterlimit:4;stroke-dasharray:none;stroke-opacity:1"
     d="m 311.04199,75.315339 c 2.23,-0.402 2.71,-0.178 2.94,0.754 0.16,0.62 0.51,1.142 0.62,1.511 0.38,1.249 0.49,3.484 -0.86,9.932 -0.3,1.469 -0.71,3.521 -0.82,4.369 -0.16,1.35 -2.29,0.167 -2.23,-0.358 0.18,-1.703 0.17,-2.896 0.16,-3.516 -0.01,-0.432 0.07,-1.187 -0.19,-2.834 -0.39,-2.489 -1,-3.932 -1.09,-6.046 -0.04,-0.979 -0.69,-1.692 -0.24,-2.678 0.46,-0.984 1.71,-1.134 1.71,-1.134 z"
     id="path794" />
  <path
     style="fill:#231f20;fill-opacity:1;fill-rule:nonzero;stroke:#231f20;stroke-width:0.565977;stroke-linecap:round;stroke-linejoin:miter;stroke-miterlimit:4;stroke-dasharray:none;stroke-opacity:1"
     d="m 309.59199,77.340339 c -1.03,-0.875 -0.66,-2.864 -0.75,-3.177 -1.33,-4.839 -1.29,-5.214 -2.04,-8.968 -1.08,-5.418 -0.98,-9.298 1.99,-10.844 2.01,-1.052 3.63,-0.787 4.62,0.078 1.11,0.952 2.28,3.906 0.58,6.244 l -0.12,1.704 c 0.07,1.167 0.08,1.739 0.16,2.312 0.14,0.99 0.21,2.068 0.37,4.016 0.27,3.458 -0.58,7.208 -0.58,7.208 0.01,0.312 -0.09,0.568 -0.26,0.787"
     id="path795" />
  <path
     style="fill:#fab41d;fill-opacity:1;fill-rule:nonzero;stroke:none"
     d="m 313.41199,54.429339 c -0.99,-0.865 -2.61,-1.13 -4.62,-0.078 -1.31,0.677 -2.05,1.828 -2.38,3.344 -0.45,0.937 -0.69,1.52 -0.31,2.229 0.03,0.063 0.06,0.135 0.09,0.213 0,0.588 0.03,1.198 0.1,1.85 l 7.7,-1.314 c 1.7,-2.338 0.53,-5.292 -0.58,-6.244"
     id="path796" />
  <path
     style="fill:none;stroke:#231f20;stroke-width:0.565977;stroke-linecap:round;stroke-linejoin:round;stroke-miterlimit:4;stroke-dasharray:none;stroke-opacity:1"
     d="m 313.41199,54.429339 c -0.99,-0.865 -2.61,-1.13 -4.62,-0.078 -1.31,0.677 -2.05,1.828 -2.38,3.344 -0.45,0.937 -0.69,1.52 -0.31,2.229 0.03,0.063 0.06,0.135 0.09,0.213 0,0.588 0.03,1.198 0.1,1.85 l 7.7,-1.314 c 1.7,-2.338 0.53,-5.292 -0.58,-6.244 z"
     id="path797" />
  <path
     style="fill:#231f20;fill-opacity:1;fill-rule:nonzero;stroke:none"
     d="m 312.65199,95.116339 c 1.08,-0.057 0.81,-1.287 0.57,-2.489 -0.06,-0.303 -0.09,-0.594 -0.17,-0.88 -0.34,-1.183 -1.15,-1.839 -3.11,0.432 -0.07,0.089 -1.91,1.27 -2.48,1.521 -2.74,1.167 -2.97,0.359 -2.74,1.167 0.15,0.541 0.65,0.552 1.29,0.546 0.85,-0.005 3.86,-0.281 4.32,-0.292 0.46,-0.01 2.32,-0.005 2.32,-0.005"
     id="path798" />
  <path
     style="fill:none;stroke:#231f20;stroke-width:0.565977;stroke-linecap:butt;stroke-linejoin:miter;stroke-miterlimit:4;stroke-dasharray:none;stroke-opacity:1"
     d="m 312.65199,95.116339 c 1.08,-0.057 0.81,-1.287 0.57,-2.489 -0.06,-0.303 -0.09,-0.594 -0.17,-0.88 -0.34,-1.183 -1.15,-1.839 -3.11,0.432 -0.07,0.089 -1.91,1.27 -2.48,1.521 -2.74,1.167 -2.97,0.359 -2.74,1.167 0.15,0.541 0.65,0.552 1.29,0.546 0.85,-0.005 3.86,-0.281 4.32,-0.292 0.46,-0.01 2.32,-0.005 2.32,-0.005 z"
     id="path800" />
  <path
     style="fill:#ffffff;fill-opacity:1;fill-rule:nonzero;stroke:none"
     d="m 236.93999,22.16834 c -0.235,-0.067 -0.844,0.907 -1.303,0.661 -0.468,-0.244 -0.287,-1.014 -1.484,-2.604 l -0.016,-0.014 c -0.911,-1.131 -1.244,-2.48 -0.755,-3.636 0.818,-1.907 3.583,-2.558 6.18,-1.448 2.6,1.109 4.04,3.552 3.23,5.464 -0.78,1.828 -3.35,2.5 -5.852,1.577"
     id="path802" />
  <path
     style="fill:none;stroke:#231f20;stroke-width:0.565977;stroke-linecap:butt;stroke-linejoin:miter;stroke-miterlimit:4;stroke-dasharray:none;stroke-opacity:1"
     d="m 236.93999,22.16834 c -0.235,-0.067 -0.844,0.907 -1.303,0.661 -0.468,-0.244 -0.287,-1.014 -1.484,-2.604 l -0.016,-0.014 c -0.911,-1.131 -1.244,-2.48 -0.755,-3.636 0.818,-1.907 3.583,-2.558 6.18,-1.448 2.6,1.109 4.04,3.552 3.23,5.464 -0.78,1.828 -3.35,2.5 -5.852,1.577 z"
     id="path803" />
  <path
     style="fill:#fab41d;fill-opacity:1;fill-rule:nonzero;stroke:none"
     d="m 256.88199,23.21534 c 2.93,1.109 3.68,1.021 4.6,0.98 5.78,-0.246 5.79,2.593 4.3,5.062 -1.75,2.906 -2.32,3.984 -7.97,1.214 -1.57,-0.771 -7.99,-2.943 -7.99,-2.943 -2.4,-0.464 -4.49,-2.199 -4.83,-3.615 -0.36,-1.494 -0.11,-0.926 -0.19,-2.369 -0.08,-1.376 0.93,-3.319 2.14,-3.595 1.15,-0.27 2.3,0.932 4.19,2.454 1.49,1.193 5.75,2.812 5.75,2.812"
     id="path804" />
  <path
     style="fill:none;stroke:#231f20;stroke-width:0.565977;stroke-linecap:butt;stroke-linejoin:miter;stroke-miterlimit:4;stroke-dasharray:none;stroke-opacity:1"
     d="m 256.88199,23.21534 c 2.93,1.109 3.68,1.021 4.6,0.98 5.78,-0.246 5.79,2.593 4.3,5.062 -1.75,2.906 -2.32,3.984 -7.97,1.214 -1.57,-0.771 -7.99,-2.943 -7.99,-2.943 -2.4,-0.464 -4.49,-2.199 -4.83,-3.615 -0.36,-1.494 -0.11,-0.926 -0.19,-2.369 -0.08,-1.376 0.93,-3.319 2.14,-3.595 1.15,-0.27 2.3,0.932 4.19,2.454 1.49,1.193 5.75,2.812 5.75,2.812 z"
     id="path805" />
  <path
     style="fill:#231f20;fill-opacity:1;fill-rule:nonzero;stroke:none"
     d="m 236.60599,36.200339 c 0.635,0.129 2.334,-0.808 3.936,-0.985 1.08,-0.119 3.45,-1.509999 4.53,-1.546999 1,-0.036 1.44,-0.151 1.6,-1.291 0.1,-0.677 -0.17,-2.042 -0.68,-2.13 -1.17,-0.214 -2.09,0 -3.06,0.442 -1.1,0.511 -3.976,2.156 -4.482,2.511 -1.24,0.875 -1.98,0.839 -2.328,1.047 -0.662,0.369 -0.677,0.724 -0.526,1.201999 0.292,0.912 1.01,0.751 1.01,0.751"
     id="path806" />
  <path
     style="fill:none;stroke:#231f20;stroke-width:0.565977;stroke-linecap:butt;stroke-linejoin:miter;stroke-miterlimit:4;stroke-dasharray:none;stroke-opacity:1"
     d="m 236.60599,36.200339 c 0.635,0.129 2.334,-0.808 3.936,-0.985 1.08,-0.119 3.45,-1.509999 4.53,-1.546999 1,-0.036 1.44,-0.151 1.6,-1.291 0.1,-0.677 -0.17,-2.042 -0.68,-2.13 -1.17,-0.214 -2.09,0 -3.06,0.442 -1.1,0.511 -3.976,2.156 -4.482,2.511 -1.24,0.875 -1.98,0.839 -2.328,1.047 -0.662,0.369 -0.677,0.724 -0.526,1.201999 0.292,0.912 1.01,0.751 1.01,0.751 z"
     id="path807" />
  <path
     style="fill:#231f20;fill-opacity:1;fill-rule:nonzero;stroke:none"
     d="m 246.16199,32.76334 c 1.29,0.134 1.13,-1.891 1.17,-2.439 0.04,-0.541 0.33,-2.067 0.7,-3.228 0.38,-1.167 0.36,-2.781 1.07,-4.995 0.37,-1.166 0,-2.537 -1.71,-3.005 -1.69,-0.469 -2.59,0.307 -2.84,1.781 -0.24,1.479 0.16,2.968 0.02,4.474 -0.14,1.505 -0.42,3.026 -0.7,4.208 -0.31,1.349 0.03,2.13 0.42,2.412 0.96,0.708 1.87,0.792 1.87,0.792"
     id="path808" />
  <path
     style="fill:none;stroke:#231f20;stroke-width:0.565977;stroke-linecap:butt;stroke-linejoin:miter;stroke-miterlimit:4;stroke-dasharray:none;stroke-opacity:1"
     d="m 246.16199,32.76334 c 1.29,0.134 1.13,-1.891 1.17,-2.439 0.04,-0.541 0.33,-2.067 0.7,-3.228 0.38,-1.167 0.36,-2.781 1.07,-4.995 0.37,-1.166 0,-2.537 -1.71,-3.005 -1.69,-0.469 -2.59,0.307 -2.84,1.781 -0.24,1.479 0.16,2.968 0.02,4.474 -0.14,1.505 -0.42,3.026 -0.7,4.208 -0.31,1.349 0.03,2.13 0.42,2.412 0.96,0.708 1.87,0.792 1.87,0.792 z"
     id="path809" />
  <path
     style="fill:#231f20;fill-opacity:1;fill-rule:nonzero;stroke:none"
     d="m 230.14199,38.747339 c 0.724,-0.016 3.756,-1.194 4.438,-1.484 0.614,-0.262 1.766,-0.376 1.808,-1.527 0.005,-0.464 -0.287,-1.155999 -0.49,-1.406999 -0.166,-0.202 -0.496,-0.166 -0.838,0.022 -0.584,0.322 -0.626,0.64 -1.71,1.316999 0,0 -0.228,0.204 -0.624,0.584 -1.172,1.135 -0.552,0.744 -2.614,2.011 -0.147,0.088 -0.162,0.301 -0.095,0.394 0.105,0.147 0.125,0.09 0.125,0.09"
     id="path810" />
  <path
     style="fill:none;stroke:#231f20;stroke-width:0.565977;stroke-linecap:round;stroke-linejoin:round;stroke-miterlimit:4;stroke-dasharray:none;stroke-opacity:1"
     d="m 230.14199,38.747339 c 0.724,-0.016 3.756,-1.194 4.438,-1.484 0.614,-0.262 1.766,-0.376 1.808,-1.527 0.005,-0.464 -0.287,-1.155999 -0.49,-1.406999 -0.166,-0.202 -0.496,-0.166 -0.838,0.022 -0.584,0.322 -0.626,0.64 -1.71,1.316999 0,0 -0.228,0.204 -0.624,0.584 -1.172,1.135 -0.552,0.744 -2.614,2.011 -0.147,0.088 -0.162,0.301 -0.095,0.394 0.105,0.147 0.125,0.09 0.125,0.09 z"
     id="path811" />
  <path
     style="fill:#231f20;fill-opacity:1;fill-rule:nonzero;stroke:none"
     d="m 265.50199,45.772339 c 0.86,-2.099 1.31,-2.391 2.22,-2.088 0.6,0.197 1.23,0.183 1.61,0.287 1.25,0.349 3.2,1.448 7.93,6.03 1.08,1.043 2.59,2.491 3.25,3.032 1.06,0.859 -1.08,2.026 -1.5,1.692 -1.33,-1.062 -2.35,-1.692 -2.88,-2.01 -0.37,-0.219 -0.97,-0.692 -2.5,-1.354 -2.31,-1 -3.85,-1.256 -5.69,-2.313 -0.85,-0.489 -1.79,-0.317 -2.39,-1.223 -0.59,-0.912 -0.05,-2.053 -0.05,-2.053"
     id="path812" />
  <path
     style="fill:none;stroke:#231f20;stroke-width:0.565977;stroke-linecap:butt;stroke-linejoin:miter;stroke-miterlimit:4;stroke-dasharray:none;stroke-opacity:1"
     d="m 265.50199,45.772339 c 0.86,-2.099 1.31,-2.391 2.22,-2.088 0.6,0.197 1.23,0.183 1.61,0.287 1.25,0.349 3.2,1.448 7.93,6.03 1.08,1.043 2.59,2.491 3.25,3.032 1.06,0.859 -1.08,2.026 -1.5,1.692 -1.33,-1.062 -2.35,-1.692 -2.88,-2.01 -0.37,-0.219 -0.97,-0.692 -2.5,-1.354 -2.31,-1 -3.85,-1.256 -5.69,-2.313 -0.85,-0.489 -1.79,-0.317 -2.39,-1.223 -0.59,-0.912 -0.05,-2.053 -0.05,-2.053 z"
     id="path813" />
  <path
     style="fill:#231f20;fill-opacity:1;fill-rule:nonzero;stroke:#231f20;stroke-width:0.565977;stroke-linecap:round;stroke-linejoin:miter;stroke-miterlimit:4;stroke-dasharray:none;stroke-opacity:1"
     d="m 265.84199,47.987339 c -1.16,-0.672 -1.17,-2.694 -1.31,-2.991 -2.19,-4.515 -2.22,-4.895 -3.64,-8.448 -2.05,-5.128999 -2.67,-8.956999 -0.03,-11.024999 1.8,-1.402 3.43,-1.427 4.57,-0.766 1.26,0.735 2.95,3.427 1.7,6.036 l 0.2,1.699 c 0.27,1.129 0.39,1.692 0.58,2.239 0.31,0.952999 0.58,1.993999 1.09,3.884999 0.9,3.349 0.74,7.193 0.74,7.193 0.07,0.302 0.02,0.578 -0.11,0.818"
     id="path814" />
  <path
     style="fill:#fab41d;fill-opacity:1;fill-rule:nonzero;stroke:none"
     d="m 265.43199,24.75734 c -1.14,-0.661 -2.77,-0.636 -4.57,0.766 -2.08,1.63 -2.13,4.364 -1.06,7.964 l 7.33,-2.694 c 1.25,-2.609 -0.44,-5.301 -1.7,-6.036"
     id="path815" />
  <path
     style="fill:none;stroke:#231f20;stroke-width:0.565977;stroke-linecap:round;stroke-linejoin:round;stroke-miterlimit:4;stroke-dasharray:none;stroke-opacity:1"
     d="m 265.43199,24.75734 c -1.14,-0.661 -2.77,-0.636 -4.57,0.766 -2.08,1.63 -2.13,4.364 -1.06,7.964 l 7.33,-2.694 c 1.25,-2.609 -0.44,-5.301 -1.7,-6.036 z"
     id="path816" />
  <path
     style="fill:#231f20;fill-opacity:1;fill-rule:nonzero;stroke:none"
     d="m 282.48199,55.424339 c 0.67,-1.172 0.04,-1.943 -0.98,-2.12 -0.31,-0.052 -0.51,-0.423 -0.82,-0.453 -0.7,-0.063 -2,1.098 -1.31,2.432 0.05,0.089 0.19,0.901 0.38,1.489 0.4,1.141 1.74,3.256 4.38,3.819 1.24,0.27 1.17,-0.522 0.7,-0.787 -1.5,-0.817 -1.47,-1.188 -1.78,-1.557 -1.07,-1.208 -0.57,-2.823 -0.57,-2.823"
     id="path817" />
  <path
     style="fill:none;stroke:#231f20;stroke-width:0.332927;stroke-linecap:butt;stroke-linejoin:miter;stroke-miterlimit:4;stroke-dasharray:none;stroke-opacity:1"
     d="m 282.48199,55.424339 c 0.67,-1.172 0.04,-1.943 -0.98,-2.12 -0.31,-0.052 -0.51,-0.423 -0.82,-0.453 -0.7,-0.063 -2,1.098 -1.31,2.432 0.05,0.089 0.19,0.901 0.38,1.489 0.4,1.141 1.74,3.256 4.38,3.819 1.24,0.27 1.17,-0.522 0.7,-0.787 -1.5,-0.817 -1.47,-1.188 -1.78,-1.557 -1.07,-1.208 -0.57,-2.823 -0.57,-2.823 z"
     id="path818" />
</svg>
