<?xml version="1.0" encoding="UTF-8" standalone="no"?>
<!-- Created with Inkscape (http://www.inkscape.org/) -->

<svg
   version="1.1"
   id="svg1"
   width="340.14111"
   height="170.53117"
   viewBox="0 0 340.1411 170.53117"
   sodipodi:docname="cell.svg"
   xmlns:inkscape="http://www.inkscape.org/namespaces/inkscape"
   xmlns:sodipodi="http://sodipodi.sourceforge.net/DTD/sodipodi-0.dtd"
   xmlns="http://www.w3.org/2000/svg"
   xmlns:svg="http://www.w3.org/2000/svg">
  <sodipodi:namedview
     id="namedview1"
     pagecolor="#ffffff"
     bordercolor="#000000"
     borderopacity="0.25"
     inkscape:showpageshadow="2"
     inkscape:pageopacity="0.0"
     inkscape:pagecheckerboard="0"
     inkscape:deskcolor="#d1d1d1">
    <inkscape:page
       x="2.0169007e-07"
       y="0"
       inkscape:label="1"
       id="page1"
       width="340.14111"
       height="170.53117"
       margin="0"
       bleed="0" />
  </sodipodi:namedview>
  <defs
     id="defs1" />
  <path
     style="fill:#ffffff;fill-opacity:1;fill-rule:nonzero;stroke:none"
     d="m 323.21513,18.874 h 16.926 V 0 h -16.926 z"
     id="path502" />
  <path
     style="fill:#231f20;fill-opacity:1;fill-rule:nonzero;stroke:none"
     d="m 296.54813,167.046 c -0.14,-2.255 0.142,-2.713 1.094,-2.828 0.63,-0.083 1.188,-0.375 1.573,-0.443 1.271,-0.234 3.521,-0.082 9.771,1.99 1.412,0.474 3.406,1.12 4.24,1.313 1.317,0.328 -0.099,2.307 -0.62,2.181 -1.678,-0.374 -2.85,-0.5 -3.47,-0.561 -0.426,-0.032 -1.17,-0.204 -2.837,-0.131 -2.521,0.104 -4.021,0.536 -6.131,0.38 -0.978,-0.073 -1.76,0.495 -2.682,-0.073 -0.932,-0.552 -0.938,-1.828 -0.938,-1.828"
     id="path503" />
  <path
     style="fill:none;stroke:#231f20;stroke-width:0.565977;stroke-linecap:butt;stroke-linejoin:miter;stroke-miterlimit:4;stroke-dasharray:none;stroke-opacity:1"
     d="m 296.54813,167.046 c -0.14,-2.255 0.142,-2.713 1.094,-2.828 0.63,-0.083 1.188,-0.375 1.573,-0.443 1.271,-0.234 3.521,-0.082 9.771,1.99 1.412,0.474 3.406,1.12 4.24,1.313 1.317,0.328 -0.099,2.307 -0.62,2.181 -1.678,-0.374 -2.85,-0.5 -3.47,-0.561 -0.426,-0.032 -1.17,-0.204 -2.837,-0.131 -2.521,0.104 -4.021,0.536 -6.131,0.38 -0.978,-0.073 -1.76,0.495 -2.682,-0.073 -0.932,-0.552 -0.938,-1.828 -0.938,-1.828 z"
     id="path504" />
  <path
     style="fill:#231f20;fill-opacity:1;fill-rule:nonzero;stroke:#231f20;stroke-width:0.565977;stroke-linecap:round;stroke-linejoin:round;stroke-miterlimit:4;stroke-dasharray:none;stroke-opacity:1"
     d="m 298.49113,168.635 c -0.943,1.047 -3.005,0.416 -3.339,0.463 -4.953,0.767 -5.328,0.688 -9.14,1 -5.516,0.448 -9.354,-0.093 -10.557,-3.224 -0.803,-2.119 -0.355,-3.697 0.615,-4.588 1.077,-0.979 4.145,-1.808 6.27,0.14 l 1.687,0.324 c 1.157,0.077 1.729,0.115 2.308,0.109 1,-0.021 2.073,0.02 4.031,0.094 3.474,0.136 7.1,1.406 7.1,1.406 0.306,0.026 0.557,0.151 0.754,0.339"
     id="path506" />
  <path
     style="fill:#231f20;fill-opacity:1;fill-rule:nonzero;stroke:none"
     d="m 315.75113,166.786 c -0.755,-1.12 -1.728,-0.891 -2.337,-0.057 -0.183,0.254 -0.606,0.27 -0.767,0.53 -0.364,0.6 0.095,2.282 1.595,2.256 0.104,0 0.894,0.224 1.505,0.312 1.203,0.162 3.687,-0.098 5.364,-2.218 0.797,-0.995 0.052,-1.282 -0.391,-0.979 -1.401,0.979 -1.718,0.792 -2.188,0.905 -1.561,0.428 -2.781,-0.749 -2.781,-0.749"
     id="path508" />
  <path
     style="fill:none;stroke:#231f20;stroke-width:0.332927;stroke-linecap:butt;stroke-linejoin:miter;stroke-miterlimit:4;stroke-dasharray:none;stroke-opacity:1"
     d="m 315.75113,166.786 c -0.755,-1.12 -1.728,-0.891 -2.337,-0.057 -0.183,0.254 -0.606,0.27 -0.767,0.53 -0.364,0.6 0.095,2.282 1.595,2.256 0.104,0 0.894,0.224 1.505,0.312 1.203,0.162 3.687,-0.098 5.364,-2.218 0.797,-0.995 0.052,-1.282 -0.391,-0.979 -1.401,0.979 -1.718,0.792 -2.188,0.905 -1.561,0.428 -2.781,-0.749 -2.781,-0.749 z"
     id="path510" />
  <path
     style="fill:#231f20;fill-opacity:1;fill-rule:nonzero;stroke:none"
     d="m 211.47513,134.75 c 1.407,-1.776 1.923,-1.928 2.709,-1.385 0.526,0.358 1.14,0.514 1.468,0.718 1.104,0.672 2.683,2.286 5.959,7.995 0.74,1.291 1.803,3.104 2.297,3.801 0.76,1.115 -1.609,1.652 -1.922,1.214 -0.995,-1.395 -1.787,-2.271 -2.214,-2.728 -0.292,-0.314 -0.729,-0.934 -2.025,-1.991 -1.953,-1.599 -3.36,-2.276 -4.829,-3.796 -0.682,-0.704 -1.64,-0.803 -1.952,-1.844 -0.328,-1.032 0.509,-1.984 0.509,-1.984"
     id="path512" />
  <path
     style="fill:none;stroke:#231f20;stroke-width:0.565977;stroke-linecap:butt;stroke-linejoin:miter;stroke-miterlimit:4;stroke-dasharray:none;stroke-opacity:1"
     d="m 211.47513,134.75 c 1.407,-1.776 1.923,-1.928 2.709,-1.385 0.526,0.358 1.14,0.514 1.468,0.718 1.104,0.672 2.683,2.286 5.959,7.995 0.74,1.291 1.803,3.104 2.297,3.801 0.76,1.115 -1.609,1.652 -1.922,1.214 -0.995,-1.395 -1.787,-2.271 -2.214,-2.728 -0.292,-0.314 -0.729,-0.934 -2.025,-1.991 -1.953,-1.599 -3.36,-2.276 -4.829,-3.796 -0.682,-0.704 -1.64,-0.803 -1.952,-1.844 -0.328,-1.032 0.509,-1.984 0.509,-1.984 z"
     id="path513" />
  <path
     style="fill:#231f20;fill-opacity:1;fill-rule:nonzero;stroke:#231f20;stroke-width:0.565977;stroke-linecap:round;stroke-linejoin:round;stroke-miterlimit:4;stroke-dasharray:none;stroke-opacity:1"
     d="m 211.87613,137.229 c -1.406,0.156 -2.52,-1.688 -2.801,-1.875 -4.209,-2.735 -4.437,-3.037 -7.485,-5.344 -4.411,-3.333 -6.921,-6.292 -5.729,-9.432 0.808,-2.115 2.193,-2.995 3.51,-3.011 1.459,-0.021 4.297,1.411 4.584,4.282 l 1.047,1.358 c 0.817,0.828 1.218,1.24 1.645,1.62 0.761,0.647 1.543,1.402 2.953,2.756 2.5,2.411 4.36,5.776 4.36,5.776 0.214,0.219 0.312,0.479 0.334,0.75"
     id="path514" />
  <path
     style="fill:#231f20;fill-opacity:1;fill-rule:nonzero;stroke:none"
     d="m 225.98013,147.349 c 0.183,-1.344 -0.692,-1.818 -1.702,-1.604 -0.307,0.066 -0.631,-0.204 -0.927,-0.115 -0.672,0.203 -1.448,1.765 -0.308,2.744 0.079,0.068 0.516,0.767 0.912,1.235 0.796,0.917 2.817,2.38 5.484,1.922 1.251,-0.22 0.891,-0.928 0.349,-0.996 -1.693,-0.202 -1.802,-0.552 -2.229,-0.776 -1.448,-0.733 -1.579,-2.41 -1.579,-2.41"
     id="path515" />
  <path
     style="fill:none;stroke:#231f20;stroke-width:0.332927;stroke-linecap:butt;stroke-linejoin:miter;stroke-miterlimit:4;stroke-dasharray:none;stroke-opacity:1"
     d="m 225.98013,147.349 c 0.183,-1.344 -0.692,-1.818 -1.702,-1.604 -0.307,0.066 -0.631,-0.204 -0.927,-0.115 -0.672,0.203 -1.448,1.765 -0.308,2.744 0.079,0.068 0.516,0.767 0.912,1.235 0.796,0.917 2.817,2.38 5.484,1.922 1.251,-0.22 0.891,-0.928 0.349,-0.996 -1.693,-0.202 -1.802,-0.552 -2.229,-0.776 -1.448,-0.733 -1.579,-2.41 -1.579,-2.41 z"
     id="path516" />
  <path
     style="fill:#fab41d;fill-opacity:1;fill-rule:nonzero;stroke:none"
     d="m 280.44413,157.291 c 0.312,3.115 0.719,3.755 1.162,4.563 2.781,5.063 0.245,6.333 -2.631,6.093 -3.375,-0.276 -4.599,-0.306 -4.624,-6.598 -0.005,-1.756 -0.907,-8.47 -0.907,-8.47 -0.645,-2.358 -0.021,-5.005 1.094,-5.937 1.188,-0.984 0.792,-0.511 2.042,-1.219 1.203,-0.677 3.391,-0.634 4.171,0.318 0.756,0.917 0.188,2.485 -0.337,4.849 -0.407,1.869 0.03,6.401 0.03,6.401"
     id="path517" />
  <path
     style="fill:none;stroke:#231f20;stroke-width:0.565977;stroke-linecap:butt;stroke-linejoin:miter;stroke-miterlimit:4;stroke-dasharray:none;stroke-opacity:1"
     d="m 280.44413,157.291 c 0.312,3.115 0.719,3.755 1.162,4.563 2.781,5.063 0.245,6.333 -2.631,6.093 -3.375,-0.276 -4.599,-0.306 -4.624,-6.598 -0.005,-1.756 -0.907,-8.47 -0.907,-8.47 -0.645,-2.358 -0.021,-5.005 1.094,-5.937 1.188,-0.984 0.792,-0.511 2.042,-1.219 1.203,-0.677 3.391,-0.634 4.171,0.318 0.756,0.917 0.188,2.485 -0.337,4.849 -0.407,1.869 0.03,6.401 0.03,6.401 z"
     id="path518" />
  <path
     style="fill:#ffffff;fill-opacity:1;fill-rule:nonzero;stroke:none"
     d="m 273.40313,140.089 c -0.052,-0.246 -1.209,-0.282 -1.229,-0.808 -0.022,-0.526 0.744,-0.75 1.52,-2.583 l 0.005,-0.021 c 0.527,-1.35 1.527,-2.318 2.776,-2.47 2.063,-0.244 4,1.828 4.339,4.631 0.338,2.812 -1.067,5.276 -3.124,5.527 -1.97,0.244 -3.839,-1.658 -4.287,-4.276"
     id="path519" />
  <path
     style="fill:none;stroke:#231f20;stroke-width:0.565977;stroke-linecap:butt;stroke-linejoin:miter;stroke-miterlimit:4;stroke-dasharray:none;stroke-opacity:1"
     d="m 273.40313,140.089 c -0.052,-0.246 -1.209,-0.282 -1.229,-0.808 -0.022,-0.526 0.744,-0.75 1.52,-2.583 l 0.005,-0.021 c 0.527,-1.35 1.527,-2.318 2.776,-2.47 2.063,-0.244 4,1.828 4.339,4.631 0.338,2.812 -1.067,5.276 -3.124,5.527 -1.97,0.244 -3.839,-1.658 -4.287,-4.276 z"
     id="path520" />
  <path
     style="fill:#231f20;fill-opacity:1;fill-rule:nonzero;stroke:none"
     d="m 260.60613,166.213 c 0.38,2.229 0.15,2.713 -0.782,2.932 -0.625,0.146 -1.145,0.5 -1.52,0.61 -1.24,0.37 -3.49,0.458 -9.922,-0.928 -1.459,-0.317 -3.516,-0.738 -4.359,-0.849 -1.349,-0.181 -0.152,-2.296 0.38,-2.233 1.703,0.197 2.885,0.192 3.511,0.186 0.421,-0.014 1.181,0.079 2.833,-0.172 2.5,-0.38 3.943,-0.973 6.052,-1.041 0.984,-0.036 1.697,-0.683 2.676,-0.224 0.991,0.453 1.131,1.719 1.131,1.719"
     id="path521" />
  <path
     style="fill:none;stroke:#231f20;stroke-width:0.565977;stroke-linecap:butt;stroke-linejoin:miter;stroke-miterlimit:4;stroke-dasharray:none;stroke-opacity:1"
     d="m 260.60613,166.213 c 0.38,2.229 0.15,2.713 -0.782,2.932 -0.625,0.146 -1.145,0.5 -1.52,0.61 -1.24,0.37 -3.49,0.458 -9.922,-0.928 -1.459,-0.317 -3.516,-0.738 -4.359,-0.849 -1.349,-0.181 -0.152,-2.296 0.38,-2.233 1.703,0.197 2.885,0.192 3.511,0.186 0.421,-0.014 1.181,0.079 2.833,-0.172 2.5,-0.38 3.943,-0.973 6.052,-1.041 0.984,-0.036 1.697,-0.683 2.676,-0.224 0.991,0.453 1.131,1.719 1.131,1.719 z"
     id="path523" />
  <path
     style="fill:#231f20;fill-opacity:1;fill-rule:nonzero;stroke:#231f20;stroke-width:0.565977;stroke-linecap:round;stroke-linejoin:round;stroke-miterlimit:4;stroke-dasharray:none;stroke-opacity:1"
     d="m 258.49613,164.849 c 0.828,-1.151 2.948,-0.746 3.271,-0.823 4.849,-1.297 5.229,-1.261 8.98,-1.98 5.432,-1.041 9.312,-0.916 10.843,2.063 1.032,2.026 0.75,3.641 -0.115,4.625 -0.963,1.099 -3.927,2.249 -6.244,0.536 l -1.719,-0.135 c -1.156,0.052 -1.729,0.072 -2.302,0.14 -0.99,0.131 -2.068,0.203 -4.02,0.344 -3.464,0.24 -7.21,-0.636 -7.21,-0.636 -0.306,0.016 -0.566,-0.088 -0.786,-0.254"
     id="path525" />
  <path
     style="fill:#fab41d;fill-opacity:1;fill-rule:nonzero;stroke:none"
     d="m 281.91813,163.885 c -1.167,-2.375 -3.828,-2.99 -7.578,-2.672 l 1.135,7.734 c 2.292,1.751 5.272,0.64 6.256,-0.437 0.885,-0.975 1.183,-2.589 0.187,-4.625"
     id="path527" />
  <path
     style="fill:none;stroke:#231f20;stroke-width:0.565977;stroke-linecap:butt;stroke-linejoin:miter;stroke-miterlimit:4;stroke-dasharray:none;stroke-opacity:1"
     d="m 281.91813,163.885 c -1.167,-2.375 -3.828,-2.99 -7.578,-2.672 l 1.135,7.734 c 2.292,1.751 5.272,0.64 6.256,-0.437 0.885,-0.975 1.183,-2.589 0.187,-4.625 z"
     id="path529" />
  <path
     style="fill:#231f20;fill-opacity:1;fill-rule:nonzero;stroke:none"
     d="m 274.59513,128.307 c -0.312,0.558 0.068,2.468 -0.244,4.047 -0.215,1.068 0.4,3.739 0.115,4.787 -0.262,0.957 -0.292,1.416 0.744,1.905 0.62,0.292 2,0.448 2.234,0 0.558,-1.057 0.636,-1.995 0.506,-3.057 -0.156,-1.208 -0.86,-4.443 -1.047,-5.02 -0.464,-1.454 -0.209,-2.142 -0.292,-2.538 -0.161,-0.744 -0.489,-0.864 -0.989,-0.869 -0.97,0 -1.027,0.745 -1.027,0.745"
     id="path531" />
  <path
     style="fill:none;stroke:#231f20;stroke-width:0.565977;stroke-linecap:butt;stroke-linejoin:miter;stroke-miterlimit:4;stroke-dasharray:none;stroke-opacity:1"
     d="m 274.59513,128.307 c -0.312,0.558 0.068,2.468 -0.244,4.047 -0.215,1.068 0.4,3.739 0.115,4.787 -0.262,0.957 -0.292,1.416 0.744,1.905 0.62,0.292 2,0.448 2.234,0 0.558,-1.057 0.636,-1.995 0.506,-3.057 -0.156,-1.208 -0.86,-4.443 -1.047,-5.02 -0.464,-1.454 -0.209,-2.142 -0.292,-2.538 -0.161,-0.744 -0.489,-0.864 -0.989,-0.869 -0.97,0 -1.027,0.745 -1.027,0.745 z"
     id="path532" />
  <path
     style="fill:#231f20;fill-opacity:1;fill-rule:nonzero;stroke:none"
     d="m 275.10613,137.349 c -1.276,0.218 -0.583,2.129 -0.479,2.656 0.109,0.536 0.244,2.088 0.187,3.306 -0.052,1.224 0.406,2.778 0.308,5.1 -0.047,1.224 0.677,2.443 2.453,2.438 1.755,-0.006 2.416,-0.99 2.255,-2.48 -0.162,-1.484 -0.948,-2.812 -1.219,-4.302 -0.265,-1.489 -0.401,-3.026 -0.443,-4.245 -0.057,-1.38 -0.593,-2.041 -1.041,-2.208 -1.12,-0.421 -2.021,-0.265 -2.021,-0.265"
     id="path533" />
  <path
     style="fill:none;stroke:#231f20;stroke-width:0.565977;stroke-linecap:butt;stroke-linejoin:miter;stroke-miterlimit:4;stroke-dasharray:none;stroke-opacity:1"
     d="m 275.10613,137.349 c -1.276,0.218 -0.583,2.129 -0.479,2.656 0.109,0.536 0.244,2.088 0.187,3.306 -0.052,1.224 0.406,2.778 0.308,5.1 -0.047,1.224 0.677,2.443 2.453,2.438 1.755,-0.006 2.416,-0.99 2.255,-2.48 -0.162,-1.484 -0.948,-2.812 -1.219,-4.302 -0.265,-1.489 -0.401,-3.026 -0.443,-4.245 -0.057,-1.38 -0.593,-2.041 -1.041,-2.208 -1.12,-0.421 -2.021,-0.265 -2.021,-0.265 z"
     id="path534" />
  <path
     style="fill:#231f20;fill-opacity:1;fill-rule:nonzero;stroke:none"
     d="m 274.52313,121.499 c -0.245,0.694 -0.209,3.948 -0.163,4.688 0.038,0.667 -0.265,1.782 0.808,2.214 0.422,0.182 1.183,0.14 1.479,0.041 0.251,-0.083 0.328,-0.401 0.271,-0.787 -0.088,-0.666 -0.38,-0.822 -0.635,-2.072 0,0 -0.104,-0.286 -0.333,-0.781 -0.651,-1.495 -0.5,-0.776 -0.97,-3.161 -0.03,-0.167 -0.224,-0.251 -0.333,-0.224 -0.177,0.052 -0.124,0.082 -0.124,0.082"
     id="path535" />
  <path
     style="fill:none;stroke:#231f20;stroke-width:0.565977;stroke-linecap:round;stroke-linejoin:round;stroke-miterlimit:4;stroke-dasharray:none;stroke-opacity:1"
     d="m 274.52313,121.499 c -0.245,0.694 -0.209,3.948 -0.163,4.688 0.038,0.667 -0.265,1.782 0.808,2.214 0.422,0.182 1.183,0.14 1.479,0.041 0.251,-0.083 0.328,-0.401 0.271,-0.787 -0.088,-0.666 -0.38,-0.822 -0.635,-2.072 0,0 -0.104,-0.286 -0.333,-0.781 -0.651,-1.495 -0.5,-0.776 -0.97,-3.161 -0.03,-0.167 -0.224,-0.251 -0.333,-0.224 -0.177,0.052 -0.124,0.082 -0.124,0.082 z"
     id="path536" />
  <path
     style="fill:#231f20;fill-opacity:1;fill-rule:nonzero;stroke:none"
     d="m 241.53813,168.541 c 0.876,1.037 1.813,0.698 2.333,-0.192 0.156,-0.276 0.568,-0.334 0.704,-0.61 0.301,-0.636 -0.339,-2.261 -1.828,-2.068 -0.105,0.011 -0.912,-0.136 -1.532,-0.156 -1.213,-0.026 -3.651,0.5 -5.093,2.787 -0.683,1.077 0.088,1.281 0.5,0.932 1.286,-1.125 1.614,-0.969 2.072,-1.136 1.51,-0.588 2.844,0.443 2.844,0.443"
     id="path537" />
  <path
     style="fill:none;stroke:#231f20;stroke-width:0.332927;stroke-linecap:butt;stroke-linejoin:miter;stroke-miterlimit:4;stroke-dasharray:none;stroke-opacity:1"
     d="m 241.53813,168.541 c 0.876,1.037 1.813,0.698 2.333,-0.192 0.156,-0.276 0.568,-0.334 0.704,-0.61 0.301,-0.636 -0.339,-2.261 -1.828,-2.068 -0.105,0.011 -0.912,-0.136 -1.532,-0.156 -1.213,-0.026 -3.651,0.5 -5.093,2.787 -0.683,1.077 0.088,1.281 0.5,0.932 1.286,-1.125 1.614,-0.969 2.072,-1.136 1.51,-0.588 2.844,0.443 2.844,0.443 z"
     id="path538" />
  <path
     style="fill:#fab41d;fill-opacity:1;fill-rule:nonzero;stroke:none"
     d="m 144.73713,94.469 c -0.704,-3.052 -1.188,-3.636 -1.73,-4.38 -3.401,-4.677 -1.041,-6.256 1.839,-6.381 3.385,-0.146 4.599,-0.271 5.416,5.969 0.229,1.735 1.969,8.281 1.969,8.281 0.938,2.26 0.651,4.968 -0.338,6.031 -1.047,1.125 -0.719,0.604 -1.87,1.464 -1.109,0.828 -3.281,1.062 -4.177,0.213 -0.865,-0.812 -0.5,-2.443 -0.276,-4.855 0.167,-1.905 -0.833,-6.342 -0.833,-6.342"
     id="path540" />
  <path
     style="fill:none;stroke:#231f20;stroke-width:0.565977;stroke-linecap:butt;stroke-linejoin:miter;stroke-miterlimit:4;stroke-dasharray:none;stroke-opacity:1"
     d="m 144.73713,94.469 c -0.704,-3.052 -1.188,-3.636 -1.73,-4.38 -3.401,-4.677 -1.041,-6.256 1.839,-6.381 3.385,-0.146 4.599,-0.271 5.416,5.969 0.229,1.735 1.969,8.281 1.969,8.281 0.938,2.26 0.651,4.968 -0.338,6.031 -1.047,1.125 -0.719,0.604 -1.87,1.464 -1.109,0.828 -3.281,1.062 -4.177,0.213 -0.865,-0.812 -0.5,-2.443 -0.276,-4.855 0.167,-1.905 -0.833,-6.342 -0.833,-6.342 z"
     id="path541" />
  <path
     style="fill:#ffffff;fill-opacity:1;fill-rule:nonzero;stroke:none"
     d="m 150.66913,113.311 c -0.074,0.235 0.932,0.814 0.708,1.287 -0.224,0.475 -1.006,0.319 -2.542,1.579 l -0.021,0.016 c -1.088,0.952 -2.427,1.342 -3.599,0.9 -1.942,-0.744 -2.692,-3.484 -1.697,-6.119 1.009,-2.641 3.4,-4.177 5.343,-3.443 1.854,0.703 2.625,3.255 1.808,5.78"
     id="path542" />
  <path
     style="fill:none;stroke:#231f20;stroke-width:0.565977;stroke-linecap:butt;stroke-linejoin:miter;stroke-miterlimit:4;stroke-dasharray:none;stroke-opacity:1"
     d="m 150.66913,113.311 c -0.074,0.235 0.932,0.814 0.708,1.287 -0.224,0.475 -1.006,0.319 -2.542,1.579 l -0.021,0.016 c -1.088,0.952 -2.427,1.342 -3.599,0.9 -1.942,-0.744 -2.692,-3.484 -1.697,-6.119 1.009,-2.641 3.4,-4.177 5.343,-3.443 1.854,0.703 2.625,3.255 1.808,5.78 z"
     id="path543" />
  <path
     style="fill:#231f20;fill-opacity:1;fill-rule:nonzero;stroke:none"
     d="m 134.80313,69.854 c -1.64,1.558 -2.17,1.635 -2.869,0.984 -0.473,-0.437 -1.057,-0.672 -1.353,-0.921 -0.996,-0.828 -2.33,-2.647 -4.751,-8.767 -0.547,-1.385 -1.339,-3.328 -1.724,-4.093 -0.593,-1.219 1.828,-1.407 2.073,-0.927 0.787,1.531 1.443,2.506 1.796,3.02 0.251,0.35 0.59,1.027 1.719,2.262 1.704,1.864 3,2.729 4.235,4.448 0.573,0.796 1.51,1.03 1.666,2.104 0.178,1.068 -0.792,1.89 -0.792,1.89"
     id="path544" />
  <path
     style="fill:none;stroke:#231f20;stroke-width:0.565977;stroke-linecap:butt;stroke-linejoin:miter;stroke-miterlimit:4;stroke-dasharray:none;stroke-opacity:1"
     d="m 134.80313,69.854 c -1.64,1.558 -2.17,1.635 -2.869,0.984 -0.473,-0.437 -1.057,-0.672 -1.353,-0.921 -0.996,-0.828 -2.33,-2.647 -4.751,-8.767 -0.547,-1.385 -1.339,-3.328 -1.724,-4.093 -0.593,-1.219 1.828,-1.407 2.073,-0.927 0.787,1.531 1.443,2.506 1.796,3.02 0.251,0.35 0.59,1.027 1.719,2.262 1.704,1.864 3,2.729 4.235,4.448 0.573,0.796 1.51,1.03 1.666,2.104 0.178,1.068 -0.792,1.89 -0.792,1.89 z"
     id="path545" />
  <path
     style="fill:#231f20;fill-opacity:1;fill-rule:nonzero;stroke:#231f20;stroke-width:0.565977;stroke-linecap:round;stroke-linejoin:round;stroke-miterlimit:4;stroke-dasharray:none;stroke-opacity:1"
     d="m 134.76713,67.349 c 1.412,0.041 2.251,2.031 2.506,2.255 3.765,3.308 3.948,3.646 6.636,6.365 3.89,3.932 5.942,7.224 4.317,10.156 -1.109,1.979 -2.604,2.645 -3.907,2.479 -1.453,-0.192 -4.052,-2.016 -3.926,-4.896 l -0.839,-1.5 c -0.688,-0.938 -1.027,-1.4 -1.396,-1.834 -0.661,-0.754 -1.323,-1.609 -2.52,-3.156 -2.125,-2.744 -3.485,-6.338 -3.485,-6.338 -0.182,-0.25 -0.244,-0.52 -0.224,-0.791"
     id="path546" />
  <path
     style="fill:#fab41d;fill-opacity:1;fill-rule:nonzero;stroke:none"
     d="m 146.48613,78.448 -5.687,5.36 c -0.125,2.88 2.484,4.692 3.938,4.88 1.301,0.166 2.796,-0.516 3.896,-2.495 1.281,-2.319 0.26,-4.855 -2.147,-7.745"
     id="path547" />
  <path
     style="fill:none;stroke:#231f20;stroke-width:0.565977;stroke-linecap:butt;stroke-linejoin:miter;stroke-miterlimit:4;stroke-dasharray:none;stroke-opacity:1"
     d="m 146.48613,78.448 -5.687,5.36 c -0.125,2.88 2.484,4.692 3.938,4.88 1.301,0.166 2.796,-0.516 3.896,-2.495 1.281,-2.319 0.26,-4.855 -2.147,-7.745 z"
     id="path548" />
  <path
     style="fill:#231f20;fill-opacity:1;fill-rule:nonzero;stroke:none"
     d="m 154.51813,83.218 c -0.516,0.38 -0.969,2.276 -1.907,3.584 -0.64,0.88 -1.197,3.563 -1.89,4.391 -0.64,0.765 -0.864,1.172 -0.126,2.047 0.443,0.525 1.631,1.244 2.032,0.932 0.943,-0.73 1.411,-1.547 1.734,-2.563 0.365,-1.167 1.073,-4.396 1.146,-5.005 0.183,-1.515 0.703,-2.031 0.798,-2.427 0.156,-0.745 -0.09,-0.989 -0.543,-1.203 -0.88,-0.401 -1.244,0.244 -1.244,0.244"
     id="path549" />
  <path
     style="fill:none;stroke:#231f20;stroke-width:0.565977;stroke-linecap:butt;stroke-linejoin:miter;stroke-miterlimit:4;stroke-dasharray:none;stroke-opacity:1"
     d="m 154.51813,83.218 c -0.516,0.38 -0.969,2.276 -1.907,3.584 -0.64,0.88 -1.197,3.563 -1.89,4.391 -0.64,0.765 -0.864,1.172 -0.126,2.047 0.443,0.525 1.631,1.244 2.032,0.932 0.943,-0.73 1.411,-1.547 1.734,-2.563 0.365,-1.167 1.073,-4.396 1.146,-5.005 0.183,-1.515 0.703,-2.031 0.798,-2.427 0.156,-0.745 -0.09,-0.989 -0.543,-1.203 -0.88,-0.401 -1.244,0.244 -1.244,0.244 z"
     id="path550" />
  <path
     style="fill:#231f20;fill-opacity:1;fill-rule:nonzero;stroke:none"
     d="m 151.21013,91.656 c -1.249,-0.339 -1.416,1.693 -1.541,2.213 -0.126,0.532 -0.651,1.996 -1.208,3.079 -0.563,1.093 -0.792,2.697 -1.85,4.765 -0.552,1.094 -0.406,2.505 1.208,3.24 1.599,0.729 2.61,0.109 3.084,-1.312 0.474,-1.418 0.318,-2.954 0.692,-4.417 0.376,-1.464 0.902,-2.922 1.36,-4.047 0.526,-1.276 0.323,-2.104 -0.021,-2.437 -0.839,-0.855 -1.724,-1.084 -1.724,-1.084"
     id="path551" />
  <path
     style="fill:none;stroke:#231f20;stroke-width:0.565977;stroke-linecap:butt;stroke-linejoin:miter;stroke-miterlimit:4;stroke-dasharray:none;stroke-opacity:1"
     d="m 151.21013,91.656 c -1.249,-0.339 -1.416,1.693 -1.541,2.213 -0.126,0.532 -0.651,1.996 -1.208,3.079 -0.563,1.093 -0.792,2.697 -1.85,4.765 -0.552,1.094 -0.406,2.505 1.208,3.24 1.599,0.729 2.61,0.109 3.084,-1.312 0.474,-1.418 0.318,-2.954 0.692,-4.417 0.376,-1.464 0.902,-2.922 1.36,-4.047 0.526,-1.276 0.323,-2.104 -0.021,-2.437 -0.839,-0.855 -1.724,-1.084 -1.724,-1.084 z"
     id="path552" />
  <path
     style="fill:#231f20;fill-opacity:1;fill-rule:nonzero;stroke:none"
     d="m 155.80313,76.442 c -0.416,0.604 -1.202,3.76 -1.348,4.49 -0.13,0.646 -0.704,1.656 0.224,2.344 0.359,0.286 1.11,0.437 1.422,0.417 0.26,-0.021 0.422,-0.308 0.458,-0.699 0.083,-0.661 -0.156,-0.885 -0.089,-2.161 0,0 -0.031,-0.307 -0.124,-0.844 -0.251,-1.609 -0.292,-0.875 -0.136,-3.296 0.011,-0.172 -0.151,-0.303 -0.265,-0.303 -0.183,0.006 -0.142,0.052 -0.142,0.052"
     id="path553" />
  <path
     style="fill:none;stroke:#231f20;stroke-width:0.565977;stroke-linecap:round;stroke-linejoin:round;stroke-miterlimit:4;stroke-dasharray:none;stroke-opacity:1"
     d="m 155.80313,76.442 c -0.416,0.604 -1.202,3.76 -1.348,4.49 -0.13,0.646 -0.704,1.656 0.224,2.344 0.359,0.286 1.11,0.437 1.422,0.417 0.26,-0.021 0.422,-0.308 0.458,-0.699 0.083,-0.661 -0.156,-0.885 -0.089,-2.161 0,0 -0.031,-0.307 -0.124,-0.844 -0.251,-1.609 -0.292,-0.875 -0.136,-3.296 0.011,-0.172 -0.151,-0.303 -0.265,-0.303 -0.183,0.006 -0.142,0.052 -0.142,0.052 z"
     id="path554" />
  <path
     style="fill:#231f20;fill-opacity:1;fill-rule:nonzero;stroke:none"
     d="m 122.26213,55.308 c -0.375,1.301 0.428,1.894 1.459,1.828 0.306,-0.022 0.593,0.29 0.896,0.249 0.697,-0.109 1.688,-1.541 0.702,-2.672 -0.068,-0.077 -0.396,-0.833 -0.724,-1.359 -0.656,-1.021 -2.448,-2.756 -5.145,-2.682 -1.276,0.036 -1.016,0.786 -0.5,0.932 1.651,0.442 1.708,0.808 2.099,1.094 1.328,0.922 1.213,2.61 1.213,2.61"
     id="path555" />
  <path
     style="fill:none;stroke:#231f20;stroke-width:0.332927;stroke-linecap:butt;stroke-linejoin:miter;stroke-miterlimit:4;stroke-dasharray:none;stroke-opacity:1"
     d="m 122.26213,55.308 c -0.375,1.301 0.428,1.894 1.459,1.828 0.306,-0.022 0.593,0.29 0.896,0.249 0.697,-0.109 1.688,-1.541 0.702,-2.672 -0.068,-0.077 -0.396,-0.833 -0.724,-1.359 -0.656,-1.021 -2.448,-2.756 -5.145,-2.682 -1.276,0.036 -1.016,0.786 -0.5,0.932 1.651,0.442 1.708,0.808 2.099,1.094 1.328,0.922 1.213,2.61 1.213,2.61 z"
     id="path556" />
  <path
     style="fill:none;stroke:#231f20;stroke-width:0.49806;stroke-linecap:butt;stroke-linejoin:miter;stroke-miterlimit:4;stroke-dasharray:none;stroke-opacity:1"
     d="m 113.82513,67.15 c 16.166,-8.457 34.365,-3.984 34.365,-3.984"
     id="path557" />
  <path
     style="fill:#231f20;fill-opacity:1;fill-rule:nonzero;stroke:none"
     d="m 149.64713,63.526 c -0.749,0.083 -1.708,0.312 -2.348,0.64 l 0.698,-1.046 -0.131,-1.255 c 0.412,0.593 1.157,1.239 1.781,1.661"
     id="path558" />
  <path
     style="fill:#ffffff;fill-opacity:1;fill-rule:nonzero;stroke:none"
     d="m 19.726132,113.671 c -0.161,-0.182 -1.188,0.339 -1.464,-0.114 -0.26,-0.448 0.287,-1.016 0.09,-2.995 v -0.021 c -0.199,-1.443 0.218,-2.76 1.238,-3.495 1.683,-1.213 4.391,-0.333 6.038,1.959 1.64,2.297 1.614,5.136 -0.079,6.349 -1.609,1.161 -4.161,0.401 -5.823,-1.683"
     id="path559" />
  <path
     style="fill:none;stroke:#231f20;stroke-width:0.565977;stroke-linecap:butt;stroke-linejoin:miter;stroke-miterlimit:4;stroke-dasharray:none;stroke-opacity:1"
     d="m 19.726132,113.671 c -0.161,-0.182 -1.188,0.339 -1.464,-0.114 -0.26,-0.448 0.287,-1.016 0.09,-2.995 v -0.021 c -0.199,-1.443 0.218,-2.76 1.238,-3.495 1.683,-1.213 4.391,-0.333 6.038,1.959 1.64,2.297 1.614,5.136 -0.079,6.349 -1.609,1.161 -4.161,0.401 -5.823,-1.683 z"
     id="path560" />
  <path
     style="fill:#fab41d;fill-opacity:1;fill-rule:nonzero;stroke:none"
     d="m 34.262132,125.541 c 1.896,2.494 2.584,2.824 3.38,3.276 5.027,2.86 3.532,5.266 0.959,6.573 -3.025,1.536 -4.077,2.145 -7.401,-3.208 -0.922,-1.484 -5.208,-6.729 -5.208,-6.729 -1.787,-1.678 -2.635,-4.26 -2.172,-5.636 0.485,-1.452 0.401,-0.843 1.098,-2.11 0.663,-1.202 2.548,-2.317 3.72,-1.91 1.119,0.385 1.458,2.02 2.255,4.312 0.625,1.802 3.369,5.432 3.369,5.432"
     id="path561" />
  <path
     style="fill:none;stroke:#231f20;stroke-width:0.565977;stroke-linecap:butt;stroke-linejoin:miter;stroke-miterlimit:4;stroke-dasharray:none;stroke-opacity:1"
     d="m 34.262132,125.541 c 1.896,2.494 2.584,2.824 3.38,3.276 5.027,2.86 3.532,5.266 0.959,6.573 -3.025,1.536 -4.077,2.145 -7.401,-3.208 -0.922,-1.484 -5.208,-6.729 -5.208,-6.729 -1.787,-1.678 -2.635,-4.26 -2.172,-5.636 0.485,-1.452 0.401,-0.843 1.098,-2.11 0.663,-1.202 2.548,-2.317 3.72,-1.91 1.119,0.385 1.458,2.02 2.255,4.312 0.625,1.802 3.369,5.432 3.369,5.432 z"
     id="path562" />
  <path
     style="fill:#231f20;fill-opacity:1;fill-rule:nonzero;stroke:none"
     d="m 7.2621322,123.15 c 0.59,0.267 2.459,-0.281 4.0579998,-0.115 1.078,0.115 3.688,-0.733 4.756,-0.536 0.978,0.178 1.442,0.167 1.842,-0.916 0.235,-0.641 0.267,-2.026 -0.202,-2.224 -1.099,-0.458 -2.042,-0.453 -3.088,-0.229 -1.188,0.26 -4.344,1.249 -4.9119998,1.495 -1.407,0.588 -2.115,0.39 -2.5,0.505 -0.73,0.235 -0.818,0.568 -0.776,1.068 0.088,0.952 0.822,0.952 0.822,0.952"
     id="path563" />
  <path
     style="fill:none;stroke:#231f20;stroke-width:0.565977;stroke-linecap:butt;stroke-linejoin:miter;stroke-miterlimit:4;stroke-dasharray:none;stroke-opacity:1"
     d="m 7.2621322,123.15 c 0.59,0.267 2.459,-0.281 4.0579998,-0.115 1.078,0.115 3.688,-0.733 4.756,-0.536 0.978,0.178 1.442,0.167 1.842,-0.916 0.235,-0.641 0.267,-2.026 -0.202,-2.224 -1.099,-0.458 -2.042,-0.453 -3.088,-0.229 -1.188,0.26 -4.344,1.249 -4.9119998,1.495 -1.407,0.588 -2.115,0.39 -2.5,0.505 -0.73,0.235 -0.818,0.568 -0.776,1.068 0.088,0.952 0.822,0.952 0.822,0.952 z"
     id="path564" />
  <path
     style="fill:#231f20;fill-opacity:1;fill-rule:nonzero;stroke:none"
     d="m 16.232132,121.843 c 0.328,1.25 2.172,0.386 2.692,0.235 0.521,-0.157 2.052,-0.423 3.27,-0.48 1.224,-0.057 2.73,-0.645 5.054,-0.76 1.222,-0.052 2.374,-0.885 2.213,-2.656 -0.161,-1.751 -1.204,-2.317 -2.667,-2.027 -1.469,0.303 -2.724,1.188 -4.182,1.595 -1.459,0.395 -2.979,0.667 -4.188,0.823 -1.37,0.177 -1.979,0.77 -2.11,1.234 -0.322,1.156 -0.082,2.036 -0.082,2.036"
     id="path565" />
  <path
     style="fill:none;stroke:#231f20;stroke-width:0.565977;stroke-linecap:butt;stroke-linejoin:miter;stroke-miterlimit:4;stroke-dasharray:none;stroke-opacity:1"
     d="m 16.232132,121.843 c 0.328,1.25 2.172,0.386 2.692,0.235 0.521,-0.157 2.052,-0.423 3.27,-0.48 1.224,-0.057 2.73,-0.645 5.054,-0.76 1.222,-0.052 2.374,-0.885 2.213,-2.656 -0.161,-1.751 -1.204,-2.317 -2.667,-2.027 -1.469,0.303 -2.724,1.188 -4.182,1.595 -1.459,0.395 -2.979,0.667 -4.188,0.823 -1.37,0.177 -1.979,0.77 -2.11,1.234 -0.322,1.156 -0.082,2.036 -0.082,2.036 z"
     id="path566" />
  <path
     style="fill:#231f20;fill-opacity:1;fill-rule:nonzero;stroke:none"
     d="m 0.40413215,124.245 c 0.71300005,0.14 3.92600005,-0.344 4.65600005,-0.49 0.65,-0.13 1.801,0.015 2.088,-1.1 0.114,-0.457 -0.036,-1.197 -0.176,-1.484 -0.111,-0.229 -0.439,-0.276 -0.824,-0.161 -0.635,0.192 -0.744,0.489 -1.948,0.927 0,0 -0.271,0.141 -0.739,0.428 -1.385,0.858 -0.699,0.609 -2.98000005,1.4 -0.167,0.052 -0.229,0.261 -0.176,0.37 0.072,0.156 0.099,0.11 0.099,0.11"
     id="path567" />
  <path
     style="fill:none;stroke:#231f20;stroke-width:0.565977;stroke-linecap:round;stroke-linejoin:round;stroke-miterlimit:4;stroke-dasharray:none;stroke-opacity:1"
     d="m 0.40413215,124.245 c 0.71300005,0.14 3.92600005,-0.344 4.65600005,-0.49 0.65,-0.13 1.801,0.015 2.088,-1.1 0.114,-0.457 -0.036,-1.197 -0.176,-1.484 -0.111,-0.229 -0.439,-0.276 -0.824,-0.161 -0.635,0.192 -0.744,0.489 -1.948,0.927 0,0 -0.271,0.141 -0.739,0.428 -1.385,0.858 -0.699,0.609 -2.98000005,1.4 -0.167,0.052 -0.229,0.261 -0.176,0.37 0.072,0.156 0.099,0.11 0.099,0.11 z"
     id="path568" />
  <path
     style="fill:#231f20;fill-opacity:1;fill-rule:nonzero;stroke:none"
     d="m 28.216132,149.338 c 2.254,-0.156 2.718,0.12 2.849,1.073 0.083,0.63 0.38,1.182 0.453,1.563 0.234,1.276 0.11,3.52 -1.917,9.785 -0.459,1.423 -1.088,3.418 -1.281,4.256 -0.307,1.323 -2.296,-0.078 -2.183,-0.598 0.365,-1.678 0.485,-2.855 0.532,-3.475 0.036,-0.427 0.197,-1.177 0.115,-2.839 -0.126,-2.525 -0.574,-4.014 -0.432,-6.129 0.062,-0.975 -0.511,-1.756 0.041,-2.683 0.557,-0.932 1.823,-0.953 1.823,-0.953"
     id="path569" />
  <path
     style="fill:none;stroke:#231f20;stroke-width:0.565977;stroke-linecap:butt;stroke-linejoin:miter;stroke-miterlimit:4;stroke-dasharray:none;stroke-opacity:1"
     d="m 28.216132,149.338 c 2.254,-0.156 2.718,0.12 2.849,1.073 0.083,0.63 0.38,1.182 0.453,1.563 0.234,1.276 0.11,3.52 -1.917,9.785 -0.459,1.423 -1.088,3.418 -1.281,4.256 -0.307,1.323 -2.296,-0.078 -2.183,-0.598 0.365,-1.678 0.485,-2.855 0.532,-3.475 0.036,-0.427 0.197,-1.177 0.115,-2.839 -0.126,-2.525 -0.574,-4.014 -0.432,-6.129 0.062,-0.975 -0.511,-1.756 0.041,-2.683 0.557,-0.932 1.823,-0.953 1.823,-0.953 z"
     id="path570" />
  <path
     style="fill:#231f20;fill-opacity:1;fill-rule:nonzero;stroke:#231f20;stroke-width:0.565977;stroke-linecap:round;stroke-linejoin:miter;stroke-miterlimit:4;stroke-dasharray:none;stroke-opacity:1"
     d="m 26.554132,151.198 c -0.51,-1.245 0.724,-2.849 0.798,-3.167 1.036,-4.901 1.238,-5.229 2.29,-8.901 1.527,-5.313 3.386,-8.719 6.74,-8.729 2.271,-0.011 3.584,0.964 4.074,2.192 0.546,1.349 0.234,4.516 -2.344,5.813 l -0.896,1.459 c -0.474,1.061 -0.719,1.582 -0.911,2.124 -0.339,0.948 -0.761,1.932 -1.516,3.74 -1.344,3.202 -3.817,6.14 -3.817,6.14 -0.131,0.286 -0.344,0.469 -0.59,0.584"
     id="path571" />
  <path
     style="fill:#fab41d;fill-opacity:1;fill-rule:nonzero;stroke:none"
     d="m 40.456132,132.593 c -0.49,-1.228 -1.803,-2.203 -4.079,-2.192 -1.473,0.005 -2.651,0.688 -3.651,1.885 -0.822,0.625 -1.302,1.031 -1.292,1.839 0,0.068 -0.01,0.15 -0.02,0.229 -0.261,0.525 -0.516,1.077 -0.75,1.692 l 7.448,2.36 c 2.578,-1.297 2.89,-4.464 2.344,-5.813"
     id="path572" />
  <path
     style="fill:none;stroke:#231f20;stroke-width:0.565977;stroke-linecap:round;stroke-linejoin:round;stroke-miterlimit:4;stroke-dasharray:none;stroke-opacity:1"
     d="m 40.456132,132.593 c -0.49,-1.228 -1.803,-2.203 -4.079,-2.192 -1.473,0.005 -2.651,0.688 -3.651,1.885 -0.822,0.625 -1.302,1.031 -1.292,1.839 0,0.068 -0.01,0.15 -0.02,0.229 -0.261,0.525 -0.516,1.077 -0.75,1.692 l 7.448,2.36 c 2.578,-1.297 2.89,-4.464 2.344,-5.813 z"
     id="path573" />
  <path
     style="fill:#231f20;fill-opacity:1;fill-rule:nonzero;stroke:none"
     d="m 28.470132,169.021 c 1.063,-0.204 0.642,-1.386 0.246,-2.547 -0.099,-0.292 -0.167,-0.579 -0.287,-0.855 -0.495,-1.12 -1.391,-1.661 -3.025,0.85 -0.063,0.093 -1.724,1.505 -2.262,1.828 -2.561,1.525 -2.894,0.749 -2.561,1.525 0.219,0.511 0.724,0.453 1.343,0.371 0.849,-0.12 3.797,-0.792 4.256,-0.866 0.442,-0.068 2.29,-0.306 2.29,-0.306"
     id="path574" />
  <path
     style="fill:none;stroke:#231f20;stroke-width:0.565977;stroke-linecap:butt;stroke-linejoin:miter;stroke-miterlimit:4;stroke-dasharray:none;stroke-opacity:1"
     d="m 28.470132,169.021 c 1.063,-0.204 0.642,-1.386 0.246,-2.547 -0.099,-0.292 -0.167,-0.579 -0.287,-0.855 -0.495,-1.12 -1.391,-1.661 -3.025,0.85 -0.063,0.093 -1.724,1.505 -2.262,1.828 -2.561,1.525 -2.894,0.749 -2.561,1.525 0.219,0.511 0.724,0.453 1.343,0.371 0.849,-0.12 3.797,-0.792 4.256,-0.866 0.442,-0.068 2.29,-0.306 2.29,-0.306 z"
     id="path576" />
  <path
     style="fill:#fab41d;fill-opacity:1;fill-rule:nonzero;stroke:none"
     d="m 194.93913,113.207 c 2.151,2.282 2.864,2.538 3.708,2.907 5.297,2.312 4.057,4.869 1.641,6.432 -2.843,1.844 -3.833,2.563 -7.693,-2.405 -1.068,-1.386 -5.89,-6.152 -5.89,-6.152 -1.948,-1.474 -3.072,-3.954 -2.755,-5.37 0.339,-1.505 0.312,-0.89 0.875,-2.208 0.536,-1.276 2.292,-2.573 3.494,-2.297 1.156,0.265 1.667,1.855 2.694,4.041 0.817,1.735 3.926,5.052 3.926,5.052"
     id="path578" />
  <path
     style="fill:none;stroke:#231f20;stroke-width:0.565977;stroke-linecap:butt;stroke-linejoin:miter;stroke-miterlimit:4;stroke-dasharray:none;stroke-opacity:1"
     d="m 194.93913,113.207 c 2.151,2.282 2.864,2.538 3.708,2.907 5.297,2.312 4.057,4.869 1.641,6.432 -2.843,1.844 -3.833,2.563 -7.693,-2.405 -1.068,-1.386 -5.89,-6.152 -5.89,-6.152 -1.948,-1.474 -3.072,-3.954 -2.755,-5.37 0.339,-1.505 0.312,-0.89 0.875,-2.208 0.536,-1.276 2.292,-2.573 3.494,-2.297 1.156,0.265 1.667,1.855 2.694,4.041 0.817,1.735 3.926,5.052 3.926,5.052 z"
     id="path579" />
  <path
     style="fill:#ffffff;fill-opacity:1;fill-rule:nonzero;stroke:none"
     d="m 179.40913,103.515 c -0.194,-0.156 -1.115,0.552 -1.464,0.156 -0.35,-0.385 0.098,-1.046 -0.47,-2.953 l -0.009,-0.025 c -0.453,-1.371 -0.303,-2.761 0.567,-3.667 1.437,-1.505 4.256,-1.141 6.297,0.802 2.047,1.953 2.531,4.75 1.104,6.261 -1.364,1.437 -4.011,1.165 -6.025,-0.574"
     id="path580" />
  <path
     style="fill:none;stroke:#231f20;stroke-width:0.565977;stroke-linecap:butt;stroke-linejoin:miter;stroke-miterlimit:4;stroke-dasharray:none;stroke-opacity:1"
     d="m 179.40913,103.515 c -0.194,-0.156 -1.115,0.552 -1.464,0.156 -0.35,-0.385 0.098,-1.046 -0.47,-2.953 l -0.009,-0.025 c -0.453,-1.371 -0.303,-2.761 0.567,-3.667 1.437,-1.505 4.256,-1.141 6.297,0.802 2.047,1.953 2.531,4.75 1.104,6.261 -1.364,1.437 -4.011,1.165 -6.025,-0.574 z"
     id="path581" />
  <path
     style="fill:#231f20;fill-opacity:1;fill-rule:nonzero;stroke:none"
     d="m 196.43413,139.641 c 2.265,0.061 2.699,0.38 2.729,1.337 0.031,0.636 0.271,1.22 0.307,1.605 0.115,1.286 -0.233,3.515 -2.848,9.558 -0.595,1.364 -1.412,3.301 -1.677,4.113 -0.438,1.281 -2.287,-0.301 -2.115,-0.817 0.521,-1.63 0.751,-2.787 0.86,-3.402 0.072,-0.421 0.307,-1.145 0.385,-2.817 0.115,-2.52 -0.188,-4.052 0.156,-6.135 0.151,-0.969 -0.338,-1.797 0.307,-2.666 0.636,-0.882 1.896,-0.776 1.896,-0.776"
     id="path582" />
  <path
     style="fill:none;stroke:#231f20;stroke-width:0.565977;stroke-linecap:butt;stroke-linejoin:miter;stroke-miterlimit:4;stroke-dasharray:none;stroke-opacity:1"
     d="m 196.43413,139.641 c 2.265,0.061 2.699,0.38 2.729,1.337 0.031,0.636 0.271,1.22 0.307,1.605 0.115,1.286 -0.233,3.515 -2.848,9.558 -0.595,1.364 -1.412,3.301 -1.677,4.113 -0.438,1.281 -2.287,-0.301 -2.115,-0.817 0.521,-1.63 0.751,-2.787 0.86,-3.402 0.072,-0.421 0.307,-1.145 0.385,-2.817 0.115,-2.52 -0.188,-4.052 0.156,-6.135 0.151,-0.969 -0.338,-1.797 0.307,-2.666 0.636,-0.882 1.896,-0.776 1.896,-0.776 z"
     id="path583" />
  <path
     style="fill:#231f20;fill-opacity:1;fill-rule:nonzero;stroke:#231f20;stroke-width:0.565977;stroke-linecap:round;stroke-linejoin:round;stroke-miterlimit:4;stroke-dasharray:none;stroke-opacity:1"
     d="m 194.69013,141.442 c -0.969,-1.031 -0.157,-3.031 -0.172,-3.369 -0.324,-5.006 -0.219,-5.375 -0.193,-9.194 0.032,-5.53 0.912,-9.312 4.136,-10.234 2.181,-0.614 3.713,-0.031 4.514,1.016 0.885,1.156 1.439,4.286 -0.692,6.229 l -0.464,1.651 c -0.172,1.152 -0.265,1.718 -0.312,2.292 -0.063,1 -0.203,2.073 -0.448,4.01 -0.437,3.448 -2.021,6.954 -2.021,6.954 -0.047,0.296 -0.197,0.536 -0.405,0.713"
     id="path584" />
  <path
     style="fill:#fab41d;fill-opacity:1;fill-rule:nonzero;stroke:none"
     d="m 202.73613,119.302 c -0.802,-1.037 -2.333,-1.615 -4.515,-0.991 -2.547,0.735 -3.62,3.246 -3.959,6.991 l 7.808,0.239 c 2.129,-1.948 1.562,-5.083 0.666,-6.239"
     id="path585" />
  <path
     style="fill:none;stroke:#231f20;stroke-width:0.565977;stroke-linecap:butt;stroke-linejoin:miter;stroke-miterlimit:4;stroke-dasharray:none;stroke-opacity:1"
     d="m 202.73613,119.302 c -0.802,-1.037 -2.333,-1.615 -4.515,-0.991 -2.547,0.735 -3.62,3.246 -3.959,6.991 l 7.808,0.239 c 2.129,-1.948 1.562,-5.083 0.666,-6.239 z"
     id="path586" />
  <path
     style="fill:#231f20;fill-opacity:1;fill-rule:nonzero;stroke:none"
     d="m 183.89813,126.931 c 0.468,-0.437 0.667,-2.38 1.427,-3.79 0.516,-0.959 0.718,-3.699 1.308,-4.61 0.53,-0.838 0.697,-1.272 -0.152,-2.042 -0.506,-0.463 -1.776,-1.02 -2.135,-0.662 -0.839,0.844 -1.199,1.719 -1.38,2.771 -0.215,1.204 -0.496,4.5 -0.491,5.109 0.016,1.522 -0.432,2.104 -0.473,2.511 -0.057,0.76 0.219,0.969 0.692,1.12 0.928,0.287 1.204,-0.407 1.204,-0.407"
     id="path587" />
  <path
     style="fill:none;stroke:#231f20;stroke-width:0.565977;stroke-linecap:butt;stroke-linejoin:miter;stroke-miterlimit:4;stroke-dasharray:none;stroke-opacity:1"
     d="m 183.89813,126.931 c 0.468,-0.437 0.667,-2.38 1.427,-3.79 0.516,-0.959 0.718,-3.699 1.308,-4.61 0.53,-0.838 0.697,-1.272 -0.152,-2.042 -0.506,-0.463 -1.776,-1.02 -2.135,-0.662 -0.839,0.844 -1.199,1.719 -1.38,2.771 -0.215,1.204 -0.496,4.5 -0.491,5.109 0.016,1.522 -0.432,2.104 -0.473,2.511 -0.057,0.76 0.219,0.969 0.692,1.12 0.928,0.287 1.204,-0.407 1.204,-0.407 z"
     id="path588" />
  <path
     style="fill:#231f20;fill-opacity:1;fill-rule:nonzero;stroke:none"
     d="m 185.50713,118.75 c 1.266,0.276 1.334,-1.761 1.427,-2.287 0.099,-0.537 0.557,-2.026 1.068,-3.136 0.505,-1.12 0.661,-2.724 1.615,-4.849 0.505,-1.109 0.286,-2.515 -1.36,-3.171 -1.63,-0.657 -2.615,0.01 -3.015,1.458 -0.407,1.433 -0.183,2.964 -0.485,4.442 -0.302,1.48 -0.755,2.964 -1.167,4.104 -0.463,1.303 -0.213,2.115 0.141,2.439 0.88,0.812 1.776,1 1.776,1"
     id="path589" />
  <path
     style="fill:none;stroke:#231f20;stroke-width:0.565977;stroke-linecap:butt;stroke-linejoin:miter;stroke-miterlimit:4;stroke-dasharray:none;stroke-opacity:1"
     d="m 185.50713,118.75 c 1.266,0.276 1.334,-1.761 1.427,-2.287 0.099,-0.537 0.557,-2.026 1.068,-3.136 0.505,-1.12 0.661,-2.724 1.615,-4.849 0.505,-1.109 0.286,-2.515 -1.36,-3.171 -1.63,-0.657 -2.615,0.01 -3.015,1.458 -0.407,1.433 -0.183,2.964 -0.485,4.442 -0.302,1.48 -0.755,2.964 -1.167,4.104 -0.463,1.303 -0.213,2.115 0.141,2.439 0.88,0.812 1.776,1 1.776,1 z"
     id="path590" />
  <path
     style="fill:#231f20;fill-opacity:1;fill-rule:nonzero;stroke:none"
     d="m 182.19013,133.489 c 0.457,-0.572 1.468,-3.662 1.661,-4.38 0.182,-0.64 0.823,-1.604 -0.057,-2.359 -0.333,-0.308 -1.068,-0.511 -1.391,-0.516 -0.261,0.005 -0.437,0.276 -0.505,0.661 -0.125,0.656 0.099,0.902 -0.063,2.162 0,0 0.011,0.308 0.068,0.849 0.135,1.625 0.23,0.901 -0.094,3.307 -0.026,0.161 0.125,0.308 0.234,0.318 0.188,0.01 0.147,-0.042 0.147,-0.042"
     id="path591" />
  <path
     style="fill:none;stroke:#231f20;stroke-width:0.565977;stroke-linecap:round;stroke-linejoin:round;stroke-miterlimit:4;stroke-dasharray:none;stroke-opacity:1"
     d="m 182.19013,133.489 c 0.457,-0.572 1.468,-3.662 1.661,-4.38 0.182,-0.64 0.823,-1.604 -0.057,-2.359 -0.333,-0.308 -1.068,-0.511 -1.391,-0.516 -0.261,0.005 -0.437,0.276 -0.505,0.661 -0.125,0.656 0.099,0.902 -0.063,2.162 0,0 0.011,0.308 0.068,0.849 0.135,1.625 0.23,0.901 -0.094,3.307 -0.026,0.161 0.125,0.308 0.234,0.318 0.188,0.01 0.147,-0.042 0.147,-0.042 z"
     id="path592" />
  <path
     style="fill:#231f20;fill-opacity:1;fill-rule:nonzero;stroke:none"
     d="m 195.01313,158.797 c 1.181,-0.656 1.036,-1.647 0.265,-2.328 -0.235,-0.204 -0.213,-0.62 -0.464,-0.808 -0.567,-0.416 -2.281,-0.11 -2.385,1.39 -0.006,0.104 -0.307,0.87 -0.448,1.475 -0.255,1.181 -0.219,3.681 1.74,5.536 0.926,0.875 1.276,0.167 1.01,-0.307 -0.854,-1.48 -0.636,-1.777 -0.713,-2.256 -0.281,-1.598 0.995,-2.702 0.995,-2.702"
     id="path593" />
  <path
     style="fill:none;stroke:#231f20;stroke-width:0.332927;stroke-linecap:butt;stroke-linejoin:miter;stroke-miterlimit:4;stroke-dasharray:none;stroke-opacity:1"
     d="m 195.01313,158.797 c 1.181,-0.656 1.036,-1.647 0.265,-2.328 -0.235,-0.204 -0.213,-0.62 -0.464,-0.808 -0.567,-0.416 -2.281,-0.11 -2.385,1.39 -0.006,0.104 -0.307,0.87 -0.448,1.475 -0.255,1.181 -0.219,3.681 1.74,5.536 0.926,0.875 1.276,0.167 1.01,-0.307 -0.854,-1.48 -0.636,-1.777 -0.713,-2.256 -0.281,-1.598 0.995,-2.702 0.995,-2.702 z"
     id="path594" />
  <path
     style="fill:#fab41d;fill-opacity:1;fill-rule:nonzero;stroke:none"
     d="m 104.79413,117.687 c -2.699,-1.594 -4.443,-3.146 -5.192996,-3.682 -2.599,-1.85 -3.646,-4.255 -1.75,-6.432 2.218996,-2.558 4.983996,-2.022 8.265996,0.541 1.385,1.084 5.016,2.719 5.016,2.719 3.104,0.948 4.15,1.426 5.505,4.068 0.692,1.369 0.848,2.478 0.547,3.896 -0.568,2.609 -1.532,3.197 -2.724,3.172 -1.188,-0.032 -2.298,-0.694 -4.547,-1.59 -2.163,-0.864 -5.12,-2.692 -5.12,-2.692"
     id="path595" />
  <path
     style="fill:none;stroke:#231f20;stroke-width:0.565977;stroke-linecap:butt;stroke-linejoin:miter;stroke-miterlimit:4;stroke-dasharray:none;stroke-opacity:1"
     d="m 104.79413,117.687 c -2.699,-1.594 -4.443,-3.146 -5.192996,-3.682 -2.599,-1.85 -3.646,-4.255 -1.75,-6.432 2.218996,-2.558 4.983996,-2.022 8.265996,0.541 1.385,1.084 5.016,2.719 5.016,2.719 3.104,0.948 4.15,1.426 5.505,4.068 0.692,1.369 0.848,2.478 0.547,3.896 -0.568,2.609 -1.532,3.197 -2.724,3.172 -1.188,-0.032 -2.298,-0.694 -4.547,-1.59 -2.163,-0.864 -5.12,-2.692 -5.12,-2.692 z"
     id="path596" />
  <path
     style="fill:#ffffff;fill-opacity:1;fill-rule:nonzero;stroke:none"
     d="m 122.51813,117.781 c 0.249,-0.006 0.52,-1.126 1.036,-1.042 0.521,0.083 0.588,0.875 2.229,2 l 0.02,0.011 c 1.224,0.785 1.97,1.963 1.86,3.208 -0.172,2.073 -2.588,3.563 -5.396,3.333 -2.817,-0.229 -4.958,-2.098 -4.797,-4.166 0.163,-1.98 2.396,-3.432 5.048,-3.344"
     id="path597" />
  <path
     style="fill:none;stroke:#231f20;stroke-width:0.565977;stroke-linecap:butt;stroke-linejoin:miter;stroke-miterlimit:4;stroke-dasharray:none;stroke-opacity:1"
     d="m 122.51813,117.781 c 0.249,-0.006 0.52,-1.126 1.036,-1.042 0.521,0.083 0.588,0.875 2.229,2 l 0.02,0.011 c 1.224,0.785 1.97,1.963 1.86,3.208 -0.172,2.073 -2.588,3.563 -5.396,3.333 -2.817,-0.229 -4.958,-2.098 -4.797,-4.166 0.163,-1.98 2.396,-3.432 5.048,-3.344 z"
     id="path598" />
  <path
     style="fill:#231f20;fill-opacity:1;fill-rule:nonzero;stroke:none"
     d="m 119.05413,101.062 c -0.489,2.208 -0.885,2.573 -1.828,2.421 -0.641,-0.093 -1.251,0.038 -1.641,-0.009 -1.286,-0.125 -3.411,-0.891 -8.843,-4.609 -1.224,-0.839 -2.964,-2.005 -3.715,-2.428 -1.176,-0.677 0.735,-2.187 1.204,-1.921 1.5,0.822 2.594,1.265 3.172,1.489 0.4,0.156 1.067,0.521 2.692,0.916 2.459,0.595 4.011,0.589 6,1.324 0.923,0.333 1.828,0.005 2.558,0.801 0.745,0.792 0.401,2.016 0.401,2.016"
     id="path599" />
  <path
     style="fill:none;stroke:#231f20;stroke-width:0.565977;stroke-linecap:butt;stroke-linejoin:miter;stroke-miterlimit:4;stroke-dasharray:none;stroke-opacity:1"
     d="m 119.05413,101.062 c -0.489,2.208 -0.885,2.573 -1.828,2.421 -0.641,-0.093 -1.251,0.038 -1.641,-0.009 -1.286,-0.125 -3.411,-0.891 -8.843,-4.609 -1.224,-0.839 -2.964,-2.005 -3.715,-2.428 -1.176,-0.677 0.735,-2.187 1.204,-1.921 1.5,0.822 2.594,1.265 3.172,1.489 0.4,0.156 1.067,0.521 2.692,0.916 2.459,0.595 4.011,0.589 6,1.324 0.923,0.333 1.828,0.005 2.558,0.801 0.745,0.792 0.401,2.016 0.401,2.016 z"
     id="path600" />
  <path
     style="fill:#231f20;fill-opacity:1;fill-rule:nonzero;stroke:#231f20;stroke-width:0.565977;stroke-linecap:round;stroke-linejoin:round;stroke-miterlimit:4;stroke-dasharray:none;stroke-opacity:1"
     d="m 118.72113,102.166 c -0.26,1.391 -2.355,1.912 -2.615,2.131 -3.855,3.208 -4.213,3.338 -7.312,5.572 -4.485,3.234 -8.057,4.756 -10.703996,2.698 -1.781,-1.401 -2.208,-2.984 -1.843,-4.245 0.416,-1.401 2.614,-3.692 5.442996,-3.12 l 1.609,-0.604 c 1.031,-0.531 1.542,-0.791 2.031,-1.093 0.839,-0.536 1.787,-1.052 3.505,-2 3.042,-1.683 6.803,-2.469 6.803,-2.469 0.271,-0.146 0.552,-0.156 0.817,-0.094"
     id="path601" />
  <path
     style="fill:#fab41d;fill-opacity:1;fill-rule:nonzero;stroke:#231f20;stroke-width:0.565977;stroke-linecap:butt;stroke-linejoin:miter;stroke-miterlimit:4;stroke-dasharray:none;stroke-opacity:1"
     d="m 101.58513,105.286 c -2.827996,-0.573 -5.019996,1.735 -5.426996,3.14 -0.369,1.261 0.073,2.844 1.865,4.235 2.087996,1.62 4.749996,1.005 7.978996,-0.927 z"
     id="path602" />
  <path
     style="fill:#231f20;fill-opacity:1;fill-rule:nonzero;stroke:none"
     d="m 109.43413,98.672 c -0.271,0.582 0.276,2.458 0.104,4.057 -0.115,1.078 0.729,3.693 0.532,4.754 -0.183,0.986 -0.172,1.443 0.905,1.839 0.647,0.24 2.032,0.276 2.23,-0.197 0.458,-1.094 0.458,-2.042 0.234,-3.084 -0.26,-1.192 -1.245,-4.354 -1.478,-4.916 -0.59,-1.407 -0.391,-2.115 -0.506,-2.505 -0.234,-0.73 -0.568,-0.812 -1.068,-0.776 -0.958,0.088 -0.953,0.828 -0.953,0.828"
     id="path603" />
  <path
     style="fill:none;stroke:#231f20;stroke-width:0.565977;stroke-linecap:butt;stroke-linejoin:miter;stroke-miterlimit:4;stroke-dasharray:none;stroke-opacity:1"
     d="m 109.43413,98.672 c -0.271,0.582 0.276,2.458 0.104,4.057 -0.115,1.078 0.729,3.693 0.532,4.754 -0.183,0.986 -0.172,1.443 0.905,1.839 0.647,0.24 2.032,0.276 2.23,-0.197 0.458,-1.094 0.458,-2.042 0.234,-3.084 -0.26,-1.192 -1.245,-4.354 -1.478,-4.916 -0.59,-1.407 -0.391,-2.115 -0.506,-2.505 -0.234,-0.73 -0.568,-0.812 -1.068,-0.776 -0.958,0.088 -0.953,0.828 -0.953,0.828 z"
     id="path604" />
  <path
     style="fill:#231f20;fill-opacity:1;fill-rule:nonzero;stroke:none"
     d="m 110.61713,107.895 c -1.251,0.355 -0.355,2.178 -0.194,2.688 0.167,0.52 0.47,2.052 0.548,3.271 0.078,1.224 0.692,2.719 0.854,5.036 0.084,1.219 0.926,2.355 2.693,2.161 1.749,-0.197 2.301,-1.249 1.979,-2.708 -0.318,-1.458 -1.246,-2.698 -1.667,-4.15 -0.432,-1.443 -0.735,-2.964 -0.907,-4.172 -0.202,-1.366 -0.812,-1.964 -1.276,-2.079 -1.15,-0.301 -2.03,-0.047 -2.03,-0.047"
     id="path605" />
  <path
     style="fill:none;stroke:#231f20;stroke-width:0.565977;stroke-linecap:butt;stroke-linejoin:miter;stroke-miterlimit:4;stroke-dasharray:none;stroke-opacity:1"
     d="m 110.61713,107.895 c -1.251,0.355 -0.355,2.178 -0.194,2.688 0.167,0.52 0.47,2.052 0.548,3.271 0.078,1.224 0.692,2.719 0.854,5.036 0.084,1.219 0.926,2.355 2.693,2.161 1.749,-0.197 2.301,-1.249 1.979,-2.708 -0.318,-1.458 -1.246,-2.698 -1.667,-4.15 -0.432,-1.443 -0.735,-2.964 -0.907,-4.172 -0.202,-1.366 -0.812,-1.964 -1.276,-2.079 -1.15,-0.301 -2.03,-0.047 -2.03,-0.047 z"
     id="path606" />
  <path
     style="fill:#231f20;fill-opacity:1;fill-rule:nonzero;stroke:none"
     d="m 105.61713,94.505 c 0.202,0.708 2.13,3.333 2.598,3.907 0.418,0.52 0.818,1.598 1.943,1.322 0.453,-0.089 1.041,-0.568 1.224,-0.822 0.161,-0.214 0.036,-0.522 -0.24,-0.798 -0.452,-0.489 -0.781,-0.448 -1.719,-1.312 0,0 -0.249,-0.172 -0.729,-0.442 -1.395,-0.834 -0.853,-0.339 -2.624,-1.995 -0.12,-0.125 -0.323,-0.079 -0.401,0.004 -0.115,0.147 -0.052,0.136 -0.052,0.136"
     id="path607" />
  <path
     style="fill:none;stroke:#231f20;stroke-width:0.565977;stroke-linecap:round;stroke-linejoin:round;stroke-miterlimit:4;stroke-dasharray:none;stroke-opacity:1"
     d="m 105.61713,94.505 c 0.202,0.708 2.13,3.333 2.598,3.907 0.418,0.52 0.818,1.598 1.943,1.322 0.453,-0.089 1.041,-0.568 1.224,-0.822 0.161,-0.214 0.036,-0.522 -0.24,-0.798 -0.452,-0.489 -0.781,-0.448 -1.719,-1.312 0,0 -0.249,-0.172 -0.729,-0.442 -1.395,-0.834 -0.853,-0.339 -2.624,-1.995 -0.12,-0.125 -0.323,-0.079 -0.401,0.004 -0.115,0.147 -0.052,0.136 -0.052,0.136 z"
     id="path608" />
  <path
     style="fill:#231f20;fill-opacity:1;fill-rule:nonzero;stroke:none"
     d="m 100.60613,94.953 c 0.073,1.349 1.016,1.651 1.975,1.249 0.285,-0.118 0.656,0.079 0.932,-0.057 0.62,-0.328 1.088,-2.004 -0.214,-2.755 -0.089,-0.046 -0.646,-0.656 -1.13,-1.046 -0.948,-0.751 -3.213996,-1.803 -5.739996,-0.85 -1.192,0.443 -0.703,1.074 -0.167,1.042 1.704,-0.119 1.88,0.204 2.344,0.344 1.551996,0.442 1.999996,2.073 1.999996,2.073"
     id="path609" />
  <path
     style="fill:none;stroke:#231f20;stroke-width:0.332927;stroke-linecap:butt;stroke-linejoin:miter;stroke-miterlimit:4;stroke-dasharray:none;stroke-opacity:1"
     d="m 100.60613,94.953 c 0.073,1.349 1.016,1.651 1.975,1.249 0.285,-0.118 0.656,0.079 0.932,-0.057 0.62,-0.328 1.088,-2.004 -0.214,-2.755 -0.089,-0.046 -0.646,-0.656 -1.13,-1.046 -0.948,-0.751 -3.213996,-1.803 -5.739996,-0.85 -1.192,0.443 -0.703,1.074 -0.167,1.042 1.704,-0.119 1.88,0.204 2.344,0.344 1.551996,0.442 1.999996,2.073 1.999996,2.073 z"
     id="path610" />
  <path
     style="fill:#fab41d;fill-opacity:1;fill-rule:nonzero;stroke:none"
     d="m 67.169132,109.655 c -1.521,2.74 -1.552,3.495 -1.645,4.412 -0.606,5.744 -3.412,5.344 -5.636,3.511 -2.62,-2.152 -3.604,-2.876 -0.036,-8.063 0.989,-1.442 4.072,-7.469 4.072,-7.469 0.818,-2.312 2.838,-4.129 4.291,-4.26 1.527,-0.13 0.938,0.031 2.366,0.162 1.374,0.13 3.15,1.406 3.249,2.635 0.093,1.187 -1.265,2.156 -3.041,3.796 -1.402,1.308 -3.62,5.276 -3.62,5.276"
     id="path611" />
  <path
     style="fill:none;stroke:#231f20;stroke-width:0.565977;stroke-linecap:butt;stroke-linejoin:miter;stroke-miterlimit:4;stroke-dasharray:none;stroke-opacity:1"
     d="m 67.169132,109.655 c -1.521,2.74 -1.552,3.495 -1.645,4.412 -0.606,5.744 -3.412,5.344 -5.636,3.511 -2.62,-2.152 -3.604,-2.876 -0.036,-8.063 0.989,-1.442 4.072,-7.469 4.072,-7.469 0.818,-2.312 2.838,-4.129 4.291,-4.26 1.527,-0.13 0.938,0.031 2.366,0.162 1.374,0.13 3.15,1.406 3.249,2.635 0.093,1.187 -1.265,2.156 -3.041,3.796 -1.402,1.308 -3.62,5.276 -3.62,5.276 z"
     id="path612" />
  <path
     style="fill:#ffffff;fill-opacity:1;fill-rule:nonzero;stroke:none"
     d="m 73.481132,90.213 c 0.177,-0.172 -0.406,-1.172 0.032,-1.463 0.432,-0.302 1.03,0.224 2.989,-0.089 l 0.025,-0.005 c 1.428,-0.271 2.778,0.062 3.563002,1.037 1.308,1.619 0.584,4.364 -1.615002,6.14 -2.197,1.776 -5.036,1.896 -6.342,0.287 -1.251,-1.542 -0.636,-4.136 1.348,-5.907"
     id="path613" />
  <path
     style="fill:none;stroke:#231f20;stroke-width:0.565977;stroke-linecap:butt;stroke-linejoin:miter;stroke-miterlimit:4;stroke-dasharray:none;stroke-opacity:1"
     d="m 73.481132,90.213 c 0.177,-0.172 -0.406,-1.172 0.032,-1.463 0.432,-0.302 1.03,0.224 2.989,-0.089 l 0.025,-0.005 c 1.428,-0.271 2.778,0.062 3.563002,1.037 1.308,1.619 0.584,4.364 -1.615002,6.14 -2.197,1.776 -5.036,1.896 -6.342,0.287 -1.251,-1.542 -0.636,-4.136 1.348,-5.907 z"
     id="path614" />
  <path
     style="fill:#231f20;fill-opacity:1;fill-rule:nonzero;stroke:none"
     d="m 51.929132,132.843 c 2.136,0.75 2.453,1.188 2.188,2.104 -0.167,0.62 -0.109,1.24 -0.203,1.626 -0.276,1.26 -1.286,3.276 -5.62,8.229 -0.985,1.119 -2.349,2.719 -2.86,3.405 -0.801,1.09 -2.077,-0.984 -1.765,-1.421 1,-1.396 1.568,-2.427 1.864,-2.979 0.199,-0.376 0.641,-0.996 1.219,-2.562 0.886,-2.366 1.068,-3.918 2.026,-5.803 0.448,-0.869 0.23,-1.812 1.11,-2.443 0.869,-0.645 2.041,-0.156 2.041,-0.156"
     id="path615" />
  <path
     style="fill:none;stroke:#231f20;stroke-width:0.565977;stroke-linecap:butt;stroke-linejoin:miter;stroke-miterlimit:4;stroke-dasharray:none;stroke-opacity:1"
     d="m 51.929132,132.843 c 2.136,0.75 2.453,1.188 2.188,2.104 -0.167,0.62 -0.109,1.24 -0.203,1.626 -0.276,1.26 -1.286,3.276 -5.62,8.229 -0.985,1.119 -2.349,2.719 -2.86,3.405 -0.801,1.09 -2.077,-0.984 -1.765,-1.421 1,-1.396 1.568,-2.427 1.864,-2.979 0.199,-0.376 0.641,-0.996 1.219,-2.562 0.886,-2.366 1.068,-3.918 2.026,-5.803 0.448,-0.869 0.23,-1.812 1.11,-2.443 0.869,-0.645 2.041,-0.156 2.041,-0.156 z"
     id="path616" />
  <path
     style="fill:#231f20;fill-opacity:1;fill-rule:nonzero;stroke:#231f20;stroke-width:0.565977;stroke-linecap:round;stroke-linejoin:round;stroke-miterlimit:4;stroke-dasharray:none;stroke-opacity:1"
     d="m 49.716132,134.021 c -0.604,-1.276 0.776,-2.932 0.865,-3.256 1.219,-4.87 1.432,-5.182 2.624,-8.812 1.719,-5.26 3.709,-8.588 7.057,-8.484 2.266,0.077 3.547,1.104 3.99,2.348 0.49,1.365 0.068,4.521 -2.558,5.718 l -0.946,1.434 c -0.516,1.041 -0.776,1.552 -0.996,2.082 -0.37,0.927 -0.823,1.907 -1.651,3.683 -1.468,3.145 -4.047,6 -4.047,6 -0.14,0.276 -0.354,0.453 -0.604,0.557"
     id="path617" />
  <path
     style="fill:#fab41d;fill-opacity:1;fill-rule:nonzero;stroke:none"
     d="m 64.137132,115.401 c -0.447,-1.24 -1.733,-2.26 -3.995,-2.323 -2.65,-0.084 -4.437,1.984 -5.91,5.448 l 7.369,2.609 c 2.62,-1.209 3.032,-4.36 2.536,-5.734"
     id="path618" />
  <path
     style="fill:none;stroke:#231f20;stroke-width:0.565977;stroke-linecap:butt;stroke-linejoin:miter;stroke-miterlimit:4;stroke-dasharray:none;stroke-opacity:1"
     d="m 64.137132,115.401 c -0.447,-1.24 -1.733,-2.26 -3.995,-2.323 -2.65,-0.084 -4.437,1.984 -5.91,5.448 l 7.369,2.609 c 2.62,-1.209 3.032,-4.36 2.536,-5.734 z"
     id="path619" />
  <path
     style="fill:#231f20;fill-opacity:1;fill-rule:nonzero;stroke:none"
     d="m 44.732132,150.645 c 1.328,-0.26 1.489,-1.244 0.953,-2.13 -0.157,-0.265 -0.011,-0.661 -0.188,-0.906 -0.412,-0.574 -2.136,-0.807 -2.693,0.589 -0.047,0.099 -0.556,0.733 -0.875,1.265 -0.615,1.047 -1.339,3.443 -0.036,5.807 0.609,1.12 1.161,0.547 1.052,0.016 -0.355,-1.667 -0.057,-1.885 0.016,-2.365 0.219,-1.604 1.771,-2.276 1.771,-2.276"
     id="path620" />
  <path
     style="fill:none;stroke:#231f20;stroke-width:0.332927;stroke-linecap:butt;stroke-linejoin:miter;stroke-miterlimit:4;stroke-dasharray:none;stroke-opacity:1"
     d="m 44.732132,150.645 c 1.328,-0.26 1.489,-1.244 0.953,-2.13 -0.157,-0.265 -0.011,-0.661 -0.188,-0.906 -0.412,-0.574 -2.136,-0.807 -2.693,0.589 -0.047,0.099 -0.556,0.733 -0.875,1.265 -0.615,1.047 -1.339,3.443 -0.036,5.807 0.609,1.12 1.161,0.547 1.052,0.016 -0.355,-1.667 -0.057,-1.885 0.016,-2.365 0.219,-1.604 1.771,-2.276 1.771,-2.276 z"
     id="path621" />
  <path
     style="fill:#231f20;fill-opacity:1;fill-rule:nonzero;stroke:none"
     d="m 48.174132,99.677 c 0.531,-0.369 2.468,-0.161 4.011,-0.62 1.036,-0.312 3.76,0.057 4.771,-0.333 0.932,-0.35 1.39,-0.422 1.978,0.573 0.35,0.588 0.636,1.942 0.203,2.218 -0.995,0.656 -1.932,0.818 -3,0.787 -1.213,-0.048 -4.499,-0.448 -5.099,-0.584 -1.489,-0.323 -2.15,0 -2.552,-0.052 -0.754,-0.088 -0.901,-0.401 -0.953,-0.907 -0.088,-0.951 0.641,-1.082 0.641,-1.082"
     id="path622" />
  <path
     style="fill:none;stroke:#231f20;stroke-width:0.565977;stroke-linecap:butt;stroke-linejoin:miter;stroke-miterlimit:4;stroke-dasharray:none;stroke-opacity:1"
     d="m 48.174132,99.677 c 0.531,-0.369 2.468,-0.161 4.011,-0.62 1.036,-0.312 3.76,0.057 4.771,-0.333 0.932,-0.35 1.39,-0.422 1.978,0.573 0.35,0.588 0.636,1.942 0.203,2.218 -0.995,0.656 -1.932,0.818 -3,0.787 -1.213,-0.048 -4.499,-0.448 -5.099,-0.584 -1.489,-0.323 -2.15,0 -2.552,-0.052 -0.754,-0.088 -0.901,-0.401 -0.953,-0.907 -0.088,-0.951 0.641,-1.082 0.641,-1.082 z"
     id="path623" />
  <path
     style="fill:#231f20;fill-opacity:1;fill-rule:nonzero;stroke:none"
     d="m 57.226132,99.338 c 0.099,-1.286 2.068,-0.765 2.604,-0.713 0.536,0.057 2.094,0.047 3.307,-0.12 1.215,-0.167 2.803,0.145 5.105,-0.167 1.219,-0.161 2.495,0.448 2.661,2.213 0.156,1.751 -0.766,2.495 -2.261,2.475 -1.495,-0.021 -2.894,-0.672 -4.4,-0.803 -1.51,-0.134 -3.052,-0.125 -4.266,-0.062 -1.386,0.078 -2.088,-0.402 -2.302,-0.834 -0.521,-1.073 -0.448,-1.989 -0.448,-1.989"
     id="path624" />
  <path
     style="fill:none;stroke:#231f20;stroke-width:0.565977;stroke-linecap:butt;stroke-linejoin:miter;stroke-miterlimit:4;stroke-dasharray:none;stroke-opacity:1"
     d="m 57.226132,99.338 c 0.099,-1.286 2.068,-0.765 2.604,-0.713 0.536,0.057 2.094,0.047 3.307,-0.12 1.215,-0.167 2.803,0.145 5.105,-0.167 1.219,-0.161 2.495,0.448 2.661,2.213 0.156,1.751 -0.766,2.495 -2.261,2.475 -1.495,-0.021 -2.894,-0.672 -4.4,-0.803 -1.51,-0.134 -3.052,-0.125 -4.266,-0.062 -1.386,0.078 -2.088,-0.402 -2.302,-0.834 -0.521,-1.073 -0.448,-1.989 -0.448,-1.989 z"
     id="path625" />
  <path
     style="fill:#231f20;fill-opacity:1;fill-rule:nonzero;stroke:none"
     d="m 41.226132,99.838 c 0.672,-0.27 3.922,-0.364 4.667,-0.36 0.667,0.011 1.765,-0.342 2.255,0.715 0.193,0.416 0.182,1.176 0.094,1.478 -0.068,0.25 -0.381,0.355 -0.781,0.307 -0.657,-0.067 -0.823,-0.343 -2.084,-0.552 0,0 -0.292,-0.093 -0.801,-0.291 -1.522,-0.594 -0.798,-0.474 -3.188,-0.833 -0.178,-0.032 -0.271,-0.218 -0.246,-0.333 0.043,-0.172 0.084,-0.131 0.084,-0.131"
     id="path626" />
  <path
     style="fill:none;stroke:#231f20;stroke-width:0.565977;stroke-linecap:round;stroke-linejoin:round;stroke-miterlimit:4;stroke-dasharray:none;stroke-opacity:1"
     d="m 41.226132,99.838 c 0.672,-0.27 3.922,-0.364 4.667,-0.36 0.667,0.011 1.765,-0.342 2.255,0.715 0.193,0.416 0.182,1.176 0.094,1.478 -0.068,0.25 -0.381,0.355 -0.781,0.307 -0.657,-0.067 -0.823,-0.343 -2.084,-0.552 0,0 -0.292,-0.093 -0.801,-0.291 -1.522,-0.594 -0.798,-0.474 -3.188,-0.833 -0.178,-0.032 -0.271,-0.218 -0.246,-0.333 0.043,-0.172 0.084,-0.131 0.084,-0.131 z"
     id="path627" />
</svg>
