<?xml version="1.0" encoding="UTF-8" standalone="no"?>
<!-- Created with Inkscape (http://www.inkscape.org/) -->

<svg
   version="1.1"
   id="svg1"
   width="321.02374"
   height="126.91711"
   viewBox="0 0 321.02373 126.91711"
   sodipodi:docname="cell.svg"
   xmlns:inkscape="http://www.inkscape.org/namespaces/inkscape"
   xmlns:sodipodi="http://sodipodi.sourceforge.net/DTD/sodipodi-0.dtd"
   xmlns="http://www.w3.org/2000/svg"
   xmlns:svg="http://www.w3.org/2000/svg">
  <sodipodi:namedview
     id="namedview1"
     pagecolor="#ffffff"
     bordercolor="#000000"
     borderopacity="0.25"
     inkscape:showpageshadow="2"
     inkscape:pageopacity="0.0"
     inkscape:pagecheckerboard="0"
     inkscape:deskcolor="#d1d1d1">
    <inkscape:page
       x="0"
       y="0"
       inkscape:label="1"
       id="page1"
       width="321.02374"
       height="126.91711"
       margin="0"
       bleed="0" />
  </sodipodi:namedview>
  <defs
     id="defs1" />
  <path
     style="fill:#231f20;fill-opacity:1;fill-rule:nonzero;stroke:none"
     d="m 65.120288,42.268743 c -0.3801,0.527 -0.2083,2.464 -0.6973,4 -0.3282,1.031 -0.0162,3.755 -0.4267,4.766 -0.3708,0.917 -0.4484,1.38 0.536,1.985 0.5787,0.359 1.9261,0.671 2.2191,0.244 0.666,-0.979 0.849,-1.911 0.838,-2.979 -0.021,-1.218 -0.359,-4.51 -0.478,-5.109 -0.298,-1.495 0.035,-2.152 -0.011,-2.557 -0.073,-0.756 -0.38,-0.912 -0.886,-0.97 -0.9529,-0.104 -1.0941,0.62 -1.0941,0.62"
     id="path240" />
  <path
     style="fill:none;stroke:#231f20;stroke-width:0.565977;stroke-linecap:butt;stroke-linejoin:miter;stroke-miterlimit:4;stroke-dasharray:none;stroke-opacity:1"
     d="m 65.120288,42.268743 c -0.3801,0.527 -0.2083,2.464 -0.6973,4 -0.3282,1.031 -0.0162,3.755 -0.4267,4.766 -0.3708,0.917 -0.4484,1.38 0.536,1.985 0.5787,0.359 1.9261,0.671 2.2191,0.244 0.666,-0.979 0.849,-1.911 0.838,-2.979 -0.021,-1.218 -0.359,-4.51 -0.478,-5.109 -0.298,-1.495 0.035,-2.152 -0.011,-2.557 -0.073,-0.756 -0.38,-0.912 -0.886,-0.97 -0.9529,-0.104 -1.0941,0.62 -1.0941,0.62 z"
     id="path241" />
  <path
     style="fill:#231f20;fill-opacity:1;fill-rule:nonzero;stroke:none"
     d="m 64.610988,51.315743 c -1.2923,0.073 -0.8136,2.047 -0.7667,2.589 0.0479,0.542 0,2.094 -0.1871,3.302 -0.188,1.213 0.0939,2.808 -0.265,5.098 -0.188,1.215 0.4,2.506 2.1614,2.699 1.7438,0.197 2.5148,-0.708 2.5198,-2.203 0.005,-1.501 -0.624,-2.912 -0.724,-4.422 -0.104,-1.506 -0.061,-3.047 0.027,-4.26 0.099,-1.38 -0.36,-2.099 -0.787,-2.318 -1.0623,-0.548 -1.9784,-0.485 -1.9784,-0.485"
     id="path242" />
  <path
     style="fill:none;stroke:#231f20;stroke-width:0.565977;stroke-linecap:butt;stroke-linejoin:miter;stroke-miterlimit:4;stroke-dasharray:none;stroke-opacity:1"
     d="m 64.610988,51.315743 c -1.2923,0.073 -0.8136,2.047 -0.7667,2.589 0.0479,0.542 0,2.094 -0.1871,3.302 -0.188,1.213 0.0939,2.808 -0.265,5.098 -0.188,1.215 0.4,2.506 2.1614,2.699 1.7438,0.197 2.5148,-0.708 2.5198,-2.203 0.005,-1.501 -0.624,-2.912 -0.724,-4.422 -0.104,-1.506 -0.061,-3.047 0.027,-4.26 0.099,-1.38 -0.36,-2.099 -0.787,-2.318 -1.0623,-0.548 -1.9784,-0.485 -1.9784,-0.485 z"
     id="path243" />
  <path
     style="fill:#231f20;fill-opacity:1;fill-rule:nonzero;stroke:none"
     d="m 65.417788,35.326743 c -0.2819,0.666 -0.4428,3.912 -0.4486,4.656 -0.0104,0.666 -0.3744,1.761 0.6615,2.27 0.4227,0.199 1.1777,0.204 1.4807,0.12 0.254,-0.062 0.364,-0.374 0.328,-0.77 -0.058,-0.662 -0.328,-0.834 -0.516,-2.094 0,0 -0.089,-0.297 -0.271,-0.813 -0.568,-1.531 -0.464,-0.801 -0.782,-3.203 -0.021,-0.172 -0.2074,-0.276 -0.3225,-0.245 -0.1771,0.037 -0.1301,0.079 -0.1301,0.079"
     id="path244" />
  <path
     style="fill:none;stroke:#231f20;stroke-width:0.565977;stroke-linecap:round;stroke-linejoin:round;stroke-miterlimit:4;stroke-dasharray:none;stroke-opacity:1"
     d="m 65.417788,35.326743 c -0.2819,0.666 -0.4428,3.912 -0.4486,4.656 -0.0104,0.666 -0.3744,1.761 0.6615,2.27 0.4227,0.199 1.1777,0.204 1.4807,0.12 0.254,-0.062 0.364,-0.374 0.328,-0.77 -0.058,-0.662 -0.328,-0.834 -0.516,-2.094 0,0 -0.089,-0.297 -0.271,-0.813 -0.568,-1.531 -0.464,-0.801 -0.782,-3.203 -0.021,-0.172 -0.2074,-0.276 -0.3225,-0.245 -0.1771,0.037 -0.1301,0.079 -0.1301,0.079 z"
     id="path245" />
  <path
     style="fill:#231f20;fill-opacity:1;fill-rule:nonzero;stroke:none"
     d="m 127.12539,62.632743 c 0.589,-0.249 2.448,0.344 4.048,0.215 1.083,-0.095 3.671,0.817 4.744,0.651 0.98,-0.156 1.443,-0.142 1.813,0.948 0.219,0.65 0.224,2.040999 -0.256,2.223999 -1.104,0.432 -2.046,0.406 -3.088,0.156 -1.182,-0.287 -4.318,-1.349999 -4.876,-1.598999 -1.39,-0.625 -2.104,-0.448 -2.489,-0.573 -0.719,-0.25 -0.801,-0.588 -0.744,-1.083 0.104,-0.959 0.848,-0.939 0.848,-0.939"
     id="path246" />
  <path
     style="fill:none;stroke:#231f20;stroke-width:0.565977;stroke-linecap:butt;stroke-linejoin:miter;stroke-miterlimit:4;stroke-dasharray:none;stroke-opacity:1"
     d="m 127.12539,62.632743 c 0.589,-0.249 2.448,0.344 4.048,0.215 1.083,-0.095 3.671,0.817 4.744,0.651 0.98,-0.156 1.443,-0.142 1.813,0.948 0.219,0.65 0.224,2.040999 -0.256,2.223999 -1.104,0.432 -2.046,0.406 -3.088,0.156 -1.182,-0.287 -4.318,-1.349999 -4.876,-1.598999 -1.39,-0.625 -2.104,-0.448 -2.489,-0.573 -0.719,-0.25 -0.801,-0.588 -0.744,-1.083 0.104,-0.959 0.848,-0.939 0.848,-0.939 z"
     id="path247" />
  <path
     style="fill:#fab41d;fill-opacity:1;fill-rule:nonzero;stroke:none"
     d="m 133.69839,59.274743 c -3.036,0.754 -3.776,0.588 -4.688,0.442 -5.708,-0.912 -6.046,1.907 -4.853,4.527 1.401,3.087999 1.844,4.227999 7.776,2.128999 1.651,-0.581999 8.276,-1.993999 8.276,-1.993999 2.443,-0.192 4.724,-1.672 5.224,-3.036 0.525,-1.443 0.213,-0.912 0.459,-2.328 0.233,-1.366 -0.543,-3.407 -1.704,-3.824 -1.12,-0.4 -2.406,0.662 -4.454,1.953 -1.624,1.016 -6.036,2.131 -6.036,2.131"
     id="path248" />
  <path
     style="fill:none;stroke:#231f20;stroke-width:0.565977;stroke-linecap:butt;stroke-linejoin:miter;stroke-miterlimit:4;stroke-dasharray:none;stroke-opacity:1"
     d="m 133.69839,59.274743 c -3.036,0.754 -3.776,0.588 -4.688,0.442 -5.708,-0.912 -6.046,1.907 -4.853,4.527 1.401,3.087999 1.844,4.227999 7.776,2.128999 1.651,-0.581999 8.276,-1.993999 8.276,-1.993999 2.443,-0.192 4.724,-1.672 5.224,-3.036 0.525,-1.443 0.213,-0.912 0.459,-2.328 0.233,-1.366 -0.543,-3.407 -1.704,-3.824 -1.12,-0.4 -2.406,0.662 -4.454,1.953 -1.624,1.016 -6.036,2.131 -6.036,2.131 z"
     id="path249" />
  <path
     style="fill:#ffffff;fill-opacity:1;fill-rule:nonzero;stroke:none"
     d="m 154.11639,58.222743 c 0.208,-0.131 1.025,0.692 1.421,0.354 0.401,-0.344 0.047,-1.057 0.864,-2.87 l 0.011,-0.02 c 0.63,-1.308 0.656,-2.699 -0.078,-3.715 -1.224,-1.681 -4.062,-1.692 -6.349,-0.036 -2.287,1.661 -3.141,4.375 -1.927,6.052 1.167,1.615 3.828,1.688 6.058,0.235"
     id="path250" />
  <path
     style="fill:none;stroke:#231f20;stroke-width:0.565977;stroke-linecap:butt;stroke-linejoin:miter;stroke-miterlimit:4;stroke-dasharray:none;stroke-opacity:1"
     d="m 154.11639,58.222743 c 0.208,-0.131 1.025,0.692 1.421,0.354 0.401,-0.344 0.047,-1.057 0.864,-2.87 l 0.011,-0.02 c 0.63,-1.308 0.656,-2.699 -0.078,-3.715 -1.224,-1.681 -4.062,-1.692 -6.349,-0.036 -2.287,1.661 -3.141,4.375 -1.927,6.052 1.167,1.615 3.828,1.688 6.058,0.235 z"
     id="path251" />
  <path
     style="fill:#231f20;fill-opacity:1;fill-rule:nonzero;stroke:none"
     d="m 108.70939,71.982742 c -0.688,-2.156 -1.115,-2.484 -2.036,-2.25 -0.625,0.151 -1.251,0.078 -1.631,0.156 -1.27,0.24 -3.317,1.188 -8.401002,5.375 -1.145,0.948 -2.776,2.265 -3.484,2.756 -1.104,0.776 0.927,2.109 1.37,1.807 1.422,-0.959 2.474,-1.495 3.031,-1.771 0.386,-0.188 1.015,-0.615 2.599002,-1.151 2.391,-0.808 3.948,-0.942 5.859,-1.849 0.881,-0.417 1.818,-0.172 2.474,-1.036 0.672,-0.849 0.219,-2.037 0.219,-2.037"
     id="path252" />
  <path
     style="fill:none;stroke:#231f20;stroke-width:0.565977;stroke-linecap:butt;stroke-linejoin:miter;stroke-miterlimit:4;stroke-dasharray:none;stroke-opacity:1"
     d="m 108.70939,71.982742 c -0.688,-2.156 -1.115,-2.484 -2.036,-2.25 -0.625,0.151 -1.251,0.078 -1.631,0.156 -1.27,0.24 -3.317,1.188 -8.401002,5.375 -1.145,0.948 -2.776,2.265 -3.484,2.756 -1.104,0.776 0.927,2.109 1.37,1.807 1.422,-0.959 2.474,-1.495 3.031,-1.771 0.386,-0.188 1.015,-0.615 2.599002,-1.151 2.391,-0.808 3.948,-0.942 5.859,-1.849 0.881,-0.417 1.818,-0.172 2.474,-1.036 0.672,-0.849 0.219,-2.037 0.219,-2.037 z"
     id="path253" />
  <path
     style="fill:#231f20;fill-opacity:1;fill-rule:nonzero;stroke:#231f20;stroke-width:0.565977;stroke-linecap:round;stroke-linejoin:round;stroke-miterlimit:4;stroke-dasharray:none;stroke-opacity:1"
     d="m 107.46439,74.159742 c 1.261,0.645 2.953,-0.688 3.281,-0.765 4.901,-1.074 5.224,-1.282 8.885,-2.366 5.308,-1.557 8.694,-3.448 8.688,-6.800999 -0.01,-2.271 -0.994,-3.573 -2.224,-4.057 -1.354,-0.532 -4.521,-0.199 -5.797,2.385 l -1.457,0.907 c -1.054,0.489 -1.579,0.733 -2.115,0.932 -0.933,0.344 -1.923,0.77 -3.729,1.546 -3.188,1.369999 -6.115,3.863999 -6.115,3.863999 -0.281,0.131 -0.464,0.339 -0.579,0.584"
     id="path254" />
  <path
     style="fill:#fab41d;fill-opacity:1;fill-rule:nonzero;stroke:none"
     d="m 126.50639,60.299743 c -1.365,-0.541 -4.526,-0.219 -5.808,2.365 l 2.386,7.442999 c 3.505,-1.375 5.625,-3.099 5.625,-5.744999 0,-2.266 -0.979,-3.583 -2.203,-4.063"
     id="path255" />
  <path
     style="fill:none;stroke:#231f20;stroke-width:0.565977;stroke-linecap:butt;stroke-linejoin:miter;stroke-miterlimit:4;stroke-dasharray:none;stroke-opacity:1"
     d="m 126.50639,60.299743 c -1.365,-0.541 -4.526,-0.219 -5.808,2.365 l 2.386,7.442999 c 3.505,-1.375 5.625,-3.099 5.625,-5.744999 0,-2.266 -0.979,-3.583 -2.203,-4.063 z"
     id="path256" />
  <path
     style="fill:#231f20;fill-opacity:1;fill-rule:nonzero;stroke:none"
     d="m 135.96939,65.560743 c -0.916,-0.917 0.761,-2.073 1.151,-2.437 0.401,-0.371 1.406,-1.557 2.073,-2.579 0.672,-1.036 1.948,-2.03 3.213,-3.978 0.672,-1.022 1.97,-1.595 3.412,-0.558 1.427,1.02 1.391,2.208 0.396,3.328 -0.994,1.115 -2.401,1.74 -3.489,2.798 -1.084,1.052 -2.089,2.228 -2.828,3.192 -0.849,1.087999 -1.667,1.321999 -2.131,1.192999 -1.156,-0.303 -1.797,-0.958999 -1.797,-0.958999"
     id="path257" />
  <path
     style="fill:none;stroke:#231f20;stroke-width:0.565977;stroke-linecap:butt;stroke-linejoin:miter;stroke-miterlimit:4;stroke-dasharray:none;stroke-opacity:1"
     d="m 135.96939,65.560743 c -0.916,-0.917 0.761,-2.073 1.151,-2.437 0.401,-0.371 1.406,-1.557 2.073,-2.579 0.672,-1.036 1.948,-2.03 3.213,-3.978 0.672,-1.022 1.97,-1.595 3.412,-0.558 1.427,1.02 1.391,2.208 0.396,3.328 -0.994,1.115 -2.401,1.74 -3.489,2.798 -1.084,1.052 -2.089,2.228 -2.828,3.192 -0.849,1.087999 -1.667,1.321999 -2.131,1.192999 -1.156,-0.303 -1.797,-0.958999 -1.797,-0.958999 z"
     id="path258" />
  <path
     style="fill:#231f20;fill-opacity:1;fill-rule:nonzero;stroke:none"
     d="m 90.698388,78.654742 c 0.303,-1.318 1.292,-1.454 2.162,-0.896 0.26,0.166 0.656,0.037 0.901,0.218 0.557,0.428 0.74,2.158 -0.672,2.678 -0.099,0.036 -0.749,0.532 -1.292,0.838 -1.063,0.579 -3.479,1.23 -5.807,-0.14 -1.098,-0.641 -0.51,-1.177 0.016,-1.057 1.662,0.411 1.886,0.119 2.37,0.057 1.609,-0.166 2.322,-1.698 2.322,-1.698"
     id="path259" />
  <path
     style="fill:none;stroke:#231f20;stroke-width:0.332927;stroke-linecap:butt;stroke-linejoin:miter;stroke-miterlimit:4;stroke-dasharray:none;stroke-opacity:1"
     d="m 90.698388,78.654742 c 0.303,-1.318 1.292,-1.454 2.162,-0.896 0.26,0.166 0.656,0.037 0.901,0.218 0.557,0.428 0.74,2.158 -0.672,2.678 -0.099,0.036 -0.749,0.532 -1.292,0.838 -1.063,0.579 -3.479,1.23 -5.807,-0.14 -1.098,-0.641 -0.51,-1.177 0.016,-1.057 1.662,0.411 1.886,0.119 2.37,0.057 1.609,-0.166 2.322,-1.698 2.322,-1.698 z"
     id="path260" />
  <path
     style="fill:#231f20;fill-opacity:1;fill-rule:nonzero;stroke:none"
     d="m 250.56739,52.456743 c -0.604,0.427 -2.452,3.104 -2.837,3.734 -0.355,0.562 -1.245,1.297 -0.615,2.272 0.228,0.394 0.88,0.801 1.182,0.89 0.25,0.072 0.494,-0.141 0.672,-0.485 0.313,-0.599 0.166,-0.891 0.677,-2.057 0,0 0.079,-0.296 0.177,-0.834 0.334,-1.598 0.042,-0.926 1.036,-3.134 0.068,-0.156 -0.036,-0.339 -0.14,-0.38 -0.177,-0.063 -0.152,-0.006 -0.152,-0.006"
     id="path261" />
  <path
     style="fill:none;stroke:#231f20;stroke-width:0.565977;stroke-linecap:round;stroke-linejoin:round;stroke-miterlimit:4;stroke-dasharray:none;stroke-opacity:1"
     d="m 250.56739,52.456743 c -0.604,0.427 -2.452,3.104 -2.837,3.734 -0.355,0.562 -1.245,1.297 -0.615,2.272 0.228,0.394 0.88,0.801 1.182,0.89 0.25,0.072 0.494,-0.141 0.672,-0.485 0.313,-0.599 0.166,-0.891 0.677,-2.057 0,0 0.079,-0.296 0.177,-0.834 0.334,-1.598 0.042,-0.926 1.036,-3.134 0.068,-0.156 -0.036,-0.339 -0.14,-0.38 -0.177,-0.063 -0.152,-0.006 -0.152,-0.006 z"
     id="path262" />
  <path
     style="fill:#231f20;fill-opacity:1;fill-rule:nonzero;stroke:none"
     d="m 243.80239,65.580743 c -0.749,-1.046 -2.167,0.418 -2.593,0.745999 -0.432,0.333 -1.766,1.13 -2.891,1.62 -1.12,0.494 -2.308,1.577 -4.443,2.516 -1.12,0.484 -1.896,1.676 -1.114,3.27 0.776,1.578 1.953,1.739 3.218,0.938 1.266,-0.803 2.115,-2.084 3.334,-2.98 1.218,-0.89 2.546,-1.692 3.614,-2.271 1.214,-0.656 1.574,-1.432 1.531,-1.905 -0.115,-1.194 -0.656,-1.933999 -0.656,-1.933999"
     id="path263" />
  <path
     style="fill:none;stroke:#231f20;stroke-width:0.565977;stroke-linecap:butt;stroke-linejoin:miter;stroke-miterlimit:4;stroke-dasharray:none;stroke-opacity:1"
     d="m 243.80239,65.580743 c -0.749,-1.046 -2.167,0.418 -2.593,0.745999 -0.432,0.333 -1.766,1.13 -2.891,1.62 -1.12,0.494 -2.308,1.577 -4.443,2.516 -1.12,0.484 -1.896,1.676 -1.114,3.27 0.776,1.578 1.953,1.739 3.218,0.938 1.266,-0.803 2.115,-2.084 3.334,-2.98 1.218,-0.89 2.546,-1.692 3.614,-2.271 1.214,-0.656 1.574,-1.432 1.531,-1.905 -0.115,-1.194 -0.656,-1.933999 -0.656,-1.933999 z"
     id="path264" />
  <path
     style="fill:#231f20;fill-opacity:1;fill-rule:nonzero;stroke:none"
     d="m 248.56339,58.747743 c 0.088,0.641 -0.985,2.261 -1.286,3.844 -0.204,1.063 -1.771,3.319 -1.891,4.395999 -0.115,0.989 -0.267,1.427 -1.412,1.495 -0.683,0.037 -2.02,-0.328 -2.068,-0.844 -0.124,-1.176 0.152,-2.082999 0.677,-3.014999 0.59,-1.063 2.459,-3.797 2.844,-4.276 0.979,-1.167 0.995,-1.901 1.224,-2.24 0.427,-0.631 0.776,-0.615 1.24,-0.432 0.886,0.364 0.672,1.072 0.672,1.072"
     id="path265" />
  <path
     style="fill:none;stroke:#231f20;stroke-width:0.565977;stroke-linecap:butt;stroke-linejoin:miter;stroke-miterlimit:4;stroke-dasharray:none;stroke-opacity:1"
     d="m 248.56339,58.747743 c 0.088,0.641 -0.985,2.261 -1.286,3.844 -0.204,1.063 -1.771,3.319 -1.891,4.395999 -0.115,0.989 -0.267,1.427 -1.412,1.495 -0.683,0.037 -2.02,-0.328 -2.068,-0.844 -0.124,-1.176 0.152,-2.082999 0.677,-3.014999 0.59,-1.063 2.459,-3.797 2.844,-4.276 0.979,-1.167 0.995,-1.901 1.224,-2.24 0.427,-0.631 0.776,-0.615 1.24,-0.432 0.886,0.364 0.672,1.072 0.672,1.072 z"
     id="path266" />
  <path
     style="fill:#231f20;fill-opacity:1;fill-rule:nonzero;stroke:none"
     d="m 253.78239,57.722743 c -0.709,0.202 -3.948,-0.027 -4.688,-0.115 -0.661,-0.079 -1.792,0.156 -2.161,-0.937 -0.162,-0.432 -0.068,-1.188 0.046,-1.48 0.099,-0.244 0.422,-0.307 0.803,-0.224 0.656,0.13 0.796,0.428 2.025,0.756 0,0 0.287,0.125 0.766,0.385 1.453,0.735 0.745,0.541 3.094,1.151 0.167,0.041 0.239,0.234 0.208,0.338 -0.062,0.183 -0.093,0.126 -0.093,0.126"
     id="path267" />
  <path
     style="fill:none;stroke:#231f20;stroke-width:0.565977;stroke-linecap:round;stroke-linejoin:round;stroke-miterlimit:4;stroke-dasharray:none;stroke-opacity:1"
     d="m 253.78239,57.722743 c -0.709,0.202 -3.948,-0.027 -4.688,-0.115 -0.661,-0.079 -1.792,0.156 -2.161,-0.937 -0.162,-0.432 -0.068,-1.188 0.046,-1.48 0.099,-0.244 0.422,-0.307 0.803,-0.224 0.656,0.13 0.796,0.428 2.025,0.756 0,0 0.287,0.125 0.766,0.385 1.453,0.735 0.745,0.541 3.094,1.151 0.167,0.041 0.239,0.234 0.208,0.338 -0.062,0.183 -0.093,0.126 -0.093,0.126 z"
     id="path268" />
  <path
     style="fill:#231f20;fill-opacity:1;fill-rule:nonzero;stroke:none"
     d="m 238.96339,55.795743 c 0.527,1.181 -1.453,1.661 -1.957,1.859 -0.5,0.208 -1.865,0.953 -2.855,1.677 -0.994,0.708 -2.536,1.188 -4.421,2.552 -0.991,0.713 -2.407,0.781 -3.387,-0.703 -0.962,-1.464 -0.504,-2.557 0.824,-3.245 1.334,-0.688 2.87,-0.765 4.26,-1.364 1.386,-0.6 2.75,-1.333 3.787,-1.964 1.183,-0.719 2.031,-0.631 2.421,-0.355 0.97,0.699 1.328,1.543 1.328,1.543"
     id="path269" />
  <path
     style="fill:none;stroke:#231f20;stroke-width:0.565977;stroke-linecap:butt;stroke-linejoin:miter;stroke-miterlimit:4;stroke-dasharray:none;stroke-opacity:1"
     d="m 238.96339,55.795743 c 0.527,1.181 -1.453,1.661 -1.957,1.859 -0.5,0.208 -1.865,0.953 -2.855,1.677 -0.994,0.708 -2.536,1.188 -4.421,2.552 -0.991,0.713 -2.407,0.781 -3.387,-0.703 -0.962,-1.464 -0.504,-2.557 0.824,-3.245 1.334,-0.688 2.87,-0.765 4.26,-1.364 1.386,-0.6 2.75,-1.333 3.787,-1.964 1.183,-0.719 2.031,-0.631 2.421,-0.355 0.97,0.699 1.328,1.543 1.328,1.543 z"
     id="path270" />
  <path
     style="fill:#231f20;fill-opacity:1;fill-rule:nonzero;stroke:none"
     d="m 247.24539,54.992743 c -0.542,-0.354 -2.468,-0.082 -4.026,-0.489 -1.052,-0.276 -3.756,0.172 -4.786,-0.188 -0.938,-0.317 -1.396,-0.375 -1.954,0.636 -0.328,0.599 -0.573,1.963 -0.13,2.229 1.016,0.62 1.948,0.755 3.016,0.687 1.213,-0.077 4.484,-0.588 5.084,-0.739 1.473,-0.37 2.145,-0.068 2.546,-0.13 0.755,-0.115 0.891,-0.438 0.922,-0.938 0.057,-0.953 -0.672,-1.068 -0.672,-1.068"
     id="path271" />
  <path
     style="fill:none;stroke:#231f20;stroke-width:0.565977;stroke-linecap:butt;stroke-linejoin:miter;stroke-miterlimit:4;stroke-dasharray:none;stroke-opacity:1"
     d="m 247.24539,54.992743 c -0.542,-0.354 -2.468,-0.082 -4.026,-0.489 -1.052,-0.276 -3.756,0.172 -4.786,-0.188 -0.938,-0.317 -1.396,-0.375 -1.954,0.636 -0.328,0.599 -0.573,1.963 -0.13,2.229 1.016,0.62 1.948,0.755 3.016,0.687 1.213,-0.077 4.484,-0.588 5.084,-0.739 1.473,-0.37 2.145,-0.068 2.546,-0.13 0.755,-0.115 0.891,-0.438 0.922,-0.938 0.057,-0.953 -0.672,-1.068 -0.672,-1.068 z"
     id="path272" />
  <path
     style="fill:#231f20;fill-opacity:1;fill-rule:nonzero;stroke:none"
     d="m 282.31339,33.867743 c -0.667,-0.072 -1.527,1.511 -3.375,2.193 -0.38,0.14 -0.62,0.432 -0.901,0.678 -1.131,0.989 -1.615,2.514 2.197,2.156 0.527,-0.058 2.349,-1.104 3.131,-1.115 1.865,-0.027 4.078,-2.505 3.781,-2.932 -0.631,-0.923 -4.833,-0.98 -4.833,-0.98"
     id="path273" />
  <path
     style="fill:none;stroke:#231f20;stroke-width:0.644548;stroke-linecap:round;stroke-linejoin:round;stroke-miterlimit:4;stroke-dasharray:none;stroke-opacity:1"
     d="m 282.31339,33.867743 c -0.667,-0.072 -1.527,1.511 -3.375,2.193 -0.38,0.14 -0.62,0.432 -0.901,0.678 -1.131,0.989 -1.615,2.514 2.197,2.156 0.527,-0.058 2.349,-1.104 3.131,-1.115 1.865,-0.027 4.078,-2.505 3.781,-2.932 -0.631,-0.923 -4.833,-0.98 -4.833,-0.98 z"
     id="path274" />
  <path
     style="fill:#231f20;fill-opacity:1;fill-rule:nonzero;stroke:none"
     d="m 283.88139,39.732743 c -0.323,0.578 -2.115,0.364 -3.746,1.468 -0.333,0.224 -0.708,0.251 -1.068,0.334 -1.473,0.349 -2.994,-0.146 -0.478,-3.031 0.349,-0.401 2.26,-1.271 2.724,-1.907 1.104,-1.5 4.406,-1.858 4.588,-1.369 0.386,1.052 -2.02,4.505 -2.02,4.505"
     id="path275" />
  <path
     style="fill:none;stroke:#231f20;stroke-width:0.644548;stroke-linecap:round;stroke-linejoin:round;stroke-miterlimit:4;stroke-dasharray:none;stroke-opacity:1"
     d="m 283.88139,39.732743 c -0.323,0.578 -2.115,0.364 -3.746,1.468 -0.333,0.224 -0.708,0.251 -1.068,0.334 -1.473,0.349 -2.994,-0.146 -0.478,-3.031 0.349,-0.401 2.26,-1.271 2.724,-1.907 1.104,-1.5 4.406,-1.858 4.588,-1.369 0.386,1.052 -2.02,4.505 -2.02,4.505 z"
     id="path276" />
  <path
     style="fill:#231f20;fill-opacity:1;fill-rule:nonzero;stroke:none"
     d="m 245.47439,61.790743 c 2.24,2.822 3.328,1.541 7.047,-0.136 4.068,-1.834 8.109,-4.178 10.36,-6.599 2.516,-2.699 2.994,-2.489 2.374,-4.308 -0.614,-1.812 -1.358,-1.583 -2.582,-1.984 -1.418,-0.464 -6.694,4.661 -11.095,6.459 -2.063,0.838 -7.547,1.521 -7.323,2.958 0.219,1.438 1.219,3.61 1.219,3.61"
     id="path277" />
  <path
     style="fill:none;stroke:#231f20;stroke-width:0.565977;stroke-linecap:butt;stroke-linejoin:miter;stroke-miterlimit:4;stroke-dasharray:none;stroke-opacity:1"
     d="m 245.47439,61.790743 c 2.24,2.822 3.328,1.541 7.047,-0.136 4.068,-1.834 8.109,-4.178 10.36,-6.599 2.516,-2.699 2.994,-2.489 2.374,-4.308 -0.614,-1.812 -1.358,-1.583 -2.582,-1.984 -1.418,-0.464 -6.694,4.661 -11.095,6.459 -2.063,0.838 -7.547,1.521 -7.323,2.958 0.219,1.438 1.219,3.61 1.219,3.61 z"
     id="path278" />
  <path
     style="fill:#231f20;fill-opacity:1;fill-rule:nonzero;stroke:none"
     d="m 263.00139,50.836743 c 0.968,2.052 1.224,2.662 3.286,1.244 0.526,-0.358 1.916,-1.462 2.286,-1.588 1.229,-0.416 2.614,-1.005 7.104,-5.822 0.693,-0.756 2.261,-1.954 3.302,-2.891 1.006,-0.917 -1.188,-1.964 -1.582,-1.615 -1.287,1.135 -2.36,1.588 -2.882,1.932 -0.353,0.24 -0.942,0.792 -2.505,1.355 -4.031,1.432 -4.588,3.145 -5.405,3.52 -2.355,1.068 -4.579,1.505 -4.542,2.172 0.067,1.079 0.938,1.693 0.938,1.693"
     id="path279" />
  <path
     style="fill:none;stroke:#231f20;stroke-width:0.565977;stroke-linecap:butt;stroke-linejoin:miter;stroke-miterlimit:4;stroke-dasharray:none;stroke-opacity:1"
     d="m 263.00139,50.836743 c 0.968,2.052 1.224,2.662 3.286,1.244 0.526,-0.358 1.916,-1.462 2.286,-1.588 1.229,-0.416 2.614,-1.005 7.104,-5.822 0.693,-0.756 2.261,-1.954 3.302,-2.891 1.006,-0.917 -1.188,-1.964 -1.582,-1.615 -1.287,1.135 -2.36,1.588 -2.882,1.932 -0.353,0.24 -0.942,0.792 -2.505,1.355 -4.031,1.432 -4.588,3.145 -5.405,3.52 -2.355,1.068 -4.579,1.505 -4.542,2.172 0.067,1.079 0.938,1.693 0.938,1.693 z"
     id="path280" />
  <path
     style="fill:#231f20;fill-opacity:1;fill-rule:nonzero;stroke:none"
     d="m 242.57339,56.555743 c -1.339,-3.344 0.313,-3.656 3.614,-6.052 3.61,-2.625 7.652,-4.969 10.866,-5.724 3.588,-0.844 3.65,-1.365 4.921,0.073 1.271,1.438 0.703,1.968 0.443,3.228 -0.302,1.464 -7.37,3.5 -11.11,6.434 -1.754,1.374 -5.068,5.796 -6.208,4.89 -1.13,-0.906 -2.526,-2.849 -2.526,-2.849"
     id="path281" />
  <path
     style="fill:none;stroke:#231f20;stroke-width:0.565977;stroke-linecap:butt;stroke-linejoin:miter;stroke-miterlimit:4;stroke-dasharray:none;stroke-opacity:1"
     d="m 242.57339,56.555743 c -1.339,-3.344 0.313,-3.656 3.614,-6.052 3.61,-2.625 7.652,-4.969 10.866,-5.724 3.588,-0.844 3.65,-1.365 4.921,0.073 1.271,1.438 0.703,1.968 0.443,3.228 -0.302,1.464 -7.37,3.5 -11.11,6.434 -1.754,1.374 -5.068,5.796 -6.208,4.89 -1.13,-0.906 -2.526,-2.849 -2.526,-2.849 z"
     id="path282" />
  <path
     style="fill:#fab41d;fill-opacity:1;fill-rule:nonzero;stroke:none"
     d="m 251.16239,55.044743 c -0.251,-0.426 -0.928,-0.74 -0.928,-0.74 0,0 -5.375,2.287 -8.041,0.678 l -0.192,-0.302 c 0.296,-1.213 -0.803,0.938 -1.448,1.291 -2.85,1.573 -7.787,2.871 -9.12,2.885 -1.828,0.011 -3.292,-2.052 -4.396,-0.186 0,0 -1.563,1.536 0.145,3.77 0.615,0.807 1.095,3.083 1.095,3.083 l 0.005,0.005 c 0.02,0.251 0.129,1.381999 0.661,2.261999 0.604,1 1.682,1.806 1.682,1.806 0,0 1.729,1.558 2.12,2.495 1.078,2.599 2.985,2.208 2.985,2.208 2.167,-0.025 1.323,-2.509 2.249,-4.088 0.683,-1.151 4.276,-4.764999 7.063,-6.447999 0.635,-0.38 3.047,-0.249 1.844,-0.604 l -0.167,-0.323 c -0.052,-3.109 4.62,-6.62 4.62,-6.62 0,0 0.067,-0.74 -0.177,-1.172"
     id="path283" />
  <path
     style="fill:none;stroke:#231f20;stroke-width:0.565977;stroke-linecap:butt;stroke-linejoin:miter;stroke-miterlimit:4;stroke-dasharray:none;stroke-opacity:1"
     d="m 251.16239,55.044743 c -0.251,-0.426 -0.928,-0.74 -0.928,-0.74 0,0 -5.375,2.287 -8.041,0.678 l -0.192,-0.302 c 0.296,-1.213 -0.803,0.938 -1.448,1.291 -2.85,1.573 -7.787,2.871 -9.12,2.885 -1.828,0.011 -3.292,-2.052 -4.396,-0.186 0,0 -1.563,1.536 0.145,3.77 0.615,0.807 1.095,3.083 1.095,3.083 l 0.005,0.005 c 0.02,0.251 0.129,1.381999 0.661,2.261999 0.604,1 1.682,1.806 1.682,1.806 0,0 1.729,1.558 2.12,2.495 1.078,2.599 2.985,2.208 2.985,2.208 2.167,-0.025 1.323,-2.509 2.249,-4.088 0.683,-1.151 4.276,-4.764999 7.063,-6.447999 0.635,-0.38 3.047,-0.249 1.844,-0.604 l -0.167,-0.323 c -0.052,-3.109 4.62,-6.62 4.62,-6.62 0,0 0.067,-0.74 -0.177,-1.172 z"
     id="path284" />
  <path
     style="fill:#231f20;fill-opacity:1;fill-rule:nonzero;stroke:none"
     d="m 222.83439,67.060742 c 2.443,-1.416999 5.265,-1.103999 6.307,0.692 1.041,1.792 -0.094,4.396 -2.542,5.814 -2.442,1.421 -5.265,1.109 -6.308,-0.688 -1.041,-1.798 0.095,-4.402 2.543,-5.818"
     id="path285" />
  <path
     style="fill:none;stroke:#231f20;stroke-width:0.565977;stroke-linecap:butt;stroke-linejoin:miter;stroke-miterlimit:4;stroke-dasharray:none;stroke-opacity:1"
     d="m 222.83439,67.060742 c 2.443,-1.416999 5.265,-1.103999 6.307,0.692 1.041,1.792 -0.094,4.396 -2.542,5.814 -2.442,1.421 -5.265,1.109 -6.308,-0.688 -1.041,-1.798 0.095,-4.402 2.543,-5.818 z"
     id="path286" />
  <path
     style="fill:#231f20;fill-opacity:1;fill-rule:nonzero;stroke:none"
     d="m 260.75039,46.752743 c -1.287,-1.864 -1.687,-2.39 0.573,-3.468 0.574,-0.276 2.23,-0.922 2.52,-1.182 0.975,-0.855 2.178,-1.766 8.6,-3.224 0.995,-0.23 2.818,-0.99 4.156,-1.422 1.292,-0.412 1.104,2.015 0.599,2.182 -1.625,0.548 -2.552,1.25 -3.109,1.521 -0.386,0.188 -1.162,0.421 -2.427,1.495 -3.261,2.776 -5.021,2.396 -5.756,2.922 -2.104,1.495 -3.599,3.208 -4.156,2.838 -0.901,-0.594 -1,-1.662 -1,-1.662"
     id="path287" />
  <path
     style="fill:none;stroke:#231f20;stroke-width:0.565977;stroke-linecap:butt;stroke-linejoin:miter;stroke-miterlimit:4;stroke-dasharray:none;stroke-opacity:1"
     d="m 260.75039,46.752743 c -1.287,-1.864 -1.687,-2.39 0.573,-3.468 0.574,-0.276 2.23,-0.922 2.52,-1.182 0.975,-0.855 2.178,-1.766 8.6,-3.224 0.995,-0.23 2.818,-0.99 4.156,-1.422 1.292,-0.412 1.104,2.015 0.599,2.182 -1.625,0.548 -2.552,1.25 -3.109,1.521 -0.386,0.188 -1.162,0.421 -2.427,1.495 -3.261,2.776 -5.021,2.396 -5.756,2.922 -2.104,1.495 -3.599,3.208 -4.156,2.838 -0.901,-0.594 -1,-1.662 -1,-1.662 z"
     id="path288" />
  <path
     style="fill:#fab41d;fill-opacity:1;fill-rule:nonzero;stroke:none"
     d="m 241.29739,55.112743 c 0.141,-0.317 0.86,-1.48 1.146,-1.849 1.844,-2.323 5.307,-4.219 6.255,-5.077 0.943,-0.86 4.183,4.88 4.183,4.88 l -0.678,1.301 c 0.599,0.172 0.094,0.161 0.094,0.161 l 1.609,0.158 c 0,0 3.448,5.473 2.505,5.837 -1.301,0.516 -5.348,2.756 -7.776,3.079 -1.333,0.172 -2.301,-0.162 -2.301,-0.162 0,0 -0.885,-3.697 -1.6,-4.937 -0.708,-1.235 -3.437,-3.391 -3.437,-3.391"
     id="path289" />
  <path
     style="fill:none;stroke:#231f20;stroke-width:0.565977;stroke-linecap:butt;stroke-linejoin:miter;stroke-miterlimit:4;stroke-dasharray:none;stroke-opacity:1"
     d="m 241.29739,55.112743 c 0.141,-0.317 0.86,-1.48 1.146,-1.849 1.844,-2.323 5.307,-4.219 6.255,-5.077 0.943,-0.86 4.183,4.88 4.183,4.88 l -0.678,1.301 c 0.599,0.172 0.094,0.161 0.094,0.161 l 1.609,0.158 c 0,0 3.448,5.473 2.505,5.837 -1.301,0.516 -5.348,2.756 -7.776,3.079 -1.333,0.172 -2.301,-0.162 -2.301,-0.162 0,0 -0.885,-3.697 -1.6,-4.937 -0.708,-1.235 -3.437,-3.391 -3.437,-3.391 z"
     id="path290" />
  <path
     style="fill:none;stroke:#231f20;stroke-width:0.565977;stroke-linecap:round;stroke-linejoin:round;stroke-miterlimit:4;stroke-dasharray:none;stroke-opacity:1"
     d="m 250.27139,51.894743 c 1.724,0.52 1.864,2.682 1.864,2.682 1.423,1.162 1.495,2.76 1.495,2.76"
     id="path291" />
  <path
     style="fill:#ffffff;fill-opacity:1;fill-rule:nonzero;stroke:none"
     d="m 316.41639,62.795743 c 0.036,-0.24 1.172,-0.381 1.151,-0.901 -0.031,-0.527 -0.796,-0.688 -1.733,-2.448 l -0.011,-0.016 c -0.636,-1.312 -1.719,-2.183 -2.975,-2.224 -2.072,-0.068 -3.833,2.161 -3.926,4.984 -0.094,2.824 1.51,5.165999 3.584,5.239999 1.989,0.068 3.686,-1.978999 3.91,-4.634999"
     id="path292" />
  <path
     style="fill:none;stroke:#231f20;stroke-width:0.565977;stroke-linecap:butt;stroke-linejoin:miter;stroke-miterlimit:4;stroke-dasharray:none;stroke-opacity:1"
     d="m 316.41639,62.795743 c 0.036,-0.24 1.172,-0.381 1.151,-0.901 -0.031,-0.527 -0.796,-0.688 -1.733,-2.448 l -0.011,-0.016 c -0.636,-1.312 -1.719,-2.183 -2.975,-2.224 -2.072,-0.068 -3.833,2.161 -3.926,4.984 -0.094,2.824 1.51,5.165999 3.584,5.239999 1.989,0.068 3.686,-1.978999 3.91,-4.634999 z"
     id="path293" />
  <path
     style="fill:#fab41d;fill-opacity:1;fill-rule:nonzero;stroke:none"
     d="m 311.91639,80.826742 c 0.09,3.136 -0.24,3.812 -0.577,4.672 -2.131,5.374 0.552,6.317 3.375,5.718 3.312,-0.702 4.516,-0.88 3.749,-7.136 -0.208,-1.733 -0.161,-8.509 -0.161,-8.509 0.349,-2.423 -0.61,-4.969 -1.834,-5.756 -1.292,-0.828 -0.838,-0.405 -2.177,-0.953 -1.276,-0.52 -3.437,-0.208 -4.093,0.838 -0.635,1.006 0.125,2.49 0.937,4.776 0.647,1.798 0.781,6.35 0.781,6.35"
     id="path294" />
  <path
     style="fill:none;stroke:#231f20;stroke-width:0.565977;stroke-linecap:butt;stroke-linejoin:miter;stroke-miterlimit:4;stroke-dasharray:none;stroke-opacity:1"
     d="m 311.91639,80.826742 c 0.09,3.136 -0.24,3.812 -0.577,4.672 -2.131,5.374 0.552,6.317 3.375,5.718 3.312,-0.702 4.516,-0.88 3.749,-7.136 -0.208,-1.733 -0.161,-8.509 -0.161,-8.509 0.349,-2.423 -0.61,-4.969 -1.834,-5.756 -1.292,-0.828 -0.838,-0.405 -2.177,-0.953 -1.276,-0.52 -3.437,-0.208 -4.093,0.838 -0.635,1.006 0.125,2.49 0.937,4.776 0.647,1.798 0.781,6.35 0.781,6.35 z"
     id="path295" />
  <path
     style="fill:#231f20;fill-opacity:1;fill-rule:nonzero;stroke:none"
     d="m 303.67239,52.815743 c 0.578,0.287 1.323,2.084 2.463,3.224 0.771,0.761 1.756,3.323 2.579,4.027 0.754,0.645 1.041,1.014 0.448,2.01 -0.35,0.583 -1.402,1.484 -1.855,1.239 -1.047,-0.557 -1.64,-1.301 -2.125,-2.255 -0.542,-1.089 -1.76,-4.161 -1.932,-4.75 -0.427,-1.463 -1.031,-1.891 -1.178,-2.271 -0.281,-0.703 -0.082,-0.984 0.339,-1.271 0.797,-0.53 1.261,0.047 1.261,0.047"
     id="path296" />
  <path
     style="fill:none;stroke:#231f20;stroke-width:0.565977;stroke-linecap:butt;stroke-linejoin:miter;stroke-miterlimit:4;stroke-dasharray:none;stroke-opacity:1"
     d="m 303.67239,52.815743 c 0.578,0.287 1.323,2.084 2.463,3.224 0.771,0.761 1.756,3.323 2.579,4.027 0.754,0.645 1.041,1.014 0.448,2.01 -0.35,0.583 -1.402,1.484 -1.855,1.239 -1.047,-0.557 -1.64,-1.301 -2.125,-2.255 -0.542,-1.089 -1.76,-4.161 -1.932,-4.75 -0.427,-1.463 -1.031,-1.891 -1.178,-2.271 -0.281,-0.703 -0.082,-0.984 0.339,-1.271 0.797,-0.53 1.261,0.047 1.261,0.047 z"
     id="path297" />
  <path
     style="fill:#231f20;fill-opacity:1;fill-rule:nonzero;stroke:none"
     d="m 308.30239,60.596743 c 1.177,-0.53 1.666,1.448 1.88,1.948 0.204,0.495 0.964,1.855 1.688,2.844 0.729,0.983999 1.213,2.525999 2.593,4.395999 0.724,0.99 0.803,2.406 -0.672,3.391 -1.457,0.979 -2.557,0.531 -3.249,-0.792 -0.699,-1.323 -0.798,-2.864 -1.407,-4.249 -0.604,-1.387 -1.353,-2.734999 -1.989,-3.766999 -0.73,-1.181 -0.651,-2.031 -0.37,-2.421 0.687,-0.975 1.526,-1.35 1.526,-1.35"
     id="path298" />
  <path
     style="fill:none;stroke:#231f20;stroke-width:0.565977;stroke-linecap:butt;stroke-linejoin:miter;stroke-miterlimit:4;stroke-dasharray:none;stroke-opacity:1"
     d="m 308.30239,60.596743 c 1.177,-0.53 1.666,1.448 1.88,1.948 0.204,0.495 0.964,1.855 1.688,2.844 0.729,0.983999 1.213,2.525999 2.593,4.395999 0.724,0.99 0.803,2.406 -0.672,3.391 -1.457,0.979 -2.557,0.531 -3.249,-0.792 -0.699,-1.323 -0.798,-2.864 -1.407,-4.249 -0.604,-1.387 -1.353,-2.734999 -1.989,-3.766999 -0.73,-1.181 -0.651,-2.031 -0.37,-2.421 0.687,-0.975 1.526,-1.35 1.526,-1.35 z"
     id="path299" />
  <path
     style="fill:#231f20;fill-opacity:1;fill-rule:nonzero;stroke:none"
     d="m 300.19839,46.795743 c 0.557,0.457 2.202,3.265 2.552,3.921 0.313,0.588 1.146,1.386 0.458,2.318 -0.281,0.376 -0.948,0.724 -1.26,0.792 -0.25,0.062 -0.49,-0.162 -0.641,-0.536 -0.255,-0.61 -0.093,-0.886 -0.516,-2.09 0,0 -0.057,-0.306 -0.129,-0.848 -0.204,-1.62 0.036,-0.922 -0.787,-3.198 -0.063,-0.167 0.057,-0.344 0.172,-0.37 0.172,-0.046 0.151,0.011 0.151,0.011"
     id="path300" />
  <path
     style="fill:none;stroke:#231f20;stroke-width:0.565977;stroke-linecap:round;stroke-linejoin:round;stroke-miterlimit:4;stroke-dasharray:none;stroke-opacity:1"
     d="m 300.19839,46.795743 c 0.557,0.457 2.202,3.265 2.552,3.921 0.313,0.588 1.146,1.386 0.458,2.318 -0.281,0.376 -0.948,0.724 -1.26,0.792 -0.25,0.062 -0.49,-0.162 -0.641,-0.536 -0.255,-0.61 -0.093,-0.886 -0.516,-2.09 0,0 -0.057,-0.306 -0.129,-0.848 -0.204,-1.62 0.036,-0.922 -0.787,-3.198 -0.063,-0.167 0.057,-0.344 0.172,-0.37 0.172,-0.046 0.151,0.011 0.151,0.011 z"
     id="path301" />
  <path
     style="fill:#231f20;fill-opacity:1;fill-rule:nonzero;stroke:none"
     d="m 314.35439,106.52874 c -2.23,-0.394 -2.719,-0.172 -2.954,0.756 -0.15,0.62 -0.504,1.146 -0.618,1.516 -0.371,1.244 -0.48,3.484 0.864,9.932 0.302,1.463 0.718,3.52 0.822,4.37 0.162,1.349 2.287,0.166 2.23,-0.364 -0.183,-1.704 -0.172,-2.891 -0.156,-3.516 0.01,-0.427 -0.068,-1.183 0.188,-2.828 0.394,-2.5 1,-3.938 1.088,-6.047 0.036,-0.98 0.692,-1.693 0.24,-2.677 -0.454,-0.99 -1.704,-1.142 -1.704,-1.142"
     id="path302" />
  <path
     style="fill:none;stroke:#231f20;stroke-width:0.565977;stroke-linecap:butt;stroke-linejoin:miter;stroke-miterlimit:4;stroke-dasharray:none;stroke-opacity:1"
     d="m 314.35439,106.52874 c -2.23,-0.394 -2.719,-0.172 -2.954,0.756 -0.15,0.62 -0.504,1.146 -0.618,1.516 -0.371,1.244 -0.48,3.484 0.864,9.932 0.302,1.463 0.718,3.52 0.822,4.37 0.162,1.349 2.287,0.166 2.23,-0.364 -0.183,-1.704 -0.172,-2.891 -0.156,-3.516 0.01,-0.427 -0.068,-1.183 0.188,-2.828 0.394,-2.5 1,-3.938 1.088,-6.047 0.036,-0.98 0.692,-1.693 0.24,-2.677 -0.454,-0.99 -1.704,-1.142 -1.704,-1.142 z"
     id="path303" />
  <path
     style="fill:#231f20;fill-opacity:1;fill-rule:nonzero;stroke:#231f20;stroke-width:0.565977;stroke-linecap:round;stroke-linejoin:miter;stroke-miterlimit:4;stroke-dasharray:none;stroke-opacity:1"
     d="m 315.80239,108.56074 c 1.026,-0.874 0.661,-2.865 0.75,-3.182 1.318,-4.834 1.291,-5.214 2.036,-8.963998 1.079,-5.422 0.984,-9.296 -1.984,-10.843 -2.016,-1.057 -3.636,-0.787 -4.63,0.077 -1.104,0.954 -2.276,3.907 -0.583,6.24 l 0.129,1.708 c -0.068,1.162 -0.088,1.74 -0.166,2.308 -0.13,0.995 -0.208,2.067 -0.359,4.02 -0.271,3.453998 0.577,7.209998 0.577,7.209998 -0.014,0.312 0.09,0.566 0.251,0.78"
     id="path304" />
  <path
     style="fill:#fab41d;fill-opacity:1;fill-rule:nonzero;stroke:none"
     d="m 318.98439,88.914742 c -0.338,-1.515 -1.073,-2.667 -2.38,-3.343 -2.016,-1.057 -3.636,-0.787 -4.63,0.077 -1.104,0.954 -2.276,3.907 -0.583,6.24 l 7.708,1.318 c 0.068,-0.656 0.093,-1.26 0.104,-1.85 0.027,-0.072 0.052,-0.15 0.088,-0.213 0.376,-0.708 0.136,-1.287 -0.307,-2.229"
     id="path305" />
  <path
     style="fill:none;stroke:#231f20;stroke-width:0.565977;stroke-linecap:round;stroke-linejoin:round;stroke-miterlimit:4;stroke-dasharray:none;stroke-opacity:1"
     d="m 318.98439,88.914742 c -0.338,-1.515 -1.073,-2.667 -2.38,-3.343 -2.016,-1.057 -3.636,-0.787 -4.63,0.077 -1.104,0.954 -2.276,3.907 -0.583,6.24 l 7.708,1.318 c 0.068,-0.656 0.093,-1.26 0.104,-1.85 0.027,-0.072 0.052,-0.15 0.088,-0.213 0.376,-0.708 0.136,-1.287 -0.307,-2.229 z"
     id="path306" />
  <path
     style="fill:#231f20;fill-opacity:1;fill-rule:nonzero;stroke:none"
     d="m 312.74439,126.33674 c -1.082,-0.062 -0.817,-1.286 -0.577,-2.489 0.057,-0.303 0.088,-0.595 0.172,-0.885 0.333,-1.178 1.156,-1.834 3.104,0.437 0.072,0.083 1.911,1.271 2.484,1.52 2.745,1.167 2.973,0.355 2.745,1.167 -0.152,0.542 -0.662,0.552 -1.286,0.546 -0.855,-0.004 -3.871,-0.28 -4.334,-0.29 -0.448,-0.011 -2.308,-0.006 -2.308,-0.006"
     id="path307" />
  <path
     style="fill:none;stroke:#231f20;stroke-width:0.565977;stroke-linecap:butt;stroke-linejoin:miter;stroke-miterlimit:4;stroke-dasharray:none;stroke-opacity:1"
     d="m 312.74439,126.33674 c -1.082,-0.062 -0.817,-1.286 -0.577,-2.489 0.057,-0.303 0.088,-0.595 0.172,-0.885 0.333,-1.178 1.156,-1.834 3.104,0.437 0.072,0.083 1.911,1.271 2.484,1.52 2.745,1.167 2.973,0.355 2.745,1.167 -0.152,0.542 -0.662,0.552 -1.286,0.546 -0.855,-0.004 -3.871,-0.28 -4.334,-0.29 -0.448,-0.011 -2.308,-0.006 -2.308,-0.006 z"
     id="path309" />
  <path
     style="fill:#ffffff;fill-opacity:1;fill-rule:nonzero;stroke:none"
     d="m 65.463988,54.028743 c -0.0104,-0.244 -1.1238,-0.514 -1.0358,-1.03 0.088,-0.522 0.8692,-0.588 2.0052,-2.23 l 0.011,-0.016 c 0.786,-1.229 1.957,-1.968 3.208,-1.858 2.073,0.166 3.562,2.588 3.328,5.405 -0.235,2.813 -2.104,4.953 -4.172,4.787 -1.985,-0.167 -3.4272,-2.396 -3.3444,-5.058"
     id="path311" />
  <path
     style="fill:none;stroke:#231f20;stroke-width:0.565977;stroke-linecap:butt;stroke-linejoin:miter;stroke-miterlimit:4;stroke-dasharray:none;stroke-opacity:1"
     d="m 65.463988,54.028743 c -0.0104,-0.244 -1.1238,-0.514 -1.0358,-1.03 0.088,-0.522 0.8692,-0.588 2.0052,-2.23 l 0.011,-0.016 c 0.786,-1.229 1.957,-1.968 3.208,-1.858 2.073,0.166 3.562,2.588 3.328,5.405 -0.235,2.813 -2.104,4.953 -4.172,4.787 -1.985,-0.167 -3.4272,-2.396 -3.3444,-5.058 z"
     id="path312" />
  <path
     style="fill:#fab41d;fill-opacity:1;fill-rule:nonzero;stroke:none"
     d="m 67.840388,72.456742 c -0.448,3.104 -0.205,3.818 0.03,4.708 1.49,5.588 -1.281,6.214 -4.01,5.292 -3.2136,-1.084 -4.3912,-1.401 -2.9016,-7.521 0.412,-1.703 1.147,-8.437 1.147,-8.437 -0.0631,-2.442999 1.1822,-4.865999 2.489,-5.499999 1.3806,-0.672 0.8854,-0.308 2.2756,-0.699 1.329,-0.369 3.438,0.199 3.97,1.308 0.509,1.073 -0.417,2.464 -1.491,4.635999 -0.843,1.713 -1.509,6.213 -1.509,6.213"
     id="path313" />
  <path
     style="fill:none;stroke:#231f20;stroke-width:0.565977;stroke-linecap:butt;stroke-linejoin:miter;stroke-miterlimit:4;stroke-dasharray:none;stroke-opacity:1"
     d="m 67.840388,72.456742 c -0.448,3.104 -0.205,3.818 0.03,4.708 1.49,5.588 -1.281,6.214 -4.01,5.292 -3.2136,-1.084 -4.3912,-1.401 -2.9016,-7.521 0.412,-1.703 1.147,-8.437 1.147,-8.437 -0.0631,-2.442999 1.1822,-4.865999 2.489,-5.499999 1.3806,-0.672 0.8854,-0.308 2.2756,-0.699 1.329,-0.369 3.438,0.199 3.97,1.308 0.509,1.073 -0.417,2.464 -1.491,4.635999 -0.843,1.713 -1.509,6.213 -1.509,6.213 z"
     id="path314" />
  <path
     style="fill:#231f20;fill-opacity:1;fill-rule:nonzero;stroke:none"
     d="m 79.282388,45.596743 c -0.605,0.219 -1.557,1.918 -2.824,2.912 -0.853,0.667 -2.124,3.099 -3.03,3.703 -0.817,0.552 -1.146,0.891 -0.672,1.943 0.276,0.625 1.219,1.641 1.693,1.453 1.104,-0.437 1.781,-1.104 2.374,-2 0.662,-1.016 2.235,-3.927 2.474,-4.489 0.59,-1.407 1.24,-1.762 1.428,-2.12 0.364,-0.667 0.198,-0.97 -0.188,-1.303 -0.729,-0.619 -1.255,-0.099 -1.255,-0.099"
     id="path315" />
  <path
     style="fill:none;stroke:#231f20;stroke-width:0.565977;stroke-linecap:butt;stroke-linejoin:miter;stroke-miterlimit:4;stroke-dasharray:none;stroke-opacity:1"
     d="m 79.282388,45.596743 c -0.605,0.219 -1.557,1.918 -2.824,2.912 -0.853,0.667 -2.124,3.099 -3.03,3.703 -0.817,0.552 -1.146,0.891 -0.672,1.943 0.276,0.625 1.219,1.641 1.693,1.453 1.104,-0.437 1.781,-1.104 2.374,-2 0.662,-1.016 2.235,-3.927 2.474,-4.489 0.59,-1.407 1.24,-1.762 1.428,-2.12 0.364,-0.667 0.198,-0.97 -0.188,-1.303 -0.729,-0.619 -1.255,-0.099 -1.255,-0.099 z"
     id="path316" />
  <path
     style="fill:#231f20;fill-opacity:1;fill-rule:nonzero;stroke:none"
     d="m 73.777388,52.790743 c -1.109,-0.667 -1.823,1.238 -2.089,1.708 -0.265,0.473 -1.177,1.734 -2.011,2.636 -0.837,0.889 -1.5,2.364 -3.083,4.061 -0.833,0.901 -1.0782,2.297 0.271,3.448 1.334,1.141 2.479,0.824 3.323,-0.411 0.844,-1.234 1.12,-2.75 1.885,-4.057 0.767,-1.308 1.661,-2.557 2.417,-3.511 0.859,-1.088 0.88,-1.942 0.651,-2.36 -0.573,-1.046 -1.364,-1.514 -1.364,-1.514"
     id="path317" />
  <path
     style="fill:none;stroke:#231f20;stroke-width:0.565977;stroke-linecap:butt;stroke-linejoin:miter;stroke-miterlimit:4;stroke-dasharray:none;stroke-opacity:1"
     d="m 73.777388,52.790743 c -1.109,-0.667 -1.823,1.238 -2.089,1.708 -0.265,0.473 -1.177,1.734 -2.011,2.636 -0.837,0.889 -1.5,2.364 -3.083,4.061 -0.833,0.901 -1.0782,2.297 0.271,3.448 1.334,1.141 2.479,0.824 3.323,-0.411 0.844,-1.234 1.12,-2.75 1.885,-4.057 0.767,-1.308 1.661,-2.557 2.417,-3.511 0.859,-1.088 0.88,-1.942 0.651,-2.36 -0.573,-1.046 -1.364,-1.514 -1.364,-1.514 z"
     id="path318" />
  <path
     style="fill:#231f20;fill-opacity:1;fill-rule:nonzero;stroke:none"
     d="m 83.433388,40.019743 c -0.61,0.391 -2.568,2.989 -2.989,3.599 -0.386,0.546 -1.303,1.244 -0.73,2.249 0.235,0.401 0.859,0.828 1.156,0.933 0.246,0.088 0.511,-0.105 0.703,-0.458 0.328,-0.579 0.193,-0.871 0.756,-2.016 0,0 0.088,-0.298 0.224,-0.828 0.396,-1.584 0.072,-0.922 1.161,-3.084 0.078,-0.156 -0.021,-0.348 -0.136,-0.391 -0.161,-0.067 -0.145,-0.004 -0.145,-0.004"
     id="path319" />
  <path
     style="fill:none;stroke:#231f20;stroke-width:0.565977;stroke-linecap:round;stroke-linejoin:round;stroke-miterlimit:4;stroke-dasharray:none;stroke-opacity:1"
     d="m 83.433388,40.019743 c -0.61,0.391 -2.568,2.989 -2.989,3.599 -0.386,0.546 -1.303,1.244 -0.73,2.249 0.235,0.401 0.859,0.828 1.156,0.933 0.246,0.088 0.511,-0.105 0.703,-0.458 0.328,-0.579 0.193,-0.871 0.756,-2.016 0,0 0.088,-0.298 0.224,-0.828 0.396,-1.584 0.072,-0.922 1.161,-3.084 0.078,-0.156 -0.021,-0.348 -0.136,-0.391 -0.161,-0.067 -0.145,-0.004 -0.145,-0.004 z"
     id="path320" />
  <path
     style="fill:#231f20;fill-opacity:1;fill-rule:nonzero;stroke:none"
     d="m 62.433388,97.706742 c 2.2604,-0.135 2.7238,0.146 2.8442,1.094 0.0828,0.63 0.3692,1.192 0.4368,1.577998 0.23,1.276 0.078,3.516 -2.005,9.765 -0.4746,1.412 -1.125,3.412 -1.3224,4.24 -0.3188,1.323 -2.2974,-0.099 -2.1776,-0.615 0.3802,-1.672 0.5109,-2.858 0.5682,-3.473 0.0359,-0.433 0.2026,-1.172 0.1402,-2.839 -0.1043,-2.521 -0.5418,-4.021 -0.3803,-6.125 0.0735,-0.979 -0.4896,-1.764998 0.0735,-2.687998 0.5625,-0.932 1.8224,-0.937 1.8224,-0.937"
     id="path321" />
  <path
     style="fill:none;stroke:#231f20;stroke-width:0.565977;stroke-linecap:butt;stroke-linejoin:miter;stroke-miterlimit:4;stroke-dasharray:none;stroke-opacity:1"
     d="m 62.433388,97.706742 c 2.2604,-0.135 2.7238,0.146 2.8442,1.094 0.0828,0.63 0.3692,1.192 0.4368,1.577998 0.23,1.276 0.078,3.516 -2.005,9.765 -0.4746,1.412 -1.125,3.412 -1.3224,4.24 -0.3188,1.323 -2.2974,-0.099 -2.1776,-0.615 0.3802,-1.672 0.5109,-2.858 0.5682,-3.473 0.0359,-0.433 0.2026,-1.172 0.1402,-2.839 -0.1043,-2.521 -0.5418,-4.021 -0.3803,-6.125 0.0735,-0.979 -0.4896,-1.764998 0.0735,-2.687998 0.5625,-0.932 1.8224,-0.937 1.8224,-0.937 z"
     id="path322" />
  <path
     style="fill:#231f20;fill-opacity:1;fill-rule:nonzero;stroke:#231f20;stroke-width:0.565977;stroke-linecap:round;stroke-linejoin:miter;stroke-miterlimit:4;stroke-dasharray:none;stroke-opacity:1"
     d="m 60.761488,99.555742 c -0.9172,-0.989 -0.3281,-2.923 -0.3745,-3.251 -0.7511,-4.952 -0.6776,-5.328 -0.9802,-9.14 -0.448,-5.505 0.1,-9.349 3.2291,-10.536 2.1256,-0.813 3.6985,-0.36 4.5845,0.615 0.989,1.072 1.812,4.14 -0.147,6.265 l -0.322,1.682 c -0.074,1.162 -0.121,1.734 -0.105,2.313 0.022,1 -0.03,2.073 -0.104,4.031 -0.136,3.464 -1.4169,7.094 -1.4169,7.094 -0.0197,0.307 -0.1505,0.558 -0.3385,0.744"
     id="path323" />
  <path
     style="fill:#fab41d;fill-opacity:1;fill-rule:nonzero;stroke:none"
     d="m 67.220388,77.243742 c -0.886,-0.975 -2.4589,-1.428 -4.5845,-0.615 -1.3796,0.52 -2.2437,1.578 -2.7547,3.047 -0.5464,0.88 -0.8541,1.427 -0.5625,2.177 0.0215,0.067 0.0417,0.14 0.0625,0.219 -0.0625,0.583 -0.1036,1.192 -0.1088,1.853 l 7.806,-0.416 c 1.954,-2.12 1.131,-5.193 0.142,-6.265"
     id="path324" />
  <path
     style="fill:none;stroke:#231f20;stroke-width:0.565977;stroke-linecap:round;stroke-linejoin:round;stroke-miterlimit:4;stroke-dasharray:none;stroke-opacity:1"
     d="m 67.220388,77.243742 c -0.886,-0.975 -2.4589,-1.428 -4.5845,-0.615 -1.3796,0.52 -2.2437,1.578 -2.7547,3.047 -0.5464,0.88 -0.8541,1.427 -0.5625,2.177 0.0215,0.067 0.0417,0.14 0.0625,0.219 -0.0625,0.583 -0.1036,1.192 -0.1088,1.853 l 7.806,-0.416 c 1.954,-2.12 1.131,-5.193 0.142,-6.265 z"
     id="path325" />
  <path
     style="fill:#231f20;fill-opacity:1;fill-rule:nonzero;stroke:none"
     d="m 63.958788,115.84274 c 0.7866,-0.746 -0.2025,-1.511 -1.1666,-2.276 -0.2386,-0.188 -0.4479,-0.391 -0.6974,-0.563 -1.0213,-0.683 -2.0677,-0.651 -2.0933,2.344 0,0.109 -0.6411,2.203 -0.9171,2.76 -1.339,2.661 -2.0365,2.192 -1.339,2.661 0.464,0.318 0.8604,-0.005 1.3333,-0.412 0.652,-0.556 2.776,-2.708 3.1203,-3.02 0.3385,-0.297 1.7598,-1.494 1.7598,-1.494"
     id="path326" />
  <path
     style="fill:none;stroke:#231f20;stroke-width:0.565977;stroke-linecap:butt;stroke-linejoin:miter;stroke-miterlimit:4;stroke-dasharray:none;stroke-opacity:1"
     d="m 63.958788,115.84274 c 0.7866,-0.746 -0.2025,-1.511 -1.1666,-2.276 -0.2386,-0.188 -0.4479,-0.391 -0.6974,-0.563 -1.0213,-0.683 -2.0677,-0.651 -2.0933,2.344 0,0.109 -0.6411,2.203 -0.9171,2.76 -1.339,2.661 -2.0365,2.192 -1.339,2.661 0.464,0.318 0.8604,-0.005 1.3333,-0.412 0.652,-0.556 2.776,-2.708 3.1203,-3.02 0.3385,-0.297 1.7598,-1.494 1.7598,-1.494 z"
     id="path327" />
  <path
     style="fill:#231f20;fill-opacity:1;fill-rule:nonzero;stroke:#231f20;stroke-width:0.565977;stroke-linecap:round;stroke-linejoin:round;stroke-miterlimit:4;stroke-dasharray:none;stroke-opacity:1"
     d="m 193.03739,62.571743 c 0,0 1.306,0.167 2.396,-0.251 1.082,-0.416 2.073,-1.338 2.073,-1.338 l -1.12,-3.099 -4.505,1.625 z"
     id="path328" />
  <path
     style="fill:#231f20;fill-opacity:1;fill-rule:nonzero;stroke:none"
     d="m 192.64139,44.914743 c 3.145,-1.75 2.057,-3.036 1.005,-6.979 -1.145,-4.312 -2.803,-8.683 -4.817,-11.292 -2.256,-2.921 -1.975,-3.359 -3.866,-3.041 -1.896,0.312 -1.79,1.084 -2.385,2.224 -0.681,1.328 3.516,7.364 4.573,11.994 0.495,2.172 0.276,7.694 1.73,7.708 1.453,0.016 3.76,-0.614 3.76,-0.614"
     id="path329" />
  <path
     style="fill:none;stroke:#231f20;stroke-width:0.565977;stroke-linecap:butt;stroke-linejoin:miter;stroke-miterlimit:4;stroke-dasharray:none;stroke-opacity:1"
     d="m 192.64139,44.914743 c 3.145,-1.75 2.057,-3.036 1.005,-6.979 -1.145,-4.312 -2.803,-8.683 -4.817,-11.292 -2.256,-2.921 -1.975,-3.359 -3.866,-3.041 -1.896,0.312 -1.79,1.084 -2.385,2.224 -0.681,1.328 3.516,7.364 4.573,11.994 0.495,2.172 0.276,7.694 1.73,7.708 1.453,0.016 3.76,-0.614 3.76,-0.614 z"
     id="path330" />
  <path
     style="fill:#231f20;fill-opacity:1;fill-rule:nonzero;stroke:none"
     d="m 184.68739,25.836743 c 2.178,-0.62 2.819,-0.77 1.756,-3.041 -0.266,-0.573 -1.13,-2.125 -1.193,-2.511 -0.208,-1.275 -0.568,-2.75 -4.599,-7.953 -0.62,-0.808 -1.552,-2.5519997 -2.312,-3.7339997 -0.734,-1.14 -2.13,0.854 -1.849,1.308 0.916,1.4479997 1.187,2.5819997 1.443,3.1499997 0.177,0.386 0.63,1.058 0.921,2.692 0.761,4.215 2.36,5.043 2.599,5.912 0.672,2.489 0.74,4.76 1.401,4.828 1.079,0.109 1.833,-0.651 1.833,-0.651"
     id="path331" />
  <path
     style="fill:none;stroke:#231f20;stroke-width:0.565977;stroke-linecap:butt;stroke-linejoin:miter;stroke-miterlimit:4;stroke-dasharray:none;stroke-opacity:1"
     d="m 184.68739,25.836743 c 2.178,-0.62 2.819,-0.77 1.756,-3.041 -0.266,-0.573 -1.13,-2.125 -1.193,-2.511 -0.208,-1.275 -0.568,-2.75 -4.599,-7.953 -0.62,-0.808 -1.552,-2.5519997 -2.312,-3.7339997 -0.734,-1.14 -2.13,0.854 -1.849,1.308 0.916,1.4479997 1.187,2.5819997 1.443,3.1499997 0.177,0.386 0.63,1.058 0.921,2.692 0.761,4.215 2.36,5.043 2.599,5.912 0.672,2.489 0.74,4.76 1.401,4.828 1.079,0.109 1.833,-0.651 1.833,-0.651 z"
     id="path332" />
  <path
     style="fill:#231f20;fill-opacity:1;fill-rule:nonzero;stroke:none"
     d="m 186.70939,46.842743 c -3.511,0.817 -3.568,-0.86 -5.448,-4.486 -2.047,-3.957 -3.766,-8.306 -4.031,-11.598 -0.292,-3.672 -0.797,-3.807 0.812,-4.848 1.609,-1.043 2.052,-0.402 3.26,0.041 1.401,0.52 2.355,7.812 4.693,11.948 1.094,1.943 4.968,5.88 3.906,6.869 -1.062,0.984 -3.192,2.074 -3.192,2.074"
     id="path333" />
  <path
     style="fill:none;stroke:#231f20;stroke-width:0.565977;stroke-linecap:butt;stroke-linejoin:miter;stroke-miterlimit:4;stroke-dasharray:none;stroke-opacity:1"
     d="m 186.70939,46.842743 c -3.511,0.817 -3.568,-0.86 -5.448,-4.486 -2.047,-3.957 -3.766,-8.306 -4.031,-11.598 -0.292,-3.672 -0.797,-3.807 0.812,-4.848 1.609,-1.043 2.052,-0.402 3.26,0.041 1.401,0.52 2.355,7.812 4.693,11.948 1.094,1.943 4.968,5.88 3.906,6.869 -1.062,0.984 -3.192,2.074 -3.192,2.074 z"
     id="path334" />
  <path
     style="fill:#fab41d;fill-opacity:1;fill-rule:nonzero;stroke:none"
     d="m 186.78239,38.216743 c 0.463,-0.166 1.181,0.031 1.181,0.031 0,0 2.636,5.215 5.71,5.709 l 0.342,-0.109 c 0.558,-1.12 0.011,1.229 0.276,1.916 1.162,3.041 4.095,7.219 5.11,8.089 1.39,1.192 3.985,0.796 3.63,2.932 0,0 0.047,1.943 -2.697,2.552 -0.991,0.219 -2.828,1.646 -2.828,1.646 -0.005,-0.042 -0.011,-0.083 -0.027,-0.126 -0.421,-1.176 -1.677,-1.478 -2.937,-1.046 l 0.068,-0.026 c -1.245,0.474 -1.989,1.568 -1.584,2.687 0.011,0.037 0.032,0.073 0.057,0.109 0,0 -2.322,0.079 -3.229,0.538 -2.5,1.292 -3.739,-0.511 -3.739,-0.511 -1.641,-1.417 0.651,-2.495 0.952,-4.303 0.224,-1.317 -0.186,-6.4 -1.238,-9.478 -0.24,-0.703 -2.162,-2.156 -1.016,-1.656 l 0.333,-0.136 c 2.047,-2.339 0.745,-8.036 0.745,-8.036 0,0 0.422,-0.615 0.891,-0.782"
     id="path335" />
  <path
     style="fill:none;stroke:#231f20;stroke-width:0.565977;stroke-linecap:butt;stroke-linejoin:miter;stroke-miterlimit:4;stroke-dasharray:none;stroke-opacity:1"
     d="m 186.78239,38.216743 c 0.463,-0.166 1.181,0.031 1.181,0.031 0,0 2.636,5.215 5.71,5.709 l 0.342,-0.109 c 0.558,-1.12 0.011,1.229 0.276,1.916 1.162,3.041 4.095,7.219 5.11,8.089 1.39,1.192 3.985,0.796 3.63,2.932 0,0 0.047,1.943 -2.697,2.552 -0.991,0.219 -2.828,1.646 -2.828,1.646 -0.005,-0.042 -0.011,-0.083 -0.027,-0.126 -0.421,-1.176 -1.677,-1.478 -2.937,-1.046 l 0.068,-0.026 c -1.245,0.474 -1.989,1.568 -1.584,2.687 0.011,0.037 0.032,0.073 0.057,0.109 0,0 -2.322,0.079 -3.229,0.538 -2.5,1.292 -3.739,-0.511 -3.739,-0.511 -1.641,-1.417 0.651,-2.495 0.952,-4.303 0.224,-1.317 -0.186,-6.4 -1.238,-9.478 -0.24,-0.703 -2.162,-2.156 -1.016,-1.656 l 0.333,-0.136 c 2.047,-2.339 0.745,-8.036 0.745,-8.036 0,0 0.422,-0.615 0.891,-0.782 z"
     id="path336" />
  <path
     style="fill:#ffffff;fill-opacity:1;fill-rule:nonzero;stroke:none"
     d="m 200.44939,64.971743 c -1.052,-2.615 -3.475,-4.109 -5.396,-3.333 -1.928,0.776 -2.636,3.532 -1.579,6.145999 1.057,2.626 3.475,4.115 5.396,3.339 1.927,-0.776 2.636,-3.527 1.579,-6.151999"
     id="path337" />
  <path
     style="fill:none;stroke:#231f20;stroke-width:0.565977;stroke-linecap:butt;stroke-linejoin:miter;stroke-miterlimit:4;stroke-dasharray:none;stroke-opacity:1"
     d="m 200.44939,64.971743 c -1.052,-2.615 -3.475,-4.109 -5.396,-3.333 -1.928,0.776 -2.636,3.532 -1.579,6.145999 1.057,2.626 3.475,4.115 5.396,3.339 1.927,-0.776 2.636,-3.527 1.579,-6.151999 z"
     id="path338" />
  <path
     style="fill:#231f20;fill-opacity:1;fill-rule:nonzero;stroke:none"
     d="m 179.73439,27.399743 c -2.031,0.995 -2.615,1.312 -3.337,-1.084 -0.188,-0.609 -0.579,-2.344 -0.792,-2.672 -0.704,-1.088 -1.418,-2.416 -1.902,-8.984 -0.073,-1.021 -0.552,-2.932 -0.776,-4.322 -0.218,-1.3439997 2.156,-0.7919997 2.246,-0.266 0.29,1.687 0.848,2.708 1.036,3.307 0.13,0.407 0.24,1.208 1.114,2.62 2.255,3.64 1.615,5.322 2.026,6.13 1.161,2.302 2.63,4.036 2.188,4.531 -0.73,0.803 -1.803,0.74 -1.803,0.74"
     id="path339" />
  <path
     style="fill:none;stroke:#231f20;stroke-width:0.565977;stroke-linecap:butt;stroke-linejoin:miter;stroke-miterlimit:4;stroke-dasharray:none;stroke-opacity:1"
     d="m 179.73439,27.399743 c -2.031,0.995 -2.615,1.312 -3.337,-1.084 -0.188,-0.609 -0.579,-2.344 -0.792,-2.672 -0.704,-1.088 -1.418,-2.416 -1.902,-8.984 -0.073,-1.021 -0.552,-2.932 -0.776,-4.322 -0.218,-1.3439997 2.156,-0.7919997 2.246,-0.266 0.29,1.687 0.848,2.708 1.036,3.307 0.13,0.407 0.24,1.208 1.114,2.62 2.255,3.64 1.615,5.322 2.026,6.13 1.161,2.302 2.63,4.036 2.188,4.531 -0.73,0.803 -1.803,0.74 -1.803,0.74 z"
     id="path340" />
  <path
     style="fill:#fab41d;fill-opacity:1;fill-rule:nonzero;stroke:none"
     d="m 185.11539,47.940743 c -0.286,-0.193 -1.308,-1.109 -1.614,-1.453 -1.97,-2.224 -3.23,-5.968 -3.912,-7.047 -0.678,-1.078 5.546,-3.265 5.546,-3.265 l 1.09,1.62 c 0.276,-0.557 0.926,-0.344 0.926,-0.344 l -0.245,-2 c 0,0 5.991,-2.432 6.188,-1.443 0.281,1.37 1.771,5.75 1.661,8.192 -0.057,1.344 -0.557,2.24 -0.557,2.24 0,0 -3.797,0.219 -5.14,0.708 -1.339,0.484 -3.943,2.792 -3.943,2.792"
     id="path341" />
  <path
     style="fill:none;stroke:#231f20;stroke-width:0.565977;stroke-linecap:butt;stroke-linejoin:miter;stroke-miterlimit:4;stroke-dasharray:none;stroke-opacity:1"
     d="m 185.11539,47.940743 c -0.286,-0.193 -1.308,-1.109 -1.614,-1.453 -1.97,-2.224 -3.23,-5.968 -3.912,-7.047 -0.678,-1.078 5.546,-3.265 5.546,-3.265 l 1.09,1.62 c 0.276,-0.557 0.926,-0.344 0.926,-0.344 l -0.245,-2 c 0,0 5.991,-2.432 6.188,-1.443 0.281,1.37 1.771,5.75 1.661,8.192 -0.057,1.344 -0.557,2.24 -0.557,2.24 0,0 -3.797,0.219 -5.14,0.708 -1.339,0.484 -3.943,2.792 -3.943,2.792 z"
     id="path342" />
  <path
     style="fill:#231f20;fill-opacity:1;fill-rule:nonzero;stroke:none"
     d="m 170.62539,4.8837433 c -0.203,0.636 1.182,1.792 1.485,3.74 0.063,0.396 0.301,0.687 0.484,1.01 0.749,1.3129997 2.151,2.0839997 2.547,-1.723 0.052,-0.532 -0.615,-2.521 -0.474,-3.292 0.343,-1.828 -1.657,-4.48899996 -2.13,-4.28099996 -1.031,0.437 -1.912,4.54599996 -1.912,4.54599996"
     id="path343" />
  <path
     style="fill:none;stroke:#231f20;stroke-width:0.644548;stroke-linecap:round;stroke-linejoin:round;stroke-miterlimit:4;stroke-dasharray:none;stroke-opacity:1"
     d="m 170.62539,4.8837433 c -0.203,0.636 1.182,1.792 1.485,3.74 0.063,0.396 0.301,0.687 0.484,1.01 0.749,1.3129997 2.151,2.0839997 2.547,-1.723 0.052,-0.532 -0.615,-2.521 -0.474,-3.292 0.343,-1.828 -1.657,-4.48899996 -2.13,-4.28099996 -1.031,0.437 -1.912,4.54599996 -1.912,4.54599996 z"
     id="path344" />
  <path
     style="fill:#231f20;fill-opacity:1;fill-rule:nonzero;stroke:none"
     d="m 177.66239,4.1707433 c 0.5,0.432 -0.057,2.145 0.703,3.959 0.156,0.369 0.104,0.744 0.114,1.118 0.052,1.5059997 -0.729,2.9019997 -3.068,-0.129 -0.322,-0.423 -0.801,-2.464 -1.328,-3.047 -1.254,-1.381 -0.958,-4.688 -0.442,-4.766 1.104,-0.171 4.021,2.865 4.021,2.865"
     id="path345" />
  <path
     style="fill:none;stroke:#231f20;stroke-width:0.644548;stroke-linecap:round;stroke-linejoin:round;stroke-miterlimit:4;stroke-dasharray:none;stroke-opacity:1"
     d="m 177.66239,4.1707433 c 0.5,0.432 -0.057,2.145 0.703,3.959 0.156,0.369 0.104,0.744 0.114,1.118 0.052,1.5059997 -0.729,2.9019997 -3.068,-0.129 -0.322,-0.423 -0.801,-2.464 -1.328,-3.047 -1.254,-1.381 -0.958,-4.688 -0.442,-4.766 1.104,-0.171 4.021,2.865 4.021,2.865 z"
     id="path346" />
  <path
     style="fill:none;stroke:#231f20;stroke-width:0.49806;stroke-linecap:butt;stroke-linejoin:miter;stroke-miterlimit:4;stroke-dasharray:none;stroke-opacity:1"
     d="m 243.35939,40.128743 c 17.98,-33.6819997 16.156,30.593999 16.156,30.593999"
     id="path347" />
  <path
     style="fill:#231f20;fill-opacity:1;fill-rule:nonzero;stroke:none"
     d="m 259.47439,72.222742 c -0.244,-0.714 -0.667,-1.604 -1.125,-2.162 l 1.172,0.463 1.198,-0.395 c -0.489,0.531 -0.964,1.395 -1.245,2.094"
     id="path348" />
  <path
     style="fill:none;stroke:#231f20;stroke-width:0.49806;stroke-linecap:butt;stroke-linejoin:miter;stroke-miterlimit:4;stroke-dasharray:none;stroke-opacity:1"
     d="m 145.45339,68.852742 c -3.995,37.962998 -26.473,-22.275999 -26.473,-22.275999"
     id="path349" />
  <path
     style="fill:#231f20;fill-opacity:1;fill-rule:nonzero;stroke:none"
     d="m 118.45339,45.170743 c 0.496,0.573 1.22,1.24 1.855,1.582 l -1.26,0.011 -0.959,0.817 c 0.255,-0.676 0.364,-1.656 0.364,-2.41"
     id="path350" />
  <path
     style="fill:#ffffff;fill-opacity:1;fill-rule:nonzero;stroke:none"
     d="m 19.288088,66.003743 c -0.1573,-0.183 -1.1932,0.300999 -1.4532,-0.151 -0.2561,-0.458 0.3068,-1.005 0.1667,-2.996 v -0.014 c -0.1613,-1.454 0.2959,-2.762 1.3333,-3.464 1.7188,-1.162 4.4,-0.214 5.9787,2.13 1.5838,2.339 1.4734,5.177999 -0.2495,6.343999 -1.6462,1.11 -4.1718,0.282 -5.776,-1.848999"
     id="path351" />
  <path
     style="fill:none;stroke:#231f20;stroke-width:0.565977;stroke-linecap:butt;stroke-linejoin:miter;stroke-miterlimit:4;stroke-dasharray:none;stroke-opacity:1"
     d="m 19.288088,66.003743 c -0.1573,-0.183 -1.1932,0.300999 -1.4532,-0.151 -0.2561,-0.458 0.3068,-1.005 0.1667,-2.996 v -0.014 c -0.1613,-1.454 0.2959,-2.762 1.3333,-3.464 1.7188,-1.162 4.4,-0.214 5.9787,2.13 1.5838,2.339 1.4734,5.177999 -0.2495,6.343999 -1.6462,1.11 -4.1718,0.282 -5.776,-1.848999 z"
     id="path352" />
  <path
     style="fill:#fab41d;fill-opacity:1;fill-rule:nonzero;stroke:none"
     d="m 33.490588,78.274742 c 1.8282,2.546 2.5,2.896 3.2871,3.369 4.9426,3 3.3796,5.365 0.7703,6.595 -3.0626,1.452 -4.1359,2.036 -7.3078,-3.412 -0.8797,-1.506 -5.0146,-6.87 -5.0146,-6.87 -1.7401,-1.724 -2.5213,-4.328 -2.0161,-5.698 0.5254,-1.438 0.4213,-0.828 1.1562,-2.072 0.6984,-1.188 2.6093,-2.246 3.7703,-1.808 1.1094,0.417 1.4016,2.057 2.1365,4.369 0.5719,1.819 3.2181,5.527 3.2181,5.527"
     id="path353" />
  <path
     style="fill:none;stroke:#231f20;stroke-width:0.565977;stroke-linecap:butt;stroke-linejoin:miter;stroke-miterlimit:4;stroke-dasharray:none;stroke-opacity:1"
     d="m 33.490588,78.274742 c 1.8282,2.546 2.5,2.896 3.2871,3.369 4.9426,3 3.3796,5.365 0.7703,6.595 -3.0626,1.452 -4.1359,2.036 -7.3078,-3.412 -0.8797,-1.506 -5.0146,-6.87 -5.0146,-6.87 -1.7401,-1.724 -2.5213,-4.328 -2.0161,-5.698 0.5254,-1.438 0.4213,-0.828 1.1562,-2.072 0.6984,-1.188 2.6093,-2.246 3.7703,-1.808 1.1094,0.417 1.4016,2.057 2.1365,4.369 0.5719,1.819 3.2181,5.527 3.2181,5.527 z"
     id="path354" />
  <path
     style="fill:#231f20;fill-opacity:1;fill-rule:nonzero;stroke:none"
     d="m 7.0641881,68.066742 c 0.4374,0.478 2.3693,0.713 3.7707999,1.5 0.9428,0.541 3.6761,0.796 4.5771,1.4 0.8282,0.548 1.2562,0.724 2.052,-0.11 0.4751,-0.494 1.0522,-1.754 0.699,-2.124 -0.8228,-0.86 -1.6938,-1.229 -2.7452,-1.433 -1.1923,-0.233 -4.4844,-0.577 -5.0991,-0.583 -1.5264999,-0.016 -2.0983999,-0.478 -2.4999999,-0.526 -0.7598,-0.072 -0.9744,0.193 -1.1306,0.672 -0.3011,0.906 0.376,1.204 0.376,1.204"
     id="path355" />
  <path
     style="fill:none;stroke:#231f20;stroke-width:0.565977;stroke-linecap:butt;stroke-linejoin:miter;stroke-miterlimit:4;stroke-dasharray:none;stroke-opacity:1"
     d="m 7.0641881,68.066742 c 0.4374,0.478 2.3693,0.713 3.7707999,1.5 0.9428,0.541 3.6761,0.796 4.5771,1.4 0.8282,0.548 1.2562,0.724 2.052,-0.11 0.4751,-0.494 1.0522,-1.754 0.699,-2.124 -0.8228,-0.86 -1.6938,-1.229 -2.7452,-1.433 -1.1923,-0.233 -4.4844,-0.577 -5.0991,-0.583 -1.5264999,-0.016 -2.0983999,-0.478 -2.4999999,-0.526 -0.7598,-0.072 -0.9744,0.193 -1.1306,0.672 -0.3011,0.906 0.376,1.204 0.376,1.204 z"
     id="path356" />
  <path
     style="fill:#231f20;fill-opacity:1;fill-rule:nonzero;stroke:none"
     d="m 15.813588,70.424742 c -0.1973,1.276 1.8385,1.219 2.3745,1.287 0.5427,0.063 2.0522,0.423 3.1932,0.86 1.1511,0.432 2.7656,0.489 4.9427,1.307 1.1401,0.432 2.5308,0.125 3.0829,-1.563 0.5479,-1.667 -0.1813,-2.604 -1.6401,-2.916 -1.4694,-0.308 -2.9745,0.011 -4.4745,-0.204 -1.4948,-0.208 -3,-0.567 -4.1667,-0.905 -1.3281,-0.38 -2.124,-0.074 -2.4317,0.301 -0.7443,0.928 -0.8803,1.833 -0.8803,1.833"
     id="path357" />
  <path
     style="fill:none;stroke:#231f20;stroke-width:0.565977;stroke-linecap:butt;stroke-linejoin:miter;stroke-miterlimit:4;stroke-dasharray:none;stroke-opacity:1"
     d="m 15.813588,70.424742 c -0.1973,1.276 1.8385,1.219 2.3745,1.287 0.5427,0.063 2.0522,0.423 3.1932,0.86 1.1511,0.432 2.7656,0.489 4.9427,1.307 1.1401,0.432 2.5308,0.125 3.0829,-1.563 0.5479,-1.667 -0.1813,-2.604 -1.6401,-2.916 -1.4694,-0.308 -2.9745,0.011 -4.4745,-0.204 -1.4948,-0.208 -3,-0.567 -4.1667,-0.905 -1.3281,-0.38 -2.124,-0.074 -2.4317,0.301 -0.7443,0.928 -0.8803,1.833 -0.8803,1.833 z"
     id="path358" />
  <path
     style="fill:#231f20;fill-opacity:1;fill-rule:nonzero;stroke:none"
     d="m 0.33498808,66.347742 c 0.5985,0.411 3.73860002,1.239 4.46250002,1.396 0.6521,0.14 1.6521,0.728 2.3547,-0.183 0.287,-0.374 0.448,-1.109 0.4266,-1.426 -0.0105,-0.255999 -0.2906,-0.427999 -0.6865,-0.479999 -0.6615,-0.074 -0.8812,0.156 -2.1573,0.078 0,0 -0.3067,0.02 -0.8479,0.099 -1.6145,0.244999 -0.8801,0.286999 -3.29730002,0.104 -0.1719,-0.016 -0.3068,0.150999 -0.3068,0.264999 0.0052,0.172 0.052,0.147 0.052,0.147"
     id="path359" />
  <path
     style="fill:none;stroke:#231f20;stroke-width:0.565977;stroke-linecap:round;stroke-linejoin:round;stroke-miterlimit:4;stroke-dasharray:none;stroke-opacity:1"
     d="m 0.33498808,66.347742 c 0.5985,0.411 3.73860002,1.239 4.46250002,1.396 0.6521,0.14 1.6521,0.728 2.3547,-0.183 0.287,-0.374 0.448,-1.109 0.4266,-1.426 -0.0105,-0.255999 -0.2906,-0.427999 -0.6865,-0.479999 -0.6615,-0.074 -0.8812,0.156 -2.1573,0.078 0,0 -0.3067,0.02 -0.8479,0.099 -1.6145,0.244999 -0.8801,0.286999 -3.29730002,0.104 -0.1719,-0.016 -0.3068,0.150999 -0.3068,0.264999 0.0052,0.172 0.052,0.147 0.052,0.147 z"
     id="path360" />
  <path
     style="fill:#231f20;fill-opacity:1;fill-rule:nonzero;stroke:none"
     d="m 35.230788,104.45174 c 1.9786,-1.104 2.5094,-1.052 3.036,-0.245 0.3442,0.532 0.8494,0.906 1.0775,1.224 0.7558,1.052 1.6,3.136 2.4427,9.666 0.188,1.48 0.4641,3.558 0.6521,4.391 0.2864,1.328 -2.1094,0.912 -2.2297,0.391 -0.3855,-1.672 -0.7812,-2.792 -1,-3.37 -0.1505,-0.401 -0.3224,-1.146 -1.1093,-2.609 -1.188,-2.235 -2.2292,-3.396 -3.0052,-5.365 -0.36,-0.906 -1.2079,-1.37 -1.1043,-2.448 0.0991,-1.078 1.2402,-1.635 1.2402,-1.635"
     id="path361" />
  <path
     style="fill:none;stroke:#231f20;stroke-width:0.565977;stroke-linecap:butt;stroke-linejoin:miter;stroke-miterlimit:4;stroke-dasharray:none;stroke-opacity:1"
     d="m 35.230788,104.45174 c 1.9786,-1.104 2.5094,-1.052 3.036,-0.245 0.3442,0.532 0.8494,0.906 1.0775,1.224 0.7558,1.052 1.6,3.136 2.4427,9.666 0.188,1.48 0.4641,3.558 0.6521,4.391 0.2864,1.328 -2.1094,0.912 -2.2297,0.391 -0.3855,-1.672 -0.7812,-2.792 -1,-3.37 -0.1505,-0.401 -0.3224,-1.146 -1.1093,-2.609 -1.188,-2.235 -2.2292,-3.396 -3.0052,-5.365 -0.36,-0.906 -1.2079,-1.37 -1.1043,-2.448 0.0991,-1.078 1.2402,-1.635 1.2402,-1.635 z"
     id="path362" />
  <path
     style="fill:#231f20;fill-opacity:1;fill-rule:nonzero;stroke:#231f20;stroke-width:0.565977;stroke-linecap:round;stroke-linejoin:miter;stroke-miterlimit:4;stroke-dasharray:none;stroke-opacity:1"
     d="m 34.527188,106.84774 c -0.9948,-0.912 -0.5631,-2.891 -0.635,-3.209 -1.152,-4.874998 -1.1093,-5.259998 -1.7186,-9.030998 -0.8907,-5.453 -0.6626,-9.328 2.364,-10.771 2.0521,-0.98 3.6562,-0.65 4.6254,0.244 1.0677,0.991 2.1344,3.986 0.3532,6.262 l -0.1813,1.702 c 0.0198,1.162 0.0256,1.74 0.0772,2.312 0.0989,0.996 0.1416,2.074 0.2238,4.032 0.147,3.463998 -0.8333,7.171998 -0.8333,7.171998 0.0058,0.318 -0.1088,0.578 -0.2812,0.787"
     id="path363" />
  <path
     style="fill:#fab41d;fill-opacity:1;fill-rule:nonzero;stroke:none"
     d="m 39.162988,84.080742 c -0.9692,-0.894 -2.5733,-1.224 -4.6254,-0.244 -1.3334,0.635 -2.1042,1.76 -2.4948,3.266 -0.4787,0.921 -0.7402,1.489 -0.3907,2.213 0.0308,0.063 0.0573,0.141 0.0828,0.213 -0.0145,0.59 -0.0093,1.199 0.0428,1.855 l 7.7385,-1.041 c 1.7812,-2.271 0.7145,-5.271 -0.3532,-6.262"
     id="path364" />
  <path
     style="fill:none;stroke:#231f20;stroke-width:0.565977;stroke-linecap:round;stroke-linejoin:round;stroke-miterlimit:4;stroke-dasharray:none;stroke-opacity:1"
     d="m 39.162988,84.080742 c -0.9692,-0.894 -2.5733,-1.224 -4.6254,-0.244 -1.3334,0.635 -2.1042,1.76 -2.4948,3.266 -0.4787,0.921 -0.7402,1.489 -0.3907,2.213 0.0308,0.063 0.0573,0.141 0.0828,0.213 -0.0145,0.59 -0.0093,1.199 0.0428,1.855 l 7.7385,-1.041 c 1.7812,-2.271 0.7145,-5.271 -0.3532,-6.262 z"
     id="path365" />
  <path
     style="fill:#231f20;fill-opacity:1;fill-rule:nonzero;stroke:none"
     d="m 43.532288,122.50374 c 0.9214,-0.568 0.1094,-1.521 -0.6776,-2.464 -0.1974,-0.239 -0.3584,-0.479 -0.5718,-0.697 -0.8547,-0.871 -1.8907,-1.058 -2.5214,1.869 -0.0266,0.109 -1.0786,2.021 -1.4641,2.511 -1.853,2.338 -2.4369,1.734 -1.853,2.338 0.3905,0.402 0.8385,0.167 1.3905,-0.13 0.7439,-0.416 3.2652,-2.088 3.6666,-2.318 0.3907,-0.229 2.0308,-1.109 2.0308,-1.109"
     id="path366" />
  <path
     style="fill:none;stroke:#231f20;stroke-width:0.565977;stroke-linecap:butt;stroke-linejoin:miter;stroke-miterlimit:4;stroke-dasharray:none;stroke-opacity:1"
     d="m 43.532288,122.50374 c 0.9214,-0.568 0.1094,-1.521 -0.6776,-2.464 -0.1974,-0.239 -0.3584,-0.479 -0.5718,-0.697 -0.8547,-0.871 -1.8907,-1.058 -2.5214,1.869 -0.0266,0.109 -1.0786,2.021 -1.4641,2.511 -1.853,2.338 -2.4369,1.734 -1.853,2.338 0.3905,0.402 0.8385,0.167 1.3905,-0.13 0.7439,-0.416 3.2652,-2.088 3.6666,-2.318 0.3907,-0.229 2.0308,-1.109 2.0308,-1.109 z"
     id="path368" />
  <path
     style="fill:#231f20;fill-opacity:1;fill-rule:nonzero;stroke:none"
     d="m 181.46339,48.492743 c 0.448,-0.588 3.183,-2.354 3.828,-2.718 0.568,-0.339 1.334,-1.203 2.287,-0.542 0.385,0.244 0.765,0.902 0.855,1.208 0.068,0.255 -0.156,0.5 -0.511,0.662 -0.604,0.286 -0.891,0.136 -2.073,0.609 0,0 -0.302,0.068 -0.843,0.151 -1.609,0.281 -0.928,0.01 -3.172,0.928 -0.157,0.072 -0.333,-0.043 -0.371,-0.152 -0.057,-0.176 0,-0.146 0,-0.146"
     id="path370" />
  <path
     style="fill:none;stroke:#231f20;stroke-width:0.565977;stroke-linecap:round;stroke-linejoin:round;stroke-miterlimit:4;stroke-dasharray:none;stroke-opacity:1"
     d="m 181.46339,48.492743 c 0.448,-0.588 3.183,-2.354 3.828,-2.718 0.568,-0.339 1.334,-1.203 2.287,-0.542 0.385,0.244 0.765,0.902 0.855,1.208 0.068,0.255 -0.156,0.5 -0.511,0.662 -0.604,0.286 -0.891,0.136 -2.073,0.609 0,0 -0.302,0.068 -0.843,0.151 -1.609,0.281 -0.928,0.01 -3.172,0.928 -0.157,0.072 -0.333,-0.043 -0.371,-0.152 -0.057,-0.176 0,-0.146 0,-0.146 z"
     id="path371" />
  <path
     style="fill:#231f20;fill-opacity:1;fill-rule:nonzero;stroke:none"
     d="m 195.15739,46.607743 c -1.147,0.599 0.104,2.203 0.369,2.677 0.265,0.474 0.871,1.906 1.193,3.088 0.328,1.183 1.235,2.516 1.859,4.751 0.328,1.181 1.396,2.12 3.084,1.572 1.667,-0.541 1.995,-1.687 1.385,-3.052 -0.614,-1.369 -1.765,-2.391 -2.48,-3.724 -0.713,-1.333 -1.317,-2.755 -1.733,-3.896 -0.48,-1.301 -1.193,-1.76 -1.672,-1.785 -1.193,-0.058 -2.005,0.369 -2.005,0.369"
     id="path372" />
  <path
     style="fill:none;stroke:#231f20;stroke-width:0.565977;stroke-linecap:butt;stroke-linejoin:miter;stroke-miterlimit:4;stroke-dasharray:none;stroke-opacity:1"
     d="m 195.15739,46.607743 c -1.147,0.599 0.104,2.203 0.369,2.677 0.265,0.474 0.871,1.906 1.193,3.088 0.328,1.183 1.235,2.516 1.859,4.751 0.328,1.181 1.396,2.12 3.084,1.572 1.667,-0.541 1.995,-1.687 1.385,-3.052 -0.614,-1.369 -1.765,-2.391 -2.48,-3.724 -0.713,-1.333 -1.317,-2.755 -1.733,-3.896 -0.48,-1.301 -1.193,-1.76 -1.672,-1.785 -1.193,-0.058 -2.005,0.369 -2.005,0.369 z"
     id="path373" />
  <path
     style="fill:#231f20;fill-opacity:1;fill-rule:nonzero;stroke:none"
     d="m 187.41139,44.872743 c 0.599,-0.234 2.438,0.396 4.047,0.292 1.084,-0.068 3.652,0.891 4.729,0.746 0.98,-0.136 1.448,-0.106 1.798,0.994 0.208,0.646 0.182,2.031 -0.303,2.208 -1.115,0.416 -2.057,0.37 -3.093,0.094 -1.172,-0.307 -4.287,-1.438 -4.839,-1.698 -1.375,-0.646 -2.099,-0.48 -2.479,-0.62 -0.713,-0.256 -0.792,-0.593 -0.729,-1.093 0.131,-0.953 0.869,-0.923 0.869,-0.923"
     id="path374" />
  <path
     style="fill:none;stroke:#231f20;stroke-width:0.565977;stroke-linecap:butt;stroke-linejoin:miter;stroke-miterlimit:4;stroke-dasharray:none;stroke-opacity:1"
     d="m 187.41139,44.872743 c 0.599,-0.234 2.438,0.396 4.047,0.292 1.084,-0.068 3.652,0.891 4.729,0.746 0.98,-0.136 1.448,-0.106 1.798,0.994 0.208,0.646 0.182,2.031 -0.303,2.208 -1.115,0.416 -2.057,0.37 -3.093,0.094 -1.172,-0.307 -4.287,-1.438 -4.839,-1.698 -1.375,-0.646 -2.099,-0.48 -2.479,-0.62 -0.713,-0.256 -0.792,-0.593 -0.729,-1.093 0.131,-0.953 0.869,-0.923 0.869,-0.923 z"
     id="path375" />
  <path
     style="fill:#231f20;fill-opacity:1;fill-rule:nonzero;stroke:none"
     d="m 196.73939,42.528743 c -0.426,0.595 -3.124,2.418 -3.76,2.798 -0.568,0.349 -1.317,1.229 -2.281,0.593 -0.396,-0.239 -0.787,-0.891 -0.875,-1.192 -0.073,-0.256 0.14,-0.5 0.495,-0.672 0.593,-0.303 0.891,-0.156 2.063,-0.651 0,0 0.296,-0.078 0.833,-0.177 1.604,-0.313 0.927,-0.021 3.151,-0.995 0.156,-0.068 0.333,0.042 0.374,0.146 0.058,0.177 0,0.15 0,0.15"
     id="path376" />
  <path
     style="fill:none;stroke:#231f20;stroke-width:0.565977;stroke-linecap:round;stroke-linejoin:round;stroke-miterlimit:4;stroke-dasharray:none;stroke-opacity:1"
     d="m 196.73939,42.528743 c -0.426,0.595 -3.124,2.418 -3.76,2.798 -0.568,0.349 -1.317,1.229 -2.281,0.593 -0.396,-0.239 -0.787,-0.891 -0.875,-1.192 -0.073,-0.256 0.14,-0.5 0.495,-0.672 0.593,-0.303 0.891,-0.156 2.063,-0.651 0,0 0.296,-0.078 0.833,-0.177 1.604,-0.313 0.927,-0.021 3.151,-0.995 0.156,-0.068 0.333,0.042 0.374,0.146 0.058,0.177 0,0.15 0,0.15 z"
     id="path377" />
  <path
     style="fill:#231f20;fill-opacity:1;fill-rule:nonzero;stroke:none"
     d="m 185.68239,49.180743 c 1.261,-0.281 1.344,1.75 1.443,2.282 0.1,0.536 0.562,2.02 1.078,3.134 0.506,1.115 0.672,2.719 1.636,4.834 0.51,1.109 0.296,2.516 -1.349,3.182 -1.625,0.662 -2.609,-0.005 -3.021,-1.442 -0.411,-1.443 -0.192,-2.964 -0.506,-4.443 -0.312,-1.48 -0.77,-2.959 -1.181,-4.099 -0.469,-1.302 -0.224,-2.12 0.124,-2.442 0.88,-0.814 1.776,-1.006 1.776,-1.006"
     id="path378" />
  <path
     style="fill:none;stroke:#231f20;stroke-width:0.565977;stroke-linecap:butt;stroke-linejoin:miter;stroke-miterlimit:4;stroke-dasharray:none;stroke-opacity:1"
     d="m 185.68239,49.180743 c 1.261,-0.281 1.344,1.75 1.443,2.282 0.1,0.536 0.562,2.02 1.078,3.134 0.506,1.115 0.672,2.719 1.636,4.834 0.51,1.109 0.296,2.516 -1.349,3.182 -1.625,0.662 -2.609,-0.005 -3.021,-1.442 -0.411,-1.443 -0.192,-2.964 -0.506,-4.443 -0.312,-1.48 -0.77,-2.959 -1.181,-4.099 -0.469,-1.302 -0.224,-2.12 0.124,-2.442 0.88,-0.814 1.776,-1.006 1.776,-1.006 z"
     id="path379" />
  <path
     style="fill:#231f20;fill-opacity:1;fill-rule:nonzero;stroke:none"
     d="m 191.13539,43.404743 c -0.629,0.162 -1.738,1.755 -3.093,2.624 -0.912,0.59 -2.421,2.876 -3.375,3.391 -0.876,0.475 -1.224,0.776 -0.865,1.871 0.213,0.645 1.057,1.749 1.552,1.604 1.147,-0.323 1.88,-0.918 2.547,-1.751 0.766,-0.943 2.609,-3.692 2.906,-4.233 0.724,-1.339 1.402,-1.626 1.631,-1.97 0.421,-0.625 0.287,-0.948 -0.063,-1.312 -0.666,-0.682 -1.24,-0.224 -1.24,-0.224"
     id="path380" />
  <path
     style="fill:none;stroke:#231f20;stroke-width:0.565977;stroke-linecap:butt;stroke-linejoin:miter;stroke-miterlimit:4;stroke-dasharray:none;stroke-opacity:1"
     d="m 191.13539,43.404743 c -0.629,0.162 -1.738,1.755 -3.093,2.624 -0.912,0.59 -2.421,2.876 -3.375,3.391 -0.876,0.475 -1.224,0.776 -0.865,1.871 0.213,0.645 1.057,1.749 1.552,1.604 1.147,-0.323 1.88,-0.918 2.547,-1.751 0.766,-0.943 2.609,-3.692 2.906,-4.233 0.724,-1.339 1.402,-1.626 1.631,-1.97 0.421,-0.625 0.287,-0.948 -0.063,-1.312 -0.666,-0.682 -1.24,-0.224 -1.24,-0.224 z"
     id="path381" />
</svg>
