<?xml version="1.0" encoding="UTF-8" standalone="no"?>
<!-- Created with Inkscape (http://www.inkscape.org/) -->

<svg
   version="1.1"
   id="svg1"
   width="321.01953"
   height="126.91705"
   viewBox="0 0 321.01952 126.91705"
   sodipodi:docname="cell.svg"
   xmlns:inkscape="http://www.inkscape.org/namespaces/inkscape"
   xmlns:sodipodi="http://sodipodi.sourceforge.net/DTD/sodipodi-0.dtd"
   xmlns="http://www.w3.org/2000/svg"
   xmlns:svg="http://www.w3.org/2000/svg">
  <sodipodi:namedview
     id="namedview1"
     pagecolor="#ffffff"
     bordercolor="#000000"
     borderopacity="0.25"
     inkscape:showpageshadow="2"
     inkscape:pageopacity="0.0"
     inkscape:pagecheckerboard="0"
     inkscape:deskcolor="#d1d1d1">
    <inkscape:page
       x="0"
       y="0"
       inkscape:label="1"
       id="page1"
       width="321.01953"
       height="126.91705"
       margin="0"
       bleed="0" />
  </sodipodi:namedview>
  <defs
     id="defs1" />
  <path
     style="fill:#231f20;fill-opacity:1;fill-rule:nonzero;stroke:none"
     d="m 65.121371,43.602686 c -0.38,0.521 -0.213,2.464 -0.697,3.994 -0.333,1.032 -0.021,3.76 -0.428,4.766 -0.369,0.922 -0.452,1.381 0.532,1.985 0.583,0.359 1.932,0.672 2.218,0.249 0.672,-0.978 0.855,-1.916 0.844,-2.984 -0.021,-1.213 -0.36,-4.505 -0.48,-5.104 -0.301,-1.494 0.038,-2.152 -0.009,-2.557 -0.073,-0.756 -0.381,-0.912 -0.887,-0.975 -0.951,-0.104 -1.093,0.626 -1.093,0.626"
     id="path630" />
  <path
     style="fill:none;stroke:#231f20;stroke-width:0.565977;stroke-linecap:butt;stroke-linejoin:miter;stroke-miterlimit:4;stroke-dasharray:none;stroke-opacity:1"
     d="m 65.121371,43.602686 c -0.38,0.521 -0.213,2.464 -0.697,3.994 -0.333,1.032 -0.021,3.76 -0.428,4.766 -0.369,0.922 -0.452,1.381 0.532,1.985 0.583,0.359 1.932,0.672 2.218,0.249 0.672,-0.978 0.855,-1.916 0.844,-2.984 -0.021,-1.213 -0.36,-4.505 -0.48,-5.104 -0.301,-1.494 0.038,-2.152 -0.009,-2.557 -0.073,-0.756 -0.381,-0.912 -0.887,-0.975 -0.951,-0.104 -1.093,0.626 -1.093,0.626 z"
     id="path631" />
  <path
     style="fill:#231f20;fill-opacity:1;fill-rule:nonzero;stroke:none"
     d="m 64.611371,52.643686 c -1.291,0.073 -0.812,2.052 -0.771,2.595 0.047,0.536 0.005,2.093 -0.183,3.301 -0.186,1.213 0.09,2.803 -0.265,5.099 -0.187,1.214 0.401,2.504999 2.161,2.697999 1.745,0.198 2.516,-0.712999 2.516,-2.207999 0.005,-1.496 -0.62,-2.906 -0.719,-4.417 -0.104,-1.511 -0.062,-3.052 0.027,-4.26 0.099,-1.385 -0.36,-2.099 -0.792,-2.317 -1.057,-0.548 -1.974,-0.491 -1.974,-0.491"
     id="path632" />
  <path
     style="fill:none;stroke:#231f20;stroke-width:0.565977;stroke-linecap:butt;stroke-linejoin:miter;stroke-miterlimit:4;stroke-dasharray:none;stroke-opacity:1"
     d="m 64.611371,52.643686 c -1.291,0.073 -0.812,2.052 -0.771,2.595 0.047,0.536 0.005,2.093 -0.183,3.301 -0.186,1.213 0.09,2.803 -0.265,5.099 -0.187,1.214 0.401,2.504999 2.161,2.697999 1.745,0.198 2.516,-0.712999 2.516,-2.207999 0.005,-1.496 -0.62,-2.906 -0.719,-4.417 -0.104,-1.511 -0.062,-3.052 0.027,-4.26 0.099,-1.385 -0.36,-2.099 -0.792,-2.317 -1.057,-0.548 -1.974,-0.491 -1.974,-0.491 z"
     id="path633" />
  <path
     style="fill:#231f20;fill-opacity:1;fill-rule:nonzero;stroke:none"
     d="m 65.413371,36.654686 c -0.281,0.672 -0.437,3.917 -0.448,4.661 -0.005,0.667 -0.374,1.761 0.667,2.265 0.416,0.204 1.172,0.204 1.478,0.126 0.256,-0.063 0.36,-0.375 0.328,-0.776 -0.057,-0.662 -0.333,-0.828 -0.514,-2.088 0,0 -0.09,-0.298 -0.276,-0.814 -0.568,-1.53 -0.459,-0.801 -0.776,-3.202 -0.027,-0.178 -0.215,-0.276 -0.324,-0.25 -0.176,0.042 -0.135,0.078 -0.135,0.078"
     id="path634" />
  <path
     style="fill:none;stroke:#231f20;stroke-width:0.565977;stroke-linecap:round;stroke-linejoin:round;stroke-miterlimit:4;stroke-dasharray:none;stroke-opacity:1"
     d="m 65.413371,36.654686 c -0.281,0.672 -0.437,3.917 -0.448,4.661 -0.005,0.667 -0.374,1.761 0.667,2.265 0.416,0.204 1.172,0.204 1.478,0.126 0.256,-0.063 0.36,-0.375 0.328,-0.776 -0.057,-0.662 -0.333,-0.828 -0.514,-2.088 0,0 -0.09,-0.298 -0.276,-0.814 -0.568,-1.53 -0.459,-0.801 -0.776,-3.202 -0.027,-0.178 -0.215,-0.276 -0.324,-0.25 -0.176,0.042 -0.135,0.078 -0.135,0.078 z"
     id="path635" />
  <path
     style="fill:#231f20;fill-opacity:1;fill-rule:nonzero;stroke:none"
     d="m 127.12637,62.632686 c 0.584,-0.249 2.448,0.344 4.047,0.215 1.084,-0.095 3.667,0.817 4.74,0.651 0.984,-0.156 1.448,-0.142 1.817,0.948 0.219,0.65 0.224,2.040999 -0.254,2.223999 -1.11,0.432 -2.052,0.406 -3.09,0.156 -1.186,-0.287 -4.317,-1.349999 -4.874,-1.598999 -1.396,-0.625 -2.104,-0.448 -2.49,-0.573 -0.724,-0.25 -0.802,-0.588 -0.745,-1.083 0.1,-0.959 0.849,-0.939 0.849,-0.939"
     id="path636" />
  <path
     style="fill:none;stroke:#231f20;stroke-width:0.565977;stroke-linecap:butt;stroke-linejoin:miter;stroke-miterlimit:4;stroke-dasharray:none;stroke-opacity:1"
     d="m 127.12637,62.632686 c 0.584,-0.249 2.448,0.344 4.047,0.215 1.084,-0.095 3.667,0.817 4.74,0.651 0.984,-0.156 1.448,-0.142 1.817,0.948 0.219,0.65 0.224,2.040999 -0.254,2.223999 -1.11,0.432 -2.052,0.406 -3.09,0.156 -1.186,-0.287 -4.317,-1.349999 -4.874,-1.598999 -1.396,-0.625 -2.104,-0.448 -2.49,-0.573 -0.724,-0.25 -0.802,-0.588 -0.745,-1.083 0.1,-0.959 0.849,-0.939 0.849,-0.939 z"
     id="path637" />
  <path
     style="fill:#fab41d;fill-opacity:1;fill-rule:nonzero;stroke:none"
     d="m 133.70037,59.274686 c -3.038,0.754 -3.782,0.588 -4.688,0.442 -5.708,-0.912 -6.047,1.907 -4.859,4.527 1.405,3.087999 1.843,4.227999 7.781,2.128999 1.651,-0.581999 8.276,-1.993999 8.276,-1.993999 2.443,-0.192 4.724,-1.672 5.224,-3.036 0.526,-1.443 0.214,-0.912 0.458,-2.328 0.234,-1.366 -0.542,-3.407 -1.703,-3.824 -1.12,-0.4 -2.407,0.662 -4.453,1.953 -1.626,1.016 -6.036,2.131 -6.036,2.131"
     id="path638" />
  <path
     style="fill:none;stroke:#231f20;stroke-width:0.565977;stroke-linecap:butt;stroke-linejoin:miter;stroke-miterlimit:4;stroke-dasharray:none;stroke-opacity:1"
     d="m 133.70037,59.274686 c -3.038,0.754 -3.782,0.588 -4.688,0.442 -5.708,-0.912 -6.047,1.907 -4.859,4.527 1.405,3.087999 1.843,4.227999 7.781,2.128999 1.651,-0.581999 8.276,-1.993999 8.276,-1.993999 2.443,-0.192 4.724,-1.672 5.224,-3.036 0.526,-1.443 0.214,-0.912 0.458,-2.328 0.234,-1.366 -0.542,-3.407 -1.703,-3.824 -1.12,-0.4 -2.407,0.662 -4.453,1.953 -1.626,1.016 -6.036,2.131 -6.036,2.131 z"
     id="path639" />
  <path
     style="fill:#ffffff;fill-opacity:1;fill-rule:nonzero;stroke:none"
     d="m 154.11037,58.222686 c 0.214,-0.131 1.027,0.692 1.423,0.354 0.405,-0.344 0.052,-1.057 0.864,-2.87 l 0.011,-0.02 c 0.636,-1.308 0.661,-2.699 -0.079,-3.715 -1.219,-1.681 -4.057,-1.692 -6.343,-0.036 -2.292,1.661 -3.146,4.375 -1.928,6.052 1.162,1.615 3.828,1.688 6.052,0.235"
     id="path640" />
  <path
     style="fill:none;stroke:#231f20;stroke-width:0.565977;stroke-linecap:butt;stroke-linejoin:miter;stroke-miterlimit:4;stroke-dasharray:none;stroke-opacity:1"
     d="m 154.11037,58.222686 c 0.214,-0.131 1.027,0.692 1.423,0.354 0.405,-0.344 0.052,-1.057 0.864,-2.87 l 0.011,-0.02 c 0.636,-1.308 0.661,-2.699 -0.079,-3.715 -1.219,-1.681 -4.057,-1.692 -6.343,-0.036 -2.292,1.661 -3.146,4.375 -1.928,6.052 1.162,1.615 3.828,1.688 6.052,0.235 z"
     id="path641" />
  <path
     style="fill:#231f20;fill-opacity:1;fill-rule:nonzero;stroke:none"
     d="m 108.70537,71.982685 c -0.683,-2.156 -1.109,-2.484 -2.037,-2.25 -0.62,0.151 -1.244,0.078 -1.624,0.156 -1.276,0.24 -3.319,1.188 -8.402001,5.375 -1.146,0.948 -2.781,2.265 -3.484,2.756 -1.11,0.776 0.922,2.109 1.37,1.807 1.421,-0.959 2.473,-1.495 3.03,-1.771 0.386,-0.188 1.016,-0.615 2.600001,-1.151 2.39,-0.808 3.943,-0.942 5.859,-1.849 0.88,-0.417 1.812,-0.172 2.469,-1.036 0.676,-0.849 0.219,-2.037 0.219,-2.037"
     id="path642" />
  <path
     style="fill:none;stroke:#231f20;stroke-width:0.565977;stroke-linecap:butt;stroke-linejoin:miter;stroke-miterlimit:4;stroke-dasharray:none;stroke-opacity:1"
     d="m 108.70537,71.982685 c -0.683,-2.156 -1.109,-2.484 -2.037,-2.25 -0.62,0.151 -1.244,0.078 -1.624,0.156 -1.276,0.24 -3.319,1.188 -8.402001,5.375 -1.146,0.948 -2.781,2.265 -3.484,2.756 -1.11,0.776 0.922,2.109 1.37,1.807 1.421,-0.959 2.473,-1.495 3.03,-1.771 0.386,-0.188 1.016,-0.615 2.600001,-1.151 2.39,-0.808 3.943,-0.942 5.859,-1.849 0.88,-0.417 1.812,-0.172 2.469,-1.036 0.676,-0.849 0.219,-2.037 0.219,-2.037 z"
     id="path643" />
  <path
     style="fill:#231f20;fill-opacity:1;fill-rule:nonzero;stroke:#231f20;stroke-width:0.565977;stroke-linecap:round;stroke-linejoin:round;stroke-miterlimit:4;stroke-dasharray:none;stroke-opacity:1"
     d="m 107.46537,74.159685 c 1.255,0.645 2.953,-0.688 3.281,-0.765 4.902,-1.074 5.219,-1.282 8.886,-2.366 5.306,-1.557 8.692,-3.448 8.688,-6.800999 -0.011,-2.271 -0.996,-3.573 -2.23,-4.057 -1.349,-0.532 -4.516,-0.199 -5.792,2.385 l -1.458,0.907 c -1.058,0.489 -1.578,0.733 -2.115,0.932 -0.937,0.344 -1.927,0.77 -3.729,1.546 -3.187,1.369999 -6.115,3.863999 -6.115,3.863999 -0.28,0.131 -0.463,0.339 -0.577,0.584"
     id="path644" />
  <path
     style="fill:#fab41d;fill-opacity:1;fill-rule:nonzero;stroke:none"
     d="m 126.50137,60.299686 c -1.359,-0.541 -4.52,-0.219 -5.801,2.365 l 2.385,7.442999 c 3.505,-1.375 5.625,-3.099 5.625,-5.744999 0,-2.266 -0.98,-3.583 -2.209,-4.063"
     id="path645" />
  <path
     style="fill:none;stroke:#231f20;stroke-width:0.565977;stroke-linecap:butt;stroke-linejoin:miter;stroke-miterlimit:4;stroke-dasharray:none;stroke-opacity:1"
     d="m 126.50137,60.299686 c -1.359,-0.541 -4.52,-0.219 -5.801,2.365 l 2.385,7.442999 c 3.505,-1.375 5.625,-3.099 5.625,-5.744999 0,-2.266 -0.98,-3.583 -2.209,-4.063 z"
     id="path646" />
  <path
     style="fill:#231f20;fill-opacity:1;fill-rule:nonzero;stroke:none"
     d="m 135.97037,65.560686 c -0.917,-0.917 0.76,-2.073 1.151,-2.437 0.401,-0.371 1.407,-1.557 2.073,-2.579 0.667,-1.036 1.943,-2.03 3.214,-3.978 0.666,-1.022 1.969,-1.595 3.406,-0.558 1.432,1.02 1.396,2.208 0.4,3.328 -0.994,1.115 -2.405,1.74 -3.489,2.798 -1.083,1.052 -2.088,2.228 -2.828,3.192 -0.849,1.087999 -1.672,1.321999 -2.129,1.192999 -1.163,-0.303 -1.798,-0.958999 -1.798,-0.958999"
     id="path647" />
  <path
     style="fill:none;stroke:#231f20;stroke-width:0.565977;stroke-linecap:butt;stroke-linejoin:miter;stroke-miterlimit:4;stroke-dasharray:none;stroke-opacity:1"
     d="m 135.97037,65.560686 c -0.917,-0.917 0.76,-2.073 1.151,-2.437 0.401,-0.371 1.407,-1.557 2.073,-2.579 0.667,-1.036 1.943,-2.03 3.214,-3.978 0.666,-1.022 1.969,-1.595 3.406,-0.558 1.432,1.02 1.396,2.208 0.4,3.328 -0.994,1.115 -2.405,1.74 -3.489,2.798 -1.083,1.052 -2.088,2.228 -2.828,3.192 -0.849,1.087999 -1.672,1.321999 -2.129,1.192999 -1.163,-0.303 -1.798,-0.958999 -1.798,-0.958999 z"
     id="path648" />
  <path
     style="fill:#231f20;fill-opacity:1;fill-rule:nonzero;stroke:none"
     d="m 90.700369,78.654685 c 0.301,-1.318 1.286,-1.454 2.156,-0.896 0.26,0.166 0.661,0.037 0.906,0.218 0.558,0.428 0.734,2.158 -0.677,2.678 -0.095,0.036 -0.745,0.532 -1.287,0.838 -1.068,0.579 -3.478,1.23 -5.807998,-0.14 -1.098,-0.641 -0.509,-1.177 0.016,-1.057 1.661998,0.411 1.885998,0.119 2.370998,0.057 1.604,-0.166 2.323,-1.698 2.323,-1.698"
     id="path649" />
  <path
     style="fill:none;stroke:#231f20;stroke-width:0.332927;stroke-linecap:butt;stroke-linejoin:miter;stroke-miterlimit:4;stroke-dasharray:none;stroke-opacity:1"
     d="m 90.700369,78.654685 c 0.301,-1.318 1.286,-1.454 2.156,-0.896 0.26,0.166 0.661,0.037 0.906,0.218 0.558,0.428 0.734,2.158 -0.677,2.678 -0.095,0.036 -0.745,0.532 -1.287,0.838 -1.068,0.579 -3.478,1.23 -5.807998,-0.14 -1.098,-0.641 -0.509,-1.177 0.016,-1.057 1.661998,0.411 1.885998,0.119 2.370998,0.057 1.604,-0.166 2.323,-1.698 2.323,-1.698 z"
     id="path650" />
  <path
     style="fill:#231f20;fill-opacity:1;fill-rule:nonzero;stroke:none"
     d="m 250.56337,52.456686 c -0.598,0.427 -2.448,3.104 -2.838,3.734 -0.348,0.562 -1.244,1.297 -0.615,2.272 0.235,0.394 0.88,0.801 1.183,0.89 0.25,0.072 0.5,-0.141 0.677,-0.485 0.307,-0.599 0.167,-0.891 0.677,-2.057 0,0 0.078,-0.296 0.178,-0.834 0.333,-1.598 0.036,-0.926 1.03,-3.134 0.074,-0.156 -0.03,-0.339 -0.136,-0.38 -0.176,-0.063 -0.156,-0.006 -0.156,-0.006"
     id="path651" />
  <path
     style="fill:none;stroke:#231f20;stroke-width:0.565977;stroke-linecap:round;stroke-linejoin:round;stroke-miterlimit:4;stroke-dasharray:none;stroke-opacity:1"
     d="m 250.56337,52.456686 c -0.598,0.427 -2.448,3.104 -2.838,3.734 -0.348,0.562 -1.244,1.297 -0.615,2.272 0.235,0.394 0.88,0.801 1.183,0.89 0.25,0.072 0.5,-0.141 0.677,-0.485 0.307,-0.599 0.167,-0.891 0.677,-2.057 0,0 0.078,-0.296 0.178,-0.834 0.333,-1.598 0.036,-0.926 1.03,-3.134 0.074,-0.156 -0.03,-0.339 -0.136,-0.38 -0.176,-0.063 -0.156,-0.006 -0.156,-0.006 z"
     id="path652" />
  <path
     style="fill:#231f20;fill-opacity:1;fill-rule:nonzero;stroke:none"
     d="m 243.80337,65.580686 c -0.756,-1.046 -2.166,0.418 -2.593,0.745999 -0.433,0.333 -1.772,1.13 -2.891,1.62 -1.12,0.494 -2.313,1.577 -4.442,2.516 -1.12,0.484 -1.896,1.676 -1.115,3.27 0.776,1.578 1.948,1.739 3.213,0.938 1.271,-0.803 2.12,-2.084 3.339,-2.98 1.219,-0.89 2.541,-1.692 3.609,-2.271 1.219,-0.656 1.578,-1.432 1.536,-1.905 -0.114,-1.194 -0.656,-1.933999 -0.656,-1.933999"
     id="path653" />
  <path
     style="fill:none;stroke:#231f20;stroke-width:0.565977;stroke-linecap:butt;stroke-linejoin:miter;stroke-miterlimit:4;stroke-dasharray:none;stroke-opacity:1"
     d="m 243.80337,65.580686 c -0.756,-1.046 -2.166,0.418 -2.593,0.745999 -0.433,0.333 -1.772,1.13 -2.891,1.62 -1.12,0.494 -2.313,1.577 -4.442,2.516 -1.12,0.484 -1.896,1.676 -1.115,3.27 0.776,1.578 1.948,1.739 3.213,0.938 1.271,-0.803 2.12,-2.084 3.339,-2.98 1.219,-0.89 2.541,-1.692 3.609,-2.271 1.219,-0.656 1.578,-1.432 1.536,-1.905 -0.114,-1.194 -0.656,-1.933999 -0.656,-1.933999 z"
     id="path654" />
  <path
     style="fill:#231f20;fill-opacity:1;fill-rule:nonzero;stroke:none"
     d="m 248.56337,58.747686 c 0.084,0.641 -0.984,2.261 -1.292,3.844 -0.202,1.063 -1.77,3.319 -1.89,4.395999 -0.114,0.989 -0.26,1.427 -1.406,1.495 -0.688,0.037 -2.021,-0.328 -2.073,-0.844 -0.125,-1.176 0.156,-2.082999 0.677,-3.014999 0.594,-1.063 2.459,-3.797 2.85,-4.276 0.973,-1.167 0.989,-1.901 1.218,-2.24 0.432,-0.631 0.776,-0.615 1.244,-0.432 0.886,0.364 0.672,1.072 0.672,1.072"
     id="path655" />
  <path
     style="fill:none;stroke:#231f20;stroke-width:0.565977;stroke-linecap:butt;stroke-linejoin:miter;stroke-miterlimit:4;stroke-dasharray:none;stroke-opacity:1"
     d="m 248.56337,58.747686 c 0.084,0.641 -0.984,2.261 -1.292,3.844 -0.202,1.063 -1.77,3.319 -1.89,4.395999 -0.114,0.989 -0.26,1.427 -1.406,1.495 -0.688,0.037 -2.021,-0.328 -2.073,-0.844 -0.125,-1.176 0.156,-2.082999 0.677,-3.014999 0.594,-1.063 2.459,-3.797 2.85,-4.276 0.973,-1.167 0.989,-1.901 1.218,-2.24 0.432,-0.631 0.776,-0.615 1.244,-0.432 0.886,0.364 0.672,1.072 0.672,1.072 z"
     id="path656" />
  <path
     style="fill:#231f20;fill-opacity:1;fill-rule:nonzero;stroke:none"
     d="m 253.78237,57.722686 c -0.708,0.202 -3.953,-0.027 -4.687,-0.115 -0.661,-0.079 -1.792,0.156 -2.161,-0.937 -0.163,-0.432 -0.068,-1.188 0.047,-1.48 0.098,-0.244 0.421,-0.307 0.801,-0.224 0.656,0.13 0.797,0.428 2.027,0.756 0,0 0.286,0.125 0.765,0.385 1.453,0.735 0.74,0.541 3.093,1.151 0.162,0.041 0.24,0.234 0.204,0.338 -0.062,0.183 -0.089,0.126 -0.089,0.126"
     id="path657" />
  <path
     style="fill:none;stroke:#231f20;stroke-width:0.565977;stroke-linecap:round;stroke-linejoin:round;stroke-miterlimit:4;stroke-dasharray:none;stroke-opacity:1"
     d="m 253.78237,57.722686 c -0.708,0.202 -3.953,-0.027 -4.687,-0.115 -0.661,-0.079 -1.792,0.156 -2.161,-0.937 -0.163,-0.432 -0.068,-1.188 0.047,-1.48 0.098,-0.244 0.421,-0.307 0.801,-0.224 0.656,0.13 0.797,0.428 2.027,0.756 0,0 0.286,0.125 0.765,0.385 1.453,0.735 0.74,0.541 3.093,1.151 0.162,0.041 0.24,0.234 0.204,0.338 -0.062,0.183 -0.089,0.126 -0.089,0.126 z"
     id="path658" />
  <path
     style="fill:#231f20;fill-opacity:1;fill-rule:nonzero;stroke:none"
     d="m 238.96537,55.795686 c 0.526,1.181 -1.454,1.661 -1.959,1.859 -0.5,0.208 -1.864,0.953 -2.853,1.677 -0.995,0.708 -2.538,1.188 -4.423,2.552 -0.989,0.713 -2.411,0.781 -3.385,-0.703 -0.968,-1.464 -0.511,-2.557 0.822,-3.245 1.334,-0.688 2.866,-0.765 4.262,-1.364 1.385,-0.6 2.749,-1.333 3.785,-1.964 1.183,-0.719 2.032,-0.631 2.417,-0.355 0.974,0.699 1.334,1.543 1.334,1.543"
     id="path659" />
  <path
     style="fill:none;stroke:#231f20;stroke-width:0.565977;stroke-linecap:butt;stroke-linejoin:miter;stroke-miterlimit:4;stroke-dasharray:none;stroke-opacity:1"
     d="m 238.96537,55.795686 c 0.526,1.181 -1.454,1.661 -1.959,1.859 -0.5,0.208 -1.864,0.953 -2.853,1.677 -0.995,0.708 -2.538,1.188 -4.423,2.552 -0.989,0.713 -2.411,0.781 -3.385,-0.703 -0.968,-1.464 -0.511,-2.557 0.822,-3.245 1.334,-0.688 2.866,-0.765 4.262,-1.364 1.385,-0.6 2.749,-1.333 3.785,-1.964 1.183,-0.719 2.032,-0.631 2.417,-0.355 0.974,0.699 1.334,1.543 1.334,1.543 z"
     id="path660" />
  <path
     style="fill:#231f20;fill-opacity:1;fill-rule:nonzero;stroke:none"
     d="m 247.24137,54.992686 c -0.536,-0.354 -2.47,-0.082 -4.022,-0.489 -1.052,-0.276 -3.76,0.172 -4.785,-0.188 -0.939,-0.317 -1.401,-0.375 -1.953,0.636 -0.328,0.599 -0.574,1.963 -0.131,2.229 1.011,0.62 1.948,0.755 3.016,0.687 1.213,-0.077 4.484,-0.588 5.083,-0.739 1.474,-0.37 2.146,-0.068 2.546,-0.13 0.751,-0.115 0.891,-0.438 0.923,-0.938 0.057,-0.953 -0.677,-1.068 -0.677,-1.068"
     id="path661" />
  <path
     style="fill:none;stroke:#231f20;stroke-width:0.565977;stroke-linecap:butt;stroke-linejoin:miter;stroke-miterlimit:4;stroke-dasharray:none;stroke-opacity:1"
     d="m 247.24137,54.992686 c -0.536,-0.354 -2.47,-0.082 -4.022,-0.489 -1.052,-0.276 -3.76,0.172 -4.785,-0.188 -0.939,-0.317 -1.401,-0.375 -1.953,0.636 -0.328,0.599 -0.574,1.963 -0.131,2.229 1.011,0.62 1.948,0.755 3.016,0.687 1.213,-0.077 4.484,-0.588 5.083,-0.739 1.474,-0.37 2.146,-0.068 2.546,-0.13 0.751,-0.115 0.891,-0.438 0.923,-0.938 0.057,-0.953 -0.677,-1.068 -0.677,-1.068 z"
     id="path662" />
  <path
     style="fill:#231f20;fill-opacity:1;fill-rule:nonzero;stroke:none"
     d="m 282.30937,33.867686 c -0.662,-0.072 -1.527,1.511 -3.371,2.193 -0.38,0.14 -0.619,0.432 -0.9,0.678 -1.136,0.989 -1.615,2.514 2.192,2.156 0.532,-0.058 2.349,-1.104 3.136,-1.115 1.859,-0.027 4.077,-2.505 3.776,-2.932 -0.625,-0.923 -4.833,-0.98 -4.833,-0.98"
     id="path663" />
  <path
     style="fill:none;stroke:#231f20;stroke-width:0.644548;stroke-linecap:round;stroke-linejoin:round;stroke-miterlimit:4;stroke-dasharray:none;stroke-opacity:1"
     d="m 282.30937,33.867686 c -0.662,-0.072 -1.527,1.511 -3.371,2.193 -0.38,0.14 -0.619,0.432 -0.9,0.678 -1.136,0.989 -1.615,2.514 2.192,2.156 0.532,-0.058 2.349,-1.104 3.136,-1.115 1.859,-0.027 4.077,-2.505 3.776,-2.932 -0.625,-0.923 -4.833,-0.98 -4.833,-0.98 z"
     id="path664" />
  <path
     style="fill:#231f20;fill-opacity:1;fill-rule:nonzero;stroke:none"
     d="m 283.88137,39.732686 c -0.323,0.578 -2.119,0.364 -3.744,1.468 -0.334,0.224 -0.708,0.251 -1.074,0.334 -1.468,0.349 -2.989,-0.146 -0.473,-3.031 0.348,-0.401 2.26,-1.271 2.724,-1.907 1.104,-1.5 4.405,-1.858 4.583,-1.369 0.39,1.052 -2.016,4.505 -2.016,4.505"
     id="path665" />
  <path
     style="fill:none;stroke:#231f20;stroke-width:0.644548;stroke-linecap:round;stroke-linejoin:round;stroke-miterlimit:4;stroke-dasharray:none;stroke-opacity:1"
     d="m 283.88137,39.732686 c -0.323,0.578 -2.119,0.364 -3.744,1.468 -0.334,0.224 -0.708,0.251 -1.074,0.334 -1.468,0.349 -2.989,-0.146 -0.473,-3.031 0.348,-0.401 2.26,-1.271 2.724,-1.907 1.104,-1.5 4.405,-1.858 4.583,-1.369 0.39,1.052 -2.016,4.505 -2.016,4.505 z"
     id="path666" />
  <path
     style="fill:#231f20;fill-opacity:1;fill-rule:nonzero;stroke:none"
     d="m 245.47537,61.790686 c 2.239,2.822 3.328,1.541 7.047,-0.136 4.068,-1.834 8.109,-4.178 10.359,-6.599 2.51,-2.699 2.996,-2.489 2.376,-4.308 -0.615,-1.812 -1.366,-1.583 -2.584,-1.984 -1.422,-0.464 -6.698,4.661 -11.094,6.459 -2.068,0.838 -7.546,1.521 -7.328,2.958 0.224,1.438 1.224,3.61 1.224,3.61"
     id="path667" />
  <path
     style="fill:none;stroke:#231f20;stroke-width:0.565977;stroke-linecap:butt;stroke-linejoin:miter;stroke-miterlimit:4;stroke-dasharray:none;stroke-opacity:1"
     d="m 245.47537,61.790686 c 2.239,2.822 3.328,1.541 7.047,-0.136 4.068,-1.834 8.109,-4.178 10.359,-6.599 2.51,-2.699 2.996,-2.489 2.376,-4.308 -0.615,-1.812 -1.366,-1.583 -2.584,-1.984 -1.422,-0.464 -6.698,4.661 -11.094,6.459 -2.068,0.838 -7.546,1.521 -7.328,2.958 0.224,1.438 1.224,3.61 1.224,3.61 z"
     id="path668" />
  <path
     style="fill:#231f20;fill-opacity:1;fill-rule:nonzero;stroke:none"
     d="m 263.00137,50.836686 c 0.969,2.052 1.224,2.662 3.286,1.244 0.527,-0.358 1.918,-1.462 2.287,-1.588 1.229,-0.416 2.615,-1.005 7.099,-5.822 0.693,-0.756 2.265,-1.954 3.308,-2.891 1.005,-0.917 -1.188,-1.964 -1.584,-1.615 -1.287,1.135 -2.359,1.588 -2.88,1.932 -0.355,0.24 -0.943,0.792 -2.506,1.355 -4.036,1.432 -4.593,3.145 -5.41,3.52 -2.35,1.068 -4.574,1.505 -4.538,2.172 0.063,1.079 0.938,1.693 0.938,1.693"
     id="path669" />
  <path
     style="fill:none;stroke:#231f20;stroke-width:0.565977;stroke-linecap:butt;stroke-linejoin:miter;stroke-miterlimit:4;stroke-dasharray:none;stroke-opacity:1"
     d="m 263.00137,50.836686 c 0.969,2.052 1.224,2.662 3.286,1.244 0.527,-0.358 1.918,-1.462 2.287,-1.588 1.229,-0.416 2.615,-1.005 7.099,-5.822 0.693,-0.756 2.265,-1.954 3.308,-2.891 1.005,-0.917 -1.188,-1.964 -1.584,-1.615 -1.287,1.135 -2.359,1.588 -2.88,1.932 -0.355,0.24 -0.943,0.792 -2.506,1.355 -4.036,1.432 -4.593,3.145 -5.41,3.52 -2.35,1.068 -4.574,1.505 -4.538,2.172 0.063,1.079 0.938,1.693 0.938,1.693 z"
     id="path670" />
  <path
     style="fill:#231f20;fill-opacity:1;fill-rule:nonzero;stroke:none"
     d="m 242.57437,56.555686 c -1.339,-3.344 0.312,-3.656 3.615,-6.052 3.604,-2.625 7.65,-4.969 10.864,-5.724 3.589,-0.844 3.646,-1.365 4.917,0.073 1.271,1.438 0.708,1.968 0.443,3.228 -0.298,1.464 -7.366,3.5 -11.104,6.434 -1.762,1.374 -5.068,5.796 -6.208,4.89 -1.131,-0.906 -2.527,-2.849 -2.527,-2.849"
     id="path671" />
  <path
     style="fill:none;stroke:#231f20;stroke-width:0.565977;stroke-linecap:butt;stroke-linejoin:miter;stroke-miterlimit:4;stroke-dasharray:none;stroke-opacity:1"
     d="m 242.57437,56.555686 c -1.339,-3.344 0.312,-3.656 3.615,-6.052 3.604,-2.625 7.65,-4.969 10.864,-5.724 3.589,-0.844 3.646,-1.365 4.917,0.073 1.271,1.438 0.708,1.968 0.443,3.228 -0.298,1.464 -7.366,3.5 -11.104,6.434 -1.762,1.374 -5.068,5.796 -6.208,4.89 -1.131,-0.906 -2.527,-2.849 -2.527,-2.849 z"
     id="path672" />
  <path
     style="fill:#fab41d;fill-opacity:1;fill-rule:nonzero;stroke:none"
     d="m 251.15837,55.044686 c -0.245,-0.426 -0.923,-0.74 -0.923,-0.74 0,0 -5.374,2.287 -8.041,0.678 l -0.193,-0.302 c 0.297,-1.213 -0.802,0.938 -1.454,1.291 -2.848,1.573 -7.78,2.871 -9.113,2.885 -1.833,0.011 -3.292,-2.052 -4.401,-0.186 0,0 -1.558,1.536 0.145,3.77 0.62,0.807 1.099,3.083 1.099,3.083 l 0.005,0.005 c 0.016,0.251 0.131,1.381999 0.661,2.261999 0.6,1 1.683,1.806 1.683,1.806 0,0 1.724,1.558 2.12,2.495 1.079,2.599 2.984,2.208 2.984,2.208 2.161,-0.025 1.317,-2.509 2.251,-4.088 0.676,-1.151 4.276,-4.764999 7.062,-6.447999 0.635,-0.38 3.042,-0.249 1.843,-0.604 l -0.167,-0.323 c -0.057,-3.109 4.62,-6.62 4.62,-6.62 0,0 0.068,-0.74 -0.181,-1.172"
     id="path673" />
  <path
     style="fill:none;stroke:#231f20;stroke-width:0.565977;stroke-linecap:butt;stroke-linejoin:miter;stroke-miterlimit:4;stroke-dasharray:none;stroke-opacity:1"
     d="m 251.15837,55.044686 c -0.245,-0.426 -0.923,-0.74 -0.923,-0.74 0,0 -5.374,2.287 -8.041,0.678 l -0.193,-0.302 c 0.297,-1.213 -0.802,0.938 -1.454,1.291 -2.848,1.573 -7.78,2.871 -9.113,2.885 -1.833,0.011 -3.292,-2.052 -4.401,-0.186 0,0 -1.558,1.536 0.145,3.77 0.62,0.807 1.099,3.083 1.099,3.083 l 0.005,0.005 c 0.016,0.251 0.131,1.381999 0.661,2.261999 0.6,1 1.683,1.806 1.683,1.806 0,0 1.724,1.558 2.12,2.495 1.079,2.599 2.984,2.208 2.984,2.208 2.161,-0.025 1.317,-2.509 2.251,-4.088 0.676,-1.151 4.276,-4.764999 7.062,-6.447999 0.635,-0.38 3.042,-0.249 1.843,-0.604 l -0.167,-0.323 c -0.057,-3.109 4.62,-6.62 4.62,-6.62 0,0 0.068,-0.74 -0.181,-1.172 z"
     id="path674" />
  <path
     style="fill:#231f20;fill-opacity:1;fill-rule:nonzero;stroke:none"
     d="m 222.82937,67.060685 c 2.448,-1.416999 5.272,-1.103999 6.313,0.692 1.041,1.792 -0.099,4.396 -2.541,5.814 -2.443,1.421 -5.267,1.109 -6.308,-0.688 -1.042,-1.798 0.093,-4.402 2.536,-5.818"
     id="path675" />
  <path
     style="fill:none;stroke:#231f20;stroke-width:0.565977;stroke-linecap:butt;stroke-linejoin:miter;stroke-miterlimit:4;stroke-dasharray:none;stroke-opacity:1"
     d="m 222.82937,67.060685 c 2.448,-1.416999 5.272,-1.103999 6.313,0.692 1.041,1.792 -0.099,4.396 -2.541,5.814 -2.443,1.421 -5.267,1.109 -6.308,-0.688 -1.042,-1.798 0.093,-4.402 2.536,-5.818 z"
     id="path676" />
  <path
     style="fill:#231f20;fill-opacity:1;fill-rule:nonzero;stroke:none"
     d="m 260.75137,46.752686 c -1.286,-1.864 -1.688,-2.39 0.572,-3.468 0.574,-0.276 2.23,-0.922 2.516,-1.182 0.98,-0.855 2.183,-1.766 8.604,-3.224 0.995,-0.23 2.819,-0.99 4.158,-1.422 1.29,-0.412 1.104,2.015 0.598,2.182 -1.625,0.548 -2.557,1.25 -3.114,1.521 -0.386,0.188 -1.156,0.421 -2.428,1.495 -3.255,2.776 -5.015,2.396 -5.75,2.922 -2.109,1.495 -3.598,3.208 -4.156,2.838 -0.901,-0.594 -1,-1.662 -1,-1.662"
     id="path677" />
  <path
     style="fill:none;stroke:#231f20;stroke-width:0.565977;stroke-linecap:butt;stroke-linejoin:miter;stroke-miterlimit:4;stroke-dasharray:none;stroke-opacity:1"
     d="m 260.75137,46.752686 c -1.286,-1.864 -1.688,-2.39 0.572,-3.468 0.574,-0.276 2.23,-0.922 2.516,-1.182 0.98,-0.855 2.183,-1.766 8.604,-3.224 0.995,-0.23 2.819,-0.99 4.158,-1.422 1.29,-0.412 1.104,2.015 0.598,2.182 -1.625,0.548 -2.557,1.25 -3.114,1.521 -0.386,0.188 -1.156,0.421 -2.428,1.495 -3.255,2.776 -5.015,2.396 -5.75,2.922 -2.109,1.495 -3.598,3.208 -4.156,2.838 -0.901,-0.594 -1,-1.662 -1,-1.662 z"
     id="path678" />
  <path
     style="fill:#fab41d;fill-opacity:1;fill-rule:nonzero;stroke:none"
     d="m 241.29337,55.112686 c 0.141,-0.317 0.865,-1.48 1.15,-1.849 1.844,-2.323 5.308,-4.219 6.251,-5.077 0.948,-0.86 4.187,4.88 4.187,4.88 l -0.676,1.301 c 0.598,0.172 0.093,0.161 0.093,0.161 l 1.604,0.158 c 0,0 3.448,5.473 2.511,5.837 -1.303,0.516 -5.35,2.756 -7.776,3.079 -1.339,0.172 -2.303,-0.162 -2.303,-0.162 0,0 -0.885,-3.697 -1.599,-4.937 -0.713,-1.235 -3.442,-3.391 -3.442,-3.391"
     id="path679" />
  <path
     style="fill:none;stroke:#231f20;stroke-width:0.565977;stroke-linecap:butt;stroke-linejoin:miter;stroke-miterlimit:4;stroke-dasharray:none;stroke-opacity:1"
     d="m 241.29337,55.112686 c 0.141,-0.317 0.865,-1.48 1.15,-1.849 1.844,-2.323 5.308,-4.219 6.251,-5.077 0.948,-0.86 4.187,4.88 4.187,4.88 l -0.676,1.301 c 0.598,0.172 0.093,0.161 0.093,0.161 l 1.604,0.158 c 0,0 3.448,5.473 2.511,5.837 -1.303,0.516 -5.35,2.756 -7.776,3.079 -1.339,0.172 -2.303,-0.162 -2.303,-0.162 0,0 -0.885,-3.697 -1.599,-4.937 -0.713,-1.235 -3.442,-3.391 -3.442,-3.391 z"
     id="path680" />
  <path
     style="fill:none;stroke:#231f20;stroke-width:0.565977;stroke-linecap:round;stroke-linejoin:round;stroke-miterlimit:4;stroke-dasharray:none;stroke-opacity:1"
     d="m 250.27137,51.894686 c 1.724,0.52 1.866,2.682 1.866,2.682 1.416,1.162 1.494,2.76 1.494,2.76"
     id="path681" />
  <path
     style="fill:#ffffff;fill-opacity:1;fill-rule:nonzero;stroke:none"
     d="m 304.17837,62.795686 c -0.036,-0.24 -1.177,-0.381 -1.151,-0.901 0.026,-0.527 0.798,-0.688 1.735,-2.448 l 0.009,-0.016 c 0.636,-1.312 1.72,-2.183 2.97,-2.224 2.078,-0.068 3.838,2.161 3.932,4.984 0.094,2.824 -1.511,5.165999 -3.588,5.239999 -1.984,0.068 -3.683,-1.978999 -3.907,-4.634999"
     id="path682" />
  <path
     style="fill:none;stroke:#231f20;stroke-width:0.565977;stroke-linecap:butt;stroke-linejoin:miter;stroke-miterlimit:4;stroke-dasharray:none;stroke-opacity:1"
     d="m 304.17837,62.795686 c -0.036,-0.24 -1.177,-0.381 -1.151,-0.901 0.026,-0.527 0.798,-0.688 1.735,-2.448 l 0.009,-0.016 c 0.636,-1.312 1.72,-2.183 2.97,-2.224 2.078,-0.068 3.838,2.161 3.932,4.984 0.094,2.824 -1.511,5.165999 -3.588,5.239999 -1.984,0.068 -3.683,-1.978999 -3.907,-4.634999 z"
     id="path683" />
  <path
     style="fill:#fab41d;fill-opacity:1;fill-rule:nonzero;stroke:none"
     d="m 308.67837,80.826685 c -0.088,3.136 0.24,3.812 0.579,4.672 2.129,5.374 -0.552,6.317 -3.376,5.718 -3.312,-0.702 -4.52,-0.88 -3.75,-7.136 0.208,-1.733 0.162,-8.509 0.162,-8.509 -0.35,-2.423 0.609,-4.969 1.833,-5.756 1.292,-0.828 0.839,-0.405 2.177,-0.953 1.271,-0.52 3.438,-0.208 4.094,0.838 0.636,1.006 -0.126,2.49 -0.938,4.776 -0.645,1.798 -0.781,6.35 -0.781,6.35"
     id="path684" />
  <path
     style="fill:none;stroke:#231f20;stroke-width:0.565977;stroke-linecap:butt;stroke-linejoin:miter;stroke-miterlimit:4;stroke-dasharray:none;stroke-opacity:1"
     d="m 308.67837,80.826685 c -0.088,3.136 0.24,3.812 0.579,4.672 2.129,5.374 -0.552,6.317 -3.376,5.718 -3.312,-0.702 -4.52,-0.88 -3.75,-7.136 0.208,-1.733 0.162,-8.509 0.162,-8.509 -0.35,-2.423 0.609,-4.969 1.833,-5.756 1.292,-0.828 0.839,-0.405 2.177,-0.953 1.271,-0.52 3.438,-0.208 4.094,0.838 0.636,1.006 -0.126,2.49 -0.938,4.776 -0.645,1.798 -0.781,6.35 -0.781,6.35 z"
     id="path685" />
  <path
     style="fill:#231f20;fill-opacity:1;fill-rule:nonzero;stroke:none"
     d="m 316.92337,52.815686 c -0.578,0.287 -1.322,2.084 -2.464,3.224 -0.77,0.761 -1.754,3.323 -2.582,4.027 -0.751,0.645 -1.038,1.014 -0.443,2.01 0.348,0.583 1.4,1.484 1.853,1.239 1.047,-0.557 1.642,-1.301 2.126,-2.255 0.541,-1.089 1.76,-4.161 1.932,-4.75 0.426,-1.463 1.026,-1.891 1.177,-2.271 0.281,-0.703 0.079,-0.984 -0.339,-1.271 -0.797,-0.53 -1.26,0.047 -1.26,0.047"
     id="path686" />
  <path
     style="fill:none;stroke:#231f20;stroke-width:0.565977;stroke-linecap:butt;stroke-linejoin:miter;stroke-miterlimit:4;stroke-dasharray:none;stroke-opacity:1"
     d="m 316.92337,52.815686 c -0.578,0.287 -1.322,2.084 -2.464,3.224 -0.77,0.761 -1.754,3.323 -2.582,4.027 -0.751,0.645 -1.038,1.014 -0.443,2.01 0.348,0.583 1.4,1.484 1.853,1.239 1.047,-0.557 1.642,-1.301 2.126,-2.255 0.541,-1.089 1.76,-4.161 1.932,-4.75 0.426,-1.463 1.026,-1.891 1.177,-2.271 0.281,-0.703 0.079,-0.984 -0.339,-1.271 -0.797,-0.53 -1.26,0.047 -1.26,0.047 z"
     id="path687" />
  <path
     style="fill:#231f20;fill-opacity:1;fill-rule:nonzero;stroke:none"
     d="m 312.29337,60.596686 c -1.178,-0.53 -1.667,1.448 -1.88,1.948 -0.208,0.495 -0.964,1.855 -1.688,2.844 -0.73,0.983999 -1.219,2.525999 -2.594,4.395999 -0.724,0.99 -0.802,2.406 0.672,3.391 1.459,0.979 2.558,0.531 3.25,-0.792 0.698,-1.323 0.797,-2.864 1.406,-4.249 0.604,-1.387 1.355,-2.734999 1.99,-3.766999 0.729,-1.181 0.652,-2.031 0.37,-2.421 -0.688,-0.975 -1.526,-1.35 -1.526,-1.35"
     id="path688" />
  <path
     style="fill:none;stroke:#231f20;stroke-width:0.565977;stroke-linecap:butt;stroke-linejoin:miter;stroke-miterlimit:4;stroke-dasharray:none;stroke-opacity:1"
     d="m 312.29337,60.596686 c -1.178,-0.53 -1.667,1.448 -1.88,1.948 -0.208,0.495 -0.964,1.855 -1.688,2.844 -0.73,0.983999 -1.219,2.525999 -2.594,4.395999 -0.724,0.99 -0.802,2.406 0.672,3.391 1.459,0.979 2.558,0.531 3.25,-0.792 0.698,-1.323 0.797,-2.864 1.406,-4.249 0.604,-1.387 1.355,-2.734999 1.99,-3.766999 0.729,-1.181 0.652,-2.031 0.37,-2.421 -0.688,-0.975 -1.526,-1.35 -1.526,-1.35 z"
     id="path689" />
  <path
     style="fill:#231f20;fill-opacity:1;fill-rule:nonzero;stroke:none"
     d="m 320.39737,46.795686 c -0.558,0.457 -2.203,3.265 -2.552,3.921 -0.312,0.588 -1.146,1.386 -0.459,2.318 0.281,0.376 0.948,0.724 1.256,0.792 0.255,0.062 0.495,-0.162 0.645,-0.536 0.256,-0.61 0.094,-0.886 0.516,-2.09 0,0 0.058,-0.306 0.126,-0.848 0.208,-1.62 -0.032,-0.922 0.79,-3.198 0.063,-0.167 -0.057,-0.344 -0.172,-0.37 -0.17,-0.046 -0.15,0.011 -0.15,0.011"
     id="path690" />
  <path
     style="fill:none;stroke:#231f20;stroke-width:0.565977;stroke-linecap:round;stroke-linejoin:round;stroke-miterlimit:4;stroke-dasharray:none;stroke-opacity:1"
     d="m 320.39737,46.795686 c -0.558,0.457 -2.203,3.265 -2.552,3.921 -0.312,0.588 -1.146,1.386 -0.459,2.318 0.281,0.376 0.948,0.724 1.256,0.792 0.255,0.062 0.495,-0.162 0.645,-0.536 0.256,-0.61 0.094,-0.886 0.516,-2.09 0,0 0.058,-0.306 0.126,-0.848 0.208,-1.62 -0.032,-0.922 0.79,-3.198 0.063,-0.167 -0.057,-0.344 -0.172,-0.37 -0.17,-0.046 -0.15,0.011 -0.15,0.011 z"
     id="path691" />
  <path
     style="fill:#231f20;fill-opacity:1;fill-rule:nonzero;stroke:none"
     d="m 306.24137,106.52869 c 2.229,-0.394 2.718,-0.172 2.953,0.756 0.151,0.62 0.505,1.146 0.62,1.516 0.369,1.244 0.479,3.484 -0.865,9.932 -0.302,1.463 -0.719,3.52 -0.823,4.37 -0.161,1.349 -2.287,0.166 -2.229,-0.364 0.182,-1.704 0.172,-2.891 0.156,-3.516 -0.01,-0.427 0.068,-1.183 -0.187,-2.828 -0.396,-2.5 -1,-3.938 -1.089,-6.047 -0.036,-0.98 -0.692,-1.693 -0.239,-2.677 0.452,-0.99 1.703,-1.142 1.703,-1.142"
     id="path692" />
  <path
     style="fill:none;stroke:#231f20;stroke-width:0.565977;stroke-linecap:butt;stroke-linejoin:miter;stroke-miterlimit:4;stroke-dasharray:none;stroke-opacity:1"
     d="m 306.24137,106.52869 c 2.229,-0.394 2.718,-0.172 2.953,0.756 0.151,0.62 0.505,1.146 0.62,1.516 0.369,1.244 0.479,3.484 -0.865,9.932 -0.302,1.463 -0.719,3.52 -0.823,4.37 -0.161,1.349 -2.287,0.166 -2.229,-0.364 0.182,-1.704 0.172,-2.891 0.156,-3.516 -0.01,-0.427 0.068,-1.183 -0.187,-2.828 -0.396,-2.5 -1,-3.938 -1.089,-6.047 -0.036,-0.98 -0.692,-1.693 -0.239,-2.677 0.452,-0.99 1.703,-1.142 1.703,-1.142 z"
     id="path693" />
  <path
     style="fill:#231f20;fill-opacity:1;fill-rule:nonzero;stroke:#231f20;stroke-width:0.565977;stroke-linecap:round;stroke-linejoin:miter;stroke-miterlimit:4;stroke-dasharray:none;stroke-opacity:1"
     d="m 304.79337,108.56069 c -1.026,-0.874 -0.662,-2.865 -0.75,-3.182 -1.318,-4.834 -1.292,-5.214 -2.037,-8.964005 -1.077,-5.422 -0.984,-9.296 1.984,-10.843 2.016,-1.057 3.631,-0.787 4.631,0.077 1.104,0.954 2.276,3.907 0.584,6.24 l -0.131,1.708 c 0.068,1.162 0.088,1.74 0.167,2.308 0.13,0.995 0.208,2.067 0.36,4.02 0.27,3.454005 -0.579,7.210005 -0.579,7.210005 0.016,0.312 -0.088,0.566 -0.251,0.78"
     id="path694" />
  <path
     style="fill:#fab41d;fill-opacity:1;fill-rule:nonzero;stroke:none"
     d="m 301.61037,88.914685 c 0.339,-1.515 1.073,-2.667 2.38,-3.343 2.016,-1.057 3.636,-0.787 4.631,0.077 1.104,0.954 2.276,3.907 0.584,6.24 l -7.71,1.318 c -0.066,-0.656 -0.098,-1.26 -0.104,-1.85 -0.025,-0.072 -0.057,-0.15 -0.088,-0.213 -0.38,-0.708 -0.136,-1.287 0.307,-2.229"
     id="path695" />
  <path
     style="fill:none;stroke:#231f20;stroke-width:0.565977;stroke-linecap:round;stroke-linejoin:round;stroke-miterlimit:4;stroke-dasharray:none;stroke-opacity:1"
     d="m 301.61037,88.914685 c 0.339,-1.515 1.073,-2.667 2.38,-3.343 2.016,-1.057 3.636,-0.787 4.631,0.077 1.104,0.954 2.276,3.907 0.584,6.24 l -7.71,1.318 c -0.066,-0.656 -0.098,-1.26 -0.104,-1.85 -0.025,-0.072 -0.057,-0.15 -0.088,-0.213 -0.38,-0.708 -0.136,-1.287 0.307,-2.229 z"
     id="path696" />
  <path
     style="fill:#231f20;fill-opacity:1;fill-rule:nonzero;stroke:none"
     d="m 307.85037,126.33669 c 1.084,-0.062 0.817,-1.286 0.579,-2.489 -0.058,-0.303 -0.09,-0.595 -0.172,-0.885 -0.339,-1.178 -1.156,-1.834 -3.104,0.437 -0.074,0.083 -1.918,1.271 -2.491,1.52 -2.739,1.167 -2.968,0.355 -2.739,1.167 0.151,0.542 0.662,0.552 1.287,0.546 0.853,-0.004 3.869,-0.28 4.333,-0.29 0.447,-0.011 2.307,-0.006 2.307,-0.006"
     id="path697" />
  <path
     style="fill:none;stroke:#231f20;stroke-width:0.565977;stroke-linecap:butt;stroke-linejoin:miter;stroke-miterlimit:4;stroke-dasharray:none;stroke-opacity:1"
     d="m 307.85037,126.33669 c 1.084,-0.062 0.817,-1.286 0.579,-2.489 -0.058,-0.303 -0.09,-0.595 -0.172,-0.885 -0.339,-1.178 -1.156,-1.834 -3.104,0.437 -0.074,0.083 -1.918,1.271 -2.491,1.52 -2.739,1.167 -2.968,0.355 -2.739,1.167 0.151,0.542 0.662,0.552 1.287,0.546 0.853,-0.004 3.869,-0.28 4.333,-0.29 0.447,-0.011 2.307,-0.006 2.307,-0.006 z"
     id="path699" />
  <path
     style="fill:#ffffff;fill-opacity:1;fill-rule:nonzero;stroke:none"
     d="m 65.465371,55.356686 c -0.01,-0.238 -1.125,-0.509 -1.041,-1.025 0.088,-0.521 0.875,-0.593 2.005,-2.235 l 0.009,-0.01 c 0.787,-1.23 1.964,-1.968 3.215,-1.859 2.067,0.167 3.557,2.588 3.323,5.401 -0.235,2.818 -2.099,4.958 -4.167,4.786 -1.984,-0.162 -3.428,-2.391 -3.344,-5.058"
     id="path701" />
  <path
     style="fill:none;stroke:#231f20;stroke-width:0.565977;stroke-linecap:butt;stroke-linejoin:miter;stroke-miterlimit:4;stroke-dasharray:none;stroke-opacity:1"
     d="m 65.465371,55.356686 c -0.01,-0.238 -1.125,-0.509 -1.041,-1.025 0.088,-0.521 0.875,-0.593 2.005,-2.235 l 0.009,-0.01 c 0.787,-1.23 1.964,-1.968 3.215,-1.859 2.067,0.167 3.557,2.588 3.323,5.401 -0.235,2.818 -2.099,4.958 -4.167,4.786 -1.984,-0.162 -3.428,-2.391 -3.344,-5.058 z"
     id="path702" />
  <path
     style="fill:#fab41d;fill-opacity:1;fill-rule:nonzero;stroke:none"
     d="m 67.834371,73.790685 c -0.448,3.104 -0.197,3.817 0.038,4.708 1.489,5.582 -1.282,6.208 -4.016,5.292 -3.208,-1.09 -4.385,-1.407 -2.896,-7.527 0.412,-1.697 1.145,-8.432 1.145,-8.432 -0.066,-2.447999 1.183,-4.864999 2.491,-5.499999 1.38,-0.672 0.88,-0.308 2.276,-0.699 1.322,-0.369 3.437,0.194 3.968,1.308 0.51,1.074 -0.416,2.459 -1.49,4.635999 -0.849,1.708 -1.516,6.214 -1.516,6.214"
     id="path703" />
  <path
     style="fill:none;stroke:#231f20;stroke-width:0.565977;stroke-linecap:butt;stroke-linejoin:miter;stroke-miterlimit:4;stroke-dasharray:none;stroke-opacity:1"
     d="m 67.834371,73.790685 c -0.448,3.104 -0.197,3.817 0.038,4.708 1.489,5.582 -1.282,6.208 -4.016,5.292 -3.208,-1.09 -4.385,-1.407 -2.896,-7.527 0.412,-1.697 1.145,-8.432 1.145,-8.432 -0.066,-2.447999 1.183,-4.864999 2.491,-5.499999 1.38,-0.672 0.88,-0.308 2.276,-0.699 1.322,-0.369 3.437,0.194 3.968,1.308 0.51,1.074 -0.416,2.459 -1.49,4.635999 -0.849,1.708 -1.516,6.214 -1.516,6.214 z"
     id="path704" />
  <path
     style="fill:#231f20;fill-opacity:1;fill-rule:nonzero;stroke:none"
     d="m 79.282371,46.924686 c -0.609,0.219 -1.557,1.918 -2.822,2.918 -0.855,0.666 -2.131,3.098 -3.031,3.702 -0.824,0.552 -1.152,0.891 -0.677,1.943 0.281,0.62 1.224,1.641 1.697,1.448 1.104,-0.432 1.781,-1.104 2.371,-1.995 0.666,-1.016 2.233,-3.932 2.473,-4.489 0.593,-1.407 1.24,-1.761 1.432,-2.12 0.36,-0.672 0.193,-0.975 -0.187,-1.303 -0.729,-0.624 -1.256,-0.104 -1.256,-0.104"
     id="path705" />
  <path
     style="fill:none;stroke:#231f20;stroke-width:0.565977;stroke-linecap:butt;stroke-linejoin:miter;stroke-miterlimit:4;stroke-dasharray:none;stroke-opacity:1"
     d="m 79.282371,46.924686 c -0.609,0.219 -1.557,1.918 -2.822,2.918 -0.855,0.666 -2.131,3.098 -3.031,3.702 -0.824,0.552 -1.152,0.891 -0.677,1.943 0.281,0.62 1.224,1.641 1.697,1.448 1.104,-0.432 1.781,-1.104 2.371,-1.995 0.666,-1.016 2.233,-3.932 2.473,-4.489 0.593,-1.407 1.24,-1.761 1.432,-2.12 0.36,-0.672 0.193,-0.975 -0.187,-1.303 -0.729,-0.624 -1.256,-0.104 -1.256,-0.104 z"
     id="path706" />
  <path
     style="fill:#231f20;fill-opacity:1;fill-rule:nonzero;stroke:none"
     d="m 73.777371,54.123686 c -1.109,-0.667 -1.823,1.239 -2.088,1.708 -0.271,0.473 -1.177,1.735 -2.011,2.631 -0.838,0.894 -1.5,2.369 -3.082,4.066 -0.839,0.896 -1.084,2.298 0.27,3.448 1.334,1.141999 2.479,0.818999 3.323,-0.41 0.844,-1.235 1.12,-2.756 1.885,-4.058 0.76,-1.308 1.662,-2.562 2.418,-3.51 0.858,-1.088 0.88,-1.943 0.645,-2.36 -0.573,-1.052 -1.36,-1.515 -1.36,-1.515"
     id="path707" />
  <path
     style="fill:none;stroke:#231f20;stroke-width:0.565977;stroke-linecap:butt;stroke-linejoin:miter;stroke-miterlimit:4;stroke-dasharray:none;stroke-opacity:1"
     d="m 73.777371,54.123686 c -1.109,-0.667 -1.823,1.239 -2.088,1.708 -0.271,0.473 -1.177,1.735 -2.011,2.631 -0.838,0.894 -1.5,2.369 -3.082,4.066 -0.839,0.896 -1.084,2.298 0.27,3.448 1.334,1.141999 2.479,0.818999 3.323,-0.41 0.844,-1.235 1.12,-2.756 1.885,-4.058 0.76,-1.308 1.662,-2.562 2.418,-3.51 0.858,-1.088 0.88,-1.943 0.645,-2.36 -0.573,-1.052 -1.36,-1.515 -1.36,-1.515 z"
     id="path708" />
  <path
     style="fill:#231f20;fill-opacity:1;fill-rule:nonzero;stroke:none"
     d="m 83.429371,41.347686 c -0.609,0.396 -2.568,2.989 -2.991,3.604 -0.38,0.547 -1.301,1.244 -0.724,2.249 0.235,0.402 0.86,0.828 1.158,0.934 0.244,0.088 0.509,-0.111 0.702,-0.459 0.328,-0.579 0.194,-0.871 0.755,-2.021 0,0 0.089,-0.292 0.224,-0.828 0.391,-1.579 0.073,-0.916 1.157,-3.079 0.078,-0.161 -0.021,-0.348 -0.13,-0.391 -0.167,-0.066 -0.151,-0.009 -0.151,-0.009"
     id="path709" />
  <path
     style="fill:none;stroke:#231f20;stroke-width:0.565977;stroke-linecap:round;stroke-linejoin:round;stroke-miterlimit:4;stroke-dasharray:none;stroke-opacity:1"
     d="m 83.429371,41.347686 c -0.609,0.396 -2.568,2.989 -2.991,3.604 -0.38,0.547 -1.301,1.244 -0.724,2.249 0.235,0.402 0.86,0.828 1.158,0.934 0.244,0.088 0.509,-0.111 0.702,-0.459 0.328,-0.579 0.194,-0.871 0.755,-2.021 0,0 0.089,-0.292 0.224,-0.828 0.391,-1.579 0.073,-0.916 1.157,-3.079 0.078,-0.161 -0.021,-0.348 -0.13,-0.391 -0.167,-0.066 -0.151,-0.009 -0.151,-0.009 z"
     id="path710" />
  <path
     style="fill:#231f20;fill-opacity:1;fill-rule:nonzero;stroke:none"
     d="m 62.435371,99.034685 c 2.26,-0.135 2.724,0.146 2.842,1.100005 0.079,0.629 0.371,1.192 0.437,1.572 0.224,1.281 0.079,3.521 -2.009,9.77 -0.469,1.412 -1.12,3.407 -1.324,4.24 -0.312,1.318 -2.29,-0.098 -2.17,-0.62 0.38,-1.672 0.509,-2.853 0.566,-3.468 0.032,-0.433 0.204,-1.172 0.136,-2.838 -0.104,-2.527 -0.536,-4.022 -0.374,-6.131 0.072,-0.979 -0.491,-1.765 0.072,-2.688005 0.562,-0.927 1.824,-0.937 1.824,-0.937"
     id="path711" />
  <path
     style="fill:none;stroke:#231f20;stroke-width:0.565977;stroke-linecap:butt;stroke-linejoin:miter;stroke-miterlimit:4;stroke-dasharray:none;stroke-opacity:1"
     d="m 62.435371,99.034685 c 2.26,-0.135 2.724,0.146 2.842,1.100005 0.079,0.629 0.371,1.192 0.437,1.572 0.224,1.281 0.079,3.521 -2.009,9.77 -0.469,1.412 -1.12,3.407 -1.324,4.24 -0.312,1.318 -2.29,-0.098 -2.17,-0.62 0.38,-1.672 0.509,-2.853 0.566,-3.468 0.032,-0.433 0.204,-1.172 0.136,-2.838 -0.104,-2.527 -0.536,-4.022 -0.374,-6.131 0.072,-0.979 -0.491,-1.765 0.072,-2.688005 0.562,-0.927 1.824,-0.937 1.824,-0.937 z"
     id="path712" />
  <path
     style="fill:#231f20;fill-opacity:1;fill-rule:nonzero;stroke:#231f20;stroke-width:0.565977;stroke-linecap:round;stroke-linejoin:miter;stroke-miterlimit:4;stroke-dasharray:none;stroke-opacity:1"
     d="m 60.763371,100.88869 c -0.918,-0.989005 -0.328,-2.922005 -0.376,-3.250005 -0.75,-4.952 -0.676,-5.328 -0.984,-9.14 -0.443,-5.506 0.098,-9.35 3.234,-10.542 2.12,-0.808 3.692,-0.354 4.583,0.615 0.99,1.077 1.813,4.145 -0.146,6.271 l -0.322,1.681 c -0.074,1.163 -0.12,1.735 -0.11,2.308 0.02,1.005 -0.026,2.079 -0.104,4.036 -0.13,3.464 -1.411,7.089 -1.411,7.089 -0.022,0.312005 -0.151,0.563005 -0.339,0.750005"
     id="path713" />
  <path
     style="fill:#fab41d;fill-opacity:1;fill-rule:nonzero;stroke:none"
     d="m 67.220371,78.571685 c -0.891,-0.969 -2.463,-1.423 -4.583,-0.615 -1.38,0.526 -2.245,1.583 -2.76,3.052 -0.548,0.88 -0.849,1.422 -0.562,2.178 0.025,0.061 0.046,0.14 0.062,0.218 -0.057,0.583 -0.1,1.192 -0.109,1.848 l 7.806,-0.41 c 1.959,-2.126 1.136,-5.194 0.146,-6.271"
     id="path714" />
  <path
     style="fill:none;stroke:#231f20;stroke-width:0.565977;stroke-linecap:round;stroke-linejoin:round;stroke-miterlimit:4;stroke-dasharray:none;stroke-opacity:1"
     d="m 67.220371,78.571685 c -0.891,-0.969 -2.463,-1.423 -4.583,-0.615 -1.38,0.526 -2.245,1.583 -2.76,3.052 -0.548,0.88 -0.849,1.422 -0.562,2.178 0.025,0.061 0.046,0.14 0.062,0.218 -0.057,0.583 -0.1,1.192 -0.109,1.848 l 7.806,-0.41 c 1.959,-2.126 1.136,-5.194 0.146,-6.271 z"
     id="path715" />
  <path
     style="fill:#231f20;fill-opacity:1;fill-rule:nonzero;stroke:none"
     d="m 63.960371,117.17569 c 0.787,-0.745 -0.208,-1.511 -1.167,-2.276 -0.24,-0.193 -0.448,-0.396 -0.697,-0.563 -1.021,-0.682 -2.068,-0.65 -2.095,2.339 -0.005,0.115 -0.64,2.203 -0.916,2.765 -1.338,2.662 -2.037,2.192 -1.338,2.662 0.464,0.317 0.854,-0.006 1.333,-0.412 0.645,-0.556 2.771,-2.714 3.12,-3.02 0.333,-0.303 1.76,-1.495 1.76,-1.495"
     id="path716" />
  <path
     style="fill:none;stroke:#231f20;stroke-width:0.565977;stroke-linecap:butt;stroke-linejoin:miter;stroke-miterlimit:4;stroke-dasharray:none;stroke-opacity:1"
     d="m 63.960371,117.17569 c 0.787,-0.745 -0.208,-1.511 -1.167,-2.276 -0.24,-0.193 -0.448,-0.396 -0.697,-0.563 -1.021,-0.682 -2.068,-0.65 -2.095,2.339 -0.005,0.115 -0.64,2.203 -0.916,2.765 -1.338,2.662 -2.037,2.192 -1.338,2.662 0.464,0.317 0.854,-0.006 1.333,-0.412 0.645,-0.556 2.771,-2.714 3.12,-3.02 0.333,-0.303 1.76,-1.495 1.76,-1.495 z"
     id="path717" />
  <path
     style="fill:#231f20;fill-opacity:1;fill-rule:nonzero;stroke:#231f20;stroke-width:0.565977;stroke-linecap:round;stroke-linejoin:round;stroke-miterlimit:4;stroke-dasharray:none;stroke-opacity:1"
     d="m 193.03337,62.571686 c 0,0 1.312,0.167 2.396,-0.251 1.088,-0.416 2.077,-1.338 2.077,-1.338 l -1.12,-3.099 -4.505,1.625 z"
     id="path718" />
  <path
     style="fill:#231f20;fill-opacity:1;fill-rule:nonzero;stroke:none"
     d="m 192.63737,44.914686 c 3.145,-1.75 2.063,-3.036 1.011,-6.979 -1.147,-4.312 -2.803,-8.683 -4.823,-11.292 -2.251,-2.921 -1.969,-3.359 -3.865,-3.041 -1.891,0.312 -1.787,1.084 -2.38,2.224 -0.688,1.328 3.516,7.364 4.568,11.994 0.5,2.172 0.276,7.694 1.729,7.708 1.457,0.016 3.76,-0.614 3.76,-0.614"
     id="path719" />
  <path
     style="fill:none;stroke:#231f20;stroke-width:0.565977;stroke-linecap:butt;stroke-linejoin:miter;stroke-miterlimit:4;stroke-dasharray:none;stroke-opacity:1"
     d="m 192.63737,44.914686 c 3.145,-1.75 2.063,-3.036 1.011,-6.979 -1.147,-4.312 -2.803,-8.683 -4.823,-11.292 -2.251,-2.921 -1.969,-3.359 -3.865,-3.041 -1.891,0.312 -1.787,1.084 -2.38,2.224 -0.688,1.328 3.516,7.364 4.568,11.994 0.5,2.172 0.276,7.694 1.729,7.708 1.457,0.016 3.76,-0.614 3.76,-0.614 z"
     id="path720" />
  <path
     style="fill:#231f20;fill-opacity:1;fill-rule:nonzero;stroke:none"
     d="m 184.68437,25.836686 c 2.182,-0.62 2.822,-0.77 1.76,-3.041 -0.266,-0.573 -1.135,-2.125 -1.198,-2.511 -0.208,-1.275 -0.562,-2.75 -4.593,-7.953 -0.625,-0.808 -1.552,-2.5519999 -2.313,-3.7339999 -0.735,-1.14 -2.13,0.854 -1.848,1.308 0.916,1.4479999 1.181,2.5819999 1.442,3.1499999 0.176,0.386 0.624,1.058 0.922,2.692 0.76,4.215 2.358,5.043 2.593,5.912 0.677,2.489 0.74,4.76 1.407,4.828 1.078,0.109 1.828,-0.651 1.828,-0.651"
     id="path721" />
  <path
     style="fill:none;stroke:#231f20;stroke-width:0.565977;stroke-linecap:butt;stroke-linejoin:miter;stroke-miterlimit:4;stroke-dasharray:none;stroke-opacity:1"
     d="m 184.68437,25.836686 c 2.182,-0.62 2.822,-0.77 1.76,-3.041 -0.266,-0.573 -1.135,-2.125 -1.198,-2.511 -0.208,-1.275 -0.562,-2.75 -4.593,-7.953 -0.625,-0.808 -1.552,-2.5519999 -2.313,-3.7339999 -0.735,-1.14 -2.13,0.854 -1.848,1.308 0.916,1.4479999 1.181,2.5819999 1.442,3.1499999 0.176,0.386 0.624,1.058 0.922,2.692 0.76,4.215 2.358,5.043 2.593,5.912 0.677,2.489 0.74,4.76 1.407,4.828 1.078,0.109 1.828,-0.651 1.828,-0.651 z"
     id="path722" />
  <path
     style="fill:#231f20;fill-opacity:1;fill-rule:nonzero;stroke:none"
     d="m 186.71037,46.842686 c -3.516,0.817 -3.568,-0.86 -5.448,-4.486 -2.052,-3.957 -3.766,-8.306 -4.032,-11.598 -0.296,-3.672 -0.796,-3.807 0.814,-4.848 1.609,-1.043 2.052,-0.402 3.26,0.041 1.401,0.52 2.353,7.812 4.686,11.948 1.1,1.943 4.975,5.88 3.912,6.869 -1.062,0.984 -3.192,2.074 -3.192,2.074"
     id="path723" />
  <path
     style="fill:none;stroke:#231f20;stroke-width:0.565977;stroke-linecap:butt;stroke-linejoin:miter;stroke-miterlimit:4;stroke-dasharray:none;stroke-opacity:1"
     d="m 186.71037,46.842686 c -3.516,0.817 -3.568,-0.86 -5.448,-4.486 -2.052,-3.957 -3.766,-8.306 -4.032,-11.598 -0.296,-3.672 -0.796,-3.807 0.814,-4.848 1.609,-1.043 2.052,-0.402 3.26,0.041 1.401,0.52 2.353,7.812 4.686,11.948 1.1,1.943 4.975,5.88 3.912,6.869 -1.062,0.984 -3.192,2.074 -3.192,2.074 z"
     id="path724" />
  <path
     style="fill:#fab41d;fill-opacity:1;fill-rule:nonzero;stroke:none"
     d="m 186.77737,38.216686 c 0.469,-0.166 1.188,0.031 1.188,0.031 0,0 2.636,5.215 5.708,5.709 l 0.344,-0.109 c 0.557,-1.12 0.011,1.229 0.271,1.916 1.166,3.041 4.093,7.219 5.109,8.089 1.396,1.192 3.984,0.796 3.63,2.932 0,0 0.052,1.943 -2.693,2.552 -0.989,0.219 -2.828,1.646 -2.828,1.646 -0.005,-0.042 -0.01,-0.083 -0.025,-0.126 -0.428,-1.176 -1.677,-1.478 -2.937,-1.046 l 0.066,-0.026 c -1.249,0.474 -1.989,1.568 -1.588,2.687 0.016,0.037 0.036,0.073 0.063,0.109 0,0 -2.328,0.079 -3.229,0.538 -2.5,1.292 -3.74,-0.511 -3.74,-0.511 -1.64,-1.417 0.646,-2.495 0.953,-4.303 0.224,-1.317 -0.192,-6.4 -1.24,-9.478 -0.239,-0.703 -2.161,-2.156 -1.015,-1.656 l 0.328,-0.136 c 2.052,-2.339 0.75,-8.036 0.75,-8.036 0,0 0.422,-0.615 0.885,-0.782"
     id="path725" />
  <path
     style="fill:none;stroke:#231f20;stroke-width:0.565977;stroke-linecap:butt;stroke-linejoin:miter;stroke-miterlimit:4;stroke-dasharray:none;stroke-opacity:1"
     d="m 186.77737,38.216686 c 0.469,-0.166 1.188,0.031 1.188,0.031 0,0 2.636,5.215 5.708,5.709 l 0.344,-0.109 c 0.557,-1.12 0.011,1.229 0.271,1.916 1.166,3.041 4.093,7.219 5.109,8.089 1.396,1.192 3.984,0.796 3.63,2.932 0,0 0.052,1.943 -2.693,2.552 -0.989,0.219 -2.828,1.646 -2.828,1.646 -0.005,-0.042 -0.01,-0.083 -0.025,-0.126 -0.428,-1.176 -1.677,-1.478 -2.937,-1.046 l 0.066,-0.026 c -1.249,0.474 -1.989,1.568 -1.588,2.687 0.016,0.037 0.036,0.073 0.063,0.109 0,0 -2.328,0.079 -3.229,0.538 -2.5,1.292 -3.74,-0.511 -3.74,-0.511 -1.64,-1.417 0.646,-2.495 0.953,-4.303 0.224,-1.317 -0.192,-6.4 -1.24,-9.478 -0.239,-0.703 -2.161,-2.156 -1.015,-1.656 l 0.328,-0.136 c 2.052,-2.339 0.75,-8.036 0.75,-8.036 0,0 0.422,-0.615 0.885,-0.782 z"
     id="path726" />
  <path
     style="fill:#ffffff;fill-opacity:1;fill-rule:nonzero;stroke:none"
     d="m 200.44937,64.971686 c -1.058,-2.615 -3.473,-4.109 -5.401,-3.333 -1.927,0.776 -2.63,3.532 -1.572,6.145999 1.052,2.626 3.473,4.115 5.396,3.339 1.926,-0.776 2.629,-3.527 1.577,-6.151999"
     id="path727" />
  <path
     style="fill:none;stroke:#231f20;stroke-width:0.565977;stroke-linecap:butt;stroke-linejoin:miter;stroke-miterlimit:4;stroke-dasharray:none;stroke-opacity:1"
     d="m 200.44937,64.971686 c -1.058,-2.615 -3.473,-4.109 -5.401,-3.333 -1.927,0.776 -2.63,3.532 -1.572,6.145999 1.052,2.626 3.473,4.115 5.396,3.339 1.926,-0.776 2.629,-3.527 1.577,-6.151999 z"
     id="path728" />
  <path
     style="fill:#231f20;fill-opacity:1;fill-rule:nonzero;stroke:none"
     d="m 179.73637,27.399686 c -2.031,0.995 -2.615,1.312 -3.344,-1.084 -0.182,-0.609 -0.578,-2.344 -0.787,-2.672 -0.703,-1.088 -1.416,-2.416 -1.9,-8.984 -0.079,-1.021 -0.557,-2.932 -0.776,-4.322 -0.219,-1.3439999 2.151,-0.7919999 2.244,-0.266 0.292,1.687 0.849,2.708 1.037,3.307 0.13,0.407 0.239,1.208 1.11,2.62 2.26,3.64 1.618,5.322 2.025,6.13 1.167,2.302 2.636,4.036 2.188,4.531 -0.724,0.803 -1.797,0.74 -1.797,0.74"
     id="path729" />
  <path
     style="fill:none;stroke:#231f20;stroke-width:0.565977;stroke-linecap:butt;stroke-linejoin:miter;stroke-miterlimit:4;stroke-dasharray:none;stroke-opacity:1"
     d="m 179.73637,27.399686 c -2.031,0.995 -2.615,1.312 -3.344,-1.084 -0.182,-0.609 -0.578,-2.344 -0.787,-2.672 -0.703,-1.088 -1.416,-2.416 -1.9,-8.984 -0.079,-1.021 -0.557,-2.932 -0.776,-4.322 -0.219,-1.3439999 2.151,-0.7919999 2.244,-0.266 0.292,1.687 0.849,2.708 1.037,3.307 0.13,0.407 0.239,1.208 1.11,2.62 2.26,3.64 1.618,5.322 2.025,6.13 1.167,2.302 2.636,4.036 2.188,4.531 -0.724,0.803 -1.797,0.74 -1.797,0.74 z"
     id="path730" />
  <path
     style="fill:#fab41d;fill-opacity:1;fill-rule:nonzero;stroke:none"
     d="m 185.11637,47.940686 c -0.291,-0.193 -1.312,-1.109 -1.62,-1.453 -1.968,-2.224 -3.228,-5.968 -3.906,-7.047 -0.677,-1.078 5.547,-3.265 5.547,-3.265 l 1.088,1.62 c 0.276,-0.557 0.923,-0.344 0.923,-0.344 l -0.24,-2 c 0,0 5.989,-2.432 6.188,-1.443 0.276,1.37 1.77,5.75 1.661,8.192 -0.063,1.344 -0.563,2.24 -0.563,2.24 0,0 -3.792,0.219 -5.136,0.708 -1.344,0.484 -3.942,2.792 -3.942,2.792"
     id="path731" />
  <path
     style="fill:none;stroke:#231f20;stroke-width:0.565977;stroke-linecap:butt;stroke-linejoin:miter;stroke-miterlimit:4;stroke-dasharray:none;stroke-opacity:1"
     d="m 185.11637,47.940686 c -0.291,-0.193 -1.312,-1.109 -1.62,-1.453 -1.968,-2.224 -3.228,-5.968 -3.906,-7.047 -0.677,-1.078 5.547,-3.265 5.547,-3.265 l 1.088,1.62 c 0.276,-0.557 0.923,-0.344 0.923,-0.344 l -0.24,-2 c 0,0 5.989,-2.432 6.188,-1.443 0.276,1.37 1.77,5.75 1.661,8.192 -0.063,1.344 -0.563,2.24 -0.563,2.24 0,0 -3.792,0.219 -5.136,0.708 -1.344,0.484 -3.942,2.792 -3.942,2.792 z"
     id="path732" />
  <path
     style="fill:#231f20;fill-opacity:1;fill-rule:nonzero;stroke:none"
     d="m 170.62637,4.8836861 c -0.208,0.636 1.178,1.792 1.479,3.74 0.063,0.396 0.308,0.687 0.491,1.01 0.749,1.3129999 2.15,2.0839999 2.546,-1.723 0.052,-0.532 -0.614,-2.521 -0.474,-3.292 0.338,-1.828 -1.656,-4.48899998 -2.13,-4.28099998 -1.032,0.437 -1.912,4.54599998 -1.912,4.54599998"
     id="path733" />
  <path
     style="fill:none;stroke:#231f20;stroke-width:0.644548;stroke-linecap:round;stroke-linejoin:round;stroke-miterlimit:4;stroke-dasharray:none;stroke-opacity:1"
     d="m 170.62637,4.8836861 c -0.208,0.636 1.178,1.792 1.479,3.74 0.063,0.396 0.308,0.687 0.491,1.01 0.749,1.3129999 2.15,2.0839999 2.546,-1.723 0.052,-0.532 -0.614,-2.521 -0.474,-3.292 0.338,-1.828 -1.656,-4.48899998 -2.13,-4.28099998 -1.032,0.437 -1.912,4.54599998 -1.912,4.54599998 z"
     id="path734" />
  <path
     style="fill:#231f20;fill-opacity:1;fill-rule:nonzero;stroke:none"
     d="m 177.65737,4.1706861 c 0.505,0.432 -0.056,2.145 0.709,3.959 0.151,0.369 0.104,0.744 0.115,1.118 0.052,1.5059999 -0.735,2.9019999 -3.068,-0.129 -0.328,-0.423 -0.803,-2.464 -1.333,-3.047 -1.255,-1.381 -0.954,-4.688 -0.438,-4.766 1.104,-0.171 4.015,2.865 4.015,2.865"
     id="path735" />
  <path
     style="fill:none;stroke:#231f20;stroke-width:0.644548;stroke-linecap:round;stroke-linejoin:round;stroke-miterlimit:4;stroke-dasharray:none;stroke-opacity:1"
     d="m 177.65737,4.1706861 c 0.505,0.432 -0.056,2.145 0.709,3.959 0.151,0.369 0.104,0.744 0.115,1.118 0.052,1.5059999 -0.735,2.9019999 -3.068,-0.129 -0.328,-0.423 -0.803,-2.464 -1.333,-3.047 -1.255,-1.381 -0.954,-4.688 -0.438,-4.766 1.104,-0.171 4.015,2.865 4.015,2.865 z"
     id="path736" />
  <path
     style="fill:none;stroke:#231f20;stroke-width:0.49806;stroke-linecap:butt;stroke-linejoin:miter;stroke-miterlimit:4;stroke-dasharray:none;stroke-opacity:1"
     d="m 243.36137,40.128686 c 17.973,-33.6819999 16.156,30.593999 16.156,30.593999"
     id="path737" />
  <path
     style="fill:#231f20;fill-opacity:1;fill-rule:nonzero;stroke:none"
     d="m 259.47537,72.222685 c -0.245,-0.714 -0.666,-1.604 -1.125,-2.162 l 1.172,0.463 1.197,-0.395 c -0.489,0.531 -0.962,1.395 -1.244,2.094"
     id="path738" />
  <path
     style="fill:none;stroke:#231f20;stroke-width:0.49806;stroke-linecap:butt;stroke-linejoin:miter;stroke-miterlimit:4;stroke-dasharray:none;stroke-opacity:1"
     d="m 145.44937,68.852685 c -3.989,37.963005 -26.468,-22.275999 -26.468,-22.275999"
     id="path739" />
  <path
     style="fill:#231f20;fill-opacity:1;fill-rule:nonzero;stroke:none"
     d="m 118.45437,45.170686 c 0.49,0.573 1.219,1.24 1.855,1.582 l -1.261,0.011 -0.958,0.817 c 0.25,-0.676 0.364,-1.656 0.364,-2.41"
     id="path740" />
  <path
     style="fill:#ffffff;fill-opacity:1;fill-rule:nonzero;stroke:none"
     d="m 19.288371,66.003686 c -0.156,-0.183 -1.197,0.300999 -1.459,-0.151 -0.254,-0.458 0.314,-1.005 0.167,-2.996 l 0.005,-0.014 c -0.161,-1.454 0.292,-2.762 1.334,-3.464 1.718,-1.162 4.401,-0.214 5.98,2.13 1.582,2.339 1.468,5.177999 -0.251,6.343999 -1.645,1.11 -4.172,0.282 -5.776,-1.848999"
     id="path741" />
  <path
     style="fill:none;stroke:#231f20;stroke-width:0.565977;stroke-linecap:butt;stroke-linejoin:miter;stroke-miterlimit:4;stroke-dasharray:none;stroke-opacity:1"
     d="m 19.288371,66.003686 c -0.156,-0.183 -1.197,0.300999 -1.459,-0.151 -0.254,-0.458 0.314,-1.005 0.167,-2.996 l 0.005,-0.014 c -0.161,-1.454 0.292,-2.762 1.334,-3.464 1.718,-1.162 4.401,-0.214 5.98,2.13 1.582,2.339 1.468,5.177999 -0.251,6.343999 -1.645,1.11 -4.172,0.282 -5.776,-1.848999 z"
     id="path742" />
  <path
     style="fill:#fab41d;fill-opacity:1;fill-rule:nonzero;stroke:none"
     d="m 33.487371,78.274685 c 1.828,2.546 2.504,2.896 3.285,3.369 4.948,3 3.387,5.365 0.776,6.595 -3.067,1.452 -4.135,2.036 -7.307,-3.412 -0.88,-1.506 -5.016,-6.87 -5.016,-6.87 -1.744,-1.724 -2.52,-4.328 -2.014,-5.698 0.525,-1.438 0.421,-0.828 1.156,-2.072 0.697,-1.188 2.609,-2.246 3.765,-1.808 1.115,0.417 1.407,2.057 2.136,4.369 0.577,1.819 3.219,5.527 3.219,5.527"
     id="path743" />
  <path
     style="fill:none;stroke:#231f20;stroke-width:0.565977;stroke-linecap:butt;stroke-linejoin:miter;stroke-miterlimit:4;stroke-dasharray:none;stroke-opacity:1"
     d="m 33.487371,78.274685 c 1.828,2.546 2.504,2.896 3.285,3.369 4.948,3 3.387,5.365 0.776,6.595 -3.067,1.452 -4.135,2.036 -7.307,-3.412 -0.88,-1.506 -5.016,-6.87 -5.016,-6.87 -1.744,-1.724 -2.52,-4.328 -2.014,-5.698 0.525,-1.438 0.421,-0.828 1.156,-2.072 0.697,-1.188 2.609,-2.246 3.765,-1.808 1.115,0.417 1.407,2.057 2.136,4.369 0.577,1.819 3.219,5.527 3.219,5.527 z"
     id="path744" />
  <path
     style="fill:#231f20;fill-opacity:1;fill-rule:nonzero;stroke:none"
     d="m 7.0643711,68.066685 c 0.432,0.478 2.365,0.713 3.7649999,1.5 0.948,0.541 3.678,0.796 4.584,1.4 0.823,0.548 1.255,0.724 2.052,-0.11 0.47,-0.494 1.052,-1.754 0.694,-2.124 -0.824,-0.86 -1.694,-1.229 -2.746,-1.433 -1.188,-0.233 -4.478,-0.577 -5.098,-0.583 -1.5269999,-0.016 -2.0949999,-0.478 -2.4949999,-0.526 -0.761,-0.072 -0.98,0.193 -1.131,0.672 -0.302,0.906 0.375,1.204 0.375,1.204"
     id="path745" />
  <path
     style="fill:none;stroke:#231f20;stroke-width:0.565977;stroke-linecap:butt;stroke-linejoin:miter;stroke-miterlimit:4;stroke-dasharray:none;stroke-opacity:1"
     d="m 7.0643711,68.066685 c 0.432,0.478 2.365,0.713 3.7649999,1.5 0.948,0.541 3.678,0.796 4.584,1.4 0.823,0.548 1.255,0.724 2.052,-0.11 0.47,-0.494 1.052,-1.754 0.694,-2.124 -0.824,-0.86 -1.694,-1.229 -2.746,-1.433 -1.188,-0.233 -4.478,-0.577 -5.098,-0.583 -1.5269999,-0.016 -2.0949999,-0.478 -2.4949999,-0.526 -0.761,-0.072 -0.98,0.193 -1.131,0.672 -0.302,0.906 0.375,1.204 0.375,1.204 z"
     id="path746" />
  <path
     style="fill:#231f20;fill-opacity:1;fill-rule:nonzero;stroke:none"
     d="m 15.815371,70.424685 c -0.199,1.276 1.838,1.219 2.374,1.287 0.542,0.063 2.052,0.423 3.192,0.86 1.152,0.432 2.767,0.489 4.939,1.307 1.145,0.432 2.536,0.125 3.088,-1.563 0.547,-1.667 -0.183,-2.604 -1.64,-2.916 -1.469,-0.308 -2.975,0.011 -4.475,-0.204 -1.494,-0.208 -3,-0.567 -4.172,-0.905 -1.328,-0.38 -2.12,-0.074 -2.426,0.301 -0.751,0.928 -0.88,1.833 -0.88,1.833"
     id="path747" />
  <path
     style="fill:none;stroke:#231f20;stroke-width:0.565977;stroke-linecap:butt;stroke-linejoin:miter;stroke-miterlimit:4;stroke-dasharray:none;stroke-opacity:1"
     d="m 15.815371,70.424685 c -0.199,1.276 1.838,1.219 2.374,1.287 0.542,0.063 2.052,0.423 3.192,0.86 1.152,0.432 2.767,0.489 4.939,1.307 1.145,0.432 2.536,0.125 3.088,-1.563 0.547,-1.667 -0.183,-2.604 -1.64,-2.916 -1.469,-0.308 -2.975,0.011 -4.475,-0.204 -1.494,-0.208 -3,-0.567 -4.172,-0.905 -1.328,-0.38 -2.12,-0.074 -2.426,0.301 -0.751,0.928 -0.88,1.833 -0.88,1.833 z"
     id="path748" />
  <path
     style="fill:#231f20;fill-opacity:1;fill-rule:nonzero;stroke:none"
     d="m 0.32937112,66.347685 c 0.6,0.411 3.74599998,1.239 4.46999998,1.396 0.65,0.14 1.65,0.728 2.354,-0.183 0.286,-0.374 0.443,-1.109 0.427,-1.426 -0.011,-0.255999 -0.297,-0.427999 -0.693,-0.479999 -0.662,-0.074 -0.875,0.156 -2.156,0.078 0,0 -0.302,0.02 -0.844,0.099 -1.619,0.244999 -0.886,0.286999 -3.29599998,0.104 -0.172,-0.016 -0.314,0.150999 -0.308,0.264999 0,0.172 0.046,0.147 0.046,0.147"
     id="path749" />
  <path
     style="fill:none;stroke:#231f20;stroke-width:0.565977;stroke-linecap:round;stroke-linejoin:round;stroke-miterlimit:4;stroke-dasharray:none;stroke-opacity:1"
     d="m 0.32937112,66.347685 c 0.6,0.411 3.74599998,1.239 4.46999998,1.396 0.65,0.14 1.65,0.728 2.354,-0.183 0.286,-0.374 0.443,-1.109 0.427,-1.426 -0.011,-0.255999 -0.297,-0.427999 -0.693,-0.479999 -0.662,-0.074 -0.875,0.156 -2.156,0.078 0,0 -0.302,0.02 -0.844,0.099 -1.619,0.244999 -0.886,0.286999 -3.29599998,0.104 -0.172,-0.016 -0.314,0.150999 -0.308,0.264999 0,0.172 0.046,0.147 0.046,0.147 z"
     id="path750" />
  <path
     style="fill:#231f20;fill-opacity:1;fill-rule:nonzero;stroke:none"
     d="m 35.231371,104.45169 c 1.974,-1.104 2.51,-1.052 3.032,-0.245 0.348,0.532 0.853,0.906 1.082,1.224 0.756,1.052 1.594,3.136 2.438,9.666 0.193,1.48 0.469,3.558 0.656,4.391 0.286,1.328 -2.11,0.912 -2.228,0.391 -0.386,-1.672 -0.782,-2.792 -1.006,-3.37 -0.146,-0.401 -0.318,-1.146 -1.104,-2.609 -1.188,-2.235 -2.229,-3.396 -3.005,-5.365 -0.36,-0.906 -1.209,-1.37 -1.109,-2.448 0.104,-1.078 1.244,-1.635 1.244,-1.635"
     id="path751" />
  <path
     style="fill:none;stroke:#231f20;stroke-width:0.565977;stroke-linecap:butt;stroke-linejoin:miter;stroke-miterlimit:4;stroke-dasharray:none;stroke-opacity:1"
     d="m 35.231371,104.45169 c 1.974,-1.104 2.51,-1.052 3.032,-0.245 0.348,0.532 0.853,0.906 1.082,1.224 0.756,1.052 1.594,3.136 2.438,9.666 0.193,1.48 0.469,3.558 0.656,4.391 0.286,1.328 -2.11,0.912 -2.228,0.391 -0.386,-1.672 -0.782,-2.792 -1.006,-3.37 -0.146,-0.401 -0.318,-1.146 -1.104,-2.609 -1.188,-2.235 -2.229,-3.396 -3.005,-5.365 -0.36,-0.906 -1.209,-1.37 -1.109,-2.448 0.104,-1.078 1.244,-1.635 1.244,-1.635 z"
     id="path752" />
  <path
     style="fill:#231f20;fill-opacity:1;fill-rule:nonzero;stroke:#231f20;stroke-width:0.565977;stroke-linecap:round;stroke-linejoin:miter;stroke-miterlimit:4;stroke-dasharray:none;stroke-opacity:1"
     d="m 34.523371,106.84769 c -0.99,-0.912 -0.558,-2.891 -0.636,-3.209 -1.151,-4.875005 -1.104,-5.260005 -1.719,-9.031005 -0.885,-5.453 -0.656,-9.328 2.371,-10.771 2.052,-0.98 3.656,-0.65 4.62,0.244 1.072,0.991 2.14,3.986 0.358,6.262 l -0.188,1.702 c 0.027,1.162 0.027,1.74 0.084,2.312 0.099,0.996 0.14,2.074 0.224,4.032 0.146,3.464005 -0.838,7.172005 -0.838,7.172005 0.01,0.318 -0.104,0.578 -0.276,0.787"
     id="path753" />
  <path
     style="fill:#fab41d;fill-opacity:1;fill-rule:nonzero;stroke:none"
     d="m 39.159371,84.080685 c -0.964,-0.894 -2.568,-1.224 -4.62,-0.244 -1.334,0.635 -2.11,1.76 -2.5,3.266 -0.475,0.921 -0.735,1.489 -0.386,2.213 0.031,0.063 0.058,0.141 0.078,0.213 -0.011,0.59 -0.006,1.199 0.041,1.855 l 7.745,-1.041 c 1.782,-2.271 0.714,-5.271 -0.358,-6.262"
     id="path754" />
  <path
     style="fill:none;stroke:#231f20;stroke-width:0.565977;stroke-linecap:round;stroke-linejoin:round;stroke-miterlimit:4;stroke-dasharray:none;stroke-opacity:1"
     d="m 39.159371,84.080685 c -0.964,-0.894 -2.568,-1.224 -4.62,-0.244 -1.334,0.635 -2.11,1.76 -2.5,3.266 -0.475,0.921 -0.735,1.489 -0.386,2.213 0.031,0.063 0.058,0.141 0.078,0.213 -0.011,0.59 -0.006,1.199 0.041,1.855 l 7.745,-1.041 c 1.782,-2.271 0.714,-5.271 -0.358,-6.262 z"
     id="path755" />
  <path
     style="fill:#231f20;fill-opacity:1;fill-rule:nonzero;stroke:none"
     d="m 43.533371,122.50369 c 0.922,-0.568 0.104,-1.521 -0.677,-2.464 -0.199,-0.239 -0.36,-0.479 -0.573,-0.697 -0.859,-0.871 -1.891,-1.058 -2.526,1.869 -0.021,0.109 -1.078,2.021 -1.458,2.511 -1.855,2.338 -2.443,1.734 -1.855,2.338 0.385,0.402 0.839,0.167 1.391,-0.13 0.745,-0.416 3.261,-2.088 3.666,-2.318 0.391,-0.229 2.032,-1.109 2.032,-1.109"
     id="path756" />
  <path
     style="fill:none;stroke:#231f20;stroke-width:0.565977;stroke-linecap:butt;stroke-linejoin:miter;stroke-miterlimit:4;stroke-dasharray:none;stroke-opacity:1"
     d="m 43.533371,122.50369 c 0.922,-0.568 0.104,-1.521 -0.677,-2.464 -0.199,-0.239 -0.36,-0.479 -0.573,-0.697 -0.859,-0.871 -1.891,-1.058 -2.526,1.869 -0.021,0.109 -1.078,2.021 -1.458,2.511 -1.855,2.338 -2.443,1.734 -1.855,2.338 0.385,0.402 0.839,0.167 1.391,-0.13 0.745,-0.416 3.261,-2.088 3.666,-2.318 0.391,-0.229 2.032,-1.109 2.032,-1.109 z"
     id="path758" />
  <path
     style="fill:#231f20;fill-opacity:1;fill-rule:nonzero;stroke:none"
     d="m 181.46537,48.492686 c 0.443,-0.588 3.177,-2.354 3.823,-2.718 0.573,-0.339 1.338,-1.203 2.292,-0.542 0.385,0.244 0.765,0.902 0.854,1.208 0.062,0.255 -0.162,0.5 -0.516,0.662 -0.598,0.286 -0.89,0.136 -2.073,0.609 0,0 -0.301,0.068 -0.839,0.151 -1.609,0.281 -0.926,0.01 -3.172,0.928 -0.156,0.072 -0.333,-0.043 -0.369,-0.152 -0.057,-0.176 0,-0.146 0,-0.146"
     id="path760" />
  <path
     style="fill:none;stroke:#231f20;stroke-width:0.565977;stroke-linecap:round;stroke-linejoin:round;stroke-miterlimit:4;stroke-dasharray:none;stroke-opacity:1"
     d="m 181.46537,48.492686 c 0.443,-0.588 3.177,-2.354 3.823,-2.718 0.573,-0.339 1.338,-1.203 2.292,-0.542 0.385,0.244 0.765,0.902 0.854,1.208 0.062,0.255 -0.162,0.5 -0.516,0.662 -0.598,0.286 -0.89,0.136 -2.073,0.609 0,0 -0.301,0.068 -0.839,0.151 -1.609,0.281 -0.926,0.01 -3.172,0.928 -0.156,0.072 -0.333,-0.043 -0.369,-0.152 -0.057,-0.176 0,-0.146 0,-0.146 z"
     id="path761" />
  <path
     style="fill:#231f20;fill-opacity:1;fill-rule:nonzero;stroke:none"
     d="m 195.15837,46.607686 c -1.146,0.599 0.104,2.203 0.37,2.677 0.265,0.474 0.864,1.906 1.192,3.088 0.324,1.183 1.234,2.516 1.854,4.751 0.328,1.181 1.401,2.12 3.083,1.572 1.672,-0.541 1.996,-1.687 1.386,-3.052 -0.614,-1.369 -1.761,-2.391 -2.474,-3.724 -0.714,-1.333 -1.318,-2.755 -1.735,-3.896 -0.478,-1.301 -1.192,-1.76 -1.672,-1.785 -1.192,-0.058 -2.004,0.369 -2.004,0.369"
     id="path762" />
  <path
     style="fill:none;stroke:#231f20;stroke-width:0.565977;stroke-linecap:butt;stroke-linejoin:miter;stroke-miterlimit:4;stroke-dasharray:none;stroke-opacity:1"
     d="m 195.15837,46.607686 c -1.146,0.599 0.104,2.203 0.37,2.677 0.265,0.474 0.864,1.906 1.192,3.088 0.324,1.183 1.234,2.516 1.854,4.751 0.328,1.181 1.401,2.12 3.083,1.572 1.672,-0.541 1.996,-1.687 1.386,-3.052 -0.614,-1.369 -1.761,-2.391 -2.474,-3.724 -0.714,-1.333 -1.318,-2.755 -1.735,-3.896 -0.478,-1.301 -1.192,-1.76 -1.672,-1.785 -1.192,-0.058 -2.004,0.369 -2.004,0.369 z"
     id="path763" />
  <path
     style="fill:#231f20;fill-opacity:1;fill-rule:nonzero;stroke:none"
     d="m 187.41337,44.872686 c 0.599,-0.234 2.437,0.396 4.047,0.292 1.078,-0.068 3.65,0.891 4.724,0.746 0.984,-0.136 1.453,-0.106 1.802,0.994 0.203,0.646 0.176,2.031 -0.302,2.208 -1.115,0.416 -2.063,0.37 -3.094,0.094 -1.177,-0.307 -4.286,-1.438 -4.844,-1.698 -1.369,-0.646 -2.093,-0.48 -2.478,-0.62 -0.715,-0.256 -0.787,-0.593 -0.724,-1.093 0.124,-0.953 0.869,-0.923 0.869,-0.923"
     id="path764" />
  <path
     style="fill:none;stroke:#231f20;stroke-width:0.565977;stroke-linecap:butt;stroke-linejoin:miter;stroke-miterlimit:4;stroke-dasharray:none;stroke-opacity:1"
     d="m 187.41337,44.872686 c 0.599,-0.234 2.437,0.396 4.047,0.292 1.078,-0.068 3.65,0.891 4.724,0.746 0.984,-0.136 1.453,-0.106 1.802,0.994 0.203,0.646 0.176,2.031 -0.302,2.208 -1.115,0.416 -2.063,0.37 -3.094,0.094 -1.177,-0.307 -4.286,-1.438 -4.844,-1.698 -1.369,-0.646 -2.093,-0.48 -2.478,-0.62 -0.715,-0.256 -0.787,-0.593 -0.724,-1.093 0.124,-0.953 0.869,-0.923 0.869,-0.923 z"
     id="path765" />
  <path
     style="fill:#231f20;fill-opacity:1;fill-rule:nonzero;stroke:none"
     d="m 196.74137,42.528686 c -0.432,0.595 -3.125,2.418 -3.76,2.798 -0.573,0.349 -1.319,1.229 -2.281,0.593 -0.396,-0.239 -0.787,-0.891 -0.88,-1.192 -0.074,-0.256 0.145,-0.5 0.494,-0.672 0.599,-0.303 0.896,-0.156 2.067,-0.651 0,0 0.297,-0.078 0.833,-0.177 1.6,-0.313 0.923,-0.021 3.152,-0.995 0.151,-0.068 0.334,0.042 0.375,0.146 0.057,0.177 0,0.15 0,0.15"
     id="path766" />
  <path
     style="fill:none;stroke:#231f20;stroke-width:0.565977;stroke-linecap:round;stroke-linejoin:round;stroke-miterlimit:4;stroke-dasharray:none;stroke-opacity:1"
     d="m 196.74137,42.528686 c -0.432,0.595 -3.125,2.418 -3.76,2.798 -0.573,0.349 -1.319,1.229 -2.281,0.593 -0.396,-0.239 -0.787,-0.891 -0.88,-1.192 -0.074,-0.256 0.145,-0.5 0.494,-0.672 0.599,-0.303 0.896,-0.156 2.067,-0.651 0,0 0.297,-0.078 0.833,-0.177 1.6,-0.313 0.923,-0.021 3.152,-0.995 0.151,-0.068 0.334,0.042 0.375,0.146 0.057,0.177 0,0.15 0,0.15 z"
     id="path767" />
  <path
     style="fill:#231f20;fill-opacity:1;fill-rule:nonzero;stroke:none"
     d="m 185.68437,49.180686 c 1.26,-0.281 1.338,1.75 1.437,2.282 0.104,0.536 0.568,2.02 1.079,3.134 0.51,1.115 0.672,2.719 1.64,4.834 0.51,1.109 0.297,2.516 -1.348,3.182 -1.626,0.662 -2.611,-0.005 -3.022,-1.442 -0.412,-1.443 -0.193,-2.964 -0.505,-4.443 -0.312,-1.48 -0.771,-2.959 -1.183,-4.099 -0.468,-1.302 -0.224,-2.12 0.126,-2.442 0.88,-0.814 1.776,-1.006 1.776,-1.006"
     id="path768" />
  <path
     style="fill:none;stroke:#231f20;stroke-width:0.565977;stroke-linecap:butt;stroke-linejoin:miter;stroke-miterlimit:4;stroke-dasharray:none;stroke-opacity:1"
     d="m 185.68437,49.180686 c 1.26,-0.281 1.338,1.75 1.437,2.282 0.104,0.536 0.568,2.02 1.079,3.134 0.51,1.115 0.672,2.719 1.64,4.834 0.51,1.109 0.297,2.516 -1.348,3.182 -1.626,0.662 -2.611,-0.005 -3.022,-1.442 -0.412,-1.443 -0.193,-2.964 -0.505,-4.443 -0.312,-1.48 -0.771,-2.959 -1.183,-4.099 -0.468,-1.302 -0.224,-2.12 0.126,-2.442 0.88,-0.814 1.776,-1.006 1.776,-1.006 z"
     id="path769" />
  <path
     style="fill:#231f20;fill-opacity:1;fill-rule:nonzero;stroke:none"
     d="m 191.13737,43.404686 c -0.631,0.162 -1.74,1.755 -3.093,2.624 -0.912,0.59 -2.423,2.876 -3.382,3.391 -0.869,0.475 -1.224,0.776 -0.858,1.871 0.213,0.645 1.057,1.749 1.546,1.604 1.146,-0.323 1.88,-0.918 2.552,-1.751 0.766,-0.943 2.61,-3.692 2.907,-4.233 0.724,-1.339 1.401,-1.626 1.625,-1.97 0.427,-0.625 0.286,-0.948 -0.057,-1.312 -0.667,-0.682 -1.24,-0.224 -1.24,-0.224"
     id="path770" />
  <path
     style="fill:none;stroke:#231f20;stroke-width:0.565977;stroke-linecap:butt;stroke-linejoin:miter;stroke-miterlimit:4;stroke-dasharray:none;stroke-opacity:1"
     d="m 191.13737,43.404686 c -0.631,0.162 -1.74,1.755 -3.093,2.624 -0.912,0.59 -2.423,2.876 -3.382,3.391 -0.869,0.475 -1.224,0.776 -0.858,1.871 0.213,0.645 1.057,1.749 1.546,1.604 1.146,-0.323 1.88,-0.918 2.552,-1.751 0.766,-0.943 2.61,-3.692 2.907,-4.233 0.724,-1.339 1.401,-1.626 1.625,-1.97 0.427,-0.625 0.286,-0.948 -0.057,-1.312 -0.667,-0.682 -1.24,-0.224 -1.24,-0.224 z"
     id="path771" />
</svg>
