<?xml version="1.0" encoding="UTF-8" standalone="no"?>
<!-- Created with Inkscape (http://www.inkscape.org/) -->

<svg
   version="1.1"
   id="svg1"
   width="361.79987"
   height="170.07591"
   viewBox="0 0 361.79985 170.07592"
   sodipodi:docname="cell.svg"
   xmlns:inkscape="http://www.inkscape.org/namespaces/inkscape"
   xmlns:sodipodi="http://sodipodi.sourceforge.net/DTD/sodipodi-0.dtd"
   xmlns="http://www.w3.org/2000/svg"
   xmlns:svg="http://www.w3.org/2000/svg">
  <sodipodi:namedview
     id="namedview1"
     pagecolor="#ffffff"
     bordercolor="#000000"
     borderopacity="0.25"
     inkscape:showpageshadow="2"
     inkscape:pageopacity="0.0"
     inkscape:pagecheckerboard="0"
     inkscape:deskcolor="#d1d1d1">
    <inkscape:page
       x="0"
       y="1.9992375e-14"
       inkscape:label="1"
       id="page1"
       width="361.79984"
       height="170.07591"
       margin="0"
       bleed="0" />
  </sodipodi:namedview>
  <defs
     id="defs1" />
  <path
     style="fill:#ffffff;fill-opacity:1;fill-rule:nonzero;stroke:none"
     d="m 344.86985,21.5773 h 16.93 V 2.7028 h -16.93 z"
     id="path1231" />
  <path
     style="fill:#fab41d;fill-opacity:1;fill-rule:nonzero;stroke:none"
     d="m 93.998855,129.5875 c -1.052,2.954 -0.952,3.704 -0.9,4.626 0.343,5.765 -2.494,5.827 -4.985,4.385 -2.932,-1.698 -4.025,-2.255 -1.348,-7.948 0.744,-1.583 2.801,-8.041 2.801,-8.041 0.427,-2.412 2.126,-4.532 3.538,-4.896 1.484,-0.386 0.926,-0.126 2.358,-0.23 1.38,-0.098 3.334,0.875 3.631,2.074 0.291,1.145 -0.891,2.328 -2.376,4.238 -1.171,1.511 -2.719,5.792 -2.719,5.792"
     id="path1232" />
  <path
     style="fill:none;stroke:#231f20;stroke-width:0.565977;stroke-linecap:butt;stroke-linejoin:miter;stroke-miterlimit:4;stroke-dasharray:none;stroke-opacity:1"
     d="m 93.998855,129.5875 c -1.052,2.954 -0.952,3.704 -0.9,4.626 0.343,5.765 -2.494,5.827 -4.985,4.385 -2.932,-1.698 -4.025,-2.255 -1.348,-7.948 0.744,-1.583 2.801,-8.041 2.801,-8.041 0.427,-2.412 2.126,-4.532 3.538,-4.896 1.484,-0.386 0.926,-0.126 2.358,-0.23 1.38,-0.098 3.334,0.875 3.631,2.074 0.291,1.145 -0.891,2.328 -2.376,4.238 -1.171,1.511 -2.719,5.792 -2.719,5.792 z"
     id="path1233" />
  <path
     style="fill:#ffffff;fill-opacity:1;fill-rule:nonzero;stroke:none"
     d="m 99.238855,110.6145 c 0.188,-0.167 -0.338,-1.193 0.11,-1.469 0.442,-0.271 1.015995,0.281 2.988995,0.068 l 0.027,-0.006 c 1.432,-0.202 2.77,0.198 3.51,1.214 1.219,1.682 0.354,4.385 -1.922,6.052 -2.287,1.666 -5.123995,1.641 -6.353995,-0.031 -1.172,-1.599 -0.428,-4.156 1.64,-5.828"
     id="path1234" />
  <path
     style="fill:none;stroke:#231f20;stroke-width:0.565977;stroke-linecap:butt;stroke-linejoin:miter;stroke-miterlimit:4;stroke-dasharray:none;stroke-opacity:1"
     d="m 99.238855,110.6145 c 0.188,-0.167 -0.338,-1.193 0.11,-1.469 0.442,-0.271 1.015995,0.281 2.988995,0.068 l 0.027,-0.006 c 1.432,-0.202 2.77,0.198 3.51,1.214 1.219,1.682 0.354,4.385 -1.922,6.052 -2.287,1.666 -5.123995,1.641 -6.353995,-0.031 -1.172,-1.599 -0.428,-4.156 1.64,-5.828 z"
     id="path1235" />
  <path
     style="fill:#231f20;fill-opacity:1;fill-rule:nonzero;stroke:none"
     d="m 77.582855,149.8005 c 2.156,-0.686 2.672,-0.525 3.022,0.366 0.233,0.593 0.656,1.057 0.817,1.416 0.531,1.172 0.943,3.396 0.468,9.958 -0.109,1.484 -0.244,3.583 -0.224,4.438 0.005,1.354 -2.26,0.469 -2.271,-0.074 -0.041,-1.713 -0.213,-2.874 -0.306,-3.494 -0.074,-0.422 -0.09,-1.182 -0.574,-2.782 -0.724,-2.421 -1.51,-3.76 -1.874,-5.848 -0.178,-0.964 -0.918,-1.584 -0.59,-2.62 0.303,-1.037 1.532,-1.36 1.532,-1.36"
     id="path1236" />
  <path
     style="fill:none;stroke:#231f20;stroke-width:0.565977;stroke-linecap:butt;stroke-linejoin:miter;stroke-miterlimit:4;stroke-dasharray:none;stroke-opacity:1"
     d="m 77.582855,149.8005 c 2.156,-0.686 2.672,-0.525 3.022,0.366 0.233,0.593 0.656,1.057 0.817,1.416 0.531,1.172 0.943,3.396 0.468,9.958 -0.109,1.484 -0.244,3.583 -0.224,4.438 0.005,1.354 -2.26,0.469 -2.271,-0.074 -0.041,-1.713 -0.213,-2.874 -0.306,-3.494 -0.074,-0.422 -0.09,-1.182 -0.574,-2.782 -0.724,-2.421 -1.51,-3.76 -1.874,-5.848 -0.178,-0.964 -0.918,-1.584 -0.59,-2.62 0.303,-1.037 1.532,-1.36 1.532,-1.36 z"
     id="path1237" />
  <path
     style="fill:#231f20;fill-opacity:1;fill-rule:nonzero;stroke:#231f20;stroke-width:0.565977;stroke-linecap:round;stroke-linejoin:round;stroke-miterlimit:4;stroke-dasharray:none;stroke-opacity:1"
     d="m 76.020855,152.5465 c -0.448,-1.344 1.12,-2.823 1.245,-3.136 1.785,-4.687 2.036,-4.979 3.645,-8.443 2.328,-5.014 4.698,-8.093 8.011,-7.588 2.244,0.344 3.391,1.516 3.687,2.797 0.324,1.422 -0.474,4.5 -3.219,5.386 l -1.109,1.306 c -0.635,0.975 -0.954,1.448 -1.234,1.948 -0.474,0.886 -1.048,1.803 -2.073,3.47 -1.833,2.948 -4.729,5.473 -4.729,5.473 -0.172,0.26 -0.407,0.412 -0.667,0.484"
     id="path1238" />
  <path
     style="fill:#fab41d;fill-opacity:1;fill-rule:nonzero;stroke:none"
     d="m 92.541855,135.7595 c -0.297,-1.286 -1.453,-2.442 -3.699,-2.781 -2.614,-0.396 -4.64,1.443 -6.505,4.708 l 7.005,3.458 c 2.746,-0.88 3.532,-3.968 3.199,-5.385"
     id="path1239" />
  <path
     style="fill:none;stroke:#231f20;stroke-width:0.565977;stroke-linecap:butt;stroke-linejoin:miter;stroke-miterlimit:4;stroke-dasharray:none;stroke-opacity:1"
     d="m 92.541855,135.7595 c -0.297,-1.286 -1.453,-2.442 -3.699,-2.781 -2.614,-0.396 -4.64,1.443 -6.505,4.708 l 7.005,3.458 c 2.746,-0.88 3.532,-3.968 3.199,-5.385 z"
     id="path1240" />
  <path
     style="fill:#231f20;fill-opacity:1;fill-rule:nonzero;stroke:none"
     d="m 91.853855,100.8175 c -0.281,0.584 0.219,2.469 0.005,4.057 -0.141,1.079 0.64,3.708 0.416,4.771 -0.202,0.974 -0.208,1.432 0.86,1.854 0.64,0.255 2.027,0.328 2.23,-0.136 0.484,-1.088 0.51,-2.03 0.312,-3.082 -0.23,-1.194 -1.135,-4.38 -1.354,-4.948 -0.552,-1.423 -0.338,-2.126 -0.448,-2.516 -0.214,-0.73 -0.548,-0.828 -1.042,-0.803 -0.963,0.063 -0.979,0.803 -0.979,0.803"
     id="path1241" />
  <path
     style="fill:none;stroke:#231f20;stroke-width:0.565977;stroke-linecap:butt;stroke-linejoin:miter;stroke-miterlimit:4;stroke-dasharray:none;stroke-opacity:1"
     d="m 91.853855,100.8175 c -0.281,0.584 0.219,2.469 0.005,4.057 -0.141,1.079 0.64,3.708 0.416,4.771 -0.202,0.974 -0.208,1.432 0.86,1.854 0.64,0.255 2.027,0.328 2.23,-0.136 0.484,-1.088 0.51,-2.03 0.312,-3.082 -0.23,-1.194 -1.135,-4.38 -1.354,-4.948 -0.552,-1.423 -0.338,-2.126 -0.448,-2.516 -0.214,-0.73 -0.548,-0.828 -1.042,-0.803 -0.963,0.063 -0.979,0.803 -0.979,0.803 z"
     id="path1242" />
  <path
     style="fill:#231f20;fill-opacity:1;fill-rule:nonzero;stroke:none"
     d="m 93.249855,109.0415 c -1.287,0.193 -0.631,2.12 -0.532,2.645 0.1,0.537 0.199,2.095 0.115,3.313 -0.078,1.224 0.349,2.782 0.204,5.104 -0.079,1.219 0.62,2.454 2.396,2.484 1.76,0.038 2.442,-0.932 2.306,-2.432 -0.13,-1.484 -0.885,-2.833 -1.12,-4.322 -0.238,-1.495 -0.344,-3.043 -0.364,-4.256 -0.026,-1.38 -0.546,-2.052 -0.994,-2.23 -1.11,-0.446 -2.011,-0.306 -2.011,-0.306"
     id="path1243" />
  <path
     style="fill:none;stroke:#231f20;stroke-width:0.565977;stroke-linecap:butt;stroke-linejoin:miter;stroke-miterlimit:4;stroke-dasharray:none;stroke-opacity:1"
     d="m 93.249855,109.0415 c -1.287,0.193 -0.631,2.12 -0.532,2.645 0.1,0.537 0.199,2.095 0.115,3.313 -0.078,1.224 0.349,2.782 0.204,5.104 -0.079,1.219 0.62,2.454 2.396,2.484 1.76,0.038 2.442,-0.932 2.306,-2.432 -0.13,-1.484 -0.885,-2.833 -1.12,-4.322 -0.238,-1.495 -0.344,-3.043 -0.364,-4.256 -0.026,-1.38 -0.546,-2.052 -0.994,-2.23 -1.11,-0.446 -2.011,-0.306 -2.011,-0.306 z"
     id="path1244" />
  <path
     style="fill:#231f20;fill-opacity:1;fill-rule:nonzero;stroke:none"
     d="m 91.124855,94.0825 c -0.219,0.699 -0.074,3.948 0,4.688 0.062,0.661 -0.203,1.792 0.89,2.183 0.423,0.17 1.178,0.098 1.48,-0.011 0.244,-0.089 0.312,-0.412 0.239,-0.797 -0.115,-0.656 -0.407,-0.807 -0.708,-2.042 0,0 -0.115,-0.286 -0.36,-0.77 -0.703,-1.475 -0.531,-0.762 -1.083,-3.126 -0.032,-0.161 -0.224,-0.245 -0.333,-0.213 -0.177,0.057 -0.125,0.088 -0.125,0.088"
     id="path1245" />
  <path
     style="fill:none;stroke:#231f20;stroke-width:0.565977;stroke-linecap:round;stroke-linejoin:round;stroke-miterlimit:4;stroke-dasharray:none;stroke-opacity:1"
     d="m 91.124855,94.0825 c -0.219,0.699 -0.074,3.948 0,4.688 0.062,0.661 -0.203,1.792 0.89,2.183 0.423,0.17 1.178,0.098 1.48,-0.011 0.244,-0.089 0.312,-0.412 0.239,-0.797 -0.115,-0.656 -0.407,-0.807 -0.708,-2.042 0,0 -0.115,-0.286 -0.36,-0.77 -0.703,-1.475 -0.531,-0.762 -1.083,-3.126 -0.032,-0.161 -0.224,-0.245 -0.333,-0.213 -0.177,0.057 -0.125,0.088 -0.125,0.088 z"
     id="path1246" />
  <path
     style="fill:#ffffff;fill-opacity:1;fill-rule:nonzero;stroke:none"
     d="m 22.941855,121.7185 c -0.088,-0.229 -1.233,-0.12 -1.317,-0.641 -0.088,-0.515 0.63,-0.839 1.166,-2.755 l 0.011,-0.021 c 0.339,-1.411 1.213,-2.495 2.427,-2.802 2.01,-0.516 4.209,1.291 4.901,4.026 0.699,2.74 -0.369,5.37 -2.38,5.88 -1.927,0.496 -4.021,-1.14 -4.808,-3.687"
     id="path1247" />
  <path
     style="fill:none;stroke:#231f20;stroke-width:0.565977;stroke-linecap:butt;stroke-linejoin:miter;stroke-miterlimit:4;stroke-dasharray:none;stroke-opacity:1"
     d="m 22.941855,121.7185 c -0.088,-0.229 -1.233,-0.12 -1.317,-0.641 -0.088,-0.515 0.63,-0.839 1.166,-2.755 l 0.011,-0.021 c 0.339,-1.411 1.213,-2.495 2.427,-2.802 2.01,-0.516 4.209,1.291 4.901,4.026 0.699,2.74 -0.369,5.37 -2.38,5.88 -1.927,0.496 -4.021,-1.14 -4.808,-3.687 z"
     id="path1248" />
  <path
     style="fill:#fab41d;fill-opacity:1;fill-rule:nonzero;stroke:none"
     d="m 37.380855,135.6775 c 1.957,2.442 2.65,2.749 3.462,3.186 5.095,2.724 3.656,5.177 1.12,6.547 -2.984,1.609 -4.025,2.245 -7.478,-3.02 -0.959,-1.464 -5.376,-6.6 -5.376,-6.6 -1.828,-1.624 -2.744,-4.187 -2.318,-5.577 0.454,-1.464 0.38,-0.85 1.047,-2.136 0.631,-1.219 2.485,-2.38 3.667,-2.006 1.13,0.355 1.51,1.98 2.365,4.251 0.672,1.787 3.511,5.355 3.511,5.355"
     id="path1249" />
  <path
     style="fill:none;stroke:#231f20;stroke-width:0.565977;stroke-linecap:butt;stroke-linejoin:miter;stroke-miterlimit:4;stroke-dasharray:none;stroke-opacity:1"
     d="m 37.380855,135.6775 c 1.957,2.442 2.65,2.749 3.462,3.186 5.095,2.724 3.656,5.177 1.12,6.547 -2.984,1.609 -4.025,2.245 -7.478,-3.02 -0.959,-1.464 -5.376,-6.6 -5.376,-6.6 -1.828,-1.624 -2.744,-4.187 -2.318,-5.577 0.454,-1.464 0.38,-0.85 1.047,-2.136 0.631,-1.219 2.485,-2.38 3.667,-2.006 1.13,0.355 1.51,1.98 2.365,4.251 0.672,1.787 3.511,5.355 3.511,5.355 z"
     id="path1250" />
  <path
     style="fill:#231f20;fill-opacity:1;fill-rule:nonzero;stroke:none"
     d="m 50.550855,135.2595 c -0.364,-0.536 -2.244,-1.025 -3.525,-2.005 -0.86,-0.661 -3.536,-1.287 -4.344,-2.011 -0.744,-0.656 -1.151,-0.89 -2.047,-0.166 -0.536,0.422 -1.281,1.594 -0.984,2.005 0.703,0.964 1.515,1.448 2.526,1.797 1.146,0.391 4.365,1.183 4.969,1.276 1.505,0.219 2.016,0.755 2.405,0.855 0.74,0.181 0.991,-0.058 1.215,-0.506 0.421,-0.865 -0.215,-1.245 -0.215,-1.245"
     id="path1251" />
  <path
     style="fill:none;stroke:#231f20;stroke-width:0.565977;stroke-linecap:butt;stroke-linejoin:miter;stroke-miterlimit:4;stroke-dasharray:none;stroke-opacity:1"
     d="m 50.550855,135.2595 c -0.364,-0.536 -2.244,-1.025 -3.525,-2.005 -0.86,-0.661 -3.536,-1.287 -4.344,-2.011 -0.744,-0.656 -1.151,-0.89 -2.047,-0.166 -0.536,0.422 -1.281,1.594 -0.984,2.005 0.703,0.964 1.515,1.448 2.526,1.797 1.146,0.391 4.365,1.183 4.969,1.276 1.505,0.219 2.016,0.755 2.405,0.855 0.74,0.181 0.991,-0.058 1.215,-0.506 0.421,-0.865 -0.215,-1.245 -0.215,-1.245 z"
     id="path1252" />
  <path
     style="fill:#231f20;fill-opacity:1;fill-rule:nonzero;stroke:none"
     d="m 42.208855,131.7295 c 0.369,-1.24 -1.652,-1.459 -2.178,-1.6 -0.526,-0.14 -1.974,-0.703 -3.046,-1.286 -1.079,-0.589 -2.672,-0.86 -4.714,-1.969 -1.078,-0.588 -2.49,-0.473 -3.272,1.12 -0.77,1.577 -0.17,2.604 1.235,3.115 1.407,0.51 2.943,0.401 4.396,0.812 1.453,0.412 2.896,0.974 4.005,1.464 1.266,0.562 2.099,0.369 2.448,0.041 0.875,-0.817 1.126,-1.697 1.126,-1.697"
     id="path1253" />
  <path
     style="fill:none;stroke:#231f20;stroke-width:0.565977;stroke-linecap:butt;stroke-linejoin:miter;stroke-miterlimit:4;stroke-dasharray:none;stroke-opacity:1"
     d="m 42.208855,131.7295 c 0.369,-1.24 -1.652,-1.459 -2.178,-1.6 -0.526,-0.14 -1.974,-0.703 -3.046,-1.286 -1.079,-0.589 -2.672,-0.86 -4.714,-1.969 -1.078,-0.588 -2.49,-0.473 -3.272,1.12 -0.77,1.577 -0.17,2.604 1.235,3.115 1.407,0.51 2.943,0.401 4.396,0.812 1.453,0.412 2.896,0.974 4.005,1.464 1.266,0.562 2.099,0.369 2.448,0.041 0.875,-0.817 1.126,-1.697 1.126,-1.697 z"
     id="path1254" />
  <path
     style="fill:#231f20;fill-opacity:1;fill-rule:nonzero;stroke:none"
     d="m 56.989855,137.8845 c -0.537,-0.494 -3.537,-1.74 -4.235,-1.994 -0.625,-0.235 -1.532,-0.948 -2.36,-0.141 -0.328,0.327 -0.593,1.037 -0.62,1.354 -0.02,0.255 0.235,0.464 0.626,0.563 0.641,0.172 0.89,-0.032 2.141,0.224 0,0 0.307,0.02 0.853,0.014 1.636,-0.014 0.912,-0.161 3.282,0.35 0.172,0.041 0.328,-0.104 0.338,-0.224 0.027,-0.172 -0.025,-0.146 -0.025,-0.146"
     id="path1255" />
  <path
     style="fill:none;stroke:#231f20;stroke-width:0.565977;stroke-linecap:round;stroke-linejoin:round;stroke-miterlimit:4;stroke-dasharray:none;stroke-opacity:1"
     d="m 56.989855,137.8845 c -0.537,-0.494 -3.537,-1.74 -4.235,-1.994 -0.625,-0.235 -1.532,-0.948 -2.36,-0.141 -0.328,0.327 -0.593,1.037 -0.62,1.354 -0.02,0.255 0.235,0.464 0.626,0.563 0.641,0.172 0.89,-0.032 2.141,0.224 0,0 0.307,0.02 0.853,0.014 1.636,-0.014 0.912,-0.161 3.282,0.35 0.172,0.041 0.328,-0.104 0.338,-0.224 0.027,-0.172 -0.025,-0.146 -0.025,-0.146 z"
     id="path1256" />
  <path
     style="fill:#231f20;fill-opacity:1;fill-rule:nonzero;stroke:none"
     d="m 24.254855,152.5245 c 1.782,-1.396 2.318,-1.426 2.959,-0.718 0.427,0.474 0.984,0.77 1.255,1.046 0.916,0.928 2.068,2.85 3.906,9.172 0.416,1.438 1.015,3.448 1.328,4.246 0.49,1.265 -1.942,1.224 -2.141,0.729 -0.64,-1.589 -1.203,-2.636 -1.511,-3.177 -0.213,-0.375 -0.5,-1.084 -1.5,-2.412 -1.52,-2.015 -2.728,-3.006 -3.796,-4.828 -0.494,-0.848 -1.406,-1.172 -1.469,-2.25 -0.068,-1.084 0.969,-1.808 0.969,-1.808"
     id="path1257" />
  <path
     style="fill:none;stroke:#231f20;stroke-width:0.565977;stroke-linecap:butt;stroke-linejoin:miter;stroke-miterlimit:4;stroke-dasharray:none;stroke-opacity:1"
     d="m 24.254855,152.5245 c 1.782,-1.396 2.318,-1.426 2.959,-0.718 0.427,0.474 0.984,0.77 1.255,1.046 0.916,0.928 2.068,2.85 3.906,9.172 0.416,1.438 1.015,3.448 1.328,4.246 0.49,1.265 -1.942,1.224 -2.141,0.729 -0.64,-1.589 -1.203,-2.636 -1.511,-3.177 -0.213,-0.375 -0.5,-1.084 -1.5,-2.412 -1.52,-2.015 -2.728,-3.006 -3.796,-4.828 -0.494,-0.848 -1.406,-1.172 -1.469,-2.25 -0.068,-1.084 0.969,-1.808 0.969,-1.808 z"
     id="path1258" />
  <path
     style="fill:#231f20;fill-opacity:1;fill-rule:nonzero;stroke:#231f20;stroke-width:0.565977;stroke-linecap:round;stroke-linejoin:miter;stroke-miterlimit:4;stroke-dasharray:none;stroke-opacity:1"
     d="m 23.676855,153.8525 c 0.13,-1.342 1.969,-2.186 2.177,-2.432 3.208,-3.853 3.536,-4.046 6.183,-6.806 3.828,-3.99 7.062,-6.131 10.036,-4.579 2.01,1.047 2.718,2.527 2.584,3.839 -0.152,1.448 -1.902,4.104 -4.792,4.052 l -1.47,0.869 c -0.916,0.719 -1.374,1.068 -1.801,1.459 -0.735,0.677 -1.568,1.354 -3.079,2.598 -2.686,2.204 -6.244,3.652 -6.244,3.652 -0.245,0.187 -0.521,0.255 -0.792,0.239"
     id="path1259" />
  <path
     style="fill:#fab41d;fill-opacity:1;fill-rule:nonzero;stroke:none"
     d="m 42.066855,140.0355 c -2.344,-1.224 -4.853,-0.145 -7.686,2.323 l 5.489,5.568 c 2.885,0.052 4.635,-2.604 4.787,-4.052 0.134,-1.312 -0.574,-2.792 -2.59,-3.839"
     id="path1260" />
  <path
     style="fill:none;stroke:#231f20;stroke-width:0.565977;stroke-linecap:round;stroke-linejoin:round;stroke-miterlimit:4;stroke-dasharray:none;stroke-opacity:1"
     d="m 42.066855,140.0355 c -2.344,-1.224 -4.853,-0.145 -7.686,2.323 l 5.489,5.568 c 2.885,0.052 4.635,-2.604 4.787,-4.052 0.134,-1.312 -0.574,-2.792 -2.59,-3.839 z"
     id="path1261" />
  <path
     style="fill:#fab41d;fill-opacity:1;fill-rule:nonzero;stroke:none"
     d="m 179.06685,141.2545 c 1.313,-2.844 1.287,-3.599 1.313,-4.52 0.176,-5.776 3.015,-5.584 5.364,-3.917 2.771,1.953 3.803,2.604 0.631,8.035 -0.885,1.511 -3.516,7.756 -3.516,7.756 -0.645,2.359 -2.532,4.323 -3.964,4.563 -1.52,0.244 -0.937,0.036 -2.375,0.009 -1.38,-0.025 -3.245,-1.17 -3.432,-2.39 -0.182,-1.176 1.099,-2.239 2.755,-4.004 1.297,-1.407 3.224,-5.532 3.224,-5.532"
     id="path1270" />
  <path
     style="fill:none;stroke:#231f20;stroke-width:0.565977;stroke-linecap:butt;stroke-linejoin:miter;stroke-miterlimit:4;stroke-dasharray:none;stroke-opacity:1"
     d="m 179.06685,141.2545 c 1.313,-2.844 1.287,-3.599 1.313,-4.52 0.176,-5.776 3.015,-5.584 5.364,-3.917 2.771,1.953 3.803,2.604 0.631,8.035 -0.885,1.511 -3.516,7.756 -3.516,7.756 -0.645,2.359 -2.532,4.323 -3.964,4.563 -1.52,0.244 -0.937,0.036 -2.375,0.009 -1.38,-0.025 -3.245,-1.17 -3.432,-2.39 -0.182,-1.176 1.099,-2.239 2.755,-4.004 1.297,-1.407 3.224,-5.532 3.224,-5.532 z"
     id="path1271" />
  <path
     style="fill:#ffffff;fill-opacity:1;fill-rule:nonzero;stroke:none"
     d="m 176.39485,159.6505 c -0.083,0.234 0.896,0.854 0.647,1.317 -0.251,0.464 -1.022,0.271 -2.615,1.453 l -0.021,0.016 c -1.14,0.896 -2.495,1.224 -3.646,0.719 -1.901,-0.844 -2.516,-3.609 -1.385,-6.193 1.135,-2.594 3.599,-4.004 5.5,-3.172 1.823,0.792 2.468,3.376 1.52,5.86"
     id="path1272" />
  <path
     style="fill:none;stroke:#231f20;stroke-width:0.565977;stroke-linecap:butt;stroke-linejoin:miter;stroke-miterlimit:4;stroke-dasharray:none;stroke-opacity:1"
     d="m 176.39485,159.6505 c -0.083,0.234 0.896,0.854 0.647,1.317 -0.251,0.464 -1.022,0.271 -2.615,1.453 l -0.021,0.016 c -1.14,0.896 -2.495,1.224 -3.646,0.719 -1.901,-0.844 -2.516,-3.609 -1.385,-6.193 1.135,-2.594 3.599,-4.004 5.5,-3.172 1.823,0.792 2.468,3.376 1.52,5.86 z"
     id="path1273" />
  <path
     style="fill:#231f20;fill-opacity:1;fill-rule:nonzero;stroke:none"
     d="m 192.18185,116.8695 c -2.198,-0.526 -2.558,-0.922 -2.391,-1.87 0.104,-0.63 -0.016,-1.25 0.037,-1.636 0.146,-1.281 0.943,-3.39 4.75,-8.765 0.86,-1.213 2.062,-2.932 2.494,-3.677 0.694,-1.162 2.172,0.765 1.902,1.234 -0.85,1.49 -1.308,2.574 -1.547,3.151 -0.161,0.401 -0.543,1.057 -0.953,2.677 -0.636,2.443 -0.656,4.006 -1.423,5.975 -0.353,0.916 -0.041,1.828 -0.853,2.547 -0.798,0.733 -2.016,0.364 -2.016,0.364"
     id="path1274" />
  <path
     style="fill:none;stroke:#231f20;stroke-width:0.565977;stroke-linecap:butt;stroke-linejoin:miter;stroke-miterlimit:4;stroke-dasharray:none;stroke-opacity:1"
     d="m 192.18185,116.8695 c -2.198,-0.526 -2.558,-0.922 -2.391,-1.87 0.104,-0.63 -0.016,-1.25 0.037,-1.636 0.146,-1.281 0.943,-3.39 4.75,-8.765 0.86,-1.213 2.062,-2.932 2.494,-3.677 0.694,-1.162 2.172,0.765 1.902,1.234 -0.85,1.49 -1.308,2.574 -1.547,3.151 -0.161,0.401 -0.543,1.057 -0.953,2.677 -0.636,2.443 -0.656,4.006 -1.423,5.975 -0.353,0.916 -0.041,1.828 -0.853,2.547 -0.798,0.733 -2.016,0.364 -2.016,0.364 z"
     id="path1275" />
  <path
     style="fill:#231f20;fill-opacity:1;fill-rule:nonzero;stroke:#231f20;stroke-width:0.565977;stroke-linecap:round;stroke-linejoin:round;stroke-miterlimit:4;stroke-dasharray:none;stroke-opacity:1"
     d="m 194.26585,115.4735 c 0.728,1.208 -0.48,2.994 -0.527,3.328 -0.719,4.964 -0.901,5.302 -1.713,9.037 -1.172,5.405 -2.812,8.921 -6.156,9.156 -2.262,0.156 -3.636,-0.735 -4.21,-1.923 -0.629,-1.317 -0.525,-4.489 1.964,-5.957 l 0.798,-1.516 c 0.406,-1.093 0.609,-1.631 0.776,-2.177 0.27,-0.964 0.625,-1.984 1.265,-3.834 1.141,-3.281 3.412,-6.38 3.412,-6.38 0.109,-0.286 0.307,-0.489 0.547,-0.62"
     id="path1276" />
  <path
     style="fill:#fab41d;fill-opacity:1;fill-rule:nonzero;stroke:#231f20;stroke-width:0.565977;stroke-linecap:butt;stroke-linejoin:miter;stroke-miterlimit:4;stroke-dasharray:none;stroke-opacity:1"
     d="m 183.75985,129.5055 c -2.485,1.473 -2.573,4.645 -1.942,5.962 0.572,1.188 1.957,2.068 4.218,1.901 2.64,-0.188 4.208,-2.426 5.318,-6.015 z"
     id="path1277" />
  <path
     style="fill:#231f20;fill-opacity:1;fill-rule:nonzero;stroke:none"
     d="m 179.48985,161.4945 c 1.285,-0.172 0.656,-2.11 0.566,-2.636 -0.093,-0.542 -0.172,-2.094 -0.077,-3.312 0.093,-1.224 -0.313,-2.792 -0.136,-5.11 0.089,-1.218 -0.593,-2.464 -2.369,-2.516 -1.756,-0.057 -2.448,0.907 -2.339,2.402 0.115,1.489 0.855,2.849 1.073,4.344 0.219,1.494 0.302,3.036 0.307,4.254 0.011,1.38 0.521,2.063 0.964,2.24 1.104,0.464 2.011,0.334 2.011,0.334"
     id="path1282" />
  <path
     style="fill:none;stroke:#231f20;stroke-width:0.565977;stroke-linecap:butt;stroke-linejoin:miter;stroke-miterlimit:4;stroke-dasharray:none;stroke-opacity:1"
     d="m 179.48985,161.4945 c 1.285,-0.172 0.656,-2.11 0.566,-2.636 -0.093,-0.542 -0.172,-2.094 -0.077,-3.312 0.093,-1.224 -0.313,-2.792 -0.136,-5.11 0.089,-1.218 -0.593,-2.464 -2.369,-2.516 -1.756,-0.057 -2.448,0.907 -2.339,2.402 0.115,1.489 0.855,2.849 1.073,4.344 0.219,1.494 0.302,3.036 0.307,4.254 0.011,1.38 0.521,2.063 0.964,2.24 1.104,0.464 2.011,0.334 2.011,0.334 z"
     id="path1283" />
  <path
     style="fill:#231f20;fill-opacity:1;fill-rule:nonzero;stroke:none"
     d="m 197.53085,98.4215 c -1.303,0.396 -1.36,1.396 -0.74,2.218 0.188,0.256 0.079,0.662 0.281,0.891 0.47,0.527 2.208,0.573 2.62,-0.869 0.031,-0.099 0.479,-0.787 0.746,-1.35 0.494,-1.104 0.973,-3.557 -0.563,-5.776 -0.719,-1.052 -1.209,-0.421 -1.052,0.09 0.531,1.624 0.255,1.869 0.228,2.353 -0.047,1.62 -1.52,2.443 -1.52,2.443"
     id="path1284" />
  <path
     style="fill:none;stroke:#231f20;stroke-width:0.332927;stroke-linecap:butt;stroke-linejoin:miter;stroke-miterlimit:4;stroke-dasharray:none;stroke-opacity:1"
     d="m 197.53085,98.4215 c -1.303,0.396 -1.36,1.396 -0.74,2.218 0.188,0.256 0.079,0.662 0.281,0.891 0.47,0.527 2.208,0.573 2.62,-0.869 0.031,-0.099 0.479,-0.787 0.746,-1.35 0.494,-1.104 0.973,-3.557 -0.563,-5.776 -0.719,-1.052 -1.209,-0.421 -1.052,0.09 0.531,1.624 0.255,1.869 0.228,2.353 -0.047,1.62 -1.52,2.443 -1.52,2.443 z"
     id="path1285" />
  <path
     style="fill:#fab41d;fill-opacity:1;fill-rule:nonzero;stroke:none"
     d="m 243.82785,143.5825 c 2.744,-1.5 3.182,-2.12 3.75,-2.844 3.588,-4.531 5.749,-2.682 6.64,0.057 1.057,3.219 1.5,4.36 -4.286,6.824 -1.614,0.687 -7.448,4.124 -7.448,4.124 -1.928,1.516 -4.609,1.964 -5.901,1.297 -1.365,-0.708 -0.776,-0.53 -1.912,-1.406 -1.093,-0.844 -1.905,-2.87 -1.333,-3.963 0.552,-1.052 2.218,-1.141 4.604,-1.573 1.876,-0.355 5.886,-2.516 5.886,-2.516"
     id="path1286" />
  <path
     style="fill:none;stroke:#231f20;stroke-width:0.565977;stroke-linecap:butt;stroke-linejoin:miter;stroke-miterlimit:4;stroke-dasharray:none;stroke-opacity:1"
     d="m 243.82785,143.5825 c 2.744,-1.5 3.182,-2.12 3.75,-2.844 3.588,-4.531 5.749,-2.682 6.64,0.057 1.057,3.219 1.5,4.36 -4.286,6.824 -1.614,0.687 -7.448,4.124 -7.448,4.124 -1.928,1.516 -4.609,1.964 -5.901,1.297 -1.365,-0.708 -0.776,-0.53 -1.912,-1.406 -1.093,-0.844 -1.905,-2.87 -1.333,-3.963 0.552,-1.052 2.218,-1.141 4.604,-1.573 1.876,-0.355 5.886,-2.516 5.886,-2.516 z"
     id="path1287" />
  <path
     style="fill:#ffffff;fill-opacity:1;fill-rule:nonzero;stroke:none"
     d="m 228.05585,154.6605 c -0.244,0.011 -0.478,1.14 -0.994,1.078 -0.526,-0.067 -0.62,-0.859 -2.296,-1.927 l -0.022,-0.011 c -1.245,-0.744 -2.036,-1.896 -1.973,-3.145 0.099,-2.079 2.468,-3.645 5.285,-3.516 2.824,0.136 5.022,1.932 4.934,4.005 -0.09,1.979 -2.272,3.511 -4.934,3.516"
     id="path1288" />
  <path
     style="fill:none;stroke:#231f20;stroke-width:0.565977;stroke-linecap:butt;stroke-linejoin:miter;stroke-miterlimit:4;stroke-dasharray:none;stroke-opacity:1"
     d="m 228.05585,154.6605 c -0.244,0.011 -0.478,1.14 -0.994,1.078 -0.526,-0.067 -0.62,-0.859 -2.296,-1.927 l -0.022,-0.011 c -1.245,-0.744 -2.036,-1.896 -1.973,-3.145 0.099,-2.079 2.468,-3.645 5.285,-3.516 2.824,0.136 5.022,1.932 4.934,4.005 -0.09,1.979 -2.272,3.511 -4.934,3.516 z"
     id="path1289" />
  <path
     style="fill:#231f20;fill-opacity:1;fill-rule:nonzero;stroke:none"
     d="m 268.88985,131.8385 c -1.44,-1.74 -1.5,-2.271 -0.8,-2.933 0.47,-0.443 0.74,-1.004 1.01,-1.286 0.88,-0.942 2.78,-2.162 9.04,-4.204 1.42,-0.457 3.41,-1.129 4.19,-1.462 1.25,-0.522 1.29,1.905 0.79,2.124 -1.57,0.688 -2.58,1.286 -3.12,1.609 -0.36,0.224 -1.06,0.521 -2.36,1.573 -1.96,1.584 -2.91,2.823 -4.7,3.948 -0.83,0.527 -1.13,1.448 -2.21,1.536 -1.07,0.11 -1.84,-0.905 -1.84,-0.905"
     id="path1290" />
  <path
     style="fill:none;stroke:#231f20;stroke-width:0.565977;stroke-linecap:butt;stroke-linejoin:miter;stroke-miterlimit:4;stroke-dasharray:none;stroke-opacity:1"
     d="m 268.88985,131.8385 c -1.44,-1.74 -1.5,-2.271 -0.8,-2.933 0.47,-0.443 0.74,-1.004 1.01,-1.286 0.88,-0.942 2.78,-2.162 9.04,-4.204 1.42,-0.457 3.41,-1.129 4.19,-1.462 1.25,-0.522 1.29,1.905 0.79,2.124 -1.57,0.688 -2.58,1.286 -3.12,1.609 -0.36,0.224 -1.06,0.521 -2.36,1.573 -1.96,1.584 -2.91,2.823 -4.7,3.948 -0.83,0.527 -1.13,1.448 -2.21,1.536 -1.07,0.11 -1.84,-0.905 -1.84,-0.905 z"
     id="path1291" />
  <path
     style="fill:#231f20;fill-opacity:1;fill-rule:nonzero;stroke:#231f20;stroke-width:0.565977;stroke-linecap:round;stroke-linejoin:round;stroke-miterlimit:4;stroke-dasharray:none;stroke-opacity:1"
     d="m 271.39985,131.9585 c -0.13,1.405 -2.17,2.119 -2.41,2.353 -3.53,3.557 -3.88,3.719 -6.76,6.229 -4.163,3.64 -7.574,5.49 -10.402,3.683 -1.906,-1.229 -2.485,-2.761 -2.234,-4.052 0.286,-1.433 2.26,-3.923 5.134,-3.615 l 1.543,-0.739 c 0.979,-0.636 1.463,-0.943 1.921,-1.287 0.792,-0.609 1.688,-1.219 3.298,-2.317 2.87,-1.954 6.55,-3.09 6.55,-3.09 0.26,-0.165 0.53,-0.208 0.8,-0.17"
     id="path1292" />
  <path
     style="fill:#fab41d;fill-opacity:1;fill-rule:nonzero;stroke:#231f20;stroke-width:0.565977;stroke-linecap:butt;stroke-linejoin:miter;stroke-miterlimit:4;stroke-dasharray:none;stroke-opacity:1"
     d="m 254.59885,136.9525 c -2.871,-0.302 -4.833,2.192 -5.115,3.63 -0.245,1.292 0.344,2.822 2.25,4.042 2.234,1.422 4.828,0.562 7.866,-1.662 z"
     id="path1293" />
  <path
     style="fill:#231f20;fill-opacity:1;fill-rule:nonzero;stroke:none"
     d="m 239.67085,161.4945 c 1.287,-0.172 0.656,-2.11 0.568,-2.636 -0.093,-0.542 -0.172,-2.094 -0.077,-3.312 0.093,-1.224 -0.314,-2.792 -0.136,-5.11 0.088,-1.218 -0.594,-2.464 -2.37,-2.516 -1.756,-0.057 -2.448,0.907 -2.338,2.402 0.114,1.489 0.853,2.849 1.072,4.344 0.218,1.494 0.302,3.036 0.308,4.254 0.01,1.38 0.52,2.063 0.962,2.24 1.111,0.464 2.011,0.334 2.011,0.334"
     id="path1298" />
  <path
     style="fill:none;stroke:#231f20;stroke-width:0.565977;stroke-linecap:butt;stroke-linejoin:miter;stroke-miterlimit:4;stroke-dasharray:none;stroke-opacity:1"
     d="m 239.67085,161.4945 c 1.287,-0.172 0.656,-2.11 0.568,-2.636 -0.093,-0.542 -0.172,-2.094 -0.077,-3.312 0.093,-1.224 -0.314,-2.792 -0.136,-5.11 0.088,-1.218 -0.594,-2.464 -2.37,-2.516 -1.756,-0.057 -2.448,0.907 -2.338,2.402 0.114,1.489 0.853,2.849 1.072,4.344 0.218,1.494 0.302,3.036 0.308,4.254 0.01,1.38 0.52,2.063 0.962,2.24 1.111,0.464 2.011,0.334 2.011,0.334 z"
     id="path1299" />
  <path
     style="fill:#231f20;fill-opacity:1;fill-rule:nonzero;stroke:none"
     d="m 284.18985,120.2185 c -1.27,-0.459 -1.92,0.307 -1.92,1.339 0,0.312 -0.32,0.577 -0.3,0.885 0.07,0.697 1.43,1.776 2.63,0.859 0.08,-0.058 0.85,-0.339 1.39,-0.635 1.07,-0.595 2.91,-2.271 3,-4.975 0.05,-1.27 -0.72,-1.057 -0.9,-0.552 -0.54,1.62 -0.91,1.651 -1.22,2.027 -1.01,1.271 -2.68,1.052 -2.68,1.052"
     id="path1300" />
  <path
     style="fill:none;stroke:#231f20;stroke-width:0.332927;stroke-linecap:butt;stroke-linejoin:miter;stroke-miterlimit:4;stroke-dasharray:none;stroke-opacity:1"
     d="m 284.18985,120.2185 c -1.27,-0.459 -1.92,0.307 -1.92,1.339 0,0.312 -0.32,0.577 -0.3,0.885 0.07,0.697 1.43,1.776 2.63,0.859 0.08,-0.058 0.85,-0.339 1.39,-0.635 1.07,-0.595 2.91,-2.271 3,-4.975 0.05,-1.27 -0.72,-1.057 -0.9,-0.552 -0.54,1.62 -0.91,1.651 -1.22,2.027 -1.01,1.271 -2.68,1.052 -2.68,1.052 z"
     id="path1301" />
  <path
     style="fill:#fab41d;fill-opacity:1;fill-rule:nonzero;stroke:none"
     d="m 308.68985,151.2185 c 2.88,1.213 3.64,1.161 4.56,1.156 5.77,-0.022 5.68,2.817 4.09,5.224 -1.86,2.838 -2.47,3.896 -8,0.906 -1.54,-0.828 -7.87,-3.245 -7.87,-3.245 -2.38,-0.563 -4.41,-2.38 -4.69,-3.803 -0.3,-1.509 -0.07,-0.937 -0.09,-2.374 -0.03,-1.38 1.05,-3.282 2.26,-3.511 1.17,-0.228 2.28,1.021 4.1,2.615 1.44,1.245 5.64,3.032 5.64,3.032"
     id="path1302" />
  <path
     style="fill:none;stroke:#231f20;stroke-width:0.565977;stroke-linecap:butt;stroke-linejoin:miter;stroke-miterlimit:4;stroke-dasharray:none;stroke-opacity:1"
     d="m 308.68985,151.2185 c 2.88,1.213 3.64,1.161 4.56,1.156 5.77,-0.022 5.68,2.817 4.09,5.224 -1.86,2.838 -2.47,3.896 -8,0.906 -1.54,-0.828 -7.87,-3.245 -7.87,-3.245 -2.38,-0.563 -4.41,-2.38 -4.69,-3.803 -0.3,-1.509 -0.07,-0.937 -0.09,-2.374 -0.03,-1.38 1.05,-3.282 2.26,-3.511 1.17,-0.228 2.28,1.021 4.1,2.615 1.44,1.245 5.64,3.032 5.64,3.032 z"
     id="path1303" />
  <path
     style="fill:#ffffff;fill-opacity:1;fill-rule:nonzero;stroke:none"
     d="m 290.19985,145.8005 c -0.16,-0.186 -1.19,0.339 -1.46,-0.109 -0.28,-0.453 0.28,-1.015 0.07,-2.995 v -0.025 c -0.2,-1.433 0.2,-2.767 1.23,-3.5 1.68,-1.219 4.38,-0.344 6.03,1.943 1.66,2.286 1.63,5.124 -0.04,6.348 -1.61,1.166 -4.17,0.412 -5.83,-1.662"
     id="path1304" />
  <path
     style="fill:none;stroke:#231f20;stroke-width:0.565977;stroke-linecap:butt;stroke-linejoin:miter;stroke-miterlimit:4;stroke-dasharray:none;stroke-opacity:1"
     d="m 290.19985,145.8005 c -0.16,-0.186 -1.19,0.339 -1.46,-0.109 -0.28,-0.453 0.28,-1.015 0.07,-2.995 v -0.025 c -0.2,-1.433 0.2,-2.767 1.23,-3.5 1.68,-1.219 4.38,-0.344 6.03,1.943 1.66,2.286 1.63,5.124 -0.04,6.348 -1.61,1.166 -4.17,0.412 -5.83,-1.662 z"
     id="path1305" />
  <path
     style="fill:#231f20;fill-opacity:1;fill-rule:nonzero;stroke:none"
     d="m 333.48985,163.4835 c 0.46,-2.213 0.84,-2.588 1.79,-2.453 0.64,0.084 1.25,-0.058 1.64,-0.02 1.28,0.104 3.42,0.833 8.91,4.446 1.25,0.824 3.01,1.959 3.76,2.366 1.19,0.65 -0.68,2.192 -1.16,1.942 -1.52,-0.797 -2.62,-1.218 -3.2,-1.432 -0.41,-0.146 -1.08,-0.51 -2.71,-0.87 -2.46,-0.547 -4.02,-0.515 -6.02,-1.214 -0.93,-0.317 -1.82,0.027 -2.57,-0.76 -0.76,-0.776 -0.44,-2.005 -0.44,-2.005"
     id="path1306" />
  <path
     style="fill:none;stroke:#231f20;stroke-width:0.565977;stroke-linecap:butt;stroke-linejoin:miter;stroke-miterlimit:4;stroke-dasharray:none;stroke-opacity:1"
     d="m 333.48985,163.4835 c 0.46,-2.213 0.84,-2.588 1.79,-2.453 0.64,0.084 1.25,-0.058 1.64,-0.02 1.28,0.104 3.42,0.833 8.91,4.446 1.25,0.824 3.01,1.959 3.76,2.366 1.19,0.65 -0.68,2.192 -1.16,1.942 -1.52,-0.797 -2.62,-1.218 -3.2,-1.432 -0.41,-0.146 -1.08,-0.51 -2.71,-0.87 -2.46,-0.547 -4.02,-0.515 -6.02,-1.214 -0.93,-0.317 -1.82,0.027 -2.57,-0.76 -0.76,-0.776 -0.44,-2.005 -0.44,-2.005 z"
     id="path1308" />
  <path
     style="fill:#231f20;fill-opacity:1;fill-rule:nonzero;stroke:#231f20;stroke-width:0.565977;stroke-linecap:round;stroke-linejoin:round;stroke-miterlimit:4;stroke-dasharray:none;stroke-opacity:1"
     d="m 334.95985,165.5145 c -1.18,0.777 -3.01,-0.37 -3.34,-0.411 -4.99,-0.541 -5.33,-0.713 -9.08,-1.396 -5.45,-0.989 -9.01,-2.5 -9.36,-5.833 -0.23,-2.26 0.61,-3.667 1.77,-4.276 1.29,-0.672 4.47,-0.678 6.02,1.754 l 1.54,0.746 c 1.1,0.369 1.65,0.557 2.2,0.697 0.97,0.24 2.01,0.563 3.87,1.141 3.32,1.022 6.5,3.187 6.5,3.187 0.29,0.1 0.5,0.287 0.63,0.521"
     id="path1310" />
  <path
     style="fill:#fab41d;fill-opacity:1;fill-rule:nonzero;stroke:none"
     d="m 314.55985,153.7705 c -1.17,0.609 -2,2.025 -1.75,4.276 0.28,2.634 2.56,4.125 6.19,5.109 l 1.58,-7.651 c -1.55,-2.433 -4.73,-2.412 -6.02,-1.734"
     id="path1311" />
  <path
     style="fill:none;stroke:#231f20;stroke-width:0.565977;stroke-linecap:butt;stroke-linejoin:miter;stroke-miterlimit:4;stroke-dasharray:none;stroke-opacity:1"
     d="m 314.55985,153.7705 c -1.17,0.609 -2,2.025 -1.75,4.276 0.28,2.634 2.56,4.125 6.19,5.109 l 1.58,-7.651 c -1.55,-2.433 -4.73,-2.412 -6.02,-1.734 z"
     id="path1312" />
  <path
     style="fill:#231f20;fill-opacity:1;fill-rule:nonzero;stroke:none"
     d="m 301.49985,161.4945 c 1.29,-0.172 0.66,-2.11 0.57,-2.636 -0.09,-0.542 -0.17,-2.094 -0.08,-3.312 0.1,-1.224 -0.31,-2.792 -0.13,-5.11 0.09,-1.218 -0.59,-2.464 -2.37,-2.516 -1.76,-0.057 -2.44,0.907 -2.33,2.402 0.11,1.489 0.84,2.849 1.06,4.344 0.22,1.494 0.31,3.036 0.31,4.254 0.01,1.38 0.52,2.063 0.96,2.24 1.11,0.464 2.01,0.334 2.01,0.334"
     id="path1317" />
  <path
     style="fill:none;stroke:#231f20;stroke-width:0.565977;stroke-linecap:butt;stroke-linejoin:miter;stroke-miterlimit:4;stroke-dasharray:none;stroke-opacity:1"
     d="m 301.49985,161.4945 c 1.29,-0.172 0.66,-2.11 0.57,-2.636 -0.09,-0.542 -0.17,-2.094 -0.08,-3.312 0.1,-1.224 -0.31,-2.792 -0.13,-5.11 0.09,-1.218 -0.59,-2.464 -2.37,-2.516 -1.76,-0.057 -2.44,0.907 -2.33,2.402 0.11,1.489 0.84,2.849 1.06,4.344 0.22,1.494 0.31,3.036 0.31,4.254 0.01,1.38 0.52,2.063 0.96,2.24 1.11,0.464 2.01,0.334 2.01,0.334 z"
     id="path1318" />
  <path
     style="fill:#fab41d;fill-opacity:1;fill-rule:nonzero;stroke:none"
     d="m 140.13485,113.5055 c -3.099,0.453 -3.719,0.885 -4.505,1.364 -4.938,3.005 -6.318,0.526 -6.208,-2.355 0.125,-3.38 0.104,-4.609 6.39,-4.911 1.75,-0.084 8.416,-1.286 8.416,-1.286 2.334,-0.746 5.006,-0.24 5.986,0.833 1.036,1.136 0.546,0.765 1.301,1.984 0.74,1.172 0.792,3.355 -0.125,4.177 -0.886,0.798 -2.474,0.303 -4.864,-0.114 -1.88,-0.328 -6.391,0.308 -6.391,0.308"
     id="path1323" />
  <path
     style="fill:none;stroke:#231f20;stroke-width:0.565977;stroke-linecap:butt;stroke-linejoin:miter;stroke-miterlimit:4;stroke-dasharray:none;stroke-opacity:1"
     d="m 140.13485,113.5055 c -3.099,0.453 -3.719,0.885 -4.505,1.364 -4.938,3.005 -6.318,0.526 -6.208,-2.355 0.125,-3.38 0.104,-4.609 6.39,-4.911 1.75,-0.084 8.416,-1.286 8.416,-1.286 2.334,-0.746 5.006,-0.24 5.986,0.833 1.036,1.136 0.546,0.765 1.301,1.984 0.74,1.172 0.792,3.355 -0.125,4.177 -0.886,0.798 -2.474,0.303 -4.864,-0.114 -1.88,-0.328 -6.391,0.308 -6.391,0.308 z"
     id="path1324" />
  <path
     style="fill:#ffffff;fill-opacity:1;fill-rule:nonzero;stroke:none"
     d="m 157.92685,107.2595 c 0.244,-0.021 0.427,-1.161 0.953,-1.12 0.515,0.042 0.651,0.828 2.375,1.819 l 0.02,0.015 c 1.272,0.682 2.115,1.797 2.109,3.052 -0.004,2.078 -2.301,3.75 -5.118,3.745 -2.834,-0.005 -5.11,-1.703 -5.11,-3.776 0.006,-1.984 2.115,-3.609 4.771,-3.735"
     id="path1325" />
  <path
     style="fill:none;stroke:#231f20;stroke-width:0.565977;stroke-linecap:butt;stroke-linejoin:miter;stroke-miterlimit:4;stroke-dasharray:none;stroke-opacity:1"
     d="m 157.92685,107.2595 c 0.244,-0.021 0.427,-1.161 0.953,-1.12 0.515,0.042 0.651,0.828 2.375,1.819 l 0.02,0.015 c 1.272,0.682 2.115,1.797 2.109,3.052 -0.004,2.078 -2.301,3.75 -5.118,3.745 -2.834,-0.005 -5.11,-1.703 -5.11,-3.776 0.006,-1.984 2.115,-3.609 4.771,-3.735 z"
     id="path1326" />
  <path
     style="fill:#231f20;fill-opacity:1;fill-rule:nonzero;stroke:none"
     d="m 120.32285,124.1615 c 2.115,0.812 2.416,1.26 2.124,2.172 -0.186,0.614 -0.156,1.238 -0.249,1.614 -0.323,1.25 -1.396,3.234 -5.885,8.058 -1.016,1.082 -2.432,2.629 -2.964,3.306 -0.839,1.063 -2.047,-1.047 -1.714,-1.479 1.042,-1.36 1.636,-2.37 1.948,-2.917 0.214,-0.374 0.678,-0.973 1.307,-2.52 0.953,-2.338 1.183,-3.881 2.204,-5.729 0.473,-0.865 0.281,-1.813 1.181,-2.407 0.896,-0.625 2.048,-0.098 2.048,-0.098"
     id="path1327" />
  <path
     style="fill:none;stroke:#231f20;stroke-width:0.565977;stroke-linecap:butt;stroke-linejoin:miter;stroke-miterlimit:4;stroke-dasharray:none;stroke-opacity:1"
     d="m 120.32285,124.1615 c 2.115,0.812 2.416,1.26 2.124,2.172 -0.186,0.614 -0.156,1.238 -0.249,1.614 -0.323,1.25 -1.396,3.234 -5.885,8.058 -1.016,1.082 -2.432,2.629 -2.964,3.306 -0.839,1.063 -2.047,-1.047 -1.714,-1.479 1.042,-1.36 1.636,-2.37 1.948,-2.917 0.214,-0.374 0.678,-0.973 1.307,-2.52 0.953,-2.338 1.183,-3.881 2.204,-5.729 0.473,-0.865 0.281,-1.813 1.181,-2.407 0.896,-0.625 2.048,-0.098 2.048,-0.098 z"
     id="path1328" />
  <path
     style="fill:#231f20;fill-opacity:1;fill-rule:nonzero;stroke:#231f20;stroke-width:0.565977;stroke-linecap:round;stroke-linejoin:round;stroke-miterlimit:4;stroke-dasharray:none;stroke-opacity:1"
     d="m 117.00985,127.0625 c -0.38,-1.36 1.265,-2.756 1.407,-3.068 2.025,-4.584 2.292,-4.86 4.078,-8.235 2.588,-4.89 5.113,-7.838 8.4,-7.161 2.219,0.459 3.303,1.688 3.537,2.984 0.244,1.437 -0.714,4.469 -3.5,5.208 l -1.177,1.251 c -0.683,0.937 -1.027,1.396 -1.333,1.885 -0.516,0.855 -1.142,1.74 -2.251,3.349 -1.978,2.854 -5.005,5.224 -5.005,5.224 -0.181,0.25 -0.427,0.386 -0.687,0.448"
     id="path1329" />
  <path
     style="fill:#fab41d;fill-opacity:1;fill-rule:nonzero;stroke:none"
     d="m 134.38385,111.1615 c -0.228,-1.303 -1.328,-2.516 -3.546,-2.975 -2.594,-0.525 -4.713,1.209 -6.744,4.371 l 6.817,3.817 c 2.787,-0.74 3.729,-3.781 3.473,-5.213"
     id="path1330" />
  <path
     style="fill:none;stroke:#231f20;stroke-width:0.565977;stroke-linecap:butt;stroke-linejoin:miter;stroke-miterlimit:4;stroke-dasharray:none;stroke-opacity:1"
     d="m 134.38385,111.1615 c -0.228,-1.303 -1.328,-2.516 -3.546,-2.975 -2.594,-0.525 -4.713,1.209 -6.744,4.371 l 6.817,3.817 c 2.787,-0.74 3.729,-3.781 3.473,-5.213 z"
     id="path1331" />
  <path
     style="fill:#231f20;fill-opacity:1;fill-rule:nonzero;stroke:none"
     d="m 168.55085,116.2135 c -0.364,-0.527 -2.249,-1.022 -3.536,-1.979 -0.869,-0.657 -3.541,-1.267 -4.359,-1.985 -0.75,-0.646 -1.152,-0.88 -2.042,-0.156 -0.536,0.432 -1.276,1.598 -0.974,2.01 0.714,0.954 1.522,1.438 2.531,1.787 1.156,0.38 4.376,1.156 4.98,1.244 1.509,0.213 2.015,0.745 2.411,0.839 0.74,0.177 0.989,-0.068 1.209,-0.511 0.421,-0.869 -0.22,-1.249 -0.22,-1.249"
     id="path1332" />
  <path
     style="fill:none;stroke:#231f20;stroke-width:0.565977;stroke-linecap:butt;stroke-linejoin:miter;stroke-miterlimit:4;stroke-dasharray:none;stroke-opacity:1"
     d="m 168.55085,116.2135 c -0.364,-0.527 -2.249,-1.022 -3.536,-1.979 -0.869,-0.657 -3.541,-1.267 -4.359,-1.985 -0.75,-0.646 -1.152,-0.88 -2.042,-0.156 -0.536,0.432 -1.276,1.598 -0.974,2.01 0.714,0.954 1.522,1.438 2.531,1.787 1.156,0.38 4.376,1.156 4.98,1.244 1.509,0.213 2.015,0.745 2.411,0.839 0.74,0.177 0.989,-0.068 1.209,-0.511 0.421,-0.869 -0.22,-1.249 -0.22,-1.249 z"
     id="path1333" />
  <path
     style="fill:#231f20;fill-opacity:1;fill-rule:nonzero;stroke:none"
     d="m 160.70285,113.3955 c 0.468,-1.209 -1.537,-1.584 -2.047,-1.761 -0.51,-0.172 -1.917,-0.848 -2.938,-1.52 -1.031,-0.672 -2.599,-1.063 -4.552,-2.328 -1.026,-0.663 -2.448,-0.663 -3.343,0.869 -0.891,1.516 -0.376,2.583 0.989,3.203 1.359,0.62 2.906,0.62 4.323,1.147 1.421,0.525 2.817,1.192 3.885,1.77 1.214,0.656 2.058,0.526 2.427,0.224 0.937,-0.745 1.256,-1.604 1.256,-1.604"
     id="path1334" />
  <path
     style="fill:none;stroke:#231f20;stroke-width:0.565977;stroke-linecap:butt;stroke-linejoin:miter;stroke-miterlimit:4;stroke-dasharray:none;stroke-opacity:1"
     d="m 160.70285,113.3955 c 0.468,-1.209 -1.537,-1.584 -2.047,-1.761 -0.51,-0.172 -1.917,-0.848 -2.938,-1.52 -1.031,-0.672 -2.599,-1.063 -4.552,-2.328 -1.026,-0.663 -2.448,-0.663 -3.343,0.869 -0.891,1.516 -0.376,2.583 0.989,3.203 1.359,0.62 2.906,0.62 4.323,1.147 1.421,0.525 2.817,1.192 3.885,1.77 1.214,0.656 2.058,0.526 2.427,0.224 0.937,-0.745 1.256,-1.604 1.256,-1.604 z"
     id="path1335" />
  <path
     style="fill:#231f20;fill-opacity:1;fill-rule:nonzero;stroke:none"
     d="m 174.77985,118.8855 c -0.5,-0.532 -3.405,-2 -4.082,-2.298 -0.61,-0.276 -1.464,-1.052 -2.339,-0.296 -0.36,0.28 -0.667,0.979 -0.719,1.291 -0.036,0.261 0.208,0.48 0.578,0.604 0.625,0.224 0.901,0.037 2.13,0.385 0,0 0.303,0.038 0.844,0.063 1.636,0.109 0.922,-0.093 3.255,0.589 0.157,0.052 0.328,-0.073 0.355,-0.188 0.03,-0.182 -0.022,-0.15 -0.022,-0.15"
     id="path1336" />
  <path
     style="fill:none;stroke:#231f20;stroke-width:0.565977;stroke-linecap:round;stroke-linejoin:round;stroke-miterlimit:4;stroke-dasharray:none;stroke-opacity:1"
     d="m 174.77985,118.8855 c -0.5,-0.532 -3.405,-2 -4.082,-2.298 -0.61,-0.276 -1.464,-1.052 -2.339,-0.296 -0.36,0.28 -0.667,0.979 -0.719,1.291 -0.036,0.261 0.208,0.48 0.578,0.604 0.625,0.224 0.901,0.037 2.13,0.385 0,0 0.303,0.038 0.844,0.063 1.636,0.109 0.922,-0.093 3.255,0.589 0.157,0.052 0.328,-0.073 0.355,-0.188 0.03,-0.182 -0.022,-0.15 -0.022,-0.15 z"
     id="path1337" />
  <path
     style="fill:#231f20;fill-opacity:1;fill-rule:nonzero;stroke:none"
     d="m 112.56685,141.7285 c 1.334,-0.224 1.527,-1.198 1.027,-2.104 -0.152,-0.272 0.005,-0.657 -0.161,-0.917 -0.396,-0.579 -2.115,-0.86 -2.719,0.516 -0.043,0.093 -0.579,0.713 -0.912,1.233 -0.64,1.027 -1.443,3.396 -0.213,5.803 0.573,1.136 1.14,0.584 1.052,0.052 -0.308,-1.683 0,-1.891 0.088,-2.364 0.265,-1.6 1.838,-2.219 1.838,-2.219"
     id="path1338" />
  <path
     style="fill:none;stroke:#231f20;stroke-width:0.332927;stroke-linecap:butt;stroke-linejoin:miter;stroke-miterlimit:4;stroke-dasharray:none;stroke-opacity:1"
     d="m 112.56685,141.7285 c 1.334,-0.224 1.527,-1.198 1.027,-2.104 -0.152,-0.272 0.005,-0.657 -0.161,-0.917 -0.396,-0.579 -2.115,-0.86 -2.719,0.516 -0.043,0.093 -0.579,0.713 -0.912,1.233 -0.64,1.027 -1.443,3.396 -0.213,5.803 0.573,1.136 1.14,0.584 1.052,0.052 -0.308,-1.683 0,-1.891 0.088,-2.364 0.265,-1.6 1.838,-2.219 1.838,-2.219 z"
     id="path1339" />
  <path
     style="fill:#fab41d;fill-opacity:1;fill-rule:nonzero;stroke:none"
     d="m 293.35985,97.1815 c 3.13,-0.146 3.79,-0.52 4.61,-0.922 5.21,-2.51 6.35,0.094 5.96,2.948 -0.46,3.36 -0.56,4.579 -6.84,4.271 -1.75,-0.088 -8.5,0.464 -8.5,0.464 -2.4,0.515 -5.01,-0.245 -5.88,-1.412 -0.92,-1.235 -0.47,-0.812 -1.11,-2.099 -0.61,-1.234 -0.45,-3.417 0.54,-4.15 0.95,-0.704 2.49,-0.058 4.82,0.593 1.85,0.5 6.4,0.307 6.4,0.307"
     id="path1340" />
  <path
     style="fill:none;stroke:#231f20;stroke-width:0.565977;stroke-linecap:butt;stroke-linejoin:miter;stroke-miterlimit:4;stroke-dasharray:none;stroke-opacity:1"
     d="m 293.35985,97.1815 c 3.13,-0.146 3.79,-0.52 4.61,-0.922 5.21,-2.51 6.35,0.094 5.96,2.948 -0.46,3.36 -0.56,4.579 -6.84,4.271 -1.75,-0.088 -8.5,0.464 -8.5,0.464 -2.4,0.515 -5.01,-0.245 -5.88,-1.412 -0.92,-1.235 -0.47,-0.812 -1.11,-2.099 -0.61,-1.234 -0.45,-3.417 0.54,-4.15 0.95,-0.704 2.49,-0.058 4.82,0.593 1.85,0.5 6.4,0.307 6.4,0.307 z"
     id="path1341" />
  <path
     style="fill:#ffffff;fill-opacity:1;fill-rule:nonzero;stroke:none"
     d="m 272.98985,99.4015 c -0.22,-0.126 -1.02,0.697 -1.42,0.358 -0.41,-0.344 -0.06,-1.057 -0.88,-2.869 v -0.021 c -0.64,-1.302 -0.68,-2.698 0.06,-3.714 1.22,-1.682 4.06,-1.702 6.34,-0.052 2.3,1.651 3.16,4.359 1.95,6.047 -1.16,1.609 -3.82,1.697 -6.05,0.251"
     id="path1342" />
  <path
     style="fill:none;stroke:#231f20;stroke-width:0.565977;stroke-linecap:butt;stroke-linejoin:miter;stroke-miterlimit:4;stroke-dasharray:none;stroke-opacity:1"
     d="m 272.98985,99.4015 c -0.22,-0.126 -1.02,0.697 -1.42,0.358 -0.41,-0.344 -0.06,-1.057 -0.88,-2.869 v -0.021 c -0.64,-1.302 -0.68,-2.698 0.06,-3.714 1.22,-1.682 4.06,-1.702 6.34,-0.052 2.3,1.651 3.16,4.359 1.95,6.047 -1.16,1.609 -3.82,1.697 -6.05,0.251 z"
     id="path1343" />
  <path
     style="fill:#231f20;fill-opacity:1;fill-rule:nonzero;stroke:none"
     d="m 320.86985,100.8015 c -0.12,-2.255 0.16,-2.714 1.11,-2.823 0.64,-0.077 1.19,-0.364 1.58,-0.432 1.27,-0.224 3.52,-0.063 9.76,2.052 1.4,0.479 3.4,1.136 4.23,1.339 1.31,0.333 -0.11,2.297 -0.64,2.172 -1.67,-0.386 -2.84,-0.516 -3.46,-0.579 -0.43,-0.036 -1.16,-0.213 -2.84,-0.151 -2.52,0.088 -4.02,0.511 -6.13,0.344 -0.98,-0.078 -1.76,0.484 -2.68,-0.089 -0.93,-0.557 -0.93,-1.833 -0.93,-1.833"
     id="path1344" />
  <path
     style="fill:none;stroke:#231f20;stroke-width:0.565977;stroke-linecap:butt;stroke-linejoin:miter;stroke-miterlimit:4;stroke-dasharray:none;stroke-opacity:1"
     d="m 320.86985,100.8015 c -0.12,-2.255 0.16,-2.714 1.11,-2.823 0.64,-0.077 1.19,-0.364 1.58,-0.432 1.27,-0.224 3.52,-0.063 9.76,2.052 1.4,0.479 3.4,1.136 4.23,1.339 1.31,0.333 -0.11,2.297 -0.64,2.172 -1.67,-0.386 -2.84,-0.516 -3.46,-0.579 -0.43,-0.036 -1.16,-0.213 -2.84,-0.151 -2.52,0.088 -4.02,0.511 -6.13,0.344 -0.98,-0.078 -1.76,0.484 -2.68,-0.089 -0.93,-0.557 -0.93,-1.833 -0.93,-1.833 z"
     id="path1345" />
  <path
     style="fill:#231f20;fill-opacity:1;fill-rule:nonzero;stroke:#231f20;stroke-width:0.565977;stroke-linecap:round;stroke-linejoin:round;stroke-miterlimit:4;stroke-dasharray:none;stroke-opacity:1"
     d="m 322.80985,102.4015 c -0.96,1.046 -3.01,0.4 -3.35,0.446 -4.96,0.73 -5.33,0.652 -9.14,0.939 -5.52,0.416 -9.36,-0.147 -10.53,-3.287 -0.8,-2.12 -0.34,-3.693 0.63,-4.578 1.08,-0.979 4.16,-1.787 6.27,0.177 l 1.69,0.328 c 1.16,0.084 1.73,0.125 2.3,0.125 1,-0.016 2.08,0.036 4.04,0.12 3.47,0.156 7.09,1.448 7.09,1.448 0.3,0.026 0.55,0.151 0.75,0.343"
     id="path1346" />
  <path
     style="fill:#fab41d;fill-opacity:1;fill-rule:nonzero;stroke:#231f20;stroke-width:0.565977;stroke-linecap:butt;stroke-linejoin:miter;stroke-miterlimit:4;stroke-dasharray:none;stroke-opacity:1"
     d="m 306.35985,96.3385 c -2.12,-1.959 -5.19,-1.136 -6.27,-0.157 -0.98,0.886 -1.42,2.464 -0.62,4.589 0.94,2.473 3.53,3.339 7.29,3.375 z"
     id="path1347" />
  <path
     style="fill:#231f20;fill-opacity:1;fill-rule:nonzero;stroke:none"
     d="m 292.01985,101.4475 c 0.41,-0.494 0.39,-2.442 0.98,-3.933 0.41,-1.015 0.29,-3.749 0.77,-4.724 0.43,-0.9 0.55,-1.348 -0.39,-2.015 -0.55,-0.401 -1.88,-0.813 -2.19,-0.412 -0.74,0.938 -0.99,1.844 -1.06,2.912 -0.06,1.219 0.04,4.526 0.11,5.13 0.19,1.516 -0.19,2.141 -0.18,2.548 0.02,0.765 0.32,0.942 0.81,1.03 0.96,0.178 1.15,-0.536 1.15,-0.536"
     id="path1348" />
  <path
     style="fill:none;stroke:#231f20;stroke-width:0.565977;stroke-linecap:butt;stroke-linejoin:miter;stroke-miterlimit:4;stroke-dasharray:none;stroke-opacity:1"
     d="m 292.01985,101.4475 c 0.41,-0.494 0.39,-2.442 0.98,-3.933 0.41,-1.015 0.29,-3.749 0.77,-4.724 0.43,-0.9 0.55,-1.348 -0.39,-2.015 -0.55,-0.401 -1.88,-0.813 -2.19,-0.412 -0.74,0.938 -0.99,1.844 -1.06,2.912 -0.06,1.219 0.04,4.526 0.11,5.13 0.19,1.516 -0.19,2.141 -0.18,2.548 0.02,0.765 0.32,0.942 0.81,1.03 0.96,0.178 1.15,-0.536 1.15,-0.536 z"
     id="path1349" />
  <path
     style="fill:#231f20;fill-opacity:1;fill-rule:nonzero;stroke:none"
     d="m 292.44985,90.2495 c -0.91,-0.922 -2.08,0.75 -2.45,1.141 -0.37,0.396 -1.56,1.396 -2.59,2.052 -1.04,0.661 -2.04,1.927 -4,3.183 -1.03,0.661 -1.61,1.957 -0.59,3.405 1.02,1.432 2.21,1.407 3.33,0.423 1.12,-0.991 1.76,-2.391 2.82,-3.47 1.07,-1.073 2.25,-2.073 3.22,-2.806 1.1,-0.839 1.33,-1.658 1.2,-2.12 -0.29,-1.162 -0.94,-1.808 -0.94,-1.808"
     id="path1350" />
  <path
     style="fill:none;stroke:#231f20;stroke-width:0.565977;stroke-linecap:butt;stroke-linejoin:miter;stroke-miterlimit:4;stroke-dasharray:none;stroke-opacity:1"
     d="m 292.44985,90.2495 c -0.91,-0.922 -2.08,0.75 -2.45,1.141 -0.37,0.396 -1.56,1.396 -2.59,2.052 -1.04,0.661 -2.04,1.927 -4,3.183 -1.03,0.661 -1.61,1.957 -0.59,3.405 1.02,1.432 2.21,1.407 3.33,0.423 1.12,-0.991 1.76,-2.391 2.82,-3.47 1.07,-1.073 2.25,-2.073 3.22,-2.806 1.1,-0.839 1.33,-1.658 1.2,-2.12 -0.29,-1.162 -0.94,-1.808 -0.94,-1.808 z"
     id="path1351" />
  <path
     style="fill:#231f20;fill-opacity:1;fill-rule:nonzero;stroke:none"
     d="m 285.07985,103.9105 c 0.7,0.229 3.95,0.104 4.69,0.032 0.66,-0.052 1.79,0.219 2.19,-0.871 0.17,-0.421 0.11,-1.181 0,-1.478 -0.09,-0.246 -0.41,-0.318 -0.79,-0.246 -0.67,0.11 -0.81,0.402 -2.05,0.694 0,0 -0.29,0.114 -0.78,0.354 -1.48,0.692 -0.76,0.52 -3.13,1.058 -0.16,0.03 -0.24,0.228 -0.22,0.333 0.06,0.176 0.09,0.124 0.09,0.124"
     id="path1352" />
  <path
     style="fill:none;stroke:#231f20;stroke-width:0.565977;stroke-linecap:round;stroke-linejoin:round;stroke-miterlimit:4;stroke-dasharray:none;stroke-opacity:1"
     d="m 285.07985,103.9105 c 0.7,0.229 3.95,0.104 4.69,0.032 0.66,-0.052 1.79,0.219 2.19,-0.871 0.17,-0.421 0.11,-1.181 0,-1.478 -0.09,-0.246 -0.41,-0.318 -0.79,-0.246 -0.67,0.11 -0.81,0.402 -2.05,0.694 0,0 -0.29,0.114 -0.78,0.354 -1.48,0.692 -0.76,0.52 -3.13,1.058 -0.16,0.03 -0.24,0.228 -0.22,0.333 0.06,0.176 0.09,0.124 0.09,0.124 z"
     id="path1353" />
  <path
     style="fill:#231f20;fill-opacity:1;fill-rule:nonzero;stroke:none"
     d="m 340.07985,100.6615 c -0.75,-1.131 -1.72,-0.907 -2.34,-0.074 -0.19,0.251 -0.61,0.266 -0.77,0.527 -0.37,0.599 0.08,2.281 1.58,2.26 0.11,0 0.89,0.235 1.51,0.328 1.2,0.161 3.68,-0.077 5.37,-2.188 0.8,-0.989 0.06,-1.28 -0.38,-0.979 -1.41,0.97 -1.73,0.776 -2.2,0.891 -1.56,0.412 -2.77,-0.765 -2.77,-0.765"
     id="path1354" />
  <path
     style="fill:none;stroke:#231f20;stroke-width:0.332927;stroke-linecap:butt;stroke-linejoin:miter;stroke-miterlimit:4;stroke-dasharray:none;stroke-opacity:1"
     d="m 340.07985,100.6615 c -0.75,-1.131 -1.72,-0.907 -2.34,-0.074 -0.19,0.251 -0.61,0.266 -0.77,0.527 -0.37,0.599 0.08,2.281 1.58,2.26 0.11,0 0.89,0.235 1.51,0.328 1.2,0.161 3.68,-0.077 5.37,-2.188 0.8,-0.989 0.06,-1.28 -0.38,-0.979 -1.41,0.97 -1.73,0.776 -2.2,0.891 -1.56,0.412 -2.77,-0.765 -2.77,-0.765 z"
     id="path1355" />
  <path
     style="fill:#fab41d;fill-opacity:1;fill-rule:nonzero;stroke:none"
     d="m 246.80185,92.7075 c 2.458,-1.937 2.776,-2.625 3.218,-3.432 2.782,-5.068 5.219,-3.609 6.558,-1.057 1.578,3 2.208,4.047 -3.088,7.448 -1.475,0.943 -6.652,5.312 -6.652,5.312 -1.64,1.812 -4.214,2.708 -5.599,2.265 -1.464,-0.468 -0.855,-0.39 -2.12,-1.066 -1.224,-0.647 -2.359,-2.511 -1.973,-3.688 0.364,-1.126 1.994,-1.49 4.27,-2.318 1.792,-0.661 5.386,-3.464 5.386,-3.464"
     id="path1356" />
  <path
     style="fill:none;stroke:#231f20;stroke-width:0.565977;stroke-linecap:butt;stroke-linejoin:miter;stroke-miterlimit:4;stroke-dasharray:none;stroke-opacity:1"
     d="m 246.80185,92.7075 c 2.458,-1.937 2.776,-2.625 3.218,-3.432 2.782,-5.068 5.219,-3.609 6.558,-1.057 1.578,3 2.208,4.047 -3.088,7.448 -1.475,0.943 -6.652,5.312 -6.652,5.312 -1.64,1.812 -4.214,2.708 -5.599,2.265 -1.464,-0.468 -0.855,-0.39 -2.12,-1.066 -1.224,-0.647 -2.359,-2.511 -1.973,-3.688 0.364,-1.126 1.994,-1.49 4.27,-2.318 1.792,-0.661 5.386,-3.464 5.386,-3.464 z"
     id="path1357" />
  <path
     style="fill:#ffffff;fill-opacity:1;fill-rule:nonzero;stroke:none"
     d="m 229.13985,102.1865 c -0.213,-0.119 -1,0.729 -1.412,0.401 -0.41,-0.333 -0.082,-1.057 -0.957,-2.844 l -0.011,-0.02 c -0.677,-1.276 -0.756,-2.672 -0.052,-3.709 1.167,-1.723 4.006,-1.828 6.343,-0.249 2.344,1.582 3.287,4.26 2.131,5.978 -1.104,1.647 -3.766,1.819 -6.042,0.443"
     id="path1358" />
  <path
     style="fill:none;stroke:#231f20;stroke-width:0.565977;stroke-linecap:butt;stroke-linejoin:miter;stroke-miterlimit:4;stroke-dasharray:none;stroke-opacity:1"
     d="m 229.13985,102.1865 c -0.213,-0.119 -1,0.729 -1.412,0.401 -0.41,-0.333 -0.082,-1.057 -0.957,-2.844 l -0.011,-0.02 c -0.677,-1.276 -0.756,-2.672 -0.052,-3.709 1.167,-1.723 4.006,-1.828 6.343,-0.249 2.344,1.582 3.287,4.26 2.131,5.978 -1.104,1.647 -3.766,1.819 -6.042,0.443 z"
     id="path1359" />
  <path
     style="fill:#231f20;fill-opacity:1;fill-rule:nonzero;stroke:none"
     d="m 261.73985,72.2705 c -2.225,-0.4173 -2.605,-0.8027 -2.485,-1.7507 0.072,-0.6346 -0.073,-1.244 -0.047,-1.6346 0.083,-1.292 0.772,-3.432 4.302,-8.9947 0.8,-1.2506 1.91,-3.0373 2.31,-3.7973 0.63,-1.192 2.2,0.656 1.96,1.136 -0.78,1.5307 -1.18,2.64 -1.39,3.228 -0.13,0.4013 -0.48,1.0787 -0.82,2.7146 -0.51,2.4787 -0.45,4.036 -1.11,6.0414 -0.31,0.932 0.05,1.828 -0.73,2.588 -0.76,0.7706 -1.99,0.4693 -1.99,0.4693"
     id="path1360" />
  <path
     style="fill:none;stroke:#231f20;stroke-width:0.565977;stroke-linecap:butt;stroke-linejoin:miter;stroke-miterlimit:4;stroke-dasharray:none;stroke-opacity:1"
     d="m 261.73985,72.2705 c -2.225,-0.4173 -2.605,-0.8027 -2.485,-1.7507 0.072,-0.6346 -0.073,-1.244 -0.047,-1.6346 0.083,-1.292 0.772,-3.432 4.302,-8.9947 0.8,-1.2506 1.91,-3.0373 2.31,-3.7973 0.63,-1.192 2.2,0.656 1.96,1.136 -0.78,1.5307 -1.18,2.64 -1.39,3.228 -0.13,0.4013 -0.48,1.0787 -0.82,2.7146 -0.51,2.4787 -0.45,4.036 -1.11,6.0414 -0.31,0.932 0.05,1.828 -0.73,2.588 -0.76,0.7706 -1.99,0.4693 -1.99,0.4693 z"
     id="path1361" />
  <path
     style="fill:#231f20;fill-opacity:1;fill-rule:nonzero;stroke:#231f20;stroke-width:0.565977;stroke-linecap:round;stroke-linejoin:round;stroke-miterlimit:4;stroke-dasharray:none;stroke-opacity:1"
     d="m 263.74985,70.7652 c 0.79,1.172 -0.32,3.0213 -0.36,3.3546 -0.46,4.9947 -0.63,5.3373 -1.25,9.1097 -0.9,5.457 -2.36,9.052 -5.688,9.452 -2.249,0.272 -3.672,-0.547 -4.301,-1.708 -0.693,-1.282 -0.751,-4.459 1.661,-6.047 l 0.714,-1.557 c 0.358,-1.104 0.536,-1.651 0.666,-2.208 0.224,-0.975 0.531,-2.011 1.074,-3.891 0.973,-3.3387 3.088,-6.5467 3.088,-6.5467 0.093,-0.292 0.276,-0.5 0.506,-0.6466"
     id="path1362" />
  <path
     style="fill:#fab41d;fill-opacity:1;fill-rule:nonzero;stroke:#231f20;stroke-width:0.565977;stroke-linecap:butt;stroke-linejoin:miter;stroke-miterlimit:4;stroke-dasharray:none;stroke-opacity:1"
     d="m 253.96285,85.3115 c -2.401,1.594 -2.333,4.771 -1.636,6.052 0.631,1.156 2.057,1.964 4.308,1.688 2.625,-0.322 4.075,-2.641 5.015,-6.281 z"
     id="path1363" />
  <path
     style="fill:#231f20;fill-opacity:1;fill-rule:nonzero;stroke:none"
     d="m 248.18685,101.7495 c 0.412,-0.495 0.385,-2.443 0.979,-3.932 0.406,-1.016 0.292,-3.75 0.766,-4.724 0.438,-0.896 0.552,-1.344 -0.381,-2.016 -0.552,-0.4 -1.88,-0.807 -2.197,-0.406 -0.74,0.932 -0.99,1.839 -1.052,2.906 -0.074,1.218 0.025,4.526 0.104,5.136 0.193,1.51 -0.188,2.14 -0.183,2.541 0.027,0.765 0.328,0.943 0.819,1.037 0.948,0.176 1.145,-0.542 1.145,-0.542"
     id="path1364" />
  <path
     style="fill:none;stroke:#231f20;stroke-width:0.565977;stroke-linecap:butt;stroke-linejoin:miter;stroke-miterlimit:4;stroke-dasharray:none;stroke-opacity:1"
     d="m 248.18685,101.7495 c 0.412,-0.495 0.385,-2.443 0.979,-3.932 0.406,-1.016 0.292,-3.75 0.766,-4.724 0.438,-0.896 0.552,-1.344 -0.381,-2.016 -0.552,-0.4 -1.88,-0.807 -2.197,-0.406 -0.74,0.932 -0.99,1.839 -1.052,2.906 -0.074,1.218 0.025,4.526 0.104,5.136 0.193,1.51 -0.188,2.14 -0.183,2.541 0.027,0.765 0.328,0.943 0.819,1.037 0.948,0.176 1.145,-0.542 1.145,-0.542 z"
     id="path1365" />
  <path
     style="fill:#231f20;fill-opacity:1;fill-rule:nonzero;stroke:none"
     d="m 248.61885,90.5515 c -0.911,-0.922 -2.077,0.75 -2.448,1.14 -0.375,0.396 -1.567,1.396 -2.599,2.052 -1.03,0.662 -2.036,1.928 -3.994,3.183 -1.027,0.661 -1.61,1.959 -0.588,3.407 1.014,1.432 2.202,1.405 3.328,0.421 1.12,-0.989 1.76,-2.391 2.822,-3.468 1.063,-1.073 2.244,-2.073 3.214,-2.808 1.098,-0.839 1.333,-1.656 1.208,-2.12 -0.296,-1.161 -0.943,-1.807 -0.943,-1.807"
     id="path1366" />
  <path
     style="fill:none;stroke:#231f20;stroke-width:0.565977;stroke-linecap:butt;stroke-linejoin:miter;stroke-miterlimit:4;stroke-dasharray:none;stroke-opacity:1"
     d="m 248.61885,90.5515 c -0.911,-0.922 -2.077,0.75 -2.448,1.14 -0.375,0.396 -1.567,1.396 -2.599,2.052 -1.03,0.662 -2.036,1.928 -3.994,3.183 -1.027,0.661 -1.61,1.959 -0.588,3.407 1.014,1.432 2.202,1.405 3.328,0.421 1.12,-0.989 1.76,-2.391 2.822,-3.468 1.063,-1.073 2.244,-2.073 3.214,-2.808 1.098,-0.839 1.333,-1.656 1.208,-2.12 -0.296,-1.161 -0.943,-1.807 -0.943,-1.807 z"
     id="path1367" />
  <path
     style="fill:#231f20;fill-opacity:1;fill-rule:nonzero;stroke:none"
     d="m 241.24985,104.2135 c 0.697,0.229 3.948,0.104 4.688,0.03 0.661,-0.052 1.785,0.219 2.186,-0.869 0.178,-0.421 0.11,-1.177 0.006,-1.479 -0.088,-0.245 -0.412,-0.318 -0.798,-0.245 -0.661,0.109 -0.806,0.401 -2.046,0.693 0,0 -0.287,0.114 -0.776,0.354 -1.479,0.693 -0.766,0.526 -3.13,1.057 -0.166,0.032 -0.245,0.229 -0.218,0.333 0.056,0.178 0.088,0.126 0.088,0.126"
     id="path1368" />
  <path
     style="fill:none;stroke:#231f20;stroke-width:0.565977;stroke-linecap:round;stroke-linejoin:round;stroke-miterlimit:4;stroke-dasharray:none;stroke-opacity:1"
     d="m 241.24985,104.2135 c 0.697,0.229 3.948,0.104 4.688,0.03 0.661,-0.052 1.785,0.219 2.186,-0.869 0.178,-0.421 0.11,-1.177 0.006,-1.479 -0.088,-0.245 -0.412,-0.318 -0.798,-0.245 -0.661,0.109 -0.806,0.401 -2.046,0.693 0,0 -0.287,0.114 -0.776,0.354 -1.479,0.693 -0.766,0.526 -3.13,1.057 -0.166,0.032 -0.245,0.229 -0.218,0.333 0.056,0.178 0.088,0.126 0.088,0.126 z"
     id="path1369" />
  <path
     style="fill:#231f20;fill-opacity:1;fill-rule:nonzero;stroke:none"
     d="m 266.14985,53.5772 c -1.28,0.4587 -1.29,1.4587 -0.62,2.2507 0.19,0.24 0.1,0.6506 0.32,0.8746 0.49,0.5 2.24,0.4587 2.57,-1.0053 0.03,-0.0987 0.44,-0.8067 0.68,-1.38 0.44,-1.1307 0.79,-3.5987 -0.86,-5.7453 -0.77,-1.0093 -1.23,-0.3587 -1.04,0.1467 0.61,1.5933 0.35,1.8533 0.35,2.3386 0.03,1.62 -1.4,2.52 -1.4,2.52"
     id="path1370" />
  <path
     style="fill:none;stroke:#231f20;stroke-width:0.332927;stroke-linecap:butt;stroke-linejoin:miter;stroke-miterlimit:4;stroke-dasharray:none;stroke-opacity:1"
     d="m 266.14985,53.5772 c -1.28,0.4587 -1.29,1.4587 -0.62,2.2507 0.19,0.24 0.1,0.6506 0.32,0.8746 0.49,0.5 2.24,0.4587 2.57,-1.0053 0.03,-0.0987 0.44,-0.8067 0.68,-1.38 0.44,-1.1307 0.79,-3.5987 -0.86,-5.7453 -0.77,-1.0093 -1.23,-0.3587 -1.04,0.1467 0.61,1.5933 0.35,1.8533 0.35,2.3386 0.03,1.62 -1.4,2.52 -1.4,2.52 z"
     id="path1371" />
  <path
     style="fill:none;stroke:#231f20;stroke-width:0.49806;stroke-linecap:butt;stroke-linejoin:miter;stroke-miterlimit:4;stroke-dasharray:none;stroke-opacity:1"
     d="m 61.410855,126.9315 c 4.448,-17.693 19.907,-28.297 19.907,-28.297"
     id="path1372" />
  <path
     style="fill:#231f20;fill-opacity:1;fill-rule:nonzero;stroke:none"
     d="m 82.556855,97.7865 c -0.438,0.615 -0.906,1.484 -1.088,2.181 l -0.312,-1.218 -1.027,-0.735 c 0.719,0.084 1.693,-0.047 2.427,-0.228"
     id="path1373" />
  <path
     style="fill:none;stroke:#231f20;stroke-width:2.2639;stroke-linecap:butt;stroke-linejoin:miter;stroke-miterlimit:4;stroke-dasharray:29.574, 29.574, 29.574, 29.574, 29.574, 29.574;stroke-dashoffset:0;stroke-opacity:1"
     d="m 213.64585,89.4055 v 31.354"
     id="path1374" />
  <path
     style="fill:none;stroke:#918f8f;stroke-width:1.33171;stroke-linecap:butt;stroke-linejoin:miter;stroke-miterlimit:4;stroke-dasharray:none;stroke-opacity:1"
     d="M 0.66585499,0 V 168.5405"
     id="path1381" />
  <path
     style="fill:none;stroke:#231f20;stroke-width:1.33171;stroke-linecap:round;stroke-linejoin:miter;stroke-miterlimit:4;stroke-dasharray:none;stroke-opacity:1"
     d="m 226.57785,101.3435 h 120.892"
     id="path1455" />
</svg>
