<?xml version="1.0" encoding="UTF-8" standalone="no"?>
<!-- Created with Inkscape (http://www.inkscape.org/) -->

<svg
   version="1.1"
   id="svg1"
   width="268.89337"
   height="94.12043"
   viewBox="0 0 268.89336 94.120432"
   sodipodi:docname="cell.svg"
   xmlns:inkscape="http://www.inkscape.org/namespaces/inkscape"
   xmlns:sodipodi="http://sodipodi.sourceforge.net/DTD/sodipodi-0.dtd"
   xmlns="http://www.w3.org/2000/svg"
   xmlns:svg="http://www.w3.org/2000/svg">
  <sodipodi:namedview
     id="namedview1"
     pagecolor="#ffffff"
     bordercolor="#000000"
     borderopacity="0.25"
     inkscape:showpageshadow="2"
     inkscape:pageopacity="0.0"
     inkscape:pagecheckerboard="0"
     inkscape:deskcolor="#d1d1d1">
    <inkscape:page
       x="0"
       y="0"
       inkscape:label="1"
       id="page1"
       width="268.89337"
       height="94.12043"
       margin="0"
       bleed="0" />
  </sodipodi:namedview>
  <defs
     id="defs1" />
  <path
     style="fill:#231f20;fill-opacity:1;fill-rule:nonzero;stroke:none"
     d="m 17.594799,66.145939 c -0.8188,-1.077 -0.2871,-1.916 0.7025,-2.229 0.2923,-0.104 0.4428,-0.479 0.7402,-0.552 0.6865,-0.156 2.1344,0.822 1.624,2.229 -0.036,0.104 -0.0667,0.921 -0.1923,1.527 -0.2343,1.192 -1.2812,3.457 -3.8281,4.364 -1.1984,0.426 -1.2291,-0.364 -0.7968,-0.678 1.3744,-1.025 1.2968,-1.38 1.5625,-1.781 0.9009,-1.348 0.188,-2.88 0.188,-2.88"
     id="path4" />
  <path
     style="fill:none;stroke:#231f20;stroke-width:0.332927;stroke-linecap:butt;stroke-linejoin:miter;stroke-miterlimit:4;stroke-dasharray:none;stroke-opacity:1"
     d="m 17.594799,66.145939 c -0.8188,-1.077 -0.2871,-1.916 0.7025,-2.229 0.2923,-0.104 0.4428,-0.479 0.7402,-0.552 0.6865,-0.156 2.1344,0.822 1.624,2.229 -0.036,0.104 -0.0667,0.921 -0.1923,1.527 -0.2343,1.192 -1.2812,3.457 -3.8281,4.364 -1.1984,0.426 -1.2291,-0.364 -0.7968,-0.678 1.3744,-1.025 1.2968,-1.38 1.5625,-1.781 0.9009,-1.348 0.188,-2.88 0.188,-2.88 z"
     id="path5" />
  <path
     style="fill:#231f20;fill-opacity:1;fill-rule:nonzero;stroke:none"
     d="m 24.214499,48.604939 c -2.0838,-0.891 -2.6104,-0.782 -3.0426,0.073 -0.2907,0.572 -0.7547,1 -0.9479,1.333 -0.6401,1.13 -1.2548,3.291 -1.4105,9.87 -0.0271,1.494 -0.0948,3.578 -0.188,4.442 -0.1454,1.344 2.1932,0.678 2.2557,0.146 0.2027,-1.698 0.4839,-2.854 0.6453,-3.452 0.1042,-0.418 0.1975,-1.172 0.8282,-2.72 0.9426,-2.338 1.8598,-3.604 2.4213,-5.64 0.2615,-0.948 1.0573,-1.495 0.8385,-2.558 -0.2077,-1.057 -1.4,-1.494 -1.4,-1.494"
     id="path6" />
  <path
     style="fill:none;stroke:#231f20;stroke-width:0.565977;stroke-linecap:butt;stroke-linejoin:miter;stroke-miterlimit:4;stroke-dasharray:none;stroke-opacity:1"
     d="m 24.214499,48.604939 c -2.0838,-0.891 -2.6104,-0.782 -3.0426,0.073 -0.2907,0.572 -0.7547,1 -0.9479,1.333 -0.6401,1.13 -1.2548,3.291 -1.4105,9.87 -0.0271,1.494 -0.0948,3.578 -0.188,4.442 -0.1454,1.344 2.1932,0.678 2.2557,0.146 0.2027,-1.698 0.4839,-2.854 0.6453,-3.452 0.1042,-0.418 0.1975,-1.172 0.8282,-2.72 0.9426,-2.338 1.8598,-3.604 2.4213,-5.64 0.2615,-0.948 1.0573,-1.495 0.8385,-2.558 -0.2077,-1.057 -1.4,-1.494 -1.4,-1.494 z"
     id="path7" />
  <path
     style="fill:#0098c9;fill-opacity:1;fill-rule:nonzero;stroke:none"
     d="m 29.245299,22.260639 c -1.1095,2.932 -1.6667,3.4426 -2.3079,4.104 -4.0041,4.172 -1.8854,6.0573 0.9532,6.5733 3.3386,0.6093 4.5214,0.896 6.1828,-5.1773 0.4583,-1.688 3.0734,-7.9373 3.0734,-7.9373 1.2385,-2.1094 1.3224,-4.828 0.4838,-6.0214 -0.8801,-1.2546 -0.6254,-0.692 -1.6505,-1.708 -0.9801,-0.964 -3.1041,-1.5 -4.1093,-0.776 -0.964,0.688 -0.823,2.3494 -0.9334,4.7707 -0.088,1.912 -1.6921,6.172 -1.6921,6.172"
     id="path8" />
  <path
     style="fill:none;stroke:#231f20;stroke-width:0.565977;stroke-linecap:butt;stroke-linejoin:miter;stroke-miterlimit:4;stroke-dasharray:none;stroke-opacity:1"
     d="m 29.245299,22.260639 c -1.1095,2.932 -1.6667,3.4426 -2.3079,4.104 -4.0041,4.172 -1.8854,6.0573 0.9532,6.5733 3.3386,0.6093 4.5214,0.896 6.1828,-5.1773 0.4583,-1.688 3.0734,-7.9373 3.0734,-7.9373 1.2385,-2.1094 1.3224,-4.828 0.4838,-6.0214 -0.8801,-1.2546 -0.6254,-0.692 -1.6505,-1.708 -0.9801,-0.964 -3.1041,-1.5 -4.1093,-0.776 -0.964,0.688 -0.823,2.3494 -0.9334,4.7707 -0.088,1.912 -1.6921,6.172 -1.6921,6.172 z"
     id="path9" />
  <path
     style="fill:#ffffff;fill-opacity:1;fill-rule:nonzero;stroke:none"
     d="m 39.683199,6.3073391 c 0.062,-0.2387 1.213,-0.2293 1.254,-0.7547 0.037,-0.5266 -0.702,-0.7813 -1.416,-2.6413 l -0.005,-0.0147 c -0.4788,-1.3813 -1.4376,-2.38129998 -2.6777,-2.57859998 -2.0521,-0.328 -4.0719,1.67199998 -4.5145,4.45859998 -0.448,2.792 0.8588,5.3172999 2.9109,5.6399999 1.9583,0.3187 3.9009,-1.5052999 4.4483,-4.1092999"
     id="path10" />
  <path
     style="fill:none;stroke:#231f20;stroke-width:0.565977;stroke-linecap:butt;stroke-linejoin:miter;stroke-miterlimit:4;stroke-dasharray:none;stroke-opacity:1"
     d="m 39.683199,6.3073391 c 0.062,-0.2387 1.213,-0.2293 1.254,-0.7547 0.037,-0.5266 -0.702,-0.7813 -1.416,-2.6413 l -0.005,-0.0147 c -0.4788,-1.3813 -1.4376,-2.38129998 -2.6777,-2.57859998 -2.0521,-0.328 -4.0719,1.67199998 -4.5145,4.45859998 -0.448,2.792 0.8588,5.3172999 2.9109,5.6399999 1.9583,0.3187 3.9009,-1.5052999 4.4483,-4.1092999 z"
     id="path11" />
  <path
     style="fill:#231f20;fill-opacity:1;fill-rule:nonzero;stroke:none"
     d="m 22.745299,50.593939 c 3.5411,1.891 3.6453,-2.192 3.8692,-2.609 2.3803,-4.412 2.4375,-4.792 4.0109,-8.271 2.2814,-5.036 3.0678,-8.8387 0.5266,-11.0213 -1.7239,-1.4734 -3.3599,-1.5827 -4.5323,-0.9734 -1.2864,0.6867 -3.0984,3.2974 -1.9729,5.9587 l -0.2656,1.692 c -0.3239,1.1146 -0.4744,1.672 -0.6771,2.208 -0.3598,0.943 -0.6776,1.964 -1.2656,3.828 -1.0532,3.313 -1.0677,7.157 -1.0677,7.157 -0.3495,1.198 1.3745,2.031 1.3745,2.031"
     id="path12" />
  <path
     style="fill:none;stroke:#231f20;stroke-width:0.565977;stroke-linecap:butt;stroke-linejoin:miter;stroke-miterlimit:4;stroke-dasharray:none;stroke-opacity:1"
     d="m 22.745299,50.593939 c 3.5411,1.891 3.6453,-2.192 3.8692,-2.609 2.3803,-4.412 2.4375,-4.792 4.0109,-8.271 2.2814,-5.036 3.0678,-8.8387 0.5266,-11.0213 -1.7239,-1.4734 -3.3599,-1.5827 -4.5323,-0.9734 -1.2864,0.6867 -3.0984,3.2974 -1.9729,5.9587 l -0.2656,1.692 c -0.3239,1.1146 -0.4744,1.672 -0.6771,2.208 -0.3598,0.943 -0.6776,1.964 -1.2656,3.828 -1.0532,3.313 -1.0677,7.157 -1.0677,7.157 -0.3495,1.198 1.3745,2.031 1.3745,2.031 z"
     id="path13" />
  <path
     style="fill:#0098c9;fill-opacity:1;fill-rule:nonzero;stroke:none"
     d="m 26.068199,28.020639 c 1.0515,-0.8014 2.6823,-0.9734 4.6302,0.1986 1.2604,0.76 1.9213,1.948 2.1666,3.4787 0.3855,0.9693 0.5938,1.5627 0.1724,2.256 -0.0374,0.0626 -0.0682,0.1346 -0.1,0.208 -0.0416,0.5826 -0.1093,1.188 -0.2188,1.8386 l -7.6093,-1.7813 c -1.552,-2.432 -0.1973,-5.3133 0.9589,-6.1986"
     id="path14" />
  <path
     style="fill:none;stroke:#231f20;stroke-width:0.565977;stroke-linecap:butt;stroke-linejoin:miter;stroke-miterlimit:4;stroke-dasharray:none;stroke-opacity:1"
     d="m 26.068199,28.020639 c 1.0515,-0.8014 2.6823,-0.9734 4.6302,0.1986 1.2604,0.76 1.9213,1.948 2.1666,3.4787 0.3855,0.9693 0.5938,1.5627 0.1724,2.256 -0.0374,0.0626 -0.0682,0.1346 -0.1,0.208 -0.0416,0.5826 -0.1093,1.188 -0.2188,1.8386 l -7.6093,-1.7813 c -1.552,-2.432 -0.1973,-5.3133 0.9589,-6.1986 z"
     id="path15" />
  <path
     style="fill:#231f20;fill-opacity:1;fill-rule:nonzero;stroke:none"
     d="m 34.640999,34.911239 c -0.4224,-0.4947 -0.3957,-2.4426 -0.9942,-3.932 -0.4015,-1.0106 -0.2922,-3.7546 -0.7656,-4.7293 -0.4386,-0.8853 -0.5572,-1.3387 0.3802,-2.0147 0.552,-0.396 1.8744,-0.808 2.1916,-0.4066 0.7402,0.932 0.9948,1.8386 1.0579,2.9106 0.0677,1.2147 -0.0256,4.5214 -0.0989,5.1307 -0.188,1.5107 0.1921,2.1413 0.1828,2.5466 -0.0214,0.7614 -0.3188,0.9374 -0.8188,1.032 -0.9375,0.1774 -1.135,-0.5373 -1.135,-0.5373"
     id="path16" />
  <path
     style="fill:none;stroke:#231f20;stroke-width:0.565977;stroke-linecap:butt;stroke-linejoin:miter;stroke-miterlimit:4;stroke-dasharray:none;stroke-opacity:1"
     d="m 34.640999,34.911239 c -0.4224,-0.4947 -0.3957,-2.4426 -0.9942,-3.932 -0.4015,-1.0106 -0.2922,-3.7546 -0.7656,-4.7293 -0.4386,-0.8853 -0.5572,-1.3387 0.3802,-2.0147 0.552,-0.396 1.8744,-0.808 2.1916,-0.4066 0.7402,0.932 0.9948,1.8386 1.0579,2.9106 0.0677,1.2147 -0.0256,4.5214 -0.0989,5.1307 -0.188,1.5107 0.1921,2.1413 0.1828,2.5466 -0.0214,0.7614 -0.3188,0.9374 -0.8188,1.032 -0.9375,0.1774 -1.135,-0.5373 -1.135,-0.5373 z"
     id="path17" />
  <path
     style="fill:#231f20;fill-opacity:1;fill-rule:nonzero;stroke:none"
     d="m 33.469199,25.927239 c -1.2974,0.0267 -0.964,-1.984 -0.9583,-2.5253 0.0052,-0.548 -0.1511,-2.0947 -0.4323,-3.2813 -0.2761,-1.1933 -0.1094,-2.8027 -0.636,-5.068 -0.276,-1.1933 0.2147,-2.5267 1.959,-2.8493 1.7238,-0.3174 2.5514,0.5266 2.6718,2.0213 0.1146,1.4893 -0.412,2.9427 -0.3958,4.4533 0.0104,1.5093 0.1666,3.052 0.3437,4.2493 0.1973,1.3694 -0.2079,2.12 -0.6197,2.3654 -1.0204,0.6293 -1.9324,0.6346 -1.9324,0.6346"
     id="path18" />
  <path
     style="fill:none;stroke:#231f20;stroke-width:0.565977;stroke-linecap:butt;stroke-linejoin:miter;stroke-miterlimit:4;stroke-dasharray:none;stroke-opacity:1"
     d="m 33.469199,25.927239 c -1.2974,0.0267 -0.964,-1.984 -0.9583,-2.5253 0.0052,-0.548 -0.1511,-2.0947 -0.4323,-3.2813 -0.2761,-1.1933 -0.1094,-2.8027 -0.636,-5.068 -0.276,-1.1933 0.2147,-2.5267 1.959,-2.8493 1.7238,-0.3174 2.5514,0.5266 2.6718,2.0213 0.1146,1.4893 -0.412,2.9427 -0.3958,4.4533 0.0104,1.5093 0.1666,3.052 0.3437,4.2493 0.1973,1.3694 -0.2079,2.12 -0.6197,2.3654 -1.0204,0.6293 -1.9324,0.6346 -1.9324,0.6346 z"
     id="path19" />
  <path
     style="fill:#ffffff;fill-opacity:1;fill-rule:nonzero;stroke:none"
     d="m 35.094799,37.844939 c -1.0214,0.129 -1.9428,-0.595 -2.0735,-1.615 -0.1307,-1.016 0.5932,-1.948 1.6145,-2.0734 1.0162,-0.1306 1.948,0.5934 2.0787,1.6094 0.124,1.0266 -0.6,1.948 -1.6197,2.079"
     id="path20" />
  <path
     style="fill:none;stroke:#231f20;stroke-width:1.33171;stroke-linecap:butt;stroke-linejoin:miter;stroke-miterlimit:4;stroke-dasharray:none;stroke-opacity:1"
     d="m 35.094799,37.844939 c -1.0214,0.129 -1.9428,-0.595 -2.0735,-1.615 -0.1307,-1.016 0.5932,-1.948 1.6145,-2.0734 1.0162,-0.1306 1.948,0.5934 2.0787,1.6094 0.124,1.0266 -0.6,1.948 -1.6197,2.079 z"
     id="path21" />
  <path
     style="fill:#231f20;fill-opacity:1;fill-rule:nonzero;stroke:none"
     d="m 80.630199,70.057939 c -0.822,-1.068 -0.302,-1.912 0.683,-2.235 0.291,-0.109 0.437,-0.489 0.735,-0.562 0.686,-0.162 2.14,0.797 1.65,2.213 -0.037,0.104 -0.062,0.923 -0.177,1.527 -0.224,1.192 -1.245,3.473 -3.776,4.405 -1.197,0.443 -1.235,-0.348 -0.808,-0.671 1.365,-1.037 1.281,-1.39 1.543,-1.792 0.885,-1.36 0.15,-2.885 0.15,-2.885"
     id="path22" />
  <path
     style="fill:none;stroke:#231f20;stroke-width:0.332927;stroke-linecap:butt;stroke-linejoin:miter;stroke-miterlimit:4;stroke-dasharray:none;stroke-opacity:1"
     d="m 80.630199,70.057939 c -0.822,-1.068 -0.302,-1.912 0.683,-2.235 0.291,-0.109 0.437,-0.489 0.735,-0.562 0.686,-0.162 2.14,0.797 1.65,2.213 -0.037,0.104 -0.062,0.923 -0.177,1.527 -0.224,1.192 -1.245,3.473 -3.776,4.405 -1.197,0.443 -1.235,-0.348 -0.808,-0.671 1.365,-1.037 1.281,-1.39 1.543,-1.792 0.885,-1.36 0.15,-2.885 0.15,-2.885 z"
     id="path23" />
  <path
     style="fill:#231f20;fill-opacity:1;fill-rule:nonzero;stroke:none"
     d="m 87.062199,52.442939 c -2.098,-0.865 -2.62,-0.75 -3.046,0.11 -0.282,0.573 -0.746,1.005 -0.927,1.338 -0.636,1.14 -1.224,3.307 -1.303,9.886 -0.014,1.494 -0.052,3.582 -0.14,4.448 -0.13,1.344 2.203,0.65 2.26,0.125 0.183,-1.709 0.448,-2.86 0.604,-3.469 0.099,-0.412 0.183,-1.172 0.798,-2.724 0.916,-2.35 1.817,-3.626 2.358,-5.667 0.251,-0.953 1.043,-1.505 0.808,-2.563 -0.218,-1.062 -1.412,-1.484 -1.412,-1.484"
     id="path24" />
  <path
     style="fill:none;stroke:#231f20;stroke-width:0.565977;stroke-linecap:butt;stroke-linejoin:miter;stroke-miterlimit:4;stroke-dasharray:none;stroke-opacity:1"
     d="m 87.062199,52.442939 c -2.098,-0.865 -2.62,-0.75 -3.046,0.11 -0.282,0.573 -0.746,1.005 -0.927,1.338 -0.636,1.14 -1.224,3.307 -1.303,9.886 -0.014,1.494 -0.052,3.582 -0.14,4.448 -0.13,1.344 2.203,0.65 2.26,0.125 0.183,-1.709 0.448,-2.86 0.604,-3.469 0.099,-0.412 0.183,-1.172 0.798,-2.724 0.916,-2.35 1.817,-3.626 2.358,-5.667 0.251,-0.953 1.043,-1.505 0.808,-2.563 -0.218,-1.062 -1.412,-1.484 -1.412,-1.484 z"
     id="path25" />
  <path
     style="fill:#0098c9;fill-opacity:1;fill-rule:nonzero;stroke:none"
     d="m 93.448199,26.375239 c -1.61,2.6934 -2.244,3.0934 -2.99,3.636 -4.677,3.4 -2.921,5.6293 -0.218,6.6347 3.177,1.188 4.292,1.677 6.994,-4.0107 0.746,-1.5773 4.423001,-7.2706 4.423001,-7.2706 1.588,-1.8587 2.151,-4.52 1.536,-5.844 -0.651,-1.3907 -0.495,-0.7853 -1.328,-1.968 -0.797,-1.1253 -2.792001,-2.0213 -3.907001,-1.4893 -1.073,0.5093 -1.224,2.172 -1.76,4.5306 -0.422,1.8693 -2.75,5.7813 -2.75,5.7813"
     id="path26" />
  <path
     style="fill:none;stroke:#231f20;stroke-width:0.565977;stroke-linecap:butt;stroke-linejoin:miter;stroke-miterlimit:4;stroke-dasharray:none;stroke-opacity:1"
     d="m 93.448199,26.375239 c -1.61,2.6934 -2.244,3.0934 -2.99,3.636 -4.677,3.4 -2.921,5.6293 -0.218,6.6347 3.177,1.188 4.292,1.677 6.994,-4.0107 0.746,-1.5773 4.423001,-7.2706 4.423001,-7.2706 1.588,-1.8587 2.151,-4.52 1.536,-5.844 -0.651,-1.3907 -0.495,-0.7853 -1.328,-1.968 -0.797,-1.1253 -2.792001,-2.0213 -3.907001,-1.4893 -1.073,0.5093 -1.224,2.172 -1.76,4.5306 -0.422,1.8693 -2.75,5.7813 -2.75,5.7813 z"
     id="path27" />
  <path
     style="fill:#ffffff;fill-opacity:1;fill-rule:nonzero;stroke:none"
     d="m 105.5682,11.577939 c 0.084,-0.2333 1.229,-0.1346 1.308,-0.6506 0.082,-0.5254 -0.636,-0.8387 -1.204,-2.7453999 l -0.006,-0.02 c -0.364,-1.4066 -1.244,-2.4839 -2.462,-2.7759 -2.022,-0.4894 -4.194001,1.3386 -4.850001,4.0826 -0.666,2.7506999 0.432,5.3706999 2.454001,5.8546999 1.932,0.4733 4.01,-1.1934 4.76,-3.7454"
     id="path28" />
  <path
     style="fill:none;stroke:#231f20;stroke-width:0.565977;stroke-linecap:butt;stroke-linejoin:miter;stroke-miterlimit:4;stroke-dasharray:none;stroke-opacity:1"
     d="m 105.5682,11.577939 c 0.084,-0.2333 1.229,-0.1346 1.308,-0.6506 0.082,-0.5254 -0.636,-0.8387 -1.204,-2.7453999 l -0.006,-0.02 c -0.364,-1.4066 -1.244,-2.4839 -2.462,-2.7759 -2.022,-0.4894 -4.194001,1.3386 -4.850001,4.0826 -0.666,2.7506999 0.432,5.3706999 2.454001,5.8546999 1.932,0.4733 4.01,-1.1934 4.76,-3.7454 z"
     id="path29" />
  <path
     style="fill:#231f20;fill-opacity:1;fill-rule:nonzero;stroke:none"
     d="m 85.614199,54.448939 c 3.563,1.853 3.615,-2.23 3.839,-2.652 2.328,-4.443 2.385,-4.818 3.917,-8.312 2.224,-5.063 2.968,-8.875 0.402,-11.0257 -1.74,-1.4586 -3.376,-1.548 -4.538,-0.928 -1.281,0.704 -3.062,3.3333 -1.91,5.9837 l -0.246,1.694 c -0.312,1.12 -0.458,1.677 -0.656,2.213 -0.344,0.948 -0.65,1.975 -1.224,3.844 -1.01,3.328 -0.984,7.172 -0.984,7.172 -0.333,1.197 1.4,2.011 1.4,2.011"
     id="path30" />
  <path
     style="fill:none;stroke:#231f20;stroke-width:0.565977;stroke-linecap:butt;stroke-linejoin:miter;stroke-miterlimit:4;stroke-dasharray:none;stroke-opacity:1"
     d="m 85.614199,54.448939 c 3.563,1.853 3.615,-2.23 3.839,-2.652 2.328,-4.443 2.385,-4.818 3.917,-8.312 2.224,-5.063 2.968,-8.875 0.402,-11.0257 -1.74,-1.4586 -3.376,-1.548 -4.538,-0.928 -1.281,0.704 -3.062,3.3333 -1.91,5.9837 l -0.246,1.694 c -0.312,1.12 -0.458,1.677 -0.656,2.213 -0.344,0.948 -0.65,1.975 -1.224,3.844 -1.01,3.328 -0.984,7.172 -0.984,7.172 -0.333,1.197 1.4,2.011 1.4,2.011 z"
     id="path31" />
  <path
     style="fill:#0098c9;fill-opacity:1;fill-rule:nonzero;stroke:none"
     d="m 95.521199,35.443239 c -0.265,-1.532 -0.937,-2.708 -2.213,-3.4533 -1.954,-1.1507 -3.584,-0.9587 -4.626,-0.1507 -1.145,0.9 -2.468,3.796 -0.89,6.2077 l 7.63,1.698 c 0.104,-0.651 0.162,-1.255 0.198,-1.843 0.032,-0.073 0.062,-0.147 0.098,-0.209 0.418,-0.6924 0.199,-1.287 -0.197,-2.2497"
     id="path32" />
  <path
     style="fill:none;stroke:#231f20;stroke-width:0.565977;stroke-linecap:butt;stroke-linejoin:miter;stroke-miterlimit:4;stroke-dasharray:none;stroke-opacity:1"
     d="m 95.521199,35.443239 c -0.265,-1.532 -0.937,-2.708 -2.213,-3.4533 -1.954,-1.1507 -3.584,-0.9587 -4.626,-0.1507 -1.145,0.9 -2.468,3.796 -0.89,6.2077 l 7.63,1.698 c 0.104,-0.651 0.162,-1.255 0.198,-1.843 0.032,-0.073 0.062,-0.147 0.098,-0.209 0.418,-0.6924 0.199,-1.287 -0.197,-2.2497 z"
     id="path33" />
  <path
     style="fill:#231f20;fill-opacity:1;fill-rule:nonzero;stroke:none"
     d="m 112.1362,34.995239 c -0.631,-0.1413 -1.776,-1.7186 -3.146,-2.5573 -0.928,-0.5627 -2.48,-2.8333 -3.442,-3.328 -0.882,-0.4533 -1.246,-0.7453 -0.896,-1.844 0.202,-0.6507 1.02,-1.7707 1.509,-1.64 1.152,0.3013 1.901,0.8853 2.589,1.7027 0.782,0.932 2.683,3.6346 2.99,4.172 0.75,1.328 1.432,1.5986 1.666,1.9373 0.438,0.62 0.303,0.9426 -0.036,1.312 -0.652,0.704 -1.234,0.2453 -1.234,0.2453"
     id="path34" />
  <path
     style="fill:none;stroke:#231f20;stroke-width:0.565977;stroke-linecap:butt;stroke-linejoin:miter;stroke-miterlimit:4;stroke-dasharray:none;stroke-opacity:1"
     d="m 112.1362,34.995239 c -0.631,-0.1413 -1.776,-1.7186 -3.146,-2.5573 -0.928,-0.5627 -2.48,-2.8333 -3.442,-3.328 -0.882,-0.4533 -1.246,-0.7453 -0.896,-1.844 0.202,-0.6507 1.02,-1.7707 1.509,-1.64 1.152,0.3013 1.901,0.8853 2.589,1.7027 0.782,0.932 2.683,3.6346 2.99,4.172 0.75,1.328 1.432,1.5986 1.666,1.9373 0.438,0.62 0.303,0.9426 -0.036,1.312 -0.652,0.704 -1.234,0.2453 -1.234,0.2453 z"
     id="path35" />
  <path
     style="fill:#231f20;fill-opacity:1;fill-rule:nonzero;stroke:none"
     d="m 105.8242,28.500639 c -1.022,0.792 -1.959,-1.0214 -2.276,-1.4534 -0.319,-0.4426 -1.371,-1.5933 -2.308,-2.38 -0.932,-0.7866 -1.760001,-2.172 -3.542001,-3.6773 -0.932,-0.792 -1.338,-2.1506 -0.13,-3.4533 1.188,-1.2867 2.36,-1.104 3.349001,0.0213 0.984,1.1254 1.432,2.604 2.344,3.8067 0.916,1.204 1.957,2.344 2.817,3.204 0.979,0.9733 1.099,1.8226 0.916,2.2653 -0.437,1.1147 -1.17,1.6667 -1.17,1.6667"
     id="path36" />
  <path
     style="fill:none;stroke:#231f20;stroke-width:0.565977;stroke-linecap:butt;stroke-linejoin:miter;stroke-miterlimit:4;stroke-dasharray:none;stroke-opacity:1"
     d="m 105.8242,28.500639 c -1.022,0.792 -1.959,-1.0214 -2.276,-1.4534 -0.319,-0.4426 -1.371,-1.5933 -2.308,-2.38 -0.932,-0.7866 -1.760001,-2.172 -3.542001,-3.6773 -0.932,-0.792 -1.338,-2.1506 -0.13,-3.4533 1.188,-1.2867 2.36,-1.104 3.349001,0.0213 0.984,1.1254 1.432,2.604 2.344,3.8067 0.916,1.204 1.957,2.344 2.817,3.204 0.979,0.9733 1.099,1.8226 0.916,2.2653 -0.437,1.1147 -1.17,1.6667 -1.17,1.6667 z"
     id="path37" />
  <path
     style="fill:#ffffff;fill-opacity:1;fill-rule:nonzero;stroke:none"
     d="m 115.5262,36.875239 c -0.745,0.7137 -1.917,0.6877 -2.63,-0.052 -0.714,-0.74 -0.687,-1.9173 0.052,-2.6307 0.74,-0.7133 1.917,-0.6866 2.63,0.052 0.708,0.7454 0.688,1.9174 -0.052,2.6307"
     id="path38" />
  <path
     style="fill:none;stroke:#231f20;stroke-width:1.33171;stroke-linecap:butt;stroke-linejoin:miter;stroke-miterlimit:4;stroke-dasharray:none;stroke-opacity:1"
     d="m 115.5262,36.875239 c -0.745,0.7137 -1.917,0.6877 -2.63,-0.052 -0.714,-0.74 -0.687,-1.9173 0.052,-2.6307 0.74,-0.7133 1.917,-0.6866 2.63,0.052 0.708,0.7454 0.688,1.9174 -0.052,2.6307 z"
     id="path39" />
  <path
     style="fill:#231f20;fill-opacity:1;fill-rule:nonzero;stroke:none"
     d="m 145.6462,54.702939 c -0.032,-1.353 0.891,-1.724 1.875,-1.401 0.297,0.089 0.645,-0.124 0.921,-0.009 0.652,0.276 1.256,1.91 0.016,2.76 -0.088,0.062 -0.593,0.702 -1.047,1.125 -0.89,0.828 -3.068,2.052 -5.661,1.301 -1.224,-0.358 -0.781,-1.02 -0.251,-1.02 1.719,-0.026 1.86,-0.36 2.314,-0.532 1.52,-0.568 1.833,-2.224 1.833,-2.224"
     id="path40" />
  <path
     style="fill:none;stroke:#231f20;stroke-width:0.332927;stroke-linecap:butt;stroke-linejoin:miter;stroke-miterlimit:4;stroke-dasharray:none;stroke-opacity:1"
     d="m 145.6462,54.702939 c -0.032,-1.353 0.891,-1.724 1.875,-1.401 0.297,0.089 0.645,-0.124 0.921,-0.009 0.652,0.276 1.256,1.91 0.016,2.76 -0.088,0.062 -0.593,0.702 -1.047,1.125 -0.89,0.828 -3.068,2.052 -5.661,1.301 -1.224,-0.358 -0.781,-1.02 -0.251,-1.02 1.719,-0.026 1.86,-0.36 2.314,-0.532 1.52,-0.568 1.833,-2.224 1.833,-2.224 z"
     id="path41" />
  <path
     style="fill:#231f20;fill-opacity:1;fill-rule:nonzero;stroke:none"
     d="m 161.2812,44.349939 c -1.176,-1.944 -1.662,-2.163 -2.51,-1.72 -0.573,0.292 -1.198,0.365 -1.548,0.527 -1.186,0.536 -2.953,1.932 -6.921,7.177 -0.896,1.192 -2.172,2.848 -2.751,3.495 -0.905,1.005 1.382,1.833 1.746,1.437 1.156,-1.26 2.057,-2.031 2.541,-2.427 0.328,-0.27 0.844,-0.833 2.256,-1.718 2.14,-1.344 3.62,-1.834 5.271,-3.158 0.765,-0.613 1.729,-0.588 2.172,-1.582 0.453,-0.984 -0.256,-2.031 -0.256,-2.031"
     id="path42" />
  <path
     style="fill:none;stroke:#231f20;stroke-width:0.565977;stroke-linecap:butt;stroke-linejoin:miter;stroke-miterlimit:4;stroke-dasharray:none;stroke-opacity:1"
     d="m 161.2812,44.349939 c -1.176,-1.944 -1.662,-2.163 -2.51,-1.72 -0.573,0.292 -1.198,0.365 -1.548,0.527 -1.186,0.536 -2.953,1.932 -6.921,7.177 -0.896,1.192 -2.172,2.848 -2.751,3.495 -0.905,1.005 1.382,1.833 1.746,1.437 1.156,-1.26 2.057,-2.031 2.541,-2.427 0.328,-0.27 0.844,-0.833 2.256,-1.718 2.14,-1.344 3.62,-1.834 5.271,-3.158 0.765,-0.613 1.729,-0.588 2.172,-1.582 0.453,-0.984 -0.256,-2.031 -0.256,-2.031 z"
     id="path43" />
  <path
     style="fill:#0098c9;fill-opacity:1;fill-rule:nonzero;stroke:none"
     d="m 181.6872,26.844639 c -2.828,1.348 -3.582,1.3333 -4.5,1.3693 -5.781,0.24 -5.552,3.068 -3.86,5.4013 1.986,2.7493 2.647,3.776 8.043,0.536 1.5,-0.896 7.713,-3.5986 7.713,-3.5986 2.355,-0.6667 4.298,-2.5734 4.516,-4.016 0.228,-1.516 0.026,-0.932 -0.016,-2.3747 -0.036,-1.3747 -1.202,-3.2293 -2.426,-3.4067 -1.172,-0.172 -2.224,1.1307 -3.975,2.8027 -1.391,1.3173 -5.495,3.2867 -5.495,3.2867"
     id="path44" />
  <path
     style="fill:none;stroke:#231f20;stroke-width:0.565977;stroke-linecap:butt;stroke-linejoin:miter;stroke-miterlimit:4;stroke-dasharray:none;stroke-opacity:1"
     d="m 181.6872,26.844639 c -2.828,1.348 -3.582,1.3333 -4.5,1.3693 -5.781,0.24 -5.552,3.068 -3.86,5.4013 1.986,2.7493 2.647,3.776 8.043,0.536 1.5,-0.896 7.713,-3.5986 7.713,-3.5986 2.355,-0.6667 4.298,-2.5734 4.516,-4.016 0.228,-1.516 0.026,-0.932 -0.016,-2.3747 -0.036,-1.3747 -1.202,-3.2293 -2.426,-3.4067 -1.172,-0.172 -2.224,1.1307 -3.975,2.8027 -1.391,1.3173 -5.495,3.2867 -5.495,3.2867 z"
     id="path45" />
  <path
     style="fill:#ffffff;fill-opacity:1;fill-rule:nonzero;stroke:none"
     d="m 199.4992,24.115239 c 0.246,-0.0373 0.71,1.0147 1.199,0.844 0.5,-0.1826 0.432,-0.964 1.839,-2.3706 l 0.014,-0.0107 c 1.063,-0.9947 1.59,-2.2813 1.267,-3.4893 -0.537,-2.0107 -3.177,-3.0467 -5.907,-2.3227 -2.734,0.7294 -4.51,2.948 -3.969,4.9533 0.5,1.9214 2.953,2.9534 5.557,2.396"
     id="path46" />
  <path
     style="fill:none;stroke:#231f20;stroke-width:0.565977;stroke-linecap:butt;stroke-linejoin:miter;stroke-miterlimit:4;stroke-dasharray:none;stroke-opacity:1"
     d="m 199.4992,24.115239 c 0.246,-0.0373 0.71,1.0147 1.199,0.844 0.5,-0.1826 0.432,-0.964 1.839,-2.3706 l 0.014,-0.0107 c 1.063,-0.9947 1.59,-2.2813 1.267,-3.4893 -0.537,-2.0107 -3.177,-3.0467 -5.907,-2.3227 -2.734,0.7294 -4.51,2.948 -3.969,4.9533 0.5,1.9214 2.953,2.9534 5.557,2.396 z"
     id="path47" />
  <path
     style="fill:#231f20;fill-opacity:1;fill-rule:nonzero;stroke:none"
     d="m 158.9222,45.104939 c 1.771,3.604 4.239,0.354 4.667,0.145 4.51,-2.187 4.781,-2.457 8.093,-4.359 4.797,-2.75 7.656,-5.3797 6.869,-8.6303 -0.536,-2.208 -1.796,-3.2547 -3.104,-3.4427 -1.442,-0.192 -4.442,0.8653 -5.088,3.6773 l -1.202,1.2187 c -0.918,0.7133 -1.366,1.0786 -1.844,1.3906 -0.839,0.5574 -1.699,1.1974 -3.266,2.3644 -2.792,2.078 -5.048,5.182 -5.048,5.182 -0.989,0.766 -0.077,2.454 -0.077,2.454"
     id="path48" />
  <path
     style="fill:none;stroke:#231f20;stroke-width:0.565977;stroke-linecap:butt;stroke-linejoin:miter;stroke-miterlimit:4;stroke-dasharray:none;stroke-opacity:1"
     d="m 158.9222,45.104939 c 1.771,3.604 4.239,0.354 4.667,0.145 4.51,-2.187 4.781,-2.457 8.093,-4.359 4.797,-2.75 7.656,-5.3797 6.869,-8.6303 -0.536,-2.208 -1.796,-3.2547 -3.104,-3.4427 -1.442,-0.192 -4.442,0.8653 -5.088,3.6773 l -1.202,1.2187 c -0.918,0.7133 -1.366,1.0786 -1.844,1.3906 -0.839,0.5574 -1.699,1.1974 -3.266,2.3644 -2.792,2.078 -5.048,5.182 -5.048,5.182 -0.989,0.766 -0.077,2.454 -0.077,2.454 z"
     id="path49" />
  <path
     style="fill:#0098c9;fill-opacity:1;fill-rule:nonzero;stroke:none"
     d="m 178.4582,31.609939 c -0.891,-2.0893 -2.312,-2.9013 -3.635,-2.8707 -1.453,0.0427 -4.24,1.584 -4.401,4.464 l 5.129,5.8957 c 0.47,-0.458 0.876,-0.912 1.251,-1.36 0.068,-0.041 0.135,-0.082 0.203,-0.109 0.745,-0.312 0.928,-0.916 1.182,-1.932 0.694,-1.3854 0.855,-2.7347 0.271,-4.088"
     id="path50" />
  <path
     style="fill:none;stroke:#231f20;stroke-width:0.565977;stroke-linecap:butt;stroke-linejoin:miter;stroke-miterlimit:4;stroke-dasharray:none;stroke-opacity:1"
     d="m 178.4582,31.609939 c -0.891,-2.0893 -2.312,-2.9013 -3.635,-2.8707 -1.453,0.0427 -4.24,1.584 -4.401,4.464 l 5.129,5.8957 c 0.47,-0.458 0.876,-0.912 1.251,-1.36 0.068,-0.041 0.135,-0.082 0.203,-0.109 0.745,-0.312 0.928,-0.916 1.182,-1.932 0.694,-1.3854 0.855,-2.7347 0.271,-4.088 z"
     id="path51" />
  <path
     style="fill:#231f20;fill-opacity:1;fill-rule:nonzero;stroke:none"
     d="m 207.6092,35.625939 c -0.646,0.052 -2.214,-1.1107 -3.771,-1.496 -1.052,-0.2547 -3.219,-1.952 -4.287,-2.1347 -0.973,-0.1666 -1.41,-0.3386 -1.41,-1.4893 0,-0.6773 0.437,-1.9947 0.948,-2.016 1.192,-0.0627 2.077,0.2653 2.978,0.8387 1.027,0.656 3.656,2.6613 4.11,3.0773 1.114,1.0426 1.849,1.1 2.172,1.344 0.604,0.4586 0.573,0.808 0.365,1.2666 -0.412,0.864 -1.105,0.6094 -1.105,0.6094"
     id="path52" />
  <path
     style="fill:none;stroke:#231f20;stroke-width:0.565977;stroke-linecap:butt;stroke-linejoin:miter;stroke-miterlimit:4;stroke-dasharray:none;stroke-opacity:1"
     d="m 207.6092,35.625939 c -0.646,0.052 -2.214,-1.1107 -3.771,-1.496 -1.052,-0.2547 -3.219,-1.952 -4.287,-2.1347 -0.973,-0.1666 -1.41,-0.3386 -1.41,-1.4893 0,-0.6773 0.437,-1.9947 0.948,-2.016 1.192,-0.0627 2.077,0.2653 2.978,0.8387 1.027,0.656 3.656,2.6613 4.11,3.0773 1.114,1.0426 1.849,1.1 2.172,1.344 0.604,0.4586 0.573,0.808 0.365,1.2666 -0.412,0.864 -1.105,0.6094 -1.105,0.6094 z"
     id="path53" />
  <path
     style="fill:#231f20;fill-opacity:1;fill-rule:nonzero;stroke:none"
     d="m 199.6352,31.328639 c -0.74,1.068 -2.177,-0.38 -2.609,-0.6987 -0.443,-0.328 -1.787,-1.104 -2.917,-1.572 -1.13,-0.4693 -2.338,-1.5467 -4.484,-2.4427 -1.131,-0.4746 -1.927,-1.6466 -1.167,-3.2506 0.751,-1.588 1.923,-1.7707 3.199,-0.9894 1.28,0.776 2.15,2.0467 3.385,2.9214 1.233,0.876 2.572,1.6466 3.651,2.204 1.224,0.6346 1.593,1.4106 1.557,1.8853 -0.089,1.1973 -0.615,1.9427 -0.615,1.9427"
     id="path54" />
  <path
     style="fill:none;stroke:#231f20;stroke-width:0.565977;stroke-linecap:butt;stroke-linejoin:miter;stroke-miterlimit:4;stroke-dasharray:none;stroke-opacity:1"
     d="m 199.6352,31.328639 c -0.74,1.068 -2.177,-0.38 -2.609,-0.6987 -0.443,-0.328 -1.787,-1.104 -2.917,-1.572 -1.13,-0.4693 -2.338,-1.5467 -4.484,-2.4427 -1.131,-0.4746 -1.927,-1.6466 -1.167,-3.2506 0.751,-1.588 1.923,-1.7707 3.199,-0.9894 1.28,0.776 2.15,2.0467 3.385,2.9214 1.233,0.876 2.572,1.6466 3.651,2.204 1.224,0.6346 1.593,1.4106 1.557,1.8853 -0.089,1.1973 -0.615,1.9427 -0.615,1.9427 z"
     id="path55" />
  <path
     style="fill:#ffffff;fill-opacity:1;fill-rule:nonzero;stroke:none"
     d="m 211.4062,36.396539 c -0.495,0.9 -1.62,1.2334 -2.525,0.744 -0.902,-0.4946 -1.235,-1.6253 -0.74,-2.5253 0.494,-0.9067 1.625,-1.2346 2.525,-0.7453 0.901,0.4946 1.229,1.62 0.74,2.5266"
     id="path56" />
  <path
     style="fill:none;stroke:#231f20;stroke-width:1.33171;stroke-linecap:butt;stroke-linejoin:miter;stroke-miterlimit:4;stroke-dasharray:none;stroke-opacity:1"
     d="m 211.4062,36.396539 c -0.495,0.9 -1.62,1.2334 -2.525,0.744 -0.902,-0.4946 -1.235,-1.6253 -0.74,-2.5253 0.494,-0.9067 1.625,-1.2346 2.525,-0.7453 0.901,0.4946 1.229,1.62 0.74,2.5266 z"
     id="path57" />
  <path
     style="fill:#231f20;fill-opacity:1;fill-rule:nonzero;stroke:none"
     d="m 213.3812,89.234939 c -0.412,-1.281 0.374,-1.901 1.405,-1.87 0.313,0.005 0.584,-0.302 0.885,-0.271 0.699,0.084 1.735,1.484 0.787,2.645 -0.063,0.084 -0.369,0.844 -0.687,1.376 -0.62,1.042 -2.36,2.828 -5.062,2.839 -1.271,0.005 -1.038,-0.751 -0.527,-0.907 1.641,-0.505 1.683,-0.865 2.063,-1.156 1.302,-0.974 1.136,-2.656 1.136,-2.656"
     id="path58" />
  <path
     style="fill:none;stroke:#231f20;stroke-width:0.332927;stroke-linecap:butt;stroke-linejoin:miter;stroke-miterlimit:4;stroke-dasharray:none;stroke-opacity:1"
     d="m 213.3812,89.234939 c -0.412,-1.281 0.374,-1.901 1.405,-1.87 0.313,0.005 0.584,-0.302 0.885,-0.271 0.699,0.084 1.735,1.484 0.787,2.645 -0.063,0.084 -0.369,0.844 -0.687,1.376 -0.62,1.042 -2.36,2.828 -5.062,2.839 -1.271,0.005 -1.038,-0.751 -0.527,-0.907 1.641,-0.505 1.683,-0.865 2.063,-1.156 1.302,-0.974 1.136,-2.656 1.136,-2.656 z"
     id="path59" />
  <path
     style="fill:#231f20;fill-opacity:1;fill-rule:nonzero;stroke:none"
     d="m 225.4692,74.901939 c -1.678,-1.532 -2.203,-1.609 -2.896,-0.948 -0.464,0.443 -1.047,0.692 -1.339,0.943 -0.979,0.848 -2.281,2.686 -4.615,8.838 -0.525,1.395 -1.281,3.343 -1.656,4.124 -0.582,1.219 1.844,1.371 2.079,0.891 0.76,-1.536 1.405,-2.531 1.755,-3.047 0.24,-0.353 0.578,-1.03 1.688,-2.281 1.666,-1.896 2.957,-2.781 4.161,-4.516 0.563,-0.807 1.495,-1.057 1.64,-2.129 0.156,-1.074 -0.817,-1.875 -0.817,-1.875"
     id="path60" />
  <path
     style="fill:none;stroke:#231f20;stroke-width:0.565977;stroke-linecap:butt;stroke-linejoin:miter;stroke-miterlimit:4;stroke-dasharray:none;stroke-opacity:1"
     d="m 225.4692,74.901939 c -1.678,-1.532 -2.203,-1.609 -2.896,-0.948 -0.464,0.443 -1.047,0.692 -1.339,0.943 -0.979,0.848 -2.281,2.686 -4.615,8.838 -0.525,1.395 -1.281,3.343 -1.656,4.124 -0.582,1.219 1.844,1.371 2.079,0.891 0.76,-1.536 1.405,-2.531 1.755,-3.047 0.24,-0.353 0.578,-1.03 1.688,-2.281 1.666,-1.896 2.957,-2.781 4.161,-4.516 0.563,-0.807 1.495,-1.057 1.64,-2.129 0.156,-1.074 -0.817,-1.875 -0.817,-1.875 z"
     id="path61" />
  <path
     style="fill:#0098c9;fill-opacity:1;fill-rule:nonzero;stroke:none"
     d="m 238.9742,51.734939 c -2.021,2.395 -2.713,2.687 -3.536,3.099 -5.168,2.599 -3.792,5.083 -1.292,6.516 2.943,1.681 3.968,2.348 7.552,-2.824 0.995,-1.443 5.541,-6.463 5.541,-6.463 1.87,-1.578 2.855,-4.114 2.459,-5.521 -0.412,-1.473 -0.355,-0.855 -0.989,-2.156 -0.6,-1.235 -2.428,-2.448 -3.615,-2.099 -1.141,0.328 -1.557,1.943 -2.469,4.187 -0.719,1.776 -3.651,5.261 -3.651,5.261"
     id="path62" />
  <path
     style="fill:none;stroke:#231f20;stroke-width:0.565977;stroke-linecap:butt;stroke-linejoin:miter;stroke-miterlimit:4;stroke-dasharray:none;stroke-opacity:1"
     d="m 238.9742,51.734939 c -2.021,2.395 -2.713,2.687 -3.536,3.099 -5.168,2.599 -3.792,5.083 -1.292,6.516 2.943,1.681 3.968,2.348 7.552,-2.824 0.995,-1.443 5.541,-6.463 5.541,-6.463 1.87,-1.578 2.855,-4.114 2.459,-5.521 -0.412,-1.473 -0.355,-0.855 -0.989,-2.156 -0.6,-1.235 -2.428,-2.448 -3.615,-2.099 -1.141,0.328 -1.557,1.943 -2.469,4.187 -0.719,1.776 -3.651,5.261 -3.651,5.261 z"
     id="path63" />
  <path
     style="fill:#ffffff;fill-opacity:1;fill-rule:nonzero;stroke:none"
     d="m 253.9012,39.692939 c 0.125,-0.219 1.234,0.078 1.406,-0.416 0.167,-0.5 -0.489,-0.932 -0.713,-2.9124 v -0.02 c -0.115,-1.448 -0.797,-2.6613 -1.948,-3.1626 -1.907,-0.832 -4.36,0.5946 -5.485,3.1826 -1.13,2.5944 -0.5,5.3654 1.406,6.1934 1.818,0.796 4.151,-0.48 5.334,-2.865"
     id="path64" />
  <path
     style="fill:none;stroke:#231f20;stroke-width:0.565977;stroke-linecap:butt;stroke-linejoin:miter;stroke-miterlimit:4;stroke-dasharray:none;stroke-opacity:1"
     d="m 253.9012,39.692939 c 0.125,-0.219 1.234,0.078 1.406,-0.416 0.167,-0.5 -0.489,-0.932 -0.713,-2.9124 v -0.02 c -0.115,-1.448 -0.797,-2.6613 -1.948,-3.1626 -1.907,-0.832 -4.36,0.5946 -5.485,3.1826 -1.13,2.5944 -0.5,5.3654 1.406,6.1934 1.818,0.796 4.151,-0.48 5.334,-2.865 z"
     id="path65" />
  <path
     style="fill:#231f20;fill-opacity:1;fill-rule:nonzero;stroke:none"
     d="m 223.4172,76.286939 c 2.713,2.963 4.166,-0.854 4.52,-1.177 3.714,-3.365 3.89,-3.704 6.537,-6.459 3.823,-3.989 5.833,-7.317 4.156,-10.218 -1.131,-1.964 -2.64,-2.615 -3.943,-2.427 -1.442,0.224 -4.021,2.077 -3.849,4.963 l -0.812,1.505 c -0.677,0.943 -1.005,1.417 -1.375,1.855 -0.652,0.77 -1.292,1.63 -2.469,3.186 -2.088,2.782 -3.385,6.396 -3.385,6.396 -0.73,1.016 0.62,2.376 0.62,2.376"
     id="path66" />
  <path
     style="fill:none;stroke:#231f20;stroke-width:0.565977;stroke-linecap:butt;stroke-linejoin:miter;stroke-miterlimit:4;stroke-dasharray:none;stroke-opacity:1"
     d="m 223.4172,76.286939 c 2.713,2.963 4.166,-0.854 4.52,-1.177 3.714,-3.365 3.89,-3.704 6.537,-6.459 3.823,-3.989 5.833,-7.317 4.156,-10.218 -1.131,-1.964 -2.64,-2.615 -3.943,-2.427 -1.442,0.224 -4.021,2.077 -3.849,4.963 l -0.812,1.505 c -0.677,0.943 -1.005,1.417 -1.375,1.855 -0.652,0.77 -1.292,1.63 -2.469,3.186 -2.088,2.782 -3.385,6.396 -3.385,6.396 -0.73,1.016 0.62,2.376 0.62,2.376 z"
     id="path67" />
  <path
     style="fill:#0098c9;fill-opacity:1;fill-rule:nonzero;stroke:none"
     d="m 234.0672,56.104939 c 1.256,-0.402 2.85,-0.022 4.298,1.729 0.932,1.135 1.166,2.473 0.885,4 0.041,1.041 0.041,1.677 -0.589,2.187 -0.058,0.048 -0.11,0.105 -0.162,0.161 -0.238,0.537 -0.5,1.084 -0.817,1.663 l -6.583,-4.215 c -0.657,-2.812 1.583,-5.072 2.968,-5.525"
     id="path68" />
  <path
     style="fill:none;stroke:#231f20;stroke-width:0.565977;stroke-linecap:butt;stroke-linejoin:miter;stroke-miterlimit:4;stroke-dasharray:none;stroke-opacity:1"
     d="m 234.0672,56.104939 c 1.256,-0.402 2.85,-0.022 4.298,1.729 0.932,1.135 1.166,2.473 0.885,4 0.041,1.041 0.041,1.677 -0.589,2.187 -0.058,0.048 -0.11,0.105 -0.162,0.161 -0.238,0.537 -0.5,1.084 -0.817,1.663 l -6.583,-4.215 c -0.657,-2.812 1.583,-5.072 2.968,-5.525 z"
     id="path69" />
  <path
     style="fill:#231f20;fill-opacity:1;fill-rule:nonzero;stroke:none"
     d="m 265.6032,37.077939 c -0.306,0.568 -2.134,1.24 -3.317,2.333 -0.792,0.74 -3.396,1.615 -4.135,2.412 -0.672,0.724 -1.052,0.995 -2.021,0.364 -0.568,-0.374 -1.427,-1.462 -1.167,-1.905 0.604,-1.021 1.364,-1.584 2.344,-2.027 1.104,-0.5 4.23,-1.593 4.823,-1.7437 1.479,-0.3653 1.932,-0.948 2.317,-1.0787 0.714,-0.2546 0.991,-0.0413 1.256,0.3854 0.5,0.8173 -0.1,1.26 -0.1,1.26"
     id="path70" />
  <path
     style="fill:none;stroke:#231f20;stroke-width:0.565977;stroke-linecap:butt;stroke-linejoin:miter;stroke-miterlimit:4;stroke-dasharray:none;stroke-opacity:1"
     d="m 265.6032,37.077939 c -0.306,0.568 -2.134,1.24 -3.317,2.333 -0.792,0.74 -3.396,1.615 -4.135,2.412 -0.672,0.724 -1.052,0.995 -2.021,0.364 -0.568,-0.374 -1.427,-1.462 -1.167,-1.905 0.604,-1.021 1.364,-1.584 2.344,-2.027 1.104,-0.5 4.23,-1.593 4.823,-1.7437 1.479,-0.3653 1.932,-0.948 2.317,-1.0787 0.714,-0.2546 0.991,-0.0413 1.256,0.3854 0.5,0.8173 -0.1,1.26 -0.1,1.26 z"
     id="path71" />
  <path
     style="fill:#231f20;fill-opacity:1;fill-rule:nonzero;stroke:none"
     d="m 257.6352,41.390939 c 0.49,1.198 -1.51,1.604 -2.01,1.796 -0.516,0.188 -1.907,0.886 -2.916,1.574 -1.011,0.688 -2.574,1.109 -4.5,2.412 -1.016,0.681 -2.434,0.708 -3.36,-0.808 -0.916,-1.5 -0.422,-2.578 0.926,-3.219 1.35,-0.64 2.896,-0.672 4.298,-1.229 1.412,-0.552 2.792,-1.244 3.849,-1.839 1.203,-0.676 2.057,-0.563 2.432,-0.271 0.953,0.73 1.281,1.584 1.281,1.584"
     id="path72" />
  <path
     style="fill:none;stroke:#231f20;stroke-width:0.565977;stroke-linecap:butt;stroke-linejoin:miter;stroke-miterlimit:4;stroke-dasharray:none;stroke-opacity:1"
     d="m 257.6352,41.390939 c 0.49,1.198 -1.51,1.604 -2.01,1.796 -0.516,0.188 -1.907,0.886 -2.916,1.574 -1.011,0.688 -2.574,1.109 -4.5,2.412 -1.016,0.681 -2.434,0.708 -3.36,-0.808 -0.916,-1.5 -0.422,-2.578 0.926,-3.219 1.35,-0.64 2.896,-0.672 4.298,-1.229 1.412,-0.552 2.792,-1.244 3.849,-1.839 1.203,-0.676 2.057,-0.563 2.432,-0.271 0.953,0.73 1.281,1.584 1.281,1.584 z"
     id="path73" />
  <path
     style="fill:#ffffff;fill-opacity:1;fill-rule:nonzero;stroke:none"
     d="m 268.0102,34.629939 c 0.484,0.9013 0.141,2.0266 -0.76,2.516 -0.912,0.48 -2.036,0.1413 -2.521,-0.7654 -0.484,-0.9066 -0.14,-2.0306 0.765,-2.5213 0.907,-0.4786 2.027,-0.14 2.516,0.7707"
     id="path74" />
  <path
     style="fill:none;stroke:#231f20;stroke-width:1.33171;stroke-linecap:butt;stroke-linejoin:miter;stroke-miterlimit:4;stroke-dasharray:none;stroke-opacity:1"
     d="m 268.0102,34.629939 c 0.484,0.9013 0.141,2.0266 -0.76,2.516 -0.912,0.48 -2.036,0.1413 -2.521,-0.7654 -0.484,-0.9066 -0.14,-2.0306 0.765,-2.5213 0.907,-0.4786 2.027,-0.14 2.516,0.7707 z"
     id="path75" />
  <path
     style="fill:none;stroke:#231f20;stroke-width:0.399514;stroke-linecap:butt;stroke-linejoin:miter;stroke-miterlimit:4;stroke-dasharray:none;stroke-opacity:1"
     d="m 50.344199,60.041939 c -23.8802,11.453 -46.9426,-13.989 -49.64580005,-20.735"
     id="path76" />
  <path
     style="fill:#231f20;fill-opacity:1;fill-rule:nonzero;stroke:none"
     d="m 0.25059895,38.186939 c 0.4068,0.448 1.00000005,0.97 1.51610005,1.235 l -1.01040005,0.037 -0.7562999982559,0.667 C 0.19319895,39.582939 0.26669895,38.796939 0.25059895,38.186939"
     id="path77" />
</svg>
