<?xml version="1.0" encoding="UTF-8" standalone="no"?>
<!-- Created with Inkscape (http://www.inkscape.org/) -->

<svg
   version="1.1"
   id="svg1"
   width="201.63982"
   height="135.74429"
   viewBox="0 0 201.63981 135.7443"
   sodipodi:docname="cell.svg"
   xmlns:inkscape="http://www.inkscape.org/namespaces/inkscape"
   xmlns:sodipodi="http://sodipodi.sourceforge.net/DTD/sodipodi-0.dtd"
   xmlns="http://www.w3.org/2000/svg"
   xmlns:svg="http://www.w3.org/2000/svg">
  <sodipodi:namedview
     id="namedview1"
     pagecolor="#ffffff"
     bordercolor="#000000"
     borderopacity="0.25"
     inkscape:showpageshadow="2"
     inkscape:pageopacity="0.0"
     inkscape:pagecheckerboard="0"
     inkscape:deskcolor="#d1d1d1">
    <inkscape:page
       x="0"
       y="0"
       inkscape:label="1"
       id="page1"
       width="201.63982"
       height="135.74429"
       margin="0"
       bleed="0" />
  </sodipodi:namedview>
  <defs
     id="defs1" />
  <path
     style="fill:#231f20;fill-opacity:1;fill-rule:nonzero;stroke:none"
     d="m 83.308275,130.50001 c -0.588,-1.219 0.095,-1.932 1.126,-2.057 0.302,-0.036 0.53,-0.381 0.833,-0.396 0.703,-0.016 1.932,1.218 1.161,2.505 -0.052,0.088 -0.244,0.885 -0.484,1.464 -0.464,1.12 -1.928,3.134 -4.594,3.531 -1.266,0.193 -1.14,-0.588 -0.656,-0.818 1.546,-0.734 1.542,-1.098 1.876,-1.443 1.145,-1.15 0.738,-2.786 0.738,-2.786"
     id="path316" />
  <path
     style="fill:none;stroke:#231f20;stroke-width:0.332927;stroke-linecap:butt;stroke-linejoin:miter;stroke-miterlimit:4;stroke-dasharray:none;stroke-opacity:1"
     d="m 83.308275,130.50001 c -0.588,-1.219 0.095,-1.932 1.126,-2.057 0.302,-0.036 0.53,-0.381 0.833,-0.396 0.703,-0.016 1.932,1.218 1.161,2.505 -0.052,0.088 -0.244,0.885 -0.484,1.464 -0.464,1.12 -1.928,3.134 -4.594,3.531 -1.266,0.193 -1.14,-0.588 -0.656,-0.818 1.546,-0.734 1.542,-1.098 1.876,-1.443 1.145,-1.15 0.738,-2.786 0.738,-2.786 z"
     id="path317" />
  <path
     style="fill:#231f20;fill-opacity:1;fill-rule:nonzero;stroke:none"
     d="m 93.199275,114.57301 c -1.869,-1.281 -2.405,-1.276 -2.995,-0.521 -0.401,0.5 -0.937,0.828 -1.192,1.125 -0.844,0.979 -1.87,2.979 -3.286,9.411 -0.323,1.453 -0.787,3.495 -1.047,4.319 -0.401,1.29 2.02,1.093 2.181,0.588 0.538,-1.635 1.032,-2.709 1.303,-3.271 0.187,-0.386 0.421,-1.115 1.333,-2.505 1.386,-2.115 2.526,-3.172 3.474,-5.069 0.437,-0.874 1.328,-1.26 1.318,-2.338 -0.005,-1.088 -1.089,-1.739 -1.089,-1.739"
     id="path318" />
  <path
     style="fill:none;stroke:#231f20;stroke-width:0.565977;stroke-linecap:butt;stroke-linejoin:miter;stroke-miterlimit:4;stroke-dasharray:none;stroke-opacity:1"
     d="m 93.199275,114.57301 c -1.869,-1.281 -2.405,-1.276 -2.995,-0.521 -0.401,0.5 -0.937,0.828 -1.192,1.125 -0.844,0.979 -1.87,2.979 -3.286,9.411 -0.323,1.453 -0.787,3.495 -1.047,4.319 -0.401,1.29 2.02,1.093 2.181,0.588 0.538,-1.635 1.032,-2.709 1.303,-3.271 0.187,-0.386 0.421,-1.115 1.333,-2.505 1.386,-2.115 2.526,-3.172 3.474,-5.069 0.437,-0.874 1.328,-1.26 1.318,-2.338 -0.005,-1.088 -1.089,-1.739 -1.089,-1.739 z"
     id="path319" />
  <path
     style="fill:#0098c9;fill-opacity:1;fill-rule:nonzero;stroke:none"
     d="m 101.01227,88.973012 c -0.797,3.032001 -1.291995,3.595001 -1.859995,4.324001 -3.541,4.572 -1.229,6.224 1.645995,6.438 3.381,0.254 4.589,0.409997 5.6,-5.803 0.276,-1.73 2.213,-8.219001 2.213,-8.219001 1.011,-2.229 0.801,-4.942 -0.156,-6.041 -1.011,-1.151 -0.693,-0.62 -1.828,-1.521 -1.073,-0.854 -3.24,-1.161 -4.163,-0.339 -0.89,0.792 -0.572,2.428 -0.426,4.844 0.114,1.912 -1.026,6.317 -1.026,6.317"
     id="path320" />
  <path
     style="fill:none;stroke:#231f20;stroke-width:0.565977;stroke-linecap:butt;stroke-linejoin:miter;stroke-miterlimit:4;stroke-dasharray:none;stroke-opacity:1"
     d="m 101.01227,88.973012 c -0.797,3.032001 -1.291995,3.595001 -1.859995,4.324001 -3.541,4.572 -1.229,6.224 1.645995,6.438 3.381,0.254 4.589,0.409997 5.6,-5.803 0.276,-1.73 2.213,-8.219001 2.213,-8.219001 1.011,-2.229 0.801,-4.942 -0.156,-6.041 -1.011,-1.151 -0.693,-0.62 -1.828,-1.521 -1.073,-0.854 -3.24,-1.161 -4.163,-0.339 -0.89,0.792 -0.572,2.428 -0.426,4.844 0.114,1.912 -1.026,6.317 -1.026,6.317 z"
     id="path321" />
  <path
     style="fill:#ffffff;fill-opacity:1;fill-rule:nonzero;stroke:none"
     d="m 110.72027,73.563012 c 0.115,-0.214 1.235,0.057 1.396,-0.443 0.156,-0.5 -0.505,-0.923 -0.766,-2.896 l -0.004,-0.016 c -0.142,-1.448 -0.844,-2.651 -2.006,-3.125 -1.922,-0.796 -4.349,0.677 -5.428,3.286 -1.077,2.615 -0.394,5.371 1.522,6.162 1.833,0.766 4.145,-0.558 5.286,-2.968"
     id="path322" />
  <path
     style="fill:none;stroke:#231f20;stroke-width:0.565977;stroke-linecap:butt;stroke-linejoin:miter;stroke-miterlimit:4;stroke-dasharray:none;stroke-opacity:1"
     d="m 110.72027,73.563012 c 0.115,-0.214 1.235,0.057 1.396,-0.443 0.156,-0.5 -0.505,-0.923 -0.766,-2.896 l -0.004,-0.016 c -0.142,-1.448 -0.844,-2.651 -2.006,-3.125 -1.922,-0.796 -4.349,0.677 -5.428,3.286 -1.077,2.615 -0.394,5.371 1.522,6.162 1.833,0.766 4.145,-0.558 5.286,-2.968 z"
     id="path323" />
  <path
     style="fill:#231f20;fill-opacity:1;fill-rule:nonzero;stroke:none"
     d="m 91.376275,116.24001 c 3.11,2.536 4,-1.448 4.303,-1.819 3.187,-3.864 3.317,-4.224 5.535995,-7.338 3.208,-4.5 4.713,-8.077997 2.64,-10.708997 -1.405,-1.786 -2.995,-2.202 -4.254995,-1.827 -1.396,0.417 -3.677,2.631 -3.088,5.457997 l -0.584,1.609 c -0.536,1.031 -0.797,1.547 -1.098,2.036 -0.532,0.855 -1.047,1.798 -1.984,3.517 -1.662,3.046 -2.428,6.812 -2.428,6.812 -0.572,1.104 0.958,2.261 0.958,2.261"
     id="path324" />
  <path
     style="fill:none;stroke:#231f20;stroke-width:0.565977;stroke-linecap:butt;stroke-linejoin:miter;stroke-miterlimit:4;stroke-dasharray:none;stroke-opacity:1"
     d="m 91.376275,116.24001 c 3.11,2.536 4,-1.448 4.303,-1.819 3.187,-3.864 3.317,-4.224 5.535995,-7.338 3.208,-4.5 4.713,-8.077997 2.64,-10.708997 -1.405,-1.786 -2.995,-2.202 -4.254995,-1.827 -1.396,0.417 -3.677,2.631 -3.088,5.457997 l -0.584,1.609 c -0.536,1.031 -0.797,1.547 -1.098,2.036 -0.532,0.855 -1.047,1.798 -1.984,3.517 -1.662,3.046 -2.428,6.812 -2.428,6.812 -0.572,1.104 0.958,2.261 0.958,2.261 z"
     id="path325" />
  <path
     style="fill:#0098c9;fill-opacity:1;fill-rule:nonzero;stroke:none"
     d="m 104.55427,102.08801 c 0.041,-0.067 0.088,-0.135 0.14,-0.187 0.546,-0.594 0.458,-1.218 0.266,-2.239997 0.052,-1.552 -0.365,-2.849 -1.458,-3.838 -1.683,-1.526 -3.314,-1.678 -4.494995,-1.094 -1.313,0.645 -3.199,3.208 -2.147,5.895997 l 7.125995,3.219 c 0.229,-0.615 0.412,-1.194 0.568,-1.756"
     id="path326" />
  <path
     style="fill:none;stroke:#231f20;stroke-width:0.565977;stroke-linecap:butt;stroke-linejoin:miter;stroke-miterlimit:4;stroke-dasharray:none;stroke-opacity:1"
     d="m 104.55427,102.08801 c 0.041,-0.067 0.088,-0.135 0.14,-0.187 0.546,-0.594 0.458,-1.218 0.266,-2.239997 0.052,-1.552 -0.365,-2.849 -1.458,-3.838 -1.683,-1.526 -3.314,-1.678 -4.494995,-1.094 -1.313,0.645 -3.199,3.208 -2.147,5.895997 l 7.125995,3.219 c 0.229,-0.615 0.412,-1.194 0.568,-1.756 z"
     id="path327" />
  <path
     style="fill:#231f20;fill-opacity:1;fill-rule:nonzero;stroke:none"
     d="m 110.92827,62.052012 c 0.23,0.599 -0.448,2.427 -0.38,4.036 0.042,1.084 -0.978,3.636 -0.854,4.709 0.114,0.99 0.073,1.452 -1.031,1.776 -0.656,0.187 -2.041,0.135 -2.208,-0.349 -0.391,-1.125 -0.319,-2.073 -0.021,-3.093 0.338,-1.172 1.536,-4.256 1.806,-4.808 0.683,-1.359 0.532,-2.083 0.678,-2.459 0.27,-0.708 0.614,-0.781 1.114,-0.703 0.943,0.146 0.896,0.891 0.896,0.891"
     id="path328" />
  <path
     style="fill:none;stroke:#231f20;stroke-width:0.565977;stroke-linecap:butt;stroke-linejoin:miter;stroke-miterlimit:4;stroke-dasharray:none;stroke-opacity:1"
     d="m 110.92827,62.052012 c 0.23,0.599 -0.448,2.427 -0.38,4.036 0.042,1.084 -0.978,3.636 -0.854,4.709 0.114,0.99 0.073,1.452 -1.031,1.776 -0.656,0.187 -2.041,0.135 -2.208,-0.349 -0.391,-1.125 -0.319,-2.073 -0.021,-3.093 0.338,-1.172 1.536,-4.256 1.806,-4.808 0.683,-1.359 0.532,-2.083 0.678,-2.459 0.27,-0.708 0.614,-0.781 1.114,-0.703 0.943,0.146 0.896,0.891 0.896,0.891 z"
     id="path329" />
  <path
     style="fill:#231f20;fill-opacity:1;fill-rule:nonzero;stroke:none"
     d="m 109.02727,70.912012 c 1.235,0.405 0.251,2.192 0.063,2.697 -0.192,0.511 -0.558,2.022 -0.692,3.235 -0.142,1.218 -0.828,2.677 -1.095,4.989 -0.14,1.214 -1.041,2.312 -2.796,2.031 -1.735,-0.271 -2.229,-1.348 -1.844,-2.796 0.385,-1.443 1.364,-2.636 1.859,-4.068 0.494,-1.421 0.865,-2.927 1.105,-4.12 0.26,-1.353 0.9,-1.927 1.369,-2.025 1.167,-0.246 2.031,0.057 2.031,0.057"
     id="path330" />
  <path
     style="fill:none;stroke:#231f20;stroke-width:0.565977;stroke-linecap:butt;stroke-linejoin:miter;stroke-miterlimit:4;stroke-dasharray:none;stroke-opacity:1"
     d="m 109.02727,70.912012 c 1.235,0.405 0.251,2.192 0.063,2.697 -0.192,0.511 -0.558,2.022 -0.692,3.235 -0.142,1.218 -0.828,2.677 -1.095,4.989 -0.14,1.214 -1.041,2.312 -2.796,2.031 -1.735,-0.271 -2.229,-1.348 -1.844,-2.796 0.385,-1.443 1.364,-2.636 1.859,-4.068 0.494,-1.421 0.865,-2.927 1.105,-4.12 0.26,-1.353 0.9,-1.927 1.369,-2.025 1.167,-0.246 2.031,0.057 2.031,0.057 z"
     id="path331" />
  <path
     style="fill:#231f20;fill-opacity:1;fill-rule:nonzero;stroke:none"
     d="m 197.79327,4.8340124 c 0.386,1.297 -0.401,1.896 -1.433,1.854 -0.312,-0.016 -0.593,0.291 -0.891,0.255 -0.697,-0.093 -1.713,-1.516 -0.749,-2.661 0.068,-0.079 0.391,-0.834 0.713,-1.366 0.64,-1.03 2.412,-2.78499995 5.104,-2.74899995 1.282,0.016 1.032,0.765 0.516,0.91599995 -1.646,0.475 -1.698,0.839 -2.084,1.12 -1.312,0.953 -1.176,2.631 -1.176,2.631"
     id="path332" />
  <path
     style="fill:none;stroke:#231f20;stroke-width:0.332927;stroke-linecap:butt;stroke-linejoin:miter;stroke-miterlimit:4;stroke-dasharray:none;stroke-opacity:1"
     d="m 197.79327,4.8340124 c 0.386,1.297 -0.401,1.896 -1.433,1.854 -0.312,-0.016 -0.593,0.291 -0.891,0.255 -0.697,-0.093 -1.713,-1.516 -0.749,-2.661 0.068,-0.079 0.391,-0.834 0.713,-1.366 0.64,-1.03 2.412,-2.78499995 5.104,-2.74899995 1.282,0.016 1.032,0.765 0.516,0.91599995 -1.646,0.475 -1.698,0.839 -2.084,1.12 -1.312,0.953 -1.176,2.631 -1.176,2.631 z"
     id="path333" />
  <path
     style="fill:#231f20;fill-opacity:1;fill-rule:nonzero;stroke:none"
     d="m 185.47527,18.969012 c 1.641,1.562 2.172,1.651 2.88,0.995 0.469,-0.428 1.052,-0.667 1.349,-0.917 0.995,-0.834 2.328,-2.646 4.76,-8.76 0.552,-1.3909996 1.333,-3.3279996 1.724,-4.0989996 0.605,-1.214 -1.823,-1.401 -2.061,-0.928 -0.792,1.527 -1.454,2.511 -1.808,3.016 -0.246,0.355 -0.599,1.031 -1.724,2.2599996 -1.703,1.865 -3,2.724 -4.235,4.443 -0.577,0.797 -1.515,1.032 -1.677,2.104 -0.171,1.068 0.792,1.886 0.792,1.886"
     id="path334" />
  <path
     style="fill:none;stroke:#231f20;stroke-width:0.565977;stroke-linecap:butt;stroke-linejoin:miter;stroke-miterlimit:4;stroke-dasharray:none;stroke-opacity:1"
     d="m 185.47527,18.969012 c 1.641,1.562 2.172,1.651 2.88,0.995 0.469,-0.428 1.052,-0.667 1.349,-0.917 0.995,-0.834 2.328,-2.646 4.76,-8.76 0.552,-1.3909996 1.333,-3.3279996 1.724,-4.0989996 0.605,-1.214 -1.823,-1.401 -2.061,-0.928 -0.792,1.527 -1.454,2.511 -1.808,3.016 -0.246,0.355 -0.599,1.031 -1.724,2.2599996 -1.703,1.865 -3,2.724 -4.235,4.443 -0.577,0.797 -1.515,1.032 -1.677,2.104 -0.171,1.068 0.792,1.886 0.792,1.886 z"
     id="path335" />
  <path
     style="fill:#0098c9;fill-opacity:1;fill-rule:nonzero;stroke:none"
     d="m 170.79727,39.916012 c 2.59,-1.765 3.334,-1.859 4.235,-2.041 5.677,-1.12 5.016,-3.88 2.989,-5.927 -2.385,-2.417 -3.192,-3.328 -8.03,0.697 -1.35,1.12 -7.068,4.74 -7.068,4.74 -2.224,1.022 -3.854,3.203 -3.854,4.662 0.01,1.532 0.119,0.922 0.38,2.344 0.25,1.354 1.682,3.005 2.922,2.989 1.182,-0.011 2.021,-1.453 3.5,-3.375 1.166,-1.51 4.926,-4.089 4.926,-4.089"
     id="path336" />
  <path
     style="fill:none;stroke:#231f20;stroke-width:0.565977;stroke-linecap:butt;stroke-linejoin:miter;stroke-miterlimit:4;stroke-dasharray:none;stroke-opacity:1"
     d="m 170.79727,39.916012 c 2.59,-1.765 3.334,-1.859 4.235,-2.041 5.677,-1.12 5.016,-3.88 2.989,-5.927 -2.385,-2.417 -3.192,-3.328 -8.03,0.697 -1.35,1.12 -7.068,4.74 -7.068,4.74 -2.224,1.022 -3.854,3.203 -3.854,4.662 0.01,1.532 0.119,0.922 0.38,2.344 0.25,1.354 1.682,3.005 2.922,2.989 1.182,-0.011 2.021,-1.453 3.5,-3.375 1.166,-1.51 4.926,-4.089 4.926,-4.089 z"
     id="path337" />
  <path
     style="fill:#ffffff;fill-opacity:1;fill-rule:nonzero;stroke:none"
     d="m 153.46027,45.749012 c -0.22,0.106 -0.969,-0.77 -1.391,-0.452 -0.422,0.312 -0.13,1.042 -1.068,2.796 l -0.005,0.016 c -0.735,1.26 -0.86,2.646 -0.193,3.708 1.1,1.766 3.928,1.986 6.328,0.495 2.396,-1.495 3.453,-4.135 2.354,-5.896 -1.046,-1.687 -3.692,-1.963 -6.025,-0.667"
     id="path338" />
  <path
     style="fill:none;stroke:#231f20;stroke-width:0.565977;stroke-linecap:butt;stroke-linejoin:miter;stroke-miterlimit:4;stroke-dasharray:none;stroke-opacity:1"
     d="m 153.46027,45.749012 c -0.22,0.106 -0.969,-0.77 -1.391,-0.452 -0.422,0.312 -0.13,1.042 -1.068,2.796 l -0.005,0.016 c -0.735,1.26 -0.86,2.646 -0.193,3.708 1.1,1.766 3.928,1.986 6.328,0.495 2.396,-1.495 3.453,-4.135 2.354,-5.896 -1.046,-1.687 -3.692,-1.963 -6.025,-0.667 z"
     id="path339" />
  <path
     style="fill:#231f20;fill-opacity:1;fill-rule:nonzero;stroke:none"
     d="m 187.54327,17.620012 c -2.656,-3.005 -4.178,0.781 -4.536,1.099 -3.767,3.306 -3.954,3.64 -6.642,6.354 -3.885,3.927 -5.953,7.219 -4.322,10.146 1.098,1.984 2.598,2.656 3.901,2.489 1.448,-0.187 4.057,-2.005 3.927,-4.896 l 0.838,-1.495 c 0.694,-0.932 1.027,-1.396 1.407,-1.833 0.661,-0.749 1.317,-1.599 2.52,-3.145 2.136,-2.74 3.491,-6.334 3.491,-6.334 0.738,-1.005 -0.584,-2.385 -0.584,-2.385"
     id="path340" />
  <path
     style="fill:none;stroke:#231f20;stroke-width:0.565977;stroke-linecap:butt;stroke-linejoin:miter;stroke-miterlimit:4;stroke-dasharray:none;stroke-opacity:1"
     d="m 187.54327,17.620012 c -2.656,-3.005 -4.178,0.781 -4.536,1.099 -3.767,3.306 -3.954,3.64 -6.642,6.354 -3.885,3.927 -5.953,7.219 -4.322,10.146 1.098,1.984 2.598,2.656 3.901,2.489 1.448,-0.187 4.057,-2.005 3.927,-4.896 l 0.838,-1.495 c 0.694,-0.932 1.027,-1.396 1.407,-1.833 0.661,-0.749 1.317,-1.599 2.52,-3.145 2.136,-2.74 3.491,-6.334 3.491,-6.334 0.738,-1.005 -0.584,-2.385 -0.584,-2.385 z"
     id="path341" />
  <path
     style="fill:#0098c9;fill-opacity:1;fill-rule:nonzero;stroke:none"
     d="m 179.62727,32.145012 -6.511,-4.317 c -0.328,0.568 -0.604,1.109 -0.844,1.641 -0.057,0.062 -0.115,0.119 -0.172,0.167 -0.636,0.495 -0.645,1.124 -0.62,2.167 -0.307,1.52 -0.099,2.869 0.817,4.014 1.423,1.782 3.006,2.188 4.267,1.808 1.396,-0.428 3.672,-2.656 3.063,-5.48"
     id="path342" />
  <path
     style="fill:none;stroke:#231f20;stroke-width:0.565977;stroke-linecap:butt;stroke-linejoin:miter;stroke-miterlimit:4;stroke-dasharray:none;stroke-opacity:1"
     d="m 179.62727,32.145012 -6.511,-4.317 c -0.328,0.568 -0.604,1.109 -0.844,1.641 -0.057,0.062 -0.115,0.119 -0.172,0.167 -0.636,0.495 -0.645,1.124 -0.62,2.167 -0.307,1.52 -0.099,2.869 0.817,4.014 1.423,1.782 3.006,2.188 4.267,1.808 1.396,-0.428 3.672,-2.656 3.063,-5.48 z"
     id="path343" />
  <path
     style="fill:#231f20;fill-opacity:1;fill-rule:nonzero;stroke:none"
     d="m 147.46027,58.021012 c 0.077,-0.641 1.531,-1.938 2.228,-3.385 0.469,-0.98 2.568,-2.751 2.964,-3.767 0.364,-0.916 0.62,-1.312 1.745,-1.077 0.667,0.14 1.864,0.839 1.787,1.344 -0.188,1.176 -0.693,1.979 -1.433,2.744 -0.848,0.869 -3.354,3.036 -3.854,3.396 -1.24,0.88 -1.442,1.588 -1.756,1.849 -0.572,0.506 -0.905,0.402 -1.312,0.099 -0.765,-0.573 -0.369,-1.203 -0.369,-1.203"
     id="path344" />
  <path
     style="fill:none;stroke:#231f20;stroke-width:0.565977;stroke-linecap:butt;stroke-linejoin:miter;stroke-miterlimit:4;stroke-dasharray:none;stroke-opacity:1"
     d="m 147.46027,58.021012 c 0.077,-0.641 1.531,-1.938 2.228,-3.385 0.469,-0.98 2.568,-2.751 2.964,-3.767 0.364,-0.916 0.62,-1.312 1.745,-1.077 0.667,0.14 1.864,0.839 1.787,1.344 -0.188,1.176 -0.693,1.979 -1.433,2.744 -0.848,0.869 -3.354,3.036 -3.854,3.396 -1.24,0.88 -1.442,1.588 -1.756,1.849 -0.572,0.506 -0.905,0.402 -1.312,0.099 -0.765,-0.573 -0.369,-1.203 -0.369,-1.203 z"
     id="path345" />
  <path
     style="fill:#231f20;fill-opacity:1;fill-rule:nonzero;stroke:none"
     d="m 153.28827,51.088012 c -0.891,-0.937 0.817,-2.052 1.219,-2.411 0.405,-0.365 1.437,-1.526 2.124,-2.537 0.698,-1.009 1.99,-1.968 3.308,-3.891 0.697,-1.009 2.005,-1.552 3.421,-0.484 1.407,1.058 1.339,2.24 0.319,3.339 -1.022,1.089 -2.443,1.683 -3.548,2.719 -1.11,1.026 -2.14,2.177 -2.911,3.12 -0.871,1.073 -1.699,1.281 -2.156,1.145 -1.152,-0.328 -1.776,-1 -1.776,-1"
     id="path346" />
  <path
     style="fill:none;stroke:#231f20;stroke-width:0.565977;stroke-linecap:butt;stroke-linejoin:miter;stroke-miterlimit:4;stroke-dasharray:none;stroke-opacity:1"
     d="m 153.28827,51.088012 c -0.891,-0.937 0.817,-2.052 1.219,-2.411 0.405,-0.365 1.437,-1.526 2.124,-2.537 0.698,-1.009 1.99,-1.968 3.308,-3.891 0.697,-1.009 2.005,-1.552 3.421,-0.484 1.407,1.058 1.339,2.24 0.319,3.339 -1.022,1.089 -2.443,1.683 -3.548,2.719 -1.11,1.026 -2.14,2.177 -2.911,3.12 -0.871,1.073 -1.699,1.281 -2.156,1.145 -1.152,-0.328 -1.776,-1 -1.776,-1 z"
     id="path347" />
  <path
     style="fill:#231f20;fill-opacity:1;fill-rule:nonzero;stroke:none"
     d="m 4.8772765,94.286013 c -0.011,-1.354 0.912,-1.713 1.89,-1.379 0.292,0.093 0.646,-0.121 0.927,-0.006 0.647,0.287 1.229,1.927 -0.015,2.766 -0.089,0.057 -0.605,0.692 -1.062,1.114 -0.896,0.817 -3.084,2.016 -5.66699997,1.235 -1.224,-0.371 -0.781,-1.021 -0.24,-1.027 1.71299997,0 1.86399997,-0.333 2.30699997,-0.499 1.532,-0.553 1.86,-2.204 1.86,-2.204"
     id="path348" />
  <path
     style="fill:none;stroke:#231f20;stroke-width:0.332927;stroke-linecap:butt;stroke-linejoin:miter;stroke-miterlimit:4;stroke-dasharray:none;stroke-opacity:1"
     d="m 4.8772765,94.286013 c -0.011,-1.354 0.912,-1.713 1.89,-1.379 0.292,0.093 0.646,-0.121 0.927,-0.006 0.647,0.287 1.229,1.927 -0.015,2.766 -0.089,0.057 -0.605,0.692 -1.062,1.114 -0.896,0.817 -3.084,2.016 -5.66699997,1.235 -1.224,-0.371 -0.781,-1.021 -0.24,-1.027 1.71299997,0 1.86399997,-0.333 2.30699997,-0.499 1.532,-0.553 1.86,-2.204 1.86,-2.204 z"
     id="path349" />
  <path
     style="fill:#231f20;fill-opacity:1;fill-rule:nonzero;stroke:none"
     d="m 20.622277,84.098012 c -1.152,-1.953 -1.636,-2.177 -2.495,-1.749 -0.568,0.287 -1.199,0.354 -1.553,0.515 -1.187,0.521 -2.963,1.896 -6.9890005,7.105001 -0.911,1.181 -2.203,2.828 -2.791,3.463 -0.912,0.994 1.364,1.849 1.728,1.458 1.177,-1.25 2.0840005,-2.01 2.5680005,-2.406 0.333,-0.265 0.86,-0.817 2.276,-1.692 2.156,-1.323001 3.641,-1.792001 5.302,-3.100001 0.771,-0.609 1.739,-0.572 2.192,-1.556 0.459,-0.985 -0.238,-2.038 -0.238,-2.038"
     id="path350" />
  <path
     style="fill:none;stroke:#231f20;stroke-width:0.565977;stroke-linecap:butt;stroke-linejoin:miter;stroke-miterlimit:4;stroke-dasharray:none;stroke-opacity:1"
     d="m 20.622277,84.098012 c -1.152,-1.953 -1.636,-2.177 -2.495,-1.749 -0.568,0.287 -1.199,0.354 -1.553,0.515 -1.187,0.521 -2.963,1.896 -6.9890005,7.105001 -0.911,1.181 -2.203,2.828 -2.791,3.463 -0.912,0.994 1.364,1.849 1.728,1.458 1.177,-1.25 2.0840005,-2.01 2.5680005,-2.406 0.333,-0.265 0.86,-0.817 2.276,-1.692 2.156,-1.323001 3.641,-1.792001 5.302,-3.100001 0.771,-0.609 1.739,-0.572 2.192,-1.556 0.459,-0.985 -0.238,-2.038 -0.238,-2.038 z"
     id="path351" />
  <path
     style="fill:#0098c9;fill-opacity:1;fill-rule:nonzero;stroke:none"
     d="m 41.918275,68.484012 c -3.042,0.751 -3.776,0.579 -4.687,0.432 -5.708998,-0.927 -6.051998,1.896 -4.864998,4.521 1.389998,3.09 1.832998,4.23 7.769998,2.142 1.652,-0.584 8.282,-1.98 8.282,-1.98 2.437,-0.183 4.724,-1.662 5.229,-3.031 0.527,-1.437 0.213,-0.901 0.459,-2.328 0.24,-1.355 -0.527,-3.401 -1.694,-3.819 -1.114,-0.405 -2.4,0.658 -4.457,1.938 -1.62,1.016 -6.037,2.125 -6.037,2.125"
     id="path352" />
  <path
     style="fill:none;stroke:#231f20;stroke-width:0.565977;stroke-linecap:butt;stroke-linejoin:miter;stroke-miterlimit:4;stroke-dasharray:none;stroke-opacity:1"
     d="m 41.918275,68.484012 c -3.042,0.751 -3.776,0.579 -4.687,0.432 -5.708998,-0.927 -6.051998,1.896 -4.864998,4.521 1.389998,3.09 1.832998,4.23 7.769998,2.142 1.652,-0.584 8.282,-1.98 8.282,-1.98 2.437,-0.183 4.724,-1.662 5.229,-3.031 0.527,-1.437 0.213,-0.901 0.459,-2.328 0.24,-1.355 -0.527,-3.401 -1.694,-3.819 -1.114,-0.405 -2.4,0.658 -4.457,1.938 -1.62,1.016 -6.037,2.125 -6.037,2.125 z"
     id="path353" />
  <path
     style="fill:#ffffff;fill-opacity:1;fill-rule:nonzero;stroke:none"
     d="m 60.095275,69.640012 c 0.245,0 0.541,1.109 1.052,1.011 0.516,-0.099 0.568,-0.88 2.183,-2.058 l 0.01,-0.01 c 1.208,-0.812 1.922,-2.01 1.787,-3.255 -0.22,-2.068 -2.672,-3.495 -5.48,-3.192 -2.812,0.301 -4.907,2.219 -4.687,4.28 0.208,1.975 2.474,3.376 5.135,3.224"
     id="path354" />
  <path
     style="fill:none;stroke:#231f20;stroke-width:0.565977;stroke-linecap:butt;stroke-linejoin:miter;stroke-miterlimit:4;stroke-dasharray:none;stroke-opacity:1"
     d="m 60.095275,69.640012 c 0.245,0 0.541,1.109 1.052,1.011 0.516,-0.099 0.568,-0.88 2.183,-2.058 l 0.01,-0.01 c 1.208,-0.812 1.922,-2.01 1.787,-3.255 -0.22,-2.068 -2.672,-3.495 -5.48,-3.192 -2.812,0.301 -4.907,2.219 -4.687,4.28 0.208,1.975 2.474,3.376 5.135,3.224 z"
     id="path355" />
  <path
     style="fill:#231f20;fill-opacity:1;fill-rule:nonzero;stroke:none"
     d="m 18.262277,84.828012 c 1.724,3.62 4.229,0.401 4.661,0.193 4.532,-2.136 4.803,-2.406 8.136,-4.272 4.822998,-2.702 7.712998,-5.296 6.956998,-8.556 -0.504,-2.214 -1.76,-3.272 -3.061,-3.469 -1.443,-0.219 -4.452998,0.807 -5.130998,3.62 l -1.213,1.203 c -0.923,0.702 -1.375,1.062 -1.86,1.374 -0.844,0.543 -1.708,1.177 -3.291,2.328 -2.808,2.048 -5.105,5.125 -5.105,5.125 -0.989,0.757 -0.093,2.454 -0.093,2.454"
     id="path356" />
  <path
     style="fill:none;stroke:#231f20;stroke-width:0.565977;stroke-linecap:butt;stroke-linejoin:miter;stroke-miterlimit:4;stroke-dasharray:none;stroke-opacity:1"
     d="m 18.262277,84.828012 c 1.724,3.62 4.229,0.401 4.661,0.193 4.532,-2.136 4.803,-2.406 8.136,-4.272 4.822998,-2.702 7.712998,-5.296 6.956998,-8.556 -0.504,-2.214 -1.76,-3.272 -3.061,-3.469 -1.443,-0.219 -4.452998,0.807 -5.130998,3.62 l -1.213,1.203 c -0.923,0.702 -1.375,1.062 -1.86,1.374 -0.844,0.543 -1.708,1.177 -3.291,2.328 -2.808,2.048 -5.105,5.125 -5.105,5.125 -0.989,0.757 -0.093,2.454 -0.093,2.454 z"
     id="path357" />
  <path
     style="fill:#0098c9;fill-opacity:1;fill-rule:nonzero;stroke:none"
     d="m 34.335275,68.631012 c -1.458998,0.025 -4.260998,1.536 -4.452998,4.421 l 5.067998,5.948 c 0.473,-0.459 0.885,-0.907 1.27,-1.349 0.068,-0.042 0.135,-0.083 0.198,-0.11 0.75,-0.301 0.932,-0.901 1.193,-1.905 0.719,-1.381 0.891,-2.735 0.323,-4.095 -0.875,-2.098 -2.282,-2.932 -3.599,-2.91"
     id="path358" />
  <path
     style="fill:none;stroke:#231f20;stroke-width:0.565977;stroke-linecap:butt;stroke-linejoin:miter;stroke-miterlimit:4;stroke-dasharray:none;stroke-opacity:1"
     d="m 34.335275,68.631012 c -1.458998,0.025 -4.260998,1.536 -4.452998,4.421 l 5.067998,5.948 c 0.473,-0.459 0.885,-0.907 1.27,-1.349 0.068,-0.042 0.135,-0.083 0.198,-0.11 0.75,-0.301 0.932,-0.901 1.193,-1.905 0.719,-1.381 0.891,-2.735 0.323,-4.095 -0.875,-2.098 -2.282,-2.932 -3.599,-2.91 z"
     id="path359" />
  <path
     style="fill:#231f20;fill-opacity:1;fill-rule:nonzero;stroke:none"
     d="m 70.355275,60.265012 c -0.343,0.542 -2.208,1.099 -3.457,2.11 -0.844,0.688 -3.5,1.396 -4.287,2.141 -0.719,0.681 -1.115,0.927 -2.037,0.229 -0.547,-0.406 -1.334,-1.552 -1.047,-1.974 0.672,-0.984 1.469,-1.495 2.469,-1.87 1.14,-0.428 4.328,-1.318 4.932,-1.428 1.5,-0.265 1.984,-0.817 2.38,-0.926 0.73,-0.208 0.99,0.026 1.224,0.469 0.448,0.848 -0.177,1.249 -0.177,1.249"
     id="path360" />
  <path
     style="fill:none;stroke:#231f20;stroke-width:0.565977;stroke-linecap:butt;stroke-linejoin:miter;stroke-miterlimit:4;stroke-dasharray:none;stroke-opacity:1"
     d="m 70.355275,60.265012 c -0.343,0.542 -2.208,1.099 -3.457,2.11 -0.844,0.688 -3.5,1.396 -4.287,2.141 -0.719,0.681 -1.115,0.927 -2.037,0.229 -0.547,-0.406 -1.334,-1.552 -1.047,-1.974 0.672,-0.984 1.469,-1.495 2.469,-1.87 1.14,-0.428 4.328,-1.318 4.932,-1.428 1.5,-0.265 1.984,-0.817 2.38,-0.926 0.73,-0.208 0.99,0.026 1.224,0.469 0.448,0.848 -0.177,1.249 -0.177,1.249 z"
     id="path361" />
  <path
     style="fill:#231f20;fill-opacity:1;fill-rule:nonzero;stroke:none"
     d="m 62.127275,64.052012 c 0.411,1.229 -1.609,1.505 -2.131,1.656 -0.521,0.156 -1.953,0.765 -3.005,1.385 -1.057,0.62 -2.641,0.938 -4.651,2.11 -1.057,0.614 -2.474,0.546 -3.302,-1.02 -0.818,-1.552 -0.255,-2.6 1.141,-3.152 1.385,-0.558 2.927,-0.484 4.369,-0.948 1.438,-0.452 2.864,-1.058 3.959,-1.583 1.244,-0.599 2.088,-0.427 2.443,-0.115 0.901,0.792 1.177,1.667 1.177,1.667"
     id="path362" />
  <path
     style="fill:none;stroke:#231f20;stroke-width:0.565977;stroke-linecap:butt;stroke-linejoin:miter;stroke-miterlimit:4;stroke-dasharray:none;stroke-opacity:1"
     d="m 62.127275,64.052012 c 0.411,1.229 -1.609,1.505 -2.131,1.656 -0.521,0.156 -1.953,0.765 -3.005,1.385 -1.057,0.62 -2.641,0.938 -4.651,2.11 -1.057,0.614 -2.474,0.546 -3.302,-1.02 -0.818,-1.552 -0.255,-2.6 1.141,-3.152 1.385,-0.558 2.927,-0.484 4.369,-0.948 1.438,-0.452 2.864,-1.058 3.959,-1.583 1.244,-0.599 2.088,-0.427 2.443,-0.115 0.901,0.792 1.177,1.667 1.177,1.667 z"
     id="path363" />
  <path
     style="fill:#ffffff;fill-opacity:1;fill-rule:nonzero;stroke:none"
     d="m 145.91227,61.349012 c -0.989,-0.266 -1.577,-1.286 -1.312,-2.281 0.271,-0.989 1.287,-1.579 2.281,-1.313 0.99,0.27 1.583,1.292 1.312,2.281 -0.265,0.989 -1.286,1.579 -2.281,1.313"
     id="path364" />
  <path
     style="fill:none;stroke:#231f20;stroke-width:1.33171;stroke-linecap:butt;stroke-linejoin:miter;stroke-miterlimit:4;stroke-dasharray:none;stroke-opacity:1"
     d="m 145.91227,61.349012 c -0.989,-0.266 -1.577,-1.286 -1.312,-2.281 0.271,-0.989 1.287,-1.579 2.281,-1.313 0.99,0.27 1.583,1.292 1.312,2.281 -0.265,0.989 -1.286,1.579 -2.281,1.313 z"
     id="path365" />
  <path
     style="fill:#ffffff;fill-opacity:1;fill-rule:nonzero;stroke:none"
     d="m 110.59527,57.303012 c 1.021,0.009 1.844,0.858 1.833,1.885 -0.016,1.025 -0.858,1.848 -1.885,1.833 -1.031,-0.016 -1.855,-0.86 -1.833,-1.885 0.016,-1.027 0.854,-1.849 1.885,-1.833"
     id="path366" />
  <path
     style="fill:none;stroke:#231f20;stroke-width:1.33171;stroke-linecap:butt;stroke-linejoin:miter;stroke-miterlimit:4;stroke-dasharray:none;stroke-opacity:1"
     d="m 110.59527,57.303012 c 1.021,0.009 1.844,0.858 1.833,1.885 -0.016,1.025 -0.858,1.848 -1.885,1.833 -1.031,-0.016 -1.855,-0.86 -1.833,-1.885 0.016,-1.027 0.854,-1.849 1.885,-1.833 z"
     id="path367" />
  <path
     style="fill:#ffffff;fill-opacity:1;fill-rule:nonzero;stroke:none"
     d="m 73.043275,60.760012 c -0.713,0.74 -1.891,0.751 -2.625,0.037 -0.739,-0.714 -0.755,-1.896 -0.036,-2.63 0.713,-0.735 1.89,-0.755 2.63,-0.036 0.734,0.718 0.75,1.89 0.031,2.629"
     id="path368" />
  <path
     style="fill:none;stroke:#231f20;stroke-width:1.33171;stroke-linecap:butt;stroke-linejoin:miter;stroke-miterlimit:4;stroke-dasharray:none;stroke-opacity:1"
     d="m 73.043275,60.760012 c -0.713,0.74 -1.891,0.751 -2.625,0.037 -0.739,-0.714 -0.755,-1.896 -0.036,-2.63 0.713,-0.735 1.89,-0.755 2.63,-0.036 0.734,0.718 0.75,1.89 0.031,2.629 z"
     id="path369" />
</svg>
