<?xml version="1.0" encoding="UTF-8" standalone="no"?>
<!-- Created with Inkscape (http://www.inkscape.org/) -->

<svg
   version="1.1"
   id="svg1"
   width="316.92084"
   height="150.28935"
   viewBox="0 0 316.92082 150.28935"
   sodipodi:docname="cell.svg"
   xmlns:inkscape="http://www.inkscape.org/namespaces/inkscape"
   xmlns:sodipodi="http://sodipodi.sourceforge.net/DTD/sodipodi-0.dtd"
   xmlns="http://www.w3.org/2000/svg"
   xmlns:svg="http://www.w3.org/2000/svg">
  <sodipodi:namedview
     id="namedview1"
     pagecolor="#ffffff"
     bordercolor="#000000"
     borderopacity="0.25"
     inkscape:showpageshadow="2"
     inkscape:pageopacity="0.0"
     inkscape:pagecheckerboard="0"
     inkscape:deskcolor="#d1d1d1">
    <inkscape:page
       x="5.3770208e-07"
       y="0"
       inkscape:label="1"
       id="page1"
       width="316.92084"
       height="150.28935"
       margin="0"
       bleed="0" />
  </sodipodi:namedview>
  <defs
     id="defs1" />
  <path
     style="fill:#ffffff;fill-opacity:1;fill-rule:nonzero;stroke:none"
     d="m 122.55684,18.875 h 18.87 V 0 h -18.87 z"
     id="path467" />
  <path
     style="fill:#ffffff;fill-opacity:1;fill-rule:nonzero;stroke:none"
     d="m 299.99384,18.875 h 16.927 V 0 h -16.927 z"
     id="path469" />
  <path
     style="fill:#0098c9;fill-opacity:1;fill-rule:nonzero;stroke:none"
     d="m 76.203843,116.985 c 3.511,0.073 4.468,-0.094 5.609,-0.178 5.766,-0.405 6.078,-1.656 6.015,-4.052 -0.093,-3.391 -0.473,-5.239 -6.719,-4.458 -4.738,0.589 -8.348,0.349 -8.348,0.349 -1.761,-0.631 -5.349,-0.396 -6.046,0.188 -1.172,0.994 -0.912,0.839 -1.47,2.172 -1.032,2.468 -0.276,3.4 0.719,4.057 0.989,0.656 1.995,0.906 4.776,1.312 2.156,0.317 5.464,0.61 5.464,0.61"
     id="path470" />
  <path
     style="fill:none;stroke:#231f20;stroke-width:0.565977;stroke-linecap:butt;stroke-linejoin:miter;stroke-miterlimit:4;stroke-dasharray:none;stroke-opacity:1"
     d="m 76.203843,116.985 c 3.511,0.073 4.468,-0.094 5.609,-0.178 5.766,-0.405 6.078,-1.656 6.015,-4.052 -0.093,-3.391 -0.473,-5.239 -6.719,-4.458 -4.738,0.589 -8.348,0.349 -8.348,0.349 -1.761,-0.631 -5.349,-0.396 -6.046,0.188 -1.172,0.994 -0.912,0.839 -1.47,2.172 -1.032,2.468 -0.276,3.4 0.719,4.057 0.989,0.656 1.995,0.906 4.776,1.312 2.156,0.317 5.464,0.61 5.464,0.61 z"
     id="path471" />
  <path
     style="fill:#231f20;fill-opacity:1;fill-rule:nonzero;stroke:none"
     d="m 67.526843,80.203 c 1.344,0.151 1.588,1.11 1.14,2.042 -0.13,0.281 0.042,0.661 -0.11,0.922 -0.358,0.604 -2.062,0.984 -2.738,-0.349 -0.048,-0.099 -0.62,-0.688 -0.98,-1.192 -0.703,-0.991 -1.626,-3.303 -0.542,-5.776 0.516,-1.168 1.11,-0.647 1.047,-0.115 -0.203,1.703 0.109,1.891 0.213,2.359 0.366,1.584 1.97,2.109 1.97,2.109"
     id="path472" />
  <path
     style="fill:none;stroke:#231f20;stroke-width:0.332927;stroke-linecap:butt;stroke-linejoin:miter;stroke-miterlimit:4;stroke-dasharray:none;stroke-opacity:1"
     d="m 67.526843,80.203 c 1.344,0.151 1.588,1.11 1.14,2.042 -0.13,0.281 0.042,0.661 -0.11,0.922 -0.358,0.604 -2.062,0.984 -2.738,-0.349 -0.048,-0.099 -0.62,-0.688 -0.98,-1.192 -0.703,-0.991 -1.626,-3.303 -0.542,-5.776 0.516,-1.168 1.11,-0.647 1.047,-0.115 -0.203,1.703 0.109,1.891 0.213,2.359 0.366,1.584 1.97,2.109 1.97,2.109 z"
     id="path473" />
  <path
     style="fill:#231f20;fill-opacity:1;fill-rule:nonzero;stroke:none"
     d="m 75.728843,97.063 c 2.079,-0.901 2.36,-1.354 2.038,-2.256 -0.215,-0.604 -0.21,-1.238 -0.319,-1.604 -0.38,-1.244 -1.525,-3.177 -6.208,-7.806 -1.063,-1.048 -2.541,-2.527 -3.099,-3.188 -0.88,-1.031 -1.994,1.13 -1.656,1.541 1.099,1.319 1.739,2.308 2.072,2.838 0.224,0.366 0.71,0.949 1.407,2.464 1.052,2.302 1.339,3.834 2.437,5.641 0.506,0.844 0.355,1.792 1.282,2.359 0.917,0.583 2.046,0.011 2.046,0.011"
     id="path474" />
  <path
     style="fill:none;stroke:#231f20;stroke-width:0.565977;stroke-linecap:butt;stroke-linejoin:miter;stroke-miterlimit:4;stroke-dasharray:none;stroke-opacity:1"
     d="m 75.728843,97.063 c 2.079,-0.901 2.36,-1.354 2.038,-2.256 -0.215,-0.604 -0.21,-1.238 -0.319,-1.604 -0.38,-1.244 -1.525,-3.177 -6.208,-7.806 -1.063,-1.048 -2.541,-2.527 -3.099,-3.188 -0.88,-1.031 -1.994,1.13 -1.656,1.541 1.099,1.319 1.739,2.308 2.072,2.838 0.224,0.366 0.71,0.949 1.407,2.464 1.052,2.302 1.339,3.834 2.437,5.641 0.506,0.844 0.355,1.792 1.282,2.359 0.917,0.583 2.046,0.011 2.046,0.011 z"
     id="path475" />
  <path
     style="fill:#ffffff;fill-opacity:1;fill-rule:nonzero;stroke:none"
     d="m 61.323843,105.787 c -0.209,-0.136 0.14,-1.229 -0.349,-1.423 -0.484,-0.197 -0.954,0.438 -2.938,0.563 h -0.021 c -1.459,0.042 -2.697002,0.661 -3.255002,1.782 -0.928,1.864 0.375,4.385 2.900002,5.64 2.532,1.261 5.33,0.772 6.251,-1.088 0.891,-1.776 -0.265,-4.173 -2.588,-5.474"
     id="path476" />
  <path
     style="fill:none;stroke:#231f20;stroke-width:0.565977;stroke-linecap:butt;stroke-linejoin:miter;stroke-miterlimit:4;stroke-dasharray:none;stroke-opacity:1"
     d="m 61.323843,105.787 c -0.209,-0.136 0.14,-1.229 -0.349,-1.423 -0.484,-0.197 -0.954,0.438 -2.938,0.563 h -0.021 c -1.459,0.042 -2.697002,0.661 -3.255002,1.782 -0.928,1.864 0.375,4.385 2.900002,5.64 2.532,1.261 5.33,0.772 6.251,-1.088 0.891,-1.776 -0.265,-4.173 -2.588,-5.474 z"
     id="path477" />
  <path
     style="fill:#231f20;fill-opacity:1;fill-rule:nonzero;stroke:none"
     d="m 75.291843,94.635 c -3.807,1.271 -0.911,4.147 -0.76,4.604 1.572,4.761 1.807,5.058 3.26,8.595 2.093,5.115 4.312,8.296 7.645,7.948 2.262,-0.24 3.459,-1.355 3.819,-2.62 0.391,-1.412 -0.265,-4.522 -2.975,-5.532 l -1.046,-1.354 c -0.588,-1.005 -0.886,-1.494 -1.14,-2.01 -0.438,-0.902 -0.959,-1.839 -1.912,-3.552 -1.692,-3.032 -4.468,-5.688 -4.468,-5.688 -0.631,-1.072 -2.423,-0.391 -2.423,-0.391"
     id="path478" />
  <path
     style="fill:none;stroke:#231f20;stroke-width:0.565977;stroke-linecap:butt;stroke-linejoin:miter;stroke-miterlimit:4;stroke-dasharray:none;stroke-opacity:1"
     d="m 75.291843,94.635 c -3.807,1.271 -0.911,4.147 -0.76,4.604 1.572,4.761 1.807,5.058 3.26,8.595 2.093,5.115 4.312,8.296 7.645,7.948 2.262,-0.24 3.459,-1.355 3.819,-2.62 0.391,-1.412 -0.265,-4.522 -2.975,-5.532 l -1.046,-1.354 c -0.588,-1.005 -0.886,-1.494 -1.14,-2.01 -0.438,-0.902 -0.959,-1.839 -1.912,-3.552 -1.692,-3.032 -4.468,-5.688 -4.468,-5.688 -0.631,-1.072 -2.423,-0.391 -2.423,-0.391 z"
     id="path479" />
  <path
     style="fill:#0098c9;fill-opacity:1;fill-rule:nonzero;stroke:none"
     d="m 85.572843,107.599 -6.521,4.307 c 0.396,0.527 0.792,0.991 1.183,1.422 0.036,0.074 0.068,0.146 0.084,0.214 0.213,0.776 0.785,1.036 1.749,1.417 1.281,0.88 2.604,1.214 4.027,0.817 2.186,-0.614 3.186,-1.912 3.322,-3.224 0.151,-1.448 -1.005,-4.417 -3.844,-4.953"
     id="path480" />
  <path
     style="fill:none;stroke:#231f20;stroke-width:0.565977;stroke-linecap:butt;stroke-linejoin:miter;stroke-miterlimit:4;stroke-dasharray:none;stroke-opacity:1"
     d="m 85.572843,107.599 -6.521,4.307 c 0.396,0.527 0.792,0.991 1.183,1.422 0.036,0.074 0.068,0.146 0.084,0.214 0.213,0.776 0.785,1.036 1.749,1.417 1.281,0.88 2.604,1.214 4.027,0.817 2.186,-0.614 3.186,-1.912 3.322,-3.224 0.151,-1.448 -1.005,-4.417 -3.844,-4.953 z"
     id="path481" />
  <path
     style="fill:#231f20;fill-opacity:1;fill-rule:nonzero;stroke:none"
     d="m 67.614843,91.938 c 0.39,0.516 0.265,2.459 0.792,3.979 0.349,1.026 0.098,3.761 0.526,4.761 0.391,0.91 0.484,1.369 -0.485,1.989 -0.572,0.37 -1.916,0.719 -2.213,0.296 -0.692,-0.963 -0.896,-1.89 -0.907,-2.957 -0.009,-1.214 0.256,-4.516 0.36,-5.12 0.271,-1.5 -0.084,-2.147 -0.047,-2.552 0.058,-0.761 0.364,-0.923 0.859,-0.989 0.953,-0.131 1.115,0.593 1.115,0.593"
     id="path482" />
  <path
     style="fill:none;stroke:#231f20;stroke-width:0.565977;stroke-linecap:butt;stroke-linejoin:miter;stroke-miterlimit:4;stroke-dasharray:none;stroke-opacity:1"
     d="m 67.614843,91.938 c 0.39,0.516 0.265,2.459 0.792,3.979 0.349,1.026 0.098,3.761 0.526,4.761 0.391,0.91 0.484,1.369 -0.485,1.989 -0.572,0.37 -1.916,0.719 -2.213,0.296 -0.692,-0.963 -0.896,-1.89 -0.907,-2.957 -0.009,-1.214 0.256,-4.516 0.36,-5.12 0.271,-1.5 -0.084,-2.147 -0.047,-2.552 0.058,-0.761 0.364,-0.923 0.859,-0.989 0.953,-0.131 1.115,0.593 1.115,0.593 z"
     id="path483" />
  <path
     style="fill:#231f20;fill-opacity:1;fill-rule:nonzero;stroke:none"
     d="m 68.327843,100.974 c 1.297,0.037 0.86,2.026 0.829,2.563 -0.037,0.546 0.042,2.098 0.26,3.302 0.214,1.208 -0.032,2.801 0.38,5.094 0.214,1.202 -0.338,2.51 -2.104,2.745 -1.74,0.233 -2.521,-0.657 -2.562,-2.152 -0.042,-1.5 0.557,-2.916 0.62,-4.432 0.068,-1.511 -0.006,-3.052 -0.12,-4.26 -0.136,-1.375 0.312,-2.104 0.734,-2.334 1.047,-0.567 1.963,-0.526 1.963,-0.526"
     id="path484" />
  <path
     style="fill:none;stroke:#231f20;stroke-width:0.565977;stroke-linecap:butt;stroke-linejoin:miter;stroke-miterlimit:4;stroke-dasharray:none;stroke-opacity:1"
     d="m 68.327843,100.974 c 1.297,0.037 0.86,2.026 0.829,2.563 -0.037,0.546 0.042,2.098 0.26,3.302 0.214,1.208 -0.032,2.801 0.38,5.094 0.214,1.202 -0.338,2.51 -2.104,2.745 -1.74,0.233 -2.521,-0.657 -2.562,-2.152 -0.042,-1.5 0.557,-2.916 0.62,-4.432 0.068,-1.511 -0.006,-3.052 -0.12,-4.26 -0.136,-1.375 0.312,-2.104 0.734,-2.334 1.047,-0.567 1.963,-0.526 1.963,-0.526 z"
     id="path485" />
  <path
     style="fill:#231f20;fill-opacity:1;fill-rule:nonzero;stroke:none"
     d="m 51.400841,146.115 c -1.317,0.282 -1.858,-0.552 -1.729,-1.578 0.037,-0.302 -0.244,-0.61 -0.181,-0.907 0.145,-0.687 1.64,-1.588 2.708,-0.531 0.072,0.074 0.806,0.448 1.301,0.817 0.98,0.719 2.595,2.626 2.339,5.314 -0.115,1.271 -0.848,0.962 -0.954,0.437 -0.342,-1.682 -0.697,-1.761 -0.952,-2.166 -0.844,-1.391 -2.532,-1.386 -2.532,-1.386"
     id="path486" />
  <path
     style="fill:none;stroke:#231f20;stroke-width:0.332927;stroke-linecap:butt;stroke-linejoin:miter;stroke-miterlimit:4;stroke-dasharray:none;stroke-opacity:1"
     d="m 51.400841,146.115 c -1.317,0.282 -1.858,-0.552 -1.729,-1.578 0.037,-0.302 -0.244,-0.61 -0.181,-0.907 0.145,-0.687 1.64,-1.588 2.708,-0.531 0.072,0.074 0.806,0.448 1.301,0.817 0.98,0.719 2.595,2.626 2.339,5.314 -0.115,1.271 -0.848,0.962 -0.954,0.437 -0.342,-1.682 -0.697,-1.761 -0.952,-2.166 -0.844,-1.391 -2.532,-1.386 -2.532,-1.386 z"
     id="path487" />
  <path
     style="fill:#231f20;fill-opacity:1;fill-rule:nonzero;stroke:none"
     d="m 38.286841,132.709 c -1.687,1.51 -1.807,2.036 -1.213,2.792 0.39,0.5 0.578,1.103 0.802,1.421 0.755,1.057 2.452,2.527 8.359,5.442 1.338,0.657 3.208,1.595 3.948,2.042 1.161,0.704 1.541,-1.703 1.088,-1.984 -1.458,-0.901 -2.38,-1.64 -2.864,-2.042 -0.334,-0.27 -0.974,-0.671 -2.115,-1.89 -1.724,-1.85 -2.479,-3.214 -4.093,-4.584 -0.751,-0.63 -0.901,-1.588 -1.959,-1.833 -1.057,-0.261 -1.953,0.636 -1.953,0.636"
     id="path488" />
  <path
     style="fill:none;stroke:#231f20;stroke-width:0.565977;stroke-linecap:butt;stroke-linejoin:miter;stroke-miterlimit:4;stroke-dasharray:none;stroke-opacity:1"
     d="m 38.286841,132.709 c -1.687,1.51 -1.807,2.036 -1.213,2.792 0.39,0.5 0.578,1.103 0.802,1.421 0.755,1.057 2.452,2.527 8.359,5.442 1.338,0.657 3.208,1.595 3.948,2.042 1.161,0.704 1.541,-1.703 1.088,-1.984 -1.458,-0.901 -2.38,-1.64 -2.864,-2.042 -0.334,-0.27 -0.974,-0.671 -2.115,-1.89 -1.724,-1.85 -2.479,-3.214 -4.093,-4.584 -0.751,-0.63 -0.901,-1.588 -1.959,-1.833 -1.057,-0.261 -1.953,0.636 -1.953,0.636 z"
     id="path489" />
  <path
     style="fill:#0098c9;fill-opacity:1;fill-rule:nonzero;stroke:none"
     d="m 17.187841,116.755 c 2,2.418 2.167,3.147 2.427,4.037 1.636,5.542 4.328,4.635 6.177,2.422 2.183,-2.593 3.022,-3.484 -1.432,-7.932 -1.245,-1.24 -5.38,-6.6 -5.38,-6.6 -1.213,-2.119 -3.542,-3.542 -4.989,-3.4 -1.532,0.151 -0.912,0.198 -2.303,0.593 -1.322,0.37 -2.838,1.953 -2.708,3.183 0.12,1.181 1.635,1.88 3.682,3.177 1.614,1.02 4.526,4.52 4.526,4.52"
     id="path490" />
  <path
     style="fill:none;stroke:#231f20;stroke-width:0.565977;stroke-linecap:butt;stroke-linejoin:miter;stroke-miterlimit:4;stroke-dasharray:none;stroke-opacity:1"
     d="m 17.187841,116.755 c 2,2.418 2.167,3.147 2.427,4.037 1.636,5.542 4.328,4.635 6.177,2.422 2.183,-2.593 3.022,-3.484 -1.432,-7.932 -1.245,-1.24 -5.38,-6.6 -5.38,-6.6 -1.213,-2.119 -3.542,-3.542 -4.989,-3.4 -1.532,0.151 -0.912,0.198 -2.303,0.593 -1.322,0.37 -2.838,1.953 -2.708,3.183 0.12,1.181 1.635,1.88 3.682,3.177 1.614,1.02 4.526,4.52 4.526,4.52 z"
     id="path491" />
  <path
     style="fill:#ffffff;fill-opacity:1;fill-rule:nonzero;stroke:none"
     d="m 13.885841,99.839 c -0.02,-0.251 1.062,-0.625 0.928,-1.136 -0.142,-0.505 -0.928,-0.494 -2.219,-2.01 l -0.016,-0.015 c -0.907,-1.136 -2.145,-1.756 -3.385,-1.527 -2.042,0.38 -3.276,2.943 -2.756,5.713 0.516,2.782 2.589,4.719 4.636,4.339 1.948,-0.358 3.166,-2.723 2.812,-5.364"
     id="path492" />
  <path
     style="fill:none;stroke:#231f20;stroke-width:0.565977;stroke-linecap:butt;stroke-linejoin:miter;stroke-miterlimit:4;stroke-dasharray:none;stroke-opacity:1"
     d="m 13.885841,99.839 c -0.02,-0.251 1.062,-0.625 0.928,-1.136 -0.142,-0.505 -0.928,-0.494 -2.219,-2.01 l -0.016,-0.015 c -0.907,-1.136 -2.145,-1.756 -3.385,-1.527 -2.042,0.38 -3.276,2.943 -2.756,5.713 0.516,2.782 2.589,4.719 4.636,4.339 1.948,-0.358 3.166,-2.723 2.812,-5.364 z"
     id="path493" />
  <path
     style="fill:#231f20;fill-opacity:1;fill-rule:nonzero;stroke:none"
     d="m 39.474841,134.88 c 3.208,-2.417 -0.448,-4.229 -0.735,-4.609 -2.994,-4.016 -3.312,-4.234 -5.806,-7.131 -3.61,-4.186 -6.72,-6.5 -9.772,-5.125 -2.067,0.948 -2.854,2.387 -2.791,3.699 0.077,1.459 1.677,4.208 4.567,4.307 l 1.422,0.953 c 0.88,0.765 1.312,1.136 1.714,1.547 0.702,0.718 1.494,1.448 2.937,2.766 2.563,2.343 6.037,3.984 6.037,3.984 0.938,0.823 2.427,-0.391 2.427,-0.391"
     id="path494" />
  <path
     style="fill:none;stroke:#231f20;stroke-width:0.565977;stroke-linecap:butt;stroke-linejoin:miter;stroke-miterlimit:4;stroke-dasharray:none;stroke-opacity:1"
     d="m 39.474841,134.88 c 3.208,-2.417 -0.448,-4.229 -0.735,-4.609 -2.994,-4.016 -3.312,-4.234 -5.806,-7.131 -3.61,-4.186 -6.72,-6.5 -9.772,-5.125 -2.067,0.948 -2.854,2.387 -2.791,3.699 0.077,1.459 1.677,4.208 4.567,4.307 l 1.422,0.953 c 0.88,0.765 1.312,1.136 1.714,1.547 0.702,0.718 1.494,1.448 2.937,2.766 2.563,2.343 6.037,3.984 6.037,3.984 0.938,0.823 2.427,-0.391 2.427,-0.391 z"
     id="path495" />
  <path
     style="fill:#0098c9;fill-opacity:1;fill-rule:nonzero;stroke:none"
     d="m 28.875841,118.703 c -0.057,-0.057 -0.105,-0.12 -0.146,-0.177 -0.448,-0.672 -1.072,-0.734 -2.11,-0.791 -1.494,-0.428 -2.853,-0.329 -4.077,0.5 -1.881,1.266 -2.423,2.817 -2.136,4.104 0.317,1.427 2.355,3.87 5.219,3.489 l 4.822,-6.15 c -0.541,-0.376 -1.062,-0.688 -1.572,-0.975"
     id="path496" />
  <path
     style="fill:none;stroke:#231f20;stroke-width:0.565977;stroke-linecap:butt;stroke-linejoin:miter;stroke-miterlimit:4;stroke-dasharray:none;stroke-opacity:1"
     d="m 28.875841,118.703 c -0.057,-0.057 -0.105,-0.12 -0.146,-0.177 -0.448,-0.672 -1.072,-0.734 -2.11,-0.791 -1.494,-0.428 -2.853,-0.329 -4.077,0.5 -1.881,1.266 -2.423,2.817 -2.136,4.104 0.317,1.427 2.355,3.87 5.219,3.489 l 4.822,-6.15 c -0.541,-0.376 -1.062,-0.688 -1.572,-0.975 z"
     id="path497" />
  <path
     style="fill:#231f20;fill-opacity:1;fill-rule:nonzero;stroke:none"
     d="m 3.739841,90.334 c 0.574,0.301 1.271,2.12 2.375,3.287 0.745,0.785 1.656,3.374 2.464,4.104 0.735,0.666 1.016,1.041 0.391,2.01 -0.37,0.578 -1.448,1.448 -1.891,1.198 -1.031,-0.594 -1.599,-1.35 -2.052,-2.318 -0.516,-1.104 -1.656,-4.209 -1.808,-4.802 -0.38,-1.474 -0.973,-1.922 -1.109,-2.296 -0.266,-0.72 -0.052,-0.996 0.37,-1.267 0.812,-0.511 1.26,0.084 1.26,0.084"
     id="path498" />
  <path
     style="fill:none;stroke:#231f20;stroke-width:0.565977;stroke-linecap:butt;stroke-linejoin:miter;stroke-miterlimit:4;stroke-dasharray:none;stroke-opacity:1"
     d="m 3.739841,90.334 c 0.574,0.301 1.271,2.12 2.375,3.287 0.745,0.785 1.656,3.374 2.464,4.104 0.735,0.666 1.016,1.041 0.391,2.01 -0.37,0.578 -1.448,1.448 -1.891,1.198 -1.031,-0.594 -1.599,-1.35 -2.052,-2.318 -0.516,-1.104 -1.656,-4.209 -1.808,-4.802 -0.38,-1.474 -0.973,-1.922 -1.109,-2.296 -0.266,-0.72 -0.052,-0.996 0.37,-1.267 0.812,-0.511 1.26,0.084 1.26,0.084 z"
     id="path499" />
  <path
     style="fill:#231f20;fill-opacity:1;fill-rule:nonzero;stroke:none"
     d="m 8.151841,98.245 c 1.192,-0.506 1.63,1.49 1.823,1.99 0.192,0.51 0.916,1.891 1.615,2.891 0.692,1.009 1.134,2.561 2.462,4.473 0.694,1.005 0.735,2.427 -0.765,3.375 -1.484,0.932 -2.568,0.453 -3.229,-0.891 -0.662,-1.344 -0.708,-2.885 -1.282,-4.286 -0.566,-1.4 -1.281,-2.771 -1.885,-3.828 -0.692,-1.193 -0.593,-2.042 -0.307,-2.422 0.719,-0.959 1.568,-1.302 1.568,-1.302"
     id="path500" />
  <path
     style="fill:none;stroke:#231f20;stroke-width:0.565977;stroke-linecap:butt;stroke-linejoin:miter;stroke-miterlimit:4;stroke-dasharray:none;stroke-opacity:1"
     d="m 8.151841,98.245 c 1.192,-0.506 1.63,1.49 1.823,1.99 0.192,0.51 0.916,1.891 1.615,2.891 0.692,1.009 1.134,2.561 2.462,4.473 0.694,1.005 0.735,2.427 -0.765,3.375 -1.484,0.932 -2.568,0.453 -3.229,-0.891 -0.662,-1.344 -0.708,-2.885 -1.282,-4.286 -0.566,-1.4 -1.281,-2.771 -1.885,-3.828 -0.692,-1.193 -0.593,-2.042 -0.307,-2.422 0.719,-0.959 1.568,-1.302 1.568,-1.302 z"
     id="path501" />
  <path
     style="fill:#ffffff;fill-opacity:1;fill-rule:nonzero;stroke:none"
     d="m 206.60384,87.698 c -0.968,-0.328 -2.026,0.199 -2.354,1.172 -0.328,0.975 0.198,2.032 1.172,2.355 0.974,0.327 2.031,-0.199 2.359,-1.173 0.323,-0.974 -0.203,-2.026 -1.177,-2.354"
     id="path502" />
  <path
     style="fill:none;stroke:#231f20;stroke-width:1.33171;stroke-linecap:butt;stroke-linejoin:miter;stroke-miterlimit:4;stroke-dasharray:none;stroke-opacity:1"
     d="m 206.60384,87.698 c -0.968,-0.328 -2.026,0.199 -2.354,1.172 -0.328,0.975 0.198,2.032 1.172,2.355 0.974,0.327 2.031,-0.199 2.359,-1.173 0.323,-0.974 -0.203,-2.026 -1.177,-2.354 z"
     id="path503" />
  <path
     style="fill:#231f20;fill-opacity:1;fill-rule:nonzero;stroke:none"
     d="m 169.22384,94.963 c -0.703,1.158 -1.677,0.97 -2.339,0.167 -0.197,-0.239 -0.609,-0.244 -0.781,-0.489 -0.395,-0.583 -0.02,-2.282 1.48,-2.334 0.109,0 0.885,-0.27 1.489,-0.38 1.194,-0.218 3.683,-0.073 5.459,1.959 0.844,0.959 0.12,1.281 -0.333,0.995 -1.454,-0.907 -1.762,-0.703 -2.23,-0.803 -1.588,-0.343 -2.745,0.885 -2.745,0.885"
     id="path504" />
  <path
     style="fill:none;stroke:#231f20;stroke-width:0.332927;stroke-linecap:butt;stroke-linejoin:miter;stroke-miterlimit:4;stroke-dasharray:none;stroke-opacity:1"
     d="m 169.22384,94.963 c -0.703,1.158 -1.677,0.97 -2.339,0.167 -0.197,-0.239 -0.609,-0.244 -0.781,-0.489 -0.395,-0.583 -0.02,-2.282 1.48,-2.334 0.109,0 0.885,-0.27 1.489,-0.38 1.194,-0.218 3.683,-0.073 5.459,1.959 0.844,0.959 0.12,1.281 -0.333,0.995 -1.454,-0.907 -1.762,-0.703 -2.23,-0.803 -1.588,-0.343 -2.745,0.885 -2.745,0.885 z"
     id="path505" />
  <path
     style="fill:#231f20;fill-opacity:1;fill-rule:nonzero;stroke:none"
     d="m 150.47984,95.239 c -0.068,2.272 0.224,2.72 1.177,2.808 0.64,0.063 1.208,0.339 1.588,0.391 1.287,0.188 3.526,-0.036 9.698,-2.312 1.401,-0.516 3.37,-1.229 4.204,-1.453 1.306,-0.36 -0.178,-2.292 -0.694,-2.156 -1.656,0.437 -2.828,0.598 -3.448,0.67 -0.426,0.058 -1.161,0.246 -2.833,0.23 -2.52,-0.02 -4.031,-0.406 -6.135,-0.182 -0.98,0.104 -1.776,-0.438 -2.682,0.156 -0.912,0.589 -0.875,1.848 -0.875,1.848"
     id="path506" />
  <path
     style="fill:none;stroke:#231f20;stroke-width:0.565977;stroke-linecap:butt;stroke-linejoin:miter;stroke-miterlimit:4;stroke-dasharray:none;stroke-opacity:1"
     d="m 150.47984,95.239 c -0.068,2.272 0.224,2.72 1.177,2.808 0.64,0.063 1.208,0.339 1.588,0.391 1.287,0.188 3.526,-0.036 9.698,-2.312 1.401,-0.516 3.37,-1.229 4.204,-1.453 1.306,-0.36 -0.178,-2.292 -0.694,-2.156 -1.656,0.437 -2.828,0.598 -3.448,0.67 -0.426,0.058 -1.161,0.246 -2.833,0.23 -2.52,-0.02 -4.031,-0.406 -6.135,-0.182 -0.98,0.104 -1.776,-0.438 -2.682,0.156 -0.912,0.589 -0.875,1.848 -0.875,1.848 z"
     id="path507" />
  <path
     style="fill:#0098c9;fill-opacity:1;fill-rule:nonzero;stroke:none"
     d="m 124.69284,93.594 c 2.25,2.182 2.49,2.896 2.85,3.745 2.238,5.334 4.812,4.13 6.41,1.734 1.88,-2.818 2.615,-3.797 -2.296,-7.728 -1.37,-1.095 -6.068,-5.975 -6.068,-5.975 -1.442,-1.973 -3.912,-3.131 -5.333,-2.833 -1.505,0.317 -0.885,0.302 -2.224,0.844 -1.276,0.516 -2.609,2.249 -2.344,3.458 0.249,1.161 1.828,1.692 4.011,2.749 1.713,0.845 4.994,4.006 4.994,4.006"
     id="path508" />
  <path
     style="fill:none;stroke:#231f20;stroke-width:0.565977;stroke-linecap:butt;stroke-linejoin:miter;stroke-miterlimit:4;stroke-dasharray:none;stroke-opacity:1"
     d="m 124.69284,93.594 c 2.25,2.182 2.49,2.896 2.85,3.745 2.238,5.334 4.812,4.13 6.41,1.734 1.88,-2.818 2.615,-3.797 -2.296,-7.728 -1.37,-1.095 -6.068,-5.975 -6.068,-5.975 -1.442,-1.973 -3.912,-3.131 -5.333,-2.833 -1.505,0.317 -0.885,0.302 -2.224,0.844 -1.276,0.516 -2.609,2.249 -2.344,3.458 0.249,1.161 1.828,1.692 4.011,2.749 1.713,0.845 4.994,4.006 4.994,4.006 z"
     id="path509" />
  <path
     style="fill:#ffffff;fill-opacity:1;fill-rule:nonzero;stroke:none"
     d="m 116.04784,77.563 c -0.131,-0.209 0.656,-1.046 0.301,-1.433 -0.358,-0.385 -1.052,-0.015 -2.901,-0.76 l -0.015,-0.005 c -1.333,-0.588 -2.718,-0.563 -3.709,0.208 -1.635,1.281 -1.547,4.125 0.193,6.344 1.744,2.224 4.484,2.985 6.115,1.704 1.568,-1.219 1.552,-3.882 0.016,-6.058"
     id="path510" />
  <path
     style="fill:none;stroke:#231f20;stroke-width:0.565977;stroke-linecap:butt;stroke-linejoin:miter;stroke-miterlimit:4;stroke-dasharray:none;stroke-opacity:1"
     d="m 116.04784,77.563 c -0.131,-0.209 0.656,-1.046 0.301,-1.433 -0.358,-0.385 -1.052,-0.015 -2.901,-0.76 l -0.015,-0.005 c -1.333,-0.588 -2.718,-0.563 -3.709,0.208 -1.635,1.281 -1.547,4.125 0.193,6.344 1.744,2.224 4.484,2.985 6.115,1.704 1.568,-1.219 1.552,-3.882 0.016,-6.058 z"
     id="path511" />
  <path
     style="fill:#231f20;fill-opacity:1;fill-rule:nonzero;stroke:none"
     d="m 152.86484,95.875 c 0.459,-3.984 -3.374,-2.578 -3.849,-2.636 -4.979,-0.598 -5.349,-0.509 -9.167,-0.697 -5.521,-0.266 -9.344,0.396 -10.442,3.563 -0.74,2.145 -0.235,3.708 0.76,4.568 1.109,0.942 4.204,1.676 6.266,-0.35 l 1.671,-0.374 c 1.157,-0.11 1.729,-0.173 2.303,-0.178 1.005,-0.016 2.073,-0.093 4.026,-0.229 3.468,-0.245 7.047,-1.636 7.047,-1.636 1.244,-0.113 1.385,-2.031 1.385,-2.031"
     id="path512" />
  <path
     style="fill:none;stroke:#231f20;stroke-width:0.565977;stroke-linecap:butt;stroke-linejoin:miter;stroke-miterlimit:4;stroke-dasharray:none;stroke-opacity:1"
     d="m 152.86484,95.875 c 0.459,-3.984 -3.374,-2.578 -3.849,-2.636 -4.979,-0.598 -5.349,-0.509 -9.167,-0.697 -5.521,-0.266 -9.344,0.396 -10.442,3.563 -0.74,2.145 -0.235,3.708 0.76,4.568 1.109,0.942 4.204,1.676 6.266,-0.35 l 1.671,-0.374 c 1.157,-0.11 1.729,-0.173 2.303,-0.178 1.005,-0.016 2.073,-0.093 4.026,-0.229 3.468,-0.245 7.047,-1.636 7.047,-1.636 1.244,-0.113 1.385,-2.031 1.385,-2.031 z"
     id="path513" />
  <path
     style="fill:#0098c9;fill-opacity:1;fill-rule:nonzero;stroke:#231f20;stroke-width:0.565977;stroke-linecap:butt;stroke-linejoin:miter;stroke-miterlimit:4;stroke-dasharray:none;stroke-opacity:1"
     d="m 135.62484,91.963 c -0.64,0.136 -1.229,0.292 -1.786,0.47 -0.078,-0.006 -0.162,-0.006 -0.235,-0.016 -0.791,-0.141 -1.271,0.27 -2.031,0.985 -1.333,0.791 -2.192,1.843 -2.437,3.301 -0.369,2.235 0.38,3.688 1.511,4.37 1.244,0.755 4.426,0.958 6.12,-1.381 z"
     id="path514" />
  <path
     style="fill:#231f20;fill-opacity:1;fill-rule:nonzero;stroke:none"
     d="m 139.56284,90.151 c -0.572,0.298 -2.463,-0.171 -4.052,0.074 -1.074,0.166 -3.724,-0.568 -4.776,-0.319 -0.968,0.22 -1.438,0.235 -1.88,-0.833 -0.26,-0.624 -0.364,-2.01 0.098,-2.228 1.074,-0.511 2.022,-0.552 3.074,-0.371 1.202,0.208 4.401,1.047 4.978,1.256 1.428,0.531 2.131,0.296 2.522,0.4 0.734,0.199 0.844,0.527 0.822,1.027 -0.041,0.964 -0.786,0.994 -0.786,0.994"
     id="path515" />
  <path
     style="fill:none;stroke:#231f20;stroke-width:0.565977;stroke-linecap:butt;stroke-linejoin:miter;stroke-miterlimit:4;stroke-dasharray:none;stroke-opacity:1"
     d="m 139.56284,90.151 c -0.572,0.298 -2.463,-0.171 -4.052,0.074 -1.074,0.166 -3.724,-0.568 -4.776,-0.319 -0.968,0.22 -1.438,0.235 -1.88,-0.833 -0.26,-0.624 -0.364,-2.01 0.098,-2.228 1.074,-0.511 2.022,-0.552 3.074,-0.371 1.202,0.208 4.401,1.047 4.978,1.256 1.428,0.531 2.131,0.296 2.522,0.4 0.734,0.199 0.844,0.527 0.822,1.027 -0.041,0.964 -0.786,0.994 -0.786,0.994 z"
     id="path516" />
  <path
     style="fill:#231f20;fill-opacity:1;fill-rule:nonzero;stroke:none"
     d="m 130.54684,89.255 c -0.266,1.271 -2.151,0.49 -2.671,0.36 -0.532,-0.13 -2.079,-0.328 -3.297,-0.322 -1.224,-0.006 -2.755,-0.527 -5.079,-0.527 -1.224,0 -2.416,-0.776 -2.333,-2.552 0.078,-1.755 1.094,-2.369 2.573,-2.145 1.479,0.224 2.771,1.061 4.251,1.39 1.473,0.334 3.004,0.531 4.218,0.629 1.375,0.115 2.015,0.688 2.162,1.142 0.38,1.134 0.176,2.025 0.176,2.025"
     id="path517" />
  <path
     style="fill:none;stroke:#231f20;stroke-width:0.565977;stroke-linecap:butt;stroke-linejoin:miter;stroke-miterlimit:4;stroke-dasharray:none;stroke-opacity:1"
     d="m 130.54684,89.255 c -0.266,1.271 -2.151,0.49 -2.671,0.36 -0.532,-0.13 -2.079,-0.328 -3.297,-0.322 -1.224,-0.006 -2.755,-0.527 -5.079,-0.527 -1.224,0 -2.416,-0.776 -2.333,-2.552 0.078,-1.755 1.094,-2.369 2.573,-2.145 1.479,0.224 2.771,1.061 4.251,1.39 1.473,0.334 3.004,0.531 4.218,0.629 1.375,0.115 2.015,0.688 2.162,1.142 0.38,1.134 0.176,2.025 0.176,2.025 z"
     id="path518" />
  <path
     style="fill:#231f20;fill-opacity:1;fill-rule:nonzero;stroke:none"
     d="m 180.40084,111.812 c -0.568,-1.229 0.131,-1.932 1.161,-2.03 0.308,-0.037 0.542,-0.376 0.844,-0.376 0.703,-0.009 1.912,1.251 1.115,2.527 -0.057,0.088 -0.265,0.879 -0.516,1.447 -0.484,1.11 -1.989,3.099 -4.667,3.443 -1.27,0.162 -1.129,-0.62 -0.64,-0.833 1.568,-0.703 1.568,-1.074 1.911,-1.407 1.167,-1.124 0.792,-2.771 0.792,-2.771"
     id="path519" />
  <path
     style="fill:none;stroke:#231f20;stroke-width:0.332927;stroke-linecap:butt;stroke-linejoin:miter;stroke-miterlimit:4;stroke-dasharray:none;stroke-opacity:1"
     d="m 180.40084,111.812 c -0.568,-1.229 0.131,-1.932 1.161,-2.03 0.308,-0.037 0.542,-0.376 0.844,-0.376 0.703,-0.009 1.912,1.251 1.115,2.527 -0.057,0.088 -0.265,0.879 -0.516,1.447 -0.484,1.11 -1.989,3.099 -4.667,3.443 -1.27,0.162 -1.129,-0.62 -0.64,-0.833 1.568,-0.703 1.568,-1.074 1.911,-1.407 1.167,-1.124 0.792,-2.771 0.792,-2.771 z"
     id="path520" />
  <path
     style="fill:#231f20;fill-opacity:1;fill-rule:nonzero;stroke:none"
     d="m 190.61984,96.088 c -1.85,-1.317 -2.386,-1.322 -2.99,-0.577 -0.412,0.495 -0.953,0.812 -1.208,1.099 -0.876,0.963 -1.937,2.948 -3.489,9.339 -0.344,1.453 -0.855,3.484 -1.131,4.301 -0.426,1.287 2,1.13 2.172,0.625 0.563,-1.62 1.078,-2.683 1.37,-3.24 0.188,-0.38 0.437,-1.098 1.38,-2.473 1.428,-2.089 2.589,-3.125 3.573,-4.995 0.464,-0.875 1.36,-1.234 1.364,-2.317 0.027,-1.089 -1.041,-1.762 -1.041,-1.762"
     id="path521" />
  <path
     style="fill:none;stroke:#231f20;stroke-width:0.565977;stroke-linecap:butt;stroke-linejoin:miter;stroke-miterlimit:4;stroke-dasharray:none;stroke-opacity:1"
     d="m 190.61984,96.088 c -1.85,-1.317 -2.386,-1.322 -2.99,-0.577 -0.412,0.495 -0.953,0.812 -1.208,1.099 -0.876,0.963 -1.937,2.948 -3.489,9.339 -0.344,1.453 -0.855,3.484 -1.131,4.301 -0.426,1.287 2,1.13 2.172,0.625 0.563,-1.62 1.078,-2.683 1.37,-3.24 0.188,-0.38 0.437,-1.098 1.38,-2.473 1.428,-2.089 2.589,-3.125 3.573,-4.995 0.464,-0.875 1.36,-1.234 1.364,-2.317 0.027,-1.089 -1.041,-1.762 -1.041,-1.762 z"
     id="path522" />
  <path
     style="fill:#0098c9;fill-opacity:1;fill-rule:nonzero;stroke:none"
     d="m 202.11984,72.61 c -2.099,2.328 -2.802,2.599 -3.64,2.984 -5.246,2.432 -3.954,4.959 -1.5,6.469 2.885,1.782 3.885,2.479 7.64,-2.578 1.041,-1.407 5.745,-6.276 5.745,-6.276 1.927,-1.516 2.989,-4.022 2.64,-5.438 -0.369,-1.489 -0.328,-0.869 -0.921,-2.188 -0.563,-1.254 -2.344,-2.525 -3.542,-2.213 -1.152,0.287 -1.625,1.885 -2.605,4.104 -0.776,1.745 -3.817,5.136 -3.817,5.136"
     id="path523" />
  <path
     style="fill:none;stroke:#231f20;stroke-width:0.565977;stroke-linecap:butt;stroke-linejoin:miter;stroke-miterlimit:4;stroke-dasharray:none;stroke-opacity:1"
     d="m 202.11984,72.61 c -2.099,2.328 -2.802,2.599 -3.64,2.984 -5.246,2.432 -3.954,4.959 -1.5,6.469 2.885,1.782 3.885,2.479 7.64,-2.578 1.041,-1.407 5.745,-6.276 5.745,-6.276 1.927,-1.516 2.989,-4.022 2.64,-5.438 -0.369,-1.489 -0.328,-0.869 -0.921,-2.188 -0.563,-1.254 -2.344,-2.525 -3.542,-2.213 -1.152,0.287 -1.625,1.885 -2.605,4.104 -0.776,1.745 -3.817,5.136 -3.817,5.136 z"
     id="path524" />
  <path
     style="fill:#ffffff;fill-opacity:1;fill-rule:nonzero;stroke:none"
     d="m 217.82784,63.391 c 0.204,-0.141 1.068,0.615 1.442,0.25 0.371,-0.375 -0.025,-1.052 0.652,-2.927 l 0.006,-0.016 c 0.536,-1.353 0.462,-2.739 -0.35,-3.697 -1.333,-1.59 -4.166,-1.396 -6.328,0.426 -2.161,1.818 -2.817,4.579 -1.48,6.167 1.278,1.521 3.939,1.412 6.058,-0.203"
     id="path525" />
  <path
     style="fill:none;stroke:#231f20;stroke-width:0.565977;stroke-linecap:butt;stroke-linejoin:miter;stroke-miterlimit:4;stroke-dasharray:none;stroke-opacity:1"
     d="m 217.82784,63.391 c 0.204,-0.141 1.068,0.615 1.442,0.25 0.371,-0.375 -0.025,-1.052 0.652,-2.927 l 0.006,-0.016 c 0.536,-1.353 0.462,-2.739 -0.35,-3.697 -1.333,-1.59 -4.166,-1.396 -6.328,0.426 -2.161,1.818 -2.817,4.579 -1.48,6.167 1.278,1.521 3.939,1.412 6.058,-0.203 z"
     id="path526" />
  <path
     style="fill:#231f20;fill-opacity:1;fill-rule:nonzero;stroke:none"
     d="m 188.76084,97.719 c 3.052,2.604 4.02,-1.365 4.333,-1.724 3.271,-3.802 3.4,-4.156 5.687,-7.224 3.303,-4.437 4.88,-7.984 2.865,-10.656 -1.37,-1.813 -2.953,-2.261 -4.224,-1.917 -1.401,0.396 -3.729,2.557 -3.198,5.396 l -0.615,1.599 c -0.557,1.021 -0.828,1.532 -1.14,2.016 -0.547,0.838 -1.079,1.771 -2.052,3.469 -1.735,3.015 -2.573,6.765 -2.573,6.765 -0.594,1.094 0.917,2.276 0.917,2.276"
     id="path527" />
  <path
     style="fill:none;stroke:#231f20;stroke-width:0.565977;stroke-linecap:butt;stroke-linejoin:miter;stroke-miterlimit:4;stroke-dasharray:none;stroke-opacity:1"
     d="m 188.76084,97.719 c 3.052,2.604 4.02,-1.365 4.333,-1.724 3.271,-3.802 3.4,-4.156 5.687,-7.224 3.303,-4.437 4.88,-7.984 2.865,-10.656 -1.37,-1.813 -2.953,-2.261 -4.224,-1.917 -1.401,0.396 -3.729,2.557 -3.198,5.396 l -0.615,1.599 c -0.557,1.021 -0.828,1.532 -1.14,2.016 -0.547,0.838 -1.079,1.771 -2.052,3.469 -1.735,3.015 -2.573,6.765 -2.573,6.765 -0.594,1.094 0.917,2.276 0.917,2.276 z"
     id="path528" />
  <path
     style="fill:#0098c9;fill-opacity:1;fill-rule:nonzero;stroke:none"
     d="m 202.67684,81.422 c 0.089,-1.552 -0.307,-2.853 -1.38,-3.864 -1.645,-1.557 -3.276,-1.745 -4.473,-1.183 -1.319,0.615 -3.262,3.142 -2.262,5.85 l 7.052,3.363 c 0.246,-0.609 0.438,-1.186 0.61,-1.749 0.042,-0.062 0.094,-0.13 0.141,-0.182 0.563,-0.584 0.484,-1.208 0.312,-2.235"
     id="path529" />
  <path
     style="fill:none;stroke:#231f20;stroke-width:0.565977;stroke-linecap:butt;stroke-linejoin:miter;stroke-miterlimit:4;stroke-dasharray:none;stroke-opacity:1"
     d="m 202.67684,81.422 c 0.089,-1.552 -0.307,-2.853 -1.38,-3.864 -1.645,-1.557 -3.276,-1.745 -4.473,-1.183 -1.319,0.615 -3.262,3.142 -2.262,5.85 l 7.052,3.363 c 0.246,-0.609 0.438,-1.186 0.61,-1.749 0.042,-0.062 0.094,-0.13 0.141,-0.182 0.563,-0.584 0.484,-1.208 0.312,-2.235 z"
     id="path530" />
  <path
     style="fill:#231f20;fill-opacity:1;fill-rule:nonzero;stroke:none"
     d="m 205.00484,87.105 c -0.276,-0.584 0.265,-2.454 0.084,-4.052 -0.125,-1.079 0.703,-3.699 0.495,-4.766 -0.183,-0.969 -0.178,-1.437 0.901,-1.838 0.64,-0.24 2.025,-0.292 2.224,0.181 0.473,1.095 0.473,2.037 0.255,3.084 -0.25,1.192 -1.214,4.359 -1.443,4.927 -0.588,1.406 -0.38,2.114 -0.495,2.505 -0.224,0.724 -0.557,0.823 -1.057,0.781 -0.959,-0.077 -0.964,-0.822 -0.964,-0.822"
     id="path531" />
  <path
     style="fill:none;stroke:#231f20;stroke-width:0.565977;stroke-linecap:butt;stroke-linejoin:miter;stroke-miterlimit:4;stroke-dasharray:none;stroke-opacity:1"
     d="m 205.00484,87.105 c -0.276,-0.584 0.265,-2.454 0.084,-4.052 -0.125,-1.079 0.703,-3.699 0.495,-4.766 -0.183,-0.969 -0.178,-1.437 0.901,-1.838 0.64,-0.24 2.025,-0.292 2.224,0.181 0.473,1.095 0.473,2.037 0.255,3.084 -0.25,1.192 -1.214,4.359 -1.443,4.927 -0.588,1.406 -0.38,2.114 -0.495,2.505 -0.224,0.724 -0.557,0.823 -1.057,0.781 -0.959,-0.077 -0.964,-0.822 -0.964,-0.822 z"
     id="path532" />
  <path
     style="fill:#231f20;fill-opacity:1;fill-rule:nonzero;stroke:none"
     d="m 206.23984,78.13 c -1.255,-0.312 -0.407,-2.167 -0.26,-2.687 0.15,-0.526 0.405,-2.057 0.453,-3.281 0.047,-1.219 0.624,-2.729 0.719,-5.052 0.046,-1.224 0.869,-2.385 2.634,-2.235 1.756,0.14 2.328,1.183 2.047,2.651 -0.281,1.469 -1.167,2.729 -1.552,4.193 -0.385,1.464 -0.64,2.984 -0.791,4.192 -0.166,1.371 -0.756,1.991 -1.214,2.12 -1.151,0.334 -2.036,0.099 -2.036,0.099"
     id="path533" />
  <path
     style="fill:none;stroke:#231f20;stroke-width:0.565977;stroke-linecap:butt;stroke-linejoin:miter;stroke-miterlimit:4;stroke-dasharray:none;stroke-opacity:1"
     d="m 206.23984,78.13 c -1.255,-0.312 -0.407,-2.167 -0.26,-2.687 0.15,-0.526 0.405,-2.057 0.453,-3.281 0.047,-1.219 0.624,-2.729 0.719,-5.052 0.046,-1.224 0.869,-2.385 2.634,-2.235 1.756,0.14 2.328,1.183 2.047,2.651 -0.281,1.469 -1.167,2.729 -1.552,4.193 -0.385,1.464 -0.64,2.984 -0.791,4.192 -0.166,1.371 -0.756,1.991 -1.214,2.12 -1.151,0.334 -2.036,0.099 -2.036,0.099 z"
     id="path534" />
  <path
     style="fill:#ffffff;fill-opacity:1;fill-rule:nonzero;stroke:none"
     d="m 141.81284,87.698 c -0.969,-0.328 -2.026,0.199 -2.354,1.172 -0.328,0.975 0.198,2.032 1.172,2.355 0.973,0.327 2.03,-0.199 2.354,-1.173 0.328,-0.974 -0.198,-2.026 -1.172,-2.354"
     id="path535" />
  <path
     style="fill:none;stroke:#231f20;stroke-width:1.33171;stroke-linecap:butt;stroke-linejoin:miter;stroke-miterlimit:4;stroke-dasharray:none;stroke-opacity:1"
     d="m 141.81284,87.698 c -0.969,-0.328 -2.026,0.199 -2.354,1.172 -0.328,0.975 0.198,2.032 1.172,2.355 0.973,0.327 2.03,-0.199 2.354,-1.173 0.328,-0.974 -0.198,-2.026 -1.172,-2.354 z"
     id="path536" />
  <path
     style="fill:#ffffff;fill-opacity:1;fill-rule:nonzero;stroke:none"
     d="m 66.911843,87.698 c -0.975,-0.328 -2.027,0.199 -2.355,1.172 -0.328,0.975 0.199,2.032 1.172,2.355 0.975,0.327 2.032,-0.199 2.355,-1.173 0.328,-0.974 -0.199,-2.026 -1.172,-2.354"
     id="path537" />
  <path
     style="fill:none;stroke:#231f20;stroke-width:1.33171;stroke-linecap:butt;stroke-linejoin:miter;stroke-miterlimit:4;stroke-dasharray:none;stroke-opacity:1"
     d="m 66.911843,87.698 c -0.975,-0.328 -2.027,0.199 -2.355,1.172 -0.328,0.975 0.199,2.032 1.172,2.355 0.975,0.327 2.032,-0.199 2.355,-1.173 0.328,-0.974 -0.199,-2.026 -1.172,-2.354 z"
     id="path538" />
  <path
     style="fill:#ffffff;fill-opacity:1;fill-rule:nonzero;stroke:none"
     d="m 3.114841,87.698 c -0.968,-0.328 -2.025,0.199 -2.35299997,1.172 -0.328,0.975 0.197,2.032 1.17599997,2.355 0.969,0.327 2.026,-0.199 2.354,-1.173 0.323,-0.974 -0.202,-2.026 -1.177,-2.354"
     id="path539" />
  <path
     style="fill:none;stroke:#231f20;stroke-width:1.33171;stroke-linecap:butt;stroke-linejoin:miter;stroke-miterlimit:4;stroke-dasharray:none;stroke-opacity:1"
     d="m 3.114841,87.698 c -0.968,-0.328 -2.025,0.199 -2.35299997,1.172 -0.328,0.975 0.197,2.032 1.17599997,2.355 0.969,0.327 2.026,-0.199 2.354,-1.173 0.323,-0.974 -0.202,-2.026 -1.177,-2.354 z"
     id="path540" />
  <path
     style="fill:#231f20;fill-opacity:1;fill-rule:nonzero;stroke:none"
     d="m 284.15184,13.433 c 1.02,0.891 0.672,1.823 -0.23,2.333 -0.265,0.156 -0.344,0.563 -0.614,0.694 -0.642,0.29 -2.256,-0.366 -2.047,-1.855 0.015,-0.099 -0.12,-0.907 -0.125,-1.532 -0.016,-1.219 0.546,-3.645 2.844,-5.052 1.093,-0.672 1.286,0.1 0.926,0.5 -1.136,1.276 -0.989,1.615 -1.166,2.057 -0.599,1.511 0.412,2.855 0.412,2.855"
     id="path541" />
  <path
     style="fill:none;stroke:#231f20;stroke-width:0.332927;stroke-linecap:butt;stroke-linejoin:miter;stroke-miterlimit:4;stroke-dasharray:none;stroke-opacity:1"
     d="m 284.15184,13.433 c 1.02,0.891 0.672,1.823 -0.23,2.333 -0.265,0.156 -0.344,0.563 -0.614,0.694 -0.642,0.29 -2.256,-0.366 -2.047,-1.855 0.015,-0.099 -0.12,-0.907 -0.125,-1.532 -0.016,-1.219 0.546,-3.645 2.844,-5.052 1.093,-0.672 1.286,0.1 0.926,0.5 -1.136,1.276 -0.989,1.615 -1.166,2.057 -0.599,1.511 0.412,2.855 0.412,2.855 z"
     id="path542" />
  <path
     style="fill:#231f20;fill-opacity:1;fill-rule:nonzero;stroke:none"
     d="m 281.27584,31.963 c 2.224,0.443 2.714,0.235 2.964,-0.692 0.166,-0.614 0.53,-1.13 0.65,-1.5 0.402,-1.24 0.558,-3.478 -0.645,-9.942 -0.281,-1.475 -0.651,-3.536 -0.729,-4.391 -0.135,-1.349 -2.292,-0.218 -2.24,0.312 0.146,1.714 0.114,2.891 0.078,3.521 -0.016,0.427 0.047,1.183 -0.25,2.818 -0.447,2.494 -1.083,3.912 -1.208,6.026 -0.063,0.979 -0.735,1.682 -0.296,2.672 0.421,1 1.676,1.176 1.676,1.176"
     id="path543" />
  <path
     style="fill:none;stroke:#231f20;stroke-width:0.565977;stroke-linecap:butt;stroke-linejoin:miter;stroke-miterlimit:4;stroke-dasharray:none;stroke-opacity:1"
     d="m 281.27584,31.963 c 2.224,0.443 2.714,0.235 2.964,-0.692 0.166,-0.614 0.53,-1.13 0.65,-1.5 0.402,-1.24 0.558,-3.478 -0.645,-9.942 -0.281,-1.475 -0.651,-3.536 -0.729,-4.391 -0.135,-1.349 -2.292,-0.218 -2.24,0.312 0.146,1.714 0.114,2.891 0.078,3.521 -0.016,0.427 0.047,1.183 -0.25,2.818 -0.447,2.494 -1.083,3.912 -1.208,6.026 -0.063,0.979 -0.735,1.682 -0.296,2.672 0.421,1 1.676,1.176 1.676,1.176 z"
     id="path544" />
  <path
     style="fill:#0098c9;fill-opacity:1;fill-rule:nonzero;stroke:none"
     d="m 282.78084,57.755 c 0.136,-3.129 0.505,-3.792 0.907,-4.62 2.494,-5.213 -0.11,-6.342 -2.97,-5.942 -3.353,0.464 -4.572,0.568 -4.244,6.854 0.094,1.746 -0.432,8.5 -0.432,8.5 -0.521,2.391 0.255,5 1.427,5.87 1.229,0.917 0.807,0.464 2.104,1.104 1.235,0.609 3.412,0.448 4.141,-0.547 0.703,-0.959 0.047,-2.495 -0.61,-4.828 -0.51,-1.844 -0.323,-6.391 -0.323,-6.391"
     id="path545" />
  <path
     style="fill:none;stroke:#231f20;stroke-width:0.565977;stroke-linecap:butt;stroke-linejoin:miter;stroke-miterlimit:4;stroke-dasharray:none;stroke-opacity:1"
     d="m 282.78084,57.755 c 0.136,-3.129 0.505,-3.792 0.907,-4.62 2.494,-5.213 -0.11,-6.342 -2.97,-5.942 -3.353,0.464 -4.572,0.568 -4.244,6.854 0.094,1.746 -0.432,8.5 -0.432,8.5 -0.521,2.391 0.255,5 1.427,5.87 1.229,0.917 0.807,0.464 2.104,1.104 1.235,0.609 3.412,0.448 4.141,-0.547 0.703,-0.959 0.047,-2.495 -0.61,-4.828 -0.51,-1.844 -0.323,-6.391 -0.323,-6.391 z"
     id="path546" />
  <path
     style="fill:#ffffff;fill-opacity:1;fill-rule:nonzero;stroke:none"
     d="m 279.31784,76.193 c 0.015,0.245 -1.078,0.604 -0.953,1.114 0.135,0.511 0.921,0.516 2.181,2.052 l 0.016,0.016 c 0.886,1.156 2.12,1.792 3.355,1.584 2.052,-0.344 3.328,-2.876 2.864,-5.662 -0.468,-2.786 -2.511,-4.766 -4.557,-4.422 -1.958,0.328 -3.219,2.672 -2.906,5.318"
     id="path547" />
  <path
     style="fill:none;stroke:#231f20;stroke-width:0.565977;stroke-linecap:butt;stroke-linejoin:miter;stroke-miterlimit:4;stroke-dasharray:none;stroke-opacity:1"
     d="m 279.31784,76.193 c 0.015,0.245 -1.078,0.604 -0.953,1.114 0.135,0.511 0.921,0.516 2.181,2.052 l 0.016,0.016 c 0.886,1.156 2.12,1.792 3.355,1.584 2.052,-0.344 3.328,-2.876 2.864,-5.662 -0.468,-2.786 -2.511,-4.766 -4.557,-4.422 -1.958,0.328 -3.219,2.672 -2.906,5.318 z"
     id="path548" />
  <path
     style="fill:#231f20;fill-opacity:1;fill-rule:nonzero;stroke:none"
     d="m 282.30184,29.714 c -3.849,-1.12 -3.114,2.896 -3.25,3.355 -1.416,4.801 -1.4,5.186 -2.224,8.916 -1.192,5.401 -1.182,9.276 1.756,10.885 1.989,1.093 3.614,0.865 4.625,0.021 1.124,-0.932 2.364,-3.86 0.713,-6.229 l -0.089,-1.713 c 0.089,-1.156 0.12,-1.724 0.215,-2.298 0.15,-0.994 0.26,-2.062 0.446,-4.01 0.344,-3.454 -0.426,-7.219 -0.426,-7.219 0.093,-1.244 -1.766,-1.708 -1.766,-1.708"
     id="path549" />
  <path
     style="fill:none;stroke:#231f20;stroke-width:0.565977;stroke-linecap:butt;stroke-linejoin:miter;stroke-miterlimit:4;stroke-dasharray:none;stroke-opacity:1"
     d="m 282.30184,29.714 c -3.849,-1.12 -3.114,2.896 -3.25,3.355 -1.416,4.801 -1.4,5.186 -2.224,8.916 -1.192,5.401 -1.182,9.276 1.756,10.885 1.989,1.093 3.614,0.865 4.625,0.021 1.124,-0.932 2.364,-3.86 0.713,-6.229 l -0.089,-1.713 c 0.089,-1.156 0.12,-1.724 0.215,-2.298 0.15,-0.994 0.26,-2.062 0.446,-4.01 0.344,-3.454 -0.426,-7.219 -0.426,-7.219 0.093,-1.244 -1.766,-1.708 -1.766,-1.708 z"
     id="path550" />
  <path
     style="fill:#0098c9;fill-opacity:1;fill-rule:nonzero;stroke:none"
     d="m 283.35384,46.23 -7.808,-0.183 c 0.027,0.656 0.084,1.26 0.163,1.839 -0.016,0.083 -0.032,0.161 -0.057,0.229 -0.276,0.76 0.057,1.302 0.629,2.172 0.557,1.448 1.448,2.479 2.839,2.958 2.15,0.745 3.708,0.245 4.573,-0.755 0.953,-1.104 1.688,-4.203 -0.339,-6.26"
     id="path551" />
  <path
     style="fill:none;stroke:#231f20;stroke-width:0.565977;stroke-linecap:butt;stroke-linejoin:miter;stroke-miterlimit:4;stroke-dasharray:none;stroke-opacity:1"
     d="m 283.35384,46.23 -7.808,-0.183 c 0.027,0.656 0.084,1.26 0.163,1.839 -0.016,0.083 -0.032,0.161 -0.057,0.229 -0.276,0.76 0.057,1.302 0.629,2.172 0.557,1.448 1.448,2.479 2.839,2.958 2.15,0.745 3.708,0.245 4.573,-0.755 0.953,-1.104 1.688,-4.203 -0.339,-6.26 z"
     id="path552" />
  <path
     style="fill:#231f20;fill-opacity:1;fill-rule:nonzero;stroke:none"
     d="m 280.52584,87.443 c -0.369,-0.526 -0.161,-2.464 -0.62,-4.005 -0.306,-1.041 0.063,-3.765 -0.322,-4.781 -0.35,-0.927 -0.423,-1.386 0.568,-1.97 0.588,-0.342 1.948,-0.629 2.229,-0.202 0.645,1 0.812,1.932 0.776,3 -0.048,1.213 -0.448,4.5 -0.579,5.098 -0.333,1.486 -0.01,2.152 -0.062,2.552 -0.094,0.756 -0.407,0.907 -0.907,0.953 -0.952,0.09 -1.083,-0.645 -1.083,-0.645"
     id="path553" />
  <path
     style="fill:none;stroke:#231f20;stroke-width:0.565977;stroke-linecap:butt;stroke-linejoin:miter;stroke-miterlimit:4;stroke-dasharray:none;stroke-opacity:1"
     d="m 280.52584,87.443 c -0.369,-0.526 -0.161,-2.464 -0.62,-4.005 -0.306,-1.041 0.063,-3.765 -0.322,-4.781 -0.35,-0.927 -0.423,-1.386 0.568,-1.97 0.588,-0.342 1.948,-0.629 2.229,-0.202 0.645,1 0.812,1.932 0.776,3 -0.048,1.213 -0.448,4.5 -0.579,5.098 -0.333,1.486 -0.01,2.152 -0.062,2.552 -0.094,0.756 -0.407,0.907 -0.907,0.953 -0.952,0.09 -1.083,-0.645 -1.083,-0.645 z"
     id="path554" />
  <path
     style="fill:#231f20;fill-opacity:1;fill-rule:nonzero;stroke:none"
     d="m 280.20384,78.391 c -1.298,-0.094 -0.776,-2.068 -0.719,-2.604 0.057,-0.542 0.047,-2.1 -0.12,-3.308 -0.161,-1.213 0.151,-2.797 -0.156,-5.104 -0.161,-1.213 0.448,-2.494 2.219,-2.656 1.744,-0.156 2.489,0.766 2.468,2.266 -0.026,1.494 -0.683,2.89 -0.812,4.396 -0.131,1.505 -0.126,3.052 -0.063,4.265 0.073,1.38 -0.407,2.093 -0.833,2.303 -1.074,0.52 -1.984,0.442 -1.984,0.442"
     id="path555" />
  <path
     style="fill:none;stroke:#231f20;stroke-width:0.565977;stroke-linecap:butt;stroke-linejoin:miter;stroke-miterlimit:4;stroke-dasharray:none;stroke-opacity:1"
     d="m 280.20384,78.391 c -1.298,-0.094 -0.776,-2.068 -0.719,-2.604 0.057,-0.542 0.047,-2.1 -0.12,-3.308 -0.161,-1.213 0.151,-2.797 -0.156,-5.104 -0.161,-1.213 0.448,-2.494 2.219,-2.656 1.744,-0.156 2.489,0.766 2.468,2.266 -0.026,1.494 -0.683,2.89 -0.812,4.396 -0.131,1.505 -0.126,3.052 -0.063,4.265 0.073,1.38 -0.407,2.093 -0.833,2.303 -1.074,0.52 -1.984,0.442 -1.984,0.442 z"
     id="path556" />
  <path
     style="fill:#ffffff;fill-opacity:1;fill-rule:nonzero;stroke:none"
     d="m 283.35384,88.917 c -0.354,-0.968 -1.421,-1.463 -2.385,-1.11 -0.969,0.355 -1.464,1.418 -1.109,2.386 0.353,0.969 1.421,1.464 2.39,1.109 0.963,-0.353 1.459,-1.427 1.104,-2.385"
     id="path557" />
  <path
     style="fill:none;stroke:#231f20;stroke-width:1.33171;stroke-linecap:butt;stroke-linejoin:miter;stroke-miterlimit:4;stroke-dasharray:none;stroke-opacity:1"
     d="m 283.35384,88.917 c -0.354,-0.968 -1.421,-1.463 -2.385,-1.11 -0.969,0.355 -1.464,1.418 -1.109,2.386 0.353,0.969 1.421,1.464 2.39,1.109 0.963,-0.353 1.459,-1.427 1.104,-2.385 z"
     id="path558" />
  <path
     style="fill:#231f20;fill-opacity:1;fill-rule:nonzero;stroke:none"
     d="m 209.01584,34.771 c 1.302,-0.36 1.89,0.438 1.822,1.474 -0.014,0.308 0.287,0.594 0.246,0.89 -0.11,0.699 -1.547,1.688 -2.678,0.699 -0.073,-0.068 -0.822,-0.401 -1.349,-0.735 -1.02,-0.661 -2.744,-2.464 -2.656,-5.156 0.036,-1.276 0.781,-1.016 0.923,-0.5 0.442,1.651 0.806,1.719 1.082,2.104 0.927,1.334 2.61,1.224 2.61,1.224"
     id="path559" />
  <path
     style="fill:none;stroke:#231f20;stroke-width:0.332927;stroke-linecap:butt;stroke-linejoin:miter;stroke-miterlimit:4;stroke-dasharray:none;stroke-opacity:1"
     d="m 209.01584,34.771 c 1.302,-0.36 1.89,0.438 1.822,1.474 -0.014,0.308 0.287,0.594 0.246,0.89 -0.11,0.699 -1.547,1.688 -2.678,0.699 -0.073,-0.068 -0.822,-0.401 -1.349,-0.735 -1.02,-0.661 -2.744,-2.464 -2.656,-5.156 0.036,-1.276 0.781,-1.016 0.923,-0.5 0.442,1.651 0.806,1.719 1.082,2.104 0.927,1.334 2.61,1.224 2.61,1.224 z"
     id="path560" />
  <path
     style="fill:#231f20;fill-opacity:1;fill-rule:nonzero;stroke:none"
     d="m 222.92784,47.349 c 1.588,-1.614 1.681,-2.14 1.041,-2.859 -0.417,-0.479 -0.651,-1.063 -0.896,-1.369 -0.812,-1.011 -2.599,-2.371 -8.667,-4.912 -1.38,-0.579 -3.306,-1.396 -4.068,-1.807 -1.202,-0.625 -1.437,1.796 -0.962,2.047 1.509,0.817 2.478,1.494 2.984,1.864 0.349,0.25 1.016,0.614 2.224,1.76 1.833,1.74 2.672,3.053 4.364,4.318 0.786,0.588 1.005,1.536 2.073,1.714 1.068,0.192 1.907,-0.756 1.907,-0.756"
     id="path561" />
  <path
     style="fill:none;stroke:#231f20;stroke-width:0.565977;stroke-linecap:butt;stroke-linejoin:miter;stroke-miterlimit:4;stroke-dasharray:none;stroke-opacity:1"
     d="m 222.92784,47.349 c 1.588,-1.614 1.681,-2.14 1.041,-2.859 -0.417,-0.479 -0.651,-1.063 -0.896,-1.369 -0.812,-1.011 -2.599,-2.371 -8.667,-4.912 -1.38,-0.579 -3.306,-1.396 -4.068,-1.807 -1.202,-0.625 -1.437,1.796 -0.962,2.047 1.509,0.817 2.478,1.494 2.984,1.864 0.349,0.25 1.016,0.614 2.224,1.76 1.833,1.74 2.672,3.053 4.364,4.318 0.786,0.588 1.005,1.536 2.073,1.714 1.068,0.192 1.907,-0.756 1.907,-0.756 z"
     id="path562" />
  <path
     style="fill:#0098c9;fill-opacity:1;fill-rule:nonzero;stroke:none"
     d="m 245.30784,60.245 c -2.538,-1.828 -2.886,-2.5 -3.36,-3.286 -2.99,-4.953 -5.364,-3.396 -6.599,-0.781 -1.453,3.057 -2.036,4.129 3.401,7.307 1.511,0.88 6.864,5.032 6.864,5.032 1.714,1.738 4.323,2.525 5.688,2.025 1.443,-0.527 0.834,-0.421 2.079,-1.156 1.187,-0.693 2.255,-2.604 1.817,-3.76 -0.417,-1.109 -2.057,-1.407 -4.365,-2.141 -1.823,-0.583 -5.525,-3.24 -5.525,-3.24"
     id="path563" />
  <path
     style="fill:none;stroke:#231f20;stroke-width:0.565977;stroke-linecap:butt;stroke-linejoin:miter;stroke-miterlimit:4;stroke-dasharray:none;stroke-opacity:1"
     d="m 245.30784,60.245 c -2.538,-1.828 -2.886,-2.5 -3.36,-3.286 -2.99,-4.953 -5.364,-3.396 -6.599,-0.781 -1.453,3.057 -2.036,4.129 3.401,7.307 1.511,0.88 6.864,5.032 6.864,5.032 1.714,1.738 4.323,2.525 5.688,2.025 1.443,-0.527 0.834,-0.421 2.079,-1.156 1.187,-0.693 2.255,-2.604 1.817,-3.76 -0.417,-1.109 -2.057,-1.407 -4.365,-2.141 -1.823,-0.583 -5.525,-3.24 -5.525,-3.24 z"
     id="path564" />
  <path
     style="fill:#ffffff;fill-opacity:1;fill-rule:nonzero;stroke:none"
     d="m 258.82384,73.266 c 0.208,0.12 -0.09,1.229 0.41,1.407 0.495,0.172 0.932,-0.486 2.907,-0.699 l 0.025,-0.005 c 1.448,-0.11 2.662,-0.786 3.162,-1.938 0.844,-1.901 -0.578,-4.358 -3.162,-5.5 -2.582,-1.134 -5.358,-0.516 -6.192,1.386 -0.808,1.818 0.463,4.156 2.85,5.349"
     id="path565" />
  <path
     style="fill:none;stroke:#231f20;stroke-width:0.565977;stroke-linecap:butt;stroke-linejoin:miter;stroke-miterlimit:4;stroke-dasharray:none;stroke-opacity:1"
     d="m 258.82384,73.266 c 0.208,0.12 -0.09,1.229 0.41,1.407 0.495,0.172 0.932,-0.486 2.907,-0.699 l 0.025,-0.005 c 1.448,-0.11 2.662,-0.786 3.162,-1.938 0.844,-1.901 -0.578,-4.358 -3.162,-5.5 -2.582,-1.134 -5.358,-0.516 -6.192,1.386 -0.808,1.818 0.463,4.156 2.85,5.349 z"
     id="path566" />
  <path
     style="fill:#231f20;fill-opacity:1;fill-rule:nonzero;stroke:none"
     d="m 221.60884,45.255 c -3.052,2.604 0.709,4.194 1.021,4.558 3.235,3.822 3.563,4.016 6.23,6.756 3.858,3.957 7.109,6.077 10.062,4.504 2.011,-1.062 2.708,-2.547 2.563,-3.854 -0.167,-1.448 -1.933,-4.089 -4.824,-4.016 l -1.479,-0.864 c -0.916,-0.709 -1.374,-1.052 -1.801,-1.442 -0.745,-0.667 -1.579,-1.344 -3.105,-2.574 -2.698,-2.182 -6.271,-3.604 -6.271,-3.604 -0.984,-0.765 -2.396,0.536 -2.396,0.536"
     id="path567" />
  <path
     style="fill:none;stroke:#231f20;stroke-width:0.565977;stroke-linecap:butt;stroke-linejoin:miter;stroke-miterlimit:4;stroke-dasharray:none;stroke-opacity:1"
     d="m 221.60884,45.255 c -3.052,2.604 0.709,4.194 1.021,4.558 3.235,3.822 3.563,4.016 6.23,6.756 3.858,3.957 7.109,6.077 10.062,4.504 2.011,-1.062 2.708,-2.547 2.563,-3.854 -0.167,-1.448 -1.933,-4.089 -4.824,-4.016 l -1.479,-0.864 c -0.916,-0.709 -1.374,-1.052 -1.801,-1.442 -0.745,-0.667 -1.579,-1.344 -3.105,-2.574 -2.698,-2.182 -6.271,-3.604 -6.271,-3.604 -0.984,-0.765 -2.396,0.536 -2.396,0.536 z"
     id="path568" />
  <path
     style="fill:#0098c9;fill-opacity:1;fill-rule:nonzero;stroke:none"
     d="m 235.98984,53.438 -4.438,6.432 c 0.562,0.339 1.1,0.62 1.625,0.875 0.063,0.057 0.12,0.114 0.161,0.172 0.486,0.646 1.12,0.666 2.162,0.661 1.516,0.333 2.865,0.152 4.032,-0.744 1.801,-1.391 2.238,-2.969 1.88,-4.235 -0.402,-1.406 -2.588,-3.718 -5.422,-3.161"
     id="path569" />
  <path
     style="fill:none;stroke:#231f20;stroke-width:0.565977;stroke-linecap:butt;stroke-linejoin:miter;stroke-miterlimit:4;stroke-dasharray:none;stroke-opacity:1"
     d="m 235.98984,53.438 -4.438,6.432 c 0.562,0.339 1.1,0.62 1.625,0.875 0.063,0.057 0.12,0.114 0.161,0.172 0.486,0.646 1.12,0.666 2.162,0.661 1.516,0.333 2.865,0.152 4.032,-0.744 1.801,-1.391 2.238,-2.969 1.88,-4.235 -0.402,-1.406 -2.588,-3.718 -5.422,-3.161 z"
     id="path570" />
  <path
     style="fill:#231f20;fill-opacity:1;fill-rule:nonzero;stroke:none"
     d="m 249.45284,87.443 c -0.369,-0.526 -0.161,-2.464 -0.62,-4.005 -0.307,-1.041 0.063,-3.765 -0.323,-4.781 -0.349,-0.927 -0.426,-1.386 0.568,-1.97 0.588,-0.342 1.948,-0.629 2.224,-0.202 0.651,1 0.818,1.932 0.782,3 -0.047,1.213 -0.448,4.5 -0.584,5.098 -0.328,1.486 -0.006,2.152 -0.058,2.552 -0.093,0.756 -0.405,0.907 -0.91,0.953 -0.948,0.09 -1.079,-0.645 -1.079,-0.645"
     id="path571" />
  <path
     style="fill:none;stroke:#231f20;stroke-width:0.565977;stroke-linecap:butt;stroke-linejoin:miter;stroke-miterlimit:4;stroke-dasharray:none;stroke-opacity:1"
     d="m 249.45284,87.443 c -0.369,-0.526 -0.161,-2.464 -0.62,-4.005 -0.307,-1.041 0.063,-3.765 -0.323,-4.781 -0.349,-0.927 -0.426,-1.386 0.568,-1.97 0.588,-0.342 1.948,-0.629 2.224,-0.202 0.651,1 0.818,1.932 0.782,3 -0.047,1.213 -0.448,4.5 -0.584,5.098 -0.328,1.486 -0.006,2.152 -0.058,2.552 -0.093,0.756 -0.405,0.907 -0.91,0.953 -0.948,0.09 -1.079,-0.645 -1.079,-0.645 z"
     id="path572" />
  <path
     style="fill:#231f20;fill-opacity:1;fill-rule:nonzero;stroke:none"
     d="m 249.12484,78.391 c -1.292,-0.094 -0.771,-2.068 -0.713,-2.604 0.057,-0.542 0.046,-2.1 -0.12,-3.308 -0.162,-1.213 0.15,-2.797 -0.162,-5.104 -0.161,-1.213 0.448,-2.494 2.219,-2.656 1.751,-0.156 2.495,0.766 2.469,2.266 -0.021,1.494 -0.677,2.89 -0.808,4.396 -0.134,1.505 -0.125,3.052 -0.062,4.265 0.073,1.38 -0.406,2.093 -0.834,2.303 -1.072,0.52 -1.989,0.442 -1.989,0.442"
     id="path573" />
  <path
     style="fill:none;stroke:#231f20;stroke-width:0.565977;stroke-linecap:butt;stroke-linejoin:miter;stroke-miterlimit:4;stroke-dasharray:none;stroke-opacity:1"
     d="m 249.12484,78.391 c -1.292,-0.094 -0.771,-2.068 -0.713,-2.604 0.057,-0.542 0.046,-2.1 -0.12,-3.308 -0.162,-1.213 0.15,-2.797 -0.162,-5.104 -0.161,-1.213 0.448,-2.494 2.219,-2.656 1.751,-0.156 2.495,0.766 2.469,2.266 -0.021,1.494 -0.677,2.89 -0.808,4.396 -0.134,1.505 -0.125,3.052 -0.062,4.265 0.073,1.38 -0.406,2.093 -0.834,2.303 -1.072,0.52 -1.989,0.442 -1.989,0.442 z"
     id="path574" />
  <path
     style="fill:#ffffff;fill-opacity:1;fill-rule:nonzero;stroke:none"
     d="m 252.27584,88.917 c -0.348,-0.968 -1.422,-1.463 -2.386,-1.11 -0.962,0.355 -1.457,1.418 -1.104,2.386 0.35,0.969 1.423,1.464 2.386,1.109 0.969,-0.353 1.458,-1.427 1.104,-2.385"
     id="path575" />
  <path
     style="fill:none;stroke:#231f20;stroke-width:1.33171;stroke-linecap:butt;stroke-linejoin:miter;stroke-miterlimit:4;stroke-dasharray:none;stroke-opacity:1"
     d="m 252.27584,88.917 c -0.348,-0.968 -1.422,-1.463 -2.386,-1.11 -0.962,0.355 -1.457,1.418 -1.104,2.386 0.35,0.969 1.423,1.464 2.386,1.109 0.969,-0.353 1.458,-1.427 1.104,-2.385 z"
     id="path576" />
</svg>
