<?xml version="1.0" encoding="UTF-8" standalone="no"?>
<!-- Created with Inkscape (http://www.inkscape.org/) -->

<svg
   version="1.1"
   id="svg1"
   width="295.93741"
   height="145.03868"
   viewBox="0 0 295.93739 145.03868"
   sodipodi:docname="cell.svg"
   xmlns:inkscape="http://www.inkscape.org/namespaces/inkscape"
   xmlns:sodipodi="http://sodipodi.sourceforge.net/DTD/sodipodi-0.dtd"
   xmlns="http://www.w3.org/2000/svg"
   xmlns:svg="http://www.w3.org/2000/svg">
  <sodipodi:namedview
     id="namedview1"
     pagecolor="#ffffff"
     bordercolor="#000000"
     borderopacity="0.25"
     inkscape:showpageshadow="2"
     inkscape:pageopacity="0.0"
     inkscape:pagecheckerboard="0"
     inkscape:deskcolor="#d1d1d1">
    <inkscape:page
       x="0"
       y="0"
       inkscape:label="1"
       id="page1"
       width="295.93738"
       height="145.03868"
       margin="0"
       bleed="0" />
  </sodipodi:namedview>
  <defs
     id="defs1" />
  <path
     style="fill:#231f20;fill-opacity:1;fill-rule:nonzero;stroke:none"
     d="m 48.85354,134.3645 c 1.339,-0.188 1.557,-1.152 1.084,-2.078 -0.136,-0.276 0.025,-0.656 -0.136,-0.912 -0.375,-0.599 -2.082,-0.927 -2.724,0.428 -0.046,0.093 -0.604,0.697 -0.948,1.213 -0.672,1.011 -1.5307,3.349 -0.38,5.787 0.547,1.156 1.125,0.62 1.047,0.088 -0.25,-1.692 0.057,-1.891 0.157,-2.359 0.317,-1.595 1.9,-2.167 1.9,-2.167"
     id="path4" />
  <path
     style="fill:none;stroke:#231f20;stroke-width:0.332927;stroke-linecap:butt;stroke-linejoin:miter;stroke-miterlimit:4;stroke-dasharray:none;stroke-opacity:1"
     d="m 48.85354,134.3645 c 1.339,-0.188 1.557,-1.152 1.084,-2.078 -0.136,-0.276 0.025,-0.656 -0.136,-0.912 -0.375,-0.599 -2.082,-0.927 -2.724,0.428 -0.046,0.093 -0.604,0.697 -0.948,1.213 -0.672,1.011 -1.5307,3.349 -0.38,5.787 0.547,1.156 1.125,0.62 1.047,0.088 -0.25,-1.692 0.057,-1.891 0.157,-2.359 0.317,-1.595 1.9,-2.167 1.9,-2.167 z"
     id="path5" />
  <path
     style="fill:#231f20;fill-opacity:1;fill-rule:nonzero;stroke:none"
     d="m 56.58854,117.2815 c 2.098,0.844 2.396,1.292 2.098,2.204 -0.197,0.609 -0.172,1.238 -0.276,1.613 -0.343,1.25 -1.431,3.214 -5.984,7.969 -1.03,1.079 -2.473,2.599 -3.011,3.276 -0.847,1.052 -2.03,-1.073 -1.696,-1.495 1.057,-1.349 1.677,-2.354 1.989,-2.896 0.218,-0.369 0.688,-0.969 1.338,-2.505 0.99,-2.328 1.235,-3.864 2.281,-5.702 0.485,-0.855 0.302,-1.803 1.214,-2.396 0.902,-0.604 2.047,-0.068 2.047,-0.068"
     id="path6" />
  <path
     style="fill:none;stroke:#231f20;stroke-width:0.565977;stroke-linecap:butt;stroke-linejoin:miter;stroke-miterlimit:4;stroke-dasharray:none;stroke-opacity:1"
     d="m 56.58854,117.2815 c 2.098,0.844 2.396,1.292 2.098,2.204 -0.197,0.609 -0.172,1.238 -0.276,1.613 -0.343,1.25 -1.431,3.214 -5.984,7.969 -1.03,1.079 -2.473,2.599 -3.011,3.276 -0.847,1.052 -2.03,-1.073 -1.696,-1.495 1.057,-1.349 1.677,-2.354 1.989,-2.896 0.218,-0.369 0.688,-0.969 1.338,-2.505 0.99,-2.328 1.235,-3.864 2.281,-5.702 0.485,-0.855 0.302,-1.803 1.214,-2.396 0.902,-0.604 2.047,-0.068 2.047,-0.068 z"
     id="path7" />
  <path
     style="fill:#0098c9;fill-opacity:1;fill-rule:nonzero;stroke:#231f20;stroke-width:0.565977;stroke-linecap:butt;stroke-linejoin:miter;stroke-miterlimit:4;stroke-dasharray:none;stroke-opacity:1"
     d="m 69.65054,93.8185 c -0.437,3.104 -0.193,3.817 0.047,4.708 1.505,5.577 -1.265,6.213 -4,5.296 -3.218,-1.067 -4.39,-1.385 -2.927,-7.509 0.416,-1.704 1.131,-8.439 1.131,-8.439 -0.074,-2.447 1.165,-4.869 2.473,-5.509 1.38,-0.678 0.88,-0.308 2.271,-0.699 1.323,-0.375 3.437,0.177 3.975,1.292 0.514,1.068 -0.407,2.459 -1.48,4.636 -0.839,1.713 -1.49,6.224 -1.49,6.224"
     id="path8" />
  <path
     style="fill:#ffffff;fill-opacity:1;fill-rule:nonzero;stroke:none"
     d="m 66.64554,75.8545 c -0.025,-0.245 -1.161,-0.427 -1.114,-0.948 0.041,-0.521 0.817,-0.656 1.822,-2.375 l 0.005,-0.021 c 0.694,-1.281 1.808,-2.109 3.057,-2.104 2.079,0.005 3.751,2.307 3.741,5.125 -0.011,2.828 -1.708,5.11 -3.787,5.099 -1.984,-0.005 -3.604,-2.115 -3.724,-4.776"
     id="path9" />
  <path
     style="fill:none;stroke:#231f20;stroke-width:0.565977;stroke-linecap:butt;stroke-linejoin:miter;stroke-miterlimit:4;stroke-dasharray:none;stroke-opacity:1"
     d="m 66.64554,75.8545 c -0.025,-0.245 -1.161,-0.427 -1.114,-0.948 0.041,-0.521 0.817,-0.656 1.822,-2.375 l 0.005,-0.021 c 0.694,-1.281 1.808,-2.109 3.057,-2.104 2.079,0.005 3.751,2.307 3.741,5.125 -0.011,2.828 -1.708,5.11 -3.787,5.099 -1.984,-0.005 -3.604,-2.115 -3.724,-4.776 z"
     id="path10" />
  <path
     style="fill:#231f20;fill-opacity:1;fill-rule:nonzero;stroke:none"
     d="m 56.21954,119.7235 c -3.839,-1.166 -1.027,-4.125 -0.886,-4.582 1.437,-4.798 1.661,-5.104 3.015,-8.683 1.953,-5.172 4.089,-8.412 7.428,-8.151 2.265,0.172 3.5,1.26 3.885,2.515 0.427,1.396 -0.136,4.521 -2.817,5.609 l -1.011,1.382 c -0.557,1.014 -0.844,1.514 -1.078,2.041 -0.411,0.911 -0.911,1.864 -1.818,3.599 -1.604,3.084 -4.308,5.812 -4.308,5.812 -0.604,1.089 -2.41,0.458 -2.41,0.458"
     id="path11" />
  <path
     style="fill:none;stroke:#231f20;stroke-width:0.565977;stroke-linecap:butt;stroke-linejoin:miter;stroke-miterlimit:4;stroke-dasharray:none;stroke-opacity:1"
     d="m 56.21954,119.7235 c -3.839,-1.166 -1.027,-4.125 -0.886,-4.582 1.437,-4.798 1.661,-5.104 3.015,-8.683 1.953,-5.172 4.089,-8.412 7.428,-8.151 2.265,0.172 3.5,1.26 3.885,2.515 0.427,1.396 -0.136,4.521 -2.817,5.609 l -1.011,1.382 c -0.557,1.014 -0.844,1.514 -1.078,2.041 -0.411,0.911 -0.911,1.864 -1.818,3.599 -1.604,3.084 -4.308,5.812 -4.308,5.812 -0.604,1.089 -2.41,0.458 -2.41,0.458 z"
     id="path12" />
  <path
     style="fill:#0098c9;fill-opacity:1;fill-rule:nonzero;stroke:none"
     d="m 69.84454,101.4225 c -0.172,-1.308 -1.21,-2.579 -3.412,-3.131 -1.432,-0.354 -2.74,0.016 -4,0.927 -0.953,0.407 -1.522,0.677 -1.708,1.464 -0.021,0.073 -0.047,0.145 -0.079,0.219 -0.385,0.442 -0.765,0.917 -1.145,1.453 l 6.634,4.131 c 2.823,-0.626 3.902,-3.615 3.71,-5.063"
     id="path13" />
  <path
     style="fill:none;stroke:#231f20;stroke-width:0.565977;stroke-linecap:butt;stroke-linejoin:miter;stroke-miterlimit:4;stroke-dasharray:none;stroke-opacity:1"
     d="m 69.84454,101.4225 c -0.172,-1.308 -1.21,-2.579 -3.412,-3.131 -1.432,-0.354 -2.74,0.016 -4,0.927 -0.953,0.407 -1.522,0.677 -1.708,1.464 -0.021,0.073 -0.047,0.145 -0.079,0.219 -0.385,0.442 -0.765,0.917 -1.145,1.453 l 6.634,4.131 c 2.823,-0.626 3.902,-3.615 3.71,-5.063 z"
     id="path14" />
  <path
     style="fill:#231f20;fill-opacity:1;fill-rule:nonzero;stroke:none"
     d="m 74.91554,64.6878 c -0.505,0.3957 -0.863,2.3117 -1.743,3.6557 -0.595,0.912 -1.027,3.62 -1.688,4.479 -0.604,0.792 -0.807,1.215 -0.022,2.052 0.464,0.5 1.678,1.167 2.069,0.839 0.911,-0.771 1.338,-1.615 1.609,-2.646 0.308,-1.177 0.87,-4.442 0.917,-5.052 0.109,-1.521 0.615,-2.057 0.676,-2.458 0.131,-0.7497 -0.124,-0.9844 -0.588,-1.1777 -0.891,-0.3533 -1.23,0.308 -1.23,0.308"
     id="path15" />
  <path
     style="fill:none;stroke:#231f20;stroke-width:0.565977;stroke-linecap:butt;stroke-linejoin:miter;stroke-miterlimit:4;stroke-dasharray:none;stroke-opacity:1"
     d="m 74.91554,64.6878 c -0.505,0.3957 -0.863,2.3117 -1.743,3.6557 -0.595,0.912 -1.027,3.62 -1.688,4.479 -0.604,0.792 -0.807,1.215 -0.022,2.052 0.464,0.5 1.678,1.167 2.069,0.839 0.911,-0.771 1.338,-1.615 1.609,-2.646 0.308,-1.177 0.87,-4.442 0.917,-5.052 0.109,-1.521 0.615,-2.057 0.676,-2.458 0.131,-0.7497 -0.124,-0.9844 -0.588,-1.1777 -0.891,-0.3533 -1.23,0.308 -1.23,0.308 z"
     id="path16" />
  <path
     style="fill:#231f20;fill-opacity:1;fill-rule:nonzero;stroke:none"
     d="m 71.99454,73.2615 c -1.261,-0.282 -1.333,1.754 -1.432,2.285 -0.1,0.537 -0.562,2.021 -1.068,3.131 -0.51,1.12 -0.667,2.724 -1.625,4.844 -0.505,1.114 -0.292,2.52 1.355,3.182 1.629,0.656 2.609,-0.016 3.014,-1.453 0.412,-1.443 0.183,-2.964 0.495,-4.448 0.308,-1.48 0.761,-2.959 1.172,-4.099 0.469,-1.302 0.215,-2.12 -0.135,-2.442 -0.874,-0.814 -1.776,-1 -1.776,-1"
     id="path17" />
  <path
     style="fill:none;stroke:#231f20;stroke-width:0.565977;stroke-linecap:butt;stroke-linejoin:miter;stroke-miterlimit:4;stroke-dasharray:none;stroke-opacity:1"
     d="m 71.99454,73.2615 c -1.261,-0.282 -1.333,1.754 -1.432,2.285 -0.1,0.537 -0.562,2.021 -1.068,3.131 -0.51,1.12 -0.667,2.724 -1.625,4.844 -0.505,1.114 -0.292,2.52 1.355,3.182 1.629,0.656 2.609,-0.016 3.014,-1.453 0.412,-1.443 0.183,-2.964 0.495,-4.448 0.308,-1.48 0.761,-2.959 1.172,-4.099 0.469,-1.302 0.215,-2.12 -0.135,-2.442 -0.874,-0.814 -1.776,-1 -1.776,-1 z"
     id="path18" />
  <path
     style="fill:#231f20;fill-opacity:1;fill-rule:nonzero;stroke:none"
     d="m 5.2911401,34.4999 c 0.188,1.3386 1.152,1.5573 2.0735,1.084 0.276,-0.136 0.6557,0.0253 0.9171,-0.136 0.5933,-0.3747 0.9266,-2.0827 -0.428,-2.724 -0.0934,-0.0467 -0.6975,-0.604 -1.2131,-0.948 -1.0109,-0.672 -3.3536,-1.536 -5.79219995,-0.38 -1.1504,0.5413 -0.6135,1.1253 -0.0828,1.0467 1.69219995,-0.2494 1.89059995,0.0573 2.35889995,0.156 1.5948,0.3133 2.1666,1.9013 2.1666,1.9013"
     id="path19" />
  <path
     style="fill:none;stroke:#231f20;stroke-width:0.332927;stroke-linecap:butt;stroke-linejoin:miter;stroke-miterlimit:4;stroke-dasharray:none;stroke-opacity:1"
     d="m 5.2911401,34.4999 c 0.188,1.3386 1.152,1.5573 2.0735,1.084 0.276,-0.136 0.6557,0.0253 0.9171,-0.136 0.5933,-0.3747 0.9266,-2.0827 -0.428,-2.724 -0.0934,-0.0467 -0.6975,-0.604 -1.2131,-0.948 -1.0109,-0.672 -3.3536,-1.536 -5.79219995,-0.38 -1.1504,0.5413 -0.6135,1.1253 -0.0828,1.0467 1.69219995,-0.2494 1.89059995,0.0573 2.35889995,0.156 1.5948,0.3133 2.1666,1.9013 2.1666,1.9013 z"
     id="path20" />
  <path
     style="fill:#231f20;fill-opacity:1;fill-rule:nonzero;stroke:none"
     d="m 22.36984,42.2345 c -0.8443,2.0987 -1.2923,2.396 -2.1975,2.0987 -0.6093,-0.1973 -1.2401,-0.172 -1.6145,-0.276 -1.2505,-0.344 -3.2136,-1.4373 -7.9693,-5.984 -1.0775999,-1.036 -2.5989999,-2.4747 -3.2759999,-3.0107 -1.0522,-0.8493 1.0734,-2.0306 1.4948,-1.7026 1.3488999,1.0626 2.3540999,1.6813 2.8957999,1.9946 0.3692,0.2187 0.9692,0.6867 2.5,1.3387 2.3282,0.9893 3.8692,1.2293 5.7025,2.276 0.8599,0.484 1.8079,0.3067 2.4016,1.2133 0.6036,0.9067 0.0626,2.052 0.0626,2.052"
     id="path21" />
  <path
     style="fill:none;stroke:#231f20;stroke-width:0.565977;stroke-linecap:butt;stroke-linejoin:miter;stroke-miterlimit:4;stroke-dasharray:none;stroke-opacity:1"
     d="m 22.36984,42.2345 c -0.8443,2.0987 -1.2923,2.396 -2.1975,2.0987 -0.6093,-0.1973 -1.2401,-0.172 -1.6145,-0.276 -1.2505,-0.344 -3.2136,-1.4373 -7.9693,-5.984 -1.0775999,-1.036 -2.5989999,-2.4747 -3.2759999,-3.0107 -1.0522,-0.8493 1.0734,-2.0306 1.4948,-1.7026 1.3488999,1.0626 2.3540999,1.6813 2.8957999,1.9946 0.3692,0.2187 0.9692,0.6867 2.5,1.3387 2.3282,0.9893 3.8692,1.2293 5.7025,2.276 0.8599,0.484 1.8079,0.3067 2.4016,1.2133 0.6036,0.9067 0.0626,2.052 0.0626,2.052 z"
     id="path22" />
  <path
     style="fill:#0098c9;fill-opacity:1;fill-rule:nonzero;stroke:none"
     d="m 45.83854,55.2972 c -3.1048,-0.4374 -3.8182,-0.1934 -4.7089,0.0466 -5.5828,1.5 -6.2136,-1.2653 -5.2959,-4 1.0678,-3.2186 1.3855,-4.3906 7.5104,-2.9266 1.7024,0.416 8.4374,1.1293 8.4374,1.1293 2.448,-0.072 4.869,1.1667 5.51,2.4747 0.671,1.38 0.307,0.88 0.698,2.2706 0.375,1.3227 -0.177,3.4374 -1.297,3.9734 -1.068,0.516 -2.454,-0.4054 -4.63,-1.4787 -1.714,-0.8387 -6.224,-1.4893 -6.224,-1.4893"
     id="path23" />
  <path
     style="fill:none;stroke:#231f20;stroke-width:0.565977;stroke-linecap:butt;stroke-linejoin:miter;stroke-miterlimit:4;stroke-dasharray:none;stroke-opacity:1"
     d="m 45.83854,55.2972 c -3.1048,-0.4374 -3.8182,-0.1934 -4.7089,0.0466 -5.5828,1.5 -6.2136,-1.2653 -5.2959,-4 1.0678,-3.2186 1.3855,-4.3906 7.5104,-2.9266 1.7024,0.416 8.4374,1.1293 8.4374,1.1293 2.448,-0.072 4.869,1.1667 5.51,2.4747 0.671,1.38 0.307,0.88 0.698,2.2706 0.375,1.3227 -0.177,3.4374 -1.297,3.9734 -1.068,0.516 -2.454,-0.4054 -4.63,-1.4787 -1.714,-0.8387 -6.224,-1.4893 -6.224,-1.4893 z"
     id="path24" />
  <path
     style="fill:#ffffff;fill-opacity:1;fill-rule:nonzero;stroke:none"
     d="m 63.80154,52.2918 c 0.245,-0.0306 0.423,-1.1613 0.948,-1.12 0.521,0.0467 0.656,0.8227 2.375,1.8227 l 0.016,0.0107 c 1.281,0.6933 2.114,1.8026 2.109,3.0573 -0.011,2.0787 -2.307,3.7507 -5.129,3.7347 -2.824,-0.0107 -5.106,-1.7027 -5.095,-3.7814 0,-1.984 2.115,-3.604 4.776,-3.724"
     id="path25" />
  <path
     style="fill:none;stroke:#231f20;stroke-width:0.565977;stroke-linecap:butt;stroke-linejoin:miter;stroke-miterlimit:4;stroke-dasharray:none;stroke-opacity:1"
     d="m 63.80154,52.2918 c 0.245,-0.0306 0.423,-1.1613 0.948,-1.12 0.521,0.0467 0.656,0.8227 2.375,1.8227 l 0.016,0.0107 c 1.281,0.6933 2.114,1.8026 2.109,3.0573 -0.011,2.0787 -2.307,3.7507 -5.129,3.7347 -2.824,-0.0107 -5.106,-1.7027 -5.095,-3.7814 0,-1.984 2.115,-3.604 4.776,-3.724 z"
     id="path26" />
  <path
     style="fill:#231f20;fill-opacity:1;fill-rule:nonzero;stroke:none"
     d="m 19.93224,41.8652 c 1.1666,-3.8387 4.1256,-1.0267 4.5786,-0.8907 4.8016,1.4427 5.1095,1.6667 8.6871,3.02 5.1666,1.9534 8.4118,4.0893 8.1504,7.428 -0.176,2.2653 -1.2599,3.5 -2.5146,3.8853 -1.3964,0.4267 -4.5213,-0.136 -5.6093,-2.8186 l -1.3803,-1.0094 c -1.0161,-0.5626 -1.5161,-0.844 -2.0426,-1.084 -0.9156,-0.412 -1.8641,-0.9066 -3.6036,-1.812 -3.0776,-1.6039 -5.8068,-4.3133 -5.8068,-4.3133 -1.0948,-0.5986 -0.4589,-2.4053 -0.4589,-2.4053"
     id="path27" />
  <path
     style="fill:none;stroke:#231f20;stroke-width:0.565977;stroke-linecap:butt;stroke-linejoin:miter;stroke-miterlimit:4;stroke-dasharray:none;stroke-opacity:1"
     d="m 19.93224,41.8652 c 1.1666,-3.8387 4.1256,-1.0267 4.5786,-0.8907 4.8016,1.4427 5.1095,1.6667 8.6871,3.02 5.1666,1.9534 8.4118,4.0893 8.1504,7.428 -0.176,2.2653 -1.2599,3.5 -2.5146,3.8853 -1.3964,0.4267 -4.5213,-0.136 -5.6093,-2.8186 l -1.3803,-1.0094 c -1.0161,-0.5626 -1.5161,-0.844 -2.0426,-1.084 -0.9156,-0.412 -1.8641,-0.9066 -3.6036,-1.812 -3.0776,-1.6039 -5.8068,-4.3133 -5.8068,-4.3133 -1.0948,-0.5986 -0.4589,-2.4053 -0.4589,-2.4053 z"
     id="path28" />
  <path
     style="fill:#0098c9;fill-opacity:1;fill-rule:nonzero;stroke:none"
     d="m 37.23484,45.3225 -4.1251,6.636 c 0.6199,2.8227 3.6147,3.9013 5.0626,3.708 1.3068,-0.172 2.577,-1.208 3.1292,-3.4107 0.6416,-2.568 -1,-4.7559 -4.0667,-6.9333"
     id="path29" />
  <path
     style="fill:none;stroke:#231f20;stroke-width:0.565977;stroke-linecap:butt;stroke-linejoin:miter;stroke-miterlimit:4;stroke-dasharray:none;stroke-opacity:1"
     d="m 37.23484,45.3225 -4.1251,6.636 c 0.6199,2.8227 3.6147,3.9013 5.0626,3.708 1.3068,-0.172 2.577,-1.208 3.1292,-3.4107 0.6416,-2.568 -1,-4.7559 -4.0667,-6.9333 z"
     id="path30" />
  <path
     style="fill:#231f20;fill-opacity:1;fill-rule:nonzero;stroke:none"
     d="m 74.96854,60.5625 c -0.396,-0.5053 -2.312,-0.864 -3.656,-1.744 -0.912,-0.5947 -3.626,-1.0267 -4.485,-1.6933 -0.786,-0.5987 -1.207,-0.8027 -2.046,-0.0214 -0.5,0.464 -1.167,1.6827 -0.838,2.0734 0.765,0.912 1.614,1.3386 2.645,1.6093 1.177,0.308 4.437,0.8693 5.046,0.9173 1.522,0.1093 2.063,0.6093 2.464,0.676 0.75,0.1307 0.984,-0.124 1.178,-0.588 0.353,-0.8907 -0.308,-1.2293 -0.308,-1.2293"
     id="path31" />
  <path
     style="fill:none;stroke:#231f20;stroke-width:0.565977;stroke-linecap:butt;stroke-linejoin:miter;stroke-miterlimit:4;stroke-dasharray:none;stroke-opacity:1"
     d="m 74.96854,60.5625 c -0.396,-0.5053 -2.312,-0.864 -3.656,-1.744 -0.912,-0.5947 -3.626,-1.0267 -4.485,-1.6933 -0.786,-0.5987 -1.207,-0.8027 -2.046,-0.0214 -0.5,0.464 -1.167,1.6827 -0.838,2.0734 0.765,0.912 1.614,1.3386 2.645,1.6093 1.177,0.308 4.437,0.8693 5.046,0.9173 1.522,0.1093 2.063,0.6093 2.464,0.676 0.75,0.1307 0.984,-0.124 1.178,-0.588 0.353,-0.8907 -0.308,-1.2293 -0.308,-1.2293 z"
     id="path32" />
  <path
     style="fill:#231f20;fill-opacity:1;fill-rule:nonzero;stroke:none"
     d="m 66.39054,57.6412 c 0.287,-1.2667 -1.756,-1.3334 -2.281,-1.4334 -0.537,-0.104 -2.021,-0.5613 -3.136,-1.072 -1.115,-0.5053 -2.724,-0.6613 -4.844,-1.62 -1.109,-0.5053 -2.515,-0.2973 -3.176,1.3547 -0.657,1.6293 0.015,2.6093 1.452,3.0147 1.439,0.412 2.964,0.1826 4.448,0.4946 1.474,0.308 2.954,0.7614 4.1,1.172 1.302,0.4694 2.119,0.2134 2.443,-0.1346 0.812,-0.876 0.994,-1.776 0.994,-1.776"
     id="path33" />
  <path
     style="fill:none;stroke:#231f20;stroke-width:0.565977;stroke-linecap:butt;stroke-linejoin:miter;stroke-miterlimit:4;stroke-dasharray:none;stroke-opacity:1"
     d="m 66.39054,57.6412 c 0.287,-1.2667 -1.756,-1.3334 -2.281,-1.4334 -0.537,-0.104 -2.021,-0.5613 -3.136,-1.072 -1.115,-0.5053 -2.724,-0.6613 -4.844,-1.62 -1.109,-0.5053 -2.515,-0.2973 -3.176,1.3547 -0.657,1.6293 0.015,2.6093 1.452,3.0147 1.439,0.412 2.964,0.1826 4.448,0.4946 1.474,0.308 2.954,0.7614 4.1,1.172 1.302,0.4694 2.119,0.2134 2.443,-0.1346 0.812,-0.876 0.994,-1.776 0.994,-1.776 z"
     id="path34" />
  <path
     style="fill:#231f20;fill-opacity:1;fill-rule:nonzero;stroke:none"
     d="m 293.92654,48.4278 c 0.849,1.0574 0.344,1.9107 -0.636,2.2547 -0.286,0.104 -0.432,0.4947 -0.723,0.5733 -0.683,0.176 -2.157,-0.7506 -1.688,-2.1826 0.025,-0.0934 0.031,-0.912 0.135,-1.5267 0.209,-1.2026 1.182,-3.4946 3.693,-4.4786 1.193,-0.4694 1.245,0.3226 0.823,0.656 -1.344,1.0573 -1.26,1.4173 -1.506,1.8226 -0.858,1.3814 -0.098,2.8813 -0.098,2.8813"
     id="path35" />
  <path
     style="fill:none;stroke:#231f20;stroke-width:0.332927;stroke-linecap:butt;stroke-linejoin:miter;stroke-miterlimit:4;stroke-dasharray:none;stroke-opacity:1"
     d="m 293.92654,48.4278 c 0.849,1.0574 0.344,1.9107 -0.636,2.2547 -0.286,0.104 -0.432,0.4947 -0.723,0.5733 -0.683,0.176 -2.157,-0.7506 -1.688,-2.1826 0.025,-0.0934 0.031,-0.912 0.135,-1.5267 0.209,-1.2026 1.182,-3.4946 3.693,-4.4786 1.193,-0.4694 1.245,0.3226 0.823,0.656 -1.344,1.0573 -1.26,1.4173 -1.506,1.8226 -0.858,1.3814 -0.098,2.8813 -0.098,2.8813 z"
     id="path36" />
  <path
     style="fill:#231f20;fill-opacity:1;fill-rule:nonzero;stroke:none"
     d="m 287.85254,66.1665 c 2.11,0.828 2.631,0.708 3.038,-0.161 0.276,-0.574 0.724,-1.022 0.905,-1.3644 0.609,-1.1466 1.157,-3.328 1.105,-9.9013 -0.021,-1.5 -0.026,-3.588 0.052,-4.4533 0.099,-1.3493 -2.22,-0.6093 -2.261,-0.0787 -0.156,1.7094 -0.396,2.8654 -0.541,3.48 -0.088,0.416 -0.162,1.172 -0.74,2.7347 -0.875,2.3693 -1.75,3.6613 -2.244,5.7186 -0.23,0.9534 -1.016,1.5254 -0.762,2.572 0.246,1.0624 1.448,1.4534 1.448,1.4534"
     id="path37" />
  <path
     style="fill:none;stroke:#231f20;stroke-width:0.565977;stroke-linecap:butt;stroke-linejoin:miter;stroke-miterlimit:4;stroke-dasharray:none;stroke-opacity:1"
     d="m 287.85254,66.1665 c 2.11,0.828 2.631,0.708 3.038,-0.161 0.276,-0.574 0.724,-1.022 0.905,-1.3644 0.609,-1.1466 1.157,-3.328 1.105,-9.9013 -0.021,-1.5 -0.026,-3.588 0.052,-4.4533 0.099,-1.3493 -2.22,-0.6093 -2.261,-0.0787 -0.156,1.7094 -0.396,2.8654 -0.541,3.48 -0.088,0.416 -0.162,1.172 -0.74,2.7347 -0.875,2.3693 -1.75,3.6613 -2.244,5.7186 -0.23,0.9534 -1.016,1.5254 -0.762,2.572 0.246,1.0624 1.448,1.4534 1.448,1.4534 z"
     id="path38" />
  <path
     style="fill:#0098c9;fill-opacity:1;fill-rule:nonzero;stroke:none"
     d="m 286.31154,91.5375 c 0.136,-3.131 0.505,-3.787 0.901,-4.615 2.5,-5.219 -0.109,-6.349 -2.964,-5.943 -3.358,0.458 -4.572,0.562 -4.249,6.848 0.093,1.751 -0.432,8.506 -0.432,8.506 -0.516,2.385 0.26,4.994 1.427,5.865 1.234,0.916 0.806,0.463 2.104,1.104 1.234,0.609 3.412,0.453 4.14,-0.547 0.704,-0.958 0.052,-2.49 -0.604,-4.824 -0.511,-1.842 -0.323,-6.394 -0.323,-6.394"
     id="path39" />
  <path
     style="fill:none;stroke:#231f20;stroke-width:0.565977;stroke-linecap:butt;stroke-linejoin:miter;stroke-miterlimit:4;stroke-dasharray:none;stroke-opacity:1"
     d="m 286.31154,91.5375 c 0.136,-3.131 0.505,-3.787 0.901,-4.615 2.5,-5.219 -0.109,-6.349 -2.964,-5.943 -3.358,0.458 -4.572,0.562 -4.249,6.848 0.093,1.751 -0.432,8.506 -0.432,8.506 -0.516,2.385 0.26,4.994 1.427,5.865 1.234,0.916 0.806,0.463 2.104,1.104 1.234,0.609 3.412,0.453 4.14,-0.547 0.704,-0.958 0.052,-2.49 -0.604,-4.824 -0.511,-1.842 -0.323,-6.394 -0.323,-6.394 z"
     id="path40" />
  <path
     style="fill:#ffffff;fill-opacity:1;fill-rule:nonzero;stroke:none"
     d="m 282.84354,109.9795 c 0.015,0.244 -1.073,0.604 -0.948,1.115 0.129,0.504 0.921,0.509 2.181,2.047 l 0.016,0.02 c 0.886,1.152 2.12,1.792 3.355,1.578 2.052,-0.338 3.328,-2.874 2.859,-5.661 -0.463,-2.787 -2.506,-4.765 -4.552,-4.417 -1.964,0.322 -3.219,2.666 -2.911,5.318"
     id="path41" />
  <path
     style="fill:none;stroke:#231f20;stroke-width:0.565977;stroke-linecap:butt;stroke-linejoin:miter;stroke-miterlimit:4;stroke-dasharray:none;stroke-opacity:1"
     d="m 282.84354,109.9795 c 0.015,0.244 -1.073,0.604 -0.948,1.115 0.129,0.504 0.921,0.509 2.181,2.047 l 0.016,0.02 c 0.886,1.152 2.12,1.792 3.355,1.578 2.052,-0.338 3.328,-2.874 2.859,-5.661 -0.463,-2.787 -2.506,-4.765 -4.552,-4.417 -1.964,0.322 -3.219,2.666 -2.911,5.318 z"
     id="path42" />
  <path
     style="fill:#231f20;fill-opacity:1;fill-rule:nonzero;stroke:none"
     d="m 289.25454,64.1358 c -3.588,-1.776 -3.574,2.3017 -3.787,2.7347 -2.233,4.479 -2.281,4.859 -3.749,8.385 -2.115,5.11 -2.787,8.932 -0.178,11.031 1.771,1.417 3.412,1.479 4.558,0.828 1.265,-0.719 2.994,-3.385 1.786,-6.011 l 0.214,-1.702 c 0.286,-1.12 0.421,-1.678 0.614,-2.224 0.318,-0.948 0.615,-1.984 1.14,-3.87 0.943,-3.344 0.844,-7.182 0.844,-7.182 0.308,-1.208 -1.442,-1.9897 -1.442,-1.9897"
     id="path43" />
  <path
     style="fill:none;stroke:#231f20;stroke-width:0.565977;stroke-linecap:butt;stroke-linejoin:miter;stroke-miterlimit:4;stroke-dasharray:none;stroke-opacity:1"
     d="m 289.25454,64.1358 c -3.588,-1.776 -3.574,2.3017 -3.787,2.7347 -2.233,4.479 -2.281,4.859 -3.749,8.385 -2.115,5.11 -2.787,8.932 -0.178,11.031 1.771,1.417 3.412,1.479 4.558,0.828 1.265,-0.719 2.994,-3.385 1.786,-6.011 l 0.214,-1.702 c 0.286,-1.12 0.421,-1.678 0.614,-2.224 0.318,-0.948 0.615,-1.984 1.14,-3.87 0.943,-3.344 0.844,-7.182 0.844,-7.182 0.308,-1.208 -1.442,-1.9897 -1.442,-1.9897 z"
     id="path44" />
  <path
     style="fill:#0098c9;fill-opacity:1;fill-rule:nonzero;stroke:none"
     d="m 287.40454,80.5785 -7.656,-1.541 c -0.093,0.645 -0.14,1.249 -0.166,1.837 -0.026,0.073 -0.058,0.152 -0.094,0.215 -0.401,0.702 -0.172,1.29 0.244,2.249 0.292,1.521 0.991,2.693 2.278,3.407 1.984,1.109 3.604,0.89 4.629,0.057 1.131,-0.917 2.396,-3.839 0.765,-6.224"
     id="path45" />
  <path
     style="fill:none;stroke:#231f20;stroke-width:0.565977;stroke-linecap:butt;stroke-linejoin:miter;stroke-miterlimit:4;stroke-dasharray:none;stroke-opacity:1"
     d="m 287.40454,80.5785 -7.656,-1.541 c -0.093,0.645 -0.14,1.249 -0.166,1.837 -0.026,0.073 -0.058,0.152 -0.094,0.215 -0.401,0.702 -0.172,1.29 0.244,2.249 0.292,1.521 0.991,2.693 2.278,3.407 1.984,1.109 3.604,0.89 4.629,0.057 1.131,-0.917 2.396,-3.839 0.765,-6.224 z"
     id="path46" />
  <path
     style="fill:#231f20;fill-opacity:1;fill-rule:nonzero;stroke:none"
     d="m 284.05154,121.2285 c -0.365,-0.53 -0.161,-2.463 -0.615,-4.01 -0.308,-1.036 0.063,-3.76 -0.328,-4.776 -0.349,-0.927 -0.422,-1.391 0.572,-1.968 0.59,-0.349 1.943,-0.636 2.224,-0.204 0.652,1 0.819,1.933 0.782,2.995 -0.052,1.22 -0.452,4.5 -0.583,5.105 -0.328,1.484 -0.005,2.151 -0.063,2.552 -0.088,0.754 -0.401,0.9 -0.906,0.948 -0.948,0.088 -1.083,-0.642 -1.083,-0.642"
     id="path47" />
  <path
     style="fill:none;stroke:#231f20;stroke-width:0.565977;stroke-linecap:butt;stroke-linejoin:miter;stroke-miterlimit:4;stroke-dasharray:none;stroke-opacity:1"
     d="m 284.05154,121.2285 c -0.365,-0.53 -0.161,-2.463 -0.615,-4.01 -0.308,-1.036 0.063,-3.76 -0.328,-4.776 -0.349,-0.927 -0.422,-1.391 0.572,-1.968 0.59,-0.349 1.943,-0.636 2.224,-0.204 0.652,1 0.819,1.933 0.782,2.995 -0.052,1.22 -0.452,4.5 -0.583,5.105 -0.328,1.484 -0.005,2.151 -0.063,2.552 -0.088,0.754 -0.401,0.9 -0.906,0.948 -0.948,0.088 -1.083,-0.642 -1.083,-0.642 z"
     id="path48" />
  <path
     style="fill:#231f20;fill-opacity:1;fill-rule:nonzero;stroke:none"
     d="m 283.72854,112.1715 c -1.297,-0.093 -0.772,-2.068 -0.714,-2.598 0.057,-0.547 0.048,-2.099 -0.124,-3.308 -0.162,-1.219 0.15,-2.796 -0.158,-5.104 -0.161,-1.219 0.448,-2.5 2.22,-2.656 1.744,-0.162 2.495,0.765 2.468,2.265 -0.025,1.491 -0.677,2.885 -0.806,4.396 -0.136,1.5 -0.126,3.052 -0.063,4.265 0.072,1.382 -0.407,2.09 -0.833,2.298 -1.079,0.526 -1.99,0.442 -1.99,0.442"
     id="path49" />
  <path
     style="fill:none;stroke:#231f20;stroke-width:0.565977;stroke-linecap:butt;stroke-linejoin:miter;stroke-miterlimit:4;stroke-dasharray:none;stroke-opacity:1"
     d="m 283.72854,112.1715 c -1.297,-0.093 -0.772,-2.068 -0.714,-2.598 0.057,-0.547 0.048,-2.099 -0.124,-3.308 -0.162,-1.219 0.15,-2.796 -0.158,-5.104 -0.161,-1.219 0.448,-2.5 2.22,-2.656 1.744,-0.162 2.495,0.765 2.468,2.265 -0.025,1.491 -0.677,2.885 -0.806,4.396 -0.136,1.5 -0.126,3.052 -0.063,4.265 0.072,1.382 -0.407,2.09 -0.833,2.298 -1.079,0.526 -1.99,0.442 -1.99,0.442 z"
     id="path50" />
  <path
     style="fill:#ffffff;fill-opacity:1;fill-rule:nonzero;stroke:none"
     d="m 286.87954,122.6985 c -0.355,-0.97 -1.423,-1.459 -2.385,-1.11 -0.964,0.354 -1.459,1.422 -1.104,2.386 0.348,0.968 1.416,1.462 2.385,1.109 0.963,-0.349 1.459,-1.423 1.104,-2.385"
     id="path51" />
  <path
     style="fill:none;stroke:#231f20;stroke-width:1.33171;stroke-linecap:butt;stroke-linejoin:miter;stroke-miterlimit:4;stroke-dasharray:none;stroke-opacity:1"
     d="m 286.87954,122.6985 c -0.355,-0.97 -1.423,-1.459 -2.385,-1.11 -0.964,0.354 -1.459,1.422 -1.104,2.386 0.348,0.968 1.416,1.462 2.385,1.109 0.963,-0.349 1.459,-1.423 1.104,-2.385 z"
     id="path52" />
  <path
     style="fill:#ffffff;fill-opacity:1;fill-rule:nonzero;stroke:none"
     d="m 199.83354,122.6985 c -0.355,-0.97 -1.423,-1.459 -2.386,-1.11 -0.964,0.354 -1.464,1.422 -1.104,2.386 0.348,0.968 1.416,1.462 2.386,1.109 0.962,-0.349 1.457,-1.423 1.104,-2.385"
     id="path53" />
  <path
     style="fill:none;stroke:#231f20;stroke-width:1.33171;stroke-linecap:butt;stroke-linejoin:miter;stroke-miterlimit:4;stroke-dasharray:none;stroke-opacity:1"
     d="m 199.83354,122.6985 c -0.355,-0.97 -1.423,-1.459 -2.386,-1.11 -0.964,0.354 -1.464,1.422 -1.104,2.386 0.348,0.968 1.416,1.462 2.386,1.109 0.962,-0.349 1.457,-1.423 1.104,-2.385 z"
     id="path54" />
  <path
     style="fill:#ffffff;fill-opacity:1;fill-rule:nonzero;stroke:none"
     d="m 101.90154,47.8705 c -0.355,-0.964 -1.423,-1.4586 -2.387,-1.1053 -0.962,0.3547 -1.457,1.4173 -1.104,2.3866 0.35,0.968 1.423,1.4627 2.386,1.104 0.969,-0.3493 1.458,-1.4226 1.105,-2.3853"
     id="path55" />
  <path
     style="fill:none;stroke:#231f20;stroke-width:1.33171;stroke-linecap:butt;stroke-linejoin:miter;stroke-miterlimit:4;stroke-dasharray:none;stroke-opacity:1"
     d="m 101.90154,47.8705 c -0.355,-0.964 -1.423,-1.4586 -2.387,-1.1053 -0.962,0.3547 -1.457,1.4173 -1.104,2.3866 0.35,0.968 1.423,1.4627 2.386,1.104 0.969,-0.3493 1.458,-1.4226 1.105,-2.3853 z"
     id="path56" />
  <path
     style="fill:#ffffff;fill-opacity:1;fill-rule:nonzero;stroke:none"
     d="m 77.48454,62.3131 c -0.355,-0.9693 -1.422,-1.4639 -2.386,-1.1093 -0.964,0.3533 -1.458,1.4213 -1.104,2.3907 0.35,0.9626 1.421,1.457 2.386,1.104 0.968,-0.3494 1.458,-1.4227 1.104,-2.3854"
     id="path57" />
  <path
     style="fill:none;stroke:#231f20;stroke-width:1.33171;stroke-linecap:butt;stroke-linejoin:miter;stroke-miterlimit:4;stroke-dasharray:none;stroke-opacity:1"
     d="m 77.48454,62.3131 c -0.355,-0.9693 -1.422,-1.4639 -2.386,-1.1093 -0.964,0.3533 -1.458,1.4213 -1.104,2.3907 0.35,0.9626 1.421,1.457 2.386,1.104 0.968,-0.3494 1.458,-1.4227 1.104,-2.3854 z"
     id="path58" />
  <path
     style="fill:#ffffff;fill-opacity:1;fill-rule:nonzero;stroke:none"
     d="m 101.11454,122.6985 c -0.354,-0.97 -1.422,-1.459 -2.385,-1.11 -0.964,0.354 -1.464,1.422 -1.105,2.386 0.349,0.968 1.417,1.462 2.386,1.109 0.963,-0.349 1.458,-1.423 1.104,-2.385"
     id="path59" />
  <path
     style="fill:none;stroke:#231f20;stroke-width:1.33171;stroke-linecap:butt;stroke-linejoin:miter;stroke-miterlimit:4;stroke-dasharray:none;stroke-opacity:1"
     d="m 101.11454,122.6985 c -0.354,-0.97 -1.422,-1.459 -2.385,-1.11 -0.964,0.354 -1.464,1.422 -1.105,2.386 0.349,0.968 1.417,1.462 2.386,1.109 0.963,-0.349 1.458,-1.423 1.104,-2.385 z"
     id="path60" />
  <path
     style="fill:#231f20;fill-opacity:1;fill-rule:nonzero;stroke:none"
     d="m 101.28654,122.1555 c 0.474,-0.432 2.416,-0.5 3.88,-1.172 0.984,-0.452 3.735,-0.468 4.682,-0.994 0.87,-0.479 1.318,-0.615 2.032,0.286 0.421,0.538 0.896,1.839 0.516,2.172 -0.902,0.787 -1.798,1.084 -2.855,1.199 -1.213,0.129 -4.521,0.186 -5.136,0.14 -1.52,-0.115 -2.129,0.297 -2.536,0.302 -0.755,0.015 -0.953,-0.27 -1.068,-0.766 -0.219,-0.932 0.485,-1.167 0.485,-1.167"
     id="path61" />
  <path
     style="fill:none;stroke:#231f20;stroke-width:0.565977;stroke-linecap:butt;stroke-linejoin:miter;stroke-miterlimit:4;stroke-dasharray:none;stroke-opacity:1"
     d="m 101.28654,122.1555 c 0.474,-0.432 2.416,-0.5 3.88,-1.172 0.984,-0.452 3.735,-0.468 4.682,-0.994 0.87,-0.479 1.318,-0.615 2.032,0.286 0.421,0.538 0.896,1.839 0.516,2.172 -0.902,0.787 -1.798,1.084 -2.855,1.199 -1.213,0.129 -4.521,0.186 -5.136,0.14 -1.52,-0.115 -2.129,0.297 -2.536,0.302 -0.755,0.015 -0.953,-0.27 -1.068,-0.766 -0.219,-0.932 0.485,-1.167 0.485,-1.167 z"
     id="path62" />
  <path
     style="fill:#231f20;fill-opacity:1;fill-rule:nonzero;stroke:none"
     d="m 110.66654,120.5105 c 0.302,-1.255 2.162,-0.421 2.678,-0.276 0.525,0.14 2.066,0.391 3.285,0.427 1.224,0.037 2.735,0.609 5.063,0.677 1.224,0.036 2.385,0.849 2.256,2.625 -0.136,1.749 -1.167,2.333 -2.642,2.063 -1.473,-0.271 -2.738,-1.147 -4.202,-1.522 -1.464,-0.374 -2.995,-0.625 -4.199,-0.76 -1.369,-0.156 -1.995,-0.745 -2.129,-1.198 -0.339,-1.146 -0.11,-2.036 -0.11,-2.036"
     id="path63" />
  <path
     style="fill:none;stroke:#231f20;stroke-width:0.565977;stroke-linecap:butt;stroke-linejoin:miter;stroke-miterlimit:4;stroke-dasharray:none;stroke-opacity:1"
     d="m 110.66654,120.5105 c 0.302,-1.255 2.162,-0.421 2.678,-0.276 0.525,0.14 2.066,0.391 3.285,0.427 1.224,0.037 2.735,0.609 5.063,0.677 1.224,0.036 2.385,0.849 2.256,2.625 -0.136,1.749 -1.167,2.333 -2.642,2.063 -1.473,-0.271 -2.738,-1.147 -4.202,-1.522 -1.464,-0.374 -2.995,-0.625 -4.199,-0.76 -1.369,-0.156 -1.995,-0.745 -2.129,-1.198 -0.339,-1.146 -0.11,-2.036 -0.11,-2.036 z"
     id="path64" />
  <path
     style="fill:#231f20;fill-opacity:1;fill-rule:nonzero;stroke:none"
     d="m 107.94854,138.8225 c 0.629,-0.14 2.342,0.781 3.942,0.938 1.083,0.104 3.468,1.474 4.552,1.495 0.99,0.02 1.443,0.129 1.61,1.271 0.098,0.672 -0.147,2.036 -0.647,2.134 -1.167,0.23 -2.093,0.032 -3.072,-0.4 -1.109,-0.5 -4,-2.109 -4.505,-2.458 -1.256,-0.86 -1.99,-0.814 -2.344,-1.016 -0.667,-0.364 -0.688,-0.714 -0.542,-1.192 0.282,-0.923 1.006,-0.772 1.006,-0.772"
     id="path65" />
  <path
     style="fill:none;stroke:#231f20;stroke-width:0.565977;stroke-linecap:butt;stroke-linejoin:miter;stroke-miterlimit:4;stroke-dasharray:none;stroke-opacity:1"
     d="m 107.94854,138.8225 c 0.629,-0.14 2.342,0.781 3.942,0.938 1.083,0.104 3.468,1.474 4.552,1.495 0.99,0.02 1.443,0.129 1.61,1.271 0.098,0.672 -0.147,2.036 -0.647,2.134 -1.167,0.23 -2.093,0.032 -3.072,-0.4 -1.109,-0.5 -4,-2.109 -4.505,-2.458 -1.256,-0.86 -1.99,-0.814 -2.344,-1.016 -0.667,-0.364 -0.688,-0.714 -0.542,-1.192 0.282,-0.923 1.006,-0.772 1.006,-0.772 z"
     id="path66" />
  <path
     style="fill:#231f20;fill-opacity:1;fill-rule:nonzero;stroke:none"
     d="m 115.72454,142.8645 c -0.71,-1.089 1.172,-1.865 1.634,-2.146 0.464,-0.282 1.699,-1.234 2.563,-2.099 0.865,-0.864 2.317,-1.568 3.964,-3.213 0.869,-0.86 2.255,-1.156 3.453,0.156 1.187,1.297 0.906,2.448 -0.302,3.338 -1.208,0.886 -2.714,1.203 -3.995,2.016 -1.271,0.807 -2.5,1.75 -3.432,2.531 -1.052,0.891 -1.907,0.943 -2.333,0.724 -1.063,-0.536 -1.552,-1.307 -1.552,-1.307"
     id="path67" />
  <path
     style="fill:none;stroke:#231f20;stroke-width:0.565977;stroke-linecap:butt;stroke-linejoin:miter;stroke-miterlimit:4;stroke-dasharray:none;stroke-opacity:1"
     d="m 115.72454,142.8645 c -0.71,-1.089 1.172,-1.865 1.634,-2.146 0.464,-0.282 1.699,-1.234 2.563,-2.099 0.865,-0.864 2.317,-1.568 3.964,-3.213 0.869,-0.86 2.255,-1.156 3.453,0.156 1.187,1.297 0.906,2.448 -0.302,3.338 -1.208,0.886 -2.714,1.203 -3.995,2.016 -1.271,0.807 -2.5,1.75 -3.432,2.531 -1.052,0.891 -1.907,0.943 -2.333,0.724 -1.063,-0.536 -1.552,-1.307 -1.552,-1.307 z"
     id="path68" />
  <path
     style="fill:#231f20;fill-opacity:1;fill-rule:nonzero;stroke:none"
     d="m 101.90154,137.4845 c 0.484,0.542 3.343,2.088 4.009,2.411 0.6,0.297 1.428,1.099 2.334,0.38 0.365,-0.292 0.693,-0.973 0.75,-1.292 0.052,-0.249 -0.188,-0.479 -0.562,-0.619 -0.62,-0.234 -0.891,-0.057 -2.104,-0.442 0,0 -0.308,-0.048 -0.855,-0.095 -1.62,-0.151 -0.927,0.068 -3.224,-0.676 -0.161,-0.063 -0.333,0.067 -0.364,0.176 -0.037,0.177 0.016,0.157 0.016,0.157"
     id="path69" />
  <path
     style="fill:none;stroke:#231f20;stroke-width:0.565977;stroke-linecap:round;stroke-linejoin:round;stroke-miterlimit:4;stroke-dasharray:none;stroke-opacity:1"
     d="m 101.90154,137.4845 c 0.484,0.542 3.343,2.088 4.009,2.411 0.6,0.297 1.428,1.099 2.334,0.38 0.365,-0.292 0.693,-0.973 0.75,-1.292 0.052,-0.249 -0.188,-0.479 -0.562,-0.619 -0.62,-0.234 -0.891,-0.057 -2.104,-0.442 0,0 -0.308,-0.048 -0.855,-0.095 -1.62,-0.151 -0.927,0.068 -3.224,-0.676 -0.161,-0.063 -0.333,0.067 -0.364,0.176 -0.037,0.177 0.016,0.157 0.016,0.157 z"
     id="path70" />
  <path
     style="fill:#231f20;fill-opacity:1;fill-rule:nonzero;stroke:none"
     d="m 116.31254,135.5105 c 2.817,-0.131 5.032,-1.912 4.937,-3.99 -0.093,-2.073 -2.459,-3.646 -5.281,-3.521 -2.823,0.125 -5.036,1.917 -4.938,3.989 0.094,2.074 2.459,3.652 5.282,3.522"
     id="path71" />
  <path
     style="fill:none;stroke:#231f20;stroke-width:0.565977;stroke-linecap:butt;stroke-linejoin:miter;stroke-miterlimit:4;stroke-dasharray:none;stroke-opacity:1"
     d="m 116.31254,135.5105 c 2.817,-0.131 5.032,-1.912 4.937,-3.99 -0.093,-2.073 -2.459,-3.646 -5.281,-3.521 -2.823,0.125 -5.036,1.917 -4.938,3.989 0.094,2.074 2.459,3.652 5.282,3.522 z"
     id="path72" />
  <path
     style="fill:none;stroke:#231f20;stroke-width:0.399514;stroke-linecap:butt;stroke-linejoin:miter;stroke-miterlimit:4;stroke-dasharray:none;stroke-opacity:1"
     d="m 150.09354,104.1615 c 26.224,3.745 25.026,16.969 16.994,19.479"
     id="path73" />
  <path
     style="fill:#231f20;fill-opacity:1;fill-rule:nonzero;stroke:none"
     d="m 165.93754,123.9995 c 0.478,-0.369 1.041,-0.921 1.344,-1.416 l -0.043,1.011 0.609,0.801 c -0.53,-0.229 -1.306,-0.364 -1.91,-0.396"
     id="path74" />
  <path
     style="fill:none;stroke:#231f20;stroke-width:0.399514;stroke-linecap:butt;stroke-linejoin:miter;stroke-miterlimit:4;stroke-dasharray:none;stroke-opacity:1"
     d="m 127.91654,51.7132 c 7.562,25.3903 -4.954,29.8283 -10.594,23.5843"
     id="path75" />
  <path
     style="fill:#231f20;fill-opacity:1;fill-rule:nonzero;stroke:none"
     d="m 116.51454,74.4015 c 0.538,0.281 1.276,0.562 1.85,0.63 l -0.938,0.38 -0.473,0.891 c -0.011,-0.579 -0.215,-1.339 -0.439,-1.901"
     id="path76" />
  <path
     style="fill:#231f20;fill-opacity:1;fill-rule:nonzero;stroke:none"
     d="m 137.29054,122.3645 c -1.025,-3.453 0.647,-3.609 4.152,-5.693 3.833,-2.286 8.072,-4.254 11.339,-4.708 3.656,-0.521 3.76,-1.026 4.896,0.516 1.134,1.552 0.52,2.026 0.145,3.26 -0.427,1.427 -7.656,2.818 -11.651,5.391 -1.87,1.202 -5.573,5.312 -6.619,4.306 -1.052,-1.005 -2.262,-3.072 -2.262,-3.072"
     id="path77" />
  <path
     style="fill:none;stroke:#231f20;stroke-width:0.565977;stroke-linecap:butt;stroke-linejoin:miter;stroke-miterlimit:4;stroke-dasharray:none;stroke-opacity:1"
     d="m 137.29054,122.3645 c -1.025,-3.453 0.647,-3.609 4.152,-5.693 3.833,-2.286 8.072,-4.254 11.339,-4.708 3.656,-0.521 3.76,-1.026 4.896,0.516 1.134,1.552 0.52,2.026 0.145,3.26 -0.427,1.427 -7.656,2.818 -11.651,5.391 -1.87,1.202 -5.573,5.312 -6.619,4.306 -1.052,-1.005 -2.262,-3.072 -2.262,-3.072 z"
     id="path78" />
  <path
     style="fill:#231f20;fill-opacity:1;fill-rule:nonzero;stroke:none"
     d="m 156.30654,114.2755 c -1.12,-1.962 -1.473,-2.52 0.871,-3.405 0.593,-0.224 2.296,-0.729 2.609,-0.959 1.047,-0.765 2.328,-1.568 8.848,-2.48 1.005,-0.14 2.891,-0.738 4.261,-1.052 1.323,-0.306 0.927,2.1 0.411,2.224 -1.667,0.402 -2.656,1.016 -3.235,1.246 -0.394,0.156 -1.186,0.322 -2.541,1.286 -3.489,2.479 -5.208,1.954 -5.984,2.411 -2.224,1.313 -3.86,2.891 -4.38,2.475 -0.855,-0.672 -0.86,-1.746 -0.86,-1.746"
     id="path79" />
  <path
     style="fill:none;stroke:#231f20;stroke-width:0.565977;stroke-linecap:butt;stroke-linejoin:miter;stroke-miterlimit:4;stroke-dasharray:none;stroke-opacity:1"
     d="m 156.30654,114.2755 c -1.12,-1.962 -1.473,-2.52 0.871,-3.405 0.593,-0.224 2.296,-0.729 2.609,-0.959 1.047,-0.765 2.328,-1.568 8.848,-2.48 1.005,-0.14 2.891,-0.738 4.261,-1.052 1.323,-0.306 0.927,2.1 0.411,2.224 -1.667,0.402 -2.656,1.016 -3.235,1.246 -0.394,0.156 -1.186,0.322 -2.541,1.286 -3.489,2.479 -5.208,1.954 -5.984,2.411 -2.224,1.313 -3.86,2.891 -4.38,2.475 -0.855,-0.672 -0.86,-1.746 -0.86,-1.746 z"
     id="path80" />
  <path
     style="fill:#231f20;fill-opacity:1;fill-rule:nonzero;stroke:none"
     d="m 140.12454,127.9165 c 2.016,2.984 3.204,1.787 7.037,0.396 4.192,-1.521 8.406,-3.557 10.828,-5.797 2.708,-2.494 3.172,-2.254 2.692,-4.109 -0.474,-1.865 -1.234,-1.693 -2.427,-2.183 -1.38,-0.568 -7.025,4.147 -11.547,5.604 -2.119,0.683 -7.641,0.948 -7.53,2.396 0.119,1.448 0.947,3.693 0.947,3.693"
     id="path81" />
  <path
     style="fill:none;stroke:#231f20;stroke-width:0.565977;stroke-linecap:butt;stroke-linejoin:miter;stroke-miterlimit:4;stroke-dasharray:none;stroke-opacity:1"
     d="m 140.12454,127.9165 c 2.016,2.984 3.204,1.787 7.037,0.396 4.192,-1.521 8.406,-3.557 10.828,-5.797 2.708,-2.494 3.172,-2.254 2.692,-4.109 -0.474,-1.865 -1.234,-1.693 -2.427,-2.183 -1.38,-0.568 -7.025,4.147 -11.547,5.604 -2.119,0.683 -7.641,0.948 -7.53,2.396 0.119,1.448 0.947,3.693 0.947,3.693 z"
     id="path82" />
  <path
     style="fill:#231f20;fill-opacity:1;fill-rule:nonzero;stroke:none"
     d="m 158.42654,118.3495 c 0.823,2.109 1.036,2.734 3.193,1.473 0.552,-0.328 2.01,-1.333 2.391,-1.432 1.255,-0.328 2.681,-0.812 7.489,-5.312 0.75,-0.699 2.396,-1.787 3.5,-2.651 1.067,-0.838 -1.042,-2.048 -1.469,-1.72 -1.359,1.043 -2.464,1.423 -3,1.724 -0.375,0.219 -0.995,0.73 -2.599,1.172 -4.125,1.152 -4.802,2.824 -5.645,3.136 -2.412,0.907 -4.667,1.183 -4.677,1.85 -0.011,1.088 0.817,1.76 0.817,1.76"
     id="path83" />
  <path
     style="fill:none;stroke:#231f20;stroke-width:0.565977;stroke-linecap:butt;stroke-linejoin:miter;stroke-miterlimit:4;stroke-dasharray:none;stroke-opacity:1"
     d="m 158.42654,118.3495 c 0.823,2.109 1.036,2.734 3.193,1.473 0.552,-0.328 2.01,-1.333 2.391,-1.432 1.255,-0.328 2.681,-0.812 7.489,-5.312 0.75,-0.699 2.396,-1.787 3.5,-2.651 1.067,-0.838 -1.042,-2.048 -1.469,-1.72 -1.359,1.043 -2.464,1.423 -3,1.724 -0.375,0.219 -0.995,0.73 -2.599,1.172 -4.125,1.152 -4.802,2.824 -5.645,3.136 -2.412,0.907 -4.667,1.183 -4.677,1.85 -0.011,1.088 0.817,1.76 0.817,1.76 z"
     id="path84" />
  <path
     style="fill:#231f20;fill-opacity:1;fill-rule:nonzero;stroke:none"
     d="m 178.40554,109.5465 c -0.416,0.527 -2.151,0.037 -3.927,0.881 -0.364,0.176 -0.74,0.14 -1.109,0.171 -1.511,0.12 -2.932,-0.604 -0.006,-3.077 0.402,-0.339 2.423,-0.912 2.98,-1.459 1.318,-1.317 4.64,-1.167 4.739,-0.656 0.219,1.099 -2.677,4.14 -2.677,4.14"
     id="path85" />
  <path
     style="fill:none;stroke:#231f20;stroke-width:0.644548;stroke-linecap:round;stroke-linejoin:round;stroke-miterlimit:4;stroke-dasharray:none;stroke-opacity:1"
     d="m 178.40554,109.5465 c -0.416,0.527 -2.151,0.037 -3.927,0.881 -0.364,0.176 -0.74,0.14 -1.109,0.171 -1.511,0.12 -2.932,-0.604 -0.006,-3.077 0.402,-0.339 2.423,-0.912 2.98,-1.459 1.318,-1.317 4.64,-1.167 4.739,-0.656 0.219,1.099 -2.677,4.14 -2.677,4.14 z"
     id="path86" />
  <path
     style="fill:#231f20;fill-opacity:1;fill-rule:nonzero;stroke:none"
     d="m 175.82754,103.9745 c -0.666,-0.043 -1.442,1.583 -3.256,2.353 -0.369,0.162 -0.593,0.464 -0.858,0.724 -1.084,1.058 -1.484,2.599 2.301,2.038 0.527,-0.079 2.292,-1.215 3.073,-1.267 1.86,-0.124 3.938,-2.719 3.62,-3.129 -0.677,-0.886 -4.88,-0.719 -4.88,-0.719"
     id="path87" />
  <path
     style="fill:none;stroke:#231f20;stroke-width:0.644548;stroke-linecap:round;stroke-linejoin:round;stroke-miterlimit:4;stroke-dasharray:none;stroke-opacity:1"
     d="m 175.82754,103.9745 c -0.666,-0.043 -1.442,1.583 -3.256,2.353 -0.369,0.162 -0.593,0.464 -0.858,0.724 -1.084,1.058 -1.484,2.599 2.301,2.038 0.527,-0.079 2.292,-1.215 3.073,-1.267 1.86,-0.124 3.938,-2.719 3.62,-3.129 -0.677,-0.886 -4.88,-0.719 -4.88,-0.719 z"
     id="path88" />
  <path
     style="fill:#231f20;fill-opacity:1;fill-rule:nonzero;stroke:none"
     d="m 142.49454,120.0315 c -0.458,0.563 -1.537,3.629 -1.75,4.343 -0.198,0.636 -0.864,1.578 -0.006,2.36 0.344,0.312 1.063,0.53 1.386,0.541 0.256,0.005 0.448,-0.26 0.526,-0.651 0.136,-0.65 -0.082,-0.896 0.099,-2.156 0,0 0,-0.302 -0.031,-0.854 -0.104,-1.631 -0.213,-0.902 0.167,-3.292 0.025,-0.171 -0.131,-0.323 -0.245,-0.328 -0.178,-0.015 -0.146,0.037 -0.146,0.037"
     id="path89" />
  <path
     style="fill:none;stroke:#231f20;stroke-width:0.565977;stroke-linecap:round;stroke-linejoin:round;stroke-miterlimit:4;stroke-dasharray:none;stroke-opacity:1"
     d="m 142.49454,120.0315 c -0.458,0.563 -1.537,3.629 -1.75,4.343 -0.198,0.636 -0.864,1.578 -0.006,2.36 0.344,0.312 1.063,0.53 1.386,0.541 0.256,0.005 0.448,-0.26 0.526,-0.651 0.136,-0.65 -0.082,-0.896 0.099,-2.156 0,0 0,-0.302 -0.031,-0.854 -0.104,-1.631 -0.213,-0.902 0.167,-3.292 0.025,-0.171 -0.131,-0.323 -0.245,-0.328 -0.178,-0.015 -0.146,0.037 -0.146,0.037 z"
     id="path90" />
  <path
     style="fill:#0098c9;fill-opacity:1;fill-rule:nonzero;stroke:none"
     d="m 144.88554,123.6555 c -0.152,-0.468 -0.751,-0.911 -0.751,-0.911 0,0 -5.734,1.135 -8.014,-0.984 l -0.126,-0.333 c 0.536,-1.13 -0.974,0.749 -1.682,0.963 -3.11,0.958 -8.203,1.224 -9.516,0.964 -1.796,-0.366 -3.083,-2.651 -4.547,-1.058 0,0 -1.563,1.167 -0.348,3.698 0.437,0.917 0.447,3.245 0.447,3.245 0,0 -0.119,1.344 0.224,2.459 0.302,0.989 1.078,1.833 1.245,2.005 v 0.004 c 0,0 1.369,1.876 1.563,2.876 0.525,2.76 2.708,2.624 2.708,2.624 2.125,0.417 1.568,-2.041 2.797,-3.4 0.901,-0.989 5.161,-3.792 8.229,-4.871 0.703,-0.238 3.036,0.376 1.932,-0.213 l -0.098,-0.344 c 0.582,-3.057 5.874,-5.541 5.874,-5.541 0,0 0.219,-0.714 0.063,-1.183"
     id="path91" />
  <path
     style="fill:none;stroke:#231f20;stroke-width:0.565977;stroke-linecap:butt;stroke-linejoin:miter;stroke-miterlimit:4;stroke-dasharray:none;stroke-opacity:1"
     d="m 144.88554,123.6555 c -0.152,-0.468 -0.751,-0.911 -0.751,-0.911 0,0 -5.734,1.135 -8.014,-0.984 l -0.126,-0.333 c 0.536,-1.13 -0.974,0.749 -1.682,0.963 -3.11,0.958 -8.203,1.224 -9.516,0.964 -1.796,-0.366 -3.083,-2.651 -4.547,-1.058 0,0 -1.563,1.167 -0.348,3.698 0.437,0.917 0.447,3.245 0.447,3.245 0,0 -0.119,1.344 0.224,2.459 0.302,0.989 1.078,1.833 1.245,2.005 v 0.004 c 0,0 1.369,1.876 1.563,2.876 0.525,2.76 2.708,2.624 2.708,2.624 2.125,0.417 1.568,-2.041 2.797,-3.4 0.901,-0.989 5.161,-3.792 8.229,-4.871 0.703,-0.238 3.036,0.376 1.932,-0.213 l -0.098,-0.344 c 0.582,-3.057 5.874,-5.541 5.874,-5.541 0,0 0.219,-0.714 0.063,-1.183 z"
     id="path92" />
  <path
     style="fill:#0098c9;fill-opacity:1;fill-rule:nonzero;stroke:none"
     d="m 138.39054,130.9315 c 0.334,0.084 1.698,0.229 2.162,0.229 2.968,-0.025 6.593,-1.593 7.847,-1.812 1.262,-0.218 -1.28,-6.302 -1.28,-6.302 l -1.442,-0.26 c 0.233,-0.583 -0.068,-0.178 -0.068,-0.178 l 0.864,-1.364 c 0,0 -2.197,-6.083 -3.073,-5.562 -1.198,0.708 -5.452,2.525 -7.198,4.245 -0.958,0.943 -1.286,1.911 -1.286,1.911 0,0 2.374,2.969 2.912,4.292 0.536,1.322 0.562,4.801 0.562,4.801"
     id="path93" />
  <path
     style="fill:none;stroke:#231f20;stroke-width:0.565977;stroke-linecap:butt;stroke-linejoin:miter;stroke-miterlimit:4;stroke-dasharray:none;stroke-opacity:1"
     d="m 138.39054,130.9315 c 0.334,0.084 1.698,0.229 2.162,0.229 2.968,-0.025 6.593,-1.593 7.847,-1.812 1.262,-0.218 -1.28,-6.302 -1.28,-6.302 l -1.442,-0.26 c 0.233,-0.583 -0.068,-0.178 -0.068,-0.178 l 0.864,-1.364 c 0,0 -2.197,-6.083 -3.073,-5.562 -1.198,0.708 -5.452,2.525 -7.198,4.245 -0.958,0.943 -1.286,1.911 -1.286,1.911 0,0 2.374,2.969 2.912,4.292 0.536,1.322 0.562,4.801 0.562,4.801 z"
     id="path94" />
  <path
     style="fill:none;stroke:#231f20;stroke-width:0.565977;stroke-linecap:round;stroke-linejoin:round;stroke-miterlimit:4;stroke-dasharray:none;stroke-opacity:1"
     d="m 146.44254,125.8275 c 0.651,-1.681 -0.969,-3.12 -0.969,-3.12 -0.047,-1.833 -1.26,-2.88 -1.26,-2.88"
     id="path95" />
  <path
     style="fill:#231f20;fill-opacity:1;fill-rule:nonzero;stroke:none"
     d="m 197.71854,120.7505 c -0.188,-0.615 0.593,-2.396 0.625,-4.005 0.02,-1.084 1.187,-3.568 1.124,-4.651 -0.052,-0.991 0.016,-1.448 1.142,-1.709 0.661,-0.151 2.041,-0.015 2.181,0.48 0.319,1.145 0.199,2.082 -0.156,3.088 -0.411,1.15 -1.787,4.156 -2.093,4.688 -0.766,1.322 -0.656,2.052 -0.828,2.415 -0.314,0.694 -0.656,0.746 -1.151,0.642 -0.939,-0.21 -0.844,-0.948 -0.844,-0.948"
     id="path96" />
  <path
     style="fill:none;stroke:#231f20;stroke-width:0.565977;stroke-linecap:butt;stroke-linejoin:miter;stroke-miterlimit:4;stroke-dasharray:none;stroke-opacity:1"
     d="m 197.71854,120.7505 c -0.188,-0.615 0.593,-2.396 0.625,-4.005 0.02,-1.084 1.187,-3.568 1.124,-4.651 -0.052,-0.991 0.016,-1.448 1.142,-1.709 0.661,-0.151 2.041,-0.015 2.181,0.48 0.319,1.145 0.199,2.082 -0.156,3.088 -0.411,1.15 -1.787,4.156 -2.093,4.688 -0.766,1.322 -0.656,2.052 -0.828,2.415 -0.314,0.694 -0.656,0.746 -1.151,0.642 -0.939,-0.21 -0.844,-0.948 -0.844,-0.948 z"
     id="path97" />
  <path
     style="fill:#231f20;fill-opacity:1;fill-rule:nonzero;stroke:none"
     d="m 200.29554,111.5835 c -1.005,-0.818 0.552,-2.13 0.907,-2.537 0.36,-0.411 1.251,-1.692 1.808,-2.771 0.561,-1.093 1.733,-2.208 2.801,-4.27 0.568,-1.088 1.798,-1.787 3.344,-0.902 1.516,0.88 1.599,2.063 0.714,3.271 -0.875,1.215 -2.219,1.975 -3.188,3.136 -0.974,1.156 -1.854,2.427 -2.5,3.453 -0.734,1.167 -1.536,1.474 -2.004,1.402 -1.183,-0.188 -1.882,-0.782 -1.882,-0.782"
     id="path98" />
  <path
     style="fill:none;stroke:#231f20;stroke-width:0.565977;stroke-linecap:butt;stroke-linejoin:miter;stroke-miterlimit:4;stroke-dasharray:none;stroke-opacity:1"
     d="m 200.29554,111.5835 c -1.005,-0.818 0.552,-2.13 0.907,-2.537 0.36,-0.411 1.251,-1.692 1.808,-2.771 0.561,-1.093 1.733,-2.208 2.801,-4.27 0.568,-1.088 1.798,-1.787 3.344,-0.902 1.516,0.88 1.599,2.063 0.714,3.271 -0.875,1.215 -2.219,1.975 -3.188,3.136 -0.974,1.156 -1.854,2.427 -2.5,3.453 -0.734,1.167 -1.536,1.474 -2.004,1.402 -1.183,-0.188 -1.882,-0.782 -1.882,-0.782 z"
     id="path99" />
  <path
     style="fill:#231f20;fill-opacity:1;fill-rule:nonzero;stroke:none"
     d="m 215.62954,121.9585 c 0.141,-0.631 1.718,-1.776 2.552,-3.151 0.562,-0.928 2.824,-2.49 3.313,-3.453 0.448,-0.885 0.744,-1.245 1.844,-0.907 0.651,0.203 1.771,1.016 1.645,1.511 -0.302,1.151 -0.88,1.901 -1.693,2.593 -0.927,0.787 -3.629,2.699 -4.167,3 -1.317,0.761 -1.593,1.443 -1.926,1.677 -0.62,0.438 -0.943,0.308 -1.312,-0.03 -0.708,-0.652 -0.256,-1.24 -0.256,-1.24"
     id="path100" />
  <path
     style="fill:none;stroke:#231f20;stroke-width:0.565977;stroke-linecap:butt;stroke-linejoin:miter;stroke-miterlimit:4;stroke-dasharray:none;stroke-opacity:1"
     d="m 215.62954,121.9585 c 0.141,-0.631 1.718,-1.776 2.552,-3.151 0.562,-0.928 2.824,-2.49 3.313,-3.453 0.448,-0.885 0.744,-1.245 1.844,-0.907 0.651,0.203 1.771,1.016 1.645,1.511 -0.302,1.151 -0.88,1.901 -1.693,2.593 -0.927,0.787 -3.629,2.699 -4.167,3 -1.317,0.761 -1.593,1.443 -1.926,1.677 -0.62,0.438 -0.943,0.308 -1.312,-0.03 -0.708,-0.652 -0.256,-1.24 -0.256,-1.24 z"
     id="path101" />
  <path
     style="fill:#231f20;fill-opacity:1;fill-rule:nonzero;stroke:none"
     d="m 222.63454,116.6985 c -1.287,0.167 -1.172,-1.865 -1.224,-2.401 -0.057,-0.547 -0.38,-2.068 -0.781,-3.219 -0.411,-1.161 -0.416,-2.771 -1.187,-4.969 -0.401,-1.156 -0.068,-2.531 1.64,-3.042 1.683,-0.51 2.595,0.24 2.875,1.719 0.277,1.469 -0.088,2.964 0.089,4.469 0.177,1.5 0.495,3.015 0.797,4.187 0.348,1.339 0.026,2.131 -0.354,2.423 -0.948,0.729 -1.855,0.833 -1.855,0.833"
     id="path102" />
  <path
     style="fill:none;stroke:#231f20;stroke-width:0.565977;stroke-linecap:butt;stroke-linejoin:miter;stroke-miterlimit:4;stroke-dasharray:none;stroke-opacity:1"
     d="m 222.63454,116.6985 c -1.287,0.167 -1.172,-1.865 -1.224,-2.401 -0.057,-0.547 -0.38,-2.068 -0.781,-3.219 -0.411,-1.161 -0.416,-2.771 -1.187,-4.969 -0.401,-1.156 -0.068,-2.531 1.64,-3.042 1.683,-0.51 2.595,0.24 2.875,1.719 0.277,1.469 -0.088,2.964 0.089,4.469 0.177,1.5 0.495,3.015 0.797,4.187 0.348,1.339 0.026,2.131 -0.354,2.423 -0.948,0.729 -1.855,0.833 -1.855,0.833 z"
     id="path103" />
  <path
     style="fill:#231f20;fill-opacity:1;fill-rule:nonzero;stroke:none"
     d="m 211.80154,126.8325 c 0.704,-0.202 3.333,-2.114 3.912,-2.572 0.521,-0.412 1.609,-0.813 1.353,-1.938 -0.104,-0.458 -0.577,-1.047 -0.837,-1.239 -0.21,-0.152 -0.516,-0.037 -0.803,0.239 -0.484,0.458 -0.443,0.776 -1.312,1.709 0,0 -0.177,0.255 -0.453,0.729 -0.844,1.395 -0.344,0.859 -2.011,2.61 -0.12,0.118 -0.079,0.333 0.005,0.405 0.146,0.109 0.146,0.057 0.146,0.057"
     id="path104" />
  <path
     style="fill:none;stroke:#231f20;stroke-width:0.565977;stroke-linecap:round;stroke-linejoin:round;stroke-miterlimit:4;stroke-dasharray:none;stroke-opacity:1"
     d="m 211.80154,126.8325 c 0.704,-0.202 3.333,-2.114 3.912,-2.572 0.521,-0.412 1.609,-0.813 1.353,-1.938 -0.104,-0.458 -0.577,-1.047 -0.837,-1.239 -0.21,-0.152 -0.516,-0.037 -0.803,0.239 -0.484,0.458 -0.443,0.776 -1.312,1.709 0,0 -0.177,0.255 -0.453,0.729 -0.844,1.395 -0.344,0.859 -2.011,2.61 -0.12,0.118 -0.079,0.333 0.005,0.405 0.146,0.109 0.146,0.057 0.146,0.057 z"
     id="path105" />
  <path
     style="fill:#231f20;fill-opacity:1;fill-rule:nonzero;stroke:none"
     d="m 216.25954,112.9895 c 1.104,-2.604 0.454,-5.37 -1.458,-6.182 -1.911,-0.813 -4.354,0.635 -5.458,3.239 -1.109,2.6 -0.453,5.365 1.458,6.172 1.906,0.819 4.354,-0.635 5.458,-3.229"
     id="path106" />
  <path
     style="fill:none;stroke:#231f20;stroke-width:0.565977;stroke-linecap:butt;stroke-linejoin:miter;stroke-miterlimit:4;stroke-dasharray:none;stroke-opacity:1"
     d="m 216.25954,112.9895 c 1.104,-2.604 0.454,-5.37 -1.458,-6.182 -1.911,-0.813 -4.354,0.635 -5.458,3.239 -1.109,2.6 -0.453,5.365 1.458,6.172 1.906,0.819 4.354,-0.635 5.458,-3.229 z"
     id="path107" />
  <path
     style="fill:none;stroke:#231f20;stroke-width:0.399514;stroke-linecap:butt;stroke-linejoin:miter;stroke-miterlimit:4;stroke-dasharray:none;stroke-opacity:1"
     d="m 202.61954,68.9585 c 14.724,-22.016 26.13,-15.2133 24.911,-6.8854"
     id="path108" />
  <path
     style="fill:#231f20;fill-opacity:1;fill-rule:nonzero;stroke:none"
     d="m 227.35854,63.2651 c -0.124,-0.588 -0.38,-1.3373 -0.692,-1.8226 l 0.891,0.4746 0.989,-0.204 c -0.437,0.3814 -0.896,1.0214 -1.188,1.552"
     id="path109" />
  <path
     style="fill:#231f20;fill-opacity:1;fill-rule:nonzero;stroke:none"
     d="m 213.48954,88.3855 c -3.558,-0.572 -2.975,-2.146 -3.339,-6.214 -0.401,-4.442 -0.339,-9.114 0.661,-12.254 1.115,-3.522 0.703,-3.834 2.588,-4.194 1.891,-0.349 2.054,0.412 3,1.282 1.1,1.005 -0.776,8.12 -0.181,12.833 0.276,2.213 2.375,7.328 1.016,7.833 -1.36,0.516 -3.745,0.714 -3.745,0.714"
     id="path110" />
  <path
     style="fill:none;stroke:#231f20;stroke-width:0.565977;stroke-linecap:butt;stroke-linejoin:miter;stroke-miterlimit:4;stroke-dasharray:none;stroke-opacity:1"
     d="m 213.48954,88.3855 c -3.558,-0.572 -2.975,-2.146 -3.339,-6.214 -0.401,-4.442 -0.339,-9.114 0.661,-12.254 1.115,-3.522 0.703,-3.834 2.588,-4.194 1.891,-0.349 2.054,0.412 3,1.282 1.1,1.005 -0.776,8.12 -0.181,12.833 0.276,2.213 2.375,7.328 1.016,7.833 -1.36,0.516 -3.745,0.714 -3.745,0.714 z"
     id="path111" />
  <path
     style="fill:#231f20;fill-opacity:1;fill-rule:nonzero;stroke:none"
     d="m 214.42654,67.7345 c -2.255,0.167 -2.916,0.245 -2.693,-2.249 0.057,-0.6364 0.333,-2.391 0.266,-2.7724 -0.24,-1.276 -0.412,-2.7759 1.594,-9.0466 0.308,-0.9733 0.584,-2.932 0.89,-4.3013 0.303,-1.324 2.298,0.072 2.183,0.5933 -0.36,1.6773 -0.224,2.8333 -0.271,3.4533 -0.037,0.4267 -0.224,1.2134 0.058,2.8534 0.724,4.2146 -0.491,5.5373 -0.418,6.4386 0.219,2.5667 0.932,4.7237 0.334,5.0147 -0.974,0.48 -1.943,0.016 -1.943,0.016"
     id="path112" />
  <path
     style="fill:none;stroke:#231f20;stroke-width:0.565977;stroke-linecap:butt;stroke-linejoin:miter;stroke-miterlimit:4;stroke-dasharray:none;stroke-opacity:1"
     d="m 214.42654,67.7345 c -2.255,0.167 -2.916,0.245 -2.693,-2.249 0.057,-0.6364 0.333,-2.391 0.266,-2.7724 -0.24,-1.276 -0.412,-2.7759 1.594,-9.0466 0.308,-0.9733 0.584,-2.932 0.89,-4.3013 0.303,-1.324 2.298,0.072 2.183,0.5933 -0.36,1.6773 -0.224,2.8333 -0.271,3.4533 -0.037,0.4267 -0.224,1.2134 0.058,2.8534 0.724,4.2146 -0.491,5.5373 -0.418,6.4386 0.219,2.5667 0.932,4.7237 0.334,5.0147 -0.974,0.48 -1.943,0.016 -1.943,0.016 z"
     id="path113" />
  <path
     style="fill:#231f20;fill-opacity:1;fill-rule:nonzero;stroke:none"
     d="m 219.71854,88.2345 c 3.563,-0.531 3,-2.115 3.401,-6.177 0.443,-4.438 0.432,-9.115 -0.537,-12.271 -1.077,-3.521 -0.661,-3.833 -2.541,-4.203 -1.88,-0.38 -2.058,0.375 -3.022,1.239 -1.104,1 0.699,8.131 0.058,12.839 -0.302,2.209 -2.448,7.297 -1.099,7.824 1.36,0.52 3.74,0.749 3.74,0.749"
     id="path114" />
  <path
     style="fill:none;stroke:#231f20;stroke-width:0.565977;stroke-linecap:butt;stroke-linejoin:miter;stroke-miterlimit:4;stroke-dasharray:none;stroke-opacity:1"
     d="m 219.71854,88.2345 c 3.563,-0.531 3,-2.115 3.401,-6.177 0.443,-4.438 0.432,-9.115 -0.537,-12.271 -1.077,-3.521 -0.661,-3.833 -2.541,-4.203 -1.88,-0.38 -2.058,0.375 -3.022,1.239 -1.104,1 0.699,8.131 0.058,12.839 -0.302,2.209 -2.448,7.297 -1.099,7.824 1.36,0.52 3.74,0.749 3.74,0.749 z"
     id="path115" />
  <path
     style="fill:#231f20;fill-opacity:1;fill-rule:nonzero;stroke:none"
     d="m 219.01454,67.5895 c 2.256,0.176 2.912,0.249 2.709,-2.24 -0.052,-0.6364 -0.333,-2.391 -0.256,-2.771 0.251,-1.276 0.428,-2.7707 -1.546,-9.0573 -0.307,-0.9747 -0.574,-2.932 -0.875,-4.2974 -0.297,-1.328 -2.297,0.052 -2.188,0.5787 0.355,1.6773 0.213,2.8333 0.256,3.4533 0.036,0.432 0.229,1.208 -0.063,2.848 -0.75,4.2134 0.463,5.5467 0.38,6.4427 -0.229,2.568 -0.958,4.724 -0.354,5.021 0.969,0.474 1.937,0.022 1.937,0.022"
     id="path116" />
  <path
     style="fill:none;stroke:#231f20;stroke-width:0.565977;stroke-linecap:butt;stroke-linejoin:miter;stroke-miterlimit:4;stroke-dasharray:none;stroke-opacity:1"
     d="m 219.01454,67.5895 c 2.256,0.176 2.912,0.249 2.709,-2.24 -0.052,-0.6364 -0.333,-2.391 -0.256,-2.771 0.251,-1.276 0.428,-2.7707 -1.546,-9.0573 -0.307,-0.9747 -0.574,-2.932 -0.875,-4.2974 -0.297,-1.328 -2.297,0.052 -2.188,0.5787 0.355,1.6773 0.213,2.8333 0.256,3.4533 0.036,0.432 0.229,1.208 -0.063,2.848 -0.75,4.2134 0.463,5.5467 0.38,6.4427 -0.229,2.568 -0.958,4.724 -0.354,5.021 0.969,0.474 1.937,0.022 1.937,0.022 z"
     id="path117" />
  <path
     style="fill:#231f20;fill-opacity:1;fill-rule:nonzero;stroke:none"
     d="m 219.72354,45.7705 c 0.302,0.6 -0.896,1.9533 -0.901,3.9227 0,0.4053 -0.193,0.724 -0.328,1.072 -0.541,1.412 -1.813,2.3866 -2.776,-1.3227 -0.131,-0.5107 0.229,-2.5826 -0.027,-3.3173 -0.62,-1.7653 0.954,-4.6933 1.459,-4.5573 1.088,0.2706 2.573,4.2026 2.573,4.2026"
     id="path118" />
  <path
     style="fill:none;stroke:#231f20;stroke-width:0.644548;stroke-linecap:round;stroke-linejoin:round;stroke-miterlimit:4;stroke-dasharray:none;stroke-opacity:1"
     d="m 219.72354,45.7705 c 0.302,0.6 -0.896,1.9533 -0.901,3.9227 0,0.4053 -0.193,0.724 -0.328,1.072 -0.541,1.412 -1.813,2.3866 -2.776,-1.3227 -0.131,-0.5107 0.229,-2.5826 -0.027,-3.3173 -0.62,-1.7653 0.954,-4.6933 1.459,-4.5573 1.088,0.2706 2.573,4.2026 2.573,4.2026 z"
     id="path119" />
  <path
     style="fill:#231f20;fill-opacity:1;fill-rule:nonzero;stroke:none"
     d="m 213.58754,45.6825 c -0.328,0.5827 0.803,1.984 0.714,3.9587 -0.015,0.396 0.161,0.7293 0.276,1.0826 0.485,1.4374 1.704,2.464 2.838,-1.192 0.152,-0.5053 -0.109,-2.5946 0.183,-3.3186 0.692,-1.728 -0.745,-4.728 -1.255,-4.6147 -1.089,0.224 -2.756,4.084 -2.756,4.084"
     id="path120" />
  <path
     style="fill:none;stroke:#231f20;stroke-width:0.644548;stroke-linecap:round;stroke-linejoin:round;stroke-miterlimit:4;stroke-dasharray:none;stroke-opacity:1"
     d="m 213.58754,45.6825 c -0.328,0.5827 0.803,1.984 0.714,3.9587 -0.015,0.396 0.161,0.7293 0.276,1.0826 0.485,1.4374 1.704,2.464 2.838,-1.192 0.152,-0.5053 -0.109,-2.5946 0.183,-3.3186 0.692,-1.728 -0.745,-4.728 -1.255,-4.6147 -1.089,0.224 -2.756,4.084 -2.756,4.084 z"
     id="path121" />
  <path
     style="fill:#231f20;fill-opacity:1;fill-rule:nonzero;stroke:none"
     d="m 213.63454,82.6825 c 0.308,0.656 2.609,2.953 3.156,3.459 0.491,0.453 1.057,1.457 2.125,1.025 0.432,-0.177 0.943,-0.729 1.095,-1.015 0.113,-0.229 -0.043,-0.516 -0.36,-0.761 -0.531,-0.401 -0.844,-0.312 -1.901,-1.02 0,0 -0.276,-0.131 -0.782,-0.339 -1.514,-0.609 -0.91,-0.198 -2.901,-1.573 -0.14,-0.099 -0.343,-0.027 -0.4,0.073 -0.089,0.156 -0.032,0.151 -0.032,0.151"
     id="path122" />
  <path
     style="fill:none;stroke:#231f20;stroke-width:0.565977;stroke-linecap:round;stroke-linejoin:round;stroke-miterlimit:4;stroke-dasharray:none;stroke-opacity:1"
     d="m 213.63454,82.6825 c 0.308,0.656 2.609,2.953 3.156,3.459 0.491,0.453 1.057,1.457 2.125,1.025 0.432,-0.177 0.943,-0.729 1.095,-1.015 0.113,-0.229 -0.043,-0.516 -0.36,-0.761 -0.531,-0.401 -0.844,-0.312 -1.901,-1.02 0,0 -0.276,-0.131 -0.782,-0.339 -1.514,-0.609 -0.91,-0.198 -2.901,-1.573 -0.14,-0.099 -0.343,-0.027 -0.4,0.073 -0.089,0.156 -0.032,0.151 -0.032,0.151 z"
     id="path123" />
  <path
     style="fill:#0098c9;fill-opacity:1;fill-rule:nonzero;stroke:none"
     d="m 221.97354,101.7755 c -0.506,-1.238 -1.192,-6.29 -0.828,-9.525 0.084,-0.74 1.645,-2.573 0.641,-1.833 l -0.355,-0.063 c -2.505,-1.844 -2.458,-7.693 -2.458,-7.693 0,0 -0.542,-0.506 -1.031,-0.567 -0.495,-0.063 -1.152,0.285 -1.152,0.285 0,0 -1.457,5.658 -4.353,6.798 l -0.36,-0.031 c -0.782,-0.975 0.261,1.203 0.146,1.937 -0.485,3.214 -2.448,7.922 -3.25,8.99 -1.104,1.464 -3.724,1.634 -2.916,3.64 0,0 0.369,1.912 3.177,1.917 1.02,0 3.119,1 3.119,1 0,0 1.161,0.687 2.313,0.864 1.025,0.152 2.12,-0.181 2.348,-0.255 0,0 2.287,-0.421 3.272,-0.161 2.713,0.719 3.541,-1.308 3.541,-1.308 1.292,-1.733 -1.166,-2.296 -1.854,-3.995"
     id="path124" />
  <path
     style="fill:none;stroke:#231f20;stroke-width:0.565977;stroke-linecap:butt;stroke-linejoin:miter;stroke-miterlimit:4;stroke-dasharray:none;stroke-opacity:1"
     d="m 221.97354,101.7755 c -0.506,-1.238 -1.192,-6.29 -0.828,-9.525 0.084,-0.74 1.645,-2.573 0.641,-1.833 l -0.355,-0.063 c -2.505,-1.844 -2.458,-7.693 -2.458,-7.693 0,0 -0.542,-0.506 -1.031,-0.567 -0.495,-0.063 -1.152,0.285 -1.152,0.285 0,0 -1.457,5.658 -4.353,6.798 l -0.36,-0.031 c -0.782,-0.975 0.261,1.203 0.146,1.937 -0.485,3.214 -2.448,7.922 -3.25,8.99 -1.104,1.464 -3.724,1.634 -2.916,3.64 0,0 0.369,1.912 3.177,1.917 1.02,0 3.119,1 3.119,1 0,0 1.161,0.687 2.313,0.864 1.025,0.152 2.12,-0.181 2.348,-0.255 0,0 2.287,-0.421 3.272,-0.161 2.713,0.719 3.541,-1.308 3.541,-1.308 1.292,-1.733 -1.166,-2.296 -1.854,-3.995 z"
     id="path125" />
  <path
     style="fill:#0098c9;fill-opacity:1;fill-rule:nonzero;stroke:none"
     d="m 221.68654,91.1035 c 0.224,-0.27 0.937,-1.432 1.141,-1.853 1.266,-2.688 1.422,-6.636 1.766,-7.865 0.349,-1.224 -6.235,-1.567 -6.235,-1.567 l -0.864,1.181 c -0.423,-0.458 -0.188,-0.01 -0.188,-0.01 l -0.853,-1.37 c 0,0 -6.434,-0.65 -6.344,0.36 0.12,1.386 -0.084,6.01 0.708,8.328 0.437,1.271 1.172,1.99 1.172,1.99 0,0 3.702,-0.855 5.125,-0.771 1.427,0.093 4.572,1.577 4.572,1.577"
     id="path126" />
  <path
     style="fill:none;stroke:#231f20;stroke-width:0.565977;stroke-linecap:butt;stroke-linejoin:miter;stroke-miterlimit:4;stroke-dasharray:none;stroke-opacity:1"
     d="m 221.68654,91.1035 c 0.224,-0.27 0.937,-1.432 1.141,-1.853 1.266,-2.688 1.422,-6.636 1.766,-7.865 0.349,-1.224 -6.235,-1.567 -6.235,-1.567 l -0.864,1.181 c -0.423,-0.458 -0.188,-0.01 -0.188,-0.01 l -0.853,-1.37 c 0,0 -6.434,-0.65 -6.344,0.36 0.12,1.386 -0.084,6.01 0.708,8.328 0.437,1.271 1.172,1.99 1.172,1.99 0,0 3.702,-0.855 5.125,-0.771 1.427,0.093 4.572,1.577 4.572,1.577 z"
     id="path127" />
  <path
     style="fill:none;stroke:#231f20;stroke-width:0.565977;stroke-linecap:round;stroke-linejoin:round;stroke-miterlimit:4;stroke-dasharray:none;stroke-opacity:1"
     d="m 220.56754,81.6305 c -1.229,-1.313 -3.224,-0.475 -3.224,-0.475 -1.677,-0.754 -3.152,-0.109 -3.152,-0.109"
     id="path128" />
  <path
     style="fill:#ffffff;fill-opacity:1;fill-rule:nonzero;stroke:none"
     d="m 195.19754,49.1878 c 0.682,-0.76 0.62,-1.9373 -0.14,-2.6253 -0.767,-0.6826 -1.943,-0.6253 -2.626,0.1414 -0.688,0.7653 -0.625,1.9373 0.136,2.6239 0.766,0.688 1.943,0.6254 2.63,-0.14"
     id="path129" />
  <path
     style="fill:none;stroke:#231f20;stroke-width:1.33171;stroke-linecap:butt;stroke-linejoin:miter;stroke-miterlimit:4;stroke-dasharray:none;stroke-opacity:1"
     d="m 195.19754,49.1878 c 0.682,-0.76 0.62,-1.9373 -0.14,-2.6253 -0.767,-0.6826 -1.943,-0.6253 -2.626,0.1414 -0.688,0.7653 -0.625,1.9373 0.136,2.6239 0.766,0.688 1.943,0.6254 2.63,-0.14 z"
     id="path130" />
  <path
     style="fill:#231f20;fill-opacity:1;fill-rule:nonzero;stroke:none"
     d="m 196.28154,47.2239 c 0.64,-0.0054 2.104,-1.2867 3.624,-1.8014 1.032,-0.3493 3.048,-2.2186 4.094,-2.48 0.963,-0.2493 1.38,-0.4573 1.287,-1.604 -0.057,-0.6773 -0.605,-1.9533 -1.115,-1.9373 -1.193,0.0467 -2.048,0.4427 -2.901,1.084 -0.969,0.7387 -3.423,2.9573 -3.839,3.4107 -1.026,1.1306 -1.75,1.2453 -2.052,1.5213 -0.562,0.5107 -0.51,0.8533 -0.256,1.2907 0.48,0.8293 1.158,0.516 1.158,0.516"
     id="path131" />
  <path
     style="fill:none;stroke:#231f20;stroke-width:0.565977;stroke-linecap:butt;stroke-linejoin:miter;stroke-miterlimit:4;stroke-dasharray:none;stroke-opacity:1"
     d="m 196.28154,47.2239 c 0.64,-0.0054 2.104,-1.2867 3.624,-1.8014 1.032,-0.3493 3.048,-2.2186 4.094,-2.48 0.963,-0.2493 1.38,-0.4573 1.287,-1.604 -0.057,-0.6773 -0.605,-1.9533 -1.115,-1.9373 -1.193,0.0467 -2.048,0.4427 -2.901,1.084 -0.969,0.7387 -3.423,2.9573 -3.839,3.4107 -1.026,1.1306 -1.75,1.2453 -2.052,1.5213 -0.562,0.5107 -0.51,0.8533 -0.256,1.2907 0.48,0.8293 1.158,0.516 1.158,0.516 z"
     id="path132" />
  <path
     style="fill:#231f20;fill-opacity:1;fill-rule:nonzero;stroke:none"
     d="m 204.23854,41.9999 c 1.084,0.708 1.865,-1.172 2.141,-1.6294 0.287,-0.4693 1.24,-1.704 2.099,-2.5626 0.869,-0.8707 1.579,-2.3187 3.224,-3.964 0.865,-0.864 1.161,-2.2493 -0.151,-3.4587 -1.297,-1.1813 -2.448,-0.9 -3.338,0.308 -0.891,1.2027 -1.208,2.708 -2.022,3.9893 -0.806,1.2707 -1.754,2.5 -2.536,3.4267 -0.89,1.052 -0.942,1.9067 -0.729,2.3333 0.536,1.068 1.312,1.5574 1.312,1.5574"
     id="path133" />
  <path
     style="fill:none;stroke:#231f20;stroke-width:0.565977;stroke-linecap:butt;stroke-linejoin:miter;stroke-miterlimit:4;stroke-dasharray:none;stroke-opacity:1"
     d="m 204.23854,41.9999 c 1.084,0.708 1.865,-1.172 2.141,-1.6294 0.287,-0.4693 1.24,-1.704 2.099,-2.5626 0.869,-0.8707 1.579,-2.3187 3.224,-3.964 0.865,-0.864 1.161,-2.2493 -0.151,-3.4587 -1.297,-1.1813 -2.448,-0.9 -3.338,0.308 -0.891,1.2027 -1.208,2.708 -2.022,3.9893 -0.806,1.2707 -1.754,2.5 -2.536,3.4267 -0.89,1.052 -0.942,1.9067 -0.729,2.3333 0.536,1.068 1.312,1.5574 1.312,1.5574 z"
     id="path134" />
  <path
     style="fill:#231f20;fill-opacity:1;fill-rule:nonzero;stroke:none"
     d="m 189.71354,30.5159 c 0.557,-0.3227 1.177,-2.172 2.234,-3.3853 0.719,-0.8134 1.515,-3.4374 2.291,-4.1987 0.709,-0.6973 0.959,-1.088 0.303,-2.0306 -0.391,-0.5627 -1.5,-1.3854 -1.932,-1.1147 -1.011,0.636 -1.552,1.4173 -1.97,2.4013 -0.462,1.12 -1.468,4.276 -1.593,4.8747 -0.328,1.4893 -0.896,1.9533 -1.016,2.344 -0.235,0.724 -0.011,0.9893 0.427,1.24 0.833,0.484 1.256,-0.1307 1.256,-0.1307"
     id="path135" />
  <path
     style="fill:none;stroke:#231f20;stroke-width:0.565977;stroke-linecap:butt;stroke-linejoin:miter;stroke-miterlimit:4;stroke-dasharray:none;stroke-opacity:1"
     d="m 189.71354,30.5159 c 0.557,-0.3227 1.177,-2.172 2.234,-3.3853 0.719,-0.8134 1.515,-3.4374 2.291,-4.1987 0.709,-0.6973 0.959,-1.088 0.303,-2.0306 -0.391,-0.5627 -1.5,-1.3854 -1.932,-1.1147 -1.011,0.636 -1.552,1.4173 -1.97,2.4013 -0.462,1.12 -1.468,4.276 -1.593,4.8747 -0.328,1.4893 -0.896,1.9533 -1.016,2.344 -0.235,0.724 -0.011,0.9893 0.427,1.24 0.833,0.484 1.256,-0.1307 1.256,-0.1307 z"
     id="path136" />
  <path
     style="fill:#231f20;fill-opacity:1;fill-rule:nonzero;stroke:none"
     d="m 192.60954,22.2506 c 0.229,1.276 2.134,0.5573 2.661,0.4426 0.536,-0.1146 2.088,-0.2653 3.307,-0.2293 1.224,0.036 2.766,-0.4427 5.094,-0.3693 1.224,0.0306 2.432,-0.704 2.406,-2.48 -0.026,-1.76 -1.015,-2.4067 -2.506,-2.224 -1.489,0.1773 -2.801,0.98 -4.296,1.2653 -1.48,0.2814 -3.016,0.4387 -4.229,0.5054 -1.38,0.068 -2.036,0.62 -2.199,1.068 -0.41,1.1199 -0.238,2.0213 -0.238,2.0213"
     id="path137" />
  <path
     style="fill:none;stroke:#231f20;stroke-width:0.565977;stroke-linecap:butt;stroke-linejoin:miter;stroke-miterlimit:4;stroke-dasharray:none;stroke-opacity:1"
     d="m 192.60954,22.2506 c 0.229,1.276 2.134,0.5573 2.661,0.4426 0.536,-0.1146 2.088,-0.2653 3.307,-0.2293 1.224,0.036 2.766,-0.4427 5.094,-0.3693 1.224,0.0306 2.432,-0.704 2.406,-2.48 -0.026,-1.76 -1.015,-2.4067 -2.506,-2.224 -1.489,0.1773 -2.801,0.98 -4.296,1.2653 -1.48,0.2814 -3.016,0.4387 -4.229,0.5054 -1.38,0.068 -2.036,0.62 -2.199,1.068 -0.41,1.1199 -0.238,2.0213 -0.238,2.0213 z"
     id="path138" />
  <path
     style="fill:#231f20;fill-opacity:1;fill-rule:nonzero;stroke:none"
     d="m 186.22354,35.6359 c -0.016,-0.7294 1.011,-3.8133 1.271,-4.5053 0.235,-0.62 0.292,-1.776 1.437,-1.8694 0.468,-0.0426 1.178,0.228 1.432,0.4214 0.214,0.1506 0.199,0.4786 0.016,0.8386 -0.286,0.5934 -0.604,0.6507 -1.229,1.7654 0,0 -0.193,0.24 -0.557,0.6506 -1.079,1.224 -0.719,0.5894 -1.886,2.704 -0.078,0.156 -0.286,0.1813 -0.385,0.12 -0.145,-0.1053 -0.099,-0.1253 -0.099,-0.1253"
     id="path139" />
  <path
     style="fill:none;stroke:#231f20;stroke-width:0.565977;stroke-linecap:round;stroke-linejoin:round;stroke-miterlimit:4;stroke-dasharray:none;stroke-opacity:1"
     d="m 186.22354,35.6359 c -0.016,-0.7294 1.011,-3.8133 1.271,-4.5053 0.235,-0.62 0.292,-1.776 1.437,-1.8694 0.468,-0.0426 1.178,0.228 1.432,0.4214 0.214,0.1506 0.199,0.4786 0.016,0.8386 -0.286,0.5934 -0.604,0.6507 -1.229,1.7654 0,0 -0.193,0.24 -0.557,0.6506 -1.079,1.224 -0.719,0.5894 -1.886,2.704 -0.078,0.156 -0.286,0.1813 -0.385,0.12 -0.145,-0.1053 -0.099,-0.1253 -0.099,-0.1253 z"
     id="path140" />
  <path
     style="fill:#231f20;fill-opacity:1;fill-rule:nonzero;stroke:none"
     d="m 198.07754,27.2039 c 2.146,-1.8387 4.974,-2.052 6.333,-0.4747 1.349,1.5734 0.709,4.3387 -1.437,6.1827 -2.146,1.8386 -4.979,2.052 -6.328,0.4733 -1.355,-1.572 -0.714,-4.344 1.432,-6.1813"
     id="path141" />
  <path
     style="fill:none;stroke:#231f20;stroke-width:0.565977;stroke-linecap:butt;stroke-linejoin:miter;stroke-miterlimit:4;stroke-dasharray:none;stroke-opacity:1"
     d="m 198.07754,27.2039 c 2.146,-1.8387 4.974,-2.052 6.333,-0.4747 1.349,1.5734 0.709,4.3387 -1.437,6.1827 -2.146,1.8386 -4.979,2.052 -6.328,0.4733 -1.355,-1.572 -0.714,-4.344 1.432,-6.1813 z"
     id="path142" />
  <path
     style="fill:none;stroke:#231f20;stroke-width:0.399514;stroke-linecap:butt;stroke-linejoin:miter;stroke-miterlimit:4;stroke-dasharray:none;stroke-opacity:1"
     d="m 244.16654,26.9066 c 16.541,-20.6933 6.604,-29.5053 -0.964,-25.8333"
     id="path143" />
  <path
     style="fill:#231f20;fill-opacity:1;fill-rule:nonzero;stroke:none"
     d="m 242.11454,1.5986 c 0.421,-0.4373 0.896,-1.0666 1.124,-1.5986 l 0.105,1.0053 0.723,0.7027 c -0.556,-0.1507 -1.348,-0.1667 -1.952,-0.1094"
     id="path144" />
  <path
     style="fill:#231f20;fill-opacity:1;fill-rule:nonzero;stroke:none"
     d="m 222.36354,22.4119 c 1.62,3.2187 2.948,2.1867 6.927,1.3067 4.36,-0.9627 8.797,-2.432 11.491,-4.3387 3.014,-2.124 3.437,-1.828 3.208,-3.7333 -0.235,-1.9013 -1.011,-1.828 -2.126,-2.4693 -1.292,-0.7494 -7.505,3.188 -12.177,4.052 -2.192,0.4013 -7.703,-0.052 -7.776,1.396 -0.077,1.4533 0.453,3.7866 0.453,3.7866"
     id="path145" />
  <path
     style="fill:none;stroke:#231f20;stroke-width:0.565977;stroke-linecap:butt;stroke-linejoin:miter;stroke-miterlimit:4;stroke-dasharray:none;stroke-opacity:1"
     d="m 222.36354,22.4119 c 1.62,3.2187 2.948,2.1867 6.927,1.3067 4.36,-0.9627 8.797,-2.432 11.491,-4.3387 3.014,-2.124 3.437,-1.828 3.208,-3.7333 -0.235,-1.9013 -1.011,-1.828 -2.126,-2.4693 -1.292,-0.7494 -7.505,3.188 -12.177,4.052 -2.192,0.4013 -7.703,-0.052 -7.776,1.396 -0.077,1.4533 0.453,3.7866 0.453,3.7866 z"
     id="path146" />
  <path
     style="fill:#231f20;fill-opacity:1;fill-rule:nonzero;stroke:none"
     d="m 241.76554,15.2759 c 0.525,2.204 0.65,2.8547 2.964,1.8907 0.582,-0.2493 2.172,-1.0413 2.557,-1.088 1.291,-0.1613 2.771,-0.4533 8.145,-4.256 0.834,-0.588 2.615,-1.4427 3.828,-2.1507 1.172,-0.688 -0.765,-2.1666 -1.229,-1.9013 -1.484,0.8493 -2.625,1.0733 -3.203,1.3027 -0.396,0.1613 -1.089,0.5826 -2.74,0.8066 -4.234,0.584 -5.13,2.1414 -6.01,2.344 -2.515,0.568 -4.787,0.5374 -4.88,1.1987 -0.162,1.072 0.568,1.8533 0.568,1.8533"
     id="path147" />
  <path
     style="fill:none;stroke:#231f20;stroke-width:0.565977;stroke-linecap:butt;stroke-linejoin:miter;stroke-miterlimit:4;stroke-dasharray:none;stroke-opacity:1"
     d="m 241.76554,15.2759 c 0.525,2.204 0.65,2.8547 2.964,1.8907 0.582,-0.2493 2.172,-1.0413 2.557,-1.088 1.291,-0.1613 2.771,-0.4533 8.145,-4.256 0.834,-0.588 2.615,-1.4427 3.828,-2.1507 1.172,-0.688 -0.765,-2.1666 -1.229,-1.9013 -1.484,0.8493 -2.625,1.0733 -3.203,1.3027 -0.396,0.1613 -1.089,0.5826 -2.74,0.8066 -4.234,0.584 -5.13,2.1414 -6.01,2.344 -2.515,0.568 -4.787,0.5374 -4.88,1.1987 -0.162,1.072 0.568,1.8533 0.568,1.8533 z"
     id="path148" />
  <path
     style="fill:#231f20;fill-opacity:1;fill-rule:nonzero;stroke:none"
     d="m 220.62954,16.4279 c -0.572,-3.5573 1.109,-3.496 4.854,-5.1106 4.094,-1.76 8.558,-3.1654 11.86,-3.1974 3.682,-0.0306 3.854,-0.5253 4.78,1.1507 0.928,1.6827 0.256,2.0787 -0.276,3.256 -0.618,1.3533 -7.962,1.7907 -12.254,3.828 -2.011,0.9533 -6.214,4.5413 -7.12,3.4107 -0.911,-1.1347 -1.844,-3.3374 -1.844,-3.3374"
     id="path149" />
  <path
     style="fill:none;stroke:#231f20;stroke-width:0.565977;stroke-linecap:butt;stroke-linejoin:miter;stroke-miterlimit:4;stroke-dasharray:none;stroke-opacity:1"
     d="m 220.62954,16.4279 c -0.572,-3.5573 1.109,-3.496 4.854,-5.1106 4.094,-1.76 8.558,-3.1654 11.86,-3.1974 3.682,-0.0306 3.854,-0.5253 4.78,1.1507 0.928,1.6827 0.256,2.0787 -0.276,3.256 -0.618,1.3533 -7.962,1.7907 -12.254,3.828 -2.011,0.9533 -6.214,4.5413 -7.12,3.4107 -0.911,-1.1347 -1.844,-3.3374 -1.844,-3.3374 z"
     id="path150" />
  <path
     style="fill:#231f20;fill-opacity:1;fill-rule:nonzero;stroke:none"
     d="m 240.51954,10.8599 c -0.848,-2.0986 -1.12,-2.6986 1.314,-3.2613 0.624,-0.14 2.38,-0.4053 2.724,-0.5933 1.134,-0.62 2.509,-1.244 9.098,-1.26 1.022,0 2.968,-0.3387 4.364,-0.464 1.35,-0.12 0.642,2.204 0.104,2.256 -1.702,0.1706 -2.765,0.6506 -3.369,0.8013 -0.416,0.0987 -1.219,0.1507 -2.692,0.9227 -3.792,1.9893 -5.428,1.2333 -6.261,1.5826 -2.38,0.9947 -4.208,2.3387 -4.678,1.86 -0.749,-0.7866 -0.604,-1.844 -0.604,-1.844"
     id="path151" />
  <path
     style="fill:none;stroke:#231f20;stroke-width:0.565977;stroke-linecap:butt;stroke-linejoin:miter;stroke-miterlimit:4;stroke-dasharray:none;stroke-opacity:1"
     d="m 240.51954,10.8599 c -0.848,-2.0986 -1.12,-2.6986 1.314,-3.2613 0.624,-0.14 2.38,-0.4053 2.724,-0.5933 1.134,-0.62 2.509,-1.244 9.098,-1.26 1.022,0 2.968,-0.3387 4.364,-0.464 1.35,-0.12 0.642,2.204 0.104,2.256 -1.702,0.1706 -2.765,0.6506 -3.369,0.8013 -0.416,0.0987 -1.219,0.1507 -2.692,0.9227 -3.792,1.9893 -5.428,1.2333 -6.261,1.5826 -2.38,0.9947 -4.208,2.3387 -4.678,1.86 -0.749,-0.7866 -0.604,-1.844 -0.604,-1.844 z"
     id="path152" />
  <path
     style="fill:#231f20;fill-opacity:1;fill-rule:nonzero;stroke:none"
     d="m 261.10354,3.5893 c -0.666,-0.1 -1.593,1.448 -3.469,2.0467 -0.385,0.12 -0.629,0.4013 -0.921,0.6346 -1.183,0.948 -1.724,2.448 2.098,2.2507 0.527,-0.032 2.391,-1 3.172,-0.98 1.87,0.0573 4.183,-2.328 3.907,-2.7653 -0.595,-0.9534 -4.787,-1.1867 -4.787,-1.1867"
     id="path153" />
  <path
     style="fill:none;stroke:#231f20;stroke-width:0.644548;stroke-linecap:round;stroke-linejoin:round;stroke-miterlimit:4;stroke-dasharray:none;stroke-opacity:1"
     d="m 261.10354,3.5893 c -0.666,-0.1 -1.593,1.448 -3.469,2.0467 -0.385,0.12 -0.629,0.4013 -0.921,0.6346 -1.183,0.948 -1.724,2.448 2.098,2.2507 0.527,-0.032 2.391,-1 3.172,-0.98 1.87,0.0573 4.183,-2.328 3.907,-2.7653 -0.595,-0.9534 -4.787,-1.1867 -4.787,-1.1867 z"
     id="path154" />
  <path
     style="fill:#231f20;fill-opacity:1;fill-rule:nonzero;stroke:none"
     d="m 263.04154,9.4173 c -0.454,0.484 -2.136,-0.1667 -3.984,0.5106 -0.38,0.1347 -0.751,0.0667 -1.126,0.0614 -1.51,-0.0254 -2.86,-0.88 0.287,-3.0613 0.437,-0.3027 2.5,-0.6827 3.104,-1.1774 1.443,-1.1826 4.735,-0.7186 4.781,-0.204 0.115,1.1094 -3.062,3.8707 -3.062,3.8707"
     id="path155" />
  <path
     style="fill:none;stroke:#231f20;stroke-width:0.644548;stroke-linecap:round;stroke-linejoin:round;stroke-miterlimit:4;stroke-dasharray:none;stroke-opacity:1"
     d="m 263.04154,9.4173 c -0.454,0.484 -2.136,-0.1667 -3.984,0.5106 -0.38,0.1347 -0.751,0.0667 -1.126,0.0614 -1.51,-0.0254 -2.86,-0.88 0.287,-3.0613 0.437,-0.3027 2.5,-0.6827 3.104,-1.1774 1.443,-1.1826 4.735,-0.7186 4.781,-0.204 0.115,1.1094 -3.062,3.8707 -3.062,3.8707 z"
     id="path156" />
  <path
     style="fill:#231f20;fill-opacity:1;fill-rule:nonzero;stroke:none"
     d="m 227.75454,20.5466 c -0.719,-0.0933 -3.604,-1.5933 -4.249,-1.9627 -0.579,-0.328 -1.71,-0.5626 -1.62,-1.7133 0.036,-0.464 0.41,-1.12 0.64,-1.3493 0.182,-0.1774 0.5,-0.1147 0.828,0.1146 0.548,0.3854 0.557,0.708 1.552,1.5 0,0 0.209,0.224 0.557,0.6454 1.043,1.26 0.464,0.8026 2.376,2.2866 0.14,0.1094 0.129,0.3227 0.052,0.4067 -0.12,0.1293 -0.136,0.072 -0.136,0.072"
     id="path157" />
  <path
     style="fill:none;stroke:#231f20;stroke-width:0.565977;stroke-linecap:round;stroke-linejoin:round;stroke-miterlimit:4;stroke-dasharray:none;stroke-opacity:1"
     d="m 227.75454,20.5466 c -0.719,-0.0933 -3.604,-1.5933 -4.249,-1.9627 -0.579,-0.328 -1.71,-0.5626 -1.62,-1.7133 0.036,-0.464 0.41,-1.12 0.64,-1.3493 0.182,-0.1774 0.5,-0.1147 0.828,0.1146 0.548,0.3854 0.557,0.708 1.552,1.5 0,0 0.209,0.224 0.557,0.6454 1.043,1.26 0.464,0.8026 2.376,2.2866 0.14,0.1094 0.129,0.3227 0.052,0.4067 -0.12,0.1293 -0.136,0.072 -0.136,0.072 z"
     id="path158" />
  <path
     style="fill:#0098c9;fill-opacity:1;fill-rule:nonzero;stroke:none"
     d="m 227.01454,16.2706 c -0.208,-0.448 -0.853,-0.8173 -0.853,-0.8173 0,0 -5.558,1.812 -8.074,-0.016 l -0.166,-0.3174 c 0.401,-1.188 -0.875,0.86 -1.558,1.1614 -2.968,1.3226 -7.994,2.1986 -9.328,2.0933 -1.822,-0.1453 -3.104,-2.3227 -4.364,-0.5613 0,0 -1.688,1.3946 -0.177,3.7706 0.541,0.8587 0.828,3.1667 0.828,3.1667 l 0.005,0.0053 c -0.005,0.2547 0.016,1.3907 0.463,2.3067 0.516,1.0466 1.521,1.9426 1.521,1.9426 0,0 1.59,1.7027 1.902,2.672 0.849,2.6773 2.781,2.4534 2.781,2.4534 2.161,0.1613 1.531,-2.3854 2.593,-3.88 0.776,-1.0894 4.667,-4.3854 7.59,-5.8187 0.666,-0.328 3.052,0.0053 1.889,-0.448 l -0.14,-0.3333 c 0.213,-3.104 5.167,-6.2027 5.167,-6.2027 0,0 0.13,-0.7293 -0.079,-1.1773"
     id="path159" />
  <path
     style="fill:none;stroke:#231f20;stroke-width:0.565977;stroke-linecap:butt;stroke-linejoin:miter;stroke-miterlimit:4;stroke-dasharray:none;stroke-opacity:1"
     d="m 227.01454,16.2706 c -0.208,-0.448 -0.853,-0.8173 -0.853,-0.8173 0,0 -5.558,1.812 -8.074,-0.016 l -0.166,-0.3174 c 0.401,-1.188 -0.875,0.86 -1.558,1.1614 -2.968,1.3226 -7.994,2.1986 -9.328,2.0933 -1.822,-0.1453 -3.104,-2.3227 -4.364,-0.5613 0,0 -1.688,1.3946 -0.177,3.7706 0.541,0.8587 0.828,3.1667 0.828,3.1667 l 0.005,0.0053 c -0.005,0.2547 0.016,1.3907 0.463,2.3067 0.516,1.0466 1.521,1.9426 1.521,1.9426 0,0 1.59,1.7027 1.902,2.672 0.849,2.6773 2.781,2.4534 2.781,2.4534 2.161,0.1613 1.531,-2.3854 2.593,-3.88 0.776,-1.0894 4.667,-4.3854 7.59,-5.8187 0.666,-0.328 3.052,0.0053 1.889,-0.448 l -0.14,-0.3333 c 0.213,-3.104 5.167,-6.2027 5.167,-6.2027 0,0 0.13,-0.7293 -0.079,-1.1773 z"
     id="path160" />
  <path
     style="fill:#0098c9;fill-opacity:1;fill-rule:nonzero;stroke:none"
     d="m 217.29554,15.4173 c 0.194,-0.292 1.084,-1.328 1.423,-1.6467 2.177,-2.0147 5.896,-3.3533 6.963,-4.0573 1.062,-0.7027 3.376,5.4693 3.376,5.4693 l -0.866,1.1773 c 0.563,0.2654 0.068,0.1774 0.068,0.1774 l 1.568,0.4 c 0,0 2.563,5.9373 1.568,6.1573 -1.354,0.3066 -5.704,1.8946 -8.152,1.8373 -1.342,-0.0307 -2.244,-0.5093 -2.244,-0.5093 0,0 -0.308,-3.792 -0.822,-5.12 -0.516,-1.3333 -2.882,-3.8853 -2.882,-3.8853"
     id="path161" />
  <path
     style="fill:none;stroke:#231f20;stroke-width:0.565977;stroke-linecap:butt;stroke-linejoin:miter;stroke-miterlimit:4;stroke-dasharray:none;stroke-opacity:1"
     d="m 217.29554,15.4173 c 0.194,-0.292 1.084,-1.328 1.423,-1.6467 2.177,-2.0147 5.896,-3.3533 6.963,-4.0573 1.062,-0.7027 3.376,5.4693 3.376,5.4693 l -0.866,1.1773 c 0.563,0.2654 0.068,0.1774 0.068,0.1774 l 1.568,0.4 c 0,0 2.563,5.9373 1.568,6.1573 -1.354,0.3066 -5.704,1.8946 -8.152,1.8373 -1.342,-0.0307 -2.244,-0.5093 -2.244,-0.5093 0,0 -0.308,-3.792 -0.822,-5.12 -0.516,-1.3333 -2.882,-3.8853 -2.882,-3.8853 z"
     id="path162" />
  <path
     style="fill:none;stroke:#231f20;stroke-width:0.565977;stroke-linecap:round;stroke-linejoin:round;stroke-miterlimit:4;stroke-dasharray:none;stroke-opacity:1"
     d="m 226.66654,13.6199 c 1.62,0.776 1.427,2.9374 1.427,2.9374 1.224,1.3653 1.057,2.9586 1.057,2.9586"
     id="path163" />
  <path
     style="fill:none;stroke:#231f20;stroke-width:0.399514;stroke-linecap:butt;stroke-linejoin:miter;stroke-miterlimit:4;stroke-dasharray:none;stroke-opacity:1"
     d="m 18.89634,73.5985 c -7.4224,25.433 21.4317,44.057 28.5192,45.631"
     id="path164" />
  <path
     style="fill:#231f20;fill-opacity:1;fill-rule:nonzero;stroke:none"
     d="m 48.59354,119.4895 c -0.599,0.084 -1.364,0.276 -1.869,0.557 l 0.536,-0.853 -0.131,-1.006 c 0.35,0.468 0.953,0.974 1.464,1.302"
     id="path165" />
  <path
     style="fill:#231f20;fill-opacity:1;fill-rule:nonzero;stroke:none"
     d="m 102.14054,46.5105 c 0.614,-0.1826 2.385,0.6307 3.989,0.6934 1.089,0.036 3.552,1.2493 4.636,1.2079 0.989,-0.0373 1.448,0.0414 1.683,1.1667 0.145,0.6667 -0.016,2.0467 -0.511,2.1773 -1.156,0.296 -2.089,0.156 -3.089,-0.2146 -1.14,-0.4267 -4.124,-1.8587 -4.651,-2.176 -1.307,-0.7814 -2.036,-0.688 -2.401,-0.8707 -0.687,-0.3227 -0.734,-0.6667 -0.619,-1.1613 0.223,-0.932 0.963,-0.8227 0.963,-0.8227"
     id="path166" />
  <path
     style="fill:none;stroke:#231f20;stroke-width:0.565977;stroke-linecap:butt;stroke-linejoin:miter;stroke-miterlimit:4;stroke-dasharray:none;stroke-opacity:1"
     d="m 102.14054,46.5105 c 0.614,-0.1826 2.385,0.6307 3.989,0.6934 1.089,0.036 3.552,1.2493 4.636,1.2079 0.989,-0.0373 1.448,0.0414 1.683,1.1667 0.145,0.6667 -0.016,2.0467 -0.511,2.1773 -1.156,0.296 -2.089,0.156 -3.089,-0.2146 -1.14,-0.4267 -4.124,-1.8587 -4.651,-2.176 -1.307,-0.7814 -2.036,-0.688 -2.401,-0.8707 -0.687,-0.3227 -0.734,-0.6667 -0.619,-1.1613 0.223,-0.932 0.963,-0.8227 0.963,-0.8227 z"
     id="path167" />
  <path
     style="fill:#231f20;fill-opacity:1;fill-rule:nonzero;stroke:none"
     d="m 110.82254,49.0838 c 0.5,-1.1933 2.203,-0.0733 2.692,0.1454 0.5,0.2293 1.98,0.7133 3.172,0.9426 1.21,0.2347 2.61,1.036 4.896,1.4747 1.199,0.228 2.224,1.2133 1.814,2.9427 -0.412,1.708 -1.522,2.1186 -2.934,1.624 -1.416,-0.5 -2.525,-1.5667 -3.91,-2.1667 -1.386,-0.604 -2.855,-1.088 -4.027,-1.416 -1.328,-0.3693 -1.848,-1.0467 -1.911,-1.5213 -0.157,-1.1867 0.208,-2.0254 0.208,-2.0254"
     id="path168" />
  <path
     style="fill:none;stroke:#231f20;stroke-width:0.565977;stroke-linecap:butt;stroke-linejoin:miter;stroke-miterlimit:4;stroke-dasharray:none;stroke-opacity:1"
     d="m 110.82254,49.0838 c 0.5,-1.1933 2.203,-0.0733 2.692,0.1454 0.5,0.2293 1.98,0.7133 3.172,0.9426 1.21,0.2347 2.61,1.036 4.896,1.4747 1.199,0.228 2.224,1.2133 1.814,2.9427 -0.412,1.708 -1.522,2.1186 -2.934,1.624 -1.416,-0.5 -2.525,-1.5667 -3.91,-2.1667 -1.386,-0.604 -2.855,-1.088 -4.027,-1.416 -1.328,-0.3693 -1.848,-1.0467 -1.911,-1.5213 -0.157,-1.1867 0.208,-2.0254 0.208,-2.0254 z"
     id="path169" />
  <path
     style="fill:#231f20;fill-opacity:1;fill-rule:nonzero;stroke:none"
     d="m 101.13454,50.4638 c 0.636,0.12 1.839,1.6507 3.24,2.4427 0.948,0.5253 2.583,2.7347 3.568,3.188 0.902,0.4213 1.271,0.7027 0.968,1.812 -0.181,0.656 -0.953,1.8067 -1.453,1.692 -1.161,-0.2547 -1.927,-0.812 -2.651,-1.5987 -0.817,-0.9013 -2.817,-3.5306 -3.14,-4.052 -0.808,-1.2973 -1.5,-1.5466 -1.745,-1.8693 -0.459,-0.604 -0.344,-0.932 -0.016,-1.3173 0.625,-0.724 1.229,-0.2974 1.229,-0.2974"
     id="path170" />
  <path
     style="fill:none;stroke:#231f20;stroke-width:0.565977;stroke-linecap:butt;stroke-linejoin:miter;stroke-miterlimit:4;stroke-dasharray:none;stroke-opacity:1"
     d="m 101.13454,50.4638 c 0.636,0.12 1.839,1.6507 3.24,2.4427 0.948,0.5253 2.583,2.7347 3.568,3.188 0.902,0.4213 1.271,0.7027 0.968,1.812 -0.181,0.656 -0.953,1.8067 -1.453,1.692 -1.161,-0.2547 -1.927,-0.812 -2.651,-1.5987 -0.817,-0.9013 -2.817,-3.5306 -3.14,-4.052 -0.808,-1.2973 -1.5,-1.5466 -1.745,-1.8693 -0.459,-0.604 -0.344,-0.932 -0.016,-1.3173 0.625,-0.724 1.229,-0.2974 1.229,-0.2974 z"
     id="path171" />
  <path
     style="fill:#231f20;fill-opacity:1;fill-rule:nonzero;stroke:none"
     d="m 107.68654,56.7185 c 0.991,-0.8333 1.995,0.9373 2.328,1.36 0.339,0.432 1.439,1.5413 2.396,2.2867 0.97,0.7546 1.844,2.1093 3.683,3.5413 0.959,0.7546 1.421,2.099 0.265,3.448 -1.14,1.333 -2.317,1.197 -3.348,0.109 -1.026,-1.089 -1.532,-2.546 -2.49,-3.7184 -0.958,-1.1613 -2.047,-2.2706 -2.938,-3.0946 -1.014,-0.932 -1.166,-1.776 -1.005,-2.2227 0.401,-1.1253 1.109,-1.7093 1.109,-1.7093"
     id="path172" />
  <path
     style="fill:none;stroke:#231f20;stroke-width:0.565977;stroke-linecap:butt;stroke-linejoin:miter;stroke-miterlimit:4;stroke-dasharray:none;stroke-opacity:1"
     d="m 107.68654,56.7185 c 0.991,-0.8333 1.995,0.9373 2.328,1.36 0.339,0.432 1.439,1.5413 2.396,2.2867 0.97,0.7546 1.844,2.1093 3.683,3.5413 0.959,0.7546 1.421,2.099 0.265,3.448 -1.14,1.333 -2.317,1.197 -3.348,0.109 -1.026,-1.089 -1.532,-2.546 -2.49,-3.7184 -0.958,-1.1613 -2.047,-2.2706 -2.938,-3.0946 -1.014,-0.932 -1.166,-1.776 -1.005,-2.2227 0.401,-1.1253 1.109,-1.7093 1.109,-1.7093 z"
     id="path173" />
  <path
     style="fill:#231f20;fill-opacity:1;fill-rule:nonzero;stroke:none"
     d="m 108.72454,58.0985 c 2.104,1.8853 4.932,2.1627 6.317,0.6147 1.385,-1.5467 0.807,-4.328 -1.297,-6.2134 -2.099,-1.8853 -4.932,-2.1666 -6.312,-0.6146 -1.391,1.5426 -0.812,4.3226 1.292,6.2133"
     id="path174" />
  <path
     style="fill:none;stroke:#231f20;stroke-width:0.565977;stroke-linecap:butt;stroke-linejoin:miter;stroke-miterlimit:4;stroke-dasharray:none;stroke-opacity:1"
     d="m 108.72454,58.0985 c 2.104,1.8853 4.932,2.1627 6.317,0.6147 1.385,-1.5467 0.807,-4.328 -1.297,-6.2134 -2.099,-1.8853 -4.932,-2.1666 -6.312,-0.6146 -1.391,1.5426 -0.812,4.3226 1.292,6.2133 z"
     id="path175" />
  <path
     style="fill:#231f20;fill-opacity:1;fill-rule:nonzero;stroke:none"
     d="m 133.63454,64.1825 c 2.23,-2.8334 3.323,-1.5574 7.047,0.0933 4.084,1.8077 8.141,4.1307 10.401,6.5317 2.537,2.682 3.011,2.474 2.407,4.291 -0.61,1.824 -1.355,1.6 -2.579,2.005 -1.405,0.475 -6.718,-4.618 -11.129,-6.39 -2.068,-0.828 -7.557,-1.474 -7.344,-2.911 0.213,-1.437 1.197,-3.62 1.197,-3.62"
     id="path176" />
  <path
     style="fill:none;stroke:#231f20;stroke-width:0.565977;stroke-linecap:butt;stroke-linejoin:miter;stroke-miterlimit:4;stroke-dasharray:none;stroke-opacity:1"
     d="m 133.63454,64.1825 c 2.23,-2.8334 3.323,-1.5574 7.047,0.0933 4.084,1.8077 8.141,4.1307 10.401,6.5317 2.537,2.682 3.011,2.474 2.407,4.291 -0.61,1.824 -1.355,1.6 -2.579,2.005 -1.405,0.475 -6.718,-4.618 -11.129,-6.39 -2.068,-0.828 -7.557,-1.474 -7.344,-2.911 0.213,-1.437 1.197,-3.62 1.197,-3.62 z"
     id="path177" />
  <path
     style="fill:#231f20;fill-opacity:1;fill-rule:nonzero;stroke:none"
     d="m 151.23454,75.0265 c 0.952,-2.052 1.203,-2.667 3.276,-1.265 0.525,0.358 1.921,1.452 2.291,1.572 1.234,0.417 2.63,0.994 7.141,5.792 0.697,0.74 2.281,1.926 3.323,2.864 1.016,0.906 -1.178,1.974 -1.579,1.625 -1.287,-1.129 -2.364,-1.577 -2.885,-1.916 -0.354,-0.24 -0.948,-0.787 -2.52,-1.333 -4.038,-1.418 -4.604,-3.12 -5.423,-3.491 -2.359,-1.056 -4.593,-1.479 -4.552,-2.145 0.052,-1.083 0.928,-1.703 0.928,-1.703"
     id="path178" />
  <path
     style="fill:none;stroke:#231f20;stroke-width:0.565977;stroke-linecap:butt;stroke-linejoin:miter;stroke-miterlimit:4;stroke-dasharray:none;stroke-opacity:1"
     d="m 151.23454,75.0265 c 0.952,-2.052 1.203,-2.667 3.276,-1.265 0.525,0.358 1.921,1.452 2.291,1.572 1.234,0.417 2.63,0.994 7.141,5.792 0.697,0.74 2.281,1.926 3.323,2.864 1.016,0.906 -1.178,1.974 -1.579,1.625 -1.287,-1.129 -2.364,-1.577 -2.885,-1.916 -0.354,-0.24 -0.948,-0.787 -2.52,-1.333 -4.038,-1.418 -4.604,-3.12 -5.423,-3.491 -2.359,-1.056 -4.593,-1.479 -4.552,-2.145 0.052,-1.083 0.928,-1.703 0.928,-1.703 z"
     id="path179" />
  <path
     style="fill:#231f20;fill-opacity:1;fill-rule:nonzero;stroke:none"
     d="m 130.74454,69.7035 c -1.266,3.37 0.396,3.646 3.745,5.974 3.667,2.536 7.76,4.797 10.989,5.484 3.604,0.766 3.672,1.281 4.912,-0.182 1.244,-1.464 0.667,-1.985 0.38,-3.245 -0.339,-1.448 -7.448,-3.339 -11.25,-6.177 -1.782,-1.339 -5.187,-5.687 -6.307,-4.76 -1.115,0.932 -2.469,2.906 -2.469,2.906"
     id="path180" />
  <path
     style="fill:none;stroke:#231f20;stroke-width:0.565977;stroke-linecap:butt;stroke-linejoin:miter;stroke-miterlimit:4;stroke-dasharray:none;stroke-opacity:1"
     d="m 130.74454,69.7035 c -1.266,3.37 0.396,3.646 3.745,5.974 3.667,2.536 7.76,4.797 10.989,5.484 3.604,0.766 3.672,1.281 4.912,-0.182 1.244,-1.464 0.667,-1.985 0.38,-3.245 -0.339,-1.448 -7.448,-3.339 -11.25,-6.177 -1.782,-1.339 -5.187,-5.687 -6.307,-4.76 -1.115,0.932 -2.469,2.906 -2.469,2.906 z"
     id="path181" />
  <path
     style="fill:#231f20;fill-opacity:1;fill-rule:nonzero;stroke:none"
     d="m 149.13454,79.1095 c -1.249,1.885 -1.635,2.422 0.641,3.453 0.583,0.26 2.255,0.869 2.552,1.125 0.99,0.834 2.214,1.714 8.667,3.036 1.005,0.208 2.844,0.927 4.183,1.323 1.301,0.385 1.066,-2.031 0.556,-2.187 -1.635,-0.51 -2.583,-1.193 -3.146,-1.453 -0.39,-0.183 -1.166,-0.396 -2.458,-1.443 -3.323,-2.702 -5.072,-2.286 -5.818,-2.792 -2.134,-1.448 -3.666,-3.13 -4.213,-2.749 -0.891,0.619 -0.964,1.687 -0.964,1.687"
     id="path182" />
  <path
     style="fill:none;stroke:#231f20;stroke-width:0.565977;stroke-linecap:butt;stroke-linejoin:miter;stroke-miterlimit:4;stroke-dasharray:none;stroke-opacity:1"
     d="m 149.13454,79.1095 c -1.249,1.885 -1.635,2.422 0.641,3.453 0.583,0.26 2.255,0.869 2.552,1.125 0.99,0.834 2.214,1.714 8.667,3.036 1.005,0.208 2.844,0.927 4.183,1.323 1.301,0.385 1.066,-2.031 0.556,-2.187 -1.635,-0.51 -2.583,-1.193 -3.146,-1.453 -0.39,-0.183 -1.166,-0.396 -2.458,-1.443 -3.323,-2.702 -5.072,-2.286 -5.818,-2.792 -2.134,-1.448 -3.666,-3.13 -4.213,-2.749 -0.891,0.619 -0.964,1.687 -0.964,1.687 z"
     id="path183" />
  <path
     style="fill:#231f20;fill-opacity:1;fill-rule:nonzero;stroke:none"
     d="m 167.86354,90.3175 c -0.666,-0.031 -1.27,-1.734 -2.984,-2.692 -0.354,-0.198 -0.541,-0.522 -0.781,-0.807 -0.969,-1.163 -1.203,-2.745 2.505,-1.787 0.511,0.135 2.146,1.454 2.911,1.588 1.844,0.318 3.641,3.115 3.281,3.484 -0.77,0.819 -4.932,0.214 -4.932,0.214"
     id="path184" />
  <path
     style="fill:none;stroke:#231f20;stroke-width:0.644548;stroke-linecap:round;stroke-linejoin:round;stroke-miterlimit:4;stroke-dasharray:none;stroke-opacity:1"
     d="m 167.86354,90.3175 c -0.666,-0.031 -1.27,-1.734 -2.984,-2.692 -0.354,-0.198 -0.541,-0.522 -0.781,-0.807 -0.969,-1.163 -1.203,-2.745 2.505,-1.787 0.511,0.135 2.146,1.454 2.911,1.588 1.844,0.318 3.641,3.115 3.281,3.484 -0.77,0.819 -4.932,0.214 -4.932,0.214 z"
     id="path185" />
  <path
     style="fill:#231f20;fill-opacity:1;fill-rule:nonzero;stroke:none"
     d="m 170.92654,84.9895 c -0.355,-0.567 -2.131,-0.26 -3.807,-1.291 -0.344,-0.209 -0.72,-0.213 -1.089,-0.281 -1.484,-0.276 -2.979,0.29 -0.328,3.057 0.364,0.38 2.317,1.161 2.808,1.771 1.176,1.442 4.5,1.64 4.645,1.145 0.339,-1.068 -2.229,-4.401 -2.229,-4.401"
     id="path186" />
  <path
     style="fill:none;stroke:#231f20;stroke-width:0.644548;stroke-linecap:round;stroke-linejoin:round;stroke-miterlimit:4;stroke-dasharray:none;stroke-opacity:1"
     d="m 170.92654,84.9895 c -0.355,-0.567 -2.131,-0.26 -3.807,-1.291 -0.344,-0.209 -0.72,-0.213 -1.089,-0.281 -1.484,-0.276 -2.979,0.29 -0.328,3.057 0.364,0.38 2.317,1.161 2.808,1.771 1.176,1.442 4.5,1.64 4.645,1.145 0.339,-1.068 -2.229,-4.401 -2.229,-4.401 z"
     id="path187" />
  <path
     style="fill:#231f20;fill-opacity:1;fill-rule:nonzero;stroke:none"
     d="m 138.24954,65.4115 c -0.719,0.078 -3.64,1.516 -4.296,1.87 -0.584,0.313 -1.719,0.526 -1.657,1.677 0.026,0.464 0.385,1.131 0.609,1.359 0.177,0.188 0.5,0.13 0.833,-0.094 0.552,-0.369 0.574,-0.697 1.584,-1.462 0,0 0.214,-0.224 0.574,-0.636 1.066,-1.235 0.484,-0.792 2.426,-2.235 0.14,-0.104 0.131,-0.317 0.058,-0.401 -0.115,-0.135 -0.131,-0.078 -0.131,-0.078"
     id="path188" />
  <path
     style="fill:none;stroke:#231f20;stroke-width:0.565977;stroke-linecap:round;stroke-linejoin:round;stroke-miterlimit:4;stroke-dasharray:none;stroke-opacity:1"
     d="m 138.24954,65.4115 c -0.719,0.078 -3.64,1.516 -4.296,1.87 -0.584,0.313 -1.719,0.526 -1.657,1.677 0.026,0.464 0.385,1.131 0.609,1.359 0.177,0.188 0.5,0.13 0.833,-0.094 0.552,-0.369 0.574,-0.697 1.584,-1.462 0,0 0.214,-0.224 0.574,-0.636 1.066,-1.235 0.484,-0.792 2.426,-2.235 0.14,-0.104 0.131,-0.317 0.058,-0.401 -0.115,-0.135 -0.131,-0.078 -0.131,-0.078 z"
     id="path189" />
  <path
     style="fill:#0098c9;fill-opacity:1;fill-rule:nonzero;stroke:none"
     d="m 137.51454,68.4945 c 0,0 -4.88,-3.208 -5.025,-6.3174 l 0.145,-0.328 c 1.178,-0.4266 -1.218,-0.1453 -1.88,-0.4893 -2.885,-1.5 -6.708,-4.88 -7.458,-5.9853 -1.026,-1.5147 -0.339,-4.052 -2.5,-3.9373 0,0 -1.927,-0.2654 -2.839,2.3906 -0.333,0.964 -1.957,2.6254 -1.957,2.6254 0,0 -1.027,0.88 -1.563,1.912 -0.475,0.916 -0.516,2.0573 -0.516,2.3013 l -0.005,0.0053 c 0,0 -0.339,2.2973 -0.902,3.1413 -1.561,2.3384 0.095,3.7764 0.095,3.7764 1.219,1.785 2.547,-0.366 4.375,-0.464 1.338,-0.079 6.344,0.912 9.281,2.297 0.672,0.317 1.907,2.391 1.531,1.197 l 0.172,-0.312 c 2.557,-1.776 8.073,0.162 8.073,0.162 0,0 0.651,-0.355 0.875,-0.798 0.218,-0.442 0.098,-1.177 0.098,-1.177"
     id="path190" />
  <path
     style="fill:none;stroke:#231f20;stroke-width:0.565977;stroke-linecap:butt;stroke-linejoin:miter;stroke-miterlimit:4;stroke-dasharray:none;stroke-opacity:1"
     d="m 137.51454,68.4945 c 0,0 -4.88,-3.208 -5.025,-6.3174 l 0.145,-0.328 c 1.178,-0.4266 -1.218,-0.1453 -1.88,-0.4893 -2.885,-1.5 -6.708,-4.88 -7.458,-5.9853 -1.026,-1.5147 -0.339,-4.052 -2.5,-3.9373 0,0 -1.927,-0.2654 -2.839,2.3906 -0.333,0.964 -1.957,2.6254 -1.957,2.6254 0,0 -1.027,0.88 -1.563,1.912 -0.475,0.916 -0.516,2.0573 -0.516,2.3013 l -0.005,0.0053 c 0,0 -0.339,2.2973 -0.902,3.1413 -1.561,2.3384 0.095,3.7764 0.095,3.7764 1.219,1.785 2.547,-0.366 4.375,-0.464 1.338,-0.079 6.344,0.912 9.281,2.297 0.672,0.317 1.907,2.391 1.531,1.197 l 0.172,-0.312 c 2.557,-1.776 8.073,0.162 8.073,0.162 0,0 0.651,-0.355 0.875,-0.798 0.218,-0.442 0.098,-1.177 0.098,-1.177 z"
     id="path191" />
  <path
     style="fill:#0098c9;fill-opacity:1;fill-rule:nonzero;stroke:none"
     d="m 127.28154,70.0315 c 0.129,0.323 0.796,1.515 1.063,1.896 1.738,2.406 5.113,4.458 6.02,5.359 0.906,0.901 4.401,-4.688 4.401,-4.688 l -0.62,-1.333 c 0.604,-0.146 0.099,-0.156 0.099,-0.156 l 1.62,-0.083 c 0,0 3.688,-5.308 2.76,-5.719 -1.271,-0.573 -5.214,-2.9904 -7.624,-3.4224 -1.328,-0.2346 -2.308,0.0574 -2.308,0.0574 0,0 -1.047,3.652 -1.818,4.855 -0.77,1.202 -3.593,3.234 -3.593,3.234"
     id="path192" />
  <path
     style="fill:none;stroke:#231f20;stroke-width:0.565977;stroke-linecap:butt;stroke-linejoin:miter;stroke-miterlimit:4;stroke-dasharray:none;stroke-opacity:1"
     d="m 127.28154,70.0315 c 0.129,0.323 0.796,1.515 1.063,1.896 1.738,2.406 5.113,4.458 6.02,5.359 0.906,0.901 4.401,-4.688 4.401,-4.688 l -0.62,-1.333 c 0.604,-0.146 0.099,-0.156 0.099,-0.156 l 1.62,-0.083 c 0,0 3.688,-5.308 2.76,-5.719 -1.271,-0.573 -5.214,-2.9904 -7.624,-3.4224 -1.328,-0.2346 -2.308,0.0574 -2.308,0.0574 0,0 -1.047,3.652 -1.818,4.855 -0.77,1.202 -3.593,3.234 -3.593,3.234 z"
     id="path193" />
  <path
     style="fill:none;stroke:#231f20;stroke-width:0.565977;stroke-linecap:round;stroke-linejoin:round;stroke-miterlimit:4;stroke-dasharray:none;stroke-opacity:1"
     d="m 136.10454,73.6505 c 1.744,-0.437 1.984,-2.593 1.984,-2.593 1.469,-1.099 1.62,-2.692 1.62,-2.692"
     id="path194" />
  <path
     style="fill:none;stroke:#231f20;stroke-width:1.33171;stroke-linecap:butt;stroke-linejoin:bevel;stroke-miterlimit:4;stroke-dasharray:none;stroke-opacity:1"
     d="m 266.22954,111.7915 2.697,-2.426 v -24.402 l 1.751,-1.478"
     id="path195" />
  <path
     style="fill:none;stroke:#231f20;stroke-width:1.33171;stroke-linecap:butt;stroke-linejoin:bevel;stroke-miterlimit:4;stroke-dasharray:none;stroke-opacity:1"
     d="m 266.22954,55.8185 2.697,2.4213 v 24.4017 l 1.751,1.484"
     id="path196" />
  <path
     style="fill:none;stroke:#231f20;stroke-width:1.33171;stroke-linecap:butt;stroke-linejoin:bevel;stroke-miterlimit:4;stroke-dasharray:none;stroke-opacity:1"
     d="m 92.86954,55.8185 -2.692,2.4267 v 24.4013 l -1.756,1.479"
     id="path197" />
  <path
     style="fill:none;stroke:#231f20;stroke-width:1.33171;stroke-linecap:butt;stroke-linejoin:bevel;stroke-miterlimit:4;stroke-dasharray:none;stroke-opacity:1"
     d="m 92.86954,111.7915 -2.692,-2.426 v -24.402 l -1.756,-1.478"
     id="path198" />
</svg>
