<?xml version="1.0" encoding="UTF-8" standalone="no"?>
<!-- Created with Inkscape (http://www.inkscape.org/) -->

<svg
   version="1.1"
   id="svg1"
   width="209.94778"
   height="142.69453"
   viewBox="0 0 209.94778 142.69453"
   sodipodi:docname="cell.svg"
   xmlns:inkscape="http://www.inkscape.org/namespaces/inkscape"
   xmlns:sodipodi="http://sodipodi.sourceforge.net/DTD/sodipodi-0.dtd"
   xmlns="http://www.w3.org/2000/svg"
   xmlns:svg="http://www.w3.org/2000/svg">
  <sodipodi:namedview
     id="namedview1"
     pagecolor="#ffffff"
     bordercolor="#000000"
     borderopacity="0.25"
     inkscape:showpageshadow="2"
     inkscape:pageopacity="0.0"
     inkscape:pagecheckerboard="0"
     inkscape:deskcolor="#d1d1d1">
    <inkscape:page
       x="0"
       y="0"
       inkscape:label="1"
       id="page1"
       width="209.94778"
       height="142.69453"
       margin="0"
       bleed="0" />
  </sodipodi:namedview>
  <defs
     id="defs1" />
  <path
     style="fill:none;stroke:#231f20;stroke-width:0.399514;stroke-linecap:butt;stroke-linejoin:miter;stroke-miterlimit:4;stroke-dasharray:none;stroke-opacity:1"
     d="m 21.619034,94.090338 c -7.423,25.427002 21.431998,44.052002 28.519998,45.625002"
     id="path554" />
  <path
     style="fill:#231f20;fill-opacity:1;fill-rule:nonzero;stroke:none"
     d="m 51.316032,139.97534 c -0.598,0.084 -1.364,0.282 -1.869,0.558 l 0.536,-0.854 -0.129,-1 c 0.348,0.463 0.952,0.968 1.462,1.296"
     id="path555" />
  <path
     style="fill:none;stroke:#231f20;stroke-width:0.399514;stroke-linecap:butt;stroke-linejoin:miter;stroke-miterlimit:4;stroke-dasharray:none;stroke-opacity:1"
     d="m 100.93103,142.44534 c 25.828,-5.855 28.104,-40.126 26.037,-47.090002"
     id="path556" />
  <path
     style="fill:#231f20;fill-opacity:1;fill-rule:nonzero;stroke:none"
     d="m 126.62403,94.199338 c 0.364,0.484 0.906,1.058 1.396,1.371 l -1.005,-0.063 -0.813,0.604 c 0.24,-0.526 0.381,-1.308 0.422,-1.912"
     id="path557" />
  <path
     style="fill:#231f20;fill-opacity:1;fill-rule:nonzero;stroke:none"
     d="m 40.040032,49.960338 c 0.719,0.125 3.918,-0.452 4.642,-0.614 0.65,-0.146 1.801,-0.032 2.057,-1.157 0.109,-0.453 -0.063,-1.192 -0.209,-1.479 -0.124,-0.229 -0.452,-0.26 -0.834,-0.136 -0.629,0.204 -0.733,0.511 -1.921,0.97 0,0 -0.265,0.15 -0.724,0.458 -1.364,0.891 -0.688,0.624 -2.948,1.479 -0.161,0.057 -0.219,0.265 -0.172,0.365 0.079,0.162 0.109,0.114 0.109,0.114"
     id="path558" />
  <path
     style="fill:none;stroke:#231f20;stroke-width:0.565977;stroke-linecap:round;stroke-linejoin:round;stroke-miterlimit:4;stroke-dasharray:none;stroke-opacity:1"
     d="m 40.040032,49.960338 c 0.719,0.125 3.918,-0.452 4.642,-0.614 0.65,-0.146 1.801,-0.032 2.057,-1.157 0.109,-0.453 -0.063,-1.192 -0.209,-1.479 -0.124,-0.229 -0.452,-0.26 -0.834,-0.136 -0.629,0.204 -0.733,0.511 -1.921,0.97 0,0 -0.265,0.15 -0.724,0.458 -1.364,0.891 -0.688,0.624 -2.948,1.479 -0.161,0.057 -0.219,0.265 -0.172,0.365 0.079,0.162 0.109,0.114 0.109,0.114 z"
     id="path559" />
  <path
     style="fill:#231f20;fill-opacity:1;fill-rule:nonzero;stroke:none"
     d="m 118.20203,36.054338 c -0.072,0.73 0.729,3.875 0.948,4.583 0.188,0.641 0.156,1.797 1.297,1.975 0.464,0.072 1.188,-0.147 1.459,-0.319 0.224,-0.135 0.229,-0.468 0.077,-0.833 -0.249,-0.619 -0.563,-0.698 -1.104,-1.854 0,0 -0.172,-0.25 -0.511,-0.688 -0.984,-1.296 -0.672,-0.64 -1.681,-2.833 -0.068,-0.156 -0.281,-0.197 -0.381,-0.145 -0.156,0.088 -0.104,0.114 -0.104,0.114"
     id="path560" />
  <path
     style="fill:none;stroke:#231f20;stroke-width:0.565977;stroke-linecap:round;stroke-linejoin:round;stroke-miterlimit:4;stroke-dasharray:none;stroke-opacity:1"
     d="m 118.20203,36.054338 c -0.072,0.73 0.729,3.875 0.948,4.583 0.188,0.641 0.156,1.797 1.297,1.975 0.464,0.072 1.188,-0.147 1.459,-0.319 0.224,-0.135 0.229,-0.468 0.077,-0.833 -0.249,-0.619 -0.563,-0.698 -1.104,-1.854 0,0 -0.172,-0.25 -0.511,-0.688 -0.984,-1.296 -0.672,-0.64 -1.681,-2.833 -0.068,-0.156 -0.281,-0.197 -0.381,-0.145 -0.156,0.088 -0.104,0.114 -0.104,0.114 z"
     id="path561" />
  <path
     style="fill:#231f20;fill-opacity:1;fill-rule:nonzero;stroke:none"
     d="m 59.603032,80.554338 c -0.333,-0.552 0.021,-2.469 -0.323,-4.041 -0.229,-1.058 0.344,-3.751 0.031,-4.787 -0.276,-0.953 -0.317,-1.417 0.719,-1.923 0.609,-0.301 1.985,-0.484 2.234,-0.041 0.574,1.047 0.667,1.989 0.552,3.047 -0.134,1.208 -0.781,4.453 -0.957,5.041 -0.444,1.464 -0.167,2.147 -0.251,2.543 -0.145,0.749 -0.469,0.874 -0.973,0.885 -0.959,0.015 -1.032,-0.724 -1.032,-0.724"
     id="path562" />
  <path
     style="fill:none;stroke:#231f20;stroke-width:0.565977;stroke-linecap:butt;stroke-linejoin:miter;stroke-miterlimit:4;stroke-dasharray:none;stroke-opacity:1"
     d="m 59.603032,80.554338 c -0.333,-0.552 0.021,-2.469 -0.323,-4.041 -0.229,-1.058 0.344,-3.751 0.031,-4.787 -0.276,-0.953 -0.317,-1.417 0.719,-1.923 0.609,-0.301 1.985,-0.484 2.234,-0.041 0.574,1.047 0.667,1.989 0.552,3.047 -0.134,1.208 -0.781,4.453 -0.957,5.041 -0.444,1.464 -0.167,2.147 -0.251,2.543 -0.145,0.749 -0.469,0.874 -0.973,0.885 -0.959,0.015 -1.032,-0.724 -1.032,-0.724 z"
     id="path563" />
  <path
     style="fill:#231f20;fill-opacity:1;fill-rule:nonzero;stroke:none"
     d="m 59.947032,71.497338 c -1.276,-0.188 -0.615,-2.115 -0.516,-2.647 0.095,-0.536 0.199,-2.088 0.125,-3.307 -0.073,-1.224 0.36,-2.781 0.224,-5.104 -0.073,-1.218 0.626,-2.453 2.402,-2.48 1.754,-0.025 2.432,0.948 2.296,2.439 -0.135,1.489 -0.891,2.833 -1.135,4.328 -0.245,1.489 -0.349,3.031 -0.375,4.244 -0.026,1.385 -0.562,2.057 -1.005,2.235 -1.109,0.442 -2.016,0.292 -2.016,0.292"
     id="path564" />
  <path
     style="fill:none;stroke:#231f20;stroke-width:0.565977;stroke-linecap:butt;stroke-linejoin:miter;stroke-miterlimit:4;stroke-dasharray:none;stroke-opacity:1"
     d="m 59.947032,71.497338 c -1.276,-0.188 -0.615,-2.115 -0.516,-2.647 0.095,-0.536 0.199,-2.088 0.125,-3.307 -0.073,-1.224 0.36,-2.781 0.224,-5.104 -0.073,-1.218 0.626,-2.453 2.402,-2.48 1.754,-0.025 2.432,0.948 2.296,2.439 -0.135,1.489 -0.891,2.833 -1.135,4.328 -0.245,1.489 -0.349,3.031 -0.375,4.244 -0.026,1.385 -0.562,2.057 -1.005,2.235 -1.109,0.442 -2.016,0.292 -2.016,0.292 z"
     id="path565" />
  <path
     style="fill:#231f20;fill-opacity:1;fill-rule:nonzero;stroke:none"
     d="m 64.540032,5.8613382 c 1.052,0.849 0.751,1.792 -0.129,2.339 -0.256,0.166 -0.319,0.578 -0.584,0.718 -0.625,0.319 -2.271,-0.265 -2.125,-1.76 0.01,-0.104 -0.156,-0.906 -0.192,-1.526 -0.063,-1.214 0.396,-3.667 2.629,-5.17199995 1.057,-0.714 1.287,0.042 0.948,0.464 -1.088,1.32799995 -0.921,1.64999995 -1.077,2.10899995 -0.542,1.527 0.53,2.828 0.53,2.828"
     id="path566" />
  <path
     style="fill:none;stroke:#231f20;stroke-width:0.332927;stroke-linecap:butt;stroke-linejoin:miter;stroke-miterlimit:4;stroke-dasharray:none;stroke-opacity:1"
     d="m 64.540032,5.8613382 c 1.052,0.849 0.751,1.792 -0.129,2.339 -0.256,0.166 -0.319,0.578 -0.584,0.718 -0.625,0.319 -2.271,-0.265 -2.125,-1.76 0.01,-0.104 -0.156,-0.906 -0.192,-1.526 -0.063,-1.214 0.396,-3.667 2.629,-5.17199995 1.057,-0.714 1.287,0.042 0.948,0.464 -1.088,1.32799995 -0.921,1.64999995 -1.077,2.10899995 -0.542,1.527 0.53,2.828 0.53,2.828 z"
     id="path567" />
  <path
     style="fill:#231f20;fill-opacity:1;fill-rule:nonzero;stroke:none"
     d="m 62.458032,24.497338 c 2.238,0.349 2.724,0.115 2.932,-0.817 0.14,-0.626 0.484,-1.152 0.588,-1.527 0.338,-1.249 0.406,-3.5 -1.072,-9.912 -0.339,-1.452 -0.798,-3.4999998 -0.918,-4.3479998 -0.192,-1.344 -2.292,-0.12 -2.224,0.411 0.224,1.6979998 0.24,2.8849998 0.23,3.5049998 0,0.432 0.098,1.188 -0.126,2.839 -0.342,2.505 -0.916,3.948 -0.957,6.068 -0.021,0.978 -0.657,1.708 -0.183,2.682 0.468,0.979 1.73,1.099 1.73,1.099"
     id="path568" />
  <path
     style="fill:none;stroke:#231f20;stroke-width:0.565977;stroke-linecap:butt;stroke-linejoin:miter;stroke-miterlimit:4;stroke-dasharray:none;stroke-opacity:1"
     d="m 62.458032,24.497338 c 2.238,0.349 2.724,0.115 2.932,-0.817 0.14,-0.626 0.484,-1.152 0.588,-1.527 0.338,-1.249 0.406,-3.5 -1.072,-9.912 -0.339,-1.452 -0.798,-3.4999998 -0.918,-4.3479998 -0.192,-1.344 -2.292,-0.12 -2.224,0.411 0.224,1.6979998 0.24,2.8849998 0.23,3.5049998 0,0.432 0.098,1.188 -0.126,2.839 -0.342,2.505 -0.916,3.948 -0.957,6.068 -0.021,0.978 -0.657,1.708 -0.183,2.682 0.468,0.979 1.73,1.099 1.73,1.099 z"
     id="path569" />
  <path
     style="fill:#0098c9;fill-opacity:1;fill-rule:nonzero;stroke:none"
     d="m 64.244032,51.065338 c 0.37,-3.115 0.786,-3.74 1.244,-4.537 2.886,-5.015 0.371,-6.334 -2.51,-6.146 -3.38,0.208 -4.604,0.219 -4.744,6.516 -0.038,1.75 -1.068,8.443 -1.068,8.443 -0.698,2.348 -0.12,5.005 0.978,5.962 1.162,1 0.776,0.516 2.016,1.256 1.188,0.698 3.375,0.703 4.178,-0.24 0.77,-0.901 0.234,-2.478 -0.246,-4.854 -0.374,-1.875 0.152,-6.4 0.152,-6.4"
     id="path570" />
  <path
     style="fill:none;stroke:#231f20;stroke-width:0.565977;stroke-linecap:butt;stroke-linejoin:miter;stroke-miterlimit:4;stroke-dasharray:none;stroke-opacity:1"
     d="m 64.244032,51.065338 c 0.37,-3.115 0.786,-3.74 1.244,-4.537 2.886,-5.015 0.371,-6.334 -2.51,-6.146 -3.38,0.208 -4.604,0.219 -4.744,6.516 -0.038,1.75 -1.068,8.443 -1.068,8.443 -0.698,2.348 -0.12,5.005 0.978,5.962 1.162,1 0.776,0.516 2.016,1.256 1.188,0.698 3.375,0.703 4.178,-0.24 0.77,-0.901 0.234,-2.478 -0.246,-4.854 -0.374,-1.875 0.152,-6.4 0.152,-6.4 z"
     id="path571" />
  <path
     style="fill:#ffffff;fill-opacity:1;fill-rule:nonzero;stroke:none"
     d="m 59.890032,69.981338 c 0.088,0.229 -0.844,0.896 -0.574,1.349 0.282,0.448 1.032,0.213 2.704,1.296 l 0.015,0.016 c 1.188,0.833 2.557,1.079 3.677,0.511 1.85,-0.943 2.314,-3.746 1.032,-6.26 -1.276,-2.522 -3.818,-3.798 -5.666,-2.855 -1.776,0.891 -2.272,3.511 -1.188,5.943"
     id="path572" />
  <path
     style="fill:none;stroke:#231f20;stroke-width:0.565977;stroke-linecap:butt;stroke-linejoin:miter;stroke-miterlimit:4;stroke-dasharray:none;stroke-opacity:1"
     d="m 59.890032,69.981338 c 0.088,0.229 -0.844,0.896 -0.574,1.349 0.282,0.448 1.032,0.213 2.704,1.296 l 0.015,0.016 c 1.188,0.833 2.557,1.079 3.677,0.511 1.85,-0.943 2.314,-3.746 1.032,-6.26 -1.276,-2.522 -3.818,-3.798 -5.666,-2.855 -1.776,0.891 -2.272,3.511 -1.188,5.943 z"
     id="path573" />
  <path
     style="fill:#231f20;fill-opacity:1;fill-rule:nonzero;stroke:none"
     d="m 63.384032,22.210338 c -3.896,-0.958 -2.984,3.022 -3.098,3.484 -1.214,4.866 -1.183,5.24 -1.844,9.011 -0.964,5.437 -0.787,9.317 2.213,10.803 2.037,1.005 3.651,0.702 4.625,-0.178 1.083,-0.98 2.198,-3.953 0.448,-6.261 l -0.161,-1.703 c 0.036,-1.161 0.047,-1.734 0.115,-2.306 0.109,-1 0.172,-2.074 0.276,-4.027 0.197,-3.468 -0.735,-7.192 -0.735,-7.192 0.041,-1.251 -1.839,-1.631 -1.839,-1.631"
     id="path574" />
  <path
     style="fill:none;stroke:#231f20;stroke-width:0.565977;stroke-linecap:butt;stroke-linejoin:miter;stroke-miterlimit:4;stroke-dasharray:none;stroke-opacity:1"
     d="m 63.384032,22.210338 c -3.896,-0.958 -2.984,3.022 -3.098,3.484 -1.214,4.866 -1.183,5.24 -1.844,9.011 -0.964,5.437 -0.787,9.317 2.213,10.803 2.037,1.005 3.651,0.702 4.625,-0.178 1.083,-0.98 2.198,-3.953 0.448,-6.261 l -0.161,-1.703 c 0.036,-1.161 0.047,-1.734 0.115,-2.306 0.109,-1 0.172,-2.074 0.276,-4.027 0.197,-3.468 -0.735,-7.192 -0.735,-7.192 0.041,-1.251 -1.839,-1.631 -1.839,-1.631 z"
     id="path575" />
  <path
     style="fill:#0098c9;fill-opacity:1;fill-rule:nonzero;stroke:none"
     d="m 65.144032,38.664338 -7.812,0.156 c 0.052,0.65 0.14,1.254 0.24,1.833 -0.01,0.079 -0.026,0.161 -0.046,0.229 -0.24,0.771 0.109,1.298 0.728,2.135 0.614,1.428 1.552,2.412 2.958,2.833 2.178,0.658 3.714,0.09 4.532,-0.942 0.906,-1.151 1.51,-4.271 -0.6,-6.244"
     id="path576" />
  <path
     style="fill:none;stroke:#231f20;stroke-width:0.565977;stroke-linecap:butt;stroke-linejoin:miter;stroke-miterlimit:4;stroke-dasharray:none;stroke-opacity:1"
     d="m 65.144032,38.664338 -7.812,0.156 c 0.052,0.65 0.14,1.254 0.24,1.833 -0.01,0.079 -0.026,0.161 -0.046,0.229 -0.24,0.771 0.109,1.298 0.728,2.135 0.614,1.428 1.552,2.412 2.958,2.833 2.178,0.658 3.714,0.09 4.532,-0.942 0.906,-1.151 1.51,-4.271 -0.6,-6.244 z"
     id="path577" />
  <path
     style="fill:#231f20;fill-opacity:1;fill-rule:nonzero;stroke:none"
     d="m 46.603032,46.997338 c 0.599,-0.235 2.437,0.405 4.041,0.317 1.084,-0.062 3.652,0.918 4.73,0.771 0.98,-0.125 1.448,-0.093 1.786,1.005 0.199,0.656 0.167,2.041 -0.312,2.208 -1.114,0.412 -2.062,0.36 -3.094,0.079 -1.176,-0.323 -4.282,-1.464 -4.834,-1.729 -1.369,-0.662 -2.088,-0.495 -2.473,-0.64 -0.708,-0.262 -0.787,-0.6 -0.719,-1.1 0.135,-0.943 0.875,-0.911 0.875,-0.911"
     id="path578" />
  <path
     style="fill:none;stroke:#231f20;stroke-width:0.565977;stroke-linecap:butt;stroke-linejoin:miter;stroke-miterlimit:4;stroke-dasharray:none;stroke-opacity:1"
     d="m 46.603032,46.997338 c 0.599,-0.235 2.437,0.405 4.041,0.317 1.084,-0.062 3.652,0.918 4.73,0.771 0.98,-0.125 1.448,-0.093 1.786,1.005 0.199,0.656 0.167,2.041 -0.312,2.208 -1.114,0.412 -2.062,0.36 -3.094,0.079 -1.176,-0.323 -4.282,-1.464 -4.834,-1.729 -1.369,-0.662 -2.088,-0.495 -2.473,-0.64 -0.708,-0.262 -0.787,-0.6 -0.719,-1.1 0.135,-0.943 0.875,-0.911 0.875,-0.911 z"
     id="path579" />
  <path
     style="fill:#231f20;fill-opacity:1;fill-rule:nonzero;stroke:none"
     d="m 56.368032,48.508338 c 1.147,-0.604 1.74,1.348 1.97,1.833 0.24,0.489 1.068,1.806 1.844,2.749 0.776,0.953 1.344,2.464 2.822,4.26 0.771,0.948 0.932,2.355 -0.489,3.417 -1.401,1.058 -2.527,0.667 -3.292,-0.625 -0.771,-1.281 -0.937,-2.812 -1.625,-4.167 -0.678,-1.344 -1.5,-2.656 -2.187,-3.65 -0.792,-1.136 -0.756,-1.995 -0.5,-2.396 0.635,-1.011 1.457,-1.421 1.457,-1.421"
     id="path580" />
  <path
     style="fill:none;stroke:#231f20;stroke-width:0.565977;stroke-linecap:butt;stroke-linejoin:miter;stroke-miterlimit:4;stroke-dasharray:none;stroke-opacity:1"
     d="m 56.368032,48.508338 c 1.147,-0.604 1.74,1.348 1.97,1.833 0.24,0.489 1.068,1.806 1.844,2.749 0.776,0.953 1.344,2.464 2.822,4.26 0.771,0.948 0.932,2.355 -0.489,3.417 -1.401,1.058 -2.527,0.667 -3.292,-0.625 -0.771,-1.281 -0.937,-2.812 -1.625,-4.167 -0.678,-1.344 -1.5,-2.656 -2.187,-3.65 -0.792,-1.136 -0.756,-1.995 -0.5,-2.396 0.635,-1.011 1.457,-1.421 1.457,-1.421 z"
     id="path581" />
  <path
     style="fill:#ffffff;fill-opacity:1;fill-rule:nonzero;stroke:none"
     d="m 58.322032,83.179338 c -0.271,0.99 0.308,2.015 1.297,2.286 0.989,0.276 2.016,-0.307 2.292,-1.296 0.271,-0.99 -0.308,-2.016 -1.303,-2.287 -0.984,-0.276 -2.01,0.307 -2.286,1.297"
     id="path582" />
  <path
     style="fill:none;stroke:#231f20;stroke-width:1.33171;stroke-linecap:butt;stroke-linejoin:miter;stroke-miterlimit:4;stroke-dasharray:none;stroke-opacity:1"
     d="m 58.322032,83.179338 c -0.271,0.99 0.308,2.015 1.297,2.286 0.989,0.276 2.016,-0.307 2.292,-1.296 0.271,-0.99 -0.308,-2.016 -1.303,-2.287 -0.984,-0.276 -2.01,0.307 -2.286,1.297 z"
     id="path583" />
  <path
     style="fill:#ffffff;fill-opacity:1;fill-rule:nonzero;stroke:none"
     d="m 74.343032,83.179338 c -0.271,0.99 0.307,2.015 1.296,2.286 0.991,0.276 2.016,-0.307 2.292,-1.296 0.271,-0.99 -0.307,-2.016 -1.301,-2.287 -0.986,-0.276 -2.011,0.307 -2.287,1.297"
     id="path584" />
  <path
     style="fill:none;stroke:#231f20;stroke-width:1.33171;stroke-linecap:butt;stroke-linejoin:miter;stroke-miterlimit:4;stroke-dasharray:none;stroke-opacity:1"
     d="m 74.343032,83.179338 c -0.271,0.99 0.307,2.015 1.296,2.286 0.991,0.276 2.016,-0.307 2.292,-1.296 0.271,-0.99 -0.307,-2.016 -1.301,-2.287 -0.986,-0.276 -2.011,0.307 -2.287,1.297 z"
     id="path585" />
  <path
     style="fill:#ffffff;fill-opacity:1;fill-rule:nonzero;stroke:none"
     d="m 115.17103,83.179338 c -0.271,0.99 0.312,2.015 1.301,2.286 0.991,0.276 2.011,-0.307 2.287,-1.296 0.276,-0.99 -0.301,-2.016 -1.296,-2.287 -0.991,-0.276 -2.016,0.307 -2.292,1.297"
     id="path586" />
  <path
     style="fill:none;stroke:#231f20;stroke-width:1.33171;stroke-linecap:butt;stroke-linejoin:miter;stroke-miterlimit:4;stroke-dasharray:none;stroke-opacity:1"
     d="m 115.17103,83.179338 c -0.271,0.99 0.312,2.015 1.301,2.286 0.991,0.276 2.011,-0.307 2.287,-1.296 0.276,-0.99 -0.301,-2.016 -1.296,-2.287 -0.991,-0.276 -2.016,0.307 -2.292,1.297 z"
     id="path587" />
  <path
     style="fill:#ffffff;fill-opacity:1;fill-rule:nonzero;stroke:none"
     d="m 202.07703,83.179338 c -0.272,0.99 0.307,2.015 1.296,2.286 0.99,0.276 2.016,-0.307 2.287,-1.296 0.276,-0.99 -0.301,-2.016 -1.297,-2.287 -0.99,-0.276 -2.01,0.307 -2.286,1.297"
     id="path588" />
  <path
     style="fill:none;stroke:#231f20;stroke-width:1.33171;stroke-linecap:butt;stroke-linejoin:miter;stroke-miterlimit:4;stroke-dasharray:none;stroke-opacity:1"
     d="m 202.07703,83.179338 c -0.272,0.99 0.307,2.015 1.296,2.286 0.99,0.276 2.016,-0.307 2.287,-1.296 0.276,-0.99 -0.301,-2.016 -1.297,-2.287 -0.99,-0.276 -2.01,0.307 -2.286,1.297 z"
     id="path589" />
  <path
     style="fill:#231f20;fill-opacity:1;fill-rule:nonzero;stroke:none"
     d="m 43.316032,127.01734 c -0.03,-0.728 -1.265,-3.734 -1.577,-4.406 -0.281,-0.604 -0.412,-1.756 -1.563,-1.77 -0.469,-0.006 -1.156,0.312 -1.401,0.52 -0.203,0.172 -0.161,0.494 0.041,0.838 0.334,0.574 0.652,0.61 1.35,1.678 0,0 0.208,0.229 0.604,0.609 1.156,1.151 0.756,0.536 2.062,2.568 0.094,0.145 0.307,0.156 0.402,0.093 0.14,-0.114 0.082,-0.13 0.082,-0.13"
     id="path590" />
  <path
     style="fill:none;stroke:#231f20;stroke-width:0.565977;stroke-linecap:round;stroke-linejoin:round;stroke-miterlimit:4;stroke-dasharray:none;stroke-opacity:1"
     d="m 43.316032,127.01734 c -0.03,-0.728 -1.265,-3.734 -1.577,-4.406 -0.281,-0.604 -0.412,-1.756 -1.563,-1.77 -0.469,-0.006 -1.156,0.312 -1.401,0.52 -0.203,0.172 -0.161,0.494 0.041,0.838 0.334,0.574 0.652,0.61 1.35,1.678 0,0 0.208,0.229 0.604,0.609 1.156,1.151 0.756,0.536 2.062,2.568 0.094,0.145 0.307,0.156 0.402,0.093 0.14,-0.114 0.082,-0.13 0.082,-0.13 z"
     id="path591" />
  <path
     style="fill:#231f20;fill-opacity:1;fill-rule:nonzero;stroke:none"
     d="m 58.494032,86.486338 c -0.131,0.631 -1.683,1.807 -2.495,3.193 -0.547,0.938 -2.781,2.536 -3.255,3.51 -0.438,0.89 -0.724,1.261 -1.828,0.933 -0.657,-0.188 -1.792,-0.985 -1.672,-1.48 0.282,-1.156 0.848,-1.916 1.651,-2.62 0.916,-0.801 3.583,-2.755 4.109,-3.072 1.318,-0.771 1.579,-1.464 1.902,-1.704 0.62,-0.453 0.942,-0.323 1.317,0.011 0.713,0.636 0.271,1.229 0.271,1.229"
     id="path592" />
  <path
     style="fill:none;stroke:#231f20;stroke-width:0.565977;stroke-linecap:butt;stroke-linejoin:miter;stroke-miterlimit:4;stroke-dasharray:none;stroke-opacity:1"
     d="m 58.494032,86.486338 c -0.131,0.631 -1.683,1.807 -2.495,3.193 -0.547,0.938 -2.781,2.536 -3.255,3.51 -0.438,0.89 -0.724,1.261 -1.828,0.933 -0.657,-0.188 -1.792,-0.985 -1.672,-1.48 0.282,-1.156 0.848,-1.916 1.651,-2.62 0.916,-0.801 3.583,-2.755 4.109,-3.072 1.318,-0.771 1.579,-1.464 1.902,-1.704 0.62,-0.453 0.942,-0.323 1.317,0.011 0.713,0.636 0.271,1.229 0.271,1.229 z"
     id="path593" />
  <path
     style="fill:#231f20;fill-opacity:1;fill-rule:nonzero;stroke:none"
     d="m 52.119032,92.929338 c 0.817,1 -0.975,1.974 -1.401,2.302 -0.438,0.328 -1.563,1.399999 -2.328,2.347999 -0.776,0.954 -2.146,1.808 -3.615,3.615003 -0.771,0.948 -2.12,1.38 -3.448,0.204 -1.312,-1.167 -1.151,-2.344003 -0.047,-3.349003 1.104,-1.006 2.574,-1.484 3.76,-2.422999 1.188,-0.937 2.308,-2 3.147,-2.875 0.957,-1 1.801,-1.134 2.249,-0.968 1.12,0.422 1.683,1.146 1.683,1.146"
     id="path594" />
  <path
     style="fill:none;stroke:#231f20;stroke-width:0.565977;stroke-linecap:butt;stroke-linejoin:miter;stroke-miterlimit:4;stroke-dasharray:none;stroke-opacity:1"
     d="m 52.119032,92.929338 c 0.817,1 -0.975,1.974 -1.401,2.302 -0.438,0.328 -1.563,1.399999 -2.328,2.347999 -0.776,0.954 -2.146,1.808 -3.615,3.615003 -0.771,0.948 -2.12,1.38 -3.448,0.204 -1.312,-1.167 -1.151,-2.344003 -0.047,-3.349003 1.104,-1.006 2.574,-1.484 3.76,-2.422999 1.188,-0.937 2.308,-2 3.147,-2.875 0.957,-1 1.801,-1.134 2.249,-0.968 1.12,0.422 1.683,1.146 1.683,1.146 z"
     id="path595" />
  <path
     style="fill:#231f20;fill-opacity:1;fill-rule:nonzero;stroke:none"
     d="m 4.3850341,138.21034 c -0.203,-1.339 0.656,-1.828 1.677,-1.636 0.301,0.048 0.625,-0.213 0.916,-0.135 0.677,0.187 1.491,1.73 0.376,2.735 -0.079,0.067 -0.495,0.776 -0.891,1.255 -0.77,0.932 -2.766,2.437 -5.433,2.03 -1.26000003,-0.186 -0.91600003,-0.894 -0.38000003,-0.978 1.69300003,-0.244 1.79200003,-0.594 2.21300003,-0.828 1.434,-0.76 1.522,-2.443 1.522,-2.443"
     id="path596" />
  <path
     style="fill:none;stroke:#231f20;stroke-width:0.332927;stroke-linecap:butt;stroke-linejoin:miter;stroke-miterlimit:4;stroke-dasharray:none;stroke-opacity:1"
     d="m 4.3850341,138.21034 c -0.203,-1.339 0.656,-1.828 1.677,-1.636 0.301,0.048 0.625,-0.213 0.916,-0.135 0.677,0.187 1.491,1.73 0.376,2.735 -0.079,0.067 -0.495,0.776 -0.891,1.255 -0.77,0.932 -2.766,2.437 -5.433,2.03 -1.26000003,-0.186 -0.91600003,-0.894 -0.38000003,-0.978 1.69300003,-0.244 1.79200003,-0.594 2.21300003,-0.828 1.434,-0.76 1.522,-2.443 1.522,-2.443 z"
     id="path597" />
  <path
     style="fill:#231f20;fill-opacity:1;fill-rule:nonzero;stroke:none"
     d="m 18.515034,125.87734 c -1.417,-1.766 -1.932,-1.922 -2.713,-1.375 -0.527,0.364 -1.142,0.52 -1.47,0.729 -1.093,0.687 -2.661,2.302 -5.9059999,8.031 -0.733,1.297 -1.776,3.115 -2.265,3.823 -0.766,1.12 1.614,1.641 1.921,1.198 0.985,-1.401 1.772,-2.286 2.1979999,-2.74 0.292,-0.317 0.73,-0.937 2.011,-2.005 1.943,-1.615 3.344,-2.292 4.807,-3.823 0.677,-0.713 1.636,-0.817 1.942,-1.854 0.319,-1.042 -0.525,-1.984 -0.525,-1.984"
     id="path598" />
  <path
     style="fill:none;stroke:#231f20;stroke-width:0.565977;stroke-linecap:butt;stroke-linejoin:miter;stroke-miterlimit:4;stroke-dasharray:none;stroke-opacity:1"
     d="m 18.515034,125.87734 c -1.417,-1.766 -1.932,-1.922 -2.713,-1.375 -0.527,0.364 -1.142,0.52 -1.47,0.729 -1.093,0.687 -2.661,2.302 -5.9059999,8.031 -0.733,1.297 -1.776,3.115 -2.265,3.823 -0.766,1.12 1.614,1.641 1.921,1.198 0.985,-1.401 1.772,-2.286 2.1979999,-2.74 0.292,-0.317 0.73,-0.937 2.011,-2.005 1.943,-1.615 3.344,-2.292 4.807,-3.823 0.677,-0.713 1.636,-0.817 1.942,-1.854 0.319,-1.042 -0.525,-1.984 -0.525,-1.984 z"
     id="path599" />
  <path
     style="fill:#0098c9;fill-opacity:1;fill-rule:nonzero;stroke:none"
     d="m 35.150032,105.09034 c -2.375,2.041 -3.11,2.219 -3.99,2.5 -5.509998,1.745 -4.545998,4.423 -2.300998,6.229 2.634998,2.131 3.546998,2.948 7.904998,-1.598 1.208,-1.266 6.49,-5.5 6.49,-5.5 2.1,-1.262 3.474,-3.61 3.308,-5.063 -0.183,-1.521 -0.224,-0.901 -0.642,-2.281003 -0.4,-1.318 -2.009,-2.803 -3.238,-2.651 -1.178,0.145 -1.844,1.676 -3.099,3.744003 -0.991,1.636 -4.433,4.62 -4.433,4.62"
     id="path600" />
  <path
     style="fill:none;stroke:#231f20;stroke-width:0.565977;stroke-linecap:butt;stroke-linejoin:miter;stroke-miterlimit:4;stroke-dasharray:none;stroke-opacity:1"
     d="m 35.150032,105.09034 c -2.375,2.041 -3.11,2.219 -3.99,2.5 -5.509998,1.745 -4.545998,4.423 -2.300998,6.229 2.634998,2.131 3.546998,2.948 7.904998,-1.598 1.208,-1.266 6.49,-5.5 6.49,-5.5 2.1,-1.262 3.474,-3.61 3.308,-5.063 -0.183,-1.521 -0.224,-0.901 -0.642,-2.281003 -0.4,-1.318 -2.009,-2.803 -3.238,-2.651 -1.178,0.145 -1.844,1.676 -3.099,3.744003 -0.991,1.636 -4.433,4.62 -4.433,4.62 z"
     id="path601" />
  <path
     style="fill:#ffffff;fill-opacity:1;fill-rule:nonzero;stroke:none"
     d="m 51.139032,94.085338 c 0.089,-0.23 1.229,-0.088 1.333,-0.61 0.095,-0.516 -0.613,-0.853 -1.113,-2.781 v -0.02 c -0.313,-1.417 -1.157,-2.521 -2.371,-2.86 -2,-0.557 -4.229,1.193 -4.989,3.912 -0.76,2.724 0.245,5.384999 2.251,5.936999 1.91,0.542 4.046,-1.052 4.889,-3.577999"
     id="path602" />
  <path
     style="fill:none;stroke:#231f20;stroke-width:0.565977;stroke-linecap:butt;stroke-linejoin:miter;stroke-miterlimit:4;stroke-dasharray:none;stroke-opacity:1"
     d="m 51.139032,94.085338 c 0.089,-0.23 1.229,-0.088 1.333,-0.61 0.095,-0.516 -0.613,-0.853 -1.113,-2.781 v -0.02 c -0.313,-1.417 -1.157,-2.521 -2.371,-2.86 -2,-0.557 -4.229,1.193 -4.989,3.912 -0.76,2.724 0.245,5.384999 2.251,5.936999 1.91,0.542 4.046,-1.052 4.889,-3.577999 z"
     id="path603" />
  <path
     style="fill:#231f20;fill-opacity:1;fill-rule:nonzero;stroke:none"
     d="m 16.286034,126.93934 c 2.224,3.339 4.24,-0.208 4.64,-0.474 4.182,-2.766 4.412,-3.067 7.448,-5.396 4.379998,-3.359 6.869998,-6.338 5.660998,-9.458 -0.817,-2.12 -2.213,-2.989 -3.524998,-3 -1.464,-0.005 -4.292,1.438 -4.563,4.312 l -1.031,1.37 c -0.808,0.829 -1.209,1.245 -1.641,1.625 -0.755,0.656 -1.527,1.407 -2.927,2.776 -2.489,2.428 -4.318,5.803 -4.318,5.803 -0.875,0.89 0.256,2.442 0.256,2.442"
     id="path604" />
  <path
     style="fill:none;stroke:#231f20;stroke-width:0.565977;stroke-linecap:butt;stroke-linejoin:miter;stroke-miterlimit:4;stroke-dasharray:none;stroke-opacity:1"
     d="m 16.286034,126.93934 c 2.224,3.339 4.24,-0.208 4.64,-0.474 4.182,-2.766 4.412,-3.067 7.448,-5.396 4.379998,-3.359 6.869998,-6.338 5.660998,-9.458 -0.817,-2.12 -2.213,-2.989 -3.524998,-3 -1.464,-0.005 -4.292,1.438 -4.563,4.312 l -1.031,1.37 c -0.808,0.829 -1.209,1.245 -1.641,1.625 -0.755,0.656 -1.527,1.407 -2.927,2.776 -2.489,2.428 -4.318,5.803 -4.318,5.803 -0.875,0.89 0.256,2.442 0.256,2.442 z"
     id="path605" />
  <path
     style="fill:#0098c9;fill-opacity:1;fill-rule:nonzero;stroke:none"
     d="m 33.859032,110.97534 c -1.163,-1.948 -2.677,-2.573 -3.979998,-2.364 -1.443,0.235 -4,2.13 -3.776,5.011 l 5.864998,5.167 c 0.406,-0.522 0.75,-1.022 1.062,-1.516 0.062,-0.052 0.125,-0.104 0.188,-0.136 0.698,-0.411 0.797,-1.031 0.912,-2.072 0.505,-1.464 0.484,-2.824 -0.271,-4.09"
     id="path606" />
  <path
     style="fill:none;stroke:#231f20;stroke-width:0.565977;stroke-linecap:butt;stroke-linejoin:miter;stroke-miterlimit:4;stroke-dasharray:none;stroke-opacity:1"
     d="m 33.859032,110.97534 c -1.163,-1.948 -2.677,-2.573 -3.979998,-2.364 -1.443,0.235 -4,2.13 -3.776,5.011 l 5.864998,5.167 c 0.406,-0.522 0.75,-1.022 1.062,-1.516 0.062,-0.052 0.125,-0.104 0.188,-0.136 0.698,-0.411 0.797,-1.031 0.912,-2.072 0.505,-1.464 0.484,-2.824 -0.271,-4.09 z"
     id="path607" />
  <path
     style="fill:#231f20;fill-opacity:1;fill-rule:nonzero;stroke:none"
     d="m 39.040032,121.23134 c -0.358,-0.537 -0.12,-2.474 -0.546,-4.021 -0.287,-1.047 0.125,-3.76 -0.244,-4.787 -0.334,-0.932 -0.402,-1.39 0.609,-1.958 0.593,-0.334 1.952,-0.594 2.219,-0.162 0.64,1 0.785,1.943 0.728,3.011 -0.062,1.213 -0.526,4.489 -0.667,5.084 -0.359,1.484 -0.047,2.151 -0.104,2.557 -0.104,0.75 -0.416,0.895 -0.921,0.938 -0.954,0.066 -1.074,-0.662 -1.074,-0.662"
     id="path608" />
  <path
     style="fill:none;stroke:#231f20;stroke-width:0.565977;stroke-linecap:butt;stroke-linejoin:miter;stroke-miterlimit:4;stroke-dasharray:none;stroke-opacity:1"
     d="m 39.040032,121.23134 c -0.358,-0.537 -0.12,-2.474 -0.546,-4.021 -0.287,-1.047 0.125,-3.76 -0.244,-4.787 -0.334,-0.932 -0.402,-1.39 0.609,-1.958 0.593,-0.334 1.952,-0.594 2.219,-0.162 0.64,1 0.785,1.943 0.728,3.011 -0.062,1.213 -0.526,4.489 -0.667,5.084 -0.359,1.484 -0.047,2.151 -0.104,2.557 -0.104,0.75 -0.416,0.895 -0.921,0.938 -0.954,0.066 -1.074,-0.662 -1.074,-0.662 z"
     id="path609" />
  <path
     style="fill:#231f20;fill-opacity:1;fill-rule:nonzero;stroke:none"
     d="m 39.223032,112.29834 c -1.251,-0.333 -0.369,-2.172 -0.213,-2.687 0.156,-0.521 0.437,-2.052 0.5,-3.276 0.073,-1.224 0.672,-2.718 0.801,-5.042 0.068,-1.224 0.901,-2.370003 2.667,-2.192003 1.75,0.172 2.313,1.218003 2.005,2.688003 -0.301,1.462 -1.208,2.708 -1.62,4.166 -0.405,1.452 -0.687,2.974 -0.853,4.176 -0.183,1.371 -0.787,1.98 -1.251,2.1 -1.151,0.318 -2.036,0.067 -2.036,0.067"
     id="path610" />
  <path
     style="fill:none;stroke:#231f20;stroke-width:0.565977;stroke-linecap:butt;stroke-linejoin:miter;stroke-miterlimit:4;stroke-dasharray:none;stroke-opacity:1"
     d="m 39.223032,112.29834 c -1.251,-0.333 -0.369,-2.172 -0.213,-2.687 0.156,-0.521 0.437,-2.052 0.5,-3.276 0.073,-1.224 0.672,-2.718 0.801,-5.042 0.068,-1.224 0.901,-2.370003 2.667,-2.192003 1.75,0.172 2.313,1.218003 2.005,2.688003 -0.301,1.462 -1.208,2.708 -1.62,4.166 -0.405,1.452 -0.687,2.974 -0.853,4.176 -0.183,1.371 -0.787,1.98 -1.251,2.1 -1.151,0.318 -2.036,0.067 -2.036,0.067 z"
     id="path611" />
  <path
     style="fill:#231f20;fill-opacity:1;fill-rule:nonzero;stroke:none"
     d="m 77.931032,84.517338 c 0.636,0.068 1.964,1.496 3.428,2.162 0.984,0.452 2.796,2.52 3.817,2.895 0.927,0.344 1.323,0.589 1.11,1.719 -0.126,0.672 -0.803,1.881 -1.308,1.813 -1.176,-0.167 -1.99,-0.651 -2.771,-1.38 -0.891,-0.833 -3.099,-3.292 -3.468,-3.781 -0.901,-1.235 -1.615,-1.423 -1.885,-1.724 -0.511,-0.568 -0.418,-0.902 -0.12,-1.308 0.557,-0.776 1.197,-0.396 1.197,-0.396"
     id="path612" />
  <path
     style="fill:none;stroke:#231f20;stroke-width:0.565977;stroke-linecap:butt;stroke-linejoin:miter;stroke-miterlimit:4;stroke-dasharray:none;stroke-opacity:1"
     d="m 77.931032,84.517338 c 0.636,0.068 1.964,1.496 3.428,2.162 0.984,0.452 2.796,2.52 3.817,2.895 0.927,0.344 1.323,0.589 1.11,1.719 -0.126,0.672 -0.803,1.881 -1.308,1.813 -1.176,-0.167 -1.99,-0.651 -2.771,-1.38 -0.891,-0.833 -3.099,-3.292 -3.468,-3.781 -0.901,-1.235 -1.615,-1.423 -1.885,-1.724 -0.511,-0.568 -0.418,-0.902 -0.12,-1.308 0.557,-0.776 1.197,-0.396 1.197,-0.396 z"
     id="path613" />
  <path
     style="fill:#231f20;fill-opacity:1;fill-rule:nonzero;stroke:none"
     d="m 84.978032,90.215338 c 0.917,-0.917 2.057,0.776 2.428,1.167 0.369,0.401 1.552,1.411 2.572,2.077 1.026,0.678 2.01,1.954 3.958,3.234999 1.022,0.677 1.584,1.975 0.547,3.417003 -1.031,1.416 -2.219,1.375 -3.328,0.375 -1.115,-0.995003 -1.735,-2.412003 -2.787,-3.495003 -1.052,-1.087999 -2.224,-2.097999 -3.176,-2.848999 -1.094,-0.849 -1.313,-1.677 -1.188,-2.135 0.307,-1.157 0.974,-1.792 0.974,-1.792"
     id="path614" />
  <path
     style="fill:none;stroke:#231f20;stroke-width:0.565977;stroke-linecap:butt;stroke-linejoin:miter;stroke-miterlimit:4;stroke-dasharray:none;stroke-opacity:1"
     d="m 84.978032,90.215338 c 0.917,-0.917 2.057,0.776 2.428,1.167 0.369,0.401 1.552,1.411 2.572,2.077 1.026,0.678 2.01,1.954 3.958,3.234999 1.022,0.677 1.584,1.975 0.547,3.417003 -1.031,1.416 -2.219,1.375 -3.328,0.375 -1.115,-0.995003 -1.735,-2.412003 -2.787,-3.495003 -1.052,-1.087999 -2.224,-2.097999 -3.176,-2.848999 -1.094,-0.849 -1.313,-1.677 -1.188,-2.135 0.307,-1.157 0.974,-1.792 0.974,-1.792 z"
     id="path615" />
  <path
     style="fill:#231f20;fill-opacity:1;fill-rule:nonzero;stroke:none"
     d="m 134.80603,133.18334 c -1.312,0.334 -1.886,-0.473 -1.802,-1.504 0.026,-0.308 -0.27,-0.6 -0.224,-0.896 0.12,-0.693 1.574,-1.661 2.683,-0.652 0.077,0.074 0.823,0.418 1.343,0.762 1.005,0.677 2.698,2.509 2.562,5.202 -0.057,1.276 -0.801,1.006 -0.937,0.479 -0.411,-1.667 -0.771,-1.728 -1.041,-2.124 -0.902,-1.349 -2.584,-1.267 -2.584,-1.267"
     id="path616" />
  <path
     style="fill:none;stroke:#231f20;stroke-width:0.332927;stroke-linecap:butt;stroke-linejoin:miter;stroke-miterlimit:4;stroke-dasharray:none;stroke-opacity:1"
     d="m 134.80603,133.18334 c -1.312,0.334 -1.886,-0.473 -1.802,-1.504 0.026,-0.308 -0.27,-0.6 -0.224,-0.896 0.12,-0.693 1.574,-1.661 2.683,-0.652 0.077,0.074 0.823,0.418 1.343,0.762 1.005,0.677 2.698,2.509 2.562,5.202 -0.057,1.276 -0.801,1.006 -0.937,0.479 -0.411,-1.667 -0.771,-1.728 -1.041,-2.124 -0.902,-1.349 -2.584,-1.267 -2.584,-1.267 z"
     id="path617" />
  <path
     style="fill:#231f20;fill-opacity:1;fill-rule:nonzero;stroke:none"
     d="m 121.12403,120.35534 c -1.62,1.59 -1.724,2.115 -1.098,2.839 0.416,0.485 0.629,1.084 0.869,1.385 0.797,1.022 2.557,2.423 8.583,5.074 1.365,0.604 3.276,1.458 4.032,1.874 1.186,0.652 1.468,-1.77 1.005,-2.03 -1.5,-0.839 -2.459,-1.532 -2.953,-1.912 -0.344,-0.26 -1.006,-0.635 -2.194,-1.802 -1.801,-1.77 -2.614,-3.1 -4.286,-4.401 -0.776,-0.604 -0.979,-1.547 -2.042,-1.751 -1.062,-0.208 -1.916,0.724 -1.916,0.724"
     id="path618" />
  <path
     style="fill:none;stroke:#231f20;stroke-width:0.565977;stroke-linecap:butt;stroke-linejoin:miter;stroke-miterlimit:4;stroke-dasharray:none;stroke-opacity:1"
     d="m 121.12403,120.35534 c -1.62,1.59 -1.724,2.115 -1.098,2.839 0.416,0.485 0.629,1.084 0.869,1.385 0.797,1.022 2.557,2.423 8.583,5.074 1.365,0.604 3.276,1.458 4.032,1.874 1.186,0.652 1.468,-1.77 1.005,-2.03 -1.5,-0.839 -2.459,-1.532 -2.953,-1.912 -0.344,-0.26 -1.006,-0.635 -2.194,-1.802 -1.801,-1.77 -2.614,-3.1 -4.286,-4.401 -0.776,-0.604 -0.979,-1.547 -2.042,-1.751 -1.062,-0.208 -1.916,0.724 -1.916,0.724 z"
     id="path619" />
  <path
     style="fill:#0098c9;fill-opacity:1;fill-rule:nonzero;stroke:none"
     d="m 98.775032,105.88234 c 2.270998,2.161 2.520998,2.869 2.884998,3.719 2.292,5.306 4.855,4.088 6.427,1.666 1.86,-2.833 2.579,-3.817 -2.38,-7.697 -1.38,-1.079 -6.123998,-5.917003 -6.123998,-5.917003 -1.464,-1.958999 -3.939,-3.087999 -5.365,-2.781999 -1.495,0.334 -0.875,0.312 -2.208,0.864 -1.271,0.537999 -2.584,2.281999 -2.308,3.490999 0.256,1.156003 1.849,1.672003 4.037,2.708003 1.724,0.823 5.036,3.948 5.036,3.948"
     id="path620" />
  <path
     style="fill:none;stroke:#231f20;stroke-width:0.565977;stroke-linecap:butt;stroke-linejoin:miter;stroke-miterlimit:4;stroke-dasharray:none;stroke-opacity:1"
     d="m 98.775032,105.88234 c 2.270998,2.161 2.520998,2.869 2.884998,3.719 2.292,5.306 4.855,4.088 6.427,1.666 1.86,-2.833 2.579,-3.817 -2.38,-7.697 -1.38,-1.079 -6.123998,-5.917003 -6.123998,-5.917003 -1.464,-1.958999 -3.939,-3.087999 -5.365,-2.781999 -1.495,0.334 -0.875,0.312 -2.208,0.864 -1.271,0.537999 -2.584,2.281999 -2.308,3.490999 0.256,1.156003 1.849,1.672003 4.037,2.708003 1.724,0.823 5.036,3.948 5.036,3.948 z"
     id="path621" />
  <path
     style="fill:#ffffff;fill-opacity:1;fill-rule:nonzero;stroke:none"
     d="m 86.223032,91.074338 c -0.235,-0.061 -0.208,-1.213 -0.735,-1.26 -0.525,-0.047 -0.792,0.693 -2.661,1.38 l -0.016,0.005 c -1.385,0.454 -2.396,1.407 -2.609,2.642 -0.354,2.046 1.609,4.092999 4.39,4.571999 2.787,0.49 5.328,-0.782 5.683,-2.827999 0.349,-1.959 -1.453,-3.922 -4.052,-4.511"
     id="path622" />
  <path
     style="fill:none;stroke:#231f20;stroke-width:0.565977;stroke-linecap:butt;stroke-linejoin:miter;stroke-miterlimit:4;stroke-dasharray:none;stroke-opacity:1"
     d="m 86.223032,91.074338 c -0.235,-0.061 -0.208,-1.213 -0.735,-1.26 -0.525,-0.047 -0.792,0.693 -2.661,1.38 l -0.016,0.005 c -1.385,0.454 -2.396,1.407 -2.609,2.642 -0.354,2.046 1.609,4.092999 4.39,4.571999 2.787,0.49 5.328,-0.782 5.683,-2.827999 0.349,-1.959 -1.453,-3.922 -4.052,-4.511 z"
     id="path623" />
  <path
     style="fill:#231f20;fill-opacity:1;fill-rule:nonzero;stroke:none"
     d="m 122.40003,122.47034 c 3.099,-2.547 -0.636,-4.203 -0.937,-4.567 -3.167,-3.89 -3.491,-4.084 -6.115,-6.876 -3.776,-4.02 -6.989,-6.202 -9.974,-4.686 -2.031,1.025 -2.75,2.5 -2.63,3.806 0.135,1.459 1.859,4.131 4.75,4.11 l 1.464,0.89 c 0.905,0.724 1.353,1.079 1.776,1.47 0.734,0.686 1.557,1.38 3.057,2.634 2.661,2.235 6.208,3.719 6.208,3.719 0.969,0.776 2.401,-0.5 2.401,-0.5"
     id="path624" />
  <path
     style="fill:none;stroke:#231f20;stroke-width:0.565977;stroke-linecap:butt;stroke-linejoin:miter;stroke-miterlimit:4;stroke-dasharray:none;stroke-opacity:1"
     d="m 122.40003,122.47034 c 3.099,-2.547 -0.636,-4.203 -0.937,-4.567 -3.167,-3.89 -3.491,-4.084 -6.115,-6.876 -3.776,-4.02 -6.989,-6.202 -9.974,-4.686 -2.031,1.025 -2.75,2.5 -2.63,3.806 0.135,1.459 1.859,4.131 4.75,4.11 l 1.464,0.89 c 0.905,0.724 1.353,1.079 1.776,1.47 0.734,0.686 1.557,1.38 3.057,2.634 2.661,2.235 6.208,3.719 6.208,3.719 0.969,0.776 2.401,-0.5 2.401,-0.5 z"
     id="path625" />
  <path
     style="fill:#0098c9;fill-opacity:1;fill-rule:nonzero;stroke:none"
     d="m 111.10303,106.77334 c -0.057,-0.058 -0.109,-0.115 -0.151,-0.172 -0.474,-0.656 -1.104,-0.688 -2.15,-0.698 -1.506,-0.36 -2.86,-0.198 -4.043,0.676 -1.823,1.35 -2.291,2.923 -1.953,4.199 0.376,1.411 2.516,3.76 5.36,3.255 l 4.557,-6.354 c -0.557,-0.349 -1.093,-0.641 -1.62,-0.906"
     id="path626" />
  <path
     style="fill:none;stroke:#231f20;stroke-width:0.565977;stroke-linecap:butt;stroke-linejoin:miter;stroke-miterlimit:4;stroke-dasharray:none;stroke-opacity:1"
     d="m 111.10303,106.77334 c -0.057,-0.058 -0.109,-0.115 -0.151,-0.172 -0.474,-0.656 -1.104,-0.688 -2.15,-0.698 -1.506,-0.36 -2.86,-0.198 -4.043,0.676 -1.823,1.35 -2.291,2.923 -1.953,4.199 0.376,1.411 2.516,3.76 5.36,3.255 l 4.557,-6.354 c -0.557,-0.349 -1.093,-0.641 -1.62,-0.906 z"
     id="path627" />
  <path
     style="fill:#231f20;fill-opacity:1;fill-rule:nonzero;stroke:none"
     d="m 109.13503,111.99134 c -0.641,-0.062 -1.991,-1.469 -3.464,-2.114 -0.989,-0.438 -2.833,-2.475 -3.86,-2.834 -0.932,-0.328 -1.333,-0.568 -1.135,-1.708 0.115,-0.672 0.776,-1.89 1.276,-1.822 1.183,0.14 2.006,0.613 2.796,1.333 0.902,0.817 3.152,3.244 3.522,3.733 0.922,1.214 1.636,1.391 1.912,1.694 0.514,0.557 0.432,0.89 0.145,1.306 -0.552,0.782 -1.192,0.412 -1.192,0.412"
     id="path628" />
  <path
     style="fill:none;stroke:#231f20;stroke-width:0.565977;stroke-linecap:butt;stroke-linejoin:miter;stroke-miterlimit:4;stroke-dasharray:none;stroke-opacity:1"
     d="m 109.13503,111.99134 c -0.641,-0.062 -1.991,-1.469 -3.464,-2.114 -0.989,-0.438 -2.833,-2.475 -3.86,-2.834 -0.932,-0.328 -1.333,-0.568 -1.135,-1.708 0.115,-0.672 0.776,-1.89 1.276,-1.822 1.183,0.14 2.006,0.613 2.796,1.333 0.902,0.817 3.152,3.244 3.522,3.733 0.922,1.214 1.636,1.391 1.912,1.694 0.514,0.557 0.432,0.89 0.145,1.306 -0.552,0.782 -1.192,0.412 -1.192,0.412 z"
     id="path629" />
  <path
     style="fill:#231f20;fill-opacity:1;fill-rule:nonzero;stroke:none"
     d="m 102.53003,106.53834 c -0.834,0.989 -2.119,-0.583 -2.52,-0.943 -0.411998,-0.364 -1.677998,-1.265 -2.755998,-1.838 -1.083,-0.583 -2.182,-1.76 -4.234,-2.859 -1.078,-0.579 -1.761,-1.824003 -0.854,-3.349003 0.89,-1.510999 2.078,-1.578999 3.281,-0.683 1.203,0.896 1.943,2.245 3.088,3.235003 1.147,0.984 2.406998,1.885 3.422998,2.541 1.166,0.745 1.457,1.552 1.38,2.021 -0.203,1.178 -0.808,1.875 -0.808,1.875"
     id="path630" />
  <path
     style="fill:none;stroke:#231f20;stroke-width:0.565977;stroke-linecap:butt;stroke-linejoin:miter;stroke-miterlimit:4;stroke-dasharray:none;stroke-opacity:1"
     d="m 102.53003,106.53834 c -0.834,0.989 -2.119,-0.583 -2.52,-0.943 -0.411998,-0.364 -1.677998,-1.265 -2.755998,-1.838 -1.083,-0.583 -2.182,-1.76 -4.234,-2.859 -1.078,-0.579 -1.761,-1.824003 -0.854,-3.349003 0.89,-1.510999 2.078,-1.578999 3.281,-0.683 1.203,0.896 1.943,2.245 3.088,3.235003 1.147,0.984 2.406998,1.885 3.422998,2.541 1.166,0.745 1.457,1.552 1.38,2.021 -0.203,1.178 -0.808,1.875 -0.808,1.875 z"
     id="path631" />
  <path
     style="fill:#231f20;fill-opacity:1;fill-rule:nonzero;stroke:none"
     d="m 117.15003,81.309338 c -0.11,-0.635 0.906,-2.302 1.152,-3.886 0.166,-1.073 1.666,-3.38 1.749,-4.458 0.079,-0.99 0.208,-1.438 1.355,-1.542 0.681,-0.062 2.03,0.266 2.098,0.766 0.162,1.182 -0.089,2.1 -0.573,3.042 -0.563,1.083 -2.328,3.88 -2.703,4.364 -0.937,1.203 -0.926,1.943 -1.146,2.282 -0.406,0.645 -0.75,0.65 -1.223,0.478 -0.901,-0.333 -0.709,-1.046 -0.709,-1.046"
     id="path632" />
  <path
     style="fill:none;stroke:#231f20;stroke-width:0.565977;stroke-linecap:butt;stroke-linejoin:miter;stroke-miterlimit:4;stroke-dasharray:none;stroke-opacity:1"
     d="m 117.15003,81.309338 c -0.11,-0.635 0.906,-2.302 1.152,-3.886 0.166,-1.073 1.666,-3.38 1.749,-4.458 0.079,-0.99 0.208,-1.438 1.355,-1.542 0.681,-0.062 2.03,0.266 2.098,0.766 0.162,1.182 -0.089,2.1 -0.573,3.042 -0.563,1.083 -2.328,3.88 -2.703,4.364 -0.937,1.203 -0.926,1.943 -1.146,2.282 -0.406,0.645 -0.75,0.65 -1.223,0.478 -0.901,-0.333 -0.709,-1.046 -0.709,-1.046 z"
     id="path633" />
  <path
     style="fill:#231f20;fill-opacity:1;fill-rule:nonzero;stroke:none"
     d="m 120.72303,72.981338 c -1.131,-0.635 0.188,-2.198 0.464,-2.656 0.285,-0.47 0.937,-1.88 1.307,-3.042 0.369,-1.166 1.328,-2.469 2.036,-4.682 0.37,-1.167 1.469,-2.068 3.136,-1.454 1.645,0.599 1.926,1.756 1.27,3.099 -0.661,1.339 -1.854,2.324 -2.614,3.631 -0.76,1.302 -1.411,2.702 -1.875,3.828 -0.521,1.281 -1.26,1.718 -1.74,1.724 -1.192,0.016 -1.984,-0.448 -1.984,-0.448"
     id="path634" />
  <path
     style="fill:none;stroke:#231f20;stroke-width:0.565977;stroke-linecap:butt;stroke-linejoin:miter;stroke-miterlimit:4;stroke-dasharray:none;stroke-opacity:1"
     d="m 120.72303,72.981338 c -1.131,-0.635 0.188,-2.198 0.464,-2.656 0.285,-0.47 0.937,-1.88 1.307,-3.042 0.369,-1.166 1.328,-2.469 2.036,-4.682 0.37,-1.167 1.469,-2.068 3.136,-1.454 1.645,0.599 1.926,1.756 1.27,3.099 -0.661,1.339 -1.854,2.324 -2.614,3.631 -0.76,1.302 -1.411,2.702 -1.875,3.828 -0.521,1.281 -1.26,1.718 -1.74,1.724 -1.192,0.016 -1.984,-0.448 -1.984,-0.448 z"
     id="path635" />
  <path
     style="fill:#231f20;fill-opacity:1;fill-rule:nonzero;stroke:none"
     d="m 148.55103,13.361338 c 0.682,1.167 0.062,1.937 -0.959,2.136 -0.296,0.063 -0.5,0.427 -0.801,0.463 -0.699,0.073 -2.022,-1.067 -1.355,-2.406 0.047,-0.094 0.183,-0.906 0.369,-1.5 0.382,-1.15 1.683,-3.2759998 4.314,-3.8799998 1.244,-0.286 1.182,0.5 0.713,0.776 -1.489,0.843 -1.453,1.2079998 -1.76,1.5779998 -1.052,1.234 -0.521,2.833 -0.521,2.833"
     id="path636" />
  <path
     style="fill:none;stroke:#231f20;stroke-width:0.332927;stroke-linecap:butt;stroke-linejoin:miter;stroke-miterlimit:4;stroke-dasharray:none;stroke-opacity:1"
     d="m 148.55103,13.361338 c 0.682,1.167 0.062,1.937 -0.959,2.136 -0.296,0.063 -0.5,0.427 -0.801,0.463 -0.699,0.073 -2.022,-1.067 -1.355,-2.406 0.047,-0.094 0.183,-0.906 0.369,-1.5 0.382,-1.15 1.683,-3.2759998 4.314,-3.8799998 1.244,-0.286 1.182,0.5 0.713,0.776 -1.489,0.843 -1.453,1.2079998 -1.76,1.5779998 -1.052,1.234 -0.521,2.833 -0.521,2.833 z"
     id="path637" />
  <path
     style="fill:#231f20;fill-opacity:1;fill-rule:nonzero;stroke:none"
     d="m 139.92003,30.008338 c 1.97,1.129 2.5,1.082 3.032,0.285 0.353,-0.531 0.869,-0.9 1.099,-1.213 0.765,-1.042 1.636,-3.12 2.552,-9.635 0.208,-1.48 0.51,-3.552 0.708,-4.385 0.302,-1.324 -2.099,-0.938 -2.224,-0.418 -0.4,1.667 -0.812,2.776 -1.042,3.36 -0.156,0.396 -0.338,1.14 -1.14,2.599 -1.213,2.213 -2.27,3.359 -3.067,5.317 -0.37,0.912 -1.224,1.36 -1.131,2.443 0.084,1.079 1.213,1.647 1.213,1.647"
     id="path638" />
  <path
     style="fill:none;stroke:#231f20;stroke-width:0.565977;stroke-linecap:butt;stroke-linejoin:miter;stroke-miterlimit:4;stroke-dasharray:none;stroke-opacity:1"
     d="m 139.92003,30.008338 c 1.97,1.129 2.5,1.082 3.032,0.285 0.353,-0.531 0.869,-0.9 1.099,-1.213 0.765,-1.042 1.636,-3.12 2.552,-9.635 0.208,-1.48 0.51,-3.552 0.708,-4.385 0.302,-1.324 -2.099,-0.938 -2.224,-0.418 -0.4,1.667 -0.812,2.776 -1.042,3.36 -0.156,0.396 -0.338,1.14 -1.14,2.599 -1.213,2.213 -2.27,3.359 -3.067,5.317 -0.37,0.912 -1.224,1.36 -1.131,2.443 0.084,1.079 1.213,1.647 1.213,1.647 z"
     id="path639" />
  <path
     style="fill:#0098c9;fill-opacity:1;fill-rule:nonzero;stroke:none"
     d="m 132.06203,55.450338 c 1.464,-2.776 2.077,-3.209 2.792,-3.792 4.489,-3.645 2.614,-5.781 -0.142,-6.641 -3.234,-1.015 -4.374,-1.443 -6.765,4.385 -0.661,1.62 -4.027,7.496 -4.027,7.496 -1.489,1.943 -1.905,4.629 -1.224,5.921 0.73,1.35 0.543,0.755 1.434,1.891 0.858,1.079 2.896,1.869 3.984,1.276 1.041,-0.563 1.104,-2.235 1.51,-4.62 0.328,-1.885 2.438,-5.916 2.438,-5.916"
     id="path640" />
  <path
     style="fill:none;stroke:#231f20;stroke-width:0.565977;stroke-linecap:butt;stroke-linejoin:miter;stroke-miterlimit:4;stroke-dasharray:none;stroke-opacity:1"
     d="m 132.06203,55.450338 c 1.464,-2.776 2.077,-3.209 2.792,-3.792 4.489,-3.645 2.614,-5.781 -0.142,-6.641 -3.234,-1.015 -4.374,-1.443 -6.765,4.385 -0.661,1.62 -4.027,7.496 -4.027,7.496 -1.489,1.943 -1.905,4.629 -1.224,5.921 0.73,1.35 0.543,0.755 1.434,1.891 0.858,1.079 2.896,1.869 3.984,1.276 1.041,-0.563 1.104,-2.235 1.51,-4.62 0.328,-1.885 2.438,-5.916 2.438,-5.916 z"
     id="path641" />
  <path
     style="fill:#ffffff;fill-opacity:1;fill-rule:nonzero;stroke:none"
     d="m 121.21203,71.543338 c 0,0.246 -1.109,0.531 -1.016,1.052 0.1,0.522 0.886,0.574 2.054,2.183 l 0.009,0.015 c 0.813,1.209 2,1.928 3.251,1.797 2.062,-0.213 3.5,-2.661 3.208,-5.468 -0.287,-2.813 -2.198,-4.917 -4.266,-4.699 -1.98,0.199 -3.38,2.459 -3.24,5.12"
     id="path642" />
  <path
     style="fill:none;stroke:#231f20;stroke-width:0.565977;stroke-linecap:butt;stroke-linejoin:miter;stroke-miterlimit:4;stroke-dasharray:none;stroke-opacity:1"
     d="m 121.21203,71.543338 c 0,0.246 -1.109,0.531 -1.016,1.052 0.1,0.522 0.886,0.574 2.054,2.183 l 0.009,0.015 c 0.813,1.209 2,1.928 3.251,1.797 2.062,-0.213 3.5,-2.661 3.208,-5.468 -0.287,-2.813 -2.198,-4.917 -4.266,-4.699 -1.98,0.199 -3.38,2.459 -3.24,5.12 z"
     id="path643" />
  <path
     style="fill:#231f20;fill-opacity:1;fill-rule:nonzero;stroke:none"
     d="m 141.61403,28.205338 c -3.298,-2.292 -3.875,1.751 -4.146,2.141 -2.881,4.104 -2.985,4.468 -4.953,7.75 -2.849,4.734 -4.079,8.412 -1.808,10.88 1.543,1.666 3.156,1.963 4.38,1.494 1.365,-0.53 3.469,-2.91 2.667,-5.686 l 0.458,-1.652 c 0.448,-1.067 0.667,-1.599 0.932,-2.11 0.459,-0.89 0.902,-1.869 1.704,-3.656 1.427,-3.166 1.896,-6.984 1.896,-6.984 0.484,-1.145 -1.13,-2.177 -1.13,-2.177"
     id="path644" />
  <path
     style="fill:none;stroke:#231f20;stroke-width:0.565977;stroke-linecap:butt;stroke-linejoin:miter;stroke-miterlimit:4;stroke-dasharray:none;stroke-opacity:1"
     d="m 141.61403,28.205338 c -3.298,-2.292 -3.875,1.751 -4.146,2.141 -2.881,4.104 -2.985,4.468 -4.953,7.75 -2.849,4.734 -4.079,8.412 -1.808,10.88 1.543,1.666 3.156,1.963 4.38,1.494 1.365,-0.53 3.469,-2.91 2.667,-5.686 l 0.458,-1.652 c 0.448,-1.067 0.667,-1.599 0.932,-2.11 0.459,-0.89 0.902,-1.869 1.704,-3.656 1.427,-3.166 1.896,-6.984 1.896,-6.984 0.484,-1.145 -1.13,-2.177 -1.13,-2.177 z"
     id="path645" />
  <path
     style="fill:#0098c9;fill-opacity:1;fill-rule:nonzero;stroke:none"
     d="m 137.35403,44.194338 -7.35,-2.661 c -0.188,0.636 -0.322,1.224 -0.432,1.803 -0.042,0.066 -0.084,0.134 -0.125,0.192 -0.5,0.641 -0.365,1.256 -0.093,2.261 0.066,1.547 0.588,2.807 1.749,3.708 1.797,1.385 3.437,1.41 4.568,0.74 1.26,-0.745 2.943,-3.448 1.683,-6.043"
     id="path646" />
  <path
     style="fill:none;stroke:#231f20;stroke-width:0.565977;stroke-linecap:butt;stroke-linejoin:miter;stroke-miterlimit:4;stroke-dasharray:none;stroke-opacity:1"
     d="m 137.35403,44.194338 -7.35,-2.661 c -0.188,0.636 -0.322,1.224 -0.432,1.803 -0.042,0.066 -0.084,0.134 -0.125,0.192 -0.5,0.641 -0.365,1.256 -0.093,2.261 0.066,1.547 0.588,2.807 1.749,3.708 1.797,1.385 3.437,1.41 4.568,0.74 1.26,-0.745 2.943,-3.448 1.683,-6.043 z"
     id="path647" />
  <path
     style="fill:#231f20;fill-opacity:1;fill-rule:nonzero;stroke:none"
     d="m 121.94703,42.309338 c 0.531,0.36 1.041,2.245 2.021,3.516 0.662,0.859 1.302,3.531 2.026,4.339 0.661,0.739 0.901,1.139 0.182,2.046 -0.428,0.531 -1.589,1.287 -2,0.989 -0.969,-0.692 -1.464,-1.505 -1.813,-2.516 -0.391,-1.15 -1.203,-4.358 -1.296,-4.962 -0.229,-1.505 -0.765,-2.005 -0.865,-2.407 -0.187,-0.734 0.048,-0.984 0.5,-1.213 0.86,-0.421 1.245,0.208 1.245,0.208"
     id="path648" />
  <path
     style="fill:none;stroke:#231f20;stroke-width:0.565977;stroke-linecap:butt;stroke-linejoin:miter;stroke-miterlimit:4;stroke-dasharray:none;stroke-opacity:1"
     d="m 121.94703,42.309338 c 0.531,0.36 1.041,2.245 2.021,3.516 0.662,0.859 1.302,3.531 2.026,4.339 0.661,0.739 0.901,1.139 0.182,2.046 -0.428,0.531 -1.589,1.287 -2,0.989 -0.969,-0.692 -1.464,-1.505 -1.813,-2.516 -0.391,-1.15 -1.203,-4.358 -1.296,-4.962 -0.229,-1.505 -0.765,-2.005 -0.865,-2.407 -0.187,-0.734 0.048,-0.984 0.5,-1.213 0.86,-0.421 1.245,0.208 1.245,0.208 z"
     id="path649" />
  <path
     style="fill:#231f20;fill-opacity:1;fill-rule:nonzero;stroke:none"
     d="m 125.31603,50.377338 c 1.282,-0.208 1.224,1.828 1.292,2.358 0.068,0.543 0.443,2.058 0.88,3.194 0.438,1.15 0.5,2.76 1.334,4.937 0.432,1.141 0.136,2.527 -1.542,3.089 -1.666,0.558 -2.609,-0.172 -2.932,-1.636 -0.322,-1.464 0,-2.969 -0.218,-4.464 -0.224,-1.494 -0.59,-3 -0.928,-4.161 -0.396,-1.328 -0.088,-2.129 0.281,-2.432 0.923,-0.755 1.833,-0.885 1.833,-0.885"
     id="path650" />
  <path
     style="fill:none;stroke:#231f20;stroke-width:0.565977;stroke-linecap:butt;stroke-linejoin:miter;stroke-miterlimit:4;stroke-dasharray:none;stroke-opacity:1"
     d="m 125.31603,50.377338 c 1.282,-0.208 1.224,1.828 1.292,2.358 0.068,0.543 0.443,2.058 0.88,3.194 0.438,1.15 0.5,2.76 1.334,4.937 0.432,1.141 0.136,2.527 -1.542,3.089 -1.666,0.558 -2.609,-0.172 -2.932,-1.636 -0.322,-1.464 0,-2.969 -0.218,-4.464 -0.224,-1.494 -0.59,-3 -0.928,-4.161 -0.396,-1.328 -0.088,-2.129 0.281,-2.432 0.923,-0.755 1.833,-0.885 1.833,-0.885 z"
     id="path651" />
  <path
     style="fill:#231f20;fill-opacity:1;fill-rule:nonzero;stroke:none"
     d="m 181.75903,42.929338 c 0.385,0.625 2.933,2.636 3.537,3.068 0.536,0.396 1.213,1.333 2.229,0.776 0.411,-0.219 0.854,-0.833 0.963,-1.136 0.095,-0.244 -0.099,-0.511 -0.443,-0.708 -0.573,-0.344 -0.869,-0.219 -2.005,-0.803 0,0 -0.287,-0.098 -0.823,-0.238 -1.568,-0.432 -0.921,-0.095 -3.057,-1.23 -0.151,-0.084 -0.344,0.016 -0.391,0.115 -0.068,0.172 -0.01,0.156 -0.01,0.156"
     id="path652" />
  <path
     style="fill:none;stroke:#231f20;stroke-width:0.565977;stroke-linecap:round;stroke-linejoin:round;stroke-miterlimit:4;stroke-dasharray:none;stroke-opacity:1"
     d="m 181.75903,42.929338 c 0.385,0.625 2.933,2.636 3.537,3.068 0.536,0.396 1.213,1.333 2.229,0.776 0.411,-0.219 0.854,-0.833 0.963,-1.136 0.095,-0.244 -0.099,-0.511 -0.443,-0.708 -0.573,-0.344 -0.869,-0.219 -2.005,-0.803 0,0 -0.287,-0.098 -0.823,-0.238 -1.568,-0.432 -0.921,-0.095 -3.057,-1.23 -0.151,-0.084 -0.344,0.016 -0.391,0.115 -0.068,0.172 -0.01,0.156 -0.01,0.156 z"
     id="path653" />
  <path
     style="fill:#231f20;fill-opacity:1;fill-rule:nonzero;stroke:none"
     d="m 202.66503,81.418338 c -0.369,-0.525 -0.172,-2.463 -0.64,-4 -0.313,-1.041 0.042,-3.765 -0.349,-4.781 -0.36,-0.922 -0.432,-1.386 0.557,-1.968 0.583,-0.35 1.938,-0.642 2.219,-0.219 0.661,0.995 0.828,1.927 0.797,2.995 -0.037,1.213 -0.422,4.5 -0.548,5.098 -0.328,1.49 0.006,2.156 -0.046,2.552 -0.088,0.76 -0.402,0.912 -0.902,0.959 -0.952,0.093 -1.088,-0.636 -1.088,-0.636"
     id="path654" />
  <path
     style="fill:none;stroke:#231f20;stroke-width:0.565977;stroke-linecap:butt;stroke-linejoin:miter;stroke-miterlimit:4;stroke-dasharray:none;stroke-opacity:1"
     d="m 202.66503,81.418338 c -0.369,-0.525 -0.172,-2.463 -0.64,-4 -0.313,-1.041 0.042,-3.765 -0.349,-4.781 -0.36,-0.922 -0.432,-1.386 0.557,-1.968 0.583,-0.35 1.938,-0.642 2.219,-0.219 0.661,0.995 0.828,1.927 0.797,2.995 -0.037,1.213 -0.422,4.5 -0.548,5.098 -0.328,1.49 0.006,2.156 -0.046,2.552 -0.088,0.76 -0.402,0.912 -0.902,0.959 -0.952,0.093 -1.088,-0.636 -1.088,-0.636 z"
     id="path655" />
  <path
     style="fill:#231f20;fill-opacity:1;fill-rule:nonzero;stroke:none"
     d="m 202.28503,72.361338 c -1.292,-0.083 -0.781,-2.058 -0.729,-2.594 0.057,-0.541 0.036,-2.098 -0.141,-3.308 -0.166,-1.213 0.141,-2.796 -0.182,-5.104 -0.172,-1.208 0.427,-2.494 2.198,-2.666 1.745,-0.167 2.494,0.756 2.485,2.25 -0.016,1.495 -0.663,2.896 -0.787,4.402 -0.12,1.505 -0.104,3.052 -0.037,4.265 0.089,1.38 -0.391,2.093 -0.817,2.301 -1.074,0.532 -1.99,0.454 -1.99,0.454"
     id="path656" />
  <path
     style="fill:none;stroke:#231f20;stroke-width:0.565977;stroke-linecap:butt;stroke-linejoin:miter;stroke-miterlimit:4;stroke-dasharray:none;stroke-opacity:1"
     d="m 202.28503,72.361338 c -1.292,-0.083 -0.781,-2.058 -0.729,-2.594 0.057,-0.541 0.036,-2.098 -0.141,-3.308 -0.166,-1.213 0.141,-2.796 -0.182,-5.104 -0.172,-1.208 0.427,-2.494 2.198,-2.666 1.745,-0.167 2.494,0.756 2.485,2.25 -0.016,1.495 -0.663,2.896 -0.787,4.402 -0.12,1.505 -0.104,3.052 -0.037,4.265 0.089,1.38 -0.391,2.093 -0.817,2.301 -1.074,0.532 -1.99,0.454 -1.99,0.454 z"
     id="path657" />
  <path
     style="fill:#231f20;fill-opacity:1;fill-rule:nonzero;stroke:none"
     d="m 201.60303,6.5703382 c 1.12,0.76 0.89,1.723 0.062,2.343 -0.245,0.188 -0.27,0.604 -0.526,0.767 -0.599,0.3639998 -2.28,-0.09 -2.26,-1.59 0,-0.104 -0.235,-0.89 -0.312,-1.505 -0.162,-1.203 0.098,-3.687 2.208,-5.364 0.994,-0.79699995 1.281,-0.063 0.978,0.385 -0.978,1.411 -0.785,1.724 -0.905,2.187 -0.417,1.568 0.755,2.777 0.755,2.777"
     id="path658" />
  <path
     style="fill:none;stroke:#231f20;stroke-width:0.332927;stroke-linecap:butt;stroke-linejoin:miter;stroke-miterlimit:4;stroke-dasharray:none;stroke-opacity:1"
     d="m 201.60303,6.5703382 c 1.12,0.76 0.89,1.723 0.062,2.343 -0.245,0.188 -0.27,0.604 -0.526,0.767 -0.599,0.3639998 -2.28,-0.09 -2.26,-1.59 0,-0.104 -0.235,-0.89 -0.312,-1.505 -0.162,-1.203 0.098,-3.687 2.208,-5.364 0.994,-0.79699995 1.281,-0.063 0.978,0.385 -0.978,1.411 -0.785,1.724 -0.905,2.187 -0.417,1.568 0.755,2.777 0.755,2.777 z"
     id="path659" />
  <path
     style="fill:#231f20;fill-opacity:1;fill-rule:nonzero;stroke:none"
     d="m 201.02003,25.314338 c 2.26,0.167 2.724,-0.104 2.859,-1.052 0.089,-0.636 0.39,-1.188 0.458,-1.568 0.246,-1.27 0.131,-3.514 -1.86,-9.79 -0.452,-1.423 -1.072,-3.4229998 -1.26,-4.2669998 -0.297,-1.323 -2.297,0.068 -2.188,0.589 0.36,1.6819998 0.475,2.8539998 0.516,3.4789998 0.032,0.427 0.188,1.177 0.099,2.839 -0.14,2.521 -0.593,4.01 -0.468,6.125 0.063,0.979 -0.516,1.755 0.036,2.687 0.547,0.937 1.808,0.958 1.808,0.958"
     id="path660" />
  <path
     style="fill:none;stroke:#231f20;stroke-width:0.565977;stroke-linecap:butt;stroke-linejoin:miter;stroke-miterlimit:4;stroke-dasharray:none;stroke-opacity:1"
     d="m 201.02003,25.314338 c 2.26,0.167 2.724,-0.104 2.859,-1.052 0.089,-0.636 0.39,-1.188 0.458,-1.568 0.246,-1.27 0.131,-3.514 -1.86,-9.79 -0.452,-1.423 -1.072,-3.4229998 -1.26,-4.2669998 -0.297,-1.323 -2.297,0.068 -2.188,0.589 0.36,1.6819998 0.475,2.8539998 0.516,3.4789998 0.032,0.427 0.188,1.177 0.099,2.839 -0.14,2.521 -0.593,4.01 -0.468,6.125 0.063,0.979 -0.516,1.755 0.036,2.687 0.547,0.937 1.808,0.958 1.808,0.958 z"
     id="path661" />
  <path
     style="fill:#0098c9;fill-opacity:1;fill-rule:nonzero;stroke:none"
     d="m 204.93103,51.653338 c 0.12,-3.136 0.484,-3.787 0.88,-4.625 2.469,-5.224 -0.14,-6.339 -3,-5.927 -3.354,0.484 -4.567,0.593 -4.203,6.88 0.099,1.745 -0.391,8.5 -0.391,8.5 -0.505,2.396 0.287,5 1.459,5.865 1.235,0.905 0.812,0.452 2.109,1.088 1.24,0.599 3.416,0.437 4.14,-0.568 0.699,-0.963 0.032,-2.495 -0.634,-4.823 -0.516,-1.838 -0.36,-6.39 -0.36,-6.39"
     id="path662" />
  <path
     style="fill:none;stroke:#231f20;stroke-width:0.565977;stroke-linecap:butt;stroke-linejoin:miter;stroke-miterlimit:4;stroke-dasharray:none;stroke-opacity:1"
     d="m 204.93103,51.653338 c 0.12,-3.136 0.484,-3.787 0.88,-4.625 2.469,-5.224 -0.14,-6.339 -3,-5.927 -3.354,0.484 -4.567,0.593 -4.203,6.88 0.099,1.745 -0.391,8.5 -0.391,8.5 -0.505,2.396 0.287,5 1.459,5.865 1.235,0.905 0.812,0.452 2.109,1.088 1.24,0.599 3.416,0.437 4.14,-0.568 0.699,-0.963 0.032,-2.495 -0.634,-4.823 -0.516,-1.838 -0.36,-6.39 -0.36,-6.39 z"
     id="path663" />
  <path
     style="fill:#ffffff;fill-opacity:1;fill-rule:nonzero;stroke:none"
     d="m 202.10803,70.855338 c 0.109,0.219 -0.771,0.964 -0.464,1.391 0.319,0.423 1.048,0.136 2.797,1.079 l 0.016,0.01 c 1.255,0.739 2.64,0.875 3.708,0.214 1.771,-1.084 2.006,-3.912 0.531,-6.318 -1.479,-2.412 -4.113,-3.485 -5.885,-2.39 -1.692,1.03 -1.979,3.676 -0.703,6.014"
     id="path664" />
  <path
     style="fill:none;stroke:#231f20;stroke-width:0.565977;stroke-linecap:butt;stroke-linejoin:miter;stroke-miterlimit:4;stroke-dasharray:none;stroke-opacity:1"
     d="m 202.10803,70.855338 c 0.109,0.219 -0.771,0.964 -0.464,1.391 0.319,0.423 1.048,0.136 2.797,1.079 l 0.016,0.01 c 1.255,0.739 2.64,0.875 3.708,0.214 1.771,-1.084 2.006,-3.912 0.531,-6.318 -1.479,-2.412 -4.113,-3.485 -5.885,-2.39 -1.692,1.03 -1.979,3.676 -0.703,6.014 z"
     id="path665" />
  <path
     style="fill:#231f20;fill-opacity:1;fill-rule:nonzero;stroke:none"
     d="m 201.76403,22.960338 c -3.963,-0.64 -2.735,3.25 -2.812,3.724 -0.823,4.948 -0.756,5.318 -1.115,9.125 -0.521,5.5 -0.036,9.349 3.074,10.593 2.109,0.839 3.692,0.407 4.598,-0.546 1,-1.067 1.87,-4.124 -0.057,-6.276 l -0.303,-1.687 c -0.052,-1.161 -0.088,-1.735 -0.072,-2.308 0.031,-1.005 0.004,-2.077 -0.042,-4.036 -0.083,-3.475 -1.312,-7.115 -1.312,-7.115 -0.058,-1.245 -1.959,-1.474 -1.959,-1.474"
     id="path666" />
  <path
     style="fill:none;stroke:#231f20;stroke-width:0.565977;stroke-linecap:butt;stroke-linejoin:miter;stroke-miterlimit:4;stroke-dasharray:none;stroke-opacity:1"
     d="m 201.76403,22.960338 c -3.963,-0.64 -2.735,3.25 -2.812,3.724 -0.823,4.948 -0.756,5.318 -1.115,9.125 -0.521,5.5 -0.036,9.349 3.074,10.593 2.109,0.839 3.692,0.407 4.598,-0.546 1,-1.067 1.87,-4.124 -0.057,-6.276 l -0.303,-1.687 c -0.052,-1.161 -0.088,-1.735 -0.072,-2.308 0.031,-1.005 0.004,-2.077 -0.042,-4.036 -0.083,-3.475 -1.312,-7.115 -1.312,-7.115 -0.058,-1.245 -1.959,-1.474 -1.959,-1.474 z"
     id="path667" />
  <path
     style="fill:#0098c9;fill-opacity:1;fill-rule:nonzero;stroke:none"
     d="m 204.83703,39.221338 -7.781,0.781 c 0.109,0.646 0.245,1.239 0.391,1.807 -0.006,0.079 -0.016,0.156 -0.027,0.229 -0.176,0.792 0.215,1.287 0.896,2.074 0.729,1.369 1.74,2.281 3.177,2.588 2.219,0.48 3.708,-0.208 4.438,-1.302 0.817,-1.218 1.161,-4.381 -1.094,-6.177"
     id="path668" />
  <path
     style="fill:none;stroke:#231f20;stroke-width:0.565977;stroke-linecap:butt;stroke-linejoin:miter;stroke-miterlimit:4;stroke-dasharray:none;stroke-opacity:1"
     d="m 204.83703,39.221338 -7.781,0.781 c 0.109,0.646 0.245,1.239 0.391,1.807 -0.006,0.079 -0.016,0.156 -0.027,0.229 -0.176,0.792 0.215,1.287 0.896,2.074 0.729,1.369 1.74,2.281 3.177,2.588 2.219,0.48 3.708,-0.208 4.438,-1.302 0.817,-1.218 1.161,-4.381 -1.094,-6.177 z"
     id="path669" />
  <path
     style="fill:#231f20;fill-opacity:1;fill-rule:nonzero;stroke:none"
     d="m 188.52903,45.622338 c 0.642,-0.037 2.194,1.151 3.746,1.567 1.046,0.281 3.177,2.016 4.245,2.213 0.973,0.183 1.405,0.36 1.385,1.516 -0.016,0.677 -0.48,1.985 -0.989,2 -1.183,0.041 -2.073,-0.307 -2.964,-0.901 -1.011,-0.671 -3.604,-2.728 -4.047,-3.151 -1.094,-1.057 -1.828,-1.125 -2.146,-1.385 -0.594,-0.468 -0.563,-0.812 -0.344,-1.271 0.428,-0.854 1.114,-0.588 1.114,-0.588"
     id="path670" />
  <path
     style="fill:none;stroke:#231f20;stroke-width:0.565977;stroke-linecap:butt;stroke-linejoin:miter;stroke-miterlimit:4;stroke-dasharray:none;stroke-opacity:1"
     d="m 188.52903,45.622338 c 0.642,-0.037 2.194,1.151 3.746,1.567 1.046,0.281 3.177,2.016 4.245,2.213 0.973,0.183 1.405,0.36 1.385,1.516 -0.016,0.677 -0.48,1.985 -0.989,2 -1.183,0.041 -2.073,-0.307 -2.964,-0.901 -1.011,-0.671 -3.604,-2.728 -4.047,-3.151 -1.094,-1.057 -1.828,-1.125 -2.146,-1.385 -0.594,-0.468 -0.563,-0.812 -0.344,-1.271 0.428,-0.854 1.114,-0.588 1.114,-0.588 z"
     id="path671" />
  <path
     style="fill:#231f20;fill-opacity:1;fill-rule:nonzero;stroke:none"
     d="m 196.65503,49.997338 c 1.062,-0.74 1.896,1.12 2.188,1.568 0.296,0.457 1.286,1.666 2.172,2.5 0.89,0.842 1.645,2.276 3.338,3.874 0.886,0.839 1.219,2.219 -0.057,3.454 -1.261,1.224 -2.423,0.973 -3.349,-0.21 -0.922,-1.176 -1.282,-2.67 -2.131,-3.926 -0.844,-1.25 -1.823,-2.454 -2.629,-3.354 -0.934,-1.026 -1,-1.886 -0.798,-2.313 0.5,-1.083 1.266,-1.593 1.266,-1.593"
     id="path672" />
  <path
     style="fill:none;stroke:#231f20;stroke-width:0.565977;stroke-linecap:butt;stroke-linejoin:miter;stroke-miterlimit:4;stroke-dasharray:none;stroke-opacity:1"
     d="m 196.65503,49.997338 c 1.062,-0.74 1.896,1.12 2.188,1.568 0.296,0.457 1.286,1.666 2.172,2.5 0.89,0.842 1.645,2.276 3.338,3.874 0.886,0.839 1.219,2.219 -0.057,3.454 -1.261,1.224 -2.423,0.973 -3.349,-0.21 -0.922,-1.176 -1.282,-2.67 -2.131,-3.926 -0.844,-1.25 -1.823,-2.454 -2.629,-3.354 -0.934,-1.026 -1,-1.886 -0.798,-2.313 0.5,-1.083 1.266,-1.593 1.266,-1.593 z"
     id="path673" />
</svg>
