<?xml version="1.0" encoding="UTF-8" standalone="no"?>
<!-- Created with Inkscape (http://www.inkscape.org/) -->

<svg
   version="1.1"
   id="svg1"
   width="330.16989"
   height="126.55199"
   viewBox="0 0 330.16988 126.55199"
   sodipodi:docname="cell.svg"
   xmlns:inkscape="http://www.inkscape.org/namespaces/inkscape"
   xmlns:sodipodi="http://sodipodi.sourceforge.net/DTD/sodipodi-0.dtd"
   xmlns="http://www.w3.org/2000/svg"
   xmlns:svg="http://www.w3.org/2000/svg">
  <sodipodi:namedview
     id="namedview1"
     pagecolor="#ffffff"
     bordercolor="#000000"
     borderopacity="0.25"
     inkscape:showpageshadow="2"
     inkscape:pageopacity="0.0"
     inkscape:pagecheckerboard="0"
     inkscape:deskcolor="#d1d1d1">
    <inkscape:page
       x="0"
       y="0"
       inkscape:label="1"
       id="page1"
       width="330.16989"
       height="126.55199"
       margin="0"
       bleed="0" />
  </sodipodi:namedview>
  <defs
     id="defs1" />
  <path
     style="fill:none;stroke:#231f20;stroke-width:0.399514;stroke-linecap:butt;stroke-linejoin:miter;stroke-miterlimit:4;stroke-dasharray:none;stroke-opacity:1"
     d="m 162.81467,14.488001 c -24.448,10.193 -19.974,22.699 -11.568,23.115"
     id="path677" />
  <path
     style="fill:#231f20;fill-opacity:1;fill-rule:nonzero;stroke:none"
     d="m 152.44967,37.665001 c -0.577,0.183 -1.296,0.506 -1.749,0.866 l 0.39,-0.934 -0.297,-0.968 c 0.417,0.402 1.099,0.798 1.656,1.036"
     id="path678" />
  <path
     style="fill:#231f20;fill-opacity:1;fill-rule:nonzero;stroke:#231f20;stroke-width:0.565977;stroke-linecap:round;stroke-linejoin:round;stroke-miterlimit:4;stroke-dasharray:none;stroke-opacity:1"
     d="m 179.13267,58.197001 c 0,0 -0.776,1.067 -1.823,1.572 -1.047,0.505 -2.401,0.589 -2.401,0.589 l -1.484,-2.937 4.27,-2.163 z"
     id="path679" />
  <path
     style="fill:#231f20;fill-opacity:1;fill-rule:nonzero;stroke:none"
     d="m 166.85667,46.040001 c -3.287,1.474 -3.667,-0.167 -6.203,-3.359 -2.776,-3.494 -5.287,-7.437 -6.177,-10.614 -1,-3.552 -1.516,-3.588 -0.136,-4.922 1.385,-1.329 1.937,-0.781 3.213,-0.578 1.469,0.24 3.808,7.218 6.887,10.833 1.446,1.693 6.009,4.812 5.156,5.989 -0.86,1.172 -2.74,2.651 -2.74,2.651"
     id="path680" />
  <path
     style="fill:none;stroke:#231f20;stroke-width:0.565977;stroke-linecap:butt;stroke-linejoin:miter;stroke-miterlimit:4;stroke-dasharray:none;stroke-opacity:1"
     d="m 166.85667,46.040001 c -3.287,1.474 -3.667,-0.167 -6.203,-3.359 -2.776,-3.494 -5.287,-7.437 -6.177,-10.614 -1,-3.552 -1.516,-3.588 -0.136,-4.922 1.385,-1.329 1.937,-0.781 3.213,-0.578 1.469,0.24 3.808,7.218 6.887,10.833 1.446,1.693 6.009,4.812 5.156,5.989 -0.86,1.172 -2.74,2.651 -2.74,2.651 z"
     id="path681" />
  <path
     style="fill:#231f20;fill-opacity:1;fill-rule:nonzero;stroke:none"
     d="m 156.30467,28.264001 c -1.798,1.371 -2.307,1.803 -3.49,-0.405 -0.302,-0.563 -1.032,-2.183 -1.302,-2.459 -0.902,-0.937 -1.87,-2.099 -3.635,-8.437 -0.276,-0.984 -1.12,-2.771 -1.609,-4.084 -0.48,-1.276 1.957,-1.203 2.15,-0.703 0.615,1.599 1.364,2.495 1.667,3.036 0.203,0.371 0.473,1.136 1.609,2.349 2.922,3.126 2.631,4.902 3.188,5.61 1.594,2.032 3.375,3.442 3.036,4.01 -0.552,0.932 -1.614,1.083 -1.614,1.083"
     id="path682" />
  <path
     style="fill:none;stroke:#231f20;stroke-width:0.565977;stroke-linecap:butt;stroke-linejoin:miter;stroke-miterlimit:4;stroke-dasharray:none;stroke-opacity:1"
     d="m 156.30467,28.264001 c -1.798,1.371 -2.307,1.803 -3.49,-0.405 -0.302,-0.563 -1.032,-2.183 -1.302,-2.459 -0.902,-0.937 -1.87,-2.099 -3.635,-8.437 -0.276,-0.984 -1.12,-2.771 -1.609,-4.084 -0.48,-1.276 1.957,-1.203 2.15,-0.703 0.615,1.599 1.364,2.495 1.667,3.036 0.203,0.371 0.473,1.136 1.609,2.349 2.922,3.126 2.631,4.902 3.188,5.61 1.594,2.032 3.375,3.442 3.036,4.01 -0.552,0.932 -1.614,1.083 -1.614,1.083 z"
     id="path683" />
  <path
     style="fill:#231f20;fill-opacity:1;fill-rule:nonzero;stroke:none"
     d="m 171.97667,42.493001 c 2.688,-2.4 1.344,-3.416 -0.542,-7.03 -2.068,-3.954 -4.646,-7.86 -7.188,-9.964 -2.833,-2.35 -2.656,-2.844 -4.437,-2.12 -1.776,0.718 -1.505,1.448 -1.833,2.698 -0.38,1.443 5.041,6.411 7.088,10.698 0.958,2.01 1.958,7.447 3.38,7.141 1.422,-0.303 3.532,-1.423 3.532,-1.423"
     id="path684" />
  <path
     style="fill:none;stroke:#231f20;stroke-width:0.565977;stroke-linecap:butt;stroke-linejoin:miter;stroke-miterlimit:4;stroke-dasharray:none;stroke-opacity:1"
     d="m 171.97667,42.493001 c 2.688,-2.4 1.344,-3.416 -0.542,-7.03 -2.068,-3.954 -4.646,-7.86 -7.188,-9.964 -2.833,-2.35 -2.656,-2.844 -4.437,-2.12 -1.776,0.718 -1.505,1.448 -1.833,2.698 -0.38,1.443 5.041,6.411 7.088,10.698 0.958,2.01 1.958,7.447 3.38,7.141 1.422,-0.303 3.532,-1.423 3.532,-1.423 z"
     id="path685" />
  <path
     style="fill:#0098c9;fill-opacity:1;fill-rule:nonzero;stroke:none"
     d="m 165.70067,36.941001 c -0.443,0.224 -0.792,0.88 -0.792,0.88 0,0 1.984,5.495 0.24,8.073 l -0.318,0.178 c -1.193,-0.366 0.891,0.844 1.214,1.516 1.416,2.932 2.442,7.926 2.38,9.26 -0.09,1.828 -2.151,3.448 -0.36,4.65 0,0 1.385,1.371 3.709,-0.208 0.837,-0.573 3.135,-0.932 3.135,-0.932 -0.026,-0.032 -0.052,-0.062 -0.068,-0.1 -0.567,-1.118 0.068,-2.233 1.25,-2.858 l -0.068,0.036 c 1.203,-0.588 2.506,-0.38 3.042,0.688 0.021,0.03 0.037,0.073 0.042,0.114 0,0 1.651,-1.641 2.61,-1.98 2.65,-0.937 2.186,-3.077 2.186,-3.077 0.095,-2.161 -2.26,-1.235 -3.781,-2.251 -1.115,-0.738 -4.531,-4.525 -6.052,-7.405 -0.348,-0.656 -0.083,-3.052 -0.505,-1.876 l -0.328,0.152 c -3.11,-0.115 -6.359,-4.974 -6.359,-4.974 0,0 -0.74,-0.11 -1.177,0.114"
     id="path686" />
  <path
     style="fill:none;stroke:#231f20;stroke-width:0.565977;stroke-linecap:butt;stroke-linejoin:miter;stroke-miterlimit:4;stroke-dasharray:none;stroke-opacity:1"
     d="m 165.70067,36.941001 c -0.443,0.224 -0.792,0.88 -0.792,0.88 0,0 1.984,5.495 0.24,8.073 l -0.318,0.178 c -1.193,-0.366 0.891,0.844 1.214,1.516 1.416,2.932 2.442,7.926 2.38,9.26 -0.09,1.828 -2.151,3.448 -0.36,4.65 0,0 1.385,1.371 3.709,-0.208 0.837,-0.573 3.135,-0.932 3.135,-0.932 -0.026,-0.032 -0.052,-0.062 -0.068,-0.1 -0.567,-1.118 0.068,-2.233 1.25,-2.858 l -0.068,0.036 c 1.203,-0.588 2.506,-0.38 3.042,0.688 0.021,0.03 0.037,0.073 0.042,0.114 0,0 1.651,-1.641 2.61,-1.98 2.65,-0.937 2.186,-3.077 2.186,-3.077 0.095,-2.161 -2.26,-1.235 -3.781,-2.251 -1.115,-0.738 -4.531,-4.525 -6.052,-7.405 -0.348,-0.656 -0.083,-3.052 -0.505,-1.876 l -0.328,0.152 c -3.11,-0.115 -6.359,-4.974 -6.359,-4.974 0,0 -0.74,-0.11 -1.177,0.114 z"
     id="path687" />
  <path
     style="fill:#ffffff;fill-opacity:1;fill-rule:nonzero;stroke:none"
     d="m 183.06967,62.645001 c -0.692,-2.735 -2.885,-4.543 -4.901,-4.032 -2.01,0.511 -3.083,3.141 -2.391,5.88 0.693,2.74 2.887,4.547 4.901,4.032 2.011,-0.505 3.084,-3.141 2.391,-5.88"
     id="path688" />
  <path
     style="fill:none;stroke:#231f20;stroke-width:0.565977;stroke-linecap:butt;stroke-linejoin:miter;stroke-miterlimit:4;stroke-dasharray:none;stroke-opacity:1"
     d="m 183.06967,62.645001 c -0.692,-2.735 -2.885,-4.543 -4.901,-4.032 -2.01,0.511 -3.083,3.141 -2.391,5.88 0.693,2.74 2.887,4.547 4.901,4.032 2.011,-0.505 3.084,-3.141 2.391,-5.88 z"
     id="path689" />
  <path
     style="fill:#231f20;fill-opacity:1;fill-rule:nonzero;stroke:none"
     d="m 160.05467,25.619001 c 1.984,-1.088 2.578,-1.386 1.036,-3.36 -0.396,-0.499 -1.584,-1.812 -1.734,-2.176 -0.49,-1.199 -1.167,-2.547 -6.266,-6.714 -0.792,-0.652 -2.089,-2.141 -3.089,-3.114 -0.973,-0.9479998 -1.891,1.306 -1.509,1.681 1.213,1.209 1.733,2.256 2.109,2.745 0.265,0.339 0.853,0.891 1.509,2.422 1.683,3.933 3.428,4.38 3.855,5.172 1.219,2.276 1.792,4.474 2.459,4.39 1.077,-0.129 1.63,-1.046 1.63,-1.046"
     id="path690" />
  <path
     style="fill:none;stroke:#231f20;stroke-width:0.565977;stroke-linecap:butt;stroke-linejoin:miter;stroke-miterlimit:4;stroke-dasharray:none;stroke-opacity:1"
     d="m 160.05467,25.619001 c 1.984,-1.088 2.578,-1.386 1.036,-3.36 -0.396,-0.499 -1.584,-1.812 -1.734,-2.176 -0.49,-1.199 -1.167,-2.547 -6.266,-6.714 -0.792,-0.652 -2.089,-2.141 -3.089,-3.114 -0.973,-0.9479998 -1.891,1.306 -1.509,1.681 1.213,1.209 1.733,2.256 2.109,2.745 0.265,0.339 0.853,0.891 1.509,2.422 1.683,3.933 3.428,4.38 3.855,5.172 1.219,2.276 1.792,4.474 2.459,4.39 1.077,-0.129 1.63,-1.046 1.63,-1.046 z"
     id="path691" />
  <path
     style="fill:#0098c9;fill-opacity:1;fill-rule:nonzero;stroke:none"
     d="m 173.73667,41.826001 c 0.016,-0.348 -0.11,-1.708 -0.203,-2.166 -0.62,-2.9 -2.869,-6.145 -3.328,-7.333 -0.469,-1.187 -5.932,2.505 -5.932,2.505 l 0.656,1.844 c -0.62,-0.115 -0.828,0.536 -0.828,0.536 l -1.464,-1.385 c 0,0 -5.521,3.36 -4.849,4.109 0.937,1.037 3.562,4.849 5.594,6.218 1.115,0.751 2.135,0.882 2.135,0.882 0,0 2.437,-2.918 3.625,-3.71 1.188,-0.786 4.594,-1.5 4.594,-1.5"
     id="path692" />
  <path
     style="fill:none;stroke:#231f20;stroke-width:0.565977;stroke-linecap:butt;stroke-linejoin:miter;stroke-miterlimit:4;stroke-dasharray:none;stroke-opacity:1"
     d="m 173.73667,41.826001 c 0.016,-0.348 -0.11,-1.708 -0.203,-2.166 -0.62,-2.9 -2.869,-6.145 -3.328,-7.333 -0.469,-1.187 -5.932,2.505 -5.932,2.505 l 0.656,1.844 c -0.62,-0.115 -0.828,0.536 -0.828,0.536 l -1.464,-1.385 c 0,0 -5.521,3.36 -4.849,4.109 0.937,1.037 3.562,4.849 5.594,6.218 1.115,0.751 2.135,0.882 2.135,0.882 0,0 2.437,-2.918 3.625,-3.71 1.188,-0.786 4.594,-1.5 4.594,-1.5 z"
     id="path693" />
  <path
     style="fill:#231f20;fill-opacity:1;fill-rule:nonzero;stroke:none"
     d="m 148.67367,6.9990012 c 0.579,0.333 0.319,2.12 1.396,3.7699998 0.224,0.339 0.24,0.714 0.319,1.074 0.317,1.478 -0.21,2.989 -3.048,0.421 -0.396,-0.353 -1.23,-2.2809998 -1.848,-2.7599998 -1.48,-1.135 -1.771,-4.448 -1.282,-4.609 1.063,-0.364 4.463,2.104 4.463,2.104"
     id="path694" />
  <path
     style="fill:none;stroke:#231f20;stroke-width:0.644548;stroke-linecap:round;stroke-linejoin:round;stroke-miterlimit:4;stroke-dasharray:none;stroke-opacity:1"
     d="m 148.67367,6.9990012 c 0.579,0.333 0.319,2.12 1.396,3.7699998 0.224,0.339 0.24,0.714 0.319,1.074 0.317,1.478 -0.21,2.989 -3.048,0.421 -0.396,-0.353 -1.23,-2.2809998 -1.848,-2.7599998 -1.48,-1.135 -1.771,-4.448 -1.282,-4.609 1.063,-0.364 4.463,2.104 4.463,2.104 z"
     id="path695" />
  <path
     style="fill:#231f20;fill-opacity:1;fill-rule:nonzero;stroke:none"
     d="m 143.48667,10.291001 c 0.052,0.666 1.766,1.218 2.776,2.912 0.208,0.342 0.536,0.525 0.828,0.754 1.192,0.938 2.776,1.126 1.714,-2.552 -0.146,-0.51 -1.511,-2.1039998 -1.667,-2.8689998 -0.364,-1.833 -3.213,-3.548 -3.579,-3.177 -0.79,0.79 -0.072,4.9319998 -0.072,4.9319998"
     id="path696" />
  <path
     style="fill:none;stroke:#231f20;stroke-width:0.644548;stroke-linecap:round;stroke-linejoin:round;stroke-miterlimit:4;stroke-dasharray:none;stroke-opacity:1"
     d="m 143.48667,10.291001 c 0.052,0.666 1.766,1.218 2.776,2.912 0.208,0.342 0.536,0.525 0.828,0.754 1.192,0.938 2.776,1.126 1.714,-2.552 -0.146,-0.51 -1.511,-2.1039998 -1.667,-2.8689998 -0.364,-1.833 -3.213,-3.548 -3.579,-3.177 -0.79,0.79 -0.072,4.9319998 -0.072,4.9319998 z"
     id="path697" />
  <path
     style="fill:#231f20;fill-opacity:1;fill-rule:nonzero;stroke:none"
     d="m 282.99667,78.462001 c 0.15,-0.625 -0.74,-2.354 -0.88,-3.958 -0.09,-1.083 -1.42,-3.49 -1.43,-4.574 -0.01,-0.989 -0.1,-1.448 -1.24,-1.629 -0.67,-0.109 -2.04,0.115 -2.14,0.615 -0.25,1.166 -0.07,2.093 0.35,3.077 0.48,1.115 2.05,4.032 2.39,4.543 0.84,1.265 0.78,2.004 0.98,2.358 0.36,0.672 0.7,0.698 1.18,0.563 0.93,-0.265 0.79,-0.995 0.79,-0.995"
     id="path698" />
  <path
     style="fill:none;stroke:#231f20;stroke-width:0.565977;stroke-linecap:butt;stroke-linejoin:miter;stroke-miterlimit:4;stroke-dasharray:none;stroke-opacity:1"
     d="m 282.99667,78.462001 c 0.15,-0.625 -0.74,-2.354 -0.88,-3.958 -0.09,-1.083 -1.42,-3.49 -1.43,-4.574 -0.01,-0.989 -0.1,-1.448 -1.24,-1.629 -0.67,-0.109 -2.04,0.115 -2.14,0.615 -0.25,1.166 -0.07,2.093 0.35,3.077 0.48,1.115 2.05,4.032 2.39,4.543 0.84,1.265 0.78,2.004 0.98,2.358 0.36,0.672 0.7,0.698 1.18,0.563 0.93,-0.265 0.79,-0.995 0.79,-0.995 z"
     id="path699" />
  <path
     style="fill:#231f20;fill-opacity:1;fill-rule:nonzero;stroke:none"
     d="m 280.01667,69.905001 c 1.17,-0.557 -0.02,-2.208 -0.27,-2.688 -0.25,-0.484 -0.8,-1.937 -1.09,-3.124 -0.28,-1.193 -1.15,-2.553 -1.69,-4.819 -0.29,-1.192 -1.32,-2.166 -3.03,-1.672 -1.69,0.486 -2.05,1.615 -1.49,3.006 0.57,1.38 1.68,2.442 2.35,3.802 0.66,1.359 1.22,2.802 1.6,3.959 0.43,1.312 1.14,1.796 1.6,1.837 1.2,0.106 2.02,-0.301 2.02,-0.301"
     id="path700" />
  <path
     style="fill:none;stroke:#231f20;stroke-width:0.565977;stroke-linecap:butt;stroke-linejoin:miter;stroke-miterlimit:4;stroke-dasharray:none;stroke-opacity:1"
     d="m 280.01667,69.905001 c 1.17,-0.557 -0.02,-2.208 -0.27,-2.688 -0.25,-0.484 -0.8,-1.937 -1.09,-3.124 -0.28,-1.193 -1.15,-2.553 -1.69,-4.819 -0.29,-1.192 -1.32,-2.166 -3.03,-1.672 -1.69,0.486 -2.05,1.615 -1.49,3.006 0.57,1.38 1.68,2.442 2.35,3.802 0.66,1.359 1.22,2.802 1.6,3.959 0.43,1.312 1.14,1.796 1.6,1.837 1.2,0.106 2.02,-0.301 2.02,-0.301 z"
     id="path701" />
  <path
     style="fill:#ffffff;fill-opacity:1;fill-rule:nonzero;stroke:none"
     d="m 263.53667,26.499001 c -2,1.068 -2.54,1.01 -3.04,0.193 -0.34,-0.537 -0.83,-0.928 -1.06,-1.251 -0.74,-1.068 -1.53,-3.166 -2.25,-9.702 -0.16,-1.49 -0.4,-3.568 -0.58,-4.412 -0.26,-1.3339998 2.13,-0.87 2.24,-0.348 0.36,1.681 0.73,2.801 0.94,3.394 0.14,0.402 0.3,1.147 1.06,2.631 1.15,2.251 2.17,3.427 2.89,5.412 0.35,0.927 1.2,1.396 1.06,2.473 -0.11,1.079 -1.26,1.61 -1.26,1.61"
     id="path702" />
  <path
     style="fill:none;stroke:#231f20;stroke-width:0.565977;stroke-linecap:butt;stroke-linejoin:miter;stroke-miterlimit:4;stroke-dasharray:none;stroke-opacity:1"
     d="m 263.53667,26.499001 c -2,1.068 -2.54,1.01 -3.04,0.193 -0.34,-0.537 -0.83,-0.928 -1.06,-1.251 -0.74,-1.068 -1.53,-3.166 -2.25,-9.702 -0.16,-1.49 -0.4,-3.568 -0.58,-4.412 -0.26,-1.3339998 2.13,-0.87 2.24,-0.348 0.36,1.681 0.73,2.801 0.94,3.394 0.14,0.402 0.3,1.147 1.06,2.631 1.15,2.251 2.17,3.427 2.89,5.412 0.35,0.927 1.2,1.396 1.06,2.473 -0.11,1.079 -1.26,1.61 -1.26,1.61 z"
     id="path703" />
  <path
     style="fill:#ffffff;fill-opacity:1;fill-rule:nonzero;stroke:none"
     d="m 261.90667,24.645001 c 3.36,-2.188 3.81,1.87 4.07,2.271 2.75,4.187 2.84,4.557 4.71,7.891 2.71,4.822 3.81,8.541 1.47,10.931 -1.59,1.62 -3.21,1.87 -4.43,1.359 -1.34,-0.572 -3.37,-3.015 -2.47,-5.76 l -0.42,-1.666 c -0.41,-1.083 -0.61,-1.62 -0.87,-2.135 -0.43,-0.907 -0.84,-1.901 -1.58,-3.709 -1.33,-3.214 -1.68,-7.036 -1.68,-7.036 -0.45,-1.167 1.2,-2.146 1.2,-2.146"
     id="path704" />
  <path
     style="fill:none;stroke:#231f20;stroke-width:0.565977;stroke-linecap:butt;stroke-linejoin:miter;stroke-miterlimit:4;stroke-dasharray:none;stroke-opacity:1"
     d="m 261.90667,24.645001 c 3.36,-2.188 3.81,1.87 4.07,2.271 2.75,4.187 2.84,4.557 4.71,7.891 2.71,4.822 3.81,8.541 1.47,10.931 -1.59,1.62 -3.21,1.87 -4.43,1.359 -1.34,-0.572 -3.37,-3.015 -2.47,-5.76 l -0.42,-1.666 c -0.41,-1.083 -0.61,-1.62 -0.87,-2.135 -0.43,-0.907 -0.84,-1.901 -1.58,-3.709 -1.33,-3.214 -1.68,-7.036 -1.68,-7.036 -0.45,-1.167 1.2,-2.146 1.2,-2.146 z"
     id="path705" />
  <path
     style="fill:#231f20;fill-opacity:1;fill-rule:nonzero;stroke:none"
     d="m 74.793666,97.697 c 0.746,1.124 1.708,0.911 2.339,0.083 0.188,-0.244 0.604,-0.26 0.765,-0.516 0.376,-0.599 -0.057,-2.282 -1.557,-2.276 -0.109,0 -0.891,-0.244 -1.505,-0.334 -1.203,-0.176 -3.687,0.058 -5.391,2.147 -0.807,0.995 -0.072,1.287 0.376,0.989 1.421,-0.958 1.733,-0.765 2.197,-0.88 1.574,-0.401 2.776,0.787 2.776,0.787"
     id="path706" />
  <path
     style="fill:none;stroke:#231f20;stroke-width:0.332927;stroke-linecap:butt;stroke-linejoin:miter;stroke-miterlimit:4;stroke-dasharray:none;stroke-opacity:1"
     d="m 74.793666,97.697 c 0.746,1.124 1.708,0.911 2.339,0.083 0.188,-0.244 0.604,-0.26 0.765,-0.516 0.376,-0.599 -0.057,-2.282 -1.557,-2.276 -0.109,0 -0.891,-0.244 -1.505,-0.334 -1.203,-0.176 -3.687,0.058 -5.391,2.147 -0.807,0.995 -0.072,1.287 0.376,0.989 1.421,-0.958 1.733,-0.765 2.197,-0.88 1.574,-0.401 2.776,0.787 2.776,0.787 z"
     id="path707" />
  <path
     style="fill:#231f20;fill-opacity:1;fill-rule:nonzero;stroke:none"
     d="m 93.539666,97.321 c 0.14,2.261 -0.136,2.719 -1.09,2.844 -0.629,0.084 -1.186,0.375 -1.572,0.448 -1.276,0.224 -3.516,0.084 -9.77,-1.973 -1.418,-0.47 -3.412,-1.11 -4.246,-1.308 -1.322,-0.312 0.088,-2.296 0.61,-2.178 1.677,0.371 2.854,0.5 3.473,0.552 0.428,0.032 1.172,0.204 2.833,0.131 2.527,-0.109 4.022,-0.552 6.131,-0.401 0.984,0.073 1.76,-0.5 2.688,0.062 0.932,0.558 0.943,1.823 0.943,1.823"
     id="path708" />
  <path
     style="fill:none;stroke:#231f20;stroke-width:0.565977;stroke-linecap:butt;stroke-linejoin:miter;stroke-miterlimit:4;stroke-dasharray:none;stroke-opacity:1"
     d="m 93.539666,97.321 c 0.14,2.261 -0.136,2.719 -1.09,2.844 -0.629,0.084 -1.186,0.375 -1.572,0.448 -1.276,0.224 -3.516,0.084 -9.77,-1.973 -1.418,-0.47 -3.412,-1.11 -4.246,-1.308 -1.322,-0.312 0.088,-2.296 0.61,-2.178 1.677,0.371 2.854,0.5 3.473,0.552 0.428,0.032 1.172,0.204 2.833,0.131 2.527,-0.109 4.022,-0.552 6.131,-0.401 0.984,0.073 1.76,-0.5 2.688,0.062 0.932,0.558 0.943,1.823 0.943,1.823 z"
     id="path709" />
  <path
     style="fill:#0098c9;fill-opacity:1;fill-rule:nonzero;stroke:none"
     d="m 119.50167,96.04 c -2.567,1.797 -2.921,2.464 -3.411,3.245 -3.057,4.901 -5.406,3.307 -6.604,0.688 -1.411,-3.084 -1.979,-4.161 3.5,-7.267 1.531,-0.853 6.943,-4.926 6.943,-4.926 1.739,-1.719 4.359,-2.463999 5.719,-1.943 1.432,0.547 0.828,0.432 2.062,1.183 1.176,0.713 2.214,2.64 1.76,3.786 -0.432,1.11 -2.078,1.38 -4.396,2.083 -1.828,0.552 -5.573,3.151 -5.573,3.151"
     id="path710" />
  <path
     style="fill:none;stroke:#231f20;stroke-width:0.565977;stroke-linecap:butt;stroke-linejoin:miter;stroke-miterlimit:4;stroke-dasharray:none;stroke-opacity:1"
     d="m 119.50167,96.04 c -2.567,1.797 -2.921,2.464 -3.411,3.245 -3.057,4.901 -5.406,3.307 -6.604,0.688 -1.411,-3.084 -1.979,-4.161 3.5,-7.267 1.531,-0.853 6.943,-4.926 6.943,-4.926 1.739,-1.719 4.359,-2.463999 5.719,-1.943 1.432,0.547 0.828,0.432 2.062,1.183 1.176,0.713 2.214,2.64 1.76,3.786 -0.432,1.11 -2.078,1.38 -4.396,2.083 -1.828,0.552 -5.573,3.151 -5.573,3.151 z"
     id="path711" />
  <path
     style="fill:#ffffff;fill-opacity:1;fill-rule:nonzero;stroke:none"
     d="m 130.59667,81.592001 c 0.161,-0.182 -0.48,-1.135 -0.068,-1.463 0.412,-0.323 1.041,0.156 2.978,-0.281 l 0.022,-0.006 c 1.406,-0.369 2.776,-0.125 3.625,0.798 1.411,1.525 0.869,4.312 -1.204,6.228999 -2.072,1.916 -4.895,2.233 -6.307,0.708 -1.349,-1.459 -0.912,-4.078999 0.954,-5.984999"
     id="path712" />
  <path
     style="fill:none;stroke:#231f20;stroke-width:0.565977;stroke-linecap:butt;stroke-linejoin:miter;stroke-miterlimit:4;stroke-dasharray:none;stroke-opacity:1"
     d="m 130.59667,81.592001 c 0.161,-0.182 -0.48,-1.135 -0.068,-1.463 0.412,-0.323 1.041,0.156 2.978,-0.281 l 0.022,-0.006 c 1.406,-0.369 2.776,-0.125 3.625,0.798 1.411,1.525 0.869,4.312 -1.204,6.228999 -2.072,1.916 -4.895,2.233 -6.307,0.708 -1.349,-1.459 -0.912,-4.078999 0.954,-5.984999 z"
     id="path713" />
  <path
     style="fill:#231f20;fill-opacity:1;fill-rule:nonzero;stroke:none"
     d="m 91.173666,98.036 c -0.598,-3.964 3.282,-2.699 3.756,-2.772 4.948,-0.766 5.328004,-0.698 9.135004,-1.015 5.505,-0.459 9.354,0.067 10.557,3.197 0.819,2.115 0.365,3.699 -0.599,4.59 -1.073,0.989 -4.14,1.822 -6.275,-0.131 l -1.678,-0.317 c -1.161,-0.068 -1.734,-0.11 -2.312,-0.1 -1.005,0.026 -2.078,-0.015 -4.032004,-0.083 -3.473,-0.125 -7.098,-1.391 -7.098,-1.391 -1.244,-0.073 -1.454,-1.978 -1.454,-1.978"
     id="path714" />
  <path
     style="fill:none;stroke:#231f20;stroke-width:0.565977;stroke-linecap:butt;stroke-linejoin:miter;stroke-miterlimit:4;stroke-dasharray:none;stroke-opacity:1"
     d="m 91.173666,98.036 c -0.598,-3.964 3.282,-2.699 3.756,-2.772 4.948,-0.766 5.328004,-0.698 9.135004,-1.015 5.505,-0.459 9.354,0.067 10.557,3.197 0.819,2.115 0.365,3.699 -0.599,4.59 -1.073,0.989 -4.14,1.822 -6.275,-0.131 l -1.678,-0.317 c -1.161,-0.068 -1.734,-0.11 -2.312,-0.1 -1.005,0.026 -2.078,-0.015 -4.032004,-0.083 -3.473,-0.125 -7.098,-1.391 -7.098,-1.391 -1.244,-0.073 -1.454,-1.978 -1.454,-1.978 z"
     id="path715" />
  <path
     style="fill:#0098c9;fill-opacity:1;fill-rule:nonzero;stroke:none"
     d="m 114.91367,98.03 c -0.292,-1.442 -1.192,-2.469 -2.552,-3.209 -0.781,-0.687 -1.276,-1.083 -2.063,-0.916 -0.073,0.016 -0.15,0.02 -0.234,0.025 -0.563,-0.156 -1.156,-0.29 -1.801,-0.405 l -0.871,7.76 c 1.781,2.281 4.942,1.969 6.166,1.167 1.106,-0.714 1.808,-2.194 1.355,-4.422"
     id="path716" />
  <path
     style="fill:none;stroke:#231f20;stroke-width:0.565977;stroke-linecap:butt;stroke-linejoin:miter;stroke-miterlimit:4;stroke-dasharray:none;stroke-opacity:1"
     d="m 114.91367,98.03 c -0.292,-1.442 -1.192,-2.469 -2.552,-3.209 -0.781,-0.687 -1.276,-1.083 -2.063,-0.916 -0.073,0.016 -0.15,0.02 -0.234,0.025 -0.563,-0.156 -1.156,-0.29 -1.801,-0.405 l -0.871,7.76 c 1.781,2.281 4.942,1.969 6.166,1.167 1.106,-0.714 1.808,-2.194 1.355,-4.422 z"
     id="path717" />
  <path
     style="fill:#231f20;fill-opacity:1;fill-rule:nonzero;stroke:none"
     d="m 144.40867,80.036001 c -0.64,-0.1 -2.287,0.942 -3.87,1.213 -1.068,0.187 -3.349,1.719 -4.428,1.817 -0.989,0.099 -1.437,0.235 -1.52,1.386 -0.046,0.677 0.296,2.020999 0.807,2.083999 1.177,0.14 2.089,-0.12 3.027,-0.626 1.073,-0.577999 3.844,-2.389999 4.322,-2.769999 1.188,-0.959 1.922,-0.964 2.26,-1.183 0.642,-0.417 0.636,-0.765 0.454,-1.235 -0.344,-0.896 -1.052,-0.686 -1.052,-0.686"
     id="path718" />
  <path
     style="fill:none;stroke:#231f20;stroke-width:0.565977;stroke-linecap:butt;stroke-linejoin:miter;stroke-miterlimit:4;stroke-dasharray:none;stroke-opacity:1"
     d="m 144.40867,80.036001 c -0.64,-0.1 -2.287,0.942 -3.87,1.213 -1.068,0.187 -3.349,1.719 -4.428,1.817 -0.989,0.099 -1.437,0.235 -1.52,1.386 -0.046,0.677 0.296,2.020999 0.807,2.083999 1.177,0.14 2.089,-0.12 3.027,-0.626 1.073,-0.577999 3.844,-2.389999 4.322,-2.769999 1.188,-0.959 1.922,-0.964 2.26,-1.183 0.642,-0.417 0.636,-0.765 0.454,-1.235 -0.344,-0.896 -1.052,-0.686 -1.052,-0.686 z"
     id="path719" />
  <path
     style="fill:#231f20;fill-opacity:1;fill-rule:nonzero;stroke:none"
     d="m 136.13767,83.744001 c -0.651,-1.12 -2.188,0.218 -2.645,0.505 -0.464,0.291 -1.866,0.968 -3.022,1.353 -1.166,0.390999 -2.448,1.370999 -4.65,2.114999 -1.156,0.391 -2.043,1.5 -1.402,3.156 0.631,1.641 1.787,1.901 3.12,1.22 1.334,-0.683 2.292,-1.887 3.588,-2.667 1.292,-0.781 2.683,-1.464 3.798,-1.944 1.276,-0.541 1.697,-1.285 1.697,-1.76 -0.005,-1.196999 -0.484,-1.977999 -0.484,-1.977999"
     id="path720" />
  <path
     style="fill:none;stroke:#231f20;stroke-width:0.565977;stroke-linecap:butt;stroke-linejoin:miter;stroke-miterlimit:4;stroke-dasharray:none;stroke-opacity:1"
     d="m 136.13767,83.744001 c -0.651,-1.12 -2.188,0.218 -2.645,0.505 -0.464,0.291 -1.866,0.968 -3.022,1.353 -1.166,0.390999 -2.448,1.370999 -4.65,2.114999 -1.156,0.391 -2.043,1.5 -1.402,3.156 0.631,1.641 1.787,1.901 3.12,1.22 1.334,-0.683 2.292,-1.887 3.588,-2.667 1.292,-0.781 2.683,-1.464 3.798,-1.944 1.276,-0.541 1.697,-1.285 1.697,-1.76 -0.005,-1.196999 -0.484,-1.977999 -0.484,-1.977999 z"
     id="path721" />
  <path
     style="fill:#ffffff;fill-opacity:1;fill-rule:nonzero;stroke:none"
     d="m 4.2736664,79.312001 c -0.354,-0.964 -1.428,-1.464 -2.386,-1.11 -0.968,0.354 -1.463,1.422 -1.11,2.39 0.355,0.964 1.423,1.458 2.391,1.105 0.964,-0.349 1.459,-1.423 1.105,-2.385"
     id="path722" />
  <path
     style="fill:none;stroke:#231f20;stroke-width:1.33171;stroke-linecap:butt;stroke-linejoin:miter;stroke-miterlimit:4;stroke-dasharray:none;stroke-opacity:1"
     d="m 4.2736664,79.312001 c -0.354,-0.964 -1.428,-1.464 -2.386,-1.11 -0.968,0.354 -1.463,1.422 -1.11,2.39 0.355,0.964 1.423,1.458 2.391,1.105 0.964,-0.349 1.459,-1.423 1.105,-2.385 z"
     id="path723" />
  <path
     style="fill:#ffffff;fill-opacity:1;fill-rule:nonzero;stroke:none"
     d="m 181.32067,79.312001 c -0.355,-0.964 -1.423,-1.464 -2.386,-1.11 -0.964,0.354 -1.464,1.422 -1.104,2.39 0.348,0.964 1.416,1.458 2.386,1.105 0.962,-0.349 1.457,-1.423 1.104,-2.385"
     id="path724" />
  <path
     style="fill:none;stroke:#231f20;stroke-width:1.33171;stroke-linecap:butt;stroke-linejoin:miter;stroke-miterlimit:4;stroke-dasharray:none;stroke-opacity:1"
     d="m 181.32067,79.312001 c -0.355,-0.964 -1.423,-1.464 -2.386,-1.11 -0.964,0.354 -1.464,1.422 -1.104,2.39 0.348,0.964 1.416,1.458 2.386,1.105 0.962,-0.349 1.457,-1.423 1.104,-2.385 z"
     id="path725" />
  <path
     style="fill:#ffffff;fill-opacity:1;fill-rule:nonzero;stroke:none"
     d="m 147.48167,79.312001 c -0.349,-0.964 -1.423,-1.464 -2.385,-1.11 -0.964,0.354 -1.459,1.422 -1.104,2.39 0.348,0.964 1.421,1.458 2.385,1.105 0.968,-0.349 1.457,-1.423 1.104,-2.385"
     id="path726" />
  <path
     style="fill:none;stroke:#231f20;stroke-width:1.33171;stroke-linecap:butt;stroke-linejoin:miter;stroke-miterlimit:4;stroke-dasharray:none;stroke-opacity:1"
     d="m 147.48167,79.312001 c -0.349,-0.964 -1.423,-1.464 -2.385,-1.11 -0.964,0.354 -1.459,1.422 -1.104,2.39 0.348,0.964 1.421,1.458 2.385,1.105 0.968,-0.349 1.457,-1.423 1.104,-2.385 z"
     id="path727" />
  <path
     style="fill:#ffffff;fill-opacity:1;fill-rule:nonzero;stroke:none"
     d="m 241.27367,79.312001 c -0.355,-0.964 -1.423,-1.464 -2.387,-1.11 -0.968,0.354 -1.462,1.422 -1.104,2.39 0.35,0.964 1.418,1.458 2.386,1.105 0.964,-0.349 1.458,-1.423 1.105,-2.385"
     id="path728" />
  <path
     style="fill:none;stroke:#231f20;stroke-width:1.33171;stroke-linecap:butt;stroke-linejoin:miter;stroke-miterlimit:4;stroke-dasharray:none;stroke-opacity:1"
     d="m 241.27367,79.312001 c -0.355,-0.964 -1.423,-1.464 -2.387,-1.11 -0.968,0.354 -1.462,1.422 -1.104,2.39 0.35,0.964 1.418,1.458 2.386,1.105 0.964,-0.349 1.458,-1.423 1.105,-2.385 z"
     id="path729" />
  <path
     style="fill:#ffffff;fill-opacity:1;fill-rule:nonzero;stroke:none"
     d="m 283.80667,79.312001 c -0.36,-0.964 -1.42,-1.464 -2.39,-1.11 -0.96,0.354 -1.46,1.422 -1.1,2.39 0.35,0.964 1.41,1.458 2.38,1.105 0.97,-0.349 1.46,-1.423 1.11,-2.385"
     id="path730" />
  <path
     style="fill:none;stroke:#231f20;stroke-width:1.33171;stroke-linecap:butt;stroke-linejoin:miter;stroke-miterlimit:4;stroke-dasharray:none;stroke-opacity:1"
     d="m 283.80667,79.312001 c -0.36,-0.964 -1.42,-1.464 -2.39,-1.11 -0.96,0.354 -1.46,1.422 -1.1,2.39 0.35,0.964 1.41,1.458 2.38,1.105 0.97,-0.349 1.46,-1.423 1.11,-2.385 z"
     id="path731" />
  <path
     style="fill:#ffffff;fill-opacity:1;fill-rule:nonzero;stroke:none"
     d="m 311.24667,79.045001 c 0.5,-0.9 1.64,-1.219 2.53,-0.719 0.9,0.5 1.22,1.636 0.72,2.532 -0.5,0.902 -1.64,1.219 -2.54,0.714 -0.9,-0.495 -1.22,-1.636 -0.71,-2.527"
     id="path732" />
  <path
     style="fill:none;stroke:#231f20;stroke-width:1.33171;stroke-linecap:butt;stroke-linejoin:miter;stroke-miterlimit:4;stroke-dasharray:none;stroke-opacity:1"
     d="m 311.24667,79.045001 c 0.5,-0.9 1.64,-1.219 2.53,-0.719 0.9,0.5 1.22,1.636 0.72,2.532 -0.5,0.902 -1.64,1.219 -2.54,0.714 -0.9,-0.495 -1.22,-1.636 -0.71,-2.527 z"
     id="path733" />
  <path
     style="fill:#231f20;fill-opacity:1;fill-rule:nonzero;stroke:none"
     d="m 43.028666,17.015001 c -1.349,-0.094 -1.771,0.801 -1.5,1.801 0.079,0.303 -0.156,0.641 -0.057,0.928 0.245,0.661 1.844,1.344 2.754,0.151 0.063,-0.083 0.735,-0.552 1.183,-0.99 0.869,-0.849 2.199,-2.953 1.579,-5.578 -0.292,-1.244 -0.97,-0.844 -1.006,-0.307 -0.104,1.708 -0.448,1.844 -0.641,2.276 -0.645,1.489 -2.312,1.719 -2.312,1.719"
     id="path734" />
  <path
     style="fill:none;stroke:#231f20;stroke-width:0.332927;stroke-linecap:butt;stroke-linejoin:miter;stroke-miterlimit:4;stroke-dasharray:none;stroke-opacity:1"
     d="m 43.028666,17.015001 c -1.349,-0.094 -1.771,0.801 -1.5,1.801 0.079,0.303 -0.156,0.641 -0.057,0.928 0.245,0.661 1.844,1.344 2.754,0.151 0.063,-0.083 0.735,-0.552 1.183,-0.99 0.869,-0.849 2.199,-2.953 1.579,-5.578 -0.292,-1.244 -0.97,-0.844 -1.006,-0.307 -0.104,1.708 -0.448,1.844 -0.641,2.276 -0.645,1.489 -2.312,1.719 -2.312,1.719 z"
     id="path735" />
  <path
     style="fill:#231f20;fill-opacity:1;fill-rule:nonzero;stroke:none"
     d="m 31.887666,32.097001 c -1.88,-1.265 -2.078,-1.76 -1.594,-2.588 0.318,-0.552 0.428,-1.172 0.604,-1.521 0.6,-1.156 2.084,-2.843 7.522,-6.536 1.24,-0.839 2.969,-2.025 3.63,-2.579 1.058,-0.848 1.766,1.48 1.354,1.819 -1.318,1.099 -2.135,1.953 -2.558,2.421 -0.292,0.308 -0.869,0.803 -1.828,2.162 -1.453,2.073 -2.016,3.521 -3.426,5.098 -0.651,0.735 -0.678,1.704 -1.688,2.09 -1.011,0.406 -2.016,-0.366 -2.016,-0.366"
     id="path736" />
  <path
     style="fill:none;stroke:#231f20;stroke-width:0.565977;stroke-linecap:butt;stroke-linejoin:miter;stroke-miterlimit:4;stroke-dasharray:none;stroke-opacity:1"
     d="m 31.887666,32.097001 c -1.88,-1.265 -2.078,-1.76 -1.594,-2.588 0.318,-0.552 0.428,-1.172 0.604,-1.521 0.6,-1.156 2.084,-2.843 7.522,-6.536 1.24,-0.839 2.969,-2.025 3.63,-2.579 1.058,-0.848 1.766,1.48 1.354,1.819 -1.318,1.099 -2.135,1.953 -2.558,2.421 -0.292,0.308 -0.869,0.803 -1.828,2.162 -1.453,2.073 -2.016,3.521 -3.426,5.098 -0.651,0.735 -0.678,1.704 -1.688,2.09 -1.011,0.406 -2.016,-0.366 -2.016,-0.366 z"
     id="path737" />
  <path
     style="fill:#0098c9;fill-opacity:1;fill-rule:nonzero;stroke:none"
     d="m 14.523666,50.806001 c 1.254,-2.87 1.213,-3.625 1.218,-4.542 0.052,-5.786 2.891,-5.651 5.276,-4.031 2.814,1.891 3.86,2.516 0.803,8.016 -0.855,1.531 -3.355,7.828 -3.355,7.828 -0.588,2.375 -2.432,4.375 -3.858,4.64 -1.511,0.281 -0.934,0.057 -2.382,0.068 -1.374,0.005 -3.2599996,-1.099 -3.4779996,-2.317 -0.208,-1.167 1.052,-2.256 2.6719996,-4.068 1.265,-1.427 3.104,-5.594 3.104,-5.594"
     id="path738" />
  <path
     style="fill:none;stroke:#231f20;stroke-width:0.565977;stroke-linecap:butt;stroke-linejoin:miter;stroke-miterlimit:4;stroke-dasharray:none;stroke-opacity:1"
     d="m 14.523666,50.806001 c 1.254,-2.87 1.213,-3.625 1.218,-4.542 0.052,-5.786 2.891,-5.651 5.276,-4.031 2.814,1.891 3.86,2.516 0.803,8.016 -0.855,1.531 -3.355,7.828 -3.355,7.828 -0.588,2.375 -2.432,4.375 -3.858,4.64 -1.511,0.281 -0.934,0.057 -2.382,0.068 -1.374,0.005 -3.2599996,-1.099 -3.4779996,-2.317 -0.208,-1.167 1.052,-2.256 2.6719996,-4.068 1.265,-1.427 3.104,-5.594 3.104,-5.594 z"
     id="path739" />
  <path
     style="fill:#ffffff;fill-opacity:1;fill-rule:nonzero;stroke:none"
     d="m 9.5176664,68.889001 c -0.12,0.213 0.7029996,1.016 0.366,1.417 -0.339,0.4 -1.052,0.058 -2.86,0.886 l -0.022,0.005 c -1.306,0.645 -2.692,0.676 -3.713,-0.052 -1.692,-1.209 -1.719,-4.048 -0.077,-6.344 1.645,-2.297 4.348,-3.177 6.036,-1.969 1.6199996,1.156 1.7129996,3.817 0.27,6.057"
     id="path740" />
  <path
     style="fill:none;stroke:#231f20;stroke-width:0.565977;stroke-linecap:butt;stroke-linejoin:miter;stroke-miterlimit:4;stroke-dasharray:none;stroke-opacity:1"
     d="m 9.5176664,68.889001 c -0.12,0.213 0.7029996,1.016 0.366,1.417 -0.339,0.4 -1.052,0.058 -2.86,0.886 l -0.022,0.005 c -1.306,0.645 -2.692,0.676 -3.713,-0.052 -1.692,-1.209 -1.719,-4.048 -0.077,-6.344 1.645,-2.297 4.348,-3.177 6.036,-1.969 1.6199996,1.156 1.7129996,3.817 0.27,6.057 z"
     id="path741" />
  <path
     style="fill:#231f20;fill-opacity:1;fill-rule:nonzero;stroke:none"
     d="m 32.763666,29.791001 c 3.505,1.942 0.134,4.249 -0.099,4.666 -2.412,4.391 -2.699,4.646 -4.761,7.855 -3,4.65 -5.766,7.369 -8.974,6.421 -2.177,-0.651 -3.156,-1.964 -3.27,-3.276 -0.131,-1.453 1.077,-4.391 3.926,-4.891 l 1.276,-1.145 c 0.76,-0.87 1.14,-1.297 1.484,-1.766 0.595,-0.807 1.282,-1.635 2.532,-3.14 2.214,-2.678 5.432,-4.776 5.432,-4.776 0.812,-0.943 2.454,0.052 2.454,0.052"
     id="path742" />
  <path
     style="fill:none;stroke:#231f20;stroke-width:0.565977;stroke-linecap:butt;stroke-linejoin:miter;stroke-miterlimit:4;stroke-dasharray:none;stroke-opacity:1"
     d="m 32.763666,29.791001 c 3.505,1.942 0.134,4.249 -0.099,4.666 -2.412,4.391 -2.699,4.646 -4.761,7.855 -3,4.65 -5.766,7.369 -8.974,6.421 -2.177,-0.651 -3.156,-1.964 -3.27,-3.276 -0.131,-1.453 1.077,-4.391 3.926,-4.891 l 1.276,-1.145 c 0.76,-0.87 1.14,-1.297 1.484,-1.766 0.595,-0.807 1.282,-1.635 2.532,-3.14 2.214,-2.678 5.432,-4.776 5.432,-4.776 0.812,-0.943 2.454,0.052 2.454,0.052 z"
     id="path743" />
  <path
     style="fill:#0098c9;fill-opacity:1;fill-rule:nonzero;stroke:none"
     d="m 25.913666,46.088001 -5.625,-5.423 c -2.885,0.011 -4.572,2.713 -4.681,4.167 -0.106,1.317 0.64,2.776 2.676,3.776 1.324,0.65 2.682,0.562 4.105,-0.068 1.02,-0.198 1.64,-0.348 1.984,-1.072 0.031,-0.068 0.072,-0.136 0.12,-0.204 0.468,-0.354 0.937,-0.734 1.421,-1.176"
     id="path744" />
  <path
     style="fill:none;stroke:#231f20;stroke-width:0.565977;stroke-linecap:butt;stroke-linejoin:miter;stroke-miterlimit:4;stroke-dasharray:none;stroke-opacity:1"
     d="m 25.913666,46.088001 -5.625,-5.423 c -2.885,0.011 -4.572,2.713 -4.681,4.167 -0.106,1.317 0.64,2.776 2.676,3.776 1.324,0.65 2.682,0.562 4.105,-0.068 1.02,-0.198 1.64,-0.348 1.984,-1.072 0.031,-0.068 0.072,-0.136 0.12,-0.204 0.468,-0.354 0.937,-0.734 1.421,-1.176 z"
     id="path745" />
  <path
     style="fill:#231f20;fill-opacity:1;fill-rule:nonzero;stroke:none"
     d="m 3.4816664,78.462001 c 0.568,-0.313 1.235,-2.146 2.323,-3.328 0.735,-0.802 1.599,-3.406 2.391,-4.146 0.724,-0.682 0.989,-1.063 0.354,-2.02 -0.376,-0.568 -1.469,-1.423 -1.906,-1.162 -1.022,0.61 -1.584,1.375 -2.022,2.348 -0.489,1.11 -1.572,4.24 -1.724,4.839 -0.353,1.475 -0.937,1.932 -1.062,2.319 -0.25,0.713 -0.036,0.989 0.396,1.249 0.813,0.495 1.25,-0.099 1.25,-0.099"
     id="path746" />
  <path
     style="fill:none;stroke:#231f20;stroke-width:0.565977;stroke-linecap:butt;stroke-linejoin:miter;stroke-miterlimit:4;stroke-dasharray:none;stroke-opacity:1"
     d="m 3.4816664,78.462001 c 0.568,-0.313 1.235,-2.146 2.323,-3.328 0.735,-0.802 1.599,-3.406 2.391,-4.146 0.724,-0.682 0.989,-1.063 0.354,-2.02 -0.376,-0.568 -1.469,-1.423 -1.906,-1.162 -1.022,0.61 -1.584,1.375 -2.022,2.348 -0.489,1.11 -1.572,4.24 -1.724,4.839 -0.353,1.475 -0.937,1.932 -1.062,2.319 -0.25,0.713 -0.036,0.989 0.396,1.249 0.813,0.495 1.25,-0.099 1.25,-0.099 z"
     id="path747" />
  <path
     style="fill:#231f20;fill-opacity:1;fill-rule:nonzero;stroke:none"
     d="m 7.7576664,70.473001 c 1.208,0.484 1.604,-1.521 1.792,-2.021 0.182,-0.516 0.8799996,-1.907 1.5619996,-2.922 0.677,-1.016 1.094,-2.573 2.386,-4.51 0.682,-1.022 0.698,-2.438 -0.824,-3.36 -1.5,-0.911 -2.572,-0.411 -3.2129996,0.942 -0.635,1.355 -0.661,2.896 -1.208,4.308 -0.541,1.411 -1.229,2.796 -1.823,3.859 -0.666,1.204 -0.552,2.057 -0.261,2.433 0.735,0.943 1.589,1.271 1.589,1.271"
     id="path748" />
  <path
     style="fill:none;stroke:#231f20;stroke-width:0.565977;stroke-linecap:butt;stroke-linejoin:miter;stroke-miterlimit:4;stroke-dasharray:none;stroke-opacity:1"
     d="m 7.7576664,70.473001 c 1.208,0.484 1.604,-1.521 1.792,-2.021 0.182,-0.516 0.8799996,-1.907 1.5619996,-2.922 0.677,-1.016 1.094,-2.573 2.386,-4.51 0.682,-1.022 0.698,-2.438 -0.824,-3.36 -1.5,-0.911 -2.572,-0.411 -3.2129996,0.942 -0.635,1.355 -0.661,2.896 -1.208,4.308 -0.541,1.411 -1.229,2.796 -1.823,3.859 -0.666,1.204 -0.552,2.057 -0.261,2.433 0.735,0.943 1.589,1.271 1.589,1.271 z"
     id="path749" />
  <path
     style="fill:#231f20;fill-opacity:1;fill-rule:nonzero;stroke:none"
     d="m 65.924666,122.264 c 0.093,-1.348 -0.808,-1.766 -1.808,-1.495 -0.296,0.079 -0.64,-0.161 -0.921,-0.063 -0.662,0.246 -1.344,1.85 -0.151,2.762 0.077,0.062 0.552,0.729 0.984,1.177 0.855,0.869 2.959,2.197 5.583,1.583 1.245,-0.292 0.838,-0.974 0.308,-1.006 -1.708,-0.109 -1.844,-0.453 -2.276,-0.645 -1.495,-0.647 -1.719,-2.313 -1.719,-2.313"
     id="path750" />
  <path
     style="fill:none;stroke:#231f20;stroke-width:0.332927;stroke-linecap:butt;stroke-linejoin:miter;stroke-miterlimit:4;stroke-dasharray:none;stroke-opacity:1"
     d="m 65.924666,122.264 c 0.093,-1.348 -0.808,-1.766 -1.808,-1.495 -0.296,0.079 -0.64,-0.161 -0.921,-0.063 -0.662,0.246 -1.344,1.85 -0.151,2.762 0.077,0.062 0.552,0.729 0.984,1.177 0.855,0.869 2.959,2.197 5.583,1.583 1.245,-0.292 0.838,-0.974 0.308,-1.006 -1.708,-0.109 -1.844,-0.453 -2.276,-0.645 -1.495,-0.647 -1.719,-2.313 -1.719,-2.313 z"
     id="path751" />
  <path
     style="fill:#231f20;fill-opacity:1;fill-rule:nonzero;stroke:none"
     d="m 50.835666,111.124 c 1.266,-1.875 1.766,-2.079 2.594,-1.588 0.552,0.312 1.172,0.426 1.52,0.604 1.152,0.598 2.844,2.077 6.538,7.52 0.838,1.24 2.025,2.964 2.577,3.625 0.849,1.057 -1.479,1.765 -1.817,1.355 -1.099,-1.319 -1.954,-2.136 -2.422,-2.558 -0.308,-0.286 -0.802,-0.87 -2.161,-1.828 -2.073,-1.453 -3.521,-2.01 -5.1,-3.422 -0.733,-0.656 -1.703,-0.683 -2.088,-1.687 -0.407,-1.016 0.359,-2.021 0.359,-2.021"
     id="path752" />
  <path
     style="fill:none;stroke:#231f20;stroke-width:0.565977;stroke-linecap:butt;stroke-linejoin:miter;stroke-miterlimit:4;stroke-dasharray:none;stroke-opacity:1"
     d="m 50.835666,111.124 c 1.266,-1.875 1.766,-2.079 2.594,-1.588 0.552,0.312 1.172,0.426 1.52,0.604 1.152,0.598 2.844,2.077 6.538,7.52 0.838,1.24 2.025,2.964 2.577,3.625 0.849,1.057 -1.479,1.765 -1.817,1.355 -1.099,-1.319 -1.954,-2.136 -2.422,-2.558 -0.308,-0.286 -0.802,-0.87 -2.161,-1.828 -2.073,-1.453 -3.521,-2.01 -5.1,-3.422 -0.733,-0.656 -1.703,-0.683 -2.088,-1.687 -0.407,-1.016 0.359,-2.021 0.359,-2.021 z"
     id="path753" />
  <path
     style="fill:#0098c9;fill-opacity:1;fill-rule:nonzero;stroke:none"
     d="m 31.721666,93.988 c 2.87,1.256 3.624,1.214 4.542,1.218 5.786,0.052 5.65,2.891 4.03,5.282 -1.89,2.808 -2.516,3.854 -8.02,0.797 -1.526,-0.855 -7.824,-3.355 -7.824,-3.355 -2.374,-0.588 -4.38,-2.432 -4.64,-3.858 -0.281,-1.511 -0.062,-0.932 -0.068,-2.38 -0.005,-1.376 1.099,-3.262 2.314,-3.475 1.165,-0.213 2.26,1.047 4.066,2.667 1.428,1.265 5.6,3.104 5.6,3.104"
     id="path754" />
  <path
     style="fill:none;stroke:#231f20;stroke-width:0.565977;stroke-linecap:butt;stroke-linejoin:miter;stroke-miterlimit:4;stroke-dasharray:none;stroke-opacity:1"
     d="m 31.721666,93.988 c 2.87,1.256 3.624,1.214 4.542,1.218 5.786,0.052 5.65,2.891 4.03,5.282 -1.89,2.808 -2.516,3.854 -8.02,0.797 -1.526,-0.855 -7.824,-3.355 -7.824,-3.355 -2.374,-0.588 -4.38,-2.432 -4.64,-3.858 -0.281,-1.511 -0.062,-0.932 -0.068,-2.38 -0.005,-1.376 1.099,-3.262 2.314,-3.475 1.165,-0.213 2.26,1.047 4.066,2.667 1.428,1.265 5.6,3.104 5.6,3.104 z"
     id="path755" />
  <path
     style="fill:#ffffff;fill-opacity:1;fill-rule:nonzero;stroke:none"
     d="m 13.637666,88.982 c -0.213,-0.118 -1.016,0.704 -1.421,0.366 -0.396,-0.339 -0.052,-1.052 -0.881,-2.86 l -0.004,-0.02 c -0.652,-1.302999 -0.683,-2.693999 0.052,-3.713999 1.208,-1.688 4.046,-1.718 6.342,-0.078 2.298,1.645 3.178,4.348999 1.97,6.040999 -1.156,1.615 -3.818,1.713 -6.058,0.265"
     id="path756" />
  <path
     style="fill:none;stroke:#231f20;stroke-width:0.565977;stroke-linecap:butt;stroke-linejoin:miter;stroke-miterlimit:4;stroke-dasharray:none;stroke-opacity:1"
     d="m 13.637666,88.982 c -0.213,-0.118 -1.016,0.704 -1.421,0.366 -0.396,-0.339 -0.052,-1.052 -0.881,-2.86 l -0.004,-0.02 c -0.652,-1.302999 -0.683,-2.693999 0.052,-3.713999 1.208,-1.688 4.046,-1.718 6.342,-0.078 2.298,1.645 3.178,4.348999 1.97,6.040999 -1.156,1.615 -3.818,1.713 -6.058,0.265 z"
     id="path757" />
  <path
     style="fill:#231f20;fill-opacity:1;fill-rule:nonzero;stroke:none"
     d="m 53.148666,111.998 c -1.943,3.506 -4.251,0.142 -4.667,-0.093 -4.39,-2.417 -4.646,-2.699 -7.854,-4.765 -4.651,-3 -7.37,-5.762 -6.422,-8.975 0.651,-2.172 1.963,-3.156 3.276,-3.271 1.454,-0.13 4.391,1.079 4.891,3.927 l 1.145,1.276 c 0.871,0.761 1.298,1.147 1.766,1.485 0.802,0.599 1.636,1.282 3.141,2.531 2.672,2.213 4.776,5.432 4.776,5.432 0.943,0.819 -0.052,2.453 -0.052,2.453"
     id="path758" />
  <path
     style="fill:none;stroke:#231f20;stroke-width:0.565977;stroke-linecap:butt;stroke-linejoin:miter;stroke-miterlimit:4;stroke-dasharray:none;stroke-opacity:1"
     d="m 53.148666,111.998 c -1.943,3.506 -4.251,0.142 -4.667,-0.093 -4.39,-2.417 -4.646,-2.699 -7.854,-4.765 -4.651,-3 -7.37,-5.762 -6.422,-8.975 0.651,-2.172 1.963,-3.156 3.276,-3.271 1.454,-0.13 4.391,1.079 4.891,3.927 l 1.145,1.276 c 0.871,0.761 1.298,1.147 1.766,1.485 0.802,0.599 1.636,1.282 3.141,2.531 2.672,2.213 4.776,5.432 4.776,5.432 0.943,0.819 -0.052,2.453 -0.052,2.453 z"
     id="path759" />
  <path
     style="fill:#0098c9;fill-opacity:1;fill-rule:nonzero;stroke:#231f20;stroke-width:0.565977;stroke-linecap:butt;stroke-linejoin:miter;stroke-miterlimit:4;stroke-dasharray:none;stroke-opacity:1"
     d="m 42.273666,99.525 c -0.016,-2.885 -2.714,-4.573 -4.172,-4.683 -1.313,-0.104 -2.77,0.64 -3.776,2.678 -0.652,1.322 -0.557,2.682 0.067,4.104 0.204,1.025 0.355,1.64 1.079,1.984 0.068,0.032 0.136,0.078 0.202,0.125 0.355,0.464 0.735,0.937 1.178,1.416 z"
     id="path760" />
  <path
     style="fill:#231f20;fill-opacity:1;fill-rule:nonzero;stroke:none"
     d="m 4.0646664,82.952001 c 0.313,0.562 2.141,1.229 3.328,2.317 0.797,0.734999 3.4069996,1.599999 4.1469996,2.390999 0.681,0.724 1.062,0.989 2.02,0.354 0.568,-0.374 1.422,-1.469 1.162,-1.906 -0.61,-1.019999 -1.376,-1.577999 -2.349,-2.019999 -1.115,-0.491 -4.2399996,-1.574 -4.8389996,-1.719 -1.478,-0.36 -1.932,-0.943 -2.317,-1.068 -0.715,-0.251 -0.991,-0.037 -1.251,0.396 -0.5,0.812 0.099,1.255 0.099,1.255"
     id="path761" />
  <path
     style="fill:none;stroke:#231f20;stroke-width:0.565977;stroke-linecap:butt;stroke-linejoin:miter;stroke-miterlimit:4;stroke-dasharray:none;stroke-opacity:1"
     d="m 4.0646664,82.952001 c 0.313,0.562 2.141,1.229 3.328,2.317 0.797,0.734999 3.4069996,1.599999 4.1469996,2.390999 0.681,0.724 1.062,0.989 2.02,0.354 0.568,-0.374 1.422,-1.469 1.162,-1.906 -0.61,-1.019999 -1.376,-1.577999 -2.349,-2.019999 -1.115,-0.491 -4.2399996,-1.574 -4.8389996,-1.719 -1.478,-0.36 -1.932,-0.943 -2.317,-1.068 -0.715,-0.251 -0.991,-0.037 -1.251,0.396 -0.5,0.812 0.099,1.255 0.099,1.255 z"
     id="path762" />
  <path
     style="fill:#231f20;fill-opacity:1;fill-rule:nonzero;stroke:none"
     d="m 12.055666,87.222 c -0.486,1.208 1.514,1.604 2.02,1.792 0.51,0.188 1.906,0.88 2.917,1.563 1.02,0.677 2.577,1.093 4.515,2.385 1.021,0.683 2.437,0.698 3.36,-0.822 0.91,-1.5 0.41,-2.574 -0.943,-3.215 -1.355,-0.635 -2.896,-0.661 -4.308,-1.208 -1.411,-0.541 -2.796,-1.229 -3.859,-1.823 -1.204,-0.665999 -2.057,-0.551999 -2.432,-0.259999 -0.942,0.734999 -1.27,1.587999 -1.27,1.587999"
     id="path763" />
  <path
     style="fill:none;stroke:#231f20;stroke-width:0.565977;stroke-linecap:butt;stroke-linejoin:miter;stroke-miterlimit:4;stroke-dasharray:none;stroke-opacity:1"
     d="m 12.055666,87.222 c -0.486,1.208 1.514,1.604 2.02,1.792 0.51,0.188 1.906,0.88 2.917,1.563 1.02,0.677 2.577,1.093 4.515,2.385 1.021,0.683 2.437,0.698 3.36,-0.822 0.91,-1.5 0.41,-2.574 -0.943,-3.215 -1.355,-0.635 -2.896,-0.661 -4.308,-1.208 -1.411,-0.541 -2.796,-1.229 -3.859,-1.823 -1.204,-0.665999 -2.057,-0.551999 -2.432,-0.259999 -0.942,0.734999 -1.27,1.587999 -1.27,1.587999 z"
     id="path764" />
  <path
     style="fill:#231f20;fill-opacity:1;fill-rule:nonzero;stroke:none"
     d="m 207.73067,10.755001 c 1.314,0.333 1.428,1.322 0.855,2.186 -0.167,0.256 -0.052,0.656 -0.235,0.891 -0.437,0.557 -2.177,0.699 -2.666,-0.724 -0.031,-0.093 -0.52,-0.755 -0.807,-1.307 -0.557,-1.078 -1.156,-3.4999998 0.255,-5.7919998 0.672,-1.093 1.188,-0.494 1.052,0.027 -0.438,1.651 -0.151,1.889 -0.11,2.359 0.146,1.6199998 1.656,2.3599998 1.656,2.3599998"
     id="path765" />
  <path
     style="fill:none;stroke:#231f20;stroke-width:0.332927;stroke-linecap:butt;stroke-linejoin:miter;stroke-miterlimit:4;stroke-dasharray:none;stroke-opacity:1"
     d="m 207.73067,10.755001 c 1.314,0.333 1.428,1.322 0.855,2.186 -0.167,0.256 -0.052,0.656 -0.235,0.891 -0.437,0.557 -2.177,0.699 -2.666,-0.724 -0.031,-0.093 -0.52,-0.755 -0.807,-1.307 -0.557,-1.078 -1.156,-3.4999998 0.255,-5.7919998 0.672,-1.093 1.188,-0.494 1.052,0.027 -0.438,1.651 -0.151,1.889 -0.11,2.359 0.146,1.6199998 1.656,2.3599998 1.656,2.3599998 z"
     id="path766" />
  <path
     style="fill:#231f20;fill-opacity:1;fill-rule:nonzero;stroke:none"
     d="m 213.55367,28.583001 c 2.183,-0.61 2.527,-1.022 2.329,-1.959 -0.125,-0.625 -0.037,-1.251 -0.1,-1.636 -0.202,-1.281 -1.077,-3.353 -5.077,-8.572 -0.912,-1.188 -2.177,-2.855 -2.631,-3.589 -0.734,-1.14 -2.14,0.849 -1.854,1.297 0.901,1.464 1.412,2.525 1.662,3.104 0.176,0.385 0.572,1.036 1.052,2.631 0.73,2.421 0.807,3.973 1.646,5.916 0.39,0.906 0.104,1.833 0.948,2.516 0.828,0.702 2.025,0.292 2.025,0.292"
     id="path767" />
  <path
     style="fill:none;stroke:#231f20;stroke-width:0.565977;stroke-linecap:butt;stroke-linejoin:miter;stroke-miterlimit:4;stroke-dasharray:none;stroke-opacity:1"
     d="m 213.55367,28.583001 c 2.183,-0.61 2.527,-1.022 2.329,-1.959 -0.125,-0.625 -0.037,-1.251 -0.1,-1.636 -0.202,-1.281 -1.077,-3.353 -5.077,-8.572 -0.912,-1.188 -2.177,-2.855 -2.631,-3.589 -0.734,-1.14 -2.14,0.849 -1.854,1.297 0.901,1.464 1.412,2.525 1.662,3.104 0.176,0.385 0.572,1.036 1.052,2.631 0.73,2.421 0.807,3.973 1.646,5.916 0.39,0.906 0.104,1.833 0.948,2.516 0.828,0.702 2.025,0.292 2.025,0.292 z"
     id="path768" />
  <path
     style="fill:#0098c9;fill-opacity:1;fill-rule:nonzero;stroke:none"
     d="m 226.56467,50.900001 c -1.291,-2.855 -1.26,-3.604 -1.282,-4.527 -0.129,-5.781 -2.968,-5.609 -5.333,-3.957 -2.785,1.932 -3.823,2.572 -0.687,8.036 0.875,1.516 3.463,7.77 3.463,7.77 0.62,2.366 2.491,4.344 3.928,4.59 1.511,0.26 0.927,0.046 2.375,0.03 1.38,-0.01 3.249,-1.14 3.448,-2.36 0.192,-1.17 -1.084,-2.244 -2.724,-4.025 -1.292,-1.417 -3.188,-5.557 -3.188,-5.557"
     id="path769" />
  <path
     style="fill:none;stroke:#231f20;stroke-width:0.565977;stroke-linecap:butt;stroke-linejoin:miter;stroke-miterlimit:4;stroke-dasharray:none;stroke-opacity:1"
     d="m 226.56467,50.900001 c -1.291,-2.855 -1.26,-3.604 -1.282,-4.527 -0.129,-5.781 -2.968,-5.609 -5.333,-3.957 -2.785,1.932 -3.823,2.572 -0.687,8.036 0.875,1.516 3.463,7.77 3.463,7.77 0.62,2.366 2.491,4.344 3.928,4.59 1.511,0.26 0.927,0.046 2.375,0.03 1.38,-0.01 3.249,-1.14 3.448,-2.36 0.192,-1.17 -1.084,-2.244 -2.724,-4.025 -1.292,-1.417 -3.188,-5.557 -3.188,-5.557 z"
     id="path770" />
  <path
     style="fill:#ffffff;fill-opacity:1;fill-rule:nonzero;stroke:none"
     d="m 231.82067,68.910001 c 0.124,0.214 -0.683,1.026 -0.339,1.427 0.344,0.391 1.052,0.041 2.869,0.839 l 0.022,0.01 c 1.312,0.63 2.702,0.64 3.708,-0.109 1.677,-1.229 1.666,-4.068 -0.011,-6.344 -1.677,-2.271 -4.391,-3.115 -6.063,-1.88 -1.598,1.177 -1.656,3.839 -0.186,6.057"
     id="path771" />
  <path
     style="fill:none;stroke:#231f20;stroke-width:0.565977;stroke-linecap:butt;stroke-linejoin:miter;stroke-miterlimit:4;stroke-dasharray:none;stroke-opacity:1"
     d="m 231.82067,68.910001 c 0.124,0.214 -0.683,1.026 -0.339,1.427 0.344,0.391 1.052,0.041 2.869,0.839 l 0.022,0.01 c 1.312,0.63 2.702,0.64 3.708,-0.109 1.677,-1.229 1.666,-4.068 -0.011,-6.344 -1.677,-2.271 -4.391,-3.115 -6.063,-1.88 -1.598,1.177 -1.656,3.839 -0.186,6.057 z"
     id="path772" />
  <path
     style="fill:#231f20;fill-opacity:1;fill-rule:nonzero;stroke:none"
     d="m 213.45467,26.113001 c -3.942,0.74 -1.473,3.99 -1.38,4.464 0.907,4.922 1.094,5.255 2.047,8.954 1.38,5.353 3.147,8.806 6.495,8.915 2.27,0.074 3.609,-0.869 4.136,-2.073 0.578,-1.343 0.358,-4.509 -2.188,-5.88 l -0.854,-1.489 c -0.448,-1.068 -0.672,-1.593 -0.849,-2.145 -0.312,-0.954 -0.697,-1.954 -1.412,-3.776 -1.26,-3.24 -3.651,-6.246 -3.651,-6.246 -0.478,-1.15 -2.344,-0.724 -2.344,-0.724"
     id="path773" />
  <path
     style="fill:none;stroke:#231f20;stroke-width:0.565977;stroke-linecap:butt;stroke-linejoin:miter;stroke-miterlimit:4;stroke-dasharray:none;stroke-opacity:1"
     d="m 213.45467,26.113001 c -3.942,0.74 -1.473,3.99 -1.38,4.464 0.907,4.922 1.094,5.255 2.047,8.954 1.38,5.353 3.147,8.806 6.495,8.915 2.27,0.074 3.609,-0.869 4.136,-2.073 0.578,-1.343 0.358,-4.509 -2.188,-5.88 l -0.854,-1.489 c -0.448,-1.068 -0.672,-1.593 -0.849,-2.145 -0.312,-0.954 -0.697,-1.954 -1.412,-3.776 -1.26,-3.24 -3.651,-6.246 -3.651,-6.246 -0.478,-1.15 -2.344,-0.724 -2.344,-0.724 z"
     id="path774" />
  <path
     style="fill:#0098c9;fill-opacity:1;fill-rule:nonzero;stroke:none"
     d="m 221.86167,40.364001 -7.041,3.374 c 0.317,0.568 0.645,1.083 0.973,1.563 0.021,0.077 0.041,0.156 0.052,0.229 0.104,0.802 0.641,1.135 1.547,1.651 1.152,1.041 2.412,1.557 3.87,1.355 2.25,-0.308 3.416,-1.459 3.735,-2.74 0.353,-1.418 -0.396,-4.511 -3.136,-5.432"
     id="path775" />
  <path
     style="fill:none;stroke:#231f20;stroke-width:0.565977;stroke-linecap:butt;stroke-linejoin:miter;stroke-miterlimit:4;stroke-dasharray:none;stroke-opacity:1"
     d="m 221.86167,40.364001 -7.041,3.374 c 0.317,0.568 0.645,1.083 0.973,1.563 0.021,0.077 0.041,0.156 0.052,0.229 0.104,0.802 0.641,1.135 1.547,1.651 1.152,1.041 2.412,1.557 3.87,1.355 2.25,-0.308 3.416,-1.459 3.735,-2.74 0.353,-1.418 -0.396,-4.511 -3.136,-5.432 z"
     id="path776" />
  <path
     style="fill:#231f20;fill-opacity:1;fill-rule:nonzero;stroke:none"
     d="m 237.99267,78.400001 c -0.568,-0.307 -1.262,-2.126 -2.366,-3.298 -0.744,-0.786 -1.645,-3.385 -2.453,-4.114 -0.729,-0.667 -1.005,-1.042 -0.38,-2.015 0.371,-0.573 1.448,-1.443 1.891,-1.183 1.032,0.594 1.598,1.35 2.052,2.318 0.505,1.104 1.636,4.213 1.786,4.813 0.38,1.473 0.97,1.921 1.104,2.301 0.26,0.714 0.047,0.99 -0.38,1.26 -0.806,0.506 -1.254,-0.082 -1.254,-0.082"
     id="path777" />
  <path
     style="fill:none;stroke:#231f20;stroke-width:0.565977;stroke-linecap:butt;stroke-linejoin:miter;stroke-miterlimit:4;stroke-dasharray:none;stroke-opacity:1"
     d="m 237.99267,78.400001 c -0.568,-0.307 -1.262,-2.126 -2.366,-3.298 -0.744,-0.786 -1.645,-3.385 -2.453,-4.114 -0.729,-0.667 -1.005,-1.042 -0.38,-2.015 0.371,-0.573 1.448,-1.443 1.891,-1.183 1.032,0.594 1.598,1.35 2.052,2.318 0.505,1.104 1.636,4.213 1.786,4.813 0.38,1.473 0.97,1.921 1.104,2.301 0.26,0.714 0.047,0.99 -0.38,1.26 -0.806,0.506 -1.254,-0.082 -1.254,-0.082 z"
     id="path778" />
  <path
     style="fill:#231f20;fill-opacity:1;fill-rule:nonzero;stroke:none"
     d="m 233.60667,70.468001 c -1.198,0.505 -1.625,-1.49 -1.818,-1.995 -0.192,-0.511 -0.906,-1.891 -1.604,-2.896 -0.692,-1.011 -1.13,-2.563 -2.454,-4.48 -0.692,-1.009 -0.729,-2.427 0.782,-3.369 1.485,-0.932 2.568,-0.448 3.224,0.901 0.656,1.344 0.704,2.88 1.265,4.287 0.568,1.4 1.272,2.776 1.881,3.833 0.687,1.197 0.578,2.047 0.296,2.427 -0.724,0.953 -1.572,1.292 -1.572,1.292"
     id="path779" />
  <path
     style="fill:none;stroke:#231f20;stroke-width:0.565977;stroke-linecap:butt;stroke-linejoin:miter;stroke-miterlimit:4;stroke-dasharray:none;stroke-opacity:1"
     d="m 233.60667,70.468001 c -1.198,0.505 -1.625,-1.49 -1.818,-1.995 -0.192,-0.511 -0.906,-1.891 -1.604,-2.896 -0.692,-1.011 -1.13,-2.563 -2.454,-4.48 -0.692,-1.009 -0.729,-2.427 0.782,-3.369 1.485,-0.932 2.568,-0.448 3.224,0.901 0.656,1.344 0.704,2.88 1.265,4.287 0.568,1.4 1.272,2.776 1.881,3.833 0.687,1.197 0.578,2.047 0.296,2.427 -0.724,0.953 -1.572,1.292 -1.572,1.292 z"
     id="path780" />
  <path
     style="fill:#231f20;fill-opacity:1;fill-rule:nonzero;stroke:none"
     d="m 255.42667,9.5920012 c -0.72,1.1469998 -0.12,1.9389998 0.89,2.1679998 0.3,0.072 0.49,0.443 0.79,0.484 0.7,0.093 2.06,-1 1.42,-2.3649998 -0.03,-0.094 -0.14,-0.906 -0.32,-1.5 -0.33,-1.172 -1.57,-3.334 -4.18,-4.015 -1.24,-0.328 -1.2,0.463 -0.74,0.744 1.45,0.891 1.41,1.261 1.71,1.636 1.01,1.265 0.43,2.848 0.43,2.848"
     id="path781" />
  <path
     style="fill:none;stroke:#231f20;stroke-width:0.332927;stroke-linecap:butt;stroke-linejoin:miter;stroke-miterlimit:4;stroke-dasharray:none;stroke-opacity:1"
     d="m 255.42667,9.5920012 c -0.72,1.1469998 -0.12,1.9389998 0.89,2.1679998 0.3,0.072 0.49,0.443 0.79,0.484 0.7,0.093 2.06,-1 1.42,-2.3649998 -0.03,-0.094 -0.14,-0.906 -0.32,-1.5 -0.33,-1.172 -1.57,-3.334 -4.18,-4.015 -1.24,-0.328 -1.2,0.463 -0.74,0.744 1.45,0.891 1.41,1.261 1.71,1.636 1.01,1.265 0.43,2.848 0.43,2.848 z"
     id="path782" />
  <path
     style="fill:#0098c9;fill-opacity:1;fill-rule:nonzero;stroke:none"
     d="m 270.15667,51.597001 c -1.26,-2.869 -1.85,-3.348 -2.52,-3.979 -4.21,-3.958 -2.19,-5.953 0.62,-6.614 3.3,-0.782 4.46,-1.126 6.44,4.854 0.54,1.662 3.47,7.771 3.47,7.771 1.35,2.041 1.57,4.755 0.79,5.984 -0.81,1.303 -0.58,0.724 -1.56,1.792 -0.93,1.016 -3.02,1.656 -4.06,0.984 -1,-0.635 -0.94,-2.301 -1.18,-4.713 -0.19,-1.907 -2,-6.079 -2,-6.079"
     id="path783" />
  <path
     style="fill:none;stroke:#231f20;stroke-width:0.565977;stroke-linecap:butt;stroke-linejoin:miter;stroke-miterlimit:4;stroke-dasharray:none;stroke-opacity:1"
     d="m 270.15667,51.597001 c -1.26,-2.869 -1.85,-3.348 -2.52,-3.979 -4.21,-3.958 -2.19,-5.953 0.62,-6.614 3.3,-0.782 4.46,-1.126 6.44,4.854 0.54,1.662 3.47,7.771 3.47,7.771 1.35,2.041 1.57,4.755 0.79,5.984 -0.81,1.303 -0.58,0.724 -1.56,1.792 -0.93,1.016 -3.02,1.656 -4.06,0.984 -1,-0.635 -0.94,-2.301 -1.18,-4.713 -0.19,-1.907 -2,-6.079 -2,-6.079 z"
     id="path784" />
  <path
     style="fill:#ffffff;fill-opacity:1;fill-rule:nonzero;stroke:none"
     d="m 280.04667,67.536001 c 0.07,0.233 1.22,0.176 1.29,0.697 0.06,0.521 -0.67,0.812 -1.29,2.697 l -0.01,0.022 c -0.41,1.396 -1.33,2.437 -2.56,2.693 -2.03,0.421 -4.14,-1.48 -4.71,-4.245 -0.57,-2.771 0.61,-5.35 2.65,-5.771 1.94,-0.401 3.97,1.328 4.63,3.907"
     id="path785" />
  <path
     style="fill:none;stroke:#231f20;stroke-width:0.565977;stroke-linecap:butt;stroke-linejoin:miter;stroke-miterlimit:4;stroke-dasharray:none;stroke-opacity:1"
     d="m 280.04667,67.536001 c 0.07,0.233 1.22,0.176 1.29,0.697 0.06,0.521 -0.67,0.812 -1.29,2.697 l -0.01,0.022 c -0.41,1.396 -1.33,2.437 -2.56,2.693 -2.03,0.421 -4.14,-1.48 -4.71,-4.245 -0.57,-2.771 0.61,-5.35 2.65,-5.771 1.94,-0.401 3.97,1.328 4.63,3.907 z"
     id="path786" />
  <path
     style="fill:#231f20;fill-opacity:1;fill-rule:nonzero;stroke:none"
     d="m 328.17667,5.6760012 c 0.86,1.047 0.35,1.907 -0.62,2.255 -0.29,0.109 -0.44,0.5 -0.73,0.578 -0.68,0.183 -2.16,-0.745 -1.7,-2.177 0.03,-0.099 0.04,-0.911 0.14,-1.525 0.2,-1.204 1.17,-3.5 3.67,-4.49500002 1.19,-0.469 1.25,0.317 0.83,0.656 -1.34,1.05700002 -1.25,1.41600002 -1.5,1.82300002 -0.85,1.385 -0.09,2.885 -0.09,2.885"
     id="path787" />
  <path
     style="fill:none;stroke:#231f20;stroke-width:0.332927;stroke-linecap:butt;stroke-linejoin:miter;stroke-miterlimit:4;stroke-dasharray:none;stroke-opacity:1"
     d="m 328.17667,5.6760012 c 0.86,1.047 0.35,1.907 -0.62,2.255 -0.29,0.109 -0.44,0.5 -0.73,0.578 -0.68,0.183 -2.16,-0.745 -1.7,-2.177 0.03,-0.099 0.04,-0.911 0.14,-1.525 0.2,-1.204 1.17,-3.5 3.67,-4.49500002 1.19,-0.469 1.25,0.317 0.83,0.656 -1.34,1.05700002 -1.25,1.41600002 -1.5,1.82300002 -0.85,1.385 -0.09,2.885 -0.09,2.885 z"
     id="path788" />
  <path
     style="fill:#231f20;fill-opacity:1;fill-rule:nonzero;stroke:none"
     d="m 322.16667,23.436001 c 2.12,0.819 2.64,0.699 3.04,-0.177 0.27,-0.572 0.71,-1.02 0.9,-1.364 0.6,-1.151 1.14,-3.334 1.06,-9.907 -0.02,-1.495 -0.03,-3.5879998 0.04,-4.4479998 0.1,-1.353 -2.21,-0.609 -2.26,-0.077 -0.15,1.713 -0.38,2.8689998 -0.52,3.4839998 -0.09,0.417 -0.16,1.172 -0.73,2.74 -0.87,2.374 -1.74,3.661 -2.23,5.718 -0.23,0.959 -1.02,1.531 -0.75,2.583 0.24,1.057 1.45,1.448 1.45,1.448"
     id="path789" />
  <path
     style="fill:none;stroke:#231f20;stroke-width:0.565977;stroke-linecap:butt;stroke-linejoin:miter;stroke-miterlimit:4;stroke-dasharray:none;stroke-opacity:1"
     d="m 322.16667,23.436001 c 2.12,0.819 2.64,0.699 3.04,-0.177 0.27,-0.572 0.71,-1.02 0.9,-1.364 0.6,-1.151 1.14,-3.334 1.06,-9.907 -0.02,-1.495 -0.03,-3.5879998 0.04,-4.4479998 0.1,-1.353 -2.21,-0.609 -2.26,-0.077 -0.15,1.713 -0.38,2.8689998 -0.52,3.4839998 -0.09,0.417 -0.16,1.172 -0.73,2.74 -0.87,2.374 -1.74,3.661 -2.23,5.718 -0.23,0.959 -1.02,1.531 -0.75,2.583 0.24,1.057 1.45,1.448 1.45,1.448 z"
     id="path790" />
  <path
     style="fill:#0098c9;fill-opacity:1;fill-rule:nonzero;stroke:none"
     d="m 319.22667,49.102001 c 0.67,-3.057 1.15,-3.645 1.68,-4.39 3.36,-4.714 0.98,-6.271 -1.9,-6.364 -3.39,-0.12 -4.6,-0.229 -5.36,6.021 -0.21,1.739 -1.88,8.301 -1.88,8.301 -0.93,2.266 -0.61,4.97 0.39,6.027 1.06,1.115 0.72,0.593 1.89,1.448 1.11,0.812 3.28,1.025 4.17,0.171 0.86,-0.823 0.48,-2.447 0.23,-4.859 -0.18,-1.907 0.78,-6.355 0.78,-6.355"
     id="path791" />
  <path
     style="fill:none;stroke:#231f20;stroke-width:0.565977;stroke-linecap:butt;stroke-linejoin:miter;stroke-miterlimit:4;stroke-dasharray:none;stroke-opacity:1"
     d="m 319.22667,49.102001 c 0.67,-3.057 1.15,-3.645 1.68,-4.39 3.36,-4.714 0.98,-6.271 -1.9,-6.364 -3.39,-0.12 -4.6,-0.229 -5.36,6.021 -0.21,1.739 -1.88,8.301 -1.88,8.301 -0.93,2.266 -0.61,4.97 0.39,6.027 1.06,1.115 0.72,0.593 1.89,1.448 1.11,0.812 3.28,1.025 4.17,0.171 0.86,-0.823 0.48,-2.447 0.23,-4.859 -0.18,-1.907 0.78,-6.355 0.78,-6.355 z"
     id="path792" />
  <path
     style="fill:#ffffff;fill-opacity:1;fill-rule:nonzero;stroke:none"
     d="m 312.64667,66.670001 c -0.03,0.251 -1.16,0.418 -1.13,0.943 0.05,0.521 0.82,0.661 1.8,2.391 l 0.01,0.021 c 0.68,1.287 1.78,2.129 3.04,2.135 2.08,0.016 3.77,-2.26 3.79,-5.088 0.02,-2.823 -1.66,-5.126 -3.73,-5.136 -1.99,-0.015 -3.63,2.078 -3.78,4.734"
     id="path793" />
  <path
     style="fill:none;stroke:#231f20;stroke-width:0.565977;stroke-linecap:butt;stroke-linejoin:miter;stroke-miterlimit:4;stroke-dasharray:none;stroke-opacity:1"
     d="m 312.64667,66.670001 c -0.03,0.251 -1.16,0.418 -1.13,0.943 0.05,0.521 0.82,0.661 1.8,2.391 l 0.01,0.021 c 0.68,1.287 1.78,2.129 3.04,2.135 2.08,0.016 3.77,-2.26 3.79,-5.088 0.02,-2.823 -1.66,-5.126 -3.73,-5.136 -1.99,-0.015 -3.63,2.078 -3.78,4.734 z"
     id="path794" />
  <path
     style="fill:#231f20;fill-opacity:1;fill-rule:nonzero;stroke:none"
     d="m 323.56667,21.400001 c -3.6,-1.765 -3.57,2.312 -3.78,2.745 -2.22,4.49 -2.27,4.87 -3.72,8.4 -2.1,5.115 -2.76,8.937 -0.14,11.032 1.77,1.411 3.41,1.468 4.55,0.812 1.27,-0.729 2.99,-3.396 1.78,-6.02 l 0.2,-1.698 c 0.28,-1.126 0.42,-1.683 0.6,-2.23 0.33,-0.953 0.62,-1.984 1.14,-3.869 0.92,-3.349 0.81,-7.188 0.81,-7.188 0.31,-1.208 -1.44,-1.984 -1.44,-1.984"
     id="path795" />
  <path
     style="fill:none;stroke:#231f20;stroke-width:0.565977;stroke-linecap:butt;stroke-linejoin:miter;stroke-miterlimit:4;stroke-dasharray:none;stroke-opacity:1"
     d="m 323.56667,21.400001 c -3.6,-1.765 -3.57,2.312 -3.78,2.745 -2.22,4.49 -2.27,4.87 -3.72,8.4 -2.1,5.115 -2.76,8.937 -0.14,11.032 1.77,1.411 3.41,1.468 4.55,0.812 1.27,-0.729 2.99,-3.396 1.78,-6.02 l 0.2,-1.698 c 0.28,-1.126 0.42,-1.683 0.6,-2.23 0.33,-0.953 0.62,-1.984 1.14,-3.869 0.92,-3.349 0.81,-7.188 0.81,-7.188 0.31,-1.208 -1.44,-1.984 -1.44,-1.984 z"
     id="path796" />
  <path
     style="fill:#0098c9;fill-opacity:1;fill-rule:nonzero;stroke:none"
     d="m 313.85667,38.384001 c 0.03,-0.063 0.07,-0.14 0.09,-0.219 0.03,-0.582 0.07,-1.186 0.16,-1.833 l 7.66,1.516 c 1.64,2.374 0.39,5.301 -0.74,6.224 -1.02,0.838 -2.64,1.062 -4.63,-0.036 -1.3,-0.715 -1.99,-1.882 -2.29,-3.407 -0.42,-0.953 -0.65,-1.541 -0.25,-2.245"
     id="path797" />
  <path
     style="fill:none;stroke:#231f20;stroke-width:0.565977;stroke-linecap:butt;stroke-linejoin:miter;stroke-miterlimit:4;stroke-dasharray:none;stroke-opacity:1"
     d="m 313.85667,38.384001 c 0.03,-0.063 0.07,-0.14 0.09,-0.219 0.03,-0.582 0.07,-1.186 0.16,-1.833 l 7.66,1.516 c 1.64,2.374 0.39,5.301 -0.74,6.224 -1.02,0.838 -2.64,1.062 -4.63,-0.036 -1.3,-0.715 -1.99,-1.882 -2.29,-3.407 -0.42,-0.953 -0.65,-1.541 -0.25,-2.245 z"
     id="path798" />
  <path
     style="fill:#231f20;fill-opacity:1;fill-rule:nonzero;stroke:none"
     d="m 311.90667,77.968001 c -0.27,-0.584 0.26,-2.459 0.08,-4.058 -0.13,-1.078 0.71,-3.693 0.5,-4.761 -0.18,-0.973 -0.18,-1.437 0.9,-1.843 0.64,-0.24 2.03,-0.286 2.22,0.182 0.47,1.094 0.48,2.042 0.26,3.089 -0.26,1.187 -1.21,4.353 -1.45,4.921 -0.58,1.407 -0.37,2.12 -0.49,2.506 -0.22,0.729 -0.55,0.822 -1.07,0.781 -0.94,-0.073 -0.95,-0.817 -0.95,-0.817"
     id="path799" />
  <path
     style="fill:none;stroke:#231f20;stroke-width:0.565977;stroke-linecap:butt;stroke-linejoin:miter;stroke-miterlimit:4;stroke-dasharray:none;stroke-opacity:1"
     d="m 311.90667,77.968001 c -0.27,-0.584 0.26,-2.459 0.08,-4.058 -0.13,-1.078 0.71,-3.693 0.5,-4.761 -0.18,-0.973 -0.18,-1.437 0.9,-1.843 0.64,-0.24 2.03,-0.286 2.22,0.182 0.47,1.094 0.48,2.042 0.26,3.089 -0.26,1.187 -1.21,4.353 -1.45,4.921 -0.58,1.407 -0.37,2.12 -0.49,2.506 -0.22,0.729 -0.55,0.822 -1.07,0.781 -0.94,-0.073 -0.95,-0.817 -0.95,-0.817 z"
     id="path800" />
  <path
     style="fill:#231f20;fill-opacity:1;fill-rule:nonzero;stroke:none"
     d="m 313.14667,68.988001 c -1.26,-0.312 -0.41,-2.167 -0.26,-2.687 0.15,-0.521 0.4,-2.057 0.45,-3.276 0.05,-1.224 0.62,-2.729 0.72,-5.057 0.04,-1.224 0.86,-2.38 2.64,-2.235 1.74,0.14 2.32,1.183 2.04,2.656 -0.28,1.469 -1.16,2.729 -1.55,4.193 -0.39,1.458 -0.65,2.984 -0.79,4.192 -0.17,1.371 -0.76,1.99 -1.22,2.126 -1.15,0.328 -2.03,0.088 -2.03,0.088"
     id="path801" />
  <path
     style="fill:none;stroke:#231f20;stroke-width:0.565977;stroke-linecap:butt;stroke-linejoin:miter;stroke-miterlimit:4;stroke-dasharray:none;stroke-opacity:1"
     d="m 313.14667,68.988001 c -1.26,-0.312 -0.41,-2.167 -0.26,-2.687 0.15,-0.521 0.4,-2.057 0.45,-3.276 0.05,-1.224 0.62,-2.729 0.72,-5.057 0.04,-1.224 0.86,-2.38 2.64,-2.235 1.74,0.14 2.32,1.183 2.04,2.656 -0.28,1.469 -1.16,2.729 -1.55,4.193 -0.39,1.458 -0.65,2.984 -0.79,4.192 -0.17,1.371 -0.76,1.99 -1.22,2.126 -1.15,0.328 -2.03,0.088 -2.03,0.088 z"
     id="path802" />
  <path
     style="fill:none;stroke:#231f20;stroke-width:0.399514;stroke-linecap:butt;stroke-linejoin:miter;stroke-miterlimit:4;stroke-dasharray:none;stroke-opacity:1"
     d="m 278.16667,29.916001 c -25.36,-7.647 -29.84,4.853 -23.61,10.514"
     id="path803" />
  <path
     style="fill:#231f20;fill-opacity:1;fill-rule:nonzero;stroke:none"
     d="m 255.44667,41.238001 c -0.56,-0.224 -1.33,-0.432 -1.9,-0.442 l 0.89,-0.475 0.38,-0.932 c 0.07,0.573 0.35,1.313 0.63,1.849"
     id="path804" />
  <path
     style="fill:none;stroke:#231f20;stroke-width:0.399514;stroke-linecap:butt;stroke-linejoin:miter;stroke-miterlimit:4;stroke-dasharray:none;stroke-opacity:1"
     d="M 116.49267,116.113 C 90.569666,110.665 87.752666,76.436001 89.711666,69.441001"
     id="path805" />
  <path
     style="fill:#231f20;fill-opacity:1;fill-rule:nonzero;stroke:none"
     d="m 90.033666,68.280001 c 0.052,0.604 0.208,1.38 0.459,1.906 l -0.824,-0.589 -1.009,0.073 c 0.484,-0.317 1.02,-0.896 1.374,-1.39"
     id="path806" />
  <path
     style="fill:none;stroke:#231f20;stroke-width:0.399514;stroke-linecap:butt;stroke-linejoin:miter;stroke-miterlimit:4;stroke-dasharray:none;stroke-opacity:1"
     d="m 13.867666,25.067001 c 26.406,-2.136 38.828,29.879 38.937,37.139"
     id="path807" />
  <path
     style="fill:#231f20;fill-opacity:1;fill-rule:nonzero;stroke:none"
     d="m 52.820666,63.410001 c -0.219,-0.562 -0.589,-1.261 -0.975,-1.693 l 0.954,0.333 0.948,-0.358 c -0.375,0.442 -0.724,1.15 -0.927,1.718"
     id="path808" />
  <path
     style="fill:#231f20;fill-opacity:1;fill-rule:nonzero;stroke:none"
     d="m 177.86167,78.545001 c -0.563,-0.312 -1.224,-2.14 -2.317,-3.323 -0.735,-0.796 -1.604,-3.406 -2.402,-4.14 -0.718,-0.677 -0.989,-1.062 -0.354,-2.021 0.376,-0.568 1.469,-1.421 1.906,-1.161 1.027,0.604 1.583,1.369 2.027,2.344 0.495,1.109 1.577,4.234 1.723,4.833 0.365,1.479 0.944,1.932 1.073,2.312 0.251,0.719 0.036,0.995 -0.396,1.26 -0.817,0.496 -1.26,-0.104 -1.26,-0.104"
     id="path809" />
  <path
     style="fill:none;stroke:#231f20;stroke-width:0.565977;stroke-linecap:butt;stroke-linejoin:miter;stroke-miterlimit:4;stroke-dasharray:none;stroke-opacity:1"
     d="m 177.86167,78.545001 c -0.563,-0.312 -1.224,-2.14 -2.317,-3.323 -0.735,-0.796 -1.604,-3.406 -2.402,-4.14 -0.718,-0.677 -0.989,-1.062 -0.354,-2.021 0.376,-0.568 1.469,-1.421 1.906,-1.161 1.027,0.604 1.583,1.369 2.027,2.344 0.495,1.109 1.577,4.234 1.723,4.833 0.365,1.479 0.944,1.932 1.073,2.312 0.251,0.719 0.036,0.995 -0.396,1.26 -0.817,0.496 -1.26,-0.104 -1.26,-0.104 z"
     id="path810" />
  <path
     style="fill:#231f20;fill-opacity:1;fill-rule:nonzero;stroke:none"
     d="m 173.75267,70.296001 c -1.167,0.562 -1.703,-1.402 -1.922,-1.891 -0.224,-0.495 -1.021,-1.844 -1.766,-2.803 -0.755,-0.968 -1.276,-2.494 -2.708,-4.328 -0.75,-0.973 -0.87,-2.38 0.584,-3.416 1.432,-1.01 2.536,-0.589 3.27,0.719 0.734,1.307 0.864,2.844 1.511,4.208 0.645,1.369 1.432,2.703 2.093,3.713 0.755,1.156 0.698,2.016 0.432,2.407 -0.661,1 -1.494,1.391 -1.494,1.391"
     id="path811" />
  <path
     style="fill:none;stroke:#231f20;stroke-width:0.565977;stroke-linecap:butt;stroke-linejoin:miter;stroke-miterlimit:4;stroke-dasharray:none;stroke-opacity:1"
     d="m 173.75267,70.296001 c -1.167,0.562 -1.703,-1.402 -1.922,-1.891 -0.224,-0.495 -1.021,-1.844 -1.766,-2.803 -0.755,-0.968 -1.276,-2.494 -2.708,-4.328 -0.75,-0.973 -0.87,-2.38 0.584,-3.416 1.432,-1.01 2.536,-0.589 3.27,0.719 0.734,1.307 0.864,2.844 1.511,4.208 0.645,1.369 1.432,2.703 2.093,3.713 0.755,1.156 0.698,2.016 0.432,2.407 -0.661,1 -1.494,1.391 -1.494,1.391 z"
     id="path812" />
  <path
     style="fill:#231f20;fill-opacity:1;fill-rule:nonzero;stroke:none"
     d="m 195.54467,66.222001 c -0.516,-0.39 -0.902,-2.301 -1.798,-3.634 -0.609,-0.896 -1.078,-3.606 -1.754,-4.454 -0.615,-0.776 -0.819,-1.198 -0.048,-2.052 0.453,-0.505 1.662,-1.188 2.062,-0.865 0.918,0.756 1.355,1.599 1.647,2.62 0.323,1.177 0.927,4.427 0.979,5.041 0.141,1.516 0.645,2.052 0.718,2.454 0.142,0.745 -0.114,0.984 -0.577,1.177 -0.887,0.369 -1.229,-0.287 -1.229,-0.287"
     id="path813" />
  <path
     style="fill:none;stroke:#231f20;stroke-width:0.565977;stroke-linecap:butt;stroke-linejoin:miter;stroke-miterlimit:4;stroke-dasharray:none;stroke-opacity:1"
     d="m 195.54467,66.222001 c -0.516,-0.39 -0.902,-2.301 -1.798,-3.634 -0.609,-0.896 -1.078,-3.606 -1.754,-4.454 -0.615,-0.776 -0.819,-1.198 -0.048,-2.052 0.453,-0.505 1.662,-1.188 2.062,-0.865 0.918,0.756 1.355,1.599 1.647,2.62 0.323,1.177 0.927,4.427 0.979,5.041 0.141,1.516 0.645,2.052 0.718,2.454 0.142,0.745 -0.114,0.984 -0.577,1.177 -0.887,0.369 -1.229,-0.287 -1.229,-0.287 z"
     id="path814" />
  <path
     style="fill:#231f20;fill-opacity:1;fill-rule:nonzero;stroke:none"
     d="m 193.69467,57.660001 c -0.385,1.24 -2.188,0.286 -2.697,0.109 -0.516,-0.181 -2.037,-0.52 -3.251,-0.635 -1.218,-0.114 -2.688,-0.781 -5.005,-1.005 -1.219,-0.12 -2.333,-0.995 -2.083,-2.76 0.244,-1.74 1.307,-2.256 2.766,-1.891 1.448,0.364 2.656,1.318 4.098,1.786 1.432,0.464 2.943,0.813 4.142,1.032 1.358,0.24 1.937,0.869 2.046,1.333 0.266,1.161 -0.016,2.031 -0.016,2.031"
     id="path815" />
  <path
     style="fill:none;stroke:#231f20;stroke-width:0.565977;stroke-linecap:butt;stroke-linejoin:miter;stroke-miterlimit:4;stroke-dasharray:none;stroke-opacity:1"
     d="m 193.69467,57.660001 c -0.385,1.24 -2.188,0.286 -2.697,0.109 -0.516,-0.181 -2.037,-0.52 -3.251,-0.635 -1.218,-0.114 -2.688,-0.781 -5.005,-1.005 -1.219,-0.12 -2.333,-0.995 -2.083,-2.76 0.244,-1.74 1.307,-2.256 2.766,-1.891 1.448,0.364 2.656,1.318 4.098,1.786 1.432,0.464 2.943,0.813 4.142,1.032 1.358,0.24 1.937,0.869 2.046,1.333 0.266,1.161 -0.016,2.031 -0.016,2.031 z"
     id="path816" />
  <path
     style="fill:#231f20;fill-opacity:1;fill-rule:nonzero;stroke:none"
     d="m 198.36667,71.738001 c 0.11,-0.724 -0.526,-3.912 -0.702,-4.63 -0.152,-0.646 -0.063,-1.796 -1.194,-2.036 -0.458,-0.099 -1.193,0.082 -1.473,0.24 -0.224,0.129 -0.251,0.457 -0.12,0.833 0.219,0.624 0.52,0.724 1.005,1.9 0,0 0.156,0.267 0.468,0.719 0.918,1.349 0.642,0.672 1.536,2.917 0.058,0.161 0.267,0.213 0.371,0.167 0.156,-0.084 0.109,-0.11 0.109,-0.11"
     id="path817" />
  <path
     style="fill:none;stroke:#231f20;stroke-width:0.565977;stroke-linecap:round;stroke-linejoin:round;stroke-miterlimit:4;stroke-dasharray:none;stroke-opacity:1"
     d="m 198.36667,71.738001 c 0.11,-0.724 -0.526,-3.912 -0.702,-4.63 -0.152,-0.646 -0.063,-1.796 -1.194,-2.036 -0.458,-0.099 -1.193,0.082 -1.473,0.24 -0.224,0.129 -0.251,0.457 -0.12,0.833 0.219,0.624 0.52,0.724 1.005,1.9 0,0 0.156,0.267 0.468,0.719 0.918,1.349 0.642,0.672 1.536,2.917 0.058,0.161 0.267,0.213 0.371,0.167 0.156,-0.084 0.109,-0.11 0.109,-0.11 z"
     id="path818" />
  <path
     style="fill:#231f20;fill-opacity:1;fill-rule:nonzero;stroke:none"
     d="m 264.52667,26.171001 c -2.06,0.948 -2.58,0.86 -3.04,0.016 -0.31,-0.552 -0.78,-0.975 -0.99,-1.308 -0.67,-1.11 -1.35,-3.25 -1.69,-9.818 -0.08,-1.494 -0.19,-3.582 -0.33,-4.437 -0.17,-1.3439998 2.19,-0.7449998 2.26,-0.219 0.26,1.703 0.56,2.839 0.74,3.443 0.12,0.411 0.24,1.161 0.91,2.688 1.02,2.312 1.97,3.547 2.58,5.567 0.3,0.942 1.11,1.464 0.92,2.532 -0.18,1.072 -1.36,1.536 -1.36,1.536"
     id="path819" />
  <path
     style="fill:none;stroke:#231f20;stroke-width:0.565977;stroke-linecap:butt;stroke-linejoin:miter;stroke-miterlimit:4;stroke-dasharray:none;stroke-opacity:1"
     d="m 264.52667,26.171001 c -2.06,0.948 -2.58,0.86 -3.04,0.016 -0.31,-0.552 -0.78,-0.975 -0.99,-1.308 -0.67,-1.11 -1.35,-3.25 -1.69,-9.818 -0.08,-1.494 -0.19,-3.582 -0.33,-4.437 -0.17,-1.3439998 2.19,-0.7449998 2.26,-0.219 0.26,1.703 0.56,2.839 0.74,3.443 0.12,0.411 0.24,1.161 0.91,2.688 1.02,2.312 1.97,3.547 2.58,5.567 0.3,0.942 1.11,1.464 0.92,2.532 -0.18,1.072 -1.36,1.536 -1.36,1.536 z"
     id="path820" />
  <path
     style="fill:#231f20;fill-opacity:1;fill-rule:nonzero;stroke:none"
     d="m 262.99667,24.228001 c 3.49,-1.995 3.71,2.079 3.95,2.495 2.5,4.338 2.58,4.713 4.25,8.15 2.42,4.969 3.32,8.745 0.84,10.996 -1.68,1.525 -3.31,1.681 -4.49,1.104 -1.32,-0.647 -3.2,-3.199 -2.15,-5.896 l -0.32,-1.682 c -0.35,-1.104 -0.52,-1.651 -0.74,-2.183 -0.38,-0.932 -0.74,-1.948 -1.38,-3.796 -1.14,-3.276 -1.27,-7.12 -1.27,-7.12 -0.38,-1.188 1.31,-2.068 1.31,-2.068"
     id="path821" />
  <path
     style="fill:none;stroke:#231f20;stroke-width:0.565977;stroke-linecap:butt;stroke-linejoin:miter;stroke-miterlimit:4;stroke-dasharray:none;stroke-opacity:1"
     d="m 262.99667,24.228001 c 3.49,-1.995 3.71,2.079 3.95,2.495 2.5,4.338 2.58,4.713 4.25,8.15 2.42,4.969 3.32,8.745 0.84,10.996 -1.68,1.525 -3.31,1.681 -4.49,1.104 -1.32,-0.647 -3.2,-3.199 -2.15,-5.896 l -0.32,-1.682 c -0.35,-1.104 -0.52,-1.651 -0.74,-2.183 -0.38,-0.932 -0.74,-1.948 -1.38,-3.796 -1.14,-3.276 -1.27,-7.12 -1.27,-7.12 -0.38,-1.188 1.31,-2.068 1.31,-2.068 z"
     id="path822" />
  <path
     style="fill:#231f20;fill-opacity:1;fill-rule:nonzero;stroke:none"
     d="m 273.31667,40.036001 c -0.05,-0.058 -0.1,-0.126 -0.14,-0.199 -0.14,-0.568 -0.3,-1.15 -0.51,-1.77 l -7.22,2.989 c -1.14,2.656 0.66,5.281 1.95,5.964 1.17,0.62 2.8,0.52 4.54,-0.948 1.12,-0.954 1.58,-2.235 1.57,-3.792 0.22,-1.016 0.33,-1.635 -0.19,-2.244"
     id="path823" />
  <path
     style="fill:none;stroke:#231f20;stroke-width:0.565977;stroke-linecap:butt;stroke-linejoin:miter;stroke-miterlimit:4;stroke-dasharray:none;stroke-opacity:1"
     d="m 273.31667,40.036001 c -0.05,-0.058 -0.1,-0.126 -0.14,-0.199 -0.14,-0.568 -0.3,-1.15 -0.51,-1.77 l -7.22,2.989 c -1.14,2.656 0.66,5.281 1.95,5.964 1.17,0.62 2.8,0.52 4.54,-0.948 1.12,-0.954 1.58,-2.235 1.57,-3.792 0.22,-1.016 0.33,-1.635 -0.19,-2.244 z"
     id="path824" />
  <path
     style="fill:#231f20;fill-opacity:1;fill-rule:nonzero;stroke:none"
     d="m 257.39667,8.8210012 c -0.78,1.11 -0.22,1.9339998 0.77,2.2189998 0.29,0.084 0.47,0.469 0.76,0.532 0.69,0.135 2.11,-0.885 1.55,-2.2809998 -0.03,-0.099 -0.08,-0.912 -0.22,-1.522 -0.28,-1.186 -1.4,-3.41 -3.96,-4.244 -1.22,-0.396 -1.22,0.391 -0.78,0.703 1.4,0.975 1.34,1.339 1.62,1.729 0.93,1.323 0.26,2.864 0.26,2.864"
     id="path825" />
  <path
     style="fill:none;stroke:#231f20;stroke-width:0.332927;stroke-linecap:butt;stroke-linejoin:miter;stroke-miterlimit:4;stroke-dasharray:none;stroke-opacity:1"
     d="m 257.39667,8.8210012 c -0.78,1.11 -0.22,1.9339998 0.77,2.2189998 0.29,0.084 0.47,0.469 0.76,0.532 0.69,0.135 2.11,-0.885 1.55,-2.2809998 -0.03,-0.099 -0.08,-0.912 -0.22,-1.522 -0.28,-1.186 -1.4,-3.41 -3.96,-4.244 -1.22,-0.396 -1.22,0.391 -0.78,0.703 1.4,0.975 1.34,1.339 1.62,1.729 0.93,1.323 0.26,2.864 0.26,2.864 z"
     id="path826" />
  <path
     style="fill:#231f20;fill-opacity:1;fill-rule:nonzero;stroke:none"
     d="m 294.35667,68.921001 c -0.27,-0.584 -2.05,-1.381 -3.15,-2.557 -0.75,-0.787 -3.28,-1.844 -3.97,-2.688 -0.62,-0.771 -0.98,-1.063 -1.98,-0.5 -0.6,0.333 -1.53,1.36 -1.3,1.822 0.54,1.063 1.26,1.672 2.2,2.178 1.07,0.578 4.11,1.885 4.69,2.073 1.45,0.463 1.86,1.077 2.24,1.233 0.7,0.303 0.98,0.11 1.28,-0.301 0.55,-0.781 -0.01,-1.26 -0.01,-1.26"
     id="path827" />
  <path
     style="fill:none;stroke:#231f20;stroke-width:0.565977;stroke-linecap:butt;stroke-linejoin:miter;stroke-miterlimit:4;stroke-dasharray:none;stroke-opacity:1"
     d="m 294.35667,68.921001 c -0.27,-0.584 -2.05,-1.381 -3.15,-2.557 -0.75,-0.787 -3.28,-1.844 -3.97,-2.688 -0.62,-0.771 -0.98,-1.063 -1.98,-0.5 -0.6,0.333 -1.53,1.36 -1.3,1.822 0.54,1.063 1.26,1.672 2.2,2.178 1.07,0.578 4.11,1.885 4.69,2.073 1.45,0.463 1.86,1.077 2.24,1.233 0.7,0.303 0.98,0.11 1.28,-0.301 0.55,-0.781 -0.01,-1.26 -0.01,-1.26 z"
     id="path828" />
  <path
     style="fill:#231f20;fill-opacity:1;fill-rule:nonzero;stroke:none"
     d="m 286.69667,64.077001 c 0.57,-1.172 -1.4,-1.713 -1.89,-1.932 -0.49,-0.224 -1.83,-1.016 -2.79,-1.772 -0.97,-0.755 -2.49,-1.28 -4.33,-2.708 -0.97,-0.755 -2.38,-0.875 -3.41,0.573 -1.02,1.427 -0.59,2.542 0.71,3.276 1.3,0.735 2.84,0.87 4.2,1.516 1.37,0.646 2.71,1.432 3.72,2.099 1.16,0.755 2.01,0.697 2.41,0.437 0.99,-0.661 1.38,-1.489 1.38,-1.489"
     id="path829" />
  <path
     style="fill:none;stroke:#231f20;stroke-width:0.565977;stroke-linecap:butt;stroke-linejoin:miter;stroke-miterlimit:4;stroke-dasharray:none;stroke-opacity:1"
     d="m 286.69667,64.077001 c 0.57,-1.172 -1.4,-1.713 -1.89,-1.932 -0.49,-0.224 -1.83,-1.016 -2.79,-1.772 -0.97,-0.755 -2.49,-1.28 -4.33,-2.708 -0.97,-0.755 -2.38,-0.875 -3.41,0.573 -1.02,1.427 -0.59,2.542 0.71,3.276 1.3,0.735 2.84,0.87 4.2,1.516 1.37,0.646 2.71,1.432 3.72,2.099 1.16,0.755 2.01,0.697 2.41,0.437 0.99,-0.661 1.38,-1.489 1.38,-1.489 z"
     id="path830" />
  <path
     style="fill:#231f20;fill-opacity:1;fill-rule:nonzero;stroke:none"
     d="m 299.61667,71.962001 c -0.43,-0.584 -3.14,-2.374 -3.78,-2.756 -0.57,-0.342 -1.32,-1.218 -2.28,-0.582 -0.4,0.254 -0.78,0.906 -0.87,1.218 -0.07,0.251 0.14,0.495 0.5,0.667 0.61,0.292 0.89,0.14 2.07,0.631 0,0 0.29,0.072 0.84,0.166 1.6,0.296 0.93,0.015 3.15,0.963 0.16,0.068 0.34,-0.041 0.38,-0.151 0.05,-0.172 -0.01,-0.156 -0.01,-0.156"
     id="path831" />
  <path
     style="fill:none;stroke:#231f20;stroke-width:0.565977;stroke-linecap:round;stroke-linejoin:round;stroke-miterlimit:4;stroke-dasharray:none;stroke-opacity:1"
     d="m 299.61667,71.962001 c -0.43,-0.584 -3.14,-2.374 -3.78,-2.756 -0.57,-0.342 -1.32,-1.218 -2.28,-0.582 -0.4,0.254 -0.78,0.906 -0.87,1.218 -0.07,0.251 0.14,0.495 0.5,0.667 0.61,0.292 0.89,0.14 2.07,0.631 0,0 0.29,0.072 0.84,0.166 1.6,0.296 0.93,0.015 3.15,0.963 0.16,0.068 0.34,-0.041 0.38,-0.151 0.05,-0.172 -0.01,-0.156 -0.01,-0.156 z"
     id="path832" />
</svg>
