<?xml version="1.0" encoding="UTF-8" standalone="no"?>
<!-- Created with Inkscape (http://www.inkscape.org/) -->

<svg
   version="1.1"
   id="svg1"
   width="336.45609"
   height="126.80162"
   viewBox="0 0 336.45607 126.80162"
   sodipodi:docname="cell.svg"
   xmlns:inkscape="http://www.inkscape.org/namespaces/inkscape"
   xmlns:sodipodi="http://sodipodi.sourceforge.net/DTD/sodipodi-0.dtd"
   xmlns="http://www.w3.org/2000/svg"
   xmlns:svg="http://www.w3.org/2000/svg">
  <sodipodi:namedview
     id="namedview1"
     pagecolor="#ffffff"
     bordercolor="#000000"
     borderopacity="0.25"
     inkscape:showpageshadow="2"
     inkscape:pageopacity="0.0"
     inkscape:pagecheckerboard="0"
     inkscape:deskcolor="#d1d1d1">
    <inkscape:page
       x="3.3934082e-08"
       y="3.6277353e-07"
       inkscape:label="1"
       id="page1"
       width="336.45609"
       height="126.80162"
       margin="0"
       bleed="0" />
  </sodipodi:namedview>
  <defs
     id="defs1" />
  <path
     style="fill:#231f20;fill-opacity:1;fill-rule:nonzero;stroke:none"
     d="m 145.03743,46.511655 c -0.885,-1.026 -1.819,-0.682 -2.333,0.214 -0.156,0.271 -0.563,0.338 -0.694,0.614 -0.296,0.641 0.355,2.256 1.844,2.057 0.104,-0.015 0.912,0.12 1.536,0.131 1.21,0.016 3.642,-0.536 5.058,-2.834 0.677,-1.082 -0.094,-1.281 -0.5,-0.926 -1.282,1.134 -1.615,0.989 -2.063,1.161 -1.504,0.599 -2.848,-0.417 -2.848,-0.417"
     id="path811" />
  <path
     style="fill:none;stroke:#231f20;stroke-width:0.332927;stroke-linecap:butt;stroke-linejoin:miter;stroke-miterlimit:4;stroke-dasharray:none;stroke-opacity:1"
     d="m 145.03743,46.511655 c -0.885,-1.026 -1.819,-0.682 -2.333,0.214 -0.156,0.271 -0.563,0.338 -0.694,0.614 -0.296,0.641 0.355,2.256 1.844,2.057 0.104,-0.015 0.912,0.12 1.536,0.131 1.21,0.016 3.642,-0.536 5.058,-2.834 0.677,-1.082 -0.094,-1.281 -0.5,-0.926 -1.282,1.134 -1.615,0.989 -2.063,1.161 -1.504,0.599 -2.848,-0.417 -2.848,-0.417 z"
     id="path812" />
  <path
     style="fill:#231f20;fill-opacity:1;fill-rule:nonzero;stroke:none"
     d="m 126.49443,49.319655 c -0.437,-2.224 -0.218,-2.714 0.71,-2.959 0.614,-0.167 1.129,-0.531 1.5,-0.651 1.233,-0.39 3.478,-0.541 9.942,0.687 1.468,0.281 3.531,0.657 4.386,0.74 1.349,0.141 0.208,2.287 -0.323,2.24 -1.709,-0.151 -2.896,-0.125 -3.521,-0.093 -0.427,0.02 -1.183,-0.048 -2.823,0.238 -2.489,0.438 -3.912,1.074 -6.027,1.194 -0.984,0.062 -1.681,0.724 -2.672,0.29 -0.994,-0.437 -1.172,-1.686 -1.172,-1.686"
     id="path813" />
  <path
     style="fill:none;stroke:#231f20;stroke-width:0.565977;stroke-linecap:butt;stroke-linejoin:miter;stroke-miterlimit:4;stroke-dasharray:none;stroke-opacity:1"
     d="m 126.49443,49.319655 c -0.437,-2.224 -0.218,-2.714 0.71,-2.959 0.614,-0.167 1.129,-0.531 1.5,-0.651 1.233,-0.39 3.478,-0.541 9.942,0.687 1.468,0.281 3.531,0.657 4.386,0.74 1.349,0.141 0.208,2.287 -0.323,2.24 -1.709,-0.151 -2.896,-0.125 -3.521,-0.093 -0.427,0.02 -1.183,-0.048 -2.823,0.238 -2.489,0.438 -3.912,1.074 -6.027,1.194 -0.984,0.062 -1.681,0.724 -2.672,0.29 -0.994,-0.437 -1.172,-1.686 -1.172,-1.686 z"
     id="path814" />
  <path
     style="fill:#0098c9;fill-opacity:1;fill-rule:nonzero;stroke:none"
     d="m 100.44843,47.761655 c 3.13,-0.089 3.792,-0.453 4.63,-0.838 5.25,-2.422 6.339,0.202 5.896,3.052 -0.51,3.354 -0.625,4.562 -6.912,4.15 -1.744,-0.124 -8.504997,0.308 -8.504997,0.308 -2.4,0.484 -4.995,-0.328 -5.848,-1.51 -0.896,-1.246 -0.448,-0.818 -1.073,-2.12 -0.588,-1.244 -0.402,-3.422 0.609,-4.135 0.964,-0.688 2.489,-0.011 4.812,0.676 1.833,0.537 6.390997,0.417 6.390997,0.417"
     id="path815" />
  <path
     style="fill:none;stroke:#231f20;stroke-width:0.565977;stroke-linecap:butt;stroke-linejoin:miter;stroke-miterlimit:4;stroke-dasharray:none;stroke-opacity:1"
     d="m 100.44843,47.761655 c 3.13,-0.089 3.792,-0.453 4.63,-0.838 5.25,-2.422 6.339,0.202 5.896,3.052 -0.51,3.354 -0.625,4.562 -6.912,4.15 -1.744,-0.124 -8.504997,0.308 -8.504997,0.308 -2.4,0.484 -4.995,-0.328 -5.848,-1.51 -0.896,-1.246 -0.448,-0.818 -1.073,-2.12 -0.588,-1.244 -0.402,-3.422 0.609,-4.135 0.964,-0.688 2.489,-0.011 4.812,0.676 1.833,0.537 6.390997,0.417 6.390997,0.417 z"
     id="path816" />
  <path
     style="fill:#ffffff;fill-opacity:1;fill-rule:nonzero;stroke:none"
     d="m 83.245433,53.756655 c -0.235,0.063 -0.224,1.213 -0.745,1.255 -0.52,0.048 -0.782,-0.698 -2.646,-1.395 l -0.021,-0.005 c -1.38,-0.464 -2.385,-1.423 -2.593,-2.658 -0.344,-2.052 1.641,-4.082 4.426,-4.552 2.787,-0.462 5.319,0.824 5.662,2.876 0.329,1.958 -1.479,3.911 -4.083,4.479"
     id="path817" />
  <path
     style="fill:none;stroke:#231f20;stroke-width:0.565977;stroke-linecap:butt;stroke-linejoin:miter;stroke-miterlimit:4;stroke-dasharray:none;stroke-opacity:1"
     d="m 83.245433,53.756655 c -0.235,0.063 -0.224,1.213 -0.745,1.255 -0.52,0.048 -0.782,-0.698 -2.646,-1.395 l -0.021,-0.005 c -1.38,-0.464 -2.385,-1.423 -2.593,-2.658 -0.344,-2.052 1.641,-4.082 4.426,-4.552 2.787,-0.462 5.319,0.824 5.662,2.876 0.329,1.958 -1.479,3.911 -4.083,4.479 z"
     id="path818" />
  <path
     style="fill:#231f20;fill-opacity:1;fill-rule:nonzero;stroke:none"
     d="m 128.74543,48.303655 c 1.109,3.854 -2.901,3.104 -3.36,3.234 -4.812,1.407 -5.192,1.386 -8.927,2.198 -5.401,1.172 -9.281,1.152 -10.885,-1.791 -1.083,-2 -0.844,-3.62 0,-4.631 0.932,-1.12 3.865,-2.349 6.235,-0.693 l 1.708,0.1 c 1.161,-0.084 1.734,-0.115 2.302,-0.204 0.995,-0.151 2.063,-0.255 4.01,-0.437 3.458,-0.334 7.22,0.453 7.22,0.453 1.238,-0.093 1.697,1.771 1.697,1.771"
     id="path819" />
  <path
     style="fill:none;stroke:#231f20;stroke-width:0.565977;stroke-linecap:butt;stroke-linejoin:miter;stroke-miterlimit:4;stroke-dasharray:none;stroke-opacity:1"
     d="m 128.74543,48.303655 c 1.109,3.854 -2.901,3.104 -3.36,3.234 -4.812,1.407 -5.192,1.386 -8.927,2.198 -5.401,1.172 -9.281,1.152 -10.885,-1.791 -1.083,-2 -0.844,-3.62 0,-4.631 0.932,-1.12 3.865,-2.349 6.235,-0.693 l 1.708,0.1 c 1.161,-0.084 1.734,-0.115 2.302,-0.204 0.995,-0.151 2.063,-0.255 4.01,-0.437 3.458,-0.334 7.22,0.453 7.22,0.453 1.238,-0.093 1.697,1.771 1.697,1.771 z"
     id="path820" />
  <path
     style="fill:#0098c9;fill-opacity:1;fill-rule:nonzero;stroke:none"
     d="m 112.39043,55.005655 -0.15,-7.817 c -2.058,-2.025 -5.156,-1.301 -6.266,-0.353 -1,0.858 -1.505,2.416 -0.765,4.566 0.479,1.391 1.505,2.292 2.952,2.85 0.86,0.578 1.401,0.906 2.163,0.641 0.066,-0.027 0.145,-0.043 0.224,-0.057 0.577,0.077 1.181,0.14 1.842,0.17"
     id="path821" />
  <path
     style="fill:none;stroke:#231f20;stroke-width:0.565977;stroke-linecap:butt;stroke-linejoin:miter;stroke-miterlimit:4;stroke-dasharray:none;stroke-opacity:1"
     d="m 112.39043,55.005655 -0.15,-7.817 c -2.058,-2.025 -5.156,-1.301 -6.266,-0.353 -1,0.858 -1.505,2.416 -0.765,4.566 0.479,1.391 1.505,2.292 2.952,2.85 0.86,0.578 1.401,0.906 2.163,0.641 0.066,-0.027 0.145,-0.043 0.224,-0.057 0.577,0.077 1.181,0.14 1.842,0.17 z"
     id="path822" />
  <path
     style="fill:#231f20;fill-opacity:1;fill-rule:nonzero;stroke:none"
     d="m 70.844433,47.480655 c 0.48,0.432 2.427,0.464 3.901,1.104 0.995,0.432 3.74,0.407 4.703,0.912 0.876,0.457 1.324,0.588 2.021,-0.323 0.416,-0.542 0.869,-1.854 0.479,-2.182 -0.911,-0.771 -1.818,-1.047 -2.88,-1.142 -1.214,-0.109 -4.52,-0.109 -5.135,-0.057 -1.516,0.152 -2.13,-0.249 -2.537,-0.249 -0.76,-0.006 -0.948,0.292 -1.057,0.781 -0.203,0.937 0.505,1.156 0.505,1.156"
     id="path823" />
  <path
     style="fill:none;stroke:#231f20;stroke-width:0.565977;stroke-linecap:butt;stroke-linejoin:miter;stroke-miterlimit:4;stroke-dasharray:none;stroke-opacity:1"
     d="m 70.844433,47.480655 c 0.48,0.432 2.427,0.464 3.901,1.104 0.995,0.432 3.74,0.407 4.703,0.912 0.876,0.457 1.324,0.588 2.021,-0.323 0.416,-0.542 0.869,-1.854 0.479,-2.182 -0.911,-0.771 -1.818,-1.047 -2.88,-1.142 -1.214,-0.109 -4.52,-0.109 -5.135,-0.057 -1.516,0.152 -2.13,-0.249 -2.537,-0.249 -0.76,-0.006 -0.948,0.292 -1.057,0.781 -0.203,0.937 0.505,1.156 0.505,1.156 z"
     id="path824" />
  <path
     style="fill:#231f20;fill-opacity:1;fill-rule:nonzero;stroke:none"
     d="m 79.792433,48.912655 c -0.068,1.297 1.953,1.021 2.489,1.032 0.547,0.009 2.089,0.213 3.271,0.525 1.188,0.314 2.797,0.194 5.048,0.787 1.181,0.307 2.53,-0.136 2.905,-1.875 0.371,-1.713 -0.453,-2.568 -1.943,-2.724 -1.484,-0.161 -2.953,0.318 -4.462,0.26 -1.511,-0.057 -3.043,-0.249 -4.24,-0.464 -1.36,-0.244 -2.126,0.147 -2.386,0.548 -0.65,1 -0.682,1.911 -0.682,1.911"
     id="path825" />
  <path
     style="fill:none;stroke:#231f20;stroke-width:0.565977;stroke-linecap:butt;stroke-linejoin:miter;stroke-miterlimit:4;stroke-dasharray:none;stroke-opacity:1"
     d="m 79.792433,48.912655 c -0.068,1.297 1.953,1.021 2.489,1.032 0.547,0.009 2.089,0.213 3.271,0.525 1.188,0.314 2.797,0.194 5.048,0.787 1.181,0.307 2.53,-0.136 2.905,-1.875 0.371,-1.713 -0.453,-2.568 -1.943,-2.724 -1.484,-0.161 -2.953,0.318 -4.462,0.26 -1.511,-0.057 -3.043,-0.249 -4.24,-0.464 -1.36,-0.244 -2.126,0.147 -2.386,0.548 -0.65,1 -0.682,1.911 -0.682,1.911 z"
     id="path826" />
  <path
     style="fill:#0098c9;fill-opacity:1;fill-rule:nonzero;stroke:none"
     d="m 318.18743,68.892655 c 0.042,3.129 0.396,3.801 0.766,4.645 2.344,5.281999 -0.296,6.333999 -3.135,5.849999 -3.344,-0.563 -4.552,-0.699 -4.047,-6.974999 0.151,-1.744 -0.182,-8.511 -0.182,-8.511 -0.443,-2.405 0.405,-4.994 1.598,-5.828 1.26,-0.874 0.828,-0.432 2.14,-1.036 1.251,-0.573 3.428,-0.349 4.126,0.672 0.672,0.974 -0.026,2.49 -0.75,4.802 -0.568,1.824 -0.516,6.381 -0.516,6.381"
     id="path827" />
  <path
     style="fill:none;stroke:#231f20;stroke-width:0.565977;stroke-linecap:butt;stroke-linejoin:miter;stroke-miterlimit:4;stroke-dasharray:none;stroke-opacity:1"
     d="m 318.18743,68.892655 c 0.042,3.129 0.396,3.801 0.766,4.645 2.344,5.281999 -0.296,6.333999 -3.135,5.849999 -3.344,-0.563 -4.552,-0.699 -4.047,-6.974999 0.151,-1.744 -0.182,-8.511 -0.182,-8.511 -0.443,-2.405 0.405,-4.994 1.598,-5.828 1.26,-0.874 0.828,-0.432 2.14,-1.036 1.251,-0.573 3.428,-0.349 4.126,0.672 0.672,0.974 -0.026,2.49 -0.75,4.802 -0.568,1.824 -0.516,6.381 -0.516,6.381 z"
     id="path828" />
  <path
     style="fill:#231f20;fill-opacity:1;fill-rule:nonzero;stroke:none"
     d="m 3.8394329,119.07365 c 1.338,-0.186 1.557,-1.15 1.084,-2.072 -0.142,-0.276 0.02,-0.662 -0.136,-0.917 -0.375,-0.593 -2.088,-0.927 -2.73,0.427 -0.041,0.094 -0.598,0.698 -0.942,1.214 -0.67600003,1.01 -1.53600003,3.348 -0.38000003,5.791 0.54100003,1.152 1.12500003,0.615 1.04600003,0.084 -0.249,-1.693 0.052,-1.891 0.152,-2.36 0.318,-1.593 1.906,-2.167 1.906,-2.167"
     id="path829" />
  <path
     style="fill:none;stroke:#231f20;stroke-width:0.332927;stroke-linecap:butt;stroke-linejoin:miter;stroke-miterlimit:4;stroke-dasharray:none;stroke-opacity:1"
     d="m 3.8394329,119.07365 c 1.338,-0.186 1.557,-1.15 1.084,-2.072 -0.142,-0.276 0.02,-0.662 -0.136,-0.917 -0.375,-0.593 -2.088,-0.927 -2.73,0.427 -0.041,0.094 -0.598,0.698 -0.942,1.214 -0.67600003,1.01 -1.53600003,3.348 -0.38000003,5.791 0.54100003,1.152 1.12500003,0.615 1.04600003,0.084 -0.249,-1.693 0.052,-1.891 0.152,-2.36 0.318,-1.593 1.906,-2.167 1.906,-2.167 z"
     id="path830" />
  <path
     style="fill:#231f20;fill-opacity:1;fill-rule:nonzero;stroke:none"
     d="m 11.573433,101.99165 c 2.099,0.849 2.396,1.296 2.099,2.202 -0.197,0.61 -0.172,1.24 -0.276,1.615 -0.344,1.251 -1.437,3.213 -5.9840001,7.969 -1.036,1.078 -2.475,2.599 -3.011,3.276 -0.853,1.052 -2.03,-1.078 -1.702,-1.494 1.057,-1.35 1.677,-2.355 1.994,-2.896 0.214,-0.371 0.688,-0.97 1.339,-2.506 0.984,-2.328 1.229,-3.865 2.2759998,-5.704 0.484,-0.853 0.307,-1.801 1.213,-2.394 0.9070003,-0.606 2.0520003,-0.068 2.0520003,-0.068"
     id="path831" />
  <path
     style="fill:none;stroke:#231f20;stroke-width:0.565977;stroke-linecap:butt;stroke-linejoin:miter;stroke-miterlimit:4;stroke-dasharray:none;stroke-opacity:1"
     d="m 11.573433,101.99165 c 2.099,0.849 2.396,1.296 2.099,2.202 -0.197,0.61 -0.172,1.24 -0.276,1.615 -0.344,1.251 -1.437,3.213 -5.9840001,7.969 -1.036,1.078 -2.475,2.599 -3.011,3.276 -0.853,1.052 -2.03,-1.078 -1.702,-1.494 1.057,-1.35 1.677,-2.355 1.994,-2.896 0.214,-0.371 0.688,-0.97 1.339,-2.506 0.984,-2.328 1.229,-3.865 2.2759998,-5.704 0.484,-0.853 0.307,-1.801 1.213,-2.394 0.9070003,-0.606 2.0520003,-0.068 2.0520003,-0.068 z"
     id="path832" />
  <path
     style="fill:#0098c9;fill-opacity:1;fill-rule:nonzero;stroke:none"
     d="m 24.636433,78.527654 c -0.437,3.104 -0.193,3.817 0.047,4.708 1.5,5.578 -1.266,6.214 -4,5.297 -3.219,-1.068 -4.391,-1.385 -2.927,-7.511 0.411,-1.702 1.125,-8.436999 1.125,-8.436999 -0.068,-2.448 1.171,-4.869 2.479,-5.511 1.38,-0.677 0.88,-0.306 2.271,-0.697 1.322,-0.375 3.437,0.177 3.973,1.292 0.511,1.072 -0.411,2.457 -1.479,4.635 -0.844,1.713 -1.489,6.223999 -1.489,6.223999"
     id="path833" />
  <path
     style="fill:none;stroke:#231f20;stroke-width:0.565977;stroke-linecap:butt;stroke-linejoin:miter;stroke-miterlimit:4;stroke-dasharray:none;stroke-opacity:1"
     d="m 24.636433,78.527654 c -0.437,3.104 -0.193,3.817 0.047,4.708 1.5,5.578 -1.266,6.214 -4,5.297 -3.219,-1.068 -4.391,-1.385 -2.927,-7.511 0.411,-1.702 1.125,-8.436999 1.125,-8.436999 -0.068,-2.448 1.171,-4.869 2.479,-5.511 1.38,-0.677 0.88,-0.306 2.271,-0.697 1.322,-0.375 3.437,0.177 3.973,1.292 0.511,1.072 -0.411,2.457 -1.479,4.635 -0.844,1.713 -1.489,6.223999 -1.489,6.223999 z"
     id="path834" />
  <path
     style="fill:#ffffff;fill-opacity:1;fill-rule:nonzero;stroke:none"
     d="m 21.625433,60.563655 c -0.025,-0.244 -1.161,-0.427 -1.114,-0.947 0.046,-0.521 0.822,-0.657 1.822,-2.376 l 0.011,-0.02 c 0.688,-1.276 1.803,-2.109 3.057,-2.104 2.079,0.009 3.751,2.307 3.735,5.124 -0.011,2.828 -1.703,5.109 -3.781,5.099 -1.984,-0.004 -3.61,-2.114 -3.73,-4.776"
     id="path835" />
  <path
     style="fill:none;stroke:#231f20;stroke-width:0.565977;stroke-linecap:butt;stroke-linejoin:miter;stroke-miterlimit:4;stroke-dasharray:none;stroke-opacity:1"
     d="m 21.625433,60.563655 c -0.025,-0.244 -1.161,-0.427 -1.114,-0.947 0.046,-0.521 0.822,-0.657 1.822,-2.376 l 0.011,-0.02 c 0.688,-1.276 1.803,-2.109 3.057,-2.104 2.079,0.009 3.751,2.307 3.735,5.124 -0.011,2.828 -1.703,5.109 -3.781,5.099 -1.984,-0.004 -3.61,-2.114 -3.73,-4.776 z"
     id="path836" />
  <path
     style="fill:#231f20;fill-opacity:1;fill-rule:nonzero;stroke:none"
     d="m 11.199433,104.43365 c -3.8340001,-1.166 -1.022,-4.125 -0.886,-4.583996 1.443,-4.796 1.667,-5.104 3.02,-8.681 1.954,-5.172 4.09,-8.412 7.428,-8.152 2.266,0.177 3.495,1.261 3.886,2.516 0.426,1.396 -0.136,4.521 -2.819,5.609 l -1.009,1.38 c -0.563,1.016 -0.844,1.516 -1.084,2.042 -0.411,0.917 -0.907,1.865 -1.812,3.605 -1.61,3.076996 -4.314,5.806996 -4.314,5.806996 -0.598,1.093 -2.41,0.458 -2.41,0.458"
     id="path837" />
  <path
     style="fill:none;stroke:#231f20;stroke-width:0.565977;stroke-linecap:butt;stroke-linejoin:miter;stroke-miterlimit:4;stroke-dasharray:none;stroke-opacity:1"
     d="m 11.199433,104.43365 c -3.8340001,-1.166 -1.022,-4.125 -0.886,-4.583996 1.443,-4.796 1.667,-5.104 3.02,-8.681 1.954,-5.172 4.09,-8.412 7.428,-8.152 2.266,0.177 3.495,1.261 3.886,2.516 0.426,1.396 -0.136,4.521 -2.819,5.609 l -1.009,1.38 c -0.563,1.016 -0.844,1.516 -1.084,2.042 -0.411,0.917 -0.907,1.865 -1.812,3.605 -1.61,3.076996 -4.314,5.806996 -4.314,5.806996 -0.598,1.093 -2.41,0.458 -2.41,0.458 z"
     id="path838" />
  <path
     style="fill:#0098c9;fill-opacity:1;fill-rule:nonzero;stroke:none"
     d="m 24.828433,86.131654 c -0.176,-1.307 -1.208,-2.578 -3.411,-3.13 -1.432,-0.354 -2.745,0.015 -4,0.927 -0.958,0.407 -1.526,0.683 -1.713,1.468 -0.016,0.068 -0.047,0.141 -0.073,0.215 -0.386,0.442 -0.766,0.916 -1.151,1.452 l 6.64,4.13 c 2.817,-0.625 3.896,-3.614 3.708,-5.062"
     id="path839" />
  <path
     style="fill:none;stroke:#231f20;stroke-width:0.565977;stroke-linecap:butt;stroke-linejoin:miter;stroke-miterlimit:4;stroke-dasharray:none;stroke-opacity:1"
     d="m 24.828433,86.131654 c -0.176,-1.307 -1.208,-2.578 -3.411,-3.13 -1.432,-0.354 -2.745,0.015 -4,0.927 -0.958,0.407 -1.526,0.683 -1.713,1.468 -0.016,0.068 -0.047,0.141 -0.073,0.215 -0.386,0.442 -0.766,0.916 -1.151,1.452 l 6.64,4.13 c 2.817,-0.625 3.896,-3.614 3.708,-5.062 z"
     id="path840" />
  <path
     style="fill:#231f20;fill-opacity:1;fill-rule:nonzero;stroke:none"
     d="m 29.901433,49.396655 c -0.505,0.396 -0.864,2.313 -1.744,3.657 -0.594,0.911 -1.032,3.619 -1.693,4.479 -0.599,0.792 -0.803,1.213 -0.021,2.052 0.464,0.5 1.682,1.167 2.073,0.839 0.912,-0.771 1.333,-1.615 1.609,-2.646 0.308,-1.177 0.866,-4.442 0.918,-5.052 0.109,-1.521 0.609,-2.057 0.676,-2.458 0.13,-0.751 -0.124,-0.984 -0.594,-1.178 -0.885,-0.354 -1.224,0.307 -1.224,0.307"
     id="path841" />
  <path
     style="fill:none;stroke:#231f20;stroke-width:0.565977;stroke-linecap:butt;stroke-linejoin:miter;stroke-miterlimit:4;stroke-dasharray:none;stroke-opacity:1"
     d="m 29.901433,49.396655 c -0.505,0.396 -0.864,2.313 -1.744,3.657 -0.594,0.911 -1.032,3.619 -1.693,4.479 -0.599,0.792 -0.803,1.213 -0.021,2.052 0.464,0.5 1.682,1.167 2.073,0.839 0.912,-0.771 1.333,-1.615 1.609,-2.646 0.308,-1.177 0.866,-4.442 0.918,-5.052 0.109,-1.521 0.609,-2.057 0.676,-2.458 0.13,-0.751 -0.124,-0.984 -0.594,-1.178 -0.885,-0.354 -1.224,0.307 -1.224,0.307 z"
     id="path842" />
  <path
     style="fill:#231f20;fill-opacity:1;fill-rule:nonzero;stroke:none"
     d="m 26.980433,57.969655 c -1.265,-0.281 -1.333,1.756 -1.437,2.287 -0.1,0.536 -0.558,2.021 -1.068,3.136 -0.506,1.115 -0.662,2.719 -1.626,4.837 -0.505,1.115 -0.292,2.522 1.36,3.183 1.624,0.656 2.61,-0.016 3.015,-1.453 0.412,-1.443 0.183,-2.963 0.495,-4.448 0.308,-1.474 0.761,-2.958 1.172,-4.099 0.469,-1.301 0.214,-2.12 -0.135,-2.443 -0.88,-0.812 -1.776,-1 -1.776,-1"
     id="path843" />
  <path
     style="fill:none;stroke:#231f20;stroke-width:0.565977;stroke-linecap:butt;stroke-linejoin:miter;stroke-miterlimit:4;stroke-dasharray:none;stroke-opacity:1"
     d="m 26.980433,57.969655 c -1.265,-0.281 -1.333,1.756 -1.437,2.287 -0.1,0.536 -0.558,2.021 -1.068,3.136 -0.506,1.115 -0.662,2.719 -1.626,4.837 -0.505,1.115 -0.292,2.522 1.36,3.183 1.624,0.656 2.61,-0.016 3.015,-1.453 0.412,-1.443 0.183,-2.963 0.495,-4.448 0.308,-1.474 0.761,-2.958 1.172,-4.099 0.469,-1.301 0.214,-2.12 -0.135,-2.443 -0.88,-0.812 -1.776,-1 -1.776,-1 z"
     id="path844" />
  <path
     style="fill:#231f20;fill-opacity:1;fill-rule:nonzero;stroke:none"
     d="m 71.412433,121.03765 c 0.921,-0.989 0.484,-1.88 -0.464,-2.297 -0.281,-0.124 -0.396,-0.525 -0.681,-0.624 -0.667,-0.224 -2.21,0.593 -1.85,2.052 0.026,0.099 -0.026,0.916 0.031,1.536 0.109,1.208 0.923,3.568 3.355,4.74 1.145,0.552 1.26,-0.235 0.864,-0.6 -1.266,-1.156 -1.151,-1.505 -1.37,-1.927 -0.754,-1.437 0.115,-2.88 0.115,-2.88"
     id="path845" />
  <path
     style="fill:none;stroke:#231f20;stroke-width:0.332927;stroke-linecap:butt;stroke-linejoin:miter;stroke-miterlimit:4;stroke-dasharray:none;stroke-opacity:1"
     d="m 71.412433,121.03765 c 0.921,-0.989 0.484,-1.88 -0.464,-2.297 -0.281,-0.124 -0.396,-0.525 -0.681,-0.624 -0.667,-0.224 -2.21,0.593 -1.85,2.052 0.026,0.099 -0.026,0.916 0.031,1.536 0.109,1.208 0.923,3.568 3.355,4.74 1.145,0.552 1.26,-0.235 0.864,-0.6 -1.266,-1.156 -1.151,-1.505 -1.37,-1.927 -0.754,-1.437 0.115,-2.88 0.115,-2.88 z"
     id="path846" />
  <path
     style="fill:#231f20;fill-opacity:1;fill-rule:nonzero;stroke:none"
     d="m 66.652433,102.90165 c 2.167,-0.672 2.676,-0.509 3.02,0.386 0.229,0.594 0.647,1.068 0.803,1.422 0.52,1.187 0.91,3.402 0.374,9.963 -0.125,1.485 -0.281,3.579 -0.276,4.439 0.006,1.353 -2.254,0.448 -2.26,-0.084 -0.026,-1.719 -0.182,-2.891 -0.276,-3.506 -0.068,-0.426 -0.078,-1.186 -0.542,-2.792 -0.698,-2.426 -1.479,-3.776 -1.823,-5.864 -0.161,-0.969 -0.9,-1.593 -0.567,-2.625 0.318,-1.036 1.547,-1.339 1.547,-1.339"
     id="path847" />
  <path
     style="fill:none;stroke:#231f20;stroke-width:0.565977;stroke-linecap:butt;stroke-linejoin:miter;stroke-miterlimit:4;stroke-dasharray:none;stroke-opacity:1"
     d="m 66.652433,102.90165 c 2.167,-0.672 2.676,-0.509 3.02,0.386 0.229,0.594 0.647,1.068 0.803,1.422 0.52,1.187 0.91,3.402 0.374,9.963 -0.125,1.485 -0.281,3.579 -0.276,4.439 0.006,1.353 -2.254,0.448 -2.26,-0.084 -0.026,-1.719 -0.182,-2.891 -0.276,-3.506 -0.068,-0.426 -0.078,-1.186 -0.542,-2.792 -0.698,-2.426 -1.479,-3.776 -1.823,-5.864 -0.161,-0.969 -0.9,-1.593 -0.567,-2.625 0.318,-1.036 1.547,-1.339 1.547,-1.339 z"
     id="path848" />
  <path
     style="fill:#0098c9;fill-opacity:1;fill-rule:nonzero;stroke:none"
     d="m 63.391433,76.308655 c 1.198,2.900999 1.77,3.384999 2.433,4.030999 4.129,4.048 2.067,6 -0.756,6.6 -3.312,0.713 -4.489,1.036 -6.339,-4.99 -0.505,-1.672 -3.312,-7.837999 -3.312,-7.837999 -1.302,-2.068 -1.469,-4.787 -0.666,-6 0.844,-1.287 0.604,-0.715 1.598,-1.756 0.954,-1 3.058,-1.594 4.084,-0.906 0.984,0.662 0.895,2.328 1.078,4.739 0.146,1.907 1.88,6.12 1.88,6.12"
     id="path849" />
  <path
     style="fill:none;stroke:#231f20;stroke-width:0.565977;stroke-linecap:butt;stroke-linejoin:miter;stroke-miterlimit:4;stroke-dasharray:none;stroke-opacity:1"
     d="m 63.391433,76.308655 c 1.198,2.900999 1.77,3.384999 2.433,4.030999 4.129,4.048 2.067,6 -0.756,6.6 -3.312,0.713 -4.489,1.036 -6.339,-4.99 -0.505,-1.672 -3.312,-7.837999 -3.312,-7.837999 -1.302,-2.068 -1.469,-4.787 -0.666,-6 0.844,-1.287 0.604,-0.715 1.598,-1.756 0.954,-1 3.058,-1.594 4.084,-0.906 0.984,0.662 0.895,2.328 1.078,4.739 0.146,1.907 1.88,6.12 1.88,6.12 z"
     id="path850" />
  <path
     style="fill:#ffffff;fill-opacity:1;fill-rule:nonzero;stroke:none"
     d="m 51.677433,62.365655 c -0.145,-0.197 -1.218,0.224 -1.442,-0.249 -0.23,-0.475 0.369,-0.985 0.36,-2.975 v -0.021 c -0.052,-1.448 0.478,-2.733 1.562,-3.364 1.796,-1.052 4.4,0.079 5.823,2.516 1.427,2.443 1.125,5.265 -0.667,6.312 -1.713,1.005 -4.182,0.011 -5.636,-2.219"
     id="path851" />
  <path
     style="fill:none;stroke:#231f20;stroke-width:0.565977;stroke-linecap:butt;stroke-linejoin:miter;stroke-miterlimit:4;stroke-dasharray:none;stroke-opacity:1"
     d="m 51.677433,62.365655 c -0.145,-0.197 -1.218,0.224 -1.442,-0.249 -0.23,-0.475 0.369,-0.985 0.36,-2.975 v -0.021 c -0.052,-1.448 0.478,-2.733 1.562,-3.364 1.796,-1.052 4.4,0.079 5.823,2.516 1.427,2.443 1.125,5.265 -0.667,6.312 -1.713,1.005 -4.182,0.011 -5.636,-2.219 z"
     id="path852" />
  <path
     style="fill:#231f20;fill-opacity:1;fill-rule:nonzero;stroke:none"
     d="m 67.901433,105.03265 c -3.713,1.511 -3.39,-2.563 -3.573,-3.005 -1.905,-4.634996 -1.927,-5.015996 -3.129,-8.639996 -1.74,-5.251 -2.126,-9.11 0.629,-11.011 1.871,-1.292 3.511,-1.229 4.605,-0.5 1.208,0.817 2.739,3.599 1.343,6.135 l 0.089,1.709 c 0.203,1.14 0.296,1.708 0.448,2.265 0.255,0.968 0.468,2.02 0.859,3.943 0.693,3.401 0.313,7.223996 0.313,7.223996 0.224,1.229 -1.584,1.88 -1.584,1.88"
     id="path853" />
  <path
     style="fill:none;stroke:#231f20;stroke-width:0.565977;stroke-linecap:butt;stroke-linejoin:miter;stroke-miterlimit:4;stroke-dasharray:none;stroke-opacity:1"
     d="m 67.901433,105.03265 c -3.713,1.511 -3.39,-2.563 -3.573,-3.005 -1.905,-4.634996 -1.927,-5.015996 -3.129,-8.639996 -1.74,-5.251 -2.126,-9.11 0.629,-11.011 1.871,-1.292 3.511,-1.229 4.605,-0.5 1.208,0.817 2.739,3.599 1.343,6.135 l 0.089,1.709 c 0.203,1.14 0.296,1.708 0.448,2.265 0.255,0.968 0.468,2.02 0.859,3.943 0.693,3.401 0.313,7.223996 0.313,7.223996 0.224,1.229 -1.584,1.88 -1.584,1.88 z"
     id="path854" />
  <path
     style="fill:#0098c9;fill-opacity:1;fill-rule:nonzero;stroke:none"
     d="m 66.948433,82.229654 c -0.957,-0.905 -2.563,-1.238 -4.62,-0.28 -1.333,0.624 -2.119,1.739 -2.52,3.244 -0.484,0.918 -0.756,1.484 -0.407,2.214 0.032,0.068 0.058,0.141 0.079,0.218 -0.016,0.584 -0.016,1.194 0.025,1.85 l 7.756,-0.979 c 1.796,-2.261 0.75,-5.261 -0.313,-6.267"
     id="path855" />
  <path
     style="fill:none;stroke:#231f20;stroke-width:0.565977;stroke-linecap:butt;stroke-linejoin:miter;stroke-miterlimit:4;stroke-dasharray:none;stroke-opacity:1"
     d="m 66.948433,82.229654 c -0.957,-0.905 -2.563,-1.238 -4.62,-0.28 -1.333,0.624 -2.119,1.739 -2.52,3.244 -0.484,0.918 -0.756,1.484 -0.407,2.214 0.032,0.068 0.058,0.141 0.079,0.218 -0.016,0.584 -0.016,1.194 0.025,1.85 l 7.756,-0.979 c 1.796,-2.261 0.75,-5.261 -0.313,-6.267 z"
     id="path856" />
  <path
     style="fill:#231f20;fill-opacity:1;fill-rule:nonzero;stroke:none"
     d="m 53.131433,48.543655 c -0.235,0.598 0.426,2.432 0.354,4.036 -0.052,1.084 0.954,3.641 0.823,4.718 -0.12,0.986 -0.084,1.448 1.02,1.776 0.652,0.199 2.037,0.152 2.209,-0.333 0.396,-1.12 0.334,-2.068 0.042,-3.093 -0.334,-1.172 -1.506,-4.266 -1.776,-4.812 -0.678,-1.366 -0.522,-2.09 -0.667,-2.47 -0.265,-0.708 -0.609,-0.786 -1.104,-0.708 -0.948,0.146 -0.901,0.886 -0.901,0.886"
     id="path857" />
  <path
     style="fill:none;stroke:#231f20;stroke-width:0.565977;stroke-linecap:butt;stroke-linejoin:miter;stroke-miterlimit:4;stroke-dasharray:none;stroke-opacity:1"
     d="m 53.131433,48.543655 c -0.235,0.598 0.426,2.432 0.354,4.036 -0.052,1.084 0.954,3.641 0.823,4.718 -0.12,0.986 -0.084,1.448 1.02,1.776 0.652,0.199 2.037,0.152 2.209,-0.333 0.396,-1.12 0.334,-2.068 0.042,-3.093 -0.334,-1.172 -1.506,-4.266 -1.776,-4.812 -0.678,-1.366 -0.522,-2.09 -0.667,-2.47 -0.265,-0.708 -0.609,-0.786 -1.104,-0.708 -0.948,0.146 -0.901,0.886 -0.901,0.886 z"
     id="path858" />
  <path
     style="fill:#231f20;fill-opacity:1;fill-rule:nonzero;stroke:none"
     d="m 54.969433,57.412655 c -1.234,0.401 -0.26,2.193 -0.078,2.699 0.188,0.509 0.548,2.025 0.672,3.244 0.13,1.213 0.813,2.682 1.062,4.994 0.131,1.214 1.027,2.319 2.782,2.047 1.74,-0.26 2.24,-1.333 1.864,-2.78 -0.38,-1.448 -1.348,-2.647 -1.832,-4.084 -0.491,-1.427 -0.85,-2.932 -1.074,-4.125 -0.26,-1.359 -0.896,-1.932 -1.36,-2.036 -1.172,-0.255 -2.036,0.041 -2.036,0.041"
     id="path859" />
  <path
     style="fill:none;stroke:#231f20;stroke-width:0.565977;stroke-linecap:butt;stroke-linejoin:miter;stroke-miterlimit:4;stroke-dasharray:none;stroke-opacity:1"
     d="m 54.969433,57.412655 c -1.234,0.401 -0.26,2.193 -0.078,2.699 0.188,0.509 0.548,2.025 0.672,3.244 0.13,1.213 0.813,2.682 1.062,4.994 0.131,1.214 1.027,2.319 2.782,2.047 1.74,-0.26 2.24,-1.333 1.864,-2.78 -0.38,-1.448 -1.348,-2.647 -1.832,-4.084 -0.491,-1.427 -0.85,-2.932 -1.074,-4.125 -0.26,-1.359 -0.896,-1.932 -1.36,-2.036 -1.172,-0.255 -2.036,0.041 -2.036,0.041 z"
     id="path860" />
  <path
     style="fill:#ffffff;fill-opacity:1;fill-rule:nonzero;stroke:none"
     d="m 204.28143,56.308655 c 1.417,-1.771 1.928,-1.927 2.713,-1.375 0.527,0.364 1.142,0.52 1.47,0.73 1.098,0.686 2.661,2.301 5.906,8.03 0.729,1.298 1.771,3.115 2.265,3.828 0.76,1.12 -1.614,1.636 -1.921,1.199 -0.985,-1.407 -1.772,-2.281 -2.199,-2.745 -0.292,-0.318 -0.729,-0.938 -2.01,-2.006 -1.943,-1.614 -3.348,-2.292 -4.807,-3.822 -0.677,-0.714 -1.641,-0.818 -1.942,-1.855 -0.318,-1.041 0.525,-1.984 0.525,-1.984"
     id="path861" />
  <path
     style="fill:none;stroke:#231f20;stroke-width:0.565977;stroke-linecap:butt;stroke-linejoin:miter;stroke-miterlimit:4;stroke-dasharray:none;stroke-opacity:1"
     d="m 204.28143,56.308655 c 1.417,-1.771 1.928,-1.927 2.713,-1.375 0.527,0.364 1.142,0.52 1.47,0.73 1.098,0.686 2.661,2.301 5.906,8.03 0.729,1.298 1.771,3.115 2.265,3.828 0.76,1.12 -1.614,1.636 -1.921,1.199 -0.985,-1.407 -1.772,-2.281 -2.199,-2.745 -0.292,-0.318 -0.729,-0.938 -2.01,-2.006 -1.943,-1.614 -3.348,-2.292 -4.807,-3.822 -0.677,-0.714 -1.641,-0.818 -1.942,-1.855 -0.318,-1.041 0.525,-1.984 0.525,-1.984 z"
     id="path862" />
  <path
     style="fill:#ffffff;fill-opacity:1;fill-rule:nonzero;stroke:none"
     d="m 206.51643,57.371655 c -2.23,3.338 -4.246,-0.214 -4.646,-0.475 -4.182,-2.765 -4.412,-3.072 -7.442,-5.395 -4.386,-3.365 -6.876,-6.338 -5.667,-9.464 0.817,-2.12 2.213,-2.984 3.525,-2.994 1.464,-0.011 4.298,1.432 4.558,4.312 l 1.037,1.365 c 0.812,0.833 1.208,1.249 1.64,1.629 0.755,0.656 1.527,1.407 2.927,2.776 2.485,2.423 4.318,5.798 4.318,5.798 0.875,0.89 -0.25,2.448 -0.25,2.448"
     id="path863" />
  <path
     style="fill:none;stroke:#231f20;stroke-width:0.565977;stroke-linecap:butt;stroke-linejoin:miter;stroke-miterlimit:4;stroke-dasharray:none;stroke-opacity:1"
     d="m 206.51643,57.371655 c -2.23,3.338 -4.246,-0.214 -4.646,-0.475 -4.182,-2.765 -4.412,-3.072 -7.442,-5.395 -4.386,-3.365 -6.876,-6.338 -5.667,-9.464 0.817,-2.12 2.213,-2.984 3.525,-2.994 1.464,-0.011 4.298,1.432 4.558,4.312 l 1.037,1.365 c 0.812,0.833 1.208,1.249 1.64,1.629 0.755,0.656 1.527,1.407 2.927,2.776 2.485,2.423 4.318,5.798 4.318,5.798 0.875,0.89 -0.25,2.448 -0.25,2.448 z"
     id="path864" />
  <path
     style="fill:#231f20;fill-opacity:1;fill-rule:nonzero;stroke:none"
     d="m 218.40643,68.641655 c 0.208,-1.333 -0.651,-1.828 -1.677,-1.636 -0.296,0.054 -0.62,-0.213 -0.911,-0.134 -0.677,0.188 -1.491,1.729 -0.376,2.734 0.079,0.072 0.495,0.782 0.885,1.255 0.772,0.943 2.772,2.437 5.439,2.036 1.26,-0.187 0.916,-0.9 0.385,-0.979 -1.698,-0.245 -1.802,-0.598 -2.218,-0.828 -1.434,-0.76 -1.527,-2.448 -1.527,-2.448"
     id="path865" />
  <path
     style="fill:none;stroke:#231f20;stroke-width:0.332927;stroke-linecap:butt;stroke-linejoin:miter;stroke-miterlimit:4;stroke-dasharray:none;stroke-opacity:1"
     d="m 218.40643,68.641655 c 0.208,-1.333 -0.651,-1.828 -1.677,-1.636 -0.296,0.054 -0.62,-0.213 -0.911,-0.134 -0.677,0.188 -1.491,1.729 -0.376,2.734 0.079,0.072 0.495,0.782 0.885,1.255 0.772,0.943 2.772,2.437 5.439,2.036 1.26,-0.187 0.916,-0.9 0.385,-0.979 -1.698,-0.245 -1.802,-0.598 -2.218,-0.828 -1.434,-0.76 -1.527,-2.448 -1.527,-2.448 z"
     id="path866" />
  <path
     style="fill:#231f20;fill-opacity:1;fill-rule:nonzero;stroke:none"
     d="m 220.04743,66.923655 c 0.124,-1.344 -0.772,-1.782 -1.777,-1.527 -0.301,0.073 -0.635,-0.171 -0.916,-0.072 -0.667,0.229 -1.385,1.823 -0.208,2.749 0.083,0.068 0.541,0.746 0.973,1.199 0.823,0.885 2.912,2.255 5.547,1.681 1.245,-0.265 0.86,-0.957 0.324,-1 -1.709,-0.134 -1.833,-0.484 -2.267,-0.681 -1.478,-0.677 -1.676,-2.349 -1.676,-2.349"
     id="path867" />
  <path
     style="fill:none;stroke:#231f20;stroke-width:0.332927;stroke-linecap:butt;stroke-linejoin:miter;stroke-miterlimit:4;stroke-dasharray:none;stroke-opacity:1"
     d="m 220.04743,66.923655 c 0.124,-1.344 -0.772,-1.782 -1.777,-1.527 -0.301,0.073 -0.635,-0.171 -0.916,-0.072 -0.667,0.229 -1.385,1.823 -0.208,2.749 0.083,0.068 0.541,0.746 0.973,1.199 0.823,0.885 2.912,2.255 5.547,1.681 1.245,-0.265 0.86,-0.957 0.324,-1 -1.709,-0.134 -1.833,-0.484 -2.267,-0.681 -1.478,-0.677 -1.676,-2.349 -1.676,-2.349 z"
     id="path868" />
  <path
     style="fill:#231f20;fill-opacity:1;fill-rule:nonzero;stroke:none"
     d="m 205.16643,55.511655 c 1.298,-1.854 1.798,-2.042 2.62,-1.542 0.547,0.328 1.167,0.448 1.505,0.636 1.147,0.615 2.808,2.124 6.412,7.635 0.812,1.256 1.968,3 2.5,3.677 0.834,1.068 -1.505,1.735 -1.838,1.318 -1.074,-1.339 -1.918,-2.167 -2.371,-2.599 -0.312,-0.297 -0.785,-0.885 -2.129,-1.869 -2.047,-1.49 -3.489,-2.079 -5.041,-3.516 -0.724,-0.667 -1.688,-0.703 -2.058,-1.724 -0.385,-1.016 0.4,-2.016 0.4,-2.016"
     id="path869" />
  <path
     style="fill:none;stroke:#231f20;stroke-width:0.565977;stroke-linecap:butt;stroke-linejoin:miter;stroke-miterlimit:4;stroke-dasharray:none;stroke-opacity:1"
     d="m 205.16643,55.511655 c 1.298,-1.854 1.798,-2.042 2.62,-1.542 0.547,0.328 1.167,0.448 1.505,0.636 1.147,0.615 2.808,2.124 6.412,7.635 0.812,1.256 1.968,3 2.5,3.677 0.834,1.068 -1.505,1.735 -1.838,1.318 -1.074,-1.339 -1.918,-2.167 -2.371,-2.599 -0.312,-0.297 -0.785,-0.885 -2.129,-1.869 -2.047,-1.49 -3.489,-2.079 -5.041,-3.516 -0.724,-0.667 -1.688,-0.703 -2.058,-1.724 -0.385,-1.016 0.4,-2.016 0.4,-2.016 z"
     id="path870" />
  <path
     style="fill:#0098c9;fill-opacity:1;fill-rule:nonzero;stroke:none"
     d="m 185.50543,37.225655 c 2.88,1.228 3.636,1.182 4.557,1.182 5.782,0 5.672,2.838 4.074,5.24 -1.87,2.828 -2.484,3.88 -8.016,0.874 -1.536,-0.849 -7.85,-3.292 -7.85,-3.292 -2.38,-0.566 -4.394,-2.394 -4.676,-3.828 -0.292,-1.505 -0.062,-0.926 -0.084,-2.369 -0.016,-1.38 1.074,-3.276 2.287,-3.5 1.167,-0.219 2.265,1.036 4.088,2.631 1.439,1.26 5.62,3.062 5.62,3.062"
     id="path871" />
  <path
     style="fill:none;stroke:#231f20;stroke-width:0.565977;stroke-linecap:butt;stroke-linejoin:miter;stroke-miterlimit:4;stroke-dasharray:none;stroke-opacity:1"
     d="m 185.50543,37.225655 c 2.88,1.228 3.636,1.182 4.557,1.182 5.782,0 5.672,2.838 4.074,5.24 -1.87,2.828 -2.484,3.88 -8.016,0.874 -1.536,-0.849 -7.85,-3.292 -7.85,-3.292 -2.38,-0.566 -4.394,-2.394 -4.676,-3.828 -0.292,-1.505 -0.062,-0.926 -0.084,-2.369 -0.016,-1.38 1.074,-3.276 2.287,-3.5 1.167,-0.219 2.265,1.036 4.088,2.631 1.439,1.26 5.62,3.062 5.62,3.062 z"
     id="path872" />
  <path
     style="fill:#ffffff;fill-opacity:1;fill-rule:nonzero;stroke:none"
     d="m 167.38143,35.449655 c -0.245,-0.037 -0.715,1.01 -1.204,0.834 -0.495,-0.183 -0.421,-0.97 -1.823,-2.382 l -0.01,-0.02 c -1.058,-0.994 -1.572,-2.286 -1.239,-3.494 0.547,-2.005 3.197,-3.021 5.921,-2.271 2.73,0.744 4.484,2.973 3.932,4.979 -0.516,1.916 -2.978,2.932 -5.577,2.354"
     id="path873" />
  <path
     style="fill:none;stroke:#231f20;stroke-width:0.565977;stroke-linecap:butt;stroke-linejoin:miter;stroke-miterlimit:4;stroke-dasharray:none;stroke-opacity:1"
     d="m 167.38143,35.449655 c -0.245,-0.037 -0.715,1.01 -1.204,0.834 -0.495,-0.183 -0.421,-0.97 -1.823,-2.382 l -0.01,-0.02 c -1.058,-0.994 -1.572,-2.286 -1.239,-3.494 0.547,-2.005 3.197,-3.021 5.921,-2.271 2.73,0.744 4.484,2.973 3.932,4.979 -0.516,1.916 -2.978,2.932 -5.577,2.354 z"
     id="path874" />
  <path
     style="fill:#231f20;fill-opacity:1;fill-rule:nonzero;stroke:none"
     d="m 207.45843,56.433655 c -2.01,3.468 -4.244,0.058 -4.666,-0.177 -4.35,-2.495 -4.594,-2.781 -7.771,-4.912 -4.593,-3.077 -7.26,-5.891 -6.255,-9.083 0.682,-2.166 2.015,-3.12 3.334,-3.218 1.452,-0.099 4.369,1.161 4.822,4.02 l 1.115,1.297 c 0.864,0.776 1.287,1.167 1.739,1.516 0.802,0.609 1.614,1.307 3.1,2.583 2.634,2.266 4.681,5.516 4.681,5.516 0.928,0.833 -0.099,2.458 -0.099,2.458"
     id="path875" />
  <path
     style="fill:none;stroke:#231f20;stroke-width:0.565977;stroke-linecap:butt;stroke-linejoin:miter;stroke-miterlimit:4;stroke-dasharray:none;stroke-opacity:1"
     d="m 207.45843,56.433655 c -2.01,3.468 -4.244,0.058 -4.666,-0.177 -4.35,-2.495 -4.594,-2.781 -7.771,-4.912 -4.593,-3.077 -7.26,-5.891 -6.255,-9.083 0.682,-2.166 2.015,-3.12 3.334,-3.218 1.452,-0.099 4.369,1.161 4.822,4.02 l 1.115,1.297 c 0.864,0.776 1.287,1.167 1.739,1.516 0.802,0.609 1.614,1.307 3.1,2.583 2.634,2.266 4.681,5.516 4.681,5.516 0.928,0.833 -0.099,2.458 -0.099,2.458 z"
     id="path876" />
  <path
     style="fill:#0098c9;fill-opacity:1;fill-rule:nonzero;stroke:#231f20;stroke-width:0.565977;stroke-linecap:butt;stroke-linejoin:miter;stroke-miterlimit:4;stroke-dasharray:none;stroke-opacity:1"
     d="m 196.80843,43.767655 c 0.036,-2.891 -2.636,-4.62 -4.084,-4.762 -1.312,-0.124 -2.787,0.595 -3.823,2.615 -0.672,1.308 -0.609,2.672 -0.005,4.105 0.177,1.02 0.318,1.635 1.041,2 0.063,0.031 0.125,0.078 0.193,0.124 0.344,0.475 0.724,0.954 1.156,1.443 z"
     id="path877" />
  <path
     style="fill:#231f20;fill-opacity:1;fill-rule:nonzero;stroke:none"
     d="m 159.53743,45.840655 c 0.645,0.031 2.172,-1.177 3.724,-1.615 1.041,-0.297 3.145,-2.062 4.213,-2.276 0.968,-0.198 1.402,-0.381 1.359,-1.532 -0.02,-0.682 -0.505,-1.984 -1.015,-1.989 -1.193,-0.021 -2.068,0.339 -2.948,0.937 -1.005,0.688 -3.568,2.787 -4.005,3.214 -1.084,1.073 -1.813,1.156 -2.131,1.412 -0.588,0.484 -0.546,0.828 -0.322,1.276 0.442,0.853 1.125,0.573 1.125,0.573"
     id="path878" />
  <path
     style="fill:none;stroke:#231f20;stroke-width:0.565977;stroke-linecap:butt;stroke-linejoin:miter;stroke-miterlimit:4;stroke-dasharray:none;stroke-opacity:1"
     d="m 159.53743,45.840655 c 0.645,0.031 2.172,-1.177 3.724,-1.615 1.041,-0.297 3.145,-2.062 4.213,-2.276 0.968,-0.198 1.402,-0.381 1.359,-1.532 -0.02,-0.682 -0.505,-1.984 -1.015,-1.989 -1.193,-0.021 -2.068,0.339 -2.948,0.937 -1.005,0.688 -3.568,2.787 -4.005,3.214 -1.084,1.073 -1.813,1.156 -2.131,1.412 -0.588,0.484 -0.546,0.828 -0.322,1.276 0.442,0.853 1.125,0.573 1.125,0.573 z"
     id="path879" />
  <path
     style="fill:#231f20;fill-opacity:1;fill-rule:nonzero;stroke:none"
     d="m 167.37043,41.283655 c 0.771,1.041 2.162,-0.448 2.583,-0.782 0.428,-0.338 1.751,-1.162 2.86,-1.666 1.115,-0.511 2.287,-1.62 4.401,-2.59 1.114,-0.51 1.875,-1.708 1.062,-3.292 -0.796,-1.557 -1.979,-1.697 -3.228,-0.88 -1.256,0.819 -2.084,2.12 -3.287,3.032 -1.204,0.916 -2.516,1.735 -3.573,2.328 -1.208,0.672 -1.552,1.459 -1.5,1.932 0.125,1.188 0.682,1.918 0.682,1.918"
     id="path880" />
  <path
     style="fill:none;stroke:#231f20;stroke-width:0.565977;stroke-linecap:butt;stroke-linejoin:miter;stroke-miterlimit:4;stroke-dasharray:none;stroke-opacity:1"
     d="m 167.37043,41.283655 c 0.771,1.041 2.162,-0.448 2.583,-0.782 0.428,-0.338 1.751,-1.162 2.86,-1.666 1.115,-0.511 2.287,-1.62 4.401,-2.59 1.114,-0.51 1.875,-1.708 1.062,-3.292 -0.796,-1.557 -1.979,-1.697 -3.228,-0.88 -1.256,0.819 -2.084,2.12 -3.287,3.032 -1.204,0.916 -2.516,1.735 -3.573,2.328 -1.208,0.672 -1.552,1.459 -1.5,1.932 0.125,1.188 0.682,1.918 0.682,1.918 z"
     id="path881" />
  <path
     style="fill:#0098c9;fill-opacity:1;fill-rule:nonzero;stroke:none"
     d="m 288.29743,50.813655 c 1.478,3.183 1.718,4.131 2.104,5.203 1.953,5.437 0.932,6.229 -1.282,7.141 -3.14,1.282 -4.978,1.683 -6.792,-4.349 -1.374,-4.573 -3.052,-7.776 -3.052,-7.776 -1.281,-1.36 -2.52,-4.735 -2.265,-5.604 0.432,-1.475 0.391,-1.177 1.391,-2.224 1.838,-1.943 3,-1.625 4,-0.984 1,0.645 1.636,1.463 3.13,3.839 1.162,1.848 2.766,4.754 2.766,4.754"
     id="path882" />
  <path
     style="fill:none;stroke:#231f20;stroke-width:0.565977;stroke-linecap:butt;stroke-linejoin:miter;stroke-miterlimit:4;stroke-dasharray:none;stroke-opacity:1"
     d="m 288.29743,50.813655 c 1.478,3.183 1.718,4.131 2.104,5.203 1.953,5.437 0.932,6.229 -1.282,7.141 -3.14,1.282 -4.978,1.683 -6.792,-4.349 -1.374,-4.573 -3.052,-7.776 -3.052,-7.776 -1.281,-1.36 -2.52,-4.735 -2.265,-5.604 0.432,-1.475 0.391,-1.177 1.391,-2.224 1.838,-1.943 3,-1.625 4,-0.984 1,0.645 1.636,1.463 3.13,3.839 1.162,1.848 2.766,4.754 2.766,4.754 z"
     id="path883" />
  <path
     style="fill:#231f20;fill-opacity:1;fill-rule:nonzero;stroke:none"
     d="m 270.04743,92.579654 c 1.343,-0.187 1.567,-1.151 1.094,-2.072 -0.136,-0.278 0.025,-0.663 -0.131,-0.918 -0.369,-0.593 -2.083,-0.937 -2.729,0.412 -0.047,0.099 -0.604,0.703 -0.948,1.214 -0.687,1.005 -1.558,3.344 -0.411,5.79 0.547,1.158 1.125,0.62 1.047,0.084 -0.246,-1.693 0.068,-1.89 0.161,-2.36 0.328,-1.588 1.917,-2.15 1.917,-2.15"
     id="path884" />
  <path
     style="fill:none;stroke:#231f20;stroke-width:0.332927;stroke-linecap:butt;stroke-linejoin:miter;stroke-miterlimit:4;stroke-dasharray:none;stroke-opacity:1"
     d="m 270.04743,92.579654 c 1.343,-0.187 1.567,-1.151 1.094,-2.072 -0.136,-0.278 0.025,-0.663 -0.131,-0.918 -0.369,-0.593 -2.083,-0.937 -2.729,0.412 -0.047,0.099 -0.604,0.703 -0.948,1.214 -0.687,1.005 -1.558,3.344 -0.411,5.79 0.547,1.158 1.125,0.62 1.047,0.084 -0.246,-1.693 0.068,-1.89 0.161,-2.36 0.328,-1.588 1.917,-2.15 1.917,-2.15 z"
     id="path885" />
  <path
     style="fill:#231f20;fill-opacity:1;fill-rule:nonzero;stroke:none"
     d="m 277.85443,75.527655 c 2.099,0.854 2.396,1.301999 2.088,2.212999 -0.197,0.609 -0.171,1.235 -0.281,1.604 -0.343,1.256 -1.447,3.219 -6.02,7.953 -1.038,1.074 -2.48,2.584 -3.027,3.256 -0.853,1.058 -2.02,-1.078 -1.687,-1.494 1.063,-1.344 1.682,-2.355 2.006,-2.891 0.213,-0.371 0.686,-0.964 1.342,-2.496 1,-2.323 1.256,-3.864 2.308,-5.697 0.49,-0.855 0.312,-1.801999 1.224,-2.390999 0.902,-0.599 2.047,-0.057 2.047,-0.057"
     id="path886" />
  <path
     style="fill:none;stroke:#231f20;stroke-width:0.565977;stroke-linecap:butt;stroke-linejoin:miter;stroke-miterlimit:4;stroke-dasharray:none;stroke-opacity:1"
     d="m 277.85443,75.527655 c 2.099,0.854 2.396,1.301999 2.088,2.212999 -0.197,0.609 -0.171,1.235 -0.281,1.604 -0.343,1.256 -1.447,3.219 -6.02,7.953 -1.038,1.074 -2.48,2.584 -3.027,3.256 -0.853,1.058 -2.02,-1.078 -1.687,-1.494 1.063,-1.344 1.682,-2.355 2.006,-2.891 0.213,-0.371 0.686,-0.964 1.342,-2.496 1,-2.323 1.256,-3.864 2.308,-5.697 0.49,-0.855 0.312,-1.801999 1.224,-2.390999 0.902,-0.599 2.047,-0.057 2.047,-0.057 z"
     id="path887" />
  <path
     style="fill:#ffffff;fill-opacity:1;fill-rule:nonzero;stroke:none"
     d="m 271.68243,42.428655 c -0.208,-0.125 -1.025,0.688 -1.421,0.349 -0.396,-0.344 -0.047,-1.052 -0.855,-2.87 l -0.011,-0.02 c -0.629,-1.308 -0.656,-2.699 0.09,-3.71 1.224,-1.681 4.062,-1.692 6.338,-0.025 2.286,1.667 3.14,4.375 1.916,6.052 -1.166,1.609 -3.828,1.683 -6.057,0.224"
     id="path888" />
  <path
     style="fill:none;stroke:#231f20;stroke-width:0.565977;stroke-linecap:butt;stroke-linejoin:miter;stroke-miterlimit:4;stroke-dasharray:none;stroke-opacity:1"
     d="m 271.68243,42.428655 c -0.208,-0.125 -1.025,0.688 -1.421,0.349 -0.396,-0.344 -0.047,-1.052 -0.855,-2.87 l -0.011,-0.02 c -0.629,-1.308 -0.656,-2.699 0.09,-3.71 1.224,-1.681 4.062,-1.692 6.338,-0.025 2.286,1.667 3.14,4.375 1.916,6.052 -1.166,1.609 -3.828,1.683 -6.057,0.224 z"
     id="path889" />
  <path
     style="fill:#231f20;fill-opacity:1;fill-rule:nonzero;stroke:#231f20;stroke-width:0.565977;stroke-linecap:round;stroke-linejoin:round;stroke-miterlimit:4;stroke-dasharray:none;stroke-opacity:1"
     d="m 275.52643,76.407654 c -0.333,-1.270999 0.984,-2.713999 1.077,-3.025999 1.464,-4.797 1.694,-5.098 3.058,-8.672 1.98,-5.161 4.12,-8.39 7.458,-8.125 2.266,0.193 3.495,1.281 3.88,2.536 0.428,1.401 -0.156,4.521 -2.842,5.6 l -1.016,1.375 c -0.568,1.021 -0.85,1.516 -1.09,2.036 -0.416,0.917 -0.921,1.865 -1.833,3.594 -1.615,3.078 -4.333,5.790999 -4.333,5.790999 -0.072,0.141 -0.171,0.251 -0.276,0.333"
     id="path890" />
  <path
     style="fill:#0098c9;fill-opacity:1;fill-rule:nonzero;stroke:none"
     d="m 291.17743,59.725655 c -0.172,-1.308 -1.198,-2.589 -3.396,-3.146 -2.567,-0.656 -4.766,0.98 -6.954,4.032 l 6.615,4.156 c 2.828,-0.61 3.917,-3.599 3.735,-5.042"
     id="path891" />
  <path
     style="fill:none;stroke:#231f20;stroke-width:0.565977;stroke-linecap:butt;stroke-linejoin:miter;stroke-miterlimit:4;stroke-dasharray:none;stroke-opacity:1"
     d="m 291.17743,59.725655 c -0.172,-1.308 -1.198,-2.589 -3.396,-3.146 -2.567,-0.656 -4.766,0.98 -6.954,4.032 l 6.615,4.156 c 2.828,-0.61 3.917,-3.599 3.735,-5.042 z"
     id="path892" />
  <path
     style="fill:#231f20;fill-opacity:1;fill-rule:nonzero;stroke:none"
     d="m 301.10543,46.329655 c -0.511,0.396 -2.454,0.287 -3.97,0.818 -1.026,0.36 -3.765,0.136 -4.754,0.573 -0.907,0.396 -1.366,0.495 -1.996,-0.469 -0.375,-0.568 -0.734,-1.912 -0.318,-2.208 0.964,-0.704 1.886,-0.918 2.954,-0.932 1.213,-0.022 4.516,0.218 5.12,0.312 1.505,0.26 2.15,-0.099 2.552,-0.068 0.76,0.052 0.926,0.36 1,0.86 0.134,0.942 -0.588,1.114 -0.588,1.114"
     id="path893" />
  <path
     style="fill:none;stroke:#231f20;stroke-width:0.565977;stroke-linecap:butt;stroke-linejoin:miter;stroke-miterlimit:4;stroke-dasharray:none;stroke-opacity:1"
     d="m 301.10543,46.329655 c -0.511,0.396 -2.454,0.287 -3.97,0.818 -1.026,0.36 -3.765,0.136 -4.754,0.573 -0.907,0.396 -1.366,0.495 -1.996,-0.469 -0.375,-0.568 -0.734,-1.912 -0.318,-2.208 0.964,-0.704 1.886,-0.918 2.954,-0.932 1.213,-0.022 4.516,0.218 5.12,0.312 1.505,0.26 2.15,-0.099 2.552,-0.068 0.76,0.052 0.926,0.36 1,0.86 0.134,0.942 -0.588,1.114 -0.588,1.114 z"
     id="path894" />
  <path
     style="fill:#231f20;fill-opacity:1;fill-rule:nonzero;stroke:none"
     d="m 292.07843,47.116655 c -0.027,1.296 -2.021,0.875 -2.563,0.848 -0.541,-0.031 -2.098,0.063 -3.297,0.292 -1.203,0.224 -2.801,-0.011 -5.088,0.416 -1.203,0.229 -2.516,-0.317 -2.765,-2.077 -0.246,-1.735 0.64,-2.527 2.134,-2.579 1.495,-0.052 2.918,0.532 4.434,0.579 1.509,0.057 3.052,-0.032 4.26,-0.156 1.374,-0.142 2.109,0.301 2.338,0.718 0.583,1.042 0.547,1.959 0.547,1.959"
     id="path895" />
  <path
     style="fill:none;stroke:#231f20;stroke-width:0.565977;stroke-linecap:butt;stroke-linejoin:miter;stroke-miterlimit:4;stroke-dasharray:none;stroke-opacity:1"
     d="m 292.07843,47.116655 c -0.027,1.296 -2.021,0.875 -2.563,0.848 -0.541,-0.031 -2.098,0.063 -3.297,0.292 -1.203,0.224 -2.801,-0.011 -5.088,0.416 -1.203,0.229 -2.516,-0.317 -2.765,-2.077 -0.246,-1.735 0.64,-2.527 2.134,-2.579 1.495,-0.052 2.918,0.532 4.434,0.579 1.509,0.057 3.052,-0.032 4.26,-0.156 1.374,-0.142 2.109,0.301 2.338,0.718 0.583,1.042 0.547,1.959 0.547,1.959 z"
     id="path896" />
  <path
     style="fill:#ffffff;fill-opacity:1;fill-rule:nonzero;stroke:none"
     d="m 30.480433,44.688655 c -0.943,0.407 -1.385,1.495 -0.985,2.437 0.406,0.948 1.496,1.391 2.442,0.991 0.944,-0.407 1.387,-1.5 0.98,-2.444 -0.401,-0.947 -1.494,-1.385 -2.437,-0.984"
     id="path897" />
  <path
     style="fill:none;stroke:#231f20;stroke-width:1.33171;stroke-linecap:butt;stroke-linejoin:miter;stroke-miterlimit:4;stroke-dasharray:none;stroke-opacity:1"
     d="m 30.480433,44.688655 c -0.943,0.407 -1.385,1.495 -0.985,2.437 0.406,0.948 1.496,1.391 2.442,0.991 0.944,-0.407 1.387,-1.5 0.98,-2.444 -0.401,-0.947 -1.494,-1.385 -2.437,-0.984 z"
     id="path898" />
  <path
     style="fill:#ffffff;fill-opacity:1;fill-rule:nonzero;stroke:none"
     d="m 53.365433,44.688655 c -0.942,0.407 -1.385,1.495 -0.984,2.437 0.4,0.948 1.495,1.391 2.443,0.991 0.943,-0.407 1.385,-1.5 0.979,-2.444 -0.402,-0.947 -1.495,-1.385 -2.438,-0.984"
     id="path899" />
  <path
     style="fill:none;stroke:#231f20;stroke-width:1.33171;stroke-linecap:butt;stroke-linejoin:miter;stroke-miterlimit:4;stroke-dasharray:none;stroke-opacity:1"
     d="m 53.365433,44.688655 c -0.942,0.407 -1.385,1.495 -0.984,2.437 0.4,0.948 1.495,1.391 2.443,0.991 0.943,-0.407 1.385,-1.5 0.979,-2.444 -0.402,-0.947 -1.495,-1.385 -2.438,-0.984 z"
     id="path900" />
  <path
     style="fill:#ffffff;fill-opacity:1;fill-rule:nonzero;stroke:none"
     d="m 67.756433,44.688655 c -0.943,0.407 -1.385,1.495 -0.984,2.437 0.4,0.948 1.495,1.391 2.443,0.991 0.942,-0.407 1.385,-1.5 0.978,-2.444 -0.401,-0.947 -1.494,-1.385 -2.437,-0.984"
     id="path901" />
  <path
     style="fill:none;stroke:#231f20;stroke-width:1.33171;stroke-linecap:butt;stroke-linejoin:miter;stroke-miterlimit:4;stroke-dasharray:none;stroke-opacity:1"
     d="m 67.756433,44.688655 c -0.943,0.407 -1.385,1.495 -0.984,2.437 0.4,0.948 1.495,1.391 2.443,0.991 0.942,-0.407 1.385,-1.5 0.978,-2.444 -0.401,-0.947 -1.494,-1.385 -2.437,-0.984 z"
     id="path902" />
  <path
     style="fill:#ffffff;fill-opacity:1;fill-rule:nonzero;stroke:none"
     d="m 157.05743,44.688655 c -0.943,0.407 -1.38,1.495 -0.979,2.437 0.402,0.948 1.495,1.391 2.438,0.991 0.948,-0.407 1.39,-1.5 0.984,-2.444 -0.4,-0.947 -1.495,-1.385 -2.443,-0.984"
     id="path903" />
  <path
     style="fill:none;stroke:#231f20;stroke-width:1.33171;stroke-linecap:butt;stroke-linejoin:miter;stroke-miterlimit:4;stroke-dasharray:none;stroke-opacity:1"
     d="m 157.05743,44.688655 c -0.943,0.407 -1.38,1.495 -0.979,2.437 0.402,0.948 1.495,1.391 2.438,0.991 0.948,-0.407 1.39,-1.5 0.984,-2.444 -0.4,-0.947 -1.495,-1.385 -2.443,-0.984 z"
     id="path904" />
  <path
     style="fill:#231f20;fill-opacity:1;fill-rule:nonzero;stroke:none"
     d="m 299.46943,108.49165 c 1.338,-0.204 1.552,-1.172 1.068,-2.084 -0.142,-0.276 0.014,-0.667 -0.142,-0.916 -0.374,-0.595 -2.093,-0.918 -2.724,0.442 -0.046,0.099 -0.593,0.708 -0.932,1.224 -0.677,1.011 -1.516,3.359 -0.344,5.796 0.552,1.147 1.131,0.606 1.047,0.074 -0.265,-1.692 0.048,-1.896 0.136,-2.364 0.307,-1.59 1.891,-2.172 1.891,-2.172"
     id="path905" />
  <path
     style="fill:none;stroke:#231f20;stroke-width:0.332927;stroke-linecap:butt;stroke-linejoin:miter;stroke-miterlimit:4;stroke-dasharray:none;stroke-opacity:1"
     d="m 299.46943,108.49165 c 1.338,-0.204 1.552,-1.172 1.068,-2.084 -0.142,-0.276 0.014,-0.667 -0.142,-0.916 -0.374,-0.595 -2.093,-0.918 -2.724,0.442 -0.046,0.099 -0.593,0.708 -0.932,1.224 -0.677,1.011 -1.516,3.359 -0.344,5.796 0.552,1.147 1.131,0.606 1.047,0.074 -0.265,-1.692 0.048,-1.896 0.136,-2.364 0.307,-1.59 1.891,-2.172 1.891,-2.172 z"
     id="path906" />
  <path
     style="fill:#231f20;fill-opacity:1;fill-rule:nonzero;stroke:none"
     d="m 307.08343,91.349654 c 2.104,0.828 2.407,1.276 2.11,2.188 -0.194,0.615 -0.162,1.24 -0.26,1.61 -0.334,1.26 -1.418,3.229 -5.928,8.020996 -1.026,1.083 -2.454,2.615 -2.99,3.291 -0.844,1.062 -2.036,-1.058 -1.708,-1.479 1.047,-1.355 1.656,-2.369 1.968,-2.912 0.215,-0.369 0.683,-0.973 1.324,-2.508996 0.968,-2.339 1.203,-3.876 2.234,-5.724 0.485,-0.86 0.297,-1.803 1.204,-2.402 0.896,-0.614 2.046,-0.084 2.046,-0.084"
     id="path907" />
  <path
     style="fill:none;stroke:#231f20;stroke-width:0.565977;stroke-linecap:butt;stroke-linejoin:miter;stroke-miterlimit:4;stroke-dasharray:none;stroke-opacity:1"
     d="m 307.08343,91.349654 c 2.104,0.828 2.407,1.276 2.11,2.188 -0.194,0.615 -0.162,1.24 -0.26,1.61 -0.334,1.26 -1.418,3.229 -5.928,8.020996 -1.026,1.083 -2.454,2.615 -2.99,3.291 -0.844,1.062 -2.036,-1.058 -1.708,-1.479 1.047,-1.355 1.656,-2.369 1.968,-2.912 0.215,-0.369 0.683,-0.973 1.324,-2.508996 0.968,-2.339 1.203,-3.876 2.234,-5.724 0.485,-0.86 0.297,-1.803 1.204,-2.402 0.896,-0.614 2.046,-0.084 2.046,-0.084 z"
     id="path908" />
  <path
     style="fill:#ffffff;fill-opacity:1;fill-rule:nonzero;stroke:none"
     d="m 311.29143,52.855655 c -0.12,-0.214 -1.234,0.084 -1.406,-0.406 -0.171,-0.5 0.485,-0.938 0.693,-2.917 v -0.021 c 0.104,-1.448 0.781,-2.667 1.927,-3.172 1.901,-0.843 4.365,0.562 5.505,3.146 1.151,2.583 0.537,5.359 -1.359,6.198 -1.813,0.813 -4.161,-0.454 -5.36,-2.828"
     id="path909" />
  <path
     style="fill:none;stroke:#231f20;stroke-width:0.565977;stroke-linecap:butt;stroke-linejoin:miter;stroke-miterlimit:4;stroke-dasharray:none;stroke-opacity:1"
     d="m 311.29143,52.855655 c -0.12,-0.214 -1.234,0.084 -1.406,-0.406 -0.171,-0.5 0.485,-0.938 0.693,-2.917 v -0.021 c 0.104,-1.448 0.781,-2.667 1.927,-3.172 1.901,-0.843 4.365,0.562 5.505,3.146 1.151,2.583 0.537,5.359 -1.359,6.198 -1.813,0.813 -4.161,-0.454 -5.36,-2.828 z"
     id="path910" />
  <path
     style="fill:#231f20;fill-opacity:1;fill-rule:nonzero;stroke:#231f20;stroke-width:0.565977;stroke-linecap:round;stroke-linejoin:round;stroke-miterlimit:4;stroke-dasharray:none;stroke-opacity:1"
     d="m 304.76643,92.256654 c -0.355,-1.265 0.952,-2.724 1.041,-3.036 1.411,-4.813 1.631,-5.12 2.959,-8.709 1.916,-5.181999 4.025,-8.437999 7.369,-8.207999 2.266,0.166 3.506,1.24 3.907,2.494 0.437,1.391 -0.109,4.515999 -2.781,5.625999 l -1,1.39 c -0.558,1.027 -0.834,1.526 -1.068,2.047 -0.407,0.923 -0.896,1.875 -1.792,3.615 -1.583,3.093 -4.266,5.844 -4.266,5.844 -0.073,0.134 -0.166,0.244 -0.27,0.333"
     id="path911" />
  <path
     style="fill:#0098c9;fill-opacity:1;fill-rule:nonzero;stroke:none"
     d="m 320.22343,75.396655 c -0.186,-1.307 -1.229,-2.572 -3.432,-3.104 -2.573,-0.629 -4.749,1.032 -6.906,4.108999 l 6.662,4.079 c 2.823,-0.64 3.875,-3.64 3.676,-5.083999"
     id="path912" />
  <path
     style="fill:none;stroke:#231f20;stroke-width:0.565977;stroke-linecap:butt;stroke-linejoin:miter;stroke-miterlimit:4;stroke-dasharray:none;stroke-opacity:1"
     d="m 320.22343,75.396655 c -0.186,-1.307 -1.229,-2.572 -3.432,-3.104 -2.573,-0.629 -4.749,1.032 -6.906,4.108999 l 6.662,4.079 c 2.823,-0.64 3.875,-3.64 3.676,-5.083999 z"
     id="path913" />
  <path
     style="fill:#231f20;fill-opacity:1;fill-rule:nonzero;stroke:none"
     d="m 333.56243,48.287655 c -0.197,0.614 -1.864,1.625 -2.817,2.917 -0.64,0.88 -3.031,2.24 -3.599,3.161 -0.532,0.839 -0.855,1.178 -1.917,0.735 -0.63,-0.256 -1.682,-1.161 -1.511,-1.641 0.401,-1.124 1.043,-1.823 1.917,-2.438 0.99,-0.702 3.85,-2.369 4.402,-2.629 1.385,-0.636 1.718,-1.297 2.072,-1.5 0.652,-0.385 0.964,-0.229 1.302,0.145 0.646,0.703 0.151,1.25 0.151,1.25"
     id="path914" />
  <path
     style="fill:none;stroke:#231f20;stroke-width:0.565977;stroke-linecap:butt;stroke-linejoin:miter;stroke-miterlimit:4;stroke-dasharray:none;stroke-opacity:1"
     d="m 333.56243,48.287655 c -0.197,0.614 -1.864,1.625 -2.817,2.917 -0.64,0.88 -3.031,2.24 -3.599,3.161 -0.532,0.839 -0.855,1.178 -1.917,0.735 -0.63,-0.256 -1.682,-1.161 -1.511,-1.641 0.401,-1.124 1.043,-1.823 1.917,-2.438 0.99,-0.702 3.85,-2.369 4.402,-2.629 1.385,-0.636 1.718,-1.297 2.072,-1.5 0.652,-0.385 0.964,-0.229 1.302,0.145 0.646,0.703 0.151,1.25 0.151,1.25 z"
     id="path915" />
  <path
     style="fill:#231f20;fill-opacity:1;fill-rule:nonzero;stroke:none"
     d="m 326.55143,54.037655 c 0.71,1.083 -1.17,1.859 -1.634,2.14 -0.47,0.287 -1.699,1.235 -2.558,2.106 -0.869,0.864 -2.317,1.572 -3.964,3.218 -0.864,0.864 -2.254,1.156 -3.453,-0.157 -1.187,-1.291 -0.9,-2.443 0.303,-3.333 1.202,-0.886 2.708,-1.208 3.989,-2.02 1.276,-0.808 2.5,-1.751 3.427,-2.538 1.053,-0.894 1.906,-0.942 2.333,-0.728 1.068,0.531 1.557,1.312 1.557,1.312"
     id="path916" />
  <path
     style="fill:none;stroke:#231f20;stroke-width:0.565977;stroke-linecap:butt;stroke-linejoin:miter;stroke-miterlimit:4;stroke-dasharray:none;stroke-opacity:1"
     d="m 326.55143,54.037655 c 0.71,1.083 -1.17,1.859 -1.634,2.14 -0.47,0.287 -1.699,1.235 -2.558,2.106 -0.869,0.864 -2.317,1.572 -3.964,3.218 -0.864,0.864 -2.254,1.156 -3.453,-0.157 -1.187,-1.291 -0.9,-2.443 0.303,-3.333 1.202,-0.886 2.708,-1.208 3.989,-2.02 1.276,-0.808 2.5,-1.751 3.427,-2.538 1.053,-0.894 1.906,-0.942 2.333,-0.728 1.068,0.531 1.557,1.312 1.557,1.312 z"
     id="path917" />
  <path
     style="fill:#231f20;fill-opacity:1;fill-rule:nonzero;stroke:none"
     d="m 242.01543,39.792655 c -0.292,-0.672 -0.484,-3.916 -0.5,-4.656 -0.016,-0.667 -0.396,-1.755 0.636,-2.271 0.416,-0.213 1.176,-0.224 1.49,-0.145 0.249,0.067 0.358,0.375 0.322,0.771 -0.046,0.666 -0.312,0.833 -0.484,2.098 0,0 -0.084,0.292 -0.276,0.812 -0.542,1.538 -0.442,0.814 -0.734,3.215 -0.022,0.167 -0.208,0.271 -0.323,0.255 -0.172,-0.042 -0.131,-0.079 -0.131,-0.079"
     id="path918" />
  <path
     style="fill:none;stroke:#231f20;stroke-width:0.565977;stroke-linecap:round;stroke-linejoin:round;stroke-miterlimit:4;stroke-dasharray:none;stroke-opacity:1"
     d="m 242.01543,39.792655 c -0.292,-0.672 -0.484,-3.916 -0.5,-4.656 -0.016,-0.667 -0.396,-1.755 0.636,-2.271 0.416,-0.213 1.176,-0.224 1.49,-0.145 0.249,0.067 0.358,0.375 0.322,0.771 -0.046,0.666 -0.312,0.833 -0.484,2.098 0,0 -0.084,0.292 -0.276,0.812 -0.542,1.538 -0.442,0.814 -0.734,3.215 -0.022,0.167 -0.208,0.271 -0.323,0.255 -0.172,-0.042 -0.131,-0.079 -0.131,-0.079 z"
     id="path919" />
  <path
     style="fill:none;stroke:#231f20;stroke-width:0.399514;stroke-linecap:butt;stroke-linejoin:miter;stroke-miterlimit:4;stroke-dasharray:none;stroke-opacity:1"
     d="m 38.267433,114.24565 c 25.566,6.912 43.614,-22.305996 45.041,-29.425996"
     id="path920" />
  <path
     style="fill:#231f20;fill-opacity:1;fill-rule:nonzero;stroke:none"
     d="m 83.548433,83.636654 c 0.093,0.599 0.306,1.36 0.593,1.86 l -0.865,-0.521 -1,0.15 c 0.458,-0.353 0.953,-0.973 1.272,-1.489"
     id="path921" />
  <path
     style="fill:none;stroke:#231f20;stroke-width:0.399514;stroke-linecap:butt;stroke-linejoin:miter;stroke-miterlimit:4;stroke-dasharray:none;stroke-opacity:1"
     d="m 288.33843,68.735655 c -4.301,26.135999 26.589,41.140995 33.819,41.843995"
     id="path922" />
  <path
     style="fill:#231f20;fill-opacity:1;fill-rule:nonzero;stroke:none"
     d="m 323.35443,110.69965 c -0.583,0.156 -1.317,0.442 -1.792,0.781 l 0.437,-0.917 -0.249,-0.979 c 0.396,0.421 1.063,0.849 1.604,1.115"
     id="path923" />
  <path
     style="fill:#231f20;fill-opacity:1;fill-rule:nonzero;stroke:none"
     d="m 236.17143,26.084655 c 0.547,-0.38 2.068,0.584 4.011,0.282 0.401,-0.063 0.751,0.078 1.115,0.156 1.474,0.318 2.636,1.417 -0.875,2.953 -0.485,0.208 -2.584,0.177 -3.281,0.547 -1.636,0.874 -4.776,-0.214 -4.719,-0.735 0.099,-1.113 3.749,-3.203 3.749,-3.203"
     id="path924" />
  <path
     style="fill:none;stroke:#231f20;stroke-width:0.644548;stroke-linecap:round;stroke-linejoin:round;stroke-miterlimit:4;stroke-dasharray:none;stroke-opacity:1"
     d="m 236.17143,26.084655 c 0.547,-0.38 2.068,0.584 4.011,0.282 0.401,-0.063 0.751,0.078 1.115,0.156 1.474,0.318 2.636,1.417 -0.875,2.953 -0.485,0.208 -2.584,0.177 -3.281,0.547 -1.636,0.874 -4.776,-0.214 -4.719,-0.735 0.099,-1.113 3.749,-3.203 3.749,-3.203 z"
     id="path925" />
  <path
     style="fill:#231f20;fill-opacity:1;fill-rule:nonzero;stroke:none"
     d="m 254.68743,27.339655 c -0.797,1.251 -1.328,2.948 -7.656,1.855 -2.568,-0.443 -8,0.584 -8.037,-0.552 -0.099,-3.088 6.767,-4.735 7.745,-5.708 1.219,-1.204 5.948,-1.35 7.162,-0.516 2.833,1.953 0.786,4.921 0.786,4.921"
     id="path926" />
  <path
     style="fill:none;stroke:#231f20;stroke-width:0.31961;stroke-linecap:butt;stroke-linejoin:miter;stroke-miterlimit:4;stroke-dasharray:none;stroke-opacity:1"
     d="m 254.68743,27.339655 c -0.797,1.251 -1.328,2.948 -7.656,1.855 -2.568,-0.443 -8,0.584 -8.037,-0.552 -0.099,-3.088 6.767,-4.735 7.745,-5.708 1.219,-1.204 5.948,-1.35 7.162,-0.516 2.833,1.953 0.786,4.921 0.786,4.921 z"
     id="path927" />
  <path
     style="fill:#0098c9;fill-opacity:1;fill-rule:nonzero;stroke:none"
     d="m 251.40643,16.584655 c 2.052,2.844 2.459,3.73 3.036,4.714 2.943,4.974 2.095,5.948 0.089,7.25 -2.849,1.848 -4.584,2.588 -7.489,-2.994 -2.209,-4.235 -4.459,-7.063 -4.459,-7.063 -1.516,-1.099 -3.36,-4.177 -3.276,-5.089 0.146,-1.526 0.167,-1.228 0.948,-2.443 1.448,-2.2489996 2.646,-2.1559996 3.75,-1.7129996 1.104,0.442 1.88,1.1299996 3.792,3.1879996 1.489,1.593 3.609,4.15 3.609,4.15"
     id="path928" />
  <path
     style="fill:none;stroke:#231f20;stroke-width:0.565977;stroke-linecap:butt;stroke-linejoin:miter;stroke-miterlimit:4;stroke-dasharray:none;stroke-opacity:1"
     d="m 251.40643,16.584655 c 2.052,2.844 2.459,3.73 3.036,4.714 2.943,4.974 2.095,5.948 0.089,7.25 -2.849,1.848 -4.584,2.588 -7.489,-2.994 -2.209,-4.235 -4.459,-7.063 -4.459,-7.063 -1.516,-1.099 -3.36,-4.177 -3.276,-5.089 0.146,-1.526 0.167,-1.228 0.948,-2.443 1.448,-2.2489996 2.646,-2.1559996 3.75,-1.7129996 1.104,0.442 1.88,1.1299996 3.792,3.1879996 1.489,1.593 3.609,4.15 3.609,4.15 z"
     id="path929" />
  <path
     style="fill:#ffffff;fill-opacity:1;fill-rule:nonzero;stroke:none"
     d="m 233.78143,7.0436554 c -0.12,-0.208 -1.23,0.088 -1.406,-0.407 -0.172,-0.494 0.479,-0.932 0.687,-2.91 l 0.005,-0.027 c 0.099,-1.448 0.776,-2.667 1.923,-3.172 1.895,-0.844 4.364,0.557 5.509,3.145 1.152,2.579 0.543,5.355 -1.358,6.199 -1.814,0.8119996 -4.156,-0.448 -5.36,-2.828"
     id="path930" />
  <path
     style="fill:none;stroke:#231f20;stroke-width:0.565977;stroke-linecap:butt;stroke-linejoin:miter;stroke-miterlimit:4;stroke-dasharray:none;stroke-opacity:1"
     d="m 233.78143,7.0436554 c -0.12,-0.208 -1.23,0.088 -1.406,-0.407 -0.172,-0.494 0.479,-0.932 0.687,-2.91 l 0.005,-0.027 c 0.099,-1.448 0.776,-2.667 1.923,-3.172 1.895,-0.844 4.364,0.557 5.509,3.145 1.152,2.579 0.543,5.355 -1.358,6.199 -1.814,0.8119996 -4.156,-0.448 -5.36,-2.828 z"
     id="path931" />
  <path
     style="fill:#231f20;fill-opacity:1;fill-rule:nonzero;stroke:none"
     d="m 243.72943,33.037655 c 0.385,-0.516 0.25,-2.458 0.761,-3.983 0.343,-1.032 0.077,-3.767 0.495,-4.762 0.38,-0.916 0.473,-1.374 -0.5,-1.994 -0.574,-0.364 -1.918,-0.698 -2.215,-0.282 -0.681,0.975 -0.885,1.902 -0.885,2.97 0,1.218 0.286,4.516 0.396,5.12 0.276,1.494 -0.067,2.145 -0.031,2.551 0.063,0.755 0.369,0.916 0.869,0.979 0.954,0.125 1.11,-0.599 1.11,-0.599"
     id="path932" />
  <path
     style="fill:none;stroke:#231f20;stroke-width:0.565977;stroke-linecap:butt;stroke-linejoin:miter;stroke-miterlimit:4;stroke-dasharray:none;stroke-opacity:1"
     d="m 243.72943,33.037655 c 0.385,-0.516 0.25,-2.458 0.761,-3.983 0.343,-1.032 0.077,-3.767 0.495,-4.762 0.38,-0.916 0.473,-1.374 -0.5,-1.994 -0.574,-0.364 -1.918,-0.698 -2.215,-0.282 -0.681,0.975 -0.885,1.902 -0.885,2.97 0,1.218 0.286,4.516 0.396,5.12 0.276,1.494 -0.067,2.145 -0.031,2.551 0.063,0.755 0.369,0.916 0.869,0.979 0.954,0.125 1.11,-0.599 1.11,-0.599 z"
     id="path933" />
  <path
     style="fill:#231f20;fill-opacity:1;fill-rule:nonzero;stroke:none"
     d="m 244.38143,24.002655 c 1.29,-0.052 0.842,-2.038 0.806,-2.579 -0.036,-0.547 0.027,-2.099 0.24,-3.303 0.203,-1.208 -0.046,-2.801 0.344,-5.093 0.203,-1.208 -0.36,-2.511 -2.125,-2.729 -1.735,-0.224 -2.516,0.672 -2.547,2.166 -0.032,1.5 0.578,2.912 0.651,4.428 0.077,1.504 0.011,3.052 -0.093,4.26 -0.12,1.38 0.333,2.104 0.754,2.328 1.052,0.563 1.97,0.522 1.97,0.522"
     id="path934" />
  <path
     style="fill:none;stroke:#231f20;stroke-width:0.565977;stroke-linecap:butt;stroke-linejoin:miter;stroke-miterlimit:4;stroke-dasharray:none;stroke-opacity:1"
     d="m 244.38143,24.002655 c 1.29,-0.052 0.842,-2.038 0.806,-2.579 -0.036,-0.547 0.027,-2.099 0.24,-3.303 0.203,-1.208 -0.046,-2.801 0.344,-5.093 0.203,-1.208 -0.36,-2.511 -2.125,-2.729 -1.735,-0.224 -2.516,0.672 -2.547,2.166 -0.032,1.5 0.578,2.912 0.651,4.428 0.077,1.504 0.011,3.052 -0.093,4.26 -0.12,1.38 0.333,2.104 0.754,2.328 1.052,0.563 1.97,0.522 1.97,0.522 z"
     id="path935" />
  <path
     style="fill:#231f20;fill-opacity:1;fill-rule:nonzero;stroke:none"
     d="m 255.96343,25.090655 c 0.479,1.401 1.475,2.874 -3.333,7.13 -1.953,1.729 -4.547,6.615 -5.453,5.932 -2.474,-1.849 0.526,-8.24 0.38,-9.614 -0.176,-1.703 2.661,-5.484 4.073,-5.912 3.297,-0.995 4.333,2.464 4.333,2.464"
     id="path936" />
  <path
     style="fill:none;stroke:#231f20;stroke-width:0.31961;stroke-linecap:butt;stroke-linejoin:miter;stroke-miterlimit:4;stroke-dasharray:none;stroke-opacity:1"
     d="m 255.96343,25.090655 c 0.479,1.401 1.475,2.874 -3.333,7.13 -1.953,1.729 -4.547,6.615 -5.453,5.932 -2.474,-1.849 0.526,-8.24 0.38,-9.614 -0.176,-1.703 2.661,-5.484 4.073,-5.912 3.297,-0.995 4.333,2.464 4.333,2.464 z"
     id="path937" />
  <path
     style="fill:#231f20;fill-opacity:1;fill-rule:nonzero;stroke:none"
     d="m 246.29143,32.787655 c -1.416,2.229 -1.588,4.657 -0.369,5.428 1.208,0.77 3.339,-0.412 4.755,-2.642 1.412,-2.229 1.584,-4.656 0.374,-5.426 -1.213,-0.771 -3.342,0.412 -4.76,2.64"
     id="path938" />
  <path
     style="fill:none;stroke:#231f20;stroke-width:0.71646;stroke-linecap:round;stroke-linejoin:round;stroke-miterlimit:4;stroke-dasharray:none;stroke-opacity:1"
     d="m 246.29143,32.787655 c -1.416,2.229 -1.588,4.657 -0.369,5.428 1.208,0.77 3.339,-0.412 4.755,-2.642 1.412,-2.229 1.584,-4.656 0.374,-5.426 -1.213,-0.771 -3.342,0.412 -4.76,2.64 z"
     id="path939" />
  <path
     style="fill:#231f20;fill-opacity:1;fill-rule:nonzero;stroke:none"
     d="m 244.78143,42.720655 c 0.652,-0.147 0.953,-1.923 2.485,-3.161 0.307,-0.256 0.443,-0.61 0.624,-0.928 0.756,-1.312 0.713,-2.911 -2.771,-1.339 -0.489,0.219 -1.864,1.803 -2.604,2.068 -1.754,0.636 -3.046,3.699 -2.63,4 0.901,0.667 4.896,-0.64 4.896,-0.64"
     id="path940" />
  <path
     style="fill:none;stroke:#231f20;stroke-width:0.644548;stroke-linecap:round;stroke-linejoin:round;stroke-miterlimit:4;stroke-dasharray:none;stroke-opacity:1"
     d="m 244.78143,42.720655 c 0.652,-0.147 0.953,-1.923 2.485,-3.161 0.307,-0.256 0.443,-0.61 0.624,-0.928 0.756,-1.312 0.713,-2.911 -2.771,-1.339 -0.489,0.219 -1.864,1.803 -2.604,2.068 -1.754,0.636 -3.046,3.699 -2.63,4 0.901,0.667 4.896,-0.64 4.896,-0.64 z"
     id="path941" />
  <path
     style="fill:#0098c9;fill-opacity:1;fill-rule:nonzero;stroke:none"
     d="m 248.43343,27.798655 c 0.072,-2.443 3.15,-1.678 4.89,-0.896 1.02,0.458 2.458,1.77 2.458,1.77 0,0 1.016,-1.541 0.761,-3.322 -0.1,-0.667 -0.797,-5.192 -4.043,-3.072 -0.989,0.645 -5.588,2.89 -5.27,3.442 0.313,0.552 1.204,2.078 1.204,2.078"
     id="path942" />
  <path
     style="fill:none;stroke:#231f20;stroke-width:0.565977;stroke-linecap:round;stroke-linejoin:round;stroke-miterlimit:4;stroke-dasharray:none;stroke-opacity:1"
     d="m 248.43343,27.798655 c 0.072,-2.443 3.15,-1.678 4.89,-0.896 1.02,0.458 2.458,1.77 2.458,1.77 0,0 1.016,-1.541 0.761,-3.322 -0.1,-0.667 -0.797,-5.192 -4.043,-3.072 -0.989,0.645 -5.588,2.89 -5.27,3.442 0.313,0.552 1.204,2.078 1.204,2.078 z"
     id="path943" />
  <path
     style="fill:#ffffff;fill-opacity:1;fill-rule:nonzero;stroke:none"
     d="m 241.38543,47.183655 c 0.433,0.933 1.537,1.338 2.469,0.906 0.932,-0.432 1.339,-1.536 0.907,-2.469 -0.434,-0.932 -1.538,-1.343 -2.47,-0.905 -0.932,0.432 -1.333,1.536 -0.906,2.468"
     id="path944" />
  <path
     style="fill:none;stroke:#231f20;stroke-width:1.33171;stroke-linecap:butt;stroke-linejoin:miter;stroke-miterlimit:4;stroke-dasharray:none;stroke-opacity:1"
     d="m 241.38543,47.183655 c 0.433,0.933 1.537,1.338 2.469,0.906 0.932,-0.432 1.339,-1.536 0.907,-2.469 -0.434,-0.932 -1.538,-1.343 -2.47,-0.905 -0.932,0.432 -1.333,1.536 -0.906,2.468 z"
     id="path945" />
  <path
     style="fill:#ffffff;fill-opacity:1;fill-rule:nonzero;stroke:none"
     d="m 301.64143,44.688655 c -0.943,0.407 -1.38,1.495 -0.98,2.437 0.401,0.948 1.496,1.391 2.444,0.991 0.942,-0.407 1.385,-1.5 0.978,-2.444 -0.401,-0.947 -1.494,-1.385 -2.442,-0.984"
     id="path946" />
  <path
     style="fill:none;stroke:#231f20;stroke-width:1.33171;stroke-linecap:butt;stroke-linejoin:miter;stroke-miterlimit:4;stroke-dasharray:none;stroke-opacity:1"
     d="m 301.64143,44.688655 c -0.943,0.407 -1.38,1.495 -0.98,2.437 0.401,0.948 1.496,1.391 2.444,0.991 0.942,-0.407 1.385,-1.5 0.978,-2.444 -0.401,-0.947 -1.494,-1.385 -2.442,-0.984 z"
     id="path947" />
  <path
     style="fill:#ffffff;fill-opacity:1;fill-rule:nonzero;stroke:none"
     d="m 333.20343,44.688655 c -0.942,0.407 -1.385,1.495 -0.985,2.437 0.407,0.948 1.5,1.391 2.443,0.991 0.942,-0.407 1.386,-1.5 0.98,-2.444 -0.402,-0.947 -1.495,-1.385 -2.438,-0.984"
     id="path948" />
  <path
     style="fill:none;stroke:#231f20;stroke-width:1.33171;stroke-linecap:butt;stroke-linejoin:miter;stroke-miterlimit:4;stroke-dasharray:none;stroke-opacity:1"
     d="m 333.20343,44.688655 c -0.942,0.407 -1.385,1.495 -0.985,2.437 0.407,0.948 1.5,1.391 2.443,0.991 0.942,-0.407 1.386,-1.5 0.98,-2.444 -0.402,-0.947 -1.495,-1.385 -2.438,-0.984 z"
     id="path949" />
</svg>
