<?xml version="1.0" encoding="UTF-8" standalone="no"?>
<!-- Created with Inkscape (http://www.inkscape.org/) -->

<svg
   version="1.1"
   id="svg1"
   width="311.45456"
   height="122.81731"
   viewBox="0 0 311.45455 122.81731"
   sodipodi:docname="cell.svg"
   xmlns:inkscape="http://www.inkscape.org/namespaces/inkscape"
   xmlns:sodipodi="http://sodipodi.sourceforge.net/DTD/sodipodi-0.dtd"
   xmlns="http://www.w3.org/2000/svg"
   xmlns:svg="http://www.w3.org/2000/svg">
  <sodipodi:namedview
     id="namedview1"
     pagecolor="#ffffff"
     bordercolor="#000000"
     borderopacity="0.25"
     inkscape:showpageshadow="2"
     inkscape:pageopacity="0.0"
     inkscape:pagecheckerboard="0"
     inkscape:deskcolor="#d1d1d1">
    <inkscape:page
       x="0"
       y="0"
       inkscape:label="1"
       id="page1"
       width="311.45456"
       height="122.81731"
       margin="0"
       bleed="0" />
  </sodipodi:namedview>
  <defs
     id="defs1" />
  <path
     style="fill:#231f20;fill-opacity:1;fill-rule:nonzero;stroke:none"
     d="m 4.2507095,102.17558 c 1.348,0.066 1.749,-0.835 1.4625,-1.829 -0.0828,-0.296 0.1521,-0.641005 0.048,-0.927005 -0.2557,-0.656 -1.8709,-1.312 -2.7614,-0.104 -0.0626,0.083 -0.724,0.568 -1.161,1.011005 -0.85890001,0.853 -2.15100001,2.989 -1.48960001,5.603 0.312,1.241 0.98390001,0.823 1.01100001,0.287 0.077,-1.708 0.4213,-1.849 0.6036,-2.287 0.6202,-1.5 2.2869,-1.754 2.2869,-1.754"
     id="path407" />
  <path
     style="fill:none;stroke:#231f20;stroke-width:0.332927;stroke-linecap:butt;stroke-linejoin:miter;stroke-miterlimit:4;stroke-dasharray:none;stroke-opacity:1"
     d="m 4.2507095,102.17558 c 1.348,0.066 1.749,-0.835 1.4625,-1.829 -0.0828,-0.296 0.1521,-0.641005 0.048,-0.927005 -0.2557,-0.656 -1.8709,-1.312 -2.7614,-0.104 -0.0626,0.083 -0.724,0.568 -1.161,1.011005 -0.85890001,0.853 -2.15100001,2.989 -1.48960001,5.603 0.312,1.241 0.98390001,0.823 1.01100001,0.287 0.077,-1.708 0.4213,-1.849 0.6036,-2.287 0.6202,-1.5 2.2869,-1.754 2.2869,-1.754 z"
     id="path408" />
  <path
     style="fill:#231f20;fill-opacity:1;fill-rule:nonzero;stroke:none"
     d="m 15.130409,86.903575 c 1.9016,1.234 2.1041,1.724 1.6349,2.562 -0.3068,0.563 -0.4052,1.183 -0.5776,1.533 -0.5786,1.161 -2.0318,2.874 -7.4119995,6.666 -1.2188,0.859 -2.9265,2.072 -3.5822,2.630005 -1.0376,0.87 -1.7871,-1.443005 -1.3803,-1.786005 1.2959,-1.125 2.0984,-1.996 2.5093,-2.464 0.2866,-0.317 0.8652,-0.817 1.7975,-2.198 1.4172,-2.094 1.9530995,-3.552 3.3384995,-5.157 0.636,-0.743 0.6454,-1.713 1.6506,-2.119 1,-0.417 2.0213,0.333 2.0213,0.333"
     id="path409" />
  <path
     style="fill:none;stroke:#231f20;stroke-width:0.565977;stroke-linecap:butt;stroke-linejoin:miter;stroke-miterlimit:4;stroke-dasharray:none;stroke-opacity:1"
     d="m 15.130409,86.903575 c 1.9016,1.234 2.1041,1.724 1.6349,2.562 -0.3068,0.563 -0.4052,1.183 -0.5776,1.533 -0.5786,1.161 -2.0318,2.874 -7.4119995,6.666 -1.2188,0.859 -2.9265,2.072 -3.5822,2.630005 -1.0376,0.87 -1.7871,-1.443005 -1.3803,-1.786005 1.2959,-1.125 2.0984,-1.996 2.5093,-2.464 0.2866,-0.317 0.8652,-0.817 1.7975,-2.198 1.4172,-2.094 1.9530995,-3.552 3.3384995,-5.157 0.636,-0.743 0.6454,-1.713 1.6506,-2.119 1,-0.417 2.0213,0.333 2.0213,0.333 z"
     id="path410" />
  <path
     style="fill:#0098c9;fill-opacity:1;fill-rule:nonzero;stroke:none"
     d="m 33.463709,67.367575 c -1.4531,2.776 -1.464,3.531 -1.5359,4.448 -0.4641,5.76 -3.2813,5.426 -5.548,3.645 -2.6708,-2.088 -3.6708,-2.786 -0.2333,-8.057 0.9625,-1.463 3.9,-7.566996 3.9,-7.566996 0.7557,-2.328 2.7349,-4.193 4.1828,-4.354 1.5265,-0.172 0.9318,0.005 2.3745,0.104 1.376,0.093 3.1776,1.322 3.3077,2.552 0.1256,1.182 -1.2077,2.182 -2.953,3.869 -1.364,1.333 -3.4948,5.359996 -3.4948,5.359996"
     id="path411" />
  <path
     style="fill:none;stroke:#231f20;stroke-width:0.565977;stroke-linecap:butt;stroke-linejoin:miter;stroke-miterlimit:4;stroke-dasharray:none;stroke-opacity:1"
     d="m 33.463709,67.367575 c -1.4531,2.776 -1.464,3.531 -1.5359,4.448 -0.4641,5.76 -3.2813,5.426 -5.548,3.645 -2.6708,-2.088 -3.6708,-2.786 -0.2333,-8.057 0.9625,-1.463 3.9,-7.566996 3.9,-7.566996 0.7557,-2.328 2.7349,-4.193 4.1828,-4.354 1.5265,-0.172 0.9318,0.005 2.3745,0.104 1.376,0.093 3.1776,1.322 3.3077,2.552 0.1256,1.182 -1.2077,2.182 -2.953,3.869 -1.364,1.333 -3.4948,5.359996 -3.4948,5.359996 z"
     id="path412" />
  <path
     style="fill:#ffffff;fill-opacity:1;fill-rule:nonzero;stroke:none"
     d="m 36.672109,49.440579 c 0.0572,-0.24 -0.9486,-0.792 -0.735,-1.265 0.2187,-0.48 0.9948,-0.344 2.5214,-1.625 l 0.0161,-0.016 c 1.0771,-0.974 2.4,-1.386 3.5823,-0.959 1.9589,0.709 2.7562,3.432 1.7974,6.084 -0.9641,2.661 -3.3276,4.239 -5.2761,3.531 -1.8692,-0.672 -2.688,-3.203 -1.9061,-5.75"
     id="path413" />
  <path
     style="fill:none;stroke:#231f20;stroke-width:0.565977;stroke-linecap:butt;stroke-linejoin:miter;stroke-miterlimit:4;stroke-dasharray:none;stroke-opacity:1"
     d="m 36.672109,49.440579 c 0.0572,-0.24 -0.9486,-0.792 -0.735,-1.265 0.2187,-0.48 0.9948,-0.344 2.5214,-1.625 l 0.0161,-0.016 c 1.0771,-0.974 2.4,-1.386 3.5823,-0.959 1.9589,0.709 2.7562,3.432 1.7974,6.084 -0.9641,2.661 -3.3276,4.239 -5.2761,3.531 -1.8692,-0.672 -2.688,-3.203 -1.9061,-5.75 z"
     id="path414" />
  <path
     style="fill:#231f20;fill-opacity:1;fill-rule:nonzero;stroke:none"
     d="m 14.297109,89.227575 c -3.5412,-1.887 -0.2079,-4.245 0.0161,-4.667 2.3385,-4.433 2.6188,-4.688 4.6349,-7.943 2.9172,-4.693 5.6301,-7.464 8.8599,-6.567 2.1865,0.609 3.1865,1.91 3.3276,3.224 0.151,1.448 -1.0052,4.405 -3.849,4.953 l -1.2546,1.161 c -0.7506,0.896 -1.1204,1.328 -1.4538,1.796 -0.5837,0.819 -1.2557,1.657 -2.4796,3.188 -2.1666,2.714 -5.3479,4.869 -5.3479,4.869 -0.7974,0.954 -2.4536,-0.014 -2.4536,-0.014"
     id="path415" />
  <path
     style="fill:none;stroke:#231f20;stroke-width:0.565977;stroke-linecap:butt;stroke-linejoin:miter;stroke-miterlimit:4;stroke-dasharray:none;stroke-opacity:1"
     d="m 14.297109,89.227575 c -3.5412,-1.887 -0.2079,-4.245 0.0161,-4.667 2.3385,-4.433 2.6188,-4.688 4.6349,-7.943 2.9172,-4.693 5.6301,-7.464 8.8599,-6.567 2.1865,0.609 3.1865,1.91 3.3276,3.224 0.151,1.448 -1.0052,4.405 -3.849,4.953 l -1.2546,1.161 c -0.7506,0.896 -1.1204,1.328 -1.4538,1.796 -0.5837,0.819 -1.2557,1.657 -2.4796,3.188 -2.1666,2.714 -5.3479,4.869 -5.3479,4.869 -0.7974,0.954 -2.4536,-0.014 -2.4536,-0.014 z"
     id="path416" />
  <path
     style="fill:#0098c9;fill-opacity:1;fill-rule:nonzero;stroke:none"
     d="m 28.453309,70.164575 c -1.3333,-0.625 -2.688,-0.516 -4.0989,0.135 -1.0156,0.218 -1.6308,0.375 -1.9694,1.114 -0.0249,0.063 -0.0718,0.131 -0.1145,0.194 -0.4573,0.364 -0.9265,0.755 -1.4,1.208 l 5.7135,5.328 c 2.8906,-0.063 4.5198,-2.792 4.6146,-4.249 0.0771,-1.319 -0.688,-2.762 -2.7453,-3.73"
     id="path417" />
  <path
     style="fill:none;stroke:#231f20;stroke-width:0.565977;stroke-linecap:butt;stroke-linejoin:miter;stroke-miterlimit:4;stroke-dasharray:none;stroke-opacity:1"
     d="m 28.453309,70.164575 c -1.3333,-0.625 -2.688,-0.516 -4.0989,0.135 -1.0156,0.218 -1.6308,0.375 -1.9694,1.114 -0.0249,0.063 -0.0718,0.131 -0.1145,0.194 -0.4573,0.364 -0.9265,0.755 -1.4,1.208 l 5.7135,5.328 c 2.8906,-0.063 4.5198,-2.792 4.6146,-4.249 0.0771,-1.319 -0.688,-2.762 -2.7453,-3.73 z"
     id="path418" />
  <path
     style="fill:#231f20;fill-opacity:1;fill-rule:nonzero;stroke:none"
     d="m 48.218309,41.706579 c -0.6093,0.202 -1.588,1.885 -2.8744,2.858 -0.8641,0.658 -2.1881,3.063 -3.0933,3.652 -0.8333,0.536 -1.1667,0.864 -0.7135,1.922 0.2708,0.63 1.1922,1.661 1.6708,1.48 1.1146,-0.412 1.8027,-1.063 2.4011,-1.948 0.688,-1 2.3134,-3.886 2.563,-4.443 0.6198,-1.396 1.2703,-1.74 1.4692,-2.095 0.3746,-0.661 0.2131,-0.968 -0.1614,-1.301 -0.7187,-0.636 -1.2615,-0.125 -1.2615,-0.125"
     id="path419" />
  <path
     style="fill:none;stroke:#231f20;stroke-width:0.565977;stroke-linecap:butt;stroke-linejoin:miter;stroke-miterlimit:4;stroke-dasharray:none;stroke-opacity:1"
     d="m 48.218309,41.706579 c -0.6093,0.202 -1.588,1.885 -2.8744,2.858 -0.8641,0.658 -2.1881,3.063 -3.0933,3.652 -0.8333,0.536 -1.1667,0.864 -0.7135,1.922 0.2708,0.63 1.1922,1.661 1.6708,1.48 1.1146,-0.412 1.8027,-1.063 2.4011,-1.948 0.688,-1 2.3134,-3.886 2.563,-4.443 0.6198,-1.396 1.2703,-1.74 1.4692,-2.095 0.3746,-0.661 0.2131,-0.968 -0.1614,-1.301 -0.7187,-0.636 -1.2615,-0.125 -1.2615,-0.125 z"
     id="path420" />
  <path
     style="fill:#231f20;fill-opacity:1;fill-rule:nonzero;stroke:none"
     d="m 42.583909,48.799579 c -1.0948,-0.692 -1.8442,1.204 -2.1202,1.667 -0.276,0.474 -1.2079,1.718 -2.0574,2.594 -0.8546,0.88 -1.541,2.343 -3.1614,4.015 -0.8438,0.88 -1.1198,2.271 0.2084,3.448 1.3172,1.166 2.464,0.865 3.3333,-0.353 0.8692,-1.219 1.1667,-2.73 1.9583,-4.022 0.787,-1.286 1.7136,-2.53 2.4786,-3.469 0.8803,-1.067 0.9178,-1.921 0.699,-2.343 -0.5572,-1.062 -1.3386,-1.537 -1.3386,-1.537"
     id="path421" />
  <path
     style="fill:none;stroke:#231f20;stroke-width:0.565977;stroke-linecap:butt;stroke-linejoin:miter;stroke-miterlimit:4;stroke-dasharray:none;stroke-opacity:1"
     d="m 42.583909,48.799579 c -1.0948,-0.692 -1.8442,1.204 -2.1202,1.667 -0.276,0.474 -1.2079,1.718 -2.0574,2.594 -0.8546,0.88 -1.541,2.343 -3.1614,4.015 -0.8438,0.88 -1.1198,2.271 0.2084,3.448 1.3172,1.166 2.464,0.865 3.3333,-0.353 0.8692,-1.219 1.1667,-2.73 1.9583,-4.022 0.787,-1.286 1.7136,-2.53 2.4786,-3.469 0.8803,-1.067 0.9178,-1.921 0.699,-2.343 -0.5572,-1.062 -1.3386,-1.537 -1.3386,-1.537 z"
     id="path422" />
  <path
     style="fill:#231f20;fill-opacity:1;fill-rule:nonzero;stroke:none"
     d="m 278.71801,110.82658 c -0.744,-1.131 -0.167,-1.932 0.839,-2.189 0.297,-0.073 0.48,-0.453 0.776,-0.5 0.693,-0.114 2.078,0.954 1.485,2.328 -0.048,0.099 -0.131,0.912 -0.287,1.511 -0.313,1.172 -1.5,3.37 -4.094,4.115 -1.224,0.355 -1.208,-0.438 -0.755,-0.729 1.437,-0.933 1.385,-1.298 1.672,-1.678 0.984,-1.29 0.364,-2.858 0.364,-2.858"
     id="path423" />
  <path
     style="fill:none;stroke:#231f20;stroke-width:0.332927;stroke-linecap:butt;stroke-linejoin:miter;stroke-miterlimit:4;stroke-dasharray:none;stroke-opacity:1"
     d="m 278.71801,110.82658 c -0.744,-1.131 -0.167,-1.932 0.839,-2.189 0.297,-0.073 0.48,-0.453 0.776,-0.5 0.693,-0.114 2.078,0.954 1.485,2.328 -0.048,0.099 -0.131,0.912 -0.287,1.511 -0.313,1.172 -1.5,3.37 -4.094,4.115 -1.224,0.355 -1.208,-0.438 -0.755,-0.729 1.437,-0.933 1.385,-1.298 1.672,-1.678 0.984,-1.29 0.364,-2.858 0.364,-2.858 z"
     id="path424" />
  <path
     style="fill:#231f20;fill-opacity:1;fill-rule:nonzero;stroke:none"
     d="m 286.42201,93.731575 c -2.027,-1.02 -2.552,-0.947 -3.043,-0.119 -0.322,0.547 -0.812,0.943 -1.03,1.271 -0.708,1.088 -1.459,3.203 -2.022,9.760005 -0.124,1.489 -0.317,3.573 -0.462,4.421 -0.23,1.339 2.145,0.819 2.238,0.292 0.314,-1.686 0.662,-2.817 0.86,-3.41 0.135,-0.407 0.271,-1.158 0.995,-2.658 1.093,-2.281 2.084,-3.478005 2.771,-5.484005 0.322,-0.927 1.156,-1.421 0.994,-2.494 -0.14,-1.074 -1.301,-1.579 -1.301,-1.579"
     id="path425" />
  <path
     style="fill:none;stroke:#231f20;stroke-width:0.565977;stroke-linecap:butt;stroke-linejoin:miter;stroke-miterlimit:4;stroke-dasharray:none;stroke-opacity:1"
     d="m 286.42201,93.731575 c -2.027,-1.02 -2.552,-0.947 -3.043,-0.119 -0.322,0.547 -0.812,0.943 -1.03,1.271 -0.708,1.088 -1.459,3.203 -2.022,9.760005 -0.124,1.489 -0.317,3.573 -0.462,4.421 -0.23,1.339 2.145,0.819 2.238,0.292 0.314,-1.686 0.662,-2.817 0.86,-3.41 0.135,-0.407 0.271,-1.158 0.995,-2.658 1.093,-2.281 2.084,-3.478005 2.771,-5.484005 0.322,-0.927 1.156,-1.421 0.994,-2.494 -0.14,-1.074 -1.301,-1.579 -1.301,-1.579 z"
     id="path426" />
  <path
     style="fill:#0098c9;fill-opacity:1;fill-rule:nonzero;stroke:none"
     d="m 294.05101,68.050575 c -1.667,2.655 -2.306,3.046 -3.066,3.572 -4.746,3.302 -3.038,5.567 -0.355,6.63 3.15,1.256 4.26,1.765 7.078,-3.864 0.78,-1.568 4.572,-7.182 4.572,-7.182 1.626,-1.823 2.24,-4.474996 1.651,-5.807996 -0.619,-1.406 -0.473,-0.802 -1.285,-1.995 -0.772,-1.145 -2.746,-2.078 -3.876,-1.572 -1.083,0.489 -1.271,2.145 -1.848,4.494 -0.464,1.859 -2.871,5.724996 -2.871,5.724996"
     id="path427" />
  <path
     style="fill:none;stroke:#231f20;stroke-width:0.565977;stroke-linecap:butt;stroke-linejoin:miter;stroke-miterlimit:4;stroke-dasharray:none;stroke-opacity:1"
     d="m 294.05101,68.050575 c -1.667,2.655 -2.306,3.046 -3.066,3.572 -4.746,3.302 -3.038,5.567 -0.355,6.63 3.15,1.256 4.26,1.765 7.078,-3.864 0.78,-1.568 4.572,-7.182 4.572,-7.182 1.626,-1.823 2.24,-4.474996 1.651,-5.807996 -0.619,-1.406 -0.473,-0.802 -1.285,-1.995 -0.772,-1.145 -2.746,-2.078 -3.876,-1.572 -1.083,0.489 -1.271,2.145 -1.848,4.494 -0.464,1.859 -2.871,5.724996 -2.871,5.724996 z"
     id="path428" />
  <path
     style="fill:#ffffff;fill-opacity:1;fill-rule:nonzero;stroke:none"
     d="m 307.91601,56.242579 c 0.182,-0.167 1.167,0.422 1.468,-0.006 0.303,-0.426 -0.208,-1.03 0.131,-2.989 l 0.005,-0.02 c 0.298,-1.428 -0.016,-2.776 -0.98,-3.584 -1.593,-1.328 -4.353,-0.645 -6.161,1.521 -1.812,2.167 -1.984,5.006 -0.391,6.334 1.527,1.276 4.126,0.702 5.928,-1.256"
     id="path429" />
  <path
     style="fill:none;stroke:#231f20;stroke-width:0.565977;stroke-linecap:butt;stroke-linejoin:miter;stroke-miterlimit:4;stroke-dasharray:none;stroke-opacity:1"
     d="m 307.91601,56.242579 c 0.182,-0.167 1.167,0.422 1.468,-0.006 0.303,-0.426 -0.208,-1.03 0.131,-2.989 l 0.005,-0.02 c 0.298,-1.428 -0.016,-2.776 -0.98,-3.584 -1.593,-1.328 -4.353,-0.645 -6.161,1.521 -1.812,2.167 -1.984,5.006 -0.391,6.334 1.527,1.276 4.126,0.702 5.928,-1.256 z"
     id="path430" />
  <path
     style="fill:#231f20;fill-opacity:1;fill-rule:nonzero;stroke:none"
     d="m 284.83301,95.622575 c 3.417,2.109 3.77,-1.958 4.026,-2.364 2.646,-4.255 2.73,-4.626 4.52,-8.006 2.584,-4.885 3.609,-8.625 1.209,-10.964 -1.63,-1.583 -3.261,-1.79 -4.458,-1.249 -1.333,0.599 -3.303,3.088 -2.344,5.817 l -0.369,1.678 c -0.396,1.093 -0.584,1.636 -0.819,2.155 -0.416,0.918 -0.796,1.918 -1.504,3.746 -1.251,3.244 -1.511,7.073 -1.511,7.073 -0.417,1.171 1.25,2.114 1.25,2.114"
     id="path431" />
  <path
     style="fill:none;stroke:#231f20;stroke-width:0.565977;stroke-linecap:butt;stroke-linejoin:miter;stroke-miterlimit:4;stroke-dasharray:none;stroke-opacity:1"
     d="m 284.83301,95.622575 c 3.417,2.109 3.77,-1.958 4.026,-2.364 2.646,-4.255 2.73,-4.626 4.52,-8.006 2.584,-4.885 3.609,-8.625 1.209,-10.964 -1.63,-1.583 -3.261,-1.79 -4.458,-1.249 -1.333,0.599 -3.303,3.088 -2.344,5.817 l -0.369,1.678 c -0.396,1.093 -0.584,1.636 -0.819,2.155 -0.416,0.918 -0.796,1.918 -1.504,3.746 -1.251,3.244 -1.511,7.073 -1.511,7.073 -0.417,1.171 1.25,2.114 1.25,2.114 z"
     id="path432" />
  <path
     style="fill:#0098c9;fill-opacity:1;fill-rule:nonzero;stroke:none"
     d="m 296.11401,77.394575 c -0.151,-1.543 -0.739,-2.772 -1.954,-3.606 -1.869,-1.285 -3.505,-1.224 -4.598,-0.494 -1.219,0.818 -2.749,3.604 -1.349,6.13 l 7.485,2.255 c 0.15,-0.64 0.254,-1.244 0.333,-1.823 0.036,-0.072 0.072,-0.14 0.109,-0.197 0.468,-0.666 0.296,-1.271 -0.026,-2.265"
     id="path433" />
  <path
     style="fill:none;stroke:#231f20;stroke-width:0.565977;stroke-linecap:butt;stroke-linejoin:miter;stroke-miterlimit:4;stroke-dasharray:none;stroke-opacity:1"
     d="m 296.11401,77.394575 c -0.151,-1.543 -0.739,-2.772 -1.954,-3.606 -1.869,-1.285 -3.505,-1.224 -4.598,-0.494 -1.219,0.818 -2.749,3.604 -1.349,6.13 l 7.485,2.255 c 0.15,-0.64 0.254,-1.244 0.333,-1.823 0.036,-0.072 0.072,-0.14 0.109,-0.197 0.468,-0.666 0.296,-1.271 -0.026,-2.265 z"
     id="path434" />
  <path
     style="fill:#231f20;fill-opacity:1;fill-rule:nonzero;stroke:none"
     d="m 308.78001,42.372579 c 0.131,0.631 -0.828,2.323 -1.02,3.922 -0.13,1.078 -1.548,3.433 -1.594,4.516 -0.047,0.989 -0.162,1.442 -1.302,1.584 -0.677,0.082 -2.042,-0.188 -2.12,-0.694 -0.208,-1.172 0.011,-2.098 0.468,-3.062 0.522,-1.099 2.194,-3.954 2.548,-4.454 0.895,-1.233 0.864,-1.968 1.067,-2.322 0.38,-0.656 0.729,-0.667 1.209,-0.516 0.911,0.302 0.744,1.026 0.744,1.026"
     id="path435" />
  <path
     style="fill:none;stroke:#231f20;stroke-width:0.565977;stroke-linecap:butt;stroke-linejoin:miter;stroke-miterlimit:4;stroke-dasharray:none;stroke-opacity:1"
     d="m 308.78001,42.372579 c 0.131,0.631 -0.828,2.323 -1.02,3.922 -0.13,1.078 -1.548,3.433 -1.594,4.516 -0.047,0.989 -0.162,1.442 -1.302,1.584 -0.677,0.082 -2.042,-0.188 -2.12,-0.694 -0.208,-1.172 0.011,-2.098 0.468,-3.062 0.522,-1.099 2.194,-3.954 2.548,-4.454 0.895,-1.233 0.864,-1.968 1.067,-2.322 0.38,-0.656 0.729,-0.667 1.209,-0.516 0.911,0.302 0.744,1.026 0.744,1.026 z"
     id="path436" />
  <path
     style="fill:#231f20;fill-opacity:1;fill-rule:nonzero;stroke:none"
     d="m 305.49401,50.815579 c 1.152,0.599 -0.11,2.197 -0.375,2.672 -0.265,0.473 -0.875,1.907 -1.197,3.083 -0.334,1.182 -1.251,2.51 -1.876,4.755 -0.334,1.173 -1.4,2.115 -3.088,1.558 -1.667,-0.547 -1.984,-1.694 -1.37,-3.058 0.61,-1.365 1.766,-2.379 2.484,-3.713 0.719,-1.333 1.318,-2.756 1.746,-3.896 0.478,-1.297 1.197,-1.756 1.676,-1.781 1.193,-0.057 2,0.38 2,0.38"
     id="path437" />
  <path
     style="fill:none;stroke:#231f20;stroke-width:0.565977;stroke-linecap:butt;stroke-linejoin:miter;stroke-miterlimit:4;stroke-dasharray:none;stroke-opacity:1"
     d="m 305.49401,50.815579 c 1.152,0.599 -0.11,2.197 -0.375,2.672 -0.265,0.473 -0.875,1.907 -1.197,3.083 -0.334,1.182 -1.251,2.51 -1.876,4.755 -0.334,1.173 -1.4,2.115 -3.088,1.558 -1.667,-0.547 -1.984,-1.694 -1.37,-3.058 0.61,-1.365 1.766,-2.379 2.484,-3.713 0.719,-1.333 1.318,-2.756 1.746,-3.896 0.478,-1.297 1.197,-1.756 1.676,-1.781 1.193,-0.057 2,0.38 2,0.38 z"
     id="path438" />
  <path
     style="fill:#231f20;fill-opacity:1;fill-rule:nonzero;stroke:none"
     d="m 62.865009,116.95558 c 1.162,-0.692 0.984,-1.667 0.187,-2.333 -0.234,-0.198 -0.234,-0.615 -0.479,-0.786 -0.579,-0.407 -2.286,-0.042 -2.344,1.458 -0.006,0.104 -0.281,0.876 -0.396,1.485 -0.229,1.192 -0.104,3.686 1.912,5.478 0.948,0.85 1.276,0.131 0.995,-0.333 -0.891,-1.459 -0.688,-1.765 -0.782,-2.229 -0.328,-1.588 0.907,-2.74 0.907,-2.74"
     id="path439" />
  <path
     style="fill:none;stroke:#231f20;stroke-width:0.332927;stroke-linecap:butt;stroke-linejoin:miter;stroke-miterlimit:4;stroke-dasharray:none;stroke-opacity:1"
     d="m 62.865009,116.95558 c 1.162,-0.692 0.984,-1.667 0.187,-2.333 -0.234,-0.198 -0.234,-0.615 -0.479,-0.786 -0.579,-0.407 -2.286,-0.042 -2.344,1.458 -0.006,0.104 -0.281,0.876 -0.396,1.485 -0.229,1.192 -0.104,3.686 1.912,5.478 0.948,0.85 1.276,0.131 0.995,-0.333 -0.891,-1.459 -0.688,-1.765 -0.782,-2.229 -0.328,-1.588 0.907,-2.74 0.907,-2.74 z"
     id="path440" />
  <path
     style="fill:#231f20;fill-opacity:1;fill-rule:nonzero;stroke:none"
     d="m 63.313009,98.211575 c 2.26,-0.041 2.708,0.249 2.791,1.208 0.057,0.636005 0.328,1.208005 0.381,1.593005 0.171,1.287 -0.068,3.516 -2.401,9.672 -0.527,1.396 -1.262,3.366 -1.49,4.193 -0.371,1.302 -2.292,-0.198 -2.146,-0.707 0.448,-1.662 0.62,-2.83 0.698,-3.448 0.058,-0.428 0.255,-1.162 0.255,-2.828 0,-2.527 -0.374,-4.038 -0.131,-6.142 0.11,-0.973 -0.426,-1.781005 0.183,-2.677005 0.593,-0.911 1.86,-0.864 1.86,-0.864"
     id="path441" />
  <path
     style="fill:none;stroke:#231f20;stroke-width:0.565977;stroke-linecap:butt;stroke-linejoin:miter;stroke-miterlimit:4;stroke-dasharray:none;stroke-opacity:1"
     d="m 63.313009,98.211575 c 2.26,-0.041 2.708,0.249 2.791,1.208 0.057,0.636005 0.328,1.208005 0.381,1.593005 0.171,1.287 -0.068,3.516 -2.401,9.672 -0.527,1.396 -1.262,3.366 -1.49,4.193 -0.371,1.302 -2.292,-0.198 -2.146,-0.707 0.448,-1.662 0.62,-2.83 0.698,-3.448 0.058,-0.428 0.255,-1.162 0.255,-2.828 0,-2.527 -0.374,-4.038 -0.131,-6.142 0.11,-0.973 -0.426,-1.781005 0.183,-2.677005 0.593,-0.911 1.86,-0.864 1.86,-0.864 z"
     id="path442" />
  <path
     style="fill:#0098c9;fill-opacity:1;fill-rule:nonzero;stroke:none"
     d="m 67.537009,71.758575 c 0.348,3.114 0.765,3.745 1.219,4.547 2.848,5.026 0.328,6.332 -2.548,6.13 -3.386,-0.23 -4.604,-0.246 -4.714,-6.541 -0.025,-1.756 -1.014,-8.454 -1.014,-8.454 -0.678,-2.348996 -0.084,-5.004996 1.02,-5.952996 1.166,-1 0.776,-0.516 2.021,-1.245 1.192,-0.692 3.38,-0.687 4.172,0.261 0.771,0.905 0.224,2.484 -0.271,4.852996 -0.385,1.875 0.115,6.402 0.115,6.402"
     id="path443" />
  <path
     style="fill:none;stroke:#231f20;stroke-width:0.565977;stroke-linecap:butt;stroke-linejoin:miter;stroke-miterlimit:4;stroke-dasharray:none;stroke-opacity:1"
     d="m 67.537009,71.758575 c 0.348,3.114 0.765,3.745 1.219,4.547 2.848,5.026 0.328,6.332 -2.548,6.13 -3.386,-0.23 -4.604,-0.246 -4.714,-6.541 -0.025,-1.756 -1.014,-8.454 -1.014,-8.454 -0.678,-2.348996 -0.084,-5.004996 1.02,-5.952996 1.166,-1 0.776,-0.516 2.021,-1.245 1.192,-0.692 3.38,-0.687 4.172,0.261 0.771,0.905 0.224,2.484 -0.271,4.852996 -0.385,1.875 0.115,6.402 0.115,6.402 z"
     id="path444" />
  <path
     style="fill:#ffffff;fill-opacity:1;fill-rule:nonzero;stroke:none"
     d="m 60.135009,55.118579 c -0.089,-0.23 -1.229,-0.126 -1.317,-0.642 -0.0888,-0.516 0.63,-0.838 1.171,-2.754 l 0.005,-0.022 c 0.35,-1.412 1.219,-2.494 2.434,-2.802 2.014,-0.515 4.207,1.297 4.894,4.032 0.699,2.74 -0.374,5.369 -2.385,5.88 -1.926,0.495 -4.02,-1.151 -4.802,-3.692"
     id="path445" />
  <path
     style="fill:none;stroke:#231f20;stroke-width:0.565977;stroke-linecap:butt;stroke-linejoin:miter;stroke-miterlimit:4;stroke-dasharray:none;stroke-opacity:1"
     d="m 60.135009,55.118579 c -0.089,-0.23 -1.229,-0.126 -1.317,-0.642 -0.0888,-0.516 0.63,-0.838 1.171,-2.754 l 0.005,-0.022 c 0.35,-1.412 1.219,-2.494 2.434,-2.802 2.014,-0.515 4.207,1.297 4.894,4.032 0.699,2.74 -0.374,5.369 -2.385,5.88 -1.926,0.495 -4.02,-1.151 -4.802,-3.692 z"
     id="path446" />
  <path
     style="fill:#231f20;fill-opacity:1;fill-rule:nonzero;stroke:none"
     d="m 63.922009,100.60758 c -3.99,0.421 -2.552,-3.396005 -2.604,-3.876005 -0.548,-4.979 -0.464,-5.348 -0.614,-9.171 -0.219,-5.521 0.473,-9.338 3.65,-10.407 2.151,-0.724 3.714,-0.207 4.563,0.798 0.937,1.119 1.635,4.219 -0.406,6.265 l -0.391,1.667 c -0.115,1.156 -0.183,1.724 -0.192,2.296 -0.027,1.005 -0.11,2.079 -0.267,4.032 -0.276,3.463 -1.697,7.03 -1.697,7.03 -0.125,1.241005 -2.042,1.366005 -2.042,1.366005"
     id="path447" />
  <path
     style="fill:none;stroke:#231f20;stroke-width:0.565977;stroke-linecap:butt;stroke-linejoin:miter;stroke-miterlimit:4;stroke-dasharray:none;stroke-opacity:1"
     d="m 63.922009,100.60758 c -3.99,0.421 -2.552,-3.396005 -2.604,-3.876005 -0.548,-4.979 -0.464,-5.348 -0.614,-9.171 -0.219,-5.521 0.473,-9.338 3.65,-10.407 2.151,-0.724 3.714,-0.207 4.563,0.798 0.937,1.119 1.635,4.219 -0.406,6.265 l -0.391,1.667 c -0.115,1.156 -0.183,1.724 -0.192,2.296 -0.027,1.005 -0.11,2.079 -0.267,4.032 -0.276,3.463 -1.697,7.03 -1.697,7.03 -0.125,1.241005 -2.042,1.366005 -2.042,1.366005 z"
     id="path448" />
  <path
     style="fill:#0098c9;fill-opacity:1;fill-rule:nonzero;stroke:none"
     d="m 69.318009,78.429575 c -0.672,-1.135 -2.119,-1.901 -4.365,-1.546 -1.453,0.234 -2.516,1.082 -3.318,2.411 -0.724,0.75 -1.141,1.223 -1.005,2.026 0.011,0.068 0.016,0.145 0.016,0.224 -0.177,0.563 -0.344,1.145 -0.485,1.792 l 7.719,1.203 c 2.354,-1.672 2.177,-4.85 1.438,-6.11"
     id="path449" />
  <path
     style="fill:none;stroke:#231f20;stroke-width:0.565977;stroke-linecap:butt;stroke-linejoin:miter;stroke-miterlimit:4;stroke-dasharray:none;stroke-opacity:1"
     d="m 69.318009,78.429575 c -0.672,-1.135 -2.119,-1.901 -4.365,-1.546 -1.453,0.234 -2.516,1.082 -3.318,2.411 -0.724,0.75 -1.141,1.223 -1.005,2.026 0.011,0.068 0.016,0.145 0.016,0.224 -0.177,0.563 -0.344,1.145 -0.485,1.792 l 7.719,1.203 c 2.354,-1.672 2.177,-4.85 1.438,-6.11 z"
     id="path450" />
  <path
     style="fill:#231f20;fill-opacity:1;fill-rule:nonzero;stroke:none"
     d="m 65.354009,42.236579 c -0.39,0.511 -0.255,2.454 -0.776,3.98 -0.344,1.026 -0.089,3.76 -0.515,4.76 -0.386,0.912 -0.479,1.37 0.489,1.99 0.578,0.37 1.923,0.708 2.218,0.292 0.688,-0.97 0.891,-1.896 0.896,-2.964 0.006,-1.214 -0.265,-4.515 -0.374,-5.115 -0.271,-1.505 0.078,-2.151 0.041,-2.557 -0.063,-0.755 -0.364,-0.922 -0.864,-0.99 -0.953,-0.12 -1.115,0.604 -1.115,0.604"
     id="path451" />
  <path
     style="fill:none;stroke:#231f20;stroke-width:0.565977;stroke-linecap:butt;stroke-linejoin:miter;stroke-miterlimit:4;stroke-dasharray:none;stroke-opacity:1"
     d="m 65.354009,42.236579 c -0.39,0.511 -0.255,2.454 -0.776,3.98 -0.344,1.026 -0.089,3.76 -0.515,4.76 -0.386,0.912 -0.479,1.37 0.489,1.99 0.578,0.37 1.923,0.708 2.218,0.292 0.688,-0.97 0.891,-1.896 0.896,-2.964 0.006,-1.214 -0.265,-4.515 -0.374,-5.115 -0.271,-1.505 0.078,-2.151 0.041,-2.557 -0.063,-0.755 -0.364,-0.922 -0.864,-0.99 -0.953,-0.12 -1.115,0.604 -1.115,0.604 z"
     id="path452" />
  <path
     style="fill:#231f20;fill-opacity:1;fill-rule:nonzero;stroke:none"
     d="m 64.666009,51.268579 c -1.29,0.047 -0.848,2.031 -0.817,2.574 0.036,0.541 -0.036,2.098 -0.25,3.296 -0.214,1.208 0.042,2.808 -0.365,5.098 -0.207,1.204 0.35,2.511 2.11,2.74 1.74,0.23 2.521,-0.666 2.557,-2.161 0.036,-1.495 -0.562,-2.917 -0.631,-4.427 -0.071,-1.511 -0.005,-3.057 0.11,-4.266 0.131,-1.375 -0.323,-2.104 -0.745,-2.328 -1.051,-0.567 -1.969,-0.526 -1.969,-0.526"
     id="path453" />
  <path
     style="fill:none;stroke:#231f20;stroke-width:0.565977;stroke-linecap:butt;stroke-linejoin:miter;stroke-miterlimit:4;stroke-dasharray:none;stroke-opacity:1"
     d="m 64.666009,51.268579 c -1.29,0.047 -0.848,2.031 -0.817,2.574 0.036,0.541 -0.036,2.098 -0.25,3.296 -0.214,1.208 0.042,2.808 -0.365,5.098 -0.207,1.204 0.35,2.511 2.11,2.74 1.74,0.23 2.521,-0.666 2.557,-2.161 0.036,-1.495 -0.562,-2.917 -0.631,-4.427 -0.071,-1.511 -0.005,-3.057 0.11,-4.266 0.131,-1.375 -0.323,-2.104 -0.745,-2.328 -1.051,-0.567 -1.969,-0.526 -1.969,-0.526 z"
     id="path454" />
  <path
     style="fill:#231f20;fill-opacity:1;fill-rule:nonzero;stroke:none"
     d="m 138.04601,84.856575 c 0.396,-1.292 -0.385,-1.901 -1.421,-1.863 -0.307,0.005 -0.583,-0.304 -0.885,-0.266 -0.698,0.083 -1.724,1.495 -0.771,2.65 0.063,0.083 0.375,0.839 0.697,1.37 0.62,1.041 2.376,2.817 5.074,2.808 1.276,0 1.041,-0.756 0.525,-0.912 -1.64,-0.49 -1.692,-0.855 -2.072,-1.14 -1.308,-0.969 -1.147,-2.647 -1.147,-2.647"
     id="path455" />
  <path
     style="fill:none;stroke:#231f20;stroke-width:0.332927;stroke-linecap:butt;stroke-linejoin:miter;stroke-miterlimit:4;stroke-dasharray:none;stroke-opacity:1"
     d="m 138.04601,84.856575 c 0.396,-1.292 -0.385,-1.901 -1.421,-1.863 -0.307,0.005 -0.583,-0.304 -0.885,-0.266 -0.698,0.083 -1.724,1.495 -0.771,2.65 0.063,0.083 0.375,0.839 0.697,1.37 0.62,1.041 2.376,2.817 5.074,2.808 1.276,0 1.041,-0.756 0.525,-0.912 -1.64,-0.49 -1.692,-0.855 -2.072,-1.14 -1.308,-0.969 -1.147,-2.647 -1.147,-2.647 z"
     id="path456" />
  <path
     style="fill:#231f20;fill-opacity:1;fill-rule:nonzero;stroke:none"
     d="m 125.87401,70.591575 c 1.663,-1.541 2.188,-1.626 2.887,-0.964 0.468,0.437 1.047,0.683 1.343,0.933 0.99,0.848 2.297,2.667 4.666,8.812 0.538,1.391 1.303,3.339 1.683,4.115 0.593,1.218 -1.839,1.385 -2.073,0.907 -0.771,-1.538 -1.422,-2.522 -1.776,-3.038 -0.239,-0.353 -0.583,-1.036 -1.698,-2.276 -1.682,-1.885 -2.969,-2.76 -4.188,-4.489 -0.566,-0.803 -1.505,-1.047 -1.656,-2.12 -0.156,-1.073 0.812,-1.88 0.812,-1.88"
     id="path457" />
  <path
     style="fill:none;stroke:#231f20;stroke-width:0.565977;stroke-linecap:butt;stroke-linejoin:miter;stroke-miterlimit:4;stroke-dasharray:none;stroke-opacity:1"
     d="m 125.87401,70.591575 c 1.663,-1.541 2.188,-1.626 2.887,-0.964 0.468,0.437 1.047,0.683 1.343,0.933 0.99,0.848 2.297,2.667 4.666,8.812 0.538,1.391 1.303,3.339 1.683,4.115 0.593,1.218 -1.839,1.385 -2.073,0.907 -0.771,-1.538 -1.422,-2.522 -1.776,-3.038 -0.239,-0.353 -0.583,-1.036 -1.698,-2.276 -1.682,-1.885 -2.969,-2.76 -4.188,-4.489 -0.566,-0.803 -1.505,-1.047 -1.656,-2.12 -0.156,-1.073 0.812,-1.88 0.812,-1.88 z"
     id="path458" />
  <path
     style="fill:#0098c9;fill-opacity:1;fill-rule:nonzero;stroke:none"
     d="m 111.38501,48.060579 c 2.339,2.088 3.063,2.28 3.937,2.572 5.48,1.844 4.47,4.506 2.194,6.271 -2.678,2.084 -3.599,2.885 -7.88,-1.733 -1.183,-1.292 -6.386,-5.626 -6.386,-5.626 -2.078,-1.297 -3.406001,-3.672 -3.213,-5.114 0.203,-1.522 0.233,-0.902 0.676,-2.276 0.428,-1.318 2.063,-2.766 3.287,-2.59 1.177,0.167 1.818,1.704 3.032,3.803 0.962,1.651 4.353,4.693 4.353,4.693"
     id="path459" />
  <path
     style="fill:none;stroke:#231f20;stroke-width:0.565977;stroke-linecap:butt;stroke-linejoin:miter;stroke-miterlimit:4;stroke-dasharray:none;stroke-opacity:1"
     d="m 111.38501,48.060579 c 2.339,2.088 3.063,2.28 3.937,2.572 5.48,1.844 4.47,4.506 2.194,6.271 -2.678,2.084 -3.599,2.885 -7.88,-1.733 -1.183,-1.292 -6.386,-5.626 -6.386,-5.626 -2.078,-1.297 -3.406001,-3.672 -3.213,-5.114 0.203,-1.522 0.233,-0.902 0.676,-2.276 0.428,-1.318 2.063,-2.766 3.287,-2.59 1.177,0.167 1.818,1.704 3.032,3.803 0.962,1.651 4.353,4.693 4.353,4.693 z"
     id="path460" />
  <path
     style="fill:#ffffff;fill-opacity:1;fill-rule:nonzero;stroke:none"
     d="m 95.292009,37.654579 c -0.14,-0.208 -1.224,0.156 -1.427,-0.323 -0.204,-0.485 0.421,-0.964 0.511,-2.953 v -0.022 c 0.009,-1.453 0.609,-2.708 1.722,-3.286 1.839,-0.958 4.391001,0.292 5.694001,2.797 1.302,2.511 0.864,5.317 -0.979,6.276 -1.756001,0.921 -4.177001,-0.197 -5.521001,-2.489"
     id="path461" />
  <path
     style="fill:none;stroke:#231f20;stroke-width:0.565977;stroke-linecap:butt;stroke-linejoin:miter;stroke-miterlimit:4;stroke-dasharray:none;stroke-opacity:1"
     d="m 95.292009,37.654579 c -0.14,-0.208 -1.224,0.156 -1.427,-0.323 -0.204,-0.485 0.421,-0.964 0.511,-2.953 v -0.022 c 0.009,-1.453 0.609,-2.708 1.722,-3.286 1.839,-0.958 4.391001,0.292 5.694001,2.797 1.302,2.511 0.864,5.317 -0.979,6.276 -1.756001,0.921 -4.177001,-0.197 -5.521001,-2.489 z"
     id="path462" />
  <path
     style="fill:#231f20;fill-opacity:1;fill-rule:nonzero;stroke:none"
     d="m 127.92801,71.965575 c -2.694,2.975 -4.167,-0.827 -4.522,-1.15 -3.734,-3.344 -3.917,-3.677 -6.578,-6.426996 -3.848,-3.964 -5.87,-7.27 -4.219,-10.188 1.125,-1.973 2.631,-2.63 3.932,-2.448 1.448,0.208 4.037,2.047 3.876,4.937 l 0.823,1.5 c 0.682,0.943 1.01,1.412 1.385,1.85 0.651,0.76 1.303,1.62 2.489,3.177 2.104,2.765996 3.423,6.369996 3.423,6.369996 0.733,1.01 -0.609,2.379 -0.609,2.379"
     id="path463" />
  <path
     style="fill:none;stroke:#231f20;stroke-width:0.565977;stroke-linecap:butt;stroke-linejoin:miter;stroke-miterlimit:4;stroke-dasharray:none;stroke-opacity:1"
     d="m 127.92801,71.965575 c -2.694,2.975 -4.167,-0.827 -4.522,-1.15 -3.734,-3.344 -3.917,-3.677 -6.578,-6.426996 -3.848,-3.964 -5.87,-7.27 -4.219,-10.188 1.125,-1.973 2.631,-2.63 3.932,-2.448 1.448,0.208 4.037,2.047 3.876,4.937 l 0.823,1.5 c 0.682,0.943 1.01,1.412 1.385,1.85 0.651,0.76 1.303,1.62 2.489,3.177 2.104,2.765996 3.423,6.369996 3.423,6.369996 0.733,1.01 -0.609,2.379 -0.609,2.379 z"
     id="path464" />
  <path
     style="fill:#0098c9;fill-opacity:1;fill-rule:nonzero;stroke:none"
     d="m 117.16101,51.842579 c -1.255,-0.396 -2.848,0 -4.281,1.754 -0.932,1.146 -1.156,2.49 -0.87,4.016 -0.03,1.042 -0.03,1.672 0.604,2.176 0.052,0.048 0.11,0.1 0.162,0.158 0.24,0.536 0.505,1.082 0.828,1.655 l 6.557,-4.245 c 0.641,-2.822 -1.609,-5.068 -3,-5.514"
     id="path465" />
  <path
     style="fill:none;stroke:#231f20;stroke-width:0.565977;stroke-linecap:butt;stroke-linejoin:miter;stroke-miterlimit:4;stroke-dasharray:none;stroke-opacity:1"
     d="m 117.16101,51.842579 c -1.255,-0.396 -2.848,0 -4.281,1.754 -0.932,1.146 -1.156,2.49 -0.87,4.016 -0.03,1.042 -0.03,1.672 0.604,2.176 0.052,0.048 0.11,0.1 0.162,0.158 0.24,0.536 0.505,1.082 0.828,1.655 l 6.557,-4.245 c 0.641,-2.822 -1.609,-5.068 -3,-5.514 z"
     id="path466" />
  <path
     style="fill:#231f20;fill-opacity:1;fill-rule:nonzero;stroke:none"
     d="m 83.953009,41.512579 c 0.489,0.418 2.437,0.376 3.932,0.97 1.011,0.401 3.756,0.281 4.729,0.754 0.891,0.434 1.344,0.548 2.016,-0.39 0.391,-0.552 0.802,-1.88 0.396,-2.198 -0.932,-0.734 -1.849,-0.984 -2.911,-1.041 -1.214,-0.068 -4.521,0.041 -5.13,0.115 -1.511,0.202 -2.141,-0.183 -2.548,-0.167 -0.76,0.02 -0.943,0.317 -1.031,0.812 -0.172,0.948 0.547,1.145 0.547,1.145"
     id="path467" />
  <path
     style="fill:none;stroke:#231f20;stroke-width:0.565977;stroke-linecap:butt;stroke-linejoin:miter;stroke-miterlimit:4;stroke-dasharray:none;stroke-opacity:1"
     d="m 83.953009,41.512579 c 0.489,0.418 2.437,0.376 3.932,0.97 1.011,0.401 3.756,0.281 4.729,0.754 0.891,0.434 1.344,0.548 2.016,-0.39 0.391,-0.552 0.802,-1.88 0.396,-2.198 -0.932,-0.734 -1.849,-0.984 -2.911,-1.041 -1.214,-0.068 -4.521,0.041 -5.13,0.115 -1.511,0.202 -2.141,-0.183 -2.548,-0.167 -0.76,0.02 -0.943,0.317 -1.031,0.812 -0.172,0.948 0.547,1.145 0.547,1.145 z"
     id="path468" />
  <path
     style="fill:#231f20;fill-opacity:1;fill-rule:nonzero;stroke:none"
     d="m 92.937009,42.648579 c -0.02,1.298 1.991,0.954 2.527,0.943 0.546,-0.005 2.098,0.14 3.286,0.416 1.192,0.277 2.802001,0.105 5.072001,0.62 1.188,0.267 2.522,-0.224 2.839,-1.968 0.313,-1.729 -0.541,-2.552 -2.031,-2.661 -1.489,-0.115 -2.937,0.41 -4.448,0.405 -1.516001,0 -3.057001,-0.151 -4.260001,-0.323 -1.365,-0.192 -2.114,0.219 -2.36,0.631 -0.62,1.02 -0.625,1.937 -0.625,1.937"
     id="path469" />
  <path
     style="fill:none;stroke:#231f20;stroke-width:0.565977;stroke-linecap:butt;stroke-linejoin:miter;stroke-miterlimit:4;stroke-dasharray:none;stroke-opacity:1"
     d="m 92.937009,42.648579 c -0.02,1.298 1.991,0.954 2.527,0.943 0.546,-0.005 2.098,0.14 3.286,0.416 1.192,0.277 2.802001,0.105 5.072001,0.62 1.188,0.267 2.522,-0.224 2.839,-1.968 0.313,-1.729 -0.541,-2.552 -2.031,-2.661 -1.489,-0.115 -2.937,0.41 -4.448,0.405 -1.516001,0 -3.057001,-0.151 -4.260001,-0.323 -1.365,-0.192 -2.114,0.219 -2.36,0.631 -0.62,1.02 -0.625,1.937 -0.625,1.937 z"
     id="path470" />
  <path
     style="fill:#231f20;fill-opacity:1;fill-rule:nonzero;stroke:none"
     d="m 248.68701,24.055579 c -2.098,-2.928 -3.256,-1.699 -7.052,-0.209 -4.146,1.63 -8.302,3.776 -10.666,6.073 -2.642,2.573 -3.115,2.344 -2.584,4.188 0.526,1.848 1.281,1.661 2.485,2.12 1.391,0.525 6.916,-4.333 11.395,-5.912 2.105,-0.74 7.614,-1.151 7.464,-2.588 -0.156,-1.448 -1.042,-3.672 -1.042,-3.672"
     id="path471" />
  <path
     style="fill:none;stroke:#231f20;stroke-width:0.565977;stroke-linecap:butt;stroke-linejoin:miter;stroke-miterlimit:4;stroke-dasharray:none;stroke-opacity:1"
     d="m 248.68701,24.055579 c -2.098,-2.928 -3.256,-1.699 -7.052,-0.209 -4.146,1.63 -8.302,3.776 -10.666,6.073 -2.642,2.573 -3.115,2.344 -2.584,4.188 0.526,1.848 1.281,1.661 2.485,2.12 1.391,0.525 6.916,-4.333 11.395,-5.912 2.105,-0.74 7.614,-1.151 7.464,-2.588 -0.156,-1.448 -1.042,-3.672 -1.042,-3.672 z"
     id="path472" />
  <path
     style="fill:#231f20;fill-opacity:1;fill-rule:nonzero;stroke:none"
     d="m 230.61901,33.998579 c -0.978,-2.043 -1.244,-2.652 -3.297,-1.219 -0.52,0.364 -1.9,1.479 -2.271,1.604 -1.229,0.427 -2.609,1.025 -7.057,5.88 -0.692,0.755 -2.255,1.968 -3.281,2.912 -1.004,0.921 1.193,1.957 1.594,1.604 1.271,-1.147 2.348,-1.609 2.859,-1.953 0.355,-0.246 0.937,-0.803 2.5,-1.375 4.027,-1.459 4.563,-3.177 5.38,-3.553 2.344,-1.094 4.573,-1.542 4.527,-2.214 -0.074,-1.082 -0.954,-1.686 -0.954,-1.686"
     id="path473" />
  <path
     style="fill:none;stroke:#231f20;stroke-width:0.565977;stroke-linecap:butt;stroke-linejoin:miter;stroke-miterlimit:4;stroke-dasharray:none;stroke-opacity:1"
     d="m 230.61901,33.998579 c -0.978,-2.043 -1.244,-2.652 -3.297,-1.219 -0.52,0.364 -1.9,1.479 -2.271,1.604 -1.229,0.427 -2.609,1.025 -7.057,5.88 -0.692,0.755 -2.255,1.968 -3.281,2.912 -1.004,0.921 1.193,1.957 1.594,1.604 1.271,-1.147 2.348,-1.609 2.859,-1.953 0.355,-0.246 0.937,-0.803 2.5,-1.375 4.027,-1.459 4.563,-3.177 5.38,-3.553 2.344,-1.094 4.573,-1.542 4.527,-2.214 -0.074,-1.082 -0.954,-1.686 -0.954,-1.686 z"
     id="path474" />
  <path
     style="fill:#231f20;fill-opacity:1;fill-rule:nonzero;stroke:none"
     d="m 211.38501,44.320579 c 0.37,-0.557 2.136,-0.202 3.844,-1.188 0.349,-0.197 0.724,-0.192 1.093,-0.254 1.496,-0.235 2.969,0.374 0.251,3.068 -0.38,0.369 -2.35,1.098 -2.864,1.686 -1.21,1.418 -4.538,1.527 -4.672,1.027 -0.308,-1.084 2.348,-4.339 2.348,-4.339"
     id="path475" />
  <path
     style="fill:none;stroke:#231f20;stroke-width:0.644548;stroke-linecap:round;stroke-linejoin:round;stroke-miterlimit:4;stroke-dasharray:none;stroke-opacity:1"
     d="m 211.38501,44.320579 c 0.37,-0.557 2.136,-0.202 3.844,-1.188 0.349,-0.197 0.724,-0.192 1.093,-0.254 1.496,-0.235 2.969,0.374 0.251,3.068 -0.38,0.369 -2.35,1.098 -2.864,1.686 -1.21,1.418 -4.538,1.527 -4.672,1.027 -0.308,-1.084 2.348,-4.339 2.348,-4.339 z"
     id="path476" />
  <path
     style="fill:#231f20;fill-opacity:1;fill-rule:nonzero;stroke:#231f20;stroke-width:0.565977;stroke-linecap:round;stroke-linejoin:round;stroke-miterlimit:4;stroke-dasharray:none;stroke-opacity:1"
     d="m 255.04601,11.154579 c 0,0 1.313,0.098 2.297,0.729 0.975,0.625 1.76,1.735 1.76,1.735 l -1.728,2.806 -4.078,-2.505 z"
     id="path477" />
  <path
     style="fill:#231f20;fill-opacity:1;fill-rule:nonzero;stroke:none"
     d="m 251.40601,28.242579 c 1.317,3.354 -0.339,3.656 -3.656,6.032 -3.62,2.604 -7.683,4.926 -10.896,5.661 -3.599,0.823 -3.651,1.339 -4.917,-0.104 -1.266,-1.443 -0.692,-1.975 -0.422,-3.235 0.307,-1.458 7.386,-3.458 11.146,-6.36 1.761,-1.364 5.1,-5.77 6.229,-4.858 1.136,0.91 2.516,2.864 2.516,2.864"
     id="path478" />
  <path
     style="fill:none;stroke:#231f20;stroke-width:0.565977;stroke-linecap:butt;stroke-linejoin:miter;stroke-miterlimit:4;stroke-dasharray:none;stroke-opacity:1"
     d="m 251.40601,28.242579 c 1.317,3.354 -0.339,3.656 -3.656,6.032 -3.62,2.604 -7.683,4.926 -10.896,5.661 -3.599,0.823 -3.651,1.339 -4.917,-0.104 -1.266,-1.443 -0.692,-1.975 -0.422,-3.235 0.307,-1.458 7.386,-3.458 11.146,-6.36 1.761,-1.364 5.1,-5.77 6.229,-4.858 1.136,0.91 2.516,2.864 2.516,2.864 z"
     id="path479" />
  <path
     style="fill:#231f20;fill-opacity:1;fill-rule:nonzero;stroke:none"
     d="m 233.14101,37.924579 c 1.29,1.864 1.686,2.391 -0.568,3.47 -0.574,0.276 -2.23,0.921 -2.522,1.176 -0.978,0.854 -2.181,1.766 -8.604,3.224 -0.994,0.229 -2.817,0.99 -4.15,1.417 -1.303,0.411 -1.11,-2.011 -0.604,-2.183 1.629,-0.546 2.557,-1.244 3.114,-1.52 0.38,-0.188 1.156,-0.417 2.427,-1.496 3.265,-2.77 5.021,-2.394 5.755,-2.916 2.105,-1.494 3.6,-3.202 4.152,-2.833 0.905,0.599 1,1.661 1,1.661"
     id="path480" />
  <path
     style="fill:none;stroke:#231f20;stroke-width:0.565977;stroke-linecap:butt;stroke-linejoin:miter;stroke-miterlimit:4;stroke-dasharray:none;stroke-opacity:1"
     d="m 233.14101,37.924579 c 1.29,1.864 1.686,2.391 -0.568,3.47 -0.574,0.276 -2.23,0.921 -2.522,1.176 -0.978,0.854 -2.181,1.766 -8.604,3.224 -0.994,0.229 -2.817,0.99 -4.15,1.417 -1.303,0.411 -1.11,-2.011 -0.604,-2.183 1.629,-0.546 2.557,-1.244 3.114,-1.52 0.38,-0.188 1.156,-0.417 2.427,-1.496 3.265,-2.77 5.021,-2.394 5.755,-2.916 2.105,-1.494 3.6,-3.202 4.152,-2.833 0.905,0.599 1,1.661 1,1.661 z"
     id="path481" />
  <path
     style="fill:#0098c9;fill-opacity:1;fill-rule:nonzero;stroke:none"
     d="m 243.97901,33.727579 c 0.422,0.26 1.156,0.213 1.156,0.213 0,0 3.646,-4.568 6.755,-4.428 l 0.313,0.172 c 0.323,1.21 0.26,-1.197 0.662,-1.822 1.754,-2.74 5.468,-6.24 6.64,-6.88 1.604,-0.886 4.068,0.03 4.15,-2.131 0,0 0.443,-1.896 -2.118,-3.052 -0.928,-0.411 -2.434,-2.181 -2.434,-2.181 -0.014,0.036 -0.03,0.077 -0.046,0.109 -0.662,1.072 -1.943,1.115 -3.099,0.437 l 0.068,0.036 c -1.131,-0.718 -1.631,-1.937 -1.005,-2.953 0.016,-0.031 0.046,-0.068 0.073,-0.093 0,0 -2.256,-0.552 -3.052,-1.1879996 -2.183,-1.766 -3.767,-0.25 -3.767,-0.25 -1.89,1.0519996 0.131,2.5679996 0.063,4.4019996 -0.047,1.333 -1.484,6.228 -3.14,9.03 -0.376,0.636 -2.552,1.672 -1.328,1.412 l 0.296,0.203 c 1.532,2.708 -0.905,8.021 -0.905,8.021 0,0 0.29,0.687 0.718,0.943"
     id="path482" />
  <path
     style="fill:none;stroke:#231f20;stroke-width:0.565977;stroke-linecap:butt;stroke-linejoin:miter;stroke-miterlimit:4;stroke-dasharray:none;stroke-opacity:1"
     d="m 243.97901,33.727579 c 0.422,0.26 1.156,0.213 1.156,0.213 0,0 3.646,-4.568 6.755,-4.428 l 0.313,0.172 c 0.323,1.21 0.26,-1.197 0.662,-1.822 1.754,-2.74 5.468,-6.24 6.64,-6.88 1.604,-0.886 4.068,0.03 4.15,-2.131 0,0 0.443,-1.896 -2.118,-3.052 -0.928,-0.411 -2.434,-2.181 -2.434,-2.181 -0.014,0.036 -0.03,0.077 -0.046,0.109 -0.662,1.072 -1.943,1.115 -3.099,0.437 l 0.068,0.036 c -1.131,-0.718 -1.631,-1.937 -1.005,-2.953 0.016,-0.031 0.046,-0.068 0.073,-0.093 0,0 -2.256,-0.552 -3.052,-1.1879996 -2.183,-1.766 -3.767,-0.25 -3.767,-0.25 -1.89,1.0519996 0.131,2.5679996 0.063,4.4019996 -0.047,1.333 -1.484,6.228 -3.14,9.03 -0.376,0.636 -2.552,1.672 -1.328,1.412 l 0.296,0.203 c 1.532,2.708 -0.905,8.021 -0.905,8.021 0,0 0.29,0.687 0.718,0.943 z"
     id="path483" />
  <path
     style="fill:#ffffff;fill-opacity:1;fill-rule:nonzero;stroke:none"
     d="m 255.42201,6.5555794 c -0.813,2.703 0.14,5.3799996 2.129,5.9789996 1.986,0.598 4.256,-1.11 5.068,-3.8119996 0.818,-2.704 -0.134,-5.386 -2.125,-5.98 -1.984,-0.604 -4.26,1.104 -5.072,3.813"
     id="path484" />
  <path
     style="fill:none;stroke:#231f20;stroke-width:0.565977;stroke-linecap:butt;stroke-linejoin:miter;stroke-miterlimit:4;stroke-dasharray:none;stroke-opacity:1"
     d="m 255.42201,6.5555794 c -0.813,2.703 0.14,5.3799996 2.129,5.9789996 1.986,0.598 4.256,-1.11 5.068,-3.8119996 0.818,-2.704 -0.134,-5.386 -2.125,-5.98 -1.984,-0.604 -4.26,1.104 -5.072,3.813 z"
     id="path485" />
  <path
     style="fill:#0098c9;fill-opacity:1;fill-rule:nonzero;stroke:none"
     d="m 245.91101,22.003579 c -0.344,-0.032 0.11,-0.505 -0.349,-0.433 -2.932,0.474 -6.479,2.261 -7.688,2.666 -1.208,0.412 2.453,6.355 2.453,6.355 l 1.636,-0.875 c -0.145,0.61 0.495,0.854 0.495,0.854 l -1.593,0.844 c 0,0 3.229,6.224 4.009,5.589 1.084,-0.885 5.011,-3.329 6.48,-5.287 0.801,-1.078 1.177,-1.77 1.177,-1.77 0,0 -2.99,-2.896 -3.718,-4.12 -0.73,-1.224 -2.902,-3.823 -2.902,-3.823"
     id="path486" />
  <path
     style="fill:none;stroke:#231f20;stroke-width:0.565977;stroke-linecap:butt;stroke-linejoin:miter;stroke-miterlimit:4;stroke-dasharray:none;stroke-opacity:1"
     d="m 245.91101,22.003579 c -0.344,-0.032 0.11,-0.505 -0.349,-0.433 -2.932,0.474 -6.479,2.261 -7.688,2.666 -1.208,0.412 2.453,6.355 2.453,6.355 l 1.636,-0.875 c -0.145,0.61 0.495,0.854 0.495,0.854 l -1.593,0.844 c 0,0 3.229,6.224 4.009,5.589 1.084,-0.885 5.011,-3.329 6.48,-5.287 0.801,-1.078 1.177,-1.77 1.177,-1.77 0,0 -2.99,-2.896 -3.718,-4.12 -0.73,-1.224 -2.902,-3.823 -2.902,-3.823 z"
     id="path487" />
  <path
     style="fill:#231f20;fill-opacity:1;fill-rule:nonzero;stroke:none"
     d="m 214.57801,49.856579 c 0.661,-0.014 1.301,-1.702 3.036,-2.629 0.36,-0.188 0.557,-0.505 0.797,-0.792 0.995,-1.141 1.255,-2.713 -2.464,-1.833 -0.52,0.125 -2.182,1.41 -2.953,1.525 -1.843,0.281 -3.692,3.043 -3.339,3.428 0.746,0.823 4.923,0.301 4.923,0.301"
     id="path488" />
  <path
     style="fill:none;stroke:#231f20;stroke-width:0.644548;stroke-linecap:round;stroke-linejoin:round;stroke-miterlimit:4;stroke-dasharray:none;stroke-opacity:1"
     d="m 214.57801,49.856579 c 0.661,-0.014 1.301,-1.702 3.036,-2.629 0.36,-0.188 0.557,-0.505 0.797,-0.792 0.995,-1.141 1.255,-2.713 -2.464,-1.833 -0.52,0.125 -2.182,1.41 -2.953,1.525 -1.843,0.281 -3.692,3.043 -3.339,3.428 0.746,0.823 4.923,0.301 4.923,0.301 z"
     id="path489" />
  <path
     style="fill:#231f20;fill-opacity:1;fill-rule:nonzero;stroke:none"
     d="m 275.76101,33.570579 c -0.642,0.1 -2.287,-0.943 -3.871,-1.219 -1.068,-0.176 -3.353,-1.708 -4.432,-1.807 -0.989,-0.093 -1.432,-0.234 -1.511,-1.38 -0.052,-0.682 0.287,-2.026 0.798,-2.089 1.182,-0.14 2.088,0.12 3.03,0.62 1.074,0.579 3.839,2.391 4.323,2.771 1.188,0.953 1.923,0.953 2.267,1.177 0.634,0.417 0.634,0.76 0.453,1.235 -0.344,0.896 -1.057,0.692 -1.057,0.692"
     id="path490" />
  <path
     style="fill:none;stroke:#231f20;stroke-width:0.565977;stroke-linecap:butt;stroke-linejoin:miter;stroke-miterlimit:4;stroke-dasharray:none;stroke-opacity:1"
     d="m 275.76101,33.570579 c -0.642,0.1 -2.287,-0.943 -3.871,-1.219 -1.068,-0.176 -3.353,-1.708 -4.432,-1.807 -0.989,-0.093 -1.432,-0.234 -1.511,-1.38 -0.052,-0.682 0.287,-2.026 0.798,-2.089 1.182,-0.14 2.088,0.12 3.03,0.62 1.074,0.579 3.839,2.391 4.323,2.771 1.188,0.953 1.923,0.953 2.267,1.177 0.634,0.417 0.634,0.76 0.453,1.235 -0.344,0.896 -1.057,0.692 -1.057,0.692 z"
     id="path491" />
  <path
     style="fill:#231f20;fill-opacity:1;fill-rule:nonzero;stroke:none"
     d="m 266.52101,29.799579 c -1.131,0.631 -1.782,-1.301 -2.027,-1.776 -0.255,-0.484 -1.119,-1.787 -1.921,-2.697 -0.808,-0.928 -1.418,-2.423 -2.943,-4.172 -0.808,-0.927 -1.005,-2.328 0.38,-3.443 1.375,-1.093 2.505,-0.729 3.312,0.531 0.803,1.266 1.021,2.786 1.745,4.12 0.719,1.328 1.579,2.614 2.298,3.589 0.822,1.109 0.812,1.973 0.572,2.38 -0.615,1.031 -1.416,1.468 -1.416,1.468"
     id="path492" />
  <path
     style="fill:none;stroke:#231f20;stroke-width:0.565977;stroke-linecap:butt;stroke-linejoin:miter;stroke-miterlimit:4;stroke-dasharray:none;stroke-opacity:1"
     d="m 266.52101,29.799579 c -1.131,0.631 -1.782,-1.301 -2.027,-1.776 -0.255,-0.484 -1.119,-1.787 -1.921,-2.697 -0.808,-0.928 -1.418,-2.423 -2.943,-4.172 -0.808,-0.927 -1.005,-2.328 0.38,-3.443 1.375,-1.093 2.505,-0.729 3.312,0.531 0.803,1.266 1.021,2.786 1.745,4.12 0.719,1.328 1.579,2.614 2.298,3.589 0.822,1.109 0.812,1.973 0.572,2.38 -0.615,1.031 -1.416,1.468 -1.416,1.468 z"
     id="path493" />
  <path
     style="fill:#231f20;fill-opacity:1;fill-rule:nonzero;stroke:none"
     d="m 249.85401,28.096579 c 0.057,-0.645 -1.084,-2.224 -1.453,-3.786 -0.246,-1.058 -1.912,-3.24 -2.079,-4.312 -0.151,-0.98 -0.323,-1.412 -1.473,-1.428 -0.678,-0.01 -2,0.417 -2.027,0.922 -0.077,1.187 0.245,2.083 0.803,2.99 0.64,1.036 2.62,3.693 3.03,4.145 1.022,1.131 1.068,1.865 1.314,2.188 0.453,0.615 0.801,0.588 1.254,0.38 0.875,-0.401 0.631,-1.099 0.631,-1.099"
     id="path494" />
  <path
     style="fill:none;stroke:#231f20;stroke-width:0.565977;stroke-linecap:butt;stroke-linejoin:miter;stroke-miterlimit:4;stroke-dasharray:none;stroke-opacity:1"
     d="m 249.85401,28.096579 c 0.057,-0.645 -1.084,-2.224 -1.453,-3.786 -0.246,-1.058 -1.912,-3.24 -2.079,-4.312 -0.151,-0.98 -0.323,-1.412 -1.473,-1.428 -0.678,-0.01 -2,0.417 -2.027,0.922 -0.077,1.187 0.245,2.083 0.803,2.99 0.64,1.036 2.62,3.693 3.03,4.145 1.022,1.131 1.068,1.865 1.314,2.188 0.453,0.615 0.801,0.588 1.254,0.38 0.875,-0.401 0.631,-1.099 0.631,-1.099 z"
     id="path495" />
  <path
     style="fill:#231f20;fill-opacity:1;fill-rule:nonzero;stroke:none"
     d="m 244.82201,20.924579 c 1.172,0.563 1.693,-1.412 1.907,-1.906 0.224,-0.5 1,-1.848 1.74,-2.818 0.749,-0.973 1.254,-2.505 2.661,-4.358 0.744,-0.975 0.855,-2.3869996 -0.609,-3.3959996 -1.443,-1.006 -2.547,-0.579 -3.271,0.744 -0.709,1.3129996 -0.833,2.8439996 -1.464,4.2179996 -0.635,1.371 -1.407,2.714 -2.057,3.735 -0.75,1.167 -0.683,2.016 -0.411,2.412 0.671,0.989 1.504,1.369 1.504,1.369"
     id="path496" />
  <path
     style="fill:none;stroke:#231f20;stroke-width:0.565977;stroke-linecap:butt;stroke-linejoin:miter;stroke-miterlimit:4;stroke-dasharray:none;stroke-opacity:1"
     d="m 244.82201,20.924579 c 1.172,0.563 1.693,-1.412 1.907,-1.906 0.224,-0.5 1,-1.848 1.74,-2.818 0.749,-0.973 1.254,-2.505 2.661,-4.358 0.744,-0.975 0.855,-2.3869996 -0.609,-3.3959996 -1.443,-1.006 -2.547,-0.579 -3.271,0.744 -0.709,1.3129996 -0.833,2.8439996 -1.464,4.2179996 -0.635,1.371 -1.407,2.714 -2.057,3.735 -0.75,1.167 -0.683,2.016 -0.411,2.412 0.671,0.989 1.504,1.369 1.504,1.369 z"
     id="path497" />
  <path
     style="fill:#231f20;fill-opacity:1;fill-rule:nonzero;stroke:none"
     d="m 251.98501,33.914579 c -0.606,-0.411 -2.516,-3.036 -2.923,-3.656 -0.369,-0.552 -1.281,-1.271 -0.687,-2.26 0.239,-0.402 0.87,-0.819 1.176,-0.923 0.251,-0.077 0.506,0.125 0.694,0.475 0.317,0.588 0.177,0.874 0.713,2.036 0,0 0.093,0.297 0.208,0.833 0.371,1.584 0.063,0.921 1.104,3.104 0.079,0.151 -0.031,0.339 -0.135,0.385 -0.166,0.058 -0.15,0.006 -0.15,0.006"
     id="path498" />
  <path
     style="fill:none;stroke:#231f20;stroke-width:0.565977;stroke-linecap:round;stroke-linejoin:round;stroke-miterlimit:4;stroke-dasharray:none;stroke-opacity:1"
     d="m 251.98501,33.914579 c -0.606,-0.411 -2.516,-3.036 -2.923,-3.656 -0.369,-0.552 -1.281,-1.271 -0.687,-2.26 0.239,-0.402 0.87,-0.819 1.176,-0.923 0.251,-0.077 0.506,0.125 0.694,0.475 0.317,0.588 0.177,0.874 0.713,2.036 0,0 0.093,0.297 0.208,0.833 0.371,1.584 0.063,0.921 1.104,3.104 0.079,0.151 -0.031,0.339 -0.135,0.385 -0.166,0.058 -0.15,0.006 -0.15,0.006 z"
     id="path499" />
  <path
     style="fill:#231f20;fill-opacity:1;fill-rule:nonzero;stroke:none"
     d="m 282.18701,34.878579 c -0.729,0.082 -3.89,-0.667 -4.604,-0.871 -0.641,-0.176 -1.797,-0.129 -1.994,-1.265 -0.079,-0.463 0.129,-1.187 0.296,-1.468 0.136,-0.219 0.464,-0.23 0.833,-0.09 0.62,0.24 0.704,0.552 1.871,1.074 0,0 0.26,0.166 0.697,0.5 1.312,0.964 0.645,0.661 2.86,1.64 0.156,0.062 0.197,0.276 0.151,0.376 -0.09,0.156 -0.11,0.104 -0.11,0.104"
     id="path500" />
  <path
     style="fill:none;stroke:#231f20;stroke-width:0.565977;stroke-linecap:round;stroke-linejoin:round;stroke-miterlimit:4;stroke-dasharray:none;stroke-opacity:1"
     d="m 282.18701,34.878579 c -0.729,0.082 -3.89,-0.667 -4.604,-0.871 -0.641,-0.176 -1.797,-0.129 -1.994,-1.265 -0.079,-0.463 0.129,-1.187 0.296,-1.468 0.136,-0.219 0.464,-0.23 0.833,-0.09 0.62,0.24 0.704,0.552 1.871,1.074 0,0 0.26,0.166 0.697,0.5 1.312,0.964 0.645,0.661 2.86,1.64 0.156,0.062 0.197,0.276 0.151,0.376 -0.09,0.156 -0.11,0.104 -0.11,0.104 z"
     id="path501" />
  <path
     style="fill:none;stroke:#231f20;stroke-width:0.399514;stroke-linecap:butt;stroke-linejoin:miter;stroke-miterlimit:4;stroke-dasharray:none;stroke-opacity:1"
     d="m 272.46301,72.705575 c -4.302,26.136 26.588,41.146005 33.817,41.850005"
     id="path502" />
  <path
     style="fill:#231f20;fill-opacity:1;fill-rule:nonzero;stroke:none"
     d="m 307.47901,114.67058 c -0.584,0.156 -1.319,0.442 -1.792,0.781 l 0.437,-0.912 -0.25,-0.979 c 0.396,0.422 1.062,0.843 1.605,1.11"
     id="path503" />
  <path
     style="fill:none;stroke:#231f20;stroke-width:0.399514;stroke-linecap:butt;stroke-linejoin:miter;stroke-miterlimit:4;stroke-dasharray:none;stroke-opacity:1"
     d="m 36.703809,96.028575 c 13.4625,22.813005 46.7902,14.511005 52.7852,10.418005"
     id="path504" />
  <path
     style="fill:#231f20;fill-opacity:1;fill-rule:nonzero;stroke:none"
     d="m 90.485009,105.76358 c -0.35,0.495 -0.724,1.188 -0.87,1.749 l -0.255,-0.978 -0.819,-0.588 c 0.574,0.066 1.36,-0.038 1.944,-0.183"
     id="path505" />
  <path
     style="fill:#ffffff;fill-opacity:1;fill-rule:nonzero;stroke:none"
     d="m 48.250609,38.550579 c -0.9427,0.405 -1.3854,1.494 -0.9854,2.437 0.4011,0.948 1.5,1.391 2.4438,0.984 0.9426,-0.401 1.3854,-1.495 0.9786,-2.443 -0.401,-0.942 -1.4942,-1.38 -2.437,-0.978"
     id="path506" />
  <path
     style="fill:none;stroke:#231f20;stroke-width:1.33171;stroke-linecap:butt;stroke-linejoin:miter;stroke-miterlimit:4;stroke-dasharray:none;stroke-opacity:1"
     d="m 48.250609,38.550579 c -0.9427,0.405 -1.3854,1.494 -0.9854,2.437 0.4011,0.948 1.5,1.391 2.4438,0.984 0.9426,-0.401 1.3854,-1.495 0.9786,-2.443 -0.401,-0.942 -1.4942,-1.38 -2.437,-0.978 z"
     id="path507" />
  <path
     style="fill:#ffffff;fill-opacity:1;fill-rule:nonzero;stroke:none"
     d="m 65.511009,38.550579 c -0.943,0.405 -1.386,1.494 -0.979,2.437 0.4,0.948 1.495,1.391 2.437,0.984 0.942,-0.401 1.385,-1.495 0.979,-2.443 -0.402,-0.942 -1.495,-1.38 -2.437,-0.978"
     id="path508" />
  <path
     style="fill:none;stroke:#231f20;stroke-width:1.33171;stroke-linecap:butt;stroke-linejoin:miter;stroke-miterlimit:4;stroke-dasharray:none;stroke-opacity:1"
     d="m 65.511009,38.550579 c -0.943,0.405 -1.386,1.494 -0.979,2.437 0.4,0.948 1.495,1.391 2.437,0.984 0.942,-0.401 1.385,-1.495 0.979,-2.443 -0.402,-0.942 -1.495,-1.38 -2.437,-0.978 z"
     id="path509" />
  <path
     style="fill:#ffffff;fill-opacity:1;fill-rule:nonzero;stroke:none"
     d="m 80.822009,38.550579 c -0.942,0.405 -1.38,1.494 -0.978,2.437 0.401,0.948 1.495,1.391 2.442,0.984 0.943,-0.401 1.386,-1.495 0.979,-2.443 -0.4,-0.942 -1.495,-1.38 -2.443,-0.978"
     id="path510" />
  <path
     style="fill:none;stroke:#231f20;stroke-width:1.33171;stroke-linecap:butt;stroke-linejoin:miter;stroke-miterlimit:4;stroke-dasharray:none;stroke-opacity:1"
     d="m 80.822009,38.550579 c -0.942,0.405 -1.38,1.494 -0.978,2.437 0.401,0.948 1.495,1.391 2.442,0.984 0.943,-0.401 1.386,-1.495 0.979,-2.443 -0.4,-0.942 -1.495,-1.38 -2.443,-0.978 z"
     id="path511" />
  <path
     style="fill:#ffffff;fill-opacity:1;fill-rule:nonzero;stroke:none"
     d="m 308.20301,38.550579 c -0.948,0.405 -1.385,1.494 -0.98,2.437 0.396,0.948 1.495,1.391 2.437,0.984 0.943,-0.401 1.386,-1.495 0.98,-2.443 -0.401,-0.942 -1.494,-1.38 -2.437,-0.978"
     id="path512" />
  <path
     style="fill:none;stroke:#231f20;stroke-width:1.33171;stroke-linecap:butt;stroke-linejoin:miter;stroke-miterlimit:4;stroke-dasharray:none;stroke-opacity:1"
     d="m 308.20301,38.550579 c -0.948,0.405 -1.385,1.494 -0.98,2.437 0.396,0.948 1.495,1.391 2.437,0.984 0.943,-0.401 1.386,-1.495 0.98,-2.443 -0.401,-0.942 -1.494,-1.38 -2.437,-0.978 z"
     id="path513" />
  <path
     style="fill:#ffffff;fill-opacity:1;fill-rule:nonzero;stroke:none"
     d="m 275.42701,38.550579 c -0.938,0.405 -1.381,1.494 -0.98,2.437 0.402,0.948 1.495,1.391 2.443,0.984 0.943,-0.401 1.385,-1.495 0.98,-2.443 -0.401,-0.942 -1.495,-1.38 -2.443,-0.978"
     id="path514" />
  <path
     style="fill:none;stroke:#231f20;stroke-width:1.33171;stroke-linecap:butt;stroke-linejoin:miter;stroke-miterlimit:4;stroke-dasharray:none;stroke-opacity:1"
     d="m 275.42701,38.550579 c -0.938,0.405 -1.381,1.494 -0.98,2.437 0.402,0.948 1.495,1.391 2.443,0.984 0.943,-0.401 1.385,-1.495 0.98,-2.443 -0.401,-0.942 -1.495,-1.38 -2.443,-0.978 z"
     id="path515" />
  <path
     style="fill:#ffffff;fill-opacity:1;fill-rule:nonzero;stroke:none"
     d="m 190.72301,38.550579 c -0.942,0.405 -1.38,1.494 -0.978,2.437 0.401,0.948 1.494,1.391 2.437,0.984 0.948,-0.401 1.391,-1.495 0.984,-2.443 -0.401,-0.942 -1.495,-1.38 -2.443,-0.978"
     id="path516" />
  <path
     style="fill:none;stroke:#231f20;stroke-width:1.33171;stroke-linecap:butt;stroke-linejoin:miter;stroke-miterlimit:4;stroke-dasharray:none;stroke-opacity:1"
     d="m 190.72301,38.550579 c -0.942,0.405 -1.38,1.494 -0.978,2.437 0.401,0.948 1.494,1.391 2.437,0.984 0.948,-0.401 1.391,-1.495 0.984,-2.443 -0.401,-0.942 -1.495,-1.38 -2.443,-0.978 z"
     id="path517" />
  <path
     style="fill:#231f20;fill-opacity:1;fill-rule:nonzero;stroke:none"
     d="m 186.32701,21.564579 c 1.771,2.73 0.319,3.262 -2.296,5.896 -2.854,2.876 -6.152,5.579 -8.953,6.751 -3.125,1.312 -3.093,1.776 -4.489,0.719 -1.396,-1.063 -0.964,-1.62 -0.938,-2.771 0.036,-1.328 6.135,-4.245 9.058,-7.412 1.374,-1.484 3.661,-5.901 4.848,-5.281 1.182,0.614 2.77,2.098 2.77,2.098"
     id="path518" />
  <path
     style="fill:none;stroke:#231f20;stroke-width:0.515372;stroke-linecap:butt;stroke-linejoin:miter;stroke-miterlimit:4;stroke-dasharray:none;stroke-opacity:1"
     d="m 186.32701,21.564579 c 1.771,2.73 0.319,3.262 -2.296,5.896 -2.854,2.876 -6.152,5.579 -8.953,6.751 -3.125,1.312 -3.093,1.776 -4.489,0.719 -1.396,-1.063 -0.964,-1.62 -0.938,-2.771 0.036,-1.328 6.135,-4.245 9.058,-7.412 1.374,-1.484 3.661,-5.901 4.848,-5.281 1.182,0.614 2.77,2.098 2.77,2.098 z"
     id="path519" />
  <path
     style="fill:#231f20;fill-opacity:1;fill-rule:nonzero;stroke:none"
     d="m 151.98501,41.684579 c 0.233,-0.552 1.9,-0.541 3.28,-1.692 0.287,-0.229 0.625,-0.292 0.948,-0.406 1.319,-0.459 2.766,-0.178 0.767,2.645 -0.276,0.387 -1.938,1.36 -2.303,1.969 -0.855,1.443 -3.855,2.099 -4.068,1.683 -0.468,-0.891 1.376,-4.199 1.376,-4.199"
     id="path520" />
  <path
     style="fill:none;stroke:#231f20;stroke-width:0.585953;stroke-linecap:round;stroke-linejoin:round;stroke-miterlimit:4;stroke-dasharray:none;stroke-opacity:1"
     d="m 151.98501,41.684579 c 0.233,-0.552 1.9,-0.541 3.28,-1.692 0.287,-0.229 0.625,-0.292 0.948,-0.406 1.319,-0.459 2.766,-0.178 0.767,2.645 -0.276,0.387 -1.938,1.36 -2.303,1.969 -0.855,1.443 -3.855,2.099 -4.068,1.683 -0.468,-0.891 1.376,-4.199 1.376,-4.199 z"
     id="path521" />
  <path
     style="fill:#231f20;fill-opacity:1;fill-rule:nonzero;stroke:none"
     d="m 183.28101,17.878579 c -2.443,-2.188 -3.266,-0.912 -6.432,1.068 -3.464,2.161 -6.839,4.781 -8.558,7.213 -1.921,2.724 -2.385,2.604 -1.568,4.125 0.818,1.52 1.464,1.219 2.642,1.406 1.364,0.218 5.473,-5.02 9.244,-7.192 1.776,-1.022 6.693,-2.366 6.292,-3.6 -0.407,-1.239 -1.62,-3.02 -1.62,-3.02"
     id="path522" />
  <path
     style="fill:none;stroke:#231f20;stroke-width:0.515372;stroke-linecap:butt;stroke-linejoin:miter;stroke-miterlimit:4;stroke-dasharray:none;stroke-opacity:1"
     d="m 183.28101,17.878579 c -2.443,-2.188 -3.266,-0.912 -6.432,1.068 -3.464,2.161 -6.839,4.781 -8.558,7.213 -1.921,2.724 -2.385,2.604 -1.568,4.125 0.818,1.52 1.464,1.219 2.642,1.406 1.364,0.218 5.473,-5.02 9.244,-7.192 1.776,-1.022 6.693,-2.366 6.292,-3.6 -0.407,-1.239 -1.62,-3.02 -1.62,-3.02 z"
     id="path523" />
  <path
     style="fill:#231f20;fill-opacity:1;fill-rule:nonzero;stroke:none"
     d="m 168.43101,30.227579 c -1.17,-1.683 -1.484,-2.183 -3.176,-0.657 -0.433,0.39 -1.552,1.552 -1.87,1.709 -1.063,0.536 -2.255,1.239 -5.681,6.104 -0.532,0.755 -1.803,2.025 -2.62,2.989 -0.798,0.948 1.358,1.579 1.672,1.208 1.02,-1.172 1.937,-1.718 2.358,-2.088 0.297,-0.261 0.756,-0.828 2.109,-1.532 3.49,-1.806 3.762,-3.396 4.459,-3.833 2,-1.265 3.979,-1.948 3.849,-2.531 -0.209,-0.942 -1.1,-1.369 -1.1,-1.369"
     id="path524" />
  <path
     style="fill:none;stroke:#231f20;stroke-width:0.515372;stroke-linecap:butt;stroke-linejoin:miter;stroke-miterlimit:4;stroke-dasharray:none;stroke-opacity:1"
     d="m 168.43101,30.227579 c -1.17,-1.683 -1.484,-2.183 -3.176,-0.657 -0.433,0.39 -1.552,1.552 -1.87,1.709 -1.063,0.536 -2.255,1.239 -5.681,6.104 -0.532,0.755 -1.803,2.025 -2.62,2.989 -0.798,0.948 1.358,1.579 1.672,1.208 1.02,-1.172 1.937,-1.718 2.358,-2.088 0.297,-0.261 0.756,-0.828 2.109,-1.532 3.49,-1.806 3.762,-3.396 4.459,-3.833 2,-1.265 3.979,-1.948 3.849,-2.531 -0.209,-0.942 -1.1,-1.369 -1.1,-1.369 z"
     id="path525" />
  <path
     style="fill:#231f20;fill-opacity:1;fill-rule:nonzero;stroke:none"
     d="m 171.27001,33.154579 c 1.48,1.432 1.933,1.828 0.052,3.134 -0.479,0.334 -1.875,1.163 -2.099,1.439 -0.744,0.905 -1.697,1.895 -7.301,4.203 -0.871,0.354 -2.407,1.312 -3.552,1.901 -1.109,0.567 -1.338,-1.595 -0.906,-1.819 1.39,-0.733 2.125,-1.504 2.582,-1.833 0.324,-0.224 0.991,-0.552 1.969,-1.697 2.511,-2.954 4.178,-2.907 4.76,-3.479 1.667,-1.652 2.746,-3.391 3.314,-3.157 0.921,0.385 1.181,1.308 1.181,1.308"
     id="path526" />
  <path
     style="fill:none;stroke:#231f20;stroke-width:0.515372;stroke-linecap:butt;stroke-linejoin:miter;stroke-miterlimit:4;stroke-dasharray:none;stroke-opacity:1"
     d="m 171.27001,33.154579 c 1.48,1.432 1.933,1.828 0.052,3.134 -0.479,0.334 -1.875,1.163 -2.099,1.439 -0.744,0.905 -1.697,1.895 -7.301,4.203 -0.871,0.354 -2.407,1.312 -3.552,1.901 -1.109,0.567 -1.338,-1.595 -0.906,-1.819 1.39,-0.733 2.125,-1.504 2.582,-1.833 0.324,-0.224 0.991,-0.552 1.969,-1.697 2.511,-2.954 4.178,-2.907 4.76,-3.479 1.667,-1.652 2.746,-3.391 3.314,-3.157 0.921,0.385 1.181,1.308 1.181,1.308 z"
     id="path527" />
  <path
     style="fill:#231f20;fill-opacity:1;fill-rule:nonzero;stroke:none"
     d="m 157.09401,46.903579 c 0.594,-0.145 0.818,-1.739 2.192,-2.896 0.281,-0.239 0.391,-0.552 0.552,-0.843 0.661,-1.193 0.573,-2.62 -2.604,-1.109 -0.437,0.213 -1.666,1.661 -2.344,1.927 -1.604,0.609 -2.702,3.38 -2.301,3.645 0.848,0.568 4.505,-0.724 4.505,-0.724"
     id="path528" />
  <path
     style="fill:none;stroke:#231f20;stroke-width:0.585953;stroke-linecap:round;stroke-linejoin:round;stroke-miterlimit:4;stroke-dasharray:none;stroke-opacity:1"
     d="m 157.09401,46.903579 c 0.594,-0.145 0.818,-1.739 2.192,-2.896 0.281,-0.239 0.391,-0.552 0.552,-0.843 0.661,-1.193 0.573,-2.62 -2.604,-1.109 -0.437,0.213 -1.666,1.661 -2.344,1.927 -1.604,0.609 -2.702,3.38 -2.301,3.645 0.848,0.568 4.505,-0.724 4.505,-0.724 z"
     id="path529" />
  <path
     style="fill:#231f20;fill-opacity:1;fill-rule:nonzero;stroke:none"
     d="m 151.48901,28.247579 c 0.177,-0.703 1.996,-3.396 2.439,-3.995 0.39,-0.541 0.754,-1.634 1.885,-1.416 0.457,0.088 1.067,0.536 1.265,0.786 0.156,0.204 0.063,0.516 -0.208,0.813 -0.442,0.5 -0.761,0.468 -1.662,1.369 0,0 -0.244,0.183 -0.708,0.484 -1.37,0.887 -0.848,0.371 -2.542,2.1 -0.125,0.124 -0.328,0.094 -0.412,0.006 -0.114,-0.136 -0.057,-0.147 -0.057,-0.147"
     id="path530" />
  <path
     style="fill:none;stroke:#231f20;stroke-width:0.565977;stroke-linecap:round;stroke-linejoin:round;stroke-miterlimit:4;stroke-dasharray:none;stroke-opacity:1"
     d="m 151.48901,28.247579 c 0.177,-0.703 1.996,-3.396 2.439,-3.995 0.39,-0.541 0.754,-1.634 1.885,-1.416 0.457,0.088 1.067,0.536 1.265,0.786 0.156,0.204 0.063,0.516 -0.208,0.813 -0.442,0.5 -0.761,0.468 -1.662,1.369 0,0 -0.244,0.183 -0.708,0.484 -1.37,0.887 -0.848,0.371 -2.542,2.1 -0.125,0.124 -0.328,0.094 -0.412,0.006 -0.114,-0.136 -0.057,-0.147 -0.057,-0.147 z"
     id="path531" />
  <path
     style="fill:#231f20;fill-opacity:1;fill-rule:nonzero;stroke:none"
     d="m 156.48001,24.242579 c 0.645,-0.015 2.077,-1.339 3.587,-1.88 1.027,-0.38 3,-2.287 4.042,-2.583 0.953,-0.271 1.365,-0.491 1.256,-1.625 -0.084,-0.683 -0.656,-1.938 -1.167,-1.918 -1.183,0.079 -2.032,0.495 -2.876,1.158 -0.952,0.76 -3.353,3.041 -3.76,3.494 -0.994,1.156 -1.724,1.287 -2.021,1.563 -0.552,0.52 -0.484,0.869 -0.223,1.296 0.5,0.823 1.162,0.495 1.162,0.495"
     id="path532" />
  <path
     style="fill:none;stroke:#231f20;stroke-width:0.565977;stroke-linecap:butt;stroke-linejoin:miter;stroke-miterlimit:4;stroke-dasharray:none;stroke-opacity:1"
     d="m 156.48001,24.242579 c 0.645,-0.015 2.077,-1.339 3.587,-1.88 1.027,-0.38 3,-2.287 4.042,-2.583 0.953,-0.271 1.365,-0.491 1.256,-1.625 -0.084,-0.683 -0.656,-1.938 -1.167,-1.918 -1.183,0.079 -2.032,0.495 -2.876,1.158 -0.952,0.76 -3.353,3.041 -3.76,3.494 -0.994,1.156 -1.724,1.287 -2.021,1.563 -0.552,0.52 -0.484,0.869 -0.223,1.296 0.5,0.823 1.162,0.495 1.162,0.495 z"
     id="path533" />
  <path
     style="fill:#231f20;fill-opacity:1;fill-rule:nonzero;stroke:none"
     d="m 164.15501,18.976579 c 0.694,1.088 2.188,-0.302 2.631,-0.609 0.453,-0.307 1.823,-1.036 2.964,-1.459 1.156,-0.432 2.401,-1.457 4.572,-2.281 1.152,-0.427 1.991,-1.567 1.292,-3.203 -0.692,-1.6199996 -1.849,-1.8329996 -3.161,-1.109 -1.307,0.729 -2.219,1.973 -3.49,2.797 -1.26,0.834 -2.63,1.558 -3.724,2.072 -1.254,0.59 -1.65,1.35 -1.636,1.828 0.048,1.199 0.552,1.964 0.552,1.964"
     id="path534" />
  <path
     style="fill:none;stroke:#231f20;stroke-width:0.565977;stroke-linecap:butt;stroke-linejoin:miter;stroke-miterlimit:4;stroke-dasharray:none;stroke-opacity:1"
     d="m 164.15501,18.976579 c 0.694,1.088 2.188,-0.302 2.631,-0.609 0.453,-0.307 1.823,-1.036 2.964,-1.459 1.156,-0.432 2.401,-1.457 4.572,-2.281 1.152,-0.427 1.991,-1.567 1.292,-3.203 -0.692,-1.6199996 -1.849,-1.8329996 -3.161,-1.109 -1.307,0.729 -2.219,1.973 -3.49,2.797 -1.26,0.834 -2.63,1.558 -3.724,2.072 -1.254,0.59 -1.65,1.35 -1.636,1.828 0.048,1.199 0.552,1.964 0.552,1.964 z"
     id="path535" />
  <path
     style="fill:#231f20;fill-opacity:1;fill-rule:nonzero;stroke:none"
     d="m 184.19801,37.804579 c -0.511,-0.51 -1.896,-3.458 -2.188,-4.134 -0.26,-0.615 -1.011,-1.491 -0.245,-2.35 0.308,-0.349 1.005,-0.641 1.324,-0.688 0.254,-0.03 0.473,0.214 0.588,0.599 0.202,0.636 0.016,0.896 0.328,2.131 0,0 0.032,0.308 0.052,0.854 0.062,1.63 -0.12,0.916 0.5,3.26 0.046,0.167 -0.088,0.328 -0.208,0.355 -0.172,0.025 -0.151,-0.027 -0.151,-0.027"
     id="path536" />
  <path
     style="fill:none;stroke:#231f20;stroke-width:0.565977;stroke-linecap:round;stroke-linejoin:round;stroke-miterlimit:4;stroke-dasharray:none;stroke-opacity:1"
     d="m 184.19801,37.804579 c -0.511,-0.51 -1.896,-3.458 -2.188,-4.134 -0.26,-0.615 -1.011,-1.491 -0.245,-2.35 0.308,-0.349 1.005,-0.641 1.324,-0.688 0.254,-0.03 0.473,0.214 0.588,0.599 0.202,0.636 0.016,0.896 0.328,2.131 0,0 0.032,0.308 0.052,0.854 0.062,1.63 -0.12,0.916 0.5,3.26 0.046,0.167 -0.088,0.328 -0.208,0.355 -0.172,0.025 -0.151,-0.027 -0.151,-0.027 z"
     id="path537" />
  <path
     style="fill:#0098c9;fill-opacity:1;fill-rule:nonzero;stroke:none"
     d="m 187.79701,19.122579 c 1.833,6.662 -1.454,7.349 -2.016,7.969 -0.443,0.489 -0.943,2.932 -5.667,-1.807 l -0.151,-1.146 c -0.093,-0.135 -0.15,-0.11 -0.15,-0.11 l -1.287,0.183 c 0,0 -0.86,-1.147 -2.495,-1.823 -1.641,-0.682 -4.062,-0.896 -2.838,-1.552 0.822,-0.442 2.604,-1.256 3.973,-2.526 0.729,-0.672 3.781,-2.834 7.699,-0.454 1.156,0.704 2.844,0.928 2.932,1.266"
     id="path538" />
  <path
     style="fill:none;stroke:#231f20;stroke-width:0.565977;stroke-linecap:butt;stroke-linejoin:miter;stroke-miterlimit:4;stroke-dasharray:none;stroke-opacity:1"
     d="m 187.79701,19.122579 c 1.833,6.662 -1.454,7.349 -2.016,7.969 -0.443,0.489 -0.943,2.932 -5.667,-1.807 l -0.151,-1.146 c -0.093,-0.135 -0.15,-0.11 -0.15,-0.11 l -1.287,0.183 c 0,0 -0.86,-1.147 -2.495,-1.823 -1.641,-0.682 -4.062,-0.896 -2.838,-1.552 0.822,-0.442 2.604,-1.256 3.973,-2.526 0.729,-0.672 3.781,-2.834 7.699,-0.454 1.156,0.704 2.844,0.928 2.932,1.266 z"
     id="path539" />
  <path
     style="fill:#0098c9;fill-opacity:1;fill-rule:nonzero;stroke:none"
     d="m 188.19301,19.159579 c -0.104,-2.541 -1.194,-5.724 -3.308,-9.6609996 -1.23,-2.282 -2.151,-2.188 -3.495,-2.543 0,0 -1.869,-0.369 -7.213,1.991 -2.49,1.0979996 -1.49,3.5719996 -1.49,3.5719996 0.172,0.36 2.916,0.89 3.854,2.776 0.906,1.813 2.39,2.188 2.39,2.188 0.308,0.661 9.262,1.677 9.262,1.677"
     id="path540" />
  <path
     style="fill:none;stroke:#231f20;stroke-width:0.565977;stroke-linecap:butt;stroke-linejoin:miter;stroke-miterlimit:4;stroke-dasharray:none;stroke-opacity:1"
     d="m 188.19301,19.159579 c -0.104,-2.541 -1.194,-5.724 -3.308,-9.6609996 -1.23,-2.282 -2.151,-2.188 -3.495,-2.543 0,0 -1.869,-0.369 -7.213,1.991 -2.49,1.0979996 -1.49,3.5719996 -1.49,3.5719996 0.172,0.36 2.916,0.89 3.854,2.776 0.906,1.813 2.39,2.188 2.39,2.188 0.308,0.661 9.262,1.677 9.262,1.677 z"
     id="path541" />
  <path
     style="fill:#231f20;fill-opacity:1;fill-rule:nonzero;stroke:none"
     d="m 183.82201,30.523579 c 0.303,-0.572 -0.151,-2.468 0.115,-4.052 0.172,-1.077 -0.526,-3.735 -0.276,-4.787 0.229,-0.962 0.245,-1.426 -0.807,-1.885 -0.631,-0.265 -2.005,-0.38 -2.235,0.079 -0.516,1.073 -0.568,2.016 -0.401,3.073 0.193,1.203 1.011,4.411 1.213,4.989 0.511,1.432 0.272,2.135 0.371,2.526 0.187,0.74 0.52,0.849 1.02,0.828 0.964,-0.031 1,-0.771 1,-0.771"
     id="path542" />
  <path
     style="fill:none;stroke:#231f20;stroke-width:0.565977;stroke-linecap:butt;stroke-linejoin:miter;stroke-miterlimit:4;stroke-dasharray:none;stroke-opacity:1"
     d="m 183.82201,30.523579 c 0.303,-0.572 -0.151,-2.468 0.115,-4.052 0.172,-1.077 -0.526,-3.735 -0.276,-4.787 0.229,-0.962 0.245,-1.426 -0.807,-1.885 -0.631,-0.265 -2.005,-0.38 -2.235,0.079 -0.516,1.073 -0.568,2.016 -0.401,3.073 0.193,1.203 1.011,4.411 1.213,4.989 0.511,1.432 0.272,2.135 0.371,2.526 0.187,0.74 0.52,0.849 1.02,0.828 0.964,-0.031 1,-0.771 1,-0.771 z"
     id="path543" />
  <path
     style="fill:#231f20;fill-opacity:1;fill-rule:nonzero;stroke:none"
     d="m 182.98501,21.252579 c 1.285,-0.068 0.806,-2.052 0.754,-2.588 -0.046,-0.546 -0.01,-2.1 0.178,-3.302 0.186,-1.219 -0.099,-2.807 0.249,-5.104 0.188,-1.2139996 -0.396,-2.5059996 -2.161,-2.6939996 -1.744,-0.186 -2.506,0.715 -2.516,2.215 -0.004,1.4999996 0.636,2.9049996 0.734,4.4109996 0.104,1.51 0.068,3.057 -0.016,4.265 -0.104,1.387 0.366,2.1 0.798,2.319 1.062,0.546 1.98,0.478 1.98,0.478"
     id="path544" />
  <path
     style="fill:none;stroke:#231f20;stroke-width:0.565977;stroke-linecap:butt;stroke-linejoin:miter;stroke-miterlimit:4;stroke-dasharray:none;stroke-opacity:1"
     d="m 182.98501,21.252579 c 1.285,-0.068 0.806,-2.052 0.754,-2.588 -0.046,-0.546 -0.01,-2.1 0.178,-3.302 0.186,-1.219 -0.099,-2.807 0.249,-5.104 0.188,-1.2139996 -0.396,-2.5059996 -2.161,-2.6939996 -1.744,-0.186 -2.506,0.715 -2.516,2.215 -0.004,1.4999996 0.636,2.9049996 0.734,4.4109996 0.104,1.51 0.068,3.057 -0.016,4.265 -0.104,1.387 0.366,2.1 0.798,2.319 1.062,0.546 1.98,0.478 1.98,0.478 z"
     id="path545" />
  <path
     style="fill:#ffffff;fill-opacity:1;fill-rule:nonzero;stroke:none"
     d="m 170.85401,6.4605794 c -0.891,-2.676 -0.011,-5.38 1.959,-6.03599999 1.968,-0.65 4.29,0.98999999 5.181,3.67799999 0.885,2.677 0.016,5.38 -1.957,6.0249996 -1.975,0.667 -4.292,-0.9839996 -5.183,-3.6669996"
     id="path546" />
  <path
     style="fill:none;stroke:#231f20;stroke-width:0.565977;stroke-linecap:butt;stroke-linejoin:miter;stroke-miterlimit:4;stroke-dasharray:none;stroke-opacity:1"
     d="m 170.85401,6.4605794 c -0.891,-2.676 -0.011,-5.38 1.959,-6.03599999 1.968,-0.65 4.29,0.98999999 5.181,3.67799999 0.885,2.677 0.016,5.38 -1.957,6.0249996 -1.975,0.667 -4.292,-0.9839996 -5.183,-3.6669996 z"
     id="path547" />
</svg>
