<?xml version="1.0" encoding="UTF-8" standalone="no"?>
<!-- Created with Inkscape (http://www.inkscape.org/) -->

<svg
   version="1.1"
   id="svg1"
   width="360.46881"
   height="128.52222"
   viewBox="0 0 360.4688 128.52222"
   sodipodi:docname="cell.svg"
   xmlns:inkscape="http://www.inkscape.org/namespaces/inkscape"
   xmlns:sodipodi="http://sodipodi.sourceforge.net/DTD/sodipodi-0.dtd"
   xmlns="http://www.w3.org/2000/svg"
   xmlns:svg="http://www.w3.org/2000/svg">
  <sodipodi:namedview
     id="namedview1"
     pagecolor="#ffffff"
     bordercolor="#000000"
     borderopacity="0.25"
     inkscape:showpageshadow="2"
     inkscape:pageopacity="0.0"
     inkscape:pagecheckerboard="0"
     inkscape:deskcolor="#d1d1d1">
    <inkscape:page
       x="0"
       y="0"
       inkscape:label="1"
       id="page1"
       width="360.46881"
       height="128.52222"
       margin="0"
       bleed="0" />
  </sodipodi:namedview>
  <defs
     id="defs1" />
  <path
     style="fill:#ffffff;fill-opacity:1;fill-rule:nonzero;stroke:none"
     d="m 166.0998,18.874 h 18.875 V 0 h -18.875 z"
     id="path1" />
  <path
     style="fill:#ffffff;fill-opacity:1;fill-rule:nonzero;stroke:none"
     d="M -1.4269758e-8,18.874 H 18.875 V 0 H -1.4269758e-8 Z"
     id="path2" />
  <path
     style="fill:#ffffff;fill-opacity:1;fill-rule:nonzero;stroke:none"
     d="m 343.5418,18.874 h 16.927 V 0 h -16.927 z"
     id="path3" />
  <path
     style="fill:#231f20;fill-opacity:1;fill-rule:nonzero;stroke:none"
     d="m 51.98,84.833 c 0.9318,-0.979 1.8427,-0.593 2.3171,0.328 0.1454,0.276 0.547,0.371 0.6615,0.647 0.2652,0.656 -0.4588,2.238 -1.9374,1.962 -0.1036,-0.014 -0.9172,0.084 -1.5359,0.063 -1.2147,-0.041 -3.6147,-0.708 -4.9224,-3.073 -0.6204,-1.115 0.1557,-1.271 0.5411,-0.9 1.2292,1.197 1.5682,1.061 2.0052,1.254 1.4802,0.672 2.8708,-0.281 2.8708,-0.281"
     id="path4" />
  <path
     style="fill:none;stroke:#231f20;stroke-width:0.332927;stroke-linecap:butt;stroke-linejoin:miter;stroke-miterlimit:4;stroke-dasharray:none;stroke-opacity:1"
     d="m 51.98,84.833 c 0.9318,-0.979 1.8427,-0.593 2.3171,0.328 0.1454,0.276 0.547,0.371 0.6615,0.647 0.2652,0.656 -0.4588,2.238 -1.9374,1.962 -0.1036,-0.014 -0.9172,0.084 -1.5359,0.063 -1.2147,-0.041 -3.6147,-0.708 -4.9224,-3.073 -0.6204,-1.115 0.1557,-1.271 0.5411,-0.9 1.2292,1.197 1.5682,1.061 2.0052,1.254 1.4802,0.672 2.8708,-0.281 2.8708,-0.281 z"
     id="path5" />
  <path
     style="fill:#231f20;fill-opacity:1;fill-rule:nonzero;stroke:none"
     d="m 70.3654,88.521 c 0.5412,-2.199 0.3478,-2.699 -0.5683,-2.989 -0.6041,-0.194 -1.1041,-0.584 -1.4692,-0.72 -1.2136,-0.447 -3.448,-0.708 -9.9625,0.209 -1.4801,0.213 -3.5573,0.495 -4.4177,0.536 -1.3531,0.079 -0.312,2.276 0.2188,2.251 1.7134,-0.074 2.8964,0.014 3.5161,0.077 0.4265,0.036 1.188,0.005 2.812,0.369 2.4692,0.558 3.8599,1.256 5.964,1.48 0.9786,0.104 1.6453,0.807 2.6557,0.416 1.0161,-0.385 1.2511,-1.629 1.2511,-1.629"
     id="path6" />
  <path
     style="fill:none;stroke:#231f20;stroke-width:0.565977;stroke-linecap:butt;stroke-linejoin:miter;stroke-miterlimit:4;stroke-dasharray:none;stroke-opacity:1"
     d="m 70.3654,88.521 c 0.5412,-2.199 0.3478,-2.699 -0.5683,-2.989 -0.6041,-0.194 -1.1041,-0.584 -1.4692,-0.72 -1.2136,-0.447 -3.448,-0.708 -9.9625,0.209 -1.4801,0.213 -3.5573,0.495 -4.4177,0.536 -1.3531,0.079 -0.312,2.276 0.2188,2.251 1.7134,-0.074 2.8964,0.014 3.5161,0.077 0.4265,0.036 1.188,0.005 2.812,0.369 2.4692,0.558 3.8599,1.256 5.964,1.48 0.9786,0.104 1.6453,0.807 2.6557,0.416 1.0161,-0.385 1.2511,-1.629 1.2511,-1.629 z"
     id="path7" />
  <path
     style="fill:#0098c9;fill-opacity:1;fill-rule:nonzero;stroke:none"
     d="m 82.0258,97.536 c 2.517,-1.87 3.261,-1.995 4.157,-2.214 5.619,-1.353 4.849,-4.088 2.735,-6.046 -2.481,-2.312 -3.323,-3.192 -7.995,1.032 -1.2976,1.176 -6.8657,5.03 -6.8657,5.03 -2.1813,1.11 -3.7183,3.355 -3.6557,4.812 0.0733,1.532 0.1557,0.917 0.4785,2.328 0.3027,1.339 1.8027,2.933 3.0376,2.871 1.1864,-0.068 1.9624,-1.542 3.3583,-3.522 1.1041,-1.557 4.75,-4.291 4.75,-4.291"
     id="path8" />
  <path
     style="fill:none;stroke:#231f20;stroke-width:0.565977;stroke-linecap:butt;stroke-linejoin:miter;stroke-miterlimit:4;stroke-dasharray:none;stroke-opacity:1"
     d="m 82.0258,97.536 c 2.517,-1.87 3.261,-1.995 4.157,-2.214 5.619,-1.353 4.849,-4.088 2.735,-6.046 -2.481,-2.312 -3.323,-3.192 -7.995,1.032 -1.2976,1.176 -6.8657,5.03 -6.8657,5.03 -2.1813,1.11 -3.7183,3.355 -3.6557,4.812 0.0733,1.532 0.1557,0.917 0.4785,2.328 0.3027,1.339 1.8027,2.933 3.0376,2.871 1.1864,-0.068 1.9624,-1.542 3.3583,-3.522 1.1041,-1.557 4.75,-4.291 4.75,-4.291 z"
     id="path9" />
  <path
     style="fill:#ffffff;fill-opacity:1;fill-rule:nonzero;stroke:none"
     d="m 64.8186,103.505 c -0.224,0.093 -0.9281,-0.812 -1.3652,-0.527 -0.4375,0.292 -0.1828,1.037 -1.2135,2.74 l -0.0104,0.016 c -0.7922,1.219 -0.9896,2.599 -0.3854,3.692 1.0052,1.824 3.8224,2.188 6.2915,0.828 2.4787,-1.364 3.6667,-3.947 2.6615,-5.765 -0.9531,-1.744 -3.5839,-2.151 -5.9785,-0.984"
     id="path10" />
  <path
     style="fill:none;stroke:#231f20;stroke-width:0.565977;stroke-linecap:butt;stroke-linejoin:miter;stroke-miterlimit:4;stroke-dasharray:none;stroke-opacity:1"
     d="m 64.8186,103.505 c -0.224,0.093 -0.9281,-0.812 -1.3652,-0.527 -0.4375,0.292 -0.1828,1.037 -1.2135,2.74 l -0.0104,0.016 c -0.7922,1.219 -0.9896,2.599 -0.3854,3.692 1.0052,1.824 3.8224,2.188 6.2915,0.828 2.4787,-1.364 3.6667,-3.947 2.6615,-5.765 -0.9531,-1.744 -3.5839,-2.151 -5.9785,-0.984 z"
     id="path11" />
  <path
     style="fill:#231f20;fill-opacity:1;fill-rule:nonzero;stroke:none"
     d="m 68.1612,87.396 c -1.2906,3.802 2.7563,3.245 3.2094,3.396 4.7385,1.63 5.1146,1.625 8.812,2.614 5.3382,1.432 9.2132,1.594 10.9532,-1.27 1.183,-1.938 1.016,-3.574 0.224,-4.626 -0.885,-1.161 -3.751,-2.526 -6.199,-0.978 l -1.713,0.009 c -1.151,-0.14 -1.724,-0.197 -2.287,-0.312 -0.9834,-0.197 -2.0465,-0.355 -3.9834,-0.631 -3.4427,-0.494 -7.235,0.11 -7.235,0.11 -1.2333,-0.146 -1.7812,1.688 -1.7812,1.688"
     id="path12" />
  <path
     style="fill:none;stroke:#231f20;stroke-width:0.565977;stroke-linecap:butt;stroke-linejoin:miter;stroke-miterlimit:4;stroke-dasharray:none;stroke-opacity:1"
     d="m 68.1612,87.396 c -1.2906,3.802 2.7563,3.245 3.2094,3.396 4.7385,1.63 5.1146,1.625 8.812,2.614 5.3382,1.432 9.2132,1.594 10.9532,-1.27 1.183,-1.938 1.016,-3.574 0.224,-4.626 -0.885,-1.161 -3.751,-2.526 -6.199,-0.978 l -1.713,0.009 c -1.151,-0.14 -1.724,-0.197 -2.287,-0.312 -0.9834,-0.197 -2.0465,-0.355 -3.9834,-0.631 -3.4427,-0.494 -7.235,0.11 -7.235,0.11 -1.2333,-0.146 -1.7812,1.688 -1.7812,1.688 z"
     id="path13" />
  <path
     style="fill:#0098c9;fill-opacity:1;fill-rule:nonzero;stroke:none"
     d="m 90.9798,87.016 c -1.062,-1 -4.125,-1.875 -6.271,0.057 l -0.526,7.796 c 3.76,0.021 6.369,-0.801 7.343,-3.26 0.84,-2.109 0.411,-3.688 -0.546,-4.593"
     id="path14" />
  <path
     style="fill:none;stroke:#231f20;stroke-width:0.565977;stroke-linecap:butt;stroke-linejoin:miter;stroke-miterlimit:4;stroke-dasharray:none;stroke-opacity:1"
     d="m 90.9798,87.016 c -1.062,-1 -4.125,-1.875 -6.271,0.057 l -0.526,7.796 c 3.76,0.021 6.369,-0.801 7.343,-3.26 0.84,-2.109 0.411,-3.688 -0.546,-4.593 z"
     id="path15" />
  <path
     style="fill:#231f20;fill-opacity:1;fill-rule:nonzero;stroke:none"
     d="m 53.1466,102.531 c 0.5,-0.401 2.448,-0.318 3.9573,-0.87 1.0214,-0.375 3.7615,-0.183 4.7506,-0.63 0.9016,-0.406 1.3588,-0.51 2,0.443 0.3854,0.567 0.7546,1.9 0.3442,2.208 -0.9536,0.708 -1.8708,0.937 -2.9426,0.968 -1.2136,0.032 -4.5162,-0.161 -5.1256,-0.255 -1.5052,-0.234 -2.1452,0.131 -2.5463,0.11 -0.7614,-0.047 -0.9322,-0.35 -1.0109,-0.844 -0.1453,-0.948 0.5733,-1.13 0.5733,-1.13"
     id="path16" />
  <path
     style="fill:none;stroke:#231f20;stroke-width:0.565977;stroke-linecap:butt;stroke-linejoin:miter;stroke-miterlimit:4;stroke-dasharray:none;stroke-opacity:1"
     d="m 53.1466,102.531 c 0.5,-0.401 2.448,-0.318 3.9573,-0.87 1.0214,-0.375 3.7615,-0.183 4.7506,-0.63 0.9016,-0.406 1.3588,-0.51 2,0.443 0.3854,0.567 0.7546,1.9 0.3442,2.208 -0.9536,0.708 -1.8708,0.937 -2.9426,0.968 -1.2136,0.032 -4.5162,-0.161 -5.1256,-0.255 -1.5052,-0.234 -2.1452,0.131 -2.5463,0.11 -0.7614,-0.047 -0.9322,-0.35 -1.0109,-0.844 -0.1453,-0.948 0.5733,-1.13 0.5733,-1.13 z"
     id="path17" />
  <path
     style="fill:#231f20;fill-opacity:1;fill-rule:nonzero;stroke:none"
     d="m 62.1613,101.63 c 0.0109,-1.297 2.0109,-0.901 2.552,-0.88 0.5428,0.02 2.0948,-0.089 3.2922,-0.333 1.2036,-0.24 2.8025,-0.027 5.0839,-0.485 1.1973,-0.239 2.5197,0.286 2.7905,2.042 0.2667,1.733 -0.6041,2.536 -2.0989,2.609 -1.4943,0.072 -2.9266,-0.494 -4.4422,-0.526 -1.5109,-0.036 -3.0521,0.073 -4.2603,0.213 -1.3694,0.161 -2.1095,-0.271 -2.349,-0.687 -0.5938,-1.037 -0.5682,-1.953 -0.5682,-1.953"
     id="path18" />
  <path
     style="fill:none;stroke:#231f20;stroke-width:0.565977;stroke-linecap:butt;stroke-linejoin:miter;stroke-miterlimit:4;stroke-dasharray:none;stroke-opacity:1"
     d="m 62.1613,101.63 c 0.0109,-1.297 2.0109,-0.901 2.552,-0.88 0.5428,0.02 2.0948,-0.089 3.2922,-0.333 1.2036,-0.24 2.8025,-0.027 5.0839,-0.485 1.1973,-0.239 2.5197,0.286 2.7905,2.042 0.2667,1.733 -0.6041,2.536 -2.0989,2.609 -1.4943,0.072 -2.9266,-0.494 -4.4422,-0.526 -1.5109,-0.036 -3.0521,0.073 -4.2603,0.213 -1.3694,0.161 -2.1095,-0.271 -2.349,-0.687 -0.5938,-1.037 -0.5682,-1.953 -0.5682,-1.953 z"
     id="path19" />
  <path
     style="fill:#231f20;fill-opacity:1;fill-rule:nonzero;stroke:none"
     d="m 328.1548,101.718 c 0.402,-0.505 0.308,-2.453 0.855,-3.962 0.365,-1.022 0.161,-3.762 0.604,-4.751 0.407,-0.907 0.505,-1.36 -0.453,-2 -0.567,-0.38 -1.9,-0.745 -2.208,-0.333 -0.708,0.958 -0.927,1.88 -0.954,2.942 -0.025,1.219 0.183,4.522 0.276,5.126 0.246,1.505 -0.12,2.15 -0.088,2.551 0.047,0.76 0.35,0.927 0.844,1.006 0.954,0.14 1.124,-0.579 1.124,-0.579"
     id="path20" />
  <path
     style="fill:none;stroke:#231f20;stroke-width:0.565977;stroke-linecap:butt;stroke-linejoin:miter;stroke-miterlimit:4;stroke-dasharray:none;stroke-opacity:1"
     d="m 328.1548,101.718 c 0.402,-0.505 0.308,-2.453 0.855,-3.962 0.365,-1.022 0.161,-3.762 0.604,-4.751 0.407,-0.907 0.505,-1.36 -0.453,-2 -0.567,-0.38 -1.9,-0.745 -2.208,-0.333 -0.708,0.958 -0.927,1.88 -0.954,2.942 -0.025,1.219 0.183,4.522 0.276,5.126 0.246,1.505 -0.12,2.15 -0.088,2.551 0.047,0.76 0.35,0.927 0.844,1.006 0.954,0.14 1.124,-0.579 1.124,-0.579 z"
     id="path21" />
  <path
     style="fill:#231f20;fill-opacity:1;fill-rule:nonzero;stroke:none"
     d="m 329.0148,92.698 c 1.298,-0.016 0.891,-2.016 0.87,-2.553 -0.026,-0.547 0.073,-2.099 0.313,-3.296 0.235,-1.204 0.015,-2.803 0.457,-5.089 0.235,-1.198 -0.296,-2.515 -2.052,-2.782 -1.733,-0.254 -2.53,0.62 -2.598,2.115 -0.068,1.495 0.505,2.923 0.546,4.439 0.047,1.509 -0.057,3.052 -0.186,4.26 -0.156,1.374 0.276,2.114 0.692,2.344 1.042,0.593 1.958,0.562 1.958,0.562"
     id="path22" />
  <path
     style="fill:none;stroke:#231f20;stroke-width:0.565977;stroke-linecap:butt;stroke-linejoin:miter;stroke-miterlimit:4;stroke-dasharray:none;stroke-opacity:1"
     d="m 329.0148,92.698 c 1.298,-0.016 0.891,-2.016 0.87,-2.553 -0.026,-0.547 0.073,-2.099 0.313,-3.296 0.235,-1.204 0.015,-2.803 0.457,-5.089 0.235,-1.198 -0.296,-2.515 -2.052,-2.782 -1.733,-0.254 -2.53,0.62 -2.598,2.115 -0.068,1.495 0.505,2.923 0.546,4.439 0.047,1.509 -0.057,3.052 -0.186,4.26 -0.156,1.374 0.276,2.114 0.692,2.344 1.042,0.593 1.958,0.562 1.958,0.562 z"
     id="path23" />
  <path
     style="fill:#231f20;fill-opacity:1;fill-rule:nonzero;stroke:none"
     d="m 25.2655,27.317 c 1.1521,0.704 0.9693,1.677 0.1677,2.333 -0.2401,0.199 -0.2453,0.61 -0.4906,0.787 -0.5828,0.396 -2.2864,0.016 -2.3334,-1.484 0,-0.104 -0.2702,-0.875 -0.3796,-1.489 -0.2188,-1.194 -0.0682,-3.683 1.9583,-5.459 0.9641,-0.839 1.2812,-0.115 0.9948,0.344 -0.9068,1.448 -0.7027,1.755 -0.8027,2.224 -0.3374,1.583 0.8855,2.744 0.8855,2.744"
     id="path24" />
  <path
     style="fill:none;stroke:#231f20;stroke-width:0.332927;stroke-linecap:butt;stroke-linejoin:miter;stroke-miterlimit:4;stroke-dasharray:none;stroke-opacity:1"
     d="m 25.2655,27.317 c 1.1521,0.704 0.9693,1.677 0.1677,2.333 -0.2401,0.199 -0.2453,0.61 -0.4906,0.787 -0.5828,0.396 -2.2864,0.016 -2.3334,-1.484 0,-0.104 -0.2702,-0.875 -0.3796,-1.489 -0.2188,-1.194 -0.0682,-3.683 1.9583,-5.459 0.9641,-0.839 1.2812,-0.115 0.9948,0.344 -0.9068,1.448 -0.7027,1.755 -0.8027,2.224 -0.3374,1.583 0.8855,2.744 0.8855,2.744 z"
     id="path25" />
  <path
     style="fill:#231f20;fill-opacity:1;fill-rule:nonzero;stroke:none"
     d="m 25.5426,46.062 c 2.2655,0.068 2.7135,-0.224 2.8015,-1.182 0.0626,-0.635 0.3386,-1.203 0.3959,-1.588 0.1828,-1.282 -0.036,-3.516 -2.312,-9.699 -0.5213,-1.395 -1.2292,-3.369 -1.4532,-4.197 -0.3604,-1.307 -2.2921,0.172 -2.1561,0.688 0.4375,1.661 0.5989,2.833 0.6708,3.452 0.0531,0.422 0.2453,1.162 0.2292,2.829 -0.0256,2.531 -0.4105,4.036 -0.1865,6.14 0.1036,0.973 -0.4375,1.776 0.1557,2.683 0.588,0.91 1.8547,0.874 1.8547,0.874"
     id="path26" />
  <path
     style="fill:none;stroke:#231f20;stroke-width:0.565977;stroke-linecap:butt;stroke-linejoin:miter;stroke-miterlimit:4;stroke-dasharray:none;stroke-opacity:1"
     d="m 25.5426,46.062 c 2.2655,0.068 2.7135,-0.224 2.8015,-1.182 0.0626,-0.635 0.3386,-1.203 0.3959,-1.588 0.1828,-1.282 -0.036,-3.516 -2.312,-9.699 -0.5213,-1.395 -1.2292,-3.369 -1.4532,-4.197 -0.3604,-1.307 -2.2921,0.172 -2.1561,0.688 0.4375,1.661 0.5989,2.833 0.6708,3.452 0.0531,0.422 0.2453,1.162 0.2292,2.829 -0.0256,2.531 -0.4105,4.036 -0.1865,6.14 0.1036,0.973 -0.4375,1.776 0.1557,2.683 0.588,0.91 1.8547,0.874 1.8547,0.874 z"
     id="path27" />
  <path
     style="fill:#0098c9;fill-opacity:1;fill-rule:nonzero;stroke:none"
     d="m 29.5264,72.552 c 0.3751,-3.11 0.7964,-3.735 1.2604,-4.531 2.8959,-5.005 0.3855,-6.333 -2.4948,-6.156 -3.3853,0.203 -4.5989,0.208 -4.7656,6.5 -0.041,1.749 -1.0932,8.443 -1.0932,8.443 -0.7036,2.348 -0.1308,5.004 0.9631,5.962 1.1609,1.011 0.7703,0.527 2.0156,1.266 1.1828,0.704 3.364,0.714 4.1724,-0.224 0.7702,-0.9 0.2385,-2.484 -0.2298,-4.859 -0.3692,-1.875 0.1719,-6.401 0.1719,-6.401"
     id="path28" />
  <path
     style="fill:none;stroke:#231f20;stroke-width:0.565977;stroke-linecap:butt;stroke-linejoin:miter;stroke-miterlimit:4;stroke-dasharray:none;stroke-opacity:1"
     d="m 29.5264,72.552 c 0.3751,-3.11 0.7964,-3.735 1.2604,-4.531 2.8959,-5.005 0.3855,-6.333 -2.4948,-6.156 -3.3853,0.203 -4.5989,0.208 -4.7656,6.5 -0.041,1.749 -1.0932,8.443 -1.0932,8.443 -0.7036,2.348 -0.1308,5.004 0.9631,5.962 1.1609,1.011 0.7703,0.527 2.0156,1.266 1.1828,0.704 3.364,0.714 4.1724,-0.224 0.7702,-0.9 0.2385,-2.484 -0.2298,-4.859 -0.3692,-1.875 0.1719,-6.401 0.1719,-6.401 z"
     id="path29" />
  <path
     style="fill:#ffffff;fill-opacity:1;fill-rule:nonzero;stroke:none"
     d="m 21.9748,89.13 c -0.0894,0.23 -1.2296,0.11 -1.3228,0.626 -0.0948,0.52 0.6239,0.842 1.1452,2.77 l 0.0052,0.015 c 0.3391,1.417 1.1975,2.511 2.4068,2.828 2.0095,0.532 4.224,-1.26 4.9375,-3.989 0.7188,-2.73 -0.328,-5.37 -2.3385,-5.902 -1.9176,-0.509 -4.0271,1.115 -4.8334,3.652"
     id="path30" />
  <path
     style="fill:none;stroke:#231f20;stroke-width:0.565977;stroke-linecap:butt;stroke-linejoin:miter;stroke-miterlimit:4;stroke-dasharray:none;stroke-opacity:1"
     d="m 21.9748,89.13 c -0.0894,0.23 -1.2296,0.11 -1.3228,0.626 -0.0948,0.52 0.6239,0.842 1.1452,2.77 l 0.0052,0.015 c 0.3391,1.417 1.1975,2.511 2.4068,2.828 2.0095,0.532 4.224,-1.26 4.9375,-3.989 0.7188,-2.73 -0.328,-5.37 -2.3385,-5.902 -1.9176,-0.509 -4.0271,1.115 -4.8334,3.652 z"
     id="path31" />
  <path
     style="fill:#231f20;fill-opacity:1;fill-rule:nonzero;stroke:none"
     d="m 26.1723,43.677 c -3.9844,-0.459 -2.5828,3.375 -2.6349,3.849 -0.5948,4.979 -0.511,5.348 -0.6984,9.167 -0.2708,5.52 0.3906,9.343 3.5516,10.437 2.1467,0.744 3.7134,0.239 4.5733,-0.756 0.948,-1.109 1.6776,-4.197 -0.3495,-6.265 L 30.24,58.437 C 30.1305,57.281 30.0681,56.708 30.0629,56.136 30.052,55.13 29.9748,54.057 29.8332,52.109 29.5947,48.641 28.204,45.062 28.204,45.062 28.0895,43.817 26.1723,43.677 26.1723,43.677"
     id="path32" />
  <path
     style="fill:none;stroke:#231f20;stroke-width:0.565977;stroke-linecap:butt;stroke-linejoin:miter;stroke-miterlimit:4;stroke-dasharray:none;stroke-opacity:1"
     d="m 26.1723,43.677 c -3.9844,-0.459 -2.5828,3.375 -2.6349,3.849 -0.5948,4.979 -0.511,5.348 -0.6984,9.167 -0.2708,5.52 0.3906,9.343 3.5516,10.437 2.1467,0.744 3.7134,0.239 4.5733,-0.756 0.948,-1.109 1.6776,-4.197 -0.3495,-6.265 L 30.24,58.437 C 30.1305,57.281 30.0681,56.708 30.0629,56.136 30.052,55.13 29.9748,54.057 29.8332,52.109 29.5947,48.641 28.204,45.062 28.204,45.062 28.0895,43.817 26.1723,43.677 26.1723,43.677 Z"
     id="path33" />
  <path
     style="fill:#0098c9;fill-opacity:1;fill-rule:nonzero;stroke:none"
     d="m 29.9853,59.776 -7.7291,1.136 c 0.1344,0.645 0.2958,1.229 0.4677,1.79 0,0.079 -0.0052,0.163 -0.0147,0.23 -0.141,0.797 0.2708,1.276 0.9839,2.032 0.7923,1.333 1.8443,2.197 3.2964,2.442 2.2401,0.375 3.6932,-0.38 4.376,-1.505 0.7546,-1.256 0.9625,-4.427 -1.3802,-6.125"
     id="path34" />
  <path
     style="fill:none;stroke:#231f20;stroke-width:0.565977;stroke-linecap:butt;stroke-linejoin:miter;stroke-miterlimit:4;stroke-dasharray:none;stroke-opacity:1"
     d="m 29.9853,59.776 -7.7291,1.136 c 0.1344,0.645 0.2958,1.229 0.4677,1.79 0,0.079 -0.0052,0.163 -0.0147,0.23 -0.141,0.797 0.2708,1.276 0.9839,2.032 0.7923,1.333 1.8443,2.197 3.2964,2.442 2.2401,0.375 3.6932,-0.38 4.376,-1.505 0.7546,-1.256 0.9625,-4.427 -1.3802,-6.125 z"
     id="path35" />
  <path
     style="fill:#231f20;fill-opacity:1;fill-rule:nonzero;stroke:none"
     d="m 23.8598,101.786 c -0.2968,-0.573 0.1562,-2.464 -0.0984,-4.052 -0.1719,-1.073 0.541,-3.724 0.2853,-4.781 -0.228,-0.964 -0.2385,-1.432 0.8188,-1.88 0.6292,-0.265 2.0104,-0.375 2.2344,0.083 0.5145,1.073 0.5614,2.016 0.3854,3.073 -0.1985,1.197 -1.0162,4.407 -1.2239,4.979 -0.5162,1.437 -0.2814,2.135 -0.3855,2.526 -0.188,0.74 -0.5161,0.849 -1.0161,0.833 -0.9635,-0.041 -1,-0.781 -1,-0.781"
     id="path36" />
  <path
     style="fill:none;stroke:#231f20;stroke-width:0.565977;stroke-linecap:butt;stroke-linejoin:miter;stroke-miterlimit:4;stroke-dasharray:none;stroke-opacity:1"
     d="m 23.8598,101.786 c -0.2968,-0.573 0.1562,-2.464 -0.0984,-4.052 -0.1719,-1.073 0.541,-3.724 0.2853,-4.781 -0.228,-0.964 -0.2385,-1.432 0.8188,-1.88 0.6292,-0.265 2.0104,-0.375 2.2344,0.083 0.5145,1.073 0.5614,2.016 0.3854,3.073 -0.1985,1.197 -1.0162,4.407 -1.2239,4.979 -0.5162,1.437 -0.2814,2.135 -0.3855,2.526 -0.188,0.74 -0.5161,0.849 -1.0161,0.833 -0.9635,-0.041 -1,-0.781 -1,-0.781 z"
     id="path37" />
  <path
     style="fill:#231f20;fill-opacity:1;fill-rule:nonzero;stroke:none"
     d="m 24.6931,92.765 c -1.2703,-0.26 -0.5,-2.145 -0.3744,-2.672 0.1239,-0.531 0.3119,-2.072 0.3015,-3.296 -0.0058,-1.224 0.5104,-2.756 0.4942,-5.084 -0.0052,-1.224 0.7615,-2.416 2.5376,-2.348 1.7547,0.067 2.3744,1.077 2.1613,2.556 -0.2145,1.485 -1.0426,2.781 -1.3656,4.261 -0.3224,1.474 -0.5104,3.011 -0.6036,4.219 -0.1041,1.38 -0.6666,2.025 -1.1202,2.177 -1.1344,0.386 -2.0308,0.187 -2.0308,0.187"
     id="path38" />
  <path
     style="fill:none;stroke:#231f20;stroke-width:0.565977;stroke-linecap:butt;stroke-linejoin:miter;stroke-miterlimit:4;stroke-dasharray:none;stroke-opacity:1"
     d="m 24.6931,92.765 c -1.2703,-0.26 -0.5,-2.145 -0.3744,-2.672 0.1239,-0.531 0.3119,-2.072 0.3015,-3.296 -0.0058,-1.224 0.5104,-2.756 0.4942,-5.084 -0.0052,-1.224 0.7615,-2.416 2.5376,-2.348 1.7547,0.067 2.3744,1.077 2.1613,2.556 -0.2145,1.485 -1.0426,2.781 -1.3656,4.261 -0.3224,1.474 -0.5104,3.011 -0.6036,4.219 -0.1041,1.38 -0.6666,2.025 -1.1202,2.177 -1.1344,0.386 -2.0308,0.187 -2.0308,0.187 z"
     id="path39" />
  <path
     style="fill:#ffffff;fill-opacity:1;fill-rule:nonzero;stroke:none"
     d="m 26.3228,103.426 c -0.2281,-1.004 -1.2281,-1.629 -2.2281,-1.405 -1,0.229 -1.6308,1.229 -1.4016,2.229 0.2297,1 1.2245,1.629 2.2245,1.4 1.0052,-0.228 1.6291,-1.224 1.4052,-2.224"
     id="path40" />
  <path
     style="fill:none;stroke:#231f20;stroke-width:1.33171;stroke-linecap:butt;stroke-linejoin:miter;stroke-miterlimit:4;stroke-dasharray:none;stroke-opacity:1"
     d="m 26.3228,103.426 c -0.2281,-1.004 -1.2281,-1.629 -2.2281,-1.405 -1,0.229 -1.6308,1.229 -1.4016,2.229 0.2297,1 1.2245,1.629 2.2245,1.4 1.0052,-0.228 1.6291,-1.224 1.4052,-2.224 z"
     id="path41" />
  <path
     style="fill:#ffffff;fill-opacity:1;fill-rule:nonzero;stroke:none"
     d="m 53.3758,103.426 c -0.2238,-1.004 -1.2238,-1.629 -2.2238,-1.405 -1.0054,0.229 -1.6308,1.229 -1.4011,2.229 0.2239,1 1.2239,1.629 2.2239,1.4 1.0052,-0.228 1.6291,-1.224 1.401,-2.224"
     id="path42" />
  <path
     style="fill:none;stroke:#231f20;stroke-width:1.33171;stroke-linecap:butt;stroke-linejoin:miter;stroke-miterlimit:4;stroke-dasharray:none;stroke-opacity:1"
     d="m 53.3758,103.426 c -0.2238,-1.004 -1.2238,-1.629 -2.2238,-1.405 -1.0054,0.229 -1.6308,1.229 -1.4011,2.229 0.2239,1 1.2239,1.629 2.2239,1.4 1.0052,-0.228 1.6291,-1.224 1.401,-2.224 z"
     id="path43" />
  <path
     style="fill:#ffffff;fill-opacity:1;fill-rule:nonzero;stroke:none"
     d="m 102.3228,103.426 c -0.228,-1.004 -1.223,-1.629 -2.223,-1.405 -1.005,0.229 -1.631,1.229 -1.407,2.229 0.23,1 1.225,1.629 2.23,1.4 1,-0.228 1.624,-1.224 1.4,-2.224"
     id="path44" />
  <path
     style="fill:none;stroke:#231f20;stroke-width:1.33171;stroke-linecap:butt;stroke-linejoin:miter;stroke-miterlimit:4;stroke-dasharray:none;stroke-opacity:1"
     d="m 102.3228,103.426 c -0.228,-1.004 -1.223,-1.629 -2.223,-1.405 -1.005,0.229 -1.631,1.229 -1.407,2.229 0.23,1 1.225,1.629 2.23,1.4 1,-0.228 1.624,-1.224 1.4,-2.224 z"
     id="path45" />
  <path
     style="fill:#ffffff;fill-opacity:1;fill-rule:nonzero;stroke:none"
     d="m 169.2238,103.426 c -0.229,-1.004 -1.229,-1.629 -2.229,-1.405 -1,0.229 -1.63,1.229 -1.4,2.229 0.228,1 1.224,1.629 2.224,1.4 1.004,-0.228 1.629,-1.224 1.405,-2.224"
     id="path46" />
  <path
     style="fill:none;stroke:#231f20;stroke-width:1.33171;stroke-linecap:butt;stroke-linejoin:miter;stroke-miterlimit:4;stroke-dasharray:none;stroke-opacity:1"
     d="m 169.2238,103.426 c -0.229,-1.004 -1.229,-1.629 -2.229,-1.405 -1,0.229 -1.63,1.229 -1.4,2.229 0.228,1 1.224,1.629 2.224,1.4 1.004,-0.228 1.629,-1.224 1.405,-2.224 z"
     id="path47" />
  <path
     style="fill:#ffffff;fill-opacity:1;fill-rule:nonzero;stroke:none"
     d="m 228.4998,103.426 c -0.23,-1.004 -1.23,-1.629 -2.224,-1.405 -1.006,0.229 -1.635,1.229 -1.406,2.229 0.23,1 1.224,1.629 2.224,1.4 1.006,-0.228 1.63,-1.224 1.406,-2.224"
     id="path48" />
  <path
     style="fill:none;stroke:#231f20;stroke-width:1.33171;stroke-linecap:butt;stroke-linejoin:miter;stroke-miterlimit:4;stroke-dasharray:none;stroke-opacity:1"
     d="m 228.4998,103.426 c -0.23,-1.004 -1.23,-1.629 -2.224,-1.405 -1.006,0.229 -1.635,1.229 -1.406,2.229 0.23,1 1.224,1.629 2.224,1.4 1.006,-0.228 1.63,-1.224 1.406,-2.224 z"
     id="path49" />
  <path
     style="fill:#ffffff;fill-opacity:1;fill-rule:nonzero;stroke:none"
     d="m 274.8958,103.426 c -0.23,-1.004 -1.224,-1.629 -2.224,-1.405 -1.006,0.229 -1.63,1.229 -1.407,2.229 0.229,1 1.224,1.629 2.229,1.4 1,-0.228 1.626,-1.224 1.402,-2.224"
     id="path50" />
  <path
     style="fill:none;stroke:#231f20;stroke-width:1.33171;stroke-linecap:butt;stroke-linejoin:miter;stroke-miterlimit:4;stroke-dasharray:none;stroke-opacity:1"
     d="m 274.8958,103.426 c -0.23,-1.004 -1.224,-1.629 -2.224,-1.405 -1.006,0.229 -1.63,1.229 -1.407,2.229 0.229,1 1.224,1.629 2.229,1.4 1,-0.228 1.626,-1.224 1.402,-2.224 z"
     id="path51" />
  <path
     style="fill:#ffffff;fill-opacity:1;fill-rule:nonzero;stroke:none"
     d="m 328.6138,103.426 c -0.229,-1.004 -1.229,-1.629 -2.229,-1.405 -1,0.229 -1.63,1.229 -1.4,2.229 0.228,1 1.224,1.629 2.224,1.4 1.004,-0.228 1.629,-1.224 1.405,-2.224"
     id="path52" />
  <path
     style="fill:none;stroke:#231f20;stroke-width:1.33171;stroke-linecap:butt;stroke-linejoin:miter;stroke-miterlimit:4;stroke-dasharray:none;stroke-opacity:1"
     d="m 328.6138,103.426 c -0.229,-1.004 -1.229,-1.629 -2.229,-1.405 -1,0.229 -1.63,1.229 -1.4,2.229 0.228,1 1.224,1.629 2.224,1.4 1.004,-0.228 1.629,-1.224 1.405,-2.224 z"
     id="path53" />
  <path
     style="fill:#231f20;fill-opacity:1;fill-rule:nonzero;stroke:none"
     d="m 340.6348,28.286 c -1.265,0.479 -1.265,1.47 -0.598,2.266 0.192,0.234 0.124,0.646 0.333,0.86 0.5,0.5 2.244,0.448 2.567,-1.022 0.021,-0.098 0.433,-0.812 0.652,-1.39 0.437,-1.135 0.754,-3.61 -0.912,-5.73 -0.787,-1.005 -1.235,-0.353 -1.042,0.147 0.626,1.599 0.364,1.859 0.38,2.339 0.036,1.618 -1.38,2.53 -1.38,2.53"
     id="path54" />
  <path
     style="fill:none;stroke:#231f20;stroke-width:0.332927;stroke-linecap:butt;stroke-linejoin:miter;stroke-miterlimit:4;stroke-dasharray:none;stroke-opacity:1"
     d="m 340.6348,28.286 c -1.265,0.479 -1.265,1.47 -0.598,2.266 0.192,0.234 0.124,0.646 0.333,0.86 0.5,0.5 2.244,0.448 2.567,-1.022 0.021,-0.098 0.433,-0.812 0.652,-1.39 0.437,-1.135 0.754,-3.61 -0.912,-5.73 -0.787,-1.005 -1.235,-0.353 -1.042,0.147 0.626,1.599 0.364,1.859 0.38,2.339 0.036,1.618 -1.38,2.53 -1.38,2.53 z"
     id="path55" />
  <path
     style="fill:#231f20;fill-opacity:1;fill-rule:nonzero;stroke:none"
     d="m 336.8748,46.656 c -2.24,-0.359 -2.625,-0.724 -2.532,-1.682 0.052,-0.636 -0.109,-1.245 -0.093,-1.636 0.057,-1.297 0.692,-3.448 4.072,-9.098 0.772,-1.276 1.839,-3.084 2.209,-3.855 0.599,-1.219 2.219,0.593 1.99,1.079 -0.735,1.546 -1.115,2.666 -1.298,3.265 -0.129,0.407 -0.457,1.099 -0.754,2.735 -0.448,2.489 -0.344,4.041 -0.959,6.068 -0.281,0.942 0.104,1.828 -0.651,2.609 -0.745,0.785 -1.984,0.515 -1.984,0.515"
     id="path56" />
  <path
     style="fill:none;stroke:#231f20;stroke-width:0.565977;stroke-linecap:butt;stroke-linejoin:miter;stroke-miterlimit:4;stroke-dasharray:none;stroke-opacity:1"
     d="m 336.8748,46.656 c -2.24,-0.359 -2.625,-0.724 -2.532,-1.682 0.052,-0.636 -0.109,-1.245 -0.093,-1.636 0.057,-1.297 0.692,-3.448 4.072,-9.098 0.772,-1.276 1.839,-3.084 2.209,-3.855 0.599,-1.219 2.219,0.593 1.99,1.079 -0.735,1.546 -1.115,2.666 -1.298,3.265 -0.129,0.407 -0.457,1.099 -0.754,2.735 -0.448,2.489 -0.344,4.041 -0.959,6.068 -0.281,0.942 0.104,1.828 -0.651,2.609 -0.745,0.785 -1.984,0.515 -1.984,0.515 z"
     id="path57" />
  <path
     style="fill:#0098c9;fill-opacity:1;fill-rule:nonzero;stroke:none"
     d="m 328.0308,71.942 c 0.208,-3.125 -0.089,-3.817 -0.396,-4.688 -1.917,-5.457 0.802,-6.296 3.594,-5.582 3.292,0.828 4.484,1.057 3.48,7.276 -0.287,1.724 -0.5,8.494 -0.5,8.494 0.254,2.438 -0.803,4.943 -2.058,5.683 -1.329,0.776 -0.854,0.369 -2.214,0.864 -1.291,0.469 -3.443,0.079 -4.058,-1 -0.593,-1.025 0.224,-2.479 1.126,-4.729 0.713,-1.771 1.026,-6.318 1.026,-6.318"
     id="path58" />
  <path
     style="fill:none;stroke:#231f20;stroke-width:0.565977;stroke-linecap:butt;stroke-linejoin:miter;stroke-miterlimit:4;stroke-dasharray:none;stroke-opacity:1"
     d="m 328.0308,71.942 c 0.208,-3.125 -0.089,-3.817 -0.396,-4.688 -1.917,-5.457 0.802,-6.296 3.594,-5.582 3.292,0.828 4.484,1.057 3.48,7.276 -0.287,1.724 -0.5,8.494 -0.5,8.494 0.254,2.438 -0.803,4.943 -2.058,5.683 -1.329,0.776 -0.854,0.369 -2.214,0.864 -1.291,0.469 -3.443,0.079 -4.058,-1 -0.593,-1.025 0.224,-2.479 1.126,-4.729 0.713,-1.771 1.026,-6.318 1.026,-6.318 z"
     id="path59" />
  <path
     style="fill:#ffffff;fill-opacity:1;fill-rule:nonzero;stroke:none"
     d="m 332.3648,89.636 c 0.041,0.238 1.186,0.338 1.181,0.858 -0.004,0.527 -0.765,0.714 -1.64,2.506 l -0.011,0.021 c -0.588,1.328 -1.634,2.239 -2.89,2.328 -2.074,0.145 -3.906,-2.021 -4.104,-4.833 -0.203,-2.823 1.322,-5.224 3.39,-5.371 1.984,-0.145 3.755,1.844 4.074,4.491"
     id="path60" />
  <path
     style="fill:none;stroke:#231f20;stroke-width:0.565977;stroke-linecap:butt;stroke-linejoin:miter;stroke-miterlimit:4;stroke-dasharray:none;stroke-opacity:1"
     d="m 332.3648,89.636 c 0.041,0.238 1.186,0.338 1.181,0.858 -0.004,0.527 -0.765,0.714 -1.64,2.506 l -0.011,0.021 c -0.588,1.328 -1.634,2.239 -2.89,2.328 -2.074,0.145 -3.906,-2.021 -4.104,-4.833 -0.203,-2.823 1.322,-5.224 3.39,-5.371 1.984,-0.145 3.755,1.844 4.074,4.491 z"
     id="path61" />
  <path
     style="fill:#231f20;fill-opacity:1;fill-rule:nonzero;stroke:none"
     d="m 336.6978,44.193 c 4,0.291 1.911,3.796 1.875,4.276 -0.344,5 -0.495,5.343 -1.022,9.129 -0.76,5.48 -2.118,9.115 -5.432,9.6 -2.249,0.334 -3.692,-0.453 -4.349,-1.594 -0.728,-1.266 -0.869,-4.438 1.505,-6.094 l 0.678,-1.568 c 0.322,-1.12 0.489,-1.672 0.604,-2.234 0.198,-0.979 0.474,-2.02 0.974,-3.911 0.886,-3.36 2.916,-6.62 2.916,-6.62 0.344,-1.199 2.251,-0.984 2.251,-0.984"
     id="path62" />
  <path
     style="fill:none;stroke:#231f20;stroke-width:0.565977;stroke-linecap:butt;stroke-linejoin:miter;stroke-miterlimit:4;stroke-dasharray:none;stroke-opacity:1"
     d="m 336.6978,44.193 c 4,0.291 1.911,3.796 1.875,4.276 -0.344,5 -0.495,5.343 -1.022,9.129 -0.76,5.48 -2.118,9.115 -5.432,9.6 -2.249,0.334 -3.692,-0.453 -4.349,-1.594 -0.728,-1.266 -0.869,-4.438 1.505,-6.094 l 0.678,-1.568 c 0.322,-1.12 0.489,-1.672 0.604,-2.234 0.198,-0.979 0.474,-2.02 0.974,-3.911 0.886,-3.36 2.916,-6.62 2.916,-6.62 0.344,-1.199 2.251,-0.984 2.251,-0.984 z"
     id="path63" />
  <path
     style="fill:#0098c9;fill-opacity:1;fill-rule:nonzero;stroke:none"
     d="m 337.3378,61.86 -7.38,-2.558 c -2.62,1.234 -3.005,4.391 -2.5,5.755 0.464,1.24 1.751,2.251 4.021,2.297 1.474,0.031 2.672,-0.62 3.698,-1.786 0.838,-0.61 1.333,-1 1.344,-1.808 0,-0.072 0.01,-0.151 0.025,-0.228 0.276,-0.522 0.543,-1.068 0.792,-1.672"
     id="path64" />
  <path
     style="fill:none;stroke:#231f20;stroke-width:0.565977;stroke-linecap:butt;stroke-linejoin:miter;stroke-miterlimit:4;stroke-dasharray:none;stroke-opacity:1"
     d="m 337.3378,61.86 -7.38,-2.558 c -2.62,1.234 -3.005,4.391 -2.5,5.755 0.464,1.24 1.751,2.251 4.021,2.297 1.474,0.031 2.672,-0.62 3.698,-1.786 0.838,-0.61 1.333,-1 1.344,-1.808 0,-0.072 0.01,-0.151 0.025,-0.228 0.276,-0.522 0.543,-1.068 0.792,-1.672 z"
     id="path65" />
  <path
     style="fill:#0098c9;fill-opacity:1;fill-rule:nonzero;stroke:none"
     d="m 124.7288,116.65 c 2.042,-2.859 2.443,-3.744 3.022,-4.729 2.916,-4.995 2.057,-5.952 0.046,-7.255 -2.854,-1.833 -4.593,-2.568 -7.474,3.032 -2.187,4.244 -4.422,7.093 -4.422,7.093 -1.51,1.099 -3.344,4.192 -3.249,5.094 0.156,1.526 0.171,1.229 0.957,2.442 1.459,2.246 2.656,2.147 3.762,1.694 1.098,-0.448 1.869,-1.136 3.776,-3.204 1.478,-1.599 3.582,-4.167 3.582,-4.167"
     id="path66" />
  <path
     style="fill:none;stroke:#231f20;stroke-width:0.565977;stroke-linecap:butt;stroke-linejoin:miter;stroke-miterlimit:4;stroke-dasharray:none;stroke-opacity:1"
     d="m 124.7288,116.65 c 2.042,-2.859 2.443,-3.744 3.022,-4.729 2.916,-4.995 2.057,-5.952 0.046,-7.255 -2.854,-1.833 -4.593,-2.568 -7.474,3.032 -2.187,4.244 -4.422,7.093 -4.422,7.093 -1.51,1.099 -3.344,4.192 -3.249,5.094 0.156,1.526 0.171,1.229 0.957,2.442 1.459,2.246 2.656,2.147 3.762,1.694 1.098,-0.448 1.869,-1.136 3.776,-3.204 1.478,-1.599 3.582,-4.167 3.582,-4.167 z"
     id="path67" />
  <path
     style="fill:#231f20;fill-opacity:1;fill-rule:nonzero;stroke:none"
     d="m 92.9428,122.245 c 0.213,-1.334 1.182,-1.538 2.094,-1.047 0.276,0.14 0.662,-0.011 0.911,0.145 0.589,0.391 0.896,2.104 -0.468,2.724 -0.1,0.042 -0.713,0.588 -1.229,0.922 -1.021,0.661 -3.375,1.48 -5.803,0.286 -1.14,-0.562 -0.588,-1.14 -0.063,-1.052 1.694,0.282 1.896,-0.021 2.366,-0.109 1.593,-0.287 2.192,-1.869 2.192,-1.869"
     id="path68" />
  <path
     style="fill:none;stroke:#231f20;stroke-width:0.332927;stroke-linecap:butt;stroke-linejoin:miter;stroke-miterlimit:4;stroke-dasharray:none;stroke-opacity:1"
     d="m 92.9428,122.245 c 0.213,-1.334 1.182,-1.538 2.094,-1.047 0.276,0.14 0.662,-0.011 0.911,0.145 0.589,0.391 0.896,2.104 -0.468,2.724 -0.1,0.042 -0.713,0.588 -1.229,0.922 -1.021,0.661 -3.375,1.48 -5.803,0.286 -1.14,-0.562 -0.588,-1.14 -0.063,-1.052 1.694,0.282 1.896,-0.021 2.366,-0.109 1.593,-0.287 2.192,-1.869 2.192,-1.869 z"
     id="path69" />
  <path
     style="fill:#ffffff;fill-opacity:1;fill-rule:nonzero;stroke:none"
     d="m 110.1558,114.802 c -0.807,-2.115 -1.249,-2.417 -2.167,-2.136 -0.613,0.188 -1.238,0.151 -1.613,0.251 -1.262,0.317 -3.245,1.38 -8.079,5.848 -1.088,1.01 -2.641,2.428 -3.317,2.953 -1.073,0.833 1.036,2.047 1.463,1.724 1.365,-1.036 2.385,-1.635 2.928,-1.943 0.374,-0.208 0.978,-0.666 2.525,-1.292 2.344,-0.948 3.885,-1.166 5.74,-2.181 0.864,-0.475 1.812,-0.281 2.416,-1.177 0.62,-0.891 0.104,-2.047 0.104,-2.047"
     id="path70" />
  <path
     style="fill:none;stroke:#231f20;stroke-width:0.565977;stroke-linecap:butt;stroke-linejoin:miter;stroke-miterlimit:4;stroke-dasharray:none;stroke-opacity:1"
     d="m 110.1558,114.802 c -0.807,-2.115 -1.249,-2.417 -2.167,-2.136 -0.613,0.188 -1.238,0.151 -1.613,0.251 -1.262,0.317 -3.245,1.38 -8.079,5.848 -1.088,1.01 -2.641,2.428 -3.317,2.953 -1.073,0.833 1.036,2.047 1.463,1.724 1.365,-1.036 2.385,-1.635 2.928,-1.943 0.374,-0.208 0.978,-0.666 2.525,-1.292 2.344,-0.948 3.885,-1.166 5.74,-2.181 0.864,-0.475 1.812,-0.281 2.416,-1.177 0.62,-0.891 0.104,-2.047 0.104,-2.047 z"
     id="path71" />
  <path
     style="fill:#ffffff;fill-opacity:1;fill-rule:nonzero;stroke:none"
     d="m 107.1518,119.874 c -0.24,0.032 -0.677,-1.036 -1.172,-0.875 -0.5,0.167 -0.454,0.948 -1.907,2.312 l -0.016,0.016 c -1.093,0.959 -1.65,2.23 -1.358,3.454 0.473,2.021 3.088,3.13 5.833,2.484 2.755,-0.651 4.593,-2.818 4.115,-4.839 -0.454,-1.932 -2.876,-3.036 -5.495,-2.552"
     id="path72" />
  <path
     style="fill:none;stroke:#231f20;stroke-width:0.565977;stroke-linecap:butt;stroke-linejoin:miter;stroke-miterlimit:4;stroke-dasharray:none;stroke-opacity:1"
     d="m 107.1518,119.874 c -0.24,0.032 -0.677,-1.036 -1.172,-0.875 -0.5,0.167 -0.454,0.948 -1.907,2.312 l -0.016,0.016 c -1.093,0.959 -1.65,2.23 -1.358,3.454 0.473,2.021 3.088,3.13 5.833,2.484 2.755,-0.651 4.593,-2.818 4.115,-4.839 -0.454,-1.932 -2.876,-3.036 -5.495,-2.552 z"
     id="path73" />
  <path
     style="fill:#ffffff;fill-opacity:1;fill-rule:nonzero;stroke:#231f20;stroke-width:0.565977;stroke-linecap:round;stroke-linejoin:round;stroke-miterlimit:4;stroke-dasharray:none;stroke-opacity:1"
     d="m 108.7758,116.901 c 1.338,0.906 3.147,-0.708 3.5,-0.803 4.824,-1.364 5.136,-1.583 8.729,-2.875 5.208,-1.864 8.484,-3.942 8.282,-7.286 -0.135,-2.266 -1.203,-3.515 -2.448,-3.932 -1.391,-0.448 -4.526,0.068 -5.662,2.724 l -1.396,0.989 c -1.025,0.547 -1.53,0.817 -2.057,1.047 -0.927,0.396 -1.88,0.876 -3.635,1.756 -3.104,1.552 -5.88,4.208 -5.88,4.208 -0.458,0.245 -0.62,0.702 -0.657,1.156"
     id="path74" />
  <path
     style="fill:#0098c9;fill-opacity:1;fill-rule:nonzero;stroke:none"
     d="m 129.3078,105.281 c -0.511,-2.208 -1.765,-3.266 -3.068,-3.464 -1.443,-0.214 -4.459,0.813 -5.12,3.625 l 4.011,6.703 c 3.098,-2.124 4.781,-4.286 4.177,-6.864"
     id="path75" />
  <path
     style="fill:none;stroke:#231f20;stroke-width:0.565977;stroke-linecap:butt;stroke-linejoin:miter;stroke-miterlimit:4;stroke-dasharray:none;stroke-opacity:1"
     d="m 129.3078,105.281 c -0.511,-2.208 -1.765,-3.266 -3.068,-3.464 -1.443,-0.214 -4.459,0.813 -5.12,3.625 l 4.011,6.703 c 3.098,-2.124 4.781,-4.286 4.177,-6.864 z"
     id="path76" />
  <path
     style="fill:#231f20;fill-opacity:1;fill-rule:nonzero;stroke:none"
     d="m 103.1468,105.198 c 0.624,0.145 1.771,1.719 3.145,2.557 0.927,0.562 2.484,2.828 3.448,3.323 0.885,0.453 1.249,0.744 0.907,1.843 -0.21,0.652 -1.022,1.772 -1.516,1.641 -1.151,-0.297 -1.901,-0.88 -2.588,-1.697 -0.787,-0.928 -2.694,-3.636 -3,-4.167 -0.751,-1.324 -1.434,-1.6 -1.667,-1.933 -0.439,-0.62 -0.308,-0.943 0.031,-1.312 0.65,-0.708 1.24,-0.255 1.24,-0.255"
     id="path77" />
  <path
     style="fill:none;stroke:#231f20;stroke-width:0.565977;stroke-linecap:butt;stroke-linejoin:miter;stroke-miterlimit:4;stroke-dasharray:none;stroke-opacity:1"
     d="m 103.1468,105.198 c 0.624,0.145 1.771,1.719 3.145,2.557 0.927,0.562 2.484,2.828 3.448,3.323 0.885,0.453 1.249,0.744 0.907,1.843 -0.21,0.652 -1.022,1.772 -1.516,1.641 -1.151,-0.297 -1.901,-0.88 -2.588,-1.697 -0.787,-0.928 -2.694,-3.636 -3,-4.167 -0.751,-1.324 -1.434,-1.6 -1.667,-1.933 -0.439,-0.62 -0.308,-0.943 0.031,-1.312 0.65,-0.708 1.24,-0.255 1.24,-0.255 z"
     id="path78" />
  <path
     style="fill:#231f20;fill-opacity:1;fill-rule:nonzero;stroke:none"
     d="m 109.4688,111.693 c 1.016,-0.798 1.954,1.014 2.271,1.442 0.323,0.448 1.374,1.588 2.312,2.375 0.937,0.792 1.767,2.177 3.547,3.677 0.933,0.787 1.344,2.146 0.141,3.454 -1.188,1.29 -2.364,1.104 -3.349,-0.016 -0.99,-1.126 -1.438,-2.599 -2.354,-3.803 -0.912,-1.208 -1.958,-2.344 -2.824,-3.203 -0.978,-0.969 -1.099,-1.817 -0.921,-2.265 0.443,-1.109 1.177,-1.661 1.177,-1.661"
     id="path79" />
  <path
     style="fill:none;stroke:#231f20;stroke-width:0.565977;stroke-linecap:butt;stroke-linejoin:miter;stroke-miterlimit:4;stroke-dasharray:none;stroke-opacity:1"
     d="m 109.4688,111.693 c 1.016,-0.798 1.954,1.014 2.271,1.442 0.323,0.448 1.374,1.588 2.312,2.375 0.937,0.792 1.767,2.177 3.547,3.677 0.933,0.787 1.344,2.146 0.141,3.454 -1.188,1.29 -2.364,1.104 -3.349,-0.016 -0.99,-1.126 -1.438,-2.599 -2.354,-3.803 -0.912,-1.208 -1.958,-2.344 -2.824,-3.203 -0.978,-0.969 -1.099,-1.817 -0.921,-2.265 0.443,-1.109 1.177,-1.661 1.177,-1.661 z"
     id="path80" />
  <path
     style="fill:#0098c9;fill-opacity:1;fill-rule:nonzero;stroke:none"
     d="m 141.4118,97.688 c -1.199,3.301 -1.344,4.265 -1.636,5.369 -1.463,5.593 -0.38,6.286 1.912,6.994 3.24,1 5.109,1.235 6.38,-4.932 0.964,-4.677 2.344,-8.015 2.344,-8.015 1.161,-1.468 2.093,-4.938 1.76,-5.787 -0.557,-1.427 -0.5,-1.135 -1.583,-2.093 -2.005,-1.766 -3.13,-1.35 -4.073,-0.62 -0.937,0.729 -1.5,1.604 -2.776,4.104 -0.989,1.942 -2.328,4.98 -2.328,4.98"
     id="path81" />
  <path
     style="fill:none;stroke:#231f20;stroke-width:0.565977;stroke-linecap:butt;stroke-linejoin:miter;stroke-miterlimit:4;stroke-dasharray:none;stroke-opacity:1"
     d="m 141.4118,97.688 c -1.199,3.301 -1.344,4.265 -1.636,5.369 -1.463,5.593 -0.38,6.286 1.912,6.994 3.24,1 5.109,1.235 6.38,-4.932 0.964,-4.677 2.344,-8.015 2.344,-8.015 1.161,-1.468 2.093,-4.938 1.76,-5.787 -0.557,-1.427 -0.5,-1.135 -1.583,-2.093 -2.005,-1.766 -3.13,-1.35 -4.073,-0.62 -0.937,0.729 -1.5,1.604 -2.776,4.104 -0.989,1.942 -2.328,4.98 -2.328,4.98 z"
     id="path82" />
  <path
     style="fill:#231f20;fill-opacity:1;fill-rule:nonzero;stroke:none"
     d="m 177.0268,93.786 c -0.276,1.323 -1.256,1.474 -2.142,0.943 -0.265,-0.161 -0.661,-0.027 -0.905,-0.197 -0.568,-0.418 -0.787,-2.147 0.609,-2.694 0.099,-0.036 0.739,-0.552 1.271,-0.86 1.052,-0.609 3.448,-1.312 5.806,0.006 1.115,0.62 0.538,1.166 0.011,1.048 -1.672,-0.36 -1.89,-0.068 -2.364,-0.006 -1.604,0.208 -2.286,1.76 -2.286,1.76"
     id="path83" />
  <path
     style="fill:none;stroke:#231f20;stroke-width:0.332927;stroke-linecap:butt;stroke-linejoin:miter;stroke-miterlimit:4;stroke-dasharray:none;stroke-opacity:1"
     d="m 177.0268,93.786 c -0.276,1.323 -1.256,1.474 -2.142,0.943 -0.265,-0.161 -0.661,-0.027 -0.905,-0.197 -0.568,-0.418 -0.787,-2.147 0.609,-2.694 0.099,-0.036 0.739,-0.552 1.271,-0.86 1.052,-0.609 3.448,-1.312 5.806,0.006 1.115,0.62 0.538,1.166 0.011,1.048 -1.672,-0.36 -1.89,-0.068 -2.364,-0.006 -1.604,0.208 -2.286,1.76 -2.286,1.76 z"
     id="path84" />
  <path
     style="fill:#ffffff;fill-opacity:1;fill-rule:nonzero;stroke:none"
     d="m 159.4688,100.359 c 0.698,2.151 1.126,2.479 2.058,2.239 0.62,-0.156 1.244,-0.088 1.625,-0.167 1.271,-0.254 3.307,-1.218 8.353,-5.442 1.142,-0.953 2.76,-2.287 3.464,-2.781 1.11,-0.782 -0.932,-2.094 -1.374,-1.796 -1.412,0.968 -2.464,1.514 -3.022,1.796 -0.385,0.188 -1.01,0.62 -2.588,1.166 -2.386,0.828 -3.938,0.975 -5.844,1.896 -0.885,0.423 -1.818,0.183 -2.469,1.052 -0.667,0.86 -0.203,2.037 -0.203,2.037"
     id="path85" />
  <path
     style="fill:none;stroke:#231f20;stroke-width:0.565977;stroke-linecap:butt;stroke-linejoin:miter;stroke-miterlimit:4;stroke-dasharray:none;stroke-opacity:1"
     d="m 159.4688,100.359 c 0.698,2.151 1.126,2.479 2.058,2.239 0.62,-0.156 1.244,-0.088 1.625,-0.167 1.271,-0.254 3.307,-1.218 8.353,-5.442 1.142,-0.953 2.76,-2.287 3.464,-2.781 1.11,-0.782 -0.932,-2.094 -1.374,-1.796 -1.412,0.968 -2.464,1.514 -3.022,1.796 -0.385,0.188 -1.01,0.62 -2.588,1.166 -2.386,0.828 -3.938,0.975 -5.844,1.896 -0.885,0.423 -1.818,0.183 -2.469,1.052 -0.667,0.86 -0.203,2.037 -0.203,2.037 z"
     id="path86" />
  <path
     style="fill:#ffffff;fill-opacity:1;fill-rule:nonzero;stroke:none"
     d="m 155.6878,83.281 c 0.052,-0.24 1.197,-0.303 1.208,-0.828 0.005,-0.527 -0.749,-0.735 -1.573,-2.547 l -0.004,-0.021 c -0.558,-1.344 -1.579,-2.287 -2.83,-2.407 -2.066,-0.202 -3.962,1.912 -4.238,4.724 -0.282,2.814 1.177,5.251 3.244,5.448 1.974,0.204 3.802,-1.733 4.193,-4.369"
     id="path87" />
  <path
     style="fill:none;stroke:#231f20;stroke-width:0.565977;stroke-linecap:butt;stroke-linejoin:miter;stroke-miterlimit:4;stroke-dasharray:none;stroke-opacity:1"
     d="m 155.6878,83.281 c 0.052,-0.24 1.197,-0.303 1.208,-0.828 0.005,-0.527 -0.749,-0.735 -1.573,-2.547 l -0.004,-0.021 c -0.558,-1.344 -1.579,-2.287 -2.83,-2.407 -2.066,-0.202 -3.962,1.912 -4.238,4.724 -0.282,2.814 1.177,5.251 3.244,5.448 1.974,0.204 3.802,-1.733 4.193,-4.369 z"
     id="path88" />
  <path
     style="fill:#ffffff;fill-opacity:1;fill-rule:nonzero;stroke:#231f20;stroke-width:0.565977;stroke-linecap:round;stroke-linejoin:round;stroke-miterlimit:4;stroke-dasharray:none;stroke-opacity:1"
     d="m 160.9478,98.333 c -1.292,-0.973 -3.177,0.547 -3.531,0.631 -4.89,1.12 -5.208,1.322 -8.865,2.431 -5.291,1.604 -8.667,3.516 -8.635,6.864 0.026,2.272 1.026,3.574 2.25,4.048 1.365,0.52 4.521,0.162 5.786,-2.438 l 1.448,-0.916 c 1.052,-0.495 1.568,-0.746 2.11,-0.943 0.937,-0.349 1.917,-0.781 3.713,-1.573 3.183,-1.396 6.084,-3.911 6.084,-3.911 0.473,-0.219 0.656,-0.667 0.713,-1.12"
     id="path89" />
  <path
     style="fill:#0098c9;fill-opacity:1;fill-rule:nonzero;stroke:#231f20;stroke-width:0.565977;stroke-linecap:butt;stroke-linejoin:miter;stroke-miterlimit:4;stroke-dasharray:none;stroke-opacity:1"
     d="m 144.3758,102.265 c -3.199,1.969 -4.985,4.046 -4.516,6.652 0.405,2.228 1.604,3.348 2.896,3.614 1.432,0.276 4.489,-0.594 5.296,-3.37 z"
     id="path90" />
  <path
     style="fill:#231f20;fill-opacity:1;fill-rule:nonzero;stroke:none"
     d="m 165.2808,102.901 c -0.64,0.03 -2.172,-1.178 -3.718,-1.61 -1.042,-0.297 -3.156,-2.062 -4.214,-2.27 -0.973,-0.204 -1.406,-0.385 -1.364,-1.537 0.02,-0.676 0.5,-1.979 1.01,-1.99 1.193,-0.02 2.068,0.339 2.953,0.938 1.005,0.682 3.568,2.781 4.011,3.209 1.078,1.072 1.812,1.15 2.125,1.41 0.588,0.48 0.552,0.823 0.323,1.271 -0.438,0.86 -1.126,0.579 -1.126,0.579"
     id="path91" />
  <path
     style="fill:none;stroke:#231f20;stroke-width:0.565977;stroke-linecap:butt;stroke-linejoin:miter;stroke-miterlimit:4;stroke-dasharray:none;stroke-opacity:1"
     d="m 165.2808,102.901 c -0.64,0.03 -2.172,-1.178 -3.718,-1.61 -1.042,-0.297 -3.156,-2.062 -4.214,-2.27 -0.973,-0.204 -1.406,-0.385 -1.364,-1.537 0.02,-0.676 0.5,-1.979 1.01,-1.99 1.193,-0.02 2.068,0.339 2.953,0.938 1.005,0.682 3.568,2.781 4.011,3.209 1.078,1.072 1.812,1.15 2.125,1.41 0.588,0.48 0.552,0.823 0.323,1.271 -0.438,0.86 -1.126,0.579 -1.126,0.579 z"
     id="path92" />
  <path
     style="fill:#231f20;fill-opacity:1;fill-rule:nonzero;stroke:none"
     d="m 157.4478,98.349 c -0.771,1.041 -2.161,-0.443 -2.583,-0.776 -0.428,-0.339 -1.75,-1.156 -2.865,-1.661 -1.115,-0.511 -2.287,-1.62 -4.405,-2.584 -1.11,-0.511 -1.871,-1.708 -1.063,-3.292 0.796,-1.562 1.973,-1.703 3.229,-0.886 1.255,0.819 2.083,2.115 3.291,3.027 1.204,0.916 2.516,1.729 3.579,2.323 1.208,0.672 1.552,1.458 1.5,1.937 -0.126,1.183 -0.683,1.912 -0.683,1.912"
     id="path93" />
  <path
     style="fill:none;stroke:#231f20;stroke-width:0.565977;stroke-linecap:butt;stroke-linejoin:miter;stroke-miterlimit:4;stroke-dasharray:none;stroke-opacity:1"
     d="m 157.4478,98.349 c -0.771,1.041 -2.161,-0.443 -2.583,-0.776 -0.428,-0.339 -1.75,-1.156 -2.865,-1.661 -1.115,-0.511 -2.287,-1.62 -4.405,-2.584 -1.11,-0.511 -1.871,-1.708 -1.063,-3.292 0.796,-1.562 1.973,-1.703 3.229,-0.886 1.255,0.819 2.083,2.115 3.291,3.027 1.204,0.916 2.516,1.729 3.579,2.323 1.208,0.672 1.552,1.458 1.5,1.937 -0.126,1.183 -0.683,1.912 -0.683,1.912 z"
     id="path94" />
  <path
     style="fill:#231f20;fill-opacity:1;fill-rule:nonzero;stroke:none"
     d="m 228.8488,99.641 c -0.683,-0.267 -3.125,-2.401 -3.667,-2.912 -0.478,-0.459 -1.526,-0.953 -1.166,-2.047 0.145,-0.448 0.661,-0.994 0.937,-1.161 0.224,-0.131 0.527,0.011 0.781,0.307 0.443,0.505 0.366,0.817 1.151,1.822 0,0 0.157,0.267 0.385,0.767 0.719,1.463 0.267,0.885 1.776,2.781 0.11,0.13 0.048,0.338 -0.046,0.406 -0.151,0.094 -0.151,0.037 -0.151,0.037"
     id="path95" />
  <path
     style="fill:none;stroke:#231f20;stroke-width:0.565977;stroke-linecap:round;stroke-linejoin:round;stroke-miterlimit:4;stroke-dasharray:none;stroke-opacity:1"
     d="m 228.8488,99.641 c -0.683,-0.267 -3.125,-2.401 -3.667,-2.912 -0.478,-0.459 -1.526,-0.953 -1.166,-2.047 0.145,-0.448 0.661,-0.994 0.937,-1.161 0.224,-0.131 0.527,0.011 0.781,0.307 0.443,0.505 0.366,0.817 1.151,1.822 0,0 0.157,0.267 0.385,0.767 0.719,1.463 0.267,0.885 1.776,2.781 0.11,0.13 0.048,0.338 -0.046,0.406 -0.151,0.094 -0.151,0.037 -0.151,0.037 z"
     id="path96" />
  <path
     style="fill:#231f20;fill-opacity:1;fill-rule:nonzero;stroke:none"
     d="m 282.7038,92.77 c 0.109,-0.64 1.624,-1.864 2.39,-3.276 0.52,-0.953 2.698,-2.625 3.14,-3.614 0.407,-0.906 0.678,-1.287 1.798,-0.995 0.661,0.172 1.822,0.927 1.718,1.427 -0.245,1.166 -0.786,1.948 -1.562,2.672 -0.891,0.833 -3.5,2.876 -4.016,3.204 -1.282,0.817 -1.52,1.52 -1.844,1.765 -0.594,0.473 -0.927,0.355 -1.312,0.041 -0.735,-0.62 -0.312,-1.224 -0.312,-1.224"
     id="path97" />
  <path
     style="fill:none;stroke:#231f20;stroke-width:0.565977;stroke-linecap:butt;stroke-linejoin:miter;stroke-miterlimit:4;stroke-dasharray:none;stroke-opacity:1"
     d="m 282.7038,92.77 c 0.109,-0.64 1.624,-1.864 2.39,-3.276 0.52,-0.953 2.698,-2.625 3.14,-3.614 0.407,-0.906 0.678,-1.287 1.798,-0.995 0.661,0.172 1.822,0.927 1.718,1.427 -0.245,1.166 -0.786,1.948 -1.562,2.672 -0.891,0.833 -3.5,2.876 -4.016,3.204 -1.282,0.817 -1.52,1.52 -1.844,1.765 -0.594,0.473 -0.927,0.355 -1.312,0.041 -0.735,-0.62 -0.312,-1.224 -0.312,-1.224 z"
     id="path98" />
  <path
     style="fill:#231f20;fill-opacity:1;fill-rule:nonzero;stroke:none"
     d="m 261.4278,67.188 c 0.962,-2.052 0.874,-2.579 0.036,-3.043 -0.558,-0.312 -0.97,-0.791 -1.303,-0.989 -1.104,-0.682 -3.244,-1.375 -9.812,-1.755 -1.495,-0.079 -3.583,-0.213 -4.437,-0.339 -1.339,-0.188 -0.756,2.167 -0.23,2.25 1.698,0.266 2.834,0.584 3.438,0.766 0.412,0.12 1.161,0.234 2.682,0.916 2.312,1.027 3.536,1.984 5.558,2.615 0.942,0.297 1.458,1.115 2.52,0.927 1.078,-0.171 1.548,-1.348 1.548,-1.348"
     id="path99" />
  <path
     style="fill:none;stroke:#231f20;stroke-width:0.565977;stroke-linecap:butt;stroke-linejoin:miter;stroke-miterlimit:4;stroke-dasharray:none;stroke-opacity:1"
     d="m 261.4278,67.188 c 0.962,-2.052 0.874,-2.579 0.036,-3.043 -0.558,-0.312 -0.97,-0.791 -1.303,-0.989 -1.104,-0.682 -3.244,-1.375 -9.812,-1.755 -1.495,-0.079 -3.583,-0.213 -4.437,-0.339 -1.339,-0.188 -0.756,2.167 -0.23,2.25 1.698,0.266 2.834,0.584 3.438,0.766 0.412,0.12 1.161,0.234 2.682,0.916 2.312,1.027 3.536,1.984 5.558,2.615 0.942,0.297 1.458,1.115 2.52,0.927 1.078,-0.171 1.548,-1.348 1.548,-1.348 z"
     id="path100" />
  <path
     style="fill:#231f20;fill-opacity:1;fill-rule:nonzero;stroke:none"
     d="m 259.4888,65.656 c -2.009,3.474 2.063,3.713 2.48,3.953 4.328,2.532 4.703,2.599 8.125,4.297 4.958,2.448 8.728,3.364 11,0.902 1.536,-1.678 1.698,-3.308 1.119,-4.496 -0.635,-1.307 -3.181,-3.214 -5.88,-2.182 l -1.677,-0.318 c -1.11,-0.364 -1.656,-0.536 -2.187,-0.76 -0.927,-0.386 -1.937,-0.744 -3.787,-1.396 -3.276,-1.162 -7.109,-1.312 -7.109,-1.312 -1.188,-0.386 -2.084,1.312 -2.084,1.312"
     id="path101" />
  <path
     style="fill:none;stroke:#231f20;stroke-width:0.565977;stroke-linecap:butt;stroke-linejoin:miter;stroke-miterlimit:4;stroke-dasharray:none;stroke-opacity:1"
     d="m 259.4888,65.656 c -2.009,3.474 2.063,3.713 2.48,3.953 4.328,2.532 4.703,2.599 8.125,4.297 4.958,2.448 8.728,3.364 11,0.902 1.536,-1.678 1.698,-3.308 1.119,-4.496 -0.635,-1.307 -3.181,-3.214 -5.88,-2.182 l -1.677,-0.318 c -1.11,-0.364 -1.656,-0.536 -2.187,-0.76 -0.927,-0.386 -1.937,-0.744 -3.787,-1.396 -3.276,-1.162 -7.109,-1.312 -7.109,-1.312 -1.188,-0.386 -2.084,1.312 -2.084,1.312 z"
     id="path102" />
  <path
     style="fill:#231f20;fill-opacity:1;fill-rule:nonzero;stroke:none"
     d="m 244.1198,59.964 c 1.109,-0.771 1.932,-0.219 2.208,0.781 0.089,0.291 0.469,0.463 0.526,0.76 0.131,0.693 -0.89,2.104 -2.286,1.547 -0.099,-0.036 -0.916,-0.099 -1.522,-0.24 -1.181,-0.276 -3.405,-1.406 -4.224,-3.979 -0.389,-1.213 0.402,-1.219 0.71,-0.776 0.968,1.412 1.328,1.349 1.718,1.625 1.323,0.943 2.87,0.282 2.87,0.282"
     id="path103" />
  <path
     style="fill:none;stroke:#231f20;stroke-width:0.332927;stroke-linecap:butt;stroke-linejoin:miter;stroke-miterlimit:4;stroke-dasharray:none;stroke-opacity:1"
     d="m 244.1198,59.964 c 1.109,-0.771 1.932,-0.219 2.208,0.781 0.089,0.291 0.469,0.463 0.526,0.76 0.131,0.693 -0.89,2.104 -2.286,1.547 -0.099,-0.036 -0.916,-0.099 -1.522,-0.24 -1.181,-0.276 -3.405,-1.406 -4.224,-3.979 -0.389,-1.213 0.402,-1.219 0.71,-0.776 0.968,1.412 1.328,1.349 1.718,1.625 1.323,0.943 2.87,0.282 2.87,0.282 z"
     id="path104" />
  <path
     style="fill:#ffffff;fill-opacity:1;fill-rule:nonzero;stroke:none"
     d="m 260.9168,68.661 c 0.776,-2.129 0.64,-2.645 -0.24,-3.031 -0.583,-0.261 -1.036,-0.704 -1.385,-0.874 -1.162,-0.579 -3.35,-1.074 -9.932,-0.86 -1.49,0.052 -3.584,0.109 -4.448,0.062 -1.355,-0.068 -0.558,2.23 -0.022,2.26 1.714,0.115 2.876,0.323 3.486,0.454 0.421,0.078 1.181,0.13 2.754,0.666 2.396,0.818 3.703,1.662 5.771,2.11 0.964,0.213 1.547,0.978 2.599,0.697 1.052,-0.271 1.417,-1.484 1.417,-1.484"
     id="path105" />
  <path
     style="fill:none;stroke:#231f20;stroke-width:0.565977;stroke-linecap:butt;stroke-linejoin:miter;stroke-miterlimit:4;stroke-dasharray:none;stroke-opacity:1"
     d="m 260.9168,68.661 c 0.776,-2.129 0.64,-2.645 -0.24,-3.031 -0.583,-0.261 -1.036,-0.704 -1.385,-0.874 -1.162,-0.579 -3.35,-1.074 -9.932,-0.86 -1.49,0.052 -3.584,0.109 -4.448,0.062 -1.355,-0.068 -0.558,2.23 -0.022,2.26 1.714,0.115 2.876,0.323 3.486,0.454 0.421,0.078 1.181,0.13 2.754,0.666 2.396,0.818 3.703,1.662 5.771,2.11 0.964,0.213 1.547,0.978 2.599,0.697 1.052,-0.271 1.417,-1.484 1.417,-1.484 z"
     id="path106" />
  <path
     style="fill:#0098c9;fill-opacity:1;fill-rule:nonzero;stroke:none"
     d="m 286.1558,77.125 c -2.162,-2.271 -2.38,-2.989 -2.703,-3.86 -2.02,-5.411 -4.645,-4.317 -6.333,-1.984 -2,2.74 -2.771,3.688 1.984,7.817 1.329,1.142 5.824,6.204 5.824,6.204 1.364,2.036 3.785,3.282 5.224,3.042 1.514,-0.251 0.89,-0.26 2.249,-0.751 1.297,-0.463 2.699,-2.145 2.484,-3.364 -0.208,-1.167 -1.765,-1.76 -3.9,-2.907 -1.683,-0.91 -4.829,-4.197 -4.829,-4.197"
     id="path107" />
  <path
     style="fill:none;stroke:#231f20;stroke-width:0.565977;stroke-linecap:butt;stroke-linejoin:miter;stroke-miterlimit:4;stroke-dasharray:none;stroke-opacity:1"
     d="m 286.1558,77.125 c -2.162,-2.271 -2.38,-2.989 -2.703,-3.86 -2.02,-5.411 -4.645,-4.317 -6.333,-1.984 -2,2.74 -2.771,3.688 1.984,7.817 1.329,1.142 5.824,6.204 5.824,6.204 1.364,2.036 3.785,3.282 5.224,3.042 1.514,-0.251 0.89,-0.26 2.249,-0.751 1.297,-0.463 2.699,-2.145 2.484,-3.364 -0.208,-1.167 -1.765,-1.76 -3.9,-2.907 -1.683,-0.91 -4.829,-4.197 -4.829,-4.197 z"
     id="path108" />
  <path
     style="fill:#ffffff;fill-opacity:1;fill-rule:nonzero;stroke:none"
     d="m 296.7808,92.926 c 0.204,0.147 -0.192,1.224 0.287,1.443 0.478,0.215 0.974,-0.4 2.964,-0.437 h 0.02 c 1.453,0.021 2.724,-0.547 3.328,-1.646 1.005,-1.822 -0.187,-4.401 -2.662,-5.76 -2.473,-1.365 -5.29,-0.994 -6.29,0.828 -0.964,1.73 0.088,4.178 2.353,5.572"
     id="path109" />
  <path
     style="fill:none;stroke:#231f20;stroke-width:0.565977;stroke-linecap:butt;stroke-linejoin:miter;stroke-miterlimit:4;stroke-dasharray:none;stroke-opacity:1"
     d="m 296.7808,92.926 c 0.204,0.147 -0.192,1.224 0.287,1.443 0.478,0.215 0.974,-0.4 2.964,-0.437 h 0.02 c 1.453,0.021 2.724,-0.547 3.328,-1.646 1.005,-1.822 -0.187,-4.401 -2.662,-5.76 -2.473,-1.365 -5.29,-0.994 -6.29,0.828 -0.964,1.73 0.088,4.178 2.353,5.572 z"
     id="path110" />
  <path
     style="fill:#ffffff;fill-opacity:1;fill-rule:nonzero;stroke:#231f20;stroke-width:0.565977;stroke-linecap:round;stroke-linejoin:round;stroke-miterlimit:4;stroke-dasharray:none;stroke-opacity:1"
     d="m 258.7288,69.838 c 0.74,1.063 2.651,1.052 2.943,1.188 4.537,2.13 4.917,2.172 8.484,3.547 5.152,1.989 8.99,2.568 11.026,-0.095 1.386,-1.806 1.396,-3.442 0.719,-4.572 -0.749,-1.25 -3.459,-2.917 -6.057,-1.646 l -1.698,-0.167 c -1.136,-0.26 -1.698,-0.38 -2.245,-0.557 -0.959,-0.302 -1.995,-0.567 -3.896,-1.052 -3.364,-0.859 -7.203,-0.667 -7.203,-0.667 -0.36,-0.083 -0.677,0.016 -0.948,0.193"
     id="path111" />
  <path
     style="fill:#0098c9;fill-opacity:1;fill-rule:nonzero;stroke:none"
     d="m 281.5778,69.369 c -0.953,-1.104 -3.896,-2.301 -6.245,-0.613 l -1.353,7.697 c 0.65,0.073 1.26,0.104 1.848,0.115 0.073,0.03 0.146,0.057 0.209,0.088 0.713,0.385 1.296,0.146 2.233,-0.291 1.522,-0.329 2.672,-1.057 3.36,-2.365 1.063,-2.006 0.803,-3.626 -0.052,-4.631"
     id="path112" />
  <path
     style="fill:none;stroke:#231f20;stroke-width:0.565977;stroke-linecap:butt;stroke-linejoin:miter;stroke-miterlimit:4;stroke-dasharray:none;stroke-opacity:1"
     d="m 281.5778,69.369 c -0.953,-1.104 -3.896,-2.301 -6.245,-0.613 l -1.353,7.697 c 0.65,0.073 1.26,0.104 1.848,0.115 0.073,0.03 0.146,0.057 0.209,0.088 0.713,0.385 1.296,0.146 2.233,-0.291 1.522,-0.329 2.672,-1.057 3.36,-2.365 1.063,-2.006 0.803,-3.626 -0.052,-4.631 z"
     id="path113" />
  <path
     style="fill:#231f20;fill-opacity:1;fill-rule:nonzero;stroke:none"
     d="m 273.0618,89.349 c 0.642,-0.079 1.948,-1.521 3.396,-2.213 0.984,-0.464 2.766,-2.552 3.782,-2.943 0.921,-0.355 1.306,-0.609 1.082,-1.74 -0.134,-0.667 -0.828,-1.865 -1.333,-1.792 -1.176,0.183 -1.979,0.683 -2.755,1.417 -0.869,0.843 -3.052,3.339 -3.412,3.839 -0.885,1.233 -1.598,1.437 -1.858,1.749 -0.506,0.568 -0.402,0.902 -0.104,1.303 0.573,0.771 1.202,0.38 1.202,0.38"
     id="path114" />
  <path
     style="fill:none;stroke:#231f20;stroke-width:0.565977;stroke-linecap:butt;stroke-linejoin:miter;stroke-miterlimit:4;stroke-dasharray:none;stroke-opacity:1"
     d="m 273.0618,89.349 c 0.642,-0.079 1.948,-1.521 3.396,-2.213 0.984,-0.464 2.766,-2.552 3.782,-2.943 0.921,-0.355 1.306,-0.609 1.082,-1.74 -0.134,-0.667 -0.828,-1.865 -1.333,-1.792 -1.176,0.183 -1.979,0.683 -2.755,1.417 -0.869,0.843 -3.052,3.339 -3.412,3.839 -0.885,1.233 -1.598,1.437 -1.858,1.749 -0.506,0.568 -0.402,0.902 -0.104,1.303 0.573,0.771 1.202,0.38 1.202,0.38 z"
     id="path115" />
  <path
     style="fill:#231f20;fill-opacity:1;fill-rule:nonzero;stroke:none"
     d="m 279.0158,82.921 c -0.303,1.261 1.734,1.36 2.26,1.469 0.542,0.11 2.021,0.584 3.125,1.104 1.109,0.522 2.713,0.699 4.817,1.683 1.11,0.521 2.516,0.328 3.199,-1.312 0.672,-1.625 0.02,-2.611 -1.417,-3.043 -1.432,-0.421 -2.963,-0.213 -4.438,-0.541 -1.473,-0.333 -2.948,-0.803 -4.082,-1.224 -1.298,-0.484 -2.115,-0.24 -2.443,0.104 -0.824,0.871 -1.021,1.76 -1.021,1.76"
     id="path116" />
  <path
     style="fill:none;stroke:#231f20;stroke-width:0.565977;stroke-linecap:butt;stroke-linejoin:miter;stroke-miterlimit:4;stroke-dasharray:none;stroke-opacity:1"
     d="m 279.0158,82.921 c -0.303,1.261 1.734,1.36 2.26,1.469 0.542,0.11 2.021,0.584 3.125,1.104 1.109,0.522 2.713,0.699 4.817,1.683 1.11,0.521 2.516,0.328 3.199,-1.312 0.672,-1.625 0.02,-2.611 -1.417,-3.043 -1.432,-0.421 -2.963,-0.213 -4.438,-0.541 -1.473,-0.333 -2.948,-0.803 -4.082,-1.224 -1.298,-0.484 -2.115,-0.24 -2.443,0.104 -0.824,0.871 -1.021,1.76 -1.021,1.76 z"
     id="path117" />
  <path
     style="fill:#231f20;fill-opacity:1;fill-rule:nonzero;stroke:none"
     d="m 268.4528,93.328 c 0.693,-0.235 3.235,-2.26 3.792,-2.75 0.5,-0.433 1.568,-0.885 1.26,-1.994 -0.125,-0.454 -0.625,-1.016 -0.891,-1.199 -0.218,-0.14 -0.52,-0.016 -0.792,0.271 -0.462,0.485 -0.4,0.797 -1.233,1.77 0,0 -0.161,0.262 -0.423,0.751 -0.776,1.432 -0.296,0.869 -1.885,2.697 -0.115,0.126 -0.063,0.334 0.021,0.407 0.151,0.104 0.151,0.047 0.151,0.047"
     id="path118" />
  <path
     style="fill:none;stroke:#231f20;stroke-width:0.565977;stroke-linecap:round;stroke-linejoin:round;stroke-miterlimit:4;stroke-dasharray:none;stroke-opacity:1"
     d="m 268.4528,93.328 c 0.693,-0.235 3.235,-2.26 3.792,-2.75 0.5,-0.433 1.568,-0.885 1.26,-1.994 -0.125,-0.454 -0.625,-1.016 -0.891,-1.199 -0.218,-0.14 -0.52,-0.016 -0.792,0.271 -0.462,0.485 -0.4,0.797 -1.233,1.77 0,0 -0.161,0.262 -0.423,0.751 -0.776,1.432 -0.296,0.869 -1.885,2.697 -0.115,0.126 -0.063,0.334 0.021,0.407 0.151,0.104 0.151,0.047 0.151,0.047 z"
     id="path119" />
  <path
     style="fill:#231f20;fill-opacity:1;fill-rule:nonzero;stroke:none"
     d="m 278.7918,98.38 c 0.702,-0.192 3.36,-2.068 3.948,-2.52 0.525,-0.402 1.62,-0.787 1.374,-1.918 -0.093,-0.458 -0.557,-1.052 -0.817,-1.249 -0.208,-0.157 -0.521,-0.043 -0.808,0.224 -0.489,0.457 -0.447,0.776 -1.333,1.697 0,0 -0.176,0.251 -0.463,0.719 -0.86,1.385 -0.355,0.855 -2.047,2.584 -0.12,0.119 -0.084,0.333 0,0.405 0.14,0.115 0.146,0.058 0.146,0.058"
     id="path120" />
  <path
     style="fill:none;stroke:#231f20;stroke-width:0.565977;stroke-linecap:round;stroke-linejoin:round;stroke-miterlimit:4;stroke-dasharray:none;stroke-opacity:1"
     d="m 278.7918,98.38 c 0.702,-0.192 3.36,-2.068 3.948,-2.52 0.525,-0.402 1.62,-0.787 1.374,-1.918 -0.093,-0.458 -0.557,-1.052 -0.817,-1.249 -0.208,-0.157 -0.521,-0.043 -0.808,0.224 -0.489,0.457 -0.447,0.776 -1.333,1.697 0,0 -0.176,0.251 -0.463,0.719 -0.86,1.385 -0.355,0.855 -2.047,2.584 -0.12,0.119 -0.084,0.333 0,0.405 0.14,0.115 0.146,0.058 0.146,0.058 z"
     id="path121" />
  <path
     style="fill:none;stroke:#231f20;stroke-width:0.399514;stroke-linecap:butt;stroke-linejoin:miter;stroke-miterlimit:4;stroke-dasharray:none;stroke-opacity:1"
     d="m 266.5418,53.724 c -21.849,14.969 -14.922,26.297 -6.61,24.994"
     id="path122" />
  <path
     style="fill:#231f20;fill-opacity:1;fill-rule:nonzero;stroke:none"
     d="m 261.1248,78.532 c -0.527,0.296 -1.167,0.76 -1.536,1.202 l 0.187,-0.994 -0.484,-0.88 c 0.489,0.306 1.24,0.552 1.833,0.672"
     id="path123" />
  <path
     style="fill:none;stroke:#231f20;stroke-width:0.399514;stroke-linecap:butt;stroke-linejoin:miter;stroke-miterlimit:4;stroke-dasharray:none;stroke-opacity:1"
     d="m 160.1518,128.333 c -13.125,-4.443 -23.469,-15.339 -25.417,-19.438"
     id="path124" />
  <path
     style="fill:#231f20;fill-opacity:1;fill-rule:nonzero;stroke:none"
     d="m 134.2188,107.807 c 0.433,0.416 1.057,0.906 1.589,1.13 l -1.005,0.098 -0.708,0.72 c 0.156,-0.557 0.176,-1.349 0.124,-1.948"
     id="path125" />
  <path
     style="fill:#231f20;fill-opacity:1;fill-rule:nonzero;stroke:none"
     d="m 209.9168,92.926 c -2.131,0.767 -2.443,1.204 -2.177,2.126 0.177,0.62 0.125,1.245 0.218,1.625 0.298,1.26 1.318,3.265 5.698,8.177 0.99,1.115 2.376,2.687 2.886,3.38 0.818,1.083 2.067,-1 1.75,-1.432 -1.006,-1.38 -1.588,-2.417 -1.886,-2.969 -0.197,-0.38 -0.65,-0.984 -1.245,-2.547 -0.9,-2.365 -1.093,-3.901 -2.072,-5.781 -0.453,-0.869 -0.24,-1.812 -1.131,-2.437 -0.874,-0.636 -2.041,-0.142 -2.041,-0.142"
     id="path126" />
  <path
     style="fill:none;stroke:#231f20;stroke-width:0.565977;stroke-linecap:butt;stroke-linejoin:miter;stroke-miterlimit:4;stroke-dasharray:none;stroke-opacity:1"
     d="m 209.9168,92.926 c -2.131,0.767 -2.443,1.204 -2.177,2.126 0.177,0.62 0.125,1.245 0.218,1.625 0.298,1.26 1.318,3.265 5.698,8.177 0.99,1.115 2.376,2.687 2.886,3.38 0.818,1.083 2.067,-1 1.75,-1.432 -1.006,-1.38 -1.588,-2.417 -1.886,-2.969 -0.197,-0.38 -0.65,-0.984 -1.245,-2.547 -0.9,-2.365 -1.093,-3.901 -2.072,-5.781 -0.453,-0.869 -0.24,-1.812 -1.131,-2.437 -0.874,-0.636 -2.041,-0.142 -2.041,-0.142 z"
     id="path127" />
  <path
     style="fill:#231f20;fill-opacity:1;fill-rule:nonzero;stroke:#231f20;stroke-width:0.565977;stroke-linecap:round;stroke-linejoin:round;stroke-miterlimit:4;stroke-dasharray:none;stroke-opacity:1"
     d="m 212.1298,94.089 c 0.599,-1.287 -0.797,-2.928 -0.88,-3.251 -1.27,-4.854 -1.484,-5.172 -2.704,-8.792 -1.77,-5.238 -3.78,-8.557 -7.129,-8.421 -2.271,0.099 -3.537,1.14 -3.975,2.38 -0.484,1.385 -0.025,4.527 2.615,5.703 l 0.959,1.417 c 0.526,1.041 0.792,1.547 1.005,2.083 0.385,0.928 0.844,1.896 1.692,3.666 1.491,3.136 4.095,5.959 4.095,5.959 0.14,0.281 0.358,0.453 0.609,0.557"
     id="path128" />
  <path
     style="fill:#231f20;fill-opacity:1;fill-rule:nonzero;stroke:none"
     d="m 217.0318,110.275 c -1.328,-0.234 -1.516,-1.208 -1.011,-2.109 0.151,-0.276 0,-0.661 0.172,-0.912 0.396,-0.583 2.115,-0.853 2.713,0.521 0.036,0.099 0.574,0.724 0.896,1.246 0.64,1.036 1.416,3.405 0.172,5.806 -0.589,1.131 -1.146,0.568 -1.046,0.042 0.312,-1.682 0.009,-1.891 -0.068,-2.359 -0.262,-1.604 -1.828,-2.235 -1.828,-2.235"
     id="path129" />
  <path
     style="fill:none;stroke:#231f20;stroke-width:0.332927;stroke-linecap:butt;stroke-linejoin:miter;stroke-miterlimit:4;stroke-dasharray:none;stroke-opacity:1"
     d="m 217.0318,110.275 c -1.328,-0.234 -1.516,-1.208 -1.011,-2.109 0.151,-0.276 0,-0.661 0.172,-0.912 0.396,-0.583 2.115,-0.853 2.713,0.521 0.036,0.099 0.574,0.724 0.896,1.246 0.64,1.036 1.416,3.405 0.172,5.806 -0.589,1.131 -1.146,0.568 -1.046,0.042 0.312,-1.682 0.009,-1.891 -0.068,-2.359 -0.262,-1.604 -1.828,-2.235 -1.828,-2.235 z"
     id="path130" />
  <path
     style="fill:#0098c9;fill-opacity:1;fill-rule:nonzero;stroke:none"
     d="m 211.4008,72.365 c -3.5,0.208 -4.443,0.452 -5.573,0.624 -5.719,0.865 -5.927,2.136 -5.672,4.516 0.36,3.375 0.886,5.188 7.053,3.912 4.671,-0.964 8.291,-1.011 8.291,-1.011 1.802,0.484 5.36,-0.032 6.01,-0.672 1.088,-1.078 0.85,-0.901 1.298,-2.281 0.828,-2.541 0,-3.407 -1.042,-3.984 -1.042,-0.579 -2.062,-0.745 -4.865,-0.933 -2.177,-0.14 -5.5,-0.171 -5.5,-0.171"
     id="path131" />
  <path
     style="fill:none;stroke:#231f20;stroke-width:0.565977;stroke-linecap:butt;stroke-linejoin:miter;stroke-miterlimit:4;stroke-dasharray:none;stroke-opacity:1"
     d="m 211.4008,72.365 c -3.5,0.208 -4.443,0.452 -5.573,0.624 -5.719,0.865 -5.927,2.136 -5.672,4.516 0.36,3.375 0.886,5.188 7.053,3.912 4.671,-0.964 8.291,-1.011 8.291,-1.011 1.802,0.484 5.36,-0.032 6.01,-0.672 1.088,-1.078 0.85,-0.901 1.298,-2.281 0.828,-2.541 0,-3.407 -1.042,-3.984 -1.042,-0.579 -2.062,-0.745 -4.865,-0.933 -2.177,-0.14 -5.5,-0.171 -5.5,-0.171 z"
     id="path132" />
  <path
     style="fill:#ffffff;fill-opacity:1;fill-rule:nonzero;stroke:none"
     d="m 226.6818,82.994 c 0.203,0.131 -0.12,1.23 0.364,1.418 0.496,0.186 0.948,-0.454 2.934,-0.61 l 0.02,-0.005 c 1.453,-0.063 2.688,-0.704 3.224,-1.839 0.896,-1.869 -0.443,-4.374 -2.995,-5.589 -2.552,-1.219 -5.344,-0.681 -6.235,1.193 -0.858,1.792 0.339,4.172 2.688,5.432"
     id="path133" />
  <path
     style="fill:none;stroke:#231f20;stroke-width:0.565977;stroke-linecap:butt;stroke-linejoin:miter;stroke-miterlimit:4;stroke-dasharray:none;stroke-opacity:1"
     d="m 226.6818,82.994 c 0.203,0.131 -0.12,1.23 0.364,1.418 0.496,0.186 0.948,-0.454 2.934,-0.61 l 0.02,-0.005 c 1.453,-0.063 2.688,-0.704 3.224,-1.839 0.896,-1.869 -0.443,-4.374 -2.995,-5.589 -2.552,-1.219 -5.344,-0.681 -6.235,1.193 -0.858,1.792 0.339,4.172 2.688,5.432 z"
     id="path134" />
  <path
     style="fill:#231f20;fill-opacity:1;fill-rule:nonzero;stroke:none"
     d="m 224.4218,95.317 c -0.51,-0.4 -0.885,-2.307 -1.781,-3.645 -0.599,-0.907 -1.057,-3.615 -1.729,-4.47 -0.61,-0.78 -0.812,-1.197 -0.036,-2.046 0.457,-0.506 1.67,-1.182 2.061,-0.854 0.917,0.76 1.349,1.599 1.631,2.63 0.322,1.172 0.906,4.433 0.964,5.042 0.124,1.515 0.629,2.052 0.697,2.458 0.141,0.745 -0.115,0.98 -0.577,1.172 -0.886,0.37 -1.23,-0.287 -1.23,-0.287"
     id="path135" />
  <path
     style="fill:none;stroke:#231f20;stroke-width:0.565977;stroke-linecap:butt;stroke-linejoin:miter;stroke-miterlimit:4;stroke-dasharray:none;stroke-opacity:1"
     d="m 224.4218,95.317 c -0.51,-0.4 -0.885,-2.307 -1.781,-3.645 -0.599,-0.907 -1.057,-3.615 -1.729,-4.47 -0.61,-0.78 -0.812,-1.197 -0.036,-2.046 0.457,-0.506 1.67,-1.182 2.061,-0.854 0.917,0.76 1.349,1.599 1.631,2.63 0.322,1.172 0.906,4.433 0.964,5.042 0.124,1.515 0.629,2.052 0.697,2.458 0.141,0.745 -0.115,0.98 -0.577,1.172 -0.886,0.37 -1.23,-0.287 -1.23,-0.287 z"
     id="path136" />
  <path
     style="fill:#231f20;fill-opacity:1;fill-rule:nonzero;stroke:none"
     d="m 221.4278,86.76 c -1.267,0.297 -1.355,-1.739 -1.459,-2.266 -0.104,-0.536 -0.579,-2.02 -1.099,-3.125 -0.516,-1.115 -0.688,-2.719 -1.666,-4.833 -0.511,-1.104 -0.314,-2.51 1.328,-3.187 1.629,-0.672 2.609,-0.011 3.03,1.427 0.423,1.432 0.208,2.964 0.538,4.437 0.317,1.48 0.785,2.953 1.202,4.095 0.484,1.296 0.235,2.114 -0.114,2.442 -0.87,0.818 -1.76,1.01 -1.76,1.01"
     id="path137" />
  <path
     style="fill:none;stroke:#231f20;stroke-width:0.565977;stroke-linecap:butt;stroke-linejoin:miter;stroke-miterlimit:4;stroke-dasharray:none;stroke-opacity:1"
     d="m 221.4278,86.76 c -1.267,0.297 -1.355,-1.739 -1.459,-2.266 -0.104,-0.536 -0.579,-2.02 -1.099,-3.125 -0.516,-1.115 -0.688,-2.719 -1.666,-4.833 -0.511,-1.104 -0.314,-2.51 1.328,-3.187 1.629,-0.672 2.609,-0.011 3.03,1.427 0.423,1.432 0.208,2.964 0.538,4.437 0.317,1.48 0.785,2.953 1.202,4.095 0.484,1.296 0.235,2.114 -0.114,2.442 -0.87,0.818 -1.76,1.01 -1.76,1.01 z"
     id="path138" />
  <path
     style="fill:#ffffff;fill-opacity:1;fill-rule:nonzero;stroke:none"
     d="m 206.9578,94.265 c -2.234,0.371 -2.62,0.751 -2.521,1.699 0.057,0.64 -0.099,1.244 -0.077,1.634 0.068,1.298 0.713,3.453 4.14,9.073 0.776,1.271 1.854,3.068 2.24,3.839 0.604,1.213 2.208,-0.609 1.978,-1.093 -0.744,-1.543 -1.134,-2.662 -1.328,-3.256 -0.129,-0.411 -0.462,-1.094 -0.77,-2.735 -0.464,-2.484 -0.375,-4.036 -1.006,-6.057 -0.292,-0.943 0.09,-1.828 -0.672,-2.604 -0.749,-0.781 -1.984,-0.5 -1.984,-0.5"
     id="path139" />
  <path
     style="fill:none;stroke:#231f20;stroke-width:0.565977;stroke-linecap:butt;stroke-linejoin:miter;stroke-miterlimit:4;stroke-dasharray:none;stroke-opacity:1"
     d="m 206.9578,94.265 c -2.234,0.371 -2.62,0.751 -2.521,1.699 0.057,0.64 -0.099,1.244 -0.077,1.634 0.068,1.298 0.713,3.453 4.14,9.073 0.776,1.271 1.854,3.068 2.24,3.839 0.604,1.213 2.208,-0.609 1.978,-1.093 -0.744,-1.543 -1.134,-2.662 -1.328,-3.256 -0.129,-0.411 -0.462,-1.094 -0.77,-2.735 -0.464,-2.484 -0.375,-4.036 -1.006,-6.057 -0.292,-0.943 0.09,-1.828 -0.672,-2.604 -0.749,-0.781 -1.984,-0.5 -1.984,-0.5 z"
     id="path140" />
  <path
     style="fill:#ffffff;fill-opacity:1;fill-rule:nonzero;stroke:#231f20;stroke-width:0.565977;stroke-linecap:round;stroke-linejoin:round;stroke-miterlimit:4;stroke-dasharray:none;stroke-opacity:1"
     d="m 208.9278,95.808 c 0.817,-1.167 -0.256,-3.027 -0.282,-3.366 -0.385,-5 -0.537,-5.349 -1.089,-9.13 -0.801,-5.468 -2.192,-9.088 -5.505,-9.556 -2.255,-0.308 -3.687,0.484 -4.339,1.629 -0.719,1.271 -0.833,4.443 1.552,6.079 l 0.688,1.562 c 0.333,1.119 0.505,1.667 0.62,2.234 0.208,0.98 0.489,2.016 1.005,3.906 0.907,3.35 2.964,6.594 2.964,6.594 0.088,0.302 0.271,0.51 0.5,0.657"
     id="path141" />
  <path
     style="fill:#0098c9;fill-opacity:1;fill-rule:nonzero;stroke:none"
     d="m 201.4118,73.604 c -2.271,0.062 -3.558,1.089 -4.006,2.322 -0.494,1.376 -0.084,4.532 2.542,5.746 l 7.365,-2.61 c -1.469,-3.464 -3.256,-5.536 -5.901,-5.458"
     id="path142" />
  <path
     style="fill:none;stroke:#231f20;stroke-width:0.565977;stroke-linecap:butt;stroke-linejoin:miter;stroke-miterlimit:4;stroke-dasharray:none;stroke-opacity:1"
     d="m 201.4118,73.604 c -2.271,0.062 -3.558,1.089 -4.006,2.322 -0.494,1.376 -0.084,4.532 2.542,5.746 l 7.365,-2.61 c -1.469,-3.464 -3.256,-5.536 -5.901,-5.458 z"
     id="path143" />
  <path
     style="fill:#231f20;fill-opacity:1;fill-rule:nonzero;stroke:none"
     d="m 210.8538,112.609 c -1.265,-0.474 -1.281,-1.464 -0.62,-2.26 0.199,-0.24 0.12,-0.651 0.334,-0.866 0.494,-0.505 2.234,-0.462 2.573,1 0.02,0.1 0.437,0.814 0.661,1.386 0.443,1.13 0.782,3.605 -0.87,5.745 -0.78,1.005 -1.228,0.355 -1.042,-0.145 0.61,-1.604 0.355,-1.86 0.36,-2.339 0.031,-1.625 -1.396,-2.521 -1.396,-2.521"
     id="path144" />
  <path
     style="fill:none;stroke:#231f20;stroke-width:0.332927;stroke-linecap:butt;stroke-linejoin:miter;stroke-miterlimit:4;stroke-dasharray:none;stroke-opacity:1"
     d="m 210.8538,112.609 c -1.265,-0.474 -1.281,-1.464 -0.62,-2.26 0.199,-0.24 0.12,-0.651 0.334,-0.866 0.494,-0.505 2.234,-0.462 2.573,1 0.02,0.1 0.437,0.814 0.661,1.386 0.443,1.13 0.782,3.605 -0.87,5.745 -0.78,1.005 -1.228,0.355 -1.042,-0.145 0.61,-1.604 0.355,-1.86 0.36,-2.339 0.031,-1.625 -1.396,-2.521 -1.396,-2.521 z"
     id="path145" />
  <path
     style="fill:#231f20;fill-opacity:1;fill-rule:nonzero;stroke:none"
     d="m 243.0318,63.026 c 1.03,-0.87 1.9,-0.39 2.27,0.578 0.115,0.281 0.506,0.417 0.588,0.708 0.194,0.677 -0.702,2.177 -2.134,1.75 -0.104,-0.03 -0.923,-0.021 -1.543,-0.104 -1.197,-0.172 -3.515,-1.093 -4.561,-3.584 -0.496,-1.172 0.29,-1.249 0.634,-0.838 1.094,1.324 1.448,1.224 1.86,1.464 1.4,0.822 2.886,0.026 2.886,0.026"
     id="path146" />
  <path
     style="fill:none;stroke:#231f20;stroke-width:0.332927;stroke-linecap:butt;stroke-linejoin:miter;stroke-miterlimit:4;stroke-dasharray:none;stroke-opacity:1"
     d="m 243.0318,63.026 c 1.03,-0.87 1.9,-0.39 2.27,0.578 0.115,0.281 0.506,0.417 0.588,0.708 0.194,0.677 -0.702,2.177 -2.134,1.75 -0.104,-0.03 -0.923,-0.021 -1.543,-0.104 -1.197,-0.172 -3.515,-1.093 -4.561,-3.584 -0.496,-1.172 0.29,-1.249 0.634,-0.838 1.094,1.324 1.448,1.224 1.86,1.464 1.4,0.822 2.886,0.026 2.886,0.026 z"
     id="path147" />
  <path
     style="fill:#231f20;fill-opacity:1;fill-rule:nonzero;stroke:none"
     d="m 343.9108,90.068 c -0.562,-0.323 -1.193,-2.167 -2.256,-3.37 -0.724,-0.813 -1.546,-3.433 -2.322,-4.188 -0.714,-0.688 -0.968,-1.078 -0.318,-2.026 0.386,-0.563 1.49,-1.391 1.927,-1.13 1.011,0.63 1.557,1.406 1.98,2.386 0.468,1.12 1.5,4.27 1.635,4.864 0.328,1.489 0.906,1.953 1.026,2.338 0.239,0.724 0.015,0.99 -0.412,1.246 -0.833,0.484 -1.26,-0.12 -1.26,-0.12"
     id="path148" />
  <path
     style="fill:none;stroke:#231f20;stroke-width:0.565977;stroke-linecap:butt;stroke-linejoin:miter;stroke-miterlimit:4;stroke-dasharray:none;stroke-opacity:1"
     d="m 343.9108,90.068 c -0.562,-0.323 -1.193,-2.167 -2.256,-3.37 -0.724,-0.813 -1.546,-3.433 -2.322,-4.188 -0.714,-0.688 -0.968,-1.078 -0.318,-2.026 0.386,-0.563 1.49,-1.391 1.927,-1.13 1.011,0.63 1.557,1.406 1.98,2.386 0.468,1.12 1.5,4.27 1.635,4.864 0.328,1.489 0.906,1.953 1.026,2.338 0.239,0.724 0.015,0.99 -0.412,1.246 -0.833,0.484 -1.26,-0.12 -1.26,-0.12 z"
     id="path149" />
  <path
     style="fill:#231f20;fill-opacity:1;fill-rule:nonzero;stroke:none"
     d="m 340.9528,81.817 c -0.219,1.281 -2.131,0.573 -2.656,0.464 -0.536,-0.109 -2.088,-0.249 -3.308,-0.208 -1.223,0.047 -2.766,-0.423 -5.094,-0.333 -1.224,0.036 -2.442,-0.688 -2.421,-2.47 0.015,-1.754 0.995,-2.405 2.489,-2.238 1.484,0.176 2.812,0.962 4.298,1.238 1.484,0.271 3.025,0.418 4.238,0.475 1.38,0.063 2.038,0.609 2.204,1.057 0.416,1.119 0.25,2.015 0.25,2.015"
     id="path150" />
  <path
     style="fill:none;stroke:#231f20;stroke-width:0.565977;stroke-linecap:butt;stroke-linejoin:miter;stroke-miterlimit:4;stroke-dasharray:none;stroke-opacity:1"
     d="m 340.9528,81.817 c -0.219,1.281 -2.131,0.573 -2.656,0.464 -0.536,-0.109 -2.088,-0.249 -3.308,-0.208 -1.223,0.047 -2.766,-0.423 -5.094,-0.333 -1.224,0.036 -2.442,-0.688 -2.421,-2.47 0.015,-1.754 0.995,-2.405 2.489,-2.238 1.484,0.176 2.812,0.962 4.298,1.238 1.484,0.271 3.025,0.418 4.238,0.475 1.38,0.063 2.038,0.609 2.204,1.057 0.416,1.119 0.25,2.015 0.25,2.015 z"
     id="path151" />
  <path
     style="fill:#231f20;fill-opacity:1;fill-rule:nonzero;stroke:none"
     d="m 346.5938,95.532 c -0.548,-0.491 -2.089,-3.35 -2.412,-4.016 -0.292,-0.599 -1.093,-1.427 -0.375,-2.328 0.287,-0.371 0.968,-0.694 1.287,-0.756 0.255,-0.047 0.484,0.193 0.624,0.562 0.235,0.626 0.057,0.891 0.437,2.11 0,0 0.048,0.302 0.095,0.854 0.151,1.62 -0.063,0.922 0.677,3.224 0.058,0.162 -0.073,0.334 -0.177,0.364 -0.177,0.038 -0.156,-0.014 -0.156,-0.014"
     id="path152" />
  <path
     style="fill:none;stroke:#231f20;stroke-width:0.565977;stroke-linecap:round;stroke-linejoin:round;stroke-miterlimit:4;stroke-dasharray:none;stroke-opacity:1"
     d="m 346.5938,95.532 c -0.548,-0.491 -2.089,-3.35 -2.412,-4.016 -0.292,-0.599 -1.093,-1.427 -0.375,-2.328 0.287,-0.371 0.968,-0.694 1.287,-0.756 0.255,-0.047 0.484,0.193 0.624,0.562 0.235,0.626 0.057,0.891 0.437,2.11 0,0 0.048,0.302 0.095,0.854 0.151,1.62 -0.063,0.922 0.677,3.224 0.058,0.162 -0.073,0.334 -0.177,0.364 -0.177,0.038 -0.156,-0.014 -0.156,-0.014 z"
     id="path153" />
  <path
     style="fill:none;stroke:#231f20;stroke-width:1.33171;stroke-linecap:round;stroke-linejoin:round;stroke-miterlimit:4;stroke-dasharray:none;stroke-opacity:1"
     d="m 39.1415,101.698 c -1.3656,1.947 -2.2348,6.609 -0.011,10.588 0.8803,1.568 3.1719,2.104 4.6719,1.167 1.4214,-0.896 0.2709,-3.074 -1.213,-3.516 -1.2297,-0.364 -2.4693,0.026 -3.3546,1.052 -1.5109,1.745 -2.4641,4.89 -1.4948,8.98"
     id="path1597" />
</svg>
