<?xml version="1.0" encoding="UTF-8" standalone="no"?>
<!-- Created with Inkscape (http://www.inkscape.org/) -->

<svg
   version="1.1"
   id="svg1"
   width="354.16278"
   height="159.72653"
   viewBox="0 0 354.16276 159.72653"
   sodipodi:docname="cell.svg"
   xmlns:inkscape="http://www.inkscape.org/namespaces/inkscape"
   xmlns:sodipodi="http://sodipodi.sourceforge.net/DTD/sodipodi-0.dtd"
   xmlns="http://www.w3.org/2000/svg"
   xmlns:svg="http://www.w3.org/2000/svg">
  <sodipodi:namedview
     id="namedview1"
     pagecolor="#ffffff"
     bordercolor="#000000"
     borderopacity="0.25"
     inkscape:showpageshadow="2"
     inkscape:pageopacity="0.0"
     inkscape:pagecheckerboard="0"
     inkscape:deskcolor="#d1d1d1">
    <inkscape:page
       x="0"
       y="0"
       inkscape:label="1"
       id="page1"
       width="354.16275"
       height="159.72653"
       margin="0"
       bleed="0" />
  </sodipodi:namedview>
  <defs
     id="defs1" />
  <path
     style="fill:#231f20;fill-opacity:1;fill-rule:nonzero;stroke:none"
     d="m 304.53975,109.63985 c 0.287,-1.322 -0.547,-1.865 -1.577,-1.734 -0.308,0.036 -0.61,-0.245 -0.907,-0.188 -0.688,0.147 -1.593,1.641 -0.536,2.709 0.077,0.072 0.453,0.801 0.817,1.307 0.708,0.979 2.62,2.593 5.303,2.349 1.271,-0.115 0.968,-0.849 0.443,-0.958 -1.678,-0.345 -1.756,-0.703 -2.167,-0.954 -1.381,-0.848 -1.376,-2.531 -1.376,-2.531"
     id="path310" />
  <path
     style="fill:none;stroke:#231f20;stroke-width:0.332927;stroke-linecap:butt;stroke-linejoin:miter;stroke-miterlimit:4;stroke-dasharray:none;stroke-opacity:1"
     d="m 304.53975,109.63985 c 0.287,-1.322 -0.547,-1.865 -1.577,-1.734 -0.308,0.036 -0.61,-0.245 -0.907,-0.188 -0.688,0.147 -1.593,1.641 -0.536,2.709 0.077,0.072 0.453,0.801 0.817,1.307 0.708,0.979 2.62,2.593 5.303,2.349 1.271,-0.115 0.968,-0.849 0.443,-0.958 -1.678,-0.345 -1.756,-0.703 -2.167,-0.954 -1.381,-0.848 -1.376,-2.531 -1.376,-2.531 z"
     id="path311" />
  <path
     style="fill:#231f20;fill-opacity:1;fill-rule:nonzero;stroke:none"
     d="m 291.15975,96.498855 c 1.516,-1.681 2.036,-1.807 2.792,-1.213 0.5,0.396 1.104,0.584 1.421,0.813 1.052,0.755 2.522,2.452 5.423,8.363995 0.656,1.339 1.593,3.214 2.036,3.948 0.697,1.167 -1.708,1.542 -1.984,1.088 -0.901,-1.457 -1.636,-2.39 -2.037,-2.869 -0.271,-0.328 -0.671,-0.979 -1.886,-2.115 -1.848,-1.729 -3.208,-2.489 -4.572,-4.104 -0.636,-0.749995 -1.594,-0.906995 -1.838,-1.963995 -0.256,-1.057 0.645,-1.948 0.645,-1.948"
     id="path312" />
  <path
     style="fill:none;stroke:#231f20;stroke-width:0.565977;stroke-linecap:butt;stroke-linejoin:miter;stroke-miterlimit:4;stroke-dasharray:none;stroke-opacity:1"
     d="m 291.15975,96.498855 c 1.516,-1.681 2.036,-1.807 2.792,-1.213 0.5,0.396 1.104,0.584 1.421,0.813 1.052,0.755 2.522,2.452 5.423,8.363995 0.656,1.339 1.593,3.214 2.036,3.948 0.697,1.167 -1.708,1.542 -1.984,1.088 -0.901,-1.457 -1.636,-2.39 -2.037,-2.869 -0.271,-0.328 -0.671,-0.979 -1.886,-2.115 -1.848,-1.729 -3.208,-2.489 -4.572,-4.104 -0.636,-0.749995 -1.594,-0.906995 -1.838,-1.963995 -0.256,-1.057 0.645,-1.948 0.645,-1.948 z"
     id="path313" />
  <path
     style="fill:#0098c9;fill-opacity:1;fill-rule:nonzero;stroke:none"
     d="m 274.73275,75.337855 c 2.511,1.871 3.255,2 4.156,2.213 5.62,1.36 4.85,4.09 2.73,6.052 -2.479,2.308 -3.323,3.188 -7.995,-1.036 -1.297,-1.177 -6.865,-5.036 -6.865,-5.036 -2.182,-1.109 -3.714,-3.354 -3.651,-4.813 0.068,-1.536 0.156,-0.916 0.479,-2.328 0.308,-1.344 1.802,-2.932 3.042,-2.864 1.182,0.057 1.963,1.536 3.354,3.516 1.104,1.561 4.75,4.296 4.75,4.296"
     id="path314" />
  <path
     style="fill:none;stroke:#231f20;stroke-width:0.565977;stroke-linecap:butt;stroke-linejoin:miter;stroke-miterlimit:4;stroke-dasharray:none;stroke-opacity:1"
     d="m 274.73275,75.337855 c 2.511,1.871 3.255,2 4.156,2.213 5.62,1.36 4.85,4.09 2.73,6.052 -2.479,2.308 -3.323,3.188 -7.995,-1.036 -1.297,-1.177 -6.865,-5.036 -6.865,-5.036 -2.182,-1.109 -3.714,-3.354 -3.651,-4.813 0.068,-1.536 0.156,-0.916 0.479,-2.328 0.308,-1.344 1.802,-2.932 3.042,-2.864 1.182,0.057 1.963,1.536 3.354,3.516 1.104,1.561 4.75,4.296 4.75,4.296 z"
     id="path315" />
  <path
     style="fill:#ffffff;fill-opacity:1;fill-rule:nonzero;stroke:none"
     d="m 257.52475,69.358855 c -0.224,-0.089 -0.928,0.812 -1.365,0.526 -0.437,-0.291 -0.183,-1.036 -1.208,-2.739 l -0.011,-0.016 c -0.797,-1.224 -0.994,-2.593 -0.385,-3.693 1,-1.818 3.823,-2.187 6.292,-0.823 2.473,1.371 3.661,3.948 2.656,5.765 -0.953,1.74 -3.584,2.152 -5.979,0.98"
     id="path316" />
  <path
     style="fill:none;stroke:#231f20;stroke-width:0.565977;stroke-linecap:butt;stroke-linejoin:miter;stroke-miterlimit:4;stroke-dasharray:none;stroke-opacity:1"
     d="m 257.52475,69.358855 c -0.224,-0.089 -0.928,0.812 -1.365,0.526 -0.437,-0.291 -0.183,-1.036 -1.208,-2.739 l -0.011,-0.016 c -0.797,-1.224 -0.994,-2.593 -0.385,-3.693 1,-1.818 3.823,-2.187 6.292,-0.823 2.473,1.371 3.661,3.948 2.656,5.765 -0.953,1.74 -3.584,2.152 -5.979,0.98 z"
     id="path317" />
  <path
     style="fill:#231f20;fill-opacity:1;fill-rule:nonzero;stroke:none"
     d="m 293.32675,97.686855 c -2.416,3.202995 -4.23,-0.459 -4.61,-0.745 -4.016,-3.005 -4.224,-3.317 -7.12,-5.817 -4.181,-3.615 -6.494,-6.735 -5.098,-9.782 0.942,-2.068 2.385,-2.849 3.702,-2.781 1.454,0.073 4.199,1.683 4.292,4.573 l 0.954,1.422 c 0.765,0.88 1.136,1.318 1.541,1.724 0.724,0.698 1.448,1.494 2.761,2.937 2.343,2.568 3.974,6.048 3.974,6.048 0.817,0.943 -0.396,2.421 -0.396,2.421"
     id="path318" />
  <path
     style="fill:none;stroke:#231f20;stroke-width:0.565977;stroke-linecap:butt;stroke-linejoin:miter;stroke-miterlimit:4;stroke-dasharray:none;stroke-opacity:1"
     d="m 293.32675,97.686855 c -2.416,3.202995 -4.23,-0.459 -4.61,-0.745 -4.016,-3.005 -4.224,-3.317 -7.12,-5.817 -4.181,-3.615 -6.494,-6.735 -5.098,-9.782 0.942,-2.068 2.385,-2.849 3.702,-2.781 1.454,0.073 4.199,1.683 4.292,4.573 l 0.954,1.422 c 0.765,0.88 1.136,1.318 1.541,1.724 0.724,0.698 1.448,1.494 2.761,2.937 2.343,2.568 3.974,6.048 3.974,6.048 0.817,0.943 -0.396,2.421 -0.396,2.421 z"
     id="path319" />
  <path
     style="fill:#0098c9;fill-opacity:1;fill-rule:nonzero;stroke:none"
     d="m 280.82075,78.593855 c -1.286,-0.281 -2.833,0.249 -4.109,2.129 -0.828,1.219 -0.932,2.579 -0.511,4.068 0.058,1.042 0.115,1.667 0.792,2.12 0.058,0.042 0.12,0.094 0.178,0.146 0.286,0.51 0.598,1.032 0.969,1.573 l 6.161,-4.812 c 0.391,-2.86 -2.057,-4.901 -3.48,-5.224"
     id="path320" />
  <path
     style="fill:none;stroke:#231f20;stroke-width:0.565977;stroke-linecap:butt;stroke-linejoin:miter;stroke-miterlimit:4;stroke-dasharray:none;stroke-opacity:1"
     d="m 280.82075,78.593855 c -1.286,-0.281 -2.833,0.249 -4.109,2.129 -0.828,1.219 -0.932,2.579 -0.511,4.068 0.058,1.042 0.115,1.667 0.792,2.12 0.058,0.042 0.12,0.094 0.178,0.146 0.286,0.51 0.598,1.032 0.969,1.573 l 6.161,-4.812 c 0.391,-2.86 -2.057,-4.901 -3.48,-5.224 z"
     id="path321" />
  <path
     style="fill:#231f20;fill-opacity:1;fill-rule:nonzero;stroke:none"
     d="m 250.72775,82.869855 c 0.64,0.015 2.135,-1.24 3.672,-1.719 1.036,-0.329 3.093,-2.146 4.151,-2.39 0.964,-0.23 1.385,-0.423 1.317,-1.568 -0.041,-0.683 -0.557,-1.97 -1.067,-1.964 -1.193,0.016 -2.057,0.396 -2.928,1.021 -0.984,0.713 -3.484,2.88 -3.91,3.317 -1.052,1.11 -1.782,1.208 -2.09,1.475 -0.572,0.5 -0.525,0.843 -0.286,1.281 0.464,0.843 1.141,0.547 1.141,0.547"
     id="path322" />
  <path
     style="fill:none;stroke:#231f20;stroke-width:0.565977;stroke-linecap:butt;stroke-linejoin:miter;stroke-miterlimit:4;stroke-dasharray:none;stroke-opacity:1"
     d="m 250.72775,82.869855 c 0.64,0.015 2.135,-1.24 3.672,-1.719 1.036,-0.329 3.093,-2.146 4.151,-2.39 0.964,-0.23 1.385,-0.423 1.317,-1.568 -0.041,-0.683 -0.557,-1.97 -1.067,-1.964 -1.193,0.016 -2.057,0.396 -2.928,1.021 -0.984,0.713 -3.484,2.88 -3.91,3.317 -1.052,1.11 -1.782,1.208 -2.09,1.475 -0.572,0.5 -0.525,0.843 -0.286,1.281 0.464,0.843 1.141,0.547 1.141,0.547 z"
     id="path323" />
  <path
     style="fill:#231f20;fill-opacity:1;fill-rule:nonzero;stroke:none"
     d="m 258.43075,78.098855 c 0.797,1.02 2.146,-0.51 2.557,-0.854 0.417,-0.355 1.719,-1.208 2.819,-1.746 1.098,-0.536 2.238,-1.681 4.328,-2.708 1.093,-0.541 1.822,-1.76 0.968,-3.317 -0.839,-1.541 -2.02,-1.647 -3.25,-0.792 -1.234,0.849 -2.026,2.177 -3.209,3.12 -1.176,0.948 -2.463,1.801 -3.504,2.427 -1.188,0.704 -1.511,1.5 -1.448,1.969 0.161,1.187 0.739,1.901 0.739,1.901"
     id="path324" />
  <path
     style="fill:none;stroke:#231f20;stroke-width:0.565977;stroke-linecap:butt;stroke-linejoin:miter;stroke-miterlimit:4;stroke-dasharray:none;stroke-opacity:1"
     d="m 258.43075,78.098855 c 0.797,1.02 2.146,-0.51 2.557,-0.854 0.417,-0.355 1.719,-1.208 2.819,-1.746 1.098,-0.536 2.238,-1.681 4.328,-2.708 1.093,-0.541 1.822,-1.76 0.968,-3.317 -0.839,-1.541 -2.02,-1.647 -3.25,-0.792 -1.234,0.849 -2.026,2.177 -3.209,3.12 -1.176,0.948 -2.463,1.801 -3.504,2.427 -1.188,0.704 -1.511,1.5 -1.448,1.969 0.161,1.187 0.739,1.901 0.739,1.901 z"
     id="path325" />
  <path
     style="fill:#ffffff;fill-opacity:1;fill-rule:nonzero;stroke:none"
     d="m 240.24375,89.009855 c 1,-0.24 2.005,0.369 2.244,1.369 0.245,1 -0.364,2.006 -1.364,2.251 -1,0.24 -2.005,-0.369 -2.245,-1.369 -0.244,-1 0.365,-2.006 1.365,-2.251"
     id="path326" />
  <path
     style="fill:none;stroke:#231f20;stroke-width:1.33171;stroke-linecap:butt;stroke-linejoin:miter;stroke-miterlimit:4;stroke-dasharray:none;stroke-opacity:1"
     d="m 240.24375,89.009855 c 1,-0.24 2.005,0.369 2.244,1.369 0.245,1 -0.364,2.006 -1.364,2.251 -1,0.24 -2.005,-0.369 -2.245,-1.369 -0.244,-1 0.365,-2.006 1.365,-2.251 z"
     id="path327" />
  <path
     style="fill:#231f20;fill-opacity:1;fill-rule:nonzero;stroke:none"
     d="m 244.07175,84.405855 c 0.719,0.14 3.932,-0.355 4.656,-0.5 0.651,-0.125 1.801,0.016 2.088,-1.104 0.115,-0.453 -0.031,-1.199 -0.176,-1.484 -0.12,-0.235 -0.444,-0.272 -0.824,-0.157 -0.64,0.193 -0.749,0.49 -1.953,0.928 0,0 -0.266,0.14 -0.734,0.437 -1.385,0.859 -0.698,0.609 -2.98,1.407 -0.161,0.052 -0.224,0.26 -0.181,0.358 0.077,0.167 0.104,0.115 0.104,0.115"
     id="path328" />
  <path
     style="fill:none;stroke:#231f20;stroke-width:0.565977;stroke-linecap:round;stroke-linejoin:round;stroke-miterlimit:4;stroke-dasharray:none;stroke-opacity:1"
     d="m 244.07175,84.405855 c 0.719,0.14 3.932,-0.355 4.656,-0.5 0.651,-0.125 1.801,0.016 2.088,-1.104 0.115,-0.453 -0.031,-1.199 -0.176,-1.484 -0.12,-0.235 -0.444,-0.272 -0.824,-0.157 -0.64,0.193 -0.749,0.49 -1.953,0.928 0,0 -0.266,0.14 -0.734,0.437 -1.385,0.859 -0.698,0.609 -2.98,1.407 -0.161,0.052 -0.224,0.26 -0.181,0.358 0.077,0.167 0.104,0.115 0.104,0.115 z"
     id="path329" />
  <path
     style="fill:#231f20;fill-opacity:1;fill-rule:nonzero;stroke:none"
     d="m 154.06175,43.634855 c -0.495,0.547 -1.751,3.542 -2.006,4.235 -0.234,0.619 -0.953,1.531 -0.15,2.353 0.328,0.339 1.036,0.599 1.353,0.626 0.261,0.026 0.469,-0.235 0.568,-0.615 0.172,-0.645 -0.031,-0.896 0.229,-2.145 0,0 0.022,-0.308 0.011,-0.86 -0.005,-1.63 -0.151,-0.911 0.359,-3.276 0.042,-0.162 -0.104,-0.328 -0.214,-0.344 -0.177,-0.015 -0.15,0.026 -0.15,0.026"
     id="path330" />
  <path
     style="fill:none;stroke:#231f20;stroke-width:0.565977;stroke-linecap:round;stroke-linejoin:round;stroke-miterlimit:4;stroke-dasharray:none;stroke-opacity:1"
     d="m 154.06175,43.634855 c -0.495,0.547 -1.751,3.542 -2.006,4.235 -0.234,0.619 -0.953,1.531 -0.15,2.353 0.328,0.339 1.036,0.599 1.353,0.626 0.261,0.026 0.469,-0.235 0.568,-0.615 0.172,-0.645 -0.031,-0.896 0.229,-2.145 0,0 0.022,-0.308 0.011,-0.86 -0.005,-1.63 -0.151,-0.911 0.359,-3.276 0.042,-0.162 -0.104,-0.328 -0.214,-0.344 -0.177,-0.015 -0.15,0.026 -0.15,0.026 z"
     id="path331" />
  <path
     style="fill:#231f20;fill-opacity:1;fill-rule:nonzero;stroke:none"
     d="m 138.73375,54.228855 c -2.084,-0.875 -2.37,-1.334 -2.058,-2.239 0.208,-0.605 0.192,-1.229 0.302,-1.605 0.365,-1.244 1.49,-3.192 6.12,-7.87 1.052,-1.057 2.516,-2.552 3.068,-3.218 0.869,-1.042 2.01,1.104 1.672,1.521 -1.084,1.328 -1.719,2.328 -2.042,2.859 -0.218,0.369 -0.704,0.958 -1.38,2.484 -1.026,2.308 -1.297,3.838 -2.376,5.661 -0.5,0.849 -0.338,1.797 -1.254,2.381 -0.912,0.588 -2.052,0.026 -2.052,0.026"
     id="path332" />
  <path
     style="fill:none;stroke:#231f20;stroke-width:0.565977;stroke-linecap:butt;stroke-linejoin:miter;stroke-miterlimit:4;stroke-dasharray:none;stroke-opacity:1"
     d="m 138.73375,54.228855 c -2.084,-0.875 -2.37,-1.334 -2.058,-2.239 0.208,-0.605 0.192,-1.229 0.302,-1.605 0.365,-1.244 1.49,-3.192 6.12,-7.87 1.052,-1.057 2.516,-2.552 3.068,-3.218 0.869,-1.042 2.01,1.104 1.672,1.521 -1.084,1.328 -1.719,2.328 -2.042,2.859 -0.218,0.369 -0.704,0.958 -1.38,2.484 -1.026,2.308 -1.297,3.838 -2.376,5.661 -0.5,0.849 -0.338,1.797 -1.254,2.381 -0.912,0.588 -2.052,0.026 -2.052,0.026 z"
     id="path333" />
  <path
     style="fill:#231f20;fill-opacity:1;fill-rule:nonzero;stroke:#231f20;stroke-width:0.565977;stroke-linecap:round;stroke-linejoin:round;stroke-miterlimit:4;stroke-dasharray:none;stroke-opacity:1"
     d="m 141.00975,53.186855 c 0.525,1.318 -0.948,2.88 -1.052,3.203 -1.527,4.776 -1.756,5.084 -3.167,8.636 -2.041,5.135 -4.229,8.339 -7.563,8.025 -2.265,-0.218 -3.474,-1.322 -3.849,-2.582 -0.401,-1.407 0.219,-4.522 2.917,-5.558 l 1.031,-1.365 c 0.579,-1.009 0.875,-1.504 1.12,-2.025 0.427,-0.907 0.937,-1.85 1.88,-3.574 1.651,-3.052 4.401,-5.734 4.401,-5.734 0.156,-0.271 0.386,-0.432 0.64,-0.52"
     id="path334" />
  <path
     style="fill:#231f20;fill-opacity:1;fill-rule:nonzero;stroke:none"
     d="m 146.75875,37.280855 c -1.339,0.166 -1.577,1.13 -1.119,2.057 0.14,0.281 -0.037,0.661 0.119,0.917 0.365,0.604 2.073,0.963 2.74,-0.376 0.041,-0.098 0.609,-0.692 0.959,-1.197 0.697,-1 1.593,-3.328 0.484,-5.792 -0.526,-1.156 -1.12,-0.629 -1.047,-0.099 0.224,1.703 -0.088,1.891 -0.193,2.36 -0.343,1.588 -1.943,2.13 -1.943,2.13"
     id="path335" />
  <path
     style="fill:none;stroke:#231f20;stroke-width:0.332927;stroke-linecap:butt;stroke-linejoin:miter;stroke-miterlimit:4;stroke-dasharray:none;stroke-opacity:1"
     d="m 146.75875,37.280855 c -1.339,0.166 -1.577,1.13 -1.119,2.057 0.14,0.281 -0.037,0.661 0.119,0.917 0.365,0.604 2.073,0.963 2.74,-0.376 0.041,-0.098 0.609,-0.692 0.959,-1.197 0.697,-1 1.593,-3.328 0.484,-5.792 -0.526,-1.156 -1.12,-0.629 -1.047,-0.099 0.224,1.703 -0.088,1.891 -0.193,2.36 -0.343,1.588 -1.943,2.13 -1.943,2.13 z"
     id="path336" />
  <path
     style="fill:#0098c9;fill-opacity:1;fill-rule:nonzero;stroke:none"
     d="m 139.08675,74.134855 c -3.504,-0.026 -4.463,-0.218 -5.604,-0.328 -5.749,-0.562 -6.025,-1.822 -5.9,-4.213 0.187,-3.391 0.613,-5.224 6.837,-4.276 4.724,0.713 8.334,0.572 8.334,0.572 1.781,-0.577 5.36,-0.249 6.037,0.355 1.145,1.021 0.896,0.858 1.416,2.208 0.964,2.5 0.177,3.406 -0.828,4.041 -1.011,0.625 -2.02,0.849 -4.812,1.177 -2.167,0.262 -5.48,0.464 -5.48,0.464"
     id="path337" />
  <path
     style="fill:none;stroke:#231f20;stroke-width:0.565977;stroke-linecap:butt;stroke-linejoin:miter;stroke-miterlimit:4;stroke-dasharray:none;stroke-opacity:1"
     d="m 139.08675,74.134855 c -3.504,-0.026 -4.463,-0.218 -5.604,-0.328 -5.749,-0.562 -6.025,-1.822 -5.9,-4.213 0.187,-3.391 0.613,-5.224 6.837,-4.276 4.724,0.713 8.334,0.572 8.334,0.572 1.781,-0.577 5.36,-0.249 6.037,0.355 1.145,1.021 0.896,0.858 1.416,2.208 0.964,2.5 0.177,3.406 -0.828,4.041 -1.011,0.625 -2.02,0.849 -4.812,1.177 -2.167,0.262 -5.48,0.464 -5.48,0.464 z"
     id="path338" />
  <path
     style="fill:#ffffff;fill-opacity:1;fill-rule:nonzero;stroke:none"
     d="m 156.56675,64.588855 c 0.244,-0.006 0.516,-1.12 1.031,-1.038 0.521,0.09 0.594,0.871 2.229,2 l 0.021,0.011 c 1.219,0.787 1.963,1.964 1.859,3.213 -0.167,2.068 -2.583,3.558 -5.4,3.328 -2.819,-0.228 -4.959,-2.098 -4.787,-4.166 0.156,-1.979 2.386,-3.432 5.047,-3.348"
     id="path339" />
  <path
     style="fill:none;stroke:#231f20;stroke-width:0.565977;stroke-linecap:butt;stroke-linejoin:miter;stroke-miterlimit:4;stroke-dasharray:none;stroke-opacity:1"
     d="m 156.56675,64.588855 c 0.244,-0.006 0.516,-1.12 1.031,-1.038 0.521,0.09 0.594,0.871 2.229,2 l 0.021,0.011 c 1.219,0.787 1.963,1.964 1.859,3.213 -0.167,2.068 -2.583,3.558 -5.4,3.328 -2.819,-0.228 -4.959,-2.098 -4.787,-4.166 0.156,-1.979 2.386,-3.432 5.047,-3.348 z"
     id="path340" />
  <path
     style="fill:#231f20;fill-opacity:1;fill-rule:nonzero;stroke:none"
     d="m 150.87875,50.530855 c -0.484,0.422 -0.76,2.354 -1.577,3.735 -0.558,0.932 -0.876,3.661 -1.495,4.552 -0.568,0.812 -0.751,1.239 0.067,2.047 0.485,0.484 1.729,1.093 2.104,0.744 0.881,-0.802 1.266,-1.667 1.496,-2.714 0.254,-1.186 0.67,-4.473 0.692,-5.082 0.046,-1.527 0.521,-2.09 0.573,-2.49 0.093,-0.756 -0.172,-0.98 -0.647,-1.146 -0.905,-0.318 -1.213,0.354 -1.213,0.354"
     id="path341" />
  <path
     style="fill:none;stroke:#231f20;stroke-width:0.565977;stroke-linecap:butt;stroke-linejoin:miter;stroke-miterlimit:4;stroke-dasharray:none;stroke-opacity:1"
     d="m 150.87875,50.530855 c -0.484,0.422 -0.76,2.354 -1.577,3.735 -0.558,0.932 -0.876,3.661 -1.495,4.552 -0.568,0.812 -0.751,1.239 0.067,2.047 0.485,0.484 1.729,1.093 2.104,0.744 0.881,-0.802 1.266,-1.667 1.496,-2.714 0.254,-1.186 0.67,-4.473 0.692,-5.082 0.046,-1.527 0.521,-2.09 0.573,-2.49 0.093,-0.756 -0.172,-0.98 -0.647,-1.146 -0.905,-0.318 -1.213,0.354 -1.213,0.354 z"
     id="path342" />
  <path
     style="fill:#231f20;fill-opacity:1;fill-rule:nonzero;stroke:none"
     d="m 148.33775,59.228855 c -1.276,-0.224 -1.255,1.813 -1.334,2.344 -0.078,0.541 -0.469,2.046 -0.932,3.182 -0.453,1.135 -0.542,2.744 -1.406,4.906 -0.459,1.136 -0.183,2.526 1.494,3.114 1.656,0.584 2.604,-0.124 2.948,-1.582 0.344,-1.454 0.052,-2.964 0.303,-4.459 0.239,-1.495 0.629,-2.989 0.989,-4.151 0.407,-1.317 0.12,-2.125 -0.245,-2.432 -0.911,-0.776 -1.817,-0.922 -1.817,-0.922"
     id="path343" />
  <path
     style="fill:none;stroke:#231f20;stroke-width:0.565977;stroke-linecap:butt;stroke-linejoin:miter;stroke-miterlimit:4;stroke-dasharray:none;stroke-opacity:1"
     d="m 148.33775,59.228855 c -1.276,-0.224 -1.255,1.813 -1.334,2.344 -0.078,0.541 -0.469,2.046 -0.932,3.182 -0.453,1.135 -0.542,2.744 -1.406,4.906 -0.459,1.136 -0.183,2.526 1.494,3.114 1.656,0.584 2.604,-0.124 2.948,-1.582 0.344,-1.454 0.052,-2.964 0.303,-4.459 0.239,-1.495 0.629,-2.989 0.989,-4.151 0.407,-1.317 0.12,-2.125 -0.245,-2.432 -0.911,-0.776 -1.817,-0.922 -1.817,-0.922 z"
     id="path344" />
  <path
     style="fill:#231f20;fill-opacity:1;fill-rule:nonzero;stroke:none"
     d="m 132.89975,52.025855 c -2.26,-0.104 -2.693,-0.432 -2.708,-1.391 -0.01,-0.641 -0.245,-1.224 -0.272,-1.614 -0.088,-1.292 0.298,-3.511 3.027,-9.5 0.62,-1.35 1.479,-3.266 1.765,-4.079 0.459,-1.276 2.266,0.344 2.095,0.855 -0.557,1.614 -0.808,2.776 -0.933,3.385 -0.072,0.421 -0.323,1.14 -0.432,2.807 -0.162,2.521 0.114,4.053 -0.271,6.136 -0.177,0.969 0.303,1.802 -0.36,2.661 -0.651,0.869 -1.911,0.74 -1.911,0.74"
     id="path345" />
  <path
     style="fill:none;stroke:#231f20;stroke-width:0.565977;stroke-linecap:butt;stroke-linejoin:miter;stroke-miterlimit:4;stroke-dasharray:none;stroke-opacity:1"
     d="m 132.89975,52.025855 c -2.26,-0.104 -2.693,-0.432 -2.708,-1.391 -0.01,-0.641 -0.245,-1.224 -0.272,-1.614 -0.088,-1.292 0.298,-3.511 3.027,-9.5 0.62,-1.35 1.479,-3.266 1.765,-4.079 0.459,-1.276 2.266,0.344 2.095,0.855 -0.557,1.614 -0.808,2.776 -0.933,3.385 -0.072,0.421 -0.323,1.14 -0.432,2.807 -0.162,2.521 0.114,4.053 -0.271,6.136 -0.177,0.969 0.303,1.802 -0.36,2.661 -0.651,0.869 -1.911,0.74 -1.911,0.74 z"
     id="path346" />
  <path
     style="fill:#231f20;fill-opacity:1;fill-rule:nonzero;stroke:#231f20;stroke-width:0.565977;stroke-linecap:round;stroke-linejoin:round;stroke-miterlimit:4;stroke-dasharray:none;stroke-opacity:1"
     d="m 134.67075,50.254855 c 0.953,1.063 0.104,3.036 0.125,3.37 0.214,5.016 0.104,5.38 0.006,9.197 -0.136,5.532 -1.084,9.292 -4.324,10.152 -2.198,0.572 -3.714,-0.041 -4.5,-1.099 -0.864,-1.177 -1.359,-4.318 0.813,-6.218 l 0.5,-1.642 c 0.192,-1.145 0.296,-1.713 0.349,-2.286 0.088,-1 0.244,-2.058 0.526,-4 0.505,-3.438 2.156,-6.902 2.156,-6.902 0.052,-0.312 0.208,-0.541 0.417,-0.713"
     id="path347" />
  <path
     style="fill:#0098c9;fill-opacity:1;fill-rule:nonzero;stroke:#231f20;stroke-width:0.565977;stroke-linecap:butt;stroke-linejoin:miter;stroke-miterlimit:4;stroke-dasharray:none;stroke-opacity:1"
     d="m 127.44675,65.369855 c -2.464,1.515 -2.489,4.692 -1.839,6 0.594,1.176 1.995,2.036 4.255,1.828 2.636,-0.235 4.163,-2.511 5.209,-6.12 z"
     id="path348" />
  <path
     style="fill:#231f20;fill-opacity:1;fill-rule:nonzero;stroke:none"
     d="m 134.57775,33.348855 c -1.204,0.62 -1.1,1.604 -0.344,2.312 0.229,0.218 0.197,0.636 0.426,0.824 0.552,0.437 2.282,0.186 2.443,-1.303 0.005,-0.104 0.333,-0.859 0.484,-1.453 0.313,-1.178 0.349,-3.672 -1.547,-5.599 -0.89,-0.907 -1.265,-0.208 -1.014,0.265 0.796,1.522 0.572,1.808 0.634,2.282 0.23,1.604 -1.082,2.672 -1.082,2.672"
     id="path349" />
  <path
     style="fill:none;stroke:#231f20;stroke-width:0.332927;stroke-linecap:butt;stroke-linejoin:miter;stroke-miterlimit:4;stroke-dasharray:none;stroke-opacity:1"
     d="m 134.57775,33.348855 c -1.204,0.62 -1.1,1.604 -0.344,2.312 0.229,0.218 0.197,0.636 0.426,0.824 0.552,0.437 2.282,0.186 2.443,-1.303 0.005,-0.104 0.333,-0.859 0.484,-1.453 0.313,-1.178 0.349,-3.672 -1.547,-5.599 -0.89,-0.907 -1.265,-0.208 -1.014,0.265 0.796,1.522 0.572,1.808 0.634,2.282 0.23,1.604 -1.082,2.672 -1.082,2.672 z"
     id="path350" />
  <path
     style="fill:#231f20;fill-opacity:1;fill-rule:nonzero;stroke:none"
     d="m 154.38975,98.170855 c -0.495,0.542 -1.75,3.537995 -2.006,4.234995 -0.234,0.62 -0.953,1.531 -0.15,2.355 0.328,0.338 1.036,0.593 1.358,0.624 0.256,0.021 0.464,-0.239 0.563,-0.619 0.172,-0.646 -0.025,-0.891 0.229,-2.141 0,0 0.027,-0.312 0.011,-0.859 -0.005,-1.631 -0.151,-0.912 0.364,-3.276995 0.037,-0.166 -0.109,-0.328 -0.219,-0.343 -0.176,-0.021 -0.15,0.025 -0.15,0.025"
     id="path351" />
  <path
     style="fill:none;stroke:#231f20;stroke-width:0.565977;stroke-linecap:round;stroke-linejoin:round;stroke-miterlimit:4;stroke-dasharray:none;stroke-opacity:1"
     d="m 154.38975,98.170855 c -0.495,0.542 -1.75,3.537995 -2.006,4.234995 -0.234,0.62 -0.953,1.531 -0.15,2.355 0.328,0.338 1.036,0.593 1.358,0.624 0.256,0.021 0.464,-0.239 0.563,-0.619 0.172,-0.646 -0.025,-0.891 0.229,-2.141 0,0 0.027,-0.312 0.011,-0.859 -0.005,-1.631 -0.151,-0.912 0.364,-3.276995 0.037,-0.166 -0.109,-0.328 -0.219,-0.343 -0.176,-0.021 -0.15,0.025 -0.15,0.025 z"
     id="path352" />
  <path
     style="fill:#0098c9;fill-opacity:1;fill-rule:nonzero;stroke:none"
     d="m 139.41575,128.66585 c -3.505,-0.02 -4.464,-0.214 -5.6,-0.323 -5.754,-0.563 -6.03,-1.823 -5.9,-4.218 0.182,-3.386 0.61,-5.224 6.834,-4.276 4.724,0.718 8.337,0.573 8.337,0.573 1.776,-0.579 5.355,-0.245 6.037,0.358 1.146,1.022 0.891,0.861 1.411,2.21 0.964,2.495 0.183,3.405 -0.828,4.036 -1.009,0.63 -2.02,0.849 -4.812,1.183 -2.161,0.259 -5.479,0.457 -5.479,0.457"
     id="path353" />
  <path
     style="fill:none;stroke:#231f20;stroke-width:0.565977;stroke-linecap:butt;stroke-linejoin:miter;stroke-miterlimit:4;stroke-dasharray:none;stroke-opacity:1"
     d="m 139.41575,128.66585 c -3.505,-0.02 -4.464,-0.214 -5.6,-0.323 -5.754,-0.563 -6.03,-1.823 -5.9,-4.218 0.182,-3.386 0.61,-5.224 6.834,-4.276 4.724,0.718 8.337,0.573 8.337,0.573 1.776,-0.579 5.355,-0.245 6.037,0.358 1.146,1.022 0.891,0.861 1.411,2.21 0.964,2.495 0.183,3.405 -0.828,4.036 -1.009,0.63 -2.02,0.849 -4.812,1.183 -2.161,0.259 -5.479,0.457 -5.479,0.457 z"
     id="path354" />
  <path
     style="fill:#ffffff;fill-opacity:1;fill-rule:nonzero;stroke:none"
     d="m 156.89475,119.12485 c 0.249,-0.006 0.521,-1.126 1.031,-1.036 0.521,0.082 0.594,0.869 2.229,2 l 0.016,0.01 c 1.224,0.786 1.973,1.957 1.864,3.214 -0.167,2.066 -2.583,3.557 -5.4,3.322 -2.819,-0.229 -4.959,-2.093 -4.787,-4.167 0.156,-1.979 2.386,-3.426 5.047,-3.343"
     id="path355" />
  <path
     style="fill:none;stroke:#231f20;stroke-width:0.565977;stroke-linecap:butt;stroke-linejoin:miter;stroke-miterlimit:4;stroke-dasharray:none;stroke-opacity:1"
     d="m 156.89475,119.12485 c 0.249,-0.006 0.521,-1.126 1.031,-1.036 0.521,0.082 0.594,0.869 2.229,2 l 0.016,0.01 c 1.224,0.786 1.973,1.957 1.864,3.214 -0.167,2.066 -2.583,3.557 -5.4,3.322 -2.819,-0.229 -4.959,-2.093 -4.787,-4.167 0.156,-1.979 2.386,-3.426 5.047,-3.343 z"
     id="path356" />
  <path
     style="fill:#231f20;fill-opacity:1;fill-rule:nonzero;stroke:none"
     d="m 151.21175,105.06685 c -0.489,0.422 -0.765,2.349 -1.582,3.735 -0.558,0.932 -0.871,3.661 -1.495,4.547 -0.568,0.812 -0.751,1.245 0.067,2.052 0.485,0.478 1.729,1.093 2.105,0.745 0.88,-0.808 1.265,-1.672 1.495,-2.714 0.254,-1.188 0.672,-4.474 0.697,-5.083 0.041,-1.527 0.516,-2.088 0.568,-2.49 0.093,-0.756 -0.172,-0.98 -0.647,-1.146 -0.905,-0.318 -1.208,0.354 -1.208,0.354"
     id="path357" />
  <path
     style="fill:none;stroke:#231f20;stroke-width:0.565977;stroke-linecap:butt;stroke-linejoin:miter;stroke-miterlimit:4;stroke-dasharray:none;stroke-opacity:1"
     d="m 151.21175,105.06685 c -0.489,0.422 -0.765,2.349 -1.582,3.735 -0.558,0.932 -0.871,3.661 -1.495,4.547 -0.568,0.812 -0.751,1.245 0.067,2.052 0.485,0.478 1.729,1.093 2.105,0.745 0.88,-0.808 1.265,-1.672 1.495,-2.714 0.254,-1.188 0.672,-4.474 0.697,-5.083 0.041,-1.527 0.516,-2.088 0.568,-2.49 0.093,-0.756 -0.172,-0.98 -0.647,-1.146 -0.905,-0.318 -1.208,0.354 -1.208,0.354 z"
     id="path358" />
  <path
     style="fill:#231f20;fill-opacity:1;fill-rule:nonzero;stroke:none"
     d="m 148.66575,113.76585 c -1.276,-0.229 -1.255,1.807 -1.334,2.343 -0.078,0.542 -0.469,2.046 -0.932,3.177 -0.453,1.141 -0.541,2.751 -1.406,4.912 -0.459,1.134 -0.183,2.525 1.494,3.115 1.656,0.582 2.604,-0.126 2.948,-1.585 0.35,-1.458 0.052,-2.967 0.303,-4.458 0.239,-1.495 0.629,-2.99 0.989,-4.151 0.412,-1.322 0.12,-2.125 -0.245,-2.432 -0.911,-0.776 -1.817,-0.921 -1.817,-0.921"
     id="path359" />
  <path
     style="fill:none;stroke:#231f20;stroke-width:0.565977;stroke-linecap:butt;stroke-linejoin:miter;stroke-miterlimit:4;stroke-dasharray:none;stroke-opacity:1"
     d="m 148.66575,113.76585 c -1.276,-0.229 -1.255,1.807 -1.334,2.343 -0.078,0.542 -0.469,2.046 -0.932,3.177 -0.453,1.141 -0.541,2.751 -1.406,4.912 -0.459,1.134 -0.183,2.525 1.494,3.115 1.656,0.582 2.604,-0.126 2.948,-1.585 0.35,-1.458 0.052,-2.967 0.303,-4.458 0.239,-1.495 0.629,-2.99 0.989,-4.151 0.412,-1.322 0.12,-2.125 -0.245,-2.432 -0.911,-0.776 -1.817,-0.921 -1.817,-0.921 z"
     id="path360" />
  <path
     style="fill:#231f20;fill-opacity:1;fill-rule:nonzero;stroke:none"
     d="m 177.65475,71.832855 c 0.682,0.281 3.917,0.437 4.661,0.442 0.667,0.006 1.767,0.376 2.267,-0.661 0.208,-0.421 0.208,-1.177 0.124,-1.484 -0.067,-0.255 -0.38,-0.36 -0.771,-0.323 -0.672,0.052 -0.828,0.334 -2.093,0.511 0,0 -0.298,0.088 -0.812,0.285 -1.532,0.558 -0.808,0.454 -3.204,0.776 -0.167,0.016 -0.266,0.21 -0.25,0.319 0.042,0.177 0.078,0.135 0.078,0.135"
     id="path361" />
  <path
     style="fill:none;stroke:#231f20;stroke-width:0.565977;stroke-linecap:round;stroke-linejoin:round;stroke-miterlimit:4;stroke-dasharray:none;stroke-opacity:1"
     d="m 177.65475,71.832855 c 0.682,0.281 3.917,0.437 4.661,0.442 0.667,0.006 1.767,0.376 2.267,-0.661 0.208,-0.421 0.208,-1.177 0.124,-1.484 -0.067,-0.255 -0.38,-0.36 -0.771,-0.323 -0.672,0.052 -0.828,0.334 -2.093,0.511 0,0 -0.298,0.088 -0.812,0.285 -1.532,0.558 -0.808,0.454 -3.204,0.776 -0.167,0.016 -0.266,0.21 -0.25,0.319 0.042,0.177 0.078,0.135 0.078,0.135 z"
     id="path362" />
  <path
     style="fill:#231f20;fill-opacity:1;fill-rule:nonzero;stroke:none"
     d="m 199.56675,76.545855 c 0.082,2.267 -0.208,2.715 -1.167,2.808 -0.636,0.073 -1.199,0.349 -1.584,0.407 -1.281,0.192 -3.52,-0.016 -9.708,-2.256 -1.407,-0.515 -3.385,-1.208 -4.208,-1.432 -1.313,-0.355 0.151,-2.287 0.677,-2.156 1.656,0.421 2.828,0.577 3.454,0.65 0.426,0.047 1.161,0.235 2.828,0.214 2.53,-0.042 4.03,-0.432 6.14,-0.224 0.978,0.1 1.776,-0.443 2.682,0.141 0.916,0.588 0.886,1.848 0.886,1.848"
     id="path363" />
  <path
     style="fill:none;stroke:#231f20;stroke-width:0.565977;stroke-linecap:butt;stroke-linejoin:miter;stroke-miterlimit:4;stroke-dasharray:none;stroke-opacity:1"
     d="m 199.56675,76.545855 c 0.082,2.267 -0.208,2.715 -1.167,2.808 -0.636,0.073 -1.199,0.349 -1.584,0.407 -1.281,0.192 -3.52,-0.016 -9.708,-2.256 -1.407,-0.515 -3.385,-1.208 -4.208,-1.432 -1.313,-0.355 0.151,-2.287 0.677,-2.156 1.656,0.421 2.828,0.577 3.454,0.65 0.426,0.047 1.161,0.235 2.828,0.214 2.53,-0.042 4.03,-0.432 6.14,-0.224 0.978,0.1 1.776,-0.443 2.682,0.141 0.916,0.588 0.886,1.848 0.886,1.848 z"
     id="path364" />
  <path
     style="fill:#231f20;fill-opacity:1;fill-rule:nonzero;stroke:#231f20;stroke-width:0.565977;stroke-linecap:round;stroke-linejoin:round;stroke-miterlimit:4;stroke-dasharray:none;stroke-opacity:1"
     d="m 197.66475,74.921855 c 0.975,-1.032 3.016,-0.349 3.35,-0.385 4.978,-0.626 5.349,-0.543 9.166,-0.751 5.52,-0.301 9.344,0.333 10.463,3.495 0.751,2.146 0.256,3.709 -0.728,4.578 -1.109,0.959 -4.199,1.698 -6.272,-0.313 l -1.676,-0.369 c -1.161,-0.099 -1.724,-0.156 -2.303,-0.162 -1.005,-0.01 -2.078,-0.078 -4.03,-0.208 -3.464,-0.224 -7.052,-1.594 -7.052,-1.594 -0.319,-0.026 -0.558,-0.162 -0.746,-0.359"
     id="path365" />
  <path
     style="fill:#231f20;fill-opacity:1;fill-rule:nonzero;stroke:none"
     d="m 180.82075,76.374855 c 0.708,1.151 1.683,0.963 2.334,0.156 0.193,-0.24 0.614,-0.245 0.781,-0.494 0.391,-0.584 0.005,-2.287 -1.495,-2.328 -0.104,0 -0.88,-0.262 -1.484,-0.366 -1.204,-0.213 -3.693,-0.052 -5.458,1.995 -0.833,0.959 -0.104,1.271 0.344,0.98 1.453,-0.907 1.754,-0.704 2.224,-0.808 1.582,-0.359 2.754,0.865 2.754,0.865"
     id="path366" />
  <path
     style="fill:none;stroke:#231f20;stroke-width:0.332927;stroke-linecap:butt;stroke-linejoin:miter;stroke-miterlimit:4;stroke-dasharray:none;stroke-opacity:1"
     d="m 180.82075,76.374855 c 0.708,1.151 1.683,0.963 2.334,0.156 0.193,-0.24 0.614,-0.245 0.781,-0.494 0.391,-0.584 0.005,-2.287 -1.495,-2.328 -0.104,0 -0.88,-0.262 -1.484,-0.366 -1.204,-0.213 -3.693,-0.052 -5.458,1.995 -0.833,0.959 -0.104,1.271 0.344,0.98 1.453,-0.907 1.754,-0.704 2.224,-0.808 1.582,-0.359 2.754,0.865 2.754,0.865 z"
     id="path367" />
  <path
     style="fill:#0098c9;fill-opacity:1;fill-rule:nonzero;stroke:none"
     d="m 212.24375,68.353855 c 2.771,2.145 3.411,2.88 4.249,3.661 4.23,3.943 3.683,5.11 2.126,6.932 -2.203,2.579 -3.656,3.776 -8.027,-0.76 -3.312,-3.432 -6.271,-5.516 -6.271,-5.516 -1.76,-0.62 -4.405,-3.057 -4.582,-3.948 -0.287,-1.51 -0.188,-1.224 0.224,-2.614 0.749,-2.567 1.926,-2.818 3.109,-2.703 1.181,0.109 2.124,0.552 4.541,1.984 1.875,1.109 4.631,2.964 4.631,2.964"
     id="path368" />
  <path
     style="fill:none;stroke:#231f20;stroke-width:0.565977;stroke-linecap:butt;stroke-linejoin:miter;stroke-miterlimit:4;stroke-dasharray:none;stroke-opacity:1"
     d="m 212.24375,68.353855 c 2.771,2.145 3.411,2.88 4.249,3.661 4.23,3.943 3.683,5.11 2.126,6.932 -2.203,2.579 -3.656,3.776 -8.027,-0.76 -3.312,-3.432 -6.271,-5.516 -6.271,-5.516 -1.76,-0.62 -4.405,-3.057 -4.582,-3.948 -0.287,-1.51 -0.188,-1.224 0.224,-2.614 0.749,-2.567 1.926,-2.818 3.109,-2.703 1.181,0.109 2.124,0.552 4.541,1.984 1.875,1.109 4.631,2.964 4.631,2.964 z"
     id="path369" />
  <path
     style="fill:#ffffff;fill-opacity:1;fill-rule:nonzero;stroke:none"
     d="m 193.24375,64.712855 c -0.219,-0.11 -0.995,0.734 -1.407,0.417 -0.412,-0.328 -0.098,-1.047 -0.984,-2.828 l -0.01,-0.021 c -0.688,-1.282 -0.776,-2.667 -0.079,-3.708 1.147,-1.735 3.98,-1.875 6.333,-0.307 2.36,1.556 3.334,4.228 2.183,5.957 -1.093,1.656 -3.745,1.855 -6.036,0.49"
     id="path370" />
  <path
     style="fill:none;stroke:#231f20;stroke-width:0.565977;stroke-linecap:butt;stroke-linejoin:miter;stroke-miterlimit:4;stroke-dasharray:none;stroke-opacity:1"
     d="m 193.24375,64.712855 c -0.219,-0.11 -0.995,0.734 -1.407,0.417 -0.412,-0.328 -0.098,-1.047 -0.984,-2.828 l -0.01,-0.021 c -0.688,-1.282 -0.776,-2.667 -0.079,-3.708 1.147,-1.735 3.98,-1.875 6.333,-0.307 2.36,1.556 3.334,4.228 2.183,5.957 -1.093,1.656 -3.745,1.855 -6.036,0.49 z"
     id="path371" />
  <path
     style="fill:#231f20;fill-opacity:1;fill-rule:nonzero;stroke:none"
     d="m 183.71175,71.796855 c 0.599,0.249 2.443,-0.38 4.041,-0.276 1.09,0.073 3.663,-0.88 4.735,-0.73 0.985,0.142 1.448,0.11 1.797,-0.989 0.208,-0.651 0.188,-2.036 -0.286,-2.213 -1.115,-0.418 -2.063,-0.376 -3.094,-0.104 -1.177,0.312 -4.297,1.426 -4.854,1.681 -1.375,0.656 -2.088,0.485 -2.474,0.62 -0.714,0.256 -0.797,0.593 -0.729,1.093 0.125,0.954 0.864,0.918 0.864,0.918"
     id="path372" />
  <path
     style="fill:none;stroke:#231f20;stroke-width:0.565977;stroke-linecap:butt;stroke-linejoin:miter;stroke-miterlimit:4;stroke-dasharray:none;stroke-opacity:1"
     d="m 183.71175,71.796855 c 0.599,0.249 2.443,-0.38 4.041,-0.276 1.09,0.073 3.663,-0.88 4.735,-0.73 0.985,0.142 1.448,0.11 1.797,-0.989 0.208,-0.651 0.188,-2.036 -0.286,-2.213 -1.115,-0.418 -2.063,-0.376 -3.094,-0.104 -1.177,0.312 -4.297,1.426 -4.854,1.681 -1.375,0.656 -2.088,0.485 -2.474,0.62 -0.714,0.256 -0.797,0.593 -0.729,1.093 0.125,0.954 0.864,0.918 0.864,0.918 z"
     id="path373" />
  <path
     style="fill:#231f20;fill-opacity:1;fill-rule:nonzero;stroke:none"
     d="m 192.61875,70.124855 c 0.374,1.245 2.188,0.302 2.692,0.13 0.516,-0.172 2.042,-0.505 3.256,-0.604 1.224,-0.109 2.697,-0.766 5.016,-0.964 1.213,-0.109 2.333,-0.989 2.104,-2.75 -0.23,-1.739 -1.298,-2.266 -2.751,-1.911 -1.453,0.353 -2.672,1.297 -4.109,1.755 -1.443,0.458 -2.954,0.786 -4.151,0.994 -1.36,0.23 -1.948,0.855 -2.063,1.319 -0.27,1.161 0.006,2.031 0.006,2.031"
     id="path374" />
  <path
     style="fill:none;stroke:#231f20;stroke-width:0.565977;stroke-linecap:butt;stroke-linejoin:miter;stroke-miterlimit:4;stroke-dasharray:none;stroke-opacity:1"
     d="m 192.61875,70.124855 c 0.374,1.245 2.188,0.302 2.692,0.13 0.516,-0.172 2.042,-0.505 3.256,-0.604 1.224,-0.109 2.697,-0.766 5.016,-0.964 1.213,-0.109 2.333,-0.989 2.104,-2.75 -0.23,-1.739 -1.298,-2.266 -2.751,-1.911 -1.453,0.353 -2.672,1.297 -4.109,1.755 -1.443,0.458 -2.954,0.786 -4.151,0.994 -1.36,0.23 -1.948,0.855 -2.063,1.319 -0.27,1.161 0.006,2.031 0.006,2.031 z"
     id="path375" />
  <path
     style="fill:#231f20;fill-opacity:1;fill-rule:nonzero;stroke:none"
     d="m 200.20075,81.269855 c 0.715,2.152 0.552,2.667 -0.333,3.021 -0.593,0.246 -1.057,0.667 -1.416,0.834 -1.177,0.536 -3.385,0.969 -9.948,0.541 -1.489,-0.099 -3.584,-0.219 -4.443,-0.197 -1.36,0.025 -0.489,-2.24 0.052,-2.26 1.708,-0.058 2.88,-0.235 3.495,-0.334 0.423,-0.078 1.183,-0.105 2.781,-0.589 2.412,-0.744 3.751,-1.547 5.828,-1.932 0.97,-0.172 1.579,-0.921 2.62,-0.609 1.042,0.301 1.364,1.525 1.364,1.525"
     id="path376" />
  <path
     style="fill:none;stroke:#231f20;stroke-width:0.565977;stroke-linecap:butt;stroke-linejoin:miter;stroke-miterlimit:4;stroke-dasharray:none;stroke-opacity:1"
     d="m 200.20075,81.269855 c 0.715,2.152 0.552,2.667 -0.333,3.021 -0.593,0.246 -1.057,0.667 -1.416,0.834 -1.177,0.536 -3.385,0.969 -9.948,0.541 -1.489,-0.099 -3.584,-0.219 -4.443,-0.197 -1.36,0.025 -0.489,-2.24 0.052,-2.26 1.708,-0.058 2.88,-0.235 3.495,-0.334 0.423,-0.078 1.183,-0.105 2.781,-0.589 2.412,-0.744 3.751,-1.547 5.828,-1.932 0.97,-0.172 1.579,-0.921 2.62,-0.609 1.042,0.301 1.364,1.525 1.364,1.525 z"
     id="path377" />
  <path
     style="fill:#231f20;fill-opacity:1;fill-rule:nonzero;stroke:#231f20;stroke-width:0.565977;stroke-linecap:round;stroke-linejoin:round;stroke-miterlimit:4;stroke-dasharray:none;stroke-opacity:1"
     d="m 197.92475,80.244855 c 0.647,-1.271 2.792,-1.178 3.106,-1.312 4.609,-1.986 4.989,-2.016 8.593,-3.276 5.213,-1.835 9.063,-2.287 11.02,0.432 1.324,1.848 1.281,3.489 0.573,4.598 -0.792,1.224 -3.552,2.802 -6.104,1.454 l -1.708,0.114 c -1.141,0.224 -1.708,0.328 -2.261,0.49 -0.968,0.27 -2.009,0.5 -3.927,0.921 -3.39,0.756 -7.218,0.443 -7.218,0.443 -0.307,0.057 -0.579,-0.01 -0.812,-0.14"
     id="path378" />
  <path
     style="fill:#0098c9;fill-opacity:1;fill-rule:nonzero;stroke:none"
     d="m 221.07175,76.588855 c -1.156,-2.38 -3.823,-3 -7.573,-2.694 l 1.114,7.73 c 2.292,1.765 5.271,0.661 6.26,-0.412 0.891,-0.974 1.199,-2.588 0.199,-4.624"
     id="path379" />
  <path
     style="fill:none;stroke:#231f20;stroke-width:0.565977;stroke-linecap:butt;stroke-linejoin:miter;stroke-miterlimit:4;stroke-dasharray:none;stroke-opacity:1"
     d="m 221.07175,76.588855 c -1.156,-2.38 -3.823,-3 -7.573,-2.694 l 1.114,7.73 c 2.292,1.765 5.271,0.661 6.26,-0.412 0.891,-0.974 1.199,-2.588 0.199,-4.624 z"
     id="path380" />
  <path
     style="fill:#231f20;fill-opacity:1;fill-rule:nonzero;stroke:none"
     d="m 182.14875,86.342855 c 1.006,0.902 1.891,0.454 2.287,-0.505 0.12,-0.287 0.521,-0.405 0.609,-0.692 0.219,-0.672 -0.629,-2.199 -2.082,-1.819 -0.095,0.032 -0.918,-0.009 -1.527,0.063 -1.213,0.131 -3.557,0.98 -4.686,3.432 -0.527,1.163 0.26,1.261 0.609,0.855 1.14,-1.282 1.489,-1.172 1.91,-1.402 1.418,-0.781 2.88,0.068 2.88,0.068"
     id="path381" />
  <path
     style="fill:none;stroke:#231f20;stroke-width:0.332927;stroke-linecap:butt;stroke-linejoin:miter;stroke-miterlimit:4;stroke-dasharray:none;stroke-opacity:1"
     d="m 182.14875,86.342855 c 1.006,0.902 1.891,0.454 2.287,-0.505 0.12,-0.287 0.521,-0.405 0.609,-0.692 0.219,-0.672 -0.629,-2.199 -2.082,-1.819 -0.095,0.032 -0.918,-0.009 -1.527,0.063 -1.213,0.131 -3.557,0.98 -4.686,3.432 -0.527,1.163 0.26,1.261 0.609,0.855 1.14,-1.282 1.489,-1.172 1.91,-1.402 1.418,-0.781 2.88,0.068 2.88,0.068 z"
     id="path382" />
  <path
     style="fill:#ffffff;fill-opacity:1;fill-rule:nonzero;stroke:none"
     d="m 168.31075,87.613855 c 0.896,0.505 1.209,1.641 0.699,2.537 -0.5,0.891 -1.642,1.208 -2.532,0.698 -0.891,-0.506 -1.208,-1.646 -0.698,-2.536 0.506,-0.891 1.64,-1.204 2.531,-0.699"
     id="path383" />
  <path
     style="fill:none;stroke:#231f20;stroke-width:1.33171;stroke-linecap:butt;stroke-linejoin:miter;stroke-miterlimit:4;stroke-dasharray:none;stroke-opacity:1"
     d="m 168.31075,87.613855 c 0.896,0.505 1.209,1.641 0.699,2.537 -0.5,0.891 -1.642,1.208 -2.532,0.698 -0.891,-0.506 -1.208,-1.646 -0.698,-2.536 0.506,-0.891 1.64,-1.204 2.531,-0.699 z"
     id="path384" />
  <path
     style="fill:#0098c9;fill-opacity:1;fill-rule:nonzero;stroke:none"
     d="m 215.06075,130.66585 c 0.787,3.423 0.818,4.396 0.97,5.526 0.776,5.73 -0.387,6.287 -2.74,6.714 -3.344,0.604 -5.224,0.604 -5.74,-5.667 -0.386,-4.76 -1.359,-8.245 -1.359,-8.245 -0.975,-1.593 -1.475,-5.156 -1.043,-5.952 0.73,-1.35 0.626,-1.068 1.824,-1.887 2.203,-1.509 3.271,-0.963 4.119,-0.124 0.839,0.839 1.292,1.771 2.256,4.411 0.749,2.047 1.713,5.224 1.713,5.224"
     id="path385" />
  <path
     style="fill:none;stroke:#231f20;stroke-width:0.565977;stroke-linecap:butt;stroke-linejoin:miter;stroke-miterlimit:4;stroke-dasharray:none;stroke-opacity:1"
     d="m 215.06075,130.66585 c 0.787,3.423 0.818,4.396 0.97,5.526 0.776,5.73 -0.387,6.287 -2.74,6.714 -3.344,0.604 -5.224,0.604 -5.74,-5.667 -0.386,-4.76 -1.359,-8.245 -1.359,-8.245 -0.975,-1.593 -1.475,-5.156 -1.043,-5.952 0.73,-1.35 0.626,-1.068 1.824,-1.887 2.203,-1.509 3.271,-0.963 4.119,-0.124 0.839,0.839 1.292,1.771 2.256,4.411 0.749,2.047 1.713,5.224 1.713,5.224 z"
     id="path386" />
  <path
     style="fill:#231f20;fill-opacity:1;fill-rule:nonzero;stroke:none"
     d="m 180.17575,122.48485 c 0.115,1.342 1.068,1.614 2.016,1.192 0.281,-0.126 0.656,0.057 0.916,-0.083 0.615,-0.344 1.041,-2.038 -0.276,-2.751 -0.093,-0.046 -0.667,-0.634 -1.156,-1.005 -0.975,-0.735 -3.265,-1.719 -5.765,-0.697 -1.183,0.478 -0.672,1.093 -0.141,1.041 1.707,-0.162 1.885,0.156 2.349,0.276 1.573,0.407 2.057,2.027 2.057,2.027"
     id="path387" />
  <path
     style="fill:none;stroke:#231f20;stroke-width:0.332927;stroke-linecap:butt;stroke-linejoin:miter;stroke-miterlimit:4;stroke-dasharray:none;stroke-opacity:1"
     d="m 180.17575,122.48485 c 0.115,1.342 1.068,1.614 2.016,1.192 0.281,-0.126 0.656,0.057 0.916,-0.083 0.615,-0.344 1.041,-2.038 -0.276,-2.751 -0.093,-0.046 -0.667,-0.634 -1.156,-1.005 -0.975,-0.735 -3.265,-1.719 -5.765,-0.697 -1.183,0.478 -0.672,1.093 -0.141,1.041 1.707,-0.162 1.885,0.156 2.349,0.276 1.573,0.407 2.057,2.027 2.057,2.027 z"
     id="path388" />
  <path
     style="fill:#231f20;fill-opacity:1;fill-rule:nonzero;stroke:none"
     d="m 196.81075,131.13485 c -0.952,2.052 -1.416,2.323 -2.312,1.974 -0.599,-0.23 -1.23,-0.239 -1.594,-0.365 -1.234,-0.406 -3.136,-1.609 -7.636,-6.412 -1.016,-1.088 -2.462,-2.609 -3.104,-3.181 -1.005,-0.907 1.183,-1.969 1.584,-1.614 1.286,1.129 2.266,1.801 2.78,2.145 0.36,0.234 0.934,0.74 2.428,1.473 2.271,1.111 3.792,1.439 5.572,2.584 0.83,0.531 1.787,0.407 2.33,1.344 0.552,0.937 -0.048,2.052 -0.048,2.052"
     id="path389" />
  <path
     style="fill:none;stroke:#231f20;stroke-width:0.565977;stroke-linecap:butt;stroke-linejoin:miter;stroke-miterlimit:4;stroke-dasharray:none;stroke-opacity:1"
     d="m 196.81075,131.13485 c -0.952,2.052 -1.416,2.323 -2.312,1.974 -0.599,-0.23 -1.23,-0.239 -1.594,-0.365 -1.234,-0.406 -3.136,-1.609 -7.636,-6.412 -1.016,-1.088 -2.462,-2.609 -3.104,-3.181 -1.005,-0.907 1.183,-1.969 1.584,-1.614 1.286,1.129 2.266,1.801 2.78,2.145 0.36,0.234 0.934,0.74 2.428,1.473 2.271,1.111 3.792,1.439 5.572,2.584 0.83,0.531 1.787,0.407 2.33,1.344 0.552,0.937 -0.048,2.052 -0.048,2.052 z"
     id="path390" />
  <path
     style="fill:#ffffff;fill-opacity:1;fill-rule:nonzero;stroke:none"
     d="m 202.62875,114.64085 c -0.021,-0.246 -1.152,-0.454 -1.1,-0.97 0.058,-0.52 0.839,-0.634 1.871,-2.339 l 0.011,-0.019 c 0.713,-1.267 1.842,-2.079 3.093,-2.047 2.079,0.047 3.703,2.374 3.64,5.197 -0.067,2.828 -1.807,5.074 -3.88,5.022 -1.984,-0.043 -3.567,-2.183 -3.635,-4.844"
     id="path391" />
  <path
     style="fill:none;stroke:#231f20;stroke-width:0.565977;stroke-linecap:butt;stroke-linejoin:miter;stroke-miterlimit:4;stroke-dasharray:none;stroke-opacity:1"
     d="m 202.62875,114.64085 c -0.021,-0.246 -1.152,-0.454 -1.1,-0.97 0.058,-0.52 0.839,-0.634 1.871,-2.339 l 0.011,-0.019 c 0.713,-1.267 1.842,-2.079 3.093,-2.047 2.079,0.047 3.703,2.374 3.64,5.197 -0.067,2.828 -1.807,5.074 -3.88,5.022 -1.984,-0.043 -3.567,-2.183 -3.635,-4.844 z"
     id="path392" />
  <path
     style="fill:#231f20;fill-opacity:1;fill-rule:nonzero;stroke:#231f20;stroke-width:0.565977;stroke-linecap:round;stroke-linejoin:round;stroke-miterlimit:4;stroke-dasharray:none;stroke-opacity:1"
     d="m 195.58675,128.94185 c 1.401,-0.807 3.089,0.928 3.433,1.052 4.713,1.704 5.005,1.943 8.505,3.485 5.058,2.234 8.176,4.541 7.739,7.864 -0.301,2.246 -1.448,3.418 -2.729,3.746 -1.411,0.348 -4.504,-0.391 -5.443,-3.126 l -1.323,-1.078 c -0.989,-0.619 -1.473,-0.933 -1.984,-1.198 -0.89,-0.459 -1.812,-1.005 -3.494,-2.005 -2.99,-1.771 -5.568,-4.62 -5.568,-4.62 -0.443,-0.276 -0.568,-0.744 -0.574,-1.197"
     id="path393" />
  <path
     style="fill:#0098c9;fill-opacity:1;fill-rule:nonzero;stroke:none"
     d="m 211.56075,134.84885 -4.478,6.406 c 0.457,2.848 3.39,4.083 4.848,3.979 1.313,-0.104 2.636,-1.068 3.308,-3.24 0.786,-2.526 -0.74,-4.802 -3.678,-7.145"
     id="path394" />
  <path
     style="fill:none;stroke:#231f20;stroke-width:0.565977;stroke-linecap:butt;stroke-linejoin:miter;stroke-miterlimit:4;stroke-dasharray:none;stroke-opacity:1"
     d="m 211.56075,134.84885 -4.478,6.406 c 0.457,2.848 3.39,4.083 4.848,3.979 1.313,-0.104 2.636,-1.068 3.308,-3.24 0.786,-2.526 -0.74,-4.802 -3.678,-7.145 z"
     id="path395" />
  <path
     style="fill:#231f20;fill-opacity:1;fill-rule:nonzero;stroke:none"
     d="m 190.72775,132.95185 c 0.64,0.11 2.297,-0.906 3.891,-1.15 1.073,-0.167 3.38,-1.661 4.464,-1.746 0.984,-0.077 1.432,-0.207 1.536,-1.353 0.062,-0.677 -0.26,-2.032 -0.766,-2.1 -1.177,-0.166 -2.094,0.084 -3.046,0.574 -1.079,0.557 -3.876,2.327 -4.366,2.698 -1.202,0.938 -1.942,0.927 -2.281,1.14 -0.64,0.412 -0.645,0.755 -0.473,1.229 0.328,0.902 1.041,0.708 1.041,0.708"
     id="path396" />
  <path
     style="fill:none;stroke:#231f20;stroke-width:0.565977;stroke-linecap:butt;stroke-linejoin:miter;stroke-miterlimit:4;stroke-dasharray:none;stroke-opacity:1"
     d="m 190.72775,132.95185 c 0.64,0.11 2.297,-0.906 3.891,-1.15 1.073,-0.167 3.38,-1.661 4.464,-1.746 0.984,-0.077 1.432,-0.207 1.536,-1.353 0.062,-0.677 -0.26,-2.032 -0.766,-2.1 -1.177,-0.166 -2.094,0.084 -3.046,0.574 -1.079,0.557 -3.876,2.327 -4.366,2.698 -1.202,0.938 -1.942,0.927 -2.281,1.14 -0.64,0.412 -0.645,0.755 -0.473,1.229 0.328,0.902 1.041,0.708 1.041,0.708 z"
     id="path397" />
  <path
     style="fill:#231f20;fill-opacity:1;fill-rule:nonzero;stroke:none"
     d="m 199.06075,129.38485 c 0.636,1.125 2.192,-0.182 2.656,-0.463 0.464,-0.287 1.875,-0.937 3.042,-1.303 1.166,-0.369 2.469,-1.328 4.688,-2.03 1.166,-0.371 2.068,-1.47 1.453,-3.142 -0.599,-1.645 -1.756,-1.927 -3.099,-1.265 -1.344,0.656 -2.324,1.849 -3.63,2.604 -1.308,0.76 -2.708,1.412 -3.834,1.875 -1.281,0.521 -1.718,1.261 -1.724,1.734 -0.016,1.199 0.448,1.99 0.448,1.99"
     id="path398" />
  <path
     style="fill:none;stroke:#231f20;stroke-width:0.565977;stroke-linecap:butt;stroke-linejoin:miter;stroke-miterlimit:4;stroke-dasharray:none;stroke-opacity:1"
     d="m 199.06075,129.38485 c 0.636,1.125 2.192,-0.182 2.656,-0.463 0.464,-0.287 1.875,-0.937 3.042,-1.303 1.166,-0.369 2.469,-1.328 4.688,-2.03 1.166,-0.371 2.068,-1.47 1.453,-3.142 -0.599,-1.645 -1.756,-1.927 -3.099,-1.265 -1.344,0.656 -2.324,1.849 -3.63,2.604 -1.308,0.76 -2.708,1.412 -3.834,1.875 -1.281,0.521 -1.718,1.261 -1.724,1.734 -0.016,1.199 0.448,1.99 0.448,1.99 z"
     id="path399" />
  <path
     style="fill:#231f20;fill-opacity:1;fill-rule:nonzero;stroke:none"
     d="m 183.89475,133.19185 c 0.677,0.282 3.921,0.438 4.661,0.443 0.667,0.006 1.76,0.375 2.265,-0.661 0.204,-0.423 0.21,-1.177 0.126,-1.485 -0.068,-0.255 -0.38,-0.359 -0.776,-0.323 -0.667,0.052 -0.823,0.333 -2.088,0.511 0,0 -0.298,0.089 -0.814,0.286 -1.53,0.557 -0.806,0.453 -3.202,0.776 -0.167,0.016 -0.271,0.208 -0.251,0.317 0.043,0.178 0.079,0.136 0.079,0.136"
     id="path400" />
  <path
     style="fill:none;stroke:#231f20;stroke-width:0.565977;stroke-linecap:round;stroke-linejoin:round;stroke-miterlimit:4;stroke-dasharray:none;stroke-opacity:1"
     d="m 183.89475,133.19185 c 0.677,0.282 3.921,0.438 4.661,0.443 0.667,0.006 1.76,0.375 2.265,-0.661 0.204,-0.423 0.21,-1.177 0.126,-1.485 -0.068,-0.255 -0.38,-0.359 -0.776,-0.323 -0.667,0.052 -0.823,0.333 -2.088,0.511 0,0 -0.298,0.089 -0.814,0.286 -1.53,0.557 -0.806,0.453 -3.202,0.776 -0.167,0.016 -0.271,0.208 -0.251,0.317 0.043,0.178 0.079,0.136 0.079,0.136 z"
     id="path401" />
  <path
     style="fill:#ffffff;fill-opacity:1;fill-rule:nonzero;stroke:none"
     d="m 168.45175,141.91085 c 0.896,0.505 1.208,1.64 0.698,2.536 -0.506,0.891 -1.64,1.209 -2.531,0.699 -0.891,-0.505 -1.208,-1.647 -0.699,-2.537 0.506,-0.891 1.636,-1.203 2.532,-0.698"
     id="path402" />
  <path
     style="fill:none;stroke:#231f20;stroke-width:1.33171;stroke-linecap:butt;stroke-linejoin:miter;stroke-miterlimit:4;stroke-dasharray:none;stroke-opacity:1"
     d="m 168.45175,141.91085 c 0.896,0.505 1.208,1.64 0.698,2.536 -0.506,0.891 -1.64,1.209 -2.531,0.699 -0.891,-0.505 -1.208,-1.647 -0.699,-2.537 0.506,-0.891 1.636,-1.203 2.532,-0.698 z"
     id="path403" />
  <path
     style="fill:#ffffff;fill-opacity:1;fill-rule:nonzero;stroke:none"
     d="m 116.23875,87.468855 c 0.891,0.505 1.203,1.64 0.697,2.536 -0.505,0.896 -1.64,1.208 -2.53,0.704 -0.896,-0.511 -1.214,-1.647 -0.704,-2.543 0.505,-0.891 1.641,-1.203 2.537,-0.697"
     id="path404" />
  <path
     style="fill:none;stroke:#231f20;stroke-width:1.33171;stroke-linecap:butt;stroke-linejoin:miter;stroke-miterlimit:4;stroke-dasharray:none;stroke-opacity:1"
     d="m 116.23875,87.468855 c 0.891,0.505 1.203,1.64 0.697,2.536 -0.505,0.896 -1.64,1.208 -2.53,0.704 -0.896,-0.511 -1.214,-1.647 -0.704,-2.543 0.505,-0.891 1.641,-1.203 2.537,-0.697 z"
     id="path405" />
  <path
     style="fill:#ffffff;fill-opacity:1;fill-rule:nonzero;stroke:none"
     d="m 116.46275,142.00385 c 0.891,0.506 1.203,1.642 0.697,2.538 -0.505,0.89 -1.645,1.208 -2.53,0.697 -0.896,-0.505 -1.214,-1.645 -0.704,-2.536 0.505,-0.89 1.641,-1.209 2.537,-0.699"
     id="path406" />
  <path
     style="fill:none;stroke:#231f20;stroke-width:1.33171;stroke-linecap:butt;stroke-linejoin:miter;stroke-miterlimit:4;stroke-dasharray:none;stroke-opacity:1"
     d="m 116.46275,142.00385 c 0.891,0.506 1.203,1.642 0.697,2.538 -0.505,0.89 -1.645,1.208 -2.53,0.697 -0.896,-0.505 -1.214,-1.645 -0.704,-2.536 0.505,-0.89 1.641,-1.209 2.537,-0.699 z"
     id="path407" />
  <path
     style="fill:#231f20;fill-opacity:1;fill-rule:nonzero;stroke:none"
     d="m 101.31075,147.46285 c 0.552,-1.235 -0.156,-1.932 -1.181,-2.016 -0.313995,-0.025 -0.551995,-0.364 -0.854995,-0.364 -0.703,0 -1.891,1.282 -1.079,2.536 0.058,0.094 0.278,0.88 0.537,1.448 0.5,1.099 2.030995,3.074 4.713995,3.375 1.265,0.152 1.115,-0.624 0.625,-0.843 -1.573,-0.677 -1.578,-1.048 -1.928,-1.376 -1.181,-1.109 -0.833,-2.76 -0.833,-2.76"
     id="path408" />
  <path
     style="fill:none;stroke:#231f20;stroke-width:0.332927;stroke-linecap:butt;stroke-linejoin:miter;stroke-miterlimit:4;stroke-dasharray:none;stroke-opacity:1"
     d="m 101.31075,147.46285 c 0.552,-1.235 -0.156,-1.932 -1.181,-2.016 -0.313995,-0.025 -0.551995,-0.364 -0.854995,-0.364 -0.703,0 -1.891,1.282 -1.079,2.536 0.058,0.094 0.278,0.88 0.537,1.448 0.5,1.099 2.030995,3.074 4.713995,3.375 1.265,0.152 1.115,-0.624 0.625,-0.843 -1.573,-0.677 -1.578,-1.048 -1.928,-1.376 -1.181,-1.109 -0.833,-2.76 -0.833,-2.76 z"
     id="path409" />
  <path
     style="fill:#231f20;fill-opacity:1;fill-rule:nonzero;stroke:none"
     d="m 90.889755,131.87485 c 1.828,-1.338 2.36,-1.355 2.978,-0.62 0.412,0.489 0.965,0.796 1.224,1.088 0.882,0.948 1.975,2.912 3.61,9.292 0.37,1.443 0.901,3.468 1.188,4.281 0.447995,1.282 -1.979,1.162 -2.162,0.657 -0.584,-1.61 -1.114,-2.667 -1.406,-3.219 -0.203,-0.38 -0.463,-1.099 -1.422,-2.459 -1.453,-2.068 -2.63,-3.088 -3.641,-4.948 -0.473,-0.864 -1.369,-1.213 -1.396,-2.296 -0.03,-1.084 1.027,-1.776 1.027,-1.776"
     id="path410" />
  <path
     style="fill:none;stroke:#231f20;stroke-width:0.565977;stroke-linecap:butt;stroke-linejoin:miter;stroke-miterlimit:4;stroke-dasharray:none;stroke-opacity:1"
     d="m 90.889755,131.87485 c 1.828,-1.338 2.36,-1.355 2.978,-0.62 0.412,0.489 0.965,0.796 1.224,1.088 0.882,0.948 1.975,2.912 3.61,9.292 0.37,1.443 0.901,3.468 1.188,4.281 0.447995,1.282 -1.979,1.162 -2.162,0.657 -0.584,-1.61 -1.114,-2.667 -1.406,-3.219 -0.203,-0.38 -0.463,-1.099 -1.422,-2.459 -1.453,-2.068 -2.63,-3.088 -3.641,-4.948 -0.473,-0.864 -1.369,-1.213 -1.396,-2.296 -0.03,-1.084 1.027,-1.776 1.027,-1.776 z"
     id="path411" />
  <path
     style="fill:#0098c9;fill-opacity:1;fill-rule:nonzero;stroke:none"
     d="m 77.862755,108.39485 c 2.401,2.011 3.136,2.178 4.022,2.443 5.531,1.672 4.609,4.354 2.385,6.199 -2.604,2.166 -3.495,2.994 -7.9213,-1.486 -1.2297,-1.249 -6.5683,-5.405 -6.5683,-5.405 -2.1197,-1.235 -3.5265,-3.563 -3.3745,-5.016 0.1557,-1.527 0.2027,-0.912 0.6037,-2.297 0.3802,-1.323 1.9682,-2.829 3.1974,-2.693 1.1776,0.13 1.8761,1.646 3.1573,3.703 1.0093,1.62 4.4987,4.552 4.4987,4.552"
     id="path412" />
  <path
     style="fill:none;stroke:#231f20;stroke-width:0.565977;stroke-linecap:butt;stroke-linejoin:miter;stroke-miterlimit:4;stroke-dasharray:none;stroke-opacity:1"
     d="m 77.862755,108.39485 c 2.401,2.011 3.136,2.178 4.022,2.443 5.531,1.672 4.609,4.354 2.385,6.199 -2.604,2.166 -3.495,2.994 -7.9213,-1.486 -1.2297,-1.249 -6.5683,-5.405 -6.5683,-5.405 -2.1197,-1.235 -3.5265,-3.563 -3.3745,-5.016 0.1557,-1.527 0.2027,-0.912 0.6037,-2.297 0.3802,-1.323 1.9682,-2.829 3.1974,-2.693 1.1776,0.13 1.8761,1.646 3.1573,3.703 1.0093,1.62 4.4987,4.552 4.4987,4.552 z"
     id="path413" />
  <path
     style="fill:#ffffff;fill-opacity:1;fill-rule:nonzero;stroke:none"
     d="m 61.020355,101.46285 c -0.224,-0.104 -0.9751,0.76 -1.3964,0.453 -0.4224,-0.317 -0.1249,-1.046 -1.0516,-2.806995 l -0.0109,-0.015 c -0.7239,-1.267 -0.8495,-2.652 -0.1771,-3.709 1.1037,-1.765 3.9371,-1.969 6.3224,-0.469 2.4016,1.506 3.4428,4.146 2.3333,5.905995 -1.052,1.682 -3.6973,1.948 -6.0197,0.641"
     id="path414" />
  <path
     style="fill:none;stroke:#231f20;stroke-width:0.565977;stroke-linecap:butt;stroke-linejoin:miter;stroke-miterlimit:4;stroke-dasharray:none;stroke-opacity:1"
     d="m 61.020355,101.46285 c -0.224,-0.104 -0.9751,0.76 -1.3964,0.453 -0.4224,-0.317 -0.1249,-1.046 -1.0516,-2.806995 l -0.0109,-0.015 c -0.7239,-1.267 -0.8495,-2.652 -0.1771,-3.709 1.1037,-1.765 3.9371,-1.969 6.3224,-0.469 2.4016,1.506 3.4428,4.146 2.3333,5.905995 -1.052,1.682 -3.6973,1.948 -6.0197,0.641 z"
     id="path415" />
  <path
     style="fill:#231f20;fill-opacity:1;fill-rule:nonzero;stroke:none"
     d="m 92.763755,133.47885 c -3.014,2.64 -4.041,-1.302 -4.353,-1.666 -3.319,-3.762 -3.459,-4.11 -5.781,-7.147 -3.36,-4.391 -4.986,-7.911 -3,-10.61 1.344,-1.833 2.91,-2.306 4.186,-1.973 1.407,0.37 3.767,2.506 3.271,5.349 l 0.641,1.588 c 0.569,1.017 0.845,1.522 1.162,2 0.557,0.834 1.109,1.755 2.104,3.443 1.765,2.989 2.656,6.724 2.656,6.724 0.609,1.088 -0.886,2.292 -0.886,2.292"
     id="path416" />
  <path
     style="fill:none;stroke:#231f20;stroke-width:0.565977;stroke-linecap:butt;stroke-linejoin:miter;stroke-miterlimit:4;stroke-dasharray:none;stroke-opacity:1"
     d="m 92.763755,133.47885 c -3.014,2.64 -4.041,-1.302 -4.353,-1.666 -3.319,-3.762 -3.459,-4.11 -5.781,-7.147 -3.36,-4.391 -4.986,-7.911 -3,-10.61 1.344,-1.833 2.91,-2.306 4.186,-1.973 1.407,0.37 3.767,2.506 3.271,5.349 l 0.641,1.588 c 0.569,1.017 0.845,1.522 1.162,2 0.557,0.834 1.109,1.755 2.104,3.443 1.765,2.989 2.656,6.724 2.656,6.724 0.609,1.088 -0.886,2.292 -0.886,2.292 z"
     id="path417" />
  <path
     style="fill:#0098c9;fill-opacity:1;fill-rule:nonzero;stroke:none"
     d="m 84.420755,112.24385 c -1.203,-0.541 -2.829,-0.333 -4.458,1.245 -1.063,1.026 -1.437,2.338 -1.328,3.89 -0.157,1.027 -0.224,1.652 0.343,2.224 0.048,0.053 0.095,0.115 0.146,0.183 0.173,0.557 0.375,1.136 0.63,1.74 l 7.005,-3.459 c 0.964,-2.724 -1.009,-5.224 -2.338,-5.823"
     id="path418" />
  <path
     style="fill:none;stroke:#231f20;stroke-width:0.565977;stroke-linecap:butt;stroke-linejoin:miter;stroke-miterlimit:4;stroke-dasharray:none;stroke-opacity:1"
     d="m 84.420755,112.24385 c -1.203,-0.541 -2.829,-0.333 -4.458,1.245 -1.063,1.026 -1.437,2.338 -1.328,3.89 -0.157,1.027 -0.224,1.652 0.343,2.224 0.048,0.053 0.095,0.115 0.146,0.183 0.173,0.557 0.375,1.136 0.63,1.74 l 7.005,-3.459 c 0.964,-2.724 -1.009,-5.224 -2.338,-5.823 z"
     id="path419" />
  <path
     style="fill:#231f20;fill-opacity:1;fill-rule:nonzero;stroke:none"
     d="m 52.222855,93.441855 c 0.2652,0.584 2.0412,1.391 3.136,2.568 0.7386,0.792 3.276,1.855 3.952,2.703 0.6199,0.772 0.9855,1.068 1.9855,0.505 0.5984,-0.333 1.5308,-1.353 1.3068,-1.807 -0.5308,-1.073 -1.2495,-1.688 -2.1869,-2.198 -1.0735,-0.578 -4.1054,-1.895 -4.6882,-2.088 -1.453,-0.468 -1.8598,-1.083 -2.229,-1.24 -0.7027,-0.307 -0.9896,-0.115 -1.2814,0.292 -0.5629,0.781 0.0052,1.265 0.0052,1.265"
     id="path420" />
  <path
     style="fill:none;stroke:#231f20;stroke-width:0.565977;stroke-linecap:butt;stroke-linejoin:miter;stroke-miterlimit:4;stroke-dasharray:none;stroke-opacity:1"
     d="m 52.222855,93.441855 c 0.2652,0.584 2.0412,1.391 3.136,2.568 0.7386,0.792 3.276,1.855 3.952,2.703 0.6199,0.772 0.9855,1.068 1.9855,0.505 0.5984,-0.333 1.5308,-1.353 1.3068,-1.807 -0.5308,-1.073 -1.2495,-1.688 -2.1869,-2.198 -1.0735,-0.578 -4.1054,-1.895 -4.6882,-2.088 -1.453,-0.468 -1.8598,-1.083 -2.229,-1.24 -0.7027,-0.307 -0.9896,-0.115 -1.2814,0.292 -0.5629,0.781 0.0052,1.265 0.0052,1.265 z"
     id="path421" />
  <path
     style="fill:#231f20;fill-opacity:1;fill-rule:nonzero;stroke:none"
     d="m 59.858855,98.317855 c -0.5786,1.161 1.3854,1.712995 1.8744,1.931995 0.5,0.229 1.8334,1.031 2.7923,1.787 0.9625,0.754 2.4838,1.29 4.3172,2.729 0.964,0.749 2.3801,0.88 3.4109,-0.563 1.0213,-1.428 0.6052,-2.537 -0.6923,-3.276 -1.3025,-0.745 -2.8385,-0.885 -4.2025,-1.536995 -1.3651,-0.651 -2.6932,-1.443 -3.7041,-2.109 -1.1505,-0.766 -2.0105,-0.714 -2.4052,-0.448 -0.9959,0.656 -1.3907,1.485 -1.3907,1.485"
     id="path422" />
  <path
     style="fill:none;stroke:#231f20;stroke-width:0.565977;stroke-linecap:butt;stroke-linejoin:miter;stroke-miterlimit:4;stroke-dasharray:none;stroke-opacity:1"
     d="m 59.858855,98.317855 c -0.5786,1.161 1.3854,1.712995 1.8744,1.931995 0.5,0.229 1.8334,1.031 2.7923,1.787 0.9625,0.754 2.4838,1.29 4.3172,2.729 0.964,0.749 2.3801,0.88 3.4109,-0.563 1.0213,-1.428 0.6052,-2.537 -0.6923,-3.276 -1.3025,-0.745 -2.8385,-0.885 -4.2025,-1.536995 -1.3651,-0.651 -2.6932,-1.443 -3.7041,-2.109 -1.1505,-0.766 -2.0105,-0.714 -2.4052,-0.448 -0.9959,0.656 -1.3907,1.485 -1.3907,1.485 z"
     id="path423" />
  <path
     style="fill:#231f20;fill-opacity:1;fill-rule:nonzero;stroke:none"
     d="m 6.400055,154.69785 c 1.3537998,-0.052 1.6666998,-0.989 1.2870998,-1.954 -0.1095,-0.292 0.0828,-0.655 -0.0469,-0.926 -0.313,-0.631 -1.9853998,-1.131 -2.7557998,0.156 -0.0572,0.088 -0.6666,0.635 -1.0629,1.115 -0.7652,0.937 -1.8584,3.181 -0.948,5.724 0.4281,1.197 1.0573,0.723 1.0323,0.186 -0.0843,-1.708 0.2438,-1.874 0.3906,-2.338 0.4678,-1.547 2.1036,-1.963 2.1036,-1.963"
     id="path424" />
  <path
     style="fill:none;stroke:#231f20;stroke-width:0.332927;stroke-linecap:butt;stroke-linejoin:miter;stroke-miterlimit:4;stroke-dasharray:none;stroke-opacity:1"
     d="m 6.400055,154.69785 c 1.3537998,-0.052 1.6666998,-0.989 1.2870998,-1.954 -0.1095,-0.292 0.0828,-0.655 -0.0469,-0.926 -0.313,-0.631 -1.9853998,-1.131 -2.7557998,0.156 -0.0572,0.088 -0.6666,0.635 -1.0629,1.115 -0.7652,0.937 -1.8584,3.181 -0.948,5.724 0.4281,1.197 1.0573,0.723 1.0323,0.186 -0.0843,-1.708 0.2438,-1.874 0.3906,-2.338 0.4678,-1.547 2.1036,-1.963 2.1036,-1.963 z"
     id="path425" />
  <path
     style="fill:#231f20;fill-opacity:1;fill-rule:nonzero;stroke:none"
     d="m 15.785555,138.46785 c 2.0109,1.042 2.2598,1.522 1.875,2.402 -0.2605,0.577 -0.2922,1.213 -0.4376,1.577 -0.464,1.209 -1.7453,3.052 -6.7453,7.339 -1.1348002,0.969 -2.7134002,2.339 -3.3170002,2.958 -0.9485998,0.965 -1.9109998,-1.27 -1.5417998,-1.65 1.1827998,-1.245 1.8963998,-2.183 2.2707998,-2.693 0.2506,-0.345 0.7762,-0.891 1.5787,-2.355 1.2136002,-2.219 1.6041002,-3.723 2.8281002,-5.452 0.5667,-0.803 0.4839,-1.767 1.4427,-2.267 0.9625,-0.505 2.0464,0.141 2.0464,0.141"
     id="path426" />
  <path
     style="fill:none;stroke:#231f20;stroke-width:0.565977;stroke-linecap:butt;stroke-linejoin:miter;stroke-miterlimit:4;stroke-dasharray:none;stroke-opacity:1"
     d="m 15.785555,138.46785 c 2.0109,1.042 2.2598,1.522 1.875,2.402 -0.2605,0.577 -0.2922,1.213 -0.4376,1.577 -0.464,1.209 -1.7453,3.052 -6.7453,7.339 -1.1348002,0.969 -2.7134002,2.339 -3.3170002,2.958 -0.9485998,0.965 -1.9109998,-1.27 -1.5417998,-1.65 1.1827998,-1.245 1.8963998,-2.183 2.2707998,-2.693 0.2506,-0.345 0.7762,-0.891 1.5787,-2.355 1.2136002,-2.219 1.6041002,-3.723 2.8281002,-5.452 0.5667,-0.803 0.4839,-1.767 1.4427,-2.267 0.9625,-0.505 2.0464,0.141 2.0464,0.141 z"
     id="path427" />
  <path
     style="fill:#0098c9;fill-opacity:1;fill-rule:nonzero;stroke:none"
     d="m 33.134955,118.16085 c -1.5896,2.704 -1.6359,3.458 -1.7505,4.37 -0.7402,5.735 -3.5416,5.26 -5.7187,3.375 -2.5682,-2.219 -3.5256,-2.964 0.1615,-8.063 1.0317,-1.411 4.2598,-7.364 4.2598,-7.364 0.8651,-2.292 2.9334,-4.057 4.3906,-4.152 1.5318,-0.099 0.9281,0.052 2.3652,0.215 1.3639,0.161 3.1093,1.484 3.1775,2.719 0.0667,1.181 -1.3136,2.114 -3.1307,3.718 -1.4323,1.265 -3.7547,5.182 -3.7547,5.182"
     id="path428" />
  <path
     style="fill:none;stroke:#231f20;stroke-width:0.565977;stroke-linecap:butt;stroke-linejoin:miter;stroke-miterlimit:4;stroke-dasharray:none;stroke-opacity:1"
     d="m 33.134955,118.16085 c -1.5896,2.704 -1.6359,3.458 -1.7505,4.37 -0.7402,5.735 -3.5416,5.26 -5.7187,3.375 -2.5682,-2.219 -3.5256,-2.964 0.1615,-8.063 1.0317,-1.411 4.2598,-7.364 4.2598,-7.364 0.8651,-2.292 2.9334,-4.057 4.3906,-4.152 1.5318,-0.099 0.9281,0.052 2.3652,0.215 1.3639,0.161 3.1093,1.484 3.1775,2.719 0.0667,1.181 -1.3136,2.114 -3.1307,3.718 -1.4323,1.265 -3.7547,5.182 -3.7547,5.182 z"
     id="path429" />
  <path
     style="fill:#ffffff;fill-opacity:1;fill-rule:nonzero;stroke:none"
     d="m 37.206755,100.41085 c 0.0683,-0.234 -0.9051,-0.832995 -0.6666,-1.301995 0.2401,-0.469 1.0109,-0.291 2.5896,-1.5 l 0.0145,-0.01 c 1.1308,-0.922 2.4745,-1.266 3.6308,-0.786 1.9172,0.801 2.5839,3.561995 1.5,6.165995 -1.088,2.61 -3.5255,4.072 -5.4427,3.271 -1.8333,-0.761 -2.5255,-3.334 -1.6256,-5.839"
     id="path430" />
  <path
     style="fill:none;stroke:#231f20;stroke-width:0.565977;stroke-linecap:butt;stroke-linejoin:miter;stroke-miterlimit:4;stroke-dasharray:none;stroke-opacity:1"
     d="m 37.206755,100.41085 c 0.0683,-0.234 -0.9051,-0.832995 -0.6666,-1.301995 0.2401,-0.469 1.0109,-0.291 2.5896,-1.5 l 0.0145,-0.01 c 1.1308,-0.922 2.4745,-1.266 3.6308,-0.786 1.9172,0.801 2.5839,3.561995 1.5,6.165995 -1.088,2.61 -3.5255,4.072 -5.4427,3.271 -1.8333,-0.761 -2.5255,-3.334 -1.6256,-5.839 z"
     id="path431" />
  <path
     style="fill:#231f20;fill-opacity:1;fill-rule:nonzero;stroke:none"
     d="m 15.176155,140.86485 c -3.7026,-1.547 -0.6094,-4.209 -0.4265,-4.652 1.9052,-4.635 2.1613,-4.916 3.8588,-8.343 2.4583,-4.948 4.8959,-7.964 8.1932,-7.376 2.2385,0.401 3.3589,1.6 3.624,2.891 0.2864,1.428 -0.5828,4.485 -3.359,5.297 l -1.1462,1.276 c -0.6506,0.953 -0.9839,1.427 -1.2708,1.921 -0.5054,0.871 -1.0933,1.772 -2.1667,3.407 -1.9,2.906 -4.8641,5.355 -4.8641,5.355 -0.7025,1.025 -2.4427,0.224 -2.4427,0.224"
     id="path432" />
  <path
     style="fill:none;stroke:#231f20;stroke-width:0.565977;stroke-linecap:butt;stroke-linejoin:miter;stroke-miterlimit:4;stroke-dasharray:none;stroke-opacity:1"
     d="m 15.176155,140.86485 c -3.7026,-1.547 -0.6094,-4.209 -0.4265,-4.652 1.9052,-4.635 2.1613,-4.916 3.8588,-8.343 2.4583,-4.948 4.8959,-7.964 8.1932,-7.376 2.2385,0.401 3.3589,1.6 3.624,2.891 0.2864,1.428 -0.5828,4.485 -3.359,5.297 l -1.1462,1.276 c -0.6506,0.953 -0.9839,1.427 -1.2708,1.921 -0.5054,0.871 -1.0933,1.772 -2.1667,3.407 -1.9,2.906 -4.8641,5.355 -4.8641,5.355 -0.7025,1.025 -2.4427,0.224 -2.4427,0.224 z"
     id="path433" />
  <path
     style="fill:#0098c9;fill-opacity:1;fill-rule:nonzero;stroke:none"
     d="m 27.457355,120.54585 c -1.3849,-0.5 -2.7292,-0.26 -4.0729,0.527 -0.9896,0.312 -1.5776,0.526 -1.8443,1.286 -0.0249,0.068 -0.0625,0.14 -0.0984,0.214 -0.4213,0.401 -0.8494,0.838 -1.2812,1.333 l 6.1984,4.76 c 2.864,-0.334 4.2333,-3.208 4.1864,-4.667 -0.0463,-1.317 -0.9479,-2.681 -3.088,-3.453"
     id="path434" />
  <path
     style="fill:none;stroke:#231f20;stroke-width:0.565977;stroke-linecap:butt;stroke-linejoin:miter;stroke-miterlimit:4;stroke-dasharray:none;stroke-opacity:1"
     d="m 27.457355,120.54585 c -1.3849,-0.5 -2.7292,-0.26 -4.0729,0.527 -0.9896,0.312 -1.5776,0.526 -1.8443,1.286 -0.0249,0.068 -0.0625,0.14 -0.0984,0.214 -0.4213,0.401 -0.8494,0.838 -1.2812,1.333 l 6.1984,4.76 c 2.864,-0.334 4.2333,-3.208 4.1864,-4.667 -0.0463,-1.317 -0.9479,-2.681 -3.088,-3.453 z"
     id="path435" />
  <path
     style="fill:#231f20;fill-opacity:1;fill-rule:nonzero;stroke:none"
     d="m 49.118755,93.244855 c -0.6197,0.177 -1.6822,1.806 -3.0104,2.713 -0.8964,0.615 -2.3333,2.958 -3.2708,3.5 -0.8546,0.499997 -1.2026,0.807995 -0.8026,1.884995 0.2401,0.642 1.1093,1.719 1.5948,1.563 1.1344,-0.36 1.8532,-0.979 2.5,-1.828 0.7333,-0.975 2.4942,-3.770995 2.776,-4.322995 0.6772,-1.36 1.348,-1.666 1.5625,-2.016 0.4052,-0.64 0.2598,-0.958 -0.1,-1.306 -0.6864,-0.672 -1.2495,-0.188 -1.2495,-0.188"
     id="path436" />
  <path
     style="fill:none;stroke:#231f20;stroke-width:0.565977;stroke-linecap:butt;stroke-linejoin:miter;stroke-miterlimit:4;stroke-dasharray:none;stroke-opacity:1"
     d="m 49.118755,93.244855 c -0.6197,0.177 -1.6822,1.806 -3.0104,2.713 -0.8964,0.615 -2.3333,2.958 -3.2708,3.5 -0.8546,0.499997 -1.2026,0.807995 -0.8026,1.884995 0.2401,0.642 1.1093,1.719 1.5948,1.563 1.1344,-0.36 1.8532,-0.979 2.5,-1.828 0.7333,-0.975 2.4942,-3.770995 2.776,-4.322995 0.6772,-1.36 1.348,-1.666 1.5625,-2.016 0.4052,-0.64 0.2598,-0.958 -0.1,-1.306 -0.6864,-0.672 -1.2495,-0.188 -1.2495,-0.188 z"
     id="path437" />
  <path
     style="fill:#231f20;fill-opacity:1;fill-rule:nonzero;stroke:none"
     d="m 43.144255,100.05685 c -1.0613,-0.743995 -1.9,1.114 -2.1921,1.563 -0.3026,0.458 -1.2974,1.655 -2.188,2.494 -0.8959,0.833 -1.6505,2.261 -3.3479,3.854 -0.8906,0.834 -1.2292,2.214 0.0411,3.454 1.2547,1.229 2.4161,0.984 3.3442,-0.188 0.9266,-1.178 1.2959,-2.672 2.1506,-3.927 0.8494,-1.245 1.8333,-2.442 2.6453,-3.339 0.9323,-1.026 1.0057,-1.874 0.8083,-2.311 -0.5,-1.084 -1.2615,-1.6 -1.2615,-1.6"
     id="path438" />
  <path
     style="fill:none;stroke:#231f20;stroke-width:0.565977;stroke-linecap:butt;stroke-linejoin:miter;stroke-miterlimit:4;stroke-dasharray:none;stroke-opacity:1"
     d="m 43.144255,100.05685 c -1.0613,-0.743995 -1.9,1.114 -2.1921,1.563 -0.3026,0.458 -1.2974,1.655 -2.188,2.494 -0.8959,0.833 -1.6505,2.261 -3.3479,3.854 -0.8906,0.834 -1.2292,2.214 0.0411,3.454 1.2547,1.229 2.4161,0.984 3.3442,-0.188 0.9266,-1.178 1.2959,-2.672 2.1506,-3.927 0.8494,-1.245 1.8333,-2.442 2.6453,-3.339 0.9323,-1.026 1.0057,-1.874 0.8083,-2.311 -0.5,-1.084 -1.2615,-1.6 -1.2615,-1.6 z"
     id="path439" />
  <path
     style="fill:#ffffff;fill-opacity:1;fill-rule:nonzero;stroke:none"
     d="m 49.758955,91.296855 c 0.1932,-1.011 1.1614,-1.678 2.1666,-1.49 1.0161,0.187 1.6828,1.156 1.4948,2.167 -0.1871,1.011 -1.1615,1.677 -2.1708,1.489 -1.0053,-0.188 -1.672,-1.161 -1.4906,-2.166"
     id="path440" />
  <path
     style="fill:none;stroke:#231f20;stroke-width:1.33171;stroke-linecap:butt;stroke-linejoin:miter;stroke-miterlimit:4;stroke-dasharray:none;stroke-opacity:1"
     d="m 49.758955,91.296855 c 0.1932,-1.011 1.1614,-1.678 2.1666,-1.49 1.0161,0.187 1.6828,1.156 1.4948,2.167 -0.1871,1.011 -1.1615,1.677 -2.1708,1.489 -1.0053,-0.188 -1.672,-1.161 -1.4906,-2.166 z"
     id="path441" />
  <path
     style="fill:none;stroke:#231f20;stroke-width:1.33171;stroke-linecap:butt;stroke-linejoin:bevel;stroke-miterlimit:4;stroke-dasharray:none;stroke-opacity:1"
     d="m 229.67075,124.37885 2.697,-2.427 V 97.550855 l 1.751,-1.478"
     id="path442" />
  <path
     style="fill:none;stroke:#231f20;stroke-width:1.33171;stroke-linecap:butt;stroke-linejoin:bevel;stroke-miterlimit:4;stroke-dasharray:none;stroke-opacity:1"
     d="m 229.67075,68.405855 2.697,2.427 v 24.401 l 1.751,1.479"
     id="path443" />
  <path
     style="fill:none;stroke:#231f20;stroke-width:1.33171;stroke-linecap:butt;stroke-linejoin:bevel;stroke-miterlimit:4;stroke-dasharray:none;stroke-opacity:1"
     d="m 108.30175,69.394855 -2.694,2.427 v 24.401 l -1.754,1.48"
     id="path444" />
  <path
     style="fill:none;stroke:#231f20;stroke-width:1.33171;stroke-linecap:butt;stroke-linejoin:bevel;stroke-miterlimit:4;stroke-dasharray:none;stroke-opacity:1"
     d="m 108.30175,125.36985 -2.694,-2.423 V 98.545855 l -1.754,-1.484"
     id="path445" />
  <path
     style="fill:#231f20;fill-opacity:1;fill-rule:nonzero;stroke:none"
     d="m 350.09175,153.69185 c 0.324,-1.313 -0.495,-1.874 -1.531,-1.77 -0.308,0.025 -0.604,-0.261 -0.896,-0.209 -0.697,0.13 -1.635,1.6 -0.604,2.698 0.073,0.074 0.427,0.812 0.781,1.323 0.692,0.994 2.558,2.656 5.244,2.479 1.278,-0.088 0.991,-0.823 0.464,-0.947 -1.666,-0.387 -1.74,-0.746 -2.134,-1.005 -1.366,-0.882 -1.324,-2.569 -1.324,-2.569"
     id="path446" />
  <path
     style="fill:none;stroke:#231f20;stroke-width:0.332927;stroke-linecap:butt;stroke-linejoin:miter;stroke-miterlimit:4;stroke-dasharray:none;stroke-opacity:1"
     d="m 350.09175,153.69185 c 0.324,-1.313 -0.495,-1.874 -1.531,-1.77 -0.308,0.025 -0.604,-0.261 -0.896,-0.209 -0.697,0.13 -1.635,1.6 -0.604,2.698 0.073,0.074 0.427,0.812 0.781,1.323 0.692,0.994 2.558,2.656 5.244,2.479 1.278,-0.088 0.991,-0.823 0.464,-0.947 -1.666,-0.387 -1.74,-0.746 -2.134,-1.005 -1.366,-0.882 -1.324,-2.569 -1.324,-2.569 z"
     id="path447" />
  <path
     style="fill:#231f20;fill-opacity:1;fill-rule:nonzero;stroke:none"
     d="m 337.04475,140.23385 c 1.552,-1.645 2.079,-1.76 2.817,-1.145 0.491,0.405 1.09,0.609 1.402,0.843 1.037,0.781 2.464,2.515 5.218,8.495 0.62,1.359 1.511,3.255 1.938,4 0.672,1.182 -1.739,1.5 -2.01,1.036 -0.865,-1.478 -1.578,-2.426 -1.969,-2.921 -0.26,-0.333 -0.645,-0.991 -1.833,-2.157 -1.807,-1.776 -3.146,-2.563 -4.468,-4.219 -0.62,-0.76 -1.568,-0.943 -1.787,-2.005 -0.229,-1.058 0.692,-1.927 0.692,-1.927"
     id="path448" />
  <path
     style="fill:none;stroke:#231f20;stroke-width:0.565977;stroke-linecap:butt;stroke-linejoin:miter;stroke-miterlimit:4;stroke-dasharray:none;stroke-opacity:1"
     d="m 337.04475,140.23385 c 1.552,-1.645 2.079,-1.76 2.817,-1.145 0.491,0.405 1.09,0.609 1.402,0.843 1.037,0.781 2.464,2.515 5.218,8.495 0.62,1.359 1.511,3.255 1.938,4 0.672,1.182 -1.739,1.5 -2.01,1.036 -0.865,-1.478 -1.578,-2.426 -1.969,-2.921 -0.26,-0.333 -0.645,-0.991 -1.833,-2.157 -1.807,-1.776 -3.146,-2.563 -4.468,-4.219 -0.62,-0.76 -1.568,-0.943 -1.787,-2.005 -0.229,-1.058 0.692,-1.927 0.692,-1.927 z"
     id="path449" />
  <path
     style="fill:#0098c9;fill-opacity:1;fill-rule:nonzero;stroke:none"
     d="m 323.18575,118.11885 c 1.896,2.495 2.572,2.823 3.37,3.287 5.021,2.864 3.521,5.276 0.942,6.573 -3.025,1.525 -4.078,2.135 -7.39,-3.218 -0.916,-1.495 -5.192,-6.746 -5.192,-6.746 -1.787,-1.677 -2.636,-4.26 -2.167,-5.64 0.495,-1.453 0.405,-0.844 1.104,-2.105 0.667,-1.203 2.552,-2.312 3.719,-1.905 1.125,0.385 1.458,2.02 2.249,4.312 0.62,1.808 3.365,5.442 3.365,5.442"
     id="path450" />
  <path
     style="fill:none;stroke:#231f20;stroke-width:0.565977;stroke-linecap:butt;stroke-linejoin:miter;stroke-miterlimit:4;stroke-dasharray:none;stroke-opacity:1"
     d="m 323.18575,118.11885 c 1.896,2.495 2.572,2.823 3.37,3.287 5.021,2.864 3.521,5.276 0.942,6.573 -3.025,1.525 -4.078,2.135 -7.39,-3.218 -0.916,-1.495 -5.192,-6.746 -5.192,-6.746 -1.787,-1.677 -2.636,-4.26 -2.167,-5.64 0.495,-1.453 0.405,-0.844 1.104,-2.105 0.667,-1.203 2.552,-2.312 3.719,-1.905 1.125,0.385 1.458,2.02 2.249,4.312 0.62,1.808 3.365,5.442 3.365,5.442 z"
     id="path451" />
  <path
     style="fill:#ffffff;fill-opacity:1;fill-rule:nonzero;stroke:none"
     d="m 308.32075,107.59885 c -0.192,-0.157 -1.12,0.521 -1.458,0.124 -0.343,-0.405 0.11,-1.046 -0.4,-2.973 l -0.006,-0.016 c -0.426,-1.396 -0.229,-2.771 0.662,-3.656 1.468,-1.468995 4.275,-1.036 6.265,0.964 2,2 2.422,4.807 0.953,6.276 -1.401,1.405 -4.041,1.067 -6.016,-0.719"
     id="path452" />
  <path
     style="fill:none;stroke:#231f20;stroke-width:0.565977;stroke-linecap:butt;stroke-linejoin:miter;stroke-miterlimit:4;stroke-dasharray:none;stroke-opacity:1"
     d="m 308.32075,107.59885 c -0.192,-0.157 -1.12,0.521 -1.458,0.124 -0.343,-0.405 0.11,-1.046 -0.4,-2.973 l -0.006,-0.016 c -0.426,-1.396 -0.229,-2.771 0.662,-3.656 1.468,-1.468995 4.275,-1.036 6.265,0.964 2,2 2.422,4.807 0.953,6.276 -1.401,1.405 -4.041,1.067 -6.016,-0.719 z"
     id="path453" />
  <path
     style="fill:#231f20;fill-opacity:1;fill-rule:nonzero;stroke:none"
     d="m 339.18075,141.47385 c -2.495,3.14 -4.219,-0.563 -4.595,-0.86 -3.932,-3.099 -4.14,-3.422 -6.968,-5.989 -4.089,-3.719 -6.322,-6.891 -4.86,-9.902 1,-2.041 2.459,-2.791 3.771,-2.692 1.453,0.115 4.152,1.787 4.183,4.678 l 0.912,1.446 c 0.74,0.896 1.098,1.344 1.5,1.756 0.702,0.719 1.405,1.531 2.686,3.011 2.276,2.624 3.824,6.14 3.824,6.14 0.796,0.958 -0.453,2.412 -0.453,2.412"
     id="path454" />
  <path
     style="fill:none;stroke:#231f20;stroke-width:0.565977;stroke-linecap:butt;stroke-linejoin:miter;stroke-miterlimit:4;stroke-dasharray:none;stroke-opacity:1"
     d="m 339.18075,141.47385 c -2.495,3.14 -4.219,-0.563 -4.595,-0.86 -3.932,-3.099 -4.14,-3.422 -6.968,-5.989 -4.089,-3.719 -6.322,-6.891 -4.86,-9.902 1,-2.041 2.459,-2.791 3.771,-2.692 1.453,0.115 4.152,1.787 4.183,4.678 l 0.912,1.446 c 0.74,0.896 1.098,1.344 1.5,1.756 0.702,0.719 1.405,1.531 2.686,3.011 2.276,2.624 3.824,6.14 3.824,6.14 0.796,0.958 -0.453,2.412 -0.453,2.412 z"
     id="path455" />
  <path
     style="fill:#0098c9;fill-opacity:1;fill-rule:nonzero;stroke:none"
     d="m 327.14875,122.08285 c -1.276,-0.317 -2.839,0.178 -4.161,2.026 -0.859,1.199 -0.99,2.552 -0.604,4.057 0.026,1.043 0.073,1.666 0.734,2.136 0.058,0.041 0.12,0.093 0.178,0.15 0.27,0.522 0.572,1.047 0.932,1.594 l 6.27,-4.661 c 0.454,-2.848 -1.932,-4.948 -3.349,-5.302"
     id="path456" />
  <path
     style="fill:none;stroke:#231f20;stroke-width:0.565977;stroke-linecap:butt;stroke-linejoin:miter;stroke-miterlimit:4;stroke-dasharray:none;stroke-opacity:1"
     d="m 327.14875,122.08285 c -1.276,-0.317 -2.839,0.178 -4.161,2.026 -0.859,1.199 -0.99,2.552 -0.604,4.057 0.026,1.043 0.073,1.666 0.734,2.136 0.058,0.041 0.12,0.093 0.178,0.15 0.27,0.522 0.572,1.047 0.932,1.594 l 6.27,-4.661 c 0.454,-2.848 -1.932,-4.948 -3.349,-5.302 z"
     id="path457" />
  <path
     style="fill:#231f20;fill-opacity:1;fill-rule:nonzero;stroke:none"
     d="m 306.22775,93.853855 c -0.073,0.64 1.031,2.245 1.364,3.817 0.224,1.063 1.844,3.281995 1.991,4.354995 0.134,0.984 0.285,1.421 1.442,1.463 0.676,0.026 2.009,-0.369 2.052,-0.88 0.099,-1.187 -0.204,-2.088 -0.745,-3.005995 -0.62,-1.052 -2.541,-3.744 -2.937,-4.213 -1,-1.145 -1.031,-1.886 -1.266,-2.213 -0.442,-0.62 -0.792,-0.604 -1.256,-0.407 -0.88,0.381 -0.645,1.084 -0.645,1.084"
     id="path458" />
  <path
     style="fill:none;stroke:#231f20;stroke-width:0.565977;stroke-linecap:butt;stroke-linejoin:miter;stroke-miterlimit:4;stroke-dasharray:none;stroke-opacity:1"
     d="m 306.22775,93.853855 c -0.073,0.64 1.031,2.245 1.364,3.817 0.224,1.063 1.844,3.281995 1.991,4.354995 0.134,0.984 0.285,1.421 1.442,1.463 0.676,0.026 2.009,-0.369 2.052,-0.88 0.099,-1.187 -0.204,-2.088 -0.745,-3.005995 -0.62,-1.052 -2.541,-3.744 -2.937,-4.213 -1,-1.145 -1.031,-1.886 -1.266,-2.213 -0.442,-0.62 -0.792,-0.604 -1.256,-0.407 -0.88,0.381 -0.645,1.084 -0.645,1.084 z"
     id="path459" />
  <path
     style="fill:#231f20;fill-opacity:1;fill-rule:nonzero;stroke:none"
     d="m 310.25275,101.96885 c -1.088,0.702 0.308,2.186 0.609,2.63 0.308,0.452 1.043,1.823 1.47,2.968 0.437,1.146 1.464,2.386 2.292,4.563 0.437,1.145 1.577,1.979 3.213,1.281 1.615,-0.698 1.828,-1.865 1.093,-3.167 -0.734,-1.307 -1.973,-2.218 -2.806,-3.483 -0.834,-1.262 -1.563,-2.626 -2.084,-3.719 -0.594,-1.251 -1.348,-1.647 -1.828,-1.626 -1.192,0.047 -1.959,0.553 -1.959,0.553"
     id="path460" />
  <path
     style="fill:none;stroke:#231f20;stroke-width:0.565977;stroke-linecap:butt;stroke-linejoin:miter;stroke-miterlimit:4;stroke-dasharray:none;stroke-opacity:1"
     d="m 310.25275,101.96885 c -1.088,0.702 0.308,2.186 0.609,2.63 0.308,0.452 1.043,1.823 1.47,2.968 0.437,1.146 1.464,2.386 2.292,4.563 0.437,1.145 1.577,1.979 3.213,1.281 1.615,-0.698 1.828,-1.865 1.093,-3.167 -0.734,-1.307 -1.973,-2.218 -2.806,-3.483 -0.834,-1.262 -1.563,-2.626 -2.084,-3.719 -0.594,-1.251 -1.348,-1.647 -1.828,-1.626 -1.192,0.047 -1.959,0.553 -1.959,0.553 z"
     id="path461" />
  <path
     style="fill:#ffffff;fill-opacity:1;fill-rule:nonzero;stroke:none"
     d="m 306.18675,90.102855 c 0.994,-0.244 2.005,0.366 2.244,1.366 0.245,1 -0.364,2.005 -1.364,2.249 -1,0.24 -2.006,-0.369 -2.246,-1.369 -0.244,-1 0.366,-2 1.366,-2.246"
     id="path462" />
  <path
     style="fill:none;stroke:#231f20;stroke-width:1.33171;stroke-linecap:butt;stroke-linejoin:miter;stroke-miterlimit:4;stroke-dasharray:none;stroke-opacity:1"
     d="m 306.18675,90.102855 c 0.994,-0.244 2.005,0.366 2.244,1.366 0.245,1 -0.364,2.005 -1.364,2.249 -1,0.24 -2.006,-0.369 -2.246,-1.369 -0.244,-1 0.366,-2 1.366,-2.246 z"
     id="path463" />
  <path
     style="fill:#231f20;fill-opacity:1;fill-rule:nonzero;stroke:none"
     d="m 139.06175,108.76585 c -2.084,-0.876 -2.37,-1.334 -2.058,-2.24 0.208,-0.61 0.192,-1.235 0.303,-1.61 0.364,-1.239 1.495,-3.188 6.119,-7.864995 1.052,-1.057 2.516,-2.557 3.068,-3.224 0.87,-1.036 2.01,1.11 1.672,1.527 -1.079,1.328 -1.714,2.328 -2.042,2.859 -0.218,0.37 -0.704,0.953 -1.38,2.478995 -1.026,2.312 -1.297,3.845 -2.376,5.667 -0.5,0.844 -0.337,1.796 -1.254,2.375 -0.912,0.589 -2.052,0.032 -2.052,0.032"
     id="path464" />
  <path
     style="fill:none;stroke:#231f20;stroke-width:0.565977;stroke-linecap:butt;stroke-linejoin:miter;stroke-miterlimit:4;stroke-dasharray:none;stroke-opacity:1"
     d="m 139.06175,108.76585 c -2.084,-0.876 -2.37,-1.334 -2.058,-2.24 0.208,-0.61 0.192,-1.235 0.303,-1.61 0.364,-1.239 1.495,-3.188 6.119,-7.864995 1.052,-1.057 2.516,-2.557 3.068,-3.224 0.87,-1.036 2.01,1.11 1.672,1.527 -1.079,1.328 -1.714,2.328 -2.042,2.859 -0.218,0.37 -0.704,0.953 -1.38,2.478995 -1.026,2.312 -1.297,3.845 -2.376,5.667 -0.5,0.844 -0.337,1.796 -1.254,2.375 -0.912,0.589 -2.052,0.032 -2.052,0.032 z"
     id="path465" />
  <path
     style="fill:#231f20;fill-opacity:1;fill-rule:nonzero;stroke:#231f20;stroke-width:0.565977;stroke-linecap:round;stroke-linejoin:round;stroke-miterlimit:4;stroke-dasharray:none;stroke-opacity:1"
     d="m 141.33775,107.71785 c 0.525,1.324 -0.948,2.885 -1.052,3.204 -1.527,4.781 -1.756,5.088 -3.167,8.64 -2.041,5.136 -4.229,8.333 -7.563,8.027 -2.265,-0.219 -3.473,-1.323 -3.844,-2.585 -0.405,-1.405 0.219,-4.519 2.912,-5.557 l 1.031,-1.369 c 0.584,-1.011 0.875,-1.5 1.12,-2.027 0.427,-0.9 0.937,-1.842 1.88,-3.566 1.656,-3.053 4.401,-5.735 4.401,-5.735 0.156,-0.276 0.386,-0.432 0.642,-0.522"
     id="path466" />
  <path
     style="fill:#231f20;fill-opacity:1;fill-rule:nonzero;stroke:none"
     d="m 147.08675,91.817855 c -1.337,0.167 -1.577,1.124 -1.119,2.052 0.14,0.281 -0.037,0.661 0.119,0.921 0.365,0.599 2.073,0.964 2.74,-0.38 0.041,-0.093 0.609,-0.688 0.959,-1.198 0.697,-0.995 1.593,-3.323 0.484,-5.786 -0.526,-1.161 -1.115,-0.63 -1.047,-0.1 0.224,1.699 -0.083,1.891 -0.192,2.36 -0.339,1.588 -1.944,2.131 -1.944,2.131"
     id="path467" />
  <path
     style="fill:none;stroke:#231f20;stroke-width:0.332927;stroke-linecap:butt;stroke-linejoin:miter;stroke-miterlimit:4;stroke-dasharray:none;stroke-opacity:1"
     d="m 147.08675,91.817855 c -1.337,0.167 -1.577,1.124 -1.119,2.052 0.14,0.281 -0.037,0.661 0.119,0.921 0.365,0.599 2.073,0.964 2.74,-0.38 0.041,-0.093 0.609,-0.688 0.959,-1.198 0.697,-0.995 1.593,-3.323 0.484,-5.786 -0.526,-1.161 -1.115,-0.63 -1.047,-0.1 0.224,1.699 -0.083,1.891 -0.192,2.36 -0.339,1.588 -1.944,2.131 -1.944,2.131 z"
     id="path468" />
  <path
     style="fill:#0098c9;fill-opacity:1;fill-rule:nonzero;stroke:#231f20;stroke-width:0.565977;stroke-linecap:butt;stroke-linejoin:miter;stroke-miterlimit:4;stroke-dasharray:none;stroke-opacity:1"
     d="m 128.48775,119.49385 c -2.686,1.068 -3.26,4.198 -2.838,5.595 0.381,1.26 1.614,2.353 3.876,2.536 2.64,0.218 4.53,-1.755 6.181,-5.136 z"
     id="path469" />
  <path
     style="fill:none;stroke:#231f20;stroke-width:1.33171;stroke-linecap:round;stroke-linejoin:round;stroke-miterlimit:4;stroke-dasharray:none;stroke-opacity:1"
     d="M 0.66585496,0.67185499 V 11.504855"
     id="path1640" />
  <path
     style="fill:none;stroke:#231f20;stroke-width:1.33171;stroke-linecap:round;stroke-linejoin:round;stroke-miterlimit:4;stroke-dasharray:none;stroke-opacity:1"
     d="M 16.832455,0.66585499 V 11.509855"
     id="path1642" />
  <path
     style="fill:none;stroke:#231f20;stroke-width:1.33171;stroke-linecap:round;stroke-linejoin:round;stroke-miterlimit:4;stroke-dasharray:none;stroke-opacity:1"
     d="m 20.477655,5.197855 3.8709,6.375"
     id="path1644" />
</svg>
