<?xml version="1.0" encoding="UTF-8" standalone="no"?>
<!-- Created with Inkscape (http://www.inkscape.org/) -->

<svg
   version="1.1"
   id="svg1"
   width="282.25253"
   height="116.92145"
   viewBox="0 0 282.25252 116.92145"
   sodipodi:docname="cell.svg"
   xmlns:inkscape="http://www.inkscape.org/namespaces/inkscape"
   xmlns:sodipodi="http://sodipodi.sourceforge.net/DTD/sodipodi-0.dtd"
   xmlns="http://www.w3.org/2000/svg"
   xmlns:svg="http://www.w3.org/2000/svg">
  <sodipodi:namedview
     id="namedview1"
     pagecolor="#ffffff"
     bordercolor="#000000"
     borderopacity="0.25"
     inkscape:showpageshadow="2"
     inkscape:pageopacity="0.0"
     inkscape:pagecheckerboard="0"
     inkscape:deskcolor="#d1d1d1">
    <inkscape:page
       x="2.7195213e-07"
       y="0"
       inkscape:label="1"
       id="page1"
       width="282.25253"
       height="116.92145"
       margin="0"
       bleed="0" />
  </sodipodi:namedview>
  <defs
     id="defs1" />
  <path
     style="fill:#231f20;fill-opacity:1;fill-rule:nonzero;stroke:none"
     d="m 174.207,77.139894 c -0.645,0.021 -2.145,-1.219 -3.688,-1.687 -1.036,-0.318 -3.109,-2.12 -4.166,-2.354 -0.968,-0.219 -1.396,-0.407 -1.334,-1.563 0.038,-0.683 0.543,-1.969 1.052,-1.969 1.194,0 2.063,0.381 2.934,1 0.994,0.704 3.509,2.849 3.942,3.286 1.058,1.095 1.786,1.194 2.094,1.454 0.582,0.494 0.536,0.838 0.302,1.281 -0.453,0.849 -1.136,0.552 -1.136,0.552"
     id="path871" />
  <path
     style="fill:none;stroke:#231f20;stroke-width:0.565977;stroke-linecap:butt;stroke-linejoin:miter;stroke-miterlimit:4;stroke-dasharray:none;stroke-opacity:1"
     d="m 174.207,77.139894 c -0.645,0.021 -2.145,-1.219 -3.688,-1.687 -1.036,-0.318 -3.109,-2.12 -4.166,-2.354 -0.968,-0.219 -1.396,-0.407 -1.334,-1.563 0.038,-0.683 0.543,-1.969 1.052,-1.969 1.194,0 2.063,0.381 2.934,1 0.994,0.704 3.509,2.849 3.942,3.286 1.058,1.095 1.786,1.194 2.094,1.454 0.582,0.494 0.536,0.838 0.302,1.281 -0.453,0.849 -1.136,0.552 -1.136,0.552 z"
     id="path872" />
  <path
     style="fill:#231f20;fill-opacity:1;fill-rule:nonzero;stroke:none"
     d="m 166.462,72.431894 c -0.781,1.031 -2.145,-0.489 -2.561,-0.833 -0.423,-0.35 -1.73,-1.194 -2.83,-1.719 -1.109,-0.536 -2.254,-1.667 -4.348,-2.677 -1.104,-0.526 -1.844,-1.746 -1,-3.307 0.828,-1.548 2.01,-1.663 3.244,-0.819 1.24,0.839 2.043,2.156 3.23,3.095 1.182,0.937 2.484,1.776 3.526,2.4 1.198,0.693 1.526,1.48 1.463,1.953 -0.151,1.188 -0.724,1.907 -0.724,1.907"
     id="path873" />
  <path
     style="fill:none;stroke:#231f20;stroke-width:0.565977;stroke-linecap:butt;stroke-linejoin:miter;stroke-miterlimit:4;stroke-dasharray:none;stroke-opacity:1"
     d="m 166.462,72.431894 c -0.781,1.031 -2.145,-0.489 -2.561,-0.833 -0.423,-0.35 -1.73,-1.194 -2.83,-1.719 -1.109,-0.536 -2.254,-1.667 -4.348,-2.677 -1.104,-0.526 -1.844,-1.746 -1,-3.307 0.828,-1.548 2.01,-1.663 3.244,-0.819 1.24,0.839 2.043,2.156 3.23,3.095 1.182,0.937 2.484,1.776 3.526,2.4 1.198,0.693 1.526,1.48 1.463,1.953 -0.151,1.188 -0.724,1.907 -0.724,1.907 z"
     id="path874" />
  <path
     style="fill:#231f20;fill-opacity:1;fill-rule:nonzero;stroke:none"
     d="m 179.937,80.019894 c -0.308,-0.667 -2.584,-2.979 -3.136,-3.484 -0.479,-0.459 -1.036,-1.473 -2.11,-1.052 -0.437,0.172 -0.948,0.724 -1.098,1.016 -0.12,0.224 0.041,0.515 0.354,0.755 0.52,0.406 0.839,0.317 1.886,1.041 0,0 0.281,0.136 0.79,0.339 1.5,0.625 0.896,0.213 2.882,1.604 0.134,0.1 0.338,0.026 0.4,-0.067 0.089,-0.161 0.032,-0.152 0.032,-0.152"
     id="path875" />
  <path
     style="fill:none;stroke:#231f20;stroke-width:0.565977;stroke-linecap:round;stroke-linejoin:round;stroke-miterlimit:4;stroke-dasharray:none;stroke-opacity:1"
     d="m 179.937,80.019894 c -0.308,-0.667 -2.584,-2.979 -3.136,-3.484 -0.479,-0.459 -1.036,-1.473 -2.11,-1.052 -0.437,0.172 -0.948,0.724 -1.098,1.016 -0.12,0.224 0.041,0.515 0.354,0.755 0.52,0.406 0.839,0.317 1.886,1.041 0,0 0.281,0.136 0.79,0.339 1.5,0.625 0.896,0.213 2.882,1.604 0.134,0.1 0.338,0.026 0.4,-0.067 0.089,-0.161 0.032,-0.152 0.032,-0.152 z"
     id="path876" />
  <path
     style="fill:#231f20;fill-opacity:1;fill-rule:nonzero;stroke:none"
     d="m 60.645,65.952894 c 0.719,-1.141 1.693,-0.942 2.333,-0.13 0.199,0.24 0.61,0.249 0.782,0.5 0.39,0.588 -0.016,2.281 -1.516,2.306 -0.104,0.006 -0.88,0.262 -1.495,0.36 -1.192,0.203 -3.683,0.022 -5.432,-2.032 -0.828,-0.973 -0.099,-1.28 0.36,-0.994 1.437,0.933 1.744,0.734 2.213,0.833 1.578,0.365 2.755,-0.843 2.755,-0.843"
     id="path883" />
  <path
     style="fill:none;stroke:#231f20;stroke-width:0.332927;stroke-linecap:butt;stroke-linejoin:miter;stroke-miterlimit:4;stroke-dasharray:none;stroke-opacity:1"
     d="m 60.645,65.952894 c 0.719,-1.141 1.693,-0.942 2.333,-0.13 0.199,0.24 0.61,0.249 0.782,0.5 0.39,0.588 -0.016,2.281 -1.516,2.306 -0.104,0.006 -0.88,0.262 -1.495,0.36 -1.192,0.203 -3.683,0.022 -5.432,-2.032 -0.828,-0.973 -0.099,-1.28 0.36,-0.994 1.437,0.933 1.744,0.734 2.213,0.833 1.578,0.365 2.755,-0.843 2.755,-0.843 z"
     id="path884" />
  <path
     style="fill:#231f20;fill-opacity:1;fill-rule:nonzero;stroke:none"
     d="m 79.396003,65.936894 c 0.093,-2.26 -0.188,-2.713 -1.147,-2.817 -0.635,-0.068 -1.197,-0.355 -1.577,-0.417 -1.287,-0.198 -3.522,-0.011 -9.730003,2.177 -1.406,0.5 -3.39,1.183 -4.224,1.396 -1.313,0.344 0.14,2.291 0.662,2.161 1.666,-0.406 2.833,-0.557 3.458,-0.62 0.427,-0.046 1.167,-0.229 2.828,-0.188 2.531003,0.058 4.031003,0.464 6.140003,0.271 0.98,-0.093 1.771,0.464 2.683,-0.119 0.921,-0.573 0.907,-1.844 0.907,-1.844"
     id="path885" />
  <path
     style="fill:none;stroke:#231f20;stroke-width:0.565977;stroke-linecap:butt;stroke-linejoin:miter;stroke-miterlimit:4;stroke-dasharray:none;stroke-opacity:1"
     d="m 79.396003,65.936894 c 0.093,-2.26 -0.188,-2.713 -1.147,-2.817 -0.635,-0.068 -1.197,-0.355 -1.577,-0.417 -1.287,-0.198 -3.522,-0.011 -9.730003,2.177 -1.406,0.5 -3.39,1.183 -4.224,1.396 -1.313,0.344 0.14,2.291 0.662,2.161 1.666,-0.406 2.833,-0.557 3.458,-0.62 0.427,-0.046 1.167,-0.229 2.828,-0.188 2.531003,0.058 4.031003,0.464 6.140003,0.271 0.98,-0.093 1.771,0.464 2.683,-0.119 0.921,-0.573 0.907,-1.844 0.907,-1.844 z"
     id="path886" />
  <path
     style="fill:#0098c9;fill-opacity:1;fill-rule:nonzero;stroke:none"
     d="m 105.937,62.322894 c -3.104,-0.418 -3.724,-0.85 -4.516,-1.323 -4.963997,-2.964 -6.327997,-0.475 -6.186997,2.405 0.151,3.391 0.14,4.61 6.431997,4.86 1.749,0.068 8.427,1.214 8.427,1.214 2.333,0.729 5,0.198 5.973,-0.886 1.027,-1.145 0.537,-0.765 1.292,-1.994 0.724,-1.172 0.765,-3.36 -0.167,-4.178 -0.885,-0.786 -2.473,-0.276 -4.858,0.162 -1.88,0.344 -6.396,-0.26 -6.396,-0.26"
     id="path887" />
  <path
     style="fill:none;stroke:#231f20;stroke-width:0.565977;stroke-linecap:butt;stroke-linejoin:miter;stroke-miterlimit:4;stroke-dasharray:none;stroke-opacity:1"
     d="m 105.937,62.322894 c -3.104,-0.418 -3.724,-0.85 -4.516,-1.323 -4.963997,-2.964 -6.327997,-0.475 -6.186997,2.405 0.151,3.391 0.14,4.61 6.431997,4.86 1.749,0.068 8.427,1.214 8.427,1.214 2.333,0.729 5,0.198 5.973,-0.886 1.027,-1.145 0.537,-0.765 1.292,-1.994 0.724,-1.172 0.765,-3.36 -0.167,-4.178 -0.885,-0.786 -2.473,-0.276 -4.858,0.162 -1.88,0.344 -6.396,-0.26 -6.396,-0.26 z"
     id="path888" />
  <path
     style="fill:#ffffff;fill-opacity:1;fill-rule:nonzero;stroke:none"
     d="m 123.713,68.306894 c 0.24,0.041 0.338,1.188 0.858,1.177 0.527,-0.005 0.719,-0.765 2.506,-1.641 l 0.021,-0.01 c 1.328,-0.594 2.24,-1.641 2.323,-2.896 0.141,-2.073 -2.026,-3.906 -4.844,-4.098 -2.818,-0.194 -5.214,1.328 -5.359,3.4 -0.141,1.985 1.848,3.75 4.495,4.068"
     id="path889" />
  <path
     style="fill:none;stroke:#231f20;stroke-width:0.565977;stroke-linecap:butt;stroke-linejoin:miter;stroke-miterlimit:4;stroke-dasharray:none;stroke-opacity:1"
     d="m 123.713,68.306894 c 0.24,0.041 0.338,1.188 0.858,1.177 0.527,-0.005 0.719,-0.765 2.506,-1.641 l 0.021,-0.01 c 1.328,-0.594 2.24,-1.641 2.323,-2.896 0.141,-2.073 -2.026,-3.906 -4.844,-4.098 -2.818,-0.194 -5.214,1.328 -5.359,3.4 -0.141,1.985 1.848,3.75 4.495,4.068 z"
     id="path890" />
  <path
     style="fill:#231f20;fill-opacity:1;fill-rule:nonzero;stroke:none"
     d="m 77.014003,65.275894 c -0.514,3.973 3.339,2.629 3.814,2.692 4.968,0.661 5.338,0.584 9.155,0.823 5.516,0.349 9.35,-0.26 10.489997,-3.411 0.77,-2.136 0.292,-3.703 -0.691997,-4.579 -1.1,-0.962 -4.178,-1.734 -6.271,0.262 l -1.677,0.348 c -1.156,0.094 -1.73,0.146 -2.308,0.146 -1,0 -2.072,0.063 -4.025,0.172 -3.475,0.192 -7.074,1.536 -7.074,1.536 -1.24,0.099 -1.412,2.011 -1.412,2.011"
     id="path891" />
  <path
     style="fill:none;stroke:#231f20;stroke-width:0.565977;stroke-linecap:butt;stroke-linejoin:miter;stroke-miterlimit:4;stroke-dasharray:none;stroke-opacity:1"
     d="m 77.014003,65.275894 c -0.514,3.973 3.339,2.629 3.814,2.692 4.968,0.661 5.338,0.584 9.155,0.823 5.516,0.349 9.35,-0.26 10.489997,-3.411 0.77,-2.136 0.292,-3.703 -0.691997,-4.579 -1.1,-0.962 -4.178,-1.734 -6.271,0.262 l -1.677,0.348 c -1.156,0.094 -1.73,0.146 -2.308,0.146 -1,0 -2.072,0.063 -4.025,0.172 -3.475,0.192 -7.074,1.536 -7.074,1.536 -1.24,0.099 -1.412,2.011 -1.412,2.011 z"
     id="path892" />
  <path
     style="fill:#0098c9;fill-opacity:1;fill-rule:nonzero;stroke:none"
     d="m 93.166003,61.686894 1.031,7.745 c 0.646,-0.125 1.234,-0.276 1.797,-0.443 0.077,0 0.156,0.006 0.229,0.022 0.791,0.145 1.276,-0.256 2.036,-0.959 1.35,-0.771 2.229997,-1.813 2.494997,-3.265 0.401,-2.235 -0.328,-3.699 -1.447997,-4.396 -1.24,-0.771 -4.411,-1.022 -6.14,1.296"
     id="path893" />
  <path
     style="fill:none;stroke:#231f20;stroke-width:0.565977;stroke-linecap:butt;stroke-linejoin:miter;stroke-miterlimit:4;stroke-dasharray:none;stroke-opacity:1"
     d="m 93.166003,61.686894 1.031,7.745 c 0.646,-0.125 1.234,-0.276 1.797,-0.443 0.077,0 0.156,0.006 0.229,0.022 0.791,0.145 1.276,-0.256 2.036,-0.959 1.35,-0.771 2.229997,-1.813 2.494997,-3.265 0.401,-2.235 -0.328,-3.699 -1.447997,-4.396 -1.24,-0.771 -4.411,-1.022 -6.14,1.296 z"
     id="path894" />
  <path
     style="fill:#231f20;fill-opacity:1;fill-rule:nonzero;stroke:none"
     d="m 109.811,84.920894 c -0.26,-0.588 0.334,-2.448 0.194,-4.046 -0.095,-1.084 0.806,-3.678 0.629,-4.751 -0.161,-0.979 -0.14,-1.443 0.948,-1.817 0.647,-0.219 2.032,-0.23 2.224,0.25 0.437,1.104 0.417,2.052 0.167,3.088 -0.287,1.183 -1.339,4.323 -1.583,4.88 -0.62,1.391 -0.433,2.104 -0.563,2.49 -0.245,0.724 -0.584,0.813 -1.084,0.756 -0.953,-0.104 -0.932,-0.85 -0.932,-0.85"
     id="path895" />
  <path
     style="fill:none;stroke:#231f20;stroke-width:0.565977;stroke-linecap:butt;stroke-linejoin:miter;stroke-miterlimit:4;stroke-dasharray:none;stroke-opacity:1"
     d="m 109.811,84.920894 c -0.26,-0.588 0.334,-2.448 0.194,-4.046 -0.095,-1.084 0.806,-3.678 0.629,-4.751 -0.161,-0.979 -0.14,-1.443 0.948,-1.817 0.647,-0.219 2.032,-0.23 2.224,0.25 0.437,1.104 0.417,2.052 0.167,3.088 -0.287,1.183 -1.339,4.323 -1.583,4.88 -0.62,1.391 -0.433,2.104 -0.563,2.49 -0.245,0.724 -0.584,0.813 -1.084,0.756 -0.953,-0.104 -0.932,-0.85 -0.932,-0.85 z"
     id="path896" />
  <path
     style="fill:#231f20;fill-opacity:1;fill-rule:nonzero;stroke:none"
     d="m 111.295,75.983894 c -1.249,-0.349 -0.348,-2.177 -0.186,-2.688 0.166,-0.52 0.462,-2.052 0.541,-3.271 0.083,-1.218 0.703,-2.713 0.86,-5.03 0.083,-1.224 0.932,-2.36 2.703,-2.162 1.74,0.192 2.286,1.244 1.964,2.708 -0.314,1.459 -1.24,2.698 -1.663,4.146 -0.432,1.453 -0.728,2.969 -0.911,4.172 -0.204,1.37 -0.813,1.969 -1.276,2.084 -1.156,0.301 -2.032,0.041 -2.032,0.041"
     id="path897" />
  <path
     style="fill:none;stroke:#231f20;stroke-width:0.565977;stroke-linecap:butt;stroke-linejoin:miter;stroke-miterlimit:4;stroke-dasharray:none;stroke-opacity:1"
     d="m 111.295,75.983894 c -1.249,-0.349 -0.348,-2.177 -0.186,-2.688 0.166,-0.52 0.462,-2.052 0.541,-3.271 0.083,-1.218 0.703,-2.713 0.86,-5.03 0.083,-1.224 0.932,-2.36 2.703,-2.162 1.74,0.192 2.286,1.244 1.964,2.708 -0.314,1.459 -1.24,2.698 -1.663,4.146 -0.432,1.453 -0.728,2.969 -0.911,4.172 -0.204,1.37 -0.813,1.969 -1.276,2.084 -1.156,0.301 -2.032,0.041 -2.032,0.041 z"
     id="path898" />
  <path
     style="fill:#231f20;fill-opacity:1;fill-rule:nonzero;stroke:none"
     d="m 278.899,11.530894 c -1.2,0.609 -1.1,1.593 -0.35,2.312 0.22,0.215 0.19,0.631 0.42,0.824 0.55,0.443 2.27,0.203 2.45,-1.287 0.01,-0.104 0.33,-0.854 0.5,-1.453 0.31,-1.172 0.37,-3.6670005 -1.51,-5.6040005 -0.9,-0.917 -1.27,-0.219 -1.02,0.26 0.78,1.521 0.56,1.808 0.62,2.281 0.21,1.6100005 -1.11,2.6670005 -1.11,2.6670005"
     id="path899" />
  <path
     style="fill:none;stroke:#231f20;stroke-width:0.332927;stroke-linecap:butt;stroke-linejoin:miter;stroke-miterlimit:4;stroke-dasharray:none;stroke-opacity:1"
     d="m 278.899,11.530894 c -1.2,0.609 -1.1,1.593 -0.35,2.312 0.22,0.215 0.19,0.631 0.42,0.824 0.55,0.443 2.27,0.203 2.45,-1.287 0.01,-0.104 0.33,-0.854 0.5,-1.453 0.31,-1.172 0.37,-3.6670005 -1.51,-5.6040005 -0.9,-0.917 -1.27,-0.219 -1.02,0.26 0.78,1.521 0.56,1.808 0.62,2.281 0.21,1.6100005 -1.11,2.6670005 -1.11,2.6670005 z"
     id="path900" />
  <path
     style="fill:#231f20;fill-opacity:1;fill-rule:nonzero;stroke:none"
     d="m 277.099,30.196894 c -2.26,-0.125 -2.68,-0.448 -2.69,-1.41 -0.01,-0.636 -0.24,-1.23 -0.27,-1.615 -0.08,-1.292 0.33,-3.505 3.09,-9.48 0.63,-1.348 1.5,-3.254 1.79,-4.068 0.47,-1.27 2.27,0.36 2.09,0.866 -0.56,1.62 -0.82,2.77 -0.94,3.385 -0.09,0.416 -0.34,1.14 -0.46,2.803 -0.18,2.519 0.08,4.051 -0.31,6.134 -0.19,0.964 0.29,1.803 -0.38,2.656 -0.66,0.865 -1.92,0.729 -1.92,0.729"
     id="path901" />
  <path
     style="fill:none;stroke:#231f20;stroke-width:0.565977;stroke-linecap:butt;stroke-linejoin:miter;stroke-miterlimit:4;stroke-dasharray:none;stroke-opacity:1"
     d="m 277.099,30.196894 c -2.26,-0.125 -2.68,-0.448 -2.69,-1.41 -0.01,-0.636 -0.24,-1.23 -0.27,-1.615 -0.08,-1.292 0.33,-3.505 3.09,-9.48 0.63,-1.348 1.5,-3.254 1.79,-4.068 0.47,-1.27 2.27,0.36 2.09,0.866 -0.56,1.62 -0.82,2.77 -0.94,3.385 -0.09,0.416 -0.34,1.14 -0.46,2.803 -0.18,2.519 0.08,4.051 -0.31,6.134 -0.19,0.964 0.29,1.803 -0.38,2.656 -0.66,0.865 -1.92,0.729 -1.92,0.729 z"
     id="path902" />
  <path
     style="fill:#0098c9;fill-opacity:1;fill-rule:nonzero;stroke:none"
     d="m 270.979,56.270894 c -0.13,-3.131 -0.5,-3.787 -0.89,-4.62 -2.48,-5.224 0.13,-6.339 2.98,-5.932 3.36,0.478 4.58,0.582 4.23,6.869 -0.1,1.751 0.4,8.5 0.4,8.5 0.51,2.396 -0.27,5 -1.45,5.865 -1.24,0.911 -0.81,0.458 -2.1,1.094 -1.24,0.609 -3.42,0.442 -4.14,-0.563 -0.7,-0.959 -0.05,-2.489 0.61,-4.817 0.53,-1.844 0.36,-6.396 0.36,-6.396"
     id="path903" />
  <path
     style="fill:none;stroke:#231f20;stroke-width:0.565977;stroke-linecap:butt;stroke-linejoin:miter;stroke-miterlimit:4;stroke-dasharray:none;stroke-opacity:1"
     d="m 270.979,56.270894 c -0.13,-3.131 -0.5,-3.787 -0.89,-4.62 -2.48,-5.224 0.13,-6.339 2.98,-5.932 3.36,0.478 4.58,0.582 4.23,6.869 -0.1,1.751 0.4,8.5 0.4,8.5 0.51,2.396 -0.27,5 -1.45,5.865 -1.24,0.911 -0.81,0.458 -2.1,1.094 -1.24,0.609 -3.42,0.442 -4.14,-0.563 -0.7,-0.959 -0.05,-2.489 0.61,-4.817 0.53,-1.844 0.36,-6.396 0.36,-6.396 z"
     id="path904" />
  <path
     style="fill:#ffffff;fill-opacity:1;fill-rule:nonzero;stroke:none"
     d="m 271.249,75.270894 c -0.18,0.177 0.4,1.177 -0.04,1.468 -0.43,0.292 -1.03,-0.23 -3,0.068 l -0.01,0.005 c -1.43,0.265 -2.78,-0.079 -3.57,-1.063 -1.29,-1.62 -0.55,-4.364 1.66,-6.125 2.21,-1.76 5.04,-1.869 6.34,-0.249 1.24,1.552 0.61,4.134 -1.38,5.896"
     id="path905" />
  <path
     style="fill:none;stroke:#231f20;stroke-width:0.565977;stroke-linecap:butt;stroke-linejoin:miter;stroke-miterlimit:4;stroke-dasharray:none;stroke-opacity:1"
     d="m 271.249,75.270894 c -0.18,0.177 0.4,1.177 -0.04,1.468 -0.43,0.292 -1.03,-0.23 -3,0.068 l -0.01,0.005 c -1.43,0.265 -2.78,-0.079 -3.57,-1.063 -1.29,-1.62 -0.55,-4.364 1.66,-6.125 2.21,-1.76 5.04,-1.869 6.34,-0.249 1.24,1.552 0.61,4.134 -1.38,5.896 z"
     id="path906" />
  <path
     style="fill:#231f20;fill-opacity:1;fill-rule:nonzero;stroke:none"
     d="m 276.669,27.764894 c 4.01,-0.141 2.3,3.574 2.31,4.047 0.19,5.011 0.08,5.375 -0.05,9.193 -0.18,5.526 -1.15,9.282 -4.39,10.119 -2.2,0.563 -3.72,-0.067 -4.49,-1.129 -0.86,-1.178 -1.34,-4.323 0.86,-6.219 l 0.5,-1.631 c 0.2,-1.145 0.31,-1.708 0.37,-2.281 0.09,-1 0.25,-2.063 0.55,-3.995 0.52,-3.437 2.2,-6.89 2.2,-6.89 0.22,-1.23 2.14,-1.214 2.14,-1.214"
     id="path907" />
  <path
     style="fill:none;stroke:#231f20;stroke-width:0.565977;stroke-linecap:butt;stroke-linejoin:miter;stroke-miterlimit:4;stroke-dasharray:none;stroke-opacity:1"
     d="m 276.669,27.764894 c 4.01,-0.141 2.3,3.574 2.31,4.047 0.19,5.011 0.08,5.375 -0.05,9.193 -0.18,5.526 -1.15,9.282 -4.39,10.119 -2.2,0.563 -3.72,-0.067 -4.49,-1.129 -0.86,-1.178 -1.34,-4.323 0.86,-6.219 l 0.5,-1.631 c 0.2,-1.145 0.31,-1.708 0.37,-2.281 0.09,-1 0.25,-2.063 0.55,-3.995 0.52,-3.437 2.2,-6.89 2.2,-6.89 0.22,-1.23 2.14,-1.214 2.14,-1.214 z"
     id="path908" />
  <path
     style="fill:#0098c9;fill-opacity:1;fill-rule:nonzero;stroke:none"
     d="m 279.169,45.259894 -7.61,-1.76 c -2.47,1.5 -2.52,4.676 -1.88,5.989 0.59,1.183 1.98,2.047 4.24,1.855 1.47,-0.12 2.59,-0.896 3.49,-2.168 0.77,-0.692 1.22,-1.135 1.14,-1.943 0,-0.066 0,-0.145 0.01,-0.228 0.22,-0.542 0.42,-1.114 0.61,-1.745"
     id="path909" />
  <path
     style="fill:none;stroke:#231f20;stroke-width:0.565977;stroke-linecap:butt;stroke-linejoin:miter;stroke-miterlimit:4;stroke-dasharray:none;stroke-opacity:1"
     d="m 279.169,45.259894 -7.61,-1.76 c -2.47,1.5 -2.52,4.676 -1.88,5.989 0.59,1.183 1.98,2.047 4.24,1.855 1.47,-0.12 2.59,-0.896 3.49,-2.168 0.77,-0.692 1.22,-1.135 1.14,-1.943 0,-0.066 0,-0.145 0.01,-0.228 0.22,-0.542 0.42,-1.114 0.61,-1.745 z"
     id="path910" />
  <path
     style="fill:#231f20;fill-opacity:1;fill-rule:nonzero;stroke:none"
     d="m 271.009,85.874894 c 0.43,-0.479 0.44,-2.427 1.07,-3.912 0.41,-1 0.36,-3.744 0.85,-4.708 0.46,-0.886 0.58,-1.334 -0.34,-2.022 -0.55,-0.41 -1.86,-0.848 -2.19,-0.452 -0.75,0.916 -1.03,1.823 -1.11,2.891 -0.09,1.213 -0.06,4.52 0,5.135 0.17,1.51 -0.23,2.136 -0.22,2.541 0,0.756 0.3,0.943 0.79,1.048 0.94,0.192 1.15,-0.521 1.15,-0.521"
     id="path911" />
  <path
     style="fill:none;stroke:#231f20;stroke-width:0.565977;stroke-linecap:butt;stroke-linejoin:miter;stroke-miterlimit:4;stroke-dasharray:none;stroke-opacity:1"
     d="m 271.009,85.874894 c 0.43,-0.479 0.44,-2.427 1.07,-3.912 0.41,-1 0.36,-3.744 0.85,-4.708 0.46,-0.886 0.58,-1.334 -0.34,-2.022 -0.55,-0.41 -1.86,-0.848 -2.19,-0.452 -0.75,0.916 -1.03,1.823 -1.11,2.891 -0.09,1.213 -0.06,4.52 0,5.135 0.17,1.51 -0.23,2.136 -0.22,2.541 0,0.756 0.3,0.943 0.79,1.048 0.94,0.192 1.15,-0.521 1.15,-0.521 z"
     id="path912" />
  <path
     style="fill:#231f20;fill-opacity:1;fill-rule:nonzero;stroke:none"
     d="m 272.349,76.915894 c 1.3,0.052 1,-1.968 1,-2.505 0.01,-0.547 0.19,-2.094 0.49,-3.276 0.3,-1.187 0.17,-2.796 0.73,-5.052 0.3,-1.187 -0.16,-2.531 -1.9,-2.886 -1.72,-0.354 -2.56,0.48 -2.71,1.97 -0.14,1.489 0.36,2.948 0.32,4.462 -0.05,1.511 -0.23,3.043 -0.42,4.246 -0.24,1.358 0.17,2.12 0.57,2.374 1.01,0.647 1.92,0.667 1.92,0.667"
     id="path913" />
  <path
     style="fill:none;stroke:#231f20;stroke-width:0.565977;stroke-linecap:butt;stroke-linejoin:miter;stroke-miterlimit:4;stroke-dasharray:none;stroke-opacity:1"
     d="m 272.349,76.915894 c 1.3,0.052 1,-1.968 1,-2.505 0.01,-0.547 0.19,-2.094 0.49,-3.276 0.3,-1.187 0.17,-2.796 0.73,-5.052 0.3,-1.187 -0.16,-2.531 -1.9,-2.886 -1.72,-0.354 -2.56,0.48 -2.71,1.97 -0.14,1.489 0.36,2.948 0.32,4.462 -0.05,1.511 -0.23,3.043 -0.42,4.246 -0.24,1.358 0.17,2.12 0.57,2.374 1.01,0.647 1.92,0.667 1.92,0.667 z"
     id="path914" />
  <path
     style="fill:#231f20;fill-opacity:1;fill-rule:nonzero;stroke:none"
     d="m 241.469,74.311894 c 0.36,-0.536 0.11,-2.469 0.54,-4.021 0.28,-1.047 -0.13,-3.76 0.24,-4.782 0.33,-0.932 0.4,-1.394 -0.61,-1.957 -0.59,-0.333 -1.95,-0.595 -2.22,-0.156 -0.64,1.009 -0.79,1.937 -0.73,3.004 0.06,1.215 0.53,4.491 0.67,5.089 0.36,1.484 0.05,2.146 0.11,2.552 0.11,0.75 0.42,0.902 0.93,0.938 0.95,0.068 1.07,-0.667 1.07,-0.667"
     id="path915" />
  <path
     style="fill:none;stroke:#231f20;stroke-width:0.565977;stroke-linecap:butt;stroke-linejoin:miter;stroke-miterlimit:4;stroke-dasharray:none;stroke-opacity:1"
     d="m 241.469,74.311894 c 0.36,-0.536 0.11,-2.469 0.54,-4.021 0.28,-1.047 -0.13,-3.76 0.24,-4.782 0.33,-0.932 0.4,-1.394 -0.61,-1.957 -0.59,-0.333 -1.95,-0.595 -2.22,-0.156 -0.64,1.009 -0.79,1.937 -0.73,3.004 0.06,1.215 0.53,4.491 0.67,5.089 0.36,1.484 0.05,2.146 0.11,2.552 0.11,0.75 0.42,0.902 0.93,0.938 0.95,0.068 1.07,-0.667 1.07,-0.667 z"
     id="path916" />
  <path
     style="fill:#231f20;fill-opacity:1;fill-rule:nonzero;stroke:none"
     d="m 241.829,64.748894 c 1.16,-0.562 -0.03,-2.208 -0.28,-2.686 -0.25,-0.486 -0.81,-1.939 -1.1,-3.12 -0.28,-1.194 -1.15,-2.552 -1.7,-4.819 -0.29,-1.192 -1.32,-2.161 -3.03,-1.671 -1.69,0.495 -2.05,1.619 -1.48,3.01 0.57,1.385 1.69,2.442 2.35,3.802 0.68,1.355 1.23,2.802 1.61,3.954 0.43,1.306 1.14,1.792 1.61,1.838 1.2,0.094 2.02,-0.308 2.02,-0.308"
     id="path917" />
  <path
     style="fill:none;stroke:#231f20;stroke-width:0.565977;stroke-linecap:butt;stroke-linejoin:miter;stroke-miterlimit:4;stroke-dasharray:none;stroke-opacity:1"
     d="m 241.829,64.748894 c 1.16,-0.562 -0.03,-2.208 -0.28,-2.686 -0.25,-0.486 -0.81,-1.939 -1.1,-3.12 -0.28,-1.194 -1.15,-2.552 -1.7,-4.819 -0.29,-1.192 -1.32,-2.161 -3.03,-1.671 -1.69,0.495 -2.05,1.619 -1.48,3.01 0.57,1.385 1.69,2.442 2.35,3.802 0.68,1.355 1.23,2.802 1.61,3.954 0.43,1.306 1.14,1.792 1.61,1.838 1.2,0.094 2.02,-0.308 2.02,-0.308 z"
     id="path918" />
  <path
     style="fill:#231f20;fill-opacity:1;fill-rule:nonzero;stroke:none"
     d="m 225.029,76.707894 c -0.03,-0.645 -1.36,-2.068 -1.92,-3.573 -0.38,-1.02 -2.308,-2.974 -2.61,-4.015 -0.276,-0.953 -0.494,-1.365 -1.641,-1.235 -0.677,0.083 -1.932,0.667 -1.901,1.178 0.078,1.186 0.51,2.03 1.177,2.864 0.771,0.942 3.068,3.328 3.532,3.724 1.163,0.994 1.303,1.718 1.583,2.005 0.53,0.552 0.87,0.484 1.29,0.219 0.82,-0.506 0.49,-1.167 0.49,-1.167"
     id="path919" />
  <path
     style="fill:none;stroke:#231f20;stroke-width:0.565977;stroke-linecap:butt;stroke-linejoin:miter;stroke-miterlimit:4;stroke-dasharray:none;stroke-opacity:1"
     d="m 225.029,76.707894 c -0.03,-0.645 -1.36,-2.068 -1.92,-3.573 -0.38,-1.02 -2.308,-2.974 -2.61,-4.015 -0.276,-0.953 -0.494,-1.365 -1.641,-1.235 -0.677,0.083 -1.932,0.667 -1.901,1.178 0.078,1.186 0.51,2.03 1.177,2.864 0.771,0.942 3.068,3.328 3.532,3.724 1.163,0.994 1.303,1.718 1.583,2.005 0.53,0.552 0.87,0.484 1.29,0.219 0.82,-0.506 0.49,-1.167 0.49,-1.167 z"
     id="path920" />
  <path
     style="fill:#231f20;fill-opacity:1;fill-rule:nonzero;stroke:none"
     d="m 219.129,70.223894 c 1.234,0.411 1.5,-1.609 1.652,-2.125 0.156,-0.527 0.76,-1.964 1.369,-3.016 0.619,-1.063 0.929,-2.646 2.089,-4.662 0.62,-1.062 0.55,-2.473 -1.03,-3.292 -1.559,-0.817 -2.6,-0.249 -3.152,1.147 -0.547,1.396 -0.47,2.932 -0.928,4.375 -0.452,1.437 -1.047,2.869 -1.562,3.964 -0.594,1.249 -0.417,2.088 -0.105,2.442 0.792,0.896 1.667,1.167 1.667,1.167"
     id="path921" />
  <path
     style="fill:none;stroke:#231f20;stroke-width:0.565977;stroke-linecap:butt;stroke-linejoin:miter;stroke-miterlimit:4;stroke-dasharray:none;stroke-opacity:1"
     d="m 219.129,70.223894 c 1.234,0.411 1.5,-1.609 1.652,-2.125 0.156,-0.527 0.76,-1.964 1.369,-3.016 0.619,-1.063 0.929,-2.646 2.089,-4.662 0.62,-1.062 0.55,-2.473 -1.03,-3.292 -1.559,-0.817 -2.6,-0.249 -3.152,1.147 -0.547,1.396 -0.47,2.932 -0.928,4.375 -0.452,1.437 -1.047,2.869 -1.562,3.964 -0.594,1.249 -0.417,2.088 -0.105,2.442 0.792,0.896 1.667,1.167 1.667,1.167 z"
     id="path922" />
  <path
     style="fill:#231f20;fill-opacity:1;fill-rule:nonzero;stroke:none"
     d="m 227.869,82.207894 c -0.65,-0.328 -2.87,-2.693 -3.36,-3.26 -0.43,-0.5 -1.42,-1.095 -0.96,-2.152 0.18,-0.432 0.76,-0.921 1.05,-1.063 0.24,-0.109 0.51,0.058 0.75,0.387 0.38,0.541 0.28,0.843 0.96,1.927 0,0 0.13,0.281 0.31,0.796 0.57,1.526 0.18,0.912 1.49,2.944 0.1,0.14 0.01,0.342 -0.08,0.394 -0.16,0.084 -0.16,0.027 -0.16,0.027"
     id="path923" />
  <path
     style="fill:none;stroke:#231f20;stroke-width:0.565977;stroke-linecap:round;stroke-linejoin:round;stroke-miterlimit:4;stroke-dasharray:none;stroke-opacity:1"
     d="m 227.869,82.207894 c -0.65,-0.328 -2.87,-2.693 -3.36,-3.26 -0.43,-0.5 -1.42,-1.095 -0.96,-2.152 0.18,-0.432 0.76,-0.921 1.05,-1.063 0.24,-0.109 0.51,0.058 0.75,0.387 0.38,0.541 0.28,0.843 0.96,1.927 0,0 0.13,0.281 0.31,0.796 0.57,1.526 0.18,0.912 1.49,2.944 0.1,0.14 0.01,0.342 -0.08,0.394 -0.16,0.084 -0.16,0.027 -0.16,0.027 z"
     id="path924" />
  <path
     style="fill:#231f20;fill-opacity:1;fill-rule:nonzero;stroke:none"
     d="m 241.249,80.920894 c 0.26,-0.677 0.34,-3.921 0.32,-4.672 -0.01,-0.661 0.34,-1.765 -0.72,-2.244 -0.42,-0.193 -1.18,-0.182 -1.49,-0.089 -0.25,0.073 -0.34,0.391 -0.29,0.787 0.06,0.656 0.35,0.817 0.56,2.078 0,0 0.09,0.291 0.3,0.802 0.6,1.516 0.48,0.797 0.86,3.182 0.02,0.167 0.22,0.266 0.32,0.246 0.18,-0.048 0.14,-0.09 0.14,-0.09"
     id="path925" />
  <path
     style="fill:none;stroke:#231f20;stroke-width:0.565977;stroke-linecap:round;stroke-linejoin:round;stroke-miterlimit:4;stroke-dasharray:none;stroke-opacity:1"
     d="m 241.249,80.920894 c 0.26,-0.677 0.34,-3.921 0.32,-4.672 -0.01,-0.661 0.34,-1.765 -0.72,-2.244 -0.42,-0.193 -1.18,-0.182 -1.49,-0.089 -0.25,0.073 -0.34,0.391 -0.29,0.787 0.06,0.656 0.35,0.817 0.56,2.078 0,0 0.09,0.291 0.3,0.802 0.6,1.516 0.48,0.797 0.86,3.182 0.02,0.167 0.22,0.266 0.32,0.246 0.18,-0.048 0.14,-0.09 0.14,-0.09 z"
     id="path926" />
  <path
     style="fill:none;stroke:#231f20;stroke-width:0.399514;stroke-linecap:butt;stroke-linejoin:miter;stroke-miterlimit:4;stroke-dasharray:none;stroke-opacity:1"
     d="m 231.309,23.374894 c -26.435,-1.74 -27.987,11.453 -20.643,15.562"
     id="path927" />
  <path
     style="fill:#231f20;fill-opacity:1;fill-rule:nonzero;stroke:none"
     d="m 211.718,39.524894 c -0.599,-0.088 -1.385,-0.12 -1.953,-0.005 l 0.765,-0.656 0.161,-1 c 0.199,0.547 0.636,1.203 1.027,1.661"
     id="path928" />
  <path
     style="fill:#231f20;fill-opacity:1;fill-rule:nonzero;stroke:none"
     d="m 233.769,63.983894 c 0.1,-2.823 -1.49,-5.172 -3.57,-5.251 -2.07,-0.077 -3.84,2.147 -3.95,4.97 -0.1,2.822 1.49,5.177 3.57,5.25 2.07,0.083 3.84,-2.141 3.95,-4.969"
     id="path929" />
  <path
     style="fill:none;stroke:#231f20;stroke-width:0.565977;stroke-linecap:butt;stroke-linejoin:miter;stroke-miterlimit:4;stroke-dasharray:none;stroke-opacity:1"
     d="m 233.769,63.983894 c 0.1,-2.823 -1.49,-5.172 -3.57,-5.251 -2.07,-0.077 -3.84,2.147 -3.95,4.97 -0.1,2.822 1.49,5.177 3.57,5.25 2.07,0.083 3.84,-2.141 3.95,-4.969 z"
     id="path930" />
  <path
     style="fill:#231f20;fill-opacity:1;fill-rule:nonzero;stroke:none"
     d="m 222.689,43.452894 c -3.419,1.156 -3.638,-0.51 -5.856,-3.928 -2.428,-3.744 -4.558,-7.905 -5.142,-11.156 -0.656,-3.63 -1.166,-3.713 0.334,-4.912 1.505,-1.186 2.005,-0.593 3.25,-0.265 1.443,0.371 3.104,7.541 5.834,11.432 1.28,1.824 5.52,5.365 4.56,6.453 -0.97,1.09 -2.98,2.376 -2.98,2.376"
     id="path931" />
  <path
     style="fill:none;stroke:#231f20;stroke-width:0.565977;stroke-linecap:butt;stroke-linejoin:miter;stroke-miterlimit:4;stroke-dasharray:none;stroke-opacity:1"
     d="m 222.689,43.452894 c -3.419,1.156 -3.638,-0.51 -5.856,-3.928 -2.428,-3.744 -4.558,-7.905 -5.142,-11.156 -0.656,-3.63 -1.166,-3.713 0.334,-4.912 1.505,-1.186 2.005,-0.593 3.25,-0.265 1.443,0.371 3.104,7.541 5.834,11.432 1.28,1.824 5.52,5.365 4.56,6.453 -0.97,1.09 -2.98,2.376 -2.98,2.376 z"
     id="path932" />
  <path
     style="fill:#231f20;fill-opacity:1;fill-rule:nonzero;stroke:none"
     d="m 213.869,24.759894 c -1.916,1.193 -2.464,1.573 -3.432,-0.735 -0.251,-0.588 -0.818,-2.27 -1.063,-2.571 -0.807,-1.022 -1.656,-2.267 -2.817,-8.746 -0.178,-1.005 -0.85,-2.8650005 -1.214,-4.2180005 -0.354,-1.314 2.062,-1.011 2.208,-0.5 0.463,1.656 1.12,2.6200005 1.37,3.1820005 0.166,0.395 0.369,1.176 1.38,2.495 2.609,3.391 2.156,5.129 2.641,5.885 1.396,2.178 3.036,3.749 2.635,4.287 -0.635,0.874 -1.708,0.921 -1.708,0.921"
     id="path933" />
  <path
     style="fill:none;stroke:#231f20;stroke-width:0.565977;stroke-linecap:butt;stroke-linejoin:miter;stroke-miterlimit:4;stroke-dasharray:none;stroke-opacity:1"
     d="m 213.869,24.759894 c -1.916,1.193 -2.464,1.573 -3.432,-0.735 -0.251,-0.588 -0.818,-2.27 -1.063,-2.571 -0.807,-1.022 -1.656,-2.267 -2.817,-8.746 -0.178,-1.005 -0.85,-2.8650005 -1.214,-4.2180005 -0.354,-1.314 2.062,-1.011 2.208,-0.5 0.463,1.656 1.12,2.6200005 1.37,3.1820005 0.166,0.395 0.369,1.176 1.38,2.495 2.609,3.391 2.156,5.129 2.641,5.885 1.396,2.178 3.036,3.749 2.635,4.287 -0.635,0.874 -1.708,0.921 -1.708,0.921 z"
     id="path934" />
  <path
     style="fill:#231f20;fill-opacity:1;fill-rule:nonzero;stroke:none"
     d="m 228.119,40.410894 c 2.91,-2.135 1.67,-3.271 0.13,-7.047 -1.68,-4.131 -3.88,-8.265 -6.203,-10.599 -2.604,-2.609 -2.38,-3.078 -4.219,-2.535 -1.838,0.546 -1.641,1.301 -2.089,2.509 -0.509,1.401 4.417,6.865 6.048,11.328 0.763,2.089 1.243,7.594 2.683,7.428 1.44,-0.167 3.65,-1.084 3.65,-1.084"
     id="path935" />
  <path
     style="fill:none;stroke:#231f20;stroke-width:0.565977;stroke-linecap:butt;stroke-linejoin:miter;stroke-miterlimit:4;stroke-dasharray:none;stroke-opacity:1"
     d="m 228.119,40.410894 c 2.91,-2.135 1.67,-3.271 0.13,-7.047 -1.68,-4.131 -3.88,-8.265 -6.203,-10.599 -2.604,-2.609 -2.38,-3.078 -4.219,-2.535 -1.838,0.546 -1.641,1.301 -2.089,2.509 -0.509,1.401 4.417,6.865 6.048,11.328 0.763,2.089 1.243,7.594 2.683,7.428 1.44,-0.167 3.65,-1.084 3.65,-1.084 z"
     id="path936" />
  <path
     style="fill:#231f20;fill-opacity:1;fill-rule:nonzero;stroke:none"
     d="m 217.858,22.483894 c 2.079,-0.896 2.693,-1.136 1.349,-3.245 -0.344,-0.536 -1.412,-1.957 -1.521,-2.333 -0.375,-1.239 -0.916,-2.646 -5.593,-7.2820005 -0.73,-0.718 -1.875,-2.328 -2.787,-3.394 -0.88,-1.032 -2.005,1.118 -1.661,1.53 1.093,1.323 1.516,2.4120005 1.844,2.9380005 0.229,0.365 0.76,0.969 1.27,2.557 1.303,4.068 3,4.677 3.344,5.511 1,2.38 1.359,4.625 2.031,4.603 1.084,-0.03 1.724,-0.885 1.724,-0.885"
     id="path937" />
  <path
     style="fill:none;stroke:#231f20;stroke-width:0.565977;stroke-linecap:butt;stroke-linejoin:miter;stroke-miterlimit:4;stroke-dasharray:none;stroke-opacity:1"
     d="m 217.858,22.483894 c 2.079,-0.896 2.693,-1.136 1.349,-3.245 -0.344,-0.536 -1.412,-1.957 -1.521,-2.333 -0.375,-1.239 -0.916,-2.646 -5.593,-7.2820005 -0.73,-0.718 -1.875,-2.328 -2.787,-3.394 -0.88,-1.032 -2.005,1.118 -1.661,1.53 1.093,1.323 1.516,2.4120005 1.844,2.9380005 0.229,0.365 0.76,0.969 1.27,2.557 1.303,4.068 3,4.677 3.344,5.511 1,2.38 1.359,4.625 2.031,4.603 1.084,-0.03 1.724,-0.885 1.724,-0.885 z"
     id="path938" />
  <path
     style="fill:#231f20;fill-opacity:1;fill-rule:nonzero;stroke:none"
     d="m 208.295,2.8588935 c 0.543,0.396 0.12,2.152 1.032,3.891 0.187,0.36 0.172,0.734 0.219,1.104 0.172,1.5 -0.495,2.9530005 -3.079,0.125 -0.353,-0.391 -1.005,-2.391 -1.572,-2.921 -1.37,-1.271 -1.344,-4.59499997 -0.838,-4.71399997 1.088,-0.261 4.238,2.51499997 4.238,2.51499997"
     id="path939" />
  <path
     style="fill:none;stroke:#231f20;stroke-width:0.644548;stroke-linecap:round;stroke-linejoin:round;stroke-miterlimit:4;stroke-dasharray:none;stroke-opacity:1"
     d="m 208.295,2.8588935 c 0.543,0.396 0.12,2.152 1.032,3.891 0.187,0.36 0.172,0.734 0.219,1.104 0.172,1.5 -0.495,2.9530005 -3.079,0.125 -0.353,-0.391 -1.005,-2.391 -1.572,-2.921 -1.37,-1.271 -1.344,-4.59499997 -0.838,-4.71399997 1.088,-0.261 4.238,2.51499997 4.238,2.51499997 z"
     id="path940" />
  <path
     style="fill:#231f20;fill-opacity:1;fill-rule:nonzero;stroke:none"
     d="m 202.822,5.6508935 c -0.016,0.667 1.64,1.38 2.484,3.161 0.177,0.364 0.484,0.574 0.756,0.834 1.093,1.0410005 2.656,1.3800005 1.948,-2.38 -0.1,-0.522 -1.303,-2.24 -1.391,-3.022 -0.193,-1.853 -2.865,-3.83299997 -3.266,-3.49399997 -0.854,0.70799997 -0.531,4.90099997 -0.531,4.90099997"
     id="path941" />
  <path
     style="fill:none;stroke:#231f20;stroke-width:0.644548;stroke-linecap:round;stroke-linejoin:round;stroke-miterlimit:4;stroke-dasharray:none;stroke-opacity:1"
     d="m 202.822,5.6508935 c -0.016,0.667 1.64,1.38 2.484,3.161 0.177,0.364 0.484,0.574 0.756,0.834 1.093,1.0410005 2.656,1.3800005 1.948,-2.38 -0.1,-0.522 -1.303,-2.24 -1.391,-3.022 -0.193,-1.853 -2.865,-3.83299997 -3.266,-3.49399997 -0.854,0.70799997 -0.531,4.90099997 -0.531,4.90099997 z"
     id="path942" />
  <path
     style="fill:#231f20;fill-opacity:1;fill-rule:nonzero;stroke:none"
     d="m 219.494,39.904894 c 0.645,0.324 3.875,0.719 4.615,0.776 0.67,0.063 1.73,0.506 2.31,-0.5 0.23,-0.4 0.29,-1.156 0.23,-1.468 -0.05,-0.25 -0.35,-0.38 -0.75,-0.374 -0.67,0.009 -0.86,0.27 -2.12,0.364 0,0 -0.31,0.062 -0.83,0.213 -1.57,0.453 -0.84,0.401 -3.252,0.547 -0.178,0.01 -0.292,0.193 -0.271,0.308 0.027,0.177 0.068,0.134 0.068,0.134"
     id="path943" />
  <path
     style="fill:none;stroke:#231f20;stroke-width:0.565977;stroke-linecap:round;stroke-linejoin:round;stroke-miterlimit:4;stroke-dasharray:none;stroke-opacity:1"
     d="m 219.494,39.904894 c 0.645,0.324 3.875,0.719 4.615,0.776 0.67,0.063 1.73,0.506 2.31,-0.5 0.23,-0.4 0.29,-1.156 0.23,-1.468 -0.05,-0.25 -0.35,-0.38 -0.75,-0.374 -0.67,0.009 -0.86,0.27 -2.12,0.364 0,0 -0.31,0.062 -0.83,0.213 -1.57,0.453 -0.84,0.401 -3.252,0.547 -0.178,0.01 -0.292,0.193 -0.271,0.308 0.027,0.177 0.068,0.134 0.068,0.134 z"
     id="path944" />
  <path
     style="fill:#0098c9;fill-opacity:1;fill-rule:nonzero;stroke:none"
     d="m 235.109,51.478894 c -0.91,-0.979 -3.36,-5.459 -4.17,-8.604 -0.18,-0.724 0.62,-2.995 -0.05,-1.943 l -0.35,0.068 c -3,-0.833 -5.04,-6.313 -5.04,-6.313 0,0 -0.69,-0.276 -1.17,-0.162 -0.48,0.115 -0.98,0.672 -0.98,0.672 0,0 0.66,5.808 -1.636,7.907 l -0.35,0.099 c -1.077,-0.631 0.672,1.03 0.828,1.754 0.698,3.178 0.538,8.276 0.168,9.563 -0.512,1.761 -2.897,2.855 -1.428,4.437 0,0 1.026,1.658 3.648,0.658 0.96,-0.355 3.27,-0.178 3.27,-0.178 0,0 1.34,0.235 2.47,-0.016 1.01,-0.218 1.92,-0.921 2.1,-1.073 h 0.01 c 0,0 1.98,-1.208 2.99,-1.317 2.8,-0.298 2.85,-2.484 2.85,-2.484 0.59,-2.084 -1.91,-1.73 -3.16,-3.068"
     id="path945" />
  <path
     style="fill:none;stroke:#231f20;stroke-width:0.565977;stroke-linecap:butt;stroke-linejoin:miter;stroke-miterlimit:4;stroke-dasharray:none;stroke-opacity:1"
     d="m 235.109,51.478894 c -0.91,-0.979 -3.36,-5.459 -4.17,-8.604 -0.18,-0.724 0.62,-2.995 -0.05,-1.943 l -0.35,0.068 c -3,-0.833 -5.04,-6.313 -5.04,-6.313 0,0 -0.69,-0.276 -1.17,-0.162 -0.48,0.115 -0.98,0.672 -0.98,0.672 0,0 0.66,5.808 -1.636,7.907 l -0.35,0.099 c -1.077,-0.631 0.672,1.03 0.828,1.754 0.698,3.178 0.538,8.276 0.168,9.563 -0.512,1.761 -2.897,2.855 -1.428,4.437 0,0 1.026,1.658 3.648,0.658 0.96,-0.355 3.27,-0.178 3.27,-0.178 0,0 1.34,0.235 2.47,-0.016 1.01,-0.218 1.92,-0.921 2.1,-1.073 h 0.01 c 0,0 1.98,-1.208 2.99,-1.317 2.8,-0.298 2.85,-2.484 2.85,-2.484 0.59,-2.084 -1.91,-1.73 -3.16,-3.068 z"
     id="path946" />
  <path
     style="fill:#0098c9;fill-opacity:1;fill-rule:nonzero;stroke:none"
     d="m 231.199,42.030894 c 0.07,-0.344 0.16,-1.708 0.15,-2.172 -0.14,-2.963 -1.84,-6.531 -2.12,-7.776 -0.26,-1.25 -6.24,1.521 -6.24,1.521 l -0.21,1.453 c -0.588,-0.214 -0.17,0.072 -0.17,0.072 l -1.402,-0.812 c 0,0 -5.989,2.432 -5.437,3.287 0.755,1.167 2.735,5.353 4.516,7.031 0.984,0.922 1.963,1.208 1.963,1.208 0,0 2.87,-2.484 4.18,-3.072 1.3,-0.584 4.77,-0.74 4.77,-0.74"
     id="path947" />
  <path
     style="fill:none;stroke:#231f20;stroke-width:0.565977;stroke-linecap:butt;stroke-linejoin:miter;stroke-miterlimit:4;stroke-dasharray:none;stroke-opacity:1"
     d="m 231.199,42.030894 c 0.07,-0.344 0.16,-1.708 0.15,-2.172 -0.14,-2.963 -1.84,-6.531 -2.12,-7.776 -0.26,-1.25 -6.24,1.521 -6.24,1.521 l -0.21,1.453 c -0.588,-0.214 -0.17,0.072 -0.17,0.072 l -1.402,-0.812 c 0,0 -5.989,2.432 -5.437,3.287 0.755,1.167 2.735,5.353 4.516,7.031 0.984,0.922 1.963,1.208 1.963,1.208 0,0 2.87,-2.484 4.18,-3.072 1.3,-0.584 4.77,-0.74 4.77,-0.74 z"
     id="path948" />
  <path
     style="fill:none;stroke:#231f20;stroke-width:0.565977;stroke-linecap:round;stroke-linejoin:round;stroke-miterlimit:4;stroke-dasharray:none;stroke-opacity:1"
     d="m 225.799,34.175894 c -1.71,-0.588 -3.09,1.084 -3.09,1.084 -1.824,0.12 -2.824,1.375 -2.824,1.375"
     id="path949" />
  <path
     style="fill:#231f20;fill-opacity:1;fill-rule:nonzero;stroke:none"
     d="m 162.989,10.863894 c 0.994,0.918 0.625,1.834 -0.298,2.323 -0.26,0.147 -0.348,0.552 -0.625,0.672 -0.651,0.276 -2.249,-0.421 -2,-1.901 0.016,-0.104 -0.093,-0.916 -0.088,-1.542 0.021,-1.2080005 0.651,-3.6250005 2.989,-4.9680005 1.104,-0.641 1.276,0.135 0.907,0.52 -1.172,1.251 -1.031,1.59 -1.219,2.032 -0.641,1.49 0.334,2.8640005 0.334,2.8640005"
     id="path950" />
  <path
     style="fill:none;stroke:#231f20;stroke-width:0.332927;stroke-linecap:butt;stroke-linejoin:miter;stroke-miterlimit:4;stroke-dasharray:none;stroke-opacity:1"
     d="m 162.989,10.863894 c 0.994,0.918 0.625,1.834 -0.298,2.323 -0.26,0.147 -0.348,0.552 -0.625,0.672 -0.651,0.276 -2.249,-0.421 -2,-1.901 0.016,-0.104 -0.093,-0.916 -0.088,-1.542 0.021,-1.2080005 0.651,-3.6250005 2.989,-4.9680005 1.104,-0.641 1.276,0.135 0.907,0.52 -1.172,1.251 -1.031,1.59 -1.219,2.032 -0.641,1.49 0.334,2.8640005 0.334,2.8640005 z"
     id="path951" />
  <path
     style="fill:#231f20;fill-opacity:1;fill-rule:nonzero;stroke:none"
     d="m 159.619,29.311894 c 2.203,0.505 2.703,0.308 2.974,-0.62 0.188,-0.609 0.568,-1.109 0.693,-1.479 0.432,-1.224 0.651,-3.458 -0.376,-9.963 -0.239,-1.474 -0.552,-3.542 -0.615,-4.407 -0.098,-1.348 -2.276,-0.271 -2.244,0.267 0.099,1.708 0.036,2.885 -0.016,3.514 -0.03,0.423 0.016,1.183 -0.322,2.819 -0.516,2.468 -1.194,3.874 -1.375,5.984 -0.089,0.978 -0.781,1.656 -0.371,2.661 0.396,1.011 1.652,1.224 1.652,1.224"
     id="path952" />
  <path
     style="fill:none;stroke:#231f20;stroke-width:0.565977;stroke-linecap:butt;stroke-linejoin:miter;stroke-miterlimit:4;stroke-dasharray:none;stroke-opacity:1"
     d="m 159.619,29.311894 c 2.203,0.505 2.703,0.308 2.974,-0.62 0.188,-0.609 0.568,-1.109 0.693,-1.479 0.432,-1.224 0.651,-3.458 -0.376,-9.963 -0.239,-1.474 -0.552,-3.542 -0.615,-4.407 -0.098,-1.348 -2.276,-0.271 -2.244,0.267 0.099,1.708 0.036,2.885 -0.016,3.514 -0.03,0.423 0.016,1.183 -0.322,2.819 -0.516,2.468 -1.194,3.874 -1.375,5.984 -0.089,0.978 -0.781,1.656 -0.371,2.661 0.396,1.011 1.652,1.224 1.652,1.224 z"
     id="path953" />
  <path
     style="fill:#0098c9;fill-opacity:1;fill-rule:nonzero;stroke:none"
     d="m 159.926,55.671894 c 0.391,-3.105 0.807,-3.735 1.276,-4.532 2.912,-4.995 0.401,-6.328 -2.473,-6.161 -3.386,0.193 -4.61,0.193 -4.798,6.489 -0.041,1.751 -1.109,8.437 -1.109,8.437 -0.708,2.35 -0.145,5.006 0.948,5.97 1.156,1.01 0.776,0.521 2.011,1.265 1.176,0.708 3.369,0.724 4.176,-0.208 0.772,-0.901 0.245,-2.484 -0.219,-4.86 -0.364,-1.875 0.188,-6.4 0.188,-6.4"
     id="path954" />
  <path
     style="fill:none;stroke:#231f20;stroke-width:0.565977;stroke-linecap:butt;stroke-linejoin:miter;stroke-miterlimit:4;stroke-dasharray:none;stroke-opacity:1"
     d="m 159.926,55.671894 c 0.391,-3.105 0.807,-3.735 1.276,-4.532 2.912,-4.995 0.401,-6.328 -2.473,-6.161 -3.386,0.193 -4.61,0.193 -4.798,6.489 -0.041,1.751 -1.109,8.437 -1.109,8.437 -0.708,2.35 -0.145,5.006 0.948,5.97 1.156,1.01 0.776,0.521 2.011,1.265 1.176,0.708 3.369,0.724 4.176,-0.208 0.772,-0.901 0.245,-2.484 -0.219,-4.86 -0.364,-1.875 0.188,-6.4 0.188,-6.4 z"
     id="path955" />
  <path
     style="fill:#231f20;fill-opacity:1;fill-rule:nonzero;stroke:none"
     d="m 160.697,27.087894 c -3.818,-1.219 -3.187,2.812 -3.334,3.265 -1.552,4.767 -1.546,5.147 -2.468,8.855 -1.333,5.364 -1.433,9.245 1.458,10.937 1.958,1.146 3.594,0.959 4.63,0.146 1.14,-0.9 2.464,-3.796 0.88,-6.219 l -0.041,-1.708 c 0.115,-1.156 0.167,-1.735 0.271,-2.297 0.188,-0.984 0.317,-2.047 0.562,-3.99 0.432,-3.448 -0.234,-7.234 -0.234,-7.234 0.13,-1.239 -1.724,-1.755 -1.724,-1.755"
     id="path956" />
  <path
     style="fill:none;stroke:#231f20;stroke-width:0.565977;stroke-linecap:butt;stroke-linejoin:miter;stroke-miterlimit:4;stroke-dasharray:none;stroke-opacity:1"
     d="m 160.697,27.087894 c -3.818,-1.219 -3.187,2.812 -3.334,3.265 -1.552,4.767 -1.546,5.147 -2.468,8.855 -1.333,5.364 -1.433,9.245 1.458,10.937 1.958,1.146 3.594,0.959 4.63,0.146 1.14,-0.9 2.464,-3.796 0.88,-6.219 l -0.041,-1.708 c 0.115,-1.156 0.167,-1.735 0.271,-2.297 0.188,-0.984 0.317,-2.047 0.562,-3.99 0.432,-3.448 -0.234,-7.234 -0.234,-7.234 0.13,-1.239 -1.724,-1.755 -1.724,-1.755 z"
     id="path957" />
  <path
     style="fill:#0098c9;fill-opacity:1;fill-rule:nonzero;stroke:none"
     d="m 153.557,45.306894 c 0.025,-0.068 0.041,-0.146 0.062,-0.224 -0.062,-0.583 -0.109,-1.187 -0.114,-1.844 l 7.806,0.39 c 1.964,2.12 1.142,5.194 0.162,6.271 -0.886,0.975 -2.463,1.433 -4.583,0.625 -1.38,-0.52 -2.245,-1.568 -2.761,-3.03 -0.552,-0.886 -0.87,-1.432 -0.572,-2.188"
     id="path958" />
  <path
     style="fill:none;stroke:#231f20;stroke-width:0.565977;stroke-linecap:butt;stroke-linejoin:miter;stroke-miterlimit:4;stroke-dasharray:none;stroke-opacity:1"
     d="m 153.557,45.306894 c 0.025,-0.068 0.041,-0.146 0.062,-0.224 -0.062,-0.583 -0.109,-1.187 -0.114,-1.844 l 7.806,0.39 c 1.964,2.12 1.142,5.194 0.162,6.271 -0.886,0.975 -2.463,1.433 -4.583,0.625 -1.38,-0.52 -2.245,-1.568 -2.761,-3.03 -0.552,-0.886 -0.87,-1.432 -0.572,-2.188 z"
     id="path959" />
  <path
     style="fill:none;stroke:#231f20;stroke-width:0.399514;stroke-linecap:butt;stroke-linejoin:miter;stroke-miterlimit:4;stroke-dasharray:none;stroke-opacity:1"
     d="m 148.395,20.858894 c 26.395,-2.177 28.167,10.984 20.895,15.218"
     id="path960" />
  <path
     style="fill:#231f20;fill-opacity:1;fill-rule:nonzero;stroke:none"
     d="m 168.249,36.680894 c 0.385,-0.462 0.813,-1.129 1,-1.676 l 0.182,0.995 0.771,0.645 c -0.568,-0.109 -1.355,-0.068 -1.953,0.036"
     id="path961" />
  <path
     style="fill:#ffffff;fill-opacity:1;fill-rule:nonzero;stroke:none"
     d="m 234.469,85.363894 c 0.95,0.385 1.41,1.469 1.03,2.423 -0.39,0.952 -1.46,1.416 -2.42,1.03 -0.95,-0.38 -1.42,-1.464 -1.03,-2.421 0.38,-0.948 1.46,-1.417 2.42,-1.032"
     id="path962" />
  <path
     style="fill:none;stroke:#231f20;stroke-width:1.33171;stroke-linecap:butt;stroke-linejoin:miter;stroke-miterlimit:4;stroke-dasharray:none;stroke-opacity:1"
     d="m 234.469,85.363894 c 0.95,0.385 1.41,1.469 1.03,2.423 -0.39,0.952 -1.46,1.416 -2.42,1.03 -0.95,-0.38 -1.42,-1.464 -1.03,-2.421 0.38,-0.948 1.46,-1.417 2.42,-1.032 z"
     id="path963" />
  <path
     style="fill:#ffffff;fill-opacity:1;fill-rule:nonzero;stroke:none"
     d="m 111.953,87.936894 c -0.579,0.85 -1.735,1.068 -2.584,0.49 -0.85,-0.579 -1.068,-1.74 -0.49,-2.584 0.578,-0.848 1.735,-1.072 2.588,-0.49 0.844,0.579 1.068,1.735 0.486,2.584"
     id="path964" />
  <path
     style="fill:none;stroke:#231f20;stroke-width:1.33171;stroke-linecap:butt;stroke-linejoin:miter;stroke-miterlimit:4;stroke-dasharray:none;stroke-opacity:1"
     d="m 111.953,87.936894 c -0.579,0.85 -1.735,1.068 -2.584,0.49 -0.85,-0.579 -1.068,-1.74 -0.49,-2.584 0.578,-0.848 1.735,-1.072 2.588,-0.49 0.844,0.579 1.068,1.735 0.486,2.584 z"
     id="path965" />
  <path
     style="fill:#ffffff;fill-opacity:1;fill-rule:nonzero;stroke:none"
     d="m 270.879,85.363894 c 0.95,0.385 1.41,1.469 1.03,2.423 -0.38,0.952 -1.46,1.416 -2.42,1.03 -0.95,-0.38 -1.42,-1.464 -1.03,-2.421 0.38,-0.948 1.46,-1.417 2.42,-1.032"
     id="path966" />
  <path
     style="fill:none;stroke:#231f20;stroke-width:1.33171;stroke-linecap:butt;stroke-linejoin:miter;stroke-miterlimit:4;stroke-dasharray:none;stroke-opacity:1"
     d="m 270.879,85.363894 c 0.95,0.385 1.41,1.469 1.03,2.423 -0.38,0.952 -1.46,1.416 -2.42,1.03 -0.95,-0.38 -1.42,-1.464 -1.03,-2.421 0.38,-0.948 1.46,-1.417 2.42,-1.032 z"
     id="path967" />
  <path
     style="fill:#ffffff;fill-opacity:1;fill-rule:nonzero;stroke:none"
     d="m 154.863,74.056894 c 0.115,0.219 -0.724,1.006 -0.401,1.411 0.333,0.412 1.052,0.084 2.839,0.948 l 0.026,0.011 c 1.287,0.677 2.672,0.745 3.708,0.036 1.724,-1.167 1.823,-4.006 0.235,-6.339 -1.589,-2.337 -4.271,-3.281 -5.989,-2.109 -1.647,1.109 -1.808,3.772 -0.418,6.042"
     id="path968" />
  <path
     style="fill:none;stroke:#231f20;stroke-width:0.565977;stroke-linecap:butt;stroke-linejoin:miter;stroke-miterlimit:4;stroke-dasharray:none;stroke-opacity:1"
     d="m 154.863,74.056894 c 0.115,0.219 -0.724,1.006 -0.401,1.411 0.333,0.412 1.052,0.084 2.839,0.948 l 0.026,0.011 c 1.287,0.677 2.672,0.745 3.708,0.036 1.724,-1.167 1.823,-4.006 0.235,-6.339 -1.589,-2.337 -4.271,-3.281 -5.989,-2.109 -1.647,1.109 -1.808,3.772 -0.418,6.042 z"
     id="path969" />
  <path
     style="fill:#231f20;fill-opacity:1;fill-rule:nonzero;stroke:none"
     d="m 157.947,85.456894 c -0.437,-0.473 -0.49,-2.421 -1.152,-3.89 -0.442,-0.99 -0.442,-3.734 -0.957,-4.692 -0.475,-0.87 -0.609,-1.318 0.296,-2.027 0.537,-0.421 1.844,-0.885 2.177,-0.5 0.782,0.901 1.068,1.803 1.178,2.865 0.12,1.214 0.156,4.526 0.104,5.135 -0.126,1.521 0.281,2.131 0.281,2.532 0.016,0.765 -0.281,0.953 -0.765,1.073 -0.938,0.214 -1.162,-0.496 -1.162,-0.496"
     id="path970" />
  <path
     style="fill:none;stroke:#231f20;stroke-width:0.565977;stroke-linecap:butt;stroke-linejoin:miter;stroke-miterlimit:4;stroke-dasharray:none;stroke-opacity:1"
     d="m 157.947,85.456894 c -0.437,-0.473 -0.49,-2.421 -1.152,-3.89 -0.442,-0.99 -0.442,-3.734 -0.957,-4.692 -0.475,-0.87 -0.609,-1.318 0.296,-2.027 0.537,-0.421 1.844,-0.885 2.177,-0.5 0.782,0.901 1.068,1.803 1.178,2.865 0.12,1.214 0.156,4.526 0.104,5.135 -0.126,1.521 0.281,2.131 0.281,2.532 0.016,0.765 -0.281,0.953 -0.765,1.073 -0.938,0.214 -1.162,-0.496 -1.162,-0.496 z"
     id="path971" />
  <path
     style="fill:#231f20;fill-opacity:1;fill-rule:nonzero;stroke:none"
     d="m 156.41,76.524894 c -1.291,0.084 -1.036,-1.948 -1.057,-2.478 -0.015,-0.547 -0.239,-2.09 -0.558,-3.266 -0.328,-1.177 -0.233,-2.792 -0.842,-5.037 -0.324,-1.177 0.109,-2.536 1.837,-2.932 1.715,-0.385 2.573,0.432 2.751,1.917 0.177,1.484 -0.287,2.958 -0.214,4.463 0.072,1.511 0.287,3.041 0.511,4.24 0.26,1.355 -0.12,2.125 -0.521,2.391 -0.99,0.661 -1.907,0.702 -1.907,0.702"
     id="path972" />
  <path
     style="fill:none;stroke:#231f20;stroke-width:0.565977;stroke-linecap:butt;stroke-linejoin:miter;stroke-miterlimit:4;stroke-dasharray:none;stroke-opacity:1"
     d="m 156.41,76.524894 c -1.291,0.084 -1.036,-1.948 -1.057,-2.478 -0.015,-0.547 -0.239,-2.09 -0.558,-3.266 -0.328,-1.177 -0.233,-2.792 -0.842,-5.037 -0.324,-1.177 0.109,-2.536 1.837,-2.932 1.715,-0.385 2.573,0.432 2.751,1.917 0.177,1.484 -0.287,2.958 -0.214,4.463 0.072,1.511 0.287,3.041 0.511,4.24 0.26,1.355 -0.12,2.125 -0.521,2.391 -0.99,0.661 -1.907,0.702 -1.907,0.702 z"
     id="path973" />
  <path
     style="fill:#ffffff;fill-opacity:1;fill-rule:nonzero;stroke:none"
     d="m 158.702,85.295894 c -0.989,0.267 -1.583,1.281 -1.317,2.276 0.265,0.991 1.286,1.579 2.276,1.319 0.994,-0.267 1.588,-1.287 1.317,-2.282 -0.265,-0.989 -1.281,-1.584 -2.276,-1.313"
     id="path974" />
  <path
     style="fill:none;stroke:#231f20;stroke-width:1.33171;stroke-linecap:butt;stroke-linejoin:miter;stroke-miterlimit:4;stroke-dasharray:none;stroke-opacity:1"
     d="m 158.702,85.295894 c -0.989,0.267 -1.583,1.281 -1.317,2.276 0.265,0.991 1.286,1.579 2.276,1.319 0.994,-0.267 1.588,-1.287 1.317,-2.282 -0.265,-0.989 -1.281,-1.584 -2.276,-1.313 z"
     id="path975" />
  <path
     style="fill:#231f20;fill-opacity:1;fill-rule:nonzero;stroke:none"
     d="m 13.093,111.6039 c -0.625,-1.194 0.036,-1.937 1.063,-2.084 0.301,-0.052 0.516,-0.4 0.817,-0.422 0.704,-0.041 1.975,1.157 1.24,2.465 -0.047,0.093 -0.219,0.9 -0.437,1.473 -0.428,1.136 -1.834,3.203 -4.49,3.677 -1.256,0.23 -1.157,-0.557 -0.677,-0.803 1.525,-0.781 1.505,-1.145 1.833,-1.494 1.11,-1.187 0.651,-2.812 0.651,-2.812"
     id="path976" />
  <path
     style="fill:none;stroke:#231f20;stroke-width:0.332927;stroke-linecap:butt;stroke-linejoin:miter;stroke-miterlimit:4;stroke-dasharray:none;stroke-opacity:1"
     d="m 13.093,111.6039 c -0.625,-1.194 0.036,-1.937 1.063,-2.084 0.301,-0.052 0.516,-0.4 0.817,-0.422 0.704,-0.041 1.975,1.157 1.24,2.465 -0.047,0.093 -0.219,0.9 -0.437,1.473 -0.428,1.136 -1.834,3.203 -4.49,3.677 -1.256,0.23 -1.157,-0.557 -0.677,-0.803 1.525,-0.781 1.505,-1.145 1.833,-1.494 1.11,-1.187 0.651,-2.812 0.651,-2.812 z"
     id="path977" />
  <path
     style="fill:#231f20;fill-opacity:1;fill-rule:nonzero;stroke:none"
     d="m 22.5,95.384894 c -1.912,-1.218 -2.448,-1.204 -3.016,-0.428 -0.38,0.517 -0.907,0.86 -1.151,1.158 -0.819,1.009 -1.781,3.046 -3.005,9.509006 -0.276,1.464 -0.683,3.516 -0.918,4.35 -0.358,1.302 2.058,1.026 2.204,0.515 0.479,-1.646 0.948,-2.734 1.203,-3.308 0.172,-0.39 0.385,-1.118 1.26,-2.541 1.313,-2.156 2.423,-3.249 3.313,-5.172006 0.416,-0.886 1.291,-1.296 1.244,-2.38 -0.036,-1.083 -1.134,-1.703 -1.134,-1.703"
     id="path978" />
  <path
     style="fill:none;stroke:#231f20;stroke-width:0.565977;stroke-linecap:butt;stroke-linejoin:miter;stroke-miterlimit:4;stroke-dasharray:none;stroke-opacity:1"
     d="m 22.5,95.384894 c -1.912,-1.218 -2.448,-1.204 -3.016,-0.428 -0.38,0.517 -0.907,0.86 -1.151,1.158 -0.819,1.009 -1.781,3.046 -3.005,9.509006 -0.276,1.464 -0.683,3.516 -0.918,4.35 -0.358,1.302 2.058,1.026 2.204,0.515 0.479,-1.646 0.948,-2.734 1.203,-3.308 0.172,-0.39 0.385,-1.118 1.26,-2.541 1.313,-2.156 2.423,-3.249 3.313,-5.172006 0.416,-0.886 1.291,-1.296 1.244,-2.38 -0.036,-1.083 -1.134,-1.703 -1.134,-1.703 z"
     id="path979" />
  <path
     style="fill:#0098c9;fill-opacity:1;fill-rule:nonzero;stroke:none"
     d="m 33.88,71.103894 c -2.115,2.317 -2.818,2.577 -3.656,2.963 -5.262,2.401 -3.98,4.933 -1.538,6.458 2.882,1.798 3.876,2.5 7.658,-2.536 1.046,-1.401 5.78,-6.25 5.78,-6.25 1.928,-1.5 3.005,-3.995 2.666,-5.416 -0.358,-1.495 -0.322,-0.87 -0.91,-2.194 -0.552,-1.26 -2.328,-2.536 -3.532,-2.238 -1.151,0.285 -1.63,1.885 -2.624,4.093 -0.787,1.745 -3.844,5.12 -3.844,5.12"
     id="path980" />
  <path
     style="fill:none;stroke:#231f20;stroke-width:0.565977;stroke-linecap:butt;stroke-linejoin:miter;stroke-miterlimit:4;stroke-dasharray:none;stroke-opacity:1"
     d="m 33.88,71.103894 c -2.115,2.317 -2.818,2.577 -3.656,2.963 -5.262,2.401 -3.98,4.933 -1.538,6.458 2.882,1.798 3.876,2.5 7.658,-2.536 1.046,-1.401 5.78,-6.25 5.78,-6.25 1.928,-1.5 3.005,-3.995 2.666,-5.416 -0.358,-1.495 -0.322,-0.87 -0.91,-2.194 -0.552,-1.26 -2.328,-2.536 -3.532,-2.238 -1.151,0.285 -1.63,1.885 -2.624,4.093 -0.787,1.745 -3.844,5.12 -3.844,5.12 z"
     id="path981" />
  <path
     style="fill:#ffffff;fill-opacity:1;fill-rule:nonzero;stroke:none"
     d="m 49.457,60.108894 c 0.147,-0.198 1.215,0.235 1.444,-0.24 0.228,-0.473 -0.365,-0.984 -0.344,-2.973 v -0.021 c 0.063,-1.454 -0.459,-2.74 -1.543,-3.38 -1.785,-1.058 -4.4,0.052 -5.833,2.484 -1.443,2.432 -1.161,5.254 0.631,6.312 1.702,1.021 4.177,0.042 5.645,-2.182"
     id="path982" />
  <path
     style="fill:none;stroke:#231f20;stroke-width:0.565977;stroke-linecap:butt;stroke-linejoin:miter;stroke-miterlimit:4;stroke-dasharray:none;stroke-opacity:1"
     d="m 49.457,60.108894 c 0.147,-0.198 1.215,0.235 1.444,-0.24 0.228,-0.473 -0.365,-0.984 -0.344,-2.973 v -0.021 c 0.063,-1.454 -0.459,-2.74 -1.543,-3.38 -1.785,-1.058 -4.4,0.052 -5.833,2.484 -1.443,2.432 -1.161,5.254 0.631,6.312 1.702,1.021 4.177,0.042 5.645,-2.182 z"
     id="path983" />
  <path
     style="fill:#231f20;fill-opacity:1;fill-rule:nonzero;stroke:none"
     d="m 20.724,97.108894 c 3.186,2.443 3.953,-1.568 4.244,-1.948 3.068,-3.964 3.188,-4.322 5.313,-7.5 3.072,-4.598 4.468,-8.218 2.317,-10.786 -1.458,-1.735 -3.057,-2.115 -4.308,-1.703 -1.38,0.468 -3.598,2.749 -2.921,5.557 l -0.541,1.624 c -0.5,1.047 -0.74,1.574 -1.032,2.068 -0.506,0.87 -0.99,1.828 -1.875,3.568 -1.577,3.099 -2.219,6.886 -2.219,6.886 -0.541,1.125 1.022,2.234 1.022,2.234"
     id="path984" />
  <path
     style="fill:none;stroke:#231f20;stroke-width:0.565977;stroke-linecap:butt;stroke-linejoin:miter;stroke-miterlimit:4;stroke-dasharray:none;stroke-opacity:1"
     d="m 20.724,97.108894 c 3.186,2.443 3.953,-1.568 4.244,-1.948 3.068,-3.964 3.188,-4.322 5.313,-7.5 3.072,-4.598 4.468,-8.218 2.317,-10.786 -1.458,-1.735 -3.057,-2.115 -4.308,-1.703 -1.38,0.468 -3.598,2.749 -2.921,5.557 l -0.541,1.624 c -0.5,1.047 -0.74,1.574 -1.032,2.068 -0.506,0.87 -0.99,1.828 -1.875,3.568 -1.577,3.099 -2.219,6.886 -2.219,6.886 -0.541,1.125 1.022,2.234 1.022,2.234 z"
     id="path985" />
  <path
     style="fill:#0098c9;fill-opacity:1;fill-rule:nonzero;stroke:none"
     d="m 33.801,80.119894 c 0.005,-1.553 -0.453,-2.833 -1.572,-3.787 -1.729,-1.474 -3.365,-1.568 -4.532,-0.953 -1.287,0.683 -3.093,3.301 -1.964,5.953 l 7.22,3.006 c 0.213,-0.62 0.375,-1.21 0.515,-1.776 0.042,-0.068 0.084,-0.136 0.13,-0.188 0.531,-0.615 0.422,-1.235 0.203,-2.255"
     id="path986" />
  <path
     style="fill:none;stroke:#231f20;stroke-width:0.565977;stroke-linecap:butt;stroke-linejoin:miter;stroke-miterlimit:4;stroke-dasharray:none;stroke-opacity:1"
     d="m 33.801,80.119894 c 0.005,-1.553 -0.453,-2.833 -1.572,-3.787 -1.729,-1.474 -3.365,-1.568 -4.532,-0.953 -1.287,0.683 -3.093,3.301 -1.964,5.953 l 7.22,3.006 c 0.213,-0.62 0.375,-1.21 0.515,-1.776 0.042,-0.068 0.084,-0.136 0.13,-0.188 0.531,-0.615 0.422,-1.235 0.203,-2.255 z"
     id="path987" />
  <path
     style="fill:#231f20;fill-opacity:1;fill-rule:nonzero;stroke:none"
     d="m 36.572,85.467894 c -0.282,-0.583 0.25,-2.457 0.052,-4.052 -0.124,-1.077 0.693,-3.697 0.48,-4.765 -0.188,-0.97 -0.188,-1.438 0.89,-1.85 0.635,-0.238 2.026,-0.296 2.23,0.172 0.473,1.09 0.484,2.038 0.265,3.084 -0.245,1.192 -1.193,4.364 -1.423,4.932 -0.572,1.411 -0.364,2.12 -0.484,2.511 -0.213,0.729 -0.546,0.823 -1.052,0.787 -0.953,-0.074 -0.958,-0.819 -0.958,-0.819"
     id="path988" />
  <path
     style="fill:none;stroke:#231f20;stroke-width:0.565977;stroke-linecap:butt;stroke-linejoin:miter;stroke-miterlimit:4;stroke-dasharray:none;stroke-opacity:1"
     d="m 36.572,85.467894 c -0.282,-0.583 0.25,-2.457 0.052,-4.052 -0.124,-1.077 0.693,-3.697 0.48,-4.765 -0.188,-0.97 -0.188,-1.438 0.89,-1.85 0.635,-0.238 2.026,-0.296 2.23,0.172 0.473,1.09 0.484,2.038 0.265,3.084 -0.245,1.192 -1.193,4.364 -1.423,4.932 -0.572,1.411 -0.364,2.12 -0.484,2.511 -0.213,0.729 -0.546,0.823 -1.052,0.787 -0.953,-0.074 -0.958,-0.819 -0.958,-0.819 z"
     id="path989" />
  <path
     style="fill:#231f20;fill-opacity:1;fill-rule:nonzero;stroke:none"
     d="m 37.76,76.488894 c -1.26,-0.308 -0.416,-2.166 -0.276,-2.688 0.15,-0.525 0.401,-2.057 0.437,-3.281 0.036,-1.224 0.615,-2.733 0.693,-5.057 0.042,-1.224 0.854,-2.386 2.624,-2.25 1.751,0.14 2.334,1.172 2.058,2.64 -0.271,1.475 -1.151,2.74 -1.526,4.204 -0.385,1.463 -0.63,2.99 -0.77,4.192 -0.162,1.375 -0.751,1.995 -1.21,2.126 -1.145,0.349 -2.03,0.114 -2.03,0.114"
     id="path990" />
  <path
     style="fill:none;stroke:#231f20;stroke-width:0.565977;stroke-linecap:butt;stroke-linejoin:miter;stroke-miterlimit:4;stroke-dasharray:none;stroke-opacity:1"
     d="m 37.76,76.488894 c -1.26,-0.308 -0.416,-2.166 -0.276,-2.688 0.15,-0.525 0.401,-2.057 0.437,-3.281 0.036,-1.224 0.615,-2.733 0.693,-5.057 0.042,-1.224 0.854,-2.386 2.624,-2.25 1.751,0.14 2.334,1.172 2.058,2.64 -0.271,1.475 -1.151,2.74 -1.526,4.204 -0.385,1.463 -0.63,2.99 -0.77,4.192 -0.162,1.375 -0.751,1.995 -1.21,2.126 -1.145,0.349 -2.03,0.114 -2.03,0.114 z"
     id="path991" />
  <path
     style="fill:#ffffff;fill-opacity:1;fill-rule:nonzero;stroke:none"
     d="m 37.374,88.952894 c -1.016,-0.141 -1.724,-1.078 -1.584,-2.1 0.142,-1.02 1.079,-1.729 2.095,-1.588 1.016,0.14 1.729,1.079 1.588,2.094 -0.14,1.021 -1.077,1.729 -2.099,1.594"
     id="path992" />
  <path
     style="fill:none;stroke:#231f20;stroke-width:1.33171;stroke-linecap:butt;stroke-linejoin:miter;stroke-miterlimit:4;stroke-dasharray:none;stroke-opacity:1"
     d="m 37.374,88.952894 c -1.016,-0.141 -1.724,-1.078 -1.584,-2.1 0.142,-1.02 1.079,-1.729 2.095,-1.588 1.016,0.14 1.729,1.079 1.588,2.094 -0.14,1.021 -1.077,1.729 -2.099,1.594 z"
     id="path993" />
  <path
     style="fill:none;stroke:#231f20;stroke-width:0.399514;stroke-linecap:butt;stroke-linejoin:miter;stroke-miterlimit:4;stroke-dasharray:none;stroke-opacity:1"
     d="M 46.405,110.9429 C 20.973,118.3329 2.3799996,89.456894 0.82199961,82.363894"
     id="path994" />
  <path
     style="fill:#231f20;fill-opacity:1;fill-rule:nonzero;stroke:none"
     d="m 0.56199961,81.186894 c 0.328,0.51 0.82799999,1.12 1.29099999,1.464 l -0.99999999,-0.131 -0.85300000039759,0.537 C 0.27599961,82.551894 0.47799961,81.786894 0.56199961,81.186894"
     id="path995" />
</svg>
