<?xml version="1.0" encoding="UTF-8" standalone="no"?>
<!-- Created with Inkscape (http://www.inkscape.org/) -->

<svg
   version="1.1"
   id="svg1"
   width="250.85458"
   height="112.11128"
   viewBox="0 0 250.85457 112.11128"
   sodipodi:docname="cell.svg"
   xmlns:inkscape="http://www.inkscape.org/namespaces/inkscape"
   xmlns:sodipodi="http://sodipodi.sourceforge.net/DTD/sodipodi-0.dtd"
   xmlns="http://www.w3.org/2000/svg"
   xmlns:svg="http://www.w3.org/2000/svg">
  <sodipodi:namedview
     id="namedview1"
     pagecolor="#ffffff"
     bordercolor="#000000"
     borderopacity="0.25"
     inkscape:showpageshadow="2"
     inkscape:pageopacity="0.0"
     inkscape:pagecheckerboard="0"
     inkscape:deskcolor="#d1d1d1">
    <inkscape:page
       x="8.1937202e-07"
       y="3.0412459e-13"
       inkscape:label="1"
       id="page1"
       width="250.85457"
       height="112.11128"
       margin="0"
       bleed="0" />
  </sodipodi:namedview>
  <defs
     id="defs1" />
  <path
     style="fill:#231f20;fill-opacity:1;fill-rule:nonzero;stroke:none"
     d="m 44.649273,60.486385 c -0.423,1.282 -1.418,1.323 -2.235,0.688 -0.251,-0.188 -0.651,-0.1 -0.875,-0.302 -0.521,-0.474 -0.532,-2.219 0.916,-2.604 0.104,-0.027 0.798,-0.459 1.366,-0.703 1.113,-0.485 3.577,-0.901 5.764998,0.676 1.031,0.745 0.396,1.219 -0.109,1.048 -1.619998,-0.557 -1.875998,-0.292 -2.354998,-0.281 -1.62,0.02 -2.473,1.478 -2.473,1.478"
     id="path395" />
  <path
     style="fill:none;stroke:#231f20;stroke-width:0.332927;stroke-linecap:butt;stroke-linejoin:miter;stroke-miterlimit:4;stroke-dasharray:none;stroke-opacity:1"
     d="m 44.649273,60.486385 c -0.423,1.282 -1.418,1.323 -2.235,0.688 -0.251,-0.188 -0.651,-0.1 -0.875,-0.302 -0.521,-0.474 -0.532,-2.219 0.916,-2.604 0.104,-0.027 0.798,-0.459 1.366,-0.703 1.113,-0.485 3.577,-0.901 5.764998,0.676 1.031,0.745 0.396,1.219 -0.109,1.048 -1.619998,-0.557 -1.875998,-0.292 -2.354998,-0.281 -1.62,0.02 -2.473,1.478 -2.473,1.478 z"
     id="path396" />
  <path
     style="fill:#231f20;fill-opacity:1;fill-rule:nonzero;stroke:none"
     d="m 26.445273,64.970385 c 0.448,2.23 0.833,2.599 1.781,2.47 0.641,-0.084 1.251,0.057 1.641,0.025 1.291,-0.115 3.422,-0.828 8.927,-4.432 1.245,-0.817 3.005,-1.953 3.765,-2.364 1.194,-0.641 -0.681,-2.188 -1.156,-1.943 -1.521,0.796 -2.625,1.219 -3.213,1.427 -0.401,0.151 -1.073,0.5 -2.703,0.864 -2.464,0.548 -4.026,0.505 -6.026,1.199 -0.927,0.317 -1.828,-0.032 -2.579,0.76 -0.754,0.776 -0.437,1.994 -0.437,1.994"
     id="path397" />
  <path
     style="fill:none;stroke:#231f20;stroke-width:0.565977;stroke-linecap:butt;stroke-linejoin:miter;stroke-miterlimit:4;stroke-dasharray:none;stroke-opacity:1"
     d="m 26.445273,64.970385 c 0.448,2.23 0.833,2.599 1.781,2.47 0.641,-0.084 1.251,0.057 1.641,0.025 1.291,-0.115 3.422,-0.828 8.927,-4.432 1.245,-0.817 3.005,-1.953 3.765,-2.364 1.194,-0.641 -0.681,-2.188 -1.156,-1.943 -1.521,0.796 -2.625,1.219 -3.213,1.427 -0.401,0.151 -1.073,0.5 -2.703,0.864 -2.464,0.548 -4.026,0.505 -6.026,1.199 -0.927,0.317 -1.828,-0.032 -2.579,0.76 -0.754,0.776 -0.437,1.994 -0.437,1.994 z"
     id="path398" />
  <path
     style="fill:#0098c9;fill-opacity:1;fill-rule:nonzero;stroke:none"
     d="m 6.9502729,64.060385 c 0.251,3.12 -0.036,3.822 -0.333,4.692 -1.839,5.484 0.885,6.281 3.6720001,5.537 3.276,-0.876 4.464,-1.12 3.375,-7.319 -0.302,-1.729 -0.61,-8.494 -0.61,-8.494 0.219,-2.438 -0.869,-4.932 -2.134,-5.651 -1.3390001,-0.755 -0.86,-0.36 -2.2240001,-0.833 -1.298,-0.459 -3.448,-0.032 -4.047,1.052 -0.579,1.03 0.26,2.473 1.192,4.713 0.74,1.76 1.109,6.303 1.109,6.303"
     id="path399" />
  <path
     style="fill:none;stroke:#231f20;stroke-width:0.565977;stroke-linecap:butt;stroke-linejoin:miter;stroke-miterlimit:4;stroke-dasharray:none;stroke-opacity:1"
     d="m 6.9502729,64.060385 c 0.251,3.12 -0.036,3.822 -0.333,4.692 -1.839,5.484 0.885,6.281 3.6720001,5.537 3.276,-0.876 4.464,-1.12 3.375,-7.319 -0.302,-1.729 -0.61,-8.494 -0.61,-8.494 0.219,-2.438 -0.869,-4.932 -2.134,-5.651 -1.3390001,-0.755 -0.86,-0.36 -2.2240001,-0.833 -1.298,-0.459 -3.448,-0.032 -4.047,1.052 -0.579,1.03 0.26,2.473 1.192,4.713 0.74,1.76 1.109,6.303 1.109,6.303 z"
     id="path400" />
  <path
     style="fill:#ffffff;fill-opacity:1;fill-rule:nonzero;stroke:none"
     d="m 7.8622729,44.945385 c -0.089,-0.229 0.844,-0.896 0.578,-1.349 -0.276,-0.448 -1.031,-0.219 -2.698,-1.307 l -0.01,-0.011 c -1.198,-0.838 -2.558,-1.094 -3.678,-0.526 -1.853,0.932 -2.328,3.734 -1.062,6.256 1.272,2.525 3.808,3.806 5.662,2.874 1.776,-0.885 2.286,-3.505 1.208,-5.937"
     id="path401" />
  <path
     style="fill:none;stroke:#231f20;stroke-width:0.565977;stroke-linecap:butt;stroke-linejoin:miter;stroke-miterlimit:4;stroke-dasharray:none;stroke-opacity:1"
     d="m 7.8622729,44.945385 c -0.089,-0.229 0.844,-0.896 0.578,-1.349 -0.276,-0.448 -1.031,-0.219 -2.698,-1.307 l -0.01,-0.011 c -1.198,-0.838 -2.558,-1.094 -3.678,-0.526 -1.853,0.932 -2.328,3.734 -1.062,6.256 1.272,2.525 3.808,3.806 5.662,2.874 1.776,-0.885 2.286,-3.505 1.208,-5.937 z"
     id="path402" />
  <path
     style="fill:#231f20;fill-opacity:1;fill-rule:nonzero;stroke:none"
     d="m 28.919273,65.054385 c -0.453,-3.984 -3.87,-1.756 -4.349,-1.704 -4.984,0.543 -5.322,0.71 -9.082,1.382 -5.444,0.984 -9.0160001,2.489 -9.3760001,5.817 -0.239,2.255 0.598,3.667 1.77,4.287 1.287,0.666 4.4700001,0.681 6.0220001,-1.756 l 1.546,-0.739 c 1.099,-0.365 1.647,-0.557 2.199,-0.693 0.979,-0.24 2.005,-0.552 3.88,-1.131 3.317,-1.015 6.494,-3.176 6.494,-3.176 1.183,-0.396 0.896,-2.287 0.896,-2.287"
     id="path403" />
  <path
     style="fill:none;stroke:#231f20;stroke-width:0.565977;stroke-linecap:butt;stroke-linejoin:miter;stroke-miterlimit:4;stroke-dasharray:none;stroke-opacity:1"
     d="m 28.919273,65.054385 c -0.453,-3.984 -3.87,-1.756 -4.349,-1.704 -4.984,0.543 -5.322,0.71 -9.082,1.382 -5.444,0.984 -9.0160001,2.489 -9.3760001,5.817 -0.239,2.255 0.598,3.667 1.77,4.287 1.287,0.666 4.4700001,0.681 6.0220001,-1.756 l 1.546,-0.739 c 1.099,-0.365 1.647,-0.557 2.199,-0.693 0.979,-0.24 2.005,-0.552 3.88,-1.131 3.317,-1.015 6.494,-3.176 6.494,-3.176 1.183,-0.396 0.896,-2.287 0.896,-2.287 z"
     id="path404" />
  <path
     style="fill:#0098c9;fill-opacity:1;fill-rule:nonzero;stroke:#231f20;stroke-width:0.565977;stroke-linecap:butt;stroke-linejoin:miter;stroke-miterlimit:4;stroke-dasharray:none;stroke-opacity:1"
     d="m 11.237273,65.117385 c -3.4070001,1.577 -5.4160001,3.437 -5.2550001,6.077 0.14,2.262 1.198,3.511 2.452,3.923 1.387,0.452 4.5320001,-0.063 5.6520001,-2.724 z"
     id="path405" />
  <path
     style="fill:#231f20;fill-opacity:1;fill-rule:nonzero;stroke:none"
     d="m 9.5762729,34.908385 c 0.369,0.527 0.172,2.458 0.6400001,4.005 0.308,1.037 -0.047,3.761 0.344,4.771 0.354,0.928 0.432,1.386 -0.5630001,1.974 -0.583,0.35 -1.937,0.646 -2.219,0.214 -0.661,-0.995 -0.828,-1.922 -0.79,-2.99 0.036,-1.218 0.421,-4.505 0.552,-5.104 0.322,-1.489 -0.006,-2.152 0.046,-2.551 0.088,-0.756 0.402,-0.907 0.902,-0.959 0.952,-0.093 1.088,0.64 1.088,0.64"
     id="path406" />
  <path
     style="fill:none;stroke:#231f20;stroke-width:0.565977;stroke-linecap:butt;stroke-linejoin:miter;stroke-miterlimit:4;stroke-dasharray:none;stroke-opacity:1"
     d="m 9.5762729,34.908385 c 0.369,0.527 0.172,2.458 0.6400001,4.005 0.308,1.037 -0.047,3.761 0.344,4.771 0.354,0.928 0.432,1.386 -0.5630001,1.974 -0.583,0.35 -1.937,0.646 -2.219,0.214 -0.661,-0.995 -0.828,-1.922 -0.79,-2.99 0.036,-1.218 0.421,-4.505 0.552,-5.104 0.322,-1.489 -0.006,-2.152 0.046,-2.551 0.088,-0.756 0.402,-0.907 0.902,-0.959 0.952,-0.093 1.088,0.64 1.088,0.64 z"
     id="path407" />
  <path
     style="fill:#231f20;fill-opacity:1;fill-rule:nonzero;stroke:none"
     d="m 9.9452729,43.956385 c 1.2920001,0.093 0.7810001,2.066 0.7240001,2.598 -0.052,0.547 -0.031,2.104 0.136,3.312 0.172,1.214 -0.136,2.798 0.183,5.104 0.17,1.21 -0.434,2.5 -2.1990001,2.667 -1.749,0.161 -2.5,-0.76 -2.479,-2.249 0.011,-1.5 0.662,-2.902 0.787,-4.407 0.124,-1.505 0.104,-3.052 0.041,-4.265 -0.078,-1.38 0.396,-2.09 0.823,-2.303 1.068,-0.531 1.984,-0.457 1.984,-0.457"
     id="path408" />
  <path
     style="fill:none;stroke:#231f20;stroke-width:0.565977;stroke-linecap:butt;stroke-linejoin:miter;stroke-miterlimit:4;stroke-dasharray:none;stroke-opacity:1"
     d="m 9.9452729,43.956385 c 1.2920001,0.093 0.7810001,2.066 0.7240001,2.598 -0.052,0.547 -0.031,2.104 0.136,3.312 0.172,1.214 -0.136,2.798 0.183,5.104 0.17,1.21 -0.434,2.5 -2.1990001,2.667 -1.749,0.161 -2.5,-0.76 -2.479,-2.249 0.011,-1.5 0.662,-2.902 0.787,-4.407 0.124,-1.505 0.104,-3.052 0.041,-4.265 -0.078,-1.38 0.396,-2.09 0.823,-2.303 1.068,-0.531 1.984,-0.457 1.984,-0.457 z"
     id="path409" />
  <path
     style="fill:#ffffff;fill-opacity:1;fill-rule:nonzero;stroke:none"
     d="m 10.393273,33.263385 c 0.141,1.021 -0.5720001,1.958 -1.5880001,2.093 -1.021,0.141 -1.959,-0.572 -2.095,-1.588 -0.14,-1.021 0.574,-1.959 1.59,-2.093 1.021,-0.142 1.9530001,0.572 2.0930001,1.588"
     id="path410" />
  <path
     style="fill:none;stroke:#231f20;stroke-width:1.33171;stroke-linecap:butt;stroke-linejoin:miter;stroke-miterlimit:4;stroke-dasharray:none;stroke-opacity:1"
     d="m 10.393273,33.263385 c 0.141,1.021 -0.5720001,1.958 -1.5880001,2.093 -1.021,0.141 -1.959,-0.572 -2.095,-1.588 -0.14,-1.021 0.574,-1.959 1.59,-2.093 1.021,-0.142 1.9530001,0.572 2.0930001,1.588 z"
     id="path411" />
  <path
     style="fill:#231f20;fill-opacity:1;fill-rule:nonzero;stroke:none"
     d="m 128.71527,9.508385 c 1.131,0.744 0.912,1.713 0.09,2.339 -0.246,0.192 -0.26,0.604 -0.511,0.765 -0.604,0.38 -2.287,-0.057 -2.287,-1.552 0.006,-0.109 -0.24,-0.896 -0.328,-1.505 -0.177,-1.204 0.052,-3.688 2.142,-5.391 0.984,-0.808 1.28,-0.073 0.984,0.375 -0.954,1.417 -0.766,1.734 -0.88,2.198 -0.396,1.572 0.79,2.771 0.79,2.771"
     id="path412" />
  <path
     style="fill:none;stroke:#231f20;stroke-width:0.332927;stroke-linecap:butt;stroke-linejoin:miter;stroke-miterlimit:4;stroke-dasharray:none;stroke-opacity:1"
     d="m 128.71527,9.508385 c 1.131,0.744 0.912,1.713 0.09,2.339 -0.246,0.192 -0.26,0.604 -0.511,0.765 -0.604,0.38 -2.287,-0.057 -2.287,-1.552 0.006,-0.109 -0.24,-0.896 -0.328,-1.505 -0.177,-1.204 0.052,-3.688 2.142,-5.391 0.984,-0.808 1.28,-0.073 0.984,0.375 -0.954,1.417 -0.766,1.734 -0.88,2.198 -0.396,1.572 0.79,2.771 0.79,2.771 z"
     id="path413" />
  <path
     style="fill:#231f20;fill-opacity:1;fill-rule:nonzero;stroke:none"
     d="m 128.35127,28.252385 c 2.271,0.147 2.73,-0.129 2.85,-1.083 0.082,-0.641 0.374,-1.193 0.448,-1.573 0.224,-1.287 0.082,-3.525 -1.98,-9.771 -0.474,-1.417 -1.115,-3.412 -1.318,-4.25 -0.312,-1.318 -2.292,0.094 -2.172,0.614 0.375,1.672 0.5,2.855 0.552,3.475 0.036,0.427 0.203,1.167 0.136,2.833 -0.109,2.526 -0.546,4.02 -0.396,6.13 0.068,0.98 -0.5,1.761 0.068,2.688 0.558,0.932 1.812,0.937 1.812,0.937"
     id="path414" />
  <path
     style="fill:none;stroke:#231f20;stroke-width:0.565977;stroke-linecap:butt;stroke-linejoin:miter;stroke-miterlimit:4;stroke-dasharray:none;stroke-opacity:1"
     d="m 128.35127,28.252385 c 2.271,0.147 2.73,-0.129 2.85,-1.083 0.082,-0.641 0.374,-1.193 0.448,-1.573 0.224,-1.287 0.082,-3.525 -1.98,-9.771 -0.474,-1.417 -1.115,-3.412 -1.318,-4.25 -0.312,-1.318 -2.292,0.094 -2.172,0.614 0.375,1.672 0.5,2.855 0.552,3.475 0.036,0.427 0.203,1.167 0.136,2.833 -0.109,2.526 -0.546,4.02 -0.396,6.13 0.068,0.98 -0.5,1.761 0.068,2.688 0.558,0.932 1.812,0.937 1.812,0.937 z"
     id="path415" />
  <path
     style="fill:#0098c9;fill-opacity:1;fill-rule:nonzero;stroke:none"
     d="m 125.72627,51.804385 c 2.584,-1.782 3.333,-1.88 4.235,-2.063 5.666,-1.145 5,-3.905 2.953,-5.948 -2.391,-2.395 -3.199,-3.307 -8.027,0.74 -1.338,1.125 -7.046,4.776 -7.046,4.776 -2.219,1.027 -3.834,3.219 -3.823,4.672 0.011,1.536 0.12,0.927 0.391,2.344 0.254,1.355 1.697,3 2.932,2.979 1.188,-0.015 2.016,-1.463 3.484,-3.391 1.157,-1.52 4.901,-4.109 4.901,-4.109"
     id="path416" />
  <path
     style="fill:none;stroke:#231f20;stroke-width:0.565977;stroke-linecap:butt;stroke-linejoin:miter;stroke-miterlimit:4;stroke-dasharray:none;stroke-opacity:1"
     d="m 125.72627,51.804385 c 2.584,-1.782 3.333,-1.88 4.235,-2.063 5.666,-1.145 5,-3.905 2.953,-5.948 -2.391,-2.395 -3.199,-3.307 -8.027,0.74 -1.338,1.125 -7.046,4.776 -7.046,4.776 -2.219,1.027 -3.834,3.219 -3.823,4.672 0.011,1.536 0.12,0.927 0.391,2.344 0.254,1.355 1.697,3 2.932,2.979 1.188,-0.015 2.016,-1.463 3.484,-3.391 1.157,-1.52 4.901,-4.109 4.901,-4.109 z"
     id="path417" />
  <path
     style="fill:#ffffff;fill-opacity:1;fill-rule:nonzero;stroke:none"
     d="m 108.72127,60.574385 c -0.151,0.188 -1.198,-0.285 -1.454,0.172 -0.254,0.464 0.33,1.006 0.21,2.991 v 0.015 c -0.131,1.453 0.333,2.761 1.385,3.448 1.735,1.141 4.401,0.146 5.948,-2.214 1.547,-2.36 1.396,-5.197 -0.344,-6.333 -1.656,-1.099 -4.177,-0.229 -5.745,1.921"
     id="path418" />
  <path
     style="fill:none;stroke:#231f20;stroke-width:0.565977;stroke-linecap:butt;stroke-linejoin:miter;stroke-miterlimit:4;stroke-dasharray:none;stroke-opacity:1"
     d="m 108.72127,60.574385 c -0.151,0.188 -1.198,-0.285 -1.454,0.172 -0.254,0.464 0.33,1.006 0.21,2.991 v 0.015 c -0.131,1.453 0.333,2.761 1.385,3.448 1.735,1.141 4.401,0.146 5.948,-2.214 1.547,-2.36 1.396,-5.197 -0.344,-6.333 -1.656,-1.099 -4.177,-0.229 -5.745,1.921 z"
     id="path419" />
  <path
     style="fill:#231f20;fill-opacity:1;fill-rule:nonzero;stroke:none"
     d="m 129.07027,25.888385 c -3.964,-0.595 -2.693,3.287 -2.765,3.76 -0.766,4.953 -0.688,5.323 -1.011,9.13 -0.453,5.511 0.083,9.354 3.203,10.558 2.12,0.817 3.698,0.369 4.6,-0.604 0.978,-1.068 1.812,-4.142 -0.142,-6.272 l -0.312,-1.676 c -0.073,-1.162 -0.114,-1.74 -0.104,-2.308 0.015,-1.011 -0.021,-2.083 -0.094,-4.036 -0.124,-3.475 -1.396,-7.099 -1.396,-7.099 -0.072,-1.245 -1.979,-1.453 -1.979,-1.453"
     id="path420" />
  <path
     style="fill:none;stroke:#231f20;stroke-width:0.565977;stroke-linecap:butt;stroke-linejoin:miter;stroke-miterlimit:4;stroke-dasharray:none;stroke-opacity:1"
     d="m 129.07027,25.888385 c -3.964,-0.595 -2.693,3.287 -2.765,3.76 -0.766,4.953 -0.688,5.323 -1.011,9.13 -0.453,5.511 0.083,9.354 3.203,10.558 2.12,0.817 3.698,0.369 4.6,-0.604 0.978,-1.068 1.812,-4.142 -0.142,-6.272 l -0.312,-1.676 c -0.073,-1.162 -0.114,-1.74 -0.104,-2.308 0.015,-1.011 -0.021,-2.083 -0.094,-4.036 -0.124,-3.475 -1.396,-7.099 -1.396,-7.099 -0.072,-1.245 -1.979,-1.453 -1.979,-1.453 z"
     id="path421" />
  <path
     style="fill:#0098c9;fill-opacity:1;fill-rule:nonzero;stroke:none"
     d="m 132.34127,42.112385 -7.771,0.869 c 0.645,3.703 1.921,6.125 4.516,6.651 2.224,0.448 3.703,-0.255 4.421,-1.359 0.798,-1.219 1.11,-4.396 -1.166,-6.161"
     id="path422" />
  <path
     style="fill:none;stroke:#231f20;stroke-width:0.565977;stroke-linecap:butt;stroke-linejoin:miter;stroke-miterlimit:4;stroke-dasharray:none;stroke-opacity:1"
     d="m 132.34127,42.112385 -7.771,0.869 c 0.645,3.703 1.921,6.125 4.516,6.651 2.224,0.448 3.703,-0.255 4.421,-1.359 0.798,-1.219 1.11,-4.396 -1.166,-6.161 z"
     id="path423" />
  <path
     style="fill:#231f20;fill-opacity:1;fill-rule:nonzero;stroke:none"
     d="m 117.93927,34.908385 c 0.371,0.527 0.172,2.458 0.636,4.005 0.312,1.037 -0.041,3.761 0.35,4.771 0.348,0.928 0.432,1.386 -0.563,1.974 -0.584,0.35 -1.943,0.646 -2.219,0.214 -0.661,-0.995 -0.828,-1.922 -0.797,-2.99 0.036,-1.218 0.427,-4.505 0.552,-5.104 0.328,-1.489 0,-2.152 0.052,-2.551 0.084,-0.756 0.401,-0.907 0.901,-0.959 0.954,-0.093 1.088,0.64 1.088,0.64"
     id="path424" />
  <path
     style="fill:none;stroke:#231f20;stroke-width:0.565977;stroke-linecap:butt;stroke-linejoin:miter;stroke-miterlimit:4;stroke-dasharray:none;stroke-opacity:1"
     d="m 117.93927,34.908385 c 0.371,0.527 0.172,2.458 0.636,4.005 0.312,1.037 -0.041,3.761 0.35,4.771 0.348,0.928 0.432,1.386 -0.563,1.974 -0.584,0.35 -1.943,0.646 -2.219,0.214 -0.661,-0.995 -0.828,-1.922 -0.797,-2.99 0.036,-1.218 0.427,-4.505 0.552,-5.104 0.328,-1.489 0,-2.152 0.052,-2.551 0.084,-0.756 0.401,-0.907 0.901,-0.959 0.954,-0.093 1.088,0.64 1.088,0.64 z"
     id="path425" />
  <path
     style="fill:#231f20;fill-opacity:1;fill-rule:nonzero;stroke:none"
     d="m 118.30527,43.956385 c 1.296,0.093 0.786,2.066 0.729,2.598 -0.057,0.547 -0.032,2.104 0.135,3.312 0.172,1.214 -0.135,2.798 0.182,5.104 0.172,1.21 -0.432,2.5 -2.197,2.667 -1.751,0.161 -2.5,-0.76 -2.48,-2.249 0.011,-1.5 0.661,-2.902 0.781,-4.407 0.131,-1.505 0.11,-3.052 0.042,-4.265 -0.078,-1.38 0.396,-2.09 0.824,-2.303 1.072,-0.531 1.984,-0.457 1.984,-0.457"
     id="path426" />
  <path
     style="fill:none;stroke:#231f20;stroke-width:0.565977;stroke-linecap:butt;stroke-linejoin:miter;stroke-miterlimit:4;stroke-dasharray:none;stroke-opacity:1"
     d="m 118.30527,43.956385 c 1.296,0.093 0.786,2.066 0.729,2.598 -0.057,0.547 -0.032,2.104 0.135,3.312 0.172,1.214 -0.135,2.798 0.182,5.104 0.172,1.21 -0.432,2.5 -2.197,2.667 -1.751,0.161 -2.5,-0.76 -2.48,-2.249 0.011,-1.5 0.661,-2.902 0.781,-4.407 0.131,-1.505 0.11,-3.052 0.042,-4.265 -0.078,-1.38 0.396,-2.09 0.824,-2.303 1.072,-0.531 1.984,-0.457 1.984,-0.457 z"
     id="path427" />
  <path
     style="fill:#ffffff;fill-opacity:1;fill-rule:nonzero;stroke:none"
     d="m 118.75827,33.263385 c 0.135,1.021 -0.573,1.958 -1.589,2.093 -1.02,0.141 -1.963,-0.572 -2.099,-1.588 -0.14,-1.021 0.573,-1.959 1.593,-2.093 1.016,-0.142 1.954,0.572 2.095,1.588"
     id="path428" />
  <path
     style="fill:none;stroke:#231f20;stroke-width:1.33171;stroke-linecap:butt;stroke-linejoin:miter;stroke-miterlimit:4;stroke-dasharray:none;stroke-opacity:1"
     d="m 118.75827,33.263385 c 0.135,1.021 -0.573,1.958 -1.589,2.093 -1.02,0.141 -1.963,-0.572 -2.099,-1.588 -0.14,-1.021 0.573,-1.959 1.593,-2.093 1.016,-0.142 1.954,0.572 2.095,1.588 z"
     id="path429" />
  <path
     style="fill:#231f20;fill-opacity:1;fill-rule:nonzero;stroke:none"
     d="m 72.299271,106.37239 c -0.901,-1.006 -0.442,-1.886 0.511,-2.287 0.291,-0.125 0.405,-0.516 0.692,-0.609 0.672,-0.214 2.193,0.63 1.813,2.084 -0.032,0.104 0.006,0.921 -0.062,1.536 -0.136,1.208 -0.986,3.552 -3.438,4.672 -1.161,0.525 -1.261,-0.255 -0.86,-0.61 1.287,-1.136 1.183,-1.484 1.407,-1.906 0.787,-1.422 -0.063,-2.88 -0.063,-2.88"
     id="path430" />
  <path
     style="fill:none;stroke:#231f20;stroke-width:0.332927;stroke-linecap:butt;stroke-linejoin:miter;stroke-miterlimit:4;stroke-dasharray:none;stroke-opacity:1"
     d="m 72.299271,106.37239 c -0.901,-1.006 -0.442,-1.886 0.511,-2.287 0.291,-0.125 0.405,-0.516 0.692,-0.609 0.672,-0.214 2.193,0.63 1.813,2.084 -0.032,0.104 0.006,0.921 -0.062,1.536 -0.136,1.208 -0.986,3.552 -3.438,4.672 -1.161,0.525 -1.261,-0.255 -0.86,-0.61 1.287,-1.136 1.183,-1.484 1.407,-1.906 0.787,-1.422 -0.063,-2.88 -0.063,-2.88 z"
     id="path431" />
  <path
     style="fill:#231f20;fill-opacity:1;fill-rule:nonzero;stroke:none"
     d="m 77.409271,88.330385 c -2.156,-0.713 -2.667,-0.562 -3.027,0.323 -0.244,0.599 -0.667,1.063 -0.833,1.412 -0.542,1.181 -0.974,3.385 -0.562,9.952005 0.094,1.491 0.208,3.584 0.192,4.443 -0.03,1.354 2.24,0.49 2.26,-0.042 0.058,-1.713 0.24,-2.885 0.344,-3.5 0.074,-0.421 0.099,-1.181005 0.59,-2.776005 0.749,-2.41 1.557,-3.749 1.937,-5.828 0.181,-0.964 0.932,-1.573 0.62,-2.614 -0.303,-1.047 -1.521,-1.37 -1.521,-1.37"
     id="path432" />
  <path
     style="fill:none;stroke:#231f20;stroke-width:0.565977;stroke-linecap:butt;stroke-linejoin:miter;stroke-miterlimit:4;stroke-dasharray:none;stroke-opacity:1"
     d="m 77.409271,88.330385 c -2.156,-0.713 -2.667,-0.562 -3.027,0.323 -0.244,0.599 -0.667,1.063 -0.833,1.412 -0.542,1.181 -0.974,3.385 -0.562,9.952005 0.094,1.491 0.208,3.584 0.192,4.443 -0.03,1.354 2.24,0.49 2.26,-0.042 0.058,-1.713 0.24,-2.885 0.344,-3.5 0.074,-0.421 0.099,-1.181005 0.59,-2.776005 0.749,-2.41 1.557,-3.749 1.937,-5.828 0.181,-0.964 0.932,-1.573 0.62,-2.614 -0.303,-1.047 -1.521,-1.37 -1.521,-1.37 z"
     id="path433" />
  <path
     style="fill:#0098c9;fill-opacity:1;fill-rule:nonzero;stroke:none"
     d="m 75.477271,64.065385 c 0.932,2.989 0.806,3.739 0.713,4.651 -0.579,5.754 2.255,5.932 4.807,4.588 3,-1.578 4.109,-2.083 1.666,-7.886 -0.676,-1.614 -2.473,-8.145 -2.473,-8.145 -0.328,-2.427 -1.937,-4.62 -3.333,-5.041 -1.475,-0.439 -0.918,-0.158 -2.355,-0.319 -1.364,-0.161 -3.364,0.735 -3.713,1.923 -0.339,1.134 0.802,2.353 2.208,4.328 1.109,1.557 2.48,5.901 2.48,5.901"
     id="path434" />
  <path
     style="fill:none;stroke:#231f20;stroke-width:0.565977;stroke-linecap:butt;stroke-linejoin:miter;stroke-miterlimit:4;stroke-dasharray:none;stroke-opacity:1"
     d="m 75.477271,64.065385 c 0.932,2.989 0.806,3.739 0.713,4.651 -0.579,5.754 2.255,5.932 4.807,4.588 3,-1.578 4.109,-2.083 1.666,-7.886 -0.676,-1.614 -2.473,-8.145 -2.473,-8.145 -0.328,-2.427 -1.937,-4.62 -3.333,-5.041 -1.475,-0.439 -0.918,-0.158 -2.355,-0.319 -1.364,-0.161 -3.364,0.735 -3.713,1.923 -0.339,1.134 0.802,2.353 2.208,4.328 1.109,1.557 2.48,5.901 2.48,5.901 z"
     id="path435" />
  <path
     style="fill:#ffffff;fill-opacity:1;fill-rule:nonzero;stroke:none"
     d="m 69.997271,45.664385 c -0.198,-0.142 0.209,-1.214 -0.266,-1.438 -0.478,-0.224 -0.978,0.386 -2.968,0.396 h -0.021 c -1.459,-0.042 -2.729,0.5 -3.355,1.594 -1.03,1.801 0.126,4.396 2.574,5.797 2.458,1.4 5.276,1.072 6.306,-0.729 0.991,-1.724 -0.03,-4.183 -2.27,-5.62"
     id="path436" />
  <path
     style="fill:none;stroke:#231f20;stroke-width:0.565977;stroke-linecap:butt;stroke-linejoin:miter;stroke-miterlimit:4;stroke-dasharray:none;stroke-opacity:1"
     d="m 69.997271,45.664385 c -0.198,-0.142 0.209,-1.214 -0.266,-1.438 -0.478,-0.224 -0.978,0.386 -2.968,0.396 h -0.021 c -1.459,-0.042 -2.729,0.5 -3.355,1.594 -1.03,1.801 0.126,4.396 2.574,5.797 2.458,1.4 5.276,1.072 6.306,-0.729 0.991,-1.724 -0.03,-4.183 -2.27,-5.62 z"
     id="path437" />
  <path
     style="fill:#231f20;fill-opacity:1;fill-rule:nonzero;stroke:none"
     d="m 76.117271,90.440385 c 3.682,1.577 3.437,-2.495 3.63,-2.938 1.995,-4.6 2.016,-4.98 3.287,-8.578 1.844,-5.219 2.301,-9.074 -0.412,-11.026 -1.844,-1.329 -3.489,-1.292 -4.599,-0.584 -1.218,0.792 -2.808,3.547 -1.458,6.104 l -0.12,1.704 c -0.23,1.14 -0.334,1.714 -0.484,2.26 -0.282,0.968 -0.516,2.016 -0.943,3.927 -0.755,3.385 -0.448,7.219 -0.448,7.219 -0.245,1.224 1.547,1.912 1.547,1.912"
     id="path438" />
  <path
     style="fill:none;stroke:#231f20;stroke-width:0.565977;stroke-linecap:butt;stroke-linejoin:miter;stroke-miterlimit:4;stroke-dasharray:none;stroke-opacity:1"
     d="m 76.117271,90.440385 c 3.682,1.577 3.437,-2.495 3.63,-2.938 1.995,-4.6 2.016,-4.98 3.287,-8.578 1.844,-5.219 2.301,-9.074 -0.412,-11.026 -1.844,-1.329 -3.489,-1.292 -4.599,-0.584 -1.218,0.792 -2.808,3.547 -1.458,6.104 l -0.12,1.704 c -0.23,1.14 -0.334,1.714 -0.484,2.26 -0.282,0.968 -0.516,2.016 -0.943,3.927 -0.755,3.385 -0.448,7.219 -0.448,7.219 -0.245,1.224 1.547,1.912 1.547,1.912 z"
     id="path439" />
  <path
     style="fill:#0098c9;fill-opacity:1;fill-rule:nonzero;stroke:none"
     d="m 84.586271,70.746385 c -0.375,-1.505 -1.141,-2.634 -2.464,-3.281 -2.031,-0.995 -3.64,-0.692 -4.62,0.193 -1.083,0.979 -2.187,3.968 -0.432,6.255 l 7.735,1.131 c 0.057,-0.656 0.073,-1.271 0.062,-1.86 0.026,-0.072 0.052,-0.14 0.083,-0.203 0.36,-0.724 0.104,-1.301 -0.364,-2.235"
     id="path440" />
  <path
     style="fill:none;stroke:#231f20;stroke-width:0.565977;stroke-linecap:butt;stroke-linejoin:miter;stroke-miterlimit:4;stroke-dasharray:none;stroke-opacity:1"
     d="m 84.586271,70.746385 c -0.375,-1.505 -1.141,-2.634 -2.464,-3.281 -2.031,-0.995 -3.64,-0.692 -4.62,0.193 -1.083,0.979 -2.187,3.968 -0.432,6.255 l 7.735,1.131 c 0.057,-0.656 0.073,-1.271 0.062,-1.86 0.026,-0.072 0.052,-0.14 0.083,-0.203 0.36,-0.724 0.104,-1.301 -0.364,-2.235 z"
     id="path441" />
  <path
     style="fill:#231f20;fill-opacity:1;fill-rule:nonzero;stroke:none"
     d="m 70.409271,34.669385 c 0.478,0.427 0.724,2.353 1.525,3.755 0.537,0.942 0.808,3.677 1.417,4.573 0.552,0.823 0.735,1.249 -0.098,2.047 -0.49,0.473 -1.746,1.068 -2.115,0.713 -0.871,-0.823 -1.24,-1.687 -1.453,-2.74 -0.24,-1.187 -0.604,-4.479 -0.615,-5.093 -0.016,-1.526 -0.484,-2.094 -0.531,-2.495 -0.084,-0.754 0.187,-0.978 0.662,-1.14 0.91,-0.302 1.208,0.38 1.208,0.38"
     id="path442" />
  <path
     style="fill:none;stroke:#231f20;stroke-width:0.565977;stroke-linecap:butt;stroke-linejoin:miter;stroke-miterlimit:4;stroke-dasharray:none;stroke-opacity:1"
     d="m 70.409271,34.669385 c 0.478,0.427 0.724,2.353 1.525,3.755 0.537,0.942 0.808,3.677 1.417,4.573 0.552,0.823 0.735,1.249 -0.098,2.047 -0.49,0.473 -1.746,1.068 -2.115,0.713 -0.871,-0.823 -1.24,-1.687 -1.453,-2.74 -0.24,-1.187 -0.604,-4.479 -0.615,-5.093 -0.016,-1.526 -0.484,-2.094 -0.531,-2.495 -0.084,-0.754 0.187,-0.978 0.662,-1.14 0.91,-0.302 1.208,0.38 1.208,0.38 z"
     id="path443" />
  <path
     style="fill:#231f20;fill-opacity:1;fill-rule:nonzero;stroke:none"
     d="m 72.810271,43.398385 c 1.281,-0.204 1.233,1.838 1.296,2.364 0.073,0.547 0.443,2.058 0.881,3.198 0.438,1.146 0.5,2.761 1.334,4.933 0.437,1.14 0.14,2.531 -1.543,3.093 -1.667,0.552 -2.604,-0.172 -2.927,-1.63 -0.322,-1.463 -0.005,-2.974 -0.229,-4.468 -0.213,-1.5 -0.583,-3 -0.921,-4.162 -0.391,-1.328 -0.09,-2.13 0.281,-2.433 0.921,-0.76 1.828,-0.895 1.828,-0.895"
     id="path444" />
  <path
     style="fill:none;stroke:#231f20;stroke-width:0.565977;stroke-linecap:butt;stroke-linejoin:miter;stroke-miterlimit:4;stroke-dasharray:none;stroke-opacity:1"
     d="m 72.810271,43.398385 c 1.281,-0.204 1.233,1.838 1.296,2.364 0.073,0.547 0.443,2.058 0.881,3.198 0.438,1.146 0.5,2.761 1.334,4.933 0.437,1.14 0.14,2.531 -1.543,3.093 -1.667,0.552 -2.604,-0.172 -2.927,-1.63 -0.322,-1.463 -0.005,-2.974 -0.229,-4.468 -0.213,-1.5 -0.583,-3 -0.921,-4.162 -0.391,-1.328 -0.09,-2.13 0.281,-2.433 0.921,-0.76 1.828,-0.895 1.828,-0.895 z"
     id="path445" />
  <path
     style="fill:#ffffff;fill-opacity:1;fill-rule:nonzero;stroke:none"
     d="m 70.835271,32.883385 c 0.366,0.958 -0.12,2.03 -1.077,2.401 -0.959,0.364 -2.037,-0.115 -2.401,-1.079 -0.366,-0.958 0.12,-2.036 1.077,-2.401 0.959,-0.364 2.032,0.12 2.401,1.079"
     id="path446" />
  <path
     style="fill:none;stroke:#231f20;stroke-width:1.33171;stroke-linecap:butt;stroke-linejoin:miter;stroke-miterlimit:4;stroke-dasharray:none;stroke-opacity:1"
     d="m 70.835271,32.883385 c 0.366,0.958 -0.12,2.03 -1.077,2.401 -0.959,0.364 -2.037,-0.115 -2.401,-1.079 -0.366,-0.958 0.12,-2.036 1.077,-2.401 0.959,-0.364 2.032,0.12 2.401,1.079 z"
     id="path447" />
  <path
     style="fill:#231f20;fill-opacity:1;fill-rule:nonzero;stroke:none"
     d="m 216.87827,61.028385 c -0.615,-1.203 0.056,-1.943 1.082,-2.078 0.303,-0.048 0.527,-0.39 0.823,-0.412 0.708,-0.03 1.959,1.183 1.213,2.484 -0.052,0.09 -0.229,0.891 -0.452,1.47 -0.444,1.13 -1.87,3.177 -4.532,3.625 -1.26,0.213 -1.15,-0.573 -0.672,-0.813 1.538,-0.766 1.522,-1.124 1.85,-1.474 1.125,-1.172 0.688,-2.802 0.688,-2.802"
     id="path448" />
  <path
     style="fill:none;stroke:#231f20;stroke-width:0.332927;stroke-linecap:butt;stroke-linejoin:miter;stroke-miterlimit:4;stroke-dasharray:none;stroke-opacity:1"
     d="m 216.87827,61.028385 c -0.615,-1.203 0.056,-1.943 1.082,-2.078 0.303,-0.048 0.527,-0.39 0.823,-0.412 0.708,-0.03 1.959,1.183 1.213,2.484 -0.052,0.09 -0.229,0.891 -0.452,1.47 -0.444,1.13 -1.87,3.177 -4.532,3.625 -1.26,0.213 -1.15,-0.573 -0.672,-0.813 1.538,-0.766 1.522,-1.124 1.85,-1.474 1.125,-1.172 0.688,-2.802 0.688,-2.802 z"
     id="path449" />
  <path
     style="fill:#231f20;fill-opacity:1;fill-rule:nonzero;stroke:none"
     d="m 226.46627,44.913385 c -1.902,-1.239 -2.432,-1.229 -3.011,-0.463 -0.391,0.51 -0.916,0.848 -1.167,1.146 -0.828,1.005 -1.812,3.021 -3.109,9.474 -0.297,1.463 -0.724,3.51 -0.964,4.343 -0.38,1.297 2.043,1.047 2.193,0.537 0.5,-1.641 0.979,-2.724 1.24,-3.292 0.176,-0.39 0.4,-1.114 1.286,-2.526 1.338,-2.14 2.464,-3.23 3.376,-5.135 0.421,-0.885 1.301,-1.281 1.27,-2.365 -0.026,-1.088 -1.114,-1.719 -1.114,-1.719"
     id="path450" />
  <path
     style="fill:none;stroke:#231f20;stroke-width:0.565977;stroke-linecap:butt;stroke-linejoin:miter;stroke-miterlimit:4;stroke-dasharray:none;stroke-opacity:1"
     d="m 226.46627,44.913385 c -1.902,-1.239 -2.432,-1.229 -3.011,-0.463 -0.391,0.51 -0.916,0.848 -1.167,1.146 -0.828,1.005 -1.812,3.021 -3.109,9.474 -0.297,1.463 -0.724,3.51 -0.964,4.343 -0.38,1.297 2.043,1.047 2.193,0.537 0.5,-1.641 0.979,-2.724 1.24,-3.292 0.176,-0.39 0.4,-1.114 1.286,-2.526 1.338,-2.14 2.464,-3.23 3.376,-5.135 0.421,-0.885 1.301,-1.281 1.27,-2.365 -0.026,-1.088 -1.114,-1.719 -1.114,-1.719 z"
     id="path451" />
  <path
     style="fill:#0098c9;fill-opacity:1;fill-rule:nonzero;stroke:none"
     d="m 235.53427,19.721385 c -1.298,2.854 -1.886,3.328 -2.563,3.948 -4.261,3.906 -2.261,5.922 0.536,6.62 3.287,0.823 4.453,1.176 6.495,-4.781 0.562,-1.652 3.573,-7.724 3.573,-7.724 1.369,-2.027 1.62,-4.735 0.859,-5.98 -0.802,-1.307 -0.578,-0.729 -1.542,-1.807 -0.916,-1.026 -3,-1.693 -4.046,-1.037 -1.011,0.631 -0.974,2.297 -1.235,4.704 -0.213,1.901 -2.077,6.057 -2.077,6.057"
     id="path452" />
  <path
     style="fill:none;stroke:#231f20;stroke-width:0.565977;stroke-linecap:butt;stroke-linejoin:miter;stroke-miterlimit:4;stroke-dasharray:none;stroke-opacity:1"
     d="m 235.53427,19.721385 c -1.298,2.854 -1.886,3.328 -2.563,3.948 -4.261,3.906 -2.261,5.922 0.536,6.62 3.287,0.823 4.453,1.176 6.495,-4.781 0.562,-1.652 3.573,-7.724 3.573,-7.724 1.369,-2.027 1.62,-4.735 0.859,-5.98 -0.802,-1.307 -0.578,-0.729 -1.542,-1.807 -0.916,-1.026 -3,-1.693 -4.046,-1.037 -1.011,0.631 -0.974,2.297 -1.235,4.704 -0.213,1.901 -2.077,6.057 -2.077,6.057 z"
     id="path453" />
  <path
     style="fill:#ffffff;fill-opacity:1;fill-rule:nonzero;stroke:none"
     d="m 248.68427,7.617385 c 0.183,-0.161 1.14,0.474 1.464,0.058 0.323,-0.418 -0.157,-1.038 0.266,-2.986 l 0.005,-0.014 c 0.353,-1.412 0.104,-2.776 -0.828,-3.62 -1.537,-1.40200001 -4.319,-0.84400001 -6.219,1.244 -1.906,2.089 -2.198,4.917 -0.662,6.313 1.464,1.344 4.089,0.885 5.974,-0.995"
     id="path454" />
  <path
     style="fill:none;stroke:#231f20;stroke-width:0.565977;stroke-linecap:butt;stroke-linejoin:miter;stroke-miterlimit:4;stroke-dasharray:none;stroke-opacity:1"
     d="m 248.68427,7.617385 c 0.183,-0.161 1.14,0.474 1.464,0.058 0.323,-0.418 -0.157,-1.038 0.266,-2.986 l 0.005,-0.014 c 0.353,-1.412 0.104,-2.776 -0.828,-3.62 -1.537,-1.40200001 -4.319,-0.84400001 -6.219,1.244 -1.906,2.089 -2.198,4.917 -0.662,6.313 1.464,1.344 4.089,0.885 5.974,-0.995 z"
     id="path455" />
  <path
     style="fill:#231f20;fill-opacity:1;fill-rule:nonzero;stroke:none"
     d="m 224.66827,46.617385 c 3.156,2.473 3.97,-1.527 4.266,-1.896 3.114,-3.932 3.24,-4.292 5.39,-7.443 3.131,-4.567 4.568,-8.171 2.443,-10.761 -1.437,-1.754 -3.031,-2.145 -4.285,-1.749 -1.391,0.448 -3.626,2.703 -2.991,5.521 l -0.552,1.619 c -0.515,1.043 -0.76,1.563 -1.057,2.057 -0.515,0.86 -1.01,1.813 -1.911,3.548 -1.609,3.083 -2.303,6.859 -2.303,6.859 -0.552,1.12 1,2.245 1,2.245"
     id="path456" />
  <path
     style="fill:none;stroke:#231f20;stroke-width:0.565977;stroke-linecap:butt;stroke-linejoin:miter;stroke-miterlimit:4;stroke-dasharray:none;stroke-opacity:1"
     d="m 224.66827,46.617385 c 3.156,2.473 3.97,-1.527 4.266,-1.896 3.114,-3.932 3.24,-4.292 5.39,-7.443 3.131,-4.567 4.568,-8.171 2.443,-10.761 -1.437,-1.754 -3.031,-2.145 -4.285,-1.749 -1.391,0.448 -3.626,2.703 -2.991,5.521 l -0.552,1.619 c -0.515,1.043 -0.76,1.563 -1.057,2.057 -0.515,0.86 -1.01,1.813 -1.911,3.548 -1.609,3.083 -2.303,6.859 -2.303,6.859 -0.552,1.12 1,2.245 1,2.245 z"
     id="path457" />
  <path
     style="fill:#0098c9;fill-opacity:1;fill-rule:nonzero;stroke:none"
     d="m 237.93427,29.784385 c 0.026,-1.552 -0.416,-2.844 -1.531,-3.813 -1.708,-1.49 -3.344,-1.61 -4.516,-1.006 -1.296,0.667 -3.135,3.267 -2.031,5.938 l 7.183,3.078 c 0.219,-0.614 0.391,-1.202 0.536,-1.77 0.047,-0.068 0.088,-0.131 0.135,-0.188 0.537,-0.599 0.438,-1.224 0.224,-2.239"
     id="path458" />
  <path
     style="fill:none;stroke:#231f20;stroke-width:0.565977;stroke-linecap:butt;stroke-linejoin:miter;stroke-miterlimit:4;stroke-dasharray:none;stroke-opacity:1"
     d="m 237.93427,29.784385 c 0.026,-1.552 -0.416,-2.844 -1.531,-3.813 -1.708,-1.49 -3.344,-1.61 -4.516,-1.006 -1.296,0.667 -3.135,3.267 -2.031,5.938 l 7.183,3.078 c 0.219,-0.614 0.391,-1.202 0.536,-1.77 0.047,-0.068 0.088,-0.131 0.135,-0.188 0.537,-0.599 0.438,-1.224 0.224,-2.239 z"
     id="path459" />
  <path
     style="fill:#231f20;fill-opacity:1;fill-rule:nonzero;stroke:none"
     d="m 240.20027,32.903385 c -0.39,-0.515 -0.245,-2.458 -0.75,-3.984 -0.344,-1.031 -0.063,-3.766 -0.484,-4.766 -0.38,-0.917 -0.47,-1.374 0.505,-1.989 0.577,-0.365 1.921,-0.693 2.213,-0.276 0.688,0.979 0.88,1.901 0.88,2.973 -0.005,1.214 -0.301,4.511 -0.41,5.115 -0.282,1.495 0.061,2.151 0.025,2.552 -0.068,0.761 -0.38,0.923 -0.869,0.985 -0.954,0.114 -1.11,-0.61 -1.11,-0.61"
     id="path460" />
  <path
     style="fill:none;stroke:#231f20;stroke-width:0.565977;stroke-linecap:butt;stroke-linejoin:miter;stroke-miterlimit:4;stroke-dasharray:none;stroke-opacity:1"
     d="m 240.20027,32.903385 c -0.39,-0.515 -0.245,-2.458 -0.75,-3.984 -0.344,-1.031 -0.063,-3.766 -0.484,-4.766 -0.38,-0.917 -0.47,-1.374 0.505,-1.989 0.577,-0.365 1.921,-0.693 2.213,-0.276 0.688,0.979 0.88,1.901 0.88,2.973 -0.005,1.214 -0.301,4.511 -0.41,5.115 -0.282,1.495 0.061,2.151 0.025,2.552 -0.068,0.761 -0.38,0.923 -0.869,0.985 -0.954,0.114 -1.11,-0.61 -1.11,-0.61 z"
     id="path461" />
  <path
     style="fill:#231f20;fill-opacity:1;fill-rule:nonzero;stroke:none"
     d="m 239.57527,23.867385 c -1.297,-0.052 -0.839,-2.042 -0.803,-2.578 0.043,-0.548 -0.02,-2.105 -0.228,-3.308 -0.204,-1.202 0.056,-2.797 -0.329,-5.093 -0.203,-1.204 0.365,-2.511 2.125,-2.724 1.746,-0.213 2.522,0.683 2.547,2.177 0.027,1.5 -0.583,2.911 -0.667,4.422 -0.082,1.51 -0.02,3.052 0.084,4.265 0.12,1.376 -0.338,2.104 -0.76,2.323 -1.053,0.568 -1.969,0.516 -1.969,0.516"
     id="path462" />
  <path
     style="fill:none;stroke:#231f20;stroke-width:0.565977;stroke-linecap:butt;stroke-linejoin:miter;stroke-miterlimit:4;stroke-dasharray:none;stroke-opacity:1"
     d="m 239.57527,23.867385 c -1.297,-0.052 -0.839,-2.042 -0.803,-2.578 0.043,-0.548 -0.02,-2.105 -0.228,-3.308 -0.204,-1.202 0.056,-2.797 -0.329,-5.093 -0.203,-1.204 0.365,-2.511 2.125,-2.724 1.746,-0.213 2.522,0.683 2.547,2.177 0.027,1.5 -0.583,2.911 -0.667,4.422 -0.082,1.51 -0.02,3.052 0.084,4.265 0.12,1.376 -0.338,2.104 -0.76,2.323 -1.053,0.568 -1.969,0.516 -1.969,0.516 z"
     id="path463" />
  <path
     style="fill:#ffffff;fill-opacity:1;fill-rule:nonzero;stroke:none"
     d="m 240.47627,35.861385 c -1.026,0.063 -1.906,-0.708 -1.974,-1.738 -0.068,-1.027 0.713,-1.907 1.74,-1.975 1.025,-0.063 1.906,0.713 1.973,1.74 0.068,1.02 -0.713,1.905 -1.739,1.973"
     id="path464" />
  <path
     style="fill:none;stroke:#231f20;stroke-width:1.33171;stroke-linecap:butt;stroke-linejoin:miter;stroke-miterlimit:4;stroke-dasharray:none;stroke-opacity:1"
     d="m 240.47627,35.861385 c -1.026,0.063 -1.906,-0.708 -1.974,-1.738 -0.068,-1.027 0.713,-1.907 1.74,-1.975 1.025,-0.063 1.906,0.713 1.973,1.74 0.068,1.02 -0.713,1.905 -1.739,1.973 z"
     id="path465" />
  <path
     style="fill:#231f20;fill-opacity:1;fill-rule:nonzero;stroke:none"
     d="m 148.59127,33.127385 c 0.406,-1.286 1.396,-1.338 2.23,-0.719 0.249,0.183 0.65,0.089 0.874,0.287 0.526,0.474 0.568,2.213 -0.88,2.62 -0.1,0.026 -0.792,0.474 -1.354,0.723 -1.11,0.5 -3.563,0.959 -5.771,-0.593 -1.047,-0.729 -0.417,-1.213 0.088,-1.046 1.631,0.536 1.876,0.265 2.36,0.244 1.62,-0.047 2.453,-1.516 2.453,-1.516"
     id="path466" />
  <path
     style="fill:none;stroke:#231f20;stroke-width:0.332927;stroke-linecap:butt;stroke-linejoin:miter;stroke-miterlimit:4;stroke-dasharray:none;stroke-opacity:1"
     d="m 148.59127,33.127385 c 0.406,-1.286 1.396,-1.338 2.23,-0.719 0.249,0.183 0.65,0.089 0.874,0.287 0.526,0.474 0.568,2.213 -0.88,2.62 -0.1,0.026 -0.792,0.474 -1.354,0.723 -1.11,0.5 -3.563,0.959 -5.771,-0.593 -1.047,-0.729 -0.417,-1.213 0.088,-1.046 1.631,0.536 1.876,0.265 2.36,0.244 1.62,-0.047 2.453,-1.516 2.453,-1.516 z"
     id="path467" />
  <path
     style="fill:#231f20;fill-opacity:1;fill-rule:nonzero;stroke:none"
     d="m 166.72627,28.377385 c -0.479,-2.218 -0.87,-2.584 -1.818,-2.442 -0.636,0.088 -1.254,-0.036 -1.636,0 -1.296,0.13 -3.415,0.88 -8.863,4.562 -1.235,0.839 -2.975,2 -3.735,2.416 -1.177,0.662 0.719,2.183 1.188,1.928 1.505,-0.818 2.604,-1.256 3.192,-1.474 0.396,-0.156 1.068,-0.516 2.693,-0.902 2.459,-0.582 4.016,-0.566 6,-1.29 0.927,-0.334 1.828,0.005 2.568,-0.798 0.744,-0.786 0.411,-2 0.411,-2"
     id="path468" />
  <path
     style="fill:none;stroke:#231f20;stroke-width:0.565977;stroke-linecap:butt;stroke-linejoin:miter;stroke-miterlimit:4;stroke-dasharray:none;stroke-opacity:1"
     d="m 166.72627,28.377385 c -0.479,-2.218 -0.87,-2.584 -1.818,-2.442 -0.636,0.088 -1.254,-0.036 -1.636,0 -1.296,0.13 -3.415,0.88 -8.863,4.562 -1.235,0.839 -2.975,2 -3.735,2.416 -1.177,0.662 0.719,2.183 1.188,1.928 1.505,-0.818 2.604,-1.256 3.192,-1.474 0.396,-0.156 1.068,-0.516 2.693,-0.902 2.459,-0.582 4.016,-0.566 6,-1.29 0.927,-0.334 1.828,0.005 2.568,-0.798 0.744,-0.786 0.411,-2 0.411,-2 z"
     id="path469" />
  <path
     style="fill:#0098c9;fill-opacity:1;fill-rule:nonzero;stroke:none"
     d="m 192.38727,23.637385 c -2.681,-1.629 -3.077,-2.27 -3.615,-3.02 -3.358,-4.704 -5.604,-2.964 -6.634,-0.27 -1.208,3.161 -1.708,4.276 3.953,7.025 1.577,0.76 7.239,4.479 7.239,4.479 1.849,1.614 4.505,2.188 5.828,1.584 1.401,-0.636 0.797,-0.484 1.98,-1.308 1.129,-0.786 2.046,-2.776 1.52,-3.895 -0.495,-1.079 -2.156,-1.245 -4.515,-1.797 -1.865,-0.438 -5.756,-2.798 -5.756,-2.798"
     id="path470" />
  <path
     style="fill:none;stroke:#231f20;stroke-width:0.565977;stroke-linecap:butt;stroke-linejoin:miter;stroke-miterlimit:4;stroke-dasharray:none;stroke-opacity:1"
     d="m 192.38727,23.637385 c -2.681,-1.629 -3.077,-2.27 -3.615,-3.02 -3.358,-4.704 -5.604,-2.964 -6.634,-0.27 -1.208,3.161 -1.708,4.276 3.953,7.025 1.577,0.76 7.239,4.479 7.239,4.479 1.849,1.614 4.505,2.188 5.828,1.584 1.401,-0.636 0.797,-0.484 1.98,-1.308 1.129,-0.786 2.046,-2.776 1.52,-3.895 -0.495,-1.079 -2.156,-1.245 -4.515,-1.797 -1.865,-0.438 -5.756,-2.798 -5.756,-2.798 z"
     id="path471" />
  <path
     style="fill:#ffffff;fill-opacity:1;fill-rule:nonzero;stroke:none"
     d="m 204.36227,37.356385 c 0.172,0.177 -0.407,1.166 0.025,1.464 0.437,0.297 1.027,-0.214 2.995,0.098 l 0.016,0.006 c 1.432,0.276 2.776,-0.052 3.568,-1.031 1.312,-1.609 0.598,-4.36 -1.59,-6.136 -2.197,-1.786 -5.03,-1.921 -6.337,-0.312 -1.261,1.542 -0.657,4.135 1.323,5.911"
     id="path472" />
  <path
     style="fill:none;stroke:#231f20;stroke-width:0.565977;stroke-linecap:butt;stroke-linejoin:miter;stroke-miterlimit:4;stroke-dasharray:none;stroke-opacity:1"
     d="m 204.36227,37.356385 c 0.172,0.177 -0.407,1.166 0.025,1.464 0.437,0.297 1.027,-0.214 2.995,0.098 l 0.016,0.006 c 1.432,0.276 2.776,-0.052 3.568,-1.031 1.312,-1.609 0.598,-4.36 -1.59,-6.136 -2.197,-1.786 -5.03,-1.921 -6.337,-0.312 -1.261,1.542 -0.657,4.135 1.323,5.911 z"
     id="path473" />
  <path
     style="fill:#231f20;fill-opacity:1;fill-rule:nonzero;stroke:none"
     d="m 164.25227,28.331385 c 0.515,3.978 3.896,1.697 4.37,1.64 4.978,-0.615 5.317,-0.787 9.068,-1.515 5.426,-1.063 8.978,-2.62 9.286,-5.953 0.208,-2.262 -0.656,-3.656 -1.828,-4.256 -1.302,-0.651 -4.48,-0.624 -6,1.833 l -1.532,0.767 c -1.098,0.385 -1.64,0.577 -2.197,0.722 -0.969,0.256 -1.989,0.584 -3.855,1.183 -3.306,1.068 -6.448,3.276 -6.448,3.276 -1.182,0.412 -0.864,2.303 -0.864,2.303"
     id="path474" />
  <path
     style="fill:none;stroke:#231f20;stroke-width:0.565977;stroke-linecap:butt;stroke-linejoin:miter;stroke-miterlimit:4;stroke-dasharray:none;stroke-opacity:1"
     d="m 164.25227,28.331385 c 0.515,3.978 3.896,1.697 4.37,1.64 4.978,-0.615 5.317,-0.787 9.068,-1.515 5.426,-1.063 8.978,-2.62 9.286,-5.953 0.208,-2.262 -0.656,-3.656 -1.828,-4.256 -1.302,-0.651 -4.48,-0.624 -6,1.833 l -1.532,0.767 c -1.098,0.385 -1.64,0.577 -2.197,0.722 -0.969,0.256 -1.989,0.584 -3.855,1.183 -3.306,1.068 -6.448,3.276 -6.448,3.276 -1.182,0.412 -0.864,2.303 -0.864,2.303 z"
     id="path475" />
  <path
     style="fill:#0098c9;fill-opacity:1;fill-rule:nonzero;stroke:none"
     d="m 184.58627,17.971385 c -1.391,-0.438 -4.527,0.125 -5.61,2.802 l 2.954,7.235 c 3.385,-1.631 5.374,-3.516 5.17,-6.152 -0.176,-2.26 -1.254,-3.495 -2.514,-3.885"
     id="path476" />
  <path
     style="fill:none;stroke:#231f20;stroke-width:0.565977;stroke-linecap:butt;stroke-linejoin:miter;stroke-miterlimit:4;stroke-dasharray:none;stroke-opacity:1"
     d="m 184.58627,17.971385 c -1.391,-0.438 -4.527,0.125 -5.61,2.802 l 2.954,7.235 c 3.385,-1.631 5.374,-3.516 5.17,-6.152 -0.176,-2.26 -1.254,-3.495 -2.514,-3.885 z"
     id="path477" />
  <path
     style="fill:#231f20;fill-opacity:1;fill-rule:nonzero;stroke:none"
     d="m 185.68427,32.137385 c -0.104,-0.634 0.922,-2.29 1.183,-3.874 0.176,-1.074 1.692,-3.364 1.787,-4.448 0.082,-0.984 0.218,-1.432 1.369,-1.526 0.683,-0.053 2.025,0.28 2.088,0.786 0.152,1.177 -0.104,2.089 -0.599,3.037 -0.568,1.077 -2.364,3.859 -2.74,4.344 -0.948,1.192 -0.942,1.927 -1.166,2.271 -0.406,0.64 -0.755,0.64 -1.23,0.462 -0.894,-0.338 -0.692,-1.052 -0.692,-1.052"
     id="path478" />
  <path
     style="fill:none;stroke:#231f20;stroke-width:0.565977;stroke-linecap:butt;stroke-linejoin:miter;stroke-miterlimit:4;stroke-dasharray:none;stroke-opacity:1"
     d="m 185.68427,32.137385 c -0.104,-0.634 0.922,-2.29 1.183,-3.874 0.176,-1.074 1.692,-3.364 1.787,-4.448 0.082,-0.984 0.218,-1.432 1.369,-1.526 0.683,-0.053 2.025,0.28 2.088,0.786 0.152,1.177 -0.104,2.089 -0.599,3.037 -0.568,1.077 -2.364,3.859 -2.74,4.344 -0.948,1.192 -0.942,1.927 -1.166,2.271 -0.406,0.64 -0.755,0.64 -1.23,0.462 -0.894,-0.338 -0.692,-1.052 -0.692,-1.052 z"
     id="path479" />
  <path
     style="fill:#231f20;fill-opacity:1;fill-rule:nonzero;stroke:none"
     d="m 190.05927,22.684385 c 0.74,-1.061 2.167,0.391 2.599,0.715 0.438,0.328 1.776,1.114 2.906,1.598 1.126,0.474 2.323,1.558 4.464,2.468 1.12,0.486 1.916,1.662 1.146,3.262 -0.76,1.588 -1.938,1.754 -3.208,0.968 -1.276,-0.787 -2.136,-2.068 -3.366,-2.948 -1.224,-0.886 -2.557,-1.672 -3.629,-2.234 -1.224,-0.652 -1.589,-1.422 -1.547,-1.896 0.094,-1.193 0.635,-1.933 0.635,-1.933"
     id="path480" />
  <path
     style="fill:none;stroke:#231f20;stroke-width:0.565977;stroke-linecap:butt;stroke-linejoin:miter;stroke-miterlimit:4;stroke-dasharray:none;stroke-opacity:1"
     d="m 190.05927,22.684385 c 0.74,-1.061 2.167,0.391 2.599,0.715 0.438,0.328 1.776,1.114 2.906,1.598 1.126,0.474 2.323,1.558 4.464,2.468 1.12,0.486 1.916,1.662 1.146,3.262 -0.76,1.588 -1.938,1.754 -3.208,0.968 -1.276,-0.787 -2.136,-2.068 -3.366,-2.948 -1.224,-0.886 -2.557,-1.672 -3.629,-2.234 -1.224,-0.652 -1.589,-1.422 -1.547,-1.896 0.094,-1.193 0.635,-1.933 0.635,-1.933 z"
     id="path481" />
  <path
     style="fill:#ffffff;fill-opacity:1;fill-rule:nonzero;stroke:none"
     d="m 184.55427,34.888385 c -0.938,-0.423 -1.359,-1.516 -0.943,-2.453 0.417,-0.943 1.521,-1.364 2.459,-0.948 0.937,0.421 1.36,1.521 0.937,2.458 -0.416,0.938 -1.511,1.359 -2.453,0.943"
     id="path482" />
  <path
     style="fill:none;stroke:#231f20;stroke-width:1.33171;stroke-linecap:butt;stroke-linejoin:miter;stroke-miterlimit:4;stroke-dasharray:none;stroke-opacity:1"
     d="m 184.55427,34.888385 c -0.938,-0.423 -1.359,-1.516 -0.943,-2.453 0.417,-0.943 1.521,-1.364 2.459,-0.948 0.937,0.421 1.36,1.521 0.937,2.458 -0.416,0.938 -1.511,1.359 -2.453,0.943 z"
     id="path483" />
</svg>
