<?xml version="1.0" encoding="UTF-8" standalone="no"?>
<!-- Created with Inkscape (http://www.inkscape.org/) -->

<svg
   version="1.1"
   id="svg1"
   width="312.41458"
   height="99.390106"
   viewBox="0 0 312.41457 99.390106"
   sodipodi:docname="cell.svg"
   xmlns:inkscape="http://www.inkscape.org/namespaces/inkscape"
   xmlns:sodipodi="http://sodipodi.sourceforge.net/DTD/sodipodi-0.dtd"
   xmlns="http://www.w3.org/2000/svg"
   xmlns:svg="http://www.w3.org/2000/svg">
  <sodipodi:namedview
     id="namedview1"
     pagecolor="#ffffff"
     bordercolor="#000000"
     borderopacity="0.25"
     inkscape:showpageshadow="2"
     inkscape:pageopacity="0.0"
     inkscape:pagecheckerboard="0"
     inkscape:deskcolor="#d1d1d1">
    <inkscape:page
       x="0"
       y="0"
       inkscape:label="1"
       id="page1"
       width="312.41458"
       height="99.390106"
       margin="0"
       bleed="0" />
  </sodipodi:namedview>
  <defs
     id="defs1" />
  <path
     style="fill:#231f20;fill-opacity:1;fill-rule:nonzero;stroke:none"
     d="m 4.6564766,8.1391135 c 1.318,-0.2973 1.864,0.5307 1.746,1.5627 -0.032,0.3066995 0.254,0.6092995 0.197,0.9012995 -0.14,0.692 -1.625,1.6093 -2.703,0.5627 -0.073,-0.0734 -0.808,-0.4387 -1.308,-0.8027 -0.994,-0.7025995 -2.62500002,-2.5932995 -2.40100002,-5.2812995 0.1,-1.276 0.83300002,-0.9733 0.94800002,-0.4533 0.36,1.672 0.719,1.76 0.975,2.156 0.864,1.3813 2.546,1.3546 2.546,1.3546"
     id="path498" />
  <path
     style="fill:none;stroke:#231f20;stroke-width:0.332927;stroke-linecap:butt;stroke-linejoin:miter;stroke-miterlimit:4;stroke-dasharray:none;stroke-opacity:1"
     d="m 4.6564766,8.1391135 c 1.318,-0.2973 1.864,0.5307 1.746,1.5627 -0.032,0.3066995 0.254,0.6092995 0.197,0.9012995 -0.14,0.692 -1.625,1.6093 -2.703,0.5627 -0.073,-0.0734 -0.808,-0.4387 -1.308,-0.8027 -0.994,-0.7025995 -2.62500002,-2.5932995 -2.40100002,-5.2812995 0.1,-1.276 0.83300002,-0.9733 0.94800002,-0.4533 0.36,1.672 0.719,1.76 0.975,2.156 0.864,1.3813 2.546,1.3546 2.546,1.3546 z"
     id="path499" />
  <path
     style="fill:#231f20;fill-opacity:1;fill-rule:nonzero;stroke:none"
     d="m 17.922477,21.393813 c 1.666,-1.5307 1.792,-2.0574 1.188,-2.8014 -0.396,-0.5 -0.599,-1.0986 -0.828,-1.412 -0.762,-1.052 -2.48,-2.5 -8.4120004,-5.344 -1.35,-0.64 -3.235,-1.5573 -3.968,-2.0038995 -1.172,-0.6827 -1.527,1.7225995 -1.074,1.9945995 1.474,0.8947 2.407,1.6147 2.891,2.0147 0.333,0.2666 0.984,0.6666 2.131,1.8653 1.7490004,1.828 2.5200004,3.1813 4.1500004,4.5307 0.755,0.6306 0.922,1.584 1.979,1.8173 1.063,0.2507 1.943,-0.6613 1.943,-0.6613"
     id="path500" />
  <path
     style="fill:none;stroke:#231f20;stroke-width:0.565977;stroke-linecap:butt;stroke-linejoin:miter;stroke-miterlimit:4;stroke-dasharray:none;stroke-opacity:1"
     d="m 17.922477,21.393813 c 1.666,-1.5307 1.792,-2.0574 1.188,-2.8014 -0.396,-0.5 -0.599,-1.0986 -0.828,-1.412 -0.762,-1.052 -2.48,-2.5 -8.4120004,-5.344 -1.35,-0.64 -3.235,-1.5573 -3.968,-2.0038995 -1.172,-0.6827 -1.527,1.7225995 -1.074,1.9945995 1.474,0.8947 2.407,1.6147 2.891,2.0147 0.333,0.2666 0.984,0.6666 2.131,1.8653 1.7490004,1.828 2.5200004,3.1813 4.1500004,4.5307 0.755,0.6306 0.922,1.584 1.979,1.8173 1.063,0.2507 1.943,-0.6613 1.943,-0.6613 z"
     id="path501" />
  <path
     style="fill:#0098c9;fill-opacity:1;fill-rule:nonzero;stroke:none"
     d="m 39.495477,35.779113 c -2.38,-2.036 -2.672,-2.7334 -3.073,-3.5574 -2.563,-5.1866 -5.063,-3.8333 -6.506,-1.3373 -1.708,2.9267 -2.38,3.948 2.766,7.572 1.433,1.0053 6.422,5.5893 6.422,5.5893 1.558,1.88 4.094,2.88 5.495,2.5 1.484,-0.4013 0.864,-0.3493 2.167,-0.9747 1.245,-0.5933 2.464,-2.4106 2.13,-3.5933 -0.318,-1.1453 -1.933,-1.5787 -4.172,-2.5053 -1.765,-0.7347 -5.229,-3.6933 -5.229,-3.6933"
     id="path502" />
  <path
     style="fill:none;stroke:#231f20;stroke-width:0.565977;stroke-linecap:butt;stroke-linejoin:miter;stroke-miterlimit:4;stroke-dasharray:none;stroke-opacity:1"
     d="m 39.495477,35.779113 c -2.38,-2.036 -2.672,-2.7334 -3.073,-3.5574 -2.563,-5.1866 -5.063,-3.8333 -6.506,-1.3373 -1.708,2.9267 -2.38,3.948 2.766,7.572 1.433,1.0053 6.422,5.5893 6.422,5.5893 1.558,1.88 4.094,2.88 5.495,2.5 1.484,-0.4013 0.864,-0.3493 2.167,-0.9747 1.245,-0.5933 2.464,-2.4106 2.13,-3.5933 -0.318,-1.1453 -1.933,-1.5787 -4.172,-2.5053 -1.765,-0.7347 -5.229,-3.6933 -5.229,-3.6933 z"
     id="path503" />
  <path
     style="fill:#ffffff;fill-opacity:1;fill-rule:nonzero;stroke:none"
     d="m 51.859477,49.888413 c 0.204,0.1413 -0.187,1.2199 0.292,1.4386 0.484,0.2133 0.975,-0.4067 2.964,-0.4533 h 0.02 c 1.453,0.0146 2.718,-0.5574 3.318,-1.6613 0.995,-1.824 -0.209,-4.396 -2.687,-5.7454 -2.484,-1.3546 -5.298,-0.9733 -6.292,0.8547 -0.954,1.744 0.114,4.1773 2.385,5.5667"
     id="path504" />
  <path
     style="fill:none;stroke:#231f20;stroke-width:0.565977;stroke-linecap:butt;stroke-linejoin:miter;stroke-miterlimit:4;stroke-dasharray:none;stroke-opacity:1"
     d="m 51.859477,49.888413 c 0.204,0.1413 -0.187,1.2199 0.292,1.4386 0.484,0.2133 0.975,-0.4067 2.964,-0.4533 h 0.02 c 1.453,0.0146 2.718,-0.5574 3.318,-1.6613 0.995,-1.824 -0.209,-4.396 -2.687,-5.7454 -2.484,-1.3546 -5.298,-0.9733 -6.292,0.8547 -0.954,1.744 0.114,4.1773 2.385,5.5667 z"
     id="path505" />
  <path
     style="fill:#231f20;fill-opacity:1;fill-rule:nonzero;stroke:none"
     d="m 16.714477,19.237813 c -3.183,2.448 0.494,4.224 0.786,4.6039 3.042,3.98 3.364,4.188 5.886,7.0574 3.656,4.1466 6.797,6.4279 9.828,5.0053 2.057,-0.9627 2.828,-2.4107 2.749,-3.7293 -0.088,-1.4534 -1.724,-4.1774 -4.615,-4.244 l -1.432,-0.9427 c -0.885,-0.7507 -1.322,-1.1147 -1.729,-1.5267 -0.713,-0.708 -1.515,-1.4213 -2.973,-2.7293 -2.588,-2.312 -6.084,-3.9106 -6.084,-3.9106 -0.947,-0.8134 -2.416,0.416 -2.416,0.416"
     id="path506" />
  <path
     style="fill:none;stroke:#231f20;stroke-width:0.565977;stroke-linecap:butt;stroke-linejoin:miter;stroke-miterlimit:4;stroke-dasharray:none;stroke-opacity:1"
     d="m 16.714477,19.237813 c -3.183,2.448 0.494,4.224 0.786,4.6039 3.042,3.98 3.364,4.188 5.886,7.0574 3.656,4.1466 6.797,6.4279 9.828,5.0053 2.057,-0.9627 2.828,-2.4107 2.749,-3.7293 -0.088,-1.4534 -1.724,-4.1774 -4.615,-4.244 l -1.432,-0.9427 c -0.885,-0.7507 -1.322,-1.1147 -1.729,-1.5267 -0.713,-0.708 -1.515,-1.4213 -2.973,-2.7293 -2.588,-2.312 -6.084,-3.9106 -6.084,-3.9106 -0.947,-0.8134 -2.416,0.416 -2.416,0.416 z"
     id="path507" />
  <path
     style="fill:#0098c9;fill-opacity:1;fill-rule:nonzero;stroke:none"
     d="m 35.916477,31.555113 c -0.322,-1.4214 -2.396,-3.8427 -5.249,-3.4267 l -4.756,6.2027 c 0.548,0.3653 1.068,0.672 1.584,0.9533 0.052,0.0573 0.109,0.12 0.151,0.1827 0.453,0.6666 1.084,0.724 2.12,0.7653 1.5,0.412 2.86,0.2973 4.068,-0.5413 1.869,-1.2974 2.385,-2.8494 2.082,-4.136"
     id="path508" />
  <path
     style="fill:none;stroke:#231f20;stroke-width:0.565977;stroke-linecap:butt;stroke-linejoin:miter;stroke-miterlimit:4;stroke-dasharray:none;stroke-opacity:1"
     d="m 35.916477,31.555113 c -0.322,-1.4214 -2.396,-3.8427 -5.249,-3.4267 l -4.756,6.2027 c 0.548,0.3653 1.068,0.672 1.584,0.9533 0.052,0.0573 0.109,0.12 0.151,0.1827 0.453,0.6666 1.084,0.724 2.12,0.7653 1.5,0.412 2.86,0.2973 4.068,-0.5413 1.869,-1.2974 2.385,-2.8494 2.082,-4.136 z"
     id="path509" />
  <path
     style="fill:#231f20;fill-opacity:1;fill-rule:nonzero;stroke:none"
     d="m 46.282477,63.045713 c -0.402,-0.5054 -0.319,-2.448 -0.871,-3.964 -0.369,-1.016 -0.172,-3.76 -0.619,-4.7454 -0.406,-0.9053 -0.51,-1.3586 0.443,-2.0053 0.567,-0.38 1.9,-0.7493 2.208,-0.3373 0.708,0.952 0.932,1.8746 0.968,2.9426 0.027,1.2134 -0.172,4.52 -0.265,5.124 -0.235,1.5054 0.13,2.1467 0.098,2.552 -0.041,0.7614 -0.342,0.928 -0.842,1.0053 -0.943,0.152 -1.12,-0.5719 -1.12,-0.5719"
     id="path510" />
  <path
     style="fill:none;stroke:#231f20;stroke-width:0.565977;stroke-linecap:butt;stroke-linejoin:miter;stroke-miterlimit:4;stroke-dasharray:none;stroke-opacity:1"
     d="m 46.282477,63.045713 c -0.402,-0.5054 -0.319,-2.448 -0.871,-3.964 -0.369,-1.016 -0.172,-3.76 -0.619,-4.7454 -0.406,-0.9053 -0.51,-1.3586 0.443,-2.0053 0.567,-0.38 1.9,-0.7493 2.208,-0.3373 0.708,0.952 0.932,1.8746 0.968,2.9426 0.027,1.2134 -0.172,4.52 -0.265,5.124 -0.235,1.5054 0.13,2.1467 0.098,2.552 -0.041,0.7614 -0.342,0.928 -0.842,1.0053 -0.943,0.152 -1.12,-0.5719 -1.12,-0.5719 z"
     id="path511" />
  <path
     style="fill:#231f20;fill-opacity:1;fill-rule:nonzero;stroke:none"
     d="m 45.391477,54.029713 c -1.303,-0.016 -0.901,-2.016 -0.88,-2.552 0.025,-0.5467 -0.084,-2.0987 -0.328,-3.2973 -0.235,-1.2027 -0.021,-2.796 -0.475,-5.0827 -0.24,-1.204 0.292,-2.516 2.047,-2.792 1.729,-0.2653 2.537,0.6093 2.604,2.1093 0.068,1.4894 -0.495,2.9214 -0.531,4.4374 -0.036,1.5106 0.068,3.052 0.208,4.2599 0.156,1.376 -0.276,2.1147 -0.692,2.3494 -1.042,0.5893 -1.953,0.568 -1.953,0.568"
     id="path512" />
  <path
     style="fill:none;stroke:#231f20;stroke-width:0.565977;stroke-linecap:butt;stroke-linejoin:miter;stroke-miterlimit:4;stroke-dasharray:none;stroke-opacity:1"
     d="m 45.391477,54.029713 c -1.303,-0.016 -0.901,-2.016 -0.88,-2.552 0.025,-0.5467 -0.084,-2.0987 -0.328,-3.2973 -0.235,-1.2027 -0.021,-2.796 -0.475,-5.0827 -0.24,-1.204 0.292,-2.516 2.047,-2.792 1.729,-0.2653 2.537,0.6093 2.604,2.1093 0.068,1.4894 -0.495,2.9214 -0.531,4.4374 -0.036,1.5106 0.068,3.052 0.208,4.2599 0.156,1.376 -0.276,2.1147 -0.692,2.3494 -1.042,0.5893 -1.953,0.568 -1.953,0.568 z"
     id="path513" />
  <path
     style="fill:#ffffff;fill-opacity:1;fill-rule:nonzero;stroke:none"
     d="m 49.526477,64.721613 c -0.411,-0.9426 -1.511,-1.3693 -2.448,-0.9573 -0.938,0.4107 -1.37,1.5107 -0.952,2.4533 0.405,0.9427 1.509,1.3694 2.446,0.952 0.944,-0.4106 1.371,-1.5093 0.954,-2.448"
     id="path514" />
  <path
     style="fill:none;stroke:#231f20;stroke-width:1.33171;stroke-linecap:butt;stroke-linejoin:miter;stroke-miterlimit:4;stroke-dasharray:none;stroke-opacity:1"
     d="m 49.526477,64.721613 c -0.411,-0.9426 -1.511,-1.3693 -2.448,-0.9573 -0.938,0.4107 -1.37,1.5107 -0.952,2.4533 0.405,0.9427 1.509,1.3694 2.446,0.952 0.944,-0.4106 1.371,-1.5093 0.954,-2.448 z"
     id="path515" />
  <path
     style="fill:#231f20;fill-opacity:1;fill-rule:nonzero;stroke:none"
     d="m 241.20847,44.232413 c 0.754,-1.124 1.718,-0.896 2.338,-0.0667 0.192,0.244 0.61,0.2653 0.766,0.5147 0.374,0.604 -0.078,2.2866 -1.578,2.2706 -0.1,0 -0.885,0.2347 -1.5,0.3187 -1.209,0.1667 -3.688,-0.084 -5.376,-2.1827 -0.801,-1 -0.062,-1.2866 0.38,-0.984 1.407,0.968 1.73,0.7814 2.188,0.8947 1.579,0.4067 2.782,-0.7653 2.782,-0.7653"
     id="path516" />
  <path
     style="fill:none;stroke:#231f20;stroke-width:0.332927;stroke-linecap:butt;stroke-linejoin:miter;stroke-miterlimit:4;stroke-dasharray:none;stroke-opacity:1"
     d="m 241.20847,44.232413 c 0.754,-1.124 1.718,-0.896 2.338,-0.0667 0.192,0.244 0.61,0.2653 0.766,0.5147 0.374,0.604 -0.078,2.2866 -1.578,2.2706 -0.1,0 -0.885,0.2347 -1.5,0.3187 -1.209,0.1667 -3.688,-0.084 -5.376,-2.1827 -0.801,-1 -0.062,-1.2866 0.38,-0.984 1.407,0.968 1.73,0.7814 2.188,0.8947 1.579,0.4067 2.782,-0.7653 2.782,-0.7653 z"
     id="path517" />
  <path
     style="fill:#231f20;fill-opacity:1;fill-rule:nonzero;stroke:none"
     d="m 259.95347,44.737713 c 0.156,-2.26 -0.115,-2.724 -1.068,-2.8493 -0.625,-0.0934 -1.188,-0.3894 -1.568,-0.4574 -1.276,-0.24 -3.521,-0.1146 -9.781,1.9 -1.427,0.464 -3.422,1.0894 -4.26,1.2774 -1.323,0.3066 0.072,2.296 0.593,2.1813 1.683,-0.3587 2.855,-0.4787 3.484,-0.5253 0.423,-0.0374 1.167,-0.1934 2.829,-0.1094 2.526,0.1294 4.015,0.5827 6.124,0.4427 0.986,-0.0627 1.766,0.5107 2.688,-0.0467 0.943,-0.548 0.959,-1.8133 0.959,-1.8133"
     id="path518" />
  <path
     style="fill:none;stroke:#231f20;stroke-width:0.565977;stroke-linecap:butt;stroke-linejoin:miter;stroke-miterlimit:4;stroke-dasharray:none;stroke-opacity:1"
     d="m 259.95347,44.737713 c 0.156,-2.26 -0.115,-2.724 -1.068,-2.8493 -0.625,-0.0934 -1.188,-0.3894 -1.568,-0.4574 -1.276,-0.24 -3.521,-0.1146 -9.781,1.9 -1.427,0.464 -3.422,1.0894 -4.26,1.2774 -1.323,0.3066 0.072,2.296 0.593,2.1813 1.683,-0.3587 2.855,-0.4787 3.484,-0.5253 0.423,-0.0374 1.167,-0.1934 2.829,-0.1094 2.526,0.1294 4.015,0.5827 6.124,0.4427 0.986,-0.0627 1.766,0.5107 2.688,-0.0467 0.943,-0.548 0.959,-1.8133 0.959,-1.8133 z"
     id="path519" />
  <path
     style="fill:#0098c9;fill-opacity:1;fill-rule:nonzero;stroke:none"
     d="m 285.79647,44.565713 c -2.834,-1.3387 -3.296,-1.932 -3.906,-2.62 -3.838,-4.3227 -5.89,-2.3587 -6.63,0.4333 -0.87,3.276 -1.25,4.432 4.677,6.5667 1.645,0.5893 7.667,3.6933 7.667,3.6933 2.005,1.4013 4.708,1.6973 5.964,0.9587 1.317,-0.7814 0.738,-0.568 1.828,-1.5107 1.046,-0.9067 1.744,-2.9746 1.104,-4.032 -0.61,-1.02 -2.276,-1.0093 -4.683,-1.312 -1.901,-0.244 -6.021,-2.1773 -6.021,-2.1773"
     id="path520" />
  <path
     style="fill:none;stroke:#231f20;stroke-width:0.565977;stroke-linecap:butt;stroke-linejoin:miter;stroke-miterlimit:4;stroke-dasharray:none;stroke-opacity:1"
     d="m 285.79647,44.565713 c -2.834,-1.3387 -3.296,-1.932 -3.906,-2.62 -3.838,-4.3227 -5.89,-2.3587 -6.63,0.4333 -0.87,3.276 -1.25,4.432 4.677,6.5667 1.645,0.5893 7.667,3.6933 7.667,3.6933 2.005,1.4013 4.708,1.6973 5.964,0.9587 1.317,-0.7814 0.738,-0.568 1.828,-1.5107 1.046,-0.9067 1.744,-2.9746 1.104,-4.032 -0.61,-1.02 -2.276,-1.0093 -4.683,-1.312 -1.901,-0.244 -6.021,-2.1773 -6.021,-2.1773 z"
     id="path521" />
  <path
     style="fill:#ffffff;fill-opacity:1;fill-rule:nonzero;stroke:none"
     d="m 301.43747,56.873713 c 0.229,0.0826 0.14,1.2293 0.661,1.312 0.516,0.0786 0.828,-0.6507 2.735,-1.2187 l 0.02,-0.0107 c 1.407,-0.364 2.475,-1.2546 2.761,-2.4786 0.479,-2.0214 -1.365,-4.1774 -4.114,-4.828 -2.751,-0.6467 -5.366,0.4627 -5.839,2.4893 -0.464,1.932 1.213,4 3.776,4.7347"
     id="path522" />
  <path
     style="fill:none;stroke:#231f20;stroke-width:0.565977;stroke-linecap:butt;stroke-linejoin:miter;stroke-miterlimit:4;stroke-dasharray:none;stroke-opacity:1"
     d="m 301.43747,56.873713 c 0.229,0.0826 0.14,1.2293 0.661,1.312 0.516,0.0786 0.828,-0.6507 2.735,-1.2187 l 0.02,-0.0107 c 1.407,-0.364 2.475,-1.2546 2.761,-2.4786 0.479,-2.0214 -1.365,-4.1774 -4.114,-4.828 -2.751,-0.6467 -5.366,0.4627 -5.839,2.4893 -0.464,1.932 1.213,4 3.776,4.7347 z"
     id="path523" />
  <path
     style="fill:#231f20;fill-opacity:1;fill-rule:nonzero;stroke:none"
     d="m 257.59347,44.003013 c -0.625,3.9587 3.26,2.724 3.735,2.7974 4.942,0.8026 5.322,0.7346 9.125,1.084 5.509,0.4946 9.359,-0.0107 10.583,-3.1254 0.828,-2.1093 0.396,-3.6933 -0.568,-4.5933 -1.067,-0.996 -4.124,-1.8493 -6.271,0.088 l -1.687,0.3013 c -1.157,0.0574 -1.729,0.1 -2.308,0.0787 -1.005,-0.0213 -2.077,0.0053 -4.036,0.0627 -3.469,0.0986 -7.104,1.3386 -7.104,1.3386 -1.25,0.0627 -1.469,1.968 -1.469,1.968"
     id="path524" />
  <path
     style="fill:none;stroke:#231f20;stroke-width:0.565977;stroke-linecap:butt;stroke-linejoin:miter;stroke-miterlimit:4;stroke-dasharray:none;stroke-opacity:1"
     d="m 257.59347,44.003013 c -0.625,3.9587 3.26,2.724 3.735,2.7974 4.942,0.8026 5.322,0.7346 9.125,1.084 5.509,0.4946 9.359,-0.0107 10.583,-3.1254 0.828,-2.1093 0.396,-3.6933 -0.568,-4.5933 -1.067,-0.996 -4.124,-1.8493 -6.271,0.088 l -1.687,0.3013 c -1.157,0.0574 -1.729,0.1 -2.308,0.0787 -1.005,-0.0213 -2.077,0.0053 -4.036,0.0627 -3.469,0.0986 -7.104,1.3386 -7.104,1.3386 -1.25,0.0627 -1.469,1.968 -1.469,1.968 z"
     id="path525" />
  <path
     style="fill:#0098c9;fill-opacity:1;fill-rule:nonzero;stroke:none"
     d="m 280.00547,39.743013 c -1.209,-0.8066 -4.38,-1.14 -6.167,1.12 l 0.812,7.776 c 0.646,-0.1093 1.24,-0.2453 1.808,-0.396 0.078,0.0054 0.156,0.0107 0.228,0.0267 0.792,0.176 1.287,-0.2187 2.074,-0.9013 1.365,-0.7347 2.276,-1.7507 2.578,-3.1934 0.463,-2.224 -0.229,-3.7026 -1.333,-4.432"
     id="path526" />
  <path
     style="fill:none;stroke:#231f20;stroke-width:0.565977;stroke-linecap:butt;stroke-linejoin:miter;stroke-miterlimit:4;stroke-dasharray:none;stroke-opacity:1"
     d="m 280.00547,39.743013 c -1.209,-0.8066 -4.38,-1.14 -6.167,1.12 l 0.812,7.776 c 0.646,-0.1093 1.24,-0.2453 1.808,-0.396 0.078,0.0054 0.156,0.0107 0.228,0.0267 0.792,0.176 1.287,-0.2187 2.074,-0.9013 1.365,-0.7347 2.276,-1.7507 2.578,-3.1934 0.463,-2.224 -0.229,-3.7026 -1.333,-4.432 z"
     id="path527" />
  <path
     style="fill:#231f20;fill-opacity:1;fill-rule:nonzero;stroke:none"
     d="m 308.26047,63.983013 c -0.64,-0.0894 -1.927,-1.552 -3.37,-2.2613 -0.974,-0.4787 -2.729,-2.5934 -3.734,-2.9947 -0.922,-0.3693 -1.307,-0.6293 -1.068,-1.7547 0.146,-0.6666 0.854,-1.86 1.36,-1.7706 1.172,0.1973 1.968,0.708 2.734,1.4533 0.864,0.8587 3.004,3.38 3.359,3.88 0.869,1.2493 1.579,1.4627 1.839,1.7707 0.494,0.5826 0.39,0.912 0.088,1.3119 -0.583,0.7614 -1.208,0.3654 -1.208,0.3654"
     id="path528" />
  <path
     style="fill:none;stroke:#231f20;stroke-width:0.565977;stroke-linecap:butt;stroke-linejoin:miter;stroke-miterlimit:4;stroke-dasharray:none;stroke-opacity:1"
     d="m 308.26047,63.983013 c -0.64,-0.0894 -1.927,-1.552 -3.37,-2.2613 -0.974,-0.4787 -2.729,-2.5934 -3.734,-2.9947 -0.922,-0.3693 -1.307,-0.6293 -1.068,-1.7547 0.146,-0.6666 0.854,-1.86 1.36,-1.7706 1.172,0.1973 1.968,0.708 2.734,1.4533 0.864,0.8587 3.004,3.38 3.359,3.88 0.869,1.2493 1.579,1.4627 1.839,1.7707 0.494,0.5826 0.39,0.912 0.088,1.3119 -0.583,0.7614 -1.208,0.3654 -1.208,0.3654 z"
     id="path529" />
  <path
     style="fill:#231f20;fill-opacity:1;fill-rule:nonzero;stroke:none"
     d="m 301.37447,58.092313 c -0.948,0.8854 -2.046,-0.8333 -2.401,-1.2346 -0.359,-0.412 -1.511,-1.4587 -2.515,-2.1507 -1.005,-0.7093 -1.953,-2.0053 -3.865,-3.3387 -1.005,-0.704 -1.531,-2.0213 -0.453,-3.4319 1.068,-1.3907 2.25,-1.3187 3.338,-0.2867 1.084,1.0307 1.667,2.4587 2.688,3.572 1.02,1.12 2.167,2.1573 3.099,2.9333 1.063,0.8853 1.265,1.7187 1.131,2.172 -0.344,1.1453 -1.022,1.7653 -1.022,1.7653"
     id="path530" />
  <path
     style="fill:none;stroke:#231f20;stroke-width:0.565977;stroke-linecap:butt;stroke-linejoin:miter;stroke-miterlimit:4;stroke-dasharray:none;stroke-opacity:1"
     d="m 301.37447,58.092313 c -0.948,0.8854 -2.046,-0.8333 -2.401,-1.2346 -0.359,-0.412 -1.511,-1.4587 -2.515,-2.1507 -1.005,-0.7093 -1.953,-2.0053 -3.865,-3.3387 -1.005,-0.704 -1.531,-2.0213 -0.453,-3.4319 1.068,-1.3907 2.25,-1.3187 3.338,-0.2867 1.084,1.0307 1.667,2.4587 2.688,3.572 1.02,1.12 2.167,2.1573 3.099,2.9333 1.063,0.8853 1.265,1.7187 1.131,2.172 -0.344,1.1453 -1.022,1.7653 -1.022,1.7653 z"
     id="path531" />
  <path
     style="fill:#ffffff;fill-opacity:1;fill-rule:nonzero;stroke:none"
     d="m 311.59347,64.721613 c -0.411,-0.9426 -1.511,-1.3693 -2.453,-0.9573 -0.938,0.4107 -1.364,1.5107 -0.954,2.4533 0.412,0.9427 1.511,1.3694 2.454,0.952 0.942,-0.4106 1.365,-1.5093 0.953,-2.448"
     id="path532" />
  <path
     style="fill:none;stroke:#231f20;stroke-width:1.33171;stroke-linecap:butt;stroke-linejoin:miter;stroke-miterlimit:4;stroke-dasharray:none;stroke-opacity:1"
     d="m 311.59347,64.721613 c -0.411,-0.9426 -1.511,-1.3693 -2.453,-0.9573 -0.938,0.4107 -1.364,1.5107 -0.954,2.4533 0.412,0.9427 1.511,1.3694 2.454,0.952 0.942,-0.4106 1.365,-1.5093 0.953,-2.448 z"
     id="path533" />
  <path
     style="fill:#231f20;fill-opacity:1;fill-rule:nonzero;stroke:none"
     d="m 194.45847,4.4618135 c 1.338,-0.1773 1.807,0.6987 1.599,1.7133 -0.057,0.3027 0.203,0.6307 0.12,0.9174 -0.204,0.6773 -1.767,1.4533 -2.745,0.3173 -0.068,-0.0787 -0.766,-0.5053 -1.235,-0.9107 -0.921,-0.792 -2.38,-2.8186 -1.921,-5.4746 0.213,-1.26540001 0.921,-0.90140001 0.989,-0.36400001 0.208,1.69200001 0.557,1.81200001 0.776,2.22800001 0.74,1.448 2.417,1.5733 2.417,1.5733"
     id="path534" />
  <path
     style="fill:none;stroke:#231f20;stroke-width:0.332927;stroke-linecap:butt;stroke-linejoin:miter;stroke-miterlimit:4;stroke-dasharray:none;stroke-opacity:1"
     d="m 194.45847,4.4618135 c 1.338,-0.1773 1.807,0.6987 1.599,1.7133 -0.057,0.3027 0.203,0.6307 0.12,0.9174 -0.204,0.6773 -1.767,1.4533 -2.745,0.3173 -0.068,-0.0787 -0.766,-0.5053 -1.235,-0.9107 -0.921,-0.792 -2.38,-2.8186 -1.921,-5.4746 0.213,-1.26540001 0.921,-0.90140001 0.989,-0.36400001 0.208,1.69200001 0.557,1.81200001 0.776,2.22800001 0.74,1.448 2.417,1.5733 2.417,1.5733 z"
     id="path535" />
  <path
     style="fill:#231f20;fill-opacity:1;fill-rule:nonzero;stroke:none"
     d="m 206.49447,18.841813 c 1.798,-1.3747 1.964,-1.8854 1.432,-2.6814 -0.349,-0.532 -0.5,-1.1466 -0.697,-1.4853 -0.667,-1.1147 -2.251,-2.708 -7.912,-6.0625995 -1.287,-0.7654 -3.079,-1.8427 -3.771,-2.348 -1.104,-0.7867 -1.677,1.5773 -1.24,1.8906 1.38,1.02 2.251,1.8174 2.699,2.2599995 0.307,0.2973 0.916,0.7507 1.953,2.0467 1.578,1.98 2.224,3.396 3.728,4.8853 0.699,0.6933 0.782,1.656 1.814,1.98 1.036,0.3427 1.994,-0.4853 1.994,-0.4853"
     id="path536" />
  <path
     style="fill:none;stroke:#231f20;stroke-width:0.565977;stroke-linecap:butt;stroke-linejoin:miter;stroke-miterlimit:4;stroke-dasharray:none;stroke-opacity:1"
     d="m 206.49447,18.841813 c 1.798,-1.3747 1.964,-1.8854 1.432,-2.6814 -0.349,-0.532 -0.5,-1.1466 -0.697,-1.4853 -0.667,-1.1147 -2.251,-2.708 -7.912,-6.0625995 -1.287,-0.7654 -3.079,-1.8427 -3.771,-2.348 -1.104,-0.7867 -1.677,1.5773 -1.24,1.8906 1.38,1.02 2.251,1.8174 2.699,2.2599995 0.307,0.2973 0.916,0.7507 1.953,2.0467 1.578,1.98 2.224,3.396 3.728,4.8853 0.699,0.6933 0.782,1.656 1.814,1.98 1.036,0.3427 1.994,-0.4853 1.994,-0.4853 z"
     id="path537" />
  <path
     style="fill:#0098c9;fill-opacity:1;fill-rule:nonzero;stroke:none"
     d="m 222.17247,39.055013 c -0.142,-3.1293 0.166,-3.8173 0.489,-4.6759 2.02,-5.4227 -0.677,-6.3134 -3.489,-5.6574 -3.303,0.7667 -4.5,0.9747 -3.615,7.204 0.249,1.7347 0.328,8.5107 0.328,8.5107 -0.297,2.4266 0.708,4.952 1.948,5.7133 1.312,0.8013 0.848,0.3906 2.197,0.9106 1.282,0.5 3.443,0.1414 4.074,-0.9159 0.614,-1.016 -0.172,-2.484 -1.032,-4.7507 -0.676,-1.7907 -0.9,-6.3387 -0.9,-6.3387"
     id="path538" />
  <path
     style="fill:none;stroke:#231f20;stroke-width:0.565977;stroke-linecap:butt;stroke-linejoin:miter;stroke-miterlimit:4;stroke-dasharray:none;stroke-opacity:1"
     d="m 222.17247,39.055013 c -0.142,-3.1293 0.166,-3.8173 0.489,-4.6759 2.02,-5.4227 -0.677,-6.3134 -3.489,-5.6574 -3.303,0.7667 -4.5,0.9747 -3.615,7.204 0.249,1.7347 0.328,8.5107 0.328,8.5107 -0.297,2.4266 0.708,4.952 1.948,5.7133 1.312,0.8013 0.848,0.3906 2.197,0.9106 1.282,0.5 3.443,0.1414 4.074,-0.9159 0.614,-1.016 -0.172,-2.484 -1.032,-4.7507 -0.676,-1.7907 -0.9,-6.3387 -0.9,-6.3387 z"
     id="path539" />
  <path
     style="fill:#ffffff;fill-opacity:1;fill-rule:nonzero;stroke:none"
     d="m 220.37447,57.732313 c 0.036,0.24 -1.016,0.6987 -0.844,1.1987 0.172,0.4947 0.959,0.4267 2.355,1.844 l 0.016,0.0147 c 0.989,1.068 2.271,1.5986 3.484,1.276 2.011,-0.5254 3.057,-3.1667 2.344,-5.896 -0.719,-2.7334 -2.928,-4.52 -4.937,-3.9947 -1.923,0.5 -2.964,2.948 -2.418,5.5573"
     id="path540" />
  <path
     style="fill:none;stroke:#231f20;stroke-width:0.565977;stroke-linecap:butt;stroke-linejoin:miter;stroke-miterlimit:4;stroke-dasharray:none;stroke-opacity:1"
     d="m 220.37447,57.732313 c 0.036,0.24 -1.016,0.6987 -0.844,1.1987 0.172,0.4947 0.959,0.4267 2.355,1.844 l 0.016,0.0147 c 0.989,1.068 2.271,1.5986 3.484,1.276 2.011,-0.5254 3.057,-3.1667 2.344,-5.896 -0.719,-2.7334 -2.928,-4.52 -4.937,-3.9947 -1.923,0.5 -2.964,2.948 -2.418,5.5573 z"
     id="path541" />
  <path
     style="fill:#231f20;fill-opacity:1;fill-rule:nonzero;stroke:none"
     d="m 205.48447,16.587113 c -3.386,2.156 0.12,4.2493 0.374,4.656 2.672,4.2346 2.98,4.4746 5.235,7.552 3.276,4.4533 6.203,7.0053 9.349,5.86 2.13,-0.7814 3.026,-2.152 3.063,-3.4694 0.041,-1.4586 -1.344,-4.3173 -4.219,-4.64 l -1.344,-1.0626 c -0.813,-0.828 -1.218,-1.2294 -1.584,-1.6774 -0.645,-0.7653 -1.38,-1.5519 -2.724,-2.9786 -2.369,-2.5373 -5.708,-4.4387 -5.708,-4.4387 -0.869,-0.8893 -2.442,0.1987 -2.442,0.1987"
     id="path542" />
  <path
     style="fill:none;stroke:#231f20;stroke-width:0.565977;stroke-linecap:butt;stroke-linejoin:miter;stroke-miterlimit:4;stroke-dasharray:none;stroke-opacity:1"
     d="m 205.48447,16.587113 c -3.386,2.156 0.12,4.2493 0.374,4.656 2.672,4.2346 2.98,4.4746 5.235,7.552 3.276,4.4533 6.203,7.0053 9.349,5.86 2.13,-0.7814 3.026,-2.152 3.063,-3.4694 0.041,-1.4586 -1.344,-4.3173 -4.219,-4.64 l -1.344,-1.0626 c -0.813,-0.828 -1.218,-1.2294 -1.584,-1.6774 -0.645,-0.7653 -1.38,-1.5519 -2.724,-2.9786 -2.369,-2.5373 -5.708,-4.4387 -5.708,-4.4387 -0.869,-0.8893 -2.442,0.1987 -2.442,0.1987 z"
     id="path543" />
  <path
     style="fill:#0098c9;fill-opacity:1;fill-rule:nonzero;stroke:none"
     d="m 223.52047,30.560413 c -0.198,-1.4427 -2.047,-4.036 -4.927,-3.8747 l -5.287,5.756 c 0.511,0.4107 1.006,0.7654 1.495,1.088 0.048,0.0627 0.095,0.1307 0.131,0.192 0.39,0.7094 1.016,0.8187 2.046,0.9534 1.459,0.5426 2.818,0.5466 4.099,-0.1814 1.969,-1.1253 2.625,-2.6253 2.443,-3.9333"
     id="path544" />
  <path
     style="fill:none;stroke:#231f20;stroke-width:0.565977;stroke-linecap:butt;stroke-linejoin:miter;stroke-miterlimit:4;stroke-dasharray:none;stroke-opacity:1"
     d="m 223.52047,30.560413 c -0.198,-1.4427 -2.047,-4.036 -4.927,-3.8747 l -5.287,5.756 c 0.511,0.4107 1.006,0.7654 1.495,1.088 0.048,0.0627 0.095,0.1307 0.131,0.192 0.39,0.7094 1.016,0.8187 2.046,0.9534 1.459,0.5426 2.818,0.5466 4.099,-0.1814 1.969,-1.1253 2.625,-2.6253 2.443,-3.9333 z"
     id="path545" />
  <path
     style="fill:#231f20;fill-opacity:1;fill-rule:nonzero;stroke:none"
     d="m 206.96847,62.680313 c 0.094,-0.6346 1.568,-1.9053 2.292,-3.3493 0.489,-0.968 2.62,-2.6973 3.032,-3.7027 0.38,-0.916 0.64,-1.3013 1.765,-1.0466 0.661,0.1506 1.848,0.864 1.76,1.3693 -0.213,1.1773 -0.729,1.9693 -1.484,2.724 -0.865,0.8547 -3.407,2.9747 -3.907,3.3227 -1.26,0.8546 -1.478,1.5626 -1.792,1.8186 -0.582,0.4893 -0.916,0.3853 -1.312,0.0773 -0.754,-0.5879 -0.354,-1.2133 -0.354,-1.2133"
     id="path546" />
  <path
     style="fill:none;stroke:#231f20;stroke-width:0.565977;stroke-linecap:butt;stroke-linejoin:miter;stroke-miterlimit:4;stroke-dasharray:none;stroke-opacity:1"
     d="m 206.96847,62.680313 c 0.094,-0.6346 1.568,-1.9053 2.292,-3.3493 0.489,-0.968 2.62,-2.6973 3.032,-3.7027 0.38,-0.916 0.64,-1.3013 1.765,-1.0466 0.661,0.1506 1.848,0.864 1.76,1.3693 -0.213,1.1773 -0.729,1.9693 -1.484,2.724 -0.865,0.8547 -3.407,2.9747 -3.907,3.3227 -1.26,0.8546 -1.478,1.5626 -1.792,1.8186 -0.582,0.4893 -0.916,0.3853 -1.312,0.0773 -0.754,-0.5879 -0.354,-1.2133 -0.354,-1.2133 z"
     id="path547" />
  <path
     style="fill:#231f20;fill-opacity:1;fill-rule:nonzero;stroke:none"
     d="m 212.92647,55.857713 c -0.88,-0.9587 0.85,-2.0414 1.256,-2.3907 0.416,-0.3587 1.468,-1.5 2.176,-2.5 0.714,-0.9946 2.022,-1.932 3.371,-3.8333 0.713,-0.9947 2.036,-1.5107 3.437,-0.416 1.386,1.0773 1.296,2.26 0.255,3.3373 -1.041,1.0733 -2.473,1.6467 -3.599,2.6573 -1.125,1.0054 -2.177,2.14 -2.964,3.0667 -0.89,1.0573 -1.729,1.2507 -2.181,1.1093 -1.141,-0.3533 -1.751,-1.0306 -1.751,-1.0306"
     id="path548" />
  <path
     style="fill:none;stroke:#231f20;stroke-width:0.565977;stroke-linecap:butt;stroke-linejoin:miter;stroke-miterlimit:4;stroke-dasharray:none;stroke-opacity:1"
     d="m 212.92647,55.857713 c -0.88,-0.9587 0.85,-2.0414 1.256,-2.3907 0.416,-0.3587 1.468,-1.5 2.176,-2.5 0.714,-0.9946 2.022,-1.932 3.371,-3.8333 0.713,-0.9947 2.036,-1.5107 3.437,-0.416 1.386,1.0773 1.296,2.26 0.255,3.3373 -1.041,1.0733 -2.473,1.6467 -3.599,2.6573 -1.125,1.0054 -2.177,2.14 -2.964,3.0667 -0.89,1.0573 -1.729,1.2507 -2.181,1.1093 -1.141,-0.3533 -1.751,-1.0306 -1.751,-1.0306 z"
     id="path549" />
  <path
     style="fill:#ffffff;fill-opacity:1;fill-rule:nonzero;stroke:none"
     d="m 207.97847,66.191013 c 0.396,-0.9374 -0.041,-2.0307 -0.984,-2.432 -0.948,-0.4067 -2.041,0.036 -2.442,0.984 -0.407,0.9426 0.041,2.036 0.989,2.4373 0.943,0.4067 2.031,-0.0413 2.437,-0.9893"
     id="path550" />
  <path
     style="fill:none;stroke:#231f20;stroke-width:1.33171;stroke-linecap:butt;stroke-linejoin:miter;stroke-miterlimit:4;stroke-dasharray:none;stroke-opacity:1"
     d="m 207.97847,66.191013 c 0.396,-0.9374 -0.041,-2.0307 -0.984,-2.432 -0.948,-0.4067 -2.041,0.036 -2.442,0.984 -0.407,0.9426 0.041,2.036 0.989,2.4373 0.943,0.4067 2.031,-0.0413 2.437,-0.9893 z"
     id="path551" />
  <path
     style="fill:#231f20;fill-opacity:1;fill-rule:nonzero;stroke:none"
     d="m 129.08847,58.748313 c -0.235,1.328 -1.213,1.5107 -2.115,1 -0.27,-0.1453 -0.656,0 -0.905,-0.1666 -0.584,-0.396 -0.855,-2.12 0.531,-2.7134 0.093,-0.0413 0.718,-0.5733 1.245,-0.896 1.036,-0.636 3.405,-1.4066 5.801,-0.156 1.131,0.5827 0.574,1.1454 0.047,1.0467 -1.687,-0.3173 -1.896,-0.016 -2.369,0.0627 -1.599,0.26 -2.235,1.8226 -2.235,1.8226"
     id="path552" />
  <path
     style="fill:none;stroke:#231f20;stroke-width:0.332927;stroke-linecap:butt;stroke-linejoin:miter;stroke-miterlimit:4;stroke-dasharray:none;stroke-opacity:1"
     d="m 129.08847,58.748313 c -0.235,1.328 -1.213,1.5107 -2.115,1 -0.27,-0.1453 -0.656,0 -0.905,-0.1666 -0.584,-0.396 -0.855,-2.12 0.531,-2.7134 0.093,-0.0413 0.718,-0.5733 1.245,-0.896 1.036,-0.636 3.405,-1.4066 5.801,-0.156 1.131,0.5827 0.574,1.1454 0.047,1.0467 -1.687,-0.3173 -1.896,-0.016 -2.369,0.0627 -1.599,0.26 -2.235,1.8226 -2.235,1.8226 z"
     id="path553" />
  <path
     style="fill:#231f20;fill-opacity:1;fill-rule:nonzero;stroke:none"
     d="m 111.72447,65.816313 c 0.765,2.1347 1.197,2.4477 2.12,2.1867 0.619,-0.176 1.244,-0.124 1.619,-0.219 1.272,-0.2904 3.272,-1.3117 8.193,-5.6717 1.12,-0.9893 2.697,-2.3693 3.391,-2.8853 1.082,-0.8067 -0.995,-2.0667 -1.427,-1.7493 -1.385,1.0053 -2.417,1.5773 -2.975,1.8746 -0.374,0.208 -0.989,0.6507 -2.552,1.24 -2.358,0.9014 -3.906,1.088 -5.781,2.0627 -0.875,0.448 -1.817,0.2333 -2.443,1.12 -0.64,0.88 -0.145,2.0413 -0.145,2.0413"
     id="path554" />
  <path
     style="fill:none;stroke:#231f20;stroke-width:0.565977;stroke-linecap:butt;stroke-linejoin:miter;stroke-miterlimit:4;stroke-dasharray:none;stroke-opacity:1"
     d="m 111.72447,65.816313 c 0.765,2.1347 1.197,2.4477 2.12,2.1867 0.619,-0.176 1.244,-0.124 1.619,-0.219 1.272,-0.2904 3.272,-1.3117 8.193,-5.6717 1.12,-0.9893 2.697,-2.3693 3.391,-2.8853 1.082,-0.8067 -0.995,-2.0667 -1.427,-1.7493 -1.385,1.0053 -2.417,1.5773 -2.975,1.8746 -0.374,0.208 -0.989,0.6507 -2.552,1.24 -2.358,0.9014 -3.906,1.088 -5.781,2.0627 -0.875,0.448 -1.817,0.2333 -2.443,1.12 -0.64,0.88 -0.145,2.0413 -0.145,2.0413 z"
     id="path555" />
  <path
     style="fill:#0098c9;fill-opacity:1;fill-rule:nonzero;stroke:none"
     d="m 87.104475,73.644013 c 2.891,1.219 3.375,1.792 4.016,2.459 4.02,4.151 5.979,2.099 6.599,-0.719 0.734,-3.308 1.062,-4.485 -4.948,-6.365 -1.672,-0.516 -7.812,-3.3587 -7.812,-3.3587 -2.068,-1.3187 -4.782,-1.4947 -6.006,-0.6987 -1.285998,0.8334 -0.714,0.5934 -1.765998,1.5894 -1,0.9426 -1.61,3.041 -0.922,4.072 0.651,0.989 2.317998,0.912 4.734998,1.109 1.901,0.156 6.104,1.912 6.104,1.912"
     id="path556" />
  <path
     style="fill:none;stroke:#231f20;stroke-width:0.565977;stroke-linecap:butt;stroke-linejoin:miter;stroke-miterlimit:4;stroke-dasharray:none;stroke-opacity:1"
     d="m 87.104475,73.644013 c 2.891,1.219 3.375,1.792 4.016,2.459 4.02,4.151 5.979,2.099 6.599,-0.719 0.734,-3.308 1.062,-4.485 -4.948,-6.365 -1.672,-0.516 -7.812,-3.3587 -7.812,-3.3587 -2.068,-1.3187 -4.782,-1.4947 -6.006,-0.6987 -1.285998,0.8334 -0.714,0.5934 -1.765998,1.5894 -1,0.9426 -1.61,3.041 -0.922,4.072 0.651,0.989 2.317998,0.912 4.734998,1.109 1.901,0.156 6.104,1.912 6.104,1.912 z"
     id="path557" />
  <path
     style="fill:#ffffff;fill-opacity:1;fill-rule:nonzero;stroke:none"
     d="m 73.229477,61.852313 c -0.198,-0.1453 0.23,-1.2133 -0.24,-1.448 -0.473,-0.2293 -0.984,0.3707 -2.978,0.3494 h -0.016 c -1.454,-0.0627 -2.74,0.4586 -3.38,1.5413 -1.058,1.7866 0.057,4.4013 2.484,5.839 2.432,1.442 5.26,1.15 6.317,-0.635 1.016,-1.704 0.032,-4.1827 -2.187,-5.6467"
     id="path558" />
  <path
     style="fill:none;stroke:#231f20;stroke-width:0.565977;stroke-linecap:butt;stroke-linejoin:miter;stroke-miterlimit:4;stroke-dasharray:none;stroke-opacity:1"
     d="m 73.229477,61.852313 c -0.198,-0.1453 0.23,-1.2133 -0.24,-1.448 -0.473,-0.2293 -0.984,0.3707 -2.978,0.3494 h -0.016 c -1.454,-0.0627 -2.74,0.4586 -3.38,1.5413 -1.058,1.7866 0.057,4.4013 2.484,5.839 2.432,1.442 5.26,1.15 6.317,-0.635 1.016,-1.704 0.032,-4.1827 -2.187,-5.6467 z"
     id="path559" />
  <path
     style="fill:#231f20;fill-opacity:1;fill-rule:nonzero;stroke:none"
     d="m 114.17747,65.540313 c -1.021,-3.88 -4.078,-1.1827 -4.542,-1.0573 -4.854,1.2493 -5.172,1.468 -8.791,2.6826 -5.244995,1.7494 -8.567995,3.7604 -8.438995,7.1044 0.09,2.27 1.12,3.541 2.371,3.984 1.369,0.473 4.52,0.036 5.707995,-2.599 l 1.417,-0.959 c 1.042,-0.526 1.552,-0.786 2.088,-1.005 0.927,-0.375 1.896,-0.839 3.667,-1.672 3.14,-1.489 5.969,-4.088 5.969,-4.088 1.119,-0.5574 0.552,-2.3907 0.552,-2.3907"
     id="path560" />
  <path
     style="fill:none;stroke:#231f20;stroke-width:0.565977;stroke-linecap:butt;stroke-linejoin:miter;stroke-miterlimit:4;stroke-dasharray:none;stroke-opacity:1"
     d="m 114.17747,65.540313 c -1.021,-3.88 -4.078,-1.1827 -4.542,-1.0573 -4.854,1.2493 -5.172,1.468 -8.791,2.6826 -5.244995,1.7494 -8.567995,3.7604 -8.438995,7.1044 0.09,2.27 1.12,3.541 2.371,3.984 1.369,0.473 4.52,0.036 5.707995,-2.599 l 1.417,-0.959 c 1.042,-0.526 1.552,-0.786 2.088,-1.005 0.927,-0.375 1.896,-0.839 3.667,-1.672 3.14,-1.489 5.969,-4.088 5.969,-4.088 1.119,-0.5574 0.552,-2.3907 0.552,-2.3907 z"
     id="path561" />
  <path
     style="fill:#0098c9;fill-opacity:1;fill-rule:nonzero;stroke:#231f20;stroke-width:0.565977;stroke-linecap:butt;stroke-linejoin:miter;stroke-miterlimit:4;stroke-dasharray:none;stroke-opacity:1"
     d="m 96.697475,68.155013 c -0.552,0.359 -1.036,0.724 -1.494,1.088 -0.078,0.027 -0.151,0.052 -0.224,0.068 -0.792,0.156 -1.088,0.719 -1.536,1.661 -0.954,1.219 -1.375,2.516 -1.074,3.954 0.47,2.218 1.694,3.301 2.995,3.525 1.437,0.251 4.469,-0.713 5.198995,-3.505 z"
     id="path562" />
  <path
     style="fill:#231f20;fill-opacity:1;fill-rule:nonzero;stroke:none"
     d="m 99.708475,65.035013 c -0.427,0.484 -2.36,0.7346 -3.749,1.5413 -0.944,0.5413 -3.672,0.8227 -4.568,1.4377 -0.819,0.557 -1.251,0.74 -2.052,-0.088 -0.47,-0.495 -1.068,-1.7457 -0.719,-2.115 0.817,-0.8654 1.681,-1.2507 2.728,-1.4587 1.193,-0.244 4.485,-0.6253 5.095,-0.64 1.52,-0.0267 2.093,-0.4946 2.494,-0.5426 0.755,-0.088 0.974,0.1826 1.134995,0.6573 0.313,0.9053 -0.363995,1.208 -0.363995,1.208"
     id="path563" />
  <path
     style="fill:none;stroke:#231f20;stroke-width:0.565977;stroke-linecap:butt;stroke-linejoin:miter;stroke-miterlimit:4;stroke-dasharray:none;stroke-opacity:1"
     d="m 99.708475,65.035013 c -0.427,0.484 -2.36,0.7346 -3.749,1.5413 -0.944,0.5413 -3.672,0.8227 -4.568,1.4377 -0.819,0.557 -1.251,0.74 -2.052,-0.088 -0.47,-0.495 -1.068,-1.7457 -0.719,-2.115 0.817,-0.8654 1.681,-1.2507 2.728,-1.4587 1.193,-0.244 4.485,-0.6253 5.095,-0.64 1.52,-0.0267 2.093,-0.4946 2.494,-0.5426 0.755,-0.088 0.974,0.1826 1.134995,0.6573 0.313,0.9053 -0.363995,1.208 -0.363995,1.208 z"
     id="path564" />
  <path
     style="fill:#231f20;fill-opacity:1;fill-rule:nonzero;stroke:none"
     d="m 90.984475,67.477613 c 0.208,1.2814 -1.828,1.2344 -2.359,1.3064 -0.542,0.074 -2.053,0.448 -3.193,0.896 -1.136,0.443 -2.751,0.511 -4.916,1.355 -1.141,0.443 -2.531998,0.151 -3.104998,-1.532 -0.562,-1.661 0.161,-2.604 1.619998,-2.932 1.464,-0.328 2.969,-0.016 4.464,-0.244 1.494,-0.224 2.994,-0.6 4.156,-0.948 1.328,-0.396 2.13,-0.0947 2.432,0.276 0.766,0.916 0.901,1.8226 0.901,1.8226"
     id="path565" />
  <path
     style="fill:none;stroke:#231f20;stroke-width:0.565977;stroke-linecap:butt;stroke-linejoin:miter;stroke-miterlimit:4;stroke-dasharray:none;stroke-opacity:1"
     d="m 90.984475,67.477613 c 0.208,1.2814 -1.828,1.2344 -2.359,1.3064 -0.542,0.074 -2.053,0.448 -3.193,0.896 -1.136,0.443 -2.751,0.511 -4.916,1.355 -1.141,0.443 -2.531998,0.151 -3.104998,-1.532 -0.562,-1.661 0.161,-2.604 1.619998,-2.932 1.464,-0.328 2.969,-0.016 4.464,-0.244 1.494,-0.224 2.994,-0.6 4.156,-0.948 1.328,-0.396 2.13,-0.0947 2.432,0.276 0.766,0.916 0.901,1.8226 0.901,1.8226 z"
     id="path566" />
  <path
     style="fill:#ffffff;fill-opacity:1;fill-rule:nonzero;stroke:none"
     d="m 102.54747,64.165613 c 0.27,0.9894 -0.308,2.0094 -1.303,2.28 -0.989,0.276 -2.014995,-0.3066 -2.284995,-1.296 -0.272,-0.9946 0.312,-2.0159 1.300995,-2.2866 0.989,-0.276 2.011,0.3067 2.287,1.3026"
     id="path567" />
  <path
     style="fill:none;stroke:#231f20;stroke-width:1.33171;stroke-linecap:butt;stroke-linejoin:miter;stroke-miterlimit:4;stroke-dasharray:none;stroke-opacity:1"
     d="m 102.54747,64.165613 c 0.27,0.9894 -0.308,2.0094 -1.303,2.28 -0.989,0.276 -2.014995,-0.3066 -2.284995,-1.296 -0.272,-0.9946 0.312,-2.0159 1.300995,-2.2866 0.989,-0.276 2.011,0.3067 2.287,1.3026 z"
     id="path568" />
  <path
     style="fill:#231f20;fill-opacity:1;fill-rule:nonzero;stroke:none"
     d="m 154.28747,36.045713 c 1.317,0.3067 1.448,1.2907 0.89,2.1667 -0.162,0.26 -0.037,0.656 -0.218,0.896 -0.428,0.556 -2.163,0.7386 -2.678,-0.6774 -0.037,-0.0946 -0.537,-0.7506 -0.828,-1.292 -0.584,-1.0679 -1.229,-3.4746 0.146,-5.8026 0.65,-1.0987 1.182,-0.5093 1.052,0.0107 -0.407,1.6666 -0.115,1.8906 -0.063,2.3706 0.172,1.6134 1.699,2.328 1.699,2.328"
     id="path569" />
  <path
     style="fill:none;stroke:#231f20;stroke-width:0.332927;stroke-linecap:butt;stroke-linejoin:miter;stroke-miterlimit:4;stroke-dasharray:none;stroke-opacity:1"
     d="m 154.28747,36.045713 c 1.317,0.3067 1.448,1.2907 0.89,2.1667 -0.162,0.26 -0.037,0.656 -0.218,0.896 -0.428,0.556 -2.163,0.7386 -2.678,-0.6774 -0.037,-0.0946 -0.537,-0.7506 -0.828,-1.292 -0.584,-1.0679 -1.229,-3.4746 0.146,-5.8026 0.65,-1.0987 1.182,-0.5093 1.052,0.0107 -0.407,1.6666 -0.115,1.8906 -0.063,2.3706 0.172,1.6134 1.699,2.328 1.699,2.328 z"
     id="path570" />
  <path
     style="fill:#231f20;fill-opacity:1;fill-rule:nonzero;stroke:none"
     d="m 160.42147,53.764313 c 2.172,-0.652 2.506,-1.068 2.298,-2 -0.142,-0.6306 -0.063,-1.256 -0.131,-1.6359 -0.224,-1.276 -1.135,-3.3334 -5.229,-8.484 -0.932,-1.1667 -2.219,-2.812 -2.698,-3.536 -0.756,-1.1254 -2.12,0.8853 -1.828,1.3333 0.932,1.4373 1.448,2.5 1.719,3.0667 0.183,0.3853 0.593,1.0213 1.099,2.6146 0.776,2.4067 0.874,3.964 1.75,5.8853 0.406,0.896 0.14,1.828 0.99,2.5 0.844,0.6827 2.03,0.256 2.03,0.256"
     id="path571" />
  <path
     style="fill:none;stroke:#231f20;stroke-width:0.565977;stroke-linecap:butt;stroke-linejoin:miter;stroke-miterlimit:4;stroke-dasharray:none;stroke-opacity:1"
     d="m 160.42147,53.764313 c 2.172,-0.652 2.506,-1.068 2.298,-2 -0.142,-0.6306 -0.063,-1.256 -0.131,-1.6359 -0.224,-1.276 -1.135,-3.3334 -5.229,-8.484 -0.932,-1.1667 -2.219,-2.812 -2.698,-3.536 -0.756,-1.1254 -2.12,0.8853 -1.828,1.3333 0.932,1.4373 1.448,2.5 1.719,3.0667 0.183,0.3853 0.593,1.0213 1.099,2.6146 0.776,2.4067 0.874,3.964 1.75,5.8853 0.406,0.896 0.14,1.828 0.99,2.5 0.844,0.6827 2.03,0.256 2.03,0.256 z"
     id="path572" />
  <path
     style="fill:#0098c9;fill-opacity:1;fill-rule:nonzero;stroke:none"
     d="m 166.92747,78.764013 c 1.369,-2.818 1.969,-3.27 2.666,-3.876 4.366,-3.796 2.418,-5.864 -0.364,-6.634 -3.261,-0.9017 -4.417,-1.2977 -6.62,4.609 -0.604,1.636 -3.765,7.625 -3.765,7.625 -1.433,1.99 -1.751,4.692 -1.027,5.958 0.771,1.329 0.563,0.74 1.495,1.844 0.891,1.052 2.953,1.77 4.021,1.141 1.026,-0.599 1.036,-2.265 1.359,-4.667 0.261,-1.896 2.235,-6 2.235,-6"
     id="path573" />
  <path
     style="fill:none;stroke:#231f20;stroke-width:0.565977;stroke-linecap:butt;stroke-linejoin:miter;stroke-miterlimit:4;stroke-dasharray:none;stroke-opacity:1"
     d="m 166.92747,78.764013 c 1.369,-2.818 1.969,-3.27 2.666,-3.876 4.366,-3.796 2.418,-5.864 -0.364,-6.634 -3.261,-0.9017 -4.417,-1.2977 -6.62,4.609 -0.604,1.636 -3.765,7.625 -3.765,7.625 -1.433,1.99 -1.751,4.692 -1.027,5.958 0.771,1.329 0.563,0.74 1.495,1.844 0.891,1.052 2.953,1.77 4.021,1.141 1.026,-0.599 1.036,-2.265 1.359,-4.667 0.261,-1.896 2.235,-6 2.235,-6 z"
     id="path574" />
  <path
     style="fill:#ffffff;fill-opacity:1;fill-rule:nonzero;stroke:none"
     d="m 154.41147,91.998013 c -0.156,0.188 -1.198,-0.296 -1.452,0.162 -0.262,0.458 0.312,1 0.181,2.99 v 0.016 c -0.14,1.446 0.319,2.76 1.36,3.457 1.735,1.152 4.401,0.183 5.963,-2.172 1.573,-2.348 1.433,-5.187 -0.296,-6.339 -1.647,-1.104 -4.172,-0.254 -5.756,1.886"
     id="path575" />
  <path
     style="fill:none;stroke:#231f20;stroke-width:0.565977;stroke-linecap:butt;stroke-linejoin:miter;stroke-miterlimit:4;stroke-dasharray:none;stroke-opacity:1"
     d="m 154.41147,91.998013 c -0.156,0.188 -1.198,-0.296 -1.452,0.162 -0.262,0.458 0.312,1 0.181,2.99 v 0.016 c -0.14,1.446 0.319,2.76 1.36,3.457 1.735,1.152 4.401,0.183 5.963,-2.172 1.573,-2.348 1.433,-5.187 -0.296,-6.339 -1.647,-1.104 -4.172,-0.254 -5.756,1.886 z"
     id="path576" />
  <path
     style="fill:#231f20;fill-opacity:1;fill-rule:nonzero;stroke:none"
     d="m 160.27647,51.295013 c -3.928,0.8133 -1.396,4.016 -1.303,4.484 0.995,4.912 1.194,5.2347 2.214,8.9173 1.469,5.3337 3.297,8.7547 6.646,8.8067 2.271,0.032 3.599,-0.932 4.104,-2.151 0.547,-1.349 0.276,-4.5157 -2.292,-5.8437 l -0.88,-1.468 c -0.469,-1.0626 -0.702,-1.5893 -0.89,-2.1306 -0.328,-0.9534 -0.74,-1.9427 -1.479,-3.7547 -1.319,-3.2133 -3.761,-6.1773 -3.761,-6.1773 -0.5,-1.1454 -2.359,-0.6827 -2.359,-0.6827"
     id="path577" />
  <path
     style="fill:none;stroke:#231f20;stroke-width:0.565977;stroke-linecap:butt;stroke-linejoin:miter;stroke-miterlimit:4;stroke-dasharray:none;stroke-opacity:1"
     d="m 160.27647,51.295013 c -3.928,0.8133 -1.396,4.016 -1.303,4.484 0.995,4.912 1.194,5.2347 2.214,8.9173 1.469,5.3337 3.297,8.7547 6.646,8.8067 2.271,0.032 3.599,-0.932 4.104,-2.151 0.547,-1.349 0.276,-4.5157 -2.292,-5.8437 l -0.88,-1.468 c -0.469,-1.0626 -0.702,-1.5893 -0.89,-2.1306 -0.328,-0.9534 -0.74,-1.9427 -1.479,-3.7547 -1.319,-3.2133 -3.761,-6.1773 -3.761,-6.1773 -0.5,-1.1454 -2.359,-0.6827 -2.359,-0.6827 z"
     id="path578" />
  <path
     style="fill:#0098c9;fill-opacity:1;fill-rule:nonzero;stroke:none"
     d="m 168.94347,65.388313 -6.984,3.5057 c 0.328,0.568 0.661,1.073 1.004,1.548 0.021,0.082 0.048,0.156 0.057,0.228 0.115,0.797 0.657,1.125 1.568,1.62 1.172,1.021 2.443,1.51 3.901,1.281 2.24,-0.344 3.386,-1.516 3.678,-2.801 0.328,-1.423 -0.475,-4.5004 -3.224,-5.3817"
     id="path579" />
  <path
     style="fill:none;stroke:#231f20;stroke-width:0.565977;stroke-linecap:butt;stroke-linejoin:miter;stroke-miterlimit:4;stroke-dasharray:none;stroke-opacity:1"
     d="m 168.94347,65.388313 -6.984,3.5057 c 0.328,0.568 0.661,1.073 1.004,1.548 0.021,0.082 0.048,0.156 0.057,0.228 0.115,0.797 0.657,1.125 1.568,1.62 1.172,1.021 2.443,1.51 3.901,1.281 2.24,-0.344 3.386,-1.516 3.678,-2.801 0.328,-1.423 -0.475,-4.5004 -3.224,-5.3817 z"
     id="path580" />
  <path
     style="fill:#231f20;fill-opacity:1;fill-rule:nonzero;stroke:none"
     d="m 159.00047,65.717613 c 0.459,0.4574 0.609,2.3944 1.344,3.8284 0.489,0.968 0.624,3.713 1.192,4.64 0.511,0.849 0.667,1.286 -0.203,2.041 -0.516,0.448 -1.797,0.975 -2.146,0.605 -0.823,-0.86 -1.156,-1.745 -1.312,-2.802 -0.183,-1.203 -0.386,-4.511 -0.37,-5.12 0.058,-1.5257 -0.38,-2.115 -0.406,-2.5217 -0.047,-0.76 0.234,-0.9627 0.713,-1.104 0.927,-0.26 1.188,0.4333 1.188,0.4333"
     id="path581" />
  <path
     style="fill:none;stroke:#231f20;stroke-width:0.565977;stroke-linecap:butt;stroke-linejoin:miter;stroke-miterlimit:4;stroke-dasharray:none;stroke-opacity:1"
     d="m 159.00047,65.717613 c 0.459,0.4574 0.609,2.3944 1.344,3.8284 0.489,0.968 0.624,3.713 1.192,4.64 0.511,0.849 0.667,1.286 -0.203,2.041 -0.516,0.448 -1.797,0.975 -2.146,0.605 -0.823,-0.86 -1.156,-1.745 -1.312,-2.802 -0.183,-1.203 -0.386,-4.511 -0.37,-5.12 0.058,-1.5257 -0.38,-2.115 -0.406,-2.5217 -0.047,-0.76 0.234,-0.9627 0.713,-1.104 0.927,-0.26 1.188,0.4333 1.188,0.4333 z"
     id="path582" />
  <path
     style="fill:#231f20;fill-opacity:1;fill-rule:nonzero;stroke:none"
     d="m 160.97347,74.560013 c 1.292,-0.14 1.142,1.891 1.183,2.428 0.041,0.547 0.339,2.072 0.724,3.234 0.38,1.162 0.364,2.776 1.088,4.99 0.38,1.156 0.021,2.531 -1.692,3.015 -1.688,0.469 -2.595,-0.301 -2.844,-1.776 -0.249,-1.479 0.145,-2.963 -0.005,-4.468 -0.146,-1.505 -0.438,-3.021 -0.724,-4.208 -0.323,-1.339 0.021,-2.131 0.406,-2.407 0.954,-0.718 1.864,-0.808 1.864,-0.808"
     id="path583" />
  <path
     style="fill:none;stroke:#231f20;stroke-width:0.565977;stroke-linecap:butt;stroke-linejoin:miter;stroke-miterlimit:4;stroke-dasharray:none;stroke-opacity:1"
     d="m 160.97347,74.560013 c 1.292,-0.14 1.142,1.891 1.183,2.428 0.041,0.547 0.339,2.072 0.724,3.234 0.38,1.162 0.364,2.776 1.088,4.99 0.38,1.156 0.021,2.531 -1.692,3.015 -1.688,0.469 -2.595,-0.301 -2.844,-1.776 -0.249,-1.479 0.145,-2.963 -0.005,-4.468 -0.146,-1.505 -0.438,-3.021 -0.724,-4.208 -0.323,-1.339 0.021,-2.131 0.406,-2.407 0.954,-0.718 1.864,-0.808 1.864,-0.808 z"
     id="path584" />
  <path
     style="fill:#ffffff;fill-opacity:1;fill-rule:nonzero;stroke:none"
     d="m 158.28747,62.836313 c 1,-0.2133 1.989,0.4174 2.208,1.4227 0.218,1.0053 -0.418,1.9946 -1.418,2.2133 -1.009,0.2187 -2,-0.4173 -2.213,-1.4213 -0.224,-1.0054 0.412,-1.996 1.423,-2.2147"
     id="path585" />
  <path
     style="fill:none;stroke:#231f20;stroke-width:1.33171;stroke-linecap:butt;stroke-linejoin:miter;stroke-miterlimit:4;stroke-dasharray:none;stroke-opacity:1"
     d="m 158.28747,62.836313 c 1,-0.2133 1.989,0.4174 2.208,1.4227 0.218,1.0053 -0.418,1.9946 -1.418,2.2133 -1.009,0.2187 -2,-0.4173 -2.213,-1.4213 -0.224,-1.0054 0.412,-1.996 1.423,-2.2147 z"
     id="path586" />
</svg>
