<?xml version="1.0" encoding="UTF-8" standalone="no"?>
<!-- Created with Inkscape (http://www.inkscape.org/) -->

<svg
   version="1.1"
   id="svg1"
   width="307.99225"
   height="119.86455"
   viewBox="0 0 307.99224 119.86455"
   sodipodi:docname="cell.svg"
   xmlns:inkscape="http://www.inkscape.org/namespaces/inkscape"
   xmlns:sodipodi="http://sodipodi.sourceforge.net/DTD/sodipodi-0.dtd"
   xmlns="http://www.w3.org/2000/svg"
   xmlns:svg="http://www.w3.org/2000/svg">
  <sodipodi:namedview
     id="namedview1"
     pagecolor="#ffffff"
     bordercolor="#000000"
     borderopacity="0.25"
     inkscape:showpageshadow="2"
     inkscape:pageopacity="0.0"
     inkscape:pagecheckerboard="0"
     inkscape:deskcolor="#d1d1d1">
    <inkscape:page
       x="0"
       y="0"
       inkscape:label="1"
       id="page1"
       width="307.99225"
       height="119.86455"
       margin="0"
       bleed="0" />
  </sodipodi:namedview>
  <defs
     id="defs1" />
  <path
     style="fill:#231f20;fill-opacity:1;fill-rule:nonzero;stroke:none"
     d="m 182.70157,78.669811 c -0.037,-0.647 1.167,-2.178 1.593,-3.73 0.287,-1.046 2.042,-3.161 2.25,-4.229 0.193,-0.969 0.37,-1.396 1.532,-1.371 0.677,0.022 1.978,0.496 1.989,1.011 0.027,1.188 -0.328,2.068 -0.927,2.953 -0.677,1.011 -2.756,3.584 -3.188,4.022 -1.068,1.082 -1.14,1.822 -1.396,2.134 -0.478,0.595 -0.828,0.558 -1.276,0.334 -0.853,-0.438 -0.577,-1.124 -0.577,-1.124"
     id="path1028" />
  <path
     style="fill:none;stroke:#231f20;stroke-width:0.565977;stroke-linecap:butt;stroke-linejoin:miter;stroke-miterlimit:4;stroke-dasharray:none;stroke-opacity:1"
     d="m 182.70157,78.669811 c -0.037,-0.647 1.167,-2.178 1.593,-3.73 0.287,-1.046 2.042,-3.161 2.25,-4.229 0.193,-0.969 0.37,-1.396 1.532,-1.371 0.677,0.022 1.978,0.496 1.989,1.011 0.027,1.188 -0.328,2.068 -0.927,2.953 -0.677,1.011 -2.756,3.584 -3.188,4.022 -1.068,1.082 -1.14,1.822 -1.396,2.134 -0.478,0.595 -0.828,0.558 -1.276,0.334 -0.853,-0.438 -0.577,-1.124 -0.577,-1.124 z"
     id="path1029" />
  <path
     style="fill:#231f20;fill-opacity:1;fill-rule:nonzero;stroke:none"
     d="m 187.30557,70.563811 c -0.74,-1.061 1.12,-1.905 1.568,-2.197 0.452,-0.297 1.656,-1.292 2.484,-2.183 0.844,-0.896 2.271,-1.65 3.859,-3.348 0.838,-0.89 2.218,-1.229 3.458,0.042 1.224,1.254 0.979,2.416 -0.192,3.344 -1.172,0.926 -2.672,1.301 -3.917,2.15 -1.255,0.85 -2.448,1.834 -3.349,2.646 -1.02,0.928 -1.875,1.005 -2.312,0.808 -1.083,-0.5 -1.599,-1.262 -1.599,-1.262"
     id="path1030" />
  <path
     style="fill:none;stroke:#231f20;stroke-width:0.565977;stroke-linecap:butt;stroke-linejoin:miter;stroke-miterlimit:4;stroke-dasharray:none;stroke-opacity:1"
     d="m 187.30557,70.563811 c -0.74,-1.061 1.12,-1.905 1.568,-2.197 0.452,-0.297 1.656,-1.292 2.484,-2.183 0.844,-0.896 2.271,-1.65 3.859,-3.348 0.838,-0.89 2.218,-1.229 3.458,0.042 1.224,1.254 0.979,2.416 -0.192,3.344 -1.172,0.926 -2.672,1.301 -3.917,2.15 -1.255,0.85 -2.448,1.834 -3.349,2.646 -1.02,0.928 -1.875,1.005 -2.312,0.808 -1.083,-0.5 -1.599,-1.262 -1.599,-1.262 z"
     id="path1031" />
  <path
     style="fill:#231f20;fill-opacity:1;fill-rule:nonzero;stroke:none"
     d="m 179.52457,83.991811 c 0.14,-0.718 1.786,-3.521 2.192,-4.141 0.36,-0.557 0.652,-1.677 1.797,-1.525 0.469,0.051 1.093,0.468 1.308,0.708 0.176,0.197 0.093,0.516 -0.157,0.822 -0.406,0.521 -0.73,0.511 -1.578,1.475 0,0 -0.234,0.192 -0.682,0.515 -1.307,0.974 -0.823,0.422 -2.407,2.25 -0.109,0.131 -0.328,0.11 -0.405,0.031 -0.12,-0.129 -0.068,-0.135 -0.068,-0.135"
     id="path1032" />
  <path
     style="fill:none;stroke:#231f20;stroke-width:0.565977;stroke-linecap:round;stroke-linejoin:round;stroke-miterlimit:4;stroke-dasharray:none;stroke-opacity:1"
     d="m 179.52457,83.991811 c 0.14,-0.718 1.786,-3.521 2.192,-4.141 0.36,-0.557 0.652,-1.677 1.797,-1.525 0.469,0.051 1.093,0.468 1.308,0.708 0.176,0.197 0.093,0.516 -0.157,0.822 -0.406,0.521 -0.73,0.511 -1.578,1.475 0,0 -0.234,0.192 -0.682,0.515 -1.307,0.974 -0.823,0.422 -2.407,2.25 -0.109,0.131 -0.328,0.11 -0.405,0.031 -0.12,-0.129 -0.068,-0.135 -0.068,-0.135 z"
     id="path1033" />
  <path
     style="fill:#ffffff;fill-opacity:1;fill-rule:nonzero;stroke:none"
     d="m 237.89657,83.580811 c 1.02,-0.074 1.91,0.698 1.98,1.723 0.07,1.027 -0.7,1.918 -1.72,1.99 -1.03,0.068 -1.92,-0.703 -1.99,-1.73 -0.07,-1.02 0.7,-1.911 1.73,-1.983"
     id="path1034" />
  <path
     style="fill:none;stroke:#231f20;stroke-width:1.33171;stroke-linecap:butt;stroke-linejoin:miter;stroke-miterlimit:4;stroke-dasharray:none;stroke-opacity:1"
     d="m 237.89657,83.580811 c 1.02,-0.074 1.91,0.698 1.98,1.723 0.07,1.027 -0.7,1.918 -1.72,1.99 -1.03,0.068 -1.92,-0.703 -1.99,-1.73 -0.07,-1.02 0.7,-1.911 1.73,-1.983 z"
     id="path1035" />
  <path
     style="fill:#231f20;fill-opacity:1;fill-rule:nonzero;stroke:none"
     d="m 236.02657,83.767811 c -0.51,-0.385 -0.93,-2.292 -1.84,-3.615 -0.62,-0.89 -1.13,-3.589 -1.81,-4.431 -0.628,-0.767 -0.842,-1.183 -0.08,-2.048 0.45,-0.51 1.64,-1.208 2.04,-0.891 0.94,0.745 1.38,1.579 1.69,2.6 0.34,1.167 0.99,4.416 1.05,5.02 0.16,1.521 0.67,2.047 0.75,2.448 0.15,0.74 -0.1,0.985 -0.57,1.193 -0.88,0.375 -1.23,-0.276 -1.23,-0.276"
     id="path1036" />
  <path
     style="fill:none;stroke:#231f20;stroke-width:0.565977;stroke-linecap:butt;stroke-linejoin:miter;stroke-miterlimit:4;stroke-dasharray:none;stroke-opacity:1"
     d="m 236.02657,83.767811 c -0.51,-0.385 -0.93,-2.292 -1.84,-3.615 -0.62,-0.89 -1.13,-3.589 -1.81,-4.431 -0.628,-0.767 -0.842,-1.183 -0.08,-2.048 0.45,-0.51 1.64,-1.208 2.04,-0.891 0.94,0.745 1.38,1.579 1.69,2.6 0.34,1.167 0.99,4.416 1.05,5.02 0.16,1.521 0.67,2.047 0.75,2.448 0.15,0.74 -0.1,0.985 -0.57,1.193 -0.88,0.375 -1.23,-0.276 -1.23,-0.276 z"
     id="path1037" />
  <path
     style="fill:#231f20;fill-opacity:1;fill-rule:nonzero;stroke:none"
     d="m 232.51657,74.861811 c -1.29,-0.135 -0.7,-2.088 -0.623,-2.626 0.073,-0.536 0.113,-2.098 -0.005,-3.306 -0.124,-1.219 0.238,-2.792 0.005,-5.11 -0.12,-1.218 0.533,-2.48 2.303,-2.578 1.76,-0.094 2.47,0.849 2.4,2.349 -0.07,1.495 -0.78,2.864 -0.96,4.364 -0.19,1.5 -0.23,3.048 -0.21,4.261 0.03,1.38 -0.48,2.072 -0.9,2.271 -1.1,0.484 -2.01,0.375 -2.01,0.375"
     id="path1038" />
  <path
     style="fill:none;stroke:#231f20;stroke-width:0.565977;stroke-linecap:butt;stroke-linejoin:miter;stroke-miterlimit:4;stroke-dasharray:none;stroke-opacity:1"
     d="m 232.51657,74.861811 c -1.29,-0.135 -0.7,-2.088 -0.623,-2.626 0.073,-0.536 0.113,-2.098 -0.005,-3.306 -0.124,-1.219 0.238,-2.792 0.005,-5.11 -0.12,-1.218 0.533,-2.48 2.303,-2.578 1.76,-0.094 2.47,0.849 2.4,2.349 -0.07,1.495 -0.78,2.864 -0.96,4.364 -0.19,1.5 -0.23,3.048 -0.21,4.261 0.03,1.38 -0.48,2.072 -0.9,2.271 -1.1,0.484 -2.01,0.375 -2.01,0.375 z"
     id="path1039" />
  <path
     style="fill:#231f20;fill-opacity:1;fill-rule:nonzero;stroke:none"
     d="m 255.64657,75.882811 c -0.34,-0.547 -0.03,-2.469 -0.41,-4.032 -0.25,-1.057 0.26,-3.755 -0.08,-4.787 -0.3,-0.948 -0.35,-1.41 0.67,-1.937 0.61,-0.312 1.98,-0.536 2.24,-0.088 0.6,1.031 0.71,1.968 0.62,3.031 -0.11,1.214 -0.68,4.469 -0.85,5.062 -0.4,1.47 -0.12,2.152 -0.19,2.547 -0.13,0.756 -0.45,0.885 -0.95,0.902 -0.96,0.041 -1.05,-0.698 -1.05,-0.698"
     id="path1040" />
  <path
     style="fill:none;stroke:#231f20;stroke-width:0.565977;stroke-linecap:butt;stroke-linejoin:miter;stroke-miterlimit:4;stroke-dasharray:none;stroke-opacity:1"
     d="m 255.64657,75.882811 c -0.34,-0.547 -0.03,-2.469 -0.41,-4.032 -0.25,-1.057 0.26,-3.755 -0.08,-4.787 -0.3,-0.948 -0.35,-1.41 0.67,-1.937 0.61,-0.312 1.98,-0.536 2.24,-0.088 0.6,1.031 0.71,1.968 0.62,3.031 -0.11,1.214 -0.68,4.469 -0.85,5.062 -0.4,1.47 -0.12,2.152 -0.19,2.547 -0.13,0.756 -0.45,0.885 -0.95,0.902 -0.96,0.041 -1.05,-0.698 -1.05,-0.698 z"
     id="path1041" />
  <path
     style="fill:#231f20;fill-opacity:1;fill-rule:nonzero;stroke:none"
     d="m 256.91657,67.215811 c -0.79,1.026 -2.14,-0.5 -2.56,-0.844 -0.42,-0.349 -1.73,-1.202 -2.82,-1.74 -1.11,-0.53 -2.25,-1.672 -4.34,-2.692 -1.1,-0.537 -1.83,-1.75 -0.98,-3.313 0.84,-1.547 2.02,-1.656 3.25,-0.807 1.23,0.854 2.03,2.167 3.21,3.115 1.18,0.937 2.48,1.792 3.51,2.411 1.2,0.709 1.52,1.5 1.46,1.969 -0.15,1.188 -0.73,1.901 -0.73,1.901"
     id="path1042" />
  <path
     style="fill:none;stroke:#231f20;stroke-width:0.565977;stroke-linecap:butt;stroke-linejoin:miter;stroke-miterlimit:4;stroke-dasharray:none;stroke-opacity:1"
     d="m 256.91657,67.215811 c -0.79,1.026 -2.14,-0.5 -2.56,-0.844 -0.42,-0.349 -1.73,-1.202 -2.82,-1.74 -1.11,-0.53 -2.25,-1.672 -4.34,-2.692 -1.1,-0.537 -1.83,-1.75 -0.98,-3.313 0.84,-1.547 2.02,-1.656 3.25,-0.807 1.23,0.854 2.03,2.167 3.21,3.115 1.18,0.937 2.48,1.792 3.51,2.411 1.2,0.709 1.52,1.5 1.46,1.969 -0.15,1.188 -0.73,1.901 -0.73,1.901 z"
     id="path1043" />
  <path
     style="fill:#231f20;fill-opacity:1;fill-rule:nonzero;stroke:none"
     d="m 256.35657,82.038811 c 0.35,-0.636 0.88,-3.844 0.96,-4.584 0.09,-0.656 0.58,-1.708 -0.4,-2.323 -0.39,-0.254 -1.14,-0.338 -1.46,-0.292 -0.26,0.038 -0.4,0.334 -0.41,0.735 -0.01,0.661 0.24,0.86 0.27,2.136 0,0 0.06,0.307 0.2,0.839 0.38,1.582 0.36,0.853 0.41,3.27 0,0.167 0.17,0.292 0.29,0.281 0.18,-0.02 0.14,-0.062 0.14,-0.062"
     id="path1044" />
  <path
     style="fill:none;stroke:#231f20;stroke-width:0.565977;stroke-linecap:round;stroke-linejoin:round;stroke-miterlimit:4;stroke-dasharray:none;stroke-opacity:1"
     d="m 256.35657,82.038811 c 0.35,-0.636 0.88,-3.844 0.96,-4.584 0.09,-0.656 0.58,-1.708 -0.4,-2.323 -0.39,-0.254 -1.14,-0.338 -1.46,-0.292 -0.26,0.038 -0.4,0.334 -0.41,0.735 -0.01,0.661 0.24,0.86 0.27,2.136 0,0 0.06,0.307 0.2,0.839 0.38,1.582 0.36,0.853 0.41,3.27 0,0.167 0.17,0.292 0.29,0.281 0.18,-0.02 0.14,-0.062 0.14,-0.062 z"
     id="path1045" />
  <path
     style="fill:none;stroke:#231f20;stroke-width:0.399514;stroke-linecap:butt;stroke-linejoin:miter;stroke-miterlimit:4;stroke-dasharray:none;stroke-opacity:1"
     d="m 225.04457,29.569811 c 25.482,-7.234 29.762,5.338 23.442,10.901"
     id="path1046" />
  <path
     style="fill:#231f20;fill-opacity:1;fill-rule:nonzero;stroke:none"
     d="m 247.57657,41.267811 c 0.29,-0.532 0.58,-1.27 0.66,-1.844 l 0.37,0.943 0.89,0.484 c -0.59,0.005 -1.35,0.199 -1.92,0.417"
     id="path1047" />
  <path
     style="fill:#231f20;fill-opacity:1;fill-rule:nonzero;stroke:none"
     d="m 241.28657,70.283811 c -1.5,-2.39 -1.3,-5.224 0.45,-6.333 1.75,-1.111 4.4,-0.079 5.91,2.312 1.51,2.385 1.31,5.219 -0.45,6.328 -1.75,1.115 -4.39,0.079 -5.91,-2.307"
     id="path1048" />
  <path
     style="fill:none;stroke:#231f20;stroke-width:0.565977;stroke-linecap:butt;stroke-linejoin:miter;stroke-miterlimit:4;stroke-dasharray:none;stroke-opacity:1"
     d="m 241.28657,70.283811 c -1.5,-2.39 -1.3,-5.224 0.45,-6.333 1.75,-1.111 4.4,-0.079 5.91,2.312 1.51,2.385 1.31,5.219 -0.45,6.328 -1.75,1.115 -4.39,0.079 -5.91,-2.307 z"
     id="path1049" />
  <path
     style="fill:#231f20;fill-opacity:1;fill-rule:nonzero;stroke:none"
     d="m 240.55657,46.959811 c 3.54,-0.713 2.88,-2.265 3.08,-6.338 0.23,-4.452 -0.03,-9.119 -1.15,-12.224 -1.27,-3.468 -0.86,-3.796 -2.76,-4.078 -1.9,-0.276 -2.04,0.49 -2.95,1.402 -1.06,1.046 1.11,8.077 0.71,12.812 -0.19,2.224 -2.08,7.417 -0.7,7.869 1.38,0.459 3.77,0.557 3.77,0.557"
     id="path1050" />
  <path
     style="fill:none;stroke:#231f20;stroke-width:0.565977;stroke-linecap:butt;stroke-linejoin:miter;stroke-miterlimit:4;stroke-dasharray:none;stroke-opacity:1"
     d="m 240.55657,46.959811 c 3.54,-0.713 2.88,-2.265 3.08,-6.338 0.23,-4.452 -0.03,-9.119 -1.15,-12.224 -1.27,-3.468 -0.86,-3.796 -2.76,-4.078 -1.9,-0.276 -2.04,0.49 -2.95,1.402 -1.06,1.046 1.11,8.077 0.71,12.812 -0.19,2.224 -2.08,7.417 -0.7,7.869 1.38,0.459 3.77,0.557 3.77,0.557 z"
     id="path1051" />
  <path
     style="fill:#231f20;fill-opacity:1;fill-rule:nonzero;stroke:none"
     d="m 238.78657,26.366811 c 2.25,0.073 2.92,0.125 2.6,-2.36 -0.08,-0.629 -0.44,-2.369 -0.38,-2.755 0.19,-1.286 0.3,-2.792 -1.96,-8.978 -0.35,-0.954 -0.7,-2.9020001 -1.07,-4.2560001 -0.35,-1.312 -2.29,0.161 -2.16,0.677 0.44,1.6610001 0.35,2.8280001 0.42,3.4430001 0.05,0.422 0.27,1.198 0.06,2.849 -0.55,4.244 0.71,5.516 0.68,6.416 -0.12,2.579 -0.75,4.761 -0.14,5.027 1,0.437 1.95,-0.063 1.95,-0.063"
     id="path1052" />
  <path
     style="fill:none;stroke:#231f20;stroke-width:0.565977;stroke-linecap:butt;stroke-linejoin:miter;stroke-miterlimit:4;stroke-dasharray:none;stroke-opacity:1"
     d="m 238.78657,26.366811 c 2.25,0.073 2.92,0.125 2.6,-2.36 -0.08,-0.629 -0.44,-2.369 -0.38,-2.755 0.19,-1.286 0.3,-2.792 -1.96,-8.978 -0.35,-0.954 -0.7,-2.9020001 -1.07,-4.2560001 -0.35,-1.312 -2.29,0.161 -2.16,0.677 0.44,1.6610001 0.35,2.8280001 0.42,3.4430001 0.05,0.422 0.27,1.198 0.06,2.849 -0.55,4.244 0.71,5.516 0.68,6.416 -0.12,2.579 -0.75,4.761 -0.14,5.027 1,0.437 1.95,-0.063 1.95,-0.063 z"
     id="path1053" />
  <path
     style="fill:#231f20;fill-opacity:1;fill-rule:nonzero;stroke:none"
     d="m 234.32657,47.063811 c -3.584,-0.39 -3.078,-1.989 -3.652,-6.036 -0.62,-4.41 -0.797,-9.088 0.042,-12.276 0.933,-3.562 0.505,-3.854 2.37,-4.312 1.86,-0.453 2.07,0.302 3.06,1.124 1.15,0.954 -0.36,8.152 0.47,12.83 0.39,2.192 2.75,7.192 1.42,7.77 -1.34,0.578 -3.71,0.9 -3.71,0.9"
     id="path1054" />
  <path
     style="fill:none;stroke:#231f20;stroke-width:0.565977;stroke-linecap:butt;stroke-linejoin:miter;stroke-miterlimit:4;stroke-dasharray:none;stroke-opacity:1"
     d="m 234.32657,47.063811 c -3.584,-0.39 -3.078,-1.989 -3.652,-6.036 -0.62,-4.41 -0.797,-9.088 0.042,-12.276 0.933,-3.562 0.505,-3.854 2.37,-4.312 1.86,-0.453 2.07,0.302 3.06,1.124 1.15,0.954 -0.36,8.152 0.47,12.83 0.39,2.192 2.75,7.192 1.42,7.77 -1.34,0.578 -3.71,0.9 -3.71,0.9 z"
     id="path1055" />
  <path
     style="fill:#231f20;fill-opacity:1;fill-rule:nonzero;stroke:none"
     d="m 234.19657,26.407811 c -2.25,0.266 -2.907,0.371 -2.803,-2.129 0.032,-0.636 0.235,-2.401 0.147,-2.781 -0.303,-1.262 -0.543,-2.751 1.176,-9.104 0.27,-0.991 0.45,-2.9590001 0.7,-4.3390001 0.24,-1.333 2.29,-0.037 2.21,0.495 -0.29,1.6860001 -0.1,2.8380001 -0.12,3.4570001 -0.01,0.433 -0.18,1.22 0.18,2.849 0.92,4.178 -0.24,5.558 -0.12,6.448 0.34,2.563 1.15,4.683 0.57,5 -0.96,0.522 -1.94,0.104 -1.94,0.104"
     id="path1056" />
  <path
     style="fill:none;stroke:#231f20;stroke-width:0.565977;stroke-linecap:butt;stroke-linejoin:miter;stroke-miterlimit:4;stroke-dasharray:none;stroke-opacity:1"
     d="m 234.19657,26.407811 c -2.25,0.266 -2.907,0.371 -2.803,-2.129 0.032,-0.636 0.235,-2.401 0.147,-2.781 -0.303,-1.262 -0.543,-2.751 1.176,-9.104 0.27,-0.991 0.45,-2.9590001 0.7,-4.3390001 0.24,-1.333 2.29,-0.037 2.21,0.495 -0.29,1.6860001 -0.1,2.8380001 -0.12,3.4570001 -0.01,0.433 -0.18,1.22 0.18,2.849 0.92,4.178 -0.24,5.558 -0.12,6.448 0.34,2.563 1.15,4.683 0.57,5 -0.96,0.522 -1.94,0.104 -1.94,0.104 z"
     id="path1057" />
  <path
     style="fill:#231f20;fill-opacity:1;fill-rule:nonzero;stroke:none"
     d="m 232.59657,4.6378109 c -0.27,0.609 0.98,1.912 1.06,3.88 0.02,0.401 0.23,0.718 0.37,1.062 0.61,1.3800001 1.91,2.3030001 2.72,-1.437 0.12,-0.516 -0.33,-2.573 -0.1,-3.317 0.54,-1.787 -1.15,-4.64699996 -1.65,-4.49499996 -1.07,0.323 -2.4,4.30699996 -2.4,4.30699996"
     id="path1058" />
  <path
     style="fill:none;stroke:#231f20;stroke-width:0.644548;stroke-linecap:round;stroke-linejoin:round;stroke-miterlimit:4;stroke-dasharray:none;stroke-opacity:1"
     d="m 232.59657,4.6378109 c -0.27,0.609 0.98,1.912 1.06,3.88 0.02,0.401 0.23,0.718 0.37,1.062 0.61,1.3800001 1.91,2.3030001 2.72,-1.437 0.12,-0.516 -0.33,-2.573 -0.1,-3.317 0.54,-1.787 -1.15,-4.64699996 -1.65,-4.49499996 -1.07,0.323 -2.4,4.30699996 -2.4,4.30699996 z"
     id="path1059" />
  <path
     style="fill:#231f20;fill-opacity:1;fill-rule:nonzero;stroke:none"
     d="m 238.73657,4.2988109 c 0.34,0.568 -0.73,2.016 -0.56,3.98 0.03,0.4 -0.13,0.739 -0.24,1.099 -0.42,1.4530001 -1.6,2.5300001 -2.88,-1.079 -0.17,-0.5 0,-2.593 -0.31,-3.306 -0.77,-1.699 0.55,-4.75599996 1.06,-4.66699996 1.1,0.181 2.93,3.97299996 2.93,3.97299996"
     id="path1060" />
  <path
     style="fill:none;stroke:#231f20;stroke-width:0.644548;stroke-linecap:round;stroke-linejoin:round;stroke-miterlimit:4;stroke-dasharray:none;stroke-opacity:1"
     d="m 238.73657,4.2988109 c 0.34,0.568 -0.73,2.016 -0.56,3.98 0.03,0.4 -0.13,0.739 -0.24,1.099 -0.42,1.4530001 -1.6,2.5300001 -2.88,-1.079 -0.17,-0.5 0,-2.593 -0.31,-3.306 -0.77,-1.699 0.55,-4.75599996 1.06,-4.66699996 1.1,0.181 2.93,3.97299996 2.93,3.97299996 z"
     id="path1061" />
  <path
     style="fill:#231f20;fill-opacity:1;fill-rule:nonzero;stroke:none"
     d="m 241.53657,42.287811 c -0.4,0.606 -2.99,2.574 -3.6,2.991 -0.55,0.391 -1.25,1.312 -2.25,0.733 -0.4,-0.233 -0.83,-0.853 -0.94,-1.156 -0.08,-0.244 0.11,-0.505 0.46,-0.702 0.58,-0.328 0.88,-0.199 2.02,-0.756 0,0 0.29,-0.094 0.82,-0.228 1.59,-0.396 0.93,-0.074 3.09,-1.163 0.15,-0.077 0.35,0.027 0.39,0.131 0.07,0.166 0.01,0.15 0.01,0.15"
     id="path1062" />
  <path
     style="fill:none;stroke:#231f20;stroke-width:0.565977;stroke-linecap:round;stroke-linejoin:round;stroke-miterlimit:4;stroke-dasharray:none;stroke-opacity:1"
     d="m 241.53657,42.287811 c -0.4,0.606 -2.99,2.574 -3.6,2.991 -0.55,0.391 -1.25,1.312 -2.25,0.733 -0.4,-0.233 -0.83,-0.853 -0.94,-1.156 -0.08,-0.244 0.11,-0.505 0.46,-0.702 0.58,-0.328 0.88,-0.199 2.02,-0.756 0,0 0.29,-0.094 0.82,-0.228 1.59,-0.396 0.93,-0.074 3.09,-1.163 0.15,-0.077 0.35,0.027 0.39,0.131 0.07,0.166 0.01,0.15 0.01,0.15 z"
     id="path1063" />
  <path
     style="fill:#0098c9;fill-opacity:1;fill-rule:nonzero;stroke:none"
     d="m 246.39657,56.366811 c -0.96,-0.927 -3.66,-5.26 -4.65,-8.355 -0.23,-0.708 0.44,-3.02 -0.18,-1.932 l -0.35,0.09 c -3.04,-0.658 -5.39,-6.011 -5.39,-6.011 0,0 -0.7,-0.235 -1.17,-0.089 -0.48,0.141 -0.94,0.724 -0.94,0.724 0,0 0.99,5.761 -1.18,7.989 l -0.34,0.12 c -1.11,-0.572 0.73,0.991 0.93,1.704 0.88,3.135 1.02,8.229 0.72,9.531 -0.41,1.792 -2.745,2.745 -1.19,4.245 0,0 1.15,1.869 3.71,0.719 0.93,-0.412 3.25,-0.371 3.25,-0.371 h 0.01 c 0.24,0.037 1.37,0.193 2.35,-0.124 1.11,-0.36 2.15,-1.229 2.15,-1.229 0,0 1.91,-1.318 2.91,-1.49 2.77,-0.453 2.83,-2.401 2.83,-2.401 0.47,-2.109 -2.14,-1.855 -3.47,-3.12"
     id="path1064" />
  <path
     style="fill:none;stroke:#231f20;stroke-width:0.565977;stroke-linecap:butt;stroke-linejoin:miter;stroke-miterlimit:4;stroke-dasharray:none;stroke-opacity:1"
     d="m 246.39657,56.366811 c -0.96,-0.927 -3.66,-5.26 -4.65,-8.355 -0.23,-0.708 0.44,-3.02 -0.18,-1.932 l -0.35,0.09 c -3.04,-0.658 -5.39,-6.011 -5.39,-6.011 0,0 -0.7,-0.235 -1.17,-0.089 -0.48,0.141 -0.94,0.724 -0.94,0.724 0,0 0.99,5.761 -1.18,7.989 l -0.34,0.12 c -1.11,-0.572 0.73,0.991 0.93,1.704 0.88,3.135 1.02,8.229 0.72,9.531 -0.41,1.792 -2.745,2.745 -1.19,4.245 0,0 1.15,1.869 3.71,0.719 0.93,-0.412 3.25,-0.371 3.25,-0.371 h 0.01 c 0.24,0.037 1.37,0.193 2.35,-0.124 1.11,-0.36 2.15,-1.229 2.15,-1.229 0,0 1.91,-1.318 2.91,-1.49 2.77,-0.453 2.83,-2.401 2.83,-2.401 0.47,-2.109 -2.14,-1.855 -3.47,-3.12 z"
     id="path1065" />
  <path
     style="fill:#0098c9;fill-opacity:1;fill-rule:nonzero;stroke:none"
     d="m 232.47657,50.006811 c -0.23,-0.255 -0.999,-1.389 -1.218,-1.801 -1.37,-2.631 -1.682,-6.574 -2.078,-7.787 -0.402,-1.208 6.166,-1.817 6.166,-1.817 l 0.91,1.145 c 0.4,-0.473 0.18,-0.02 0.18,-0.02 l 0.81,-1.401 c 0,0 6.4,-0.912 6.35,0.104 -0.06,1.39 0.32,6 -0.38,8.344 -0.38,1.29 -1.08,2.036 -1.08,2.036 0,0 -3.74,-0.703 -5.16,-0.558 -1.42,0.146 -4.5,1.755 -4.5,1.755"
     id="path1066" />
  <path
     style="fill:none;stroke:#231f20;stroke-width:0.565977;stroke-linecap:butt;stroke-linejoin:miter;stroke-miterlimit:4;stroke-dasharray:none;stroke-opacity:1"
     d="m 232.47657,50.006811 c -0.23,-0.255 -0.999,-1.389 -1.218,-1.801 -1.37,-2.631 -1.682,-6.574 -2.078,-7.787 -0.402,-1.208 6.166,-1.817 6.166,-1.817 l 0.91,1.145 c 0.4,-0.473 0.18,-0.02 0.18,-0.02 l 0.81,-1.401 c 0,0 6.4,-0.912 6.35,0.104 -0.06,1.39 0.32,6 -0.38,8.344 -0.38,1.29 -1.08,2.036 -1.08,2.036 0,0 -3.74,-0.703 -5.16,-0.558 -1.42,0.146 -4.5,1.755 -4.5,1.755 z"
     id="path1067" />
  <path
     style="fill:none;stroke:#231f20;stroke-width:0.565977;stroke-linecap:round;stroke-linejoin:round;stroke-miterlimit:4;stroke-dasharray:none;stroke-opacity:1"
     d="m 233.20657,40.502811 c 1.18,-1.36 3.21,-0.609 3.21,-0.609 1.64,-0.819 3.14,-0.235 3.14,-0.235"
     id="path1068" />
  <path
     style="fill:#231f20;fill-opacity:1;fill-rule:nonzero;stroke:none"
     d="m 302.66657,8.4498109 c -1.11,0.772 -0.87,1.7400001 -0.03,2.3380001 0.25,0.188 0.28,0.6 0.53,0.756 0.61,0.364 2.29,-0.114 2.24,-1.6140001 0,-0.104 0.22,-0.896 0.3,-1.511 0.14,-1.202 -0.15,-3.682 -2.28,-5.333 -1.01,-0.787 -1.29,-0.041 -0.98,0.401 0.99,1.391 0.81,1.708 0.93,2.172 0.44,1.563 -0.71,2.791 -0.71,2.791"
     id="path1069" />
  <path
     style="fill:none;stroke:#231f20;stroke-width:0.332927;stroke-linecap:butt;stroke-linejoin:miter;stroke-miterlimit:4;stroke-dasharray:none;stroke-opacity:1"
     d="m 302.66657,8.4498109 c -1.11,0.772 -0.87,1.7400001 -0.03,2.3380001 0.25,0.188 0.28,0.6 0.53,0.756 0.61,0.364 2.29,-0.114 2.24,-1.6140001 0,-0.104 0.22,-0.896 0.3,-1.511 0.14,-1.202 -0.15,-3.682 -2.28,-5.333 -1.01,-0.787 -1.29,-0.041 -0.98,0.401 0.99,1.391 0.81,1.708 0.93,2.172 0.44,1.563 -0.71,2.791 -0.71,2.791 z"
     id="path1070" />
  <path
     style="fill:#231f20;fill-opacity:1;fill-rule:nonzero;stroke:none"
     d="m 303.50657,27.178811 c -2.26,0.204 -2.73,-0.063 -2.87,-1.009 -0.1,-0.631 -0.42,-1.183 -0.49,-1.563 -0.26,-1.271 -0.17,-3.516 1.73,-9.813 0.43,-1.432 1.03,-3.443 1.2,-4.287 0.29,-1.3280001 2.3,0.037 2.19,0.557 -0.33,1.688 -0.43,2.866 -0.46,3.496 -0.03,0.422 -0.17,1.171 -0.06,2.834 0.17,2.52 0.65,4 0.55,6.113 -0.05,0.985 0.54,1.751 0,2.688 -0.53,0.948 -1.79,0.984 -1.79,0.984"
     id="path1071" />
  <path
     style="fill:none;stroke:#231f20;stroke-width:0.565977;stroke-linecap:butt;stroke-linejoin:miter;stroke-miterlimit:4;stroke-dasharray:none;stroke-opacity:1"
     d="m 303.50657,27.178811 c -2.26,0.204 -2.73,-0.063 -2.87,-1.009 -0.1,-0.631 -0.42,-1.183 -0.49,-1.563 -0.26,-1.271 -0.17,-3.516 1.73,-9.813 0.43,-1.432 1.03,-3.443 1.2,-4.287 0.29,-1.3280001 2.3,0.037 2.19,0.557 -0.33,1.688 -0.43,2.866 -0.46,3.496 -0.03,0.422 -0.17,1.171 -0.06,2.834 0.17,2.52 0.65,4 0.55,6.113 -0.05,0.985 0.54,1.751 0,2.688 -0.53,0.948 -1.79,0.984 -1.79,0.984 z"
     id="path1072" />
  <path
     style="fill:#0098c9;fill-opacity:1;fill-rule:nonzero;stroke:none"
     d="m 299.19657,52.923811 c 0.24,-3.125 -0.05,-3.822 -0.34,-4.697 -1.85,-5.48 0.87,-6.281 3.65,-5.543 3.28,0.86 4.48,1.11 3.4,7.308 -0.31,1.73 -0.59,8.495 -0.59,8.495 0.23,2.437 -0.86,4.937 -2.12,5.656 -1.33,0.76 -0.86,0.364 -2.22,0.844 -1.3,0.453 -3.45,0.036 -4.05,-1.041 -0.58,-1.038 0.25,-2.48 1.18,-4.719 0.73,-1.767 1.09,-6.303 1.09,-6.303"
     id="path1073" />
  <path
     style="fill:none;stroke:#231f20;stroke-width:0.565977;stroke-linecap:butt;stroke-linejoin:miter;stroke-miterlimit:4;stroke-dasharray:none;stroke-opacity:1"
     d="m 299.19657,52.923811 c 0.24,-3.125 -0.05,-3.822 -0.34,-4.697 -1.85,-5.48 0.87,-6.281 3.65,-5.543 3.28,0.86 4.48,1.11 3.4,7.308 -0.31,1.73 -0.59,8.495 -0.59,8.495 0.23,2.437 -0.86,4.937 -2.12,5.656 -1.33,0.76 -0.86,0.364 -2.22,0.844 -1.3,0.453 -3.45,0.036 -4.05,-1.041 -0.58,-1.038 0.25,-2.48 1.18,-4.719 0.73,-1.767 1.09,-6.303 1.09,-6.303 z"
     id="path1074" />
  <path
     style="fill:#ffffff;fill-opacity:1;fill-rule:nonzero;stroke:none"
     d="m 298.61657,71.397811 c -0.19,0.162 0.32,1.193 -0.12,1.458 -0.46,0.271 -1.02,-0.286 -2.99,-0.098 h -0.03 c -1.44,0.188 -2.77,-0.23 -3.49,-1.251 -1.2,-1.697 -0.31,-4.395 1.99,-6.025 2.31,-1.642 5.15,-1.584 6.35,0.104 1.15,1.62 0.38,4.166 -1.71,5.812"
     id="path1075" />
  <path
     style="fill:none;stroke:#231f20;stroke-width:0.565977;stroke-linecap:butt;stroke-linejoin:miter;stroke-miterlimit:4;stroke-dasharray:none;stroke-opacity:1"
     d="m 298.61657,71.397811 c -0.19,0.162 0.32,1.193 -0.12,1.458 -0.46,0.271 -1.02,-0.286 -2.99,-0.098 h -0.03 c -1.44,0.188 -2.77,-0.23 -3.49,-1.251 -1.2,-1.697 -0.31,-4.395 1.99,-6.025 2.31,-1.642 5.15,-1.584 6.35,0.104 1.15,1.62 0.38,4.166 -1.71,5.812 z"
     id="path1076" />
  <path
     style="fill:#231f20;fill-opacity:1;fill-rule:nonzero;stroke:none"
     d="m 302.72657,24.835811 c 3.95,-0.693 2.78,3.214 2.87,3.687 0.88,4.927 0.82,5.308 1.23,9.104 0.6,5.495 0.17,9.355 -2.93,10.636 -2.1,0.864 -3.69,0.464 -4.6,-0.489 -1.02,-1.047 -1.93,-4.09 -0.03,-6.271 l 0.28,-1.688 c 0.03,-1.167 0.07,-1.735 0.03,-2.312 -0.04,-1 -0.03,-2.079 0,-4.037 0.03,-3.468 1.21,-7.126 1.21,-7.126 0.04,-1.244 1.94,-1.504 1.94,-1.504"
     id="path1077" />
  <path
     style="fill:none;stroke:#231f20;stroke-width:0.565977;stroke-linecap:butt;stroke-linejoin:miter;stroke-miterlimit:4;stroke-dasharray:none;stroke-opacity:1"
     d="m 302.72657,24.835811 c 3.95,-0.693 2.78,3.214 2.87,3.687 0.88,4.927 0.82,5.308 1.23,9.104 0.6,5.495 0.17,9.355 -2.93,10.636 -2.1,0.864 -3.69,0.464 -4.6,-0.489 -1.02,-1.047 -1.93,-4.09 -0.03,-6.271 l 0.28,-1.688 c 0.03,-1.167 0.07,-1.735 0.03,-2.312 -0.04,-1 -0.03,-2.079 0,-4.037 0.03,-3.468 1.21,-7.126 1.21,-7.126 0.04,-1.244 1.94,-1.504 1.94,-1.504 z"
     id="path1078" />
  <path
     style="fill:#0098c9;fill-opacity:1;fill-rule:nonzero;stroke:none"
     d="m 307.32657,43.850811 c -0.01,-0.068 -0.02,-0.145 -0.03,-0.229 0.14,-0.567 0.27,-1.162 0.37,-1.812 l -7.79,-0.672 c -2.23,1.828 -1.84,4.984 -1.01,6.188 0.74,1.082 2.24,1.749 4.45,1.244 1.44,-0.328 2.44,-1.25 3.15,-2.635 0.67,-0.797 1.05,-1.297 0.86,-2.084"
     id="path1079" />
  <path
     style="fill:none;stroke:#231f20;stroke-width:0.565977;stroke-linecap:butt;stroke-linejoin:miter;stroke-miterlimit:4;stroke-dasharray:none;stroke-opacity:1"
     d="m 307.32657,43.850811 c -0.01,-0.068 -0.02,-0.145 -0.03,-0.229 0.14,-0.567 0.27,-1.162 0.37,-1.812 l -7.79,-0.672 c -2.23,1.828 -1.84,4.984 -1.01,6.188 0.74,1.082 2.24,1.749 4.45,1.244 1.44,-0.328 2.44,-1.25 3.15,-2.635 0.67,-0.797 1.05,-1.297 0.86,-2.084 z"
     id="path1080" />
  <path
     style="fill:#231f20;fill-opacity:1;fill-rule:nonzero;stroke:none"
     d="m 303.09657,82.631811 c 0.29,-0.577 -0.18,-2.468 0.05,-4.057 0.16,-1.077 -0.57,-3.719 -0.33,-4.776 0.22,-0.968 0.23,-1.432 -0.83,-1.875 -0.63,-0.26 -2.02,-0.36 -2.23,0.104 -0.51,1.079 -0.55,2.027 -0.36,3.079 0.2,1.197 1.06,4.396 1.27,4.968 0.53,1.428 0.3,2.131 0.4,2.521 0.2,0.74 0.53,0.844 1.03,0.823 0.97,-0.047 1,-0.787 1,-0.787"
     id="path1081" />
  <path
     style="fill:none;stroke:#231f20;stroke-width:0.565977;stroke-linecap:butt;stroke-linejoin:miter;stroke-miterlimit:4;stroke-dasharray:none;stroke-opacity:1"
     d="m 303.09657,82.631811 c 0.29,-0.577 -0.18,-2.468 0.05,-4.057 0.16,-1.077 -0.57,-3.719 -0.33,-4.776 0.22,-0.968 0.23,-1.432 -0.83,-1.875 -0.63,-0.26 -2.02,-0.36 -2.23,0.104 -0.51,1.079 -0.55,2.027 -0.36,3.079 0.2,1.197 1.06,4.396 1.27,4.968 0.53,1.428 0.3,2.131 0.4,2.521 0.2,0.74 0.53,0.844 1.03,0.823 0.97,-0.047 1,-0.787 1,-0.787 z"
     id="path1082" />
  <path
     style="fill:#231f20;fill-opacity:1;fill-rule:nonzero;stroke:none"
     d="m 302.16657,73.617811 c 1.27,-0.272 0.48,-2.152 0.35,-2.672 -0.13,-0.532 -0.33,-2.074 -0.33,-3.298 -0.01,-1.229 -0.53,-2.75 -0.55,-5.078 0,-1.224 -0.78,-2.411 -2.55,-2.328 -1.76,0.089 -2.37,1.104 -2.14,2.584 0.23,1.478 1.07,2.77 1.41,4.244 0.33,1.469 0.54,3.005 0.64,4.214 0.12,1.38 0.69,2.02 1.14,2.162 1.14,0.374 2.03,0.172 2.03,0.172"
     id="path1083" />
  <path
     style="fill:none;stroke:#231f20;stroke-width:0.565977;stroke-linecap:butt;stroke-linejoin:miter;stroke-miterlimit:4;stroke-dasharray:none;stroke-opacity:1"
     d="m 302.16657,73.617811 c 1.27,-0.272 0.48,-2.152 0.35,-2.672 -0.13,-0.532 -0.33,-2.074 -0.33,-3.298 -0.01,-1.229 -0.53,-2.75 -0.55,-5.078 0,-1.224 -0.78,-2.411 -2.55,-2.328 -1.76,0.089 -2.37,1.104 -2.14,2.584 0.23,1.478 1.07,2.77 1.41,4.244 0.33,1.469 0.54,3.005 0.64,4.214 0.12,1.38 0.69,2.02 1.14,2.162 1.14,0.374 2.03,0.172 2.03,0.172 z"
     id="path1084" />
  <path
     style="fill:#ffffff;fill-opacity:1;fill-rule:nonzero;stroke:none"
     d="m 301.18657,86.335811 c 0.64,0.807 1.81,0.948 2.61,0.317 0.82,-0.63 0.96,-1.802 0.33,-2.614 -0.63,-0.808 -1.81,-0.953 -2.61,-0.317 -0.82,0.634 -0.96,1.806 -0.33,2.614"
     id="path1085" />
  <path
     style="fill:none;stroke:#231f20;stroke-width:1.33171;stroke-linecap:butt;stroke-linejoin:miter;stroke-miterlimit:4;stroke-dasharray:none;stroke-opacity:1"
     d="m 301.18657,86.335811 c 0.64,0.807 1.81,0.948 2.61,0.317 0.82,-0.63 0.96,-1.802 0.33,-2.614 -0.63,-0.808 -1.81,-0.953 -2.61,-0.317 -0.82,0.634 -0.96,1.806 -0.33,2.614 z"
     id="path1086" />
  <path
     style="fill:#231f20;fill-opacity:1;fill-rule:nonzero;stroke:none"
     d="m 13.461563,64.397811 c -2.125,-0.78 -2.64,-0.656 -3.036,0.22 -0.261,0.582 -0.7090005,1.03 -0.8810005,1.374 -0.593,1.156 -1.104,3.344 -0.947,9.927 0.036,1.489 0.072,3.584 0.015,4.443 -0.077,1.354 2.2240005,0.578 2.2610005,0.041 0.124,-1.708 0.354,-2.875 0.479,-3.484 0.088,-0.416 0.151,-1.172 0.703,-2.745 0.833,-2.386 1.693,-3.687 2.156,-5.755 0.224,-0.959 0.99,-1.536 0.72,-2.588 -0.262,-1.052 -1.47,-1.433 -1.47,-1.433"
     id="path1087" />
  <path
     style="fill:none;stroke:#231f20;stroke-width:0.565977;stroke-linecap:butt;stroke-linejoin:miter;stroke-miterlimit:4;stroke-dasharray:none;stroke-opacity:1"
     d="m 13.461563,64.397811 c -2.125,-0.78 -2.64,-0.656 -3.036,0.22 -0.261,0.582 -0.7090005,1.03 -0.8810005,1.374 -0.593,1.156 -1.104,3.344 -0.947,9.927 0.036,1.489 0.072,3.584 0.015,4.443 -0.077,1.354 2.2240005,0.578 2.2610005,0.041 0.124,-1.708 0.354,-2.875 0.479,-3.484 0.088,-0.416 0.151,-1.172 0.703,-2.745 0.833,-2.386 1.693,-3.687 2.156,-5.755 0.224,-0.959 0.99,-1.536 0.72,-2.588 -0.262,-1.052 -1.47,-1.433 -1.47,-1.433 z"
     id="path1088" />
  <path
     style="fill:#231f20;fill-opacity:1;fill-rule:nonzero;stroke:none"
     d="m 12.087563,66.459811 c 3.624,1.719 3.536,-2.358 3.744,-2.79 2.166,-4.522 2.213,-4.896 3.625,-8.448 2.036,-5.136 2.645,-8.97 0,-11.032 -1.787,-1.396 -3.432,-1.427 -4.568,-0.76 -1.255,0.744 -2.943,3.432 -1.692,6.041 l -0.188,1.703 c -0.271,1.13 -0.396,1.693 -0.573,2.24 -0.307,0.948 -0.588,1.994 -1.088,3.88 -0.891,3.365 -0.73,7.198 -0.73,7.198 -0.292,1.214 1.47,1.968 1.47,1.968"
     id="path1089" />
  <path
     style="fill:none;stroke:#231f20;stroke-width:0.565977;stroke-linecap:butt;stroke-linejoin:miter;stroke-miterlimit:4;stroke-dasharray:none;stroke-opacity:1"
     d="m 12.087563,66.459811 c 3.624,1.719 3.536,-2.358 3.744,-2.79 2.166,-4.522 2.213,-4.896 3.625,-8.448 2.036,-5.136 2.645,-8.97 0,-11.032 -1.787,-1.396 -3.432,-1.427 -4.568,-0.76 -1.255,0.744 -2.943,3.432 -1.692,6.041 l -0.188,1.703 c -0.271,1.13 -0.396,1.693 -0.573,2.24 -0.307,0.948 -0.588,1.994 -1.088,3.88 -0.891,3.365 -0.73,7.198 -0.73,7.198 -0.292,1.214 1.47,1.968 1.47,1.968 z"
     id="path1090" />
  <path
     style="fill:#231f20;fill-opacity:1;fill-rule:nonzero;stroke:none"
     d="m 7.6645625,82.235811 c -0.859,-1.041 -0.369,-1.9 0.6,-2.265 0.285,-0.109 0.427,-0.5 0.719,-0.583 0.676,-0.188 2.1660005,0.719 1.7240005,2.156 -0.032,0.099 -0.027,0.916 -0.12,1.531 -0.178,1.199 -1.1200005,3.516 -3.6200005,4.532 -1.183,0.489 -1.251,-0.297 -0.828,-0.647 1.328,-1.072 1.234,-1.432 1.478,-1.844 0.834,-1.385 0.047,-2.88 0.047,-2.88"
     id="path1091" />
  <path
     style="fill:none;stroke:#231f20;stroke-width:0.332927;stroke-linecap:butt;stroke-linejoin:miter;stroke-miterlimit:4;stroke-dasharray:none;stroke-opacity:1"
     d="m 7.6645625,82.235811 c -0.859,-1.041 -0.369,-1.9 0.6,-2.265 0.285,-0.109 0.427,-0.5 0.719,-0.583 0.676,-0.188 2.1660005,0.719 1.7240005,2.156 -0.032,0.099 -0.027,0.916 -0.12,1.531 -0.178,1.199 -1.1200005,3.516 -3.6200005,4.532 -1.183,0.489 -1.251,-0.297 -0.828,-0.647 1.328,-1.072 1.234,-1.432 1.478,-1.844 0.834,-1.385 0.047,-2.88 0.047,-2.88 z"
     id="path1092" />
  <path
     style="fill:#0098c9;fill-opacity:1;fill-rule:nonzero;stroke:none"
     d="m 21.305563,55.063811 c -0.562,-3.077 -0.349,-3.806 -0.136,-4.702 1.276,-5.635 -1.51,-6.162 -4.208,-5.14 -3.172,1.197 -4.338,1.561 -2.63,7.624 0.48,1.688 1.464,8.385 1.464,8.385 0.026,2.448 1.354,4.819 2.688,5.407 1.405,0.62 0.89,0.27 2.296,0.609 1.344,0.323 3.432,-0.312 3.917,-1.448 0.473,-1.093 -0.5,-2.437 -1.656,-4.572 -0.907,-1.683 -1.735,-6.163 -1.735,-6.163"
     id="path1093" />
  <path
     style="fill:none;stroke:#231f20;stroke-width:0.565977;stroke-linecap:butt;stroke-linejoin:miter;stroke-miterlimit:4;stroke-dasharray:none;stroke-opacity:1"
     d="m 21.305563,55.063811 c -0.562,-3.077 -0.349,-3.806 -0.136,-4.702 1.276,-5.635 -1.51,-6.162 -4.208,-5.14 -3.172,1.197 -4.338,1.561 -2.63,7.624 0.48,1.688 1.464,8.385 1.464,8.385 0.026,2.448 1.354,4.819 2.688,5.407 1.405,0.62 0.89,0.27 2.296,0.609 1.344,0.323 3.432,-0.312 3.917,-1.448 0.473,-1.093 -0.5,-2.437 -1.656,-4.572 -0.907,-1.683 -1.735,-6.163 -1.735,-6.163 z"
     id="path1094" />
  <path
     style="fill:#ffffff;fill-opacity:1;fill-rule:nonzero;stroke:none"
     d="m 26.951563,73.939811 c 0.229,0.104 0.052,1.23 0.562,1.354 0.511,0.114 0.875,-0.578 2.823,-0.995 l 0.021,-0.005 c 1.432,-0.26 2.568,-1.058 2.954,-2.255 0.634,-1.975 -1.027,-4.276 -3.714,-5.141 -2.693,-0.864 -5.386,0.037 -6.021,2.016 -0.615,1.885 0.891,4.084 3.375,5.026"
     id="path1095" />
  <path
     style="fill:none;stroke:#231f20;stroke-width:0.565977;stroke-linecap:butt;stroke-linejoin:miter;stroke-miterlimit:4;stroke-dasharray:none;stroke-opacity:1"
     d="m 26.951563,73.939811 c 0.229,0.104 0.052,1.23 0.562,1.354 0.511,0.114 0.875,-0.578 2.823,-0.995 l 0.021,-0.005 c 1.432,-0.26 2.568,-1.058 2.954,-2.255 0.634,-1.975 -1.027,-4.276 -3.714,-5.141 -2.693,-0.864 -5.386,0.037 -6.021,2.016 -0.615,1.885 0.891,4.084 3.375,5.026 z"
     id="path1096" />
  <path
     style="fill:#231f20;fill-opacity:1;fill-rule:nonzero;stroke:none"
     d="m 16.825563,84.188811 c -0.26,-0.588 0.319,-2.447 0.162,-4.051 -0.104,-1.083 0.777,-3.688 0.589,-4.755 -0.167,-0.975 -0.145,-1.443 0.937,-1.823 0.646,-0.224 2.031,-0.25 2.224,0.228 0.448,1.1 0.432,2.052 0.188,3.089 -0.272,1.187 -1.297,4.334 -1.537,4.897 -0.609,1.396 -0.416,2.109 -0.547,2.494 -0.234,0.724 -0.568,0.813 -1.068,0.76 -0.957,-0.098 -0.948,-0.839 -0.948,-0.839"
     id="path1097" />
  <path
     style="fill:none;stroke:#231f20;stroke-width:0.565977;stroke-linecap:butt;stroke-linejoin:miter;stroke-miterlimit:4;stroke-dasharray:none;stroke-opacity:1"
     d="m 16.825563,84.188811 c -0.26,-0.588 0.319,-2.447 0.162,-4.051 -0.104,-1.083 0.777,-3.688 0.589,-4.755 -0.167,-0.975 -0.145,-1.443 0.937,-1.823 0.646,-0.224 2.031,-0.25 2.224,0.228 0.448,1.1 0.432,2.052 0.188,3.089 -0.272,1.187 -1.297,4.334 -1.537,4.897 -0.609,1.396 -0.416,2.109 -0.547,2.494 -0.234,0.724 -0.568,0.813 -1.068,0.76 -0.957,-0.098 -0.948,-0.839 -0.948,-0.839 z"
     id="path1098" />
  <path
     style="fill:#231f20;fill-opacity:1;fill-rule:nonzero;stroke:none"
     d="m 18.237563,75.235811 c -1.25,-0.338 -0.364,-2.172 -0.208,-2.692 0.162,-0.516 0.448,-2.046 0.515,-3.265 0.073,-1.224 0.683,-2.719 0.819,-5.043 0.077,-1.224 0.916,-2.364 2.681,-2.181 1.745,0.176 2.303,1.229 1.996,2.692 -0.308,1.464 -1.219,2.708 -1.636,4.161 -0.417,1.454 -0.703,2.975 -0.875,4.178 -0.193,1.364 -0.797,1.969 -1.256,2.093 -1.156,0.313 -2.036,0.057 -2.036,0.057"
     id="path1099" />
  <path
     style="fill:none;stroke:#231f20;stroke-width:0.565977;stroke-linecap:butt;stroke-linejoin:miter;stroke-miterlimit:4;stroke-dasharray:none;stroke-opacity:1"
     d="m 18.237563,75.235811 c -1.25,-0.338 -0.364,-2.172 -0.208,-2.692 0.162,-0.516 0.448,-2.046 0.515,-3.265 0.073,-1.224 0.683,-2.719 0.819,-5.043 0.077,-1.224 0.916,-2.364 2.681,-2.181 1.745,0.176 2.303,1.229 1.996,2.692 -0.308,1.464 -1.219,2.708 -1.636,4.161 -0.417,1.454 -0.703,2.975 -0.875,4.178 -0.193,1.364 -0.797,1.969 -1.256,2.093 -1.156,0.313 -2.036,0.057 -2.036,0.057 z"
     id="path1100" />
  <path
     style="fill:#ffffff;fill-opacity:1;fill-rule:nonzero;stroke:none"
     d="m 18.259563,86.330811 c 0.484,-0.907 0.145,-2.032 -0.756,-2.527 -0.906,-0.484 -2.036,-0.14 -2.52,0.76 -0.491,0.907 -0.152,2.032 0.76,2.522 0.901,0.484 2.03,0.145 2.516,-0.755"
     id="path1101" />
  <path
     style="fill:none;stroke:#231f20;stroke-width:1.33171;stroke-linecap:butt;stroke-linejoin:miter;stroke-miterlimit:4;stroke-dasharray:none;stroke-opacity:1"
     d="m 18.259563,86.330811 c 0.484,-0.907 0.145,-2.032 -0.756,-2.527 -0.906,-0.484 -2.036,-0.14 -2.52,0.76 -0.491,0.907 -0.152,2.032 0.76,2.522 0.901,0.484 2.03,0.145 2.516,-0.755 z"
     id="path1102" />
  <path
     style="fill:#0098c9;fill-opacity:1;fill-rule:nonzero;stroke:none"
     d="m 125.68057,104.47081 c 3.202,1.432 4.15,1.651 5.234,2.021 5.468,1.87 6.244,0.839 7.12,-1.39 1.23,-3.162 1.604,-5.011 -4.453,-6.724999 -4.595,-1.302 -7.823,-2.927 -7.823,-2.927 -1.381,-1.261 -4.776,-2.443 -5.646,-2.176 -1.468,0.453 -1.172,0.41 -2.198,1.426 -1.912,1.875 -1.578,3.027 -0.917,4.016 0.656,0.989 1.485,1.609999 3.885,3.066999 1.866,1.13 4.798,2.688 4.798,2.688"
     id="path1103" />
  <path
     style="fill:none;stroke:#231f20;stroke-width:0.565977;stroke-linecap:butt;stroke-linejoin:miter;stroke-miterlimit:4;stroke-dasharray:none;stroke-opacity:1"
     d="m 125.68057,104.47081 c 3.202,1.432 4.15,1.651 5.234,2.021 5.468,1.87 6.244,0.839 7.12,-1.39 1.23,-3.162 1.604,-5.011 -4.453,-6.724999 -4.595,-1.302 -7.823,-2.927 -7.823,-2.927 -1.381,-1.261 -4.776,-2.443 -5.646,-2.176 -1.468,0.453 -1.172,0.41 -2.198,1.426 -1.912,1.875 -1.578,3.027 -0.917,4.016 0.656,0.989 1.485,1.609999 3.885,3.066999 1.866,1.13 4.798,2.688 4.798,2.688 z"
     id="path1104" />
  <path
     style="fill:#0098c9;fill-opacity:1;fill-rule:nonzero;stroke:none"
     d="m 78.623563,106.53381 c 2.901,-1.974 3.588003,-2.667 4.474003,-3.391 4.463,-3.666999 3.995,-4.868999 2.556,-6.786999 -2.041,-2.713 -3.416,-4.005 -8.056003,0.251 -3.526,3.219 -6.61,5.108999 -6.61,5.108999 -1.796,0.511 -4.588,2.776 -4.818,3.656 -0.385,1.484 -0.265,1.214 0.052,2.626 0.59,2.604 1.746,2.926 2.938,2.89 1.182,-0.037 2.152,-0.417 4.652,-1.693 1.942,-0.99 4.812,-2.661 4.812,-2.661"
     id="path1105" />
  <path
     style="fill:none;stroke:#231f20;stroke-width:0.565977;stroke-linecap:butt;stroke-linejoin:miter;stroke-miterlimit:4;stroke-dasharray:none;stroke-opacity:1"
     d="m 78.623563,106.53381 c 2.901,-1.974 3.588003,-2.667 4.474003,-3.391 4.463,-3.666999 3.995,-4.868999 2.556,-6.786999 -2.041,-2.713 -3.416,-4.005 -8.056003,0.251 -3.526,3.219 -6.61,5.108999 -6.61,5.108999 -1.796,0.511 -4.588,2.776 -4.818,3.656 -0.385,1.484 -0.265,1.214 0.052,2.626 0.59,2.604 1.746,2.926 2.938,2.89 1.182,-0.037 2.152,-0.417 4.652,-1.693 1.942,-0.99 4.812,-2.661 4.812,-2.661 z"
     id="path1106" />
  <path
     style="fill:#ffffff;fill-opacity:1;fill-rule:nonzero;stroke:none"
     d="m 61.019563,103.44981 c -0.24,-0.052 -0.276,-1.203 -0.803,-1.223 -0.52,-0.022 -0.755,0.728 -2.583,1.504 l -0.026,0.005 c -1.354,0.527 -2.323,1.522 -2.474,2.771 -0.25,2.063 1.812,4.01 4.615,4.355 2.801,0.349 5.281,-1.047 5.531,-3.11 0.25,-1.969 -1.635,-3.844 -4.26,-4.302"
     id="path1107" />
  <path
     style="fill:none;stroke:#231f20;stroke-width:0.565977;stroke-linecap:butt;stroke-linejoin:miter;stroke-miterlimit:4;stroke-dasharray:none;stroke-opacity:1"
     d="m 61.019563,103.44981 c -0.24,-0.052 -0.276,-1.203 -0.803,-1.223 -0.52,-0.022 -0.755,0.728 -2.583,1.504 l -0.026,0.005 c -1.354,0.527 -2.323,1.522 -2.474,2.771 -0.25,2.063 1.812,4.01 4.615,4.355 2.801,0.349 5.281,-1.047 5.531,-3.11 0.25,-1.969 -1.635,-3.844 -4.26,-4.302 z"
     id="path1108" />
  <path
     style="fill:#231f20;fill-opacity:1;fill-rule:nonzero;stroke:none"
     d="m 69.764563,87.309811 c 0.369,0.526 0.167,2.464 0.629,4.005 0.314,1.041 -0.046,3.766 0.339,4.776 0.355,0.926 0.432,1.385 -0.563,1.973 -0.588,0.344 -1.942,0.636 -2.224,0.21 -0.65,-0.995 -0.817,-1.928 -0.786,-2.995 0.042,-1.215 0.433,-4.5 0.562,-5.1 0.328,-1.49 0,-2.151 0.052,-2.557 0.09,-0.755 0.402,-0.9 0.902,-0.948 0.953,-0.093 1.089,0.636 1.089,0.636"
     id="path1109" />
  <path
     style="fill:none;stroke:#231f20;stroke-width:0.565977;stroke-linecap:butt;stroke-linejoin:miter;stroke-miterlimit:4;stroke-dasharray:none;stroke-opacity:1"
     d="m 69.764563,87.309811 c 0.369,0.526 0.167,2.464 0.629,4.005 0.314,1.041 -0.046,3.766 0.339,4.776 0.355,0.926 0.432,1.385 -0.563,1.973 -0.588,0.344 -1.942,0.636 -2.224,0.21 -0.65,-0.995 -0.817,-1.928 -0.786,-2.995 0.042,-1.215 0.433,-4.5 0.562,-5.1 0.328,-1.49 0,-2.151 0.052,-2.557 0.09,-0.755 0.402,-0.9 0.902,-0.948 0.953,-0.093 1.089,0.636 1.089,0.636 z"
     id="path1110" />
  <path
     style="fill:#231f20;fill-opacity:1;fill-rule:nonzero;stroke:none"
     d="m 70.117563,96.361811 c 1.292,0.093 0.776,2.062 0.724,2.598 -0.057,0.547 -0.036,2.099999 0.131,3.313999 0.167,1.213 -0.141,2.796 0.177,5.103 0.167,1.209 -0.438,2.495 -2.209,2.662 -1.744,0.161 -2.495,-0.76 -2.473,-2.26 0.016,-1.495 0.666,-2.891 0.792,-4.396 0.124,-1.506 0.114,-3.052 0.046,-4.266999 -0.078,-1.38 0.402,-2.093 0.828,-2.301 1.068,-0.531 1.984,-0.453 1.984,-0.453"
     id="path1111" />
  <path
     style="fill:none;stroke:#231f20;stroke-width:0.565977;stroke-linecap:butt;stroke-linejoin:miter;stroke-miterlimit:4;stroke-dasharray:none;stroke-opacity:1"
     d="m 70.117563,96.361811 c 1.292,0.093 0.776,2.062 0.724,2.598 -0.057,0.547 -0.036,2.099999 0.131,3.313999 0.167,1.213 -0.141,2.796 0.177,5.103 0.167,1.209 -0.438,2.495 -2.209,2.662 -1.744,0.161 -2.495,-0.76 -2.473,-2.26 0.016,-1.495 0.666,-2.891 0.792,-4.396 0.124,-1.506 0.114,-3.052 0.046,-4.266999 -0.078,-1.38 0.402,-2.093 0.828,-2.301 1.068,-0.531 1.984,-0.453 1.984,-0.453 z"
     id="path1112" />
  <path
     style="fill:#ffffff;fill-opacity:1;fill-rule:nonzero;stroke:none"
     d="m 117.02957,87.997811 c -0.125,-0.215 0.672,-1.038 0.323,-1.428 -0.35,-0.391 -1.047,-0.036 -2.88,-0.812 l -0.022,-0.011 c -1.317,-0.609 -2.708,-0.609 -3.708,0.151 -1.656,1.245 -1.625,4.089 0.079,6.338 1.703,2.262 4.427,3.068 6.083,1.819 1.588,-1.199 1.625,-3.855 0.125,-6.057"
     id="path1113" />
  <path
     style="fill:none;stroke:#231f20;stroke-width:0.565977;stroke-linecap:butt;stroke-linejoin:miter;stroke-miterlimit:4;stroke-dasharray:none;stroke-opacity:1"
     d="m 117.02957,87.997811 c -0.125,-0.215 0.672,-1.038 0.323,-1.428 -0.35,-0.391 -1.047,-0.036 -2.88,-0.812 l -0.022,-0.011 c -1.317,-0.609 -2.708,-0.609 -3.708,0.151 -1.656,1.245 -1.625,4.089 0.079,6.338 1.703,2.262 4.427,3.068 6.083,1.819 1.588,-1.199 1.625,-3.855 0.125,-6.057 z"
     id="path1114" />
  <path
     style="fill:#231f20;fill-opacity:1;fill-rule:nonzero;stroke:none"
     d="m 136.63857,86.954811 c -0.224,0.605 -1.937,1.537 -2.942,2.786 -0.683,0.85 -3.131,2.095 -3.746,2.99 -0.562,0.819 -0.901,1.141 -1.942,0.652 -0.62,-0.287 -1.631,-1.24 -1.432,-1.709 0.448,-1.104 1.12,-1.771 2.021,-2.348 1.02,-0.656 3.952,-2.194 4.52,-2.428 1.412,-0.572 1.771,-1.219 2.131,-1.406 0.677,-0.354 0.973,-0.182 1.296,0.203 0.62,0.735 0.094,1.26 0.094,1.26"
     id="path1115" />
  <path
     style="fill:none;stroke:#231f20;stroke-width:0.565977;stroke-linecap:butt;stroke-linejoin:miter;stroke-miterlimit:4;stroke-dasharray:none;stroke-opacity:1"
     d="m 136.63857,86.954811 c -0.224,0.605 -1.937,1.537 -2.942,2.786 -0.683,0.85 -3.131,2.095 -3.746,2.99 -0.562,0.819 -0.901,1.141 -1.942,0.652 -0.62,-0.287 -1.631,-1.24 -1.432,-1.709 0.448,-1.104 1.12,-1.771 2.021,-2.348 1.02,-0.656 3.952,-2.194 4.52,-2.428 1.412,-0.572 1.771,-1.219 2.131,-1.406 0.677,-0.354 0.973,-0.182 1.296,0.203 0.62,0.735 0.094,1.26 0.094,1.26 z"
     id="path1116" />
  <path
     style="fill:#231f20;fill-opacity:1;fill-rule:nonzero;stroke:none"
     d="m 129.37757,92.376811 c 0.657,1.115 -1.26,1.807 -1.728,2.073 -0.48,0.261 -1.756,1.151 -2.652,1.979 -0.911,0.823 -2.391,1.469 -4.109,3.036 -0.906,0.822999 -2.302,1.051999 -3.443,-0.312 -1.125,-1.343 -0.792,-2.483 0.453,-3.313 1.246,-0.837 2.766,-1.088 4.074,-1.842 1.317,-0.746 2.582,-1.636 3.546,-2.376 1.088,-0.848 1.943,-0.859 2.364,-0.624 1.043,0.583 1.495,1.379 1.495,1.379"
     id="path1117" />
  <path
     style="fill:none;stroke:#231f20;stroke-width:0.565977;stroke-linecap:butt;stroke-linejoin:miter;stroke-miterlimit:4;stroke-dasharray:none;stroke-opacity:1"
     d="m 129.37757,92.376811 c 0.657,1.115 -1.26,1.807 -1.728,2.073 -0.48,0.261 -1.756,1.151 -2.652,1.979 -0.911,0.823 -2.391,1.469 -4.109,3.036 -0.906,0.822999 -2.302,1.051999 -3.443,-0.312 -1.125,-1.343 -0.792,-2.483 0.453,-3.313 1.246,-0.837 2.766,-1.088 4.074,-1.842 1.317,-0.746 2.582,-1.636 3.546,-2.376 1.088,-0.848 1.943,-0.859 2.364,-0.624 1.043,0.583 1.495,1.379 1.495,1.379 z"
     id="path1118" />
  <path
     style="fill:#ffffff;fill-opacity:1;fill-rule:nonzero;stroke:none"
     d="m 70.488563,85.257811 c 0.025,-1.027 -0.781,-1.886 -1.808,-1.918 -1.027,-0.03 -1.885,0.776 -1.912,1.808 -0.031,1.026 0.776,1.886 1.803,1.912 1.026,0.031 1.885,-0.776 1.917,-1.802"
     id="path1119" />
  <path
     style="fill:none;stroke:#231f20;stroke-width:1.33171;stroke-linecap:butt;stroke-linejoin:miter;stroke-miterlimit:4;stroke-dasharray:none;stroke-opacity:1"
     d="m 70.488563,85.257811 c 0.025,-1.027 -0.781,-1.886 -1.808,-1.918 -1.027,-0.03 -1.885,0.776 -1.912,1.808 -0.031,1.026 0.776,1.886 1.803,1.912 1.026,0.031 1.885,-0.776 1.917,-1.802 z"
     id="path1120" />
  <path
     style="fill:#ffffff;fill-opacity:1;fill-rule:nonzero;stroke:none"
     d="m 138.99757,85.257811 c 0.032,-1.027 -0.781,-1.886 -1.801,-1.918 -1.032,-0.03 -1.886,0.776 -1.918,1.808 -0.03,1.026 0.776,1.886 1.808,1.912 1.026,0.031 1.886,-0.776 1.911,-1.802"
     id="path1121" />
  <path
     style="fill:none;stroke:#231f20;stroke-width:1.33171;stroke-linecap:butt;stroke-linejoin:miter;stroke-miterlimit:4;stroke-dasharray:none;stroke-opacity:1"
     d="m 138.99757,85.257811 c 0.032,-1.027 -0.781,-1.886 -1.801,-1.918 -1.032,-0.03 -1.886,0.776 -1.918,1.808 -0.03,1.026 0.776,1.886 1.808,1.912 1.026,0.031 1.886,-0.776 1.911,-1.802 z"
     id="path1122" />
  <path
     style="fill:none;stroke:#231f20;stroke-width:0.399514;stroke-linecap:butt;stroke-linejoin:miter;stroke-miterlimit:4;stroke-dasharray:none;stroke-opacity:1"
     d="m 94.779566,109.66981 c -17.678003,19.728 -48.730003,5.057 -53.802003,-0.136"
     id="path1123" />
  <path
     style="fill:#231f20;fill-opacity:1;fill-rule:nonzero;stroke:none"
     d="m 40.133563,108.67381 c 0.547,0.261 1.292,0.51 1.87,0.557 l -0.916,0.417 -0.443,0.912 c -0.032,-0.579 -0.267,-1.333 -0.511,-1.886"
     id="path1124" />
  <path
     style="fill:#ffffff;fill-opacity:1;fill-rule:nonzero;stroke:none"
     d="m 10.977563,63.683811 c -1.9800005,-1.088 -2.5160005,-1.036 -3.0320005,-0.224 -0.344,0.543 -0.848,0.912 -1.072,1.23 -0.75,1.057 -1.578,3.156 -2.376,9.682 -0.177,1.484 -0.448,3.563 -0.624,4.402 -0.276,1.327 2.114,0.896 2.228,0.369 0.371,-1.672 0.767,-2.787 0.98,-3.375 0.151,-0.401 0.318,-1.141 1.094,-2.62 1.172,-2.24 2.2080005,-3.401 2.9690005,-5.374 0.353,-0.918 1.197,-1.38 1.083,-2.464 -0.104,-1.079 -1.25,-1.626 -1.25,-1.626"
     id="path1125" />
  <path
     style="fill:none;stroke:#231f20;stroke-width:0.565977;stroke-linecap:butt;stroke-linejoin:miter;stroke-miterlimit:4;stroke-dasharray:none;stroke-opacity:1"
     d="m 10.977563,63.683811 c -1.9800005,-1.088 -2.5160005,-1.036 -3.0320005,-0.224 -0.344,0.543 -0.848,0.912 -1.072,1.23 -0.75,1.057 -1.578,3.156 -2.376,9.682 -0.177,1.484 -0.448,3.563 -0.624,4.402 -0.276,1.327 2.114,0.896 2.228,0.369 0.371,-1.672 0.767,-2.787 0.98,-3.375 0.151,-0.401 0.318,-1.141 1.094,-2.62 1.172,-2.24 2.2080005,-3.401 2.9690005,-5.374 0.353,-0.918 1.197,-1.38 1.083,-2.464 -0.104,-1.079 -1.25,-1.626 -1.25,-1.626 z"
     id="path1126" />
  <path
     style="fill:#ffffff;fill-opacity:1;fill-rule:nonzero;stroke:#231f20;stroke-width:0.565977;stroke-linecap:round;stroke-linejoin:round;stroke-miterlimit:4;stroke-dasharray:none;stroke-opacity:1"
     d="m 11.571563,66.115811 c 1.36,-0.4 1.672,-2.53 1.864,-2.812 2.802,-4.161 2.89,-4.53 4.808,-7.838 2.76,-4.787 3.916,-8.49 1.604,-10.911 -1.579,-1.641 -3.194,-1.907 -4.412,-1.417 -1.354,0.557 -3.411,2.974 -2.558,5.734 l -0.426,1.662 c -0.432,1.078 -0.64,1.614 -0.896,2.13 -0.448,0.896 -0.864,1.886 -1.6350005,3.687 -1.371,3.193 -1.765,7.011 -1.765,7.011 -0.115,0.292 -0.1,0.573 -0.016,0.828"
     id="path1127" />
  <path
     style="fill:#231f20;fill-opacity:1;fill-rule:nonzero;stroke:none"
     d="m 2.6645625,80.491811 c -0.703,-1.152 -0.093,-1.937 0.917,-2.152 0.302,-0.066 0.495,-0.437 0.792,-0.478 0.703,-0.083 2.042,1.032 1.4,2.385 -0.046,0.089 -0.161,0.906 -0.342,1.495 -0.35,1.166 -1.615,3.313 -4.235,3.969 -1.23999999,0.301 -1.19299999,-0.484 -0.72899999,-0.76 1.46799999,-0.881 1.42599999,-1.24 1.72899999,-1.615 1.031,-1.25 0.468,-2.844 0.468,-2.844"
     id="path1128" />
  <path
     style="fill:none;stroke:#231f20;stroke-width:0.332927;stroke-linecap:butt;stroke-linejoin:miter;stroke-miterlimit:4;stroke-dasharray:none;stroke-opacity:1"
     d="m 2.6645625,80.491811 c -0.703,-1.152 -0.093,-1.937 0.917,-2.152 0.302,-0.066 0.495,-0.437 0.792,-0.478 0.703,-0.083 2.042,1.032 1.4,2.385 -0.046,0.089 -0.161,0.906 -0.342,1.495 -0.35,1.166 -1.615,3.313 -4.235,3.969 -1.23999999,0.301 -1.19299999,-0.484 -0.72899999,-0.76 1.46799999,-0.881 1.42599999,-1.24 1.72899999,-1.615 1.031,-1.25 0.468,-2.844 0.468,-2.844 z"
     id="path1129" />
  <path
     style="fill:#0098c9;fill-opacity:1;fill-rule:nonzero;stroke:none"
     d="m 19.576563,44.043811 c -1.797,-1.38 -3.437,-1.396 -4.573,-0.718 -1.244,0.754 -2.916,3.462 -1.646,6.057 l 7.364,2.615 c 1.043,-3.615 0.959,-6.35 -1.145,-7.954"
     id="path1130" />
  <path
     style="fill:none;stroke:#231f20;stroke-width:0.565977;stroke-linecap:butt;stroke-linejoin:miter;stroke-miterlimit:4;stroke-dasharray:none;stroke-opacity:1"
     d="m 19.576563,44.043811 c -1.797,-1.38 -3.437,-1.396 -4.573,-0.718 -1.244,0.754 -2.916,3.462 -1.646,6.057 l 7.364,2.615 c 1.043,-3.615 0.959,-6.35 -1.145,-7.954 z"
     id="path1131" />
  <path
     style="fill:#231f20;fill-opacity:1;fill-rule:nonzero;stroke:none"
     d="m 183.98257,62.611811 c -1.844,-1.318 -2.376,-1.328 -2.99,-0.589 -0.406,0.495 -0.952,0.808 -1.208,1.093 -0.875,0.964 -1.943,2.939 -3.526,9.33 -0.354,1.448 -0.87,3.478 -1.152,4.29 -0.432,1.287 1.995,1.147 2.172,0.641 0.568,-1.619 1.095,-2.682 1.375,-3.239 0.199,-0.38 0.453,-1.094 1.401,-2.464 1.434,-2.083 2.599,-3.114 3.595,-4.984 0.463,-0.864 1.359,-1.224 1.375,-2.307 0.02,-1.089 -1.042,-1.771 -1.042,-1.771"
     id="path1132" />
  <path
     style="fill:none;stroke:#231f20;stroke-width:0.565977;stroke-linecap:butt;stroke-linejoin:miter;stroke-miterlimit:4;stroke-dasharray:none;stroke-opacity:1"
     d="m 183.98257,62.611811 c -1.844,-1.318 -2.376,-1.328 -2.99,-0.589 -0.406,0.495 -0.952,0.808 -1.208,1.093 -0.875,0.964 -1.943,2.939 -3.526,9.33 -0.354,1.448 -0.87,3.478 -1.152,4.29 -0.432,1.287 1.995,1.147 2.172,0.641 0.568,-1.619 1.095,-2.682 1.375,-3.239 0.199,-0.38 0.453,-1.094 1.401,-2.464 1.434,-2.083 2.599,-3.114 3.595,-4.984 0.463,-0.864 1.359,-1.224 1.375,-2.307 0.02,-1.089 -1.042,-1.771 -1.042,-1.771 z"
     id="path1133" />
  <path
     style="fill:#231f20;fill-opacity:1;fill-rule:nonzero;stroke:none"
     d="m 182.11757,64.241811 c 3.041,2.609 4.027,-1.348 4.344,-1.714 3.281,-3.786 3.421,-4.14 5.719,-7.197 3.312,-4.417 4.906,-7.959 2.901,-10.641 -1.36,-1.818 -2.937,-2.276 -4.208,-1.938 -1.407,0.391 -3.745,2.542 -3.224,5.391 l -0.625,1.588 c -0.558,1.021 -0.828,1.527 -1.142,2.011 -0.552,0.838 -1.093,1.77 -2.077,3.458 -1.74,3.016 -2.595,6.755 -2.595,6.755 -0.598,1.089 0.907,2.287 0.907,2.287"
     id="path1134" />
  <path
     style="fill:none;stroke:#231f20;stroke-width:0.565977;stroke-linecap:butt;stroke-linejoin:miter;stroke-miterlimit:4;stroke-dasharray:none;stroke-opacity:1"
     d="m 182.11757,64.241811 c 3.041,2.609 4.027,-1.348 4.344,-1.714 3.281,-3.786 3.421,-4.14 5.719,-7.197 3.312,-4.417 4.906,-7.959 2.901,-10.641 -1.36,-1.818 -2.937,-2.276 -4.208,-1.938 -1.407,0.391 -3.745,2.542 -3.224,5.391 l -0.625,1.588 c -0.558,1.021 -0.828,1.527 -1.142,2.011 -0.552,0.838 -1.093,1.77 -2.077,3.458 -1.74,3.016 -2.595,6.755 -2.595,6.755 -0.598,1.089 0.907,2.287 0.907,2.287 z"
     id="path1135" />
  <path
     style="fill:#231f20;fill-opacity:1;fill-rule:nonzero;stroke:none"
     d="m 173.70157,78.298811 c -0.557,-1.235 0.14,-1.937 1.172,-2.031 0.307,-0.032 0.547,-0.37 0.843,-0.37 0.709,-0.004 1.901,1.261 1.1,2.532 -0.052,0.082 -0.267,0.874 -0.516,1.447 -0.495,1.11 -2.011,3.094 -4.688,3.417 -1.266,0.161 -1.124,-0.615 -0.63,-0.839 1.567,-0.687 1.572,-1.057 1.911,-1.391 1.172,-1.124 0.808,-2.765 0.808,-2.765"
     id="path1136" />
  <path
     style="fill:none;stroke:#231f20;stroke-width:0.332927;stroke-linecap:butt;stroke-linejoin:miter;stroke-miterlimit:4;stroke-dasharray:none;stroke-opacity:1"
     d="m 173.70157,78.298811 c -0.557,-1.235 0.14,-1.937 1.172,-2.031 0.307,-0.032 0.547,-0.37 0.843,-0.37 0.709,-0.004 1.901,1.261 1.1,2.532 -0.052,0.082 -0.267,0.874 -0.516,1.447 -0.495,1.11 -2.011,3.094 -4.688,3.417 -1.266,0.161 -1.124,-0.615 -0.63,-0.839 1.567,-0.687 1.572,-1.057 1.911,-1.391 1.172,-1.124 0.808,-2.765 0.808,-2.765 z"
     id="path1137" />
  <path
     style="fill:#0098c9;fill-opacity:1;fill-rule:nonzero;stroke:none"
     d="m 196.51357,55.063811 c -0.563,-3.077 -0.349,-3.806 -0.14,-4.702 1.28,-5.635 -1.505,-6.162 -4.204,-5.14 -3.172,1.197 -4.339,1.561 -2.629,7.624 0.478,1.688 1.457,8.385 1.457,8.385 0.032,2.448 1.36,4.819 2.693,5.407 1.407,0.62 0.891,0.27 2.296,0.609 1.339,0.323 3.434,-0.312 3.918,-1.448 0.473,-1.093 -0.5,-2.437 -1.656,-4.572 -0.912,-1.683 -1.735,-6.163 -1.735,-6.163"
     id="path1138" />
  <path
     style="fill:none;stroke:#231f20;stroke-width:0.565977;stroke-linecap:butt;stroke-linejoin:miter;stroke-miterlimit:4;stroke-dasharray:none;stroke-opacity:1"
     d="m 196.51357,55.063811 c -0.563,-3.077 -0.349,-3.806 -0.14,-4.702 1.28,-5.635 -1.505,-6.162 -4.204,-5.14 -3.172,1.197 -4.339,1.561 -2.629,7.624 0.478,1.688 1.457,8.385 1.457,8.385 0.032,2.448 1.36,4.819 2.693,5.407 1.407,0.62 0.891,0.27 2.296,0.609 1.339,0.323 3.434,-0.312 3.918,-1.448 0.473,-1.093 -0.5,-2.437 -1.656,-4.572 -0.912,-1.683 -1.735,-6.163 -1.735,-6.163 z"
     id="path1139" />
  <path
     style="fill:#ffffff;fill-opacity:1;fill-rule:nonzero;stroke:none"
     d="m 201.96157,74.585811 c 0.224,0.109 0.005,1.234 0.511,1.369 0.5,0.141 0.896,-0.536 2.853,-0.885 l 0.027,-0.006 c 1.437,-0.202 2.598,-0.957 3.03,-2.14 0.71,-1.948 -0.864,-4.312 -3.52,-5.276 -2.656,-0.969 -5.38,-0.161 -6.094,1.792 -0.682,1.859 0.745,4.11 3.193,5.146"
     id="path1140" />
  <path
     style="fill:none;stroke:#231f20;stroke-width:0.565977;stroke-linecap:butt;stroke-linejoin:miter;stroke-miterlimit:4;stroke-dasharray:none;stroke-opacity:1"
     d="m 201.96157,74.585811 c 0.224,0.109 0.005,1.234 0.511,1.369 0.5,0.141 0.896,-0.536 2.853,-0.885 l 0.027,-0.006 c 1.437,-0.202 2.598,-0.957 3.03,-2.14 0.71,-1.948 -0.864,-4.312 -3.52,-5.276 -2.656,-0.969 -5.38,-0.161 -6.094,1.792 -0.682,1.859 0.745,4.11 3.193,5.146 z"
     id="path1141" />
  <path
     style="fill:#231f20;fill-opacity:1;fill-rule:nonzero;stroke:none"
     d="m 192.03457,84.188811 c -0.261,-0.588 0.318,-2.447 0.162,-4.051 -0.104,-1.083 0.77,-3.688 0.588,-4.755 -0.167,-0.975 -0.151,-1.443 0.937,-1.823 0.647,-0.224 2.032,-0.25 2.224,0.228 0.448,1.1 0.432,2.052 0.188,3.089 -0.271,1.187 -1.297,4.334 -1.536,4.897 -0.615,1.396 -0.417,2.109 -0.548,2.494 -0.233,0.724 -0.572,0.813 -1.072,0.76 -0.953,-0.098 -0.943,-0.839 -0.943,-0.839"
     id="path1142" />
  <path
     style="fill:none;stroke:#231f20;stroke-width:0.565977;stroke-linecap:butt;stroke-linejoin:miter;stroke-miterlimit:4;stroke-dasharray:none;stroke-opacity:1"
     d="m 192.03457,84.188811 c -0.261,-0.588 0.318,-2.447 0.162,-4.051 -0.104,-1.083 0.77,-3.688 0.588,-4.755 -0.167,-0.975 -0.151,-1.443 0.937,-1.823 0.647,-0.224 2.032,-0.25 2.224,0.228 0.448,1.1 0.432,2.052 0.188,3.089 -0.271,1.187 -1.297,4.334 -1.536,4.897 -0.615,1.396 -0.417,2.109 -0.548,2.494 -0.233,0.724 -0.572,0.813 -1.072,0.76 -0.953,-0.098 -0.943,-0.839 -0.943,-0.839 z"
     id="path1143" />
  <path
     style="fill:#231f20;fill-opacity:1;fill-rule:nonzero;stroke:none"
     d="m 193.44557,75.235811 c -1.249,-0.338 -0.364,-2.172 -0.208,-2.692 0.161,-0.516 0.448,-2.046 0.516,-3.265 0.068,-1.224 0.681,-2.719 0.817,-5.043 0.074,-1.224 0.912,-2.364 2.683,-2.181 1.744,0.176 2.296,1.229 1.989,2.692 -0.302,1.464 -1.213,2.708 -1.63,4.161 -0.422,1.454 -0.703,2.975 -0.875,4.178 -0.193,1.364 -0.797,1.969 -1.26,2.093 -1.152,0.313 -2.032,0.057 -2.032,0.057"
     id="path1144" />
  <path
     style="fill:none;stroke:#231f20;stroke-width:0.565977;stroke-linecap:butt;stroke-linejoin:miter;stroke-miterlimit:4;stroke-dasharray:none;stroke-opacity:1"
     d="m 193.44557,75.235811 c -1.249,-0.338 -0.364,-2.172 -0.208,-2.692 0.161,-0.516 0.448,-2.046 0.516,-3.265 0.068,-1.224 0.681,-2.719 0.817,-5.043 0.074,-1.224 0.912,-2.364 2.683,-2.181 1.744,0.176 2.296,1.229 1.989,2.692 -0.302,1.464 -1.213,2.708 -1.63,4.161 -0.422,1.454 -0.703,2.975 -0.875,4.178 -0.193,1.364 -0.797,1.969 -1.26,2.093 -1.152,0.313 -2.032,0.057 -2.032,0.057 z"
     id="path1145" />
  <path
     style="fill:#ffffff;fill-opacity:1;fill-rule:nonzero;stroke:none"
     d="m 193.46657,86.330811 c 0.484,-0.907 0.146,-2.032 -0.756,-2.527 -0.905,-0.484 -2.036,-0.14 -2.52,0.76 -0.489,0.907 -0.15,2.032 0.755,2.522 0.907,0.484 2.037,0.145 2.521,-0.755"
     id="path1146" />
  <path
     style="fill:none;stroke:#231f20;stroke-width:1.33171;stroke-linecap:butt;stroke-linejoin:miter;stroke-miterlimit:4;stroke-dasharray:none;stroke-opacity:1"
     d="m 193.46657,86.330811 c 0.484,-0.907 0.146,-2.032 -0.756,-2.527 -0.905,-0.484 -2.036,-0.14 -2.52,0.76 -0.489,0.907 -0.15,2.032 0.755,2.522 0.907,0.484 2.037,0.145 2.521,-0.755 z"
     id="path1147" />
  <path
     style="fill:#ffffff;fill-opacity:1;fill-rule:nonzero;stroke:none"
     d="m 178.95057,58.907811 c -1.249,-1.885 -1.754,-2.082 -2.582,-1.604 -0.558,0.318 -1.178,0.418 -1.522,0.599 -1.156,0.589 -2.86,2.063 -6.588,7.485 -0.838,1.23 -2.042,2.948 -2.584,3.615 -0.864,1.047 1.464,1.771 1.803,1.359 1.104,-1.312 1.968,-2.12 2.432,-2.542 0.317,-0.286 0.807,-0.869 2.177,-1.817 2.078,-1.443 3.531,-2 5.12,-3.396 0.739,-0.652 1.703,-0.667 2.099,-1.677 0.405,-1.006 -0.355,-2.022 -0.355,-2.022"
     id="path1148" />
  <path
     style="fill:none;stroke:#231f20;stroke-width:0.565977;stroke-linecap:butt;stroke-linejoin:miter;stroke-miterlimit:4;stroke-dasharray:none;stroke-opacity:1"
     d="m 178.95057,58.907811 c -1.249,-1.885 -1.754,-2.082 -2.582,-1.604 -0.558,0.318 -1.178,0.418 -1.522,0.599 -1.156,0.589 -2.86,2.063 -6.588,7.485 -0.838,1.23 -2.042,2.948 -2.584,3.615 -0.864,1.047 1.464,1.771 1.803,1.359 1.104,-1.312 1.968,-2.12 2.432,-2.542 0.317,-0.286 0.807,-0.869 2.177,-1.817 2.078,-1.443 3.531,-2 5.12,-3.396 0.739,-0.652 1.703,-0.667 2.099,-1.677 0.405,-1.006 -0.355,-2.022 -0.355,-2.022 z"
     id="path1149" />
  <path
     style="fill:#ffffff;fill-opacity:1;fill-rule:nonzero;stroke:#231f20;stroke-width:0.565977;stroke-linecap:round;stroke-linejoin:round;stroke-miterlimit:4;stroke-dasharray:none;stroke-opacity:1"
     d="m 178.34657,61.335811 c 1.402,0.271 2.656,-1.469 2.959,-1.63 4.405,-2.391 4.661,-2.678 7.885,-4.724 4.662,-2.975 7.402,-5.719 6.468,-8.938 -0.634,-2.182 -1.948,-3.166 -3.254,-3.292 -1.459,-0.134 -4.402,1.058 -4.916,3.902 l -1.147,1.27 c -0.885,0.76 -1.317,1.14 -1.781,1.479 -0.812,0.589 -1.64,1.271 -3.156,2.511 -2.688,2.198 -4.807,5.401 -4.807,5.401 -0.24,0.203 -0.355,0.459 -0.396,0.724"
     id="path1150" />
  <path
     style="fill:#231f20;fill-opacity:1;fill-rule:nonzero;stroke:none"
     d="m 163.80557,69.965811 c -0.089,-1.348 0.812,-1.766 1.812,-1.484 0.303,0.078 0.647,-0.162 0.923,-0.052 0.661,0.244 1.333,1.849 0.134,2.754 -0.082,0.063 -0.562,0.73 -0.994,1.167 -0.85,0.876 -2.964,2.193 -5.588,1.563 -1.24,-0.302 -0.834,-0.984 -0.298,-1.011 1.708,-0.104 1.844,-0.443 2.282,-0.635 1.494,-0.63 1.729,-2.302 1.729,-2.302"
     id="path1151" />
  <path
     style="fill:none;stroke:#231f20;stroke-width:0.332927;stroke-linecap:butt;stroke-linejoin:miter;stroke-miterlimit:4;stroke-dasharray:none;stroke-opacity:1"
     d="m 163.80557,69.965811 c -0.089,-1.348 0.812,-1.766 1.812,-1.484 0.303,0.078 0.647,-0.162 0.923,-0.052 0.661,0.244 1.333,1.849 0.134,2.754 -0.082,0.063 -0.562,0.73 -0.994,1.167 -0.85,0.876 -2.964,2.193 -5.588,1.563 -1.24,-0.302 -0.834,-0.984 -0.298,-1.011 1.708,-0.104 1.844,-0.443 2.282,-0.635 1.494,-0.63 1.729,-2.302 1.729,-2.302 z"
     id="path1152" />
  <path
     style="fill:#0098c9;fill-opacity:1;fill-rule:nonzero;stroke:none"
     d="m 195.65857,45.465811 c -0.962,-2.058 -2.405,-2.828 -3.724,-2.75 -1.457,0.088 -4.186,1.719 -4.26,4.61 l 5.318,5.724 c 2.594,-2.724 3.786,-5.183 2.666,-7.584"
     id="path1153" />
  <path
     style="fill:none;stroke:#231f20;stroke-width:0.565977;stroke-linecap:butt;stroke-linejoin:miter;stroke-miterlimit:4;stroke-dasharray:none;stroke-opacity:1"
     d="m 195.65857,45.465811 c -0.962,-2.058 -2.405,-2.828 -3.724,-2.75 -1.457,0.088 -4.186,1.719 -4.26,4.61 l 5.318,5.724 c 2.594,-2.724 3.786,-5.183 2.666,-7.584 z"
     id="path1154" />
  <path
     style="fill:#ffffff;fill-opacity:1;fill-rule:nonzero;stroke:none"
     d="m 65.592563,99.735811 c -0.021,-2.265 -0.333,-2.697 -1.292,-2.749 -0.641,-0.041 -1.213,-0.292 -1.599,-0.334 -1.292,-0.136 -3.521,0.173 -9.604,2.683 -1.376,0.577 -3.318,1.363999 -4.141,1.618999 -1.292,0.412 0.265,2.281 0.776,2.125 1.641,-0.494 2.808,-0.708 3.423,-0.806 0.421,-0.063 1.15,-0.287 2.817,-0.334 2.525,-0.078 4.047,0.249 6.14,-0.057 0.975,-0.142 1.792,0.369 2.677,-0.261 0.891,-0.619 0.803,-1.885999 0.803,-1.885999"
     id="path1155" />
  <path
     style="fill:none;stroke:#231f20;stroke-width:0.565977;stroke-linecap:butt;stroke-linejoin:miter;stroke-miterlimit:4;stroke-dasharray:none;stroke-opacity:1"
     d="m 65.592563,99.735811 c -0.021,-2.265 -0.333,-2.697 -1.292,-2.749 -0.641,-0.041 -1.213,-0.292 -1.599,-0.334 -1.292,-0.136 -3.521,0.173 -9.604,2.683 -1.376,0.577 -3.318,1.363999 -4.141,1.618999 -1.292,0.412 0.265,2.281 0.776,2.125 1.641,-0.494 2.808,-0.708 3.423,-0.806 0.421,-0.063 1.15,-0.287 2.817,-0.334 2.525,-0.078 4.047,0.249 6.14,-0.057 0.975,-0.142 1.792,0.369 2.677,-0.261 0.891,-0.619 0.803,-1.885999 0.803,-1.885999 z"
     id="path1156" />
  <path
     style="fill:#ffffff;fill-opacity:1;fill-rule:nonzero;stroke:#231f20;stroke-width:0.565977;stroke-linecap:round;stroke-linejoin:round;stroke-miterlimit:4;stroke-dasharray:none;stroke-opacity:1"
     d="m 63.764563,101.44581 c 1.025,0.989 3.031,0.213 3.369,0.243 4.995,0.397 5.364,0.298 9.187,0.334 5.527003,0.057 9.319003,-0.754 10.297003,-3.958999 0.651,-2.176 0.09,-3.713 -0.937,-4.536 -1.145,-0.906 -4.265003,-1.511 -6.249003,0.588 l -1.658,0.444 c -1.15,0.151 -1.718,0.239 -2.296,0.266 -1,0.051 -2.068,0.172 -4.016,0.385 -3.448,0.38 -6.973,1.905 -6.973,1.905 -0.308,0.043 -0.548,0.194 -0.724,0.396"
     id="path1157" />
  <path
     style="fill:#0098c9;fill-opacity:1;fill-rule:nonzero;stroke:none"
     d="m 85.185566,93.142811 c -1.281,-0.697 -4.464003,-0.787 -6.062003,1.62 l 1.437,7.682999 c 3.647003,-0.918 5.969003,-2.366 6.303003,-4.990999 0.286,-2.25 -0.527,-3.676 -1.678,-4.312"
     id="path1158" />
  <path
     style="fill:none;stroke:#231f20;stroke-width:0.565977;stroke-linecap:butt;stroke-linejoin:miter;stroke-miterlimit:4;stroke-dasharray:none;stroke-opacity:1"
     d="m 85.185566,93.142811 c -1.281,-0.697 -4.464003,-0.787 -6.062003,1.62 l 1.437,7.682999 c 3.647003,-0.918 5.969003,-2.366 6.303003,-4.990999 0.286,-2.25 -0.527,-3.676 -1.678,-4.312 z"
     id="path1159" />
  <path
     style="fill:#231f20;fill-opacity:1;fill-rule:nonzero;stroke:none"
     d="m 46.868563,100.74681 c 0.661,-1.182999 1.645,-1.035999 2.328,-0.26 0.208,0.235 0.625,0.218 0.801,0.459 0.418,0.566 0.11,2.281 -1.385,2.385 -0.104,0.005 -0.869,0.307 -1.473,0.438 -1.188,0.27 -3.678,0.218 -5.538,-1.741 -0.874,-0.926 -0.161,-1.276 0.303,-1.011 1.489,0.85 1.787,0.636 2.255,0.719 1.6,0.281 2.709,-0.989 2.709,-0.989"
     id="path1160" />
  <path
     style="fill:none;stroke:#231f20;stroke-width:0.332927;stroke-linecap:butt;stroke-linejoin:miter;stroke-miterlimit:4;stroke-dasharray:none;stroke-opacity:1"
     d="m 46.868563,100.74681 c 0.661,-1.182999 1.645,-1.035999 2.328,-0.26 0.208,0.235 0.625,0.218 0.801,0.459 0.418,0.566 0.11,2.281 -1.385,2.385 -0.104,0.005 -0.869,0.307 -1.473,0.438 -1.188,0.27 -3.678,0.218 -5.538,-1.741 -0.874,-0.926 -0.161,-1.276 0.303,-1.011 1.489,0.85 1.787,0.636 2.255,0.719 1.6,0.281 2.709,-0.989 2.709,-0.989 z"
     id="path1161" />
  <path
     style="fill:#ffffff;fill-opacity:1;fill-rule:nonzero;stroke:none"
     d="m 127.73757,87.669811 c 2.14,-0.73 2.459,-1.163 2.208,-2.089 -0.167,-0.621 -0.109,-1.245 -0.192,-1.621 -0.271,-1.271 -1.265,-3.29 -5.563,-8.281 -0.974,-1.124 -2.333,-2.719 -2.833,-3.421 -0.797,-1.099 -2.084,0.964 -1.771,1.401 0.984,1.401 1.547,2.442 1.834,3 0.197,0.38 0.634,1 1.208,2.568 0.864,2.374 1.025,3.926 1.973,5.812 0.443,0.88 0.22,1.817 1.095,2.459 0.864,0.645 2.041,0.172 2.041,0.172"
     id="path1162" />
  <path
     style="fill:none;stroke:#231f20;stroke-width:0.565977;stroke-linecap:butt;stroke-linejoin:miter;stroke-miterlimit:4;stroke-dasharray:none;stroke-opacity:1"
     d="m 127.73757,87.669811 c 2.14,-0.73 2.459,-1.163 2.208,-2.089 -0.167,-0.621 -0.109,-1.245 -0.192,-1.621 -0.271,-1.271 -1.265,-3.29 -5.563,-8.281 -0.974,-1.124 -2.333,-2.719 -2.833,-3.421 -0.797,-1.099 -2.084,0.964 -1.771,1.401 0.984,1.401 1.547,2.442 1.834,3 0.197,0.38 0.634,1 1.208,2.568 0.864,2.374 1.025,3.926 1.973,5.812 0.443,0.88 0.22,1.817 1.095,2.459 0.864,0.645 2.041,0.172 2.041,0.172 z"
     id="path1163" />
  <path
     style="fill:#ffffff;fill-opacity:1;fill-rule:nonzero;stroke:#231f20;stroke-width:0.565977;stroke-linecap:round;stroke-linejoin:round;stroke-miterlimit:4;stroke-dasharray:none;stroke-opacity:1"
     d="m 125.54057,86.470811 c -0.62,1.281 0.749,2.943 0.828,3.27 1.192,4.876 1.4,5.188 2.562,8.829 1.682,5.265999 3.64,8.613999 6.99,8.536999 2.27,-0.063 3.557,-1.084 4.014,-2.314 0.5,-1.374 0.095,-4.524 -2.525,-5.748999 l -0.932,-1.432 c -0.511,-1.048 -0.767,-1.557 -0.975,-2.1 -0.364,-0.931 -0.812,-1.905 -1.625,-3.686 -1.443,-3.162 -4.004,-6.032 -4.004,-6.032 -0.136,-0.282 -0.349,-0.454 -0.6,-0.563"
     id="path1164" />
  <path
     style="fill:#231f20;fill-opacity:1;fill-rule:nonzero;stroke:none"
     d="m 120.95057,69.975811 c 1.328,0.266 1.495,1.246 0.97,2.136 -0.156,0.271 -0.022,0.667 -0.188,0.906 -0.412,0.573 -2.14,0.808 -2.698,-0.578 -0.042,-0.1 -0.562,-0.734 -0.876,-1.266 -0.618,-1.047 -1.348,-3.432 -0.057,-5.802 0.609,-1.125 1.163,-0.552 1.053,-0.026 -0.349,1.677 -0.053,1.89 0.015,2.37 0.229,1.599 1.781,2.26 1.781,2.26"
     id="path1165" />
  <path
     style="fill:none;stroke:#231f20;stroke-width:0.332927;stroke-linecap:butt;stroke-linejoin:miter;stroke-miterlimit:4;stroke-dasharray:none;stroke-opacity:1"
     d="m 120.95057,69.975811 c 1.328,0.266 1.495,1.246 0.97,2.136 -0.156,0.271 -0.022,0.667 -0.188,0.906 -0.412,0.573 -2.14,0.808 -2.698,-0.578 -0.042,-0.1 -0.562,-0.734 -0.876,-1.266 -0.618,-1.047 -1.348,-3.432 -0.057,-5.802 0.609,-1.125 1.163,-0.552 1.053,-0.026 -0.349,1.677 -0.053,1.89 0.015,2.37 0.229,1.599 1.781,2.26 1.781,2.26 z"
     id="path1166" />
  <path
     style="fill:#0098c9;fill-opacity:1;fill-rule:nonzero;stroke:none"
     d="m 136.62857,98.792811 -6.855,3.750999 c 2,3.178 4.095,4.937 6.693,4.443 2.23,-0.427 3.334,-1.636 3.578,-2.932 0.276,-1.433 -0.624,-4.484999 -3.416,-5.261999"
     id="path1167" />
  <path
     style="fill:none;stroke:#231f20;stroke-width:0.565977;stroke-linecap:butt;stroke-linejoin:miter;stroke-miterlimit:4;stroke-dasharray:none;stroke-opacity:1"
     d="m 136.62857,98.792811 -6.855,3.750999 c 2,3.178 4.095,4.937 6.693,4.443 2.23,-0.427 3.334,-1.636 3.578,-2.932 0.276,-1.433 -0.624,-4.484999 -3.416,-5.261999 z"
     id="path1168" />
</svg>
