<?xml version="1.0" encoding="UTF-8" standalone="no"?>
<!-- Created with Inkscape (http://www.inkscape.org/) -->

<svg
   version="1.1"
   id="svg1"
   width="360.46881"
   height="133.42387"
   viewBox="0 0 360.4688 133.42388"
   sodipodi:docname="cell.svg"
   xmlns:inkscape="http://www.inkscape.org/namespaces/inkscape"
   xmlns:sodipodi="http://sodipodi.sourceforge.net/DTD/sodipodi-0.dtd"
   xmlns="http://www.w3.org/2000/svg"
   xmlns:svg="http://www.w3.org/2000/svg">
  <sodipodi:namedview
     id="namedview1"
     pagecolor="#ffffff"
     bordercolor="#000000"
     borderopacity="0.25"
     inkscape:showpageshadow="2"
     inkscape:pageopacity="0.0"
     inkscape:pagecheckerboard="0"
     inkscape:deskcolor="#d1d1d1">
    <inkscape:page
       x="0"
       y="0"
       inkscape:label="1"
       id="page1"
       width="360.46881"
       height="133.42387"
       margin="0"
       bleed="0" />
  </sodipodi:namedview>
  <defs
     id="defs1" />
  <path
     style="fill:#ffffff;fill-opacity:1;fill-rule:nonzero;stroke:none"
     d="m 166.0998,18.874 h 18.875 V 0 h -18.875 z"
     id="path105" />
  <path
     style="fill:#ffffff;fill-opacity:1;fill-rule:nonzero;stroke:none"
     d="M -1.4269758e-8,18.874 H 18.875 V 0 H -1.4269758e-8 Z"
     id="path106" />
  <path
     style="fill:#ffffff;fill-opacity:1;fill-rule:nonzero;stroke:none"
     d="m 343.5418,18.874 h 16.927 V 0 h -16.927 z"
     id="path107" />
  <path
     style="fill:#231f20;fill-opacity:1;fill-rule:nonzero;stroke:none"
     d="m 282.6978,17.688 c 1.031,0.869 0.703,1.806 -0.193,2.333 -0.265,0.156 -0.328,0.567 -0.599,0.703 -0.641,0.302 -2.265,-0.334 -2.078,-1.823 0.01,-0.104 -0.135,-0.912 -0.156,-1.532 -0.031,-1.208 0.489,-3.651 2.77,-5.093 1.074,-0.688 1.282,0.073 0.934,0.484 -1.12,1.297 -0.964,1.63 -1.131,2.078 -0.584,1.516 0.453,2.85 0.453,2.85"
     id="path108" />
  <path
     style="fill:none;stroke:#231f20;stroke-width:0.332927;stroke-linecap:butt;stroke-linejoin:miter;stroke-miterlimit:4;stroke-dasharray:none;stroke-opacity:1"
     d="m 282.6978,17.688 c 1.031,0.869 0.703,1.806 -0.193,2.333 -0.265,0.156 -0.328,0.567 -0.599,0.703 -0.641,0.302 -2.265,-0.334 -2.078,-1.823 0.01,-0.104 -0.135,-0.912 -0.156,-1.532 -0.031,-1.208 0.489,-3.651 2.77,-5.093 1.074,-0.688 1.282,0.073 0.934,0.484 -1.12,1.297 -0.964,1.63 -1.131,2.078 -0.584,1.516 0.453,2.85 0.453,2.85 z"
     id="path109" />
  <path
     style="fill:#0098c9;fill-opacity:1;fill-rule:nonzero;stroke:none"
     d="m 282.0048,62.286 c 0.052,-3.136 0.407,-3.802 0.781,-4.645 2.355,-5.276 -0.281,-6.333 -3.125,-5.855 -3.343,0.552 -4.557,0.688 -4.063,6.959 0.142,1.749 -0.202,8.509 -0.202,8.509 -0.454,2.412 0.39,4.996 1.584,5.835 1.26,0.88 0.828,0.437 2.129,1.041 1.256,0.578 3.433,0.359 4.136,-0.656 0.672,-0.98 -0.021,-2.496 -0.74,-4.808 -0.563,-1.828 -0.5,-6.38 -0.5,-6.38"
     id="path110" />
  <path
     style="fill:none;stroke:#231f20;stroke-width:0.565977;stroke-linecap:butt;stroke-linejoin:miter;stroke-miterlimit:4;stroke-dasharray:none;stroke-opacity:1"
     d="m 282.0048,62.286 c 0.052,-3.136 0.407,-3.802 0.781,-4.645 2.355,-5.276 -0.281,-6.333 -3.125,-5.855 -3.343,0.552 -4.557,0.688 -4.063,6.959 0.142,1.749 -0.202,8.509 -0.202,8.509 -0.454,2.412 0.39,4.996 1.584,5.835 1.26,0.88 0.828,0.437 2.129,1.041 1.256,0.578 3.433,0.359 4.136,-0.656 0.672,-0.98 -0.021,-2.496 -0.74,-4.808 -0.563,-1.828 -0.5,-6.38 -0.5,-6.38 z"
     id="path111" />
  <path
     style="fill:#ffffff;fill-opacity:1;fill-rule:nonzero;stroke:none"
     d="m 281.0048,82.494 c 0.167,0.178 -0.443,1.162 -0.02,1.47 0.427,0.306 1.036,-0.199 2.989,0.177 l 0.02,0.004 c 1.423,0.319 2.782,0.027 3.595,-0.927 1.359,-1.577 0.719,-4.344 -1.417,-6.186 -2.146,-1.839 -4.979,-2.054 -6.334,-0.486 -1.296,1.506 -0.765,4.115 1.167,5.948"
     id="path112" />
  <path
     style="fill:none;stroke:#231f20;stroke-width:0.565977;stroke-linecap:butt;stroke-linejoin:miter;stroke-miterlimit:4;stroke-dasharray:none;stroke-opacity:1"
     d="m 281.0048,82.494 c 0.167,0.178 -0.443,1.162 -0.02,1.47 0.427,0.306 1.036,-0.199 2.989,0.177 l 0.02,0.004 c 1.423,0.319 2.782,0.027 3.595,-0.927 1.359,-1.577 0.719,-4.344 -1.417,-6.186 -2.146,-1.839 -4.979,-2.054 -6.334,-0.486 -1.296,1.506 -0.765,4.115 1.167,5.948 z"
     id="path113" />
  <path
     style="fill:#231f20;fill-opacity:1;fill-rule:nonzero;stroke:none"
     d="m 267.4168,84.641 c -0.224,-0.6 0.459,-2.433 0.396,-4.037 -0.043,-1.083 0.989,-3.626 0.864,-4.703 -0.104,-0.989 -0.068,-1.453 1.041,-1.771 0.658,-0.193 2.043,-0.13 2.204,0.354 0.386,1.125 0.318,2.068 0.015,3.094 -0.343,1.167 -1.552,4.25 -1.823,4.802 -0.686,1.354 -0.541,2.078 -0.686,2.453 -0.276,0.708 -0.62,0.776 -1.115,0.703 -0.948,-0.156 -0.896,-0.895 -0.896,-0.895"
     id="path114" />
  <path
     style="fill:none;stroke:#231f20;stroke-width:0.565977;stroke-linecap:butt;stroke-linejoin:miter;stroke-miterlimit:4;stroke-dasharray:none;stroke-opacity:1"
     d="m 267.4168,84.641 c -0.224,-0.6 0.459,-2.433 0.396,-4.037 -0.043,-1.083 0.989,-3.626 0.864,-4.703 -0.104,-0.989 -0.068,-1.453 1.041,-1.771 0.658,-0.193 2.043,-0.13 2.204,0.354 0.386,1.125 0.318,2.068 0.015,3.094 -0.343,1.167 -1.552,4.25 -1.823,4.802 -0.686,1.354 -0.541,2.078 -0.686,2.453 -0.276,0.708 -0.62,0.776 -1.115,0.703 -0.948,-0.156 -0.896,-0.895 -0.896,-0.895 z"
     id="path115" />
  <path
     style="fill:#231f20;fill-opacity:1;fill-rule:nonzero;stroke:none"
     d="m 269.6658,75.026 c -0.546,-1.177 1.428,-1.693 1.918,-1.901 0.505,-0.213 1.853,-0.984 2.828,-1.724 0.978,-0.74 2.516,-1.24 4.374,-2.641 0.975,-0.739 2.391,-0.834 3.396,0.63 0.995,1.448 0.558,2.552 -0.76,3.266 -1.313,0.709 -2.854,0.818 -4.229,1.442 -1.38,0.626 -2.724,1.391 -3.751,2.043 -1.166,0.733 -2.02,0.671 -2.41,0.395 -0.986,-0.676 -1.366,-1.51 -1.366,-1.51"
     id="path116" />
  <path
     style="fill:none;stroke:#231f20;stroke-width:0.565977;stroke-linecap:butt;stroke-linejoin:miter;stroke-miterlimit:4;stroke-dasharray:none;stroke-opacity:1"
     d="m 269.6658,75.026 c -0.546,-1.177 1.428,-1.693 1.918,-1.901 0.505,-0.213 1.853,-0.984 2.828,-1.724 0.978,-0.74 2.516,-1.24 4.374,-2.641 0.975,-0.739 2.391,-0.834 3.396,0.63 0.995,1.448 0.558,2.552 -0.76,3.266 -1.313,0.709 -2.854,0.818 -4.229,1.442 -1.38,0.626 -2.724,1.391 -3.751,2.043 -1.166,0.733 -2.02,0.671 -2.41,0.395 -0.986,-0.676 -1.366,-1.51 -1.366,-1.51 z"
     id="path117" />
  <path
     style="fill:#ffffff;fill-opacity:1;fill-rule:nonzero;stroke:none"
     d="m 276.9118,95.369 c -0.708,0.745 -1.886,0.781 -2.631,0.073 -0.744,-0.702 -0.781,-1.88 -0.077,-2.63 0.702,-0.744 1.885,-0.78 2.629,-0.072 0.751,0.708 0.781,1.88 0.079,2.629"
     id="path118" />
  <path
     style="fill:none;stroke:#231f20;stroke-width:1.33171;stroke-linecap:butt;stroke-linejoin:miter;stroke-miterlimit:4;stroke-dasharray:none;stroke-opacity:1"
     d="m 276.9118,95.369 c -0.708,0.745 -1.886,0.781 -2.631,0.073 -0.744,-0.702 -0.781,-1.88 -0.077,-2.63 0.702,-0.744 1.885,-0.78 2.629,-0.072 0.751,0.708 0.781,1.88 0.079,2.629 z"
     id="path119" />
  <path
     style="fill:#231f20;fill-opacity:1;fill-rule:nonzero;stroke:none"
     d="m 280.4168,36.756 c 2.235,0.38 2.719,0.145 2.932,-0.787 0.151,-0.625 0.5,-1.147 0.609,-1.516 0.36,-1.245 0.448,-3.5 -0.953,-9.927 -0.323,-1.453 -0.755,-3.505 -0.864,-4.36 -0.183,-1.344 -2.297,-0.14 -2.229,0.391 0.202,1.703 0.197,2.885 0.188,3.511 -0.006,0.426 0.082,1.177 -0.163,2.833 -0.369,2.5 -0.957,3.937 -1.025,6.052 -0.032,0.984 -0.678,1.703 -0.208,2.677 0.452,0.99 1.713,1.126 1.713,1.126"
     id="path120" />
  <path
     style="fill:none;stroke:#231f20;stroke-width:0.565977;stroke-linecap:butt;stroke-linejoin:miter;stroke-miterlimit:4;stroke-dasharray:none;stroke-opacity:1"
     d="m 280.4168,36.756 c 2.235,0.38 2.719,0.145 2.932,-0.787 0.151,-0.625 0.5,-1.147 0.609,-1.516 0.36,-1.245 0.448,-3.5 -0.953,-9.927 -0.323,-1.453 -0.755,-3.505 -0.864,-4.36 -0.183,-1.344 -2.297,-0.14 -2.229,0.391 0.202,1.703 0.197,2.885 0.188,3.511 -0.006,0.426 0.082,1.177 -0.163,2.833 -0.369,2.5 -0.957,3.937 -1.025,6.052 -0.032,0.984 -0.678,1.703 -0.208,2.677 0.452,0.99 1.713,1.126 1.713,1.126 z"
     id="path121" />
  <path
     style="fill:#231f20;fill-opacity:1;fill-rule:nonzero;stroke:#231f20;stroke-width:0.565977;stroke-linecap:round;stroke-linejoin:round;stroke-miterlimit:4;stroke-dasharray:none;stroke-opacity:1"
     d="m 279.0518,34.656 c -1.151,0.833 -0.734,2.948 -0.823,3.27 -1.271,4.855 -1.24,5.235 -1.948,8.986 -1.025,5.437 -0.896,9.312 2.089,10.833 2.031,1.031 3.64,0.744 4.63,-0.125 1.094,-0.97 2.24,-3.932 0.516,-6.255 l -0.136,-1.704 c 0.048,-1.167 0.068,-1.74 0.13,-2.307 0.131,-0.994 0.199,-2.068 0.334,-4.021 0.229,-3.468 -0.656,-7.203 -0.656,-7.203 0.016,-0.313 -0.094,-0.573 -0.256,-0.786"
     id="path122" />
  <path
     style="fill:#0098c9;fill-opacity:1;fill-rule:nonzero;stroke:none"
     d="m 283.4938,51.494 -7.666,-1.525 c -0.088,0.651 -0.13,1.26 -0.156,1.843 -0.031,0.073 -0.058,0.146 -0.094,0.209 -0.396,0.708 -0.172,1.291 0.244,2.244 0.303,1.527 1,2.693 2.292,3.407 1.98,1.104 3.604,0.885 4.631,0.052 1.125,-0.927 2.38,-3.844 0.749,-6.23"
     id="path123" />
  <path
     style="fill:none;stroke:#231f20;stroke-width:0.565977;stroke-linecap:butt;stroke-linejoin:miter;stroke-miterlimit:4;stroke-dasharray:none;stroke-opacity:1"
     d="m 283.4938,51.494 -7.666,-1.525 c -0.088,0.651 -0.13,1.26 -0.156,1.843 -0.031,0.073 -0.058,0.146 -0.094,0.209 -0.396,0.708 -0.172,1.291 0.244,2.244 0.303,1.527 1,2.693 2.292,3.407 1.98,1.104 3.604,0.885 4.631,0.052 1.125,-0.927 2.38,-3.844 0.749,-6.23 z"
     id="path124" />
  <path
     style="fill:#231f20;fill-opacity:1;fill-rule:nonzero;stroke:none"
     d="m 319.4848,16.062 c 1.082,0.803 0.812,1.76 -0.048,2.339 -0.26,0.177 -0.296,0.588 -0.562,0.74 -0.614,0.337 -2.277,-0.193 -2.182,-1.693 0.005,-0.104 -0.194,-0.902 -0.251,-1.516 -0.104,-1.208 0.267,-3.678 2.453,-5.26 1.032,-0.751 1.282,0 0.959,0.432 -1.036,1.36 -0.86,1.682 -1,2.141 -0.484,1.547 0.631,2.817 0.631,2.817"
     id="path125" />
  <path
     style="fill:none;stroke:#231f20;stroke-width:0.332927;stroke-linecap:butt;stroke-linejoin:miter;stroke-miterlimit:4;stroke-dasharray:none;stroke-opacity:1"
     d="m 319.4848,16.062 c 1.082,0.803 0.812,1.76 -0.048,2.339 -0.26,0.177 -0.296,0.588 -0.562,0.74 -0.614,0.337 -2.277,-0.193 -2.182,-1.693 0.005,-0.104 -0.194,-0.902 -0.251,-1.516 -0.104,-1.208 0.267,-3.678 2.453,-5.26 1.032,-0.751 1.282,0 0.959,0.432 -1.036,1.36 -0.86,1.682 -1,2.141 -0.484,1.547 0.631,2.817 0.631,2.817 z"
     id="path126" />
  <path
     style="fill:#0098c9;fill-opacity:1;fill-rule:nonzero;stroke:none"
     d="m 321.5148,60.62 c -0.136,-3.131 0.178,-3.818 0.5,-4.683 2.027,-5.411 -0.672,-6.307 -3.478,-5.656 -3.303,0.755 -4.506,0.964 -3.631,7.197 0.249,1.735 0.317,8.506 0.317,8.506 -0.301,2.433 0.699,4.958 1.938,5.724 1.313,0.802 0.854,0.39 2.193,0.912 1.287,0.5 3.443,0.15 4.083,-0.912 0.609,-1.015 -0.172,-2.484 -1.031,-4.75 -0.672,-1.792 -0.891,-6.338 -0.891,-6.338"
     id="path127" />
  <path
     style="fill:none;stroke:#231f20;stroke-width:0.565977;stroke-linecap:butt;stroke-linejoin:miter;stroke-miterlimit:4;stroke-dasharray:none;stroke-opacity:1"
     d="m 321.5148,60.62 c -0.136,-3.131 0.178,-3.818 0.5,-4.683 2.027,-5.411 -0.672,-6.307 -3.478,-5.656 -3.303,0.755 -4.506,0.964 -3.631,7.197 0.249,1.735 0.317,8.506 0.317,8.506 -0.301,2.433 0.699,4.958 1.938,5.724 1.313,0.802 0.854,0.39 2.193,0.912 1.287,0.5 3.443,0.15 4.083,-0.912 0.609,-1.015 -0.172,-2.484 -1.031,-4.75 -0.672,-1.792 -0.891,-6.338 -0.891,-6.338 z"
     id="path128" />
  <path
     style="fill:#ffffff;fill-opacity:1;fill-rule:nonzero;stroke:none"
     d="m 322.0728,80.978 c 0.177,0.167 -0.37,1.183 0.073,1.464 0.443,0.282 1.02,-0.26 2.995,-0.005 l 0.02,0.005 c 1.433,0.23 2.776,-0.145 3.532,-1.145 1.254,-1.656 0.448,-4.38 -1.798,-6.084 -2.254,-1.713 -5.093,-1.749 -6.349,-0.099 -1.203,1.579 -0.515,4.151 1.527,5.864"
     id="path129" />
  <path
     style="fill:none;stroke:#231f20;stroke-width:0.565977;stroke-linecap:butt;stroke-linejoin:miter;stroke-miterlimit:4;stroke-dasharray:none;stroke-opacity:1"
     d="m 322.0728,80.978 c 0.177,0.167 -0.37,1.183 0.073,1.464 0.443,0.282 1.02,-0.26 2.995,-0.005 l 0.02,0.005 c 1.433,0.23 2.776,-0.145 3.532,-1.145 1.254,-1.656 0.448,-4.38 -1.798,-6.084 -2.254,-1.713 -5.093,-1.749 -6.349,-0.099 -1.203,1.579 -0.515,4.151 1.527,5.864 z"
     id="path130" />
  <path
     style="fill:#231f20;fill-opacity:1;fill-rule:nonzero;stroke:none"
     d="m 315.3428,91.521 c -0.27,-0.584 0.255,-2.459 0.074,-4.057 -0.131,-1.079 0.692,-3.694 0.484,-4.762 -0.188,-0.973 -0.188,-1.437 0.89,-1.848 0.642,-0.24 2.027,-0.292 2.23,0.182 0.468,1.089 0.478,2.037 0.26,3.078 -0.244,1.194 -1.203,4.364 -1.432,4.932 -0.579,1.407 -0.37,2.115 -0.49,2.506 -0.218,0.729 -0.552,0.822 -1.052,0.786 -0.958,-0.073 -0.964,-0.817 -0.964,-0.817"
     id="path131" />
  <path
     style="fill:none;stroke:#231f20;stroke-width:0.565977;stroke-linecap:butt;stroke-linejoin:miter;stroke-miterlimit:4;stroke-dasharray:none;stroke-opacity:1"
     d="m 315.3428,91.521 c -0.27,-0.584 0.255,-2.459 0.074,-4.057 -0.131,-1.079 0.692,-3.694 0.484,-4.762 -0.188,-0.973 -0.188,-1.437 0.89,-1.848 0.642,-0.24 2.027,-0.292 2.23,0.182 0.468,1.089 0.478,2.037 0.26,3.078 -0.244,1.194 -1.203,4.364 -1.432,4.932 -0.579,1.407 -0.37,2.115 -0.49,2.506 -0.218,0.729 -0.552,0.822 -1.052,0.786 -0.958,-0.073 -0.964,-0.817 -0.964,-0.817 z"
     id="path132" />
  <path
     style="fill:#231f20;fill-opacity:1;fill-rule:nonzero;stroke:none"
     d="m 316.5508,82.541 c -1.254,-0.312 -0.41,-2.167 -0.265,-2.687 0.151,-0.521 0.401,-2.057 0.443,-3.276 0.041,-1.229 0.62,-2.74 0.708,-5.062 0.037,-1.224 0.86,-2.386 2.63,-2.24 1.751,0.136 2.328,1.177 2.052,2.645 -0.276,1.469 -1.161,2.735 -1.541,4.199 -0.385,1.458 -0.641,2.984 -0.781,4.192 -0.162,1.37 -0.751,1.996 -1.208,2.125 -1.152,0.339 -2.038,0.104 -2.038,0.104"
     id="path133" />
  <path
     style="fill:none;stroke:#231f20;stroke-width:0.565977;stroke-linecap:butt;stroke-linejoin:miter;stroke-miterlimit:4;stroke-dasharray:none;stroke-opacity:1"
     d="m 316.5508,82.541 c -1.254,-0.312 -0.41,-2.167 -0.265,-2.687 0.151,-0.521 0.401,-2.057 0.443,-3.276 0.041,-1.229 0.62,-2.74 0.708,-5.062 0.037,-1.224 0.86,-2.386 2.63,-2.24 1.751,0.136 2.328,1.177 2.052,2.645 -0.276,1.469 -1.161,2.735 -1.541,4.199 -0.385,1.458 -0.641,2.984 -0.781,4.192 -0.162,1.37 -0.751,1.996 -1.208,2.125 -1.152,0.339 -2.038,0.104 -2.038,0.104 z"
     id="path134" />
  <path
     style="fill:#ffffff;fill-opacity:1;fill-rule:nonzero;stroke:none"
     d="m 317.1248,95.281 c -0.662,0.792 -1.834,0.896 -2.626,0.24 -0.786,-0.656 -0.89,-1.833 -0.234,-2.625 0.657,-0.787 1.834,-0.891 2.62,-0.235 0.786,0.661 0.896,1.833 0.24,2.62"
     id="path135" />
  <path
     style="fill:none;stroke:#231f20;stroke-width:1.33171;stroke-linecap:butt;stroke-linejoin:miter;stroke-miterlimit:4;stroke-dasharray:none;stroke-opacity:1"
     d="m 317.1248,95.281 c -0.662,0.792 -1.834,0.896 -2.626,0.24 -0.786,-0.656 -0.89,-1.833 -0.234,-2.625 0.657,-0.787 1.834,-0.891 2.62,-0.235 0.786,0.661 0.896,1.833 0.24,2.62 z"
     id="path136" />
  <path
     style="fill:#231f20;fill-opacity:1;fill-rule:nonzero;stroke:none"
     d="m 318.3698,35.234 c 2.255,0.24 2.724,-0.021 2.88,-0.969 0.115,-0.629 0.427,-1.172 0.516,-1.547 0.285,-1.265 0.233,-3.52 -1.563,-9.853 -0.406,-1.428 -0.964,-3.448 -1.125,-4.297 -0.26,-1.328 -2.303,0 -2.203,0.525 0.307,1.688 0.38,2.871 0.406,3.495 0.016,0.422 0.156,1.172 0.01,2.834 -0.213,2.52 -0.718,3.995 -0.65,6.114 0.025,0.98 -0.574,1.734 -0.052,2.682 0.514,0.959 1.781,1.016 1.781,1.016"
     id="path137" />
  <path
     style="fill:none;stroke:#231f20;stroke-width:0.565977;stroke-linecap:butt;stroke-linejoin:miter;stroke-miterlimit:4;stroke-dasharray:none;stroke-opacity:1"
     d="m 318.3698,35.234 c 2.255,0.24 2.724,-0.021 2.88,-0.969 0.115,-0.629 0.427,-1.172 0.516,-1.547 0.285,-1.265 0.233,-3.52 -1.563,-9.853 -0.406,-1.428 -0.964,-3.448 -1.125,-4.297 -0.26,-1.328 -2.303,0 -2.203,0.525 0.307,1.688 0.38,2.871 0.406,3.495 0.016,0.422 0.156,1.172 0.01,2.834 -0.213,2.52 -0.718,3.995 -0.65,6.114 0.025,0.98 -0.574,1.734 -0.052,2.682 0.514,0.959 1.781,1.016 1.781,1.016 z"
     id="path138" />
  <path
     style="fill:#231f20;fill-opacity:1;fill-rule:nonzero;stroke:#231f20;stroke-width:0.565977;stroke-linecap:round;stroke-linejoin:round;stroke-miterlimit:4;stroke-dasharray:none;stroke-opacity:1"
     d="m 316.8848,33.224 c -1.104,0.896 -0.558,2.978 -0.624,3.312 -0.975,4.922 -0.918,5.297 -1.396,9.089 -0.694,5.484 -0.323,9.349 2.749,10.683 2.084,0.905 3.677,0.52 4.615,-0.407 1.026,-1.032 1.989,-4.063 0.13,-6.276 l -0.24,-1.693 c -0.025,-1.167 -0.041,-1.739 -0.01,-2.312 0.068,-0.995 0.073,-2.074 0.084,-4.032 0.02,-3.474 -1.09,-7.151 -1.09,-7.151 -0.009,-0.312 -0.129,-0.563 -0.306,-0.765"
     id="path139" />
  <path
     style="fill:#0098c9;fill-opacity:1;fill-rule:nonzero;stroke:none"
     d="m 322.3428,49.756 -7.74,-1.054 c -0.052,0.658 -0.057,1.267 -0.046,1.85 -0.026,0.078 -0.052,0.15 -0.078,0.218 -0.354,0.724 -0.1,1.298 0.38,2.219 0.391,1.505 1.162,2.625 2.49,3.265 2.052,0.975 3.656,0.658 4.625,-0.233 1.072,-0.995 2.145,-3.985 0.369,-6.265"
     id="path140" />
  <path
     style="fill:none;stroke:#231f20;stroke-width:0.565977;stroke-linecap:butt;stroke-linejoin:miter;stroke-miterlimit:4;stroke-dasharray:none;stroke-opacity:1"
     d="m 322.3428,49.756 -7.74,-1.054 c -0.052,0.658 -0.057,1.267 -0.046,1.85 -0.026,0.078 -0.052,0.15 -0.078,0.218 -0.354,0.724 -0.1,1.298 0.38,2.219 0.391,1.505 1.162,2.625 2.49,3.265 2.052,0.975 3.656,0.658 4.625,-0.233 1.072,-0.995 2.145,-3.985 0.369,-6.265 z"
     id="path141" />
  <path
     style="fill:#ffffff;fill-opacity:1;fill-rule:nonzero;stroke:none"
     d="m 211.4368,64.901 c 0.308,-2.24 0.057,-2.719 -0.885,-2.912 -0.624,-0.129 -1.156,-0.463 -1.531,-0.552 -1.26,-0.328 -3.511,-0.339 -9.891,1.265 -1.448,0.371 -3.478,0.866 -4.328,1.006 -1.338,0.218 -0.073,2.297 0.459,2.213 1.692,-0.255 2.875,-0.291 3.5,-0.301 0.427,-0.006 1.176,-0.12 2.837,0.073 2.511,0.291 3.97,0.833 6.084,0.833 0.984,0 1.724,0.624 2.683,0.124 0.973,-0.484 1.072,-1.749 1.072,-1.749"
     id="path142" />
  <path
     style="fill:none;stroke:#231f20;stroke-width:0.565977;stroke-linecap:butt;stroke-linejoin:miter;stroke-miterlimit:4;stroke-dasharray:none;stroke-opacity:1"
     d="m 211.4368,64.901 c 0.308,-2.24 0.057,-2.719 -0.885,-2.912 -0.624,-0.129 -1.156,-0.463 -1.531,-0.552 -1.26,-0.328 -3.511,-0.339 -9.891,1.265 -1.448,0.371 -3.478,0.866 -4.328,1.006 -1.338,0.218 -0.073,2.297 0.459,2.213 1.692,-0.255 2.875,-0.291 3.5,-0.301 0.427,-0.006 1.176,-0.12 2.837,0.073 2.511,0.291 3.97,0.833 6.084,0.833 0.984,0 1.724,0.624 2.683,0.124 0.973,-0.484 1.072,-1.749 1.072,-1.749 z"
     id="path143" />
  <path
     style="fill:#ffffff;fill-opacity:1;fill-rule:nonzero;stroke:#231f20;stroke-width:0.565977;stroke-linecap:round;stroke-linejoin:round;stroke-miterlimit:4;stroke-dasharray:none;stroke-opacity:1"
     d="m 209.3798,66.328 c 0.865,1.125 2.964,0.646 3.297,0.724 4.891,1.12 5.265,1.073 9.041,1.666 5.459,0.85 9.334,0.594 10.762,-2.437 0.962,-2.057 0.624,-3.661 -0.271,-4.625 -1.005,-1.058 -4.005,-2.11 -6.272,-0.318 l -1.697,0.198 c -1.167,-0.01 -1.74,-0.015 -2.312,-0.067 -1,-0.095 -2.074,-0.125 -4.032,-0.199 -3.468,-0.125 -7.178,0.88 -7.178,0.88 -0.312,-0.005 -0.566,0.11 -0.776,0.287"
     id="path144" />
  <path
     style="fill:#231f20;fill-opacity:1;fill-rule:nonzero;stroke:none"
     d="m 192.3958,63.458 c 0.817,-1.078 1.765,-0.802 2.344,0.058 0.172,0.254 0.582,0.301 0.729,0.568 0.344,0.614 -0.199,2.276 -1.699,2.176 -0.104,-0.006 -0.9,0.182 -1.514,0.234 -1.21,0.099 -3.678,-0.286 -5.246,-2.478 -0.749,-1.032 0,-1.282 0.432,-0.954 1.36,1.042 1.683,0.87 2.142,1.011 1.541,0.495 2.812,-0.615 2.812,-0.615"
     id="path145" />
  <path
     style="fill:none;stroke:#231f20;stroke-width:0.332927;stroke-linecap:butt;stroke-linejoin:miter;stroke-miterlimit:4;stroke-dasharray:none;stroke-opacity:1"
     d="m 192.3958,63.458 c 0.817,-1.078 1.765,-0.802 2.344,0.058 0.172,0.254 0.582,0.301 0.729,0.568 0.344,0.614 -0.199,2.276 -1.699,2.176 -0.104,-0.006 -0.9,0.182 -1.514,0.234 -1.21,0.099 -3.678,-0.286 -5.246,-2.478 -0.749,-1.032 0,-1.282 0.432,-0.954 1.36,1.042 1.683,0.87 2.142,1.011 1.541,0.495 2.812,-0.615 2.812,-0.615 z"
     id="path146" />
  <path
     style="fill:#0098c9;fill-opacity:1;fill-rule:nonzero;stroke:none"
     d="m 234.6038,70.865 c -1.192,-2.896 -1.135,-3.652 -1.119,-4.573 0.072,-5.776 -2.767,-5.708 -5.188,-4.147 -2.855,1.833 -3.917,2.439 -0.979,8.005 0.823,1.548 3.182,7.896 3.182,7.896 0.537,2.386 2.338,4.428 3.761,4.724 1.505,0.314 0.927,0.079 2.375,0.12 1.38,0.031 3.286,-1.025 3.525,-2.24 0.235,-1.166 -1,-2.281 -2.577,-4.124 -1.235,-1.458 -2.98,-5.661 -2.98,-5.661"
     id="path147" />
  <path
     style="fill:none;stroke:#231f20;stroke-width:0.565977;stroke-linecap:butt;stroke-linejoin:miter;stroke-miterlimit:4;stroke-dasharray:none;stroke-opacity:1"
     d="m 234.6038,70.865 c -1.192,-2.896 -1.135,-3.652 -1.119,-4.573 0.072,-5.776 -2.767,-5.708 -5.188,-4.147 -2.855,1.833 -3.917,2.439 -0.979,8.005 0.823,1.548 3.182,7.896 3.182,7.896 0.537,2.386 2.338,4.428 3.761,4.724 1.505,0.314 0.927,0.079 2.375,0.12 1.38,0.031 3.286,-1.025 3.525,-2.24 0.235,-1.166 -1,-2.281 -2.577,-4.124 -1.235,-1.458 -2.98,-5.661 -2.98,-5.661 z"
     id="path148" />
  <path
     style="fill:#ffffff;fill-opacity:1;fill-rule:nonzero;stroke:none"
     d="m 240.9528,89.797 c 0.156,0.192 -0.516,1.12 -0.12,1.457 0.401,0.339 1.047,-0.109 2.969,0.396 l 0.02,0.011 c 1.396,0.423 2.767,0.219 3.658,-0.667 1.462,-1.473 1.025,-4.281 -0.975,-6.27 -2.005,-1.995 -4.812,-2.412 -6.281,-0.943 -1.402,1.407 -1.058,4.047 0.729,6.016"
     id="path149" />
  <path
     style="fill:none;stroke:#231f20;stroke-width:0.565977;stroke-linecap:butt;stroke-linejoin:miter;stroke-miterlimit:4;stroke-dasharray:none;stroke-opacity:1"
     d="m 240.9528,89.797 c 0.156,0.192 -0.516,1.12 -0.12,1.457 0.401,0.339 1.047,-0.109 2.969,0.396 l 0.02,0.011 c 1.396,0.423 2.767,0.219 3.658,-0.667 1.462,-1.473 1.025,-4.281 -0.975,-6.27 -2.005,-1.995 -4.812,-2.412 -6.281,-0.943 -1.402,1.407 -1.058,4.047 0.729,6.016 z"
     id="path150" />
  <path
     style="fill:#0098c9;fill-opacity:1;fill-rule:nonzero;stroke:none"
     d="m 231.3848,61.089 c -1.172,-0.865 -4.312,-1.381 -6.224,0.785 l 0.391,7.808 c 0.652,-0.073 1.25,-0.177 1.818,-0.297 0.083,0.011 0.162,0.021 0.234,0.041 0.781,0.215 1.297,-0.15 2.125,-0.79 1.401,-0.662 2.355,-1.626 2.74,-3.043 0.588,-2.197 -0.027,-3.719 -1.084,-4.504"
     id="path151" />
  <path
     style="fill:none;stroke:#231f20;stroke-width:0.565977;stroke-linecap:butt;stroke-linejoin:miter;stroke-miterlimit:4;stroke-dasharray:none;stroke-opacity:1"
     d="m 231.3848,61.089 c -1.172,-0.865 -4.312,-1.381 -6.224,0.785 l 0.391,7.808 c 0.652,-0.073 1.25,-0.177 1.818,-0.297 0.083,0.011 0.162,0.021 0.234,0.041 0.781,0.215 1.297,-0.15 2.125,-0.79 1.401,-0.662 2.355,-1.626 2.74,-3.043 0.588,-2.197 -0.027,-3.719 -1.084,-4.504 z"
     id="path152" />
  <path
     style="fill:#231f20;fill-opacity:1;fill-rule:nonzero;stroke:none"
     d="m 220.2698,92.25 c 0.167,-0.625 1.792,-1.704 2.683,-3.037 0.604,-0.905 2.932,-2.369 3.464,-3.312 0.484,-0.86 0.792,-1.213 1.88,-0.823 0.64,0.234 1.729,1.094 1.573,1.583 -0.344,1.136 -0.958,1.86 -1.802,2.511 -0.964,0.749 -3.746,2.541 -4.287,2.822 -1.359,0.694 -1.656,1.371 -2,1.59 -0.64,0.416 -0.959,0.27 -1.312,-0.084 -0.677,-0.683 -0.199,-1.25 -0.199,-1.25"
     id="path153" />
  <path
     style="fill:none;stroke:#231f20;stroke-width:0.565977;stroke-linecap:butt;stroke-linejoin:miter;stroke-miterlimit:4;stroke-dasharray:none;stroke-opacity:1"
     d="m 220.2698,92.25 c 0.167,-0.625 1.792,-1.704 2.683,-3.037 0.604,-0.905 2.932,-2.369 3.464,-3.312 0.484,-0.86 0.792,-1.213 1.88,-0.823 0.64,0.234 1.729,1.094 1.573,1.583 -0.344,1.136 -0.958,1.86 -1.802,2.511 -0.964,0.749 -3.746,2.541 -4.287,2.822 -1.359,0.694 -1.656,1.371 -2,1.59 -0.64,0.416 -0.959,0.27 -1.312,-0.084 -0.677,-0.683 -0.199,-1.25 -0.199,-1.25 z"
     id="path154" />
  <path
     style="fill:#231f20;fill-opacity:1;fill-rule:nonzero;stroke:none"
     d="m 227.0158,86.202 c -0.751,-1.052 1.093,-1.91 1.541,-2.213 0.453,-0.301 1.647,-1.307 2.464,-2.208 0.833,-0.901 2.249,-1.677 3.823,-3.391 0.833,-0.901 2.202,-1.254 3.458,0.006 1.24,1.24 1.006,2.406 -0.156,3.344 -1.161,0.942 -2.657,1.333 -3.896,2.192 -1.245,0.86 -2.428,1.86 -3.318,2.682 -1.01,0.943 -1.864,1.027 -2.302,0.834 -1.088,-0.49 -1.614,-1.246 -1.614,-1.246"
     id="path155" />
  <path
     style="fill:none;stroke:#231f20;stroke-width:0.565977;stroke-linecap:butt;stroke-linejoin:miter;stroke-miterlimit:4;stroke-dasharray:none;stroke-opacity:1"
     d="m 227.0158,86.202 c -0.751,-1.052 1.093,-1.91 1.541,-2.213 0.453,-0.301 1.647,-1.307 2.464,-2.208 0.833,-0.901 2.249,-1.677 3.823,-3.391 0.833,-0.901 2.202,-1.254 3.458,0.006 1.24,1.24 1.006,2.406 -0.156,3.344 -1.161,0.942 -2.657,1.333 -3.896,2.192 -1.245,0.86 -2.428,1.86 -3.318,2.682 -1.01,0.943 -1.864,1.027 -2.302,0.834 -1.088,-0.49 -1.614,-1.246 -1.614,-1.246 z"
     id="path156" />
  <path
     style="fill:#ffffff;fill-opacity:1;fill-rule:nonzero;stroke:none"
     d="m 220.0258,94.808 c 0.948,-0.391 1.396,-1.48 1.006,-2.428 -0.396,-0.948 -1.486,-1.402 -2.434,-1.006 -0.946,0.391 -1.4,1.48 -1.004,2.434 0.395,0.942 1.484,1.394 2.432,1"
     id="path157" />
  <path
     style="fill:none;stroke:#231f20;stroke-width:1.33171;stroke-linecap:butt;stroke-linejoin:miter;stroke-miterlimit:4;stroke-dasharray:none;stroke-opacity:1"
     d="m 220.0258,94.808 c 0.948,-0.391 1.396,-1.48 1.006,-2.428 -0.396,-0.948 -1.486,-1.402 -2.434,-1.006 -0.946,0.391 -1.4,1.48 -1.004,2.434 0.395,0.942 1.484,1.394 2.432,1 z"
     id="path158" />
  <path
     style="fill:#0098c9;fill-opacity:1;fill-rule:nonzero;stroke:none"
     d="m 99.8078,84.885 c -1.823,3.005 -2.166,3.917 -2.666,4.943 -2.547,5.193 -1.616,6.089 0.489,7.234 2.978,1.62 4.765,2.224 7.229,-3.568 1.87,-4.396 3.885,-7.396 3.885,-7.396 1.427,-1.208 3.026,-4.426 2.869,-5.322 -0.265,-1.516 -0.259,-1.214 -1.139,-2.364 -1.615,-2.126 -2.803,-1.943 -3.871,-1.418 -1.061,0.532 -1.781,1.271 -3.531,3.475 -1.354,1.708 -3.265,4.416 -3.265,4.416"
     id="path159" />
  <path
     style="fill:none;stroke:#231f20;stroke-width:0.565977;stroke-linecap:butt;stroke-linejoin:miter;stroke-miterlimit:4;stroke-dasharray:none;stroke-opacity:1"
     d="m 99.8078,84.885 c -1.823,3.005 -2.166,3.917 -2.666,4.943 -2.547,5.193 -1.616,6.089 0.489,7.234 2.978,1.62 4.765,2.224 7.229,-3.568 1.87,-4.396 3.885,-7.396 3.885,-7.396 1.427,-1.208 3.026,-4.426 2.869,-5.322 -0.265,-1.516 -0.259,-1.214 -1.139,-2.364 -1.615,-2.126 -2.803,-1.943 -3.871,-1.418 -1.061,0.532 -1.781,1.271 -3.531,3.475 -1.354,1.708 -3.265,4.416 -3.265,4.416 z"
     id="path160" />
  <path
     style="fill:#ffffff;fill-opacity:1;fill-rule:nonzero;stroke:none"
     d="m 116.6828,90.026 c 0.38,2.234 0.754,2.615 1.708,2.515 0.641,-0.063 1.25,0.1 1.63,0.073 1.302,-0.068 3.454,-0.724 9.063,-4.161 1.271,-0.787 3.068,-1.865 3.839,-2.251 1.208,-0.604 -0.62,-2.208 -1.104,-1.973 -1.538,0.749 -2.663,1.136 -3.251,1.328 -0.412,0.136 -1.093,0.469 -2.729,0.776 -2.484,0.479 -4.036,0.391 -6.058,1.027 -0.937,0.29 -1.828,-0.084 -2.598,0.676 -0.782,0.756 -0.5,1.99 -0.5,1.99"
     id="path161" />
  <path
     style="fill:none;stroke:#231f20;stroke-width:0.565977;stroke-linecap:butt;stroke-linejoin:miter;stroke-miterlimit:4;stroke-dasharray:none;stroke-opacity:1"
     d="m 116.6828,90.026 c 0.38,2.234 0.754,2.615 1.708,2.515 0.641,-0.063 1.25,0.1 1.63,0.073 1.302,-0.068 3.454,-0.724 9.063,-4.161 1.271,-0.787 3.068,-1.865 3.839,-2.251 1.208,-0.604 -0.62,-2.208 -1.104,-1.973 -1.538,0.749 -2.663,1.136 -3.251,1.328 -0.412,0.136 -1.093,0.469 -2.729,0.776 -2.484,0.479 -4.036,0.391 -6.058,1.027 -0.937,0.29 -1.828,-0.084 -2.598,0.676 -0.782,0.756 -0.5,1.99 -0.5,1.99 z"
     id="path162" />
  <path
     style="fill:#ffffff;fill-opacity:1;fill-rule:nonzero;stroke:none"
     d="m 116.4278,76.068 c 0.192,-0.156 1.135,0.5 1.463,0.088 0.328,-0.406 -0.14,-1.042 0.328,-2.974 l 0.01,-0.021 c 0.386,-1.396 0.167,-2.771 -0.744,-3.635 -1.51,-1.433 -4.302,-0.938 -6.245,1.11 -1.953,2.046 -2.312,4.864 -0.807,6.29 1.432,1.382 4.067,0.98 5.995,-0.858"
     id="path163" />
  <path
     style="fill:none;stroke:#231f20;stroke-width:0.565977;stroke-linecap:butt;stroke-linejoin:miter;stroke-miterlimit:4;stroke-dasharray:none;stroke-opacity:1"
     d="m 116.4278,76.068 c 0.192,-0.156 1.135,0.5 1.463,0.088 0.328,-0.406 -0.14,-1.042 0.328,-2.974 l 0.01,-0.021 c 0.386,-1.396 0.167,-2.771 -0.744,-3.635 -1.51,-1.433 -4.302,-0.938 -6.245,1.11 -1.953,2.046 -2.312,4.864 -0.807,6.29 1.432,1.382 4.067,0.98 5.995,-0.858 z"
     id="path164" />
  <path
     style="fill:#ffffff;fill-opacity:1;fill-rule:nonzero;stroke:#231f20;stroke-width:0.565977;stroke-linecap:round;stroke-linejoin:round;stroke-miterlimit:4;stroke-dasharray:none;stroke-opacity:1"
     d="m 118.2188,88.046 c -1.162,-0.812 -3.026,0.271 -3.359,0.298 -5,0.396 -5.349,0.546 -9.13,1.114 -5.465,0.812 -9.083,2.208 -9.542,5.526 -0.303,2.256 0.495,3.688 1.64,4.338 1.272,0.71 4.448,0.819 6.079,-1.572 l 1.562,-0.693 c 1.115,-0.333 1.662,-0.505 2.224,-0.625 0.984,-0.208 2.016,-0.495 3.906,-1.01 3.349,-0.917 6.589,-2.98 6.589,-2.98 0.297,-0.093 0.511,-0.281 0.656,-0.505"
     id="path165" />
  <path
     style="fill:#0098c9;fill-opacity:1;fill-rule:nonzero;stroke:#231f20;stroke-width:0.565977;stroke-linecap:butt;stroke-linejoin:miter;stroke-miterlimit:4;stroke-dasharray:none;stroke-opacity:1"
     d="m 101.4798,89.713 c -3.454,1.475 -5.526,3.271 -5.437,5.912 0.066,2.271 1.093,3.552 2.333,3.995 1.375,0.494 4.525,0.078 5.728,-2.552 z"
     id="path166" />
  <path
     style="fill:#231f20;fill-opacity:1;fill-rule:nonzero;stroke:none"
     d="m 124.1768,92.713 c -0.64,-0.015 -2.077,-1.333 -3.588,-1.88 -1.021,-0.369 -2.994,-2.281 -4.042,-2.573 -0.952,-0.271 -1.37,-0.484 -1.244,-1.624 0.068,-0.683 0.645,-1.943 1.15,-1.912 1.194,0.068 2.042,0.484 2.88,1.15 0.954,0.756 3.355,3.032 3.762,3.491 1,1.145 1.724,1.28 2.02,1.561 0.552,0.522 0.489,0.86 0.224,1.292 -0.495,0.823 -1.162,0.495 -1.162,0.495"
     id="path167" />
  <path
     style="fill:none;stroke:#231f20;stroke-width:0.565977;stroke-linecap:butt;stroke-linejoin:miter;stroke-miterlimit:4;stroke-dasharray:none;stroke-opacity:1"
     d="m 124.1768,92.713 c -0.64,-0.015 -2.077,-1.333 -3.588,-1.88 -1.021,-0.369 -2.994,-2.281 -4.042,-2.573 -0.952,-0.271 -1.37,-0.484 -1.244,-1.624 0.068,-0.683 0.645,-1.943 1.15,-1.912 1.194,0.068 2.042,0.484 2.88,1.15 0.954,0.756 3.355,3.032 3.762,3.491 1,1.145 1.724,1.28 2.02,1.561 0.552,0.522 0.489,0.86 0.224,1.292 -0.495,0.823 -1.162,0.495 -1.162,0.495 z"
     id="path168" />
  <path
     style="fill:#231f20;fill-opacity:1;fill-rule:nonzero;stroke:none"
     d="m 116.6988,87.604 c -0.844,0.984 -2.12,-0.604 -2.522,-0.968 -0.401,-0.371 -1.656,-1.282 -2.729,-1.866 -1.077,-0.588 -2.167,-1.781 -4.208,-2.901 -1.073,-0.588 -1.745,-1.843 -0.817,-3.359 0.905,-1.5 2.093,-1.552 3.286,-0.645 1.187,0.905 1.922,2.26 3.058,3.26 1.129,1 2.385,1.911 3.394,2.577 1.158,0.762 1.443,1.568 1.355,2.038 -0.208,1.177 -0.817,1.864 -0.817,1.864"
     id="path169" />
  <path
     style="fill:none;stroke:#231f20;stroke-width:0.565977;stroke-linecap:butt;stroke-linejoin:miter;stroke-miterlimit:4;stroke-dasharray:none;stroke-opacity:1"
     d="m 116.6988,87.604 c -0.844,0.984 -2.12,-0.604 -2.522,-0.968 -0.401,-0.371 -1.656,-1.282 -2.729,-1.866 -1.077,-0.588 -2.167,-1.781 -4.208,-2.901 -1.073,-0.588 -1.745,-1.843 -0.817,-3.359 0.905,-1.5 2.093,-1.552 3.286,-0.645 1.187,0.905 1.922,2.26 3.058,3.26 1.129,1 2.385,1.911 3.394,2.577 1.158,0.762 1.443,1.568 1.355,2.038 -0.208,1.177 -0.817,1.864 -0.817,1.864 z"
     id="path170" />
  <path
     style="fill:#ffffff;fill-opacity:1;fill-rule:nonzero;stroke:none"
     d="m 125.4008,94.516 c 0.803,0.634 1.975,0.494 2.61,-0.308 0.636,-0.807 0.5,-1.979 -0.307,-2.615 -0.808,-0.635 -1.98,-0.495 -2.615,0.313 -0.636,0.807 -0.494,1.974 0.312,2.61"
     id="path171" />
  <path
     style="fill:none;stroke:#231f20;stroke-width:1.33171;stroke-linecap:butt;stroke-linejoin:miter;stroke-miterlimit:4;stroke-dasharray:none;stroke-opacity:1"
     d="m 125.4008,94.516 c 0.803,0.634 1.975,0.494 2.61,-0.308 0.636,-0.807 0.5,-1.979 -0.307,-2.615 -0.808,-0.635 -1.98,-0.495 -2.615,0.313 -0.636,0.807 -0.494,1.974 0.312,2.61 z"
     id="path172" />
  <path
     style="fill:#231f20;fill-opacity:1;fill-rule:nonzero;stroke:none"
     d="m 135.0158,86.084 c -0.469,1.27 -1.459,1.281 -2.255,0.618 -0.245,-0.192 -0.657,-0.114 -0.865,-0.322 -0.505,-0.495 -0.463,-2.239 0.989,-2.578 0.104,-0.021 0.814,-0.442 1.386,-0.666 1.13,-0.448 3.6,-0.792 5.745,0.853 1.011,0.776 0.36,1.235 -0.14,1.043 -1.605,-0.606 -1.865,-0.35 -2.344,-0.355 -1.62,-0.027 -2.516,1.407 -2.516,1.407"
     id="path173" />
  <path
     style="fill:none;stroke:#231f20;stroke-width:0.332927;stroke-linecap:butt;stroke-linejoin:miter;stroke-miterlimit:4;stroke-dasharray:none;stroke-opacity:1"
     d="m 135.0158,86.084 c -0.469,1.27 -1.459,1.281 -2.255,0.618 -0.245,-0.192 -0.657,-0.114 -0.865,-0.322 -0.505,-0.495 -0.463,-2.239 0.989,-2.578 0.104,-0.021 0.814,-0.442 1.386,-0.666 1.13,-0.448 3.6,-0.792 5.745,0.853 1.011,0.776 0.36,1.235 -0.14,1.043 -1.605,-0.606 -1.865,-0.35 -2.344,-0.355 -1.62,-0.027 -2.516,1.407 -2.516,1.407 z"
     id="path174" />
  <path
     style="fill:#0098c9;fill-opacity:1;fill-rule:nonzero;stroke:none"
     d="m 182.5838,111.635 c 2.926,-1.942 3.62,-2.625 4.51,-3.344 4.51,-3.609 4.058,-4.822 2.635,-6.75 -2.005,-2.739 -3.364,-4.047 -8.063,0.152 -3.557,3.181 -6.661,5.041 -6.661,5.041 -1.806,0.489 -4.62,2.713 -4.858,3.593 -0.407,1.484 -0.282,1.214 0.02,2.626 0.562,2.614 1.713,2.948 2.901,2.926 1.188,-0.02 2.156,-0.39 4.677,-1.64 1.954,-0.969 4.839,-2.604 4.839,-2.604"
     id="path175" />
  <path
     style="fill:none;stroke:#231f20;stroke-width:0.565977;stroke-linecap:butt;stroke-linejoin:miter;stroke-miterlimit:4;stroke-dasharray:none;stroke-opacity:1"
     d="m 182.5838,111.635 c 2.926,-1.942 3.62,-2.625 4.51,-3.344 4.51,-3.609 4.058,-4.822 2.635,-6.75 -2.005,-2.739 -3.364,-4.047 -8.063,0.152 -3.557,3.181 -6.661,5.041 -6.661,5.041 -1.806,0.489 -4.62,2.713 -4.858,3.593 -0.407,1.484 -0.282,1.214 0.02,2.626 0.562,2.614 1.713,2.948 2.901,2.926 1.188,-0.02 2.156,-0.39 4.677,-1.64 1.954,-0.969 4.839,-2.604 4.839,-2.604 z"
     id="path176" />
  <path
     style="fill:#ffffff;fill-opacity:1;fill-rule:nonzero;stroke:none"
     d="m 169.7808,106.15 c -0.229,-2.255 -0.577,-2.656 -1.536,-2.624 -0.646,0.02 -1.24,-0.177 -1.625,-0.183 -1.301,-0.021 -3.489,0.49 -9.323,3.542 -1.317,0.693 -3.182,1.65 -3.978,1.98 -1.246,0.525 0.468,2.249 0.968,2.052 1.584,-0.647 2.729,-0.959 3.333,-1.11 0.417,-0.109 1.12,-0.396 2.771,-0.594 2.516,-0.302 4.057,-0.115 6.114,-0.61 0.959,-0.224 1.823,0.208 2.642,-0.5 0.828,-0.697 0.634,-1.953 0.634,-1.953"
     id="path177" />
  <path
     style="fill:none;stroke:#231f20;stroke-width:0.565977;stroke-linecap:butt;stroke-linejoin:miter;stroke-miterlimit:4;stroke-dasharray:none;stroke-opacity:1"
     d="m 169.7808,106.15 c -0.229,-2.255 -0.577,-2.656 -1.536,-2.624 -0.646,0.02 -1.24,-0.177 -1.625,-0.183 -1.301,-0.021 -3.489,0.49 -9.323,3.542 -1.317,0.693 -3.182,1.65 -3.978,1.98 -1.246,0.525 0.468,2.249 0.968,2.052 1.584,-0.647 2.729,-0.959 3.333,-1.11 0.417,-0.109 1.12,-0.396 2.771,-0.594 2.516,-0.302 4.057,-0.115 6.114,-0.61 0.959,-0.224 1.823,0.208 2.642,-0.5 0.828,-0.697 0.634,-1.953 0.634,-1.953 z"
     id="path178" />
  <path
     style="fill:#ffffff;fill-opacity:1;fill-rule:nonzero;stroke:none"
     d="m 163.7868,112.541 c -0.24,0.057 -0.812,-0.932 -1.287,-0.703 -0.468,0.229 -0.312,1 -1.563,2.552 l -0.014,0.011 c -0.948,1.104 -1.328,2.437 -0.871,3.609 0.751,1.937 3.491,2.677 6.12,1.656 2.636,-1.021 4.161,-3.421 3.407,-5.355 -0.714,-1.853 -3.266,-2.613 -5.792,-1.77"
     id="path179" />
  <path
     style="fill:none;stroke:#231f20;stroke-width:0.565977;stroke-linecap:butt;stroke-linejoin:miter;stroke-miterlimit:4;stroke-dasharray:none;stroke-opacity:1"
     d="m 163.7868,112.541 c -0.24,0.057 -0.812,-0.932 -1.287,-0.703 -0.468,0.229 -0.312,1 -1.563,2.552 l -0.014,0.011 c -0.948,1.104 -1.328,2.437 -0.871,3.609 0.751,1.937 3.491,2.677 6.12,1.656 2.636,-1.021 4.161,-3.421 3.407,-5.355 -0.714,-1.853 -3.266,-2.613 -5.792,-1.77 z"
     id="path180" />
  <path
     style="fill:#ffffff;fill-opacity:1;fill-rule:nonzero;stroke:#231f20;stroke-width:0.565977;stroke-linecap:round;stroke-linejoin:round;stroke-miterlimit:4;stroke-dasharray:none;stroke-opacity:1"
     d="m 168.1088,108.021 c 1.11,0.89 3.038,-0.063 3.376,-0.068 5.015,-0.052 5.37,-0.183 9.181,-0.49 5.511,-0.442 9.214,-1.589 9.896,-4.87 0.459,-2.228 -0.244,-3.708 -1.338,-4.437 -1.224,-0.796 -4.386,-1.12 -6.172,1.156 l -1.61,0.589 c -1.129,0.255 -1.691,0.385 -2.259,0.468 -0.995,0.141 -2.042,0.36 -3.964,0.745 -3.406,0.693 -6.782,2.527 -6.782,2.527 -0.301,0.072 -0.525,0.244 -0.686,0.457"
     id="path181" />
  <path
     style="fill:#0098c9;fill-opacity:1;fill-rule:nonzero;stroke:none"
     d="m 188.6928,97.817 c -1.333,-0.583 -4.511,-0.38 -5.891,2.161 l 2.126,7.521 c 3.546,-1.24 5.733,-2.89 5.822,-5.536 0.088,-2.27 -0.849,-3.614 -2.057,-4.146"
     id="path182" />
  <path
     style="fill:none;stroke:#231f20;stroke-width:0.565977;stroke-linecap:butt;stroke-linejoin:miter;stroke-miterlimit:4;stroke-dasharray:none;stroke-opacity:1"
     d="m 188.6928,97.817 c -1.333,-0.583 -4.511,-0.38 -5.891,2.161 l 2.126,7.521 c 3.546,-1.24 5.733,-2.89 5.822,-5.536 0.088,-2.27 -0.849,-3.614 -2.057,-4.146 z"
     id="path183" />
  <path
     style="fill:#231f20;fill-opacity:1;fill-rule:nonzero;stroke:none"
     d="m 163.8548,94.182 c 0.578,0.287 1.312,2.088 2.448,3.224 0.765,0.771 1.74,3.344 2.562,4.047 0.75,0.65 1.031,1.021 0.438,2.005 -0.355,0.588 -1.412,1.484 -1.86,1.24 -1.047,-0.568 -1.635,-1.313 -2.115,-2.267 -0.541,-1.088 -1.744,-4.171 -1.916,-4.759 -0.417,-1.47 -1.021,-1.891 -1.161,-2.271 -0.282,-0.713 -0.079,-0.989 0.344,-1.271 0.796,-0.532 1.26,0.052 1.26,0.052"
     id="path184" />
  <path
     style="fill:none;stroke:#231f20;stroke-width:0.565977;stroke-linecap:butt;stroke-linejoin:miter;stroke-miterlimit:4;stroke-dasharray:none;stroke-opacity:1"
     d="m 163.8548,94.182 c 0.578,0.287 1.312,2.088 2.448,3.224 0.765,0.771 1.74,3.344 2.562,4.047 0.75,0.65 1.031,1.021 0.438,2.005 -0.355,0.588 -1.412,1.484 -1.86,1.24 -1.047,-0.568 -1.635,-1.313 -2.115,-2.267 -0.541,-1.088 -1.744,-4.171 -1.916,-4.759 -0.417,-1.47 -1.021,-1.891 -1.161,-2.271 -0.282,-0.713 -0.079,-0.989 0.344,-1.271 0.796,-0.532 1.26,0.052 1.26,0.052 z"
     id="path185" />
  <path
     style="fill:#231f20;fill-opacity:1;fill-rule:nonzero;stroke:none"
     d="m 168.4528,101.989 c 1.178,-0.536 1.656,1.442 1.866,1.948 0.208,0.505 0.957,1.865 1.681,2.849 0.719,0.989 1.199,2.536 2.568,4.416 0.719,0.985 0.797,2.407 -0.688,3.385 -1.457,0.97 -2.557,0.516 -3.244,-0.812 -0.699,-1.328 -0.781,-2.864 -1.38,-4.254 -0.604,-1.386 -1.349,-2.74 -1.98,-3.776 -0.724,-1.178 -0.64,-2.032 -0.359,-2.423 0.687,-0.973 1.536,-1.333 1.536,-1.333"
     id="path186" />
  <path
     style="fill:none;stroke:#231f20;stroke-width:0.565977;stroke-linecap:butt;stroke-linejoin:miter;stroke-miterlimit:4;stroke-dasharray:none;stroke-opacity:1"
     d="m 168.4528,101.989 c 1.178,-0.536 1.656,1.442 1.866,1.948 0.208,0.505 0.957,1.865 1.681,2.849 0.719,0.989 1.199,2.536 2.568,4.416 0.719,0.985 0.797,2.407 -0.688,3.385 -1.457,0.97 -2.557,0.516 -3.244,-0.812 -0.699,-1.328 -0.781,-2.864 -1.38,-4.254 -0.604,-1.386 -1.349,-2.74 -1.98,-3.776 -0.724,-1.178 -0.64,-2.032 -0.359,-2.423 0.687,-0.973 1.536,-1.333 1.536,-1.333 z"
     id="path187" />
  <path
     style="fill:#ffffff;fill-opacity:1;fill-rule:nonzero;stroke:none"
     d="m 163.5158,92.032 c -0.459,-0.923 -1.573,-1.292 -2.495,-0.834 -0.917,0.458 -1.292,1.578 -0.833,2.495 0.464,0.916 1.579,1.291 2.5,0.828 0.916,-0.459 1.292,-1.579 0.828,-2.489"
     id="path188" />
  <path
     style="fill:none;stroke:#231f20;stroke-width:1.33171;stroke-linecap:butt;stroke-linejoin:miter;stroke-miterlimit:4;stroke-dasharray:none;stroke-opacity:1"
     d="m 163.5158,92.032 c -0.459,-0.923 -1.573,-1.292 -2.495,-0.834 -0.917,0.458 -1.292,1.578 -0.833,2.495 0.464,0.916 1.579,1.291 2.5,0.828 0.916,-0.459 1.292,-1.579 0.828,-2.489 z"
     id="path189" />
  <path
     style="fill:#231f20;fill-opacity:1;fill-rule:nonzero;stroke:none"
     d="m 151.2238,108.843 c 0.547,-1.234 1.543,-1.177 2.292,-0.464 0.224,0.208 0.64,0.162 0.839,0.38 0.468,0.532 0.312,2.267 -1.162,2.506 -0.104,0.016 -0.844,0.385 -1.426,0.568 -1.163,0.374 -3.647,0.546 -5.678,-1.235 -0.953,-0.843 -0.27,-1.255 0.214,-1.031 1.562,0.708 1.833,0.468 2.312,0.511 1.614,0.135 2.609,-1.235 2.609,-1.235"
     id="path190" />
  <path
     style="fill:none;stroke:#231f20;stroke-width:0.332927;stroke-linecap:butt;stroke-linejoin:miter;stroke-miterlimit:4;stroke-dasharray:none;stroke-opacity:1"
     d="m 151.2238,108.843 c 0.547,-1.234 1.543,-1.177 2.292,-0.464 0.224,0.208 0.64,0.162 0.839,0.38 0.468,0.532 0.312,2.267 -1.162,2.506 -0.104,0.016 -0.844,0.385 -1.426,0.568 -1.163,0.374 -3.647,0.546 -5.678,-1.235 -0.953,-0.843 -0.27,-1.255 0.214,-1.031 1.562,0.708 1.833,0.468 2.312,0.511 1.614,0.135 2.609,-1.235 2.609,-1.235 z"
     id="path191" />
  <path
     style="fill:none;stroke:#231f20;stroke-width:0.399514;stroke-linecap:butt;stroke-linejoin:miter;stroke-miterlimit:4;stroke-dasharray:none;stroke-opacity:1"
     d="m 148.6668,127.15 c 21.057,16.073 48.818,-4.145 52.833,-10.197"
     id="path192" />
  <path
     style="fill:#231f20;fill-opacity:1;fill-rule:nonzero;stroke:none"
     d="m 202.1658,115.947 c -0.14,0.594 -0.229,1.375 -0.15,1.954 l -0.604,-0.812 -0.979,-0.24 c 0.556,-0.156 1.244,-0.542 1.733,-0.902"
     id="path193" />
  <path
     style="fill:#0098c9;fill-opacity:1;fill-rule:nonzero;stroke:none"
     d="m 68.4946,63.598 c -0.5626,-3.077 -0.348,-3.801 -0.1402,-4.702 1.276,-5.631 -1.5103,-6.162 -4.2078,-5.136 -3.1719,1.198 -4.3385,1.562 -2.6307,7.625 0.4839,1.688 1.464,8.385 1.464,8.385 0.0308,2.443 1.359,4.818 2.6866,5.407 1.4067,0.615 0.8964,0.271 2.2973,0.609 1.3442,0.323 3.4324,-0.317 3.9161,-1.448 0.4745,-1.093 -0.4947,-2.442 -1.6561,-4.573 -0.9052,-1.681 -1.7292,-6.167 -1.7292,-6.167"
     id="path194" />
  <path
     style="fill:none;stroke:#231f20;stroke-width:0.565977;stroke-linecap:butt;stroke-linejoin:miter;stroke-miterlimit:4;stroke-dasharray:none;stroke-opacity:1"
     d="m 68.4946,63.598 c -0.5626,-3.077 -0.348,-3.801 -0.1402,-4.702 1.276,-5.631 -1.5103,-6.162 -4.2078,-5.136 -3.1719,1.198 -4.3385,1.562 -2.6307,7.625 0.4839,1.688 1.464,8.385 1.464,8.385 0.0308,2.443 1.359,4.818 2.6866,5.407 1.4067,0.615 0.8964,0.271 2.2973,0.609 1.3442,0.323 3.4324,-0.317 3.9161,-1.448 0.4745,-1.093 -0.4947,-2.442 -1.6561,-4.573 -0.9052,-1.681 -1.7292,-6.167 -1.7292,-6.167 z"
     id="path195" />
  <path
     style="fill:#ffffff;fill-opacity:1;fill-rule:nonzero;stroke:none"
     d="m 73.9424,83.125 c 0.224,0.109 0.0052,1.229 0.5052,1.369 0.5058,0.142 0.9016,-0.541 2.8604,-0.89 h 0.0251 c 1.4375,-0.203 2.5989,-0.959 3.0327,-2.14 0.707,-1.954 -0.8712,-4.314 -3.5218,-5.282 -2.6562,-0.964 -5.3802,-0.161 -6.0932,1.792 -0.6828,1.864 0.7386,4.115 3.1916,5.151"
     id="path196" />
  <path
     style="fill:none;stroke:#231f20;stroke-width:0.565977;stroke-linecap:butt;stroke-linejoin:miter;stroke-miterlimit:4;stroke-dasharray:none;stroke-opacity:1"
     d="m 73.9424,83.125 c 0.224,0.109 0.0052,1.229 0.5052,1.369 0.5058,0.142 0.9016,-0.541 2.8604,-0.89 h 0.0251 c 1.4375,-0.203 2.5989,-0.959 3.0327,-2.14 0.707,-1.954 -0.8712,-4.314 -3.5218,-5.282 -2.6562,-0.964 -5.3802,-0.161 -6.0932,1.792 -0.6828,1.864 0.7386,4.115 3.1916,5.151 z"
     id="path197" />
  <path
     style="fill:#231f20;fill-opacity:1;fill-rule:nonzero;stroke:none"
     d="m 64.0159,92.724 c -0.265,-0.588 0.312,-2.448 0.1615,-4.047 -0.1093,-1.084 0.7703,-3.688 0.5891,-4.756 -0.1678,-0.973 -0.1522,-1.443 0.9374,-1.823 0.6402,-0.224 2.0256,-0.254 2.2188,0.224 0.4479,1.104 0.4317,2.052 0.1916,3.095 -0.2755,1.181 -1.2957,4.333 -1.541,4.891 -0.6095,1.394 -0.4172,2.109 -0.547,2.494 -0.2344,0.73 -0.5677,0.812 -1.0677,0.766 -0.9531,-0.099 -0.9427,-0.844 -0.9427,-0.844"
     id="path198" />
  <path
     style="fill:none;stroke:#231f20;stroke-width:0.565977;stroke-linecap:butt;stroke-linejoin:miter;stroke-miterlimit:4;stroke-dasharray:none;stroke-opacity:1"
     d="m 64.0159,92.724 c -0.265,-0.588 0.312,-2.448 0.1615,-4.047 -0.1093,-1.084 0.7703,-3.688 0.5891,-4.756 -0.1678,-0.973 -0.1522,-1.443 0.9374,-1.823 0.6402,-0.224 2.0256,-0.254 2.2188,0.224 0.4479,1.104 0.4317,2.052 0.1916,3.095 -0.2755,1.181 -1.2957,4.333 -1.541,4.891 -0.6095,1.394 -0.4172,2.109 -0.547,2.494 -0.2344,0.73 -0.5677,0.812 -1.0677,0.766 -0.9531,-0.099 -0.9427,-0.844 -0.9427,-0.844 z"
     id="path199" />
  <path
     style="fill:#231f20;fill-opacity:1;fill-rule:nonzero;stroke:none"
     d="m 65.4227,83.776 c -1.2505,-0.344 -0.3598,-2.178 -0.2041,-2.692 0.1572,-0.522 0.4427,-2.048 0.5109,-3.267 0.0728,-1.224 0.688,-2.724 0.8224,-5.047 0.0734,-1.218 0.9119,-2.358 2.6776,-2.182 1.7504,0.182 2.3025,1.229 1.9943,2.693 -0.3063,1.469 -1.2183,2.713 -1.6344,4.161 -0.4172,1.454 -0.7042,2.975 -0.8708,4.178 -0.1923,1.369 -0.8011,1.973 -1.26,2.098 -1.1505,0.314 -2.0359,0.058 -2.0359,0.058"
     id="path200" />
  <path
     style="fill:none;stroke:#231f20;stroke-width:0.565977;stroke-linecap:butt;stroke-linejoin:miter;stroke-miterlimit:4;stroke-dasharray:none;stroke-opacity:1"
     d="m 65.4227,83.776 c -1.2505,-0.344 -0.3598,-2.178 -0.2041,-2.692 0.1572,-0.522 0.4427,-2.048 0.5109,-3.267 0.0728,-1.224 0.688,-2.724 0.8224,-5.047 0.0734,-1.218 0.9119,-2.358 2.6776,-2.182 1.7504,0.182 2.3025,1.229 1.9943,2.693 -0.3063,1.469 -1.2183,2.713 -1.6344,4.161 -0.4172,1.454 -0.7042,2.975 -0.8708,4.178 -0.1923,1.369 -0.8011,1.973 -1.26,2.098 -1.1505,0.314 -2.0359,0.058 -2.0359,0.058 z"
     id="path201" />
  <path
     style="fill:#ffffff;fill-opacity:1;fill-rule:nonzero;stroke:none"
     d="m 65.4425,94.865 c 0.4854,-0.907 0.1469,-2.032 -0.7547,-2.521 -0.9068,-0.484 -2.0359,-0.146 -2.5213,0.76 -0.4839,0.901 -0.1454,2.032 0.7614,2.521 0.9,0.479 2.0307,0.145 2.5146,-0.76"
     id="path202" />
  <path
     style="fill:none;stroke:#231f20;stroke-width:1.33171;stroke-linecap:butt;stroke-linejoin:miter;stroke-miterlimit:4;stroke-dasharray:none;stroke-opacity:1"
     d="m 65.4425,94.865 c 0.4854,-0.907 0.1469,-2.032 -0.7547,-2.521 -0.9068,-0.484 -2.0359,-0.146 -2.5213,0.76 -0.4839,0.901 -0.1454,2.032 0.7614,2.521 0.9,0.479 2.0307,0.145 2.5146,-0.76 z"
     id="path203" />
  <path
     style="fill:#ffffff;fill-opacity:1;fill-rule:nonzero;stroke:none"
     d="m 46.8389,59.896 c -0.2136,-2.251 -0.5631,-2.662 -1.5203,-2.636 -0.6412,0.016 -1.2292,-0.187 -1.6198,-0.192 -1.2974,-0.032 -3.4948,0.464 -9.3495,3.468 -1.3229,0.688 -3.1932,1.636 -3.9896,1.958 -1.2505,0.522 0.4536,2.256 0.9484,2.052 1.5934,-0.629 2.7386,-0.932 3.3439,-1.082 0.4161,-0.104 1.1187,-0.38 2.7812,-0.574 2.5093,-0.286 4.0521,-0.082 6.1134,-0.562 0.959,-0.224 1.8188,0.218 2.6464,-0.484 0.8334,-0.694 0.6459,-1.948 0.6459,-1.948"
     id="path204" />
  <path
     style="fill:none;stroke:#231f20;stroke-width:0.565977;stroke-linecap:butt;stroke-linejoin:miter;stroke-miterlimit:4;stroke-dasharray:none;stroke-opacity:1"
     d="m 46.8389,59.896 c -0.2136,-2.251 -0.5631,-2.662 -1.5203,-2.636 -0.6412,0.016 -1.2292,-0.187 -1.6198,-0.192 -1.2974,-0.032 -3.4948,0.464 -9.3495,3.468 -1.3229,0.688 -3.1932,1.636 -3.9896,1.958 -1.2505,0.522 0.4536,2.256 0.9484,2.052 1.5934,-0.629 2.7386,-0.932 3.3439,-1.082 0.4161,-0.104 1.1187,-0.38 2.7812,-0.574 2.5093,-0.286 4.0521,-0.082 6.1134,-0.562 0.959,-0.224 1.8188,0.218 2.6464,-0.484 0.8334,-0.694 0.6459,-1.948 0.6459,-1.948 z"
     id="path205" />
  <path
     style="fill:#ffffff;fill-opacity:1;fill-rule:nonzero;stroke:#231f20;stroke-width:0.565977;stroke-linecap:round;stroke-linejoin:round;stroke-miterlimit:4;stroke-dasharray:none;stroke-opacity:1"
     d="m 45.1561,61.75 c 1.1,0.906 3.0369,-0.037 3.376,-0.037 5.0145,-0.015 5.3745,-0.151 9.1812,-0.427 5.5162,-0.406 9.2291,-1.526 9.9333,-4.802 0.4734,-2.224 -0.2187,-3.708 -1.3135,-4.443 -1.2188,-0.807 -4.3745,-1.151 -6.177,1.104 l -1.6095,0.579 c -1.14,0.25 -1.6973,0.38 -2.2656,0.458 -1,0.13 -2.0463,0.344 -3.9729,0.719 -3.4067,0.661 -6.7921,2.479 -6.7921,2.479 -0.3027,0.068 -0.5266,0.24 -0.6932,0.453"
     id="path206" />
  <path
     style="fill:#231f20;fill-opacity:1;fill-rule:nonzero;stroke:none"
     d="m 28.2613,62.458 c 0.5574,-1.229 1.5468,-1.166 2.2959,-0.448 0.2296,0.214 0.6468,0.167 0.8391,0.391 0.4634,0.531 0.2968,2.265 -1.183,2.495 -0.1041,0.01 -0.8426,0.374 -1.4322,0.557 -1.161,0.364 -3.6505,0.525 -5.6609,-1.276 -0.9479,-0.855 -0.2708,-1.26 0.2188,-1.032 1.5516,0.724 1.8276,0.485 2.3077,0.527 1.6146,0.15 2.6146,-1.214 2.6146,-1.214"
     id="path207" />
  <path
     style="fill:none;stroke:#231f20;stroke-width:0.332927;stroke-linecap:butt;stroke-linejoin:miter;stroke-miterlimit:4;stroke-dasharray:none;stroke-opacity:1"
     d="m 28.2613,62.458 c 0.5574,-1.229 1.5468,-1.166 2.2959,-0.448 0.2296,0.214 0.6468,0.167 0.8391,0.391 0.4634,0.531 0.2968,2.265 -1.183,2.495 -0.1041,0.01 -0.8426,0.374 -1.4322,0.557 -1.161,0.364 -3.6505,0.525 -5.6609,-1.276 -0.9479,-0.855 -0.2708,-1.26 0.2188,-1.032 1.5516,0.724 1.8276,0.485 2.3077,0.527 1.6146,0.15 2.6146,-1.214 2.6146,-1.214 z"
     id="path208" />
  <path
     style="fill:#0098c9;fill-opacity:1;fill-rule:nonzero;stroke:none"
     d="m 65.9425,51.786 c -1.3282,-0.609 -4.5052,-0.469 -5.937,2.042 l 1.9744,7.562 c 3.572,-1.172 5.7907,-2.77 5.9376,-5.416 0.1291,-2.266 -0.7761,-3.63 -1.975,-4.188"
     id="path209" />
  <path
     style="fill:none;stroke:#231f20;stroke-width:0.565977;stroke-linecap:butt;stroke-linejoin:miter;stroke-miterlimit:4;stroke-dasharray:none;stroke-opacity:1"
     d="m 65.9425,51.786 c -1.3282,-0.609 -4.5052,-0.469 -5.937,2.042 l 1.9744,7.562 c 3.572,-1.172 5.7907,-2.77 5.9376,-5.416 0.1291,-2.266 -0.7761,-3.63 -1.975,-4.188 z"
     id="path210" />
  <path
     style="fill:#231f20;fill-opacity:1;fill-rule:nonzero;stroke:none"
     d="m 272.0998,91.756 c -0.611,-0.396 -3.663,-4.334 -4.084,-4.948 -0.38,-0.543 -1.307,-1.24 -0.735,-2.24 0.229,-0.418 0.855,-0.839 1.156,-0.943 0.251,-0.089 0.511,0.109 0.704,0.453 0.323,0.578 0.197,0.87 0.76,2.015 0,0 0.093,0.297 0.224,0.828 0.401,1.584 1.161,2.281 2.251,4.439 0.077,0.15 -0.022,0.342 -0.126,0.385 -0.166,0.063 -0.15,0.011 -0.15,0.011"
     id="path211" />
  <path
     style="fill:none;stroke:#231f20;stroke-width:0.565977;stroke-linecap:round;stroke-linejoin:round;stroke-miterlimit:4;stroke-dasharray:none;stroke-opacity:1"
     d="m 272.0998,91.756 c -0.611,-0.396 -3.663,-4.334 -4.084,-4.948 -0.38,-0.543 -1.307,-1.24 -0.735,-2.24 0.229,-0.418 0.855,-0.839 1.156,-0.943 0.251,-0.089 0.511,0.109 0.704,0.453 0.323,0.578 0.197,0.87 0.76,2.015 0,0 0.093,0.297 0.224,0.828 0.401,1.584 1.161,2.281 2.251,4.439 0.077,0.15 -0.022,0.342 -0.126,0.385 -0.166,0.063 -0.15,0.011 -0.15,0.011 z"
     id="path212" />
  <path
     style="fill:none;stroke:#231f20;stroke-width:1.33171;stroke-linecap:round;stroke-linejoin:round;stroke-miterlimit:4;stroke-dasharray:none;stroke-opacity:1"
     d="m 38.0467,95.136 v 24.942"
     id="path1834" />
</svg>
