<?xml version="1.0" encoding="UTF-8" standalone="no"?>
<!-- Created with Inkscape (http://www.inkscape.org/) -->

<svg
   version="1.1"
   id="svg1"
   width="360.46698"
   height="141.0027"
   viewBox="0 0 360.46697 141.0027"
   sodipodi:docname="cell.svg"
   xmlns:inkscape="http://www.inkscape.org/namespaces/inkscape"
   xmlns:sodipodi="http://sodipodi.sourceforge.net/DTD/sodipodi-0.dtd"
   xmlns="http://www.w3.org/2000/svg"
   xmlns:svg="http://www.w3.org/2000/svg">
  <sodipodi:namedview
     id="namedview1"
     pagecolor="#ffffff"
     bordercolor="#000000"
     borderopacity="0.25"
     inkscape:showpageshadow="2"
     inkscape:pageopacity="0.0"
     inkscape:pagecheckerboard="0"
     inkscape:deskcolor="#d1d1d1">
    <inkscape:page
       x="0"
       y="0"
       inkscape:label="1"
       id="page1"
       width="360.46698"
       height="141.0027"
       margin="0"
       bleed="0" />
  </sodipodi:namedview>
  <defs
     id="defs1" />
  <path
     style="fill:#ffffff;fill-opacity:1;fill-rule:nonzero;stroke:none"
     d="m 166.099,18.874 h 18.874 V 0 h -18.874 z"
     id="path681" />
  <path
     style="fill:#ffffff;fill-opacity:1;fill-rule:nonzero;stroke:none"
     d="M 0,18.874 H 18.875 V 0 H 0 Z"
     id="path682" />
  <path
     style="fill:#ffffff;fill-opacity:1;fill-rule:nonzero;stroke:none"
     d="m 343.541,18.874 h 16.926 V 0 h -16.926 z"
     id="path683" />
  <path
     style="fill:#231f20;fill-opacity:1;fill-rule:nonzero;stroke:none"
     d="m 163.359,43.312 c 1.318,0.313 1.442,1.297 0.885,2.172 -0.161,0.261 -0.036,0.657 -0.219,0.896 -0.432,0.557 -2.166,0.729 -2.676,-0.682 -0.037,-0.1 -0.532,-0.75 -0.829,-1.302 -0.572,-1.063 -1.213,-3.479 0.172,-5.798 0.647,-1.098 1.177,-0.509 1.052,0.022 -0.416,1.656 -0.129,1.885 -0.077,2.358 0.172,1.615 1.692,2.334 1.692,2.334"
     id="path684" />
  <path
     style="fill:none;stroke:#231f20;stroke-width:0.332927;stroke-linecap:butt;stroke-linejoin:miter;stroke-miterlimit:4;stroke-dasharray:none;stroke-opacity:1"
     d="m 163.359,43.312 c 1.318,0.313 1.442,1.297 0.885,2.172 -0.161,0.261 -0.036,0.657 -0.219,0.896 -0.432,0.557 -2.166,0.729 -2.676,-0.682 -0.037,-0.1 -0.532,-0.75 -0.829,-1.302 -0.572,-1.063 -1.213,-3.479 0.172,-5.798 0.647,-1.098 1.177,-0.509 1.052,0.022 -0.416,1.656 -0.129,1.885 -0.077,2.358 0.172,1.615 1.692,2.334 1.692,2.334 z"
     id="path685" />
  <path
     style="fill:#231f20;fill-opacity:1;fill-rule:nonzero;stroke:none"
     d="m 169.453,61.046 c 2.172,-0.645 2.511,-1.057 2.296,-1.994 -0.14,-0.626 -0.057,-1.25 -0.118,-1.63 -0.224,-1.281 -1.131,-3.338 -5.215,-8.501 -0.927,-1.165 -2.213,-2.823 -2.681,-3.547 -0.751,-1.124 -2.131,0.88 -1.839,1.328 0.932,1.443 1.453,2.511 1.713,3.074 0.183,0.39 0.588,1.032 1.094,2.62 0.765,2.406 0.86,3.964 1.734,5.896 0.402,0.89 0.131,1.822 0.979,2.494 0.844,0.683 2.037,0.26 2.037,0.26"
     id="path686" />
  <path
     style="fill:none;stroke:#231f20;stroke-width:0.565977;stroke-linecap:butt;stroke-linejoin:miter;stroke-miterlimit:4;stroke-dasharray:none;stroke-opacity:1"
     d="m 169.453,61.046 c 2.172,-0.645 2.511,-1.057 2.296,-1.994 -0.14,-0.626 -0.057,-1.25 -0.118,-1.63 -0.224,-1.281 -1.131,-3.338 -5.215,-8.501 -0.927,-1.165 -2.213,-2.823 -2.681,-3.547 -0.751,-1.124 -2.131,0.88 -1.839,1.328 0.932,1.443 1.453,2.511 1.713,3.074 0.183,0.39 0.588,1.032 1.094,2.62 0.765,2.406 0.86,3.964 1.734,5.896 0.402,0.89 0.131,1.822 0.979,2.494 0.844,0.683 2.037,0.26 2.037,0.26 z"
     id="path687" />
  <path
     style="fill:#0098c9;fill-opacity:1;fill-rule:nonzero;stroke:none"
     d="m 182.849,83.917 c -1.198,-2.901 -1.141,-3.652 -1.125,-4.573 0.077,-5.776 -2.76,-5.714 -5.183,-4.146 -2.854,1.834 -3.916,2.432 -0.978,8.004 0.822,1.548 3.177,7.896 3.177,7.896 0.541,2.386 2.337,4.428 3.765,4.724 1.5,0.314 0.927,0.079 2.37,0.115 1.385,0.037 3.292,-1.02 3.532,-2.235 0.233,-1.166 -1,-2.28 -2.579,-4.124 -1.24,-1.453 -2.979,-5.661 -2.979,-5.661"
     id="path688" />
  <path
     style="fill:none;stroke:#231f20;stroke-width:0.565977;stroke-linecap:butt;stroke-linejoin:miter;stroke-miterlimit:4;stroke-dasharray:none;stroke-opacity:1"
     d="m 182.849,83.917 c -1.198,-2.901 -1.141,-3.652 -1.125,-4.573 0.077,-5.776 -2.76,-5.714 -5.183,-4.146 -2.854,1.834 -3.916,2.432 -0.978,8.004 0.822,1.548 3.177,7.896 3.177,7.896 0.541,2.386 2.337,4.428 3.765,4.724 1.5,0.314 0.927,0.079 2.37,0.115 1.385,0.037 3.292,-1.02 3.532,-2.235 0.233,-1.166 -1,-2.28 -2.579,-4.124 -1.24,-1.453 -2.979,-5.661 -2.979,-5.661 z"
     id="path689" />
  <path
     style="fill:#ffffff;fill-opacity:1;fill-rule:nonzero;stroke:none"
     d="m 192.125,101.275 c 0.234,0.084 0.13,1.224 0.64,1.312 0.522,0.09 0.844,-0.629 2.755,-1.176 h 0.021 c 1.418,-0.349 2.495,-1.218 2.803,-2.437 0.509,-2.016 -1.297,-4.204 -4.037,-4.896 -2.739,-0.693 -5.37,0.38 -5.875,2.396 -0.495,1.922 1.151,4.02 3.693,4.801"
     id="path690" />
  <path
     style="fill:none;stroke:#231f20;stroke-width:0.565977;stroke-linecap:butt;stroke-linejoin:miter;stroke-miterlimit:4;stroke-dasharray:none;stroke-opacity:1"
     d="m 192.125,101.275 c 0.234,0.084 0.13,1.224 0.64,1.312 0.522,0.09 0.844,-0.629 2.755,-1.176 h 0.021 c 1.418,-0.349 2.495,-1.218 2.803,-2.437 0.509,-2.016 -1.297,-4.204 -4.037,-4.896 -2.739,-0.693 -5.37,0.38 -5.875,2.396 -0.495,1.922 1.151,4.02 3.693,4.801 z"
     id="path691" />
  <path
     style="fill:#231f20;fill-opacity:1;fill-rule:nonzero;stroke:none"
     d="m 169.312,58.578 c -3.927,0.802 -1.405,4.01 -1.312,4.479 0.984,4.917 1.177,5.245 2.183,8.932 1.462,5.328 3.28,8.756 6.629,8.819 2.271,0.041 3.599,-0.928 4.109,-2.142 0.558,-1.349 0.287,-4.516 -2.281,-5.849 l -0.875,-1.473 c -0.464,-1.063 -0.697,-1.588 -0.885,-2.131 -0.323,-0.948 -0.729,-1.948 -1.464,-3.76 -1.312,-3.219 -3.744,-6.188 -3.744,-6.188 -0.5,-1.14 -2.36,-0.687 -2.36,-0.687"
     id="path692" />
  <path
     style="fill:none;stroke:#231f20;stroke-width:0.565977;stroke-linecap:butt;stroke-linejoin:miter;stroke-miterlimit:4;stroke-dasharray:none;stroke-opacity:1"
     d="m 169.312,58.578 c -3.927,0.802 -1.405,4.01 -1.312,4.479 0.984,4.917 1.177,5.245 2.183,8.932 1.462,5.328 3.28,8.756 6.629,8.819 2.271,0.041 3.599,-0.928 4.109,-2.142 0.558,-1.349 0.287,-4.516 -2.281,-5.849 l -0.875,-1.473 c -0.464,-1.063 -0.697,-1.588 -0.885,-2.131 -0.323,-0.948 -0.729,-1.948 -1.464,-3.76 -1.312,-3.219 -3.744,-6.188 -3.744,-6.188 -0.5,-1.14 -2.36,-0.687 -2.36,-0.687 z"
     id="path693" />
  <path
     style="fill:#0098c9;fill-opacity:1;fill-rule:nonzero;stroke:none"
     d="m 177.943,72.698 -6.995,3.484 c 0.328,0.568 0.656,1.072 0.995,1.547 0.025,0.083 0.046,0.156 0.057,0.229 0.12,0.807 0.661,1.131 1.577,1.63 1.167,1.021 2.434,1.51 3.886,1.292 2.245,-0.339 3.396,-1.511 3.698,-2.791 0.318,-1.423 -0.469,-4.511 -3.218,-5.391"
     id="path694" />
  <path
     style="fill:none;stroke:#231f20;stroke-width:0.565977;stroke-linecap:butt;stroke-linejoin:miter;stroke-miterlimit:4;stroke-dasharray:none;stroke-opacity:1"
     d="m 177.943,72.698 -6.995,3.484 c 0.328,0.568 0.656,1.072 0.995,1.547 0.025,0.083 0.046,0.156 0.057,0.229 0.12,0.807 0.661,1.131 1.577,1.63 1.167,1.021 2.434,1.51 3.886,1.292 2.245,-0.339 3.396,-1.511 3.698,-2.791 0.318,-1.423 -0.469,-4.511 -3.218,-5.391 z"
     id="path695" />
  <path
     style="fill:#231f20;fill-opacity:1;fill-rule:nonzero;stroke:none"
     d="m 168.511,105.302 c 0.172,-0.625 1.79,-1.699 2.686,-3.037 0.604,-0.906 2.928,-2.369 3.464,-3.312 0.484,-0.86 0.792,-1.213 1.88,-0.823 0.636,0.235 1.73,1.088 1.574,1.583 -0.35,1.136 -0.959,1.86 -1.803,2.51 -0.963,0.751 -3.744,2.542 -4.287,2.823 -1.358,0.699 -1.656,1.371 -2,1.589 -0.64,0.411 -0.957,0.271 -1.312,-0.089 -0.677,-0.677 -0.202,-1.244 -0.202,-1.244"
     id="path696" />
  <path
     style="fill:none;stroke:#231f20;stroke-width:0.565977;stroke-linecap:butt;stroke-linejoin:miter;stroke-miterlimit:4;stroke-dasharray:none;stroke-opacity:1"
     d="m 168.511,105.302 c 0.172,-0.625 1.79,-1.699 2.686,-3.037 0.604,-0.906 2.928,-2.369 3.464,-3.312 0.484,-0.86 0.792,-1.213 1.88,-0.823 0.636,0.235 1.73,1.088 1.574,1.583 -0.35,1.136 -0.959,1.86 -1.803,2.51 -0.963,0.751 -3.744,2.542 -4.287,2.823 -1.358,0.699 -1.656,1.371 -2,1.589 -0.64,0.411 -0.957,0.271 -1.312,-0.089 -0.677,-0.677 -0.202,-1.244 -0.202,-1.244 z"
     id="path697" />
  <path
     style="fill:#231f20;fill-opacity:1;fill-rule:nonzero;stroke:none"
     d="m 175.26,99.254 c -0.749,-1.052 1.093,-1.91 1.541,-2.213 0.454,-0.301 1.647,-1.307 2.464,-2.208 0.828,-0.901 2.251,-1.677 3.823,-3.391 0.828,-0.901 2.204,-1.254 3.459,0.006 1.24,1.24 1.005,2.406 -0.156,3.344 -1.167,0.937 -2.656,1.328 -3.896,2.192 -1.246,0.86 -2.427,1.86 -3.318,2.688 -1.016,0.937 -1.865,1.021 -2.302,0.827 -1.088,-0.489 -1.615,-1.245 -1.615,-1.245"
     id="path698" />
  <path
     style="fill:none;stroke:#231f20;stroke-width:0.565977;stroke-linecap:butt;stroke-linejoin:miter;stroke-miterlimit:4;stroke-dasharray:none;stroke-opacity:1"
     d="m 175.26,99.254 c -0.749,-1.052 1.093,-1.91 1.541,-2.213 0.454,-0.301 1.647,-1.307 2.464,-2.208 0.828,-0.901 2.251,-1.677 3.823,-3.391 0.828,-0.901 2.204,-1.254 3.459,0.006 1.24,1.24 1.005,2.406 -0.156,3.344 -1.167,0.937 -2.656,1.328 -3.896,2.192 -1.246,0.86 -2.427,1.86 -3.318,2.688 -1.016,0.937 -1.865,1.021 -2.302,0.827 -1.088,-0.489 -1.615,-1.245 -1.615,-1.245 z"
     id="path699" />
  <path
     style="fill:#ffffff;fill-opacity:1;fill-rule:nonzero;stroke:none"
     d="m 168.271,107.865 c 0.948,-0.396 1.396,-1.486 1.005,-2.434 -0.396,-0.953 -1.484,-1.396 -2.432,-1.005 -0.948,0.391 -1.401,1.48 -1.005,2.433 0.396,0.948 1.478,1.395 2.432,1.006"
     id="path700" />
  <path
     style="fill:none;stroke:#231f20;stroke-width:1.33171;stroke-linecap:butt;stroke-linejoin:miter;stroke-miterlimit:4;stroke-dasharray:none;stroke-opacity:1"
     d="m 168.271,107.865 c 0.948,-0.396 1.396,-1.486 1.005,-2.434 -0.396,-0.953 -1.484,-1.396 -2.432,-1.005 -0.948,0.391 -1.401,1.48 -1.005,2.433 0.396,0.948 1.478,1.395 2.432,1.006 z"
     id="path701" />
  <path
     style="fill:#231f20;fill-opacity:1;fill-rule:nonzero;stroke:none"
     d="m 17.516,70.984 c 1.042,-0.864 1.9,-0.375 2.266,0.594 0.109,0.287 0.505,0.427 0.582,0.714 0.194,0.682 -0.713,2.172 -2.15,1.734 -0.099,-0.032 -0.916,-0.026 -1.531,-0.114 -1.199,-0.178 -3.511,-1.115 -4.543,-3.61 -0.489,-1.177 0.298,-1.25 0.647,-0.833 1.077,1.328 1.437,1.233 1.848,1.473 1.391,0.834 2.881,0.042 2.881,0.042"
     id="path702" />
  <path
     style="fill:none;stroke:#231f20;stroke-width:0.332927;stroke-linecap:butt;stroke-linejoin:miter;stroke-miterlimit:4;stroke-dasharray:none;stroke-opacity:1"
     d="m 17.516,70.984 c 1.042,-0.864 1.9,-0.375 2.266,0.594 0.109,0.287 0.505,0.427 0.582,0.714 0.194,0.682 -0.713,2.172 -2.15,1.734 -0.099,-0.032 -0.916,-0.026 -1.531,-0.114 -1.199,-0.178 -3.511,-1.115 -4.543,-3.61 -0.489,-1.177 0.298,-1.25 0.647,-0.833 1.077,1.328 1.437,1.233 1.848,1.473 1.391,0.834 2.881,0.042 2.881,0.042 z"
     id="path703" />
  <path
     style="fill:#231f20;fill-opacity:1;fill-rule:nonzero;stroke:none"
     d="m 35.364,76.734 c 0.782,-2.125 0.656,-2.641 -0.224,-3.032 -0.582,-0.265 -1.03,-0.708 -1.374,-0.88 -1.162,-0.588 -3.35,-1.098 -9.927,-0.921 -1.495,0.041 -3.589,0.083 -4.448,0.025 -1.355,-0.077 -0.573,2.23 -0.037,2.262 1.709,0.124 2.876,0.344 3.485,0.468 0.421,0.094 1.177,0.152 2.749,0.698 2.386,0.828 3.694,1.682 5.762,2.146 0.952,0.213 1.536,0.984 2.588,0.708 1.052,-0.266 1.426,-1.474 1.426,-1.474"
     id="path704" />
  <path
     style="fill:none;stroke:#231f20;stroke-width:0.565977;stroke-linecap:butt;stroke-linejoin:miter;stroke-miterlimit:4;stroke-dasharray:none;stroke-opacity:1"
     d="m 35.364,76.734 c 0.782,-2.125 0.656,-2.641 -0.224,-3.032 -0.582,-0.265 -1.03,-0.708 -1.374,-0.88 -1.162,-0.588 -3.35,-1.098 -9.927,-0.921 -1.495,0.041 -3.589,0.083 -4.448,0.025 -1.355,-0.077 -0.573,2.23 -0.037,2.262 1.709,0.124 2.876,0.344 3.485,0.468 0.421,0.094 1.177,0.152 2.749,0.698 2.386,0.828 3.694,1.682 5.762,2.146 0.952,0.213 1.536,0.984 2.588,0.708 1.052,-0.266 1.426,-1.474 1.426,-1.474 z"
     id="path705" />
  <path
     style="fill:#0098c9;fill-opacity:1;fill-rule:nonzero;stroke:none"
     d="m 61.698,79.713 c -3.036,-0.781 -3.604,-1.281 -4.334,-1.844 -4.577,-3.52 -6.229,-1.208 -6.421,1.667 -0.245,3.385 -0.401,4.594 5.817,5.584 1.735,0.265 8.23,2.177 8.23,2.177 2.234,1 4.942,0.787 6.036,-0.177 1.152,-1.016 0.62,-0.698 1.516,-1.834 0.854,-1.084 1.15,-3.245 0.322,-4.161 -0.79,-0.885 -2.426,-0.568 -4.844,-0.407 -1.91,0.12 -6.322,-1.005 -6.322,-1.005"
     id="path706" />
  <path
     style="fill:none;stroke:#231f20;stroke-width:0.565977;stroke-linecap:butt;stroke-linejoin:miter;stroke-miterlimit:4;stroke-dasharray:none;stroke-opacity:1"
     d="m 61.698,79.713 c -3.036,-0.781 -3.604,-1.281 -4.334,-1.844 -4.577,-3.52 -6.229,-1.208 -6.421,1.667 -0.245,3.385 -0.401,4.594 5.817,5.584 1.735,0.265 8.23,2.177 8.23,2.177 2.234,1 4.942,0.787 6.036,-0.177 1.152,-1.016 0.62,-0.698 1.516,-1.834 0.854,-1.084 1.15,-3.245 0.322,-4.161 -0.79,-0.885 -2.426,-0.568 -4.844,-0.407 -1.91,0.12 -6.322,-1.005 -6.322,-1.005 z"
     id="path707" />
  <path
     style="fill:#ffffff;fill-opacity:1;fill-rule:nonzero;stroke:none"
     d="m 80.224,85.141 c 0.23,-0.089 0.911,0.828 1.354,0.552 0.442,-0.281 0.209,-1.027 1.272,-2.709 l 0.014,-0.02 c 0.823,-1.199 1.047,-2.568 0.464,-3.683 -0.958,-1.839 -3.765,-2.271 -6.27,-0.964 -2.506,1.308 -3.751,3.86 -2.787,5.704 0.912,1.76 3.536,2.229 5.953,1.12"
     id="path708" />
  <path
     style="fill:none;stroke:#231f20;stroke-width:0.565977;stroke-linecap:butt;stroke-linejoin:miter;stroke-miterlimit:4;stroke-dasharray:none;stroke-opacity:1"
     d="m 80.224,85.141 c 0.23,-0.089 0.911,0.828 1.354,0.552 0.442,-0.281 0.209,-1.027 1.272,-2.709 l 0.014,-0.02 c 0.823,-1.199 1.047,-2.568 0.464,-3.683 -0.958,-1.839 -3.765,-2.271 -6.27,-0.964 -2.506,1.308 -3.751,3.86 -2.787,5.704 0.912,1.76 3.536,2.229 5.953,1.12 z"
     id="path709" />
  <path
     style="fill:#231f20;fill-opacity:1;fill-rule:nonzero;stroke:none"
     d="m 33.302,75.369 c -1.714,3.625 2.37,3.527 2.802,3.735 4.527,2.156 4.902,2.198 8.459,3.604 5.14,2.021 8.973,2.62 11.031,-0.026 1.39,-1.797 1.417,-3.442 0.745,-4.573 -0.745,-1.255 -3.443,-2.937 -6.047,-1.683 L 48.588,76.25 c -1.129,-0.272 -1.692,-0.396 -2.234,-0.573 -0.958,-0.308 -2,-0.579 -3.891,-1.079 -3.364,-0.874 -7.197,-0.702 -7.197,-0.702 -1.214,-0.292 -1.964,1.473 -1.964,1.473"
     id="path710" />
  <path
     style="fill:none;stroke:#231f20;stroke-width:0.565977;stroke-linecap:butt;stroke-linejoin:miter;stroke-miterlimit:4;stroke-dasharray:none;stroke-opacity:1"
     d="m 33.302,75.369 c -1.714,3.625 2.37,3.527 2.802,3.735 4.527,2.156 4.902,2.198 8.459,3.604 5.14,2.021 8.973,2.62 11.031,-0.026 1.39,-1.797 1.417,-3.442 0.745,-4.573 -0.745,-1.255 -3.443,-2.937 -6.047,-1.683 L 48.588,76.25 c -1.129,-0.272 -1.692,-0.396 -2.234,-0.573 -0.958,-0.308 -2,-0.579 -3.891,-1.079 -3.364,-0.874 -7.197,-0.702 -7.197,-0.702 -1.214,-0.292 -1.964,1.473 -1.964,1.473 z"
     id="path711" />
  <path
     style="fill:#0098c9;fill-opacity:1;fill-rule:nonzero;stroke:none"
     d="m 56.02,77.573 c -0.946,-1.109 -3.89,-2.328 -6.244,-0.652 l -1.401,7.683 c 0.651,0.078 1.256,0.114 1.839,0.13 0.078,0.031 0.15,0.058 0.218,0.094 0.714,0.385 1.298,0.146 2.246,-0.287 1.514,-0.323 2.672,-1.041 3.364,-2.339 1.073,-2 0.828,-3.618 -0.022,-4.629"
     id="path712" />
  <path
     style="fill:none;stroke:#231f20;stroke-width:0.565977;stroke-linecap:butt;stroke-linejoin:miter;stroke-miterlimit:4;stroke-dasharray:none;stroke-opacity:1"
     d="m 56.02,77.573 c -0.946,-1.109 -3.89,-2.328 -6.244,-0.652 l -1.401,7.683 c 0.651,0.078 1.256,0.114 1.839,0.13 0.078,0.031 0.15,0.058 0.218,0.094 0.714,0.385 1.298,0.146 2.246,-0.287 1.514,-0.323 2.672,-1.041 3.364,-2.339 1.073,-2 0.828,-3.618 -0.022,-4.629 z"
     id="path713" />
  <path
     style="fill:#231f20;fill-opacity:1;fill-rule:nonzero;stroke:none"
     d="m 70.235,103.999 c -0.401,-0.51 -0.292,-2.453 -0.828,-3.967 -0.36,-1.027 -0.136,-3.767 -0.573,-4.756 -0.396,-0.902 -0.495,-1.359 0.468,-1.995 0.568,-0.375 1.906,-0.735 2.209,-0.317 0.703,0.957 0.916,1.885 0.932,2.953 0.02,1.213 -0.213,4.514 -0.313,5.118 -0.255,1.5 0.11,2.147 0.073,2.552 -0.047,0.762 -0.353,0.928 -0.849,1 -0.952,0.131 -1.119,-0.588 -1.119,-0.588"
     id="path714" />
  <path
     style="fill:none;stroke:#231f20;stroke-width:0.565977;stroke-linecap:butt;stroke-linejoin:miter;stroke-miterlimit:4;stroke-dasharray:none;stroke-opacity:1"
     d="m 70.235,103.999 c -0.401,-0.51 -0.292,-2.453 -0.828,-3.967 -0.36,-1.027 -0.136,-3.767 -0.573,-4.756 -0.396,-0.902 -0.495,-1.359 0.468,-1.995 0.568,-0.375 1.906,-0.735 2.209,-0.317 0.703,0.957 0.916,1.885 0.932,2.953 0.02,1.213 -0.213,4.514 -0.313,5.118 -0.255,1.5 0.11,2.147 0.073,2.552 -0.047,0.762 -0.353,0.928 -0.849,1 -0.952,0.131 -1.119,-0.588 -1.119,-0.588 z"
     id="path715" />
  <path
     style="fill:#231f20;fill-opacity:1;fill-rule:nonzero;stroke:none"
     d="m 69.438,94.974 c -1.298,-0.026 -0.88,-2.021 -0.855,-2.562 0.032,-0.543 -0.063,-2.095 -0.291,-3.292 -0.224,-1.208 0.01,-2.808 -0.422,-5.094 -0.224,-1.204 0.317,-2.516 2.073,-2.766 1.74,-0.244 2.531,0.636 2.583,2.136 0.057,1.489 -0.526,2.916 -0.578,4.426 -0.052,1.516 0.036,3.058 0.162,4.267 0.145,1.375 -0.298,2.104 -0.714,2.337 -1.042,0.584 -1.958,0.548 -1.958,0.548"
     id="path716" />
  <path
     style="fill:none;stroke:#231f20;stroke-width:0.565977;stroke-linecap:butt;stroke-linejoin:miter;stroke-miterlimit:4;stroke-dasharray:none;stroke-opacity:1"
     d="m 69.438,94.974 c -1.298,-0.026 -0.88,-2.021 -0.855,-2.562 0.032,-0.543 -0.063,-2.095 -0.291,-3.292 -0.224,-1.208 0.01,-2.808 -0.422,-5.094 -0.224,-1.204 0.317,-2.516 2.073,-2.766 1.74,-0.244 2.531,0.636 2.583,2.136 0.057,1.489 -0.526,2.916 -0.578,4.426 -0.052,1.516 0.036,3.058 0.162,4.267 0.145,1.375 -0.298,2.104 -0.714,2.337 -1.042,0.584 -1.958,0.548 -1.958,0.548 z"
     id="path717" />
  <path
     style="fill:#ffffff;fill-opacity:1;fill-rule:nonzero;stroke:none"
     d="m 72.135,105.729 c 0.256,-0.995 -0.348,-2.006 -1.343,-2.26 -0.996,-0.256 -2.005,0.348 -2.261,1.342 -0.255,0.996 0.349,2.006 1.344,2.262 0.995,0.249 2.011,-0.35 2.26,-1.344"
     id="path718" />
  <path
     style="fill:none;stroke:#231f20;stroke-width:1.33171;stroke-linecap:butt;stroke-linejoin:miter;stroke-miterlimit:4;stroke-dasharray:none;stroke-opacity:1"
     d="m 72.135,105.729 c 0.256,-0.995 -0.348,-2.006 -1.343,-2.26 -0.996,-0.256 -2.005,0.348 -2.261,1.342 -0.255,0.996 0.349,2.006 1.344,2.262 0.995,0.249 2.011,-0.35 2.26,-1.344 z"
     id="path719" />
  <path
     style="fill:#231f20;fill-opacity:1;fill-rule:nonzero;stroke:none"
     d="m 85.87,135.359 c -0.823,-1.073 -0.307,-1.912 0.677,-2.245 0.292,-0.099 0.442,-0.489 0.734,-0.557 0.687,-0.167 2.146,0.792 1.656,2.213 -0.03,0.095 -0.057,0.917 -0.172,1.521 -0.218,1.198 -1.245,3.474 -3.77,4.411 -1.199,0.448 -1.24,-0.343 -0.808,-0.671 1.365,-1.032 1.281,-1.396 1.543,-1.797 0.88,-1.36 0.14,-2.875 0.14,-2.875"
     id="path720" />
  <path
     style="fill:none;stroke:#231f20;stroke-width:0.332927;stroke-linecap:butt;stroke-linejoin:miter;stroke-miterlimit:4;stroke-dasharray:none;stroke-opacity:1"
     d="m 85.87,135.359 c -0.823,-1.073 -0.307,-1.912 0.677,-2.245 0.292,-0.099 0.442,-0.489 0.734,-0.557 0.687,-0.167 2.146,0.792 1.656,2.213 -0.03,0.095 -0.057,0.917 -0.172,1.521 -0.218,1.198 -1.245,3.474 -3.77,4.411 -1.199,0.448 -1.24,-0.343 -0.808,-0.671 1.365,-1.032 1.281,-1.396 1.543,-1.797 0.88,-1.36 0.14,-2.875 0.14,-2.875 z"
     id="path721" />
  <path
     style="fill:#231f20;fill-opacity:1;fill-rule:nonzero;stroke:none"
     d="m 92.26,117.729 c -2.088,-0.86 -2.615,-0.751 -3.036,0.109 -0.281,0.579 -0.745,1.011 -0.932,1.349 -0.625,1.135 -1.215,3.302 -1.276,9.886 -0.016,1.494 -0.048,3.588 -0.136,4.448 -0.125,1.344 2.208,0.65 2.26,0.12 0.188,-1.715 0.448,-2.866 0.595,-3.47 0.109,-0.421 0.186,-1.172 0.796,-2.724 0.912,-2.354 1.818,-3.625 2.349,-5.682 0.249,-0.943 1.041,-1.5 0.807,-2.558 -0.228,-1.062 -1.427,-1.478 -1.427,-1.478"
     id="path722" />
  <path
     style="fill:none;stroke:#231f20;stroke-width:0.565977;stroke-linecap:butt;stroke-linejoin:miter;stroke-miterlimit:4;stroke-dasharray:none;stroke-opacity:1"
     d="m 92.26,117.729 c -2.088,-0.86 -2.615,-0.751 -3.036,0.109 -0.281,0.579 -0.745,1.011 -0.932,1.349 -0.625,1.135 -1.215,3.302 -1.276,9.886 -0.016,1.494 -0.048,3.588 -0.136,4.448 -0.125,1.344 2.208,0.65 2.26,0.12 0.188,-1.715 0.448,-2.866 0.595,-3.47 0.109,-0.421 0.186,-1.172 0.796,-2.724 0.912,-2.354 1.818,-3.625 2.349,-5.682 0.249,-0.943 1.041,-1.5 0.807,-2.558 -0.228,-1.062 -1.427,-1.478 -1.427,-1.478 z"
     id="path723" />
  <path
     style="fill:#0098c9;fill-opacity:1;fill-rule:nonzero;stroke:none"
     d="m 97.901,91.338 c -1.474,2.766 -2.089,3.203 -2.813,3.776 -4.505,3.62 -2.645,5.765 0.104,6.636 3.229,1.036 4.371,1.473 6.797,-4.338 0.672,-1.62 4.068,-7.475 4.068,-7.475 1.495,-1.937 1.927,-4.625 1.25,-5.911 -0.719,-1.36 -0.531,-0.766 -1.422,-1.906 -0.849,-1.084 -2.885,-1.88 -3.969,-1.298 -1.047,0.563 -1.124,2.224 -1.541,4.61 -0.334,1.885 -2.474,5.906 -2.474,5.906"
     id="path724" />
  <path
     style="fill:none;stroke:#231f20;stroke-width:0.565977;stroke-linecap:butt;stroke-linejoin:miter;stroke-miterlimit:4;stroke-dasharray:none;stroke-opacity:1"
     d="m 97.901,91.338 c -1.474,2.766 -2.089,3.203 -2.813,3.776 -4.505,3.62 -2.645,5.765 0.104,6.636 3.229,1.036 4.371,1.473 6.797,-4.338 0.672,-1.62 4.068,-7.475 4.068,-7.475 1.495,-1.937 1.927,-4.625 1.25,-5.911 -0.719,-1.36 -0.531,-0.766 -1.422,-1.906 -0.849,-1.084 -2.885,-1.88 -3.969,-1.298 -1.047,0.563 -1.124,2.224 -1.541,4.61 -0.334,1.885 -2.474,5.906 -2.474,5.906 z"
     id="path725" />
  <path
     style="fill:#ffffff;fill-opacity:1;fill-rule:nonzero;stroke:none"
     d="m 110.583,77.65 c 0.141,-0.202 1.224,0.158 1.428,-0.322 0.208,-0.484 -0.418,-0.963 -0.506,-2.948 v -0.026 c -0.01,-1.448 -0.614,-2.704 -1.724,-3.286 -1.844,-0.959 -4.39,0.292 -5.693,2.801 -1.307,2.505 -0.869,5.313 0.975,6.272 1.754,0.921 4.177,-0.193 5.52,-2.491"
     id="path726" />
  <path
     style="fill:none;stroke:#231f20;stroke-width:0.565977;stroke-linecap:butt;stroke-linejoin:miter;stroke-miterlimit:4;stroke-dasharray:none;stroke-opacity:1"
     d="m 110.583,77.65 c 0.141,-0.202 1.224,0.158 1.428,-0.322 0.208,-0.484 -0.418,-0.963 -0.506,-2.948 v -0.026 c -0.01,-1.448 -0.614,-2.704 -1.724,-3.286 -1.844,-0.959 -4.39,0.292 -5.693,2.801 -1.307,2.505 -0.869,5.313 0.975,6.272 1.754,0.921 4.177,-0.193 5.52,-2.491 z"
     id="path727" />
  <path
     style="fill:#231f20;fill-opacity:1;fill-rule:nonzero;stroke:none"
     d="m 90.828,119.739 c 3.557,1.844 3.609,-2.24 3.828,-2.666 2.317,-4.443 2.375,-4.819 3.907,-8.323 2.208,-5.063 2.942,-8.876 0.374,-11.021 -1.74,-1.459 -3.385,-1.541 -4.541,-0.912 -1.281,0.704 -3.057,3.333 -1.896,5.98 l -0.245,1.697 c -0.307,1.12 -0.454,1.677 -0.651,2.213 -0.339,0.943 -0.651,1.975 -1.219,3.85 -0.994,3.328 -0.964,7.166 -0.964,7.166 -0.333,1.203 1.407,2.016 1.407,2.016"
     id="path728" />
  <path
     style="fill:none;stroke:#231f20;stroke-width:0.565977;stroke-linecap:butt;stroke-linejoin:miter;stroke-miterlimit:4;stroke-dasharray:none;stroke-opacity:1"
     d="m 90.828,119.739 c 3.557,1.844 3.609,-2.24 3.828,-2.666 2.317,-4.443 2.375,-4.819 3.907,-8.323 2.208,-5.063 2.942,-8.876 0.374,-11.021 -1.74,-1.459 -3.385,-1.541 -4.541,-0.912 -1.281,0.704 -3.057,3.333 -1.896,5.98 l -0.245,1.697 c -0.307,1.12 -0.454,1.677 -0.651,2.213 -0.339,0.943 -0.651,1.975 -1.219,3.85 -0.994,3.328 -0.964,7.166 -0.964,7.166 -0.333,1.203 1.407,2.016 1.407,2.016 z"
     id="path729" />
  <path
     style="fill:#0098c9;fill-opacity:1;fill-rule:nonzero;stroke:none"
     d="M 100.692,100.707 C 100.427,99.182 99.744,98 98.473,97.26 c -1.957,-1.146 -3.588,-0.952 -4.629,-0.14 -1.141,0.901 -2.464,3.801 -0.876,6.213 l 7.636,1.677 c 0.099,-0.645 0.156,-1.251 0.192,-1.833 0.032,-0.079 0.063,-0.151 0.1,-0.214 0.416,-0.698 0.192,-1.292 -0.204,-2.256"
     id="path730" />
  <path
     style="fill:none;stroke:#231f20;stroke-width:0.565977;stroke-linecap:butt;stroke-linejoin:miter;stroke-miterlimit:4;stroke-dasharray:none;stroke-opacity:1"
     d="M 100.692,100.707 C 100.427,99.182 99.744,98 98.473,97.26 c -1.957,-1.146 -3.588,-0.952 -4.629,-0.14 -1.141,0.901 -2.464,3.801 -0.876,6.213 l 7.636,1.677 c 0.099,-0.645 0.156,-1.251 0.192,-1.833 0.032,-0.079 0.063,-0.151 0.1,-0.214 0.416,-0.698 0.192,-1.292 -0.204,-2.256 z"
     id="path731" />
  <path
     style="fill:#231f20;fill-opacity:1;fill-rule:nonzero;stroke:none"
     d="m 104.484,103.745 c -0.416,-0.495 -0.375,-2.443 -0.968,-3.937 -0.401,-1.011 -0.276,-3.756 -0.751,-4.735 -0.432,-0.885 -0.546,-1.339 0.396,-2.011 0.552,-0.39 1.88,-0.802 2.198,-0.396 0.734,0.932 0.98,1.85 1.037,2.918 0.067,1.213 -0.047,4.52 -0.12,5.129 -0.203,1.51 0.183,2.141 0.167,2.546 -0.022,0.762 -0.318,0.943 -0.818,1.032 -0.942,0.172 -1.141,-0.546 -1.141,-0.546"
     id="path732" />
  <path
     style="fill:none;stroke:#231f20;stroke-width:0.565977;stroke-linecap:butt;stroke-linejoin:miter;stroke-miterlimit:4;stroke-dasharray:none;stroke-opacity:1"
     d="m 104.484,103.745 c -0.416,-0.495 -0.375,-2.443 -0.968,-3.937 -0.401,-1.011 -0.276,-3.756 -0.751,-4.735 -0.432,-0.885 -0.546,-1.339 0.396,-2.011 0.552,-0.39 1.88,-0.802 2.198,-0.396 0.734,0.932 0.98,1.85 1.037,2.918 0.067,1.213 -0.047,4.52 -0.12,5.129 -0.203,1.51 0.183,2.141 0.167,2.546 -0.022,0.762 -0.318,0.943 -0.818,1.032 -0.942,0.172 -1.141,-0.546 -1.141,-0.546 z"
     id="path733" />
  <path
     style="fill:#231f20;fill-opacity:1;fill-rule:nonzero;stroke:none"
     d="m 103.359,94.756 c -1.296,0.014 -0.952,-1.991 -0.943,-2.527 0.005,-0.547 -0.14,-2.093 -0.416,-3.287 -0.271,-1.192 -0.099,-2.801 -0.609,-5.073 -0.271,-1.192 0.224,-2.52 1.973,-2.837 1.724,-0.314 2.547,0.541 2.656,2.036 0.115,1.489 -0.416,2.937 -0.411,4.448 0,1.51 0.146,3.052 0.318,4.254 0.193,1.371 -0.224,2.115 -0.63,2.366 -1.021,0.62 -1.938,0.62 -1.938,0.62"
     id="path734" />
  <path
     style="fill:none;stroke:#231f20;stroke-width:0.565977;stroke-linecap:butt;stroke-linejoin:miter;stroke-miterlimit:4;stroke-dasharray:none;stroke-opacity:1"
     d="m 103.359,94.756 c -1.296,0.014 -0.952,-1.991 -0.943,-2.527 0.005,-0.547 -0.14,-2.093 -0.416,-3.287 -0.271,-1.192 -0.099,-2.801 -0.609,-5.073 -0.271,-1.192 0.224,-2.52 1.973,-2.837 1.724,-0.314 2.547,0.541 2.656,2.036 0.115,1.489 -0.416,2.937 -0.411,4.448 0,1.51 0.146,3.052 0.318,4.254 0.193,1.371 -0.224,2.115 -0.63,2.366 -1.021,0.62 -1.938,0.62 -1.938,0.62 z"
     id="path735" />
  <path
     style="fill:#ffffff;fill-opacity:1;fill-rule:nonzero;stroke:none"
     d="m 106.453,105.401 c 0.214,-1 -0.428,-1.99 -1.428,-2.208 -1.005,-0.219 -1.994,0.421 -2.208,1.426 -0.218,1 0.418,1.995 1.427,2.208 1,0.214 1.991,-0.421 2.209,-1.426"
     id="path736" />
  <path
     style="fill:none;stroke:#231f20;stroke-width:1.33171;stroke-linecap:butt;stroke-linejoin:miter;stroke-miterlimit:4;stroke-dasharray:none;stroke-opacity:1"
     d="m 106.453,105.401 c 0.214,-1 -0.428,-1.99 -1.428,-2.208 -1.005,-0.219 -1.994,0.421 -2.208,1.426 -0.218,1 0.418,1.995 1.427,2.208 1,0.214 1.991,-0.421 2.209,-1.426 z"
     id="path737" />
  <path
     style="fill:#231f20;fill-opacity:1;fill-rule:nonzero;stroke:none"
     d="m 145.025,76.202 c 0.828,1.063 0.319,1.912 -0.666,2.246 -0.286,0.104 -0.438,0.489 -0.728,0.562 -0.688,0.167 -2.147,-0.781 -1.667,-2.202 0.031,-0.1 0.056,-0.918 0.165,-1.532 0.215,-1.192 1.224,-3.474 3.751,-4.422 1.193,-0.458 1.24,0.334 0.807,0.667 -1.354,1.041 -1.276,1.4 -1.531,1.801 -0.875,1.366 -0.131,2.88 -0.131,2.88"
     id="path738" />
  <path
     style="fill:none;stroke:#231f20;stroke-width:0.332927;stroke-linecap:butt;stroke-linejoin:miter;stroke-miterlimit:4;stroke-dasharray:none;stroke-opacity:1"
     d="m 145.025,76.202 c 0.828,1.063 0.319,1.912 -0.666,2.246 -0.286,0.104 -0.438,0.489 -0.728,0.562 -0.688,0.167 -2.147,-0.781 -1.667,-2.202 0.031,-0.1 0.056,-0.918 0.165,-1.532 0.215,-1.192 1.224,-3.474 3.751,-4.422 1.193,-0.458 1.24,0.334 0.807,0.667 -1.354,1.041 -1.276,1.4 -1.531,1.801 -0.875,1.366 -0.131,2.88 -0.131,2.88 z"
     id="path739" />
  <path
     style="fill:#231f20;fill-opacity:1;fill-rule:nonzero;stroke:none"
     d="m 138.719,93.865 c 2.098,0.848 2.62,0.733 3.036,-0.131 0.281,-0.573 0.74,-1.01 0.928,-1.349 0.618,-1.14 1.197,-3.312 1.228,-9.896 0.005,-1.489 0.032,-3.583 0.114,-4.443 0.12,-1.348 -2.213,-0.64 -2.26,-0.109 -0.177,1.708 -0.432,2.865 -0.578,3.469 -0.104,0.422 -0.182,1.172 -0.78,2.73 -0.902,2.358 -1.803,3.629 -2.324,5.686 -0.244,0.948 -1.031,1.511 -0.796,2.568 0.233,1.058 1.432,1.475 1.432,1.475"
     id="path740" />
  <path
     style="fill:none;stroke:#231f20;stroke-width:0.565977;stroke-linecap:butt;stroke-linejoin:miter;stroke-miterlimit:4;stroke-dasharray:none;stroke-opacity:1"
     d="m 138.719,93.865 c 2.098,0.848 2.62,0.733 3.036,-0.131 0.281,-0.573 0.74,-1.01 0.928,-1.349 0.618,-1.14 1.197,-3.312 1.228,-9.896 0.005,-1.489 0.032,-3.583 0.114,-4.443 0.12,-1.348 -2.213,-0.64 -2.26,-0.109 -0.177,1.708 -0.432,2.865 -0.578,3.469 -0.104,0.422 -0.182,1.172 -0.78,2.73 -0.902,2.358 -1.803,3.629 -2.324,5.686 -0.244,0.948 -1.031,1.511 -0.796,2.568 0.233,1.058 1.432,1.475 1.432,1.475 z"
     id="path741" />
  <path
     style="fill:#0098c9;fill-opacity:1;fill-rule:nonzero;stroke:none"
     d="m 131.24,119.682 c 2.047,-2.371 2.744,-2.661 3.572,-3.057 5.193,-2.542 3.855,-5.042 1.365,-6.5 -2.922,-1.724 -3.937,-2.396 -7.589,2.734 -1.011,1.432 -5.609,6.4 -5.609,6.4 -1.891,1.558 -2.902,4.079 -2.526,5.491 0.4,1.479 0.348,0.859 0.968,2.167 0.595,1.249 2.402,2.473 3.59,2.14 1.145,-0.318 1.582,-1.922 2.514,-4.156 0.74,-1.766 3.715,-5.219 3.715,-5.219"
     id="path742" />
  <path
     style="fill:none;stroke:#231f20;stroke-width:0.565977;stroke-linecap:butt;stroke-linejoin:miter;stroke-miterlimit:4;stroke-dasharray:none;stroke-opacity:1"
     d="m 131.24,119.682 c 2.047,-2.371 2.744,-2.661 3.572,-3.057 5.193,-2.542 3.855,-5.042 1.365,-6.5 -2.922,-1.724 -3.937,-2.396 -7.589,2.734 -1.011,1.432 -5.609,6.4 -5.609,6.4 -1.891,1.558 -2.902,4.079 -2.526,5.491 0.4,1.479 0.348,0.859 0.968,2.167 0.595,1.249 2.402,2.473 3.59,2.14 1.145,-0.318 1.582,-1.922 2.514,-4.156 0.74,-1.766 3.715,-5.219 3.715,-5.219 z"
     id="path743" />
  <path
     style="fill:#ffffff;fill-opacity:1;fill-rule:nonzero;stroke:none"
     d="m 115.853,130.239 c -0.181,0.172 -1.156,-0.417 -1.462,0 -0.308,0.432 0.192,1.036 -0.156,2.995 l -0.006,0.02 c -0.308,1.417 0,2.777 0.958,3.584 1.589,1.344 4.349,0.683 6.172,-1.473 1.828,-2.158 2.016,-4.996 0.433,-6.334 -1.516,-1.286 -4.12,-0.729 -5.939,1.208"
     id="path744" />
  <path
     style="fill:none;stroke:#231f20;stroke-width:0.565977;stroke-linecap:butt;stroke-linejoin:miter;stroke-miterlimit:4;stroke-dasharray:none;stroke-opacity:1"
     d="m 115.853,130.239 c -0.181,0.172 -1.156,-0.417 -1.462,0 -0.308,0.432 0.192,1.036 -0.156,2.995 l -0.006,0.02 c -0.308,1.417 0,2.777 0.958,3.584 1.589,1.344 4.349,0.683 6.172,-1.473 1.828,-2.158 2.016,-4.996 0.433,-6.334 -1.516,-1.286 -4.12,-0.729 -5.939,1.208 z"
     id="path745" />
  <path
     style="fill:#231f20;fill-opacity:1;fill-rule:nonzero;stroke:none"
     d="m 140.145,91.844 c -3.568,-1.828 -3.598,2.254 -3.822,2.682 -2.292,4.452 -2.35,4.834 -3.864,8.343 -2.183,5.073 -2.902,8.886 -0.324,11.021 1.75,1.448 3.396,1.527 4.548,0.891 1.281,-0.703 3.041,-3.35 1.869,-5.99 l 0.235,-1.698 c 0.301,-1.119 0.448,-1.676 0.64,-2.219 0.338,-0.943 0.646,-1.979 1.204,-3.848 0.978,-3.333 0.932,-7.177 0.932,-7.177 0.322,-1.199 -1.418,-2.005 -1.418,-2.005"
     id="path746" />
  <path
     style="fill:none;stroke:#231f20;stroke-width:0.565977;stroke-linecap:butt;stroke-linejoin:miter;stroke-miterlimit:4;stroke-dasharray:none;stroke-opacity:1"
     d="m 140.145,91.844 c -3.568,-1.828 -3.598,2.254 -3.822,2.682 -2.292,4.452 -2.35,4.834 -3.864,8.343 -2.183,5.073 -2.902,8.886 -0.324,11.021 1.75,1.448 3.396,1.527 4.548,0.891 1.281,-0.703 3.041,-3.35 1.869,-5.99 l 0.235,-1.698 c 0.301,-1.119 0.448,-1.676 0.64,-2.219 0.338,-0.943 0.646,-1.979 1.204,-3.848 0.978,-3.333 0.932,-7.177 0.932,-7.177 0.322,-1.199 -1.418,-2.005 -1.418,-2.005 z"
     id="path747" />
  <path
     style="fill:#0098c9;fill-opacity:1;fill-rule:nonzero;stroke:none"
     d="m 138.077,108.265 -7.634,-1.646 c -0.099,0.646 -0.156,1.25 -0.188,1.834 -0.031,0.073 -0.063,0.15 -0.099,0.213 -0.412,0.703 -0.188,1.297 0.213,2.26 0.276,1.527 0.964,2.699 2.235,3.433 1.964,1.135 3.593,0.938 4.631,0.119 1.134,-0.911 2.442,-3.812 0.842,-6.213"
     id="path748" />
  <path
     style="fill:none;stroke:#231f20;stroke-width:0.565977;stroke-linecap:butt;stroke-linejoin:miter;stroke-miterlimit:4;stroke-dasharray:none;stroke-opacity:1"
     d="m 138.077,108.265 -7.634,-1.646 c -0.099,0.646 -0.156,1.25 -0.188,1.834 -0.031,0.073 -0.063,0.15 -0.099,0.213 -0.412,0.703 -0.188,1.297 0.213,2.26 0.276,1.527 0.964,2.699 2.235,3.433 1.964,1.135 3.593,0.938 4.631,0.119 1.134,-0.911 2.442,-3.812 0.842,-6.213 z"
     id="path749" />
  <path
     style="fill:#231f20;fill-opacity:1;fill-rule:nonzero;stroke:none"
     d="m 127.552,106.135 c 0.297,0.572 -0.172,2.463 0.079,4.052 0.165,1.072 -0.558,3.724 -0.314,4.782 0.224,0.957 0.235,1.426 -0.828,1.874 -0.63,0.26 -2.01,0.37 -2.229,-0.093 -0.511,-1.073 -0.552,-2.027 -0.369,-3.079 0.197,-1.197 1.036,-4.401 1.244,-4.973 0.532,-1.428 0.297,-2.131 0.401,-2.521 0.188,-0.74 0.516,-0.85 1.021,-0.828 0.959,0.046 0.995,0.786 0.995,0.786"
     id="path750" />
  <path
     style="fill:none;stroke:#231f20;stroke-width:0.565977;stroke-linecap:butt;stroke-linejoin:miter;stroke-miterlimit:4;stroke-dasharray:none;stroke-opacity:1"
     d="m 127.552,106.135 c 0.297,0.572 -0.172,2.463 0.079,4.052 0.165,1.072 -0.558,3.724 -0.314,4.782 0.224,0.957 0.235,1.426 -0.828,1.874 -0.63,0.26 -2.01,0.37 -2.229,-0.093 -0.511,-1.073 -0.552,-2.027 -0.369,-3.079 0.197,-1.197 1.036,-4.401 1.244,-4.973 0.532,-1.428 0.297,-2.131 0.401,-2.521 0.188,-0.74 0.516,-0.85 1.021,-0.828 0.959,0.046 0.995,0.786 0.995,0.786 z"
     id="path751" />
  <path
     style="fill:#231f20;fill-opacity:1;fill-rule:nonzero;stroke:none"
     d="m 126.672,115.15 c 1.265,0.272 0.489,2.152 0.359,2.677 -0.124,0.527 -0.323,2.068 -0.318,3.292 0,1.224 -0.521,2.755 -0.521,5.083 0,1.224 -0.776,2.412 -2.552,2.333 -1.749,-0.077 -2.364,-1.093 -2.145,-2.572 0.224,-1.474 1.057,-2.77 1.385,-4.245 0.333,-1.479 0.531,-3.011 0.631,-4.224 0.109,-1.375 0.681,-2.016 1.129,-2.167 1.136,-0.374 2.032,-0.177 2.032,-0.177"
     id="path752" />
  <path
     style="fill:none;stroke:#231f20;stroke-width:0.565977;stroke-linecap:butt;stroke-linejoin:miter;stroke-miterlimit:4;stroke-dasharray:none;stroke-opacity:1"
     d="m 126.672,115.15 c 1.265,0.272 0.489,2.152 0.359,2.677 -0.124,0.527 -0.323,2.068 -0.318,3.292 0,1.224 -0.521,2.755 -0.521,5.083 0,1.224 -0.776,2.412 -2.552,2.333 -1.749,-0.077 -2.364,-1.093 -2.145,-2.572 0.224,-1.474 1.057,-2.77 1.385,-4.245 0.333,-1.479 0.531,-3.011 0.631,-4.224 0.109,-1.375 0.681,-2.016 1.129,-2.167 1.136,-0.374 2.032,-0.177 2.032,-0.177 z"
     id="path753" />
  <path
     style="fill:#ffffff;fill-opacity:1;fill-rule:nonzero;stroke:none"
     d="m 126,104.083 c -0.432,0.932 -0.032,2.036 0.901,2.468 0.932,0.432 2.036,0.032 2.468,-0.901 0.432,-0.932 0.032,-2.041 -0.906,-2.473 -0.927,-0.427 -2.036,-0.027 -2.463,0.906"
     id="path754" />
  <path
     style="fill:none;stroke:#231f20;stroke-width:1.33171;stroke-linecap:butt;stroke-linejoin:miter;stroke-miterlimit:4;stroke-dasharray:none;stroke-opacity:1"
     d="m 126,104.083 c -0.432,0.932 -0.032,2.036 0.901,2.468 0.932,0.432 2.036,0.032 2.468,-0.901 0.432,-0.932 0.032,-2.041 -0.906,-2.473 -0.927,-0.427 -2.036,-0.027 -2.463,0.906 z"
     id="path755" />
  <path
     style="fill:#ffffff;fill-opacity:1;fill-rule:nonzero;stroke:none"
     d="m 226.229,103.859 c -1.021,-0.062 -1.907,0.714 -1.969,1.739 -0.068,1.027 0.708,1.912 1.734,1.98 1.026,0.063 1.912,-0.719 1.974,-1.74 0.068,-1.027 -0.714,-1.912 -1.739,-1.979"
     id="path756" />
  <path
     style="fill:none;stroke:#231f20;stroke-width:1.33171;stroke-linecap:butt;stroke-linejoin:miter;stroke-miterlimit:4;stroke-dasharray:none;stroke-opacity:1"
     d="m 226.229,103.859 c -1.021,-0.062 -1.907,0.714 -1.969,1.739 -0.068,1.027 0.708,1.912 1.734,1.98 1.026,0.063 1.912,-0.719 1.974,-1.74 0.068,-1.027 -0.714,-1.912 -1.739,-1.979 z"
     id="path757" />
  <path
     style="fill:#ffffff;fill-opacity:1;fill-rule:nonzero;stroke:none"
     d="m 301.781,102.77 c -0.964,-0.353 -2.032,0.136 -2.385,1.099 -0.36,0.964 0.129,2.037 1.093,2.39 0.964,0.355 2.036,-0.134 2.391,-1.098 0.36,-0.963 -0.136,-2.031 -1.099,-2.391"
     id="path758" />
  <path
     style="fill:none;stroke:#231f20;stroke-width:1.33171;stroke-linecap:butt;stroke-linejoin:miter;stroke-miterlimit:4;stroke-dasharray:none;stroke-opacity:1"
     d="m 301.781,102.77 c -0.964,-0.353 -2.032,0.136 -2.385,1.099 -0.36,0.964 0.129,2.037 1.093,2.39 0.964,0.355 2.036,-0.134 2.391,-1.098 0.36,-0.963 -0.136,-2.031 -1.099,-2.391 z"
     id="path759" />
  <path
     style="fill:#231f20;fill-opacity:1;fill-rule:nonzero;stroke:none"
     d="m 228.098,104.035 c 0.511,-0.39 0.912,-2.296 1.818,-3.624 0.614,-0.895 1.104,-3.599 1.786,-4.442 0.62,-0.771 0.834,-1.188 0.063,-2.048 -0.453,-0.509 -1.651,-1.197 -2.052,-0.88 -0.927,0.751 -1.369,1.589 -1.667,2.609 -0.333,1.167 -0.964,4.423 -1.021,5.032 -0.145,1.52 -0.656,2.047 -0.728,2.448 -0.141,0.744 0.104,0.984 0.567,1.187 0.885,0.37 1.234,-0.282 1.234,-0.282"
     id="path760" />
  <path
     style="fill:none;stroke:#231f20;stroke-width:0.565977;stroke-linecap:butt;stroke-linejoin:miter;stroke-miterlimit:4;stroke-dasharray:none;stroke-opacity:1"
     d="m 228.098,104.035 c 0.511,-0.39 0.912,-2.296 1.818,-3.624 0.614,-0.895 1.104,-3.599 1.786,-4.442 0.62,-0.771 0.834,-1.188 0.063,-2.048 -0.453,-0.509 -1.651,-1.197 -2.052,-0.88 -0.927,0.751 -1.369,1.589 -1.667,2.609 -0.333,1.167 -0.964,4.423 -1.021,5.032 -0.145,1.52 -0.656,2.047 -0.728,2.448 -0.141,0.744 0.104,0.984 0.567,1.187 0.885,0.37 1.234,-0.282 1.234,-0.282 z"
     id="path761" />
  <path
     style="fill:#231f20;fill-opacity:1;fill-rule:nonzero;stroke:none"
     d="m 231.552,95.109 c 1.292,-0.145 0.688,-2.093 0.609,-2.625 -0.079,-0.542 -0.131,-2.099 -0.016,-3.307 0.115,-1.224 -0.26,-2.797 -0.036,-5.109 0.109,-1.224 -0.552,-2.48 -2.323,-2.574 -1.756,-0.077 -2.464,0.871 -2.38,2.371 0.083,1.489 0.796,2.853 0.99,4.359 0.186,1.5 0.244,3.041 0.229,4.254 -0.021,1.382 0.489,2.074 0.921,2.267 1.099,0.479 2.006,0.364 2.006,0.364"
     id="path762" />
  <path
     style="fill:none;stroke:#231f20;stroke-width:0.565977;stroke-linecap:butt;stroke-linejoin:miter;stroke-miterlimit:4;stroke-dasharray:none;stroke-opacity:1"
     d="m 231.552,95.109 c 1.292,-0.145 0.688,-2.093 0.609,-2.625 -0.079,-0.542 -0.131,-2.099 -0.016,-3.307 0.115,-1.224 -0.26,-2.797 -0.036,-5.109 0.109,-1.224 -0.552,-2.48 -2.323,-2.574 -1.756,-0.077 -2.464,0.871 -2.38,2.371 0.083,1.489 0.796,2.853 0.99,4.359 0.186,1.5 0.244,3.041 0.229,4.254 -0.021,1.382 0.489,2.074 0.921,2.267 1.099,0.479 2.006,0.364 2.006,0.364 z"
     id="path763" />
  <path
     style="fill:#231f20;fill-opacity:1;fill-rule:nonzero;stroke:none"
     d="m 208.432,96.27 c 0.339,-0.546 0.021,-2.468 0.385,-4.03 0.251,-1.063 -0.281,-3.756 0.047,-4.787 0.297,-0.948 0.339,-1.412 -0.687,-1.932 -0.604,-0.313 -1.974,-0.521 -2.234,-0.079 -0.59,1.036 -0.699,1.975 -0.604,3.036 0.12,1.215 0.713,4.464 0.88,5.058 0.416,1.469 0.13,2.152 0.208,2.548 0.136,0.749 0.453,0.88 0.958,0.894 0.964,0.038 1.047,-0.708 1.047,-0.708"
     id="path764" />
  <path
     style="fill:none;stroke:#231f20;stroke-width:0.565977;stroke-linecap:butt;stroke-linejoin:miter;stroke-miterlimit:4;stroke-dasharray:none;stroke-opacity:1"
     d="m 208.432,96.27 c 0.339,-0.546 0.021,-2.468 0.385,-4.03 0.251,-1.063 -0.281,-3.756 0.047,-4.787 0.297,-0.948 0.339,-1.412 -0.687,-1.932 -0.604,-0.313 -1.974,-0.521 -2.234,-0.079 -0.59,1.036 -0.699,1.975 -0.604,3.036 0.12,1.215 0.713,4.464 0.88,5.058 0.416,1.469 0.13,2.152 0.208,2.548 0.136,0.749 0.453,0.88 0.958,0.894 0.964,0.038 1.047,-0.708 1.047,-0.708 z"
     id="path765" />
  <path
     style="fill:#231f20;fill-opacity:1;fill-rule:nonzero;stroke:none"
     d="m 207.104,87.614 c 0.807,1.022 2.145,-0.516 2.557,-0.858 0.422,-0.355 1.719,-1.215 2.812,-1.756 1.1,-0.542 2.235,-1.688 4.319,-2.719 1.099,-0.547 1.828,-1.765 0.963,-3.323 -0.848,-1.541 -2.026,-1.641 -3.26,-0.786 -1.224,0.86 -2.016,2.182 -3.194,3.136 -1.172,0.942 -2.457,1.806 -3.494,2.437 -1.182,0.708 -1.506,1.505 -1.443,1.973 0.161,1.183 0.74,1.896 0.74,1.896"
     id="path766" />
  <path
     style="fill:none;stroke:#231f20;stroke-width:0.565977;stroke-linecap:butt;stroke-linejoin:miter;stroke-miterlimit:4;stroke-dasharray:none;stroke-opacity:1"
     d="m 207.104,87.614 c 0.807,1.022 2.145,-0.516 2.557,-0.858 0.422,-0.355 1.719,-1.215 2.812,-1.756 1.1,-0.542 2.235,-1.688 4.319,-2.719 1.099,-0.547 1.828,-1.765 0.963,-3.323 -0.848,-1.541 -2.026,-1.641 -3.26,-0.786 -1.224,0.86 -2.016,2.182 -3.194,3.136 -1.172,0.942 -2.457,1.806 -3.494,2.437 -1.182,0.708 -1.506,1.505 -1.443,1.973 0.161,1.183 0.74,1.896 0.74,1.896 z"
     id="path767" />
  <path
     style="fill:#231f20;fill-opacity:1;fill-rule:nonzero;stroke:none"
     d="m 207.76,102.437 c -0.359,-0.635 -0.907,-3.844 -0.995,-4.577 -0.082,-0.662 -0.582,-1.704 0.386,-2.328 0.396,-0.262 1.146,-0.35 1.464,-0.303 0.26,0.036 0.401,0.333 0.41,0.735 0.022,0.661 -0.229,0.858 -0.26,2.134 0,0 -0.052,0.308 -0.188,0.839 -0.369,1.584 -0.353,0.855 -0.39,3.27 0.005,0.172 -0.171,0.298 -0.286,0.287 -0.177,-0.02 -0.141,-0.057 -0.141,-0.057"
     id="path768" />
  <path
     style="fill:none;stroke:#231f20;stroke-width:0.565977;stroke-linecap:round;stroke-linejoin:round;stroke-miterlimit:4;stroke-dasharray:none;stroke-opacity:1"
     d="m 207.76,102.437 c -0.359,-0.635 -0.907,-3.844 -0.995,-4.577 -0.082,-0.662 -0.582,-1.704 0.386,-2.328 0.396,-0.262 1.146,-0.35 1.464,-0.303 0.26,0.036 0.401,0.333 0.41,0.735 0.022,0.661 -0.229,0.858 -0.26,2.134 0,0 -0.052,0.308 -0.188,0.839 -0.369,1.584 -0.353,0.855 -0.39,3.27 0.005,0.172 -0.171,0.298 -0.286,0.287 -0.177,-0.02 -0.141,-0.057 -0.141,-0.057 z"
     id="path769" />
  <path
     style="fill:#231f20;fill-opacity:1;fill-rule:nonzero;stroke:none"
     d="m 222.749,90.584 c 1.495,-2.396 1.281,-5.23 -0.479,-6.33 -1.765,-1.098 -4.406,-0.046 -5.901,2.35 -1.494,2.396 -1.281,5.229 0.484,6.328 1.756,1.1 4.401,0.052 5.896,-2.348"
     id="path770" />
  <path
     style="fill:none;stroke:#231f20;stroke-width:0.565977;stroke-linecap:butt;stroke-linejoin:miter;stroke-miterlimit:4;stroke-dasharray:none;stroke-opacity:1"
     d="m 222.749,90.584 c 1.495,-2.396 1.281,-5.23 -0.479,-6.33 -1.765,-1.098 -4.406,-0.046 -5.901,2.35 -1.494,2.396 -1.281,5.229 0.484,6.328 1.756,1.1 4.401,0.052 5.896,-2.348 z"
     id="path771" />
  <path
     style="fill:#231f20;fill-opacity:1;fill-rule:nonzero;stroke:none"
     d="m 223.338,67.26 c -3.537,-0.698 -2.901,-2.25 -3.12,-6.318 -0.25,-4.458 -0.026,-9.125 1.083,-12.234 1.235,-3.474 0.828,-3.807 2.729,-4.094 1.896,-0.286 2.038,0.479 2.959,1.38 1.057,1.042 -1.057,8.084 -0.631,12.818 0.204,2.22 2.126,7.406 0.751,7.865 -1.375,0.464 -3.771,0.583 -3.771,0.583"
     id="path772" />
  <path
     style="fill:none;stroke:#231f20;stroke-width:0.565977;stroke-linecap:butt;stroke-linejoin:miter;stroke-miterlimit:4;stroke-dasharray:none;stroke-opacity:1"
     d="m 223.338,67.26 c -3.537,-0.698 -2.901,-2.25 -3.12,-6.318 -0.25,-4.458 -0.026,-9.125 1.083,-12.234 1.235,-3.474 0.828,-3.807 2.729,-4.094 1.896,-0.286 2.038,0.479 2.959,1.38 1.057,1.042 -1.057,8.084 -0.631,12.818 0.204,2.22 2.126,7.406 0.751,7.865 -1.375,0.464 -3.771,0.583 -3.771,0.583 z"
     id="path773" />
  <path
     style="fill:#231f20;fill-opacity:1;fill-rule:nonzero;stroke:none"
     d="m 224.989,46.656 c -2.26,0.084 -2.921,0.141 -2.62,-2.344 0.079,-0.63 0.423,-2.375 0.36,-2.76 -0.193,-1.287 -0.313,-2.787 1.901,-8.99 0.348,-0.958 0.687,-2.906 1.047,-4.26 0.343,-1.318 2.291,0.146 2.161,0.662 -0.417,1.666 -0.328,2.828 -0.39,3.442 -0.052,0.427 -0.266,1.208 -0.047,2.854 0.583,4.24 -0.672,5.521 -0.631,6.417 0.131,2.583 0.771,4.76 0.156,5.025 -0.989,0.448 -1.937,-0.046 -1.937,-0.046"
     id="path774" />
  <path
     style="fill:none;stroke:#231f20;stroke-width:0.565977;stroke-linecap:butt;stroke-linejoin:miter;stroke-miterlimit:4;stroke-dasharray:none;stroke-opacity:1"
     d="m 224.989,46.656 c -2.26,0.084 -2.921,0.141 -2.62,-2.344 0.079,-0.63 0.423,-2.375 0.36,-2.76 -0.193,-1.287 -0.313,-2.787 1.901,-8.99 0.348,-0.958 0.687,-2.906 1.047,-4.26 0.343,-1.318 2.291,0.146 2.161,0.662 -0.417,1.666 -0.328,2.828 -0.39,3.442 -0.052,0.427 -0.266,1.208 -0.047,2.854 0.583,4.24 -0.672,5.521 -0.631,6.417 0.131,2.583 0.771,4.76 0.156,5.025 -0.989,0.448 -1.937,-0.046 -1.937,-0.046 z"
     id="path775" />
  <path
     style="fill:#231f20;fill-opacity:1;fill-rule:nonzero;stroke:none"
     d="m 229.568,67.322 c 3.582,-0.41 3.072,-2.01 3.618,-6.057 0.59,-4.416 0.74,-9.093 -0.118,-12.281 -0.954,-3.552 -0.527,-3.843 -2.396,-4.291 -1.866,-0.443 -2.074,0.312 -3.058,1.14 -1.141,0.964 0.416,8.145 -0.385,12.833 -0.38,2.194 -2.704,7.208 -1.371,7.776 1.339,0.574 3.71,0.88 3.71,0.88"
     id="path776" />
  <path
     style="fill:none;stroke:#231f20;stroke-width:0.565977;stroke-linecap:butt;stroke-linejoin:miter;stroke-miterlimit:4;stroke-dasharray:none;stroke-opacity:1"
     d="m 229.568,67.322 c 3.582,-0.41 3.072,-2.01 3.618,-6.057 0.59,-4.416 0.74,-9.093 -0.118,-12.281 -0.954,-3.552 -0.527,-3.843 -2.396,-4.291 -1.866,-0.443 -2.074,0.312 -3.058,1.14 -1.141,0.964 0.416,8.145 -0.385,12.833 -0.38,2.194 -2.704,7.208 -1.371,7.776 1.339,0.574 3.71,0.88 3.71,0.88 z"
     id="path777" />
  <path
     style="fill:#231f20;fill-opacity:1;fill-rule:nonzero;stroke:none"
     d="m 229.577,46.666 c 2.251,0.255 2.907,0.355 2.787,-2.145 -0.036,-0.641 -0.25,-2.401 -0.162,-2.781 0.292,-1.262 0.522,-2.756 -1.238,-9.099 -0.272,-0.985 -0.47,-2.953 -0.724,-4.329 -0.251,-1.334 -2.298,-0.026 -2.204,0.505 0.292,1.688 0.114,2.839 0.136,3.459 0.02,0.432 0.186,1.218 -0.167,2.849 -0.891,4.183 0.276,5.557 0.161,6.448 -0.313,2.563 -1.114,4.687 -0.526,5.005 0.958,0.511 1.937,0.088 1.937,0.088"
     id="path778" />
  <path
     style="fill:none;stroke:#231f20;stroke-width:0.565977;stroke-linecap:butt;stroke-linejoin:miter;stroke-miterlimit:4;stroke-dasharray:none;stroke-opacity:1"
     d="m 229.577,46.666 c 2.251,0.255 2.907,0.355 2.787,-2.145 -0.036,-0.641 -0.25,-2.401 -0.162,-2.781 0.292,-1.262 0.522,-2.756 -1.238,-9.099 -0.272,-0.985 -0.47,-2.953 -0.724,-4.329 -0.251,-1.334 -2.298,-0.026 -2.204,0.505 0.292,1.688 0.114,2.839 0.136,3.459 0.02,0.432 0.186,1.218 -0.167,2.849 -0.891,4.183 0.276,5.557 0.161,6.448 -0.313,2.563 -1.114,4.687 -0.526,5.005 0.958,0.511 1.937,0.088 1.937,0.088 z"
     id="path779" />
  <path
     style="fill:#231f20;fill-opacity:1;fill-rule:nonzero;stroke:none"
     d="m 231.036,24.885 c 0.276,0.609 -0.963,1.923 -1.036,3.885 -0.016,0.407 -0.219,0.719 -0.366,1.068 -0.593,1.386 -1.894,2.318 -2.728,-1.421 -0.114,-0.516 0.318,-2.573 0.083,-3.319 -0.552,-1.786 1.12,-4.65 1.62,-4.505 1.073,0.313 2.427,4.292 2.427,4.292"
     id="path780" />
  <path
     style="fill:none;stroke:#231f20;stroke-width:0.644548;stroke-linecap:round;stroke-linejoin:round;stroke-miterlimit:4;stroke-dasharray:none;stroke-opacity:1"
     d="m 231.036,24.885 c 0.276,0.609 -0.963,1.923 -1.036,3.885 -0.016,0.407 -0.219,0.719 -0.366,1.068 -0.593,1.386 -1.894,2.318 -2.728,-1.421 -0.114,-0.516 0.318,-2.573 0.083,-3.319 -0.552,-1.786 1.12,-4.65 1.62,-4.505 1.073,0.313 2.427,4.292 2.427,4.292 z"
     id="path781" />
  <path
     style="fill:#231f20;fill-opacity:1;fill-rule:nonzero;stroke:none"
     d="m 224.896,24.588 c -0.339,0.568 0.744,2.01 0.582,3.974 -0.02,0.402 0.142,0.74 0.246,1.099 0.432,1.448 1.614,2.516 2.874,-1.099 0.172,-0.5 -0.016,-2.588 0.298,-3.312 0.749,-1.698 -0.584,-4.745 -1.095,-4.652 -1.099,0.188 -2.905,3.99 -2.905,3.99"
     id="path782" />
  <path
     style="fill:none;stroke:#231f20;stroke-width:0.644548;stroke-linecap:round;stroke-linejoin:round;stroke-miterlimit:4;stroke-dasharray:none;stroke-opacity:1"
     d="m 224.896,24.588 c -0.339,0.568 0.744,2.01 0.582,3.974 -0.02,0.402 0.142,0.74 0.246,1.099 0.432,1.448 1.614,2.516 2.874,-1.099 0.172,-0.5 -0.016,-2.588 0.298,-3.312 0.749,-1.698 -0.584,-4.745 -1.095,-4.652 -1.099,0.188 -2.905,3.99 -2.905,3.99 z"
     id="path783" />
  <path
     style="fill:#231f20;fill-opacity:1;fill-rule:nonzero;stroke:none"
     d="m 222.333,62.593 c 0.396,0.605 3.005,2.552 3.62,2.969 0.547,0.386 1.249,1.298 2.249,0.719 0.402,-0.235 0.828,-0.864 0.932,-1.167 0.084,-0.24 -0.114,-0.5 -0.462,-0.692 -0.579,-0.329 -0.876,-0.193 -2.027,-0.745 0,0 -0.292,-0.093 -0.817,-0.224 -1.588,-0.385 -0.932,-0.068 -3.099,-1.141 -0.152,-0.078 -0.344,0.021 -0.385,0.13 -0.063,0.167 -0.011,0.151 -0.011,0.151"
     id="path784" />
  <path
     style="fill:none;stroke:#231f20;stroke-width:0.565977;stroke-linecap:round;stroke-linejoin:round;stroke-miterlimit:4;stroke-dasharray:none;stroke-opacity:1"
     d="m 222.333,62.593 c 0.396,0.605 3.005,2.552 3.62,2.969 0.547,0.386 1.249,1.298 2.249,0.719 0.402,-0.235 0.828,-0.864 0.932,-1.167 0.084,-0.24 -0.114,-0.5 -0.462,-0.692 -0.579,-0.329 -0.876,-0.193 -2.027,-0.745 0,0 -0.292,-0.093 -0.817,-0.224 -1.588,-0.385 -0.932,-0.068 -3.099,-1.141 -0.152,-0.078 -0.344,0.021 -0.385,0.13 -0.063,0.167 -0.011,0.151 -0.011,0.151 z"
     id="path785" />
  <path
     style="fill:#0098c9;fill-opacity:1;fill-rule:nonzero;stroke:none"
     d="m 230.792,70.86 c 0.197,-0.715 2.025,-2.287 0.916,-1.715 l -0.334,-0.113 c -2.192,-2.215 -1.234,-7.986 -1.234,-7.986 0,0 -0.458,-0.577 -0.938,-0.718 -0.473,-0.14 -1.177,0.098 -1.177,0.098 0,0 -2.317,5.366 -5.359,6.043 l -0.344,-0.084 c -0.625,-1.083 0.063,1.224 -0.161,1.937 -0.975,3.095 -3.645,7.443 -4.604,8.376 -1.322,1.276 -3.937,1.036 -3.448,3.146 0,0 0.068,1.942 2.839,2.38 1.011,0.166 2.927,1.474 2.927,1.474 0,0 1.041,0.864 2.155,1.214 0.98,0.312 2.11,0.15 2.355,0.114 0,0 2.323,-0.062 3.255,0.343 2.573,1.136 3.704,-0.739 3.704,-0.739 1.546,-1.51 -0.798,-2.448 -1.215,-4.234 -0.307,-1.303 -0.192,-6.402 0.663,-9.536"
     id="path786" />
  <path
     style="fill:none;stroke:#231f20;stroke-width:0.565977;stroke-linecap:butt;stroke-linejoin:miter;stroke-miterlimit:4;stroke-dasharray:none;stroke-opacity:1"
     d="m 230.792,70.86 c 0.197,-0.715 2.025,-2.287 0.916,-1.715 l -0.334,-0.113 c -2.192,-2.215 -1.234,-7.986 -1.234,-7.986 0,0 -0.458,-0.577 -0.938,-0.718 -0.473,-0.14 -1.177,0.098 -1.177,0.098 0,0 -2.317,5.366 -5.359,6.043 l -0.344,-0.084 c -0.625,-1.083 0.063,1.224 -0.161,1.937 -0.975,3.095 -3.645,7.443 -4.604,8.376 -1.322,1.276 -3.937,1.036 -3.448,3.146 0,0 0.068,1.942 2.839,2.38 1.011,0.166 2.927,1.474 2.927,1.474 0,0 1.041,0.864 2.155,1.214 0.98,0.312 2.11,0.15 2.355,0.114 0,0 2.323,-0.062 3.255,0.343 2.573,1.136 3.704,-0.739 3.704,-0.739 1.546,-1.51 -0.798,-2.448 -1.215,-4.234 -0.307,-1.303 -0.192,-6.402 0.663,-9.536 z"
     id="path787" />
  <path
     style="fill:#0098c9;fill-opacity:1;fill-rule:nonzero;stroke:none"
     d="m 231.437,70.26 c 0.229,-0.266 0.989,-1.4 1.208,-1.812 1.355,-2.64 1.647,-6.588 2.032,-7.803 0.391,-1.213 -6.177,-1.78 -6.177,-1.78 l -0.907,1.156 C 227.192,59.546 227.416,60 227.416,60 l -0.818,-1.402 c 0,0 -6.401,-0.869 -6.349,0.147 0.068,1.391 -0.285,6.005 0.423,8.344 0.39,1.291 1.104,2.031 1.104,2.031 0,0 3.729,-0.73 5.15,-0.594 1.418,0.14 4.511,1.734 4.511,1.734"
     id="path788" />
  <path
     style="fill:none;stroke:#231f20;stroke-width:0.565977;stroke-linecap:butt;stroke-linejoin:miter;stroke-miterlimit:4;stroke-dasharray:none;stroke-opacity:1"
     d="m 231.437,70.26 c 0.229,-0.266 0.989,-1.4 1.208,-1.812 1.355,-2.64 1.647,-6.588 2.032,-7.803 0.391,-1.213 -6.177,-1.78 -6.177,-1.78 l -0.907,1.156 C 227.192,59.546 227.416,60 227.416,60 l -0.818,-1.402 c 0,0 -6.401,-0.869 -6.349,0.147 0.068,1.391 -0.285,6.005 0.423,8.344 0.39,1.291 1.104,2.031 1.104,2.031 0,0 3.729,-0.73 5.15,-0.594 1.418,0.14 4.511,1.734 4.511,1.734 z"
     id="path789" />
  <path
     style="fill:none;stroke:#231f20;stroke-width:0.565977;stroke-linecap:round;stroke-linejoin:round;stroke-miterlimit:4;stroke-dasharray:none;stroke-opacity:1"
     d="m 230.65,60.756 c -1.188,-1.355 -3.213,-0.595 -3.213,-0.595 -1.645,-0.807 -3.14,-0.213 -3.14,-0.213"
     id="path790" />
  <path
     style="fill:#231f20;fill-opacity:1;fill-rule:nonzero;stroke:none"
     d="m 262.708,26.406 c -1.11,0.771 -0.87,1.735 -0.031,2.344 0.255,0.182 0.281,0.594 0.536,0.75 0.604,0.365 2.287,-0.115 2.24,-1.615 0,-0.104 0.219,-0.896 0.291,-1.511 0.146,-1.202 -0.146,-3.681 -2.276,-5.333 -1.01,-0.787 -1.286,-0.047 -0.974,0.401 0.99,1.391 0.803,1.708 0.927,2.172 0.437,1.563 -0.713,2.792 -0.713,2.792"
     id="path791" />
  <path
     style="fill:none;stroke:#231f20;stroke-width:0.332927;stroke-linecap:butt;stroke-linejoin:miter;stroke-miterlimit:4;stroke-dasharray:none;stroke-opacity:1"
     d="m 262.708,26.406 c -1.11,0.771 -0.87,1.735 -0.031,2.344 0.255,0.182 0.281,0.594 0.536,0.75 0.604,0.365 2.287,-0.115 2.24,-1.615 0,-0.104 0.219,-0.896 0.291,-1.511 0.146,-1.202 -0.146,-3.681 -2.276,-5.333 -1.01,-0.787 -1.286,-0.047 -0.974,0.401 0.99,1.391 0.803,1.708 0.927,2.172 0.437,1.563 -0.713,2.792 -0.713,2.792 z"
     id="path792" />
  <path
     style="fill:#231f20;fill-opacity:1;fill-rule:nonzero;stroke:none"
     d="m 263.541,45.136 c -2.249,0.197 -2.719,-0.063 -2.864,-1.011 -0.104,-0.631 -0.412,-1.183 -0.491,-1.563 -0.254,-1.27 -0.17,-3.516 1.73,-9.817 0.437,-1.428 1.032,-3.437 1.209,-4.281 0.281,-1.328 2.291,0.036 2.181,0.557 -0.328,1.681 -0.421,2.864 -0.457,3.489 -0.027,0.427 -0.172,1.172 -0.057,2.839 0.166,2.52 0.65,4 0.546,6.115 -0.046,0.984 0.542,1.749 0.006,2.686 -0.532,0.948 -1.803,0.986 -1.803,0.986"
     id="path793" />
  <path
     style="fill:none;stroke:#231f20;stroke-width:0.565977;stroke-linecap:butt;stroke-linejoin:miter;stroke-miterlimit:4;stroke-dasharray:none;stroke-opacity:1"
     d="m 263.541,45.136 c -2.249,0.197 -2.719,-0.063 -2.864,-1.011 -0.104,-0.631 -0.412,-1.183 -0.491,-1.563 -0.254,-1.27 -0.17,-3.516 1.73,-9.817 0.437,-1.428 1.032,-3.437 1.209,-4.281 0.281,-1.328 2.291,0.036 2.181,0.557 -0.328,1.681 -0.421,2.864 -0.457,3.489 -0.027,0.427 -0.172,1.172 -0.057,2.839 0.166,2.52 0.65,4 0.546,6.115 -0.046,0.984 0.542,1.749 0.006,2.686 -0.532,0.948 -1.803,0.986 -1.803,0.986 z"
     id="path794" />
  <path
     style="fill:#0098c9;fill-opacity:1;fill-rule:nonzero;stroke:none"
     d="m 259.24,70.88 c 0.238,-3.124 -0.048,-3.823 -0.344,-4.698 -1.85,-5.48 0.869,-6.286 3.656,-5.541 3.281,0.859 4.473,1.109 3.401,7.307 -0.308,1.729 -0.595,8.494 -0.595,8.494 0.23,2.443 -0.853,4.932 -2.118,5.656 -1.334,0.762 -0.86,0.366 -2.22,0.844 -1.302,0.454 -3.447,0.036 -4.052,-1.041 -0.583,-1.036 0.25,-2.479 1.182,-4.719 0.73,-1.765 1.09,-6.302 1.09,-6.302"
     id="path795" />
  <path
     style="fill:none;stroke:#231f20;stroke-width:0.565977;stroke-linecap:butt;stroke-linejoin:miter;stroke-miterlimit:4;stroke-dasharray:none;stroke-opacity:1"
     d="m 259.24,70.88 c 0.238,-3.124 -0.048,-3.823 -0.344,-4.698 -1.85,-5.48 0.869,-6.286 3.656,-5.541 3.281,0.859 4.473,1.109 3.401,7.307 -0.308,1.729 -0.595,8.494 -0.595,8.494 0.23,2.443 -0.853,4.932 -2.118,5.656 -1.334,0.762 -0.86,0.366 -2.22,0.844 -1.302,0.454 -3.447,0.036 -4.052,-1.041 -0.583,-1.036 0.25,-2.479 1.182,-4.719 0.73,-1.765 1.09,-6.302 1.09,-6.302 z"
     id="path796" />
  <path
     style="fill:#ffffff;fill-opacity:1;fill-rule:nonzero;stroke:none"
     d="m 258.656,89.354 c -0.183,0.162 0.328,1.192 -0.12,1.458 -0.454,0.272 -1.016,-0.286 -2.995,-0.099 h -0.021 c -1.438,0.188 -2.766,-0.229 -3.495,-1.249 -1.197,-1.699 -0.301,-4.396 1.995,-6.027 2.308,-1.64 5.146,-1.583 6.349,0.104 1.151,1.62 0.38,4.167 -1.713,5.813"
     id="path797" />
  <path
     style="fill:none;stroke:#231f20;stroke-width:0.565977;stroke-linecap:butt;stroke-linejoin:miter;stroke-miterlimit:4;stroke-dasharray:none;stroke-opacity:1"
     d="m 258.656,89.354 c -0.183,0.162 0.328,1.192 -0.12,1.458 -0.454,0.272 -1.016,-0.286 -2.995,-0.099 h -0.021 c -1.438,0.188 -2.766,-0.229 -3.495,-1.249 -1.197,-1.699 -0.301,-4.396 1.995,-6.027 2.308,-1.64 5.146,-1.583 6.349,0.104 1.151,1.62 0.38,4.167 -1.713,5.813 z"
     id="path798" />
  <path
     style="fill:#231f20;fill-opacity:1;fill-rule:nonzero;stroke:none"
     d="m 262.77,42.792 c 3.948,-0.694 2.782,3.213 2.86,3.686 0.89,4.928 0.828,5.308 1.244,9.106 0.594,5.494 0.162,9.353 -2.932,10.634 -2.098,0.866 -3.688,0.459 -4.604,-0.484 -1.016,-1.052 -1.928,-4.098 -0.032,-6.276 l 0.282,-1.693 c 0.037,-1.161 0.068,-1.733 0.037,-2.307 -0.043,-1 -0.032,-2.078 -0.011,-4.036 0.036,-3.469 1.214,-7.125 1.214,-7.125 0.041,-1.245 1.942,-1.505 1.942,-1.505"
     id="path799" />
  <path
     style="fill:none;stroke:#231f20;stroke-width:0.565977;stroke-linecap:butt;stroke-linejoin:miter;stroke-miterlimit:4;stroke-dasharray:none;stroke-opacity:1"
     d="m 262.77,42.792 c 3.948,-0.694 2.782,3.213 2.86,3.686 0.89,4.928 0.828,5.308 1.244,9.106 0.594,5.494 0.162,9.353 -2.932,10.634 -2.098,0.866 -3.688,0.459 -4.604,-0.484 -1.016,-1.052 -1.928,-4.098 -0.032,-6.276 l 0.282,-1.693 c 0.037,-1.161 0.068,-1.733 0.037,-2.307 -0.043,-1 -0.032,-2.078 -0.011,-4.036 0.036,-3.469 1.214,-7.125 1.214,-7.125 0.041,-1.245 1.942,-1.505 1.942,-1.505 z"
     id="path800" />
  <path
     style="fill:#0098c9;fill-opacity:1;fill-rule:nonzero;stroke:none"
     d="m 267.374,61.808 c -0.016,-0.074 -0.025,-0.152 -0.03,-0.23 0.14,-0.568 0.265,-1.161 0.358,-1.813 l -7.781,-0.672 c -2.235,1.828 -1.844,4.985 -1.015,6.188 0.744,1.084 2.239,1.751 4.452,1.245 1.438,-0.328 2.438,-1.25 3.152,-2.63 0.667,-0.803 1.052,-1.303 0.864,-2.088"
     id="path801" />
  <path
     style="fill:none;stroke:#231f20;stroke-width:0.565977;stroke-linecap:butt;stroke-linejoin:miter;stroke-miterlimit:4;stroke-dasharray:none;stroke-opacity:1"
     d="m 267.374,61.808 c -0.016,-0.074 -0.025,-0.152 -0.03,-0.23 0.14,-0.568 0.265,-1.161 0.358,-1.813 l -7.781,-0.672 c -2.235,1.828 -1.844,4.985 -1.015,6.188 0.744,1.084 2.239,1.751 4.452,1.245 1.438,-0.328 2.438,-1.25 3.152,-2.63 0.667,-0.803 1.052,-1.303 0.864,-2.088 z"
     id="path802" />
  <path
     style="fill:#231f20;fill-opacity:1;fill-rule:nonzero;stroke:none"
     d="m 263.134,100.583 c 0.287,-0.573 -0.181,-2.463 0.058,-4.051 0.161,-1.074 -0.572,-3.72 -0.328,-4.776 0.213,-0.97 0.229,-1.434 -0.839,-1.876 -0.629,-0.26 -2.015,-0.359 -2.229,0.104 -0.51,1.078 -0.547,2.026 -0.359,3.078 0.208,1.198 1.063,4.396 1.271,4.974 0.532,1.422 0.302,2.125 0.406,2.515 0.198,0.735 0.531,0.844 1.031,0.823 0.964,-0.047 0.989,-0.791 0.989,-0.791"
     id="path803" />
  <path
     style="fill:none;stroke:#231f20;stroke-width:0.565977;stroke-linecap:butt;stroke-linejoin:miter;stroke-miterlimit:4;stroke-dasharray:none;stroke-opacity:1"
     d="m 263.134,100.583 c 0.287,-0.573 -0.181,-2.463 0.058,-4.051 0.161,-1.074 -0.572,-3.72 -0.328,-4.776 0.213,-0.97 0.229,-1.434 -0.839,-1.876 -0.629,-0.26 -2.015,-0.359 -2.229,0.104 -0.51,1.078 -0.547,2.026 -0.359,3.078 0.208,1.198 1.063,4.396 1.271,4.974 0.532,1.422 0.302,2.125 0.406,2.515 0.198,0.735 0.531,0.844 1.031,0.823 0.964,-0.047 0.989,-0.791 0.989,-0.791 z"
     id="path804" />
  <path
     style="fill:#231f20;fill-opacity:1;fill-rule:nonzero;stroke:none"
     d="m 262.213,91.573 c 1.265,-0.271 0.479,-2.151 0.349,-2.672 -0.13,-0.532 -0.333,-2.073 -0.333,-3.297 -0.005,-1.23 -0.537,-2.75 -0.547,-5.078 0,-1.224 -0.781,-2.412 -2.553,-2.328 -1.76,0.088 -2.369,1.104 -2.14,2.583 0.229,1.479 1.073,2.771 1.407,4.245 0.338,1.468 0.541,3.006 0.645,4.219 0.115,1.375 0.683,2.015 1.141,2.156 1.135,0.375 2.031,0.172 2.031,0.172"
     id="path805" />
  <path
     style="fill:none;stroke:#231f20;stroke-width:0.565977;stroke-linecap:butt;stroke-linejoin:miter;stroke-miterlimit:4;stroke-dasharray:none;stroke-opacity:1"
     d="m 262.213,91.573 c 1.265,-0.271 0.479,-2.151 0.349,-2.672 -0.13,-0.532 -0.333,-2.073 -0.333,-3.297 -0.005,-1.23 -0.537,-2.75 -0.547,-5.078 0,-1.224 -0.781,-2.412 -2.553,-2.328 -1.76,0.088 -2.369,1.104 -2.14,2.583 0.229,1.479 1.073,2.771 1.407,4.245 0.338,1.468 0.541,3.006 0.645,4.219 0.115,1.375 0.683,2.015 1.141,2.156 1.135,0.375 2.031,0.172 2.031,0.172 z"
     id="path806" />
  <path
     style="fill:#ffffff;fill-opacity:1;fill-rule:nonzero;stroke:none"
     d="m 261.234,104.291 c 0.635,0.807 1.802,0.948 2.61,0.318 0.812,-0.631 0.957,-1.802 0.322,-2.615 -0.63,-0.807 -1.802,-0.953 -2.614,-0.317 -0.808,0.634 -0.948,1.801 -0.318,2.614"
     id="path807" />
  <path
     style="fill:none;stroke:#231f20;stroke-width:1.33171;stroke-linecap:butt;stroke-linejoin:miter;stroke-miterlimit:4;stroke-dasharray:none;stroke-opacity:1"
     d="m 261.234,104.291 c 0.635,0.807 1.802,0.948 2.61,0.318 0.812,-0.631 0.957,-1.802 0.322,-2.615 -0.63,-0.807 -1.802,-0.953 -2.614,-0.317 -0.808,0.634 -0.948,1.801 -0.318,2.614 z"
     id="path808" />
  <path
     style="fill:#231f20;fill-opacity:1;fill-rule:nonzero;stroke:none"
     d="m 335.494,26.406 c 1.11,0.771 0.87,1.735 0.026,2.344 -0.25,0.182 -0.276,0.594 -0.536,0.75 -0.604,0.365 -2.282,-0.115 -2.235,-1.615 0,-0.104 -0.219,-0.896 -0.296,-1.511 -0.141,-1.202 0.145,-3.681 2.281,-5.333 1.01,-0.787 1.286,-0.047 0.974,0.401 -0.995,1.391 -0.807,1.708 -0.932,2.172 -0.438,1.563 0.718,2.792 0.718,2.792"
     id="path809" />
  <path
     style="fill:none;stroke:#231f20;stroke-width:0.332927;stroke-linecap:butt;stroke-linejoin:miter;stroke-miterlimit:4;stroke-dasharray:none;stroke-opacity:1"
     d="m 335.494,26.406 c 1.11,0.771 0.87,1.735 0.026,2.344 -0.25,0.182 -0.276,0.594 -0.536,0.75 -0.604,0.365 -2.282,-0.115 -2.235,-1.615 0,-0.104 -0.219,-0.896 -0.296,-1.511 -0.141,-1.202 0.145,-3.681 2.281,-5.333 1.01,-0.787 1.286,-0.047 0.974,0.401 -0.995,1.391 -0.807,1.708 -0.932,2.172 -0.438,1.563 0.718,2.792 0.718,2.792 z"
     id="path810" />
  <path
     style="fill:#231f20;fill-opacity:1;fill-rule:nonzero;stroke:none"
     d="m 334.656,45.136 c 2.254,0.197 2.724,-0.063 2.869,-1.011 0.1,-0.631 0.407,-1.183 0.485,-1.563 0.26,-1.27 0.172,-3.516 -1.724,-9.817 -0.437,-1.428 -1.032,-3.437 -1.209,-4.281 -0.281,-1.328 -2.296,0.036 -2.187,0.557 0.328,1.681 0.427,2.864 0.459,3.489 0.031,0.427 0.171,1.172 0.061,2.839 -0.17,2.52 -0.65,4 -0.546,6.115 0.042,0.984 -0.547,1.749 -0.006,2.686 0.532,0.948 1.798,0.986 1.798,0.986"
     id="path811" />
  <path
     style="fill:none;stroke:#231f20;stroke-width:0.565977;stroke-linecap:butt;stroke-linejoin:miter;stroke-miterlimit:4;stroke-dasharray:none;stroke-opacity:1"
     d="m 334.656,45.136 c 2.254,0.197 2.724,-0.063 2.869,-1.011 0.1,-0.631 0.407,-1.183 0.485,-1.563 0.26,-1.27 0.172,-3.516 -1.724,-9.817 -0.437,-1.428 -1.032,-3.437 -1.209,-4.281 -0.281,-1.328 -2.296,0.036 -2.187,0.557 0.328,1.681 0.427,2.864 0.459,3.489 0.031,0.427 0.171,1.172 0.061,2.839 -0.17,2.52 -0.65,4 -0.546,6.115 0.042,0.984 -0.547,1.749 -0.006,2.686 0.532,0.948 1.798,0.986 1.798,0.986 z"
     id="path812" />
  <path
     style="fill:#0098c9;fill-opacity:1;fill-rule:nonzero;stroke:none"
     d="m 338.958,70.88 c -0.24,-3.124 0.047,-3.823 0.343,-4.698 1.855,-5.48 -0.869,-6.286 -3.656,-5.541 -3.281,0.859 -4.468,1.109 -3.396,7.307 0.303,1.729 0.589,8.494 0.589,8.494 -0.224,2.443 0.859,4.932 2.12,5.656 1.339,0.762 0.864,0.366 2.224,0.844 1.302,0.454 3.443,0.036 4.047,-1.041 0.583,-1.036 -0.251,-2.479 -1.177,-4.719 -0.735,-1.765 -1.094,-6.302 -1.094,-6.302"
     id="path813" />
  <path
     style="fill:none;stroke:#231f20;stroke-width:0.565977;stroke-linecap:butt;stroke-linejoin:miter;stroke-miterlimit:4;stroke-dasharray:none;stroke-opacity:1"
     d="m 338.958,70.88 c -0.24,-3.124 0.047,-3.823 0.343,-4.698 1.855,-5.48 -0.869,-6.286 -3.656,-5.541 -3.281,0.859 -4.468,1.109 -3.396,7.307 0.303,1.729 0.589,8.494 0.589,8.494 -0.224,2.443 0.859,4.932 2.12,5.656 1.339,0.762 0.864,0.366 2.224,0.844 1.302,0.454 3.443,0.036 4.047,-1.041 0.583,-1.036 -0.251,-2.479 -1.177,-4.719 -0.735,-1.765 -1.094,-6.302 -1.094,-6.302 z"
     id="path814" />
  <path
     style="fill:#ffffff;fill-opacity:1;fill-rule:nonzero;stroke:none"
     d="m 339.546,89.354 c 0.183,0.162 -0.333,1.192 0.12,1.458 0.454,0.272 1.011,-0.286 2.99,-0.099 h 0.026 c 1.438,0.188 2.766,-0.229 3.49,-1.249 1.202,-1.699 0.306,-4.396 -1.99,-6.027 -2.308,-1.64 -5.152,-1.583 -6.354,0.104 -1.151,1.62 -0.375,4.167 1.718,5.813"
     id="path815" />
  <path
     style="fill:none;stroke:#231f20;stroke-width:0.565977;stroke-linecap:butt;stroke-linejoin:miter;stroke-miterlimit:4;stroke-dasharray:none;stroke-opacity:1"
     d="m 339.546,89.354 c 0.183,0.162 -0.333,1.192 0.12,1.458 0.454,0.272 1.011,-0.286 2.99,-0.099 h 0.026 c 1.438,0.188 2.766,-0.229 3.49,-1.249 1.202,-1.699 0.306,-4.396 -1.99,-6.027 -2.308,-1.64 -5.152,-1.583 -6.354,0.104 -1.151,1.62 -0.375,4.167 1.718,5.813 z"
     id="path816" />
  <path
     style="fill:#231f20;fill-opacity:1;fill-rule:nonzero;stroke:none"
     d="m 335.432,42.792 c -3.948,-0.694 -2.787,3.213 -2.864,3.686 -0.886,4.928 -0.828,5.308 -1.24,9.106 -0.599,5.494 -0.162,9.353 2.926,10.634 2.104,0.866 3.694,0.459 4.61,-0.484 1.016,-1.052 1.922,-4.098 0.026,-6.276 l -0.276,-1.693 c -0.041,-1.161 -0.073,-1.733 -0.041,-2.307 0.047,-1 0.031,-2.078 0.009,-4.036 -0.036,-3.469 -1.213,-7.125 -1.213,-7.125 -0.041,-1.245 -1.937,-1.505 -1.937,-1.505"
     id="path817" />
  <path
     style="fill:none;stroke:#231f20;stroke-width:0.565977;stroke-linecap:butt;stroke-linejoin:miter;stroke-miterlimit:4;stroke-dasharray:none;stroke-opacity:1"
     d="m 335.432,42.792 c -3.948,-0.694 -2.787,3.213 -2.864,3.686 -0.886,4.928 -0.828,5.308 -1.24,9.106 -0.599,5.494 -0.162,9.353 2.926,10.634 2.104,0.866 3.694,0.459 4.61,-0.484 1.016,-1.052 1.922,-4.098 0.026,-6.276 l -0.276,-1.693 c -0.041,-1.161 -0.073,-1.733 -0.041,-2.307 0.047,-1 0.031,-2.078 0.009,-4.036 -0.036,-3.469 -1.213,-7.125 -1.213,-7.125 -0.041,-1.245 -1.937,-1.505 -1.937,-1.505 z"
     id="path818" />
  <path
     style="fill:#0098c9;fill-opacity:1;fill-rule:nonzero;stroke:none"
     d="m 338.281,59.093 -7.787,0.672 c 0.099,0.652 0.224,1.245 0.364,1.813 -0.009,0.083 -0.014,0.162 -0.03,0.23 -0.188,0.785 0.192,1.285 0.864,2.082 0.709,1.386 1.709,2.308 3.146,2.636 2.214,0.506 3.708,-0.161 4.459,-1.245 0.828,-1.203 1.219,-4.36 -1.016,-6.188"
     id="path819" />
  <path
     style="fill:none;stroke:#231f20;stroke-width:0.565977;stroke-linecap:butt;stroke-linejoin:miter;stroke-miterlimit:4;stroke-dasharray:none;stroke-opacity:1"
     d="m 338.281,59.093 -7.787,0.672 c 0.099,0.652 0.224,1.245 0.364,1.813 -0.009,0.083 -0.014,0.162 -0.03,0.23 -0.188,0.785 0.192,1.285 0.864,2.082 0.709,1.386 1.709,2.308 3.146,2.636 2.214,0.506 3.708,-0.161 4.459,-1.245 0.828,-1.203 1.219,-4.36 -1.016,-6.188 z"
     id="path820" />
  <path
     style="fill:#231f20;fill-opacity:1;fill-rule:nonzero;stroke:none"
     d="m 335.068,100.583 c -0.292,-0.573 0.176,-2.463 -0.063,-4.051 -0.161,-1.074 0.577,-3.72 0.333,-4.776 -0.218,-0.97 -0.229,-1.434 0.834,-1.876 0.629,-0.26 2.014,-0.359 2.229,0.104 0.509,1.078 0.547,2.026 0.364,3.078 -0.208,1.198 -1.063,4.396 -1.271,4.974 -0.536,1.422 -0.308,2.125 -0.412,2.515 -0.197,0.735 -0.525,0.844 -1.03,0.823 -0.959,-0.047 -0.984,-0.791 -0.984,-0.791"
     id="path821" />
  <path
     style="fill:none;stroke:#231f20;stroke-width:0.565977;stroke-linecap:butt;stroke-linejoin:miter;stroke-miterlimit:4;stroke-dasharray:none;stroke-opacity:1"
     d="m 335.068,100.583 c -0.292,-0.573 0.176,-2.463 -0.063,-4.051 -0.161,-1.074 0.577,-3.72 0.333,-4.776 -0.218,-0.97 -0.229,-1.434 0.834,-1.876 0.629,-0.26 2.014,-0.359 2.229,0.104 0.509,1.078 0.547,2.026 0.364,3.078 -0.208,1.198 -1.063,4.396 -1.271,4.974 -0.536,1.422 -0.308,2.125 -0.412,2.515 -0.197,0.735 -0.525,0.844 -1.03,0.823 -0.959,-0.047 -0.984,-0.791 -0.984,-0.791 z"
     id="path822" />
  <path
     style="fill:#231f20;fill-opacity:1;fill-rule:nonzero;stroke:none"
     d="m 335.989,91.573 c -1.271,-0.271 -0.484,-2.151 -0.355,-2.672 0.136,-0.532 0.334,-2.073 0.334,-3.297 0.005,-1.23 0.537,-2.75 0.548,-5.078 0.004,-1.224 0.785,-2.412 2.557,-2.328 1.755,0.088 2.369,1.104 2.135,2.583 -0.224,1.479 -1.074,2.771 -1.402,4.245 -0.338,1.468 -0.546,3.006 -0.645,4.219 -0.12,1.375 -0.688,2.015 -1.145,2.156 -1.136,0.375 -2.027,0.172 -2.027,0.172"
     id="path823" />
  <path
     style="fill:none;stroke:#231f20;stroke-width:0.565977;stroke-linecap:butt;stroke-linejoin:miter;stroke-miterlimit:4;stroke-dasharray:none;stroke-opacity:1"
     d="m 335.989,91.573 c -1.271,-0.271 -0.484,-2.151 -0.355,-2.672 0.136,-0.532 0.334,-2.073 0.334,-3.297 0.005,-1.23 0.537,-2.75 0.548,-5.078 0.004,-1.224 0.785,-2.412 2.557,-2.328 1.755,0.088 2.369,1.104 2.135,2.583 -0.224,1.479 -1.074,2.771 -1.402,4.245 -0.338,1.468 -0.546,3.006 -0.645,4.219 -0.12,1.375 -0.688,2.015 -1.145,2.156 -1.136,0.375 -2.027,0.172 -2.027,0.172 z"
     id="path824" />
  <path
     style="fill:#ffffff;fill-opacity:1;fill-rule:nonzero;stroke:none"
     d="m 336.964,104.291 c -0.636,0.807 -1.798,0.948 -2.611,0.318 -0.807,-0.631 -0.952,-1.802 -0.317,-2.615 0.63,-0.807 1.802,-0.953 2.609,-0.317 0.808,0.634 0.953,1.801 0.319,2.614"
     id="path825" />
  <path
     style="fill:none;stroke:#231f20;stroke-width:1.33171;stroke-linecap:butt;stroke-linejoin:miter;stroke-miterlimit:4;stroke-dasharray:none;stroke-opacity:1"
     d="m 336.964,104.291 c -0.636,0.807 -1.798,0.948 -2.611,0.318 -0.807,-0.631 -0.952,-1.802 -0.317,-2.615 0.63,-0.807 1.802,-0.953 2.609,-0.317 0.808,0.634 0.953,1.801 0.319,2.614 z"
     id="path826" />
  <path
     style="fill:none;stroke:#231f20;stroke-width:0.399514;stroke-linecap:butt;stroke-linejoin:miter;stroke-miterlimit:4;stroke-dasharray:none;stroke-opacity:1"
     d="M 316.817,50.224 C 308.041,25.229 295.301,28.984 294.401,37.349"
     id="path827" />
  <path
     style="fill:#231f20;fill-opacity:1;fill-rule:nonzero;stroke:none"
     d="m 294.27,38.552 c -0.145,-0.588 -0.426,-1.328 -0.76,-1.802 l 0.906,0.443 0.985,-0.24 c -0.428,0.396 -0.86,1.057 -1.131,1.599"
     id="path828" />
  <path
     style="fill:none;stroke:#231f20;stroke-width:0.399514;stroke-linecap:butt;stroke-linejoin:miter;stroke-miterlimit:4;stroke-dasharray:none;stroke-opacity:1"
     d="M 240.186,53.494 C 231.41,28.5 218.672,32.254 217.771,40.625"
     id="path829" />
  <path
     style="fill:#231f20;fill-opacity:1;fill-rule:nonzero;stroke:none"
     d="m 217.64,41.822 c -0.145,-0.588 -0.432,-1.322 -0.76,-1.801 l 0.907,0.443 0.978,-0.235 c -0.421,0.391 -0.854,1.052 -1.125,1.593"
     id="path830" />
  <path
     style="fill:#231f20;fill-opacity:1;fill-rule:nonzero;stroke:#231f20;stroke-width:0.565977;stroke-linecap:round;stroke-linejoin:round;stroke-miterlimit:4;stroke-dasharray:none;stroke-opacity:1"
     d="m 293.718,86.406 c 0,0 1.063,0.782 2.214,0.959 1.15,0.171 2.464,-0.152 2.464,-0.152 l 0.552,-3.244 -4.719,-0.803 z"
     id="path831" />
  <path
     style="fill:#231f20;fill-opacity:1;fill-rule:nonzero;stroke:none"
     d="m 301.968,69.729 c 3.6,-0.079 3.245,-1.719 4.161,-5.693 1.011,-4.343 1.6,-8.984 1.043,-12.234 -0.62,-3.636 -0.167,-3.89 -1.986,-4.505 -1.817,-0.609 -2.082,0.125 -3.145,0.853 -1.229,0.839 -0.355,8.147 -1.593,12.735 -0.584,2.151 -3.371,6.927 -2.095,7.615 1.277,0.698 3.615,1.229 3.615,1.229"
     id="path832" />
  <path
     style="fill:none;stroke:#231f20;stroke-width:0.565977;stroke-linecap:butt;stroke-linejoin:miter;stroke-miterlimit:4;stroke-dasharray:none;stroke-opacity:1"
     d="m 301.968,69.729 c 3.6,-0.079 3.245,-1.719 4.161,-5.693 1.011,-4.343 1.6,-8.984 1.043,-12.234 -0.62,-3.636 -0.167,-3.89 -1.986,-4.505 -1.817,-0.609 -2.082,0.125 -3.145,0.853 -1.229,0.839 -0.355,8.147 -1.593,12.735 -0.584,2.151 -3.371,6.927 -2.095,7.615 1.277,0.698 3.615,1.229 3.615,1.229 z"
     id="path833" />
  <path
     style="fill:#231f20;fill-opacity:1;fill-rule:nonzero;stroke:none"
     d="m 303.896,49.145 c 2.208,0.475 2.848,0.641 2.978,-1.859 0.036,-0.636 -0.005,-2.417 0.12,-2.781 0.416,-1.229 0.798,-2.693 -0.322,-9.183 -0.172,-1.01 -0.172,-2.978 -0.292,-4.38 -0.115,-1.354 -2.287,-0.244 -2.246,0.287 0.126,1.708 -0.166,2.839 -0.208,3.459 -0.025,0.426 0.058,1.229 -0.448,2.812 -1.306,4.078 -0.286,5.557 -0.484,6.437 -0.568,2.516 -1.578,4.552 -1.021,4.923 0.896,0.604 1.923,0.285 1.923,0.285"
     id="path834" />
  <path
     style="fill:none;stroke:#231f20;stroke-width:0.565977;stroke-linecap:butt;stroke-linejoin:miter;stroke-miterlimit:4;stroke-dasharray:none;stroke-opacity:1"
     d="m 303.896,49.145 c 2.208,0.475 2.848,0.641 2.978,-1.859 0.036,-0.636 -0.005,-2.417 0.12,-2.781 0.416,-1.229 0.798,-2.693 -0.322,-9.183 -0.172,-1.01 -0.172,-2.978 -0.292,-4.38 -0.115,-1.354 -2.287,-0.244 -2.246,0.287 0.126,1.708 -0.166,2.839 -0.208,3.459 -0.025,0.426 0.058,1.229 -0.448,2.812 -1.306,4.078 -0.286,5.557 -0.484,6.437 -0.568,2.516 -1.578,4.552 -1.021,4.923 0.896,0.604 1.923,0.285 1.923,0.285 z"
     id="path835" />
  <path
     style="fill:#231f20;fill-opacity:1;fill-rule:nonzero;stroke:none"
     d="m 295.817,68.713 c -3.459,-1.02 -2.677,-2.515 -2.52,-6.588 0.176,-4.453 0.837,-9.089 2.233,-12.073 1.558,-3.344 1.188,-3.719 3.1,-3.818 1.916,-0.114 1.984,0.662 2.818,1.651 0.958,1.136 -1.814,7.953 -1.828,12.703 -0.011,2.229 1.416,7.562 0.005,7.901 -1.417,0.328 -3.808,0.224 -3.808,0.224"
     id="path836" />
  <path
     style="fill:none;stroke:#231f20;stroke-width:0.565977;stroke-linecap:butt;stroke-linejoin:miter;stroke-miterlimit:4;stroke-dasharray:none;stroke-opacity:1"
     d="m 295.817,68.713 c -3.459,-1.02 -2.677,-2.515 -2.52,-6.588 0.176,-4.453 0.837,-9.089 2.233,-12.073 1.558,-3.344 1.188,-3.719 3.1,-3.818 1.916,-0.114 1.984,0.662 2.818,1.651 0.958,1.136 -1.814,7.953 -1.828,12.703 -0.011,2.229 1.416,7.562 0.005,7.901 -1.417,0.328 -3.808,0.224 -3.808,0.224 z"
     id="path837" />
  <path
     style="fill:#0098c9;fill-opacity:1;fill-rule:nonzero;stroke:none"
     d="m 300.276,62.125 c 0.484,0.083 1.01,0.609 1.01,0.609 0,0 -0.27,5.834 2.162,7.776 l 0.353,0.078 c 1.032,-0.698 -0.599,1.068 -0.713,1.808 -0.479,3.218 0.01,8.292 0.464,9.552 0.63,1.713 3.082,2.65 1.724,4.338 0,0 -0.923,1.714 -3.61,0.896 -0.969,-0.302 -3.27,0.036 -3.27,0.036 0.014,-0.041 0.03,-0.077 0.041,-0.114 0.208,-1.239 -0.729,-2.12 -2.041,-2.364 l 0.072,0.016 c -1.323,-0.21 -2.504,0.374 -2.703,1.556 -0.011,0.037 -0.011,0.078 -0.005,0.12 0,0 -2.063,-1.078 -3.078,-1.115 -2.808,-0.115 -2.996,-2.296 -2.996,-2.296 -0.733,-2.037 1.787,-1.849 2.944,-3.271 0.838,-1.032 2.984,-5.661 3.594,-8.86 0.134,-0.729 -0.823,-2.942 -0.074,-1.948 l 0.355,0.052 c 2.937,-1.03 4.609,-6.629 4.609,-6.629 0,0 0.672,-0.324 1.162,-0.24"
     id="path838" />
  <path
     style="fill:none;stroke:#231f20;stroke-width:0.565977;stroke-linecap:butt;stroke-linejoin:miter;stroke-miterlimit:4;stroke-dasharray:none;stroke-opacity:1"
     d="m 300.276,62.125 c 0.484,0.083 1.01,0.609 1.01,0.609 0,0 -0.27,5.834 2.162,7.776 l 0.353,0.078 c 1.032,-0.698 -0.599,1.068 -0.713,1.808 -0.479,3.218 0.01,8.292 0.464,9.552 0.63,1.713 3.082,2.65 1.724,4.338 0,0 -0.923,1.714 -3.61,0.896 -0.969,-0.302 -3.27,0.036 -3.27,0.036 0.014,-0.041 0.03,-0.077 0.041,-0.114 0.208,-1.239 -0.729,-2.12 -2.041,-2.364 l 0.072,0.016 c -1.323,-0.21 -2.504,0.374 -2.703,1.556 -0.011,0.037 -0.011,0.078 -0.005,0.12 0,0 -2.063,-1.078 -3.078,-1.115 -2.808,-0.115 -2.996,-2.296 -2.996,-2.296 -0.733,-2.037 1.787,-1.849 2.944,-3.271 0.838,-1.032 2.984,-5.661 3.594,-8.86 0.134,-0.729 -0.823,-2.942 -0.074,-1.948 l 0.355,0.052 c 2.937,-1.03 4.609,-6.629 4.609,-6.629 0,0 0.672,-0.324 1.162,-0.24 z"
     id="path839" />
  <path
     style="fill:#ffffff;fill-opacity:1;fill-rule:nonzero;stroke:none"
     d="m 292.494,91.672 c -0.062,-2.823 1.568,-5.151 3.646,-5.198 2.073,-0.048 3.808,2.208 3.87,5.031 0.063,2.823 -1.568,5.151 -3.646,5.193 -2.072,0.047 -3.812,-2.204 -3.87,-5.026"
     id="path840" />
  <path
     style="fill:none;stroke:#231f20;stroke-width:0.565977;stroke-linecap:butt;stroke-linejoin:miter;stroke-miterlimit:4;stroke-dasharray:none;stroke-opacity:1"
     d="m 292.494,91.672 c -0.062,-2.823 1.568,-5.151 3.646,-5.198 2.073,-0.048 3.808,2.208 3.87,5.031 0.063,2.823 -1.568,5.151 -3.646,5.193 -2.072,0.047 -3.812,-2.204 -3.87,-5.026 z"
     id="path841" />
  <path
     style="fill:#231f20;fill-opacity:1;fill-rule:nonzero;stroke:none"
     d="m 299.369,48.365 c -2.26,-0.141 -2.916,-0.152 -2.375,-2.595 0.146,-0.62 0.662,-2.317 0.636,-2.713 -0.062,-1.292 -0.037,-2.803 2.791,-8.749 0.437,-0.923 0.975,-2.824 1.464,-4.136 0.468,-1.276 2.265,0.369 2.083,0.874 -0.583,1.61 -0.604,2.776 -0.734,3.386 -0.094,0.422 -0.39,1.172 -0.328,2.833 0.162,4.276 -1.229,5.423 -1.272,6.323 -0.124,2.578 0.298,4.813 -0.337,5.021 -1.032,0.339 -1.928,-0.244 -1.928,-0.244"
     id="path842" />
  <path
     style="fill:none;stroke:#231f20;stroke-width:0.565977;stroke-linecap:butt;stroke-linejoin:miter;stroke-miterlimit:4;stroke-dasharray:none;stroke-opacity:1"
     d="m 299.369,48.365 c -2.26,-0.141 -2.916,-0.152 -2.375,-2.595 0.146,-0.62 0.662,-2.317 0.636,-2.713 -0.062,-1.292 -0.037,-2.803 2.791,-8.749 0.437,-0.923 0.975,-2.824 1.464,-4.136 0.468,-1.276 2.265,0.369 2.083,0.874 -0.583,1.61 -0.604,2.776 -0.734,3.386 -0.094,0.422 -0.39,1.172 -0.328,2.833 0.162,4.276 -1.229,5.423 -1.272,6.323 -0.124,2.578 0.298,4.813 -0.337,5.021 -1.032,0.339 -1.928,-0.244 -1.928,-0.244 z"
     id="path843" />
  <path
     style="fill:#0098c9;fill-opacity:1;fill-rule:nonzero;stroke:none"
     d="m 293.948,68.865 c -0.172,-0.308 -0.636,-1.589 -0.751,-2.043 -0.681,-2.89 -0.036,-6.786 -0.124,-8.057 -0.089,-1.271 6.427,-0.271 6.427,-0.271 l 0.197,1.948 c 0.511,-0.369 0.985,0.131 0.985,0.131 l 0.724,-1.885 c 0,0 6.427,0.681 6.14,1.645 -0.401,1.333 -1.145,5.901 -2.396,8.011 -0.682,1.156 -1.546,1.713 -1.546,1.713 0,0 -3.454,-1.599 -4.87,-1.803 -1.406,-0.197 -4.786,0.611 -4.786,0.611"
     id="path844" />
  <path
     style="fill:none;stroke:#231f20;stroke-width:0.565977;stroke-linecap:butt;stroke-linejoin:miter;stroke-miterlimit:4;stroke-dasharray:none;stroke-opacity:1"
     d="m 293.948,68.865 c -0.172,-0.308 -0.636,-1.589 -0.751,-2.043 -0.681,-2.89 -0.036,-6.786 -0.124,-8.057 -0.089,-1.271 6.427,-0.271 6.427,-0.271 l 0.197,1.948 c 0.511,-0.369 0.985,0.131 0.985,0.131 l 0.724,-1.885 c 0,0 6.427,0.681 6.14,1.645 -0.401,1.333 -1.145,5.901 -2.396,8.011 -0.682,1.156 -1.546,1.713 -1.546,1.713 0,0 -3.454,-1.599 -4.87,-1.803 -1.406,-0.197 -4.786,0.611 -4.786,0.611 z"
     id="path845" />
  <path
     style="fill:#231f20;fill-opacity:1;fill-rule:nonzero;stroke:none"
     d="m 301.686,26.661 c -0.374,0.552 0.62,2.057 0.35,4.005 -0.052,0.402 0.093,0.751 0.177,1.11 0.344,1.469 1.469,2.609 2.937,-0.927 0.199,-0.489 0.131,-2.589 0.484,-3.281 0.855,-1.662 -0.301,-4.782 -0.812,-4.719 -1.114,0.125 -3.136,3.812 -3.136,3.812"
     id="path846" />
  <path
     style="fill:none;stroke:#231f20;stroke-width:0.644548;stroke-linecap:round;stroke-linejoin:round;stroke-miterlimit:4;stroke-dasharray:none;stroke-opacity:1"
     d="m 301.686,26.661 c -0.374,0.552 0.62,2.057 0.35,4.005 -0.052,0.402 0.093,0.751 0.177,1.11 0.344,1.469 1.469,2.609 2.937,-0.927 0.199,-0.489 0.131,-2.589 0.484,-3.281 0.855,-1.662 -0.301,-4.782 -0.812,-4.719 -1.114,0.125 -3.136,3.812 -3.136,3.812 z"
     id="path847" />
  <path
     style="fill:#231f20;fill-opacity:1;fill-rule:nonzero;stroke:none"
     d="m 307.781,27.422 c 0.244,0.614 -1.068,1.854 -1.256,3.818 -0.047,0.401 -0.265,0.702 -0.427,1.036 -0.672,1.354 -2.03,2.198 -2.64,-1.578 -0.089,-0.521 0.463,-2.548 0.276,-3.308 -0.453,-1.806 1.386,-4.578 1.875,-4.401 1.052,0.376 2.172,4.433 2.172,4.433"
     id="path848" />
  <path
     style="fill:none;stroke:#231f20;stroke-width:0.644548;stroke-linecap:round;stroke-linejoin:round;stroke-miterlimit:4;stroke-dasharray:none;stroke-opacity:1"
     d="m 307.781,27.422 c 0.244,0.614 -1.068,1.854 -1.256,3.818 -0.047,0.401 -0.265,0.702 -0.427,1.036 -0.672,1.354 -2.03,2.198 -2.64,-1.578 -0.089,-0.521 0.463,-2.548 0.276,-3.308 -0.453,-1.806 1.386,-4.578 1.875,-4.401 1.052,0.376 2.172,4.433 2.172,4.433 z"
     id="path849" />
  <path
     style="fill:#231f20;fill-opacity:1;fill-rule:nonzero;stroke:none"
     d="m 302.369,102.723 c 0.584,-0.26 1.407,-2.025 2.589,-3.114 0.802,-0.735 1.895,-3.26 2.75,-3.921 0.776,-0.62 1.078,-0.98 0.516,-1.986 -0.318,-0.598 -1.334,-1.541 -1.798,-1.317 -1.073,0.521 -1.692,1.229 -2.208,2.156 -0.593,1.068 -1.937,4.089 -2.136,4.677 -0.484,1.443 -1.098,1.839 -1.26,2.213 -0.312,0.694 -0.13,0.986 0.282,1.287 0.776,0.563 1.265,0.005 1.265,0.005"
     id="path850" />
  <path
     style="fill:none;stroke:#231f20;stroke-width:0.565977;stroke-linecap:butt;stroke-linejoin:miter;stroke-miterlimit:4;stroke-dasharray:none;stroke-opacity:1"
     d="m 302.369,102.723 c 0.584,-0.26 1.407,-2.025 2.589,-3.114 0.802,-0.735 1.895,-3.26 2.75,-3.921 0.776,-0.62 1.078,-0.98 0.516,-1.986 -0.318,-0.598 -1.334,-1.541 -1.798,-1.317 -1.073,0.521 -1.692,1.229 -2.208,2.156 -0.593,1.068 -1.937,4.089 -2.136,4.677 -0.484,1.443 -1.098,1.839 -1.26,2.213 -0.312,0.694 -0.13,0.986 0.282,1.287 0.776,0.563 1.265,0.005 1.265,0.005 z"
     id="path851" />
  <path
     style="fill:#231f20;fill-opacity:1;fill-rule:nonzero;stroke:none"
     d="m 307.754,94.812 c 1.235,-0.406 0.251,-2.187 0.068,-2.698 -0.182,-0.51 -0.546,-2.025 -0.682,-3.24 -0.13,-1.218 -0.812,-2.681 -1.063,-4.994 -0.135,-1.219 -1.031,-2.318 -2.791,-2.047 -1.734,0.271 -2.24,1.344 -1.849,2.792 0.375,1.448 1.355,2.64 1.839,4.073 0.489,1.432 0.849,2.932 1.077,4.124 0.261,1.355 0.901,1.934 1.36,2.032 1.177,0.25 2.041,-0.042 2.041,-0.042"
     id="path852" />
  <path
     style="fill:none;stroke:#231f20;stroke-width:0.565977;stroke-linecap:butt;stroke-linejoin:miter;stroke-miterlimit:4;stroke-dasharray:none;stroke-opacity:1"
     d="m 307.754,94.812 c 1.235,-0.406 0.251,-2.187 0.068,-2.698 -0.182,-0.51 -0.546,-2.025 -0.682,-3.24 -0.13,-1.218 -0.812,-2.681 -1.063,-4.994 -0.135,-1.219 -1.031,-2.318 -2.791,-2.047 -1.734,0.271 -2.24,1.344 -1.849,2.792 0.375,1.448 1.355,2.64 1.839,4.073 0.489,1.432 0.849,2.932 1.077,4.124 0.261,1.355 0.901,1.934 1.36,2.032 1.177,0.25 2.041,-0.042 2.041,-0.042 z"
     id="path853" />
  <path
     style="fill:#231f20;fill-opacity:1;fill-rule:nonzero;stroke:none"
     d="m 282.582,100.084 c 0.308,-0.574 -0.134,-2.464 0.12,-4.052 0.188,-1.074 -0.516,-3.724 -0.254,-4.778 0.234,-0.968 0.244,-1.432 -0.814,-1.885 -0.624,-0.276 -2,-0.385 -2.233,0.068 -0.516,1.068 -0.568,2.016 -0.407,3.073 0.198,1.198 1,4.411 1.208,4.99 0.506,1.437 0.266,2.136 0.371,2.521 0.176,0.744 0.515,0.853 1.009,0.833 0.964,-0.027 1,-0.77 1,-0.77"
     id="path854" />
  <path
     style="fill:none;stroke:#231f20;stroke-width:0.565977;stroke-linecap:butt;stroke-linejoin:miter;stroke-miterlimit:4;stroke-dasharray:none;stroke-opacity:1"
     d="m 282.582,100.084 c 0.308,-0.574 -0.134,-2.464 0.12,-4.052 0.188,-1.074 -0.516,-3.724 -0.254,-4.778 0.234,-0.968 0.244,-1.432 -0.814,-1.885 -0.624,-0.276 -2,-0.385 -2.233,0.068 -0.516,1.068 -0.568,2.016 -0.407,3.073 0.198,1.198 1,4.411 1.208,4.99 0.506,1.437 0.266,2.136 0.371,2.521 0.176,0.744 0.515,0.853 1.009,0.833 0.964,-0.027 1,-0.77 1,-0.77 z"
     id="path855" />
  <path
     style="fill:#231f20;fill-opacity:1;fill-rule:nonzero;stroke:none"
     d="m 280.702,91.532 c 0.871,0.962 2.104,-0.652 2.495,-1.027 0.396,-0.375 1.636,-1.317 2.693,-1.927 1.063,-0.614 2.126,-1.833 4.135,-3 1.057,-0.614 1.704,-1.876 0.745,-3.37 -0.942,-1.484 -2.13,-1.515 -3.302,-0.572 -1.167,0.937 -1.87,2.306 -2.984,3.322 -1.11,1.026 -2.339,1.968 -3.339,2.662 -1.129,0.786 -1.401,1.604 -1.301,2.062 0.238,1.172 0.858,1.85 0.858,1.85"
     id="path856" />
  <path
     style="fill:none;stroke:#231f20;stroke-width:0.565977;stroke-linecap:butt;stroke-linejoin:miter;stroke-miterlimit:4;stroke-dasharray:none;stroke-opacity:1"
     d="m 280.702,91.532 c 0.871,0.962 2.104,-0.652 2.495,-1.027 0.396,-0.375 1.636,-1.317 2.693,-1.927 1.063,-0.614 2.126,-1.833 4.135,-3 1.057,-0.614 1.704,-1.876 0.745,-3.37 -0.942,-1.484 -2.13,-1.515 -3.302,-0.572 -1.167,0.937 -1.87,2.306 -2.984,3.322 -1.11,1.026 -2.339,1.968 -3.339,2.662 -1.129,0.786 -1.401,1.604 -1.301,2.062 0.238,1.172 0.858,1.85 0.858,1.85 z"
     id="path857" />
  <path
     style="fill:#231f20;fill-opacity:1;fill-rule:nonzero;stroke:none"
     d="m 282.317,106.275 c -0.407,-0.614 -1.156,-3.77 -1.292,-4.5 -0.129,-0.656 -0.692,-1.661 0.235,-2.349 0.38,-0.281 1.12,-0.421 1.442,-0.394 0.256,0.02 0.418,0.306 0.454,0.702 0.062,0.661 -0.172,0.88 -0.12,2.156 0,0 -0.036,0.303 -0.13,0.844 -0.272,1.604 -0.302,0.875 -0.177,3.292 0.011,0.167 -0.156,0.301 -0.271,0.301 -0.177,-0.01 -0.141,-0.052 -0.141,-0.052"
     id="path858" />
  <path
     style="fill:none;stroke:#231f20;stroke-width:0.565977;stroke-linecap:round;stroke-linejoin:round;stroke-miterlimit:4;stroke-dasharray:none;stroke-opacity:1"
     d="m 282.317,106.275 c -0.407,-0.614 -1.156,-3.77 -1.292,-4.5 -0.129,-0.656 -0.692,-1.661 0.235,-2.349 0.38,-0.281 1.12,-0.421 1.442,-0.394 0.256,0.02 0.418,0.306 0.454,0.702 0.062,0.661 -0.172,0.88 -0.12,2.156 0,0 -0.036,0.303 -0.13,0.844 -0.272,1.604 -0.302,0.875 -0.177,3.292 0.011,0.167 -0.156,0.301 -0.271,0.301 -0.177,-0.01 -0.141,-0.052 -0.141,-0.052 z"
     id="path859" />
</svg>
