<?xml version="1.0" encoding="UTF-8" standalone="no"?>
<!-- Created with Inkscape (http://www.inkscape.org/) -->

<svg
   version="1.1"
   id="svg1"
   width="326.46716"
   height="125.80286"
   viewBox="0 0 326.46715 125.80286"
   sodipodi:docname="cell.svg"
   xmlns:inkscape="http://www.inkscape.org/namespaces/inkscape"
   xmlns:sodipodi="http://sodipodi.sourceforge.net/DTD/sodipodi-0.dtd"
   xmlns="http://www.w3.org/2000/svg"
   xmlns:svg="http://www.w3.org/2000/svg">
  <sodipodi:namedview
     id="namedview1"
     pagecolor="#ffffff"
     bordercolor="#000000"
     borderopacity="0.25"
     inkscape:showpageshadow="2"
     inkscape:pageopacity="0.0"
     inkscape:pagecheckerboard="0"
     inkscape:deskcolor="#d1d1d1">
    <inkscape:page
       x="0"
       y="0"
       inkscape:label="1"
       id="page1"
       width="326.46716"
       height="125.80286"
       margin="0"
       bleed="0" />
  </sodipodi:namedview>
  <defs
     id="defs1" />
  <path
     style="fill:#231f20;fill-opacity:1;fill-rule:nonzero;stroke:none"
     d="m 3.8329217,21.601842 c 1.3282,0.249 1.5052,1.224 0.9896,2.125 -0.1458,0.271 0,0.661 -0.1776,0.905 -0.3948,0.584 -2.1188,0.839 -2.7026,-0.546 -0.0411,-0.094 -0.5682,-0.719 -0.8906,-1.25 -0.63080003,-1.037 -1.39060003,-3.417 -0.12560003,-5.797 0.58960003,-1.136 1.14700003,-0.573 1.04700003,-0.041 -0.3282,1.681 -0.0256,1.896 0.0478,2.364 0.2495,1.604 1.812,2.24 1.812,2.24"
     id="path216" />
  <path
     style="fill:none;stroke:#231f20;stroke-width:0.332927;stroke-linecap:butt;stroke-linejoin:miter;stroke-miterlimit:4;stroke-dasharray:none;stroke-opacity:1"
     d="m 3.8329217,21.601842 c 1.3282,0.249 1.5052,1.224 0.9896,2.125 -0.1458,0.271 0,0.661 -0.1776,0.905 -0.3948,0.584 -2.1188,0.839 -2.7026,-0.546 -0.0411,-0.094 -0.5682,-0.719 -0.8906,-1.25 -0.63080003,-1.037 -1.39060003,-3.417 -0.12560003,-5.797 0.58960003,-1.136 1.14700003,-0.573 1.04700003,-0.041 -0.3282,1.681 -0.0256,1.896 0.0478,2.364 0.2495,1.604 1.812,2.24 1.812,2.24 z"
     id="path217" />
  <path
     style="fill:#231f20;fill-opacity:1;fill-rule:nonzero;stroke:none"
     d="m 10.822522,39.006842 c 2.1359,-0.755 2.4479,-1.187 2.1932,-2.109 -0.1724,-0.619 -0.1203,-1.25 -0.2093,-1.624 -0.2855,-1.267 -1.2964,-3.276 -5.6350003,-8.224 -0.9838,-1.12 -2.3598,-2.704 -2.865,-3.402 -0.8068,-1.088 -2.0776,0.984 -1.7656,1.416 1,1.396 1.5785,2.434 1.8708,2.98 0.1973,0.386 0.6401,1 1.224,2.563 0.8853,2.364 1.0613,3.911 2.0306,5.796 0.4479,0.876 0.2292,1.813 1.1094,2.448 0.8745,0.636 2.0469003,0.156 2.0469003,0.156"
     id="path218" />
  <path
     style="fill:none;stroke:#231f20;stroke-width:0.565977;stroke-linecap:butt;stroke-linejoin:miter;stroke-miterlimit:4;stroke-dasharray:none;stroke-opacity:1"
     d="m 10.822522,39.006842 c 2.1359,-0.755 2.4479,-1.187 2.1932,-2.109 -0.1724,-0.619 -0.1203,-1.25 -0.2093,-1.624 -0.2855,-1.267 -1.2964,-3.276 -5.6350003,-8.224 -0.9838,-1.12 -2.3598,-2.704 -2.865,-3.402 -0.8068,-1.088 -2.0776,0.984 -1.7656,1.416 1,1.396 1.5785,2.434 1.8708,2.98 0.1973,0.386 0.6401,1 1.224,2.563 0.8853,2.364 1.0613,3.911 2.0306,5.796 0.4479,0.876 0.2292,1.813 1.1094,2.448 0.8745,0.636 2.0469003,0.156 2.0469003,0.156 z"
     id="path219" />
  <path
     style="fill:#0098c9;fill-opacity:1;fill-rule:nonzero;stroke:none"
     d="m 21.551722,63.402842 c 0.0265,-3.13 0.3692,-3.802 0.7452,-4.646 2.3068,-5.297 -0.3334,-6.338 -3.1719,-5.833 -3.3442,0.579 -4.552,0.724 -4.0109,7 0.1615,1.745 -0.1307,8.511 -0.1307,8.511 -0.4265,2.405 0.4375,4.984 1.6359,5.812 1.2657,0.869 0.8281,0.432 2.1453,1.032 1.2563,0.566 3.4281,0.328 4.1152,-0.699 0.6719,-0.984 -0.0365,-2.489 -0.7709,-4.797 -0.5787,-1.823 -0.5572,-6.38 -0.5572,-6.38"
     id="path220" />
  <path
     style="fill:none;stroke:#231f20;stroke-width:0.565977;stroke-linecap:butt;stroke-linejoin:miter;stroke-miterlimit:4;stroke-dasharray:none;stroke-opacity:1"
     d="m 21.551722,63.402842 c 0.0265,-3.13 0.3692,-3.802 0.7452,-4.646 2.3068,-5.297 -0.3334,-6.338 -3.1719,-5.833 -3.3442,0.579 -4.552,0.724 -4.0109,7 0.1615,1.745 -0.1307,8.511 -0.1307,8.511 -0.4265,2.405 0.4375,4.984 1.6359,5.812 1.2657,0.869 0.8281,0.432 2.1453,1.032 1.2563,0.566 3.4281,0.328 4.1152,-0.699 0.6719,-0.984 -0.0365,-2.489 -0.7709,-4.797 -0.5787,-1.823 -0.5572,-6.38 -0.5572,-6.38 z"
     id="path221" />
  <path
     style="fill:#ffffff;fill-opacity:1;fill-rule:nonzero;stroke:none"
     d="m 18.291722,84.439842 c 0.1147,0.224 -0.74,0.984 -0.4281,1.396 0.3188,0.416 1.048,0.115 2.813,1.025 l 0.0203,0.016 c 1.272,0.708 2.6573,0.807 3.7146,0.135 1.7443,-1.124 1.9214,-3.957 0.3948,-6.333 -1.5256,-2.38 -4.1813,-3.395 -5.9322,-2.271 -1.6667,1.068 -1.9011,3.724 -0.5824,6.032"
     id="path222" />
  <path
     style="fill:none;stroke:#231f20;stroke-width:0.565977;stroke-linecap:butt;stroke-linejoin:miter;stroke-miterlimit:4;stroke-dasharray:none;stroke-opacity:1"
     d="m 18.291722,84.439842 c 0.1147,0.224 -0.74,0.984 -0.4281,1.396 0.3188,0.416 1.048,0.115 2.813,1.025 l 0.0203,0.016 c 1.272,0.708 2.6573,0.807 3.7146,0.135 1.7443,-1.124 1.9214,-3.957 0.3948,-6.333 -1.5256,-2.38 -4.1813,-3.395 -5.9322,-2.271 -1.6667,1.068 -1.9011,3.724 -0.5824,6.032 z"
     id="path223" />
  <path
     style="fill:#231f20;fill-opacity:1;fill-rule:nonzero;stroke:none"
     d="m 10.551722,36.549842 c -3.8803003,1 -1.1975003,4.077 -1.0787003,4.541 1.2344003,4.86 1.4438003,5.172 2.6359003,8.807 1.7292,5.245 3.724,8.578 7.0735,8.463 2.2702,-0.073 3.5463,-1.109 3.989,-2.349 0.4896,-1.374 0.0573,-4.52 -2.5735,-5.724 l -0.9478,-1.426 c -0.5199,-1.036 -0.7812,-1.547 -0.9943,-2.083 -0.3698,-0.928 -0.8281,-1.907 -1.6562,-3.677 -1.4735,-3.151 -4.0574,-5.99 -4.0574,-5.99 -0.552,-1.114 -2.3905,-0.562 -2.3905,-0.562"
     id="path224" />
  <path
     style="fill:none;stroke:#231f20;stroke-width:0.565977;stroke-linecap:butt;stroke-linejoin:miter;stroke-miterlimit:4;stroke-dasharray:none;stroke-opacity:1"
     d="m 10.551722,36.549842 c -3.8803003,1 -1.1975003,4.077 -1.0787003,4.541 1.2344003,4.86 1.4438003,5.172 2.6359003,8.807 1.7292,5.245 3.724,8.578 7.0735,8.463 2.2702,-0.073 3.5463,-1.109 3.989,-2.349 0.4896,-1.374 0.0573,-4.52 -2.5735,-5.724 l -0.9478,-1.426 c -0.5199,-1.036 -0.7812,-1.547 -0.9943,-2.083 -0.3698,-0.928 -0.8281,-1.907 -1.6562,-3.677 -1.4735,-3.151 -4.0574,-5.99 -4.0574,-5.99 -0.552,-1.114 -2.3905,-0.562 -2.3905,-0.562 z"
     id="path225" />
  <path
     style="fill:#0098c9;fill-opacity:1;fill-rule:nonzero;stroke:none"
     d="m 19.895422,50.205842 -6.8078,3.838 c 0.3546,0.547 0.7146,1.036 1.0734,1.495 0.0318,0.079 0.0574,0.156 0.0678,0.229 0.1614,0.796 0.7186,1.093 1.6614,1.547 1.2187,0.958 2.5052,1.38 3.9479,1.088 2.224,-0.452 3.312,-1.682 3.5417,-2.979 0.2557,-1.437 -0.6923,-4.478 -3.4844,-5.218"
     id="path226" />
  <path
     style="fill:none;stroke:#231f20;stroke-width:0.565977;stroke-linecap:butt;stroke-linejoin:miter;stroke-miterlimit:4;stroke-dasharray:none;stroke-opacity:1"
     d="m 19.895422,50.205842 -6.8078,3.838 c 0.3546,0.547 0.7146,1.036 1.0734,1.495 0.0318,0.079 0.0574,0.156 0.0678,0.229 0.1614,0.796 0.7186,1.093 1.6614,1.547 1.2187,0.958 2.5052,1.38 3.9479,1.088 2.224,-0.452 3.312,-1.682 3.5417,-2.979 0.2557,-1.437 -0.6923,-4.478 -3.4844,-5.218 z"
     id="path227" />
  <path
     style="fill:#231f20;fill-opacity:1;fill-rule:nonzero;stroke:none"
     d="m 3.4835217,84.855842 c 0.1666,-0.625 1.7921,-1.697 2.6828,-3.036 0.6041,-0.907 2.9317,-2.365 3.4639,-3.308 0.4839003,-0.859 0.7907003,-1.213 1.8746003,-0.823 0.6401,0.235 1.7349,1.09 1.5776,1.584 -0.3479,1.13 -0.9574,1.859 -1.8068,2.51 -0.9588,0.745 -3.7400003,2.537 -4.2812003,2.824 -1.3588,0.692 -1.6563,1.369 -2,1.582 -0.6401,0.418 -0.9588,0.276 -1.312,-0.082 -0.6776,-0.683 -0.1989,-1.251 -0.1989,-1.251"
     id="path228" />
  <path
     style="fill:none;stroke:#231f20;stroke-width:0.565977;stroke-linecap:butt;stroke-linejoin:miter;stroke-miterlimit:4;stroke-dasharray:none;stroke-opacity:1"
     d="m 3.4835217,84.855842 c 0.1666,-0.625 1.7921,-1.697 2.6828,-3.036 0.6041,-0.907 2.9317,-2.365 3.4639,-3.308 0.4839003,-0.859 0.7907003,-1.213 1.8746003,-0.823 0.6401,0.235 1.7349,1.09 1.5776,1.584 -0.3479,1.13 -0.9574,1.859 -1.8068,2.51 -0.9588,0.745 -3.7400003,2.537 -4.2812003,2.824 -1.3588,0.692 -1.6563,1.369 -2,1.582 -0.6401,0.418 -0.9588,0.276 -1.312,-0.082 -0.6776,-0.683 -0.1989,-1.251 -0.1989,-1.251 z"
     id="path229" />
  <path
     style="fill:#231f20;fill-opacity:1;fill-rule:nonzero;stroke:none"
     d="m 10.228822,78.814842 c -0.7506003,-1.058 1.0937,-1.918 1.5416,-2.219 0.4532,-0.303 1.6453,-1.303 2.4641,-2.208 0.8333,-0.901 2.2489,-1.672 3.8224,-3.391 0.8333,-0.896 2.2025,-1.25 3.4588,0.006 1.2385,1.244 1.0052,2.405 -0.1563,3.348 -1.1667,0.937 -2.6572,1.328 -3.8958,2.188 -1.2452,0.864 -2.428,1.864 -3.3187,2.688 -1.0147,0.937 -1.8641,1.02 -2.3016,0.833 -1.0891,-0.491 -1.6145,-1.245 -1.6145,-1.245"
     id="path230" />
  <path
     style="fill:none;stroke:#231f20;stroke-width:0.565977;stroke-linecap:butt;stroke-linejoin:miter;stroke-miterlimit:4;stroke-dasharray:none;stroke-opacity:1"
     d="m 10.228822,78.814842 c -0.7506003,-1.058 1.0937,-1.918 1.5416,-2.219 0.4532,-0.303 1.6453,-1.303 2.4641,-2.208 0.8333,-0.901 2.2489,-1.672 3.8224,-3.391 0.8333,-0.896 2.2025,-1.25 3.4588,0.006 1.2385,1.244 1.0052,2.405 -0.1563,3.348 -1.1667,0.937 -2.6572,1.328 -3.8958,2.188 -1.2452,0.864 -2.428,1.864 -3.3187,2.688 -1.0147,0.937 -1.8641,1.02 -2.3016,0.833 -1.0891,-0.491 -1.6145,-1.245 -1.6145,-1.245 z"
     id="path231" />
  <path
     style="fill:#ffffff;fill-opacity:1;fill-rule:nonzero;stroke:none"
     d="m 3.2397217,87.418842 c 0.9479,-0.396 1.3959,-1.479 1.0052,-2.432 -0.3958,-0.948 -1.4854,-1.396 -2.4333,-1 -0.94800003,0.39 -1.40000003,1.478 -1.00520003,2.432 0.39590003,0.942 1.48530003,1.396 2.43330003,1"
     id="path232" />
  <path
     style="fill:none;stroke:#231f20;stroke-width:1.33171;stroke-linecap:butt;stroke-linejoin:miter;stroke-miterlimit:4;stroke-dasharray:none;stroke-opacity:1"
     d="m 3.2397217,87.418842 c 0.9479,-0.396 1.3959,-1.479 1.0052,-2.432 -0.3958,-0.948 -1.4854,-1.396 -2.4333,-1 -0.94800003,0.39 -1.40000003,1.478 -1.00520003,2.432 0.39590003,0.942 1.48530003,1.396 2.43330003,1 z"
     id="path233" />
  <path
     style="fill:#231f20;fill-opacity:1;fill-rule:nonzero;stroke:none"
     d="m 215.79072,41.579842 c 1.126,-0.76 1.932,-0.192 2.198,0.814 0.084,0.296 0.464,0.473 0.51,0.77 0.131,0.692 -0.921,2.083 -2.306,1.51 -0.095,-0.036 -0.912,-0.114 -1.511,-0.266 -1.177,-0.296 -3.391,-1.457 -4.161,-4.041 -0.382,-1.219 0.416,-1.213 0.718,-0.76 0.943,1.427 1.307,1.364 1.692,1.645 1.303,0.964 2.86,0.328 2.86,0.328"
     id="path234" />
  <path
     style="fill:none;stroke:#231f20;stroke-width:0.332927;stroke-linecap:butt;stroke-linejoin:miter;stroke-miterlimit:4;stroke-dasharray:none;stroke-opacity:1"
     d="m 215.79072,41.579842 c 1.126,-0.76 1.932,-0.192 2.198,0.814 0.084,0.296 0.464,0.473 0.51,0.77 0.131,0.692 -0.921,2.083 -2.306,1.51 -0.095,-0.036 -0.912,-0.114 -1.511,-0.266 -1.177,-0.296 -3.391,-1.457 -4.161,-4.041 -0.382,-1.219 0.416,-1.213 0.718,-0.76 0.943,1.427 1.307,1.364 1.692,1.645 1.303,0.964 2.86,0.328 2.86,0.328 z"
     id="path235" />
  <path
     style="fill:#231f20;fill-opacity:1;fill-rule:nonzero;stroke:none"
     d="m 232.99372,49.059842 c 0.984,-2.037 0.912,-2.568 0.079,-3.042 -0.558,-0.318 -0.964,-0.802 -1.287,-1.015 -1.093,-0.699 -3.224,-1.417 -9.792,-1.891 -1.484,-0.105 -3.573,-0.272 -4.427,-0.412 -1.338,-0.208 -0.786,2.162 -0.261,2.246 1.693,0.29 2.829,0.629 3.423,0.812 0.41,0.13 1.156,0.26 2.672,0.964 2.292,1.061 3.505,2.036 5.52,2.697 0.928,0.308 1.438,1.136 2.505,0.964 1.073,-0.161 1.568,-1.323 1.568,-1.323"
     id="path236" />
  <path
     style="fill:none;stroke:#231f20;stroke-width:0.565977;stroke-linecap:butt;stroke-linejoin:miter;stroke-miterlimit:4;stroke-dasharray:none;stroke-opacity:1"
     d="m 232.99372,49.059842 c 0.984,-2.037 0.912,-2.568 0.079,-3.042 -0.558,-0.318 -0.964,-0.802 -1.287,-1.015 -1.093,-0.699 -3.224,-1.417 -9.792,-1.891 -1.484,-0.105 -3.573,-0.272 -4.427,-0.412 -1.338,-0.208 -0.786,2.162 -0.261,2.246 1.693,0.29 2.829,0.629 3.423,0.812 0.41,0.13 1.156,0.26 2.672,0.964 2.292,1.061 3.505,2.036 5.52,2.697 0.928,0.308 1.438,1.136 2.505,0.964 1.073,-0.161 1.568,-1.323 1.568,-1.323 z"
     id="path237" />
  <path
     style="fill:#0098c9;fill-opacity:1;fill-rule:nonzero;stroke:none"
     d="m 252.38972,63.402842 c 0.025,-3.13 0.369,-3.802 0.745,-4.646 2.307,-5.297 -0.333,-6.338 -3.177,-5.833 -3.339,0.579 -4.552,0.724 -4.005,7 0.156,1.745 -0.131,8.511 -0.131,8.511 -0.427,2.405 0.437,4.984 1.636,5.812 1.265,0.869 0.823,0.432 2.14,1.032 1.261,0.566 3.428,0.328 4.12,-0.699 0.667,-0.984 -0.036,-2.489 -0.776,-4.797 -0.579,-1.823 -0.552,-6.38 -0.552,-6.38"
     id="path238" />
  <path
     style="fill:none;stroke:#231f20;stroke-width:0.565977;stroke-linecap:butt;stroke-linejoin:miter;stroke-miterlimit:4;stroke-dasharray:none;stroke-opacity:1"
     d="m 252.38972,63.402842 c 0.025,-3.13 0.369,-3.802 0.745,-4.646 2.307,-5.297 -0.333,-6.338 -3.177,-5.833 -3.339,0.579 -4.552,0.724 -4.005,7 0.156,1.745 -0.131,8.511 -0.131,8.511 -0.427,2.405 0.437,4.984 1.636,5.812 1.265,0.869 0.823,0.432 2.14,1.032 1.261,0.566 3.428,0.328 4.12,-0.699 0.667,-0.984 -0.036,-2.489 -0.776,-4.797 -0.579,-1.823 -0.552,-6.38 -0.552,-6.38 z"
     id="path239" />
  <path
     style="fill:#ffffff;fill-opacity:1;fill-rule:nonzero;stroke:none"
     d="m 249.79672,83.839842 c 0.114,0.22 -0.724,0.996 -0.407,1.401 0.323,0.418 1.047,0.099 2.828,0.98 l 0.021,0.015 c 1.282,0.688 2.667,0.767 3.714,0.073 1.729,-1.15 1.858,-3.989 0.292,-6.338 -1.563,-2.354 -4.235,-3.323 -5.964,-2.172 -1.656,1.098 -1.844,3.756 -0.484,6.041"
     id="path240" />
  <path
     style="fill:none;stroke:#231f20;stroke-width:0.565977;stroke-linecap:butt;stroke-linejoin:miter;stroke-miterlimit:4;stroke-dasharray:none;stroke-opacity:1"
     d="m 249.79672,83.839842 c 0.114,0.22 -0.724,0.996 -0.407,1.401 0.323,0.418 1.047,0.099 2.828,0.98 l 0.021,0.015 c 1.282,0.688 2.667,0.767 3.714,0.073 1.729,-1.15 1.858,-3.989 0.292,-6.338 -1.563,-2.354 -4.235,-3.323 -5.964,-2.172 -1.656,1.098 -1.844,3.756 -0.484,6.041 z"
     id="path241" />
  <path
     style="fill:#231f20;fill-opacity:1;fill-rule:nonzero;stroke:none"
     d="m 231.07272,47.497842 c -2.058,3.437 2.009,3.744 2.421,3.989 4.292,2.588 4.661,2.667 8.068,4.416 4.911,2.521 8.667,3.494 10.973,1.062 1.563,-1.645 1.751,-3.281 1.194,-4.473 -0.62,-1.322 -3.136,-3.261 -5.85,-2.27 l -1.682,-0.344 c -1.099,-0.38 -1.64,-0.558 -2.167,-0.787 -0.916,-0.401 -1.932,-0.776 -3.765,-1.459 -3.26,-1.208 -7.094,-1.41 -7.094,-1.41 -1.177,-0.412 -2.098,1.276 -2.098,1.276"
     id="path242" />
  <path
     style="fill:none;stroke:#231f20;stroke-width:0.565977;stroke-linecap:butt;stroke-linejoin:miter;stroke-miterlimit:4;stroke-dasharray:none;stroke-opacity:1"
     d="m 231.07272,47.497842 c -2.058,3.437 2.009,3.744 2.421,3.989 4.292,2.588 4.661,2.667 8.068,4.416 4.911,2.521 8.667,3.494 10.973,1.062 1.563,-1.645 1.751,-3.281 1.194,-4.473 -0.62,-1.322 -3.136,-3.261 -5.85,-2.27 l -1.682,-0.344 c -1.099,-0.38 -1.64,-0.558 -2.167,-0.787 -0.916,-0.401 -1.932,-0.776 -3.765,-1.459 -3.26,-1.208 -7.094,-1.41 -7.094,-1.41 -1.177,-0.412 -2.098,1.276 -2.098,1.276 z"
     id="path243" />
  <path
     style="fill:#0098c9;fill-opacity:1;fill-rule:nonzero;stroke:none"
     d="m 253.46272,51.923842 c -0.833,-1.197 -3.641,-2.697 -6.146,-1.265 l -2.151,7.514 c 0.64,0.142 1.235,0.235 1.817,0.308 0.074,0.036 0.147,0.074 0.204,0.115 0.676,0.453 1.282,0.271 2.271,-0.068 1.536,-0.172 2.755,-0.776 3.572,-1.995 1.267,-1.885 1.183,-3.521 0.433,-4.609"
     id="path244" />
  <path
     style="fill:none;stroke:#231f20;stroke-width:0.565977;stroke-linecap:butt;stroke-linejoin:miter;stroke-miterlimit:4;stroke-dasharray:none;stroke-opacity:1"
     d="m 253.46272,51.923842 c -0.833,-1.197 -3.641,-2.697 -6.146,-1.265 l -2.151,7.514 c 0.64,0.142 1.235,0.235 1.817,0.308 0.074,0.036 0.147,0.074 0.204,0.115 0.676,0.453 1.282,0.271 2.271,-0.068 1.536,-0.172 2.755,-0.776 3.572,-1.995 1.267,-1.885 1.183,-3.521 0.433,-4.609 z"
     id="path245" />
  <path
     style="fill:#231f20;fill-opacity:1;fill-rule:nonzero;stroke:none"
     d="m 234.31672,84.855842 c 0.166,-0.625 1.792,-1.697 2.682,-3.036 0.604,-0.907 2.932,-2.365 3.464,-3.308 0.484,-0.859 0.796,-1.213 1.88,-0.823 0.64,0.235 1.73,1.09 1.578,1.584 -0.348,1.13 -0.963,1.859 -1.807,2.51 -0.959,0.745 -3.745,2.537 -4.287,2.824 -1.354,0.692 -1.656,1.369 -2,1.582 -0.64,0.418 -0.953,0.276 -1.312,-0.082 -0.677,-0.683 -0.198,-1.251 -0.198,-1.251"
     id="path246" />
  <path
     style="fill:none;stroke:#231f20;stroke-width:0.565977;stroke-linecap:butt;stroke-linejoin:miter;stroke-miterlimit:4;stroke-dasharray:none;stroke-opacity:1"
     d="m 234.31672,84.855842 c 0.166,-0.625 1.792,-1.697 2.682,-3.036 0.604,-0.907 2.932,-2.365 3.464,-3.308 0.484,-0.859 0.796,-1.213 1.88,-0.823 0.64,0.235 1.73,1.09 1.578,1.584 -0.348,1.13 -0.963,1.859 -1.807,2.51 -0.959,0.745 -3.745,2.537 -4.287,2.824 -1.354,0.692 -1.656,1.369 -2,1.582 -0.64,0.418 -0.953,0.276 -1.312,-0.082 -0.677,-0.683 -0.198,-1.251 -0.198,-1.251 z"
     id="path247" />
  <path
     style="fill:#231f20;fill-opacity:1;fill-rule:nonzero;stroke:none"
     d="m 241.06672,78.814842 c -0.756,-1.058 1.094,-1.918 1.542,-2.219 0.448,-0.303 1.641,-1.303 2.464,-2.208 0.828,-0.901 2.249,-1.672 3.822,-3.391 0.828,-0.896 2.198,-1.25 3.459,0.006 1.233,1.244 1,2.405 -0.161,3.348 -1.163,0.937 -2.658,1.328 -3.896,2.188 -1.24,0.864 -2.428,1.864 -3.319,2.688 -1.009,0.937 -1.864,1.02 -2.301,0.833 -1.09,-0.491 -1.61,-1.245 -1.61,-1.245"
     id="path248" />
  <path
     style="fill:none;stroke:#231f20;stroke-width:0.565977;stroke-linecap:butt;stroke-linejoin:miter;stroke-miterlimit:4;stroke-dasharray:none;stroke-opacity:1"
     d="m 241.06672,78.814842 c -0.756,-1.058 1.094,-1.918 1.542,-2.219 0.448,-0.303 1.641,-1.303 2.464,-2.208 0.828,-0.901 2.249,-1.672 3.822,-3.391 0.828,-0.896 2.198,-1.25 3.459,0.006 1.233,1.244 1,2.405 -0.161,3.348 -1.163,0.937 -2.658,1.328 -3.896,2.188 -1.24,0.864 -2.428,1.864 -3.319,2.688 -1.009,0.937 -1.864,1.02 -2.301,0.833 -1.09,-0.491 -1.61,-1.245 -1.61,-1.245 z"
     id="path249" />
  <path
     style="fill:#ffffff;fill-opacity:1;fill-rule:nonzero;stroke:none"
     d="m 234.07272,87.418842 c 0.948,-0.396 1.4,-1.479 1.005,-2.432 -0.391,-0.948 -1.48,-1.396 -2.433,-1 -0.948,0.39 -1.4,1.478 -1,2.432 0.39,0.942 1.48,1.396 2.428,1"
     id="path250" />
  <path
     style="fill:none;stroke:#231f20;stroke-width:1.33171;stroke-linecap:butt;stroke-linejoin:miter;stroke-miterlimit:4;stroke-dasharray:none;stroke-opacity:1"
     d="m 234.07272,87.418842 c 0.948,-0.396 1.4,-1.479 1.005,-2.432 -0.391,-0.948 -1.48,-1.396 -2.433,-1 -0.948,0.39 -1.4,1.478 -1,2.432 0.39,0.942 1.48,1.396 2.428,1 z"
     id="path251" />
  <path
     style="fill:#ffffff;fill-opacity:1;fill-rule:nonzero;stroke:none"
     d="m 280.81072,83.579842 c 1.022,-0.068 1.912,0.704 1.98,1.724 0.072,1.027 -0.698,1.917 -1.718,1.989 -1.027,0.074 -1.918,-0.702 -1.991,-1.729 -0.072,-1.02 0.704,-1.905 1.729,-1.984"
     id="path252" />
  <path
     style="fill:none;stroke:#231f20;stroke-width:1.33171;stroke-linecap:butt;stroke-linejoin:miter;stroke-miterlimit:4;stroke-dasharray:none;stroke-opacity:1"
     d="m 280.81072,83.579842 c 1.022,-0.068 1.912,0.704 1.98,1.724 0.072,1.027 -0.698,1.917 -1.718,1.989 -1.027,0.074 -1.918,-0.702 -1.991,-1.729 -0.072,-1.02 0.704,-1.905 1.729,-1.984 z"
     id="path253" />
  <path
     style="fill:#231f20;fill-opacity:1;fill-rule:nonzero;stroke:none"
     d="m 278.94172,83.767842 c -0.516,-0.385 -0.921,-2.292 -1.839,-3.609 -0.62,-0.896 -1.13,-3.595 -1.812,-4.432 -0.625,-0.772 -0.844,-1.188 -0.078,-2.048 0.448,-0.515 1.646,-1.214 2.046,-0.896 0.934,0.745 1.38,1.578 1.683,2.6 0.344,1.166 0.989,4.416 1.052,5.025 0.156,1.516 0.672,2.041 0.751,2.443 0.14,0.74 -0.106,0.985 -0.568,1.193 -0.88,0.375 -1.235,-0.276 -1.235,-0.276"
     id="path254" />
  <path
     style="fill:none;stroke:#231f20;stroke-width:0.565977;stroke-linecap:butt;stroke-linejoin:miter;stroke-miterlimit:4;stroke-dasharray:none;stroke-opacity:1"
     d="m 278.94172,83.767842 c -0.516,-0.385 -0.921,-2.292 -1.839,-3.609 -0.62,-0.896 -1.13,-3.595 -1.812,-4.432 -0.625,-0.772 -0.844,-1.188 -0.078,-2.048 0.448,-0.515 1.646,-1.214 2.046,-0.896 0.934,0.745 1.38,1.578 1.683,2.6 0.344,1.166 0.989,4.416 1.052,5.025 0.156,1.516 0.672,2.041 0.751,2.443 0.14,0.74 -0.106,0.985 -0.568,1.193 -0.88,0.375 -1.235,-0.276 -1.235,-0.276 z"
     id="path255" />
  <path
     style="fill:#231f20;fill-opacity:1;fill-rule:nonzero;stroke:none"
     d="m 275.43072,74.860842 c -1.286,-0.134 -0.697,-2.088 -0.625,-2.62 0.073,-0.541 0.12,-2.098 -0.004,-3.306 -0.12,-1.224 0.244,-2.798 0.009,-5.11 -0.118,-1.224 0.532,-2.48 2.308,-2.584 1.755,-0.093 2.468,0.85 2.391,2.35 -0.073,1.494 -0.776,2.864 -0.959,4.364 -0.182,1.505 -0.224,3.052 -0.202,4.261 0.025,1.38 -0.48,2.077 -0.912,2.271 -1.094,0.484 -2.006,0.374 -2.006,0.374"
     id="path256" />
  <path
     style="fill:none;stroke:#231f20;stroke-width:0.565977;stroke-linecap:butt;stroke-linejoin:miter;stroke-miterlimit:4;stroke-dasharray:none;stroke-opacity:1"
     d="m 275.43072,74.860842 c -1.286,-0.134 -0.697,-2.088 -0.625,-2.62 0.073,-0.541 0.12,-2.098 -0.004,-3.306 -0.12,-1.224 0.244,-2.798 0.009,-5.11 -0.118,-1.224 0.532,-2.48 2.308,-2.584 1.755,-0.093 2.468,0.85 2.391,2.35 -0.073,1.494 -0.776,2.864 -0.959,4.364 -0.182,1.505 -0.224,3.052 -0.202,4.261 0.025,1.38 -0.48,2.077 -0.912,2.271 -1.094,0.484 -2.006,0.374 -2.006,0.374 z"
     id="path257" />
  <path
     style="fill:#231f20;fill-opacity:1;fill-rule:nonzero;stroke:none"
     d="m 298.56172,75.882842 c -0.344,-0.547 -0.036,-2.47 -0.407,-4.032 -0.26,-1.058 0.251,-3.755 -0.077,-4.787 -0.308,-0.943 -0.35,-1.405 0.67,-1.937 0.606,-0.312 1.975,-0.531 2.235,-0.088 0.6,1.03 0.709,1.968 0.625,3.036 -0.114,1.209 -0.688,4.464 -0.854,5.062 -0.4,1.47 -0.115,2.147 -0.187,2.542 -0.131,0.756 -0.453,0.885 -0.959,0.901 -0.958,0.041 -1.046,-0.697 -1.046,-0.697"
     id="path258" />
  <path
     style="fill:none;stroke:#231f20;stroke-width:0.565977;stroke-linecap:butt;stroke-linejoin:miter;stroke-miterlimit:4;stroke-dasharray:none;stroke-opacity:1"
     d="m 298.56172,75.882842 c -0.344,-0.547 -0.036,-2.47 -0.407,-4.032 -0.26,-1.058 0.251,-3.755 -0.077,-4.787 -0.308,-0.943 -0.35,-1.405 0.67,-1.937 0.606,-0.312 1.975,-0.531 2.235,-0.088 0.6,1.03 0.709,1.968 0.625,3.036 -0.114,1.209 -0.688,4.464 -0.854,5.062 -0.4,1.47 -0.115,2.147 -0.187,2.542 -0.131,0.756 -0.453,0.885 -0.959,0.901 -0.958,0.041 -1.046,-0.697 -1.046,-0.697 z"
     id="path259" />
  <path
     style="fill:#231f20;fill-opacity:1;fill-rule:nonzero;stroke:none"
     d="m 299.83172,67.215842 c -0.797,1.025 -2.145,-0.5 -2.557,-0.839 -0.427,-0.354 -1.729,-1.204 -2.823,-1.745 -1.104,-0.531 -2.245,-1.672 -4.338,-2.687 -1.099,-0.542 -1.833,-1.756 -0.979,-3.318 0.838,-1.547 2.015,-1.656 3.25,-0.802 1.229,0.848 2.03,2.167 3.213,3.11 1.177,0.937 2.474,1.792 3.51,2.416 1.188,0.704 1.516,1.494 1.454,1.969 -0.156,1.183 -0.73,1.896 -0.73,1.896"
     id="path260" />
  <path
     style="fill:none;stroke:#231f20;stroke-width:0.565977;stroke-linecap:butt;stroke-linejoin:miter;stroke-miterlimit:4;stroke-dasharray:none;stroke-opacity:1"
     d="m 299.83172,67.215842 c -0.797,1.025 -2.145,-0.5 -2.557,-0.839 -0.427,-0.354 -1.729,-1.204 -2.823,-1.745 -1.104,-0.531 -2.245,-1.672 -4.338,-2.687 -1.099,-0.542 -1.833,-1.756 -0.979,-3.318 0.838,-1.547 2.015,-1.656 3.25,-0.802 1.229,0.848 2.03,2.167 3.213,3.11 1.177,0.937 2.474,1.792 3.51,2.416 1.188,0.704 1.516,1.494 1.454,1.969 -0.156,1.183 -0.73,1.896 -0.73,1.896 z"
     id="path261" />
  <path
     style="fill:#231f20;fill-opacity:1;fill-rule:nonzero;stroke:none"
     d="m 299.26972,82.043842 c 0.354,-0.641 0.88,-3.849 0.969,-4.584 0.077,-0.661 0.572,-1.708 -0.401,-2.328 -0.396,-0.255 -1.146,-0.339 -1.464,-0.292 -0.26,0.043 -0.402,0.339 -0.406,0.735 -0.021,0.661 0.228,0.86 0.271,2.141 0,0 0.052,0.301 0.187,0.833 0.385,1.583 0.37,0.854 0.417,3.271 0,0.172 0.177,0.292 0.287,0.281 0.181,-0.021 0.14,-0.057 0.14,-0.057"
     id="path262" />
  <path
     style="fill:none;stroke:#231f20;stroke-width:0.565977;stroke-linecap:round;stroke-linejoin:round;stroke-miterlimit:4;stroke-dasharray:none;stroke-opacity:1"
     d="m 299.26972,82.043842 c 0.354,-0.641 0.88,-3.849 0.969,-4.584 0.077,-0.661 0.572,-1.708 -0.401,-2.328 -0.396,-0.255 -1.146,-0.339 -1.464,-0.292 -0.26,0.043 -0.402,0.339 -0.406,0.735 -0.021,0.661 0.228,0.86 0.271,2.141 0,0 0.052,0.301 0.187,0.833 0.385,1.583 0.37,0.854 0.417,3.271 0,0.172 0.177,0.292 0.287,0.281 0.181,-0.021 0.14,-0.057 0.14,-0.057 z"
     id="path263" />
  <path
     style="fill:none;stroke:#231f20;stroke-width:0.399514;stroke-linecap:butt;stroke-linejoin:miter;stroke-miterlimit:4;stroke-dasharray:none;stroke-opacity:1"
     d="m 267.22272,30.319842 c 24.964,-8.849 30.036,3.427 24.088,9.38"
     id="path264" />
  <path
     style="fill:#231f20;fill-opacity:1;fill-rule:nonzero;stroke:none"
     d="m 290.45772,40.554842 c 0.249,-0.552 0.495,-1.303 0.536,-1.881 l 0.427,0.912 0.917,0.432 c -0.579,0.037 -1.333,0.281 -1.88,0.537"
     id="path265" />
  <path
     style="fill:#231f20;fill-opacity:1;fill-rule:nonzero;stroke:none"
     d="m 284.20672,70.283842 c -1.51,-2.387 -1.306,-5.224 0.443,-6.333 1.756,-1.111 4.407,-0.079 5.912,2.312 1.516,2.385 1.312,5.224 -0.443,6.328 -1.75,1.114 -4.401,0.082 -5.912,-2.307"
     id="path266" />
  <path
     style="fill:none;stroke:#231f20;stroke-width:0.565977;stroke-linecap:butt;stroke-linejoin:miter;stroke-miterlimit:4;stroke-dasharray:none;stroke-opacity:1"
     d="m 284.20672,70.283842 c -1.51,-2.387 -1.306,-5.224 0.443,-6.333 1.756,-1.111 4.407,-0.079 5.912,2.312 1.516,2.385 1.312,5.224 -0.443,6.328 -1.75,1.114 -4.401,0.082 -5.912,-2.307 z"
     id="path267" />
  <path
     style="fill:#231f20;fill-opacity:1;fill-rule:nonzero;stroke:none"
     d="m 283.47272,46.965842 c 3.537,-0.719 2.886,-2.271 3.084,-6.339 0.218,-4.457 -0.031,-9.124 -1.156,-12.229 -1.262,-3.463 -0.855,-3.796 -2.762,-4.078 -1.894,-0.276 -2.03,0.495 -2.946,1.407 -1.054,1.041 1.109,8.077 0.708,12.812 -0.188,2.219 -2.074,7.416 -0.699,7.864 1.38,0.459 3.771,0.563 3.771,0.563"
     id="path268" />
  <path
     style="fill:none;stroke:#231f20;stroke-width:0.565977;stroke-linecap:butt;stroke-linejoin:miter;stroke-miterlimit:4;stroke-dasharray:none;stroke-opacity:1"
     d="m 283.47272,46.965842 c 3.537,-0.719 2.886,-2.271 3.084,-6.339 0.218,-4.457 -0.031,-9.124 -1.156,-12.229 -1.262,-3.463 -0.855,-3.796 -2.762,-4.078 -1.894,-0.276 -2.03,0.495 -2.946,1.407 -1.054,1.041 1.109,8.077 0.708,12.812 -0.188,2.219 -2.074,7.416 -0.699,7.864 1.38,0.459 3.771,0.563 3.771,0.563 z"
     id="path269" />
  <path
     style="fill:#231f20;fill-opacity:1;fill-rule:nonzero;stroke:none"
     d="m 281.69672,26.371842 c 2.261,0.068 2.922,0.12 2.605,-2.365 -0.084,-0.624 -0.439,-2.369 -0.376,-2.755 0.188,-1.286 0.297,-2.792 -1.957,-8.978 -0.355,-0.954 -0.71,-2.9020005 -1.074,-4.2560005 -0.349,-1.312 -2.292,0.166 -2.156,0.677 0.427,1.6670005 0.343,2.8280005 0.411,3.4430005 0.052,0.426 0.276,1.202 0.063,2.849 -0.558,4.244 0.713,5.52 0.677,6.416 -0.115,2.584 -0.745,4.767 -0.131,5.032 0.99,0.437 1.938,-0.063 1.938,-0.063"
     id="path270" />
  <path
     style="fill:none;stroke:#231f20;stroke-width:0.565977;stroke-linecap:butt;stroke-linejoin:miter;stroke-miterlimit:4;stroke-dasharray:none;stroke-opacity:1"
     d="m 281.69672,26.371842 c 2.261,0.068 2.922,0.12 2.605,-2.365 -0.084,-0.624 -0.439,-2.369 -0.376,-2.755 0.188,-1.286 0.297,-2.792 -1.957,-8.978 -0.355,-0.954 -0.71,-2.9020005 -1.074,-4.2560005 -0.349,-1.312 -2.292,0.166 -2.156,0.677 0.427,1.6670005 0.343,2.8280005 0.411,3.4430005 0.052,0.426 0.276,1.202 0.063,2.849 -0.558,4.244 0.713,5.52 0.677,6.416 -0.115,2.584 -0.745,4.767 -0.131,5.032 0.99,0.437 1.938,-0.063 1.938,-0.063 z"
     id="path271" />
  <path
     style="fill:#231f20;fill-opacity:1;fill-rule:nonzero;stroke:none"
     d="m 277.24472,47.063842 c -3.584,-0.385 -3.079,-1.989 -3.652,-6.03 -0.62,-4.416 -0.802,-9.088 0.042,-12.282 0.932,-3.562 0.5,-3.854 2.364,-4.306 1.87,-0.454 2.079,0.296 3.068,1.118 1.146,0.954 -0.365,8.152 0.463,12.83 0.396,2.197 2.751,7.192 1.423,7.77 -1.339,0.578 -3.708,0.9 -3.708,0.9"
     id="path272" />
  <path
     style="fill:none;stroke:#231f20;stroke-width:0.565977;stroke-linecap:butt;stroke-linejoin:miter;stroke-miterlimit:4;stroke-dasharray:none;stroke-opacity:1"
     d="m 277.24472,47.063842 c -3.584,-0.385 -3.079,-1.989 -3.652,-6.03 -0.62,-4.416 -0.802,-9.088 0.042,-12.282 0.932,-3.562 0.5,-3.854 2.364,-4.306 1.87,-0.454 2.079,0.296 3.068,1.118 1.146,0.954 -0.365,8.152 0.463,12.83 0.396,2.197 2.751,7.192 1.423,7.77 -1.339,0.578 -3.708,0.9 -3.708,0.9 z"
     id="path273" />
  <path
     style="fill:#231f20;fill-opacity:1;fill-rule:nonzero;stroke:none"
     d="m 277.10872,26.407842 c -2.25,0.271 -2.902,0.375 -2.798,-2.129 0.027,-0.636 0.235,-2.401 0.142,-2.781 -0.303,-1.262 -0.536,-2.751 1.182,-9.104 0.266,-0.991 0.447,-2.9540005 0.698,-4.3340005 0.245,-1.338 2.297,-0.037 2.202,0.49 -0.281,1.6860005 -0.093,2.8440005 -0.114,3.4620005 -0.01,0.428 -0.171,1.219 0.188,2.844 0.917,4.183 -0.24,5.558 -0.126,6.454 0.334,2.557 1.152,4.682 0.563,4.994 -0.953,0.522 -1.937,0.104 -1.937,0.104"
     id="path274" />
  <path
     style="fill:none;stroke:#231f20;stroke-width:0.565977;stroke-linecap:butt;stroke-linejoin:miter;stroke-miterlimit:4;stroke-dasharray:none;stroke-opacity:1"
     d="m 277.10872,26.407842 c -2.25,0.271 -2.902,0.375 -2.798,-2.129 0.027,-0.636 0.235,-2.401 0.142,-2.781 -0.303,-1.262 -0.536,-2.751 1.182,-9.104 0.266,-0.991 0.447,-2.9540005 0.698,-4.3340005 0.245,-1.338 2.297,-0.037 2.202,0.49 -0.281,1.6860005 -0.093,2.8440005 -0.114,3.4620005 -0.01,0.428 -0.171,1.219 0.188,2.844 0.917,4.183 -0.24,5.558 -0.126,6.454 0.334,2.557 1.152,4.682 0.563,4.994 -0.953,0.522 -1.937,0.104 -1.937,0.104 z"
     id="path275" />
  <path
     style="fill:#231f20;fill-opacity:1;fill-rule:nonzero;stroke:none"
     d="m 275.51472,4.6378415 c -0.27,0.614 0.974,1.917 1.063,3.88 0.02,0.406 0.219,0.718 0.369,1.062 0.604,1.3860005 1.907,2.3080005 2.719,-1.437 0.115,-0.516 -0.333,-2.568 -0.104,-3.317 0.541,-1.787 -1.147,-4.647 -1.645,-4.495 -1.074,0.323 -2.402,4.307 -2.402,4.307"
     id="path276" />
  <path
     style="fill:none;stroke:#231f20;stroke-width:0.644548;stroke-linecap:round;stroke-linejoin:round;stroke-miterlimit:4;stroke-dasharray:none;stroke-opacity:1"
     d="m 275.51472,4.6378415 c -0.27,0.614 0.974,1.917 1.063,3.88 0.02,0.406 0.219,0.718 0.369,1.062 0.604,1.3860005 1.907,2.3080005 2.719,-1.437 0.115,-0.516 -0.333,-2.568 -0.104,-3.317 0.541,-1.787 -1.147,-4.647 -1.645,-4.495 -1.074,0.323 -2.402,4.307 -2.402,4.307 z"
     id="path277" />
  <path
     style="fill:#231f20;fill-opacity:1;fill-rule:nonzero;stroke:none"
     d="m 281.64972,4.2988415 c 0.344,0.568 -0.729,2.021 -0.557,3.98 0.026,0.4 -0.135,0.744 -0.239,1.099 -0.423,1.4530005 -1.6,2.5300005 -2.881,-1.074 -0.176,-0.505 0,-2.593 -0.312,-3.312 -0.766,-1.698 0.552,-4.756 1.062,-4.661 1.099,0.176 2.927,3.968 2.927,3.968"
     id="path278" />
  <path
     style="fill:none;stroke:#231f20;stroke-width:0.644548;stroke-linecap:round;stroke-linejoin:round;stroke-miterlimit:4;stroke-dasharray:none;stroke-opacity:1"
     d="m 281.64972,4.2988415 c 0.344,0.568 -0.729,2.021 -0.557,3.98 0.026,0.4 -0.135,0.744 -0.239,1.099 -0.423,1.4530005 -1.6,2.5300005 -2.881,-1.074 -0.176,-0.505 0,-2.593 -0.312,-3.312 -0.766,-1.698 0.552,-4.756 1.062,-4.661 1.099,0.176 2.927,3.968 2.927,3.968 z"
     id="path279" />
  <path
     style="fill:#231f20;fill-opacity:1;fill-rule:nonzero;stroke:none"
     d="m 284.45272,42.293842 c -0.396,0.604 -2.99,2.568 -3.599,2.99 -0.548,0.386 -1.245,1.307 -2.251,0.728 -0.396,-0.229 -0.833,-0.853 -0.937,-1.156 -0.083,-0.238 0.109,-0.505 0.459,-0.697 0.577,-0.328 0.874,-0.199 2.02,-0.761 0,0 0.292,-0.094 0.818,-0.224 1.588,-0.4 0.932,-0.078 3.094,-1.162 0.15,-0.082 0.344,0.022 0.385,0.126 0.068,0.166 0.011,0.156 0.011,0.156"
     id="path280" />
  <path
     style="fill:none;stroke:#231f20;stroke-width:0.565977;stroke-linecap:round;stroke-linejoin:round;stroke-miterlimit:4;stroke-dasharray:none;stroke-opacity:1"
     d="m 284.45272,42.293842 c -0.396,0.604 -2.99,2.568 -3.599,2.99 -0.548,0.386 -1.245,1.307 -2.251,0.728 -0.396,-0.229 -0.833,-0.853 -0.937,-1.156 -0.083,-0.238 0.109,-0.505 0.459,-0.697 0.577,-0.328 0.874,-0.199 2.02,-0.761 0,0 0.292,-0.094 0.818,-0.224 1.588,-0.4 0.932,-0.078 3.094,-1.162 0.15,-0.082 0.344,0.022 0.385,0.126 0.068,0.166 0.011,0.156 0.011,0.156 z"
     id="path281" />
  <path
     style="fill:#0098c9;fill-opacity:1;fill-rule:nonzero;stroke:none"
     d="m 289.31672,56.366842 c -0.963,-0.927 -3.662,-5.255 -4.656,-8.349 -0.23,-0.714 0.442,-3.026 -0.172,-1.938 l -0.35,0.09 c -3.041,-0.658 -5.394,-6.006 -5.394,-6.006 0,0 -0.704,-0.24 -1.178,-0.094 -0.474,0.141 -0.928,0.729 -0.928,0.729 0,0 0.991,5.761 -1.186,7.989 l -0.339,0.115 c -1.115,-0.567 0.729,0.995 0.932,1.704 0.875,3.135 1.016,8.233 0.719,9.53 -0.406,1.792 -2.744,2.746 -1.187,4.246 0,0 1.145,1.869 3.708,0.718 0.927,-0.412 3.249,-0.365 3.249,-0.365 0.24,0.037 1.376,0.188 2.36,-0.129 1.11,-0.36 2.146,-1.224 2.146,-1.224 0,0 1.912,-1.323 2.917,-1.495 2.771,-0.453 2.828,-2.396 2.828,-2.396 0.473,-2.115 -2.141,-1.86 -3.469,-3.125"
     id="path282" />
  <path
     style="fill:none;stroke:#231f20;stroke-width:0.565977;stroke-linecap:butt;stroke-linejoin:miter;stroke-miterlimit:4;stroke-dasharray:none;stroke-opacity:1"
     d="m 289.31672,56.366842 c -0.963,-0.927 -3.662,-5.255 -4.656,-8.349 -0.23,-0.714 0.442,-3.026 -0.172,-1.938 l -0.35,0.09 c -3.041,-0.658 -5.394,-6.006 -5.394,-6.006 0,0 -0.704,-0.24 -1.178,-0.094 -0.474,0.141 -0.928,0.729 -0.928,0.729 0,0 0.991,5.761 -1.186,7.989 l -0.339,0.115 c -1.115,-0.567 0.729,0.995 0.932,1.704 0.875,3.135 1.016,8.233 0.719,9.53 -0.406,1.792 -2.744,2.746 -1.187,4.246 0,0 1.145,1.869 3.708,0.718 0.927,-0.412 3.249,-0.365 3.249,-0.365 0.24,0.037 1.376,0.188 2.36,-0.129 1.11,-0.36 2.146,-1.224 2.146,-1.224 0,0 1.912,-1.323 2.917,-1.495 2.771,-0.453 2.828,-2.396 2.828,-2.396 0.473,-2.115 -2.141,-1.86 -3.469,-3.125 z"
     id="path283" />
  <path
     style="fill:#0098c9;fill-opacity:1;fill-rule:nonzero;stroke:none"
     d="m 275.39472,50.011842 c -0.229,-0.26 -1,-1.394 -1.218,-1.801 -1.371,-2.636 -1.688,-6.579 -2.079,-7.787 -0.401,-1.213 6.161,-1.822 6.161,-1.822 l 0.912,1.145 c 0.407,-0.473 0.183,-0.016 0.183,-0.016 l 0.807,-1.405 c 0,0 6.401,-0.912 6.354,0.104 -0.062,1.39 0.323,6.005 -0.376,8.344 -0.385,1.296 -1.088,2.041 -1.088,2.041 0,0 -3.734,-0.708 -5.156,-0.557 -1.417,0.145 -4.5,1.754 -4.5,1.754"
     id="path284" />
  <path
     style="fill:none;stroke:#231f20;stroke-width:0.565977;stroke-linecap:butt;stroke-linejoin:miter;stroke-miterlimit:4;stroke-dasharray:none;stroke-opacity:1"
     d="m 275.39472,50.011842 c -0.229,-0.26 -1,-1.394 -1.218,-1.801 -1.371,-2.636 -1.688,-6.579 -2.079,-7.787 -0.401,-1.213 6.161,-1.822 6.161,-1.822 l 0.912,1.145 c 0.407,-0.473 0.183,-0.016 0.183,-0.016 l 0.807,-1.405 c 0,0 6.401,-0.912 6.354,0.104 -0.062,1.39 0.323,6.005 -0.376,8.344 -0.385,1.296 -1.088,2.041 -1.088,2.041 0,0 -3.734,-0.708 -5.156,-0.557 -1.417,0.145 -4.5,1.754 -4.5,1.754 z"
     id="path285" />
  <path
     style="fill:none;stroke:#231f20;stroke-width:0.565977;stroke-linecap:round;stroke-linejoin:round;stroke-miterlimit:4;stroke-dasharray:none;stroke-opacity:1"
     d="m 276.12472,40.506842 c 1.177,-1.364 3.208,-0.613 3.208,-0.613 1.64,-0.819 3.14,-0.235 3.14,-0.235"
     id="path286" />
  <path
     style="fill:#0098c9;fill-opacity:1;fill-rule:nonzero;stroke:none"
     d="m 112.70172,106.34484 c 2.907,-1.973 3.595,-2.661 4.475,-3.39 4.468,-3.666998 4,-4.869998 2.557,-6.781998 -2.037,-2.713 -3.412,-4.004 -8.057,0.246 -3.527,3.224 -6.604,5.113998 -6.604,5.113998 -1.803,0.511 -4.595,2.771 -4.823,3.656 -0.380998,1.484 -0.265998,1.208 0.056,2.626 0.59,2.604 1.746,2.926 2.934,2.89 1.186,-0.041 2.156,-0.417 4.656,-1.698 1.942,-0.984 4.806,-2.662 4.806,-2.662"
     id="path287" />
  <path
     style="fill:none;stroke:#231f20;stroke-width:0.565977;stroke-linecap:butt;stroke-linejoin:miter;stroke-miterlimit:4;stroke-dasharray:none;stroke-opacity:1"
     d="m 112.70172,106.34484 c 2.907,-1.973 3.595,-2.661 4.475,-3.39 4.468,-3.666998 4,-4.869998 2.557,-6.781998 -2.037,-2.713 -3.412,-4.004 -8.057,0.246 -3.527,3.224 -6.604,5.113998 -6.604,5.113998 -1.803,0.511 -4.595,2.771 -4.823,3.656 -0.380998,1.484 -0.265998,1.208 0.056,2.626 0.59,2.604 1.746,2.926 2.934,2.89 1.186,-0.041 2.156,-0.417 4.656,-1.698 1.942,-0.984 4.806,-2.662 4.806,-2.662 z"
     id="path288" />
  <path
     style="fill:#ffffff;fill-opacity:1;fill-rule:nonzero;stroke:none"
     d="m 99.676722,99.548842 c -0.021,-2.261 -0.333,-2.698 -1.292,-2.75 -0.64,-0.036 -1.213,-0.292 -1.599,-0.328 -1.292,-0.135 -3.521,0.172 -9.604,2.682 -1.376,0.574 -3.318,1.358998 -4.141,1.619998 -1.292,0.411 0.265,2.282 0.776,2.124 1.636,-0.5 2.802,-0.708 3.423,-0.806 0.421,-0.068 1.145,-0.287 2.817,-0.339 2.527,-0.073 4.047,0.255 6.14,-0.052 0.975,-0.14 1.792,0.369 2.677,-0.26 0.886,-0.62 0.803,-1.890998 0.803,-1.890998"
     id="path289" />
  <path
     style="fill:none;stroke:#231f20;stroke-width:0.565977;stroke-linecap:butt;stroke-linejoin:miter;stroke-miterlimit:4;stroke-dasharray:none;stroke-opacity:1"
     d="m 99.676722,99.548842 c -0.021,-2.261 -0.333,-2.698 -1.292,-2.75 -0.64,-0.036 -1.213,-0.292 -1.599,-0.328 -1.292,-0.135 -3.521,0.172 -9.604,2.682 -1.376,0.574 -3.318,1.358998 -4.141,1.619998 -1.292,0.411 0.265,2.282 0.776,2.124 1.636,-0.5 2.802,-0.708 3.423,-0.806 0.421,-0.068 1.145,-0.287 2.817,-0.339 2.527,-0.073 4.047,0.255 6.14,-0.052 0.975,-0.14 1.792,0.369 2.677,-0.26 0.886,-0.62 0.803,-1.890998 0.803,-1.890998 z"
     id="path290" />
  <path
     style="fill:#ffffff;fill-opacity:1;fill-rule:nonzero;stroke:none"
     d="m 95.097722,103.26784 c -0.234,-0.057 -0.276,-1.204 -0.796,-1.229 -0.526,-0.022 -0.756,0.734 -2.589,1.51 l -0.02,0.006 c -1.355,0.52 -2.324,1.52 -2.475,2.765 -0.254,2.063 1.808,4.016 4.615,4.359 2.803,0.344 5.281,-1.047 5.531,-3.11 0.25,-1.968 -1.635,-3.842 -4.266,-4.301"
     id="path291" />
  <path
     style="fill:none;stroke:#231f20;stroke-width:0.565977;stroke-linecap:butt;stroke-linejoin:miter;stroke-miterlimit:4;stroke-dasharray:none;stroke-opacity:1"
     d="m 95.097722,103.26784 c -0.234,-0.057 -0.276,-1.204 -0.796,-1.229 -0.526,-0.022 -0.756,0.734 -2.589,1.51 l -0.02,0.006 c -1.355,0.52 -2.324,1.52 -2.475,2.765 -0.254,2.063 1.808,4.016 4.615,4.359 2.803,0.344 5.281,-1.047 5.531,-3.11 0.25,-1.968 -1.635,-3.842 -4.266,-4.301 z"
     id="path292" />
  <path
     style="fill:#ffffff;fill-opacity:1;fill-rule:nonzero;stroke:#231f20;stroke-width:0.565977;stroke-linecap:round;stroke-linejoin:round;stroke-miterlimit:4;stroke-dasharray:none;stroke-opacity:1"
     d="m 97.848722,101.26284 c 1.02,0.989 3.024998,0.208 3.363998,0.24 5,0.4 5.371,0.296 9.188,0.337 5.531,0.057 9.323,-0.755 10.296,-3.956998 0.657,-2.178 0.095,-3.719 -0.937,-4.543 -1.146,-0.9 -4.26,-1.504 -6.244,0.595 l -1.656,0.442 c -1.152,0.151 -1.72,0.235 -2.298,0.266 -1,0.046 -2.068,0.172 -4.016,0.38 -3.453,0.385 -6.977998,1.912 -6.977998,1.912 -0.308,0.036 -0.542,0.192 -0.724,0.396"
     id="path293" />
  <path
     style="fill:#0098c9;fill-opacity:1;fill-rule:nonzero;stroke:none"
     d="m 119.26472,92.959842 c -1.276,-0.703 -4.459,-0.787 -6.057,1.62 l 1.437,7.676998 c 3.641,-0.912 5.969,-2.359998 6.297,-4.983998 0.292,-2.25 -0.521,-3.677 -1.677,-4.313"
     id="path294" />
  <path
     style="fill:none;stroke:#231f20;stroke-width:0.565977;stroke-linecap:butt;stroke-linejoin:miter;stroke-miterlimit:4;stroke-dasharray:none;stroke-opacity:1"
     d="m 119.26472,92.959842 c -1.276,-0.703 -4.459,-0.787 -6.057,1.62 l 1.437,7.676998 c 3.641,-0.912 5.969,-2.359998 6.297,-4.983998 0.292,-2.25 -0.521,-3.677 -1.677,-4.313 z"
     id="path295" />
  <path
     style="fill:#231f20;fill-opacity:1;fill-rule:nonzero;stroke:none"
     d="m 103.84872,87.126842 c 0.369,0.526 0.167,2.464 0.629,4 0.308,1.042 -0.046,3.77 0.339,4.781 0.355,0.928 0.428,1.385 -0.563,1.969 -0.588,0.35 -1.942,0.64 -2.224,0.214 -0.65,-1 -0.822,-1.927 -0.785,-3 0.036,-1.214 0.432,-4.5 0.557,-5.099 0.328,-1.485 0.004,-2.147 0.052,-2.552 0.094,-0.756 0.406,-0.907 0.906,-0.953 0.953,-0.09 1.089,0.64 1.089,0.64"
     id="path296" />
  <path
     style="fill:none;stroke:#231f20;stroke-width:0.565977;stroke-linecap:butt;stroke-linejoin:miter;stroke-miterlimit:4;stroke-dasharray:none;stroke-opacity:1"
     d="m 103.84872,87.126842 c 0.369,0.526 0.167,2.464 0.629,4 0.308,1.042 -0.046,3.77 0.339,4.781 0.355,0.928 0.428,1.385 -0.563,1.969 -0.588,0.35 -1.942,0.64 -2.224,0.214 -0.65,-1 -0.822,-1.927 -0.785,-3 0.036,-1.214 0.432,-4.5 0.557,-5.099 0.328,-1.485 0.004,-2.147 0.052,-2.552 0.094,-0.756 0.406,-0.907 0.906,-0.953 0.953,-0.09 1.089,0.64 1.089,0.64 z"
     id="path297" />
  <path
     style="fill:#231f20;fill-opacity:1;fill-rule:nonzero;stroke:none"
     d="m 104.20172,96.178842 c 1.292,0.094 0.776,2.062 0.724,2.6 -0.057,0.541 -0.041,2.097998 0.131,3.305998 0.167,1.214 -0.14,2.803 0.177,5.104 0.167,1.214 -0.442,2.5 -2.208,2.662 -1.75,0.166 -2.496,-0.755 -2.474,-2.255 0.016,-1.495 0.666,-2.891 0.792,-4.396 0.125,-1.505 0.109,-3.057 0.046,-4.264998 -0.078,-1.386 0.396,-2.095 0.828,-2.303 1.068,-0.531 1.984,-0.453 1.984,-0.453"
     id="path298" />
  <path
     style="fill:none;stroke:#231f20;stroke-width:0.565977;stroke-linecap:butt;stroke-linejoin:miter;stroke-miterlimit:4;stroke-dasharray:none;stroke-opacity:1"
     d="m 104.20172,96.178842 c 1.292,0.094 0.776,2.062 0.724,2.6 -0.057,0.541 -0.041,2.097998 0.131,3.305998 0.167,1.214 -0.14,2.803 0.177,5.104 0.167,1.214 -0.442,2.5 -2.208,2.662 -1.75,0.166 -2.496,-0.755 -2.474,-2.255 0.016,-1.495 0.666,-2.891 0.792,-4.396 0.125,-1.505 0.109,-3.057 0.046,-4.264998 -0.078,-1.386 0.396,-2.095 0.828,-2.303 1.068,-0.531 1.984,-0.453 1.984,-0.453 z"
     id="path299" />
  <path
     style="fill:#ffffff;fill-opacity:1;fill-rule:nonzero;stroke:none"
     d="m 104.56772,85.068842 c 0.03,-1.025 -0.776,-1.88 -1.803,-1.91 -1.031,-0.032 -1.885,0.776 -1.916,1.801 -0.027,1.032 0.781,1.885 1.807,1.917 1.026,0.026 1.885,-0.781 1.912,-1.808"
     id="path300" />
  <path
     style="fill:none;stroke:#231f20;stroke-width:1.33171;stroke-linecap:butt;stroke-linejoin:miter;stroke-miterlimit:4;stroke-dasharray:none;stroke-opacity:1"
     d="m 104.56772,85.068842 c 0.03,-1.025 -0.776,-1.88 -1.803,-1.91 -1.031,-0.032 -1.885,0.776 -1.916,1.801 -0.027,1.032 0.781,1.885 1.807,1.917 1.026,0.026 1.885,-0.781 1.912,-1.808 z"
     id="path301" />
  <path
     style="fill:#231f20;fill-opacity:1;fill-rule:nonzero;stroke:none"
     d="m 80.952722,100.55984 c 0.661,-1.182998 1.64,-1.031998 2.328,-0.256 0.203,0.229 0.625,0.219 0.801,0.459 0.418,0.568 0.106,2.281 -1.385,2.385 -0.104,0.005 -0.874,0.307 -1.473,0.437 -1.188,0.271 -3.683,0.219 -5.536,-1.745 -0.876,-0.921 -0.162,-1.271 0.301,-1.004 1.489,0.848 1.787,0.635 2.256,0.713 1.598,0.287 2.708,-0.989 2.708,-0.989"
     id="path302" />
  <path
     style="fill:none;stroke:#231f20;stroke-width:0.332927;stroke-linecap:butt;stroke-linejoin:miter;stroke-miterlimit:4;stroke-dasharray:none;stroke-opacity:1"
     d="m 80.952722,100.55984 c 0.661,-1.182998 1.64,-1.031998 2.328,-0.256 0.203,0.229 0.625,0.219 0.801,0.459 0.418,0.568 0.106,2.281 -1.385,2.385 -0.104,0.005 -0.874,0.307 -1.473,0.437 -1.188,0.271 -3.683,0.219 -5.536,-1.745 -0.876,-0.921 -0.162,-1.271 0.301,-1.004 1.489,0.848 1.787,0.635 2.256,0.713 1.598,0.287 2.708,-0.989 2.708,-0.989 z"
     id="path303" />
  <path
     style="fill:#0098c9;fill-opacity:1;fill-rule:nonzero;stroke:none"
     d="m 142.59772,105.54884 c 2.23,2.708 2.98,3.334 3.782,4.146 4.057,4.114 5.218,3.536 6.989,1.926 2.516,-2.276 3.677,-3.765 -0.979,-8 -3.53,-3.218 -5.693,-6.113998 -5.693,-6.113998 -0.676,-1.744 -3.181,-4.318 -4.077,-4.468 -1.516,-0.246 -1.235,-0.151 -2.61,0.297 -2.541,0.823 -2.76,2 -2.614,3.187 0.145,1.172 0.609,2.104 2.109,4.479998 1.167,1.842 3.093,4.546 3.093,4.546"
     id="path304" />
  <path
     style="fill:none;stroke:#231f20;stroke-width:0.565977;stroke-linecap:butt;stroke-linejoin:miter;stroke-miterlimit:4;stroke-dasharray:none;stroke-opacity:1"
     d="m 142.59772,105.54884 c 2.23,2.708 2.98,3.334 3.782,4.146 4.057,4.114 5.218,3.536 6.989,1.926 2.516,-2.276 3.677,-3.765 -0.979,-8 -3.53,-3.218 -5.693,-6.113998 -5.693,-6.113998 -0.676,-1.744 -3.181,-4.318 -4.077,-4.468 -1.516,-0.246 -1.235,-0.151 -2.61,0.297 -2.541,0.823 -2.76,2 -2.614,3.187 0.145,1.172 0.609,2.104 2.109,4.479998 1.167,1.842 3.093,4.546 3.093,4.546 z"
     id="path305" />
  <path
     style="fill:#ffffff;fill-opacity:1;fill-rule:nonzero;stroke:none"
     d="m 148.17672,91.954842 c 2.249,-0.228 2.656,-0.578 2.625,-1.536 -0.021,-0.646 0.176,-1.24 0.176,-1.626 0.022,-1.296 -0.489,-3.489 -3.546,-9.317 -0.698,-1.317 -1.656,-3.183 -1.984,-3.979 -0.527,-1.25 -2.251,0.474 -2.047,0.968 0.645,1.59 0.959,2.73 1.109,3.334 0.11,0.417 0.396,1.12 0.599,2.776 0.303,2.505 0.115,4.057 0.609,6.109 0.23,0.959 -0.202,1.819 0.506,2.641 0.702,0.828 1.953,0.63 1.953,0.63"
     id="path306" />
  <path
     style="fill:none;stroke:#231f20;stroke-width:0.565977;stroke-linecap:butt;stroke-linejoin:miter;stroke-miterlimit:4;stroke-dasharray:none;stroke-opacity:1"
     d="m 148.17672,91.954842 c 2.249,-0.228 2.656,-0.578 2.625,-1.536 -0.021,-0.646 0.176,-1.24 0.176,-1.626 0.022,-1.296 -0.489,-3.489 -3.546,-9.317 -0.698,-1.317 -1.656,-3.183 -1.984,-3.979 -0.527,-1.25 -2.251,0.474 -2.047,0.968 0.645,1.59 0.959,2.73 1.109,3.334 0.11,0.417 0.396,1.12 0.599,2.776 0.303,2.505 0.115,4.057 0.609,6.109 0.23,0.959 -0.202,1.819 0.506,2.641 0.702,0.828 1.953,0.63 1.953,0.63 z"
     id="path307" />
  <path
     style="fill:#ffffff;fill-opacity:1;fill-rule:nonzero;stroke:none"
     d="m 144.05672,87.735842 c 0.036,-0.244 1.177,-0.385 1.151,-0.911 -0.026,-0.521 -0.796,-0.682 -1.735,-2.437 l -0.009,-0.016 c -0.647,-1.308 -1.724,-2.177 -2.98,-2.213 -2.078,-0.068 -3.834,2.166 -3.916,4.989 -0.095,2.823 1.52,5.167 3.593,5.224 1.989,0.068 3.683,-1.979 3.896,-4.636"
     id="path308" />
  <path
     style="fill:none;stroke:#231f20;stroke-width:0.565977;stroke-linecap:butt;stroke-linejoin:miter;stroke-miterlimit:4;stroke-dasharray:none;stroke-opacity:1"
     d="m 144.05672,87.735842 c 0.036,-0.244 1.177,-0.385 1.151,-0.911 -0.026,-0.521 -0.796,-0.682 -1.735,-2.437 l -0.009,-0.016 c -0.647,-1.308 -1.724,-2.177 -2.98,-2.213 -2.078,-0.068 -3.834,2.166 -3.916,4.989 -0.095,2.823 1.52,5.167 3.593,5.224 1.989,0.068 3.683,-1.979 3.896,-4.636 z"
     id="path309" />
  <path
     style="fill:#ffffff;fill-opacity:1;fill-rule:nonzero;stroke:#231f20;stroke-width:0.565977;stroke-linecap:round;stroke-linejoin:round;stroke-miterlimit:4;stroke-dasharray:none;stroke-opacity:1"
     d="m 146.30572,90.287842 c -0.89,1.109 0.068,3.037 0.068,3.376 0.058,5.015 0.194,5.369 0.5,9.180998 0.448,5.506 1.604,9.215 4.88,9.891 2.23,0.453 3.71,-0.249 4.439,-1.343 0.791,-1.224 1.113,-4.386 -1.163,-6.172 l -0.588,-1.604 c -0.26,-1.141 -0.396,-1.698 -0.473,-2.266 -0.147,-0.99 -0.36,-2.046998 -0.751,-3.962998 -0.692,-3.407 -2.53,-6.776 -2.53,-6.776 -0.074,-0.303 -0.246,-0.521 -0.464,-0.683"
     id="path310" />
  <path
     style="fill:#0098c9;fill-opacity:1;fill-rule:nonzero;stroke:none"
     d="m 154.36372,104.97584 -7.52,2.131 c 1.244,3.546 2.896,5.729 5.541,5.817 2.271,0.083 3.615,-0.855 4.141,-2.063 0.583,-1.338 0.38,-4.51 -2.162,-5.885"
     id="path311" />
  <path
     style="fill:none;stroke:#231f20;stroke-width:0.565977;stroke-linecap:butt;stroke-linejoin:miter;stroke-miterlimit:4;stroke-dasharray:none;stroke-opacity:1"
     d="m 154.36372,104.97584 -7.52,2.131 c 1.244,3.546 2.896,5.729 5.541,5.817 2.271,0.083 3.615,-0.855 4.141,-2.063 0.583,-1.338 0.38,-4.51 -2.162,-5.885 z"
     id="path312" />
  <path
     style="fill:#231f20;fill-opacity:1;fill-rule:nonzero;stroke:none"
     d="m 159.16072,87.647842 c -0.297,0.573 -2.104,1.297 -3.255,2.416 -0.776,0.756 -3.36,1.704 -4.073,2.516 -0.661,0.745 -1.031,1.027 -2.011,0.417 -0.582,-0.36 -1.468,-1.428 -1.218,-1.87 0.578,-1.042 1.328,-1.624 2.292,-2.088 1.093,-0.532 4.186,-1.703 4.776,-1.87 1.468,-0.401 1.906,-0.996 2.286,-1.136 0.708,-0.276 0.99,-0.068 1.266,0.355 0.521,0.801 -0.063,1.26 -0.063,1.26"
     id="path313" />
  <path
     style="fill:none;stroke:#231f20;stroke-width:0.565977;stroke-linecap:butt;stroke-linejoin:miter;stroke-miterlimit:4;stroke-dasharray:none;stroke-opacity:1"
     d="m 159.16072,87.647842 c -0.297,0.573 -2.104,1.297 -3.255,2.416 -0.776,0.756 -3.36,1.704 -4.073,2.516 -0.661,0.745 -1.031,1.027 -2.011,0.417 -0.582,-0.36 -1.468,-1.428 -1.218,-1.87 0.578,-1.042 1.328,-1.624 2.292,-2.088 1.093,-0.532 4.186,-1.703 4.776,-1.87 1.468,-0.401 1.906,-0.996 2.286,-1.136 0.708,-0.276 0.99,-0.068 1.266,0.355 0.521,0.801 -0.063,1.26 -0.063,1.26 z"
     id="path314" />
  <path
     style="fill:#231f20;fill-opacity:1;fill-rule:nonzero;stroke:none"
     d="m 151.30172,92.163842 c 0.52,1.187 -1.464,1.645 -1.964,1.848 -0.51,0.199 -1.88,0.933 -2.874,1.647 -0.995,0.708 -2.543,1.177 -4.438,2.525 -0.996,0.709 -2.417,0.767 -3.381,-0.724 -0.957,-1.468 -0.484,-2.563 0.849,-3.239 1.334,-0.677 2.87,-0.745 4.266,-1.333 1.39,-0.589 2.756,-1.319 3.797,-1.937 1.192,-0.715 2.041,-0.62 2.427,-0.334 0.964,0.698 1.318,1.547 1.318,1.547"
     id="path315" />
  <path
     style="fill:none;stroke:#231f20;stroke-width:0.565977;stroke-linecap:butt;stroke-linejoin:miter;stroke-miterlimit:4;stroke-dasharray:none;stroke-opacity:1"
     d="m 151.30172,92.163842 c 0.52,1.187 -1.464,1.645 -1.964,1.848 -0.51,0.199 -1.88,0.933 -2.874,1.647 -0.995,0.708 -2.543,1.177 -4.438,2.525 -0.996,0.709 -2.417,0.767 -3.381,-0.724 -0.957,-1.468 -0.484,-2.563 0.849,-3.239 1.334,-0.677 2.87,-0.745 4.266,-1.333 1.39,-0.589 2.756,-1.319 3.797,-1.937 1.192,-0.715 2.041,-0.62 2.427,-0.334 0.964,0.698 1.318,1.547 1.318,1.547 z"
     id="path316" />
  <path
     style="fill:#ffffff;fill-opacity:1;fill-rule:nonzero;stroke:none"
     d="m 161.31072,87.335842 c 0.928,-0.453 1.308,-1.563 0.86,-2.485 -0.448,-0.927 -1.562,-1.312 -2.483,-0.859 -0.928,0.448 -1.308,1.563 -0.855,2.484 0.448,0.927 1.562,1.307 2.478,0.86"
     id="path317" />
  <path
     style="fill:none;stroke:#231f20;stroke-width:1.33171;stroke-linecap:butt;stroke-linejoin:miter;stroke-miterlimit:4;stroke-dasharray:none;stroke-opacity:1"
     d="m 161.31072,87.335842 c 0.928,-0.453 1.308,-1.563 0.86,-2.485 -0.448,-0.927 -1.562,-1.312 -2.483,-0.859 -0.928,0.448 -1.308,1.563 -0.855,2.484 0.448,0.927 1.562,1.307 2.478,0.86 z"
     id="path318" />
  <path
     style="fill:#231f20;fill-opacity:1;fill-rule:nonzero;stroke:none"
     d="m 145.46872,73.396842 c 1.233,0.554 1.176,1.543 0.468,2.298 -0.213,0.224 -0.161,0.641 -0.385,0.838 -0.526,0.47 -2.266,0.312 -2.506,-1.161 -0.016,-0.104 -0.385,-0.839 -0.568,-1.427 -0.374,-1.157 -0.552,-3.646 1.23,-5.672 0.844,-0.958 1.256,-0.281 1.032,0.208 -0.71,1.563 -0.47,1.839 -0.506,2.312 -0.141,1.615 1.235,2.604 1.235,2.604"
     id="path319" />
  <path
     style="fill:none;stroke:#231f20;stroke-width:0.332927;stroke-linecap:butt;stroke-linejoin:miter;stroke-miterlimit:4;stroke-dasharray:none;stroke-opacity:1"
     d="m 145.46872,73.396842 c 1.233,0.554 1.176,1.543 0.468,2.298 -0.213,0.224 -0.161,0.641 -0.385,0.838 -0.526,0.47 -2.266,0.312 -2.506,-1.161 -0.016,-0.104 -0.385,-0.839 -0.568,-1.427 -0.374,-1.157 -0.552,-3.646 1.23,-5.672 0.844,-0.958 1.256,-0.281 1.032,0.208 -0.71,1.563 -0.47,1.839 -0.506,2.312 -0.141,1.615 1.235,2.604 1.235,2.604 z"
     id="path320" />
  <path
     style="fill:#0098c9;fill-opacity:1;fill-rule:nonzero;stroke:none"
     d="m 192.20672,58.912842 c -3.468,-0.573 -4.442,-0.546 -5.577,-0.629 -5.767,-0.428 -6.256,0.771 -6.537,3.151 -0.391,3.369 -0.287,5.249 6.01,5.374 4.776,0.099 8.308,0.855 8.308,0.855 1.656,0.869 5.239,1.156 6.01,0.676 1.308,-0.812 1.032,-0.692 1.772,-1.937 1.369,-2.296 0.754,-3.323 -0.131,-4.119 -0.885,-0.787 -1.844,-1.183 -4.536,-1.985 -2.089,-0.62 -5.319,-1.386 -5.319,-1.386"
     id="path321" />
  <path
     style="fill:none;stroke:#231f20;stroke-width:0.565977;stroke-linecap:butt;stroke-linejoin:miter;stroke-miterlimit:4;stroke-dasharray:none;stroke-opacity:1"
     d="m 192.20672,58.912842 c -3.468,-0.573 -4.442,-0.546 -5.577,-0.629 -5.767,-0.428 -6.256,0.771 -6.537,3.151 -0.391,3.369 -0.287,5.249 6.01,5.374 4.776,0.099 8.308,0.855 8.308,0.855 1.656,0.869 5.239,1.156 6.01,0.676 1.308,-0.812 1.032,-0.692 1.772,-1.937 1.369,-2.296 0.754,-3.323 -0.131,-4.119 -0.885,-0.787 -1.844,-1.183 -4.536,-1.985 -2.089,-0.62 -5.319,-1.386 -5.319,-1.386 z"
     id="path322" />
  <path
     style="fill:#ffffff;fill-opacity:1;fill-rule:nonzero;stroke:none"
     d="m 196.95272,72.814842 c -1.542,1.656 -1.62,2.192 -0.964,2.89 0.437,0.468 0.682,1.047 0.937,1.339 0.839,0.989 2.667,2.301 8.803,4.677 1.39,0.536 3.344,1.307 4.114,1.687 1.219,0.589 1.38,-1.833 0.902,-2.077 -1.527,-0.767 -2.516,-1.423 -3.032,-1.776 -0.35,-0.24 -1.031,-0.584 -2.271,-1.699 -1.885,-1.687 -2.76,-2.973 -4.489,-4.192 -0.803,-0.573 -1.042,-1.505 -2.115,-1.657 -1.073,-0.162 -1.885,0.808 -1.885,0.808"
     id="path323" />
  <path
     style="fill:none;stroke:#231f20;stroke-width:0.565977;stroke-linecap:butt;stroke-linejoin:miter;stroke-miterlimit:4;stroke-dasharray:none;stroke-opacity:1"
     d="m 196.95272,72.814842 c -1.542,1.656 -1.62,2.192 -0.964,2.89 0.437,0.468 0.682,1.047 0.937,1.339 0.839,0.989 2.667,2.301 8.803,4.677 1.39,0.536 3.344,1.307 4.114,1.687 1.219,0.589 1.38,-1.833 0.902,-2.077 -1.527,-0.767 -2.516,-1.423 -3.032,-1.776 -0.35,-0.24 -1.031,-0.584 -2.271,-1.699 -1.885,-1.687 -2.76,-2.973 -4.489,-4.192 -0.803,-0.573 -1.042,-1.505 -2.115,-1.657 -1.073,-0.162 -1.885,0.808 -1.885,0.808 z"
     id="path324" />
  <path
     style="fill:#ffffff;fill-opacity:1;fill-rule:nonzero;stroke:none"
     d="m 202.83272,73.283842 c 0.13,0.203 -0.636,1.061 -0.271,1.437 0.369,0.38 1.052,-0.01 2.916,0.692 l 0.016,0.011 c 1.344,0.557 2.735,0.5 3.703,-0.297 1.605,-1.318 1.453,-4.151 -0.338,-6.334 -1.792,-2.186 -4.548,-2.885 -6.152,-1.566 -1.536,1.254 -1.462,3.916 0.126,6.057"
     id="path325" />
  <path
     style="fill:none;stroke:#231f20;stroke-width:0.565977;stroke-linecap:butt;stroke-linejoin:miter;stroke-miterlimit:4;stroke-dasharray:none;stroke-opacity:1"
     d="m 202.83272,73.283842 c 0.13,0.203 -0.636,1.061 -0.271,1.437 0.369,0.38 1.052,-0.01 2.916,0.692 l 0.016,0.011 c 1.344,0.557 2.735,0.5 3.703,-0.297 1.605,-1.318 1.453,-4.151 -0.338,-6.334 -1.792,-2.186 -4.548,-2.885 -6.152,-1.566 -1.536,1.254 -1.462,3.916 0.126,6.057 z"
     id="path326" />
  <path
     style="fill:#ffffff;fill-opacity:1;fill-rule:nonzero;stroke:#231f20;stroke-width:0.565977;stroke-linecap:round;stroke-linejoin:round;stroke-miterlimit:4;stroke-dasharray:none;stroke-opacity:1"
     d="m 199.45772,72.839842 c -0.057,-1.421 -2.047,-2.239 -2.276,-2.495 -3.344,-3.733 -3.677,-3.916 -6.417,-6.577 -3.963,-3.855 -7.271,-5.885 -10.187,-4.235 -1.975,1.126 -2.625,2.626 -2.453,3.932 0.208,1.443 2.052,4.032 4.937,3.88 l 1.5,0.819 c 0.943,0.687 1.411,1.02 1.849,1.391 0.755,0.656 1.615,1.306 3.172,2.494 2.76,2.104 6.364,3.427 6.364,3.427 0.255,0.188 0.526,0.24 0.802,0.213"
     id="path327" />
  <path
     style="fill:#0098c9;fill-opacity:1;fill-rule:nonzero;stroke:none"
     d="m 179.97772,59.803842 c -1.76,1.432 -2.156,3.021 -1.76,4.281 0.443,1.386 2.688,3.642 5.511,3.006 l 4.254,-6.552 c -3.27,-1.855 -5.953,-2.407 -8.005,-0.735"
     id="path328" />
  <path
     style="fill:none;stroke:#231f20;stroke-width:0.565977;stroke-linecap:butt;stroke-linejoin:miter;stroke-miterlimit:4;stroke-dasharray:none;stroke-opacity:1"
     d="m 179.97772,59.803842 c -1.76,1.432 -2.156,3.021 -1.76,4.281 0.443,1.386 2.688,3.642 5.511,3.006 l 4.254,-6.552 c -3.27,-1.855 -5.953,-2.407 -8.005,-0.735 z"
     id="path329" />
  <path
     style="fill:#231f20;fill-opacity:1;fill-rule:nonzero;stroke:none"
     d="m 191.52072,83.287842 c -0.158,-0.624 0.733,-2.359 0.858,-3.957 0.09,-1.084 1.407,-3.495 1.412,-4.579 0.006,-0.989 0.099,-1.448 1.235,-1.636 0.676,-0.113 2.047,0.105 2.151,0.605 0.254,1.167 0.073,2.099 -0.35,3.078 -0.473,1.12 -2.03,4.041 -2.364,4.557 -0.844,1.265 -0.776,2 -0.974,2.36 -0.354,0.672 -0.698,0.703 -1.183,0.563 -0.921,-0.262 -0.785,-0.991 -0.785,-0.991"
     id="path330" />
  <path
     style="fill:none;stroke:#231f20;stroke-width:0.565977;stroke-linecap:butt;stroke-linejoin:miter;stroke-miterlimit:4;stroke-dasharray:none;stroke-opacity:1"
     d="m 191.52072,83.287842 c -0.158,-0.624 0.733,-2.359 0.858,-3.957 0.09,-1.084 1.407,-3.495 1.412,-4.579 0.006,-0.989 0.099,-1.448 1.235,-1.636 0.676,-0.113 2.047,0.105 2.151,0.605 0.254,1.167 0.073,2.099 -0.35,3.078 -0.473,1.12 -2.03,4.041 -2.364,4.557 -0.844,1.265 -0.776,2 -0.974,2.36 -0.354,0.672 -0.698,0.703 -1.183,0.563 -0.921,-0.262 -0.785,-0.991 -0.785,-0.991 z"
     id="path331" />
  <path
     style="fill:#231f20;fill-opacity:1;fill-rule:nonzero;stroke:none"
     d="m 194.46272,74.720842 c -1.172,-0.557 0.02,-2.204 0.266,-2.688 0.249,-0.484 0.797,-1.937 1.073,-3.13 0.285,-1.192 1.145,-2.563 1.681,-4.823 0.282,-1.192 1.314,-2.167 3.022,-1.683 1.688,0.48 2.052,1.61 1.489,2.996 -0.552,1.39 -1.667,2.452 -2.328,3.818 -0.661,1.358 -1.208,2.801 -1.584,3.958 -0.427,1.318 -1.129,1.807 -1.609,1.848 -1.187,0.11 -2.01,-0.296 -2.01,-0.296"
     id="path332" />
  <path
     style="fill:none;stroke:#231f20;stroke-width:0.565977;stroke-linecap:butt;stroke-linejoin:miter;stroke-miterlimit:4;stroke-dasharray:none;stroke-opacity:1"
     d="m 194.46272,74.720842 c -1.172,-0.557 0.02,-2.204 0.266,-2.688 0.249,-0.484 0.797,-1.937 1.073,-3.13 0.285,-1.192 1.145,-2.563 1.681,-4.823 0.282,-1.192 1.314,-2.167 3.022,-1.683 1.688,0.48 2.052,1.61 1.489,2.996 -0.552,1.39 -1.667,2.452 -2.328,3.818 -0.661,1.358 -1.208,2.801 -1.584,3.958 -0.427,1.318 -1.129,1.807 -1.609,1.848 -1.187,0.11 -2.01,-0.296 -2.01,-0.296 z"
     id="path333" />
  <path
     style="fill:#ffffff;fill-opacity:1;fill-rule:nonzero;stroke:none"
     d="m 190.10872,84.944842 c -0.402,0.948 0.041,2.036 0.989,2.438 0.948,0.396 2.037,-0.047 2.432,-0.995 0.401,-0.943 -0.041,-2.037 -0.995,-2.433 -0.942,-0.4 -2.03,0.042 -2.426,0.99"
     id="path334" />
  <path
     style="fill:none;stroke:#231f20;stroke-width:1.33171;stroke-linecap:butt;stroke-linejoin:miter;stroke-miterlimit:4;stroke-dasharray:none;stroke-opacity:1"
     d="m 190.10872,84.944842 c -0.402,0.948 0.041,2.036 0.989,2.438 0.948,0.396 2.037,-0.047 2.432,-0.995 0.401,-0.943 -0.041,-2.037 -0.995,-2.433 -0.942,-0.4 -2.03,0.042 -2.426,0.99 z"
     id="path335" />
  <path
     style="fill:#231f20;fill-opacity:1;fill-rule:nonzero;stroke:none"
     d="m 211.20672,84.996842 c -1.29,0.4 -1.901,-0.38 -1.858,-1.417 0.005,-0.307 -0.303,-0.588 -0.267,-0.885 0.089,-0.698 1.496,-1.724 2.652,-0.776 0.077,0.073 0.839,0.385 1.364,0.702 1.047,0.626 2.819,2.382 2.813,5.079 -0.005,1.276 -0.766,1.036 -0.917,0.521 -0.495,-1.641 -0.855,-1.693 -1.14,-2.073 -0.959,-1.308 -2.647,-1.151 -2.647,-1.151"
     id="path336" />
  <path
     style="fill:none;stroke:#231f20;stroke-width:0.332927;stroke-linecap:butt;stroke-linejoin:miter;stroke-miterlimit:4;stroke-dasharray:none;stroke-opacity:1"
     d="m 211.20672,84.996842 c -1.29,0.4 -1.901,-0.38 -1.858,-1.417 0.005,-0.307 -0.303,-0.588 -0.267,-0.885 0.089,-0.698 1.496,-1.724 2.652,-0.776 0.077,0.073 0.839,0.385 1.364,0.702 1.047,0.626 2.819,2.382 2.813,5.079 -0.005,1.276 -0.766,1.036 -0.917,0.521 -0.495,-1.641 -0.855,-1.693 -1.14,-2.073 -0.959,-1.308 -2.647,-1.151 -2.647,-1.151 z"
     id="path337" />
  <path
     style="fill:#231f20;fill-opacity:1;fill-rule:nonzero;stroke:none"
     d="m 314.97172,6.2308415 c 1.11,0.772 0.871,1.735 0.027,2.339 -0.251,0.182 -0.276,0.6 -0.531,0.756 -0.609,0.358 -2.286,-0.12 -2.24,-1.62 0,-0.104 -0.218,-0.891 -0.297,-1.511 -0.14,-1.203 0.151,-3.683 2.281,-5.333 1.011,-0.782 1.287,-0.042 0.975,0.401 -0.991,1.391 -0.808,1.713 -0.933,2.172 -0.438,1.563 0.718,2.796 0.718,2.796"
     id="path338" />
  <path
     style="fill:none;stroke:#231f20;stroke-width:0.332927;stroke-linecap:butt;stroke-linejoin:miter;stroke-miterlimit:4;stroke-dasharray:none;stroke-opacity:1"
     d="m 314.97172,6.2308415 c 1.11,0.772 0.871,1.735 0.027,2.339 -0.251,0.182 -0.276,0.6 -0.531,0.756 -0.609,0.358 -2.286,-0.12 -2.24,-1.62 0,-0.104 -0.218,-0.891 -0.297,-1.511 -0.14,-1.203 0.151,-3.683 2.281,-5.333 1.011,-0.782 1.287,-0.042 0.975,0.401 -0.991,1.391 -0.808,1.713 -0.933,2.172 -0.438,1.563 0.718,2.796 0.718,2.796 z"
     id="path339" />
  <path
     style="fill:#231f20;fill-opacity:1;fill-rule:nonzero;stroke:none"
     d="m 314.13472,24.959842 c 2.255,0.199 2.724,-0.066 2.869,-1.009 0.099,-0.636 0.407,-1.183 0.484,-1.568 0.26,-1.271 0.172,-3.511 -1.724,-9.813 -0.437,-1.432 -1.03,-3.4430005 -1.208,-4.2820005 -0.281,-1.328 -2.292,0.032 -2.188,0.558 0.328,1.6820005 0.428,2.8600005 0.464,3.4900005 0.027,0.427 0.172,1.171 0.058,2.834 -0.172,2.52 -0.651,4.004 -0.547,6.114 0.041,0.984 -0.541,1.75 -0.005,2.692 0.53,0.943 1.797,0.984 1.797,0.984"
     id="path340" />
  <path
     style="fill:none;stroke:#231f20;stroke-width:0.565977;stroke-linecap:butt;stroke-linejoin:miter;stroke-miterlimit:4;stroke-dasharray:none;stroke-opacity:1"
     d="m 314.13472,24.959842 c 2.255,0.199 2.724,-0.066 2.869,-1.009 0.099,-0.636 0.407,-1.183 0.484,-1.568 0.26,-1.271 0.172,-3.511 -1.724,-9.813 -0.437,-1.432 -1.03,-3.4430005 -1.208,-4.2820005 -0.281,-1.328 -2.292,0.032 -2.188,0.558 0.328,1.6820005 0.428,2.8600005 0.464,3.4900005 0.027,0.427 0.172,1.171 0.058,2.834 -0.172,2.52 -0.651,4.004 -0.547,6.114 0.041,0.984 -0.541,1.75 -0.005,2.692 0.53,0.943 1.797,0.984 1.797,0.984 z"
     id="path341" />
  <path
     style="fill:#0098c9;fill-opacity:1;fill-rule:nonzero;stroke:none"
     d="m 318.43572,50.699842 c -0.24,-3.125 0.052,-3.822 0.35,-4.697 1.849,-5.475 -0.875,-6.281 -3.662,-5.543 -3.276,0.866 -4.469,1.11 -3.396,7.314 0.307,1.729 0.588,8.489 0.588,8.489 -0.224,2.442 0.86,4.937 2.126,5.661 1.333,0.755 0.86,0.36 2.218,0.839 1.303,0.458 3.448,0.036 4.052,-1.042 0.579,-1.032 -0.249,-2.48 -1.182,-4.718 -0.734,-1.767 -1.094,-6.303 -1.094,-6.303"
     id="path342" />
  <path
     style="fill:none;stroke:#231f20;stroke-width:0.565977;stroke-linecap:butt;stroke-linejoin:miter;stroke-miterlimit:4;stroke-dasharray:none;stroke-opacity:1"
     d="m 318.43572,50.699842 c -0.24,-3.125 0.052,-3.822 0.35,-4.697 1.849,-5.475 -0.875,-6.281 -3.662,-5.543 -3.276,0.866 -4.469,1.11 -3.396,7.314 0.307,1.729 0.588,8.489 0.588,8.489 -0.224,2.442 0.86,4.937 2.126,5.661 1.333,0.755 0.86,0.36 2.218,0.839 1.303,0.458 3.448,0.036 4.052,-1.042 0.579,-1.032 -0.249,-2.48 -1.182,-4.718 -0.734,-1.767 -1.094,-6.303 -1.094,-6.303 z"
     id="path343" />
  <path
     style="fill:#ffffff;fill-opacity:1;fill-rule:nonzero;stroke:none"
     d="m 319.02572,69.172842 c 0.181,0.167 -0.33,1.194 0.118,1.464 0.454,0.266 1.011,-0.292 2.991,-0.104 l 0.025,0.006 c 1.438,0.188 2.766,-0.235 3.49,-1.255 1.204,-1.693 0.308,-4.391 -1.99,-6.027 -2.306,-1.636 -5.15,-1.584 -6.354,0.104 -1.151,1.62 -0.375,4.172 1.72,5.812"
     id="path344" />
  <path
     style="fill:none;stroke:#231f20;stroke-width:0.565977;stroke-linecap:butt;stroke-linejoin:miter;stroke-miterlimit:4;stroke-dasharray:none;stroke-opacity:1"
     d="m 319.02572,69.172842 c 0.181,0.167 -0.33,1.194 0.118,1.464 0.454,0.266 1.011,-0.292 2.991,-0.104 l 0.025,0.006 c 1.438,0.188 2.766,-0.235 3.49,-1.255 1.204,-1.693 0.308,-4.391 -1.99,-6.027 -2.306,-1.636 -5.15,-1.584 -6.354,0.104 -1.151,1.62 -0.375,4.172 1.72,5.812 z"
     id="path345" />
  <path
     style="fill:#231f20;fill-opacity:1;fill-rule:nonzero;stroke:none"
     d="m 314.91072,22.617842 c -3.948,-0.699 -2.781,3.208 -2.865,3.681 -0.886,4.932 -0.828,5.308 -1.24,9.109 -0.599,5.495 -0.162,9.355 2.933,10.636 2.099,0.864 3.687,0.459 4.604,-0.489 1.016,-1.052 1.921,-4.095 0.025,-6.271 l -0.276,-1.693 c -0.036,-1.161 -0.066,-1.735 -0.041,-2.307 0.047,-1.005 0.036,-2.084 0.011,-4.037 -0.032,-3.473 -1.214,-7.131 -1.214,-7.131 -0.042,-1.244 -1.937,-1.498 -1.937,-1.498"
     id="path346" />
  <path
     style="fill:none;stroke:#231f20;stroke-width:0.565977;stroke-linecap:butt;stroke-linejoin:miter;stroke-miterlimit:4;stroke-dasharray:none;stroke-opacity:1"
     d="m 314.91072,22.617842 c -3.948,-0.699 -2.781,3.208 -2.865,3.681 -0.886,4.932 -0.828,5.308 -1.24,9.109 -0.599,5.495 -0.162,9.355 2.933,10.636 2.099,0.864 3.687,0.459 4.604,-0.489 1.016,-1.052 1.921,-4.095 0.025,-6.271 l -0.276,-1.693 c -0.036,-1.161 -0.066,-1.735 -0.041,-2.307 0.047,-1.005 0.036,-2.084 0.011,-4.037 -0.032,-3.473 -1.214,-7.131 -1.214,-7.131 -0.042,-1.244 -1.937,-1.498 -1.937,-1.498 z"
     id="path347" />
  <path
     style="fill:#0098c9;fill-opacity:1;fill-rule:nonzero;stroke:none"
     d="m 317.75872,38.913842 -7.787,0.677 c 0.1,0.645 0.224,1.24 0.366,1.807 -0.006,0.084 -0.016,0.162 -0.032,0.229 -0.187,0.787 0.198,1.287 0.865,2.084 0.708,1.385 1.708,2.307 3.145,2.635 2.214,0.505 3.714,-0.162 4.459,-1.244 0.828,-1.204 1.219,-4.355 -1.016,-6.188"
     id="path348" />
  <path
     style="fill:none;stroke:#231f20;stroke-width:0.565977;stroke-linecap:butt;stroke-linejoin:miter;stroke-miterlimit:4;stroke-dasharray:none;stroke-opacity:1"
     d="m 317.75872,38.913842 -7.787,0.677 c 0.1,0.645 0.224,1.24 0.366,1.807 -0.006,0.084 -0.016,0.162 -0.032,0.229 -0.187,0.787 0.198,1.287 0.865,2.084 0.708,1.385 1.708,2.307 3.145,2.635 2.214,0.505 3.714,-0.162 4.459,-1.244 0.828,-1.204 1.219,-4.355 -1.016,-6.188 z"
     id="path349" />
  <path
     style="fill:#231f20;fill-opacity:1;fill-rule:nonzero;stroke:none"
     d="m 314.54572,80.407842 c -0.292,-0.572 0.177,-2.468 -0.058,-4.057 -0.166,-1.072 0.574,-3.719 0.328,-4.771 -0.213,-0.968 -0.229,-1.437 0.839,-1.875 0.625,-0.26 2.011,-0.36 2.229,0.104 0.506,1.079 0.542,2.022 0.36,3.074 -0.209,1.197 -1.062,4.396 -1.272,4.973 -0.53,1.428 -0.306,2.125 -0.41,2.521 -0.194,0.735 -0.527,0.839 -1.027,0.818 -0.963,-0.047 -0.989,-0.787 -0.989,-0.787"
     id="path350" />
  <path
     style="fill:none;stroke:#231f20;stroke-width:0.565977;stroke-linecap:butt;stroke-linejoin:miter;stroke-miterlimit:4;stroke-dasharray:none;stroke-opacity:1"
     d="m 314.54572,80.407842 c -0.292,-0.572 0.177,-2.468 -0.058,-4.057 -0.166,-1.072 0.574,-3.719 0.328,-4.771 -0.213,-0.968 -0.229,-1.437 0.839,-1.875 0.625,-0.26 2.011,-0.36 2.229,0.104 0.506,1.079 0.542,2.022 0.36,3.074 -0.209,1.197 -1.062,4.396 -1.272,4.973 -0.53,1.428 -0.306,2.125 -0.41,2.521 -0.194,0.735 -0.527,0.839 -1.027,0.818 -0.963,-0.047 -0.989,-0.787 -0.989,-0.787 z"
     id="path351" />
  <path
     style="fill:#231f20;fill-opacity:1;fill-rule:nonzero;stroke:none"
     d="m 315.46772,71.392842 c -1.272,-0.272 -0.48,-2.152 -0.354,-2.672 0.136,-0.532 0.333,-2.073 0.338,-3.292 0.006,-1.229 0.531,-2.756 0.542,-5.084 0.005,-1.224 0.786,-2.405 2.557,-2.322 1.755,0.084 2.369,1.098 2.141,2.578 -0.229,1.479 -1.073,2.771 -1.406,4.244 -0.339,1.475 -0.542,3.006 -0.647,4.219 -0.119,1.376 -0.687,2.016 -1.145,2.163 -1.135,0.369 -2.026,0.166 -2.026,0.166"
     id="path352" />
  <path
     style="fill:none;stroke:#231f20;stroke-width:0.565977;stroke-linecap:butt;stroke-linejoin:miter;stroke-miterlimit:4;stroke-dasharray:none;stroke-opacity:1"
     d="m 315.46772,71.392842 c -1.272,-0.272 -0.48,-2.152 -0.354,-2.672 0.136,-0.532 0.333,-2.073 0.338,-3.292 0.006,-1.229 0.531,-2.756 0.542,-5.084 0.005,-1.224 0.786,-2.405 2.557,-2.322 1.755,0.084 2.369,1.098 2.141,2.578 -0.229,1.479 -1.073,2.771 -1.406,4.244 -0.339,1.475 -0.542,3.006 -0.647,4.219 -0.119,1.376 -0.687,2.016 -1.145,2.163 -1.135,0.369 -2.026,0.166 -2.026,0.166 z"
     id="path353" />
  <path
     style="fill:#ffffff;fill-opacity:1;fill-rule:nonzero;stroke:none"
     d="m 316.44672,84.111842 c -0.636,0.807 -1.803,0.952 -2.615,0.317 -0.806,-0.625 -0.953,-1.802 -0.317,-2.609 0.629,-0.808 1.801,-0.953 2.609,-0.317 0.807,0.629 0.954,1.801 0.323,2.609"
     id="path354" />
  <path
     style="fill:none;stroke:#231f20;stroke-width:1.33171;stroke-linecap:butt;stroke-linejoin:miter;stroke-miterlimit:4;stroke-dasharray:none;stroke-opacity:1"
     d="m 316.44672,84.111842 c -0.636,0.807 -1.803,0.952 -2.615,0.317 -0.806,-0.625 -0.953,-1.802 -0.317,-2.609 0.629,-0.808 1.801,-0.953 2.609,-0.317 0.807,0.629 0.954,1.801 0.323,2.609 z"
     id="path355" />
  <path
     style="fill:none;stroke:#231f20;stroke-width:0.399514;stroke-linecap:butt;stroke-linejoin:miter;stroke-miterlimit:4;stroke-dasharray:none;stroke-opacity:1"
     d="m 133.91172,108.17884 c -11.923,23.652 -45.723998,17.584 -51.980998,13.896"
     id="path356" />
  <path
     style="fill:#231f20;fill-opacity:1;fill-rule:nonzero;stroke:none"
     d="m 80.889722,121.45984 c 0.594,0.104 1.386,0.157 1.953,0.047 l -0.775,0.646 -0.188,0.995 c -0.183,-0.552 -0.61,-1.219 -0.99,-1.688"
     id="path357" />
  <path
     style="fill:#0098c9;fill-opacity:1;fill-rule:nonzero;stroke:none"
     d="m 65.723722,90.996842 c 0.306,-3.494 0.207,-4.464 0.202,-5.609 -0.009,-5.781 -1.238,-6.177 -3.629,-6.276 -3.3904,-0.136 -5.2612,0.115 -4.9118,6.4 0.2651,4.772 -0.2136,8.349 -0.2136,8.349 -0.7505,1.714 -0.7598,5.308 -0.224,6.047 0.912,1.234998 0.7658,0.968998 2.0683,1.614998 2.3911,1.198 3.3691,0.505 4.0981,-0.438 0.719,-0.948 1.036,-1.931998 1.626,-4.676998 0.462,-2.135 0.984,-5.411 0.984,-5.411"
     id="path358" />
  <path
     style="fill:none;stroke:#231f20;stroke-width:0.565977;stroke-linecap:butt;stroke-linejoin:miter;stroke-miterlimit:4;stroke-dasharray:none;stroke-opacity:1"
     d="m 65.723722,90.996842 c 0.306,-3.494 0.207,-4.464 0.202,-5.609 -0.009,-5.781 -1.238,-6.177 -3.629,-6.276 -3.3904,-0.136 -5.2612,0.115 -4.9118,6.4 0.2651,4.772 -0.2136,8.349 -0.2136,8.349 -0.7505,1.714 -0.7598,5.308 -0.224,6.047 0.912,1.234998 0.7658,0.968998 2.0683,1.614998 2.3911,1.198 3.3691,0.505 4.0981,-0.438 0.719,-0.948 1.036,-1.931998 1.626,-4.676998 0.462,-2.135 0.984,-5.411 0.984,-5.411 z"
     id="path359" />
  <path
     style="fill:#ffffff;fill-opacity:1;fill-rule:nonzero;stroke:none"
     d="m 52.218322,96.782842 c -1.7658,-1.411 -2.3016,-1.447 -2.948,-0.739 -0.4323,0.473 -0.9948,0.755 -1.2656,1.031 -0.9224,0.917 -2.0984,2.833 -4,9.135998 -0.4213,1.426 -1.0464,3.426 -1.3651,4.229 -0.5,1.26 1.9334,1.239 2.1359,0.744 0.6505,-1.588 1.2292,-2.62 1.5412,-3.156 0.2135,-0.375 0.5,-1.073 1.5213,-2.396 1.5417,-2.005 2.7547,-2.979 3.8443,-4.792 0.5052,-0.842998 1.4213,-1.155998 1.489,-2.238998 0.0828,-1.078 -0.953,-1.818 -0.953,-1.818"
     id="path360" />
  <path
     style="fill:none;stroke:#231f20;stroke-width:0.565977;stroke-linecap:butt;stroke-linejoin:miter;stroke-miterlimit:4;stroke-dasharray:none;stroke-opacity:1"
     d="m 52.218322,96.782842 c -1.7658,-1.411 -2.3016,-1.447 -2.948,-0.739 -0.4323,0.473 -0.9948,0.755 -1.2656,1.031 -0.9224,0.917 -2.0984,2.833 -4,9.135998 -0.4213,1.426 -1.0464,3.426 -1.3651,4.229 -0.5,1.26 1.9334,1.239 2.1359,0.744 0.6505,-1.588 1.2292,-2.62 1.5412,-3.156 0.2135,-0.375 0.5,-1.073 1.5213,-2.396 1.5417,-2.005 2.7547,-2.979 3.8443,-4.792 0.5052,-0.842998 1.4213,-1.155998 1.489,-2.238998 0.0828,-1.078 -0.953,-1.818 -0.953,-1.818 z"
     id="path361" />
  <path
     style="fill:#ffffff;fill-opacity:1;fill-rule:nonzero;stroke:none"
     d="m 52.202122,102.67884 c -0.1974,0.152 -1.1094,-0.547 -1.4573,-0.156 -0.3437,0.396 0.0932,1.046 -0.4693,2.958 l -0.011,0.022 c -0.453,1.38 -0.2916,2.754 0.5787,3.666 1.4375,1.5 4.2495,1.14 6.2923,-0.818 2.0468,-1.954 2.5306,-4.755 1.0932,-6.25 -1.3652,-1.442 -4.0156,-1.161 -6.0266,0.578"
     id="path362" />
  <path
     style="fill:none;stroke:#231f20;stroke-width:0.565977;stroke-linecap:butt;stroke-linejoin:miter;stroke-miterlimit:4;stroke-dasharray:none;stroke-opacity:1"
     d="m 52.202122,102.67884 c -0.1974,0.152 -1.1094,-0.547 -1.4573,-0.156 -0.3437,0.396 0.0932,1.046 -0.4693,2.958 l -0.011,0.022 c -0.453,1.38 -0.2916,2.754 0.5787,3.666 1.4375,1.5 4.2495,1.14 6.2923,-0.818 2.0468,-1.954 2.5306,-4.755 1.0932,-6.25 -1.3652,-1.442 -4.0156,-1.161 -6.0266,0.578 z"
     id="path363" />
  <path
     style="fill:#ffffff;fill-opacity:1;fill-rule:nonzero;stroke:#231f20;stroke-width:0.565977;stroke-linecap:round;stroke-linejoin:round;stroke-miterlimit:4;stroke-dasharray:none;stroke-opacity:1"
     d="m 52.384922,99.287842 c 1.4119,-0.172 2.0839,-2.213 2.3172,-2.457 3.4692,-3.62 3.6255,-3.97 6.0786,-6.902 3.536,-4.245 5.312,-7.698 3.448,-10.48 -1.27,-1.885 -2.822,-2.421 -4.104,-2.145 -1.4279,0.313 -3.8706,2.349 -3.4998,5.213 l -0.7082,1.558 c -0.6104,0.989 -0.9011,1.485 -1.2454,1.953 -0.5932,0.803 -1.177,1.708 -2.2453,3.349 -1.8905,2.911 -2.9369,6.61 -2.9369,6.61 -0.1667,0.265 -0.1923,0.541 -0.1511,0.812"
     id="path364" />
  <path
     style="fill:#0098c9;fill-opacity:1;fill-rule:nonzero;stroke:none"
     d="m 63.911722,78.876842 c -1.563,-1.65 -3.177,-1.922 -4.407,-1.432 -1.349,0.547 -3.4266,2.952 -2.5787,5.719 l 6.8597,3.744 c 1.599,-3.401 1.949,-6.12 0.126,-8.031"
     id="path365" />
  <path
     style="fill:none;stroke:#231f20;stroke-width:0.565977;stroke-linecap:butt;stroke-linejoin:miter;stroke-miterlimit:4;stroke-dasharray:none;stroke-opacity:1"
     d="m 63.911722,78.876842 c -1.563,-1.65 -3.177,-1.922 -4.407,-1.432 -1.349,0.547 -3.4266,2.952 -2.5787,5.719 l 6.8597,3.744 c 1.599,-3.401 1.949,-6.12 0.126,-8.031 z"
     id="path366" />
  <path
     style="fill:#231f20;fill-opacity:1;fill-rule:nonzero;stroke:none"
     d="m 45.234422,85.694842 c 0.6396,0.046 2.0197,1.426 3.5,2.041 1,0.423 2.8848,2.423 3.9156,2.761 0.9375,0.312 1.3443,0.547 1.1724,1.687 -0.1041,0.672 -0.7401,1.912 -1.2443,1.855 -1.188,-0.126 -2.0104,-0.584 -2.8188,-1.287 -0.9161,-0.797 -3.2129,-3.183 -3.5983,-3.661 -0.9427,-1.194 -1.6615,-1.36 -1.9427,-1.656 -0.5256,-0.547 -0.448,-0.886 -0.1667,-1.303 0.5318,-0.796 1.1828,-0.437 1.1828,-0.437"
     id="path367" />
  <path
     style="fill:none;stroke:#231f20;stroke-width:0.565977;stroke-linecap:butt;stroke-linejoin:miter;stroke-miterlimit:4;stroke-dasharray:none;stroke-opacity:1"
     d="m 45.234422,85.694842 c 0.6396,0.046 2.0197,1.426 3.5,2.041 1,0.423 2.8848,2.423 3.9156,2.761 0.9375,0.312 1.3443,0.547 1.1724,1.687 -0.1041,0.672 -0.7401,1.912 -1.2443,1.855 -1.188,-0.126 -2.0104,-0.584 -2.8188,-1.287 -0.9161,-0.797 -3.2129,-3.183 -3.5983,-3.661 -0.9427,-1.194 -1.6615,-1.36 -1.9427,-1.656 -0.5256,-0.547 -0.448,-0.886 -0.1667,-1.303 0.5318,-0.796 1.1828,-0.437 1.1828,-0.437 z"
     id="path368" />
  <path
     style="fill:#231f20;fill-opacity:1;fill-rule:nonzero;stroke:none"
     d="m 52.468822,91.147842 c 0.8905,-0.943 2.088,0.703 2.4733,1.083 0.3855,0.386 1.5986,1.36 2.6454,1.996 1.0426,0.634 2.0734,1.88 4.0622,3.093 1.043,0.635 1.657,1.916 0.667,3.390998 -0.979,1.458 -2.167,1.453 -3.3172,0.489 -1.1454,-0.959 -1.812,-2.343998 -2.9016,-3.395998 -1.088,-1.052 -2.2958,-2.021 -3.2755,-2.74 -1.1203,-0.812 -1.3699,-1.629 -1.2604,-2.093 0.2708,-1.167 0.9068,-1.823 0.9068,-1.823"
     id="path369" />
  <path
     style="fill:none;stroke:#231f20;stroke-width:0.565977;stroke-linecap:butt;stroke-linejoin:miter;stroke-miterlimit:4;stroke-dasharray:none;stroke-opacity:1"
     d="m 52.468822,91.147842 c 0.8905,-0.943 2.088,0.703 2.4733,1.083 0.3855,0.386 1.5986,1.36 2.6454,1.996 1.0426,0.634 2.0734,1.88 4.0622,3.093 1.043,0.635 1.657,1.916 0.667,3.390998 -0.979,1.458 -2.167,1.453 -3.3172,0.489 -1.1454,-0.959 -1.812,-2.343998 -2.9016,-3.395998 -1.088,-1.052 -2.2958,-2.021 -3.2755,-2.74 -1.1203,-0.812 -1.3699,-1.629 -1.2604,-2.093 0.2708,-1.167 0.9068,-1.823 0.9068,-1.823 z"
     id="path370" />
  <path
     style="fill:#ffffff;fill-opacity:1;fill-rule:nonzero;stroke:none"
     d="m 44.103622,83.835842 c -0.7812,-0.672 -1.9478,-0.589 -2.6254,0.187 -0.676,0.776 -0.5932,1.948 0.188,2.62 0.776,0.677 1.9478,0.593 2.6197,-0.183 0.6776,-0.776 0.5881,-1.953 -0.1823,-2.624"
     id="path371" />
  <path
     style="fill:none;stroke:#231f20;stroke-width:1.33171;stroke-linecap:butt;stroke-linejoin:miter;stroke-miterlimit:4;stroke-dasharray:none;stroke-opacity:1"
     d="m 44.103622,83.835842 c -0.7812,-0.672 -1.9478,-0.589 -2.6254,0.187 -0.676,0.776 -0.5932,1.948 0.188,2.62 0.776,0.677 1.9478,0.593 2.6197,-0.183 0.6776,-0.776 0.5881,-1.953 -0.1823,-2.624 z"
     id="path372" />
  <path
     style="fill:#231f20;fill-opacity:1;fill-rule:nonzero;stroke:none"
     d="m 41.155822,111.92384 c -0.5,-1.26 0.2344,-1.927 1.2702,-1.964 0.3136,-0.015 0.5631,-0.343 0.8656,-0.333 0.6975,0.032 1.8334,1.365 0.9678,2.584 -0.0626,0.082 -0.312,0.869 -0.5932,1.416 -0.5412,1.089 -2.1563,2.99 -4.8547,3.188 -1.2708,0.093 -1.088,-0.683 -0.5828,-0.87 1.5989,-0.62 1.6203,-0.985 1.9787,-1.297 1.2296,-1.057 0.9484,-2.724 0.9484,-2.724"
     id="path373" />
  <path
     style="fill:none;stroke:#231f20;stroke-width:0.332927;stroke-linecap:butt;stroke-linejoin:miter;stroke-miterlimit:4;stroke-dasharray:none;stroke-opacity:1"
     d="m 41.155822,111.92384 c -0.5,-1.26 0.2344,-1.927 1.2702,-1.964 0.3136,-0.015 0.5631,-0.343 0.8656,-0.333 0.6975,0.032 1.8334,1.365 0.9678,2.584 -0.0626,0.082 -0.312,0.869 -0.5932,1.416 -0.5412,1.089 -2.1563,2.99 -4.8547,3.188 -1.2708,0.093 -1.088,-0.683 -0.5828,-0.87 1.5989,-0.62 1.6203,-0.985 1.9787,-1.297 1.2296,-1.057 0.9484,-2.724 0.9484,-2.724 z"
     id="path374" />
</svg>
