<?xml version="1.0" encoding="UTF-8" standalone="no"?>
<!-- Created with Inkscape (http://www.inkscape.org/) -->

<svg
   version="1.1"
   id="svg1"
   width="340.02136"
   height="124.96451"
   viewBox="0 0 340.02135 124.96451"
   sodipodi:docname="cell.svg"
   xmlns:inkscape="http://www.inkscape.org/namespaces/inkscape"
   xmlns:sodipodi="http://sodipodi.sourceforge.net/DTD/sodipodi-0.dtd"
   xmlns="http://www.w3.org/2000/svg"
   xmlns:svg="http://www.w3.org/2000/svg">
  <sodipodi:namedview
     id="namedview1"
     pagecolor="#ffffff"
     bordercolor="#000000"
     borderopacity="0.25"
     inkscape:showpageshadow="2"
     inkscape:pageopacity="0.0"
     inkscape:pagecheckerboard="0"
     inkscape:deskcolor="#d1d1d1">
    <inkscape:page
       x="0"
       y="0"
       inkscape:label="1"
       id="page1"
       width="340.02136"
       height="124.96451"
       margin="0"
       bleed="0" />
  </sodipodi:namedview>
  <defs
     id="defs1" />
  <path
     style="fill:#0098c9;fill-opacity:1;fill-rule:nonzero;stroke:none"
     d="m 57.116409,86.351333 c -0.6306,3.458 -0.6145,4.432 -0.7134,5.572 -0.5214,5.756 0.6666,6.262 3.041,6.579 3.3656,0.448 5.2511,0.364 5.4751,-5.921 0.1718,-4.776 0.9786,-8.298 0.9786,-8.298 0.8958,-1.641 1.24,-5.218 0.7708,-6 -0.7869,-1.317 -0.6776,-1.036 -1.9068,-1.802 -2.276,-1.4 -3.312,-0.807 -4.1188,0.068 -0.8077,0.874 -1.2145,1.828 -2.0572,4.51 -0.6521,2.079 -1.4693,5.292 -1.4693,5.292"
     id="path378" />
  <path
     style="fill:none;stroke:#231f20;stroke-width:0.565977;stroke-linecap:butt;stroke-linejoin:miter;stroke-miterlimit:4;stroke-dasharray:none;stroke-opacity:1"
     d="m 57.116409,86.351333 c -0.6306,3.458 -0.6145,4.432 -0.7134,5.572 -0.5214,5.756 0.6666,6.262 3.041,6.579 3.3656,0.448 5.2511,0.364 5.4751,-5.921 0.1718,-4.776 0.9786,-8.298 0.9786,-8.298 0.8958,-1.641 1.24,-5.218 0.7708,-6 -0.7869,-1.317 -0.6776,-1.036 -1.9068,-1.802 -2.276,-1.4 -3.312,-0.807 -4.1188,0.068 -0.8077,0.874 -1.2145,1.828 -2.0572,4.51 -0.6521,2.079 -1.4693,5.292 -1.4693,5.292 z"
     id="path379" />
  <path
     style="fill:#ffffff;fill-opacity:1;fill-rule:nonzero;stroke:none"
     d="m 74.714509,85.106333 c 1.152,1.953 1.641,2.172 2.495,1.735 0.579,-0.287 1.204,-0.355 1.552,-0.511 1.188,-0.531 2.964,-1.916 6.97,-7.135 0.906,-1.188 2.193,-2.838 2.776,-3.474 0.912001,-1 -1.37,-1.844 -1.735,-1.448 -1.172,1.25 -2.077,2.016 -2.563,2.406 -0.333,0.271 -0.848,0.828 -2.266,1.703 -2.15,1.333 -3.634,1.813 -5.291,3.125 -0.771,0.61 -1.739,0.578 -2.181,1.563 -0.464,0.984 0.243,2.036 0.243,2.036"
     id="path380" />
  <path
     style="fill:none;stroke:#231f20;stroke-width:0.565977;stroke-linecap:butt;stroke-linejoin:miter;stroke-miterlimit:4;stroke-dasharray:none;stroke-opacity:1"
     d="m 74.714509,85.106333 c 1.152,1.953 1.641,2.172 2.495,1.735 0.579,-0.287 1.204,-0.355 1.552,-0.511 1.188,-0.531 2.964,-1.916 6.97,-7.135 0.906,-1.188 2.193,-2.838 2.776,-3.474 0.912001,-1 -1.37,-1.844 -1.735,-1.448 -1.172,1.25 -2.077,2.016 -2.563,2.406 -0.333,0.271 -0.848,0.828 -2.266,1.703 -2.15,1.333 -3.634,1.813 -5.291,3.125 -0.771,0.61 -1.739,0.578 -2.181,1.563 -0.464,0.984 0.243,2.036 0.243,2.036 z"
     id="path381" />
  <path
     style="fill:#ffffff;fill-opacity:1;fill-rule:nonzero;stroke:none"
     d="m 69.481609,72.163333 c 0.1187,-0.208 1.2329,0.063 1.3949,-0.437 0.162,-0.5 -0.504,-0.921 -0.76,-2.896 v -0.021 c -0.1349,-1.448 -0.8334,-2.646 -1.9949,-3.13 -1.9213,-0.797 -4.3547,0.667 -5.4375,3.276 -1.088,2.604 -0.412,5.37 1.5052,6.162 1.8334,0.77 4.1459,-0.542 5.2923,-2.954"
     id="path382" />
  <path
     style="fill:none;stroke:#231f20;stroke-width:0.565977;stroke-linecap:butt;stroke-linejoin:miter;stroke-miterlimit:4;stroke-dasharray:none;stroke-opacity:1"
     d="m 69.481609,72.163333 c 0.1187,-0.208 1.2329,0.063 1.3949,-0.437 0.162,-0.5 -0.504,-0.921 -0.76,-2.896 v -0.021 c -0.1349,-1.448 -0.8334,-2.646 -1.9949,-3.13 -1.9213,-0.797 -4.3547,0.667 -5.4375,3.276 -1.088,2.604 -0.412,5.37 1.5052,6.162 1.8334,0.77 4.1459,-0.542 5.2923,-2.954 z"
     id="path383" />
  <path
     style="fill:#ffffff;fill-opacity:1;fill-rule:nonzero;stroke:#231f20;stroke-width:0.565977;stroke-linecap:round;stroke-linejoin:round;stroke-miterlimit:4;stroke-dasharray:none;stroke-opacity:1"
     d="m 75.443509,82.710333 c -1.379,-0.344 -2.729,1.333 -3.03,1.48 -4.5319,2.156 -4.7971,2.427 -8.1252,4.307 -4.812,2.718 -7.6921,5.317 -6.9323,8.578 0.5256,2.213 1.7817,3.265997 3.0828,3.462997 1.4428,0.209 4.4428,-0.827997 5.1095,-3.644997 l 1.2134,-1.208 c 0.9224,-0.71 1.3703,-1.063 1.8547,-1.38 0.8437,-0.543 1.7031,-1.183 3.2861,-2.339 2.798,-2.057 5.083,-5.147 5.083,-5.147 0.246,-0.192 0.376,-0.437 0.434,-0.702"
     id="path384" />
  <path
     style="fill:#0098c9;fill-opacity:1;fill-rule:nonzero;stroke:#231f20;stroke-width:0.565977;stroke-linecap:butt;stroke-linejoin:miter;stroke-miterlimit:4;stroke-dasharray:none;stroke-opacity:1"
     d="m 60.402909,90.257333 c -2.6933,2.614 -3.9838,5.031 -2.9532,7.469 0.8746,2.093 2.2918,2.920997 3.6095,2.895997 1.4583,-0.032 4.2557,-1.551997 4.4317,-4.431997 z"
     id="path385" />
  <path
     style="fill:#231f20;fill-opacity:1;fill-rule:nonzero;stroke:none"
     d="m 82.673509,84.929333 c -0.604,0.218 -2.416,-0.5 -4.021,-0.468 -1.088,0.02 -3.614,-1.058 -4.692,-0.954 -0.989,0.088 -1.453,0.036 -1.751,-1.073 -0.176,-0.661 -0.093,-2.047 0.396,-2.197 1.136,-0.366 2.073,-0.276 3.1,0.046 1.156,0.359 4.219,1.626 4.76,1.907 1.344,0.719 2.068,0.577 2.443,0.739 0.702,0.286 0.765,0.63 0.677,1.125 -0.166,0.943 -0.912,0.875 -0.912,0.875"
     id="path386" />
  <path
     style="fill:none;stroke:#231f20;stroke-width:0.565977;stroke-linecap:butt;stroke-linejoin:miter;stroke-miterlimit:4;stroke-dasharray:none;stroke-opacity:1"
     d="m 82.673509,84.929333 c -0.604,0.218 -2.416,-0.5 -4.021,-0.468 -1.088,0.02 -3.614,-1.058 -4.692,-0.954 -0.989,0.088 -1.453,0.036 -1.751,-1.073 -0.176,-0.661 -0.093,-2.047 0.396,-2.197 1.136,-0.366 2.073,-0.276 3.1,0.046 1.156,0.359 4.219,1.626 4.76,1.907 1.344,0.719 2.068,0.577 2.443,0.739 0.702,0.286 0.765,0.63 0.677,1.125 -0.166,0.943 -0.912,0.875 -0.912,0.875 z"
     id="path387" />
  <path
     style="fill:#231f20;fill-opacity:1;fill-rule:nonzero;stroke:none"
     d="m 73.861509,82.841333 c -0.437,1.218 -2.193,0.192 -2.699,0 -0.51,-0.203 -2.0101,-0.604 -3.2237,-0.766 -1.2077,-0.166 -2.6557,-0.89 -4.9572,-1.204 -1.2147,-0.166 -2.2923,-1.093 -1.9745,-2.838 0.312,-1.728 1.401,-2.203 2.8385,-1.782 1.4375,0.418 2.6041,1.423 4.0265,1.948 1.411,0.527 2.9054,0.928 4.0934,1.194 1.349,0.292 1.907,0.942 1.995,1.412 0.224,1.17 -0.099,2.036 -0.099,2.036"
     id="path388" />
  <path
     style="fill:none;stroke:#231f20;stroke-width:0.565977;stroke-linecap:butt;stroke-linejoin:miter;stroke-miterlimit:4;stroke-dasharray:none;stroke-opacity:1"
     d="m 73.861509,82.841333 c -0.437,1.218 -2.193,0.192 -2.699,0 -0.51,-0.203 -2.0101,-0.604 -3.2237,-0.766 -1.2077,-0.166 -2.6557,-0.89 -4.9572,-1.204 -1.2147,-0.166 -2.2923,-1.093 -1.9745,-2.838 0.312,-1.728 1.401,-2.203 2.8385,-1.782 1.4375,0.418 2.6041,1.423 4.0265,1.948 1.411,0.527 2.9054,0.928 4.0934,1.194 1.349,0.292 1.907,0.942 1.995,1.412 0.224,1.17 -0.099,2.036 -0.099,2.036 z"
     id="path389" />
  <path
     style="fill:#ffffff;fill-opacity:1;fill-rule:nonzero;stroke:none"
     d="m 84.460509,86.179333 c 0.983,0.302 2.025,-0.245 2.328,-1.224 0.307,-0.984 -0.246,-2.026 -1.224,-2.333 -0.979,-0.303 -2.022,0.244 -2.328,1.229 -0.303,0.979 0.245,2.02 1.224,2.328"
     id="path390" />
  <path
     style="fill:none;stroke:#231f20;stroke-width:1.33171;stroke-linecap:butt;stroke-linejoin:miter;stroke-miterlimit:4;stroke-dasharray:none;stroke-opacity:1"
     d="m 84.460509,86.179333 c 0.983,0.302 2.025,-0.245 2.328,-1.224 0.307,-0.984 -0.246,-2.026 -1.224,-2.333 -0.979,-0.303 -2.022,0.244 -2.328,1.229 -0.303,0.979 0.245,2.02 1.224,2.328 z"
     id="path391" />
  <path
     style="fill:#231f20;fill-opacity:1;fill-rule:nonzero;stroke:none"
     d="m 90.41851,74.862333 c 0.02,1.353 -0.901,1.719 -1.885001,1.385 -0.292,-0.1 -0.647,0.124 -0.923,0.004 -0.645,-0.28 -1.234,-1.921 0.006,-2.76 0.084,-0.057 0.598,-0.702 1.052,-1.114 0.896001,-0.828 3.079001,-2.031 5.667001,-1.266 1.224,0.364 0.781,1.027 0.245,1.027 -1.714,0.009 -1.866,0.343 -2.314,0.509 -1.525,0.552 -1.848,2.215 -1.848,2.215"
     id="path392" />
  <path
     style="fill:none;stroke:#231f20;stroke-width:0.332927;stroke-linecap:butt;stroke-linejoin:miter;stroke-miterlimit:4;stroke-dasharray:none;stroke-opacity:1"
     d="m 90.41851,74.862333 c 0.02,1.353 -0.901,1.719 -1.885001,1.385 -0.292,-0.1 -0.647,0.124 -0.923,0.004 -0.645,-0.28 -1.234,-1.921 0.006,-2.76 0.084,-0.057 0.598,-0.702 1.052,-1.114 0.896001,-0.828 3.079001,-2.031 5.667001,-1.266 1.224,0.364 0.781,1.027 0.245,1.027 -1.714,0.009 -1.866,0.343 -2.314,0.509 -1.525,0.552 -1.848,2.215 -1.848,2.215 z"
     id="path393" />
  <path
     style="fill:#0098c9;fill-opacity:1;fill-rule:nonzero;stroke:none"
     d="m 136.70051,103.17433 c 2.926,-1.943 3.618,-2.625 4.509,-3.338997 4.516,-3.614 4.057,-4.823 2.641,-6.754 -2.01,-2.735 -3.369,-4.043 -8.068,0.15 -3.557,3.183 -6.656,5.042 -6.656,5.042 -1.808,0.489 -4.625,2.718997 -4.864,3.597997 -0.401,1.48 -0.281,1.21 0.02,2.621 0.563,2.614 1.714,2.953 2.902,2.926 1.188,-0.02 2.156,-0.391 4.677,-1.64 1.953,-0.969 4.839,-2.604 4.839,-2.604"
     id="path394" />
  <path
     style="fill:none;stroke:#231f20;stroke-width:0.565977;stroke-linecap:butt;stroke-linejoin:miter;stroke-miterlimit:4;stroke-dasharray:none;stroke-opacity:1"
     d="m 136.70051,103.17433 c 2.926,-1.943 3.618,-2.625 4.509,-3.338997 4.516,-3.614 4.057,-4.823 2.641,-6.754 -2.01,-2.735 -3.369,-4.043 -8.068,0.15 -3.557,3.183 -6.656,5.042 -6.656,5.042 -1.808,0.489 -4.625,2.718997 -4.864,3.597997 -0.401,1.48 -0.281,1.21 0.02,2.621 0.563,2.614 1.714,2.953 2.902,2.926 1.188,-0.02 2.156,-0.391 4.677,-1.64 1.953,-0.969 4.839,-2.604 4.839,-2.604 z"
     id="path395" />
  <path
     style="fill:#ffffff;fill-opacity:1;fill-rule:nonzero;stroke:none"
     d="m 123.61051,91.341333 c 0.61,-2.183 0.428,-2.688 -0.473,-3.006 -0.609,-0.213 -1.089,-0.614 -1.448,-0.76 -1.204,-0.49 -3.432,-0.813 -9.969,-0.089 -1.484,0.167 -3.568,0.385 -4.432,0.401 -1.35,0.042 -0.38,2.266 0.161,2.26 1.708,-0.025 2.891,0.104 3.505,0.178 0.427,0.051 1.188,0.041 2.803,0.458 2.448,0.631 3.817,1.364 5.916,1.651 0.975,0.136 1.62,0.854 2.641,0.495 1.026,-0.348 1.296,-1.588 1.296,-1.588"
     id="path396" />
  <path
     style="fill:none;stroke:#231f20;stroke-width:0.565977;stroke-linecap:butt;stroke-linejoin:miter;stroke-miterlimit:4;stroke-dasharray:none;stroke-opacity:1"
     d="m 123.61051,91.341333 c 0.61,-2.183 0.428,-2.688 -0.473,-3.006 -0.609,-0.213 -1.089,-0.614 -1.448,-0.76 -1.204,-0.49 -3.432,-0.813 -9.969,-0.089 -1.484,0.167 -3.568,0.385 -4.432,0.401 -1.35,0.042 -0.38,2.266 0.161,2.26 1.708,-0.025 2.891,0.104 3.505,0.178 0.427,0.051 1.188,0.041 2.803,0.458 2.448,0.631 3.817,1.364 5.916,1.651 0.975,0.136 1.62,0.854 2.641,0.495 1.026,-0.348 1.296,-1.588 1.296,-1.588 z"
     id="path397" />
  <path
     style="fill:#ffffff;fill-opacity:1;fill-rule:nonzero;stroke:none"
     d="m 117.90251,104.08133 c -0.24,0.061 -0.812,-0.934 -1.286,-0.705 -0.468,0.23 -0.312,1 -1.563,2.552 l -0.015,0.017 c -0.948,1.104 -1.329,2.431 -0.87,3.604 0.75,1.943 3.489,2.682 6.12,1.655 2.636,-1.019 4.161,-3.421 3.406,-5.353 -0.713,-1.854 -3.266,-2.614 -5.792,-1.77"
     id="path398" />
  <path
     style="fill:none;stroke:#231f20;stroke-width:0.565977;stroke-linecap:butt;stroke-linejoin:miter;stroke-miterlimit:4;stroke-dasharray:none;stroke-opacity:1"
     d="m 117.90251,104.08133 c -0.24,0.061 -0.812,-0.934 -1.286,-0.705 -0.468,0.23 -0.312,1 -1.563,2.552 l -0.015,0.017 c -0.948,1.104 -1.329,2.431 -0.87,3.604 0.75,1.943 3.489,2.682 6.12,1.655 2.636,-1.019 4.161,-3.421 3.406,-5.353 -0.713,-1.854 -3.266,-2.614 -5.792,-1.77 z"
     id="path399" />
  <path
     style="fill:#ffffff;fill-opacity:1;fill-rule:nonzero;stroke:#231f20;stroke-width:0.565977;stroke-linecap:round;stroke-linejoin:round;stroke-miterlimit:4;stroke-dasharray:none;stroke-opacity:1"
     d="m 121.37651,92.475333 c 0.709,1.235 2.854,1.048 3.172,1.163 4.693,1.771 5.068,1.78 8.729,2.88 5.297,1.588 9.167,1.864 10.989,-0.943 1.24,-1.912 1.12,-3.548 0.366,-4.625 -0.855,-1.183 -3.678,-2.631 -6.172,-1.162 l -1.708,-0.037 c -1.152,-0.17 -1.719,-0.249 -2.282,-0.385 -0.974,-0.228 -2.032,-0.405 -3.964,-0.744 -3.421,-0.595 -7.234,-0.109 -7.234,-0.109 -0.302,-0.042 -0.572,0.036 -0.802,0.177"
     id="path400" />
  <path
     style="fill:#0098c9;fill-opacity:1;fill-rule:nonzero;stroke:none"
     d="m 144.26251,90.445333 c -1.032,-1.027 -4.068,-1.99 -6.272,-0.126 l -0.749,7.776 c 3.749,0.136 6.385,-0.609 7.432,-3.036 0.901,-2.088 0.521,-3.683 -0.411,-4.614"
     id="path401" />
  <path
     style="fill:none;stroke:#231f20;stroke-width:0.565977;stroke-linecap:butt;stroke-linejoin:miter;stroke-miterlimit:4;stroke-dasharray:none;stroke-opacity:1"
     d="m 144.26251,90.445333 c -1.032,-1.027 -4.068,-1.99 -6.272,-0.126 l -0.749,7.776 c 3.749,0.136 6.385,-0.609 7.432,-3.036 0.901,-2.088 0.521,-3.683 -0.411,-4.614 z"
     id="path402" />
  <path
     style="fill:#231f20;fill-opacity:1;fill-rule:nonzero;stroke:none"
     d="m 117.97051,85.721333 c 0.578,0.286 1.318,2.088 2.448,3.229 0.766,0.765 1.744,3.338 2.563,4.047 0.749,0.645 1.031,1.021 0.437,2.005 -0.354,0.583 -1.412,1.479 -1.86,1.235 -1.046,-0.568 -1.634,-1.308 -2.114,-2.266 -0.536,-1.089 -1.744,-4.172 -1.916,-4.761 -0.418,-1.463 -1.016,-1.891 -1.162,-2.271 -0.281,-0.708 -0.078,-0.989 0.343,-1.27 0.797,-0.531 1.261,0.052 1.261,0.052"
     id="path403" />
  <path
     style="fill:none;stroke:#231f20;stroke-width:0.565977;stroke-linecap:butt;stroke-linejoin:miter;stroke-miterlimit:4;stroke-dasharray:none;stroke-opacity:1"
     d="m 117.97051,85.721333 c 0.578,0.286 1.318,2.088 2.448,3.229 0.766,0.765 1.744,3.338 2.563,4.047 0.749,0.645 1.031,1.021 0.437,2.005 -0.354,0.583 -1.412,1.479 -1.86,1.235 -1.046,-0.568 -1.634,-1.308 -2.114,-2.266 -0.536,-1.089 -1.744,-4.172 -1.916,-4.761 -0.418,-1.463 -1.016,-1.891 -1.162,-2.271 -0.281,-0.708 -0.078,-0.989 0.343,-1.27 0.797,-0.531 1.261,0.052 1.261,0.052 z"
     id="path404" />
  <path
     style="fill:#231f20;fill-opacity:1;fill-rule:nonzero;stroke:none"
     d="m 122.56951,93.529333 c 1.183,-0.532 1.661,1.446 1.864,1.946 0.209,0.506 0.959,1.866 1.683,2.855 0.718,0.989 1.198,2.531997 2.568,4.411997 0.718,0.989 0.797,2.405 -0.683,3.385 -1.463,0.973 -2.563,0.515 -3.249,-0.813 -0.694,-1.328 -0.782,-2.864 -1.38,-4.25 -0.606,-1.384997 -1.35,-2.744997 -1.98,-3.780997 -0.724,-1.177 -0.64,-2.032 -0.359,-2.417 0.692,-0.979 1.536,-1.337 1.536,-1.337"
     id="path405" />
  <path
     style="fill:none;stroke:#231f20;stroke-width:0.565977;stroke-linecap:butt;stroke-linejoin:miter;stroke-miterlimit:4;stroke-dasharray:none;stroke-opacity:1"
     d="m 122.56951,93.529333 c 1.183,-0.532 1.661,1.446 1.864,1.946 0.209,0.506 0.959,1.866 1.683,2.855 0.718,0.989 1.198,2.531997 2.568,4.411997 0.718,0.989 0.797,2.405 -0.683,3.385 -1.463,0.973 -2.563,0.515 -3.249,-0.813 -0.694,-1.328 -0.782,-2.864 -1.38,-4.25 -0.606,-1.384997 -1.35,-2.744997 -1.98,-3.780997 -0.724,-1.177 -0.64,-2.032 -0.359,-2.417 0.692,-0.979 1.536,-1.337 1.536,-1.337 z"
     id="path406" />
  <path
     style="fill:#ffffff;fill-opacity:1;fill-rule:nonzero;stroke:none"
     d="m 117.63751,83.570333 c -0.464,-0.923 -1.579,-1.292 -2.5,-0.833 -0.917,0.458 -1.292,1.577 -0.833,2.494 0.462,0.916 1.582,1.292 2.5,0.828 0.916,-0.458 1.29,-1.573 0.833,-2.489"
     id="path407" />
  <path
     style="fill:none;stroke:#231f20;stroke-width:1.33171;stroke-linecap:butt;stroke-linejoin:miter;stroke-miterlimit:4;stroke-dasharray:none;stroke-opacity:1"
     d="m 117.63751,83.570333 c -0.464,-0.923 -1.579,-1.292 -2.5,-0.833 -0.917,0.458 -1.292,1.577 -0.833,2.494 0.462,0.916 1.582,1.292 2.5,0.828 0.916,-0.458 1.29,-1.573 0.833,-2.489 z"
     id="path408" />
  <path
     style="fill:#231f20;fill-opacity:1;fill-rule:nonzero;stroke:none"
     d="m 105.34551,87.106333 c 0.964,-0.948 1.864,-0.536 2.307,0.401 0.13,0.276 0.537,0.38 0.641,0.662 0.245,0.661 -0.532,2.224 -1.995,1.906 -0.098,-0.021 -0.922,0.058 -1.537,0.015 -1.213,-0.072 -3.593,-0.812 -4.832,-3.213 -0.584,-1.135 0.197,-1.271 0.567,-0.886 1.198,1.23 1.542,1.11 1.969,1.314 1.459,0.718 2.88,-0.199 2.88,-0.199"
     id="path409" />
  <path
     style="fill:none;stroke:#231f20;stroke-width:0.332927;stroke-linecap:butt;stroke-linejoin:miter;stroke-miterlimit:4;stroke-dasharray:none;stroke-opacity:1"
     d="m 105.34551,87.106333 c 0.964,-0.948 1.864,-0.536 2.307,0.401 0.13,0.276 0.537,0.38 0.641,0.662 0.245,0.661 -0.532,2.224 -1.995,1.906 -0.098,-0.021 -0.922,0.058 -1.537,0.015 -1.213,-0.072 -3.593,-0.812 -4.832,-3.213 -0.584,-1.135 0.197,-1.271 0.567,-0.886 1.198,1.23 1.542,1.11 1.969,1.314 1.459,0.718 2.88,-0.199 2.88,-0.199 z"
     id="path410" />
  <path
     style="fill:#0098c9;fill-opacity:1;fill-rule:nonzero;stroke:none"
     d="m 331.99051,52.611333 c -0.239,-3.125 0.052,-3.822 0.349,-4.697 1.855,-5.475 -0.875,-6.281 -3.656,-5.543 -3.281,0.86 -4.475,1.11 -3.401,7.308 0.308,1.73 0.593,8.495 0.593,8.495 -0.224,2.443 0.855,4.937 2.12,5.656 1.333,0.76 0.86,0.365 2.219,0.844 1.302,0.453 3.448,0.036 4.052,-1.041 0.578,-1.038 -0.25,-2.48 -1.182,-4.719 -0.729,-1.767 -1.094,-6.303 -1.094,-6.303"
     id="path411" />
  <path
     style="fill:none;stroke:#231f20;stroke-width:0.565977;stroke-linecap:butt;stroke-linejoin:miter;stroke-miterlimit:4;stroke-dasharray:none;stroke-opacity:1"
     d="m 331.99051,52.611333 c -0.239,-3.125 0.052,-3.822 0.349,-4.697 1.855,-5.475 -0.875,-6.281 -3.656,-5.543 -3.281,0.86 -4.475,1.11 -3.401,7.308 0.308,1.73 0.593,8.495 0.593,8.495 -0.224,2.443 0.855,4.937 2.12,5.656 1.333,0.76 0.86,0.365 2.219,0.844 1.302,0.453 3.448,0.036 4.052,-1.041 0.578,-1.038 -0.25,-2.48 -1.182,-4.719 -0.729,-1.767 -1.094,-6.303 -1.094,-6.303 z"
     id="path412" />
  <path
     style="fill:#ffffff;fill-opacity:1;fill-rule:nonzero;stroke:none"
     d="m 332.57951,71.085333 c 0.181,0.162 -0.328,1.193 0.12,1.458 0.452,0.271 1.015,-0.286 2.989,-0.098 l 0.026,0.005 c 1.442,0.183 2.766,-0.235 3.49,-1.255 1.203,-1.698 0.307,-4.396 -1.99,-6.026 -2.307,-1.64 -5.146,-1.584 -6.348,0.104 -1.152,1.62 -0.382,4.166 1.713,5.812"
     id="path413" />
  <path
     style="fill:none;stroke:#231f20;stroke-width:0.565977;stroke-linecap:butt;stroke-linejoin:miter;stroke-miterlimit:4;stroke-dasharray:none;stroke-opacity:1"
     d="m 332.57951,71.085333 c 0.181,0.162 -0.328,1.193 0.12,1.458 0.452,0.271 1.015,-0.286 2.989,-0.098 l 0.026,0.005 c 1.442,0.183 2.766,-0.235 3.49,-1.255 1.203,-1.698 0.307,-4.396 -1.99,-6.026 -2.307,-1.64 -5.146,-1.584 -6.348,0.104 -1.152,1.62 -0.382,4.166 1.713,5.812 z"
     id="path414" />
  <path
     style="fill:#231f20;fill-opacity:1;fill-rule:nonzero;stroke:none"
     d="m 328.09951,82.314333 c -0.291,-0.567 0.177,-2.463 -0.057,-4.052 -0.162,-1.072 0.573,-3.719 0.333,-4.776 -0.219,-0.968 -0.228,-1.432 0.833,-1.875 0.631,-0.26 2.016,-0.354 2.23,0.104 0.505,1.079 0.546,2.027 0.36,3.079 -0.208,1.197 -1.063,4.396 -1.271,4.973 -0.532,1.423 -0.303,2.126 -0.407,2.522 -0.197,0.734 -0.53,0.838 -1.03,0.817 -0.959,-0.047 -0.991,-0.792 -0.991,-0.792"
     id="path415" />
  <path
     style="fill:none;stroke:#231f20;stroke-width:0.565977;stroke-linecap:butt;stroke-linejoin:miter;stroke-miterlimit:4;stroke-dasharray:none;stroke-opacity:1"
     d="m 328.09951,82.314333 c -0.291,-0.567 0.177,-2.463 -0.057,-4.052 -0.162,-1.072 0.573,-3.719 0.333,-4.776 -0.219,-0.968 -0.228,-1.432 0.833,-1.875 0.631,-0.26 2.016,-0.354 2.23,0.104 0.505,1.079 0.546,2.027 0.36,3.079 -0.208,1.197 -1.063,4.396 -1.271,4.973 -0.532,1.423 -0.303,2.126 -0.407,2.522 -0.197,0.734 -0.53,0.838 -1.03,0.817 -0.959,-0.047 -0.991,-0.792 -0.991,-0.792 z"
     id="path416" />
  <path
     style="fill:#231f20;fill-opacity:1;fill-rule:nonzero;stroke:none"
     d="m 329.02251,73.305333 c -1.266,-0.272 -0.48,-2.152 -0.355,-2.672 0.136,-0.532 0.339,-2.074 0.339,-3.298 0.005,-1.229 0.532,-2.75 0.541,-5.078 0.005,-1.224 0.787,-2.411 2.557,-2.328 1.756,0.089 2.371,1.104 2.142,2.584 -0.23,1.478 -1.074,2.77 -1.407,4.244 -0.339,1.469 -0.541,3.005 -0.645,4.218 -0.12,1.376 -0.688,2.016 -1.142,2.158 -1.134,0.374 -2.03,0.172 -2.03,0.172"
     id="path417" />
  <path
     style="fill:none;stroke:#231f20;stroke-width:0.565977;stroke-linecap:butt;stroke-linejoin:miter;stroke-miterlimit:4;stroke-dasharray:none;stroke-opacity:1"
     d="m 329.02251,73.305333 c -1.266,-0.272 -0.48,-2.152 -0.355,-2.672 0.136,-0.532 0.339,-2.074 0.339,-3.298 0.005,-1.229 0.532,-2.75 0.541,-5.078 0.005,-1.224 0.787,-2.411 2.557,-2.328 1.756,0.089 2.371,1.104 2.142,2.584 -0.23,1.478 -1.074,2.77 -1.407,4.244 -0.339,1.469 -0.541,3.005 -0.645,4.218 -0.12,1.376 -0.688,2.016 -1.142,2.158 -1.134,0.374 -2.03,0.172 -2.03,0.172 z"
     id="path418" />
  <path
     style="fill:#ffffff;fill-opacity:1;fill-rule:nonzero;stroke:none"
     d="m 330.00051,86.023333 c -0.634,0.807 -1.801,0.948 -2.609,0.318 -0.807,-0.631 -0.953,-1.803 -0.323,-2.61 0.631,-0.813 1.803,-0.958 2.61,-0.322 0.812,0.634 0.953,1.801 0.322,2.614"
     id="path419" />
  <path
     style="fill:none;stroke:#231f20;stroke-width:1.33171;stroke-linecap:butt;stroke-linejoin:miter;stroke-miterlimit:4;stroke-dasharray:none;stroke-opacity:1"
     d="m 330.00051,86.023333 c -0.634,0.807 -1.801,0.948 -2.609,0.318 -0.807,-0.631 -0.953,-1.803 -0.323,-2.61 0.631,-0.813 1.803,-0.958 2.61,-0.322 0.812,0.634 0.953,1.801 0.322,2.614 z"
     id="path420" />
  <path
     style="fill:#ffffff;fill-opacity:1;fill-rule:nonzero;stroke:none"
     d="m 328.03251,27.341333 c 2.26,0.166 2.724,-0.11 2.848,-1.063 0.095,-0.636 0.391,-1.183 0.464,-1.568 0.246,-1.271 0.12,-3.52 -1.874,-9.792 -0.459,-1.416 -1.079,-3.421 -1.266,-4.26 -0.302,-1.3170001 -2.297,0.074 -2.182,0.599 0.358,1.677 0.468,2.855 0.516,3.475 0.03,0.426 0.192,1.172 0.104,2.838 -0.136,2.52 -0.595,4.011 -0.459,6.124 0.057,0.985 -0.516,1.756 0.036,2.683 0.547,0.942 1.813,0.964 1.813,0.964"
     id="path421" />
  <path
     style="fill:none;stroke:#231f20;stroke-width:0.565977;stroke-linecap:butt;stroke-linejoin:miter;stroke-miterlimit:4;stroke-dasharray:none;stroke-opacity:1"
     d="m 328.03251,27.341333 c 2.26,0.166 2.724,-0.11 2.848,-1.063 0.095,-0.636 0.391,-1.183 0.464,-1.568 0.246,-1.271 0.12,-3.52 -1.874,-9.792 -0.459,-1.416 -1.079,-3.421 -1.266,-4.26 -0.302,-1.3170001 -2.297,0.074 -2.182,0.599 0.358,1.677 0.468,2.855 0.516,3.475 0.03,0.426 0.192,1.172 0.104,2.838 -0.136,2.52 -0.595,4.011 -0.459,6.124 0.057,0.985 -0.516,1.756 0.036,2.683 0.547,0.942 1.813,0.964 1.813,0.964 z"
     id="path422" />
  <path
     style="fill:#ffffff;fill-opacity:1;fill-rule:nonzero;stroke:#231f20;stroke-width:0.565977;stroke-linecap:round;stroke-linejoin:round;stroke-miterlimit:4;stroke-dasharray:none;stroke-opacity:1"
     d="m 326.48051,25.377333 c -1.068,0.932 -0.458,3 -0.516,3.333 -0.817,4.948 -0.75,5.323 -1.104,9.125 -0.516,5.506 -0.021,9.355 3.094,10.594 2.114,0.833 3.693,0.396 4.593,-0.558 1,-1.066 1.865,-4.124 -0.067,-6.276 l -0.297,-1.686 c -0.063,-1.162 -0.093,-1.735 -0.084,-2.308 0.037,-1 0.005,-2.078 -0.041,-4.036 -0.094,-3.475 -1.323,-7.11 -1.323,-7.11 -0.016,-0.313 -0.145,-0.557 -0.328,-0.756"
     id="path423" />
  <path
     style="fill:#0098c9;fill-opacity:1;fill-rule:nonzero;stroke:none"
     d="m 332.47051,41.726333 -7.776,-0.803 c -0.027,0.658 -0.016,1.267 0.014,1.85 -0.02,0.073 -0.041,0.15 -0.072,0.213 -0.328,0.74 -0.052,1.308 0.458,2.213 0.438,1.491 1.245,2.584 2.594,3.178 2.078,0.917 3.672,0.546 4.615,-0.38 1.036,-1.026 2.015,-4.047 0.167,-6.271"
     id="path424" />
  <path
     style="fill:none;stroke:#231f20;stroke-width:0.565977;stroke-linecap:butt;stroke-linejoin:miter;stroke-miterlimit:4;stroke-dasharray:none;stroke-opacity:1"
     d="m 332.47051,41.726333 -7.776,-0.803 c -0.027,0.658 -0.016,1.267 0.014,1.85 -0.02,0.073 -0.041,0.15 -0.072,0.213 -0.328,0.74 -0.052,1.308 0.458,2.213 0.438,1.491 1.245,2.584 2.594,3.178 2.078,0.917 3.672,0.546 4.615,-0.38 1.036,-1.026 2.015,-4.047 0.167,-6.271 z"
     id="path425" />
  <path
     style="fill:none;stroke:#231f20;stroke-width:0.399514;stroke-linecap:butt;stroke-linejoin:miter;stroke-miterlimit:4;stroke-dasharray:none;stroke-opacity:1"
     d="m 102.78251,118.69033 c 21.058,16.072 48.818,-4.141 52.834,-10.193"
     id="path426" />
  <path
     style="fill:#231f20;fill-opacity:1;fill-rule:nonzero;stroke:none"
     d="m 156.28251,107.49233 c -0.14,0.589 -0.229,1.37 -0.15,1.947 l -0.604,-0.812 -0.98,-0.24 c 0.557,-0.15 1.245,-0.541 1.734,-0.895"
     id="path427" />
  <path
     style="fill:#231f20;fill-opacity:1;fill-rule:nonzero;stroke:none"
     d="m 22.215009,60.934333 c -1.5666,-1.635 -2.0933,-1.749 -2.8281,-1.129 -0.4891,0.405 -1.0881,0.618 -1.3959,0.848 -1.036,0.786 -2.4521,2.526 -5.1922,8.516 -0.6145,1.354 -1.4943,3.254 -1.9265,4.005 -0.6626,1.183 1.7546,1.489 2.0204,1.025 0.8546,-1.484 1.5676,-2.432 1.953,-2.921 0.2599,-0.339 0.6454,-0.995 1.8282,-2.167 1.7973,-1.781 3.1358,-2.578 4.4582,-4.234 0.6152,-0.76 1.5631,-0.948 1.7761,-2.011 0.2239,-1.061 -0.6932,-1.932 -0.6932,-1.932"
     id="path428" />
  <path
     style="fill:none;stroke:#231f20;stroke-width:0.565977;stroke-linecap:butt;stroke-linejoin:miter;stroke-miterlimit:4;stroke-dasharray:none;stroke-opacity:1"
     d="m 22.215009,60.934333 c -1.5666,-1.635 -2.0933,-1.749 -2.8281,-1.129 -0.4891,0.405 -1.0881,0.618 -1.3959,0.848 -1.036,0.786 -2.4521,2.526 -5.1922,8.516 -0.6145,1.354 -1.4943,3.254 -1.9265,4.005 -0.6626,1.183 1.7546,1.489 2.0204,1.025 0.8546,-1.484 1.5676,-2.432 1.953,-2.921 0.2599,-0.339 0.6454,-0.995 1.8282,-2.167 1.7973,-1.781 3.1358,-2.578 4.4582,-4.234 0.6152,-0.76 1.5631,-0.948 1.7761,-2.011 0.2239,-1.061 -0.6932,-1.932 -0.6932,-1.932 z"
     id="path429" />
  <path
     style="fill:#231f20;fill-opacity:1;fill-rule:nonzero;stroke:none"
     d="m 20.080609,62.190333 c 2.5052,3.129 4.2078,-0.579 4.5823,-0.876 3.9281,-3.119 4.1307,-3.443 6.9588,-6.015 4.0734,-3.729 6.2974,-6.912 4.8172,-9.917 -0.9948,-2.041 -2.4626,-2.787 -3.7703,-2.683 -1.4589,0.12 -4.1562,1.803 -4.1724,4.694 l -0.9052,1.448 c -0.7401,0.901 -1.1,1.349 -1.4958,1.765 -0.6974,0.719 -1.4058,1.536 -2.676,3.016 -2.2708,2.635 -3.8084,6.156 -3.8084,6.156 -0.7864,0.959 0.4698,2.412 0.4698,2.412"
     id="path430" />
  <path
     style="fill:none;stroke:#231f20;stroke-width:0.565977;stroke-linecap:butt;stroke-linejoin:miter;stroke-miterlimit:4;stroke-dasharray:none;stroke-opacity:1"
     d="m 20.080609,62.190333 c 2.5052,3.129 4.2078,-0.579 4.5823,-0.876 3.9281,-3.119 4.1307,-3.443 6.9588,-6.015 4.0734,-3.729 6.2974,-6.912 4.8172,-9.917 -0.9948,-2.041 -2.4626,-2.787 -3.7703,-2.683 -1.4589,0.12 -4.1562,1.803 -4.1724,4.694 l -0.9052,1.448 c -0.7401,0.901 -1.1,1.349 -1.4958,1.765 -0.6974,0.719 -1.4058,1.536 -2.676,3.016 -2.2708,2.635 -3.8084,6.156 -3.8084,6.156 -0.7864,0.959 0.4698,2.412 0.4698,2.412 z"
     id="path431" />
  <path
     style="fill:#231f20;fill-opacity:1;fill-rule:nonzero;stroke:none"
     d="m 9.205609,74.445333 c -0.3239,-1.318 0.4948,-1.875 1.5256,-1.776 0.3077,0.025 0.6041,-0.266 0.9009,-0.208 0.6923,0.124 1.6308,1.593 0.6095,2.692 -0.0677,0.073 -0.4265,0.813 -0.7761,1.322 -0.688,1 -2.5463,2.667 -5.2395,2.496 -1.2709,-0.078 -0.9896,-0.818 -0.4589,-0.944 1.6614,-0.389 1.7349,-0.749 2.1308,-1.014 1.3598,-0.886 1.3077,-2.568 1.3077,-2.568"
     id="path432" />
  <path
     style="fill:none;stroke:#231f20;stroke-width:0.332927;stroke-linecap:butt;stroke-linejoin:miter;stroke-miterlimit:4;stroke-dasharray:none;stroke-opacity:1"
     d="m 9.205609,74.445333 c -0.3239,-1.318 0.4948,-1.875 1.5256,-1.776 0.3077,0.025 0.6041,-0.266 0.9009,-0.208 0.6923,0.124 1.6308,1.593 0.6095,2.692 -0.0677,0.073 -0.4265,0.813 -0.7761,1.322 -0.688,1 -2.5463,2.667 -5.2395,2.496 -1.2709,-0.078 -0.9896,-0.818 -0.4589,-0.944 1.6614,-0.389 1.7349,-0.749 2.1308,-1.014 1.3598,-0.886 1.3077,-2.568 1.3077,-2.568 z"
     id="path433" />
  <path
     style="fill:#0098c9;fill-opacity:1;fill-rule:nonzero;stroke:none"
     d="m 37.403009,55.142333 c -0.5625,-3.083 -0.3495,-3.807 -0.1401,-4.703 1.2801,-5.634 -1.5052,-6.166 -4.2036,-5.14 -3.1724,1.198 -4.3391,1.563 -2.6308,7.624 0.4797,1.688 1.4584,8.386 1.4584,8.386 0.0322,2.442 1.3604,4.818 2.6937,5.406 1.4052,0.615 0.8905,0.271 2.2957,0.61 1.3387,0.322 3.4334,-0.312 3.9172,-1.448 0.4735,-1.094 -0.5,-2.443 -1.6557,-4.572 -0.9119,-1.683 -1.7348,-6.163 -1.7348,-6.163"
     id="path434" />
  <path
     style="fill:none;stroke:#231f20;stroke-width:0.565977;stroke-linecap:butt;stroke-linejoin:miter;stroke-miterlimit:4;stroke-dasharray:none;stroke-opacity:1"
     d="m 37.403009,55.142333 c -0.5625,-3.083 -0.3495,-3.807 -0.1401,-4.703 1.2801,-5.634 -1.5052,-6.166 -4.2036,-5.14 -3.1724,1.198 -4.3391,1.563 -2.6308,7.624 0.4797,1.688 1.4584,8.386 1.4584,8.386 0.0322,2.442 1.3604,4.818 2.6937,5.406 1.4052,0.615 0.8905,0.271 2.2957,0.61 1.3387,0.322 3.4334,-0.312 3.9172,-1.448 0.4735,-1.094 -0.5,-2.443 -1.6557,-4.572 -0.9119,-1.683 -1.7348,-6.163 -1.7348,-6.163 z"
     id="path435" />
  <path
     style="fill:#ffffff;fill-opacity:1;fill-rule:nonzero;stroke:none"
     d="m 42.850909,74.663333 c 0.224,0.11 0.0052,1.23 0.5109,1.37 0.5,0.141 0.8958,-0.536 2.8584,-0.886 l 0.0213,-0.005 c 1.4375,-0.203 2.6041,-0.957 3.0307,-2.14 0.7094,-1.948 -0.864,-4.312 -3.5198,-5.276 -2.6573,-0.969 -5.3802,-0.167 -6.0895,1.787 -0.6866,1.864 0.7401,4.114 3.188,5.15"
     id="path436" />
  <path
     style="fill:none;stroke:#231f20;stroke-width:0.565977;stroke-linecap:butt;stroke-linejoin:miter;stroke-miterlimit:4;stroke-dasharray:none;stroke-opacity:1"
     d="m 42.850909,74.663333 c 0.224,0.11 0.0052,1.23 0.5109,1.37 0.5,0.141 0.8958,-0.536 2.8584,-0.886 l 0.0213,-0.005 c 1.4375,-0.203 2.6041,-0.957 3.0307,-2.14 0.7094,-1.948 -0.864,-4.312 -3.5198,-5.276 -2.6573,-0.969 -5.3802,-0.167 -6.0895,1.787 -0.6866,1.864 0.7401,4.114 3.188,5.15 z"
     id="path437" />
  <path
     style="fill:#231f20;fill-opacity:1;fill-rule:nonzero;stroke:none"
     d="m 32.924309,84.262333 c -0.2614,-0.588 0.3172,-2.448 0.1615,-4.047 -0.1041,-1.082 0.7703,-3.686 0.588,-4.754 -0.1667,-0.975 -0.1511,-1.443 0.9369,-1.823 0.647,-0.224 2.0323,-0.251 2.2246,0.228 0.4478,1.1 0.4317,2.048 0.1874,3.089 -0.2702,1.183 -1.2968,4.334 -1.5369,4.891 -0.6136,1.401 -0.4161,2.115 -0.5469,2.5 -0.2334,0.724 -0.5719,0.812 -1.0667,0.76 -0.9583,-0.099 -0.9479,-0.844 -0.9479,-0.844"
     id="path438" />
  <path
     style="fill:none;stroke:#231f20;stroke-width:0.565977;stroke-linecap:butt;stroke-linejoin:miter;stroke-miterlimit:4;stroke-dasharray:none;stroke-opacity:1"
     d="m 32.924309,84.262333 c -0.2614,-0.588 0.3172,-2.448 0.1615,-4.047 -0.1041,-1.082 0.7703,-3.686 0.588,-4.754 -0.1667,-0.975 -0.1511,-1.443 0.9369,-1.823 0.647,-0.224 2.0323,-0.251 2.2246,0.228 0.4478,1.1 0.4317,2.048 0.1874,3.089 -0.2702,1.183 -1.2968,4.334 -1.5369,4.891 -0.6136,1.401 -0.4161,2.115 -0.5469,2.5 -0.2334,0.724 -0.5719,0.812 -1.0667,0.76 -0.9583,-0.099 -0.9479,-0.844 -0.9479,-0.844 z"
     id="path439" />
  <path
     style="fill:#231f20;fill-opacity:1;fill-rule:nonzero;stroke:none"
     d="m 34.335309,75.314333 c -1.2495,-0.339 -0.3642,-2.172 -0.2084,-2.692 0.1614,-0.521 0.448,-2.047 0.5161,-3.265 0.0667,-1.224 0.6813,-2.724 0.8172,-5.043 0.0735,-1.224 0.912,-2.364 2.6828,-2.187 1.7439,0.182 2.3011,1.234 1.9891,2.698 -0.3026,1.464 -1.213,2.708 -1.6302,4.161 -0.4213,1.448 -0.7032,2.975 -0.875,4.177 -0.1932,1.366 -0.7974,1.97 -1.2599,2.094 -1.152,0.313 -2.0317,0.057 -2.0317,0.057"
     id="path440" />
  <path
     style="fill:none;stroke:#231f20;stroke-width:0.565977;stroke-linecap:butt;stroke-linejoin:miter;stroke-miterlimit:4;stroke-dasharray:none;stroke-opacity:1"
     d="m 34.335309,75.314333 c -1.2495,-0.339 -0.3642,-2.172 -0.2084,-2.692 0.1614,-0.521 0.448,-2.047 0.5161,-3.265 0.0667,-1.224 0.6813,-2.724 0.8172,-5.043 0.0735,-1.224 0.912,-2.364 2.6828,-2.187 1.7439,0.182 2.3011,1.234 1.9891,2.698 -0.3026,1.464 -1.213,2.708 -1.6302,4.161 -0.4213,1.448 -0.7032,2.975 -0.875,4.177 -0.1932,1.366 -0.7974,1.97 -1.2599,2.094 -1.152,0.313 -2.0317,0.057 -2.0317,0.057 z"
     id="path441" />
  <path
     style="fill:#ffffff;fill-opacity:1;fill-rule:nonzero;stroke:none"
     d="m 34.356109,86.403333 c 0.4844,-0.901 0.1458,-2.032 -0.7558,-2.521 -0.9052,-0.484 -2.0358,-0.14 -2.5197,0.76 -0.4896,0.901 -0.1511,2.032 0.7547,2.521 0.9062,0.484 2.0369,0.146 2.5208,-0.76"
     id="path442" />
  <path
     style="fill:none;stroke:#231f20;stroke-width:1.33171;stroke-linecap:butt;stroke-linejoin:miter;stroke-miterlimit:4;stroke-dasharray:none;stroke-opacity:1"
     d="m 34.356109,86.403333 c 0.4844,-0.901 0.1458,-2.032 -0.7558,-2.521 -0.9052,-0.484 -2.0358,-0.14 -2.5197,0.76 -0.4896,0.901 -0.1511,2.032 0.7547,2.521 0.9062,0.484 2.0369,0.146 2.5208,-0.76 z"
     id="path443" />
  <path
     style="fill:#ffffff;fill-opacity:1;fill-rule:nonzero;stroke:none"
     d="m 19.840509,58.981333 c -1.2495,-1.88 -1.7495,-2.078 -2.5828,-1.599 -0.5573,0.317 -1.177,0.417 -1.5213,0.593 -1.1557,0.59 -2.86,2.068 -6.588,7.486 -0.8387,1.233 -2.0428,2.953 -2.5839,3.614 -0.8641,1.052 1.464,1.771 1.8026,1.359 1.1041,-1.312 1.9682,-2.12 2.4317,-2.541 0.3177,-0.282 0.8068,-0.866 2.1776,-1.818 2.0772,-1.437 3.5308,-1.994 5.1188,-3.39 0.7401,-0.652 1.7036,-0.672 2.1,-1.683 0.4052,-1.005 -0.3547,-2.021 -0.3547,-2.021"
     id="path444" />
  <path
     style="fill:none;stroke:#231f20;stroke-width:0.565977;stroke-linecap:butt;stroke-linejoin:miter;stroke-miterlimit:4;stroke-dasharray:none;stroke-opacity:1"
     d="m 19.840509,58.981333 c -1.2495,-1.88 -1.7495,-2.078 -2.5828,-1.599 -0.5573,0.317 -1.177,0.417 -1.5213,0.593 -1.1557,0.59 -2.86,2.068 -6.588,7.486 -0.8387,1.233 -2.0428,2.953 -2.5839,3.614 -0.8641,1.052 1.464,1.771 1.8026,1.359 1.1041,-1.312 1.9682,-2.12 2.4317,-2.541 0.3177,-0.282 0.8068,-0.866 2.1776,-1.818 2.0772,-1.437 3.5308,-1.994 5.1188,-3.39 0.7401,-0.652 1.7036,-0.672 2.1,-1.683 0.4052,-1.005 -0.3547,-2.021 -0.3547,-2.021 z"
     id="path445" />
  <path
     style="fill:#ffffff;fill-opacity:1;fill-rule:nonzero;stroke:#231f20;stroke-width:0.565977;stroke-linecap:round;stroke-linejoin:round;stroke-miterlimit:4;stroke-dasharray:none;stroke-opacity:1"
     d="m 19.236409,61.414333 c 1.4014,0.271 2.6562,-1.475 2.9588,-1.631 4.4052,-2.396 4.6609,-2.677 7.8854,-4.729 4.6609,-2.969 7.4011,-5.713 6.4677,-8.932 -0.6344,-2.183 -1.948,-3.167 -3.2548,-3.297 -1.4582,-0.131 -4.4009,1.062 -4.9171,3.906 l -1.1452,1.271 c -0.8855,0.76 -1.3172,1.136 -1.7814,1.473 -0.812,0.59 -1.6401,1.272 -3.1562,2.516 -2.688,2.199 -4.8078,5.402 -4.8078,5.402 -0.2385,0.202 -0.3537,0.458 -0.3948,0.724"
     id="path446" />
  <path
     style="fill:#231f20;fill-opacity:1;fill-rule:nonzero;stroke:none"
     d="m 4.695209,70.038333 c -0.0896,-1.348 0.812,-1.76 1.812,-1.484 0.3025,0.084 0.6453,-0.156 0.9213,-0.052 0.6626,0.245 1.3334,1.855 0.136,2.755 -0.0786,0.062 -0.5625,0.734 -0.9948,1.172 -0.8494,0.87 -2.9641,2.188 -5.58790003,1.557 -1.2402,-0.301 -0.8334,-0.979 -0.2975,-1.011 1.70840003,-0.098 1.84430003,-0.437 2.28120003,-0.629 1.4948,-0.636 1.7297,-2.308 1.7297,-2.308"
     id="path447" />
  <path
     style="fill:none;stroke:#231f20;stroke-width:0.332927;stroke-linecap:butt;stroke-linejoin:miter;stroke-miterlimit:4;stroke-dasharray:none;stroke-opacity:1"
     d="m 4.695209,70.038333 c -0.0896,-1.348 0.812,-1.76 1.812,-1.484 0.3025,0.084 0.6453,-0.156 0.9213,-0.052 0.6626,0.245 1.3334,1.855 0.136,2.755 -0.0786,0.062 -0.5625,0.734 -0.9948,1.172 -0.8494,0.87 -2.9641,2.188 -5.58790003,1.557 -1.2402,-0.301 -0.8334,-0.979 -0.2975,-1.011 1.70840003,-0.098 1.84430003,-0.437 2.28120003,-0.629 1.4948,-0.636 1.7297,-2.308 1.7297,-2.308 z"
     id="path448" />
  <path
     style="fill:#0098c9;fill-opacity:1;fill-rule:nonzero;stroke:none"
     d="m 36.548309,45.543333 c -0.9573,-2.057 -2.4053,-2.828 -3.724,-2.749 -1.4521,0.088 -4.1865,1.719 -4.2598,4.609 l 5.3224,5.719 c 2.5894,-2.719 3.7817,-5.177 2.6614,-7.579"
     id="path449" />
  <path
     style="fill:none;stroke:#231f20;stroke-width:0.565977;stroke-linecap:butt;stroke-linejoin:miter;stroke-miterlimit:4;stroke-dasharray:none;stroke-opacity:1"
     d="m 36.548309,45.543333 c -0.9573,-2.057 -2.4053,-2.828 -3.724,-2.749 -1.4521,0.088 -4.1865,1.719 -4.2598,4.609 l 5.3224,5.719 c 2.5894,-2.719 3.7817,-5.177 2.6614,-7.579 z"
     id="path450" />
  <path
     style="fill:#231f20;fill-opacity:1;fill-rule:nonzero;stroke:none"
     d="m 180.73551,66.966333 c -1.24,-1.896 -1.729,-2.104 -2.568,-1.636 -0.557,0.312 -1.177,0.412 -1.525,0.584 -1.161,0.577 -2.876,2.025 -6.672,7.411 -0.86,1.218 -2.073,2.922 -2.636,3.578 -0.869,1.042 1.448,1.787 1.792,1.386 1.12,-1.308 1.995,-2.104 2.464,-2.522 0.317,-0.281 0.823,-0.853 2.197,-1.786 2.088,-1.422 3.552,-1.958 5.151,-3.339 0.751,-0.64 1.713,-0.645 2.12,-1.651 0.423,-1 -0.323,-2.025 -0.323,-2.025"
     id="path451" />
  <path
     style="fill:none;stroke:#231f20;stroke-width:0.565977;stroke-linecap:butt;stroke-linejoin:miter;stroke-miterlimit:4;stroke-dasharray:none;stroke-opacity:1"
     d="m 180.73551,66.966333 c -1.24,-1.896 -1.729,-2.104 -2.568,-1.636 -0.557,0.312 -1.177,0.412 -1.525,0.584 -1.161,0.577 -2.876,2.025 -6.672,7.411 -0.86,1.218 -2.073,2.922 -2.636,3.578 -0.869,1.042 1.448,1.787 1.792,1.386 1.12,-1.308 1.995,-2.104 2.464,-2.522 0.317,-0.281 0.823,-0.853 2.197,-1.786 2.088,-1.422 3.552,-1.958 5.151,-3.339 0.751,-0.64 1.713,-0.645 2.12,-1.651 0.423,-1 -0.323,-2.025 -0.323,-2.025 z"
     id="path452" />
  <path
     style="fill:#231f20;fill-opacity:1;fill-rule:nonzero;stroke:none"
     d="m 178.40751,67.805333 c 1.886,3.541 4.244,0.208 4.667,-0.016 4.432,-2.339 4.692,-2.62 7.943,-4.631 4.692,-2.911 7.464,-5.629 6.568,-8.853 -0.604,-2.194 -1.907,-3.194 -3.21,-3.334 -1.452,-0.152 -4.41,1.004 -4.962,3.843 l -1.162,1.256 c -0.89,0.749 -1.328,1.125 -1.797,1.459 -0.812,0.582 -1.656,1.254 -3.188,2.473 -2.713,2.172 -4.869,5.344 -4.869,5.344 -0.954,0.801 0.01,2.459 0.01,2.459"
     id="path453" />
  <path
     style="fill:none;stroke:#231f20;stroke-width:0.565977;stroke-linecap:butt;stroke-linejoin:miter;stroke-miterlimit:4;stroke-dasharray:none;stroke-opacity:1"
     d="m 178.40751,67.805333 c 1.886,3.541 4.244,0.208 4.667,-0.016 4.432,-2.339 4.692,-2.62 7.943,-4.631 4.692,-2.911 7.464,-5.629 6.568,-8.853 -0.604,-2.194 -1.907,-3.194 -3.21,-3.334 -1.452,-0.152 -4.41,1.004 -4.962,3.843 l -1.162,1.256 c -0.89,0.749 -1.328,1.125 -1.797,1.459 -0.812,0.582 -1.656,1.254 -3.188,2.473 -2.713,2.172 -4.869,5.344 -4.869,5.344 -0.954,0.801 0.01,2.459 0.01,2.459 z"
     id="path454" />
  <path
     style="fill:#231f20;fill-opacity:1;fill-rule:nonzero;stroke:none"
     d="m 165.46551,77.846333 c -0.068,-1.355 0.833,-1.756 1.823,-1.464 0.297,0.079 0.645,-0.151 0.926,-0.041 0.658,0.249 1.308,1.864 0.1,2.76 -0.078,0.057 -0.562,0.718 -1.005,1.156 -0.86,0.854 -2.995,2.152 -5.609,1.485 -1.235,-0.308 -0.819,-0.98 -0.276,-1.011 1.708,-0.073 1.842,-0.417 2.281,-0.604 1.5,-0.614 1.76,-2.281 1.76,-2.281"
     id="path455" />
  <path
     style="fill:none;stroke:#231f20;stroke-width:0.332927;stroke-linecap:butt;stroke-linejoin:miter;stroke-miterlimit:4;stroke-dasharray:none;stroke-opacity:1"
     d="m 165.46551,77.846333 c -0.068,-1.355 0.833,-1.756 1.823,-1.464 0.297,0.079 0.645,-0.151 0.926,-0.041 0.658,0.249 1.308,1.864 0.1,2.76 -0.078,0.057 -0.562,0.718 -1.005,1.156 -0.86,0.854 -2.995,2.152 -5.609,1.485 -1.235,-0.308 -0.819,-0.98 -0.276,-1.011 1.708,-0.073 1.842,-0.417 2.281,-0.604 1.5,-0.614 1.76,-2.281 1.76,-2.281 z"
     id="path456" />
  <path
     style="fill:#0098c9;fill-opacity:1;fill-rule:nonzero;stroke:none"
     d="m 195.26251,64.647333 c 0.353,-3.109 0.771,-3.744 1.233,-4.541 2.86,-5.021 0.344,-6.333 -2.536,-6.135 -3.38,0.219 -4.604,0.234 -4.729,6.531 -0.025,1.755 -1.031,8.448 -1.031,8.448 -0.682,2.349 -0.1,5.005 1,5.953 1.167,1 0.776,0.52 2.02,1.25 1.188,0.698 3.371,0.693 4.167,-0.255 0.771,-0.901 0.229,-2.475 -0.255,-4.855 -0.38,-1.869 0.131,-6.396 0.131,-6.396"
     id="path457" />
  <path
     style="fill:none;stroke:#231f20;stroke-width:0.565977;stroke-linecap:butt;stroke-linejoin:miter;stroke-miterlimit:4;stroke-dasharray:none;stroke-opacity:1"
     d="m 195.26251,64.647333 c 0.353,-3.109 0.771,-3.744 1.233,-4.541 2.86,-5.021 0.344,-6.333 -2.536,-6.135 -3.38,0.219 -4.604,0.234 -4.729,6.531 -0.025,1.755 -1.031,8.448 -1.031,8.448 -0.682,2.349 -0.1,5.005 1,5.953 1.167,1 0.776,0.52 2.02,1.25 1.188,0.698 3.371,0.693 4.167,-0.255 0.771,-0.901 0.229,-2.475 -0.255,-4.855 -0.38,-1.869 0.131,-6.396 0.131,-6.396 z"
     id="path458" />
  <path
     style="fill:#ffffff;fill-opacity:1;fill-rule:nonzero;stroke:none"
     d="m 189.40751,85.247333 c 0.074,0.239 -0.885,0.854 -0.641,1.312 0.245,0.459 1.005,0.276 2.615,1.454 l 0.021,0.014 c 1.136,0.902 2.484,1.22 3.64,0.72 1.896,-0.838 2.516,-3.605 1.385,-6.193 -1.129,-2.588 -3.593,-4.005 -5.494,-3.172 -1.823,0.792 -2.468,3.375 -1.526,5.865"
     id="path459" />
  <path
     style="fill:none;stroke:#231f20;stroke-width:0.565977;stroke-linecap:butt;stroke-linejoin:miter;stroke-miterlimit:4;stroke-dasharray:none;stroke-opacity:1"
     d="m 189.40751,85.247333 c 0.074,0.239 -0.885,0.854 -0.641,1.312 0.245,0.459 1.005,0.276 2.615,1.454 l 0.021,0.014 c 1.136,0.902 2.484,1.22 3.64,0.72 1.896,-0.838 2.516,-3.605 1.385,-6.193 -1.129,-2.588 -3.593,-4.005 -5.494,-3.172 -1.823,0.792 -2.468,3.375 -1.526,5.865 z"
     id="path460" />
  <path
     style="fill:#231f20;fill-opacity:1;fill-rule:nonzero;stroke:none"
     d="m 175.61051,84.690333 c 0.251,-0.595 1.995,-1.459 3.047,-2.677 0.709,-0.823 3.198,-1.986 3.844,-2.855 0.589,-0.797 0.942,-1.104 1.964,-0.583 0.609,0.312 1.582,1.296 1.369,1.766 -0.484,1.082 -1.183,1.729 -2.104,2.27 -1.041,0.62 -4.031,2.052 -4.599,2.26 -1.432,0.527 -1.813,1.156 -2.182,1.328 -0.687,0.334 -0.984,0.152 -1.292,-0.244 -0.588,-0.76 -0.047,-1.265 -0.047,-1.265"
     id="path461" />
  <path
     style="fill:none;stroke:#231f20;stroke-width:0.565977;stroke-linecap:butt;stroke-linejoin:miter;stroke-miterlimit:4;stroke-dasharray:none;stroke-opacity:1"
     d="m 175.61051,84.690333 c 0.251,-0.595 1.995,-1.459 3.047,-2.677 0.709,-0.823 3.198,-1.986 3.844,-2.855 0.589,-0.797 0.942,-1.104 1.964,-0.583 0.609,0.312 1.582,1.296 1.369,1.766 -0.484,1.082 -1.183,1.729 -2.104,2.27 -1.041,0.62 -4.031,2.052 -4.599,2.26 -1.432,0.527 -1.813,1.156 -2.182,1.328 -0.687,0.334 -0.984,0.152 -1.292,-0.244 -0.588,-0.76 -0.047,-1.265 -0.047,-1.265 z"
     id="path462" />
  <path
     style="fill:#231f20;fill-opacity:1;fill-rule:nonzero;stroke:none"
     d="m 183.06351,79.533333 c -0.62,-1.14 1.318,-1.766 1.803,-2.01 0.484,-0.24 1.791,-1.089 2.719,-1.881 0.932,-0.796 2.437,-1.385 4.213,-2.891 0.932,-0.79 2.339,-0.968 3.427,0.434 1.073,1.39 0.698,2.514 -0.574,3.301 -1.27,0.792 -2.796,0.989 -4.134,1.693 -1.344,0.698 -2.642,1.542 -3.626,2.25 -1.125,0.802 -1.978,0.781 -2.385,0.537 -1.021,-0.62 -1.443,-1.433 -1.443,-1.433"
     id="path463" />
  <path
     style="fill:none;stroke:#231f20;stroke-width:0.565977;stroke-linecap:butt;stroke-linejoin:miter;stroke-miterlimit:4;stroke-dasharray:none;stroke-opacity:1"
     d="m 183.06351,79.533333 c -0.62,-1.14 1.318,-1.766 1.803,-2.01 0.484,-0.24 1.791,-1.089 2.719,-1.881 0.932,-0.796 2.437,-1.385 4.213,-2.891 0.932,-0.79 2.339,-0.968 3.427,0.434 1.073,1.39 0.698,2.514 -0.574,3.301 -1.27,0.792 -2.796,0.989 -4.134,1.693 -1.344,0.698 -2.642,1.542 -3.626,2.25 -1.125,0.802 -1.978,0.781 -2.385,0.537 -1.021,-0.62 -1.443,-1.433 -1.443,-1.433 z"
     id="path464" />
  <path
     style="fill:#ffffff;fill-opacity:1;fill-rule:nonzero;stroke:none"
     d="m 175.05351,87.205333 c 0.989,-0.276 1.573,-1.296 1.302,-2.287 -0.27,-0.995 -1.297,-1.572 -2.286,-1.301 -0.99,0.27 -1.574,1.297 -1.303,2.286 0.276,0.99 1.297,1.572 2.287,1.302"
     id="path465" />
  <path
     style="fill:none;stroke:#231f20;stroke-width:1.33171;stroke-linecap:butt;stroke-linejoin:miter;stroke-miterlimit:4;stroke-dasharray:none;stroke-opacity:1"
     d="m 175.05351,87.205333 c 0.989,-0.276 1.573,-1.296 1.302,-2.287 -0.27,-0.995 -1.297,-1.572 -2.286,-1.301 -0.99,0.27 -1.574,1.297 -1.303,2.286 0.276,0.99 1.297,1.572 2.287,1.302 z"
     id="path466" />
  <path
     style="fill:#ffffff;fill-opacity:1;fill-rule:nonzero;stroke:none"
     d="m 178.55351,64.111333 c -0.818,-2.109 -1.26,-2.412 -2.178,-2.12 -0.614,0.194 -1.238,0.156 -1.609,0.256 -1.26,0.328 -3.239,1.4 -8.041,5.9 -1.088,1.022 -2.631,2.443 -3.301,2.975 -1.068,0.839 1.052,2.047 1.473,1.713 1.355,-1.041 2.375,-1.645 2.917,-1.958 0.375,-0.214 0.968,-0.678 2.515,-1.307 2.338,-0.964 3.876,-1.193 5.724,-2.219 0.865,-0.474 1.808,-0.286 2.412,-1.193 0.614,-0.891 0.088,-2.047 0.088,-2.047"
     id="path467" />
  <path
     style="fill:none;stroke:#231f20;stroke-width:0.565977;stroke-linecap:butt;stroke-linejoin:miter;stroke-miterlimit:4;stroke-dasharray:none;stroke-opacity:1"
     d="m 178.55351,64.111333 c -0.818,-2.109 -1.26,-2.412 -2.178,-2.12 -0.614,0.194 -1.238,0.156 -1.609,0.256 -1.26,0.328 -3.239,1.4 -8.041,5.9 -1.088,1.022 -2.631,2.443 -3.301,2.975 -1.068,0.839 1.052,2.047 1.473,1.713 1.355,-1.041 2.375,-1.645 2.917,-1.958 0.375,-0.214 0.968,-0.678 2.515,-1.307 2.338,-0.964 3.876,-1.193 5.724,-2.219 0.865,-0.474 1.808,-0.286 2.412,-1.193 0.614,-0.891 0.088,-2.047 0.088,-2.047 z"
     id="path468" />
  <path
     style="fill:#ffffff;fill-opacity:1;fill-rule:nonzero;stroke:#231f20;stroke-width:0.565977;stroke-linecap:round;stroke-linejoin:round;stroke-miterlimit:4;stroke-dasharray:none;stroke-opacity:1"
     d="m 177.44351,66.357333 c 1.303,0.561 2.912,-0.871 3.235,-0.959 4.823,-1.396 5.125,-1.615 8.713,-2.927 5.194,-1.901 8.454,-3.996 8.24,-7.338 -0.156,-2.267 -1.229,-3.511 -2.48,-3.912 -1.39,-0.448 -4.52,0.093 -5.634,2.754 l -1.391,0.996 c -1.027,0.552 -1.531,0.828 -2.057,1.062 -0.922,0.396 -1.87,0.885 -3.62,1.776 -3.099,1.573 -5.854,4.245 -5.854,4.245 -0.277,0.145 -0.444,0.375 -0.537,0.62"
     id="path469" />
  <path
     style="fill:#231f20;fill-opacity:1;fill-rule:nonzero;stroke:none"
     d="m 161.39251,71.658333 c 0.204,-1.333 1.172,-1.547 2.089,-1.057 0.276,0.141 0.661,-0.016 0.911,0.146 0.589,0.38 0.901,2.099 -0.459,2.719 -0.099,0.047 -0.708,0.593 -1.224,0.932 -1.009,0.667 -3.364,1.505 -5.791,0.323 -1.146,-0.563 -0.6,-1.136 -0.073,-1.047 1.688,0.265 1.896,-0.041 2.364,-0.131 1.595,-0.301 2.183,-1.885 2.183,-1.885"
     id="path470" />
  <path
     style="fill:none;stroke:#231f20;stroke-width:0.332927;stroke-linecap:butt;stroke-linejoin:miter;stroke-miterlimit:4;stroke-dasharray:none;stroke-opacity:1"
     d="m 161.39251,71.658333 c 0.204,-1.333 1.172,-1.547 2.089,-1.057 0.276,0.141 0.661,-0.016 0.911,0.146 0.589,0.38 0.901,2.099 -0.459,2.719 -0.099,0.047 -0.708,0.593 -1.224,0.932 -1.009,0.667 -3.364,1.505 -5.791,0.323 -1.146,-0.563 -0.6,-1.136 -0.073,-1.047 1.688,0.265 1.896,-0.041 2.364,-0.131 1.595,-0.301 2.183,-1.885 2.183,-1.885 z"
     id="path471" />
  <path
     style="fill:#0098c9;fill-opacity:1;fill-rule:nonzero;stroke:none"
     d="m 197.75151,54.570333 c -0.494,-2.219 -1.74,-3.281 -3.046,-3.489 -1.439,-0.224 -4.459,0.785 -5.147,3.588 l 3.964,6.734 c 3.115,-2.098 4.807,-4.25 4.229,-6.833"
     id="path472" />
  <path
     style="fill:none;stroke:#231f20;stroke-width:0.565977;stroke-linecap:butt;stroke-linejoin:miter;stroke-miterlimit:4;stroke-dasharray:none;stroke-opacity:1"
     d="m 197.75151,54.570333 c -0.494,-2.219 -1.74,-3.281 -3.046,-3.489 -1.439,-0.224 -4.459,0.785 -5.147,3.588 l 3.964,6.734 c 3.115,-2.098 4.807,-4.25 4.229,-6.833 z"
     id="path473" />
  <path
     style="fill:#ffffff;fill-opacity:1;fill-rule:nonzero;stroke:none"
     d="m 239.97551,83.595333 c -1.026,-0.062 -1.906,0.714 -1.974,1.74 -0.068,1.026 0.713,1.907 1.734,1.979 1.026,0.063 1.912,-0.719 1.979,-1.744 0.063,-1.021 -0.713,-1.907 -1.739,-1.975"
     id="path474" />
  <path
     style="fill:none;stroke:#231f20;stroke-width:1.33171;stroke-linecap:butt;stroke-linejoin:miter;stroke-miterlimit:4;stroke-dasharray:none;stroke-opacity:1"
     d="m 239.97551,83.595333 c -1.026,-0.062 -1.906,0.714 -1.974,1.74 -0.068,1.026 0.713,1.907 1.734,1.979 1.026,0.063 1.912,-0.719 1.979,-1.744 0.063,-1.021 -0.713,-1.907 -1.739,-1.975 z"
     id="path475" />
  <path
     style="fill:#231f20;fill-opacity:1;fill-rule:nonzero;stroke:none"
     d="m 241.84551,83.773333 c 0.51,-0.391 0.912,-2.298 1.817,-3.626 0.609,-0.896 1.104,-3.598 1.781,-4.442 0.62,-0.771 0.834,-1.187 0.068,-2.047 -0.453,-0.511 -1.656,-1.197 -2.052,-0.88 -0.932,0.751 -1.369,1.588 -1.672,2.609 -0.333,1.167 -0.958,4.422 -1.016,5.031 -0.145,1.521 -0.661,2.048 -0.733,2.448 -0.141,0.745 0.104,0.985 0.572,1.188 0.885,0.369 1.235,-0.281 1.235,-0.281"
     id="path476" />
  <path
     style="fill:none;stroke:#231f20;stroke-width:0.565977;stroke-linecap:butt;stroke-linejoin:miter;stroke-miterlimit:4;stroke-dasharray:none;stroke-opacity:1"
     d="m 241.84551,83.773333 c 0.51,-0.391 0.912,-2.298 1.817,-3.626 0.609,-0.896 1.104,-3.598 1.781,-4.442 0.62,-0.771 0.834,-1.187 0.068,-2.047 -0.453,-0.511 -1.656,-1.197 -2.052,-0.88 -0.932,0.751 -1.369,1.588 -1.672,2.609 -0.333,1.167 -0.958,4.422 -1.016,5.031 -0.145,1.521 -0.661,2.048 -0.733,2.448 -0.141,0.745 0.104,0.985 0.572,1.188 0.885,0.369 1.235,-0.281 1.235,-0.281 z"
     id="path477" />
  <path
     style="fill:#231f20;fill-opacity:1;fill-rule:nonzero;stroke:none"
     d="m 245.29851,74.846333 c 1.287,-0.147 0.687,-2.095 0.609,-2.631 -0.078,-0.536 -0.13,-2.098 -0.016,-3.301 0.115,-1.224 -0.26,-2.797 -0.041,-5.109 0.115,-1.224 -0.547,-2.48 -2.323,-2.574 -1.756,-0.078 -2.464,0.87 -2.376,2.37 0.079,1.489 0.798,2.854 0.986,4.36 0.192,1.5 0.244,3.041 0.229,4.254 -0.016,1.38 0.495,2.074 0.921,2.266 1.099,0.48 2.011,0.365 2.011,0.365"
     id="path478" />
  <path
     style="fill:none;stroke:#231f20;stroke-width:0.565977;stroke-linecap:butt;stroke-linejoin:miter;stroke-miterlimit:4;stroke-dasharray:none;stroke-opacity:1"
     d="m 245.29851,74.846333 c 1.287,-0.147 0.687,-2.095 0.609,-2.631 -0.078,-0.536 -0.13,-2.098 -0.016,-3.301 0.115,-1.224 -0.26,-2.797 -0.041,-5.109 0.115,-1.224 -0.547,-2.48 -2.323,-2.574 -1.756,-0.078 -2.464,0.87 -2.376,2.37 0.079,1.489 0.798,2.854 0.986,4.36 0.192,1.5 0.244,3.041 0.229,4.254 -0.016,1.38 0.495,2.074 0.921,2.266 1.099,0.48 2.011,0.365 2.011,0.365 z"
     id="path479" />
  <path
     style="fill:#231f20;fill-opacity:1;fill-rule:nonzero;stroke:none"
     d="m 222.17351,76.007333 c 0.338,-0.546 0.021,-2.469 0.385,-4.032 0.251,-1.061 -0.276,-3.754 0.047,-4.785 0.302,-0.948 0.338,-1.412 -0.682,-1.939 -0.609,-0.306 -1.98,-0.52 -2.234,-0.072 -0.595,1.036 -0.699,1.974 -0.604,3.036 0.12,1.214 0.713,4.464 0.88,5.058 0.41,1.469 0.129,2.15 0.202,2.546 0.136,0.751 0.459,0.88 0.964,0.896 0.959,0.036 1.042,-0.708 1.042,-0.708"
     id="path480" />
  <path
     style="fill:none;stroke:#231f20;stroke-width:0.565977;stroke-linecap:butt;stroke-linejoin:miter;stroke-miterlimit:4;stroke-dasharray:none;stroke-opacity:1"
     d="m 222.17351,76.007333 c 0.338,-0.546 0.021,-2.469 0.385,-4.032 0.251,-1.061 -0.276,-3.754 0.047,-4.785 0.302,-0.948 0.338,-1.412 -0.682,-1.939 -0.609,-0.306 -1.98,-0.52 -2.234,-0.072 -0.595,1.036 -0.699,1.974 -0.604,3.036 0.12,1.214 0.713,4.464 0.88,5.058 0.41,1.469 0.129,2.15 0.202,2.546 0.136,0.751 0.459,0.88 0.964,0.896 0.959,0.036 1.042,-0.708 1.042,-0.708 z"
     id="path481" />
  <path
     style="fill:#231f20;fill-opacity:1;fill-rule:nonzero;stroke:none"
     d="m 220.85051,67.351333 c 0.801,1.02 2.14,-0.516 2.557,-0.86 0.416,-0.353 1.719,-1.213 2.807,-1.754 1.1,-0.542 2.235,-1.688 4.324,-2.719 1.099,-0.547 1.823,-1.767 0.957,-3.324 -0.848,-1.541 -2.025,-1.64 -3.254,-0.785 -1.224,0.858 -2.016,2.181 -3.194,3.134 -1.176,0.943 -2.462,1.808 -3.494,2.438 -1.187,0.709 -1.511,1.505 -1.443,1.974 0.161,1.183 0.74,1.896 0.74,1.896"
     id="path482" />
  <path
     style="fill:none;stroke:#231f20;stroke-width:0.565977;stroke-linecap:butt;stroke-linejoin:miter;stroke-miterlimit:4;stroke-dasharray:none;stroke-opacity:1"
     d="m 220.85051,67.351333 c 0.801,1.02 2.14,-0.516 2.557,-0.86 0.416,-0.353 1.719,-1.213 2.807,-1.754 1.1,-0.542 2.235,-1.688 4.324,-2.719 1.099,-0.547 1.823,-1.767 0.957,-3.324 -0.848,-1.541 -2.025,-1.64 -3.254,-0.785 -1.224,0.858 -2.016,2.181 -3.194,3.134 -1.176,0.943 -2.462,1.808 -3.494,2.438 -1.187,0.709 -1.511,1.505 -1.443,1.974 0.161,1.183 0.74,1.896 0.74,1.896 z"
     id="path483" />
  <path
     style="fill:#231f20;fill-opacity:1;fill-rule:nonzero;stroke:none"
     d="m 221.50651,82.169333 c -0.359,-0.631 -0.907,-3.839 -1,-4.574 -0.083,-0.661 -0.583,-1.702 0.391,-2.328 0.39,-0.26 1.141,-0.349 1.464,-0.301 0.254,0.036 0.396,0.333 0.405,0.733 0.021,0.662 -0.224,0.86 -0.255,2.136 0,0 -0.052,0.307 -0.188,0.839 -0.374,1.583 -0.358,0.855 -0.39,3.271 0,0.172 -0.176,0.297 -0.291,0.286 -0.177,-0.021 -0.136,-0.062 -0.136,-0.062"
     id="path484" />
  <path
     style="fill:none;stroke:#231f20;stroke-width:0.565977;stroke-linecap:round;stroke-linejoin:round;stroke-miterlimit:4;stroke-dasharray:none;stroke-opacity:1"
     d="m 221.50651,82.169333 c -0.359,-0.631 -0.907,-3.839 -1,-4.574 -0.083,-0.661 -0.583,-1.702 0.391,-2.328 0.39,-0.26 1.141,-0.349 1.464,-0.301 0.254,0.036 0.396,0.333 0.405,0.733 0.021,0.662 -0.224,0.86 -0.255,2.136 0,0 -0.052,0.307 -0.188,0.839 -0.374,1.583 -0.358,0.855 -0.39,3.271 0,0.172 -0.176,0.297 -0.291,0.286 -0.177,-0.021 -0.136,-0.062 -0.136,-0.062 z"
     id="path485" />
  <path
     style="fill:#231f20;fill-opacity:1;fill-rule:nonzero;stroke:none"
     d="m 236.49551,70.319333 c 1.49,-2.396 1.276,-5.229 -0.484,-6.328 -1.76,-1.098 -4.401,-0.052 -5.896,2.35 -1.5,2.396 -1.281,5.229 0.48,6.328 1.76,1.098 4.4,0.046 5.9,-2.35"
     id="path486" />
  <path
     style="fill:none;stroke:#231f20;stroke-width:0.565977;stroke-linecap:butt;stroke-linejoin:miter;stroke-miterlimit:4;stroke-dasharray:none;stroke-opacity:1"
     d="m 236.49551,70.319333 c 1.49,-2.396 1.276,-5.229 -0.484,-6.328 -1.76,-1.098 -4.401,-0.052 -5.896,2.35 -1.5,2.396 -1.281,5.229 0.48,6.328 1.76,1.098 4.4,0.046 5.9,-2.35 z"
     id="path487" />
  <path
     style="fill:#231f20;fill-opacity:1;fill-rule:nonzero;stroke:none"
     d="m 237.08551,46.997333 c -3.543,-0.698 -2.902,-2.25 -3.126,-6.318 -0.245,-4.458 -0.021,-9.13 1.083,-12.234 1.24,-3.474 0.833,-3.807 2.735,-4.094 1.896,-0.292 2.037,0.474 2.958,1.38 1.058,1.042 -1.062,8.083 -0.63,12.818 0.204,2.218 2.12,7.406 0.75,7.865 -1.38,0.463 -3.77,0.583 -3.77,0.583"
     id="path488" />
  <path
     style="fill:none;stroke:#231f20;stroke-width:0.565977;stroke-linecap:butt;stroke-linejoin:miter;stroke-miterlimit:4;stroke-dasharray:none;stroke-opacity:1"
     d="m 237.08551,46.997333 c -3.543,-0.698 -2.902,-2.25 -3.126,-6.318 -0.245,-4.458 -0.021,-9.13 1.083,-12.234 1.24,-3.474 0.833,-3.807 2.735,-4.094 1.896,-0.292 2.037,0.474 2.958,1.38 1.058,1.042 -1.062,8.083 -0.63,12.818 0.204,2.218 2.12,7.406 0.75,7.865 -1.38,0.463 -3.77,0.583 -3.77,0.583 z"
     id="path489" />
  <path
     style="fill:#231f20;fill-opacity:1;fill-rule:nonzero;stroke:none"
     d="m 238.73051,26.393333 c -2.26,0.082 -2.921,0.14 -2.615,-2.344 0.079,-0.631 0.423,-2.375 0.36,-2.76 -0.198,-1.287 -0.318,-2.787 1.9,-8.989 0.344,-0.959 0.688,-2.9070001 1.048,-4.2620001 0.338,-1.317 2.286,0.147 2.162,0.662 -0.423,1.6660001 -0.328,2.8290001 -0.396,3.4420001 -0.047,0.428 -0.266,1.21 -0.042,2.855 0.578,4.24 -0.677,5.521 -0.636,6.417 0.131,2.583 0.771,4.76 0.162,5.025 -0.99,0.448 -1.943,-0.046 -1.943,-0.046"
     id="path490" />
  <path
     style="fill:none;stroke:#231f20;stroke-width:0.565977;stroke-linecap:butt;stroke-linejoin:miter;stroke-miterlimit:4;stroke-dasharray:none;stroke-opacity:1"
     d="m 238.73051,26.393333 c -2.26,0.082 -2.921,0.14 -2.615,-2.344 0.079,-0.631 0.423,-2.375 0.36,-2.76 -0.198,-1.287 -0.318,-2.787 1.9,-8.989 0.344,-0.959 0.688,-2.9070001 1.048,-4.2620001 0.338,-1.317 2.286,0.147 2.162,0.662 -0.423,1.6660001 -0.328,2.8290001 -0.396,3.4420001 -0.047,0.428 -0.266,1.21 -0.042,2.855 0.578,4.24 -0.677,5.521 -0.636,6.417 0.131,2.583 0.771,4.76 0.162,5.025 -0.99,0.448 -1.943,-0.046 -1.943,-0.046 z"
     id="path491" />
  <path
     style="fill:#231f20;fill-opacity:1;fill-rule:nonzero;stroke:none"
     d="m 243.31451,47.059333 c 3.583,-0.412 3.067,-2.01 3.615,-6.057 0.593,-4.417 0.744,-9.093 -0.115,-12.281 -0.959,-3.552 -0.532,-3.844 -2.396,-4.292 -1.871,-0.443 -2.073,0.313 -3.057,1.141 -1.142,0.963 0.41,8.145 -0.386,12.833 -0.38,2.192 -2.704,7.208 -1.376,7.776 1.344,0.572 3.715,0.88 3.715,0.88"
     id="path492" />
  <path
     style="fill:none;stroke:#231f20;stroke-width:0.565977;stroke-linecap:butt;stroke-linejoin:miter;stroke-miterlimit:4;stroke-dasharray:none;stroke-opacity:1"
     d="m 243.31451,47.059333 c 3.583,-0.412 3.067,-2.01 3.615,-6.057 0.593,-4.417 0.744,-9.093 -0.115,-12.281 -0.959,-3.552 -0.532,-3.844 -2.396,-4.292 -1.871,-0.443 -2.073,0.313 -3.057,1.141 -1.142,0.963 0.41,8.145 -0.386,12.833 -0.38,2.192 -2.704,7.208 -1.376,7.776 1.344,0.572 3.715,0.88 3.715,0.88 z"
     id="path493" />
  <path
     style="fill:#231f20;fill-opacity:1;fill-rule:nonzero;stroke:none"
     d="m 243.31851,26.403333 c 2.251,0.255 2.907,0.354 2.787,-2.146 -0.031,-0.64 -0.25,-2.4 -0.162,-2.781 0.298,-1.26 0.522,-2.755 -1.234,-9.099 -0.271,-0.984 -0.468,-2.9530001 -0.724,-4.3280001 -0.255,-1.333 -2.296,-0.025 -2.203,0.505 0.292,1.6880001 0.115,2.8390001 0.136,3.4590001 0.015,0.432 0.181,1.219 -0.167,2.849 -0.896,4.182 0.271,5.556 0.162,6.447 -0.318,2.562 -1.12,4.688 -0.532,5.005 0.958,0.511 1.937,0.089 1.937,0.089"
     id="path494" />
  <path
     style="fill:none;stroke:#231f20;stroke-width:0.565977;stroke-linecap:butt;stroke-linejoin:miter;stroke-miterlimit:4;stroke-dasharray:none;stroke-opacity:1"
     d="m 243.31851,26.403333 c 2.251,0.255 2.907,0.354 2.787,-2.146 -0.031,-0.64 -0.25,-2.4 -0.162,-2.781 0.298,-1.26 0.522,-2.755 -1.234,-9.099 -0.271,-0.984 -0.468,-2.9530001 -0.724,-4.3280001 -0.255,-1.333 -2.296,-0.025 -2.203,0.505 0.292,1.6880001 0.115,2.8390001 0.136,3.4590001 0.015,0.432 0.181,1.219 -0.167,2.849 -0.896,4.182 0.271,5.556 0.162,6.447 -0.318,2.562 -1.12,4.688 -0.532,5.005 0.958,0.511 1.937,0.089 1.937,0.089 z"
     id="path495" />
  <path
     style="fill:#231f20;fill-opacity:1;fill-rule:nonzero;stroke:none"
     d="m 244.77751,4.6223329 c 0.281,0.61 -0.963,1.922 -1.036,3.886 -0.016,0.406 -0.214,0.718 -0.366,1.068 -0.588,1.3850001 -1.89,2.3170001 -2.724,-1.423 -0.113,-0.515 0.319,-2.572 0.084,-3.317 -0.557,-1.787 1.12,-4.65099994 1.615,-4.50599994 1.073,0.312 2.427,4.29199994 2.427,4.29199994"
     id="path496" />
  <path
     style="fill:none;stroke:#231f20;stroke-width:0.644548;stroke-linecap:round;stroke-linejoin:round;stroke-miterlimit:4;stroke-dasharray:none;stroke-opacity:1"
     d="m 244.77751,4.6223329 c 0.281,0.61 -0.963,1.922 -1.036,3.886 -0.016,0.406 -0.214,0.718 -0.366,1.068 -0.588,1.3850001 -1.89,2.3170001 -2.724,-1.423 -0.113,-0.515 0.319,-2.572 0.084,-3.317 -0.557,-1.787 1.12,-4.65099994 1.615,-4.50599994 1.073,0.312 2.427,4.29199994 2.427,4.29199994 z"
     id="path497" />
  <path
     style="fill:#231f20;fill-opacity:1;fill-rule:nonzero;stroke:none"
     d="m 238.64251,4.3253329 c -0.339,0.568 0.739,2.011 0.583,3.975 -0.026,0.4 0.136,0.738 0.245,1.098 0.432,1.4480001 1.615,2.5160001 2.869,-1.098 0.178,-0.5 -0.01,-2.59 0.298,-3.314 0.754,-1.702 -0.579,-4.74399993 -1.095,-4.64999993 -1.093,0.188 -2.9,3.98899993 -2.9,3.98899993"
     id="path498" />
  <path
     style="fill:none;stroke:#231f20;stroke-width:0.644548;stroke-linecap:round;stroke-linejoin:round;stroke-miterlimit:4;stroke-dasharray:none;stroke-opacity:1"
     d="m 238.64251,4.3253329 c -0.339,0.568 0.739,2.011 0.583,3.975 -0.026,0.4 0.136,0.738 0.245,1.098 0.432,1.4480001 1.615,2.5160001 2.869,-1.098 0.178,-0.5 -0.01,-2.59 0.298,-3.314 0.754,-1.702 -0.579,-4.74399993 -1.095,-4.64999993 -1.093,0.188 -2.9,3.98899993 -2.9,3.98899993 z"
     id="path499" />
  <path
     style="fill:#231f20;fill-opacity:1;fill-rule:nonzero;stroke:none"
     d="m 236.07451,42.330333 c 0.401,0.604 3.011,2.552 3.62,2.969 0.547,0.386 1.255,1.296 2.249,0.719 0.402,-0.235 0.834,-0.865 0.938,-1.167 0.084,-0.24 -0.115,-0.5 -0.463,-0.693 -0.584,-0.328 -0.88,-0.192 -2.027,-0.744 0,0 -0.292,-0.095 -0.822,-0.224 -1.588,-0.385 -0.927,-0.068 -3.094,-1.141 -0.157,-0.083 -0.344,0.021 -0.39,0.13 -0.063,0.167 -0.011,0.151 -0.011,0.151"
     id="path500" />
  <path
     style="fill:none;stroke:#231f20;stroke-width:0.565977;stroke-linecap:round;stroke-linejoin:round;stroke-miterlimit:4;stroke-dasharray:none;stroke-opacity:1"
     d="m 236.07451,42.330333 c 0.401,0.604 3.011,2.552 3.62,2.969 0.547,0.386 1.255,1.296 2.249,0.719 0.402,-0.235 0.834,-0.865 0.938,-1.167 0.084,-0.24 -0.115,-0.5 -0.463,-0.693 -0.584,-0.328 -0.88,-0.192 -2.027,-0.744 0,0 -0.292,-0.095 -0.822,-0.224 -1.588,-0.385 -0.927,-0.068 -3.094,-1.141 -0.157,-0.083 -0.344,0.021 -0.39,0.13 -0.063,0.167 -0.011,0.151 -0.011,0.151 z"
     id="path501" />
  <path
     style="fill:#0098c9;fill-opacity:1;fill-rule:nonzero;stroke:none"
     d="m 244.53351,50.595333 c 0.202,-0.713 2.03,-2.286 0.921,-1.713 l -0.339,-0.115 c -2.186,-2.213 -1.234,-7.984 -1.234,-7.984 0,0 -0.458,-0.578 -0.932,-0.718 -0.474,-0.142 -1.183,0.098 -1.183,0.098 0,0 -2.312,5.366 -5.353,6.042 l -0.344,-0.083 c -0.631,-1.084 0.062,1.224 -0.162,1.932 -0.978,3.099 -3.645,7.448 -4.609,8.38 -1.317,1.276 -3.932,1.037 -3.448,3.147 0,0 0.068,1.942 2.844,2.38 1.005,0.166 2.927,1.473 2.927,1.473 0,0 1.041,0.865 2.15,1.213 0.98,0.314 2.115,0.152 2.36,0.115 0,0 2.323,-0.063 3.255,0.344 2.568,1.136 3.704,-0.74 3.704,-0.74 1.547,-1.509 -0.797,-2.448 -1.215,-4.233 -0.306,-1.303 -0.197,-6.402 0.658,-9.538"
     id="path502" />
  <path
     style="fill:none;stroke:#231f20;stroke-width:0.565977;stroke-linecap:butt;stroke-linejoin:miter;stroke-miterlimit:4;stroke-dasharray:none;stroke-opacity:1"
     d="m 244.53351,50.595333 c 0.202,-0.713 2.03,-2.286 0.921,-1.713 l -0.339,-0.115 c -2.186,-2.213 -1.234,-7.984 -1.234,-7.984 0,0 -0.458,-0.578 -0.932,-0.718 -0.474,-0.142 -1.183,0.098 -1.183,0.098 0,0 -2.312,5.366 -5.353,6.042 l -0.344,-0.083 c -0.631,-1.084 0.062,1.224 -0.162,1.932 -0.978,3.099 -3.645,7.448 -4.609,8.38 -1.317,1.276 -3.932,1.037 -3.448,3.147 0,0 0.068,1.942 2.844,2.38 1.005,0.166 2.927,1.473 2.927,1.473 0,0 1.041,0.865 2.15,1.213 0.98,0.314 2.115,0.152 2.36,0.115 0,0 2.323,-0.063 3.255,0.344 2.568,1.136 3.704,-0.74 3.704,-0.74 1.547,-1.509 -0.797,-2.448 -1.215,-4.233 -0.306,-1.303 -0.197,-6.402 0.658,-9.538 z"
     id="path503" />
  <path
     style="fill:#0098c9;fill-opacity:1;fill-rule:nonzero;stroke:none"
     d="m 245.18351,49.991333 c 0.23,-0.26 0.99,-1.396 1.203,-1.806 1.36,-2.642 1.647,-6.59 2.032,-7.803 0.396,-1.213 -6.172,-1.781 -6.172,-1.781 l -0.907,1.156 c -0.406,-0.474 -0.182,-0.02 -0.182,-0.02 l -0.812,-1.402 c 0,0 -6.407,-0.869 -6.355,0.146 0.073,1.39 -0.285,6.005 0.428,8.344 0.391,1.292 1.099,2.032 1.099,2.032 0,0 3.729,-0.73 5.15,-0.595 1.423,0.141 4.516,1.729 4.516,1.729"
     id="path504" />
  <path
     style="fill:none;stroke:#231f20;stroke-width:0.565977;stroke-linecap:butt;stroke-linejoin:miter;stroke-miterlimit:4;stroke-dasharray:none;stroke-opacity:1"
     d="m 245.18351,49.991333 c 0.23,-0.26 0.99,-1.396 1.203,-1.806 1.36,-2.642 1.647,-6.59 2.032,-7.803 0.396,-1.213 -6.172,-1.781 -6.172,-1.781 l -0.907,1.156 c -0.406,-0.474 -0.182,-0.02 -0.182,-0.02 l -0.812,-1.402 c 0,0 -6.407,-0.869 -6.355,0.146 0.073,1.39 -0.285,6.005 0.428,8.344 0.391,1.292 1.099,2.032 1.099,2.032 0,0 3.729,-0.73 5.15,-0.595 1.423,0.141 4.516,1.729 4.516,1.729 z"
     id="path505" />
  <path
     style="fill:none;stroke:#231f20;stroke-width:0.565977;stroke-linecap:round;stroke-linejoin:round;stroke-miterlimit:4;stroke-dasharray:none;stroke-opacity:1"
     d="m 244.39151,40.491333 c -1.186,-1.353 -3.213,-0.593 -3.213,-0.593 -1.64,-0.808 -3.136,-0.213 -3.136,-0.213"
     id="path506" />
  <path
     style="fill:#ffffff;fill-opacity:1;fill-rule:nonzero;stroke:none"
     d="m 289.79851,83.543333 c -0.995,-0.238 -2,0.375 -2.24,1.375 -0.24,1 0.38,2.005 1.375,2.245 1,0.235 2.005,-0.38 2.245,-1.38 0.24,-1 -0.38,-2 -1.38,-2.24"
     id="path507" />
  <path
     style="fill:none;stroke:#231f20;stroke-width:1.33171;stroke-linecap:butt;stroke-linejoin:miter;stroke-miterlimit:4;stroke-dasharray:none;stroke-opacity:1"
     d="m 289.79851,83.543333 c -0.995,-0.238 -2,0.375 -2.24,1.375 -0.24,1 0.38,2.005 1.375,2.245 1,0.235 2.005,-0.38 2.245,-1.38 0.24,-1 -0.38,-2 -1.38,-2.24 z"
     id="path508" />
  <path
     style="fill:none;stroke:#231f20;stroke-width:0.399514;stroke-linecap:butt;stroke-linejoin:miter;stroke-miterlimit:4;stroke-dasharray:none;stroke-opacity:1"
     d="m 252.18351,22.576333 c -23.729,-11.776 -30.229,-0.194 -25.036,6.426"
     id="path509" />
  <path
     style="fill:#231f20;fill-opacity:1;fill-rule:nonzero;stroke:none"
     d="m 227.89151,29.950333 c -0.516,-0.317 -1.234,-0.645 -1.801,-0.755 l 0.957,-0.318 0.538,-0.854 c -0.032,0.578 0.12,1.348 0.306,1.927"
     id="path510" />
  <path
     style="fill:none;stroke:#231f20;stroke-width:0.399514;stroke-linecap:butt;stroke-linejoin:miter;stroke-miterlimit:4;stroke-dasharray:none;stroke-opacity:1"
     d="m 298.49551,22.576333 c -23.729,-11.776 -30.233,-0.194 -25.041,6.426"
     id="path511" />
  <path
     style="fill:#231f20;fill-opacity:1;fill-rule:nonzero;stroke:none"
     d="m 274.19951,29.950333 c -0.516,-0.317 -1.234,-0.645 -1.802,-0.755 l 0.958,-0.318 0.536,-0.854 c -0.03,0.578 0.12,1.348 0.308,1.927"
     id="path512" />
  <path
     style="fill:#231f20;fill-opacity:1;fill-rule:nonzero;stroke:#231f20;stroke-width:0.565977;stroke-linecap:round;stroke-linejoin:round;stroke-miterlimit:4;stroke-dasharray:none;stroke-opacity:1"
     d="m 279.83451,68.257333 c 0,0 1.147,0.652 2.313,0.693 1.162,0.031 2.427,-0.443 2.427,-0.443 l 0.156,-3.292 -4.776,-0.234 z"
     id="path513" />
  <path
     style="fill:#231f20;fill-opacity:1;fill-rule:nonzero;stroke:none"
     d="m 286.02751,50.715333 c 3.563,-0.51 3.015,-2.093 3.448,-6.15 0.484,-4.438 0.515,-9.11 -0.428,-12.271 -1.052,-3.532 -0.634,-3.844 -2.509,-4.235 -1.881,-0.39 -2.057,0.375 -3.027,1.224 -1.12,0.984 0.626,8.135 -0.052,12.834 -0.322,2.208 -2.516,7.281 -1.166,7.812 1.354,0.537 3.734,0.786 3.734,0.786"
     id="path514" />
  <path
     style="fill:none;stroke:#231f20;stroke-width:0.565977;stroke-linecap:butt;stroke-linejoin:miter;stroke-miterlimit:4;stroke-dasharray:none;stroke-opacity:1"
     d="m 286.02751,50.715333 c 3.563,-0.51 3.015,-2.093 3.448,-6.15 0.484,-4.438 0.515,-9.11 -0.428,-12.271 -1.052,-3.532 -0.634,-3.844 -2.509,-4.235 -1.881,-0.39 -2.057,0.375 -3.027,1.224 -1.12,0.984 0.626,8.135 -0.052,12.834 -0.322,2.208 -2.516,7.281 -1.166,7.812 1.354,0.537 3.734,0.786 3.734,0.786 z"
     id="path515" />
  <path
     style="fill:#231f20;fill-opacity:1;fill-rule:nonzero;stroke:none"
     d="m 285.47551,30.049333 c 2.25,0.202 2.906,0.297 2.734,-2.203 -0.042,-0.636 -0.291,-2.396 -0.214,-2.776 0.267,-1.271 0.464,-2.765 -1.421,-9.073 -0.292,-0.984 -0.527,-2.943 -0.813,-4.317 -0.276,-1.328 -2.296,0.03 -2.192,0.557 0.328,1.677 0.172,2.833 0.208,3.457 0.026,0.423 0.204,1.215 -0.11,2.844 -0.806,4.204 0.386,5.552 0.292,6.448 -0.265,2.563 -1.021,4.708 -0.426,5.011 0.962,0.494 1.942,0.052 1.942,0.052"
     id="path516" />
  <path
     style="fill:none;stroke:#231f20;stroke-width:0.565977;stroke-linecap:butt;stroke-linejoin:miter;stroke-miterlimit:4;stroke-dasharray:none;stroke-opacity:1"
     d="m 285.47551,30.049333 c 2.25,0.202 2.906,0.297 2.734,-2.203 -0.042,-0.636 -0.291,-2.396 -0.214,-2.776 0.267,-1.271 0.464,-2.765 -1.421,-9.073 -0.292,-0.984 -0.527,-2.943 -0.813,-4.317 -0.276,-1.328 -2.296,0.03 -2.192,0.557 0.328,1.677 0.172,2.833 0.208,3.457 0.026,0.423 0.204,1.215 -0.11,2.844 -0.806,4.204 0.386,5.552 0.292,6.448 -0.265,2.563 -1.021,4.708 -0.426,5.011 0.962,0.494 1.942,0.052 1.942,0.052 z"
     id="path517" />
  <path
     style="fill:#231f20;fill-opacity:1;fill-rule:nonzero;stroke:none"
     d="m 279.80351,50.445333 c -3.562,-0.599 -2.964,-2.178 -3.292,-6.24 -0.36,-4.443 -0.26,-9.12 0.771,-12.255 1.141,-3.505 0.729,-3.833 2.62,-4.161 1.885,-0.344 2.047,0.421 2.989,1.301 1.094,1.016 -0.844,8.115 -0.292,12.833 0.256,2.215 2.314,7.339 0.948,7.839 -1.364,0.5 -3.744,0.683 -3.744,0.683"
     id="path518" />
  <path
     style="fill:none;stroke:#231f20;stroke-width:0.565977;stroke-linecap:butt;stroke-linejoin:miter;stroke-miterlimit:4;stroke-dasharray:none;stroke-opacity:1"
     d="m 279.80351,50.445333 c -3.562,-0.599 -2.964,-2.178 -3.292,-6.24 -0.36,-4.443 -0.26,-9.12 0.771,-12.255 1.141,-3.505 0.729,-3.833 2.62,-4.161 1.885,-0.344 2.047,0.421 2.989,1.301 1.094,1.016 -0.844,8.115 -0.292,12.833 0.256,2.215 2.314,7.339 0.948,7.839 -1.364,0.5 -3.744,0.683 -3.744,0.683 z"
     id="path519" />
  <path
     style="fill:#0098c9;fill-opacity:1;fill-rule:nonzero;stroke:none"
     d="m 283.43351,43.366333 c 0.496,0.027 1.084,0.485 1.084,0.485 0,0 0.421,5.823 3.073,7.463 l 0.359,0.037 c 0.942,-0.818 -0.464,1.13 -0.49,1.875 -0.093,3.255 1.006,8.235 1.604,9.427 0.828,1.63 3.38,2.27 2.23,4.104 0,0 -0.708,1.813 -3.475,1.324 -1,-0.188 -3.244,0.426 -3.244,0.426 0.016,-0.041 0.025,-0.084 0.025,-0.12 0.063,-1.254 -0.973,-2.016 -2.306,-2.104 l 0.073,0.011 c -1.339,-0.047 -2.437,0.672 -2.495,1.864 -0.005,0.041 0,0.084 0.004,0.125 0,0 -2.17,-0.822 -3.181,-0.74 -2.808,0.224 -3.256,-1.916 -3.256,-1.916 -0.968,-1.937 1.557,-2.052 2.532,-3.604 0.713,-1.13 2.287,-5.98 2.505,-9.229 0.052,-0.74 -1.172,-2.823 -0.302,-1.923 l 0.354,0.011 c 2.796,-1.375 3.782,-7.135 3.782,-7.135 0,0 0.629,-0.401 1.124,-0.381"
     id="path520" />
  <path
     style="fill:none;stroke:#231f20;stroke-width:0.565977;stroke-linecap:butt;stroke-linejoin:miter;stroke-miterlimit:4;stroke-dasharray:none;stroke-opacity:1"
     d="m 283.43351,43.366333 c 0.496,0.027 1.084,0.485 1.084,0.485 0,0 0.421,5.823 3.073,7.463 l 0.359,0.037 c 0.942,-0.818 -0.464,1.13 -0.49,1.875 -0.093,3.255 1.006,8.235 1.604,9.427 0.828,1.63 3.38,2.27 2.23,4.104 0,0 -0.708,1.813 -3.475,1.324 -1,-0.188 -3.244,0.426 -3.244,0.426 0.016,-0.041 0.025,-0.084 0.025,-0.12 0.063,-1.254 -0.973,-2.016 -2.306,-2.104 l 0.073,0.011 c -1.339,-0.047 -2.437,0.672 -2.495,1.864 -0.005,0.041 0,0.084 0.004,0.125 0,0 -2.17,-0.822 -3.181,-0.74 -2.808,0.224 -3.256,-1.916 -3.256,-1.916 -0.968,-1.937 1.557,-2.052 2.532,-3.604 0.713,-1.13 2.287,-5.98 2.505,-9.229 0.052,-0.74 -1.172,-2.823 -0.302,-1.923 l 0.354,0.011 c 2.796,-1.375 3.782,-7.135 3.782,-7.135 0,0 0.629,-0.401 1.124,-0.381 z"
     id="path521" />
  <path
     style="fill:#ffffff;fill-opacity:1;fill-rule:nonzero;stroke:none"
     d="m 279.25151,73.633333 c -0.401,-2.792 0.938,-5.303 2.995,-5.595 2.052,-0.296 4.047,1.735 4.448,4.527 0.4,2.801 -0.943,5.306 -3,5.598 -2.052,0.298 -4.047,-1.734 -4.443,-4.53"
     id="path522" />
  <path
     style="fill:none;stroke:#231f20;stroke-width:0.565977;stroke-linecap:butt;stroke-linejoin:miter;stroke-miterlimit:4;stroke-dasharray:none;stroke-opacity:1"
     d="m 279.25151,73.633333 c -0.401,-2.792 0.938,-5.303 2.995,-5.595 2.052,-0.296 4.047,1.735 4.448,4.527 0.4,2.801 -0.943,5.306 -3,5.598 -2.052,0.298 -4.047,-1.734 -4.443,-4.53 z"
     id="path523" />
  <path
     style="fill:#231f20;fill-opacity:1;fill-rule:nonzero;stroke:none"
     d="m 280.89151,29.814333 c -2.26,0.136 -2.916,0.204 -2.672,-2.291 0.068,-0.63 0.38,-2.376 0.308,-2.766 -0.218,-1.282 -0.37,-2.781 1.719,-9.02 0.328,-0.969 0.629,-2.923 0.959,-4.281 0.317,-1.323 2.296,0.093 2.176,0.614 -0.391,1.672 -0.266,2.834 -0.323,3.454 -0.047,0.426 -0.249,1.208 0.016,2.848 0.667,4.229 -0.573,5.537 -0.505,6.433 0.182,2.572 0.869,4.744 0.26,5.02 -0.979,0.464 -1.938,-0.011 -1.938,-0.011"
     id="path524" />
  <path
     style="fill:none;stroke:#231f20;stroke-width:0.565977;stroke-linecap:butt;stroke-linejoin:miter;stroke-miterlimit:4;stroke-dasharray:none;stroke-opacity:1"
     d="m 280.89151,29.814333 c -2.26,0.136 -2.916,0.204 -2.672,-2.291 0.068,-0.63 0.38,-2.376 0.308,-2.766 -0.218,-1.282 -0.37,-2.781 1.719,-9.02 0.328,-0.969 0.629,-2.923 0.959,-4.281 0.317,-1.323 2.296,0.093 2.176,0.614 -0.391,1.672 -0.266,2.834 -0.323,3.454 -0.047,0.426 -0.249,1.208 0.016,2.848 0.667,4.229 -0.573,5.537 -0.505,6.433 0.182,2.572 0.869,4.744 0.26,5.02 -0.979,0.464 -1.938,-0.011 -1.938,-0.011 z"
     id="path525" />
  <path
     style="fill:#0098c9;fill-opacity:1;fill-rule:nonzero;stroke:none"
     d="m 277.95951,50.819333 c -0.202,-0.286 -0.817,-1.505 -0.984,-1.937 -1.026,-2.792 -0.849,-6.735 -1.094,-7.984 -0.234,-1.256 6.349,-1.041 6.349,-1.041 l 0.432,1.91 c 0.459,-0.421 0.985,0.011 0.985,0.011 l 0.5,-1.953 c 0,0 6.463,-0.099 6.291,0.89 -0.239,1.375 -0.432,6 -1.416,8.246 -0.541,1.229 -1.333,1.885 -1.333,1.885 0,0 -3.615,-1.172 -5.047,-1.204 -1.423,-0.031 -4.683,1.177 -4.683,1.177"
     id="path526" />
  <path
     style="fill:none;stroke:#231f20;stroke-width:0.565977;stroke-linecap:butt;stroke-linejoin:miter;stroke-miterlimit:4;stroke-dasharray:none;stroke-opacity:1"
     d="m 277.95951,50.819333 c -0.202,-0.286 -0.817,-1.505 -0.984,-1.937 -1.026,-2.792 -0.849,-6.735 -1.094,-7.984 -0.234,-1.256 6.349,-1.041 6.349,-1.041 l 0.432,1.91 c 0.459,-0.421 0.985,0.011 0.985,0.011 l 0.5,-1.953 c 0,0 6.463,-0.099 6.291,0.89 -0.239,1.375 -0.432,6 -1.416,8.246 -0.541,1.229 -1.333,1.885 -1.333,1.885 0,0 -3.615,-1.172 -5.047,-1.204 -1.423,-0.031 -4.683,1.177 -4.683,1.177 z"
     id="path527" />
  <path
     style="fill:#231f20;fill-opacity:1;fill-rule:nonzero;stroke:none"
     d="m 280.59051,7.9923329 c -0.308,0.589 0.859,1.969 0.828,3.9370001 -0.005,0.401 0.181,0.729 0.307,1.079 0.521,1.416 1.77,2.41 2.802,-1.271 0.14,-0.511 -0.177,-2.5890001 0.094,-3.3230001 0.645,-1.745 -0.875,-4.709 -1.375,-4.584 -1.095,0.255 -2.656,4.162 -2.656,4.162"
     id="path528" />
  <path
     style="fill:none;stroke:#231f20;stroke-width:0.644548;stroke-linecap:round;stroke-linejoin:round;stroke-miterlimit:4;stroke-dasharray:none;stroke-opacity:1"
     d="m 280.59051,7.9923329 c -0.308,0.589 0.859,1.969 0.828,3.9370001 -0.005,0.401 0.181,0.729 0.307,1.079 0.521,1.416 1.77,2.41 2.802,-1.271 0.14,-0.511 -0.177,-2.5890001 0.094,-3.3230001 0.645,-1.745 -0.875,-4.709 -1.375,-4.584 -1.095,0.255 -2.656,4.162 -2.656,4.162 z"
     id="path529" />
  <path
     style="fill:#231f20;fill-opacity:1;fill-rule:nonzero;stroke:none"
     d="m 286.73051,8.0183329 c 0.317,0.583 -0.839,1.968 -0.792,3.9380001 0.011,0.405 -0.177,0.729 -0.296,1.082 -0.505,1.428 -1.756,2.428 -2.813,-1.249 -0.146,-0.505 0.156,-2.5840001 -0.12,-3.3170001 -0.667,-1.74 0.829,-4.715 1.333,-4.595 1.089,0.245 2.688,4.141 2.688,4.141"
     id="path530" />
  <path
     style="fill:none;stroke:#231f20;stroke-width:0.644548;stroke-linecap:round;stroke-linejoin:round;stroke-miterlimit:4;stroke-dasharray:none;stroke-opacity:1"
     d="m 286.73051,8.0183329 c 0.317,0.583 -0.839,1.968 -0.792,3.9380001 0.011,0.405 -0.177,0.729 -0.296,1.082 -0.505,1.428 -1.756,2.428 -2.813,-1.249 -0.146,-0.505 0.156,-2.5840001 -0.12,-3.3170001 -0.667,-1.74 0.829,-4.715 1.333,-4.595 1.089,0.245 2.688,4.141 2.688,4.141 z"
     id="path531" />
  <path
     style="fill:#231f20;fill-opacity:1;fill-rule:nonzero;stroke:none"
     d="m 290.37551,83.429333 c 0.554,-0.334 1.158,-2.187 2.199,-3.406 0.708,-0.828 1.495,-3.464 2.26,-4.224 0.699,-0.704 0.953,-1.1 0.276,-2.037 -0.391,-0.552 -1.505,-1.364 -1.943,-1.088 -1.005,0.645 -1.53,1.421 -1.937,2.407 -0.459,1.129 -1.432,4.29 -1.557,4.894 -0.312,1.496 -0.87,1.964 -0.99,2.355 -0.224,0.724 -0.01,0.989 0.438,1.24 0.833,0.468 1.254,-0.141 1.254,-0.141"
     id="path532" />
  <path
     style="fill:none;stroke:#231f20;stroke-width:0.565977;stroke-linecap:butt;stroke-linejoin:miter;stroke-miterlimit:4;stroke-dasharray:none;stroke-opacity:1"
     d="m 290.37551,83.429333 c 0.554,-0.334 1.158,-2.187 2.199,-3.406 0.708,-0.828 1.495,-3.464 2.26,-4.224 0.699,-0.704 0.953,-1.1 0.276,-2.037 -0.391,-0.552 -1.505,-1.364 -1.943,-1.088 -1.005,0.645 -1.53,1.421 -1.937,2.407 -0.459,1.129 -1.432,4.29 -1.557,4.894 -0.312,1.496 -0.87,1.964 -0.99,2.355 -0.224,0.724 -0.01,0.989 0.438,1.24 0.833,0.468 1.254,-0.141 1.254,-0.141 z"
     id="path533" />
  <path
     style="fill:#231f20;fill-opacity:1;fill-rule:nonzero;stroke:none"
     d="m 294.77751,74.923333 c 1.177,-0.546 -0.011,-2.197 -0.255,-2.686 -0.245,-0.48 -0.787,-1.943 -1.063,-3.131 -0.276,-1.197 -1.136,-2.568 -1.656,-4.833 -0.281,-1.192 -1.302,-2.178 -3.021,-1.698 -1.688,0.474 -2.057,1.599 -1.5,2.995 0.547,1.391 1.661,2.457 2.313,3.823 0.656,1.358 1.198,2.812 1.567,3.964 0.423,1.312 1.125,1.806 1.595,1.853 1.197,0.109 2.02,-0.287 2.02,-0.287"
     id="path534" />
  <path
     style="fill:none;stroke:#231f20;stroke-width:0.565977;stroke-linecap:butt;stroke-linejoin:miter;stroke-miterlimit:4;stroke-dasharray:none;stroke-opacity:1"
     d="m 294.77751,74.923333 c 1.177,-0.546 -0.011,-2.197 -0.255,-2.686 -0.245,-0.48 -0.787,-1.943 -1.063,-3.131 -0.276,-1.197 -1.136,-2.568 -1.656,-4.833 -0.281,-1.192 -1.302,-2.178 -3.021,-1.698 -1.688,0.474 -2.057,1.599 -1.5,2.995 0.547,1.391 1.661,2.457 2.313,3.823 0.656,1.358 1.198,2.812 1.567,3.964 0.423,1.312 1.125,1.806 1.595,1.853 1.197,0.109 2.02,-0.287 2.02,-0.287 z"
     id="path535" />
  <path
     style="fill:#231f20;fill-opacity:1;fill-rule:nonzero;stroke:none"
     d="m 270.42351,83.174333 c 0.228,-0.604 -0.438,-2.427 -0.37,-4.036 0.052,-1.089 -0.959,-3.641 -0.828,-4.715 0.12,-0.989 0.073,-1.448 -1.031,-1.776 -0.656,-0.197 -2.037,-0.145 -2.213,0.339 -0.386,1.12 -0.319,2.073 -0.032,3.099 0.338,1.162 1.521,4.261 1.792,4.808 0.677,1.364 0.525,2.088 0.672,2.458 0.265,0.719 0.614,0.787 1.104,0.708 0.953,-0.145 0.906,-0.885 0.906,-0.885"
     id="path536" />
  <path
     style="fill:none;stroke:#231f20;stroke-width:0.565977;stroke-linecap:butt;stroke-linejoin:miter;stroke-miterlimit:4;stroke-dasharray:none;stroke-opacity:1"
     d="m 270.42351,83.174333 c 0.228,-0.604 -0.438,-2.427 -0.37,-4.036 0.052,-1.089 -0.959,-3.641 -0.828,-4.715 0.12,-0.989 0.073,-1.448 -1.031,-1.776 -0.656,-0.197 -2.037,-0.145 -2.213,0.339 -0.386,1.12 -0.319,2.073 -0.032,3.099 0.338,1.162 1.521,4.261 1.792,4.808 0.677,1.364 0.525,2.088 0.672,2.458 0.265,0.719 0.614,0.787 1.104,0.708 0.953,-0.145 0.906,-0.885 0.906,-0.885 z"
     id="path537" />
  <path
     style="fill:#231f20;fill-opacity:1;fill-rule:nonzero;stroke:none"
     d="m 267.52751,74.903333 c 0.979,0.859 2.011,-0.896 2.354,-1.313 0.349,-0.421 1.464,-1.505 2.437,-2.239 0.985,-0.734 1.891,-2.068 3.751,-3.469 0.978,-0.74 1.469,-2.068 0.338,-3.437 -1.114,-1.36 -2.297,-1.246 -3.349,-0.172 -1.047,1.068 -1.583,2.51 -2.568,3.661 -0.973,1.147 -2.083,2.229 -2.989,3.037 -1.031,0.922 -1.203,1.76 -1.052,2.208 0.38,1.135 1.078,1.724 1.078,1.724"
     id="path538" />
  <path
     style="fill:none;stroke:#231f20;stroke-width:0.565977;stroke-linecap:butt;stroke-linejoin:miter;stroke-miterlimit:4;stroke-dasharray:none;stroke-opacity:1"
     d="m 267.52751,74.903333 c 0.979,0.859 2.011,-0.896 2.354,-1.313 0.349,-0.421 1.464,-1.505 2.437,-2.239 0.985,-0.734 1.891,-2.068 3.751,-3.469 0.978,-0.74 1.469,-2.068 0.338,-3.437 -1.114,-1.36 -2.297,-1.246 -3.349,-0.172 -1.047,1.068 -1.583,2.51 -2.568,3.661 -0.973,1.147 -2.083,2.229 -2.989,3.037 -1.031,0.922 -1.203,1.76 -1.052,2.208 0.38,1.135 1.078,1.724 1.078,1.724 z"
     id="path539" />
  <path
     style="fill:#231f20;fill-opacity:1;fill-rule:nonzero;stroke:none"
     d="m 270.89751,89.357333 c -0.479,-0.563 -1.599,-3.61 -1.823,-4.319 -0.203,-0.629 -0.891,-1.567 -0.047,-2.359 0.344,-0.322 1.058,-0.552 1.38,-0.568 0.26,-0.005 0.454,0.26 0.536,0.646 0.147,0.652 -0.068,0.896 0.142,2.152 0,0 0,0.306 -0.032,0.858 -0.072,1.626 -0.192,0.902 0.218,3.292 0.038,0.162 -0.114,0.317 -0.229,0.328 -0.181,0.016 -0.145,-0.03 -0.145,-0.03"
     id="path540" />
  <path
     style="fill:none;stroke:#231f20;stroke-width:0.565977;stroke-linecap:round;stroke-linejoin:round;stroke-miterlimit:4;stroke-dasharray:none;stroke-opacity:1"
     d="m 270.89751,89.357333 c -0.479,-0.563 -1.599,-3.61 -1.823,-4.319 -0.203,-0.629 -0.891,-1.567 -0.047,-2.359 0.344,-0.322 1.058,-0.552 1.38,-0.568 0.26,-0.005 0.454,0.26 0.536,0.646 0.147,0.652 -0.068,0.896 0.142,2.152 0,0 0,0.306 -0.032,0.858 -0.072,1.626 -0.192,0.902 0.218,3.292 0.038,0.162 -0.114,0.317 -0.229,0.328 -0.181,0.016 -0.145,-0.03 -0.145,-0.03 z"
     id="path541" />
  <path
     style="fill:#231f20;fill-opacity:1;fill-rule:nonzero;stroke:none"
     d="m 328.52751,8.1383329 c 1.109,0.771 0.869,1.739 0.025,2.3430001 -0.244,0.183 -0.27,0.595 -0.53,0.756 -0.61,0.359 -2.282,-0.12 -2.24,-1.6200001 0.005,-0.104 -0.219,-0.896 -0.298,-1.511 -0.14,-1.202 0.152,-3.682 2.282,-5.333 1.01,-0.781 1.286,-0.041 0.98,0.401 -0.995,1.391 -0.814,1.708 -0.932,2.172 -0.443,1.563 0.713,2.792 0.713,2.792"
     id="path542" />
  <path
     style="fill:none;stroke:#231f20;stroke-width:0.332927;stroke-linecap:butt;stroke-linejoin:miter;stroke-miterlimit:4;stroke-dasharray:none;stroke-opacity:1"
     d="m 328.52751,8.1383329 c 1.109,0.771 0.869,1.739 0.025,2.3430001 -0.244,0.183 -0.27,0.595 -0.53,0.756 -0.61,0.359 -2.282,-0.12 -2.24,-1.6200001 0.005,-0.104 -0.219,-0.896 -0.298,-1.511 -0.14,-1.202 0.152,-3.682 2.282,-5.333 1.01,-0.781 1.286,-0.041 0.98,0.401 -0.995,1.391 -0.814,1.708 -0.932,2.172 -0.443,1.563 0.713,2.792 0.713,2.792 z"
     id="path543" />
</svg>
