<?xml version="1.0" encoding="UTF-8" standalone="no"?>
<!-- Created with Inkscape (http://www.inkscape.org/) -->

<svg
   version="1.1"
   id="svg1"
   width="313.90091"
   height="119.75243"
   viewBox="0 0 313.90089 119.75243"
   sodipodi:docname="cell.svg"
   xmlns:inkscape="http://www.inkscape.org/namespaces/inkscape"
   xmlns:sodipodi="http://sodipodi.sourceforge.net/DTD/sodipodi-0.dtd"
   xmlns="http://www.w3.org/2000/svg"
   xmlns:svg="http://www.w3.org/2000/svg">
  <sodipodi:namedview
     id="namedview1"
     pagecolor="#ffffff"
     bordercolor="#000000"
     borderopacity="0.25"
     inkscape:showpageshadow="2"
     inkscape:pageopacity="0.0"
     inkscape:pagecheckerboard="0"
     inkscape:deskcolor="#d1d1d1">
    <inkscape:page
       x="0"
       y="0"
       inkscape:label="1"
       id="page1"
       width="313.90088"
       height="119.75243"
       margin="0"
       bleed="0" />
  </sodipodi:namedview>
  <defs
     id="defs1" />
  <path
     style="fill:#231f20;fill-opacity:1;fill-rule:nonzero;stroke:none"
     d="m 19.188841,12.586334 c 1.218,0.588 1.136,1.572 0.406,2.307 -0.213,0.224 -0.177,0.641 -0.406,0.828 -0.536,0.458 -2.271,0.261 -2.468,-1.23 -0.016,-0.104 -0.36,-0.842 -0.538,-1.442 -0.338,-1.162 -0.448,-3.6559999 1.396,-5.6289999 0.86,-0.938 1.256,-0.251 1.022,0.238 -0.756,1.532 -0.522,1.819 -0.574,2.292 -0.177,1.6089999 1.162,2.6359999 1.162,2.6359999"
     id="path1215" />
  <path
     style="fill:none;stroke:#231f20;stroke-width:0.332927;stroke-linecap:butt;stroke-linejoin:miter;stroke-miterlimit:4;stroke-dasharray:none;stroke-opacity:1"
     d="m 19.188841,12.586334 c 1.218,0.588 1.136,1.572 0.406,2.307 -0.213,0.224 -0.177,0.641 -0.406,0.828 -0.536,0.458 -2.271,0.261 -2.468,-1.23 -0.016,-0.104 -0.36,-0.842 -0.538,-1.442 -0.338,-1.162 -0.448,-3.6559999 1.396,-5.6289999 0.86,-0.938 1.256,-0.251 1.022,0.238 -0.756,1.532 -0.522,1.819 -0.574,2.292 -0.177,1.6089999 1.162,2.6359999 1.162,2.6359999 z"
     id="path1216" />
  <path
     style="fill:#231f20;fill-opacity:1;fill-rule:nonzero;stroke:none"
     d="m 21.396841,31.215334 c 2.256,-0.176 2.672,-0.509 2.662,-1.468 -0.005,-0.641 0.214,-1.234 0.228,-1.62 0.054,-1.297 -0.4,-3.5 -3.296,-9.412 -0.656,-1.338 -1.568,-3.224 -1.874,-4.03 -0.496,-1.26 -2.267,0.41 -2.074,0.912 0.604,1.604 0.886,2.754 1.026,3.358 0.094,0.422 0.354,1.131 0.51,2.792 0.24,2.516 0.006,4.058 0.448,6.13 0.203,0.958 -0.249,1.813 0.432,2.652 0.683,0.844 1.938,0.686 1.938,0.686"
     id="path1217" />
  <path
     style="fill:none;stroke:#231f20;stroke-width:0.565977;stroke-linecap:butt;stroke-linejoin:miter;stroke-miterlimit:4;stroke-dasharray:none;stroke-opacity:1"
     d="m 21.396841,31.215334 c 2.256,-0.176 2.672,-0.509 2.662,-1.468 -0.005,-0.641 0.214,-1.234 0.228,-1.62 0.054,-1.297 -0.4,-3.5 -3.296,-9.412 -0.656,-1.338 -1.568,-3.224 -1.874,-4.03 -0.496,-1.26 -2.267,0.41 -2.074,0.912 0.604,1.604 0.886,2.754 1.026,3.358 0.094,0.422 0.354,1.131 0.51,2.792 0.24,2.516 0.006,4.058 0.448,6.13 0.203,0.958 -0.249,1.813 0.432,2.652 0.683,0.844 1.938,0.686 1.938,0.686 z"
     id="path1218" />
  <path
     style="fill:#0098c9;fill-opacity:1;fill-rule:nonzero;stroke:none"
     d="m 29.652841,56.393334 c -0.552,-3.083 -0.339,-3.807 -0.131,-4.708 1.297,-5.631 -1.495,-6.162 -4.192,-5.142 -3.177,1.183 -4.344,1.548 -2.652,7.615 0.485,1.688 1.448,8.385 1.448,8.385 0.021,2.448 1.344,4.824 2.672,5.418 1.407,0.62 0.896,0.27 2.297,0.614 1.344,0.323 3.432,-0.308 3.922,-1.448 0.474,-1.084 -0.495,-2.432 -1.646,-4.568 -0.906,-1.686 -1.718,-6.166 -1.718,-6.166"
     id="path1219" />
  <path
     style="fill:none;stroke:#231f20;stroke-width:0.565977;stroke-linecap:butt;stroke-linejoin:miter;stroke-miterlimit:4;stroke-dasharray:none;stroke-opacity:1"
     d="m 29.652841,56.393334 c -0.552,-3.083 -0.339,-3.807 -0.131,-4.708 1.297,-5.631 -1.495,-6.162 -4.192,-5.142 -3.177,1.183 -4.344,1.548 -2.652,7.615 0.485,1.688 1.448,8.385 1.448,8.385 0.021,2.448 1.344,4.824 2.672,5.418 1.407,0.62 0.896,0.27 2.297,0.614 1.344,0.323 3.432,-0.308 3.922,-1.448 0.474,-1.084 -0.495,-2.432 -1.646,-4.568 -0.906,-1.686 -1.718,-6.166 -1.718,-6.166 z"
     id="path1220" />
  <path
     style="fill:#ffffff;fill-opacity:1;fill-rule:nonzero;stroke:none"
     d="m 32.964841,76.023334 c 0.177,0.172 -0.37,1.178 0.062,1.459 0.438,0.291 1.022,-0.24 2.995,0.031 l 0.021,0.005 c 1.438,0.244 2.771,-0.125 3.542,-1.115 1.27,-1.641 0.494,-4.374 -1.74,-6.104 -2.234,-1.729 -5.072,-1.797 -6.348,-0.156 -1.219,1.567 -0.547,4.146 1.468,5.88"
     id="path1221" />
  <path
     style="fill:none;stroke:#231f20;stroke-width:0.565977;stroke-linecap:butt;stroke-linejoin:miter;stroke-miterlimit:4;stroke-dasharray:none;stroke-opacity:1"
     d="m 32.964841,76.023334 c 0.177,0.172 -0.37,1.178 0.062,1.459 0.438,0.291 1.022,-0.24 2.995,0.031 l 0.021,0.005 c 1.438,0.244 2.771,-0.125 3.542,-1.115 1.27,-1.641 0.494,-4.374 -1.74,-6.104 -2.234,-1.729 -5.072,-1.797 -6.348,-0.156 -1.219,1.567 -0.547,4.146 1.468,5.88 z"
     id="path1222" />
  <path
     style="fill:#231f20;fill-opacity:1;fill-rule:nonzero;stroke:none"
     d="m 21.777841,28.767334 c -4.011,-0.046 -2.219,3.626 -2.229,4.1 -0.074,5.015 0.041,5.375 0.249,9.192 0.297,5.516 1.349,9.251 4.615,10.022 2.208,0.516 3.713,-0.147 4.469,-1.224 0.828,-1.204 1.235,-4.355 -0.989,-6.199 l -0.548,-1.624 c -0.228,-1.141 -0.348,-1.704 -0.416,-2.272 -0.12,-0.995 -0.303,-2.056 -0.636,-3.984 -0.604,-3.427 -2.354,-6.839 -2.354,-6.839 -0.245,-1.224 -2.161,-1.172 -2.161,-1.172"
     id="path1223" />
  <path
     style="fill:none;stroke:#231f20;stroke-width:0.565977;stroke-linecap:butt;stroke-linejoin:miter;stroke-miterlimit:4;stroke-dasharray:none;stroke-opacity:1"
     d="m 21.777841,28.767334 c -4.011,-0.046 -2.219,3.626 -2.229,4.1 -0.074,5.015 0.041,5.375 0.249,9.192 0.297,5.516 1.349,9.251 4.615,10.022 2.208,0.516 3.713,-0.147 4.469,-1.224 0.828,-1.204 1.235,-4.355 -0.989,-6.199 l -0.548,-1.624 c -0.228,-1.141 -0.348,-1.704 -0.416,-2.272 -0.12,-0.995 -0.303,-2.056 -0.636,-3.984 -0.604,-3.427 -2.354,-6.839 -2.354,-6.839 -0.245,-1.224 -2.161,-1.172 -2.161,-1.172 z"
     id="path1224" />
  <path
     style="fill:#0098c9;fill-opacity:1;fill-rule:nonzero;stroke:none"
     d="m 27.225841,44.387334 -7.568,1.932 c 0.197,0.62 0.416,1.188 0.645,1.724 0.006,0.084 0.011,0.163 0.006,0.235 -0.052,0.813 0.406,1.245 1.197,1.928 0.923,1.244 2.057,1.989 3.527,2.083 2.265,0.14 3.636,-0.76 4.202,-1.948 0.615,-1.328 0.495,-4.506 -2.009,-5.954"
     id="path1225" />
  <path
     style="fill:none;stroke:#231f20;stroke-width:0.565977;stroke-linecap:butt;stroke-linejoin:miter;stroke-miterlimit:4;stroke-dasharray:none;stroke-opacity:1"
     d="m 27.225841,44.387334 -7.568,1.932 c 0.197,0.62 0.416,1.188 0.645,1.724 0.006,0.084 0.011,0.163 0.006,0.235 -0.052,0.813 0.406,1.245 1.197,1.928 0.923,1.244 2.057,1.989 3.527,2.083 2.265,0.14 3.636,-0.76 4.202,-1.948 0.615,-1.328 0.495,-4.506 -2.009,-5.954 z"
     id="path1226" />
  <path
     style="fill:#231f20;fill-opacity:1;fill-rule:nonzero;stroke:none"
     d="m 23.001841,84.070334 c -0.193,-0.615 0.588,-2.396 0.615,-4.005 0.014,-1.088 1.186,-3.574 1.124,-4.656 -0.063,-0.99 0.01,-1.454 1.13,-1.708 0.667,-0.152 2.047,-0.022 2.183,0.473 0.323,1.145 0.203,2.089 -0.157,3.093 -0.406,1.147 -1.776,4.158 -2.083,4.688 -0.76,1.323 -0.651,2.047 -0.817,2.418 -0.314,0.697 -0.662,0.744 -1.152,0.64 -0.938,-0.208 -0.843,-0.943 -0.843,-0.943"
     id="path1227" />
  <path
     style="fill:none;stroke:#231f20;stroke-width:0.565977;stroke-linecap:butt;stroke-linejoin:miter;stroke-miterlimit:4;stroke-dasharray:none;stroke-opacity:1"
     d="m 23.001841,84.070334 c -0.193,-0.615 0.588,-2.396 0.615,-4.005 0.014,-1.088 1.186,-3.574 1.124,-4.656 -0.063,-0.99 0.01,-1.454 1.13,-1.708 0.667,-0.152 2.047,-0.022 2.183,0.473 0.323,1.145 0.203,2.089 -0.157,3.093 -0.406,1.147 -1.776,4.158 -2.083,4.688 -0.76,1.323 -0.651,2.047 -0.817,2.418 -0.314,0.697 -0.662,0.744 -1.152,0.64 -0.938,-0.208 -0.843,-0.943 -0.843,-0.943 z"
     id="path1228" />
  <path
     style="fill:#231f20;fill-opacity:1;fill-rule:nonzero;stroke:none"
     d="m 25.406841,75.335334 c -1.202,-0.478 -0.114,-2.197 0.099,-2.697 0.215,-0.495 0.672,-1.985 0.876,-3.188 0.213,-1.208 0.989,-2.631 1.385,-4.921 0.208,-1.204 1.172,-2.246 2.907,-1.866 1.713,0.376 2.151,1.48 1.681,2.902 -0.473,1.417 -1.516,2.552 -2.093,3.948 -0.579,1.396 -1.036,2.88 -1.339,4.052 -0.344,1.338 -1.016,1.869 -1.484,1.942 -1.182,0.183 -2.032,-0.172 -2.032,-0.172"
     id="path1229" />
  <path
     style="fill:none;stroke:#231f20;stroke-width:0.565977;stroke-linecap:butt;stroke-linejoin:miter;stroke-miterlimit:4;stroke-dasharray:none;stroke-opacity:1"
     d="m 25.406841,75.335334 c -1.202,-0.478 -0.114,-2.197 0.099,-2.697 0.215,-0.495 0.672,-1.985 0.876,-3.188 0.213,-1.208 0.989,-2.631 1.385,-4.921 0.208,-1.204 1.172,-2.246 2.907,-1.866 1.713,0.376 2.151,1.48 1.681,2.902 -0.473,1.417 -1.516,2.552 -2.093,3.948 -0.579,1.396 -1.036,2.88 -1.339,4.052 -0.344,1.338 -1.016,1.869 -1.484,1.942 -1.182,0.183 -2.032,-0.172 -2.032,-0.172 z"
     id="path1230" />
  <path
     style="fill:#ffffff;fill-opacity:1;fill-rule:nonzero;stroke:none"
     d="m 24.182841,86.356334 c 0.584,-0.843 0.371,-2 -0.473,-2.589 -0.839,-0.582 -2,-0.374 -2.584,0.47 -0.588,0.843 -0.375,2.005 0.469,2.588 0.844,0.589 2.006,0.376 2.588,-0.469"
     id="path1231" />
  <path
     style="fill:none;stroke:#231f20;stroke-width:1.33171;stroke-linecap:butt;stroke-linejoin:miter;stroke-miterlimit:4;stroke-dasharray:none;stroke-opacity:1"
     d="m 24.182841,86.356334 c 0.584,-0.843 0.371,-2 -0.473,-2.589 -0.839,-0.582 -2,-0.374 -2.584,0.47 -0.588,0.843 -0.375,2.005 0.469,2.588 0.844,0.589 2.006,0.376 2.588,-0.469 z"
     id="path1232" />
  <path
     style="fill:#231f20;fill-opacity:1;fill-rule:nonzero;stroke:none"
     d="m 61.980841,53.658334 c 1.317,0.324 1.432,1.303 0.869,2.177 -0.167,0.256 -0.041,0.656 -0.229,0.896 -0.432,0.552 -2.171,0.708 -2.671,-0.708 -0.037,-0.098 -0.521,-0.756 -0.813,-1.302 -0.574,-1.072 -1.187,-3.49 0.213,-5.796 0.657,-1.095 1.183,-0.5 1.047,0.025 -0.422,1.651 -0.135,1.885 -0.088,2.36 0.156,1.615 1.672,2.348 1.672,2.348"
     id="path1233" />
  <path
     style="fill:none;stroke:#231f20;stroke-width:0.332927;stroke-linecap:butt;stroke-linejoin:miter;stroke-miterlimit:4;stroke-dasharray:none;stroke-opacity:1"
     d="m 61.980841,53.658334 c 1.317,0.324 1.432,1.303 0.869,2.177 -0.167,0.256 -0.041,0.656 -0.229,0.896 -0.432,0.552 -2.171,0.708 -2.671,-0.708 -0.037,-0.098 -0.521,-0.756 -0.813,-1.302 -0.574,-1.072 -1.187,-3.49 0.213,-5.796 0.657,-1.095 1.183,-0.5 1.047,0.025 -0.422,1.651 -0.135,1.885 -0.088,2.36 0.156,1.615 1.672,2.348 1.672,2.348 z"
     id="path1234" />
  <path
     style="fill:#231f20;fill-opacity:1;fill-rule:nonzero;stroke:none"
     d="m 67.938841,71.439334 c 2.172,-0.629 2.515,-1.036 2.307,-1.978 -0.13,-0.626 -0.047,-1.251 -0.11,-1.631 -0.213,-1.281 -1.098,-3.344 -5.14,-8.541 -0.917,-1.178 -2.193,-2.834 -2.661,-3.563 -0.74,-1.135 -2.136,0.86 -1.844,1.313 0.916,1.447 1.432,2.515 1.687,3.083 0.183,0.396 0.584,1.036 1.073,2.625 0.751,2.416 0.828,3.968 1.693,5.911 0.391,0.896 0.119,1.824 0.958,2.505 0.838,0.694 2.037,0.276 2.037,0.276"
     id="path1235" />
  <path
     style="fill:none;stroke:#231f20;stroke-width:0.565977;stroke-linecap:butt;stroke-linejoin:miter;stroke-miterlimit:4;stroke-dasharray:none;stroke-opacity:1"
     d="m 67.938841,71.439334 c 2.172,-0.629 2.515,-1.036 2.307,-1.978 -0.13,-0.626 -0.047,-1.251 -0.11,-1.631 -0.213,-1.281 -1.098,-3.344 -5.14,-8.541 -0.917,-1.178 -2.193,-2.834 -2.661,-3.563 -0.74,-1.135 -2.136,0.86 -1.844,1.313 0.916,1.447 1.432,2.515 1.687,3.083 0.183,0.396 0.584,1.036 1.073,2.625 0.751,2.416 0.828,3.968 1.693,5.911 0.391,0.896 0.119,1.824 0.958,2.505 0.838,0.694 2.037,0.276 2.037,0.276 z"
     id="path1236" />
  <path
     style="fill:#0098c9;fill-opacity:1;fill-rule:nonzero;stroke:none"
     d="m 76.083841,96.805334 c 0.74,-3.047 1.23,-3.621 1.787,-4.355 3.459,-4.631 1.125,-6.244 -1.755,-6.407 -3.39,-0.197 -4.6,-0.333 -5.5,5.901 -0.25,1.73 -2.078,8.250996 -2.078,8.250996 -0.964,2.249 -0.714,4.958 0.265,6.036 1.032,1.136 0.703,0.61 1.849,1.489 1.094,0.845 3.266,1.105 4.172,0.266 0.875,-0.807 0.531,-2.432 0.344,-4.848 -0.152,-1.907 0.916,-6.332996 0.916,-6.332996"
     id="path1237" />
  <path
     style="fill:none;stroke:#231f20;stroke-width:0.565977;stroke-linecap:butt;stroke-linejoin:miter;stroke-miterlimit:4;stroke-dasharray:none;stroke-opacity:1"
     d="m 76.083841,96.805334 c 0.74,-3.047 1.23,-3.621 1.787,-4.355 3.459,-4.631 1.125,-6.244 -1.755,-6.407 -3.39,-0.197 -4.6,-0.333 -5.5,5.901 -0.25,1.73 -2.078,8.250996 -2.078,8.250996 -0.964,2.249 -0.714,4.958 0.265,6.036 1.032,1.136 0.703,0.61 1.849,1.489 1.094,0.845 3.266,1.105 4.172,0.266 0.875,-0.807 0.531,-2.432 0.344,-4.848 -0.152,-1.907 0.916,-6.332996 0.916,-6.332996 z"
     id="path1238" />
  <path
     style="fill:#ffffff;fill-opacity:1;fill-rule:nonzero;stroke:none"
     d="m 67.219841,113.22033 c -0.089,0.235 -1.224,0.152 -1.302,0.667 -0.079,0.521 0.641,0.828 1.224,2.735 l 0.005,0.021 c 0.375,1.4 1.265,2.468 2.489,2.755 2.027,0.464 4.178,-1.38 4.818,-4.135 0.641,-2.75 -0.49,-5.36 -2.51,-5.834 -1.933,-0.452 -3.994,1.234 -4.724,3.791"
     id="path1239" />
  <path
     style="fill:none;stroke:#231f20;stroke-width:0.565977;stroke-linecap:butt;stroke-linejoin:miter;stroke-miterlimit:4;stroke-dasharray:none;stroke-opacity:1"
     d="m 67.219841,113.22033 c -0.089,0.235 -1.224,0.152 -1.302,0.667 -0.079,0.521 0.641,0.828 1.224,2.735 l 0.005,0.021 c 0.375,1.4 1.265,2.468 2.489,2.755 2.027,0.464 4.178,-1.38 4.818,-4.135 0.641,-2.75 -0.49,-5.36 -2.51,-5.834 -1.933,-0.452 -3.994,1.234 -4.724,3.791 z"
     id="path1240" />
  <path
     style="fill:#231f20;fill-opacity:1;fill-rule:nonzero;stroke:none"
     d="m 67.813841,68.971334 c -3.937,0.771 -1.438,4 -1.35,4.468 0.954,4.923 1.142,5.251 2.12,8.948 1.418,5.339 3.208,8.781 6.558,8.866 2.27,0.062 3.609,-0.897 4.125,-2.104 0.568,-1.35 0.323,-4.517 -2.235,-5.871 l -0.864,-1.479 c -0.453,-1.068 -0.688,-1.593 -0.87,-2.136 -0.312,-0.953 -0.714,-1.953 -1.438,-3.77 -1.286,-3.23 -3.692,-6.219 -3.692,-6.219 -0.49,-1.145 -2.354,-0.703 -2.354,-0.703"
     id="path1241" />
  <path
     style="fill:none;stroke:#231f20;stroke-width:0.565977;stroke-linecap:butt;stroke-linejoin:miter;stroke-miterlimit:4;stroke-dasharray:none;stroke-opacity:1"
     d="m 67.813841,68.971334 c -3.937,0.771 -1.438,4 -1.35,4.468 0.954,4.923 1.142,5.251 2.12,8.948 1.418,5.339 3.208,8.781 6.558,8.866 2.27,0.062 3.609,-0.897 4.125,-2.104 0.568,-1.35 0.323,-4.517 -2.235,-5.871 l -0.864,-1.479 c -0.453,-1.068 -0.688,-1.593 -0.87,-2.136 -0.312,-0.953 -0.714,-1.953 -1.438,-3.77 -1.286,-3.23 -3.692,-6.219 -3.692,-6.219 -0.49,-1.145 -2.354,-0.703 -2.354,-0.703 z"
     id="path1242" />
  <path
     style="fill:#0098c9;fill-opacity:1;fill-rule:nonzero;stroke:none"
     d="m 76.334841,83.153334 -7.021,3.433 c 0.322,0.567 0.65,1.077 0.984,1.557 0.026,0.078 0.046,0.156 0.057,0.224 0.109,0.812 0.652,1.14 1.568,1.646 1.156,1.03 2.417,1.526 3.869,1.317 2.251,-0.317 3.407,-1.479 3.719,-2.765 0.328,-1.416 -0.432,-4.505 -3.176,-5.412"
     id="path1243" />
  <path
     style="fill:none;stroke:#231f20;stroke-width:0.565977;stroke-linecap:butt;stroke-linejoin:miter;stroke-miterlimit:4;stroke-dasharray:none;stroke-opacity:1"
     d="m 76.334841,83.153334 -7.021,3.433 c 0.322,0.567 0.65,1.077 0.984,1.557 0.026,0.078 0.046,0.156 0.057,0.224 0.109,0.812 0.652,1.14 1.568,1.646 1.156,1.03 2.417,1.526 3.869,1.317 2.251,-0.317 3.407,-1.479 3.719,-2.765 0.328,-1.416 -0.432,-4.505 -3.176,-5.412 z"
     id="path1244" />
  <path
     style="fill:#231f20;fill-opacity:1;fill-rule:nonzero;stroke:none"
     d="m 66.619841,86.434334 c 0.522,0.371 0.97,2.267 1.912,3.568 0.646,0.88 1.214,3.568 1.912,4.396 0.64,0.751 0.864,1.162 0.119,2.046 -0.437,0.516 -1.619,1.251 -2.031,0.933 -0.942,-0.719 -1.412,-1.552 -1.729,-2.567 -0.369,-1.161 -1.083,-4.391 -1.161,-4.995 -0.183,-1.51 -0.714,-2.032 -0.798,-2.428 -0.166,-0.738 0.074,-0.989 0.532,-1.202 0.875,-0.396 1.244,0.249 1.244,0.249"
     id="path1245" />
  <path
     style="fill:none;stroke:#231f20;stroke-width:0.565977;stroke-linecap:butt;stroke-linejoin:miter;stroke-miterlimit:4;stroke-dasharray:none;stroke-opacity:1"
     d="m 66.619841,86.434334 c 0.522,0.371 0.97,2.267 1.912,3.568 0.646,0.88 1.214,3.568 1.912,4.396 0.64,0.751 0.864,1.162 0.119,2.046 -0.437,0.516 -1.619,1.251 -2.031,0.933 -0.942,-0.719 -1.412,-1.552 -1.729,-2.567 -0.369,-1.161 -1.083,-4.391 -1.161,-4.995 -0.183,-1.51 -0.714,-2.032 -0.798,-2.428 -0.166,-0.738 0.074,-0.989 0.532,-1.202 0.875,-0.396 1.244,0.249 1.244,0.249 z"
     id="path1246" />
  <path
     style="fill:#231f20;fill-opacity:1;fill-rule:nonzero;stroke:none"
     d="m 69.949841,94.856334 c 1.249,-0.338 1.416,1.687 1.546,2.214 0.13,0.526 0.656,1.989 1.219,3.078996 0.563,1.088 0.791,2.686 1.859,4.754 0.552,1.093 0.412,2.5 -1.208,3.246 -1.594,0.733 -2.599,0.109 -3.079,-1.308 -0.479,-1.416 -0.328,-2.954 -0.708,-4.412 -0.38,-1.469 -0.905,-2.921996 -1.369,-4.046996 -0.532,-1.271 -0.314,-2.099 0.02,-2.443 0.833,-0.853 1.72,-1.083 1.72,-1.083"
     id="path1247" />
  <path
     style="fill:none;stroke:#231f20;stroke-width:0.565977;stroke-linecap:butt;stroke-linejoin:miter;stroke-miterlimit:4;stroke-dasharray:none;stroke-opacity:1"
     d="m 69.949841,94.856334 c 1.249,-0.338 1.416,1.687 1.546,2.214 0.13,0.526 0.656,1.989 1.219,3.078996 0.563,1.088 0.791,2.686 1.859,4.754 0.552,1.093 0.412,2.5 -1.208,3.246 -1.594,0.733 -2.599,0.109 -3.079,-1.308 -0.479,-1.416 -0.328,-2.954 -0.708,-4.412 -0.38,-1.469 -0.905,-2.921996 -1.369,-4.046996 -0.532,-1.271 -0.314,-2.099 0.02,-2.443 0.833,-0.853 1.72,-1.083 1.72,-1.083 z"
     id="path1248" />
  <path
     style="fill:#ffffff;fill-opacity:1;fill-rule:nonzero;stroke:none"
     d="m 64.297841,85.315334 c 0.043,1.026 0.912,1.828 1.932,1.786 1.026,-0.036 1.824,-0.906 1.786,-1.933 -0.041,-1.025 -0.905,-1.827 -1.937,-1.786 -1.02,0.043 -1.822,0.912 -1.781,1.933"
     id="path1249" />
  <path
     style="fill:none;stroke:#231f20;stroke-width:1.33171;stroke-linecap:butt;stroke-linejoin:miter;stroke-miterlimit:4;stroke-dasharray:none;stroke-opacity:1"
     d="m 64.297841,85.315334 c 0.043,1.026 0.912,1.828 1.932,1.786 1.026,-0.036 1.824,-0.906 1.786,-1.933 -0.041,-1.025 -0.905,-1.827 -1.937,-1.786 -1.02,0.043 -1.822,0.912 -1.781,1.933 z"
     id="path1250" />
  <path
     style="fill:#231f20;fill-opacity:1;fill-rule:nonzero;stroke:none"
     d="m 101.62584,101.03433 c -0.156,-1.343996 0.714,-1.802996 1.734,-1.578996 0.298,0.063 0.626,-0.192 0.912,-0.104 0.678,0.214 1.432,1.780996 0.287,2.749996 -0.079,0.067 -0.521,0.755 -0.939,1.218 -0.796,0.912 -2.848,2.344 -5.500001,1.844 -1.254,-0.229 -0.885,-0.932 -0.342,-0.995 1.702,-0.182 1.817,-0.53 2.238001,-0.743 1.464,-0.715 1.61,-2.391 1.61,-2.391"
     id="path1251" />
  <path
     style="fill:none;stroke:#231f20;stroke-width:0.332927;stroke-linecap:butt;stroke-linejoin:miter;stroke-miterlimit:4;stroke-dasharray:none;stroke-opacity:1"
     d="m 101.62584,101.03433 c -0.156,-1.343996 0.714,-1.802996 1.734,-1.578996 0.298,0.063 0.626,-0.192 0.912,-0.104 0.678,0.214 1.432,1.780996 0.287,2.749996 -0.079,0.067 -0.521,0.755 -0.939,1.218 -0.796,0.912 -2.848,2.344 -5.500001,1.844 -1.254,-0.229 -0.885,-0.932 -0.342,-0.995 1.702,-0.182 1.817,-0.53 2.238001,-0.743 1.464,-0.715 1.61,-2.391 1.61,-2.391 z"
     id="path1252" />
  <path
     style="fill:#231f20;fill-opacity:1;fill-rule:nonzero;stroke:none"
     d="m 116.17184,89.195334 c -1.353,-1.813 -1.858,-1.985 -2.666,-1.464 -0.536,0.344 -1.151,0.484 -1.49,0.678 -1.124,0.651 -2.738,2.208 -6.181,7.817 -0.776,1.276 -1.881,3.052 -2.396,3.745 -0.803,1.093996 1.557,1.696996 1.875,1.265996 1.036,-1.369996 1.854,-2.229996 2.292,-2.666996 0.306,-0.303 0.765,-0.912 2.082,-1.927 1.995,-1.552 3.423,-2.177 4.938,-3.661 0.698,-0.688 1.661,-0.756 2.005,-1.781 0.349,-1.033 -0.459,-2.006 -0.459,-2.006"
     id="path1253" />
  <path
     style="fill:none;stroke:#231f20;stroke-width:0.565977;stroke-linecap:butt;stroke-linejoin:miter;stroke-miterlimit:4;stroke-dasharray:none;stroke-opacity:1"
     d="m 116.17184,89.195334 c -1.353,-1.813 -1.858,-1.985 -2.666,-1.464 -0.536,0.344 -1.151,0.484 -1.49,0.678 -1.124,0.651 -2.738,2.208 -6.181,7.817 -0.776,1.276 -1.881,3.052 -2.396,3.745 -0.803,1.093996 1.557,1.696996 1.875,1.265996 1.036,-1.369996 1.854,-2.229996 2.292,-2.666996 0.306,-0.303 0.765,-0.912 2.082,-1.927 1.995,-1.552 3.423,-2.177 4.938,-3.661 0.698,-0.688 1.661,-0.756 2.005,-1.781 0.349,-1.033 -0.459,-2.006 -0.459,-2.006 z"
     id="path1254" />
  <path
     style="fill:#0098c9;fill-opacity:1;fill-rule:nonzero;stroke:none"
     d="m 135.95384,70.991334 c -2.984,0.964 -3.728,0.855 -4.646,0.762 -5.754,-0.516 -5.906,2.317 -4.53,4.853 1.604,2.991 2.124,4.089 7.905,1.589 1.609,-0.698 8.115,-2.557 8.115,-2.557 2.417,-0.355 4.594,-1.989 5,-3.391 0.428,-1.474 0.152,-0.917 0.302,-2.354 0.135,-1.375 -0.776,-3.359 -1.964,-3.692 -1.145,-0.324 -2.349,0.822 -4.306,2.249 -1.547,1.125 -5.876,2.541 -5.876,2.541"
     id="path1255" />
  <path
     style="fill:none;stroke:#231f20;stroke-width:0.565977;stroke-linecap:butt;stroke-linejoin:miter;stroke-miterlimit:4;stroke-dasharray:none;stroke-opacity:1"
     d="m 135.95384,70.991334 c -2.984,0.964 -3.728,0.855 -4.646,0.762 -5.754,-0.516 -5.906,2.317 -4.53,4.853 1.604,2.991 2.124,4.089 7.905,1.589 1.609,-0.698 8.115,-2.557 8.115,-2.557 2.417,-0.355 4.594,-1.989 5,-3.391 0.428,-1.474 0.152,-0.917 0.302,-2.354 0.135,-1.375 -0.776,-3.359 -1.964,-3.692 -1.145,-0.324 -2.349,0.822 -4.306,2.249 -1.547,1.125 -5.876,2.541 -5.876,2.541 z"
     id="path1256" />
  <path
     style="fill:#ffffff;fill-opacity:1;fill-rule:nonzero;stroke:none"
     d="m 154.58384,69.934334 c 0.24,-0.052 0.771,0.959 1.251,0.756 0.479,-0.208 0.364,-0.984 1.681,-2.475 l 0.016,-0.014 c 0.995,-1.058 1.432,-2.376 1.036,-3.568 -0.661,-1.964 -3.358,-2.834 -6.041,-1.932 -2.683,0.896 -4.312,3.224 -3.651,5.192 0.63,1.885 3.14,2.76 5.708,2.041"
     id="path1257" />
  <path
     style="fill:none;stroke:#231f20;stroke-width:0.565977;stroke-linecap:butt;stroke-linejoin:miter;stroke-miterlimit:4;stroke-dasharray:none;stroke-opacity:1"
     d="m 154.58384,69.934334 c 0.24,-0.052 0.771,0.959 1.251,0.756 0.479,-0.208 0.364,-0.984 1.681,-2.475 l 0.016,-0.014 c 0.995,-1.058 1.432,-2.376 1.036,-3.568 -0.661,-1.964 -3.358,-2.834 -6.041,-1.932 -2.683,0.896 -4.312,3.224 -3.651,5.192 0.63,1.885 3.14,2.76 5.708,2.041 z"
     id="path1258" />
  <path
     style="fill:#231f20;fill-opacity:1;fill-rule:nonzero;stroke:none"
     d="m 113.90684,90.184334 c 2.104,3.412 4.245,-0.067 4.656,-0.312 4.272,-2.625 4.516,-2.917 7.631,-5.13 4.494,-3.213 7.084,-6.099 5.989,-9.265 -0.744,-2.147 -2.115,-3.063 -3.427,-3.12 -1.458,-0.058 -4.338,1.292 -4.702,4.156 l -1.084,1.333 c -0.839,0.803 -1.25,1.203 -1.698,1.563 -0.776,0.63 -1.578,1.358 -3.021,2.671 -2.568,2.339 -4.516,5.651 -4.516,5.651 -0.9,0.86 0.172,2.453 0.172,2.453"
     id="path1259" />
  <path
     style="fill:none;stroke:#231f20;stroke-width:0.565977;stroke-linecap:butt;stroke-linejoin:miter;stroke-miterlimit:4;stroke-dasharray:none;stroke-opacity:1"
     d="m 113.90684,90.184334 c 2.104,3.412 4.245,-0.067 4.656,-0.312 4.272,-2.625 4.516,-2.917 7.631,-5.13 4.494,-3.213 7.084,-6.099 5.989,-9.265 -0.744,-2.147 -2.115,-3.063 -3.427,-3.12 -1.458,-0.058 -4.338,1.292 -4.702,4.156 l -1.084,1.333 c -0.839,0.803 -1.25,1.203 -1.698,1.563 -0.776,0.63 -1.578,1.358 -3.021,2.671 -2.568,2.339 -4.516,5.651 -4.516,5.651 -0.9,0.86 0.172,2.453 0.172,2.453 z"
     id="path1260" />
  <path
     style="fill:#0098c9;fill-opacity:1;fill-rule:nonzero;stroke:none"
     d="m 132.02684,74.835334 c -1.093,-1.989 -2.588,-2.666 -3.901,-2.505 -1.443,0.193 -4.067,1.995 -3.943,4.88 l 5.683,5.365 c 0.417,-0.5 0.776,-0.989 1.104,-1.469 0.068,-0.052 0.136,-0.099 0.198,-0.135 0.719,-0.385 0.828,-1.005 0.99,-2.041 0.552,-1.444 0.572,-2.803 -0.131,-4.095"
     id="path1261" />
  <path
     style="fill:none;stroke:#231f20;stroke-width:0.565977;stroke-linecap:butt;stroke-linejoin:miter;stroke-miterlimit:4;stroke-dasharray:none;stroke-opacity:1"
     d="m 132.02684,74.835334 c -1.093,-1.989 -2.588,-2.666 -3.901,-2.505 -1.443,0.193 -4.067,1.995 -3.943,4.88 l 5.683,5.365 c 0.417,-0.5 0.776,-0.989 1.104,-1.469 0.068,-0.052 0.136,-0.099 0.198,-0.135 0.719,-0.385 0.828,-1.005 0.99,-2.041 0.552,-1.444 0.572,-2.803 -0.131,-4.095 z"
     id="path1262" />
  <path
     style="fill:#231f20;fill-opacity:1;fill-rule:nonzero;stroke:none"
     d="m 132.08384,84.486334 c 0.042,-0.64 1.422,-2.02 2.032,-3.504 0.411,-1.005 2.406,-2.896 2.744,-3.928 0.308,-0.937 0.542,-1.344 1.683,-1.177 0.672,0.105 1.907,0.724 1.853,1.24 -0.113,1.182 -0.577,2.015 -1.276,2.822 -0.79,0.917 -3.166,3.224 -3.645,3.604 -1.192,0.954 -1.355,1.672 -1.645,1.954 -0.547,0.532 -0.886,0.458 -1.303,0.177 -0.801,-0.536 -0.443,-1.188 -0.443,-1.188"
     id="path1263" />
  <path
     style="fill:none;stroke:#231f20;stroke-width:0.565977;stroke-linecap:butt;stroke-linejoin:miter;stroke-miterlimit:4;stroke-dasharray:none;stroke-opacity:1"
     d="m 132.08384,84.486334 c 0.042,-0.64 1.422,-2.02 2.032,-3.504 0.411,-1.005 2.406,-2.896 2.744,-3.928 0.308,-0.937 0.542,-1.344 1.683,-1.177 0.672,0.105 1.907,0.724 1.853,1.24 -0.113,1.182 -0.577,2.015 -1.276,2.822 -0.79,0.917 -3.166,3.224 -3.645,3.604 -1.192,0.954 -1.355,1.672 -1.645,1.954 -0.547,0.532 -0.886,0.458 -1.303,0.177 -0.801,-0.536 -0.443,-1.188 -0.443,-1.188 z"
     id="path1264" />
  <path
     style="fill:#231f20;fill-opacity:1;fill-rule:nonzero;stroke:none"
     d="m 137.51084,77.231334 c -0.948,-0.885 0.693,-2.088 1.073,-2.473 0.386,-0.381 1.355,-1.605 1.979,-2.652 0.636,-1.047 1.881,-2.088 3.084,-4.077 0.636,-1.043 1.912,-1.662 3.391,-0.672 1.458,0.968 1.458,2.161 0.505,3.306 -0.959,1.156 -2.344,1.828 -3.391,2.918 -1.046,1.088 -2.01,2.301 -2.724,3.286 -0.808,1.119 -1.625,1.37 -2.093,1.271 -1.163,-0.265 -1.824,-0.907 -1.824,-0.907"
     id="path1265" />
  <path
     style="fill:none;stroke:#231f20;stroke-width:0.565977;stroke-linecap:butt;stroke-linejoin:miter;stroke-miterlimit:4;stroke-dasharray:none;stroke-opacity:1"
     d="m 137.51084,77.231334 c -0.948,-0.885 0.693,-2.088 1.073,-2.473 0.386,-0.381 1.355,-1.605 1.979,-2.652 0.636,-1.047 1.881,-2.088 3.084,-4.077 0.636,-1.043 1.912,-1.662 3.391,-0.672 1.458,0.968 1.458,2.161 0.505,3.306 -0.959,1.156 -2.344,1.828 -3.391,2.918 -1.046,1.088 -2.01,2.301 -2.724,3.286 -0.808,1.119 -1.625,1.37 -2.093,1.271 -1.163,-0.265 -1.824,-0.907 -1.824,-0.907 z"
     id="path1266" />
  <path
     style="fill:#ffffff;fill-opacity:1;fill-rule:nonzero;stroke:none"
     d="m 132.34984,87.049334 c 0.854,-0.572 1.078,-1.73 0.505,-2.583 -0.572,-0.855 -1.729,-1.079 -2.583,-0.505 -0.849,0.573 -1.078,1.729 -0.505,2.582 0.573,0.85 1.729,1.079 2.583,0.506"
     id="path1267" />
  <path
     style="fill:none;stroke:#231f20;stroke-width:1.33171;stroke-linecap:butt;stroke-linejoin:miter;stroke-miterlimit:4;stroke-dasharray:none;stroke-opacity:1"
     d="m 132.34984,87.049334 c 0.854,-0.572 1.078,-1.73 0.505,-2.583 -0.572,-0.855 -1.729,-1.079 -2.583,-0.505 -0.849,0.573 -1.078,1.729 -0.505,2.582 0.573,0.85 1.729,1.079 2.583,0.506 z"
     id="path1268" />
  <path
     style="fill:#231f20;fill-opacity:1;fill-rule:nonzero;stroke:none"
     d="m 182.77184,8.5973341 c 1.115,0.77 0.875,1.7379999 0.031,2.3419999 -0.249,0.183 -0.276,0.595 -0.536,0.756 -0.604,0.359 -2.281,-0.12 -2.24,-1.62 0.005,-0.1039999 -0.213,-0.8959999 -0.292,-1.5099999 -0.14,-1.203 0.147,-3.683 2.281,-5.333 1.006,-0.782 1.282,-0.042 0.975,0.401 -0.995,1.391 -0.808,1.708 -0.932,2.172 -0.439,1.563 0.713,2.792 0.713,2.792"
     id="path1269" />
  <path
     style="fill:none;stroke:#231f20;stroke-width:0.332927;stroke-linecap:butt;stroke-linejoin:miter;stroke-miterlimit:4;stroke-dasharray:none;stroke-opacity:1"
     d="m 182.77184,8.5973341 c 1.115,0.77 0.875,1.7379999 0.031,2.3419999 -0.249,0.183 -0.276,0.595 -0.536,0.756 -0.604,0.359 -2.281,-0.12 -2.24,-1.62 0.005,-0.1039999 -0.213,-0.8959999 -0.292,-1.5099999 -0.14,-1.203 0.147,-3.683 2.281,-5.333 1.006,-0.782 1.282,-0.042 0.975,0.401 -0.995,1.391 -0.808,1.708 -0.932,2.172 -0.439,1.563 0.713,2.792 0.713,2.792 z"
     id="path1270" />
  <path
     style="fill:#231f20;fill-opacity:1;fill-rule:nonzero;stroke:none"
     d="m 181.93884,27.330334 c 2.255,0.193 2.724,-0.067 2.869,-1.015 0.099,-0.63 0.407,-1.182 0.484,-1.562 0.262,-1.271 0.172,-3.511 -1.729,-9.814 -0.432,-1.432 -1.025,-3.442 -1.203,-4.286 -0.281,-1.3279999 -2.297,0.037 -2.188,0.557 0.33,1.683 0.423,2.865 0.464,3.496 0.022,0.421 0.167,1.171 0.058,2.833 -0.172,2.52 -0.651,4 -0.552,6.114 0.046,0.985 -0.542,1.75 -0.006,2.688 0.538,0.948 1.803,0.989 1.803,0.989"
     id="path1271" />
  <path
     style="fill:none;stroke:#231f20;stroke-width:0.565977;stroke-linecap:butt;stroke-linejoin:miter;stroke-miterlimit:4;stroke-dasharray:none;stroke-opacity:1"
     d="m 181.93884,27.330334 c 2.255,0.193 2.724,-0.067 2.869,-1.015 0.099,-0.63 0.407,-1.182 0.484,-1.562 0.262,-1.271 0.172,-3.511 -1.729,-9.814 -0.432,-1.432 -1.025,-3.442 -1.203,-4.286 -0.281,-1.3279999 -2.297,0.037 -2.188,0.557 0.33,1.683 0.423,2.865 0.464,3.496 0.022,0.421 0.167,1.171 0.058,2.833 -0.172,2.52 -0.651,4 -0.552,6.114 0.046,0.985 -0.542,1.75 -0.006,2.688 0.538,0.948 1.803,0.989 1.803,0.989 z"
     id="path1272" />
  <path
     style="fill:#0098c9;fill-opacity:1;fill-rule:nonzero;stroke:none"
     d="m 186.23984,53.070334 c -0.238,-3.125 0.047,-3.823 0.344,-4.697 1.855,-5.475 -0.869,-6.282 -3.656,-5.543 -3.281,0.86 -4.474,1.109 -3.396,7.313 0.303,1.724 0.588,8.49 0.588,8.49 -0.224,2.442 0.86,4.937 2.12,5.656 1.339,0.76 0.866,0.364 2.224,0.844 1.303,0.458 3.443,0.036 4.047,-1.042 0.584,-1.037 -0.249,-2.48 -1.176,-4.718 -0.735,-1.767 -1.095,-6.303 -1.095,-6.303"
     id="path1273" />
  <path
     style="fill:none;stroke:#231f20;stroke-width:0.565977;stroke-linecap:butt;stroke-linejoin:miter;stroke-miterlimit:4;stroke-dasharray:none;stroke-opacity:1"
     d="m 186.23984,53.070334 c -0.238,-3.125 0.047,-3.823 0.344,-4.697 1.855,-5.475 -0.869,-6.282 -3.656,-5.543 -3.281,0.86 -4.474,1.109 -3.396,7.313 0.303,1.724 0.588,8.49 0.588,8.49 -0.224,2.442 0.86,4.937 2.12,5.656 1.339,0.76 0.866,0.364 2.224,0.844 1.303,0.458 3.443,0.036 4.047,-1.042 0.584,-1.037 -0.249,-2.48 -1.176,-4.718 -0.735,-1.767 -1.095,-6.303 -1.095,-6.303 z"
     id="path1274" />
  <path
     style="fill:#ffffff;fill-opacity:1;fill-rule:nonzero;stroke:none"
     d="m 186.82384,71.543334 c 0.187,0.163 -0.328,1.194 0.12,1.459 0.452,0.271 1.015,-0.287 2.995,-0.099 l 0.02,0.006 c 1.443,0.182 2.771,-0.235 3.495,-1.256 1.204,-1.698 0.308,-4.395 -1.99,-6.026 -2.306,-1.641 -5.15,-1.584 -6.353,0.104 -1.152,1.62 -0.376,4.167 1.713,5.812"
     id="path1275" />
  <path
     style="fill:none;stroke:#231f20;stroke-width:0.565977;stroke-linecap:butt;stroke-linejoin:miter;stroke-miterlimit:4;stroke-dasharray:none;stroke-opacity:1"
     d="m 186.82384,71.543334 c 0.187,0.163 -0.328,1.194 0.12,1.459 0.452,0.271 1.015,-0.287 2.995,-0.099 l 0.02,0.006 c 1.443,0.182 2.771,-0.235 3.495,-1.256 1.204,-1.698 0.308,-4.395 -1.99,-6.026 -2.306,-1.641 -5.15,-1.584 -6.353,0.104 -1.152,1.62 -0.376,4.167 1.713,5.812 z"
     id="path1276" />
  <path
     style="fill:#231f20;fill-opacity:1;fill-rule:nonzero;stroke:none"
     d="m 182.71484,24.986334 c -3.953,-0.697 -2.787,3.209 -2.865,3.683 -0.886,4.932 -0.828,5.308 -1.244,9.104 -0.595,5.494 -0.162,9.354 2.932,10.636 2.104,0.864 3.692,0.464 4.609,-0.484 1.011,-1.052 1.921,-4.095 0.025,-6.276 l -0.276,-1.688 c -0.041,-1.162 -0.072,-1.735 -0.041,-2.312 0.047,-1 0.032,-2.079 0.011,-4.038 -0.036,-3.468 -1.214,-7.125 -1.214,-7.125 -0.041,-1.244 -1.937,-1.5 -1.937,-1.5"
     id="path1277" />
  <path
     style="fill:none;stroke:#231f20;stroke-width:0.565977;stroke-linecap:butt;stroke-linejoin:miter;stroke-miterlimit:4;stroke-dasharray:none;stroke-opacity:1"
     d="m 182.71484,24.986334 c -3.953,-0.697 -2.787,3.209 -2.865,3.683 -0.886,4.932 -0.828,5.308 -1.244,9.104 -0.595,5.494 -0.162,9.354 2.932,10.636 2.104,0.864 3.692,0.464 4.609,-0.484 1.011,-1.052 1.921,-4.095 0.025,-6.276 l -0.276,-1.688 c -0.041,-1.162 -0.072,-1.735 -0.041,-2.312 0.047,-1 0.032,-2.079 0.011,-4.038 -0.036,-3.468 -1.214,-7.125 -1.214,-7.125 -0.041,-1.244 -1.937,-1.5 -1.937,-1.5 z"
     id="path1278" />
  <path
     style="fill:#0098c9;fill-opacity:1;fill-rule:nonzero;stroke:none"
     d="m 185.56284,41.283334 -7.785,0.672 c 0.093,0.651 0.218,1.246 0.364,1.812 -0.011,0.084 -0.022,0.163 -0.036,0.23 -0.183,0.786 0.197,1.286 0.869,2.084 0.708,1.385 1.708,2.306 3.145,2.634 2.215,0.506 3.71,-0.161 4.459,-1.244 0.823,-1.204 1.219,-4.36 -1.016,-6.188"
     id="path1279" />
  <path
     style="fill:none;stroke:#231f20;stroke-width:0.565977;stroke-linecap:butt;stroke-linejoin:miter;stroke-miterlimit:4;stroke-dasharray:none;stroke-opacity:1"
     d="m 185.56284,41.283334 -7.785,0.672 c 0.093,0.651 0.218,1.246 0.364,1.812 -0.011,0.084 -0.022,0.163 -0.036,0.23 -0.183,0.786 0.197,1.286 0.869,2.084 0.708,1.385 1.708,2.306 3.145,2.634 2.215,0.506 3.71,-0.161 4.459,-1.244 0.823,-1.204 1.219,-4.36 -1.016,-6.188 z"
     id="path1280" />
  <path
     style="fill:#231f20;fill-opacity:1;fill-rule:nonzero;stroke:none"
     d="m 182.34384,82.778334 c -0.285,-0.572 0.183,-2.468 -0.057,-4.057 -0.161,-1.072 0.579,-3.719 0.333,-4.771 -0.218,-0.973 -0.228,-1.437 0.834,-1.875 0.63,-0.265 2.016,-0.36 2.234,0.104 0.506,1.074 0.542,2.022 0.36,3.074 -0.209,1.197 -1.068,4.396 -1.276,4.973 -0.532,1.423 -0.302,2.125 -0.406,2.516 -0.198,0.74 -0.527,0.844 -1.031,0.823 -0.959,-0.047 -0.991,-0.787 -0.991,-0.787"
     id="path1281" />
  <path
     style="fill:none;stroke:#231f20;stroke-width:0.565977;stroke-linecap:butt;stroke-linejoin:miter;stroke-miterlimit:4;stroke-dasharray:none;stroke-opacity:1"
     d="m 182.34384,82.778334 c -0.285,-0.572 0.183,-2.468 -0.057,-4.057 -0.161,-1.072 0.579,-3.719 0.333,-4.771 -0.218,-0.973 -0.228,-1.437 0.834,-1.875 0.63,-0.265 2.016,-0.36 2.234,0.104 0.506,1.074 0.542,2.022 0.36,3.074 -0.209,1.197 -1.068,4.396 -1.276,4.973 -0.532,1.423 -0.302,2.125 -0.406,2.516 -0.198,0.74 -0.527,0.844 -1.031,0.823 -0.959,-0.047 -0.991,-0.787 -0.991,-0.787 z"
     id="path1282" />
  <path
     style="fill:#231f20;fill-opacity:1;fill-rule:nonzero;stroke:none"
     d="m 183.27184,73.762334 c -1.27,-0.271 -0.485,-2.151 -0.354,-2.671 0.136,-0.532 0.333,-2.073 0.333,-3.297 0.005,-1.229 0.536,-2.751 0.547,-5.079 0.005,-1.224 0.781,-2.41 2.557,-2.322 1.756,0.084 2.371,1.098 2.136,2.578 -0.224,1.479 -1.068,2.771 -1.407,4.244 -0.333,1.47 -0.541,3.006 -0.64,4.219 -0.12,1.376 -0.688,2.016 -1.146,2.157 -1.135,0.375 -2.026,0.171 -2.026,0.171"
     id="path1283" />
  <path
     style="fill:none;stroke:#231f20;stroke-width:0.565977;stroke-linecap:butt;stroke-linejoin:miter;stroke-miterlimit:4;stroke-dasharray:none;stroke-opacity:1"
     d="m 183.27184,73.762334 c -1.27,-0.271 -0.485,-2.151 -0.354,-2.671 0.136,-0.532 0.333,-2.073 0.333,-3.297 0.005,-1.229 0.536,-2.751 0.547,-5.079 0.005,-1.224 0.781,-2.41 2.557,-2.322 1.756,0.084 2.371,1.098 2.136,2.578 -0.224,1.479 -1.068,2.771 -1.407,4.244 -0.333,1.47 -0.541,3.006 -0.64,4.219 -0.12,1.376 -0.688,2.016 -1.146,2.157 -1.135,0.375 -2.026,0.171 -2.026,0.171 z"
     id="path1284" />
  <path
     style="fill:#ffffff;fill-opacity:1;fill-rule:nonzero;stroke:none"
     d="m 184.24584,86.482334 c -0.635,0.807 -1.802,0.952 -2.61,0.317 -0.806,-0.631 -0.953,-1.802 -0.317,-2.614 0.625,-0.808 1.801,-0.948 2.609,-0.318 0.807,0.635 0.954,1.807 0.318,2.615"
     id="path1285" />
  <path
     style="fill:none;stroke:#231f20;stroke-width:1.33171;stroke-linecap:butt;stroke-linejoin:miter;stroke-miterlimit:4;stroke-dasharray:none;stroke-opacity:1"
     d="m 184.24584,86.482334 c -0.635,0.807 -1.802,0.952 -2.61,0.317 -0.806,-0.631 -0.953,-1.802 -0.317,-2.614 0.625,-0.808 1.801,-0.948 2.609,-0.318 0.807,0.635 0.954,1.807 0.318,2.615 z"
     id="path1286" />
  <path
     style="fill:none;stroke:#231f20;stroke-width:0.399514;stroke-linecap:butt;stroke-linejoin:miter;stroke-miterlimit:4;stroke-dasharray:none;stroke-opacity:1"
     d="m 0.16884098,40.955334 c 14.15600002,-22.39 47.20800002,-13.078 53.07700002,-8.802"
     id="path1287" />
  <path
     style="fill:#231f20;fill-opacity:1;fill-rule:nonzero;stroke:none"
     d="m 54.220841,32.862334 c -0.584,-0.161 -1.36,-0.287 -1.938,-0.24 l 0.838,-0.563 0.281,-0.968 c 0.125,0.562 0.485,1.266 0.819,1.771"
     id="path1288" />
  <path
     style="fill:none;stroke:#231f20;stroke-width:0.399514;stroke-linecap:butt;stroke-linejoin:miter;stroke-miterlimit:4;stroke-dasharray:none;stroke-opacity:1"
     d="m 121.16784,114.71533 c -20.75,-16.461996 -7.969,-48.337996 -3.089,-53.717996"
     id="path1289" />
  <path
     style="fill:#231f20;fill-opacity:1;fill-rule:nonzero;stroke:none"
     d="m 118.89184,60.106334 c -0.229,0.563 -0.433,1.323 -0.448,1.901 l -0.474,-0.89 -0.932,-0.386 c 0.573,-0.068 1.312,-0.349 1.854,-0.625"
     id="path1290" />
  <path
     style="fill:#231f20;fill-opacity:1;fill-rule:nonzero;stroke:none"
     d="m 302.40684,8.4203341 c 1.109,0.765 0.87,1.7329999 0.032,2.3379999 -0.256,0.181 -0.282,0.593 -0.538,0.755 -0.609,0.36 -2.285,-0.12 -2.238,-1.6199999 0,-0.104 -0.219,-0.891 -0.298,-1.511 -0.14,-1.202 0.151,-3.681 2.282,-5.333 1.01,-0.781 1.286,-0.041 0.973,0.401 -0.989,1.391 -0.807,1.714 -0.932,2.172 -0.432,1.563 0.719,2.798 0.719,2.798"
     id="path1291" />
  <path
     style="fill:none;stroke:#231f20;stroke-width:0.332927;stroke-linecap:butt;stroke-linejoin:miter;stroke-miterlimit:4;stroke-dasharray:none;stroke-opacity:1"
     d="m 302.40684,8.4203341 c 1.109,0.765 0.87,1.7329999 0.032,2.3379999 -0.256,0.181 -0.282,0.593 -0.538,0.755 -0.609,0.36 -2.285,-0.12 -2.238,-1.6199999 0,-0.104 -0.219,-0.891 -0.298,-1.511 -0.14,-1.202 0.151,-3.681 2.282,-5.333 1.01,-0.781 1.286,-0.041 0.973,0.401 -0.989,1.391 -0.807,1.714 -0.932,2.172 -0.432,1.563 0.719,2.798 0.719,2.798 z"
     id="path1292" />
  <path
     style="fill:#0098c9;fill-opacity:1;fill-rule:nonzero;stroke:none"
     d="m 305.87084,52.887334 c -0.24,-3.125 0.052,-3.822 0.349,-4.697 1.848,-5.475 -0.876,-6.281 -3.657,-5.541 -3.28,0.864 -4.474,1.109 -3.4,7.312 0.306,1.724 0.593,8.489 0.593,8.489 -0.229,2.443 0.855,4.937 2.12,5.656 1.333,0.761 0.859,0.365 2.219,0.844 1.301,0.459 3.448,0.036 4.052,-1.041 0.578,-1.036 -0.251,-2.48 -1.183,-4.719 -0.729,-1.765 -1.093,-6.303 -1.093,-6.303"
     id="path1293" />
  <path
     style="fill:none;stroke:#231f20;stroke-width:0.565977;stroke-linecap:butt;stroke-linejoin:miter;stroke-miterlimit:4;stroke-dasharray:none;stroke-opacity:1"
     d="m 305.87084,52.887334 c -0.24,-3.125 0.052,-3.822 0.349,-4.697 1.848,-5.475 -0.876,-6.281 -3.657,-5.541 -3.28,0.864 -4.474,1.109 -3.4,7.312 0.306,1.724 0.593,8.489 0.593,8.489 -0.229,2.443 0.855,4.937 2.12,5.656 1.333,0.761 0.859,0.365 2.219,0.844 1.301,0.459 3.448,0.036 4.052,-1.041 0.578,-1.036 -0.251,-2.48 -1.183,-4.719 -0.729,-1.765 -1.093,-6.303 -1.093,-6.303 z"
     id="path1294" />
  <path
     style="fill:#ffffff;fill-opacity:1;fill-rule:nonzero;stroke:none"
     d="m 306.45884,71.362334 c 0.182,0.161 -0.328,1.192 0.12,1.457 0.453,0.272 1.016,-0.285 2.994,-0.098 l 0.022,0.005 c 1.437,0.183 2.765,-0.235 3.489,-1.255 1.203,-1.698 0.308,-4.396 -1.989,-6.026 -2.308,-1.64 -5.151,-1.583 -6.35,0.104 -1.15,1.62 -0.38,4.166 1.714,5.813"
     id="path1295" />
  <path
     style="fill:none;stroke:#231f20;stroke-width:0.565977;stroke-linecap:butt;stroke-linejoin:miter;stroke-miterlimit:4;stroke-dasharray:none;stroke-opacity:1"
     d="m 306.45884,71.362334 c 0.182,0.161 -0.328,1.192 0.12,1.457 0.453,0.272 1.016,-0.285 2.994,-0.098 l 0.022,0.005 c 1.437,0.183 2.765,-0.235 3.489,-1.255 1.203,-1.698 0.308,-4.396 -1.989,-6.026 -2.308,-1.64 -5.151,-1.583 -6.35,0.104 -1.15,1.62 -0.38,4.166 1.714,5.813 z"
     id="path1296" />
  <path
     style="fill:#231f20;fill-opacity:1;fill-rule:nonzero;stroke:none"
     d="m 301.97984,82.597334 c -0.292,-0.574 0.177,-2.47 -0.057,-4.058 -0.167,-1.073 0.573,-3.72 0.328,-4.772 -0.214,-0.968 -0.23,-1.437 0.838,-1.874 0.626,-0.266 2.016,-0.359 2.23,0.104 0.505,1.073 0.541,2.021 0.358,3.073 -0.208,1.197 -1.061,4.396 -1.27,4.973 -0.531,1.423 -0.307,2.125 -0.411,2.522 -0.193,0.734 -0.527,0.838 -1.027,0.817 -0.962,-0.041 -0.989,-0.785 -0.989,-0.785"
     id="path1297" />
  <path
     style="fill:none;stroke:#231f20;stroke-width:0.565977;stroke-linecap:butt;stroke-linejoin:miter;stroke-miterlimit:4;stroke-dasharray:none;stroke-opacity:1"
     d="m 301.97984,82.597334 c -0.292,-0.574 0.177,-2.47 -0.057,-4.058 -0.167,-1.073 0.573,-3.72 0.328,-4.772 -0.214,-0.968 -0.23,-1.437 0.838,-1.874 0.626,-0.266 2.016,-0.359 2.23,0.104 0.505,1.073 0.541,2.021 0.358,3.073 -0.208,1.197 -1.061,4.396 -1.27,4.973 -0.531,1.423 -0.307,2.125 -0.411,2.522 -0.193,0.734 -0.527,0.838 -1.027,0.817 -0.962,-0.041 -0.989,-0.785 -0.989,-0.785 z"
     id="path1298" />
  <path
     style="fill:#231f20;fill-opacity:1;fill-rule:nonzero;stroke:none"
     d="m 302.90084,73.581334 c -1.27,-0.271 -0.478,-2.152 -0.348,-2.672 0.13,-0.532 0.334,-2.074 0.334,-3.298 0.005,-1.229 0.536,-2.749 0.541,-5.077 0.005,-1.224 0.787,-2.412 2.557,-2.324 1.76,0.084 2.37,1.1 2.14,2.579 -0.229,1.478 -1.072,2.77 -1.405,4.245 -0.339,1.468 -0.543,3.005 -0.647,4.219 -0.12,1.374 -0.686,2.014 -1.14,2.156 -1.141,0.38 -2.032,0.172 -2.032,0.172"
     id="path1299" />
  <path
     style="fill:none;stroke:#231f20;stroke-width:0.565977;stroke-linecap:butt;stroke-linejoin:miter;stroke-miterlimit:4;stroke-dasharray:none;stroke-opacity:1"
     d="m 302.90084,73.581334 c -1.27,-0.271 -0.478,-2.152 -0.348,-2.672 0.13,-0.532 0.334,-2.074 0.334,-3.298 0.005,-1.229 0.536,-2.749 0.541,-5.077 0.005,-1.224 0.787,-2.412 2.557,-2.324 1.76,0.084 2.37,1.1 2.14,2.579 -0.229,1.478 -1.072,2.77 -1.405,4.245 -0.339,1.468 -0.543,3.005 -0.647,4.219 -0.12,1.374 -0.686,2.014 -1.14,2.156 -1.141,0.38 -2.032,0.172 -2.032,0.172 z"
     id="path1300" />
  <path
     style="fill:#ffffff;fill-opacity:1;fill-rule:nonzero;stroke:none"
     d="m 303.88084,86.299334 c -0.636,0.807 -1.802,0.954 -2.614,0.318 -0.808,-0.631 -0.954,-1.802 -0.318,-2.61 0.63,-0.806 1.802,-0.953 2.614,-0.322 0.808,0.634 0.948,1.806 0.318,2.614"
     id="path1301" />
  <path
     style="fill:none;stroke:#231f20;stroke-width:1.33171;stroke-linecap:butt;stroke-linejoin:miter;stroke-miterlimit:4;stroke-dasharray:none;stroke-opacity:1"
     d="m 303.88084,86.299334 c -0.636,0.807 -1.802,0.954 -2.614,0.318 -0.808,-0.631 -0.954,-1.802 -0.318,-2.61 0.63,-0.806 1.802,-0.953 2.614,-0.322 0.808,0.634 0.948,1.806 0.318,2.614 z"
     id="path1302" />
  <path
     style="fill:#ffffff;fill-opacity:1;fill-rule:nonzero;stroke:none"
     d="m 301.91184,27.617334 c 2.26,0.166 2.719,-0.11 2.849,-1.063 0.094,-0.629 0.391,-1.181 0.459,-1.563 0.249,-1.27 0.124,-3.525 -1.871,-9.796 -0.457,-1.417 -1.077,-3.422 -1.265,-4.256 -0.307,-1.3219999 -2.301,0.068 -2.183,0.595 0.36,1.676 0.47,2.853 0.516,3.473 0.032,0.427 0.194,1.172 0.099,2.839 -0.129,2.527 -0.588,4.016 -0.453,6.125 0.057,0.984 -0.52,1.755 0.037,2.682 0.547,0.944 1.812,0.964 1.812,0.964"
     id="path1303" />
  <path
     style="fill:none;stroke:#231f20;stroke-width:0.565977;stroke-linecap:butt;stroke-linejoin:miter;stroke-miterlimit:4;stroke-dasharray:none;stroke-opacity:1"
     d="m 301.91184,27.617334 c 2.26,0.166 2.719,-0.11 2.849,-1.063 0.094,-0.629 0.391,-1.181 0.459,-1.563 0.249,-1.27 0.124,-3.525 -1.871,-9.796 -0.457,-1.417 -1.077,-3.422 -1.265,-4.256 -0.307,-1.3219999 -2.301,0.068 -2.183,0.595 0.36,1.676 0.47,2.853 0.516,3.473 0.032,0.427 0.194,1.172 0.099,2.839 -0.129,2.527 -0.588,4.016 -0.453,6.125 0.057,0.984 -0.52,1.755 0.037,2.682 0.547,0.944 1.812,0.964 1.812,0.964 z"
     id="path1304" />
  <path
     style="fill:#ffffff;fill-opacity:1;fill-rule:nonzero;stroke:#231f20;stroke-width:0.565977;stroke-linecap:round;stroke-linejoin:round;stroke-miterlimit:4;stroke-dasharray:none;stroke-opacity:1"
     d="m 300.35984,25.653334 c -1.073,0.933 -0.459,3 -0.521,3.333 -0.812,4.948 -0.739,5.324 -1.099,9.125 -0.515,5.506 -0.025,9.355 3.089,10.595 2.115,0.833 3.692,0.395 4.599,-0.557 1,-1.068 1.859,-4.126 -0.068,-6.276 l -0.297,-1.683 c -0.062,-1.167 -0.094,-1.74 -0.083,-2.313 0.036,-1 0.005,-2.078 -0.041,-4.036 -0.095,-3.468 -1.323,-7.11 -1.323,-7.11 -0.016,-0.312 -0.147,-0.557 -0.333,-0.754"
     id="path1305" />
  <path
     style="fill:#0098c9;fill-opacity:1;fill-rule:nonzero;stroke:none"
     d="m 306.34884,42.007334 -7.77,-0.806 c -0.031,0.65 -0.016,1.26 0.01,1.842 -0.021,0.079 -0.041,0.158 -0.073,0.22 -0.328,0.739 -0.052,1.307 0.459,2.208 0.432,1.495 1.245,2.594 2.588,3.187 2.078,0.912 3.677,0.543 4.614,-0.38 1.043,-1.025 2.022,-4.052 0.172,-6.271"
     id="path1306" />
  <path
     style="fill:none;stroke:#231f20;stroke-width:0.565977;stroke-linecap:butt;stroke-linejoin:miter;stroke-miterlimit:4;stroke-dasharray:none;stroke-opacity:1"
     d="m 306.34884,42.007334 -7.77,-0.806 c -0.031,0.65 -0.016,1.26 0.01,1.842 -0.021,0.079 -0.041,0.158 -0.073,0.22 -0.328,0.739 -0.052,1.307 0.459,2.208 0.432,1.495 1.245,2.594 2.588,3.187 2.078,0.912 3.677,0.543 4.614,-0.38 1.043,-1.025 2.022,-4.052 0.172,-6.271 z"
     id="path1307" />
  <path
     style="fill:#ffffff;fill-opacity:1;fill-rule:nonzero;stroke:none"
     d="m 238.92784,83.597334 c -1.027,-0.068 -1.912,0.713 -1.975,1.738 -0.066,1.021 0.71,1.907 1.735,1.975 1.027,0.067 1.912,-0.713 1.975,-1.74 0.066,-1.027 -0.714,-1.907 -1.735,-1.973"
     id="path1308" />
  <path
     style="fill:none;stroke:#231f20;stroke-width:1.33171;stroke-linecap:butt;stroke-linejoin:miter;stroke-miterlimit:4;stroke-dasharray:none;stroke-opacity:1"
     d="m 238.92784,83.597334 c -1.027,-0.068 -1.912,0.713 -1.975,1.738 -0.066,1.021 0.71,1.907 1.735,1.975 1.027,0.067 1.912,-0.713 1.975,-1.74 0.066,-1.027 -0.714,-1.907 -1.735,-1.973 z"
     id="path1309" />
  <path
     style="fill:#231f20;fill-opacity:1;fill-rule:nonzero;stroke:none"
     d="m 240.79684,83.767334 c 0.511,-0.385 0.907,-2.29 1.814,-3.618 0.614,-0.896 1.104,-3.6 1.785,-4.443 0.62,-0.776 0.833,-1.193 0.063,-2.048 -0.448,-0.509 -1.651,-1.203 -2.047,-0.88 -0.932,0.751 -1.369,1.584 -1.672,2.604 -0.333,1.172 -0.957,4.423 -1.02,5.032 -0.147,1.52 -0.657,2.052 -0.729,2.448 -0.142,0.744 0.104,0.989 0.572,1.192 0.886,0.371 1.234,-0.287 1.234,-0.287"
     id="path1310" />
  <path
     style="fill:none;stroke:#231f20;stroke-width:0.565977;stroke-linecap:butt;stroke-linejoin:miter;stroke-miterlimit:4;stroke-dasharray:none;stroke-opacity:1"
     d="m 240.79684,83.767334 c 0.511,-0.385 0.907,-2.29 1.814,-3.618 0.614,-0.896 1.104,-3.6 1.785,-4.443 0.62,-0.776 0.833,-1.193 0.063,-2.048 -0.448,-0.509 -1.651,-1.203 -2.047,-0.88 -0.932,0.751 -1.369,1.584 -1.672,2.604 -0.333,1.172 -0.957,4.423 -1.02,5.032 -0.147,1.52 -0.657,2.052 -0.729,2.448 -0.142,0.744 0.104,0.989 0.572,1.192 0.886,0.371 1.234,-0.287 1.234,-0.287 z"
     id="path1311" />
  <path
     style="fill:#231f20;fill-opacity:1;fill-rule:nonzero;stroke:none"
     d="m 244.25084,74.846334 c 1.286,-0.145 0.688,-2.099 0.609,-2.631 -0.077,-0.536 -0.131,-2.098 -0.016,-3.306 0.115,-1.219 -0.26,-2.792 -0.041,-5.11 0.114,-1.218 -0.547,-2.474 -2.323,-2.568 -1.755,-0.078 -2.464,0.864 -2.375,2.366 0.078,1.494 0.791,2.858 0.984,4.358 0.194,1.506 0.246,3.047 0.23,4.26 -0.022,1.382 0.489,2.074 0.921,2.267 1.1,0.479 2.011,0.364 2.011,0.364"
     id="path1312" />
  <path
     style="fill:none;stroke:#231f20;stroke-width:0.565977;stroke-linecap:butt;stroke-linejoin:miter;stroke-miterlimit:4;stroke-dasharray:none;stroke-opacity:1"
     d="m 244.25084,74.846334 c 1.286,-0.145 0.688,-2.099 0.609,-2.631 -0.077,-0.536 -0.131,-2.098 -0.016,-3.306 0.115,-1.219 -0.26,-2.792 -0.041,-5.11 0.114,-1.218 -0.547,-2.474 -2.323,-2.568 -1.755,-0.078 -2.464,0.864 -2.375,2.366 0.078,1.494 0.791,2.858 0.984,4.358 0.194,1.506 0.246,3.047 0.23,4.26 -0.022,1.382 0.489,2.074 0.921,2.267 1.1,0.479 2.011,0.364 2.011,0.364 z"
     id="path1313" />
  <path
     style="fill:#231f20;fill-opacity:1;fill-rule:nonzero;stroke:none"
     d="m 221.12484,76.007334 c 0.339,-0.552 0.022,-2.468 0.386,-4.036 0.25,-1.057 -0.276,-3.756 0.048,-4.786 0.301,-0.948 0.337,-1.412 -0.688,-1.932 -0.604,-0.308 -1.975,-0.522 -2.23,-0.074 -0.593,1.031 -0.702,1.974 -0.609,3.036 0.125,1.21 0.713,4.464 0.88,5.058 0.417,1.464 0.136,2.146 0.208,2.542 0.136,0.755 0.459,0.886 0.959,0.895 0.964,0.037 1.046,-0.703 1.046,-0.703"
     id="path1314" />
  <path
     style="fill:none;stroke:#231f20;stroke-width:0.565977;stroke-linecap:butt;stroke-linejoin:miter;stroke-miterlimit:4;stroke-dasharray:none;stroke-opacity:1"
     d="m 221.12484,76.007334 c 0.339,-0.552 0.022,-2.468 0.386,-4.036 0.25,-1.057 -0.276,-3.756 0.048,-4.786 0.301,-0.948 0.337,-1.412 -0.688,-1.932 -0.604,-0.308 -1.975,-0.522 -2.23,-0.074 -0.593,1.031 -0.702,1.974 -0.609,3.036 0.125,1.21 0.713,4.464 0.88,5.058 0.417,1.464 0.136,2.146 0.208,2.542 0.136,0.755 0.459,0.886 0.959,0.895 0.964,0.037 1.046,-0.703 1.046,-0.703 z"
     id="path1315" />
  <path
     style="fill:#231f20;fill-opacity:1;fill-rule:nonzero;stroke:none"
     d="m 219.80284,67.346334 c 0.802,1.027 2.141,-0.511 2.552,-0.855 0.422,-0.353 1.724,-1.213 2.813,-1.76 1.099,-0.536 2.233,-1.682 4.323,-2.718 1.093,-0.547 1.817,-1.766 0.958,-3.318 -0.849,-1.542 -2.026,-1.646 -3.261,-0.786 -1.224,0.858 -2.016,2.177 -3.192,3.134 -1.172,0.943 -2.459,1.808 -3.495,2.434 -1.182,0.713 -1.505,1.509 -1.438,1.978 0.162,1.183 0.74,1.891 0.74,1.891"
     id="path1316" />
  <path
     style="fill:none;stroke:#231f20;stroke-width:0.565977;stroke-linecap:butt;stroke-linejoin:miter;stroke-miterlimit:4;stroke-dasharray:none;stroke-opacity:1"
     d="m 219.80284,67.346334 c 0.802,1.027 2.141,-0.511 2.552,-0.855 0.422,-0.353 1.724,-1.213 2.813,-1.76 1.099,-0.536 2.233,-1.682 4.323,-2.718 1.093,-0.547 1.817,-1.766 0.958,-3.318 -0.849,-1.542 -2.026,-1.646 -3.261,-0.786 -1.224,0.858 -2.016,2.177 -3.192,3.134 -1.172,0.943 -2.459,1.808 -3.495,2.434 -1.182,0.713 -1.505,1.509 -1.438,1.978 0.162,1.183 0.74,1.891 0.74,1.891 z"
     id="path1317" />
  <path
     style="fill:#231f20;fill-opacity:1;fill-rule:nonzero;stroke:none"
     d="m 220.45284,82.168334 c -0.358,-0.634 -0.905,-3.838 -0.994,-4.577 -0.083,-0.657 -0.583,-1.704 0.39,-2.324 0.391,-0.26 1.142,-0.348 1.459,-0.301 0.26,0.036 0.401,0.333 0.412,0.729 0.02,0.661 -0.224,0.859 -0.256,2.14 0,0 -0.057,0.303 -0.187,0.839 -0.376,1.584 -0.36,0.855 -0.39,3.27 0,0.173 -0.178,0.298 -0.292,0.287 -0.178,-0.021 -0.142,-0.063 -0.142,-0.063"
     id="path1318" />
  <path
     style="fill:none;stroke:#231f20;stroke-width:0.565977;stroke-linecap:round;stroke-linejoin:round;stroke-miterlimit:4;stroke-dasharray:none;stroke-opacity:1"
     d="m 220.45284,82.168334 c -0.358,-0.634 -0.905,-3.838 -0.994,-4.577 -0.083,-0.657 -0.583,-1.704 0.39,-2.324 0.391,-0.26 1.142,-0.348 1.459,-0.301 0.26,0.036 0.401,0.333 0.412,0.729 0.02,0.661 -0.224,0.859 -0.256,2.14 0,0 -0.057,0.303 -0.187,0.839 -0.376,1.584 -0.36,0.855 -0.39,3.27 0,0.173 -0.178,0.298 -0.292,0.287 -0.178,-0.021 -0.142,-0.063 -0.142,-0.063 z"
     id="path1319" />
  <path
     style="fill:#231f20;fill-opacity:1;fill-rule:nonzero;stroke:none"
     d="m 235.44384,70.319334 c 1.495,-2.4 1.281,-5.233 -0.48,-6.333 -1.765,-1.093 -4.405,-0.047 -5.901,2.355 -1.495,2.39 -1.276,5.229 0.485,6.328 1.755,1.098 4.401,0.046 5.896,-2.35"
     id="path1320" />
  <path
     style="fill:none;stroke:#231f20;stroke-width:0.565977;stroke-linecap:butt;stroke-linejoin:miter;stroke-miterlimit:4;stroke-dasharray:none;stroke-opacity:1"
     d="m 235.44384,70.319334 c 1.495,-2.4 1.281,-5.233 -0.48,-6.333 -1.765,-1.093 -4.405,-0.047 -5.901,2.355 -1.495,2.39 -1.276,5.229 0.485,6.328 1.755,1.098 4.401,0.046 5.896,-2.35 z"
     id="path1321" />
  <path
     style="fill:#231f20;fill-opacity:1;fill-rule:nonzero;stroke:none"
     d="m 236.03184,46.991334 c -3.536,-0.692 -2.896,-2.244 -3.12,-6.317 -0.244,-4.453 -0.02,-9.125 1.084,-12.235 1.233,-3.473 0.833,-3.801 2.729,-4.093 1.9,-0.287 2.042,0.479 2.958,1.385 1.062,1.036 -1.058,8.084 -0.624,12.818 0.197,2.218 2.118,7.401 0.744,7.86 -1.375,0.468 -3.771,0.582 -3.771,0.582"
     id="path1322" />
  <path
     style="fill:none;stroke:#231f20;stroke-width:0.565977;stroke-linecap:butt;stroke-linejoin:miter;stroke-miterlimit:4;stroke-dasharray:none;stroke-opacity:1"
     d="m 236.03184,46.991334 c -3.536,-0.692 -2.896,-2.244 -3.12,-6.317 -0.244,-4.453 -0.02,-9.125 1.084,-12.235 1.233,-3.473 0.833,-3.801 2.729,-4.093 1.9,-0.287 2.042,0.479 2.958,1.385 1.062,1.036 -1.058,8.084 -0.624,12.818 0.197,2.218 2.118,7.401 0.744,7.86 -1.375,0.468 -3.771,0.582 -3.771,0.582 z"
     id="path1323" />
  <path
     style="fill:#231f20;fill-opacity:1;fill-rule:nonzero;stroke:none"
     d="m 237.68284,26.393334 c -2.26,0.084 -2.922,0.136 -2.62,-2.35 0.078,-0.624 0.422,-2.369 0.36,-2.754 -0.194,-1.287 -0.312,-2.792 1.906,-8.995 0.344,-0.959 0.687,-2.9069999 1.047,-4.2599999 0.339,-1.313 2.287,0.151 2.156,0.667 -0.416,1.6609999 -0.328,2.8279999 -0.391,3.4419999 -0.052,0.427 -0.265,1.203 -0.041,2.854 0.577,4.234 -0.677,5.516 -0.641,6.417 0.136,2.583 0.776,4.76 0.161,5.025 -0.989,0.443 -1.937,-0.046 -1.937,-0.046"
     id="path1324" />
  <path
     style="fill:none;stroke:#231f20;stroke-width:0.565977;stroke-linecap:butt;stroke-linejoin:miter;stroke-miterlimit:4;stroke-dasharray:none;stroke-opacity:1"
     d="m 237.68284,26.393334 c -2.26,0.084 -2.922,0.136 -2.62,-2.35 0.078,-0.624 0.422,-2.369 0.36,-2.754 -0.194,-1.287 -0.312,-2.792 1.906,-8.995 0.344,-0.959 0.687,-2.9069999 1.047,-4.2599999 0.339,-1.313 2.287,0.151 2.156,0.667 -0.416,1.6609999 -0.328,2.8279999 -0.391,3.4419999 -0.052,0.427 -0.265,1.203 -0.041,2.854 0.577,4.234 -0.677,5.516 -0.641,6.417 0.136,2.583 0.776,4.76 0.161,5.025 -0.989,0.443 -1.937,-0.046 -1.937,-0.046 z"
     id="path1325" />
  <path
     style="fill:#231f20;fill-opacity:1;fill-rule:nonzero;stroke:none"
     d="m 242.26684,47.054334 c 3.577,-0.411 3.068,-2.005 3.614,-6.052 0.594,-4.416 0.739,-9.093 -0.12,-12.281 -0.953,-3.552 -0.526,-3.848 -2.396,-4.292 -1.864,-0.443 -2.073,0.313 -3.057,1.141 -1.136,0.959 0.417,8.145 -0.385,12.828 -0.38,2.199 -2.703,7.208 -1.37,7.781 1.339,0.574 3.714,0.875 3.714,0.875"
     id="path1326" />
  <path
     style="fill:none;stroke:#231f20;stroke-width:0.565977;stroke-linecap:butt;stroke-linejoin:miter;stroke-miterlimit:4;stroke-dasharray:none;stroke-opacity:1"
     d="m 242.26684,47.054334 c 3.577,-0.411 3.068,-2.005 3.614,-6.052 0.594,-4.416 0.739,-9.093 -0.12,-12.281 -0.953,-3.552 -0.526,-3.848 -2.396,-4.292 -1.864,-0.443 -2.073,0.313 -3.057,1.141 -1.136,0.959 0.417,8.145 -0.385,12.828 -0.38,2.199 -2.703,7.208 -1.37,7.781 1.339,0.574 3.714,0.875 3.714,0.875 z"
     id="path1327" />
  <path
     style="fill:#231f20;fill-opacity:1;fill-rule:nonzero;stroke:none"
     d="m 242.27184,26.398334 c 2.249,0.255 2.905,0.36 2.787,-2.14 -0.032,-0.641 -0.251,-2.401 -0.163,-2.781 0.292,-1.262 0.521,-2.756 -1.239,-9.1 -0.265,-0.984 -0.469,-2.9519999 -0.718,-4.3329999 -0.256,-1.334 -2.298,-0.02 -2.204,0.505 0.286,1.6879999 0.114,2.8439999 0.136,3.4639999 0.016,0.426 0.182,1.213 -0.167,2.849 -0.896,4.181 0.271,5.552 0.156,6.448 -0.312,2.563 -1.115,4.687 -0.525,5 0.957,0.509 1.937,0.088 1.937,0.088"
     id="path1328" />
  <path
     style="fill:none;stroke:#231f20;stroke-width:0.565977;stroke-linecap:butt;stroke-linejoin:miter;stroke-miterlimit:4;stroke-dasharray:none;stroke-opacity:1"
     d="m 242.27184,26.398334 c 2.249,0.255 2.905,0.36 2.787,-2.14 -0.032,-0.641 -0.251,-2.401 -0.163,-2.781 0.292,-1.262 0.521,-2.756 -1.239,-9.1 -0.265,-0.984 -0.469,-2.9519999 -0.718,-4.3329999 -0.256,-1.334 -2.298,-0.02 -2.204,0.505 0.286,1.6879999 0.114,2.8439999 0.136,3.4639999 0.016,0.426 0.182,1.213 -0.167,2.849 -0.896,4.181 0.271,5.552 0.156,6.448 -0.312,2.563 -1.115,4.687 -0.525,5 0.957,0.509 1.937,0.088 1.937,0.088 z"
     id="path1329" />
  <path
     style="fill:#231f20;fill-opacity:1;fill-rule:nonzero;stroke:none"
     d="m 243.72884,4.6223341 c 0.278,0.61 -0.962,1.922 -1.036,3.886 -0.016,0.406 -0.218,0.718 -0.364,1.062 -0.594,1.3909999 -1.89,2.3169999 -2.729,-1.417 -0.115,-0.515 0.317,-2.572 0.088,-3.323 -0.557,-1.781 1.12,-4.64500002 1.615,-4.50000002 1.073,0.314 2.426,4.29200002 2.426,4.29200002"
     id="path1330" />
  <path
     style="fill:none;stroke:#231f20;stroke-width:0.644548;stroke-linecap:round;stroke-linejoin:round;stroke-miterlimit:4;stroke-dasharray:none;stroke-opacity:1"
     d="m 243.72884,4.6223341 c 0.278,0.61 -0.962,1.922 -1.036,3.886 -0.016,0.406 -0.218,0.718 -0.364,1.062 -0.594,1.3909999 -1.89,2.3169999 -2.729,-1.417 -0.115,-0.515 0.317,-2.572 0.088,-3.323 -0.557,-1.781 1.12,-4.64500002 1.615,-4.50000002 1.073,0.314 2.426,4.29200002 2.426,4.29200002 z"
     id="path1331" />
  <path
     style="fill:#231f20;fill-opacity:1;fill-rule:nonzero;stroke:none"
     d="m 237.59484,4.3203341 c -0.344,0.573 0.74,2.016 0.582,3.98 -0.025,0.401 0.136,0.739 0.246,1.098 0.426,1.4479999 1.614,2.5159999 2.869,-1.098 0.172,-0.506 -0.009,-2.594 0.297,-3.314 0.755,-1.702 -0.582,-4.74900002 -1.093,-4.65600002 -1.1,0.188 -2.901,3.99000002 -2.901,3.99000002"
     id="path1332" />
  <path
     style="fill:none;stroke:#231f20;stroke-width:0.644548;stroke-linecap:round;stroke-linejoin:round;stroke-miterlimit:4;stroke-dasharray:none;stroke-opacity:1"
     d="m 237.59484,4.3203341 c -0.344,0.573 0.74,2.016 0.582,3.98 -0.025,0.401 0.136,0.739 0.246,1.098 0.426,1.4479999 1.614,2.5159999 2.869,-1.098 0.172,-0.506 -0.009,-2.594 0.297,-3.314 0.755,-1.702 -0.582,-4.74900002 -1.093,-4.65600002 -1.1,0.188 -2.901,3.99000002 -2.901,3.99000002 z"
     id="path1333" />
  <path
     style="fill:#231f20;fill-opacity:1;fill-rule:nonzero;stroke:none"
     d="m 235.02684,42.330334 c 0.401,0.6 3.005,2.547 3.62,2.969 0.546,0.38 1.249,1.298 2.249,0.714 0.396,-0.235 0.829,-0.86 0.933,-1.162 0.083,-0.24 -0.114,-0.505 -0.458,-0.698 -0.584,-0.323 -0.88,-0.192 -2.031,-0.744 0,0 -0.292,-0.09 -0.819,-0.219 -1.588,-0.391 -0.932,-0.073 -3.098,-1.147 -0.156,-0.077 -0.344,0.027 -0.386,0.131 -0.068,0.167 -0.01,0.156 -0.01,0.156"
     id="path1334" />
  <path
     style="fill:none;stroke:#231f20;stroke-width:0.565977;stroke-linecap:round;stroke-linejoin:round;stroke-miterlimit:4;stroke-dasharray:none;stroke-opacity:1"
     d="m 235.02684,42.330334 c 0.401,0.6 3.005,2.547 3.62,2.969 0.546,0.38 1.249,1.298 2.249,0.714 0.396,-0.235 0.829,-0.86 0.933,-1.162 0.083,-0.24 -0.114,-0.505 -0.458,-0.698 -0.584,-0.323 -0.88,-0.192 -2.031,-0.744 0,0 -0.292,-0.09 -0.819,-0.219 -1.588,-0.391 -0.932,-0.073 -3.098,-1.147 -0.156,-0.077 -0.344,0.027 -0.386,0.131 -0.068,0.167 -0.01,0.156 -0.01,0.156 z"
     id="path1335" />
  <path
     style="fill:#0098c9;fill-opacity:1;fill-rule:nonzero;stroke:none"
     d="m 243.48484,50.597334 c 0.198,-0.715 2.031,-2.292 0.922,-1.715 l -0.339,-0.115 c -2.192,-2.213 -1.233,-7.984 -1.233,-7.984 0,0 -0.459,-0.582 -0.939,-0.718 -0.473,-0.14 -1.176,0.098 -1.176,0.098 0,0 -2.319,5.366 -5.36,6.043 l -0.344,-0.089 c -0.624,-1.083 0.063,1.224 -0.161,1.937 -0.974,3.099 -3.646,7.448 -4.604,8.38 -1.318,1.272 -3.938,1.032 -3.448,3.141 0,0 0.068,1.948 2.844,2.38 1.005,0.167 2.921,1.479 2.921,1.479 0,0 1.048,0.86 2.157,1.209 0.979,0.312 2.114,0.156 2.354,0.115 h 0.005 c 0,0 2.323,-0.057 3.256,0.348 2.561,1.136 3.703,-0.744 3.703,-0.744 1.541,-1.511 -0.803,-2.448 -1.214,-4.235 -0.308,-1.297 -0.198,-6.396 0.656,-9.53"
     id="path1336" />
  <path
     style="fill:none;stroke:#231f20;stroke-width:0.565977;stroke-linecap:butt;stroke-linejoin:miter;stroke-miterlimit:4;stroke-dasharray:none;stroke-opacity:1"
     d="m 243.48484,50.597334 c 0.198,-0.715 2.031,-2.292 0.922,-1.715 l -0.339,-0.115 c -2.192,-2.213 -1.233,-7.984 -1.233,-7.984 0,0 -0.459,-0.582 -0.939,-0.718 -0.473,-0.14 -1.176,0.098 -1.176,0.098 0,0 -2.319,5.366 -5.36,6.043 l -0.344,-0.089 c -0.624,-1.083 0.063,1.224 -0.161,1.937 -0.974,3.099 -3.646,7.448 -4.604,8.38 -1.318,1.272 -3.938,1.032 -3.448,3.141 0,0 0.068,1.948 2.844,2.38 1.005,0.167 2.921,1.479 2.921,1.479 0,0 1.048,0.86 2.157,1.209 0.979,0.312 2.114,0.156 2.354,0.115 h 0.005 c 0,0 2.323,-0.057 3.256,0.348 2.561,1.136 3.703,-0.744 3.703,-0.744 1.541,-1.511 -0.803,-2.448 -1.214,-4.235 -0.308,-1.297 -0.198,-6.396 0.656,-9.53 z"
     id="path1337" />
  <path
     style="fill:#0098c9;fill-opacity:1;fill-rule:nonzero;stroke:none"
     d="m 244.13584,49.991334 c 0.224,-0.26 0.989,-1.4 1.204,-1.806 1.353,-2.646 1.645,-6.588 2.031,-7.803 0.396,-1.213 -6.178,-1.785 -6.178,-1.785 l -0.901,1.156 c -0.405,-0.475 -0.181,-0.016 -0.181,-0.016 l -0.814,-1.402 c 0,0 -6.405,-0.869 -6.353,0.147 0.067,1.385 -0.287,6 0.427,8.337 0.39,1.292 1.098,2.038 1.098,2.038 0,0 3.73,-0.73 5.151,-0.594 1.423,0.14 4.516,1.728 4.516,1.728"
     id="path1338" />
  <path
     style="fill:none;stroke:#231f20;stroke-width:0.565977;stroke-linecap:butt;stroke-linejoin:miter;stroke-miterlimit:4;stroke-dasharray:none;stroke-opacity:1"
     d="m 244.13584,49.991334 c 0.224,-0.26 0.989,-1.4 1.204,-1.806 1.353,-2.646 1.645,-6.588 2.031,-7.803 0.396,-1.213 -6.178,-1.785 -6.178,-1.785 l -0.901,1.156 c -0.405,-0.475 -0.181,-0.016 -0.181,-0.016 l -0.814,-1.402 c 0,0 -6.405,-0.869 -6.353,0.147 0.067,1.385 -0.287,6 0.427,8.337 0.39,1.292 1.098,2.038 1.098,2.038 0,0 3.73,-0.73 5.151,-0.594 1.423,0.14 4.516,1.728 4.516,1.728 z"
     id="path1339" />
  <path
     style="fill:none;stroke:#231f20;stroke-width:0.565977;stroke-linecap:round;stroke-linejoin:round;stroke-miterlimit:4;stroke-dasharray:none;stroke-opacity:1"
     d="m 243.34384,40.486334 c -1.187,-1.353 -3.213,-0.588 -3.213,-0.588 -1.646,-0.807 -3.14,-0.213 -3.14,-0.213"
     id="path1340" />
  <path
     style="fill:none;stroke:#231f20;stroke-width:0.399514;stroke-linecap:butt;stroke-linejoin:miter;stroke-miterlimit:4;stroke-dasharray:none;stroke-opacity:1"
     d="m 227.34384,27.163334 c 19.084,-18.3739999 28.772,-9.29 25.819,-1.41"
     id="path1341" />
  <path
     style="fill:#231f20;fill-opacity:1;fill-rule:nonzero;stroke:none"
     d="m 252.73484,26.877334 c 0.005,-0.604 -0.083,-1.391 -0.286,-1.932 l 0.766,0.656 1.01,0.01 c -0.505,0.276 -1.094,0.808 -1.49,1.266"
     id="path1342" />
  <path
     style="fill:#231f20;fill-opacity:1;fill-rule:nonzero;stroke:none"
     d="m 266.84884,81.398334 c -0.192,-0.62 0.59,-2.401 0.62,-4.005 0.022,-1.088 1.188,-3.568 1.131,-4.656 -0.057,-0.984 0.016,-1.448 1.135,-1.703 0.661,-0.157 2.042,-0.016 2.182,0.479 0.318,1.14 0.194,2.088 -0.156,3.088 -0.412,1.146 -1.786,4.161 -2.093,4.688 -0.761,1.322 -0.652,2.046 -0.829,2.417 -0.307,0.697 -0.656,0.738 -1.146,0.635 -0.942,-0.203 -0.844,-0.943 -0.844,-0.943"
     id="path1343" />
  <path
     style="fill:none;stroke:#231f20;stroke-width:0.565977;stroke-linecap:butt;stroke-linejoin:miter;stroke-miterlimit:4;stroke-dasharray:none;stroke-opacity:1"
     d="m 266.84884,81.398334 c -0.192,-0.62 0.59,-2.401 0.62,-4.005 0.022,-1.088 1.188,-3.568 1.131,-4.656 -0.057,-0.984 0.016,-1.448 1.135,-1.703 0.661,-0.157 2.042,-0.016 2.182,0.479 0.318,1.14 0.194,2.088 -0.156,3.088 -0.412,1.146 -1.786,4.161 -2.093,4.688 -0.761,1.322 -0.652,2.046 -0.829,2.417 -0.307,0.697 -0.656,0.738 -1.146,0.635 -0.942,-0.203 -0.844,-0.943 -0.844,-0.943 z"
     id="path1344" />
  <path
     style="fill:#231f20;fill-opacity:1;fill-rule:nonzero;stroke:none"
     d="m 269.51584,73.247334 c -1.249,-0.349 -0.353,-2.177 -0.192,-2.688 0.161,-0.525 0.459,-2.057 0.531,-3.27 0.078,-1.224 0.698,-2.719 0.844,-5.036 0.073,-1.224 0.917,-2.366 2.693,-2.172 1.744,0.186 2.296,1.238 1.984,2.702 -0.323,1.464 -1.24,2.703 -1.667,4.151 -0.417,1.453 -0.713,2.975 -0.89,4.172 -0.199,1.371 -0.808,1.969 -1.271,2.089 -1.152,0.307 -2.032,0.052 -2.032,0.052"
     id="path1345" />
  <path
     style="fill:none;stroke:#231f20;stroke-width:0.565977;stroke-linecap:butt;stroke-linejoin:miter;stroke-miterlimit:4;stroke-dasharray:none;stroke-opacity:1"
     d="m 269.51584,73.247334 c -1.249,-0.349 -0.353,-2.177 -0.192,-2.688 0.161,-0.525 0.459,-2.057 0.531,-3.27 0.078,-1.224 0.698,-2.719 0.844,-5.036 0.073,-1.224 0.917,-2.366 2.693,-2.172 1.744,0.186 2.296,1.238 1.984,2.702 -0.323,1.464 -1.24,2.703 -1.667,4.151 -0.417,1.453 -0.713,2.975 -0.89,4.172 -0.199,1.371 -0.808,1.969 -1.271,2.089 -1.152,0.307 -2.032,0.052 -2.032,0.052 z"
     id="path1346" />
  <path
     style="fill:#231f20;fill-opacity:1;fill-rule:nonzero;stroke:none"
     d="m 265.41684,87.799334 c 0.59,-0.432 2.391,-3.136 2.776,-3.77 0.344,-0.568 1.224,-1.319 0.59,-2.282 -0.256,-0.396 -0.902,-0.786 -1.215,-0.874 -0.244,-0.068 -0.5,0.145 -0.667,0.5 -0.29,0.598 -0.14,0.885 -0.634,2.061 0,0 -0.079,0.303 -0.172,0.839 -0.303,1.604 -0.022,0.928 -0.979,3.156 -0.068,0.151 0.041,0.333 0.151,0.37 0.172,0.057 0.15,0 0.15,0"
     id="path1347" />
  <path
     style="fill:none;stroke:#231f20;stroke-width:0.565977;stroke-linecap:round;stroke-linejoin:round;stroke-miterlimit:4;stroke-dasharray:none;stroke-opacity:1"
     d="m 265.41684,87.799334 c 0.59,-0.432 2.391,-3.136 2.776,-3.77 0.344,-0.568 1.224,-1.319 0.59,-2.282 -0.256,-0.396 -0.902,-0.786 -1.215,-0.874 -0.244,-0.068 -0.5,0.145 -0.667,0.5 -0.29,0.598 -0.14,0.885 -0.634,2.061 0,0 -0.079,0.303 -0.172,0.839 -0.303,1.604 -0.022,0.928 -0.979,3.156 -0.068,0.151 0.041,0.333 0.151,0.37 0.172,0.057 0.15,0 0.15,0 z"
     id="path1348" />
  <path
     style="fill:#231f20;fill-opacity:1;fill-rule:nonzero;stroke:none"
     d="m 271.63084,8.1533341 c -1.042,0.854 -0.73,1.797 0.152,2.3379999 0.26,0.162 0.322,0.574 0.588,0.715 0.636,0.312 2.27,-0.287 2.114,-1.7869999 -0.01,-0.094 0.151,-0.901 0.178,-1.521 0.057,-1.218 -0.423,-3.661 -2.672,-5.15 -1.068,-0.704 -1.287,0.057 -0.943,0.468 1.093,1.318 0.932,1.652 1.093,2.1 0.552,1.525 -0.51,2.837 -0.51,2.837"
     id="path1349" />
  <path
     style="fill:none;stroke:#231f20;stroke-width:0.332927;stroke-linecap:butt;stroke-linejoin:miter;stroke-miterlimit:4;stroke-dasharray:none;stroke-opacity:1"
     d="m 271.63084,8.1533341 c -1.042,0.854 -0.73,1.797 0.152,2.3379999 0.26,0.162 0.322,0.574 0.588,0.715 0.636,0.312 2.27,-0.287 2.114,-1.7869999 -0.01,-0.094 0.151,-0.901 0.178,-1.521 0.057,-1.218 -0.423,-3.661 -2.672,-5.15 -1.068,-0.704 -1.287,0.057 -0.943,0.468 1.093,1.318 0.932,1.652 1.093,2.1 0.552,1.525 -0.51,2.837 -0.51,2.837 z"
     id="path1350" />
  <path
     style="fill:#ffffff;fill-opacity:1;fill-rule:nonzero;stroke:none"
     d="m 273.87584,26.767334 c -2.24,0.371 -2.724,0.142 -2.937,-0.796 -0.152,-0.614 -0.495,-1.146 -0.604,-1.516 -0.355,-1.249 -0.439,-3.494 0.989,-9.916 0.328,-1.458 0.771,-3.505 0.875,-4.365 0.188,-1.3439999 2.297,-0.135 2.229,0.391 -0.203,1.708 -0.213,2.89 -0.199,3.521 0,0.421 -0.082,1.181 0.152,2.823 0.364,2.505 0.954,3.948 1.006,6.062 0.025,0.984 0.676,1.703 0.202,2.678 -0.458,0.989 -1.713,1.118 -1.713,1.118"
     id="path1351" />
  <path
     style="fill:none;stroke:#231f20;stroke-width:0.565977;stroke-linecap:butt;stroke-linejoin:miter;stroke-miterlimit:4;stroke-dasharray:none;stroke-opacity:1"
     d="m 273.87584,26.767334 c -2.24,0.371 -2.724,0.142 -2.937,-0.796 -0.152,-0.614 -0.495,-1.146 -0.604,-1.516 -0.355,-1.249 -0.439,-3.494 0.989,-9.916 0.328,-1.458 0.771,-3.505 0.875,-4.365 0.188,-1.3439999 2.297,-0.135 2.229,0.391 -0.203,1.708 -0.213,2.89 -0.199,3.521 0,0.421 -0.082,1.181 0.152,2.823 0.364,2.505 0.954,3.948 1.006,6.062 0.025,0.984 0.676,1.703 0.202,2.678 -0.458,0.989 -1.713,1.118 -1.713,1.118 z"
     id="path1352" />
  <path
     style="fill:#0098c9;fill-opacity:1;fill-rule:nonzero;stroke:none"
     d="m 271.87584,52.622334 c -0.136,-3.131 -0.505,-3.787 -0.907,-4.615 -2.494,-5.218 0.11,-6.344 2.97,-5.942 3.358,0.458 4.572,0.562 4.244,6.854 -0.094,1.744 0.433,8.5 0.433,8.5 0.52,2.391 -0.256,5 -1.423,5.87 -1.234,0.912 -0.812,0.458 -2.109,1.098 -1.235,0.61 -3.411,0.454 -4.14,-0.546 -0.704,-0.954 -0.048,-2.49 0.604,-4.823 0.515,-1.844 0.328,-6.396 0.328,-6.396"
     id="path1353" />
  <path
     style="fill:none;stroke:#231f20;stroke-width:0.565977;stroke-linecap:butt;stroke-linejoin:miter;stroke-miterlimit:4;stroke-dasharray:none;stroke-opacity:1"
     d="m 271.87584,52.622334 c -0.136,-3.131 -0.505,-3.787 -0.907,-4.615 -2.494,-5.218 0.11,-6.344 2.97,-5.942 3.358,0.458 4.572,0.562 4.244,6.854 -0.094,1.744 0.433,8.5 0.433,8.5 0.52,2.391 -0.256,5 -1.423,5.87 -1.234,0.912 -0.812,0.458 -2.109,1.098 -1.235,0.61 -3.411,0.454 -4.14,-0.546 -0.704,-0.954 -0.048,-2.49 0.604,-4.823 0.515,-1.844 0.328,-6.396 0.328,-6.396 z"
     id="path1354" />
  <path
     style="fill:#ffffff;fill-opacity:1;fill-rule:nonzero;stroke:none"
     d="m 275.33984,71.065334 c -0.016,0.245 1.077,0.604 0.947,1.114 -0.13,0.511 -0.916,0.516 -2.176,2.052 l -0.016,0.016 c -0.891,1.151 -2.12,1.792 -3.355,1.583 -2.052,-0.344 -3.328,-2.88 -2.864,-5.667 0.468,-2.781 2.511,-4.76 4.557,-4.416 1.959,0.323 3.214,2.672 2.907,5.318"
     id="path1355" />
  <path
     style="fill:none;stroke:#231f20;stroke-width:0.565977;stroke-linecap:butt;stroke-linejoin:miter;stroke-miterlimit:4;stroke-dasharray:none;stroke-opacity:1"
     d="m 275.33984,71.065334 c -0.016,0.245 1.077,0.604 0.947,1.114 -0.13,0.511 -0.916,0.516 -2.176,2.052 l -0.016,0.016 c -0.891,1.151 -2.12,1.792 -3.355,1.583 -2.052,-0.344 -3.328,-2.88 -2.864,-5.667 0.468,-2.781 2.511,-4.76 4.557,-4.416 1.959,0.323 3.214,2.672 2.907,5.318 z"
     id="path1356" />
  <path
     style="fill:#ffffff;fill-opacity:1;fill-rule:nonzero;stroke:#231f20;stroke-width:0.565977;stroke-linecap:round;stroke-linejoin:round;stroke-miterlimit:4;stroke-dasharray:none;stroke-opacity:1"
     d="m 274.80284,24.445334 c 1.682,0.578 1.161,3.141 1.256,3.505 1.254,4.849 1.218,5.235 1.916,8.984 1.01,5.439 0.864,9.319 -2.126,10.824 -2.03,1.02 -3.64,0.739 -4.629,-0.136 -1.089,-0.969 -2.224,-3.943 -0.495,-6.255 l 0.146,-1.709 c -0.047,-1.156 -0.063,-1.728 -0.131,-2.301 -0.12,-0.995 -0.192,-2.068 -0.312,-4.022 -0.224,-3.468 0.677,-7.197 0.677,-7.197 -0.016,-0.287 0.072,-0.532 0.219,-0.729"
     id="path1357" />
  <path
     style="fill:#231f20;fill-opacity:1;fill-rule:nonzero;stroke:none"
     d="m 275.21984,82.117334 c 0.364,-0.526 0.161,-2.464 0.615,-4.006 0.306,-1.041 -0.063,-3.765 0.328,-4.781 0.348,-0.927 0.421,-1.385 -0.574,-1.968 -0.588,-0.344 -1.942,-0.631 -2.224,-0.204 -0.645,1 -0.812,1.933 -0.776,2.995 0.047,1.22 0.448,4.505 0.579,5.105 0.328,1.484 0.009,2.151 0.061,2.552 0.09,0.755 0.407,0.905 0.907,0.952 0.948,0.089 1.084,-0.645 1.084,-0.645"
     id="path1358" />
  <path
     style="fill:none;stroke:#231f20;stroke-width:0.565977;stroke-linecap:butt;stroke-linejoin:miter;stroke-miterlimit:4;stroke-dasharray:none;stroke-opacity:1"
     d="m 275.21984,82.117334 c 0.364,-0.526 0.161,-2.464 0.615,-4.006 0.306,-1.041 -0.063,-3.765 0.328,-4.781 0.348,-0.927 0.421,-1.385 -0.574,-1.968 -0.588,-0.344 -1.942,-0.631 -2.224,-0.204 -0.645,1 -0.812,1.933 -0.776,2.995 0.047,1.22 0.448,4.505 0.579,5.105 0.328,1.484 0.009,2.151 0.061,2.552 0.09,0.755 0.407,0.905 0.907,0.952 0.948,0.089 1.084,-0.645 1.084,-0.645 z"
     id="path1359" />
  <path
     style="fill:#231f20;fill-opacity:1;fill-rule:nonzero;stroke:none"
     d="m 275.54284,73.065334 c 1.296,-0.099 0.77,-2.068 0.713,-2.604 -0.057,-0.542 -0.047,-2.094 0.125,-3.308 0.162,-1.219 -0.152,-2.796 0.156,-5.104 0.162,-1.214 -0.448,-2.495 -2.218,-2.656 -1.746,-0.156 -2.495,0.765 -2.47,2.265 0.022,1.495 0.683,2.885 0.814,4.396 0.129,1.505 0.12,3.052 0.057,4.265 -0.068,1.382 0.405,2.095 0.839,2.303 1.072,0.521 1.984,0.443 1.984,0.443"
     id="path1360" />
  <path
     style="fill:none;stroke:#231f20;stroke-width:0.565977;stroke-linecap:butt;stroke-linejoin:miter;stroke-miterlimit:4;stroke-dasharray:none;stroke-opacity:1"
     d="m 275.54284,73.065334 c 1.296,-0.099 0.77,-2.068 0.713,-2.604 -0.057,-0.542 -0.047,-2.094 0.125,-3.308 0.162,-1.219 -0.152,-2.796 0.156,-5.104 0.162,-1.214 -0.448,-2.495 -2.218,-2.656 -1.746,-0.156 -2.495,0.765 -2.47,2.265 0.022,1.495 0.683,2.885 0.814,4.396 0.129,1.505 0.12,3.052 0.057,4.265 -0.068,1.382 0.405,2.095 0.839,2.303 1.072,0.521 1.984,0.443 1.984,0.443 z"
     id="path1361" />
  <path
     style="fill:#ffffff;fill-opacity:1;fill-rule:nonzero;stroke:none"
     d="m 272.76084,83.586334 c 0.355,-0.964 1.422,-1.459 2.386,-1.104 0.964,0.353 1.458,1.416 1.104,2.385 -0.35,0.963 -1.422,1.458 -2.386,1.104 -0.969,-0.349 -1.458,-1.422 -1.104,-2.385"
     id="path1362" />
  <path
     style="fill:none;stroke:#231f20;stroke-width:1.33171;stroke-linecap:butt;stroke-linejoin:miter;stroke-miterlimit:4;stroke-dasharray:none;stroke-opacity:1"
     d="m 272.76084,83.586334 c 0.355,-0.964 1.422,-1.459 2.386,-1.104 0.964,0.353 1.458,1.416 1.104,2.385 -0.35,0.963 -1.422,1.458 -2.386,1.104 -0.969,-0.349 -1.458,-1.422 -1.104,-2.385 z"
     id="path1363" />
  <path
     style="fill:#231f20;fill-opacity:1;fill-rule:nonzero;stroke:none"
     d="m 272.57284,26.925334 c -2.208,0.53 -2.708,0.338 -2.994,-0.579 -0.192,-0.599 -0.578,-1.109 -0.708,-1.473 -0.448,-1.215 -0.699,-3.448 0.245,-9.959 0.219,-1.48 0.504,-3.557 0.547,-4.417 0.082,-1.3539999 2.281,-0.307 2.254,0.224 -0.078,1.718 0,2.896 0.063,3.521 0.031,0.427 0,1.187 0.36,2.812 0.552,2.469 1.244,3.86 1.457,5.964 0.099,0.979 0.798,1.651 0.402,2.656 -0.386,1.021 -1.626,1.251 -1.626,1.251"
     id="path1364" />
  <path
     style="fill:none;stroke:#231f20;stroke-width:0.565977;stroke-linecap:butt;stroke-linejoin:miter;stroke-miterlimit:4;stroke-dasharray:none;stroke-opacity:1"
     d="m 272.57284,26.925334 c -2.208,0.53 -2.708,0.338 -2.994,-0.579 -0.192,-0.599 -0.578,-1.109 -0.708,-1.473 -0.448,-1.215 -0.699,-3.448 0.245,-9.959 0.219,-1.48 0.504,-3.557 0.547,-4.417 0.082,-1.3539999 2.281,-0.307 2.254,0.224 -0.078,1.718 0,2.896 0.063,3.521 0.031,0.427 0,1.187 0.36,2.812 0.552,2.469 1.244,3.86 1.457,5.964 0.099,0.979 0.798,1.651 0.402,2.656 -0.386,1.021 -1.626,1.251 -1.626,1.251 z"
     id="path1365" />
  <path
     style="fill:#231f20;fill-opacity:1;fill-rule:nonzero;stroke:none"
     d="m 271.45284,24.715334 c 3.803,-1.276 3.235,2.767 3.386,3.219 1.61,4.745 1.605,5.131 2.578,8.819 1.412,5.348 1.558,9.224 -1.312,10.953 -1.948,1.167 -3.578,1.004 -4.625,0.208 -1.156,-0.891 -2.511,-3.765 -0.959,-6.199 l 0.016,-1.718 c -0.13,-1.151 -0.193,-1.719 -0.308,-2.287 -0.186,-0.984 -0.342,-2.047 -0.609,-3.984 -0.479,-3.437 0.136,-7.229 0.136,-7.229 -0.145,-1.244 1.697,-1.782 1.697,-1.782"
     id="path1366" />
  <path
     style="fill:none;stroke:#231f20;stroke-width:0.565977;stroke-linecap:butt;stroke-linejoin:miter;stroke-miterlimit:4;stroke-dasharray:none;stroke-opacity:1"
     d="m 271.45284,24.715334 c 3.803,-1.276 3.235,2.767 3.386,3.219 1.61,4.745 1.605,5.131 2.578,8.819 1.412,5.348 1.558,9.224 -1.312,10.953 -1.948,1.167 -3.578,1.004 -4.625,0.208 -1.156,-0.891 -2.511,-3.765 -0.959,-6.199 l 0.016,-1.718 c -0.13,-1.151 -0.193,-1.719 -0.308,-2.287 -0.186,-0.984 -0.342,-2.047 -0.609,-3.984 -0.479,-3.437 0.136,-7.229 0.136,-7.229 -0.145,-1.244 1.697,-1.782 1.697,-1.782 z"
     id="path1367" />
  <path
     style="fill:#231f20;fill-opacity:1;fill-rule:nonzero;stroke:none"
     d="m 268.94884,8.5243341 c -0.98,0.926 -0.6,1.8429999 0.323,2.3169999 0.271,0.15 0.364,0.552 0.64,0.666 0.656,0.266 2.24,-0.453 1.969,-1.9319999 -0.016,-0.098 0.088,-0.911 0.068,-1.531 -0.037,-1.219 -0.698,-3.624 -3.048,-4.932 -1.118,-0.63 -1.281,0.146 -0.905,0.532 1.187,1.233 1.052,1.577 1.249,2.009 0.662,1.485 -0.296,2.871 -0.296,2.871"
     id="path1368" />
  <path
     style="fill:none;stroke:#231f20;stroke-width:0.332927;stroke-linecap:butt;stroke-linejoin:miter;stroke-miterlimit:4;stroke-dasharray:none;stroke-opacity:1"
     d="m 268.94884,8.5243341 c -0.98,0.926 -0.6,1.8429999 0.323,2.3169999 0.271,0.15 0.364,0.552 0.64,0.666 0.656,0.266 2.24,-0.453 1.969,-1.9319999 -0.016,-0.098 0.088,-0.911 0.068,-1.531 -0.037,-1.219 -0.698,-3.624 -3.048,-4.932 -1.118,-0.63 -1.281,0.146 -0.905,0.532 1.187,1.233 1.052,1.577 1.249,2.009 0.662,1.485 -0.296,2.871 -0.296,2.871 z"
     id="path1369" />
  <path
     style="fill:#0098c9;fill-opacity:1;fill-rule:nonzero;stroke:none"
     d="m 278.82884,42.815334 c -0.026,-0.068 -0.046,-0.146 -0.068,-0.229 0.063,-0.579 0.099,-1.188 0.104,-1.844 l -7.797,0.432 c -1.957,2.125 -1.124,5.203 -0.135,6.271 0.891,0.974 2.468,1.422 4.594,0.609 1.369,-0.525 2.229,-1.577 2.734,-3.047 0.552,-0.89 0.864,-1.442 0.568,-2.192"
     id="path1370" />
  <path
     style="fill:none;stroke:#231f20;stroke-width:0.565977;stroke-linecap:butt;stroke-linejoin:miter;stroke-miterlimit:4;stroke-dasharray:none;stroke-opacity:1"
     d="m 278.82884,42.815334 c -0.026,-0.068 -0.046,-0.146 -0.068,-0.229 0.063,-0.579 0.099,-1.188 0.104,-1.844 l -7.797,0.432 c -1.957,2.125 -1.124,5.203 -0.135,6.271 0.891,0.974 2.468,1.422 4.594,0.609 1.369,-0.525 2.229,-1.577 2.734,-3.047 0.552,-0.89 0.864,-1.442 0.568,-2.192 z"
     id="path1371" />
  <path
     style="fill:none;stroke:#231f20;stroke-width:0.399514;stroke-linecap:butt;stroke-linejoin:miter;stroke-miterlimit:4;stroke-dasharray:none;stroke-opacity:1"
     d="m 259.00084,27.163334 c 19.083,-18.3739999 28.771,-9.29 25.812,-1.41"
     id="path1372" />
  <path
     style="fill:#231f20;fill-opacity:1;fill-rule:nonzero;stroke:none"
     d="m 284.38684,26.877334 c 0.005,-0.604 -0.084,-1.391 -0.287,-1.932 l 0.771,0.656 1.01,0.01 c -0.51,0.276 -1.094,0.808 -1.494,1.266"
     id="path1373" />
</svg>
