<?xml version="1.0" encoding="UTF-8" standalone="no"?>
<!-- Created with Inkscape (http://www.inkscape.org/) -->

<svg
   version="1.1"
   id="svg1"
   width="360.47702"
   height="136.74245"
   viewBox="0 0 360.477 136.74245"
   sodipodi:docname="cell.svg"
   xmlns:inkscape="http://www.inkscape.org/namespaces/inkscape"
   xmlns:sodipodi="http://sodipodi.sourceforge.net/DTD/sodipodi-0.dtd"
   xmlns="http://www.w3.org/2000/svg"
   xmlns:svg="http://www.w3.org/2000/svg">
  <sodipodi:namedview
     id="namedview1"
     pagecolor="#ffffff"
     bordercolor="#000000"
     borderopacity="0.25"
     inkscape:showpageshadow="2"
     inkscape:pageopacity="0.0"
     inkscape:pagecheckerboard="0"
     inkscape:deskcolor="#d1d1d1">
    <inkscape:page
       x="0"
       y="0"
       inkscape:label="1"
       id="page1"
       width="360.47699"
       height="136.74245"
       margin="0"
       bleed="0" />
  </sodipodi:namedview>
  <defs
     id="defs1" />
  <path
     style="fill:#ffffff;fill-opacity:1;fill-rule:nonzero;stroke:none"
     d="m 164.177,9.995 h 18.875 V 0 h -18.875 z"
     id="path1374" />
  <path
     style="fill:#ffffff;fill-opacity:1;fill-rule:nonzero;stroke:none"
     d="M 0,9.995 H 16.953 V 0 H 0 Z"
     id="path1375" />
  <path
     style="fill:#ffffff;fill-opacity:1;fill-rule:nonzero;stroke:none"
     d="m 341.617,9.995 h 18.86 V 0 h -18.86 z"
     id="path1376" />
  <path
     style="fill:#231f20;fill-opacity:1;fill-rule:nonzero;stroke:none"
     d="m 253.193,17.949 c 1.109,0.77 0.869,1.733 0.025,2.338 -0.249,0.187 -0.276,0.599 -0.531,0.755 -0.609,0.364 -2.286,-0.115 -2.24,-1.615 0,-0.109 -0.218,-0.896 -0.297,-1.51 -0.14,-1.208 0.152,-3.687 2.281,-5.334 1.011,-0.786 1.287,-0.046 0.975,0.402 -0.989,1.39 -0.808,1.708 -0.932,2.172 -0.439,1.562 0.719,2.792 0.719,2.792"
     id="path1377" />
  <path
     style="fill:none;stroke:#231f20;stroke-width:0.332927;stroke-linecap:butt;stroke-linejoin:miter;stroke-miterlimit:4;stroke-dasharray:none;stroke-opacity:1"
     d="m 253.193,17.949 c 1.109,0.77 0.869,1.733 0.025,2.338 -0.249,0.187 -0.276,0.599 -0.531,0.755 -0.609,0.364 -2.286,-0.115 -2.24,-1.615 0,-0.109 -0.218,-0.896 -0.297,-1.51 -0.14,-1.208 0.152,-3.687 2.281,-5.334 1.011,-0.786 1.287,-0.046 0.975,0.402 -0.989,1.39 -0.808,1.708 -0.932,2.172 -0.439,1.562 0.719,2.792 0.719,2.792 z"
     id="path1378" />
  <path
     style="fill:#0098c9;fill-opacity:1;fill-rule:nonzero;stroke:none"
     d="m 256.655,62.416 c -0.238,-3.125 0.052,-3.822 0.35,-4.692 1.849,-5.48 -0.875,-6.286 -3.656,-5.542 -3.282,0.86 -4.48,1.109 -3.402,7.308 0.307,1.729 0.594,8.494 0.594,8.494 -0.23,2.438 0.854,4.932 2.12,5.656 1.333,0.76 0.86,0.36 2.218,0.839 1.303,0.459 3.443,0.041 4.052,-1.041 0.576,-1.032 -0.254,-2.475 -1.181,-4.714 -0.729,-1.766 -1.095,-6.308 -1.095,-6.308"
     id="path1379" />
  <path
     style="fill:none;stroke:#231f20;stroke-width:0.565977;stroke-linecap:butt;stroke-linejoin:miter;stroke-miterlimit:4;stroke-dasharray:none;stroke-opacity:1"
     d="m 256.655,62.416 c -0.238,-3.125 0.052,-3.822 0.35,-4.692 1.849,-5.48 -0.875,-6.286 -3.656,-5.542 -3.282,0.86 -4.48,1.109 -3.402,7.308 0.307,1.729 0.594,8.494 0.594,8.494 -0.23,2.438 0.854,4.932 2.12,5.656 1.333,0.76 0.86,0.36 2.218,0.839 1.303,0.459 3.443,0.041 4.052,-1.041 0.576,-1.032 -0.254,-2.475 -1.181,-4.714 -0.729,-1.766 -1.095,-6.308 -1.095,-6.308 z"
     id="path1380" />
  <path
     style="fill:#ffffff;fill-opacity:1;fill-rule:nonzero;stroke:none"
     d="m 257.245,80.896 c 0.181,0.162 -0.328,1.192 0.12,1.458 0.452,0.27 1.009,-0.291 2.992,-0.099 h 0.02 c 1.44,0.188 2.77,-0.235 3.49,-1.255 1.21,-1.693 0.31,-4.39 -1.99,-6.026 -2.3,-1.635 -5.148,-1.578 -6.346,0.109 -1.157,1.615 -0.381,4.167 1.714,5.813"
     id="path1381" />
  <path
     style="fill:none;stroke:#231f20;stroke-width:0.565977;stroke-linecap:butt;stroke-linejoin:miter;stroke-miterlimit:4;stroke-dasharray:none;stroke-opacity:1"
     d="m 257.245,80.896 c 0.181,0.162 -0.328,1.192 0.12,1.458 0.452,0.27 1.009,-0.291 2.992,-0.099 h 0.02 c 1.44,0.188 2.77,-0.235 3.49,-1.255 1.21,-1.693 0.31,-4.39 -1.99,-6.026 -2.3,-1.635 -5.148,-1.578 -6.346,0.109 -1.157,1.615 -0.381,4.167 1.714,5.813 z"
     id="path1382" />
  <path
     style="fill:#231f20;fill-opacity:1;fill-rule:nonzero;stroke:none"
     d="m 252.765,92.124 c -0.291,-0.572 0.177,-2.468 -0.058,-4.057 -0.166,-1.072 0.574,-3.713 0.328,-4.771 -0.213,-0.968 -0.228,-1.437 0.834,-1.874 0.63,-0.26 2.021,-0.359 2.234,0.104 0.506,1.078 0.542,2.026 0.36,3.073 -0.209,1.203 -1.062,4.401 -1.27,4.973 -0.532,1.428 -0.308,2.131 -0.412,2.522 -0.194,0.734 -0.527,0.838 -1.026,0.817 -0.964,-0.041 -0.99,-0.787 -0.99,-0.787"
     id="path1383" />
  <path
     style="fill:none;stroke:#231f20;stroke-width:0.565977;stroke-linecap:butt;stroke-linejoin:miter;stroke-miterlimit:4;stroke-dasharray:none;stroke-opacity:1"
     d="m 252.765,92.124 c -0.291,-0.572 0.177,-2.468 -0.058,-4.057 -0.166,-1.072 0.574,-3.713 0.328,-4.771 -0.213,-0.968 -0.228,-1.437 0.834,-1.874 0.63,-0.26 2.021,-0.359 2.234,0.104 0.506,1.078 0.542,2.026 0.36,3.073 -0.209,1.203 -1.062,4.401 -1.27,4.973 -0.532,1.428 -0.308,2.131 -0.412,2.522 -0.194,0.734 -0.527,0.838 -1.026,0.817 -0.964,-0.041 -0.99,-0.787 -0.99,-0.787 z"
     id="path1384" />
  <path
     style="fill:#231f20;fill-opacity:1;fill-rule:nonzero;stroke:none"
     d="m 253.687,83.115 c -1.27,-0.276 -0.48,-2.157 -0.354,-2.677 0.136,-0.532 0.333,-2.074 0.338,-3.292 0.006,-1.23 0.531,-2.755 0.542,-5.083 0.005,-1.22 0.786,-2.407 2.557,-2.324 1.756,0.084 2.371,1.1 2.141,2.584 -0.229,1.473 -1.073,2.765 -1.412,4.24 -0.333,1.473 -0.536,3.004 -0.64,4.219 -0.12,1.374 -0.688,2.014 -1.146,2.161 -1.135,0.375 -2.026,0.172 -2.026,0.172"
     id="path1385" />
  <path
     style="fill:none;stroke:#231f20;stroke-width:0.565977;stroke-linecap:butt;stroke-linejoin:miter;stroke-miterlimit:4;stroke-dasharray:none;stroke-opacity:1"
     d="m 253.687,83.115 c -1.27,-0.276 -0.48,-2.157 -0.354,-2.677 0.136,-0.532 0.333,-2.074 0.338,-3.292 0.006,-1.23 0.531,-2.755 0.542,-5.083 0.005,-1.22 0.786,-2.407 2.557,-2.324 1.756,0.084 2.371,1.1 2.141,2.584 -0.229,1.473 -1.073,2.765 -1.412,4.24 -0.333,1.473 -0.536,3.004 -0.64,4.219 -0.12,1.374 -0.688,2.014 -1.146,2.161 -1.135,0.375 -2.026,0.172 -2.026,0.172 z"
     id="path1386" />
  <path
     style="fill:#ffffff;fill-opacity:1;fill-rule:nonzero;stroke:none"
     d="m 254.666,95.834 c -0.635,0.801 -1.801,0.948 -2.615,0.317 -0.806,-0.631 -0.953,-1.803 -0.317,-2.615 0.631,-0.806 1.801,-0.953 2.609,-0.317 0.812,0.635 0.954,1.801 0.323,2.615"
     id="path1387" />
  <path
     style="fill:none;stroke:#231f20;stroke-width:1.33171;stroke-linecap:butt;stroke-linejoin:miter;stroke-miterlimit:4;stroke-dasharray:none;stroke-opacity:1"
     d="m 254.666,95.834 c -0.635,0.801 -1.801,0.948 -2.615,0.317 -0.806,-0.631 -0.953,-1.803 -0.317,-2.615 0.631,-0.806 1.801,-0.953 2.609,-0.317 0.812,0.635 0.954,1.801 0.323,2.615 z"
     id="path1388" />
  <path
     style="fill:#ffffff;fill-opacity:1;fill-rule:nonzero;stroke:none"
     d="m 252.698,37.146 c 2.26,0.166 2.719,-0.104 2.848,-1.058 0.089,-0.634 0.391,-1.188 0.459,-1.568 0.249,-1.27 0.125,-3.52 -1.87,-9.79 -0.458,-1.423 -1.078,-3.423 -1.266,-4.261 -0.307,-1.323 -2.302,0.073 -2.182,0.598 0.359,1.672 0.468,2.85 0.515,3.475 0.032,0.427 0.193,1.167 0.1,2.833 -0.131,2.525 -0.589,4.016 -0.453,6.131 0.057,0.978 -0.522,1.749 0.036,2.681 0.541,0.943 1.813,0.959 1.813,0.959"
     id="path1389" />
  <path
     style="fill:none;stroke:#231f20;stroke-width:0.565977;stroke-linecap:butt;stroke-linejoin:miter;stroke-miterlimit:4;stroke-dasharray:none;stroke-opacity:1"
     d="m 252.698,37.146 c 2.26,0.166 2.719,-0.104 2.848,-1.058 0.089,-0.634 0.391,-1.188 0.459,-1.568 0.249,-1.27 0.125,-3.52 -1.87,-9.79 -0.458,-1.423 -1.078,-3.423 -1.266,-4.261 -0.307,-1.323 -2.302,0.073 -2.182,0.598 0.359,1.672 0.468,2.85 0.515,3.475 0.032,0.427 0.193,1.167 0.1,2.833 -0.131,2.525 -0.589,4.016 -0.453,6.131 0.057,0.978 -0.522,1.749 0.036,2.681 0.541,0.943 1.813,0.959 1.813,0.959 z"
     id="path1390" />
  <path
     style="fill:#ffffff;fill-opacity:1;fill-rule:nonzero;stroke:#231f20;stroke-width:0.565977;stroke-linecap:round;stroke-linejoin:round;stroke-miterlimit:4;stroke-dasharray:none;stroke-opacity:1"
     d="m 251.145,35.182 c -1.072,0.933 -0.458,3 -0.52,3.333 -0.814,4.953 -0.746,5.324 -1.104,9.125 -0.511,5.511 -0.022,9.36 3.093,10.594 2.115,0.833 3.693,0.401 4.599,-0.556 0.994,-1.063 1.86,-4.126 -0.068,-6.278 l -0.296,-1.681 c -0.063,-1.167 -0.094,-1.74 -0.084,-2.313 0.037,-1 0.005,-2.072 -0.047,-4.031 -0.088,-3.475 -1.317,-7.109 -1.317,-7.109 -0.016,-0.312 -0.147,-0.563 -0.334,-0.76"
     id="path1391" />
  <path
     style="fill:#0098c9;fill-opacity:1;fill-rule:nonzero;stroke:none"
     d="m 257.135,51.536 -7.776,-0.806 c -0.026,0.656 -0.016,1.265 0.015,1.848 -0.02,0.078 -0.041,0.152 -0.072,0.218 -0.328,0.74 -0.052,1.303 0.453,2.21 0.438,1.494 1.244,2.588 2.594,3.181 2.077,0.912 3.677,0.543 4.614,-0.38 1.036,-1.025 2.02,-4.052 0.172,-6.271"
     id="path1392" />
  <path
     style="fill:none;stroke:#231f20;stroke-width:0.565977;stroke-linecap:butt;stroke-linejoin:miter;stroke-miterlimit:4;stroke-dasharray:none;stroke-opacity:1"
     d="m 257.135,51.536 -7.776,-0.806 c -0.026,0.656 -0.016,1.265 0.015,1.848 -0.02,0.078 -0.041,0.152 -0.072,0.218 -0.328,0.74 -0.052,1.303 0.453,2.21 0.438,1.494 1.244,2.588 2.594,3.181 2.077,0.912 3.677,0.543 4.614,-0.38 1.036,-1.025 2.02,-4.052 0.172,-6.271 z"
     id="path1393" />
  <path
     style="fill:#231f20;fill-opacity:1;fill-rule:nonzero;stroke:none"
     d="m 342.587,18.094 c -1.14,0.735 -0.94,1.703 -0.11,2.339 0.24,0.192 0.25,0.609 0.51,0.77 0.59,0.386 2.28,-0.036 2.29,-1.536 0,-0.104 0.25,-0.885 0.35,-1.5 0.18,-1.198 -0.02,-3.688 -2.1,-5.412 -0.98,-0.817 -1.28,-0.082 -0.99,0.37 0.95,1.428 0.75,1.734 0.86,2.204 0.38,1.577 -0.81,2.765 -0.81,2.765"
     id="path1394" />
  <path
     style="fill:none;stroke:#231f20;stroke-width:0.332927;stroke-linecap:butt;stroke-linejoin:miter;stroke-miterlimit:4;stroke-dasharray:none;stroke-opacity:1"
     d="m 342.587,18.094 c -1.14,0.735 -0.94,1.703 -0.11,2.339 0.24,0.192 0.25,0.609 0.51,0.77 0.59,0.386 2.28,-0.036 2.29,-1.536 0,-0.104 0.25,-0.885 0.35,-1.5 0.18,-1.198 -0.02,-3.688 -2.1,-5.412 -0.98,-0.817 -1.28,-0.082 -0.99,0.37 0.95,1.428 0.75,1.734 0.86,2.204 0.38,1.577 -0.81,2.765 -0.81,2.765 z"
     id="path1395" />
  <path
     style="fill:#0098c9;fill-opacity:1;fill-rule:nonzero;stroke:none"
     d="m 337.577,62.416 c 0.34,-3.114 0.08,-3.822 -0.18,-4.702 -1.66,-5.538 1.09,-6.251 3.85,-5.418 3.24,0.98 4.42,1.271 3.14,7.428 -0.37,1.719 -0.89,8.463 -0.89,8.463 0.14,2.448 -1.03,4.907 -2.32,5.584 -1.36,0.713 -0.87,0.333 -2.25,0.76 -1.31,0.417 -3.44,-0.077 -4.01,-1.177 -0.54,-1.058 0.34,-2.468 1.35,-4.672 0.79,-1.739 1.31,-6.266 1.31,-6.266"
     id="path1396" />
  <path
     style="fill:none;stroke:#231f20;stroke-width:0.565977;stroke-linecap:butt;stroke-linejoin:miter;stroke-miterlimit:4;stroke-dasharray:none;stroke-opacity:1"
     d="m 337.577,62.416 c 0.34,-3.114 0.08,-3.822 -0.18,-4.702 -1.66,-5.538 1.09,-6.251 3.85,-5.418 3.24,0.98 4.42,1.271 3.14,7.428 -0.37,1.719 -0.89,8.463 -0.89,8.463 0.14,2.448 -1.03,4.907 -2.32,5.584 -1.36,0.713 -0.87,0.333 -2.25,0.76 -1.31,0.417 -3.44,-0.077 -4.01,-1.177 -0.54,-1.058 0.34,-2.468 1.35,-4.672 0.79,-1.739 1.31,-6.266 1.31,-6.266 z"
     id="path1397" />
  <path
     style="fill:#ffffff;fill-opacity:1;fill-rule:nonzero;stroke:none"
     d="m 336.347,80.859 c -0.19,0.156 0.29,1.208 -0.17,1.459 -0.46,0.254 -1,-0.323 -2.98,-0.203 h -0.03 c -1.44,0.135 -2.76,-0.328 -3.44,-1.376 -1.15,-1.739 -0.16,-4.4 2.19,-5.952 2.37,-1.557 5.2,-1.407 6.35,0.328 1.09,1.656 0.23,4.176 -1.92,5.744"
     id="path1398" />
  <path
     style="fill:none;stroke:#231f20;stroke-width:0.565977;stroke-linecap:butt;stroke-linejoin:miter;stroke-miterlimit:4;stroke-dasharray:none;stroke-opacity:1"
     d="m 336.347,80.859 c -0.19,0.156 0.29,1.208 -0.17,1.459 -0.46,0.254 -1,-0.323 -2.98,-0.203 h -0.03 c -1.44,0.135 -2.76,-0.328 -3.44,-1.376 -1.15,-1.739 -0.16,-4.4 2.19,-5.952 2.37,-1.557 5.2,-1.407 6.35,0.328 1.09,1.656 0.23,4.176 -1.92,5.744 z"
     id="path1399" />
  <path
     style="fill:#231f20;fill-opacity:1;fill-rule:nonzero;stroke:none"
     d="m 340.437,92.244 c 0.31,-0.562 -0.09,-2.473 0.2,-4.052 0.2,-1.068 -0.45,-3.734 -0.17,-4.781 0.25,-0.963 0.28,-1.427 -0.77,-1.905 -0.62,-0.282 -2,-0.428 -2.23,0.03 -0.55,1.058 -0.61,2 -0.47,3.058 0.17,1.202 0.91,4.432 1.1,5.01 0.48,1.448 0.23,2.14 0.32,2.536 0.17,0.74 0.5,0.86 1,0.855 0.96,-0.011 1.02,-0.751 1.02,-0.751"
     id="path1400" />
  <path
     style="fill:none;stroke:#231f20;stroke-width:0.565977;stroke-linecap:butt;stroke-linejoin:miter;stroke-miterlimit:4;stroke-dasharray:none;stroke-opacity:1"
     d="m 340.437,92.244 c 0.31,-0.562 -0.09,-2.473 0.2,-4.052 0.2,-1.068 -0.45,-3.734 -0.17,-4.781 0.25,-0.963 0.28,-1.427 -0.77,-1.905 -0.62,-0.282 -2,-0.428 -2.23,0.03 -0.55,1.058 -0.61,2 -0.47,3.058 0.17,1.202 0.91,4.432 1.1,5.01 0.48,1.448 0.23,2.14 0.32,2.536 0.17,0.74 0.5,0.86 1,0.855 0.96,-0.011 1.02,-0.751 1.02,-0.751 z"
     id="path1401" />
  <path
     style="fill:#231f20;fill-opacity:1;fill-rule:nonzero;stroke:none"
     d="m 339.817,83.203 c 1.29,-0.229 0.56,-2.136 0.45,-2.661 -0.11,-0.531 -0.26,-2.084 -0.22,-3.303 0.04,-1.228 -0.44,-2.771 -0.37,-5.099 0.04,-1.218 -0.7,-2.432 -2.47,-2.41 -1.76,0.025 -2.41,1.02 -2.23,2.509 0.18,1.48 0.98,2.803 1.26,4.287 0.28,1.485 0.44,3.026 0.5,4.24 0.07,1.374 0.62,2.036 1.06,2.197 1.13,0.412 2.02,0.24 2.02,0.24"
     id="path1402" />
  <path
     style="fill:none;stroke:#231f20;stroke-width:0.565977;stroke-linecap:butt;stroke-linejoin:miter;stroke-miterlimit:4;stroke-dasharray:none;stroke-opacity:1"
     d="m 339.817,83.203 c 1.29,-0.229 0.56,-2.136 0.45,-2.661 -0.11,-0.531 -0.26,-2.084 -0.22,-3.303 0.04,-1.228 -0.44,-2.771 -0.37,-5.099 0.04,-1.218 -0.7,-2.432 -2.47,-2.41 -1.76,0.025 -2.41,1.02 -2.23,2.509 0.18,1.48 0.98,2.803 1.26,4.287 0.28,1.485 0.44,3.026 0.5,4.24 0.07,1.374 0.62,2.036 1.06,2.197 1.13,0.412 2.02,0.24 2.02,0.24 z"
     id="path1403" />
  <path
     style="fill:#ffffff;fill-opacity:1;fill-rule:nonzero;stroke:none"
     d="m 338.407,95.88 c 0.61,0.828 1.76,1.011 2.6,0.407 0.83,-0.6 1.01,-1.767 0.41,-2.6 -0.61,-0.828 -1.77,-1.015 -2.6,-0.405 -0.83,0.604 -1.02,1.765 -0.41,2.598"
     id="path1404" />
  <path
     style="fill:none;stroke:#231f20;stroke-width:1.33171;stroke-linecap:butt;stroke-linejoin:miter;stroke-miterlimit:4;stroke-dasharray:none;stroke-opacity:1"
     d="m 338.407,95.88 c 0.61,0.828 1.76,1.011 2.6,0.407 0.83,-0.6 1.01,-1.767 0.41,-2.6 -0.61,-0.828 -1.77,-1.015 -2.6,-0.405 -0.83,0.604 -1.02,1.765 -0.41,2.598 z"
     id="path1405" />
  <path
     style="fill:#231f20;fill-opacity:1;fill-rule:nonzero;stroke:none"
     d="m 342.407,37.296 c -2.26,0.09 -2.71,-0.197 -2.81,-1.156 -0.07,-0.634 -0.35,-1.197 -0.4,-1.577 -0.2,-1.281 0,-3.527 2.21,-9.724 0.5,-1.401 1.2,-3.381 1.41,-4.214 0.35,-1.307 2.3,0.152 2.17,0.672 -0.43,1.661 -0.57,2.833 -0.64,3.453 -0.05,0.427 -0.24,1.161 -0.2,2.833 0.04,2.527 0.45,4.032 0.24,6.136 -0.09,0.984 0.46,1.776 -0.13,2.681 -0.58,0.928 -1.85,0.896 -1.85,0.896"
     id="path1406" />
  <path
     style="fill:none;stroke:#231f20;stroke-width:0.565977;stroke-linecap:butt;stroke-linejoin:miter;stroke-miterlimit:4;stroke-dasharray:none;stroke-opacity:1"
     d="m 342.407,37.296 c -2.26,0.09 -2.71,-0.197 -2.81,-1.156 -0.07,-0.634 -0.35,-1.197 -0.4,-1.577 -0.2,-1.281 0,-3.527 2.21,-9.724 0.5,-1.401 1.2,-3.381 1.41,-4.214 0.35,-1.307 2.3,0.152 2.17,0.672 -0.43,1.661 -0.57,2.833 -0.64,3.453 -0.05,0.427 -0.24,1.161 -0.2,2.833 0.04,2.527 0.45,4.032 0.24,6.136 -0.09,0.984 0.46,1.776 -0.13,2.681 -0.58,0.928 -1.85,0.896 -1.85,0.896 z"
     id="path1407" />
  <path
     style="fill:#231f20;fill-opacity:1;fill-rule:nonzero;stroke:#231f20;stroke-width:0.565977;stroke-linecap:round;stroke-linejoin:round;stroke-miterlimit:4;stroke-dasharray:none;stroke-opacity:1"
     d="m 344.027,35.391 c 1.04,0.968 0.36,3.015 0.4,3.348 0.65,4.975 0.57,5.349 0.79,9.161 0.32,5.522 -0.3,9.35 -3.46,10.475 -2.14,0.76 -3.7,0.276 -4.58,-0.713 -0.95,-1.099 -1.71,-4.188 0.29,-6.271 l 0.36,-1.672 c 0.1,-1.161 0.16,-1.735 0.16,-2.308 0,-1 0.07,-2.077 0.19,-4.031 0.21,-3.464 1.56,-7.057 1.56,-7.057 0.03,-0.312 0.17,-0.557 0.36,-0.745"
     id="path1408" />
  <path
     style="fill:#0098c9;fill-opacity:1;fill-rule:nonzero;stroke:none"
     d="m 345.257,53.058 c -0.02,-0.068 -0.04,-0.142 -0.06,-0.219 0.05,-0.584 0.08,-1.193 0.08,-1.849 l -7.8,0.536 c -1.93,2.156 -1.05,5.208 -0.05,6.27 0.91,0.959 2.49,1.38 4.6,0.543 1.37,-0.548 2.21,-1.615 2.7,-3.089 0.54,-0.891 0.84,-1.443 0.53,-2.192"
     id="path1409" />
  <path
     style="fill:none;stroke:#231f20;stroke-width:0.565977;stroke-linecap:butt;stroke-linejoin:miter;stroke-miterlimit:4;stroke-dasharray:none;stroke-opacity:1"
     d="m 345.257,53.058 c -0.02,-0.068 -0.04,-0.142 -0.06,-0.219 0.05,-0.584 0.08,-1.193 0.08,-1.849 l -7.8,0.536 c -1.93,2.156 -1.05,5.208 -0.05,6.27 0.91,0.959 2.49,1.38 4.6,0.543 1.37,-0.548 2.21,-1.615 2.7,-3.089 0.54,-0.891 0.84,-1.443 0.53,-2.192 z"
     id="path1410" />
  <path
     style="fill:none;stroke:#231f20;stroke-width:0.399514;stroke-linecap:butt;stroke-linejoin:miter;stroke-miterlimit:4;stroke-dasharray:none;stroke-opacity:1"
     d="M 41.453,49.115 C 67.505,44.328 83.084,74.938 83.921,82.151"
     id="path1411" />
  <path
     style="fill:#231f20;fill-opacity:1;fill-rule:nonzero;stroke:none"
     d="M 84.062,83.348 C 83.786,82.807 83.349,82.151 82.921,81.76 l 0.98,0.235 0.907,-0.453 c -0.33,0.478 -0.606,1.218 -0.746,1.806"
     id="path1412" />
  <path
     style="fill:#ffffff;fill-opacity:1;fill-rule:nonzero;stroke:none"
     d="m 299.267,93.124 c -1.03,-0.061 -1.91,0.715 -1.98,1.74 -0.06,1.027 0.72,1.907 1.74,1.975 1.02,0.067 1.91,-0.715 1.97,-1.74 0.07,-1.021 -0.71,-1.907 -1.73,-1.975"
     id="path1413" />
  <path
     style="fill:none;stroke:#231f20;stroke-width:1.33171;stroke-linecap:butt;stroke-linejoin:miter;stroke-miterlimit:4;stroke-dasharray:none;stroke-opacity:1"
     d="m 299.267,93.124 c -1.03,-0.061 -1.91,0.715 -1.98,1.74 -0.06,1.027 0.72,1.907 1.74,1.975 1.02,0.067 1.91,-0.715 1.97,-1.74 0.07,-1.021 -0.71,-1.907 -1.73,-1.975 z"
     id="path1414" />
  <path
     style="fill:#231f20;fill-opacity:1;fill-rule:nonzero;stroke:none"
     d="m 301.137,93.302 c 0.51,-0.391 0.9,-2.296 1.81,-3.62 0.61,-0.9 1.11,-3.604 1.79,-4.448 0.62,-0.771 0.83,-1.192 0.06,-2.047 -0.45,-0.509 -1.65,-1.203 -2.05,-0.88 -0.93,0.751 -1.37,1.589 -1.67,2.609 -0.33,1.167 -0.96,4.423 -1.02,5.027 -0.15,1.525 -0.66,2.052 -0.73,2.453 -0.14,0.745 0.1,0.984 0.57,1.187 0.88,0.375 1.24,-0.281 1.24,-0.281"
     id="path1415" />
  <path
     style="fill:none;stroke:#231f20;stroke-width:0.565977;stroke-linecap:butt;stroke-linejoin:miter;stroke-miterlimit:4;stroke-dasharray:none;stroke-opacity:1"
     d="m 301.137,93.302 c 0.51,-0.391 0.9,-2.296 1.81,-3.62 0.61,-0.9 1.11,-3.604 1.79,-4.448 0.62,-0.771 0.83,-1.192 0.06,-2.047 -0.45,-0.509 -1.65,-1.203 -2.05,-0.88 -0.93,0.751 -1.37,1.589 -1.67,2.609 -0.33,1.167 -0.96,4.423 -1.02,5.027 -0.15,1.525 -0.66,2.052 -0.73,2.453 -0.14,0.745 0.1,0.984 0.57,1.187 0.88,0.375 1.24,-0.281 1.24,-0.281 z"
     id="path1416" />
  <path
     style="fill:#231f20;fill-opacity:1;fill-rule:nonzero;stroke:none"
     d="m 304.587,84.375 c 1.29,-0.145 0.69,-2.093 0.61,-2.631 -0.08,-0.536 -0.14,-2.098 -0.02,-3.301 0.11,-1.224 -0.26,-2.792 -0.04,-5.109 0.11,-1.224 -0.54,-2.48 -2.32,-2.574 -1.76,-0.078 -2.46,0.87 -2.38,2.37 0.08,1.49 0.8,2.854 0.99,4.36 0.19,1.5 0.24,3.041 0.23,4.254 -0.02,1.38 0.49,2.074 0.92,2.267 1.1,0.479 2.01,0.364 2.01,0.364"
     id="path1417" />
  <path
     style="fill:none;stroke:#231f20;stroke-width:0.565977;stroke-linecap:butt;stroke-linejoin:miter;stroke-miterlimit:4;stroke-dasharray:none;stroke-opacity:1"
     d="m 304.587,84.375 c 1.29,-0.145 0.69,-2.093 0.61,-2.631 -0.08,-0.536 -0.14,-2.098 -0.02,-3.301 0.11,-1.224 -0.26,-2.792 -0.04,-5.109 0.11,-1.224 -0.54,-2.48 -2.32,-2.574 -1.76,-0.078 -2.46,0.87 -2.38,2.37 0.08,1.49 0.8,2.854 0.99,4.36 0.19,1.5 0.24,3.041 0.23,4.254 -0.02,1.38 0.49,2.074 0.92,2.267 1.1,0.479 2.01,0.364 2.01,0.364 z"
     id="path1418" />
  <path
     style="fill:#231f20;fill-opacity:1;fill-rule:nonzero;stroke:none"
     d="m 281.467,85.542 c 0.33,-0.552 0.02,-2.475 0.38,-4.036 0.25,-1.063 -0.27,-3.756 0.05,-4.787 0.3,-0.948 0.34,-1.412 -0.68,-1.937 -0.61,-0.308 -1.98,-0.516 -2.24,-0.074 -0.59,1.031 -0.7,1.974 -0.6,3.036 0.11,1.214 0.71,4.464 0.88,5.058 0.41,1.469 0.13,2.152 0.2,2.546 0.14,0.751 0.46,0.886 0.96,0.896 0.96,0.032 1.05,-0.702 1.05,-0.702"
     id="path1419" />
  <path
     style="fill:none;stroke:#231f20;stroke-width:0.565977;stroke-linecap:butt;stroke-linejoin:miter;stroke-miterlimit:4;stroke-dasharray:none;stroke-opacity:1"
     d="m 281.467,85.542 c 0.33,-0.552 0.02,-2.475 0.38,-4.036 0.25,-1.063 -0.27,-3.756 0.05,-4.787 0.3,-0.948 0.34,-1.412 -0.68,-1.937 -0.61,-0.308 -1.98,-0.516 -2.24,-0.074 -0.59,1.031 -0.7,1.974 -0.6,3.036 0.11,1.214 0.71,4.464 0.88,5.058 0.41,1.469 0.13,2.152 0.2,2.546 0.14,0.751 0.46,0.886 0.96,0.896 0.96,0.032 1.05,-0.702 1.05,-0.702 z"
     id="path1420" />
  <path
     style="fill:#231f20;fill-opacity:1;fill-rule:nonzero;stroke:none"
     d="m 280.137,76.88 c 0.8,1.02 2.14,-0.516 2.56,-0.86 0.42,-0.353 1.72,-1.213 2.81,-1.754 1.1,-0.542 2.23,-1.688 4.32,-2.719 1.09,-0.547 1.82,-1.765 0.96,-3.323 -0.85,-1.542 -2.03,-1.641 -3.26,-0.786 -1.23,0.858 -2.02,2.182 -3.19,3.134 -1.18,0.943 -2.46,1.808 -3.5,2.439 -1.18,0.708 -1.5,1.504 -1.44,1.973 0.16,1.183 0.74,1.896 0.74,1.896"
     id="path1421" />
  <path
     style="fill:none;stroke:#231f20;stroke-width:0.565977;stroke-linecap:butt;stroke-linejoin:miter;stroke-miterlimit:4;stroke-dasharray:none;stroke-opacity:1"
     d="m 280.137,76.88 c 0.8,1.02 2.14,-0.516 2.56,-0.86 0.42,-0.353 1.72,-1.213 2.81,-1.754 1.1,-0.542 2.23,-1.688 4.32,-2.719 1.09,-0.547 1.82,-1.765 0.96,-3.323 -0.85,-1.542 -2.03,-1.641 -3.26,-0.786 -1.23,0.858 -2.02,2.182 -3.19,3.134 -1.18,0.943 -2.46,1.808 -3.5,2.439 -1.18,0.708 -1.5,1.504 -1.44,1.973 0.16,1.183 0.74,1.896 0.74,1.896 z"
     id="path1422" />
  <path
     style="fill:#231f20;fill-opacity:1;fill-rule:nonzero;stroke:none"
     d="m 280.787,91.703 c -0.35,-0.636 -0.9,-3.844 -0.99,-4.579 -0.08,-0.661 -0.58,-1.702 0.38,-2.328 0.4,-0.26 1.15,-0.348 1.47,-0.301 0.26,0.036 0.4,0.333 0.41,0.735 0.02,0.661 -0.23,0.858 -0.26,2.134 0,0 -0.05,0.308 -0.18,0.839 -0.38,1.584 -0.36,0.855 -0.4,3.271 0.01,0.172 -0.17,0.297 -0.29,0.286 -0.17,-0.021 -0.14,-0.057 -0.14,-0.057"
     id="path1423" />
  <path
     style="fill:none;stroke:#231f20;stroke-width:0.565977;stroke-linecap:round;stroke-linejoin:round;stroke-miterlimit:4;stroke-dasharray:none;stroke-opacity:1"
     d="m 280.787,91.703 c -0.35,-0.636 -0.9,-3.844 -0.99,-4.579 -0.08,-0.661 -0.58,-1.702 0.38,-2.328 0.4,-0.26 1.15,-0.348 1.47,-0.301 0.26,0.036 0.4,0.333 0.41,0.735 0.02,0.661 -0.23,0.858 -0.26,2.134 0,0 -0.05,0.308 -0.18,0.839 -0.38,1.584 -0.36,0.855 -0.4,3.271 0.01,0.172 -0.17,0.297 -0.29,0.286 -0.17,-0.021 -0.14,-0.057 -0.14,-0.057 z"
     id="path1424" />
  <path
     style="fill:#231f20;fill-opacity:1;fill-rule:nonzero;stroke:none"
     d="m 295.787,79.848 c 1.49,-2.394 1.27,-5.228 -0.49,-6.328 -1.76,-1.098 -4.4,-0.052 -5.89,2.35 -1.5,2.396 -1.28,5.229 0.48,6.328 1.76,1.098 4.4,0.046 5.9,-2.35"
     id="path1425" />
  <path
     style="fill:none;stroke:#231f20;stroke-width:0.565977;stroke-linecap:butt;stroke-linejoin:miter;stroke-miterlimit:4;stroke-dasharray:none;stroke-opacity:1"
     d="m 295.787,79.848 c 1.49,-2.394 1.27,-5.228 -0.49,-6.328 -1.76,-1.098 -4.4,-0.052 -5.89,2.35 -1.5,2.396 -1.28,5.229 0.48,6.328 1.76,1.098 4.4,0.046 5.9,-2.35 z"
     id="path1426" />
  <path
     style="fill:#231f20;fill-opacity:1;fill-rule:nonzero;stroke:none"
     d="m 296.367,56.526 c -3.53,-0.698 -2.89,-2.25 -3.12,-6.318 -0.25,-4.458 -0.02,-9.125 1.09,-12.234 1.24,-3.474 0.83,-3.807 2.72,-4.094 1.9,-0.286 2.04,0.479 2.96,1.38 1.07,1.042 -1.05,8.084 -0.62,12.818 0.2,2.218 2.12,7.406 0.75,7.865 -1.38,0.463 -3.78,0.583 -3.78,0.583"
     id="path1427" />
  <path
     style="fill:none;stroke:#231f20;stroke-width:0.565977;stroke-linecap:butt;stroke-linejoin:miter;stroke-miterlimit:4;stroke-dasharray:none;stroke-opacity:1"
     d="m 296.367,56.526 c -3.53,-0.698 -2.89,-2.25 -3.12,-6.318 -0.25,-4.458 -0.02,-9.125 1.09,-12.234 1.24,-3.474 0.83,-3.807 2.72,-4.094 1.9,-0.286 2.04,0.479 2.96,1.38 1.07,1.042 -1.05,8.084 -0.62,12.818 0.2,2.218 2.12,7.406 0.75,7.865 -1.38,0.463 -3.78,0.583 -3.78,0.583 z"
     id="path1428" />
  <path
     style="fill:#231f20;fill-opacity:1;fill-rule:nonzero;stroke:none"
     d="m 298.017,35.922 c -2.26,0.084 -2.92,0.141 -2.62,-2.344 0.09,-0.63 0.43,-2.375 0.37,-2.76 -0.2,-1.287 -0.32,-2.787 1.9,-8.989 0.34,-0.959 0.69,-2.907 1.05,-4.262 0.33,-1.317 2.28,0.147 2.16,0.663 -0.42,1.667 -0.33,2.828 -0.4,3.443 -0.05,0.426 -0.26,1.208 -0.04,2.853 0.58,4.24 -0.68,5.521 -0.64,6.417 0.13,2.583 0.78,4.76 0.17,5.031 -1,0.442 -1.95,-0.052 -1.95,-0.052"
     id="path1429" />
  <path
     style="fill:none;stroke:#231f20;stroke-width:0.565977;stroke-linecap:butt;stroke-linejoin:miter;stroke-miterlimit:4;stroke-dasharray:none;stroke-opacity:1"
     d="m 298.017,35.922 c -2.26,0.084 -2.92,0.141 -2.62,-2.344 0.09,-0.63 0.43,-2.375 0.37,-2.76 -0.2,-1.287 -0.32,-2.787 1.9,-8.989 0.34,-0.959 0.69,-2.907 1.05,-4.262 0.33,-1.317 2.28,0.147 2.16,0.663 -0.42,1.667 -0.33,2.828 -0.4,3.443 -0.05,0.426 -0.26,1.208 -0.04,2.853 0.58,4.24 -0.68,5.521 -0.64,6.417 0.13,2.583 0.78,4.76 0.17,5.031 -1,0.442 -1.95,-0.052 -1.95,-0.052 z"
     id="path1430" />
  <path
     style="fill:#231f20;fill-opacity:1;fill-rule:nonzero;stroke:none"
     d="m 302.607,56.588 c 3.57,-0.412 3.06,-2.01 3.61,-6.057 0.59,-4.416 0.74,-9.093 -0.11,-12.281 -0.96,-3.552 -0.53,-3.844 -2.41,-4.292 -1.86,-0.443 -2.06,0.313 -3.05,1.141 -1.14,0.964 0.41,8.145 -0.38,12.833 -0.38,2.192 -2.71,7.208 -1.38,7.776 1.35,0.574 3.72,0.88 3.72,0.88"
     id="path1431" />
  <path
     style="fill:none;stroke:#231f20;stroke-width:0.565977;stroke-linecap:butt;stroke-linejoin:miter;stroke-miterlimit:4;stroke-dasharray:none;stroke-opacity:1"
     d="m 302.607,56.588 c 3.57,-0.412 3.06,-2.01 3.61,-6.057 0.59,-4.416 0.74,-9.093 -0.11,-12.281 -0.96,-3.552 -0.53,-3.844 -2.41,-4.292 -1.86,-0.443 -2.06,0.313 -3.05,1.141 -1.14,0.964 0.41,8.145 -0.38,12.833 -0.38,2.192 -2.71,7.208 -1.38,7.776 1.35,0.574 3.72,0.88 3.72,0.88 z"
     id="path1432" />
  <path
     style="fill:#231f20;fill-opacity:1;fill-rule:nonzero;stroke:none"
     d="m 302.607,35.932 c 2.25,0.255 2.91,0.355 2.79,-2.145 -0.04,-0.641 -0.25,-2.401 -0.16,-2.781 0.29,-1.262 0.52,-2.756 -1.24,-9.1 -0.27,-0.984 -0.47,-2.952 -0.73,-4.328 -0.25,-1.333 -2.29,-0.025 -2.19,0.505 0.29,1.688 0.1,2.839 0.13,3.459 0.02,0.432 0.18,1.219 -0.17,2.849 -0.89,4.181 0.27,5.557 0.16,6.448 -0.31,2.561 -1.11,4.687 -0.53,5.004 0.96,0.511 1.94,0.089 1.94,0.089"
     id="path1433" />
  <path
     style="fill:none;stroke:#231f20;stroke-width:0.565977;stroke-linecap:butt;stroke-linejoin:miter;stroke-miterlimit:4;stroke-dasharray:none;stroke-opacity:1"
     d="m 302.607,35.932 c 2.25,0.255 2.91,0.355 2.79,-2.145 -0.04,-0.641 -0.25,-2.401 -0.16,-2.781 0.29,-1.262 0.52,-2.756 -1.24,-9.1 -0.27,-0.984 -0.47,-2.952 -0.73,-4.328 -0.25,-1.333 -2.29,-0.025 -2.19,0.505 0.29,1.688 0.1,2.839 0.13,3.459 0.02,0.432 0.18,1.219 -0.17,2.849 -0.89,4.181 0.27,5.557 0.16,6.448 -0.31,2.561 -1.11,4.687 -0.53,5.004 0.96,0.511 1.94,0.089 1.94,0.089 z"
     id="path1434" />
  <path
     style="fill:#231f20;fill-opacity:1;fill-rule:nonzero;stroke:none"
     d="m 304.067,14.151 c 0.28,0.61 -0.96,1.922 -1.04,3.886 -0.01,0.406 -0.21,0.718 -0.36,1.068 -0.59,1.385 -1.9,2.317 -2.73,-1.423 -0.12,-0.515 0.32,-2.572 0.09,-3.317 -0.56,-1.787 1.12,-4.651 1.61,-4.506 1.08,0.314 2.43,4.292 2.43,4.292"
     id="path1435" />
  <path
     style="fill:none;stroke:#231f20;stroke-width:0.644548;stroke-linecap:round;stroke-linejoin:round;stroke-miterlimit:4;stroke-dasharray:none;stroke-opacity:1"
     d="m 304.067,14.151 c 0.28,0.61 -0.96,1.922 -1.04,3.886 -0.01,0.406 -0.21,0.718 -0.36,1.068 -0.59,1.385 -1.9,2.317 -2.73,-1.423 -0.12,-0.515 0.32,-2.572 0.09,-3.317 -0.56,-1.787 1.12,-4.651 1.61,-4.506 1.08,0.314 2.43,4.292 2.43,4.292 z"
     id="path1436" />
  <path
     style="fill:#231f20;fill-opacity:1;fill-rule:nonzero;stroke:none"
     d="m 297.927,13.854 c -0.33,0.568 0.74,2.011 0.59,3.975 -0.03,0.401 0.13,0.738 0.24,1.098 0.44,1.448 1.62,2.516 2.87,-1.098 0.18,-0.5 -0.01,-2.59 0.3,-3.314 0.75,-1.697 -0.58,-4.744 -1.09,-4.65 -1.1,0.188 -2.91,3.989 -2.91,3.989"
     id="path1437" />
  <path
     style="fill:none;stroke:#231f20;stroke-width:0.644548;stroke-linecap:round;stroke-linejoin:round;stroke-miterlimit:4;stroke-dasharray:none;stroke-opacity:1"
     d="m 297.927,13.854 c -0.33,0.568 0.74,2.011 0.59,3.975 -0.03,0.401 0.13,0.738 0.24,1.098 0.44,1.448 1.62,2.516 2.87,-1.098 0.18,-0.5 -0.01,-2.59 0.3,-3.314 0.75,-1.697 -0.58,-4.744 -1.09,-4.65 -1.1,0.188 -2.91,3.989 -2.91,3.989 z"
     id="path1438" />
  <path
     style="fill:#231f20;fill-opacity:1;fill-rule:nonzero;stroke:none"
     d="m 295.367,51.859 c 0.4,0.604 3.01,2.552 3.62,2.969 0.54,0.386 1.25,1.296 2.25,0.719 0.4,-0.235 0.83,-0.865 0.93,-1.167 0.08,-0.24 -0.11,-0.5 -0.47,-0.693 -0.57,-0.328 -0.87,-0.192 -2.02,-0.744 0,0 -0.29,-0.095 -0.82,-0.224 -1.59,-0.385 -0.93,-0.068 -3.1,-1.141 -0.15,-0.083 -0.34,0.021 -0.38,0.13 -0.07,0.167 -0.01,0.151 -0.01,0.151"
     id="path1439" />
  <path
     style="fill:none;stroke:#231f20;stroke-width:0.565977;stroke-linecap:round;stroke-linejoin:round;stroke-miterlimit:4;stroke-dasharray:none;stroke-opacity:1"
     d="m 295.367,51.859 c 0.4,0.604 3.01,2.552 3.62,2.969 0.54,0.386 1.25,1.296 2.25,0.719 0.4,-0.235 0.83,-0.865 0.93,-1.167 0.08,-0.24 -0.11,-0.5 -0.47,-0.693 -0.57,-0.328 -0.87,-0.192 -2.02,-0.744 0,0 -0.29,-0.095 -0.82,-0.224 -1.59,-0.385 -0.93,-0.068 -3.1,-1.141 -0.15,-0.083 -0.34,0.021 -0.38,0.13 -0.07,0.167 -0.01,0.151 -0.01,0.151 z"
     id="path1440" />
  <path
     style="fill:#0098c9;fill-opacity:1;fill-rule:nonzero;stroke:none"
     d="m 303.817,60.124 c 0.21,-0.713 2.04,-2.285 0.93,-1.713 l -0.34,-0.115 c -2.19,-2.213 -1.24,-7.984 -1.24,-7.984 0,0 -0.45,-0.578 -0.93,-0.718 -0.48,-0.14 -1.18,0.098 -1.18,0.098 0,0 -2.31,5.366 -5.36,6.042 l -0.34,-0.083 c -0.63,-1.084 0.06,1.224 -0.16,1.937 -0.98,3.094 -3.65,7.443 -4.61,8.375 -1.32,1.276 -3.93,1.037 -3.45,3.147 0,0 0.08,1.942 2.85,2.38 1,0.166 2.92,1.473 2.92,1.473 0,0 1.05,0.865 2.15,1.213 0.99,0.314 2.11,0.152 2.36,0.115 v 0 c 0,0 2.33,-0.061 3.26,0.344 2.57,1.136 3.7,-0.739 3.7,-0.739 1.55,-1.51 -0.79,-2.448 -1.22,-4.234 -0.3,-1.303 -0.19,-6.402 0.66,-9.538"
     id="path1441" />
  <path
     style="fill:none;stroke:#231f20;stroke-width:0.565977;stroke-linecap:butt;stroke-linejoin:miter;stroke-miterlimit:4;stroke-dasharray:none;stroke-opacity:1"
     d="m 303.817,60.124 c 0.21,-0.713 2.04,-2.285 0.93,-1.713 l -0.34,-0.115 c -2.19,-2.213 -1.24,-7.984 -1.24,-7.984 0,0 -0.45,-0.578 -0.93,-0.718 -0.48,-0.14 -1.18,0.098 -1.18,0.098 0,0 -2.31,5.366 -5.36,6.042 l -0.34,-0.083 c -0.63,-1.084 0.06,1.224 -0.16,1.937 -0.98,3.094 -3.65,7.443 -4.61,8.375 -1.32,1.276 -3.93,1.037 -3.45,3.147 0,0 0.08,1.942 2.85,2.38 1,0.166 2.92,1.473 2.92,1.473 0,0 1.05,0.865 2.15,1.213 0.99,0.314 2.11,0.152 2.36,0.115 v 0 c 0,0 2.33,-0.061 3.26,0.344 2.57,1.136 3.7,-0.739 3.7,-0.739 1.55,-1.51 -0.79,-2.448 -1.22,-4.234 -0.3,-1.303 -0.19,-6.402 0.66,-9.538 z"
     id="path1442" />
  <path
     style="fill:#0098c9;fill-opacity:1;fill-rule:nonzero;stroke:none"
     d="m 304.477,59.526 c 0.22,-0.266 0.99,-1.402 1.2,-1.812 1.36,-2.642 1.64,-6.59 2.03,-7.803 0.4,-1.213 -6.18,-1.781 -6.18,-1.781 l -0.9,1.157 c -0.4,-0.475 -0.18,-0.021 -0.18,-0.021 l -0.81,-1.402 c 0,0 -6.41,-0.869 -6.36,0.147 0.08,1.389 -0.28,6.004 0.43,8.343 0.39,1.292 1.1,2.032 1.1,2.032 0,0 3.73,-0.73 5.15,-0.595 1.42,0.141 4.52,1.735 4.52,1.735"
     id="path1443" />
  <path
     style="fill:none;stroke:#231f20;stroke-width:0.565977;stroke-linecap:butt;stroke-linejoin:miter;stroke-miterlimit:4;stroke-dasharray:none;stroke-opacity:1"
     d="m 304.477,59.526 c 0.22,-0.266 0.99,-1.402 1.2,-1.812 1.36,-2.642 1.64,-6.59 2.03,-7.803 0.4,-1.213 -6.18,-1.781 -6.18,-1.781 l -0.9,1.157 c -0.4,-0.475 -0.18,-0.021 -0.18,-0.021 l -0.81,-1.402 c 0,0 -6.41,-0.869 -6.36,0.147 0.08,1.389 -0.28,6.004 0.43,8.343 0.39,1.292 1.1,2.032 1.1,2.032 0,0 3.73,-0.73 5.15,-0.595 1.42,0.141 4.52,1.735 4.52,1.735 z"
     id="path1444" />
  <path
     style="fill:none;stroke:#231f20;stroke-width:0.565977;stroke-linecap:round;stroke-linejoin:round;stroke-miterlimit:4;stroke-dasharray:none;stroke-opacity:1"
     d="m 303.677,50.02 c -1.18,-1.353 -3.21,-0.593 -3.21,-0.593 -1.65,-0.807 -3.13,-0.213 -3.13,-0.213"
     id="path1445" />
  <path
     style="fill:none;stroke:#231f20;stroke-width:0.399514;stroke-linecap:butt;stroke-linejoin:miter;stroke-miterlimit:4;stroke-dasharray:none;stroke-opacity:1"
     d="m 315.967,36.432 c -19.99,-17.39 -29.2,-7.833 -25.85,-0.114"
     id="path1446" />
  <path
     style="fill:#231f20;fill-opacity:1;fill-rule:nonzero;stroke:none"
     d="m 290.597,37.427 c -0.42,-0.437 -1.03,-0.943 -1.56,-1.188 l 1.01,-0.063 0.74,-0.697 c -0.18,0.552 -0.23,1.344 -0.19,1.948"
     id="path1447" />
  <path
     style="fill:#231f20;fill-opacity:1;fill-rule:nonzero;stroke:none"
     d="m 210.974,92.26 c -0.193,-0.62 0.588,-2.401 0.619,-4.005 0.021,-1.088 1.188,-3.568 1.136,-4.656 -0.063,-0.984 0.01,-1.448 1.136,-1.703 0.661,-0.152 2.041,-0.016 2.181,0.479 0.313,1.14 0.193,2.088 -0.161,3.088 -0.411,1.147 -1.782,4.161 -2.094,4.693 -0.76,1.318 -0.65,2.042 -0.828,2.411 -0.308,0.699 -0.652,0.74 -1.146,0.636 C 210.879,93 210.974,92.26 210.974,92.26"
     id="path1448" />
  <path
     style="fill:none;stroke:#231f20;stroke-width:0.565977;stroke-linecap:butt;stroke-linejoin:miter;stroke-miterlimit:4;stroke-dasharray:none;stroke-opacity:1"
     d="m 210.974,92.26 c -0.193,-0.62 0.588,-2.401 0.619,-4.005 0.021,-1.088 1.188,-3.568 1.136,-4.656 -0.063,-0.984 0.01,-1.448 1.136,-1.703 0.661,-0.152 2.041,-0.016 2.181,0.479 0.313,1.14 0.193,2.088 -0.161,3.088 -0.411,1.147 -1.782,4.161 -2.094,4.693 -0.76,1.318 -0.65,2.042 -0.828,2.411 -0.308,0.699 -0.652,0.74 -1.146,0.636 C 210.879,93 210.974,92.26 210.974,92.26 Z"
     id="path1449" />
  <path
     style="fill:#231f20;fill-opacity:1;fill-rule:nonzero;stroke:none"
     d="m 213.645,84.11 c -1.25,-0.35 -0.359,-2.178 -0.198,-2.688 0.162,-0.526 0.464,-2.058 0.531,-3.271 0.079,-1.224 0.699,-2.713 0.849,-5.036 0.074,-1.224 0.918,-2.36 2.688,-2.172 1.75,0.187 2.296,1.239 1.984,2.703 -0.322,1.464 -1.234,2.702 -1.661,4.15 -0.421,1.454 -0.719,2.975 -0.891,4.172 -0.197,1.371 -0.806,1.97 -1.27,2.09 -1.151,0.306 -2.032,0.052 -2.032,0.052"
     id="path1450" />
  <path
     style="fill:none;stroke:#231f20;stroke-width:0.565977;stroke-linecap:butt;stroke-linejoin:miter;stroke-miterlimit:4;stroke-dasharray:none;stroke-opacity:1"
     d="m 213.645,84.11 c -1.25,-0.35 -0.359,-2.178 -0.198,-2.688 0.162,-0.526 0.464,-2.058 0.531,-3.271 0.079,-1.224 0.699,-2.713 0.849,-5.036 0.074,-1.224 0.918,-2.36 2.688,-2.172 1.75,0.187 2.296,1.239 1.984,2.703 -0.322,1.464 -1.234,2.702 -1.661,4.15 -0.421,1.454 -0.719,2.975 -0.891,4.172 -0.197,1.371 -0.806,1.97 -1.27,2.09 -1.151,0.306 -2.032,0.052 -2.032,0.052 z"
     id="path1451" />
  <path
     style="fill:#231f20;fill-opacity:1;fill-rule:nonzero;stroke:none"
     d="m 209.546,98.661 c 0.584,-0.431 2.391,-3.136 2.771,-3.77 0.349,-0.568 1.224,-1.319 0.594,-2.281 -0.256,-0.396 -0.901,-0.782 -1.213,-0.876 -0.251,-0.067 -0.5,0.152 -0.672,0.505 -0.292,0.595 -0.141,0.881 -0.636,2.057 0,0 -0.073,0.303 -0.167,0.839 -0.306,1.604 -0.025,0.928 -0.978,3.156 -0.074,0.152 0.041,0.333 0.15,0.37 0.167,0.058 0.151,0 0.151,0"
     id="path1452" />
  <path
     style="fill:none;stroke:#231f20;stroke-width:0.565977;stroke-linecap:round;stroke-linejoin:round;stroke-miterlimit:4;stroke-dasharray:none;stroke-opacity:1"
     d="m 209.546,98.661 c 0.584,-0.431 2.391,-3.136 2.771,-3.77 0.349,-0.568 1.224,-1.319 0.594,-2.281 -0.256,-0.396 -0.901,-0.782 -1.213,-0.876 -0.251,-0.067 -0.5,0.152 -0.672,0.505 -0.292,0.595 -0.141,0.881 -0.636,2.057 0,0 -0.073,0.303 -0.167,0.839 -0.306,1.604 -0.025,0.928 -0.978,3.156 -0.074,0.152 0.041,0.333 0.15,0.37 0.167,0.058 0.151,0 0.151,0 z"
     id="path1453" />
  <path
     style="fill:#231f20;fill-opacity:1;fill-rule:nonzero;stroke:none"
     d="m 215.759,19.015 c -1.046,0.855 -0.733,1.798 0.152,2.339 0.26,0.161 0.323,0.573 0.588,0.713 0.631,0.314 2.266,-0.285 2.11,-1.785 -0.011,-0.1 0.156,-0.901 0.182,-1.521 0.052,-1.219 -0.426,-3.662 -2.677,-5.151 -1.063,-0.704 -1.281,0.057 -0.943,0.468 1.094,1.319 0.938,1.652 1.094,2.099 0.557,1.526 -0.506,2.838 -0.506,2.838"
     id="path1454" />
  <path
     style="fill:none;stroke:#231f20;stroke-width:0.332927;stroke-linecap:butt;stroke-linejoin:miter;stroke-miterlimit:4;stroke-dasharray:none;stroke-opacity:1"
     d="m 215.759,19.015 c -1.046,0.855 -0.733,1.798 0.152,2.339 0.26,0.161 0.323,0.573 0.588,0.713 0.631,0.314 2.266,-0.285 2.11,-1.785 -0.011,-0.1 0.156,-0.901 0.182,-1.521 0.052,-1.219 -0.426,-3.662 -2.677,-5.151 -1.063,-0.704 -1.281,0.057 -0.943,0.468 1.094,1.319 0.938,1.652 1.094,2.099 0.557,1.526 -0.506,2.838 -0.506,2.838 z"
     id="path1455" />
  <path
     style="fill:#ffffff;fill-opacity:1;fill-rule:nonzero;stroke:none"
     d="m 217.999,37.63 c -2.234,0.37 -2.724,0.141 -2.937,-0.796 -0.145,-0.615 -0.489,-1.147 -0.599,-1.522 -0.36,-1.245 -0.437,-3.489 0.984,-9.911 0.328,-1.458 0.771,-3.504 0.88,-4.364 0.183,-1.344 2.298,-0.136 2.23,0.39 -0.203,1.708 -0.214,2.886 -0.203,3.522 0.005,0.421 -0.084,1.175 0.156,2.822 0.359,2.505 0.948,3.948 1.005,6.063 0.026,0.984 0.672,1.702 0.203,2.676 -0.464,0.99 -1.719,1.12 -1.719,1.12"
     id="path1456" />
  <path
     style="fill:none;stroke:#231f20;stroke-width:0.565977;stroke-linecap:butt;stroke-linejoin:miter;stroke-miterlimit:4;stroke-dasharray:none;stroke-opacity:1"
     d="m 217.999,37.63 c -2.234,0.37 -2.724,0.141 -2.937,-0.796 -0.145,-0.615 -0.489,-1.147 -0.599,-1.522 -0.36,-1.245 -0.437,-3.489 0.984,-9.911 0.328,-1.458 0.771,-3.504 0.88,-4.364 0.183,-1.344 2.298,-0.136 2.23,0.39 -0.203,1.708 -0.214,2.886 -0.203,3.522 0.005,0.421 -0.084,1.175 0.156,2.822 0.359,2.505 0.948,3.948 1.005,6.063 0.026,0.984 0.672,1.702 0.203,2.676 -0.464,0.99 -1.719,1.12 -1.719,1.12 z"
     id="path1457" />
  <path
     style="fill:#0098c9;fill-opacity:1;fill-rule:nonzero;stroke:none"
     d="m 215.999,63.484 c -0.134,-3.13 -0.505,-3.786 -0.901,-4.614 -2.5,-5.214 0.109,-6.344 2.964,-5.943 3.36,0.464 4.573,0.563 4.249,6.855 -0.093,1.744 0.434,8.5 0.434,8.5 0.514,2.39 -0.262,5 -1.428,5.869 -1.234,0.912 -0.807,0.459 -2.11,1.099 -1.229,0.609 -3.41,0.453 -4.134,-0.547 -0.704,-0.953 -0.052,-2.489 0.604,-4.823 0.51,-1.844 0.322,-6.396 0.322,-6.396"
     id="path1458" />
  <path
     style="fill:none;stroke:#231f20;stroke-width:0.565977;stroke-linecap:butt;stroke-linejoin:miter;stroke-miterlimit:4;stroke-dasharray:none;stroke-opacity:1"
     d="m 215.999,63.484 c -0.134,-3.13 -0.505,-3.786 -0.901,-4.614 -2.5,-5.214 0.109,-6.344 2.964,-5.943 3.36,0.464 4.573,0.563 4.249,6.855 -0.093,1.744 0.434,8.5 0.434,8.5 0.514,2.39 -0.262,5 -1.428,5.869 -1.234,0.912 -0.807,0.459 -2.11,1.099 -1.229,0.609 -3.41,0.453 -4.134,-0.547 -0.704,-0.953 -0.052,-2.489 0.604,-4.823 0.51,-1.844 0.322,-6.396 0.322,-6.396 z"
     id="path1459" />
  <path
     style="fill:#ffffff;fill-opacity:1;fill-rule:nonzero;stroke:none"
     d="m 219.463,81.927 c -0.01,0.245 1.078,0.604 0.954,1.115 -0.131,0.51 -0.923,0.516 -2.183,2.052 l -0.016,0.016 c -0.885,1.15 -2.12,1.79 -3.353,1.582 -2.054,-0.344 -3.33,-2.88 -2.86,-5.661 0.464,-2.787 2.505,-4.765 4.552,-4.421 1.964,0.322 3.218,2.666 2.906,5.317"
     id="path1460" />
  <path
     style="fill:none;stroke:#231f20;stroke-width:0.565977;stroke-linecap:butt;stroke-linejoin:miter;stroke-miterlimit:4;stroke-dasharray:none;stroke-opacity:1"
     d="m 219.463,81.927 c -0.01,0.245 1.078,0.604 0.954,1.115 -0.131,0.51 -0.923,0.516 -2.183,2.052 l -0.016,0.016 c -0.885,1.15 -2.12,1.79 -3.353,1.582 -2.054,-0.344 -3.33,-2.88 -2.86,-5.661 0.464,-2.787 2.505,-4.765 4.552,-4.421 1.964,0.322 3.218,2.666 2.906,5.317 z"
     id="path1461" />
  <path
     style="fill:#ffffff;fill-opacity:1;fill-rule:nonzero;stroke:#231f20;stroke-width:0.565977;stroke-linecap:round;stroke-linejoin:round;stroke-miterlimit:4;stroke-dasharray:none;stroke-opacity:1"
     d="m 218.926,35.307 c 1.688,0.579 1.167,3.141 1.256,3.505 1.255,4.85 1.224,5.235 1.921,8.99 1.006,5.432 0.86,9.313 -2.129,10.822 -2.027,1.016 -3.641,0.735 -4.625,-0.14 -1.09,-0.969 -2.224,-3.942 -0.5,-6.254 l 0.15,-1.71 c -0.046,-1.156 -0.062,-1.729 -0.134,-2.301 -0.12,-0.995 -0.188,-2.068 -0.314,-4.021 -0.224,-3.468 0.678,-7.198 0.678,-7.198 -0.016,-0.286 0.073,-0.532 0.218,-0.729"
     id="path1462" />
  <path
     style="fill:#231f20;fill-opacity:1;fill-rule:nonzero;stroke:none"
     d="m 219.343,92.979 c 0.37,-0.525 0.162,-2.464 0.62,-4.005 0.307,-1.042 -0.062,-3.766 0.323,-4.782 0.349,-0.926 0.427,-1.385 -0.568,-1.968 -0.588,-0.344 -1.948,-0.63 -2.229,-0.204 -0.646,1 -0.812,1.934 -0.776,3 0.046,1.219 0.448,4.5 0.578,5.1 0.334,1.484 0.011,2.151 0.063,2.552 0.093,0.755 0.405,0.906 0.905,0.952 0.954,0.089 1.084,-0.645 1.084,-0.645"
     id="path1463" />
  <path
     style="fill:none;stroke:#231f20;stroke-width:0.565977;stroke-linecap:butt;stroke-linejoin:miter;stroke-miterlimit:4;stroke-dasharray:none;stroke-opacity:1"
     d="m 219.343,92.979 c 0.37,-0.525 0.162,-2.464 0.62,-4.005 0.307,-1.042 -0.062,-3.766 0.323,-4.782 0.349,-0.926 0.427,-1.385 -0.568,-1.968 -0.588,-0.344 -1.948,-0.63 -2.229,-0.204 -0.646,1 -0.812,1.934 -0.776,3 0.046,1.219 0.448,4.5 0.578,5.1 0.334,1.484 0.011,2.151 0.063,2.552 0.093,0.755 0.405,0.906 0.905,0.952 0.954,0.089 1.084,-0.645 1.084,-0.645 z"
     id="path1464" />
  <path
     style="fill:#231f20;fill-opacity:1;fill-rule:nonzero;stroke:none"
     d="m 219.666,83.927 c 1.297,-0.093 0.776,-2.068 0.719,-2.604 -0.058,-0.541 -0.047,-2.099 0.12,-3.308 0.161,-1.213 -0.151,-2.796 0.161,-5.104 0.161,-1.213 -0.448,-2.495 -2.219,-2.656 -1.749,-0.156 -2.494,0.765 -2.473,2.265 0.025,1.495 0.681,2.891 0.812,4.396 0.135,1.506 0.125,3.052 0.063,4.266 -0.074,1.381 0.405,2.094 0.833,2.302 1.077,0.527 1.984,0.443 1.984,0.443"
     id="path1465" />
  <path
     style="fill:none;stroke:#231f20;stroke-width:0.565977;stroke-linecap:butt;stroke-linejoin:miter;stroke-miterlimit:4;stroke-dasharray:none;stroke-opacity:1"
     d="m 219.666,83.927 c 1.297,-0.093 0.776,-2.068 0.719,-2.604 -0.058,-0.541 -0.047,-2.099 0.12,-3.308 0.161,-1.213 -0.151,-2.796 0.161,-5.104 0.161,-1.213 -0.448,-2.495 -2.219,-2.656 -1.749,-0.156 -2.494,0.765 -2.473,2.265 0.025,1.495 0.681,2.891 0.812,4.396 0.135,1.506 0.125,3.052 0.063,4.266 -0.074,1.381 0.405,2.094 0.833,2.302 1.077,0.527 1.984,0.443 1.984,0.443 z"
     id="path1466" />
  <path
     style="fill:#ffffff;fill-opacity:1;fill-rule:nonzero;stroke:none"
     d="m 216.885,94.448 c 0.354,-0.964 1.422,-1.458 2.385,-1.104 0.964,0.354 1.464,1.416 1.104,2.386 -0.348,0.968 -1.416,1.457 -2.385,1.104 -0.963,-0.35 -1.458,-1.423 -1.104,-2.386"
     id="path1467" />
  <path
     style="fill:none;stroke:#231f20;stroke-width:1.33171;stroke-linecap:butt;stroke-linejoin:miter;stroke-miterlimit:4;stroke-dasharray:none;stroke-opacity:1"
     d="m 216.885,94.448 c 0.354,-0.964 1.422,-1.458 2.385,-1.104 0.964,0.354 1.464,1.416 1.104,2.386 -0.348,0.968 -1.416,1.457 -2.385,1.104 -0.963,-0.35 -1.458,-1.423 -1.104,-2.386 z"
     id="path1468" />
  <path
     style="fill:#231f20;fill-opacity:1;fill-rule:nonzero;stroke:none"
     d="m 216.698,37.787 c -2.204,0.531 -2.704,0.337 -2.991,-0.579 -0.192,-0.598 -0.577,-1.109 -0.708,-1.469 -0.453,-1.219 -0.697,-3.452 0.24,-9.963 0.219,-1.479 0.511,-3.557 0.547,-4.417 0.088,-1.353 2.287,-0.306 2.255,0.224 -0.072,1.719 0,2.896 0.062,3.522 0.038,0.426 0.006,1.186 0.366,2.811 0.546,2.47 1.238,3.86 1.452,5.964 0.105,0.979 0.802,1.651 0.406,2.656 -0.385,1.022 -1.629,1.251 -1.629,1.251"
     id="path1469" />
  <path
     style="fill:none;stroke:#231f20;stroke-width:0.565977;stroke-linecap:butt;stroke-linejoin:miter;stroke-miterlimit:4;stroke-dasharray:none;stroke-opacity:1"
     d="m 216.698,37.787 c -2.204,0.531 -2.704,0.337 -2.991,-0.579 -0.192,-0.598 -0.577,-1.109 -0.708,-1.469 -0.453,-1.219 -0.697,-3.452 0.24,-9.963 0.219,-1.479 0.511,-3.557 0.547,-4.417 0.088,-1.353 2.287,-0.306 2.255,0.224 -0.072,1.719 0,2.896 0.062,3.522 0.038,0.426 0.006,1.186 0.366,2.811 0.546,2.47 1.238,3.86 1.452,5.964 0.105,0.979 0.802,1.651 0.406,2.656 -0.385,1.022 -1.629,1.251 -1.629,1.251 z"
     id="path1470" />
  <path
     style="fill:#231f20;fill-opacity:1;fill-rule:nonzero;stroke:none"
     d="m 215.578,35.578 c 3.801,-1.276 3.233,2.766 3.385,3.218 1.61,4.746 1.61,5.131 2.583,8.824 1.407,5.343 1.552,9.219 -1.312,10.952 -1.948,1.162 -3.579,1 -4.631,0.204 -1.156,-0.89 -2.51,-3.765 -0.958,-6.198 l 0.016,-1.719 c -0.13,-1.151 -0.187,-1.719 -0.302,-2.287 -0.193,-0.984 -0.344,-2.046 -0.609,-3.984 -0.485,-3.437 0.135,-7.229 0.135,-7.229 -0.146,-1.244 1.693,-1.781 1.693,-1.781"
     id="path1471" />
  <path
     style="fill:none;stroke:#231f20;stroke-width:0.565977;stroke-linecap:butt;stroke-linejoin:miter;stroke-miterlimit:4;stroke-dasharray:none;stroke-opacity:1"
     d="m 215.578,35.578 c 3.801,-1.276 3.233,2.766 3.385,3.218 1.61,4.746 1.61,5.131 2.583,8.824 1.407,5.343 1.552,9.219 -1.312,10.952 -1.948,1.162 -3.579,1 -4.631,0.204 -1.156,-0.89 -2.51,-3.765 -0.958,-6.198 l 0.016,-1.719 c -0.13,-1.151 -0.187,-1.719 -0.302,-2.287 -0.193,-0.984 -0.344,-2.046 -0.609,-3.984 -0.485,-3.437 0.135,-7.229 0.135,-7.229 -0.146,-1.244 1.693,-1.781 1.693,-1.781 z"
     id="path1472" />
  <path
     style="fill:#231f20;fill-opacity:1;fill-rule:nonzero;stroke:none"
     d="m 213.073,19.386 c -0.98,0.932 -0.595,1.844 0.322,2.317 0.276,0.151 0.364,0.552 0.64,0.667 0.658,0.271 2.24,-0.453 1.975,-1.932 -0.016,-0.099 0.088,-0.912 0.068,-1.532 -0.043,-1.219 -0.699,-3.624 -3.052,-4.932 -1.115,-0.629 -1.276,0.147 -0.907,0.532 1.188,1.233 1.058,1.577 1.25,2.009 0.662,1.486 -0.296,2.871 -0.296,2.871"
     id="path1473" />
  <path
     style="fill:none;stroke:#231f20;stroke-width:0.332927;stroke-linecap:butt;stroke-linejoin:miter;stroke-miterlimit:4;stroke-dasharray:none;stroke-opacity:1"
     d="m 213.073,19.386 c -0.98,0.932 -0.595,1.844 0.322,2.317 0.276,0.151 0.364,0.552 0.64,0.667 0.658,0.271 2.24,-0.453 1.975,-1.932 -0.016,-0.099 0.088,-0.912 0.068,-1.532 -0.043,-1.219 -0.699,-3.624 -3.052,-4.932 -1.115,-0.629 -1.276,0.147 -0.907,0.532 1.188,1.233 1.058,1.577 1.25,2.009 0.662,1.486 -0.296,2.871 -0.296,2.871 z"
     id="path1474" />
  <path
     style="fill:#0098c9;fill-opacity:1;fill-rule:nonzero;stroke:none"
     d="m 222.953,53.678 c -0.027,-0.068 -0.047,-0.147 -0.063,-0.224 0.057,-0.584 0.099,-1.194 0.104,-1.844 l -7.801,0.432 c -1.959,2.12 -1.12,5.197 -0.136,6.27 0.896,0.97 2.469,1.412 4.593,0.604 1.376,-0.525 2.235,-1.582 2.74,-3.052 0.547,-0.885 0.864,-1.437 0.563,-2.186"
     id="path1475" />
  <path
     style="fill:none;stroke:#231f20;stroke-width:0.565977;stroke-linecap:butt;stroke-linejoin:miter;stroke-miterlimit:4;stroke-dasharray:none;stroke-opacity:1"
     d="m 222.953,53.678 c -0.027,-0.068 -0.047,-0.147 -0.063,-0.224 0.057,-0.584 0.099,-1.194 0.104,-1.844 l -7.801,0.432 c -1.959,2.12 -1.12,5.197 -0.136,6.27 0.896,0.97 2.469,1.412 4.593,0.604 1.376,-0.525 2.235,-1.582 2.74,-3.052 0.547,-0.885 0.864,-1.437 0.563,-2.186 z"
     id="path1476" />
  <path
     style="fill:none;stroke:#231f20;stroke-width:0.399514;stroke-linecap:butt;stroke-linejoin:miter;stroke-miterlimit:4;stroke-dasharray:none;stroke-opacity:1"
     d="m 203.125,38.026 c 19.082,-18.375 28.77,-9.292 25.812,-1.411"
     id="path1477" />
  <path
     style="fill:#231f20;fill-opacity:1;fill-rule:nonzero;stroke:none"
     d="m 228.515,37.739 c 0,-0.604 -0.089,-1.391 -0.292,-1.932 l 0.771,0.656 1.011,0.011 c -0.511,0.276 -1.094,0.813 -1.49,1.265"
     id="path1478" />
  <path
     style="fill:#0098c9;fill-opacity:1;fill-rule:nonzero;stroke:none"
     d="m 47.765,63.635 c 3.245,-1.344 4.199,-1.536 5.292,-1.875 5.516,-1.713 6.265,-0.661 7.073,1.594 1.146,3.193 1.463,5.052 -4.641,6.6 -4.629,1.166 -7.901,2.702 -7.901,2.702 -1.416,1.224 -4.843,2.312 -5.703,2.016 -1.453,-0.496 -1.156,-0.442 -2.161,-1.49 -1.855,-1.922 -1.49,-3.067 -0.807,-4.036 0.687,-0.974 1.536,-1.574 3.979,-2.959 1.896,-1.077 4.869,-2.552 4.869,-2.552"
     id="path1479" />
  <path
     style="fill:none;stroke:#231f20;stroke-width:0.565977;stroke-linecap:butt;stroke-linejoin:miter;stroke-miterlimit:4;stroke-dasharray:none;stroke-opacity:1"
     d="m 47.765,63.635 c 3.245,-1.344 4.199,-1.536 5.292,-1.875 5.516,-1.713 6.265,-0.661 7.073,1.594 1.146,3.193 1.463,5.052 -4.641,6.6 -4.629,1.166 -7.901,2.702 -7.901,2.702 -1.416,1.224 -4.843,2.312 -5.703,2.016 -1.453,-0.496 -1.156,-0.442 -2.161,-1.49 -1.855,-1.922 -1.49,-3.067 -0.807,-4.036 0.687,-0.974 1.536,-1.574 3.979,-2.959 1.896,-1.077 4.869,-2.552 4.869,-2.552 z"
     id="path1480" />
  <path
     style="fill:#ffffff;fill-opacity:1;fill-rule:nonzero;stroke:none"
     d="m 32.344,75.678 c -0.246,0.014 -0.475,1.145 -0.995,1.077 -0.521,-0.068 -0.62,-0.849 -2.303,-1.916 l -0.014,-0.011 c -1.256,-0.74 -2.043,-1.885 -1.986,-3.136 0.095,-2.077 2.448,-3.656 5.271,-3.53 2.828,0.12 5.037,1.905 4.943,3.978 -0.078,1.984 -2.255,3.522 -4.916,3.538"
     id="path1481" />
  <path
     style="fill:none;stroke:#231f20;stroke-width:0.565977;stroke-linecap:butt;stroke-linejoin:miter;stroke-miterlimit:4;stroke-dasharray:none;stroke-opacity:1"
     d="m 32.344,75.678 c -0.246,0.014 -0.475,1.145 -0.995,1.077 -0.521,-0.068 -0.62,-0.849 -2.303,-1.916 l -0.014,-0.011 c -1.256,-0.74 -2.043,-1.885 -1.986,-3.136 0.095,-2.077 2.448,-3.656 5.271,-3.53 2.828,0.12 5.037,1.905 4.943,3.978 -0.078,1.984 -2.255,3.522 -4.916,3.538 z"
     id="path1482" />
  <path
     style="fill:#231f20;fill-opacity:1;fill-rule:nonzero;stroke:none"
     d="m 34.437,91.015 c 0.537,-0.359 1.032,-2.244 2,-3.525 0.661,-0.866 1.281,-3.542 2.005,-4.35 0.656,-0.744 0.891,-1.15 0.167,-2.046 -0.427,-0.531 -1.593,-1.282 -2.011,-0.979 -0.962,0.703 -1.448,1.515 -1.79,2.525 -0.391,1.151 -1.178,4.366 -1.272,4.975 -0.214,1.505 -0.755,2.009 -0.848,2.405 -0.183,0.74 0.057,0.991 0.51,1.21 0.859,0.421 1.239,-0.215 1.239,-0.215"
     id="path1483" />
  <path
     style="fill:none;stroke:#231f20;stroke-width:0.565977;stroke-linecap:butt;stroke-linejoin:miter;stroke-miterlimit:4;stroke-dasharray:none;stroke-opacity:1"
     d="m 34.437,91.015 c 0.537,-0.359 1.032,-2.244 2,-3.525 0.661,-0.866 1.281,-3.542 2.005,-4.35 0.656,-0.744 0.891,-1.15 0.167,-2.046 -0.427,-0.531 -1.593,-1.282 -2.011,-0.979 -0.962,0.703 -1.448,1.515 -1.79,2.525 -0.391,1.151 -1.178,4.366 -1.272,4.975 -0.214,1.505 -0.755,2.009 -0.848,2.405 -0.183,0.74 0.057,0.991 0.51,1.21 0.859,0.421 1.239,-0.215 1.239,-0.215 z"
     id="path1484" />
  <path
     style="fill:#231f20;fill-opacity:1;fill-rule:nonzero;stroke:none"
     d="m 37.958,82.667 c 1.24,0.369 1.454,-1.656 1.594,-2.177 0.136,-0.527 0.702,-1.98 1.286,-3.052 0.584,-1.079 0.855,-2.672 1.959,-4.714 0.583,-1.073 0.468,-2.494 -1.131,-3.27 -1.573,-0.767 -2.598,-0.167 -3.109,1.238 -0.511,1.407 -0.391,2.943 -0.801,4.402 -0.418,1.453 -0.97,2.896 -1.459,4.005 -0.563,1.265 -0.365,2.099 -0.037,2.448 0.818,0.869 1.698,1.12 1.698,1.12"
     id="path1485" />
  <path
     style="fill:none;stroke:#231f20;stroke-width:0.565977;stroke-linecap:butt;stroke-linejoin:miter;stroke-miterlimit:4;stroke-dasharray:none;stroke-opacity:1"
     d="m 37.958,82.667 c 1.24,0.369 1.454,-1.656 1.594,-2.177 0.136,-0.527 0.702,-1.98 1.286,-3.052 0.584,-1.079 0.855,-2.672 1.959,-4.714 0.583,-1.073 0.468,-2.494 -1.131,-3.27 -1.573,-0.767 -2.598,-0.167 -3.109,1.238 -0.511,1.407 -0.391,2.943 -0.801,4.402 -0.418,1.453 -0.97,2.896 -1.459,4.005 -0.563,1.265 -0.365,2.099 -0.037,2.448 0.818,0.869 1.698,1.12 1.698,1.12 z"
     id="path1486" />
  <path
     style="fill:#ffffff;fill-opacity:1;fill-rule:nonzero;stroke:none"
     d="m 32.136,95.88 c -0.844,-0.589 -1.047,-1.75 -0.459,-2.589 0.588,-0.843 1.745,-1.052 2.588,-0.463 0.839,0.588 1.047,1.75 0.459,2.594 -0.588,0.838 -1.746,1.041 -2.588,0.458"
     id="path1487" />
  <path
     style="fill:none;stroke:#231f20;stroke-width:1.33171;stroke-linecap:butt;stroke-linejoin:miter;stroke-miterlimit:4;stroke-dasharray:none;stroke-opacity:1"
     d="m 32.136,95.88 c -0.844,-0.589 -1.047,-1.75 -0.459,-2.589 0.588,-0.843 1.745,-1.052 2.588,-0.463 0.839,0.588 1.047,1.75 0.459,2.594 -0.588,0.838 -1.746,1.041 -2.588,0.458 z"
     id="path1488" />
  <path
     style="fill:#0098c9;fill-opacity:1;fill-rule:nonzero;stroke:none"
     d="m 100.516,108.922 c 1.338,3.239 1.53,4.198 1.869,5.286 1.713,5.522 0.661,6.265 -1.588,7.079 -3.199,1.145 -5.057,1.462 -6.599,-4.647 -1.172,-4.625 -2.709,-7.901 -2.709,-7.901 -1.219,-1.411 -2.312,-4.839 -2.015,-5.703 0.495,-1.453 0.447,-1.156 1.49,-2.161 1.926,-1.855 3.068,-1.484 4.041,-0.803 0.969,0.688 1.568,1.532 2.953,3.975 1.083,1.896 2.558,4.875 2.558,4.875"
     id="path1489" />
  <path
     style="fill:none;stroke:#231f20;stroke-width:0.565977;stroke-linecap:butt;stroke-linejoin:miter;stroke-miterlimit:4;stroke-dasharray:none;stroke-opacity:1"
     d="m 100.516,108.922 c 1.338,3.239 1.53,4.198 1.869,5.286 1.713,5.522 0.661,6.265 -1.588,7.079 -3.199,1.145 -5.057,1.462 -6.599,-4.647 -1.172,-4.625 -2.709,-7.901 -2.709,-7.901 -1.219,-1.411 -2.312,-4.839 -2.015,-5.703 0.495,-1.453 0.447,-1.156 1.49,-2.161 1.926,-1.855 3.068,-1.484 4.041,-0.803 0.969,0.688 1.568,1.532 2.953,3.975 1.083,1.896 2.558,4.875 2.558,4.875 z"
     id="path1490" />
  <path
     style="fill:#ffffff;fill-opacity:1;fill-rule:nonzero;stroke:none"
     d="m 88.469,93.495 c -0.016,-0.246 -1.141,-0.475 -1.079,-0.989 0.068,-0.522 0.85,-0.626 1.918,-2.303 l 0.009,-0.021 c 0.74,-1.25 1.885,-2.036 3.141,-1.979 2.074,0.088 3.656,2.448 3.531,5.265 -0.124,2.834 -1.911,5.038 -3.984,4.948 -1.984,-0.082 -3.521,-2.26 -3.536,-4.921"
     id="path1491" />
  <path
     style="fill:none;stroke:#231f20;stroke-width:0.565977;stroke-linecap:butt;stroke-linejoin:miter;stroke-miterlimit:4;stroke-dasharray:none;stroke-opacity:1"
     d="m 88.469,93.495 c -0.016,-0.246 -1.141,-0.475 -1.079,-0.989 0.068,-0.522 0.85,-0.626 1.918,-2.303 l 0.009,-0.021 c 0.74,-1.25 1.885,-2.036 3.141,-1.979 2.074,0.088 3.656,2.448 3.531,5.265 -0.124,2.834 -1.911,5.038 -3.984,4.948 -1.984,-0.082 -3.521,-2.26 -3.536,-4.921 z"
     id="path1492" />
  <path
     style="fill:#231f20;fill-opacity:1;fill-rule:nonzero;stroke:none"
     d="m 73.13,95.594 c 0.364,0.53 2.25,1.026 3.526,2 0.865,0.655 3.542,1.281 4.354,2 0.746,0.655 1.146,0.89 2.042,0.166 0.536,-0.426 1.281,-1.593 0.984,-2.005 -0.703,-0.964 -1.515,-1.448 -2.526,-1.792 -1.15,-0.391 -4.369,-1.176 -4.974,-1.271 -1.51,-0.218 -2.015,-0.755 -2.411,-0.849 -0.74,-0.182 -0.984,0.057 -1.208,0.505 -0.423,0.86 0.213,1.246 0.213,1.246"
     id="path1493" />
  <path
     style="fill:none;stroke:#231f20;stroke-width:0.565977;stroke-linecap:butt;stroke-linejoin:miter;stroke-miterlimit:4;stroke-dasharray:none;stroke-opacity:1"
     d="m 73.13,95.594 c 0.364,0.53 2.25,1.026 3.526,2 0.865,0.655 3.542,1.281 4.354,2 0.746,0.655 1.146,0.89 2.042,0.166 0.536,-0.426 1.281,-1.593 0.984,-2.005 -0.703,-0.964 -1.515,-1.448 -2.526,-1.792 -1.15,-0.391 -4.369,-1.176 -4.974,-1.271 -1.51,-0.218 -2.015,-0.755 -2.411,-0.849 -0.74,-0.182 -0.984,0.057 -1.208,0.505 -0.423,0.86 0.213,1.246 0.213,1.246 z"
     id="path1494" />
  <path
     style="fill:#231f20;fill-opacity:1;fill-rule:nonzero;stroke:none"
     d="m 81.478,99.115 c -0.369,1.239 1.658,1.452 2.178,1.588 0.532,0.14 1.985,0.703 3.052,1.292 1.078,0.583 2.672,0.848 4.718,1.959 1.074,0.582 2.491,0.468 3.267,-1.131 0.771,-1.574 0.167,-2.599 -1.24,-3.11 -1.407,-0.51 -2.943,-0.39 -4.396,-0.807 -1.453,-0.411 -2.896,-0.969 -4.011,-1.458 -1.265,-0.557 -2.093,-0.36 -2.448,-0.037 -0.869,0.819 -1.12,1.704 -1.12,1.704"
     id="path1495" />
  <path
     style="fill:none;stroke:#231f20;stroke-width:0.565977;stroke-linecap:butt;stroke-linejoin:miter;stroke-miterlimit:4;stroke-dasharray:none;stroke-opacity:1"
     d="m 81.478,99.115 c -0.369,1.239 1.658,1.452 2.178,1.588 0.532,0.14 1.985,0.703 3.052,1.292 1.078,0.583 2.672,0.848 4.718,1.959 1.074,0.582 2.491,0.468 3.267,-1.131 0.771,-1.574 0.167,-2.599 -1.24,-3.11 -1.407,-0.51 -2.943,-0.39 -4.396,-0.807 -1.453,-0.411 -2.896,-0.969 -4.011,-1.458 -1.265,-0.557 -2.093,-0.36 -2.448,-0.037 -0.869,0.819 -1.12,1.704 -1.12,1.704 z"
     id="path1496" />
  <path
     style="fill:#ffffff;fill-opacity:1;fill-rule:nonzero;stroke:none"
     d="m 68.27,93.287 c 0.59,-0.839 1.746,-1.048 2.584,-0.459 0.844,0.588 1.052,1.744 0.463,2.588 -0.588,0.844 -1.744,1.052 -2.588,0.464 -0.844,-0.589 -1.047,-1.75 -0.459,-2.593"
     id="path1497" />
  <path
     style="fill:none;stroke:#231f20;stroke-width:1.33171;stroke-linecap:butt;stroke-linejoin:miter;stroke-miterlimit:4;stroke-dasharray:none;stroke-opacity:1"
     d="m 68.27,93.287 c 0.59,-0.839 1.746,-1.048 2.584,-0.459 0.844,0.588 1.052,1.744 0.463,2.588 -0.588,0.844 -1.744,1.052 -2.588,0.464 -0.844,-0.589 -1.047,-1.75 -0.459,-2.593 z"
     id="path1498" />
  <path
     style="fill:#0098c9;fill-opacity:1;fill-rule:nonzero;stroke:none"
     d="m 135.286,126.708 c -1.443,3.203 -2.005,3.995 -2.568,4.99 -2.849,5.032 -4.115,4.775 -6.244,3.693 -3.021,-1.548 -4.532,-2.683 -1.136,-7.991 2.568,-4.025 3.901,-7.385 3.901,-7.385 0.192,-1.859 1.943,-5 2.771,-5.374 1.401,-0.635 1.145,-0.469 2.593,-0.397 2.672,0.131 3.188,1.219 3.355,2.391 0.167,1.177 -0.041,2.194 -0.869,4.88 -0.642,2.084 -1.803,5.193 -1.803,5.193"
     id="path1499" />
  <path
     style="fill:none;stroke:#231f20;stroke-width:0.565977;stroke-linecap:butt;stroke-linejoin:miter;stroke-miterlimit:4;stroke-dasharray:none;stroke-opacity:1"
     d="m 135.286,126.708 c -1.443,3.203 -2.005,3.995 -2.568,4.99 -2.849,5.032 -4.115,4.775 -6.244,3.693 -3.021,-1.548 -4.532,-2.683 -1.136,-7.991 2.568,-4.025 3.901,-7.385 3.901,-7.385 0.192,-1.859 1.943,-5 2.771,-5.374 1.401,-0.635 1.145,-0.469 2.593,-0.397 2.672,0.131 3.188,1.219 3.355,2.391 0.167,1.177 -0.041,2.194 -0.869,4.88 -0.642,2.084 -1.803,5.193 -1.803,5.193 z"
     id="path1500" />
  <path
     style="fill:#ffffff;fill-opacity:1;fill-rule:nonzero;stroke:none"
     d="m 138.275,107.37 c 0.167,-0.178 -0.437,-1.157 -0.021,-1.464 0.428,-0.307 1.037,0.193 2.991,-0.182 l 0.02,-0.005 c 1.422,-0.319 2.776,-0.021 3.594,0.927 1.359,1.578 0.724,4.343 -1.422,6.182 -2.14,1.849 -4.974,2.063 -6.323,0.49 -1.303,-1.506 -0.771,-4.11 1.161,-5.948"
     id="path1501" />
  <path
     style="fill:none;stroke:#231f20;stroke-width:0.565977;stroke-linecap:butt;stroke-linejoin:miter;stroke-miterlimit:4;stroke-dasharray:none;stroke-opacity:1"
     d="m 138.275,107.37 c 0.167,-0.178 -0.437,-1.157 -0.021,-1.464 0.428,-0.307 1.037,0.193 2.991,-0.182 l 0.02,-0.005 c 1.422,-0.319 2.776,-0.021 3.594,0.927 1.359,1.578 0.724,4.343 -1.422,6.182 -2.14,1.849 -4.974,2.063 -6.323,0.49 -1.303,-1.506 -0.771,-4.11 1.161,-5.948 z"
     id="path1502" />
  <path
     style="fill:#231f20;fill-opacity:1;fill-rule:nonzero;stroke:none"
     d="m 126.234,97.635 c -0.136,0.631 0.797,2.339 0.964,3.937 0.109,1.079 1.489,3.459 1.52,4.543 0.032,0.989 0.136,1.443 1.281,1.604 0.678,0.093 2.036,-0.161 2.136,-0.661 0.219,-1.172 0.015,-2.095 -0.428,-3.068 -0.505,-1.11 -2.134,-3.99 -2.484,-4.495 -0.874,-1.246 -0.828,-1.985 -1.025,-2.339 -0.376,-0.661 -0.724,-0.677 -1.204,-0.532 -0.91,0.282 -0.76,1.011 -0.76,1.011"
     id="path1503" />
  <path
     style="fill:none;stroke:#231f20;stroke-width:0.565977;stroke-linecap:butt;stroke-linejoin:miter;stroke-miterlimit:4;stroke-dasharray:none;stroke-opacity:1"
     d="m 126.234,97.635 c -0.136,0.631 0.797,2.339 0.964,3.937 0.109,1.079 1.489,3.459 1.52,4.543 0.032,0.989 0.136,1.443 1.281,1.604 0.678,0.093 2.036,-0.161 2.136,-0.661 0.219,-1.172 0.015,-2.095 -0.428,-3.068 -0.505,-1.11 -2.134,-3.99 -2.484,-4.495 -0.874,-1.246 -0.828,-1.985 -1.025,-2.339 -0.376,-0.661 -0.724,-0.677 -1.204,-0.532 -0.91,0.282 -0.76,1.011 -0.76,1.011 z"
     id="path1504" />
  <path
     style="fill:#231f20;fill-opacity:1;fill-rule:nonzero;stroke:none"
     d="m 129.39,106.13 c -1.151,0.578 0.079,2.198 0.333,2.671 0.266,0.486 0.85,1.929 1.151,3.11 0.319,1.183 1.209,2.526 1.808,4.776 0.312,1.183 1.359,2.136 3.063,1.604 1.672,-0.515 2.005,-1.656 1.416,-3.031 -0.594,-1.374 -1.735,-2.412 -2.427,-3.754 -0.699,-1.345 -1.281,-2.776 -1.688,-3.918 -0.459,-1.306 -1.172,-1.776 -1.645,-1.812 -1.194,-0.073 -2.011,0.354 -2.011,0.354"
     id="path1505" />
  <path
     style="fill:none;stroke:#231f20;stroke-width:0.565977;stroke-linecap:butt;stroke-linejoin:miter;stroke-miterlimit:4;stroke-dasharray:none;stroke-opacity:1"
     d="m 129.39,106.13 c -1.151,0.578 0.079,2.198 0.333,2.671 0.266,0.486 0.85,1.929 1.151,3.11 0.319,1.183 1.209,2.526 1.808,4.776 0.312,1.183 1.359,2.136 3.063,1.604 1.672,-0.515 2.005,-1.656 1.416,-3.031 -0.594,-1.374 -1.735,-2.412 -2.427,-3.754 -0.699,-1.345 -1.281,-2.776 -1.688,-3.918 -0.459,-1.306 -1.172,-1.776 -1.645,-1.812 -1.194,-0.073 -2.011,0.354 -2.011,0.354 z"
     id="path1506" />
  <path
     style="fill:#ffffff;fill-opacity:1;fill-rule:nonzero;stroke:none"
     d="m 124.584,92.515 c 1.02,-0.151 1.962,0.552 2.109,1.568 0.145,1.016 -0.552,1.964 -1.573,2.109 -1.011,0.147 -1.959,-0.551 -2.11,-1.572 -0.145,-1.016 0.558,-1.959 1.574,-2.105"
     id="path1507" />
  <path
     style="fill:none;stroke:#231f20;stroke-width:1.33171;stroke-linecap:butt;stroke-linejoin:miter;stroke-miterlimit:4;stroke-dasharray:none;stroke-opacity:1"
     d="m 124.584,92.515 c 1.02,-0.151 1.962,0.552 2.109,1.568 0.145,1.016 -0.552,1.964 -1.573,2.109 -1.011,0.147 -1.959,-0.551 -2.11,-1.572 -0.145,-1.016 0.558,-1.959 1.574,-2.105 z"
     id="path1508" />
  <path
     style="fill:#231f20;fill-opacity:1;fill-rule:nonzero;stroke:none"
     d="m 180.245,26.474 c -1.292,0.39 -1.36,1.38 -0.74,2.218 0.177,0.251 0.078,0.652 0.27,0.886 0.47,0.526 2.214,0.584 2.631,-0.854 0.031,-0.1 0.479,-0.781 0.744,-1.344 0.505,-1.104 0.991,-3.551 -0.536,-5.781 -0.719,-1.057 -1.208,-0.432 -1.052,0.083 0.521,1.631 0.249,1.876 0.224,2.355 -0.063,1.62 -1.541,2.437 -1.541,2.437"
     id="path1509" />
  <path
     style="fill:none;stroke:#231f20;stroke-width:0.332927;stroke-linecap:butt;stroke-linejoin:miter;stroke-miterlimit:4;stroke-dasharray:none;stroke-opacity:1"
     d="m 180.245,26.474 c -1.292,0.39 -1.36,1.38 -0.74,2.218 0.177,0.251 0.078,0.652 0.27,0.886 0.47,0.526 2.214,0.584 2.631,-0.854 0.031,-0.1 0.479,-0.781 0.744,-1.344 0.505,-1.104 0.991,-3.551 -0.536,-5.781 -0.719,-1.057 -1.208,-0.432 -1.052,0.083 0.521,1.631 0.249,1.876 0.224,2.355 -0.063,1.62 -1.541,2.437 -1.541,2.437 z"
     id="path1510" />
  <path
     style="fill:#231f20;fill-opacity:1;fill-rule:nonzero;stroke:none"
     d="m 175.291,44.558 c -2.208,-0.506 -2.568,-0.896 -2.417,-1.85 0.1,-0.63 -0.031,-1.25 0.011,-1.636 0.15,-1.285 0.922,-3.394 4.666,-8.806 0.85,-1.224 2.036,-2.959 2.454,-3.708 0.682,-1.172 2.177,0.744 1.916,1.208 -0.832,1.5 -1.286,2.588 -1.51,3.172 -0.157,0.401 -0.532,1.068 -0.933,2.682 -0.609,2.452 -0.609,4.01 -1.353,5.99 -0.344,0.921 -0.016,1.833 -0.818,2.562 -0.797,0.739 -2.016,0.386 -2.016,0.386"
     id="path1511" />
  <path
     style="fill:none;stroke:#231f20;stroke-width:0.565977;stroke-linecap:butt;stroke-linejoin:miter;stroke-miterlimit:4;stroke-dasharray:none;stroke-opacity:1"
     d="m 175.291,44.558 c -2.208,-0.506 -2.568,-0.896 -2.417,-1.85 0.1,-0.63 -0.031,-1.25 0.011,-1.636 0.15,-1.285 0.922,-3.394 4.666,-8.806 0.85,-1.224 2.036,-2.959 2.454,-3.708 0.682,-1.172 2.177,0.744 1.916,1.208 -0.832,1.5 -1.286,2.588 -1.51,3.172 -0.157,0.401 -0.532,1.068 -0.933,2.682 -0.609,2.452 -0.609,4.01 -1.353,5.99 -0.344,0.921 -0.016,1.833 -0.818,2.562 -0.797,0.739 -2.016,0.386 -2.016,0.386 z"
     id="path1512" />
  <path
     style="fill:#0098c9;fill-opacity:1;fill-rule:nonzero;stroke:none"
     d="m 164.193,68.708 c 0.838,-3.021 0.681,-3.76 0.557,-4.672 -0.772,-5.729 2.052,-6 4.645,-4.74 3.052,1.47 4.178,1.938 1.938,7.828 -0.626,1.631 -2.198,8.22 -2.198,8.22 -0.25,2.432 -1.786,4.676 -3.166,5.146 -1.454,0.494 -0.912,0.192 -2.339,0.401 -1.365,0.203 -3.391,-0.615 -3.776,-1.792 -0.376,-1.131 0.719,-2.385 2.063,-4.407 1.052,-1.593 2.276,-5.984 2.276,-5.984"
     id="path1513" />
  <path
     style="fill:none;stroke:#231f20;stroke-width:0.565977;stroke-linecap:butt;stroke-linejoin:miter;stroke-miterlimit:4;stroke-dasharray:none;stroke-opacity:1"
     d="m 164.193,68.708 c 0.838,-3.021 0.681,-3.76 0.557,-4.672 -0.772,-5.729 2.052,-6 4.645,-4.74 3.052,1.47 4.178,1.938 1.938,7.828 -0.626,1.631 -2.198,8.22 -2.198,8.22 -0.25,2.432 -1.786,4.676 -3.166,5.146 -1.454,0.494 -0.912,0.192 -2.339,0.401 -1.365,0.203 -3.391,-0.615 -3.776,-1.792 -0.376,-1.131 0.719,-2.385 2.063,-4.407 1.052,-1.593 2.276,-5.984 2.276,-5.984 z"
     id="path1514" />
  <path
     style="fill:#ffffff;fill-opacity:1;fill-rule:nonzero;stroke:none"
     d="m 158.838,87.438 c -0.193,0.15 0.255,1.208 -0.208,1.448 -0.469,0.238 -0.995,-0.344 -2.985,-0.276 h -0.02 c -1.454,0.098 -2.751,-0.402 -3.407,-1.47 -1.104,-1.76 -0.047,-4.396 2.344,-5.89 2.401,-1.495 5.235,-1.276 6.328,0.489 1.057,1.683 0.136,4.177 -2.052,5.699"
     id="path1515" />
  <path
     style="fill:none;stroke:#231f20;stroke-width:0.565977;stroke-linecap:butt;stroke-linejoin:miter;stroke-miterlimit:4;stroke-dasharray:none;stroke-opacity:1"
     d="m 158.838,87.438 c -0.193,0.15 0.255,1.208 -0.208,1.448 -0.469,0.238 -0.995,-0.344 -2.985,-0.276 h -0.02 c -1.454,0.098 -2.751,-0.402 -3.407,-1.47 -1.104,-1.76 -0.047,-4.396 2.344,-5.89 2.401,-1.495 5.235,-1.276 6.328,0.489 1.057,1.683 0.136,4.177 -2.052,5.699 z"
     id="path1516" />
  <path
     style="fill:#231f20;fill-opacity:1;fill-rule:nonzero;stroke:none"
     d="m 175.275,42.088 c 3.97,0.547 1.656,3.912 1.594,4.386 -0.671,4.964 -0.843,5.302 -1.619,9.052 -1.115,5.406 -2.715,8.948 -6.052,9.218 -2.267,0.178 -3.657,-0.697 -4.235,-1.88 -0.646,-1.312 -0.578,-4.489 1.902,-5.978 l 0.78,-1.522 c 0.396,-1.093 0.6,-1.634 0.75,-2.188 0.26,-0.968 0.604,-1.989 1.224,-3.842 1.104,-3.298 3.344,-6.418 3.344,-6.418 0.422,-1.172 2.312,-0.828 2.312,-0.828"
     id="path1517" />
  <path
     style="fill:none;stroke:#231f20;stroke-width:0.565977;stroke-linecap:butt;stroke-linejoin:miter;stroke-miterlimit:4;stroke-dasharray:none;stroke-opacity:1"
     d="m 175.275,42.088 c 3.97,0.547 1.656,3.912 1.594,4.386 -0.671,4.964 -0.843,5.302 -1.619,9.052 -1.115,5.406 -2.715,8.948 -6.052,9.218 -2.267,0.178 -3.657,-0.697 -4.235,-1.88 -0.646,-1.312 -0.578,-4.489 1.902,-5.978 l 0.78,-1.522 c 0.396,-1.093 0.6,-1.634 0.75,-2.188 0.26,-0.968 0.604,-1.989 1.224,-3.842 1.104,-3.298 3.344,-6.418 3.344,-6.418 0.422,-1.172 2.312,-0.828 2.312,-0.828 z"
     id="path1518" />
  <path
     style="fill:#0098c9;fill-opacity:1;fill-rule:nonzero;stroke:none"
     d="m 174.759,59.755 -7.197,-3.031 c -2.693,1.052 -3.287,4.176 -2.869,5.578 0.374,1.265 1.593,2.36 3.858,2.557 1.47,0.131 2.708,-0.448 3.808,-1.547 0.875,-0.552 1.396,-0.912 1.458,-1.713 0.005,-0.068 0.021,-0.145 0.042,-0.224 0.307,-0.5 0.61,-1.031 0.9,-1.62"
     id="path1519" />
  <path
     style="fill:none;stroke:#231f20;stroke-width:0.565977;stroke-linecap:butt;stroke-linejoin:miter;stroke-miterlimit:4;stroke-dasharray:none;stroke-opacity:1"
     d="m 174.759,59.755 -7.197,-3.031 c -2.693,1.052 -3.287,4.176 -2.869,5.578 0.374,1.265 1.593,2.36 3.858,2.557 1.47,0.131 2.708,-0.448 3.808,-1.547 0.875,-0.552 1.396,-0.912 1.458,-1.713 0.005,-0.068 0.021,-0.145 0.042,-0.224 0.307,-0.5 0.61,-1.031 0.9,-1.62 z"
     id="path1520" />
  <path
     style="fill:#231f20;fill-opacity:1;fill-rule:nonzero;stroke:none"
     d="m 176.374,93.641 c -0.047,-0.641 -1.448,-2.001 -2.077,-3.479 -0.428,-0.995 -2.443,-2.86 -2.798,-3.886 -0.317,-0.937 -0.557,-1.344 -1.692,-1.156 -0.672,0.11 -1.901,0.755 -1.838,1.266 0.129,1.177 0.598,2.005 1.306,2.801 0.808,0.907 3.214,3.183 3.699,3.557 1.203,0.934 1.375,1.652 1.671,1.934 0.553,0.52 0.89,0.437 1.308,0.156 0.792,-0.547 0.421,-1.193 0.421,-1.193"
     id="path1521" />
  <path
     style="fill:none;stroke:#231f20;stroke-width:0.565977;stroke-linecap:butt;stroke-linejoin:miter;stroke-miterlimit:4;stroke-dasharray:none;stroke-opacity:1"
     d="m 176.374,93.641 c -0.047,-0.641 -1.448,-2.001 -2.077,-3.479 -0.428,-0.995 -2.443,-2.86 -2.798,-3.886 -0.317,-0.937 -0.557,-1.344 -1.692,-1.156 -0.672,0.11 -1.901,0.755 -1.838,1.266 0.129,1.177 0.598,2.005 1.306,2.801 0.808,0.907 3.214,3.183 3.699,3.557 1.203,0.934 1.375,1.652 1.671,1.934 0.553,0.52 0.89,0.437 1.308,0.156 0.792,-0.547 0.421,-1.193 0.421,-1.193 z"
     id="path1522" />
  <path
     style="fill:#231f20;fill-opacity:1;fill-rule:nonzero;stroke:none"
     d="M 170.854,86.458 C 171.791,85.563 170.13,84.38 169.75,84 c -0.391,-0.38 -1.381,-1.589 -2.021,-2.625 -0.646,-1.036 -1.902,-2.063 -3.131,-4.036 -0.651,-1.037 -1.932,-1.636 -3.4,-0.631 -1.448,0.995 -1.433,2.178 -0.459,3.318 0.968,1.136 2.364,1.792 3.427,2.87 1.057,1.078 2.036,2.271 2.765,3.25 0.824,1.109 1.647,1.349 2.11,1.234 1.161,-0.276 1.813,-0.922 1.813,-0.922"
     id="path1523" />
  <path
     style="fill:none;stroke:#231f20;stroke-width:0.565977;stroke-linecap:butt;stroke-linejoin:miter;stroke-miterlimit:4;stroke-dasharray:none;stroke-opacity:1"
     d="M 170.854,86.458 C 171.791,85.563 170.13,84.38 169.75,84 c -0.391,-0.38 -1.381,-1.589 -2.021,-2.625 -0.646,-1.036 -1.902,-2.063 -3.131,-4.036 -0.651,-1.037 -1.932,-1.636 -3.4,-0.631 -1.448,0.995 -1.433,2.178 -0.459,3.318 0.968,1.136 2.364,1.792 3.427,2.87 1.057,1.078 2.036,2.271 2.765,3.25 0.824,1.109 1.647,1.349 2.11,1.234 1.161,-0.276 1.813,-0.922 1.813,-0.922 z"
     id="path1524" />
  <path
     style="fill:#ffffff;fill-opacity:1;fill-rule:nonzero;stroke:none"
     d="m 175.911,97.312 c 0.906,0.475 2.031,0.12 2.506,-0.792 0.473,-0.91 0.124,-2.03 -0.787,-2.505 -0.912,-0.479 -2.037,-0.129 -2.511,0.787 -0.474,0.906 -0.125,2.037 0.792,2.51"
     id="path1525" />
  <path
     style="fill:none;stroke:#231f20;stroke-width:1.33171;stroke-linecap:butt;stroke-linejoin:miter;stroke-miterlimit:4;stroke-dasharray:none;stroke-opacity:1"
     d="m 175.911,97.312 c 0.906,0.475 2.031,0.12 2.506,-0.792 0.473,-0.91 0.124,-2.03 -0.787,-2.505 -0.912,-0.479 -2.037,-0.129 -2.511,0.787 -0.474,0.906 -0.125,2.037 0.792,2.51 z"
     id="path1526" />
  <path
     style="fill:#231f20;fill-opacity:1;fill-rule:nonzero;stroke:none"
     d="m 71.917,94.734 c -0.157,1.344 0.728,1.797 1.733,1.573 0.308,-0.068 0.636,0.188 0.923,0.093 0.672,-0.208 1.421,-1.785 0.271,-2.744 -0.079,-0.068 -0.527,-0.756 -0.938,-1.219 -0.802,-0.911 -2.854,-2.327 -5.51,-1.822 -1.251,0.239 -0.875,0.937 -0.339,0.989 1.699,0.183 1.812,0.531 2.245,0.74 1.458,0.708 1.615,2.39 1.615,2.39"
     id="path1527" />
  <path
     style="fill:none;stroke:#231f20;stroke-width:0.332927;stroke-linecap:butt;stroke-linejoin:miter;stroke-miterlimit:4;stroke-dasharray:none;stroke-opacity:1"
     d="m 71.917,94.734 c -0.157,1.344 0.728,1.797 1.733,1.573 0.308,-0.068 0.636,0.188 0.923,0.093 0.672,-0.208 1.421,-1.785 0.271,-2.744 -0.079,-0.068 -0.527,-0.756 -0.938,-1.219 -0.802,-0.911 -2.854,-2.327 -5.51,-1.822 -1.251,0.239 -0.875,0.937 -0.339,0.989 1.699,0.183 1.812,0.531 2.245,0.74 1.458,0.708 1.615,2.39 1.615,2.39 z"
     id="path1528" />
  <path
     style="fill:#ffffff;fill-opacity:1;fill-rule:nonzero;stroke:none"
     d="m 86.51,106.51 c -1.338,1.824 -1.849,1.996 -2.656,1.474 -0.542,-0.338 -1.156,-0.474 -1.489,-0.666 -1.131,-0.646 -2.756,-2.203 -6.22,-7.798 -0.785,-1.271 -1.895,-3.041 -2.411,-3.733 -0.808,-1.089 1.547,-1.699 1.87,-1.272 1.041,1.365 1.865,2.215 2.308,2.657 0.301,0.296 0.76,0.906 2.082,1.927 2.006,1.536 3.438,2.161 4.954,3.635 0.708,0.682 1.666,0.75 2.016,1.776 0.353,1.026 -0.454,2 -0.454,2"
     id="path1529" />
  <path
     style="fill:none;stroke:#231f20;stroke-width:0.565977;stroke-linecap:round;stroke-linejoin:round;stroke-miterlimit:4;stroke-dasharray:none;stroke-opacity:1"
     d="m 86.51,106.51 c -1.338,1.824 -1.849,1.996 -2.656,1.474 -0.542,-0.338 -1.156,-0.474 -1.489,-0.666 -1.131,-0.646 -2.756,-2.203 -6.22,-7.798 -0.785,-1.271 -1.895,-3.041 -2.411,-3.733 -0.808,-1.089 1.547,-1.699 1.87,-1.272 1.041,1.365 1.865,2.215 2.308,2.657 0.301,0.296 0.76,0.906 2.082,1.927 2.006,1.536 3.438,2.161 4.954,3.635 0.708,0.682 1.666,0.75 2.016,1.776 0.353,1.026 -0.454,2 -0.454,2 z"
     id="path1530" />
  <path
     style="fill:#ffffff;fill-opacity:1;fill-rule:nonzero;stroke:#231f20;stroke-width:0.565977;stroke-linecap:round;stroke-linejoin:round;stroke-miterlimit:4;stroke-dasharray:none;stroke-opacity:1"
     d="m 85.969,104.063 c 1.432,-0.261 2.635,1.588 2.927,1.765 4.292,2.604 4.53,2.896 7.65,5.104 4.516,3.188 7.115,6.068 6.032,9.235 -0.74,2.145 -2.1,3.067 -3.412,3.134 -1.464,0.058 -4.344,-1.276 -4.724,-4.139 l -1.082,-1.323 c -0.85,-0.803 -1.256,-1.199 -1.704,-1.563 -0.782,-0.63 -1.578,-1.349 -3.031,-2.661 -2.579,-2.324 -4.547,-5.626 -4.547,-5.626 -0.286,-0.276 -0.376,-0.625 -0.36,-0.974"
     id="path1531" />
  <path
     style="fill:#0098c9;fill-opacity:1;fill-rule:nonzero;stroke:none"
     d="m 100.234,113.072 -5.661,5.386 c -0.109,2.89 2.52,4.682 3.963,4.86 1.308,0.161 2.802,-0.522 3.886,-2.517 1.271,-2.322 0.228,-4.853 -2.188,-7.729"
     id="path1532" />
  <path
     style="fill:none;stroke:#231f20;stroke-width:0.565977;stroke-linecap:butt;stroke-linejoin:miter;stroke-miterlimit:4;stroke-dasharray:none;stroke-opacity:1"
     d="m 100.234,113.072 -5.661,5.386 c -0.109,2.89 2.52,4.682 3.963,4.86 1.308,0.161 2.802,-0.522 3.886,-2.517 1.271,-2.322 0.228,-4.853 -2.188,-7.729 z"
     id="path1533" />
  <path
     style="fill:#231f20;fill-opacity:1;fill-rule:nonzero;stroke:none"
     d="m 126.032,96.161 c -1.084,0.807 -0.814,1.761 0.046,2.345 0.255,0.176 0.296,0.588 0.557,0.733 0.615,0.344 2.276,-0.187 2.187,-1.681 -0.005,-0.11 0.193,-0.907 0.245,-1.516 0.11,-1.214 -0.26,-3.678 -2.448,-5.266 -1.031,-0.75 -1.286,0.006 -0.953,0.427 1.032,1.364 0.855,1.688 0.995,2.145 0.489,1.548 -0.629,2.813 -0.629,2.813"
     id="path1534" />
  <path
     style="fill:none;stroke:#231f20;stroke-width:0.332927;stroke-linecap:butt;stroke-linejoin:miter;stroke-miterlimit:4;stroke-dasharray:none;stroke-opacity:1"
     d="m 126.032,96.161 c -1.084,0.807 -0.814,1.761 0.046,2.345 0.255,0.176 0.296,0.588 0.557,0.733 0.615,0.344 2.276,-0.187 2.187,-1.681 -0.005,-0.11 0.193,-0.907 0.245,-1.516 0.11,-1.214 -0.26,-3.678 -2.448,-5.266 -1.031,-0.75 -1.286,0.006 -0.953,0.427 1.032,1.364 0.855,1.688 0.995,2.145 0.489,1.548 -0.629,2.813 -0.629,2.813 z"
     id="path1535" />
  <path
     style="fill:#ffffff;fill-opacity:1;fill-rule:nonzero;stroke:none"
     d="m 127.453,114.859 c -2.251,0.271 -2.724,0.021 -2.896,-0.922 -0.125,-0.63 -0.448,-1.172 -0.536,-1.546 -0.303,-1.261 -0.287,-3.516 1.421,-9.876 0.386,-1.437 0.923,-3.457 1.068,-4.307 0.24,-1.338 2.297,-0.036 2.203,0.49 -0.276,1.693 -0.334,2.874 -0.354,3.5 -0.005,0.426 -0.136,1.177 0.026,2.833 0.26,2.516 0.781,3.989 0.745,6.099 -0.016,0.99 0.593,1.729 0.083,2.693 -0.5,0.959 -1.76,1.036 -1.76,1.036"
     id="path1536" />
  <path
     style="fill:none;stroke:#231f20;stroke-width:0.565977;stroke-linecap:round;stroke-linejoin:round;stroke-miterlimit:4;stroke-dasharray:none;stroke-opacity:1"
     d="m 127.453,114.859 c -2.251,0.271 -2.724,0.021 -2.896,-0.922 -0.125,-0.63 -0.448,-1.172 -0.536,-1.546 -0.303,-1.261 -0.287,-3.516 1.421,-9.876 0.386,-1.437 0.923,-3.457 1.068,-4.307 0.24,-1.338 2.297,-0.036 2.203,0.49 -0.276,1.693 -0.334,2.874 -0.354,3.5 -0.005,0.426 -0.136,1.177 0.026,2.833 0.26,2.516 0.781,3.989 0.745,6.099 -0.016,0.99 0.593,1.729 0.083,2.693 -0.5,0.959 -1.76,1.036 -1.76,1.036 z"
     id="path1537" />
  <path
     style="fill:#ffffff;fill-opacity:1;fill-rule:nonzero;stroke:#231f20;stroke-width:0.565977;stroke-linecap:round;stroke-linejoin:round;stroke-miterlimit:4;stroke-dasharray:none;stroke-opacity:1"
     d="m 128.865,112.787 c 1.17,0.864 0.645,3.009 0.718,3.343 1.042,4.911 0.99,5.281 1.52,9.068 0.776,5.474 0.454,9.338 -2.593,10.724 -2.073,0.926 -3.672,0.567 -4.62,-0.345 -1.046,-1.019 -2.046,-4.036 -0.224,-6.276 l 0.224,-1.691 c 0.006,-1.167 0.011,-1.735 -0.03,-2.314 -0.079,-1 -0.1,-2.072 -0.136,-4.031 -0.074,-3.469 0.984,-7.161 0.984,-7.161 0.005,-0.401 0.198,-0.704 0.464,-0.937"
     id="path1538" />
  <path
     style="fill:#0098c9;fill-opacity:1;fill-rule:nonzero;stroke:#231f20;stroke-width:0.565977;stroke-linecap:butt;stroke-linejoin:miter;stroke-miterlimit:4;stroke-dasharray:none;stroke-opacity:1"
     d="m 124.27,128.916 c -2.181,1.902 -1.686,5.042 -0.828,6.219 0.782,1.063 2.303,1.683 4.5,1.109 2.557,-0.672 3.688,-3.167 4.125,-6.896 z"
     id="path1539" />
  <path
     style="fill:#ffffff;fill-opacity:1;fill-rule:nonzero;stroke:none"
     d="m 45.36,77.635 c 1.817,1.344 1.994,1.855 1.473,2.661 -0.344,0.543 -0.479,1.158 -0.672,1.491 -0.64,1.124 -2.197,2.755 -7.796,6.219 -1.267,0.781 -3.043,1.89 -3.729,2.405 -1.095,0.808 -1.699,-1.547 -1.271,-1.869 1.364,-1.042 2.213,-1.864 2.651,-2.303 0.301,-0.301 0.91,-0.765 1.926,-2.088 1.536,-2.005 2.162,-3.432 3.636,-4.948 0.687,-0.708 0.75,-1.672 1.782,-2.016 1.02,-0.359 2,0.448 2,0.448"
     id="path1540" />
  <path
     style="fill:none;stroke:#231f20;stroke-width:0.565977;stroke-linecap:round;stroke-linejoin:round;stroke-miterlimit:4;stroke-dasharray:none;stroke-opacity:1"
     d="m 45.36,77.635 c 1.817,1.344 1.994,1.855 1.473,2.661 -0.344,0.543 -0.479,1.158 -0.672,1.491 -0.64,1.124 -2.197,2.755 -7.796,6.219 -1.267,0.781 -3.043,1.89 -3.729,2.405 -1.095,0.808 -1.699,-1.547 -1.271,-1.869 1.364,-1.042 2.213,-1.864 2.651,-2.303 0.301,-0.301 0.91,-0.765 1.926,-2.088 1.536,-2.005 2.162,-3.432 3.636,-4.948 0.687,-0.708 0.75,-1.672 1.782,-2.016 1.02,-0.359 2,0.448 2,0.448 z"
     id="path1541" />
  <path
     style="fill:#ffffff;fill-opacity:1;fill-rule:nonzero;stroke:#231f20;stroke-width:0.565977;stroke-linecap:round;stroke-linejoin:round;stroke-miterlimit:4;stroke-dasharray:none;stroke-opacity:1"
     d="m 42.906,78.176 c -0.256,-1.432 1.588,-2.629 1.771,-2.926 2.604,-4.287 2.891,-4.526 5.104,-7.651 3.188,-4.516 6.063,-7.115 9.229,-6.032 2.151,0.745 3.068,2.1 3.135,3.417 0.063,1.459 -1.271,4.344 -4.135,4.724 l -1.322,1.083 c -0.803,0.844 -1.204,1.256 -1.563,1.704 -0.631,0.781 -1.349,1.577 -2.661,3.025 -2.328,2.584 -5.631,4.547 -5.631,4.547 -0.276,0.287 -0.625,0.376 -0.973,0.365"
     id="path1542" />
  <path
     style="fill:#0098c9;fill-opacity:1;fill-rule:nonzero;stroke:none"
     d="M 59.65,61.724 C 57.328,60.458 54.797,61.5 51.917,63.916 l 5.385,5.662 c 2.896,0.109 4.682,-2.52 4.864,-3.968 0.162,-1.308 -0.521,-2.803 -2.516,-3.886"
     id="path1543" />
  <path
     style="fill:none;stroke:#231f20;stroke-width:0.565977;stroke-linecap:butt;stroke-linejoin:miter;stroke-miterlimit:4;stroke-dasharray:none;stroke-opacity:1"
     d="M 59.65,61.724 C 57.328,60.458 54.797,61.5 51.917,63.916 l 5.385,5.662 c 2.896,0.109 4.682,-2.52 4.864,-3.968 0.162,-1.308 -0.521,-2.803 -2.516,-3.886 z"
     id="path1544" />
  <path
     style="fill:#231f20;fill-opacity:1;fill-rule:nonzero;stroke:none"
     d="m 33.584,92.23 c 1.342,0.156 1.796,-0.724 1.566,-1.735 -0.061,-0.308 0.188,-0.636 0.1,-0.923 -0.214,-0.672 -1.792,-1.421 -2.75,-0.27 -0.063,0.084 -0.755,0.526 -1.214,0.937 -0.912,0.808 -2.333,2.855 -1.822,5.51 0.238,1.251 0.937,0.875 0.989,0.345 0.183,-1.703 0.531,-1.818 0.74,-2.246 0.708,-1.462 2.391,-1.618 2.391,-1.618"
     id="path1545" />
  <path
     style="fill:none;stroke:#231f20;stroke-width:0.332927;stroke-linecap:butt;stroke-linejoin:miter;stroke-miterlimit:4;stroke-dasharray:none;stroke-opacity:1"
     d="m 33.584,92.23 c 1.342,0.156 1.796,-0.724 1.566,-1.735 -0.061,-0.308 0.188,-0.636 0.1,-0.923 -0.214,-0.672 -1.792,-1.421 -2.75,-0.27 -0.063,0.084 -0.755,0.526 -1.214,0.937 -0.912,0.808 -2.333,2.855 -1.822,5.51 0.238,1.251 0.937,0.875 0.989,0.345 0.183,-1.703 0.531,-1.818 0.74,-2.246 0.708,-1.462 2.391,-1.618 2.391,-1.618 z"
     id="path1546" />
</svg>
