<?xml version="1.0" encoding="UTF-8" standalone="no"?>
<!-- Created with Inkscape (http://www.inkscape.org/) -->

<svg
   version="1.1"
   id="svg1"
   width="304.52515"
   height="155.83974"
   viewBox="0 0 304.52514 155.83973"
   sodipodi:docname="cell.svg"
   xmlns:inkscape="http://www.inkscape.org/namespaces/inkscape"
   xmlns:sodipodi="http://sodipodi.sourceforge.net/DTD/sodipodi-0.dtd"
   xmlns="http://www.w3.org/2000/svg"
   xmlns:svg="http://www.w3.org/2000/svg">
  <sodipodi:namedview
     id="namedview1"
     pagecolor="#ffffff"
     bordercolor="#000000"
     borderopacity="0.25"
     inkscape:showpageshadow="2"
     inkscape:pageopacity="0.0"
     inkscape:pagecheckerboard="0"
     inkscape:deskcolor="#d1d1d1">
    <inkscape:page
       x="0"
       y="0"
       inkscape:label="1"
       id="page1"
       width="304.52515"
       height="155.83974"
       margin="0"
       bleed="0" />
  </sodipodi:namedview>
  <defs
     id="defs1" />
  <path
     style="fill:#231f20;fill-opacity:1;fill-rule:nonzero;stroke:none"
     d="m 2.2064605,64.971992 c -0.807,-1.0894 -0.271,-1.9227 0.72,-2.2347 0.291,-0.088 0.452,-0.4733 0.744,-0.5413 0.688,-0.1507 2.125,0.8333 1.609,2.244 -0.036,0.1 -0.077,0.9173 -0.202,1.527 -0.246,1.188 -1.308,3.442 -3.86,4.328 -1.20299998,0.421 -1.22999998,-0.364 -0.79099998,-0.688 1.38499998,-1.006 1.30699998,-1.364 1.57199998,-1.766 0.912,-1.344 0.208,-2.869 0.208,-2.869"
     id="path383" />
  <path
     style="fill:none;stroke:#231f20;stroke-width:0.332927;stroke-linecap:butt;stroke-linejoin:miter;stroke-miterlimit:4;stroke-dasharray:none;stroke-opacity:1"
     d="m 2.2064605,64.971992 c -0.807,-1.0894 -0.271,-1.9227 0.72,-2.2347 0.291,-0.088 0.452,-0.4733 0.744,-0.5413 0.688,-0.1507 2.125,0.8333 1.609,2.244 -0.036,0.1 -0.077,0.9173 -0.202,1.527 -0.246,1.188 -1.308,3.442 -3.86,4.328 -1.20299998,0.421 -1.22999998,-0.364 -0.79099998,-0.688 1.38499998,-1.006 1.30699998,-1.364 1.57199998,-1.766 0.912,-1.344 0.208,-2.869 0.208,-2.869 z"
     id="path384" />
  <path
     style="fill:#231f20;fill-opacity:1;fill-rule:nonzero;stroke:none"
     d="m 8.9514605,47.471992 c -2.078,-0.9013 -2.604,-0.8026 -3.041,0.052 -0.297,0.568 -0.76,0.9893 -0.959,1.328 -0.65,1.1253 -1.281,3.276 -1.478,9.86 -0.043,1.4893 -0.12,3.5826 -0.219,4.4373 -0.157,1.348 2.187,0.6973 2.249,0.1667 0.224,-1.704 0.511,-2.8493 0.667,-3.4533 0.115,-0.4174 0.213,-1.172 0.849,-2.708 0.963,-2.3387 1.891,-3.5894 2.464,-5.6254 0.271,-0.948 1.0720005,-1.484 0.8590005,-2.5466 -0.203,-1.068 -1.3910005,-1.5107 -1.3910005,-1.5107"
     id="path385" />
  <path
     style="fill:none;stroke:#231f20;stroke-width:0.565977;stroke-linecap:butt;stroke-linejoin:miter;stroke-miterlimit:4;stroke-dasharray:none;stroke-opacity:1"
     d="m 8.9514605,47.471992 c -2.078,-0.9013 -2.604,-0.8026 -3.041,0.052 -0.297,0.568 -0.76,0.9893 -0.959,1.328 -0.65,1.1253 -1.281,3.276 -1.478,9.86 -0.043,1.4893 -0.12,3.5826 -0.219,4.4373 -0.157,1.348 2.187,0.6973 2.249,0.1667 0.224,-1.704 0.511,-2.8493 0.667,-3.4533 0.115,-0.4174 0.213,-1.172 0.849,-2.708 0.963,-2.3387 1.891,-3.5894 2.464,-5.6254 0.271,-0.948 1.0720005,-1.484 0.8590005,-2.5466 -0.203,-1.068 -1.3910005,-1.5107 -1.3910005,-1.5107 z"
     id="path386" />
  <path
     style="fill:#0098c9;fill-opacity:1;fill-rule:nonzero;stroke:none"
     d="m 15.145461,21.409392 c -1.511,2.7453 -2.136,3.172 -2.86,3.74 -4.5580005,3.5573 -2.7240005,5.728 0.01,6.6347 3.219,1.084 4.354,1.532 6.855,-4.244 0.692,-1.6147 4.165,-7.428 4.165,-7.428 1.522,-1.9107 1.991,-4.5933 1.33,-5.8907 -0.699,-1.364 -0.522,-0.7706 -1.396,-1.9213 -0.834,-1.0987 -2.86,-1.9267 -3.954,-1.3493 -1.057,0.5466 -1.15,2.204 -1.598,4.5893 -0.36,1.88 -2.552,5.8693 -2.552,5.8693"
     id="path387" />
  <path
     style="fill:none;stroke:#231f20;stroke-width:0.565977;stroke-linecap:butt;stroke-linejoin:miter;stroke-miterlimit:4;stroke-dasharray:none;stroke-opacity:1"
     d="m 15.145461,21.409392 c -1.511,2.7453 -2.136,3.172 -2.86,3.74 -4.5580005,3.5573 -2.7240005,5.728 0.01,6.6347 3.219,1.084 4.354,1.532 6.855,-4.244 0.692,-1.6147 4.165,-7.428 4.165,-7.428 1.522,-1.9107 1.991,-4.5933 1.33,-5.8907 -0.699,-1.364 -0.522,-0.7706 -1.396,-1.9213 -0.834,-1.0987 -2.86,-1.9267 -3.954,-1.3493 -1.057,0.5466 -1.15,2.204 -1.598,4.5893 -0.36,1.88 -2.552,5.8693 -2.552,5.8693 z"
     id="path388" />
  <path
     style="fill:#ffffff;fill-opacity:1;fill-rule:nonzero;stroke:none"
     d="m 26.873461,6.2534913 c 0.062,-0.24 1.209,-0.256 1.24,-0.776 0.032,-0.5267 -0.714,-0.7707 -1.459,-2.6147 l -0.005,-0.0213 c -0.499,-1.3694 -1.479,-2.35339993 -2.719,-2.53069993 -2.057,-0.292 -4.047,1.73869993 -4.443,4.53069993 -0.4,2.8026 0.948,5.3026007 3.006,5.5933007 1.964,0.2866 3.876,-1.5720007 4.38,-4.1813007"
     id="path389" />
  <path
     style="fill:none;stroke:#231f20;stroke-width:0.565977;stroke-linecap:butt;stroke-linejoin:miter;stroke-miterlimit:4;stroke-dasharray:none;stroke-opacity:1"
     d="m 26.873461,6.2534913 c 0.062,-0.24 1.209,-0.256 1.24,-0.776 0.032,-0.5267 -0.714,-0.7707 -1.459,-2.6147 l -0.005,-0.0213 c -0.499,-1.3694 -1.479,-2.35339993 -2.719,-2.53069993 -2.057,-0.292 -4.047,1.73869993 -4.443,4.53069993 -0.4,2.8026 0.948,5.3026007 3.006,5.5933007 1.964,0.2866 3.876,-1.5720007 4.38,-4.1813007 z"
     id="path390" />
  <path
     style="fill:#231f20;fill-opacity:1;fill-rule:nonzero;stroke:none"
     d="m 7.4734605,49.450692 c 3.5200005,1.9173 3.6560005,-2.1613 3.8850005,-2.5827 2.405,-4.396 2.468,-4.7706 4.072,-8.2453 2.313,-5.016 3.125,-8.812 0.6,-11.0106 -1.715,-1.4947 -3.355,-1.6094 -4.527,-1.0054 -1.292,0.6774 -3.1250005,3.2707 -2.0160005,5.9427 l -0.276,1.6933 c -0.333,1.1147 -0.489,1.6667 -0.692,2.1973 -0.365,0.9387 -0.698,1.964 -1.297,3.824 -1.068,3.3067 -1.115,7.1507 -1.115,7.1507 -0.353,1.192 1.366,2.036 1.366,2.036"
     id="path391" />
  <path
     style="fill:none;stroke:#231f20;stroke-width:0.565977;stroke-linecap:butt;stroke-linejoin:miter;stroke-miterlimit:4;stroke-dasharray:none;stroke-opacity:1"
     d="m 7.4734605,49.450692 c 3.5200005,1.9173 3.6560005,-2.1613 3.8850005,-2.5827 2.405,-4.396 2.468,-4.7706 4.072,-8.2453 2.313,-5.016 3.125,-8.812 0.6,-11.0106 -1.715,-1.4947 -3.355,-1.6094 -4.527,-1.0054 -1.292,0.6774 -3.1250005,3.2707 -2.0160005,5.9427 l -0.276,1.6933 c -0.333,1.1147 -0.489,1.6667 -0.692,2.1973 -0.365,0.9387 -0.698,1.964 -1.297,3.824 -1.068,3.3067 -1.115,7.1507 -1.115,7.1507 -0.353,1.192 1.366,2.036 1.366,2.036 z"
     id="path392" />
  <path
     style="fill:#0098c9;fill-opacity:1;fill-rule:nonzero;stroke:none"
     d="m 17.722461,30.628092 c -0.239,-1.5307 -0.891,-2.724 -2.151,-3.4947 -1.932,-1.1827 -3.568,-1.0267 -4.62,-0.2347 -1.1610005,0.88 -2.5410005,3.7507 -1.0050005,6.1934 l 7.5990005,1.8333 c 0.114,-0.6467 0.182,-1.2507 0.229,-1.8333 0.032,-0.0734 0.068,-0.1467 0.104,-0.2094 0.428,-0.6866 0.224,-1.2853 -0.156,-2.2546"
     id="path393" />
  <path
     style="fill:none;stroke:#231f20;stroke-width:0.565977;stroke-linecap:butt;stroke-linejoin:miter;stroke-miterlimit:4;stroke-dasharray:none;stroke-opacity:1"
     d="m 17.722461,30.628092 c -0.239,-1.5307 -0.891,-2.724 -2.151,-3.4947 -1.932,-1.1827 -3.568,-1.0267 -4.62,-0.2347 -1.1610005,0.88 -2.5410005,3.7507 -1.0050005,6.1934 l 7.5990005,1.8333 c 0.114,-0.6467 0.182,-1.2507 0.229,-1.8333 0.032,-0.0734 0.068,-0.1467 0.104,-0.2094 0.428,-0.6866 0.224,-1.2853 -0.156,-2.2546 z"
     id="path394" />
  <path
     style="fill:#231f20;fill-opacity:1;fill-rule:nonzero;stroke:none"
     d="m 36.378461,27.554692 c -0.64,-0.0306 -2.041,-1.3906 -3.536,-1.9786 -1.011,-0.396 -2.932,-2.36 -3.969,-2.6827 -0.947,-0.292 -1.354,-0.5147 -1.203,-1.656 0.089,-0.6773 0.693,-1.9213 1.208,-1.88 1.183,0.0987 2.027,0.5467 2.839,1.2294 0.937,0.7813 3.276,3.1199 3.666,3.5879 0.97,1.1774 1.694,1.3334 1.98,1.62 0.542,0.536 0.468,0.8747 0.198,1.3027 -0.526,0.8013 -1.183,0.4573 -1.183,0.4573"
     id="path395" />
  <path
     style="fill:none;stroke:#231f20;stroke-width:0.565977;stroke-linecap:butt;stroke-linejoin:miter;stroke-miterlimit:4;stroke-dasharray:none;stroke-opacity:1"
     d="m 36.378461,27.554692 c -0.64,-0.0306 -2.041,-1.3906 -3.536,-1.9786 -1.011,-0.396 -2.932,-2.36 -3.969,-2.6827 -0.947,-0.292 -1.354,-0.5147 -1.203,-1.656 0.089,-0.6773 0.693,-1.9213 1.208,-1.88 1.183,0.0987 2.027,0.5467 2.839,1.2294 0.937,0.7813 3.276,3.1199 3.666,3.5879 0.97,1.1774 1.694,1.3334 1.98,1.62 0.542,0.536 0.468,0.8747 0.198,1.3027 -0.526,0.8013 -1.183,0.4573 -1.183,0.4573 z"
     id="path396" />
  <path
     style="fill:#231f20;fill-opacity:1;fill-rule:nonzero;stroke:none"
     d="m 29.039461,22.242692 c -0.869,0.964 -2.104,-0.6613 -2.489,-1.0319 -0.396,-0.38 -1.629,-1.328 -2.681,-1.9427 -1.063,-0.6187 -2.115,-1.8427 -4.126,-3.0147 -1.057,-0.6146 -1.693,-1.8853 -0.729,-3.376 0.948,-1.4786 2.136,-1.4946 3.301,-0.556 1.163,0.9374 1.86,2.312 2.97,3.3374 1.104,1.032 2.333,1.98 3.328,2.672 1.13,0.792 1.396,1.604 1.297,2.0733 -0.245,1.1667 -0.871,1.8386 -0.871,1.8386"
     id="path397" />
  <path
     style="fill:none;stroke:#231f20;stroke-width:0.565977;stroke-linecap:butt;stroke-linejoin:miter;stroke-miterlimit:4;stroke-dasharray:none;stroke-opacity:1"
     d="m 29.039461,22.242692 c -0.869,0.964 -2.104,-0.6613 -2.489,-1.0319 -0.396,-0.38 -1.629,-1.328 -2.681,-1.9427 -1.063,-0.6187 -2.115,-1.8427 -4.126,-3.0147 -1.057,-0.6146 -1.693,-1.8853 -0.729,-3.376 0.948,-1.4786 2.136,-1.4946 3.301,-0.556 1.163,0.9374 1.86,2.312 2.97,3.3374 1.104,1.032 2.333,1.98 3.328,2.672 1.13,0.792 1.396,1.604 1.297,2.0733 -0.245,1.1667 -0.871,1.8386 -0.871,1.8386 z"
     id="path398" />
  <path
     style="fill:#ffffff;fill-opacity:1;fill-rule:nonzero;stroke:none"
     d="m 38.935461,27.248092 c -0.588,-0.844 -1.744,-1.052 -2.588,-0.464 -0.844,0.584 -1.052,1.7453 -0.469,2.5893 0.589,0.8427 1.745,1.052 2.595,0.4627 0.838,-0.5827 1.046,-1.744 0.462,-2.588"
     id="path399" />
  <path
     style="fill:none;stroke:#231f20;stroke-width:1.33171;stroke-linecap:butt;stroke-linejoin:miter;stroke-miterlimit:4;stroke-dasharray:none;stroke-opacity:1"
     d="m 38.935461,27.248092 c -0.588,-0.844 -1.744,-1.052 -2.588,-0.464 -0.844,0.584 -1.052,1.7453 -0.469,2.5893 0.589,0.8427 1.745,1.052 2.595,0.4627 0.838,-0.5827 1.046,-1.744 0.462,-2.588 z"
     id="path400" />
  <path
     style="fill:#231f20;fill-opacity:1;fill-rule:nonzero;stroke:none"
     d="m 277.00346,153.43999 c -1.026,-0.334 -0.468,-1.452 0.073,-2.552 0.135,-0.282 0.235,-0.552 0.391,-0.812 0.625,-1.052 1.582,-1.479 2.896,1.213 0.052,0.099 1.525,1.713 2.014,2.099 2.36,1.828 2.782,1.104 2.36,1.828 -0.286,0.48 -0.781,0.36 -1.385,0.198 -0.828,-0.218 -3.667,-1.25 -4.115,-1.38 -0.432,-0.125 -2.234,-0.594 -2.234,-0.594"
     id="path401" />
  <path
     style="fill:none;stroke:#231f20;stroke-width:0.565977;stroke-linecap:butt;stroke-linejoin:miter;stroke-miterlimit:4;stroke-dasharray:none;stroke-opacity:1"
     d="m 277.00346,153.43999 c -1.026,-0.334 -0.468,-1.452 0.073,-2.552 0.135,-0.282 0.235,-0.552 0.391,-0.812 0.625,-1.052 1.582,-1.479 2.896,1.213 0.052,0.099 1.525,1.713 2.014,2.099 2.36,1.828 2.782,1.104 2.36,1.828 -0.286,0.48 -0.781,0.36 -1.385,0.198 -0.828,-0.218 -3.667,-1.25 -4.115,-1.38 -0.432,-0.125 -2.234,-0.594 -2.234,-0.594 z"
     id="path403" />
  <path
     style="fill:#231f20;fill-opacity:1;fill-rule:nonzero;stroke:none"
     d="m 283.58746,134.69599 c -2.052,-0.954 -2.584,-0.86 -3.043,-0.016 -0.307,0.557 -0.781,0.974 -0.984,1.308 -0.677,1.109 -1.355,3.244 -1.688,9.822 -0.077,1.49 -0.197,3.583 -0.312,4.432 -0.188,1.344 2.167,0.746 2.251,0.219 0.254,-1.697 0.561,-2.844 0.733,-3.437 0.12,-0.418 0.24,-1.167 0.907,-2.694 1.01,-2.312 1.964,-3.552 2.584,-5.572 0.285,-0.937 1.098,-1.464 0.916,-2.532 -0.188,-1.068 -1.364,-1.53 -1.364,-1.53"
     id="path405" />
  <path
     style="fill:none;stroke:#231f20;stroke-width:0.565977;stroke-linecap:butt;stroke-linejoin:miter;stroke-miterlimit:4;stroke-dasharray:none;stroke-opacity:1"
     d="m 283.58746,134.69599 c -2.052,-0.954 -2.584,-0.86 -3.043,-0.016 -0.307,0.557 -0.781,0.974 -0.984,1.308 -0.677,1.109 -1.355,3.244 -1.688,9.822 -0.077,1.49 -0.197,3.583 -0.312,4.432 -0.188,1.344 2.167,0.746 2.251,0.219 0.254,-1.697 0.561,-2.844 0.733,-3.437 0.12,-0.418 0.24,-1.167 0.907,-2.694 1.01,-2.312 1.964,-3.552 2.584,-5.572 0.285,-0.937 1.098,-1.464 0.916,-2.532 -0.188,-1.068 -1.364,-1.53 -1.364,-1.53 z"
     id="path406" />
  <path
     style="fill:#0098c9;fill-opacity:1;fill-rule:nonzero;stroke:none"
     d="m 271.37246,112.89299 c -0.708,3.052 -1.197,3.631 -1.739,4.375 -3.406,4.666 -1.052,6.25 1.828,6.386 3.391,0.151 4.599,0.276 5.432,-5.963 0.23,-1.735 1.979,-8.276 1.979,-8.276 0.944,-2.26 0.657,-4.964 -0.333,-6.032 -1.042,-1.124 -0.708,-0.604 -1.87,-1.474 -1.098,-0.822 -3.27,-1.062 -4.172,-0.218 -0.864,0.817 -0.5,2.442 -0.286,4.858 0.172,1.902 -0.839,6.344 -0.839,6.344"
     id="path407" />
  <path
     style="fill:none;stroke:#231f20;stroke-width:0.565977;stroke-linecap:butt;stroke-linejoin:miter;stroke-miterlimit:4;stroke-dasharray:none;stroke-opacity:1"
     d="m 271.37246,112.89299 c -0.708,3.052 -1.197,3.631 -1.739,4.375 -3.406,4.666 -1.052,6.25 1.828,6.386 3.391,0.151 4.599,0.276 5.432,-5.963 0.23,-1.735 1.979,-8.276 1.979,-8.276 0.944,-2.26 0.657,-4.964 -0.333,-6.032 -1.042,-1.124 -0.708,-0.604 -1.87,-1.474 -1.098,-0.822 -3.27,-1.062 -4.172,-0.218 -0.864,0.817 -0.5,2.442 -0.286,4.858 0.172,1.902 -0.839,6.344 -0.839,6.344 z"
     id="path408" />
  <path
     style="fill:#231f20;fill-opacity:1;fill-rule:nonzero;stroke:none"
     d="m 256.16446,113.15499 c 0.287,-0.574 2.084,-1.324 3.224,-2.464 0.761,-0.771 3.323,-1.756 4.032,-2.579 0.645,-0.755 1.009,-1.041 2.005,-0.448 0.583,0.349 1.484,1.401 1.239,1.855 -0.557,1.046 -1.296,1.64 -2.255,2.12 -1.084,0.546 -4.161,1.77 -4.75,1.942 -1.463,0.427 -1.891,1.026 -2.266,1.178 -0.702,0.276 -0.989,0.077 -1.27,-0.344 -0.531,-0.792 0.041,-1.26 0.041,-1.26"
     id="path409" />
  <path
     style="fill:none;stroke:#231f20;stroke-width:0.565977;stroke-linecap:butt;stroke-linejoin:miter;stroke-miterlimit:4;stroke-dasharray:none;stroke-opacity:1"
     d="m 256.16446,113.15499 c 0.287,-0.574 2.084,-1.324 3.224,-2.464 0.761,-0.771 3.323,-1.756 4.032,-2.579 0.645,-0.755 1.009,-1.041 2.005,-0.448 0.583,0.349 1.484,1.401 1.239,1.855 -0.557,1.046 -1.296,1.64 -2.255,2.12 -1.084,0.546 -4.161,1.77 -4.75,1.942 -1.463,0.427 -1.891,1.026 -2.266,1.178 -0.702,0.276 -0.989,0.077 -1.27,-0.344 -0.531,-0.792 0.041,-1.26 0.041,-1.26 z"
     id="path410" />
  <path
     style="fill:#231f20;fill-opacity:1;fill-rule:nonzero;stroke:none"
     d="m 263.95146,108.52399 c -0.536,-1.183 1.437,-1.672 1.937,-1.88 0.505,-0.209 1.865,-0.969 2.844,-1.693 0.989,-0.73 2.527,-1.214 4.407,-2.594 0.978,-0.724 2.4,-0.808 3.385,0.672 0.984,1.454 0.531,2.552 -0.792,3.25 -1.328,0.698 -2.864,0.792 -4.249,1.401 -1.382,0.609 -2.735,1.36 -3.767,1.995 -1.181,0.729 -2.031,0.65 -2.416,0.374 -0.98,-0.686 -1.349,-1.525 -1.349,-1.525"
     id="path411" />
  <path
     style="fill:none;stroke:#231f20;stroke-width:0.565977;stroke-linecap:butt;stroke-linejoin:miter;stroke-miterlimit:4;stroke-dasharray:none;stroke-opacity:1"
     d="m 263.95146,108.52399 c -0.536,-1.183 1.437,-1.672 1.937,-1.88 0.505,-0.209 1.865,-0.969 2.844,-1.693 0.989,-0.73 2.527,-1.214 4.407,-2.594 0.978,-0.724 2.4,-0.808 3.385,0.672 0.984,1.454 0.531,2.552 -0.792,3.25 -1.328,0.698 -2.864,0.792 -4.249,1.401 -1.382,0.609 -2.735,1.36 -3.767,1.995 -1.181,0.729 -2.031,0.65 -2.416,0.374 -0.98,-0.686 -1.349,-1.525 -1.349,-1.525 z"
     id="path412" />
  <path
     style="fill:#231f20;fill-opacity:1;fill-rule:nonzero;stroke:none"
     d="m 250.14446,116.62799 c 0.463,-0.552 3.271,-2.197 3.927,-2.552 0.588,-0.308 1.385,-1.145 2.317,-0.453 0.371,0.27 0.724,0.942 0.797,1.254 0.058,0.251 -0.172,0.491 -0.541,0.642 -0.615,0.26 -0.891,0.093 -2.095,0.521 0,0 -0.296,0.057 -0.844,0.124 -1.613,0.209 -0.926,-0.031 -3.197,0.797 -0.167,0.058 -0.339,-0.062 -0.375,-0.177 -0.041,-0.172 0.011,-0.156 0.011,-0.156"
     id="path413" />
  <path
     style="fill:none;stroke:#231f20;stroke-width:0.565977;stroke-linecap:round;stroke-linejoin:round;stroke-miterlimit:4;stroke-dasharray:none;stroke-opacity:1"
     d="m 250.14446,116.62799 c 0.463,-0.552 3.271,-2.197 3.927,-2.552 0.588,-0.308 1.385,-1.145 2.317,-0.453 0.371,0.27 0.724,0.942 0.797,1.254 0.058,0.251 -0.172,0.491 -0.541,0.642 -0.615,0.26 -0.891,0.093 -2.095,0.521 0,0 -0.296,0.057 -0.844,0.124 -1.613,0.209 -0.926,-0.031 -3.197,0.797 -0.167,0.058 -0.339,-0.062 -0.375,-0.177 -0.041,-0.172 0.011,-0.156 0.011,-0.156 z"
     id="path414" />
  <path
     style="fill:#231f20;fill-opacity:1;fill-rule:nonzero;stroke:none"
     d="m 218.63946,26.721392 c 0.713,-0.1347 3.916,0.4067 4.645,0.5573 0.651,0.136 1.803,0.0107 2.073,1.1307 0.11,0.4533 -0.046,1.1973 -0.198,1.4787 -0.115,0.2293 -0.443,0.2666 -0.823,0.1466 -0.64,-0.1933 -0.74,-0.5 -1.937,-0.948 0,0 -0.266,-0.1466 -0.73,-0.4426 -1.374,-0.876 -0.692,-0.62 -2.968,-1.4427 -0.162,-0.0573 -0.218,-0.2613 -0.172,-0.3707 0.078,-0.1613 0.11,-0.1093 0.11,-0.1093"
     id="path415" />
  <path
     style="fill:none;stroke:#231f20;stroke-width:0.565977;stroke-linecap:round;stroke-linejoin:round;stroke-miterlimit:4;stroke-dasharray:none;stroke-opacity:1"
     d="m 218.63946,26.721392 c 0.713,-0.1347 3.916,0.4067 4.645,0.5573 0.651,0.136 1.803,0.0107 2.073,1.1307 0.11,0.4533 -0.046,1.1973 -0.198,1.4787 -0.115,0.2293 -0.443,0.2666 -0.823,0.1466 -0.64,-0.1933 -0.74,-0.5 -1.937,-0.948 0,0 -0.266,-0.1466 -0.73,-0.4426 -1.374,-0.876 -0.692,-0.62 -2.968,-1.4427 -0.162,-0.0573 -0.218,-0.2613 -0.172,-0.3707 0.078,-0.1613 0.11,-0.1093 0.11,-0.1093 z"
     id="path416" />
  <path
     style="fill:#ffffff;fill-opacity:1;fill-rule:nonzero;stroke:none"
     d="m 280.25346,96.570992 c 0.094,-0.224 1.234,-0.074 1.343,-0.583 0.105,-0.516 -0.599,-0.871 -1.061,-2.803 l -0.006,-0.021 c -0.292,-1.427 -1.12,-2.541 -2.324,-2.896 -1.989,-0.593 -4.254,1.125 -5.052,3.833 -0.801,2.71 0.162,5.387 2.152,5.969998 1.906,0.568 4.067,-0.983998 4.948,-3.499998"
     id="path417" />
  <path
     style="fill:none;stroke:#231f20;stroke-width:0.565977;stroke-linecap:butt;stroke-linejoin:miter;stroke-miterlimit:4;stroke-dasharray:none;stroke-opacity:1"
     d="m 280.25346,96.570992 c 0.094,-0.224 1.234,-0.074 1.343,-0.583 0.105,-0.516 -0.599,-0.871 -1.061,-2.803 l -0.006,-0.021 c -0.292,-1.427 -1.12,-2.541 -2.324,-2.896 -1.989,-0.593 -4.254,1.125 -5.052,3.833 -0.801,2.71 0.162,5.387 2.152,5.969998 1.906,0.568 4.067,-0.983998 4.948,-3.499998 z"
     id="path418" />
  <path
     style="fill:#231f20;fill-opacity:1;fill-rule:nonzero;stroke:none"
     d="m 282.52946,137.89799 c 3.755,-1.41 0.76,-4.186 0.594,-4.634 -1.735,-4.699 -1.984,-4.991 -3.558,-8.475 -2.276,-5.036 -4.609,-8.134 -7.926,-7.666 -2.251,0.317 -3.407,1.474 -3.719,2.754 -0.344,1.418 0.421,4.505 3.161,5.417 l 1.099,1.312 c 0.62,0.986 0.937,1.47 1.208,1.975 0.469,0.885 1.027,1.807 2.037,3.479 1.796,2.974 4.667,5.532 4.667,5.532 0.671,1.046 2.437,0.306 2.437,0.306"
     id="path419" />
  <path
     style="fill:none;stroke:#231f20;stroke-width:0.565977;stroke-linecap:butt;stroke-linejoin:miter;stroke-miterlimit:4;stroke-dasharray:none;stroke-opacity:1"
     d="m 282.52946,137.89799 c 3.755,-1.41 0.76,-4.186 0.594,-4.634 -1.735,-4.699 -1.984,-4.991 -3.558,-8.475 -2.276,-5.036 -4.609,-8.134 -7.926,-7.666 -2.251,0.317 -3.407,1.474 -3.719,2.754 -0.344,1.418 0.421,4.505 3.161,5.417 l 1.099,1.312 c 0.62,0.986 0.937,1.47 1.208,1.975 0.469,0.885 1.027,1.807 2.037,3.479 1.796,2.974 4.667,5.532 4.667,5.532 0.671,1.046 2.437,0.306 2.437,0.306 z"
     id="path420" />
  <path
     style="fill:#0098c9;fill-opacity:1;fill-rule:nonzero;stroke:none"
     d="m 277.12346,120.32099 c -0.022,-0.078 -0.042,-0.157 -0.052,-0.224 -0.104,-0.802 -0.642,-1.13 -1.547,-1.636 -1.156,-1.036 -2.423,-1.546 -3.885,-1.338 -2.251,0.317 -3.412,1.474 -3.719,2.754 -0.344,1.418 0.421,4.505 3.161,5.417 l 7.031,-3.412 c -0.323,-0.571 -0.656,-1.082 -0.989,-1.561"
     id="path421" />
  <path
     style="fill:none;stroke:#231f20;stroke-width:0.565977;stroke-linecap:butt;stroke-linejoin:miter;stroke-miterlimit:4;stroke-dasharray:none;stroke-opacity:1"
     d="m 277.12346,120.32099 c -0.022,-0.078 -0.042,-0.157 -0.052,-0.224 -0.104,-0.802 -0.642,-1.13 -1.547,-1.636 -1.156,-1.036 -2.423,-1.546 -3.885,-1.338 -2.251,0.317 -3.412,1.474 -3.719,2.754 -0.344,1.418 0.421,4.505 3.161,5.417 l 7.031,-3.412 c -0.323,-0.571 -0.656,-1.082 -0.989,-1.561 z"
     id="path422" />
  <path
     style="fill:#231f20;fill-opacity:1;fill-rule:nonzero;stroke:none"
     d="m 298.66946,39.403992 c -0.858,1.0414 -1.801,0.7294 -2.338,-0.156 -0.167,-0.26 -0.572,-0.3226 -0.708,-0.5933 -0.312,-0.6307 0.292,-2.2667 1.786,-2.1053 0.099,0.0106 0.902,-0.1454 1.526,-0.176 1.214,-0.048 3.661,0.4373 5.141,2.692 0.697,1.068 -0.063,1.2813 -0.48,0.9373 -1.307,-1.0933 -1.635,-0.9373 -2.088,-1.0987 -1.527,-0.5573 -2.839,0.5 -2.839,0.5"
     id="path423" />
  <path
     style="fill:none;stroke:#231f20;stroke-width:0.332927;stroke-linecap:butt;stroke-linejoin:miter;stroke-miterlimit:4;stroke-dasharray:none;stroke-opacity:1"
     d="m 298.66946,39.403992 c -0.858,1.0414 -1.801,0.7294 -2.338,-0.156 -0.167,-0.26 -0.572,-0.3226 -0.708,-0.5933 -0.312,-0.6307 0.292,-2.2667 1.786,-2.1053 0.099,0.0106 0.902,-0.1454 1.526,-0.176 1.214,-0.048 3.661,0.4373 5.141,2.692 0.697,1.068 -0.063,1.2813 -0.48,0.9373 -1.307,-1.0933 -1.635,-0.9373 -2.088,-1.0987 -1.527,-0.5573 -2.839,0.5 -2.839,0.5 z"
     id="path424" />
  <path
     style="fill:#231f20;fill-opacity:1;fill-rule:nonzero;stroke:none"
     d="m 280.05546,37.101392 c -0.37,2.24 -0.146,2.724 0.792,2.944 0.62,0.1453 1.145,0.4986 1.516,0.604 1.249,0.3586 3.494,0.452 9.921,-0.9587 1.459,-0.3227 3.505,-0.756 4.364,-0.86 1.344,-0.176 0.141,-2.296 -0.385,-2.2293 -1.708,0.1986 -2.891,0.204 -3.52,0.188 -0.423,0 -1.178,0.084 -2.823,-0.156 -2.505,-0.3747 -3.948,-0.9694 -6.057,-1.0267 -0.986,-0.036 -1.704,-0.6813 -2.678,-0.2187 -0.989,0.4587 -1.13,1.7134 -1.13,1.7134"
     id="path425" />
  <path
     style="fill:none;stroke:#231f20;stroke-width:0.565977;stroke-linecap:butt;stroke-linejoin:miter;stroke-miterlimit:4;stroke-dasharray:none;stroke-opacity:1"
     d="m 280.05546,37.101392 c -0.37,2.24 -0.146,2.724 0.792,2.944 0.62,0.1453 1.145,0.4986 1.516,0.604 1.249,0.3586 3.494,0.452 9.921,-0.9587 1.459,-0.3227 3.505,-0.756 4.364,-0.86 1.344,-0.176 0.141,-2.296 -0.385,-2.2293 -1.708,0.1986 -2.891,0.204 -3.52,0.188 -0.423,0 -1.178,0.084 -2.823,-0.156 -2.505,-0.3747 -3.948,-0.9694 -6.057,-1.0267 -0.986,-0.036 -1.704,-0.6813 -2.678,-0.2187 -0.989,0.4587 -1.13,1.7134 -1.13,1.7134 z"
     id="path426" />
  <path
     style="fill:#0098c9;fill-opacity:1;fill-rule:nonzero;stroke:none"
     d="m 253.62346,37.841392 c 3.068,0.636 3.656,1.0986 4.416,1.6253 4.75,3.2973 6.276,0.9013 6.333,-1.9787 0.079,-3.3906 0.172,-4.6053 -6.088,-5.2866 -1.74,-0.1827 -8.323,-1.776 -8.323,-1.776 -2.276,-0.8907 -4.974,-0.5427 -6.021,0.4733 -1.099,1.0734 -0.583,0.724 -1.421,1.9014 -0.803,1.1253 -0.99,3.3013 -0.12,4.1773 0.833,0.844 2.453,0.448 4.86,0.172 1.9,-0.2187 6.364,0.692 6.364,0.692"
     id="path427" />
  <path
     style="fill:none;stroke:#231f20;stroke-width:0.565977;stroke-linecap:butt;stroke-linejoin:miter;stroke-miterlimit:4;stroke-dasharray:none;stroke-opacity:1"
     d="m 253.62346,37.841392 c 3.068,0.636 3.656,1.0986 4.416,1.6253 4.75,3.2973 6.276,0.9013 6.333,-1.9787 0.079,-3.3906 0.172,-4.6053 -6.088,-5.2866 -1.74,-0.1827 -8.323,-1.776 -8.323,-1.776 -2.276,-0.8907 -4.974,-0.5427 -6.021,0.4733 -1.099,1.0734 -0.583,0.724 -1.421,1.9014 -0.803,1.1253 -0.99,3.3013 -0.12,4.1773 0.833,0.844 2.453,0.448 4.86,0.172 1.9,-0.2187 6.364,0.692 6.364,0.692 z"
     id="path428" />
  <path
     style="fill:#ffffff;fill-opacity:1;fill-rule:nonzero;stroke:none"
     d="m 236.58146,30.633392 c -0.234,-0.0573 -0.266,-1.208 -0.792,-1.2347 -0.526,-0.02 -0.754,0.7347 -2.593,1.5054 l -0.016,0.0053 c -1.36,0.5213 -2.328,1.516 -2.484,2.76 -0.261,2.0626 1.801,4.016 4.604,4.3706 2.801,0.3534 5.281,-1.0373 5.541,-3.0946 0.251,-1.968 -1.63,-3.848 -4.26,-4.312"
     id="path429" />
  <path
     style="fill:none;stroke:#231f20;stroke-width:0.565977;stroke-linecap:butt;stroke-linejoin:miter;stroke-miterlimit:4;stroke-dasharray:none;stroke-opacity:1"
     d="m 236.58146,30.633392 c -0.234,-0.0573 -0.266,-1.208 -0.792,-1.2347 -0.526,-0.02 -0.754,0.7347 -2.593,1.5054 l -0.016,0.0053 c -1.36,0.5213 -2.328,1.516 -2.484,2.76 -0.261,2.0626 1.801,4.016 4.604,4.3706 2.801,0.3534 5.281,-1.0373 5.541,-3.0946 0.251,-1.968 -1.63,-3.848 -4.26,-4.312 z"
     id="path430" />
  <path
     style="fill:#231f20;fill-opacity:1;fill-rule:nonzero;stroke:none"
     d="m 282.33646,38.059992 c 1,-3.8799 -2.989,-3.0253 -3.453,-3.1399 -4.844,-1.2707 -5.224,-1.24 -8.979,-1.9534 -5.437,-1.0266 -9.312,-0.8906 -10.828,2.0934 -1.032,2.0266 -0.751,3.6413 0.12,4.6306 0.968,1.0933 3.932,2.2347 6.255,0.516 l 1.708,-0.1413 c 1.156,0.0466 1.729,0.068 2.302,0.1413 0.995,0.1187 2.068,0.192 4.022,0.3227 3.462,0.2346 7.202,-0.652 7.202,-0.652 1.244,0.0573 1.651,-1.8174 1.651,-1.8174"
     id="path431" />
  <path
     style="fill:none;stroke:#231f20;stroke-width:0.565977;stroke-linecap:butt;stroke-linejoin:miter;stroke-miterlimit:4;stroke-dasharray:none;stroke-opacity:1"
     d="m 282.33646,38.059992 c 1,-3.8799 -2.989,-3.0253 -3.453,-3.1399 -4.844,-1.2707 -5.224,-1.24 -8.979,-1.9534 -5.437,-1.0266 -9.312,-0.8906 -10.828,2.0934 -1.032,2.0266 -0.751,3.6413 0.12,4.6306 0.968,1.0933 3.932,2.2347 6.255,0.516 l 1.708,-0.1413 c 1.156,0.0466 1.729,0.068 2.302,0.1413 0.995,0.1187 2.068,0.192 4.022,0.3227 3.462,0.2346 7.202,-0.652 7.202,-0.652 1.244,0.0573 1.651,-1.8174 1.651,-1.8174 z"
     id="path432" />
  <path
     style="fill:#0098c9;fill-opacity:1;fill-rule:nonzero;stroke:#231f20;stroke-width:0.565977;stroke-linecap:butt;stroke-linejoin:miter;stroke-miterlimit:4;stroke-dasharray:none;stroke-opacity:1"
     d="m 265.80046,31.810692 c -0.651,0.0467 -1.256,0.124 -1.833,0.224 -0.084,-0.016 -0.162,-0.0266 -0.23,-0.052 -0.77,-0.2453 -1.302,0.0987 -2.156,0.7027 -1.428,0.5987 -2.422,1.5253 -2.86,2.9266 -0.677,2.172 -0.129,3.7134 0.891,4.5427 1.136,0.916 4.256,1.5573 6.251,-0.5267 z"
     id="path433" />
  <path
     style="fill:#231f20;fill-opacity:1;fill-rule:nonzero;stroke:none"
     d="m 225.46146,28.554692 c 0.61,-0.2026 2.407,0.552 4.016,0.5574 1.088,0.0106 3.583,1.1413 4.667,1.068 0.995,-0.068 1.452,-0.0107 1.724,1.1093 0.161,0.6613 0.047,2.0467 -0.443,2.188 -1.141,0.3387 -2.084,0.2293 -3.094,-0.1147 -1.151,-0.3906 -4.182,-1.724 -4.719,-2.0213 -1.328,-0.744 -2.057,-0.6253 -2.427,-0.792 -0.698,-0.3067 -0.75,-0.6453 -0.65,-1.14 0.186,-0.9373 0.926,-0.8547 0.926,-0.8547"
     id="path434" />
  <path
     style="fill:none;stroke:#231f20;stroke-width:0.565977;stroke-linecap:butt;stroke-linejoin:miter;stroke-miterlimit:4;stroke-dasharray:none;stroke-opacity:1"
     d="m 225.46146,28.554692 c 0.61,-0.2026 2.407,0.552 4.016,0.5574 1.088,0.0106 3.583,1.1413 4.667,1.068 0.995,-0.068 1.452,-0.0107 1.724,1.1093 0.161,0.6613 0.047,2.0467 -0.443,2.188 -1.141,0.3387 -2.084,0.2293 -3.094,-0.1147 -1.151,-0.3906 -4.182,-1.724 -4.719,-2.0213 -1.328,-0.744 -2.057,-0.6253 -2.427,-0.792 -0.698,-0.3067 -0.75,-0.6453 -0.65,-1.14 0.186,-0.9373 0.926,-0.8547 0.926,-0.8547 z"
     id="path435" />
  <path
     style="fill:#231f20;fill-opacity:1;fill-rule:nonzero;stroke:none"
     d="m 234.22746,30.846692 c 0.464,-1.208 2.202,-0.14 2.698,0.0627 0.504,0.2133 1.995,0.6453 3.203,0.8387 1.208,0.192 2.635,0.948 4.937,1.312 1.203,0.1986 2.255,1.1466 1.902,2.8853 -0.35,1.724 -1.448,2.1666 -2.875,1.7186 -1.428,-0.4533 -2.573,-1.484 -3.985,-2.0413 -1.402,-0.5626 -2.886,-0.9946 -4.063,-1.2866 -1.343,-0.328 -1.891,-0.9894 -1.963,-1.4587 -0.193,-1.1813 0.146,-2.0307 0.146,-2.0307"
     id="path436" />
  <path
     style="fill:none;stroke:#231f20;stroke-width:0.565977;stroke-linecap:butt;stroke-linejoin:miter;stroke-miterlimit:4;stroke-dasharray:none;stroke-opacity:1"
     d="m 234.22746,30.846692 c 0.464,-1.208 2.202,-0.14 2.698,0.0627 0.504,0.2133 1.995,0.6453 3.203,0.8387 1.208,0.192 2.635,0.948 4.937,1.312 1.203,0.1986 2.255,1.1466 1.902,2.8853 -0.35,1.724 -1.448,2.1666 -2.875,1.7186 -1.428,-0.4533 -2.573,-1.484 -3.985,-2.0413 -1.402,-0.5626 -2.886,-0.9946 -4.063,-1.2866 -1.343,-0.328 -1.891,-0.9894 -1.963,-1.4587 -0.193,-1.1813 0.146,-2.0307 0.146,-2.0307 z"
     id="path437" />
  <path
     style="fill:#231f20;fill-opacity:1;fill-rule:nonzero;stroke:none"
     d="m 123.94646,24.721392 c -0.334,1.308 -1.323,1.4173 -2.183,0.8387 -0.26,-0.1667 -0.656,-0.052 -0.891,-0.2347 -0.552,-0.4427 -0.686,-2.176 0.73,-2.6613 0.104,-0.036 0.766,-0.52 1.318,-0.8014 1.078,-0.5573 3.5,-1.1466 5.791,0.2814 1.089,0.6666 0.485,1.1866 -0.031,1.0466 -1.656,-0.4426 -1.885,-0.1613 -2.365,-0.1146 -1.619,0.1346 -2.369,1.6453 -2.369,1.6453"
     id="path438" />
  <path
     style="fill:none;stroke:#231f20;stroke-width:0.332927;stroke-linecap:butt;stroke-linejoin:miter;stroke-miterlimit:4;stroke-dasharray:none;stroke-opacity:1"
     d="m 123.94646,24.721392 c -0.334,1.308 -1.323,1.4173 -2.183,0.8387 -0.26,-0.1667 -0.656,-0.052 -0.891,-0.2347 -0.552,-0.4427 -0.686,-2.176 0.73,-2.6613 0.104,-0.036 0.766,-0.52 1.318,-0.8014 1.078,-0.5573 3.5,-1.1466 5.791,0.2814 1.089,0.6666 0.485,1.1866 -0.031,1.0466 -1.656,-0.4426 -1.885,-0.1613 -2.365,-0.1146 -1.619,0.1346 -2.369,1.6453 -2.369,1.6453 z"
     id="path439" />
  <path
     style="fill:#231f20;fill-opacity:1;fill-rule:nonzero;stroke:none"
     d="m 106.09646,30.466692 c 0.606,2.1827 1.011,2.5254 1.954,2.3334 0.63,-0.1254 1.25,-0.032 1.63,-0.088 1.287,-0.1987 3.364,-1.0627 8.599,-5.0427 1.193,-0.9053 2.865,-2.1613 3.599,-2.62 1.141,-0.724 -0.839,-2.1347 -1.291,-1.8587 -1.459,0.9014 -2.532,1.4014 -3.104,1.6507 -0.391,0.1773 -1.037,0.5733 -2.641,1.0467 -2.422,0.7186 -3.979,0.7866 -5.922,1.6146 -0.906,0.3854 -1.828,0.0987 -2.521,0.9374 -0.703,0.828 -0.303,2.0266 -0.303,2.0266"
     id="path440" />
  <path
     style="fill:none;stroke:#231f20;stroke-width:0.565977;stroke-linecap:butt;stroke-linejoin:miter;stroke-miterlimit:4;stroke-dasharray:none;stroke-opacity:1"
     d="m 106.09646,30.466692 c 0.606,2.1827 1.011,2.5254 1.954,2.3334 0.63,-0.1254 1.25,-0.032 1.63,-0.088 1.287,-0.1987 3.364,-1.0627 8.599,-5.0427 1.193,-0.9053 2.865,-2.1613 3.599,-2.62 1.141,-0.724 -0.839,-2.1347 -1.291,-1.8587 -1.459,0.9014 -2.532,1.4014 -3.104,1.6507 -0.391,0.1773 -1.037,0.5733 -2.641,1.0467 -2.422,0.7186 -3.979,0.7866 -5.922,1.6146 -0.906,0.3854 -1.828,0.0987 -2.521,0.9374 -0.703,0.828 -0.303,2.0266 -0.303,2.0266 z"
     id="path441" />
  <path
     style="fill:#0098c9;fill-opacity:1;fill-rule:nonzero;stroke:none"
     d="m 80.962459,36.419992 c 2.786,1.4267 3.229,2.0414 3.817,2.7494 3.699,4.4426 5.808,2.5466 6.636,-0.2187 0.979,-3.244 1.396,-4.3906 -4.453,-6.7186 -1.631,-0.64 -7.547,-3.9374 -7.547,-3.9374 -1.959,-1.4693 -4.652,-1.8546 -5.932,-1.1506 -1.343998,0.7386 -0.755998,0.5413 -1.875998,1.4533 -1.072,0.864 -1.839,2.9107 -1.229,3.9947 0.573,1.0306 2.24,1.0773 4.635998,1.4573 1.885,0.3027 5.948,2.3706 5.948,2.3706"
     id="path442" />
  <path
     style="fill:none;stroke:#231f20;stroke-width:0.565977;stroke-linecap:butt;stroke-linejoin:miter;stroke-miterlimit:4;stroke-dasharray:none;stroke-opacity:1"
     d="m 80.962459,36.419992 c 2.786,1.4267 3.229,2.0414 3.817,2.7494 3.699,4.4426 5.808,2.5466 6.636,-0.2187 0.979,-3.244 1.396,-4.3906 -4.453,-6.7186 -1.631,-0.64 -7.547,-3.9374 -7.547,-3.9374 -1.959,-1.4693 -4.652,-1.8546 -5.932,-1.1506 -1.343998,0.7386 -0.755998,0.5413 -1.875998,1.4533 -1.072,0.864 -1.839,2.9107 -1.229,3.9947 0.573,1.0306 2.24,1.0773 4.635998,1.4573 1.885,0.3027 5.948,2.3706 5.948,2.3706 z"
     id="path443" />
  <path
     style="fill:#ffffff;fill-opacity:1;fill-rule:nonzero;stroke:none"
     d="m 68.008461,23.612092 c -0.188,-0.1614 0.323,-1.192 -0.13,-1.4574 -0.452,-0.2666 -1.01,0.2907 -2.995,0.1187 h -0.015 c -1.448,-0.172 -2.766,0.2507 -3.485,1.2813 -1.192,1.704 -0.281,4.396 2.037,6.0107 2.318,1.62 5.156,1.5467 6.343,-0.156 1.141,-1.6253 0.349,-4.1667 -1.755,-5.7973"
     id="path444" />
  <path
     style="fill:none;stroke:#231f20;stroke-width:0.565977;stroke-linecap:butt;stroke-linejoin:miter;stroke-miterlimit:4;stroke-dasharray:none;stroke-opacity:1"
     d="m 68.008461,23.612092 c -0.188,-0.1614 0.323,-1.192 -0.13,-1.4574 -0.452,-0.2666 -1.01,0.2907 -2.995,0.1187 h -0.015 c -1.448,-0.172 -2.766,0.2507 -3.485,1.2813 -1.192,1.704 -0.281,4.396 2.037,6.0107 2.318,1.62 5.156,1.5467 6.343,-0.156 1.141,-1.6253 0.349,-4.1667 -1.755,-5.7973 z"
     id="path445" />
  <path
     style="fill:#231f20;fill-opacity:1;fill-rule:nonzero;stroke:none"
     d="m 108.57146,30.373392 c -0.729,-3.9427 -3.984,-1.4853 -4.453,-1.396 -4.938001,0.88 -5.266001,1.072 -8.968001,2.0107 -5.36,1.3533 -8.824,3.104 -8.948,6.4519 -0.084,2.272 0.853,3.6147 2.061,4.152 1.333,0.5774 4.505,0.3694 5.891,-2.1666 l 1.485,-0.8494 c 1.077,-0.4373 1.604,-0.6666 2.151,-0.844 0.958,-0.3013 1.958,-0.692 3.786001,-1.3906 3.244,-1.244 6.26,-3.6253 6.26,-3.6253 1.156,-0.4734 0.735,-2.3427 0.735,-2.3427"
     id="path446" />
  <path
     style="fill:none;stroke:#231f20;stroke-width:0.565977;stroke-linecap:butt;stroke-linejoin:miter;stroke-miterlimit:4;stroke-dasharray:none;stroke-opacity:1"
     d="m 108.57146,30.373392 c -0.729,-3.9427 -3.984,-1.4853 -4.453,-1.396 -4.938001,0.88 -5.266001,1.072 -8.968001,2.0107 -5.36,1.3533 -8.824,3.104 -8.948,6.4519 -0.084,2.272 0.853,3.6147 2.061,4.152 1.333,0.5774 4.505,0.3694 5.891,-2.1666 l 1.485,-0.8494 c 1.077,-0.4373 1.604,-0.6666 2.151,-0.844 0.958,-0.3013 1.958,-0.692 3.786001,-1.3906 3.244,-1.244 6.26,-3.6253 6.26,-3.6253 1.156,-0.4734 0.735,-2.3427 0.735,-2.3427 z"
     id="path447" />
  <path
     style="fill:#0098c9;fill-opacity:1;fill-rule:nonzero;stroke:#231f20;stroke-width:0.565977;stroke-linecap:butt;stroke-linejoin:miter;stroke-miterlimit:4;stroke-dasharray:none;stroke-opacity:1"
     d="m 90.940459,31.664092 c -0.577,0.3186 -1.088,0.6413 -1.577,0.9746 -0.073,0.02 -0.152,0.0414 -0.224,0.052 -0.797,0.0934 -1.136,0.6307 -1.652,1.5307 -1.047,1.152 -1.567,2.412 -1.369,3.8706 0.297,2.2494 1.437,3.4214 2.718,3.744 1.412,0.3547 4.516,-0.38 5.448,-3.1093 z"
     id="path448" />
  <path
     style="fill:#231f20;fill-opacity:1;fill-rule:nonzero;stroke:none"
     d="m 94.175459,28.778692 c -0.464,0.4534 -2.407,0.5574 -3.855,1.256 -0.978,0.4734 -3.724,0.5467 -4.661,1.0934 -0.859,0.4946 -1.301,0.64 -2.036,-0.2507 -0.437,-0.52 -0.937,-1.8173 -0.563,-2.156 0.88,-0.8067 1.776,-1.12 2.834,-1.2547 1.208,-0.1506 4.516,-0.2813 5.125,-0.2506 1.52,0.0893 2.125,-0.3387 2.531,-0.3534 0.761,-0.032 0.958,0.2547 1.089,0.7387 0.233,0.9333 -0.464,1.1773 -0.464,1.1773"
     id="path449" />
  <path
     style="fill:none;stroke:#231f20;stroke-width:0.565977;stroke-linecap:butt;stroke-linejoin:miter;stroke-miterlimit:4;stroke-dasharray:none;stroke-opacity:1"
     d="m 94.175459,28.778692 c -0.464,0.4534 -2.407,0.5574 -3.855,1.256 -0.978,0.4734 -3.724,0.5467 -4.661,1.0934 -0.859,0.4946 -1.301,0.64 -2.036,-0.2507 -0.437,-0.52 -0.937,-1.8173 -0.563,-2.156 0.88,-0.8067 1.776,-1.12 2.834,-1.2547 1.208,-0.1506 4.516,-0.2813 5.125,-0.2506 1.52,0.0893 2.125,-0.3387 2.531,-0.3534 0.761,-0.032 0.958,0.2547 1.089,0.7387 0.233,0.9333 -0.464,1.1773 -0.464,1.1773 z"
     id="path450" />
  <path
     style="fill:#231f20;fill-opacity:1;fill-rule:nonzero;stroke:none"
     d="m 85.290459,30.560092 c 0.12,1.292 -1.912,1.0946 -2.448,1.1253 -0.547,0.0307 -2.083,0.292 -3.25,0.6507 -1.172,0.36 -2.781,0.3026 -5.01,0.98 -1.172,0.3586 -2.537998,-0.0374 -2.974998,-1.7614 -0.437,-1.6973 0.355,-2.5826 1.832998,-2.796 1.48,-0.2186 2.964,0.2027 4.47,0.088 1.51,-0.1146 3.03,-0.3693 4.218,-0.6306 1.355,-0.2907 2.131,0.068 2.407,0.4533 0.692,0.9747 0.755,1.8907 0.755,1.8907"
     id="path451" />
  <path
     style="fill:none;stroke:#231f20;stroke-width:0.565977;stroke-linecap:butt;stroke-linejoin:miter;stroke-miterlimit:4;stroke-dasharray:none;stroke-opacity:1"
     d="m 85.290459,30.560092 c 0.12,1.292 -1.912,1.0946 -2.448,1.1253 -0.547,0.0307 -2.083,0.292 -3.25,0.6507 -1.172,0.36 -2.781,0.3026 -5.01,0.98 -1.172,0.3586 -2.537998,-0.0374 -2.974998,-1.7614 -0.437,-1.6973 0.355,-2.5826 1.832998,-2.796 1.48,-0.2186 2.964,0.2027 4.47,0.088 1.51,-0.1146 3.03,-0.3693 4.218,-0.6306 1.355,-0.2907 2.131,0.068 2.407,0.4533 0.692,0.9747 0.755,1.8907 0.755,1.8907 z"
     id="path452" />
  <path
     style="fill:#231f20;fill-opacity:1;fill-rule:nonzero;stroke:none"
     d="m 200.08746,13.898792 c 0.353,1.3026 -0.454,1.88 -1.486,1.808 -0.312,-0.0214 -0.598,0.276 -0.89,0.228 -0.698,-0.1094 -1.676,-1.552 -0.682,-2.6707 0.072,-0.084 0.411,-0.8293 0.75,-1.344 0.666,-1.0213 2.484,-2.7293007 5.182,-2.6200007 1.271,0.052 1.006,0.7973007 0.49,0.9320007 -1.662,0.4267 -1.724,0.792 -2.12,1.0627 -1.339,0.916 -1.244,2.604 -1.244,2.604"
     id="path453" />
  <path
     style="fill:none;stroke:#231f20;stroke-width:0.332927;stroke-linecap:butt;stroke-linejoin:miter;stroke-miterlimit:4;stroke-dasharray:none;stroke-opacity:1"
     d="m 200.08746,13.898792 c 0.353,1.3026 -0.454,1.88 -1.486,1.808 -0.312,-0.0214 -0.598,0.276 -0.89,0.228 -0.698,-0.1094 -1.676,-1.552 -0.682,-2.6707 0.072,-0.084 0.411,-0.8293 0.75,-1.344 0.666,-1.0213 2.484,-2.7293007 5.182,-2.6200007 1.271,0.052 1.006,0.7973007 0.49,0.9320007 -1.662,0.4267 -1.724,0.792 -2.12,1.0627 -1.339,0.916 -1.244,2.604 -1.244,2.604 z"
     id="path454" />
  <path
     style="fill:#231f20;fill-opacity:1;fill-rule:nonzero;stroke:none"
     d="m 187.39346,27.696092 c 1.599,1.604 2.126,1.7026 2.85,1.072 0.484,-0.4214 1.072,-0.6454 1.374,-0.8854 1.022,-0.8066 2.396,-2.5826 4.995,-8.6293 0.584,-1.3706 1.427,-3.292 1.833,-4.052 0.636,-1.1933 -1.781,-1.448 -2.036,-0.9746 -0.828,1.5 -1.516,2.4586 -1.89,2.964 -0.251,0.344 -0.62,1.0106 -1.776,2.208 -1.756,1.8226 -3.079,2.6506 -4.36,4.3333 -0.594,0.776 -1.542,0.984 -1.73,2.052 -0.202,1.068 0.74,1.912 0.74,1.912"
     id="path455" />
  <path
     style="fill:none;stroke:#231f20;stroke-width:0.565977;stroke-linecap:butt;stroke-linejoin:miter;stroke-miterlimit:4;stroke-dasharray:none;stroke-opacity:1"
     d="m 187.39346,27.696092 c 1.599,1.604 2.126,1.7026 2.85,1.072 0.484,-0.4214 1.072,-0.6454 1.374,-0.8854 1.022,-0.8066 2.396,-2.5826 4.995,-8.6293 0.584,-1.3706 1.427,-3.292 1.833,-4.052 0.636,-1.1933 -1.781,-1.448 -2.036,-0.9746 -0.828,1.5 -1.516,2.4586 -1.89,2.964 -0.251,0.344 -0.62,1.0106 -1.776,2.208 -1.756,1.8226 -3.079,2.6506 -4.36,4.3333 -0.594,0.776 -1.542,0.984 -1.73,2.052 -0.202,1.068 0.74,1.912 0.74,1.912 z"
     id="path456" />
  <path
     style="fill:#0098c9;fill-opacity:1;fill-rule:nonzero;stroke:none"
     d="m 168.46246,45.273392 c 3.13,-0.1347 3.817,0.1826 4.677,0.5106 5.405,2.0414 6.312,-0.6506 5.672,-3.4626 -0.751,-3.3027 -0.959,-4.5054 -7.193,-3.6467 -1.735,0.24 -8.511,0.292 -8.511,0.292 -2.427,-0.308 -4.957,0.688 -5.724,1.9213 -0.807,1.3134 -0.391,0.8494 -0.916,2.1934 -0.505,1.2813 -0.161,3.4426 0.901,4.0826 1.01,0.62 2.484,-0.1666 4.75,-1.0146 1.792,-0.672 6.344,-0.876 6.344,-0.876"
     id="path457" />
  <path
     style="fill:none;stroke:#231f20;stroke-width:0.565977;stroke-linecap:butt;stroke-linejoin:miter;stroke-miterlimit:4;stroke-dasharray:none;stroke-opacity:1"
     d="m 168.46246,45.273392 c 3.13,-0.1347 3.817,0.1826 4.677,0.5106 5.405,2.0414 6.312,-0.6506 5.672,-3.4626 -0.751,-3.3027 -0.959,-4.5054 -7.193,-3.6467 -1.735,0.24 -8.511,0.292 -8.511,0.292 -2.427,-0.308 -4.957,0.688 -5.724,1.9213 -0.807,1.3134 -0.391,0.8494 -0.916,2.1934 -0.505,1.2813 -0.161,3.4426 0.901,4.0826 1.01,0.62 2.484,-0.1666 4.75,-1.0146 1.792,-0.672 6.344,-0.876 6.344,-0.876 z"
     id="path458" />
  <path
     style="fill:#ffffff;fill-opacity:1;fill-rule:nonzero;stroke:none"
     d="m 150.87846,40.518692 c -0.239,-0.0467 -0.307,-1.1933 -0.834,-1.2027 -0.525,-0.0053 -0.733,0.7547 -2.541,1.5827 l -0.02,0.0053 c -1.339,0.568 -2.281,1.588 -2.396,2.8387 -0.193,2.068 1.927,3.9587 4.733,4.2187 2.819,0.2706 5.251,-1.1934 5.443,-3.2654 0.193,-1.9746 -1.749,-3.7973 -4.385,-4.1773"
     id="path459" />
  <path
     style="fill:none;stroke:#231f20;stroke-width:0.565977;stroke-linecap:butt;stroke-linejoin:miter;stroke-miterlimit:4;stroke-dasharray:none;stroke-opacity:1"
     d="m 150.87846,40.518692 c -0.239,-0.0467 -0.307,-1.1933 -0.834,-1.2027 -0.525,-0.0053 -0.733,0.7547 -2.541,1.5827 l -0.02,0.0053 c -1.339,0.568 -2.281,1.588 -2.396,2.8387 -0.193,2.068 1.927,3.9587 4.733,4.2187 2.819,0.2706 5.251,-1.1934 5.443,-3.2654 0.193,-1.9746 -1.749,-3.7973 -4.385,-4.1773 z"
     id="path460" />
  <path
     style="fill:#231f20;fill-opacity:1;fill-rule:nonzero;stroke:none"
     d="m 189.49746,26.398692 c -2.577,-3.0733 -4.197,0.672 -4.562,0.98 -3.853,3.2027 -4.047,3.5307 -6.812,6.1707 -3.995,3.824 -6.141,7.0573 -4.599,10.0266 1.052,2.016 2.526,2.724 3.839,2.5934 1.448,-0.156 4.109,-1.896 4.057,-4.7867 l 0.875,-1.468 c 0.719,-0.9173 1.068,-1.3747 1.453,-1.7973 0.687,-0.7387 1.364,-1.568 2.609,-3.0773 2.203,-2.6827 3.656,-6.2454 3.656,-6.2454 0.771,-0.9786 -0.516,-2.396 -0.516,-2.396"
     id="path461" />
  <path
     style="fill:none;stroke:#231f20;stroke-width:0.565977;stroke-linecap:butt;stroke-linejoin:miter;stroke-miterlimit:4;stroke-dasharray:none;stroke-opacity:1"
     d="m 189.49746,26.398692 c -2.577,-3.0733 -4.197,0.672 -4.562,0.98 -3.853,3.2027 -4.047,3.5307 -6.812,6.1707 -3.995,3.824 -6.141,7.0573 -4.599,10.0266 1.052,2.016 2.526,2.724 3.839,2.5934 1.448,-0.156 4.109,-1.896 4.057,-4.7867 l 0.875,-1.468 c 0.719,-0.9173 1.068,-1.3747 1.453,-1.7973 0.687,-0.7387 1.364,-1.568 2.609,-3.0773 2.203,-2.6827 3.656,-6.2454 3.656,-6.2454 0.771,-0.9786 -0.516,-2.396 -0.516,-2.396 z"
     id="path462" />
  <path
     style="fill:#0098c9;fill-opacity:1;fill-rule:nonzero;stroke:none"
     d="m 181.19146,40.711992 -6.396,-4.496 c -0.344,0.5574 -0.631,1.0947 -0.891,1.6254 -0.052,0.052 -0.109,0.1093 -0.166,0.1506 -0.651,0.48 -0.678,1.1147 -0.683,2.1574 -0.344,1.5093 -0.172,2.864 0.719,4.036 1.365,1.812 2.937,2.2653 4.208,1.912 1.406,-0.3854 3.74,-2.5534 3.209,-5.3854"
     id="path463" />
  <path
     style="fill:none;stroke:#231f20;stroke-width:0.565977;stroke-linecap:butt;stroke-linejoin:miter;stroke-miterlimit:4;stroke-dasharray:none;stroke-opacity:1"
     d="m 181.19146,40.711992 -6.396,-4.496 c -0.344,0.5574 -0.631,1.0947 -0.891,1.6254 -0.052,0.052 -0.109,0.1093 -0.166,0.1506 -0.651,0.48 -0.678,1.1147 -0.683,2.1574 -0.344,1.5093 -0.172,2.864 0.719,4.036 1.365,1.812 2.937,2.2653 4.208,1.912 1.406,-0.3854 3.74,-2.5534 3.209,-5.3854 z"
     id="path464" />
  <path
     style="fill:#231f20;fill-opacity:1;fill-rule:nonzero;stroke:none"
     d="m 174.64446,30.190692 c -0.105,0.6347 -1.605,1.8694 -2.36,3.2974 -0.51,0.952 -2.677,2.6399 -3.109,3.6346 -0.401,0.912 -0.672,1.292 -1.792,1.0107 -0.656,-0.1614 -1.828,-0.912 -1.729,-1.412 0.234,-1.1667 0.772,-1.948 1.542,-2.6813 0.88,-0.8387 3.468,-2.9067 3.979,-3.24 1.281,-0.8334 1.516,-1.532 1.833,-1.7814 0.588,-0.4786 0.922,-0.364 1.312,-0.0466 0.74,0.604 0.324,1.2186 0.324,1.2186"
     id="path465" />
  <path
     style="fill:none;stroke:#231f20;stroke-width:0.565977;stroke-linecap:butt;stroke-linejoin:miter;stroke-miterlimit:4;stroke-dasharray:none;stroke-opacity:1"
     d="m 174.64446,30.190692 c -0.105,0.6347 -1.605,1.8694 -2.36,3.2974 -0.51,0.952 -2.677,2.6399 -3.109,3.6346 -0.401,0.912 -0.672,1.292 -1.792,1.0107 -0.656,-0.1614 -1.828,-0.912 -1.729,-1.412 0.234,-1.1667 0.772,-1.948 1.542,-2.6813 0.88,-0.8387 3.468,-2.9067 3.979,-3.24 1.281,-0.8334 1.516,-1.532 1.833,-1.7814 0.588,-0.4786 0.922,-0.364 1.312,-0.0466 0.74,0.604 0.324,1.2186 0.324,1.2186 z"
     id="path466" />
  <path
     style="fill:#231f20;fill-opacity:1;fill-rule:nonzero;stroke:none"
     d="m 168.54446,36.882692 c 0.855,0.9747 -0.896,2.016 -1.312,2.36 -0.421,0.3493 -1.5,1.4693 -2.229,2.448 -0.735,0.984 -2.068,1.896 -3.459,3.76 -0.733,0.98 -2.066,1.4693 -3.442,0.344 -1.359,-1.1093 -1.244,-2.292 -0.182,-3.3387 1.067,-1.0573 2.51,-1.5933 3.656,-2.5786 1.151,-0.984 2.224,-2.0934 3.026,-3.004 0.917,-1.0374 1.756,-1.2094 2.209,-1.0574 1.135,0.3747 1.733,1.0667 1.733,1.0667"
     id="path467" />
  <path
     style="fill:none;stroke:#231f20;stroke-width:0.565977;stroke-linecap:butt;stroke-linejoin:miter;stroke-miterlimit:4;stroke-dasharray:none;stroke-opacity:1"
     d="m 168.54446,36.882692 c 0.855,0.9747 -0.896,2.016 -1.312,2.36 -0.421,0.3493 -1.5,1.4693 -2.229,2.448 -0.735,0.984 -2.068,1.896 -3.459,3.76 -0.733,0.98 -2.066,1.4693 -3.442,0.344 -1.359,-1.1093 -1.244,-2.292 -0.182,-3.3387 1.067,-1.0573 2.51,-1.5933 3.656,-2.5786 1.151,-0.984 2.224,-2.0934 3.026,-3.004 0.917,-1.0374 1.756,-1.2094 2.209,-1.0574 1.135,0.3747 1.733,1.0667 1.733,1.0667 z"
     id="path468" />
  <path
     style="fill:#ffffff;fill-opacity:1;fill-rule:nonzero;stroke:none"
     d="m 210.78446,30.445392 c -0.921,0.4533 -2.036,0.0733 -2.495,-0.844 -0.453,-0.9213 -0.078,-2.0413 0.844,-2.4947 0.922,-0.452 2.036,-0.0773 2.495,0.844 0.459,0.9227 0.073,2.0374 -0.844,2.4947"
     id="path469" />
  <path
     style="fill:none;stroke:#231f20;stroke-width:1.33171;stroke-linecap:butt;stroke-linejoin:miter;stroke-miterlimit:4;stroke-dasharray:none;stroke-opacity:1"
     d="m 210.78446,30.445392 c -0.921,0.4533 -2.036,0.0733 -2.495,-0.844 -0.453,-0.9213 -0.078,-2.0413 0.844,-2.4947 0.922,-0.452 2.036,-0.0773 2.495,0.844 0.459,0.9227 0.073,2.0374 -0.844,2.4947 z"
     id="path470" />
  <path
     style="fill:#ffffff;fill-opacity:1;fill-rule:nonzero;stroke:none"
     d="m 176.37846,29.597392 c -0.615,0.8227 -1.782,0.984 -2.599,0.3693 -0.823,-0.6146 -0.989,-1.7813 -0.369,-2.604 0.614,-0.8226 1.781,-0.9893 2.604,-0.3706 0.817,0.6146 0.984,1.7813 0.364,2.6053"
     id="path471" />
  <path
     style="fill:none;stroke:#231f20;stroke-width:1.33171;stroke-linecap:butt;stroke-linejoin:miter;stroke-miterlimit:4;stroke-dasharray:none;stroke-opacity:1"
     d="m 176.37846,29.597392 c -0.615,0.8227 -1.782,0.984 -2.599,0.3693 -0.823,-0.6146 -0.989,-1.7813 -0.369,-2.604 0.614,-0.8226 1.781,-0.9893 2.604,-0.3706 0.817,0.6146 0.984,1.7813 0.364,2.6053 z"
     id="path472" />
  <path
     style="fill:#ffffff;fill-opacity:1;fill-rule:nonzero;stroke:none"
     d="m 97.076459,28.122692 c 0.192,1.0107 -0.464,1.984 -1.474,2.1827 -1.006,0.1973 -1.984,-0.4587 -2.176,-1.4693 -0.199,-1.0107 0.457,-1.984 1.468,-2.1814 1.005,-0.1986 1.984,0.4627 2.182,1.468"
     id="path473" />
  <path
     style="fill:none;stroke:#231f20;stroke-width:1.33171;stroke-linecap:butt;stroke-linejoin:miter;stroke-miterlimit:4;stroke-dasharray:none;stroke-opacity:1"
     d="m 97.076459,28.122692 c 0.192,1.0107 -0.464,1.984 -1.474,2.1827 -1.006,0.1973 -1.984,-0.4587 -2.176,-1.4693 -0.199,-1.0107 0.457,-1.984 1.468,-2.1814 1.005,-0.1986 1.984,0.4627 2.182,1.468 z"
     id="path474" />
</svg>
