<?xml version="1.0" encoding="UTF-8" standalone="no"?>
<!-- Created with Inkscape (http://www.inkscape.org/) -->

<svg
   version="1.1"
   id="svg1"
   width="360.46881"
   height="171.03912"
   viewBox="0 0 360.4688 171.03913"
   sodipodi:docname="cell.svg"
   xmlns:inkscape="http://www.inkscape.org/namespaces/inkscape"
   xmlns:sodipodi="http://sodipodi.sourceforge.net/DTD/sodipodi-0.dtd"
   xmlns="http://www.w3.org/2000/svg"
   xmlns:svg="http://www.w3.org/2000/svg">
  <sodipodi:namedview
     id="namedview1"
     pagecolor="#ffffff"
     bordercolor="#000000"
     borderopacity="0.25"
     inkscape:showpageshadow="2"
     inkscape:pageopacity="0.0"
     inkscape:pagecheckerboard="0"
     inkscape:deskcolor="#d1d1d1">
    <inkscape:page
       x="0"
       y="0"
       inkscape:label="1"
       id="page1"
       width="360.46881"
       height="171.03912"
       margin="0"
       bleed="0" />
  </sodipodi:namedview>
  <defs
     id="defs1" />
  <path
     style="fill:#ffffff;fill-opacity:1;fill-rule:nonzero;stroke:none"
     d="m 166.0998,18.874 h 18.875 V 0 h -18.875 z"
     id="path80" />
  <path
     style="fill:#ffffff;fill-opacity:1;fill-rule:nonzero;stroke:none"
     d="M -1.4269758e-8,18.874 H 18.875 V 0 H -1.4269758e-8 Z"
     id="path81" />
  <path
     style="fill:#ffffff;fill-opacity:1;fill-rule:nonzero;stroke:none"
     d="m 343.5418,18.874 h 16.927 V 0 h -16.927 z"
     id="path82" />
  <path
     style="fill:#231f20;fill-opacity:1;fill-rule:nonzero;stroke:none"
     d="m 287.6978,96.844 c 0.542,-1.246 -0.166,-1.932 -1.204,-2.016 -0.301,-0.026 -0.546,-0.364 -0.842,-0.359 -0.71,0.005 -1.886,1.291 -1.068,2.547 0.052,0.088 0.281,0.874 0.536,1.437 0.505,1.104 2.052,3.068 4.729,3.354 1.271,0.146 1.12,-0.63 0.625,-0.844 -1.578,-0.672 -1.584,-1.042 -1.932,-1.37 -1.188,-1.104 -0.844,-2.749 -0.844,-2.749"
     id="path83" />
  <path
     style="fill:none;stroke:#231f20;stroke-width:0.332927;stroke-linecap:butt;stroke-linejoin:miter;stroke-miterlimit:4;stroke-dasharray:none;stroke-opacity:1"
     d="m 287.6978,96.844 c 0.542,-1.246 -0.166,-1.932 -1.204,-2.016 -0.301,-0.026 -0.546,-0.364 -0.842,-0.359 -0.71,0.005 -1.886,1.291 -1.068,2.547 0.052,0.088 0.281,0.874 0.536,1.437 0.505,1.104 2.052,3.068 4.729,3.354 1.271,0.146 1.12,-0.63 0.625,-0.844 -1.578,-0.672 -1.584,-1.042 -1.932,-1.37 -1.188,-1.104 -0.844,-2.749 -0.844,-2.749 z"
     id="path84" />
  <path
     style="fill:#231f20;fill-opacity:1;fill-rule:nonzero;stroke:none"
     d="m 277.2038,81.302 c 1.817,-1.344 2.353,-1.365 2.973,-0.636 0.417,0.49 0.964,0.798 1.229,1.084 0.886,0.948 1.984,2.906 3.651,9.276 0.38,1.443 0.923,3.463 1.213,4.276 0.448,1.282 -1.978,1.172 -2.161,0.667 -0.599,-1.609 -1.129,-2.667 -1.421,-3.213 -0.203,-0.387 -0.47,-1.095 -1.432,-2.454 -1.47,-2.062 -2.647,-3.073 -3.667,-4.928 -0.475,-0.858 -1.376,-1.208 -1.407,-2.29 -0.036,-1.084 1.022,-1.782 1.022,-1.782"
     id="path85" />
  <path
     style="fill:none;stroke:#231f20;stroke-width:0.565977;stroke-linecap:butt;stroke-linejoin:miter;stroke-miterlimit:4;stroke-dasharray:none;stroke-opacity:1"
     d="m 277.2038,81.302 c 1.817,-1.344 2.353,-1.365 2.973,-0.636 0.417,0.49 0.964,0.798 1.229,1.084 0.886,0.948 1.984,2.906 3.651,9.276 0.38,1.443 0.923,3.463 1.213,4.276 0.448,1.282 -1.978,1.172 -2.161,0.667 -0.599,-1.609 -1.129,-2.667 -1.421,-3.213 -0.203,-0.387 -0.47,-1.095 -1.432,-2.454 -1.47,-2.062 -2.647,-3.073 -3.667,-4.928 -0.475,-0.858 -1.376,-1.208 -1.407,-2.29 -0.036,-1.084 1.022,-1.782 1.022,-1.782 z"
     id="path86" />
  <path
     style="fill:#0098c9;fill-opacity:1;fill-rule:nonzero;stroke:none"
     d="m 265.3218,57.292 c 2.09,2.338 2.792,2.614 3.626,3 5.234,2.448 3.937,4.973 1.474,6.473 -2.89,1.771 -3.896,2.464 -7.63,-2.604 -1.036,-1.416 -5.724,-6.301 -5.724,-6.301 -1.912,-1.527 -2.968,-4.032 -2.615,-5.443 0.369,-1.491 0.333,-0.871 0.927,-2.188 0.568,-1.255 2.354,-2.516 3.552,-2.197 1.152,0.29 1.614,1.889 2.589,4.109 0.771,1.749 3.801,5.151 3.801,5.151"
     id="path87" />
  <path
     style="fill:none;stroke:#231f20;stroke-width:0.565977;stroke-linecap:butt;stroke-linejoin:miter;stroke-miterlimit:4;stroke-dasharray:none;stroke-opacity:1"
     d="m 265.3218,57.292 c 2.09,2.338 2.792,2.614 3.626,3 5.234,2.448 3.937,4.973 1.474,6.473 -2.89,1.771 -3.896,2.464 -7.63,-2.604 -1.036,-1.416 -5.724,-6.301 -5.724,-6.301 -1.912,-1.527 -2.968,-4.032 -2.615,-5.443 0.369,-1.491 0.333,-0.871 0.927,-2.188 0.568,-1.255 2.354,-2.516 3.552,-2.197 1.152,0.29 1.614,1.889 2.589,4.109 0.771,1.749 3.801,5.151 3.801,5.151 z"
     id="path88" />
  <path
     style="fill:#ffffff;fill-opacity:1;fill-rule:nonzero;stroke:none"
     d="m 250.4938,45.15 c -0.114,-0.218 -1.233,0.022 -1.38,-0.478 -0.15,-0.506 0.522,-0.912 0.834,-2.88 V 41.77 c 0.177,-1.442 0.912,-2.62 2.084,-3.072 1.937,-0.745 4.328,0.786 5.344,3.422 1.014,2.636 0.265,5.38 -1.678,6.125 -1.844,0.719 -4.125,-0.667 -5.204,-3.095"
     id="path89" />
  <path
     style="fill:none;stroke:#231f20;stroke-width:0.565977;stroke-linecap:butt;stroke-linejoin:miter;stroke-miterlimit:4;stroke-dasharray:none;stroke-opacity:1"
     d="m 250.4938,45.15 c -0.114,-0.218 -1.233,0.022 -1.38,-0.478 -0.15,-0.506 0.522,-0.912 0.834,-2.88 V 41.77 c 0.177,-1.442 0.912,-2.62 2.084,-3.072 1.937,-0.745 4.328,0.786 5.344,3.422 1.014,2.636 0.265,5.38 -1.678,6.125 -1.844,0.719 -4.125,-0.667 -5.204,-3.095 z"
     id="path90" />
  <path
     style="fill:#231f20;fill-opacity:1;fill-rule:nonzero;stroke:none"
     d="m 279.0888,82.901 c -3.011,2.656 -4.052,-1.292 -4.371,-1.647 -3.333,-3.744 -3.473,-4.098 -5.817,-7.124 -3.375,-4.37 -5.016,-7.885 -3.052,-10.594 1.339,-1.838 2.912,-2.323 4.188,-1.995 1.411,0.365 3.776,2.491 3.296,5.339 l 0.647,1.584 c 0.572,1.01 0.853,1.514 1.172,1.989 0.561,0.833 1.113,1.76 2.118,3.437 1.782,2.984 2.688,6.714 2.688,6.714 0.615,1.084 -0.869,2.297 -0.869,2.297"
     id="path91" />
  <path
     style="fill:none;stroke:#231f20;stroke-width:0.565977;stroke-linecap:butt;stroke-linejoin:miter;stroke-miterlimit:4;stroke-dasharray:none;stroke-opacity:1"
     d="m 279.0888,82.901 c -3.011,2.656 -4.052,-1.292 -4.371,-1.647 -3.333,-3.744 -3.473,-4.098 -5.817,-7.124 -3.375,-4.37 -5.016,-7.885 -3.052,-10.594 1.339,-1.838 2.912,-2.323 4.188,-1.995 1.411,0.365 3.776,2.491 3.296,5.339 l 0.647,1.584 c 0.572,1.01 0.853,1.514 1.172,1.989 0.561,0.833 1.113,1.76 2.118,3.437 1.782,2.984 2.688,6.714 2.688,6.714 0.615,1.084 -0.869,2.297 -0.869,2.297 z"
     id="path92" />
  <path
     style="fill:#0098c9;fill-opacity:1;fill-rule:nonzero;stroke:none"
     d="m 270.6408,61.698 c -1.208,-0.532 -2.833,-0.318 -4.453,1.271 -1.052,1.025 -1.422,2.339 -1.312,3.885 -0.152,1.031 -0.22,1.656 0.353,2.235 0.052,0.047 0.099,0.113 0.147,0.176 0.176,0.557 0.38,1.131 0.634,1.735 l 6.995,-3.49 c 0.953,-2.729 -1.036,-5.213 -2.364,-5.812"
     id="path93" />
  <path
     style="fill:none;stroke:#231f20;stroke-width:0.565977;stroke-linecap:butt;stroke-linejoin:miter;stroke-miterlimit:4;stroke-dasharray:none;stroke-opacity:1"
     d="m 270.6408,61.698 c -1.208,-0.532 -2.833,-0.318 -4.453,1.271 -1.052,1.025 -1.422,2.339 -1.312,3.885 -0.152,1.031 -0.22,1.656 0.353,2.235 0.052,0.047 0.099,0.113 0.147,0.176 0.176,0.557 0.38,1.131 0.634,1.735 l 6.995,-3.49 c 0.953,-2.729 -1.036,-5.213 -2.364,-5.812 z"
     id="path94" />
  <path
     style="fill:#231f20;fill-opacity:1;fill-rule:nonzero;stroke:none"
     d="m 246.0048,68.041 c 0.62,-0.176 1.677,-1.812 3.005,-2.724 0.896,-0.615 2.328,-2.957 3.266,-3.5 0.854,-0.5 1.204,-0.807 0.802,-1.885 -0.24,-0.64 -1.109,-1.719 -1.604,-1.563 -1.13,0.365 -1.849,0.985 -2.489,1.833 -0.735,0.975 -2.491,3.776 -2.767,4.324 -0.681,1.364 -1.353,1.672 -1.566,2.02 -0.407,0.642 -0.256,0.959 0.104,1.308 0.686,0.667 1.249,0.187 1.249,0.187"
     id="path95" />
  <path
     style="fill:none;stroke:#231f20;stroke-width:0.565977;stroke-linecap:butt;stroke-linejoin:miter;stroke-miterlimit:4;stroke-dasharray:none;stroke-opacity:1"
     d="m 246.0048,68.041 c 0.62,-0.176 1.677,-1.812 3.005,-2.724 0.896,-0.615 2.328,-2.957 3.266,-3.5 0.854,-0.5 1.204,-0.807 0.802,-1.885 -0.24,-0.64 -1.109,-1.719 -1.604,-1.563 -1.13,0.365 -1.849,0.985 -2.489,1.833 -0.735,0.975 -2.491,3.776 -2.767,4.324 -0.681,1.364 -1.353,1.672 -1.566,2.02 -0.407,0.642 -0.256,0.959 0.104,1.308 0.686,0.667 1.249,0.187 1.249,0.187 z"
     id="path96" />
  <path
     style="fill:#231f20;fill-opacity:1;fill-rule:nonzero;stroke:none"
     d="m 251.9688,61.218 c 1.063,0.74 1.896,-1.114 2.192,-1.568 0.297,-0.452 1.287,-1.656 2.183,-2.489 0.89,-0.839 1.645,-2.271 3.344,-3.864 0.885,-0.839 1.224,-2.219 -0.047,-3.459 -1.261,-1.224 -2.417,-0.973 -3.344,0.198 -0.927,1.177 -1.297,2.672 -2.145,3.922 -0.844,1.255 -1.83,2.454 -2.647,3.354 -0.927,1.021 -1,1.876 -0.801,2.308 0.505,1.082 1.265,1.598 1.265,1.598"
     id="path97" />
  <path
     style="fill:none;stroke:#231f20;stroke-width:0.565977;stroke-linecap:butt;stroke-linejoin:miter;stroke-miterlimit:4;stroke-dasharray:none;stroke-opacity:1"
     d="m 251.9688,61.218 c 1.063,0.74 1.896,-1.114 2.192,-1.568 0.297,-0.452 1.287,-1.656 2.183,-2.489 0.89,-0.839 1.645,-2.271 3.344,-3.864 0.885,-0.839 1.224,-2.219 -0.047,-3.459 -1.261,-1.224 -2.417,-0.973 -3.344,0.198 -0.927,1.177 -1.297,2.672 -2.145,3.922 -0.844,1.255 -1.83,2.454 -2.647,3.354 -0.927,1.021 -1,1.876 -0.801,2.308 0.505,1.082 1.265,1.598 1.265,1.598 z"
     id="path98" />
  <path
     style="fill:#ffffff;fill-opacity:1;fill-rule:nonzero;stroke:none"
     d="m 239.2178,76.844 c -0.88,0.525 -1.172,1.661 -0.645,2.546 0.521,0.886 1.667,1.178 2.547,0.651 0.885,-0.52 1.177,-1.667 0.65,-2.547 -0.525,-0.885 -1.666,-1.172 -2.552,-0.65"
     id="path99" />
  <path
     style="fill:none;stroke:#231f20;stroke-width:1.33171;stroke-linecap:butt;stroke-linejoin:miter;stroke-miterlimit:4;stroke-dasharray:none;stroke-opacity:1"
     d="m 239.2178,76.844 c -0.88,0.525 -1.172,1.661 -0.645,2.546 0.521,0.886 1.667,1.178 2.547,0.651 0.885,-0.52 1.177,-1.667 0.65,-2.547 -0.525,-0.885 -1.666,-1.172 -2.552,-0.65 z"
     id="path100" />
  <path
     style="fill:#231f20;fill-opacity:1;fill-rule:nonzero;stroke:none"
     d="m 240.4888,72.312 c 0.215,-0.698 2.152,-3.307 2.62,-3.88 0.417,-0.515 0.828,-1.599 1.953,-1.328 0.454,0.104 1.042,0.584 1.224,0.849 0.156,0.213 0.036,0.521 -0.244,0.803 -0.469,0.473 -0.781,0.432 -1.724,1.29 0,0 -0.256,0.167 -0.734,0.443 -1.407,0.828 -0.866,0.333 -2.636,1.985 -0.12,0.114 -0.334,0.072 -0.402,-0.016 -0.113,-0.141 -0.057,-0.146 -0.057,-0.146"
     id="path101" />
  <path
     style="fill:none;stroke:#231f20;stroke-width:0.565977;stroke-linecap:round;stroke-linejoin:round;stroke-miterlimit:4;stroke-dasharray:none;stroke-opacity:1"
     d="m 240.4888,72.312 c 0.215,-0.698 2.152,-3.307 2.62,-3.88 0.417,-0.515 0.828,-1.599 1.953,-1.328 0.454,0.104 1.042,0.584 1.224,0.849 0.156,0.213 0.036,0.521 -0.244,0.803 -0.469,0.473 -0.781,0.432 -1.724,1.29 0,0 -0.256,0.167 -0.734,0.443 -1.407,0.828 -0.866,0.333 -2.636,1.985 -0.12,0.114 -0.334,0.072 -0.402,-0.016 -0.113,-0.141 -0.057,-0.146 -0.057,-0.146 z"
     id="path102" />
  <path
     style="fill:none;stroke:#231f20;stroke-width:0.399514;stroke-linecap:butt;stroke-linejoin:miter;stroke-miterlimit:4;stroke-dasharray:none;stroke-opacity:1"
     d="m 79.8492,123.207 c 24.8906,9.058 45.3496,-18.525 47.3746,-25.499"
     id="path103" />
  <path
     style="fill:#231f20;fill-opacity:1;fill-rule:nonzero;stroke:none"
     d="m 127.5628,96.552 c 0.041,0.604 0.193,1.38 0.437,1.906 l -0.817,-0.598 -1.011,0.066 c 0.489,-0.312 1.032,-0.89 1.391,-1.374"
     id="path104" />
  <path
     style="fill:#231f20;fill-opacity:1;fill-rule:nonzero;stroke:none"
     d="m 123.5428,78.161 c -0.882,-1.025 -1.814,-0.683 -2.33,0.219 -0.156,0.265 -0.566,0.338 -0.692,0.609 -0.297,0.641 0.355,2.256 1.844,2.057 0.099,-0.014 0.911,0.12 1.531,0.131 1.213,0.016 3.647,-0.536 5.063,-2.833 0.672,-1.084 -0.094,-1.276 -0.5,-0.922 -1.282,1.13 -1.615,0.984 -2.063,1.156 -1.505,0.599 -2.853,-0.417 -2.853,-0.417"
     id="path105" />
  <path
     style="fill:none;stroke:#231f20;stroke-width:0.332927;stroke-linecap:butt;stroke-linejoin:miter;stroke-miterlimit:4;stroke-dasharray:none;stroke-opacity:1"
     d="m 123.5428,78.161 c -0.882,-1.025 -1.814,-0.683 -2.33,0.219 -0.156,0.265 -0.566,0.338 -0.692,0.609 -0.297,0.641 0.355,2.256 1.844,2.057 0.099,-0.014 0.911,0.12 1.531,0.131 1.213,0.016 3.647,-0.536 5.063,-2.833 0.672,-1.084 -0.094,-1.276 -0.5,-0.922 -1.282,1.13 -1.615,0.984 -2.063,1.156 -1.505,0.599 -2.853,-0.417 -2.853,-0.417 z"
     id="path106" />
  <path
     style="fill:#231f20;fill-opacity:1;fill-rule:nonzero;stroke:none"
     d="m 105.0058,80.969 c -0.438,-2.219 -0.225,-2.715 0.703,-2.959 0.619,-0.166 1.135,-0.532 1.504,-0.645 1.235,-0.396 3.475,-0.548 9.943,0.681 1.469,0.282 3.527,0.656 4.387,0.74 1.348,0.14 0.208,2.287 -0.324,2.24 -1.708,-0.152 -2.896,-0.125 -3.52,-0.094 -0.428,0.021 -1.183,-0.047 -2.823,0.24 -2.496,0.437 -3.912,1.073 -6.027,1.193 -0.984,0.061 -1.682,0.728 -2.672,0.291 -1,-0.432 -1.171,-1.687 -1.171,-1.687"
     id="path107" />
  <path
     style="fill:none;stroke:#231f20;stroke-width:0.565977;stroke-linecap:butt;stroke-linejoin:miter;stroke-miterlimit:4;stroke-dasharray:none;stroke-opacity:1"
     d="m 105.0058,80.969 c -0.438,-2.219 -0.225,-2.715 0.703,-2.959 0.619,-0.166 1.135,-0.532 1.504,-0.645 1.235,-0.396 3.475,-0.548 9.943,0.681 1.469,0.282 3.527,0.656 4.387,0.74 1.348,0.14 0.208,2.287 -0.324,2.24 -1.708,-0.152 -2.896,-0.125 -3.52,-0.094 -0.428,0.021 -1.183,-0.047 -2.823,0.24 -2.496,0.437 -3.912,1.073 -6.027,1.193 -0.984,0.061 -1.682,0.728 -2.672,0.291 -1,-0.432 -1.171,-1.687 -1.171,-1.687 z"
     id="path108" />
  <path
     style="fill:#0098c9;fill-opacity:1;fill-rule:nonzero;stroke:none"
     d="m 78.9586,79.412 c 3.1312,-0.09 3.7922,-0.454 4.6312,-0.839 5.249,-2.423 6.338,0.203 5.895,3.052 -0.51,3.353 -0.625,4.563 -6.912,4.151 -1.745,-0.12 -8.5048,0.308 -8.5048,0.308 -2.4016,0.484 -4.9948,-0.328 -5.8494,-1.511 -0.8959,-1.245 -0.448,-0.817 -1.072,-2.12 -0.5895,-1.24 -0.4015,-3.421 0.6094,-4.136 0.9626,-0.687 2.4891,-0.009 4.812,0.677 1.8334,0.538 6.3906,0.418 6.3906,0.418"
     id="path109" />
  <path
     style="fill:none;stroke:#231f20;stroke-width:0.565977;stroke-linecap:butt;stroke-linejoin:miter;stroke-miterlimit:4;stroke-dasharray:none;stroke-opacity:1"
     d="m 78.9586,79.412 c 3.1312,-0.09 3.7922,-0.454 4.6312,-0.839 5.249,-2.423 6.338,0.203 5.895,3.052 -0.51,3.353 -0.625,4.563 -6.912,4.151 -1.745,-0.12 -8.5048,0.308 -8.5048,0.308 -2.4016,0.484 -4.9948,-0.328 -5.8494,-1.511 -0.8959,-1.245 -0.448,-0.817 -1.072,-2.12 -0.5895,-1.24 -0.4015,-3.421 0.6094,-4.136 0.9626,-0.687 2.4891,-0.009 4.812,0.677 1.8334,0.538 6.3906,0.418 6.3906,0.418 z"
     id="path110" />
  <path
     style="fill:#ffffff;fill-opacity:1;fill-rule:nonzero;stroke:none"
     d="m 61.7561,85.406 c -0.235,0.068 -0.224,1.214 -0.7454,1.26 -0.5213,0.042 -0.7869,-0.702 -2.6453,-1.401 L 58.3441,85.26 c -1.3803,-0.463 -2.3907,-1.416 -2.5932,-2.656 -0.3443,-2.047 1.6396,-4.083 4.4265,-4.547 2.7864,-0.464 5.3172,0.823 5.6615,2.869 0.3276,1.959 -1.4792,3.912 -4.0828,4.48"
     id="path111" />
  <path
     style="fill:none;stroke:#231f20;stroke-width:0.565977;stroke-linecap:butt;stroke-linejoin:miter;stroke-miterlimit:4;stroke-dasharray:none;stroke-opacity:1"
     d="m 61.7561,85.406 c -0.235,0.068 -0.224,1.214 -0.7454,1.26 -0.5213,0.042 -0.7869,-0.702 -2.6453,-1.401 L 58.3441,85.26 c -1.3803,-0.463 -2.3907,-1.416 -2.5932,-2.656 -0.3443,-2.047 1.6396,-4.083 4.4265,-4.547 2.7864,-0.464 5.3172,0.823 5.6615,2.869 0.3276,1.959 -1.4792,3.912 -4.0828,4.48 z"
     id="path112" />
  <path
     style="fill:#231f20;fill-opacity:1;fill-rule:nonzero;stroke:none"
     d="m 107.2558,79.953 c 1.109,3.855 -2.901,3.104 -3.36,3.24 -4.812,1.4 -5.192,1.38 -8.927,2.192 -5.401,1.177 -9.281,1.151 -10.885,-1.792 -1.084,-1.995 -0.844,-3.619 0,-4.629 0.932,-1.12 3.864,-2.344 6.235,-0.688 l 1.707,0.093 c 1.162,-0.083 1.735,-0.115 2.302,-0.203 0.995,-0.15 2.063,-0.254 4.011,-0.437 3.458,-0.333 7.218,0.453 7.218,0.453 1.24,-0.089 1.699,1.771 1.699,1.771"
     id="path113" />
  <path
     style="fill:none;stroke:#231f20;stroke-width:0.565977;stroke-linecap:butt;stroke-linejoin:miter;stroke-miterlimit:4;stroke-dasharray:none;stroke-opacity:1"
     d="m 107.2558,79.953 c 1.109,3.855 -2.901,3.104 -3.36,3.24 -4.812,1.4 -5.192,1.38 -8.927,2.192 -5.401,1.177 -9.281,1.151 -10.885,-1.792 -1.084,-1.995 -0.844,-3.619 0,-4.629 0.932,-1.12 3.864,-2.344 6.235,-0.688 l 1.707,0.093 c 1.162,-0.083 1.735,-0.115 2.302,-0.203 0.995,-0.15 2.063,-0.254 4.011,-0.437 3.458,-0.333 7.218,0.453 7.218,0.453 1.24,-0.089 1.699,1.771 1.699,1.771 z"
     id="path114" />
  <path
     style="fill:#0098c9;fill-opacity:1;fill-rule:nonzero;stroke:none"
     d="m 90.8958,86.656 -0.145,-7.812 c -2.058,-2.032 -5.156,-1.308 -6.266,-0.36 -1,0.86 -1.505,2.417 -0.766,4.568 0.48,1.396 1.5,2.292 2.953,2.849 0.86,0.577 1.401,0.907 2.161,0.64 0.069,-0.025 0.147,-0.041 0.224,-0.057 0.579,0.084 1.188,0.141 1.839,0.172"
     id="path115" />
  <path
     style="fill:none;stroke:#231f20;stroke-width:0.565977;stroke-linecap:butt;stroke-linejoin:miter;stroke-miterlimit:4;stroke-dasharray:none;stroke-opacity:1"
     d="m 90.8958,86.656 -0.145,-7.812 c -2.058,-2.032 -5.156,-1.308 -6.266,-0.36 -1,0.86 -1.505,2.417 -0.766,4.568 0.48,1.396 1.5,2.292 2.953,2.849 0.86,0.577 1.401,0.907 2.161,0.64 0.069,-0.025 0.147,-0.041 0.224,-0.057 0.579,0.084 1.188,0.141 1.839,0.172 z"
     id="path116" />
  <path
     style="fill:#231f20;fill-opacity:1;fill-rule:nonzero;stroke:none"
     d="m 49.3545,79.13 c 0.4787,0.432 2.4265,0.463 3.9016,1.104 0.9948,0.438 3.7385,0.407 4.6973,0.911 0.8797,0.459 1.3276,0.595 2.0265,-0.323 0.4163,-0.541 0.8694,-1.853 0.4787,-2.181 -0.912,-0.767 -1.8172,-1.048 -2.8801,-1.141 -1.2131,-0.11 -4.5265,-0.11 -5.136,-0.052 -1.5145,0.145 -2.1292,-0.255 -2.5359,-0.255 -0.76,-0.005 -0.9532,0.291 -1.0573,0.781 -0.2027,0.938 0.5052,1.156 0.5052,1.156"
     id="path117" />
  <path
     style="fill:none;stroke:#231f20;stroke-width:0.565977;stroke-linecap:butt;stroke-linejoin:miter;stroke-miterlimit:4;stroke-dasharray:none;stroke-opacity:1"
     d="m 49.3545,79.13 c 0.4787,0.432 2.4265,0.463 3.9016,1.104 0.9948,0.438 3.7385,0.407 4.6973,0.911 0.8797,0.459 1.3276,0.595 2.0265,-0.323 0.4163,-0.541 0.8694,-1.853 0.4787,-2.181 -0.912,-0.767 -1.8172,-1.048 -2.8801,-1.141 -1.2131,-0.11 -4.5265,-0.11 -5.136,-0.052 -1.5145,0.145 -2.1292,-0.255 -2.5359,-0.255 -0.76,-0.005 -0.9532,0.291 -1.0573,0.781 -0.2027,0.938 0.5052,1.156 0.5052,1.156 z"
     id="path118" />
  <path
     style="fill:#231f20;fill-opacity:1;fill-rule:nonzero;stroke:none"
     d="m 58.3023,80.568 c -0.0676,1.292 1.9538,1.016 2.4896,1.025 0.547,0.011 2.088,0.215 3.271,0.527 1.188,0.312 2.7967,0.197 5.0462,0.786 1.1828,0.307 2.5323,-0.136 2.9068,-1.87 0.3693,-1.719 -0.4531,-2.572 -1.9427,-2.728 -1.4838,-0.163 -2.9532,0.317 -4.4641,0.26 -1.5093,-0.052 -3.041,-0.251 -4.2385,-0.464 -1.3599,-0.244 -2.1255,0.146 -2.3853,0.546 -0.6574,1 -0.683,1.918 -0.683,1.918"
     id="path119" />
  <path
     style="fill:none;stroke:#231f20;stroke-width:0.565977;stroke-linecap:butt;stroke-linejoin:miter;stroke-miterlimit:4;stroke-dasharray:none;stroke-opacity:1"
     d="m 58.3023,80.568 c -0.0676,1.292 1.9538,1.016 2.4896,1.025 0.547,0.011 2.088,0.215 3.271,0.527 1.188,0.312 2.7967,0.197 5.0462,0.786 1.1828,0.307 2.5323,-0.136 2.9068,-1.87 0.3693,-1.719 -0.4531,-2.572 -1.9427,-2.728 -1.4838,-0.163 -2.9532,0.317 -4.4641,0.26 -1.5093,-0.052 -3.041,-0.251 -4.2385,-0.464 -1.3599,-0.244 -2.1255,0.146 -2.3853,0.546 -0.6574,1 -0.683,1.918 -0.683,1.918 z"
     id="path120" />
  <path
     style="fill:#231f20;fill-opacity:1;fill-rule:nonzero;stroke:none"
     d="m 221.4478,90.516 c -0.058,-1.355 -1,-1.662 -1.963,-1.282 -0.287,0.11 -0.652,-0.084 -0.923,0.047 -0.63,0.317 -1.125,1.995 0.167,2.76 0.089,0.052 0.636,0.661 1.115,1.057 0.937,0.767 3.193,1.844 5.729,0.928 1.197,-0.428 0.719,-1.062 0.183,-1.032 -1.71,0.09 -1.876,-0.234 -2.334,-0.374 -1.552,-0.475 -1.974,-2.104 -1.974,-2.104"
     id="path121" />
  <path
     style="fill:none;stroke:#231f20;stroke-width:0.332927;stroke-linecap:butt;stroke-linejoin:miter;stroke-miterlimit:4;stroke-dasharray:none;stroke-opacity:1"
     d="m 221.4478,90.516 c -0.058,-1.355 -1,-1.662 -1.963,-1.282 -0.287,0.11 -0.652,-0.084 -0.923,0.047 -0.63,0.317 -1.125,1.995 0.167,2.76 0.089,0.052 0.636,0.661 1.115,1.057 0.937,0.767 3.193,1.844 5.729,0.928 1.197,-0.428 0.719,-1.062 0.183,-1.032 -1.71,0.09 -1.876,-0.234 -2.334,-0.374 -1.552,-0.475 -1.974,-2.104 -1.974,-2.104 z"
     id="path122" />
  <path
     style="fill:#231f20;fill-opacity:1;fill-rule:nonzero;stroke:none"
     d="m 205.1818,81.182 c 1.036,-2.016 1.511,-2.265 2.391,-1.88 0.588,0.255 1.219,0.286 1.579,0.427 1.213,0.459 3.061,1.74 7.364,6.724 0.973,1.131 2.349,2.708 2.973,3.307 0.969,0.953 -1.26,1.922 -1.651,1.548 -1.24,-1.183 -2.182,-1.891 -2.692,-2.256 -0.349,-0.25 -0.896,-0.776 -2.36,-1.574 -2.224,-1.202 -3.734,-1.593 -5.464,-2.812 -0.806,-0.562 -1.765,-0.473 -2.27,-1.437 -0.515,-0.959 0.13,-2.047 0.13,-2.047"
     id="path123" />
  <path
     style="fill:none;stroke:#231f20;stroke-width:0.565977;stroke-linecap:butt;stroke-linejoin:miter;stroke-miterlimit:4;stroke-dasharray:none;stroke-opacity:1"
     d="m 205.1818,81.182 c 1.036,-2.016 1.511,-2.265 2.391,-1.88 0.588,0.255 1.219,0.286 1.579,0.427 1.213,0.459 3.061,1.74 7.364,6.724 0.973,1.131 2.349,2.708 2.973,3.307 0.969,0.953 -1.26,1.922 -1.651,1.548 -1.24,-1.183 -2.182,-1.891 -2.692,-2.256 -0.349,-0.25 -0.896,-0.776 -2.36,-1.574 -2.224,-1.202 -3.734,-1.593 -5.464,-2.812 -0.806,-0.562 -1.765,-0.473 -2.27,-1.437 -0.515,-0.959 0.13,-2.047 0.13,-2.047 z"
     id="path124" />
  <path
     style="fill:#0098c9;fill-opacity:1;fill-rule:nonzero;stroke:none"
     d="m 183.2698,65.666 c 3.016,0.839 3.756,0.688 4.672,0.563 5.73,-0.765 5.995,2.068 4.735,4.656 -1.479,3.052 -1.948,4.177 -7.828,1.927 -1.636,-0.63 -8.218,-2.219 -8.218,-2.219 -2.438,-0.244 -4.678,-1.785 -5.146,-3.167 -0.49,-1.457 -0.188,-0.916 -0.396,-2.342 -0.204,-1.36 0.624,-3.391 1.796,-3.772 1.131,-0.37 2.386,0.724 4.407,2.068 1.588,1.057 5.978,2.286 5.978,2.286"
     id="path125" />
  <path
     style="fill:none;stroke:#231f20;stroke-width:0.565977;stroke-linecap:butt;stroke-linejoin:miter;stroke-miterlimit:4;stroke-dasharray:none;stroke-opacity:1"
     d="m 183.2698,65.666 c 3.016,0.839 3.756,0.688 4.672,0.563 5.73,-0.765 5.995,2.068 4.735,4.656 -1.479,3.052 -1.948,4.177 -7.828,1.927 -1.636,-0.63 -8.218,-2.219 -8.218,-2.219 -2.438,-0.244 -4.678,-1.785 -5.146,-3.167 -0.49,-1.457 -0.188,-0.916 -0.396,-2.342 -0.204,-1.36 0.624,-3.391 1.796,-3.772 1.131,-0.37 2.386,0.724 4.407,2.068 1.588,1.057 5.978,2.286 5.978,2.286 z"
     id="path126" />
  <path
     style="fill:#ffffff;fill-opacity:1;fill-rule:nonzero;stroke:none"
     d="m 165.0678,66.312 c -0.245,-0.004 -0.573,1.1 -1.083,0.99 -0.516,-0.114 -0.548,-0.906 -2.12,-2.12 l -0.021,-0.016 c -1.177,-0.849 -1.859,-2.057 -1.688,-3.301 0.277,-2.057 2.772,-3.423 5.568,-3.037 2.803,0.374 4.839,2.349 4.563,4.412 -0.26,1.968 -2.568,3.301 -5.219,3.072"
     id="path127" />
  <path
     style="fill:none;stroke:#231f20;stroke-width:0.565977;stroke-linecap:butt;stroke-linejoin:miter;stroke-miterlimit:4;stroke-dasharray:none;stroke-opacity:1"
     d="m 165.0678,66.312 c -0.245,-0.004 -0.573,1.1 -1.083,0.99 -0.516,-0.114 -0.548,-0.906 -2.12,-2.12 l -0.021,-0.016 c -1.177,-0.849 -1.859,-2.057 -1.688,-3.301 0.277,-2.057 2.772,-3.423 5.568,-3.037 2.803,0.374 4.839,2.349 4.563,4.412 -0.26,1.968 -2.568,3.301 -5.219,3.072 z"
     id="path128" />
  <path
     style="fill:#231f20;fill-opacity:1;fill-rule:nonzero;stroke:none"
     d="m 207.5778,81.786 c -1.532,3.708 -4.202,0.626 -4.646,0.443 -4.64,-1.891 -4.927,-2.14 -8.359,-3.833 -4.959,-2.438 -7.979,-4.87 -7.407,-8.172 0.391,-2.235 1.59,-3.359 2.876,-3.631 1.427,-0.291 4.49,0.573 5.312,3.344 l 1.282,1.136 c 0.958,0.656 1.426,0.989 1.926,1.276 0.871,0.495 1.771,1.077 3.418,2.145 2.91,1.891 5.369,4.844 5.369,4.844 1.031,0.703 0.229,2.448 0.229,2.448"
     id="path129" />
  <path
     style="fill:none;stroke:#231f20;stroke-width:0.565977;stroke-linecap:butt;stroke-linejoin:miter;stroke-miterlimit:4;stroke-dasharray:none;stroke-opacity:1"
     d="m 207.5778,81.786 c -1.532,3.708 -4.202,0.626 -4.646,0.443 -4.64,-1.891 -4.927,-2.14 -8.359,-3.833 -4.959,-2.438 -7.979,-4.87 -7.407,-8.172 0.391,-2.235 1.59,-3.359 2.876,-3.631 1.427,-0.291 4.49,0.573 5.312,3.344 l 1.282,1.136 c 0.958,0.656 1.426,0.989 1.926,1.276 0.871,0.495 1.771,1.077 3.418,2.145 2.91,1.891 5.369,4.844 5.369,4.844 1.031,0.703 0.229,2.448 0.229,2.448 z"
     id="path130" />
  <path
     style="fill:#0098c9;fill-opacity:1;fill-rule:nonzero;stroke:none"
     d="m 190.6558,66.474 c -1.318,0.047 -2.682,0.958 -3.438,3.099 -0.494,1.385 -0.249,2.729 0.538,4.068 0.317,0.989 0.53,1.583 1.296,1.843 0.068,0.026 0.136,0.062 0.209,0.1 0.405,0.421 0.843,0.848 1.337,1.276 l 4.74,-6.215 c -0.349,-2.869 -3.224,-4.223 -4.682,-4.171"
     id="path131" />
  <path
     style="fill:none;stroke:#231f20;stroke-width:0.565977;stroke-linecap:butt;stroke-linejoin:miter;stroke-miterlimit:4;stroke-dasharray:none;stroke-opacity:1"
     d="m 190.6558,66.474 c -1.318,0.047 -2.682,0.958 -3.438,3.099 -0.494,1.385 -0.249,2.729 0.538,4.068 0.317,0.989 0.53,1.583 1.296,1.843 0.068,0.026 0.136,0.062 0.209,0.1 0.405,0.421 0.843,0.848 1.337,1.276 l 4.74,-6.215 c -0.349,-2.869 -3.224,-4.223 -4.682,-4.171 z"
     id="path132" />
  <path
     style="fill:#231f20;fill-opacity:1;fill-rule:nonzero;stroke:none"
     d="m 158.6768,77.656 c 0.642,-0.058 1.995,-1.458 3.47,-2.094 0.994,-0.437 2.848,-2.464 3.874,-2.817 0.938,-0.328 1.339,-0.563 1.146,-1.699 -0.11,-0.677 -0.76,-1.901 -1.271,-1.838 -1.183,0.141 -2.005,0.609 -2.796,1.324 -0.907,0.812 -3.168,3.228 -3.543,3.713 -0.932,1.213 -1.645,1.385 -1.921,1.681 -0.521,0.558 -0.432,0.896 -0.151,1.308 0.547,0.792 1.192,0.422 1.192,0.422"
     id="path133" />
  <path
     style="fill:none;stroke:#231f20;stroke-width:0.565977;stroke-linecap:butt;stroke-linejoin:miter;stroke-miterlimit:4;stroke-dasharray:none;stroke-opacity:1"
     d="m 158.6768,77.656 c 0.642,-0.058 1.995,-1.458 3.47,-2.094 0.994,-0.437 2.848,-2.464 3.874,-2.817 0.938,-0.328 1.339,-0.563 1.146,-1.699 -0.11,-0.677 -0.76,-1.901 -1.271,-1.838 -1.183,0.141 -2.005,0.609 -2.796,1.324 -0.907,0.812 -3.168,3.228 -3.543,3.713 -0.932,1.213 -1.645,1.385 -1.921,1.681 -0.521,0.558 -0.432,0.896 -0.151,1.308 0.547,0.792 1.192,0.422 1.192,0.422 z"
     id="path134" />
  <path
     style="fill:#231f20;fill-opacity:1;fill-rule:nonzero;stroke:none"
     d="m 165.8328,72.098 c 0.902,0.934 2.079,-0.733 2.454,-1.12 0.38,-0.394 1.584,-1.38 2.614,-2.03 1.036,-0.651 2.052,-1.912 4.022,-3.151 1.03,-0.652 1.629,-1.943 0.614,-3.401 -1,-1.443 -2.188,-1.422 -3.318,-0.448 -1.135,0.978 -1.786,2.38 -2.859,3.442 -1.068,1.068 -2.26,2.052 -3.229,2.782 -1.11,0.828 -1.344,1.65 -1.23,2.114 0.282,1.162 0.932,1.812 0.932,1.812"
     id="path135" />
  <path
     style="fill:none;stroke:#231f20;stroke-width:0.565977;stroke-linecap:butt;stroke-linejoin:miter;stroke-miterlimit:4;stroke-dasharray:none;stroke-opacity:1"
     d="m 165.8328,72.098 c 0.902,0.934 2.079,-0.733 2.454,-1.12 0.38,-0.394 1.584,-1.38 2.614,-2.03 1.036,-0.651 2.052,-1.912 4.022,-3.151 1.03,-0.652 1.629,-1.943 0.614,-3.401 -1,-1.443 -2.188,-1.422 -3.318,-0.448 -1.135,0.978 -1.786,2.38 -2.859,3.442 -1.068,1.068 -2.26,2.052 -3.229,2.782 -1.11,0.828 -1.344,1.65 -1.23,2.114 0.282,1.162 0.932,1.812 0.932,1.812 z"
     id="path136" />
  <path
     style="fill:#ffffff;fill-opacity:1;fill-rule:nonzero;stroke:none"
     d="m 46.2654,76.338 c -0.9426,0.407 -1.3854,1.495 -0.9844,2.443 0.4016,0.943 1.4948,1.385 2.4428,0.984 0.9427,-0.4 1.3854,-1.5 0.9802,-2.443 -0.4016,-0.942 -1.4948,-1.385 -2.4386,-0.984"
     id="path137" />
  <path
     style="fill:none;stroke:#231f20;stroke-width:1.33171;stroke-linecap:butt;stroke-linejoin:miter;stroke-miterlimit:4;stroke-dasharray:none;stroke-opacity:1"
     d="m 46.2654,76.338 c -0.9426,0.407 -1.3854,1.495 -0.9844,2.443 0.4016,0.943 1.4948,1.385 2.4428,0.984 0.9427,-0.4 1.3854,-1.5 0.9802,-2.443 -0.4016,-0.942 -1.4948,-1.385 -2.4386,-0.984 z"
     id="path138" />
  <path
     style="fill:#ffffff;fill-opacity:1;fill-rule:nonzero;stroke:none"
     d="m 156.0678,76.844 c -0.885,0.525 -1.177,1.661 -0.651,2.546 0.52,0.886 1.667,1.178 2.547,0.651 0.885,-0.52 1.177,-1.667 0.651,-2.547 -0.526,-0.885 -1.667,-1.172 -2.547,-0.65"
     id="path139" />
  <path
     style="fill:none;stroke:#231f20;stroke-width:1.33171;stroke-linecap:butt;stroke-linejoin:miter;stroke-miterlimit:4;stroke-dasharray:none;stroke-opacity:1"
     d="m 156.0678,76.844 c -0.885,0.525 -1.177,1.661 -0.651,2.546 0.52,0.886 1.667,1.178 2.547,0.651 0.885,-0.52 1.177,-1.667 0.651,-2.547 -0.526,-0.885 -1.667,-1.172 -2.547,-0.65 z"
     id="path140" />
  <path
     style="fill:#231f20;fill-opacity:1;fill-rule:nonzero;stroke:none"
     d="m 326.1658,168.641 c 1.032,-0.334 0.469,-1.454 -0.067,-2.552 -0.136,-0.282 -0.24,-0.554 -0.396,-0.814 -0.625,-1.052 -1.584,-1.478 -2.89,1.214 -0.052,0.098 -1.532,1.713 -2.016,2.094 -2.36,1.834 -2.782,1.104 -2.36,1.834 0.281,0.478 0.776,0.358 1.385,0.197 0.824,-0.224 3.667,-1.255 4.109,-1.38 0.434,-0.125 2.235,-0.593 2.235,-0.593"
     id="path141" />
  <path
     style="fill:none;stroke:#231f20;stroke-width:0.565977;stroke-linecap:butt;stroke-linejoin:miter;stroke-miterlimit:4;stroke-dasharray:none;stroke-opacity:1"
     d="m 326.1658,168.641 c 1.032,-0.334 0.469,-1.454 -0.067,-2.552 -0.136,-0.282 -0.24,-0.554 -0.396,-0.814 -0.625,-1.052 -1.584,-1.478 -2.89,1.214 -0.052,0.098 -1.532,1.713 -2.016,2.094 -2.36,1.834 -2.782,1.104 -2.36,1.834 0.281,0.478 0.776,0.358 1.385,0.197 0.824,-0.224 3.667,-1.255 4.109,-1.38 0.434,-0.125 2.235,-0.593 2.235,-0.593 z"
     id="path143" />
  <path
     style="fill:#231f20;fill-opacity:1;fill-rule:nonzero;stroke:none"
     d="m 319.5828,149.895 c 2.058,-0.953 2.583,-0.86 3.047,-0.021 0.307,0.563 0.776,0.98 0.979,1.313 0.677,1.11 1.354,3.244 1.693,9.823 0.077,1.489 0.197,3.583 0.312,4.432 0.188,1.344 -2.172,0.745 -2.249,0.219 -0.256,-1.698 -0.563,-2.844 -0.74,-3.443 -0.12,-0.411 -0.235,-1.167 -0.902,-2.687 -1.014,-2.313 -1.962,-3.553 -2.588,-5.573 -0.286,-0.937 -1.098,-1.464 -0.912,-2.532 0.188,-1.067 1.36,-1.531 1.36,-1.531"
     id="path145" />
  <path
     style="fill:none;stroke:#231f20;stroke-width:0.565977;stroke-linecap:butt;stroke-linejoin:miter;stroke-miterlimit:4;stroke-dasharray:none;stroke-opacity:1"
     d="m 319.5828,149.895 c 2.058,-0.953 2.583,-0.86 3.047,-0.021 0.307,0.563 0.776,0.98 0.979,1.313 0.677,1.11 1.354,3.244 1.693,9.823 0.077,1.489 0.197,3.583 0.312,4.432 0.188,1.344 -2.172,0.745 -2.249,0.219 -0.256,-1.698 -0.563,-2.844 -0.74,-3.443 -0.12,-0.411 -0.235,-1.167 -0.902,-2.687 -1.014,-2.313 -1.962,-3.553 -2.588,-5.573 -0.286,-0.937 -1.098,-1.464 -0.912,-2.532 0.188,-1.067 1.36,-1.531 1.36,-1.531 z"
     id="path146" />
  <path
     style="fill:#0098c9;fill-opacity:1;fill-rule:nonzero;stroke:none"
     d="m 331.8018,128.093 c 0.703,3.052 1.192,3.63 1.735,4.376 3.41,4.666 1.057,6.249 -1.828,6.385 -3.387,0.151 -4.6,0.276 -5.428,-5.964 -0.23,-1.735 -1.979,-8.276 -1.979,-8.276 -0.948,-2.26 -0.661,-4.964 0.328,-6.031 1.047,-1.13 0.713,-0.609 1.869,-1.474 1.099,-0.823 3.271,-1.068 4.172,-0.219 0.871,0.817 0.506,2.443 0.287,4.86 -0.167,1.9 0.844,6.343 0.844,6.343"
     id="path147" />
  <path
     style="fill:none;stroke:#231f20;stroke-width:0.565977;stroke-linecap:butt;stroke-linejoin:miter;stroke-miterlimit:4;stroke-dasharray:none;stroke-opacity:1"
     d="m 331.8018,128.093 c 0.703,3.052 1.192,3.63 1.735,4.376 3.41,4.666 1.057,6.249 -1.828,6.385 -3.387,0.151 -4.6,0.276 -5.428,-5.964 -0.23,-1.735 -1.979,-8.276 -1.979,-8.276 -0.948,-2.26 -0.661,-4.964 0.328,-6.031 1.047,-1.13 0.713,-0.609 1.869,-1.474 1.099,-0.823 3.271,-1.068 4.172,-0.219 0.871,0.817 0.506,2.443 0.287,4.86 -0.167,1.9 0.844,6.343 0.844,6.343 z"
     id="path148" />
  <path
     style="fill:#231f20;fill-opacity:1;fill-rule:nonzero;stroke:none"
     d="m 308.2178,116.666 c 0.459,0.453 2.402,0.579 3.844,1.292 0.975,0.479 3.719,0.577 4.651,1.131 0.854,0.498 1.297,0.65 2.042,-0.23 0.443,-0.521 0.948,-1.808 0.572,-2.157 -0.869,-0.807 -1.76,-1.129 -2.822,-1.276 -1.203,-0.161 -4.511,-0.323 -5.12,-0.291 -1.52,0.072 -2.124,-0.36 -2.525,-0.38 -0.76,-0.037 -0.964,0.25 -1.094,0.734 -0.245,0.928 0.452,1.177 0.452,1.177"
     id="path149" />
  <path
     style="fill:none;stroke:#231f20;stroke-width:0.565977;stroke-linecap:butt;stroke-linejoin:miter;stroke-miterlimit:4;stroke-dasharray:none;stroke-opacity:1"
     d="m 308.2178,116.666 c 0.459,0.453 2.402,0.579 3.844,1.292 0.975,0.479 3.719,0.577 4.651,1.131 0.854,0.498 1.297,0.65 2.042,-0.23 0.443,-0.521 0.948,-1.808 0.572,-2.157 -0.869,-0.807 -1.76,-1.129 -2.822,-1.276 -1.203,-0.161 -4.511,-0.323 -5.12,-0.291 -1.52,0.072 -2.124,-0.36 -2.525,-0.38 -0.76,-0.037 -0.964,0.25 -1.094,0.734 -0.245,0.928 0.452,1.177 0.452,1.177 z"
     id="path150" />
  <path
     style="fill:#231f20;fill-opacity:1;fill-rule:nonzero;stroke:none"
     d="m 317.0828,118.526 c -0.125,1.291 1.906,1.109 2.443,1.145 0.541,0.036 2.077,0.312 3.24,0.678 1.171,0.369 2.785,0.328 5.004,1.025 1.167,0.365 2.537,-0.015 2.991,-1.733 0.452,-1.699 -0.328,-2.59 -1.808,-2.819 -1.479,-0.235 -2.964,0.177 -4.474,0.052 -1.505,-0.129 -3.026,-0.396 -4.209,-0.667 -1.353,-0.306 -2.129,0.047 -2.411,0.434 -0.698,0.968 -0.776,1.885 -0.776,1.885"
     id="path151" />
  <path
     style="fill:none;stroke:#231f20;stroke-width:0.565977;stroke-linecap:butt;stroke-linejoin:miter;stroke-miterlimit:4;stroke-dasharray:none;stroke-opacity:1"
     d="m 317.0828,118.526 c -0.125,1.291 1.906,1.109 2.443,1.145 0.541,0.036 2.077,0.312 3.24,0.678 1.171,0.369 2.785,0.328 5.004,1.025 1.167,0.365 2.537,-0.015 2.991,-1.733 0.452,-1.699 -0.328,-2.59 -1.808,-2.819 -1.479,-0.235 -2.964,0.177 -4.474,0.052 -1.505,-0.129 -3.026,-0.396 -4.209,-0.667 -1.353,-0.306 -2.129,0.047 -2.411,0.434 -0.698,0.968 -0.776,1.885 -0.776,1.885 z"
     id="path152" />
  <path
     style="fill:#231f20;fill-opacity:1;fill-rule:nonzero;stroke:none"
     d="m 301.3958,115.338 c 0.62,0.375 3.802,1.021 4.536,1.136 0.657,0.109 1.688,0.64 2.344,-0.319 0.261,-0.38 0.38,-1.129 0.344,-1.448 -0.026,-0.254 -0.318,-0.405 -0.719,-0.432 -0.661,-0.046 -0.869,0.203 -2.151,0.194 0,0 -0.302,0.041 -0.833,0.156 -1.599,0.322 -0.871,0.328 -3.287,0.286 -0.177,-0.005 -0.302,0.167 -0.297,0.287 0.016,0.176 0.063,0.14 0.063,0.14"
     id="path153" />
  <path
     style="fill:none;stroke:#231f20;stroke-width:0.565977;stroke-linecap:round;stroke-linejoin:round;stroke-miterlimit:4;stroke-dasharray:none;stroke-opacity:1"
     d="m 301.3958,115.338 c 0.62,0.375 3.802,1.021 4.536,1.136 0.657,0.109 1.688,0.64 2.344,-0.319 0.261,-0.38 0.38,-1.129 0.344,-1.448 -0.026,-0.254 -0.318,-0.405 -0.719,-0.432 -0.661,-0.046 -0.869,0.203 -2.151,0.194 0,0 -0.302,0.041 -0.833,0.156 -1.599,0.322 -0.871,0.328 -3.287,0.286 -0.177,-0.005 -0.302,0.167 -0.297,0.287 0.016,0.176 0.063,0.14 0.063,0.14 z"
     id="path154" />
  <path
     style="fill:#ffffff;fill-opacity:1;fill-rule:nonzero;stroke:none"
     d="m 322.9168,111.77 c -0.095,-0.224 -1.235,-0.072 -1.339,-0.588 -0.109,-0.511 0.599,-0.865 1.063,-2.797 l 0.005,-0.02 c 0.285,-1.428 1.115,-2.543 2.317,-2.896 1.99,-0.595 4.255,1.124 5.058,3.833 0.801,2.708 -0.162,5.38 -2.156,5.968 -1.907,0.568 -4.063,-0.989 -4.948,-3.5"
     id="path155" />
  <path
     style="fill:none;stroke:#231f20;stroke-width:0.565977;stroke-linecap:butt;stroke-linejoin:miter;stroke-miterlimit:4;stroke-dasharray:none;stroke-opacity:1"
     d="m 322.9168,111.77 c -0.095,-0.224 -1.235,-0.072 -1.339,-0.588 -0.109,-0.511 0.599,-0.865 1.063,-2.797 l 0.005,-0.02 c 0.285,-1.428 1.115,-2.543 2.317,-2.896 1.99,-0.595 4.255,1.124 5.058,3.833 0.801,2.708 -0.162,5.38 -2.156,5.968 -1.907,0.568 -4.063,-0.989 -4.948,-3.5 z"
     id="path156" />
  <path
     style="fill:#231f20;fill-opacity:1;fill-rule:nonzero;stroke:none"
     d="m 320.6458,153.098 c -3.756,-1.411 -0.761,-4.187 -0.595,-4.635 1.735,-4.698 1.98,-4.994 3.558,-8.474 2.276,-5.036 4.604,-8.135 7.922,-7.667 2.25,0.319 3.411,1.475 3.719,2.756 0.344,1.416 -0.423,4.505 -3.161,5.416 l -1.095,1.313 c -0.624,0.984 -0.943,1.468 -1.208,1.974 -0.468,0.885 -1.031,1.802 -2.041,3.478 -1.792,2.975 -4.667,5.527 -4.667,5.527 -0.667,1.052 -2.432,0.312 -2.432,0.312"
     id="path157" />
  <path
     style="fill:none;stroke:#231f20;stroke-width:0.565977;stroke-linecap:butt;stroke-linejoin:miter;stroke-miterlimit:4;stroke-dasharray:none;stroke-opacity:1"
     d="m 320.6458,153.098 c -3.756,-1.411 -0.761,-4.187 -0.595,-4.635 1.735,-4.698 1.98,-4.994 3.558,-8.474 2.276,-5.036 4.604,-8.135 7.922,-7.667 2.25,0.319 3.411,1.475 3.719,2.756 0.344,1.416 -0.423,4.505 -3.161,5.416 l -1.095,1.313 c -0.624,0.984 -0.943,1.468 -1.208,1.974 -0.468,0.885 -1.031,1.802 -2.041,3.478 -1.792,2.975 -4.667,5.527 -4.667,5.527 -0.667,1.052 -2.432,0.312 -2.432,0.312 z"
     id="path158" />
  <path
     style="fill:#0098c9;fill-opacity:1;fill-rule:nonzero;stroke:none"
     d="m 335.2498,135.078 c -0.308,-1.281 -1.469,-2.437 -3.719,-2.756 -1.458,-0.208 -2.729,0.303 -3.885,1.339 -0.907,0.505 -1.437,0.833 -1.547,1.63 -0.005,0.074 -0.032,0.151 -0.053,0.23 -0.333,0.478 -0.661,0.989 -0.984,1.562 l 7.027,3.411 c 2.744,-0.911 3.505,-4 3.161,-5.416"
     id="path159" />
  <path
     style="fill:none;stroke:#231f20;stroke-width:0.565977;stroke-linecap:butt;stroke-linejoin:miter;stroke-miterlimit:4;stroke-dasharray:none;stroke-opacity:1"
     d="m 335.2498,135.078 c -0.308,-1.281 -1.469,-2.437 -3.719,-2.756 -1.458,-0.208 -2.729,0.303 -3.885,1.339 -0.907,0.505 -1.437,0.833 -1.547,1.63 -0.005,0.074 -0.032,0.151 -0.053,0.23 -0.333,0.478 -0.661,0.989 -0.984,1.562 l 7.027,3.411 c 2.744,-0.911 3.505,-4 3.161,-5.416 z"
     id="path160" />
  <path
     style="fill:none;stroke:#231f20;stroke-width:1.33171;stroke-linecap:round;stroke-linejoin:round;stroke-miterlimit:4;stroke-dasharray:none;stroke-opacity:1"
     d="m 89.4328,137.411 c -6.974,-4.969 -15.021,-0.562 -19.4852,3.146 -9.5623,7.942 -18.8436,9.166 -19.9264,5.896 -1.0839,-3.271 5.0734,-7.282 5.0734,-7.282"
     id="path1230" />
</svg>
