<?xml version="1.0" encoding="UTF-8" standalone="no"?>
<!-- Created with Inkscape (http://www.inkscape.org/) -->

<svg
   version="1.1"
   id="svg1"
   width="44.981991"
   height="21.237711"
   viewBox="0 0 44.981989 21.237711"
   sodipodi:docname="cell.svg"
   xmlns:inkscape="http://www.inkscape.org/namespaces/inkscape"
   xmlns:sodipodi="http://sodipodi.sourceforge.net/DTD/sodipodi-0.dtd"
   xmlns="http://www.w3.org/2000/svg"
   xmlns:svg="http://www.w3.org/2000/svg">
  <sodipodi:namedview
     id="namedview1"
     pagecolor="#ffffff"
     bordercolor="#000000"
     borderopacity="0.25"
     inkscape:showpageshadow="2"
     inkscape:pageopacity="0.0"
     inkscape:pagecheckerboard="0"
     inkscape:deskcolor="#d1d1d1">
    <inkscape:page
       x="2.8185991e-06"
       y="4.2665036e-07"
       inkscape:label="1"
       id="page1"
       width="44.981991"
       height="21.237711"
       margin="0"
       bleed="0" />
  </sodipodi:namedview>
  <defs
     id="defs1" />
  <path
     style="fill:none;stroke:#231f20;stroke-width:1.33171;stroke-linecap:round;stroke-linejoin:round;stroke-miterlimit:4;stroke-dasharray:none;stroke-opacity:1"
     d="m 10.50587,11.107853 c 0,-2.6770004 2.17,-4.8490004 4.85,-4.8490004 2.68,0 4.85,2.172 4.85,4.8490004 0,2.683 -2.17,4.855 -4.85,4.855 -2.68,0 -4.85,-2.172 -4.85,-4.855 z"
     id="path1589" />
  <path
     style="fill:none;stroke:#231f20;stroke-width:1.33171;stroke-linecap:round;stroke-linejoin:round;stroke-miterlimit:4;stroke-dasharray:none;stroke-opacity:1"
     d="M 10.45587,11.066853 H 0.66586998"
     id="path1590" />
  <path
     style="fill:none;stroke:#231f20;stroke-width:1.33171;stroke-linecap:round;stroke-linejoin:round;stroke-miterlimit:4;stroke-dasharray:none;stroke-opacity:1"
     d="m 21.55587,20.571853 10.12,-16.0520004"
     id="path1591" />
  <path
     style="fill:#231f20;fill-opacity:1;fill-rule:nonzero;stroke:none"
     d="m 33.81587,1.1238526 c -0.41,1.973 -0.65,4.599 -0.36,6.5 l -2.07,-2.656 -3.29,-0.719 c 1.85,-0.553 4.12,-1.901 5.72,-3.125"
     id="path1592" />
  <path
     style="fill:none;stroke:#231f20;stroke-width:1.33171;stroke-linecap:round;stroke-linejoin:round;stroke-miterlimit:4;stroke-dasharray:none;stroke-opacity:1"
     d="m 41.73587,0.66585262 c -5.64,1.40599998 -7.46,5.71299998 -3.53,8.51499998 1.3,0.9270004 3.65,1.3910004 5.37,0.771 1.63,-0.593 0.31,-2.032 -1.4,-2.323 -1.41,-0.24 -2.83,0.015 -3.85,0.692 -1.73,1.151 -2.06,2.6990004 -2.08,3.9860004 -0.05,2.134 1.87,5.328 6.55,5.462"
     id="path1593" />
</svg>
