<?xml version="1.0" encoding="UTF-8" standalone="no"?>
<!-- Created with Inkscape (http://www.inkscape.org/) -->

<svg
   version="1.1"
   id="svg1"
   width="38.246456"
   height="29.644855"
   viewBox="0 0 38.246454 29.644855"
   sodipodi:docname="cell.svg"
   xmlns:inkscape="http://www.inkscape.org/namespaces/inkscape"
   xmlns:sodipodi="http://sodipodi.sourceforge.net/DTD/sodipodi-0.dtd"
   xmlns="http://www.w3.org/2000/svg"
   xmlns:svg="http://www.w3.org/2000/svg">
  <sodipodi:namedview
     id="namedview1"
     pagecolor="#ffffff"
     bordercolor="#000000"
     borderopacity="0.25"
     inkscape:showpageshadow="2"
     inkscape:pageopacity="0.0"
     inkscape:pagecheckerboard="0"
     inkscape:deskcolor="#d1d1d1">
    <inkscape:page
       x="4.9073381e-09"
       y="1.6814113e-07"
       inkscape:label="1"
       id="page1"
       width="38.246452"
       height="29.644855"
       margin="0"
       bleed="0" />
  </sodipodi:namedview>
  <defs
     id="defs1" />
  <path
     style="fill:#231f20;fill-opacity:1;fill-rule:nonzero;stroke:none"
     d="m 22.224,2.8119997 c 0.505,0 0.796,-0.473 0.796,-1.118 0,-0.595 -0.282,-1.10600003 -0.796,-1.10600003 -0.511,0 -0.803,0.50200003 -0.803,1.12000003 0,0.62 0.297,1.104 0.797,1.104 z m -0.032,0.595 c -0.979,0 -1.552,-0.74 -1.552,-1.677 0,-0.99500003 0.636,-1.73000003088167 1.604,-1.73000003088167 1.016,0 1.568,0.75600000088167 1.568,1.66700003088167 0,1.089 -0.651,1.74 -1.615,1.74 z"
     id="path1207" />
  <path
     style="fill:#231f20;fill-opacity:1;fill-rule:nonzero;stroke:none"
     d="M 25.052,0.05199967 V 1.9479997 c 0,0.574 0.218,0.86 0.598,0.86 0.391,0 0.604,-0.276 0.604,-0.86 V 0.05199967 H 27 V 1.9019997 c 0,1.02 -0.516,1.505 -1.376,1.505 -0.834,0 -1.318,-0.464 -1.318,-1.511 V 0.05199967 Z"
     id="path1208" />
  <path
     style="fill:none;stroke:#231f20;stroke-width:1.33171;stroke-linecap:round;stroke-linejoin:round;stroke-miterlimit:4;stroke-dasharray:none;stroke-opacity:1"
     d="M 15.5,4.0319997 V 28.979"
     id="path1209" />
  <path
     style="fill:none;stroke:#231f20;stroke-width:1.33171;stroke-linecap:round;stroke-linejoin:round;stroke-miterlimit:4;stroke-dasharray:none;stroke-opacity:1"
     d="m 22.374,16.922 c 0,1.89 -1.532,3.422 -3.421,3.422 -1.891,0 -3.428,-1.532 -3.428,-3.422 0,-1.89 1.537,-3.422 3.428,-3.422 1.889,0 3.421,1.532 3.421,3.422 z"
     id="path1210" />
  <path
     style="fill:none;stroke:#231f20;stroke-width:1.33171;stroke-linecap:round;stroke-linejoin:round;stroke-miterlimit:4;stroke-dasharray:none;stroke-opacity:1"
     d="m 34.609,6.3179997 c -6.505,1.62 -8.604,6.5780003 -4.073,9.8130003 1.5,1.068 4.202,1.609 6.188,0.891 1.885,-0.683 0.358,-2.344 -1.61,-2.678 -1.625,-0.281 -3.266,0.016 -4.437,0.798 -2,1.333 -2.371,3.109 -2.407,4.593 -0.057,2.464 2.162,6.14 7.558,6.297"
     id="path1211" />
  <path
     style="fill:none;stroke:#231f20;stroke-width:1.33171;stroke-linecap:round;stroke-linejoin:round;stroke-miterlimit:4;stroke-dasharray:none;stroke-opacity:1"
     d="m 28.91,26.427 6.162,-5.312"
     id="path1212" />
  <path
     style="fill:#231f20;fill-opacity:1;fill-rule:nonzero;stroke:none"
     d="M 6.468808e-8,6.7659997 H 10.634 v 2.141 H 2.5770001 V 15.47 H 10.02 v 2.109 H 2.5770001 v 8.937 H 6.4688081e-8 Z"
     id="path1213" />
</svg>
