<?xml version="1.0" encoding="UTF-8" standalone="no"?>
<!-- Created with Inkscape (http://www.inkscape.org/) -->

<svg
   version="1.1"
   id="svg1"
   width="45.34362"
   height="29.331638"
   viewBox="0 0 45.343619 29.331638"
   sodipodi:docname="cell.svg"
   xmlns:inkscape="http://www.inkscape.org/namespaces/inkscape"
   xmlns:sodipodi="http://sodipodi.sourceforge.net/DTD/sodipodi-0.dtd"
   xmlns="http://www.w3.org/2000/svg"
   xmlns:svg="http://www.w3.org/2000/svg">
  <sodipodi:namedview
     id="namedview1"
     pagecolor="#ffffff"
     bordercolor="#000000"
     borderopacity="0.25"
     inkscape:showpageshadow="2"
     inkscape:pageopacity="0.0"
     inkscape:pagecheckerboard="0"
     inkscape:deskcolor="#d1d1d1">
    <inkscape:page
       x="0"
       y="0"
       inkscape:label="1"
       id="page1"
       width="45.34362"
       height="29.331638"
       margin="0"
       bleed="0" />
  </sodipodi:namedview>
  <defs
     id="defs1" />
  <path
     style="fill:none;stroke:#231f20;stroke-width:1.33171;stroke-linecap:round;stroke-linejoin:round;stroke-miterlimit:4;stroke-dasharray:none;stroke-opacity:1"
     d="m 15.817759,7.0157866 3.422,-6.35 3.557,6.396"
     id="path1818" />
  <path
     style="fill:none;stroke:#231f20;stroke-width:1.33171;stroke-linecap:round;stroke-linejoin:round;stroke-miterlimit:4;stroke-dasharray:none;stroke-opacity:1"
     d="M 12.911759,4.3597866 V 27.822787 L 0.6657589,15.790787 H 17.583759"
     id="path1819" />
  <path
     style="fill:none;stroke:#231f20;stroke-width:1.33171;stroke-linecap:round;stroke-linejoin:round;stroke-miterlimit:4;stroke-dasharray:none;stroke-opacity:1"
     d="m 42.004759,8.2657866 c -5.853,1.457 -7.744,5.9270004 -3.667,8.8330004 1.35,0.963 3.787,1.448 5.568,0.802 1.699,-0.615 0.323,-2.11 -1.448,-2.411 -1.462,-0.251 -2.937,0.015 -3.994,0.719 -1.798,1.197 -2.131,2.796 -2.162,4.134 -0.052,2.219 1.938,5.527 6.803,5.667"
     id="path1820" />
  <path
     style="fill:none;stroke:#231f20;stroke-width:1.33171;stroke-linecap:round;stroke-linejoin:round;stroke-miterlimit:4;stroke-dasharray:none;stroke-opacity:1"
     d="m 33.593759,21.400787 7.312,0.354"
     id="path1821" />
  <path
     style="fill:none;stroke:#231f20;stroke-width:1.33171;stroke-linecap:round;stroke-linejoin:round;stroke-miterlimit:4;stroke-dasharray:none;stroke-opacity:1"
     d="M 26.217759,6.2137866 V 28.665787"
     id="path1822" />
  <path
     style="fill:none;stroke:#231f20;stroke-width:1.33171;stroke-linecap:round;stroke-linejoin:round;stroke-miterlimit:4;stroke-dasharray:none;stroke-opacity:1"
     d="m 32.405759,17.812787 c 0,1.697 -1.38,3.077 -3.082,3.077 -1.699,0 -3.079,-1.38 -3.079,-3.077 0,-1.704 1.38,-3.084 3.079,-3.084 1.702,0 3.082,1.38 3.082,3.084 z"
     id="path1823" />
</svg>
