<?xml version="1.0" encoding="UTF-8" standalone="no"?>
<!-- Created with Inkscape (http://www.inkscape.org/) -->

<svg
   version="1.1"
   id="svg1"
   width="298.51538"
   height="140.15018"
   viewBox="0 0 298.51537 140.15018"
   sodipodi:docname="cell.svg"
   xmlns:inkscape="http://www.inkscape.org/namespaces/inkscape"
   xmlns:sodipodi="http://sodipodi.sourceforge.net/DTD/sodipodi-0.dtd"
   xmlns="http://www.w3.org/2000/svg"
   xmlns:svg="http://www.w3.org/2000/svg">
  <sodipodi:namedview
     id="namedview1"
     pagecolor="#ffffff"
     bordercolor="#000000"
     borderopacity="0.25"
     inkscape:showpageshadow="2"
     inkscape:pageopacity="0.0"
     inkscape:pagecheckerboard="0"
     inkscape:deskcolor="#d1d1d1">
    <inkscape:page
       x="0"
       y="0"
       inkscape:label="1"
       id="page1"
       width="298.51538"
       height="140.15018"
       margin="0"
       bleed="0" />
  </sodipodi:namedview>
  <defs
     id="defs1" />
  <path
     style="fill:#ffffff;fill-opacity:1;fill-rule:nonzero;stroke:none"
     d="m 104.1464,18.875 h 18.875 V 0 h -18.875 z"
     id="path196" />
  <path
     style="fill:#ffffff;fill-opacity:1;fill-rule:nonzero;stroke:none"
     d="m 281.5884,18.875 h 16.927 V 0 h -16.927 z"
     id="path198" />
  <path
     style="fill:#231f20;fill-opacity:1;fill-rule:nonzero;stroke:none"
     d="m 155.9784,93.47 c 0.802,-1.089 1.761,-0.823 2.344,0.031 0.177,0.25 0.594,0.292 0.74,0.552 0.349,0.614 -0.172,2.276 -1.667,2.198 -0.104,-0.005 -0.896,0.198 -1.516,0.26 -1.208,0.115 -3.677,-0.234 -5.276,-2.406 -0.76,-1.026 -0.011,-1.286 0.417,-0.963 1.37,1.02 1.692,0.848 2.151,0.979 1.552,0.478 2.807,-0.651 2.807,-0.651"
     id="path199" />
  <path
     style="fill:none;stroke:#231f20;stroke-width:0.332927;stroke-linecap:butt;stroke-linejoin:miter;stroke-miterlimit:4;stroke-dasharray:none;stroke-opacity:1"
     d="m 155.9784,93.47 c 0.802,-1.089 1.761,-0.823 2.344,0.031 0.177,0.25 0.594,0.292 0.74,0.552 0.349,0.614 -0.172,2.276 -1.667,2.198 -0.104,-0.005 -0.896,0.198 -1.516,0.26 -1.208,0.115 -3.677,-0.234 -5.276,-2.406 -0.76,-1.026 -0.011,-1.286 0.417,-0.963 1.37,1.02 1.692,0.848 2.151,0.979 1.552,0.478 2.807,-0.651 2.807,-0.651 z"
     id="path200" />
  <path
     style="fill:#231f20;fill-opacity:1;fill-rule:nonzero;stroke:none"
     d="m 174.6874,94.751 c 0.255,-2.25 0,-2.724 -0.943,-2.89 -0.63,-0.115 -1.172,-0.438 -1.552,-0.527 -1.266,-0.287 -3.51,-0.255 -9.849,1.5 -1.443,0.401 -3.464,0.948 -4.312,1.099 -1.333,0.25 -0.021,2.297 0.504,2.209 1.693,-0.297 2.871,-0.365 3.5,-0.385 0.423,-0.016 1.177,-0.147 2.833,0.005 2.522,0.233 3.991,0.749 6.106,0.692 0.984,-0.016 1.733,0.589 2.686,0.068 0.959,-0.505 1.027,-1.771 1.027,-1.771"
     id="path201" />
  <path
     style="fill:none;stroke:#231f20;stroke-width:0.565977;stroke-linecap:butt;stroke-linejoin:miter;stroke-miterlimit:4;stroke-dasharray:none;stroke-opacity:1"
     d="m 174.6874,94.751 c 0.255,-2.25 0,-2.724 -0.943,-2.89 -0.63,-0.115 -1.172,-0.438 -1.552,-0.527 -1.266,-0.287 -3.51,-0.255 -9.849,1.5 -1.443,0.401 -3.464,0.948 -4.312,1.099 -1.333,0.25 -0.021,2.297 0.504,2.209 1.693,-0.297 2.871,-0.365 3.5,-0.385 0.423,-0.016 1.177,-0.147 2.833,0.005 2.522,0.233 3.991,0.749 6.106,0.692 0.984,-0.016 1.733,0.589 2.686,0.068 0.959,-0.505 1.027,-1.771 1.027,-1.771 z"
     id="path202" />
  <path
     style="fill:#0098c9;fill-opacity:1;fill-rule:nonzero;stroke:none"
     d="m 201.0404,92.766 c -3.098,-0.432 -3.718,-0.859 -4.509,-1.337 -4.953,-2.98 -6.324,-0.491 -6.193,2.39 0.141,3.39 0.13,4.604 6.417,4.88 1.749,0.067 8.421,1.229 8.421,1.229 2.334,0.739 5.006,0.214 5.984,-0.865 1.027,-1.14 0.538,-0.76 1.292,-1.989 0.724,-1.172 0.771,-3.36 -0.15,-4.177 -0.891,-0.792 -2.48,-0.287 -4.866,0.146 -1.88,0.338 -6.396,-0.277 -6.396,-0.277"
     id="path203" />
  <path
     style="fill:none;stroke:#231f20;stroke-width:0.565977;stroke-linecap:butt;stroke-linejoin:miter;stroke-miterlimit:4;stroke-dasharray:none;stroke-opacity:1"
     d="m 201.0404,92.766 c -3.098,-0.432 -3.718,-0.859 -4.509,-1.337 -4.953,-2.98 -6.324,-0.491 -6.193,2.39 0.141,3.39 0.13,4.604 6.417,4.88 1.749,0.067 8.421,1.229 8.421,1.229 2.334,0.739 5.006,0.214 5.984,-0.865 1.027,-1.14 0.538,-0.76 1.292,-1.989 0.724,-1.172 0.771,-3.36 -0.15,-4.177 -0.891,-0.792 -2.48,-0.287 -4.866,0.146 -1.88,0.338 -6.396,-0.277 -6.396,-0.277 z"
     id="path204" />
  <path
     style="fill:#ffffff;fill-opacity:1;fill-rule:nonzero;stroke:none"
     d="m 219.7394,97.397 c 0.235,-0.068 0.817,0.922 1.292,0.688 0.468,-0.235 0.307,-1.006 1.536,-2.568 l 0.011,-0.016 c 0.937,-1.115 1.296,-2.458 0.833,-3.62 -0.776,-1.927 -3.527,-2.635 -6.147,-1.583 -2.624,1.052 -4.118,3.468 -3.342,5.396 0.733,1.844 3.296,2.572 5.817,1.703"
     id="path205" />
  <path
     style="fill:none;stroke:#231f20;stroke-width:0.565977;stroke-linecap:butt;stroke-linejoin:miter;stroke-miterlimit:4;stroke-dasharray:none;stroke-opacity:1"
     d="m 219.7394,97.397 c 0.235,-0.068 0.817,0.922 1.292,0.688 0.468,-0.235 0.307,-1.006 1.536,-2.568 l 0.011,-0.016 c 0.937,-1.115 1.296,-2.458 0.833,-3.62 -0.776,-1.927 -3.527,-2.635 -6.147,-1.583 -2.624,1.052 -4.118,3.468 -3.342,5.396 0.733,1.844 3.296,2.572 5.817,1.703 z"
     id="path206" />
  <path
     style="fill:#231f20;fill-opacity:1;fill-rule:nonzero;stroke:none"
     d="m 172.3594,93.923 c -0.787,3.927 3.151,2.854 3.619,2.948 4.906,1 5.286,0.952 9.073,1.458 5.484,0.724 9.349,0.381 10.704,-2.687 0.911,-2.073 0.541,-3.677 -0.376,-4.615 -1.025,-1.037 -4.052,-2.016 -6.276,-0.172 l -1.692,0.235 c -1.161,0.015 -1.735,0.031 -2.313,-0.016 -1,-0.068 -2.072,-0.084 -4.031,-0.104 -3.475,-0.041 -7.156,1.047 -7.156,1.047 -1.245,0.01 -1.552,1.906 -1.552,1.906"
     id="path207" />
  <path
     style="fill:none;stroke:#231f20;stroke-width:0.565977;stroke-linecap:butt;stroke-linejoin:miter;stroke-miterlimit:4;stroke-dasharray:none;stroke-opacity:1"
     d="m 172.3594,93.923 c -0.787,3.927 3.151,2.854 3.619,2.948 4.906,1 5.286,0.952 9.073,1.458 5.484,0.724 9.349,0.381 10.704,-2.687 0.911,-2.073 0.541,-3.677 -0.376,-4.615 -1.025,-1.037 -4.052,-2.016 -6.276,-0.172 l -1.692,0.235 c -1.161,0.015 -1.735,0.031 -2.313,-0.016 -1,-0.068 -2.072,-0.084 -4.031,-0.104 -3.475,-0.041 -7.156,1.047 -7.156,1.047 -1.245,0.01 -1.552,1.906 -1.552,1.906 z"
     id="path208" />
  <path
     style="fill:#0098c9;fill-opacity:1;fill-rule:nonzero;stroke:none"
     d="m 196.0784,95.074 c 0.557,-2.203 -0.079,-3.713 -1.142,-4.484 -1.181,-0.855 -4.333,-1.324 -6.213,0.869 l 0.489,7.798 c 0.652,-0.084 1.251,-0.194 1.823,-0.324 0.079,0.01 0.157,0.021 0.229,0.037 0.782,0.208 1.292,-0.161 2.11,-0.817 1.396,-0.672 2.338,-1.652 2.704,-3.079"
     id="path209" />
  <path
     style="fill:none;stroke:#231f20;stroke-width:0.565977;stroke-linecap:butt;stroke-linejoin:miter;stroke-miterlimit:4;stroke-dasharray:none;stroke-opacity:1"
     d="m 196.0784,95.074 c 0.557,-2.203 -0.079,-3.713 -1.142,-4.484 -1.181,-0.855 -4.333,-1.324 -6.213,0.869 l 0.489,7.798 c 0.652,-0.084 1.251,-0.194 1.823,-0.324 0.079,0.01 0.157,0.021 0.229,0.037 0.782,0.208 1.292,-0.161 2.11,-0.817 1.396,-0.672 2.338,-1.652 2.704,-3.079 z"
     id="path210" />
  <path
     style="fill:#231f20;fill-opacity:1;fill-rule:nonzero;stroke:none"
     d="m 228.1824,104.292 c -0.636,0.11 -2.298,-0.906 -3.886,-1.15 -1.073,-0.167 -3.374,-1.656 -4.458,-1.74 -0.99,-0.079 -1.438,-0.208 -1.542,-1.355 -0.062,-0.681 0.26,-2.03 0.76,-2.098 1.183,-0.167 2.099,0.084 3.047,0.568 1.079,0.562 3.88,2.327 4.371,2.702 1.202,0.933 1.937,0.923 2.281,1.141 0.645,0.406 0.645,0.75 0.473,1.23 -0.328,0.896 -1.046,0.702 -1.046,0.702"
     id="path211" />
  <path
     style="fill:none;stroke:#231f20;stroke-width:0.565977;stroke-linecap:butt;stroke-linejoin:miter;stroke-miterlimit:4;stroke-dasharray:none;stroke-opacity:1"
     d="m 228.1824,104.292 c -0.636,0.11 -2.298,-0.906 -3.886,-1.15 -1.073,-0.167 -3.374,-1.656 -4.458,-1.74 -0.99,-0.079 -1.438,-0.208 -1.542,-1.355 -0.062,-0.681 0.26,-2.03 0.76,-2.098 1.183,-0.167 2.099,0.084 3.047,0.568 1.079,0.562 3.88,2.327 4.371,2.702 1.202,0.933 1.937,0.923 2.281,1.141 0.645,0.406 0.645,0.75 0.473,1.23 -0.328,0.896 -1.046,0.702 -1.046,0.702 z"
     id="path212" />
  <path
     style="fill:#231f20;fill-opacity:1;fill-rule:nonzero;stroke:none"
     d="m 219.8544,100.73 c -0.636,1.125 -2.199,-0.188 -2.656,-0.464 -0.47,-0.286 -1.876,-0.937 -3.043,-1.301 -1.172,-0.37 -2.468,-1.328 -4.687,-2.032 -1.166,-0.37 -2.068,-1.468 -1.458,-3.135 0.604,-1.651 1.754,-1.932 3.098,-1.271 1.344,0.656 2.328,1.844 3.636,2.604 1.307,0.76 2.708,1.416 3.834,1.875 1.281,0.521 1.718,1.256 1.724,1.735 0.014,1.197 -0.448,1.989 -0.448,1.989"
     id="path213" />
  <path
     style="fill:none;stroke:#231f20;stroke-width:0.565977;stroke-linecap:butt;stroke-linejoin:miter;stroke-miterlimit:4;stroke-dasharray:none;stroke-opacity:1"
     d="m 219.8544,100.73 c -0.636,1.125 -2.199,-0.188 -2.656,-0.464 -0.47,-0.286 -1.876,-0.937 -3.043,-1.301 -1.172,-0.37 -2.468,-1.328 -4.687,-2.032 -1.166,-0.37 -2.068,-1.468 -1.458,-3.135 0.604,-1.651 1.754,-1.932 3.098,-1.271 1.344,0.656 2.328,1.844 3.636,2.604 1.307,0.76 2.708,1.416 3.834,1.875 1.281,0.521 1.718,1.256 1.724,1.735 0.014,1.197 -0.448,1.989 -0.448,1.989 z"
     id="path214" />
  <path
     style="fill:#ffffff;fill-opacity:1;fill-rule:nonzero;stroke:none"
     d="m 229.8684,102.636 c 0.98,-0.317 2.027,0.224 2.339,1.203 0.313,0.975 -0.224,2.027 -1.203,2.339 -0.978,0.312 -2.026,-0.23 -2.338,-1.203 -0.318,-0.98 0.224,-2.027 1.202,-2.339"
     id="path215" />
  <path
     style="fill:none;stroke:#231f20;stroke-width:1.33171;stroke-linecap:butt;stroke-linejoin:miter;stroke-miterlimit:4;stroke-dasharray:none;stroke-opacity:1"
     d="m 229.8684,102.636 c 0.98,-0.317 2.027,0.224 2.339,1.203 0.313,0.975 -0.224,2.027 -1.203,2.339 -0.978,0.312 -2.026,-0.23 -2.338,-1.203 -0.318,-0.98 0.224,-2.027 1.202,-2.339 z"
     id="path216" />
  <path
     style="fill:#231f20;fill-opacity:1;fill-rule:nonzero;stroke:none"
     d="m 71.015401,50.719 c 1.282,-0.426 1.911,0.344 1.896,1.376 0,0.312 0.312,0.583 0.287,0.88 -0.073,0.703 -1.459,1.76 -2.636,0.834 -0.079,-0.063 -0.844,-0.36 -1.385,-0.667 -1.052,-0.604 -2.866,-2.319 -2.918,-5.016 -0.025,-1.276 0.735,-1.052 0.902,-0.541 0.526,1.624 0.89,1.666 1.182,2.041 1,1.287 2.672,1.093 2.672,1.093"
     id="path217" />
  <path
     style="fill:none;stroke:#231f20;stroke-width:0.332927;stroke-linecap:butt;stroke-linejoin:miter;stroke-miterlimit:4;stroke-dasharray:none;stroke-opacity:1"
     d="m 71.015401,50.719 c 1.282,-0.426 1.911,0.344 1.896,1.376 0,0.312 0.312,0.583 0.287,0.88 -0.073,0.703 -1.459,1.76 -2.636,0.834 -0.079,-0.063 -0.844,-0.36 -1.385,-0.667 -1.052,-0.604 -2.866,-2.319 -2.918,-5.016 -0.025,-1.276 0.735,-1.052 0.902,-0.541 0.526,1.624 0.89,1.666 1.182,2.041 1,1.287 2.672,1.093 2.672,1.093 z"
     id="path218" />
  <path
     style="fill:#231f20;fill-opacity:1;fill-rule:nonzero;stroke:none"
     d="m 85.541401,62.579 c 1.505,-1.693 1.573,-2.218 0.901,-2.906 -0.448,-0.454 -0.708,-1.031 -0.963,-1.323 -0.865,-0.969 -2.72,-2.24 -8.906,-4.475 -1.407,-0.504 -3.375,-1.228 -4.151,-1.593 -1.235,-0.563 -1.344,1.865 -0.865,2.095 1.552,0.738 2.552,1.364 3.078,1.708 0.359,0.229 1.042,0.562 2.307,1.645 1.923,1.647 2.823,2.917 4.579,4.093 0.817,0.554 1.077,1.486 2.156,1.61 1.078,0.141 1.864,-0.854 1.864,-0.854"
     id="path219" />
  <path
     style="fill:none;stroke:#231f20;stroke-width:0.565977;stroke-linecap:butt;stroke-linejoin:miter;stroke-miterlimit:4;stroke-dasharray:none;stroke-opacity:1"
     d="m 85.541401,62.579 c 1.505,-1.693 1.573,-2.218 0.901,-2.906 -0.448,-0.454 -0.708,-1.031 -0.963,-1.323 -0.865,-0.969 -2.72,-2.24 -8.906,-4.475 -1.407,-0.504 -3.375,-1.228 -4.151,-1.593 -1.235,-0.563 -1.344,1.865 -0.865,2.095 1.552,0.738 2.552,1.364 3.078,1.708 0.359,0.229 1.042,0.562 2.307,1.645 1.923,1.647 2.823,2.917 4.579,4.093 0.817,0.554 1.077,1.486 2.156,1.61 1.078,0.141 1.864,-0.854 1.864,-0.854 z"
     id="path220" />
  <path
     style="fill:#0098c9;fill-opacity:1;fill-rule:nonzero;stroke:none"
     d="m 108.4014,74.673 c -2.588,-1.76 -2.959,-2.416 -3.454,-3.198 -3.12,-4.865 -5.452999,-3.24 -6.613999,-0.6 -1.37,3.1 -1.922,4.183 3.597999,7.215 1.538,0.839 7,4.839 7,4.839 1.767,1.692 4.391,2.405 5.746,1.869 1.426,-0.563 0.822,-0.443 2.046,-1.213 1.167,-0.724 2.177,-2.667 1.713,-3.808 -0.447,-1.104 -2.093,-1.354 -4.426,-2.02 -1.833,-0.532 -5.609,-3.084 -5.609,-3.084"
     id="path221" />
  <path
     style="fill:none;stroke:#231f20;stroke-width:0.565977;stroke-linecap:butt;stroke-linejoin:miter;stroke-miterlimit:4;stroke-dasharray:none;stroke-opacity:1"
     d="m 108.4014,74.673 c -2.588,-1.76 -2.959,-2.416 -3.454,-3.198 -3.12,-4.865 -5.452999,-3.24 -6.613999,-0.6 -1.37,3.1 -1.922,4.183 3.597999,7.215 1.538,0.839 7,4.839 7,4.839 1.767,1.692 4.391,2.405 5.746,1.869 1.426,-0.563 0.822,-0.443 2.046,-1.213 1.167,-0.724 2.177,-2.667 1.713,-3.808 -0.447,-1.104 -2.093,-1.354 -4.426,-2.02 -1.833,-0.532 -5.609,-3.084 -5.609,-3.084 z"
     id="path222" />
  <path
     style="fill:#ffffff;fill-opacity:1;fill-rule:nonzero;stroke:none"
     d="m 121.4584,88.377 c 0.208,0.118 -0.094,1.233 0.401,1.405 0.495,0.177 0.937,-0.473 2.916,-0.677 h 0.021 c 1.454,-0.099 2.667,-0.766 3.182,-1.916 0.849,-1.891 -0.552,-4.366 -3.124,-5.527 -2.579,-1.156 -5.355,-0.552 -6.21,1.344 -0.811,1.808 0.439,4.156 2.814,5.371"
     id="path223" />
  <path
     style="fill:none;stroke:#231f20;stroke-width:0.565977;stroke-linecap:butt;stroke-linejoin:miter;stroke-miterlimit:4;stroke-dasharray:none;stroke-opacity:1"
     d="m 121.4584,88.377 c 0.208,0.118 -0.094,1.233 0.401,1.405 0.495,0.177 0.937,-0.473 2.916,-0.677 h 0.021 c 1.454,-0.099 2.667,-0.766 3.182,-1.916 0.849,-1.891 -0.552,-4.366 -3.124,-5.527 -2.579,-1.156 -5.355,-0.552 -6.21,1.344 -0.811,1.808 0.439,4.156 2.814,5.371 z"
     id="path224" />
  <path
     style="fill:#231f20;fill-opacity:1;fill-rule:nonzero;stroke:none"
     d="m 84.125401,60.558 c -2.918,2.751 0.91,4.152 1.244,4.5 3.422,3.656 3.761,3.828 6.557,6.432 4.052,3.761 7.407,5.715 10.286999,4 1.942,-1.167 2.568,-2.687 2.36,-3.984 -0.235,-1.437 -2.136,-3.989 -5.015999,-3.765 l -1.522,-0.792 c -0.957,-0.656 -1.432,-0.979 -1.88,-1.35 -0.776,-0.629 -1.64,-1.265 -3.229,-2.416 -2.807,-2.041 -6.443,-3.281 -6.443,-3.281 -1.02,-0.713 -2.358,0.656 -2.358,0.656"
     id="path225" />
  <path
     style="fill:none;stroke:#231f20;stroke-width:0.565977;stroke-linecap:butt;stroke-linejoin:miter;stroke-miterlimit:4;stroke-dasharray:none;stroke-opacity:1"
     d="m 84.125401,60.558 c -2.918,2.751 0.91,4.152 1.244,4.5 3.422,3.656 3.761,3.828 6.557,6.432 4.052,3.761 7.407,5.715 10.286999,4 1.942,-1.167 2.568,-2.687 2.36,-3.984 -0.235,-1.437 -2.136,-3.989 -5.015999,-3.765 l -1.522,-0.792 c -0.957,-0.656 -1.432,-0.979 -1.88,-1.35 -0.776,-0.629 -1.64,-1.265 -3.229,-2.416 -2.807,-2.041 -6.443,-3.281 -6.443,-3.281 -1.02,-0.713 -2.358,0.656 -2.358,0.656 z"
     id="path226" />
  <path
     style="fill:#0098c9;fill-opacity:1;fill-rule:nonzero;stroke:none"
     d="m 102.8024,75.209 c 1.733,-1.474 2.088,-3.072 1.661,-4.318 -0.464,-1.38 -2.765,-3.582 -5.567999,-2.885 l -4.109,6.651 c 0.579,0.308 1.131,0.562 1.672,0.792 0.057,0.052 0.12,0.104 0.167,0.156 0.516,0.625 1.15,0.614 2.192,0.557 1.525999,0.256 2.864999,0.005 3.984999,-0.953"
     id="path227" />
  <path
     style="fill:none;stroke:#231f20;stroke-width:0.565977;stroke-linecap:butt;stroke-linejoin:miter;stroke-miterlimit:4;stroke-dasharray:none;stroke-opacity:1"
     d="m 102.8024,75.209 c 1.733,-1.474 2.088,-3.072 1.661,-4.318 -0.464,-1.38 -2.765,-3.582 -5.567999,-2.885 l -4.109,6.651 c 0.579,0.308 1.131,0.562 1.672,0.792 0.057,0.052 0.12,0.104 0.167,0.156 0.516,0.625 1.15,0.614 2.192,0.557 1.525999,0.256 2.864999,0.005 3.984999,-0.953 z"
     id="path228" />
  <path
     style="fill:#231f20;fill-opacity:1;fill-rule:nonzero;stroke:none"
     d="m 113.9584,102.432 c -0.375,-0.52 -0.188,-2.462 -0.656,-3.999 -0.319,-1.036 0.02,-3.76 -0.371,-4.771 -0.358,-0.927 -0.437,-1.385 0.552,-1.979 0.584,-0.349 1.939,-0.645 2.219,-0.224 0.663,0.995 0.833,1.922 0.808,2.99 -0.031,1.218 -0.407,4.505 -0.527,5.104 -0.322,1.494 0.011,2.151 -0.036,2.557 -0.088,0.756 -0.396,0.906 -0.901,0.958 -0.953,0.099 -1.088,-0.636 -1.088,-0.636"
     id="path229" />
  <path
     style="fill:none;stroke:#231f20;stroke-width:0.565977;stroke-linecap:butt;stroke-linejoin:miter;stroke-miterlimit:4;stroke-dasharray:none;stroke-opacity:1"
     d="m 113.9584,102.432 c -0.375,-0.52 -0.188,-2.462 -0.656,-3.999 -0.319,-1.036 0.02,-3.76 -0.371,-4.771 -0.358,-0.927 -0.437,-1.385 0.552,-1.979 0.584,-0.349 1.939,-0.645 2.219,-0.224 0.663,0.995 0.833,1.922 0.808,2.99 -0.031,1.218 -0.407,4.505 -0.527,5.104 -0.322,1.494 0.011,2.151 -0.036,2.557 -0.088,0.756 -0.396,0.906 -0.901,0.958 -0.953,0.099 -1.088,-0.636 -1.088,-0.636 z"
     id="path230" />
  <path
     style="fill:#231f20;fill-opacity:1;fill-rule:nonzero;stroke:none"
     d="m 113.5464,93.386 c -1.291,-0.083 -0.791,-2.063 -0.739,-2.593 0.052,-0.547 0.026,-2.099 -0.152,-3.307 -0.176,-1.215 0.12,-2.797 -0.208,-5.105 -0.172,-1.214 0.422,-2.5 2.188,-2.671 1.75,-0.177 2.5,0.739 2.495,2.233 -0.011,1.495 -0.656,2.896 -0.771,4.407 -0.114,1.505 -0.094,3.052 -0.016,4.265 0.083,1.38 -0.385,2.095 -0.812,2.308 -1.073,0.536 -1.985,0.463 -1.985,0.463"
     id="path231" />
  <path
     style="fill:none;stroke:#231f20;stroke-width:0.565977;stroke-linecap:butt;stroke-linejoin:miter;stroke-miterlimit:4;stroke-dasharray:none;stroke-opacity:1"
     d="m 113.5464,93.386 c -1.291,-0.083 -0.791,-2.063 -0.739,-2.593 0.052,-0.547 0.026,-2.099 -0.152,-3.307 -0.176,-1.215 0.12,-2.797 -0.208,-5.105 -0.172,-1.214 0.422,-2.5 2.188,-2.671 1.75,-0.177 2.5,0.739 2.495,2.233 -0.011,1.495 -0.656,2.896 -0.771,4.407 -0.114,1.505 -0.094,3.052 -0.016,4.265 0.083,1.38 -0.385,2.095 -0.812,2.308 -1.073,0.536 -1.985,0.463 -1.985,0.463 z"
     id="path232" />
  <path
     style="fill:#ffffff;fill-opacity:1;fill-rule:nonzero;stroke:none"
     d="m 116.1824,103.235 c 0.708,0.74 0.677,1.917 -0.068,2.631 -0.74,0.702 -1.921,0.676 -2.625,-0.074 -0.708,-0.74 -0.682,-1.921 0.062,-2.63 0.746,-0.708 1.923,-0.676 2.631,0.073"
     id="path233" />
  <path
     style="fill:none;stroke:#231f20;stroke-width:1.33171;stroke-linecap:butt;stroke-linejoin:miter;stroke-miterlimit:4;stroke-dasharray:none;stroke-opacity:1"
     d="m 116.1824,103.235 c 0.708,0.74 0.677,1.917 -0.068,2.631 -0.74,0.702 -1.921,0.676 -2.625,-0.074 -0.708,-0.74 -0.682,-1.921 0.062,-2.63 0.746,-0.708 1.923,-0.676 2.631,0.073 z"
     id="path234" />
  <path
     style="fill:#231f20;fill-opacity:1;fill-rule:nonzero;stroke:none"
     d="m 17.589001,134.522 c -0.8129,-1.079 -0.2812,-1.923 0.7024,-2.235 0.298,-0.099 0.448,-0.479 0.745,-0.552 0.688,-0.151 2.135,0.823 1.624,2.235 -0.035,0.098 -0.067,0.921 -0.191,1.525 -0.235,1.188 -1.281,3.453 -3.8282,4.365 -1.1984,0.427 -1.2292,-0.365 -0.7975,-0.682 1.3751,-1.022 1.2975,-1.375 1.5625,-1.776 0.9012,-1.355 0.1828,-2.88 0.1828,-2.88"
     id="path235" />
  <path
     style="fill:none;stroke:#231f20;stroke-width:0.332927;stroke-linecap:butt;stroke-linejoin:miter;stroke-miterlimit:4;stroke-dasharray:none;stroke-opacity:1"
     d="m 17.589001,134.522 c -0.8129,-1.079 -0.2812,-1.923 0.7024,-2.235 0.298,-0.099 0.448,-0.479 0.745,-0.552 0.688,-0.151 2.135,0.823 1.624,2.235 -0.035,0.098 -0.067,0.921 -0.191,1.525 -0.235,1.188 -1.281,3.453 -3.8282,4.365 -1.1984,0.427 -1.2292,-0.365 -0.7975,-0.682 1.3751,-1.022 1.2975,-1.375 1.5625,-1.776 0.9012,-1.355 0.1828,-2.88 0.1828,-2.88 z"
     id="path236" />
  <path
     style="fill:#231f20;fill-opacity:1;fill-rule:nonzero;stroke:none"
     d="m 24.213401,116.975 c -2.083,-0.885 -2.61,-0.781 -3.042,0.077 -0.292,0.568 -0.754,0.995 -0.947,1.328 -0.641,1.131 -1.255,3.298 -1.411,9.871 -0.032,1.495 -0.095,3.583 -0.188,4.443 -0.146,1.349 2.192,0.677 2.254,0.15 0.204,-1.702 0.486,-2.854 0.647,-3.458 0.104,-0.411 0.198,-1.167 0.828,-2.714 0.943,-2.344 1.859,-3.609 2.422,-5.64 0.26,-0.948 1.057,-1.494 0.838,-2.557 -0.208,-1.063 -1.401,-1.5 -1.401,-1.5"
     id="path237" />
  <path
     style="fill:none;stroke:#231f20;stroke-width:0.565977;stroke-linecap:butt;stroke-linejoin:miter;stroke-miterlimit:4;stroke-dasharray:none;stroke-opacity:1"
     d="m 24.213401,116.975 c -2.083,-0.885 -2.61,-0.781 -3.042,0.077 -0.292,0.568 -0.754,0.995 -0.947,1.328 -0.641,1.131 -1.255,3.298 -1.411,9.871 -0.032,1.495 -0.095,3.583 -0.188,4.443 -0.146,1.349 2.192,0.677 2.254,0.15 0.204,-1.702 0.486,-2.854 0.647,-3.458 0.104,-0.411 0.198,-1.167 0.828,-2.714 0.943,-2.344 1.859,-3.609 2.422,-5.64 0.26,-0.948 1.057,-1.494 0.838,-2.557 -0.208,-1.063 -1.401,-1.5 -1.401,-1.5 z"
     id="path238" />
  <path
     style="fill:#0098c9;fill-opacity:1;fill-rule:nonzero;stroke:none"
     d="m 29.245401,90.637 c -1.109,2.932 -1.667,3.437 -2.308,4.104 -4.006,4.166 -1.885,6.051 0.953,6.573 3.334,0.609 4.522,0.89 6.182,-5.183 0.459,-1.688 3.074,-7.932 3.074,-7.932 1.239,-2.109 1.323,-4.833 0.484,-6.026 -0.88,-1.255 -0.625,-0.687 -1.652,-1.703 -0.978,-0.969 -3.104,-1.5 -4.109,-0.781 -0.963,0.692 -0.823,2.354 -0.932,4.77 -0.089,1.918 -1.692,6.178 -1.692,6.178"
     id="path239" />
  <path
     style="fill:none;stroke:#231f20;stroke-width:0.565977;stroke-linecap:butt;stroke-linejoin:miter;stroke-miterlimit:4;stroke-dasharray:none;stroke-opacity:1"
     d="m 29.245401,90.637 c -1.109,2.932 -1.667,3.437 -2.308,4.104 -4.006,4.166 -1.885,6.051 0.953,6.573 3.334,0.609 4.522,0.89 6.182,-5.183 0.459,-1.688 3.074,-7.932 3.074,-7.932 1.239,-2.109 1.323,-4.833 0.484,-6.026 -0.88,-1.255 -0.625,-0.687 -1.652,-1.703 -0.978,-0.969 -3.104,-1.5 -4.109,-0.781 -0.963,0.692 -0.823,2.354 -0.932,4.77 -0.089,1.918 -1.692,6.178 -1.692,6.178 z"
     id="path240" />
  <path
     style="fill:#ffffff;fill-opacity:1;fill-rule:nonzero;stroke:none"
     d="m 39.682401,74.678 c 0.063,-0.24 1.213,-0.229 1.255,-0.749 0.037,-0.527 -0.703,-0.782 -1.416,-2.642 l -0.006,-0.021 c -0.48,-1.375 -1.437,-2.375 -2.677,-2.572 -2.052,-0.328 -4.073,1.672 -4.516,4.459 -0.448,2.79 0.86,5.312 2.912,5.634 1.959,0.323 3.901,-1.5 4.448,-4.109"
     id="path241" />
  <path
     style="fill:none;stroke:#231f20;stroke-width:0.565977;stroke-linecap:butt;stroke-linejoin:miter;stroke-miterlimit:4;stroke-dasharray:none;stroke-opacity:1"
     d="m 39.682401,74.678 c 0.063,-0.24 1.213,-0.229 1.255,-0.749 0.037,-0.527 -0.703,-0.782 -1.416,-2.642 l -0.006,-0.021 c -0.48,-1.375 -1.437,-2.375 -2.677,-2.572 -2.052,-0.328 -4.073,1.672 -4.516,4.459 -0.448,2.79 0.86,5.312 2.912,5.634 1.959,0.323 3.901,-1.5 4.448,-4.109 z"
     id="path242" />
  <path
     style="fill:#231f20;fill-opacity:1;fill-rule:nonzero;stroke:none"
     d="m 22.745401,118.97 c 3.541,1.89 3.645,-2.194 3.869,-2.615 2.38,-4.412 2.438,-4.787 4.011,-8.265 2.281,-5.043 3.068,-8.844 0.525,-11.021 -1.724,-1.474 -3.359,-1.588 -4.531,-0.974 -1.286,0.687 -3.098,3.296 -1.974,5.957 l -0.266,1.688 c -0.322,1.12 -0.473,1.678 -0.677,2.214 -0.359,0.937 -0.676,1.964 -1.265,3.822 -1.052,3.319 -1.068,7.162 -1.068,7.162 -0.348,1.198 1.376,2.032 1.376,2.032"
     id="path243" />
  <path
     style="fill:none;stroke:#231f20;stroke-width:0.565977;stroke-linecap:butt;stroke-linejoin:miter;stroke-miterlimit:4;stroke-dasharray:none;stroke-opacity:1"
     d="m 22.745401,118.97 c 3.541,1.89 3.645,-2.194 3.869,-2.615 2.38,-4.412 2.438,-4.787 4.011,-8.265 2.281,-5.043 3.068,-8.844 0.525,-11.021 -1.724,-1.474 -3.359,-1.588 -4.531,-0.974 -1.286,0.687 -3.098,3.296 -1.974,5.957 l -0.266,1.688 c -0.322,1.12 -0.473,1.678 -0.677,2.214 -0.359,0.937 -0.676,1.964 -1.265,3.822 -1.052,3.319 -1.068,7.162 -1.068,7.162 -0.348,1.198 1.376,2.032 1.376,2.032 z"
     id="path244" />
  <path
     style="fill:#0098c9;fill-opacity:1;fill-rule:nonzero;stroke:none"
     d="m 32.865401,100.068 c -0.246,-1.526 -0.907,-2.718 -2.172,-3.473 -1.943,-1.172 -3.574,-1 -4.626,-0.204 -1.155,0.891 -2.51,3.771 -0.958,6.199 l 7.609,1.781 c 0.109,-0.647 0.177,-1.251 0.219,-1.839 0.032,-0.073 0.063,-0.141 0.099,-0.204 0.422,-0.692 0.214,-1.285 -0.171,-2.26"
     id="path245" />
  <path
     style="fill:none;stroke:#231f20;stroke-width:0.565977;stroke-linecap:butt;stroke-linejoin:miter;stroke-miterlimit:4;stroke-dasharray:none;stroke-opacity:1"
     d="m 32.865401,100.068 c -0.246,-1.526 -0.907,-2.718 -2.172,-3.473 -1.943,-1.172 -3.574,-1 -4.626,-0.204 -1.155,0.891 -2.51,3.771 -0.958,6.199 l 7.609,1.781 c 0.109,-0.647 0.177,-1.251 0.219,-1.839 0.032,-0.073 0.063,-0.141 0.099,-0.204 0.422,-0.692 0.214,-1.285 -0.171,-2.26 z"
     id="path246" />
  <path
     style="fill:#231f20;fill-opacity:1;fill-rule:nonzero;stroke:none"
     d="m 34.641401,103.282 c -0.423,-0.49 -0.396,-2.438 -0.996,-3.932 -0.4,-1.005 -0.291,-3.751 -0.771,-4.724 -0.432,-0.891 -0.552,-1.344 0.385,-2.016 0.554,-0.396 1.877,-0.807 2.194,-0.411 0.74,0.932 0.995,1.844 1.057,2.911 0.068,1.213 -0.027,4.521 -0.098,5.136 -0.188,1.51 0.191,2.134 0.181,2.546 -0.021,0.755 -0.323,0.938 -0.817,1.031 -0.938,0.177 -1.135,-0.541 -1.135,-0.541"
     id="path247" />
  <path
     style="fill:none;stroke:#231f20;stroke-width:0.565977;stroke-linecap:butt;stroke-linejoin:miter;stroke-miterlimit:4;stroke-dasharray:none;stroke-opacity:1"
     d="m 34.641401,103.282 c -0.423,-0.49 -0.396,-2.438 -0.996,-3.932 -0.4,-1.005 -0.291,-3.751 -0.771,-4.724 -0.432,-0.891 -0.552,-1.344 0.385,-2.016 0.554,-0.396 1.877,-0.807 2.194,-0.411 0.74,0.932 0.995,1.844 1.057,2.911 0.068,1.213 -0.027,4.521 -0.098,5.136 -0.188,1.51 0.191,2.134 0.181,2.546 -0.021,0.755 -0.323,0.938 -0.817,1.031 -0.938,0.177 -1.135,-0.541 -1.135,-0.541 z"
     id="path248" />
  <path
     style="fill:#231f20;fill-opacity:1;fill-rule:nonzero;stroke:none"
     d="m 33.469401,94.303 c -1.303,0.026 -0.964,-1.989 -0.959,-2.526 0.005,-0.547 -0.151,-2.094 -0.432,-3.287 -0.276,-1.192 -0.109,-2.796 -0.636,-5.067 -0.276,-1.193 0.213,-2.521 1.953,-2.844 1.73,-0.322 2.558,0.526 2.677,2.016 0.116,1.495 -0.412,2.943 -0.395,4.452 0.011,1.516 0.166,3.052 0.344,4.256 0.197,1.364 -0.208,2.12 -0.62,2.364 -1.022,0.631 -1.932,0.636 -1.932,0.636"
     id="path249" />
  <path
     style="fill:none;stroke:#231f20;stroke-width:0.565977;stroke-linecap:butt;stroke-linejoin:miter;stroke-miterlimit:4;stroke-dasharray:none;stroke-opacity:1"
     d="m 33.469401,94.303 c -1.303,0.026 -0.964,-1.989 -0.959,-2.526 0.005,-0.547 -0.151,-2.094 -0.432,-3.287 -0.276,-1.192 -0.109,-2.796 -0.636,-5.067 -0.276,-1.193 0.213,-2.521 1.953,-2.844 1.73,-0.322 2.558,0.526 2.677,2.016 0.116,1.495 -0.412,2.943 -0.395,4.452 0.011,1.516 0.166,3.052 0.344,4.256 0.197,1.364 -0.208,2.12 -0.62,2.364 -1.022,0.631 -1.932,0.636 -1.932,0.636 z"
     id="path250" />
  <path
     style="fill:#ffffff;fill-opacity:1;fill-rule:nonzero;stroke:none"
     d="m 35.093401,106.219 c -1.021,0.131 -1.943,-0.593 -2.072,-1.615 -0.131,-1.02 0.593,-1.952 1.615,-2.077 1.014,-0.125 1.947,0.593 2.077,1.615 0.125,1.02 -0.599,1.948 -1.62,2.077"
     id="path251" />
  <path
     style="fill:none;stroke:#231f20;stroke-width:1.33171;stroke-linecap:butt;stroke-linejoin:miter;stroke-miterlimit:4;stroke-dasharray:none;stroke-opacity:1"
     d="m 35.093401,106.219 c -1.021,0.131 -1.943,-0.593 -2.072,-1.615 -0.131,-1.02 0.593,-1.952 1.615,-2.077 1.014,-0.125 1.947,0.593 2.077,1.615 0.125,1.02 -0.599,1.948 -1.62,2.077 z"
     id="path252" />
  <path
     style="fill:none;stroke:#231f20;stroke-width:0.399514;stroke-linecap:butt;stroke-linejoin:miter;stroke-miterlimit:4;stroke-dasharray:none;stroke-opacity:1"
     d="M 50.343401,128.418 C 26.464401,139.871 3.4011007,114.428 0.69850074,107.683"
     id="path253" />
  <path
     style="fill:#231f20;fill-opacity:1;fill-rule:nonzero;stroke:none"
     d="m 0.25050074,106.563 c 0.4052,0.448 0.99999996,0.969 1.51469996,1.235 L 0.75570074,107.828 7.4119593e-7,108.5 C 0.19320074,107.954 0.26520074,107.167 0.25050074,106.563"
     id="path254" />
</svg>
