<?xml version="1.0" encoding="UTF-8" standalone="no"?>
<!-- Created with Inkscape (http://www.inkscape.org/) -->

<svg
   version="1.1"
   id="svg1"
   width="251.51422"
   height="111.16687"
   viewBox="0 0 251.51421 111.16687"
   sodipodi:docname="cell.svg"
   xmlns:inkscape="http://www.inkscape.org/namespaces/inkscape"
   xmlns:sodipodi="http://sodipodi.sourceforge.net/DTD/sodipodi-0.dtd"
   xmlns="http://www.w3.org/2000/svg"
   xmlns:svg="http://www.w3.org/2000/svg">
  <sodipodi:namedview
     id="namedview1"
     pagecolor="#ffffff"
     bordercolor="#000000"
     borderopacity="0.25"
     inkscape:showpageshadow="2"
     inkscape:pageopacity="0.0"
     inkscape:pagecheckerboard="0"
     inkscape:deskcolor="#d1d1d1">
    <inkscape:page
       x="7.8546589e-07"
       y="7.1197474e-07"
       inkscape:label="1"
       id="page1"
       width="251.51421"
       height="111.16687"
       margin="0"
       bleed="0" />
  </sodipodi:namedview>
  <defs
     id="defs1" />
  <path
     style="fill:#231f20;fill-opacity:1;fill-rule:nonzero;stroke:none"
     d="m 5.0395318,4.0342301 c 0.056,1.3493 0.995,1.6613 1.957,1.2813 0.287,-0.1146 0.652,0.084 0.923,-0.052 0.629,-0.312 1.129,-1.984 -0.161,-2.7546 -0.09,-0.052 -0.636,-0.6614 -1.115,-1.0574 -0.937,-0.76660001 -3.188,-1.84930001 -5.72899996,-0.93330001 -1.199,0.428 -0.724,1.05730001 -0.183,1.03200001 1.70799996,-0.088 1.87999996,0.24 2.33899996,0.38 1.552,0.4693 1.969,2.104 1.969,2.104"
     id="path96" />
  <path
     style="fill:none;stroke:#231f20;stroke-width:0.332927;stroke-linecap:butt;stroke-linejoin:miter;stroke-miterlimit:4;stroke-dasharray:none;stroke-opacity:1"
     d="m 5.0395318,4.0342301 c 0.056,1.3493 0.995,1.6613 1.957,1.2813 0.287,-0.1146 0.652,0.084 0.923,-0.052 0.629,-0.312 1.129,-1.984 -0.161,-2.7546 -0.09,-0.052 -0.636,-0.6614 -1.115,-1.0574 -0.937,-0.76660001 -3.188,-1.84930001 -5.72899996,-0.93330001 -1.199,0.428 -0.724,1.05730001 -0.183,1.03200001 1.70799996,-0.088 1.87999996,0.24 2.33899996,0.38 1.552,0.4693 1.969,2.104 1.969,2.104 z"
     id="path97" />
  <path
     style="fill:#231f20;fill-opacity:1;fill-rule:nonzero;stroke:none"
     d="m 21.294532,13.37283 c -1.042,2.0107 -1.516,2.2654 -2.396,1.88 -0.583,-0.2546 -1.214,-0.292 -1.579,-0.4266 -1.213,-0.464 -3.057,-1.74 -7.3530002,-6.7292999 -0.975,-1.1307 -2.35,-2.708 -2.97,-3.3067 -0.968,-0.948 1.262,-1.9227 1.647,-1.552 1.244,1.1813 2.1870002,1.8947 2.6920002,2.2653 0.349,0.2494 0.901,0.776 2.365,1.568 2.219,1.208 3.728,1.5987 5.458,2.8173 0.802,0.5679999 1.766,0.4786999 2.27,1.4373999 0.511,0.9586 -0.134,2.0466 -0.134,2.0466"
     id="path98" />
  <path
     style="fill:none;stroke:#231f20;stroke-width:0.565977;stroke-linecap:butt;stroke-linejoin:miter;stroke-miterlimit:4;stroke-dasharray:none;stroke-opacity:1"
     d="m 21.294532,13.37283 c -1.042,2.0107 -1.516,2.2654 -2.396,1.88 -0.583,-0.2546 -1.214,-0.292 -1.579,-0.4266 -1.213,-0.464 -3.057,-1.74 -7.3530002,-6.7292999 -0.975,-1.1307 -2.35,-2.708 -2.97,-3.3067 -0.968,-0.948 1.262,-1.9227 1.647,-1.552 1.244,1.1813 2.1870002,1.8947 2.6920002,2.2653 0.349,0.2494 0.901,0.776 2.365,1.568 2.219,1.208 3.728,1.5987 5.458,2.8173 0.802,0.5679999 1.766,0.4786999 2.27,1.4373999 0.511,0.9586 -0.134,2.0466 -0.134,2.0466 z"
     id="path99" />
  <path
     style="fill:#0098c9;fill-opacity:1;fill-rule:nonzero;stroke:none"
     d="m 43.392534,28.63283 c -3.046,-0.7333 -3.776,-0.5573 -4.686,-0.4053 -5.704002,0.9626 -6.063002,-1.8547 -4.891,-4.4894 1.375,-3.0999 1.807,-4.2346 7.76,-2.1879 1.651,0.5733 8.287,1.9319 8.287,1.9319 2.442,0.1667 4.733,1.6307 5.249,2.9947 0.537,1.4373 0.219,0.9067 0.475,2.328 0.244,1.3547 -0.511,3.4067 -1.672,3.828 -1.115,0.412 -2.407,-0.64 -4.47,-1.916 -1.625,-1 -6.052,-2.084 -6.052,-2.084"
     id="path100" />
  <path
     style="fill:none;stroke:#231f20;stroke-width:0.565977;stroke-linecap:butt;stroke-linejoin:miter;stroke-miterlimit:4;stroke-dasharray:none;stroke-opacity:1"
     d="m 43.392534,28.63283 c -3.046,-0.7333 -3.776,-0.5573 -4.686,-0.4053 -5.704002,0.9626 -6.063002,-1.8547 -4.891,-4.4894 1.375,-3.0999 1.807,-4.2346 7.76,-2.1879 1.651,0.5733 8.287,1.9319 8.287,1.9319 2.442,0.1667 4.733,1.6307 5.249,2.9947 0.537,1.4373 0.219,0.9067 0.475,2.328 0.244,1.3547 -0.511,3.4067 -1.672,3.828 -1.115,0.412 -2.407,-0.64 -4.47,-1.916 -1.625,-1 -6.052,-2.084 -6.052,-2.084 z"
     id="path101" />
  <path
     style="fill:#ffffff;fill-opacity:1;fill-rule:nonzero;stroke:none"
     d="m 61.564534,27.37283 c 0.245,-0.0053 0.531,-1.1147 1.047,-1.0213 0.521,0.0946 0.578,0.8813 2.193,2.048 l 0.015,0.0053 c 1.209,0.812 1.933,2 1.802,3.244 -0.208,2.068 -2.65,3.5107 -5.458,3.2293 -2.818,-0.2866 -4.921,-2.188 -4.713,-4.2546 0.193,-1.98 2.453,-3.3907 5.114,-3.2507"
     id="path102" />
  <path
     style="fill:none;stroke:#231f20;stroke-width:0.565977;stroke-linecap:butt;stroke-linejoin:miter;stroke-miterlimit:4;stroke-dasharray:none;stroke-opacity:1"
     d="m 61.564534,27.37283 c 0.245,-0.0053 0.531,-1.1147 1.047,-1.0213 0.521,0.0946 0.578,0.8813 2.193,2.048 l 0.015,0.0053 c 1.209,0.812 1.933,2 1.802,3.244 -0.208,2.068 -2.65,3.5107 -5.458,3.2293 -2.818,-0.2866 -4.921,-2.188 -4.713,-4.2546 0.193,-1.98 2.453,-3.3907 5.114,-3.2507 z"
     id="path103" />
  <path
     style="fill:#231f20;fill-opacity:1;fill-rule:nonzero;stroke:none"
     d="m 18.898532,12.77423 c 1.53,-3.7079999 4.208,-0.6254 4.645,-0.4427 4.641,1.896 4.928,2.1453 8.355,3.8387 4.958002,2.4426 7.978002,4.88 7.401002,8.1773 -0.391,2.2386 -1.589,3.3586 -2.88,3.624 -1.428,0.292 -4.485002,-0.5667 -5.308002,-3.344 l -1.281,-1.1347 c -0.959,-0.656 -1.427,-0.9893 -1.927,-1.276 -0.869,-0.4946 -1.771,-1.084 -3.412,-2.1506 -2.911,-1.896 -5.364,-4.8547 -5.364,-4.8547 -1.032,-0.6973 -0.229,-2.4373 -0.229,-2.4373"
     id="path104" />
  <path
     style="fill:none;stroke:#231f20;stroke-width:0.565977;stroke-linecap:butt;stroke-linejoin:miter;stroke-miterlimit:4;stroke-dasharray:none;stroke-opacity:1"
     d="m 18.898532,12.77423 c 1.53,-3.7079999 4.208,-0.6254 4.645,-0.4427 4.641,1.896 4.928,2.1453 8.355,3.8387 4.958002,2.4426 7.978002,4.88 7.401002,8.1773 -0.391,2.2386 -1.589,3.3586 -2.88,3.624 -1.428,0.292 -4.485002,-0.5667 -5.308002,-3.344 l -1.281,-1.1347 c -0.959,-0.656 -1.427,-0.9893 -1.927,-1.276 -0.869,-0.4946 -1.771,-1.084 -3.412,-2.1506 -2.911,-1.896 -5.364,-4.8547 -5.364,-4.8547 -1.032,-0.6973 -0.229,-2.4373 -0.229,-2.4373 z"
     id="path105" />
  <path
     style="fill:#0098c9;fill-opacity:1;fill-rule:nonzero;stroke:none"
     d="m 38.715534,20.93023 c -0.317,-0.9894 -0.531,-1.5787 -1.296,-1.844 -0.068,-0.0254 -0.136,-0.0574 -0.209,-0.0934 -0.406,-0.4266 -0.838,-0.8546 -1.339,-1.2813 l -4.744002,6.208 c 0.344,2.8653 3.219002,4.2293 4.683002,4.1773 1.312,-0.0467 2.676,-0.9533 3.437,-3.0933 0.495,-1.3907 0.255,-2.7293 -0.532,-4.0733"
     id="path106" />
  <path
     style="fill:none;stroke:#231f20;stroke-width:0.565977;stroke-linecap:butt;stroke-linejoin:miter;stroke-miterlimit:4;stroke-dasharray:none;stroke-opacity:1"
     d="m 38.715534,20.93023 c -0.317,-0.9894 -0.531,-1.5787 -1.296,-1.844 -0.068,-0.0254 -0.136,-0.0574 -0.209,-0.0934 -0.406,-0.4266 -0.838,-0.8546 -1.339,-1.2813 l -4.744002,6.208 c 0.344,2.8653 3.219002,4.2293 4.683002,4.1773 1.312,-0.0467 2.676,-0.9533 3.437,-3.0933 0.495,-1.3907 0.255,-2.7293 -0.532,-4.0733 z"
     id="path107" />
  <path
     style="fill:#231f20;fill-opacity:1;fill-rule:nonzero;stroke:none"
     d="m 71.881534,36.68083 c -0.348,-0.5427 -2.218,-1.084 -3.473,-2.0893 -0.844,-0.6774 -3.505,-1.3694 -4.297,-2.1094 -0.724,-0.6773 -1.126,-0.9213 -2.036,-0.224 -0.542,0.4174 -1.323,1.5627 -1.032,1.984 0.672,0.98 1.474,1.4854 2.48,1.8547 1.14,0.4213 4.333,1.292 4.937,1.4013 1.5,0.2547 1.989,0.8067 2.38,0.9107 0.74,0.1986 0.995,-0.0307 1.229,-0.4787 0.438,-0.8493 -0.188,-1.2493 -0.188,-1.2493"
     id="path108" />
  <path
     style="fill:none;stroke:#231f20;stroke-width:0.565977;stroke-linecap:butt;stroke-linejoin:miter;stroke-miterlimit:4;stroke-dasharray:none;stroke-opacity:1"
     d="m 71.881534,36.68083 c -0.348,-0.5427 -2.218,-1.084 -3.473,-2.0893 -0.844,-0.6774 -3.505,-1.3694 -4.297,-2.1094 -0.724,-0.6773 -1.126,-0.9213 -2.036,-0.224 -0.542,0.4174 -1.323,1.5627 -1.032,1.984 0.672,0.98 1.474,1.4854 2.48,1.8547 1.14,0.4213 4.333,1.292 4.937,1.4013 1.5,0.2547 1.989,0.8067 2.38,0.9107 0.74,0.1986 0.995,-0.0307 1.229,-0.4787 0.438,-0.8493 -0.188,-1.2493 -0.188,-1.2493 z"
     id="path109" />
  <path
     style="fill:#231f20;fill-opacity:1;fill-rule:nonzero;stroke:none"
     d="m 63.627534,32.94613 c 0.406,-1.2293 -1.62,-1.4946 -2.136,-1.6466 -0.52,-0.1507 -1.958,-0.7547 -3.015,-1.364 -1.062,-0.6147 -2.646,-0.9214 -4.661,-2.084 -1.063,-0.6094 -2.48,-0.5307 -3.297,1.0426 -0.808,1.5574 -0.24,2.5987 1.156,3.1454 1.39,0.5466 2.932,0.464 4.38,0.9173 1.437,0.452 2.865,1.0467 3.963,1.5613 1.25,0.5947 2.088,0.4174 2.448,0.1 0.891,-0.792 1.162,-1.672 1.162,-1.672"
     id="path110" />
  <path
     style="fill:none;stroke:#231f20;stroke-width:0.565977;stroke-linecap:butt;stroke-linejoin:miter;stroke-miterlimit:4;stroke-dasharray:none;stroke-opacity:1"
     d="m 63.627534,32.94613 c 0.406,-1.2293 -1.62,-1.4946 -2.136,-1.6466 -0.52,-0.1507 -1.958,-0.7547 -3.015,-1.364 -1.062,-0.6147 -2.646,-0.9214 -4.661,-2.084 -1.063,-0.6094 -2.48,-0.5307 -3.297,1.0426 -0.808,1.5574 -0.24,2.5987 1.156,3.1454 1.39,0.5466 2.932,0.464 4.38,0.9173 1.437,0.452 2.865,1.0467 3.963,1.5613 1.25,0.5947 2.088,0.4174 2.448,0.1 0.891,-0.792 1.162,-1.672 1.162,-1.672 z"
     id="path111" />
  <path
     style="fill:#231f20;fill-opacity:1;fill-rule:nonzero;stroke:none"
     d="m 40.570534,106.12883 c 1.354,-0.058 1.661,-0.996 1.281,-1.959 -0.109,-0.287 0.083,-0.652 -0.047,-0.923 -0.318,-0.634 -1.989,-1.129 -2.756,0.162 -0.057,0.089 -0.666,0.636 -1.062,1.12 -0.766,0.933 -1.848,3.182 -0.932,5.724 0.432,1.198 1.057,0.724 1.032,0.182 -0.09,-1.713 0.238,-1.874 0.38,-2.333 0.468,-1.557 2.104,-1.973 2.104,-1.973"
     id="path112" />
  <path
     style="fill:none;stroke:#231f20;stroke-width:0.332927;stroke-linecap:butt;stroke-linejoin:miter;stroke-miterlimit:4;stroke-dasharray:none;stroke-opacity:1"
     d="m 40.570534,106.12883 c 1.354,-0.058 1.661,-0.996 1.281,-1.959 -0.109,-0.287 0.083,-0.652 -0.047,-0.923 -0.318,-0.634 -1.989,-1.129 -2.756,0.162 -0.057,0.089 -0.666,0.636 -1.062,1.12 -0.766,0.933 -1.848,3.182 -0.932,5.724 0.432,1.198 1.057,0.724 1.032,0.182 -0.09,-1.713 0.238,-1.874 0.38,-2.333 0.468,-1.557 2.104,-1.973 2.104,-1.973 z"
     id="path113" />
  <path
     style="fill:#231f20;fill-opacity:1;fill-rule:nonzero;stroke:none"
     d="m 49.914534,89.87283 c 2.01,1.041 2.26,1.516 1.874,2.391 -0.254,0.588 -0.292,1.218 -0.426,1.584 -0.464,1.208 -1.74,3.057 -6.73,7.353 -1.13,0.974 -2.708,2.349 -3.308,2.969 -0.948,0.968 -1.921,-1.265 -1.546,-1.647 1.182,-1.244 1.89,-2.186 2.261,-2.692 0.249,-0.349 0.776,-0.901 1.572,-2.365 1.208,-2.218 1.593,-3.728 2.813,-5.457 0.567,-0.803 0.479,-1.767 1.443,-2.271 0.957,-0.51 2.047,0.135 2.047,0.135"
     id="path114" />
  <path
     style="fill:none;stroke:#231f20;stroke-width:0.565977;stroke-linecap:butt;stroke-linejoin:miter;stroke-miterlimit:4;stroke-dasharray:none;stroke-opacity:1"
     d="m 49.914534,89.87283 c 2.01,1.041 2.26,1.516 1.874,2.391 -0.254,0.588 -0.292,1.218 -0.426,1.584 -0.464,1.208 -1.74,3.057 -6.73,7.353 -1.13,0.974 -2.708,2.349 -3.308,2.969 -0.948,0.968 -1.921,-1.265 -1.546,-1.647 1.182,-1.244 1.89,-2.186 2.261,-2.692 0.249,-0.349 0.776,-0.901 1.572,-2.365 1.208,-2.218 1.593,-3.728 2.813,-5.457 0.567,-0.803 0.479,-1.767 1.443,-2.271 0.957,-0.51 2.047,0.135 2.047,0.135 z"
     id="path115" />
  <path
     style="fill:#0098c9;fill-opacity:1;fill-rule:nonzero;stroke:none"
     d="m 65.173534,67.77383 c -0.734,3.047 -0.562,3.776 -0.406,4.688 0.958,5.703 -1.859,6.067 -4.495,4.89 -3.098,-1.375 -4.233,-1.807 -2.186,-7.76 0.571,-1.651 1.931,-8.287 1.931,-8.287 0.167,-2.443 1.631,-4.739 2.995,-5.249 1.437,-0.538 0.907,-0.219 2.328,-0.48 1.355,-0.239 3.407,0.51 3.833,1.677 0.407,1.109 -0.645,2.407 -1.921,4.469 -1,1.626 -2.079,6.052 -2.079,6.052"
     id="path116" />
  <path
     style="fill:none;stroke:#231f20;stroke-width:0.565977;stroke-linecap:butt;stroke-linejoin:miter;stroke-miterlimit:4;stroke-dasharray:none;stroke-opacity:1"
     d="m 65.173534,67.77383 c -0.734,3.047 -0.562,3.776 -0.406,4.688 0.958,5.703 -1.859,6.067 -4.495,4.89 -3.098,-1.375 -4.233,-1.807 -2.186,-7.76 0.571,-1.651 1.931,-8.287 1.931,-8.287 0.167,-2.443 1.631,-4.739 2.995,-5.249 1.437,-0.538 0.907,-0.219 2.328,-0.48 1.355,-0.239 3.407,0.51 3.833,1.677 0.407,1.109 -0.645,2.407 -1.921,4.469 -1,1.626 -2.079,6.052 -2.079,6.052 z"
     id="path117" />
  <path
     style="fill:#ffffff;fill-opacity:1;fill-rule:nonzero;stroke:none"
     d="m 63.908534,49.60183 c -0.005,-0.245 -1.115,-0.53 -1.021,-1.052 0.098,-0.516 0.88,-0.573 2.046,-2.188 l 0.006,-0.014 c 0.813,-1.21 2,-1.934 3.25,-1.803 2.068,0.203 3.511,2.651 3.224,5.459 -0.281,2.817 -2.188,4.921 -4.256,4.713 -1.973,-0.199 -3.39,-2.453 -3.249,-5.115"
     id="path118" />
  <path
     style="fill:none;stroke:#231f20;stroke-width:0.565977;stroke-linecap:butt;stroke-linejoin:miter;stroke-miterlimit:4;stroke-dasharray:none;stroke-opacity:1"
     d="m 63.908534,49.60183 c -0.005,-0.245 -1.115,-0.53 -1.021,-1.052 0.098,-0.516 0.88,-0.573 2.046,-2.188 l 0.006,-0.014 c 0.813,-1.21 2,-1.934 3.25,-1.803 2.068,0.203 3.511,2.651 3.224,5.459 -0.281,2.817 -2.188,4.921 -4.256,4.713 -1.973,-0.199 -3.39,-2.453 -3.249,-5.115 z"
     id="path119" />
  <path
     style="fill:#231f20;fill-opacity:1;fill-rule:nonzero;stroke:none"
     d="m 49.310534,92.26383 c -3.71,-1.531 -0.626,-4.203 -0.443,-4.64 1.895,-4.647 2.151,-4.928 3.839,-8.355 2.442,-4.959 4.88,-7.979 8.175,-7.401 2.24,0.39 3.36,1.589 3.626,2.88 0.297,1.428 -0.568,4.485 -3.344,5.308 l -1.135,1.276 c -0.656,0.962 -0.985,1.432 -1.276,1.932 -0.495,0.869 -1.084,1.765 -2.152,3.412 -1.894,2.91 -4.848,5.364 -4.848,5.364 -0.704,1.032 -2.442,0.224 -2.442,0.224"
     id="path120" />
  <path
     style="fill:none;stroke:#231f20;stroke-width:0.565977;stroke-linecap:butt;stroke-linejoin:miter;stroke-miterlimit:4;stroke-dasharray:none;stroke-opacity:1"
     d="m 49.310534,92.26383 c -3.71,-1.531 -0.626,-4.203 -0.443,-4.64 1.895,-4.647 2.151,-4.928 3.839,-8.355 2.442,-4.959 4.88,-7.979 8.175,-7.401 2.24,0.39 3.36,1.589 3.626,2.88 0.297,1.428 -0.568,4.485 -3.344,5.308 l -1.135,1.276 c -0.656,0.962 -0.985,1.432 -1.276,1.932 -0.495,0.869 -1.084,1.765 -2.152,3.412 -1.894,2.91 -4.848,5.364 -4.848,5.364 -0.704,1.032 -2.442,0.224 -2.442,0.224 z"
     id="path121" />
  <path
     style="fill:#0098c9;fill-opacity:1;fill-rule:nonzero;stroke:none"
     d="m 61.537534,71.91983 c -1.389,-0.495 -2.728,-0.25 -4.071,0.532 -0.99,0.312 -1.579,0.53 -1.844,1.296 -0.022,0.068 -0.058,0.136 -0.094,0.209 -0.428,0.405 -0.849,0.839 -1.281,1.337 l 6.208,4.746 c 2.864,-0.344 4.229,-3.219 4.177,-4.683 -0.047,-1.312 -0.953,-2.681 -3.095,-3.437"
     id="path122" />
  <path
     style="fill:none;stroke:#231f20;stroke-width:0.565977;stroke-linecap:butt;stroke-linejoin:miter;stroke-miterlimit:4;stroke-dasharray:none;stroke-opacity:1"
     d="m 61.537534,71.91983 c -1.389,-0.495 -2.728,-0.25 -4.071,0.532 -0.99,0.312 -1.579,0.53 -1.844,1.296 -0.022,0.068 -0.058,0.136 -0.094,0.209 -0.428,0.405 -0.849,0.839 -1.281,1.337 l 6.208,4.746 c 2.864,-0.344 4.229,-3.219 4.177,-4.683 -0.047,-1.312 -0.953,-2.681 -3.095,-3.437 z"
     id="path123" />
  <path
     style="fill:#231f20;fill-opacity:1;fill-rule:nonzero;stroke:none"
     d="m 73.220534,39.28483 c -0.541,0.348 -1.083,2.219 -2.093,3.473 -0.678,0.844 -1.37,3.506 -2.11,4.298 -0.677,0.724 -0.922,1.125 -0.218,2.036 0.41,0.541 1.557,1.322 1.978,1.032 0.98,-0.672 1.484,-1.475 1.855,-2.48 0.421,-1.14 1.292,-4.334 1.401,-4.938 0.255,-1.5 0.807,-1.989 0.911,-2.38 0.204,-0.7397 -0.031,-0.9944 -0.479,-1.229 -0.849,-0.4427 -1.245,0.188 -1.245,0.188"
     id="path124" />
  <path
     style="fill:none;stroke:#231f20;stroke-width:0.565977;stroke-linecap:butt;stroke-linejoin:miter;stroke-miterlimit:4;stroke-dasharray:none;stroke-opacity:1"
     d="m 73.220534,39.28483 c -0.541,0.348 -1.083,2.219 -2.093,3.473 -0.678,0.844 -1.37,3.506 -2.11,4.298 -0.677,0.724 -0.922,1.125 -0.218,2.036 0.41,0.541 1.557,1.322 1.978,1.032 0.98,-0.672 1.484,-1.475 1.855,-2.48 0.421,-1.14 1.292,-4.334 1.401,-4.938 0.255,-1.5 0.807,-1.989 0.911,-2.38 0.204,-0.7397 -0.031,-0.9944 -0.479,-1.229 -0.849,-0.4427 -1.245,0.188 -1.245,0.188 z"
     id="path125" />
  <path
     style="fill:#231f20;fill-opacity:1;fill-rule:nonzero;stroke:none"
     d="m 69.485534,47.53983 c -1.233,-0.407 -1.5,1.62 -1.65,2.136 -0.151,0.52 -0.75,1.957 -1.364,3.014 -0.61,1.063 -0.923,2.647 -2.084,4.662 -0.61,1.062 -0.531,2.48 1.041,3.297 1.563,0.808 2.6,0.235 3.147,-1.156 0.546,-1.391 0.468,-2.932 0.921,-4.38 0.448,-1.437 1.041,-2.865 1.557,-3.964 0.595,-1.249 0.418,-2.088 0.099,-2.448 -0.791,-0.891 -1.667,-1.161 -1.667,-1.161"
     id="path126" />
  <path
     style="fill:none;stroke:#231f20;stroke-width:0.565977;stroke-linecap:butt;stroke-linejoin:miter;stroke-miterlimit:4;stroke-dasharray:none;stroke-opacity:1"
     d="m 69.485534,47.53983 c -1.233,-0.407 -1.5,1.62 -1.65,2.136 -0.151,0.52 -0.75,1.957 -1.364,3.014 -0.61,1.063 -0.923,2.647 -2.084,4.662 -0.61,1.062 -0.531,2.48 1.041,3.297 1.563,0.808 2.6,0.235 3.147,-1.156 0.546,-1.391 0.468,-2.932 0.921,-4.38 0.448,-1.437 1.041,-2.865 1.557,-3.964 0.595,-1.249 0.418,-2.088 0.099,-2.448 -0.791,-0.891 -1.667,-1.161 -1.667,-1.161 z"
     id="path127" />
  <path
     style="fill:#231f20;fill-opacity:1;fill-rule:nonzero;stroke:none"
     d="m 142.45553,72.52383 c -0.058,-1.348 -1,-1.662 -1.964,-1.276 -0.287,0.109 -0.651,-0.083 -0.922,0.046 -0.63,0.319 -1.125,1.991 0.162,2.756 0.088,0.058 0.641,0.667 1.12,1.058 0.937,0.77 3.182,1.849 5.724,0.937 1.202,-0.432 0.724,-1.063 0.186,-1.036 -1.713,0.088 -1.88,-0.235 -2.337,-0.381 -1.553,-0.463 -1.969,-2.104 -1.969,-2.104"
     id="path128" />
  <path
     style="fill:none;stroke:#231f20;stroke-width:0.332927;stroke-linecap:butt;stroke-linejoin:miter;stroke-miterlimit:4;stroke-dasharray:none;stroke-opacity:1"
     d="m 142.45553,72.52383 c -0.058,-1.348 -1,-1.662 -1.964,-1.276 -0.287,0.109 -0.651,-0.083 -0.922,0.046 -0.63,0.319 -1.125,1.991 0.162,2.756 0.088,0.058 0.641,0.667 1.12,1.058 0.937,0.77 3.182,1.849 5.724,0.937 1.202,-0.432 0.724,-1.063 0.186,-1.036 -1.713,0.088 -1.88,-0.235 -2.337,-0.381 -1.553,-0.463 -1.969,-2.104 -1.969,-2.104 z"
     id="path129" />
  <path
     style="fill:#231f20;fill-opacity:1;fill-rule:nonzero;stroke:none"
     d="m 126.19553,63.18483 c 1.041,-2.009 1.514,-2.26 2.396,-1.875 0.582,0.251 1.213,0.287 1.577,0.428 1.213,0.463 3.063,1.739 7.36,6.724 0.968,1.135 2.348,2.714 2.963,3.312 0.969,0.948 -1.26,1.916 -1.646,1.547 -1.24,-1.183 -2.188,-1.896 -2.693,-2.26 -0.343,-0.256 -0.895,-0.776 -2.359,-1.573 -2.224,-1.208 -3.729,-1.599 -5.464,-2.818 -0.801,-0.568 -1.765,-0.48 -2.265,-1.437 -0.511,-0.959 0.131,-2.048 0.131,-2.048"
     id="path130" />
  <path
     style="fill:none;stroke:#231f20;stroke-width:0.565977;stroke-linecap:butt;stroke-linejoin:miter;stroke-miterlimit:4;stroke-dasharray:none;stroke-opacity:1"
     d="m 126.19553,63.18483 c 1.041,-2.009 1.514,-2.26 2.396,-1.875 0.582,0.251 1.213,0.287 1.577,0.428 1.213,0.463 3.063,1.739 7.36,6.724 0.968,1.135 2.348,2.714 2.963,3.312 0.969,0.948 -1.26,1.916 -1.646,1.547 -1.24,-1.183 -2.188,-1.896 -2.693,-2.26 -0.343,-0.256 -0.895,-0.776 -2.359,-1.573 -2.224,-1.208 -3.729,-1.599 -5.464,-2.818 -0.801,-0.568 -1.765,-0.48 -2.265,-1.437 -0.511,-0.959 0.131,-2.048 0.131,-2.048 z"
     id="path131" />
  <path
     style="fill:#0098c9;fill-opacity:1;fill-rule:nonzero;stroke:none"
     d="m 104.10053,47.92483 c 3.048,0.735 3.781,0.557 4.693,0.407 5.698,-0.959 6.063,1.858 4.886,4.494 -1.37,3.094 -1.803,4.235 -7.755,2.183 -1.657,-0.573 -8.286996,-1.933 -8.286996,-1.933 -2.442,-0.167 -4.74,-1.63 -5.25,-2.995 -0.536,-1.437 -0.219,-0.905 -0.479,-2.323 -0.245,-1.358 0.511,-3.41 1.672,-3.833 1.115,-0.411 2.411,0.641 4.468,1.917 1.631,1 6.051996,2.083 6.051996,2.083"
     id="path132" />
  <path
     style="fill:none;stroke:#231f20;stroke-width:0.565977;stroke-linecap:butt;stroke-linejoin:miter;stroke-miterlimit:4;stroke-dasharray:none;stroke-opacity:1"
     d="m 104.10053,47.92483 c 3.048,0.735 3.781,0.557 4.693,0.407 5.698,-0.959 6.063,1.858 4.886,4.494 -1.37,3.094 -1.803,4.235 -7.755,2.183 -1.657,-0.573 -8.286996,-1.933 -8.286996,-1.933 -2.442,-0.167 -4.74,-1.63 -5.25,-2.995 -0.536,-1.437 -0.219,-0.905 -0.479,-2.323 -0.245,-1.358 0.511,-3.41 1.672,-3.833 1.115,-0.411 2.411,0.641 4.468,1.917 1.631,1 6.051996,2.083 6.051996,2.083 z"
     id="path133" />
  <path
     style="fill:#ffffff;fill-opacity:1;fill-rule:nonzero;stroke:none"
     d="m 85.933534,49.18983 c -0.244,0 -0.536,1.115 -1.052,1.022 -0.514,-0.099 -0.572,-0.886 -2.186,-2.047 l -0.016,-0.011 c -1.214,-0.812 -1.932,-1.994 -1.808,-3.245 0.209,-2.067 2.657,-3.509 5.464,-3.228 2.813,0.285 4.922,2.192 4.713,4.26 -0.197,1.973 -2.453,3.385 -5.115,3.249"
     id="path134" />
  <path
     style="fill:none;stroke:#231f20;stroke-width:0.565977;stroke-linecap:butt;stroke-linejoin:miter;stroke-miterlimit:4;stroke-dasharray:none;stroke-opacity:1"
     d="m 85.933534,49.18983 c -0.244,0 -0.536,1.115 -1.052,1.022 -0.514,-0.099 -0.572,-0.886 -2.186,-2.047 l -0.016,-0.011 c -1.214,-0.812 -1.932,-1.994 -1.808,-3.245 0.209,-2.067 2.657,-3.509 5.464,-3.228 2.813,0.285 4.922,2.192 4.713,4.26 -0.197,1.973 -2.453,3.385 -5.115,3.249 z"
     id="path135" />
  <path
     style="fill:#231f20;fill-opacity:1;fill-rule:nonzero;stroke:none"
     d="m 128.59153,63.78983 c -1.532,3.708 -4.204,0.624 -4.647,0.438 -4.635,-1.896 -4.921,-2.147 -8.349,-3.839 -4.952,-2.443 -7.979,-4.875 -7.395,-8.172 0.391,-2.24 1.588,-3.365 2.875,-3.631 1.426,-0.292 4.484,0.574 5.306,3.344 l 1.282,1.142 c 0.958,0.656 1.428,0.984 1.928,1.27 0.869,0.5 1.765,1.083 3.41,2.151 2.907,1.901 5.36,4.855 5.36,4.855 1.031,0.702 0.23,2.442 0.23,2.442"
     id="path136" />
  <path
     style="fill:none;stroke:#231f20;stroke-width:0.565977;stroke-linecap:butt;stroke-linejoin:miter;stroke-miterlimit:4;stroke-dasharray:none;stroke-opacity:1"
     d="m 128.59153,63.78983 c -1.532,3.708 -4.204,0.624 -4.647,0.438 -4.635,-1.896 -4.921,-2.147 -8.349,-3.839 -4.952,-2.443 -7.979,-4.875 -7.395,-8.172 0.391,-2.24 1.588,-3.365 2.875,-3.631 1.426,-0.292 4.484,0.574 5.306,3.344 l 1.282,1.142 c 0.958,0.656 1.428,0.984 1.928,1.27 0.869,0.5 1.765,1.083 3.41,2.151 2.907,1.901 5.36,4.855 5.36,4.855 1.031,0.702 0.23,2.442 0.23,2.442 z"
     id="path137" />
  <path
     style="fill:#0098c9;fill-opacity:1;fill-rule:nonzero;stroke:none"
     d="m 111.68953,48.46183 c -1.317,0.052 -2.682,0.958 -3.442,3.099 -0.495,1.385 -0.251,2.729 0.536,4.067 0.312,0.996 0.532,1.584 1.297,1.844 0.068,0.026 0.135,0.062 0.208,0.1 0.401,0.421 0.839,0.848 1.333,1.28 l 4.746,-6.208 c -0.344,-2.87 -3.219,-4.235 -4.678,-4.182"
     id="path138" />
  <path
     style="fill:none;stroke:#231f20;stroke-width:0.565977;stroke-linecap:butt;stroke-linejoin:miter;stroke-miterlimit:4;stroke-dasharray:none;stroke-opacity:1"
     d="m 111.68953,48.46183 c -1.317,0.052 -2.682,0.958 -3.442,3.099 -0.495,1.385 -0.251,2.729 0.536,4.067 0.312,0.996 0.532,1.584 1.297,1.844 0.068,0.026 0.135,0.062 0.208,0.1 0.401,0.421 0.839,0.848 1.333,1.28 l 4.746,-6.208 c -0.344,-2.87 -3.219,-4.235 -4.678,-4.182 z"
     id="path139" />
  <path
     style="fill:#231f20;fill-opacity:1;fill-rule:nonzero;stroke:none"
     d="m 75.611534,39.87813 c 0.349,0.5417 2.224,1.0827 3.474,2.0877 0.848,0.683 3.506,1.376 4.302,2.115 0.724,0.677 1.12,0.917 2.037,0.219 0.541,-0.411 1.317,-1.562 1.031,-1.979 -0.678,-0.979 -1.479,-1.489 -2.479,-1.859 -1.141,-0.4224 -4.333,-1.2917 -4.937,-1.3957 -1.506,-0.256 -1.996,-0.808 -2.387,-0.912 -0.733,-0.2027 -0.989,0.0267 -1.224,0.4733 -0.443,0.8547 0.183,1.2507 0.183,1.2507"
     id="path140" />
  <path
     style="fill:none;stroke:#231f20;stroke-width:0.565977;stroke-linecap:butt;stroke-linejoin:miter;stroke-miterlimit:4;stroke-dasharray:none;stroke-opacity:1"
     d="m 75.611534,39.87813 c 0.349,0.5417 2.224,1.0827 3.474,2.0877 0.848,0.683 3.506,1.376 4.302,2.115 0.724,0.677 1.12,0.917 2.037,0.219 0.541,-0.411 1.317,-1.562 1.031,-1.979 -0.678,-0.979 -1.479,-1.489 -2.479,-1.859 -1.141,-0.4224 -4.333,-1.2917 -4.937,-1.3957 -1.506,-0.256 -1.996,-0.808 -2.387,-0.912 -0.733,-0.2027 -0.989,0.0267 -1.224,0.4733 -0.443,0.8547 0.183,1.2507 0.183,1.2507 z"
     id="path141" />
  <path
     style="fill:#231f20;fill-opacity:1;fill-rule:nonzero;stroke:none"
     d="m 83.867534,43.61283 c -0.402,1.229 1.618,1.495 2.14,1.645 0.521,0.156 1.958,0.756 3.01,1.366 1.063,0.614 2.646,0.926 4.667,2.082 1.063,0.61 2.479,0.536 3.297,-1.041 0.807,-1.557 0.234,-2.599 -1.157,-3.147 -1.396,-0.546 -2.937,-0.462 -4.38,-0.916 -1.443,-0.448 -2.869,-1.041 -3.968,-1.562 -1.251,-0.588 -2.084,-0.412 -2.443,-0.099 -0.89,0.797 -1.166,1.672 -1.166,1.672"
     id="path142" />
  <path
     style="fill:none;stroke:#231f20;stroke-width:0.565977;stroke-linecap:butt;stroke-linejoin:miter;stroke-miterlimit:4;stroke-dasharray:none;stroke-opacity:1"
     d="m 83.867534,43.61283 c -0.402,1.229 1.618,1.495 2.14,1.645 0.521,0.156 1.958,0.756 3.01,1.366 1.063,0.614 2.646,0.926 4.667,2.082 1.063,0.61 2.479,0.536 3.297,-1.041 0.807,-1.557 0.234,-2.599 -1.157,-3.147 -1.396,-0.546 -2.937,-0.462 -4.38,-0.916 -1.443,-0.448 -2.869,-1.041 -3.968,-1.562 -1.251,-0.588 -2.084,-0.412 -2.443,-0.099 -0.89,0.797 -1.166,1.672 -1.166,1.672 z"
     id="path143" />
  <path
     style="fill:#231f20;fill-opacity:1;fill-rule:nonzero;stroke:none"
     d="m 145.75753,13.06083 c -0.996,-0.912 -1.881,-0.4693 -2.292,0.484 -0.12,0.2814 -0.516,0.4014 -0.614,0.688 -0.224,0.6667 0.604,2.1974 2.062,1.8334 0.099,-0.0267 0.922,0.0146 1.536,-0.0427 1.208,-0.1187 3.563,-0.948 4.708,-3.3907 0.548,-1.1506 -0.233,-1.26 -0.598,-0.8586 -1.146,1.2706 -1.495,1.1613 -1.922,1.38 -1.428,0.7706 -2.88,-0.0934 -2.88,-0.0934"
     id="path144" />
  <path
     style="fill:none;stroke:#231f20;stroke-width:0.332927;stroke-linecap:butt;stroke-linejoin:miter;stroke-miterlimit:4;stroke-dasharray:none;stroke-opacity:1"
     d="m 145.75753,13.06083 c -0.996,-0.912 -1.881,-0.4693 -2.292,0.484 -0.12,0.2814 -0.516,0.4014 -0.614,0.688 -0.224,0.6667 0.604,2.1974 2.062,1.8334 0.099,-0.0267 0.922,0.0146 1.536,-0.0427 1.208,-0.1187 3.563,-0.948 4.708,-3.3907 0.548,-1.1506 -0.233,-1.26 -0.598,-0.8586 -1.146,1.2706 -1.495,1.1613 -1.922,1.38 -1.428,0.7706 -2.88,-0.0934 -2.88,-0.0934 z"
     id="path145" />
  <path
     style="fill:#231f20;fill-opacity:1;fill-rule:nonzero;stroke:none"
     d="m 127.65753,17.95153 c -0.686,-2.156 -0.525,-2.672 0.366,-3.0213 0.593,-0.2294 1.062,-0.656 1.421,-0.812 1.183,-0.5267 3.391,-0.9334 9.959,-0.4427 1.489,0.1093 3.578,0.2547 4.437,0.2387 1.355,-0.0147 0.464,2.2506 -0.068,2.2613 -1.719,0.0413 -2.885,0.2027 -3.505,0.3067 -0.427,0.0626 -1.187,0.084 -2.782,0.5573 -2.426,0.7133 -3.765,1.5053 -5.853,1.8653 -0.964,0.1707 -1.589,0.9107 -2.62,0.588 -1.041,-0.312 -1.355,-1.5413 -1.355,-1.5413"
     id="path146" />
  <path
     style="fill:none;stroke:#231f20;stroke-width:0.565977;stroke-linecap:butt;stroke-linejoin:miter;stroke-miterlimit:4;stroke-dasharray:none;stroke-opacity:1"
     d="m 127.65753,17.95153 c -0.686,-2.156 -0.525,-2.672 0.366,-3.0213 0.593,-0.2294 1.062,-0.656 1.421,-0.812 1.183,-0.5267 3.391,-0.9334 9.959,-0.4427 1.489,0.1093 3.578,0.2547 4.437,0.2387 1.355,-0.0147 0.464,2.2506 -0.068,2.2613 -1.719,0.0413 -2.885,0.2027 -3.505,0.3067 -0.427,0.0626 -1.187,0.084 -2.782,0.5573 -2.426,0.7133 -3.765,1.5053 -5.853,1.8653 -0.964,0.1707 -1.589,0.9107 -2.62,0.588 -1.041,-0.312 -1.355,-1.5413 -1.355,-1.5413 z"
     id="path147" />
  <path
     style="fill:#0098c9;fill-opacity:1;fill-rule:nonzero;stroke:none"
     d="m 101.24753,22.79023 c 2.677,-1.636 3.068,-2.276 3.604,-3.0267 3.353,-4.7133 5.604,-2.9787 6.63,-0.2867 1.219,3.1614 1.719,4.276 -3.938,7.0373 -1.572,0.76 -7.228,4.4947 -7.228,4.4947 -1.843996,1.6093 -4.499996,2.192 -5.829996,1.588 -1.394,-0.6307 -0.79,-0.484 -1.978,-1.3027 -1.131,-0.7853 -2.052,-2.7706 -1.526,-3.8946 0.495,-1.0734 2.156,-1.2454 4.515,-1.8027 1.855,-0.4427 5.750996,-2.8066 5.750996,-2.8066"
     id="path148" />
  <path
     style="fill:none;stroke:#231f20;stroke-width:0.565977;stroke-linecap:butt;stroke-linejoin:miter;stroke-miterlimit:4;stroke-dasharray:none;stroke-opacity:1"
     d="m 101.24753,22.79023 c 2.677,-1.636 3.068,-2.276 3.604,-3.0267 3.353,-4.7133 5.604,-2.9787 6.63,-0.2867 1.219,3.1614 1.719,4.276 -3.938,7.0373 -1.572,0.76 -7.228,4.4947 -7.228,4.4947 -1.843996,1.6093 -4.499996,2.192 -5.829996,1.588 -1.394,-0.6307 -0.79,-0.484 -1.978,-1.3027 -1.131,-0.7853 -2.052,-2.7706 -1.526,-3.8946 0.495,-1.0734 2.156,-1.2454 4.515,-1.8027 1.855,-0.4427 5.750996,-2.8066 5.750996,-2.8066 z"
     id="path149" />
  <path
     style="fill:#ffffff;fill-opacity:1;fill-rule:nonzero;stroke:none"
     d="m 89.293534,36.52883 c -0.172,0.1773 0.412,1.1666 -0.021,1.464 -0.432,0.3013 -1.031,-0.2134 -2.995,0.104 l -0.016,0.0053 c -1.432,0.2813 -2.78,-0.0467 -3.572,-1.0213 -1.317,-1.6093 -0.604,-4.3587 1.583,-6.14 2.188,-1.792 5.027,-1.932 6.339,-0.3227 1.26,1.536 0.656,4.1294 -1.318,5.9107"
     id="path150" />
  <path
     style="fill:none;stroke:#231f20;stroke-width:0.565977;stroke-linecap:butt;stroke-linejoin:miter;stroke-miterlimit:4;stroke-dasharray:none;stroke-opacity:1"
     d="m 89.293534,36.52883 c -0.172,0.1773 0.412,1.1666 -0.021,1.464 -0.432,0.3013 -1.031,-0.2134 -2.995,0.104 l -0.016,0.0053 c -1.432,0.2813 -2.78,-0.0467 -3.572,-1.0213 -1.317,-1.6093 -0.604,-4.3587 1.583,-6.14 2.188,-1.792 5.027,-1.932 6.339,-0.3227 1.26,1.536 0.656,4.1294 -1.318,5.9107 z"
     id="path151" />
  <path
     style="fill:#231f20;fill-opacity:1;fill-rule:nonzero;stroke:none"
     d="m 129.77753,16.68483 c 1.538,3.704 -2.53,3.4174 -2.973,3.5947 -4.62,1.9427 -5,1.9627 -8.62,3.1973 -5.229,1.776 -9.089,2.1933 -11.011,-0.5467 -1.302,-1.8639 -1.249,-3.5053 -0.525,-4.6039 0.801,-1.2187 3.572,-2.7707 6.113,-1.3907 l 1.715,-0.0987 c 1.135,-0.2133 1.703,-0.3133 2.26,-0.464 0.969,-0.26 2.016,-0.484 3.932,-0.8853 3.401,-0.724 7.224,-0.3693 7.224,-0.3693 1.224,-0.2294 1.885,1.5666 1.885,1.5666"
     id="path152" />
  <path
     style="fill:none;stroke:#231f20;stroke-width:0.565977;stroke-linecap:butt;stroke-linejoin:miter;stroke-miterlimit:4;stroke-dasharray:none;stroke-opacity:1"
     d="m 129.77753,16.68483 c 1.538,3.704 -2.53,3.4174 -2.973,3.5947 -4.62,1.9427 -5,1.9627 -8.62,3.1973 -5.229,1.776 -9.089,2.1933 -11.011,-0.5467 -1.302,-1.8639 -1.249,-3.5053 -0.525,-4.6039 0.801,-1.2187 3.572,-2.7707 6.113,-1.3907 l 1.715,-0.0987 c 1.135,-0.2133 1.703,-0.3133 2.26,-0.464 0.969,-0.26 2.016,-0.484 3.932,-0.8853 3.401,-0.724 7.224,-0.3693 7.224,-0.3693 1.224,-0.2294 1.885,1.5666 1.885,1.5666 z"
     id="path153" />
  <path
     style="fill:#0098c9;fill-opacity:1;fill-rule:nonzero;stroke:none"
     d="m 114.28853,25.19553 -1.036,-7.744 c -2.267,-1.7867 -5.267,-0.7133 -6.261,0.3533 -0.896,0.9694 -1.219,2.5734 -0.244,4.6254 0.634,1.3279 1.749,2.1039 3.254,2.4946 0.927,0.48 1.495,0.7453 2.219,0.3907 0.068,-0.0307 0.141,-0.0574 0.219,-0.0774 0.589,0.0094 1.198,0.004 1.849,-0.0426"
     id="path154" />
  <path
     style="fill:none;stroke:#231f20;stroke-width:0.565977;stroke-linecap:butt;stroke-linejoin:miter;stroke-miterlimit:4;stroke-dasharray:none;stroke-opacity:1"
     d="m 114.28853,25.19553 -1.036,-7.744 c -2.267,-1.7867 -5.267,-0.7133 -6.261,0.3533 -0.896,0.9694 -1.219,2.5734 -0.244,4.6254 0.634,1.3279 1.749,2.1039 3.254,2.4946 0.927,0.48 1.495,0.7453 2.219,0.3907 0.068,-0.0307 0.141,-0.0574 0.219,-0.0774 0.589,0.0094 1.198,0.004 1.849,-0.0426 z"
     id="path155" />
  <path
     style="fill:#231f20;fill-opacity:1;fill-rule:nonzero;stroke:none"
     d="m 75.413534,37.24213 c 0.626,0.1413 2.334,-0.8013 3.932,-0.9733 1.083,-0.12 3.448,-1.5107 4.531,-1.5467 0.995,-0.0373 1.448,-0.1466 1.6,-1.2866 0.088,-0.6774 -0.167,-2.0414 -0.672,-2.1307 -1.172,-0.2133 -2.095,-0.0107 -3.063,0.4373 -1.109,0.5107 -3.98,2.152 -4.484,2.5054 -1.24,0.8813 -1.98,0.8386 -2.329,1.0426 -0.661,0.3747 -0.681,0.724 -0.531,1.2027 0.292,0.912 1.016,0.7493 1.016,0.7493"
     id="path156" />
  <path
     style="fill:none;stroke:#231f20;stroke-width:0.565977;stroke-linecap:butt;stroke-linejoin:miter;stroke-miterlimit:4;stroke-dasharray:none;stroke-opacity:1"
     d="m 75.413534,37.24213 c 0.626,0.1413 2.334,-0.8013 3.932,-0.9733 1.083,-0.12 3.448,-1.5107 4.531,-1.5467 0.995,-0.0373 1.448,-0.1466 1.6,-1.2866 0.088,-0.6774 -0.167,-2.0414 -0.672,-2.1307 -1.172,-0.2133 -2.095,-0.0107 -3.063,0.4373 -1.109,0.5107 -3.98,2.152 -4.484,2.5054 -1.24,0.8813 -1.98,0.8386 -2.329,1.0426 -0.661,0.3747 -0.681,0.724 -0.531,1.2027 0.292,0.912 1.016,0.7493 1.016,0.7493 z"
     id="path157" />
  <path
     style="fill:#231f20;fill-opacity:1;fill-rule:nonzero;stroke:none"
     d="m 83.892534,34.05013 c 0.584,1.1507 2.199,-0.0893 2.672,-0.3493 0.479,-0.26 1.917,-0.8493 3.099,-1.1667 1.182,-0.3173 2.521,-1.2186 4.77,-1.8226 1.183,-0.3227 2.131,-1.3747 1.595,-3.068 -0.532,-1.672 -1.672,-2.0054 -3.043,-1.4054 -1.369,0.5987 -2.405,1.744 -3.744,2.4467 -1.338,0.6987 -2.765,1.2867 -3.912,1.6987 -1.301,0.464 -1.77,1.1826 -1.796,1.6613 -0.073,1.1933 0.359,2.0053 0.359,2.0053"
     id="path158" />
  <path
     style="fill:none;stroke:#231f20;stroke-width:0.565977;stroke-linecap:butt;stroke-linejoin:miter;stroke-miterlimit:4;stroke-dasharray:none;stroke-opacity:1"
     d="m 83.892534,34.05013 c 0.584,1.1507 2.199,-0.0893 2.672,-0.3493 0.479,-0.26 1.917,-0.8493 3.099,-1.1667 1.182,-0.3173 2.521,-1.2186 4.77,-1.8226 1.183,-0.3227 2.131,-1.3747 1.595,-3.068 -0.532,-1.672 -1.672,-2.0054 -3.043,-1.4054 -1.369,0.5987 -2.405,1.744 -3.744,2.4467 -1.338,0.6987 -2.765,1.2867 -3.912,1.6987 -1.301,0.464 -1.77,1.1826 -1.796,1.6613 -0.073,1.1933 0.359,2.0053 0.359,2.0053 z"
     id="path159" />
  <path
     style="fill:#231f20;fill-opacity:1;fill-rule:nonzero;stroke:none"
     d="m 246.25753,42.28983 c -0.16,-1.344 -1.13,-1.578 -2.06,-1.12 -0.27,0.13 -0.65,-0.037 -0.9,0.12 -0.61,0.364 -0.98,2.067 0.37,2.739 0.09,0.047 0.69,0.609 1.2,0.959 1,0.693 3.32,1.593 5.78,0.478 1.17,-0.525 0.64,-1.118 0.1,-1.041 -1.69,0.219 -1.89,-0.093 -2.36,-0.197 -1.58,-0.344 -2.13,-1.938 -2.13,-1.938"
     id="path160" />
  <path
     style="fill:none;stroke:#231f20;stroke-width:0.332927;stroke-linecap:butt;stroke-linejoin:miter;stroke-miterlimit:4;stroke-dasharray:none;stroke-opacity:1"
     d="m 246.25753,42.28983 c -0.16,-1.344 -1.13,-1.578 -2.06,-1.12 -0.27,0.13 -0.65,-0.037 -0.9,0.12 -0.61,0.364 -0.98,2.067 0.37,2.739 0.09,0.047 0.69,0.609 1.2,0.959 1,0.693 3.32,1.593 5.78,0.478 1.17,-0.525 0.64,-1.118 0.1,-1.041 -1.69,0.219 -1.89,-0.093 -2.36,-0.197 -1.58,-0.344 -2.13,-1.938 -2.13,-1.938 z"
     id="path161" />
  <path
     style="fill:#231f20;fill-opacity:1;fill-rule:nonzero;stroke:none"
     d="m 229.30753,34.27953 c 0.88,-2.0947 1.33,-2.38 2.24,-2.068 0.61,0.208 1.24,0.1933 1.6,0.2973 1.26,0.3693 3.2,1.4947 7.88,6.1186 1.06,1.0534 2.55,2.5164 3.22,3.0624 1.04,0.876 -1.1,2.016 -1.52,1.678 -1.33,-1.083 -2.33,-1.714 -2.87,-2.042 -0.36,-0.224 -0.95,-0.702 -2.48,-1.3744 -2.3,-1.0266 -3.83,-1.3026 -5.66,-2.376 -0.85,-0.5 -1.8,-0.3333 -2.38,-1.2546 -0.59,-0.912 -0.03,-2.0413 -0.03,-2.0413"
     id="path162" />
  <path
     style="fill:none;stroke:#231f20;stroke-width:0.565977;stroke-linecap:butt;stroke-linejoin:miter;stroke-miterlimit:4;stroke-dasharray:none;stroke-opacity:1"
     d="m 229.30753,34.27953 c 0.88,-2.0947 1.33,-2.38 2.24,-2.068 0.61,0.208 1.24,0.1933 1.6,0.2973 1.26,0.3693 3.2,1.4947 7.88,6.1186 1.06,1.0534 2.55,2.5164 3.22,3.0624 1.04,0.876 -1.1,2.016 -1.52,1.678 -1.33,-1.083 -2.33,-1.714 -2.87,-2.042 -0.36,-0.224 -0.95,-0.702 -2.48,-1.3744 -2.3,-1.0266 -3.83,-1.3026 -5.66,-2.376 -0.85,-0.5 -1.8,-0.3333 -2.38,-1.2546 -0.59,-0.912 -0.03,-2.0413 -0.03,-2.0413 z"
     id="path163" />
  <path
     style="fill:#0098c9;fill-opacity:1;fill-rule:nonzero;stroke:none"
     d="m 208.08753,18.75823 c 2.68,1.6146 3.44,1.6666 4.35,1.792 5.73,0.792 5.23,3.5879 3.32,5.7493 -2.24,2.548 -3,3.5053 -8.06,-0.2334 -1.41,-1.048 -7.33,-4.3279 -7.33,-4.3279 -2.28,-0.8907 -4.03,-2.98 -4.11,-4.4334 -0.08,-1.5306 0.07,-0.9266 0.24,-2.3586 0.18,-1.3707 1.51,-3.0987 2.75,-3.156 1.18,-0.0574 2.1,1.3333 3.69,3.1666 1.25,1.4427 5.15,3.8014 5.15,3.8014"
     id="path164" />
  <path
     style="fill:none;stroke:#231f20;stroke-width:0.565977;stroke-linecap:butt;stroke-linejoin:miter;stroke-miterlimit:4;stroke-dasharray:none;stroke-opacity:1"
     d="m 208.08753,18.75823 c 2.68,1.6146 3.44,1.6666 4.35,1.792 5.73,0.792 5.23,3.5879 3.32,5.7493 -2.24,2.548 -3,3.5053 -8.06,-0.2334 -1.41,-1.048 -7.33,-4.3279 -7.33,-4.3279 -2.28,-0.8907 -4.03,-2.98 -4.11,-4.4334 -0.08,-1.5306 0.07,-0.9266 0.24,-2.3586 0.18,-1.3707 1.51,-3.0987 2.75,-3.156 1.18,-0.0574 2.1,1.3333 3.69,3.1666 1.25,1.4427 5.15,3.8014 5.15,3.8014 z"
     id="path165" />
  <path
     style="fill:#ffffff;fill-opacity:1;fill-rule:nonzero;stroke:none"
     d="m 190.37253,14.51823 c -0.235,-0.072 -0.844,0.9013 -1.308,0.6573 -0.464,-0.2453 -0.287,-1.0107 -1.479,-2.604 l -0.01,-0.016 c -0.907,-1.136 -1.246,-2.484 -0.746,-3.6359999 0.814,-1.9106 3.584,-2.552 6.178,-1.4373 2.6,1.1093 4.04,3.5625999 3.22,5.4692999 -0.78,1.8227 -3.36,2.4947 -5.855,1.5667"
     id="path166" />
  <path
     style="fill:none;stroke:#231f20;stroke-width:0.565977;stroke-linecap:butt;stroke-linejoin:miter;stroke-miterlimit:4;stroke-dasharray:none;stroke-opacity:1"
     d="m 190.37253,14.51823 c -0.235,-0.072 -0.844,0.9013 -1.308,0.6573 -0.464,-0.2453 -0.287,-1.0107 -1.479,-2.604 l -0.01,-0.016 c -0.907,-1.136 -1.246,-2.484 -0.746,-3.6359999 0.814,-1.9106 3.584,-2.552 6.178,-1.4373 2.6,1.1093 4.04,3.5625999 3.22,5.4692999 -0.78,1.8227 -3.36,2.4947 -5.855,1.5667 z"
     id="path167" />
  <path
     style="fill:#231f20;fill-opacity:1;fill-rule:nonzero;stroke:none"
     d="m 231.74753,34.68483 c -1.24,3.8186 -4.14,0.9533 -4.6,0.8133 -4.78,-1.5213 -5.08,-1.756 -8.63,-3.1666 -5.14,-2.0374 -8.34,-4.224 -8.03,-7.5574 0.21,-2.2599 1.32,-3.4746 2.58,-3.8493 1.4,-0.4013 4.52,0.2134 5.56,2.912 l 1.36,1.036 c 1.01,0.5733 1.51,0.8693 2.03,1.1147 0.91,0.4266 1.85,0.9426 3.57,1.8746 3.06,1.656 5.74,4.4067 5.74,4.4067 1.08,0.6147 0.42,2.416 0.42,2.416"
     id="path168" />
  <path
     style="fill:none;stroke:#231f20;stroke-width:0.565977;stroke-linecap:butt;stroke-linejoin:miter;stroke-miterlimit:4;stroke-dasharray:none;stroke-opacity:1"
     d="m 231.74753,34.68483 c -1.24,3.8186 -4.14,0.9533 -4.6,0.8133 -4.78,-1.5213 -5.08,-1.756 -8.63,-3.1666 -5.14,-2.0374 -8.34,-4.224 -8.03,-7.5574 0.21,-2.2599 1.32,-3.4746 2.58,-3.8493 1.4,-0.4013 4.52,0.2134 5.56,2.912 l 1.36,1.036 c 1.01,0.5733 1.51,0.8693 2.03,1.1147 0.91,0.4266 1.85,0.9426 3.57,1.8746 3.06,1.656 5.74,4.4067 5.74,4.4067 1.08,0.6147 0.42,2.416 0.42,2.416 z"
     id="path169" />
  <path
     style="fill:#0098c9;fill-opacity:1;fill-rule:nonzero;stroke:#231f20;stroke-width:0.565977;stroke-linecap:butt;stroke-linejoin:miter;stroke-miterlimit:4;stroke-dasharray:none;stroke-opacity:1"
     d="m 218.66753,24.55013 c -0.57,-2.8333 -3.55,-3.9586 -5,-3.7919 -1.31,0.156 -2.6,1.1666 -3.18,3.3599 -0.38,1.4214 -0.03,2.7334 0.85,4.0107 0.4,0.9627 0.66,1.536 1.45,1.7387 0.06,0.0213 0.14,0.0466 0.21,0.084 0.44,0.3853 0.91,0.776 1.44,1.1666 z"
     id="path170" />
  <path
     style="fill:#231f20;fill-opacity:1;fill-rule:nonzero;stroke:none"
     d="m 201.42753,36.08083 c 0.36,-0.536 0.1,-2.468 0.51,-4.0253 0.28,-1.0467 -0.17,-3.7614 0.19,-4.7814 0.32,-0.9373 0.38,-1.4013 -0.63,-1.9533 -0.59,-0.328 -1.96,-0.5787 -2.23,-0.14 -0.62,1.0147 -0.76,1.948 -0.69,3.0147 0.08,1.2133 0.57,4.4893 0.72,5.084 0.38,1.4733 0.07,2.1506 0.13,2.552 0.12,0.7493 0.43,0.8906 0.93,0.9213 0.96,0.0626 1.07,-0.672 1.07,-0.672"
     id="path171" />
  <path
     style="fill:none;stroke:#231f20;stroke-width:0.565977;stroke-linecap:butt;stroke-linejoin:miter;stroke-miterlimit:4;stroke-dasharray:none;stroke-opacity:1"
     d="m 201.42753,36.08083 c 0.36,-0.536 0.1,-2.468 0.51,-4.0253 0.28,-1.0467 -0.17,-3.7614 0.19,-4.7814 0.32,-0.9373 0.38,-1.4013 -0.63,-1.9533 -0.59,-0.328 -1.96,-0.5787 -2.23,-0.14 -0.62,1.0147 -0.76,1.948 -0.69,3.0147 0.08,1.2133 0.57,4.4893 0.72,5.084 0.38,1.4733 0.07,2.1506 0.13,2.552 0.12,0.7493 0.43,0.8906 0.93,0.9213 0.96,0.0626 1.07,-0.672 1.07,-0.672 z"
     id="path172" />
  <path
     style="fill:#231f20;fill-opacity:1;fill-rule:nonzero;stroke:none"
     d="m 201.49753,27.01813 c 1.3,-0.1293 0.72,-2.0826 0.65,-2.6186 -0.08,-0.5427 -0.11,-2.0947 0.02,-3.308 0.13,-1.2187 -0.22,-2.7973 0.02,-5.1093 0.13,-1.2134 -0.52,-2.4787 -2.29,-2.588 -1.75,-0.1094 -2.47,0.8333 -2.41,2.328 0.07,1.4946 0.77,2.8693 0.94,4.3746 0.17,1.5 0.2,3.0467 0.18,4.26 -0.03,1.3813 0.46,2.0787 0.89,2.276 1.1,0.496 2,0.3853 2,0.3853"
     id="path173" />
  <path
     style="fill:none;stroke:#231f20;stroke-width:0.565977;stroke-linecap:butt;stroke-linejoin:miter;stroke-miterlimit:4;stroke-dasharray:none;stroke-opacity:1"
     d="m 201.49753,27.01813 c 1.3,-0.1293 0.72,-2.0826 0.65,-2.6186 -0.08,-0.5427 -0.11,-2.0947 0.02,-3.308 0.13,-1.2187 -0.22,-2.7973 0.02,-5.1093 0.13,-1.2134 -0.52,-2.4787 -2.29,-2.588 -1.75,-0.1094 -2.47,0.8333 -2.41,2.328 0.07,1.4946 0.77,2.8693 0.94,4.3746 0.17,1.5 0.2,3.0467 0.18,4.26 -0.03,1.3813 0.46,2.0787 0.89,2.276 1.1,0.496 2,0.3853 2,0.3853 z"
     id="path174" />
  <path
     style="fill:#ffffff;fill-opacity:1;fill-rule:nonzero;stroke:none"
     d="m 198.67753,37.59143 c 0.33,-0.9733 1.38,-1.4999 2.36,-1.1773 0.97,0.328 1.5,1.3853 1.17,2.36 -0.33,0.9733 -1.38,1.4997 -2.35,1.172 -0.98,-0.328 -1.5,-1.38 -1.18,-2.3547"
     id="path175" />
  <path
     style="fill:none;stroke:#231f20;stroke-width:1.33171;stroke-linecap:butt;stroke-linejoin:miter;stroke-miterlimit:4;stroke-dasharray:none;stroke-opacity:1"
     d="m 198.67753,37.59143 c 0.33,-0.9733 1.38,-1.4999 2.36,-1.1773 0.97,0.328 1.5,1.3853 1.17,2.36 -0.33,0.9733 -1.38,1.4997 -2.35,1.172 -0.98,-0.328 -1.5,-1.38 -1.18,-2.3547 z"
     id="path176" />
  <path
     style="fill:#ffffff;fill-opacity:1;fill-rule:nonzero;stroke:none"
     d="m 72.381534,37.59143 c 0.328,-0.9733 1.386,-1.4999 2.36,-1.1773 0.974,0.328 1.5,1.3853 1.172,2.36 -0.328,0.9733 -1.38,1.4997 -2.354,1.172 -0.974,-0.328 -1.5,-1.38 -1.178,-2.3547"
     id="path177" />
  <path
     style="fill:none;stroke:#231f20;stroke-width:1.33171;stroke-linecap:butt;stroke-linejoin:miter;stroke-miterlimit:4;stroke-dasharray:none;stroke-opacity:1"
     d="m 72.381534,37.59143 c 0.328,-0.9733 1.386,-1.4999 2.36,-1.1773 0.974,0.328 1.5,1.3853 1.172,2.36 -0.328,0.9733 -1.38,1.4997 -2.354,1.172 -0.974,-0.328 -1.5,-1.38 -1.178,-2.3547 z"
     id="path178" />
  <path
     style="fill:none;stroke:#231f20;stroke-width:0.399514;stroke-linecap:butt;stroke-linejoin:miter;stroke-miterlimit:4;stroke-dasharray:none;stroke-opacity:1"
     d="m 32.236532,79.22783 c 11.083002,24.062 45.083002,19.181 51.464002,15.718"
     id="path179" />
  <path
     style="fill:#231f20;fill-opacity:1;fill-rule:nonzero;stroke:none"
     d="m 84.757534,94.36783 c -0.396,0.458 -0.844,1.109 -1.048,1.65 l -0.15,-1 -0.755,-0.67 c 0.563,0.129 1.353,0.109 1.953,0.02"
     id="path180" />
  <path
     style="fill:none;stroke:#231f20;stroke-width:0.399514;stroke-linecap:butt;stroke-linejoin:miter;stroke-miterlimit:4;stroke-dasharray:none;stroke-opacity:1"
     d="m 113.52853,89.15383 c 26.151,-4.202 30.599,-38.26 28.979,-45.338"
     id="path181" />
  <path
     style="fill:#231f20;fill-opacity:1;fill-rule:nonzero;stroke:none"
     d="m 142.23653,42.64383 c 0.333,0.505 0.839,1.109 1.307,1.453 l -1,-0.125 -0.854,0.546 c 0.276,-0.509 0.468,-1.276 0.547,-1.874"
     id="path182" />
  <path
     style="fill:none;stroke:#231f20;stroke-width:0.399514;stroke-linecap:butt;stroke-linejoin:miter;stroke-miterlimit:4;stroke-dasharray:none;stroke-opacity:1"
     d="m 240.07753,31.67553 c 2.81,-8.5214 3.24,-16.584 2.54,-19.636"
     id="path183" />
  <path
     style="fill:#231f20;fill-opacity:1;fill-rule:nonzero;stroke:none"
     d="m 242.34753,10.86223 c 0.33,0.5106 0.84,1.1146 1.3,1.4533 l -1,-0.12 -0.84,0.5467 c 0.27,-0.5094 0.46,-1.276 0.54,-1.88"
     id="path184" />
</svg>
