<?xml version="1.0" encoding="UTF-8" standalone="no"?>
<!-- Created with Inkscape (http://www.inkscape.org/) -->

<svg
   version="1.1"
   id="svg1"
   width="352.57492"
   height="150.54095"
   viewBox="0 0 352.57491 150.54095"
   sodipodi:docname="cell.svg"
   xmlns:inkscape="http://www.inkscape.org/namespaces/inkscape"
   xmlns:sodipodi="http://sodipodi.sourceforge.net/DTD/sodipodi-0.dtd"
   xmlns="http://www.w3.org/2000/svg"
   xmlns:svg="http://www.w3.org/2000/svg">
  <sodipodi:namedview
     id="namedview1"
     pagecolor="#ffffff"
     bordercolor="#000000"
     borderopacity="0.25"
     inkscape:showpageshadow="2"
     inkscape:pageopacity="0.0"
     inkscape:pagecheckerboard="0"
     inkscape:deskcolor="#d1d1d1">
    <inkscape:page
       x="0"
       y="0"
       inkscape:label="1"
       id="page1"
       width="352.57492"
       height="150.54095"
       margin="0"
       bleed="0" />
  </sodipodi:namedview>
  <defs
     id="defs1" />
  <path
     style="fill:#231f20;fill-opacity:1;fill-rule:nonzero;stroke:none"
     d="m 5.5250502,75.237814 c 0.3334,1.307 1.3171998,1.422 2.1813998,0.85 0.2614,-0.167 0.6561,-0.048 0.8962,-0.235 0.5522,-0.437 0.6932,-2.177 -0.7238,-2.661 -0.0991,-0.038 -0.7548,-0.522 -1.3068,-0.808 -1.0786998,-0.563 -3.4999998,-1.162 -5.79749984,0.25 -1.088,0.672 -0.4896,1.187 0.0308,1.052 1.65200004,-0.432 1.88640004,-0.152 2.35990004,-0.104 1.6145,0.14 2.3598,1.656 2.3598,1.656"
     id="path188" />
  <path
     style="fill:none;stroke:#231f20;stroke-width:0.332927;stroke-linecap:butt;stroke-linejoin:miter;stroke-miterlimit:4;stroke-dasharray:none;stroke-opacity:1"
     d="m 5.5250502,75.237814 c 0.3334,1.307 1.3171998,1.422 2.1813998,0.85 0.2614,-0.167 0.6561,-0.048 0.8962,-0.235 0.5522,-0.437 0.6932,-2.177 -0.7238,-2.661 -0.0991,-0.038 -0.7548,-0.522 -1.3068,-0.808 -1.0786998,-0.563 -3.4999998,-1.162 -5.79749984,0.25 -1.088,0.672 -0.4896,1.187 0.0308,1.052 1.65200004,-0.432 1.88640004,-0.152 2.35990004,-0.104 1.6145,0.14 2.3598,1.656 2.3598,1.656 z"
     id="path189" />
  <path
     style="fill:#231f20;fill-opacity:1;fill-rule:nonzero;stroke:none"
     d="m 23.34795,81.060814 c -0.6093,2.183 -1.0213,2.527 -1.9588,2.328 -0.6256,-0.131 -1.2505,-0.036 -1.636,-0.099 -1.2812,-0.202 -3.3478,-1.078 -8.5718,-5.078 -1.1828,-0.911 -2.8547,-2.178 -3.5844,-2.635 -1.1396,-0.735 0.8443,-2.141 1.2975,-1.855 1.4587,0.902 2.5254,1.412 3.1041,1.662 0.3854,0.177 1.0306,0.578 2.6254,1.057 2.4267,0.729 3.9787,0.803 5.9158,1.647 0.9066,0.385 1.8333,0.104 2.5213,0.942 0.6973,0.834 0.2869,2.031 0.2869,2.031"
     id="path190" />
  <path
     style="fill:none;stroke:#231f20;stroke-width:0.565977;stroke-linecap:butt;stroke-linejoin:miter;stroke-miterlimit:4;stroke-dasharray:none;stroke-opacity:1"
     d="m 23.34795,81.060814 c -0.6093,2.183 -1.0213,2.527 -1.9588,2.328 -0.6256,-0.131 -1.2505,-0.036 -1.636,-0.099 -1.2812,-0.202 -3.3478,-1.078 -8.5718,-5.078 -1.1828,-0.911 -2.8547,-2.178 -3.5844,-2.635 -1.1396,-0.735 0.8443,-2.141 1.2975,-1.855 1.4587,0.902 2.5254,1.412 3.1041,1.662 0.3854,0.177 1.0306,0.578 2.6254,1.057 2.4267,0.729 3.9787,0.803 5.9158,1.647 0.9066,0.385 1.8333,0.104 2.5213,0.942 0.6973,0.834 0.2869,2.031 0.2869,2.031 z"
     id="path191" />
  <path
     style="fill:#0098c9;fill-opacity:1;fill-rule:nonzero;stroke:none"
     d="m 47.84795,90.315814 c -3.1255,0.204 -3.776,0.584 -4.5948,1 -5.1615,2.609 -6.3479,0.032 -6.0052,-2.834 0.3865,-3.369 0.4641,-4.582 6.7557,-4.394 1.7495,0.057 8.4896,-0.615 8.4896,-0.615 2.3797,-0.568 5.0052,0.151 5.901,1.296 0.9427,1.213 0.4787,0.803 1.1454,2.084 0.6416,1.219 0.527,3.401 -0.4574,4.151 -0.9385,0.724 -2.4906,0.104 -4.8385,-0.5 -1.8495,-0.474 -6.3958,-0.188 -6.3958,-0.188"
     id="path192" />
  <path
     style="fill:none;stroke:#231f20;stroke-width:0.565977;stroke-linecap:butt;stroke-linejoin:miter;stroke-miterlimit:4;stroke-dasharray:none;stroke-opacity:1"
     d="m 47.84795,90.315814 c -3.1255,0.204 -3.776,0.584 -4.5948,1 -5.1615,2.609 -6.3479,0.032 -6.0052,-2.834 0.3865,-3.369 0.4641,-4.582 6.7557,-4.394 1.7495,0.057 8.4896,-0.615 8.4896,-0.615 2.3797,-0.568 5.0052,0.151 5.901,1.296 0.9427,1.213 0.4787,0.803 1.1454,2.084 0.6416,1.219 0.527,3.401 -0.4574,4.151 -0.9385,0.724 -2.4906,0.104 -4.8385,-0.5 -1.8495,-0.474 -6.3958,-0.188 -6.3958,-0.188 z"
     id="path193" />
  <path
     style="fill:#ffffff;fill-opacity:1;fill-rule:nonzero;stroke:none"
     d="m 64.82135,83.705814 c 0.2344,-0.072 0.177,-1.224 0.6984,-1.285 0.5256,-0.063 0.812,0.671 2.6974,1.301 l 0.0214,0.006 c 1.3958,0.412 2.4369,1.333 2.6812,2.562 0.4224,2.036 -1.4896,4.14 -4.2547,4.703 -2.7651,0.568 -5.3494,-0.625 -5.7598,-2.661 -0.4016,-1.948 1.3385,-3.964 3.9161,-4.626"
     id="path194" />
  <path
     style="fill:none;stroke:#231f20;stroke-width:0.565977;stroke-linecap:butt;stroke-linejoin:miter;stroke-miterlimit:4;stroke-dasharray:none;stroke-opacity:1"
     d="m 64.82135,83.705814 c 0.2344,-0.072 0.177,-1.224 0.6984,-1.285 0.5256,-0.063 0.812,0.671 2.6974,1.301 l 0.0214,0.006 c 1.3958,0.412 2.4369,1.333 2.6812,2.562 0.4224,2.036 -1.4896,4.14 -4.2547,4.703 -2.7651,0.568 -5.3494,-0.625 -5.7598,-2.661 -0.4016,-1.948 1.3385,-3.964 3.9161,-4.626 z"
     id="path195" />
  <path
     style="fill:#231f20;fill-opacity:1;fill-rule:nonzero;stroke:none"
     d="m 20.87875,80.956814 c 0.7452,-3.937 3.9891,-1.469 4.4635,-1.38 4.927,0.911 5.2546,1.099 8.9536,2.052 5.3589,1.38 8.8119,3.145 8.9162,6.495 0.0728,2.27 -0.8699,3.614 -2.0776,4.14 -1.3387,0.573 -4.5105,0.354 -5.8761,-2.192 l -1.4891,-0.855 c -1.0681,-0.448 -1.5937,-0.672 -2.1453,-0.849 -0.9536,-0.312 -1.9536,-0.703 -3.776,-1.416 -3.2401,-1.255 -6.2453,-3.646 -6.2453,-3.646 -1.1511,-0.48 -0.7239,-2.349 -0.7239,-2.349"
     id="path196" />
  <path
     style="fill:none;stroke:#231f20;stroke-width:0.565977;stroke-linecap:butt;stroke-linejoin:miter;stroke-miterlimit:4;stroke-dasharray:none;stroke-opacity:1"
     d="m 20.87875,80.956814 c 0.7452,-3.937 3.9891,-1.469 4.4635,-1.38 4.927,0.911 5.2546,1.099 8.9536,2.052 5.3589,1.38 8.8119,3.145 8.9162,6.495 0.0728,2.27 -0.8699,3.614 -2.0776,4.14 -1.3387,0.573 -4.5105,0.354 -5.8761,-2.192 l -1.4891,-0.855 c -1.0681,-0.448 -1.5937,-0.672 -2.1453,-0.849 -0.9536,-0.312 -1.9536,-0.703 -3.776,-1.416 -3.2401,-1.255 -6.2453,-3.646 -6.2453,-3.646 -1.1511,-0.48 -0.7239,-2.349 -0.7239,-2.349 z"
     id="path197" />
  <path
     style="fill:#0098c9;fill-opacity:1;fill-rule:nonzero;stroke:none"
     d="m 41.94635,84.904814 c -0.5104,-0.912 -0.8495,-1.448 -1.6452,-1.547 -0.0735,-0.01 -0.1522,-0.032 -0.2292,-0.052 -0.4855,-0.333 -0.9948,-0.662 -1.5683,-0.98 l -3.3745,7.047 c 0.9215,2.735 4.0146,3.485 5.4318,3.131 1.2812,-0.318 2.4323,-1.479 2.7402,-3.73 0.1973,-1.458 -0.3131,-2.718 -1.3548,-3.869"
     id="path198" />
  <path
     style="fill:none;stroke:#231f20;stroke-width:0.565977;stroke-linecap:butt;stroke-linejoin:miter;stroke-miterlimit:4;stroke-dasharray:none;stroke-opacity:1"
     d="m 41.94635,84.904814 c -0.5104,-0.912 -0.8495,-1.448 -1.6452,-1.547 -0.0735,-0.01 -0.1522,-0.032 -0.2292,-0.052 -0.4855,-0.333 -0.9948,-0.662 -1.5683,-0.98 l -3.3745,7.047 c 0.9215,2.735 4.0146,3.485 5.4318,3.131 1.2812,-0.318 2.4323,-1.479 2.7402,-3.73 0.1973,-1.458 -0.3131,-2.718 -1.3548,-3.869 z"
     id="path199" />
  <path
     style="fill:#231f20;fill-opacity:1;fill-rule:nonzero;stroke:none"
     d="m 75.75825,80.795814 c -0.6292,-0.156 -2.3583,0.734 -3.9625,0.858 -1.0838,0.09 -3.4906,1.412 -4.5786,1.418 -0.9896,0.005 -1.448,0.104 -1.636,1.238 -0.1093,0.672 0.1146,2.043 0.6104,2.147 1.1667,0.249 2.099,0.068 3.0776,-0.349 1.1199,-0.479 4.0412,-2.036 4.5522,-2.37 1.2702,-0.844 2.0052,-0.781 2.3598,-0.974 0.6768,-0.359 0.7028,-0.703 0.5678,-1.187 -0.2667,-0.923 -0.9907,-0.781 -0.9907,-0.781"
     id="path200" />
  <path
     style="fill:none;stroke:#231f20;stroke-width:0.565977;stroke-linecap:butt;stroke-linejoin:miter;stroke-miterlimit:4;stroke-dasharray:none;stroke-opacity:1"
     d="m 75.75825,80.795814 c -0.6292,-0.156 -2.3583,0.734 -3.9625,0.858 -1.0838,0.09 -3.4906,1.412 -4.5786,1.418 -0.9896,0.005 -1.448,0.104 -1.636,1.238 -0.1093,0.672 0.1146,2.043 0.6104,2.147 1.1667,0.249 2.099,0.068 3.0776,-0.349 1.1199,-0.479 4.0412,-2.036 4.5522,-2.37 1.2702,-0.844 2.0052,-0.781 2.3598,-0.974 0.6768,-0.359 0.7028,-0.703 0.5678,-1.187 -0.2667,-0.923 -0.9907,-0.781 -0.9907,-0.781 z"
     id="path201" />
  <path
     style="fill:#231f20;fill-opacity:1;fill-rule:nonzero;stroke:none"
     d="m 67.19155,83.743814 c -0.5572,-1.172 -2.2093,0.02 -2.688,0.265 -0.4838,0.249 -1.9426,0.797 -3.1306,1.079 -1.1917,0.285 -2.5573,1.145 -4.8224,1.681 -1.1881,0.287 -2.1667,1.319 -1.6776,3.027 0.4801,1.686 1.6093,2.046 3,1.489 1.3853,-0.557 2.4484,-1.672 3.8135,-2.333 1.3532,-0.667 2.8015,-1.214 3.9573,-1.588 1.3134,-0.434 1.8025,-1.131 1.8442,-1.606 0.1036,-1.192 -0.2964,-2.014 -0.2964,-2.014"
     id="path202" />
  <path
     style="fill:none;stroke:#231f20;stroke-width:0.565977;stroke-linecap:butt;stroke-linejoin:miter;stroke-miterlimit:4;stroke-dasharray:none;stroke-opacity:1"
     d="m 67.19155,83.743814 c -0.5572,-1.172 -2.2093,0.02 -2.688,0.265 -0.4838,0.249 -1.9426,0.797 -3.1306,1.079 -1.1917,0.285 -2.5573,1.145 -4.8224,1.681 -1.1881,0.287 -2.1667,1.319 -1.6776,3.027 0.4801,1.686 1.6093,2.046 3,1.489 1.3853,-0.557 2.4484,-1.672 3.8135,-2.333 1.3532,-0.667 2.8015,-1.214 3.9573,-1.588 1.3134,-0.434 1.8025,-1.131 1.8442,-1.606 0.1036,-1.192 -0.2964,-2.014 -0.2964,-2.014 z"
     id="path203" />
  <path
     style="fill:#231f20;fill-opacity:1;fill-rule:nonzero;stroke:none"
     d="m 37.94635,129.89981 c 1.1828,0.65 1.9428,0.016 2.1146,-1.006 0.0572,-0.302 0.4162,-0.516 0.4479,-0.812 0.0579,-0.704 -1.1088,-2 -2.4369,-1.302 -0.0896,0.046 -0.8964,0.193 -1.4855,0.396 -1.1505,0.401 -3.2442,1.754 -3.7906,4.396 -0.2614,1.244 0.5256,1.172 0.7854,0.697 0.8188,-1.5 1.1823,-1.479 1.5427,-1.791 1.2131,-1.078 2.8224,-0.578 2.8224,-0.578"
     id="path204" />
  <path
     style="fill:none;stroke:#231f20;stroke-width:0.332927;stroke-linecap:butt;stroke-linejoin:miter;stroke-miterlimit:4;stroke-dasharray:none;stroke-opacity:1"
     d="m 37.94635,129.89981 c 1.1828,0.65 1.9428,0.016 2.1146,-1.006 0.0572,-0.302 0.4162,-0.516 0.4479,-0.812 0.0579,-0.704 -1.1088,-2 -2.4369,-1.302 -0.0896,0.046 -0.8964,0.193 -1.4855,0.396 -1.1505,0.401 -3.2442,1.754 -3.7906,4.396 -0.2614,1.244 0.5256,1.172 0.7854,0.697 0.8188,-1.5 1.1823,-1.479 1.5427,-1.791 1.2131,-1.078 2.8224,-0.578 2.8224,-0.578 z"
     id="path205" />
  <path
     style="fill:#231f20;fill-opacity:1;fill-rule:nonzero;stroke:none"
     d="m 54.41045,120.92081 c 1.1708,1.943 1.1401,2.473 0.3478,3.025 -0.5197,0.364 -0.8796,0.88 -1.1864,1.12 -1.0322,0.792 -3.0838,1.703 -9.5786,2.755 -1.4787,0.235 -3.5417,0.584 -4.3751,0.797 -1.317,0.328 -0.9796,-2.078 -0.4634,-2.213 1.6557,-0.437 2.7598,-0.871 3.3385,-1.115 0.3959,-0.161 1.1307,-0.36 2.5735,-1.188 2.1916,-1.265 3.312,-2.344 5.2546,-3.177 0.9011,-0.395 1.3333,-1.26 2.412,-1.187 1.088,0.063 1.6771,1.183 1.6771,1.183"
     id="path206" />
  <path
     style="fill:none;stroke:#231f20;stroke-width:0.565977;stroke-linecap:butt;stroke-linejoin:miter;stroke-miterlimit:4;stroke-dasharray:none;stroke-opacity:1"
     d="m 54.41045,120.92081 c 1.1708,1.943 1.1401,2.473 0.3478,3.025 -0.5197,0.364 -0.8796,0.88 -1.1864,1.12 -1.0322,0.792 -3.0838,1.703 -9.5786,2.755 -1.4787,0.235 -3.5417,0.584 -4.3751,0.797 -1.317,0.328 -0.9796,-2.078 -0.4634,-2.213 1.6557,-0.437 2.7598,-0.871 3.3385,-1.115 0.3959,-0.161 1.1307,-0.36 2.5735,-1.188 2.1916,-1.265 3.312,-2.344 5.2546,-3.177 0.9011,-0.395 1.3333,-1.26 2.412,-1.187 1.088,0.063 1.6771,1.183 1.6771,1.183 z"
     id="path207" />
  <path
     style="fill:#0098c9;fill-opacity:1;fill-rule:nonzero;stroke:none"
     d="m 77.95095,109.44081 c -1.9938,2.417 -2.1662,3.151 -2.4219,4.032 -1.6452,5.552 -4.3333,4.64 -6.1812,2.432 -2.188,-2.599 -3.0213,-3.484 1.4369,-7.937 1.2402,-1.235 5.3699,-6.6 5.3699,-6.6 1.2183,-2.118997 3.5463,-3.541997 4.9943,-3.399997 1.532,0.145 0.912,0.197 2.302,0.588 1.329,0.374 2.834,1.957997 2.709,3.181997 -0.12,1.183 -1.635,1.886 -3.688,3.178 -1.61,1.025 -4.521,4.525 -4.521,4.525"
     id="path208" />
  <path
     style="fill:none;stroke:#231f20;stroke-width:0.565977;stroke-linecap:butt;stroke-linejoin:miter;stroke-miterlimit:4;stroke-dasharray:none;stroke-opacity:1"
     d="m 77.95095,109.44081 c -1.9938,2.417 -2.1662,3.151 -2.4219,4.032 -1.6452,5.552 -4.3333,4.64 -6.1812,2.432 -2.188,-2.599 -3.0213,-3.484 1.4369,-7.937 1.2402,-1.235 5.3699,-6.6 5.3699,-6.6 1.2183,-2.118997 3.5463,-3.541997 4.9943,-3.399997 1.532,0.145 0.912,0.197 2.302,0.588 1.329,0.374 2.834,1.957997 2.709,3.181997 -0.12,1.183 -1.635,1.886 -3.688,3.178 -1.61,1.025 -4.521,4.525 -4.521,4.525 z"
     id="path209" />
  <path
     style="fill:#ffffff;fill-opacity:1;fill-rule:nonzero;stroke:none"
     d="m 84.78495,92.555814 c 0.104,-0.219 -0.765,-0.964 -0.453,-1.391 0.312,-0.421 1.041,-0.125 2.792,-1.068 l 0.02,-0.009 c 1.261,-0.735 2.641,-0.86 3.709,-0.194 1.765,1.088 1.989,3.922 0.5,6.323 -1.491,2.400999 -4.125,3.458999 -5.891,2.364999 -1.693,-1.041999 -1.969,-3.692999 -0.677,-6.025999"
     id="path210" />
  <path
     style="fill:none;stroke:#231f20;stroke-width:0.565977;stroke-linecap:butt;stroke-linejoin:miter;stroke-miterlimit:4;stroke-dasharray:none;stroke-opacity:1"
     d="m 84.78495,92.555814 c 0.104,-0.219 -0.765,-0.964 -0.453,-1.391 0.312,-0.421 1.041,-0.125 2.792,-1.068 l 0.02,-0.009 c 1.261,-0.735 2.641,-0.86 3.709,-0.194 1.765,1.088 1.989,3.922 0.5,6.323 -1.491,2.400999 -4.125,3.458999 -5.891,2.364999 -1.693,-1.041999 -1.969,-3.692999 -0.677,-6.025999 z"
     id="path211" />
  <path
     style="fill:#231f20;fill-opacity:1;fill-rule:nonzero;stroke:none"
     d="m 52.64375,122.64881 c -2.3589,-3.244 1.6667,-3.911 2.0573,-4.192 4.0375,-2.959 4.4015,-3.073 7.6359,-5.109 4.6776,-2.954 8.3281,-4.256 10.8385,-2.038 1.6975,1.511 2.0308,3.115 1.588,4.355 -0.5,1.369 -2.8385,3.521 -5.6291,2.771 l -1.6412,0.5 c -1.0573,0.474 -1.5828,0.698 -2.088,0.974 -0.8802,0.479 -1.8494,0.943 -3.6203,1.782 -3.1359,1.494 -6.937,2.041 -6.937,2.041 -1.1416,0.511 -2.2041,-1.084 -2.2041,-1.084"
     id="path212" />
  <path
     style="fill:none;stroke:#231f20;stroke-width:0.565977;stroke-linecap:butt;stroke-linejoin:miter;stroke-miterlimit:4;stroke-dasharray:none;stroke-opacity:1"
     d="m 52.64375,122.64881 c -2.3589,-3.244 1.6667,-3.911 2.0573,-4.192 4.0375,-2.959 4.4015,-3.073 7.6359,-5.109 4.6776,-2.954 8.3281,-4.256 10.8385,-2.038 1.6975,1.511 2.0308,3.115 1.588,4.355 -0.5,1.369 -2.8385,3.521 -5.6291,2.771 l -1.6412,0.5 c -1.0573,0.474 -1.5828,0.698 -2.088,0.974 -0.8802,0.479 -1.8494,0.943 -3.6203,1.782 -3.1359,1.494 -6.937,2.041 -6.937,2.041 -1.1416,0.511 -2.2041,-1.084 -2.2041,-1.084 z"
     id="path213" />
  <path
     style="fill:#0098c9;fill-opacity:1;fill-rule:nonzero;stroke:none"
     d="m 73.70625,111.69681 c -0.9215,-1.147 -2.1917,-1.641 -3.7439,-1.672 -1.0109,-0.251 -1.6306,-0.376 -2.2561,0.14 -0.0516,0.047 -0.1199,0.089 -0.1865,0.131 -0.5787,0.12 -1.1667,0.27 -1.7922,0.468 l 2.812,7.286 c 2.6203,1.208 5.2922,-0.53 6.0058,-1.801 0.6462,-1.147 0.589,-2.787 -0.8391,-4.552"
     id="path214" />
  <path
     style="fill:none;stroke:#231f20;stroke-width:0.565977;stroke-linecap:butt;stroke-linejoin:miter;stroke-miterlimit:4;stroke-dasharray:none;stroke-opacity:1"
     d="m 73.70625,111.69681 c -0.9215,-1.147 -2.1917,-1.641 -3.7439,-1.672 -1.0109,-0.251 -1.6306,-0.376 -2.2561,0.14 -0.0516,0.047 -0.1199,0.089 -0.1865,0.131 -0.5787,0.12 -1.1667,0.27 -1.7922,0.468 l 2.812,7.286 c 2.6203,1.208 5.2922,-0.53 6.0058,-1.801 0.6462,-1.147 0.589,-2.787 -0.8391,-4.552 z"
     id="path215" />
  <path
     style="fill:#231f20;fill-opacity:1;fill-rule:nonzero;stroke:none"
     d="m 90.16495,82.601814 c -0.541,0.355 -1.083,2.219 -2.088,3.475 -0.677,0.848 -1.371,3.505 -2.109,4.301 -0.677,0.724 -0.917,1.126 -0.219,2.043 0.411,0.536 1.561,1.317 1.979,1.025 0.978,-0.677 1.484,-1.473 1.858,-2.478 0.418,-1.142 1.287,-4.334 1.396,-4.938 0.257,-1.5 0.809,-1.996 0.912,-2.386 0.198,-0.734 -0.036,-0.99 -0.478,-1.223 -0.849,-0.444 -1.251,0.181 -1.251,0.181"
     id="path216" />
  <path
     style="fill:none;stroke:#231f20;stroke-width:0.565977;stroke-linecap:butt;stroke-linejoin:miter;stroke-miterlimit:4;stroke-dasharray:none;stroke-opacity:1"
     d="m 90.16495,82.601814 c -0.541,0.355 -1.083,2.219 -2.088,3.475 -0.677,0.848 -1.371,3.505 -2.109,4.301 -0.677,0.724 -0.917,1.126 -0.219,2.043 0.411,0.536 1.561,1.317 1.979,1.025 0.978,-0.677 1.484,-1.473 1.858,-2.478 0.418,-1.142 1.287,-4.334 1.396,-4.938 0.257,-1.5 0.809,-1.996 0.912,-2.386 0.198,-0.734 -0.036,-0.99 -0.478,-1.223 -0.849,-0.444 -1.251,0.181 -1.251,0.181 z"
     id="path217" />
  <path
     style="fill:#231f20;fill-opacity:1;fill-rule:nonzero;stroke:none"
     d="m 86.43595,90.857814 c -1.235,-0.401 -1.495,1.624 -1.645,2.14 -0.157,0.527 -0.757,1.959 -1.366,3.016 -0.615,1.063 -0.921,2.645999 -2.083,4.666996 -0.609,1.057 -0.532,2.473 1.047,3.292 1.557,0.812 2.599,0.239 3.14,-1.157 0.548,-1.395 0.469,-2.931997 0.922,-4.374997 0.449,-1.442999 1.037,-2.874999 1.558,-3.972999 0.588,-1.251 0.416,-2.09 0.099,-2.443 -0.798,-0.896 -1.672,-1.167 -1.672,-1.167"
     id="path218" />
  <path
     style="fill:none;stroke:#231f20;stroke-width:0.565977;stroke-linecap:butt;stroke-linejoin:miter;stroke-miterlimit:4;stroke-dasharray:none;stroke-opacity:1"
     d="m 86.43595,90.857814 c -1.235,-0.401 -1.495,1.624 -1.645,2.14 -0.157,0.527 -0.757,1.959 -1.366,3.016 -0.615,1.063 -0.921,2.645999 -2.083,4.666996 -0.609,1.057 -0.532,2.473 1.047,3.292 1.557,0.812 2.599,0.239 3.14,-1.157 0.548,-1.395 0.469,-2.931997 0.922,-4.374997 0.449,-1.442999 1.037,-2.874999 1.558,-3.972999 0.588,-1.251 0.416,-2.09 0.099,-2.443 -0.798,-0.896 -1.672,-1.167 -1.672,-1.167 z"
     id="path219" />
  <path
     style="fill:#231f20;fill-opacity:1;fill-rule:nonzero;stroke:none"
     d="m 139.13395,145.73281 c 0.375,-1.303 -0.422,-1.896 -1.453,-1.839 -0.313,0.016 -0.595,-0.286 -0.891,-0.245 -0.698,0.1 -1.698,1.527 -0.718,2.661 0.062,0.079 0.39,0.835 0.724,1.355 0.645,1.032 2.432,2.771 5.129,2.708 1.276,-0.031 1.021,-0.781 0.505,-0.921 -1.645,-0.459 -1.708,-0.823 -2.093,-1.099 -1.323,-0.937 -1.203,-2.62 -1.203,-2.62"
     id="path220" />
  <path
     style="fill:none;stroke:#231f20;stroke-width:0.332927;stroke-linecap:butt;stroke-linejoin:miter;stroke-miterlimit:4;stroke-dasharray:none;stroke-opacity:1"
     d="m 139.13395,145.73281 c 0.375,-1.303 -0.422,-1.896 -1.453,-1.839 -0.313,0.016 -0.595,-0.286 -0.891,-0.245 -0.698,0.1 -1.698,1.527 -0.718,2.661 0.062,0.079 0.39,0.835 0.724,1.355 0.645,1.032 2.432,2.771 5.129,2.708 1.276,-0.031 1.021,-0.781 0.505,-0.921 -1.645,-0.459 -1.708,-0.823 -2.093,-1.099 -1.323,-0.937 -1.203,-2.62 -1.203,-2.62 z"
     id="path221" />
  <path
     style="fill:#231f20;fill-opacity:1;fill-rule:nonzero;stroke:none"
     d="m 126.67595,131.71681 c 1.629,-1.577 2.156,-1.667 2.864,-1.025 0.48,0.426 1.062,0.661 1.365,0.91 1.005,0.823 2.348,2.62 4.844,8.708 0.561,1.387 1.364,3.319 1.771,4.084 0.609,1.208 -1.814,1.422 -2.058,0.948 -0.808,-1.521 -1.474,-2.494 -1.844,-3.005 -0.245,-0.344 -0.598,-1.016 -1.734,-2.235 -1.73,-1.848 -3.031,-2.697 -4.282,-4.405 -0.582,-0.787 -1.525,-1.011 -1.697,-2.084 -0.188,-1.068 0.771,-1.896 0.771,-1.896"
     id="path222" />
  <path
     style="fill:none;stroke:#231f20;stroke-width:0.565977;stroke-linecap:butt;stroke-linejoin:miter;stroke-miterlimit:4;stroke-dasharray:none;stroke-opacity:1"
     d="m 126.67595,131.71681 c 1.629,-1.577 2.156,-1.667 2.864,-1.025 0.48,0.426 1.062,0.661 1.365,0.91 1.005,0.823 2.348,2.62 4.844,8.708 0.561,1.387 1.364,3.319 1.771,4.084 0.609,1.208 -1.814,1.422 -2.058,0.948 -0.808,-1.521 -1.474,-2.494 -1.844,-3.005 -0.245,-0.344 -0.598,-1.016 -1.734,-2.235 -1.73,-1.848 -3.031,-2.697 -4.282,-4.405 -0.582,-0.787 -1.525,-1.011 -1.697,-2.084 -0.188,-1.068 0.771,-1.896 0.771,-1.896 z"
     id="path223" />
  <path
     style="fill:#0098c9;fill-opacity:1;fill-rule:nonzero;stroke:none"
     d="m 115.45195,108.91581 c 1.333,2.833 1.926,3.296 2.614,3.91 4.323,3.844 2.354,5.891 -0.437,6.626 -3.276,0.869 -4.433,1.245 -6.563,-4.678 -0.589,-1.65 -3.687,-7.677 -3.687,-7.677 -1.397,-2.005 -1.693,-4.713 -0.949,-5.963 0.782,-1.321997 0.563,-0.74 1.511,-1.832997 0.907,-1.037 2.979,-1.734999 4.031,-1.095 1.021,0.61 1.01,2.281997 1.308,4.687997 0.24,1.891 2.172,6.022 2.172,6.022"
     id="path224" />
  <path
     style="fill:none;stroke:#231f20;stroke-width:0.565977;stroke-linecap:butt;stroke-linejoin:miter;stroke-miterlimit:4;stroke-dasharray:none;stroke-opacity:1"
     d="m 115.45195,108.91581 c 1.333,2.833 1.926,3.296 2.614,3.91 4.323,3.844 2.354,5.891 -0.437,6.626 -3.276,0.869 -4.433,1.245 -6.563,-4.678 -0.589,-1.65 -3.687,-7.677 -3.687,-7.677 -1.397,-2.005 -1.693,-4.713 -0.949,-5.963 0.782,-1.321997 0.563,-0.74 1.511,-1.832997 0.907,-1.037 2.979,-1.734999 4.031,-1.095 1.021,0.61 1.01,2.281997 1.308,4.687997 0.24,1.891 2.172,6.022 2.172,6.022 z"
     id="path225" />
  <path
     style="fill:#ffffff;fill-opacity:1;fill-rule:nonzero;stroke:none"
     d="m 105.12895,93.243814 c -0.084,-0.23 -1.229,-0.142 -1.308,-0.662 -0.072,-0.521 0.647,-0.828 1.224,-2.734 l 0.005,-0.022 c 0.37,-1.405 1.26,-2.468 2.484,-2.754 2.022,-0.48 4.178,1.364 4.828,4.12 0.642,2.744 -0.473,5.358 -2.5,5.833 -1.932,0.457 -3.994,-1.219 -4.733,-3.781"
     id="path226" />
  <path
     style="fill:none;stroke:#231f20;stroke-width:0.565977;stroke-linecap:butt;stroke-linejoin:miter;stroke-miterlimit:4;stroke-dasharray:none;stroke-opacity:1"
     d="m 105.12895,93.243814 c -0.084,-0.23 -1.229,-0.142 -1.308,-0.662 -0.072,-0.521 0.647,-0.828 1.224,-2.734 l 0.005,-0.022 c 0.37,-1.405 1.26,-2.468 2.484,-2.754 2.022,-0.48 4.178,1.364 4.828,4.12 0.642,2.744 -0.473,5.358 -2.5,5.833 -1.932,0.457 -3.994,-1.219 -4.733,-3.781 z"
     id="path227" />
  <path
     style="fill:#231f20;fill-opacity:1;fill-rule:nonzero;stroke:none"
     d="m 128.75795,133.04481 c -2.629,3.032 -4.186,-0.739 -4.546,-1.052 -3.796,-3.271 -3.99,-3.599 -6.703,-6.287 -3.928,-3.894 -6.021,-7.161 -4.427,-10.104 1.083,-2 2.572,-2.681 3.88,-2.525 1.448,0.177 4.072,1.963 3.974,4.853 l 0.854,1.486 c 0.698,0.926 1.036,1.385 1.427,1.817 0.661,0.749 1.333,1.588 2.547,3.125 2.161,2.719 3.552,6.296 3.552,6.296 0.756,0.995 -0.558,2.391 -0.558,2.391"
     id="path228" />
  <path
     style="fill:none;stroke:#231f20;stroke-width:0.565977;stroke-linecap:butt;stroke-linejoin:miter;stroke-miterlimit:4;stroke-dasharray:none;stroke-opacity:1"
     d="m 128.75795,133.04481 c -2.629,3.032 -4.186,-0.739 -4.546,-1.052 -3.796,-3.271 -3.99,-3.599 -6.703,-6.287 -3.928,-3.894 -6.021,-7.161 -4.427,-10.104 1.083,-2 2.572,-2.681 3.88,-2.525 1.448,0.177 4.072,1.963 3.974,4.853 l 0.854,1.486 c 0.698,0.926 1.036,1.385 1.427,1.817 0.661,0.749 1.333,1.588 2.547,3.125 2.161,2.719 3.552,6.296 3.552,6.296 0.756,0.995 -0.558,2.391 -0.558,2.391 z"
     id="path229" />
  <path
     style="fill:#0098c9;fill-opacity:1;fill-rule:nonzero;stroke:none"
     d="m 117.58095,113.15381 c -1.265,-0.369 -2.843,0.052 -4.244,1.844 -0.912,1.156 -1.104,2.506 -0.781,4.027 -0.016,1.041 0,1.672 0.64,2.161 0.057,0.047 0.114,0.104 0.172,0.162 0.25,0.53 0.526,1.068 0.86,1.634 l 6.468,-4.385 c 0.584,-2.823 -1.714,-5.031 -3.115,-5.443"
     id="path230" />
  <path
     style="fill:none;stroke:#231f20;stroke-width:0.565977;stroke-linecap:butt;stroke-linejoin:miter;stroke-miterlimit:4;stroke-dasharray:none;stroke-opacity:1"
     d="m 117.58095,113.15381 c -1.265,-0.369 -2.843,0.052 -4.244,1.844 -0.912,1.156 -1.104,2.506 -0.781,4.027 -0.016,1.041 0,1.672 0.64,2.161 0.057,0.047 0.114,0.104 0.172,0.162 0.25,0.53 0.526,1.068 0.86,1.634 l 6.468,-4.385 c 0.584,-2.823 -1.714,-5.031 -3.115,-5.443 z"
     id="path231" />
  <path
     style="fill:#231f20;fill-opacity:1;fill-rule:nonzero;stroke:none"
     d="m 101.89395,82.399814 c -0.136,0.634 0.807,2.338 0.979,3.937 0.12,1.079 1.511,3.448 1.547,4.531 0.037,0.996 0.147,1.442 1.286,1.6 0.678,0.088 2.043,-0.172 2.131,-0.672 0.213,-1.172 0.005,-2.099 -0.437,-3.068 -0.511,-1.104 -2.152,-3.979 -2.506,-4.479 -0.88,-1.245 -0.838,-1.98 -1.041,-2.333 -0.381,-0.658 -0.724,-0.678 -1.209,-0.527 -0.911,0.287 -0.75,1.011 -0.75,1.011"
     id="path232" />
  <path
     style="fill:none;stroke:#231f20;stroke-width:0.565977;stroke-linecap:butt;stroke-linejoin:miter;stroke-miterlimit:4;stroke-dasharray:none;stroke-opacity:1"
     d="m 101.89395,82.399814 c -0.136,0.634 0.807,2.338 0.979,3.937 0.12,1.079 1.511,3.448 1.547,4.531 0.037,0.996 0.147,1.442 1.286,1.6 0.678,0.088 2.043,-0.172 2.131,-0.672 0.213,-1.172 0.005,-2.099 -0.437,-3.068 -0.511,-1.104 -2.152,-3.979 -2.506,-4.479 -0.88,-1.245 -0.838,-1.98 -1.041,-2.333 -0.381,-0.658 -0.724,-0.678 -1.209,-0.527 -0.911,0.287 -0.75,1.011 -0.75,1.011 z"
     id="path233" />
  <path
     style="fill:#231f20;fill-opacity:1;fill-rule:nonzero;stroke:none"
     d="m 105.09695,90.877814 c -1.156,0.59 0.084,2.204 0.344,2.678 0.265,0.478 0.855,1.917 1.167,3.093 0.322,1.187999 1.218,2.520999 1.828,4.771996 0.317,1.181 1.374,2.129 3.068,1.593 1.677,-0.532 2.005,-1.672 1.406,-3.040997 -0.6,-1.371 -1.745,-2.400999 -2.448,-3.744999 -0.704,-1.339 -1.292,-2.766 -1.704,-3.912 -0.468,-1.302 -1.181,-1.771 -1.656,-1.796 -1.197,-0.068 -2.005,0.358 -2.005,0.358"
     id="path234" />
  <path
     style="fill:none;stroke:#231f20;stroke-width:0.565977;stroke-linecap:butt;stroke-linejoin:miter;stroke-miterlimit:4;stroke-dasharray:none;stroke-opacity:1"
     d="m 105.09695,90.877814 c -1.156,0.59 0.084,2.204 0.344,2.678 0.265,0.478 0.855,1.917 1.167,3.093 0.322,1.187999 1.218,2.520999 1.828,4.771996 0.317,1.181 1.374,2.129 3.068,1.593 1.677,-0.532 2.005,-1.672 1.406,-3.040997 -0.6,-1.371 -1.745,-2.400999 -2.448,-3.744999 -0.704,-1.339 -1.292,-2.766 -1.704,-3.912 -0.468,-1.302 -1.181,-1.771 -1.656,-1.796 -1.197,-0.068 -2.005,0.358 -2.005,0.358 z"
     id="path235" />
  <path
     style="fill:#231f20;fill-opacity:1;fill-rule:nonzero;stroke:none"
     d="m 221.84195,72.065814 c -1.052,-0.849 -1.912,-0.349 -2.261,0.626 -0.104,0.29 -0.495,0.437 -0.572,0.724 -0.183,0.681 0.74,2.161 2.172,1.702 0.093,-0.03 0.916,-0.036 1.53,-0.141 1.199,-0.192 3.495,-1.161 4.49,-3.667 0.474,-1.192 -0.318,-1.249 -0.651,-0.828 -1.063,1.339 -1.421,1.251 -1.828,1.5 -1.38,0.855 -2.88,0.084 -2.88,0.084"
     id="path236" />
  <path
     style="fill:none;stroke:#231f20;stroke-width:0.332927;stroke-linecap:butt;stroke-linejoin:miter;stroke-miterlimit:4;stroke-dasharray:none;stroke-opacity:1"
     d="m 221.84195,72.065814 c -1.052,-0.849 -1.912,-0.349 -2.261,0.626 -0.104,0.29 -0.495,0.437 -0.572,0.724 -0.183,0.681 0.74,2.161 2.172,1.702 0.093,-0.03 0.916,-0.036 1.53,-0.141 1.199,-0.192 3.495,-1.161 4.49,-3.667 0.474,-1.192 -0.318,-1.249 -0.651,-0.828 -1.063,1.339 -1.421,1.251 -1.828,1.5 -1.38,0.855 -2.88,0.084 -2.88,0.084 z"
     id="path237" />
  <path
     style="fill:#231f20;fill-opacity:1;fill-rule:nonzero;stroke:none"
     d="m 204.07695,78.076814 c -0.819,-2.115 -0.694,-2.636 0.176,-3.037 0.573,-0.271 1.021,-0.719 1.365,-0.9 1.151,-0.606 3.333,-1.147 9.907,-1.063 1.5,0.02 3.588,0.031 4.452,-0.043 1.349,-0.093 0.604,2.224 0.073,2.267 -1.713,0.145 -2.869,0.38 -3.484,0.525 -0.417,0.09 -1.172,0.156 -2.735,0.724 -2.38,0.871 -3.672,1.74 -5.729,2.224 -0.953,0.235 -1.531,1.011 -2.577,0.756 -1.063,-0.25 -1.448,-1.453 -1.448,-1.453"
     id="path238" />
  <path
     style="fill:none;stroke:#231f20;stroke-width:0.565977;stroke-linecap:butt;stroke-linejoin:miter;stroke-miterlimit:4;stroke-dasharray:none;stroke-opacity:1"
     d="m 204.07695,78.076814 c -0.819,-2.115 -0.694,-2.636 0.176,-3.037 0.573,-0.271 1.021,-0.719 1.365,-0.9 1.151,-0.606 3.333,-1.147 9.907,-1.063 1.5,0.02 3.588,0.031 4.452,-0.043 1.349,-0.093 0.604,2.224 0.073,2.267 -1.713,0.145 -2.869,0.38 -3.484,0.525 -0.417,0.09 -1.172,0.156 -2.735,0.724 -2.38,0.871 -3.672,1.74 -5.729,2.224 -0.953,0.235 -1.531,1.011 -2.577,0.756 -1.063,-0.25 -1.448,-1.453 -1.448,-1.453 z"
     id="path239" />
  <path
     style="fill:#0098c9;fill-opacity:1;fill-rule:nonzero;stroke:none"
     d="m 178.70095,79.524814 c 3.13,-0.125 3.786,-0.491 4.62,-0.885 5.229,-2.48 6.344,0.129 5.932,2.989 -0.474,3.353 -0.578,4.568 -6.864,4.219 -1.751,-0.099 -8.505,0.401 -8.505,0.401 -2.391,0.505 -5,-0.276 -5.864,-1.448 -0.912,-1.235 -0.459,-0.813 -1.095,-2.109 -0.604,-1.24 -0.437,-3.418 0.563,-4.142 0.958,-0.697 2.489,-0.041 4.822,0.626 1.839,0.521 6.391,0.349 6.391,0.349"
     id="path240" />
  <path
     style="fill:none;stroke:#231f20;stroke-width:0.565977;stroke-linecap:butt;stroke-linejoin:miter;stroke-miterlimit:4;stroke-dasharray:none;stroke-opacity:1"
     d="m 178.70095,79.524814 c 3.13,-0.125 3.786,-0.491 4.62,-0.885 5.229,-2.48 6.344,0.129 5.932,2.989 -0.474,3.353 -0.578,4.568 -6.864,4.219 -1.751,-0.099 -8.505,0.401 -8.505,0.401 -2.391,0.505 -5,-0.276 -5.864,-1.448 -0.912,-1.235 -0.459,-0.813 -1.095,-2.109 -0.604,-1.24 -0.437,-3.418 0.563,-4.142 0.958,-0.697 2.489,-0.041 4.822,0.626 1.839,0.521 6.391,0.349 6.391,0.349 z"
     id="path241" />
  <path
     style="fill:#ffffff;fill-opacity:1;fill-rule:nonzero;stroke:none"
     d="m 160.24795,82.920814 c -0.244,-0.016 -0.604,1.072 -1.119,0.943 -0.505,-0.131 -0.511,-0.918 -2.037,-2.188 l -0.02,-0.016 c -1.152,-0.891 -1.787,-2.126 -1.568,-3.359 0.349,-2.052 2.885,-3.319 5.672,-2.844 2.781,0.479 4.754,2.525 4.401,4.573 -0.333,1.963 -2.683,3.208 -5.329,2.891"
     id="path242" />
  <path
     style="fill:none;stroke:#231f20;stroke-width:0.565977;stroke-linecap:butt;stroke-linejoin:miter;stroke-miterlimit:4;stroke-dasharray:none;stroke-opacity:1"
     d="m 160.24795,82.920814 c -0.244,-0.016 -0.604,1.072 -1.119,0.943 -0.505,-0.131 -0.511,-0.918 -2.037,-2.188 l -0.02,-0.016 c -1.152,-0.891 -1.787,-2.126 -1.568,-3.359 0.349,-2.052 2.885,-3.319 5.672,-2.844 2.781,0.479 4.754,2.525 4.401,4.573 -0.333,1.963 -2.683,3.208 -5.329,2.891 z"
     id="path243" />
  <path
     style="fill:#231f20;fill-opacity:1;fill-rule:nonzero;stroke:none"
     d="m 206.11295,76.680814 c 1.765,3.599 -2.312,3.563 -2.746,3.776 -4.489,2.219 -4.869,2.265 -8.4,3.719 -5.114,2.098 -8.942,2.749 -11.032,0.134 -1.416,-1.776 -1.464,-3.416 -0.812,-4.556 0.73,-1.266 3.402,-2.985 6.02,-1.766 l 1.704,-0.208 c 1.12,-0.282 1.678,-0.416 2.224,-0.604 0.954,-0.318 1.99,-0.61 3.875,-1.131 3.344,-0.927 7.188,-0.812 7.188,-0.812 1.208,-0.308 1.979,1.448 1.979,1.448"
     id="path244" />
  <path
     style="fill:none;stroke:#231f20;stroke-width:0.565977;stroke-linecap:butt;stroke-linejoin:miter;stroke-miterlimit:4;stroke-dasharray:none;stroke-opacity:1"
     d="m 206.11295,76.680814 c 1.765,3.599 -2.312,3.563 -2.746,3.776 -4.489,2.219 -4.869,2.265 -8.4,3.719 -5.114,2.098 -8.942,2.749 -11.032,0.134 -1.416,-1.776 -1.464,-3.416 -0.812,-4.556 0.73,-1.266 3.402,-2.985 6.02,-1.766 l 1.704,-0.208 c 1.12,-0.282 1.678,-0.416 2.224,-0.604 0.954,-0.318 1.99,-0.61 3.875,-1.131 3.344,-0.927 7.188,-0.812 7.188,-0.812 1.208,-0.308 1.979,1.448 1.979,1.448 z"
     id="path245" />
  <path
     style="fill:#0098c9;fill-opacity:1;fill-rule:nonzero;stroke:none"
     d="m 191.18095,86.133814 -1.516,-7.666 c -2.375,-1.636 -5.303,-0.386 -6.23,0.744 -0.833,1.021 -1.057,2.641 0.042,4.63 0.714,1.287 1.876,1.99 3.401,2.292 0.953,0.416 1.547,0.651 2.245,0.25 0.063,-0.036 0.14,-0.063 0.214,-0.094 0.588,-0.026 1.192,-0.068 1.844,-0.156"
     id="path246" />
  <path
     style="fill:none;stroke:#231f20;stroke-width:0.565977;stroke-linecap:butt;stroke-linejoin:miter;stroke-miterlimit:4;stroke-dasharray:none;stroke-opacity:1"
     d="m 191.18095,86.133814 -1.516,-7.666 c -2.375,-1.636 -5.303,-0.386 -6.23,0.744 -0.833,1.021 -1.057,2.641 0.042,4.63 0.714,1.287 1.876,1.99 3.401,2.292 0.953,0.416 1.547,0.651 2.245,0.25 0.063,-0.036 0.14,-0.063 0.214,-0.094 0.588,-0.026 1.192,-0.068 1.844,-0.156 z"
     id="path247" />
  <path
     style="fill:#231f20;fill-opacity:1;fill-rule:nonzero;stroke:none"
     d="m 149.00395,81.669814 c 0.525,0.37 2.464,0.172 4.005,0.636 1.041,0.307 3.765,-0.052 4.776,0.338 0.927,0.354 1.385,0.428 1.973,-0.562 0.344,-0.589 0.636,-1.942 0.21,-2.224 -0.996,-0.652 -1.928,-0.824 -2.996,-0.792 -1.214,0.042 -4.5,0.432 -5.099,0.563 -1.489,0.323 -2.151,0 -2.552,0.052 -0.755,0.088 -0.905,0.401 -0.959,0.901 -0.088,0.952 0.642,1.088 0.642,1.088"
     id="path248" />
  <path
     style="fill:none;stroke:#231f20;stroke-width:0.565977;stroke-linecap:butt;stroke-linejoin:miter;stroke-miterlimit:4;stroke-dasharray:none;stroke-opacity:1"
     d="m 149.00395,81.669814 c 0.525,0.37 2.464,0.172 4.005,0.636 1.041,0.307 3.765,-0.052 4.776,0.338 0.927,0.354 1.385,0.428 1.973,-0.562 0.344,-0.589 0.636,-1.942 0.21,-2.224 -0.996,-0.652 -1.928,-0.824 -2.996,-0.792 -1.214,0.042 -4.5,0.432 -5.099,0.563 -1.489,0.323 -2.151,0 -2.552,0.052 -0.755,0.088 -0.905,0.401 -0.959,0.901 -0.088,0.952 0.642,1.088 0.642,1.088 z"
     id="path249" />
  <path
     style="fill:#231f20;fill-opacity:1;fill-rule:nonzero;stroke:none"
     d="m 158.05595,82.024814 c 0.093,1.296 2.068,0.781 2.598,0.729 0.547,-0.057 2.099,-0.042 3.308,0.13 1.219,0.166 2.796,-0.14 5.104,0.177 1.214,0.167 2.5,-0.437 2.667,-2.208 0.161,-1.745 -0.761,-2.495 -2.256,-2.475 -1.495,0.016 -2.891,0.667 -4.4,0.792 -1.505,0.126 -3.052,0.11 -4.267,0.047 -1.38,-0.077 -2.093,0.396 -2.301,0.823 -0.532,1.073 -0.453,1.985 -0.453,1.985"
     id="path250" />
  <path
     style="fill:none;stroke:#231f20;stroke-width:0.565977;stroke-linecap:butt;stroke-linejoin:miter;stroke-miterlimit:4;stroke-dasharray:none;stroke-opacity:1"
     d="m 158.05595,82.024814 c 0.093,1.296 2.068,0.781 2.598,0.729 0.547,-0.057 2.099,-0.042 3.308,0.13 1.219,0.166 2.796,-0.14 5.104,0.177 1.214,0.167 2.5,-0.437 2.667,-2.208 0.161,-1.745 -0.761,-2.495 -2.256,-2.475 -1.495,0.016 -2.891,0.667 -4.4,0.792 -1.505,0.126 -3.052,0.11 -4.267,0.047 -1.38,-0.077 -2.093,0.396 -2.301,0.823 -0.532,1.073 -0.453,1.985 -0.453,1.985 z"
     id="path251" />
  <path
     style="fill:#231f20;fill-opacity:1;fill-rule:nonzero;stroke:none"
     d="m 228.31495,5.6648145 c -0.844,1.058 -0.338,1.912 0.636,2.26 0.292,0.106 0.438,0.496 0.724,0.574 0.687,0.177 2.162,-0.755 1.692,-2.183 -0.025,-0.099 -0.036,-0.916 -0.14,-1.531 -0.202,-1.197 -1.182,-3.489 -3.688,-4.47400002 -1.192,-0.468 -1.244,0.324 -0.822,0.657 1.338,1.05200002 1.254,1.41600002 1.505,1.81700002 0.86,1.38 0.093,2.88 0.093,2.88"
     id="path252" />
  <path
     style="fill:none;stroke:#231f20;stroke-width:0.332927;stroke-linecap:butt;stroke-linejoin:miter;stroke-miterlimit:4;stroke-dasharray:none;stroke-opacity:1"
     d="m 228.31495,5.6648145 c -0.844,1.058 -0.338,1.912 0.636,2.26 0.292,0.106 0.438,0.496 0.724,0.574 0.687,0.177 2.162,-0.755 1.692,-2.183 -0.025,-0.099 -0.036,-0.916 -0.14,-1.531 -0.202,-1.197 -1.182,-3.489 -3.688,-4.47400002 -1.192,-0.468 -1.244,0.324 -0.822,0.657 1.338,1.05200002 1.254,1.41600002 1.505,1.81700002 0.86,1.38 0.093,2.88 0.093,2.88 z"
     id="path253" />
  <path
     style="fill:#231f20;fill-opacity:1;fill-rule:nonzero;stroke:none"
     d="m 234.39395,23.410814 c -2.115,0.822 -2.636,0.702 -3.036,-0.167 -0.276,-0.573 -0.724,-1.021 -0.907,-1.36 -0.614,-1.151 -1.156,-3.328 -1.104,-9.907 0.015,-1.494 0.02,-3.5879995 -0.052,-4.4459995 -0.1,-1.355 2.219,-0.615 2.26,-0.084 0.156,1.713 0.391,2.8689995 0.536,3.4839995 0.095,0.412 0.167,1.172 0.74,2.729 0.88,2.375 1.755,3.661 2.251,5.719 0.228,0.953 1.009,1.526 0.76,2.578 -0.245,1.058 -1.448,1.454 -1.448,1.454"
     id="path254" />
  <path
     style="fill:none;stroke:#231f20;stroke-width:0.565977;stroke-linecap:butt;stroke-linejoin:miter;stroke-miterlimit:4;stroke-dasharray:none;stroke-opacity:1"
     d="m 234.39395,23.410814 c -2.115,0.822 -2.636,0.702 -3.036,-0.167 -0.276,-0.573 -0.724,-1.021 -0.907,-1.36 -0.614,-1.151 -1.156,-3.328 -1.104,-9.907 0.015,-1.494 0.02,-3.5879995 -0.052,-4.4459995 -0.1,-1.355 2.219,-0.615 2.26,-0.084 0.156,1.713 0.391,2.8689995 0.536,3.4839995 0.095,0.412 0.167,1.172 0.74,2.729 0.88,2.375 1.755,3.661 2.251,5.719 0.228,0.953 1.009,1.526 0.76,2.578 -0.245,1.058 -1.448,1.454 -1.448,1.454 z"
     id="path255" />
  <path
     style="fill:#0098c9;fill-opacity:1;fill-rule:nonzero;stroke:none"
     d="m 235.93495,48.774814 c -0.134,-3.126 -0.505,-3.787 -0.901,-4.615 -2.5,-5.213 0.109,-6.344 2.964,-5.943 3.36,0.464 4.573,0.568 4.249,6.855 -0.093,1.744 0.434,8.5 0.434,8.5 0.514,2.39 -0.262,5 -1.428,5.869 -1.234,0.912 -0.807,0.464 -2.11,1.099 -1.229,0.614 -3.41,0.453 -4.14,-0.547 -0.702,-0.953 -0.046,-2.489 0.61,-4.823 0.51,-1.844 0.322,-6.395 0.322,-6.395"
     id="path256" />
  <path
     style="fill:none;stroke:#231f20;stroke-width:0.565977;stroke-linecap:butt;stroke-linejoin:miter;stroke-miterlimit:4;stroke-dasharray:none;stroke-opacity:1"
     d="m 235.93495,48.774814 c -0.134,-3.126 -0.505,-3.787 -0.901,-4.615 -2.5,-5.213 0.109,-6.344 2.964,-5.943 3.36,0.464 4.573,0.568 4.249,6.855 -0.093,1.744 0.434,8.5 0.434,8.5 0.514,2.39 -0.262,5 -1.428,5.869 -1.234,0.912 -0.807,0.464 -2.11,1.099 -1.229,0.614 -3.41,0.453 -4.14,-0.547 -0.702,-0.953 -0.046,-2.489 0.61,-4.823 0.51,-1.844 0.322,-6.395 0.322,-6.395 z"
     id="path257" />
  <path
     style="fill:#ffffff;fill-opacity:1;fill-rule:nonzero;stroke:none"
     d="m 239.39895,67.216814 c -0.01,0.245 1.078,0.604 0.954,1.115 -0.136,0.51 -0.923,0.516 -2.183,2.052 l -0.016,0.016 c -0.885,1.15 -2.12,1.792 -3.353,1.582 -2.052,-0.342 -3.33,-2.874 -2.866,-5.661 0.47,-2.787 2.511,-4.765 4.558,-4.421 1.958,0.328 3.218,2.672 2.906,5.317"
     id="path258" />
  <path
     style="fill:none;stroke:#231f20;stroke-width:0.565977;stroke-linecap:butt;stroke-linejoin:miter;stroke-miterlimit:4;stroke-dasharray:none;stroke-opacity:1"
     d="m 239.39895,67.216814 c -0.01,0.245 1.078,0.604 0.954,1.115 -0.136,0.51 -0.923,0.516 -2.183,2.052 l -0.016,0.016 c -0.885,1.15 -2.12,1.792 -3.353,1.582 -2.052,-0.342 -3.33,-2.874 -2.866,-5.661 0.47,-2.787 2.511,-4.765 4.558,-4.421 1.958,0.328 3.218,2.672 2.906,5.317 z"
     id="path259" />
  <path
     style="fill:#231f20;fill-opacity:1;fill-rule:nonzero;stroke:none"
     d="m 232.98695,21.378814 c 3.594,-1.782 3.579,2.302 3.787,2.729 2.235,4.48 2.287,4.86 3.751,8.391 2.118,5.104 2.785,8.926 0.176,11.026 -1.771,1.422 -3.406,1.479 -4.552,0.834 -1.271,-0.724 -3,-3.391 -1.791,-6.016 l -0.215,-1.703 c -0.285,-1.12 -0.416,-1.677 -0.609,-2.224 -0.323,-0.948 -0.615,-1.98 -1.145,-3.865 -0.938,-3.344 -0.839,-7.187 -0.839,-7.187 -0.312,-1.209 1.437,-1.985 1.437,-1.985"
     id="path260" />
  <path
     style="fill:none;stroke:#231f20;stroke-width:0.565977;stroke-linecap:butt;stroke-linejoin:miter;stroke-miterlimit:4;stroke-dasharray:none;stroke-opacity:1"
     d="m 232.98695,21.378814 c 3.594,-1.782 3.579,2.302 3.787,2.729 2.235,4.48 2.287,4.86 3.751,8.391 2.118,5.104 2.785,8.926 0.176,11.026 -1.771,1.422 -3.406,1.479 -4.552,0.834 -1.271,-0.724 -3,-3.391 -1.791,-6.016 l -0.215,-1.703 c -0.285,-1.12 -0.416,-1.677 -0.609,-2.224 -0.323,-0.948 -0.615,-1.98 -1.145,-3.865 -0.938,-3.344 -0.839,-7.187 -0.839,-7.187 -0.312,-1.209 1.437,-1.985 1.437,-1.985 z"
     id="path261" />
  <path
     style="fill:#0098c9;fill-opacity:1;fill-rule:nonzero;stroke:none"
     d="m 242.75295,38.326814 c -0.031,-0.063 -0.062,-0.135 -0.088,-0.214 -0.031,-0.582 -0.074,-1.188 -0.167,-1.838 l -7.656,1.541 c -1.631,2.385 -0.371,5.308 0.765,6.229 1.022,0.828 2.646,1.047 4.631,-0.057 1.287,-0.719 1.984,-1.885 2.276,-3.411 0.416,-0.958 0.645,-1.546 0.239,-2.25"
     id="path262" />
  <path
     style="fill:none;stroke:#231f20;stroke-width:0.565977;stroke-linecap:butt;stroke-linejoin:miter;stroke-miterlimit:4;stroke-dasharray:none;stroke-opacity:1"
     d="m 242.75295,38.326814 c -0.031,-0.063 -0.062,-0.135 -0.088,-0.214 -0.031,-0.582 -0.074,-1.188 -0.167,-1.838 l -7.656,1.541 c -1.631,2.385 -0.371,5.308 0.765,6.229 1.022,0.828 2.646,1.047 4.631,-0.057 1.287,-0.719 1.984,-1.885 2.276,-3.411 0.416,-0.958 0.645,-1.546 0.239,-2.25 z"
     id="path263" />
  <path
     style="fill:#231f20;fill-opacity:1;fill-rule:nonzero;stroke:none"
     d="m 238.19495,78.467814 c 0.366,-0.527 0.158,-2.464 0.615,-4.006 0.308,-1.041 -0.061,-3.765 0.324,-4.781 0.348,-0.927 0.427,-1.385 -0.568,-1.969 -0.589,-0.344 -1.948,-0.63 -2.229,-0.203 -0.646,1 -0.812,1.932 -0.776,3 0.046,1.213 0.448,4.5 0.582,5.099 0.328,1.484 0.006,2.15 0.063,2.552 0.089,0.756 0.401,0.906 0.901,0.953 0.954,0.084 1.088,-0.645 1.088,-0.645"
     id="path264" />
  <path
     style="fill:none;stroke:#231f20;stroke-width:0.565977;stroke-linecap:butt;stroke-linejoin:miter;stroke-miterlimit:4;stroke-dasharray:none;stroke-opacity:1"
     d="m 238.19495,78.467814 c 0.366,-0.527 0.158,-2.464 0.615,-4.006 0.308,-1.041 -0.061,-3.765 0.324,-4.781 0.348,-0.927 0.427,-1.385 -0.568,-1.969 -0.589,-0.344 -1.948,-0.63 -2.229,-0.203 -0.646,1 -0.812,1.932 -0.776,3 0.046,1.213 0.448,4.5 0.582,5.099 0.328,1.484 0.006,2.15 0.063,2.552 0.089,0.756 0.401,0.906 0.901,0.953 0.954,0.084 1.088,-0.645 1.088,-0.645 z"
     id="path265" />
  <path
     style="fill:#231f20;fill-opacity:1;fill-rule:nonzero;stroke:none"
     d="m 238.51395,69.415814 c 1.296,-0.095 0.776,-2.068 0.719,-2.604 -0.058,-0.543 -0.047,-2.1 0.12,-3.308 0.161,-1.219 -0.152,-2.798 0.161,-5.104 0.161,-1.214 -0.448,-2.495 -2.219,-2.656 -1.75,-0.156 -2.494,0.765 -2.474,2.265 0.026,1.495 0.682,2.891 0.813,4.396 0.135,1.505 0.124,3.052 0.061,4.265 -0.072,1.38 0.407,2.094 0.834,2.303 1.078,0.52 1.985,0.443 1.985,0.443"
     id="path266" />
  <path
     style="fill:none;stroke:#231f20;stroke-width:0.565977;stroke-linecap:butt;stroke-linejoin:miter;stroke-miterlimit:4;stroke-dasharray:none;stroke-opacity:1"
     d="m 238.51395,69.415814 c 1.296,-0.095 0.776,-2.068 0.719,-2.604 -0.058,-0.543 -0.047,-2.1 0.12,-3.308 0.161,-1.219 -0.152,-2.798 0.161,-5.104 0.161,-1.214 -0.448,-2.495 -2.219,-2.656 -1.75,-0.156 -2.494,0.765 -2.474,2.265 0.026,1.495 0.682,2.891 0.813,4.396 0.135,1.505 0.124,3.052 0.061,4.265 -0.072,1.38 0.407,2.094 0.834,2.303 1.078,0.52 1.985,0.443 1.985,0.443 z"
     id="path267" />
  <path
     style="fill:#231f20;fill-opacity:1;fill-rule:nonzero;stroke:none"
     d="m 350.56595,15.743814 c 0.849,1.057 0.344,1.911 -0.636,2.255 -0.287,0.109 -0.432,0.494 -0.724,0.578 -0.682,0.178 -2.156,-0.756 -1.687,-2.188 0.025,-0.093 0.031,-0.91 0.135,-1.525 0.204,-1.204 1.182,-3.496 3.693,-4.475 1.187,-0.4729995 1.244,0.318 0.823,0.651 -1.344,1.057 -1.26,1.417 -1.506,1.824 -0.86,1.38 -0.098,2.88 -0.098,2.88"
     id="path268" />
  <path
     style="fill:none;stroke:#231f20;stroke-width:0.332927;stroke-linecap:butt;stroke-linejoin:miter;stroke-miterlimit:4;stroke-dasharray:none;stroke-opacity:1"
     d="m 350.56595,15.743814 c 0.849,1.057 0.344,1.911 -0.636,2.255 -0.287,0.109 -0.432,0.494 -0.724,0.578 -0.682,0.178 -2.156,-0.756 -1.687,-2.188 0.025,-0.093 0.031,-0.91 0.135,-1.525 0.204,-1.204 1.182,-3.496 3.693,-4.475 1.187,-0.4729995 1.244,0.318 0.823,0.651 -1.344,1.057 -1.26,1.417 -1.506,1.824 -0.86,1.38 -0.098,2.88 -0.098,2.88 z"
     id="path269" />
  <path
     style="fill:#231f20;fill-opacity:1;fill-rule:nonzero;stroke:none"
     d="m 344.49195,33.487814 c 2.11,0.823 2.631,0.704 3.036,-0.167 0.276,-0.572 0.724,-1.02 0.907,-1.364 0.609,-1.145 1.156,-3.328 1.104,-9.901 -0.02,-1.5 -0.025,-3.588 0.052,-4.453 0.1,-1.348 -2.219,-0.61 -2.26,-0.078 -0.156,1.708 -0.396,2.864 -0.541,3.479 -0.09,0.417 -0.162,1.172 -0.74,2.735 -0.875,2.374 -1.75,3.661 -2.246,5.718 -0.228,0.954 -1.014,1.526 -0.76,2.574 0.246,1.061 1.448,1.457 1.448,1.457"
     id="path270" />
  <path
     style="fill:none;stroke:#231f20;stroke-width:0.565977;stroke-linecap:butt;stroke-linejoin:miter;stroke-miterlimit:4;stroke-dasharray:none;stroke-opacity:1"
     d="m 344.49195,33.487814 c 2.11,0.823 2.631,0.704 3.036,-0.167 0.276,-0.572 0.724,-1.02 0.907,-1.364 0.609,-1.145 1.156,-3.328 1.104,-9.901 -0.02,-1.5 -0.025,-3.588 0.052,-4.453 0.1,-1.348 -2.219,-0.61 -2.26,-0.078 -0.156,1.708 -0.396,2.864 -0.541,3.479 -0.09,0.417 -0.162,1.172 -0.74,2.735 -0.875,2.374 -1.75,3.661 -2.246,5.718 -0.228,0.954 -1.014,1.526 -0.76,2.574 0.246,1.061 1.448,1.457 1.448,1.457 z"
     id="path271" />
  <path
     style="fill:#0098c9;fill-opacity:1;fill-rule:nonzero;stroke:none"
     d="m 342.95095,58.852814 c 0.135,-3.131 0.5,-3.787 0.901,-4.615 2.5,-5.218 -0.109,-6.343 -2.964,-5.942 -3.36,0.463 -4.573,0.563 -4.25,6.853 0.094,1.745 -0.432,8.5 -0.432,8.5 -0.515,2.391 0.261,4.995 1.428,5.865 1.233,0.916 0.806,0.463 2.104,1.104 1.233,0.61 3.41,0.454 4.14,-0.546 0.702,-0.959 0.052,-2.49 -0.604,-4.823 -0.511,-1.844 -0.323,-6.396 -0.323,-6.396"
     id="path272" />
  <path
     style="fill:none;stroke:#231f20;stroke-width:0.565977;stroke-linecap:butt;stroke-linejoin:miter;stroke-miterlimit:4;stroke-dasharray:none;stroke-opacity:1"
     d="m 342.95095,58.852814 c 0.135,-3.131 0.5,-3.787 0.901,-4.615 2.5,-5.218 -0.109,-6.343 -2.964,-5.942 -3.36,0.463 -4.573,0.563 -4.25,6.853 0.094,1.745 -0.432,8.5 -0.432,8.5 -0.515,2.391 0.261,4.995 1.428,5.865 1.233,0.916 0.806,0.463 2.104,1.104 1.233,0.61 3.41,0.454 4.14,-0.546 0.702,-0.959 0.052,-2.49 -0.604,-4.823 -0.511,-1.844 -0.323,-6.396 -0.323,-6.396 z"
     id="path273" />
  <path
     style="fill:#ffffff;fill-opacity:1;fill-rule:nonzero;stroke:none"
     d="m 339.48195,77.295814 c 0.016,0.244 -1.072,0.604 -0.948,1.114 0.13,0.511 0.917,0.515 2.182,2.047 l 0.016,0.021 c 0.886,1.151 2.12,1.791 3.354,1.578 2.052,-0.339 3.324,-2.875 2.86,-5.662 -0.464,-2.786 -2.506,-4.765 -4.552,-4.417 -1.964,0.324 -3.219,2.667 -2.912,5.319"
     id="path274" />
  <path
     style="fill:none;stroke:#231f20;stroke-width:0.565977;stroke-linecap:butt;stroke-linejoin:miter;stroke-miterlimit:4;stroke-dasharray:none;stroke-opacity:1"
     d="m 339.48195,77.295814 c 0.016,0.244 -1.072,0.604 -0.948,1.114 0.13,0.511 0.917,0.515 2.182,2.047 l 0.016,0.021 c 0.886,1.151 2.12,1.791 3.354,1.578 2.052,-0.339 3.324,-2.875 2.86,-5.662 -0.464,-2.786 -2.506,-4.765 -4.552,-4.417 -1.964,0.324 -3.219,2.667 -2.912,5.319 z"
     id="path275" />
  <path
     style="fill:#231f20;fill-opacity:1;fill-rule:nonzero;stroke:none"
     d="m 345.89395,31.451814 c -3.59,-1.776 -3.574,2.303 -3.787,2.735 -2.235,4.478 -2.281,4.858 -3.749,8.385 -2.115,5.109 -2.787,8.932 -0.178,11.03 1.771,1.418 3.406,1.48 4.558,0.828 1.265,-0.718 2.994,-3.385 1.786,-6.009 l 0.214,-1.704 c 0.286,-1.12 0.421,-1.677 0.614,-2.224 0.318,-0.948 0.615,-1.984 1.14,-3.869 0.943,-3.344 0.844,-7.183 0.844,-7.183 0.307,-1.208 -1.442,-1.989 -1.442,-1.989"
     id="path276" />
  <path
     style="fill:none;stroke:#231f20;stroke-width:0.565977;stroke-linecap:butt;stroke-linejoin:miter;stroke-miterlimit:4;stroke-dasharray:none;stroke-opacity:1"
     d="m 345.89395,31.451814 c -3.59,-1.776 -3.574,2.303 -3.787,2.735 -2.235,4.478 -2.281,4.858 -3.749,8.385 -2.115,5.109 -2.787,8.932 -0.178,11.03 1.771,1.418 3.406,1.48 4.558,0.828 1.265,-0.718 2.994,-3.385 1.786,-6.009 l 0.214,-1.704 c 0.286,-1.12 0.421,-1.677 0.614,-2.224 0.318,-0.948 0.615,-1.984 1.14,-3.869 0.943,-3.344 0.844,-7.183 0.844,-7.183 0.307,-1.208 -1.442,-1.989 -1.442,-1.989 z"
     id="path277" />
  <path
     style="fill:#0098c9;fill-opacity:1;fill-rule:nonzero;stroke:none"
     d="m 344.04395,47.894814 -7.656,-1.542 c -0.093,0.646 -0.141,1.25 -0.166,1.839 -0.027,0.077 -0.058,0.151 -0.094,0.213 -0.401,0.703 -0.172,1.292 0.244,2.25 0.292,1.526 0.99,2.693 2.276,3.411 1.986,1.104 3.604,0.886 4.631,0.052 1.131,-0.917 2.396,-3.838 0.765,-6.223"
     id="path278" />
  <path
     style="fill:none;stroke:#231f20;stroke-width:0.565977;stroke-linecap:butt;stroke-linejoin:miter;stroke-miterlimit:4;stroke-dasharray:none;stroke-opacity:1"
     d="m 344.04395,47.894814 -7.656,-1.542 c -0.093,0.646 -0.141,1.25 -0.166,1.839 -0.027,0.077 -0.058,0.151 -0.094,0.213 -0.401,0.703 -0.172,1.292 0.244,2.25 0.292,1.526 0.99,2.693 2.276,3.411 1.986,1.104 3.604,0.886 4.631,0.052 1.131,-0.917 2.396,-3.838 0.765,-6.223 z"
     id="path279" />
  <path
     style="fill:#231f20;fill-opacity:1;fill-rule:nonzero;stroke:none"
     d="m 340.69095,88.544814 c -0.365,-0.531 -0.163,-2.463 -0.615,-4.011 -0.308,-1.036 0.062,-3.76 -0.328,-4.776 -0.349,-0.926 -0.422,-1.39 0.572,-1.968 0.59,-0.344 1.943,-0.63 2.224,-0.202 0.651,1 0.818,1.932 0.782,2.994 -0.052,1.219 -0.454,4.5 -0.583,5.104 -0.328,1.484 -0.005,2.151 -0.063,2.552 -0.089,0.755 -0.401,0.902 -0.906,0.948 -0.948,0.088 -1.083,-0.641 -1.083,-0.641"
     id="path280" />
  <path
     style="fill:none;stroke:#231f20;stroke-width:0.565977;stroke-linecap:butt;stroke-linejoin:miter;stroke-miterlimit:4;stroke-dasharray:none;stroke-opacity:1"
     d="m 340.69095,88.544814 c -0.365,-0.531 -0.163,-2.463 -0.615,-4.011 -0.308,-1.036 0.062,-3.76 -0.328,-4.776 -0.349,-0.926 -0.422,-1.39 0.572,-1.968 0.59,-0.344 1.943,-0.63 2.224,-0.202 0.651,1 0.818,1.932 0.782,2.994 -0.052,1.219 -0.454,4.5 -0.583,5.104 -0.328,1.484 -0.005,2.151 -0.063,2.552 -0.089,0.755 -0.401,0.902 -0.906,0.948 -0.948,0.088 -1.083,-0.641 -1.083,-0.641 z"
     id="path281" />
  <path
     style="fill:#231f20;fill-opacity:1;fill-rule:nonzero;stroke:none"
     d="m 340.36695,79.492814 c -1.296,-0.099 -0.771,-2.072 -0.713,-2.604 0.057,-0.547 0.046,-2.099 -0.126,-3.307 -0.161,-1.218 0.152,-2.797 -0.156,-5.104 -0.161,-1.22 0.448,-2.501 2.219,-2.657 1.745,-0.161 2.495,0.767 2.469,2.267 -0.026,1.489 -0.677,2.885 -0.813,4.394 -0.129,1.506 -0.119,3.052 -0.056,4.267 0.072,1.38 -0.407,2.088 -0.833,2.296 -1.079,0.527 -1.991,0.448 -1.991,0.448"
     id="path282" />
  <path
     style="fill:none;stroke:#231f20;stroke-width:0.565977;stroke-linecap:butt;stroke-linejoin:miter;stroke-miterlimit:4;stroke-dasharray:none;stroke-opacity:1"
     d="m 340.36695,79.492814 c -1.296,-0.099 -0.771,-2.072 -0.713,-2.604 0.057,-0.547 0.046,-2.099 -0.126,-3.307 -0.161,-1.218 0.152,-2.797 -0.156,-5.104 -0.161,-1.22 0.448,-2.501 2.219,-2.657 1.745,-0.161 2.495,0.767 2.469,2.267 -0.026,1.489 -0.677,2.885 -0.813,4.394 -0.129,1.506 -0.119,3.052 -0.056,4.267 0.072,1.38 -0.407,2.088 -0.833,2.296 -1.079,0.527 -1.991,0.448 -1.991,0.448 z"
     id="path283" />
  <path
     style="fill:#ffffff;fill-opacity:1;fill-rule:nonzero;stroke:none"
     d="m 343.51895,90.013814 c -0.355,-0.969 -1.423,-1.464 -2.385,-1.109 -0.964,0.353 -1.459,1.421 -1.106,2.391 0.35,0.962 1.418,1.458 2.387,1.104 0.963,-0.35 1.457,-1.423 1.104,-2.386"
     id="path284" />
  <path
     style="fill:none;stroke:#231f20;stroke-width:1.33171;stroke-linecap:butt;stroke-linejoin:miter;stroke-miterlimit:4;stroke-dasharray:none;stroke-opacity:1"
     d="m 343.51895,90.013814 c -0.355,-0.969 -1.423,-1.464 -2.385,-1.109 -0.964,0.353 -1.459,1.421 -1.106,2.391 0.35,0.962 1.418,1.458 2.387,1.104 0.963,-0.35 1.457,-1.423 1.104,-2.386 z"
     id="path285" />
  <path
     style="fill:#ffffff;fill-opacity:1;fill-rule:nonzero;stroke:none"
     d="m 279.98195,90.013814 c -0.353,-0.969 -1.421,-1.464 -2.385,-1.109 -0.963,0.353 -1.459,1.421 -1.104,2.391 0.349,0.962 1.421,1.458 2.385,1.104 0.964,-0.35 1.459,-1.423 1.104,-2.386"
     id="path286" />
  <path
     style="fill:none;stroke:#231f20;stroke-width:1.33171;stroke-linecap:butt;stroke-linejoin:miter;stroke-miterlimit:4;stroke-dasharray:none;stroke-opacity:1"
     d="m 279.98195,90.013814 c -0.353,-0.969 -1.421,-1.464 -2.385,-1.109 -0.963,0.353 -1.459,1.421 -1.104,2.391 0.349,0.962 1.421,1.458 2.385,1.104 0.964,-0.35 1.459,-1.423 1.104,-2.386 z"
     id="path287" />
  <path
     style="fill:#ffffff;fill-opacity:1;fill-rule:nonzero;stroke:none"
     d="m 238.94595,79.940814 c -0.355,-0.968 -1.421,-1.463 -2.385,-1.109 -0.964,0.354 -1.459,1.422 -1.104,2.385 0.348,0.969 1.421,1.464 2.385,1.109 0.968,-0.353 1.459,-1.421 1.104,-2.385"
     id="path288" />
  <path
     style="fill:none;stroke:#231f20;stroke-width:1.33171;stroke-linecap:butt;stroke-linejoin:miter;stroke-miterlimit:4;stroke-dasharray:none;stroke-opacity:1"
     d="m 238.94595,79.940814 c -0.355,-0.968 -1.421,-1.463 -2.385,-1.109 -0.964,0.354 -1.459,1.422 -1.104,2.385 0.348,0.969 1.421,1.464 2.385,1.109 0.968,-0.353 1.459,-1.421 1.104,-2.385 z"
     id="path289" />
  <path
     style="fill:#ffffff;fill-opacity:1;fill-rule:nonzero;stroke:none"
     d="m 148.80995,79.940814 c -0.353,-0.968 -1.426,-1.463 -2.385,-1.109 -0.968,0.354 -1.463,1.422 -1.109,2.385 0.354,0.969 1.422,1.464 2.39,1.109 0.964,-0.353 1.459,-1.421 1.104,-2.385"
     id="path290" />
  <path
     style="fill:none;stroke:#231f20;stroke-width:1.33171;stroke-linecap:butt;stroke-linejoin:miter;stroke-miterlimit:4;stroke-dasharray:none;stroke-opacity:1"
     d="m 148.80995,79.940814 c -0.353,-0.968 -1.426,-1.463 -2.385,-1.109 -0.968,0.354 -1.463,1.422 -1.109,2.385 0.354,0.969 1.422,1.464 2.39,1.109 0.964,-0.353 1.459,-1.421 1.104,-2.385 z"
     id="path291" />
  <path
     style="fill:#ffffff;fill-opacity:1;fill-rule:nonzero;stroke:none"
     d="m 103.86795,79.940814 c -0.354,-0.968 -1.422,-1.463 -2.386,-1.109 -0.962,0.354 -1.457,1.422 -1.103,2.385 0.349,0.969 1.417,1.464 2.384,1.109 0.965,-0.353 1.459,-1.421 1.105,-2.385"
     id="path292" />
  <path
     style="fill:none;stroke:#231f20;stroke-width:1.33171;stroke-linecap:butt;stroke-linejoin:miter;stroke-miterlimit:4;stroke-dasharray:none;stroke-opacity:1"
     d="m 103.86795,79.940814 c -0.354,-0.968 -1.422,-1.463 -2.386,-1.109 -0.962,0.354 -1.457,1.422 -1.103,2.385 0.349,0.969 1.417,1.464 2.384,1.109 0.965,-0.353 1.459,-1.421 1.105,-2.385 z"
     id="path293" />
  <path
     style="fill:#ffffff;fill-opacity:1;fill-rule:nonzero;stroke:none"
     d="m 80.62395,79.940814 c -0.355,-0.968 -1.423,-1.463 -2.385,-1.109 -0.965,0.354 -1.4594,1.422 -1.105,2.385 0.348,0.969 1.417,1.464 2.386,1.109 0.962,-0.353 1.457,-1.421 1.104,-2.385"
     id="path294" />
  <path
     style="fill:none;stroke:#231f20;stroke-width:1.33171;stroke-linecap:butt;stroke-linejoin:miter;stroke-miterlimit:4;stroke-dasharray:none;stroke-opacity:1"
     d="m 80.62395,79.940814 c -0.355,-0.968 -1.423,-1.463 -2.385,-1.109 -0.965,0.354 -1.4594,1.422 -1.105,2.385 0.348,0.969 1.417,1.464 2.386,1.109 0.962,-0.353 1.457,-1.421 1.104,-2.385 z"
     id="path295" />
  <path
     style="fill:#ffffff;fill-opacity:1;fill-rule:nonzero;stroke:none"
     d="m 94.05595,79.940814 c -0.355,-0.968 -1.422,-1.463 -2.386,-1.109 -0.969,0.354 -1.464,1.422 -1.109,2.385 0.354,0.969 1.421,1.464 2.39,1.109 0.964,-0.353 1.459,-1.421 1.105,-2.385"
     id="path296" />
  <path
     style="fill:none;stroke:#231f20;stroke-width:1.33171;stroke-linecap:butt;stroke-linejoin:miter;stroke-miterlimit:4;stroke-dasharray:none;stroke-opacity:1"
     d="m 94.05595,79.940814 c -0.355,-0.968 -1.422,-1.463 -2.386,-1.109 -0.969,0.354 -1.464,1.422 -1.109,2.385 0.354,0.969 1.421,1.464 2.39,1.109 0.964,-0.353 1.459,-1.421 1.105,-2.385 z"
     id="path297" />
  <path
     style="fill:#231f20;fill-opacity:1;fill-rule:nonzero;stroke:none"
     d="m 275.45695,78.065814 c 0.114,-0.63 1.634,-1.849 2.405,-3.26 0.521,-0.953 2.715,-2.609 3.157,-3.6 0.411,-0.9 0.687,-1.276 1.802,-0.984 0.656,0.178 1.817,0.932 1.708,1.432 -0.244,1.167 -0.791,1.943 -1.567,2.667 -0.896,0.828 -3.511,2.855 -4.032,3.188 -1.287,0.812 -1.531,1.511 -1.848,1.755 -0.6,0.469 -0.928,0.354 -1.319,0.032 -0.729,-0.62 -0.306,-1.23 -0.306,-1.23"
     id="path298" />
  <path
     style="fill:none;stroke:#231f20;stroke-width:0.565977;stroke-linecap:butt;stroke-linejoin:miter;stroke-miterlimit:4;stroke-dasharray:none;stroke-opacity:1"
     d="m 275.45695,78.065814 c 0.114,-0.63 1.634,-1.849 2.405,-3.26 0.521,-0.953 2.715,-2.609 3.157,-3.6 0.411,-0.9 0.687,-1.276 1.802,-0.984 0.656,0.178 1.817,0.932 1.708,1.432 -0.244,1.167 -0.791,1.943 -1.567,2.667 -0.896,0.828 -3.511,2.855 -4.032,3.188 -1.287,0.812 -1.531,1.511 -1.848,1.755 -0.6,0.469 -0.928,0.354 -1.319,0.032 -0.729,-0.62 -0.306,-1.23 -0.306,-1.23 z"
     id="path299" />
  <path
     style="fill:#231f20;fill-opacity:1;fill-rule:nonzero;stroke:none"
     d="m 281.98695,71.139814 c -0.51,-1.194 1.48,-1.631 1.98,-1.83 0.51,-0.197 1.891,-0.921 2.891,-1.618 1,-0.704 2.552,-1.152 4.457,-2.486 1.006,-0.702 2.423,-0.749 3.38,0.751 0.939,1.484 0.459,2.568 -0.88,3.235 -1.344,0.666 -2.88,0.718 -4.281,1.296 -1.396,0.573 -2.771,1.292 -3.817,1.901 -1.192,0.699 -2.042,0.599 -2.427,0.312 -0.959,-0.713 -1.303,-1.561 -1.303,-1.561"
     id="path300" />
  <path
     style="fill:none;stroke:#231f20;stroke-width:0.565977;stroke-linecap:butt;stroke-linejoin:miter;stroke-miterlimit:4;stroke-dasharray:none;stroke-opacity:1"
     d="m 281.98695,71.139814 c -0.51,-1.194 1.48,-1.631 1.98,-1.83 0.51,-0.197 1.891,-0.921 2.891,-1.618 1,-0.704 2.552,-1.152 4.457,-2.486 1.006,-0.702 2.423,-0.749 3.38,0.751 0.939,1.484 0.459,2.568 -0.88,3.235 -1.344,0.666 -2.88,0.718 -4.281,1.296 -1.396,0.573 -2.771,1.292 -3.817,1.901 -1.192,0.699 -2.042,0.599 -2.427,0.312 -0.959,-0.713 -1.303,-1.561 -1.303,-1.561 z"
     id="path301" />
  <path
     style="fill:#231f20;fill-opacity:1;fill-rule:nonzero;stroke:none"
     d="m 271.84695,83.107814 c 0.692,-0.24 3.239,-2.26 3.796,-2.744 0.5,-0.439 1.568,-0.886 1.267,-2 -0.131,-0.448 -0.625,-1.016 -0.891,-1.194 -0.218,-0.145 -0.521,-0.021 -0.797,0.271 -0.459,0.48 -0.407,0.797 -1.235,1.765 0,0 -0.161,0.262 -0.421,0.746 -0.776,1.432 -0.303,0.88 -1.891,2.702 -0.114,0.126 -0.062,0.334 0.031,0.407 0.147,0.104 0.141,0.047 0.141,0.047"
     id="path302" />
  <path
     style="fill:none;stroke:#231f20;stroke-width:0.565977;stroke-linecap:round;stroke-linejoin:round;stroke-miterlimit:4;stroke-dasharray:none;stroke-opacity:1"
     d="m 271.84695,83.107814 c 0.692,-0.24 3.239,-2.26 3.796,-2.744 0.5,-0.439 1.568,-0.886 1.267,-2 -0.131,-0.448 -0.625,-1.016 -0.891,-1.194 -0.218,-0.145 -0.521,-0.021 -0.797,0.271 -0.459,0.48 -0.407,0.797 -1.235,1.765 0,0 -0.161,0.262 -0.421,0.746 -0.776,1.432 -0.303,0.88 -1.891,2.702 -0.114,0.126 -0.062,0.334 0.031,0.407 0.147,0.104 0.141,0.047 0.141,0.047 z"
     id="path303" />
  <path
     style="fill:#231f20;fill-opacity:1;fill-rule:nonzero;stroke:none"
     d="m 290.76295,87.440814 c 0.423,-0.495 2.344,-0.781 3.724,-1.609 0.928,-0.563 3.656,-0.896 4.538,-1.526 0.806,-0.573 1.233,-0.756 2.052,0.052 0.478,0.484 1.098,1.724 0.76,2.104 -0.803,0.88 -1.667,1.276 -2.703,1.515 -1.188,0.261 -4.469,0.704 -5.079,0.724 -1.526,0.057 -2.088,0.537 -2.489,0.589 -0.756,0.104 -0.98,-0.161 -1.151,-0.636 -0.324,-0.9 0.348,-1.213 0.348,-1.213"
     id="path304" />
  <path
     style="fill:none;stroke:#231f20;stroke-width:0.565977;stroke-linecap:butt;stroke-linejoin:miter;stroke-miterlimit:4;stroke-dasharray:none;stroke-opacity:1"
     d="m 290.76295,87.440814 c 0.423,-0.495 2.344,-0.781 3.724,-1.609 0.928,-0.563 3.656,-0.896 4.538,-1.526 0.806,-0.573 1.233,-0.756 2.052,0.052 0.478,0.484 1.098,1.724 0.76,2.104 -0.803,0.88 -1.667,1.276 -2.703,1.515 -1.188,0.261 -4.469,0.704 -5.079,0.724 -1.526,0.057 -2.088,0.537 -2.489,0.589 -0.756,0.104 -0.98,-0.161 -1.151,-0.636 -0.324,-0.9 0.348,-1.213 0.348,-1.213 z"
     id="path305" />
  <path
     style="fill:#231f20;fill-opacity:1;fill-rule:nonzero;stroke:none"
     d="m 299.40995,86.024814 c -1.219,-0.448 -0.177,-2.193 0.025,-2.693 0.208,-0.511 0.626,-2.011 0.803,-3.214 0.177,-1.218 0.916,-2.65 1.255,-4.953 0.177,-1.208 1.114,-2.276 2.86,-1.937 1.729,0.328 2.186,1.416 1.754,2.854 -0.437,1.432 -1.453,2.588 -1.994,4.006 -0.542,1.405 -0.959,2.9 -1.235,4.077 -0.312,1.349 -0.968,1.896 -1.437,1.98 -1.178,0.208 -2.031,-0.12 -2.031,-0.12"
     id="path306" />
  <path
     style="fill:none;stroke:#231f20;stroke-width:0.565977;stroke-linecap:butt;stroke-linejoin:miter;stroke-miterlimit:4;stroke-dasharray:none;stroke-opacity:1"
     d="m 299.40995,86.024814 c -1.219,-0.448 -0.177,-2.193 0.025,-2.693 0.208,-0.511 0.626,-2.011 0.803,-3.214 0.177,-1.218 0.916,-2.65 1.255,-4.953 0.177,-1.208 1.114,-2.276 2.86,-1.937 1.729,0.328 2.186,1.416 1.754,2.854 -0.437,1.432 -1.453,2.588 -1.994,4.006 -0.542,1.405 -0.959,2.9 -1.235,4.077 -0.312,1.349 -0.968,1.896 -1.437,1.98 -1.178,0.208 -2.031,-0.12 -2.031,-0.12 z"
     id="path307" />
  <path
     style="fill:#231f20;fill-opacity:1;fill-rule:nonzero;stroke:none"
     d="m 285.11795,89.981814 c 0.713,0.147 3.927,-0.328 4.656,-0.468 0.651,-0.12 1.797,0.026 2.093,-1.089 0.12,-0.448 -0.02,-1.192 -0.166,-1.484 -0.115,-0.229 -0.438,-0.271 -0.823,-0.161 -0.64,0.182 -0.749,0.484 -1.953,0.906 0,0 -0.271,0.146 -0.739,0.438 -1.391,0.844 -0.704,0.604 -2.991,1.38 -0.166,0.052 -0.228,0.254 -0.181,0.364 0.072,0.162 0.104,0.114 0.104,0.114"
     id="path308" />
  <path
     style="fill:none;stroke:#231f20;stroke-width:0.565977;stroke-linecap:round;stroke-linejoin:round;stroke-miterlimit:4;stroke-dasharray:none;stroke-opacity:1"
     d="m 285.11795,89.981814 c 0.713,0.147 3.927,-0.328 4.656,-0.468 0.651,-0.12 1.797,0.026 2.093,-1.089 0.12,-0.448 -0.02,-1.192 -0.166,-1.484 -0.115,-0.229 -0.438,-0.271 -0.823,-0.161 -0.64,0.182 -0.749,0.484 -1.953,0.906 0,0 -0.271,0.146 -0.739,0.438 -1.391,0.844 -0.704,0.604 -2.991,1.38 -0.166,0.052 -0.228,0.254 -0.181,0.364 0.072,0.162 0.104,0.114 0.104,0.114 z"
     id="path309" />
  <path
     style="fill:#231f20;fill-opacity:1;fill-rule:nonzero;stroke:none"
     d="m 295.48195,79.784814 c 2.188,-1.797 2.891,-4.547 1.573,-6.156 -1.317,-1.604 -4.15,-1.453 -6.338,0.339 -2.188,1.79 -2.891,4.546 -1.568,6.145 1.308,1.609 4.152,1.459 6.333,-0.328"
     id="path310" />
  <path
     style="fill:none;stroke:#231f20;stroke-width:0.565977;stroke-linecap:butt;stroke-linejoin:miter;stroke-miterlimit:4;stroke-dasharray:none;stroke-opacity:1"
     d="m 295.48195,79.784814 c 2.188,-1.797 2.891,-4.547 1.573,-6.156 -1.317,-1.604 -4.15,-1.453 -6.338,0.339 -2.188,1.79 -2.891,4.546 -1.568,6.145 1.308,1.609 4.152,1.459 6.333,-0.328 z"
     id="path311" />
  <path
     style="fill:none;stroke:#231f20;stroke-width:0.399514;stroke-linecap:butt;stroke-linejoin:miter;stroke-miterlimit:4;stroke-dasharray:none;stroke-opacity:1"
     d="m 303.80495,34.446814 c 23.255,-12.683 30.203,-1.364 25.266,5.453"
     id="path312" />
  <path
     style="fill:#231f20;fill-opacity:1;fill-rule:nonzero;stroke:none"
     d="m 328.36195,40.872814 c 0.166,-0.582 0.286,-1.364 0.234,-1.937 l 0.568,0.833 0.974,0.282 c -0.567,0.13 -1.271,0.484 -1.776,0.822"
     id="path313" />
  <path
     style="fill:#231f20;fill-opacity:1;fill-rule:nonzero;stroke:none"
     d="m 304.43495,56.700814 c -2.89,-2.156 -1.64,-3.285 -0.082,-7.052 1.708,-4.124 3.926,-8.233 6.27,-10.557 2.62,-2.599 2.401,-3.067 4.235,-2.509 1.837,0.562 1.624,1.312 2.066,2.525 0.511,1.396 -4.453,6.833 -6.114,11.287 -0.781,2.087 -1.291,7.587 -2.728,7.411 -1.444,-0.177 -3.647,-1.105 -3.647,-1.105"
     id="path314" />
  <path
     style="fill:none;stroke:#231f20;stroke-width:0.565977;stroke-linecap:butt;stroke-linejoin:miter;stroke-miterlimit:4;stroke-dasharray:none;stroke-opacity:1"
     d="m 304.43495,56.700814 c -2.89,-2.156 -1.64,-3.285 -0.082,-7.052 1.708,-4.124 3.926,-8.233 6.27,-10.557 2.62,-2.599 2.401,-3.067 4.235,-2.509 1.837,0.562 1.624,1.312 2.066,2.525 0.511,1.396 -4.453,6.833 -6.114,11.287 -0.781,2.087 -1.291,7.587 -2.728,7.411 -1.444,-0.177 -3.647,-1.105 -3.647,-1.105 z"
     id="path315" />
  <path
     style="fill:#231f20;fill-opacity:1;fill-rule:nonzero;stroke:none"
     d="m 314.83595,38.836814 c -2.073,-0.901 -2.693,-1.136 -1.344,-3.245 0.344,-0.536 1.407,-1.957 1.516,-2.328 0.386,-1.244 0.927,-2.651 5.61,-7.281 0.724,-0.714 1.874,-2.328 2.786,-3.395 0.88,-1.037 2,1.129 1.662,1.536 -1.099,1.317 -1.522,2.407 -1.85,2.937 -0.224,0.36 -0.76,0.964 -1.265,2.547 -1.313,4.073 -3.005,4.683 -3.355,5.516 -1,2.38 -1.364,4.62 -2.03,4.599 -1.09,-0.026 -1.73,-0.886 -1.73,-0.886"
     id="path316" />
  <path
     style="fill:none;stroke:#231f20;stroke-width:0.565977;stroke-linecap:butt;stroke-linejoin:miter;stroke-miterlimit:4;stroke-dasharray:none;stroke-opacity:1"
     d="m 314.83595,38.836814 c -2.073,-0.901 -2.693,-1.136 -1.344,-3.245 0.344,-0.536 1.407,-1.957 1.516,-2.328 0.386,-1.244 0.927,-2.651 5.61,-7.281 0.724,-0.714 1.874,-2.328 2.786,-3.395 0.88,-1.037 2,1.129 1.662,1.536 -1.099,1.317 -1.522,2.407 -1.85,2.937 -0.224,0.36 -0.76,0.964 -1.265,2.547 -1.313,4.073 -3.005,4.683 -3.355,5.516 -1,2.38 -1.364,4.62 -2.03,4.599 -1.09,-0.026 -1.73,-0.886 -1.73,-0.886 z"
     id="path317" />
  <path
     style="fill:#231f20;fill-opacity:1;fill-rule:nonzero;stroke:none"
     d="m 310.02495,59.451814 c 3.399,1.182 3.634,-0.484 5.874,-3.896 2.448,-3.724 4.609,-7.875 5.213,-11.12 0.678,-3.62 1.188,-3.703 -0.302,-4.905 -1.495,-1.204 -2,-0.615 -3.255,-0.298 -1.437,0.375 -3.151,7.531 -5.896,11.402 -1.292,1.817 -5.557,5.327 -4.604,6.421 0.964,1.093 2.97,2.396 2.97,2.396"
     id="path318" />
  <path
     style="fill:none;stroke:#231f20;stroke-width:0.565977;stroke-linecap:butt;stroke-linejoin:miter;stroke-miterlimit:4;stroke-dasharray:none;stroke-opacity:1"
     d="m 310.02495,59.451814 c 3.399,1.182 3.634,-0.484 5.874,-3.896 2.448,-3.724 4.609,-7.875 5.213,-11.12 0.678,-3.62 1.188,-3.703 -0.302,-4.905 -1.495,-1.204 -2,-0.615 -3.255,-0.298 -1.437,0.375 -3.151,7.531 -5.896,11.402 -1.292,1.817 -5.557,5.327 -4.604,6.421 0.964,1.093 2.97,2.396 2.97,2.396 z"
     id="path319" />
  <path
     style="fill:#231f20;fill-opacity:1;fill-rule:nonzero;stroke:none"
     d="m 318.97095,40.831814 c 1.917,1.203 2.464,1.579 3.439,-0.729 0.244,-0.583 0.812,-2.266 1.057,-2.572 0.807,-1.011 1.661,-2.256 2.823,-8.74 0.181,-1.006 0.853,-2.866 1.224,-4.214 0.348,-1.313 -2.063,-1.021 -2.21,-0.5 -0.468,1.646 -1.124,2.61 -1.369,3.178 -0.172,0.4 -0.364,1.176 -1.385,2.494 -2.615,3.386 -2.156,5.124 -2.646,5.886 -1.396,2.172 -3.037,3.738 -2.641,4.281 0.641,0.875 1.708,0.916 1.708,0.916"
     id="path320" />
  <path
     style="fill:none;stroke:#231f20;stroke-width:0.565977;stroke-linecap:butt;stroke-linejoin:miter;stroke-miterlimit:4;stroke-dasharray:none;stroke-opacity:1"
     d="m 318.97095,40.831814 c 1.917,1.203 2.464,1.579 3.439,-0.729 0.244,-0.583 0.812,-2.266 1.057,-2.572 0.807,-1.011 1.661,-2.256 2.823,-8.74 0.181,-1.006 0.853,-2.866 1.224,-4.214 0.348,-1.313 -2.063,-1.021 -2.21,-0.5 -0.468,1.646 -1.124,2.61 -1.369,3.178 -0.172,0.4 -0.364,1.176 -1.385,2.494 -2.615,3.386 -2.156,5.124 -2.646,5.886 -1.396,2.172 -3.037,3.738 -2.641,4.281 0.641,0.875 1.708,0.916 1.708,0.916 z"
     id="path321" />
  <path
     style="fill:#231f20;fill-opacity:1;fill-rule:nonzero;stroke:none"
     d="m 329.71095,21.831814 c -0.016,0.672 -1.697,1.313 -2.62,3.057 -0.187,0.355 -0.505,0.552 -0.787,0.798 -1.134,1 -2.708,1.27 -1.842,-2.459 0.118,-0.511 1.396,-2.183 1.509,-2.953 0.272,-1.85 3.027,-3.714 3.407,-3.364 0.838,0.749 0.333,4.921 0.333,4.921"
     id="path322" />
  <path
     style="fill:none;stroke:#231f20;stroke-width:0.644548;stroke-linecap:round;stroke-linejoin:round;stroke-miterlimit:4;stroke-dasharray:none;stroke-opacity:1"
     d="m 329.71095,21.831814 c -0.016,0.672 -1.697,1.313 -2.62,3.057 -0.187,0.355 -0.505,0.552 -0.787,0.798 -1.134,1 -2.708,1.27 -1.842,-2.459 0.118,-0.511 1.396,-2.183 1.509,-2.953 0.272,-1.85 3.027,-3.714 3.407,-3.364 0.838,0.749 0.333,4.921 0.333,4.921 z"
     id="path323" />
  <path
     style="fill:#231f20;fill-opacity:1;fill-rule:nonzero;stroke:none"
     d="m 324.30995,18.904814 c -0.558,0.364 -0.203,2.135 -1.198,3.839 -0.198,0.348 -0.198,0.724 -0.254,1.093 -0.24,1.495 0.369,2.97 3.066,0.255 0.371,-0.38 1.104,-2.343 1.699,-2.853 1.416,-1.214 1.531,-4.538 1.031,-4.672 -1.074,-0.308 -4.344,2.338 -4.344,2.338"
     id="path324" />
  <path
     style="fill:none;stroke:#231f20;stroke-width:0.644548;stroke-linecap:round;stroke-linejoin:round;stroke-miterlimit:4;stroke-dasharray:none;stroke-opacity:1"
     d="m 324.30995,18.904814 c -0.558,0.364 -0.203,2.135 -1.198,3.839 -0.198,0.348 -0.198,0.724 -0.254,1.093 -0.24,1.495 0.369,2.97 3.066,0.255 0.371,-0.38 1.104,-2.343 1.699,-2.853 1.416,-1.214 1.531,-4.538 1.031,-4.672 -1.074,-0.308 -4.344,2.338 -4.344,2.338 z"
     id="path325" />
  <path
     style="fill:#231f20;fill-opacity:1;fill-rule:nonzero;stroke:none"
     d="m 307.20595,51.716814 c -0.025,0.719 0.943,3.828 1.193,4.527 0.224,0.624 0.26,1.781 1.406,1.896 0.463,0.041 1.177,-0.215 1.438,-0.402 0.208,-0.146 0.203,-0.474 0.036,-0.833 -0.281,-0.604 -0.604,-0.667 -1.208,-1.787 0,0 -0.188,-0.245 -0.542,-0.661 -1.058,-1.245 -0.708,-0.599 -1.838,-2.74 -0.078,-0.156 -0.292,-0.182 -0.386,-0.12 -0.156,0.095 -0.099,0.12 -0.099,0.12"
     id="path326" />
  <path
     style="fill:none;stroke:#231f20;stroke-width:0.565977;stroke-linecap:round;stroke-linejoin:round;stroke-miterlimit:4;stroke-dasharray:none;stroke-opacity:1"
     d="m 307.20595,51.716814 c -0.025,0.719 0.943,3.828 1.193,4.527 0.224,0.624 0.26,1.781 1.406,1.896 0.463,0.041 1.177,-0.215 1.438,-0.402 0.208,-0.146 0.203,-0.474 0.036,-0.833 -0.281,-0.604 -0.604,-0.667 -1.208,-1.787 0,0 -0.188,-0.245 -0.542,-0.661 -1.058,-1.245 -0.708,-0.599 -1.838,-2.74 -0.078,-0.156 -0.292,-0.182 -0.386,-0.12 -0.156,0.095 -0.099,0.12 -0.099,0.12 z"
     id="path327" />
  <path
     style="fill:#0098c9;fill-opacity:1;fill-rule:nonzero;stroke:none"
     d="m 310.84195,62.347814 -0.287,-0.219 c -1.36,-2.803 1.391,-7.959 1.391,-7.959 0,0 -0.251,-0.697 -0.651,-0.984 -0.407,-0.281 -1.152,-0.276 -1.152,-0.276 0,0 -3.916,4.339 -7.009,4.006 l -0.303,-0.194 c -0.245,-1.229 -0.333,1.183 -0.77,1.782 -1.918,2.625 -5.844,5.885 -7.047,6.458 -1.656,0.787 -4.057,-0.276 -4.276,1.875 0,0 -0.557,1.864 1.932,3.172 0.901,0.473 2.297,2.333 2.297,2.333 0,0 0.714,1.146 1.651,1.834 0.833,0.609 1.959,0.822 2.197,0.864 0,0 2.219,0.688 2.975,1.37 2.072,1.9 3.744,0.484 3.744,0.484 1.948,-0.937 0.027,-2.573 0.204,-4.401 0.129,-1.328 1.864,-6.125 3.687,-8.823 0.417,-0.614 2.651,-1.516 1.417,-1.322"
     id="path328" />
  <path
     style="fill:none;stroke:#231f20;stroke-width:0.565977;stroke-linecap:butt;stroke-linejoin:miter;stroke-miterlimit:4;stroke-dasharray:none;stroke-opacity:1"
     d="m 310.84195,62.347814 -0.287,-0.219 c -1.36,-2.803 1.391,-7.959 1.391,-7.959 0,0 -0.251,-0.697 -0.651,-0.984 -0.407,-0.281 -1.152,-0.276 -1.152,-0.276 0,0 -3.916,4.339 -7.009,4.006 l -0.303,-0.194 c -0.245,-1.229 -0.333,1.183 -0.77,1.782 -1.918,2.625 -5.844,5.885 -7.047,6.458 -1.656,0.787 -4.057,-0.276 -4.276,1.875 0,0 -0.557,1.864 1.932,3.172 0.901,0.473 2.297,2.333 2.297,2.333 0,0 0.714,1.146 1.651,1.834 0.833,0.609 1.959,0.822 2.197,0.864 0,0 2.219,0.688 2.975,1.37 2.072,1.9 3.744,0.484 3.744,0.484 1.948,-0.937 0.027,-2.573 0.204,-4.401 0.129,-1.328 1.864,-6.125 3.687,-8.823 0.417,-0.614 2.651,-1.516 1.417,-1.322 z"
     id="path329" />
  <path
     style="fill:#0098c9;fill-opacity:1;fill-rule:nonzero;stroke:none"
     d="m 310.43495,62.904814 c 0.323,-0.136 1.5,-0.833 1.869,-1.109 2.366,-1.798 4.334,-5.219 5.21,-6.152 0.88,-0.922 -4.792,-4.28 -4.792,-4.28 l -1.318,0.65 c -0.161,-0.598 -0.161,-0.098 -0.161,-0.098 l -0.12,-1.609 c 0,0 -5.401,-3.558 -5.792,-2.62 -0.536,1.281 -2.86,5.286 -3.229,7.702 -0.203,1.333 0.115,2.308 0.115,2.308 0,0 3.677,0.957 4.896,1.697 1.224,0.74 3.322,3.511 3.322,3.511"
     id="path330" />
  <path
     style="fill:none;stroke:#231f20;stroke-width:0.565977;stroke-linecap:butt;stroke-linejoin:miter;stroke-miterlimit:4;stroke-dasharray:none;stroke-opacity:1"
     d="m 310.43495,62.904814 c 0.323,-0.136 1.5,-0.833 1.869,-1.109 2.366,-1.798 4.334,-5.219 5.21,-6.152 0.88,-0.922 -4.792,-4.28 -4.792,-4.28 l -1.318,0.65 c -0.161,-0.598 -0.161,-0.098 -0.161,-0.098 l -0.12,-1.609 c 0,0 -5.401,-3.558 -5.792,-2.62 -0.536,1.281 -2.86,5.286 -3.229,7.702 -0.203,1.333 0.115,2.308 0.115,2.308 0,0 3.677,0.957 4.896,1.697 1.224,0.74 3.322,3.511 3.322,3.511 z"
     id="path331" />
  <path
     style="fill:none;stroke:#231f20;stroke-width:0.565977;stroke-linecap:round;stroke-linejoin:round;stroke-miterlimit:4;stroke-dasharray:none;stroke-opacity:1"
     d="m 313.83595,53.997814 c -0.478,-1.734 -2.636,-1.921 -2.636,-1.921 -1.139,-1.442 -2.738,-1.552 -2.738,-1.552"
     id="path332" />
  <path
     style="fill:none;stroke:#231f20;stroke-width:1.33171;stroke-linecap:butt;stroke-linejoin:miter;stroke-miterlimit:4;stroke-dasharray:29.9636, 29.9636, 29.9636, 29.9636, 29.9636, 29.9636;stroke-dashoffset:0;stroke-opacity:1"
     d="m 252.78495,80.591814 v -37.859"
     id="path333" />
  <path
     style="fill:none;stroke:#231f20;stroke-width:1.33171;stroke-linecap:butt;stroke-linejoin:miter;stroke-miterlimit:4;stroke-dasharray:29.9636, 29.9636, 29.9636, 29.9636, 29.9636, 29.9636;stroke-dashoffset:0;stroke-opacity:1"
     d="M 252.78495,134.00881 V 96.144814"
     id="path334" />
  <path
     style="fill:none;stroke:#231f20;stroke-width:1.33171;stroke-linecap:butt;stroke-linejoin:miter;stroke-miterlimit:4;stroke-dasharray:29.9636, 29.9636, 29.9636, 29.9636, 29.9636, 29.9636;stroke-dashoffset:0;stroke-opacity:1"
     d="m 138.63395,80.591814 v -37.859"
     id="path335" />
  <path
     style="fill:none;stroke:#231f20;stroke-width:1.33171;stroke-linecap:butt;stroke-linejoin:miter;stroke-miterlimit:4;stroke-dasharray:29.9636, 29.9636, 29.9636, 29.9636, 29.9636, 29.9636;stroke-dashoffset:0;stroke-opacity:1"
     d="M 138.63395,134.00881 V 96.144814"
     id="path336" />
  <path
     style="fill:none;stroke:#231f20;stroke-width:0.399514;stroke-linecap:butt;stroke-linejoin:miter;stroke-miterlimit:4;stroke-dasharray:none;stroke-opacity:1"
     d="m 41.47195,119.46181 c 11.0838,24.058 45.084,19.182 51.464,15.714"
     id="path337" />
  <path
     style="fill:#231f20;fill-opacity:1;fill-rule:nonzero;stroke:none"
     d="m 93.99295,134.60181 c -0.396,0.454 -0.844,1.104 -1.047,1.647 l -0.15,-1 -0.756,-0.672 c 0.568,0.129 1.354,0.109 1.953,0.025"
     id="path338" />
</svg>
