<?xml version="1.0" encoding="UTF-8" standalone="no"?>
<!-- Created with Inkscape (http://www.inkscape.org/) -->

<svg
   version="1.1"
   id="svg1"
   width="145.55856"
   height="119.53"
   viewBox="0 0 145.55856 119.53"
   sodipodi:docname="cell.svg"
   xmlns:inkscape="http://www.inkscape.org/namespaces/inkscape"
   xmlns:sodipodi="http://sodipodi.sourceforge.net/DTD/sodipodi-0.dtd"
   xmlns="http://www.w3.org/2000/svg"
   xmlns:svg="http://www.w3.org/2000/svg">
  <sodipodi:namedview
     id="namedview1"
     pagecolor="#ffffff"
     bordercolor="#000000"
     borderopacity="0.25"
     inkscape:showpageshadow="2"
     inkscape:pageopacity="0.0"
     inkscape:pagecheckerboard="0"
     inkscape:deskcolor="#d1d1d1">
    <inkscape:page
       x="0"
       y="0"
       inkscape:label="1"
       id="page1"
       width="145.55856"
       height="119.53"
       margin="0"
       bleed="0" />
  </sodipodi:namedview>
  <defs
     id="defs1" />
  <path
     style="fill:#231f20;fill-opacity:1;fill-rule:nonzero;stroke:none"
     d="m 140.59554,8.3739998 c -0.027,1.355 -0.959,1.6880002 -1.934,1.328 -0.285,-0.104 -0.65,0.099 -0.921,-0.025 -0.636,-0.303 -1.177,-1.959 0.093,-2.756 0.09,-0.057 0.626,-0.681 1.095,-1.088 0.921,-0.787 3.14,-1.927 5.697,-1.073 1.214,0.401 0.751,1.041 0.214,1.032 -1.714,-0.052 -1.875,0.281 -2.328,0.432 -1.542,0.505 -1.916,2.15 -1.916,2.15"
     id="path743" />
  <path
     style="fill:none;stroke:#231f20;stroke-width:0.332927;stroke-linecap:butt;stroke-linejoin:miter;stroke-miterlimit:4;stroke-dasharray:none;stroke-opacity:1"
     d="m 140.59554,8.3739998 c -0.027,1.355 -0.959,1.6880002 -1.934,1.328 -0.285,-0.104 -0.65,0.099 -0.921,-0.025 -0.636,-0.303 -1.177,-1.959 0.093,-2.756 0.09,-0.057 0.626,-0.681 1.095,-1.088 0.921,-0.787 3.14,-1.927 5.697,-1.073 1.214,0.401 0.751,1.041 0.214,1.032 -1.714,-0.052 -1.875,0.281 -2.328,0.432 -1.542,0.505 -1.916,2.15 -1.916,2.15 z"
     id="path744" />
  <path
     style="fill:#231f20;fill-opacity:1;fill-rule:nonzero;stroke:none"
     d="m 124.56854,18.109 c 1.089,1.984 1.568,2.224 2.437,1.817 0.579,-0.265 1.21,-0.317 1.568,-0.468 1.198,-0.49 3.016,-1.813 7.194,-6.901 0.942,-1.156 2.285,-2.7650002 2.885,-3.3800002 0.948,-0.969 -1.308,-1.885 -1.683,-1.511 -1.213,1.214 -2.141,1.954 -2.641,2.328 -0.337,0.2600002 -0.875,0.7980002 -2.323,1.6310002 -2.192,1.26 -3.686,1.687 -5.385,2.948 -0.792,0.583 -1.755,0.52 -2.235,1.495 -0.489,0.968 0.183,2.041 0.183,2.041"
     id="path745" />
  <path
     style="fill:none;stroke:#231f20;stroke-width:0.565977;stroke-linecap:butt;stroke-linejoin:miter;stroke-miterlimit:4;stroke-dasharray:none;stroke-opacity:1"
     d="m 124.56854,18.109 c 1.089,1.984 1.568,2.224 2.437,1.817 0.579,-0.265 1.21,-0.317 1.568,-0.468 1.198,-0.49 3.016,-1.813 7.194,-6.901 0.942,-1.156 2.285,-2.7650002 2.885,-3.3800002 0.948,-0.969 -1.308,-1.885 -1.683,-1.511 -1.213,1.214 -2.141,1.954 -2.641,2.328 -0.337,0.2600002 -0.875,0.7980002 -2.323,1.6310002 -2.192,1.26 -3.686,1.687 -5.385,2.948 -0.792,0.583 -1.755,0.52 -2.235,1.495 -0.489,0.968 0.183,2.041 0.183,2.041 z"
     id="path746" />
  <path
     style="fill:#0098c9;fill-opacity:1;fill-rule:nonzero;stroke:none"
     d="m 102.84454,33.901 c 3.027,-0.808 3.765,-0.652 4.677,-0.522 5.724,0.823 6.022,-2.005 4.782,-4.609 -1.448,-3.062 -1.907,-4.193 -7.812,-1.994 -1.636,0.609 -8.239997,2.13 -8.239997,2.13 -2.438,0.224 -4.694,1.744 -5.172,3.124 -0.5,1.448 -0.194,0.907 -0.422,2.333 -0.209,1.366 0.594,3.396 1.766,3.792 1.125,0.38 2.39,-0.702 4.421,-2.025 1.604,-1.043 5.999997,-2.229 5.999997,-2.229"
     id="path747" />
  <path
     style="fill:none;stroke:#231f20;stroke-width:0.565977;stroke-linecap:butt;stroke-linejoin:miter;stroke-miterlimit:4;stroke-dasharray:none;stroke-opacity:1"
     d="m 102.84454,33.901 c 3.027,-0.808 3.765,-0.652 4.677,-0.522 5.724,0.823 6.022,-2.005 4.782,-4.609 -1.448,-3.062 -1.907,-4.193 -7.812,-1.994 -1.636,0.609 -8.239997,2.13 -8.239997,2.13 -2.438,0.224 -4.694,1.744 -5.172,3.124 -0.5,1.448 -0.194,0.907 -0.422,2.333 -0.209,1.366 0.594,3.396 1.766,3.792 1.125,0.38 2.39,-0.702 4.421,-2.025 1.604,-1.043 5.999997,-2.229 5.999997,-2.229 z"
     id="path748" />
  <path
     style="fill:#ffffff;fill-opacity:1;fill-rule:nonzero;stroke:none"
     d="m 84.652543,33.077 c -0.251,0.005 -0.563,-1.099 -1.079,-0.995 -0.516,0.109 -0.552,0.896 -2.136,2.1 l -0.014,0.009 c -1.194,0.839 -1.886,2.043 -1.724,3.287 0.254,2.063 2.734,3.443 5.536,3.095 2.808,-0.355 4.865,-2.308 4.604,-4.371 -0.239,-1.968 -2.536,-3.328 -5.187,-3.125"
     id="path749" />
  <path
     style="fill:none;stroke:#231f20;stroke-width:0.565977;stroke-linecap:butt;stroke-linejoin:miter;stroke-miterlimit:4;stroke-dasharray:none;stroke-opacity:1"
     d="m 84.652543,33.077 c -0.251,0.005 -0.563,-1.099 -1.079,-0.995 -0.516,0.109 -0.552,0.896 -2.136,2.1 l -0.014,0.009 c -1.194,0.839 -1.886,2.043 -1.724,3.287 0.254,2.063 2.734,3.443 5.536,3.095 2.808,-0.355 4.865,-2.308 4.604,-4.371 -0.239,-1.968 -2.536,-3.328 -5.187,-3.125 z"
     id="path750" />
  <path
     style="fill:#231f20;fill-opacity:1;fill-rule:nonzero;stroke:none"
     d="m 126.94854,17.448 c -1.624,-3.672 -4.219,-0.522 -4.656,-0.328 -4.593,2.01 -4.869,2.265 -8.26,4.041 -4.896,2.563 -7.86,5.068 -7.199,8.354 0.448,2.228 1.672,3.318 2.964,3.552 1.438,0.26 4.474,-0.677 5.23,-3.469 l 1.249,-1.172 c 0.943,-0.677 1.407,-1.02 1.896,-1.317 0.86,-0.521 1.745,-1.125 3.36,-2.235 2.864,-1.968 5.249,-4.978 5.249,-4.978 1.011,-0.73 0.167,-2.448 0.167,-2.448"
     id="path751" />
  <path
     style="fill:none;stroke:#231f20;stroke-width:0.565977;stroke-linecap:butt;stroke-linejoin:miter;stroke-miterlimit:4;stroke-dasharray:none;stroke-opacity:1"
     d="m 126.94854,17.448 c -1.624,-3.672 -4.219,-0.522 -4.656,-0.328 -4.593,2.01 -4.869,2.265 -8.26,4.041 -4.896,2.563 -7.86,5.068 -7.199,8.354 0.448,2.228 1.672,3.318 2.964,3.552 1.438,0.26 4.474,-0.677 5.23,-3.469 l 1.249,-1.172 c 0.943,-0.677 1.407,-1.02 1.896,-1.317 0.86,-0.521 1.745,-1.125 3.36,-2.235 2.864,-1.968 5.249,-4.978 5.249,-4.978 1.011,-0.73 0.167,-2.448 0.167,-2.448 z"
     id="path752" />
  <path
     style="fill:#0098c9;fill-opacity:1;fill-rule:nonzero;stroke:#231f20;stroke-width:0.565977;stroke-linecap:butt;stroke-linejoin:miter;stroke-miterlimit:4;stroke-dasharray:none;stroke-opacity:1"
     d="m 110.10054,22.797 c -0.491,0.443 -0.917,0.88 -1.308,1.312 -0.073,0.041 -0.14,0.079 -0.208,0.104 -0.756,0.281 -0.959,0.875 -1.245,1.875 -0.755,1.354 -0.968,2.703 -0.438,4.078 0.812,2.12 2.199,2.995 3.516,3.011 1.459,0.014 4.302,-1.418 4.578,-4.287 z"
     id="path753" />
  <path
     style="fill:#231f20;fill-opacity:1;fill-rule:nonzero;stroke:none"
     d="m 74.557543,42.639 c 0.334,-0.552 2.194,-1.14 3.423,-2.176 0.828,-0.698 3.473,-1.458 4.244,-2.22 0.709,-0.692 1.104,-0.942 2.037,-0.265 0.547,0.401 1.354,1.527 1.078,1.953 -0.651,0.995 -1.443,1.527 -2.432,1.918 -1.131,0.448 -4.303,1.394 -4.902,1.52 -1.5,0.292 -1.973,0.854 -2.364,0.969 -0.729,0.219 -0.994,-0.011 -1.24,-0.448 -0.458,-0.839 0.156,-1.251 0.156,-1.251"
     id="path754" />
  <path
     style="fill:none;stroke:#231f20;stroke-width:0.565977;stroke-linecap:butt;stroke-linejoin:miter;stroke-miterlimit:4;stroke-dasharray:none;stroke-opacity:1"
     d="m 74.557543,42.639 c 0.334,-0.552 2.194,-1.14 3.423,-2.176 0.828,-0.698 3.473,-1.458 4.244,-2.22 0.709,-0.692 1.104,-0.942 2.037,-0.265 0.547,0.401 1.354,1.527 1.078,1.953 -0.651,0.995 -1.443,1.527 -2.432,1.918 -1.131,0.448 -4.303,1.394 -4.902,1.52 -1.5,0.292 -1.973,0.854 -2.364,0.969 -0.729,0.219 -0.994,-0.011 -1.24,-0.448 -0.458,-0.839 0.156,-1.251 0.156,-1.251 z"
     id="path755" />
  <path
     style="fill:#231f20;fill-opacity:1;fill-rule:nonzero;stroke:none"
     d="m 82.719543,38.702 c -0.432,-1.219 1.584,-1.536 2.094,-1.697 0.52,-0.167 1.943,-0.803 2.984,-1.438 1.047,-0.641 2.626,-0.99 4.615,-2.198 1.047,-0.635 2.464,-0.594 3.317,0.964 0.844,1.536 0.298,2.593 -1.077,3.172 -1.381,0.577 -2.923,0.536 -4.355,1.025 -1.432,0.485 -2.844,1.115 -3.926,1.657 -1.235,0.619 -2.079,0.463 -2.443,0.156 -0.912,-0.77 -1.209,-1.641 -1.209,-1.641"
     id="path756" />
  <path
     style="fill:none;stroke:#231f20;stroke-width:0.565977;stroke-linecap:butt;stroke-linejoin:miter;stroke-miterlimit:4;stroke-dasharray:none;stroke-opacity:1"
     d="m 82.719543,38.702 c -0.432,-1.219 1.584,-1.536 2.094,-1.697 0.52,-0.167 1.943,-0.803 2.984,-1.438 1.047,-0.641 2.626,-0.99 4.615,-2.198 1.047,-0.635 2.464,-0.594 3.317,0.964 0.844,1.536 0.298,2.593 -1.077,3.172 -1.381,0.577 -2.923,0.536 -4.355,1.025 -1.432,0.485 -2.844,1.115 -3.926,1.657 -1.235,0.619 -2.079,0.463 -2.443,0.156 -0.912,-0.77 -1.209,-1.641 -1.209,-1.641 z"
     id="path757" />
  <path
     style="fill:#231f20;fill-opacity:1;fill-rule:nonzero;stroke:none"
     d="m 133.24054,91.701999 c -1.249,0.521 -1.927,-0.197 -1.989,-1.235 -0.022,-0.306 -0.355,-0.552 -0.35,-0.853 0.022,-0.708 1.323,-1.865 2.563,-1.021 0.088,0.057 0.875,0.297 1.437,0.562 1.09,0.527 3.022,2.104 3.271,4.792 0.12,1.271 -0.656,1.104 -0.859,0.61 -0.646,-1.594 -1.01,-1.604 -1.333,-1.959 -1.084,-1.208 -2.74,-0.896 -2.74,-0.896"
     id="path758" />
  <path
     style="fill:none;stroke:#231f20;stroke-width:0.332927;stroke-linecap:butt;stroke-linejoin:miter;stroke-miterlimit:4;stroke-dasharray:none;stroke-opacity:1"
     d="m 133.24054,91.701999 c -1.249,0.521 -1.927,-0.197 -1.989,-1.235 -0.022,-0.306 -0.355,-0.552 -0.35,-0.853 0.022,-0.708 1.323,-1.865 2.563,-1.021 0.088,0.057 0.875,0.297 1.437,0.562 1.09,0.527 3.022,2.104 3.271,4.792 0.12,1.271 -0.656,1.104 -0.859,0.61 -0.646,-1.594 -1.01,-1.604 -1.333,-1.959 -1.084,-1.208 -2.74,-0.896 -2.74,-0.896 z"
     id="path759" />
  <path
     style="fill:#231f20;fill-opacity:1;fill-rule:nonzero;stroke:none"
     d="m 117.89154,80.936999 c -1.38,1.792 -1.406,2.328 -0.687,2.964 0.479,0.421 0.776,0.973 1.057,1.249 0.938,0.901 2.87,2.032 9.208,3.813 1.438,0.4 3.454,0.979 4.255,1.286 1.271,0.474 1.204,-1.958 0.709,-2.146 -1.6,-0.625 -2.646,-1.182 -3.193,-1.484 -0.375,-0.209 -1.083,-0.489 -2.421,-1.474 -2.038,-1.5 -3.027,-2.703 -4.866,-3.75 -0.853,-0.489 -1.182,-1.401 -2.265,-1.448 -1.084,-0.057 -1.797,0.99 -1.797,0.99"
     id="path760" />
  <path
     style="fill:none;stroke:#231f20;stroke-width:0.565977;stroke-linecap:butt;stroke-linejoin:miter;stroke-miterlimit:4;stroke-dasharray:none;stroke-opacity:1"
     d="m 117.89154,80.936999 c -1.38,1.792 -1.406,2.328 -0.687,2.964 0.479,0.421 0.776,0.973 1.057,1.249 0.938,0.901 2.87,2.032 9.208,3.813 1.438,0.4 3.454,0.979 4.255,1.286 1.271,0.474 1.204,-1.958 0.709,-2.146 -1.6,-0.625 -2.646,-1.182 -3.193,-1.484 -0.375,-0.209 -1.083,-0.489 -2.421,-1.474 -2.038,-1.5 -3.027,-2.703 -4.866,-3.75 -0.853,-0.489 -1.182,-1.401 -2.265,-1.448 -1.084,-0.057 -1.797,0.99 -1.797,0.99 z"
     id="path761" />
  <path
     style="fill:#0098c9;fill-opacity:1;fill-rule:nonzero;stroke:none"
     d="m 94.704543,67.379 c 1.957,2.454 2.109,3.188 2.353,4.079 1.552,5.566999 4.255997,4.702999 6.141997,2.525 2.224,-2.557 3.077,-3.432 -1.308,-7.958 -1.219,-1.255 -5.259997,-6.687 -5.259997,-6.687 -1.183,-2.141 -3.479,-3.599 -4.932,-3.484 -1.532,0.119 -0.918,0.181 -2.314,0.552 -1.328,0.353 -2.869,1.905 -2.76,3.14 0.099,1.183 1.599,1.907 3.626,3.235 1.598,1.052 4.453,4.598 4.453,4.598"
     id="path762" />
  <path
     style="fill:none;stroke:#231f20;stroke-width:0.565977;stroke-linecap:butt;stroke-linejoin:miter;stroke-miterlimit:4;stroke-dasharray:none;stroke-opacity:1"
     d="m 94.704543,67.379 c 1.957,2.454 2.109,3.188 2.353,4.079 1.552,5.566999 4.255997,4.702999 6.141997,2.525 2.224,-2.557 3.077,-3.432 -1.308,-7.958 -1.219,-1.255 -5.259997,-6.687 -5.259997,-6.687 -1.183,-2.141 -3.479,-3.599 -4.932,-3.484 -1.532,0.119 -0.918,0.181 -2.314,0.552 -1.328,0.353 -2.869,1.905 -2.76,3.14 0.099,1.183 1.599,1.907 3.626,3.235 1.598,1.052 4.453,4.598 4.453,4.598 z"
     id="path763" />
  <path
     style="fill:#ffffff;fill-opacity:1;fill-rule:nonzero;stroke:none"
     d="m 88.152543,50.385 c -0.1,-0.224 0.785,-0.959 0.479,-1.386 -0.307,-0.426 -1.036,-0.141 -2.776,-1.114 l -0.016,-0.011 c -1.25,-0.749 -2.63,-0.901 -3.708,-0.26 -1.782,1.068 -2.052,3.896 -0.61,6.317 1.454,2.427 4.074,3.532 5.855,2.464 1.708,-1.016 2.031,-3.656 0.776,-6.01"
     id="path764" />
  <path
     style="fill:none;stroke:#231f20;stroke-width:0.565977;stroke-linecap:butt;stroke-linejoin:miter;stroke-miterlimit:4;stroke-dasharray:none;stroke-opacity:1"
     d="m 88.152543,50.385 c -0.1,-0.224 0.785,-0.959 0.479,-1.386 -0.307,-0.426 -1.036,-0.141 -2.776,-1.114 l -0.016,-0.011 c -1.25,-0.749 -2.63,-0.901 -3.708,-0.26 -1.782,1.068 -2.052,3.896 -0.61,6.317 1.454,2.427 4.074,3.532 5.855,2.464 1.708,-1.016 2.031,-3.656 0.776,-6.01 z"
     id="path765" />
  <path
     style="fill:#231f20;fill-opacity:1;fill-rule:nonzero;stroke:none"
     d="m 119.45354,82.848999 c 2.708,-2.964 -1.218,-4.074 -1.572,-4.396 -3.682,-3.402 -4.032,-3.547 -7.01,-5.937999 -4.319,-3.458 -7.803,-5.166 -10.547,-3.245 -1.864997,1.307 -2.370997,2.869 -2.062997,4.145 0.339,1.417999 2.415997,3.827999 5.275997,3.395999 l 1.572,0.678 c 1,0.588 1.5,0.874 1.975,1.202 0.817,0.579 1.729,1.147 3.391,2.178 2.953,1.838 6.666,2.808 6.666,2.808 1.074,0.634 2.312,-0.828 2.312,-0.828"
     id="path766" />
  <path
     style="fill:none;stroke:#231f20;stroke-width:0.565977;stroke-linecap:butt;stroke-linejoin:miter;stroke-miterlimit:4;stroke-dasharray:none;stroke-opacity:1"
     d="m 119.45354,82.848999 c 2.708,-2.964 -1.218,-4.074 -1.572,-4.396 -3.682,-3.402 -4.032,-3.547 -7.01,-5.937999 -4.319,-3.458 -7.803,-5.166 -10.547,-3.245 -1.864997,1.307 -2.370997,2.869 -2.062997,4.145 0.339,1.417999 2.415997,3.827999 5.275997,3.395999 l 1.572,0.678 c 1,0.588 1.5,0.874 1.975,1.202 0.817,0.579 1.729,1.147 3.391,2.178 2.953,1.838 6.666,2.808 6.666,2.808 1.074,0.634 2.312,-0.828 2.312,-0.828 z"
     id="path767" />
  <path
     style="fill:#0098c9;fill-opacity:1;fill-rule:nonzero;stroke:none"
     d="m 106.06354,68.895 c -0.063,-0.046 -0.13,-0.098 -0.178,-0.152 -0.561,-0.577 -1.186,-0.525 -2.218,-0.39 -1.547,-0.14 -2.864,0.204 -3.910997,1.24 -1.62,1.598 -1.86,3.218 -1.344,4.432 0.573,1.343999 3.015997,3.369999 5.764997,2.468999 l 3.61,-6.926999 c -0.599,-0.27 -1.167,-0.485 -1.724,-0.672"
     id="path768" />
  <path
     style="fill:none;stroke:#231f20;stroke-width:0.565977;stroke-linecap:butt;stroke-linejoin:miter;stroke-miterlimit:4;stroke-dasharray:none;stroke-opacity:1"
     d="m 106.06354,68.895 c -0.063,-0.046 -0.13,-0.098 -0.178,-0.152 -0.561,-0.577 -1.186,-0.525 -2.218,-0.39 -1.547,-0.14 -2.864,0.204 -3.910997,1.24 -1.62,1.598 -1.86,3.218 -1.344,4.432 0.573,1.343999 3.015997,3.369999 5.764997,2.468999 l 3.61,-6.926999 c -0.599,-0.27 -1.167,-0.485 -1.724,-0.672 z"
     id="path769" />
  <path
     style="fill:#231f20;fill-opacity:1;fill-rule:nonzero;stroke:none"
     d="m 75.349543,44.983 c 0.636,0.084 1.918,1.552 3.364,2.26 0.975,0.48 2.724,2.595 3.73,3 0.922,0.371 1.313,0.626 1.068,1.751 -0.146,0.667 -0.854,1.86 -1.359,1.776 -1.172,-0.197 -1.975,-0.708 -2.729,-1.459 -0.871,-0.858 -3.006,-3.38 -3.36,-3.88 -0.87,-1.254 -1.578,-1.464 -1.839,-1.776 -0.495,-0.578 -0.391,-0.912 -0.088,-1.312 0.588,-0.761 1.213,-0.36 1.213,-0.36"
     id="path770" />
  <path
     style="fill:none;stroke:#231f20;stroke-width:0.565977;stroke-linecap:butt;stroke-linejoin:miter;stroke-miterlimit:4;stroke-dasharray:none;stroke-opacity:1"
     d="m 75.349543,44.983 c 0.636,0.084 1.918,1.552 3.364,2.26 0.975,0.48 2.724,2.595 3.73,3 0.922,0.371 1.313,0.626 1.068,1.751 -0.146,0.667 -0.854,1.86 -1.359,1.776 -1.172,-0.197 -1.975,-0.708 -2.729,-1.459 -0.871,-0.858 -3.006,-3.38 -3.36,-3.88 -0.87,-1.254 -1.578,-1.464 -1.839,-1.776 -0.495,-0.578 -0.391,-0.912 -0.088,-1.312 0.588,-0.761 1.213,-0.36 1.213,-0.36 z"
     id="path771" />
  <path
     style="fill:#231f20;fill-opacity:1;fill-rule:nonzero;stroke:none"
     d="m 82.224543,50.874 c 0.948,-0.885 2.043,0.839 2.401,1.24 0.36,0.411 1.516,1.459 2.516,2.156 1,0.703 1.954,2.005 3.859,3.339 1.005,0.702 1.532,2.021 0.453,3.426 -1.068,1.396 -2.254,1.318 -3.344,0.287 -1.077,-1.031 -1.661,-2.459 -2.681,-3.579 -1.016,-1.113 -2.161,-2.156 -3.095,-2.932 -1.066,-0.88 -1.26,-1.713 -1.124,-2.172 0.339,-1.145 1.015,-1.765 1.015,-1.765"
     id="path772" />
  <path
     style="fill:none;stroke:#231f20;stroke-width:0.565977;stroke-linecap:butt;stroke-linejoin:miter;stroke-miterlimit:4;stroke-dasharray:none;stroke-opacity:1"
     d="m 82.224543,50.874 c 0.948,-0.885 2.043,0.839 2.401,1.24 0.36,0.411 1.516,1.459 2.516,2.156 1,0.703 1.954,2.005 3.859,3.339 1.005,0.702 1.532,2.021 0.453,3.426 -1.068,1.396 -2.254,1.318 -3.344,0.287 -1.077,-1.031 -1.661,-2.459 -2.681,-3.579 -1.016,-1.113 -2.161,-2.156 -3.095,-2.932 -1.066,-0.88 -1.26,-1.713 -1.124,-2.172 0.339,-1.145 1.015,-1.765 1.015,-1.765 z"
     id="path773" />
  <path
     style="fill:#231f20;fill-opacity:1;fill-rule:nonzero;stroke:none"
     d="m 22.573543,102.134 c -0.281,-1.323 0.552,-1.859 1.579,-1.728 0.307,0.036 0.615,-0.24 0.905,-0.183 0.688,0.151 1.59,1.646 0.527,2.708 -0.068,0.079 -0.448,0.803 -0.817,1.303 -0.72,0.979 -2.626,2.588 -5.314,2.333 -1.265,-0.12 -0.962,-0.849 -0.432,-0.958 1.678,-0.339 1.76,-0.694 2.167,-0.948 1.385,-0.839 1.385,-2.527 1.385,-2.527"
     id="path774" />
  <path
     style="fill:none;stroke:#231f20;stroke-width:0.332927;stroke-linecap:butt;stroke-linejoin:miter;stroke-miterlimit:4;stroke-dasharray:none;stroke-opacity:1"
     d="m 22.573543,102.134 c -0.281,-1.323 0.552,-1.859 1.579,-1.728 0.307,0.036 0.615,-0.24 0.905,-0.183 0.688,0.151 1.59,1.646 0.527,2.708 -0.068,0.079 -0.448,0.803 -0.817,1.303 -0.72,0.979 -2.626,2.588 -5.314,2.333 -1.265,-0.12 -0.962,-0.849 -0.432,-0.958 1.678,-0.339 1.76,-0.694 2.167,-0.948 1.385,-0.839 1.385,-2.527 1.385,-2.527 z"
     id="path775" />
  <path
     style="fill:#231f20;fill-opacity:1;fill-rule:nonzero;stroke:none"
     d="m 35.991543,89.040999 c -1.506,-1.688 -2.032,-1.812 -2.787,-1.224 -0.5,0.39 -1.104,0.584 -1.423,0.808 -1.057,0.749 -2.53,2.442 -5.448,8.348 -0.661,1.338 -1.604,3.209001 -2.052,3.942001 -0.702,1.162 1.699,1.548 1.98,1.09 0.911,-1.454 1.646,-2.380001 2.047,-2.860001 0.276,-0.328 0.677,-0.979 1.896,-2.11 1.848,-1.724 3.213,-2.478 4.588,-4.088 0.636,-0.745 1.588,-0.901 1.839,-1.958 0.254,-1.058 -0.64,-1.948 -0.64,-1.948"
     id="path776" />
  <path
     style="fill:none;stroke:#231f20;stroke-width:0.565977;stroke-linecap:butt;stroke-linejoin:miter;stroke-miterlimit:4;stroke-dasharray:none;stroke-opacity:1"
     d="m 35.991543,89.040999 c -1.506,-1.688 -2.032,-1.812 -2.787,-1.224 -0.5,0.39 -1.104,0.584 -1.423,0.808 -1.057,0.749 -2.53,2.442 -5.448,8.348 -0.661,1.338 -1.604,3.209001 -2.052,3.942001 -0.702,1.162 1.699,1.548 1.98,1.09 0.911,-1.454 1.646,-2.380001 2.047,-2.860001 0.276,-0.328 0.677,-0.979 1.896,-2.11 1.848,-1.724 3.213,-2.478 4.588,-4.088 0.636,-0.745 1.588,-0.901 1.839,-1.958 0.254,-1.058 -0.64,-1.948 -0.64,-1.948 z"
     id="path777" />
  <path
     style="fill:#0098c9;fill-opacity:1;fill-rule:nonzero;stroke:none"
     d="m 51.657543,67.306 c -2.297,2.136 -3.016,2.339 -3.886,2.657 -5.438,1.958 -4.37,4.593999 -2.052,6.311999 2.718,2.022 3.652,2.802 7.833,-1.905999 1.157,-1.312 6.272,-5.755 6.272,-5.755 2.047,-1.344 3.323,-3.745 3.099,-5.188 -0.24,-1.511 -0.256,-0.896 -0.724,-2.255 -0.454,-1.302 -2.12,-2.718 -3.344,-2.516 -1.167,0.188 -1.782,1.74 -2.948,3.86 -0.927,1.672 -4.25,4.791 -4.25,4.791"
     id="path778" />
  <path
     style="fill:none;stroke:#231f20;stroke-width:0.565977;stroke-linecap:butt;stroke-linejoin:miter;stroke-miterlimit:4;stroke-dasharray:none;stroke-opacity:1"
     d="m 51.657543,67.306 c -2.297,2.136 -3.016,2.339 -3.886,2.657 -5.438,1.958 -4.37,4.593999 -2.052,6.311999 2.718,2.022 3.652,2.802 7.833,-1.905999 1.157,-1.312 6.272,-5.755 6.272,-5.755 2.047,-1.344 3.323,-3.745 3.099,-5.188 -0.24,-1.511 -0.256,-0.896 -0.724,-2.255 -0.454,-1.302 -2.12,-2.718 -3.344,-2.516 -1.167,0.188 -1.782,1.74 -2.948,3.86 -0.927,1.672 -4.25,4.791 -4.25,4.791 z"
     id="path779" />
  <path
     style="fill:#ffffff;fill-opacity:1;fill-rule:nonzero;stroke:none"
     d="m 68.104543,59.483 c 0.215,-0.12 1.011,0.708 1.417,0.371 0.402,-0.339 0.068,-1.048 0.902,-2.855 l 0.01,-0.016 c 0.656,-1.301 0.703,-2.692 -0.021,-3.713 -1.197,-1.703 -4.036,-1.755 -6.344,-0.131 -2.312,1.631 -3.213,4.324 -2.016,6.022 1.141,1.625 3.803,1.745 6.052,0.322"
     id="path780" />
  <path
     style="fill:none;stroke:#231f20;stroke-width:0.565977;stroke-linecap:butt;stroke-linejoin:miter;stroke-miterlimit:4;stroke-dasharray:none;stroke-opacity:1"
     d="m 68.104543,59.483 c 0.215,-0.12 1.011,0.708 1.417,0.371 0.402,-0.339 0.068,-1.048 0.902,-2.855 l 0.01,-0.016 c 0.656,-1.301 0.703,-2.692 -0.021,-3.713 -1.197,-1.703 -4.036,-1.755 -6.344,-0.131 -2.312,1.631 -3.213,4.324 -2.016,6.022 1.141,1.625 3.803,1.745 6.052,0.322 z"
     id="path781" />
  <path
     style="fill:#231f20;fill-opacity:1;fill-rule:nonzero;stroke:none"
     d="m 33.824543,90.217999 c 2.405,3.213 4.228,-0.437 4.609,-0.729 4.02,-2.99 4.234,-3.302 7.135,-5.792 4.188,-3.604 6.511,-6.714 5.131,-9.765999 -0.938,-2.068 -2.38,-2.858 -3.694,-2.797 -1.457,0.079 -4.202,1.672 -4.306,4.562999 l -0.954,1.422 c -0.765,0.87 -1.141,1.312 -1.552,1.714 -0.718,0.697 -1.448,1.489 -2.77,2.932 -2.35,2.562 -3.99,6.036 -3.99,6.036 -0.818,0.933 0.391,2.417 0.391,2.417"
     id="path782" />
  <path
     style="fill:none;stroke:#231f20;stroke-width:0.565977;stroke-linecap:butt;stroke-linejoin:miter;stroke-miterlimit:4;stroke-dasharray:none;stroke-opacity:1"
     d="m 33.824543,90.217999 c 2.405,3.213 4.228,-0.437 4.609,-0.729 4.02,-2.99 4.234,-3.302 7.135,-5.792 4.188,-3.604 6.511,-6.714 5.131,-9.765999 -0.938,-2.068 -2.38,-2.858 -3.694,-2.797 -1.457,0.079 -4.202,1.672 -4.306,4.562999 l -0.954,1.422 c -0.765,0.87 -1.141,1.312 -1.552,1.714 -0.718,0.697 -1.448,1.489 -2.77,2.932 -2.35,2.562 -3.99,6.036 -3.99,6.036 -0.818,0.933 0.391,2.417 0.391,2.417 z"
     id="path783" />
  <path
     style="fill:#0098c9;fill-opacity:1;fill-rule:nonzero;stroke:none"
     d="m 50.485543,73.311 c -1.27,-1.885 -2.818,-2.421 -4.105,-2.14 -1.427,0.312 -3.869,2.35 -3.489,5.207999 l 6.141,4.834 c 0.369,-0.542 0.687,-1.063 0.973,-1.574 0.058,-0.052 0.12,-0.104 0.178,-0.145 0.677,-0.443 0.74,-1.068 0.797,-2.104 0.427,-1.5 0.328,-2.855 -0.495,-4.078999"
     id="path784" />
  <path
     style="fill:none;stroke:#231f20;stroke-width:0.565977;stroke-linecap:butt;stroke-linejoin:miter;stroke-miterlimit:4;stroke-dasharray:none;stroke-opacity:1"
     d="m 50.485543,73.311 c -1.27,-1.885 -2.818,-2.421 -4.105,-2.14 -1.427,0.312 -3.869,2.35 -3.489,5.207999 l 6.141,4.834 c 0.369,-0.542 0.687,-1.063 0.973,-1.574 0.058,-0.052 0.12,-0.104 0.178,-0.145 0.677,-0.443 0.74,-1.068 0.797,-2.104 0.427,-1.5 0.328,-2.855 -0.495,-4.078999 z"
     id="path785" />
  <path
     style="fill:#231f20;fill-opacity:1;fill-rule:nonzero;stroke:none"
     d="m 72.521543,46.301 c -0.036,0.646 -1.401,2.037 -2,3.526 -0.401,1.011 -2.38,2.916 -2.702,3.954 -0.303,0.942 -0.532,1.353 -1.667,1.192 -0.683,-0.094 -1.923,-0.714 -1.876,-1.219 0.109,-1.187 0.557,-2.02 1.245,-2.833 0.792,-0.927 3.146,-3.255 3.62,-3.646 1.183,-0.958 1.339,-1.682 1.626,-1.964 0.541,-0.536 0.88,-0.462 1.301,-0.186 0.808,0.525 0.453,1.176 0.453,1.176"
     id="path786" />
  <path
     style="fill:none;stroke:#231f20;stroke-width:0.565977;stroke-linecap:butt;stroke-linejoin:miter;stroke-miterlimit:4;stroke-dasharray:none;stroke-opacity:1"
     d="m 72.521543,46.301 c -0.036,0.646 -1.401,2.037 -2,3.526 -0.401,1.011 -2.38,2.916 -2.702,3.954 -0.303,0.942 -0.532,1.353 -1.667,1.192 -0.683,-0.094 -1.923,-0.714 -1.876,-1.219 0.109,-1.187 0.557,-2.02 1.245,-2.833 0.792,-0.927 3.146,-3.255 3.62,-3.646 1.183,-0.958 1.339,-1.682 1.626,-1.964 0.541,-0.536 0.88,-0.462 1.301,-0.186 0.808,0.525 0.453,1.176 0.453,1.176 z"
     id="path787" />
  <path
     style="fill:#231f20;fill-opacity:1;fill-rule:nonzero;stroke:none"
     d="m 67.167543,53.609 c 0.953,0.874 -0.676,2.098 -1.052,2.484 -0.38,0.39 -1.339,1.62 -1.958,2.672 -0.625,1.052 -1.849,2.104 -3.042,4.104 -0.624,1.052 -1.896,1.682 -3.38,0.708 -1.468,-0.958 -1.484,-2.146 -0.536,-3.307 0.948,-1.156 2.328,-1.844 3.358,-2.948 1.038,-1.099 1.991,-2.317 2.694,-3.307 0.796,-1.13 1.614,-1.39 2.077,-1.286 1.167,0.249 1.839,0.88 1.839,0.88"
     id="path788" />
  <path
     style="fill:none;stroke:#231f20;stroke-width:0.565977;stroke-linecap:butt;stroke-linejoin:miter;stroke-miterlimit:4;stroke-dasharray:none;stroke-opacity:1"
     d="m 67.167543,53.609 c 0.953,0.874 -0.676,2.098 -1.052,2.484 -0.38,0.39 -1.339,1.62 -1.958,2.672 -0.625,1.052 -1.849,2.104 -3.042,4.104 -0.624,1.052 -1.896,1.682 -3.38,0.708 -1.468,-0.958 -1.484,-2.146 -0.536,-3.307 0.948,-1.156 2.328,-1.844 3.358,-2.948 1.038,-1.099 1.991,-2.317 2.694,-3.307 0.796,-1.13 1.614,-1.39 2.077,-1.286 1.167,0.249 1.839,0.88 1.839,0.88 z"
     id="path789" />
  <path
     style="fill:#231f20;fill-opacity:1;fill-rule:nonzero;stroke:none"
     d="m 5.1835434,8.5249998 c 1.229,-0.557 1.932,0.141 2.027,1.172 0.025,0.3130002 0.364,0.5470002 0.369,0.8490002 0,0.703 -1.265,1.902 -2.532,1.099 -0.088,-0.057 -0.88,-0.271 -1.447,-0.525 -1.109,-0.49 -3.08900298,-2.0110002 -3.41200298,-4.6880002 -0.161,-1.266 0.62,-1.126 0.83399998,-0.631 0.692003,1.568 1.057003,1.568 1.396003,1.912 1.114,1.177 2.765,0.812 2.765,0.812"
     id="path790" />
  <path
     style="fill:none;stroke:#231f20;stroke-width:0.332927;stroke-linecap:butt;stroke-linejoin:miter;stroke-miterlimit:4;stroke-dasharray:none;stroke-opacity:1"
     d="m 5.1835434,8.5249998 c 1.229,-0.557 1.932,0.141 2.027,1.172 0.025,0.3130002 0.364,0.5470002 0.369,0.8490002 0,0.703 -1.265,1.902 -2.532,1.099 -0.088,-0.057 -0.88,-0.271 -1.447,-0.525 -1.109,-0.49 -3.08900298,-2.0110002 -3.41200298,-4.6880002 -0.161,-1.266 0.62,-1.126 0.83399998,-0.631 0.692003,1.568 1.057003,1.568 1.396003,1.912 1.114,1.177 2.765,0.812 2.765,0.812 z"
     id="path791" />
  <path
     style="fill:#231f20;fill-opacity:1;fill-rule:nonzero;stroke:none"
     d="m 20.844543,18.838 c 1.323,-1.838 1.333,-2.374 0.599,-2.984 -0.49,-0.406 -0.807,-0.958 -1.099,-1.214 -0.959,-0.875 -2.926,-1.954 -9.317,-3.547 C 9.5795434,10.74 7.5525434,10.218 6.7355434,9.9369998 c -1.281,-0.437 -1.14,1.9890002 -0.64,2.1670002 1.619,0.578 2.676,1.098 3.233,1.385 0.382,0.197 1.0999996,0.453 2.4639996,1.401 2.084,1.443 3.11,2.61 4.975,3.61 0.869,0.464 1.228,1.358 2.306,1.374 1.088,0.027 1.771,-1.036 1.771,-1.036"
     id="path792" />
  <path
     style="fill:none;stroke:#231f20;stroke-width:0.565977;stroke-linecap:butt;stroke-linejoin:miter;stroke-miterlimit:4;stroke-dasharray:none;stroke-opacity:1"
     d="m 20.844543,18.838 c 1.323,-1.838 1.333,-2.374 0.599,-2.984 -0.49,-0.406 -0.807,-0.958 -1.099,-1.214 -0.959,-0.875 -2.926,-1.954 -9.317,-3.547 C 9.5795434,10.74 7.5525434,10.218 6.7355434,9.9369998 c -1.281,-0.437 -1.14,1.9890002 -0.64,2.1670002 1.619,0.578 2.676,1.098 3.233,1.385 0.382,0.197 1.0999996,0.453 2.4639996,1.401 2.084,1.443 3.11,2.61 4.975,3.61 0.869,0.464 1.228,1.358 2.306,1.374 1.088,0.027 1.771,-1.036 1.771,-1.036 z"
     id="path793" />
  <path
     style="fill:#0098c9;fill-opacity:1;fill-rule:nonzero;stroke:none"
     d="m 45.256543,28.931 c -2.713,-1.567 -3.125,-2.197 -3.677,-2.937 -3.464,-4.63 -5.672,-2.838 -6.642,-0.125 -1.14,3.193 -1.609,4.313 4.11,6.937 1.6,0.724 7.338,4.319 7.338,4.319 1.882,1.566 4.552,2.088 5.866,1.452 1.38,-0.671 0.781,-0.504 1.948,-1.354 1.114,-0.817 1.984,-2.822 1.432,-3.932 -0.527,-1.062 -2.188,-1.193 -4.558,-1.693 -1.869,-0.396 -5.817,-2.667 -5.817,-2.667"
     id="path794" />
  <path
     style="fill:none;stroke:#231f20;stroke-width:0.565977;stroke-linecap:butt;stroke-linejoin:miter;stroke-miterlimit:4;stroke-dasharray:none;stroke-opacity:1"
     d="m 45.256543,28.931 c -2.713,-1.567 -3.125,-2.197 -3.677,-2.937 -3.464,-4.63 -5.672,-2.838 -6.642,-0.125 -1.14,3.193 -1.609,4.313 4.11,6.937 1.6,0.724 7.338,4.319 7.338,4.319 1.882,1.566 4.552,2.088 5.866,1.452 1.38,-0.671 0.781,-0.504 1.948,-1.354 1.114,-0.817 1.984,-2.822 1.432,-3.932 -0.527,-1.062 -2.188,-1.193 -4.558,-1.693 -1.869,-0.396 -5.817,-2.667 -5.817,-2.667 z"
     id="path795" />
  <path
     style="fill:#ffffff;fill-opacity:1;fill-rule:nonzero;stroke:none"
     d="m 57.537543,42.379 c 0.176,0.172 -0.38,1.178 0.058,1.464 0.442,0.287 1.025,-0.24 2.994,0.026 l 0.02,0.005 c 1.438,0.251 2.776,-0.109 3.548,-1.104 1.276,-1.64 0.5,-4.369 -1.734,-6.104 -2.235,-1.735 -5.068,-1.808 -6.344,-0.167 -1.224,1.568 -0.563,4.146 1.458,5.88"
     id="path796" />
  <path
     style="fill:none;stroke:#231f20;stroke-width:0.565977;stroke-linecap:butt;stroke-linejoin:miter;stroke-miterlimit:4;stroke-dasharray:none;stroke-opacity:1"
     d="m 57.537543,42.379 c 0.176,0.172 -0.38,1.178 0.058,1.464 0.442,0.287 1.025,-0.24 2.994,0.026 l 0.02,0.005 c 1.438,0.251 2.776,-0.109 3.548,-1.104 1.276,-1.64 0.5,-4.369 -1.734,-6.104 -2.235,-1.735 -5.068,-1.808 -6.344,-0.167 -1.224,1.568 -0.563,4.146 1.458,5.88 z"
     id="path797" />
  <path
     style="fill:#231f20;fill-opacity:1;fill-rule:nonzero;stroke:none"
     d="m 19.224543,16.968 c -2.62,3.042 1.339,4.037 1.704,4.349 3.781,3.292 4.129,3.427 7.187,5.729 4.412,3.323 7.942,4.927 10.625,2.927 1.823,-1.359 2.287,-2.932 1.943,-4.208 -0.38,-1.407 -2.531,-3.745 -5.375,-3.235 l -1.595,-0.624 c -1.009,-0.562 -1.52,-0.833 -2,-1.152 -0.837,-0.546 -1.765,-1.093 -3.457,-2.072 -3.005,-1.75 -6.751,-2.609 -6.751,-2.609 -1.088,-0.605 -2.281,0.895 -2.281,0.895"
     id="path798" />
  <path
     style="fill:none;stroke:#231f20;stroke-width:0.565977;stroke-linecap:butt;stroke-linejoin:miter;stroke-miterlimit:4;stroke-dasharray:none;stroke-opacity:1"
     d="m 19.224543,16.968 c -2.62,3.042 1.339,4.037 1.704,4.349 3.781,3.292 4.129,3.427 7.187,5.729 4.412,3.323 7.942,4.927 10.625,2.927 1.823,-1.359 2.287,-2.932 1.943,-4.208 -0.38,-1.407 -2.531,-3.745 -5.375,-3.235 l -1.595,-0.624 c -1.009,-0.562 -1.52,-0.833 -2,-1.152 -0.837,-0.546 -1.765,-1.093 -3.457,-2.072 -3.005,-1.75 -6.751,-2.609 -6.751,-2.609 -1.088,-0.605 -2.281,0.895 -2.281,0.895 z"
     id="path799" />
  <path
     style="fill:#0098c9;fill-opacity:1;fill-rule:nonzero;stroke:none"
     d="m 40.516543,25.166 c -0.609,-1.328 -3.12,-3.281 -5.833,-2.297 l -3.407,7.032 c 0.605,0.249 1.183,0.448 1.745,0.614 0.063,0.052 0.126,0.099 0.178,0.146 0.582,0.562 1.202,0.489 2.234,0.328 1.547,0.093 2.854,-0.292 3.87,-1.359 1.573,-1.641 1.765,-3.266 1.213,-4.464"
     id="path800" />
  <path
     style="fill:none;stroke:#231f20;stroke-width:0.565977;stroke-linecap:butt;stroke-linejoin:miter;stroke-miterlimit:4;stroke-dasharray:none;stroke-opacity:1"
     d="m 40.516543,25.166 c -0.609,-1.328 -3.12,-3.281 -5.833,-2.297 l -3.407,7.032 c 0.605,0.249 1.183,0.448 1.745,0.614 0.063,0.052 0.126,0.099 0.178,0.146 0.582,0.562 1.202,0.489 2.234,0.328 1.547,0.093 2.854,-0.292 3.87,-1.359 1.573,-1.641 1.765,-3.266 1.213,-4.464 z"
     id="path801" />
  <path
     style="fill:#231f20;fill-opacity:1;fill-rule:nonzero;stroke:none"
     d="m 71.433543,42.759 c -0.625,0.147 -2.354,-0.749 -3.958,-0.885 -1.079,-0.093 -3.484,-1.427 -4.568,-1.437 -0.99,-0.011 -1.448,-0.11 -1.626,-1.246 -0.109,-0.676 0.12,-2.041 0.62,-2.145 1.162,-0.245 2.094,-0.057 3.074,0.364 1.114,0.485 4.03,2.053 4.541,2.396 1.26,0.849 2,0.787 2.349,0.985 0.678,0.359 0.703,0.703 0.563,1.187 -0.267,0.923 -0.995,0.781 -0.995,0.781"
     id="path802" />
  <path
     style="fill:none;stroke:#231f20;stroke-width:0.565977;stroke-linecap:butt;stroke-linejoin:miter;stroke-miterlimit:4;stroke-dasharray:none;stroke-opacity:1"
     d="m 71.433543,42.759 c -0.625,0.147 -2.354,-0.749 -3.958,-0.885 -1.079,-0.093 -3.484,-1.427 -4.568,-1.437 -0.99,-0.011 -1.448,-0.11 -1.626,-1.246 -0.109,-0.676 0.12,-2.041 0.62,-2.145 1.162,-0.245 2.094,-0.057 3.074,0.364 1.114,0.485 4.03,2.053 4.541,2.396 1.26,0.849 2,0.787 2.349,0.985 0.678,0.359 0.703,0.703 0.563,1.187 -0.267,0.923 -0.995,0.781 -0.995,0.781 z"
     id="path803" />
  <path
     style="fill:#231f20;fill-opacity:1;fill-rule:nonzero;stroke:none"
     d="m 62.881543,39.765 c -0.557,1.172 -2.204,-0.031 -2.682,-0.282 -0.486,-0.244 -1.938,-0.801 -3.126,-1.088 -1.192,-0.292 -2.552,-1.156 -4.817,-1.709 -1.188,-0.291 -2.161,-1.323 -1.667,-3.025 0.49,-1.688 1.626,-2.047 3.011,-1.484 1.38,0.566 2.443,1.686 3.801,2.358 1.355,0.667 2.798,1.224 3.948,1.604 1.312,0.434 1.803,1.142 1.839,1.615 0.099,1.193 -0.307,2.011 -0.307,2.011"
     id="path804" />
  <path
     style="fill:none;stroke:#231f20;stroke-width:0.565977;stroke-linecap:butt;stroke-linejoin:miter;stroke-miterlimit:4;stroke-dasharray:none;stroke-opacity:1"
     d="m 62.881543,39.765 c -0.557,1.172 -2.204,-0.031 -2.682,-0.282 -0.486,-0.244 -1.938,-0.801 -3.126,-1.088 -1.192,-0.292 -2.552,-1.156 -4.817,-1.709 -1.188,-0.291 -2.161,-1.323 -1.667,-3.025 0.49,-1.688 1.626,-2.047 3.011,-1.484 1.38,0.566 2.443,1.686 3.801,2.358 1.355,0.667 2.798,1.224 3.948,1.604 1.312,0.434 1.803,1.142 1.839,1.615 0.099,1.193 -0.307,2.011 -0.307,2.011 z"
     id="path805" />
  <path
     style="fill:#ffffff;fill-opacity:1;fill-rule:nonzero;stroke:none"
     d="m 74.672543,45.114 c 0.74,-0.708 0.761,-1.885 0.052,-2.631 -0.713,-0.74 -1.891,-0.765 -2.629,-0.052 -0.746,0.708 -0.767,1.891 -0.058,2.631 0.714,0.739 1.886,0.76 2.635,0.052"
     id="path806" />
  <path
     style="fill:none;stroke:#231f20;stroke-width:1.33171;stroke-linecap:butt;stroke-linejoin:miter;stroke-miterlimit:4;stroke-dasharray:none;stroke-opacity:1"
     d="m 74.672543,45.114 c 0.74,-0.708 0.761,-1.885 0.052,-2.631 -0.713,-0.74 -1.891,-0.765 -2.629,-0.052 -0.746,0.708 -0.767,1.891 -0.058,2.631 0.714,0.739 1.886,0.76 2.635,0.052 z"
     id="path807" />
  <path
     style="fill:none;stroke:#231f20;stroke-width:0.399514;stroke-linecap:butt;stroke-linejoin:miter;stroke-miterlimit:4;stroke-dasharray:none;stroke-opacity:1"
     d="m 19.543543,73.082 c -7.423,25.432999 21.432,44.057 28.52,45.631"
     id="path808" />
  <path
     style="fill:#231f20;fill-opacity:1;fill-rule:nonzero;stroke:none"
     d="m 49.240543,118.973 c -0.599,0.084 -1.364,0.281 -1.869,0.557 l 0.536,-0.853 -0.131,-1 c 0.349,0.468 0.953,0.968 1.464,1.296"
     id="path809" />
  <path
     style="fill:none;stroke:#231f20;stroke-width:0.399514;stroke-linecap:butt;stroke-linejoin:miter;stroke-miterlimit:4;stroke-dasharray:none;stroke-opacity:1"
     d="m 126.60454,54.525 c 18.787,-18.671 2.532,-48.9270002 -2.916,-53.7280002"
     id="path810" />
  <path
     style="fill:#231f20;fill-opacity:1;fill-rule:nonzero;stroke:none"
     d="M 122.78154,-1.989168e-7 C 123.34954,0.2179998 124.10954,0.4159998 124.69354,0.4159998 l -0.89,0.49 -0.37,0.938 c -0.073,-0.574 -0.365,-1.308 -0.652,-1.8439999989168"
     id="path811" />
</svg>
