<?xml version="1.0" encoding="UTF-8" standalone="no"?>
<!-- Created with Inkscape (http://www.inkscape.org/) -->

<svg
   version="1.1"
   id="svg1"
   width="344.88229"
   height="150.34167"
   viewBox="0 0 344.88228 150.34167"
   sodipodi:docname="cell.svg"
   xmlns:inkscape="http://www.inkscape.org/namespaces/inkscape"
   xmlns:sodipodi="http://sodipodi.sourceforge.net/DTD/sodipodi-0.dtd"
   xmlns="http://www.w3.org/2000/svg"
   xmlns:svg="http://www.w3.org/2000/svg">
  <sodipodi:namedview
     id="namedview1"
     pagecolor="#ffffff"
     bordercolor="#000000"
     borderopacity="0.25"
     inkscape:showpageshadow="2"
     inkscape:pageopacity="0.0"
     inkscape:pagecheckerboard="0"
     inkscape:deskcolor="#d1d1d1">
    <inkscape:page
       x="0"
       y="0"
       inkscape:label="1"
       id="page1"
       width="344.88229"
       height="150.34167"
       margin="0"
       bleed="0" />
  </sodipodi:namedview>
  <defs
     id="defs1" />
  <path
     style="fill:#ffffff;fill-opacity:1;fill-rule:nonzero;stroke:none"
     d="m 150.5133,18.874 h 18.875 V 0 h -18.875 z"
     id="path199" />
  <path
     style="fill:#ffffff;fill-opacity:1;fill-rule:nonzero;stroke:none"
     d="m 327.9553,18.874 h 16.927 V 0 h -16.927 z"
     id="path201" />
  <path
     style="fill:none;stroke:#231f20;stroke-width:0.399514;stroke-linecap:butt;stroke-linejoin:miter;stroke-miterlimit:4;stroke-dasharray:none;stroke-opacity:1"
     d="m 174.7983,38.276 c -24.448,10.198 -19.973,22.702 -11.566,23.12"
     id="path202" />
  <path
     style="fill:#231f20;fill-opacity:1;fill-rule:nonzero;stroke:none"
     d="m 164.4343,61.453 c -0.578,0.183 -1.297,0.511 -1.75,0.864 l 0.39,-0.932 -0.296,-0.963 c 0.416,0.4 1.099,0.796 1.656,1.031"
     id="path203" />
  <path
     style="fill:#231f20;fill-opacity:1;fill-rule:nonzero;stroke:#231f20;stroke-width:0.565977;stroke-linecap:round;stroke-linejoin:round;stroke-miterlimit:4;stroke-dasharray:none;stroke-opacity:1"
     d="m 191.1173,81.984 c 0,0 -0.776,1.068 -1.824,1.578 -1.047,0.506 -2.4,0.588 -2.4,0.588 l -1.486,-2.942 4.271,-2.162 z"
     id="path204" />
  <path
     style="fill:#231f20;fill-opacity:1;fill-rule:nonzero;stroke:none"
     d="m 178.8413,69.828 c -3.292,1.474 -3.667,-0.162 -6.204,-3.359 -2.776,-3.495 -5.287,-7.437 -6.178,-10.609 -1,-3.552 -1.514,-3.59 -0.134,-4.923 1.385,-1.333 1.937,-0.787 3.213,-0.577 1.469,0.238 3.807,7.213 6.885,10.828 1.448,1.697 6.011,4.817 5.156,5.989 -0.858,1.177 -2.738,2.651 -2.738,2.651"
     id="path205" />
  <path
     style="fill:none;stroke:#231f20;stroke-width:0.565977;stroke-linecap:butt;stroke-linejoin:miter;stroke-miterlimit:4;stroke-dasharray:none;stroke-opacity:1"
     d="m 178.8413,69.828 c -3.292,1.474 -3.667,-0.162 -6.204,-3.359 -2.776,-3.495 -5.287,-7.437 -6.178,-10.609 -1,-3.552 -1.514,-3.59 -0.134,-4.923 1.385,-1.333 1.937,-0.787 3.213,-0.577 1.469,0.238 3.807,7.213 6.885,10.828 1.448,1.697 6.011,4.817 5.156,5.989 -0.858,1.177 -2.738,2.651 -2.738,2.651 z"
     id="path206" />
  <path
     style="fill:#231f20;fill-opacity:1;fill-rule:nonzero;stroke:none"
     d="m 168.2893,52.052 c -1.798,1.374 -2.308,1.802 -3.491,-0.402 -0.301,-0.561 -1.03,-2.181 -1.301,-2.462 -0.901,-0.934 -1.871,-2.095 -3.636,-8.438 -0.276,-0.985 -1.12,-2.766 -1.609,-4.084 -0.479,-1.27 1.958,-1.202 2.15,-0.702 0.615,1.598 1.366,2.494 1.667,3.036 0.204,0.374 0.475,1.141 1.609,2.349 2.923,3.129 2.631,4.905 3.188,5.615 1.593,2.025 3.375,3.437 3.036,4.01 -0.552,0.932 -1.613,1.078 -1.613,1.078"
     id="path207" />
  <path
     style="fill:none;stroke:#231f20;stroke-width:0.565977;stroke-linecap:butt;stroke-linejoin:miter;stroke-miterlimit:4;stroke-dasharray:none;stroke-opacity:1"
     d="m 168.2893,52.052 c -1.798,1.374 -2.308,1.802 -3.491,-0.402 -0.301,-0.561 -1.03,-2.181 -1.301,-2.462 -0.901,-0.934 -1.871,-2.095 -3.636,-8.438 -0.276,-0.985 -1.12,-2.766 -1.609,-4.084 -0.479,-1.27 1.958,-1.202 2.15,-0.702 0.615,1.598 1.366,2.494 1.667,3.036 0.204,0.374 0.475,1.141 1.609,2.349 2.923,3.129 2.631,4.905 3.188,5.615 1.593,2.025 3.375,3.437 3.036,4.01 -0.552,0.932 -1.613,1.078 -1.613,1.078 z"
     id="path208" />
  <path
     style="fill:#231f20;fill-opacity:1;fill-rule:nonzero;stroke:none"
     d="m 183.9593,66.281 c 2.688,-2.401 1.344,-3.416 -0.541,-7.031 -2.068,-3.948 -4.645,-7.854 -7.187,-9.958 -2.838,-2.355 -2.662,-2.844 -4.438,-2.126 -1.776,0.724 -1.504,1.454 -1.834,2.699 -0.38,1.443 5.043,6.416 7.09,10.703 0.958,2.01 1.958,7.442 3.38,7.14 1.421,-0.307 3.53,-1.427 3.53,-1.427"
     id="path209" />
  <path
     style="fill:none;stroke:#231f20;stroke-width:0.565977;stroke-linecap:butt;stroke-linejoin:miter;stroke-miterlimit:4;stroke-dasharray:none;stroke-opacity:1"
     d="m 183.9593,66.281 c 2.688,-2.401 1.344,-3.416 -0.541,-7.031 -2.068,-3.948 -4.645,-7.854 -7.187,-9.958 -2.838,-2.355 -2.662,-2.844 -4.438,-2.126 -1.776,0.724 -1.504,1.454 -1.834,2.699 -0.38,1.443 5.043,6.416 7.09,10.703 0.958,2.01 1.958,7.442 3.38,7.14 1.421,-0.307 3.53,-1.427 3.53,-1.427 z"
     id="path210" />
  <path
     style="fill:#0098c9;fill-opacity:1;fill-rule:nonzero;stroke:none"
     d="m 177.6833,60.734 c -0.442,0.224 -0.79,0.88 -0.79,0.88 0,0 1.984,5.495 0.238,8.068 l -0.317,0.178 c -1.192,-0.36 0.891,0.848 1.213,1.52 1.418,2.928 2.443,7.922 2.38,9.261 -0.088,1.828 -2.15,3.443 -0.358,4.651 0,0 1.385,1.369 3.708,-0.208 0.838,-0.574 3.136,-0.934 3.136,-0.934 -0.027,-0.03 -0.052,-0.066 -0.068,-0.098 -0.568,-1.12 0.068,-2.24 1.249,-2.864 l -0.067,0.036 c 1.203,-0.583 2.506,-0.375 3.042,0.688 0.02,0.036 0.036,0.072 0.041,0.114 0,0 1.651,-1.636 2.609,-1.974 2.651,-0.938 2.188,-3.078 2.188,-3.078 0.094,-2.162 -2.261,-1.24 -3.781,-2.25 -1.115,-0.746 -4.532,-4.531 -6.052,-7.407 -0.349,-0.656 -0.084,-3.057 -0.505,-1.875 l -0.328,0.146 c -3.11,-0.114 -6.36,-4.968 -6.36,-4.968 0,0 -0.739,-0.11 -1.178,0.114"
     id="path211" />
  <path
     style="fill:none;stroke:#231f20;stroke-width:0.565977;stroke-linecap:butt;stroke-linejoin:miter;stroke-miterlimit:4;stroke-dasharray:none;stroke-opacity:1"
     d="m 177.6833,60.734 c -0.442,0.224 -0.79,0.88 -0.79,0.88 0,0 1.984,5.495 0.238,8.068 l -0.317,0.178 c -1.192,-0.36 0.891,0.848 1.213,1.52 1.418,2.928 2.443,7.922 2.38,9.261 -0.088,1.828 -2.15,3.443 -0.358,4.651 0,0 1.385,1.369 3.708,-0.208 0.838,-0.574 3.136,-0.934 3.136,-0.934 -0.027,-0.03 -0.052,-0.066 -0.068,-0.098 -0.568,-1.12 0.068,-2.24 1.249,-2.864 l -0.067,0.036 c 1.203,-0.583 2.506,-0.375 3.042,0.688 0.02,0.036 0.036,0.072 0.041,0.114 0,0 1.651,-1.636 2.609,-1.974 2.651,-0.938 2.188,-3.078 2.188,-3.078 0.094,-2.162 -2.261,-1.24 -3.781,-2.25 -1.115,-0.746 -4.532,-4.531 -6.052,-7.407 -0.349,-0.656 -0.084,-3.057 -0.505,-1.875 l -0.328,0.146 c -3.11,-0.114 -6.36,-4.968 -6.36,-4.968 0,0 -0.739,-0.11 -1.178,0.114 z"
     id="path212" />
  <path
     style="fill:#ffffff;fill-opacity:1;fill-rule:nonzero;stroke:none"
     d="m 195.0543,86.437 c -0.693,-2.739 -2.885,-4.547 -4.901,-4.036 -2.011,0.511 -3.084,3.145 -2.391,5.885 0.693,2.735 2.885,4.542 4.901,4.031 2.011,-0.505 3.083,-3.14 2.391,-5.88"
     id="path213" />
  <path
     style="fill:none;stroke:#231f20;stroke-width:0.565977;stroke-linecap:butt;stroke-linejoin:miter;stroke-miterlimit:4;stroke-dasharray:none;stroke-opacity:1"
     d="m 195.0543,86.437 c -0.693,-2.739 -2.885,-4.547 -4.901,-4.036 -2.011,0.511 -3.084,3.145 -2.391,5.885 0.693,2.735 2.885,4.542 4.901,4.031 2.011,-0.505 3.083,-3.14 2.391,-5.88 z"
     id="path214" />
  <path
     style="fill:#231f20;fill-opacity:1;fill-rule:nonzero;stroke:none"
     d="m 172.0383,49.412 c 1.984,-1.095 2.579,-1.386 1.036,-3.36 -0.396,-0.5 -1.583,-1.812 -1.733,-2.178 -0.491,-1.197 -1.167,-2.552 -6.267,-6.718 -0.79,-0.646 -2.088,-2.135 -3.088,-3.11 -0.974,-0.953 -1.89,1.303 -1.51,1.683 1.213,1.208 1.734,2.249 2.109,2.745 0.265,0.338 0.855,0.891 1.511,2.422 1.682,3.932 3.426,4.374 3.854,5.166 1.219,2.282 1.791,4.479 2.457,4.396 1.079,-0.136 1.631,-1.046 1.631,-1.046"
     id="path215" />
  <path
     style="fill:none;stroke:#231f20;stroke-width:0.565977;stroke-linecap:butt;stroke-linejoin:miter;stroke-miterlimit:4;stroke-dasharray:none;stroke-opacity:1"
     d="m 172.0383,49.412 c 1.984,-1.095 2.579,-1.386 1.036,-3.36 -0.396,-0.5 -1.583,-1.812 -1.733,-2.178 -0.491,-1.197 -1.167,-2.552 -6.267,-6.718 -0.79,-0.646 -2.088,-2.135 -3.088,-3.11 -0.974,-0.953 -1.89,1.303 -1.51,1.683 1.213,1.208 1.734,2.249 2.109,2.745 0.265,0.338 0.855,0.891 1.511,2.422 1.682,3.932 3.426,4.374 3.854,5.166 1.219,2.282 1.791,4.479 2.457,4.396 1.079,-0.136 1.631,-1.046 1.631,-1.046 z"
     id="path216" />
  <path
     style="fill:#0098c9;fill-opacity:1;fill-rule:nonzero;stroke:none"
     d="m 185.7213,65.62 c 0.014,-0.35 -0.11,-1.708 -0.204,-2.167 -0.619,-2.907 -2.87,-6.145 -3.328,-7.339 -0.468,-1.182 -5.932,2.511 -5.932,2.511 l 0.656,1.839 c -0.62,-0.115 -0.828,0.541 -0.828,0.541 l -1.463,-1.391 c 0,0 -5.521,3.36 -4.849,4.11 0.937,1.036 3.562,4.849 5.593,6.218 1.115,0.756 2.136,0.88 2.136,0.88 0,0 2.432,-2.916 3.624,-3.702 1.188,-0.787 4.595,-1.5 4.595,-1.5"
     id="path217" />
  <path
     style="fill:none;stroke:#231f20;stroke-width:0.565977;stroke-linecap:butt;stroke-linejoin:miter;stroke-miterlimit:4;stroke-dasharray:none;stroke-opacity:1"
     d="m 185.7213,65.62 c 0.014,-0.35 -0.11,-1.708 -0.204,-2.167 -0.619,-2.907 -2.87,-6.145 -3.328,-7.339 -0.468,-1.182 -5.932,2.511 -5.932,2.511 l 0.656,1.839 c -0.62,-0.115 -0.828,0.541 -0.828,0.541 l -1.463,-1.391 c 0,0 -5.521,3.36 -4.849,4.11 0.937,1.036 3.562,4.849 5.593,6.218 1.115,0.756 2.136,0.88 2.136,0.88 0,0 2.432,-2.916 3.624,-3.702 1.188,-0.787 4.595,-1.5 4.595,-1.5 z"
     id="path218" />
  <path
     style="fill:#231f20;fill-opacity:1;fill-rule:nonzero;stroke:none"
     d="m 160.6583,30.786 c 0.578,0.339 0.318,2.126 1.396,3.771 0.224,0.339 0.239,0.713 0.318,1.079 0.317,1.478 -0.208,2.989 -3.047,0.421 -0.396,-0.359 -1.229,-2.287 -1.849,-2.76 -1.479,-1.136 -1.771,-4.448 -1.282,-4.615 1.063,-0.365 4.464,2.104 4.464,2.104"
     id="path219" />
  <path
     style="fill:none;stroke:#231f20;stroke-width:0.644548;stroke-linecap:round;stroke-linejoin:round;stroke-miterlimit:4;stroke-dasharray:none;stroke-opacity:1"
     d="m 160.6583,30.786 c 0.578,0.339 0.318,2.126 1.396,3.771 0.224,0.339 0.239,0.713 0.318,1.079 0.317,1.478 -0.208,2.989 -3.047,0.421 -0.396,-0.359 -1.229,-2.287 -1.849,-2.76 -1.479,-1.136 -1.771,-4.448 -1.282,-4.615 1.063,-0.365 4.464,2.104 4.464,2.104 z"
     id="path220" />
  <path
     style="fill:#231f20;fill-opacity:1;fill-rule:nonzero;stroke:none"
     d="m 155.4703,34.084 c 0.052,0.661 1.766,1.218 2.776,2.91 0.21,0.344 0.538,0.527 0.828,0.756 1.194,0.938 2.776,1.124 1.715,-2.552 -0.147,-0.51 -1.511,-2.109 -1.667,-2.876 -0.365,-1.828 -3.214,-3.541 -3.578,-3.172 -0.792,0.787 -0.074,4.934 -0.074,4.934"
     id="path221" />
  <path
     style="fill:none;stroke:#231f20;stroke-width:0.644548;stroke-linecap:round;stroke-linejoin:round;stroke-miterlimit:4;stroke-dasharray:none;stroke-opacity:1"
     d="m 155.4703,34.084 c 0.052,0.661 1.766,1.218 2.776,2.91 0.21,0.344 0.538,0.527 0.828,0.756 1.194,0.938 2.776,1.124 1.715,-2.552 -0.147,-0.51 -1.511,-2.109 -1.667,-2.876 -0.365,-1.828 -3.214,-3.541 -3.578,-3.172 -0.792,0.787 -0.074,4.934 -0.074,4.934 z"
     id="path222" />
  <path
     style="fill:#231f20;fill-opacity:1;fill-rule:nonzero;stroke:none"
     d="m 294.9753,102.254 c 0.151,-0.629 -0.74,-2.358 -0.874,-3.962 -0.09,-1.079 -1.423,-3.484 -1.427,-4.568 -0.011,-0.995 -0.105,-1.448 -1.24,-1.631 -0.677,-0.109 -2.041,0.109 -2.145,0.615 -0.246,1.161 -0.063,2.094 0.353,3.078 0.48,1.115 2.047,4.031 2.385,4.541 0.844,1.266 0.787,2.006 0.98,2.355 0.359,0.677 0.703,0.703 1.187,0.563 0.923,-0.262 0.781,-0.991 0.781,-0.991"
     id="path223" />
  <path
     style="fill:none;stroke:#231f20;stroke-width:0.565977;stroke-linecap:butt;stroke-linejoin:miter;stroke-miterlimit:4;stroke-dasharray:none;stroke-opacity:1"
     d="m 294.9753,102.254 c 0.151,-0.629 -0.74,-2.358 -0.874,-3.962 -0.09,-1.079 -1.423,-3.484 -1.427,-4.568 -0.011,-0.995 -0.105,-1.448 -1.24,-1.631 -0.677,-0.109 -2.041,0.109 -2.145,0.615 -0.246,1.161 -0.063,2.094 0.353,3.078 0.48,1.115 2.047,4.031 2.385,4.541 0.844,1.266 0.787,2.006 0.98,2.355 0.359,0.677 0.703,0.703 1.187,0.563 0.923,-0.262 0.781,-0.991 0.781,-0.991 z"
     id="path224" />
  <path
     style="fill:#231f20;fill-opacity:1;fill-rule:nonzero;stroke:none"
     d="m 292.0023,93.693 c 1.172,-0.557 -0.027,-2.204 -0.276,-2.683 -0.251,-0.484 -0.797,-1.942 -1.084,-3.13 -0.287,-1.187 -1.151,-2.552 -1.692,-4.812 -0.292,-1.194 -1.324,-2.167 -3.032,-1.678 -1.687,0.484 -2.047,1.62 -1.484,3.006 0.563,1.385 1.677,2.448 2.349,3.806 0.662,1.355 1.219,2.803 1.594,3.959 0.432,1.308 1.14,1.797 1.609,1.839 1.197,0.098 2.016,-0.307 2.016,-0.307"
     id="path225" />
  <path
     style="fill:none;stroke:#231f20;stroke-width:0.565977;stroke-linecap:butt;stroke-linejoin:miter;stroke-miterlimit:4;stroke-dasharray:none;stroke-opacity:1"
     d="m 292.0023,93.693 c 1.172,-0.557 -0.027,-2.204 -0.276,-2.683 -0.251,-0.484 -0.797,-1.942 -1.084,-3.13 -0.287,-1.187 -1.151,-2.552 -1.692,-4.812 -0.292,-1.194 -1.324,-2.167 -3.032,-1.678 -1.687,0.484 -2.047,1.62 -1.484,3.006 0.563,1.385 1.677,2.448 2.349,3.806 0.662,1.355 1.219,2.803 1.594,3.959 0.432,1.308 1.14,1.797 1.609,1.839 1.197,0.098 2.016,-0.307 2.016,-0.307 z"
     id="path226" />
  <path
     style="fill:#ffffff;fill-opacity:1;fill-rule:nonzero;stroke:none"
     d="m 275.5173,50.292 c -2,1.068 -2.531,1.01 -3.036,0.192 -0.339,-0.536 -0.834,-0.932 -1.058,-1.25 -0.74,-1.068 -1.536,-3.166 -2.254,-9.702 -0.158,-1.491 -0.396,-3.568 -0.574,-4.418 -0.26,-1.328 2.131,-0.864 2.235,-0.344 0.359,1.683 0.729,2.803 0.943,3.396 0.14,0.402 0.301,1.142 1.052,2.626 1.15,2.254 2.172,3.432 2.901,5.416 0.348,0.922 1.192,1.396 1.057,2.469 -0.114,1.083 -1.266,1.615 -1.266,1.615"
     id="path227" />
  <path
     style="fill:none;stroke:#231f20;stroke-width:0.565977;stroke-linecap:butt;stroke-linejoin:miter;stroke-miterlimit:4;stroke-dasharray:none;stroke-opacity:1"
     d="m 275.5173,50.292 c -2,1.068 -2.531,1.01 -3.036,0.192 -0.339,-0.536 -0.834,-0.932 -1.058,-1.25 -0.74,-1.068 -1.536,-3.166 -2.254,-9.702 -0.158,-1.491 -0.396,-3.568 -0.574,-4.418 -0.26,-1.328 2.131,-0.864 2.235,-0.344 0.359,1.683 0.729,2.803 0.943,3.396 0.14,0.402 0.301,1.142 1.052,2.626 1.15,2.254 2.172,3.432 2.901,5.416 0.348,0.922 1.192,1.396 1.057,2.469 -0.114,1.083 -1.266,1.615 -1.266,1.615 z"
     id="path228" />
  <path
     style="fill:#ffffff;fill-opacity:1;fill-rule:nonzero;stroke:none"
     d="m 273.8873,48.437 c 3.359,-2.187 3.818,1.865 4.078,2.271 2.745,4.188 2.838,4.557 4.709,7.89 2.703,4.824 3.812,8.543 1.468,10.934 -1.593,1.618 -3.213,1.869 -4.427,1.353 -1.344,-0.568 -3.37,-3.011 -2.48,-5.76 l -0.416,-1.667 c -0.412,-1.078 -0.609,-1.614 -0.864,-2.136 -0.433,-0.905 -0.844,-1.896 -1.589,-3.708 -1.328,-3.208 -1.677,-7.036 -1.677,-7.036 -0.448,-1.161 1.198,-2.141 1.198,-2.141"
     id="path229" />
  <path
     style="fill:none;stroke:#231f20;stroke-width:0.565977;stroke-linecap:butt;stroke-linejoin:miter;stroke-miterlimit:4;stroke-dasharray:none;stroke-opacity:1"
     d="m 273.8873,48.437 c 3.359,-2.187 3.818,1.865 4.078,2.271 2.745,4.188 2.838,4.557 4.709,7.89 2.703,4.824 3.812,8.543 1.468,10.934 -1.593,1.618 -3.213,1.869 -4.427,1.353 -1.344,-0.568 -3.37,-3.011 -2.48,-5.76 l -0.416,-1.667 c -0.412,-1.078 -0.609,-1.614 -0.864,-2.136 -0.433,-0.905 -0.844,-1.896 -1.589,-3.708 -1.328,-3.208 -1.677,-7.036 -1.677,-7.036 -0.448,-1.161 1.198,-2.141 1.198,-2.141 z"
     id="path230" />
  <path
     style="fill:#231f20;fill-opacity:1;fill-rule:nonzero;stroke:none"
     d="m 82.779298,121.483 c 0.743,1.131 1.713,0.912 2.343,0.09 0.187,-0.246 0.604,-0.266 0.766,-0.516 0.374,-0.599 -0.057,-2.287 -1.557,-2.282 -0.11,0 -0.892,-0.24 -1.506,-0.333 -1.203,-0.172 -3.688,0.063 -5.391,2.151 -0.808,0.99 -0.073,1.286 0.375,0.985 1.423,-0.959 1.735,-0.767 2.199,-0.876 1.572,-0.405 2.771,0.781 2.771,0.781"
     id="path231" />
  <path
     style="fill:none;stroke:#231f20;stroke-width:0.332927;stroke-linecap:butt;stroke-linejoin:miter;stroke-miterlimit:4;stroke-dasharray:none;stroke-opacity:1"
     d="m 82.779298,121.483 c 0.743,1.131 1.713,0.912 2.343,0.09 0.187,-0.246 0.604,-0.266 0.766,-0.516 0.374,-0.599 -0.057,-2.287 -1.557,-2.282 -0.11,0 -0.892,-0.24 -1.506,-0.333 -1.203,-0.172 -3.688,0.063 -5.391,2.151 -0.808,0.99 -0.073,1.286 0.375,0.985 1.423,-0.959 1.735,-0.767 2.199,-0.876 1.572,-0.405 2.771,0.781 2.771,0.781 z"
     id="path232" />
  <path
     style="fill:#231f20;fill-opacity:1;fill-rule:nonzero;stroke:none"
     d="m 101.5223,121.114 c 0.147,2.255 -0.129,2.719 -1.082,2.839 -0.631002,0.088 -1.188002,0.38 -1.574002,0.448 -1.276,0.229 -3.516,0.088 -9.77,-1.97 -1.418,-0.468 -3.412,-1.114 -4.25,-1.306 -1.319,-0.318 0.093,-2.298 0.614,-2.178 1.672,0.37 2.854,0.495 3.474,0.547 0.427,0.037 1.172,0.204 2.834,0.131 2.525,-0.11 4.021,-0.547 6.13,-0.396 0.979,0.068 1.76,-0.5 2.687002,0.062 0.932,0.558 0.937,1.823 0.937,1.823"
     id="path233" />
  <path
     style="fill:none;stroke:#231f20;stroke-width:0.565977;stroke-linecap:butt;stroke-linejoin:miter;stroke-miterlimit:4;stroke-dasharray:none;stroke-opacity:1"
     d="m 101.5223,121.114 c 0.147,2.255 -0.129,2.719 -1.082,2.839 -0.631002,0.088 -1.188002,0.38 -1.574002,0.448 -1.276,0.229 -3.516,0.088 -9.77,-1.97 -1.418,-0.468 -3.412,-1.114 -4.25,-1.306 -1.319,-0.318 0.093,-2.298 0.614,-2.178 1.672,0.37 2.854,0.495 3.474,0.547 0.427,0.037 1.172,0.204 2.834,0.131 2.525,-0.11 4.021,-0.547 6.13,-0.396 0.979,0.068 1.76,-0.5 2.687002,0.062 0.932,0.558 0.937,1.823 0.937,1.823 z"
     id="path234" />
  <path
     style="fill:#0098c9;fill-opacity:1;fill-rule:nonzero;stroke:none"
     d="m 127.4923,119.833 c -2.568,1.797 -2.923,2.458 -3.412,3.24 -3.058,4.905 -5.406,3.312 -6.604,0.686 -1.411,-3.082 -1.979,-4.161 3.5,-7.26 1.532,-0.858 6.942,-4.926 6.942,-4.926 1.74,-1.719 4.36,-2.47 5.719,-1.948 1.432,0.552 0.823,0.437 2.063,1.186 1.177,0.715 2.208,2.636 1.756,3.787 -0.428,1.104 -2.074,1.38 -4.391,2.079 -1.829,0.552 -5.573,3.156 -5.573,3.156"
     id="path235" />
  <path
     style="fill:none;stroke:#231f20;stroke-width:0.565977;stroke-linecap:butt;stroke-linejoin:miter;stroke-miterlimit:4;stroke-dasharray:none;stroke-opacity:1"
     d="m 127.4923,119.833 c -2.568,1.797 -2.923,2.458 -3.412,3.24 -3.058,4.905 -5.406,3.312 -6.604,0.686 -1.411,-3.082 -1.979,-4.161 3.5,-7.26 1.532,-0.858 6.942,-4.926 6.942,-4.926 1.74,-1.719 4.36,-2.47 5.719,-1.948 1.432,0.552 0.823,0.437 2.063,1.186 1.177,0.715 2.208,2.636 1.756,3.787 -0.428,1.104 -2.074,1.38 -4.391,2.079 -1.829,0.552 -5.573,3.156 -5.573,3.156 z"
     id="path236" />
  <path
     style="fill:#ffffff;fill-opacity:1;fill-rule:nonzero;stroke:none"
     d="m 138.5853,105.385 c 0.156,-0.187 -0.479,-1.14 -0.068,-1.464 0.412,-0.323 1.037,0.157 2.98,-0.286 l 0.02,-0.005 c 1.407,-0.371 2.772,-0.12 3.625,0.801 1.412,1.527 0.87,4.314 -1.202,6.23 -2.074,1.917 -4.896,2.234 -6.314,0.708 -1.348,-1.458 -0.905,-4.083 0.959,-5.984"
     id="path237" />
  <path
     style="fill:none;stroke:#231f20;stroke-width:0.565977;stroke-linecap:butt;stroke-linejoin:miter;stroke-miterlimit:4;stroke-dasharray:none;stroke-opacity:1"
     d="m 138.5853,105.385 c 0.156,-0.187 -0.479,-1.14 -0.068,-1.464 0.412,-0.323 1.037,0.157 2.98,-0.286 l 0.02,-0.005 c 1.407,-0.371 2.772,-0.12 3.625,0.801 1.412,1.527 0.87,4.314 -1.202,6.23 -2.074,1.917 -4.896,2.234 -6.314,0.708 -1.348,-1.458 -0.905,-4.083 0.959,-5.984 z"
     id="path238" />
  <path
     style="fill:#231f20;fill-opacity:1;fill-rule:nonzero;stroke:none"
     d="m 99.164298,121.827 c -0.599,-3.968 3.281002,-2.702 3.754002,-2.77 4.948,-0.766 5.323,-0.698 9.136,-1.022 5.506,-0.457 9.354,0.074 10.558,3.199 0.817,2.12 0.364,3.697 -0.6,4.593 -1.078,0.984 -4.14,1.823 -6.276,-0.129 l -1.676,-0.319 c -1.162,-0.068 -1.735,-0.109 -2.314,-0.098 -1.005,0.021 -2.077,-0.016 -4.036,-0.083 -3.469,-0.125 -7.093,-1.391 -7.093,-1.391 -1.245002,-0.073 -1.453002,-1.98 -1.453002,-1.98"
     id="path239" />
  <path
     style="fill:none;stroke:#231f20;stroke-width:0.565977;stroke-linecap:butt;stroke-linejoin:miter;stroke-miterlimit:4;stroke-dasharray:none;stroke-opacity:1"
     d="m 99.164298,121.827 c -0.599,-3.968 3.281002,-2.702 3.754002,-2.77 4.948,-0.766 5.323,-0.698 9.136,-1.022 5.506,-0.457 9.354,0.074 10.558,3.199 0.817,2.12 0.364,3.697 -0.6,4.593 -1.078,0.984 -4.14,1.823 -6.276,-0.129 l -1.676,-0.319 c -1.162,-0.068 -1.735,-0.109 -2.314,-0.098 -1.005,0.021 -2.077,-0.016 -4.036,-0.083 -3.469,-0.125 -7.093,-1.391 -7.093,-1.391 -1.245002,-0.073 -1.453002,-1.98 -1.453002,-1.98 z"
     id="path240" />
  <path
     style="fill:#0098c9;fill-opacity:1;fill-rule:nonzero;stroke:none"
     d="m 122.9023,121.822 c -0.29,-1.448 -1.192,-2.468 -2.552,-3.213 -0.781,-0.688 -1.276,-1.078 -2.066,-0.916 -0.068,0.014 -0.147,0.025 -0.23,0.03 -0.562,-0.156 -1.156,-0.297 -1.802,-0.412 l -0.87,7.767 c 1.776,2.281 4.943,1.963 6.167,1.167 1.104,-0.719 1.801,-2.199 1.353,-4.423"
     id="path241" />
  <path
     style="fill:none;stroke:#231f20;stroke-width:0.565977;stroke-linecap:butt;stroke-linejoin:miter;stroke-miterlimit:4;stroke-dasharray:none;stroke-opacity:1"
     d="m 122.9023,121.822 c -0.29,-1.448 -1.192,-2.468 -2.552,-3.213 -0.781,-0.688 -1.276,-1.078 -2.066,-0.916 -0.068,0.014 -0.147,0.025 -0.23,0.03 -0.562,-0.156 -1.156,-0.297 -1.802,-0.412 l -0.87,7.767 c 1.776,2.281 4.943,1.963 6.167,1.167 1.104,-0.719 1.801,-2.199 1.353,-4.423 z"
     id="path242" />
  <path
     style="fill:#231f20;fill-opacity:1;fill-rule:nonzero;stroke:none"
     d="m 152.3933,103.822 c -0.636,-0.099 -2.281,0.943 -3.865,1.219 -1.068,0.182 -3.348,1.714 -4.427,1.818 -0.989,0.099 -1.437,0.234 -1.521,1.38 -0.047,0.682 0.297,2.026 0.802,2.088 1.183,0.142 2.094,-0.125 3.031,-0.629 1.073,-0.573 3.844,-2.391 4.323,-2.772 1.188,-0.952 1.922,-0.957 2.261,-1.181 0.64,-0.412 0.635,-0.762 0.453,-1.23 -0.344,-0.896 -1.057,-0.693 -1.057,-0.693"
     id="path243" />
  <path
     style="fill:none;stroke:#231f20;stroke-width:0.565977;stroke-linecap:butt;stroke-linejoin:miter;stroke-miterlimit:4;stroke-dasharray:none;stroke-opacity:1"
     d="m 152.3933,103.822 c -0.636,-0.099 -2.281,0.943 -3.865,1.219 -1.068,0.182 -3.348,1.714 -4.427,1.818 -0.989,0.099 -1.437,0.234 -1.521,1.38 -0.047,0.682 0.297,2.026 0.802,2.088 1.183,0.142 2.094,-0.125 3.031,-0.629 1.073,-0.573 3.844,-2.391 4.323,-2.772 1.188,-0.952 1.922,-0.957 2.261,-1.181 0.64,-0.412 0.635,-0.762 0.453,-1.23 -0.344,-0.896 -1.057,-0.693 -1.057,-0.693 z"
     id="path244" />
  <path
     style="fill:#231f20;fill-opacity:1;fill-rule:nonzero;stroke:none"
     d="m 144.1263,107.531 c -0.65,-1.114 -2.192,0.224 -2.645,0.51 -0.464,0.292 -1.864,0.969 -3.021,1.354 -1.167,0.391 -2.448,1.37 -4.651,2.115 -1.161,0.391 -2.041,1.5 -1.401,3.156 0.63,1.636 1.786,1.901 3.12,1.219 1.333,-0.683 2.292,-1.891 3.589,-2.672 1.291,-0.782 2.681,-1.458 3.796,-1.938 1.276,-0.541 1.699,-1.286 1.699,-1.765 -0.006,-1.193 -0.486,-1.979 -0.486,-1.979"
     id="path245" />
  <path
     style="fill:none;stroke:#231f20;stroke-width:0.565977;stroke-linecap:butt;stroke-linejoin:miter;stroke-miterlimit:4;stroke-dasharray:none;stroke-opacity:1"
     d="m 144.1263,107.531 c -0.65,-1.114 -2.192,0.224 -2.645,0.51 -0.464,0.292 -1.864,0.969 -3.021,1.354 -1.167,0.391 -2.448,1.37 -4.651,2.115 -1.161,0.391 -2.041,1.5 -1.401,3.156 0.63,1.636 1.786,1.901 3.12,1.219 1.333,-0.683 2.292,-1.891 3.589,-2.672 1.291,-0.782 2.681,-1.458 3.796,-1.938 1.276,-0.541 1.699,-1.286 1.699,-1.765 -0.006,-1.193 -0.486,-1.979 -0.486,-1.979 z"
     id="path246" />
  <path
     style="fill:#ffffff;fill-opacity:1;fill-rule:nonzero;stroke:none"
     d="m 4.2680984,103.098 c -0.349,-0.963 -1.4214,-1.457 -2.3855,-1.104 -0.96349998,0.355 -1.45829998,1.423 -1.10359998,2.385 0.34789998,0.97 1.42129998,1.464 2.38549998,1.104 0.9677,-0.348 1.4582,-1.416 1.1036,-2.385"
     id="path247" />
  <path
     style="fill:none;stroke:#231f20;stroke-width:1.33171;stroke-linecap:butt;stroke-linejoin:miter;stroke-miterlimit:4;stroke-dasharray:none;stroke-opacity:1"
     d="m 4.2680984,103.098 c -0.349,-0.963 -1.4214,-1.457 -2.3855,-1.104 -0.96349998,0.355 -1.45829998,1.423 -1.10359998,2.385 0.34789998,0.97 1.42129998,1.464 2.38549998,1.104 0.9677,-0.348 1.4582,-1.416 1.1036,-2.385 z"
     id="path248" />
  <path
     style="fill:#ffffff;fill-opacity:1;fill-rule:nonzero;stroke:none"
     d="m 193.3033,103.098 c -0.353,-0.963 -1.421,-1.457 -2.385,-1.104 -0.963,0.355 -1.463,1.423 -1.104,2.385 0.349,0.97 1.417,1.464 2.385,1.104 0.964,-0.348 1.459,-1.416 1.104,-2.385"
     id="path249" />
  <path
     style="fill:none;stroke:#231f20;stroke-width:1.33171;stroke-linecap:butt;stroke-linejoin:miter;stroke-miterlimit:4;stroke-dasharray:none;stroke-opacity:1"
     d="m 193.3033,103.098 c -0.353,-0.963 -1.421,-1.457 -2.385,-1.104 -0.963,0.355 -1.463,1.423 -1.104,2.385 0.349,0.97 1.417,1.464 2.385,1.104 0.964,-0.348 1.459,-1.416 1.104,-2.385 z"
     id="path250" />
  <path
     style="fill:#ffffff;fill-opacity:1;fill-rule:nonzero;stroke:none"
     d="m 155.4703,103.098 c -0.348,-0.963 -1.421,-1.457 -2.385,-1.104 -0.963,0.355 -1.459,1.423 -1.104,2.385 0.349,0.97 1.421,1.464 2.385,1.104 0.97,-0.348 1.459,-1.416 1.104,-2.385"
     id="path251" />
  <path
     style="fill:none;stroke:#231f20;stroke-width:1.33171;stroke-linecap:butt;stroke-linejoin:miter;stroke-miterlimit:4;stroke-dasharray:none;stroke-opacity:1"
     d="m 155.4703,103.098 c -0.348,-0.963 -1.421,-1.457 -2.385,-1.104 -0.963,0.355 -1.459,1.423 -1.104,2.385 0.349,0.97 1.421,1.464 2.385,1.104 0.97,-0.348 1.459,-1.416 1.104,-2.385 z"
     id="path252" />
  <path
     style="fill:#ffffff;fill-opacity:1;fill-rule:nonzero;stroke:none"
     d="m 253.2573,103.098 c -0.355,-0.963 -1.422,-1.457 -2.386,-1.104 -0.969,0.355 -1.464,1.423 -1.109,2.385 0.355,0.97 1.421,1.464 2.391,1.104 0.964,-0.348 1.458,-1.416 1.104,-2.385"
     id="path253" />
  <path
     style="fill:none;stroke:#231f20;stroke-width:1.33171;stroke-linecap:butt;stroke-linejoin:miter;stroke-miterlimit:4;stroke-dasharray:none;stroke-opacity:1"
     d="m 253.2573,103.098 c -0.355,-0.963 -1.422,-1.457 -2.386,-1.104 -0.969,0.355 -1.464,1.423 -1.109,2.385 0.355,0.97 1.421,1.464 2.391,1.104 0.964,-0.348 1.458,-1.416 1.104,-2.385 z"
     id="path254" />
  <path
     style="fill:#ffffff;fill-opacity:1;fill-rule:nonzero;stroke:none"
     d="m 295.7893,103.098 c -0.355,-0.963 -1.423,-1.457 -2.387,-1.104 -0.963,0.355 -1.463,1.423 -1.104,2.385 0.349,0.97 1.417,1.464 2.385,1.104 0.964,-0.348 1.459,-1.416 1.106,-2.385"
     id="path255" />
  <path
     style="fill:none;stroke:#231f20;stroke-width:1.33171;stroke-linecap:butt;stroke-linejoin:miter;stroke-miterlimit:4;stroke-dasharray:none;stroke-opacity:1"
     d="m 295.7893,103.098 c -0.355,-0.963 -1.423,-1.457 -2.387,-1.104 -0.963,0.355 -1.463,1.423 -1.104,2.385 0.349,0.97 1.417,1.464 2.385,1.104 0.964,-0.348 1.459,-1.416 1.106,-2.385 z"
     id="path256" />
  <path
     style="fill:#ffffff;fill-opacity:1;fill-rule:nonzero;stroke:none"
     d="m 326.5953,103.098 c -0.355,-0.963 -1.421,-1.457 -2.385,-1.104 -0.964,0.355 -1.459,1.423 -1.104,2.385 0.349,0.97 1.421,1.464 2.385,1.104 0.964,-0.348 1.459,-1.416 1.104,-2.385"
     id="path257" />
  <path
     style="fill:none;stroke:#231f20;stroke-width:1.33171;stroke-linecap:butt;stroke-linejoin:miter;stroke-miterlimit:4;stroke-dasharray:none;stroke-opacity:1"
     d="m 326.5953,103.098 c -0.355,-0.963 -1.421,-1.457 -2.385,-1.104 -0.964,0.355 -1.459,1.423 -1.104,2.385 0.349,0.97 1.421,1.464 2.385,1.104 0.964,-0.348 1.459,-1.416 1.104,-2.385 z"
     id="path258" />
  <path
     style="fill:#231f20;fill-opacity:1;fill-rule:nonzero;stroke:none"
     d="m 43.027798,40.802 c -1.3489,-0.094 -1.7702,0.807 -1.5,1.807 0.0787,0.303 -0.1609,0.641 -0.0572,0.923 0.24,0.666 1.8443,1.348 2.7562,0.15 0.0625,-0.078 0.7333,-0.552 1.1761,-0.984 0.876,-0.849 2.2036,-2.958 1.5839,-5.578 -0.2923,-1.251 -0.9694,-0.844 -1.0052,-0.308 -0.1043,1.704 -0.4538,1.838 -0.6402,2.277 -0.6469,1.489 -2.3136,1.713 -2.3136,1.713"
     id="path259" />
  <path
     style="fill:none;stroke:#231f20;stroke-width:0.332927;stroke-linecap:butt;stroke-linejoin:miter;stroke-miterlimit:4;stroke-dasharray:none;stroke-opacity:1"
     d="m 43.027798,40.802 c -1.3489,-0.094 -1.7702,0.807 -1.5,1.807 0.0787,0.303 -0.1609,0.641 -0.0572,0.923 0.24,0.666 1.8443,1.348 2.7562,0.15 0.0625,-0.078 0.7333,-0.552 1.1761,-0.984 0.876,-0.849 2.2036,-2.958 1.5839,-5.578 -0.2923,-1.251 -0.9694,-0.844 -1.0052,-0.308 -0.1043,1.704 -0.4538,1.838 -0.6402,2.277 -0.6469,1.489 -2.3136,1.713 -2.3136,1.713 z"
     id="path260" />
  <path
     style="fill:#0098c9;fill-opacity:1;fill-rule:nonzero;stroke:none"
     d="m 14.517498,74.593 c 1.2557,-2.869 1.2147,-3.619 1.2188,-4.541 0.0531,-5.782 2.8905,-5.651 5.2812,-4.031 2.8136,1.891 3.8546,2.52 0.7975,8.02 -0.8495,1.532 -3.3495,7.824 -3.3495,7.824 -0.5881,2.375 -2.4319,4.38 -3.8641,4.645 -1.5052,0.282 -0.9266,0.058 -2.3746,0.063 -1.3759,0.005 -3.2665996,-1.099 -3.4800996,-2.313 -0.2078,-1.167 1.0522,-2.255 2.6666996,-4.067 1.2708,-1.428 3.1041,-5.6 3.1041,-5.6"
     id="path263" />
  <path
     style="fill:none;stroke:#231f20;stroke-width:0.565977;stroke-linecap:butt;stroke-linejoin:miter;stroke-miterlimit:4;stroke-dasharray:none;stroke-opacity:1"
     d="m 14.517498,74.593 c 1.2557,-2.869 1.2147,-3.619 1.2188,-4.541 0.0531,-5.782 2.8905,-5.651 5.2812,-4.031 2.8136,1.891 3.8546,2.52 0.7975,8.02 -0.8495,1.532 -3.3495,7.824 -3.3495,7.824 -0.5881,2.375 -2.4319,4.38 -3.8641,4.645 -1.5052,0.282 -0.9266,0.058 -2.3746,0.063 -1.3759,0.005 -3.2665996,-1.099 -3.4800996,-2.313 -0.2078,-1.167 1.0522,-2.255 2.6666996,-4.067 1.2708,-1.428 3.1041,-5.6 3.1041,-5.6 z"
     id="path264" />
  <path
     style="fill:#ffffff;fill-opacity:1;fill-rule:nonzero;stroke:none"
     d="m 9.5174984,92.682 c -0.1186,0.208 0.7041996,1.016 0.3599,1.416 -0.3385,0.396 -1.0463,0.058 -2.8599,0.88 l -0.0197,0.011 c -1.3032,0.647 -2.688,0.677 -3.7084,-0.057 -1.6932,-1.208 -1.7239,-4.047 -0.0787,-6.344 1.6454,-2.296 4.3495,-3.171 6.036,-1.963 1.6145996,1.156 1.7134996,3.812 0.2708,6.057"
     id="path265" />
  <path
     style="fill:none;stroke:#231f20;stroke-width:0.565977;stroke-linecap:butt;stroke-linejoin:miter;stroke-miterlimit:4;stroke-dasharray:none;stroke-opacity:1"
     d="m 9.5174984,92.682 c -0.1186,0.208 0.7041996,1.016 0.3599,1.416 -0.3385,0.396 -1.0463,0.058 -2.8599,0.88 l -0.0197,0.011 c -1.3032,0.647 -2.688,0.677 -3.7084,-0.057 -1.6932,-1.208 -1.7239,-4.047 -0.0787,-6.344 1.6454,-2.296 4.3495,-3.171 6.036,-1.963 1.6145996,1.156 1.7134996,3.812 0.2708,6.057 z"
     id="path266" />
  <path
     style="fill:#0098c9;fill-opacity:1;fill-rule:nonzero;stroke:none"
     d="m 25.913298,69.874 -5.6239,-5.421 c -2.8864,0.016 -4.5735,2.719 -4.6828,4.172 -0.1036,1.312 0.6401,2.776 2.6776,3.776 1.3224,0.651 2.6813,0.557 4.1041,-0.068 1.0199,-0.203 1.6344,-0.349 1.9839,-1.079 0.0308,-0.061 0.0734,-0.129 0.1198,-0.197 0.4681,-0.355 0.9375,-0.74 1.4213,-1.183"
     id="path269" />
  <path
     style="fill:none;stroke:#231f20;stroke-width:0.565977;stroke-linecap:butt;stroke-linejoin:miter;stroke-miterlimit:4;stroke-dasharray:none;stroke-opacity:1"
     d="m 25.913298,69.874 -5.6239,-5.421 c -2.8864,0.016 -4.5735,2.719 -4.6828,4.172 -0.1036,1.312 0.6401,2.776 2.6776,3.776 1.3224,0.651 2.6813,0.557 4.1041,-0.068 1.0199,-0.203 1.6344,-0.349 1.9839,-1.079 0.0308,-0.061 0.0734,-0.129 0.1198,-0.197 0.4681,-0.355 0.9375,-0.74 1.4213,-1.183 z"
     id="path270" />
  <path
     style="fill:#231f20;fill-opacity:1;fill-rule:nonzero;stroke:none"
     d="m 3.4816984,102.25 c 0.5676,-0.313 1.229,-2.141 2.3172,-3.324 0.7348,-0.801 1.6,-3.41 2.3957,-4.15 0.7245,-0.678 0.9896,-1.063 0.3547,-2.02 -0.3744,-0.568 -1.4692,-1.423 -1.9119,-1.158 -1.0199,0.61 -1.5772,1.376 -2.0147,2.344 -0.4905,1.115 -1.5734,4.24 -1.7238,4.839 -0.3548,1.478 -0.9387,1.937 -1.0678,2.317 -0.251,0.719 -0.0376,0.991 0.3958,1.256 0.8172,0.495 1.2548,-0.104 1.2548,-0.104"
     id="path271" />
  <path
     style="fill:none;stroke:#231f20;stroke-width:0.565977;stroke-linecap:butt;stroke-linejoin:miter;stroke-miterlimit:4;stroke-dasharray:none;stroke-opacity:1"
     d="m 3.4816984,102.25 c 0.5676,-0.313 1.229,-2.141 2.3172,-3.324 0.7348,-0.801 1.6,-3.41 2.3957,-4.15 0.7245,-0.678 0.9896,-1.063 0.3547,-2.02 -0.3744,-0.568 -1.4692,-1.423 -1.9119,-1.158 -1.0199,0.61 -1.5772,1.376 -2.0147,2.344 -0.4905,1.115 -1.5734,4.24 -1.7238,4.839 -0.3548,1.478 -0.9387,1.937 -1.0678,2.317 -0.251,0.719 -0.0376,0.991 0.3958,1.256 0.8172,0.495 1.2548,-0.104 1.2548,-0.104 z"
     id="path272" />
  <path
     style="fill:#231f20;fill-opacity:1;fill-rule:nonzero;stroke:none"
     d="m 7.7576984,94.265 c 1.2025,0.485 1.6036,-1.52 1.7864,-2.025 0.1881,-0.511 0.8801996,-1.902 1.5681996,-2.918 0.6771,-1.02 1.0932,-2.577 2.3855,-4.514 0.677,-1.016 0.6968,-2.439 -0.823,-3.36 -1.4999,-0.912 -2.5734,-0.412 -3.2145996,0.948 -0.6348,1.354 -0.6613,2.89 -1.2077,4.302 -0.5418,1.411 -1.2298,2.796 -1.823,3.859 -0.6718,1.208 -0.5521,2.057 -0.2598,2.432 0.7333,0.943 1.588,1.276 1.588,1.276"
     id="path273" />
  <path
     style="fill:none;stroke:#231f20;stroke-width:0.565977;stroke-linecap:butt;stroke-linejoin:miter;stroke-miterlimit:4;stroke-dasharray:none;stroke-opacity:1"
     d="m 7.7576984,94.265 c 1.2025,0.485 1.6036,-1.52 1.7864,-2.025 0.1881,-0.511 0.8801996,-1.902 1.5681996,-2.918 0.6771,-1.02 1.0932,-2.577 2.3855,-4.514 0.677,-1.016 0.6968,-2.439 -0.823,-3.36 -1.4999,-0.912 -2.5734,-0.412 -3.2145996,0.948 -0.6348,1.354 -0.6613,2.89 -1.2077,4.302 -0.5418,1.411 -1.2298,2.796 -1.823,3.859 -0.6718,1.208 -0.5521,2.057 -0.2598,2.432 0.7333,0.943 1.588,1.276 1.588,1.276 z"
     id="path274" />
  <path
     style="fill:#231f20;fill-opacity:1;fill-rule:nonzero;stroke:none"
     d="m 65.924298,146.057 c 0.093,-1.355 -0.807,-1.771 -1.8069,-1.5 -0.2973,0.078 -0.6411,-0.156 -0.9229,-0.058 -0.661,0.246 -1.3479,1.844 -0.1506,2.755 0.0787,0.063 0.5522,0.735 0.9839,1.177 0.8495,0.876 2.9585,2.204 5.5845,1.584 1.244,-0.292 0.838,-0.974 0.301,-1.005 -1.703,-0.104 -1.839,-0.448 -2.276,-0.641 -1.489,-0.646 -1.713,-2.312 -1.713,-2.312"
     id="path275" />
  <path
     style="fill:none;stroke:#231f20;stroke-width:0.332927;stroke-linecap:butt;stroke-linejoin:miter;stroke-miterlimit:4;stroke-dasharray:none;stroke-opacity:1"
     d="m 65.924298,146.057 c 0.093,-1.355 -0.807,-1.771 -1.8069,-1.5 -0.2973,0.078 -0.6411,-0.156 -0.9229,-0.058 -0.661,0.246 -1.3479,1.844 -0.1506,2.755 0.0787,0.063 0.5522,0.735 0.9839,1.177 0.8495,0.876 2.9585,2.204 5.5845,1.584 1.244,-0.292 0.838,-0.974 0.301,-1.005 -1.703,-0.104 -1.839,-0.448 -2.276,-0.641 -1.489,-0.646 -1.713,-2.312 -1.713,-2.312 z"
     id="path276" />
  <path
     style="fill:#231f20;fill-opacity:1;fill-rule:nonzero;stroke:none"
     d="m 50.836198,134.917 c 1.2651,-1.882 1.7651,-2.079 2.5932,-1.595 0.5521,0.319 1.1719,0.428 1.5213,0.604 1.1506,0.6 2.8427,2.079 6.536,7.521 0.8386,1.24 2.0214,2.97 2.5787,3.631 0.8479,1.057 -1.4797,1.765 -1.8188,1.353 -1.1036,-1.317 -1.9532,-2.134 -2.4213,-2.557 -0.312,-0.291 -0.8027,-0.869 -2.161,-1.828 -2.0734,-1.453 -3.527,-2.015 -5.0989,-3.427 -0.7344,-0.65 -1.7042,-0.677 -2.089,-1.688 -0.4068,-1.01 0.3598,-2.014 0.3598,-2.014"
     id="path277" />
  <path
     style="fill:none;stroke:#231f20;stroke-width:0.565977;stroke-linecap:butt;stroke-linejoin:miter;stroke-miterlimit:4;stroke-dasharray:none;stroke-opacity:1"
     d="m 50.836198,134.917 c 1.2651,-1.882 1.7651,-2.079 2.5932,-1.595 0.5521,0.319 1.1719,0.428 1.5213,0.604 1.1506,0.6 2.8427,2.079 6.536,7.521 0.8386,1.24 2.0214,2.97 2.5787,3.631 0.8479,1.057 -1.4797,1.765 -1.8188,1.353 -1.1036,-1.317 -1.9532,-2.134 -2.4213,-2.557 -0.312,-0.291 -0.8027,-0.869 -2.161,-1.828 -2.0734,-1.453 -3.527,-2.015 -5.0989,-3.427 -0.7344,-0.65 -1.7042,-0.677 -2.089,-1.688 -0.4068,-1.01 0.3598,-2.014 0.3598,-2.014 z"
     id="path278" />
  <path
     style="fill:#0098c9;fill-opacity:1;fill-rule:nonzero;stroke:none"
     d="m 31.721598,117.775 c 2.8693,1.256 3.6199,1.214 4.5412,1.219 5.7812,0.052 5.6505,2.891 4.0306,5.281 -1.8905,2.814 -2.5145,3.855 -8.0202,0.798 -1.5265,-0.85 -7.8224,-3.35 -7.8224,-3.35 -2.376,-0.588 -4.3812,-2.432 -4.6468,-3.864 -0.2813,-1.51 -0.0573,-0.928 -0.0625,-2.376 -0.0052,-1.374 1.1,-3.265 2.3135,-3.478 1.1666,-0.208 2.26,1.052 4.0677,2.666 1.4265,1.271 5.5989,3.104 5.5989,3.104"
     id="path279" />
  <path
     style="fill:none;stroke:#231f20;stroke-width:0.565977;stroke-linecap:butt;stroke-linejoin:miter;stroke-miterlimit:4;stroke-dasharray:none;stroke-opacity:1"
     d="m 31.721598,117.775 c 2.8693,1.256 3.6199,1.214 4.5412,1.219 5.7812,0.052 5.6505,2.891 4.0306,5.281 -1.8905,2.814 -2.5145,3.855 -8.0202,0.798 -1.5265,-0.85 -7.8224,-3.35 -7.8224,-3.35 -2.376,-0.588 -4.3812,-2.432 -4.6468,-3.864 -0.2813,-1.51 -0.0573,-0.928 -0.0625,-2.376 -0.0052,-1.374 1.1,-3.265 2.3135,-3.478 1.1666,-0.208 2.26,1.052 4.0677,2.666 1.4265,1.271 5.5989,3.104 5.5989,3.104 z"
     id="path280" />
  <path
     style="fill:#ffffff;fill-opacity:1;fill-rule:nonzero;stroke:none"
     d="m 13.632198,112.775 c -0.2079,-0.12 -1.0095,0.699 -1.4163,0.36 -0.3957,-0.338 -0.0572,-1.046 -0.8796,-2.86 l -0.0052,-0.021 c -0.6521,-1.301 -0.6828,-2.692 0.0515,-3.708 1.2084,-1.692 4.0469,-1.724 6.3442,-0.077 2.2959,1.645 3.1762,4.348 1.9626,6.036 -1.1558,1.614 -3.812,1.713 -6.0572,0.27"
     id="path281" />
  <path
     style="fill:none;stroke:#231f20;stroke-width:0.565977;stroke-linecap:butt;stroke-linejoin:miter;stroke-miterlimit:4;stroke-dasharray:none;stroke-opacity:1"
     d="m 13.632198,112.775 c -0.2079,-0.12 -1.0095,0.699 -1.4163,0.36 -0.3957,-0.338 -0.0572,-1.046 -0.8796,-2.86 l -0.0052,-0.021 c -0.6521,-1.301 -0.6828,-2.692 0.0515,-3.708 1.2084,-1.692 4.0469,-1.724 6.3442,-0.077 2.2959,1.645 3.1762,4.348 1.9626,6.036 -1.1558,1.614 -3.812,1.713 -6.0572,0.27 z"
     id="path282" />
  <path
     style="fill:#231f20;fill-opacity:1;fill-rule:nonzero;stroke:none"
     d="m 53.148198,135.786 c -1.948,3.511 -4.2494,0.14 -4.6718,-0.093 -4.3855,-2.412 -4.6402,-2.699 -7.8538,-4.767 -4.6462,-2.995 -7.3702,-5.76 -6.4171,-8.968 0.6505,-2.177 1.9589,-3.156 3.2709,-3.271 1.4582,-0.13 4.3957,1.078 4.8905,3.927 l 1.1464,1.276 c 0.8749,0.76 1.3016,1.141 1.7656,1.484 0.8068,0.595 1.6344,1.281 3.1453,2.532 2.6719,2.213 4.776,5.427 4.776,5.427 0.9428,0.817 -0.052,2.453 -0.052,2.453"
     id="path283" />
  <path
     style="fill:none;stroke:#231f20;stroke-width:0.565977;stroke-linecap:butt;stroke-linejoin:miter;stroke-miterlimit:4;stroke-dasharray:none;stroke-opacity:1"
     d="m 53.148198,135.786 c -1.948,3.511 -4.2494,0.14 -4.6718,-0.093 -4.3855,-2.412 -4.6402,-2.699 -7.8538,-4.767 -4.6462,-2.995 -7.3702,-5.76 -6.4171,-8.968 0.6505,-2.177 1.9589,-3.156 3.2709,-3.271 1.4582,-0.13 4.3957,1.078 4.8905,3.927 l 1.1464,1.276 c 0.8749,0.76 1.3016,1.141 1.7656,1.484 0.8068,0.595 1.6344,1.281 3.1453,2.532 2.6719,2.213 4.776,5.427 4.776,5.427 0.9428,0.817 -0.052,2.453 -0.052,2.453 z"
     id="path284" />
  <path
     style="fill:#0098c9;fill-opacity:1;fill-rule:nonzero;stroke:#231f20;stroke-width:0.565977;stroke-linecap:butt;stroke-linejoin:miter;stroke-miterlimit:4;stroke-dasharray:none;stroke-opacity:1"
     d="m 42.273198,123.317 c -0.0156,-2.886 -2.7183,-4.572 -4.1719,-4.682 -1.312,-0.104 -2.776,0.64 -3.776,2.676 -0.6505,1.324 -0.5573,2.683 0.0682,4.106 0.2026,1.02 0.348,1.634 1.0772,1.978 0.0629,0.036 0.1358,0.079 0.1989,0.126 0.3531,0.468 0.7385,0.937 1.1812,1.421 z"
     id="path285" />
  <path
     style="fill:#231f20;fill-opacity:1;fill-rule:nonzero;stroke:none"
     d="m 4.0654984,106.739 c 0.3119,0.568 2.14,1.23 3.3228,2.318 0.8011,0.734 3.4105996,1.598 4.1504996,2.396 0.6828,0.724 1.0626,0.989 2.0214,0.354 0.5666,-0.381 1.4214,-1.469 1.1557,-1.912 -0.6036,-1.021 -1.3703,-1.578 -2.3437,-2.016 -1.1145,-0.494 -4.2399996,-1.572 -4.8384996,-1.724 -1.4787,-0.353 -1.9323,-0.937 -2.3178,-1.066 -0.7181,-0.251 -0.989,-0.038 -1.2557,0.394 -0.4947,0.819 0.1053,1.256 0.1053,1.256"
     id="path286" />
  <path
     style="fill:none;stroke:#231f20;stroke-width:0.565977;stroke-linecap:butt;stroke-linejoin:miter;stroke-miterlimit:4;stroke-dasharray:none;stroke-opacity:1"
     d="m 4.0654984,106.739 c 0.3119,0.568 2.14,1.23 3.3228,2.318 0.8011,0.734 3.4105996,1.598 4.1504996,2.396 0.6828,0.724 1.0626,0.989 2.0214,0.354 0.5666,-0.381 1.4214,-1.469 1.1557,-1.912 -0.6036,-1.021 -1.3703,-1.578 -2.3437,-2.016 -1.1145,-0.494 -4.2399996,-1.572 -4.8384996,-1.724 -1.4787,-0.353 -1.9323,-0.937 -2.3178,-1.066 -0.7181,-0.251 -0.989,-0.038 -1.2557,0.394 -0.4947,0.819 0.1053,1.256 0.1053,1.256 z"
     id="path287" />
  <path
     style="fill:#231f20;fill-opacity:1;fill-rule:nonzero;stroke:none"
     d="m 12.049198,111.015 c -0.4796,1.203 1.5204,1.604 2.0256,1.787 0.511,0.187 1.9068,0.88 2.9172,1.563 1.0203,0.681 2.5776,1.098 4.5162,2.39 1.0145,0.676 2.4374,0.698 3.3587,-0.824 0.912,-1.5 0.412,-2.577 -0.9478,-3.213 -1.3536,-0.635 -2.8912,-0.661 -4.3016,-1.208 -1.412,-0.541 -2.7973,-1.235 -3.8599,-1.823 -1.2084,-0.672 -2.0573,-0.552 -2.4322,-0.261 -0.9428,0.735 -1.2762,1.589 -1.2762,1.589"
     id="path288" />
  <path
     style="fill:none;stroke:#231f20;stroke-width:0.565977;stroke-linecap:butt;stroke-linejoin:miter;stroke-miterlimit:4;stroke-dasharray:none;stroke-opacity:1"
     d="m 12.049198,111.015 c -0.4796,1.203 1.5204,1.604 2.0256,1.787 0.511,0.187 1.9068,0.88 2.9172,1.563 1.0203,0.681 2.5776,1.098 4.5162,2.39 1.0145,0.676 2.4374,0.698 3.3587,-0.824 0.912,-1.5 0.412,-2.577 -0.9478,-3.213 -1.3536,-0.635 -2.8912,-0.661 -4.3016,-1.208 -1.412,-0.541 -2.7973,-1.235 -3.8599,-1.823 -1.2084,-0.672 -2.0573,-0.552 -2.4322,-0.261 -0.9428,0.735 -1.2762,1.589 -1.2762,1.589 z"
     id="path289" />
  <path
     style="fill:#231f20;fill-opacity:1;fill-rule:nonzero;stroke:none"
     d="m 219.7153,34.546 c 1.312,0.334 1.427,1.319 0.854,2.183 -0.167,0.26 -0.052,0.656 -0.234,0.896 -0.437,0.552 -2.177,0.697 -2.666,-0.724 -0.032,-0.099 -0.522,-0.756 -0.808,-1.308 -0.558,-1.083 -1.156,-3.5 0.256,-5.796 0.672,-1.089 1.186,-0.495 1.052,0.031 -0.438,1.65 -0.152,1.885 -0.11,2.36 0.146,1.614 1.656,2.358 1.656,2.358"
     id="path290" />
  <path
     style="fill:none;stroke:#231f20;stroke-width:0.332927;stroke-linecap:butt;stroke-linejoin:miter;stroke-miterlimit:4;stroke-dasharray:none;stroke-opacity:1"
     d="m 219.7153,34.546 c 1.312,0.334 1.427,1.319 0.854,2.183 -0.167,0.26 -0.052,0.656 -0.234,0.896 -0.437,0.552 -2.177,0.697 -2.666,-0.724 -0.032,-0.099 -0.522,-0.756 -0.808,-1.308 -0.558,-1.083 -1.156,-3.5 0.256,-5.796 0.672,-1.089 1.186,-0.495 1.052,0.031 -0.438,1.65 -0.152,1.885 -0.11,2.36 0.146,1.614 1.656,2.358 1.656,2.358 z"
     id="path291" />
  <path
     style="fill:#231f20;fill-opacity:1;fill-rule:nonzero;stroke:none"
     d="m 225.5383,52.374 c 2.183,-0.614 2.527,-1.02 2.328,-1.962 -0.125,-0.62 -0.036,-1.246 -0.099,-1.631 -0.202,-1.287 -1.078,-3.355 -5.078,-8.573 -0.911,-1.187 -2.176,-2.854 -2.63,-3.588 -0.734,-1.142 -2.141,0.844 -1.854,1.297 0.901,1.457 1.412,2.525 1.661,3.104 0.177,0.385 0.573,1.031 1.052,2.624 0.729,2.428 0.808,3.98 1.647,5.923 0.39,0.901 0.104,1.828 0.942,2.516 0.834,0.697 2.031,0.29 2.031,0.29"
     id="path292" />
  <path
     style="fill:none;stroke:#231f20;stroke-width:0.565977;stroke-linecap:butt;stroke-linejoin:miter;stroke-miterlimit:4;stroke-dasharray:none;stroke-opacity:1"
     d="m 225.5383,52.374 c 2.183,-0.614 2.527,-1.02 2.328,-1.962 -0.125,-0.62 -0.036,-1.246 -0.099,-1.631 -0.202,-1.287 -1.078,-3.355 -5.078,-8.573 -0.911,-1.187 -2.176,-2.854 -2.63,-3.588 -0.734,-1.142 -2.141,0.844 -1.854,1.297 0.901,1.457 1.412,2.525 1.661,3.104 0.177,0.385 0.573,1.031 1.052,2.624 0.729,2.428 0.808,3.98 1.647,5.923 0.39,0.901 0.104,1.828 0.942,2.516 0.834,0.697 2.031,0.29 2.031,0.29 z"
     id="path293" />
  <path
     style="fill:#0098c9;fill-opacity:1;fill-rule:nonzero;stroke:none"
     d="m 238.5493,74.693 c -1.292,-2.855 -1.26,-3.609 -1.282,-4.527 -0.13,-5.781 -2.969,-5.609 -5.333,-3.958 -2.787,1.933 -3.823,2.573 -0.688,8.032 0.876,1.516 3.464,7.776 3.464,7.776 0.62,2.364 2.489,4.344 3.927,4.588 1.51,0.261 0.928,0.046 2.374,0.032 1.376,-0.016 3.251,-1.142 3.448,-2.366 0.194,-1.166 -1.082,-2.238 -2.724,-4.025 -1.29,-1.412 -3.186,-5.552 -3.186,-5.552"
     id="path294" />
  <path
     style="fill:none;stroke:#231f20;stroke-width:0.565977;stroke-linecap:butt;stroke-linejoin:miter;stroke-miterlimit:4;stroke-dasharray:none;stroke-opacity:1"
     d="m 238.5493,74.693 c -1.292,-2.855 -1.26,-3.609 -1.282,-4.527 -0.13,-5.781 -2.969,-5.609 -5.333,-3.958 -2.787,1.933 -3.823,2.573 -0.688,8.032 0.876,1.516 3.464,7.776 3.464,7.776 0.62,2.364 2.489,4.344 3.927,4.588 1.51,0.261 0.928,0.046 2.374,0.032 1.376,-0.016 3.251,-1.142 3.448,-2.366 0.194,-1.166 -1.082,-2.238 -2.724,-4.025 -1.29,-1.412 -3.186,-5.552 -3.186,-5.552 z"
     id="path295" />
  <path
     style="fill:#ffffff;fill-opacity:1;fill-rule:nonzero;stroke:none"
     d="m 243.8033,92.702 c 0.126,0.21 -0.681,1.027 -0.338,1.423 0.344,0.396 1.052,0.047 2.87,0.844 l 0.02,0.005 c 1.314,0.63 2.704,0.64 3.71,-0.105 1.676,-1.233 1.666,-4.072 -0.011,-6.343 -1.677,-2.276 -4.391,-3.114 -6.063,-1.881 -1.598,1.177 -1.656,3.833 -0.188,6.057"
     id="path296" />
  <path
     style="fill:none;stroke:#231f20;stroke-width:0.565977;stroke-linecap:butt;stroke-linejoin:miter;stroke-miterlimit:4;stroke-dasharray:none;stroke-opacity:1"
     d="m 243.8033,92.702 c 0.126,0.21 -0.681,1.027 -0.338,1.423 0.344,0.396 1.052,0.047 2.87,0.844 l 0.02,0.005 c 1.314,0.63 2.704,0.64 3.71,-0.105 1.676,-1.233 1.666,-4.072 -0.011,-6.343 -1.677,-2.276 -4.391,-3.114 -6.063,-1.881 -1.598,1.177 -1.656,3.833 -0.188,6.057 z"
     id="path297" />
  <path
     style="fill:#231f20;fill-opacity:1;fill-rule:nonzero;stroke:none"
     d="m 225.4393,49.906 c -3.942,0.739 -1.474,3.99 -1.38,4.459 0.906,4.927 1.094,5.255 2.047,8.952 1.38,5.36 3.145,8.813 6.495,8.923 2.265,0.068 3.609,-0.871 4.134,-2.079 0.579,-1.344 0.355,-4.511 -2.186,-5.875 l -0.855,-1.494 c -0.448,-1.063 -0.672,-1.594 -0.848,-2.142 -0.313,-0.952 -0.699,-1.957 -1.412,-3.781 -1.26,-3.233 -3.651,-6.239 -3.651,-6.239 -0.48,-1.156 -2.344,-0.724 -2.344,-0.724"
     id="path298" />
  <path
     style="fill:none;stroke:#231f20;stroke-width:0.565977;stroke-linecap:butt;stroke-linejoin:miter;stroke-miterlimit:4;stroke-dasharray:none;stroke-opacity:1"
     d="m 225.4393,49.906 c -3.942,0.739 -1.474,3.99 -1.38,4.459 0.906,4.927 1.094,5.255 2.047,8.952 1.38,5.36 3.145,8.813 6.495,8.923 2.265,0.068 3.609,-0.871 4.134,-2.079 0.579,-1.344 0.355,-4.511 -2.186,-5.875 l -0.855,-1.494 c -0.448,-1.063 -0.672,-1.594 -0.848,-2.142 -0.313,-0.952 -0.699,-1.957 -1.412,-3.781 -1.26,-3.233 -3.651,-6.239 -3.651,-6.239 -0.48,-1.156 -2.344,-0.724 -2.344,-0.724 z"
     id="path299" />
  <path
     style="fill:#0098c9;fill-opacity:1;fill-rule:nonzero;stroke:none"
     d="m 233.8463,64.15 -7.043,3.376 c 0.319,0.572 0.647,1.083 0.975,1.563 0.02,0.083 0.041,0.161 0.052,0.233 0.104,0.803 0.64,1.136 1.547,1.647 1.15,1.047 2.412,1.557 3.869,1.359 2.251,-0.312 3.417,-1.463 3.735,-2.744 0.354,-1.412 -0.396,-4.511 -3.135,-5.434"
     id="path300" />
  <path
     style="fill:none;stroke:#231f20;stroke-width:0.565977;stroke-linecap:butt;stroke-linejoin:miter;stroke-miterlimit:4;stroke-dasharray:none;stroke-opacity:1"
     d="m 233.8463,64.15 -7.043,3.376 c 0.319,0.572 0.647,1.083 0.975,1.563 0.02,0.083 0.041,0.161 0.052,0.233 0.104,0.803 0.64,1.136 1.547,1.647 1.15,1.047 2.412,1.557 3.869,1.359 2.251,-0.312 3.417,-1.463 3.735,-2.744 0.354,-1.412 -0.396,-4.511 -3.135,-5.434 z"
     id="path301" />
  <path
     style="fill:#231f20;fill-opacity:1;fill-rule:nonzero;stroke:none"
     d="m 249.9753,102.187 c -0.568,-0.302 -1.26,-2.125 -2.364,-3.291 -0.745,-0.787 -1.646,-3.386 -2.453,-4.115 -0.729,-0.672 -1.005,-1.047 -0.38,-2.016 0.369,-0.572 1.448,-1.443 1.891,-1.187 1.03,0.594 1.598,1.354 2.052,2.323 0.505,1.099 1.634,4.213 1.786,4.807 0.38,1.474 0.968,1.922 1.104,2.302 0.26,0.719 0.047,0.989 -0.38,1.26 -0.808,0.511 -1.256,-0.083 -1.256,-0.083"
     id="path302" />
  <path
     style="fill:none;stroke:#231f20;stroke-width:0.565977;stroke-linecap:butt;stroke-linejoin:miter;stroke-miterlimit:4;stroke-dasharray:none;stroke-opacity:1"
     d="m 249.9753,102.187 c -0.568,-0.302 -1.26,-2.125 -2.364,-3.291 -0.745,-0.787 -1.646,-3.386 -2.453,-4.115 -0.729,-0.672 -1.005,-1.047 -0.38,-2.016 0.369,-0.572 1.448,-1.443 1.891,-1.187 1.03,0.594 1.598,1.354 2.052,2.323 0.505,1.099 1.634,4.213 1.786,4.807 0.38,1.474 0.968,1.922 1.104,2.302 0.26,0.719 0.047,0.989 -0.38,1.26 -0.808,0.511 -1.256,-0.083 -1.256,-0.083 z"
     id="path303" />
  <path
     style="fill:#231f20;fill-opacity:1;fill-rule:nonzero;stroke:none"
     d="m 245.5903,94.26 c -1.197,0.5 -1.625,-1.495 -1.817,-1.995 -0.194,-0.509 -0.907,-1.896 -1.604,-2.896 -0.694,-1.009 -1.131,-2.561 -2.454,-4.479 -0.693,-1.01 -0.729,-2.426 0.782,-3.374 1.484,-0.932 2.568,-0.443 3.224,0.901 0.656,1.343 0.697,2.885 1.265,4.291 0.568,1.401 1.271,2.776 1.88,3.828 0.688,1.198 0.579,2.052 0.297,2.433 -0.724,0.952 -1.573,1.291 -1.573,1.291"
     id="path304" />
  <path
     style="fill:none;stroke:#231f20;stroke-width:0.565977;stroke-linecap:butt;stroke-linejoin:miter;stroke-miterlimit:4;stroke-dasharray:none;stroke-opacity:1"
     d="m 245.5903,94.26 c -1.197,0.5 -1.625,-1.495 -1.817,-1.995 -0.194,-0.509 -0.907,-1.896 -1.604,-2.896 -0.694,-1.009 -1.131,-2.561 -2.454,-4.479 -0.693,-1.01 -0.729,-2.426 0.782,-3.374 1.484,-0.932 2.568,-0.443 3.224,0.901 0.656,1.343 0.697,2.885 1.265,4.291 0.568,1.401 1.271,2.776 1.88,3.828 0.688,1.198 0.579,2.052 0.297,2.433 -0.724,0.952 -1.573,1.291 -1.573,1.291 z"
     id="path305" />
  <path
     style="fill:#231f20;fill-opacity:1;fill-rule:nonzero;stroke:none"
     d="m 267.4073,33.38 c -0.718,1.152 -0.114,1.942 0.896,2.166 0.298,0.074 0.49,0.443 0.787,0.486 0.699,0.098 2.057,-0.996 1.423,-2.366 -0.038,-0.088 -0.142,-0.901 -0.319,-1.5 -0.339,-1.166 -1.577,-3.328 -4.187,-4.016 -1.24,-0.322 -1.198,0.464 -0.74,0.751 1.459,0.891 1.411,1.26 1.708,1.631 1.016,1.27 0.432,2.848 0.432,2.848"
     id="path306" />
  <path
     style="fill:none;stroke:#231f20;stroke-width:0.332927;stroke-linecap:butt;stroke-linejoin:miter;stroke-miterlimit:4;stroke-dasharray:none;stroke-opacity:1"
     d="m 267.4073,33.38 c -0.718,1.152 -0.114,1.942 0.896,2.166 0.298,0.074 0.49,0.443 0.787,0.486 0.699,0.098 2.057,-0.996 1.423,-2.366 -0.038,-0.088 -0.142,-0.901 -0.319,-1.5 -0.339,-1.166 -1.577,-3.328 -4.187,-4.016 -1.24,-0.322 -1.198,0.464 -0.74,0.751 1.459,0.891 1.411,1.26 1.708,1.631 1.016,1.27 0.432,2.848 0.432,2.848 z"
     id="path307" />
  <path
     style="fill:#0098c9;fill-opacity:1;fill-rule:nonzero;stroke:none"
     d="m 282.1373,75.385 c -1.26,-2.864 -1.844,-3.349 -2.515,-3.973 -4.215,-3.959 -2.193,-5.959 0.619,-6.615 3.297,-0.781 4.464,-1.131 6.437,4.853 0.543,1.662 3.475,7.767 3.475,7.767 1.344,2.041 1.568,4.755 0.792,5.989 -0.819,1.302 -0.584,0.724 -1.563,1.792 -0.932,1.01 -3.021,1.651 -4.057,0.984 -1,-0.636 -0.948,-2.302 -1.183,-4.718 -0.187,-1.902 -2.005,-6.079 -2.005,-6.079"
     id="path308" />
  <path
     style="fill:none;stroke:#231f20;stroke-width:0.565977;stroke-linecap:butt;stroke-linejoin:miter;stroke-miterlimit:4;stroke-dasharray:none;stroke-opacity:1"
     d="m 282.1373,75.385 c -1.26,-2.864 -1.844,-3.349 -2.515,-3.973 -4.215,-3.959 -2.193,-5.959 0.619,-6.615 3.297,-0.781 4.464,-1.131 6.437,4.853 0.543,1.662 3.475,7.767 3.475,7.767 1.344,2.041 1.568,4.755 0.792,5.989 -0.819,1.302 -0.584,0.724 -1.563,1.792 -0.932,1.01 -3.021,1.651 -4.057,0.984 -1,-0.636 -0.948,-2.302 -1.183,-4.718 -0.187,-1.902 -2.005,-6.079 -2.005,-6.079 z"
     id="path309" />
  <path
     style="fill:#ffffff;fill-opacity:1;fill-rule:nonzero;stroke:none"
     d="m 292.0333,91.322 c 0.073,0.235 1.218,0.178 1.286,0.699 0.063,0.52 -0.666,0.812 -1.292,2.703 l -0.005,0.021 c -0.411,1.396 -1.328,2.437 -2.557,2.687 -2.036,0.428 -4.146,-1.474 -4.719,-4.244 -0.567,-2.766 0.615,-5.35 2.652,-5.766 1.943,-0.406 3.968,1.323 4.635,3.9"
     id="path310" />
  <path
     style="fill:none;stroke:#231f20;stroke-width:0.565977;stroke-linecap:butt;stroke-linejoin:miter;stroke-miterlimit:4;stroke-dasharray:none;stroke-opacity:1"
     d="m 292.0333,91.322 c 0.073,0.235 1.218,0.178 1.286,0.699 0.063,0.52 -0.666,0.812 -1.292,2.703 l -0.005,0.021 c -0.411,1.396 -1.328,2.437 -2.557,2.687 -2.036,0.428 -4.146,-1.474 -4.719,-4.244 -0.567,-2.766 0.615,-5.35 2.652,-5.766 1.943,-0.406 3.968,1.323 4.635,3.9 z"
     id="path311" />
  <path
     style="fill:#231f20;fill-opacity:1;fill-rule:nonzero;stroke:none"
     d="m 321.4703,27.978 c -1.006,0.902 -0.646,1.83 0.261,2.33 0.271,0.15 0.348,0.557 0.624,0.681 0.647,0.287 2.251,-0.391 2.021,-1.88 -0.016,-0.099 0.11,-0.907 0.11,-1.531 -0.011,-1.218 -0.599,-3.636 -2.922,-5.016 -1.1,-0.65 -1.281,0.115 -0.917,0.516 1.156,1.26 1.016,1.599 1.193,2.042 0.624,1.5 -0.37,2.858 -0.37,2.858"
     id="path312" />
  <path
     style="fill:none;stroke:#231f20;stroke-width:0.332927;stroke-linecap:butt;stroke-linejoin:miter;stroke-miterlimit:4;stroke-dasharray:none;stroke-opacity:1"
     d="m 321.4703,27.978 c -1.006,0.902 -0.646,1.83 0.261,2.33 0.271,0.15 0.348,0.557 0.624,0.681 0.647,0.287 2.251,-0.391 2.021,-1.88 -0.016,-0.099 0.11,-0.907 0.11,-1.531 -0.011,-1.218 -0.599,-3.636 -2.922,-5.016 -1.1,-0.65 -1.281,0.115 -0.917,0.516 1.156,1.26 1.016,1.599 1.193,2.042 0.624,1.5 -0.37,2.858 -0.37,2.858 z"
     id="path313" />
  <path
     style="fill:#231f20;fill-opacity:1;fill-rule:nonzero;stroke:none"
     d="m 324.6003,46.469 c -2.218,0.468 -2.713,0.271 -2.969,-0.657 -0.181,-0.61 -0.552,-1.119 -0.676,-1.49 -0.417,-1.229 -0.605,-3.473 0.509,-9.953 0.262,-1.473 0.604,-3.536 0.667,-4.395 0.12,-1.354 2.287,-0.25 2.245,0.28 -0.12,1.72 -0.078,2.896 -0.032,3.527 0.027,0.421 -0.025,1.183 0.287,2.817 0.485,2.48 1.141,3.891 1.297,6 0.079,0.986 0.755,1.672 0.334,2.667 -0.412,1.011 -1.662,1.204 -1.662,1.204"
     id="path314" />
  <path
     style="fill:none;stroke:#231f20;stroke-width:0.565977;stroke-linecap:butt;stroke-linejoin:miter;stroke-miterlimit:4;stroke-dasharray:none;stroke-opacity:1"
     d="m 324.6003,46.469 c -2.218,0.468 -2.713,0.271 -2.969,-0.657 -0.181,-0.61 -0.552,-1.119 -0.676,-1.49 -0.417,-1.229 -0.605,-3.473 0.509,-9.953 0.262,-1.473 0.604,-3.536 0.667,-4.395 0.12,-1.354 2.287,-0.25 2.245,0.28 -0.12,1.72 -0.078,2.896 -0.032,3.527 0.027,0.421 -0.025,1.183 0.287,2.817 0.485,2.48 1.141,3.891 1.297,6 0.079,0.986 0.755,1.672 0.334,2.667 -0.412,1.011 -1.662,1.204 -1.662,1.204 z"
     id="path315" />
  <path
     style="fill:#0098c9;fill-opacity:1;fill-rule:nonzero;stroke:none"
     d="m 323.4503,72.276 c -0.178,-3.126 -0.558,-3.782 -0.97,-4.604 -2.568,-5.183 0.027,-6.344 2.886,-5.984 3.365,0.416 4.578,0.505 4.338,6.796 -0.068,1.745 0.547,8.494 0.547,8.494 0.552,2.382 -0.183,5 -1.344,5.887 -1.219,0.932 -0.801,0.473 -2.088,1.135 -1.224,0.625 -3.407,0.494 -4.145,-0.495 -0.719,-0.948 -0.084,-2.489 0.536,-4.828 0.489,-1.855 0.24,-6.401 0.24,-6.401"
     id="path316" />
  <path
     style="fill:none;stroke:#231f20;stroke-width:0.565977;stroke-linecap:butt;stroke-linejoin:miter;stroke-miterlimit:4;stroke-dasharray:none;stroke-opacity:1"
     d="m 323.4503,72.276 c -0.178,-3.126 -0.558,-3.782 -0.97,-4.604 -2.568,-5.183 0.027,-6.344 2.886,-5.984 3.365,0.416 4.578,0.505 4.338,6.796 -0.068,1.745 0.547,8.494 0.547,8.494 0.552,2.382 -0.183,5 -1.344,5.887 -1.219,0.932 -0.801,0.473 -2.088,1.135 -1.224,0.625 -3.407,0.494 -4.145,-0.495 -0.719,-0.948 -0.084,-2.489 0.536,-4.828 0.489,-1.855 0.24,-6.401 0.24,-6.401 z"
     id="path317" />
  <path
     style="fill:#ffffff;fill-opacity:1;fill-rule:nonzero;stroke:none"
     d="m 327.1683,90.666 c -0.016,0.246 1.083,0.588 0.963,1.104 -0.124,0.511 -0.911,0.527 -2.156,2.079 l -0.011,0.016 c -0.869,1.167 -2.098,1.823 -3.333,1.629 -2.057,-0.312 -3.369,-2.828 -2.943,-5.625 0.434,-2.791 2.443,-4.796 4.495,-4.479 1.964,0.298 3.256,2.626 2.985,5.276"
     id="path318" />
  <path
     style="fill:none;stroke:#231f20;stroke-width:0.565977;stroke-linecap:butt;stroke-linejoin:miter;stroke-miterlimit:4;stroke-dasharray:none;stroke-opacity:1"
     d="m 327.1683,90.666 c -0.016,0.246 1.083,0.588 0.963,1.104 -0.124,0.511 -0.911,0.527 -2.156,2.079 l -0.011,0.016 c -0.869,1.167 -2.098,1.823 -3.333,1.629 -2.057,-0.312 -3.369,-2.828 -2.943,-5.625 0.434,-2.791 2.443,-4.796 4.495,-4.479 1.964,0.298 3.256,2.626 2.985,5.276 z"
     id="path319" />
  <path
     style="fill:#231f20;fill-opacity:1;fill-rule:nonzero;stroke:none"
     d="m 323.5433,44.234 c 3.833,-1.177 3.156,2.85 3.297,3.307 1.479,4.781 1.468,5.167 2.343,8.885 1.267,5.382 1.308,9.262 -1.604,10.912 -1.973,1.12 -3.604,0.912 -4.624,0.084 -1.141,-0.917 -2.417,-3.829 -0.797,-6.224 l 0.062,-1.714 c -0.098,-1.151 -0.146,-1.724 -0.245,-2.291 -0.167,-0.991 -0.292,-2.057 -0.505,-4 -0.391,-3.453 0.333,-7.229 0.333,-7.229 -0.115,-1.24 1.74,-1.73 1.74,-1.73"
     id="path320" />
  <path
     style="fill:none;stroke:#231f20;stroke-width:0.565977;stroke-linecap:butt;stroke-linejoin:miter;stroke-miterlimit:4;stroke-dasharray:none;stroke-opacity:1"
     d="m 323.5433,44.234 c 3.833,-1.177 3.156,2.85 3.297,3.307 1.479,4.781 1.468,5.167 2.343,8.885 1.267,5.382 1.308,9.262 -1.604,10.912 -1.973,1.12 -3.604,0.912 -4.624,0.084 -1.141,-0.917 -2.417,-3.829 -0.797,-6.224 l 0.062,-1.714 c -0.098,-1.151 -0.146,-1.724 -0.245,-2.291 -0.167,-0.991 -0.292,-2.057 -0.505,-4 -0.391,-3.453 0.333,-7.229 0.333,-7.229 -0.115,-1.24 1.74,-1.73 1.74,-1.73 z"
     id="path321" />
  <path
     style="fill:#0098c9;fill-opacity:1;fill-rule:nonzero;stroke:none"
     d="m 330.4443,62.541 c -0.021,-0.067 -0.042,-0.151 -0.057,-0.229 0.068,-0.583 0.12,-1.187 0.135,-1.838 l -7.807,0.286 c -1.995,2.089 -1.219,5.177 -0.251,6.266 0.876,0.984 2.443,1.463 4.584,0.692 1.386,-0.5 2.26,-1.541 2.798,-3 0.561,-0.874 0.885,-1.421 0.598,-2.177"
     id="path322" />
  <path
     style="fill:none;stroke:#231f20;stroke-width:0.565977;stroke-linecap:butt;stroke-linejoin:miter;stroke-miterlimit:4;stroke-dasharray:none;stroke-opacity:1"
     d="m 330.4443,62.541 c -0.021,-0.067 -0.042,-0.151 -0.057,-0.229 0.068,-0.583 0.12,-1.187 0.135,-1.838 l -7.807,0.286 c -1.995,2.089 -1.219,5.177 -0.251,6.266 0.876,0.984 2.443,1.463 4.584,0.692 1.386,-0.5 2.26,-1.541 2.798,-3 0.561,-0.874 0.885,-1.421 0.598,-2.177 z"
     id="path323" />
  <path
     style="fill:#231f20;fill-opacity:1;fill-rule:nonzero;stroke:none"
     d="m 326.1113,101.931 c 0.359,-0.53 0.129,-2.462 0.563,-4.014 0.296,-1.043 -0.115,-3.761 0.26,-4.781 0.338,-0.934 0.406,-1.391 -0.599,-1.959 -0.595,-0.339 -1.953,-0.609 -2.224,-0.172 -0.636,1.005 -0.792,1.937 -0.74,3.005 0.063,1.214 0.511,4.495 0.651,5.088 0.349,1.48 0.037,2.152 0.1,2.552 0.098,0.756 0.41,0.901 0.916,0.943 0.953,0.073 1.073,-0.662 1.073,-0.662"
     id="path324" />
  <path
     style="fill:none;stroke:#231f20;stroke-width:0.565977;stroke-linecap:butt;stroke-linejoin:miter;stroke-miterlimit:4;stroke-dasharray:none;stroke-opacity:1"
     d="m 326.1113,101.931 c 0.359,-0.53 0.129,-2.462 0.563,-4.014 0.296,-1.043 -0.115,-3.761 0.26,-4.781 0.338,-0.934 0.406,-1.391 -0.599,-1.959 -0.595,-0.339 -1.953,-0.609 -2.224,-0.172 -0.636,1.005 -0.792,1.937 -0.74,3.005 0.063,1.214 0.511,4.495 0.651,5.088 0.349,1.48 0.037,2.152 0.1,2.552 0.098,0.756 0.41,0.901 0.916,0.943 0.953,0.073 1.073,-0.662 1.073,-0.662 z"
     id="path325" />
  <path
     style="fill:#231f20;fill-opacity:1;fill-rule:nonzero;stroke:none"
     d="m 326.3083,92.874 c 1.298,-0.114 0.751,-2.077 0.683,-2.614 -0.068,-0.536 -0.073,-2.094 0.073,-3.307 0.146,-1.213 -0.188,-2.792 0.094,-5.104 0.14,-1.219 -0.484,-2.489 -2.256,-2.625 -1.75,-0.135 -2.484,0.802 -2.443,2.297 0.048,1.495 0.72,2.88 0.876,4.385 0.151,1.506 0.167,3.052 0.12,4.266 -0.057,1.38 0.437,2.082 0.864,2.286 1.079,0.511 1.989,0.416 1.989,0.416"
     id="path326" />
  <path
     style="fill:none;stroke:#231f20;stroke-width:0.565977;stroke-linecap:butt;stroke-linejoin:miter;stroke-miterlimit:4;stroke-dasharray:none;stroke-opacity:1"
     d="m 326.3083,92.874 c 1.298,-0.114 0.751,-2.077 0.683,-2.614 -0.068,-0.536 -0.073,-2.094 0.073,-3.307 0.146,-1.213 -0.188,-2.792 0.094,-5.104 0.14,-1.219 -0.484,-2.489 -2.256,-2.625 -1.75,-0.135 -2.484,0.802 -2.443,2.297 0.048,1.495 0.72,2.88 0.876,4.385 0.151,1.506 0.167,3.052 0.12,4.266 -0.057,1.38 0.437,2.082 0.864,2.286 1.079,0.511 1.989,0.416 1.989,0.416 z"
     id="path327" />
  <path
     style="fill:none;stroke:#231f20;stroke-width:0.399514;stroke-linecap:butt;stroke-linejoin:miter;stroke-miterlimit:4;stroke-dasharray:none;stroke-opacity:1"
     d="m 290.1533,53.708 c -25.36,-7.651 -29.844,4.849 -23.615,10.51"
     id="path328" />
  <path
     style="fill:#231f20;fill-opacity:1;fill-rule:nonzero;stroke:none"
     d="m 267.4293,65.032 c -0.563,-0.23 -1.323,-0.434 -1.902,-0.448 l 0.891,-0.47 0.385,-0.937 c 0.068,0.579 0.35,1.317 0.626,1.855"
     id="path329" />
  <path
     style="fill:none;stroke:#231f20;stroke-width:0.399514;stroke-linecap:butt;stroke-linejoin:miter;stroke-miterlimit:4;stroke-dasharray:none;stroke-opacity:1"
     d="M 124.4813,139.901 C 98.560298,134.453 95.741298,100.229 97.700298,93.234"
     id="path330" />
  <path
     style="fill:#231f20;fill-opacity:1;fill-rule:nonzero;stroke:none"
     d="m 98.022298,92.073 c 0.052,0.604 0.21,1.38 0.454,1.901 l -0.818,-0.589 -1.01,0.073 c 0.484,-0.313 1.021,-0.896 1.374,-1.385"
     id="path331" />
  <path
     style="fill:#231f20;fill-opacity:1;fill-rule:nonzero;stroke:none"
     d="m 52.820098,87.202 c -0.2188,-0.561 -0.588,-1.26 -0.9735,-1.692 l 0.9521,0.328 0.9427,-0.36 c -0.3693,0.443 -0.7188,1.152 -0.9213,1.724"
     id="path333" />
  <path
     style="fill:#231f20;fill-opacity:1;fill-rule:nonzero;stroke:none"
     d="m 189.8463,102.338 c -0.563,-0.312 -1.229,-2.14 -2.319,-3.328 -0.734,-0.797 -1.604,-3.401 -2.401,-4.136 -0.724,-0.681 -0.989,-1.062 -0.353,-2.025 0.374,-0.568 1.468,-1.423 1.905,-1.161 1.027,0.609 1.584,1.369 2.027,2.344 0.494,1.109 1.578,4.238 1.724,4.833 0.364,1.484 0.942,1.932 1.073,2.317 0.249,0.719 0.036,0.989 -0.396,1.26 -0.817,0.489 -1.26,-0.104 -1.26,-0.104"
     id="path334" />
  <path
     style="fill:none;stroke:#231f20;stroke-width:0.565977;stroke-linecap:butt;stroke-linejoin:miter;stroke-miterlimit:4;stroke-dasharray:none;stroke-opacity:1"
     d="m 189.8463,102.338 c -0.563,-0.312 -1.229,-2.14 -2.319,-3.328 -0.734,-0.797 -1.604,-3.401 -2.401,-4.136 -0.724,-0.681 -0.989,-1.062 -0.353,-2.025 0.374,-0.568 1.468,-1.423 1.905,-1.161 1.027,0.609 1.584,1.369 2.027,2.344 0.494,1.109 1.578,4.238 1.724,4.833 0.364,1.484 0.942,1.932 1.073,2.317 0.249,0.719 0.036,0.989 -0.396,1.26 -0.817,0.489 -1.26,-0.104 -1.26,-0.104 z"
     id="path335" />
  <path
     style="fill:#231f20;fill-opacity:1;fill-rule:nonzero;stroke:none"
     d="m 185.7353,94.084 c -1.166,0.566 -1.702,-1.396 -1.921,-1.886 -0.224,-0.5 -1.021,-1.844 -1.765,-2.802 -0.756,-0.97 -1.276,-2.495 -2.708,-4.334 -0.751,-0.969 -0.871,-2.38 0.582,-3.412 1.432,-1.009 2.536,-0.588 3.271,0.719 0.735,1.308 0.865,2.839 1.511,4.209 0.645,1.364 1.432,2.698 2.093,3.714 0.756,1.156 0.699,2.01 0.433,2.406 -0.666,0.995 -1.496,1.386 -1.496,1.386"
     id="path336" />
  <path
     style="fill:none;stroke:#231f20;stroke-width:0.565977;stroke-linecap:butt;stroke-linejoin:miter;stroke-miterlimit:4;stroke-dasharray:none;stroke-opacity:1"
     d="m 185.7353,94.084 c -1.166,0.566 -1.702,-1.396 -1.921,-1.886 -0.224,-0.5 -1.021,-1.844 -1.765,-2.802 -0.756,-0.97 -1.276,-2.495 -2.708,-4.334 -0.751,-0.969 -0.871,-2.38 0.582,-3.412 1.432,-1.009 2.536,-0.588 3.271,0.719 0.735,1.308 0.865,2.839 1.511,4.209 0.645,1.364 1.432,2.698 2.093,3.714 0.756,1.156 0.699,2.01 0.433,2.406 -0.666,0.995 -1.496,1.386 -1.496,1.386 z"
     id="path337" />
  <path
     style="fill:#231f20;fill-opacity:1;fill-rule:nonzero;stroke:none"
     d="m 207.5273,90.016 c -0.516,-0.396 -0.901,-2.308 -1.796,-3.636 -0.609,-0.902 -1.078,-3.604 -1.756,-4.459 -0.614,-0.776 -0.817,-1.192 -0.046,-2.047 0.453,-0.505 1.661,-1.186 2.062,-0.864 0.916,0.75 1.354,1.594 1.646,2.62 0.322,1.172 0.928,4.427 0.98,5.036 0.14,1.522 0.645,2.052 0.718,2.454 0.14,0.749 -0.114,0.984 -0.578,1.182 -0.886,0.37 -1.23,-0.286 -1.23,-0.286"
     id="path338" />
  <path
     style="fill:none;stroke:#231f20;stroke-width:0.565977;stroke-linecap:butt;stroke-linejoin:miter;stroke-miterlimit:4;stroke-dasharray:none;stroke-opacity:1"
     d="m 207.5273,90.016 c -0.516,-0.396 -0.901,-2.308 -1.796,-3.636 -0.609,-0.902 -1.078,-3.604 -1.756,-4.459 -0.614,-0.776 -0.817,-1.192 -0.046,-2.047 0.453,-0.505 1.661,-1.186 2.062,-0.864 0.916,0.75 1.354,1.594 1.646,2.62 0.322,1.172 0.928,4.427 0.98,5.036 0.14,1.522 0.645,2.052 0.718,2.454 0.14,0.749 -0.114,0.984 -0.578,1.182 -0.886,0.37 -1.23,-0.286 -1.23,-0.286 z"
     id="path339" />
  <path
     style="fill:#231f20;fill-opacity:1;fill-rule:nonzero;stroke:none"
     d="m 205.6783,81.453 c -0.385,1.24 -2.187,0.287 -2.697,0.109 -0.516,-0.182 -2.036,-0.521 -3.25,-0.641 -1.218,-0.113 -2.688,-0.78 -5.01,-1 -1.214,-0.119 -2.328,-0.995 -2.079,-2.76 0.245,-1.739 1.308,-2.255 2.765,-1.896 1.448,0.371 2.658,1.323 4.1,1.792 1.432,0.464 2.943,0.808 4.14,1.027 1.36,0.244 1.938,0.869 2.047,1.333 0.265,1.167 -0.016,2.036 -0.016,2.036"
     id="path340" />
  <path
     style="fill:none;stroke:#231f20;stroke-width:0.565977;stroke-linecap:butt;stroke-linejoin:miter;stroke-miterlimit:4;stroke-dasharray:none;stroke-opacity:1"
     d="m 205.6783,81.453 c -0.385,1.24 -2.187,0.287 -2.697,0.109 -0.516,-0.182 -2.036,-0.521 -3.25,-0.641 -1.218,-0.113 -2.688,-0.78 -5.01,-1 -1.214,-0.119 -2.328,-0.995 -2.079,-2.76 0.245,-1.739 1.308,-2.255 2.765,-1.896 1.448,0.371 2.658,1.323 4.1,1.792 1.432,0.464 2.943,0.808 4.14,1.027 1.36,0.244 1.938,0.869 2.047,1.333 0.265,1.167 -0.016,2.036 -0.016,2.036 z"
     id="path341" />
  <path
     style="fill:#231f20;fill-opacity:1;fill-rule:nonzero;stroke:none"
     d="m 210.3503,95.526 c 0.109,-0.718 -0.525,-3.906 -0.703,-4.625 -0.15,-0.651 -0.062,-1.803 -1.192,-2.036 -0.458,-0.1 -1.193,0.083 -1.474,0.239 -0.224,0.125 -0.25,0.453 -0.12,0.828 0.218,0.63 0.521,0.724 1.005,1.906 0,0 0.156,0.266 0.469,0.719 0.916,1.349 0.64,0.672 1.536,2.917 0.058,0.162 0.266,0.214 0.37,0.167 0.157,-0.084 0.109,-0.115 0.109,-0.115"
     id="path342" />
  <path
     style="fill:none;stroke:#231f20;stroke-width:0.565977;stroke-linecap:round;stroke-linejoin:round;stroke-miterlimit:4;stroke-dasharray:none;stroke-opacity:1"
     d="m 210.3503,95.526 c 0.109,-0.718 -0.525,-3.906 -0.703,-4.625 -0.15,-0.651 -0.062,-1.803 -1.192,-2.036 -0.458,-0.1 -1.193,0.083 -1.474,0.239 -0.224,0.125 -0.25,0.453 -0.12,0.828 0.218,0.63 0.521,0.724 1.005,1.906 0,0 0.156,0.266 0.469,0.719 0.916,1.349 0.64,0.672 1.536,2.917 0.058,0.162 0.266,0.214 0.37,0.167 0.157,-0.084 0.109,-0.115 0.109,-0.115 z"
     id="path343" />
  <path
     style="fill:#231f20;fill-opacity:1;fill-rule:nonzero;stroke:none"
     d="m 276.5133,49.958 c -2.058,0.954 -2.584,0.864 -3.043,0.02 -0.307,-0.556 -0.781,-0.973 -0.984,-1.306 -0.677,-1.11 -1.355,-3.25 -1.697,-9.818 -0.074,-1.494 -0.194,-3.589 -0.324,-4.437 -0.176,-1.344 2.182,-0.745 2.256,-0.219 0.26,1.698 0.562,2.838 0.744,3.443 0.12,0.411 0.234,1.156 0.906,2.681 1.016,2.319 1.964,3.547 2.584,5.574 0.291,0.942 1.11,1.464 0.916,2.526 -0.182,1.072 -1.358,1.536 -1.358,1.536"
     id="path344" />
  <path
     style="fill:none;stroke:#231f20;stroke-width:0.565977;stroke-linecap:butt;stroke-linejoin:miter;stroke-miterlimit:4;stroke-dasharray:none;stroke-opacity:1"
     d="m 276.5133,49.958 c -2.058,0.954 -2.584,0.864 -3.043,0.02 -0.307,-0.556 -0.781,-0.973 -0.984,-1.306 -0.677,-1.11 -1.355,-3.25 -1.697,-9.818 -0.074,-1.494 -0.194,-3.589 -0.324,-4.437 -0.176,-1.344 2.182,-0.745 2.256,-0.219 0.26,1.698 0.562,2.838 0.744,3.443 0.12,0.411 0.234,1.156 0.906,2.681 1.016,2.319 1.964,3.547 2.584,5.574 0.291,0.942 1.11,1.464 0.916,2.526 -0.182,1.072 -1.358,1.536 -1.358,1.536 z"
     id="path345" />
  <path
     style="fill:#231f20;fill-opacity:1;fill-rule:nonzero;stroke:none"
     d="m 274.9863,48.016 c 3.484,-1.995 3.708,2.082 3.948,2.5 2.5,4.338 2.573,4.713 4.245,8.145 2.427,4.975 3.323,8.745 0.843,11 -1.681,1.527 -3.312,1.683 -4.495,1.104 -1.312,-0.645 -3.197,-3.203 -2.145,-5.896 l -0.323,-1.687 c -0.349,-1.104 -0.521,-1.65 -0.74,-2.182 -0.38,-0.927 -0.734,-1.943 -1.374,-3.792 -1.142,-3.282 -1.271,-7.119 -1.271,-7.119 -0.385,-1.188 1.312,-2.073 1.312,-2.073"
     id="path346" />
  <path
     style="fill:none;stroke:#231f20;stroke-width:0.565977;stroke-linecap:butt;stroke-linejoin:miter;stroke-miterlimit:4;stroke-dasharray:none;stroke-opacity:1"
     d="m 274.9863,48.016 c 3.484,-1.995 3.708,2.082 3.948,2.5 2.5,4.338 2.573,4.713 4.245,8.145 2.427,4.975 3.323,8.745 0.843,11 -1.681,1.527 -3.312,1.683 -4.495,1.104 -1.312,-0.645 -3.197,-3.203 -2.145,-5.896 l -0.323,-1.687 c -0.349,-1.104 -0.521,-1.65 -0.74,-2.182 -0.38,-0.927 -0.734,-1.943 -1.374,-3.792 -1.142,-3.282 -1.271,-7.119 -1.271,-7.119 -0.385,-1.188 1.312,-2.073 1.312,-2.073 z"
     id="path347" />
  <path
     style="fill:#231f20;fill-opacity:1;fill-rule:nonzero;stroke:none"
     d="m 285.2983,63.822 c -0.047,-0.057 -0.093,-0.124 -0.135,-0.192 -0.141,-0.568 -0.302,-1.152 -0.516,-1.77 l -7.218,2.989 c -1.14,2.656 0.666,5.276 1.953,5.959 1.167,0.618 2.801,0.52 4.536,-0.948 1.125,-0.954 1.584,-2.235 1.573,-3.787 0.224,-1.016 0.334,-1.641 -0.193,-2.251"
     id="path348" />
  <path
     style="fill:none;stroke:#231f20;stroke-width:0.565977;stroke-linecap:butt;stroke-linejoin:miter;stroke-miterlimit:4;stroke-dasharray:none;stroke-opacity:1"
     d="m 285.2983,63.822 c -0.047,-0.057 -0.093,-0.124 -0.135,-0.192 -0.141,-0.568 -0.302,-1.152 -0.516,-1.77 l -7.218,2.989 c -1.14,2.656 0.666,5.276 1.953,5.959 1.167,0.618 2.801,0.52 4.536,-0.948 1.125,-0.954 1.584,-2.235 1.573,-3.787 0.224,-1.016 0.334,-1.641 -0.193,-2.251 z"
     id="path349" />
  <path
     style="fill:#231f20;fill-opacity:1;fill-rule:nonzero;stroke:none"
     d="m 269.3823,32.614 c -0.781,1.104 -0.224,1.927 0.771,2.214 0.292,0.089 0.464,0.469 0.754,0.532 0.699,0.134 2.11,-0.882 1.558,-2.282 -0.031,-0.094 -0.088,-0.912 -0.23,-1.516 -0.276,-1.188 -1.389,-3.417 -3.952,-4.25 -1.218,-0.395 -1.224,0.396 -0.781,0.709 1.4,0.968 1.339,1.339 1.615,1.724 0.937,1.328 0.265,2.869 0.265,2.869"
     id="path350" />
  <path
     style="fill:none;stroke:#231f20;stroke-width:0.332927;stroke-linecap:butt;stroke-linejoin:miter;stroke-miterlimit:4;stroke-dasharray:none;stroke-opacity:1"
     d="m 269.3823,32.614 c -0.781,1.104 -0.224,1.927 0.771,2.214 0.292,0.089 0.464,0.469 0.754,0.532 0.699,0.134 2.11,-0.882 1.558,-2.282 -0.031,-0.094 -0.088,-0.912 -0.23,-1.516 -0.276,-1.188 -1.389,-3.417 -3.952,-4.25 -1.218,-0.395 -1.224,0.396 -0.781,0.709 1.4,0.968 1.339,1.339 1.615,1.724 0.937,1.328 0.265,2.869 0.265,2.869 z"
     id="path351" />
  <path
     style="fill:#231f20;fill-opacity:1;fill-rule:nonzero;stroke:none"
     d="m 306.3403,92.708 c -0.272,-0.583 -2.048,-1.38 -3.152,-2.552 -0.744,-0.791 -3.281,-1.844 -3.962,-2.687 -0.626,-0.771 -0.986,-1.068 -1.991,-0.5 -0.593,0.333 -1.525,1.359 -1.296,1.817 0.536,1.063 1.255,1.678 2.197,2.183 1.074,0.572 4.115,1.88 4.699,2.067 1.448,0.469 1.859,1.078 2.233,1.234 0.699,0.308 0.986,0.11 1.282,-0.301 0.552,-0.776 -0.01,-1.261 -0.01,-1.261"
     id="path352" />
  <path
     style="fill:none;stroke:#231f20;stroke-width:0.565977;stroke-linecap:butt;stroke-linejoin:miter;stroke-miterlimit:4;stroke-dasharray:none;stroke-opacity:1"
     d="m 306.3403,92.708 c -0.272,-0.583 -2.048,-1.38 -3.152,-2.552 -0.744,-0.791 -3.281,-1.844 -3.962,-2.687 -0.626,-0.771 -0.986,-1.068 -1.991,-0.5 -0.593,0.333 -1.525,1.359 -1.296,1.817 0.536,1.063 1.255,1.678 2.197,2.183 1.074,0.572 4.115,1.88 4.699,2.067 1.448,0.469 1.859,1.078 2.233,1.234 0.699,0.308 0.986,0.11 1.282,-0.301 0.552,-0.776 -0.01,-1.261 -0.01,-1.261 z"
     id="path353" />
  <path
     style="fill:#231f20;fill-opacity:1;fill-rule:nonzero;stroke:none"
     d="m 298.6833,87.865 c 0.568,-1.167 -1.4,-1.709 -1.89,-1.928 -0.495,-0.224 -1.834,-1.02 -2.796,-1.771 -0.964,-0.754 -2.49,-1.281 -4.323,-2.713 -0.969,-0.751 -2.385,-0.875 -3.412,0.579 -1.021,1.426 -0.599,2.536 0.708,3.276 1.303,0.728 2.839,0.864 4.204,1.514 1.369,0.647 2.703,1.432 3.719,2.099 1.156,0.756 2.009,0.699 2.405,0.439 0.994,-0.667 1.385,-1.495 1.385,-1.495"
     id="path354" />
  <path
     style="fill:none;stroke:#231f20;stroke-width:0.565977;stroke-linecap:butt;stroke-linejoin:miter;stroke-miterlimit:4;stroke-dasharray:none;stroke-opacity:1"
     d="m 298.6833,87.865 c 0.568,-1.167 -1.4,-1.709 -1.89,-1.928 -0.495,-0.224 -1.834,-1.02 -2.796,-1.771 -0.964,-0.754 -2.49,-1.281 -4.323,-2.713 -0.969,-0.751 -2.385,-0.875 -3.412,0.579 -1.021,1.426 -0.599,2.536 0.708,3.276 1.303,0.728 2.839,0.864 4.204,1.514 1.369,0.647 2.703,1.432 3.719,2.099 1.156,0.756 2.009,0.699 2.405,0.439 0.994,-0.667 1.385,-1.495 1.385,-1.495 z"
     id="path355" />
  <path
     style="fill:#231f20;fill-opacity:1;fill-rule:nonzero;stroke:none"
     d="m 311.6063,95.756 c -0.432,-0.59 -3.147,-2.376 -3.782,-2.756 -0.573,-0.344 -1.328,-1.224 -2.286,-0.583 -0.396,0.255 -0.782,0.905 -0.87,1.213 -0.068,0.255 0.146,0.5 0.506,0.672 0.604,0.286 0.885,0.14 2.061,0.624 0,0 0.297,0.074 0.844,0.167 1.604,0.297 0.928,0.021 3.152,0.964 0.156,0.073 0.337,-0.041 0.38,-0.145 0.052,-0.172 -0.005,-0.156 -0.005,-0.156"
     id="path356" />
  <path
     style="fill:none;stroke:#231f20;stroke-width:0.565977;stroke-linecap:round;stroke-linejoin:round;stroke-miterlimit:4;stroke-dasharray:none;stroke-opacity:1"
     d="m 311.6063,95.756 c -0.432,-0.59 -3.147,-2.376 -3.782,-2.756 -0.573,-0.344 -1.328,-1.224 -2.286,-0.583 -0.396,0.255 -0.782,0.905 -0.87,1.213 -0.068,0.255 0.146,0.5 0.506,0.672 0.604,0.286 0.885,0.14 2.061,0.624 0,0 0.297,0.074 0.844,0.167 1.604,0.297 0.928,0.021 3.152,0.964 0.156,0.073 0.337,-0.041 0.38,-0.145 0.052,-0.172 -0.005,-0.156 -0.005,-0.156 z"
     id="path357" />
</svg>
