<?xml version="1.0" encoding="UTF-8" standalone="no"?>
<!-- Created with Inkscape (http://www.inkscape.org/) -->

<svg
   version="1.1"
   id="svg1"
   width="338.98483"
   height="99.615601"
   viewBox="0 0 338.98482 99.615602"
   sodipodi:docname="cell.svg"
   xmlns:inkscape="http://www.inkscape.org/namespaces/inkscape"
   xmlns:sodipodi="http://sodipodi.sourceforge.net/DTD/sodipodi-0.dtd"
   xmlns="http://www.w3.org/2000/svg"
   xmlns:svg="http://www.w3.org/2000/svg">
  <sodipodi:namedview
     id="namedview1"
     pagecolor="#ffffff"
     bordercolor="#000000"
     borderopacity="0.25"
     inkscape:showpageshadow="2"
     inkscape:pageopacity="0.0"
     inkscape:pagecheckerboard="0"
     inkscape:deskcolor="#d1d1d1">
    <inkscape:page
       x="0"
       y="0"
       inkscape:label="1"
       id="page1"
       width="338.98483"
       height="99.615601"
       margin="0"
       bleed="0" />
  </sodipodi:namedview>
  <defs
     id="defs1" />
  <path
     style="fill:#231f20;fill-opacity:1;fill-rule:nonzero;stroke:none"
     d="m 192.23081,28.301679 c 0.662,-0.1 1.583,1.448 3.459,2.0524 0.385,0.125 0.635,0.41 0.921,0.64 1.178,0.948 1.719,2.453 -2.104,2.245 -0.526,-0.032 -2.39,-1.005 -3.177,-0.989 -1.859,0.052 -4.172,-2.339 -3.885,-2.7764 0.589,-0.9533 4.786,-1.172 4.786,-1.172"
     id="path4" />
  <path
     style="fill:none;stroke:#231f20;stroke-width:0.644548;stroke-linecap:round;stroke-linejoin:round;stroke-miterlimit:4;stroke-dasharray:none;stroke-opacity:1"
     d="m 192.23081,28.301679 c 0.662,-0.1 1.583,1.448 3.459,2.0524 0.385,0.125 0.635,0.41 0.921,0.64 1.178,0.948 1.719,2.453 -2.104,2.245 -0.526,-0.032 -2.39,-1.005 -3.177,-0.989 -1.859,0.052 -4.172,-2.339 -3.885,-2.7764 0.589,-0.9533 4.786,-1.172 4.786,-1.172 z"
     id="path5" />
  <path
     style="fill:#231f20;fill-opacity:1;fill-rule:nonzero;stroke:none"
     d="m 208.20481,37.755079 c -1.271,0.755 -2.515,2.031 -7.671,-1.792 -2.095,-1.552 -7.407,-3.079 -6.933,-4.115 1.302,-2.797 8.177,-1.182 9.489,-1.609 1.631,-0.5267 5.917,1.468 6.625,2.76 1.656,3.021 -1.51,4.756 -1.51,4.756"
     id="path6" />
  <path
     style="fill:none;stroke:#231f20;stroke-width:0.31961;stroke-linecap:butt;stroke-linejoin:miter;stroke-miterlimit:4;stroke-dasharray:none;stroke-opacity:1"
     d="m 208.20481,37.755079 c -1.271,0.755 -2.515,2.031 -7.671,-1.792 -2.095,-1.552 -7.407,-3.079 -6.933,-4.115 1.302,-2.797 8.177,-1.182 9.489,-1.609 1.631,-0.5267 5.917,1.468 6.625,2.76 1.656,3.021 -1.51,4.756 -1.51,4.756 z"
     id="path7" />
  <path
     style="fill:#ffffff;fill-opacity:1;fill-rule:nonzero;stroke:none"
     d="m 271.99681,37.259079 c 1.412,-1.771 1.928,-1.927 2.713,-1.375 0.527,0.366 1.136,0.516 1.464,0.73 1.099,0.688 2.667,2.297 5.907,8.032 0.733,1.296 1.776,3.113 2.265,3.828 0.765,1.118 -1.615,1.629 -1.917,1.192 -0.99,-1.402 -1.776,-2.282 -2.203,-2.74 -0.287,-0.318 -0.729,-0.938 -2.005,-2.004 -1.948,-1.615 -3.35,-2.292 -4.807,-3.824 -0.683,-0.714 -1.641,-0.818 -1.943,-1.859 -0.324,-1.037 0.526,-1.98 0.526,-1.98"
     id="path8" />
  <path
     style="fill:none;stroke:#231f20;stroke-width:0.565977;stroke-linecap:butt;stroke-linejoin:miter;stroke-miterlimit:4;stroke-dasharray:none;stroke-opacity:1"
     d="m 271.99681,37.259079 c 1.412,-1.771 1.928,-1.927 2.713,-1.375 0.527,0.366 1.136,0.516 1.464,0.73 1.099,0.688 2.667,2.297 5.907,8.032 0.733,1.296 1.776,3.113 2.265,3.828 0.765,1.118 -1.615,1.629 -1.917,1.192 -0.99,-1.402 -1.776,-2.282 -2.203,-2.74 -0.287,-0.318 -0.729,-0.938 -2.005,-2.004 -1.948,-1.615 -3.35,-2.292 -4.807,-3.824 -0.683,-0.714 -1.641,-0.818 -1.943,-1.859 -0.324,-1.037 0.526,-1.98 0.526,-1.98 z"
     id="path9" />
  <path
     style="fill:#ffffff;fill-opacity:1;fill-rule:nonzero;stroke:none"
     d="m 274.22581,38.316079 c -2.224,3.339 -4.245,-0.208 -4.645,-0.468 -4.178,-2.765 -4.407,-3.073 -7.443,-5.396 -4.385,-3.3637 -6.871,-6.3437 -5.667,-9.469 0.823,-2.1147 2.219,-2.984 3.531,-2.9947 1.459,-0.0053 4.292,1.4374 4.557,4.3187 l 1.032,1.364 c 0.812,0.8333 1.208,1.2453 1.646,1.6253 0.754,0.6613 1.525,1.4067 2.926,2.7757 2.484,2.427 4.318,5.802 4.318,5.802 0.876,0.89 -0.255,2.442 -0.255,2.442"
     id="path10" />
  <path
     style="fill:none;stroke:#231f20;stroke-width:0.565977;stroke-linecap:butt;stroke-linejoin:miter;stroke-miterlimit:4;stroke-dasharray:none;stroke-opacity:1"
     d="m 274.22581,38.316079 c -2.224,3.339 -4.245,-0.208 -4.645,-0.468 -4.178,-2.765 -4.407,-3.073 -7.443,-5.396 -4.385,-3.3637 -6.871,-6.3437 -5.667,-9.469 0.823,-2.1147 2.219,-2.984 3.531,-2.9947 1.459,-0.0053 4.292,1.4374 4.557,4.3187 l 1.032,1.364 c 0.812,0.8333 1.208,1.2453 1.646,1.6253 0.754,0.6613 1.525,1.4067 2.926,2.7757 2.484,2.427 4.318,5.802 4.318,5.802 0.876,0.89 -0.255,2.442 -0.255,2.442 z"
     id="path11" />
  <path
     style="fill:#231f20;fill-opacity:1;fill-rule:nonzero;stroke:none"
     d="m 286.12181,49.592079 c 0.208,-1.333 -0.656,-1.828 -1.677,-1.634 -0.302,0.052 -0.62,-0.214 -0.911,-0.136 -0.677,0.188 -1.496,1.729 -0.381,2.734 0.078,0.068 0.494,0.776 0.89,1.256 0.771,0.943 2.767,2.438 5.434,2.031 1.265,-0.183 0.916,-0.896 0.39,-0.975 -1.704,-0.249 -1.802,-0.598 -2.22,-0.828 -1.432,-0.765 -1.525,-2.448 -1.525,-2.448"
     id="path12" />
  <path
     style="fill:none;stroke:#231f20;stroke-width:0.332927;stroke-linecap:butt;stroke-linejoin:miter;stroke-miterlimit:4;stroke-dasharray:none;stroke-opacity:1"
     d="m 286.12181,49.592079 c 0.208,-1.333 -0.656,-1.828 -1.677,-1.634 -0.302,0.052 -0.62,-0.214 -0.911,-0.136 -0.677,0.188 -1.496,1.729 -0.381,2.734 0.078,0.068 0.494,0.776 0.89,1.256 0.771,0.943 2.767,2.438 5.434,2.031 1.265,-0.183 0.916,-0.896 0.39,-0.975 -1.704,-0.249 -1.802,-0.598 -2.22,-0.828 -1.432,-0.765 -1.525,-2.448 -1.525,-2.448 z"
     id="path13" />
  <path
     style="fill:#231f20;fill-opacity:1;fill-rule:nonzero;stroke:none"
     d="m 5.3984071,82.764079 c 1.1718,0.672 1.9374,0.048 2.1306,-0.973 0.0574,-0.308 0.4162,-0.505 0.448,-0.808 0.0719,-0.703 -1.0786,-2.015 -2.412,-1.333 -0.0933,0.048 -0.9068,0.182 -1.4948,0.381 -1.1505,0.385 -3.26509997,1.708 -3.84369997,4.343 -0.2813,1.245 0.5104,1.177 0.7708,0.709 0.84369997,-1.495 1.20769997,-1.464 1.56769997,-1.776 1.2291,-1.063 2.8334,-0.543 2.8334,-0.543"
     id="path14" />
  <path
     style="fill:none;stroke:#231f20;stroke-width:0.332927;stroke-linecap:butt;stroke-linejoin:miter;stroke-miterlimit:4;stroke-dasharray:none;stroke-opacity:1"
     d="m 5.3984071,82.764079 c 1.1718,0.672 1.9374,0.048 2.1306,-0.973 0.0574,-0.308 0.4162,-0.505 0.448,-0.808 0.0719,-0.703 -1.0786,-2.015 -2.412,-1.333 -0.0933,0.048 -0.9068,0.182 -1.4948,0.381 -1.1505,0.385 -3.26509997,1.708 -3.84369997,4.343 -0.2813,1.245 0.5104,1.177 0.7708,0.709 0.84369997,-1.495 1.20769997,-1.464 1.56769997,-1.776 1.2291,-1.063 2.8334,-0.543 2.8334,-0.543 z"
     id="path15" />
  <path
     style="fill:#231f20;fill-opacity:1;fill-rule:nonzero;stroke:none"
     d="m 21.977007,74.004079 c 1.14,1.954 1.1041,2.49 0.3067,3.027 -0.5266,0.359 -0.8906,0.875 -1.2026,1.109 -1.0374,0.776 -3.1041,1.656 -9.6146,2.63 -1.4800999,0.218 -3.5467999,0.537 -4.3852999,0.745 -1.3188,0.307 -0.948,-2.099 -0.4282,-2.224 1.6615,-0.423 2.7667,-0.833 3.3494999,-1.068 0.3959,-0.161 1.1359,-0.349 2.5891,-1.156 2.2082,-1.24 3.3426,-2.308 5.2963,-3.115 0.9062,-0.38 1.349,-1.24 2.4266,-1.15 1.0838,0.077 1.6625,1.202 1.6625,1.202"
     id="path16" />
  <path
     style="fill:none;stroke:#231f20;stroke-width:0.565977;stroke-linecap:butt;stroke-linejoin:miter;stroke-miterlimit:4;stroke-dasharray:none;stroke-opacity:1"
     d="m 21.977007,74.004079 c 1.14,1.954 1.1041,2.49 0.3067,3.027 -0.5266,0.359 -0.8906,0.875 -1.2026,1.109 -1.0374,0.776 -3.1041,1.656 -9.6146,2.63 -1.4800999,0.218 -3.5467999,0.537 -4.3852999,0.745 -1.3188,0.307 -0.948,-2.099 -0.4282,-2.224 1.6615,-0.423 2.7667,-0.833 3.3494999,-1.068 0.3959,-0.161 1.1359,-0.349 2.5891,-1.156 2.2082,-1.24 3.3426,-2.308 5.2963,-3.115 0.9062,-0.38 1.349,-1.24 2.4266,-1.15 1.0838,0.077 1.6625,1.202 1.6625,1.202 z"
     id="path17" />
  <path
     style="fill:#0098c9;fill-opacity:1;fill-rule:nonzero;stroke:none"
     d="m 42.523707,58.922079 c -0.4374,3.098 -0.1932,3.812 0.0464,4.708 1.5,5.577 -1.2651,6.213 -3.9999,5.296 -3.2188,-1.067 -4.3907,-1.391 -2.9266,-7.51 0.411,-1.704 1.1239,-8.437 1.1239,-8.437 -0.0667,-2.448 1.1719,-4.871 2.4803,-5.511 1.3796,-0.677 0.8796,-0.308 2.2702,-0.698 1.3229,-0.38 3.4375,0.177 3.9735,1.292 0.5109,1.068 -0.4104,2.458 -1.4787,4.636 -0.8385,1.713 -1.4891,6.224 -1.4891,6.224"
     id="path18" />
  <path
     style="fill:none;stroke:#231f20;stroke-width:0.565977;stroke-linecap:butt;stroke-linejoin:miter;stroke-miterlimit:4;stroke-dasharray:none;stroke-opacity:1"
     d="m 42.523707,58.922079 c -0.4374,3.098 -0.1932,3.812 0.0464,4.708 1.5,5.577 -1.2651,6.213 -3.9999,5.296 -3.2188,-1.067 -4.3907,-1.391 -2.9266,-7.51 0.411,-1.704 1.1239,-8.437 1.1239,-8.437 -0.0667,-2.448 1.1719,-4.871 2.4803,-5.511 1.3796,-0.677 0.8796,-0.308 2.2702,-0.698 1.3229,-0.38 3.4375,0.177 3.9735,1.292 0.5109,1.068 -0.4104,2.458 -1.4787,4.636 -0.8385,1.713 -1.4891,6.224 -1.4891,6.224 z"
     id="path19" />
  <path
     style="fill:#ffffff;fill-opacity:1;fill-rule:nonzero;stroke:none"
     d="m 39.512807,40.958079 c -0.0265,-0.246 -1.1557,-0.427 -1.1145,-0.948 0.0468,-0.527 0.8229,-0.656 1.8229,-2.375 l 0.0104,-0.021 c 0.6932,-1.282 1.8025,-2.115 3.0572,-2.104 2.0787,0.005 3.7495,2.302 3.7349,5.125 -0.0109,2.828 -1.7041,5.109 -3.7812,5.099 -1.9843,-0.006 -3.6042,-2.115 -3.7297,-4.776"
     id="path20" />
  <path
     style="fill:none;stroke:#231f20;stroke-width:0.565977;stroke-linecap:butt;stroke-linejoin:miter;stroke-miterlimit:4;stroke-dasharray:none;stroke-opacity:1"
     d="m 39.512807,40.958079 c -0.0265,-0.246 -1.1557,-0.427 -1.1145,-0.948 0.0468,-0.527 0.8229,-0.656 1.8229,-2.375 l 0.0104,-0.021 c 0.6932,-1.282 1.8025,-2.115 3.0572,-2.104 2.0787,0.005 3.7495,2.302 3.7349,5.125 -0.0109,2.828 -1.7041,5.109 -3.7812,5.099 -1.9843,-0.006 -3.6042,-2.115 -3.7297,-4.776 z"
     id="path21" />
  <path
     style="fill:#231f20;fill-opacity:1;fill-rule:nonzero;stroke:none"
     d="m 20.184707,75.707079 c -2.313,-3.276 1.7188,-3.885 2.1094,-4.167 4.0776,-2.91 4.4485,-3.014 7.7083,-5.009 4.7079,-2.891 8.3855,-4.147 10.8651,-1.896 1.6813,1.531 1.9896,3.14 1.5256,4.375 -0.5162,1.36 -2.8751,3.489 -5.6615,2.702 l -1.6453,0.47 c -1.0625,0.464 -1.5948,0.682 -2.1052,0.953 -0.8855,0.473 -1.8641,0.921 -3.6401,1.733 -3.1563,1.454 -6.9693,1.954 -6.9693,1.954 -1.14,0.494 -2.187,-1.115 -2.187,-1.115"
     id="path22" />
  <path
     style="fill:none;stroke:#231f20;stroke-width:0.565977;stroke-linecap:butt;stroke-linejoin:miter;stroke-miterlimit:4;stroke-dasharray:none;stroke-opacity:1"
     d="m 20.184707,75.707079 c -2.313,-3.276 1.7188,-3.885 2.1094,-4.167 4.0776,-2.91 4.4485,-3.014 7.7083,-5.009 4.7079,-2.891 8.3855,-4.147 10.8651,-1.896 1.6813,1.531 1.9896,3.14 1.5256,4.375 -0.5162,1.36 -2.8751,3.489 -5.6615,2.702 l -1.6453,0.47 c -1.0625,0.464 -1.5948,0.682 -2.1052,0.953 -0.8855,0.473 -1.8641,0.921 -3.6401,1.733 -3.1563,1.454 -6.9693,1.954 -6.9693,1.954 -1.14,0.494 -2.187,-1.115 -2.187,-1.115 z"
     id="path23" />
  <path
     style="fill:#0098c9;fill-opacity:1;fill-rule:nonzero;stroke:none"
     d="m 41.393107,65.031079 c -1.636,-2.084 -4.3693,-2.125 -7.9693,-1.037 l 2.7145,7.322 c 2.6147,1.24 5.2958,-0.462 6.0308,-1.724 0.6666,-1.14 0.6306,-2.776 -0.776,-4.561"
     id="path24" />
  <path
     style="fill:none;stroke:#231f20;stroke-width:0.565977;stroke-linecap:butt;stroke-linejoin:miter;stroke-miterlimit:4;stroke-dasharray:none;stroke-opacity:1"
     d="m 41.393107,65.031079 c -1.636,-2.084 -4.3693,-2.125 -7.9693,-1.037 l 2.7145,7.322 c 2.6147,1.24 5.2958,-0.462 6.0308,-1.724 0.6666,-1.14 0.6306,-2.776 -0.776,-4.561 z"
     id="path25" />
  <path
     style="fill:#231f20;fill-opacity:1;fill-rule:nonzero;stroke:none"
     d="m 47.788807,29.786079 c -0.5052,0.401 -0.864,2.317 -1.7452,3.661 -0.5933,0.907 -1.0308,3.62 -1.6923,4.479 -0.5984,0.792 -0.8025,1.209 -0.0208,2.053 0.4635,0.5 1.6823,1.167 2.073,0.833 0.9109,-0.766 1.339,-1.61 1.6093,-2.641 0.3068,-1.177 0.8641,-4.443 0.9161,-5.052 0.1094,-1.521 0.6094,-2.063 0.6771,-2.464 0.1308,-0.744 -0.1249,-0.984 -0.588,-1.172 -0.8907,-0.3534 -1.2292,0.303 -1.2292,0.303"
     id="path26" />
  <path
     style="fill:none;stroke:#231f20;stroke-width:0.565977;stroke-linecap:butt;stroke-linejoin:miter;stroke-miterlimit:4;stroke-dasharray:none;stroke-opacity:1"
     d="m 47.788807,29.786079 c -0.5052,0.401 -0.864,2.317 -1.7452,3.661 -0.5933,0.907 -1.0308,3.62 -1.6923,4.479 -0.5984,0.792 -0.8025,1.209 -0.0208,2.053 0.4635,0.5 1.6823,1.167 2.073,0.833 0.9109,-0.766 1.339,-1.61 1.6093,-2.641 0.3068,-1.177 0.8641,-4.443 0.9161,-5.052 0.1094,-1.521 0.6094,-2.063 0.6771,-2.464 0.1308,-0.744 -0.1249,-0.984 -0.588,-1.172 -0.8907,-0.3534 -1.2292,0.303 -1.2292,0.303 z"
     id="path27" />
  <path
     style="fill:#231f20;fill-opacity:1;fill-rule:nonzero;stroke:none"
     d="m 44.867507,38.364079 c -1.2667,-0.281 -1.3334,1.755 -1.4334,2.286 -0.1036,0.537 -0.5625,2.021 -1.0718,3.13 -0.5052,1.12 -0.6615,2.724 -1.6255,4.844 -0.5,1.115 -0.2917,2.516 1.3588,3.183 1.6256,0.651 2.6093,-0.016 3.0161,-1.453 0.412,-1.443 0.1823,-2.97 0.4943,-4.448 0.3084,-1.48 0.7615,-2.959 1.1724,-4.099 0.4693,-1.303 0.2131,-2.12 -0.1348,-2.443 -0.8813,-0.813 -1.7761,-1 -1.7761,-1"
     id="path28" />
  <path
     style="fill:none;stroke:#231f20;stroke-width:0.565977;stroke-linecap:butt;stroke-linejoin:miter;stroke-miterlimit:4;stroke-dasharray:none;stroke-opacity:1"
     d="m 44.867507,38.364079 c -1.2667,-0.281 -1.3334,1.755 -1.4334,2.286 -0.1036,0.537 -0.5625,2.021 -1.0718,3.13 -0.5052,1.12 -0.6615,2.724 -1.6255,4.844 -0.5,1.115 -0.2917,2.516 1.3588,3.183 1.6256,0.651 2.6093,-0.016 3.0161,-1.453 0.412,-1.443 0.1823,-2.97 0.4943,-4.448 0.3084,-1.48 0.7615,-2.959 1.1724,-4.099 0.4693,-1.303 0.2131,-2.12 -0.1348,-2.443 -0.8813,-0.813 -1.7761,-1 -1.7761,-1 z"
     id="path29" />
  <path
     style="fill:#ffffff;fill-opacity:1;fill-rule:nonzero;stroke:none"
     d="m 51.362307,28.868379 c -0.6146,0.824 -1.7812,0.9857 -2.6052,0.3707 -0.8178,-0.6147 -0.9844,-1.7814 -0.3692,-2.604 0.6145,-0.8227 1.7812,-0.9893 2.6036,-0.3707 0.8229,0.6147 0.9896,1.7813 0.3708,2.604"
     id="path30" />
  <path
     style="fill:none;stroke:#231f20;stroke-width:1.33171;stroke-linecap:butt;stroke-linejoin:miter;stroke-miterlimit:4;stroke-dasharray:none;stroke-opacity:1"
     d="m 51.362307,28.868379 c -0.6146,0.824 -1.7812,0.9857 -2.6052,0.3707 -0.8178,-0.6147 -0.9844,-1.7814 -0.3692,-2.604 0.6145,-0.8227 1.7812,-0.9893 2.6036,-0.3707 0.8229,0.6147 0.9896,1.7813 0.3708,2.604 z"
     id="path31" />
  <path
     style="fill:#ffffff;fill-opacity:1;fill-rule:nonzero;stroke:none"
     d="m 96.496807,28.868379 c -0.62,0.824 -1.781,0.9857 -2.604,0.3707 -0.823,-0.6147 -0.989,-1.7814 -0.369,-2.604 0.614,-0.8227 1.781,-0.9893 2.603,-0.3707 0.818,0.6147 0.985,1.7813 0.37,2.604"
     id="path32" />
  <path
     style="fill:none;stroke:#231f20;stroke-width:1.33171;stroke-linecap:butt;stroke-linejoin:miter;stroke-miterlimit:4;stroke-dasharray:none;stroke-opacity:1"
     d="m 96.496807,28.868379 c -0.62,0.824 -1.781,0.9857 -2.604,0.3707 -0.823,-0.6147 -0.989,-1.7814 -0.369,-2.604 0.614,-0.8227 1.781,-0.9893 2.603,-0.3707 0.818,0.6147 0.985,1.7813 0.37,2.604 z"
     id="path33" />
  <path
     style="fill:#231f20;fill-opacity:1;fill-rule:nonzero;stroke:none"
     d="m 335.32381,94.660079 c 0.448,-1.276 -0.312,-1.911 -1.348,-1.911 -0.308,0 -0.573,-0.318 -0.876,-0.297 -0.702,0.063 -1.781,1.437 -0.864,2.625 0.063,0.083 0.35,0.854 0.651,1.396 0.589,1.058 2.281,2.891 4.98,2.974 1.276,0.046 1.061,-0.719 0.552,-0.896 -1.62,-0.542 -1.663,-0.906 -2.032,-1.208 -1.276,-1.006 -1.063,-2.683 -1.063,-2.683"
     id="path34" />
  <path
     style="fill:none;stroke:#231f20;stroke-width:0.332927;stroke-linecap:butt;stroke-linejoin:miter;stroke-miterlimit:4;stroke-dasharray:none;stroke-opacity:1"
     d="m 335.32381,94.660079 c 0.448,-1.276 -0.312,-1.911 -1.348,-1.911 -0.308,0 -0.573,-0.318 -0.876,-0.297 -0.702,0.063 -1.781,1.437 -0.864,2.625 0.063,0.083 0.35,0.854 0.651,1.396 0.589,1.058 2.281,2.891 4.98,2.974 1.276,0.046 1.061,-0.719 0.552,-0.896 -1.62,-0.542 -1.663,-0.906 -2.032,-1.208 -1.276,-1.006 -1.063,-2.683 -1.063,-2.683 z"
     id="path35" />
  <path
     style="fill:#231f20;fill-opacity:1;fill-rule:nonzero;stroke:none"
     d="m 323.65181,79.994079 c 1.71,-1.49 2.24,-1.547 2.918,-0.864 0.448,0.448 1.021,0.713 1.306,0.973 0.959,0.88 2.21,2.745 4.366,8.964 0.489,1.412 1.186,3.385 1.541,4.172 0.552,1.24 -1.88,1.322 -2.099,0.833 -0.724,-1.557 -1.338,-2.568 -1.677,-3.093 -0.224,-0.36 -0.547,-1.058 -1.615,-2.334 -1.62,-1.938 -2.88,-2.854 -4.036,-4.63 -0.542,-0.817 -1.469,-1.093 -1.584,-2.172 -0.12,-1.079 0.88,-1.849 0.88,-1.849"
     id="path36" />
  <path
     style="fill:none;stroke:#231f20;stroke-width:0.565977;stroke-linecap:butt;stroke-linejoin:miter;stroke-miterlimit:4;stroke-dasharray:none;stroke-opacity:1"
     d="m 323.65181,79.994079 c 1.71,-1.49 2.24,-1.547 2.918,-0.864 0.448,0.448 1.021,0.713 1.306,0.973 0.959,0.88 2.21,2.745 4.366,8.964 0.489,1.412 1.186,3.385 1.541,4.172 0.552,1.24 -1.88,1.322 -2.099,0.833 -0.724,-1.557 -1.338,-2.568 -1.677,-3.093 -0.224,-0.36 -0.547,-1.058 -1.615,-2.334 -1.62,-1.938 -2.88,-2.854 -4.036,-4.63 -0.542,-0.817 -1.469,-1.093 -1.584,-2.172 -0.12,-1.079 0.88,-1.849 0.88,-1.849 z"
     id="path37" />
  <path
     style="fill:#0098c9;fill-opacity:1;fill-rule:nonzero;stroke:none"
     d="m 312.01781,56.635079 c 1.64,2.667 2.281,3.063 3.036,3.593 4.713,3.344 2.984,5.599 0.292,6.636 -3.156,1.224 -4.266,1.728 -7.042,-3.928 -0.766,-1.572 -4.505,-7.218 -4.505,-7.218 -1.615,-1.839 -2.204,-4.495 -1.604,-5.823 0.629,-1.401 0.479,-0.797 1.301,-1.984 0.782,-1.136 2.766,-2.057 3.886,-1.537 1.084,0.494 1.256,2.157 1.818,4.51 0.443,1.86 2.818,5.751 2.818,5.751"
     id="path38" />
  <path
     style="fill:none;stroke:#231f20;stroke-width:0.565977;stroke-linecap:butt;stroke-linejoin:miter;stroke-miterlimit:4;stroke-dasharray:none;stroke-opacity:1"
     d="m 312.01781,56.635079 c 1.64,2.667 2.281,3.063 3.036,3.593 4.713,3.344 2.984,5.599 0.292,6.636 -3.156,1.224 -4.266,1.728 -7.042,-3.928 -0.766,-1.572 -4.505,-7.218 -4.505,-7.218 -1.615,-1.839 -2.204,-4.495 -1.604,-5.823 0.629,-1.401 0.479,-0.797 1.301,-1.984 0.782,-1.136 2.766,-2.057 3.886,-1.537 1.084,0.494 1.256,2.157 1.818,4.51 0.443,1.86 2.818,5.751 2.818,5.751 z"
     id="path39" />
  <path
     style="fill:#ffffff;fill-opacity:1;fill-rule:nonzero;stroke:none"
     d="m 298.25281,44.707079 c -0.178,-0.172 -1.167,0.412 -1.464,-0.02 -0.303,-0.432 0.213,-1.027 -0.11,-2.989 l -0.005,-0.022 c -0.281,-1.426 0.041,-2.776 1.011,-3.573 1.609,-1.317 4.358,-0.615 6.15,1.568 1.792,2.188 1.937,5.021 0.333,6.344 -1.536,1.26 -4.13,0.667 -5.915,-1.308"
     id="path40" />
  <path
     style="fill:none;stroke:#231f20;stroke-width:0.565977;stroke-linecap:butt;stroke-linejoin:miter;stroke-miterlimit:4;stroke-dasharray:none;stroke-opacity:1"
     d="m 298.25281,44.707079 c -0.178,-0.172 -1.167,0.412 -1.464,-0.02 -0.303,-0.432 0.213,-1.027 -0.11,-2.989 l -0.005,-0.022 c -0.281,-1.426 0.041,-2.776 1.011,-3.573 1.609,-1.317 4.358,-0.615 6.15,1.568 1.792,2.188 1.937,5.021 0.333,6.344 -1.536,1.26 -4.13,0.667 -5.915,-1.308 z"
     id="path41" />
  <path
     style="fill:#231f20;fill-opacity:1;fill-rule:nonzero;stroke:none"
     d="m 325.65781,81.431079 c -2.791,2.885 -4.14,-0.963 -4.484,-1.296 -3.615,-3.469 -3.792,-3.813 -6.355,-6.647 -3.708,-4.098 -5.624,-7.473 -3.869,-10.328 1.193,-1.932 2.713,-2.536 4.01,-2.312 1.438,0.255 3.964,2.188 3.708,5.068 l 0.766,1.526 c 0.652,0.964 0.969,1.442 1.328,1.896 0.625,0.786 1.245,1.661 2.381,3.254 2.004,2.834 3.203,6.486 3.203,6.486 0.692,1.03 -0.688,2.353 -0.688,2.353"
     id="path42" />
  <path
     style="fill:none;stroke:#231f20;stroke-width:0.565977;stroke-linecap:butt;stroke-linejoin:miter;stroke-miterlimit:4;stroke-dasharray:none;stroke-opacity:1"
     d="m 325.65781,81.431079 c -2.791,2.885 -4.14,-0.963 -4.484,-1.296 -3.615,-3.469 -3.792,-3.813 -6.355,-6.647 -3.708,-4.098 -5.624,-7.473 -3.869,-10.328 1.193,-1.932 2.713,-2.536 4.01,-2.312 1.438,0.255 3.964,2.188 3.708,5.068 l 0.766,1.526 c 0.652,0.964 0.969,1.442 1.328,1.896 0.625,0.786 1.245,1.661 2.381,3.254 2.004,2.834 3.203,6.486 3.203,6.486 0.692,1.03 -0.688,2.353 -0.688,2.353 z"
     id="path43" />
  <path
     style="fill:#0098c9;fill-opacity:1;fill-rule:nonzero;stroke:none"
     d="m 315.57481,60.963079 c -1.24,-0.437 -2.839,-0.099 -4.339,1.609 -0.969,1.11 -1.234,2.448 -1,3.979 -0.073,1.037 -0.089,1.667 0.526,2.193 0.052,0.047 0.105,0.11 0.157,0.167 0.219,0.541 0.468,1.099 0.771,1.681 l 6.702,-4.025 c 0.735,-2.797 -1.437,-5.115 -2.817,-5.604"
     id="path44" />
  <path
     style="fill:none;stroke:#231f20;stroke-width:0.565977;stroke-linecap:butt;stroke-linejoin:miter;stroke-miterlimit:4;stroke-dasharray:none;stroke-opacity:1"
     d="m 315.57481,60.963079 c -1.24,-0.437 -2.839,-0.099 -4.339,1.609 -0.969,1.11 -1.234,2.448 -1,3.979 -0.073,1.037 -0.089,1.667 0.526,2.193 0.052,0.047 0.105,0.11 0.157,0.167 0.219,0.541 0.468,1.099 0.771,1.681 l 6.702,-4.025 c 0.735,-2.797 -1.437,-5.115 -2.817,-5.604 z"
     id="path45" />
  <path
     style="fill:#231f20;fill-opacity:1;fill-rule:nonzero;stroke:none"
     d="m 297.50681,30.827079 c -0.136,0.631 0.807,2.333 0.99,3.932 0.12,1.079 1.516,3.443 1.552,4.532 0.041,0.989 0.152,1.443 1.292,1.593 0.677,0.09 2.035,-0.172 2.125,-0.677 0.213,-1.171 0.005,-2.093 -0.443,-3.061 -0.516,-1.106 -2.161,-3.975 -2.51,-4.48 -0.886,-1.24 -0.844,-1.974 -1.047,-2.328 -0.38,-0.6617 -0.729,-0.6777 -1.204,-0.526 -0.916,0.291 -0.755,1.015 -0.755,1.015"
     id="path46" />
  <path
     style="fill:none;stroke:#231f20;stroke-width:0.565977;stroke-linecap:butt;stroke-linejoin:miter;stroke-miterlimit:4;stroke-dasharray:none;stroke-opacity:1"
     d="m 297.50681,30.827079 c -0.136,0.631 0.807,2.333 0.99,3.932 0.12,1.079 1.516,3.443 1.552,4.532 0.041,0.989 0.152,1.443 1.292,1.593 0.677,0.09 2.035,-0.172 2.125,-0.677 0.213,-1.171 0.005,-2.093 -0.443,-3.061 -0.516,-1.106 -2.161,-3.975 -2.51,-4.48 -0.886,-1.24 -0.844,-1.974 -1.047,-2.328 -0.38,-0.6617 -0.729,-0.6777 -1.204,-0.526 -0.916,0.291 -0.755,1.015 -0.755,1.015 z"
     id="path47" />
  <path
     style="fill:#231f20;fill-opacity:1;fill-rule:nonzero;stroke:none"
     d="m 300.72081,39.296079 c -1.151,0.588 0.093,2.203 0.354,2.678 0.265,0.478 0.853,1.916 1.172,3.098 0.323,1.183 1.224,2.52 1.833,4.766 0.323,1.177 1.38,2.125 3.072,1.584 1.672,-0.532 2,-1.672 1.402,-3.043 -0.604,-1.369 -1.755,-2.4 -2.454,-3.739 -0.708,-1.333 -1.296,-2.766 -1.713,-3.906 -0.463,-1.303 -1.183,-1.771 -1.661,-1.798 -1.192,-0.068 -2.005,0.36 -2.005,0.36"
     id="path48" />
  <path
     style="fill:none;stroke:#231f20;stroke-width:0.565977;stroke-linecap:butt;stroke-linejoin:miter;stroke-miterlimit:4;stroke-dasharray:none;stroke-opacity:1"
     d="m 300.72081,39.296079 c -1.151,0.588 0.093,2.203 0.354,2.678 0.265,0.478 0.853,1.916 1.172,3.098 0.323,1.183 1.224,2.52 1.833,4.766 0.323,1.177 1.38,2.125 3.072,1.584 1.672,-0.532 2,-1.672 1.402,-3.043 -0.604,-1.369 -1.755,-2.4 -2.454,-3.739 -0.708,-1.333 -1.296,-2.766 -1.713,-3.906 -0.463,-1.303 -1.183,-1.771 -1.661,-1.798 -1.192,-0.068 -2.005,0.36 -2.005,0.36 z"
     id="path49" />
  <path
     style="fill:#231f20;fill-opacity:1;fill-rule:nonzero;stroke:none"
     d="m 288.50181,46.759079 c 0.125,-1.348 -0.771,-1.78 -1.776,-1.525 -0.297,0.068 -0.631,-0.172 -0.916,-0.079 -0.667,0.229 -1.381,1.824 -0.204,2.756 0.079,0.063 0.541,0.739 0.969,1.197 0.828,0.886 2.911,2.251 5.547,1.683 1.249,-0.265 0.859,-0.959 0.323,-1 -1.708,-0.141 -1.828,-0.484 -2.266,-0.688 -1.474,-0.672 -1.677,-2.344 -1.677,-2.344"
     id="path50" />
  <path
     style="fill:none;stroke:#231f20;stroke-width:0.332927;stroke-linecap:butt;stroke-linejoin:miter;stroke-miterlimit:4;stroke-dasharray:none;stroke-opacity:1"
     d="m 288.50181,46.759079 c 0.125,-1.348 -0.771,-1.78 -1.776,-1.525 -0.297,0.068 -0.631,-0.172 -0.916,-0.079 -0.667,0.229 -1.381,1.824 -0.204,2.756 0.079,0.063 0.541,0.739 0.969,1.197 0.828,0.886 2.911,2.251 5.547,1.683 1.249,-0.265 0.859,-0.959 0.323,-1 -1.708,-0.141 -1.828,-0.484 -2.266,-0.688 -1.474,-0.672 -1.677,-2.344 -1.677,-2.344 z"
     id="path51" />
  <path
     style="fill:#231f20;fill-opacity:1;fill-rule:nonzero;stroke:none"
     d="m 272.87681,36.463079 c 1.297,-1.86 1.802,-2.041 2.62,-1.541 0.552,0.328 1.172,0.442 1.51,0.629 1.14,0.62 2.807,2.131 6.407,7.641 0.812,1.25 1.973,3 2.505,3.676 0.834,1.068 -1.505,1.735 -1.838,1.319 -1.079,-1.339 -1.918,-2.167 -2.371,-2.599 -0.312,-0.297 -0.785,-0.89 -2.135,-1.87 -2.041,-1.49 -3.485,-2.078 -5.037,-3.516 -0.724,-0.667 -1.687,-0.708 -2.061,-1.723 -0.382,-1.021 0.4,-2.016 0.4,-2.016"
     id="path52" />
  <path
     style="fill:none;stroke:#231f20;stroke-width:0.565977;stroke-linecap:butt;stroke-linejoin:miter;stroke-miterlimit:4;stroke-dasharray:none;stroke-opacity:1"
     d="m 272.87681,36.463079 c 1.297,-1.86 1.802,-2.041 2.62,-1.541 0.552,0.328 1.172,0.442 1.51,0.629 1.14,0.62 2.807,2.131 6.407,7.641 0.812,1.25 1.973,3 2.505,3.676 0.834,1.068 -1.505,1.735 -1.838,1.319 -1.079,-1.339 -1.918,-2.167 -2.371,-2.599 -0.312,-0.297 -0.785,-0.89 -2.135,-1.87 -2.041,-1.49 -3.485,-2.078 -5.037,-3.516 -0.724,-0.667 -1.687,-0.708 -2.061,-1.723 -0.382,-1.021 0.4,-2.016 0.4,-2.016 z"
     id="path53" />
  <path
     style="fill:#0098c9;fill-opacity:1;fill-rule:nonzero;stroke:none"
     d="m 253.22081,18.176379 c 2.88,1.2294 3.63,1.1827 4.557,1.1774 5.781,0.0053 5.667,2.844 4.073,5.244 -1.87,2.8279 -2.484,3.8813 -8.016,0.8706 -1.536,-0.844 -7.849,-3.2866 -7.849,-3.2866 -2.385,-0.568 -4.4,-2.396 -4.676,-3.828 -0.292,-1.5054 -0.068,-0.928 -0.084,-2.3707 -0.021,-1.38 1.068,-3.28 2.281,-3.5 1.167,-0.2186 2.271,1.032 4.088,2.6307 1.439,1.26 5.626,3.0626 5.626,3.0626"
     id="path54" />
  <path
     style="fill:none;stroke:#231f20;stroke-width:0.565977;stroke-linecap:butt;stroke-linejoin:miter;stroke-miterlimit:4;stroke-dasharray:none;stroke-opacity:1"
     d="m 253.22081,18.176379 c 2.88,1.2294 3.63,1.1827 4.557,1.1774 5.781,0.0053 5.667,2.844 4.073,5.244 -1.87,2.8279 -2.484,3.8813 -8.016,0.8706 -1.536,-0.844 -7.849,-3.2866 -7.849,-3.2866 -2.385,-0.568 -4.4,-2.396 -4.676,-3.828 -0.292,-1.5054 -0.068,-0.928 -0.084,-2.3707 -0.021,-1.38 1.068,-3.28 2.281,-3.5 1.167,-0.2186 2.271,1.032 4.088,2.6307 1.439,1.26 5.626,3.0626 5.626,3.0626 z"
     id="path55" />
  <path
     style="fill:#ffffff;fill-opacity:1;fill-rule:nonzero;stroke:none"
     d="m 235.09481,16.400379 c -0.244,-0.0413 -0.713,1.0107 -1.208,0.8334 -0.494,-0.1827 -0.416,-0.9694 -1.817,-2.38 l -0.016,-0.0214 c -1.057,-0.9946 -1.573,-2.2866 -1.24,-3.4946 0.553,-2.0052998 3.204,-3.0212998 5.923,-2.2706998 2.729,0.7454 4.489,2.9733998 3.937,4.9786998 -0.516,1.912 -2.979,2.9333 -5.579,2.3546"
     id="path56" />
  <path
     style="fill:none;stroke:#231f20;stroke-width:0.565977;stroke-linecap:butt;stroke-linejoin:miter;stroke-miterlimit:4;stroke-dasharray:none;stroke-opacity:1"
     d="m 235.09481,16.400379 c -0.244,-0.0413 -0.713,1.0107 -1.208,0.8334 -0.494,-0.1827 -0.416,-0.9694 -1.817,-2.38 l -0.016,-0.0214 c -1.057,-0.9946 -1.573,-2.2866 -1.24,-3.4946 0.553,-2.0052998 3.204,-3.0212998 5.923,-2.2706998 2.729,0.7454 4.489,2.9733998 3.937,4.9786998 -0.516,1.912 -2.979,2.9333 -5.579,2.3546 z"
     id="path57" />
  <path
     style="fill:#231f20;fill-opacity:1;fill-rule:nonzero;stroke:none"
     d="m 275.17381,37.384079 c -2.011,3.47 -4.249,0.058 -4.667,-0.182 -4.349,-2.49 -4.593,-2.78 -7.77,-4.906 -4.594,-3.0784 -7.266,-5.8904 -6.26,-9.0837 0.686,-2.1666 2.02,-3.12 3.333,-3.2186 1.452,-0.0987 4.375,1.1613 4.823,4.0213 l 1.12,1.292 c 0.858,0.7813 1.285,1.172 1.738,1.52 0.798,0.6093 1.615,1.308 3.1,2.584 2.635,2.26 4.682,5.515 4.682,5.515 0.928,0.833 -0.099,2.458 -0.099,2.458"
     id="path58" />
  <path
     style="fill:none;stroke:#231f20;stroke-width:0.565977;stroke-linecap:butt;stroke-linejoin:miter;stroke-miterlimit:4;stroke-dasharray:none;stroke-opacity:1"
     d="m 275.17381,37.384079 c -2.011,3.47 -4.249,0.058 -4.667,-0.182 -4.349,-2.49 -4.593,-2.78 -7.77,-4.906 -4.594,-3.0784 -7.266,-5.8904 -6.26,-9.0837 0.686,-2.1666 2.02,-3.12 3.333,-3.2186 1.452,-0.0987 4.375,1.1613 4.823,4.0213 l 1.12,1.292 c 0.858,0.7813 1.285,1.172 1.738,1.52 0.798,0.6093 1.615,1.308 3.1,2.584 2.635,2.26 4.682,5.515 4.682,5.515 0.928,0.833 -0.099,2.458 -0.099,2.458 z"
     id="path59" />
  <path
     style="fill:#0098c9;fill-opacity:1;fill-rule:nonzero;stroke:#231f20;stroke-width:0.565977;stroke-linecap:butt;stroke-linejoin:miter;stroke-miterlimit:4;stroke-dasharray:none;stroke-opacity:1"
     d="m 264.52281,24.712379 c 0.036,-2.8853 -2.636,-4.6146 -4.089,-4.7546 -1.312,-0.1307 -2.787,0.5933 -3.817,2.6093 -0.678,1.3173 -0.61,2.6773 -0.006,4.1093 0.178,1.0213 0.318,1.636 1.036,2 0.063,0.0307 0.131,0.0787 0.194,0.12 0.349,0.4733 0.724,0.9587 1.161,1.4477 z"
     id="path60" />
  <path
     style="fill:#231f20;fill-opacity:1;fill-rule:nonzero;stroke:none"
     d="m 227.25281,26.791079 c 0.645,0.0306 2.17,-1.1773 3.718,-1.6147 1.042,-0.2973 3.151,-2.0626 4.214,-2.276 0.973,-0.1973 1.401,-0.38 1.364,-1.5306 -0.02,-0.6827 -0.506,-1.9854 -1.015,-1.9907 -1.193,-0.02 -2.068,0.3333 -2.948,0.9373 -1.011,0.688 -3.573,2.7814 -4.005,3.2147 -1.084,1.072 -1.819,1.1507 -2.131,1.4107 -0.588,0.48 -0.547,0.828 -0.323,1.2759 0.438,0.8547 1.126,0.5734 1.126,0.5734"
     id="path61" />
  <path
     style="fill:none;stroke:#231f20;stroke-width:0.565977;stroke-linecap:butt;stroke-linejoin:miter;stroke-miterlimit:4;stroke-dasharray:none;stroke-opacity:1"
     d="m 227.25281,26.791079 c 0.645,0.0306 2.17,-1.1773 3.718,-1.6147 1.042,-0.2973 3.151,-2.0626 4.214,-2.276 0.973,-0.1973 1.401,-0.38 1.364,-1.5306 -0.02,-0.6827 -0.506,-1.9854 -1.015,-1.9907 -1.193,-0.02 -2.068,0.3333 -2.948,0.9373 -1.011,0.688 -3.573,2.7814 -4.005,3.2147 -1.084,1.072 -1.819,1.1507 -2.131,1.4107 -0.588,0.48 -0.547,0.828 -0.323,1.2759 0.438,0.8547 1.126,0.5734 1.126,0.5734 z"
     id="path62" />
  <path
     style="fill:#231f20;fill-opacity:1;fill-rule:nonzero;stroke:none"
     d="m 235.08581,22.233779 c 0.765,1.0413 2.156,-0.448 2.577,-0.7814 0.432,-0.3386 1.756,-1.1613 2.866,-1.6666 1.114,-0.5107 2.285,-1.62 4.4,-2.588 1.114,-0.5107 1.876,-1.7094 1.062,-3.292 -0.801,-1.5627 -1.978,-1.6987 -3.229,-0.88 -1.255,0.8173 -2.083,2.1146 -3.291,3.0306 -1.198,0.9174 -2.516,1.7294 -3.573,2.328 -1.203,0.672 -1.552,1.4587 -1.495,1.932 0.126,1.188 0.683,1.9174 0.683,1.9174"
     id="path63" />
  <path
     style="fill:none;stroke:#231f20;stroke-width:0.565977;stroke-linecap:butt;stroke-linejoin:miter;stroke-miterlimit:4;stroke-dasharray:none;stroke-opacity:1"
     d="m 235.08581,22.233779 c 0.765,1.0413 2.156,-0.448 2.577,-0.7814 0.432,-0.3386 1.756,-1.1613 2.866,-1.6666 1.114,-0.5107 2.285,-1.62 4.4,-2.588 1.114,-0.5107 1.876,-1.7094 1.062,-3.292 -0.801,-1.5627 -1.978,-1.6987 -3.229,-0.88 -1.255,0.8173 -2.083,2.1146 -3.291,3.0306 -1.198,0.9174 -2.516,1.7294 -3.573,2.328 -1.203,0.672 -1.552,1.4587 -1.495,1.932 0.126,1.188 0.683,1.9174 0.683,1.9174 z"
     id="path64" />
  <path
     style="fill:#0098c9;fill-opacity:1;fill-rule:nonzero;stroke:none"
     d="m 90.288807,54.646079 c -3.51,-0.126 -4.458,-0.344 -5.593,-0.491 -5.729,-0.729 -5.975,-1.995 -5.776,-4.385 0.281,-3.38 0.76,-5.203 6.957,-4.078 4.699,0.854 8.313,0.812 8.313,0.812 1.791,-0.525 5.365,-0.093 6.026003,0.532 1.115,1.052 0.87,0.88 1.349,2.25 0.891,2.521 0.083,3.406 -0.943,4.01 -1.026003,0.599 -2.046003,0.792 -4.844003,1.042 -2.172,0.197 -5.489,0.308 -5.489,0.308"
     id="path65" />
  <path
     style="fill:none;stroke:#231f20;stroke-width:0.565977;stroke-linecap:butt;stroke-linejoin:miter;stroke-miterlimit:4;stroke-dasharray:none;stroke-opacity:1"
     d="m 90.288807,54.646079 c -3.51,-0.126 -4.458,-0.344 -5.593,-0.491 -5.729,-0.729 -5.975,-1.995 -5.776,-4.385 0.281,-3.38 0.76,-5.203 6.957,-4.078 4.699,0.854 8.313,0.812 8.313,0.812 1.791,-0.525 5.365,-0.093 6.026003,0.532 1.115,1.052 0.87,0.88 1.349,2.25 0.891,2.521 0.083,3.406 -0.943,4.01 -1.026003,0.599 -2.046003,0.792 -4.844003,1.042 -2.172,0.197 -5.489,0.308 -5.489,0.308 z"
     id="path66" />
  <path
     style="fill:#231f20;fill-opacity:1;fill-rule:nonzero;stroke:none"
     d="m 114.08981,32.843079 c -1.186,-0.645 -1.942,0 -2.109,1.021 -0.052,0.307 -0.411,0.52 -0.437,0.818 -0.052,0.697 1.13,1.989 2.448,1.281 0.094,-0.052 0.901,-0.204 1.48,-0.412 1.145,-0.405 3.229,-1.776 3.76,-4.427 0.245,-1.25 -0.542,-1.161 -0.792,-0.688 -0.807,1.511 -1.172,1.486 -1.531,1.803 -1.204,1.093 -2.819,0.604 -2.819,0.604"
     id="path67" />
  <path
     style="fill:none;stroke:#231f20;stroke-width:0.332927;stroke-linecap:butt;stroke-linejoin:miter;stroke-miterlimit:4;stroke-dasharray:none;stroke-opacity:1"
     d="m 114.08981,32.843079 c -1.186,-0.645 -1.942,0 -2.109,1.021 -0.052,0.307 -0.411,0.52 -0.437,0.818 -0.052,0.697 1.13,1.989 2.448,1.281 0.094,-0.052 0.901,-0.204 1.48,-0.412 1.145,-0.405 3.229,-1.776 3.76,-4.427 0.245,-1.25 -0.542,-1.161 -0.792,-0.688 -0.807,1.511 -1.172,1.486 -1.531,1.803 -1.204,1.093 -2.819,0.604 -2.819,0.604 z"
     id="path68" />
  <path
     style="fill:#ffffff;fill-opacity:1;fill-rule:nonzero;stroke:none"
     d="m 97.700807,41.958079 c -1.183,-1.927 -1.157,-2.464 -0.37,-3.022 0.52,-0.369 0.874,-0.89 1.177,-1.129 1.021,-0.803 3.073003,-1.729 9.562003,-2.839 1.468,-0.245 3.531,-0.614 4.364,-0.833 1.314,-0.339 0.99,2.072 0.475,2.208 -1.651,0.453 -2.751,0.901 -3.328,1.145 -0.391,0.167 -1.125,0.366 -2.563,1.215 -2.177,1.276 -3.292,2.369 -5.229,3.223 -0.896,0.396 -1.317,1.261 -2.401003,1.198 -1.083,-0.052 -1.687,-1.166 -1.687,-1.166"
     id="path69" />
  <path
     style="fill:none;stroke:#231f20;stroke-width:0.565977;stroke-linecap:butt;stroke-linejoin:miter;stroke-miterlimit:4;stroke-dasharray:none;stroke-opacity:1"
     d="m 97.700807,41.958079 c -1.183,-1.927 -1.157,-2.464 -0.37,-3.022 0.52,-0.369 0.874,-0.89 1.177,-1.129 1.021,-0.803 3.073003,-1.729 9.562003,-2.839 1.468,-0.245 3.531,-0.614 4.364,-0.833 1.314,-0.339 0.99,2.072 0.475,2.208 -1.651,0.453 -2.751,0.901 -3.328,1.145 -0.391,0.167 -1.125,0.366 -2.563,1.215 -2.177,1.276 -3.292,2.369 -5.229,3.223 -0.896,0.396 -1.317,1.261 -2.401003,1.198 -1.083,-0.052 -1.687,-1.166 -1.687,-1.166 z"
     id="path70" />
  <path
     style="fill:#ffffff;fill-opacity:1;fill-rule:nonzero;stroke:none"
     d="m 103.55381,42.666079 c 0.172,-0.172 -0.406,-1.167 0.022,-1.464 0.432,-0.296 1.03,0.22 2.994,-0.099 l 0.022,-0.005 c 1.426,-0.282 2.776,0.048 3.566,1.021 1.314,1.615 0.604,4.36 -1.588,6.14 -2.188,1.792 -5.026,1.933 -6.338,0.319 -1.26,-1.538 -0.656,-4.131 1.322,-5.912"
     id="path71" />
  <path
     style="fill:none;stroke:#231f20;stroke-width:0.565977;stroke-linecap:butt;stroke-linejoin:miter;stroke-miterlimit:4;stroke-dasharray:none;stroke-opacity:1"
     d="m 103.55381,42.666079 c 0.172,-0.172 -0.406,-1.167 0.022,-1.464 0.432,-0.296 1.03,0.22 2.994,-0.099 l 0.022,-0.005 c 1.426,-0.282 2.776,0.048 3.566,1.021 1.314,1.615 0.604,4.36 -1.588,6.14 -2.188,1.792 -5.026,1.933 -6.338,0.319 -1.26,-1.538 -0.656,-4.131 1.322,-5.912 z"
     id="path72" />
  <path
     style="fill:#ffffff;fill-opacity:1;fill-rule:nonzero;stroke:#231f20;stroke-width:0.565977;stroke-linecap:round;stroke-linejoin:round;stroke-miterlimit:4;stroke-dasharray:none;stroke-opacity:1"
     d="m 100.20481,42.140079 c -0.093,1.615 -2.473003,2.067 -2.766003,2.286 -4.019,3 -4.384,3.109 -7.598,5.177 -4.65,2.989 -8.292,4.323 -10.823,2.125 -1.713,-1.489 -2.057,-3.093 -1.625,-4.338 0.489,-1.375 2.808,-3.547 5.61,-2.823 l 1.63,-0.511 c 1.058,-0.484 1.583,-0.713 2.088,-0.994 0.875,-0.49 1.839,-0.959 3.604,-1.812 3.12,-1.516 6.923,-2.1 6.923,-2.1 0.468,-0.214 0.932,-0.062 1.312,0.188"
     id="path73" />
  <path
     style="fill:#0098c9;fill-opacity:1;fill-rule:nonzero;stroke:#231f20;stroke-width:0.565977;stroke-linecap:butt;stroke-linejoin:miter;stroke-miterlimit:4;stroke-dasharray:none;stroke-opacity:1"
     d="m 83.600807,44.947079 c -2.634,-1.188 -5.281,0.584 -5.995,1.855 -0.634,1.156 -0.562,2.79 0.875,4.546 1.683,2.047 4.417,2.031 7.991,0.87 z"
     id="path74" />
  <path
     style="fill:#231f20;fill-opacity:1;fill-rule:nonzero;stroke:none"
     d="m 94.361807,30.546079 c -0.272,0.589 0.282,2.458 0.11,4.052 -0.121,1.084 0.729,3.698 0.53,4.761 -0.177,0.979 -0.171,1.443 0.912,1.839 0.641,0.233 2.025,0.27 2.224,-0.199 0.463,-1.099 0.458,-2.041 0.23,-3.088 -0.256,-1.188 -1.246,-4.349 -1.475,-4.912 -0.593,-1.407 -0.396,-2.115 -0.521,-2.505 -0.224,-0.7244 -0.558,-0.8177 -1.058,-0.771 -0.952,0.084 -0.952,0.823 -0.952,0.823"
     id="path75" />
  <path
     style="fill:none;stroke:#231f20;stroke-width:0.565977;stroke-linecap:butt;stroke-linejoin:miter;stroke-miterlimit:4;stroke-dasharray:none;stroke-opacity:1"
     d="m 94.361807,30.546079 c -0.272,0.589 0.282,2.458 0.11,4.052 -0.121,1.084 0.729,3.698 0.53,4.761 -0.177,0.979 -0.171,1.443 0.912,1.839 0.641,0.233 2.025,0.27 2.224,-0.199 0.463,-1.099 0.458,-2.041 0.23,-3.088 -0.256,-1.188 -1.246,-4.349 -1.475,-4.912 -0.593,-1.407 -0.396,-2.115 -0.521,-2.505 -0.224,-0.7244 -0.558,-0.8177 -1.058,-0.771 -0.952,0.084 -0.952,0.823 -0.952,0.823 z"
     id="path76" />
  <path
     style="fill:#231f20;fill-opacity:1;fill-rule:nonzero;stroke:none"
     d="m 95.657807,39.515079 c -1.254,0.323 -0.39,2.172 -0.244,2.687 0.156,0.526 0.422,2.057 0.474,3.277 0.057,1.224 0.65,2.728 0.756,5.052 0.057,1.224 0.885,2.375 2.656,2.213 1.744003,-0.152 2.317003,-1.198 2.025003,-2.661 -0.291,-1.469 -1.187,-2.724 -1.582003,-4.188 -0.397,-1.453 -0.667,-2.979 -0.818,-4.183 -0.177,-1.374 -0.772,-1.984 -1.235,-2.114 -1.152,-0.328 -2.032,-0.083 -2.032,-0.083"
     id="path77" />
  <path
     style="fill:none;stroke:#231f20;stroke-width:0.565977;stroke-linecap:butt;stroke-linejoin:miter;stroke-miterlimit:4;stroke-dasharray:none;stroke-opacity:1"
     d="m 95.657807,39.515079 c -1.254,0.323 -0.39,2.172 -0.244,2.687 0.156,0.526 0.422,2.057 0.474,3.277 0.057,1.224 0.65,2.728 0.756,5.052 0.057,1.224 0.885,2.375 2.656,2.213 1.744003,-0.152 2.317003,-1.198 2.025003,-2.661 -0.291,-1.469 -1.187,-2.724 -1.582003,-4.188 -0.397,-1.453 -0.667,-2.979 -0.818,-4.183 -0.177,-1.374 -0.772,-1.984 -1.235,-2.114 -1.152,-0.328 -2.032,-0.083 -2.032,-0.083 z"
     id="path78" />
  <path
     style="fill:#0098c9;fill-opacity:1;fill-rule:nonzero;stroke:none"
     d="m 154.10081,38.630079 c -2.224,2.713 -2.973,3.338 -3.776,4.15 -4.052,4.12 -5.213,3.542 -6.989,1.938 -2.516,-2.271 -3.678,-3.755 0.974,-8.006 3.52,-3.218 5.682,-6.12 5.682,-6.12 0.666,-1.7437 3.172,-4.3224 4.073,-4.473 1.511,-0.2454 1.229,-0.156 2.604,0.292 2.547,0.8173 2.76,2 2.62,3.1813 -0.145,1.1777 -0.609,2.1057 -2.104,4.4857 -1.161,1.848 -3.084,4.552 -3.084,4.552"
     id="path79" />
  <path
     style="fill:none;stroke:#231f20;stroke-width:0.565977;stroke-linecap:butt;stroke-linejoin:miter;stroke-miterlimit:4;stroke-dasharray:none;stroke-opacity:1"
     d="m 154.10081,38.630079 c -2.224,2.713 -2.973,3.338 -3.776,4.15 -4.052,4.12 -5.213,3.542 -6.989,1.938 -2.516,-2.271 -3.678,-3.755 0.974,-8.006 3.52,-3.218 5.682,-6.12 5.682,-6.12 0.666,-1.7437 3.172,-4.3224 4.073,-4.473 1.511,-0.2454 1.229,-0.156 2.604,0.292 2.547,0.8173 2.76,2 2.62,3.1813 -0.145,1.1777 -0.609,2.1057 -2.104,4.4857 -1.161,1.848 -3.084,4.552 -3.084,4.552 z"
     id="path80" />
  <path
     style="fill:#231f20;fill-opacity:1;fill-rule:nonzero;stroke:none"
     d="m 145.23181,5.8737792 c -1.12,0.756 -0.896,1.7187 -0.063,2.3387 0.245,0.188 0.271,0.604 0.521,0.7666 0.599,0.364 2.287,-0.0893 2.266,-1.584 0,-0.104 0.234,-0.8906 0.312,-1.5053 0.172,-1.2027 -0.088,-3.6827 -2.198,-5.37469996 -0.994,-0.792 -1.281,-0.052 -0.98,0.3907 0.975,1.41069996 0.782,1.72399996 0.902,2.18669996 0.417,1.568 -0.76,2.7813 -0.76,2.7813"
     id="path81" />
  <path
     style="fill:none;stroke:#231f20;stroke-width:0.332927;stroke-linecap:butt;stroke-linejoin:miter;stroke-miterlimit:4;stroke-dasharray:none;stroke-opacity:1"
     d="m 145.23181,5.8737792 c -1.12,0.756 -0.896,1.7187 -0.063,2.3387 0.245,0.188 0.271,0.604 0.521,0.7666 0.599,0.364 2.287,-0.0893 2.266,-1.584 0,-0.104 0.234,-0.8906 0.312,-1.5053 0.172,-1.2027 -0.088,-3.6827 -2.198,-5.37469996 -0.994,-0.792 -1.281,-0.052 -0.98,0.3907 0.975,1.41069996 0.782,1.72399996 0.902,2.18669996 0.417,1.568 -0.76,2.7813 -0.76,2.7813 z"
     id="path82" />
  <path
     style="fill:#ffffff;fill-opacity:1;fill-rule:nonzero;stroke:none"
     d="m 145.77781,24.619079 c -2.254,0.1613 -2.718,-0.1093 -2.849,-1.0627 -0.093,-0.6306 -0.391,-1.1866 -0.457,-1.568 -0.246,-1.276 -0.126,-3.52 1.874,-9.7906 0.459,-1.4227 1.078,-3.4226998 1.271,-4.2612998 0.303,-1.3227 2.292,0.0733 2.183,0.5946 -0.366,1.6759998 -0.475,2.8586998 -0.522,3.4786998 -0.03,0.4267 -0.192,1.172 -0.104,2.8333 0.136,2.5267 0.588,4.016 0.459,6.1253 -0.063,0.984 0.515,1.76 -0.041,2.6867 -0.543,0.9427 -1.814,0.964 -1.814,0.964"
     id="path83" />
  <path
     style="fill:none;stroke:#231f20;stroke-width:0.565977;stroke-linecap:butt;stroke-linejoin:miter;stroke-miterlimit:4;stroke-dasharray:none;stroke-opacity:1"
     d="m 145.77781,24.619079 c -2.254,0.1613 -2.718,-0.1093 -2.849,-1.0627 -0.093,-0.6306 -0.391,-1.1866 -0.457,-1.568 -0.246,-1.276 -0.126,-3.52 1.874,-9.7906 0.459,-1.4227 1.078,-3.4226998 1.271,-4.2612998 0.303,-1.3227 2.292,0.0733 2.183,0.5946 -0.366,1.6759998 -0.475,2.8586998 -0.522,3.4786998 -0.03,0.4267 -0.192,1.172 -0.104,2.8333 0.136,2.5267 0.588,4.016 0.459,6.1253 -0.063,0.984 0.515,1.76 -0.041,2.6867 -0.543,0.9427 -1.814,0.964 -1.814,0.964 z"
     id="path84" />
  <path
     style="fill:#ffffff;fill-opacity:1;fill-rule:nonzero;stroke:none"
     d="m 154.45581,20.020379 c 0.021,-0.2453 -1.068,-0.6253 -0.927,-1.1306 0.135,-0.5054 0.921,-0.5 2.213,-2.016 l 0.011,-0.0147 c 0.905,-1.136 2.151,-1.7613 3.385,-1.532 2.042,0.376 3.282,2.932 2.766,5.7093 -0.511,2.78 -2.584,4.7227 -4.626,4.3427 -1.953,-0.3533 -3.177,-2.7187 -2.822,-5.3587"
     id="path85" />
  <path
     style="fill:none;stroke:#231f20;stroke-width:0.565977;stroke-linecap:butt;stroke-linejoin:miter;stroke-miterlimit:4;stroke-dasharray:none;stroke-opacity:1"
     d="m 154.45581,20.020379 c 0.021,-0.2453 -1.068,-0.6253 -0.927,-1.1306 0.135,-0.5054 0.921,-0.5 2.213,-2.016 l 0.011,-0.0147 c 0.905,-1.136 2.151,-1.7613 3.385,-1.532 2.042,0.376 3.282,2.932 2.766,5.7093 -0.511,2.78 -2.584,4.7227 -4.626,4.3427 -1.953,-0.3533 -3.177,-2.7187 -2.822,-5.3587 z"
     id="path86" />
  <path
     style="fill:#ffffff;fill-opacity:1;fill-rule:nonzero;stroke:#231f20;stroke-width:0.565977;stroke-linecap:round;stroke-linejoin:round;stroke-miterlimit:4;stroke-dasharray:none;stroke-opacity:1"
     d="m 147.48081,22.796379 c 0.86,0.9894 0.319,2.8694 0.371,3.192 0.812,4.9477 0.744,5.3187 1.098,9.1257 0.516,5.505 0.022,9.354 -3.088,10.589 -2.114,0.832 -3.698,0.4 -4.6,-0.557 -1,-1.063 -1.858,-4.12 0.068,-6.278 l 0.303,-1.681 c 0.057,-1.161 0.093,-1.735 0.077,-2.313 -0.036,-1 -0.005,-2.072 0.047,-4.031 0.089,-3.4734 1.324,-7.1147 1.324,-7.1147 0.005,-0.1506 0.041,-0.292 0.099,-0.416"
     id="path87" />
  <path
     style="fill:#0098c9;fill-opacity:1;fill-rule:nonzero;stroke:#231f20;stroke-width:0.565977;stroke-linecap:butt;stroke-linejoin:miter;stroke-miterlimit:4;stroke-dasharray:none;stroke-opacity:1"
     d="m 141.94981,38.515079 c -2.27,1.792 -1.916,4.959 -1.114,6.172 0.729,1.099 2.218,1.787 4.437,1.312 2.589,-0.547 3.839,-2.984 4.448,-6.692 z"
     id="path88" />
  <path
     style="fill:#231f20;fill-opacity:1;fill-rule:nonzero;stroke:none"
     d="m 135.43981,28.520379 c 0.505,0.4013 2.453,0.3227 3.958,0.88 1.022,0.3747 3.76,0.192 4.746,0.6397 0.905,0.412 1.358,0.516 2.004,-0.437 0.386,-0.5627 0.761,-1.896 0.354,-2.2027 -0.953,-0.7187 -1.874,-0.9427 -2.942,-0.9787 -1.214,-0.0373 -4.522,0.1507 -5.126,0.2387 -1.505,0.2347 -2.145,-0.1347 -2.552,-0.1093 -0.76,0.0413 -0.926,0.344 -1.01,0.8386 -0.151,0.948 0.568,1.1307 0.568,1.1307"
     id="path89" />
  <path
     style="fill:none;stroke:#231f20;stroke-width:0.565977;stroke-linecap:butt;stroke-linejoin:miter;stroke-miterlimit:4;stroke-dasharray:none;stroke-opacity:1"
     d="m 135.43981,28.520379 c 0.505,0.4013 2.453,0.3227 3.958,0.88 1.022,0.3747 3.76,0.192 4.746,0.6397 0.905,0.412 1.358,0.516 2.004,-0.437 0.386,-0.5627 0.761,-1.896 0.354,-2.2027 -0.953,-0.7187 -1.874,-0.9427 -2.942,-0.9787 -1.214,-0.0373 -4.522,0.1507 -5.126,0.2387 -1.505,0.2347 -2.145,-0.1347 -2.552,-0.1093 -0.76,0.0413 -0.926,0.344 -1.01,0.8386 -0.151,0.948 0.568,1.1307 0.568,1.1307 z"
     id="path90" />
  <path
     style="fill:#231f20;fill-opacity:1;fill-rule:nonzero;stroke:none"
     d="m 144.45581,29.441679 c 0.01,1.2974 2.01,0.9124 2.546,0.8904 0.547,-0.025 2.099,0.09 3.298,0.339 1.197,0.24 2.801,0.036 5.082,0.495 1.199,0.245 2.516,-0.276 2.792,-2.031 0.276,-1.7347 -0.598,-2.5427 -2.093,-2.6147 -1.495,-0.0787 -2.928,0.484 -4.437,0.516 -1.511,0.0307 -3.052,-0.084 -4.262,-0.224 -1.374,-0.1667 -2.114,0.2653 -2.348,0.6813 -0.6,1.0374 -0.578,1.948 -0.578,1.948"
     id="path91" />
  <path
     style="fill:none;stroke:#231f20;stroke-width:0.565977;stroke-linecap:butt;stroke-linejoin:miter;stroke-miterlimit:4;stroke-dasharray:none;stroke-opacity:1"
     d="m 144.45581,29.441679 c 0.01,1.2974 2.01,0.9124 2.546,0.8904 0.547,-0.025 2.099,0.09 3.298,0.339 1.197,0.24 2.801,0.036 5.082,0.495 1.199,0.245 2.516,-0.276 2.792,-2.031 0.276,-1.7347 -0.598,-2.5427 -2.093,-2.6147 -1.495,-0.0787 -2.928,0.484 -4.437,0.516 -1.511,0.0307 -3.052,-0.084 -4.262,-0.224 -1.374,-0.1667 -2.114,0.2653 -2.348,0.6813 -0.6,1.0374 -0.578,1.948 -0.578,1.948 z"
     id="path92" />
  <path
     style="fill:#0098c9;fill-opacity:1;fill-rule:nonzero;stroke:none"
     d="m 209.45481,25.921679 c 0.552,3.468 0.522,4.4424 0.594,5.5824 0.39,5.766 -0.807,6.246 -3.187,6.511 -3.371,0.369 -5.256,0.255 -5.339,-6.041 -0.068,-4.7764 -0.802,-8.319 -0.802,-8.319 -0.859,-1.656 -1.12,-5.244 -0.635,-6.0147 0.817,-1.2973 0.697,-1.0213 1.943,-1.756 2.306,-1.3586 3.333,-0.7346 4.124,0.156 0.781,0.8907 1.166,1.8547 1.948,4.552 0.614,2.0947 1.354,5.3293 1.354,5.3293"
     id="path93" />
  <path
     style="fill:none;stroke:#231f20;stroke-width:0.565977;stroke-linecap:butt;stroke-linejoin:miter;stroke-miterlimit:4;stroke-dasharray:none;stroke-opacity:1"
     d="m 209.45481,25.921679 c 0.552,3.468 0.522,4.4424 0.594,5.5824 0.39,5.766 -0.807,6.246 -3.187,6.511 -3.371,0.369 -5.256,0.255 -5.339,-6.041 -0.068,-4.7764 -0.802,-8.319 -0.802,-8.319 -0.859,-1.656 -1.12,-5.244 -0.635,-6.0147 0.817,-1.2973 0.697,-1.0213 1.943,-1.756 2.306,-1.3586 3.333,-0.7346 4.124,0.156 0.781,0.8907 1.166,1.8547 1.948,4.552 0.614,2.0947 1.354,5.3293 1.354,5.3293 z"
     id="path94" />
  <path
     style="fill:#ffffff;fill-opacity:1;fill-rule:nonzero;stroke:none"
     d="m 195.78881,13.296379 c -0.172,-0.1773 -1.178,0.38 -1.464,-0.0573 -0.287,-0.4373 0.24,-1.0213 -0.036,-2.9946 l -0.006,-0.0214 c -0.249,-1.4319998 0.115,-2.7759998 1.104,-3.5412998 1.636,-1.276 4.37,-0.5107 6.104,1.7187 1.74,2.2292998 1.819,5.0678998 0.178,6.3438998 -1.563,1.2294 -4.14,0.568 -5.88,-1.448"
     id="path95" />
  <path
     style="fill:none;stroke:#231f20;stroke-width:0.565977;stroke-linecap:butt;stroke-linejoin:miter;stroke-miterlimit:4;stroke-dasharray:none;stroke-opacity:1"
     d="m 195.78881,13.296379 c -0.172,-0.1773 -1.178,0.38 -1.464,-0.0573 -0.287,-0.4373 0.24,-1.0213 -0.036,-2.9946 l -0.006,-0.0214 c -0.249,-1.4319998 0.115,-2.7759998 1.104,-3.5412998 1.636,-1.276 4.37,-0.5107 6.104,1.7187 1.74,2.2292998 1.819,5.0678998 0.178,6.3438998 -1.563,1.2294 -4.14,0.568 -5.88,-1.448 z"
     id="path96" />
  <path
     style="fill:#231f20;fill-opacity:1;fill-rule:nonzero;stroke:none"
     d="m 186.33481,27.479079 c 0.636,0.1346 2.334,-0.8187 3.927,-1 1.079,-0.1307 3.443,-1.532 4.527,-1.5733 0.989,-0.0467 1.442,-0.156 1.588,-1.3027 0.089,-0.672 -0.182,-2.036 -0.682,-2.124 -1.172,-0.2093 -2.1,0.004 -3.062,0.4573 -1.104,0.5214 -3.97,2.1827 -4.47,2.532 -1.238,0.8907 -1.973,0.8534 -2.322,1.0574 -0.656,0.3799 -0.672,0.7293 -0.522,1.2079 0.292,0.912 1.016,0.7454 1.016,0.7454"
     id="path97" />
  <path
     style="fill:none;stroke:#231f20;stroke-width:0.565977;stroke-linecap:butt;stroke-linejoin:miter;stroke-miterlimit:4;stroke-dasharray:none;stroke-opacity:1"
     d="m 186.33481,27.479079 c 0.636,0.1346 2.334,-0.8187 3.927,-1 1.079,-0.1307 3.443,-1.532 4.527,-1.5733 0.989,-0.0467 1.442,-0.156 1.588,-1.3027 0.089,-0.672 -0.182,-2.036 -0.682,-2.124 -1.172,-0.2093 -2.1,0.004 -3.062,0.4573 -1.104,0.5214 -3.97,2.1827 -4.47,2.532 -1.238,0.8907 -1.973,0.8534 -2.322,1.0574 -0.656,0.3799 -0.672,0.7293 -0.522,1.2079 0.292,0.912 1.016,0.7454 1.016,0.7454 z"
     id="path98" />
  <path
     style="fill:#231f20;fill-opacity:1;fill-rule:nonzero;stroke:none"
     d="m 194.79381,24.228379 c 0.593,1.1507 2.203,-0.0986 2.677,-0.36 0.474,-0.2706 1.911,-0.8693 3.088,-1.1866 1.183,-0.328 2.516,-1.2347 4.76,-1.86 1.178,-0.3227 2.12,-1.3854 1.574,-3.072 -0.542,-1.672 -1.683,-1.9947 -3.052,-1.3854 -1.364,0.604 -2.391,1.7547 -3.73,2.4627 -1.333,0.7133 -2.754,1.3133 -3.901,1.7293 -1.296,0.4747 -1.76,1.1934 -1.781,1.672 -0.067,1.1934 0.365,2 0.365,2"
     id="path99" />
  <path
     style="fill:none;stroke:#231f20;stroke-width:0.565977;stroke-linecap:butt;stroke-linejoin:miter;stroke-miterlimit:4;stroke-dasharray:none;stroke-opacity:1"
     d="m 194.79381,24.228379 c 0.593,1.1507 2.203,-0.0986 2.677,-0.36 0.474,-0.2706 1.911,-0.8693 3.088,-1.1866 1.183,-0.328 2.516,-1.2347 4.76,-1.86 1.178,-0.3227 2.12,-1.3854 1.574,-3.072 -0.542,-1.672 -1.683,-1.9947 -3.052,-1.3854 -1.364,0.604 -2.391,1.7547 -3.73,2.4627 -1.333,0.7133 -2.754,1.3133 -3.901,1.7293 -1.296,0.4747 -1.76,1.1934 -1.781,1.672 -0.067,1.1934 0.365,2 0.365,2 z"
     id="path100" />
  <path
     style="fill:#231f20;fill-opacity:1;fill-rule:nonzero;stroke:none"
     d="m 209.70081,35.572079 c -0.199,1.464 0.02,3.23 -6.188,4.87 -2.522,0.661 -7.032,3.86 -7.542,2.844 -1.376,-2.766 4.182,-7.12 4.672,-8.418 0.61,-1.598 4.843,-3.702 6.296,-3.446 3.391,0.593 2.762,4.15 2.762,4.15"
     id="path101" />
  <path
     style="fill:none;stroke:#231f20;stroke-width:0.31961;stroke-linecap:butt;stroke-linejoin:miter;stroke-miterlimit:4;stroke-dasharray:none;stroke-opacity:1"
     d="m 209.70081,35.572079 c -0.199,1.464 0.02,3.23 -6.188,4.87 -2.522,0.661 -7.032,3.86 -7.542,2.844 -1.376,-2.766 4.182,-7.12 4.672,-8.418 0.61,-1.598 4.843,-3.702 6.296,-3.446 3.391,0.593 2.762,4.15 2.762,4.15 z"
     id="path102" />
  <path
     style="fill:#231f20;fill-opacity:1;fill-rule:nonzero;stroke:none"
     d="m 197.59481,38.092079 c -2.265,1.35 -3.509,3.443 -2.77,4.678 0.734,1.234 3.166,1.136 5.437,-0.214 2.267,-1.349 3.511,-3.448 2.776,-4.677 -0.739,-1.233 -3.171,-1.14 -5.443,0.213"
     id="path103" />
  <path
     style="fill:none;stroke:#231f20;stroke-width:0.71646;stroke-linecap:round;stroke-linejoin:round;stroke-miterlimit:4;stroke-dasharray:none;stroke-opacity:1"
     d="m 197.59481,38.092079 c -2.265,1.35 -3.509,3.443 -2.77,4.678 0.734,1.234 3.166,1.136 5.437,-0.214 2.267,-1.349 3.511,-3.448 2.776,-4.677 -0.739,-1.233 -3.171,-1.14 -5.443,0.213 z"
     id="path104" />
  <path
     style="fill:#231f20;fill-opacity:1;fill-rule:nonzero;stroke:none"
     d="m 191.77781,46.286079 c 0.645,0.161 1.719,-1.292 3.641,-1.703 0.395,-0.095 0.671,-0.349 0.984,-0.552 1.26,-0.829 1.943,-2.276 -1.88,-2.439 -0.532,-0.025 -2.474,0.767 -3.256,0.672 -1.853,-0.224 -4.385,1.928 -4.145,2.386 0.505,1.005 4.656,1.636 4.656,1.636"
     id="path105" />
  <path
     style="fill:none;stroke:#231f20;stroke-width:0.644548;stroke-linecap:round;stroke-linejoin:round;stroke-miterlimit:4;stroke-dasharray:none;stroke-opacity:1"
     d="m 191.77781,46.286079 c 0.645,0.161 1.719,-1.292 3.641,-1.703 0.395,-0.095 0.671,-0.349 0.984,-0.552 1.26,-0.829 1.943,-2.276 -1.88,-2.439 -0.532,-0.025 -2.474,0.767 -3.256,0.672 -1.853,-0.224 -4.385,1.928 -4.145,2.386 0.505,1.005 4.656,1.636 4.656,1.636 z"
     id="path106" />
  <path
     style="fill:#0098c9;fill-opacity:1;fill-rule:nonzero;stroke:none"
     d="m 201.64681,34.546079 c 1.167,-2.151 3.568,-0.083 4.767,1.396 0.713,0.87 1.405,2.693 1.405,2.693 0,0 1.595,-0.923 2.172,-2.631 0.214,-0.634 1.626,-4.989 -2.229,-4.562 -1.171,0.136 -6.285,0.073 -6.255,0.704 0.036,0.634 0.14,2.4 0.14,2.4"
     id="path107" />
  <path
     style="fill:none;stroke:#231f20;stroke-width:0.565977;stroke-linecap:round;stroke-linejoin:round;stroke-miterlimit:4;stroke-dasharray:none;stroke-opacity:1"
     d="m 201.64681,34.546079 c 1.167,-2.151 3.568,-0.083 4.767,1.396 0.713,0.87 1.405,2.693 1.405,2.693 0,0 1.595,-0.923 2.172,-2.631 0.214,-0.634 1.626,-4.989 -2.229,-4.562 -1.171,0.136 -6.285,0.073 -6.255,0.704 0.036,0.634 0.14,2.4 0.14,2.4 z"
     id="path108" />
  <path
     style="fill:#ffffff;fill-opacity:1;fill-rule:nonzero;stroke:none"
     d="m 135.12781,28.868379 c -0.615,0.824 -1.782,0.9857 -2.604,0.3707 -0.823,-0.6147 -0.99,-1.7814 -0.371,-2.604 0.615,-0.8227 1.781,-0.9893 2.604,-0.3707 0.824,0.6147 0.985,1.7813 0.371,2.604"
     id="path109" />
  <path
     style="fill:none;stroke:#231f20;stroke-width:1.33171;stroke-linecap:butt;stroke-linejoin:miter;stroke-miterlimit:4;stroke-dasharray:none;stroke-opacity:1"
     d="m 135.12781,28.868379 c -0.615,0.824 -1.782,0.9857 -2.604,0.3707 -0.823,-0.6147 -0.99,-1.7814 -0.371,-2.604 0.615,-0.8227 1.781,-0.9893 2.604,-0.3707 0.824,0.6147 0.985,1.7813 0.371,2.604 z"
     id="path110" />
  <path
     style="fill:#ffffff;fill-opacity:1;fill-rule:nonzero;stroke:none"
     d="m 186.73681,27.671079 c -0.183,1.0106 -1.146,1.688 -2.156,1.5106 -1.016,-0.1773 -1.688,-1.1453 -1.511,-2.156 0.177,-1.0106 1.14,-1.6879 2.156,-1.5106 1.011,0.1827 1.688,1.1453 1.511,2.156"
     id="path111" />
  <path
     style="fill:none;stroke:#231f20;stroke-width:1.33171;stroke-linecap:butt;stroke-linejoin:miter;stroke-miterlimit:4;stroke-dasharray:none;stroke-opacity:1"
     d="m 186.73681,27.671079 c -0.183,1.0106 -1.146,1.688 -2.156,1.5106 -1.016,-0.1773 -1.688,-1.1453 -1.511,-2.156 0.177,-1.0106 1.14,-1.6879 2.156,-1.5106 1.011,0.1827 1.688,1.1453 1.511,2.156 z"
     id="path112" />
  <path
     style="fill:#ffffff;fill-opacity:1;fill-rule:nonzero;stroke:none"
     d="m 226.49081,28.868379 c -0.614,0.824 -1.781,0.9857 -2.604,0.3707 -0.817,-0.6147 -0.984,-1.7814 -0.369,-2.604 0.615,-0.8227 1.781,-0.9893 2.604,-0.3707 0.823,0.6147 0.989,1.7813 0.369,2.604"
     id="path113" />
  <path
     style="fill:none;stroke:#231f20;stroke-width:1.33171;stroke-linecap:butt;stroke-linejoin:miter;stroke-miterlimit:4;stroke-dasharray:none;stroke-opacity:1"
     d="m 226.49081,28.868379 c -0.614,0.824 -1.781,0.9857 -2.604,0.3707 -0.817,-0.6147 -0.984,-1.7814 -0.369,-2.604 0.615,-0.8227 1.781,-0.9893 2.604,-0.3707 0.823,0.6147 0.989,1.7813 0.369,2.604 z"
     id="path114" />
  <path
     style="fill:#ffffff;fill-opacity:1;fill-rule:nonzero;stroke:none"
     d="m 299.11681,28.868379 c -0.615,0.824 -1.782,0.9857 -2.604,0.3707 -0.818,-0.6147 -0.984,-1.7814 -0.37,-2.604 0.614,-0.8227 1.782,-0.9893 2.604,-0.3707 0.823,0.6147 0.99,1.7813 0.37,2.604"
     id="path115" />
  <path
     style="fill:none;stroke:#231f20;stroke-width:1.33171;stroke-linecap:butt;stroke-linejoin:miter;stroke-miterlimit:4;stroke-dasharray:none;stroke-opacity:1"
     d="m 299.11681,28.868379 c -0.615,0.824 -1.782,0.9857 -2.604,0.3707 -0.818,-0.6147 -0.984,-1.7814 -0.37,-2.604 0.614,-0.8227 1.782,-0.9893 2.604,-0.3707 0.823,0.6147 0.99,1.7813 0.37,2.604 z"
     id="path116" />
  <path
     style="fill:none;stroke:#231f20;stroke-width:0.399514;stroke-linecap:butt;stroke-linejoin:miter;stroke-miterlimit:4;stroke-dasharray:none;stroke-opacity:1"
     d="m 68.752807,48.083079 c 0,6.885 12.348,13.296 12.348,13.296"
     id="path117" />
  <path
     style="fill:#231f20;fill-opacity:1;fill-rule:nonzero;stroke:none"
     d="m 82.168807,61.936079 c -0.599,-0.077 -1.39,-0.082 -1.953,0.052 l 0.745,-0.681 0.13,-1 c 0.214,0.536 0.671,1.181 1.078,1.629"
     id="path118" />
  <path
     style="fill:none;stroke:#231f20;stroke-width:0.399514;stroke-linecap:butt;stroke-linejoin:miter;stroke-miterlimit:4;stroke-dasharray:none;stroke-opacity:1"
     d="m 68.752807,48.556079 c 0,0 -3.0838,2.85 -1.8958,9.26"
     id="path119" />
</svg>
