<?xml version="1.0" encoding="UTF-8" standalone="no"?>
<!-- Created with Inkscape (http://www.inkscape.org/) -->

<svg
   version="1.1"
   id="svg1"
   width="360.46698"
   height="164.31221"
   viewBox="0 0 360.46697 164.31221"
   sodipodi:docname="cell.svg"
   xmlns:inkscape="http://www.inkscape.org/namespaces/inkscape"
   xmlns:sodipodi="http://sodipodi.sourceforge.net/DTD/sodipodi-0.dtd"
   xmlns="http://www.w3.org/2000/svg"
   xmlns:svg="http://www.w3.org/2000/svg">
  <sodipodi:namedview
     id="namedview1"
     pagecolor="#ffffff"
     bordercolor="#000000"
     borderopacity="0.25"
     inkscape:showpageshadow="2"
     inkscape:pageopacity="0.0"
     inkscape:pagecheckerboard="0"
     inkscape:deskcolor="#d1d1d1">
    <inkscape:page
       x="0"
       y="0"
       inkscape:label="1"
       id="page1"
       width="360.46698"
       height="164.31221"
       margin="0"
       bleed="0" />
  </sodipodi:namedview>
  <defs
     id="defs1" />
  <path
     style="fill:#ffffff;fill-opacity:1;fill-rule:nonzero;stroke:none"
     d="m 166.1,18.874 h 18.875 V 0 H 166.1 Z"
     id="path950" />
  <path
     style="fill:#ffffff;fill-opacity:1;fill-rule:nonzero;stroke:none"
     d="M 0,18.874 H 18.875 V 0 H 0 Z"
     id="path951" />
  <path
     style="fill:#ffffff;fill-opacity:1;fill-rule:nonzero;stroke:none"
     d="m 343.537,18.874 h 16.93 V 0 h -16.93 z"
     id="path952" />
  <path
     style="fill:#231f20;fill-opacity:1;fill-rule:nonzero;stroke:none"
     d="m 46.386,20.609 c 1.1,0.787 0.849,1.745 0,2.344 -0.25,0.177 -0.286,0.593 -0.542,0.745 -0.614,0.359 -2.281,-0.141 -2.224,-1.641 0.006,-0.104 -0.208,-0.896 -0.276,-1.511 -0.129,-1.208 0.194,-3.681 2.344,-5.312 1.016,-0.765 1.287,-0.021 0.97,0.411 -1.011,1.387 -0.83,1.704 -0.959,2.167 -0.453,1.557 0.687,2.797 0.687,2.797"
     id="path953" />
  <path
     style="fill:none;stroke:#231f20;stroke-width:0.332927;stroke-linecap:butt;stroke-linejoin:miter;stroke-miterlimit:4;stroke-dasharray:none;stroke-opacity:1"
     d="m 46.386,20.609 c 1.1,0.787 0.849,1.745 0,2.344 -0.25,0.177 -0.286,0.593 -0.542,0.745 -0.614,0.359 -2.281,-0.141 -2.224,-1.641 0.006,-0.104 -0.208,-0.896 -0.276,-1.511 -0.129,-1.208 0.194,-3.681 2.344,-5.312 1.016,-0.765 1.287,-0.021 0.97,0.411 -1.011,1.387 -0.83,1.704 -0.959,2.167 -0.453,1.557 0.687,2.797 0.687,2.797 z"
     id="path954" />
  <path
     style="fill:#231f20;fill-opacity:1;fill-rule:nonzero;stroke:none"
     d="m 45.328,39.333 c 2.256,0.224 2.724,-0.036 2.882,-0.984 0.109,-0.625 0.421,-1.177 0.505,-1.552 0.276,-1.271 0.213,-3.516 -1.615,-9.839 -0.417,-1.432 -0.99,-3.448 -1.152,-4.297 -0.265,-1.328 -2.301,0.011 -2.197,0.537 0.312,1.687 0.391,2.864 0.421,3.49 0.022,0.426 0.162,1.177 0.027,2.838 -0.204,2.52 -0.699,3.995 -0.62,6.115 0.031,0.979 -0.568,1.739 -0.036,2.681 0.52,0.954 1.785,1.011 1.785,1.011"
     id="path955" />
  <path
     style="fill:none;stroke:#231f20;stroke-width:0.565977;stroke-linecap:butt;stroke-linejoin:miter;stroke-miterlimit:4;stroke-dasharray:none;stroke-opacity:1"
     d="m 45.328,39.333 c 2.256,0.224 2.724,-0.036 2.882,-0.984 0.109,-0.625 0.421,-1.177 0.505,-1.552 0.276,-1.271 0.213,-3.516 -1.615,-9.839 -0.417,-1.432 -0.99,-3.448 -1.152,-4.297 -0.265,-1.328 -2.301,0.011 -2.197,0.537 0.312,1.687 0.391,2.864 0.421,3.49 0.022,0.426 0.162,1.177 0.027,2.838 -0.204,2.52 -0.699,3.995 -0.62,6.115 0.031,0.979 -0.568,1.739 -0.036,2.681 0.52,0.954 1.785,1.011 1.785,1.011 z"
     id="path956" />
  <path
     style="fill:#0098c9;fill-opacity:1;fill-rule:nonzero;stroke:none"
     d="m 47.423,66.036 c 0.599,-3.072 1.063,-3.671 1.583,-4.432 3.24,-4.787 0.828,-6.287 -2.052,-6.318 -3.391,-0.036 -4.61,-0.12 -5.219,6.146 -0.167,1.745 -1.687,8.344 -1.687,8.344 -0.865,2.292 -0.49,4.984 0.536,6.021 1.088,1.083 0.735,0.572 1.922,1.401 1.13,0.786 3.308,0.952 4.177,0.072 0.833,-0.844 0.417,-2.458 0.115,-4.858 -0.235,-1.902 0.625,-6.376 0.625,-6.376"
     id="path957" />
  <path
     style="fill:none;stroke:#231f20;stroke-width:0.565977;stroke-linecap:butt;stroke-linejoin:miter;stroke-miterlimit:4;stroke-dasharray:none;stroke-opacity:1"
     d="m 47.423,66.036 c 0.599,-3.072 1.063,-3.671 1.583,-4.432 3.24,-4.787 0.828,-6.287 -2.052,-6.318 -3.391,-0.036 -4.61,-0.12 -5.219,6.146 -0.167,1.745 -1.687,8.344 -1.687,8.344 -0.865,2.292 -0.49,4.984 0.536,6.021 1.088,1.083 0.735,0.572 1.922,1.401 1.13,0.786 3.308,0.952 4.177,0.072 0.833,-0.844 0.417,-2.458 0.115,-4.858 -0.235,-1.902 0.625,-6.376 0.625,-6.376 z"
     id="path958" />
  <path
     style="fill:#ffffff;fill-opacity:1;fill-rule:nonzero;stroke:none"
     d="m 38.715,82.036 c -0.105,0.218 -1.235,0.026 -1.36,0.532 -0.131,0.51 0.557,0.885 0.943,2.838 l 0.005,0.02 c 0.235,1.439 1.011,2.584 2.203,2.991 1.964,0.672 4.297,-0.953 5.204,-3.625 0.91,-2.678 0.057,-5.386 -1.912,-6.052 -1.88,-0.647 -4.099,0.822 -5.083,3.296"
     id="path959" />
  <path
     style="fill:none;stroke:#231f20;stroke-width:0.565977;stroke-linecap:butt;stroke-linejoin:miter;stroke-miterlimit:4;stroke-dasharray:none;stroke-opacity:1"
     d="m 38.715,82.036 c -0.105,0.218 -1.235,0.026 -1.36,0.532 -0.131,0.51 0.557,0.885 0.943,2.838 l 0.005,0.02 c 0.235,1.439 1.011,2.584 2.203,2.991 1.964,0.672 4.297,-0.953 5.204,-3.625 0.91,-2.678 0.057,-5.386 -1.912,-6.052 -1.88,-0.647 -4.099,0.822 -5.083,3.296 z"
     id="path960" />
  <path
     style="fill:#231f20;fill-opacity:1;fill-rule:nonzero;stroke:none"
     d="m 46.131,36.994 c -3.943,-0.74 -2.817,3.183 -2.907,3.651 -0.948,4.923 -0.89,5.297 -1.342,9.095 -0.667,5.489 -0.278,9.349 2.801,10.666 2.089,0.891 3.683,0.506 4.609,-0.432 1.027,-1.037 1.975,-4.068 0.099,-6.272 L 49.142,52.01 c -0.032,-1.166 -0.047,-1.74 -0.016,-2.312 0.057,-1 0.057,-2.078 0.057,-4.032 0.005,-3.478 -1.131,-7.145 -1.131,-7.145 -0.025,-1.251 -1.921,-1.527 -1.921,-1.527"
     id="path961" />
  <path
     style="fill:none;stroke:#231f20;stroke-width:0.565977;stroke-linecap:butt;stroke-linejoin:miter;stroke-miterlimit:4;stroke-dasharray:none;stroke-opacity:1"
     d="m 46.131,36.994 c -3.943,-0.74 -2.817,3.183 -2.907,3.651 -0.948,4.923 -0.89,5.297 -1.342,9.095 -0.667,5.489 -0.278,9.349 2.801,10.666 2.089,0.891 3.683,0.506 4.609,-0.432 1.027,-1.037 1.975,-4.068 0.099,-6.272 L 49.142,52.01 c -0.032,-1.166 -0.047,-1.74 -0.016,-2.312 0.057,-1 0.057,-2.078 0.057,-4.032 0.005,-3.478 -1.131,-7.145 -1.131,-7.145 -0.025,-1.251 -1.921,-1.527 -1.921,-1.527 z"
     id="path962" />
  <path
     style="fill:#0098c9;fill-opacity:1;fill-rule:nonzero;stroke:none"
     d="m 48.787,53.322 -7.792,0.59 c 0.089,0.65 0.209,1.244 0.344,1.817 -0.011,0.079 -0.015,0.156 -0.031,0.229 -0.198,0.782 0.178,1.287 0.834,2.088 0.697,1.391 1.686,2.328 3.12,2.672 2.208,0.536 3.713,-0.114 4.473,-1.192 0.839,-1.193 1.271,-4.344 -0.948,-6.204"
     id="path963" />
  <path
     style="fill:none;stroke:#231f20;stroke-width:0.565977;stroke-linecap:butt;stroke-linejoin:miter;stroke-miterlimit:4;stroke-dasharray:none;stroke-opacity:1"
     d="m 48.787,53.322 -7.792,0.59 c 0.089,0.65 0.209,1.244 0.344,1.817 -0.011,0.079 -0.015,0.156 -0.031,0.229 -0.198,0.782 0.178,1.287 0.834,2.088 0.697,1.391 1.686,2.328 3.12,2.672 2.208,0.536 3.713,-0.114 4.473,-1.192 0.839,-1.193 1.271,-4.344 -0.948,-6.204 z"
     id="path964" />
  <path
     style="fill:#231f20;fill-opacity:1;fill-rule:nonzero;stroke:none"
     d="m 42.891,95.292 c -0.348,-0.542 -0.063,-2.47 -0.457,-4.027 -0.262,-1.052 0.213,-3.76 -0.131,-4.787 -0.312,-0.942 -0.369,-1.405 0.645,-1.946 0.604,-0.324 1.97,-0.554 2.23,-0.115 0.614,1.025 0.74,1.963 0.661,3.025 -0.093,1.214 -0.629,4.479 -0.781,5.074 -0.391,1.473 -0.094,2.145 -0.167,2.546 -0.119,0.755 -0.437,0.891 -0.943,0.916 -0.957,0.048 -1.057,-0.686 -1.057,-0.686"
     id="path965" />
  <path
     style="fill:none;stroke:#231f20;stroke-width:0.565977;stroke-linecap:butt;stroke-linejoin:miter;stroke-miterlimit:4;stroke-dasharray:none;stroke-opacity:1"
     d="m 42.891,95.292 c -0.348,-0.542 -0.063,-2.47 -0.457,-4.027 -0.262,-1.052 0.213,-3.76 -0.131,-4.787 -0.312,-0.942 -0.369,-1.405 0.645,-1.946 0.604,-0.324 1.97,-0.554 2.23,-0.115 0.614,1.025 0.74,1.963 0.661,3.025 -0.093,1.214 -0.629,4.479 -0.781,5.074 -0.391,1.473 -0.094,2.145 -0.167,2.546 -0.119,0.755 -0.437,0.891 -0.943,0.916 -0.957,0.048 -1.057,-0.686 -1.057,-0.686 z"
     id="path966" />
  <path
     style="fill:#231f20;fill-opacity:1;fill-rule:nonzero;stroke:none"
     d="m 42.928,86.234 c -1.286,-0.145 -0.688,-2.098 -0.609,-2.63 0.077,-0.542 0.129,-2.094 0.009,-3.307 -0.109,-1.224 0.267,-2.792 0.048,-5.109 -0.114,-1.219 0.547,-2.475 2.318,-2.563 1.754,-0.089 2.464,0.864 2.38,2.359 -0.083,1.49 -0.798,2.86 -0.984,4.36 -0.194,1.5 -0.246,3.046 -0.235,4.26 0.021,1.38 -0.484,2.073 -0.921,2.265 -1.095,0.48 -2.006,0.365 -2.006,0.365"
     id="path967" />
  <path
     style="fill:none;stroke:#231f20;stroke-width:0.565977;stroke-linecap:butt;stroke-linejoin:miter;stroke-miterlimit:4;stroke-dasharray:none;stroke-opacity:1"
     d="m 42.928,86.234 c -1.286,-0.145 -0.688,-2.098 -0.609,-2.63 0.077,-0.542 0.129,-2.094 0.009,-3.307 -0.109,-1.224 0.267,-2.792 0.048,-5.109 -0.114,-1.219 0.547,-2.475 2.318,-2.563 1.754,-0.089 2.464,0.864 2.38,2.359 -0.083,1.49 -0.798,2.86 -0.984,4.36 -0.194,1.5 -0.246,3.046 -0.235,4.26 0.021,1.38 -0.484,2.073 -0.921,2.265 -1.095,0.48 -2.006,0.365 -2.006,0.365 z"
     id="path968" />
  <path
     style="fill:#231f20;fill-opacity:1;fill-rule:nonzero;stroke:none"
     d="m 308.787,23.953 c 1.3,0.375 1.38,1.364 0.78,2.208 -0.18,0.256 -0.07,0.651 -0.26,0.885 -0.46,0.542 -2.2,0.631 -2.64,-0.806 -0.03,-0.099 -0.5,-0.776 -0.77,-1.334 -0.52,-1.094 -1.04,-3.532 0.44,-5.786 0.7,-1.063 1.2,-0.454 1.05,0.068 -0.49,1.64 -0.21,1.88 -0.18,2.353 0.09,1.62 1.58,2.412 1.58,2.412"
     id="path969" />
  <path
     style="fill:none;stroke:#231f20;stroke-width:0.332927;stroke-linecap:butt;stroke-linejoin:miter;stroke-miterlimit:4;stroke-dasharray:none;stroke-opacity:1"
     d="m 308.787,23.953 c 1.3,0.375 1.38,1.364 0.78,2.208 -0.18,0.256 -0.07,0.651 -0.26,0.885 -0.46,0.542 -2.2,0.631 -2.64,-0.806 -0.03,-0.099 -0.5,-0.776 -0.77,-1.334 -0.52,-1.094 -1.04,-3.532 0.44,-5.786 0.7,-1.063 1.2,-0.454 1.05,0.068 -0.49,1.64 -0.21,1.88 -0.18,2.353 0.09,1.62 1.58,2.412 1.58,2.412 z"
     id="path970" />
  <path
     style="fill:#231f20;fill-opacity:1;fill-rule:nonzero;stroke:none"
     d="m 314.047,41.953 c 2.19,-0.536 2.55,-0.943 2.38,-1.885 -0.11,-0.631 0.01,-1.251 -0.04,-1.636 -0.17,-1.287 -0.98,-3.386 -4.81,-8.734 -0.87,-1.209 -2.08,-2.917 -2.52,-3.662 -0.69,-1.162 -2.16,0.776 -1.89,1.234 0.86,1.49 1.33,2.574 1.56,3.152 0.17,0.395 0.55,1.056 0.98,2.667 0.65,2.443 0.67,4 1.45,5.968 0.36,0.912 0.05,1.828 0.86,2.541 0.82,0.724 2.03,0.355 2.03,0.355"
     id="path971" />
  <path
     style="fill:none;stroke:#231f20;stroke-width:0.565977;stroke-linecap:butt;stroke-linejoin:miter;stroke-miterlimit:4;stroke-dasharray:none;stroke-opacity:1"
     d="m 314.047,41.953 c 2.19,-0.536 2.55,-0.943 2.38,-1.885 -0.11,-0.631 0.01,-1.251 -0.04,-1.636 -0.17,-1.287 -0.98,-3.386 -4.81,-8.734 -0.87,-1.209 -2.08,-2.917 -2.52,-3.662 -0.69,-1.162 -2.16,0.776 -1.89,1.234 0.86,1.49 1.33,2.574 1.56,3.152 0.17,0.395 0.55,1.056 0.98,2.667 0.65,2.443 0.67,4 1.45,5.968 0.36,0.912 0.05,1.828 0.86,2.541 0.82,0.724 2.03,0.355 2.03,0.355 z"
     id="path972" />
  <path
     style="fill:#0098c9;fill-opacity:1;fill-rule:nonzero;stroke:none"
     d="m 324.937,66.426 c -0.47,-3.098 -0.23,-3.812 0.01,-4.702 1.45,-5.599 -1.32,-6.208 -4.05,-5.271 -3.2,1.093 -4.38,1.421 -2.87,7.536 0.44,1.699 1.2,8.428 1.2,8.428 -0.05,2.448 1.21,4.859 2.52,5.489 1.38,0.667 0.88,0.296 2.27,0.682 1.33,0.365 3.44,-0.208 3.97,-1.328 0.5,-1.067 -0.43,-2.452 -1.51,-4.619 -0.86,-1.709 -1.54,-6.215 -1.54,-6.215"
     id="path973" />
  <path
     style="fill:none;stroke:#231f20;stroke-width:0.565977;stroke-linecap:butt;stroke-linejoin:miter;stroke-miterlimit:4;stroke-dasharray:none;stroke-opacity:1"
     d="m 324.937,66.426 c -0.47,-3.098 -0.23,-3.812 0.01,-4.702 1.45,-5.599 -1.32,-6.208 -4.05,-5.271 -3.2,1.093 -4.38,1.421 -2.87,7.536 0.44,1.699 1.2,8.428 1.2,8.428 -0.05,2.448 1.21,4.859 2.52,5.489 1.38,0.667 0.88,0.296 2.27,0.682 1.33,0.365 3.44,-0.208 3.97,-1.328 0.5,-1.067 -0.43,-2.452 -1.51,-4.619 -0.86,-1.709 -1.54,-6.215 -1.54,-6.215 z"
     id="path974" />
  <path
     style="fill:#ffffff;fill-opacity:1;fill-rule:nonzero;stroke:none"
     d="m 322.067,84.417 c -0.02,0.239 -1.16,0.432 -1.11,0.952 0.05,0.527 0.83,0.652 1.85,2.365 l 0.01,0.016 c 0.69,1.276 1.81,2.099 3.06,2.083 2.09,-0.025 3.74,-2.333 3.7,-5.156 -0.03,-2.828 -1.74,-5.093 -3.82,-5.068 -1.99,0.021 -3.59,2.141 -3.69,4.808"
     id="path975" />
  <path
     style="fill:none;stroke:#231f20;stroke-width:0.565977;stroke-linecap:butt;stroke-linejoin:miter;stroke-miterlimit:4;stroke-dasharray:none;stroke-opacity:1"
     d="m 322.067,84.417 c -0.02,0.239 -1.16,0.432 -1.11,0.952 0.05,0.527 0.83,0.652 1.85,2.365 l 0.01,0.016 c 0.69,1.276 1.81,2.099 3.06,2.083 2.09,-0.025 3.74,-2.333 3.7,-5.156 -0.03,-2.828 -1.74,-5.093 -3.82,-5.068 -1.99,0.021 -3.59,2.141 -3.69,4.808 z"
     id="path976" />
  <path
     style="fill:#231f20;fill-opacity:1;fill-rule:nonzero;stroke:none"
     d="m 314.017,39.484 c -3.97,0.614 -1.59,3.938 -1.52,4.412 0.75,4.958 0.93,5.292 1.77,9.021 1.21,5.395 2.86,8.905 6.21,9.119 2.26,0.146 3.63,-0.76 4.19,-1.947 0.62,-1.324 0.5,-4.496 -2,-5.948 l -0.8,-1.511 c -0.41,-1.089 -0.63,-1.62 -0.78,-2.172 -0.28,-0.964 -0.64,-1.98 -1.3,-3.822 -1.15,-3.276 -3.45,-6.36 -3.45,-6.36 -0.44,-1.162 -2.32,-0.792 -2.32,-0.792"
     id="path977" />
  <path
     style="fill:none;stroke:#231f20;stroke-width:0.565977;stroke-linecap:butt;stroke-linejoin:miter;stroke-miterlimit:4;stroke-dasharray:none;stroke-opacity:1"
     d="m 314.017,39.484 c -3.97,0.614 -1.59,3.938 -1.52,4.412 0.75,4.958 0.93,5.292 1.77,9.021 1.21,5.395 2.86,8.905 6.21,9.119 2.26,0.146 3.63,-0.76 4.19,-1.947 0.62,-1.324 0.5,-4.496 -2,-5.948 l -0.8,-1.511 c -0.41,-1.089 -0.63,-1.62 -0.78,-2.172 -0.28,-0.964 -0.64,-1.98 -1.3,-3.822 -1.15,-3.276 -3.45,-6.36 -3.45,-6.36 -0.44,-1.162 -2.32,-0.792 -2.32,-0.792 z"
     id="path978" />
  <path
     style="fill:#0098c9;fill-opacity:1;fill-rule:nonzero;stroke:none"
     d="m 321.977,53.989 -7.15,3.152 c 0.3,0.583 0.61,1.109 0.93,1.599 0.02,0.077 0.03,0.156 0.04,0.229 0.08,0.801 0.6,1.156 1.49,1.692 1.12,1.079 2.37,1.631 3.83,1.48 2.26,-0.24 3.46,-1.349 3.82,-2.62 0.39,-1.407 -0.25,-4.521 -2.96,-5.532"
     id="path979" />
  <path
     style="fill:none;stroke:#231f20;stroke-width:0.565977;stroke-linecap:butt;stroke-linejoin:miter;stroke-miterlimit:4;stroke-dasharray:none;stroke-opacity:1"
     d="m 321.977,53.989 -7.15,3.152 c 0.3,0.583 0.61,1.109 0.93,1.599 0.02,0.077 0.03,0.156 0.04,0.229 0.08,0.801 0.6,1.156 1.49,1.692 1.12,1.079 2.37,1.631 3.83,1.48 2.26,-0.24 3.46,-1.349 3.82,-2.62 0.39,-1.407 -0.25,-4.521 -2.96,-5.532 z"
     id="path980" />
  <path
     style="fill:#231f20;fill-opacity:1;fill-rule:nonzero;stroke:none"
     d="m 330.427,95.516 c -0.51,-0.391 -0.88,-2.303 -1.78,-3.642 -0.6,-0.905 -1.05,-3.614 -1.72,-4.468 -0.6,-0.781 -0.81,-1.204 -0.04,-2.052 0.46,-0.505 1.68,-1.177 2.07,-0.854 0.91,0.765 1.35,1.604 1.63,2.636 0.31,1.172 0.9,4.432 0.96,5.041 0.12,1.521 0.62,2.057 0.69,2.459 0.14,0.744 -0.12,0.984 -0.58,1.176 -0.89,0.365 -1.23,-0.296 -1.23,-0.296"
     id="path981" />
  <path
     style="fill:none;stroke:#231f20;stroke-width:0.565977;stroke-linecap:butt;stroke-linejoin:miter;stroke-miterlimit:4;stroke-dasharray:none;stroke-opacity:1"
     d="m 330.427,95.516 c -0.51,-0.391 -0.88,-2.303 -1.78,-3.642 -0.6,-0.905 -1.05,-3.614 -1.72,-4.468 -0.6,-0.781 -0.81,-1.204 -0.04,-2.052 0.46,-0.505 1.68,-1.177 2.07,-0.854 0.91,0.765 1.35,1.604 1.63,2.636 0.31,1.172 0.9,4.432 0.96,5.041 0.12,1.521 0.62,2.057 0.69,2.459 0.14,0.744 -0.12,0.984 -0.58,1.176 -0.89,0.365 -1.23,-0.296 -1.23,-0.296 z"
     id="path982" />
  <path
     style="fill:#231f20;fill-opacity:1;fill-rule:nonzero;stroke:none"
     d="m 327.437,86.964 c -1.26,0.296 -1.35,-1.746 -1.45,-2.271 -0.11,-0.537 -0.58,-2.021 -1.1,-3.125 -0.51,-1.115 -0.68,-2.719 -1.66,-4.828 -0.51,-1.11 -0.31,-2.516 1.34,-3.194 1.62,-0.666 2.6,-0.005 3.02,1.432 0.42,1.434 0.21,2.959 0.53,4.439 0.32,1.479 0.79,2.952 1.21,4.093 0.48,1.298 0.22,2.115 -0.12,2.443 -0.87,0.817 -1.77,1.011 -1.77,1.011"
     id="path983" />
  <path
     style="fill:none;stroke:#231f20;stroke-width:0.565977;stroke-linecap:butt;stroke-linejoin:miter;stroke-miterlimit:4;stroke-dasharray:none;stroke-opacity:1"
     d="m 327.437,86.964 c -1.26,0.296 -1.35,-1.746 -1.45,-2.271 -0.11,-0.537 -0.58,-2.021 -1.1,-3.125 -0.51,-1.115 -0.68,-2.719 -1.66,-4.828 -0.51,-1.11 -0.31,-2.516 1.34,-3.194 1.62,-0.666 2.6,-0.005 3.02,1.432 0.42,1.434 0.21,2.959 0.53,4.439 0.32,1.479 0.79,2.952 1.21,4.093 0.48,1.298 0.22,2.115 -0.12,2.443 -0.87,0.817 -1.77,1.011 -1.77,1.011 z"
     id="path984" />
  <path
     style="fill:#231f20;fill-opacity:1;fill-rule:nonzero;stroke:none"
     d="m 266.907,13.484 c 1.31,0.376 1.38,1.365 0.79,2.209 -0.18,0.255 -0.07,0.651 -0.26,0.885 -0.46,0.542 -2.2,0.63 -2.65,-0.802 -0.03,-0.104 -0.49,-0.782 -0.76,-1.339 -0.53,-1.093 -1.05,-3.531 0.44,-5.787 0.69,-1.062 1.19,-0.452 1.04,0.068 -0.49,1.642 -0.2,1.88 -0.18,2.355 0.1,1.62 1.58,2.411 1.58,2.411"
     id="path985" />
  <path
     style="fill:none;stroke:#231f20;stroke-width:0.332927;stroke-linecap:butt;stroke-linejoin:miter;stroke-miterlimit:4;stroke-dasharray:none;stroke-opacity:1"
     d="m 266.907,13.484 c 1.31,0.376 1.38,1.365 0.79,2.209 -0.18,0.255 -0.07,0.651 -0.26,0.885 -0.46,0.542 -2.2,0.63 -2.65,-0.802 -0.03,-0.104 -0.49,-0.782 -0.76,-1.339 -0.53,-1.093 -1.05,-3.531 0.44,-5.787 0.69,-1.062 1.19,-0.452 1.04,0.068 -0.49,1.642 -0.2,1.88 -0.18,2.355 0.1,1.62 1.58,2.411 1.58,2.411 z"
     id="path986" />
  <path
     style="fill:#231f20;fill-opacity:1;fill-rule:nonzero;stroke:none"
     d="m 272.167,31.484 c 2.2,-0.536 2.56,-0.943 2.38,-1.886 -0.1,-0.629 0.01,-1.249 -0.04,-1.634 -0.16,-1.287 -0.97,-3.386 -4.8,-8.735 -0.87,-1.208 -2.09,-2.917 -2.52,-3.661 -0.7,-1.162 -2.17,0.776 -1.9,1.234 0.86,1.49 1.33,2.572 1.57,3.151 0.16,0.396 0.54,1.057 0.97,2.667 0.65,2.442 0.68,4 1.45,5.968 0.36,0.912 0.06,1.829 0.87,2.542 0.81,0.73 2.02,0.354 2.02,0.354"
     id="path987" />
  <path
     style="fill:none;stroke:#231f20;stroke-width:0.565977;stroke-linecap:butt;stroke-linejoin:miter;stroke-miterlimit:4;stroke-dasharray:none;stroke-opacity:1"
     d="m 272.167,31.484 c 2.2,-0.536 2.56,-0.943 2.38,-1.886 -0.1,-0.629 0.01,-1.249 -0.04,-1.634 -0.16,-1.287 -0.97,-3.386 -4.8,-8.735 -0.87,-1.208 -2.09,-2.917 -2.52,-3.661 -0.7,-1.162 -2.17,0.776 -1.9,1.234 0.86,1.49 1.33,2.572 1.57,3.151 0.16,0.396 0.54,1.057 0.97,2.667 0.65,2.442 0.68,4 1.45,5.968 0.36,0.912 0.06,1.829 0.87,2.542 0.81,0.73 2.02,0.354 2.02,0.354 z"
     id="path988" />
  <path
     style="fill:#0098c9;fill-opacity:1;fill-rule:nonzero;stroke:none"
     d="m 283.057,55.958 c -0.46,-3.098 -0.22,-3.813 0.01,-4.704 1.46,-5.598 -1.31,-6.208 -4.04,-5.27 -3.21,1.094 -4.38,1.422 -2.87,7.537 0.43,1.697 1.2,8.427 1.2,8.427 -0.05,2.448 1.2,4.86 2.51,5.494 1.39,0.662 0.89,0.298 2.28,0.678 1.33,0.364 3.44,-0.203 3.96,-1.323 0.51,-1.073 -0.42,-2.459 -1.51,-4.625 -0.85,-1.708 -1.54,-6.214 -1.54,-6.214"
     id="path989" />
  <path
     style="fill:none;stroke:#231f20;stroke-width:0.565977;stroke-linecap:butt;stroke-linejoin:miter;stroke-miterlimit:4;stroke-dasharray:none;stroke-opacity:1"
     d="m 283.057,55.958 c -0.46,-3.098 -0.22,-3.813 0.01,-4.704 1.46,-5.598 -1.31,-6.208 -4.04,-5.27 -3.21,1.094 -4.38,1.422 -2.87,7.537 0.43,1.697 1.2,8.427 1.2,8.427 -0.05,2.448 1.2,4.86 2.51,5.494 1.39,0.662 0.89,0.298 2.28,0.678 1.33,0.364 3.44,-0.203 3.96,-1.323 0.51,-1.073 -0.42,-2.459 -1.51,-4.625 -0.85,-1.708 -1.54,-6.214 -1.54,-6.214 z"
     id="path990" />
  <path
     style="fill:#ffffff;fill-opacity:1;fill-rule:nonzero;stroke:none"
     d="m 280.197,73.948 c -0.03,0.24 -1.16,0.432 -1.11,0.953 0.04,0.525 0.82,0.651 1.84,2.364 l 0.01,0.016 c 0.7,1.276 1.82,2.099 3.07,2.084 2.08,-0.027 3.73,-2.333 3.7,-5.157 -0.04,-2.828 -1.75,-5.094 -3.83,-5.067 -1.98,0.02 -3.59,2.145 -3.68,4.807"
     id="path991" />
  <path
     style="fill:none;stroke:#231f20;stroke-width:0.565977;stroke-linecap:butt;stroke-linejoin:miter;stroke-miterlimit:4;stroke-dasharray:none;stroke-opacity:1"
     d="m 280.197,73.948 c -0.03,0.24 -1.16,0.432 -1.11,0.953 0.04,0.525 0.82,0.651 1.84,2.364 l 0.01,0.016 c 0.7,1.276 1.82,2.099 3.07,2.084 2.08,-0.027 3.73,-2.333 3.7,-5.157 -0.04,-2.828 -1.75,-5.094 -3.83,-5.067 -1.98,0.02 -3.59,2.145 -3.68,4.807 z"
     id="path992" />
  <path
     style="fill:#231f20;fill-opacity:1;fill-rule:nonzero;stroke:none"
     d="m 272.137,29.016 c -3.96,0.62 -1.59,3.937 -1.52,4.41 0.76,4.959 0.93,5.292 1.77,9.022 1.21,5.396 2.87,8.906 6.21,9.12 2.27,0.145 3.64,-0.756 4.2,-1.948 0.62,-1.318 0.5,-4.495 -2,-5.948 l -0.81,-1.511 c -0.41,-1.088 -0.62,-1.62 -0.78,-2.172 -0.28,-0.963 -0.64,-1.979 -1.29,-3.823 -1.16,-3.276 -3.45,-6.354 -3.45,-6.354 -0.44,-1.167 -2.33,-0.796 -2.33,-0.796"
     id="path993" />
  <path
     style="fill:none;stroke:#231f20;stroke-width:0.565977;stroke-linecap:butt;stroke-linejoin:miter;stroke-miterlimit:4;stroke-dasharray:none;stroke-opacity:1"
     d="m 272.137,29.016 c -3.96,0.62 -1.59,3.937 -1.52,4.41 0.76,4.959 0.93,5.292 1.77,9.022 1.21,5.396 2.87,8.906 6.21,9.12 2.27,0.145 3.64,-0.756 4.2,-1.948 0.62,-1.318 0.5,-4.495 -2,-5.948 l -0.81,-1.511 c -0.41,-1.088 -0.62,-1.62 -0.78,-2.172 -0.28,-0.963 -0.64,-1.979 -1.29,-3.823 -1.16,-3.276 -3.45,-6.354 -3.45,-6.354 -0.44,-1.167 -2.33,-0.796 -2.33,-0.796 z"
     id="path994" />
  <path
     style="fill:#0098c9;fill-opacity:1;fill-rule:nonzero;stroke:none"
     d="m 280.097,43.521 -7.14,3.151 c 0.29,0.582 0.61,1.109 0.92,1.598 0.02,0.079 0.04,0.156 0.05,0.23 0.07,0.802 0.6,1.156 1.49,1.693 1.11,1.077 2.36,1.629 3.83,1.479 2.26,-0.24 3.46,-1.35 3.82,-2.62 0.39,-1.407 -0.26,-4.52 -2.97,-5.531"
     id="path995" />
  <path
     style="fill:none;stroke:#231f20;stroke-width:0.565977;stroke-linecap:butt;stroke-linejoin:miter;stroke-miterlimit:4;stroke-dasharray:none;stroke-opacity:1"
     d="m 280.097,43.521 -7.14,3.151 c 0.29,0.582 0.61,1.109 0.92,1.598 0.02,0.079 0.04,0.156 0.05,0.23 0.07,0.802 0.6,1.156 1.49,1.693 1.11,1.077 2.36,1.629 3.83,1.479 2.26,-0.24 3.46,-1.35 3.82,-2.62 0.39,-1.407 -0.26,-4.52 -2.97,-5.531 z"
     id="path996" />
  <path
     style="fill:#231f20;fill-opacity:1;fill-rule:nonzero;stroke:none"
     d="m 288.547,85.046 c -0.5,-0.39 -0.88,-2.301 -1.77,-3.64 -0.6,-0.906 -1.05,-3.614 -1.73,-4.469 -0.6,-0.781 -0.81,-1.203 -0.03,-2.052 0.46,-0.505 1.67,-1.177 2.07,-0.849 0.91,0.761 1.35,1.6 1.62,2.63 0.32,1.172 0.91,4.432 0.96,5.042 0.12,1.521 0.63,2.057 0.7,2.458 0.13,0.746 -0.12,0.984 -0.59,1.178 -0.88,0.364 -1.23,-0.298 -1.23,-0.298"
     id="path997" />
  <path
     style="fill:none;stroke:#231f20;stroke-width:0.565977;stroke-linecap:butt;stroke-linejoin:miter;stroke-miterlimit:4;stroke-dasharray:none;stroke-opacity:1"
     d="m 288.547,85.046 c -0.5,-0.39 -0.88,-2.301 -1.77,-3.64 -0.6,-0.906 -1.05,-3.614 -1.73,-4.469 -0.6,-0.781 -0.81,-1.203 -0.03,-2.052 0.46,-0.505 1.67,-1.177 2.07,-0.849 0.91,0.761 1.35,1.6 1.62,2.63 0.32,1.172 0.91,4.432 0.96,5.042 0.12,1.521 0.63,2.057 0.7,2.458 0.13,0.746 -0.12,0.984 -0.59,1.178 -0.88,0.364 -1.23,-0.298 -1.23,-0.298 z"
     id="path998" />
  <path
     style="fill:#231f20;fill-opacity:1;fill-rule:nonzero;stroke:none"
     d="m 285.567,76.494 c -1.26,0.292 -1.35,-1.744 -1.46,-2.27 -0.1,-0.536 -0.57,-2.022 -1.09,-3.126 -0.51,-1.114 -0.68,-2.718 -1.66,-4.833 -0.51,-1.104 -0.31,-2.509 1.33,-3.187 1.63,-0.666 2.6,-0.005 3.03,1.427 0.42,1.437 0.21,2.964 0.53,4.443 0.32,1.478 0.78,2.953 1.2,4.093 0.48,1.297 0.23,2.115 -0.12,2.443 -0.87,0.818 -1.76,1.01 -1.76,1.01"
     id="path999" />
  <path
     style="fill:none;stroke:#231f20;stroke-width:0.565977;stroke-linecap:butt;stroke-linejoin:miter;stroke-miterlimit:4;stroke-dasharray:none;stroke-opacity:1"
     d="m 285.567,76.494 c -1.26,0.292 -1.35,-1.744 -1.46,-2.27 -0.1,-0.536 -0.57,-2.022 -1.09,-3.126 -0.51,-1.114 -0.68,-2.718 -1.66,-4.833 -0.51,-1.104 -0.31,-2.509 1.33,-3.187 1.63,-0.666 2.6,-0.005 3.03,1.427 0.42,1.437 0.21,2.964 0.53,4.443 0.32,1.478 0.78,2.953 1.2,4.093 0.48,1.297 0.23,2.115 -0.12,2.443 -0.87,0.818 -1.76,1.01 -1.76,1.01 z"
     id="path1000" />
  <path
     style="fill:#ffffff;fill-opacity:1;fill-rule:nonzero;stroke:none"
     d="m 292.847,96.417 c -0.63,-0.813 -1.8,-0.969 -2.61,-0.349 -0.81,0.625 -0.98,1.792 -0.35,2.609 0.62,0.817 1.79,0.973 2.6,0.349 0.83,-0.62 0.98,-1.792 0.36,-2.609"
     id="path1001" />
  <path
     style="fill:none;stroke:#231f20;stroke-width:1.33171;stroke-linecap:butt;stroke-linejoin:miter;stroke-miterlimit:4;stroke-dasharray:none;stroke-opacity:1"
     d="m 292.847,96.417 c -0.63,-0.813 -1.8,-0.969 -2.61,-0.349 -0.81,0.625 -0.98,1.792 -0.35,2.609 0.62,0.817 1.79,0.973 2.6,0.349 0.83,-0.62 0.98,-1.792 0.36,-2.609 z"
     id="path1002" />
  <path
     style="fill:#ffffff;fill-opacity:1;fill-rule:nonzero;stroke:none"
     d="m 333.157,96.417 c -0.63,-0.813 -1.79,-0.969 -2.61,-0.349 -0.81,0.625 -0.97,1.792 -0.35,2.609 0.63,0.817 1.79,0.973 2.61,0.349 0.82,-0.62 0.97,-1.792 0.35,-2.609"
     id="path1003" />
  <path
     style="fill:none;stroke:#231f20;stroke-width:1.33171;stroke-linecap:butt;stroke-linejoin:miter;stroke-miterlimit:4;stroke-dasharray:none;stroke-opacity:1"
     d="m 333.157,96.417 c -0.63,-0.813 -1.79,-0.969 -2.61,-0.349 -0.81,0.625 -0.97,1.792 -0.35,2.609 0.63,0.817 1.79,0.973 2.61,0.349 0.82,-0.62 0.97,-1.792 0.35,-2.609 z"
     id="path1004" />
  <path
     style="fill:#231f20;fill-opacity:1;fill-rule:nonzero;stroke:none"
     d="m 79.715,43.469 c 1.301,-0.376 1.895,0.416 1.837,1.452 -0.014,0.308 0.292,0.595 0.251,0.891 -0.099,0.698 -1.527,1.704 -2.667,0.724 -0.078,-0.067 -0.828,-0.391 -1.36,-0.724 -1.02,-0.646 -2.765,-2.432 -2.708,-5.13 0.027,-1.276 0.776,-1.021 0.923,-0.505 0.463,1.651 0.823,1.708 1.104,2.099 0.937,1.317 2.62,1.193 2.62,1.193"
     id="path1005" />
  <path
     style="fill:none;stroke:#231f20;stroke-width:0.332927;stroke-linecap:butt;stroke-linejoin:miter;stroke-miterlimit:4;stroke-dasharray:none;stroke-opacity:1"
     d="m 79.715,43.469 c 1.301,-0.376 1.895,0.416 1.837,1.452 -0.014,0.308 0.292,0.595 0.251,0.891 -0.099,0.698 -1.527,1.704 -2.667,0.724 -0.078,-0.067 -0.828,-0.391 -1.36,-0.724 -1.02,-0.646 -2.765,-2.432 -2.708,-5.13 0.027,-1.276 0.776,-1.021 0.923,-0.505 0.463,1.651 0.823,1.708 1.104,2.099 0.937,1.317 2.62,1.193 2.62,1.193 z"
     id="path1006" />
  <path
     style="fill:#231f20;fill-opacity:1;fill-rule:nonzero;stroke:none"
     d="m 93.746,55.906 c 1.578,-1.625 1.666,-2.156 1.021,-2.865 -0.428,-0.473 -0.661,-1.063 -0.912,-1.364 -0.823,-1 -2.62,-2.344 -8.719,-4.828 -1.38,-0.563 -3.317,-1.365 -4.078,-1.76 -1.208,-0.62 -1.422,1.807 -0.948,2.052 1.516,0.801 2.494,1.468 3.005,1.833 0.349,0.25 1.021,0.604 2.24,1.739 1.855,1.724 2.703,3.027 4.407,4.276 0.796,0.584 1.02,1.527 2.088,1.699 1.073,0.177 1.896,-0.782 1.896,-0.782"
     id="path1007" />
  <path
     style="fill:none;stroke:#231f20;stroke-width:0.565977;stroke-linecap:butt;stroke-linejoin:miter;stroke-miterlimit:4;stroke-dasharray:none;stroke-opacity:1"
     d="m 93.746,55.906 c 1.578,-1.625 1.666,-2.156 1.021,-2.865 -0.428,-0.473 -0.661,-1.063 -0.912,-1.364 -0.823,-1 -2.62,-2.344 -8.719,-4.828 -1.38,-0.563 -3.317,-1.365 -4.078,-1.76 -1.208,-0.62 -1.422,1.807 -0.948,2.052 1.516,0.801 2.494,1.468 3.005,1.833 0.349,0.25 1.021,0.604 2.24,1.739 1.855,1.724 2.703,3.027 4.407,4.276 0.796,0.584 1.02,1.527 2.088,1.699 1.073,0.177 1.896,-0.782 1.896,-0.782 z"
     id="path1008" />
  <path
     style="fill:#0098c9;fill-opacity:1;fill-rule:nonzero;stroke:none"
     d="m 115.251,72 c -1.667,-2.656 -1.735,-3.407 -1.88,-4.318 -0.901,-5.708 -3.688,-5.156 -5.813,-3.204 -2.5,2.287 -3.443,3.058 0.396,8.054 1.073,1.38 4.474,7.238 4.474,7.238 0.932,2.262 3.052,3.97 4.51,4.022 1.532,0.052 0.928,-0.079 2.354,-0.287 1.366,-0.203 3.068,-1.568 3.099,-2.807 0.037,-1.182 -1.375,-2.078 -3.239,-3.625 C 117.683,75.849 115.251,72 115.251,72"
     id="path1009" />
  <path
     style="fill:none;stroke:#231f20;stroke-width:0.565977;stroke-linecap:butt;stroke-linejoin:miter;stroke-miterlimit:4;stroke-dasharray:none;stroke-opacity:1"
     d="m 115.251,72 c -1.667,-2.656 -1.735,-3.407 -1.88,-4.318 -0.901,-5.708 -3.688,-5.156 -5.813,-3.204 -2.5,2.287 -3.443,3.058 0.396,8.054 1.073,1.38 4.474,7.238 4.474,7.238 0.932,2.262 3.052,3.97 4.51,4.022 1.532,0.052 0.928,-0.079 2.354,-0.287 1.366,-0.203 3.068,-1.568 3.099,-2.807 0.037,-1.182 -1.375,-2.078 -3.239,-3.625 C 117.683,75.849 115.251,72 115.251,72 Z"
     id="path1010" />
  <path
     style="fill:#ffffff;fill-opacity:1;fill-rule:nonzero;stroke:none"
     d="m 119.839,89.625 c 0.073,0.235 -0.885,0.859 -0.635,1.323 0.255,0.458 1.015,0.26 2.635,1.421 l 0.016,0.011 c 1.156,0.89 2.511,1.198 3.651,0.677 1.895,-0.855 2.485,-3.631 1.318,-6.203 -1.167,-2.578 -3.641,-3.969 -5.532,-3.114 -1.812,0.817 -2.432,3.405 -1.453,5.885"
     id="path1011" />
  <path
     style="fill:none;stroke:#231f20;stroke-width:0.565977;stroke-linecap:butt;stroke-linejoin:miter;stroke-miterlimit:4;stroke-dasharray:none;stroke-opacity:1"
     d="m 119.839,89.625 c 0.073,0.235 -0.885,0.859 -0.635,1.323 0.255,0.458 1.015,0.26 2.635,1.421 l 0.016,0.011 c 1.156,0.89 2.511,1.198 3.651,0.677 1.895,-0.855 2.485,-3.631 1.318,-6.203 -1.167,-2.578 -3.641,-3.969 -5.532,-3.114 -1.812,0.817 -2.432,3.405 -1.453,5.885 z"
     id="path1012" />
  <path
     style="fill:#231f20;fill-opacity:1;fill-rule:nonzero;stroke:none"
     d="m 92.412,53.828 c -3.026,2.636 0.75,4.188 1.063,4.546 3.276,3.798 3.604,3.986 6.297,6.699 3.895,3.921 7.166,6.011 10.11,4.411 2,-1.088 2.676,-2.578 2.52,-3.886 -0.178,-1.448 -1.968,-4.072 -4.859,-3.968 l -1.491,-0.849 c -0.921,-0.703 -1.385,-1.041 -1.817,-1.421 -0.749,-0.667 -1.593,-1.334 -3.125,-2.552 -2.728,-2.152 -6.307,-3.543 -6.307,-3.543 -0.995,-0.749 -2.391,0.563 -2.391,0.563"
     id="path1013" />
  <path
     style="fill:none;stroke:#231f20;stroke-width:0.565977;stroke-linecap:butt;stroke-linejoin:miter;stroke-miterlimit:4;stroke-dasharray:none;stroke-opacity:1"
     d="m 92.412,53.828 c -3.026,2.636 0.75,4.188 1.063,4.546 3.276,3.798 3.604,3.986 6.297,6.699 3.895,3.921 7.166,6.011 10.11,4.411 2,-1.088 2.676,-2.578 2.52,-3.886 -0.178,-1.448 -1.968,-4.072 -4.859,-3.968 l -1.491,-0.849 c -0.921,-0.703 -1.385,-1.041 -1.817,-1.421 -0.749,-0.667 -1.593,-1.334 -3.125,-2.552 -2.728,-2.152 -6.307,-3.543 -6.307,-3.543 -0.995,-0.749 -2.391,0.563 -2.391,0.563 z"
     id="path1014" />
  <path
     style="fill:#0098c9;fill-opacity:1;fill-rule:nonzero;stroke:none"
     d="m 112.324,64.978 c -0.417,-1.4 -2.625,-3.692 -5.453,-3.109 l -4.371,6.48 c 0.563,0.333 1.104,0.609 1.636,0.859 0.058,0.052 0.115,0.109 0.162,0.166 0.489,0.642 1.12,0.658 2.156,0.642 1.526,0.317 2.874,0.12 4.032,-0.787 1.785,-1.407 2.213,-2.989 1.838,-4.251"
     id="path1015" />
  <path
     style="fill:none;stroke:#231f20;stroke-width:0.565977;stroke-linecap:butt;stroke-linejoin:miter;stroke-miterlimit:4;stroke-dasharray:none;stroke-opacity:1"
     d="m 112.324,64.978 c -0.417,-1.4 -2.625,-3.692 -5.453,-3.109 l -4.371,6.48 c 0.563,0.333 1.104,0.609 1.636,0.859 0.058,0.052 0.115,0.109 0.162,0.166 0.489,0.642 1.12,0.658 2.156,0.642 1.526,0.317 2.874,0.12 4.032,-0.787 1.785,-1.407 2.213,-2.989 1.838,-4.251 z"
     id="path1016" />
  <path
     style="fill:#231f20;fill-opacity:1;fill-rule:nonzero;stroke:none"
     d="m 131.948,96.442 c -0.624,-0.156 -1.733,-1.754 -3.088,-2.63 -0.912,-0.583 -2.412,-2.886 -3.369,-3.395 -0.871,-0.475 -1.224,-0.776 -0.855,-1.865 0.219,-0.646 1.057,-1.75 1.547,-1.61 1.145,0.328 1.88,0.927 2.552,1.76 0.76,0.948 2.604,3.699 2.896,4.235 0.718,1.344 1.401,1.631 1.625,1.969 0.421,0.63 0.287,0.954 -0.063,1.312 -0.666,0.694 -1.245,0.224 -1.245,0.224"
     id="path1017" />
  <path
     style="fill:none;stroke:#231f20;stroke-width:0.565977;stroke-linecap:butt;stroke-linejoin:miter;stroke-miterlimit:4;stroke-dasharray:none;stroke-opacity:1"
     d="m 131.948,96.442 c -0.624,-0.156 -1.733,-1.754 -3.088,-2.63 -0.912,-0.583 -2.412,-2.886 -3.369,-3.395 -0.871,-0.475 -1.224,-0.776 -0.855,-1.865 0.219,-0.646 1.057,-1.75 1.547,-1.61 1.145,0.328 1.88,0.927 2.552,1.76 0.76,0.948 2.604,3.699 2.896,4.235 0.718,1.344 1.401,1.631 1.625,1.969 0.421,0.63 0.287,0.954 -0.063,1.312 -0.666,0.694 -1.245,0.224 -1.245,0.224 z"
     id="path1018" />
  <path
     style="fill:#231f20;fill-opacity:1;fill-rule:nonzero;stroke:none"
     d="m 125.781,89.808 c -1.035,0.776 -1.931,-1.058 -2.243,-1.5 -0.308,-0.448 -1.339,-1.62 -2.251,-2.423 -0.921,-0.817 -1.719,-2.219 -3.463,-3.76 -0.912,-0.813 -1.292,-2.177 -0.057,-3.453 1.219,-1.266 2.385,-1.058 3.348,0.093 0.964,1.147 1.376,2.631 2.261,3.855 0.886,1.224 1.906,2.39 2.744,3.265 0.959,0.995 1.063,1.844 0.871,2.287 -0.464,1.098 -1.21,1.636 -1.21,1.636"
     id="path1019" />
  <path
     style="fill:none;stroke:#231f20;stroke-width:0.565977;stroke-linecap:butt;stroke-linejoin:miter;stroke-miterlimit:4;stroke-dasharray:none;stroke-opacity:1"
     d="m 125.781,89.808 c -1.035,0.776 -1.931,-1.058 -2.243,-1.5 -0.308,-0.448 -1.339,-1.62 -2.251,-2.423 -0.921,-0.817 -1.719,-2.219 -3.463,-3.76 -0.912,-0.813 -1.292,-2.177 -0.057,-3.453 1.219,-1.266 2.385,-1.058 3.348,0.093 0.964,1.147 1.376,2.631 2.261,3.855 0.886,1.224 1.906,2.39 2.744,3.265 0.959,0.995 1.063,1.844 0.871,2.287 -0.464,1.098 -1.21,1.636 -1.21,1.636 z"
     id="path1020" />
  <path
     style="fill:#231f20;fill-opacity:1;fill-rule:nonzero;stroke:none"
     d="m 187.485,44.073 c 0.375,1.296 -0.417,1.891 -1.453,1.833 -0.308,-0.01 -0.589,0.292 -0.891,0.25 -0.698,-0.099 -1.698,-1.526 -0.724,-2.662 0.068,-0.082 0.396,-0.833 0.724,-1.358 0.646,-1.027 2.432,-2.771 5.13,-2.71 1.277,0.027 1.021,0.772 0.505,0.918 -1.651,0.464 -1.708,0.822 -2.093,1.109 -1.323,0.932 -1.198,2.62 -1.198,2.62"
     id="path1021" />
  <path
     style="fill:none;stroke:#231f20;stroke-width:0.332927;stroke-linecap:butt;stroke-linejoin:miter;stroke-miterlimit:4;stroke-dasharray:none;stroke-opacity:1"
     d="m 187.485,44.073 c 0.375,1.296 -0.417,1.891 -1.453,1.833 -0.308,-0.01 -0.589,0.292 -0.891,0.25 -0.698,-0.099 -1.698,-1.526 -0.724,-2.662 0.068,-0.082 0.396,-0.833 0.724,-1.358 0.646,-1.027 2.432,-2.771 5.13,-2.71 1.277,0.027 1.021,0.772 0.505,0.918 -1.651,0.464 -1.708,0.822 -2.093,1.109 -1.323,0.932 -1.198,2.62 -1.198,2.62 z"
     id="path1022" />
  <path
     style="fill:#231f20;fill-opacity:1;fill-rule:nonzero;stroke:none"
     d="m 175.048,58.104 c 1.624,1.573 2.156,1.661 2.864,1.016 0.473,-0.427 1.063,-0.662 1.364,-0.912 1,-0.823 2.344,-2.62 4.829,-8.714 0.562,-1.385 1.364,-3.317 1.76,-4.082 0.615,-1.21 -1.808,-1.418 -2.052,-0.948 -0.802,1.52 -1.469,2.494 -1.833,3.005 -0.251,0.348 -0.609,1.02 -1.74,2.239 -1.719,1.854 -3.025,2.704 -4.276,4.412 -0.583,0.792 -1.521,1.016 -1.693,2.082 -0.182,1.074 0.777,1.902 0.777,1.902"
     id="path1023" />
  <path
     style="fill:none;stroke:#231f20;stroke-width:0.565977;stroke-linecap:butt;stroke-linejoin:miter;stroke-miterlimit:4;stroke-dasharray:none;stroke-opacity:1"
     d="m 175.048,58.104 c 1.624,1.573 2.156,1.661 2.864,1.016 0.473,-0.427 1.063,-0.662 1.364,-0.912 1,-0.823 2.344,-2.62 4.829,-8.714 0.562,-1.385 1.364,-3.317 1.76,-4.082 0.615,-1.21 -1.808,-1.418 -2.052,-0.948 -0.802,1.52 -1.469,2.494 -1.833,3.005 -0.251,0.348 -0.609,1.02 -1.74,2.239 -1.719,1.854 -3.025,2.704 -4.276,4.412 -0.583,0.792 -1.521,1.016 -1.693,2.082 -0.182,1.074 0.777,1.902 0.777,1.902 z"
     id="path1024" />
  <path
     style="fill:#0098c9;fill-opacity:1;fill-rule:nonzero;stroke:none"
     d="m 158.953,79.604 c 2.656,-1.667 3.407,-1.735 4.318,-1.875 5.709,-0.907 5.157,-3.693 3.209,-5.817 -2.287,-2.5 -3.063,-3.443 -8.057,0.396 -1.38,1.072 -7.24,4.473 -7.24,4.473 -2.26,0.932 -3.968,3.052 -4.022,4.511 -0.052,1.53 0.084,0.926 0.287,2.353 0.204,1.365 1.573,3.073 2.808,3.1 1.187,0.036 2.077,-1.376 3.625,-3.24 1.224,-1.464 5.072,-3.901 5.072,-3.901"
     id="path1025" />
  <path
     style="fill:none;stroke:#231f20;stroke-width:0.565977;stroke-linecap:butt;stroke-linejoin:miter;stroke-miterlimit:4;stroke-dasharray:none;stroke-opacity:1"
     d="m 158.953,79.604 c 2.656,-1.667 3.407,-1.735 4.318,-1.875 5.709,-0.907 5.157,-3.693 3.209,-5.817 -2.287,-2.5 -3.063,-3.443 -8.057,0.396 -1.38,1.072 -7.24,4.473 -7.24,4.473 -2.26,0.932 -3.968,3.052 -4.022,4.511 -0.052,1.53 0.084,0.926 0.287,2.353 0.204,1.365 1.573,3.073 2.808,3.1 1.187,0.036 2.077,-1.376 3.625,-3.24 1.224,-1.464 5.072,-3.901 5.072,-3.901 z"
     id="path1026" />
  <path
     style="fill:#ffffff;fill-opacity:1;fill-rule:nonzero;stroke:none"
     d="m 141.328,84.193 c -0.228,0.072 -0.859,-0.885 -1.317,-0.636 -0.463,0.26 -0.266,1.021 -1.427,2.636 l -0.011,0.02 c -0.89,1.152 -1.197,2.505 -0.677,3.647 0.855,1.896 3.636,2.484 6.204,1.317 2.577,-1.161 3.968,-3.641 3.115,-5.532 -0.814,-1.812 -3.407,-2.432 -5.887,-1.452"
     id="path1027" />
  <path
     style="fill:none;stroke:#231f20;stroke-width:0.565977;stroke-linecap:butt;stroke-linejoin:miter;stroke-miterlimit:4;stroke-dasharray:none;stroke-opacity:1"
     d="m 141.328,84.193 c -0.228,0.072 -0.859,-0.885 -1.317,-0.636 -0.463,0.26 -0.266,1.021 -1.427,2.636 l -0.011,0.02 c -0.89,1.152 -1.197,2.505 -0.677,3.647 0.855,1.896 3.636,2.484 6.204,1.317 2.577,-1.161 3.968,-3.641 3.115,-5.532 -0.814,-1.812 -3.407,-2.432 -5.887,-1.452 z"
     id="path1028" />
  <path
     style="fill:#231f20;fill-opacity:1;fill-rule:nonzero;stroke:none"
     d="m 177.125,56.77 c -2.634,-3.03 -4.188,0.746 -4.546,1.058 -3.792,3.276 -3.979,3.604 -6.694,6.302 -3.921,3.891 -6.009,7.162 -4.416,10.104 1.088,2 2.583,2.683 3.886,2.522 1.448,-0.178 4.073,-1.97 3.973,-4.86 l 0.844,-1.484 c 0.704,-0.928 1.043,-1.391 1.428,-1.824 0.667,-0.75 1.333,-1.588 2.547,-3.124 2.156,-2.724 3.541,-6.308 3.541,-6.308 0.751,-0.995 -0.563,-2.386 -0.563,-2.386"
     id="path1029" />
  <path
     style="fill:none;stroke:#231f20;stroke-width:0.565977;stroke-linecap:butt;stroke-linejoin:miter;stroke-miterlimit:4;stroke-dasharray:none;stroke-opacity:1"
     d="m 177.125,56.77 c -2.634,-3.03 -4.188,0.746 -4.546,1.058 -3.792,3.276 -3.979,3.604 -6.694,6.302 -3.921,3.891 -6.009,7.162 -4.416,10.104 1.088,2 2.583,2.683 3.886,2.522 1.448,-0.178 4.073,-1.97 3.973,-4.86 l 0.844,-1.484 c 0.704,-0.928 1.043,-1.391 1.428,-1.824 0.667,-0.75 1.333,-1.588 2.547,-3.124 2.156,-2.724 3.541,-6.308 3.541,-6.308 0.751,-0.995 -0.563,-2.386 -0.563,-2.386 z"
     id="path1030" />
  <path
     style="fill:#0098c9;fill-opacity:1;fill-rule:nonzero;stroke:none"
     d="m 169.084,71.229 -6.48,-4.375 c -0.328,0.568 -0.609,1.11 -0.859,1.64 -0.052,0.058 -0.109,0.11 -0.166,0.156 -0.642,0.495 -0.656,1.126 -0.642,2.162 -0.317,1.521 -0.118,2.87 0.792,4.026 1.402,1.792 2.986,2.214 4.251,1.839 1.396,-0.417 3.687,-2.62 3.104,-5.448"
     id="path1031" />
  <path
     style="fill:none;stroke:#231f20;stroke-width:0.565977;stroke-linecap:butt;stroke-linejoin:miter;stroke-miterlimit:4;stroke-dasharray:none;stroke-opacity:1"
     d="m 169.084,71.229 -6.48,-4.375 c -0.328,0.568 -0.609,1.11 -0.859,1.64 -0.052,0.058 -0.109,0.11 -0.166,0.156 -0.642,0.495 -0.656,1.126 -0.642,2.162 -0.317,1.521 -0.118,2.87 0.792,4.026 1.402,1.792 2.986,2.214 4.251,1.839 1.396,-0.417 3.687,-2.62 3.104,-5.448 z"
     id="path1032" />
  <path
     style="fill:#231f20;fill-opacity:1;fill-rule:nonzero;stroke:none"
     d="m 134.511,96.308 c 0.156,-0.631 1.76,-1.74 2.63,-3.09 0.583,-0.916 2.886,-2.416 3.396,-3.374 0.474,-0.87 0.776,-1.224 1.864,-0.855 0.647,0.219 1.751,1.057 1.61,1.547 -0.328,1.146 -0.927,1.881 -1.76,2.553 -0.948,0.76 -3.699,2.604 -4.235,2.895 -1.344,0.724 -1.631,1.401 -1.968,1.625 -0.631,0.427 -0.953,0.287 -1.313,-0.063 -0.692,-0.666 -0.224,-1.238 -0.224,-1.238"
     id="path1033" />
  <path
     style="fill:none;stroke:#231f20;stroke-width:0.565977;stroke-linecap:butt;stroke-linejoin:miter;stroke-miterlimit:4;stroke-dasharray:none;stroke-opacity:1"
     d="m 134.511,96.308 c 0.156,-0.631 1.76,-1.74 2.63,-3.09 0.583,-0.916 2.886,-2.416 3.396,-3.374 0.474,-0.87 0.776,-1.224 1.864,-0.855 0.647,0.219 1.751,1.057 1.61,1.547 -0.328,1.146 -0.927,1.881 -1.76,2.553 -0.948,0.76 -3.699,2.604 -4.235,2.895 -1.344,0.724 -1.631,1.401 -1.968,1.625 -0.631,0.427 -0.953,0.287 -1.313,-0.063 -0.692,-0.666 -0.224,-1.238 -0.224,-1.238 z"
     id="path1034" />
  <path
     style="fill:#231f20;fill-opacity:1;fill-rule:nonzero;stroke:none"
     d="m 141.147,90.136 c -0.771,-1.038 1.062,-1.934 1.5,-2.24 0.448,-0.312 1.62,-1.339 2.426,-2.255 0.812,-0.917 2.214,-1.72 3.755,-3.459 0.813,-0.917 2.183,-1.297 3.459,-0.062 1.261,1.218 1.052,2.385 -0.094,3.349 -1.15,0.963 -2.636,1.375 -3.86,2.265 -1.224,0.886 -2.385,1.902 -3.265,2.74 -0.995,0.963 -1.844,1.062 -2.281,0.875 -1.104,-0.469 -1.64,-1.213 -1.64,-1.213"
     id="path1035" />
  <path
     style="fill:none;stroke:#231f20;stroke-width:0.565977;stroke-linecap:butt;stroke-linejoin:miter;stroke-miterlimit:4;stroke-dasharray:none;stroke-opacity:1"
     d="m 141.147,90.136 c -0.771,-1.038 1.062,-1.934 1.5,-2.24 0.448,-0.312 1.62,-1.339 2.426,-2.255 0.812,-0.917 2.214,-1.72 3.755,-3.459 0.813,-0.917 2.183,-1.297 3.459,-0.062 1.261,1.218 1.052,2.385 -0.094,3.349 -1.15,0.963 -2.636,1.375 -3.86,2.265 -1.224,0.886 -2.385,1.902 -3.265,2.74 -0.995,0.963 -1.844,1.062 -2.281,0.875 -1.104,-0.469 -1.64,-1.213 -1.64,-1.213 z"
     id="path1036" />
  <path
     style="fill:#231f20;fill-opacity:1;fill-rule:nonzero;stroke:none"
     d="m 197.453,137.187 c -1.114,0.76 -1.926,0.192 -2.197,-0.802 -0.084,-0.302 -0.459,-0.479 -0.511,-0.776 -0.125,-0.692 0.922,-2.088 2.303,-1.516 0.099,0.042 0.916,0.114 1.52,0.266 1.172,0.296 3.385,1.448 4.172,4.031 0.369,1.219 -0.416,1.213 -0.719,0.765 -0.953,-1.421 -1.317,-1.364 -1.702,-1.645 -1.303,-0.964 -2.866,-0.323 -2.866,-0.323"
     id="path1037" />
  <path
     style="fill:none;stroke:#231f20;stroke-width:0.332927;stroke-linecap:butt;stroke-linejoin:miter;stroke-miterlimit:4;stroke-dasharray:none;stroke-opacity:1"
     d="m 197.453,137.187 c -1.114,0.76 -1.926,0.192 -2.197,-0.802 -0.084,-0.302 -0.459,-0.479 -0.511,-0.776 -0.125,-0.692 0.922,-2.088 2.303,-1.516 0.099,0.042 0.916,0.114 1.52,0.266 1.172,0.296 3.385,1.448 4.172,4.031 0.369,1.219 -0.416,1.213 -0.719,0.765 -0.953,-1.421 -1.317,-1.364 -1.702,-1.645 -1.303,-0.964 -2.866,-0.323 -2.866,-0.323 z"
     id="path1038" />
  <path
     style="fill:#231f20;fill-opacity:1;fill-rule:nonzero;stroke:none"
     d="m 180.245,129.734 c -0.989,2.036 -0.906,2.568 -0.073,3.041 0.557,0.318 0.959,0.803 1.287,1.011 1.098,0.692 3.224,1.412 9.792,1.88 1.489,0.104 3.577,0.26 4.426,0.401 1.339,0.208 0.782,-2.161 0.256,-2.245 -1.688,-0.287 -2.824,-0.62 -3.422,-0.807 -0.411,-0.13 -1.162,-0.256 -2.672,-0.958 -2.296,-1.058 -3.506,-2.031 -5.52,-2.692 -0.934,-0.308 -1.438,-1.131 -2.506,-0.959 -1.078,0.161 -1.568,1.328 -1.568,1.328"
     id="path1039" />
  <path
     style="fill:none;stroke:#231f20;stroke-width:0.565977;stroke-linecap:butt;stroke-linejoin:miter;stroke-miterlimit:4;stroke-dasharray:none;stroke-opacity:1"
     d="m 180.245,129.734 c -0.989,2.036 -0.906,2.568 -0.073,3.041 0.557,0.318 0.959,0.803 1.287,1.011 1.098,0.692 3.224,1.412 9.792,1.88 1.489,0.104 3.577,0.26 4.426,0.401 1.339,0.208 0.782,-2.161 0.256,-2.245 -1.688,-0.287 -2.824,-0.62 -3.422,-0.807 -0.411,-0.13 -1.162,-0.256 -2.672,-0.958 -2.296,-1.058 -3.506,-2.031 -5.52,-2.692 -0.934,-0.308 -1.438,-1.131 -2.506,-0.959 -1.078,0.161 -1.568,1.328 -1.568,1.328 z"
     id="path1040" />
  <path
     style="fill:#0098c9;fill-opacity:1;fill-rule:nonzero;stroke:none"
     d="m 154.808,121.135 c 2.411,2.006 2.708,2.698 3.129,3.52 2.636,5.142 5.111,3.751 6.522,1.235 1.666,-2.953 2.317,-3.979 -2.88,-7.531 -1.454,-0.98 -6.506,-5.49 -6.506,-5.49 -1.588,-1.859 -4.136,-2.823 -5.536,-2.416 -1.474,0.426 -0.854,0.364 -2.152,1.005 -1.233,0.615 -2.426,2.448 -2.072,3.631 0.339,1.14 1.954,1.546 4.208,2.437 1.776,0.708 5.287,3.609 5.287,3.609"
     id="path1041" />
  <path
     style="fill:none;stroke:#231f20;stroke-width:0.565977;stroke-linecap:butt;stroke-linejoin:miter;stroke-miterlimit:4;stroke-dasharray:none;stroke-opacity:1"
     d="m 154.808,121.135 c 2.411,2.006 2.708,2.698 3.129,3.52 2.636,5.142 5.111,3.751 6.522,1.235 1.666,-2.953 2.317,-3.979 -2.88,-7.531 -1.454,-0.98 -6.506,-5.49 -6.506,-5.49 -1.588,-1.859 -4.136,-2.823 -5.536,-2.416 -1.474,0.426 -0.854,0.364 -2.152,1.005 -1.233,0.615 -2.426,2.448 -2.072,3.631 0.339,1.14 1.954,1.546 4.208,2.437 1.776,0.708 5.287,3.609 5.287,3.609 z"
     id="path1042" />
  <path
     style="fill:#ffffff;fill-opacity:1;fill-rule:nonzero;stroke:none"
     d="m 144.964,105.811 c -0.14,-0.197 0.573,-1.093 0.193,-1.452 -0.385,-0.354 -1.052,0.067 -2.948,-0.532 l -0.021,-0.01 c -1.369,-0.484 -2.755,-0.354 -3.683,0.494 -1.53,1.402 -1.224,4.224 0.683,6.308 1.907,2.088 4.693,2.64 6.224,1.235 1.469,-1.339 1.249,-3.989 -0.448,-6.043"
     id="path1043" />
  <path
     style="fill:none;stroke:#231f20;stroke-width:0.565977;stroke-linecap:butt;stroke-linejoin:miter;stroke-miterlimit:4;stroke-dasharray:none;stroke-opacity:1"
     d="m 144.964,105.811 c -0.14,-0.197 0.573,-1.093 0.193,-1.452 -0.385,-0.354 -1.052,0.067 -2.948,-0.532 l -0.021,-0.01 c -1.369,-0.484 -2.755,-0.354 -3.683,0.494 -1.53,1.402 -1.224,4.224 0.683,6.308 1.907,2.088 4.693,2.64 6.224,1.235 1.469,-1.339 1.249,-3.989 -0.448,-6.043 z"
     id="path1044" />
  <path
     style="fill:#231f20;fill-opacity:1;fill-rule:nonzero;stroke:none"
     d="m 182.161,131.291 c 2.058,-3.442 -2.009,-3.745 -2.421,-3.984 -4.292,-2.589 -4.667,-2.666 -8.073,-4.406 -4.916,-2.511 -8.676,-3.479 -10.974,-1.047 -1.557,1.656 -1.745,3.287 -1.188,4.473 0.62,1.323 3.142,3.26 5.855,2.26 l 1.677,0.344 c 1.099,0.376 1.64,0.558 2.172,0.787 0.916,0.401 1.927,0.771 3.766,1.448 3.26,1.203 7.093,1.407 7.093,1.407 1.177,0.405 2.093,-1.282 2.093,-1.282"
     id="path1045" />
  <path
     style="fill:none;stroke:#231f20;stroke-width:0.565977;stroke-linecap:butt;stroke-linejoin:miter;stroke-miterlimit:4;stroke-dasharray:none;stroke-opacity:1"
     d="m 182.161,131.291 c 2.058,-3.442 -2.009,-3.745 -2.421,-3.984 -4.292,-2.589 -4.667,-2.666 -8.073,-4.406 -4.916,-2.511 -8.676,-3.479 -10.974,-1.047 -1.557,1.656 -1.745,3.287 -1.188,4.473 0.62,1.323 3.142,3.26 5.855,2.26 l 1.677,0.344 c 1.099,0.376 1.64,0.558 2.172,0.787 0.916,0.401 1.927,0.771 3.766,1.448 3.26,1.203 7.093,1.407 7.093,1.407 1.177,0.405 2.093,-1.282 2.093,-1.282 z"
     id="path1046" />
  <path
     style="fill:#0098c9;fill-opacity:1;fill-rule:nonzero;stroke:none"
     d="m 166.235,120.327 c -0.074,-0.03 -0.14,-0.068 -0.203,-0.109 -0.661,-0.453 -1.265,-0.276 -2.245,0.068 -1.547,0.172 -2.771,0.776 -3.588,2 -1.262,1.891 -1.172,3.525 -0.427,4.609 0.832,1.203 3.64,2.692 6.145,1.255 l 2.146,-7.515 c -0.64,-0.141 -1.244,-0.234 -1.828,-0.308"
     id="path1047" />
  <path
     style="fill:none;stroke:#231f20;stroke-width:0.565977;stroke-linecap:butt;stroke-linejoin:miter;stroke-miterlimit:4;stroke-dasharray:none;stroke-opacity:1"
     d="m 166.235,120.327 c -0.074,-0.03 -0.14,-0.068 -0.203,-0.109 -0.661,-0.453 -1.265,-0.276 -2.245,0.068 -1.547,0.172 -2.771,0.776 -3.588,2 -1.262,1.891 -1.172,3.525 -0.427,4.609 0.832,1.203 3.64,2.692 6.145,1.255 l 2.146,-7.515 c -0.64,-0.141 -1.244,-0.234 -1.828,-0.308 z"
     id="path1048" />
  <path
     style="fill:#231f20;fill-opacity:1;fill-rule:nonzero;stroke:none"
     d="m 135.491,98.598 c 0.624,0.158 1.733,1.761 3.088,2.631 0.916,0.582 2.416,2.885 3.369,3.401 0.876,0.468 1.229,0.771 0.86,1.859 -0.219,0.646 -1.063,1.75 -1.547,1.609 -1.146,-0.328 -1.885,-0.927 -2.552,-1.76 -0.766,-0.943 -2.604,-3.693 -2.901,-4.235 -0.719,-1.344 -1.396,-1.629 -1.62,-1.967 -0.427,-0.631 -0.287,-0.954 0.063,-1.314 0.661,-0.692 1.24,-0.224 1.24,-0.224"
     id="path1049" />
  <path
     style="fill:none;stroke:#231f20;stroke-width:0.565977;stroke-linecap:butt;stroke-linejoin:miter;stroke-miterlimit:4;stroke-dasharray:none;stroke-opacity:1"
     d="m 135.491,98.598 c 0.624,0.158 1.733,1.761 3.088,2.631 0.916,0.582 2.416,2.885 3.369,3.401 0.876,0.468 1.229,0.771 0.86,1.859 -0.219,0.646 -1.063,1.75 -1.547,1.609 -1.146,-0.328 -1.885,-0.927 -2.552,-1.76 -0.766,-0.943 -2.604,-3.693 -2.901,-4.235 -0.719,-1.344 -1.396,-1.629 -1.62,-1.967 -0.427,-0.631 -0.287,-0.954 0.063,-1.314 0.661,-0.692 1.24,-0.224 1.24,-0.224 z"
     id="path1050" />
  <path
     style="fill:#231f20;fill-opacity:1;fill-rule:nonzero;stroke:none"
     d="m 141.661,105.234 c 1.038,-0.771 1.934,1.063 2.24,1.5 0.314,0.448 1.339,1.62 2.256,2.427 0.916,0.813 1.719,2.213 3.458,3.76 0.917,0.808 1.297,2.177 0.062,3.453 -1.218,1.261 -2.385,1.052 -3.349,-0.093 -0.963,-1.146 -1.375,-2.636 -2.265,-3.859 -0.886,-1.224 -1.902,-2.387 -2.744,-3.267 -0.959,-0.994 -1.058,-1.844 -0.871,-2.286 0.469,-1.099 1.213,-1.635 1.213,-1.635"
     id="path1051" />
  <path
     style="fill:none;stroke:#231f20;stroke-width:0.565977;stroke-linecap:butt;stroke-linejoin:miter;stroke-miterlimit:4;stroke-dasharray:none;stroke-opacity:1"
     d="m 141.661,105.234 c 1.038,-0.771 1.934,1.063 2.24,1.5 0.314,0.448 1.339,1.62 2.256,2.427 0.916,0.813 1.719,2.213 3.458,3.76 0.917,0.808 1.297,2.177 0.062,3.453 -1.218,1.261 -2.385,1.052 -3.349,-0.093 -0.963,-1.146 -1.375,-2.636 -2.265,-3.859 -0.886,-1.224 -1.902,-2.387 -2.744,-3.267 -0.959,-0.994 -1.058,-1.844 -0.871,-2.286 0.469,-1.099 1.213,-1.635 1.213,-1.635 z"
     id="path1052" />
  <path
     style="fill:#231f20;fill-opacity:1;fill-rule:nonzero;stroke:none"
     d="m 88.412,159.478 c -0.385,-1.296 0.402,-1.895 1.438,-1.848 0.308,0.011 0.589,-0.287 0.885,-0.251 0.704,0.09 1.713,1.511 0.745,2.656 -0.062,0.084 -0.385,0.834 -0.713,1.366 -0.636,1.03 -2.412,2.786 -5.109,2.744 -1.276,-0.015 -1.027,-0.766 -0.511,-0.916 1.645,-0.47 1.697,-0.834 2.088,-1.12 1.313,-0.948 1.177,-2.631 1.177,-2.631"
     id="path1053" />
  <path
     style="fill:none;stroke:#231f20;stroke-width:0.332927;stroke-linecap:butt;stroke-linejoin:miter;stroke-miterlimit:4;stroke-dasharray:none;stroke-opacity:1"
     d="m 88.412,159.478 c -0.385,-1.296 0.402,-1.895 1.438,-1.848 0.308,0.011 0.589,-0.287 0.885,-0.251 0.704,0.09 1.713,1.511 0.745,2.656 -0.062,0.084 -0.385,0.834 -0.713,1.366 -0.636,1.03 -2.412,2.786 -5.109,2.744 -1.276,-0.015 -1.027,-0.766 -0.511,-0.916 1.645,-0.47 1.697,-0.834 2.088,-1.12 1.313,-0.948 1.177,-2.631 1.177,-2.631 z"
     id="path1054" />
  <path
     style="fill:#231f20;fill-opacity:1;fill-rule:nonzero;stroke:none"
     d="m 100.746,145.359 c -1.64,-1.568 -2.172,-1.646 -2.875,-1 -0.469,0.432 -1.057,0.672 -1.355,0.922 -0.994,0.833 -2.328,2.636 -4.77,8.754 -0.547,1.387 -1.339,3.324 -1.73,4.095 -0.604,1.208 1.823,1.401 2.063,0.927 0.792,-1.522 1.453,-2.5 1.812,-3.016 0.251,-0.348 0.595,-1.026 1.724,-2.255 1.704,-1.865 3,-2.724 4.245,-4.437 0.574,-0.798 1.511,-1.032 1.678,-2.099 0.172,-1.073 -0.792,-1.891 -0.792,-1.891"
     id="path1055" />
  <path
     style="fill:none;stroke:#231f20;stroke-width:0.565977;stroke-linecap:butt;stroke-linejoin:miter;stroke-miterlimit:4;stroke-dasharray:none;stroke-opacity:1"
     d="m 100.746,145.359 c -1.64,-1.568 -2.172,-1.646 -2.875,-1 -0.469,0.432 -1.057,0.672 -1.355,0.922 -0.994,0.833 -2.328,2.636 -4.77,8.754 -0.547,1.387 -1.339,3.324 -1.73,4.095 -0.604,1.208 1.823,1.401 2.063,0.927 0.792,-1.522 1.453,-2.5 1.812,-3.016 0.251,-0.348 0.595,-1.026 1.724,-2.255 1.704,-1.865 3,-2.724 4.245,-4.437 0.574,-0.798 1.511,-1.032 1.678,-2.099 0.172,-1.073 -0.792,-1.891 -0.792,-1.891 z"
     id="path1056" />
  <path
     style="fill:#0098c9;fill-opacity:1;fill-rule:nonzero;stroke:none"
     d="m 114.36,122.379 c -2.046,2.38 -2.74,2.662 -3.568,3.074 -5.192,2.552 -3.838,5.046 -1.349,6.5 2.928,1.708 3.943,2.38 7.579,-2.755 1.005,-1.433 5.598,-6.412 5.598,-6.412 1.886,-1.563 2.891,-4.088 2.511,-5.495 -0.401,-1.484 -0.355,-0.865 -0.973,-2.166 -0.59,-1.246 -2.402,-2.47 -3.595,-2.131 -1.14,0.313 -1.577,1.923 -2.505,4.161 -0.734,1.762 -3.698,5.224 -3.698,5.224"
     id="path1057" />
  <path
     style="fill:none;stroke:#231f20;stroke-width:0.565977;stroke-linecap:butt;stroke-linejoin:miter;stroke-miterlimit:4;stroke-dasharray:none;stroke-opacity:1"
     d="m 114.36,122.379 c -2.046,2.38 -2.74,2.662 -3.568,3.074 -5.192,2.552 -3.838,5.046 -1.349,6.5 2.928,1.708 3.943,2.38 7.579,-2.755 1.005,-1.433 5.598,-6.412 5.598,-6.412 1.886,-1.563 2.891,-4.088 2.511,-5.495 -0.401,-1.484 -0.355,-0.865 -0.973,-2.166 -0.59,-1.246 -2.402,-2.47 -3.595,-2.131 -1.14,0.313 -1.577,1.923 -2.505,4.161 -0.734,1.762 -3.698,5.224 -3.698,5.224 z"
     id="path1058" />
  <path
     style="fill:#ffffff;fill-opacity:1;fill-rule:nonzero;stroke:none"
     d="m 129.844,112.797 c 0.199,-0.142 1.084,0.588 1.448,0.213 0.365,-0.38 -0.047,-1.052 0.584,-2.937 l 0.009,-0.022 c 0.506,-1.364 0.402,-2.744 -0.432,-3.686 -1.374,-1.558 -4.202,-1.298 -6.317,0.572 -2.12,1.874 -2.718,4.65 -1.338,6.208 1.312,1.49 3.969,1.313 6.046,-0.348"
     id="path1059" />
  <path
     style="fill:none;stroke:#231f20;stroke-width:0.565977;stroke-linecap:butt;stroke-linejoin:miter;stroke-miterlimit:4;stroke-dasharray:none;stroke-opacity:1"
     d="m 129.844,112.797 c 0.199,-0.142 1.084,0.588 1.448,0.213 0.365,-0.38 -0.047,-1.052 0.584,-2.937 l 0.009,-0.022 c 0.506,-1.364 0.402,-2.744 -0.432,-3.686 -1.374,-1.558 -4.202,-1.298 -6.317,0.572 -2.12,1.874 -2.718,4.65 -1.338,6.208 1.312,1.49 3.969,1.313 6.046,-0.348 z"
     id="path1060" />
  <path
     style="fill:#231f20;fill-opacity:1;fill-rule:nonzero;stroke:none"
     d="m 98.678,146.707 c 2.656,3.006 4.177,-0.781 4.537,-1.098 3.771,-3.302 3.952,-3.631 6.645,-6.344 3.896,-3.922 5.959,-7.208 4.339,-10.135 -1.099,-1.989 -2.599,-2.661 -3.907,-2.495 -1.442,0.187 -4.052,2 -3.932,4.891 l -0.833,1.489 c -0.693,0.932 -1.032,1.396 -1.412,1.828 -0.656,0.755 -1.323,1.604 -2.52,3.151 -2.141,2.74 -3.5,6.328 -3.5,6.328 -0.745,1 0.583,2.385 0.583,2.385"
     id="path1061" />
  <path
     style="fill:none;stroke:#231f20;stroke-width:0.565977;stroke-linecap:butt;stroke-linejoin:miter;stroke-miterlimit:4;stroke-dasharray:none;stroke-opacity:1"
     d="m 98.678,146.707 c 2.656,3.006 4.177,-0.781 4.537,-1.098 3.771,-3.302 3.952,-3.631 6.645,-6.344 3.896,-3.922 5.959,-7.208 4.339,-10.135 -1.099,-1.989 -2.599,-2.661 -3.907,-2.495 -1.442,0.187 -4.052,2 -3.932,4.891 l -0.833,1.489 c -0.693,0.932 -1.032,1.396 -1.412,1.828 -0.656,0.755 -1.323,1.604 -2.52,3.151 -2.141,2.74 -3.5,6.328 -3.5,6.328 -0.745,1 0.583,2.385 0.583,2.385 z"
     id="path1062" />
  <path
     style="fill:#0098c9;fill-opacity:1;fill-rule:nonzero;stroke:none"
     d="m 113.938,128.526 c -1.416,-1.776 -3,-2.188 -4.266,-1.808 -1.396,0.427 -3.672,2.651 -3.062,5.469 l 6.505,4.328 c 0.328,-0.568 0.604,-1.109 0.849,-1.641 0.058,-0.063 0.11,-0.119 0.167,-0.161 0.636,-0.5 0.651,-1.126 0.625,-2.167 0.307,-1.52 0.099,-2.869 -0.818,-4.02"
     id="path1063" />
  <path
     style="fill:none;stroke:#231f20;stroke-width:0.565977;stroke-linecap:butt;stroke-linejoin:miter;stroke-miterlimit:4;stroke-dasharray:none;stroke-opacity:1"
     d="m 113.938,128.526 c -1.416,-1.776 -3,-2.188 -4.266,-1.808 -1.396,0.427 -3.672,2.651 -3.062,5.469 l 6.505,4.328 c 0.328,-0.568 0.604,-1.109 0.849,-1.641 0.058,-0.063 0.11,-0.119 0.167,-0.161 0.636,-0.5 0.651,-1.126 0.625,-2.167 0.307,-1.52 0.099,-2.869 -0.818,-4.02 z"
     id="path1064" />
  <path
     style="fill:#231f20;fill-opacity:1;fill-rule:nonzero;stroke:none"
     d="m 132.781,99.208 c 0.038,0.646 -1.166,2.177 -1.593,3.729 -0.292,1.046 -2.047,3.161 -2.26,4.224 -0.193,0.974 -0.371,1.401 -1.527,1.37 -0.677,-0.021 -1.978,-0.496 -1.989,-1.005 -0.026,-1.193 0.328,-2.073 0.927,-2.953 0.682,-1.016 2.761,-3.584 3.193,-4.022 1.068,-1.087 1.14,-1.817 1.401,-2.129 0.479,-0.594 0.823,-0.557 1.271,-0.333 0.859,0.432 0.577,1.119 0.577,1.119"
     id="path1065" />
  <path
     style="fill:none;stroke:#231f20;stroke-width:0.565977;stroke-linecap:butt;stroke-linejoin:miter;stroke-miterlimit:4;stroke-dasharray:none;stroke-opacity:1"
     d="m 132.781,99.208 c 0.038,0.646 -1.166,2.177 -1.593,3.729 -0.292,1.046 -2.047,3.161 -2.26,4.224 -0.193,0.974 -0.371,1.401 -1.527,1.37 -0.677,-0.021 -1.978,-0.496 -1.989,-1.005 -0.026,-1.193 0.328,-2.073 0.927,-2.953 0.682,-1.016 2.761,-3.584 3.193,-4.022 1.068,-1.087 1.14,-1.817 1.401,-2.129 0.479,-0.594 0.823,-0.557 1.271,-0.333 0.859,0.432 0.577,1.119 0.577,1.119 z"
     id="path1066" />
  <path
     style="fill:#231f20;fill-opacity:1;fill-rule:nonzero;stroke:none"
     d="m 128.267,107.062 c 1.041,0.765 -0.443,2.161 -0.772,2.583 -0.338,0.433 -1.151,1.761 -1.651,2.87 -0.505,1.12 -1.609,2.296 -2.573,4.416 -0.499,1.115 -1.697,1.88 -3.28,1.079 -1.568,-0.792 -1.709,-1.975 -0.896,-3.229 0.812,-1.255 2.104,-2.088 3.015,-3.303 0.906,-1.208 1.718,-2.52 2.308,-3.583 0.666,-1.208 1.453,-1.557 1.926,-1.505 1.188,0.12 1.923,0.672 1.923,0.672"
     id="path1067" />
  <path
     style="fill:none;stroke:#231f20;stroke-width:0.565977;stroke-linecap:butt;stroke-linejoin:miter;stroke-miterlimit:4;stroke-dasharray:none;stroke-opacity:1"
     d="m 128.267,107.062 c 1.041,0.765 -0.443,2.161 -0.772,2.583 -0.338,0.433 -1.151,1.761 -1.651,2.87 -0.505,1.12 -1.609,2.296 -2.573,4.416 -0.499,1.115 -1.697,1.88 -3.28,1.079 -1.568,-0.792 -1.709,-1.975 -0.896,-3.229 0.812,-1.255 2.104,-2.088 3.015,-3.303 0.906,-1.208 1.718,-2.52 2.308,-3.583 0.666,-1.208 1.453,-1.557 1.926,-1.505 1.188,0.12 1.923,0.672 1.923,0.672 z"
     id="path1068" />
  <path
     style="fill:#231f20;fill-opacity:1;fill-rule:nonzero;stroke:none"
     d="m 245.772,13.76 c 0.88,1.037 0.4,1.906 -0.573,2.276 -0.287,0.114 -0.418,0.51 -0.704,0.594 -0.682,0.198 -2.182,-0.693 -1.75,-2.136 0.027,-0.093 0.006,-0.916 0.099,-1.53 0.167,-1.208 1.084,-3.522 3.563,-4.574 1.177,-0.505 1.254,0.287 0.838,0.626 -1.312,1.098 -1.213,1.458 -1.453,1.869 -0.823,1.401 -0.02,2.875 -0.02,2.875"
     id="path1069" />
  <path
     style="fill:none;stroke:#231f20;stroke-width:0.332927;stroke-linecap:butt;stroke-linejoin:miter;stroke-miterlimit:4;stroke-dasharray:none;stroke-opacity:1"
     d="m 245.772,13.76 c 0.88,1.037 0.4,1.906 -0.573,2.276 -0.287,0.114 -0.418,0.51 -0.704,0.594 -0.682,0.198 -2.182,-0.693 -1.75,-2.136 0.027,-0.093 0.006,-0.916 0.099,-1.53 0.167,-1.208 1.084,-3.522 3.563,-4.574 1.177,-0.505 1.254,0.287 0.838,0.626 -1.312,1.098 -1.213,1.458 -1.453,1.869 -0.823,1.401 -0.02,2.875 -0.02,2.875 z"
     id="path1070" />
  <path
     style="fill:#231f20;fill-opacity:1;fill-rule:nonzero;stroke:none"
     d="m 240.188,31.666 c 2.136,0.766 2.651,0.636 3.031,-0.249 0.261,-0.584 0.698,-1.043 0.87,-1.385 0.578,-1.167 1.063,-3.36 0.828,-9.934 -0.052,-1.494 -0.114,-3.588 -0.068,-4.448 0.063,-1.353 -2.234,-0.552 -2.26,-0.014 -0.109,1.713 -0.313,2.874 -0.442,3.489 -0.079,0.421 -0.131,1.177 -0.667,2.755 -0.808,2.396 -1.652,3.708 -2.089,5.776 -0.203,0.964 -0.974,1.552 -0.687,2.594 0.271,1.058 1.484,1.416 1.484,1.416"
     id="path1071" />
  <path
     style="fill:none;stroke:#231f20;stroke-width:0.565977;stroke-linecap:butt;stroke-linejoin:miter;stroke-miterlimit:4;stroke-dasharray:none;stroke-opacity:1"
     d="m 240.188,31.666 c 2.136,0.766 2.651,0.636 3.031,-0.249 0.261,-0.584 0.698,-1.043 0.87,-1.385 0.578,-1.167 1.063,-3.36 0.828,-9.934 -0.052,-1.494 -0.114,-3.588 -0.068,-4.448 0.063,-1.353 -2.234,-0.552 -2.26,-0.014 -0.109,1.713 -0.313,2.874 -0.442,3.489 -0.079,0.421 -0.131,1.177 -0.667,2.755 -0.808,2.396 -1.652,3.708 -2.089,5.776 -0.203,0.964 -0.974,1.552 -0.687,2.594 0.271,1.058 1.484,1.416 1.484,1.416 z"
     id="path1072" />
  <path
     style="fill:#0098c9;fill-opacity:1;fill-rule:nonzero;stroke:none"
     d="m 236.745,57.374 c 1.016,-2.962 1.558,-3.489 2.178,-4.172 3.869,-4.29 1.686,-6.118 -1.167,-6.541 -3.349,-0.505 -4.547,-0.749 -6.016,5.371 -0.401,1.702 -2.817,8.03 -2.817,8.03 -1.172,2.146 -1.167,4.87 -0.292,6.036 0.921,1.224 0.645,0.672 1.702,1.652 1.016,0.932 3.152,1.395 4.131,0.646 0.948,-0.719 0.751,-2.375 0.787,-4.798 0.025,-1.916 1.494,-6.224 1.494,-6.224"
     id="path1073" />
  <path
     style="fill:none;stroke:#231f20;stroke-width:0.565977;stroke-linecap:butt;stroke-linejoin:miter;stroke-miterlimit:4;stroke-dasharray:none;stroke-opacity:1"
     d="m 236.745,57.374 c 1.016,-2.962 1.558,-3.489 2.178,-4.172 3.869,-4.29 1.686,-6.118 -1.167,-6.541 -3.349,-0.505 -4.547,-0.749 -6.016,5.371 -0.401,1.702 -2.817,8.03 -2.817,8.03 -1.172,2.146 -1.167,4.87 -0.292,6.036 0.921,1.224 0.645,0.672 1.702,1.652 1.016,0.932 3.152,1.395 4.131,0.646 0.948,-0.719 0.751,-2.375 0.787,-4.798 0.025,-1.916 1.494,-6.224 1.494,-6.224 z"
     id="path1074" />
  <path
     style="fill:#ffffff;fill-opacity:1;fill-rule:nonzero;stroke:none"
     d="m 230.672,76.322 c 0.125,0.21 -0.677,1.027 -0.328,1.423 0.349,0.396 1.047,0.036 2.875,0.823 l 0.021,0.01 c 1.317,0.62 2.703,0.624 3.708,-0.13 1.667,-1.246 1.641,-4.079 -0.052,-6.344 -1.687,-2.266 -4.411,-3.088 -6.077,-1.844 -1.59,1.188 -1.631,3.844 -0.147,6.062"
     id="path1075" />
  <path
     style="fill:none;stroke:#231f20;stroke-width:0.565977;stroke-linecap:butt;stroke-linejoin:miter;stroke-miterlimit:4;stroke-dasharray:none;stroke-opacity:1"
     d="m 230.672,76.322 c 0.125,0.21 -0.677,1.027 -0.328,1.423 0.349,0.396 1.047,0.036 2.875,0.823 l 0.021,0.01 c 1.317,0.62 2.703,0.624 3.708,-0.13 1.667,-1.246 1.641,-4.079 -0.052,-6.344 -1.687,-2.266 -4.411,-3.088 -6.077,-1.844 -1.59,1.188 -1.631,3.844 -0.147,6.062 z"
     id="path1076" />
  <path
     style="fill:#231f20;fill-opacity:1;fill-rule:nonzero;stroke:none"
     d="m 241.537,29.593 c -3.641,-1.676 -3.51,2.401 -3.709,2.839 -2.113,4.542 -2.151,4.917 -3.52,8.489 -1.98,5.163 -2.541,9 0.125,11.027 1.812,1.369 3.448,1.385 4.578,0.702 1.245,-0.754 2.901,-3.468 1.62,-6.057 l 0.166,-1.708 c 0.26,-1.125 0.375,-1.687 0.552,-2.24 0.298,-0.957 0.563,-2 1.036,-3.895 0.85,-3.37 0.647,-7.209 0.647,-7.209 0.276,-1.213 -1.495,-1.948 -1.495,-1.948"
     id="path1077" />
  <path
     style="fill:none;stroke:#231f20;stroke-width:0.565977;stroke-linecap:butt;stroke-linejoin:miter;stroke-miterlimit:4;stroke-dasharray:none;stroke-opacity:1"
     d="m 241.537,29.593 c -3.641,-1.676 -3.51,2.401 -3.709,2.839 -2.113,4.542 -2.151,4.917 -3.52,8.489 -1.98,5.163 -2.541,9 0.125,11.027 1.812,1.369 3.448,1.385 4.578,0.702 1.245,-0.754 2.901,-3.468 1.62,-6.057 l 0.166,-1.708 c 0.26,-1.125 0.375,-1.687 0.552,-2.24 0.298,-0.957 0.563,-2 1.036,-3.895 0.85,-3.37 0.647,-7.209 0.647,-7.209 0.276,-1.213 -1.495,-1.948 -1.495,-1.948 z"
     id="path1078" />
  <path
     style="fill:#0098c9;fill-opacity:1;fill-rule:nonzero;stroke:none"
     d="m 240.136,46.078 -7.697,-1.328 c -0.068,0.651 -0.1,1.26 -0.111,1.843 -0.025,0.079 -0.057,0.152 -0.088,0.219 -0.385,0.714 -0.14,1.297 0.303,2.24 0.333,1.516 1.066,2.661 2.369,3.344 2.016,1.057 3.631,0.792 4.631,-0.074 1.104,-0.942 2.29,-3.905 0.593,-6.244"
     id="path1079" />
  <path
     style="fill:none;stroke:#231f20;stroke-width:0.565977;stroke-linecap:butt;stroke-linejoin:miter;stroke-miterlimit:4;stroke-dasharray:none;stroke-opacity:1"
     d="m 240.136,46.078 -7.697,-1.328 c -0.068,0.651 -0.1,1.26 -0.111,1.843 -0.025,0.079 -0.057,0.152 -0.088,0.219 -0.385,0.714 -0.14,1.297 0.303,2.24 0.333,1.516 1.066,2.661 2.369,3.344 2.016,1.057 3.631,0.792 4.631,-0.074 1.104,-0.942 2.29,-3.905 0.593,-6.244 z"
     id="path1080" />
  <path
     style="fill:#231f20;fill-opacity:1;fill-rule:nonzero;stroke:none"
     d="m 240.937,85.713 c 0.142,-0.635 -0.785,-2.344 -0.946,-3.948 -0.11,-1.077 -1.486,-3.457 -1.516,-4.541 -0.027,-0.995 -0.136,-1.448 -1.271,-1.604 -0.677,-0.099 -2.043,0.15 -2.141,0.656 -0.219,1.166 -0.015,2.089 0.422,3.062 0.5,1.11 2.119,4 2.468,4.5 0.871,1.251 0.828,1.99 1.027,2.344 0.369,0.662 0.713,0.678 1.197,0.536 0.918,-0.281 0.76,-1.005 0.76,-1.005"
     id="path1081" />
  <path
     style="fill:none;stroke:#231f20;stroke-width:0.565977;stroke-linecap:butt;stroke-linejoin:miter;stroke-miterlimit:4;stroke-dasharray:none;stroke-opacity:1"
     d="m 240.937,85.713 c 0.142,-0.635 -0.785,-2.344 -0.946,-3.948 -0.11,-1.077 -1.486,-3.457 -1.516,-4.541 -0.027,-0.995 -0.136,-1.448 -1.271,-1.604 -0.677,-0.099 -2.043,0.15 -2.141,0.656 -0.219,1.166 -0.015,2.089 0.422,3.062 0.5,1.11 2.119,4 2.468,4.5 0.871,1.251 0.828,1.99 1.027,2.344 0.369,0.662 0.713,0.678 1.197,0.536 0.918,-0.281 0.76,-1.005 0.76,-1.005 z"
     id="path1082" />
  <path
     style="fill:#231f20;fill-opacity:1;fill-rule:nonzero;stroke:none"
     d="m 237.803,77.208 c 1.161,-0.578 -0.068,-2.208 -0.328,-2.676 -0.256,-0.486 -0.834,-1.923 -1.142,-3.11 -0.312,-1.182 -1.197,-2.532 -1.785,-4.781 -0.308,-1.188 -1.36,-2.141 -3.057,-1.615 -1.678,0.515 -2.022,1.651 -1.428,3.026 0.589,1.374 1.718,2.417 2.417,3.765 0.692,1.339 1.265,2.776 1.672,3.923 0.452,1.306 1.172,1.781 1.645,1.812 1.194,0.078 2.006,-0.344 2.006,-0.344"
     id="path1083" />
  <path
     style="fill:none;stroke:#231f20;stroke-width:0.565977;stroke-linecap:butt;stroke-linejoin:miter;stroke-miterlimit:4;stroke-dasharray:none;stroke-opacity:1"
     d="m 237.803,77.208 c 1.161,-0.578 -0.068,-2.208 -0.328,-2.676 -0.256,-0.486 -0.834,-1.923 -1.142,-3.11 -0.312,-1.182 -1.197,-2.532 -1.785,-4.781 -0.308,-1.188 -1.36,-2.141 -3.057,-1.615 -1.678,0.515 -2.022,1.651 -1.428,3.026 0.589,1.374 1.718,2.417 2.417,3.765 0.692,1.339 1.265,2.776 1.672,3.923 0.452,1.306 1.172,1.781 1.645,1.812 1.194,0.078 2.006,-0.344 2.006,-0.344 z"
     id="path1084" />
  <path
     style="fill:#ffffff;fill-opacity:1;fill-rule:nonzero;stroke:none"
     d="m 240.661,97.912 c -0.145,-1.016 0.563,-1.959 1.579,-2.104 1.016,-0.142 1.959,0.566 2.104,1.582 0.147,1.022 -0.563,1.959 -1.583,2.104 -1.016,0.147 -1.958,-0.562 -2.1,-1.582"
     id="path1085" />
  <path
     style="fill:none;stroke:#231f20;stroke-width:1.33171;stroke-linecap:butt;stroke-linejoin:miter;stroke-miterlimit:4;stroke-dasharray:none;stroke-opacity:1"
     d="m 240.661,97.912 c -0.145,-1.016 0.563,-1.959 1.579,-2.104 1.016,-0.142 1.959,0.566 2.104,1.582 0.147,1.022 -0.563,1.959 -1.583,2.104 -1.016,0.147 -1.958,-0.562 -2.1,-1.582 z"
     id="path1086" />
  <path
     style="fill:#ffffff;fill-opacity:1;fill-rule:nonzero;stroke:none"
     d="m 131.615,97.912 c -0.146,-1.016 0.562,-1.959 1.578,-2.104 1.016,-0.142 1.959,0.566 2.104,1.582 0.146,1.022 -0.562,1.959 -1.582,2.104 -1.016,0.147 -1.959,-0.562 -2.1,-1.582"
     id="path1087" />
  <path
     style="fill:none;stroke:#231f20;stroke-width:1.33171;stroke-linecap:butt;stroke-linejoin:miter;stroke-miterlimit:4;stroke-dasharray:none;stroke-opacity:1"
     d="m 131.615,97.912 c -0.146,-1.016 0.562,-1.959 1.578,-2.104 1.016,-0.142 1.959,0.566 2.104,1.582 0.146,1.022 -0.562,1.959 -1.582,2.104 -1.016,0.147 -1.959,-0.562 -2.1,-1.582 z"
     id="path1088" />
  <path
     style="fill:#ffffff;fill-opacity:1;fill-rule:nonzero;stroke:none"
     d="m 42.772,97.912 c -0.146,-1.016 0.562,-1.959 1.578,-2.104 1.016,-0.142 1.958,0.566 2.098,1.582 0.152,1.022 -0.562,1.959 -1.577,2.104 -1.021,0.147 -1.959,-0.562 -2.099,-1.582"
     id="path1089" />
  <path
     style="fill:none;stroke:#231f20;stroke-width:1.33171;stroke-linecap:butt;stroke-linejoin:miter;stroke-miterlimit:4;stroke-dasharray:none;stroke-opacity:1"
     d="m 42.772,97.912 c -0.146,-1.016 0.562,-1.959 1.578,-2.104 1.016,-0.142 1.958,0.566 2.098,1.582 0.152,1.022 -0.562,1.959 -1.577,2.104 -1.021,0.147 -1.959,-0.562 -2.099,-1.582 z"
     id="path1090" />
  <path
     style="fill:#231f20;fill-opacity:1;fill-rule:nonzero;stroke:none"
     d="m 243.261,91.645 c -0.646,-0.337 -2.833,-2.744 -3.308,-3.317 -0.426,-0.506 -1.405,-1.12 -0.926,-2.167 0.192,-0.427 0.776,-0.911 1.073,-1.041 0.239,-0.11 0.515,0.062 0.733,0.396 0.382,0.552 0.276,0.849 0.939,1.942 0,0 0.113,0.276 0.291,0.802 0.541,1.542 0.166,0.917 1.442,2.969 0.09,0.14 0.006,0.339 -0.093,0.396 -0.161,0.077 -0.151,0.02 -0.151,0.02"
     id="path1091" />
  <path
     style="fill:none;stroke:#231f20;stroke-width:0.565977;stroke-linecap:round;stroke-linejoin:round;stroke-miterlimit:4;stroke-dasharray:none;stroke-opacity:1"
     d="m 243.261,91.645 c -0.646,-0.337 -2.833,-2.744 -3.308,-3.317 -0.426,-0.506 -1.405,-1.12 -0.926,-2.167 0.192,-0.427 0.776,-0.911 1.073,-1.041 0.239,-0.11 0.515,0.062 0.733,0.396 0.382,0.552 0.276,0.849 0.939,1.942 0,0 0.113,0.276 0.291,0.802 0.541,1.542 0.166,0.917 1.442,2.969 0.09,0.14 0.006,0.339 -0.093,0.396 -0.161,0.077 -0.151,0.02 -0.151,0.02 z"
     id="path1092" />
  <path
     style="fill:#231f20;fill-opacity:1;fill-rule:nonzero;stroke:none"
     d="m 292.757,90.426 c -0.64,-0.337 -2.83,-2.744 -3.3,-3.312 -0.43,-0.51 -1.41,-1.125 -0.93,-2.172 0.2,-0.426 0.78,-0.91 1.07,-1.041 0.24,-0.109 0.52,0.068 0.74,0.396 0.38,0.552 0.28,0.848 0.94,1.943 0,0 0.11,0.281 0.29,0.806 0.54,1.538 0.16,0.912 1.44,2.964 0.09,0.14 0,0.344 -0.09,0.396 -0.17,0.078 -0.16,0.02 -0.16,0.02"
     id="path1093" />
  <path
     style="fill:none;stroke:#231f20;stroke-width:0.565977;stroke-linecap:round;stroke-linejoin:round;stroke-miterlimit:4;stroke-dasharray:none;stroke-opacity:1"
     d="m 292.757,90.426 c -0.64,-0.337 -2.83,-2.744 -3.3,-3.312 -0.43,-0.51 -1.41,-1.125 -0.93,-2.172 0.2,-0.426 0.78,-0.91 1.07,-1.041 0.24,-0.109 0.52,0.068 0.74,0.396 0.38,0.552 0.28,0.848 0.94,1.943 0,0 0.11,0.281 0.29,0.806 0.54,1.538 0.16,0.912 1.44,2.964 0.09,0.14 0,0.344 -0.09,0.396 -0.17,0.078 -0.16,0.02 -0.16,0.02 z"
     id="path1094" />
  <path
     style="fill:none;stroke:#231f20;stroke-width:0.399514;stroke-linecap:butt;stroke-linejoin:miter;stroke-miterlimit:4;stroke-dasharray:none;stroke-opacity:1"
     d="m 188.901,118.187 c 18.246,-19.213 1.12,-48.985 -4.468,-53.619"
     id="path1095" />
  <path
     style="fill:#231f20;fill-opacity:1;fill-rule:nonzero;stroke:none"
     d="m 183.505,63.797 c 0.574,0.197 1.344,0.375 1.918,0.359 l -0.871,0.51 -0.343,0.954 c -0.089,-0.574 -0.401,-1.298 -0.704,-1.823"
     id="path1096" />
  <path
     style="fill:none;stroke:#231f20;stroke-width:0.399514;stroke-linecap:butt;stroke-linejoin:miter;stroke-miterlimit:4;stroke-dasharray:none;stroke-opacity:1"
     d="m 79.366,63.822 c -19.516,17.918 -4.47,48.792 0.786,53.803"
     id="path1097" />
  <path
     style="fill:#231f20;fill-opacity:1;fill-rule:nonzero;stroke:none"
     d="m 81.027,118.453 c -0.557,-0.24 -1.312,-0.464 -1.891,-0.49 l 0.902,-0.448 0.405,-0.928 c 0.057,0.579 0.319,1.324 0.584,1.866"
     id="path1098" />
</svg>
