<?xml version="1.0" encoding="UTF-8" standalone="no"?>
<!-- Created with Inkscape (http://www.inkscape.org/) -->

<svg
   version="1.1"
   id="svg1"
   width="330.13443"
   height="111.40531"
   viewBox="0 0 330.13442 111.40531"
   sodipodi:docname="cell.svg"
   xmlns:inkscape="http://www.inkscape.org/namespaces/inkscape"
   xmlns:sodipodi="http://sodipodi.sourceforge.net/DTD/sodipodi-0.dtd"
   xmlns="http://www.w3.org/2000/svg"
   xmlns:svg="http://www.w3.org/2000/svg">
  <sodipodi:namedview
     id="namedview1"
     pagecolor="#ffffff"
     bordercolor="#000000"
     borderopacity="0.25"
     inkscape:showpageshadow="2"
     inkscape:pageopacity="0.0"
     inkscape:pagecheckerboard="0"
     inkscape:deskcolor="#d1d1d1">
    <inkscape:page
       x="0"
       y="0"
       inkscape:label="1"
       id="page1"
       width="330.13443"
       height="111.40531"
       margin="0"
       bleed="0" />
  </sodipodi:namedview>
  <defs
     id="defs1" />
  <path
     style="fill:#231f20;fill-opacity:1;fill-rule:nonzero;stroke:none"
     d="m 234.9569,70.953095 c -2.032,-0.991 -2.568,-0.901 -3.036,-0.068 -0.324,0.552 -0.802,0.959 -1.01,1.287 -0.694,1.093 -1.412,3.229 -1.866,9.79 -0.098,1.491 -0.254,3.579 -0.39,4.434 -0.208,1.338 2.157,0.776 2.245,0.249 0.281,-1.687 0.615,-2.828 0.803,-3.421 0.129,-0.412 0.249,-1.162 0.952,-2.678 1.052,-2.297 2.026,-3.51 2.682,-5.526 0.303,-0.932 1.126,-1.438 0.954,-2.51 -0.162,-1.073 -1.334,-1.557 -1.334,-1.557"
     id="path251" />
  <path
     style="fill:none;stroke:#231f20;stroke-width:0.565977;stroke-linecap:butt;stroke-linejoin:miter;stroke-miterlimit:4;stroke-dasharray:none;stroke-opacity:1"
     d="m 234.9569,70.953095 c -2.032,-0.991 -2.568,-0.901 -3.036,-0.068 -0.324,0.552 -0.802,0.959 -1.01,1.287 -0.694,1.093 -1.412,3.229 -1.866,9.79 -0.098,1.491 -0.254,3.579 -0.39,4.434 -0.208,1.338 2.157,0.776 2.245,0.249 0.281,-1.687 0.615,-2.828 0.803,-3.421 0.129,-0.412 0.249,-1.162 0.952,-2.678 1.052,-2.297 2.026,-3.51 2.682,-5.526 0.303,-0.932 1.126,-1.438 0.954,-2.51 -0.162,-1.073 -1.334,-1.557 -1.334,-1.557 z"
     id="path252" />
  <path
     style="fill:#231f20;fill-opacity:1;fill-rule:nonzero;stroke:#231f20;stroke-width:0.565977;stroke-linecap:round;stroke-linejoin:round;stroke-miterlimit:4;stroke-dasharray:none;stroke-opacity:1"
     d="m 235.6759,73.349095 c 1.344,-0.475 1.541,-2.62 1.713,-2.907 2.579,-4.302 2.656,-4.677 4.391,-8.084 2.505,-4.921 3.469,-8.681 1.032,-10.978 -1.663,-1.558 -3.287,-1.735 -4.48,-1.183 -1.323,0.625 -3.249,3.152 -2.249,5.86 l -0.344,1.677 c -0.375,1.104 -0.552,1.651 -0.782,2.176 -0.396,0.923 -0.765,1.928 -1.437,3.772 -1.199,3.26 -1.396,7.094 -1.396,7.094 -0.104,0.296 -0.073,0.573 0.025,0.828"
     id="path253" />
  <path
     style="fill:#231f20;fill-opacity:1;fill-rule:nonzero;stroke:none"
     d="m 227.5349,88.166095 c -0.76,-1.109 -0.198,-1.928 0.808,-2.193 0.297,-0.083 0.469,-0.463 0.765,-0.515 0.693,-0.125 2.089,0.916 1.521,2.302 -0.037,0.098 -0.114,0.917 -0.26,1.51 -0.292,1.183 -1.448,3.396 -4.026,4.188 -1.224,0.37 -1.214,-0.422 -0.766,-0.72 1.422,-0.957 1.359,-1.317 1.64,-1.702 0.964,-1.302 0.318,-2.87 0.318,-2.87"
     id="path254" />
  <path
     style="fill:none;stroke:#231f20;stroke-width:0.332927;stroke-linecap:butt;stroke-linejoin:miter;stroke-miterlimit:4;stroke-dasharray:none;stroke-opacity:1"
     d="m 227.5349,88.166095 c -0.76,-1.109 -0.198,-1.928 0.808,-2.193 0.297,-0.083 0.469,-0.463 0.765,-0.515 0.693,-0.125 2.089,0.916 1.521,2.302 -0.037,0.098 -0.114,0.917 -0.26,1.51 -0.292,1.183 -1.448,3.396 -4.026,4.188 -1.224,0.37 -1.214,-0.422 -0.766,-0.72 1.422,-0.957 1.359,-1.317 1.64,-1.702 0.964,-1.302 0.318,-2.87 0.318,-2.87 z"
     id="path255" />
  <path
     style="fill:#231f20;fill-opacity:1;fill-rule:nonzero;stroke:none"
     d="m 194.3889,82.254095 c -0.577,-0.322 -1.989,0.803 -3.953,0.708 -0.4,-0.02 -0.739,0.158 -1.088,0.272 -1.437,0.474 -2.475,1.692 1.177,2.843 0.511,0.157 2.594,-0.099 3.323,0.193 1.724,0.703 4.729,-0.724 4.62,-1.229 -0.224,-1.099 -4.079,-2.787 -4.079,-2.787"
     id="path256" />
  <path
     style="fill:none;stroke:#231f20;stroke-width:0.644548;stroke-linecap:round;stroke-linejoin:round;stroke-miterlimit:4;stroke-dasharray:none;stroke-opacity:1"
     d="m 194.3889,82.254095 c -0.577,-0.322 -1.989,0.803 -3.953,0.708 -0.4,-0.02 -0.739,0.158 -1.088,0.272 -1.437,0.474 -2.475,1.692 1.177,2.843 0.511,0.157 2.594,-0.099 3.323,0.193 1.724,0.703 4.729,-0.724 4.62,-1.229 -0.224,-1.099 -4.079,-2.787 -4.079,-2.787 z"
     id="path257" />
  <path
     style="fill:#231f20;fill-opacity:1;fill-rule:nonzero;stroke:none"
     d="m 176.1189,85.478095 c 0.921,1.162 1.636,2.792 7.806,1.027 2.506,-0.713 8.022,-0.276 7.934,-1.407 -0.23,-3.082 -7.23,-3.984 -8.314,-4.849 -1.338,-1.068 -6.052,-0.708 -7.172,0.256 -2.609,2.244 -0.254,4.973 -0.254,4.973"
     id="path258" />
  <path
     style="fill:none;stroke:#231f20;stroke-width:0.31961;stroke-linecap:butt;stroke-linejoin:miter;stroke-miterlimit:4;stroke-dasharray:none;stroke-opacity:1"
     d="m 176.1189,85.478095 c 0.921,1.162 1.636,2.792 7.806,1.027 2.506,-0.713 8.022,-0.276 7.934,-1.407 -0.23,-3.082 -7.23,-3.984 -8.314,-4.849 -1.338,-1.068 -6.052,-0.708 -7.172,0.256 -2.609,2.244 -0.254,4.973 -0.254,4.973 z"
     id="path259" />
  <path
     style="fill:#231f20;fill-opacity:1;fill-rule:nonzero;stroke:none"
     d="m 325.6809,5.8750948 c 1.099,0.786 0.849,1.745 0,2.344 -0.251,0.177 -0.281,0.588 -0.541,0.744 -0.61,0.354 -2.282,-0.14 -2.219,-1.64 0,-0.104 -0.209,-0.896 -0.276,-1.516 -0.136,-1.203 0.187,-3.678 2.343,-5.30699994 1.016,-0.771 1.281,-0.027 0.969,0.411 -1.011,1.38499994 -0.828,1.70399994 -0.964,2.16099994 -0.448,1.557 0.688,2.803 0.688,2.803"
     id="path260" />
  <path
     style="fill:none;stroke:#231f20;stroke-width:0.332927;stroke-linecap:butt;stroke-linejoin:miter;stroke-miterlimit:4;stroke-dasharray:none;stroke-opacity:1"
     d="m 325.6809,5.8750948 c 1.099,0.786 0.849,1.745 0,2.344 -0.251,0.177 -0.281,0.588 -0.541,0.744 -0.61,0.354 -2.282,-0.14 -2.219,-1.64 0,-0.104 -0.209,-0.896 -0.276,-1.516 -0.136,-1.203 0.187,-3.678 2.343,-5.30699994 1.016,-0.771 1.281,-0.027 0.969,0.411 -1.011,1.38499994 -0.828,1.70399994 -0.964,2.16099994 -0.448,1.557 0.688,2.803 0.688,2.803 z"
     id="path261" />
  <path
     style="fill:#231f20;fill-opacity:1;fill-rule:nonzero;stroke:none"
     d="m 324.6289,24.593095 c 2.249,0.23 2.719,-0.03 2.875,-0.978 0.109,-0.631 0.426,-1.178 0.51,-1.558 0.271,-1.265 0.214,-3.51 -1.62,-9.838 -0.416,-1.427 -0.984,-3.4480002 -1.15,-4.2920002 -0.266,-1.328 -2.298,0.01 -2.199,0.536 0.313,1.6880002 0.396,2.8650002 0.423,3.4900002 0.025,0.427 0.161,1.176 0.03,2.839 -0.202,2.52 -0.697,3.995 -0.62,6.109 0.032,0.979 -0.566,1.744 -0.041,2.687 0.527,0.953 1.792,1.005 1.792,1.005"
     id="path262" />
  <path
     style="fill:none;stroke:#231f20;stroke-width:0.565977;stroke-linecap:butt;stroke-linejoin:miter;stroke-miterlimit:4;stroke-dasharray:none;stroke-opacity:1"
     d="m 324.6289,24.593095 c 2.249,0.23 2.719,-0.03 2.875,-0.978 0.109,-0.631 0.426,-1.178 0.51,-1.558 0.271,-1.265 0.214,-3.51 -1.62,-9.838 -0.416,-1.427 -0.984,-3.4480002 -1.15,-4.2920002 -0.266,-1.328 -2.298,0.01 -2.199,0.536 0.313,1.6880002 0.396,2.8650002 0.423,3.4900002 0.025,0.427 0.161,1.176 0.03,2.839 -0.202,2.52 -0.697,3.995 -0.62,6.109 0.032,0.979 -0.566,1.744 -0.041,2.687 0.527,0.953 1.792,1.005 1.792,1.005 z"
     id="path263" />
  <path
     style="fill:#0098c9;fill-opacity:1;fill-rule:nonzero;stroke:none"
     d="m 326.7219,51.301095 c 0.594,-3.077 1.063,-3.672 1.579,-4.432 3.244,-4.786 0.833,-6.286 -2.047,-6.317 -3.39,-0.037 -4.609,-0.12 -5.224,6.145 -0.162,1.745 -1.688,8.344 -1.688,8.344 -0.864,2.292 -0.484,4.984 0.542,6.021 1.084,1.083 0.729,0.572 1.917,1.396 1.129,0.791 3.312,0.958 4.181,0.072 0.834,-0.838 0.418,-2.453 0.115,-4.858 -0.233,-1.896 0.625,-6.371 0.625,-6.371"
     id="path264" />
  <path
     style="fill:none;stroke:#231f20;stroke-width:0.565977;stroke-linecap:butt;stroke-linejoin:miter;stroke-miterlimit:4;stroke-dasharray:none;stroke-opacity:1"
     d="m 326.7219,51.301095 c 0.594,-3.077 1.063,-3.672 1.579,-4.432 3.244,-4.786 0.833,-6.286 -2.047,-6.317 -3.39,-0.037 -4.609,-0.12 -5.224,6.145 -0.162,1.745 -1.688,8.344 -1.688,8.344 -0.864,2.292 -0.484,4.984 0.542,6.021 1.084,1.083 0.729,0.572 1.917,1.396 1.129,0.791 3.312,0.958 4.181,0.072 0.834,-0.838 0.418,-2.453 0.115,-4.858 -0.233,-1.896 0.625,-6.371 0.625,-6.371 z"
     id="path265" />
  <path
     style="fill:#0098c9;fill-opacity:1;fill-rule:nonzero;stroke:none"
     d="m 294.4209,64.301095 c -0.657,-3.063 -0.464,-3.796 -0.286,-4.697 1.098,-5.678 -1.704,-6.11 -4.366,-5 -3.134,1.292 -4.286,1.697 -2.385,7.697 0.532,1.672 1.724,8.339 1.724,8.339 0.104,2.442 1.511,4.77 2.86,5.322 1.427,0.574 0.9,0.24 2.312,0.532 1.349,0.282 3.423,-0.422 3.875,-1.573 0.437,-1.104 -0.583,-2.427 -1.802,-4.516 -0.964,-1.656 -1.932,-6.104 -1.932,-6.104"
     id="path266" />
  <path
     style="fill:none;stroke:#231f20;stroke-width:0.565977;stroke-linecap:butt;stroke-linejoin:miter;stroke-miterlimit:4;stroke-dasharray:none;stroke-opacity:1"
     d="m 294.4209,64.301095 c -0.657,-3.063 -0.464,-3.796 -0.286,-4.697 1.098,-5.678 -1.704,-6.11 -4.366,-5 -3.134,1.292 -4.286,1.697 -2.385,7.697 0.532,1.672 1.724,8.339 1.724,8.339 0.104,2.442 1.511,4.77 2.86,5.322 1.427,0.574 0.9,0.24 2.312,0.532 1.349,0.282 3.423,-0.422 3.875,-1.573 0.437,-1.104 -0.583,-2.427 -1.802,-4.516 -0.964,-1.656 -1.932,-6.104 -1.932,-6.104 z"
     id="path267" />
  <path
     style="fill:#ffffff;fill-opacity:1;fill-rule:nonzero;stroke:none"
     d="m 318.0139,67.296095 c -0.104,0.224 -1.234,0.026 -1.365,0.532 -0.129,0.51 0.563,0.89 0.948,2.844 l 0.005,0.02 c 0.235,1.437 1.011,2.584 2.199,2.99 1.968,0.671 4.296,-0.958 5.203,-3.625 0.917,-2.677 0.057,-5.385 -1.907,-6.057 -1.88,-0.642 -4.104,0.822 -5.083,3.296"
     id="path268" />
  <path
     style="fill:none;stroke:#231f20;stroke-width:0.565977;stroke-linecap:butt;stroke-linejoin:miter;stroke-miterlimit:4;stroke-dasharray:none;stroke-opacity:1"
     d="m 318.0139,67.296095 c -0.104,0.224 -1.234,0.026 -1.365,0.532 -0.129,0.51 0.563,0.89 0.948,2.844 l 0.005,0.02 c 0.235,1.437 1.011,2.584 2.199,2.99 1.968,0.671 4.296,-0.958 5.203,-3.625 0.917,-2.677 0.057,-5.385 -1.907,-6.057 -1.88,-0.642 -4.104,0.822 -5.083,3.296 z"
     id="path269" />
  <path
     style="fill:#231f20;fill-opacity:1;fill-rule:nonzero;stroke:none"
     d="m 325.4249,22.260095 c -3.937,-0.745 -2.812,3.183 -2.905,3.651 -0.943,4.922 -0.886,5.297 -1.344,9.094 -0.662,5.49 -0.271,9.348 2.806,10.667 2.09,0.89 3.683,0.5 4.61,-0.434 1.026,-1.036 1.974,-4.071 0.1,-6.275 l -0.256,-1.692 c -0.026,-1.162 -0.047,-1.735 -0.011,-2.308 0.057,-1.004 0.057,-2.078 0.057,-4.036 0.006,-3.474 -1.129,-7.14 -1.129,-7.14 -0.027,-1.251 -1.928,-1.527 -1.928,-1.527"
     id="path270" />
  <path
     style="fill:none;stroke:#231f20;stroke-width:0.565977;stroke-linecap:butt;stroke-linejoin:miter;stroke-miterlimit:4;stroke-dasharray:none;stroke-opacity:1"
     d="m 325.4249,22.260095 c -3.937,-0.745 -2.812,3.183 -2.905,3.651 -0.943,4.922 -0.886,5.297 -1.344,9.094 -0.662,5.49 -0.271,9.348 2.806,10.667 2.09,0.89 3.683,0.5 4.61,-0.434 1.026,-1.036 1.974,-4.071 0.1,-6.275 l -0.256,-1.692 c -0.026,-1.162 -0.047,-1.735 -0.011,-2.308 0.057,-1.004 0.057,-2.078 0.057,-4.036 0.006,-3.474 -1.129,-7.14 -1.129,-7.14 -0.027,-1.251 -1.928,-1.527 -1.928,-1.527 z"
     id="path271" />
  <path
     style="fill:#0098c9;fill-opacity:1;fill-rule:nonzero;stroke:none"
     d="m 328.0879,38.588095 -7.792,0.584 c 0.088,0.651 0.208,1.249 0.338,1.817 -0.005,0.083 -0.016,0.162 -0.032,0.23 -0.197,0.786 0.183,1.292 0.839,2.093 0.693,1.39 1.683,2.328 3.12,2.672 2.208,0.53 3.708,-0.115 4.469,-1.192 0.838,-1.194 1.271,-4.344 -0.942,-6.204"
     id="path272" />
  <path
     style="fill:none;stroke:#231f20;stroke-width:0.565977;stroke-linecap:butt;stroke-linejoin:miter;stroke-miterlimit:4;stroke-dasharray:none;stroke-opacity:1"
     d="m 328.0879,38.588095 -7.792,0.584 c 0.088,0.651 0.208,1.249 0.338,1.817 -0.005,0.083 -0.016,0.162 -0.032,0.23 -0.197,0.786 0.183,1.292 0.839,2.093 0.693,1.39 1.683,2.328 3.12,2.672 2.208,0.53 3.708,-0.115 4.469,-1.192 0.838,-1.194 1.271,-4.344 -0.942,-6.204 z"
     id="path273" />
  <path
     style="fill:#231f20;fill-opacity:1;fill-rule:nonzero;stroke:none"
     d="m 322.1919,80.557095 c -0.35,-0.541 -0.063,-2.469 -0.459,-4.027 -0.265,-1.057 0.208,-3.76 -0.136,-4.792 -0.312,-0.937 -0.364,-1.4 0.652,-1.942 0.599,-0.323 1.963,-0.552 2.229,-0.114 0.61,1.026 0.739,1.963 0.656,3.026 -0.089,1.213 -0.63,4.478 -0.781,5.073 -0.391,1.473 -0.095,2.145 -0.161,2.547 -0.12,0.749 -0.443,0.89 -0.943,0.916 -0.959,0.048 -1.057,-0.687 -1.057,-0.687"
     id="path274" />
  <path
     style="fill:none;stroke:#231f20;stroke-width:0.565977;stroke-linecap:butt;stroke-linejoin:miter;stroke-miterlimit:4;stroke-dasharray:none;stroke-opacity:1"
     d="m 322.1919,80.557095 c -0.35,-0.541 -0.063,-2.469 -0.459,-4.027 -0.265,-1.057 0.208,-3.76 -0.136,-4.792 -0.312,-0.937 -0.364,-1.4 0.652,-1.942 0.599,-0.323 1.963,-0.552 2.229,-0.114 0.61,1.026 0.739,1.963 0.656,3.026 -0.089,1.213 -0.63,4.478 -0.781,5.073 -0.391,1.473 -0.095,2.145 -0.161,2.547 -0.12,0.749 -0.443,0.89 -0.943,0.916 -0.959,0.048 -1.057,-0.687 -1.057,-0.687 z"
     id="path275" />
  <path
     style="fill:#231f20;fill-opacity:1;fill-rule:nonzero;stroke:none"
     d="m 322.2279,71.500095 c -1.292,-0.151 -0.688,-2.099 -0.615,-2.631 0.084,-0.541 0.136,-2.093 0.016,-3.312 -0.115,-1.219 0.26,-2.792 0.047,-5.104 -0.115,-1.219 0.546,-2.475 2.317,-2.568 1.756,-0.084 2.464,0.869 2.38,2.359 -0.083,1.494 -0.796,2.865 -0.989,4.365 -0.187,1.5 -0.244,3.041 -0.23,4.26 0.022,1.38 -0.489,2.068 -0.926,2.26 -1.094,0.485 -2,0.371 -2,0.371"
     id="path276" />
  <path
     style="fill:none;stroke:#231f20;stroke-width:0.565977;stroke-linecap:butt;stroke-linejoin:miter;stroke-miterlimit:4;stroke-dasharray:none;stroke-opacity:1"
     d="m 322.2279,71.500095 c -1.292,-0.151 -0.688,-2.099 -0.615,-2.631 0.084,-0.541 0.136,-2.093 0.016,-3.312 -0.115,-1.219 0.26,-2.792 0.047,-5.104 -0.115,-1.219 0.546,-2.475 2.317,-2.568 1.756,-0.084 2.464,0.869 2.38,2.359 -0.083,1.494 -0.796,2.865 -0.989,4.365 -0.187,1.5 -0.244,3.041 -0.23,4.26 0.022,1.38 -0.489,2.068 -0.926,2.26 -1.094,0.485 -2,0.371 -2,0.371 z"
     id="path277" />
  <path
     style="fill:#0098c9;fill-opacity:1;fill-rule:nonzero;stroke:none"
     d="m 179.3889,74.749095 c -1.885,2.959 -2.244,3.871 -2.765,4.88 -2.651,5.141 -1.745,6.057 0.339,7.245 2.942,1.688 4.718,2.323 7.301,-3.416 1.959,-4.354 4.037,-7.313 4.037,-7.313 1.454,-1.177 3.12,-4.359 2.984,-5.26 -0.24,-1.521 -0.24,-1.219 -1.088,-2.385 -1.573,-2.167 -2.766,-2.006 -3.838,-1.5 -1.079,0.51 -1.814,1.234 -3.604,3.401 -1.396,1.676 -3.366,4.348 -3.366,4.348"
     id="path278" />
  <path
     style="fill:none;stroke:#231f20;stroke-width:0.565977;stroke-linecap:butt;stroke-linejoin:miter;stroke-miterlimit:4;stroke-dasharray:none;stroke-opacity:1"
     d="m 179.3889,74.749095 c -1.885,2.959 -2.244,3.871 -2.765,4.88 -2.651,5.141 -1.745,6.057 0.339,7.245 2.942,1.688 4.718,2.323 7.301,-3.416 1.959,-4.354 4.037,-7.313 4.037,-7.313 1.454,-1.177 3.12,-4.359 2.984,-5.26 -0.24,-1.521 -0.24,-1.219 -1.088,-2.385 -1.573,-2.167 -2.766,-2.006 -3.838,-1.5 -1.079,0.51 -1.814,1.234 -3.604,3.401 -1.396,1.676 -3.366,4.348 -3.366,4.348 z"
     id="path279" />
  <path
     style="fill:#ffffff;fill-opacity:1;fill-rule:nonzero;stroke:none"
     d="m 196.9569,68.604095 c 0.224,-0.09 0.927,0.817 1.359,0.53 0.443,-0.286 0.188,-1.03 1.229,-2.729 l 0.011,-0.02 c 0.803,-1.213 1,-2.589 0.401,-3.688 -0.994,-1.823 -3.808,-2.208 -6.286,-0.849 -2.484,1.349 -3.683,3.928 -2.688,5.745 0.948,1.751 3.573,2.172 5.974,1.011"
     id="path280" />
  <path
     style="fill:none;stroke:#231f20;stroke-width:0.565977;stroke-linecap:butt;stroke-linejoin:miter;stroke-miterlimit:4;stroke-dasharray:none;stroke-opacity:1"
     d="m 196.9569,68.604095 c 0.224,-0.09 0.927,0.817 1.359,0.53 0.443,-0.286 0.188,-1.03 1.229,-2.729 l 0.011,-0.02 c 0.803,-1.213 1,-2.589 0.401,-3.688 -0.994,-1.823 -3.808,-2.208 -6.286,-0.849 -2.484,1.349 -3.683,3.928 -2.688,5.745 0.948,1.751 3.573,2.172 5.974,1.011 z"
     id="path281" />
  <path
     style="fill:#231f20;fill-opacity:1;fill-rule:nonzero;stroke:none"
     d="m 199.2799,82.702095 c -0.62,0.183 -2.385,-0.634 -3.995,-0.697 -1.084,-0.043 -3.546,-1.256 -4.63,-1.219 -0.99,0.036 -1.448,-0.042 -1.682,-1.166 -0.141,-0.667 0.02,-2.048 0.515,-2.172 1.157,-0.298 2.089,-0.156 3.089,0.218 1.14,0.427 4.126,1.864 4.651,2.178 1.303,0.79 2.031,0.692 2.396,0.874 0.688,0.328 0.729,0.672 0.615,1.162 -0.224,0.932 -0.959,0.822 -0.959,0.822"
     id="path282" />
  <path
     style="fill:none;stroke:#231f20;stroke-width:0.565977;stroke-linecap:butt;stroke-linejoin:miter;stroke-miterlimit:4;stroke-dasharray:none;stroke-opacity:1"
     d="m 199.2799,82.702095 c -0.62,0.183 -2.385,-0.634 -3.995,-0.697 -1.084,-0.043 -3.546,-1.256 -4.63,-1.219 -0.99,0.036 -1.448,-0.042 -1.682,-1.166 -0.141,-0.667 0.02,-2.048 0.515,-2.172 1.157,-0.298 2.089,-0.156 3.089,0.218 1.14,0.427 4.126,1.864 4.651,2.178 1.303,0.79 2.031,0.692 2.396,0.874 0.688,0.328 0.729,0.672 0.615,1.162 -0.224,0.932 -0.959,0.822 -0.959,0.822 z"
     id="path283" />
  <path
     style="fill:#231f20;fill-opacity:1;fill-rule:nonzero;stroke:none"
     d="m 190.3069,80.530095 c -1.224,0.423 -1.516,-1.593 -1.678,-2.109 -0.156,-0.525 -0.776,-1.953 -1.401,-3 -0.625,-1.052 -0.959,-2.629 -2.145,-4.635 -0.626,-1.052 -0.563,-2.469 1,-3.308 1.546,-0.833 2.593,-0.27 3.156,1.115 0.568,1.385 0.505,2.921 0.978,4.365 0.47,1.438 1.084,2.854 1.615,3.947 0.604,1.24 0.443,2.084 0.131,2.444 -0.782,0.9 -1.656,1.181 -1.656,1.181"
     id="path284" />
  <path
     style="fill:none;stroke:#231f20;stroke-width:0.565977;stroke-linecap:butt;stroke-linejoin:miter;stroke-miterlimit:4;stroke-dasharray:none;stroke-opacity:1"
     d="m 190.3069,80.530095 c -1.224,0.423 -1.516,-1.593 -1.678,-2.109 -0.156,-0.525 -0.776,-1.953 -1.401,-3 -0.625,-1.052 -0.959,-2.629 -2.145,-4.635 -0.626,-1.052 -0.563,-2.469 1,-3.308 1.546,-0.833 2.593,-0.27 3.156,1.115 0.568,1.385 0.505,2.921 0.978,4.365 0.47,1.438 1.084,2.854 1.615,3.947 0.604,1.24 0.443,2.084 0.131,2.444 -0.782,0.9 -1.656,1.181 -1.656,1.181 z"
     id="path285" />
  <path
     style="fill:#231f20;fill-opacity:1;fill-rule:nonzero;stroke:none"
     d="m 175.7849,83.218095 c -0.453,1.411 -1.412,2.911 3.484,7.063 1.99,1.681 4.688,6.511 5.584,5.812 2.432,-1.907 -0.708,-8.229 -0.594,-9.609 0.146,-1.703 -2.776,-5.422 -4.198,-5.818 -3.312,-0.922 -4.276,2.552 -4.276,2.552"
     id="path286" />
  <path
     style="fill:none;stroke:#231f20;stroke-width:0.565977;stroke-linecap:butt;stroke-linejoin:miter;stroke-miterlimit:4;stroke-dasharray:none;stroke-opacity:1"
     d="m 175.7849,83.218095 c -0.453,1.411 -1.412,2.911 3.484,7.063 1.99,1.681 4.688,6.511 5.584,5.812 2.432,-1.907 -0.708,-8.229 -0.594,-9.609 0.146,-1.703 -2.776,-5.422 -4.198,-5.818 -3.312,-0.922 -4.276,2.552 -4.276,2.552 z"
     id="path287" />
  <path
     style="fill:#0098c9;fill-opacity:1;fill-rule:nonzero;stroke:none"
     d="m 18.5884,57.000095 c -1.36,-3.24 -1.901,-4.052 -2.4386,-5.058 -2.7078,-5.109 -3.9837,-4.88 -6.1452,-3.849 -3.0624997,1.459 -4.5932997,2.552 -1.3494997,7.948 2.4587997,4.093 3.7041997,7.484 3.7041997,7.484 0.1453,1.865 1.8067,5.047 2.6238,5.448 1.3865,0.672 1.136,0.5 2.5891,0.469 2.6724,-0.062 3.2136,-1.136 3.4109,-2.308 0.1985,-1.172 0.0163,-2.192 -0.7385,-4.896 -0.5843,-2.098 -1.6562,-5.238 -1.6562,-5.238"
     id="path288" />
  <path
     style="fill:none;stroke:#231f20;stroke-width:0.565977;stroke-linecap:butt;stroke-linejoin:miter;stroke-miterlimit:4;stroke-dasharray:none;stroke-opacity:1"
     d="m 18.5884,57.000095 c -1.36,-3.24 -1.901,-4.052 -2.4386,-5.058 -2.7078,-5.109 -3.9837,-4.88 -6.1452,-3.849 -3.0624997,1.459 -4.5932997,2.552 -1.3494997,7.948 2.4587997,4.093 3.7041997,7.484 3.7041997,7.484 0.1453,1.865 1.8067,5.047 2.6238,5.448 1.3865,0.672 1.136,0.5 2.5891,0.469 2.6724,-0.062 3.2136,-1.136 3.4109,-2.308 0.1985,-1.172 0.0163,-2.192 -0.7385,-4.896 -0.5843,-2.098 -1.6562,-5.238 -1.6562,-5.238 z"
     id="path289" />
  <path
     style="fill:#ffffff;fill-opacity:1;fill-rule:nonzero;stroke:none"
     d="m 10.2071,67.973095 c -2.2280997,-0.391 -2.7185997,-0.167 -2.9425997,0.765 -0.1558,0.62 -0.5094,1.142 -0.6188,1.516 -0.3703,1.24 -0.4796,3.49 0.875,9.927 0.312,1.459 0.7291,3.511 0.8334,4.371 0.1666,1.344 2.2863997,0.161 2.2289997,-0.375 -0.188,-1.699 -0.1776,-2.885 -0.1666,-3.511 0.0198,-0.428 -0.0682,-1.182 0.1865,-2.828 0.3907,-2.5 0.9948,-3.937 1.0787,-6.052 0.0358,-0.98 0.688,-1.693 0.2296,-2.677 -0.4484,-0.989 -1.7042,-1.136 -1.7042,-1.136"
     id="path290" />
  <path
     style="fill:none;stroke:#231f20;stroke-width:0.565977;stroke-linecap:butt;stroke-linejoin:miter;stroke-miterlimit:4;stroke-dasharray:none;stroke-opacity:1"
     d="m 10.2071,67.973095 c -2.2280997,-0.391 -2.7185997,-0.167 -2.9425997,0.765 -0.1558,0.62 -0.5094,1.142 -0.6188,1.516 -0.3703,1.24 -0.4796,3.49 0.875,9.927 0.312,1.459 0.7291,3.511 0.8334,4.371 0.1666,1.344 2.2863997,0.161 2.2289997,-0.375 -0.188,-1.699 -0.1776,-2.885 -0.1666,-3.511 0.0198,-0.428 -0.0682,-1.182 0.1865,-2.828 0.3907,-2.5 0.9948,-3.937 1.0787,-6.052 0.0358,-0.98 0.688,-1.693 0.2296,-2.677 -0.4484,-0.989 -1.7042,-1.136 -1.7042,-1.136 z"
     id="path291" />
  <path
     style="fill:#ffffff;fill-opacity:1;fill-rule:nonzero;stroke:none"
     d="m 18.5098,75.994095 c 0.0828,0.23 -0.8642,0.88 -0.6043,1.334 0.2657,0.453 1.0256,0.24 2.6667,1.369 l 0.0162,0.016 c 1.1667,0.859 2.5307,1.14 3.6614,0.593 1.8745,-0.896 2.4053,-3.681 1.1865,-6.229 -1.2131,-2.552 -3.724,-3.891 -5.5932,-2.995 -1.7975,0.855 -2.36,3.454 -1.3333,5.912"
     id="path292" />
  <path
     style="fill:none;stroke:#231f20;stroke-width:0.565977;stroke-linecap:butt;stroke-linejoin:miter;stroke-miterlimit:4;stroke-dasharray:none;stroke-opacity:1"
     d="m 18.5098,75.994095 c 0.0828,0.23 -0.8642,0.88 -0.6043,1.334 0.2657,0.453 1.0256,0.24 2.6667,1.369 l 0.0162,0.016 c 1.1667,0.859 2.5307,1.14 3.6614,0.593 1.8745,-0.896 2.4053,-3.681 1.1865,-6.229 -1.2131,-2.552 -3.724,-3.891 -5.5932,-2.995 -1.7975,0.855 -2.36,3.454 -1.3333,5.912 z"
     id="path293" />
  <path
     style="fill:#ffffff;fill-opacity:1;fill-rule:nonzero;stroke:#231f20;stroke-width:0.565977;stroke-linecap:round;stroke-linejoin:round;stroke-miterlimit:4;stroke-dasharray:none;stroke-opacity:1"
     d="m 11.5509,70.088095 c 1.1562,-0.828 0.7656,-2.943 0.8546,-3.266 1.3068,-4.844 1.2761,-5.224 2.0163,-8.974 1.0718,-5.422 0.9681,-9.296 -2.0053,-10.848 -2.0162,-1.042 -3.6358997,-0.771 -4.6306997,0.088 -1.0984,0.964 -2.2651,3.917 -0.5625,6.256 l 0.1308,1.702 c -0.0631,1.162 -0.0896,1.735 -0.1615,2.307 -0.1308,0.996 -0.2136,2.063 -0.3599,4.021 -0.2605,3.459 0.5932,7.208 0.5932,7.208 -0.0146,0.308 0.0948,0.568 0.2558,0.787"
     id="path294" />
  <path
     style="fill:#0098c9;fill-opacity:1;fill-rule:nonzero;stroke:none"
     d="m 11.8645,46.650095 c -2.1614997,-0.697 -3.7093997,-0.161 -4.5479997,0.855 -0.9214,1.129 -1.5932,4.239 0.4797,6.255 H 15.6087 c -0.2297,-3.755 -1.2245,-6.307 -3.7442,-7.11"
     id="path295" />
  <path
     style="fill:none;stroke:#231f20;stroke-width:0.565977;stroke-linecap:butt;stroke-linejoin:miter;stroke-miterlimit:4;stroke-dasharray:none;stroke-opacity:1"
     d="m 11.8645,46.650095 c -2.1614997,-0.697 -3.7093997,-0.161 -4.5479997,0.855 -0.9214,1.129 -1.5932,4.239 0.4797,6.255 H 15.6087 c -0.2297,-3.755 -1.2245,-6.307 -3.7442,-7.11 z"
     id="path296" />
  <path
     style="fill:#231f20;fill-opacity:1;fill-rule:nonzero;stroke:none"
     d="m 3.2962003,80.338095 c 0.0776,-0.641 1.5256,-1.942 2.2188,-3.396 0.4681,-0.98 2.5629,-2.761 2.9536,-3.77 0.3584,-0.923 0.6093,-1.319 1.7384997,-1.084 0.6667,0.136 1.8708,0.828 1.7866,1.333 -0.1772,1.177 -0.6814,1.98 -1.4215,2.751 -0.8436997,0.874 -3.3436997,3.046 -3.8384997,3.41 -1.24,0.88 -1.4427,1.595 -1.7506,1.855 -0.5718,0.5 -0.9052,0.407 -1.3066,0.104 -0.771,-0.573 -0.3803,-1.203 -0.3803,-1.203"
     id="path297" />
  <path
     style="fill:none;stroke:#231f20;stroke-width:0.565977;stroke-linecap:butt;stroke-linejoin:miter;stroke-miterlimit:4;stroke-dasharray:none;stroke-opacity:1"
     d="m 3.2962003,80.338095 c 0.0776,-0.641 1.5256,-1.942 2.2188,-3.396 0.4681,-0.98 2.5629,-2.761 2.9536,-3.77 0.3584,-0.923 0.6093,-1.319 1.7384997,-1.084 0.6667,0.136 1.8708,0.828 1.7866,1.333 -0.1772,1.177 -0.6814,1.98 -1.4215,2.751 -0.8436997,0.874 -3.3436997,3.046 -3.8384997,3.41 -1.24,0.88 -1.4427,1.595 -1.7506,1.855 -0.5718,0.5 -0.9052,0.407 -1.3066,0.104 -0.771,-0.573 -0.3803,-1.203 -0.3803,-1.203 z"
     id="path298" />
  <path
     style="fill:#231f20;fill-opacity:1;fill-rule:nonzero;stroke:none"
     d="m 9.1030003,73.385095 c -0.8959,-0.937 0.8083,-2.052 1.2092997,-2.417 0.4052,-0.364 1.4375,-1.526 2.124,-2.542 0.688,-1.01 1.9801,-1.978 3.2921,-3.901 0.688,-1.011 2,-1.557 3.4172,-0.495 1.411,1.052 1.348,2.235 0.3282,3.334 -1.0162,1.098 -2.4375,1.698 -3.5427,2.729 -1.0984,1.032 -2.1292,2.193 -2.8907,3.136 -0.8691,1.077 -1.7025,1.285 -2.1614,1.151 -1.1452997,-0.323 -1.7759997,-0.995 -1.7759997,-0.995"
     id="path299" />
  <path
     style="fill:none;stroke:#231f20;stroke-width:0.565977;stroke-linecap:butt;stroke-linejoin:miter;stroke-miterlimit:4;stroke-dasharray:none;stroke-opacity:1"
     d="m 9.1030003,73.385095 c -0.8959,-0.937 0.8083,-2.052 1.2092997,-2.417 0.4052,-0.364 1.4375,-1.526 2.124,-2.542 0.688,-1.01 1.9801,-1.978 3.2921,-3.901 0.688,-1.011 2,-1.557 3.4172,-0.495 1.411,1.052 1.348,2.235 0.3282,3.334 -1.0162,1.098 -2.4375,1.698 -3.5427,2.729 -1.0984,1.032 -2.1292,2.193 -2.8907,3.136 -0.8691,1.077 -1.7025,1.285 -2.1614,1.151 -1.1452997,-0.323 -1.7759997,-0.995 -1.7759997,-0.995 z"
     id="path300" />
  <path
     style="fill:#231f20;fill-opacity:1;fill-rule:nonzero;stroke:none"
     d="m 7.7645003,86.562095 c -1.0412,-0.865 -0.7188,-1.802 0.1718,-2.333 0.2656,-0.157 0.3282,-0.573 0.599,-0.704 0.6308,-0.307 2.2608997,0.313 2.0941997,1.803 -0.0156,0.098 0.1402,0.91 0.1563,1.525 0.0469,1.215 -0.4588,3.657 -2.7291997,5.125 -1.0735,0.688 -1.2812,-0.073 -0.9323,-0.484 1.1094,-1.308 0.9479,-1.636 1.1146,-2.084 0.5734,-1.52 -0.4744,-2.848 -0.4744,-2.848"
     id="path301" />
  <path
     style="fill:none;stroke:#231f20;stroke-width:0.332927;stroke-linecap:butt;stroke-linejoin:miter;stroke-miterlimit:4;stroke-dasharray:none;stroke-opacity:1"
     d="m 7.7645003,86.562095 c -1.0412,-0.865 -0.7188,-1.802 0.1718,-2.333 0.2656,-0.157 0.3282,-0.573 0.599,-0.704 0.6308,-0.307 2.2608997,0.313 2.0941997,1.803 -0.0156,0.098 0.1402,0.91 0.1563,1.525 0.0469,1.215 -0.4588,3.657 -2.7291997,5.125 -1.0735,0.688 -1.2812,-0.073 -0.9323,-0.484 1.1094,-1.308 0.9479,-1.636 1.1146,-2.084 0.5734,-1.52 -0.4744,-2.848 -0.4744,-2.848 z"
     id="path302" />
  <path
     style="fill:#0098c9;fill-opacity:1;fill-rule:nonzero;stroke:none"
     d="m 114.1599,108.07709 c 3.49,-0.375 4.423,-0.656 5.543,-0.885 5.667,-1.124 5.817,-2.411 5.452,-4.776 -0.52,-3.353995 -1.124,-5.134995 -7.224,-3.577995 -4.629,1.181995 -8.239,1.395995 -8.239,1.395995 -1.824,-0.395995 -5.354,0.28 -5.969,0.952 -1.041,1.131 -0.807,0.943 -1.188,2.339 -0.713,2.579 0.157,3.407 1.224,3.933 1.063,0.531 2.095,0.651 4.901,0.703 2.183,0.041 5.5,-0.084 5.5,-0.084"
     id="path303" />
  <path
     style="fill:none;stroke:#231f20;stroke-width:0.565977;stroke-linecap:butt;stroke-linejoin:miter;stroke-miterlimit:4;stroke-dasharray:none;stroke-opacity:1"
     d="m 114.1599,108.07709 c 3.49,-0.375 4.423,-0.656 5.543,-0.885 5.667,-1.124 5.817,-2.411 5.452,-4.776 -0.52,-3.353995 -1.124,-5.134995 -7.224,-3.577995 -4.629,1.181995 -8.239,1.395995 -8.239,1.395995 -1.824,-0.395995 -5.354,0.28 -5.969,0.952 -1.041,1.131 -0.807,0.943 -1.188,2.339 -0.713,2.579 0.157,3.407 1.224,3.933 1.063,0.531 2.095,0.651 4.901,0.703 2.183,0.041 5.5,-0.084 5.5,-0.084 z"
     id="path304" />
  <path
     style="fill:#ffffff;fill-opacity:1;fill-rule:nonzero;stroke:none"
     d="m 106.0509,96.896095 c 1.021,-2.022 0.943,-2.558 0.115,-3.038 -0.552,-0.328 -0.948,-0.817 -1.271,-1.03 -1.088,-0.708 -3.208,-1.459 -9.766,-2.011 -1.483,-0.12 -3.573,-0.312 -4.422,-0.459 -1.333,-0.229 -0.812,2.147 -0.281,2.24 1.683,0.312 2.813,0.662 3.407,0.855 0.406,0.135 1.155,0.271 2.661,0.989 2.281,1.094 3.48,2.083 5.485,2.771 0.927,0.317 1.421,1.145 2.495,0.989 1.077,-0.145 1.577,-1.306 1.577,-1.306"
     id="path305" />
  <path
     style="fill:none;stroke:#231f20;stroke-width:0.565977;stroke-linecap:butt;stroke-linejoin:miter;stroke-miterlimit:4;stroke-dasharray:none;stroke-opacity:1"
     d="m 106.0509,96.896095 c 1.021,-2.022 0.943,-2.558 0.115,-3.038 -0.552,-0.328 -0.948,-0.817 -1.271,-1.03 -1.088,-0.708 -3.208,-1.459 -9.766,-2.011 -1.483,-0.12 -3.573,-0.312 -4.422,-0.459 -1.333,-0.229 -0.812,2.147 -0.281,2.24 1.683,0.312 2.813,0.662 3.407,0.855 0.406,0.135 1.155,0.271 2.661,0.989 2.281,1.094 3.48,2.083 5.485,2.771 0.927,0.317 1.421,1.145 2.495,0.989 1.077,-0.145 1.577,-1.306 1.577,-1.306 z"
     id="path306" />
  <path
     style="fill:#ffffff;fill-opacity:1;fill-rule:nonzero;stroke:none"
     d="m 98.9989,99.238095 c -0.183,-0.156 0.323,-1.186 -0.125,-1.452 -0.452,-0.266 -1.01,0.291 -2.995,0.11 h -0.02 c -1.437,-0.178 -2.767,0.244 -3.485,1.276 -1.198,1.696995 -0.291,4.389995 2.021,6.008995 2.312,1.631 5.151,1.563 6.344,-0.135 1.151,-1.62 0.364,-4.166 -1.74,-5.807995"
     id="path307" />
  <path
     style="fill:none;stroke:#231f20;stroke-width:0.565977;stroke-linecap:butt;stroke-linejoin:miter;stroke-miterlimit:4;stroke-dasharray:none;stroke-opacity:1"
     d="m 98.9989,99.238095 c -0.183,-0.156 0.323,-1.186 -0.125,-1.452 -0.452,-0.266 -1.01,0.291 -2.995,0.11 h -0.02 c -1.437,-0.178 -2.767,0.244 -3.485,1.276 -1.198,1.696995 -0.291,4.389995 2.021,6.008995 2.312,1.631 5.151,1.563 6.344,-0.135 1.151,-1.62 0.364,-4.166 -1.74,-5.807995 z"
     id="path308" />
  <path
     style="fill:#ffffff;fill-opacity:1;fill-rule:nonzero;stroke:#231f20;stroke-width:0.565977;stroke-linecap:round;stroke-linejoin:round;stroke-miterlimit:4;stroke-dasharray:none;stroke-opacity:1"
     d="m 103.6459,97.577095 c 0.452,1.344 2.593,1.579 2.88,1.756 4.265,2.644995 4.634,2.723995 8.014,4.510995 4.886,2.582 8.626,3.598 10.964,1.197 1.579,-1.636 1.787,-3.26 1.251,-4.464 -0.609,-1.327995 -3.105,-3.295995 -5.829,-2.338995 l -1.671,-0.364 c -1.095,-0.39 -1.641,-0.578 -2.163,-0.817 -0.916,-0.412 -1.916,-0.792 -3.749,-1.495 -3.24,-1.245 -7.073,-1.505 -7.073,-1.505 -0.296,-0.104 -0.572,-0.073 -0.823,0.02"
     id="path309" />
  <path
     style="fill:#0098c9;fill-opacity:1;fill-rule:nonzero;stroke:none"
     d="m 126.4879,100.01009 c -0.817,-1.208995 -3.604,-2.744995 -6.129,-1.337995 l -2.24,7.483995 c 3.656,0.86 6.385,0.64 7.885,-1.542 1.287,-1.87 1.219,-3.51 0.484,-4.604"
     id="path310" />
  <path
     style="fill:none;stroke:#231f20;stroke-width:0.565977;stroke-linecap:butt;stroke-linejoin:miter;stroke-miterlimit:4;stroke-dasharray:none;stroke-opacity:1"
     d="m 126.4879,100.01009 c -0.817,-1.208995 -3.604,-2.744995 -6.129,-1.337995 l -2.24,7.483995 c 3.656,0.86 6.385,0.64 7.885,-1.542 1.287,-1.87 1.219,-3.51 0.484,-4.604 z"
     id="path311" />
  <path
     style="fill:#231f20;fill-opacity:1;fill-rule:nonzero;stroke:none"
     d="m 102.2389,84.801095 c 0.484,0.423 0.744,2.349 1.557,3.74 0.547,0.937 0.844,3.667 1.463,4.557 0.557,0.823 0.74,1.251 -0.083,2.052 -0.489,0.479 -1.74,1.079 -2.109,0.73 -0.875,-0.812 -1.255,-1.678 -1.475,-2.724 -0.249,-1.188 -0.64,-4.479 -0.666,-5.088 -0.031,-1.527 -0.5,-2.09 -0.547,-2.496 -0.093,-0.755 0.172,-0.974 0.652,-1.135 0.905,-0.317 1.208,0.364 1.208,0.364"
     id="path312" />
  <path
     style="fill:none;stroke:#231f20;stroke-width:0.565977;stroke-linecap:butt;stroke-linejoin:miter;stroke-miterlimit:4;stroke-dasharray:none;stroke-opacity:1"
     d="m 102.2389,84.801095 c 0.484,0.423 0.744,2.349 1.557,3.74 0.547,0.937 0.844,3.667 1.463,4.557 0.557,0.823 0.74,1.251 -0.083,2.052 -0.489,0.479 -1.74,1.079 -2.109,0.73 -0.875,-0.812 -1.255,-1.678 -1.475,-2.724 -0.249,-1.188 -0.64,-4.479 -0.666,-5.088 -0.031,-1.527 -0.5,-2.09 -0.547,-2.496 -0.093,-0.755 0.172,-0.974 0.652,-1.135 0.905,-0.317 1.208,0.364 1.208,0.364 z"
     id="path313" />
  <path
     style="fill:#231f20;fill-opacity:1;fill-rule:nonzero;stroke:none"
     d="m 104.7229,93.510095 c 1.276,-0.214 1.245,1.823 1.317,2.354 0.074,0.541 0.459,2.052 0.907,3.188 0.448,1.139995 0.527,2.748995 1.38,4.915995 0.448,1.136 0.161,2.526 -1.52,3.104 -1.657,0.573 -2.6,-0.146 -2.939,-1.604 -0.337,-1.458 -0.03,-2.963 -0.265,-4.463 -0.233,-1.490995 -0.615,-2.988995 -0.963,-4.151995 -0.401,-1.323 -0.109,-2.129 0.26,-2.437 0.916,-0.766 1.823,-0.906 1.823,-0.906"
     id="path314" />
  <path
     style="fill:none;stroke:#231f20;stroke-width:0.565977;stroke-linecap:butt;stroke-linejoin:miter;stroke-miterlimit:4;stroke-dasharray:none;stroke-opacity:1"
     d="m 104.7229,93.510095 c 1.276,-0.214 1.245,1.823 1.317,2.354 0.074,0.541 0.459,2.052 0.907,3.188 0.448,1.139995 0.527,2.748995 1.38,4.915995 0.448,1.136 0.161,2.526 -1.52,3.104 -1.657,0.573 -2.6,-0.146 -2.939,-1.604 -0.337,-1.458 -0.03,-2.963 -0.265,-4.463 -0.233,-1.490995 -0.615,-2.988995 -0.963,-4.151995 -0.401,-1.323 -0.109,-2.129 0.26,-2.437 0.916,-0.766 1.823,-0.906 1.823,-0.906 z"
     id="path315" />
  <path
     style="fill:#231f20;fill-opacity:1;fill-rule:nonzero;stroke:none"
     d="m 88.9469,89.213095 c 1.131,-0.745 1.937,-0.167 2.188,0.833 0.077,0.303 0.453,0.479 0.505,0.782 0.11,0.686 -0.953,2.077 -2.328,1.484 -0.095,-0.042 -0.917,-0.126 -1.51,-0.287 -1.173,-0.307 -3.371,-1.495 -4.12,-4.088 -0.355,-1.224 0.437,-1.203 0.729,-0.756 0.932,1.439 1.296,1.381 1.677,1.672 1.286,0.985 2.859,0.36 2.859,0.36"
     id="path316" />
  <path
     style="fill:none;stroke:#231f20;stroke-width:0.332927;stroke-linecap:butt;stroke-linejoin:miter;stroke-miterlimit:4;stroke-dasharray:none;stroke-opacity:1"
     d="m 88.9469,89.213095 c 1.131,-0.745 1.937,-0.167 2.188,0.833 0.077,0.303 0.453,0.479 0.505,0.782 0.11,0.686 -0.953,2.077 -2.328,1.484 -0.095,-0.042 -0.917,-0.126 -1.51,-0.287 -1.173,-0.307 -3.371,-1.495 -4.12,-4.088 -0.355,-1.224 0.437,-1.203 0.729,-0.756 0.932,1.439 1.296,1.381 1.677,1.672 1.286,0.985 2.859,0.36 2.859,0.36 z"
     id="path317" />
  <path
     style="fill:#0098c9;fill-opacity:1;fill-rule:nonzero;stroke:none"
     d="m 61.2018,75.984095 c -1.3588,-3.24 -1.9,-4.052 -2.4375,-5.058 -2.7136,-5.104 -3.9838,-4.88 -6.1453,-3.849 -3.0625,1.459 -4.5984,2.552 -1.3494,7.948 2.4587,4.095 3.7041,7.485 3.7041,7.485 0.1401,1.864 1.8068,5.052 2.624,5.448 1.3812,0.671 1.1358,0.504 2.5838,0.468 2.6724,-0.062 3.2187,-1.13 3.4162,-2.301 0.1984,-1.172 0.0161,-2.193 -0.7386,-4.901 -0.5838,-2.099 -1.6573,-5.24 -1.6573,-5.24"
     id="path318" />
  <path
     style="fill:none;stroke:#231f20;stroke-width:0.565977;stroke-linecap:butt;stroke-linejoin:miter;stroke-miterlimit:4;stroke-dasharray:none;stroke-opacity:1"
     d="m 61.2018,75.984095 c -1.3588,-3.24 -1.9,-4.052 -2.4375,-5.058 -2.7136,-5.104 -3.9838,-4.88 -6.1453,-3.849 -3.0625,1.459 -4.5984,2.552 -1.3494,7.948 2.4587,4.095 3.7041,7.485 3.7041,7.485 0.1401,1.864 1.8068,5.052 2.624,5.448 1.3812,0.671 1.1358,0.504 2.5838,0.468 2.6724,-0.062 3.2187,-1.13 3.4162,-2.301 0.1984,-1.172 0.0161,-2.193 -0.7386,-4.901 -0.5838,-2.099 -1.6573,-5.24 -1.6573,-5.24 z"
     id="path319" />
  <path
     style="fill:#ffffff;fill-opacity:1;fill-rule:nonzero;stroke:none"
     d="m 52.8163,86.958095 c -2.2238,-0.39 -2.7134,-0.166 -2.9374,0.766 -0.1557,0.625 -0.5093,1.14 -0.6197,1.514 -0.3694,1.246 -0.4787,3.491 0.876,9.934 0.312,1.452995 0.7292,3.509995 0.8333,4.363995 0.1667,1.344 2.2865,0.161 2.2292,-0.375 -0.188,-1.699 -0.1828,-2.885 -0.1667,-3.510995 0.0145,-0.426 -0.0735,-1.182 0.1864,-2.828 0.3912,-2.5 0.9948,-3.937 1.0735,-6.052 0.0417,-0.978 0.6921,-1.693 0.2349,-2.672 -0.448,-0.989 -1.7095,-1.14 -1.7095,-1.14"
     id="path320" />
  <path
     style="fill:none;stroke:#231f20;stroke-width:0.565977;stroke-linecap:butt;stroke-linejoin:miter;stroke-miterlimit:4;stroke-dasharray:none;stroke-opacity:1"
     d="m 52.8163,86.958095 c -2.2238,-0.39 -2.7134,-0.166 -2.9374,0.766 -0.1557,0.625 -0.5093,1.14 -0.6197,1.514 -0.3694,1.246 -0.4787,3.491 0.876,9.934 0.312,1.452995 0.7292,3.509995 0.8333,4.363995 0.1667,1.344 2.2865,0.161 2.2292,-0.375 -0.188,-1.699 -0.1828,-2.885 -0.1667,-3.510995 0.0145,-0.426 -0.0735,-1.182 0.1864,-2.828 0.3912,-2.5 0.9948,-3.937 1.0735,-6.052 0.0417,-0.978 0.6921,-1.693 0.2349,-2.672 -0.448,-0.989 -1.7095,-1.14 -1.7095,-1.14 z"
     id="path321" />
  <path
     style="fill:#ffffff;fill-opacity:1;fill-rule:nonzero;stroke:none"
     d="m 56.7283,93.025095 c -0.088,0.224 -1.2348,0.109 -1.3229,0.625 -0.0891,0.516 0.6308,0.844 1.1511,2.766 l 0.0052,0.021 c 0.3333,1.416 1.1933,2.505 2.412,2.823 2.0093,0.526 4.2136,-1.26 4.9265,-3.995 0.7188,-2.735 -0.3333,-5.375 -2.3385,-5.896 -1.9214,-0.511 -4.0307,1.115 -4.8334,3.656"
     id="path322" />
  <path
     style="fill:none;stroke:#231f20;stroke-width:0.565977;stroke-linecap:butt;stroke-linejoin:miter;stroke-miterlimit:4;stroke-dasharray:none;stroke-opacity:1"
     d="m 56.7283,93.025095 c -0.088,0.224 -1.2348,0.109 -1.3229,0.625 -0.0891,0.516 0.6308,0.844 1.1511,2.766 l 0.0052,0.021 c 0.3333,1.416 1.1933,2.505 2.412,2.823 2.0093,0.526 4.2136,-1.26 4.9265,-3.995 0.7188,-2.735 -0.3333,-5.375 -2.3385,-5.896 -1.9214,-0.511 -4.0307,1.115 -4.8334,3.656 z"
     id="path323" />
  <path
     style="fill:#ffffff;fill-opacity:1;fill-rule:nonzero;stroke:#231f20;stroke-width:0.565977;stroke-linecap:round;stroke-linejoin:round;stroke-miterlimit:4;stroke-dasharray:none;stroke-opacity:1"
     d="m 54.1659,89.072095 c 1.1558,-0.828 0.7651,-2.943 0.8547,-3.266 1.3063,-4.844 1.2755,-5.224 2.0156,-8.973 1.0667,-5.423 0.9683,-9.297 -2.0052,-10.844 -2.0161,-1.041 -3.636,-0.771 -4.6308,0.083 -1.0984,0.964 -2.265,3.922 -0.5676,6.256 l 0.1302,1.708 c -0.0574,1.161 -0.0839,1.734 -0.1558,2.308 -0.1358,0.989 -0.2145,2.061 -0.3598,4.014 -0.2599,3.464 0.5932,7.21 0.5932,7.21 -0.0146,0.312 0.089,0.566 0.2557,0.785"
     id="path324" />
  <path
     style="fill:#0098c9;fill-opacity:1;fill-rule:nonzero;stroke:none"
     d="m 54.4789,65.634095 c -2.1625,-0.697 -3.7145,-0.161 -4.5479,0.86 -0.9213,1.126 -1.5932,4.24 0.4802,6.255 l 7.8119,-0.005 c -0.2296,-3.755 -1.2238,-6.302 -3.7442,-7.11"
     id="path325" />
  <path
     style="fill:none;stroke:#231f20;stroke-width:0.565977;stroke-linecap:butt;stroke-linejoin:miter;stroke-miterlimit:4;stroke-dasharray:none;stroke-opacity:1"
     d="m 54.4789,65.634095 c -2.1625,-0.697 -3.7145,-0.161 -4.5479,0.86 -0.9213,1.126 -1.5932,4.24 0.4802,6.255 l 7.8119,-0.005 c -0.2296,-3.755 -1.2238,-6.302 -3.7442,-7.11 z"
     id="path326" />
  <path
     style="fill:#231f20;fill-opacity:1;fill-rule:nonzero;stroke:none"
     d="m 40.5404,82.041095 c 0.5682,-0.307 2.4641,0.12 4.0521,-0.156 1.0677,-0.188 3.7344,0.489 4.7812,0.224 0.9641,-0.245 1.4281,-0.265 1.8959,0.792 0.276,0.619 0.4016,2.004 -0.0522,2.233 -1.0677,0.532 -2.0104,0.59 -3.0718,0.428 -1.1984,-0.182 -4.4172,-0.964 -5,-1.157 -1.4386,-0.5 -2.1307,-0.255 -2.5266,-0.353 -0.7401,-0.178 -0.8546,-0.5 -0.8437,-1.006 0.0265,-0.964 0.7651,-1.005 0.7651,-1.005"
     id="path327" />
  <path
     style="fill:none;stroke:#231f20;stroke-width:0.565977;stroke-linecap:butt;stroke-linejoin:miter;stroke-miterlimit:4;stroke-dasharray:none;stroke-opacity:1"
     d="m 40.5404,82.041095 c 0.5682,-0.307 2.4641,0.12 4.0521,-0.156 1.0677,-0.188 3.7344,0.489 4.7812,0.224 0.9641,-0.245 1.4281,-0.265 1.8959,0.792 0.276,0.619 0.4016,2.004 -0.0522,2.233 -1.0677,0.532 -2.0104,0.59 -3.0718,0.428 -1.1984,-0.182 -4.4172,-0.964 -5,-1.157 -1.4386,-0.5 -2.1307,-0.255 -2.5266,-0.353 -0.7401,-0.178 -0.8546,-0.5 -0.8437,-1.006 0.0265,-0.964 0.7651,-1.005 0.7651,-1.005 z"
     id="path328" />
  <path
     style="fill:#231f20;fill-opacity:1;fill-rule:nonzero;stroke:none"
     d="m 49.5721,82.749095 c 0.2443,-1.271 2.1401,-0.525 2.6667,-0.411 0.5307,0.12 2.0775,0.287 3.3015,0.26 1.224,-0.021 2.7615,0.47 5.0891,0.427 1.2245,-0.025 2.4271,0.729 2.3803,2.505 -0.0412,1.756 -1.0412,2.386 -2.5308,2.194 -1.4796,-0.194 -2.7864,-1.006 -4.2719,-1.308 -1.4787,-0.302 -3.0197,-0.468 -4.2281,-0.547 -1.3864,-0.083 -2.0369,-0.645 -2.188,-1.093 -0.4068,-1.126 -0.2188,-2.027 -0.2188,-2.027"
     id="path329" />
  <path
     style="fill:none;stroke:#231f20;stroke-width:0.565977;stroke-linecap:butt;stroke-linejoin:miter;stroke-miterlimit:4;stroke-dasharray:none;stroke-opacity:1"
     d="m 49.5721,82.749095 c 0.2443,-1.271 2.1401,-0.525 2.6667,-0.411 0.5307,0.12 2.0775,0.287 3.3015,0.26 1.224,-0.021 2.7615,0.47 5.0891,0.427 1.2245,-0.025 2.4271,0.729 2.3803,2.505 -0.0412,1.756 -1.0412,2.386 -2.5308,2.194 -1.4796,-0.194 -2.7864,-1.006 -4.2719,-1.308 -1.4787,-0.302 -3.0197,-0.468 -4.2281,-0.547 -1.3864,-0.083 -2.0369,-0.645 -2.188,-1.093 -0.4068,-1.126 -0.2188,-2.027 -0.2188,-2.027 z"
     id="path330" />
  <path
     style="fill:#231f20;fill-opacity:1;fill-rule:nonzero;stroke:none"
     d="m 50.3737,105.55209 c -1.0359,-0.866 -0.7135,-1.803 0.1719,-2.334 0.2708,-0.161 0.3333,-0.578 0.6,-0.708 0.6349,-0.308 2.2655,0.312 2.0931,1.802 -0.0104,0.104 0.1454,0.912 0.1615,1.526 0.0469,1.214 -0.464,3.662 -2.729,5.124 -1.0735,0.688 -1.2814,-0.072 -0.9376,-0.478 1.1094,-1.312 0.9537,-1.64 1.1204,-2.088 0.5718,-1.522 -0.4803,-2.844 -0.4803,-2.844"
     id="path331" />
  <path
     style="fill:none;stroke:#231f20;stroke-width:0.332927;stroke-linecap:butt;stroke-linejoin:miter;stroke-miterlimit:4;stroke-dasharray:none;stroke-opacity:1"
     d="m 50.3737,105.55209 c -1.0359,-0.866 -0.7135,-1.803 0.1719,-2.334 0.2708,-0.161 0.3333,-0.578 0.6,-0.708 0.6349,-0.308 2.2655,0.312 2.0931,1.802 -0.0104,0.104 0.1454,0.912 0.1615,1.526 0.0469,1.214 -0.464,3.662 -2.729,5.124 -1.0735,0.688 -1.2814,-0.072 -0.9376,-0.478 1.1094,-1.312 0.9537,-1.64 1.1204,-2.088 0.5718,-1.522 -0.4803,-2.844 -0.4803,-2.844 z"
     id="path332" />
  <path
     style="fill:#0098c9;fill-opacity:1;fill-rule:nonzero;stroke:none"
     d="m 148.4829,100.09309 c 2.871,2.021 3.761,2.421 4.751,2.989 5.01,2.886 5.968,2.016 7.254,0 1.819,-2.864 2.538,-4.608995 -3.082,-7.452995 -4.256,-2.161 -7.115,-4.375 -7.115,-4.375 -1.109,-1.505 -4.213,-3.317 -5.12,-3.224 -1.525,0.167 -1.229,0.183 -2.437,0.98 -2.23,1.474 -2.12,2.667 -1.667,3.766 0.453,1.098 1.151,1.869 3.229,3.754 1.61,1.47 4.187,3.562995 4.187,3.562995"
     id="path333" />
  <path
     style="fill:none;stroke:#231f20;stroke-width:0.565977;stroke-linecap:butt;stroke-linejoin:miter;stroke-miterlimit:4;stroke-dasharray:none;stroke-opacity:1"
     d="m 148.4829,100.09309 c 2.871,2.021 3.761,2.421 4.751,2.989 5.01,2.886 5.968,2.016 7.254,0 1.819,-2.864 2.538,-4.608995 -3.082,-7.452995 -4.256,-2.161 -7.115,-4.375 -7.115,-4.375 -1.109,-1.505 -4.213,-3.317 -5.12,-3.224 -1.525,0.167 -1.229,0.183 -2.437,0.98 -2.23,1.474 -2.12,2.667 -1.667,3.766 0.453,1.098 1.151,1.869 3.229,3.754 1.61,1.47 4.187,3.562995 4.187,3.562995 z"
     id="path334" />
  <path
     style="fill:#ffffff;fill-opacity:1;fill-rule:nonzero;stroke:none"
     d="m 149.7549,86.344095 c 2.093,-0.855 2.391,-1.308 2.083,-2.215 -0.192,-0.609 -0.172,-1.233 -0.276,-1.609 -0.35,-1.25 -1.448,-3.214 -6.022,-7.948 -1.036,-1.067 -2.478,-2.588 -3.02,-3.26 -0.86,-1.052 -2.026,1.078 -1.693,1.505 1.063,1.339 1.688,2.344 2.005,2.88 0.214,0.375 0.688,0.964 1.344,2.5 1,2.323 1.25,3.86 2.303,5.699 0.489,0.848 0.317,1.801 1.224,2.39 0.905,0.599 2.052,0.058 2.052,0.058"
     id="path335" />
  <path
     style="fill:none;stroke:#231f20;stroke-width:0.565977;stroke-linecap:butt;stroke-linejoin:miter;stroke-miterlimit:4;stroke-dasharray:none;stroke-opacity:1"
     d="m 149.7549,86.344095 c 2.093,-0.855 2.391,-1.308 2.083,-2.215 -0.192,-0.609 -0.172,-1.233 -0.276,-1.609 -0.35,-1.25 -1.448,-3.214 -6.022,-7.948 -1.036,-1.067 -2.478,-2.588 -3.02,-3.26 -0.86,-1.052 -2.026,1.078 -1.693,1.505 1.063,1.339 1.688,2.344 2.005,2.88 0.214,0.375 0.688,0.964 1.344,2.5 1,2.323 1.25,3.86 2.303,5.699 0.489,0.848 0.317,1.801 1.224,2.39 0.905,0.599 2.052,0.058 2.052,0.058 z"
     id="path336" />
  <path
     style="fill:#ffffff;fill-opacity:1;fill-rule:nonzero;stroke:none"
     d="m 138.4579,83.958095 c -0.194,-0.157 0.265,-1.209 -0.199,-1.453 -0.463,-0.24 -0.995,0.343 -2.984,0.255 h -0.02 c -1.448,-0.11 -2.751,0.374 -3.423,1.442 -1.109,1.751 -0.077,4.396 2.308,5.907 2.386,1.516 5.219,1.317 6.328,-0.437 1.072,-1.678 0.167,-4.178 -2.01,-5.714"
     id="path337" />
  <path
     style="fill:none;stroke:#231f20;stroke-width:0.565977;stroke-linecap:butt;stroke-linejoin:miter;stroke-miterlimit:4;stroke-dasharray:none;stroke-opacity:1"
     d="m 138.4579,83.958095 c -0.194,-0.157 0.265,-1.209 -0.199,-1.453 -0.463,-0.24 -0.995,0.343 -2.984,0.255 h -0.02 c -1.448,-0.11 -2.751,0.374 -3.423,1.442 -1.109,1.751 -0.077,4.396 2.308,5.907 2.386,1.516 5.219,1.317 6.328,-0.437 1.072,-1.678 0.167,-4.178 -2.01,-5.714 z"
     id="path338" />
  <path
     style="fill:#ffffff;fill-opacity:1;fill-rule:nonzero;stroke:#231f20;stroke-width:0.565977;stroke-linecap:round;stroke-linejoin:round;stroke-miterlimit:4;stroke-dasharray:none;stroke-opacity:1"
     d="m 147.4939,85.265095 c -0.547,1.317 0.912,2.896 1.01,3.224 1.464,4.797 1.694,5.099 3.058,8.672 1.973,5.160995 4.114,8.390995 7.458,8.124995 2.266,-0.193 3.49,-1.281 3.88,-2.537 0.416,-1.4 -0.161,-4.519995 -2.844,-5.592995 l -1.016,-1.38 c -0.566,-1.016 -0.853,-1.516 -1.093,-2.042 -0.416,-0.906 -0.916,-1.854 -1.828,-3.594 -1.62,-3.072 -4.333,-5.791 -4.333,-5.791 -0.156,-0.272 -0.38,-0.433 -0.636,-0.527"
     id="path339" />
  <path
     style="fill:#0098c9;fill-opacity:1;fill-rule:nonzero;stroke:none"
     d="m 159.3429,97.104095 -6.62,4.149995 c 2.193,3.058 4.391,4.694 6.953,4.038 2.198,-0.558 3.23,-1.839 3.402,-3.142 0.177,-1.453 -0.907,-4.441995 -3.735,-5.045995"
     id="path340" />
  <path
     style="fill:none;stroke:#231f20;stroke-width:0.565977;stroke-linecap:butt;stroke-linejoin:miter;stroke-miterlimit:4;stroke-dasharray:none;stroke-opacity:1"
     d="m 159.3429,97.104095 -6.62,4.149995 c 2.193,3.058 4.391,4.694 6.953,4.038 2.198,-0.558 3.23,-1.839 3.402,-3.142 0.177,-1.453 -0.907,-4.441995 -3.735,-5.045995 z"
     id="path341" />
  <path
     style="fill:#231f20;fill-opacity:1;fill-rule:nonzero;stroke:none"
     d="m 162.7699,83.989095 c -0.312,0.557 -2.151,1.203 -3.348,2.281 -0.808,0.724 -3.423,1.568 -4.172,2.35 -0.688,0.718 -1.068,0.984 -2.027,0.338 -0.563,-0.381 -1.407,-1.485 -1.135,-1.922 0.615,-1.016 1.386,-1.568 2.37,-1.99 1.114,-0.484 4.249,-1.532 4.849,-1.682 1.484,-0.339 1.943,-0.916 2.328,-1.042 0.724,-0.24 0.995,-0.026 1.249,0.407 0.49,0.828 -0.114,1.26 -0.114,1.26"
     id="path342" />
  <path
     style="fill:none;stroke:#231f20;stroke-width:0.565977;stroke-linecap:butt;stroke-linejoin:miter;stroke-miterlimit:4;stroke-dasharray:none;stroke-opacity:1"
     d="m 162.7699,83.989095 c -0.312,0.557 -2.151,1.203 -3.348,2.281 -0.808,0.724 -3.423,1.568 -4.172,2.35 -0.688,0.718 -1.068,0.984 -2.027,0.338 -0.563,-0.381 -1.407,-1.485 -1.135,-1.922 0.615,-1.016 1.386,-1.568 2.37,-1.99 1.114,-0.484 4.249,-1.532 4.849,-1.682 1.484,-0.339 1.943,-0.916 2.328,-1.042 0.724,-0.24 0.995,-0.026 1.249,0.407 0.49,0.828 -0.114,1.26 -0.114,1.26 z"
     id="path343" />
  <path
     style="fill:#231f20;fill-opacity:1;fill-rule:nonzero;stroke:none"
     d="m 154.7389,88.181095 c 0.473,1.209 -1.532,1.584 -2.036,1.767 -0.516,0.181 -1.917,0.864 -2.939,1.53 -1.025,0.672 -2.588,1.074 -4.536,2.344 -1.021,0.667 -2.448,0.672 -3.349,-0.854 -0.896,-1.51 -0.385,-2.583 0.98,-3.203 1.359,-0.625 2.896,-0.636 4.312,-1.167 1.417,-0.526 2.808,-1.202 3.875,-1.781 1.218,-0.661 2.062,-0.536 2.437,-0.235 0.939,0.74 1.256,1.599 1.256,1.599"
     id="path344" />
  <path
     style="fill:none;stroke:#231f20;stroke-width:0.565977;stroke-linecap:butt;stroke-linejoin:miter;stroke-miterlimit:4;stroke-dasharray:none;stroke-opacity:1"
     d="m 154.7389,88.181095 c 0.473,1.209 -1.532,1.584 -2.036,1.767 -0.516,0.181 -1.917,0.864 -2.939,1.53 -1.025,0.672 -2.588,1.074 -4.536,2.344 -1.021,0.667 -2.448,0.672 -3.349,-0.854 -0.896,-1.51 -0.385,-2.583 0.98,-3.203 1.359,-0.625 2.896,-0.636 4.312,-1.167 1.417,-0.526 2.808,-1.202 3.875,-1.781 1.218,-0.661 2.062,-0.536 2.437,-0.235 0.939,0.74 1.256,1.599 1.256,1.599 z"
     id="path345" />
  <path
     style="fill:#231f20;fill-opacity:1;fill-rule:nonzero;stroke:none"
     d="m 141.9469,69.292095 c 1.344,0.181 1.568,1.145 1.093,2.066 -0.14,0.282 0.027,0.667 -0.129,0.918 -0.376,0.598 -2.084,0.937 -2.735,-0.412 -0.041,-0.099 -0.598,-0.698 -0.942,-1.214 -0.683,-1 -1.552,-3.344 -0.412,-5.786 0.548,-1.156 1.13,-0.62 1.052,-0.088 -0.244,1.697 0.062,1.89 0.162,2.358 0.318,1.59 1.911,2.158 1.911,2.158"
     id="path346" />
  <path
     style="fill:none;stroke:#231f20;stroke-width:0.332927;stroke-linecap:butt;stroke-linejoin:miter;stroke-miterlimit:4;stroke-dasharray:none;stroke-opacity:1"
     d="m 141.9469,69.292095 c 1.344,0.181 1.568,1.145 1.093,2.066 -0.14,0.282 0.027,0.667 -0.129,0.918 -0.376,0.598 -2.084,0.937 -2.735,-0.412 -0.041,-0.099 -0.598,-0.698 -0.942,-1.214 -0.683,-1 -1.552,-3.344 -0.412,-5.786 0.548,-1.156 1.13,-0.62 1.052,-0.088 -0.244,1.697 0.062,1.89 0.162,2.358 0.318,1.59 1.911,2.158 1.911,2.158 z"
     id="path347" />
  <path
     style="fill:none;stroke:#231f20;stroke-width:0.399514;stroke-linecap:butt;stroke-linejoin:miter;stroke-miterlimit:4;stroke-dasharray:none;stroke-opacity:1"
     d="m 34.8019,45.953095 c 25.552,-6.985 43.681,22.181 45.129,29.296"
     id="path348" />
  <path
     style="fill:#231f20;fill-opacity:1;fill-rule:nonzero;stroke:none"
     d="m 80.1709,76.432095 c -0.317,-0.516 -0.807,-1.136 -1.271,-1.484 l 1,0.145 0.864,-0.525 c -0.285,0.504 -0.5,1.265 -0.593,1.864"
     id="path349" />
  <path
     style="fill:#231f20;fill-opacity:1;fill-rule:nonzero;stroke:#231f20;stroke-width:0.565977;stroke-linecap:butt;stroke-linejoin:miter;stroke-miterlimit:4;stroke-dasharray:none;stroke-opacity:1"
     d="m 184.4209,89.270095 c 0.427,0.407 0.834,0.886 1.198,1.438 1.469,2.193 1.688,4.62 0.494,5.417 -1.192,0.796 -3.349,-0.339 -4.817,-2.532 -0.765,-1.161 -1.193,-2.38 -1.251,-3.391"
     id="path350" />
  <path
     style="fill:#231f20;fill-opacity:1;fill-rule:nonzero;stroke:none"
     d="m 187.3479,100.60909 c -0.651,-0.136 -0.995,-1.906995 -2.552,-3.108995 -0.317,-0.251 -0.459,-0.599 -0.651,-0.918 -0.781,-1.29 -0.772,-2.89 2.75,-1.39 0.484,0.204 1.901,1.756 2.645,2.005 1.772,0.595 3.125,3.624995 2.715,3.936995 -0.886,0.688 -4.907,-0.525 -4.907,-0.525"
     id="path351" />
  <path
     style="fill:none;stroke:#231f20;stroke-width:0.644548;stroke-linecap:round;stroke-linejoin:round;stroke-miterlimit:4;stroke-dasharray:none;stroke-opacity:1"
     d="m 187.3479,100.60909 c -0.651,-0.136 -0.995,-1.906995 -2.552,-3.108995 -0.317,-0.251 -0.459,-0.599 -0.651,-0.918 -0.781,-1.29 -0.772,-2.89 2.75,-1.39 0.484,0.204 1.901,1.756 2.645,2.005 1.772,0.595 3.125,3.624995 2.715,3.936995 -0.886,0.688 -4.907,-0.525 -4.907,-0.525 z"
     id="path352" />
  <path
     style="fill:#0098c9;fill-opacity:1;fill-rule:nonzero;stroke:none"
     d="m 251.1709,54.682095 c -3.047,-1.745 -3.97,-2.057 -5.011,-2.532 -5.26,-2.401 -6.129,-1.453 -7.224,0.683 -1.536,3.02 -2.093,4.823 3.771,7.129 4.442,1.751 7.494,3.688 7.494,3.688 1.246,1.396 4.506,2.907 5.402,2.724 1.5,-0.306 1.204,-0.292 2.328,-1.197 2.089,-1.677 1.87,-2.86 1.313,-3.912 -0.557,-1.047 -1.319,-1.751 -3.568,-3.437 -1.745,-1.308 -4.505,-3.146 -4.505,-3.146"
     id="path353" />
  <path
     style="fill:none;stroke:#231f20;stroke-width:0.565977;stroke-linecap:butt;stroke-linejoin:miter;stroke-miterlimit:4;stroke-dasharray:none;stroke-opacity:1"
     d="m 251.1709,54.682095 c -3.047,-1.745 -3.97,-2.057 -5.011,-2.532 -5.26,-2.401 -6.129,-1.453 -7.224,0.683 -1.536,3.02 -2.093,4.823 3.771,7.129 4.442,1.751 7.494,3.688 7.494,3.688 1.246,1.396 4.506,2.907 5.402,2.724 1.5,-0.306 1.204,-0.292 2.328,-1.197 2.089,-1.677 1.87,-2.86 1.313,-3.912 -0.557,-1.047 -1.319,-1.751 -3.568,-3.437 -1.745,-1.308 -4.505,-3.146 -4.505,-3.146 z"
     id="path354" />
  <path
     style="fill:#ffffff;fill-opacity:1;fill-rule:nonzero;stroke:none"
     d="m 258.1489,71.932095 c 0.1,0.224 -0.776,0.969 -0.468,1.385 0.312,0.427 1.047,0.141 2.787,1.093 l 0.02,0.011 c 1.251,0.74 2.636,0.88 3.704,0.224 1.776,-1.077 2.02,-3.907 0.547,-6.323 -1.47,-2.412 -4.099,-3.484 -5.871,-2.406 -1.697,1.032 -1.995,3.677 -0.719,6.016"
     id="path355" />
  <path
     style="fill:none;stroke:#231f20;stroke-width:0.565977;stroke-linecap:butt;stroke-linejoin:miter;stroke-miterlimit:4;stroke-dasharray:none;stroke-opacity:1"
     d="m 258.1489,71.932095 c 0.1,0.224 -0.776,0.969 -0.468,1.385 0.312,0.427 1.047,0.141 2.787,1.093 l 0.02,0.011 c 1.251,0.74 2.636,0.88 3.704,0.224 1.776,-1.077 2.02,-3.907 0.547,-6.323 -1.47,-2.412 -4.099,-3.484 -5.871,-2.406 -1.697,1.032 -1.995,3.677 -0.719,6.016 z"
     id="path356" />
  <path
     style="fill:#231f20;fill-opacity:1;fill-rule:nonzero;stroke:none"
     d="m 249.5199,81.016095 c -0.213,-0.615 0.52,-2.418 0.5,-4.027 -0.011,-1.088 1.088,-3.604 1,-4.683 -0.084,-0.989 -0.032,-1.453 1.083,-1.744 0.661,-0.166 2.046,-0.068 2.198,0.416 0.348,1.142 0.255,2.079 -0.073,3.094 -0.375,1.157 -1.667,4.209 -1.953,4.75 -0.73,1.339 -0.594,2.063 -0.755,2.438 -0.297,0.698 -0.641,0.76 -1.136,0.666 -0.943,-0.177 -0.864,-0.91 -0.864,-0.91"
     id="path357" />
  <path
     style="fill:none;stroke:#231f20;stroke-width:0.565977;stroke-linecap:butt;stroke-linejoin:miter;stroke-miterlimit:4;stroke-dasharray:none;stroke-opacity:1"
     d="m 249.5199,81.016095 c -0.213,-0.615 0.52,-2.418 0.5,-4.027 -0.011,-1.088 1.088,-3.604 1,-4.683 -0.084,-0.989 -0.032,-1.453 1.083,-1.744 0.661,-0.166 2.046,-0.068 2.198,0.416 0.348,1.142 0.255,2.079 -0.073,3.094 -0.375,1.157 -1.667,4.209 -1.953,4.75 -0.73,1.339 -0.594,2.063 -0.755,2.438 -0.297,0.698 -0.641,0.76 -1.136,0.666 -0.943,-0.177 -0.864,-0.91 -0.864,-0.91 z"
     id="path358" />
  <path
     style="fill:#231f20;fill-opacity:1;fill-rule:nonzero;stroke:none"
     d="m 251.6869,72.213095 c -1.219,-0.443 -0.178,-2.197 0.02,-2.699 0.209,-0.504 0.62,-2.004 0.792,-3.213 0.177,-1.213 0.912,-2.651 1.25,-4.952 0.172,-1.209 1.11,-2.277 2.854,-1.948 1.724,0.328 2.188,1.421 1.756,2.853 -0.434,1.432 -1.448,2.594 -1.986,4.006 -0.536,1.412 -0.952,2.901 -1.224,4.089 -0.306,1.343 -0.962,1.895 -1.432,1.979 -1.177,0.213 -2.03,-0.115 -2.03,-0.115"
     id="path359" />
  <path
     style="fill:none;stroke:#231f20;stroke-width:0.565977;stroke-linecap:butt;stroke-linejoin:miter;stroke-miterlimit:4;stroke-dasharray:none;stroke-opacity:1"
     d="m 251.6869,72.213095 c -1.219,-0.443 -0.178,-2.197 0.02,-2.699 0.209,-0.504 0.62,-2.004 0.792,-3.213 0.177,-1.213 0.912,-2.651 1.25,-4.952 0.172,-1.209 1.11,-2.277 2.854,-1.948 1.724,0.328 2.188,1.421 1.756,2.853 -0.434,1.432 -1.448,2.594 -1.986,4.006 -0.536,1.412 -0.952,2.901 -1.224,4.089 -0.306,1.343 -0.962,1.895 -1.432,1.979 -1.177,0.213 -2.03,-0.115 -2.03,-0.115 z"
     id="path360" />
  <path
     style="fill:#ffffff;fill-opacity:1;fill-rule:nonzero;stroke:none"
     d="m 229.4469,68.025095 c -1.568,-1.629 -2.094,-1.733 -2.828,-1.115 -0.49,0.412 -1.079,0.626 -1.391,0.86 -1.027,0.792 -2.443,2.547 -5.131,8.547 -0.609,1.365 -1.478,3.271 -1.9,4.021 -0.657,1.187 1.755,1.474 2.02,1.011 0.85,-1.485 1.552,-2.439 1.932,-2.939 0.267,-0.333 0.642,-0.994 1.819,-2.176 1.787,-1.792 3.12,-2.594 4.432,-4.261 0.604,-0.771 1.552,-0.957 1.76,-2.025 0.219,-1.063 -0.713,-1.923 -0.713,-1.923"
     id="path361" />
  <path
     style="fill:none;stroke:#231f20;stroke-width:0.565977;stroke-linecap:butt;stroke-linejoin:miter;stroke-miterlimit:4;stroke-dasharray:none;stroke-opacity:1"
     d="m 229.4469,68.025095 c -1.568,-1.629 -2.094,-1.733 -2.828,-1.115 -0.49,0.412 -1.079,0.626 -1.391,0.86 -1.027,0.792 -2.443,2.547 -5.131,8.547 -0.609,1.365 -1.478,3.271 -1.9,4.021 -0.657,1.187 1.755,1.474 2.02,1.011 0.85,-1.485 1.552,-2.439 1.932,-2.939 0.267,-0.333 0.642,-0.994 1.819,-2.176 1.787,-1.792 3.12,-2.594 4.432,-4.261 0.604,-0.771 1.552,-0.957 1.76,-2.025 0.219,-1.063 -0.713,-1.923 -0.713,-1.923 z"
     id="path362" />
  <path
     style="fill:#ffffff;fill-opacity:1;fill-rule:nonzero;stroke:#231f20;stroke-width:0.565977;stroke-linecap:round;stroke-linejoin:round;stroke-miterlimit:4;stroke-dasharray:none;stroke-opacity:1"
     d="m 229.2959,70.525095 c 1.421,0.016 2.349,-1.927 2.609,-2.135 3.907,-3.146 4.11,-3.474 6.911,-6.068 4.057,-3.754 6.256,-6.948 4.767,-9.948 -1.022,-2.03 -2.491,-2.765 -3.803,-2.656 -1.453,0.13 -4.135,1.834 -4.131,4.719 l -0.9,1.459 c -0.734,0.905 -1.089,1.353 -1.49,1.77 -0.687,0.73 -1.38,1.547 -2.651,3.042 -2.249,2.641 -3.76,6.177 -3.76,6.177 -0.199,0.24 -0.265,0.511 -0.26,0.781"
     id="path363" />
  <path
     style="fill:#0098c9;fill-opacity:1;fill-rule:nonzero;stroke:none"
     d="m 243.3429,51.760095 c -1.339,-1.834 -2.912,-2.312 -4.183,-1.984 -1.411,0.369 -3.787,2.494 -3.296,5.344 l 6.323,4.593 c 2.02,-3.167 2.718,-5.817 1.156,-7.953"
     id="path364" />
  <path
     style="fill:none;stroke:#231f20;stroke-width:0.565977;stroke-linecap:butt;stroke-linejoin:miter;stroke-miterlimit:4;stroke-dasharray:none;stroke-opacity:1"
     d="m 243.3429,51.760095 c -1.339,-1.834 -2.912,-2.312 -4.183,-1.984 -1.411,0.369 -3.787,2.494 -3.296,5.344 l 6.323,4.593 c 2.02,-3.167 2.718,-5.817 1.156,-7.953 z"
     id="path365" />
  <path
     style="fill:#231f20;fill-opacity:1;fill-rule:nonzero;stroke:none"
     d="m 216.5349,81.620095 c -0.334,-1.308 0.48,-1.882 1.51,-1.787 0.314,0.031 0.604,-0.271 0.902,-0.219 0.693,0.124 1.645,1.588 0.636,2.692 -0.079,0.074 -0.428,0.819 -0.776,1.328 -0.678,1.006 -2.527,2.683 -5.224,2.532 -1.271,-0.073 -0.991,-0.813 -0.47,-0.937 1.667,-0.407 1.735,-0.767 2.131,-1.032 1.359,-0.885 1.291,-2.577 1.291,-2.577"
     id="path366" />
  <path
     style="fill:none;stroke:#231f20;stroke-width:0.332927;stroke-linecap:butt;stroke-linejoin:miter;stroke-miterlimit:4;stroke-dasharray:none;stroke-opacity:1"
     d="m 216.5349,81.620095 c -0.334,-1.308 0.48,-1.882 1.51,-1.787 0.314,0.031 0.604,-0.271 0.902,-0.219 0.693,0.124 1.645,1.588 0.636,2.692 -0.079,0.074 -0.428,0.819 -0.776,1.328 -0.678,1.006 -2.527,2.683 -5.224,2.532 -1.271,-0.073 -0.991,-0.813 -0.47,-0.937 1.667,-0.407 1.735,-0.767 2.131,-1.032 1.359,-0.885 1.291,-2.577 1.291,-2.577 z"
     id="path367" />
  <path
     style="fill:#231f20;fill-opacity:1;fill-rule:nonzero;stroke:none"
     d="m 281.7029,41.531095 c 2.129,-0.76 2.437,-1.198 2.176,-2.12 -0.172,-0.619 -0.124,-1.244 -0.214,-1.619 -0.296,-1.267 -1.312,-3.272 -5.682,-8.199 -0.99,-1.109 -2.364,-2.688 -2.88,-3.38 -0.812,-1.088 -2.067,0.99 -1.755,1.427 1.005,1.38 1.588,2.417 1.885,2.969 0.198,0.38 0.646,0.99 1.24,2.552 0.896,2.364 1.083,3.907 2.058,5.787 0.452,0.875 0.238,1.812 1.124,2.443 0.876,0.634 2.048,0.14 2.048,0.14"
     id="path368" />
  <path
     style="fill:none;stroke:#231f20;stroke-width:0.565977;stroke-linecap:butt;stroke-linejoin:miter;stroke-miterlimit:4;stroke-dasharray:none;stroke-opacity:1"
     d="m 281.7029,41.531095 c 2.129,-0.76 2.437,-1.198 2.176,-2.12 -0.172,-0.619 -0.124,-1.244 -0.214,-1.619 -0.296,-1.267 -1.312,-3.272 -5.682,-8.199 -0.99,-1.109 -2.364,-2.688 -2.88,-3.38 -0.812,-1.088 -2.067,0.99 -1.755,1.427 1.005,1.38 1.588,2.417 1.885,2.969 0.198,0.38 0.646,0.99 1.24,2.552 0.896,2.364 1.083,3.907 2.058,5.787 0.452,0.875 0.238,1.812 1.124,2.443 0.876,0.634 2.048,0.14 2.048,0.14 z"
     id="path369" />
  <path
     style="fill:#231f20;fill-opacity:1;fill-rule:nonzero;stroke:#231f20;stroke-width:0.565977;stroke-linecap:round;stroke-linejoin:round;stroke-miterlimit:4;stroke-dasharray:none;stroke-opacity:1"
     d="m 279.4829,40.364095 c -0.599,1.292 0.792,2.932 0.876,3.256 1.26,4.853 1.473,5.172 2.686,8.796 1.756,5.24 3.762,8.562 7.115,8.437 2.271,-0.099 3.537,-1.135 3.98,-2.375 0.479,-1.38 0.031,-4.52 -2.605,-5.708 l -0.958,-1.421 c -0.521,-1.043 -0.786,-1.548 -1,-2.084 -0.38,-0.927 -0.844,-1.896 -1.682,-3.667 -1.484,-3.139 -4.083,-5.969 -4.083,-5.969 -0.141,-0.28 -0.36,-0.452 -0.611,-0.557"
     id="path370" />
  <path
     style="fill:#231f20;fill-opacity:1;fill-rule:nonzero;stroke:none"
     d="m 274.6189,24.172095 c 1.328,0.233 1.516,1.208 1.005,2.109 -0.151,0.271 -0.005,0.662 -0.172,0.911 -0.396,0.579 -2.12,0.849 -2.708,-0.531 -0.041,-0.093 -0.573,-0.724 -0.896,-1.245 -0.641,-1.036 -1.407,-3.405 -0.161,-5.807 0.588,-1.13 1.15,-0.568 1.046,-0.041 -0.312,1.687 -0.01,1.895 0.068,2.364 0.25,1.599 1.818,2.24 1.818,2.24"
     id="path371" />
  <path
     style="fill:none;stroke:#231f20;stroke-width:0.332927;stroke-linecap:butt;stroke-linejoin:miter;stroke-miterlimit:4;stroke-dasharray:none;stroke-opacity:1"
     d="m 274.6189,24.172095 c 1.328,0.233 1.516,1.208 1.005,2.109 -0.151,0.271 -0.005,0.662 -0.172,0.911 -0.396,0.579 -2.12,0.849 -2.708,-0.531 -0.041,-0.093 -0.573,-0.724 -0.896,-1.245 -0.641,-1.036 -1.407,-3.405 -0.161,-5.807 0.588,-1.13 1.15,-0.568 1.046,-0.041 -0.312,1.687 -0.01,1.895 0.068,2.364 0.25,1.599 1.818,2.24 1.818,2.24 z"
     id="path372" />
  <path
     style="fill:#ffffff;fill-opacity:1;fill-rule:nonzero;stroke:none"
     d="m 293.6079,83.125095 c -0.011,0.249 -1.129,0.5 -1.052,1.015 0.084,0.521 0.865,0.604 1.975,2.256 l 0.014,0.014 c 0.767,1.235 1.934,1.995 3.188,1.902 2.068,-0.14 3.588,-2.542 3.391,-5.354 -0.194,-2.824 -2.036,-4.99 -4.104,-4.844 -1.989,0.135 -3.464,2.348 -3.412,5.011"
     id="path373" />
  <path
     style="fill:none;stroke:#231f20;stroke-width:0.565977;stroke-linecap:butt;stroke-linejoin:miter;stroke-miterlimit:4;stroke-dasharray:none;stroke-opacity:1"
     d="m 293.6079,83.125095 c -0.011,0.249 -1.129,0.5 -1.052,1.015 0.084,0.521 0.865,0.604 1.975,2.256 l 0.014,0.014 c 0.767,1.235 1.934,1.995 3.188,1.902 2.068,-0.14 3.588,-2.542 3.391,-5.354 -0.194,-2.824 -2.036,-4.99 -4.104,-4.844 -1.989,0.135 -3.464,2.348 -3.412,5.011 z"
     id="path374" />
  <path
     style="fill:#231f20;fill-opacity:1;fill-rule:nonzero;stroke:none"
     d="m 275.5349,81.838095 c 0.329,-0.552 2.182,-1.161 3.396,-2.213 0.818,-0.715 3.453,-1.505 4.214,-2.276 0.698,-0.699 1.088,-0.959 2.031,-0.292 0.563,0.391 1.38,1.511 1.104,1.937 -0.64,1.006 -1.421,1.542 -2.407,1.954 -1.124,0.462 -4.285,1.448 -4.885,1.582 -1.489,0.308 -1.957,0.875 -2.348,0.995 -0.724,0.229 -0.991,0.005 -1.24,-0.432 -0.475,-0.833 0.135,-1.255 0.135,-1.255"
     id="path375" />
  <path
     style="fill:none;stroke:#231f20;stroke-width:0.565977;stroke-linecap:butt;stroke-linejoin:miter;stroke-miterlimit:4;stroke-dasharray:none;stroke-opacity:1"
     d="m 275.5349,81.838095 c 0.329,-0.552 2.182,-1.161 3.396,-2.213 0.818,-0.715 3.453,-1.505 4.214,-2.276 0.698,-0.699 1.088,-0.959 2.031,-0.292 0.563,0.391 1.38,1.511 1.104,1.937 -0.64,1.006 -1.421,1.542 -2.407,1.954 -1.124,0.462 -4.285,1.448 -4.885,1.582 -1.489,0.308 -1.957,0.875 -2.348,0.995 -0.724,0.229 -0.991,0.005 -1.24,-0.432 -0.475,-0.833 0.135,-1.255 0.135,-1.255 z"
     id="path376" />
  <path
     style="fill:#231f20;fill-opacity:1;fill-rule:nonzero;stroke:none"
     d="m 283.6489,77.801095 c -0.448,-1.213 1.563,-1.557 2.074,-1.729 0.516,-0.171 1.926,-0.823 2.964,-1.474 1.036,-0.65 2.609,-1.021 4.582,-2.254 1.038,-0.647 2.454,-0.62 3.328,0.921 0.871,1.527 0.339,2.588 -1.036,3.183 -1.369,0.598 -2.912,0.577 -4.338,1.082 -1.427,0.5 -2.828,1.147 -3.911,1.708 -1.224,0.636 -2.068,0.491 -2.439,0.188 -0.921,-0.76 -1.224,-1.625 -1.224,-1.625"
     id="path377" />
  <path
     style="fill:none;stroke:#231f20;stroke-width:0.565977;stroke-linecap:butt;stroke-linejoin:miter;stroke-miterlimit:4;stroke-dasharray:none;stroke-opacity:1"
     d="m 283.6489,77.801095 c -0.448,-1.213 1.563,-1.557 2.074,-1.729 0.516,-0.171 1.926,-0.823 2.964,-1.474 1.036,-0.65 2.609,-1.021 4.582,-2.254 1.038,-0.647 2.454,-0.62 3.328,0.921 0.871,1.527 0.339,2.588 -1.036,3.183 -1.369,0.598 -2.912,0.577 -4.338,1.082 -1.427,0.5 -2.828,1.147 -3.911,1.708 -1.224,0.636 -2.068,0.491 -2.439,0.188 -0.921,-0.76 -1.224,-1.625 -1.224,-1.625 z"
     id="path378" />
  <path
     style="fill:#ffffff;fill-opacity:1;fill-rule:nonzero;stroke:none"
     d="m 287.6489,39.651095 c 2.262,0.026 2.704,-0.282 2.776,-1.24 0.054,-0.635 0.314,-1.208 0.36,-1.594 0.162,-1.286 -0.104,-3.521 -2.5,-9.65 -0.541,-1.386 -1.292,-3.344 -1.536,-4.172 -0.385,-1.303 -2.281,0.218 -2.136,0.734 0.464,1.646 0.651,2.818 0.74,3.438 0.052,0.421 0.266,1.15 0.282,2.822 0.025,2.526 -0.334,4.042 -0.068,6.14 0.125,0.98 -0.402,1.787 0.213,2.678 0.599,0.906 1.869,0.844 1.869,0.844"
     id="path379" />
  <path
     style="fill:none;stroke:#231f20;stroke-width:0.565977;stroke-linecap:butt;stroke-linejoin:miter;stroke-miterlimit:4;stroke-dasharray:none;stroke-opacity:1"
     d="m 287.6489,39.651095 c 2.262,0.026 2.704,-0.282 2.776,-1.24 0.054,-0.635 0.314,-1.208 0.36,-1.594 0.162,-1.286 -0.104,-3.521 -2.5,-9.65 -0.541,-1.386 -1.292,-3.344 -1.536,-4.172 -0.385,-1.303 -2.281,0.218 -2.136,0.734 0.464,1.646 0.651,2.818 0.74,3.438 0.052,0.421 0.266,1.15 0.282,2.822 0.025,2.526 -0.334,4.042 -0.068,6.14 0.125,0.98 -0.402,1.787 0.213,2.678 0.599,0.906 1.869,0.844 1.869,0.844 z"
     id="path380" />
  <path
     style="fill:#ffffff;fill-opacity:1;fill-rule:nonzero;stroke:#231f20;stroke-width:0.565977;stroke-linecap:round;stroke-linejoin:round;stroke-miterlimit:4;stroke-dasharray:none;stroke-opacity:1"
     d="m 285.9729,37.787095 c -1.005,1.005 -0.27,3.025 -0.308,3.358 -0.494,4.995 -0.401,5.365 -0.516,9.183 -0.161,5.525 0.574,9.338 3.762,10.374 2.161,0.694 3.708,0.162 4.552,-0.849 0.932,-1.129 1.593,-4.233 -0.47,-6.26 l -0.405,-1.661 c -0.136,-1.156 -0.204,-1.724 -0.219,-2.303 -0.037,-1 -0.136,-2.067 -0.313,-4.02 -0.307,-3.458 -1.771,-7.016 -1.771,-7.016 -0.03,-0.306 -0.177,-0.546 -0.374,-0.729"
     id="path381" />
  <path
     style="fill:#0098c9;fill-opacity:1;fill-rule:nonzero;stroke:none"
     d="m 292.3589,53.276095 -7.71,1.286 c 0.844,3.662 2.246,6.015 4.866,6.396 2.244,0.334 3.686,-0.453 4.344,-1.589 0.729,-1.271 0.874,-4.448 -1.5,-6.093"
     id="path382" />
  <path
     style="fill:none;stroke:#231f20;stroke-width:0.565977;stroke-linecap:butt;stroke-linejoin:miter;stroke-miterlimit:4;stroke-dasharray:none;stroke-opacity:1"
     d="m 292.3589,53.276095 -7.71,1.286 c 0.844,3.662 2.246,6.015 4.866,6.396 2.244,0.334 3.686,-0.453 4.344,-1.589 0.729,-1.271 0.874,-4.448 -1.5,-6.093 z"
     id="path383" />
  <path
     style="fill:#231f20;fill-opacity:1;fill-rule:nonzero;stroke:none"
     d="m 287.0039,20.911095 c 1.167,0.682 1.005,1.661 0.213,2.328 -0.238,0.204 -0.234,0.62 -0.478,0.797 -0.568,0.407 -2.282,0.063 -2.36,-1.432 -0.006,-0.104 -0.287,-0.875 -0.406,-1.484 -0.245,-1.188 -0.146,-3.683 1.854,-5.5 0.942,-0.855 1.27,-0.136 0.994,0.323 -0.874,1.473 -0.666,1.77 -0.754,2.238 -0.318,1.595 0.937,2.73 0.937,2.73"
     id="path384" />
  <path
     style="fill:none;stroke:#231f20;stroke-width:0.332927;stroke-linecap:butt;stroke-linejoin:miter;stroke-miterlimit:4;stroke-dasharray:none;stroke-opacity:1"
     d="m 287.0039,20.911095 c 1.167,0.682 1.005,1.661 0.213,2.328 -0.238,0.204 -0.234,0.62 -0.478,0.797 -0.568,0.407 -2.282,0.063 -2.36,-1.432 -0.006,-0.104 -0.287,-0.875 -0.406,-1.484 -0.245,-1.188 -0.146,-3.683 1.854,-5.5 0.942,-0.855 1.27,-0.136 0.994,0.323 -0.874,1.473 -0.666,1.77 -0.754,2.238 -0.318,1.595 0.937,2.73 0.937,2.73 z"
     id="path385" />
  <path
     style="fill:#0098c9;fill-opacity:1;fill-rule:nonzero;stroke:none"
     d="m 183.0669,85.166095 c -0.208,-2.442 -3.24,-1.51 -4.932,-0.641 -0.995,0.516 -2.366,1.907 -2.366,1.907 0,0 -1.093,-1.49 -0.932,-3.287 0.058,-0.667 0.516,-5.224 3.87,-3.281 1.026,0.594 5.734,2.594 5.448,3.161 -0.287,0.563 -1.088,2.141 -1.088,2.141"
     id="path386" />
  <path
     style="fill:none;stroke:#231f20;stroke-width:0.565977;stroke-linecap:round;stroke-linejoin:round;stroke-miterlimit:4;stroke-dasharray:none;stroke-opacity:1"
     d="m 183.0669,85.166095 c -0.208,-2.442 -3.24,-1.51 -4.932,-0.641 -0.995,0.516 -2.366,1.907 -2.366,1.907 0,0 -1.093,-1.49 -0.932,-3.287 0.058,-0.667 0.516,-5.224 3.87,-3.281 1.026,0.594 5.734,2.594 5.448,3.161 -0.287,0.563 -1.088,2.141 -1.088,2.141 z"
     id="path387" />
  <path
     style="fill:#ffffff;fill-opacity:1;fill-rule:nonzero;stroke:none"
     d="m 251.5249,82.781095 c -0.078,-1.021 -0.969,-1.792 -1.994,-1.713 -1.022,0.077 -1.792,0.968 -1.719,1.989 0.077,1.025 0.973,1.796 2,1.719 1.02,-0.079 1.791,-0.97 1.713,-1.995"
     id="path388" />
  <path
     style="fill:none;stroke:#231f20;stroke-width:1.33171;stroke-linecap:butt;stroke-linejoin:miter;stroke-miterlimit:4;stroke-dasharray:none;stroke-opacity:1"
     d="m 251.5249,82.781095 c -0.078,-1.021 -0.969,-1.792 -1.994,-1.713 -1.022,0.077 -1.792,0.968 -1.719,1.989 0.077,1.025 0.973,1.796 2,1.719 1.02,-0.079 1.791,-0.97 1.713,-1.995 z"
     id="path389" />
  <path
     style="fill:#ffffff;fill-opacity:1;fill-rule:nonzero;stroke:none"
     d="m 276.4159,82.781095 c -0.079,-1.021 -0.969,-1.792 -1.995,-1.713 -1.026,0.077 -1.792,0.968 -1.714,1.989 0.073,1.025 0.964,1.796 1.99,1.719 1.026,-0.079 1.796,-0.97 1.719,-1.995"
     id="path390" />
  <path
     style="fill:none;stroke:#231f20;stroke-width:1.33171;stroke-linecap:butt;stroke-linejoin:miter;stroke-miterlimit:4;stroke-dasharray:none;stroke-opacity:1"
     d="m 276.4159,82.781095 c -0.079,-1.021 -0.969,-1.792 -1.995,-1.713 -1.026,0.077 -1.792,0.968 -1.714,1.989 0.073,1.025 0.964,1.796 1.99,1.719 1.026,-0.079 1.796,-0.97 1.719,-1.995 z"
     id="path391" />
  <path
     style="fill:#ffffff;fill-opacity:1;fill-rule:nonzero;stroke:none"
     d="m 324.7579,82.781095 c -0.077,-1.021 -0.968,-1.792 -1.994,-1.713 -1.02,0.077 -1.791,0.968 -1.719,1.989 0.079,1.025 0.975,1.796 1.995,1.719 1.026,-0.079 1.797,-0.97 1.718,-1.995"
     id="path392" />
  <path
     style="fill:none;stroke:#231f20;stroke-width:1.33171;stroke-linecap:butt;stroke-linejoin:miter;stroke-miterlimit:4;stroke-dasharray:none;stroke-opacity:1"
     d="m 324.7579,82.781095 c -0.077,-1.021 -0.968,-1.792 -1.994,-1.713 -1.02,0.077 -1.791,0.968 -1.719,1.989 0.079,1.025 0.975,1.796 1.995,1.719 1.026,-0.079 1.797,-0.97 1.718,-1.995 z"
     id="path393" />
  <path
     style="fill:#ffffff;fill-opacity:1;fill-rule:nonzero;stroke:none"
     d="m 203.6399,82.781095 c -0.079,-1.021 -0.969,-1.792 -1.995,-1.713 -1.026,0.077 -1.792,0.968 -1.714,1.989 0.073,1.025 0.964,1.796 1.99,1.719 1.026,-0.079 1.796,-0.97 1.719,-1.995"
     id="path394" />
  <path
     style="fill:none;stroke:#231f20;stroke-width:1.33171;stroke-linecap:butt;stroke-linejoin:miter;stroke-miterlimit:4;stroke-dasharray:none;stroke-opacity:1"
     d="m 203.6399,82.781095 c -0.079,-1.021 -0.969,-1.792 -1.995,-1.713 -1.026,0.077 -1.792,0.968 -1.714,1.989 0.073,1.025 0.964,1.796 1.99,1.719 1.026,-0.079 1.796,-0.97 1.719,-1.995 z"
     id="path395" />
  <path
     style="fill:#ffffff;fill-opacity:1;fill-rule:nonzero;stroke:none"
     d="m 166.1189,82.781095 c -0.079,-1.021 -0.969,-1.792 -1.995,-1.713 -1.026,0.077 -1.797,0.968 -1.718,1.989 0.077,1.025 0.968,1.796 1.994,1.719 1.022,-0.079 1.797,-0.97 1.719,-1.995"
     id="path396" />
  <path
     style="fill:none;stroke:#231f20;stroke-width:1.33171;stroke-linecap:butt;stroke-linejoin:miter;stroke-miterlimit:4;stroke-dasharray:none;stroke-opacity:1"
     d="m 166.1189,82.781095 c -0.079,-1.021 -0.969,-1.792 -1.995,-1.713 -1.026,0.077 -1.797,0.968 -1.718,1.989 0.077,1.025 0.968,1.796 1.994,1.719 1.022,-0.079 1.797,-0.97 1.719,-1.995 z"
     id="path397" />
  <path
     style="fill:#ffffff;fill-opacity:1;fill-rule:nonzero;stroke:none"
     d="m 102.5259,82.781095 c -0.084,-1.021 -0.975,-1.792 -1.995,-1.713 -1.027,0.077 -1.797,0.968 -1.719,1.989 0.078,1.025 0.968,1.796 1.995,1.719 1.02,-0.079 1.791,-0.97 1.719,-1.995"
     id="path398" />
  <path
     style="fill:none;stroke:#231f20;stroke-width:1.33171;stroke-linecap:butt;stroke-linejoin:miter;stroke-miterlimit:4;stroke-dasharray:none;stroke-opacity:1"
     d="m 102.5259,82.781095 c -0.084,-1.021 -0.975,-1.792 -1.995,-1.713 -1.027,0.077 -1.797,0.968 -1.719,1.989 0.078,1.025 0.968,1.796 1.995,1.719 1.02,-0.079 1.791,-0.97 1.719,-1.995 z"
     id="path399" />
  <path
     style="fill:#ffffff;fill-opacity:1;fill-rule:nonzero;stroke:none"
     d="m 39.9217,82.781095 c -0.0787,-1.021 -0.9745,-1.792 -1.9958,-1.713 -1.0256,0.077 -1.7964,0.968 -1.7188,1.989 0.0786,1.025 0.9693,1.796 1.9948,1.719 1.0213,-0.079 1.7917,-0.97 1.7198,-1.995"
     id="path400" />
  <path
     style="fill:none;stroke:#231f20;stroke-width:1.33171;stroke-linecap:butt;stroke-linejoin:miter;stroke-miterlimit:4;stroke-dasharray:none;stroke-opacity:1"
     d="m 39.9217,82.781095 c -0.0787,-1.021 -0.9745,-1.792 -1.9958,-1.713 -1.0256,0.077 -1.7964,0.968 -1.7188,1.989 0.0786,1.025 0.9693,1.796 1.9948,1.719 1.0213,-0.079 1.7917,-0.97 1.7198,-1.995 z"
     id="path401" />
  <path
     style="fill:#ffffff;fill-opacity:1;fill-rule:nonzero;stroke:none"
     d="m 4.3790003,82.781095 c -0.0771,-1.021 -0.9677,-1.792 -1.9891,-1.713 -1.0254,0.077 -1.79729996,0.968 -1.71859996,1.989 0.0785,1.025 0.96919996,1.796 1.99479996,1.719 1.0213,-0.079 1.7916,-0.97 1.7129,-1.995"
     id="path402" />
  <path
     style="fill:none;stroke:#231f20;stroke-width:1.33171;stroke-linecap:butt;stroke-linejoin:miter;stroke-miterlimit:4;stroke-dasharray:none;stroke-opacity:1"
     d="m 4.3790003,82.781095 c -0.0771,-1.021 -0.9677,-1.792 -1.9891,-1.713 -1.0254,0.077 -1.79729996,0.968 -1.71859996,1.989 0.0785,1.025 0.96919996,1.796 1.99479996,1.719 1.0213,-0.079 1.7916,-0.97 1.7129,-1.995 z"
     id="path403" />
</svg>
