<?xml version="1.0" encoding="UTF-8" standalone="no"?>
<!-- Created with Inkscape (http://www.inkscape.org/) -->

<svg
   version="1.1"
   id="svg1"
   width="346.98166"
   height="133.7843"
   viewBox="0 0 346.98164 133.7843"
   sodipodi:docname="cell.svg"
   xmlns:inkscape="http://www.inkscape.org/namespaces/inkscape"
   xmlns:sodipodi="http://sodipodi.sourceforge.net/DTD/sodipodi-0.dtd"
   xmlns="http://www.w3.org/2000/svg"
   xmlns:svg="http://www.w3.org/2000/svg">
  <sodipodi:namedview
     id="namedview1"
     pagecolor="#ffffff"
     bordercolor="#000000"
     borderopacity="0.25"
     inkscape:showpageshadow="2"
     inkscape:pageopacity="0.0"
     inkscape:pagecheckerboard="0"
     inkscape:deskcolor="#d1d1d1">
    <inkscape:page
       x="3.9729369e-14"
       y="9.1997841e-15"
       inkscape:label="1"
       id="page1"
       width="346.98163"
       height="133.7843"
       margin="0"
       bleed="0" />
  </sodipodi:namedview>
  <defs
     id="defs1" />
  <path
     style="fill:#231f20;fill-opacity:1;fill-rule:nonzero;stroke:none"
     d="m 268.48533,72.767977 c -0.12,-1.343 0.77,-1.78 1.78,-1.525 0.3,0.073 0.63,-0.172 0.92,-0.074 0.66,0.23 1.38,1.823 0.2,2.756 -0.08,0.063 -0.54,0.744 -0.96,1.198 -0.83,0.885 -2.92,2.25 -5.56,1.677 -1.25,-0.265 -0.86,-0.953 -0.32,-1 1.71,-0.136 1.83,-0.479 2.27,-0.683 1.48,-0.672 1.67,-2.349 1.67,-2.349"
     id="path1102" />
  <path
     style="fill:none;stroke:#231f20;stroke-width:0.332927;stroke-linecap:butt;stroke-linejoin:miter;stroke-miterlimit:4;stroke-dasharray:none;stroke-opacity:1"
     d="m 268.48533,72.767977 c -0.12,-1.343 0.77,-1.78 1.78,-1.525 0.3,0.073 0.63,-0.172 0.92,-0.074 0.66,0.23 1.38,1.823 0.2,2.756 -0.08,0.063 -0.54,0.744 -0.96,1.198 -0.83,0.885 -2.92,2.25 -5.56,1.677 -1.25,-0.265 -0.86,-0.953 -0.32,-1 1.71,-0.136 1.83,-0.479 2.27,-0.683 1.48,-0.672 1.67,-2.349 1.67,-2.349 z"
     id="path1103" />
  <path
     style="fill:#231f20;fill-opacity:1;fill-rule:nonzero;stroke:none"
     d="m 283.37533,61.362977 c -1.3,-1.86 -1.8,-2.042 -2.63,-1.542 -0.54,0.328 -1.16,0.443 -1.51,0.63 -1.14,0.62 -2.8,2.125 -6.4,7.641 -0.82,1.249 -1.97,2.995 -2.5,3.672 -0.84,1.067 1.5,1.733 1.84,1.317 1.07,-1.333 1.91,-2.166 2.37,-2.593 0.31,-0.297 0.78,-0.891 2.13,-1.876 2.04,-1.489 3.48,-2.072 5.04,-3.511 0.72,-0.666 1.68,-0.708 2.05,-1.722 0.39,-1.022 -0.39,-2.016 -0.39,-2.016"
     id="path1104" />
  <path
     style="fill:none;stroke:#231f20;stroke-width:0.565977;stroke-linecap:butt;stroke-linejoin:miter;stroke-miterlimit:4;stroke-dasharray:none;stroke-opacity:1"
     d="m 283.37533,61.362977 c -1.3,-1.86 -1.8,-2.042 -2.63,-1.542 -0.54,0.328 -1.16,0.443 -1.51,0.63 -1.14,0.62 -2.8,2.125 -6.4,7.641 -0.82,1.249 -1.97,2.995 -2.5,3.672 -0.84,1.067 1.5,1.733 1.84,1.317 1.07,-1.333 1.91,-2.166 2.37,-2.593 0.31,-0.297 0.78,-0.891 2.13,-1.876 2.04,-1.489 3.48,-2.072 5.04,-3.511 0.72,-0.666 1.68,-0.708 2.05,-1.722 0.39,-1.022 -0.39,-2.016 -0.39,-2.016 z"
     id="path1105" />
  <path
     style="fill:#0098c9;fill-opacity:1;fill-rule:nonzero;stroke:none"
     d="m 303.02533,43.070977 c -2.87,1.234 -3.63,1.188 -4.55,1.182 -5.78,0.006 -5.67,2.844 -4.08,5.239 1.87,2.833 2.49,3.887 8.02,0.876 1.54,-0.844 7.85,-3.287 7.85,-3.287 2.38,-0.568 4.39,-2.396 4.68,-3.833 0.29,-1.505 0.06,-0.926 0.08,-2.365 0.02,-1.38 -1.07,-3.28 -2.29,-3.504 -1.16,-0.22 -2.26,1.036 -4.08,2.635 -1.44,1.26 -5.63,3.057 -5.63,3.057"
     id="path1106" />
  <path
     style="fill:none;stroke:#231f20;stroke-width:0.565977;stroke-linecap:butt;stroke-linejoin:miter;stroke-miterlimit:4;stroke-dasharray:none;stroke-opacity:1"
     d="m 303.02533,43.070977 c -2.87,1.234 -3.63,1.188 -4.55,1.182 -5.78,0.006 -5.67,2.844 -4.08,5.239 1.87,2.833 2.49,3.887 8.02,0.876 1.54,-0.844 7.85,-3.287 7.85,-3.287 2.38,-0.568 4.39,-2.396 4.68,-3.833 0.29,-1.505 0.06,-0.926 0.08,-2.365 0.02,-1.38 -1.07,-3.28 -2.29,-3.504 -1.16,-0.22 -2.26,1.036 -4.08,2.635 -1.44,1.26 -5.63,3.057 -5.63,3.057 z"
     id="path1107" />
  <path
     style="fill:#ffffff;fill-opacity:1;fill-rule:nonzero;stroke:none"
     d="m 321.15533,41.294977 c 0.24,-0.036 0.71,1.016 1.2,0.833 0.5,-0.182 0.42,-0.964 1.82,-2.38 l 0.02,-0.016 c 1.05,-1 1.57,-2.286 1.24,-3.5 -0.55,-2 -3.2,-3.016 -5.93,-2.265 -2.73,0.74 -4.48,2.973 -3.93,4.973 0.52,1.918 2.98,2.939 5.58,2.355"
     id="path1108" />
  <path
     style="fill:none;stroke:#231f20;stroke-width:0.565977;stroke-linecap:butt;stroke-linejoin:miter;stroke-miterlimit:4;stroke-dasharray:none;stroke-opacity:1"
     d="m 321.15533,41.294977 c 0.24,-0.036 0.71,1.016 1.2,0.833 0.5,-0.182 0.42,-0.964 1.82,-2.38 l 0.02,-0.016 c 1.05,-1 1.57,-2.286 1.24,-3.5 -0.55,-2 -3.2,-3.016 -5.93,-2.265 -2.73,0.74 -4.48,2.973 -3.93,4.973 0.52,1.918 2.98,2.939 5.58,2.355 z"
     id="path1109" />
  <path
     style="fill:#231f20;fill-opacity:1;fill-rule:nonzero;stroke:none"
     d="m 281.07533,62.278977 c 2.01,3.474 4.25,0.062 4.67,-0.178 4.35,-2.489 4.59,-2.78 7.77,-4.905 4.59,-3.084 7.26,-5.891 6.25,-9.089 -0.68,-2.167 -2.02,-3.115 -3.33,-3.214 -1.45,-0.098 -4.37,1.162 -4.82,4.016 l -1.12,1.298 c -0.86,0.781 -1.28,1.172 -1.74,1.514 -0.8,0.61 -1.61,1.314 -3.1,2.59 -2.64,2.26 -4.68,5.51 -4.68,5.51 -0.92,0.838 0.1,2.458 0.1,2.458"
     id="path1110" />
  <path
     style="fill:none;stroke:#231f20;stroke-width:0.565977;stroke-linecap:butt;stroke-linejoin:miter;stroke-miterlimit:4;stroke-dasharray:none;stroke-opacity:1"
     d="m 281.07533,62.278977 c 2.01,3.474 4.25,0.062 4.67,-0.178 4.35,-2.489 4.59,-2.78 7.77,-4.905 4.59,-3.084 7.26,-5.891 6.25,-9.089 -0.68,-2.167 -2.02,-3.115 -3.33,-3.214 -1.45,-0.098 -4.37,1.162 -4.82,4.016 l -1.12,1.298 c -0.86,0.781 -1.28,1.172 -1.74,1.514 -0.8,0.61 -1.61,1.314 -3.1,2.59 -2.64,2.26 -4.68,5.51 -4.68,5.51 -0.92,0.838 0.1,2.458 0.1,2.458 z"
     id="path1111" />
  <path
     style="fill:#0098c9;fill-opacity:1;fill-rule:nonzero;stroke:none"
     d="m 299.63533,47.466977 c -1.04,-2.022 -2.51,-2.74 -3.82,-2.615 -1.46,0.145 -4.12,1.869 -4.09,4.76 l 5.52,5.532 c 0.44,-0.495 0.82,-0.975 1.16,-1.448 0.07,-0.047 0.13,-0.089 0.19,-0.125 0.73,-0.359 0.86,-0.974 1.04,-2 0.61,-1.432 0.67,-2.792 0,-4.104"
     id="path1112" />
  <path
     style="fill:none;stroke:#231f20;stroke-width:0.565977;stroke-linecap:butt;stroke-linejoin:miter;stroke-miterlimit:4;stroke-dasharray:none;stroke-opacity:1"
     d="m 299.63533,47.466977 c -1.04,-2.022 -2.51,-2.74 -3.82,-2.615 -1.46,0.145 -4.12,1.869 -4.09,4.76 l 5.52,5.532 c 0.44,-0.495 0.82,-0.975 1.16,-1.448 0.07,-0.047 0.13,-0.089 0.19,-0.125 0.73,-0.359 0.86,-0.974 1.04,-2 0.61,-1.432 0.67,-2.792 0,-4.104 z"
     id="path1113" />
  <path
     style="fill:#231f20;fill-opacity:1;fill-rule:nonzero;stroke:none"
     d="m 328.99533,51.690977 c -0.64,0.025 -2.17,-1.183 -3.72,-1.62 -1.04,-0.298 -3.15,-2.058 -4.21,-2.271 -0.97,-0.203 -1.41,-0.385 -1.36,-1.536 0.02,-0.683 0.5,-1.98 1.01,-1.985 1.2,-0.02 2.07,0.333 2.95,0.937 1.01,0.688 3.57,2.781 4.01,3.209 1.07,1.078 1.81,1.156 2.12,1.416 0.59,0.48 0.55,0.828 0.33,1.271 -0.44,0.855 -1.13,0.579 -1.13,0.579"
     id="path1114" />
  <path
     style="fill:none;stroke:#231f20;stroke-width:0.565977;stroke-linecap:butt;stroke-linejoin:miter;stroke-miterlimit:4;stroke-dasharray:none;stroke-opacity:1"
     d="m 328.99533,51.690977 c -0.64,0.025 -2.17,-1.183 -3.72,-1.62 -1.04,-0.298 -3.15,-2.058 -4.21,-2.271 -0.97,-0.203 -1.41,-0.385 -1.36,-1.536 0.02,-0.683 0.5,-1.98 1.01,-1.985 1.2,-0.02 2.07,0.333 2.95,0.937 1.01,0.688 3.57,2.781 4.01,3.209 1.07,1.078 1.81,1.156 2.12,1.416 0.59,0.48 0.55,0.828 0.33,1.271 -0.44,0.855 -1.13,0.579 -1.13,0.579 z"
     id="path1115" />
  <path
     style="fill:#231f20;fill-opacity:1;fill-rule:nonzero;stroke:none"
     d="m 321.16533,47.127977 c -0.77,1.047 -2.16,-0.443 -2.58,-0.781 -0.43,-0.339 -1.75,-1.156 -2.87,-1.662 -1.11,-0.51 -2.28,-1.625 -4.4,-2.593 -1.11,-0.505 -1.87,-1.709 -1.06,-3.286 0.8,-1.563 1.98,-1.704 3.23,-0.88 1.26,0.817 2.09,2.114 3.29,3.025 1.2,0.917 2.52,1.735 3.57,2.328 1.21,0.677 1.55,1.464 1.5,1.937 -0.12,1.188 -0.68,1.912 -0.68,1.912"
     id="path1116" />
  <path
     style="fill:none;stroke:#231f20;stroke-width:0.565977;stroke-linecap:butt;stroke-linejoin:miter;stroke-miterlimit:4;stroke-dasharray:none;stroke-opacity:1"
     d="m 321.16533,47.127977 c -0.77,1.047 -2.16,-0.443 -2.58,-0.781 -0.43,-0.339 -1.75,-1.156 -2.87,-1.662 -1.11,-0.51 -2.28,-1.625 -4.4,-2.593 -1.11,-0.505 -1.87,-1.709 -1.06,-3.286 0.8,-1.563 1.98,-1.704 3.23,-0.88 1.26,0.817 2.09,2.114 3.29,3.025 1.2,0.917 2.52,1.735 3.57,2.328 1.21,0.677 1.55,1.464 1.5,1.937 -0.12,1.188 -0.68,1.912 -0.68,1.912 z"
     id="path1117" />
  <path
     style="fill:#231f20;fill-opacity:1;fill-rule:nonzero;stroke:none"
     d="m 175.05133,36.247977 c -1.042,-0.854 -1.906,-0.36 -2.26,0.615 -0.104,0.292 -0.495,0.432 -0.574,0.724 -0.186,0.683 0.735,2.161 2.167,1.708 0.1,-0.031 0.917,-0.036 1.532,-0.131 1.197,-0.192 3.5,-1.156 4.505,-3.656 0.479,-1.186 -0.313,-1.249 -0.652,-0.828 -1.066,1.339 -1.426,1.246 -1.833,1.49 -1.385,0.854 -2.885,0.078 -2.885,0.078"
     id="path1118" />
  <path
     style="fill:none;stroke:#231f20;stroke-width:0.332927;stroke-linecap:butt;stroke-linejoin:miter;stroke-miterlimit:4;stroke-dasharray:none;stroke-opacity:1"
     d="m 175.05133,36.247977 c -1.042,-0.854 -1.906,-0.36 -2.26,0.615 -0.104,0.292 -0.495,0.432 -0.574,0.724 -0.186,0.683 0.735,2.161 2.167,1.708 0.1,-0.031 0.917,-0.036 1.532,-0.131 1.197,-0.192 3.5,-1.156 4.505,-3.656 0.479,-1.186 -0.313,-1.249 -0.652,-0.828 -1.066,1.339 -1.426,1.246 -1.833,1.49 -1.385,0.854 -2.885,0.078 -2.885,0.078 z"
     id="path1119" />
  <path
     style="fill:#231f20;fill-opacity:1;fill-rule:nonzero;stroke:none"
     d="m 157.26933,42.190977 c -0.812,-2.115 -0.686,-2.636 0.194,-3.036 0.573,-0.267 1.021,-0.72 1.364,-0.896 1.152,-0.6 3.333,-1.136 9.912,-1.027 1.494,0.022 3.588,0.047 4.448,-0.02 1.354,-0.094 0.593,2.219 0.062,2.26 -1.708,0.14 -2.87,0.375 -3.48,0.511 -0.416,0.093 -1.176,0.156 -2.744,0.724 -2.374,0.853 -3.672,1.724 -5.729,2.197 -0.959,0.229 -1.531,1.005 -2.588,0.745 -1.052,-0.256 -1.439,-1.458 -1.439,-1.458"
     id="path1120" />
  <path
     style="fill:none;stroke:#231f20;stroke-width:0.565977;stroke-linecap:butt;stroke-linejoin:miter;stroke-miterlimit:4;stroke-dasharray:none;stroke-opacity:1"
     d="m 157.26933,42.190977 c -0.812,-2.115 -0.686,-2.636 0.194,-3.036 0.573,-0.267 1.021,-0.72 1.364,-0.896 1.152,-0.6 3.333,-1.136 9.912,-1.027 1.494,0.022 3.588,0.047 4.448,-0.02 1.354,-0.094 0.593,2.219 0.062,2.26 -1.708,0.14 -2.87,0.375 -3.48,0.511 -0.416,0.093 -1.176,0.156 -2.744,0.724 -2.374,0.853 -3.672,1.724 -5.729,2.197 -0.959,0.229 -1.531,1.005 -2.588,0.745 -1.052,-0.256 -1.439,-1.458 -1.439,-1.458 z"
     id="path1121" />
  <path
     style="fill:#0098c9;fill-opacity:1;fill-rule:nonzero;stroke:none"
     d="m 131.60333,43.788977 c 3.13,-0.14 3.786,-0.51 4.614,-0.91 5.215,-2.5 6.344,0.104 5.948,2.957 -0.457,3.36 -0.562,4.573 -6.848,4.256 -1.75,-0.089 -8.5,0.443 -8.5,0.443 -2.39,0.52 -5.005,-0.251 -5.87,-1.423 -0.916,-1.229 -0.463,-0.807 -1.11,-2.099 -0.609,-1.234 -0.453,-3.416 0.547,-4.145 0.953,-0.704 2.491,-0.052 4.824,0.599 1.843,0.516 6.395,0.322 6.395,0.322"
     id="path1122" />
  <path
     style="fill:none;stroke:#231f20;stroke-width:0.565977;stroke-linecap:butt;stroke-linejoin:miter;stroke-miterlimit:4;stroke-dasharray:none;stroke-opacity:1"
     d="m 131.60333,43.788977 c 3.13,-0.14 3.786,-0.51 4.614,-0.91 5.215,-2.5 6.344,0.104 5.948,2.957 -0.457,3.36 -0.562,4.573 -6.848,4.256 -1.75,-0.089 -8.5,0.443 -8.5,0.443 -2.39,0.52 -5.005,-0.251 -5.87,-1.423 -0.916,-1.229 -0.463,-0.807 -1.11,-2.099 -0.609,-1.234 -0.453,-3.416 0.547,-4.145 0.953,-0.704 2.491,-0.052 4.824,0.599 1.843,0.516 6.395,0.322 6.395,0.322 z"
     id="path1123" />
  <path
     style="fill:#ffffff;fill-opacity:1;fill-rule:nonzero;stroke:none"
     d="m 114.49433,50.044977 c -0.234,0.072 -0.203,1.219 -0.724,1.271 -0.526,0.052 -0.796,-0.688 -2.671,-1.355 l -0.016,-0.005 c -1.391,-0.443 -2.412,-1.385 -2.636,-2.62 -0.369,-2.041 1.579,-4.109 4.355,-4.615 2.781,-0.505 5.333,0.74 5.707,2.782 0.36,1.953 -1.415,3.937 -4.015,4.542"
     id="path1124" />
  <path
     style="fill:none;stroke:#231f20;stroke-width:0.565977;stroke-linecap:butt;stroke-linejoin:miter;stroke-miterlimit:4;stroke-dasharray:none;stroke-opacity:1"
     d="m 114.49433,50.044977 c -0.234,0.072 -0.203,1.219 -0.724,1.271 -0.526,0.052 -0.796,-0.688 -2.671,-1.355 l -0.016,-0.005 c -1.391,-0.443 -2.412,-1.385 -2.636,-2.62 -0.369,-2.041 1.579,-4.109 4.355,-4.615 2.781,-0.505 5.333,0.74 5.707,2.782 0.36,1.953 -1.415,3.937 -4.015,4.542 z"
     id="path1125" />
  <path
     style="fill:#231f20;fill-opacity:1;fill-rule:nonzero;stroke:none"
     d="m 159.31233,40.805977 c 1.755,3.603 -2.328,3.551 -2.761,3.759 -4.495,2.208 -4.875,2.256 -8.416,3.694 -5.12,2.082 -8.948,2.724 -11.032,0.093 -1.406,-1.776 -1.452,-3.416 -0.796,-4.557 0.734,-1.265 3.41,-2.973 6.03,-1.745 l 1.699,-0.203 c 1.129,-0.276 1.687,-0.412 2.233,-0.593 0.948,-0.318 1.986,-0.599 3.876,-1.115 3.354,-0.917 7.192,-0.792 7.192,-0.792 1.204,-0.301 1.975,1.459 1.975,1.459"
     id="path1126" />
  <path
     style="fill:none;stroke:#231f20;stroke-width:0.565977;stroke-linecap:butt;stroke-linejoin:miter;stroke-miterlimit:4;stroke-dasharray:none;stroke-opacity:1"
     d="m 159.31233,40.805977 c 1.755,3.603 -2.328,3.551 -2.761,3.759 -4.495,2.208 -4.875,2.256 -8.416,3.694 -5.12,2.082 -8.948,2.724 -11.032,0.093 -1.406,-1.776 -1.452,-3.416 -0.796,-4.557 0.734,-1.265 3.41,-2.973 6.03,-1.745 l 1.699,-0.203 c 1.129,-0.276 1.687,-0.412 2.233,-0.593 0.948,-0.318 1.986,-0.599 3.876,-1.115 3.354,-0.917 7.192,-0.792 7.192,-0.792 1.204,-0.301 1.975,1.459 1.975,1.459 z"
     id="path1127" />
  <path
     style="fill:#0098c9;fill-opacity:1;fill-rule:nonzero;stroke:none"
     d="m 144.34333,50.206977 -1.484,-7.672 c -2.375,-1.652 -5.303,-0.407 -6.235,0.718 -0.839,1.016 -1.068,2.64 0.027,4.63 0.713,1.292 1.874,2 3.4,2.302 0.948,0.427 1.537,0.656 2.234,0.26 0.063,-0.036 0.136,-0.062 0.214,-0.093 0.589,-0.021 1.193,-0.063 1.844,-0.145"
     id="path1128" />
  <path
     style="fill:none;stroke:#231f20;stroke-width:0.565977;stroke-linecap:butt;stroke-linejoin:miter;stroke-miterlimit:4;stroke-dasharray:none;stroke-opacity:1"
     d="m 144.34333,50.206977 -1.484,-7.672 c -2.375,-1.652 -5.303,-0.407 -6.235,0.718 -0.839,1.016 -1.068,2.64 0.027,4.63 0.713,1.292 1.874,2 3.4,2.302 0.948,0.427 1.537,0.656 2.234,0.26 0.063,-0.036 0.136,-0.062 0.214,-0.093 0.589,-0.021 1.193,-0.063 1.844,-0.145 z"
     id="path1129" />
  <path
     style="fill:#231f20;fill-opacity:1;fill-rule:nonzero;stroke:none"
     d="m 103.50433,52.736977 c 0.626,0.162 2.376,-0.688 3.98,-0.786 1.083,-0.063 3.52,-1.334 4.604,-1.318 0.99,0.011 1.448,-0.073 1.656,-1.202 0.126,-0.672 -0.062,-2.048 -0.562,-2.162 -1.162,-0.277 -2.094,-0.11 -3.083,0.286 -1.131,0.453 -4.079,1.953 -4.6,2.276 -1.285,0.818 -2.02,0.74 -2.38,0.928 -0.683,0.338 -0.713,0.686 -0.588,1.172 0.244,0.932 0.973,0.806 0.973,0.806"
     id="path1130" />
  <path
     style="fill:none;stroke:#231f20;stroke-width:0.565977;stroke-linecap:butt;stroke-linejoin:miter;stroke-miterlimit:4;stroke-dasharray:none;stroke-opacity:1"
     d="m 103.50433,52.736977 c 0.626,0.162 2.376,-0.688 3.98,-0.786 1.083,-0.063 3.52,-1.334 4.604,-1.318 0.99,0.011 1.448,-0.073 1.656,-1.202 0.126,-0.672 -0.062,-2.048 -0.562,-2.162 -1.162,-0.277 -2.094,-0.11 -3.083,0.286 -1.131,0.453 -4.079,1.953 -4.6,2.276 -1.285,0.818 -2.02,0.74 -2.38,0.928 -0.683,0.338 -0.713,0.686 -0.588,1.172 0.244,0.932 0.973,0.806 0.973,0.806 z"
     id="path1131" />
  <path
     style="fill:#231f20;fill-opacity:1;fill-rule:nonzero;stroke:none"
     d="m 112.13033,49.960977 c 0.53,1.183 2.208,0.022 2.693,-0.213 0.489,-0.24 1.952,-0.756 3.15,-1.011 1.198,-0.26 2.578,-1.093 4.854,-1.582 1.198,-0.267 2.193,-1.272 1.74,-2.991 -0.443,-1.697 -1.568,-2.082 -2.964,-1.552 -1.4,0.527 -2.49,1.62 -3.859,2.256 -1.369,0.635 -2.828,1.151 -3.994,1.511 -1.323,0.394 -1.828,1.088 -1.875,1.561 -0.131,1.193 0.255,2.021 0.255,2.021"
     id="path1132" />
  <path
     style="fill:none;stroke:#231f20;stroke-width:0.565977;stroke-linecap:butt;stroke-linejoin:miter;stroke-miterlimit:4;stroke-dasharray:none;stroke-opacity:1"
     d="m 112.13033,49.960977 c 0.53,1.183 2.208,0.022 2.693,-0.213 0.489,-0.24 1.952,-0.756 3.15,-1.011 1.198,-0.26 2.578,-1.093 4.854,-1.582 1.198,-0.267 2.193,-1.272 1.74,-2.991 -0.443,-1.697 -1.568,-2.082 -2.964,-1.552 -1.4,0.527 -2.49,1.62 -3.859,2.256 -1.369,0.635 -2.828,1.151 -3.994,1.511 -1.323,0.394 -1.828,1.088 -1.875,1.561 -0.131,1.193 0.255,2.021 0.255,2.021 z"
     id="path1133" />
  <path
     style="fill:#231f20;fill-opacity:1;fill-rule:nonzero;stroke:none"
     d="m 5.0103344,76.643977 c 1.265,0.468 1.917,-0.276 1.937,-1.308 0.011,-0.312 0.333,-0.572 0.319,-0.875 -0.048,-0.697 -1.396,-1.806 -2.606,-0.916 -0.082,0.062 -0.858,0.334 -1.405,0.619 -1.073,0.568 -2.94300002,2.219 -3.08400002,4.917 -0.072,1.271 0.699,1.078 0.88000002,0.574 0.584,-1.615 0.948,-1.647 1.256,-2.006 1.036,-1.256 2.703,-1.005 2.703,-1.005"
     id="path1134" />
  <path
     style="fill:none;stroke:#231f20;stroke-width:0.332927;stroke-linecap:butt;stroke-linejoin:miter;stroke-miterlimit:4;stroke-dasharray:none;stroke-opacity:1"
     d="m 5.0103344,76.643977 c 1.265,0.468 1.917,-0.276 1.937,-1.308 0.011,-0.312 0.333,-0.572 0.319,-0.875 -0.048,-0.697 -1.396,-1.806 -2.606,-0.916 -0.082,0.062 -0.858,0.334 -1.405,0.619 -1.073,0.568 -2.94300002,2.219 -3.08400002,4.917 -0.072,1.271 0.699,1.078 0.88000002,0.574 0.584,-1.615 0.948,-1.647 1.256,-2.006 1.036,-1.256 2.703,-1.005 2.703,-1.005 z"
     id="path1135" />
  <path
     style="fill:#231f20;fill-opacity:1;fill-rule:nonzero;stroke:none"
     d="m 19.922334,65.278977 c 1.453,1.74 1.5,2.276 0.806,2.937 -0.462,0.439 -0.738,1.005 -1.01,1.287 -0.895,0.937 -2.786,2.146 -9.052,4.177 -1.4219996,0.453 -3.4059996,1.109 -4.2029996,1.453 -1.249,0.522 -1.276,-1.912 -0.787,-2.12 1.574,-0.688 2.594,-1.281 3.131,-1.609 0.364,-0.219 1.063,-0.525 2.3639996,-1.568 1.975,-1.577 2.917,-2.817 4.713,-3.937 0.834,-0.52 1.126,-1.443 2.204,-1.536 1.083,-0.099 1.834,0.916 1.834,0.916"
     id="path1136" />
  <path
     style="fill:none;stroke:#231f20;stroke-width:0.565977;stroke-linecap:butt;stroke-linejoin:miter;stroke-miterlimit:4;stroke-dasharray:none;stroke-opacity:1"
     d="m 19.922334,65.278977 c 1.453,1.74 1.5,2.276 0.806,2.937 -0.462,0.439 -0.738,1.005 -1.01,1.287 -0.895,0.937 -2.786,2.146 -9.052,4.177 -1.4219996,0.453 -3.4059996,1.109 -4.2029996,1.453 -1.249,0.522 -1.276,-1.912 -0.787,-2.12 1.574,-0.688 2.594,-1.281 3.131,-1.609 0.364,-0.219 1.063,-0.525 2.3639996,-1.568 1.975,-1.577 2.917,-2.817 4.713,-3.937 0.834,-0.52 1.126,-1.443 2.204,-1.536 1.083,-0.099 1.834,0.916 1.834,0.916 z"
     id="path1137" />
  <path
     style="fill:#0098c9;fill-opacity:1;fill-rule:nonzero;stroke:none"
     d="m 43.744334,56.602977 c -3.052,0.722 -3.625,1.213 -4.369,1.76 -4.647,3.437 -6.245,1.088 -6.391,-1.787 -0.177,-3.391 -0.308,-4.599 5.927,-5.469 1.735,-0.234 8.265,-2.026 8.265,-2.026 2.256,-0.958 4.959,-0.693 6.038,0.292 1.129,1.042 0.604,0.708 1.478,1.859 0.828,1.099 1.088,3.271 0.24,4.172 -0.808,0.869 -2.433,0.521 -4.849,0.317 -1.907,-0.156 -6.339,0.882 -6.339,0.882"
     id="path1138" />
  <path
     style="fill:none;stroke:#231f20;stroke-width:0.565977;stroke-linecap:butt;stroke-linejoin:miter;stroke-miterlimit:4;stroke-dasharray:none;stroke-opacity:1"
     d="m 43.744334,56.602977 c -3.052,0.722 -3.625,1.213 -4.369,1.76 -4.647,3.437 -6.245,1.088 -6.391,-1.787 -0.177,-3.391 -0.308,-4.599 5.927,-5.469 1.735,-0.234 8.265,-2.026 8.265,-2.026 2.256,-0.958 4.959,-0.693 6.038,0.292 1.129,1.042 0.604,0.708 1.478,1.859 0.828,1.099 1.088,3.271 0.24,4.172 -0.808,0.869 -2.433,0.521 -4.849,0.317 -1.907,-0.156 -6.339,0.882 -6.339,0.882 z"
     id="path1139" />
  <path
     style="fill:#ffffff;fill-opacity:1;fill-rule:nonzero;stroke:none"
     d="m 59.370334,47.252977 c 0.218,-0.114 -0.027,-1.24 0.473,-1.385 0.505,-0.152 0.912,0.525 2.88,0.828 l 0.021,0.005 c 1.443,0.172 2.626,0.906 3.074,2.072 0.754,1.939 -0.776,4.334 -3.407,5.355 -2.636,1.021 -5.38,0.271 -6.131,-1.667 -0.718,-1.849 0.656,-4.125 3.09,-5.208"
     id="path1140" />
  <path
     style="fill:none;stroke:#231f20;stroke-width:0.565977;stroke-linecap:butt;stroke-linejoin:miter;stroke-miterlimit:4;stroke-dasharray:none;stroke-opacity:1"
     d="m 59.370334,47.252977 c 0.218,-0.114 -0.027,-1.24 0.473,-1.385 0.505,-0.152 0.912,0.525 2.88,0.828 l 0.021,0.005 c 1.443,0.172 2.626,0.906 3.074,2.072 0.754,1.939 -0.776,4.334 -3.407,5.355 -2.636,1.021 -5.38,0.271 -6.131,-1.667 -0.718,-1.849 0.656,-4.125 3.09,-5.208 z"
     id="path1141" />
  <path
     style="fill:#231f20;fill-opacity:1;fill-rule:nonzero;stroke:none"
     d="m 18.436334,67.252977 c -2.822,-2.849 1.058,-4.12 1.396,-4.453 3.547,-3.541 3.891,-3.708 6.776,-6.213 4.178,-3.62 7.595,-5.464 10.407,-3.651 1.917,1.228 2.484,2.771 2.229,4.056 -0.286,1.433 -2.265,3.917 -5.141,3.605 l -1.547,0.734 c -0.973,0.63 -1.462,0.938 -1.921,1.286 -0.792,0.61 -1.683,1.208 -3.303,2.308 -2.874,1.948 -6.552,3.067 -6.552,3.067 -1.046,0.677 -2.344,-0.739 -2.344,-0.739"
     id="path1142" />
  <path
     style="fill:none;stroke:#231f20;stroke-width:0.565977;stroke-linecap:butt;stroke-linejoin:miter;stroke-miterlimit:4;stroke-dasharray:none;stroke-opacity:1"
     d="m 18.436334,67.252977 c -2.822,-2.849 1.058,-4.12 1.396,-4.453 3.547,-3.541 3.891,-3.708 6.776,-6.213 4.178,-3.62 7.595,-5.464 10.407,-3.651 1.917,1.228 2.484,2.771 2.229,4.056 -0.286,1.433 -2.265,3.917 -5.141,3.605 l -1.547,0.734 c -0.973,0.63 -1.462,0.938 -1.921,1.286 -0.792,0.61 -1.683,1.208 -3.303,2.308 -2.874,1.948 -6.552,3.067 -6.552,3.067 -1.046,0.677 -2.344,-0.739 -2.344,-0.739 z"
     id="path1143" />
  <path
     style="fill:#0098c9;fill-opacity:1;fill-rule:nonzero;stroke:none"
     d="m 37.603334,53.236977 c -1.093,-0.994 -2.421,-1.292 -3.968,-1.082 -1.032,-0.095 -1.656,-0.126 -2.193,0.478 -0.052,0.052 -0.11,0.099 -0.172,0.151 -0.547,0.208 -1.11,0.448 -1.698,0.74 l 3.886,6.781 c 2.776,0.792 5.145,-1.328 5.661,-2.698 0.464,-1.234 0.161,-2.839 -1.516,-4.37"
     id="path1144" />
  <path
     style="fill:none;stroke:#231f20;stroke-width:0.565977;stroke-linecap:butt;stroke-linejoin:miter;stroke-miterlimit:4;stroke-dasharray:none;stroke-opacity:1"
     d="m 37.603334,53.236977 c -1.093,-0.994 -2.421,-1.292 -3.968,-1.082 -1.032,-0.095 -1.656,-0.126 -2.193,0.478 -0.052,0.052 -0.11,0.099 -0.172,0.151 -0.547,0.208 -1.11,0.448 -1.698,0.74 l 3.886,6.781 c 2.776,0.792 5.145,-1.328 5.661,-2.698 0.464,-1.234 0.161,-2.839 -1.516,-4.37 z"
     id="path1145" />
  <path
     style="fill:#231f20;fill-opacity:1;fill-rule:nonzero;stroke:none"
     d="m 72.786334,50.878977 c -0.552,-0.324 -2.468,0.041 -4.042,-0.292 -1.062,-0.219 -3.745,0.364 -4.786,0.062 -0.954,-0.27 -1.422,-0.308 -1.916,0.73 -0.298,0.613 -0.475,1.989 -0.027,2.233 1.047,0.568 1.989,0.657 3.052,0.532 1.208,-0.141 4.448,-0.808 5.036,-0.985 1.453,-0.452 2.141,-0.187 2.537,-0.271 0.744,-0.151 0.87,-0.473 0.88,-0.973 0.006,-0.964 -0.734,-1.036 -0.734,-1.036"
     id="path1146" />
  <path
     style="fill:none;stroke:#231f20;stroke-width:0.565977;stroke-linecap:butt;stroke-linejoin:miter;stroke-miterlimit:4;stroke-dasharray:none;stroke-opacity:1"
     d="m 72.786334,50.878977 c -0.552,-0.324 -2.468,0.041 -4.042,-0.292 -1.062,-0.219 -3.745,0.364 -4.786,0.062 -0.954,-0.27 -1.422,-0.308 -1.916,0.73 -0.298,0.613 -0.475,1.989 -0.027,2.233 1.047,0.568 1.989,0.657 3.052,0.532 1.208,-0.141 4.448,-0.808 5.036,-0.985 1.453,-0.452 2.141,-0.187 2.537,-0.271 0.744,-0.151 0.87,-0.473 0.88,-0.973 0.006,-0.964 -0.734,-1.036 -0.734,-1.036 z"
     id="path1147" />
  <path
     style="fill:#231f20;fill-opacity:1;fill-rule:nonzero;stroke:none"
     d="m 63.734334,51.288977 c -0.198,-1.281 -2.12,-0.604 -2.646,-0.505 -0.537,0.104 -2.089,0.219 -3.308,0.152 -1.224,-0.068 -2.781,0.375 -5.104,0.255 -1.218,-0.068 -2.448,0.64 -2.462,2.416 -0.016,1.756 0.962,2.428 2.452,2.281 1.49,-0.14 2.828,-0.911 4.318,-1.161 1.49,-0.25 3.031,-0.37 4.244,-0.406 1.38,-0.037 2.052,-0.573 2.224,-1.016 0.438,-1.109 0.282,-2.016 0.282,-2.016"
     id="path1148" />
  <path
     style="fill:none;stroke:#231f20;stroke-width:0.565977;stroke-linecap:butt;stroke-linejoin:miter;stroke-miterlimit:4;stroke-dasharray:none;stroke-opacity:1"
     d="m 63.734334,51.288977 c -0.198,-1.281 -2.12,-0.604 -2.646,-0.505 -0.537,0.104 -2.089,0.219 -3.308,0.152 -1.224,-0.068 -2.781,0.375 -5.104,0.255 -1.218,-0.068 -2.448,0.64 -2.462,2.416 -0.016,1.756 0.962,2.428 2.452,2.281 1.49,-0.14 2.828,-0.911 4.318,-1.161 1.49,-0.25 3.031,-0.37 4.244,-0.406 1.38,-0.037 2.052,-0.573 2.224,-1.016 0.438,-1.109 0.282,-2.016 0.282,-2.016 z"
     id="path1149" />
  <path
     style="fill:#231f20;fill-opacity:1;fill-rule:nonzero;stroke:none"
     d="m 81.436334,128.00297 c 1.23,-0.552 1.172,-1.542 0.459,-2.296 -0.208,-0.224 -0.161,-0.636 -0.385,-0.839 -0.531,-0.469 -2.266,-0.308 -2.5,1.177 -0.016,0.104 -0.38,0.838 -0.568,1.432 -0.364,1.156 -0.531,3.646 1.261,5.662 0.844,0.953 1.255,0.276 1.031,-0.214 -0.719,-1.552 -0.479,-1.833 -0.52,-2.308 -0.136,-1.62 1.222,-2.614 1.222,-2.614"
     id="path1150" />
  <path
     style="fill:none;stroke:#231f20;stroke-width:0.332927;stroke-linecap:butt;stroke-linejoin:miter;stroke-miterlimit:4;stroke-dasharray:none;stroke-opacity:1"
     d="m 81.436334,128.00297 c 1.23,-0.552 1.172,-1.542 0.459,-2.296 -0.208,-0.224 -0.161,-0.636 -0.385,-0.839 -0.531,-0.469 -2.266,-0.308 -2.5,1.177 -0.016,0.104 -0.38,0.838 -0.568,1.432 -0.364,1.156 -0.531,3.646 1.261,5.662 0.844,0.953 1.255,0.276 1.031,-0.214 -0.719,-1.552 -0.479,-1.833 -0.52,-2.308 -0.136,-1.62 1.222,-2.614 1.222,-2.614 z"
     id="path1151" />
  <path
     style="fill:#231f20;fill-opacity:1;fill-rule:nonzero;stroke:none"
     d="m 84.067334,109.43997 c 2.251,0.219 2.661,0.563 2.631,1.527 -0.022,0.636 0.182,1.234 0.192,1.62 0.016,1.301 -0.479,3.489 -3.511,9.333 -0.692,1.323 -1.645,3.187 -1.973,3.984 -0.522,1.255 -2.25,-0.459 -2.047,-0.953 0.635,-1.594 0.948,-2.735 1.099,-3.339 0.104,-0.416 0.385,-1.124 0.584,-2.776 0.29,-2.515 0.093,-4.057 0.582,-6.115 0.224,-0.957 -0.213,-1.817 0.495,-2.645 0.693,-0.833 1.948,-0.636 1.948,-0.636"
     id="path1152" />
  <path
     style="fill:none;stroke:#231f20;stroke-width:0.565977;stroke-linecap:butt;stroke-linejoin:miter;stroke-miterlimit:4;stroke-dasharray:none;stroke-opacity:1"
     d="m 84.067334,109.43997 c 2.251,0.219 2.661,0.563 2.631,1.527 -0.022,0.636 0.182,1.234 0.192,1.62 0.016,1.301 -0.479,3.489 -3.511,9.333 -0.692,1.323 -1.645,3.187 -1.973,3.984 -0.522,1.255 -2.25,-0.459 -2.047,-0.953 0.635,-1.594 0.948,-2.735 1.099,-3.339 0.104,-0.416 0.385,-1.124 0.584,-2.776 0.29,-2.515 0.093,-4.057 0.582,-6.115 0.224,-0.957 -0.213,-1.817 0.495,-2.645 0.693,-0.833 1.948,-0.636 1.948,-0.636 z"
     id="path1153" />
  <path
     style="fill:#0098c9;fill-opacity:1;fill-rule:nonzero;stroke:none"
     d="m 90.348334,83.335977 c 0.339,3.115 0.751,3.745 1.208,4.547 2.834,5.037 0.308,6.333 -2.566,6.125 -3.382,-0.244 -4.6,-0.265 -4.694,-6.557 -0.021,-1.75 -0.989,-8.454 -0.989,-8.454 -0.672,-2.353 -0.073,-5.009 1.036,-5.952 1.172,-0.996 0.776,-0.516 2.027,-1.24 1.192,-0.688 3.38,-0.672 4.172,0.276 0.76,0.907 0.213,2.479 -0.287,4.855 -0.391,1.869 0.093,6.4 0.093,6.4"
     id="path1154" />
  <path
     style="fill:none;stroke:#231f20;stroke-width:0.565977;stroke-linecap:butt;stroke-linejoin:miter;stroke-miterlimit:4;stroke-dasharray:none;stroke-opacity:1"
     d="m 90.348334,83.335977 c 0.339,3.115 0.751,3.745 1.208,4.547 2.834,5.037 0.308,6.333 -2.566,6.125 -3.382,-0.244 -4.6,-0.265 -4.694,-6.557 -0.021,-1.75 -0.989,-8.454 -0.989,-8.454 -0.672,-2.353 -0.073,-5.009 1.036,-5.952 1.172,-0.996 0.776,-0.516 2.027,-1.24 1.192,-0.688 3.38,-0.672 4.172,0.276 0.76,0.907 0.213,2.479 -0.287,4.855 -0.391,1.869 0.093,6.4 0.093,6.4 z"
     id="path1155" />
  <path
     style="fill:#ffffff;fill-opacity:1;fill-rule:nonzero;stroke:none"
     d="m 82.994334,66.668977 c -0.083,-0.229 -1.228,-0.124 -1.312,-0.64 -0.088,-0.521 0.63,-0.838 1.177,-2.756 l 0.005,-0.014 c 0.354,-1.418 1.224,-2.495 2.443,-2.798 2.016,-0.51 4.203,1.303 4.885,4.042 0.688,2.745 -0.39,5.37 -2.406,5.876 -1.927,0.484 -4.016,-1.158 -4.792,-3.71"
     id="path1156" />
  <path
     style="fill:none;stroke:#231f20;stroke-width:0.565977;stroke-linecap:butt;stroke-linejoin:miter;stroke-miterlimit:4;stroke-dasharray:none;stroke-opacity:1"
     d="m 82.994334,66.668977 c -0.083,-0.229 -1.228,-0.124 -1.312,-0.64 -0.088,-0.521 0.63,-0.838 1.177,-2.756 l 0.005,-0.014 c 0.354,-1.418 1.224,-2.495 2.443,-2.798 2.016,-0.51 4.203,1.303 4.885,4.042 0.688,2.745 -0.39,5.37 -2.406,5.876 -1.927,0.484 -4.016,-1.158 -4.792,-3.71 z"
     id="path1157" />
  <path
     style="fill:#231f20;fill-opacity:1;fill-rule:nonzero;stroke:none"
     d="m 84.395334,111.88797 c -4.011,-0.047 -2.14,-3.672 -2.135,-4.151 0.036,-5.01 0.162,-5.369 0.458,-9.181993 0.428,-5.51 1.562,-9.219 4.838,-9.911 2.224,-0.464 3.714,0.229 4.438,1.328 0.802,1.219 1.141,4.375 -1.13,6.172 l -0.584,1.609 c -0.249,1.135 -0.385,1.692 -0.462,2.265993 -0.142,0.989 -0.35,2.046 -0.73,3.964 -0.677,3.405 -2.51,6.785 -2.51,6.785 -0.271,1.22 -2.183,1.12 -2.183,1.12"
     id="path1158" />
  <path
     style="fill:none;stroke:#231f20;stroke-width:0.565977;stroke-linecap:butt;stroke-linejoin:miter;stroke-miterlimit:4;stroke-dasharray:none;stroke-opacity:1"
     d="m 84.395334,111.88797 c -4.011,-0.047 -2.14,-3.672 -2.135,-4.151 0.036,-5.01 0.162,-5.369 0.458,-9.181993 0.428,-5.51 1.562,-9.219 4.838,-9.911 2.224,-0.464 3.714,0.229 4.438,1.328 0.802,1.219 1.141,4.375 -1.13,6.172 l -0.584,1.609 c -0.249,1.135 -0.385,1.692 -0.462,2.265993 -0.142,0.989 -0.35,2.046 -0.73,3.964 -0.677,3.405 -2.51,6.785 -2.51,6.785 -0.271,1.22 -2.183,1.12 -2.183,1.12 z"
     id="path1159" />
  <path
     style="fill:#0098c9;fill-opacity:1;fill-rule:nonzero;stroke:none"
     d="m 92.338334,90.496977 c -0.536,-1.208 -1.886,-2.134 -4.151,-2.046 -1.475,0.057 -2.631,0.781 -3.584,2.01 -0.801,0.662 -1.271,1.079 -1.228,1.886 0,0.073 -0.005,0.15 -0.011,0.229 -0.245,0.536 -0.48,1.099 -0.693,1.719 l 7.527,2.098 c 2.536,-1.385 2.729,-4.562 2.14,-5.896"
     id="path1160" />
  <path
     style="fill:none;stroke:#231f20;stroke-width:0.565977;stroke-linecap:butt;stroke-linejoin:miter;stroke-miterlimit:4;stroke-dasharray:none;stroke-opacity:1"
     d="m 92.338334,90.496977 c -0.536,-1.208 -1.886,-2.134 -4.151,-2.046 -1.475,0.057 -2.631,0.781 -3.584,2.01 -0.801,0.662 -1.271,1.079 -1.228,1.886 0,0.073 -0.005,0.15 -0.011,0.229 -0.245,0.536 -0.48,1.099 -0.693,1.719 l 7.527,2.098 c 2.536,-1.385 2.729,-4.562 2.14,-5.896 z"
     id="path1161" />
  <path
     style="fill:#231f20;fill-opacity:1;fill-rule:nonzero;stroke:none"
     d="m 88.255334,53.804977 c -0.391,0.511 -0.265,2.454 -0.787,3.974 -0.354,1.032 -0.104,3.766 -0.532,4.761 -0.389,0.911 -0.484,1.369 0.486,1.995 0.572,0.369 1.916,0.713 2.213,0.296 0.692,-0.968 0.896,-1.895 0.907,-2.958 0.009,-1.218 -0.256,-4.521 -0.36,-5.12 -0.266,-1.505 0.084,-2.15 0.046,-2.557 -0.057,-0.756 -0.364,-0.923 -0.858,-0.989 -0.954,-0.126 -1.115,0.598 -1.115,0.598"
     id="path1162" />
  <path
     style="fill:none;stroke:#231f20;stroke-width:0.565977;stroke-linecap:butt;stroke-linejoin:miter;stroke-miterlimit:4;stroke-dasharray:none;stroke-opacity:1"
     d="m 88.255334,53.804977 c -0.391,0.511 -0.265,2.454 -0.787,3.974 -0.354,1.032 -0.104,3.766 -0.532,4.761 -0.389,0.911 -0.484,1.369 0.486,1.995 0.572,0.369 1.916,0.713 2.213,0.296 0.692,-0.968 0.896,-1.895 0.907,-2.958 0.009,-1.218 -0.256,-4.521 -0.36,-5.12 -0.266,-1.505 0.084,-2.15 0.046,-2.557 -0.057,-0.756 -0.364,-0.923 -0.858,-0.989 -0.954,-0.126 -1.115,0.598 -1.115,0.598 z"
     id="path1163" />
  <path
     style="fill:#231f20;fill-opacity:1;fill-rule:nonzero;stroke:none"
     d="m 87.542334,62.835977 c -1.298,0.037 -0.86,2.032 -0.83,2.568 0.038,0.547 -0.041,2.099 -0.26,3.303 -0.213,1.208 0.032,2.801 -0.374,5.093 -0.219,1.203 0.338,2.511 2.098,2.745 1.74,0.234 2.522,-0.657 2.563,-2.157 0.041,-1.495 -0.557,-2.916 -0.62,-4.427 -0.068,-1.51 0.011,-3.052 0.125,-4.26 0.131,-1.38 -0.317,-2.109 -0.734,-2.333 -1.052,-0.573 -1.968,-0.532 -1.968,-0.532"
     id="path1164" />
  <path
     style="fill:none;stroke:#231f20;stroke-width:0.565977;stroke-linecap:butt;stroke-linejoin:miter;stroke-miterlimit:4;stroke-dasharray:none;stroke-opacity:1"
     d="m 87.542334,62.835977 c -1.298,0.037 -0.86,2.032 -0.83,2.568 0.038,0.547 -0.041,2.099 -0.26,3.303 -0.213,1.208 0.032,2.801 -0.374,5.093 -0.219,1.203 0.338,2.511 2.098,2.745 1.74,0.234 2.522,-0.657 2.563,-2.157 0.041,-1.495 -0.557,-2.916 -0.62,-4.427 -0.068,-1.51 0.011,-3.052 0.125,-4.26 0.131,-1.38 -0.317,-2.109 -0.734,-2.333 -1.052,-0.573 -1.968,-0.532 -1.968,-0.532 z"
     id="path1165" />
  <path
     style="fill:#231f20;fill-opacity:1;fill-rule:nonzero;stroke:none"
     d="m 306.82533,118.58697 c -0.45,-1.276 0.31,-1.918 1.35,-1.912 0.3,-0.006 0.57,-0.318 0.87,-0.296 0.7,0.061 1.78,1.432 0.87,2.624 -0.07,0.084 -0.35,0.849 -0.66,1.396 -0.58,1.057 -2.28,2.89 -4.98,2.974 -1.27,0.047 -1.06,-0.718 -0.55,-0.896 1.62,-0.546 1.66,-0.912 2.03,-1.208 1.28,-1.01 1.07,-2.682 1.07,-2.682"
     id="path1166" />
  <path
     style="fill:none;stroke:#231f20;stroke-width:0.332927;stroke-linecap:butt;stroke-linejoin:miter;stroke-miterlimit:4;stroke-dasharray:none;stroke-opacity:1"
     d="m 306.82533,118.58697 c -0.45,-1.276 0.31,-1.918 1.35,-1.912 0.3,-0.006 0.57,-0.318 0.87,-0.296 0.7,0.061 1.78,1.432 0.87,2.624 -0.07,0.084 -0.35,0.849 -0.66,1.396 -0.58,1.057 -2.28,2.89 -4.98,2.974 -1.27,0.047 -1.06,-0.718 -0.55,-0.896 1.62,-0.546 1.66,-0.912 2.03,-1.208 1.28,-1.01 1.07,-2.682 1.07,-2.682 z"
     id="path1167" />
  <path
     style="fill:#231f20;fill-opacity:1;fill-rule:nonzero;stroke:none"
     d="m 318.49533,103.91997 c -1.71,-1.489 -2.24,-1.552 -2.92,-0.871 -0.45,0.454 -1.02,0.719 -1.31,0.98 -0.95,0.88 -2.2,2.744 -4.36,8.963 -0.49,1.412 -1.19,3.387 -1.54,4.172 -0.55,1.24 1.88,1.319 2.1,0.833 0.72,-1.557 1.33,-2.566 1.67,-3.093 0.23,-0.359 0.55,-1.057 1.62,-2.333 1.62,-1.938 2.87,-2.859 4.04,-4.631 0.54,-0.817 1.46,-1.093 1.58,-2.172 0.12,-1.077 -0.88,-1.848 -0.88,-1.848"
     id="path1168" />
  <path
     style="fill:none;stroke:#231f20;stroke-width:0.565977;stroke-linecap:butt;stroke-linejoin:miter;stroke-miterlimit:4;stroke-dasharray:none;stroke-opacity:1"
     d="m 318.49533,103.91997 c -1.71,-1.489 -2.24,-1.552 -2.92,-0.871 -0.45,0.454 -1.02,0.719 -1.31,0.98 -0.95,0.88 -2.2,2.744 -4.36,8.963 -0.49,1.412 -1.19,3.387 -1.54,4.172 -0.55,1.24 1.88,1.319 2.1,0.833 0.72,-1.557 1.33,-2.566 1.67,-3.093 0.23,-0.359 0.55,-1.057 1.62,-2.333 1.62,-1.938 2.87,-2.859 4.04,-4.631 0.54,-0.817 1.46,-1.093 1.58,-2.172 0.12,-1.077 -0.88,-1.848 -0.88,-1.848 z"
     id="path1169" />
  <path
     style="fill:#0098c9;fill-opacity:1;fill-rule:nonzero;stroke:none"
     d="m 330.12533,80.559977 c -1.64,2.667 -2.28,3.057 -3.03,3.595 -4.72,3.342 -2.99,5.593 -0.3,6.634 3.16,1.224 4.27,1.724 7.05,-3.926 0.76,-1.574 4.5,-7.219 4.5,-7.219 1.62,-1.839 2.21,-4.5 1.61,-5.828 -0.63,-1.396 -0.48,-0.792 -1.3,-1.98 -0.79,-1.135 -2.77,-2.057 -3.9,-1.536 -1.07,0.495 -1.25,2.151 -1.81,4.511 -0.44,1.858 -2.82,5.749 -2.82,5.749"
     id="path1170" />
  <path
     style="fill:none;stroke:#231f20;stroke-width:0.565977;stroke-linecap:butt;stroke-linejoin:miter;stroke-miterlimit:4;stroke-dasharray:none;stroke-opacity:1"
     d="m 330.12533,80.559977 c -1.64,2.667 -2.28,3.057 -3.03,3.595 -4.72,3.342 -2.99,5.593 -0.3,6.634 3.16,1.224 4.27,1.724 7.05,-3.926 0.76,-1.574 4.5,-7.219 4.5,-7.219 1.62,-1.839 2.21,-4.5 1.61,-5.828 -0.63,-1.396 -0.48,-0.792 -1.3,-1.98 -0.79,-1.135 -2.77,-2.057 -3.9,-1.536 -1.07,0.495 -1.25,2.151 -1.81,4.511 -0.44,1.858 -2.82,5.749 -2.82,5.749 z"
     id="path1171" />
  <path
     style="fill:#ffffff;fill-opacity:1;fill-rule:nonzero;stroke:none"
     d="m 343.89533,68.632977 c 0.17,-0.172 1.17,0.412 1.46,-0.021 0.3,-0.432 -0.21,-1.031 0.11,-2.995 l 0.01,-0.014 c 0.28,-1.434 -0.04,-2.782 -1.02,-3.574 -1.6,-1.317 -4.35,-0.614 -6.14,1.568 -1.8,2.187 -1.94,5.02 -0.34,6.339 1.53,1.265 4.13,0.671 5.92,-1.303"
     id="path1172" />
  <path
     style="fill:none;stroke:#231f20;stroke-width:0.565977;stroke-linecap:butt;stroke-linejoin:miter;stroke-miterlimit:4;stroke-dasharray:none;stroke-opacity:1"
     d="m 343.89533,68.632977 c 0.17,-0.172 1.17,0.412 1.46,-0.021 0.3,-0.432 -0.21,-1.031 0.11,-2.995 l 0.01,-0.014 c 0.28,-1.434 -0.04,-2.782 -1.02,-3.574 -1.6,-1.317 -4.35,-0.614 -6.14,1.568 -1.8,2.187 -1.94,5.02 -0.34,6.339 1.53,1.265 4.13,0.671 5.92,-1.303 z"
     id="path1173" />
  <path
     style="fill:#231f20;fill-opacity:1;fill-rule:nonzero;stroke:none"
     d="m 316.48533,105.35697 c 2.79,2.886 4.14,-0.969 4.49,-1.302 3.61,-3.468 3.78,-3.807 6.35,-6.639993 3.71,-4.099 5.62,-7.475 3.87,-10.328 -1.19,-1.938 -2.71,-2.538 -4.01,-2.314 -1.44,0.256 -3.96,2.188 -3.71,5.063 l -0.77,1.532 c -0.64,0.963 -0.96,1.443 -1.32,1.896 -0.63,0.781 -1.25,1.661 -2.38,3.255 -2.01,2.833 -3.2,6.483993 -3.2,6.483993 -0.7,1.032 0.68,2.354 0.68,2.354"
     id="path1174" />
  <path
     style="fill:none;stroke:#231f20;stroke-width:0.565977;stroke-linecap:butt;stroke-linejoin:miter;stroke-miterlimit:4;stroke-dasharray:none;stroke-opacity:1"
     d="m 316.48533,105.35697 c 2.79,2.886 4.14,-0.969 4.49,-1.302 3.61,-3.468 3.78,-3.807 6.35,-6.639993 3.71,-4.099 5.62,-7.475 3.87,-10.328 -1.19,-1.938 -2.71,-2.538 -4.01,-2.314 -1.44,0.256 -3.96,2.188 -3.71,5.063 l -0.77,1.532 c -0.64,0.963 -0.96,1.443 -1.32,1.896 -0.63,0.781 -1.25,1.661 -2.38,3.255 -2.01,2.833 -3.2,6.483993 -3.2,6.483993 -0.7,1.032 0.68,2.354 0.68,2.354 z"
     id="path1175" />
  <path
     style="fill:#0098c9;fill-opacity:1;fill-rule:nonzero;stroke:none"
     d="m 330.91533,86.496977 c -1.5,-1.708 -3.1,-2.046 -4.35,-1.609 -1.37,0.491 -3.55,2.808 -2.81,5.604 l 6.7,4.027 c 0.3,-0.583 0.55,-1.14 0.77,-1.683 0.05,-0.057 0.1,-0.12 0.16,-0.167 0.61,-0.525 0.59,-1.156 0.53,-2.192 0.23,-1.532 -0.04,-2.87 -1,-3.98"
     id="path1176" />
  <path
     style="fill:none;stroke:#231f20;stroke-width:0.565977;stroke-linecap:butt;stroke-linejoin:miter;stroke-miterlimit:4;stroke-dasharray:none;stroke-opacity:1"
     d="m 330.91533,86.496977 c -1.5,-1.708 -3.1,-2.046 -4.35,-1.609 -1.37,0.491 -3.55,2.808 -2.81,5.604 l 6.7,4.027 c 0.3,-0.583 0.55,-1.14 0.77,-1.683 0.05,-0.057 0.1,-0.12 0.16,-0.167 0.61,-0.525 0.59,-1.156 0.53,-2.192 0.23,-1.532 -0.04,-2.87 -1,-3.98 z"
     id="path1177" />
  <path
     style="fill:#231f20;fill-opacity:1;fill-rule:nonzero;stroke:none"
     d="m 344.63533,54.752977 c 0.14,0.63 -0.8,2.334 -0.98,3.932 -0.12,1.079 -1.52,3.443 -1.56,4.527 -0.04,0.995 -0.15,1.447 -1.29,1.599 -0.68,0.088 -2.04,-0.178 -2.12,-0.678 -0.22,-1.172 -0.01,-2.093 0.44,-3.062 0.51,-1.104 2.15,-3.979 2.51,-4.479 0.88,-1.24 0.84,-1.98 1.05,-2.328 0.38,-0.661 0.72,-0.677 1.2,-0.527 0.92,0.292 0.75,1.016 0.75,1.016"
     id="path1178" />
  <path
     style="fill:none;stroke:#231f20;stroke-width:0.565977;stroke-linecap:butt;stroke-linejoin:miter;stroke-miterlimit:4;stroke-dasharray:none;stroke-opacity:1"
     d="m 344.63533,54.752977 c 0.14,0.63 -0.8,2.334 -0.98,3.932 -0.12,1.079 -1.52,3.443 -1.56,4.527 -0.04,0.995 -0.15,1.447 -1.29,1.599 -0.68,0.088 -2.04,-0.178 -2.12,-0.678 -0.22,-1.172 -0.01,-2.093 0.44,-3.062 0.51,-1.104 2.15,-3.979 2.51,-4.479 0.88,-1.24 0.84,-1.98 1.05,-2.328 0.38,-0.661 0.72,-0.677 1.2,-0.527 0.92,0.292 0.75,1.016 0.75,1.016 z"
     id="path1179" />
  <path
     style="fill:#231f20;fill-opacity:1;fill-rule:nonzero;stroke:none"
     d="m 341.42533,63.220977 c 1.15,0.59 -0.09,2.204 -0.35,2.678 -0.27,0.474 -0.86,1.917 -1.18,3.093 -0.32,1.183 -1.22,2.521 -1.83,4.767 -0.32,1.181 -1.38,2.129 -3.07,1.588 -1.67,-0.536 -2.01,-1.672 -1.4,-3.047 0.6,-1.369 1.75,-2.396 2.45,-3.735 0.71,-1.338 1.3,-2.765 1.71,-3.91 0.47,-1.298 1.19,-1.767 1.66,-1.792 1.2,-0.068 2.01,0.358 2.01,0.358"
     id="path1180" />
  <path
     style="fill:none;stroke:#231f20;stroke-width:0.565977;stroke-linecap:butt;stroke-linejoin:miter;stroke-miterlimit:4;stroke-dasharray:none;stroke-opacity:1"
     d="m 341.42533,63.220977 c 1.15,0.59 -0.09,2.204 -0.35,2.678 -0.27,0.474 -0.86,1.917 -1.18,3.093 -0.32,1.183 -1.22,2.521 -1.83,4.767 -0.32,1.181 -1.38,2.129 -3.07,1.588 -1.67,-0.536 -2.01,-1.672 -1.4,-3.047 0.6,-1.369 1.75,-2.396 2.45,-3.735 0.71,-1.338 1.3,-2.765 1.71,-3.91 0.47,-1.298 1.19,-1.767 1.66,-1.792 1.2,-0.068 2.01,0.358 2.01,0.358 z"
     id="path1181" />
  <path
     style="fill:#0098c9;fill-opacity:1;fill-rule:nonzero;stroke:none"
     d="m 258.87533,9.9359768 c -1.48,-3.188 -2.05,-3.974 -2.62,-4.964 -2.9,-4.99400005 -4.17,-4.72900005 -6.287,-3.614 -3.005,1.578 -4.5,2.724 -1.052,7.994 2.619,3.9950002 3.989,7.3440002 3.989,7.3440002 0.21,1.854 1.99,4.974 2.83,5.344 1.4,0.619 1.15,0.452 2.6,0.364 2.66,-0.161 3.17,-1.249 3.32,-2.426 0.16,-1.178 -0.06,-2.194 -0.92,-4.866 -0.66,-2.082 -1.86,-5.1760002 -1.86,-5.1760002"
     id="path1182" />
  <path
     style="fill:none;stroke:#231f20;stroke-width:0.565977;stroke-linecap:butt;stroke-linejoin:miter;stroke-miterlimit:4;stroke-dasharray:none;stroke-opacity:1"
     d="m 258.87533,9.9359768 c -1.48,-3.188 -2.05,-3.974 -2.62,-4.964 -2.9,-4.99400005 -4.17,-4.72900005 -6.287,-3.614 -3.005,1.578 -4.5,2.724 -1.052,7.994 2.619,3.9950002 3.989,7.3440002 3.989,7.3440002 0.21,1.854 1.99,4.974 2.83,5.344 1.4,0.619 1.15,0.452 2.6,0.364 2.66,-0.161 3.17,-1.249 3.32,-2.426 0.16,-1.178 -0.06,-2.194 -0.92,-4.866 -0.66,-2.082 -1.86,-5.1760002 -1.86,-5.1760002 z"
     id="path1183" />
  <path
     style="fill:#231f20;fill-opacity:1;fill-rule:nonzero;stroke:none"
     d="m 249.96333,40.581977 c -1.094,-0.792 -0.834,-1.751 0.016,-2.339 0.26,-0.177 0.296,-0.593 0.552,-0.745 0.614,-0.348 2.284,0.166 2.204,1.661 0,0.105 0.21,0.901 0.26,1.511 0.13,1.213 -0.22,3.682 -2.382,5.291 -1.025,0.76 -1.286,0.011 -0.962,-0.421 1.014,-1.376 0.838,-1.693 0.973,-2.152 0.471,-1.552 -0.661,-2.806 -0.661,-2.806"
     id="path1184" />
  <path
     style="fill:none;stroke:#231f20;stroke-width:0.332927;stroke-linecap:butt;stroke-linejoin:miter;stroke-miterlimit:4;stroke-dasharray:none;stroke-opacity:1"
     d="m 249.96333,40.581977 c -1.094,-0.792 -0.834,-1.751 0.016,-2.339 0.26,-0.177 0.296,-0.593 0.552,-0.745 0.614,-0.348 2.284,0.166 2.204,1.661 0,0.105 0.21,0.901 0.26,1.511 0.13,1.213 -0.22,3.682 -2.382,5.291 -1.025,0.76 -1.286,0.011 -0.962,-0.421 1.014,-1.376 0.838,-1.693 0.973,-2.152 0.471,-1.552 -0.661,-2.806 -0.661,-2.806 z"
     id="path1185" />
  <path
     style="fill:#ffffff;fill-opacity:1;fill-rule:nonzero;stroke:none"
     d="m 251.17533,21.867977 c -2.248,-0.245 -2.723,0.015 -2.89,0.958 -0.114,0.63 -0.432,1.172 -0.516,1.553 -0.285,1.265 -0.244,3.515 1.532,9.853 0.407,1.432 0.959,3.454 1.12,4.303 0.255,1.333 2.294,0.005 2.194,-0.516 -0.29,-1.693 -0.37,-2.875 -0.39,-3.495 -0.02,-0.426 -0.15,-1.177 0,-2.838 0.22,-2.522 0.73,-3.99 0.67,-6.11 -0.03,-0.978 0.58,-1.734 0.06,-2.682 -0.52,-0.958 -1.78,-1.026 -1.78,-1.026"
     id="path1186" />
  <path
     style="fill:none;stroke:#231f20;stroke-width:0.565977;stroke-linecap:round;stroke-linejoin:round;stroke-miterlimit:4;stroke-dasharray:none;stroke-opacity:1"
     d="m 251.17533,21.867977 c -2.248,-0.245 -2.723,0.015 -2.89,0.958 -0.114,0.63 -0.432,1.172 -0.516,1.553 -0.285,1.265 -0.244,3.515 1.532,9.853 0.407,1.432 0.959,3.454 1.12,4.303 0.255,1.333 2.294,0.005 2.194,-0.516 -0.29,-1.693 -0.37,-2.875 -0.39,-3.495 -0.02,-0.426 -0.15,-1.177 0,-2.838 0.22,-2.522 0.73,-3.99 0.67,-6.11 -0.03,-0.978 0.58,-1.734 0.06,-2.682 -0.52,-0.958 -1.78,-1.026 -1.78,-1.026 z"
     id="path1187" />
  <path
     style="fill:#ffffff;fill-opacity:1;fill-rule:nonzero;stroke:none"
     d="m 262.08533,29.237977 c 0.16,0.177 -0.43,1.161 0,1.464 0.42,0.301 1.02,-0.204 2.99,0.15 l 0.02,0.006 c 1.42,0.301 2.77,-0.011 3.58,-0.975 1.34,-1.588 0.67,-4.343 -1.49,-6.161 -2.17,-1.823 -5,-2.006 -6.33,-0.416 -1.29,1.516 -0.73,4.12 1.23,5.932"
     id="path1188" />
  <path
     style="fill:none;stroke:#231f20;stroke-width:0.565977;stroke-linecap:butt;stroke-linejoin:miter;stroke-miterlimit:4;stroke-dasharray:none;stroke-opacity:1"
     d="m 262.08533,29.237977 c 0.16,0.177 -0.43,1.161 0,1.464 0.42,0.301 1.02,-0.204 2.99,0.15 l 0.02,0.006 c 1.42,0.301 2.77,-0.011 3.58,-0.975 1.34,-1.588 0.67,-4.343 -1.49,-6.161 -2.17,-1.823 -5,-2.006 -6.33,-0.416 -1.29,1.516 -0.73,4.12 1.23,5.932 z"
     id="path1189" />
  <path
     style="fill:#ffffff;fill-opacity:1;fill-rule:nonzero;stroke:#231f20;stroke-width:0.565977;stroke-linecap:round;stroke-linejoin:round;stroke-miterlimit:4;stroke-dasharray:none;stroke-opacity:1"
     d="m 252.60533,23.925977 c 1.16,-0.876 0.62,-3.016 0.69,-3.35 0.98,-4.921 0.93,-5.292 1.42,-9.088 0.71,-5.4800002 0.35,-9.3380002 -2.72,-10.68800025 -2.079,-0.912 -3.672,-0.53 -4.616,0.39100005 -1.031,1.031 -2.004,4.057 -0.146,6.276 l 0.24,1.692 c 0.016,1.1670002 0.031,1.7400002 -0.005,2.3130002 -0.068,1 -0.079,2.074 -0.093,4.031 -0.038,3.48 1.066,7.156 1.066,7.156 0.006,0.401 0.204,0.699 0.47,0.928"
     id="path1190" />
  <path
     style="fill:#0098c9;fill-opacity:1;fill-rule:nonzero;stroke:none"
     d="m 251.42533,0.48297675 c -2.202,-0.552 -3.717,0.083 -4.484,1.15600005 -0.848,1.187 -1.312,4.333 0.896,6.208 l 7.788,-0.521 c -0.47,-3.723 -1.64,-6.203 -4.2,-6.84300005"
     id="path1191" />
  <path
     style="fill:none;stroke:#231f20;stroke-width:0.565977;stroke-linecap:butt;stroke-linejoin:miter;stroke-miterlimit:4;stroke-dasharray:none;stroke-opacity:1"
     d="m 251.42533,0.48297675 c -2.202,-0.552 -3.717,0.083 -4.484,1.15600005 -0.848,1.187 -1.312,4.333 0.896,6.208 l 7.788,-0.521 c -0.47,-3.723 -1.64,-6.203 -4.2,-6.84300005 z"
     id="path1192" />
  <path
     style="fill:#231f20;fill-opacity:1;fill-rule:nonzero;stroke:none"
     d="m 250.15133,39.106977 c -0.147,-0.629 0.765,-2.348 0.914,-3.948 0.11,-1.077 1.45,-3.473 1.48,-4.556 0.02,-0.991 0.11,-1.448 1.26,-1.62 0.67,-0.1 2.04,0.14 2.14,0.64 0.23,1.167 0.04,2.093 -0.39,3.068 -0.49,1.115 -2.1,4.016 -2.44,4.525 -0.86,1.256 -0.8,1.991 -1,2.344 -0.37,0.667 -0.72,0.688 -1.194,0.547 -0.917,-0.271 -0.77,-1 -0.77,-1"
     id="path1193" />
  <path
     style="fill:none;stroke:#231f20;stroke-width:0.565977;stroke-linecap:butt;stroke-linejoin:miter;stroke-miterlimit:4;stroke-dasharray:none;stroke-opacity:1"
     d="m 250.15133,39.106977 c -0.147,-0.629 0.765,-2.348 0.914,-3.948 0.11,-1.077 1.45,-3.473 1.48,-4.556 0.02,-0.991 0.11,-1.448 1.26,-1.62 0.67,-0.1 2.04,0.14 2.14,0.64 0.23,1.167 0.04,2.093 -0.39,3.068 -0.49,1.115 -2.1,4.016 -2.44,4.525 -0.86,1.256 -0.8,1.991 -1,2.344 -0.37,0.667 -0.72,0.688 -1.194,0.547 -0.917,-0.271 -0.77,-1 -0.77,-1 z"
     id="path1194" />
  <path
     style="fill:#231f20;fill-opacity:1;fill-rule:nonzero;stroke:none"
     d="m 253.21533,30.581977 c -1.16,-0.568 0.05,-2.203 0.3,-2.683 0.26,-0.479 0.82,-1.932 1.12,-3.115 0.3,-1.192 1.18,-2.546 1.75,-4.801 0.3,-1.183 1.34,-2.152 3.04,-1.641 1.68,0.5 2.03,1.641 1.45,3.021 -0.57,1.38 -1.7,2.427 -2.38,3.781 -0.68,1.348 -1.25,2.792 -1.64,3.938 -0.45,1.306 -1.16,1.786 -1.63,1.822 -1.19,0.088 -2.01,-0.322 -2.01,-0.322"
     id="path1195" />
  <path
     style="fill:none;stroke:#231f20;stroke-width:0.565977;stroke-linecap:butt;stroke-linejoin:miter;stroke-miterlimit:4;stroke-dasharray:none;stroke-opacity:1"
     d="m 253.21533,30.581977 c -1.16,-0.568 0.05,-2.203 0.3,-2.683 0.26,-0.479 0.82,-1.932 1.12,-3.115 0.3,-1.192 1.18,-2.546 1.75,-4.801 0.3,-1.183 1.34,-2.152 3.04,-1.641 1.68,0.5 2.03,1.641 1.45,3.021 -0.57,1.38 -1.7,2.427 -2.38,3.781 -0.68,1.348 -1.25,2.792 -1.64,3.938 -0.45,1.306 -1.16,1.786 -1.63,1.822 -1.19,0.088 -2.01,-0.322 -2.01,-0.322 z"
     id="path1196" />
  <path
     style="fill:#231f20;fill-opacity:1;fill-rule:nonzero;stroke:none"
     d="m 204.52533,47.887977 c -0.505,-0.525 -1.844,-3.484 -2.114,-4.176 -0.251,-0.615 -0.995,-1.5 -0.208,-2.349 0.312,-0.344 1.014,-0.625 1.333,-0.661 0.265,-0.027 0.468,0.224 0.577,0.609 0.194,0.635 0,0.891 0.292,2.134 0,0 0.027,0.303 0.036,0.855 0.038,1.631 -0.129,0.916 0.448,3.265 0.043,0.162 -0.098,0.328 -0.208,0.35 -0.177,0.025 -0.156,-0.027 -0.156,-0.027"
     id="path1197" />
  <path
     style="fill:none;stroke:#231f20;stroke-width:0.565977;stroke-linecap:round;stroke-linejoin:round;stroke-miterlimit:4;stroke-dasharray:none;stroke-opacity:1"
     d="m 204.52533,47.887977 c -0.505,-0.525 -1.844,-3.484 -2.114,-4.176 -0.251,-0.615 -0.995,-1.5 -0.208,-2.349 0.312,-0.344 1.014,-0.625 1.333,-0.661 0.265,-0.027 0.468,0.224 0.577,0.609 0.194,0.635 0,0.891 0.292,2.134 0,0 0.027,0.303 0.036,0.855 0.038,1.631 -0.129,0.916 0.448,3.265 0.043,0.162 -0.098,0.328 -0.208,0.35 -0.177,0.025 -0.156,-0.027 -0.156,-0.027 z"
     id="path1198" />
  <path
     style="fill:none;stroke:#231f20;stroke-width:0.399514;stroke-linecap:butt;stroke-linejoin:miter;stroke-miterlimit:4;stroke-dasharray:none;stroke-opacity:1"
     d="m 58.072334,106.05997 c 13.464,22.808 46.791996,14.511 52.786996,10.412"
     id="path1199" />
  <path
     style="fill:#231f20;fill-opacity:1;fill-rule:nonzero;stroke:none"
     d="m 111.85433,115.79497 c -0.35,0.494 -0.73,1.188 -0.87,1.75 l -0.256,-0.98 -0.817,-0.593 c 0.573,0.068 1.355,-0.032 1.943,-0.177"
     id="path1200" />
  <path
     style="fill:#0098c9;fill-opacity:1;fill-rule:nonzero;stroke:none"
     d="m 201.85333,14.378977 c 3.047,-1.745 3.97,-2.057 5.006,-2.532 5.26,-2.4010002 6.134,-1.453 7.224,0.683 1.541,3.02 2.093,4.822 -3.766,7.129 -4.442,1.751 -7.494,3.688 -7.494,3.688 -1.251,1.396 -4.511,2.907 -5.402,2.724 -1.505,-0.307 -1.204,-0.292 -2.328,-1.197 -2.089,-1.678 -1.87,-2.86 -1.313,-3.912 0.552,-1.047 1.319,-1.75 3.568,-3.438 1.74,-1.308 4.505,-3.145 4.505,-3.145"
     id="path1201" />
  <path
     style="fill:none;stroke:#231f20;stroke-width:0.565977;stroke-linecap:butt;stroke-linejoin:miter;stroke-miterlimit:4;stroke-dasharray:none;stroke-opacity:1"
     d="m 201.85333,14.378977 c 3.047,-1.745 3.97,-2.057 5.006,-2.532 5.26,-2.4010002 6.134,-1.453 7.224,0.683 1.541,3.02 2.093,4.822 -3.766,7.129 -4.442,1.751 -7.494,3.688 -7.494,3.688 -1.251,1.396 -4.511,2.907 -5.402,2.724 -1.505,-0.307 -1.204,-0.292 -2.328,-1.197 -2.089,-1.678 -1.87,-2.86 -1.313,-3.912 0.552,-1.047 1.319,-1.75 3.568,-3.438 1.74,-1.308 4.505,-3.145 4.505,-3.145 z"
     id="path1202" />
  <path
     style="fill:#ffffff;fill-opacity:1;fill-rule:nonzero;stroke:none"
     d="m 187.65133,28.382977 c -0.246,0 -0.532,1.115 -1.048,1.021 -0.515,-0.093 -0.578,-0.88 -2.192,-2.03 l -0.022,-0.016 c -1.208,-0.803 -1.937,-1.99 -1.812,-3.24 0.203,-2.063 2.646,-3.515 5.454,-3.239 2.817,0.271 4.926,2.171 4.724,4.239 -0.188,1.98 -2.443,3.396 -5.104,3.265"
     id="path1203" />
  <path
     style="fill:none;stroke:#231f20;stroke-width:0.565977;stroke-linecap:butt;stroke-linejoin:miter;stroke-miterlimit:4;stroke-dasharray:none;stroke-opacity:1"
     d="m 187.65133,28.382977 c -0.246,0 -0.532,1.115 -1.048,1.021 -0.515,-0.093 -0.578,-0.88 -2.192,-2.03 l -0.022,-0.016 c -1.208,-0.803 -1.937,-1.99 -1.812,-3.24 0.203,-2.063 2.646,-3.515 5.454,-3.239 2.817,0.271 4.926,2.171 4.724,4.239 -0.188,1.98 -2.443,3.396 -5.104,3.265 z"
     id="path1204" />
  <path
     style="fill:#231f20;fill-opacity:1;fill-rule:nonzero;stroke:none"
     d="m 203.50433,40.706977 c 0.208,-0.609 -0.52,-2.412 -0.505,-4.021 0.01,-1.088 -1.088,-3.604 -0.995,-4.683 0.084,-0.989 0.027,-1.453 -1.088,-1.744 -0.661,-0.167 -2.041,-0.068 -2.193,0.416 -0.354,1.136 -0.26,2.079 0.068,3.093 0.374,1.158 1.666,4.21 1.953,4.751 0.729,1.339 0.599,2.063 0.76,2.437 0.292,0.699 0.636,0.76 1.131,0.667 0.942,-0.177 0.869,-0.916 0.869,-0.916"
     id="path1205" />
  <path
     style="fill:none;stroke:#231f20;stroke-width:0.565977;stroke-linecap:butt;stroke-linejoin:miter;stroke-miterlimit:4;stroke-dasharray:none;stroke-opacity:1"
     d="m 203.50433,40.706977 c 0.208,-0.609 -0.52,-2.412 -0.505,-4.021 0.01,-1.088 -1.088,-3.604 -0.995,-4.683 0.084,-0.989 0.027,-1.453 -1.088,-1.744 -0.661,-0.167 -2.041,-0.068 -2.193,0.416 -0.354,1.136 -0.26,2.079 0.068,3.093 0.374,1.158 1.666,4.21 1.953,4.751 0.729,1.339 0.599,2.063 0.76,2.437 0.292,0.699 0.636,0.76 1.131,0.667 0.942,-0.177 0.869,-0.916 0.869,-0.916 z"
     id="path1206" />
  <path
     style="fill:#231f20;fill-opacity:1;fill-rule:nonzero;stroke:none"
     d="m 201.33733,31.909977 c 1.214,-0.443 0.178,-2.198 -0.025,-2.698 -0.204,-0.505 -0.62,-2.005 -0.792,-3.214 -0.177,-1.214 -0.907,-2.656 -1.245,-4.952 -0.172,-1.215 -1.115,-2.278 -2.854,-1.948 -1.729,0.328 -2.193,1.421 -1.756,2.853 0.428,1.432 1.443,2.595 1.98,4.005 0.542,1.412 0.954,2.902 1.224,4.09 0.307,1.342 0.963,1.894 1.438,1.978 1.172,0.214 2.03,-0.114 2.03,-0.114"
     id="path1207" />
  <path
     style="fill:none;stroke:#231f20;stroke-width:0.565977;stroke-linecap:butt;stroke-linejoin:miter;stroke-miterlimit:4;stroke-dasharray:none;stroke-opacity:1"
     d="m 201.33733,31.909977 c 1.214,-0.443 0.178,-2.198 -0.025,-2.698 -0.204,-0.505 -0.62,-2.005 -0.792,-3.214 -0.177,-1.214 -0.907,-2.656 -1.245,-4.952 -0.172,-1.215 -1.115,-2.278 -2.854,-1.948 -1.729,0.328 -2.193,1.421 -1.756,2.853 0.428,1.432 1.443,2.595 1.98,4.005 0.542,1.412 0.954,2.902 1.224,4.09 0.307,1.342 0.963,1.894 1.438,1.978 1.172,0.214 2.03,-0.114 2.03,-0.114 z"
     id="path1208" />
  <path
     style="fill:#231f20;fill-opacity:1;fill-rule:nonzero;stroke:none"
     d="m 223.57733,27.721977 c 1.568,-1.63 2.094,-1.734 2.823,-1.115 0.495,0.412 1.084,0.625 1.396,0.86 1.027,0.792 2.437,2.547 5.131,8.547 0.609,1.36 1.478,3.27 1.896,4.021 0.661,1.187 -1.751,1.473 -2.022,1.011 -0.844,-1.486 -1.552,-2.439 -1.932,-2.939 -0.266,-0.333 -0.636,-0.995 -1.818,-2.176 -1.782,-1.792 -3.115,-2.595 -4.427,-4.261 -0.609,-0.771 -1.552,-0.958 -1.76,-2.026 -0.224,-1.062 0.713,-1.922 0.713,-1.922"
     id="path1209" />
  <path
     style="fill:none;stroke:#231f20;stroke-width:0.565977;stroke-linecap:butt;stroke-linejoin:miter;stroke-miterlimit:4;stroke-dasharray:none;stroke-opacity:1"
     d="m 223.57733,27.721977 c 1.568,-1.63 2.094,-1.734 2.823,-1.115 0.495,0.412 1.084,0.625 1.396,0.86 1.027,0.792 2.437,2.547 5.131,8.547 0.609,1.36 1.478,3.27 1.896,4.021 0.661,1.187 -1.751,1.473 -2.022,1.011 -0.844,-1.486 -1.552,-2.439 -1.932,-2.939 -0.266,-0.333 -0.636,-0.995 -1.818,-2.176 -1.782,-1.792 -3.115,-2.595 -4.427,-4.261 -0.609,-0.771 -1.552,-0.958 -1.76,-2.026 -0.224,-1.062 0.713,-1.922 0.713,-1.922 z"
     id="path1210" />
  <path
     style="fill:#231f20;fill-opacity:1;fill-rule:nonzero;stroke:#231f20;stroke-width:0.565977;stroke-linecap:round;stroke-linejoin:round;stroke-miterlimit:4;stroke-dasharray:none;stroke-opacity:1"
     d="m 223.72833,30.221977 c -1.421,0.016 -2.349,-1.927 -2.609,-2.135 -3.911,-3.147 -4.11,-3.475 -6.911,-6.068 -4.057,-3.755 -6.261,-6.953 -4.767,-9.948 1.022,-2.036 2.486,-2.7650002 3.798,-2.6560002 1.458,0.131 4.136,1.8330002 4.136,4.7190002 l 0.9,1.458 c 0.734,0.906 1.089,1.354 1.485,1.771 0.692,0.729 1.385,1.547 2.656,3.041 2.249,2.642 3.76,6.178 3.76,6.178 0.199,0.24 0.26,0.51 0.256,0.781"
     id="path1211" />
  <path
     style="fill:#0098c9;fill-opacity:1;fill-rule:nonzero;stroke:none"
     d="m 213.86433,9.4719768 c -1.276,-0.328 -2.849,0.151 -4.183,1.9840002 -1.562,2.136 -0.869,4.782 1.156,7.954 l 6.319,-4.594 c 0.489,-2.849 -1.881,-4.9740002 -3.292,-5.3440002"
     id="path1212" />
  <path
     style="fill:none;stroke:#231f20;stroke-width:0.565977;stroke-linecap:butt;stroke-linejoin:miter;stroke-miterlimit:4;stroke-dasharray:none;stroke-opacity:1"
     d="m 213.86433,9.4719768 c -1.276,-0.328 -2.849,0.151 -4.183,1.9840002 -1.562,2.136 -0.869,4.782 1.156,7.954 l 6.319,-4.594 c 0.489,-2.849 -1.881,-4.9740002 -3.292,-5.3440002 z"
     id="path1213" />
  <path
     style="fill:#231f20;fill-opacity:1;fill-rule:nonzero;stroke:none"
     d="m 236.48933,41.315977 c 0.328,-1.308 -0.48,-1.881 -1.516,-1.786 -0.308,0.03 -0.604,-0.271 -0.901,-0.219 -0.688,0.124 -1.64,1.588 -0.631,2.692 0.074,0.073 0.428,0.818 0.772,1.322 0.676,1.011 2.526,2.688 5.223,2.538 1.276,-0.074 0.996,-0.814 0.475,-0.938 -1.672,-0.406 -1.735,-0.766 -2.136,-1.032 -1.354,-0.885 -1.286,-2.577 -1.286,-2.577"
     id="path1214" />
  <path
     style="fill:none;stroke:#231f20;stroke-width:0.332927;stroke-linecap:butt;stroke-linejoin:miter;stroke-miterlimit:4;stroke-dasharray:none;stroke-opacity:1"
     d="m 236.48933,41.315977 c 0.328,-1.308 -0.48,-1.881 -1.516,-1.786 -0.308,0.03 -0.604,-0.271 -0.901,-0.219 -0.688,0.124 -1.64,1.588 -0.631,2.692 0.074,0.073 0.428,0.818 0.772,1.322 0.676,1.011 2.526,2.688 5.223,2.538 1.276,-0.074 0.996,-0.814 0.475,-0.938 -1.672,-0.406 -1.735,-0.766 -2.136,-1.032 -1.354,-0.885 -1.286,-2.577 -1.286,-2.577 z"
     id="path1215" />
  <path
     style="fill:#ffffff;fill-opacity:1;fill-rule:nonzero;stroke:none"
     d="m 73.551334,50.200977 c -0.943,0.406 -1.385,1.495 -0.984,2.438 0.401,0.948 1.495,1.39 2.443,0.989 0.942,-0.407 1.385,-1.5 0.98,-2.443 -0.402,-0.948 -1.496,-1.385 -2.439,-0.984"
     id="path1216" />
  <path
     style="fill:none;stroke:#231f20;stroke-width:1.33171;stroke-linecap:butt;stroke-linejoin:miter;stroke-miterlimit:4;stroke-dasharray:none;stroke-opacity:1"
     d="m 73.551334,50.200977 c -0.943,0.406 -1.385,1.495 -0.984,2.438 0.401,0.948 1.495,1.39 2.443,0.989 0.942,-0.407 1.385,-1.5 0.98,-2.443 -0.402,-0.948 -1.496,-1.385 -2.439,-0.984 z"
     id="path1217" />
  <path
     style="fill:#ffffff;fill-opacity:1;fill-rule:nonzero;stroke:none"
     d="m 88.275334,50.200977 c -0.943,0.406 -1.385,1.495 -0.984,2.438 0.407,0.948 1.5,1.39 2.443,0.989 0.942,-0.407 1.385,-1.5 0.978,-2.443 -0.4,-0.948 -1.494,-1.385 -2.437,-0.984"
     id="path1218" />
  <path
     style="fill:none;stroke:#231f20;stroke-width:1.33171;stroke-linecap:butt;stroke-linejoin:miter;stroke-miterlimit:4;stroke-dasharray:none;stroke-opacity:1"
     d="m 88.275334,50.200977 c -0.943,0.406 -1.385,1.495 -0.984,2.438 0.407,0.948 1.5,1.39 2.443,0.989 0.942,-0.407 1.385,-1.5 0.978,-2.443 -0.4,-0.948 -1.494,-1.385 -2.437,-0.984 z"
     id="path1219" />
  <path
     style="fill:#ffffff;fill-opacity:1;fill-rule:nonzero;stroke:none"
     d="m 100.10833,50.200977 c -0.941996,0.406 -1.384996,1.495 -0.977996,2.438 0.401,0.948 1.493996,1.39 2.436996,0.989 0.948,-0.407 1.391,-1.5 0.984,-2.443 -0.405,-0.948 -1.5,-1.385 -2.443,-0.984"
     id="path1220" />
  <path
     style="fill:none;stroke:#231f20;stroke-width:1.33171;stroke-linecap:butt;stroke-linejoin:miter;stroke-miterlimit:4;stroke-dasharray:none;stroke-opacity:1"
     d="m 100.10833,50.200977 c -0.941996,0.406 -1.384996,1.495 -0.977996,2.438 0.401,0.948 1.493996,1.39 2.436996,0.989 0.948,-0.407 1.391,-1.5 0.984,-2.443 -0.405,-0.948 -1.5,-1.385 -2.443,-0.984 z"
     id="path1221" />
  <path
     style="fill:#ffffff;fill-opacity:1;fill-rule:nonzero;stroke:none"
     d="m 201.69733,50.200977 c -0.942,0.406 -1.38,1.495 -0.98,2.438 0.402,0.948 1.496,1.39 2.439,0.989 0.947,-0.407 1.391,-1.5 0.984,-2.443 -0.401,-0.948 -1.495,-1.385 -2.443,-0.984"
     id="path1222" />
  <path
     style="fill:none;stroke:#231f20;stroke-width:1.33171;stroke-linecap:butt;stroke-linejoin:miter;stroke-miterlimit:4;stroke-dasharray:none;stroke-opacity:1"
     d="m 201.69733,50.200977 c -0.942,0.406 -1.38,1.495 -0.98,2.438 0.402,0.948 1.496,1.39 2.439,0.989 0.947,-0.407 1.391,-1.5 0.984,-2.443 -0.401,-0.948 -1.495,-1.385 -2.443,-0.984 z"
     id="path1223" />
  <path
     style="fill:#ffffff;fill-opacity:1;fill-rule:nonzero;stroke:none"
     d="m 248.58333,50.200977 c -0.943,0.406 -1.38,1.495 -0.98,2.438 0.401,0.948 1.496,1.39 2.438,0.989 0.944,-0.407 1.394,-1.5 0.984,-2.443 -0.401,-0.948 -1.494,-1.385 -2.442,-0.984"
     id="path1224" />
  <path
     style="fill:none;stroke:#231f20;stroke-width:1.33171;stroke-linecap:butt;stroke-linejoin:miter;stroke-miterlimit:4;stroke-dasharray:none;stroke-opacity:1"
     d="m 248.58333,50.200977 c -0.943,0.406 -1.38,1.495 -0.98,2.438 0.401,0.948 1.496,1.39 2.438,0.989 0.944,-0.407 1.394,-1.5 0.984,-2.443 -0.401,-0.948 -1.494,-1.385 -2.442,-0.984 z"
     id="path1225" />
  <path
     style="fill:#ffffff;fill-opacity:1;fill-rule:nonzero;stroke:none"
     d="m 329.80533,50.200977 c -0.95,0.406 -1.38,1.495 -0.98,2.438 0.4,0.948 1.49,1.39 2.43,0.989 0.95,-0.407 1.4,-1.5 0.99,-2.443 -0.4,-0.948 -1.5,-1.385 -2.44,-0.984"
     id="path1226" />
  <path
     style="fill:none;stroke:#231f20;stroke-width:1.33171;stroke-linecap:butt;stroke-linejoin:miter;stroke-miterlimit:4;stroke-dasharray:none;stroke-opacity:1"
     d="m 329.80533,50.200977 c -0.95,0.406 -1.38,1.495 -0.98,2.438 0.4,0.948 1.49,1.39 2.43,0.989 0.95,-0.407 1.4,-1.5 0.99,-2.443 -0.4,-0.948 -1.5,-1.385 -2.44,-0.984 z"
     id="path1227" />
  <path
     style="fill:#ffffff;fill-opacity:1;fill-rule:nonzero;stroke:none"
     d="m 343.72533,50.200977 c -0.94,0.406 -1.38,1.495 -0.98,2.438 0.4,0.948 1.5,1.39 2.44,0.989 0.94,-0.407 1.39,-1.5 0.98,-2.443 -0.4,-0.948 -1.49,-1.385 -2.44,-0.984"
     id="path1228" />
  <path
     style="fill:none;stroke:#231f20;stroke-width:1.33171;stroke-linecap:butt;stroke-linejoin:miter;stroke-miterlimit:4;stroke-dasharray:none;stroke-opacity:1"
     d="m 343.72533,50.200977 c -0.94,0.406 -1.38,1.495 -0.98,2.438 0.4,0.948 1.5,1.39 2.44,0.989 0.94,-0.407 1.39,-1.5 0.98,-2.443 -0.4,-0.948 -1.49,-1.385 -2.44,-0.984 z"
     id="path1229" />
</svg>
