<?xml version="1.0" encoding="UTF-8" standalone="no"?>
<!-- Created with Inkscape (http://www.inkscape.org/) -->

<svg
   version="1.1"
   id="svg1"
   width="342.0585"
   height="138.94814"
   viewBox="0 0 342.05848 138.94813"
   sodipodi:docname="cell.svg"
   xmlns:inkscape="http://www.inkscape.org/namespaces/inkscape"
   xmlns:sodipodi="http://sodipodi.sourceforge.net/DTD/sodipodi-0.dtd"
   xmlns="http://www.w3.org/2000/svg"
   xmlns:svg="http://www.w3.org/2000/svg">
  <sodipodi:namedview
     id="namedview1"
     pagecolor="#ffffff"
     bordercolor="#000000"
     borderopacity="0.25"
     inkscape:showpageshadow="2"
     inkscape:pageopacity="0.0"
     inkscape:pagecheckerboard="0"
     inkscape:deskcolor="#d1d1d1">
    <inkscape:page
       x="1.025608e-13"
       y="7.7544028e-15"
       inkscape:label="1"
       id="page1"
       width="342.05847"
       height="138.94814"
       margin="0"
       bleed="0" />
  </sodipodi:namedview>
  <defs
     id="defs1" />
  <path
     style="fill:#231f20;fill-opacity:1;fill-rule:nonzero;stroke:none"
     d="m 336.29685,60.804409 c -0.542,-1.24 -1.532,-1.1934 -2.292,-0.4894 -0.23,0.2027 -0.64,0.1507 -0.844,0.3747 -0.474,0.52 -0.339,2.2547 1.141,2.516 0.099,0.0147 0.828,0.3907 1.421,0.5827 1.151,0.3853 3.636,0.588 5.678,-1.1827 0.967,-0.828 0.297,-1.244 -0.199,-1.0253 -1.561,0.692 -1.837,0.448 -2.312,0.484 -1.62,0.1146 -2.593,-1.26 -2.593,-1.26"
     id="path473" />
  <path
     style="fill:none;stroke:#231f20;stroke-width:0.332927;stroke-linecap:butt;stroke-linejoin:miter;stroke-miterlimit:4;stroke-dasharray:none;stroke-opacity:1"
     d="m 336.29685,60.804409 c -0.542,-1.24 -1.532,-1.1934 -2.292,-0.4894 -0.23,0.2027 -0.64,0.1507 -0.844,0.3747 -0.474,0.52 -0.339,2.2547 1.141,2.516 0.099,0.0147 0.828,0.3907 1.421,0.5827 1.151,0.3853 3.636,0.588 5.678,-1.1827 0.967,-0.828 0.297,-1.244 -0.199,-1.0253 -1.561,0.692 -1.837,0.448 -2.312,0.484 -1.62,0.1146 -2.593,-1.26 -2.593,-1.26 z"
     id="path474" />
  <path
     style="fill:#231f20;fill-opacity:1;fill-rule:nonzero;stroke:none"
     d="m 317.76985,57.908409 c 0.251,-2.2507 0.599,-2.656 1.557,-2.6093 0.647,0.0253 1.24,-0.1667 1.631,-0.1667 1.301,0 3.479,0.5253 9.281,3.64 1.312,0.7093 3.162,1.6933 3.959,2.032 1.239,0.536 -0.496,2.244 -0.985,2.0306 -1.588,-0.656 -2.724,-0.984 -3.323,-1.14 -0.416,-0.1146 -1.12,-0.4066 -2.771,-0.6253 -2.505,-0.3333 -4.052,-0.156 -6.104,-0.672 -0.953,-0.24 -1.822,0.188 -2.636,-0.5307 -0.822,-0.7146 -0.609,-1.9586 -0.609,-1.9586"
     id="path475" />
  <path
     style="fill:none;stroke:#231f20;stroke-width:0.565977;stroke-linecap:butt;stroke-linejoin:miter;stroke-miterlimit:4;stroke-dasharray:none;stroke-opacity:1"
     d="m 317.76985,57.908409 c 0.251,-2.2507 0.599,-2.656 1.557,-2.6093 0.647,0.0253 1.24,-0.1667 1.631,-0.1667 1.301,0 3.479,0.5253 9.281,3.64 1.312,0.7093 3.162,1.6933 3.959,2.032 1.239,0.536 -0.496,2.244 -0.985,2.0306 -1.588,-0.656 -2.724,-0.984 -3.323,-1.14 -0.416,-0.1146 -1.12,-0.4066 -2.771,-0.6253 -2.505,-0.3333 -4.052,-0.156 -6.104,-0.672 -0.953,-0.24 -1.822,0.188 -2.636,-0.5307 -0.822,-0.7146 -0.609,-1.9586 -0.609,-1.9586 z"
     id="path476" />
  <path
     style="fill:#0098c9;fill-opacity:1;fill-rule:nonzero;stroke:none"
     d="m 292.09285,50.257709 c 3.136,0.0614 3.813,-0.2666 4.666,-0.6146 5.36,-2.1667 6.33,0.5053 5.746,3.3333 -0.672,3.3227 -0.844,4.5253 -7.104,3.812 -1.74,-0.208 -8.511,-0.104 -8.511,-0.104 -2.421,0.364 -4.973,-0.5733 -5.771,-1.792 -0.833,-1.2867 -0.406,-0.8333 -0.964,-2.1667 -0.536,-1.2706 -0.238,-3.4373 0.803,-4.104 1,-0.64 2.489,0.1094 4.781,0.912 1.802,0.624 6.354,0.724 6.354,0.724"
     id="path477" />
  <path
     style="fill:none;stroke:#231f20;stroke-width:0.565977;stroke-linecap:butt;stroke-linejoin:miter;stroke-miterlimit:4;stroke-dasharray:none;stroke-opacity:1"
     d="m 292.09285,50.257709 c 3.136,0.0614 3.813,-0.2666 4.666,-0.6146 5.36,-2.1667 6.33,0.5053 5.746,3.3333 -0.672,3.3227 -0.844,4.5253 -7.104,3.812 -1.74,-0.208 -8.511,-0.104 -8.511,-0.104 -2.421,0.364 -4.973,-0.5733 -5.771,-1.792 -0.833,-1.2867 -0.406,-0.8333 -0.964,-2.1667 -0.536,-1.2706 -0.238,-3.4373 0.803,-4.104 1,-0.64 2.489,0.1094 4.781,0.912 1.802,0.624 6.354,0.724 6.354,0.724 z"
     id="path478" />
  <path
     style="fill:#ffffff;fill-opacity:1;fill-rule:nonzero;stroke:none"
     d="m 273.10285,52.845709 c -0.234,-0.068 -0.822,0.912 -1.286,0.6827 -0.474,-0.2347 -0.312,-1 -1.542,-2.568 l -0.016,-0.016 c -0.937,-1.1147 -1.296,-2.4533 -0.828,-3.62 0.771,-1.9267 3.522,-2.6347 6.147,-1.5827 2.615,1.052 4.115,3.468 3.344,5.396 -0.735,1.844 -3.303,2.572 -5.819,1.708"
     id="path479" />
  <path
     style="fill:none;stroke:#231f20;stroke-width:0.565977;stroke-linecap:butt;stroke-linejoin:miter;stroke-miterlimit:4;stroke-dasharray:none;stroke-opacity:1"
     d="m 273.10285,52.845709 c -0.234,-0.068 -0.822,0.912 -1.286,0.6827 -0.474,-0.2347 -0.312,-1 -1.542,-2.568 l -0.016,-0.016 c -0.937,-1.1147 -1.296,-2.4533 -0.828,-3.62 0.771,-1.9267 3.522,-2.6347 6.147,-1.5827 2.615,1.052 4.115,3.468 3.344,5.396 -0.735,1.844 -3.303,2.572 -5.819,1.708 z"
     id="path480" />
  <path
     style="fill:#231f20;fill-opacity:1;fill-rule:nonzero;stroke:none"
     d="m 320.21785,57.616409 c -0.099,4.0106 -3.697,2.084 -4.177,2.0733 -5.01,-0.1093 -5.364,-0.24 -9.176,-0.5893 -5.5,-0.504 -9.194,-1.6973 -9.834,-4.9787 -0.438,-2.2346 0.276,-3.7133 1.386,-4.4213 1.233,-0.7867 4.394,-1.0733 6.156,1.2187 l 1.598,0.604 c 1.136,0.2706 1.694,0.4106 2.255,0.5 0.996,0.1506 2.048,0.38 3.959,0.7866 3.401,0.7294 6.75,2.604 6.75,2.604 1.214,0.2867 1.083,2.2027 1.083,2.2027"
     id="path481" />
  <path
     style="fill:none;stroke:#231f20;stroke-width:0.565977;stroke-linecap:butt;stroke-linejoin:miter;stroke-miterlimit:4;stroke-dasharray:none;stroke-opacity:1"
     d="m 320.21785,57.616409 c -0.099,4.0106 -3.697,2.084 -4.177,2.0733 -5.01,-0.1093 -5.364,-0.24 -9.176,-0.5893 -5.5,-0.504 -9.194,-1.6973 -9.834,-4.9787 -0.438,-2.2346 0.276,-3.7133 1.386,-4.4213 1.233,-0.7867 4.394,-1.0733 6.156,1.2187 l 1.598,0.604 c 1.136,0.2706 1.694,0.4106 2.255,0.5 0.996,0.1506 2.048,0.38 3.959,0.7866 3.401,0.7294 6.75,2.604 6.75,2.604 1.214,0.2867 1.083,2.2027 1.083,2.2027 z"
     id="path482" />
  <path
     style="fill:#0098c9;fill-opacity:1;fill-rule:nonzero;stroke:#231f20;stroke-width:0.565977;stroke-linecap:butt;stroke-linejoin:miter;stroke-miterlimit:4;stroke-dasharray:none;stroke-opacity:1"
     d="m 304.81085,51.591109 c -1.348,-2.5574 -4.525,-2.792 -5.869,-2.224 -1.208,0.5146 -2.161,1.8533 -2.099,4.1186 0.031,1.4747 0.74,2.636 1.954,3.6094 0.65,0.8133 1.062,1.2866 1.874,1.2559 0.068,0 0.146,0.0107 0.224,0.016 0.531,0.2547 1.088,0.4947 1.708,0.7187 z"
     id="path483" />
  <path
     style="fill:#231f20;fill-opacity:1;fill-rule:nonzero;stroke:none"
     d="m 282.26985,71.007009 c 0.412,-0.4946 0.36,-2.4426 0.943,-3.9426 0.39,-1.0107 0.25,-3.7547 0.713,-4.7347 0.428,-0.8907 0.537,-1.344 -0.405,-2.0053 -0.558,-0.3907 -1.886,-0.7907 -2.199,-0.3854 -0.729,0.9374 -0.968,1.8547 -1.02,2.9227 -0.057,1.2133 0.077,4.52 0.156,5.124 0.208,1.5107 -0.167,2.1467 -0.145,2.5533 0.025,0.7653 0.322,0.9373 0.817,1.0253 0.948,0.1614 1.14,-0.5573 1.14,-0.5573"
     id="path484" />
  <path
     style="fill:none;stroke:#231f20;stroke-width:0.565977;stroke-linecap:butt;stroke-linejoin:miter;stroke-miterlimit:4;stroke-dasharray:none;stroke-opacity:1"
     d="m 282.26985,71.007009 c 0.412,-0.4946 0.36,-2.4426 0.943,-3.9426 0.39,-1.0107 0.25,-3.7547 0.713,-4.7347 0.428,-0.8907 0.537,-1.344 -0.405,-2.0053 -0.558,-0.3907 -1.886,-0.7907 -2.199,-0.3854 -0.729,0.9374 -0.968,1.8547 -1.02,2.9227 -0.057,1.2133 0.077,4.52 0.156,5.124 0.208,1.5107 -0.167,2.1467 -0.145,2.5533 0.025,0.7653 0.322,0.9373 0.817,1.0253 0.948,0.1614 1.14,-0.5573 1.14,-0.5573 z"
     id="path485" />
  <path
     style="fill:#231f20;fill-opacity:1;fill-rule:nonzero;stroke:none"
     d="m 283.33785,62.012409 c 1.292,0.0106 0.937,-1.9947 0.927,-2.5307 -0.015,-0.548 0.125,-2.1 0.39,-3.2866 0.262,-1.1987 0.079,-2.808 0.579,-5.0787 0.255,-1.192 -0.245,-2.5253 -1.995,-2.828 -1.729,-0.2973 -2.546,0.5627 -2.646,2.052 -0.099,1.4893 0.438,2.9373 0.442,4.448 0.011,1.516 -0.124,3.0573 -0.285,4.26 -0.188,1.3706 0.233,2.1093 0.645,2.36 1.027,0.6093 1.943,0.604 1.943,0.604"
     id="path486" />
  <path
     style="fill:none;stroke:#231f20;stroke-width:0.565977;stroke-linecap:butt;stroke-linejoin:miter;stroke-miterlimit:4;stroke-dasharray:none;stroke-opacity:1"
     d="m 283.33785,62.012409 c 1.292,0.0106 0.937,-1.9947 0.927,-2.5307 -0.015,-0.548 0.125,-2.1 0.39,-3.2866 0.262,-1.1987 0.079,-2.808 0.579,-5.0787 0.255,-1.192 -0.245,-2.5253 -1.995,-2.828 -1.729,-0.2973 -2.546,0.5627 -2.646,2.052 -0.099,1.4893 0.438,2.9373 0.442,4.448 0.011,1.516 -0.124,3.0573 -0.285,4.26 -0.188,1.3706 0.233,2.1093 0.645,2.36 1.027,0.6093 1.943,0.604 1.943,0.604 z"
     id="path487" />
  <path
     style="fill:#231f20;fill-opacity:1;fill-rule:nonzero;stroke:none"
     d="m 2.9478566,5.3298088 c -0.635,1.1987 0.016,1.9427 1.041,2.0987 0.303,0.048 0.516,0.4013 0.819,0.428 0.703,0.0467 1.979,-1.1413 1.26,-2.4587 -0.052,-0.0933 -0.213,-0.896 -0.432,-1.4786 -0.417,-1.136 -1.808,-3.20930003 -4.459,-3.70930003 -1.25399993,-0.2334 -1.16099993,0.548 -0.68199993,0.80260003 1.52099993,0.7867 1.49399993,1.1507 1.81799993,1.5107 1.104,1.1867 0.635,2.8066 0.635,2.8066"
     id="path488" />
  <path
     style="fill:none;stroke:#231f20;stroke-width:0.332927;stroke-linecap:butt;stroke-linejoin:miter;stroke-miterlimit:4;stroke-dasharray:none;stroke-opacity:1"
     d="m 2.9478566,5.3298088 c -0.635,1.1987 0.016,1.9427 1.041,2.0987 0.303,0.048 0.516,0.4013 0.819,0.428 0.703,0.0467 1.979,-1.1413 1.26,-2.4587 -0.052,-0.0933 -0.213,-0.896 -0.432,-1.4786 -0.417,-1.136 -1.808,-3.20930003 -4.459,-3.70930003 -1.25399993,-0.2334 -1.16099993,0.548 -0.68199993,0.80260003 1.52099993,0.7867 1.49399993,1.1507 1.81799993,1.5107 1.104,1.1867 0.635,2.8066 0.635,2.8066 z"
     id="path489" />
  <path
     style="fill:#231f20;fill-opacity:1;fill-rule:nonzero;stroke:none"
     d="m 12.223856,21.627109 c -1.916,1.208 -2.4529994,1.188 -3.0159994,0.4067 -0.375,-0.5213 -0.9,-0.8707 -1.145,-1.172 -0.807,-1.016 -1.755,-3.052 -2.932,-9.532 -0.262,-1.4626002 -0.652,-3.5200002 -0.875,-4.3533002 -0.355,-1.308 2.061,-1.016 2.203,-0.5 0.468,1.6453 0.921,2.744 1.177,3.312 0.167,0.3960002 0.375,1.1307002 1.233,2.5573002 1.3029994,2.1614 2.4069994,3.2654 3.2819994,5.1974 0.401,0.8906 1.276,1.3079 1.224,2.3866 -0.042,1.088 -1.151,1.6973 -1.151,1.6973"
     id="path490" />
  <path
     style="fill:none;stroke:#231f20;stroke-width:0.565977;stroke-linecap:butt;stroke-linejoin:miter;stroke-miterlimit:4;stroke-dasharray:none;stroke-opacity:1"
     d="m 12.223856,21.627109 c -1.916,1.208 -2.4529994,1.188 -3.0159994,0.4067 -0.375,-0.5213 -0.9,-0.8707 -1.145,-1.172 -0.807,-1.016 -1.755,-3.052 -2.932,-9.532 -0.262,-1.4626002 -0.652,-3.5200002 -0.875,-4.3533002 -0.355,-1.308 2.061,-1.016 2.203,-0.5 0.468,1.6453 0.921,2.744 1.177,3.312 0.167,0.3960002 0.375,1.1307002 1.233,2.5573002 1.3029994,2.1614 2.4069994,3.2654 3.2819994,5.1974 0.401,0.8906 1.276,1.3079 1.224,2.3866 -0.042,1.088 -1.151,1.6973 -1.151,1.6973 z"
     id="path491" />
  <path
     style="fill:#0098c9;fill-opacity:1;fill-rule:nonzero;stroke:none"
     d="m 22.234856,46.471109 c -1.902,-2.4853 -2.584,-2.8133 -3.386,-3.2613 -5.037,-2.8427 -3.541,-5.2654 -0.974,-6.572 3.016,-1.5427 4.068,-2.156 7.406,3.1813 0.927,1.4853 5.23,6.72 5.23,6.72 1.792,1.6666 2.65,4.244 2.188,5.624 -0.486,1.4586 -0.396,0.844 -1.09,2.1146 -0.661,1.208 -2.541,2.328 -3.713,1.928 -1.12,-0.3866 -1.464,-2.016 -2.265,-4.308 -0.636,-1.8026 -3.396,-5.4266 -3.396,-5.4266"
     id="path492" />
  <path
     style="fill:none;stroke:#231f20;stroke-width:0.565977;stroke-linecap:butt;stroke-linejoin:miter;stroke-miterlimit:4;stroke-dasharray:none;stroke-opacity:1"
     d="m 22.234856,46.471109 c -1.902,-2.4853 -2.584,-2.8133 -3.386,-3.2613 -5.037,-2.8427 -3.541,-5.2654 -0.974,-6.572 3.016,-1.5427 4.068,-2.156 7.406,3.1813 0.927,1.4853 5.23,6.72 5.23,6.72 1.792,1.6666 2.65,4.244 2.188,5.624 -0.486,1.4586 -0.396,0.844 -1.09,2.1146 -0.661,1.208 -2.541,2.328 -3.713,1.928 -1.12,-0.3866 -1.464,-2.016 -2.265,-4.308 -0.636,-1.8026 -3.396,-5.4266 -3.396,-5.4266 z"
     id="path493" />
  <path
     style="fill:#ffffff;fill-opacity:1;fill-rule:nonzero;stroke:none"
     d="m 35.583856,60.345709 c 0.067,0.24 1.213,0.24 1.249,0.76 0.047,0.5267 -0.702,0.776 -1.416,2.636 l -0.005,0.02 c -0.475,1.376 -1.437,2.376 -2.677,2.5733 -2.052,0.3227 -4.074,-1.6773 -4.511,-4.4626 -0.448,-2.792 0.86,-5.3133 2.912,-5.636 1.957,-0.3173 3.9,1.5053 4.448,4.1093"
     id="path494" />
  <path
     style="fill:none;stroke:#231f20;stroke-width:0.565977;stroke-linecap:butt;stroke-linejoin:miter;stroke-miterlimit:4;stroke-dasharray:none;stroke-opacity:1"
     d="m 35.583856,60.345709 c 0.067,0.24 1.213,0.24 1.249,0.76 0.047,0.5267 -0.702,0.776 -1.416,2.636 l -0.005,0.02 c -0.475,1.376 -1.437,2.376 -2.677,2.5733 -2.052,0.3227 -4.074,-1.6773 -4.511,-4.4626 -0.448,-2.792 0.86,-5.3133 2.912,-5.636 1.957,-0.3173 3.9,1.5053 4.448,4.1093 z"
     id="path495" />
  <path
     style="fill:#231f20;fill-opacity:1;fill-rule:nonzero;stroke:none"
     d="m 10.468856,19.892509 c 3.198,-2.416 3.938,1.5933 4.23,1.9746 3.03,3.9894 3.15,4.348 5.249,7.5467 3.036,4.62 4.407,8.2493 2.235,10.796 -1.475,1.7293 -3.079,2.0893 -4.318,1.6666 -1.381,-0.468 -3.584,-2.7653 -2.885,-5.572 l -0.521,-1.6306 c -0.495,-1.052 -0.735,-1.5787 -1.022,-2.0734 -0.494,-0.8693 -0.973,-1.8333 -1.848,-3.5826 -1.548,-3.1147 -2.1659994,-6.9067 -2.1659994,-6.9067 -0.532,-1.1253 1.0459994,-2.2186 1.0459994,-2.2186"
     id="path496" />
  <path
     style="fill:none;stroke:#231f20;stroke-width:0.565977;stroke-linecap:butt;stroke-linejoin:miter;stroke-miterlimit:4;stroke-dasharray:none;stroke-opacity:1"
     d="m 10.468856,19.892509 c 3.198,-2.416 3.938,1.5933 4.23,1.9746 3.03,3.9894 3.15,4.348 5.249,7.5467 3.036,4.62 4.407,8.2493 2.235,10.796 -1.475,1.7293 -3.079,2.0893 -4.318,1.6666 -1.381,-0.468 -3.584,-2.7653 -2.885,-5.572 l -0.521,-1.6306 c -0.495,-1.052 -0.735,-1.5787 -1.022,-2.0734 -0.494,-0.8693 -0.973,-1.8333 -1.848,-3.5826 -1.548,-3.1147 -2.1659994,-6.9067 -2.1659994,-6.9067 -0.532,-1.1253 1.0459994,-2.2186 1.0459994,-2.2186 z"
     id="path497" />
  <path
     style="fill:#0098c9;fill-opacity:1;fill-rule:nonzero;stroke:none"
     d="m 23.223856,34.725809 c -0.041,-0.0574 -0.083,-0.12 -0.125,-0.1867 -0.135,-0.5733 -0.296,-1.1627 -0.506,-1.7813 l -7.238,2.9373 c -1.156,2.6507 0.634,5.2813 1.916,5.9787 1.156,0.6253 2.797,0.536 4.537,-0.9214 1.129,-0.948 1.599,-2.2293 1.599,-3.7866 0.234,-1.0054 0.344,-1.6307 -0.183,-2.24"
     id="path498" />
  <path
     style="fill:none;stroke:#231f20;stroke-width:0.565977;stroke-linecap:butt;stroke-linejoin:miter;stroke-miterlimit:4;stroke-dasharray:none;stroke-opacity:1"
     d="m 23.223856,34.725809 c -0.041,-0.0574 -0.083,-0.12 -0.125,-0.1867 -0.135,-0.5733 -0.296,-1.1627 -0.506,-1.7813 l -7.238,2.9373 c -1.156,2.6507 0.634,5.2813 1.916,5.9787 1.156,0.6253 2.797,0.536 4.537,-0.9214 1.129,-0.948 1.599,-2.2293 1.599,-3.7866 0.234,-1.0054 0.344,-1.6307 -0.183,-2.24 z"
     id="path499" />
  <path
     style="fill:#231f20;fill-opacity:1;fill-rule:nonzero;stroke:none"
     d="m 39.312856,70.652409 c 0.072,-0.64 -1.042,-2.2387 -1.381,-3.8067 -0.233,-1.0627 -1.859,-3.2707 -2.009,-4.3493 -0.136,-0.9787 -0.298,-1.4214 -1.448,-1.4534 -0.683,-0.02 -2.011,0.3814 -2.048,0.8907 -0.094,1.188 0.209,2.0893 0.756,3.0053 0.625,1.0427 2.557,3.7294 2.958,4.1934 1.004,1.14 1.042,1.88 1.276,2.2079 0.443,0.6147 0.796,0.5987 1.255,0.4014 0.88,-0.3854 0.641,-1.0893 0.641,-1.0893"
     id="path500" />
  <path
     style="fill:none;stroke:#231f20;stroke-width:0.565977;stroke-linecap:butt;stroke-linejoin:miter;stroke-miterlimit:4;stroke-dasharray:none;stroke-opacity:1"
     d="m 39.312856,70.652409 c 0.072,-0.64 -1.042,-2.2387 -1.381,-3.8067 -0.233,-1.0627 -1.859,-3.2707 -2.009,-4.3493 -0.136,-0.9787 -0.298,-1.4214 -1.448,-1.4534 -0.683,-0.02 -2.011,0.3814 -2.048,0.8907 -0.094,1.188 0.209,2.0893 0.756,3.0053 0.625,1.0427 2.557,3.7294 2.958,4.1934 1.004,1.14 1.042,1.88 1.276,2.2079 0.443,0.6147 0.796,0.5987 1.255,0.4014 0.88,-0.3854 0.641,-1.0893 0.641,-1.0893 z"
     id="path501" />
  <path
     style="fill:#231f20;fill-opacity:1;fill-rule:nonzero;stroke:none"
     d="m 35.250856,62.559009 c 1.088,-0.7026 -0.319,-2.1826 -0.626,-2.6293 -0.312,-0.448 -1.046,-1.8133 -1.484,-2.9533 -0.442,-1.1467 -1.474,-2.3853 -2.313,-4.5573 -0.443,-1.1414 -1.588,-1.9694 -3.219,-1.2614 -1.604,0.704 -1.817,1.8707 -1.077,3.172 0.739,1.2974 1.984,2.2094 2.823,3.464 0.838,1.26 1.572,2.62 2.098,3.7133 0.604,1.2454 1.364,1.6414 1.844,1.6147 1.192,-0.052 1.954,-0.5627 1.954,-0.5627"
     id="path502" />
  <path
     style="fill:none;stroke:#231f20;stroke-width:0.565977;stroke-linecap:butt;stroke-linejoin:miter;stroke-miterlimit:4;stroke-dasharray:none;stroke-opacity:1"
     d="m 35.250856,62.559009 c 1.088,-0.7026 -0.319,-2.1826 -0.626,-2.6293 -0.312,-0.448 -1.046,-1.8133 -1.484,-2.9533 -0.442,-1.1467 -1.474,-2.3853 -2.313,-4.5573 -0.443,-1.1414 -1.588,-1.9694 -3.219,-1.2614 -1.604,0.704 -1.817,1.8707 -1.077,3.172 0.739,1.2974 1.984,2.2094 2.823,3.464 0.838,1.26 1.572,2.62 2.098,3.7133 0.604,1.2454 1.364,1.6414 1.844,1.6147 1.192,-0.052 1.954,-0.5627 1.954,-0.5627 z"
     id="path503" />
  <path
     style="fill:#231f20;fill-opacity:1;fill-rule:nonzero;stroke:none"
     d="m 142.14485,130.27771 c 0.319,-1.317 -0.495,-1.875 -1.525,-1.776 -0.312,0.027 -0.604,-0.265 -0.902,-0.213 -0.692,0.13 -1.64,1.593 -0.614,2.688 0.073,0.082 0.428,0.822 0.776,1.333 0.688,1 2.542,2.661 5.234,2.494 1.276,-0.078 0.995,-0.813 0.47,-0.942 -1.667,-0.391 -1.735,-0.751 -2.136,-1.016 -1.359,-0.88 -1.303,-2.568 -1.303,-2.568"
     id="path504" />
  <path
     style="fill:none;stroke:#231f20;stroke-width:0.332927;stroke-linecap:butt;stroke-linejoin:miter;stroke-miterlimit:4;stroke-dasharray:none;stroke-opacity:1"
     d="m 142.14485,130.27771 c 0.319,-1.317 -0.495,-1.875 -1.525,-1.776 -0.312,0.027 -0.604,-0.265 -0.902,-0.213 -0.692,0.13 -1.64,1.593 -0.614,2.688 0.073,0.082 0.428,0.822 0.776,1.333 0.688,1 2.542,2.661 5.234,2.494 1.276,-0.078 0.995,-0.813 0.47,-0.942 -1.667,-0.391 -1.735,-0.751 -2.136,-1.016 -1.359,-0.88 -1.303,-2.568 -1.303,-2.568 z"
     id="path505" />
  <path
     style="fill:#231f20;fill-opacity:1;fill-rule:nonzero;stroke:none"
     d="m 129.14485,116.76171 c 1.563,-1.64 2.084,-1.749 2.824,-1.129 0.489,0.406 1.088,0.614 1.4,0.853 1.027,0.781 2.448,2.527 5.183,8.511 0.609,1.36 1.494,3.261 1.922,4.005 0.667,1.183 -1.75,1.495 -2.016,1.032 -0.86,-1.485 -1.568,-2.433 -1.953,-2.928 -0.26,-0.333 -0.645,-0.995 -1.828,-2.172 -1.792,-1.776 -3.131,-2.572 -4.453,-4.228 -0.61,-0.761 -1.563,-0.948 -1.776,-2.016 -0.23,-1.063 0.697,-1.928 0.697,-1.928"
     id="path506" />
  <path
     style="fill:none;stroke:#231f20;stroke-width:0.565977;stroke-linecap:butt;stroke-linejoin:miter;stroke-miterlimit:4;stroke-dasharray:none;stroke-opacity:1"
     d="m 129.14485,116.76171 c 1.563,-1.64 2.084,-1.749 2.824,-1.129 0.489,0.406 1.088,0.614 1.4,0.853 1.027,0.781 2.448,2.527 5.183,8.511 0.609,1.36 1.494,3.261 1.922,4.005 0.667,1.183 -1.75,1.495 -2.016,1.032 -0.86,-1.485 -1.568,-2.433 -1.953,-2.928 -0.26,-0.333 -0.645,-0.995 -1.828,-2.172 -1.792,-1.776 -3.131,-2.572 -4.453,-4.228 -0.61,-0.761 -1.563,-0.948 -1.776,-2.016 -0.23,-1.063 0.697,-1.928 0.697,-1.928 z"
     id="path507" />
  <path
     style="fill:#0098c9;fill-opacity:1;fill-rule:nonzero;stroke:none"
     d="m 113.33285,95.142709 c 2.459,1.943 3.193,2.094 4.084,2.334 5.583,1.514 4.728,4.229001 2.563,6.124001 -2.548,2.24 -3.418,3.094 -7.964,-1.26 -1.26,-1.214 -6.719,-5.230001 -6.719,-5.230001 -2.147,-1.172 -3.615,-3.458 -3.511,-4.91 0.115,-1.532 0.183,-0.918 0.542,-2.314 0.344,-1.338 1.885,-2.885 3.125,-2.781 1.183,0.095 1.916,1.589 3.255,3.615 1.057,1.589 4.625,4.422 4.625,4.422"
     id="path508" />
  <path
     style="fill:none;stroke:#231f20;stroke-width:0.565977;stroke-linecap:butt;stroke-linejoin:miter;stroke-miterlimit:4;stroke-dasharray:none;stroke-opacity:1"
     d="m 113.33285,95.142709 c 2.459,1.943 3.193,2.094 4.084,2.334 5.583,1.514 4.728,4.229001 2.563,6.124001 -2.548,2.24 -3.418,3.094 -7.964,-1.26 -1.26,-1.214 -6.719,-5.230001 -6.719,-5.230001 -2.147,-1.172 -3.615,-3.458 -3.511,-4.91 0.115,-1.532 0.183,-0.918 0.542,-2.314 0.344,-1.338 1.885,-2.885 3.125,-2.781 1.183,0.095 1.916,1.589 3.255,3.615 1.057,1.589 4.625,4.422 4.625,4.422 z"
     id="path509" />
  <path
     style="fill:#ffffff;fill-opacity:1;fill-rule:nonzero;stroke:none"
     d="m 96.983856,84.976709 c -0.124,-0.215 -1.234,0.072 -1.4,-0.423 -0.172,-0.505 0.489,-0.932 0.724,-2.905 v -0.022 c 0.118,-1.453 0.812,-2.656 1.962,-3.15 1.906994,-0.824 4.359994,0.618 5.469994,3.213 1.12,2.593 0.473,5.364 -1.432,6.183 -1.824,0.785 -4.157994,-0.506 -5.323994,-2.896"
     id="path510" />
  <path
     style="fill:none;stroke:#231f20;stroke-width:0.565977;stroke-linecap:butt;stroke-linejoin:miter;stroke-miterlimit:4;stroke-dasharray:none;stroke-opacity:1"
     d="m 96.983856,84.976709 c -0.124,-0.215 -1.234,0.072 -1.4,-0.423 -0.172,-0.505 0.489,-0.932 0.724,-2.905 v -0.022 c 0.118,-1.453 0.812,-2.656 1.962,-3.15 1.906994,-0.824 4.359994,0.618 5.469994,3.213 1.12,2.593 0.473,5.364 -1.432,6.183 -1.824,0.785 -4.157994,-0.506 -5.323994,-2.896 z"
     id="path511" />
  <path
     style="fill:#231f20;fill-opacity:1;fill-rule:nonzero;stroke:none"
     d="m 131.27585,118.01271 c -2.511,3.13 -4.208,-0.574 -4.583,-0.875 -3.928,-3.12 -4.125,-3.437 -6.948,-6.021 -4.079,-3.73 -6.297,-6.911 -4.819,-9.916 1,-2.043001 2.464,-2.782001 3.776,-2.678001 1.454,0.115 4.147,1.802001 4.163,4.692001 l 0.905,1.454 c 0.74,0.896 1.099,1.349 1.5,1.76 0.699,0.724 1.396,1.532 2.672,3.016 2.266,2.636 3.803,6.161 3.803,6.161 0.787,0.959 -0.469,2.407 -0.469,2.407"
     id="path512" />
  <path
     style="fill:none;stroke:#231f20;stroke-width:0.565977;stroke-linecap:butt;stroke-linejoin:miter;stroke-miterlimit:4;stroke-dasharray:none;stroke-opacity:1"
     d="m 131.27585,118.01271 c -2.511,3.13 -4.208,-0.574 -4.583,-0.875 -3.928,-3.12 -4.125,-3.437 -6.948,-6.021 -4.079,-3.73 -6.297,-6.911 -4.819,-9.916 1,-2.043001 2.464,-2.782001 3.776,-2.678001 1.454,0.115 4.147,1.802001 4.163,4.692001 l 0.905,1.454 c 0.74,0.896 1.099,1.349 1.5,1.76 0.699,0.724 1.396,1.532 2.672,3.016 2.266,2.636 3.803,6.161 3.803,6.161 0.787,0.959 -0.469,2.407 -0.469,2.407 z"
     id="path513" />
  <path
     style="fill:#0098c9;fill-opacity:1;fill-rule:nonzero;stroke:none"
     d="m 119.32185,98.574709 c -1.276,-0.322 -2.838,0.167 -4.172,2.011001 -0.858,1.197 -1,2.552 -0.618,4.063 0.025,1.03 0.066,1.661 0.728,2.129 0.057,0.037 0.114,0.095 0.172,0.147 0.27,0.52 0.568,1.052 0.922,1.604 l 6.296,-4.631 c 0.47,-2.855 -1.91,-4.964001 -3.328,-5.323001"
     id="path514" />
  <path
     style="fill:none;stroke:#231f20;stroke-width:0.565977;stroke-linecap:butt;stroke-linejoin:miter;stroke-miterlimit:4;stroke-dasharray:none;stroke-opacity:1"
     d="m 119.32185,98.574709 c -1.276,-0.322 -2.838,0.167 -4.172,2.011001 -0.858,1.197 -1,2.552 -0.618,4.063 0.025,1.03 0.066,1.661 0.728,2.129 0.057,0.037 0.114,0.095 0.172,0.147 0.27,0.52 0.568,1.052 0.922,1.604 l 6.296,-4.631 c 0.47,-2.855 -1.91,-4.964001 -3.328,-5.323001 z"
     id="path515" />
  <path
     style="fill:#231f20;fill-opacity:1;fill-rule:nonzero;stroke:none"
     d="m 90.832856,75.908709 c 0.084,0.634 1.557,1.91 2.276,3.349 0.484,0.973 2.604,2.713 3.016,3.719 0.375,0.916 0.64,1.306 1.76,1.057 0.667,-0.152 1.855,-0.871 1.765,-1.371 -0.202,-1.177 -0.718,-1.968 -1.468,-2.724 -0.865,-0.858 -3.396,-2.989 -3.901,-3.338 -1.255,-0.859 -1.473,-1.567 -1.781,-1.8284 -0.583,-0.4893 -0.916,-0.3853 -1.312,-0.0773 -0.762,0.5877 -0.355,1.2137 -0.355,1.2137"
     id="path516" />
  <path
     style="fill:none;stroke:#231f20;stroke-width:0.565977;stroke-linecap:butt;stroke-linejoin:miter;stroke-miterlimit:4;stroke-dasharray:none;stroke-opacity:1"
     d="m 90.832856,75.908709 c 0.084,0.634 1.557,1.91 2.276,3.349 0.484,0.973 2.604,2.713 3.016,3.719 0.375,0.916 0.64,1.306 1.76,1.057 0.667,-0.152 1.855,-0.871 1.765,-1.371 -0.202,-1.177 -0.718,-1.968 -1.468,-2.724 -0.865,-0.858 -3.396,-2.989 -3.901,-3.338 -1.255,-0.859 -1.473,-1.567 -1.781,-1.8284 -0.583,-0.4893 -0.916,-0.3853 -1.312,-0.0773 -0.762,0.5877 -0.355,1.2137 -0.355,1.2137 z"
     id="path517" />
  <path
     style="fill:#231f20;fill-opacity:1;fill-rule:nonzero;stroke:none"
     d="m 96.759856,82.752709 c -0.88,0.953 0.844,2.036 1.25,2.396 0.412,0.353 1.464,1.5 2.166994,2.5 0.713,1 2.021,1.948 3.364,3.842 0.709,1 2.027,1.522 3.428,0.434 1.385,-1.074 1.301,-2.262 0.265,-3.339 -1.032,-1.079 -2.464,-1.652 -3.588,-2.667 -1.12,-1.01 -2.168,-2.146 -2.948,-3.078 -0.889994,-1.063 -1.723994,-1.255 -2.181994,-1.115 -1.142,0.344 -1.756,1.027 -1.756,1.027"
     id="path518" />
  <path
     style="fill:none;stroke:#231f20;stroke-width:0.565977;stroke-linecap:butt;stroke-linejoin:miter;stroke-miterlimit:4;stroke-dasharray:none;stroke-opacity:1"
     d="m 96.759856,82.752709 c -0.88,0.953 0.844,2.036 1.25,2.396 0.412,0.353 1.464,1.5 2.166994,2.5 0.713,1 2.021,1.948 3.364,3.842 0.709,1 2.027,1.522 3.428,0.434 1.385,-1.074 1.301,-2.262 0.265,-3.339 -1.032,-1.079 -2.464,-1.652 -3.588,-2.667 -1.12,-1.01 -2.168,-2.146 -2.948,-3.078 -0.889994,-1.063 -1.723994,-1.255 -2.181994,-1.115 -1.142,0.344 -1.756,1.027 -1.756,1.027 z"
     id="path519" />
  <path
     style="fill:#231f20;fill-opacity:1;fill-rule:nonzero;stroke:none"
     d="m 39.646856,134.56971 c 1.337,0.208 1.828,-0.651 1.64,-1.672 -0.052,-0.302 0.213,-0.62 0.136,-0.912 -0.188,-0.682 -1.724,-1.5 -2.73,-0.39 -0.078,0.083 -0.781,0.499 -1.261,0.89 -0.943,0.772 -2.443,2.761 -2.047,5.428 0.183,1.265 0.896,0.921 0.98,0.385 0.25,-1.693 0.599,-1.792 0.828,-2.213 0.766,-1.434 2.454,-1.516 2.454,-1.516"
     id="path520" />
  <path
     style="fill:none;stroke:#231f20;stroke-width:0.332927;stroke-linecap:butt;stroke-linejoin:miter;stroke-miterlimit:4;stroke-dasharray:none;stroke-opacity:1"
     d="m 39.646856,134.56971 c 1.337,0.208 1.828,-0.651 1.64,-1.672 -0.052,-0.302 0.213,-0.62 0.136,-0.912 -0.188,-0.682 -1.724,-1.5 -2.73,-0.39 -0.078,0.083 -0.781,0.499 -1.261,0.89 -0.943,0.772 -2.443,2.761 -2.047,5.428 0.183,1.265 0.896,0.921 0.98,0.385 0.25,-1.693 0.599,-1.792 0.828,-2.213 0.766,-1.434 2.454,-1.516 2.454,-1.516 z"
     id="path521" />
  <path
     style="fill:#231f20;fill-opacity:1;fill-rule:nonzero;stroke:none"
     d="m 52.015856,120.47671 c 1.765,1.416 1.916,1.926 1.364,2.713 -0.364,0.525 -0.525,1.14 -0.733,1.468 -0.694,1.095 -2.308,2.657 -8.048,5.885 -1.296,0.724 -3.115,1.767 -3.828,2.256 -1.12,0.76 -1.63,-1.625 -1.192,-1.922 1.405,-0.984 2.29,-1.771 2.749,-2.198 0.313,-0.286 0.943,-0.724 2.011,-2.005 1.62,-1.937 2.302,-3.339 3.838,-4.792 0.708,-0.676 0.818,-1.64 1.859,-1.937 1.037,-0.318 1.98,0.532 1.98,0.532"
     id="path522" />
  <path
     style="fill:none;stroke:#231f20;stroke-width:0.565977;stroke-linecap:butt;stroke-linejoin:miter;stroke-miterlimit:4;stroke-dasharray:none;stroke-opacity:1"
     d="m 52.015856,120.47671 c 1.765,1.416 1.916,1.926 1.364,2.713 -0.364,0.525 -0.525,1.14 -0.733,1.468 -0.694,1.095 -2.308,2.657 -8.048,5.885 -1.296,0.724 -3.115,1.767 -3.828,2.256 -1.12,0.76 -1.63,-1.625 -1.192,-1.922 1.405,-0.984 2.29,-1.771 2.749,-2.198 0.313,-0.286 0.943,-0.724 2.011,-2.005 1.62,-1.937 2.302,-3.339 3.838,-4.792 0.708,-0.676 0.818,-1.64 1.859,-1.937 1.037,-0.318 1.98,0.532 1.98,0.532 z"
     id="path523" />
  <path
     style="fill:#0098c9;fill-opacity:1;fill-rule:nonzero;stroke:none"
     d="m 70.843856,101.38671 c -1.084,2.938 -0.995,3.688 -0.948,4.604 0.292,5.776 -2.552,5.808 -5.027,4.339 -2.921,-1.724 -4.004,-2.287 -1.276,-7.963 0.762,-1.573 2.886,-8.005001 2.886,-8.005001 0.448,-2.407 2.168,-4.516 3.584,-4.865 1.489,-0.364 0.921,-0.11 2.364,-0.203 1.376,-0.088 3.329,0.901 3.614,2.104 0.276,1.156 -0.921,2.317 -2.426,4.219 -1.183,1.5 -2.771,5.770001 -2.771,5.770001"
     id="path524" />
  <path
     style="fill:none;stroke:#231f20;stroke-width:0.565977;stroke-linecap:butt;stroke-linejoin:miter;stroke-miterlimit:4;stroke-dasharray:none;stroke-opacity:1"
     d="m 70.843856,101.38671 c -1.084,2.938 -0.995,3.688 -0.948,4.604 0.292,5.776 -2.552,5.808 -5.027,4.339 -2.921,-1.724 -4.004,-2.287 -1.276,-7.963 0.762,-1.573 2.886,-8.005001 2.886,-8.005001 0.448,-2.407 2.168,-4.516 3.584,-4.865 1.489,-0.364 0.921,-0.11 2.364,-0.203 1.376,-0.088 3.329,0.901 3.614,2.104 0.276,1.156 -0.921,2.317 -2.426,4.219 -1.183,1.5 -2.771,5.770001 -2.771,5.770001 z"
     id="path525" />
  <path
     style="fill:#ffffff;fill-opacity:1;fill-rule:nonzero;stroke:none"
     d="m 72.650856,82.632709 c 0.068,-0.235 -0.916,-0.834 -0.676,-1.298 0.238,-0.468 1.005,-0.296 2.582,-1.51 l 0.016,-0.015 c 1.12,-0.928 2.463,-1.281 3.625,-0.803 1.922,0.792 2.604,3.547 1.526,6.156 -1.068,2.615 -3.495,4.09 -5.416,3.298 -1.839,-0.751 -2.548,-3.318 -1.657,-5.828"
     id="path526" />
  <path
     style="fill:none;stroke:#231f20;stroke-width:0.565977;stroke-linecap:butt;stroke-linejoin:miter;stroke-miterlimit:4;stroke-dasharray:none;stroke-opacity:1"
     d="m 72.650856,82.632709 c 0.068,-0.235 -0.916,-0.834 -0.676,-1.298 0.238,-0.468 1.005,-0.296 2.582,-1.51 l 0.016,-0.015 c 1.12,-0.928 2.463,-1.281 3.625,-0.803 1.922,0.792 2.604,3.547 1.526,6.156 -1.068,2.615 -3.495,4.09 -5.416,3.298 -1.839,-0.751 -2.548,-3.318 -1.657,-5.828 z"
     id="path527" />
  <path
     style="fill:#231f20;fill-opacity:1;fill-rule:nonzero;stroke:none"
     d="m 50.947856,122.70071 c -3.328,-2.235 0.219,-4.24 0.484,-4.642 2.776,-4.172 3.079,-4.401 5.417,-7.426 3.37,-4.38 6.354,-6.86 9.474,-5.642 2.114,0.824 2.98,2.219 2.985,3.538 0.005,1.457 -1.443,4.286 -4.324,4.546 l -1.369,1.02 c -0.834,0.814 -1.25,1.215 -1.631,1.642 -0.661,0.754 -1.411,1.526 -2.781,2.921 -2.438,2.48 -5.818,4.308 -5.818,4.308 -0.89,0.864 -2.437,-0.265 -2.437,-0.265"
     id="path528" />
  <path
     style="fill:none;stroke:#231f20;stroke-width:0.565977;stroke-linecap:butt;stroke-linejoin:miter;stroke-miterlimit:4;stroke-dasharray:none;stroke-opacity:1"
     d="m 50.947856,122.70071 c -3.328,-2.235 0.219,-4.24 0.484,-4.642 2.776,-4.172 3.079,-4.401 5.417,-7.426 3.37,-4.38 6.354,-6.86 9.474,-5.642 2.114,0.824 2.98,2.219 2.985,3.538 0.005,1.457 -1.443,4.286 -4.324,4.546 l -1.369,1.02 c -0.834,0.814 -1.25,1.215 -1.631,1.642 -0.661,0.754 -1.411,1.526 -2.781,2.921 -2.438,2.48 -5.818,4.308 -5.818,4.308 -0.89,0.864 -2.437,-0.265 -2.437,-0.265 z"
     id="path529" />
  <path
     style="fill:#0098c9;fill-opacity:1;fill-rule:nonzero;stroke:none"
     d="m 66.952856,105.16271 c -1.265,-0.754 -2.625,-0.781 -4.098,-0.27 -1.027,0.109 -1.652,0.202 -2.063,0.901 -0.032,0.063 -0.084,0.125 -0.131,0.188 -0.5,0.312 -1,0.656 -1.52,1.052 l 5.146,5.885 c 2.88,0.224 4.781,-2.322 5.021,-3.766 0.213,-1.302 -0.407,-2.818 -2.355,-3.99"
     id="path530" />
  <path
     style="fill:none;stroke:#231f20;stroke-width:0.565977;stroke-linecap:butt;stroke-linejoin:miter;stroke-miterlimit:4;stroke-dasharray:none;stroke-opacity:1"
     d="m 66.952856,105.16271 c -1.265,-0.754 -2.625,-0.781 -4.098,-0.27 -1.027,0.109 -1.652,0.202 -2.063,0.901 -0.032,0.063 -0.084,0.125 -0.131,0.188 -0.5,0.312 -1,0.656 -1.52,1.052 l 5.146,5.885 c 2.88,0.224 4.781,-2.322 5.021,-3.766 0.213,-1.302 -0.407,-2.818 -2.355,-3.99 z"
     id="path531" />
  <path
     style="fill:#231f20;fill-opacity:1;fill-rule:nonzero;stroke:none"
     d="m 82.144856,74.023009 c -0.577,0.2867 -1.333,2.0777 -2.479,3.2077 -0.77,0.76 -1.765,3.318 -2.598,4.022 -0.751,0.64 -1.042,1.01 -0.454,2 0.35,0.588 1.402,1.494 1.85,1.254 1.052,-0.557 1.65,-1.292 2.134,-2.244 0.547,-1.084 1.782,-4.157 1.959,-4.74 0.432,-1.464 1.036,-1.89 1.188,-2.265 0.281,-0.704 0.083,-0.9907 -0.333,-1.272 -0.798,-0.536 -1.267,0.0373 -1.267,0.0373"
     id="path532" />
  <path
     style="fill:none;stroke:#231f20;stroke-width:0.565977;stroke-linecap:butt;stroke-linejoin:miter;stroke-miterlimit:4;stroke-dasharray:none;stroke-opacity:1"
     d="m 82.144856,74.023009 c -0.577,0.2867 -1.333,2.0777 -2.479,3.2077 -0.77,0.76 -1.765,3.318 -2.598,4.022 -0.751,0.64 -1.042,1.01 -0.454,2 0.35,0.588 1.402,1.494 1.85,1.254 1.052,-0.557 1.65,-1.292 2.134,-2.244 0.547,-1.084 1.782,-4.157 1.959,-4.74 0.432,-1.464 1.036,-1.89 1.188,-2.265 0.281,-0.704 0.083,-0.9907 -0.333,-1.272 -0.798,-0.536 -1.267,0.0373 -1.267,0.0373 z"
     id="path533" />
  <path
     style="fill:#231f20;fill-opacity:1;fill-rule:nonzero;stroke:none"
     d="m 77.477856,81.788709 c -1.176,-0.542 -1.67,1.432 -1.885,1.926 -0.208,0.506 -0.973,1.86 -1.702,2.839 -0.73,0.985 -1.224,2.527 -2.615,4.391 -0.729,0.985 -0.812,2.401 0.656,3.396 1.453,0.984 2.552,0.532 3.256,-0.787 0.702,-1.317 0.801,-2.859 1.421,-4.239 0.615,-1.381 1.371,-2.729 2.011,-3.756 0.734,-1.177 0.656,-2.03 0.385,-2.421 -0.688,-0.98 -1.527,-1.349 -1.527,-1.349"
     id="path534" />
  <path
     style="fill:none;stroke:#231f20;stroke-width:0.565977;stroke-linecap:butt;stroke-linejoin:miter;stroke-miterlimit:4;stroke-dasharray:none;stroke-opacity:1"
     d="m 77.477856,81.788709 c -1.176,-0.542 -1.67,1.432 -1.885,1.926 -0.208,0.506 -0.973,1.86 -1.702,2.839 -0.73,0.985 -1.224,2.527 -2.615,4.391 -0.729,0.985 -0.812,2.401 0.656,3.396 1.453,0.984 2.552,0.532 3.256,-0.787 0.702,-1.317 0.801,-2.859 1.421,-4.239 0.615,-1.381 1.371,-2.729 2.011,-3.756 0.734,-1.177 0.656,-2.03 0.385,-2.421 -0.688,-0.98 -1.527,-1.349 -1.527,-1.349 z"
     id="path535" />
  <path
     style="fill:#231f20;fill-opacity:1;fill-rule:nonzero;stroke:none"
     d="m 142.53185,44.372409 c 0.166,-3.6 1.801,-3.1986 5.796,-4.016 4.37,-0.8853 9.026,-1.344 12.261,-0.6986 3.613,0.724 3.885,0.272 4.443,2.104 0.561,1.8386 -0.172,2.0893 -0.934,3.1306 -0.88,1.2027 -8.156,0.1253 -12.776,1.24 -2.166,0.52 -7.014,3.172 -7.672,1.8853 -0.661,-1.3026 -1.118,-3.6453 -1.118,-3.6453"
     id="path536" />
  <path
     style="fill:none;stroke:#231f20;stroke-width:0.565977;stroke-linecap:butt;stroke-linejoin:miter;stroke-miterlimit:4;stroke-dasharray:none;stroke-opacity:1"
     d="m 142.53185,44.372409 c 0.166,-3.6 1.801,-3.1986 5.796,-4.016 4.37,-0.8853 9.026,-1.344 12.261,-0.6986 3.613,0.724 3.885,0.272 4.443,2.104 0.561,1.8386 -0.172,2.0893 -0.934,3.1306 -0.88,1.2027 -8.156,0.1253 -12.776,1.24 -2.166,0.52 -7.014,3.172 -7.672,1.8853 -0.661,-1.3026 -1.118,-3.6453 -1.118,-3.6453 z"
     id="path537" />
  <path
     style="fill:#231f20;fill-opacity:1;fill-rule:nonzero;stroke:none"
     d="m 163.09285,42.887109 c -0.285,-2.2493 -0.395,-2.9013 2.105,-2.8227 0.635,0.0267 2.4,0.208 2.782,0.1147 1.26,-0.3067 2.744,-0.5573 9.118,1.0987 0.991,0.256 2.959,0.4226 4.334,0.656 1.344,0.2293 0.062,2.2973 -0.463,2.2146 -1.693,-0.272 -2.844,-0.0733 -3.464,-0.084 -0.432,-0.0106 -1.224,-0.1666 -2.839,0.208 -4.177,0.9587 -5.562,-0.1866 -6.453,-0.0573 -2.557,0.36 -4.672,1.188 -5,0.6 -0.525,-0.9427 -0.12,-1.928 -0.12,-1.928"
     id="path538" />
  <path
     style="fill:none;stroke:#231f20;stroke-width:0.565977;stroke-linecap:butt;stroke-linejoin:miter;stroke-miterlimit:4;stroke-dasharray:none;stroke-opacity:1"
     d="m 163.09285,42.887109 c -0.285,-2.2493 -0.395,-2.9013 2.105,-2.8227 0.635,0.0267 2.4,0.208 2.782,0.1147 1.26,-0.3067 2.744,-0.5573 9.118,1.0987 0.991,0.256 2.959,0.4226 4.334,0.656 1.344,0.2293 0.062,2.2973 -0.463,2.2146 -1.693,-0.272 -2.844,-0.0733 -3.464,-0.084 -0.432,-0.0106 -1.224,-0.1666 -2.839,0.208 -4.177,0.9587 -5.562,-0.1866 -6.453,-0.0573 -2.557,0.36 -4.672,1.188 -5,0.6 -0.525,-0.9427 -0.12,-1.928 -0.12,-1.928 z"
     id="path539" />
  <path
     style="fill:#231f20;fill-opacity:1;fill-rule:nonzero;stroke:none"
     d="m 184.84885,41.085809 c -0.615,-0.2707 -1.907,0.9946 -3.869,1.0933 -0.402,0.0267 -0.715,0.2293 -1.058,0.38 -1.381,0.62 -2.286,1.932 1.458,2.708 0.521,0.1093 2.568,-0.3534 3.322,-0.1347 1.787,0.5253 4.636,-1.1933 4.48,-1.6826 -0.333,-1.0774 -4.333,-2.364 -4.333,-2.364"
     id="path540" />
  <path
     style="fill:none;stroke:#231f20;stroke-width:0.644548;stroke-linecap:round;stroke-linejoin:round;stroke-miterlimit:4;stroke-dasharray:none;stroke-opacity:1"
     d="m 184.84885,41.085809 c -0.615,-0.2707 -1.907,0.9946 -3.869,1.0933 -0.402,0.0267 -0.715,0.2293 -1.058,0.38 -1.381,0.62 -2.286,1.932 1.458,2.708 0.521,0.1093 2.568,-0.3534 3.322,-0.1347 1.787,0.5253 4.636,-1.1933 4.48,-1.6826 -0.333,-1.0774 -4.333,-2.364 -4.333,-2.364 z"
     id="path541" />
  <path
     style="fill:#231f20;fill-opacity:1;fill-rule:nonzero;stroke:#231f20;stroke-width:0.565977;stroke-linecap:round;stroke-linejoin:round;stroke-miterlimit:4;stroke-dasharray:none;stroke-opacity:1"
     d="m 126.18185,42.017809 c 0,0 -0.713,1.1093 -0.813,2.2706 -0.099,1.156 0.313,2.448 0.313,2.448 l 3.276,0.3333 0.484,-4.7599 z"
     id="path542" />
  <path
     style="fill:#231f20;fill-opacity:1;fill-rule:nonzero;stroke:none"
     d="m 142.52585,49.361709 c 0.719,3.5307 2.271,2.8854 6.343,3.0774 4.459,0.2133 9.131,-0.052 12.224,-1.1814 3.464,-1.2666 3.797,-0.8653 4.068,-2.7613 0.276,-1.9 -0.489,-2.036 -1.401,-2.9427 -1.052,-1.0573 -8.078,1.1147 -12.812,0.724 -2.224,-0.1826 -7.416,-2.0679 -7.87,-0.6866 -0.458,1.38 -0.552,3.7706 -0.552,3.7706"
     id="path543" />
  <path
     style="fill:none;stroke:#231f20;stroke-width:0.565977;stroke-linecap:butt;stroke-linejoin:miter;stroke-miterlimit:4;stroke-dasharray:none;stroke-opacity:1"
     d="m 142.52585,49.361709 c 0.719,3.5307 2.271,2.8854 6.343,3.0774 4.459,0.2133 9.131,-0.052 12.224,-1.1814 3.464,-1.2666 3.797,-0.8653 4.068,-2.7613 0.276,-1.9 -0.489,-2.036 -1.401,-2.9427 -1.052,-1.0573 -8.078,1.1147 -12.812,0.724 -2.224,-0.1826 -7.416,-2.0679 -7.87,-0.6866 -0.458,1.38 -0.552,3.7706 -0.552,3.7706 z"
     id="path544" />
  <path
     style="fill:#231f20;fill-opacity:1;fill-rule:nonzero;stroke:none"
     d="m 163.11385,47.553709 c -0.068,2.2614 -0.12,2.9227 2.364,2.5987 0.631,-0.0827 2.376,-0.4373 2.756,-0.38 1.287,0.1827 2.792,0.292 8.974,-1.9787 0.958,-0.3493 2.906,-0.7026 4.256,-1.068 1.312,-0.364 -0.167,-2.2973 -0.683,-2.1613 -1.661,0.432 -2.823,0.3547 -3.443,0.4173 -0.416,0.052 -1.197,0.2814 -2.849,0.0667 -4.239,-0.5467 -5.515,0.724 -6.411,0.6827 -2.584,-0.104 -4.765,-0.7294 -5.032,-0.12 -0.432,0.9946 0.068,1.9426 0.068,1.9426"
     id="path545" />
  <path
     style="fill:none;stroke:#231f20;stroke-width:0.565977;stroke-linecap:butt;stroke-linejoin:miter;stroke-miterlimit:4;stroke-dasharray:none;stroke-opacity:1"
     d="m 163.11385,47.553709 c -0.068,2.2614 -0.12,2.9227 2.364,2.5987 0.631,-0.0827 2.376,-0.4373 2.756,-0.38 1.287,0.1827 2.792,0.292 8.974,-1.9787 0.958,-0.3493 2.906,-0.7026 4.256,-1.068 1.312,-0.364 -0.167,-2.2973 -0.683,-2.1613 -1.661,0.432 -2.823,0.3547 -3.443,0.4173 -0.416,0.052 -1.197,0.2814 -2.849,0.0667 -4.239,-0.5467 -5.515,0.724 -6.411,0.6827 -2.584,-0.104 -4.765,-0.7294 -5.032,-0.12 -0.432,0.9946 0.068,1.9426 0.068,1.9426 z"
     id="path546" />
  <path
     style="fill:#0098c9;fill-opacity:1;fill-rule:nonzero;stroke:none"
     d="m 150.84385,46.919109 c -0.052,0.4946 -0.536,1.052 -0.536,1.052 0,0 -5.839,0.124 -7.615,2.6813 l -0.052,0.3547 c 0.765,0.9893 -1.115,-0.5214 -1.855,-0.5787 -3.24,-0.2707 -8.276,0.5627 -9.494,1.1 -1.678,0.7387 -2.443,3.2547 -4.214,2.0053 0,0 -1.776,-0.7973 -1.136,-3.532 0.23,-0.9946 -0.26,-3.2653 -0.26,-3.2653 0.036,0.016 0.078,0.0307 0.12,0.036 1.244,0.12 2.063,-0.8693 2.219,-2.1973 l -0.011,0.0733 c 0.12,-1.3333 -0.546,-2.4746 -1.734,-2.5893 -0.036,-0.0053 -0.083,-0.0053 -0.12,0 0,0 0.933,-2.1253 0.906,-3.1453 -0.078,-2.808 2.088,-3.1467 2.088,-3.1467 1.98,-0.864 1.964,1.6613 3.459,2.7187 1.089,0.7773 5.855,2.6 9.084,2.9853 0.739,0.0933 2.88,-1.016 1.932,-0.1987 l -0.021,0.36 c 1.224,2.8587 6.928,4.1507 6.928,4.1507 0,0 0.364,0.6453 0.312,1.136"
     id="path547" />
  <path
     style="fill:none;stroke:#231f20;stroke-width:0.565977;stroke-linecap:butt;stroke-linejoin:miter;stroke-miterlimit:4;stroke-dasharray:none;stroke-opacity:1"
     d="m 150.84385,46.919109 c -0.052,0.4946 -0.536,1.052 -0.536,1.052 0,0 -5.839,0.124 -7.615,2.6813 l -0.052,0.3547 c 0.765,0.9893 -1.115,-0.5214 -1.855,-0.5787 -3.24,-0.2707 -8.276,0.5627 -9.494,1.1 -1.678,0.7387 -2.443,3.2547 -4.214,2.0053 0,0 -1.776,-0.7973 -1.136,-3.532 0.23,-0.9946 -0.26,-3.2653 -0.26,-3.2653 0.036,0.016 0.078,0.0307 0.12,0.036 1.244,0.12 2.063,-0.8693 2.219,-2.1973 l -0.011,0.0733 c 0.12,-1.3333 -0.546,-2.4746 -1.734,-2.5893 -0.036,-0.0053 -0.083,-0.0053 -0.12,0 0,0 0.933,-2.1253 0.906,-3.1453 -0.078,-2.808 2.088,-3.1467 2.088,-3.1467 1.98,-0.864 1.964,1.6613 3.459,2.7187 1.089,0.7773 5.855,2.6 9.084,2.9853 0.739,0.0933 2.88,-1.016 1.932,-0.1987 l -0.021,0.36 c 1.224,2.8587 6.928,4.1507 6.928,4.1507 0,0 0.364,0.6453 0.312,1.136 z"
     id="path548" />
  <path
     style="fill:#ffffff;fill-opacity:1;fill-rule:nonzero;stroke:none"
     d="m 122.30185,39.528409 c 2.64,0.9947 4.192,3.3747 3.458,5.3173 -0.724,1.9427 -3.463,2.7134 -6.11,1.7187 -2.64,-0.9893 -4.192,-3.3693 -3.457,-5.3173 0.729,-1.9427 3.463,-2.7133 6.109,-1.7187"
     id="path549" />
  <path
     style="fill:none;stroke:#231f20;stroke-width:0.565977;stroke-linecap:butt;stroke-linejoin:miter;stroke-miterlimit:4;stroke-dasharray:none;stroke-opacity:1"
     d="m 122.30185,39.528409 c 2.64,0.9947 4.192,3.3747 3.458,5.3173 -0.724,1.9427 -3.463,2.7134 -6.11,1.7187 -2.64,-0.9893 -4.192,-3.3693 -3.457,-5.3173 0.729,-1.9427 3.463,-2.7133 6.109,-1.7187 z"
     id="path550" />
  <path
     style="fill:#0098c9;fill-opacity:1;fill-rule:nonzero;stroke:none"
     d="m 143.73985,41.143109 c 0.27,-0.2187 -0.366,-0.3707 0.057,-0.5573 2.719,-1.1987 6.672,-1.6254 7.905,-1.9427 1.235,-0.3187 1.396,6.6666 1.396,6.6666 l -1.848,0.1507 c 0.452,0.432 0.047,0.9893 0.047,0.9893 l 1.796,-0.1613 c 0,0 0.683,6.9787 -0.323,6.8693 -1.39,-0.156 -6.014,-0.0626 -8.312,-0.9053 -1.26,-0.4747 -1.953,-0.8493 -1.953,-0.8493 0,0 0.932,-4.052 0.88,-5.4787 -0.052,-1.428 0.355,-4.7813 0.355,-4.7813"
     id="path551" />
  <path
     style="fill:none;stroke:#231f20;stroke-width:0.565977;stroke-linecap:butt;stroke-linejoin:miter;stroke-miterlimit:4;stroke-dasharray:none;stroke-opacity:1"
     d="m 143.73985,41.143109 c 0.27,-0.2187 -0.366,-0.3707 0.057,-0.5573 2.719,-1.1987 6.672,-1.6254 7.905,-1.9427 1.235,-0.3187 1.396,6.6666 1.396,6.6666 l -1.848,0.1507 c 0.452,0.432 0.047,0.9893 0.047,0.9893 l 1.796,-0.1613 c 0,0 0.683,6.9787 -0.323,6.8693 -1.39,-0.156 -6.014,-0.0626 -8.312,-0.9053 -1.26,-0.4747 -1.953,-0.8493 -1.953,-0.8493 0,0 0.932,-4.052 0.88,-5.4787 -0.052,-1.428 0.355,-4.7813 0.355,-4.7813 z"
     id="path552" />
  <path
     style="fill:#231f20;fill-opacity:1;fill-rule:nonzero;stroke:none"
     d="m 185.18785,47.471109 c -0.568,0.348 -2.027,-0.724 -3.986,-0.5574 -0.4,0.0307 -0.744,-0.1253 -1.098,-0.2346 -1.454,-0.416 -2.531,-1.588 1.073,-2.8747 0.495,-0.1826 2.593,-0.0053 3.307,-0.3226 1.698,-0.772 4.756,0.5413 4.661,1.0519 -0.176,1.0987 -3.957,2.9374 -3.957,2.9374"
     id="path553" />
  <path
     style="fill:none;stroke:#231f20;stroke-width:0.644548;stroke-linecap:round;stroke-linejoin:round;stroke-miterlimit:4;stroke-dasharray:none;stroke-opacity:1"
     d="m 185.18785,47.471109 c -0.568,0.348 -2.027,-0.724 -3.986,-0.5574 -0.4,0.0307 -0.744,-0.1253 -1.098,-0.2346 -1.454,-0.416 -2.531,-1.588 1.073,-2.8747 0.495,-0.1826 2.593,-0.0053 3.307,-0.3226 1.698,-0.772 4.756,0.5413 4.661,1.0519 -0.176,1.0987 -3.957,2.9374 -3.957,2.9374 z"
     id="path554" />
  <path
     style="fill:#231f20;fill-opacity:1;fill-rule:nonzero;stroke:none"
     d="m 131.43185,72.085709 c 0.464,-0.448 0.636,-2.3853 1.38,-3.808 0.505,-0.9627 0.677,-3.7027 1.25,-4.62 0.527,-0.848 0.688,-1.2813 -0.177,-2.0467 -0.511,-0.4533 -1.781,-0.9946 -2.14,-0.6293 -0.833,0.8533 -1.172,1.7333 -1.349,2.7853 -0.194,1.1987 -0.432,4.5 -0.422,5.1147 0.036,1.5267 -0.412,2.1093 -0.438,2.516 -0.058,0.76 0.22,0.964 0.704,1.1146 0.921,0.2654 1.192,-0.4266 1.192,-0.4266"
     id="path555" />
  <path
     style="fill:none;stroke:#231f20;stroke-width:0.565977;stroke-linecap:butt;stroke-linejoin:miter;stroke-miterlimit:4;stroke-dasharray:none;stroke-opacity:1"
     d="m 131.43185,72.085709 c 0.464,-0.448 0.636,-2.3853 1.38,-3.808 0.505,-0.9627 0.677,-3.7027 1.25,-4.62 0.527,-0.848 0.688,-1.2813 -0.177,-2.0467 -0.511,-0.4533 -1.781,-0.9946 -2.14,-0.6293 -0.833,0.8533 -1.172,1.7333 -1.349,2.7853 -0.194,1.1987 -0.432,4.5 -0.422,5.1147 0.036,1.5267 -0.412,2.1093 -0.438,2.516 -0.058,0.76 0.22,0.964 0.704,1.1146 0.921,0.2654 1.192,-0.4266 1.192,-0.4266 z"
     id="path556" />
  <path
     style="fill:#231f20;fill-opacity:1;fill-rule:nonzero;stroke:none"
     d="m 134.04085,62.455009 c 1.188,-0.516 0.048,-2.2026 -0.181,-2.6933 -0.235,-0.4893 -0.735,-1.968 -0.986,-3.1613 -0.238,-1.2027 -1.062,-2.5933 -1.525,-4.8747 -0.245,-1.1973 -1.235,-2.2026 -2.964,-1.776 -1.703,0.4267 -2.104,1.5467 -1.588,2.9534 0.516,1.4066 1.593,2.5 2.213,3.8853 0.62,1.3746 1.126,2.8386 1.459,4.0053 0.391,1.3227 1.077,1.8387 1.547,1.896 1.186,0.14 2.025,-0.2347 2.025,-0.2347"
     id="path557" />
  <path
     style="fill:none;stroke:#231f20;stroke-width:0.565977;stroke-linecap:butt;stroke-linejoin:miter;stroke-miterlimit:4;stroke-dasharray:none;stroke-opacity:1"
     d="m 134.04085,62.455009 c 1.188,-0.516 0.048,-2.2026 -0.181,-2.6933 -0.235,-0.4893 -0.735,-1.968 -0.986,-3.1613 -0.238,-1.2027 -1.062,-2.5933 -1.525,-4.8747 -0.245,-1.1973 -1.235,-2.2026 -2.964,-1.776 -1.703,0.4267 -2.104,1.5467 -1.588,2.9534 0.516,1.4066 1.593,2.5 2.213,3.8853 0.62,1.3746 1.126,2.8386 1.459,4.0053 0.391,1.3227 1.077,1.8387 1.547,1.896 1.186,0.14 2.025,-0.2347 2.025,-0.2347 z"
     id="path558" />
  <path
     style="fill:#231f20;fill-opacity:1;fill-rule:nonzero;stroke:none"
     d="m 140.92585,52.809709 c 0.262,-0.5893 -0.312,-2.448 -0.161,-4.048 0.104,-1.0826 -0.776,-3.6813 -0.599,-4.7546 0.172,-0.9733 0.151,-1.4373 -0.932,-1.8227 -0.641,-0.224 -2.032,-0.2453 -2.224,0.2294 -0.442,1.0986 -0.432,2.0519 -0.193,3.0933 0.276,1.1773 1.303,4.328 1.552,4.8906 0.605,1.396 0.417,2.1094 0.548,2.4947 0.228,0.724 0.567,0.8133 1.067,0.76 0.958,-0.0987 0.942,-0.8427 0.942,-0.8427"
     id="path559" />
  <path
     style="fill:none;stroke:#231f20;stroke-width:0.565977;stroke-linecap:butt;stroke-linejoin:miter;stroke-miterlimit:4;stroke-dasharray:none;stroke-opacity:1"
     d="m 140.92585,52.809709 c 0.262,-0.5893 -0.312,-2.448 -0.161,-4.048 0.104,-1.0826 -0.776,-3.6813 -0.599,-4.7546 0.172,-0.9733 0.151,-1.4373 -0.932,-1.8227 -0.641,-0.224 -2.032,-0.2453 -2.224,0.2294 -0.442,1.0986 -0.432,2.0519 -0.193,3.0933 0.276,1.1773 1.303,4.328 1.552,4.8906 0.605,1.396 0.417,2.1094 0.548,2.4947 0.228,0.724 0.567,0.8133 1.067,0.76 0.958,-0.0987 0.942,-0.8427 0.942,-0.8427 z"
     id="path560" />
  <path
     style="fill:#231f20;fill-opacity:1;fill-rule:nonzero;stroke:none"
     d="m 139.75985,43.428409 c 0.672,-1.1133 -1.239,-1.8226 -1.708,-2.0826 -0.479,-0.2707 -1.744,-1.172 -2.64,-2.0054 -0.896,-0.8333 -2.376,-1.4893 -4.079,-3.068 -0.901,-0.8333 -2.297,-1.0773 -3.448,0.2814 -1.129,1.3386 -0.812,2.48 0.428,3.3226 1.239,0.8387 2.755,1.1094 4.061,1.8707 1.303,0.76 2.568,1.656 3.522,2.4053 1.088,0.8547 1.942,0.8707 2.36,0.6413 1.046,-0.5733 1.504,-1.3653 1.504,-1.3653"
     id="path561" />
  <path
     style="fill:none;stroke:#231f20;stroke-width:0.565977;stroke-linecap:butt;stroke-linejoin:miter;stroke-miterlimit:4;stroke-dasharray:none;stroke-opacity:1"
     d="m 139.75985,43.428409 c 0.672,-1.1133 -1.239,-1.8226 -1.708,-2.0826 -0.479,-0.2707 -1.744,-1.172 -2.64,-2.0054 -0.896,-0.8333 -2.376,-1.4893 -4.079,-3.068 -0.901,-0.8333 -2.297,-1.0773 -3.448,0.2814 -1.129,1.3386 -0.812,2.48 0.428,3.3226 1.239,0.8387 2.755,1.1094 4.061,1.8707 1.303,0.76 2.568,1.656 3.522,2.4053 1.088,0.8547 1.942,0.8707 2.36,0.6413 1.046,-0.5733 1.504,-1.3653 1.504,-1.3653 z"
     id="path562" />
  <path
     style="fill:#231f20;fill-opacity:1;fill-rule:nonzero;stroke:none"
     d="m 141.09285,59.007009 c -0.443,-0.5826 -1.416,-3.6879 -1.604,-4.4013 -0.172,-0.6453 -0.801,-1.6093 0.073,-2.3586 0.355,-0.308 1.088,-0.4947 1.412,-0.4947 0.255,0 0.432,0.276 0.5,0.6667 0.115,0.6613 -0.109,0.8906 0.036,2.1613 0,0 -0.01,0.3013 -0.073,0.848 -0.156,1.6253 -0.244,0.896 0.052,3.2973 0.021,0.1667 -0.135,0.3133 -0.249,0.3227 -0.178,0.0053 -0.147,-0.0414 -0.147,-0.0414"
     id="path563" />
  <path
     style="fill:none;stroke:#231f20;stroke-width:0.565977;stroke-linecap:round;stroke-linejoin:round;stroke-miterlimit:4;stroke-dasharray:none;stroke-opacity:1"
     d="m 141.09285,59.007009 c -0.443,-0.5826 -1.416,-3.6879 -1.604,-4.4013 -0.172,-0.6453 -0.801,-1.6093 0.073,-2.3586 0.355,-0.308 1.088,-0.4947 1.412,-0.4947 0.255,0 0.432,0.276 0.5,0.6667 0.115,0.6613 -0.109,0.8906 0.036,2.1613 0,0 -0.01,0.3013 -0.073,0.848 -0.156,1.6253 -0.244,0.896 0.052,3.2973 0.021,0.1667 -0.135,0.3133 -0.249,0.3227 -0.178,0.0053 -0.147,-0.0414 -0.147,-0.0414 z"
     id="path564" />
  <path
     style="fill:#231f20;fill-opacity:1;fill-rule:nonzero;stroke:none"
     d="m 237.39485,53.080409 c -0.521,0.38 -2.464,0.2187 -3.989,0.7187 -1.037,0.328 -3.765,0.0306 -4.771,0.4373 -0.917,0.3747 -1.38,0.4587 -1.985,-0.5213 -0.353,-0.5774 -0.671,-1.9267 -0.255,-2.2187 0.979,-0.6773 1.912,-0.8587 2.974,-0.848 1.22,0.0093 4.516,0.3373 5.12,0.452 1.49,0.292 2.146,-0.0467 2.546,0 0.762,0.068 0.923,0.3813 0.98,0.876 0.104,0.9573 -0.62,1.104 -0.62,1.104"
     id="path565" />
  <path
     style="fill:none;stroke:#231f20;stroke-width:0.565977;stroke-linecap:butt;stroke-linejoin:miter;stroke-miterlimit:4;stroke-dasharray:none;stroke-opacity:1"
     d="m 237.39485,53.080409 c -0.521,0.38 -2.464,0.2187 -3.989,0.7187 -1.037,0.328 -3.765,0.0306 -4.771,0.4373 -0.917,0.3747 -1.38,0.4587 -1.985,-0.5213 -0.353,-0.5774 -0.671,-1.9267 -0.255,-2.2187 0.979,-0.6773 1.912,-0.8587 2.974,-0.848 1.22,0.0093 4.516,0.3373 5.12,0.452 1.49,0.292 2.146,-0.0467 2.546,0 0.762,0.068 0.923,0.3813 0.98,0.876 0.104,0.9573 -0.62,1.104 -0.62,1.104 z"
     id="path566" />
  <path
     style="fill:#231f20;fill-opacity:1;fill-rule:nonzero;stroke:none"
     d="m 227.33285,54.277709 c -0.823,1 -2.131,-0.5626 -2.536,-0.9213 -0.407,-0.36 -1.683,-1.256 -2.766,-1.8173 -1.089,-0.568 -2.198,-1.74 -4.256,-2.824 -1.082,-0.5667 -1.776,-1.8067 -0.885,-3.3427 0.885,-1.5106 2.068,-1.5893 3.276,-0.704 1.208,0.8853 1.969,2.2293 3.12,3.204 1.145,0.984 2.416,1.8693 3.443,2.52 1.172,0.7347 1.469,1.5373 1.396,2.0107 -0.194,1.1773 -0.792,1.8746 -0.792,1.8746"
     id="path567" />
  <path
     style="fill:none;stroke:#231f20;stroke-width:0.565977;stroke-linecap:butt;stroke-linejoin:miter;stroke-miterlimit:4;stroke-dasharray:none;stroke-opacity:1"
     d="m 227.33285,54.277709 c -0.823,1 -2.131,-0.5626 -2.536,-0.9213 -0.407,-0.36 -1.683,-1.256 -2.766,-1.8173 -1.089,-0.568 -2.198,-1.74 -4.256,-2.824 -1.082,-0.5667 -1.776,-1.8067 -0.885,-3.3427 0.885,-1.5106 2.068,-1.5893 3.276,-0.704 1.208,0.8853 1.969,2.2293 3.12,3.204 1.145,0.984 2.416,1.8693 3.443,2.52 1.172,0.7347 1.469,1.5373 1.396,2.0107 -0.194,1.1773 -0.792,1.8746 -0.792,1.8746 z"
     id="path568" />
  <path
     style="fill:#231f20;fill-opacity:1;fill-rule:nonzero;stroke:none"
     d="m 243.74485,52.173709 c -0.631,-0.3693 -3.823,-0.9733 -4.558,-1.0786 -0.656,-0.0934 -1.698,-0.6134 -2.333,0.344 -0.261,0.396 -0.365,1.1413 -0.328,1.464 0.031,0.2493 0.328,0.4013 0.724,0.416 0.661,0.0373 0.864,-0.2134 2.14,-0.2187 0,0 0.308,-0.0467 0.844,-0.1707 1.588,-0.344 0.859,-0.3386 3.281,-0.3293 0.172,0 0.292,-0.172 0.287,-0.2853 -0.016,-0.1774 -0.057,-0.1414 -0.057,-0.1414"
     id="path569" />
  <path
     style="fill:none;stroke:#231f20;stroke-width:0.565977;stroke-linecap:round;stroke-linejoin:round;stroke-miterlimit:4;stroke-dasharray:none;stroke-opacity:1"
     d="m 243.74485,52.173709 c -0.631,-0.3693 -3.823,-0.9733 -4.558,-1.0786 -0.656,-0.0934 -1.698,-0.6134 -2.333,0.344 -0.261,0.396 -0.365,1.1413 -0.328,1.464 0.031,0.2493 0.328,0.4013 0.724,0.416 0.661,0.0373 0.864,-0.2134 2.14,-0.2187 0,0 0.308,-0.0467 0.844,-0.1707 1.588,-0.344 0.859,-0.3386 3.281,-0.3293 0.172,0 0.292,-0.172 0.287,-0.2853 -0.016,-0.1774 -0.057,-0.1414 -0.057,-0.1414 z"
     id="path570" />
  <path
     style="fill:#ffffff;fill-opacity:1;fill-rule:nonzero;stroke:none"
     d="m 252.49885,34.329809 c 0.251,2.256 0.599,2.656 1.558,2.6146 0.641,-0.0253 1.245,0.1667 1.63,0.1667 1.296,0.0053 3.484,-0.52 9.287,-3.6293 1.312,-0.7094 3.167,-1.688 3.957,-2.0267 1.246,-0.536 -0.489,-2.24 -0.978,-2.036 -1.584,0.6614 -2.719,0.984 -3.328,1.14 -0.412,0.1147 -1.115,0.4067 -2.771,0.62 -2.505,0.328 -4.052,0.1507 -6.104,0.6667 -0.953,0.24 -1.824,-0.188 -2.636,0.5266 -0.823,0.7134 -0.615,1.9574 -0.615,1.9574"
     id="path571" />
  <path
     style="fill:none;stroke:#231f20;stroke-width:0.565977;stroke-linecap:butt;stroke-linejoin:miter;stroke-miterlimit:4;stroke-dasharray:none;stroke-opacity:1"
     d="m 252.49885,34.329809 c 0.251,2.256 0.599,2.656 1.558,2.6146 0.641,-0.0253 1.245,0.1667 1.63,0.1667 1.296,0.0053 3.484,-0.52 9.287,-3.6293 1.312,-0.7094 3.167,-1.688 3.957,-2.0267 1.246,-0.536 -0.489,-2.24 -0.978,-2.036 -1.584,0.6614 -2.719,0.984 -3.328,1.14 -0.412,0.1147 -1.115,0.4067 -2.771,0.62 -2.505,0.328 -4.052,0.1507 -6.104,0.6667 -0.953,0.24 -1.824,-0.188 -2.636,0.5266 -0.823,0.7134 -0.615,1.9574 -0.615,1.9574 z"
     id="path572" />
  <path
     style="fill:#ffffff;fill-opacity:1;fill-rule:nonzero;stroke:none"
     d="m 254.95285,34.627109 c -0.094,-4.0106 -3.698,-2.088 -4.178,-2.084 -5.01,0.1053 -5.369,0.24 -9.172,0.584 -5.51,0.4947 -9.202,1.6827 -9.853,4.968 -0.437,2.2293 0.281,3.7093 1.385,4.4227 1.23,0.7866 4.396,1.0733 6.156,-1.2134 l 1.599,-0.5986 c 1.136,-0.272 1.693,-0.412 2.265,-0.5 0.99,-0.1574 2.038,-0.376 3.954,-0.7814 3.396,-0.7186 6.75,-2.5946 6.75,-2.5946 1.219,-0.2867 1.094,-2.2027 1.094,-2.2027"
     id="path573" />
  <path
     style="fill:none;stroke:#231f20;stroke-width:0.565977;stroke-linecap:butt;stroke-linejoin:miter;stroke-miterlimit:4;stroke-dasharray:none;stroke-opacity:1"
     d="m 254.95285,34.627109 c -0.094,-4.0106 -3.698,-2.088 -4.178,-2.084 -5.01,0.1053 -5.369,0.24 -9.172,0.584 -5.51,0.4947 -9.202,1.6827 -9.853,4.968 -0.437,2.2293 0.281,3.7093 1.385,4.4227 1.23,0.7866 4.396,1.0733 6.156,-1.2134 l 1.599,-0.5986 c 1.136,-0.272 1.693,-0.412 2.265,-0.5 0.99,-0.1574 2.038,-0.376 3.954,-0.7814 3.396,-0.7186 6.75,-2.5946 6.75,-2.5946 1.219,-0.2867 1.094,-2.2027 1.094,-2.2027 z"
     id="path574" />
  <path
     style="fill:#231f20;fill-opacity:1;fill-rule:nonzero;stroke:none"
     d="m 271.03085,31.460409 c -0.537,1.2347 -1.526,1.192 -2.292,0.484 -0.224,-0.2026 -0.636,-0.1506 -0.844,-0.3693 -0.473,-0.5267 -0.333,-2.2653 1.146,-2.516 0.1,-0.02 0.828,-0.396 1.422,-0.588 1.151,-0.38 3.635,-0.5786 5.678,1.1867 0.968,0.828 0.296,1.2507 -0.199,1.032 -1.563,-0.6987 -1.833,-0.4533 -2.312,-0.484 -1.62,-0.1253 -2.599,1.2546 -2.599,1.2546"
     id="path575" />
  <path
     style="fill:none;stroke:#231f20;stroke-width:0.332927;stroke-linecap:butt;stroke-linejoin:miter;stroke-miterlimit:4;stroke-dasharray:none;stroke-opacity:1"
     d="m 271.03085,31.460409 c -0.537,1.2347 -1.526,1.192 -2.292,0.484 -0.224,-0.2026 -0.636,-0.1506 -0.844,-0.3693 -0.473,-0.5267 -0.333,-2.2653 1.146,-2.516 0.1,-0.02 0.828,-0.396 1.422,-0.588 1.151,-0.38 3.635,-0.5786 5.678,1.1867 0.968,0.828 0.296,1.2507 -0.199,1.032 -1.563,-0.6987 -1.833,-0.4533 -2.312,-0.484 -1.62,-0.1253 -2.599,1.2546 -2.599,1.2546 z"
     id="path576" />
  <path
     style="fill:#231f20;fill-opacity:1;fill-rule:nonzero;stroke:none"
     d="m 269.67685,26.231109 c -0.344,1.312 -1.328,1.4174 -2.188,0.8334 -0.26,-0.1614 -0.656,-0.0467 -0.891,-0.24 -0.552,-0.4427 -0.681,-2.1814 0.74,-2.656 0.099,-0.0307 0.76,-0.52 1.317,-0.796 1.079,-0.5574 3.506,-1.136 5.792,0.296 1.084,0.672 0.479,1.188 -0.036,1.0466 -1.656,-0.452 -1.885,-0.1666 -2.365,-0.124 -1.615,0.1347 -2.369,1.64 -2.369,1.64"
     id="path577" />
  <path
     style="fill:none;stroke:#231f20;stroke-width:0.332927;stroke-linecap:butt;stroke-linejoin:miter;stroke-miterlimit:4;stroke-dasharray:none;stroke-opacity:1"
     d="m 269.67685,26.231109 c -0.344,1.312 -1.328,1.4174 -2.188,0.8334 -0.26,-0.1614 -0.656,-0.0467 -0.891,-0.24 -0.552,-0.4427 -0.681,-2.1814 0.74,-2.656 0.099,-0.0307 0.76,-0.52 1.317,-0.796 1.079,-0.5574 3.506,-1.136 5.792,0.296 1.084,0.672 0.479,1.188 -0.036,1.0466 -1.656,-0.452 -1.885,-0.1666 -2.365,-0.124 -1.615,0.1347 -2.369,1.64 -2.369,1.64 z"
     id="path578" />
  <path
     style="fill:#231f20;fill-opacity:1;fill-rule:nonzero;stroke:none"
     d="m 251.81085,31.933809 c 0.595,2.188 1,2.532 1.944,2.3386 0.624,-0.124 1.25,-0.02 1.63,-0.0826 1.286,-0.1987 3.365,-1.0574 8.62,-5.0213 1.188,-0.9014 2.864,-2.156 3.598,-2.6147 1.147,-0.724 -0.828,-2.14 -1.286,-1.8587 -1.463,0.896 -2.536,1.3907 -3.11,1.64 -0.39,0.1774 -1.041,0.5734 -2.64,1.0414 -2.426,0.7093 -3.984,0.776 -5.932,1.6 -0.906,0.3853 -1.828,0.0933 -2.521,0.9266 -0.703,0.828 -0.303,2.0307 -0.303,2.0307"
     id="path579" />
  <path
     style="fill:none;stroke:#231f20;stroke-width:0.565977;stroke-linecap:butt;stroke-linejoin:miter;stroke-miterlimit:4;stroke-dasharray:none;stroke-opacity:1"
     d="m 251.81085,31.933809 c 0.595,2.188 1,2.532 1.944,2.3386 0.624,-0.124 1.25,-0.02 1.63,-0.0826 1.286,-0.1987 3.365,-1.0574 8.62,-5.0213 1.188,-0.9014 2.864,-2.156 3.598,-2.6147 1.147,-0.724 -0.828,-2.14 -1.286,-1.8587 -1.463,0.896 -2.536,1.3907 -3.11,1.64 -0.39,0.1774 -1.041,0.5734 -2.64,1.0414 -2.426,0.7093 -3.984,0.776 -5.932,1.6 -0.906,0.3853 -1.828,0.0933 -2.521,0.9266 -0.703,0.828 -0.303,2.0307 -0.303,2.0307 z"
     id="path580" />
  <path
     style="fill:#0098c9;fill-opacity:1;fill-rule:nonzero;stroke:none"
     d="m 228.54085,44.867109 c 2.876,-1.2453 3.625,-1.1987 4.552,-1.1987 5.776,-0.0306 5.657,-2.8693 4.052,-5.2653 -1.88,-2.8173 -2.504,-3.864 -8.02,-0.8333 -1.532,0.8493 -7.839,3.3226 -7.839,3.3226 -2.38,0.5734 -4.385,2.412 -4.661,3.844 -0.282,1.5107 -0.058,0.932 -0.074,2.3747 -0.01,1.3746 1.09,3.2706 2.303,3.4893 1.167,0.2147 2.26,-1.0467 4.077,-2.6507 1.434,-1.2653 5.61,-3.0826 5.61,-3.0826"
     id="path581" />
  <path
     style="fill:none;stroke:#231f20;stroke-width:0.565977;stroke-linecap:butt;stroke-linejoin:miter;stroke-miterlimit:4;stroke-dasharray:none;stroke-opacity:1"
     d="m 228.54085,44.867109 c 2.876,-1.2453 3.625,-1.1987 4.552,-1.1987 5.776,-0.0306 5.657,-2.8693 4.052,-5.2653 -1.88,-2.8173 -2.504,-3.864 -8.02,-0.8333 -1.532,0.8493 -7.839,3.3226 -7.839,3.3226 -2.38,0.5734 -4.385,2.412 -4.661,3.844 -0.282,1.5107 -0.058,0.932 -0.074,2.3747 -0.01,1.3746 1.09,3.2706 2.303,3.4893 1.167,0.2147 2.26,-1.0467 4.077,-2.6507 1.434,-1.2653 5.61,-3.0826 5.61,-3.0826 z"
     id="path582" />
  <path
     style="fill:#ffffff;fill-opacity:1;fill-rule:nonzero;stroke:none"
     d="m 209.41085,51.267109 c -0.156,0.1933 -1.203,-0.276 -1.453,0.188 -0.245,0.4586 0.334,1 0.23,2.984 v 0.0213 c -0.126,1.448 0.347,2.7547 1.401,3.4373 1.744,1.1307 4.4,0.12 5.932,-2.2453 1.541,-2.3693 1.369,-5.208 -0.376,-6.3373 -1.662,-1.084 -4.176,-0.2094 -5.734,1.952"
     id="path583" />
  <path
     style="fill:none;stroke:#231f20;stroke-width:0.565977;stroke-linecap:butt;stroke-linejoin:miter;stroke-miterlimit:4;stroke-dasharray:none;stroke-opacity:1"
     d="m 209.41085,51.267109 c -0.156,0.1933 -1.203,-0.276 -1.453,0.188 -0.245,0.4586 0.334,1 0.23,2.984 v 0.0213 c -0.126,1.448 0.347,2.7547 1.401,3.4373 1.744,1.1307 4.4,0.12 5.932,-2.2453 1.541,-2.3693 1.369,-5.208 -0.376,-6.3373 -1.662,-1.084 -4.176,-0.2094 -5.734,1.952 z"
     id="path584" />
  <path
     style="fill:#231f20;fill-opacity:1;fill-rule:nonzero;stroke:none"
     d="m 254.28085,31.845809 c -0.714,-3.948 -3.979,-1.4947 -4.448,-1.412 -4.938,0.876 -5.266,1.0573 -8.979,1.9906 -5.36,1.3427 -8.828,3.0827 -8.959,6.4267 -0.088,2.2707 0.839,3.62 2.047,4.156 1.333,0.584 4.505,0.3853 5.896,-2.1453 l 1.489,-0.844 c 1.079,-0.4427 1.61,-0.6614 2.151,-0.8387 0.959,-0.3067 1.964,-0.688 3.792,-1.3853 3.245,-1.2347 6.271,-3.604 6.271,-3.604 1.157,-0.4694 0.74,-2.344 0.74,-2.344"
     id="path585" />
  <path
     style="fill:none;stroke:#231f20;stroke-width:0.565977;stroke-linecap:butt;stroke-linejoin:miter;stroke-miterlimit:4;stroke-dasharray:none;stroke-opacity:1"
     d="m 254.28085,31.845809 c -0.714,-3.948 -3.979,-1.4947 -4.448,-1.412 -4.938,0.876 -5.266,1.0573 -8.979,1.9906 -5.36,1.3427 -8.828,3.0827 -8.959,6.4267 -0.088,2.2707 0.839,3.62 2.047,4.156 1.333,0.584 4.505,0.3853 5.896,-2.1453 l 1.489,-0.844 c 1.079,-0.4427 1.61,-0.6614 2.151,-0.8387 0.959,-0.3067 1.964,-0.688 3.792,-1.3853 3.245,-1.2347 6.271,-3.604 6.271,-3.604 1.157,-0.4694 0.74,-2.344 0.74,-2.344 z"
     id="path586" />
  <path
     style="fill:#0098c9;fill-opacity:1;fill-rule:nonzero;stroke:#231f20;stroke-width:0.565977;stroke-linecap:butt;stroke-linejoin:miter;stroke-miterlimit:4;stroke-dasharray:none;stroke-opacity:1"
     d="m 236.64985,33.091109 c -0.577,0.3173 -1.093,0.64 -1.583,0.968 -0.078,0.0213 -0.15,0.0413 -0.218,0.052 -0.808,0.0947 -1.147,0.6253 -1.667,1.532 -1.047,1.1453 -1.568,2.4 -1.375,3.864 0.286,2.2507 1.432,3.4267 2.708,3.7507 1.416,0.3586 4.511,-0.3654 5.459,-3.0947 z"
     id="path587" />
  <path
     style="fill:#231f20;fill-opacity:1;fill-rule:nonzero;stroke:none"
     d="m 225.32685,27.471109 c 0.438,0.4787 0.475,2.4267 1.12,3.896 0.432,1 0.412,3.744 0.918,4.7027 0.462,0.8746 0.598,1.3226 -0.314,2.0253 -0.546,0.4173 -1.853,0.8707 -2.182,0.48 -0.776,-0.9067 -1.058,-1.8133 -1.151,-2.8747 -0.109,-1.2146 -0.12,-4.5213 -0.063,-5.1359 0.142,-1.516 -0.26,-2.1307 -0.26,-2.536 -0.005,-0.7614 0.287,-0.948 0.776,-1.0627 0.938,-0.204 1.156,0.5053 1.156,0.5053"
     id="path588" />
  <path
     style="fill:none;stroke:#231f20;stroke-width:0.565977;stroke-linecap:butt;stroke-linejoin:miter;stroke-miterlimit:4;stroke-dasharray:none;stroke-opacity:1"
     d="m 225.32685,27.471109 c 0.438,0.4787 0.475,2.4267 1.12,3.896 0.432,1 0.412,3.744 0.918,4.7027 0.462,0.8746 0.598,1.3226 -0.314,2.0253 -0.546,0.4173 -1.853,0.8707 -2.182,0.48 -0.776,-0.9067 -1.058,-1.8133 -1.151,-2.8747 -0.109,-1.2146 -0.12,-4.5213 -0.063,-5.1359 0.142,-1.516 -0.26,-2.1307 -0.26,-2.536 -0.005,-0.7614 0.287,-0.948 0.776,-1.0627 0.938,-0.204 1.156,0.5053 1.156,0.5053 z"
     id="path589" />
  <path
     style="fill:#231f20;fill-opacity:1;fill-rule:nonzero;stroke:none"
     d="m 226.87885,37.272409 c 1.074,0.7187 -0.364,2.172 -0.672,2.6094 -0.322,0.4426 -1.082,1.8026 -1.541,2.9333 -0.464,1.1347 -1.525,2.348 -2.401,4.504 -0.463,1.1306 -1.63,1.944 -3.239,1.204 -1.595,-0.7294 -1.787,-1.9014 -1.021,-3.188 0.765,-1.292 2.026,-2.172 2.885,-3.416 0.865,-1.24 1.625,-2.5893 2.177,-3.672 0.62,-1.2293 1.386,-1.6147 1.864,-1.5787 1.194,0.0734 1.948,0.604 1.948,0.604"
     id="path590" />
  <path
     style="fill:none;stroke:#231f20;stroke-width:0.565977;stroke-linecap:butt;stroke-linejoin:miter;stroke-miterlimit:4;stroke-dasharray:none;stroke-opacity:1"
     d="m 226.87885,37.272409 c 1.074,0.7187 -0.364,2.172 -0.672,2.6094 -0.322,0.4426 -1.082,1.8026 -1.541,2.9333 -0.464,1.1347 -1.525,2.348 -2.401,4.504 -0.463,1.1306 -1.63,1.944 -3.239,1.204 -1.595,-0.7294 -1.787,-1.9014 -1.021,-3.188 0.765,-1.292 2.026,-2.172 2.885,-3.416 0.865,-1.24 1.625,-2.5893 2.177,-3.672 0.62,-1.2293 1.386,-1.6147 1.864,-1.5787 1.194,0.0734 1.948,0.604 1.948,0.604 z"
     id="path591" />
  <path
     style="fill:#ffffff;fill-opacity:1;fill-rule:nonzero;stroke:none"
     d="m 204.88485,71.043009 c 1,-0.2133 1.989,0.428 2.208,1.4333 0.215,1 -0.427,1.9894 -1.432,2.208 -1,0.2134 -1.995,-0.4213 -2.208,-1.432 -0.213,-1 0.421,-1.9946 1.432,-2.2093"
     id="path592" />
  <path
     style="fill:none;stroke:#231f20;stroke-width:1.33171;stroke-linecap:butt;stroke-linejoin:miter;stroke-miterlimit:4;stroke-dasharray:none;stroke-opacity:1"
     d="m 204.88485,71.043009 c 1,-0.2133 1.989,0.428 2.208,1.4333 0.215,1 -0.427,1.9894 -1.432,2.208 -1,0.2134 -1.995,-0.4213 -2.208,-1.432 -0.213,-1 0.421,-1.9946 1.432,-2.2093 z"
     id="path593" />
  <path
     style="fill:#ffffff;fill-opacity:1;fill-rule:nonzero;stroke:none"
     d="m 278.88485,72.705709 c -0.219,-1.0054 0.412,-1.996 1.412,-2.22 1.005,-0.2227 1.994,0.412 2.224,1.412 0.218,1.0053 -0.412,2 -1.418,2.224 -1,0.2186 -1.994,-0.412 -2.218,-1.416"
     id="path594" />
  <path
     style="fill:none;stroke:#231f20;stroke-width:1.33171;stroke-linecap:butt;stroke-linejoin:miter;stroke-miterlimit:4;stroke-dasharray:none;stroke-opacity:1"
     d="m 278.88485,72.705709 c -0.219,-1.0054 0.412,-1.996 1.412,-2.22 1.005,-0.2227 1.994,0.412 2.224,1.412 0.218,1.0053 -0.412,2 -1.418,2.224 -1,0.2186 -1.994,-0.412 -2.218,-1.416 z"
     id="path595" />
  <path
     style="fill:#ffffff;fill-opacity:1;fill-rule:nonzero;stroke:none"
     d="m 129.46385,71.043009 c 1,-0.2133 1.989,0.428 2.208,1.4333 0.213,1 -0.427,1.9894 -1.432,2.208 -1,0.2134 -1.995,-0.4213 -2.208,-1.432 -0.215,-1 0.421,-1.9946 1.432,-2.2093"
     id="path596" />
  <path
     style="fill:none;stroke:#231f20;stroke-width:1.33171;stroke-linecap:butt;stroke-linejoin:miter;stroke-miterlimit:4;stroke-dasharray:none;stroke-opacity:1"
     d="m 129.46385,71.043009 c 1,-0.2133 1.989,0.428 2.208,1.4333 0.213,1 -0.427,1.9894 -1.432,2.208 -1,0.2134 -1.995,-0.4213 -2.208,-1.432 -0.215,-1 0.421,-1.9946 1.432,-2.2093 z"
     id="path597" />
  <path
     style="fill:#ffffff;fill-opacity:1;fill-rule:nonzero;stroke:none"
     d="m 89.545856,71.043009 c 1.006,-0.2133 1.995,0.428 2.21,1.4333 0.218,1 -0.423,1.9894 -1.428,2.208 -1.006,0.2134 -1.995,-0.4213 -2.208,-1.432 -0.214,-1 0.421,-1.9946 1.426,-2.2093"
     id="path598" />
  <path
     style="fill:none;stroke:#231f20;stroke-width:1.33171;stroke-linecap:butt;stroke-linejoin:miter;stroke-miterlimit:4;stroke-dasharray:none;stroke-opacity:1"
     d="m 89.545856,71.043009 c 1.006,-0.2133 1.995,0.428 2.21,1.4333 0.218,1 -0.423,1.9894 -1.428,2.208 -1.006,0.2134 -1.995,-0.4213 -2.208,-1.432 -0.214,-1 0.421,-1.9946 1.426,-2.2093 z"
     id="path599" />
  <path
     style="fill:#ffffff;fill-opacity:1;fill-rule:nonzero;stroke:none"
     d="m 82.619856,71.043009 c 1.005,-0.2133 1.994,0.428 2.208,1.4333 0.218,1 -0.422,1.9894 -1.427,2.208 -1.005,0.2134 -1.995,-0.4213 -2.208,-1.432 -0.213,-1 0.421,-1.9946 1.427,-2.2093"
     id="path600" />
  <path
     style="fill:none;stroke:#231f20;stroke-width:1.33171;stroke-linecap:butt;stroke-linejoin:miter;stroke-miterlimit:4;stroke-dasharray:none;stroke-opacity:1"
     d="m 82.619856,71.043009 c 1.005,-0.2133 1.994,0.428 2.208,1.4333 0.218,1 -0.422,1.9894 -1.427,2.208 -1.005,0.2134 -1.995,-0.4213 -2.208,-1.432 -0.213,-1 0.421,-1.9946 1.427,-2.2093 z"
     id="path601" />
  <path
     style="fill:#ffffff;fill-opacity:1;fill-rule:nonzero;stroke:none"
     d="m 38.046856,71.043009 c 1,-0.2133 1.989,0.428 2.209,1.4333 0.213,1 -0.428,1.9894 -1.433,2.208 -1,0.2134 -1.995,-0.4213 -2.208,-1.432 -0.214,-1 0.421,-1.9946 1.432,-2.2093"
     id="path602" />
  <path
     style="fill:none;stroke:#231f20;stroke-width:1.33171;stroke-linecap:butt;stroke-linejoin:miter;stroke-miterlimit:4;stroke-dasharray:none;stroke-opacity:1"
     d="m 38.046856,71.043009 c 1,-0.2133 1.989,0.428 2.209,1.4333 0.213,1 -0.428,1.9894 -1.433,2.208 -1,0.2134 -1.995,-0.4213 -2.208,-1.432 -0.214,-1 0.421,-1.9946 1.432,-2.2093 z"
     id="path603" />
  <path
     style="fill:#231f20;fill-opacity:1;fill-rule:nonzero;stroke:none"
     d="m 223.79085,21.247109 c -0.308,0.6614 -0.584,3.9014 -0.609,4.6454 -0.032,0.6613 -0.443,1.7453 0.573,2.2866 0.416,0.2187 1.171,0.2494 1.484,0.1774 0.255,-0.0574 0.37,-0.3707 0.35,-0.76 -0.032,-0.6667 -0.308,-0.8387 -0.439,-2.1107 0,0 -0.077,-0.3013 -0.255,-0.8227 -0.5,-1.552 -0.426,-0.8226 -0.661,-3.2293 -0.011,-0.1707 -0.193,-0.276 -0.308,-0.26 -0.176,0.036 -0.135,0.0733 -0.135,0.0733"
     id="path604" />
  <path
     style="fill:none;stroke:#231f20;stroke-width:0.565977;stroke-linecap:round;stroke-linejoin:round;stroke-miterlimit:4;stroke-dasharray:none;stroke-opacity:1"
     d="m 223.79085,21.247109 c -0.308,0.6614 -0.584,3.9014 -0.609,4.6454 -0.032,0.6613 -0.443,1.7453 0.573,2.2866 0.416,0.2187 1.171,0.2494 1.484,0.1774 0.255,-0.0574 0.37,-0.3707 0.35,-0.76 -0.032,-0.6667 -0.308,-0.8387 -0.439,-2.1107 0,0 -0.077,-0.3013 -0.255,-0.8227 -0.5,-1.552 -0.426,-0.8226 -0.661,-3.2293 -0.011,-0.1707 -0.193,-0.276 -0.308,-0.26 -0.176,0.036 -0.135,0.0733 -0.135,0.0733 z"
     id="path605" />
  <path
     style="fill:none;stroke:#231f20;stroke-width:0.399514;stroke-linecap:butt;stroke-linejoin:miter;stroke-miterlimit:4;stroke-dasharray:none;stroke-opacity:1"
     d="m 166.85985,59.596409 c 15.91,-21.1773 5.713,-29.6879 -1.74,-25.792"
     id="path606" />
  <path
     style="fill:#231f20;fill-opacity:1;fill-rule:nonzero;stroke:none"
     d="m 164.04585,34.361809 c 0.407,-0.448 0.866,-1.0947 1.079,-1.6307 l 0.135,1 0.745,0.6827 c -0.563,-0.136 -1.355,-0.1254 -1.959,-0.052"
     id="path607" />
</svg>
