<?xml version="1.0" encoding="UTF-8" standalone="no"?>
<!-- Created with Inkscape (http://www.inkscape.org/) -->

<svg
   version="1.1"
   id="svg1"
   width="300.80063"
   height="67.224731"
   viewBox="0 0 300.80061 67.224729"
   sodipodi:docname="cell.svg"
   xmlns:inkscape="http://www.inkscape.org/namespaces/inkscape"
   xmlns:sodipodi="http://sodipodi.sourceforge.net/DTD/sodipodi-0.dtd"
   xmlns="http://www.w3.org/2000/svg"
   xmlns:svg="http://www.w3.org/2000/svg">
  <sodipodi:namedview
     id="namedview1"
     pagecolor="#ffffff"
     bordercolor="#000000"
     borderopacity="0.25"
     inkscape:showpageshadow="2"
     inkscape:pageopacity="0.0"
     inkscape:pagecheckerboard="0"
     inkscape:deskcolor="#d1d1d1">
    <inkscape:page
       x="0"
       y="0"
       inkscape:label="1"
       id="page1"
       width="300.8006"
       height="67.224731"
       margin="0"
       bleed="0" />
  </sodipodi:namedview>
  <defs
     id="defs1" />
  <path
     style="fill:#0098c9;fill-opacity:1;fill-rule:nonzero;stroke:none"
     d="m 13.676331,10.034568 c -1.479,-3.1826003 -2.052,-3.9746003 -2.625,-4.9586003 -2.9019998,-4.99999996 -4.1669998,-4.72929996 -6.2869998,-3.62 -3.005,1.5786 -4.49999997,2.7293 -1.047,7.9946 2.61,4.0000003 3.984,7.3440003 3.984,7.3440003 0.215,1.86 1.996,4.98 2.8299998,5.344 1.405,0.62 1.156,0.4587 2.598,0.364 2.667,-0.156 3.172,-1.2493 3.328,-2.4267 0.151,-1.1773 -0.068,-2.192 -0.926,-4.8639 -0.663,-2.0787 -1.855,-5.1774 -1.855,-5.1774"
     id="path547" />
  <path
     style="fill:none;stroke:#231f20;stroke-width:0.565977;stroke-linecap:butt;stroke-linejoin:miter;stroke-miterlimit:4;stroke-dasharray:none;stroke-opacity:1"
     d="m 13.676331,10.034568 c -1.479,-3.1826003 -2.052,-3.9746003 -2.625,-4.9586003 -2.9019998,-4.99999996 -4.1669998,-4.72929996 -6.2869998,-3.62 -3.005,1.5786 -4.49999997,2.7293 -1.047,7.9946 2.61,4.0000003 3.984,7.3440003 3.984,7.3440003 0.215,1.86 1.996,4.98 2.8299998,5.344 1.405,0.62 1.156,0.4587 2.598,0.364 2.667,-0.156 3.172,-1.2493 3.328,-2.4267 0.151,-1.1773 -0.068,-2.192 -0.926,-4.8639 -0.663,-2.0787 -1.855,-5.1774 -1.855,-5.1774 z"
     id="path548" />
  <path
     style="fill:#231f20;fill-opacity:1;fill-rule:nonzero;stroke:none"
     d="m 4.7593312,40.685168 c -1.094,-0.7973 -0.834,-1.7546 0.016,-2.344 0.26,-0.176 0.297,-0.5933 0.552,-0.7386 0.609,-0.3547 2.281,0.1613 2.208,1.656 -0.004,0.104 0.198,0.9013 0.261,1.516 0.125,1.2133 -0.219,3.6759 -2.391,5.2906 -1.021,0.7557 -1.281,0.0053 -0.958,-0.4213 1.016,-1.3747 0.838,-1.6987 0.974,-2.1507 0.468,-1.5573 -0.662,-2.808 -0.662,-2.808"
     id="path549" />
  <path
     style="fill:none;stroke:#231f20;stroke-width:0.332927;stroke-linecap:butt;stroke-linejoin:miter;stroke-miterlimit:4;stroke-dasharray:none;stroke-opacity:1"
     d="m 4.7593312,40.685168 c -1.094,-0.7973 -0.834,-1.7546 0.016,-2.344 0.26,-0.176 0.297,-0.5933 0.552,-0.7386 0.609,-0.3547 2.281,0.1613 2.208,1.656 -0.004,0.104 0.198,0.9013 0.261,1.516 0.125,1.2133 -0.219,3.6759 -2.391,5.2906 -1.021,0.7557 -1.281,0.0053 -0.958,-0.4213 1.016,-1.3747 0.838,-1.6987 0.974,-2.1507 0.468,-1.5573 -0.662,-2.808 -0.662,-2.808 z"
     id="path550" />
  <path
     style="fill:#231f20;fill-opacity:1;fill-rule:nonzero;stroke:none"
     d="m 2.5833312,40.867868 c -1.324,-0.2867 -1.47,-1.2707 -0.923,-2.1453 0.167,-0.272 0.032,-0.6667 0.208,-0.9067 0.417,-0.5627 2.157,-0.76 2.688,0.6347 0.036,0.1 0.547,0.7453 0.844,1.2813 0.599,1.0627 1.276,3.4586 -0.068,5.808 -0.631,1.104 -1.172,0.52 -1.047,0 0.38,-1.6667 0.088,-1.8907 0.031,-2.3654 -0.192,-1.6093 -1.733,-2.3066 -1.733,-2.3066"
     id="path551" />
  <path
     style="fill:none;stroke:#231f20;stroke-width:0.332927;stroke-linecap:butt;stroke-linejoin:miter;stroke-miterlimit:4;stroke-dasharray:none;stroke-opacity:1"
     d="m 2.5833312,40.867868 c -1.324,-0.2867 -1.47,-1.2707 -0.923,-2.1453 0.167,-0.272 0.032,-0.6667 0.208,-0.9067 0.417,-0.5627 2.157,-0.76 2.688,0.6347 0.036,0.1 0.547,0.7453 0.844,1.2813 0.599,1.0627 1.276,3.4586 -0.068,5.808 -0.631,1.104 -1.172,0.52 -1.047,0 0.38,-1.6667 0.088,-1.8907 0.031,-2.3654 -0.192,-1.6093 -1.733,-2.3066 -1.733,-2.3066 z"
     id="path552" />
  <path
     style="fill:#231f20;fill-opacity:1;fill-rule:nonzero;stroke:none"
     d="m 4.2283312,21.919868 c -2.208,-0.464 -2.708,-0.2546 -2.964,0.672 -0.176,0.6147 -0.54099997,1.1254 -0.66699997,1.4947 -0.41,1.2293 -0.588,3.4733 0.55799997,9.9533 0.261,1.468 0.614,3.5307 0.693,4.3907 0.12,1.348 2.281,0.2346 2.24,-0.2974 -0.136,-1.7133 -0.084,-2.896 -0.053,-3.516 0.026,-0.4266 -0.031,-1.1813 0.276,-2.8226 0.474,-2.484 1.12,-3.9067 1.272,-6.0107 0.066,-0.984 0.744,-1.672 0.317,-2.672 -0.417,-1 -1.672,-1.192 -1.672,-1.192"
     id="path553" />
  <path
     style="fill:none;stroke:#231f20;stroke-width:0.565977;stroke-linecap:round;stroke-linejoin:round;stroke-miterlimit:4;stroke-dasharray:none;stroke-opacity:1"
     d="m 4.2283312,21.919868 c -2.208,-0.464 -2.708,-0.2546 -2.964,0.672 -0.176,0.6147 -0.54099997,1.1254 -0.66699997,1.4947 -0.41,1.2293 -0.588,3.4733 0.55799997,9.9533 0.261,1.468 0.614,3.5307 0.693,4.3907 0.12,1.348 2.281,0.2346 2.24,-0.2974 -0.136,-1.7133 -0.084,-2.896 -0.053,-3.516 0.026,-0.4266 -0.031,-1.1813 0.276,-2.8226 0.474,-2.484 1.12,-3.9067 1.272,-6.0107 0.066,-0.984 0.744,-1.672 0.317,-2.672 -0.417,-1 -1.672,-1.192 -1.672,-1.192 z"
     id="path554" />
  <path
     style="fill:#231f20;fill-opacity:1;fill-rule:nonzero;stroke:#231f20;stroke-width:0.565977;stroke-linecap:round;stroke-linejoin:round;stroke-miterlimit:4;stroke-dasharray:none;stroke-opacity:1"
     d="m 5.4573312,24.111868 c 1.244,-0.7653 0.907,-2.9426 1.011,-3.276 1.463,-4.796 1.448,-5.1666 2.301,-8.8999 1.2459998,-5.3814003 1.2709998,-9.2614003 -1.65,-10.9013003 -1.984,-1.10939996 -3.61,-0.88539996 -4.631,-0.0627 -1.129,0.92669998 -2.39599997,3.84399998 -0.771,6.22929998 l 0.079,1.708 c -0.099,1.1613003 -0.141,1.7347003 -0.235,2.3027003 -0.161,0.9893 -0.276,2.0573 -0.484,4.0053 -0.37599997,3.452 0.359,7.224 0.359,7.224 -0.036,0.3946 0.136,0.7133 0.376,0.9626"
     id="path555" />
  <path
     style="fill:#ffffff;fill-opacity:1;fill-rule:nonzero;stroke:none"
     d="m 5.9683312,21.971868 c -2.245,-0.2453 -2.719,0.0107 -2.885,0.9587 -0.115,0.6293 -0.434,1.172 -0.511,1.5467 -0.292,1.2653 -0.251,3.516 1.525,9.8546 0.407,1.4373 0.959,3.452 1.12,4.3013 0.251,1.3334 2.292,0.0107 2.199,-0.516 -0.303,-1.692 -0.371,-2.8693 -0.396,-3.4946 -0.016,-0.4267 -0.152,-1.1774 0,-2.8387 0.224,-2.5147 0.729,-3.9893 0.672,-6.104 -0.027,-0.984 0.577,-1.7346 0.052,-2.6866 -0.511,-0.9534 -1.776,-1.0214 -1.776,-1.0214"
     id="path556" />
  <path
     style="fill:none;stroke:#231f20;stroke-width:0.565977;stroke-linecap:round;stroke-linejoin:round;stroke-miterlimit:4;stroke-dasharray:none;stroke-opacity:1"
     d="m 5.9683312,21.971868 c -2.245,-0.2453 -2.719,0.0107 -2.885,0.9587 -0.115,0.6293 -0.434,1.172 -0.511,1.5467 -0.292,1.2653 -0.251,3.516 1.525,9.8546 0.407,1.4373 0.959,3.452 1.12,4.3013 0.251,1.3334 2.292,0.0107 2.199,-0.516 -0.303,-1.692 -0.371,-2.8693 -0.396,-3.4946 -0.016,-0.4267 -0.152,-1.1774 0,-2.8387 0.224,-2.5147 0.729,-3.9893 0.672,-6.104 -0.027,-0.984 0.577,-1.7346 0.052,-2.6866 -0.511,-0.9534 -1.776,-1.0214 -1.776,-1.0214 z"
     id="path557" />
  <path
     style="fill:#ffffff;fill-opacity:1;fill-rule:nonzero;stroke:none"
     d="m 16.873331,29.335868 c 0.172,0.1773 -0.421,1.1667 0,1.4693 0.434,0.3027 1.032,-0.208 2.995,0.1454 l 0.021,0.0053 c 1.422,0.3027 2.776,-0.0053 3.584,-0.968 1.339,-1.5893 0.672,-4.3493 -1.496,-6.1666 -2.161,-1.8227 -4.994,-2.0054 -6.328,-0.412 -1.285,1.516 -0.724,4.1146 1.224,5.9266"
     id="path558" />
  <path
     style="fill:none;stroke:#231f20;stroke-width:0.565977;stroke-linecap:butt;stroke-linejoin:miter;stroke-miterlimit:4;stroke-dasharray:none;stroke-opacity:1"
     d="m 16.873331,29.335868 c 0.172,0.1773 -0.421,1.1667 0,1.4693 0.434,0.3027 1.032,-0.208 2.995,0.1454 l 0.021,0.0053 c 1.422,0.3027 2.776,-0.0053 3.584,-0.968 1.339,-1.5893 0.672,-4.3493 -1.496,-6.1666 -2.161,-1.8227 -4.994,-2.0054 -6.328,-0.412 -1.285,1.516 -0.724,4.1146 1.224,5.9266 z"
     id="path559" />
  <path
     style="fill:#ffffff;fill-opacity:1;fill-rule:nonzero;stroke:#231f20;stroke-width:0.565977;stroke-linecap:round;stroke-linejoin:round;stroke-miterlimit:4;stroke-dasharray:none;stroke-opacity:1"
     d="m 7.4053312,24.029268 c 1.162,-0.88 0.615,-3.016 0.683,-3.3547 0.984,-4.9213 0.932,-5.2906 1.421,-9.0826 0.7079998,-5.4840003 0.35,-9.3440003 -2.713,-10.69330026 -2.084,-0.9054 -3.683,-0.5254 -4.62,0.39599996 -1.031,1.0319 -1.99999997,4.0573 -0.151,6.2759 l 0.239,1.6934 c 0.021,1.1666003 0.037,1.7346003 0,2.3066003 -0.067,1.0054 -0.077,2.0787 -0.093,4.0373 -0.031,3.4734 1.068,7.156 1.068,7.156 0.005,0.396 0.202,0.6974 0.468,0.9214"
     id="path560" />
  <path
     style="fill:#0098c9;fill-opacity:1;fill-rule:nonzero;stroke:none"
     d="m 6.2173312,0.58126774 c -2.197,-0.5466 -3.713,0.088 -4.478,1.16139996 -0.84999997,1.1826 -1.30799997,4.3333 0.896,6.2079 l 7.7899998,-0.52 c -0.4779998,-3.724 -1.6399998,-6.2093 -4.2079998,-6.84929996"
     id="path561" />
  <path
     style="fill:none;stroke:#231f20;stroke-width:0.565977;stroke-linecap:butt;stroke-linejoin:miter;stroke-miterlimit:4;stroke-dasharray:none;stroke-opacity:1"
     d="m 6.2173312,0.58126774 c -2.197,-0.5466 -3.713,0.088 -4.478,1.16139996 -0.84999997,1.1826 -1.30799997,4.3333 0.896,6.2079 l 7.7899998,-0.52 c -0.4779998,-3.724 -1.6399998,-6.2093 -4.2079998,-6.84929996 z"
     id="path562" />
  <path
     style="fill:#231f20;fill-opacity:1;fill-rule:nonzero;stroke:none"
     d="m 4.9473312,39.211868 c -0.146,-0.6307 0.765,-2.3493 0.917,-3.9533 0.104,-1.0787 1.452,-3.4747 1.473,-4.5574 0.022,-0.9893 0.12,-1.448 1.26,-1.6146 0.672,-0.104 2.0429998,0.1346 2.1419998,0.636 0.234,1.1706 0.041,2.0933 -0.391,3.072 -0.4889998,1.1093 -2.0889998,4.0106 -2.4319998,4.5213 -0.86,1.2547 -0.808,1.9893 -1.005,2.3493 -0.366,0.6667 -0.714,0.6867 -1.194,0.5414 -0.916,-0.2707 -0.77,-0.9947 -0.77,-0.9947"
     id="path563" />
  <path
     style="fill:none;stroke:#231f20;stroke-width:0.565977;stroke-linecap:butt;stroke-linejoin:miter;stroke-miterlimit:4;stroke-dasharray:none;stroke-opacity:1"
     d="m 4.9473312,39.211868 c -0.146,-0.6307 0.765,-2.3493 0.917,-3.9533 0.104,-1.0787 1.452,-3.4747 1.473,-4.5574 0.022,-0.9893 0.12,-1.448 1.26,-1.6146 0.672,-0.104 2.0429998,0.1346 2.1419998,0.636 0.234,1.1706 0.041,2.0933 -0.391,3.072 -0.4889998,1.1093 -2.0889998,4.0106 -2.4319998,4.5213 -0.86,1.2547 -0.808,1.9893 -1.005,2.3493 -0.366,0.6667 -0.714,0.6867 -1.194,0.5414 -0.916,-0.2707 -0.77,-0.9947 -0.77,-0.9947 z"
     id="path564" />
  <path
     style="fill:#231f20;fill-opacity:1;fill-rule:nonzero;stroke:none"
     d="m 8.0093312,30.679868 c -1.161,-0.568 0.052,-2.2026 0.302,-2.6813 0.256,-0.48 0.824,-1.928 1.12,-3.1147 0.297,-1.188 1.1769998,-2.5426 1.7499998,-4.7973 0.298,-1.188 1.339,-2.1507 3.042,-1.6413 1.682,0.5 2.032,1.636 1.453,3.016 -0.579,1.38 -1.708,2.432 -2.385,3.7813 -0.683,1.3493 -1.251,2.792 -1.642,3.9373 -0.448,1.3133 -1.156,1.792 -1.629,1.828 -1.1929998,0.0893 -2.0109998,-0.328 -2.0109998,-0.328"
     id="path565" />
  <path
     style="fill:none;stroke:#231f20;stroke-width:0.565977;stroke-linecap:butt;stroke-linejoin:miter;stroke-miterlimit:4;stroke-dasharray:none;stroke-opacity:1"
     d="m 8.0093312,30.679868 c -1.161,-0.568 0.052,-2.2026 0.302,-2.6813 0.256,-0.48 0.824,-1.928 1.12,-3.1147 0.297,-1.188 1.1769998,-2.5426 1.7499998,-4.7973 0.298,-1.188 1.339,-2.1507 3.042,-1.6413 1.682,0.5 2.032,1.636 1.453,3.016 -0.579,1.38 -1.708,2.432 -2.385,3.7813 -0.683,1.3493 -1.251,2.792 -1.642,3.9373 -0.448,1.3133 -1.156,1.792 -1.629,1.828 -1.1929998,0.0893 -2.0109998,-0.328 -2.0109998,-0.328 z"
     id="path566" />
  <path
     style="fill:#0098c9;fill-opacity:1;fill-rule:nonzero;stroke:none"
     d="m 47.332331,28.649268 c -3.323,1.1293 -4.172,1.6146 -5.213,2.0773 -5.287,2.344 -5.151,3.6306 -4.276,5.8546 1.245,3.156 2.229,4.7707 7.838,1.9067 4.255,-2.1667 7.73,-3.1667 7.73,-3.1667 1.869,-0.0106 5.161,-1.448 5.614,-2.24 0.765,-1.328 0.577,-1.0986 0.645,-2.5413 0.131,-2.672 -0.901,-3.292 -2.057,-3.5733 -1.15,-0.276 -2.182,-0.172 -4.937,0.396 -2.136,0.4373 -5.344,1.2867 -5.344,1.2867"
     id="path567" />
  <path
     style="fill:none;stroke:#231f20;stroke-width:0.565977;stroke-linecap:butt;stroke-linejoin:miter;stroke-miterlimit:4;stroke-dasharray:none;stroke-opacity:1"
     d="m 47.332331,28.649268 c -3.323,1.1293 -4.172,1.6146 -5.213,2.0773 -5.287,2.344 -5.151,3.6306 -4.276,5.8546 1.245,3.156 2.229,4.7707 7.838,1.9067 4.255,-2.1667 7.73,-3.1667 7.73,-3.1667 1.869,-0.0106 5.161,-1.448 5.614,-2.24 0.765,-1.328 0.577,-1.0986 0.645,-2.5413 0.131,-2.672 -0.901,-3.292 -2.057,-3.5733 -1.15,-0.276 -2.182,-0.172 -4.937,0.396 -2.136,0.4373 -5.344,1.2867 -5.344,1.2867 z"
     id="path568" />
  <path
     style="fill:#231f20;fill-opacity:1;fill-rule:nonzero;stroke:none"
     d="m 76.837331,40.826568 c -0.907,1 -1.828,0.6346 -2.323,-0.276 -0.15,-0.272 -0.557,-0.3547 -0.682,-0.6254 -0.282,-0.6466 0.412,-2.2506 1.89,-2.016 0.104,0.016 0.918,-0.104 1.532,-0.0933 1.224,0.0053 3.634998,0.6147 4.999998,2.9427 0.646,1.0986 -0.125,1.276 -0.516,0.9106 -1.26,-1.1613 -1.598,-1.02 -2.040998,-1.2026 -1.491,-0.6307 -2.86,0.36 -2.86,0.36"
     id="path569" />
  <path
     style="fill:none;stroke:#231f20;stroke-width:0.332927;stroke-linecap:butt;stroke-linejoin:miter;stroke-miterlimit:4;stroke-dasharray:none;stroke-opacity:1"
     d="m 76.837331,40.826568 c -0.907,1 -1.828,0.6346 -2.323,-0.276 -0.15,-0.272 -0.557,-0.3547 -0.682,-0.6254 -0.282,-0.6466 0.412,-2.2506 1.89,-2.016 0.104,0.016 0.918,-0.104 1.532,-0.0933 1.224,0.0053 3.634998,0.6147 4.999998,2.9427 0.646,1.0986 -0.125,1.276 -0.516,0.9106 -1.26,-1.1613 -1.598,-1.02 -2.040998,-1.2026 -1.491,-0.6307 -2.86,0.36 -2.86,0.36 z"
     id="path570" />
  <path
     style="fill:#231f20;fill-opacity:1;fill-rule:nonzero;stroke:none"
     d="m 76.988331,42.335868 c -0.911,1 -1.834,0.636 -2.323,-0.276 -0.151,-0.2707 -0.563,-0.3533 -0.683,-0.624 -0.281,-0.6467 0.412,-2.2507 1.886,-2.016 0.105,0.0213 0.922,-0.104 1.537,-0.0933 1.219,0.0053 3.628998,0.6146 4.999998,2.9426 0.645,1.0987 -0.125,1.2813 -0.521,0.9107 -1.255,-1.156 -1.594,-1.02 -2.036,-1.2027 -1.489998,-0.6306 -2.859998,0.3587 -2.859998,0.3587"
     id="path571" />
  <path
     style="fill:none;stroke:#231f20;stroke-width:0.332927;stroke-linecap:butt;stroke-linejoin:miter;stroke-miterlimit:4;stroke-dasharray:none;stroke-opacity:1"
     d="m 76.988331,42.335868 c -0.911,1 -1.834,0.636 -2.323,-0.276 -0.151,-0.2707 -0.563,-0.3533 -0.683,-0.624 -0.281,-0.6467 0.412,-2.2507 1.886,-2.016 0.105,0.0213 0.922,-0.104 1.537,-0.0933 1.219,0.0053 3.628998,0.6146 4.999998,2.9426 0.645,1.0987 -0.125,1.2813 -0.521,0.9107 -1.255,-1.156 -1.594,-1.02 -2.036,-1.2027 -1.489998,-0.6306 -2.859998,0.3587 -2.859998,0.3587 z"
     id="path572" />
  <path
     style="fill:#231f20;fill-opacity:1;fill-rule:nonzero;stroke:none"
     d="m 58.181331,39.007868 c -0.656,2.1613 -0.489,2.6773 0.411,3.016 0.594,0.2293 1.068,0.636 1.422,0.7866 1.192,0.5214 3.411,0.9014 9.968,0.328 1.486,-0.136 3.574,-0.3026 4.439,-0.3026 1.353,-0.004 0.432,-2.2493 -0.105,-2.2547 -1.714,-0.0213 -2.886,-0.172 -3.504,-0.26 -0.423,-0.0626 -1.183,-0.0733 -2.787,-0.5213 -2.437,-0.692 -3.792,-1.464 -5.876,-1.7973 -0.973,-0.156 -1.599,-0.8907 -2.635,-0.552 -1.032,0.324 -1.333,1.5573 -1.333,1.5573"
     id="path573" />
  <path
     style="fill:none;stroke:#231f20;stroke-width:0.565977;stroke-linecap:round;stroke-linejoin:round;stroke-miterlimit:4;stroke-dasharray:none;stroke-opacity:1"
     d="m 58.181331,39.007868 c -0.656,2.1613 -0.489,2.6773 0.411,3.016 0.594,0.2293 1.068,0.636 1.422,0.7866 1.192,0.5214 3.411,0.9014 9.968,0.328 1.486,-0.136 3.574,-0.3026 4.439,-0.3026 1.353,-0.004 0.432,-2.2493 -0.105,-2.2547 -1.714,-0.0213 -2.886,-0.172 -3.504,-0.26 -0.423,-0.0626 -1.183,-0.0733 -2.787,-0.5213 -2.437,-0.692 -3.792,-1.464 -5.876,-1.7973 -0.973,-0.156 -1.599,-0.8907 -2.635,-0.552 -1.032,0.324 -1.333,1.5573 -1.333,1.5573 z"
     id="path574" />
  <path
     style="fill:#231f20;fill-opacity:1;fill-rule:nonzero;stroke:#231f20;stroke-width:0.565977;stroke-linecap:round;stroke-linejoin:round;stroke-miterlimit:4;stroke-dasharray:none;stroke-opacity:1"
     d="m 60.473331,37.977168 c -0.652,-1.3026 -2.854,-1.1613 -3.166,-1.292 -4.658,-1.88 -5.032,-1.896 -8.667,-3.0826 -5.256,-1.7147 -9.115,-2.0787 -11.005,0.6866 -1.282,1.876 -1.204,3.516 -0.475,4.6094 0.823,1.2093 3.615,2.7186 6.141,1.3133 l 1.708,0.0773 c 1.146,0.1987 1.714,0.2867 2.271,0.4334 0.969,0.2493 2.021,0.4573 3.943,0.832 3.412,0.6826 7.229,0.2813 7.229,0.2813 0.396,0.068 0.724,-0.0667 0.994,-0.2907"
     id="path575" />
  <path
     style="fill:#ffffff;fill-opacity:1;fill-rule:nonzero;stroke:none"
     d="m 58.364331,37.602568 c -0.485,2.2026 -0.282,2.7026 0.64,2.968 0.614,0.1826 1.125,0.5573 1.489,0.6826 1.229,0.4214 3.469,0.6254 9.959,-0.4586 1.469,-0.2494 3.536,-0.5827 4.401,-0.6454 1.348,-0.1093 0.255,-2.2813 -0.281,-2.2453 -1.708,0.1147 -2.891,0.0573 -3.511,0.016 -0.427,-0.032 -1.188,0.0213 -2.823,-0.3027 -2.48,-0.4946 -3.89,-1.156 -6,-1.328 -0.98,-0.0826 -1.661,-0.7653 -2.666,-0.344 -1.006,0.4014 -1.208,1.6574 -1.208,1.6574"
     id="path576" />
  <path
     style="fill:none;stroke:#231f20;stroke-width:0.565977;stroke-linecap:round;stroke-linejoin:round;stroke-miterlimit:4;stroke-dasharray:none;stroke-opacity:1"
     d="m 58.364331,37.602568 c -0.485,2.2026 -0.282,2.7026 0.64,2.968 0.614,0.1826 1.125,0.5573 1.489,0.6826 1.229,0.4214 3.469,0.6254 9.959,-0.4586 1.469,-0.2494 3.536,-0.5827 4.401,-0.6454 1.348,-0.1093 0.255,-2.2813 -0.281,-2.2453 -1.708,0.1147 -2.891,0.0573 -3.511,0.016 -0.427,-0.032 -1.188,0.0213 -2.823,-0.3027 -2.48,-0.4946 -3.89,-1.156 -6,-1.328 -0.98,-0.0826 -1.661,-0.7653 -2.666,-0.344 -1.006,0.4014 -1.208,1.6574 -1.208,1.6574 z"
     id="path577" />
  <path
     style="fill:#ffffff;fill-opacity:1;fill-rule:nonzero;stroke:none"
     d="m 66.868331,27.550568 c 0.193,-0.1467 1.109,0.552 1.458,0.1613 0.344,-0.396 -0.093,-1.0466 0.47,-2.9586 l 0.005,-0.0214 c 0.457,-1.38 0.296,-2.76 -0.573,-3.6666 -1.438,-1.5 -4.255,-1.1347 -6.292,0.8186 -2.047,1.952 -2.536,4.7494 -1.099,6.2494 1.369,1.4373 4.021,1.1666 6.031,-0.5827"
     id="path578" />
  <path
     style="fill:none;stroke:#231f20;stroke-width:0.565977;stroke-linecap:butt;stroke-linejoin:miter;stroke-miterlimit:4;stroke-dasharray:none;stroke-opacity:1"
     d="m 66.868331,27.550568 c 0.193,-0.1467 1.109,0.552 1.458,0.1613 0.344,-0.396 -0.093,-1.0466 0.47,-2.9586 l 0.005,-0.0214 c 0.457,-1.38 0.296,-2.76 -0.573,-3.6666 -1.438,-1.5 -4.255,-1.1347 -6.292,0.8186 -2.047,1.952 -2.536,4.7494 -1.099,6.2494 1.369,1.4373 4.021,1.1666 6.031,-0.5827 z"
     id="path579" />
  <path
     style="fill:#ffffff;fill-opacity:1;fill-rule:nonzero;stroke:#231f20;stroke-width:0.565977;stroke-linecap:round;stroke-linejoin:round;stroke-miterlimit:4;stroke-dasharray:none;stroke-opacity:1"
     d="m 60.566331,36.393168 c -0.75,-1.2493 -2.931,-0.932 -3.259,-1.036 -4.787,-1.516 -5.158,-1.5053 -8.882,-2.396 -5.369,-1.296 -9.249,-1.3586 -10.916,1.5414 -1.13,1.9746 -0.921,3.6 -0.109,4.636 0.916,1.136 3.817,2.4266 6.224,0.828 l 1.708,-0.0574 c 1.161,0.1094 1.729,0.1507 2.297,0.256 0.99,0.1707 2.052,0.296 4,0.5254 3.454,0.4066 7.229,-0.292 7.229,-0.292 0.396,0.0373 0.714,-0.124 0.968,-0.364"
     id="path580" />
  <path
     style="fill:#0098c9;fill-opacity:1;fill-rule:nonzero;stroke:none"
     d="m 37.129331,35.045168 c -0.781,2.124 -0.313,3.6974 0.672,4.5774 1.083,0.9693 4.162,1.7706 6.266,-0.224 l 0.322,-7.8014 c -3.754,0.072 -6.344,0.9574 -7.26,3.448"
     id="path581" />
  <path
     style="fill:none;stroke:#231f20;stroke-width:0.565977;stroke-linecap:butt;stroke-linejoin:miter;stroke-miterlimit:4;stroke-dasharray:none;stroke-opacity:1"
     d="m 37.129331,35.045168 c -0.781,2.124 -0.313,3.6974 0.672,4.5774 1.083,0.9693 4.162,1.7706 6.266,-0.224 l 0.322,-7.8014 c -3.754,0.072 -6.344,0.9574 -7.26,3.448 z"
     id="path582" />
  <path
     style="fill:#231f20;fill-opacity:1;fill-rule:nonzero;stroke:none"
     d="m 75.394331,40.477168 c -0.64,0.0774 -2.249,-1.016 -3.828,-1.3386 -1.062,-0.2187 -3.297,-1.8174 -4.369,-1.9534 -0.985,-0.1293 -1.428,-0.2813 -1.475,-1.432 -0.03,-0.6773 0.355,-2.0106 0.866,-2.0573 1.186,-0.104 2.088,0.188 3.009,0.7187 1.052,0.6093 3.767,2.5106 4.235,2.9066 1.156,0.9947 1.896,1.0147 2.224,1.2494 0.625,0.4373 0.609,0.7866 0.412,1.2506 -0.371,0.88 -1.074,0.656 -1.074,0.656"
     id="path583" />
  <path
     style="fill:none;stroke:#231f20;stroke-width:0.565977;stroke-linecap:butt;stroke-linejoin:miter;stroke-miterlimit:4;stroke-dasharray:none;stroke-opacity:1"
     d="m 75.394331,40.477168 c -0.64,0.0774 -2.249,-1.016 -3.828,-1.3386 -1.062,-0.2187 -3.297,-1.8174 -4.369,-1.9534 -0.985,-0.1293 -1.428,-0.2813 -1.475,-1.432 -0.03,-0.6773 0.355,-2.0106 0.866,-2.0573 1.186,-0.104 2.088,0.188 3.009,0.7187 1.052,0.6093 3.767,2.5106 4.235,2.9066 1.156,0.9947 1.896,1.0147 2.224,1.2494 0.625,0.4373 0.609,0.7866 0.412,1.2506 -0.371,0.88 -1.074,0.656 -1.074,0.656 z"
     id="path584" />
  <path
     style="fill:#231f20;fill-opacity:1;fill-rule:nonzero;stroke:none"
     d="m 67.249331,36.513168 c -0.693,1.0947 -2.188,-0.292 -2.636,-0.588 -0.453,-0.3133 -1.828,-1.032 -2.979,-1.448 -1.152,-0.432 -2.401,-1.448 -4.583,-2.26 -1.14,-0.428 -1.99,-1.5626 -1.296,-3.204 0.676,-1.6146 1.842,-1.8439 3.155,-1.1146 1.307,0.7187 2.23,1.9586 3.5,2.776 1.271,0.824 2.64,1.5426 3.739,2.0573 1.251,0.584 1.652,1.3387 1.636,1.8187 -0.041,1.192 -0.536,1.9626 -0.536,1.9626"
     id="path585" />
  <path
     style="fill:none;stroke:#231f20;stroke-width:0.565977;stroke-linecap:butt;stroke-linejoin:miter;stroke-miterlimit:4;stroke-dasharray:none;stroke-opacity:1"
     d="m 67.249331,36.513168 c -0.693,1.0947 -2.188,-0.292 -2.636,-0.588 -0.453,-0.3133 -1.828,-1.032 -2.979,-1.448 -1.152,-0.432 -2.401,-1.448 -4.583,-2.26 -1.14,-0.428 -1.99,-1.5626 -1.296,-3.204 0.676,-1.6146 1.842,-1.8439 3.155,-1.1146 1.307,0.7187 2.23,1.9586 3.5,2.776 1.271,0.824 2.64,1.5426 3.739,2.0573 1.251,0.584 1.652,1.3387 1.636,1.8187 -0.041,1.192 -0.536,1.9626 -0.536,1.9626 z"
     id="path586" />
  <path
     style="fill:#231f20;fill-opacity:1;fill-rule:nonzero;stroke:none"
     d="m 174.11833,26.059868 c 0.235,1.3334 -0.614,1.8387 -1.64,1.6774 -0.302,-0.0467 -0.62,0.224 -0.912,0.1506 -0.682,-0.1653 -1.526,-1.692 -0.437,-2.7226 0.077,-0.0734 0.479,-0.7867 0.859,-1.2774 0.75,-0.952 2.713,-2.4986 5.385,-2.1506 1.267,0.156 0.937,0.8746 0.407,0.9693 -1.688,0.2813 -1.782,0.64 -2.198,0.8747 -1.412,0.792 -1.464,2.4786 -1.464,2.4786"
     id="path587" />
  <path
     style="fill:none;stroke:#231f20;stroke-width:0.332927;stroke-linecap:butt;stroke-linejoin:miter;stroke-miterlimit:4;stroke-dasharray:none;stroke-opacity:1"
     d="m 174.11833,26.059868 c 0.235,1.3334 -0.614,1.8387 -1.64,1.6774 -0.302,-0.0467 -0.62,0.224 -0.912,0.1506 -0.682,-0.1653 -1.526,-1.692 -0.437,-2.7226 0.077,-0.0734 0.479,-0.7867 0.859,-1.2774 0.75,-0.952 2.713,-2.4986 5.385,-2.1506 1.267,0.156 0.937,0.8746 0.407,0.9693 -1.688,0.2813 -1.782,0.64 -2.198,0.8747 -1.412,0.792 -1.464,2.4786 -1.464,2.4786 z"
     id="path588" />
  <path
     style="fill:#231f20;fill-opacity:1;fill-rule:nonzero;stroke:none"
     d="m 160.26933,38.706568 c 1.459,1.7386 1.969,1.88 2.745,1.312 0.516,-0.3747 1.126,-0.5467 1.448,-0.76 1.083,-0.7134 2.61,-2.36 5.724,-8.1614 0.703,-1.3133 1.708,-3.1519 2.182,-3.8759 0.74,-1.1347 -1.651,-1.5987 -1.943,-1.1507 -0.957,1.4227 -1.728,2.3227 -2.14,2.792 -0.287,0.3226 -0.708,0.948 -1.964,2.0466 -1.905,1.6614 -3.291,2.3654 -4.719,3.932 -0.661,0.724 -1.62,0.8494 -1.905,1.896 -0.287,1.0467 0.572,1.9694 0.572,1.9694"
     id="path589" />
  <path
     style="fill:none;stroke:#231f20;stroke-width:0.565977;stroke-linecap:butt;stroke-linejoin:miter;stroke-miterlimit:4;stroke-dasharray:none;stroke-opacity:1"
     d="m 160.26933,38.706568 c 1.459,1.7386 1.969,1.88 2.745,1.312 0.516,-0.3747 1.126,-0.5467 1.448,-0.76 1.083,-0.7134 2.61,-2.36 5.724,-8.1614 0.703,-1.3133 1.708,-3.1519 2.182,-3.8759 0.74,-1.1347 -1.651,-1.5987 -1.943,-1.1507 -0.957,1.4227 -1.728,2.3227 -2.14,2.792 -0.287,0.3226 -0.708,0.948 -1.964,2.0466 -1.905,1.6614 -3.291,2.3654 -4.719,3.932 -0.661,0.724 -1.62,0.8494 -1.905,1.896 -0.287,1.0467 0.572,1.9694 0.572,1.9694 z"
     id="path590" />
  <path
     style="fill:#0098c9;fill-opacity:1;fill-rule:nonzero;stroke:none"
     d="m 139.85833,55.774868 c 3.094,-0.48 3.812,-0.246 4.703,-0.016 5.604,1.426 6.197,-1.344 5.251,-4.068 -1.111,-3.208 -1.448,-4.38 -7.554,-2.834 -1.697,0.438 -8.421,1.24 -8.421,1.24 -2.443,-0.037 -4.855,1.235 -5.479,2.547 -0.652,1.385 -0.292,0.885 -0.666,2.281 -0.36,1.334 0.224,3.432 1.348,3.954 1.078,0.505 2.448,-0.434 4.609,-1.538 1.709,-0.864 6.209,-1.566 6.209,-1.566"
     id="path591" />
  <path
     style="fill:none;stroke:#231f20;stroke-width:0.565977;stroke-linecap:butt;stroke-linejoin:miter;stroke-miterlimit:4;stroke-dasharray:none;stroke-opacity:1"
     d="m 139.85833,55.774868 c 3.094,-0.48 3.812,-0.246 4.703,-0.016 5.604,1.426 6.197,-1.344 5.251,-4.068 -1.111,-3.208 -1.448,-4.38 -7.554,-2.834 -1.697,0.438 -8.421,1.24 -8.421,1.24 -2.443,-0.037 -4.855,1.235 -5.479,2.547 -0.652,1.385 -0.292,0.885 -0.666,2.281 -0.36,1.334 0.224,3.432 1.348,3.954 1.078,0.505 2.448,-0.434 4.609,-1.538 1.709,-0.864 6.209,-1.566 6.209,-1.566 z"
     id="path592" />
  <path
     style="fill:#ffffff;fill-opacity:1;fill-rule:nonzero;stroke:none"
     d="m 120.69233,55.747868 c -0.23,0.099 -0.943,-0.797 -1.371,-0.505 -0.437,0.297 -0.176,1.036 -1.181,2.756 l -0.011,0.014 c -0.781,1.23 -0.964,2.604 -0.344,3.699 1.027,1.807 3.849,2.14 6.303,0.749 2.457,-1.396 3.618,-3.989 2.593,-5.796 -0.975,-1.734 -3.615,-2.11 -5.989,-0.917"
     id="path593" />
  <path
     style="fill:none;stroke:#231f20;stroke-width:0.565977;stroke-linecap:butt;stroke-linejoin:miter;stroke-miterlimit:4;stroke-dasharray:none;stroke-opacity:1"
     d="m 120.69233,55.747868 c -0.23,0.099 -0.943,-0.797 -1.371,-0.505 -0.437,0.297 -0.176,1.036 -1.181,2.756 l -0.011,0.014 c -0.781,1.23 -0.964,2.604 -0.344,3.699 1.027,1.807 3.849,2.14 6.303,0.749 2.457,-1.396 3.618,-3.989 2.593,-5.796 -0.975,-1.734 -3.615,-2.11 -5.989,-0.917 z"
     id="path594" />
  <path
     style="fill:#231f20;fill-opacity:1;fill-rule:nonzero;stroke:none"
     d="m 162.47833,37.597168 c -2.302,-3.2866 -4.24,0.3067 -4.63,0.5774 -4.12,2.86 -4.344,3.1666 -7.328,5.5573 -4.308,3.464 -6.724,6.489 -5.448,9.589 0.869,2.099 2.281,2.932 3.598,2.916 1.459,-0.025 4.26,-1.53 4.459,-4.416 l 1,-1.39 c 0.792,-0.85 1.181,-1.271 1.604,-1.662 0.745,-0.672 1.495,-1.437 2.869,-2.8384 2.428,-2.4853 4.188,-5.9013 4.188,-5.9013 0.85,-0.9066 -0.312,-2.432 -0.312,-2.432"
     id="path595" />
  <path
     style="fill:none;stroke:#231f20;stroke-width:0.565977;stroke-linecap:butt;stroke-linejoin:miter;stroke-miterlimit:4;stroke-dasharray:none;stroke-opacity:1"
     d="m 162.47833,37.597168 c -2.302,-3.2866 -4.24,0.3067 -4.63,0.5774 -4.12,2.86 -4.344,3.1666 -7.328,5.5573 -4.308,3.464 -6.724,6.489 -5.448,9.589 0.869,2.099 2.281,2.932 3.598,2.916 1.459,-0.025 4.26,-1.53 4.459,-4.416 l 1,-1.39 c 0.792,-0.85 1.181,-1.271 1.604,-1.662 0.745,-0.672 1.495,-1.437 2.869,-2.8384 2.428,-2.4853 4.188,-5.9013 4.188,-5.9013 0.85,-0.9066 -0.312,-2.432 -0.312,-2.432 z"
     id="path596" />
  <path
     style="fill:#0098c9;fill-opacity:1;fill-rule:nonzero;stroke:#231f20;stroke-width:0.565977;stroke-linecap:butt;stroke-linejoin:miter;stroke-miterlimit:4;stroke-dasharray:none;stroke-opacity:1"
     d="m 146.97733,46.097168 c -0.389,0.5307 -0.723,1.0417 -1.025,1.5417 -0.058,0.046 -0.12,0.098 -0.183,0.14 -0.692,0.422 -0.776,1.048 -0.869,2.089 -0.47,1.479 -0.418,2.839 0.364,4.083 1.204,1.922 2.734,2.51 4.032,2.276 1.432,-0.276 3.948,-2.219 3.661,-5.099 z"
     id="path597" />
  <path
     style="fill:#231f20;fill-opacity:1;fill-rule:nonzero;stroke:none"
     d="m 113.28033,44.638468 c 0.636,-0.084 2.25,1.0054 3.828,1.3227 1.062,0.2137 3.302,1.8077 4.38,1.9427 0.98,0.12 1.422,0.271 1.474,1.423 0.031,0.681 -0.349,2.014 -0.86,2.057 -1.186,0.115 -2.088,-0.177 -3.014,-0.709 -1.054,-0.604 -3.772,-2.495 -4.24,-2.886 -1.156,-0.989 -1.896,-1.014 -2.23,-1.249 -0.625,-0.432 -0.614,-0.7814 -0.421,-1.24 0.375,-0.8907 1.083,-0.6614 1.083,-0.6614"
     id="path598" />
  <path
     style="fill:none;stroke:#231f20;stroke-width:0.565977;stroke-linecap:butt;stroke-linejoin:miter;stroke-miterlimit:4;stroke-dasharray:none;stroke-opacity:1"
     d="m 113.28033,44.638468 c 0.636,-0.084 2.25,1.0054 3.828,1.3227 1.062,0.2137 3.302,1.8077 4.38,1.9427 0.98,0.12 1.422,0.271 1.474,1.423 0.031,0.681 -0.349,2.014 -0.86,2.057 -1.186,0.115 -2.088,-0.177 -3.014,-0.709 -1.054,-0.604 -3.772,-2.495 -4.24,-2.886 -1.156,-0.989 -1.896,-1.014 -2.23,-1.249 -0.625,-0.432 -0.614,-0.7814 -0.421,-1.24 0.375,-0.8907 1.083,-0.6614 1.083,-0.6614 z"
     id="path599" />
  <path
     style="fill:#231f20;fill-opacity:1;fill-rule:nonzero;stroke:none"
     d="m 121.43633,48.570868 c 0.688,-1.094 2.188,0.286 2.636,0.584 0.453,0.301 1.833,1.02 2.978,1.437 1.151,0.421 2.407,1.443 4.594,2.24 1.146,0.427 1.996,1.561 1.313,3.203 -0.677,1.614 -1.844,1.844 -3.156,1.125 -1.308,-0.719 -2.235,-1.948 -3.511,-2.767 -1.27,-0.822 -2.641,-1.536 -3.745,-2.046 -1.255,-0.578 -1.656,-1.334 -1.64,-1.807 0.031,-1.193 0.531,-1.969 0.531,-1.969"
     id="path600" />
  <path
     style="fill:none;stroke:#231f20;stroke-width:0.565977;stroke-linecap:butt;stroke-linejoin:miter;stroke-miterlimit:4;stroke-dasharray:none;stroke-opacity:1"
     d="m 121.43633,48.570868 c 0.688,-1.094 2.188,0.286 2.636,0.584 0.453,0.301 1.833,1.02 2.978,1.437 1.151,0.421 2.407,1.443 4.594,2.24 1.146,0.427 1.996,1.561 1.313,3.203 -0.677,1.614 -1.844,1.844 -3.156,1.125 -1.308,-0.719 -2.235,-1.948 -3.511,-2.767 -1.27,-0.822 -2.641,-1.536 -3.745,-2.046 -1.255,-0.578 -1.656,-1.334 -1.64,-1.807 0.031,-1.193 0.531,-1.969 0.531,-1.969 z"
     id="path601" />
  <path
     style="fill:#231f20;fill-opacity:1;fill-rule:nonzero;stroke:none"
     d="m 218.27433,45.857168 c 0.297,0.5737 2.099,1.3027 3.251,2.4217 0.77,0.761 3.348,1.72 4.062,2.537 0.651,0.744 1.026,1.031 2.004,0.416 0.579,-0.353 1.47,-1.411 1.224,-1.859 -0.577,-1.052 -1.317,-1.63 -2.276,-2.098 -1.093,-0.538 -4.186,-1.7244 -4.776,-1.8857 -1.468,-0.412 -1.9,-1.0053 -2.281,-1.1467 -0.708,-0.2706 -0.989,-0.0733 -1.271,0.3494 -0.52,0.8013 0.063,1.2653 0.063,1.2653"
     id="path602" />
  <path
     style="fill:none;stroke:#231f20;stroke-width:0.565977;stroke-linecap:butt;stroke-linejoin:miter;stroke-miterlimit:4;stroke-dasharray:none;stroke-opacity:1"
     d="m 218.27433,45.857168 c 0.297,0.5737 2.099,1.3027 3.251,2.4217 0.77,0.761 3.348,1.72 4.062,2.537 0.651,0.744 1.026,1.031 2.004,0.416 0.579,-0.353 1.47,-1.411 1.224,-1.859 -0.577,-1.052 -1.317,-1.63 -2.276,-2.098 -1.093,-0.538 -4.186,-1.7244 -4.776,-1.8857 -1.468,-0.412 -1.9,-1.0053 -2.281,-1.1467 -0.708,-0.2706 -0.989,-0.0733 -1.271,0.3494 -0.52,0.8013 0.063,1.2653 0.063,1.2653 z"
     id="path603" />
  <path
     style="fill:#231f20;fill-opacity:1;fill-rule:nonzero;stroke:none"
     d="m 226.46233,50.815868 c -0.084,1.296 1.937,1.047 2.479,1.063 0.541,0.014 2.089,0.238 3.26,0.562 1.182,0.328 2.792,0.228 5.037,0.854 1.183,0.322 2.531,-0.11 2.932,-1.839 0.385,-1.719 -0.421,-2.577 -1.912,-2.755 -1.484,-0.177 -2.952,0.287 -4.468,0.208 -1.505,-0.073 -3.041,-0.286 -4.229,-0.516 -1.355,-0.26 -2.126,0.12 -2.391,0.516 -0.667,0.995 -0.708,1.907 -0.708,1.907"
     id="path604" />
  <path
     style="fill:none;stroke:#231f20;stroke-width:0.565977;stroke-linecap:butt;stroke-linejoin:miter;stroke-miterlimit:4;stroke-dasharray:none;stroke-opacity:1"
     d="m 226.46233,50.815868 c -0.084,1.296 1.937,1.047 2.479,1.063 0.541,0.014 2.089,0.238 3.26,0.562 1.182,0.328 2.792,0.228 5.037,0.854 1.183,0.322 2.531,-0.11 2.932,-1.839 0.385,-1.719 -0.421,-2.577 -1.912,-2.755 -1.484,-0.177 -2.952,0.287 -4.468,0.208 -1.505,-0.073 -3.041,-0.286 -4.229,-0.516 -1.355,-0.26 -2.126,0.12 -2.391,0.516 -0.667,0.995 -0.708,1.907 -0.708,1.907 z"
     id="path605" />
  <path
     style="fill:#231f20;fill-opacity:1;fill-rule:nonzero;stroke:none"
     d="m 230.75833,24.909268 c 0.412,0.5 2.329,0.828 3.688,1.6826 0.921,0.5774 3.641,0.9627 4.511,1.604 0.801,0.5934 1.224,0.7813 2.052,-0.016 0.489,-0.4733 1.136,-1.6973 0.797,-2.0826 -0.781,-0.9014 -1.636,-1.308 -2.672,-1.568 -1.183,-0.2814 -4.453,-0.7814 -5.068,-0.8174 -1.521,-0.0893 -2.073,-0.5733 -2.475,-0.636 -0.754,-0.12 -0.978,0.1454 -1.156,0.6147 -0.348,0.9013 0.323,1.2187 0.323,1.2187"
     id="path606" />
  <path
     style="fill:none;stroke:#231f20;stroke-width:0.565977;stroke-linecap:butt;stroke-linejoin:miter;stroke-miterlimit:4;stroke-dasharray:none;stroke-opacity:1"
     d="m 230.75833,24.909268 c 0.412,0.5 2.329,0.828 3.688,1.6826 0.921,0.5774 3.641,0.9627 4.511,1.604 0.801,0.5934 1.224,0.7813 2.052,-0.016 0.489,-0.4733 1.136,-1.6973 0.797,-2.0826 -0.781,-0.9014 -1.636,-1.308 -2.672,-1.568 -1.183,-0.2814 -4.453,-0.7814 -5.068,-0.8174 -1.521,-0.0893 -2.073,-0.5733 -2.475,-0.636 -0.754,-0.12 -0.978,0.1454 -1.156,0.6147 -0.348,0.9013 0.323,1.2187 0.323,1.2187 z"
     id="path607" />
  <path
     style="fill:#231f20;fill-opacity:1;fill-rule:nonzero;stroke:none"
     d="m 239.37833,26.487868 c -1.229,0.4214 -0.219,2.1867 -0.025,2.692 0.197,0.516 0.588,2.0213 0.744,3.2293 0.152,1.2187 0.865,2.6614 1.161,4.9747 0.157,1.2133 1.073,2.296 2.824,1.9893 1.733,-0.3026 2.219,-1.38 1.807,-2.8226 -0.411,-1.4427 -1.407,-2.62 -1.916,-4.0427 -0.516,-1.416 -0.907,-2.916 -1.167,-4.0986 -0.281,-1.3534 -0.933,-1.916 -1.396,-2.0054 -1.172,-0.2346 -2.032,0.084 -2.032,0.084"
     id="path608" />
  <path
     style="fill:none;stroke:#231f20;stroke-width:0.565977;stroke-linecap:butt;stroke-linejoin:miter;stroke-miterlimit:4;stroke-dasharray:none;stroke-opacity:1"
     d="m 239.37833,26.487868 c -1.229,0.4214 -0.219,2.1867 -0.025,2.692 0.197,0.516 0.588,2.0213 0.744,3.2293 0.152,1.2187 0.865,2.6614 1.161,4.9747 0.157,1.2133 1.073,2.296 2.824,1.9893 1.733,-0.3026 2.219,-1.38 1.807,-2.8226 -0.411,-1.4427 -1.407,-2.62 -1.916,-4.0427 -0.516,-1.416 -0.907,-2.916 -1.167,-4.0986 -0.281,-1.3534 -0.933,-1.916 -1.396,-2.0054 -1.172,-0.2346 -2.032,0.084 -2.032,0.084 z"
     id="path609" />
  <path
     style="fill:#231f20;fill-opacity:1;fill-rule:nonzero;stroke:none"
     d="m 225.15433,22.263868 c 0.719,-0.1306 3.923,0.4014 4.652,0.552 0.651,0.14 1.801,0.0054 2.072,1.1294 0.115,0.4533 -0.047,1.1933 -0.192,1.48 -0.12,0.2346 -0.448,0.2653 -0.828,0.1453 -0.631,-0.192 -0.74,-0.4947 -1.937,-0.9427 0,0 -0.267,-0.1453 -0.73,-0.4426 -1.376,-0.8747 -0.693,-0.62 -2.964,-1.4427 -0.161,-0.052 -0.224,-0.26 -0.177,-0.364 0.079,-0.1613 0.104,-0.1147 0.104,-0.1147"
     id="path610" />
  <path
     style="fill:none;stroke:#231f20;stroke-width:0.565977;stroke-linecap:round;stroke-linejoin:round;stroke-miterlimit:4;stroke-dasharray:none;stroke-opacity:1"
     d="m 225.15433,22.263868 c 0.719,-0.1306 3.923,0.4014 4.652,0.552 0.651,0.14 1.801,0.0054 2.072,1.1294 0.115,0.4533 -0.047,1.1933 -0.192,1.48 -0.12,0.2346 -0.448,0.2653 -0.828,0.1453 -0.631,-0.192 -0.74,-0.4947 -1.937,-0.9427 0,0 -0.267,-0.1453 -0.73,-0.4426 -1.376,-0.8747 -0.693,-0.62 -2.964,-1.4427 -0.161,-0.052 -0.224,-0.26 -0.177,-0.364 0.079,-0.1613 0.104,-0.1147 0.104,-0.1147 z"
     id="path611" />
  <path
     style="fill:none;stroke:#231f20;stroke-width:0.399514;stroke-linecap:butt;stroke-linejoin:miter;stroke-miterlimit:4;stroke-dasharray:none;stroke-opacity:1"
     d="m 265.19733,67.086868 c 18.281,-19.167 9.156,-28.8123 1.29,-25.8177"
     id="path612" />
  <path
     style="fill:#231f20;fill-opacity:1;fill-rule:nonzero;stroke:none"
     d="m 265.36333,41.701168 c 0.452,-0.4013 0.984,-0.984 1.255,-1.4946 l 0.016,1.0106 0.661,0.7654 c -0.541,-0.204 -1.328,-0.2867 -1.932,-0.2814"
     id="path613" />
  <path
     style="fill:#231f20;fill-opacity:1;fill-rule:nonzero;stroke:none"
     d="m 232.45733,42.941168 c 2.093,1.8907 4.921,2.176 6.312,0.6347 1.39,-1.5467 0.818,-4.328 -1.282,-6.2187 -2.098,-1.896 -4.926,-2.1773 -6.312,-0.6346 -1.39,1.5413 -0.817,4.328 1.282,6.2186"
     id="path614" />
  <path
     style="fill:none;stroke:#231f20;stroke-width:0.565977;stroke-linecap:butt;stroke-linejoin:miter;stroke-miterlimit:4;stroke-dasharray:none;stroke-opacity:1"
     d="m 232.45733,42.941168 c 2.093,1.8907 4.921,2.176 6.312,0.6347 1.39,-1.5467 0.818,-4.328 -1.282,-6.2187 -2.098,-1.896 -4.926,-2.1773 -6.312,-0.6346 -1.39,1.5413 -0.817,4.328 1.282,6.2186 z"
     id="path615" />
  <path
     style="fill:#231f20;fill-opacity:1;fill-rule:nonzero;stroke:none"
     d="m 255.31533,47.602868 c 1.303,-3.3657 2.719,-2.4644 6.767,-1.975 4.432,0.537 8.989,1.573 11.853,3.208 3.21,1.824 3.604,1.485 3.558,3.401 -0.047,1.923 -0.828,1.923 -1.875,2.667 -1.213,0.871 -7.781,-2.448 -12.516,-2.853 -2.219,-0.194 -7.656,0.796 -7.869,-0.636 -0.219,-1.443 0.082,-3.812 0.082,-3.812"
     id="path616" />
  <path
     style="fill:none;stroke:#231f20;stroke-width:0.565977;stroke-linecap:butt;stroke-linejoin:miter;stroke-miterlimit:4;stroke-dasharray:none;stroke-opacity:1"
     d="m 255.31533,47.602868 c 1.303,-3.3657 2.719,-2.4644 6.767,-1.975 4.432,0.537 8.989,1.573 11.853,3.208 3.21,1.824 3.604,1.485 3.558,3.401 -0.047,1.923 -0.828,1.923 -1.875,2.667 -1.213,0.871 -7.781,-2.448 -12.516,-2.853 -2.219,-0.194 -7.656,0.796 -7.869,-0.636 -0.219,-1.443 0.082,-3.812 0.082,-3.812 z"
     id="path617" />
  <path
     style="fill:#231f20;fill-opacity:1;fill-rule:nonzero;stroke:none"
     d="m 275.31533,52.826868 c 0.314,-2.24 0.371,-2.907 2.767,-2.172 0.604,0.192 2.26,0.833 2.651,0.844 1.301,0.03 2.801,0.176 8.521,3.442 0.88,0.504 2.739,1.182 4.015,1.771 1.234,0.567 -0.547,2.229 -1.036,2.011 -1.563,-0.699 -2.724,-0.814 -3.318,-0.986 -0.412,-0.125 -1.141,-0.473 -2.802,-0.541 -4.271,-0.172 -5.318,-1.636 -6.208,-1.751 -2.563,-0.322 -4.823,-0.072 -4.98,-0.718 -0.26,-1.052 0.39,-1.9 0.39,-1.9"
     id="path618" />
  <path
     style="fill:none;stroke:#231f20;stroke-width:0.565977;stroke-linecap:butt;stroke-linejoin:miter;stroke-miterlimit:4;stroke-dasharray:none;stroke-opacity:1"
     d="m 275.31533,52.826868 c 0.314,-2.24 0.371,-2.907 2.767,-2.172 0.604,0.192 2.26,0.833 2.651,0.844 1.301,0.03 2.801,0.176 8.521,3.442 0.88,0.504 2.739,1.182 4.015,1.771 1.234,0.567 -0.547,2.229 -1.036,2.011 -1.563,-0.699 -2.724,-0.814 -3.318,-0.986 -0.412,-0.125 -1.141,-0.473 -2.802,-0.541 -4.271,-0.172 -5.318,-1.636 -6.208,-1.751 -2.563,-0.322 -4.823,-0.072 -4.98,-0.718 -0.26,-1.052 0.39,-1.9 0.39,-1.9 z"
     id="path619" />
  <path
     style="fill:#231f20;fill-opacity:1;fill-rule:nonzero;stroke:none"
     d="m 254.16533,53.722868 c -0.224,3.598 1.442,3.374 5.328,4.618 4.25,1.355 8.828,2.324 12.114,2.032 3.667,-0.317 3.886,0.151 4.647,-1.609 0.76,-1.761 0.052,-2.095 -0.589,-3.209 -0.744,-1.291 -8.099,-1.015 -12.568,-2.624 -2.094,-0.756 -6.624,-3.923 -7.422,-2.71 -0.792,1.22 -1.51,3.502 -1.51,3.502"
     id="path620" />
  <path
     style="fill:none;stroke:#231f20;stroke-width:0.565977;stroke-linecap:butt;stroke-linejoin:miter;stroke-miterlimit:4;stroke-dasharray:none;stroke-opacity:1"
     d="m 254.16533,53.722868 c -0.224,3.598 1.442,3.374 5.328,4.618 4.25,1.355 8.828,2.324 12.114,2.032 3.667,-0.317 3.886,0.151 4.647,-1.609 0.76,-1.761 0.052,-2.095 -0.589,-3.209 -0.744,-1.291 -8.099,-1.015 -12.568,-2.624 -2.094,-0.756 -6.624,-3.923 -7.422,-2.71 -0.792,1.22 -1.51,3.502 -1.51,3.502 z"
     id="path621" />
  <path
     style="fill:#231f20;fill-opacity:1;fill-rule:nonzero;stroke:none"
     d="m 274.50333,57.340868 c -0.645,2.172 -0.86,2.798 1.626,3.12 0.634,0.074 2.405,0.172 2.765,0.323 1.188,0.511 2.62,0.995 9.177,0.376 1.016,-0.095 2.984,0.052 4.391,0.041 1.353,-0.016 0.421,-2.26 -0.115,-2.256 -1.713,-0.009 -2.817,-0.385 -3.432,-0.468 -0.428,-0.057 -1.234,-0.036 -2.776,-0.666 -3.964,-1.61 -5.516,-0.699 -6.376,-0.97 -2.468,-0.754 -4.421,-1.916 -4.833,-1.39 -0.672,0.849 -0.427,1.89 -0.427,1.89"
     id="path622" />
  <path
     style="fill:none;stroke:#231f20;stroke-width:0.565977;stroke-linecap:butt;stroke-linejoin:miter;stroke-miterlimit:4;stroke-dasharray:none;stroke-opacity:1"
     d="m 274.50333,57.340868 c -0.645,2.172 -0.86,2.798 1.626,3.12 0.634,0.074 2.405,0.172 2.765,0.323 1.188,0.511 2.62,0.995 9.177,0.376 1.016,-0.095 2.984,0.052 4.391,0.041 1.353,-0.016 0.421,-2.26 -0.115,-2.256 -1.713,-0.009 -2.817,-0.385 -3.432,-0.468 -0.428,-0.057 -1.234,-0.036 -2.776,-0.666 -3.964,-1.61 -5.516,-0.699 -6.376,-0.97 -2.468,-0.754 -4.421,-1.916 -4.833,-1.39 -0.672,0.849 -0.427,1.89 -0.427,1.89 z"
     id="path623" />
  <path
     style="fill:#231f20;fill-opacity:1;fill-rule:nonzero;stroke:none"
     d="m 295.69133,62.586868 c -0.646,0.161 -1.724,-1.287 -3.646,-1.703 -0.391,-0.084 -0.667,-0.339 -0.984,-0.543 -1.26,-0.828 -1.948,-2.27 1.88,-2.442 0.521,-0.02 2.474,0.766 3.25,0.666 1.854,-0.233 4.386,1.918 4.151,2.38 -0.5,1 -4.651,1.642 -4.651,1.642"
     id="path624" />
  <path
     style="fill:none;stroke:#231f20;stroke-width:0.644548;stroke-linecap:round;stroke-linejoin:round;stroke-miterlimit:4;stroke-dasharray:none;stroke-opacity:1"
     d="m 295.69133,62.586868 c -0.646,0.161 -1.724,-1.287 -3.646,-1.703 -0.391,-0.084 -0.667,-0.339 -0.984,-0.543 -1.26,-0.828 -1.948,-2.27 1.88,-2.442 0.521,-0.02 2.474,0.766 3.25,0.666 1.854,-0.233 4.386,1.918 4.151,2.38 -0.5,1 -4.651,1.642 -4.651,1.642 z"
     id="path625" />
  <path
     style="fill:#231f20;fill-opacity:1;fill-rule:nonzero;stroke:none"
     d="m 297.06133,56.596868 c -0.506,-0.437 -2.11,0.375 -4.022,-0.125 -0.385,-0.093 -0.749,0.005 -1.118,0.047 -1.506,0.172 -2.767,1.15 0.577,3.021 0.464,0.26 2.552,0.437 3.208,0.869 1.543,1.042 4.776,0.266 4.772,-0.26 0.009,-1.114 -3.417,-3.552 -3.417,-3.552"
     id="path626" />
  <path
     style="fill:none;stroke:#231f20;stroke-width:0.644548;stroke-linecap:round;stroke-linejoin:round;stroke-miterlimit:4;stroke-dasharray:none;stroke-opacity:1"
     d="m 297.06133,56.596868 c -0.506,-0.437 -2.11,0.375 -4.022,-0.125 -0.385,-0.093 -0.749,0.005 -1.118,0.047 -1.506,0.172 -2.767,1.15 0.577,3.021 0.464,0.26 2.552,0.437 3.208,0.869 1.543,1.042 4.776,0.266 4.772,-0.26 0.009,-1.114 -3.417,-3.552 -3.417,-3.552 z"
     id="path627" />
  <path
     style="fill:#231f20;fill-opacity:1;fill-rule:nonzero;stroke:none"
     d="m 260.08733,47.424868 c -0.666,0.287 -3.037,2.516 -3.557,3.042 -0.469,0.474 -1.496,1.01 -1.1,2.093 0.161,0.433 0.704,0.964 0.985,1.12 0.224,0.125 0.515,-0.02 0.766,-0.333 0.421,-0.515 0.344,-0.834 1.082,-1.864 0,0 0.142,-0.271 0.366,-0.771 0.661,-1.495 0.229,-0.901 1.666,-2.849 0.104,-0.136 0.036,-0.339 -0.062,-0.402 -0.151,-0.093 -0.146,-0.036 -0.146,-0.036"
     id="path628" />
  <path
     style="fill:none;stroke:#231f20;stroke-width:0.565977;stroke-linecap:round;stroke-linejoin:round;stroke-miterlimit:4;stroke-dasharray:none;stroke-opacity:1"
     d="m 260.08733,47.424868 c -0.666,0.287 -3.037,2.516 -3.557,3.042 -0.469,0.474 -1.496,1.01 -1.1,2.093 0.161,0.433 0.704,0.964 0.985,1.12 0.224,0.125 0.515,-0.02 0.766,-0.333 0.421,-0.515 0.344,-0.834 1.082,-1.864 0,0 0.142,-0.271 0.366,-0.771 0.661,-1.495 0.229,-0.901 1.666,-2.849 0.104,-0.136 0.036,-0.339 -0.062,-0.402 -0.151,-0.093 -0.146,-0.036 -0.146,-0.036 z"
     id="path629" />
  <path
     style="fill:#0098c9;fill-opacity:1;fill-rule:nonzero;stroke:none"
     d="m 261.22233,53.408868 c 0,0 -4.875,-3.224 -5.011,-6.333 l 0.147,-0.328 c 1.172,-0.427 -1.219,-0.145 -1.88,-0.495 -2.881,-1.4997 -6.693,-4.8903 -7.444,-5.9997 -1.025,-1.5213 -0.333,-4.052 -2.495,-3.9426 0,0 -1.926,-0.2707 -2.838,2.38 -0.338,0.964 -1.963,2.6253 -1.963,2.6253 0,0 -1.032,0.8746 -1.573,1.9053 -0.474,0.9067 -0.516,2.0373 -0.522,2.2973 l -0.004,0.0054 c 0,0 -0.344,2.303 -0.906,3.145 -1.568,2.334 0.082,3.776 0.082,3.776 1.215,1.787 2.548,-0.358 4.382,-0.452 1.333,-0.073 6.333,0.922 9.276,2.318 0.666,0.317 1.894,2.396 1.52,1.202 l 0.177,-0.317 c 2.557,-1.765 8.073,0.183 8.073,0.183 0,0 0.651,-0.35 0.87,-0.792 0.224,-0.443 0.109,-1.178 0.109,-1.178"
     id="path630" />
  <path
     style="fill:none;stroke:#231f20;stroke-width:0.565977;stroke-linecap:butt;stroke-linejoin:miter;stroke-miterlimit:4;stroke-dasharray:none;stroke-opacity:1"
     d="m 261.22233,53.408868 c 0,0 -4.875,-3.224 -5.011,-6.333 l 0.147,-0.328 c 1.172,-0.427 -1.219,-0.145 -1.88,-0.495 -2.881,-1.4997 -6.693,-4.8903 -7.444,-5.9997 -1.025,-1.5213 -0.333,-4.052 -2.495,-3.9426 0,0 -1.926,-0.2707 -2.838,2.38 -0.338,0.964 -1.963,2.6253 -1.963,2.6253 0,0 -1.032,0.8746 -1.573,1.9053 -0.474,0.9067 -0.516,2.0373 -0.522,2.2973 l -0.004,0.0054 c 0,0 -0.344,2.303 -0.906,3.145 -1.568,2.334 0.082,3.776 0.082,3.776 1.215,1.787 2.548,-0.358 4.382,-0.452 1.333,-0.073 6.333,0.922 9.276,2.318 0.666,0.317 1.894,2.396 1.52,1.202 l 0.177,-0.317 c 2.557,-1.765 8.073,0.183 8.073,0.183 0,0 0.651,-0.35 0.87,-0.792 0.224,-0.443 0.109,-1.178 0.109,-1.178 z"
     id="path631" />
  <path
     style="fill:#0098c9;fill-opacity:1;fill-rule:nonzero;stroke:none"
     d="m 250.94633,55.050868 c 0.219,0.27 1.208,1.218 1.573,1.5 2.364,1.801 6.198,2.77 7.323,3.364 1.131,0.598 2.839,-5.766 2.839,-5.766 l -0.98,-1.093 c 0.537,-0.319 0.053,-0.177 0.053,-0.177 l 1.52,-0.558 c 0,0 1.975,-6.152 0.964,-6.2757 -1.38,-0.1773 -5.86,-1.3333 -8.287,-1.0427 -1.338,0.1627 -2.193,0.7347 -2.193,0.7347 0,0 0.063,3.7977 -0.317,5.1717 -0.386,1.37 -2.495,4.142 -2.495,4.142"
     id="path632" />
  <path
     style="fill:none;stroke:#231f20;stroke-width:0.565977;stroke-linecap:butt;stroke-linejoin:miter;stroke-miterlimit:4;stroke-dasharray:none;stroke-opacity:1"
     d="m 250.94633,55.050868 c 0.219,0.27 1.208,1.218 1.573,1.5 2.364,1.801 6.198,2.77 7.323,3.364 1.131,0.598 2.839,-5.766 2.839,-5.766 l -0.98,-1.093 c 0.537,-0.319 0.053,-0.177 0.053,-0.177 l 1.52,-0.558 c 0,0 1.975,-6.152 0.964,-6.2757 -1.38,-0.1773 -5.86,-1.3333 -8.287,-1.0427 -1.338,0.1627 -2.193,0.7347 -2.193,0.7347 0,0 0.063,3.7977 -0.317,5.1717 -0.386,1.37 -2.495,4.142 -2.495,4.142 z"
     id="path633" />
  <path
     style="fill:none;stroke:#231f20;stroke-width:0.565977;stroke-linecap:round;stroke-linejoin:round;stroke-miterlimit:4;stroke-dasharray:none;stroke-opacity:1"
     d="m 260.44133,55.935868 c 1.541,-0.933 1.141,-3.063 1.141,-3.063 1.088,-1.48 0.765,-3.052 0.765,-3.052"
     id="path634" />
  <path
     style="fill:#ffffff;fill-opacity:1;fill-rule:nonzero;stroke:none"
     d="m 78.154331,45.441168 c 1.022,0.14 1.953998,-0.5787 2.089998,-1.5947 0.14,-1.02 -0.573998,-1.9586 -1.594998,-2.0933 -1.015,-0.136 -1.952,0.5787 -2.088,1.5987 -0.136,1.016 0.579,1.948 1.593,2.0893"
     id="path635" />
  <path
     style="fill:none;stroke:#231f20;stroke-width:1.33171;stroke-linecap:butt;stroke-linejoin:miter;stroke-miterlimit:4;stroke-dasharray:none;stroke-opacity:1"
     d="m 78.154331,45.441168 c 1.022,0.14 1.953998,-0.5787 2.089998,-1.5947 0.14,-1.02 -0.573998,-1.9586 -1.594998,-2.0933 -1.015,-0.136 -1.952,0.5787 -2.088,1.5987 -0.136,1.016 0.579,1.948 1.593,2.0893 z"
     id="path636" />
  <path
     style="fill:#ffffff;fill-opacity:1;fill-rule:nonzero;stroke:none"
     d="m 2.5833312,45.441168 c 1.014,0.14 1.952,-0.5787 2.088,-1.5947 0.141,-1.02 -0.574,-1.9586 -1.594,-2.0933 -1.016,-0.136 -1.953,0.5787 -2.09399997,1.5987 -0.135,1.016 0.57799997,1.948 1.59999997,2.0893"
     id="path637" />
  <path
     style="fill:none;stroke:#231f20;stroke-width:1.33171;stroke-linecap:butt;stroke-linejoin:miter;stroke-miterlimit:4;stroke-dasharray:none;stroke-opacity:1"
     d="m 2.5833312,45.441168 c 1.014,0.14 1.952,-0.5787 2.088,-1.5947 0.141,-1.02 -0.574,-1.9586 -1.594,-2.0933 -1.016,-0.136 -1.953,0.5787 -2.09399997,1.5987 -0.135,1.016 0.57799997,1.948 1.59999997,2.0893 z"
     id="path638" />
  <path
     style="fill:#ffffff;fill-opacity:1;fill-rule:nonzero;stroke:none"
     d="m 111.46833,45.441168 c 1.02,0.14 1.953,-0.5787 2.088,-1.5947 0.141,-1.02 -0.574,-1.9586 -1.588,-2.0933 -1.022,-0.136 -1.959,0.5787 -2.095,1.5987 -0.135,1.016 0.573,1.948 1.595,2.0893"
     id="path639" />
  <path
     style="fill:none;stroke:#231f20;stroke-width:1.33171;stroke-linecap:butt;stroke-linejoin:miter;stroke-miterlimit:4;stroke-dasharray:none;stroke-opacity:1"
     d="m 111.46833,45.441168 c 1.02,0.14 1.953,-0.5787 2.088,-1.5947 0.141,-1.02 -0.574,-1.9586 -1.588,-2.0933 -1.022,-0.136 -1.959,0.5787 -2.095,1.5987 -0.135,1.016 0.573,1.948 1.595,2.0893 z"
     id="path640" />
  <path
     style="fill:#ffffff;fill-opacity:1;fill-rule:nonzero;stroke:none"
     d="m 217.39933,45.441168 c 1.022,0.14 1.954,-0.5787 2.088,-1.5947 0.142,-1.02 -0.572,-1.9586 -1.588,-2.0933 -1.021,-0.136 -1.958,0.5787 -2.093,1.5987 -0.136,1.016 0.577,1.948 1.593,2.0893"
     id="path641" />
  <path
     style="fill:none;stroke:#231f20;stroke-width:1.33171;stroke-linecap:butt;stroke-linejoin:miter;stroke-miterlimit:4;stroke-dasharray:none;stroke-opacity:1"
     d="m 217.39933,45.441168 c 1.022,0.14 1.954,-0.5787 2.088,-1.5947 0.142,-1.02 -0.572,-1.9586 -1.588,-2.0933 -1.021,-0.136 -1.958,0.5787 -2.093,1.5987 -0.136,1.016 0.577,1.948 1.593,2.0893 z"
     id="path642" />
</svg>
