<?xml version="1.0" encoding="UTF-8" standalone="no"?>
<!-- Created with Inkscape (http://www.inkscape.org/) -->

<svg
   version="1.1"
   id="svg1"
   width="360.46899"
   height="140.31465"
   viewBox="0 0 360.46898 140.31465"
   sodipodi:docname="cell.svg"
   xmlns:inkscape="http://www.inkscape.org/namespaces/inkscape"
   xmlns:sodipodi="http://sodipodi.sourceforge.net/DTD/sodipodi-0.dtd"
   xmlns="http://www.w3.org/2000/svg"
   xmlns:svg="http://www.w3.org/2000/svg">
  <sodipodi:namedview
     id="namedview1"
     pagecolor="#ffffff"
     bordercolor="#000000"
     borderopacity="0.25"
     inkscape:showpageshadow="2"
     inkscape:pageopacity="0.0"
     inkscape:pagecheckerboard="0"
     inkscape:deskcolor="#d1d1d1">
    <inkscape:page
       x="2.2479412e-14"
       y="3.8521815e-14"
       inkscape:label="1"
       id="page1"
       width="360.46899"
       height="140.31465"
       margin="0"
       bleed="0" />
  </sodipodi:namedview>
  <defs
     id="defs1" />
  <path
     style="fill:#ffffff;fill-opacity:1;fill-rule:nonzero;stroke:none"
     d="m 166.103,3.776 h 18.875 V 0 h -18.875 z"
     id="path72" />
  <path
     style="fill:#ffffff;fill-opacity:1;fill-rule:nonzero;stroke:none"
     d="M 0,3.776 H 18.874 V 0 H 0 Z"
     id="path73" />
  <path
     style="fill:#ffffff;fill-opacity:1;fill-rule:nonzero;stroke:none"
     d="m 343.549,3.776 h 16.92 V 0 h -16.92 z"
     id="path74" />
  <path
     style="fill:#231f20;fill-opacity:1;fill-rule:nonzero;stroke:none"
     d="m 56.281,100.895 c 0.032,-1.354 0.969,-1.687 1.937,-1.317 0.287,0.104 0.652,-0.104 0.923,0.026 0.64,0.302 1.172,1.969 -0.104,2.755 -0.095,0.063 -0.625,0.682 -1.1,1.083 -0.921,0.787 -3.151,1.912 -5.703,1.047 -1.213,-0.406 -0.745,-1.047 -0.208,-1.026 1.708,0.052 1.87,-0.276 2.328,-0.428 1.542,-0.504 1.927,-2.14 1.927,-2.14"
     id="path75" />
  <path
     style="fill:none;stroke:#231f20;stroke-width:0.332927;stroke-linecap:butt;stroke-linejoin:miter;stroke-miterlimit:4;stroke-dasharray:none;stroke-opacity:1"
     d="m 56.281,100.895 c 0.032,-1.354 0.969,-1.687 1.937,-1.317 0.287,0.104 0.652,-0.104 0.923,0.026 0.64,0.302 1.172,1.969 -0.104,2.755 -0.095,0.063 -0.625,0.682 -1.1,1.083 -0.921,0.787 -3.151,1.912 -5.703,1.047 -1.213,-0.406 -0.745,-1.047 -0.208,-1.026 1.708,0.052 1.87,-0.276 2.328,-0.428 1.542,-0.504 1.927,-2.14 1.927,-2.14 z"
     id="path76" />
  <path
     style="fill:#231f20;fill-opacity:1;fill-rule:nonzero;stroke:none"
     d="m 72.354,91.229 c -1.078,-1.989 -1.557,-2.235 -2.426,-1.828 -0.584,0.265 -1.215,0.312 -1.574,0.459 -1.204,0.484 -3.026,1.796 -7.224,6.869 -0.953,1.151 -2.297,2.755 -2.901,3.369 -0.948,0.969 1.297,1.896 1.677,1.516 1.219,-1.208 2.146,-1.937 2.646,-2.312 0.344,-0.261 0.88,-0.792 2.328,-1.62 2.198,-1.25 3.698,-1.672 5.406,-2.926 0.792,-0.579 1.755,-0.506 2.24,-1.48 0.495,-0.968 -0.172,-2.047 -0.172,-2.047"
     id="path77" />
  <path
     style="fill:none;stroke:#231f20;stroke-width:0.565977;stroke-linecap:butt;stroke-linejoin:miter;stroke-miterlimit:4;stroke-dasharray:none;stroke-opacity:1"
     d="m 72.354,91.229 c -1.078,-1.989 -1.557,-2.235 -2.426,-1.828 -0.584,0.265 -1.215,0.312 -1.574,0.459 -1.204,0.484 -3.026,1.796 -7.224,6.869 -0.953,1.151 -2.297,2.755 -2.901,3.369 -0.948,0.969 1.297,1.896 1.677,1.516 1.219,-1.208 2.146,-1.937 2.646,-2.312 0.344,-0.261 0.88,-0.792 2.328,-1.62 2.198,-1.25 3.698,-1.672 5.406,-2.926 0.792,-0.579 1.755,-0.506 2.24,-1.48 0.495,-0.968 -0.172,-2.047 -0.172,-2.047 z"
     id="path78" />
  <path
     style="fill:#0098c9;fill-opacity:1;fill-rule:nonzero;stroke:none"
     d="m 93.932,75.448 c -2.963,1.021 -3.708,0.917 -4.63,0.854 -5.765,-0.412 -5.86,2.432 -4.437,4.938 1.661,2.953 2.203,4.046 7.932,1.442 1.593,-0.734 8.068,-2.724 8.068,-2.724 2.416,-0.396 4.557,-2.073 4.937,-3.484 0.396,-1.48 0.13,-0.922 0.25,-2.36 0.114,-1.369 -0.834,-3.344 -2.031,-3.656 -1.147,-0.297 -2.333,0.875 -4.261,2.339 -1.526,1.156 -5.828,2.651 -5.828,2.651"
     id="path79" />
  <path
     style="fill:none;stroke:#231f20;stroke-width:0.565977;stroke-linecap:butt;stroke-linejoin:miter;stroke-miterlimit:4;stroke-dasharray:none;stroke-opacity:1"
     d="m 93.932,75.448 c -2.963,1.021 -3.708,0.917 -4.63,0.854 -5.765,-0.412 -5.86,2.432 -4.437,4.938 1.661,2.953 2.203,4.046 7.932,1.442 1.593,-0.734 8.068,-2.724 8.068,-2.724 2.416,-0.396 4.557,-2.073 4.937,-3.484 0.396,-1.48 0.13,-0.922 0.25,-2.36 0.114,-1.369 -0.834,-3.344 -2.031,-3.656 -1.147,-0.297 -2.333,0.875 -4.261,2.339 -1.526,1.156 -5.828,2.651 -5.828,2.651 z"
     id="path80" />
  <path
     style="fill:#ffffff;fill-opacity:1;fill-rule:nonzero;stroke:none"
     d="m 112.141,74.969 c 0.239,-0.021 0.635,1.057 1.14,0.916 0.505,-0.145 0.484,-0.932 1.984,-2.244 l 0.016,-0.016 c 1.125,-0.917 1.729,-2.167 1.484,-3.396 -0.405,-2.041 -2.979,-3.245 -5.744,-2.693 -2.776,0.553 -4.688,2.652 -4.281,4.688 0.38,1.948 2.765,3.136 5.401,2.745"
     id="path81" />
  <path
     style="fill:none;stroke:#231f20;stroke-width:0.565977;stroke-linecap:butt;stroke-linejoin:miter;stroke-miterlimit:4;stroke-dasharray:none;stroke-opacity:1"
     d="m 112.141,74.969 c 0.239,-0.021 0.635,1.057 1.14,0.916 0.505,-0.145 0.484,-0.932 1.984,-2.244 l 0.016,-0.016 c 1.125,-0.917 1.729,-2.167 1.484,-3.396 -0.405,-2.041 -2.979,-3.245 -5.744,-2.693 -2.776,0.553 -4.688,2.652 -4.281,4.688 0.38,1.948 2.765,3.136 5.401,2.745 z"
     id="path82" />
  <path
     style="fill:#231f20;fill-opacity:1;fill-rule:nonzero;stroke:none"
     d="m 69.969,91.885 c 1.609,3.677 4.219,0.537 4.656,0.349 4.604,-1.989 4.88,-2.245 8.276,-4.005 4.912,-2.541 7.88,-5.036 7.245,-8.323 C 89.708,77.677 88.489,76.578 87.193,76.338 85.76,76.073 82.718,77 81.948,79.786 l -1.255,1.162 c -0.948,0.677 -1.412,1.016 -1.901,1.312 -0.86,0.516 -1.751,1.12 -3.37,2.218 -2.876,1.948 -5.272,4.954 -5.272,4.954 -1.014,0.724 -0.181,2.453 -0.181,2.453"
     id="path83" />
  <path
     style="fill:none;stroke:#231f20;stroke-width:0.565977;stroke-linecap:butt;stroke-linejoin:miter;stroke-miterlimit:4;stroke-dasharray:none;stroke-opacity:1"
     d="m 69.969,91.885 c 1.609,3.677 4.219,0.537 4.656,0.349 4.604,-1.989 4.88,-2.245 8.276,-4.005 4.912,-2.541 7.88,-5.036 7.245,-8.323 C 89.708,77.677 88.489,76.578 87.193,76.338 85.76,76.073 82.718,77 81.948,79.786 l -1.255,1.162 c -0.948,0.677 -1.412,1.016 -1.901,1.312 -0.86,0.516 -1.751,1.12 -3.37,2.218 -2.876,1.948 -5.272,4.954 -5.272,4.954 -1.014,0.724 -0.181,2.453 -0.181,2.453 z"
     id="path84" />
  <path
     style="fill:#0098c9;fill-opacity:1;fill-rule:nonzero;stroke:none"
     d="m 90.078,79.254 c -0.797,-2.124 -2.188,-3.004 -3.5,-3.03 -1.458,-0.022 -4.308,1.401 -4.598,4.27 l 4.864,6.115 c 0.489,-0.437 0.916,-0.869 1.312,-1.301 0.068,-0.038 0.141,-0.079 0.209,-0.1 0.755,-0.282 0.963,-0.875 1.255,-1.87 0.765,-1.354 0.984,-2.702 0.458,-4.084"
     id="path85" />
  <path
     style="fill:none;stroke:#231f20;stroke-width:0.565977;stroke-linecap:butt;stroke-linejoin:miter;stroke-miterlimit:4;stroke-dasharray:none;stroke-opacity:1"
     d="m 90.078,79.254 c -0.797,-2.124 -2.188,-3.004 -3.5,-3.03 -1.458,-0.022 -4.308,1.401 -4.598,4.27 l 4.864,6.115 c 0.489,-0.437 0.916,-0.869 1.312,-1.301 0.068,-0.038 0.141,-0.079 0.209,-0.1 0.755,-0.282 0.963,-0.875 1.255,-1.87 0.765,-1.354 0.984,-2.702 0.458,-4.084 z"
     id="path86" />
  <path
     style="fill:#231f20;fill-opacity:1;fill-rule:nonzero;stroke:none"
     d="m 122.756,66.198 c -0.35,0.536 -2.23,1.062 -3.495,2.056 -0.855,0.667 -3.516,1.334 -4.319,2.068 -0.729,0.667 -1.134,0.907 -2.041,0.199 -0.541,-0.423 -1.307,-1.573 -1.011,-1.989 0.688,-0.975 1.49,-1.475 2.495,-1.834 1.152,-0.412 4.349,-1.25 4.953,-1.349 1.506,-0.24 2.006,-0.787 2.396,-0.891 0.735,-0.188 0.99,0.047 1.219,0.49 0.437,0.86 -0.197,1.25 -0.197,1.25"
     id="path87" />
  <path
     style="fill:none;stroke:#231f20;stroke-width:0.565977;stroke-linecap:butt;stroke-linejoin:miter;stroke-miterlimit:4;stroke-dasharray:none;stroke-opacity:1"
     d="m 122.756,66.198 c -0.35,0.536 -2.23,1.062 -3.495,2.056 -0.855,0.667 -3.516,1.334 -4.319,2.068 -0.729,0.667 -1.134,0.907 -2.041,0.199 -0.541,-0.423 -1.307,-1.573 -1.011,-1.989 0.688,-0.975 1.49,-1.475 2.495,-1.834 1.152,-0.412 4.349,-1.25 4.953,-1.349 1.506,-0.24 2.006,-0.787 2.396,-0.891 0.735,-0.188 0.99,0.047 1.219,0.49 0.437,0.86 -0.197,1.25 -0.197,1.25 z"
     id="path88" />
  <path
     style="fill:#231f20;fill-opacity:1;fill-rule:nonzero;stroke:none"
     d="m 114.464,69.849 c 0.39,1.235 -1.636,1.479 -2.151,1.625 -0.527,0.146 -1.969,0.734 -3.032,1.334 -1.068,0.598 -2.656,0.894 -4.683,2.036 -1.066,0.598 -2.484,0.505 -3.285,-1.079 -0.792,-1.567 -0.209,-2.599 1.187,-3.129 1.401,-0.532 2.937,-0.438 4.385,-0.876 1.448,-0.432 2.88,-1.015 3.985,-1.52 1.255,-0.579 2.094,-0.396 2.447,-0.074 0.881,0.803 1.147,1.683 1.147,1.683"
     id="path89" />
  <path
     style="fill:none;stroke:#231f20;stroke-width:0.565977;stroke-linecap:butt;stroke-linejoin:miter;stroke-miterlimit:4;stroke-dasharray:none;stroke-opacity:1"
     d="m 114.464,69.849 c 0.39,1.235 -1.636,1.479 -2.151,1.625 -0.527,0.146 -1.969,0.734 -3.032,1.334 -1.068,0.598 -2.656,0.894 -4.683,2.036 -1.066,0.598 -2.484,0.505 -3.285,-1.079 -0.792,-1.567 -0.209,-2.599 1.187,-3.129 1.401,-0.532 2.937,-0.438 4.385,-0.876 1.448,-0.432 2.88,-1.015 3.985,-1.52 1.255,-0.579 2.094,-0.396 2.447,-0.074 0.881,0.803 1.147,1.683 1.147,1.683 z"
     id="path90" />
  <path
     style="fill:#ffffff;fill-opacity:1;fill-rule:nonzero;stroke:none"
     d="m 126.37,64.964 c 0.203,-1.006 -0.453,-1.986 -1.459,-2.183 -1.01,-0.203 -1.989,0.453 -2.193,1.459 -0.197,1.01 0.459,1.989 1.464,2.186 1.011,0.204 1.989,-0.452 2.188,-1.462"
     id="path91" />
  <path
     style="fill:none;stroke:#231f20;stroke-width:1.33171;stroke-linecap:butt;stroke-linejoin:miter;stroke-miterlimit:4;stroke-dasharray:none;stroke-opacity:1"
     d="m 126.37,64.964 c 0.203,-1.006 -0.453,-1.986 -1.459,-2.183 -1.01,-0.203 -1.989,0.453 -2.193,1.459 -0.197,1.01 0.459,1.989 1.464,2.186 1.011,0.204 1.989,-0.452 2.188,-1.462 z"
     id="path92" />
  <path
     style="fill:#231f20;fill-opacity:1;fill-rule:nonzero;stroke:none"
     d="m 113.093,135.166 c -0.541,-1.245 0.168,-1.937 1.204,-2.011 0.307,-0.025 0.547,-0.364 0.849,-0.364 0.708,0.011 1.886,1.292 1.062,2.547 -0.058,0.093 -0.28,0.88 -0.536,1.443 -0.511,1.104 -2.058,3.062 -4.74,3.349 -1.271,0.145 -1.115,-0.636 -0.619,-0.844 1.577,-0.672 1.583,-1.036 1.932,-1.369 1.187,-1.106 0.848,-2.751 0.848,-2.751"
     id="path93" />
  <path
     style="fill:none;stroke:#231f20;stroke-width:0.332927;stroke-linecap:butt;stroke-linejoin:miter;stroke-miterlimit:4;stroke-dasharray:none;stroke-opacity:1"
     d="m 113.093,135.166 c -0.541,-1.245 0.168,-1.937 1.204,-2.011 0.307,-0.025 0.547,-0.364 0.849,-0.364 0.708,0.011 1.886,1.292 1.062,2.547 -0.058,0.093 -0.28,0.88 -0.536,1.443 -0.511,1.104 -2.058,3.062 -4.74,3.349 -1.271,0.145 -1.115,-0.636 -0.619,-0.844 1.577,-0.672 1.583,-1.036 1.932,-1.369 1.187,-1.106 0.848,-2.751 0.848,-2.751 z"
     id="path94" />
  <path
     style="fill:#231f20;fill-opacity:1;fill-rule:nonzero;stroke:none"
     d="m 123.614,119.635 c -1.817,-1.349 -2.353,-1.37 -2.973,-0.636 -0.417,0.484 -0.975,0.792 -1.235,1.079 -0.885,0.948 -1.989,2.905 -3.666,9.271 -0.375,1.442 -0.923,3.468 -1.214,4.281 -0.453,1.276 1.974,1.167 2.162,0.667 0.593,-1.61 1.129,-2.662 1.426,-3.214 0.199,-0.376 0.464,-1.089 1.432,-2.448 1.47,-2.057 2.652,-3.073 3.672,-4.928 0.475,-0.858 1.38,-1.202 1.407,-2.285 0.046,-1.089 -1.011,-1.787 -1.011,-1.787"
     id="path95" />
  <path
     style="fill:none;stroke:#231f20;stroke-width:0.565977;stroke-linecap:butt;stroke-linejoin:miter;stroke-miterlimit:4;stroke-dasharray:none;stroke-opacity:1"
     d="m 123.614,119.635 c -1.817,-1.349 -2.353,-1.37 -2.973,-0.636 -0.417,0.484 -0.975,0.792 -1.235,1.079 -0.885,0.948 -1.989,2.905 -3.666,9.271 -0.375,1.442 -0.923,3.468 -1.214,4.281 -0.453,1.276 1.974,1.167 2.162,0.667 0.593,-1.61 1.129,-2.662 1.426,-3.214 0.199,-0.376 0.464,-1.089 1.432,-2.448 1.47,-2.057 2.652,-3.073 3.672,-4.928 0.475,-0.858 1.38,-1.202 1.407,-2.285 0.046,-1.089 -1.011,-1.787 -1.011,-1.787 z"
     id="path96" />
  <path
     style="fill:#0098c9;fill-opacity:1;fill-rule:nonzero;stroke:none"
     d="m 131.922,95.317 c -0.912,3 -1.433,3.543 -2.027,4.245 -3.718,4.432 -1.473,6.177 1.391,6.495 3.369,0.39 4.573,0.593 5.823,-5.579 0.344,-1.718 2.532,-8.124 2.532,-8.124 1.098,-2.188 1,-4.906 0.077,-6.042 -0.963,-1.192 -0.667,-0.646 -1.76,-1.588 -1.041,-0.902 -3.199,-1.292 -4.151,-0.5 -0.917,0.75 -0.666,2.401 -0.609,4.822 0.036,1.912 -1.276,6.271 -1.276,6.271"
     id="path97" />
  <path
     style="fill:none;stroke:#231f20;stroke-width:0.565977;stroke-linecap:butt;stroke-linejoin:miter;stroke-miterlimit:4;stroke-dasharray:none;stroke-opacity:1"
     d="m 131.922,95.317 c -0.912,3 -1.433,3.543 -2.027,4.245 -3.718,4.432 -1.473,6.177 1.391,6.495 3.369,0.39 4.573,0.593 5.823,-5.579 0.344,-1.718 2.532,-8.124 2.532,-8.124 1.098,-2.188 1,-4.906 0.077,-6.042 -0.963,-1.192 -0.667,-0.646 -1.76,-1.588 -1.041,-0.902 -3.199,-1.292 -4.151,-0.5 -0.917,0.75 -0.666,2.401 -0.609,4.822 0.036,1.912 -1.276,6.271 -1.276,6.271 z"
     id="path98" />
  <path
     style="fill:#ffffff;fill-opacity:1;fill-rule:nonzero;stroke:none"
     d="m 140.833,79.104 c 0.114,-0.214 1.234,0.026 1.385,-0.479 0.141,-0.505 -0.536,-0.907 -0.853,-2.875 l -0.006,-0.021 c -0.182,-1.437 -0.922,-2.615 -2.094,-3.057 -1.943,-0.74 -4.328,0.802 -5.328,3.442 -1,2.642 -0.239,5.375 1.704,6.115 1.853,0.708 4.124,-0.683 5.192,-3.125"
     id="path99" />
  <path
     style="fill:none;stroke:#231f20;stroke-width:0.565977;stroke-linecap:butt;stroke-linejoin:miter;stroke-miterlimit:4;stroke-dasharray:none;stroke-opacity:1"
     d="m 140.833,79.104 c 0.114,-0.214 1.234,0.026 1.385,-0.479 0.141,-0.505 -0.536,-0.907 -0.853,-2.875 l -0.006,-0.021 c -0.182,-1.437 -0.922,-2.615 -2.094,-3.057 -1.943,-0.74 -4.328,0.802 -5.328,3.442 -1,2.642 -0.239,5.375 1.704,6.115 1.853,0.708 4.124,-0.683 5.192,-3.125 z"
     id="path100" />
  <path
     style="fill:#231f20;fill-opacity:1;fill-rule:nonzero;stroke:none"
     d="m 121.724,121.234 c 3.005,2.661 4.051,-1.287 4.374,-1.641 3.333,-3.739 3.48,-4.094 5.819,-7.115 3.39,-4.369 5.036,-7.88 3.072,-10.593 -1.334,-1.839 -2.9,-2.323 -4.176,-2 -1.412,0.365 -3.782,2.484 -3.308,5.338 l -0.651,1.579 c -0.573,1.015 -0.855,1.52 -1.177,1.989 -0.563,0.834 -1.115,1.755 -2.12,3.432 -1.787,2.979 -2.697,6.714 -2.697,6.714 -0.62,1.084 0.864,2.297 0.864,2.297"
     id="path101" />
  <path
     style="fill:none;stroke:#231f20;stroke-width:0.565977;stroke-linecap:butt;stroke-linejoin:miter;stroke-miterlimit:4;stroke-dasharray:none;stroke-opacity:1"
     d="m 121.724,121.234 c 3.005,2.661 4.051,-1.287 4.374,-1.641 3.333,-3.739 3.48,-4.094 5.819,-7.115 3.39,-4.369 5.036,-7.88 3.072,-10.593 -1.334,-1.839 -2.9,-2.323 -4.176,-2 -1.412,0.365 -3.782,2.484 -3.308,5.338 l -0.651,1.579 c -0.573,1.015 -0.855,1.52 -1.177,1.989 -0.563,0.834 -1.115,1.755 -2.12,3.432 -1.787,2.979 -2.697,6.714 -2.697,6.714 -0.62,1.084 0.864,2.297 0.864,2.297 z"
     id="path102" />
  <path
     style="fill:#0098c9;fill-opacity:1;fill-rule:nonzero;stroke:none"
     d="m 134.655,101.317 c -1.618,-1.588 -3.244,-1.807 -4.452,-1.271 -1.329,0.595 -3.318,3.079 -2.376,5.808 l 6.986,3.5 c 0.26,-0.604 0.462,-1.177 0.645,-1.735 0.047,-0.068 0.093,-0.13 0.145,-0.177 0.568,-0.573 0.506,-1.197 0.355,-2.224 0.12,-1.552 -0.251,-2.869 -1.303,-3.901"
     id="path103" />
  <path
     style="fill:none;stroke:#231f20;stroke-width:0.565977;stroke-linecap:butt;stroke-linejoin:miter;stroke-miterlimit:4;stroke-dasharray:none;stroke-opacity:1"
     d="m 134.655,101.317 c -1.618,-1.588 -3.244,-1.807 -4.452,-1.271 -1.329,0.595 -3.318,3.079 -2.376,5.808 l 6.986,3.5 c 0.26,-0.604 0.462,-1.177 0.645,-1.735 0.047,-0.068 0.093,-0.13 0.145,-0.177 0.568,-0.573 0.506,-1.197 0.355,-2.224 0.12,-1.552 -0.251,-2.869 -1.303,-3.901 z"
     id="path104" />
  <path
     style="fill:#231f20;fill-opacity:1;fill-rule:nonzero;stroke:none"
     d="m 141.349,66.552 c 0.229,0.598 -0.448,2.426 -0.386,4.036 0.042,1.084 -0.984,3.63 -0.86,4.709 0.11,0.984 0.074,1.453 -1.036,1.771 -0.656,0.192 -2.041,0.134 -2.208,-0.355 -0.385,-1.125 -0.318,-2.068 -0.016,-3.093 0.339,-1.167 1.542,-4.255 1.812,-4.803 0.694,-1.359 0.538,-2.083 0.688,-2.457 0.276,-0.71 0.615,-0.776 1.115,-0.704 0.948,0.156 0.891,0.896 0.891,0.896"
     id="path105" />
  <path
     style="fill:none;stroke:#231f20;stroke-width:0.565977;stroke-linecap:butt;stroke-linejoin:miter;stroke-miterlimit:4;stroke-dasharray:none;stroke-opacity:1"
     d="m 141.349,66.552 c 0.229,0.598 -0.448,2.426 -0.386,4.036 0.042,1.084 -0.984,3.63 -0.86,4.709 0.11,0.984 0.074,1.453 -1.036,1.771 -0.656,0.192 -2.041,0.134 -2.208,-0.355 -0.385,-1.125 -0.318,-2.068 -0.016,-3.093 0.339,-1.167 1.542,-4.255 1.812,-4.803 0.694,-1.359 0.538,-2.083 0.688,-2.457 0.276,-0.71 0.615,-0.776 1.115,-0.704 0.948,0.156 0.891,0.896 0.891,0.896 z"
     id="path106" />
  <path
     style="fill:#231f20;fill-opacity:1;fill-rule:nonzero;stroke:none"
     d="m 139.437,75.406 c 1.229,0.406 0.24,2.192 0.052,2.698 -0.187,0.51 -0.558,2.026 -0.698,3.24 -0.141,1.213 -0.833,2.672 -1.098,4.984 -0.142,1.213 -1.047,2.308 -2.803,2.026 -1.735,-0.276 -2.229,-1.354 -1.839,-2.797 0.391,-1.448 1.371,-2.636 1.871,-4.068 0.495,-1.421 0.864,-2.927 1.109,-4.115 0.266,-1.358 0.9,-1.926 1.375,-2.025 1.167,-0.245 2.031,0.057 2.031,0.057"
     id="path107" />
  <path
     style="fill:none;stroke:#231f20;stroke-width:0.565977;stroke-linecap:butt;stroke-linejoin:miter;stroke-miterlimit:4;stroke-dasharray:none;stroke-opacity:1"
     d="m 139.437,75.406 c 1.229,0.406 0.24,2.192 0.052,2.698 -0.187,0.51 -0.558,2.026 -0.698,3.24 -0.141,1.213 -0.833,2.672 -1.098,4.984 -0.142,1.213 -1.047,2.308 -2.803,2.026 -1.735,-0.276 -2.229,-1.354 -1.839,-2.797 0.391,-1.448 1.371,-2.636 1.871,-4.068 0.495,-1.421 0.864,-2.927 1.109,-4.115 0.266,-1.358 0.9,-1.926 1.375,-2.025 1.167,-0.245 2.031,0.057 2.031,0.057 z"
     id="path108" />
  <path
     style="fill:#ffffff;fill-opacity:1;fill-rule:nonzero;stroke:none"
     d="m 143.349,64.964 c 0.202,-1.006 -0.454,-1.986 -1.459,-2.183 -1.011,-0.203 -1.989,0.453 -2.192,1.459 -0.199,1.01 0.457,1.989 1.463,2.186 1.01,0.204 1.989,-0.452 2.188,-1.462"
     id="path109" />
  <path
     style="fill:none;stroke:#231f20;stroke-width:1.33171;stroke-linecap:butt;stroke-linejoin:miter;stroke-miterlimit:4;stroke-dasharray:none;stroke-opacity:1"
     d="m 143.349,64.964 c 0.202,-1.006 -0.454,-1.986 -1.459,-2.183 -1.011,-0.203 -1.989,0.453 -2.192,1.459 -0.199,1.01 0.457,1.989 1.463,2.186 1.01,0.204 1.989,-0.452 2.188,-1.462 z"
     id="path110" />
  <path
     style="fill:#231f20;fill-opacity:1;fill-rule:nonzero;stroke:none"
     d="m 318.389,69.974 c -0.56,-1.229 -1.55,-1.166 -2.3,-0.448 -0.22,0.208 -0.64,0.162 -0.84,0.391 -0.46,0.525 -0.3,2.265 1.18,2.489 0.11,0.02 0.84,0.38 1.44,0.563 1.15,0.364 3.65,0.52 5.65,-1.276 0.96,-0.849 0.28,-1.256 -0.21,-1.032 -1.55,0.724 -1.83,0.484 -2.31,0.521 -1.61,0.146 -2.61,-1.208 -2.61,-1.208"
     id="path111" />
  <path
     style="fill:none;stroke:#231f20;stroke-width:0.332927;stroke-linecap:butt;stroke-linejoin:miter;stroke-miterlimit:4;stroke-dasharray:none;stroke-opacity:1"
     d="m 318.389,69.974 c -0.56,-1.229 -1.55,-1.166 -2.3,-0.448 -0.22,0.208 -0.64,0.162 -0.84,0.391 -0.46,0.525 -0.3,2.265 1.18,2.489 0.11,0.02 0.84,0.38 1.44,0.563 1.15,0.364 3.65,0.52 5.65,-1.276 0.96,-0.849 0.28,-1.256 -0.21,-1.032 -1.55,0.724 -1.83,0.484 -2.31,0.521 -1.61,0.146 -2.61,-1.208 -2.61,-1.208 z"
     id="path112" />
  <path
     style="fill:#231f20;fill-opacity:1;fill-rule:nonzero;stroke:none"
     d="m 299.809,67.406 c 0.21,-2.256 0.56,-2.666 1.52,-2.636 0.63,0.011 1.23,-0.192 1.62,-0.197 1.3,-0.027 3.49,0.463 9.34,3.479 1.33,0.682 3.2,1.63 4,1.958 1.25,0.516 -0.46,2.25 -0.95,2.052 -1.59,-0.63 -2.74,-0.937 -3.35,-1.088 -0.41,-0.105 -1.12,-0.381 -2.78,-0.573 -2.51,-0.281 -4.05,-0.084 -6.11,-0.568 -0.96,-0.219 -1.82,0.224 -2.64,-0.479 -0.84,-0.698 -0.65,-1.948 -0.65,-1.948"
     id="path113" />
  <path
     style="fill:none;stroke:#231f20;stroke-width:0.565977;stroke-linecap:butt;stroke-linejoin:miter;stroke-miterlimit:4;stroke-dasharray:none;stroke-opacity:1"
     d="m 299.809,67.406 c 0.21,-2.256 0.56,-2.666 1.52,-2.636 0.63,0.011 1.23,-0.192 1.62,-0.197 1.3,-0.027 3.49,0.463 9.34,3.479 1.33,0.682 3.2,1.63 4,1.958 1.25,0.516 -0.46,2.25 -0.95,2.052 -1.59,-0.63 -2.74,-0.937 -3.35,-1.088 -0.41,-0.105 -1.12,-0.381 -2.78,-0.573 -2.51,-0.281 -4.05,-0.084 -6.11,-0.568 -0.96,-0.219 -1.82,0.224 -2.64,-0.479 -0.84,-0.698 -0.65,-1.948 -0.65,-1.948 z"
     id="path114" />
  <path
     style="fill:#0098c9;fill-opacity:1;fill-rule:nonzero;stroke:none"
     d="m 273.639,62.125 c 3.07,-0.579 3.67,-1.036 4.44,-1.552 4.81,-3.208 6.29,-0.787 6.3,2.099 0.02,3.39 0.09,4.609 -6.18,5.177 -1.75,0.151 -8.36,1.625 -8.36,1.625 -2.29,0.848 -4.99,0.452 -6.01,-0.584 -1.08,-1.093 -0.57,-0.74 -1.39,-1.926 -0.78,-1.136 -0.93,-3.323 -0.04,-4.183 0.85,-0.823 2.46,-0.396 4.86,-0.079 1.9,0.251 6.38,-0.577 6.38,-0.577"
     id="path115" />
  <path
     style="fill:none;stroke:#231f20;stroke-width:0.565977;stroke-linecap:butt;stroke-linejoin:miter;stroke-miterlimit:4;stroke-dasharray:none;stroke-opacity:1"
     d="m 273.639,62.125 c 3.07,-0.579 3.67,-1.036 4.44,-1.552 4.81,-3.208 6.29,-0.787 6.3,2.099 0.02,3.39 0.09,4.609 -6.18,5.177 -1.75,0.151 -8.36,1.625 -8.36,1.625 -2.29,0.848 -4.99,0.452 -6.01,-0.584 -1.08,-1.093 -0.57,-0.74 -1.39,-1.926 -0.78,-1.136 -0.93,-3.323 -0.04,-4.183 0.85,-0.823 2.46,-0.396 4.86,-0.079 1.9,0.251 6.38,-0.577 6.38,-0.577 z"
     id="path116" />
  <path
     style="fill:#ffffff;fill-opacity:1;fill-rule:nonzero;stroke:none"
     d="m 256.655,70.125 c -0.244,0.041 -0.353,1.187 -0.874,1.177 -0.526,-0.01 -0.708,-0.781 -2.484,-1.672 l -0.022,-0.01 c -1.322,-0.604 -2.224,-1.662 -2.296,-2.912 -0.125,-2.078 2.062,-3.891 4.88,-4.058 2.82,-0.166 5.2,1.382 5.32,3.454 0.13,1.985 -1.88,3.734 -4.524,4.021"
     id="path117" />
  <path
     style="fill:none;stroke:#231f20;stroke-width:0.565977;stroke-linecap:butt;stroke-linejoin:miter;stroke-miterlimit:4;stroke-dasharray:none;stroke-opacity:1"
     d="m 256.655,70.125 c -0.244,0.041 -0.353,1.187 -0.874,1.177 -0.526,-0.01 -0.708,-0.781 -2.484,-1.672 l -0.022,-0.01 c -1.322,-0.604 -2.224,-1.662 -2.296,-2.912 -0.125,-2.078 2.062,-3.891 4.88,-4.058 2.82,-0.166 5.2,1.382 5.32,3.454 0.13,1.985 -1.88,3.734 -4.524,4.021 z"
     id="path118" />
  <path
     style="fill:#231f20;fill-opacity:1;fill-rule:nonzero;stroke:none"
     d="m 302.259,67.068 c -0.03,4.016 -3.67,2.15 -4.15,2.15 -5.01,-0.02 -5.37,-0.145 -9.18,-0.426 -5.51,-0.412 -9.23,-1.532 -9.93,-4.808 -0.47,-2.224 0.22,-3.714 1.31,-4.443 1.22,-0.807 4.38,-1.151 6.18,1.109 l 1.61,0.574 c 1.14,0.254 1.7,0.385 2.27,0.464 0.99,0.134 2.04,0.338 3.97,0.713 3.41,0.667 6.79,2.484 6.79,2.484 1.22,0.265 1.13,2.183 1.13,2.183"
     id="path119" />
  <path
     style="fill:none;stroke:#231f20;stroke-width:0.565977;stroke-linecap:butt;stroke-linejoin:miter;stroke-miterlimit:4;stroke-dasharray:none;stroke-opacity:1"
     d="m 302.259,67.068 c -0.03,4.016 -3.67,2.15 -4.15,2.15 -5.01,-0.02 -5.37,-0.145 -9.18,-0.426 -5.51,-0.412 -9.23,-1.532 -9.93,-4.808 -0.47,-2.224 0.22,-3.714 1.31,-4.443 1.22,-0.807 4.38,-1.151 6.18,1.109 l 1.61,0.574 c 1.14,0.254 1.7,0.385 2.27,0.464 0.99,0.134 2.04,0.338 3.97,0.713 3.41,0.667 6.79,2.484 6.79,2.484 1.22,0.265 1.13,2.183 1.13,2.183 z"
     id="path120" />
  <path
     style="fill:#0098c9;fill-opacity:1;fill-rule:nonzero;stroke:#231f20;stroke-width:0.565977;stroke-linecap:butt;stroke-linejoin:miter;stroke-miterlimit:4;stroke-dasharray:none;stroke-opacity:1"
     d="m 284.949,67.828 1.8,-6.511 c -1.41,-2.531 -4.58,-2.713 -5.92,-2.119 -1.19,0.536 -2.12,1.891 -2.02,4.162 0.11,2.64 2.3,4.276 5.86,5.489 l 0.25,-0.912 c 0.53,0.016 1.02,0.099 1.02,0.099 z"
     id="path121" />
  <path
     style="fill:#231f20;fill-opacity:1;fill-rule:nonzero;stroke:none"
     d="m 243.974,65.437 c 0.531,0.371 2.468,0.156 4.009,0.609 1.043,0.303 3.767,-0.072 4.782,0.308 0.928,0.348 1.39,0.422 1.969,-0.573 0.344,-0.588 0.62,-1.948 0.193,-2.224 -1,-0.651 -1.933,-0.812 -3,-0.771 -1.214,0.047 -4.501,0.459 -5.094,0.594 -1.49,0.338 -2.156,0.016 -2.558,0.068 -0.754,0.093 -0.901,0.412 -0.948,0.906 -0.082,0.958 0.647,1.083 0.647,1.083"
     id="path122" />
  <path
     style="fill:none;stroke:#231f20;stroke-width:0.565977;stroke-linecap:butt;stroke-linejoin:miter;stroke-miterlimit:4;stroke-dasharray:none;stroke-opacity:1"
     d="m 243.974,65.437 c 0.531,0.371 2.468,0.156 4.009,0.609 1.043,0.303 3.767,-0.072 4.782,0.308 0.928,0.348 1.39,0.422 1.969,-0.573 0.344,-0.588 0.62,-1.948 0.193,-2.224 -1,-0.651 -1.933,-0.812 -3,-0.771 -1.214,0.047 -4.501,0.459 -5.094,0.594 -1.49,0.338 -2.156,0.016 -2.558,0.068 -0.754,0.093 -0.901,0.412 -0.948,0.906 -0.082,0.958 0.647,1.083 0.647,1.083 z"
     id="path123" />
  <path
     style="fill:#231f20;fill-opacity:1;fill-rule:nonzero;stroke:none"
     d="m 253.031,65.74 c 0.094,1.292 2.067,0.76 2.604,0.702 0.542,-0.057 2.094,-0.052 3.304,0.11 1.22,0.161 2.8,-0.156 5.11,0.141 1.22,0.161 2.49,-0.453 2.65,-2.219 0.15,-1.75 -0.78,-2.496 -2.27,-2.464 -1.5,0.026 -2.89,0.688 -4.4,0.823 -1.5,0.141 -3.05,0.131 -4.264,0.073 -1.38,-0.068 -2.088,0.411 -2.296,0.844 -0.522,1.072 -0.438,1.99 -0.438,1.99"
     id="path124" />
  <path
     style="fill:none;stroke:#231f20;stroke-width:0.565977;stroke-linecap:butt;stroke-linejoin:miter;stroke-miterlimit:4;stroke-dasharray:none;stroke-opacity:1"
     d="m 253.031,65.74 c 0.094,1.292 2.067,0.76 2.604,0.702 0.542,-0.057 2.094,-0.052 3.304,0.11 1.22,0.161 2.8,-0.156 5.11,0.141 1.22,0.161 2.49,-0.453 2.65,-2.219 0.15,-1.75 -0.78,-2.496 -2.27,-2.464 -1.5,0.026 -2.89,0.688 -4.4,0.823 -1.5,0.141 -3.05,0.131 -4.264,0.073 -1.38,-0.068 -2.088,0.411 -2.296,0.844 -0.522,1.072 -0.438,1.99 -0.438,1.99 z"
     id="path125" />
  <path
     style="fill:#ffffff;fill-opacity:1;fill-rule:nonzero;stroke:none"
     d="m 241.515,62.698 c 1.011,-0.193 1.99,0.458 2.188,1.463 0.198,1.011 -0.458,1.989 -1.464,2.188 -1.01,0.203 -1.989,-0.453 -2.188,-1.464 -0.197,-1.005 0.454,-1.984 1.464,-2.187"
     id="path126" />
  <path
     style="fill:none;stroke:#231f20;stroke-width:1.33171;stroke-linecap:butt;stroke-linejoin:miter;stroke-miterlimit:4;stroke-dasharray:none;stroke-opacity:1"
     d="m 241.515,62.698 c 1.011,-0.193 1.99,0.458 2.188,1.463 0.198,1.011 -0.458,1.989 -1.464,2.188 -1.01,0.203 -1.989,-0.453 -2.188,-1.464 -0.197,-1.005 0.454,-1.984 1.464,-2.187 z"
     id="path127" />
  <path
     style="fill:#231f20;fill-opacity:1;fill-rule:nonzero;stroke:none"
     d="m 162.27,66.032 c 0.297,0.572 2.104,1.296 3.256,2.416 0.776,0.76 3.348,1.713 4.068,2.53 0.651,0.74 1.025,1.027 2.004,0.412 0.579,-0.354 1.469,-1.416 1.219,-1.864 -0.578,-1.048 -1.318,-1.625 -2.28,-2.094 -1.09,-0.531 -4.188,-1.708 -4.778,-1.875 -1.473,-0.407 -1.905,-1 -2.285,-1.14 -0.709,-0.272 -0.991,-0.073 -1.271,0.353 -0.516,0.803 0.067,1.262 0.067,1.262"
     id="path128" />
  <path
     style="fill:none;stroke:#231f20;stroke-width:0.565977;stroke-linecap:butt;stroke-linejoin:miter;stroke-miterlimit:4;stroke-dasharray:none;stroke-opacity:1"
     d="m 162.27,66.032 c 0.297,0.572 2.104,1.296 3.256,2.416 0.776,0.76 3.348,1.713 4.068,2.53 0.651,0.74 1.025,1.027 2.004,0.412 0.579,-0.354 1.469,-1.416 1.219,-1.864 -0.578,-1.048 -1.318,-1.625 -2.28,-2.094 -1.09,-0.531 -4.188,-1.708 -4.778,-1.875 -1.473,-0.407 -1.905,-1 -2.285,-1.14 -0.709,-0.272 -0.991,-0.073 -1.271,0.353 -0.516,0.803 0.067,1.262 0.067,1.262 z"
     id="path129" />
  <path
     style="fill:#231f20;fill-opacity:1;fill-rule:nonzero;stroke:none"
     d="m 170.463,70.978 c -0.078,1.292 1.948,1.043 2.484,1.054 0.542,0.02 2.09,0.233 3.26,0.556 1.183,0.329 2.798,0.229 5.043,0.849 1.181,0.323 2.531,-0.115 2.927,-1.849 0.385,-1.714 -0.427,-2.572 -1.916,-2.744 -1.486,-0.178 -2.954,0.286 -4.464,0.213 -1.511,-0.073 -3.047,-0.281 -4.235,-0.511 -1.359,-0.254 -2.125,0.131 -2.391,0.522 -0.666,0.994 -0.708,1.91 -0.708,1.91"
     id="path130" />
  <path
     style="fill:none;stroke:#231f20;stroke-width:0.565977;stroke-linecap:butt;stroke-linejoin:miter;stroke-miterlimit:4;stroke-dasharray:none;stroke-opacity:1"
     d="m 170.463,70.978 c -0.078,1.292 1.948,1.043 2.484,1.054 0.542,0.02 2.09,0.233 3.26,0.556 1.183,0.329 2.798,0.229 5.043,0.849 1.181,0.323 2.531,-0.115 2.927,-1.849 0.385,-1.714 -0.427,-2.572 -1.916,-2.744 -1.486,-0.178 -2.954,0.286 -4.464,0.213 -1.511,-0.073 -3.047,-0.281 -4.235,-0.511 -1.359,-0.254 -2.125,0.131 -2.391,0.522 -0.666,0.994 -0.708,1.91 -0.708,1.91 z"
     id="path131" />
  <path
     style="fill:#231f20;fill-opacity:1;fill-rule:nonzero;stroke:none"
     d="m 169.723,49.614 c 0.412,0.5 2.328,0.823 3.688,1.672 0.927,0.579 3.646,0.959 4.516,1.599 0.802,0.589 1.223,0.781 2.052,-0.02 0.49,-0.475 1.13,-1.704 0.796,-2.089 -0.786,-0.896 -1.645,-1.302 -2.677,-1.558 -1.181,-0.281 -4.457,-0.776 -5.067,-0.806 -1.526,-0.09 -2.078,-0.574 -2.48,-0.631 -0.749,-0.12 -0.978,0.145 -1.156,0.615 -0.344,0.896 0.328,1.218 0.328,1.218"
     id="path132" />
  <path
     style="fill:none;stroke:#231f20;stroke-width:0.565977;stroke-linecap:butt;stroke-linejoin:miter;stroke-miterlimit:4;stroke-dasharray:none;stroke-opacity:1"
     d="m 169.723,49.614 c 0.412,0.5 2.328,0.823 3.688,1.672 0.927,0.579 3.646,0.959 4.516,1.599 0.802,0.589 1.223,0.781 2.052,-0.02 0.49,-0.475 1.13,-1.704 0.796,-2.089 -0.786,-0.896 -1.645,-1.302 -2.677,-1.558 -1.181,-0.281 -4.457,-0.776 -5.067,-0.806 -1.526,-0.09 -2.078,-0.574 -2.48,-0.631 -0.749,-0.12 -0.978,0.145 -1.156,0.615 -0.344,0.896 0.328,1.218 0.328,1.218 z"
     id="path133" />
  <path
     style="fill:#231f20;fill-opacity:1;fill-rule:nonzero;stroke:none"
     d="m 177.479,51.417 c -0.797,1.025 1.015,1.952 1.452,2.271 0.443,0.317 1.595,1.369 2.382,2.296 0.796,0.937 2.181,1.756 3.692,3.532 0.797,0.932 2.15,1.338 3.453,0.125 1.287,-1.199 1.104,-2.365 -0.032,-3.355 -1.129,-0.978 -2.604,-1.426 -3.812,-2.333 -1.203,-0.907 -2.353,-1.948 -3.213,-2.803 -0.979,-0.973 -1.828,-1.093 -2.26,-0.916 -1.115,0.448 -1.662,1.183 -1.662,1.183"
     id="path134" />
  <path
     style="fill:none;stroke:#231f20;stroke-width:0.565977;stroke-linecap:butt;stroke-linejoin:miter;stroke-miterlimit:4;stroke-dasharray:none;stroke-opacity:1"
     d="m 177.479,51.417 c -0.797,1.025 1.015,1.952 1.452,2.271 0.443,0.317 1.595,1.369 2.382,2.296 0.796,0.937 2.181,1.756 3.692,3.532 0.797,0.932 2.15,1.338 3.453,0.125 1.287,-1.199 1.104,-2.365 -0.032,-3.355 -1.129,-0.978 -2.604,-1.426 -3.812,-2.333 -1.203,-0.907 -2.353,-1.948 -3.213,-2.803 -0.979,-0.973 -1.828,-1.093 -2.26,-0.916 -1.115,0.448 -1.662,1.183 -1.662,1.183 z"
     id="path135" />
  <path
     style="fill:#231f20;fill-opacity:1;fill-rule:nonzero;stroke:none"
     d="m 164.114,46.978 c 0.719,-0.134 3.923,0.391 4.651,0.543 0.652,0.14 1.802,0.005 2.073,1.124 0.12,0.453 -0.041,1.193 -0.188,1.48 -0.119,0.235 -0.447,0.271 -0.823,0.151 -0.634,-0.192 -0.744,-0.495 -1.942,-0.938 0,0 -0.271,-0.145 -0.735,-0.448 -1.375,-0.869 -0.687,-0.614 -2.963,-1.432 -0.161,-0.052 -0.224,-0.26 -0.177,-0.365 0.079,-0.161 0.104,-0.115 0.104,-0.115"
     id="path136" />
  <path
     style="fill:none;stroke:#231f20;stroke-width:0.565977;stroke-linecap:round;stroke-linejoin:round;stroke-miterlimit:4;stroke-dasharray:none;stroke-opacity:1"
     d="m 164.114,46.978 c 0.719,-0.134 3.923,0.391 4.651,0.543 0.652,0.14 1.802,0.005 2.073,1.124 0.12,0.453 -0.041,1.193 -0.188,1.48 -0.119,0.235 -0.447,0.271 -0.823,0.151 -0.634,-0.192 -0.744,-0.495 -1.942,-0.938 0,0 -0.271,-0.145 -0.735,-0.448 -1.375,-0.869 -0.687,-0.614 -2.963,-1.432 -0.161,-0.052 -0.224,-0.26 -0.177,-0.365 0.079,-0.161 0.104,-0.115 0.104,-0.115 z"
     id="path137" />
  <path
     style="fill:#ffffff;fill-opacity:1;fill-rule:nonzero;stroke:none"
     d="m 161.265,62.474 c 0.953,0.38 1.417,1.468 1.037,2.416 -0.385,0.954 -1.464,1.418 -2.417,1.036 -0.954,-0.38 -1.422,-1.462 -1.036,-2.421 0.38,-0.948 1.464,-1.416 2.416,-1.031"
     id="path138" />
  <path
     style="fill:none;stroke:#231f20;stroke-width:1.33171;stroke-linecap:butt;stroke-linejoin:miter;stroke-miterlimit:4;stroke-dasharray:none;stroke-opacity:1"
     d="m 161.265,62.474 c 0.953,0.38 1.417,1.468 1.037,2.416 -0.385,0.954 -1.464,1.418 -2.417,1.036 -0.954,-0.38 -1.422,-1.462 -1.036,-2.421 0.38,-0.948 1.464,-1.416 2.416,-1.031 z"
     id="path139" />
  <path
     style="fill:none;stroke:#231f20;stroke-width:0.399514;stroke-linecap:butt;stroke-linejoin:miter;stroke-miterlimit:4;stroke-dasharray:none;stroke-opacity:1"
     d="m 209.229,87.182 c 18.25,-19.204 9.104,-28.833 1.245,-25.822"
     id="path140" />
  <path
     style="fill:#231f20;fill-opacity:1;fill-rule:nonzero;stroke:none"
     d="m 209.349,61.786 c 0.453,-0.396 0.984,-0.984 1.254,-1.494 l 0.016,1.01 0.662,0.766 c -0.542,-0.203 -1.328,-0.287 -1.932,-0.282"
     id="path141" />
  <path
     style="fill:#231f20;fill-opacity:1;fill-rule:nonzero;stroke:none"
     d="m 176.447,63.089 c 2.099,1.889 4.927,2.165 6.312,0.624 1.391,-1.547 0.814,-4.328 -1.29,-6.213 -2.099,-1.891 -4.928,-2.172 -6.314,-0.626 -1.39,1.543 -0.812,4.328 1.292,6.215"
     id="path142" />
  <path
     style="fill:none;stroke:#231f20;stroke-width:0.565977;stroke-linecap:butt;stroke-linejoin:miter;stroke-miterlimit:4;stroke-dasharray:none;stroke-opacity:1"
     d="m 176.447,63.089 c 2.099,1.889 4.927,2.165 6.312,0.624 1.391,-1.547 0.814,-4.328 -1.29,-6.213 -2.099,-1.891 -4.928,-2.172 -6.314,-0.626 -1.39,1.543 -0.812,4.328 1.292,6.215 z"
     id="path143" />
  <path
     style="fill:#231f20;fill-opacity:1;fill-rule:nonzero;stroke:none"
     d="m 199.317,67.708 c 1.297,-3.364 2.714,-2.468 6.761,-1.984 4.432,0.526 8.995,1.557 11.859,3.182 3.213,1.823 3.604,1.479 3.562,3.402 -0.041,1.916 -0.822,1.921 -1.869,2.67 -1.208,0.866 -7.781,-2.437 -12.521,-2.833 -2.219,-0.187 -7.656,0.808 -7.875,-0.624 -0.219,-1.437 0.083,-3.813 0.083,-3.813"
     id="path144" />
  <path
     style="fill:none;stroke:#231f20;stroke-width:0.565977;stroke-linecap:butt;stroke-linejoin:miter;stroke-miterlimit:4;stroke-dasharray:none;stroke-opacity:1"
     d="m 199.317,67.708 c 1.297,-3.364 2.714,-2.468 6.761,-1.984 4.432,0.526 8.995,1.557 11.859,3.182 3.213,1.823 3.604,1.479 3.562,3.402 -0.041,1.916 -0.822,1.921 -1.869,2.67 -1.208,0.866 -7.781,-2.437 -12.521,-2.833 -2.219,-0.187 -7.656,0.808 -7.875,-0.624 -0.219,-1.437 0.083,-3.813 0.083,-3.813 z"
     id="path145" />
  <path
     style="fill:#231f20;fill-opacity:1;fill-rule:nonzero;stroke:none"
     d="m 219.327,72.896 c 0.303,-2.24 0.36,-2.902 2.756,-2.172 0.61,0.188 2.266,0.822 2.656,0.833 1.302,0.031 2.802,0.172 8.526,3.427 0.885,0.505 2.745,1.177 4.021,1.766 1.235,0.567 -0.547,2.228 -1.031,2.015 -1.568,-0.703 -2.729,-0.812 -3.324,-0.984 -0.41,-0.12 -1.14,-0.469 -2.801,-0.531 -4.276,-0.166 -5.323,-1.625 -6.213,-1.74 -2.563,-0.317 -4.819,-0.062 -4.98,-0.713 -0.266,-1.047 0.39,-1.901 0.39,-1.901"
     id="path146" />
  <path
     style="fill:none;stroke:#231f20;stroke-width:0.565977;stroke-linecap:butt;stroke-linejoin:miter;stroke-miterlimit:4;stroke-dasharray:none;stroke-opacity:1"
     d="m 219.327,72.896 c 0.303,-2.24 0.36,-2.902 2.756,-2.172 0.61,0.188 2.266,0.822 2.656,0.833 1.302,0.031 2.802,0.172 8.526,3.427 0.885,0.505 2.745,1.177 4.021,1.766 1.235,0.567 -0.547,2.228 -1.031,2.015 -1.568,-0.703 -2.729,-0.812 -3.324,-0.984 -0.41,-0.12 -1.14,-0.469 -2.801,-0.531 -4.276,-0.166 -5.323,-1.625 -6.213,-1.74 -2.563,-0.317 -4.819,-0.062 -4.98,-0.713 -0.266,-1.047 0.39,-1.901 0.39,-1.901 z"
     id="path147" />
  <path
     style="fill:#231f20;fill-opacity:1;fill-rule:nonzero;stroke:none"
     d="m 198.177,73.833 c -0.219,3.599 1.448,3.369 5.333,4.609 4.249,1.35 8.833,2.308 12.115,2.011 3.672,-0.328 3.89,0.145 4.645,-1.62 0.761,-1.76 0.052,-2.093 -0.593,-3.208 -0.75,-1.292 -8.099,-1 -12.574,-2.599 -2.093,-0.756 -6.629,-3.912 -7.421,-2.698 -0.792,1.218 -1.505,3.505 -1.505,3.505"
     id="path148" />
  <path
     style="fill:none;stroke:#231f20;stroke-width:0.565977;stroke-linecap:butt;stroke-linejoin:miter;stroke-miterlimit:4;stroke-dasharray:none;stroke-opacity:1"
     d="m 198.177,73.833 c -0.219,3.599 1.448,3.369 5.333,4.609 4.249,1.35 8.833,2.308 12.115,2.011 3.672,-0.328 3.89,0.145 4.645,-1.62 0.761,-1.76 0.052,-2.093 -0.593,-3.208 -0.75,-1.292 -8.099,-1 -12.574,-2.599 -2.093,-0.756 -6.629,-3.912 -7.421,-2.698 -0.792,1.218 -1.505,3.505 -1.505,3.505 z"
     id="path149" />
  <path
     style="fill:#231f20;fill-opacity:1;fill-rule:nonzero;stroke:none"
     d="m 218.521,77.412 c -0.642,2.172 -0.855,2.801 1.629,3.12 0.631,0.072 2.407,0.166 2.767,0.322 1.192,0.506 2.624,0.99 9.176,0.354 1.016,-0.099 2.99,0.046 4.39,0.037 1.355,-0.021 0.423,-2.261 -0.113,-2.261 -1.72,-0.006 -2.819,-0.375 -3.439,-0.458 -0.421,-0.062 -1.228,-0.037 -2.776,-0.661 -3.962,-1.605 -5.514,-0.693 -6.374,-0.959 -2.468,-0.756 -4.422,-1.912 -4.839,-1.385 -0.667,0.853 -0.421,1.891 -0.421,1.891"
     id="path150" />
  <path
     style="fill:none;stroke:#231f20;stroke-width:0.565977;stroke-linecap:butt;stroke-linejoin:miter;stroke-miterlimit:4;stroke-dasharray:none;stroke-opacity:1"
     d="m 218.521,77.412 c -0.642,2.172 -0.855,2.801 1.629,3.12 0.631,0.072 2.407,0.166 2.767,0.322 1.192,0.506 2.624,0.99 9.176,0.354 1.016,-0.099 2.99,0.046 4.39,0.037 1.355,-0.021 0.423,-2.261 -0.113,-2.261 -1.72,-0.006 -2.819,-0.375 -3.439,-0.458 -0.421,-0.062 -1.228,-0.037 -2.776,-0.661 -3.962,-1.605 -5.514,-0.693 -6.374,-0.959 -2.468,-0.756 -4.422,-1.912 -4.839,-1.385 -0.667,0.853 -0.421,1.891 -0.421,1.891 z"
     id="path151" />
  <path
     style="fill:#231f20;fill-opacity:1;fill-rule:nonzero;stroke:none"
     d="m 239.718,82.62 c -0.645,0.166 -1.724,-1.282 -3.645,-1.694 -0.396,-0.082 -0.672,-0.338 -0.984,-0.541 -1.267,-0.828 -1.959,-2.265 1.869,-2.448 0.521,-0.02 2.479,0.761 3.249,0.661 1.855,-0.238 4.391,1.907 4.158,2.371 -0.495,1.005 -4.647,1.651 -4.647,1.651"
     id="path152" />
  <path
     style="fill:none;stroke:#231f20;stroke-width:0.644548;stroke-linecap:round;stroke-linejoin:round;stroke-miterlimit:4;stroke-dasharray:none;stroke-opacity:1"
     d="m 239.718,82.62 c -0.645,0.166 -1.724,-1.282 -3.645,-1.694 -0.396,-0.082 -0.672,-0.338 -0.984,-0.541 -1.267,-0.828 -1.959,-2.265 1.869,-2.448 0.521,-0.02 2.479,0.761 3.249,0.661 1.855,-0.238 4.391,1.907 4.158,2.371 -0.495,1.005 -4.647,1.651 -4.647,1.651 z"
     id="path153" />
  <path
     style="fill:#231f20;fill-opacity:1;fill-rule:nonzero;stroke:none"
     d="m 241.078,76.625 c -0.505,-0.432 -2.109,0.38 -4.021,-0.115 -0.391,-0.093 -0.75,0.011 -1.12,0.052 -1.506,0.178 -2.76,1.156 0.584,3.022 0.462,0.254 2.552,0.432 3.208,0.864 1.546,1.036 4.776,0.25 4.77,-0.271 0.011,-1.115 -3.421,-3.552 -3.421,-3.552"
     id="path154" />
  <path
     style="fill:none;stroke:#231f20;stroke-width:0.644548;stroke-linecap:round;stroke-linejoin:round;stroke-miterlimit:4;stroke-dasharray:none;stroke-opacity:1"
     d="m 241.078,76.625 c -0.505,-0.432 -2.109,0.38 -4.021,-0.115 -0.391,-0.093 -0.75,0.011 -1.12,0.052 -1.506,0.178 -2.76,1.156 0.584,3.022 0.462,0.254 2.552,0.432 3.208,0.864 1.546,1.036 4.776,0.25 4.77,-0.271 0.011,-1.115 -3.421,-3.552 -3.421,-3.552 z"
     id="path155" />
  <path
     style="fill:#231f20;fill-opacity:1;fill-rule:nonzero;stroke:none"
     d="m 204.083,67.521 c -0.661,0.291 -3.032,2.52 -3.546,3.052 -0.475,0.473 -1.496,1.011 -1.095,2.093 0.161,0.432 0.704,0.964 0.98,1.12 0.224,0.126 0.515,-0.026 0.771,-0.333 0.421,-0.516 0.338,-0.833 1.077,-1.869 0,0 0.141,-0.272 0.365,-0.772 0.656,-1.495 0.224,-0.9 1.662,-2.848 0.104,-0.142 0.036,-0.344 -0.063,-0.402 -0.151,-0.098 -0.151,-0.041 -0.151,-0.041"
     id="path156" />
  <path
     style="fill:none;stroke:#231f20;stroke-width:0.565977;stroke-linecap:round;stroke-linejoin:round;stroke-miterlimit:4;stroke-dasharray:none;stroke-opacity:1"
     d="m 204.083,67.521 c -0.661,0.291 -3.032,2.52 -3.546,3.052 -0.475,0.473 -1.496,1.011 -1.095,2.093 0.161,0.432 0.704,0.964 0.98,1.12 0.224,0.126 0.515,-0.026 0.771,-0.333 0.421,-0.516 0.338,-0.833 1.077,-1.869 0,0 0.141,-0.272 0.365,-0.772 0.656,-1.495 0.224,-0.9 1.662,-2.848 0.104,-0.142 0.036,-0.344 -0.063,-0.402 -0.151,-0.098 -0.151,-0.041 -0.151,-0.041 z"
     id="path157" />
  <path
     style="fill:#0098c9;fill-opacity:1;fill-rule:nonzero;stroke:none"
     d="m 196.01,75.625 0.172,-0.313 c 2.557,-1.771 8.073,0.166 8.073,0.166 0,0 0.656,-0.353 0.875,-0.796 0.219,-0.442 0.104,-1.177 0.104,-1.177 0,0 -4.885,-3.213 -5.027,-6.317 l 0.147,-0.334 c 1.177,-0.428 -1.219,-0.146 -1.88,-0.489 -2.88,-1.496 -6.704,-4.881 -7.453,-5.991 -1.027,-1.52 -0.339,-4.052 -2.5,-3.937 0,0 -1.927,-0.271 -2.839,2.391 -0.333,0.958 -1.959,2.625 -1.959,2.625 0,0 -1.03,0.875 -1.568,1.907 -0.473,0.916 -0.514,2.057 -0.514,2.306 h -0.006 c 0,0 -0.344,2.298 -0.901,3.146 -1.563,2.333 0.088,3.776 0.088,3.776 1.219,1.786 2.552,-0.364 4.381,-0.463 1.334,-0.079 6.338,0.911 9.28,2.297 0.667,0.323 1.896,2.395 1.527,1.203"
     id="path158" />
  <path
     style="fill:none;stroke:#231f20;stroke-width:0.565977;stroke-linecap:butt;stroke-linejoin:miter;stroke-miterlimit:4;stroke-dasharray:none;stroke-opacity:1"
     d="m 196.01,75.625 0.172,-0.313 c 2.557,-1.771 8.073,0.166 8.073,0.166 0,0 0.656,-0.353 0.875,-0.796 0.219,-0.442 0.104,-1.177 0.104,-1.177 0,0 -4.885,-3.213 -5.027,-6.317 l 0.147,-0.334 c 1.177,-0.428 -1.219,-0.146 -1.88,-0.489 -2.88,-1.496 -6.704,-4.881 -7.453,-5.991 -1.027,-1.52 -0.339,-4.052 -2.5,-3.937 0,0 -1.927,-0.271 -2.839,2.391 -0.333,0.958 -1.959,2.625 -1.959,2.625 0,0 -1.03,0.875 -1.568,1.907 -0.473,0.916 -0.514,2.057 -0.514,2.306 h -0.006 c 0,0 -0.344,2.298 -0.901,3.146 -1.563,2.333 0.088,3.776 0.088,3.776 1.219,1.786 2.552,-0.364 4.381,-0.463 1.334,-0.079 6.338,0.911 9.28,2.297 0.667,0.323 1.896,2.395 1.527,1.203 z"
     id="path159" />
  <path
     style="fill:#0098c9;fill-opacity:1;fill-rule:nonzero;stroke:none"
     d="m 194.963,75.166 c 0.219,0.271 1.203,1.219 1.574,1.5 2.364,1.792 6.202,2.76 7.328,3.35 1.129,0.598 2.828,-5.771 2.828,-5.771 l -0.986,-1.095 c 0.543,-0.312 0.052,-0.176 0.052,-0.176 l 1.522,-0.557 c 0,0 1.964,-6.157 0.958,-6.276 -1.385,-0.177 -5.865,-1.329 -8.297,-1.032 -1.333,0.167 -2.187,0.735 -2.187,0.735 0,0 0.072,3.801 -0.308,5.177 -0.385,1.375 -2.484,4.145 -2.484,4.145"
     id="path160" />
  <path
     style="fill:none;stroke:#231f20;stroke-width:0.565977;stroke-linecap:butt;stroke-linejoin:miter;stroke-miterlimit:4;stroke-dasharray:none;stroke-opacity:1"
     d="m 194.963,75.166 c 0.219,0.271 1.203,1.219 1.574,1.5 2.364,1.792 6.202,2.76 7.328,3.35 1.129,0.598 2.828,-5.771 2.828,-5.771 l -0.986,-1.095 c 0.543,-0.312 0.052,-0.176 0.052,-0.176 l 1.522,-0.557 c 0,0 1.964,-6.157 0.958,-6.276 -1.385,-0.177 -5.865,-1.329 -8.297,-1.032 -1.333,0.167 -2.187,0.735 -2.187,0.735 0,0 0.072,3.801 -0.308,5.177 -0.385,1.375 -2.484,4.145 -2.484,4.145 z"
     id="path161" />
  <path
     style="fill:none;stroke:#231f20;stroke-width:0.565977;stroke-linecap:round;stroke-linejoin:round;stroke-miterlimit:4;stroke-dasharray:none;stroke-opacity:1"
     d="m 204.458,76.032 c 1.541,-0.934 1.136,-3.063 1.136,-3.063 1.083,-1.48 0.755,-3.052 0.755,-3.052"
     id="path162" />
</svg>
