<?xml version="1.0" encoding="UTF-8" standalone="no"?>
<!-- Created with Inkscape (http://www.inkscape.org/) -->

<svg
   version="1.1"
   id="svg1"
   width="337.34137"
   height="153.03926"
   viewBox="0 0 337.34136 153.03926"
   sodipodi:docname="cell.svg"
   xmlns:inkscape="http://www.inkscape.org/namespaces/inkscape"
   xmlns:sodipodi="http://sodipodi.sourceforge.net/DTD/sodipodi-0.dtd"
   xmlns="http://www.w3.org/2000/svg"
   xmlns:svg="http://www.w3.org/2000/svg">
  <sodipodi:namedview
     id="namedview1"
     pagecolor="#ffffff"
     bordercolor="#000000"
     borderopacity="0.25"
     inkscape:showpageshadow="2"
     inkscape:pageopacity="0.0"
     inkscape:pagecheckerboard="0"
     inkscape:deskcolor="#d1d1d1">
    <inkscape:page
       x="0"
       y="0"
       inkscape:label="1"
       id="page1"
       width="337.34137"
       height="153.03926"
       margin="0"
       bleed="0" />
  </sodipodi:namedview>
  <defs
     id="defs1" />
  <path
     style="fill:#231f20;fill-opacity:1;fill-rule:nonzero;stroke:none"
     d="m 333.8868,5.7229987 c -1.261,0.5 -1.245,1.489 -0.568,2.276 0.197,0.234 0.129,0.641 0.344,0.86 0.504,0.489 2.244,0.41 2.552,-1.058 0.02,-0.104 0.421,-0.818 0.635,-1.401 0.422,-1.14 0.708,-3.615 -0.984,-5.71900001 -0.798,-0.994 -1.24,-0.333 -1.042,0.162 0.646,1.58800001 0.391,1.85400001 0.406,2.33300001 0.062,1.62 -1.343,2.547 -1.343,2.547"
     id="path366" />
  <path
     style="fill:none;stroke:#231f20;stroke-width:0.332927;stroke-linecap:butt;stroke-linejoin:miter;stroke-miterlimit:4;stroke-dasharray:none;stroke-opacity:1"
     d="m 333.8868,5.7229987 c -1.261,0.5 -1.245,1.489 -0.568,2.276 0.197,0.234 0.129,0.641 0.344,0.86 0.504,0.489 2.244,0.41 2.552,-1.058 0.02,-0.104 0.421,-0.818 0.635,-1.401 0.422,-1.14 0.708,-3.615 -0.984,-5.71900001 -0.798,-0.994 -1.24,-0.333 -1.042,0.162 0.646,1.58800001 0.391,1.85400001 0.406,2.33300001 0.062,1.62 -1.343,2.547 -1.343,2.547 z"
     id="path367" />
  <path
     style="fill:#231f20;fill-opacity:1;fill-rule:nonzero;stroke:none"
     d="m 330.3598,24.139999 c -2.24,-0.328 -2.63,-0.694 -2.552,-1.647 0.047,-0.64 -0.125,-1.244 -0.114,-1.635 0.041,-1.297 0.645,-3.458 3.958,-9.151 0.75,-1.286 1.796,-3.1040003 2.162,-3.8800003 0.577,-1.23 2.224,0.568 2,1.046 -0.714,1.5630003 -1.079,2.6880003 -1.26,3.2870003 -0.12,0.412 -0.443,1.104 -0.715,2.745 -0.416,2.495 -0.291,4.047 -0.88,6.077 -0.271,0.948 0.125,1.83 -0.62,2.615 -0.739,0.803 -1.979,0.543 -1.979,0.543"
     id="path368" />
  <path
     style="fill:none;stroke:#231f20;stroke-width:0.565977;stroke-linecap:butt;stroke-linejoin:miter;stroke-miterlimit:4;stroke-dasharray:none;stroke-opacity:1"
     d="m 330.3598,24.139999 c -2.24,-0.328 -2.63,-0.694 -2.552,-1.647 0.047,-0.64 -0.125,-1.244 -0.114,-1.635 0.041,-1.297 0.645,-3.458 3.958,-9.151 0.75,-1.286 1.796,-3.1040003 2.162,-3.8800003 0.577,-1.23 2.224,0.568 2,1.046 -0.714,1.5630003 -1.079,2.6880003 -1.26,3.2870003 -0.12,0.412 -0.443,1.104 -0.715,2.745 -0.416,2.495 -0.291,4.047 -0.88,6.077 -0.271,0.948 0.125,1.83 -0.62,2.615 -0.739,0.803 -1.979,0.543 -1.979,0.543 z"
     id="path369" />
  <path
     style="fill:#0098c9;fill-opacity:1;fill-rule:nonzero;stroke:none"
     d="m 321.8438,49.539999 c 0.167,-3.13 -0.14,-3.818 -0.457,-4.687 -1.985,-5.428 0.719,-6.303 3.525,-5.625 3.298,0.786 4.495,1 3.563,7.229 -0.26,1.729 -0.385,8.5 -0.385,8.5 0.281,2.432 -0.74,4.953 -1.984,5.708 -1.319,0.792 -0.85,0.38 -2.204,0.891 -1.287,0.489 -3.443,0.125 -4.072,-0.943 -0.606,-1.02 0.192,-2.484 1.072,-4.74 0.688,-1.785 0.942,-6.333 0.942,-6.333"
     id="path370" />
  <path
     style="fill:none;stroke:#231f20;stroke-width:0.565977;stroke-linecap:butt;stroke-linejoin:miter;stroke-miterlimit:4;stroke-dasharray:none;stroke-opacity:1"
     d="m 321.8438,49.539999 c 0.167,-3.13 -0.14,-3.818 -0.457,-4.687 -1.985,-5.428 0.719,-6.303 3.525,-5.625 3.298,0.786 4.495,1 3.563,7.229 -0.26,1.729 -0.385,8.5 -0.385,8.5 0.281,2.432 -0.74,4.953 -1.984,5.708 -1.319,0.792 -0.85,0.38 -2.204,0.891 -1.287,0.489 -3.443,0.125 -4.072,-0.943 -0.606,-1.02 0.192,-2.484 1.072,-4.74 0.688,-1.785 0.942,-6.333 0.942,-6.333 z"
     id="path371" />
  <path
     style="fill:#ffffff;fill-opacity:1;fill-rule:nonzero;stroke:none"
     d="m 320.3498,68.481999 c -0.192,0.158 0.281,1.204 -0.178,1.454 -0.457,0.256 -1,-0.318 -2.984,-0.208 l -0.021,0.005 c -1.452,0.131 -2.76,-0.339 -3.447,-1.385 -1.136,-1.74 -0.146,-4.402 2.214,-5.948 2.364,-1.552 5.202,-1.396 6.338,0.338 1.094,1.662 0.228,4.178 -1.922,5.744"
     id="path372" />
  <path
     style="fill:none;stroke:#231f20;stroke-width:0.565977;stroke-linecap:butt;stroke-linejoin:miter;stroke-miterlimit:4;stroke-dasharray:none;stroke-opacity:1"
     d="m 320.3498,68.481999 c -0.192,0.158 0.281,1.204 -0.178,1.454 -0.457,0.256 -1,-0.318 -2.984,-0.208 l -0.021,0.005 c -1.452,0.131 -2.76,-0.339 -3.447,-1.385 -1.136,-1.74 -0.146,-4.402 2.214,-5.948 2.364,-1.552 5.202,-1.396 6.338,0.338 1.094,1.662 0.228,4.178 -1.922,5.744 z"
     id="path373" />
  <path
     style="fill:#231f20;fill-opacity:1;fill-rule:nonzero;stroke:none"
     d="m 330.1518,21.680999 c 4.006,0.24 1.959,3.771 1.932,4.249 -0.281,5 -0.426,5.355 -0.906,9.147 -0.687,5.484 -2,9.135 -5.312,9.667 -2.24,0.358 -3.694,-0.412 -4.366,-1.538 -0.744,-1.26 -0.926,-4.432 1.428,-6.114 l 0.656,-1.578 c 0.307,-1.12 0.47,-1.672 0.579,-2.24 0.187,-0.984 0.448,-2.025 0.921,-3.926 0.839,-3.37 2.828,-6.656 2.828,-6.656 0.334,-1.204 2.24,-1.011 2.24,-1.011"
     id="path374" />
  <path
     style="fill:none;stroke:#231f20;stroke-width:0.565977;stroke-linecap:butt;stroke-linejoin:miter;stroke-miterlimit:4;stroke-dasharray:none;stroke-opacity:1"
     d="m 330.1518,21.680999 c 4.006,0.24 1.959,3.771 1.932,4.249 -0.281,5 -0.426,5.355 -0.906,9.147 -0.687,5.484 -2,9.135 -5.312,9.667 -2.24,0.358 -3.694,-0.412 -4.366,-1.538 -0.744,-1.26 -0.926,-4.432 1.428,-6.114 l 0.656,-1.578 c 0.307,-1.12 0.47,-1.672 0.579,-2.24 0.187,-0.984 0.448,-2.025 0.921,-3.926 0.839,-3.37 2.828,-6.656 2.828,-6.656 0.334,-1.204 2.24,-1.011 2.24,-1.011 z"
     id="path375" />
  <path
     style="fill:#0098c9;fill-opacity:1;fill-rule:nonzero;stroke:none"
     d="m 331.0218,39.336999 -7.416,-2.459 c -2.6,1.262 -2.943,4.423 -2.423,5.787 0.48,1.229 1.776,2.219 4.047,2.245 1.474,0.011 2.661,-0.656 3.672,-1.838 0.833,-0.62 1.322,-1.016 1.322,-1.828 0,-0.068 0.011,-0.147 0.027,-0.23 0.265,-0.521 0.527,-1.068 0.771,-1.677"
     id="path376" />
  <path
     style="fill:none;stroke:#231f20;stroke-width:0.565977;stroke-linecap:butt;stroke-linejoin:miter;stroke-miterlimit:4;stroke-dasharray:none;stroke-opacity:1"
     d="m 331.0218,39.336999 -7.416,-2.459 c -2.6,1.262 -2.943,4.423 -2.423,5.787 0.48,1.229 1.776,2.219 4.047,2.245 1.474,0.011 2.661,-0.656 3.672,-1.838 0.833,-0.62 1.322,-1.016 1.322,-1.828 0,-0.068 0.011,-0.147 0.027,-0.23 0.265,-0.521 0.527,-1.068 0.771,-1.677 z"
     id="path377" />
  <path
     style="fill:#231f20;fill-opacity:1;fill-rule:nonzero;stroke:none"
     d="m 319.1308,79.019999 c 0.469,-0.443 0.661,-2.38 1.423,-3.798 0.509,-0.958 0.708,-3.697 1.29,-4.609 0.532,-0.839 0.699,-1.276 -0.156,-2.047 -0.505,-0.458 -1.776,-1.01 -2.134,-0.65 -0.839,0.842 -1.194,1.718 -1.376,2.776 -0.203,1.197 -0.479,4.494 -0.474,5.109 0.02,1.525 -0.426,2.109 -0.458,2.511 -0.068,0.754 0.208,0.968 0.693,1.118 0.916,0.276 1.192,-0.41 1.192,-0.41"
     id="path378" />
  <path
     style="fill:none;stroke:#231f20;stroke-width:0.565977;stroke-linecap:butt;stroke-linejoin:miter;stroke-miterlimit:4;stroke-dasharray:none;stroke-opacity:1"
     d="m 319.1308,79.019999 c 0.469,-0.443 0.661,-2.38 1.423,-3.798 0.509,-0.958 0.708,-3.697 1.29,-4.609 0.532,-0.839 0.699,-1.276 -0.156,-2.047 -0.505,-0.458 -1.776,-1.01 -2.134,-0.65 -0.839,0.842 -1.194,1.718 -1.376,2.776 -0.203,1.197 -0.479,4.494 -0.474,5.109 0.02,1.525 -0.426,2.109 -0.458,2.511 -0.068,0.754 0.208,0.968 0.693,1.118 0.916,0.276 1.192,-0.41 1.192,-0.41 z"
     id="path379" />
  <path
     style="fill:#231f20;fill-opacity:1;fill-rule:nonzero;stroke:none"
     d="m 321.2978,70.221999 c 1.281,0.172 1.177,-1.864 1.229,-2.401 0.052,-0.547 0.38,-2.067 0.792,-3.213 0.405,-1.156 0.421,-2.776 1.197,-4.968 0.407,-1.152 0.074,-2.532 -1.629,-3.047 -1.677,-0.511 -2.6,0.239 -2.881,1.708 -0.282,1.468 0.078,2.968 -0.104,4.468 -0.178,1.505 -0.5,3.016 -0.807,4.193 -0.355,1.334 -0.032,2.126 0.349,2.416 0.943,0.735 1.854,0.844 1.854,0.844"
     id="path380" />
  <path
     style="fill:none;stroke:#231f20;stroke-width:0.565977;stroke-linecap:butt;stroke-linejoin:miter;stroke-miterlimit:4;stroke-dasharray:none;stroke-opacity:1"
     d="m 321.2978,70.221999 c 1.281,0.172 1.177,-1.864 1.229,-2.401 0.052,-0.547 0.38,-2.067 0.792,-3.213 0.405,-1.156 0.421,-2.776 1.197,-4.968 0.407,-1.152 0.074,-2.532 -1.629,-3.047 -1.677,-0.511 -2.6,0.239 -2.881,1.708 -0.282,1.468 0.078,2.968 -0.104,4.468 -0.178,1.505 -0.5,3.016 -0.807,4.193 -0.355,1.334 -0.032,2.126 0.349,2.416 0.943,0.735 1.854,0.844 1.854,0.844 z"
     id="path381" />
  <path
     style="fill:#231f20;fill-opacity:1;fill-rule:nonzero;stroke:none"
     d="m 119.7048,141.697 c -1.349,0.115 -1.781,-0.776 -1.521,-1.781 0.073,-0.298 -0.172,-0.636 -0.072,-0.923 0.228,-0.662 1.822,-1.375 2.749,-0.192 0.068,0.082 0.745,0.546 1.197,0.968 0.882,0.833 2.246,2.923 1.667,5.557 -0.276,1.245 -0.957,0.855 -1.004,0.319 -0.131,-1.71 -0.475,-1.833 -0.677,-2.267 -0.667,-1.478 -2.339,-1.681 -2.339,-1.681"
     id="path382" />
  <path
     style="fill:none;stroke:#231f20;stroke-width:0.332927;stroke-linecap:butt;stroke-linejoin:miter;stroke-miterlimit:4;stroke-dasharray:none;stroke-opacity:1"
     d="m 119.7048,141.697 c -1.349,0.115 -1.781,-0.776 -1.521,-1.781 0.073,-0.298 -0.172,-0.636 -0.072,-0.923 0.228,-0.662 1.822,-1.375 2.749,-0.192 0.068,0.082 0.745,0.546 1.197,0.968 0.882,0.833 2.246,2.923 1.667,5.557 -0.276,1.245 -0.957,0.855 -1.004,0.319 -0.131,-1.71 -0.475,-1.833 -0.677,-2.267 -0.667,-1.478 -2.339,-1.681 -2.339,-1.681 z"
     id="path383" />
  <path
     style="fill:#231f20;fill-opacity:1;fill-rule:nonzero;stroke:none"
     d="m 108.3398,126.78 c -1.859,1.297 -2.047,1.797 -1.552,2.62 0.328,0.546 0.442,1.166 0.63,1.51 0.615,1.14 2.12,2.807 7.62,6.427 1.244,0.812 2.99,1.979 3.667,2.51 1.063,0.839 1.735,-1.5 1.317,-1.828 -1.333,-1.084 -2.161,-1.927 -2.588,-2.385 -0.292,-0.308 -0.885,-0.787 -1.865,-2.136 -1.484,-2.046 -2.068,-3.489 -3.5,-5.046 -0.661,-0.724 -0.703,-1.694 -1.719,-2.069 -1.014,-0.385 -2.01,0.397 -2.01,0.397"
     id="path384" />
  <path
     style="fill:none;stroke:#231f20;stroke-width:0.565977;stroke-linecap:butt;stroke-linejoin:miter;stroke-miterlimit:4;stroke-dasharray:none;stroke-opacity:1"
     d="m 108.3398,126.78 c -1.859,1.297 -2.047,1.797 -1.552,2.62 0.328,0.546 0.442,1.166 0.63,1.51 0.615,1.14 2.12,2.807 7.62,6.427 1.244,0.812 2.99,1.979 3.667,2.51 1.063,0.839 1.735,-1.5 1.317,-1.828 -1.333,-1.084 -2.161,-1.927 -2.588,-2.385 -0.292,-0.308 -0.885,-0.787 -1.865,-2.136 -1.484,-2.046 -2.068,-3.489 -3.5,-5.046 -0.661,-0.724 -0.703,-1.694 -1.719,-2.069 -1.014,-0.385 -2.01,0.397 -2.01,0.397 z"
     id="path385" />
  <path
     style="fill:#0098c9;fill-opacity:1;fill-rule:nonzero;stroke:none"
     d="m 89.3918,107.847 c 1.542,2.724 1.578,3.479 1.677,4.397 0.647,5.744 3.453,5.317 5.667,3.462 2.6,-2.171 3.578,-2.9 -0.031,-8.061 -1.005,-1.433 -4.136,-7.439 -4.136,-7.439 -0.833,-2.301001 -2.869,-4.104001 -4.323,-4.218001 -1.53,-0.124 -0.932,0.037 -2.369,0.182 -1.371,0.136 -3.136,1.423 -3.224,2.656 -0.084,1.183001 1.282,2.142001 3.072,3.771001 1.412,1.286 3.667,5.25 3.667,5.25"
     id="path386" />
  <path
     style="fill:none;stroke:#231f20;stroke-width:0.565977;stroke-linecap:butt;stroke-linejoin:miter;stroke-miterlimit:4;stroke-dasharray:none;stroke-opacity:1"
     d="m 89.3918,107.847 c 1.542,2.724 1.578,3.479 1.677,4.397 0.647,5.744 3.453,5.317 5.667,3.462 2.6,-2.171 3.578,-2.9 -0.031,-8.061 -1.005,-1.433 -4.136,-7.439 -4.136,-7.439 -0.833,-2.301001 -2.869,-4.104001 -4.323,-4.218001 -1.53,-0.124 -0.932,0.037 -2.369,0.182 -1.371,0.136 -3.136,1.423 -3.224,2.656 -0.084,1.183001 1.282,2.142001 3.072,3.771001 1.412,1.286 3.667,5.25 3.667,5.25 z"
     id="path387" />
  <path
     style="fill:#ffffff;fill-opacity:1;fill-rule:nonzero;stroke:none"
     d="m 85.6118,90.029999 c -0.063,-0.24 0.921,-0.824 0.692,-1.292 -0.235,-0.469 -1.005,-0.308 -2.568,-1.541 l -0.015,-0.016 c -1.115,-0.938 -2.448,-1.308 -3.615,-0.844 -1.933,0.77 -2.646,3.521 -1.6,6.141 1.048,2.629 3.454,4.129 5.386,3.359 1.849,-0.73 2.584,-3.287 1.72,-5.807"
     id="path388" />
  <path
     style="fill:none;stroke:#231f20;stroke-width:0.565977;stroke-linecap:butt;stroke-linejoin:miter;stroke-miterlimit:4;stroke-dasharray:none;stroke-opacity:1"
     d="m 85.6118,90.029999 c -0.063,-0.24 0.921,-0.824 0.692,-1.292 -0.235,-0.469 -1.005,-0.308 -2.568,-1.541 l -0.015,-0.016 c -1.115,-0.938 -2.448,-1.308 -3.615,-0.844 -1.933,0.77 -2.646,3.521 -1.6,6.141 1.048,2.629 3.454,4.129 5.386,3.359 1.849,-0.73 2.584,-3.287 1.72,-5.807 z"
     id="path389" />
  <path
     style="fill:#231f20;fill-opacity:1;fill-rule:nonzero;stroke:none"
     d="m 109.2518,129.077 c 3.473,-1.995 0.068,-4.251 -0.167,-4.661 -2.479,-4.355 -2.765,-4.604 -4.885,-7.793 -3.068,-4.598 -5.87,-7.276 -9.068,-6.276 -2.167,0.678 -3.126,2.011 -3.224,3.323 -0.104,1.453 1.146,4.375 4.005,4.834 l 1.292,1.119 c 0.776,0.865 1.166,1.288 1.516,1.746 0.604,0.801 1.301,1.619 2.572,3.104 2.256,2.64 5.5,4.697 5.5,4.697 0.833,0.927 2.459,-0.093 2.459,-0.093"
     id="path390" />
  <path
     style="fill:none;stroke:#231f20;stroke-width:0.565977;stroke-linecap:butt;stroke-linejoin:miter;stroke-miterlimit:4;stroke-dasharray:none;stroke-opacity:1"
     d="m 109.2518,129.077 c 3.473,-1.995 0.068,-4.251 -0.167,-4.661 -2.479,-4.355 -2.765,-4.604 -4.885,-7.793 -3.068,-4.598 -5.87,-7.276 -9.068,-6.276 -2.167,0.678 -3.126,2.011 -3.224,3.323 -0.104,1.453 1.146,4.375 4.005,4.834 l 1.292,1.119 c 0.776,0.865 1.166,1.288 1.516,1.746 0.604,0.801 1.301,1.619 2.572,3.104 2.256,2.64 5.5,4.697 5.5,4.697 0.833,0.927 2.459,-0.093 2.459,-0.093 z"
     id="path391" />
  <path
     style="fill:#0098c9;fill-opacity:1;fill-rule:nonzero;stroke:none"
     d="m 100.7158,111.728 c -0.047,-0.069 -0.09,-0.135 -0.12,-0.198 -0.366,-0.724 -0.98,-0.86 -2.001,-1.048 -1.431,-0.604 -2.791,-0.67 -4.103,-0.004 -2.027,1.031 -2.751,2.5 -2.626,3.817 0.14,1.454 1.859,4.126 4.75,4.099 l 5.542,-5.511 c -0.489,-0.431 -0.969,-0.812 -1.442,-1.155"
     id="path392" />
  <path
     style="fill:none;stroke:#231f20;stroke-width:0.565977;stroke-linecap:butt;stroke-linejoin:miter;stroke-miterlimit:4;stroke-dasharray:none;stroke-opacity:1"
     d="m 100.7158,111.728 c -0.047,-0.069 -0.09,-0.135 -0.12,-0.198 -0.366,-0.724 -0.98,-0.86 -2.001,-1.048 -1.431,-0.604 -2.791,-0.67 -4.103,-0.004 -2.027,1.031 -2.751,2.5 -2.626,3.817 0.14,1.454 1.859,4.126 4.75,4.099 l 5.542,-5.511 c -0.489,-0.431 -0.969,-0.812 -1.442,-1.155 z"
     id="path393" />
  <path
     style="fill:#231f20;fill-opacity:1;fill-rule:nonzero;stroke:none"
     d="m 73.8248,82.664999 c 0.615,0.183 1.651,1.839 2.963,2.765 0.885,0.631 2.281,2.995 3.214,3.552 0.848,0.511 1.187,0.83 0.771,1.902 -0.25,0.63 -1.141,1.698 -1.62,1.537 -1.13,-0.385 -1.839,-1.016 -2.47,-1.876 -0.718,-0.979 -2.431,-3.812 -2.702,-4.364 -0.661,-1.375 -1.322,-1.693 -1.532,-2.041 -0.395,-0.652 -0.244,-0.964 0.12,-1.309 0.699,-0.655 1.256,-0.166 1.256,-0.166"
     id="path394" />
  <path
     style="fill:none;stroke:#231f20;stroke-width:0.565977;stroke-linecap:butt;stroke-linejoin:miter;stroke-miterlimit:4;stroke-dasharray:none;stroke-opacity:1"
     d="m 73.8248,82.664999 c 0.615,0.183 1.651,1.839 2.963,2.765 0.885,0.631 2.281,2.995 3.214,3.552 0.848,0.511 1.187,0.83 0.771,1.902 -0.25,0.63 -1.141,1.698 -1.62,1.537 -1.13,-0.385 -1.839,-1.016 -2.47,-1.876 -0.718,-0.979 -2.431,-3.812 -2.702,-4.364 -0.661,-1.375 -1.322,-1.693 -1.532,-2.041 -0.395,-0.652 -0.244,-0.964 0.12,-1.309 0.699,-0.655 1.256,-0.166 1.256,-0.166 z"
     id="path395" />
  <path
     style="fill:#231f20;fill-opacity:1;fill-rule:nonzero;stroke:none"
     d="m 79.6778,89.576999 c 1.079,-0.729 1.891,1.14 2.178,1.599 0.286,0.464 1.26,1.677 2.141,2.526 0.88,0.854 1.615,2.286 3.281,3.911 0.88,0.849 1.198,2.234 -0.095,3.453001 -1.275,1.208 -2.431,0.943 -3.338,-0.245 -0.91,-1.192001 -1.255,-2.692001 -2.088,-3.957001 -0.828,-1.267 -1.792,-2.475 -2.593,-3.386 -0.912,-1.037 -0.975,-1.896 -0.767,-2.324 0.516,-1.077 1.281,-1.577 1.281,-1.577"
     id="path396" />
  <path
     style="fill:none;stroke:#231f20;stroke-width:0.565977;stroke-linecap:butt;stroke-linejoin:miter;stroke-miterlimit:4;stroke-dasharray:none;stroke-opacity:1"
     d="m 79.6778,89.576999 c 1.079,-0.729 1.891,1.14 2.178,1.599 0.286,0.464 1.26,1.677 2.141,2.526 0.88,0.854 1.615,2.286 3.281,3.911 0.88,0.849 1.198,2.234 -0.095,3.453001 -1.275,1.208 -2.431,0.943 -3.338,-0.245 -0.91,-1.192001 -1.255,-2.692001 -2.088,-3.957001 -0.828,-1.267 -1.792,-2.475 -2.593,-3.386 -0.912,-1.037 -0.975,-1.896 -0.767,-2.324 0.516,-1.077 1.281,-1.577 1.281,-1.577 z"
     id="path397" />
  <path
     style="fill:#231f20;fill-opacity:1;fill-rule:nonzero;stroke:none"
     d="m 135.3608,147.78 c -0.593,-1.214 0.079,-1.943 1.109,-2.063 0.308,-0.041 0.532,-0.391 0.834,-0.405 0.702,-0.022 1.942,1.207 1.177,2.5 -0.052,0.088 -0.24,0.885 -0.475,1.462 -0.452,1.125 -1.905,3.151 -4.577,3.568 -1.256,0.193 -1.141,-0.588 -0.656,-0.817 1.541,-0.745 1.536,-1.109 1.869,-1.454 1.136,-1.161 0.719,-2.791 0.719,-2.791"
     id="path398" />
  <path
     style="fill:none;stroke:#231f20;stroke-width:0.332927;stroke-linecap:butt;stroke-linejoin:miter;stroke-miterlimit:4;stroke-dasharray:none;stroke-opacity:1"
     d="m 135.3608,147.78 c -0.593,-1.214 0.079,-1.943 1.109,-2.063 0.308,-0.041 0.532,-0.391 0.834,-0.405 0.702,-0.022 1.942,1.207 1.177,2.5 -0.052,0.088 -0.24,0.885 -0.475,1.462 -0.452,1.125 -1.905,3.151 -4.577,3.568 -1.256,0.193 -1.141,-0.588 -0.656,-0.817 1.541,-0.745 1.536,-1.109 1.869,-1.454 1.136,-1.161 0.719,-2.791 0.719,-2.791 z"
     id="path399" />
  <path
     style="fill:#231f20;fill-opacity:1;fill-rule:nonzero;stroke:none"
     d="m 145.1528,131.785 c -1.88,-1.266 -2.412,-1.255 -3,-0.5 -0.391,0.505 -0.928,0.838 -1.183,1.136 -0.838,0.989 -1.849,2.995 -3.229,9.426 -0.312,1.459 -0.765,3.506 -1.02,4.329 -0.396,1.297 2.025,1.078 2.187,0.573 0.521,-1.636 1.01,-2.714 1.281,-3.276 0.183,-0.391 0.417,-1.115 1.317,-2.516 1.371,-2.12 2.506,-3.188 3.443,-5.088 0.433,-0.881 1.324,-1.267 1.303,-2.35 -0.011,-1.089 -1.099,-1.734 -1.099,-1.734"
     id="path400" />
  <path
     style="fill:none;stroke:#231f20;stroke-width:0.565977;stroke-linecap:butt;stroke-linejoin:miter;stroke-miterlimit:4;stroke-dasharray:none;stroke-opacity:1"
     d="m 145.1528,131.785 c -1.88,-1.266 -2.412,-1.255 -3,-0.5 -0.391,0.505 -0.928,0.838 -1.183,1.136 -0.838,0.989 -1.849,2.995 -3.229,9.426 -0.312,1.459 -0.765,3.506 -1.02,4.329 -0.396,1.297 2.025,1.078 2.187,0.573 0.521,-1.636 1.01,-2.714 1.281,-3.276 0.183,-0.391 0.417,-1.115 1.317,-2.516 1.371,-2.12 2.506,-3.188 3.443,-5.088 0.433,-0.881 1.324,-1.267 1.303,-2.35 -0.011,-1.089 -1.099,-1.734 -1.099,-1.734 z"
     id="path401" />
  <path
     style="fill:#0098c9;fill-opacity:1;fill-rule:nonzero;stroke:none"
     d="m 155.9488,107.269 c -1.984,2.428 -2.671,2.735 -3.489,3.156 -5.124,2.682 -3.708,5.146 -1.182,6.537 2.968,1.64 4,2.287 7.504,-2.948 0.97,-1.453 5.439,-6.546 5.439,-6.546 1.843,-1.61 2.785,-4.162 2.369,-5.552 -0.442,-1.475 -0.369,-0.86 -1.026,-2.147001 -0.619,-1.229 -2.463,-2.405 -3.646,-2.041 -1.13,0.349 -1.53,1.969 -2.401,4.224001 -0.692,1.786 -3.568,5.317 -3.568,5.317"
     id="path402" />
  <path
     style="fill:none;stroke:#231f20;stroke-width:0.565977;stroke-linecap:butt;stroke-linejoin:miter;stroke-miterlimit:4;stroke-dasharray:none;stroke-opacity:1"
     d="m 155.9488,107.269 c -1.984,2.428 -2.671,2.735 -3.489,3.156 -5.124,2.682 -3.708,5.146 -1.182,6.537 2.968,1.64 4,2.287 7.504,-2.948 0.97,-1.453 5.439,-6.546 5.439,-6.546 1.843,-1.61 2.785,-4.162 2.369,-5.552 -0.442,-1.475 -0.369,-0.86 -1.026,-2.147001 -0.619,-1.229 -2.463,-2.405 -3.646,-2.041 -1.13,0.349 -1.53,1.969 -2.401,4.224001 -0.692,1.786 -3.568,5.317 -3.568,5.317 z"
     id="path403" />
  <path
     style="fill:#ffffff;fill-opacity:1;fill-rule:nonzero;stroke:none"
     d="m 171.1938,97.300999 c 0.193,-0.147 1.099,0.563 1.453,0.181 0.355,-0.39 -0.078,-1.052 0.506,-2.957 l 0.01,-0.016 c 0.474,-1.38 0.334,-2.76 -0.526,-3.678 -1.416,-1.519 -4.235,-1.191 -6.297,0.73 -2.072,1.927 -2.604,4.719 -1.182,6.24 1.348,1.458 4,1.218 6.036,-0.5"
     id="path404" />
  <path
     style="fill:none;stroke:#231f20;stroke-width:0.565977;stroke-linecap:butt;stroke-linejoin:miter;stroke-miterlimit:4;stroke-dasharray:none;stroke-opacity:1"
     d="m 171.1938,97.300999 c 0.193,-0.147 1.099,0.563 1.453,0.181 0.355,-0.39 -0.078,-1.052 0.506,-2.957 l 0.01,-0.016 c 0.474,-1.38 0.334,-2.76 -0.526,-3.678 -1.416,-1.519 -4.235,-1.191 -6.297,0.73 -2.072,1.927 -2.604,4.719 -1.182,6.24 1.348,1.458 4,1.218 6.036,-0.5 z"
     id="path405" />
  <path
     style="fill:#231f20;fill-opacity:1;fill-rule:nonzero;stroke:none"
     d="m 143.3398,133.468 c 3.125,2.52 3.99,-1.47 4.292,-1.845 3.161,-3.885 3.286,-4.245 5.489,-7.369 3.183,-4.521 4.667,-8.105 2.579,-10.729 -1.418,-1.771 -3.006,-2.183 -4.266,-1.803 -1.396,0.432 -3.666,2.656 -3.057,5.484 l -0.579,1.61 c -0.525,1.037 -0.781,1.553 -1.082,2.042 -0.522,0.854 -1.032,1.801 -1.959,3.525 -1.651,3.058 -2.385,6.829 -2.385,6.829 -0.568,1.109 0.968,2.256 0.968,2.256"
     id="path406" />
  <path
     style="fill:none;stroke:#231f20;stroke-width:0.565977;stroke-linecap:butt;stroke-linejoin:miter;stroke-miterlimit:4;stroke-dasharray:none;stroke-opacity:1"
     d="m 143.3398,133.468 c 3.125,2.52 3.99,-1.47 4.292,-1.845 3.161,-3.885 3.286,-4.245 5.489,-7.369 3.183,-4.521 4.667,-8.105 2.579,-10.729 -1.418,-1.771 -3.006,-2.183 -4.266,-1.803 -1.396,0.432 -3.666,2.656 -3.057,5.484 l -0.579,1.61 c -0.525,1.037 -0.781,1.553 -1.082,2.042 -0.522,0.854 -1.032,1.801 -1.959,3.525 -1.651,3.058 -2.385,6.829 -2.385,6.829 -0.568,1.109 0.968,2.256 0.968,2.256 z"
     id="path407" />
  <path
     style="fill:#0098c9;fill-opacity:1;fill-rule:nonzero;stroke:none"
     d="m 156.8198,116.806 c 0.046,-1.552 -0.38,-2.849 -1.48,-3.828 -1.692,-1.516 -3.323,-1.657 -4.506,-1.067 -1.306,0.655 -3.176,3.229 -2.104,5.91 l 7.142,3.172 c 0.229,-0.615 0.406,-1.192 0.557,-1.76 0.047,-0.068 0.088,-0.131 0.14,-0.183 0.543,-0.598 0.448,-1.224 0.251,-2.244"
     id="path408" />
  <path
     style="fill:none;stroke:#231f20;stroke-width:0.565977;stroke-linecap:butt;stroke-linejoin:miter;stroke-miterlimit:4;stroke-dasharray:none;stroke-opacity:1"
     d="m 156.8198,116.806 c 0.046,-1.552 -0.38,-2.849 -1.48,-3.828 -1.692,-1.516 -3.323,-1.657 -4.506,-1.067 -1.306,0.655 -3.176,3.229 -2.104,5.91 l 7.142,3.172 c 0.229,-0.615 0.406,-1.192 0.557,-1.76 0.047,-0.068 0.088,-0.131 0.14,-0.183 0.543,-0.598 0.448,-1.224 0.251,-2.244 z"
     id="path409" />
  <path
     style="fill:#231f20;fill-opacity:1;fill-rule:nonzero;stroke:none"
     d="m 173.7928,83.644999 c 0.046,0.64 -1.115,2.208 -1.506,3.765 -0.265,1.052 -1.962,3.208 -2.15,4.282 -0.167,0.973 -0.339,1.41 -1.49,1.405 -0.682,0 -1.999,-0.448 -2.021,-0.957 -0.052,-1.188 0.276,-2.074 0.855,-2.975 0.656,-1.025 2.672,-3.651 3.088,-4.099 1.042,-1.114 1.1,-1.849 1.349,-2.166 0.464,-0.605 0.807,-0.574 1.265,-0.36 0.866,0.412 0.61,1.105 0.61,1.105"
     id="path410" />
  <path
     style="fill:none;stroke:#231f20;stroke-width:0.565977;stroke-linecap:butt;stroke-linejoin:miter;stroke-miterlimit:4;stroke-dasharray:none;stroke-opacity:1"
     d="m 173.7928,83.644999 c 0.046,0.64 -1.115,2.208 -1.506,3.765 -0.265,1.052 -1.962,3.208 -2.15,4.282 -0.167,0.973 -0.339,1.41 -1.49,1.405 -0.682,0 -1.999,-0.448 -2.021,-0.957 -0.052,-1.188 0.276,-2.074 0.855,-2.975 0.656,-1.025 2.672,-3.651 3.088,-4.099 1.042,-1.114 1.1,-1.849 1.349,-2.166 0.464,-0.605 0.807,-0.574 1.265,-0.36 0.866,0.412 0.61,1.105 0.61,1.105 z"
     id="path411" />
  <path
     style="fill:#231f20;fill-opacity:1;fill-rule:nonzero;stroke:none"
     d="m 169.4698,91.606999 c 1.063,0.741 -0.385,2.173 -0.708,2.605 -0.323,0.437 -1.104,1.786 -1.579,2.911 -0.478,1.126 -1.551,2.334 -2.458,4.479001 -0.473,1.126 -1.651,1.917 -3.255,1.156 -1.582,-0.749 -1.754,-1.927 -0.978,-3.202001 0.781,-1.276 2.057,-2.146 2.932,-3.375 0.88,-1.229 1.656,-2.568 2.224,-3.641 0.634,-1.228 1.406,-1.599 1.885,-1.558 1.192,0.095 1.937,0.625 1.937,0.625"
     id="path412" />
  <path
     style="fill:none;stroke:#231f20;stroke-width:0.565977;stroke-linecap:butt;stroke-linejoin:miter;stroke-miterlimit:4;stroke-dasharray:none;stroke-opacity:1"
     d="m 169.4698,91.606999 c 1.063,0.741 -0.385,2.173 -0.708,2.605 -0.323,0.437 -1.104,1.786 -1.579,2.911 -0.478,1.126 -1.551,2.334 -2.458,4.479001 -0.473,1.126 -1.651,1.917 -3.255,1.156 -1.582,-0.749 -1.754,-1.927 -0.978,-3.202001 0.781,-1.276 2.057,-2.146 2.932,-3.375 0.88,-1.229 1.656,-2.568 2.224,-3.641 0.634,-1.228 1.406,-1.599 1.885,-1.558 1.192,0.095 1.937,0.625 1.937,0.625 z"
     id="path413" />
  <path
     style="fill:#231f20;fill-opacity:1;fill-rule:nonzero;stroke:none"
     d="m 135.9338,53.768999 c 0.891,-1.015 1.818,-0.677 2.334,0.224 0.15,0.271 0.562,0.344 0.686,0.615 0.298,0.641 -0.358,2.256 -1.842,2.052 -0.106,-0.015 -0.918,0.12 -1.538,0.125 -1.213,0.016 -3.645,-0.547 -5.052,-2.844 -0.672,-1.088 0.094,-1.281 0.5,-0.921 1.282,1.134 1.615,0.989 2.058,1.161 1.51,0.604 2.854,-0.412 2.854,-0.412"
     id="path414" />
  <path
     style="fill:none;stroke:#231f20;stroke-width:0.332927;stroke-linecap:butt;stroke-linejoin:miter;stroke-miterlimit:4;stroke-dasharray:none;stroke-opacity:1"
     d="m 135.9338,53.768999 c 0.891,-1.015 1.818,-0.677 2.334,0.224 0.15,0.271 0.562,0.344 0.686,0.615 0.298,0.641 -0.358,2.256 -1.842,2.052 -0.106,-0.015 -0.918,0.12 -1.538,0.125 -1.213,0.016 -3.645,-0.547 -5.052,-2.844 -0.672,-1.088 0.094,-1.281 0.5,-0.921 1.282,1.134 1.615,0.989 2.058,1.161 1.51,0.604 2.854,-0.412 2.854,-0.412 z"
     id="path415" />
  <path
     style="fill:#231f20;fill-opacity:1;fill-rule:nonzero;stroke:none"
     d="m 154.4648,56.633999 c 0.443,-2.224 0.229,-2.713 -0.692,-2.964 -0.62,-0.166 -1.136,-0.536 -1.505,-0.656 -1.235,-0.39 -3.475,-0.552 -9.943,0.662 -1.469,0.276 -3.532,0.645 -4.391,0.729 -1.344,0.135 -0.209,2.287 0.318,2.24 1.713,-0.152 2.896,-0.115 3.521,-0.084 0.427,0.016 1.187,-0.047 2.823,0.245 2.489,0.448 3.91,1.078 6.025,1.208 0.98,0.063 1.683,0.735 2.667,0.298 1.005,-0.428 1.177,-1.678 1.177,-1.678"
     id="path416" />
  <path
     style="fill:none;stroke:#231f20;stroke-width:0.565977;stroke-linecap:butt;stroke-linejoin:miter;stroke-miterlimit:4;stroke-dasharray:none;stroke-opacity:1"
     d="m 154.4648,56.633999 c 0.443,-2.224 0.229,-2.713 -0.692,-2.964 -0.62,-0.166 -1.136,-0.536 -1.505,-0.656 -1.235,-0.39 -3.475,-0.552 -9.943,0.662 -1.469,0.276 -3.532,0.645 -4.391,0.729 -1.344,0.135 -0.209,2.287 0.318,2.24 1.713,-0.152 2.896,-0.115 3.521,-0.084 0.427,0.016 1.187,-0.047 2.823,0.245 2.489,0.448 3.91,1.078 6.025,1.208 0.98,0.063 1.683,0.735 2.667,0.298 1.005,-0.428 1.177,-1.678 1.177,-1.678 z"
     id="path417" />
  <path
     style="fill:#0098c9;fill-opacity:1;fill-rule:nonzero;stroke:none"
     d="m 180.4068,60.956999 c -2.328,-2.093 -2.598,-2.797 -2.984,-3.636 -2.432,-5.244 -4.964,-3.948 -6.469,-1.495 -1.781,2.886 -2.479,3.891 2.579,7.642 1.412,1.041 6.281,5.738 6.281,5.738 1.521,1.923 4.025,2.986 5.437,2.636 1.495,-0.369 0.875,-0.328 2.188,-0.921 1.26,-0.563 2.526,-2.344 2.219,-3.548 -0.292,-1.145 -1.896,-1.619 -4.109,-2.599 -1.746,-0.776 -5.142,-3.817 -5.142,-3.817"
     id="path418" />
  <path
     style="fill:none;stroke:#231f20;stroke-width:0.565977;stroke-linecap:butt;stroke-linejoin:miter;stroke-miterlimit:4;stroke-dasharray:none;stroke-opacity:1"
     d="m 180.4068,60.956999 c -2.328,-2.093 -2.598,-2.797 -2.984,-3.636 -2.432,-5.244 -4.964,-3.948 -6.469,-1.495 -1.781,2.886 -2.479,3.891 2.579,7.642 1.412,1.041 6.281,5.738 6.281,5.738 1.521,1.923 4.025,2.986 5.437,2.636 1.495,-0.369 0.875,-0.328 2.188,-0.921 1.26,-0.563 2.526,-2.344 2.219,-3.548 -0.292,-1.145 -1.896,-1.619 -4.109,-2.599 -1.746,-0.776 -5.142,-3.817 -5.142,-3.817 z"
     id="path419" />
  <path
     style="fill:#ffffff;fill-opacity:1;fill-rule:nonzero;stroke:none"
     d="m 189.6418,76.659999 c 0.136,0.204 -0.62,1.073 -0.251,1.442 0.371,0.376 1.054,-0.02 2.928,0.652 l 0.016,0.01 c 1.354,0.537 2.739,0.464 3.698,-0.348 1.582,-1.344 1.396,-4.178 -0.427,-6.328 -1.828,-2.162 -4.589,-2.824 -6.177,-1.48 -1.522,1.276 -1.407,3.937 0.213,6.052"
     id="path420" />
  <path
     style="fill:none;stroke:#231f20;stroke-width:0.565977;stroke-linecap:butt;stroke-linejoin:miter;stroke-miterlimit:4;stroke-dasharray:none;stroke-opacity:1"
     d="m 189.6418,76.659999 c 0.136,0.204 -0.62,1.073 -0.251,1.442 0.371,0.376 1.054,-0.02 2.928,0.652 l 0.016,0.01 c 1.354,0.537 2.739,0.464 3.698,-0.348 1.582,-1.344 1.396,-4.178 -0.427,-6.328 -1.828,-2.162 -4.589,-2.824 -6.177,-1.48 -1.522,1.276 -1.407,3.937 0.213,6.052 z"
     id="path421" />
  <path
     style="fill:#231f20;fill-opacity:1;fill-rule:nonzero;stroke:none"
     d="m 152.2208,55.607999 c -1.12,3.854 2.891,3.109 3.348,3.245 4.813,1.416 5.193,1.396 8.923,2.219 5.399,1.192 9.281,1.177 10.89,-1.76 1.088,-1.996 0.853,-3.62 0.015,-4.631 -0.932,-1.125 -3.859,-2.36 -6.239,-0.703 l -1.709,0.088 c -1.156,-0.088 -1.728,-0.125 -2.296,-0.213 -0.989,-0.151 -2.063,-0.26 -4.011,-0.448 -3.458,-0.339 -7.218,0.437 -7.218,0.437 -1.246,-0.098 -1.703,1.766 -1.703,1.766"
     id="path422" />
  <path
     style="fill:none;stroke:#231f20;stroke-width:0.565977;stroke-linecap:butt;stroke-linejoin:miter;stroke-miterlimit:4;stroke-dasharray:none;stroke-opacity:1"
     d="m 152.2208,55.607999 c -1.12,3.854 2.891,3.109 3.348,3.245 4.813,1.416 5.193,1.396 8.923,2.219 5.399,1.192 9.281,1.177 10.89,-1.76 1.088,-1.996 0.853,-3.62 0.015,-4.631 -0.932,-1.125 -3.859,-2.36 -6.239,-0.703 l -1.709,0.088 c -1.156,-0.088 -1.728,-0.125 -2.296,-0.213 -0.989,-0.151 -2.063,-0.26 -4.011,-0.448 -3.458,-0.339 -7.218,0.437 -7.218,0.437 -1.246,-0.098 -1.703,1.766 -1.703,1.766 z"
     id="path423" />
  <path
     style="fill:#0098c9;fill-opacity:1;fill-rule:nonzero;stroke:none"
     d="m 174.9968,54.201999 c -1.11,-0.953 -4.204,-1.688 -6.267,0.338 l -0.172,7.813 c 0.657,-0.027 1.261,-0.089 1.839,-0.167 0.078,0.016 0.157,0.031 0.229,0.058 0.761,0.27 1.297,-0.058 2.167,-0.636 1.448,-0.552 2.474,-1.448 2.953,-2.844 0.745,-2.146 0.251,-3.703 -0.749,-4.562"
     id="path424" />
  <path
     style="fill:none;stroke:#231f20;stroke-width:0.565977;stroke-linecap:butt;stroke-linejoin:miter;stroke-miterlimit:4;stroke-dasharray:none;stroke-opacity:1"
     d="m 174.9968,54.201999 c -1.11,-0.953 -4.204,-1.688 -6.267,0.338 l -0.172,7.813 c 0.657,-0.027 1.261,-0.089 1.839,-0.167 0.078,0.016 0.157,0.031 0.229,0.058 0.761,0.27 1.297,-0.058 2.167,-0.636 1.448,-0.552 2.474,-1.448 2.953,-2.844 0.745,-2.146 0.251,-3.703 -0.749,-4.562 z"
     id="path425" />
  <path
     style="fill:#231f20;fill-opacity:1;fill-rule:nonzero;stroke:none"
     d="m 203.1528,79.909999 c -0.642,0.02 -2.147,-1.218 -3.688,-1.688 -1.036,-0.312 -3.11,-2.114 -4.172,-2.344 -0.968,-0.218 -1.391,-0.41 -1.334,-1.562 0.038,-0.682 0.542,-1.974 1.052,-1.968 1.188,0.005 2.058,0.374 2.934,0.989 0.989,0.708 3.514,2.849 3.942,3.287 1.067,1.093 1.796,1.188 2.104,1.448 0.578,0.494 0.531,0.838 0.296,1.281 -0.448,0.849 -1.134,0.557 -1.134,0.557"
     id="path426" />
  <path
     style="fill:none;stroke:#231f20;stroke-width:0.565977;stroke-linecap:butt;stroke-linejoin:miter;stroke-miterlimit:4;stroke-dasharray:none;stroke-opacity:1"
     d="m 203.1528,79.909999 c -0.642,0.02 -2.147,-1.218 -3.688,-1.688 -1.036,-0.312 -3.11,-2.114 -4.172,-2.344 -0.968,-0.218 -1.391,-0.41 -1.334,-1.562 0.038,-0.682 0.542,-1.974 1.052,-1.968 1.188,0.005 2.058,0.374 2.934,0.989 0.989,0.708 3.514,2.849 3.942,3.287 1.067,1.093 1.796,1.188 2.104,1.448 0.578,0.494 0.531,0.838 0.296,1.281 -0.448,0.849 -1.134,0.557 -1.134,0.557 z"
     id="path427" />
  <path
     style="fill:#231f20;fill-opacity:1;fill-rule:nonzero;stroke:none"
     d="m 195.4068,75.211999 c -0.786,1.026 -2.15,-0.49 -2.568,-0.828 -0.421,-0.348 -1.728,-1.192 -2.833,-1.719 -1.104,-0.531 -2.255,-1.661 -4.353,-2.667 -1.099,-0.53 -1.839,-1.744 -1,-3.306 0.828,-1.552 2.005,-1.667 3.244,-0.828 1.24,0.842 2.048,2.156 3.229,3.093 1.188,0.932 2.485,1.776 3.532,2.391 1.197,0.692 1.531,1.484 1.468,1.958 -0.151,1.187 -0.719,1.906 -0.719,1.906"
     id="path428" />
  <path
     style="fill:none;stroke:#231f20;stroke-width:0.565977;stroke-linecap:butt;stroke-linejoin:miter;stroke-miterlimit:4;stroke-dasharray:none;stroke-opacity:1"
     d="m 195.4068,75.211999 c -0.786,1.026 -2.15,-0.49 -2.568,-0.828 -0.421,-0.348 -1.728,-1.192 -2.833,-1.719 -1.104,-0.531 -2.255,-1.661 -4.353,-2.667 -1.099,-0.53 -1.839,-1.744 -1,-3.306 0.828,-1.552 2.005,-1.667 3.244,-0.828 1.24,0.842 2.048,2.156 3.229,3.093 1.188,0.932 2.485,1.776 3.532,2.391 1.197,0.692 1.531,1.484 1.468,1.958 -0.151,1.187 -0.719,1.906 -0.719,1.906 z"
     id="path429" />
  <path
     style="fill:#231f20;fill-opacity:1;fill-rule:nonzero;stroke:none"
     d="m 4.8141999,27.424999 c 1.3015,-0.38 1.8963,0.417 1.8391,1.448 -0.0161,0.308 0.2916,0.595 0.2489,0.891 -0.0984,0.698 -1.525,1.704 -2.6666,0.724 -0.0771,-0.067 -0.8276,-0.391 -1.3584,-0.724 -1.0214,-0.646 -2.76559997,-2.432 -2.70939997,-5.13 0.0266,-1.276 0.7771,-1.021 0.92239997,-0.505 0.4642,1.651 0.823,1.708 1.1042,2.099 0.9376,1.322 2.6198,1.197 2.6198,1.197"
     id="path430" />
  <path
     style="fill:none;stroke:#231f20;stroke-width:0.332927;stroke-linecap:butt;stroke-linejoin:miter;stroke-miterlimit:4;stroke-dasharray:none;stroke-opacity:1"
     d="m 4.8141999,27.424999 c 1.3015,-0.38 1.8963,0.417 1.8391,1.448 -0.0161,0.308 0.2916,0.595 0.2489,0.891 -0.0984,0.698 -1.525,1.704 -2.6666,0.724 -0.0771,-0.067 -0.8276,-0.391 -1.3584,-0.724 -1.0214,-0.646 -2.76559997,-2.432 -2.70939997,-5.13 0.0266,-1.276 0.7771,-1.021 0.92239997,-0.505 0.4642,1.651 0.823,1.708 1.1042,2.099 0.9376,1.322 2.6198,1.197 2.6198,1.197 z"
     id="path431" />
  <path
     style="fill:#231f20;fill-opacity:1;fill-rule:nonzero;stroke:none"
     d="m 18.8449,39.857999 c 1.5786,-1.625 1.6666,-2.156 1.0213,-2.865 -0.4265,-0.473 -0.6615,-1.063 -0.9119,-1.359 -0.8224,-1 -2.6188,-2.349 -8.7187,-4.833 -1.3798001,-0.563 -3.3172001,-1.365 -4.0771001,-1.761 -1.2095,-0.615 -1.4229,1.808 -0.948,2.052 1.5147,0.802 2.4943,1.469 3.0052,1.838 0.3428,0.246 1.0199,0.6 2.2387001,1.735 1.8546,1.724 2.7041,3.027 4.4066,4.276 0.7975,0.584 1.0213,1.527 2.088,1.699 1.0735,0.181 1.8959,-0.782 1.8959,-0.782"
     id="path432" />
  <path
     style="fill:none;stroke:#231f20;stroke-width:0.565977;stroke-linecap:butt;stroke-linejoin:miter;stroke-miterlimit:4;stroke-dasharray:none;stroke-opacity:1"
     d="m 18.8449,39.857999 c 1.5786,-1.625 1.6666,-2.156 1.0213,-2.865 -0.4265,-0.473 -0.6615,-1.063 -0.9119,-1.359 -0.8224,-1 -2.6188,-2.349 -8.7187,-4.833 -1.3798001,-0.563 -3.3172001,-1.365 -4.0771001,-1.761 -1.2095,-0.615 -1.4229,1.808 -0.948,2.052 1.5147,0.802 2.4943,1.469 3.0052,1.838 0.3428,0.246 1.0199,0.6 2.2387001,1.735 1.8546,1.724 2.7041,3.027 4.4066,4.276 0.7975,0.584 1.0213,1.527 2.088,1.699 1.0735,0.181 1.8959,-0.782 1.8959,-0.782 z"
     id="path433" />
  <path
     style="fill:#0098c9;fill-opacity:1;fill-rule:nonzero;stroke:none"
     d="m 40.35,55.951999 c -1.6666,-2.656 -1.7344,-3.407 -1.8796,-4.318 -0.9068,-5.708 -3.6881,-5.156 -5.812,-3.204 -2.5,2.287 -3.4428,3.058 0.3959,8.052 1.0719,1.387 4.4733,7.24 4.4733,7.24 0.9319,2.266 3.0521,3.97 4.5104,4.022 1.5308,0.057 0.9272,-0.079 2.3537,-0.287 1.3651,-0.203 3.0678,-1.568 3.1,-2.808 0.0359,-1.181 -1.3761,-2.077 -3.2401,-3.624 -1.4693,-1.224 -3.9016,-5.073 -3.9016,-5.073"
     id="path434" />
  <path
     style="fill:none;stroke:#231f20;stroke-width:0.565977;stroke-linecap:butt;stroke-linejoin:miter;stroke-miterlimit:4;stroke-dasharray:none;stroke-opacity:1"
     d="m 40.35,55.951999 c -1.6666,-2.656 -1.7344,-3.407 -1.8796,-4.318 -0.9068,-5.708 -3.6881,-5.156 -5.812,-3.204 -2.5,2.287 -3.4428,3.058 0.3959,8.052 1.0719,1.387 4.4733,7.24 4.4733,7.24 0.9319,2.266 3.0521,3.97 4.5104,4.022 1.5308,0.057 0.9272,-0.079 2.3537,-0.287 1.3651,-0.203 3.0678,-1.568 3.1,-2.808 0.0359,-1.181 -1.3761,-2.077 -3.2401,-3.624 -1.4693,-1.224 -3.9016,-5.073 -3.9016,-5.073 z"
     id="path435" />
  <path
     style="fill:#ffffff;fill-opacity:1;fill-rule:nonzero;stroke:none"
     d="m 44.9396,73.576999 c 0.0719,0.235 -0.8853,0.859 -0.6359,1.323 0.2547,0.458 1.0162,0.26 2.6359,1.421 l 0.0147,0.011 c 1.1572,0.89 2.5109,1.198 3.652,0.677 1.8948,-0.855 2.4838,-3.631 1.3172,-6.203 -1.1667,-2.578 -3.6412,-3.969 -5.5318,-3.109 -1.812,0.812 -2.4322,3.4 -1.4521,5.88"
     id="path436" />
  <path
     style="fill:none;stroke:#231f20;stroke-width:0.565977;stroke-linecap:butt;stroke-linejoin:miter;stroke-miterlimit:4;stroke-dasharray:none;stroke-opacity:1"
     d="m 44.9396,73.576999 c 0.0719,0.235 -0.8853,0.859 -0.6359,1.323 0.2547,0.458 1.0162,0.26 2.6359,1.421 l 0.0147,0.011 c 1.1572,0.89 2.5109,1.198 3.652,0.677 1.8948,-0.855 2.4838,-3.631 1.3172,-6.203 -1.1667,-2.578 -3.6412,-3.969 -5.5318,-3.109 -1.812,0.812 -2.4322,3.4 -1.4521,5.88 z"
     id="path437" />
  <path
     style="fill:#231f20;fill-opacity:1;fill-rule:nonzero;stroke:none"
     d="m 17.5115,37.784999 c -3.0249,2.631 0.7506,4.183 1.0631,4.541 3.2755,3.798 3.6036,3.986 6.2968,6.699 3.8964,3.921 7.1666,6.011 10.1094,4.411 2,-1.088 2.6776,-2.578 2.5203,-3.886 -0.176,-1.448 -1.9683,-4.072 -4.8588,-3.968 l -1.4891,-0.849 c -0.9229,-0.697 -1.3854,-1.041 -1.8177,-1.421 -0.7505,-0.667 -1.5943,-1.334 -3.125,-2.548 -2.7296,-2.156 -6.3083,-3.547 -6.3083,-3.547 -0.9943,-0.749 -2.3907,0.568 -2.3907,0.568"
     id="path438" />
  <path
     style="fill:none;stroke:#231f20;stroke-width:0.565977;stroke-linecap:butt;stroke-linejoin:miter;stroke-miterlimit:4;stroke-dasharray:none;stroke-opacity:1"
     d="m 17.5115,37.784999 c -3.0249,2.631 0.7506,4.183 1.0631,4.541 3.2755,3.798 3.6036,3.986 6.2968,6.699 3.8964,3.921 7.1666,6.011 10.1094,4.411 2,-1.088 2.6776,-2.578 2.5203,-3.886 -0.176,-1.448 -1.9683,-4.072 -4.8588,-3.968 l -1.4891,-0.849 c -0.9229,-0.697 -1.3854,-1.041 -1.8177,-1.421 -0.7505,-0.667 -1.5943,-1.334 -3.125,-2.548 -2.7296,-2.156 -6.3083,-3.547 -6.3083,-3.547 -0.9943,-0.749 -2.3907,0.568 -2.3907,0.568 z"
     id="path439" />
  <path
     style="fill:#0098c9;fill-opacity:1;fill-rule:nonzero;stroke:none"
     d="m 37.4235,48.929999 c -0.4172,-1.4 -2.6249,-3.692 -5.4531,-3.104 l -4.3693,6.475 c 0.5625,0.333 1.1036,0.609 1.6344,0.859 0.0573,0.057 0.1145,0.114 0.1615,0.166 0.4906,0.642 1.1197,0.656 2.1573,0.642 1.5255,0.317 2.8744,0.124 4.0307,-0.787 1.7864,-1.407 2.2136,-2.989 1.8385,-4.251"
     id="path440" />
  <path
     style="fill:none;stroke:#231f20;stroke-width:0.565977;stroke-linecap:butt;stroke-linejoin:miter;stroke-miterlimit:4;stroke-dasharray:none;stroke-opacity:1"
     d="m 37.4235,48.929999 c -0.4172,-1.4 -2.6249,-3.692 -5.4531,-3.104 l -4.3693,6.475 c 0.5625,0.333 1.1036,0.609 1.6344,0.859 0.0573,0.057 0.1145,0.114 0.1615,0.166 0.4906,0.642 1.1197,0.656 2.1573,0.642 1.5255,0.317 2.8744,0.124 4.0307,-0.787 1.7864,-1.407 2.2136,-2.989 1.8385,-4.251 z"
     id="path441" />
  <path
     style="fill:#231f20;fill-opacity:1;fill-rule:nonzero;stroke:none"
     d="m 57.0489,80.393999 c -0.6255,-0.156 -1.7348,-1.754 -3.0895,-2.63 -0.9105,-0.583 -2.4157,-2.88 -3.3693,-3.395 -0.8692,-0.475 -1.224,-0.776 -0.8546,-1.865 0.2188,-0.646 1.0573,-1.75 1.5468,-1.604 1.1464,0.322 1.8813,0.921 2.5479,1.754 0.7651,0.948 2.6094,3.699 2.9,4.235 0.7187,1.344 1.4016,1.631 1.6255,1.969 0.4224,0.635 0.2865,0.954 -0.0629,1.312 -0.6667,0.694 -1.2439,0.224 -1.2439,0.224"
     id="path442" />
  <path
     style="fill:none;stroke:#231f20;stroke-width:0.565977;stroke-linecap:butt;stroke-linejoin:miter;stroke-miterlimit:4;stroke-dasharray:none;stroke-opacity:1"
     d="m 57.0489,80.393999 c -0.6255,-0.156 -1.7348,-1.754 -3.0895,-2.63 -0.9105,-0.583 -2.4157,-2.88 -3.3693,-3.395 -0.8692,-0.475 -1.224,-0.776 -0.8546,-1.865 0.2188,-0.646 1.0573,-1.75 1.5468,-1.604 1.1464,0.322 1.8813,0.921 2.5479,1.754 0.7651,0.948 2.6094,3.699 2.9,4.235 0.7187,1.344 1.4016,1.631 1.6255,1.969 0.4224,0.635 0.2865,0.954 -0.0629,1.312 -0.6667,0.694 -1.2439,0.224 -1.2439,0.224 z"
     id="path443" />
  <path
     style="fill:#231f20;fill-opacity:1;fill-rule:nonzero;stroke:none"
     d="m 50.8823,73.757999 c -1.0375,0.778 -1.9334,-1.056 -2.2452,-1.498 -0.3068,-0.448 -1.3386,-1.62 -2.2548,-2.423 -0.9171,-0.812 -1.7135,-2.213 -3.4588,-3.76 -0.912,-0.813 -1.2916,-2.177 -0.0574,-3.453 1.2188,-1.266 2.3855,-1.058 3.3495,0.093 0.9625,1.147 1.3745,2.631 2.26,3.855 0.8853,1.224 1.9067,2.39 2.7453,3.265 0.9572,0.995 1.0614,1.844 0.8692,2.287 -0.464,1.098 -1.2078,1.634 -1.2078,1.634"
     id="path444" />
  <path
     style="fill:none;stroke:#231f20;stroke-width:0.565977;stroke-linecap:butt;stroke-linejoin:miter;stroke-miterlimit:4;stroke-dasharray:none;stroke-opacity:1"
     d="m 50.8823,73.757999 c -1.0375,0.778 -1.9334,-1.056 -2.2452,-1.498 -0.3068,-0.448 -1.3386,-1.62 -2.2548,-2.423 -0.9171,-0.812 -1.7135,-2.213 -3.4588,-3.76 -0.912,-0.813 -1.2916,-2.177 -0.0574,-3.453 1.2188,-1.266 2.3855,-1.058 3.3495,0.093 0.9625,1.147 1.3745,2.631 2.26,3.855 0.8853,1.224 1.9067,2.39 2.7453,3.265 0.9572,0.995 1.0614,1.844 0.8692,2.287 -0.464,1.098 -1.2078,1.634 -1.2078,1.634 z"
     id="path445" />
  <path
     style="fill:#231f20;fill-opacity:1;fill-rule:nonzero;stroke:none"
     d="m 112.1638,26.956999 c 0.374,1.303 -0.418,1.896 -1.454,1.839 -0.308,-0.016 -0.589,0.286 -0.89,0.244 -0.699,-0.099 -1.699,-1.52 -0.724,-2.662 0.068,-0.077 0.396,-0.833 0.724,-1.358 0.645,-1.027 2.432,-2.766 5.129,-2.708 1.276,0.025 1.021,0.776 0.505,0.921 -1.65,0.459 -1.708,0.823 -2.093,1.104 -1.323,0.937 -1.197,2.62 -1.197,2.62"
     id="path446" />
  <path
     style="fill:none;stroke:#231f20;stroke-width:0.332927;stroke-linecap:butt;stroke-linejoin:miter;stroke-miterlimit:4;stroke-dasharray:none;stroke-opacity:1"
     d="m 112.1638,26.956999 c 0.374,1.303 -0.418,1.896 -1.454,1.839 -0.308,-0.016 -0.589,0.286 -0.89,0.244 -0.699,-0.099 -1.699,-1.52 -0.724,-2.662 0.068,-0.077 0.396,-0.833 0.724,-1.358 0.645,-1.027 2.432,-2.766 5.129,-2.708 1.276,0.025 1.021,0.776 0.505,0.921 -1.65,0.459 -1.708,0.823 -2.093,1.104 -1.323,0.937 -1.197,2.62 -1.197,2.62 z"
     id="path447" />
  <path
     style="fill:#231f20;fill-opacity:1;fill-rule:nonzero;stroke:none"
     d="m 99.7248,40.987999 c 1.625,1.573 2.157,1.661 2.865,1.021 0.474,-0.432 1.063,-0.661 1.364,-0.912 1,-0.823 2.344,-2.624 4.828,-8.719 0.563,-1.385 1.366,-3.317 1.767,-4.082 0.609,-1.208 -1.813,-1.418 -2.057,-0.943 -0.803,1.516 -1.47,2.495 -1.834,3 -0.25,0.349 -0.604,1.025 -1.74,2.244 -1.718,1.849 -3.026,2.704 -4.276,4.407 -0.584,0.797 -1.526,1.016 -1.697,2.088 -0.177,1.068 0.78,1.896 0.78,1.896"
     id="path448" />
  <path
     style="fill:none;stroke:#231f20;stroke-width:0.565977;stroke-linecap:butt;stroke-linejoin:miter;stroke-miterlimit:4;stroke-dasharray:none;stroke-opacity:1"
     d="m 99.7248,40.987999 c 1.625,1.573 2.157,1.661 2.865,1.021 0.474,-0.432 1.063,-0.661 1.364,-0.912 1,-0.823 2.344,-2.624 4.828,-8.719 0.563,-1.385 1.366,-3.317 1.767,-4.082 0.609,-1.208 -1.813,-1.418 -2.057,-0.943 -0.803,1.516 -1.47,2.495 -1.834,3 -0.25,0.349 -0.604,1.025 -1.74,2.244 -1.718,1.849 -3.026,2.704 -4.276,4.407 -0.584,0.797 -1.526,1.016 -1.697,2.088 -0.177,1.068 0.78,1.896 0.78,1.896 z"
     id="path449" />
  <path
     style="fill:#0098c9;fill-opacity:1;fill-rule:nonzero;stroke:none"
     d="m 83.6318,62.492999 c 2.656,-1.667 3.406,-1.735 4.317,-1.88 5.709,-0.907 5.157,-3.692 3.204,-5.817 -2.287,-2.495 -3.058,-3.438 -8.052,0.401 -1.38,1.072 -7.24,4.468 -7.24,4.468 -2.26,0.937 -3.969,3.057 -4.021,4.511 -0.052,1.536 0.078,0.926 0.286,2.36 0.204,1.358 1.574,3.066 2.809,3.098 1.181,0.031 2.077,-1.374 3.624,-3.24 1.223,-1.468 5.073,-3.901 5.073,-3.901"
     id="path450" />
  <path
     style="fill:none;stroke:#231f20;stroke-width:0.565977;stroke-linecap:butt;stroke-linejoin:miter;stroke-miterlimit:4;stroke-dasharray:none;stroke-opacity:1"
     d="m 83.6318,62.492999 c 2.656,-1.667 3.406,-1.735 4.317,-1.88 5.709,-0.907 5.157,-3.692 3.204,-5.817 -2.287,-2.495 -3.058,-3.438 -8.052,0.401 -1.38,1.072 -7.24,4.468 -7.24,4.468 -2.26,0.937 -3.969,3.057 -4.021,4.511 -0.052,1.536 0.078,0.926 0.286,2.36 0.204,1.358 1.574,3.066 2.809,3.098 1.181,0.031 2.077,-1.374 3.624,-3.24 1.223,-1.468 5.073,-3.901 5.073,-3.901 z"
     id="path451" />
  <path
     style="fill:#ffffff;fill-opacity:1;fill-rule:nonzero;stroke:none"
     d="m 66.0062,67.076999 c -0.2333,0.077 -0.8588,-0.885 -1.3229,-0.631 -0.4583,0.256 -0.2599,1.016 -1.4213,2.636 l -0.0104,0.015 c -0.8907,1.152 -1.1974,2.505 -0.6771,3.652 0.8541,1.891 3.6301,2.479 6.2033,1.317 2.578,-1.166 3.969,-3.641 3.114,-5.53 -0.812,-1.814 -3.405,-2.434 -5.8856,-1.459"
     id="path452" />
  <path
     style="fill:none;stroke:#231f20;stroke-width:0.565977;stroke-linecap:butt;stroke-linejoin:miter;stroke-miterlimit:4;stroke-dasharray:none;stroke-opacity:1"
     d="m 66.0062,67.076999 c -0.2333,0.077 -0.8588,-0.885 -1.3229,-0.631 -0.4583,0.256 -0.2599,1.016 -1.4213,2.636 l -0.0104,0.015 c -0.8907,1.152 -1.1974,2.505 -0.6771,3.652 0.8541,1.891 3.6301,2.479 6.2033,1.317 2.578,-1.166 3.969,-3.641 3.114,-5.53 -0.812,-1.814 -3.405,-2.434 -5.8856,-1.459 z"
     id="path453" />
  <path
     style="fill:#231f20;fill-opacity:1;fill-rule:nonzero;stroke:none"
     d="m 101.8038,39.653999 c -2.636,-3.025 -4.188,0.746 -4.547,1.063 -3.797,3.271 -3.984,3.604 -6.693,6.297 -3.922,3.896 -6.015,7.167 -4.416,10.11 1.088,1.994 2.577,2.677 3.885,2.521 1.448,-0.177 4.073,-1.975 3.969,-4.865 l 0.848,-1.484 c 0.704,-0.927 1.042,-1.391 1.423,-1.823 0.672,-0.751 1.333,-1.589 2.552,-3.125 2.156,-2.724 3.541,-6.308 3.541,-6.308 0.75,-0.99 -0.562,-2.386 -0.562,-2.386"
     id="path454" />
  <path
     style="fill:none;stroke:#231f20;stroke-width:0.565977;stroke-linecap:butt;stroke-linejoin:miter;stroke-miterlimit:4;stroke-dasharray:none;stroke-opacity:1"
     d="m 101.8038,39.653999 c -2.636,-3.025 -4.188,0.746 -4.547,1.063 -3.797,3.271 -3.984,3.604 -6.693,6.297 -3.922,3.896 -6.015,7.167 -4.416,10.11 1.088,1.994 2.577,2.677 3.885,2.521 1.448,-0.177 4.073,-1.975 3.969,-4.865 l 0.848,-1.484 c 0.704,-0.927 1.042,-1.391 1.423,-1.823 0.672,-0.751 1.333,-1.589 2.552,-3.125 2.156,-2.724 3.541,-6.308 3.541,-6.308 0.75,-0.99 -0.562,-2.386 -0.562,-2.386 z"
     id="path455" />
  <path
     style="fill:#0098c9;fill-opacity:1;fill-rule:nonzero;stroke:none"
     d="m 93.7618,54.112999 -6.48,-4.375 c -0.333,0.568 -0.609,1.11 -0.858,1.64 -0.058,0.058 -0.11,0.115 -0.167,0.158 -0.641,0.494 -0.656,1.124 -0.641,2.166 -0.317,1.52 -0.119,2.864 0.786,4.026 1.407,1.786 2.986,2.208 4.251,1.838 1.401,-0.417 3.692,-2.625 3.109,-5.453"
     id="path456" />
  <path
     style="fill:none;stroke:#231f20;stroke-width:0.565977;stroke-linecap:butt;stroke-linejoin:miter;stroke-miterlimit:4;stroke-dasharray:none;stroke-opacity:1"
     d="m 93.7618,54.112999 -6.48,-4.375 c -0.333,0.568 -0.609,1.11 -0.858,1.64 -0.058,0.058 -0.11,0.115 -0.167,0.158 -0.641,0.494 -0.656,1.124 -0.641,2.166 -0.317,1.52 -0.119,2.864 0.786,4.026 1.407,1.786 2.986,2.208 4.251,1.838 1.401,-0.417 3.692,-2.625 3.109,-5.453 z"
     id="path457" />
  <path
     style="fill:#231f20;fill-opacity:1;fill-rule:nonzero;stroke:none"
     d="m 59.189,79.191999 c 0.1558,-0.626 1.7599,-1.735 2.6251,-3.09 0.588,-0.91 2.8905,-2.416 3.4015,-3.369 0.4734,-0.875 0.7761,-1.229 1.8642,-0.86 0.645,0.219 1.75,1.063 1.609,1.552 -0.328,1.141 -0.927,1.881 -1.76,2.548 -0.948,0.765 -3.6986,2.604 -4.2346,2.9 -1.3442,0.72 -1.6306,1.401 -1.9692,1.62 -0.6297,0.428 -0.9521,0.287 -1.312,-0.057 -0.6921,-0.667 -0.224,-1.244 -0.224,-1.244"
     id="path458" />
  <path
     style="fill:none;stroke:#231f20;stroke-width:0.565977;stroke-linecap:butt;stroke-linejoin:miter;stroke-miterlimit:4;stroke-dasharray:none;stroke-opacity:1"
     d="m 59.189,79.191999 c 0.1558,-0.626 1.7599,-1.735 2.6251,-3.09 0.588,-0.91 2.8905,-2.416 3.4015,-3.369 0.4734,-0.875 0.7761,-1.229 1.8642,-0.86 0.645,0.219 1.75,1.063 1.609,1.552 -0.328,1.141 -0.927,1.881 -1.76,2.548 -0.948,0.765 -3.6986,2.604 -4.2346,2.9 -1.3442,0.72 -1.6306,1.401 -1.9692,1.62 -0.6297,0.428 -0.9521,0.287 -1.312,-0.057 -0.6921,-0.667 -0.224,-1.244 -0.224,-1.244 z"
     id="path459" />
  <path
     style="fill:#231f20;fill-opacity:1;fill-rule:nonzero;stroke:none"
     d="m 65.825,73.024999 c -0.7761,-1.043 1.0568,-1.937 1.4998,-2.245 0.448,-0.312 1.62,-1.339 2.422,-2.255 0.812,-0.917 2.218,-1.713 3.759,-3.459 0.814,-0.917 2.183,-1.292 3.459,-0.062 1.26,1.224 1.052,2.39 -0.094,3.349 -1.15,0.963 -2.635,1.375 -3.859,2.265 -1.224,0.886 -2.386,1.902 -3.265,2.746 -0.995,0.957 -1.845,1.057 -2.287,0.869 -1.0989,-0.464 -1.6348,-1.208 -1.6348,-1.208"
     id="path460" />
  <path
     style="fill:none;stroke:#231f20;stroke-width:0.565977;stroke-linecap:butt;stroke-linejoin:miter;stroke-miterlimit:4;stroke-dasharray:none;stroke-opacity:1"
     d="m 65.825,73.024999 c -0.7761,-1.043 1.0568,-1.937 1.4998,-2.245 0.448,-0.312 1.62,-1.339 2.422,-2.255 0.812,-0.917 2.218,-1.713 3.759,-3.459 0.814,-0.917 2.183,-1.292 3.459,-0.062 1.26,1.224 1.052,2.39 -0.094,3.349 -1.15,0.963 -2.635,1.375 -3.859,2.265 -1.224,0.886 -2.386,1.902 -3.265,2.746 -0.995,0.957 -1.845,1.057 -2.287,0.869 -1.0989,-0.464 -1.6348,-1.208 -1.6348,-1.208 z"
     id="path461" />
  <path
     style="fill:none;stroke:#231f20;stroke-width:0.399514;stroke-linecap:butt;stroke-linejoin:miter;stroke-miterlimit:4;stroke-dasharray:none;stroke-opacity:1"
     d="m 110.2248,53.565999 c 20.609,16.64 7.557,48.407001 2.636,53.746001"
     id="path462" />
  <path
     style="fill:#231f20;fill-opacity:1;fill-rule:nonzero;stroke:none"
     d="m 112.0438,108.197 c 0.229,-0.563 0.442,-1.324 0.457,-1.902 l 0.464,0.897 0.932,0.396 c -0.572,0.061 -1.317,0.333 -1.853,0.609"
     id="path463" />
  <path
     style="fill:#231f20;fill-opacity:1;fill-rule:nonzero;stroke:none"
     d="m 241.4968,69.872999 c -0.454,-0.452 -0.59,-2.395 -1.308,-3.833 -0.479,-0.974 -0.594,-3.719 -1.151,-4.651 -0.505,-0.853 -0.661,-1.297 0.219,-2.041 0.521,-0.438 1.801,-0.959 2.156,-0.584 0.812,0.865 1.141,1.756 1.292,2.813 0.166,1.203 0.338,4.511 0.317,5.12 -0.068,1.525 0.365,2.119 0.385,2.525 0.038,0.76 -0.244,0.964 -0.724,1.099 -0.932,0.251 -1.186,-0.448 -1.186,-0.448"
     id="path464" />
  <path
     style="fill:none;stroke:#231f20;stroke-width:0.565977;stroke-linecap:butt;stroke-linejoin:miter;stroke-miterlimit:4;stroke-dasharray:none;stroke-opacity:1"
     d="m 241.4968,69.872999 c -0.454,-0.452 -0.59,-2.395 -1.308,-3.833 -0.479,-0.974 -0.594,-3.719 -1.151,-4.651 -0.505,-0.853 -0.661,-1.297 0.219,-2.041 0.521,-0.438 1.801,-0.959 2.156,-0.584 0.812,0.865 1.141,1.756 1.292,2.813 0.166,1.203 0.338,4.511 0.317,5.12 -0.068,1.525 0.365,2.119 0.385,2.525 0.038,0.76 -0.244,0.964 -0.724,1.099 -0.932,0.251 -1.186,-0.448 -1.186,-0.448 z"
     id="path465" />
  <path
     style="fill:#231f20;fill-opacity:1;fill-rule:nonzero;stroke:none"
     d="m 239.6008,61.013999 c -1.292,0.135 -1.12,-1.901 -1.156,-2.437 -0.038,-0.541 -0.324,-2.073 -0.694,-3.235 -0.374,-1.166 -0.344,-2.781 -1.052,-5 -0.364,-1.166 0.011,-2.536 1.724,-3 1.692,-0.458 2.588,0.323 2.828,1.798 0.235,1.478 -0.172,2.968 -0.036,4.473 0.135,1.5 0.416,3.027 0.682,4.208 0.318,1.349 -0.031,2.131 -0.422,2.412 -0.958,0.703 -1.874,0.781 -1.874,0.781"
     id="path466" />
  <path
     style="fill:none;stroke:#231f20;stroke-width:0.565977;stroke-linecap:butt;stroke-linejoin:miter;stroke-miterlimit:4;stroke-dasharray:none;stroke-opacity:1"
     d="m 239.6008,61.013999 c -1.292,0.135 -1.12,-1.901 -1.156,-2.437 -0.038,-0.541 -0.324,-2.073 -0.694,-3.235 -0.374,-1.166 -0.344,-2.781 -1.052,-5 -0.364,-1.166 0.011,-2.536 1.724,-3 1.692,-0.458 2.588,0.323 2.828,1.798 0.235,1.478 -0.172,2.968 -0.036,4.473 0.135,1.5 0.416,3.027 0.682,4.208 0.318,1.349 -0.031,2.131 -0.422,2.412 -0.958,0.703 -1.874,0.781 -1.874,0.781 z"
     id="path467" />
  <path
     style="fill:#231f20;fill-opacity:1;fill-rule:nonzero;stroke:none"
     d="m 243.3448,76.013999 c 0.27,-0.677 0.39,-3.926 0.38,-4.666 0,-0.662 0.354,-1.766 -0.692,-2.256 -0.422,-0.198 -1.178,-0.192 -1.49,-0.104 -0.245,0.068 -0.344,0.385 -0.308,0.776 0.068,0.666 0.344,0.829 0.543,2.084 0,0 0.093,0.301 0.291,0.812 0.584,1.521 0.469,0.797 0.822,3.193 0.022,0.167 0.21,0.26 0.324,0.244 0.172,-0.047 0.13,-0.083 0.13,-0.083"
     id="path468" />
  <path
     style="fill:none;stroke:#231f20;stroke-width:0.565977;stroke-linecap:round;stroke-linejoin:round;stroke-miterlimit:4;stroke-dasharray:none;stroke-opacity:1"
     d="m 243.3448,76.013999 c 0.27,-0.677 0.39,-3.926 0.38,-4.666 0,-0.662 0.354,-1.766 -0.692,-2.256 -0.422,-0.198 -1.178,-0.192 -1.49,-0.104 -0.245,0.068 -0.344,0.385 -0.308,0.776 0.068,0.666 0.344,0.829 0.543,2.084 0,0 0.093,0.301 0.291,0.812 0.584,1.521 0.469,0.797 0.822,3.193 0.022,0.167 0.21,0.26 0.324,0.244 0.172,-0.047 0.13,-0.083 0.13,-0.083 z"
     id="path469" />
  <path
     style="fill:#ffffff;fill-opacity:1;fill-rule:nonzero;stroke:none"
     d="m 216.0378,23.117999 c 1.531,-1.672 1.609,-2.197 0.943,-2.896 -0.438,-0.464 -0.688,-1.041 -0.943,-1.333 -0.855,-0.979 -2.688,-2.281 -8.844,-4.609 -1.396,-0.525 -3.349,-1.276 -4.131,-1.651 -1.224,-0.584 -1.364,1.844 -0.89,2.078 1.542,0.761 2.532,1.401 3.052,1.755 0.354,0.24 1.037,0.578 2.286,1.678 1.896,1.676 2.776,2.957 4.511,4.166 0.812,0.558 1.063,1.495 2.136,1.635 1.072,0.151 1.88,-0.823 1.88,-0.823"
     id="path470" />
  <path
     style="fill:none;stroke:#231f20;stroke-width:0.565977;stroke-linecap:butt;stroke-linejoin:miter;stroke-miterlimit:4;stroke-dasharray:none;stroke-opacity:1"
     d="m 216.0378,23.117999 c 1.531,-1.672 1.609,-2.197 0.943,-2.896 -0.438,-0.464 -0.688,-1.041 -0.943,-1.333 -0.855,-0.979 -2.688,-2.281 -8.844,-4.609 -1.396,-0.525 -3.349,-1.276 -4.131,-1.651 -1.224,-0.584 -1.364,1.844 -0.89,2.078 1.542,0.761 2.532,1.401 3.052,1.755 0.354,0.24 1.037,0.578 2.286,1.678 1.896,1.676 2.776,2.957 4.511,4.166 0.812,0.558 1.063,1.495 2.136,1.635 1.072,0.151 1.88,-0.823 1.88,-0.823 z"
     id="path471" />
  <path
     style="fill:#ffffff;fill-opacity:1;fill-rule:nonzero;stroke:none"
     d="m 214.6468,21.076999 c -2.958,2.713 0.859,4.161 1.178,4.516 3.374,3.708 3.713,3.885 6.473,6.525 3.989,3.828 7.313,5.828 10.219,4.156 1.964,-1.134 2.609,-2.645 2.422,-3.948 -0.218,-1.442 -2.078,-4.02 -4.964,-3.844 l -1.505,-0.812 c -0.948,-0.672 -1.421,-1 -1.864,-1.374 -0.761,-0.642 -1.62,-1.287 -3.188,-2.464 -2.776,-2.088 -6.391,-3.38 -6.391,-3.38 -1.016,-0.73 -2.38,0.625 -2.38,0.625"
     id="path472" />
  <path
     style="fill:none;stroke:#231f20;stroke-width:0.565977;stroke-linecap:butt;stroke-linejoin:miter;stroke-miterlimit:4;stroke-dasharray:none;stroke-opacity:1"
     d="m 214.6468,21.076999 c -2.958,2.713 0.859,4.161 1.178,4.516 3.374,3.708 3.713,3.885 6.473,6.525 3.989,3.828 7.313,5.828 10.219,4.156 1.964,-1.134 2.609,-2.645 2.422,-3.948 -0.218,-1.442 -2.078,-4.02 -4.964,-3.844 l -1.505,-0.812 c -0.948,-0.672 -1.421,-1 -1.864,-1.374 -0.761,-0.642 -1.62,-1.287 -3.188,-2.464 -2.776,-2.088 -6.391,-3.38 -6.391,-3.38 -1.016,-0.73 -2.38,0.625 -2.38,0.625 z"
     id="path473" />
  <path
     style="fill:#231f20;fill-opacity:1;fill-rule:nonzero;stroke:none"
     d="m 201.6888,11.044999 c 1.281,-0.41 1.906,0.366 1.869,1.407 -0.004,0.307 0.308,0.579 0.276,0.88 -0.077,0.704 -1.484,1.74 -2.645,0.797 -0.083,-0.068 -0.844,-0.374 -1.38,-0.693 -1.047,-0.615 -2.828,-2.359 -2.839,-5.0570003 -0.011,-1.271 0.745,-1.042 0.907,-0.526 0.505,1.635 0.864,1.683 1.156,2.063 0.973,1.2960003 2.656,1.1290003 2.656,1.1290003"
     id="path474" />
  <path
     style="fill:none;stroke:#231f20;stroke-width:0.332927;stroke-linecap:butt;stroke-linejoin:miter;stroke-miterlimit:4;stroke-dasharray:none;stroke-opacity:1"
     d="m 201.6888,11.044999 c 1.281,-0.41 1.906,0.366 1.869,1.407 -0.004,0.307 0.308,0.579 0.276,0.88 -0.077,0.704 -1.484,1.74 -2.645,0.797 -0.083,-0.068 -0.844,-0.374 -1.38,-0.693 -1.047,-0.615 -2.828,-2.359 -2.839,-5.0570003 -0.011,-1.271 0.745,-1.042 0.907,-0.526 0.505,1.635 0.864,1.683 1.156,2.063 0.973,1.2960003 2.656,1.1290003 2.656,1.1290003 z"
     id="path475" />
  <path
     style="fill:#231f20;fill-opacity:1;fill-rule:nonzero;stroke:none"
     d="m 203.1308,9.1649987 c 1.314,-0.328 1.88,0.49 1.782,1.5220003 -0.022,0.306 0.27,0.593 0.213,0.896 -0.12,0.692 -1.588,1.645 -2.687,0.624 -0.078,-0.072 -0.818,-0.427 -1.333,-0.776 -1,-0.682 -2.667,-2.5360003 -2.505,-5.2280003 0.068,-1.272 0.812,-0.996 0.937,-0.47 0.396,1.667 0.755,1.735 1.02,2.131 0.891,1.359 2.573,1.301 2.573,1.301"
     id="path476" />
  <path
     style="fill:none;stroke:#231f20;stroke-width:0.332927;stroke-linecap:butt;stroke-linejoin:miter;stroke-miterlimit:4;stroke-dasharray:none;stroke-opacity:1"
     d="m 203.1308,9.1649987 c 1.314,-0.328 1.88,0.49 1.782,1.5220003 -0.022,0.306 0.27,0.593 0.213,0.896 -0.12,0.692 -1.588,1.645 -2.687,0.624 -0.078,-0.072 -0.818,-0.427 -1.333,-0.776 -1,-0.682 -2.667,-2.5360003 -2.505,-5.2280003 0.068,-1.272 0.812,-0.996 0.937,-0.47 0.396,1.667 0.755,1.735 1.02,2.131 0.891,1.359 2.573,1.301 2.573,1.301 z"
     id="path477" />
  <path
     style="fill:#231f20;fill-opacity:1;fill-rule:nonzero;stroke:none"
     d="m 216.6888,22.123999 c 1.636,-1.568 1.745,-2.088 1.125,-2.828 -0.412,-0.49 -0.62,-1.084 -0.86,-1.391 -0.781,-1.032 -2.531,-2.448 -8.531,-5.161 -1.36,-0.615 -3.26,-1.489 -4.016,-1.912 -1.182,-0.661 -1.478,1.751 -1.016,2.016 1.486,0.859 2.434,1.563 2.928,1.948 0.339,0.26 1,0.64 2.178,1.817 1.781,1.792 2.582,3.131 4.244,4.443 0.765,0.614 0.953,1.562 2.016,1.77 1.068,0.224 1.932,-0.702 1.932,-0.702"
     id="path478" />
  <path
     style="fill:none;stroke:#231f20;stroke-width:0.565977;stroke-linecap:butt;stroke-linejoin:miter;stroke-miterlimit:4;stroke-dasharray:none;stroke-opacity:1"
     d="m 216.6888,22.123999 c 1.636,-1.568 1.745,-2.088 1.125,-2.828 -0.412,-0.49 -0.62,-1.084 -0.86,-1.391 -0.781,-1.032 -2.531,-2.448 -8.531,-5.161 -1.36,-0.615 -3.26,-1.489 -4.016,-1.912 -1.182,-0.661 -1.478,1.751 -1.016,2.016 1.486,0.859 2.434,1.563 2.928,1.948 0.339,0.26 1,0.64 2.178,1.817 1.781,1.792 2.582,3.131 4.244,4.443 0.765,0.614 0.953,1.562 2.016,1.77 1.068,0.224 1.932,-0.702 1.932,-0.702 z"
     id="path479" />
  <path
     style="fill:#0098c9;fill-opacity:1;fill-rule:nonzero;stroke:none"
     d="m 236.3708,39.981999 c -1.156,-2.91 -1.089,-3.661 -1.062,-4.582 0.14,-5.782 -2.703,-5.74 -5.142,-4.208 -2.874,1.801 -3.942,2.39 -1.072,7.994 0.807,1.558 3.094,7.927 3.094,7.927 0.51,2.401 2.281,4.459 3.708,4.771 1.5,0.333 0.928,0.089 2.37,0.146 1.375,0.052 3.302,-0.99 3.558,-2.198 0.244,-1.162 -0.986,-2.292 -2.532,-4.151 -1.224,-1.469 -2.922,-5.699 -2.922,-5.699"
     id="path480" />
  <path
     style="fill:none;stroke:#231f20;stroke-width:0.565977;stroke-linecap:butt;stroke-linejoin:miter;stroke-miterlimit:4;stroke-dasharray:none;stroke-opacity:1"
     d="m 236.3708,39.981999 c -1.156,-2.91 -1.089,-3.661 -1.062,-4.582 0.14,-5.782 -2.703,-5.74 -5.142,-4.208 -2.874,1.801 -3.942,2.39 -1.072,7.994 0.807,1.558 3.094,7.927 3.094,7.927 0.51,2.401 2.281,4.459 3.708,4.771 1.5,0.333 0.928,0.089 2.37,0.146 1.375,0.052 3.302,-0.99 3.558,-2.198 0.244,-1.162 -0.986,-2.292 -2.532,-4.151 -1.224,-1.469 -2.922,-5.699 -2.922,-5.699 z"
     id="path481" />
  <path
     style="fill:#ffffff;fill-opacity:1;fill-rule:nonzero;stroke:none"
     d="m 242.9748,58.003999 c 0.208,0.13 -0.098,1.234 0.391,1.417 0.495,0.172 0.937,-0.48 2.916,-0.667 l 0.027,-0.005 c 1.453,-0.089 2.672,-0.756 3.188,-1.896 0.864,-1.896 -0.527,-4.371 -3.1,-5.537 -2.572,-1.171 -5.348,-0.578 -6.208,1.313 -0.828,1.801 0.417,4.161 2.786,5.375"
     id="path482" />
  <path
     style="fill:none;stroke:#231f20;stroke-width:0.565977;stroke-linecap:butt;stroke-linejoin:miter;stroke-miterlimit:4;stroke-dasharray:none;stroke-opacity:1"
     d="m 242.9748,58.003999 c 0.208,0.13 -0.098,1.234 0.391,1.417 0.495,0.172 0.937,-0.48 2.916,-0.667 l 0.027,-0.005 c 1.453,-0.089 2.672,-0.756 3.188,-1.896 0.864,-1.896 -0.527,-4.371 -3.1,-5.537 -2.572,-1.171 -5.348,-0.578 -6.208,1.313 -0.828,1.801 0.417,4.161 2.786,5.375 z"
     id="path483" />
  <path
     style="fill:#231f20;fill-opacity:1;fill-rule:nonzero;stroke:none"
     d="m 215.4288,19.997999 c -3.126,2.516 0.588,4.208 0.89,4.584 3.13,3.911 3.448,4.115 6.036,6.927 3.751,4.068 6.932,6.276 9.938,4.797 2.037,-1.01 2.776,-2.474 2.672,-3.786 -0.131,-1.454 -1.823,-4.147 -4.714,-4.156 l -1.448,-0.902 c -0.906,-0.734 -1.354,-1.093 -1.77,-1.489 -0.719,-0.699 -1.536,-1.396 -3.027,-2.667 -2.64,-2.261 -6.167,-3.781 -6.167,-3.781 -0.962,-0.792 -2.41,0.473 -2.41,0.473"
     id="path484" />
  <path
     style="fill:none;stroke:#231f20;stroke-width:0.565977;stroke-linecap:butt;stroke-linejoin:miter;stroke-miterlimit:4;stroke-dasharray:none;stroke-opacity:1"
     d="m 215.4288,19.997999 c -3.126,2.516 0.588,4.208 0.89,4.584 3.13,3.911 3.448,4.115 6.036,6.927 3.751,4.068 6.932,6.276 9.938,4.797 2.037,-1.01 2.776,-2.474 2.672,-3.786 -0.131,-1.454 -1.823,-4.147 -4.714,-4.156 l -1.448,-0.902 c -0.906,-0.734 -1.354,-1.093 -1.77,-1.489 -0.719,-0.699 -1.536,-1.396 -3.027,-2.667 -2.64,-2.261 -6.167,-3.781 -6.167,-3.781 -0.962,-0.792 -2.41,0.473 -2.41,0.473 z"
     id="path485" />
  <path
     style="fill:#0098c9;fill-opacity:1;fill-rule:nonzero;stroke:none"
     d="m 234.9018,31.893999 c -0.359,-1.416 -2.473,-3.786 -5.328,-3.312 l -4.62,6.307 c 0.557,0.355 1.095,0.656 1.615,0.923 0.052,0.057 0.104,0.114 0.146,0.166 0.468,0.662 1.094,0.703 2.13,0.728 1.51,0.376 2.87,0.23 4.062,-0.64 1.839,-1.328 2.323,-2.896 1.995,-4.172"
     id="path486" />
  <path
     style="fill:none;stroke:#231f20;stroke-width:0.565977;stroke-linecap:butt;stroke-linejoin:miter;stroke-miterlimit:4;stroke-dasharray:none;stroke-opacity:1"
     d="m 234.9018,31.893999 c -0.359,-1.416 -2.473,-3.786 -5.328,-3.312 l -4.62,6.307 c 0.557,0.355 1.095,0.656 1.615,0.923 0.052,0.057 0.104,0.114 0.146,0.166 0.468,0.662 1.094,0.703 2.13,0.728 1.51,0.376 2.87,0.23 4.062,-0.64 1.839,-1.328 2.323,-2.896 1.995,-4.172 z"
     id="path487" />
  <path
     style="fill:#231f20;fill-opacity:1;fill-rule:nonzero;stroke:none"
     d="m 246.5378,68.623999 c -0.557,-0.328 -1.167,-2.183 -2.219,-3.396 -0.708,-0.823 -1.494,-3.454 -2.265,-4.219 -0.704,-0.697 -0.964,-1.088 -0.297,-2.027 0.396,-0.561 1.51,-1.38 1.942,-1.104 1.006,0.636 1.542,1.423 1.948,2.407 0.464,1.125 1.448,4.287 1.578,4.885 0.313,1.49 0.881,1.964 1,2.35 0.224,0.724 0,0.989 -0.432,1.244 -0.839,0.469 -1.255,-0.14 -1.255,-0.14"
     id="path488" />
  <path
     style="fill:none;stroke:#231f20;stroke-width:0.565977;stroke-linecap:butt;stroke-linejoin:miter;stroke-miterlimit:4;stroke-dasharray:none;stroke-opacity:1"
     d="m 246.5378,68.623999 c -0.557,-0.328 -1.167,-2.183 -2.219,-3.396 -0.708,-0.823 -1.494,-3.454 -2.265,-4.219 -0.704,-0.697 -0.964,-1.088 -0.297,-2.027 0.396,-0.561 1.51,-1.38 1.942,-1.104 1.006,0.636 1.542,1.423 1.948,2.407 0.464,1.125 1.448,4.287 1.578,4.885 0.313,1.49 0.881,1.964 1,2.35 0.224,0.724 0,0.989 -0.432,1.244 -0.839,0.469 -1.255,-0.14 -1.255,-0.14 z"
     id="path489" />
  <path
     style="fill:#231f20;fill-opacity:1;fill-rule:nonzero;stroke:none"
     d="m 242.5008,60.508999 c -1.214,0.453 -1.552,-1.563 -1.723,-2.073 -0.172,-0.52 -0.824,-1.932 -1.475,-2.963 -0.65,-1.043 -1.016,-2.615 -2.254,-4.589 -0.647,-1.031 -0.62,-2.454 0.926,-3.328 1.526,-0.864 2.588,-0.334 3.183,1.041 0.593,1.371 0.572,2.912 1.077,4.339 0.5,1.428 1.147,2.828 1.704,3.912 0.64,1.224 0.495,2.068 0.187,2.437 -0.755,0.921 -1.625,1.224 -1.625,1.224"
     id="path490" />
  <path
     style="fill:none;stroke:#231f20;stroke-width:0.565977;stroke-linecap:butt;stroke-linejoin:miter;stroke-miterlimit:4;stroke-dasharray:none;stroke-opacity:1"
     d="m 242.5008,60.508999 c -1.214,0.453 -1.552,-1.563 -1.723,-2.073 -0.172,-0.52 -0.824,-1.932 -1.475,-2.963 -0.65,-1.043 -1.016,-2.615 -2.254,-4.589 -0.647,-1.031 -0.62,-2.454 0.926,-3.328 1.526,-0.864 2.588,-0.334 3.183,1.041 0.593,1.371 0.572,2.912 1.077,4.339 0.5,1.428 1.147,2.828 1.704,3.912 0.64,1.224 0.495,2.068 0.187,2.437 -0.755,0.921 -1.625,1.224 -1.625,1.224 z"
     id="path491" />
  <path
     style="fill:#ffffff;fill-opacity:1;fill-rule:nonzero;stroke:none"
     d="m 249.6938,79.664999 c -0.833,-0.593 -1.995,-0.401 -2.588,0.432 -0.6,0.839 -0.401,2 0.432,2.595 0.839,0.598 2,0.405 2.593,-0.438 0.594,-0.833 0.407,-1.994 -0.437,-2.589"
     id="path492" />
  <path
     style="fill:none;stroke:#231f20;stroke-width:1.33171;stroke-linecap:butt;stroke-linejoin:miter;stroke-miterlimit:4;stroke-dasharray:none;stroke-opacity:1"
     d="m 249.6938,79.664999 c -0.833,-0.593 -1.995,-0.401 -2.588,0.432 -0.6,0.839 -0.401,2 0.432,2.595 0.839,0.598 2,0.405 2.593,-0.438 0.594,-0.833 0.407,-1.994 -0.437,-2.589 z"
     id="path493" />
  <path
     style="fill:#231f20;fill-opacity:1;fill-rule:nonzero;stroke:none"
     d="m 249.8448,74.112999 c 0.1,-0.724 -0.594,-3.901 -0.787,-4.615 -0.167,-0.645 -0.093,-1.801 -1.228,-2.016 -0.459,-0.088 -1.188,0.111 -1.469,0.267 -0.224,0.129 -0.24,0.463 -0.104,0.833 0.224,0.624 0.536,0.714 1.041,1.886 0,0 0.161,0.265 0.484,0.708 0.939,1.333 0.652,0.661 1.584,2.89 0.063,0.162 0.271,0.208 0.375,0.156 0.156,-0.082 0.104,-0.109 0.104,-0.109"
     id="path494" />
  <path
     style="fill:none;stroke:#231f20;stroke-width:0.565977;stroke-linecap:round;stroke-linejoin:round;stroke-miterlimit:4;stroke-dasharray:none;stroke-opacity:1"
     d="m 249.8448,74.112999 c 0.1,-0.724 -0.594,-3.901 -0.787,-4.615 -0.167,-0.645 -0.093,-1.801 -1.228,-2.016 -0.459,-0.088 -1.188,0.111 -1.469,0.267 -0.224,0.129 -0.24,0.463 -0.104,0.833 0.224,0.624 0.536,0.714 1.041,1.886 0,0 0.161,0.265 0.484,0.708 0.939,1.333 0.652,0.661 1.584,2.89 0.063,0.162 0.271,0.208 0.375,0.156 0.156,-0.082 0.104,-0.109 0.104,-0.109 z"
     id="path495" />
  <path
     style="fill:none;stroke:#231f20;stroke-width:0.399514;stroke-linecap:butt;stroke-linejoin:miter;stroke-miterlimit:4;stroke-dasharray:none;stroke-opacity:1"
     d="m 203.4538,26.847999 c 12.699,-23.2450003 24.667,-17.4840003 24.204,-9.084"
     id="path496" />
  <path
     style="fill:#231f20;fill-opacity:1;fill-rule:nonzero;stroke:none"
     d="m 227.5898,18.967999 c -0.177,-0.579 -0.495,-1.303 -0.855,-1.756 l 0.934,0.396 0.962,-0.292 c -0.401,0.412 -0.797,1.094 -1.041,1.652"
     id="path497" />
  <path
     style="fill:none;stroke:#231f20;stroke-width:0.399514;stroke-linecap:butt;stroke-linejoin:miter;stroke-miterlimit:4;stroke-dasharray:none;stroke-opacity:1"
     d="m 259.6208,43.107999 c 12.698,-23.244 24.666,-17.484 24.204,-9.083"
     id="path498" />
  <path
     style="fill:#231f20;fill-opacity:1;fill-rule:nonzero;stroke:none"
     d="m 283.7568,35.227999 c -0.178,-0.579 -0.5,-1.302 -0.855,-1.755 l 0.932,0.396 0.964,-0.292 c -0.401,0.411 -0.801,1.093 -1.041,1.651"
     id="path499" />
  <path
     style="fill:#231f20;fill-opacity:1;fill-rule:nonzero;stroke:none"
     d="m 295.2248,76.169999 c 0.141,-0.63 -0.796,-2.338 -0.968,-3.937 -0.115,-1.084 -1.5,-3.453 -1.536,-4.536 -0.032,-0.991 -0.142,-1.448 -1.282,-1.6 -0.677,-0.093 -2.037,0.163 -2.13,0.667 -0.219,1.166 -0.011,2.094 0.426,3.062 0.511,1.11 2.147,3.986 2.495,4.49 0.881,1.245 0.839,1.98 1.037,2.333 0.38,0.663 0.724,0.677 1.203,0.532 0.917,-0.287 0.755,-1.011 0.755,-1.011"
     id="path500" />
  <path
     style="fill:none;stroke:#231f20;stroke-width:0.565977;stroke-linecap:butt;stroke-linejoin:miter;stroke-miterlimit:4;stroke-dasharray:none;stroke-opacity:1"
     d="m 295.2248,76.169999 c 0.141,-0.63 -0.796,-2.338 -0.968,-3.937 -0.115,-1.084 -1.5,-3.453 -1.536,-4.536 -0.032,-0.991 -0.142,-1.448 -1.282,-1.6 -0.677,-0.093 -2.037,0.163 -2.13,0.667 -0.219,1.166 -0.011,2.094 0.426,3.062 0.511,1.11 2.147,3.986 2.495,4.49 0.881,1.245 0.839,1.98 1.037,2.333 0.38,0.663 0.724,0.677 1.203,0.532 0.917,-0.287 0.755,-1.011 0.755,-1.011 z"
     id="path501" />
  <path
     style="fill:#231f20;fill-opacity:1;fill-rule:nonzero;stroke:none"
     d="m 292.0488,67.685999 c 1.156,-0.584 -0.084,-2.208 -0.339,-2.677 -0.261,-0.479 -0.849,-1.921 -1.161,-3.099 -0.314,-1.188 -1.21,-2.532 -1.814,-4.776 -0.317,-1.182 -1.374,-2.136 -3.066,-1.598 -1.672,0.525 -2.006,1.661 -1.412,3.036 0.598,1.374 1.74,2.41 2.437,3.749 0.697,1.339 1.281,2.771 1.697,3.912 0.459,1.307 1.172,1.776 1.652,1.803 1.192,0.072 2.006,-0.35 2.006,-0.35"
     id="path502" />
  <path
     style="fill:none;stroke:#231f20;stroke-width:0.565977;stroke-linecap:butt;stroke-linejoin:miter;stroke-miterlimit:4;stroke-dasharray:none;stroke-opacity:1"
     d="m 292.0488,67.685999 c 1.156,-0.584 -0.084,-2.208 -0.339,-2.677 -0.261,-0.479 -0.849,-1.921 -1.161,-3.099 -0.314,-1.188 -1.21,-2.532 -1.814,-4.776 -0.317,-1.182 -1.374,-2.136 -3.066,-1.598 -1.672,0.525 -2.006,1.661 -1.412,3.036 0.598,1.374 1.74,2.41 2.437,3.749 0.697,1.339 1.281,2.771 1.697,3.912 0.459,1.307 1.172,1.776 1.652,1.803 1.192,0.072 2.006,-0.35 2.006,-0.35 z"
     id="path503" />
  <path
     style="fill:#231f20;fill-opacity:1;fill-rule:nonzero;stroke:none"
     d="m 296.9858,82.330999 c -0.599,-0.415 -2.448,-3.093 -2.839,-3.723 -0.354,-0.558 -1.25,-1.292 -0.636,-2.271 0.246,-0.396 0.891,-0.797 1.199,-0.891 0.244,-0.073 0.5,0.142 0.677,0.49 0.302,0.594 0.156,0.88 0.671,2.046 0,0 0.084,0.303 0.188,0.839 0.333,1.595 0.036,0.928 1.032,3.136 0.072,0.15 -0.037,0.333 -0.147,0.374 -0.166,0.058 -0.145,0 -0.145,0"
     id="path504" />
  <path
     style="fill:none;stroke:#231f20;stroke-width:0.565977;stroke-linecap:round;stroke-linejoin:round;stroke-miterlimit:4;stroke-dasharray:none;stroke-opacity:1"
     d="m 296.9858,82.330999 c -0.599,-0.415 -2.448,-3.093 -2.839,-3.723 -0.354,-0.558 -1.25,-1.292 -0.636,-2.271 0.246,-0.396 0.891,-0.797 1.199,-0.891 0.244,-0.073 0.5,0.142 0.677,0.49 0.302,0.594 0.156,0.88 0.671,2.046 0,0 0.084,0.303 0.188,0.839 0.333,1.595 0.036,0.928 1.032,3.136 0.072,0.15 -0.037,0.333 -0.147,0.374 -0.166,0.058 -0.145,0 -0.145,0 z"
     id="path505" />
  <path
     style="fill:#ffffff;fill-opacity:1;fill-rule:nonzero;stroke:none"
     d="m 264.7778,28.524999 c -1.464,1.735 -1.975,1.875 -2.751,1.301 -0.516,-0.374 -1.125,-0.546 -1.442,-0.765 -1.084,-0.713 -2.61,-2.369 -5.703,-8.183 -0.693,-1.317 -1.693,-3.161 -2.161,-3.88 -0.735,-1.14 1.65,-1.593 1.948,-1.15 0.952,1.432 1.713,2.328 2.129,2.801 0.281,0.319 0.703,0.953 1.959,2.053 1.901,1.671 3.286,2.38 4.702,3.947 0.656,0.735 1.62,0.86 1.896,1.907 0.287,1.046 -0.577,1.969 -0.577,1.969"
     id="path506" />
  <path
     style="fill:none;stroke:#231f20;stroke-width:0.565977;stroke-linecap:butt;stroke-linejoin:miter;stroke-miterlimit:4;stroke-dasharray:none;stroke-opacity:1"
     d="m 264.7778,28.524999 c -1.464,1.735 -1.975,1.875 -2.751,1.301 -0.516,-0.374 -1.125,-0.546 -1.442,-0.765 -1.084,-0.713 -2.61,-2.369 -5.703,-8.183 -0.693,-1.317 -1.693,-3.161 -2.161,-3.88 -0.735,-1.14 1.65,-1.593 1.948,-1.15 0.952,1.432 1.713,2.328 2.129,2.801 0.281,0.319 0.703,0.953 1.959,2.053 1.901,1.671 3.286,2.38 4.702,3.947 0.656,0.735 1.62,0.86 1.896,1.907 0.287,1.046 -0.577,1.969 -0.577,1.969 z"
     id="path507" />
  <path
     style="fill:#ffffff;fill-opacity:1;fill-rule:nonzero;stroke:none"
     d="m 262.5738,27.404999 c 2.313,-3.281 4.24,0.323 4.631,0.593 4.109,2.875 4.328,3.188 7.296,5.59 4.302,3.473 6.714,6.509 5.428,9.609 -0.88,2.093 -2.298,2.921 -3.61,2.9 -1.458,-0.031 -4.256,-1.547 -4.442,-4.432 l -1,-1.391 c -0.787,-0.853 -1.178,-1.281 -1.599,-1.672 -0.74,-0.672 -1.485,-1.442 -2.855,-2.848 -2.421,-2.485 -4.166,-5.912 -4.166,-5.912 -0.855,-0.912 0.317,-2.437 0.317,-2.437"
     id="path508" />
  <path
     style="fill:none;stroke:#231f20;stroke-width:0.565977;stroke-linecap:butt;stroke-linejoin:miter;stroke-miterlimit:4;stroke-dasharray:none;stroke-opacity:1"
     d="m 262.5738,27.404999 c 2.313,-3.281 4.24,0.323 4.631,0.593 4.109,2.875 4.328,3.188 7.296,5.59 4.302,3.473 6.714,6.509 5.428,9.609 -0.88,2.093 -2.298,2.921 -3.61,2.9 -1.458,-0.031 -4.256,-1.547 -4.442,-4.432 l -1,-1.391 c -0.787,-0.853 -1.178,-1.281 -1.599,-1.672 -0.74,-0.672 -1.485,-1.442 -2.855,-2.848 -2.421,-2.485 -4.166,-5.912 -4.166,-5.912 -0.855,-0.912 0.317,-2.437 0.317,-2.437 z"
     id="path509" />
  <path
     style="fill:#231f20;fill-opacity:1;fill-rule:nonzero;stroke:none"
     d="m 250.9748,15.831999 c -0.245,1.322 0.604,1.844 1.636,1.677 0.296,-0.041 0.61,0.229 0.906,0.156 0.682,-0.167 1.537,-1.692 0.448,-2.724 -0.074,-0.072 -0.474,-0.786 -0.854,-1.276 -0.745,-0.962 -2.704,-2.505 -5.381,-2.172 -1.265,0.152 -0.937,0.871 -0.411,0.964 1.692,0.292 1.782,0.646 2.192,0.886 1.412,0.797 1.464,2.489 1.464,2.489"
     id="path510" />
  <path
     style="fill:none;stroke:#231f20;stroke-width:0.332927;stroke-linecap:butt;stroke-linejoin:miter;stroke-miterlimit:4;stroke-dasharray:none;stroke-opacity:1"
     d="m 250.9748,15.831999 c -0.245,1.322 0.604,1.844 1.636,1.677 0.296,-0.041 0.61,0.229 0.906,0.156 0.682,-0.167 1.537,-1.692 0.448,-2.724 -0.074,-0.072 -0.474,-0.786 -0.854,-1.276 -0.745,-0.962 -2.704,-2.505 -5.381,-2.172 -1.265,0.152 -0.937,0.871 -0.411,0.964 1.692,0.292 1.782,0.646 2.192,0.886 1.412,0.797 1.464,2.489 1.464,2.489 z"
     id="path511" />
  <path
     style="fill:#231f20;fill-opacity:1;fill-rule:nonzero;stroke:none"
     d="m 249.2928,17.503999 c -0.156,1.344 0.724,1.802 1.734,1.573 0.303,-0.063 0.631,0.192 0.918,0.099 0.67,-0.208 1.426,-1.787 0.276,-2.746 -0.084,-0.072 -0.527,-0.76 -0.939,-1.223 -0.801,-0.906 -2.853,-2.328 -5.504,-1.823 -1.256,0.235 -0.881,0.932 -0.349,0.989 1.702,0.183 1.817,0.532 2.244,0.74 1.464,0.713 1.62,2.391 1.62,2.391"
     id="path512" />
  <path
     style="fill:none;stroke:#231f20;stroke-width:0.332927;stroke-linecap:butt;stroke-linejoin:miter;stroke-miterlimit:4;stroke-dasharray:none;stroke-opacity:1"
     d="m 249.2928,17.503999 c -0.156,1.344 0.724,1.802 1.734,1.573 0.303,-0.063 0.631,0.192 0.918,0.099 0.67,-0.208 1.426,-1.787 0.276,-2.746 -0.084,-0.072 -0.527,-0.76 -0.939,-1.223 -0.801,-0.906 -2.853,-2.328 -5.504,-1.823 -1.256,0.235 -0.881,0.932 -0.349,0.989 1.702,0.183 1.817,0.532 2.244,0.74 1.464,0.713 1.62,2.391 1.62,2.391 z"
     id="path513" />
  <path
     style="fill:#231f20;fill-opacity:1;fill-rule:nonzero;stroke:none"
     d="m 263.8708,29.300999 c -1.344,1.823 -1.849,1.989 -2.656,1.468 -0.537,-0.339 -1.157,-0.473 -1.49,-0.672 -1.124,-0.64 -2.755,-2.197 -6.208,-7.801 -0.782,-1.271 -1.891,-3.047 -2.411,-3.74 -0.803,-1.088 1.552,-1.692 1.875,-1.266 1.036,1.364 1.858,2.214 2.301,2.656 0.303,0.303 0.761,0.912 2.084,1.927 2.005,1.537 3.432,2.167 4.948,3.641 0.703,0.688 1.672,0.75 2.011,1.782 0.358,1.025 -0.454,2.005 -0.454,2.005"
     id="path514" />
  <path
     style="fill:none;stroke:#231f20;stroke-width:0.565977;stroke-linecap:butt;stroke-linejoin:miter;stroke-miterlimit:4;stroke-dasharray:none;stroke-opacity:1"
     d="m 263.8708,29.300999 c -1.344,1.823 -1.849,1.989 -2.656,1.468 -0.537,-0.339 -1.157,-0.473 -1.49,-0.672 -1.124,-0.64 -2.755,-2.197 -6.208,-7.801 -0.782,-1.271 -1.891,-3.047 -2.411,-3.74 -0.803,-1.088 1.552,-1.692 1.875,-1.266 1.036,1.364 1.858,2.214 2.301,2.656 0.303,0.303 0.761,0.912 2.084,1.927 2.005,1.537 3.432,2.167 4.948,3.641 0.703,0.688 1.672,0.75 2.011,1.782 0.358,1.025 -0.454,2.005 -0.454,2.005 z"
     id="path515" />
  <path
     style="fill:#0098c9;fill-opacity:1;fill-rule:nonzero;stroke:none"
     d="m 279.6468,50.773999 c -1.906,-2.484 -2.584,-2.812 -3.39,-3.265 -5.027,-2.844 -3.536,-5.265 -0.97,-6.573 3.022,-1.542 4.074,-2.151 7.412,3.188 0.922,1.494 5.214,6.729 5.214,6.729 1.797,1.667 2.65,4.244 2.188,5.629 -0.486,1.454 -0.402,0.839 -1.09,2.111 -0.666,1.203 -2.546,2.323 -3.713,1.921 -1.125,-0.385 -1.464,-2.021 -2.265,-4.308 -0.631,-1.801 -3.386,-5.432 -3.386,-5.432"
     id="path516" />
  <path
     style="fill:none;stroke:#231f20;stroke-width:0.565977;stroke-linecap:butt;stroke-linejoin:miter;stroke-miterlimit:4;stroke-dasharray:none;stroke-opacity:1"
     d="m 279.6468,50.773999 c -1.906,-2.484 -2.584,-2.812 -3.39,-3.265 -5.027,-2.844 -3.536,-5.265 -0.97,-6.573 3.022,-1.542 4.074,-2.151 7.412,3.188 0.922,1.494 5.214,6.729 5.214,6.729 1.797,1.667 2.65,4.244 2.188,5.629 -0.486,1.454 -0.402,0.839 -1.09,2.111 -0.666,1.203 -2.546,2.323 -3.713,1.921 -1.125,-0.385 -1.464,-2.021 -2.265,-4.308 -0.631,-1.801 -3.386,-5.432 -3.386,-5.432 z"
     id="path517" />
  <path
     style="fill:#ffffff;fill-opacity:1;fill-rule:nonzero;stroke:none"
     d="m 288.0738,66.587999 c -0.145,0.197 0.573,1.093 0.188,1.452 -0.385,0.36 -1.047,-0.067 -2.948,0.532 l -0.021,0.005 c -1.37,0.479 -2.755,0.349 -3.678,-0.5 -1.53,-1.407 -1.224,-4.235 0.688,-6.308 1.912,-2.083 4.699,-2.624 6.23,-1.219 1.469,1.334 1.245,3.99 -0.459,6.038"
     id="path518" />
  <path
     style="fill:none;stroke:#231f20;stroke-width:0.565977;stroke-linecap:butt;stroke-linejoin:miter;stroke-miterlimit:4;stroke-dasharray:none;stroke-opacity:1"
     d="m 288.0738,66.587999 c -0.145,0.197 0.573,1.093 0.188,1.452 -0.385,0.36 -1.047,-0.067 -2.948,0.532 l -0.021,0.005 c -1.37,0.479 -2.755,0.349 -3.678,-0.5 -1.53,-1.407 -1.224,-4.235 0.688,-6.308 1.912,-2.083 4.699,-2.624 6.23,-1.219 1.469,1.334 1.245,3.99 -0.459,6.038 z"
     id="path519" />
  <path
     style="fill:#231f20;fill-opacity:1;fill-rule:nonzero;stroke:none"
     d="m 261.6058,28.320999 c 2.099,-3.421 4.244,0.048 4.656,0.297 4.281,2.604 4.525,2.896 7.645,5.104 4.511,3.199 7.11,6.079 6.016,9.246 -0.74,2.15 -2.093,3.068 -3.412,3.129 -1.457,0.063 -4.344,-1.276 -4.718,-4.14 l -1.078,-1.323 c -0.849,-0.802 -1.261,-1.204 -1.704,-1.562 -0.781,-0.631 -1.582,-1.35 -3.036,-2.667 -2.573,-2.328 -4.53,-5.636 -4.53,-5.636 -0.912,-0.853 0.161,-2.448 0.161,-2.448"
     id="path520" />
  <path
     style="fill:none;stroke:#231f20;stroke-width:0.565977;stroke-linecap:butt;stroke-linejoin:miter;stroke-miterlimit:4;stroke-dasharray:none;stroke-opacity:1"
     d="m 261.6058,28.320999 c 2.099,-3.421 4.244,0.048 4.656,0.297 4.281,2.604 4.525,2.896 7.645,5.104 4.511,3.199 7.11,6.079 6.016,9.246 -0.74,2.15 -2.093,3.068 -3.412,3.129 -1.457,0.063 -4.344,-1.276 -4.718,-4.14 l -1.078,-1.323 c -0.849,-0.802 -1.261,-1.204 -1.704,-1.562 -0.781,-0.631 -1.582,-1.35 -3.036,-2.667 -2.573,-2.328 -4.53,-5.636 -4.53,-5.636 -0.912,-0.853 0.161,-2.448 0.161,-2.448 z"
     id="path521" />
  <path
     style="fill:#0098c9;fill-opacity:1;fill-rule:nonzero;stroke:none"
     d="m 279.8868,39.497999 c -0.157,-1.025 -0.276,-1.64 -0.996,-2.02 -0.057,-0.032 -0.118,-0.078 -0.181,-0.125 -0.333,-0.484 -0.699,-0.975 -1.125,-1.48 l -5.662,5.387 c -0.109,2.885 2.516,4.681 3.964,4.858 1.307,0.162 2.802,-0.516 3.886,-2.51 0.708,-1.296 0.676,-2.662 0.114,-4.11"
     id="path522" />
  <path
     style="fill:none;stroke:#231f20;stroke-width:0.565977;stroke-linecap:butt;stroke-linejoin:miter;stroke-miterlimit:4;stroke-dasharray:none;stroke-opacity:1"
     d="m 279.8868,39.497999 c -0.157,-1.025 -0.276,-1.64 -0.996,-2.02 -0.057,-0.032 -0.118,-0.078 -0.181,-0.125 -0.333,-0.484 -0.699,-0.975 -1.125,-1.48 l -5.662,5.387 c -0.109,2.885 2.516,4.681 3.964,4.858 1.307,0.162 2.802,-0.516 3.886,-2.51 0.708,-1.296 0.676,-2.662 0.114,-4.11 z"
     id="path523" />
  <path
     style="fill:#231f20;fill-opacity:1;fill-rule:nonzero;stroke:none"
     d="m 290.3088,77.831999 c 0.292,-0.578 -0.198,-2.463 0.036,-4.058 0.152,-1.068 -0.599,-3.713 -0.364,-4.77 0.213,-0.968 0.224,-1.438 -0.844,-1.87 -0.636,-0.261 -2.022,-0.344 -2.235,0.12 -0.5,1.078 -0.531,2.026 -0.339,3.078 0.219,1.198 1.09,4.385 1.303,4.964 0.541,1.421 0.317,2.125 0.427,2.516 0.198,0.733 0.532,0.837 1.032,0.812 0.957,-0.052 0.984,-0.792 0.984,-0.792"
     id="path524" />
  <path
     style="fill:none;stroke:#231f20;stroke-width:0.565977;stroke-linecap:butt;stroke-linejoin:miter;stroke-miterlimit:4;stroke-dasharray:none;stroke-opacity:1"
     d="m 290.3088,77.831999 c 0.292,-0.578 -0.198,-2.463 0.036,-4.058 0.152,-1.068 -0.599,-3.713 -0.364,-4.77 0.213,-0.968 0.224,-1.438 -0.844,-1.87 -0.636,-0.261 -2.022,-0.344 -2.235,0.12 -0.5,1.078 -0.531,2.026 -0.339,3.078 0.219,1.198 1.09,4.385 1.303,4.964 0.541,1.421 0.317,2.125 0.427,2.516 0.198,0.733 0.532,0.837 1.032,0.812 0.957,-0.052 0.984,-0.792 0.984,-0.792 z"
     id="path525" />
  <path
     style="fill:#231f20;fill-opacity:1;fill-rule:nonzero;stroke:none"
     d="m 289.3298,68.820999 c 1.265,-0.276 0.468,-2.151 0.333,-2.672 -0.136,-0.531 -0.344,-2.072 -0.354,-3.291 -0.011,-1.229 -0.552,-2.75 -0.574,-5.078 -0.014,-1.219 -0.801,-2.407 -2.572,-2.307 -1.756,0.093 -2.36,1.115 -2.125,2.593 0.24,1.474 1.093,2.76 1.437,4.235 0.344,1.468 0.558,3 0.672,4.213 0.12,1.375 0.698,2.006 1.156,2.151 1.136,0.371 2.027,0.156 2.027,0.156"
     id="path526" />
  <path
     style="fill:none;stroke:#231f20;stroke-width:0.565977;stroke-linecap:butt;stroke-linejoin:miter;stroke-miterlimit:4;stroke-dasharray:none;stroke-opacity:1"
     d="m 289.3298,68.820999 c 1.265,-0.276 0.468,-2.151 0.333,-2.672 -0.136,-0.531 -0.344,-2.072 -0.354,-3.291 -0.011,-1.229 -0.552,-2.75 -0.574,-5.078 -0.014,-1.219 -0.801,-2.407 -2.572,-2.307 -1.756,0.093 -2.36,1.115 -2.125,2.593 0.24,1.474 1.093,2.76 1.437,4.235 0.344,1.468 0.558,3 0.672,4.213 0.12,1.375 0.698,2.006 1.156,2.151 1.136,0.371 2.027,0.156 2.027,0.156 z"
     id="path527" />
  <path
     style="fill:#ffffff;fill-opacity:1;fill-rule:nonzero;stroke:none"
     d="m 298.8868,81.315999 c -0.084,-1.026 0.682,-1.922 1.703,-2 1.025,-0.088 1.921,0.682 2,1.704 0.082,1.025 -0.678,1.921 -1.703,1.999 -1.026,0.083 -1.922,-0.677 -2,-1.703"
     id="path528" />
  <path
     style="fill:none;stroke:#231f20;stroke-width:1.33171;stroke-linecap:butt;stroke-linejoin:miter;stroke-miterlimit:4;stroke-dasharray:none;stroke-opacity:1"
     d="m 298.8868,81.315999 c -0.084,-1.026 0.682,-1.922 1.703,-2 1.025,-0.088 1.921,0.682 2,1.704 0.082,1.025 -0.678,1.921 -1.703,1.999 -1.026,0.083 -1.922,-0.677 -2,-1.703 z"
     id="path529" />
  <path
     style="fill:#ffffff;fill-opacity:1;fill-rule:nonzero;stroke:none"
     d="m 315.8758,81.315999 c -0.084,-1.026 0.682,-1.922 1.703,-2 1.027,-0.088 1.927,0.682 2.005,1.704 0.084,1.025 -0.682,1.921 -1.708,1.999 -1.021,0.083 -1.922,-0.677 -2,-1.703"
     id="path530" />
  <path
     style="fill:none;stroke:#231f20;stroke-width:1.33171;stroke-linecap:butt;stroke-linejoin:miter;stroke-miterlimit:4;stroke-dasharray:none;stroke-opacity:1"
     d="m 315.8758,81.315999 c -0.084,-1.026 0.682,-1.922 1.703,-2 1.027,-0.088 1.927,0.682 2.005,1.704 0.084,1.025 -0.682,1.921 -1.708,1.999 -1.021,0.083 -1.922,-0.677 -2,-1.703 z"
     id="path531" />
  <path
     style="fill:#231f20;fill-opacity:1;fill-rule:nonzero;stroke:none"
     d="m 290.4808,84.242999 c -0.47,-0.557 -1.604,-3.609 -1.823,-4.313 -0.209,-0.634 -0.891,-1.566 -0.052,-2.358 0.339,-0.323 1.057,-0.552 1.38,-0.568 0.255,-0.011 0.453,0.26 0.536,0.641 0.147,0.645 -0.068,0.891 0.147,2.151 0,0 0,0.312 -0.032,0.858 -0.074,1.626 -0.188,0.907 0.224,3.292 0.03,0.161 -0.115,0.318 -0.23,0.328 -0.177,0.011 -0.15,-0.031 -0.15,-0.031"
     id="path532" />
  <path
     style="fill:none;stroke:#231f20;stroke-width:0.565977;stroke-linecap:round;stroke-linejoin:round;stroke-miterlimit:4;stroke-dasharray:none;stroke-opacity:1"
     d="m 290.4808,84.242999 c -0.47,-0.557 -1.604,-3.609 -1.823,-4.313 -0.209,-0.634 -0.891,-1.566 -0.052,-2.358 0.339,-0.323 1.057,-0.552 1.38,-0.568 0.255,-0.011 0.453,0.26 0.536,0.641 0.147,0.645 -0.068,0.891 0.147,2.151 0,0 0,0.312 -0.032,0.858 -0.074,1.626 -0.188,0.907 0.224,3.292 0.03,0.161 -0.115,0.318 -0.23,0.328 -0.177,0.011 -0.15,-0.031 -0.15,-0.031 z"
     id="path533" />
  <path
     style="fill:#ffffff;fill-opacity:1;fill-rule:nonzero;stroke:none"
     d="m 58.4448,79.044999 c 1.0256,-0.031 1.8802,0.781 1.9109,1.808 0.0265,1.025 -0.7869,1.88 -1.812,1.905 -1.0271,0.032 -1.8801,-0.78 -1.9067,-1.806 -0.0256,-1.026 0.7812,-1.886 1.8078,-1.907"
     id="path534" />
  <path
     style="fill:none;stroke:#231f20;stroke-width:1.33171;stroke-linecap:butt;stroke-linejoin:miter;stroke-miterlimit:4;stroke-dasharray:none;stroke-opacity:1"
     d="m 58.4448,79.044999 c 1.0256,-0.031 1.8802,0.781 1.9109,1.808 0.0265,1.025 -0.7869,1.88 -1.812,1.905 -1.0271,0.032 -1.8801,-0.78 -1.9067,-1.806 -0.0256,-1.026 0.7812,-1.886 1.8078,-1.907 z"
     id="path535" />
  <path
     style="fill:#ffffff;fill-opacity:1;fill-rule:nonzero;stroke:none"
     d="m 71.8398,79.044999 c 1.026,-0.031 1.881,0.781 1.907,1.808 0.031,1.025 -0.782,1.88 -1.807,1.905 -1.027,0.032 -1.886,-0.78 -1.912,-1.806 -0.026,-1.026 0.786,-1.886 1.812,-1.907"
     id="path536" />
  <path
     style="fill:none;stroke:#231f20;stroke-width:1.33171;stroke-linecap:butt;stroke-linejoin:miter;stroke-miterlimit:4;stroke-dasharray:none;stroke-opacity:1"
     d="m 71.8398,79.044999 c 1.026,-0.031 1.881,0.781 1.907,1.808 0.031,1.025 -0.782,1.88 -1.807,1.905 -1.027,0.032 -1.886,-0.78 -1.912,-1.806 -0.026,-1.026 0.786,-1.886 1.812,-1.907 z"
     id="path537" />
  <path
     style="fill:#ffffff;fill-opacity:1;fill-rule:nonzero;stroke:none"
     d="m 173.5008,79.044999 c 1.026,-0.031 1.881,0.781 1.906,1.808 0.032,1.025 -0.781,1.88 -1.806,1.905 -1.027,0.032 -1.886,-0.78 -1.912,-1.806 -0.026,-1.026 0.786,-1.886 1.812,-1.907"
     id="path538" />
  <path
     style="fill:none;stroke:#231f20;stroke-width:1.33171;stroke-linecap:butt;stroke-linejoin:miter;stroke-miterlimit:4;stroke-dasharray:none;stroke-opacity:1"
     d="m 173.5008,79.044999 c 1.026,-0.031 1.881,0.781 1.906,1.808 0.032,1.025 -0.781,1.88 -1.806,1.905 -1.027,0.032 -1.886,-0.78 -1.912,-1.806 -0.026,-1.026 0.786,-1.886 1.812,-1.907 z"
     id="path539" />
  <path
     style="fill:#ffffff;fill-opacity:1;fill-rule:nonzero;stroke:none"
     d="m 205.0848,79.044999 c 1.026,-0.031 1.88,0.781 1.912,1.808 0.025,1.025 -0.787,1.88 -1.814,1.905 -1.025,0.032 -1.885,-0.78 -1.91,-1.806 -0.027,-1.026 0.785,-1.886 1.812,-1.907"
     id="path540" />
  <path
     style="fill:none;stroke:#231f20;stroke-width:1.33171;stroke-linecap:butt;stroke-linejoin:miter;stroke-miterlimit:4;stroke-dasharray:none;stroke-opacity:1"
     d="m 205.0848,79.044999 c 1.026,-0.031 1.88,0.781 1.912,1.808 0.025,1.025 -0.787,1.88 -1.814,1.905 -1.025,0.032 -1.885,-0.78 -1.91,-1.806 -0.027,-1.026 0.785,-1.886 1.812,-1.907 z"
     id="path541" />
  <path
     style="fill:none;stroke:#231f20;stroke-width:0.399514;stroke-linecap:butt;stroke-linejoin:miter;stroke-miterlimit:4;stroke-dasharray:none;stroke-opacity:1"
     d="m 136.0688,102.831 10.245,-27.073001"
     id="path542" />
  <path
     style="fill:#231f20;fill-opacity:1;fill-rule:nonzero;stroke:none"
     d="m 146.7408,74.633999 c -0.005,0.604 0.084,1.386 0.287,1.932 l -0.771,-0.661 -1.011,-0.011 c 0.516,-0.276 1.099,-0.806 1.495,-1.26"
     id="path543" />
</svg>
