<?xml version="1.0" encoding="UTF-8" standalone="no"?>
<!-- Created with Inkscape (http://www.inkscape.org/) -->

<svg
   version="1.1"
   id="svg1"
   width="219.70869"
   height="114.29772"
   viewBox="0 0 219.70869 114.29772"
   sodipodi:docname="cell.svg"
   xmlns:inkscape="http://www.inkscape.org/namespaces/inkscape"
   xmlns:sodipodi="http://sodipodi.sourceforge.net/DTD/sodipodi-0.dtd"
   xmlns="http://www.w3.org/2000/svg"
   xmlns:svg="http://www.w3.org/2000/svg">
  <sodipodi:namedview
     id="namedview1"
     pagecolor="#ffffff"
     bordercolor="#000000"
     borderopacity="0.25"
     inkscape:showpageshadow="2"
     inkscape:pageopacity="0.0"
     inkscape:pagecheckerboard="0"
     inkscape:deskcolor="#d1d1d1">
    <inkscape:page
       x="0"
       y="0"
       inkscape:label="1"
       id="page1"
       width="219.70869"
       height="114.29772"
       margin="0"
       bleed="0" />
  </sodipodi:namedview>
  <defs
     id="defs1" />
  <path
     style="fill:#231f20;fill-opacity:1;fill-rule:nonzero;stroke:none"
     d="m 187.60361,62.303849 c -0.63,-1.192 0.02,-1.937 1.04,-2.093 0.31,-0.052 0.52,-0.407 0.82,-0.432 0.71,-0.048 1.99,1.14 1.26,2.457 -0.05,0.095 -0.21,0.896 -0.42,1.48 -0.42,1.14 -1.81,3.213 -4.462,3.713 -1.255,0.235 -1.162,-0.552 -0.688,-0.802 1.53,-0.791 1.5,-1.156 1.82,-1.511 1.1,-1.192 0.63,-2.812 0.63,-2.812"
     id="path665" />
  <path
     style="fill:none;stroke:#231f20;stroke-width:0.332927;stroke-linecap:butt;stroke-linejoin:miter;stroke-miterlimit:4;stroke-dasharray:none;stroke-opacity:1"
     d="m 187.60361,62.303849 c -0.63,-1.192 0.02,-1.937 1.04,-2.093 0.31,-0.052 0.52,-0.407 0.82,-0.432 0.71,-0.048 1.99,1.14 1.26,2.457 -0.05,0.095 -0.21,0.896 -0.42,1.48 -0.42,1.14 -1.81,3.213 -4.462,3.713 -1.255,0.235 -1.162,-0.552 -0.688,-0.802 1.53,-0.791 1.5,-1.156 1.82,-1.511 1.1,-1.192 0.63,-2.812 0.63,-2.812 z"
     id="path666" />
  <path
     style="fill:#231f20;fill-opacity:1;fill-rule:nonzero;stroke:none"
     d="m 196.88361,46.006849 c -1.92,-1.203 -2.45,-1.182 -3.02,-0.406 -0.38,0.52 -0.9,0.87 -1.14,1.172 -0.81,1.015 -1.76,3.058 -2.93,9.526 -0.26,1.469 -0.65,3.532 -0.88,4.365 -0.35,1.307 2.06,1.009 2.2,0.495 0.47,-1.647 0.93,-2.74 1.18,-3.319 0.17,-0.391 0.38,-1.119 1.24,-2.552 1.3,-2.161 2.4,-3.265 3.27,-5.192 0.41,-0.896 1.28,-1.308 1.23,-2.391 -0.05,-1.088 -1.15,-1.698 -1.15,-1.698"
     id="path667" />
  <path
     style="fill:none;stroke:#231f20;stroke-width:0.565977;stroke-linecap:butt;stroke-linejoin:miter;stroke-miterlimit:4;stroke-dasharray:none;stroke-opacity:1"
     d="m 196.88361,46.006849 c -1.92,-1.203 -2.45,-1.182 -3.02,-0.406 -0.38,0.52 -0.9,0.87 -1.14,1.172 -0.81,1.015 -1.76,3.058 -2.93,9.526 -0.26,1.469 -0.65,3.532 -0.88,4.365 -0.35,1.307 2.06,1.009 2.2,0.495 0.47,-1.647 0.93,-2.74 1.18,-3.319 0.17,-0.391 0.38,-1.119 1.24,-2.552 1.3,-2.161 2.4,-3.265 3.27,-5.192 0.41,-0.896 1.28,-1.308 1.23,-2.391 -0.05,-1.088 -1.15,-1.698 -1.15,-1.698 z"
     id="path668" />
  <path
     style="fill:#0098c9;fill-opacity:1;fill-rule:nonzero;stroke:none"
     d="m 205.94361,21.111849 c -1.61,2.6867 -2.25,3.0933 -3,3.6293 -4.68,3.4014 -2.91,5.636 -0.21,6.6414 3.18,1.1866 4.29,1.672 6.99,-4.016 0.75,-1.5787 4.42,-7.2707 4.42,-7.2707 1.59,-1.86 2.15,-4.5213 1.54,-5.844 -0.65,-1.3906 -0.49,-0.7866 -1.33,-1.968 -0.8,-1.12 -2.79,-2.0213 -3.91,-1.4853 -1.07,0.5053 -1.22,2.1667 -1.76,4.532 -0.42,1.864 -2.74,5.7813 -2.74,5.7813"
     id="path669" />
  <path
     style="fill:none;stroke:#231f20;stroke-width:0.565977;stroke-linecap:butt;stroke-linejoin:miter;stroke-miterlimit:4;stroke-dasharray:none;stroke-opacity:1"
     d="m 205.94361,21.111849 c -1.61,2.6867 -2.25,3.0933 -3,3.6293 -4.68,3.4014 -2.91,5.636 -0.21,6.6414 3.18,1.1866 4.29,1.672 6.99,-4.016 0.75,-1.5787 4.42,-7.2707 4.42,-7.2707 1.59,-1.86 2.15,-4.5213 1.54,-5.844 -0.65,-1.3906 -0.49,-0.7866 -1.33,-1.968 -0.8,-1.12 -2.79,-2.0213 -3.91,-1.4853 -1.07,0.5053 -1.22,2.1667 -1.76,4.532 -0.42,1.864 -2.74,5.7813 -2.74,5.7813 z"
     id="path670" />
  <path
     style="fill:#ffffff;fill-opacity:1;fill-rule:nonzero;stroke:none"
     d="m 218.16361,6.3452489 c 0.07,-0.2387 1.22,-0.2187 1.26,-0.7387 0.05,-0.5266 -0.69,-0.792 -1.37,-2.656 l -0.02,-0.0213 c -0.45,-1.38 -1.4,-2.39600002 -2.64,-2.60400002 -2.04,-0.36 -4.09,1.60930002 -4.57,4.39070002 -0.48,2.7866 0.79,5.3279001 2.83,5.6813001 1.96,0.344 3.93,-1.4520001 4.51,-4.0520001"
     id="path671" />
  <path
     style="fill:none;stroke:#231f20;stroke-width:0.565977;stroke-linecap:butt;stroke-linejoin:miter;stroke-miterlimit:4;stroke-dasharray:none;stroke-opacity:1"
     d="m 218.16361,6.3452489 c 0.07,-0.2387 1.22,-0.2187 1.26,-0.7387 0.05,-0.5266 -0.69,-0.792 -1.37,-2.656 l -0.02,-0.0213 c -0.45,-1.38 -1.4,-2.39600002 -2.64,-2.60400002 -2.04,-0.36 -4.09,1.60930002 -4.57,4.39070002 -0.48,2.7866 0.79,5.3279001 2.83,5.6813001 1.96,0.344 3.93,-1.4520001 4.51,-4.0520001 z"
     id="path672" />
  <path
     style="fill:#231f20;fill-opacity:1;fill-rule:nonzero;stroke:none"
     d="m 195.12361,47.740849 c 3.2,2.423 3.94,-1.593 4.23,-1.973 3.03,-3.985 3.15,-4.349 5.24,-7.547 3.04,-4.6197 4.41,-8.2503 2.24,-10.8023 -1.47,-1.7294 -3.07,-2.088 -4.32,-1.6614 -1.38,0.4734 -3.57,2.7654 -2.88,5.5734 l -0.53,1.6293 c -0.49,1.052 -0.73,1.5733 -1.01,2.0733 -0.5,0.8747 -0.97,1.8333 -1.85,3.5837 -1.55,3.114 -2.17,6.906 -2.17,6.906 -0.52,1.13 1.05,2.218 1.05,2.218"
     id="path673" />
  <path
     style="fill:none;stroke:#231f20;stroke-width:0.565977;stroke-linecap:butt;stroke-linejoin:miter;stroke-miterlimit:4;stroke-dasharray:none;stroke-opacity:1"
     d="m 195.12361,47.740849 c 3.2,2.423 3.94,-1.593 4.23,-1.973 3.03,-3.985 3.15,-4.349 5.24,-7.547 3.04,-4.6197 4.41,-8.2503 2.24,-10.8023 -1.47,-1.7294 -3.07,-2.088 -4.32,-1.6614 -1.38,0.4734 -3.57,2.7654 -2.88,5.5734 l -0.53,1.6293 c -0.49,1.052 -0.73,1.5733 -1.01,2.0733 -0.5,0.8747 -0.97,1.8333 -1.85,3.5837 -1.55,3.114 -2.17,6.906 -2.17,6.906 -0.52,1.13 1.05,2.218 1.05,2.218 z"
     id="path674" />
  <path
     style="fill:#0098c9;fill-opacity:1;fill-rule:nonzero;stroke:none"
     d="m 207.74361,33.095849 c 0.05,-0.068 0.09,-0.1307 0.14,-0.188 0.52,-0.6147 0.41,-1.2347 0.18,-2.2493 -0.01,-1.5574 -0.48,-2.8334 -1.61,-3.776 -1.74,-1.4587 -3.37,-1.5467 -4.53,-0.9174 -1.29,0.688 -3.07,3.3227 -1.92,5.9694 l 7.24,2.9426 c 0.21,-0.62 0.37,-1.208 0.5,-1.7813"
     id="path675" />
  <path
     style="fill:none;stroke:#231f20;stroke-width:0.565977;stroke-linecap:butt;stroke-linejoin:miter;stroke-miterlimit:4;stroke-dasharray:none;stroke-opacity:1"
     d="m 207.74361,33.095849 c 0.05,-0.068 0.09,-0.1307 0.14,-0.188 0.52,-0.6147 0.41,-1.2347 0.18,-2.2493 -0.01,-1.5574 -0.48,-2.8334 -1.61,-3.776 -1.74,-1.4587 -3.37,-1.5467 -4.53,-0.9174 -1.29,0.688 -3.07,3.3227 -1.92,5.9694 l 7.24,2.9426 c 0.21,-0.62 0.37,-1.208 0.5,-1.7813 z"
     id="path676" />
  <path
     style="fill:#231f20;fill-opacity:1;fill-rule:nonzero;stroke:none"
     d="m 209.20361,34.617149 c -0.33,-0.5533 0.03,-2.4693 -0.32,-4.0426 -0.22,-1.0627 0.35,-3.7494 0.04,-4.7867 -0.28,-0.952 -0.31,-1.416 0.72,-1.9213 0.61,-0.3027 1.99,-0.484 2.23,-0.036 0.58,1.0466 0.67,1.984 0.55,3.0466 -0.13,1.2134 -0.79,4.4534 -0.96,5.0414 -0.45,1.4586 -0.17,2.1453 -0.25,2.5413 -0.15,0.7453 -0.48,0.876 -0.98,0.88 -0.96,0.016 -1.03,-0.7227 -1.03,-0.7227"
     id="path677" />
  <path
     style="fill:none;stroke:#231f20;stroke-width:0.565977;stroke-linecap:butt;stroke-linejoin:miter;stroke-miterlimit:4;stroke-dasharray:none;stroke-opacity:1"
     d="m 209.20361,34.617149 c -0.33,-0.5533 0.03,-2.4693 -0.32,-4.0426 -0.22,-1.0627 0.35,-3.7494 0.04,-4.7867 -0.28,-0.952 -0.31,-1.416 0.72,-1.9213 0.61,-0.3027 1.99,-0.484 2.23,-0.036 0.58,1.0466 0.67,1.984 0.55,3.0466 -0.13,1.2134 -0.79,4.4534 -0.96,5.0414 -0.45,1.4586 -0.17,2.1453 -0.25,2.5413 -0.15,0.7453 -0.48,0.876 -0.98,0.88 -0.96,0.016 -1.03,-0.7227 -1.03,-0.7227 z"
     id="path678" />
  <path
     style="fill:#231f20;fill-opacity:1;fill-rule:nonzero;stroke:none"
     d="m 209.56361,25.563849 c -1.29,-0.192 -0.61,-2.1187 -0.52,-2.6453 0.1,-0.5414 0.21,-2.0934 0.14,-3.312 -0.08,-1.2187 0.35,-2.776 0.22,-5.1 -0.07,-1.2227 0.63,-2.452 2.41,-2.4787 1.75,-0.0253 2.43,0.9534 2.29,2.4427 -0.14,1.4893 -0.9,2.8333 -1.14,4.3227 -0.24,1.4946 -0.35,3.0319 -0.38,4.2453 -0.03,1.3853 -0.56,2.0573 -1.01,2.2293 -1.11,0.448 -2.01,0.296 -2.01,0.296"
     id="path679" />
  <path
     style="fill:none;stroke:#231f20;stroke-width:0.565977;stroke-linecap:butt;stroke-linejoin:miter;stroke-miterlimit:4;stroke-dasharray:none;stroke-opacity:1"
     d="m 209.56361,25.563849 c -1.29,-0.192 -0.61,-2.1187 -0.52,-2.6453 0.1,-0.5414 0.21,-2.0934 0.14,-3.312 -0.08,-1.2187 0.35,-2.776 0.22,-5.1 -0.07,-1.2227 0.63,-2.452 2.41,-2.4787 1.75,-0.0253 2.43,0.9534 2.29,2.4427 -0.14,1.4893 -0.9,2.8333 -1.14,4.3227 -0.24,1.4946 -0.35,3.0319 -0.38,4.2453 -0.03,1.3853 -0.56,2.0573 -1.01,2.2293 -1.11,0.448 -2.01,0.296 -2.01,0.296 z"
     id="path680" />
  <path
     style="fill:#ffffff;fill-opacity:1;fill-rule:nonzero;stroke:none"
     d="m 209.15361,37.590849 c -1.02,-0.047 -1.82,-0.9177 -1.77,-1.943 0.05,-1.0267 0.92,-1.8227 1.94,-1.776 1.03,0.0466 1.82,0.916 1.77,1.9426 -0.04,1.0254 -0.91,1.8224 -1.94,1.7764"
     id="path681" />
  <path
     style="fill:none;stroke:#231f20;stroke-width:1.33171;stroke-linecap:butt;stroke-linejoin:miter;stroke-miterlimit:4;stroke-dasharray:none;stroke-opacity:1"
     d="m 209.15361,37.590849 c -1.02,-0.047 -1.82,-0.9177 -1.77,-1.943 0.05,-1.0267 0.92,-1.8227 1.94,-1.776 1.03,0.0466 1.82,0.916 1.77,1.9426 -0.04,1.0254 -0.91,1.8224 -1.94,1.7764 z"
     id="path682" />
  <path
     style="fill:#231f20;fill-opacity:1;fill-rule:nonzero;stroke:none"
     d="m 82.986612,14.339849 c -0.129,1.344 -1.088,1.6 -2.025,1.1627 -0.287,-0.1253 -0.656,0.052 -0.918,-0.1 -0.614,-0.348 -1.02,-2.0467 0.314,-2.744 0.093,-0.0413 0.677,-0.6253 1.177,-0.9893 0.979,-0.7187 3.28,-1.6720001 5.765,-0.6147 1.178,0.4947 0.662,1.0987 0.13,1.0413 -1.703,-0.1826 -1.891,0.1347 -2.354,0.2494 -1.584,0.3853 -2.089,1.9946 -2.089,1.9946"
     id="path683" />
  <path
     style="fill:none;stroke:#231f20;stroke-width:0.332927;stroke-linecap:butt;stroke-linejoin:miter;stroke-miterlimit:4;stroke-dasharray:none;stroke-opacity:1"
     d="m 82.986612,14.339849 c -0.129,1.344 -1.088,1.6 -2.025,1.1627 -0.287,-0.1253 -0.656,0.052 -0.918,-0.1 -0.614,-0.348 -1.02,-2.0467 0.314,-2.744 0.093,-0.0413 0.677,-0.6253 1.177,-0.9893 0.979,-0.7187 3.28,-1.6720001 5.765,-0.6147 1.178,0.4947 0.662,1.0987 0.13,1.0413 -1.703,-0.1826 -1.891,0.1347 -2.354,0.2494 -1.584,0.3853 -2.089,1.9946 -2.089,1.9946 z"
     id="path684" />
  <path
     style="fill:#231f20;fill-opacity:1;fill-rule:nonzero;stroke:none"
     d="m 66.226612,23.319849 c 0.932,2.068 1.391,2.344 2.292,2.016 0.599,-0.224 1.229,-0.2293 1.593,-0.344 1.246,-0.3907 3.162,-1.568 7.724,-6.308 1.032,-1.072 2.5,-2.572 3.151,-3.14 1.016,-0.8906 -1.156,-1.98 -1.557,-1.6306 -1.307,1.1093 -2.291,1.7653 -2.818,2.104 -0.358,0.2293 -0.937,0.724 -2.448,1.4373 -2.281,1.0787 -3.812,1.3907 -5.604,2.5053 -0.833,0.5213 -1.792,0.38 -2.344,1.3133 -0.568,0.9267 0.011,2.0467 0.011,2.0467"
     id="path685" />
  <path
     style="fill:none;stroke:#231f20;stroke-width:0.565977;stroke-linecap:butt;stroke-linejoin:miter;stroke-miterlimit:4;stroke-dasharray:none;stroke-opacity:1"
     d="m 66.226612,23.319849 c 0.932,2.068 1.391,2.344 2.292,2.016 0.599,-0.224 1.229,-0.2293 1.593,-0.344 1.246,-0.3907 3.162,-1.568 7.724,-6.308 1.032,-1.072 2.5,-2.572 3.151,-3.14 1.016,-0.8906 -1.156,-1.98 -1.557,-1.6306 -1.307,1.1093 -2.291,1.7653 -2.818,2.104 -0.358,0.2293 -0.937,0.724 -2.448,1.4373 -2.281,1.0787 -3.812,1.3907 -5.604,2.5053 -0.833,0.5213 -1.792,0.38 -2.344,1.3133 -0.568,0.9267 0.011,2.0467 0.011,2.0467 z"
     id="path686" />
  <path
     style="fill:#0098c9;fill-opacity:1;fill-rule:nonzero;stroke:none"
     d="m 71.242612,49.746849 c 1.213,-2.891 1.792,-3.38 2.453,-4.02 4.151,-4.022 2.099,-5.986 -0.718,-6.606 -3.314,-0.728 -4.486,-1.052 -6.366,4.959 -0.516,1.672 -3.353,7.823 -3.353,7.823 -1.313,2.062 -1.496,4.776 -0.699,6 0.839,1.286 0.599,0.714 1.594,1.761 0.942,1 3.042,1.609 4.073,0.927 0.989,-0.656 0.912,-2.323 1.104,-4.74 0.161,-1.9 1.912,-6.104 1.912,-6.104"
     id="path687" />
  <path
     style="fill:none;stroke:#231f20;stroke-width:0.565977;stroke-linecap:butt;stroke-linejoin:miter;stroke-miterlimit:4;stroke-dasharray:none;stroke-opacity:1"
     d="m 71.242612,49.746849 c 1.213,-2.891 1.792,-3.38 2.453,-4.02 4.151,-4.022 2.099,-5.986 -0.718,-6.606 -3.314,-0.728 -4.486,-1.052 -6.366,4.959 -0.516,1.672 -3.353,7.823 -3.353,7.823 -1.313,2.062 -1.496,4.776 -0.699,6 0.839,1.286 0.599,0.714 1.594,1.761 0.942,1 3.042,1.609 4.073,0.927 0.989,-0.656 0.912,-2.323 1.104,-4.74 0.161,-1.9 1.912,-6.104 1.912,-6.104 z"
     id="path688" />
  <path
     style="fill:#ffffff;fill-opacity:1;fill-rule:nonzero;stroke:none"
     d="m 61.210612,66.079849 c -0.031,0.245 -1.172,0.385 -1.145,0.912 0.025,0.52 0.797,0.681 1.74,2.437 l 0.009,0.016 c 0.647,1.302 1.724,2.172 2.98,2.214 2.077,0.062 3.828,-2.172 3.916,-4.995 0.084,-2.828 -1.531,-5.161 -3.609,-5.224 -1.984,-0.068 -3.678,1.984 -3.891,4.64"
     id="path689" />
  <path
     style="fill:none;stroke:#231f20;stroke-width:0.565977;stroke-linecap:butt;stroke-linejoin:miter;stroke-miterlimit:4;stroke-dasharray:none;stroke-opacity:1"
     d="m 61.210612,66.079849 c -0.031,0.245 -1.172,0.385 -1.145,0.912 0.025,0.52 0.797,0.681 1.74,2.437 l 0.009,0.016 c 0.647,1.302 1.724,2.172 2.98,2.214 2.077,0.062 3.828,-2.172 3.916,-4.995 0.084,-2.828 -1.531,-5.161 -3.609,-5.224 -1.984,-0.068 -3.678,1.984 -3.891,4.64 z"
     id="path690" />
  <path
     style="fill:#231f20;fill-opacity:1;fill-rule:nonzero;stroke:none"
     d="m 68.538612,20.647849 c -4.009,-0.0467 -2.228,3.62 -2.233,4.0987 -0.084,5.0106 0.036,5.3693 0.244,9.1879 0.297,5.5254 1.344,9.2604 4.604,10.0304 2.214,0.516 3.714,-0.145 4.469,-1.224 0.828,-1.202 1.235,-4.348 -0.984,-6.197 l -0.548,-1.6254 c -0.223,-1.14 -0.343,-1.7026 -0.411,-2.2706 -0.114,-1 -0.302,-2.0573 -0.636,-3.984 -0.598,-3.4227 -2.348,-6.844 -2.348,-6.844 -0.245,-1.224 -2.157,-1.172 -2.157,-1.172"
     id="path691" />
  <path
     style="fill:none;stroke:#231f20;stroke-width:0.565977;stroke-linecap:butt;stroke-linejoin:miter;stroke-miterlimit:4;stroke-dasharray:none;stroke-opacity:1"
     d="m 68.538612,20.647849 c -4.009,-0.0467 -2.228,3.62 -2.233,4.0987 -0.084,5.0106 0.036,5.3693 0.244,9.1879 0.297,5.5254 1.344,9.2604 4.604,10.0304 2.214,0.516 3.714,-0.145 4.469,-1.224 0.828,-1.202 1.235,-4.348 -0.984,-6.197 l -0.548,-1.6254 c -0.223,-1.14 -0.343,-1.7026 -0.411,-2.2706 -0.114,-1 -0.302,-2.0573 -0.636,-3.984 -0.598,-3.4227 -2.348,-6.844 -2.348,-6.844 -0.245,-1.224 -2.157,-1.172 -2.157,-1.172 z"
     id="path692" />
  <path
     style="fill:#0098c9;fill-opacity:1;fill-rule:nonzero;stroke:none"
     d="m 67.049612,39.928849 c 0.01,0.083 0.01,0.156 0.005,0.23 -0.052,0.806 0.407,1.238 1.193,1.921 0.922,1.251 2.063,2 3.531,2.093 2.265,0.142 3.636,-0.76 4.193,-1.952 0.624,-1.318 0.506,-4.5 -1.994,-5.9477 l -7.574,1.9217 c 0.198,0.63 0.416,1.198 0.646,1.734"
     id="path693" />
  <path
     style="fill:none;stroke:#231f20;stroke-width:0.565977;stroke-linecap:butt;stroke-linejoin:miter;stroke-miterlimit:4;stroke-dasharray:none;stroke-opacity:1"
     d="m 67.049612,39.928849 c 0.01,0.083 0.01,0.156 0.005,0.23 -0.052,0.806 0.407,1.238 1.193,1.921 0.922,1.251 2.063,2 3.531,2.093 2.265,0.142 3.636,-0.76 4.193,-1.952 0.624,-1.318 0.506,-4.5 -1.994,-5.9477 l -7.574,1.9217 c 0.198,0.63 0.416,1.198 0.646,1.734 z"
     id="path694" />
  <path
     style="fill:#231f20;fill-opacity:1;fill-rule:nonzero;stroke:none"
     d="m 66.117612,36.830449 c 0.401,0.5 0.317,2.4484 0.874,3.9574 0.376,1.021 0.188,3.761 0.636,4.745 0.407,0.902 0.516,1.36 -0.442,2.006 -0.563,0.38 -1.896,0.754 -2.204,0.344 -0.719,-0.954 -0.943,-1.871 -0.968,-2.943 -0.042,-1.209 0.15,-4.516 0.24,-5.12 0.233,-1.505 -0.131,-2.147 -0.106,-2.552 0.043,-0.7614 0.344,-0.932 0.839,-1.0107 0.948,-0.1453 1.131,0.5733 1.131,0.5733"
     id="path695" />
  <path
     style="fill:none;stroke:#231f20;stroke-width:0.565977;stroke-linecap:butt;stroke-linejoin:miter;stroke-miterlimit:4;stroke-dasharray:none;stroke-opacity:1"
     d="m 66.117612,36.830449 c 0.401,0.5 0.317,2.4484 0.874,3.9574 0.376,1.021 0.188,3.761 0.636,4.745 0.407,0.902 0.516,1.36 -0.442,2.006 -0.563,0.38 -1.896,0.754 -2.204,0.344 -0.719,-0.954 -0.943,-1.871 -0.968,-2.943 -0.042,-1.209 0.15,-4.516 0.24,-5.12 0.233,-1.505 -0.131,-2.147 -0.106,-2.552 0.043,-0.7614 0.344,-0.932 0.839,-1.0107 0.948,-0.1453 1.131,0.5733 1.131,0.5733 z"
     id="path696" />
  <path
     style="fill:#231f20;fill-opacity:1;fill-rule:nonzero;stroke:none"
     d="m 67.029612,45.839849 c 1.296,0.011 0.905,2.016 0.885,2.553 -0.027,0.547 0.088,2.099 0.333,3.296 0.239,1.199 0.031,2.803 0.49,5.079 0.24,1.203 -0.282,2.52 -2.036,2.792 -1.735,0.271 -2.538,-0.6 -2.611,-2.095 -0.072,-1.494 0.491,-2.926 0.521,-4.437 0.032,-1.516 -0.077,-3.057 -0.218,-4.26 -0.167,-1.375 0.27,-2.115 0.682,-2.349 1.036,-0.599 1.954,-0.579 1.954,-0.579"
     id="path697" />
  <path
     style="fill:none;stroke:#231f20;stroke-width:0.565977;stroke-linecap:butt;stroke-linejoin:miter;stroke-miterlimit:4;stroke-dasharray:none;stroke-opacity:1"
     d="m 67.029612,45.839849 c 1.296,0.011 0.905,2.016 0.885,2.553 -0.027,0.547 0.088,2.099 0.333,3.296 0.239,1.199 0.031,2.803 0.49,5.079 0.24,1.203 -0.282,2.52 -2.036,2.792 -1.735,0.271 -2.538,-0.6 -2.611,-2.095 -0.072,-1.494 0.491,-2.926 0.521,-4.437 0.032,-1.516 -0.077,-3.057 -0.218,-4.26 -0.167,-1.375 0.27,-2.115 0.682,-2.349 1.036,-0.599 1.954,-0.579 1.954,-0.579 z"
     id="path698" />
  <path
     style="fill:#ffffff;fill-opacity:1;fill-rule:nonzero;stroke:none"
     d="m 65.081612,33.882449 c 1.02,-0.1 1.932,0.6454 2.03,1.672 0.099,1.02 -0.65,1.9324 -1.672,2.0254 -1.025,0.104 -1.932,-0.6454 -2.03,-1.672 -0.099,-1.02 0.65,-1.932 1.672,-2.0254"
     id="path699" />
  <path
     style="fill:none;stroke:#231f20;stroke-width:1.33171;stroke-linecap:butt;stroke-linejoin:miter;stroke-miterlimit:4;stroke-dasharray:none;stroke-opacity:1"
     d="m 65.081612,33.882449 c 1.02,-0.1 1.932,0.6454 2.03,1.672 0.099,1.02 -0.65,1.9324 -1.672,2.0254 -1.025,0.104 -1.932,-0.6454 -2.03,-1.672 -0.099,-1.02 0.65,-1.932 1.672,-2.0254 z"
     id="path700" />
  <path
     style="fill:#231f20;fill-opacity:1;fill-rule:nonzero;stroke:none"
     d="m 117.75361,31.079849 c 0.973,-0.932 1.869,-0.5 2.296,0.4427 0.136,0.2813 0.532,0.3853 0.636,0.672 0.234,0.6666 -0.568,2.2133 -2.032,1.8746 -0.099,-0.0253 -0.922,0.0373 -1.536,-0.0147 -1.214,-0.0946 -3.579,-0.8706 -4.776,-3.2973 -0.568,-1.14 0.218,-1.26 0.584,-0.8693 1.17,1.2493 1.52,1.1293 1.946,1.3427 1.448,0.74 2.882,-0.1507 2.882,-0.1507"
     id="path701" />
  <path
     style="fill:none;stroke:#231f20;stroke-width:0.332927;stroke-linecap:butt;stroke-linejoin:miter;stroke-miterlimit:4;stroke-dasharray:none;stroke-opacity:1"
     d="m 117.75361,31.079849 c 0.973,-0.932 1.869,-0.5 2.296,0.4427 0.136,0.2813 0.532,0.3853 0.636,0.672 0.234,0.6666 -0.568,2.2133 -2.032,1.8746 -0.099,-0.0253 -0.922,0.0373 -1.536,-0.0147 -1.214,-0.0946 -3.579,-0.8706 -4.776,-3.2973 -0.568,-1.14 0.218,-1.26 0.584,-0.8693 1.17,1.2493 1.52,1.1293 1.946,1.3427 1.448,0.74 2.882,-0.1507 2.882,-0.1507 z"
     id="path702" />
  <path
     style="fill:#231f20;fill-opacity:1;fill-rule:nonzero;stroke:none"
     d="m 136.31461,35.205149 c 0.641,-2.1773 0.48,-2.688 -0.421,-3.0213 -0.599,-0.224 -1.079,-0.6347 -1.432,-0.7813 -1.199,-0.5094 -3.418,-0.8694 -9.97,-0.2547 -1.478,0.14 -3.572,0.3173 -4.432,0.3227 -1.358,0.016 -0.421,2.2599 0.115,2.2559 1.713,0.0094 2.885,0.156 3.511,0.2387 0.421,0.0627 1.182,0.0627 2.792,0.5107 2.432,0.6666 3.79,1.4266 5.88,1.7506 0.973,0.1507 1.609,0.8854 2.634,0.536 1.032,-0.3333 1.323,-1.5573 1.323,-1.5573"
     id="path703" />
  <path
     style="fill:none;stroke:#231f20;stroke-width:0.565977;stroke-linecap:butt;stroke-linejoin:miter;stroke-miterlimit:4;stroke-dasharray:none;stroke-opacity:1"
     d="m 136.31461,35.205149 c 0.641,-2.1773 0.48,-2.688 -0.421,-3.0213 -0.599,-0.224 -1.079,-0.6347 -1.432,-0.7813 -1.199,-0.5094 -3.418,-0.8694 -9.97,-0.2547 -1.478,0.14 -3.572,0.3173 -4.432,0.3227 -1.358,0.016 -0.421,2.2599 0.115,2.2559 1.713,0.0094 2.885,0.156 3.511,0.2387 0.421,0.0627 1.182,0.0627 2.792,0.5107 2.432,0.6666 3.79,1.4266 5.88,1.7506 0.973,0.1507 1.609,0.8854 2.634,0.536 1.032,-0.3333 1.323,-1.5573 1.323,-1.5573 z"
     id="path704" />
  <path
     style="fill:#0098c9;fill-opacity:1;fill-rule:nonzero;stroke:none"
     d="m 150.62761,22.366549 c -2.292,-2.14 -2.552,-2.8493 -2.922,-3.6933 -2.338,-5.2854 -4.891,-4.036 -6.443,-1.6094 -1.828,2.8547 -2.541,3.844 2.448,7.6827 1.391,1.068 6.177,5.86 6.177,5.86 1.484,1.9426 3.975,3.0519 5.391,2.724 1.495,-0.3387 0.875,-0.3134 2.208,-0.8814 1.267,-0.5413 2.563,-2.3013 2.271,-3.504 -0.266,-1.1573 -1.859,-1.6573 -4.056,-2.672 -1.735,-0.808 -5.074,-3.9066 -5.074,-3.9066"
     id="path705" />
  <path
     style="fill:none;stroke:#231f20;stroke-width:0.565977;stroke-linecap:butt;stroke-linejoin:miter;stroke-miterlimit:4;stroke-dasharray:none;stroke-opacity:1"
     d="m 150.62761,22.366549 c -2.292,-2.14 -2.552,-2.8493 -2.922,-3.6933 -2.338,-5.2854 -4.891,-4.036 -6.443,-1.6094 -1.828,2.8547 -2.541,3.844 2.448,7.6827 1.391,1.068 6.177,5.86 6.177,5.86 1.484,1.9426 3.975,3.0519 5.391,2.724 1.495,-0.3387 0.875,-0.3134 2.208,-0.8814 1.267,-0.5413 2.563,-2.3013 2.271,-3.504 -0.266,-1.1573 -1.859,-1.6573 -4.056,-2.672 -1.735,-0.808 -5.074,-3.9066 -5.074,-3.9066 z"
     id="path706" />
  <path
     style="fill:#ffffff;fill-opacity:1;fill-rule:nonzero;stroke:none"
     d="m 162.20561,38.090849 c 0.218,0.114 -0.047,1.234 0.453,1.39 0.505,0.156 0.923,-0.51 2.891,-0.786 l 0.021,-0.006 c 1.448,-0.156 2.635,-0.864 3.104,-2.0304 0.781,-1.928 -0.713,-4.3439 -3.333,-5.4013 -2.62,-1.0573 -5.37,-0.3493 -6.146,1.5787 -0.75,1.8373 0.594,4.14 3.01,5.255"
     id="path707" />
  <path
     style="fill:none;stroke:#231f20;stroke-width:0.565977;stroke-linecap:butt;stroke-linejoin:miter;stroke-miterlimit:4;stroke-dasharray:none;stroke-opacity:1"
     d="m 162.20561,38.090849 c 0.218,0.114 -0.047,1.234 0.453,1.39 0.505,0.156 0.923,-0.51 2.891,-0.786 l 0.021,-0.006 c 1.448,-0.156 2.635,-0.864 3.104,-2.0304 0.781,-1.928 -0.713,-4.3439 -3.333,-5.4013 -2.62,-1.0573 -5.37,-0.3493 -6.146,1.5787 -0.75,1.8373 0.594,4.14 3.01,5.255 z"
     id="path708" />
  <path
     style="fill:#231f20;fill-opacity:1;fill-rule:nonzero;stroke:none"
     d="m 132.82561,35.721149 c 3.005,2.6507 4.046,-1.292 4.365,-1.652 3.328,-3.744 3.473,-4.0986 5.801,-7.124 3.38,-4.3813 5.022,-7.8959 3.052,-10.6053 -1.338,-1.8373 -2.905,-2.312 -4.186,-1.9893 -1.412,0.3707 -3.771,2.4947 -3.298,5.344 l -0.64,1.584 c -0.573,1.0146 -0.849,1.5146 -1.172,1.9946 -0.562,0.8334 -1.109,1.7547 -2.109,3.432 -1.781,2.9894 -2.688,6.7187 -2.688,6.7187 -0.615,1.088 0.875,2.2973 0.875,2.2973"
     id="path709" />
  <path
     style="fill:none;stroke:#231f20;stroke-width:0.565977;stroke-linecap:butt;stroke-linejoin:miter;stroke-miterlimit:4;stroke-dasharray:none;stroke-opacity:1"
     d="m 132.82561,35.721149 c 3.005,2.6507 4.046,-1.292 4.365,-1.652 3.328,-3.744 3.473,-4.0986 5.801,-7.124 3.38,-4.3813 5.022,-7.8959 3.052,-10.6053 -1.338,-1.8373 -2.905,-2.312 -4.186,-1.9893 -1.412,0.3707 -3.771,2.4947 -3.298,5.344 l -0.64,1.584 c -0.573,1.0146 -0.849,1.5146 -1.172,1.9946 -0.562,0.8334 -1.109,1.7547 -2.109,3.432 -1.781,2.9894 -2.688,6.7187 -2.688,6.7187 -0.615,1.088 0.875,2.2973 0.875,2.2973 z"
     id="path710" />
  <path
     style="fill:#0098c9;fill-opacity:1;fill-rule:nonzero;stroke:none"
     d="m 145.83561,15.902549 c -1.546,-1.6613 -3.161,-1.948 -4.385,-1.468 -1.36,0.5307 -3.464,2.9267 -2.64,5.692 l 6.823,3.8133 c 0.062,-0.1307 0.109,-0.256 0.166,-0.38 l -0.032,0.1133 c 0,0 0.574,-1.1813 0.808,-1.8426 0.162,-0.4694 0.344,-1.1467 0.38,-1.948 0.198,-1.552 -0.109,-2.8907 -1.12,-3.98"
     id="path711" />
  <path
     style="fill:none;stroke:#231f20;stroke-width:0.565977;stroke-linecap:butt;stroke-linejoin:miter;stroke-miterlimit:4;stroke-dasharray:none;stroke-opacity:1"
     d="m 145.83561,15.902549 c -1.546,-1.6613 -3.161,-1.948 -4.385,-1.468 -1.36,0.5307 -3.464,2.9267 -2.64,5.692 l 6.823,3.8133 c 0.062,-0.1307 0.109,-0.256 0.166,-0.38 l -0.032,0.1133 c 0,0 0.574,-1.1813 0.808,-1.8426 0.162,-0.4694 0.344,-1.1467 0.38,-1.948 0.198,-1.552 -0.109,-2.8907 -1.12,-3.98 z"
     id="path712" />
  <path
     style="fill:#231f20;fill-opacity:1;fill-rule:nonzero;stroke:none"
     d="m 142.78361,33.631849 c -0.057,-0.64 1.094,-2.208 1.47,-3.7707 0.265,-1.0573 1.942,-3.2293 2.118,-4.3013 0.163,-0.9747 0.33,-1.412 1.486,-1.4173 0.677,0 2,0.4266 2.02,0.9426 0.068,1.188 -0.26,2.0734 -0.834,2.9787 -0.64,1.032 -2.64,3.672 -3.052,4.1253 -1.03,1.12 -1.082,1.8547 -1.333,2.1773 -0.457,0.604 -0.807,0.5787 -1.26,0.3694 -0.869,-0.4054 -0.615,-1.104 -0.615,-1.104"
     id="path713" />
  <path
     style="fill:none;stroke:#231f20;stroke-width:0.565977;stroke-linecap:butt;stroke-linejoin:miter;stroke-miterlimit:4;stroke-dasharray:none;stroke-opacity:1"
     d="m 142.78361,33.631849 c -0.057,-0.64 1.094,-2.208 1.47,-3.7707 0.265,-1.0573 1.942,-3.2293 2.118,-4.3013 0.163,-0.9747 0.33,-1.412 1.486,-1.4173 0.677,0 2,0.4266 2.02,0.9426 0.068,1.188 -0.26,2.0734 -0.834,2.9787 -0.64,1.032 -2.64,3.672 -3.052,4.1253 -1.03,1.12 -1.082,1.8547 -1.333,2.1773 -0.457,0.604 -0.807,0.5787 -1.26,0.3694 -0.869,-0.4054 -0.615,-1.104 -0.615,-1.104 z"
     id="path714" />
  <path
     style="fill:#231f20;fill-opacity:1;fill-rule:nonzero;stroke:none"
     d="m 147.11761,23.559849 c 0.75,-1.0573 2.166,0.4107 2.593,0.7387 0.433,0.3333 1.771,1.1306 2.891,1.6146 1.12,0.4894 2.313,1.5787 4.442,2.516 1.126,0.4894 1.907,1.6774 1.12,3.2707 -0.77,1.5733 -1.948,1.7346 -3.218,0.932 -1.266,-0.796 -2.115,-2.0773 -3.334,-2.968 -1.224,-0.896 -2.546,-1.6933 -3.62,-2.2667 -1.213,-0.656 -1.572,-1.432 -1.525,-1.9053 0.104,-1.1933 0.651,-1.932 0.651,-1.932"
     id="path715" />
  <path
     style="fill:none;stroke:#231f20;stroke-width:0.565977;stroke-linecap:butt;stroke-linejoin:miter;stroke-miterlimit:4;stroke-dasharray:none;stroke-opacity:1"
     d="m 147.11761,23.559849 c 0.75,-1.0573 2.166,0.4107 2.593,0.7387 0.433,0.3333 1.771,1.1306 2.891,1.6146 1.12,0.4894 2.313,1.5787 4.442,2.516 1.126,0.4894 1.907,1.6774 1.12,3.2707 -0.77,1.5733 -1.948,1.7346 -3.218,0.932 -1.266,-0.796 -2.115,-2.0773 -3.334,-2.968 -1.224,-0.896 -2.546,-1.6933 -3.62,-2.2667 -1.213,-0.656 -1.572,-1.432 -1.525,-1.9053 0.104,-1.1933 0.651,-1.932 0.651,-1.932 z"
     id="path716" />
  <path
     style="fill:#ffffff;fill-opacity:1;fill-rule:nonzero;stroke:none"
     d="m 141.99761,36.658449 c -0.902,-0.4893 -1.24,-1.6146 -0.755,-2.5213 0.489,-0.9066 1.615,-1.24 2.52,-0.7547 0.907,0.4894 1.245,1.62 0.756,2.52 -0.489,0.9067 -1.615,1.2454 -2.521,0.756"
     id="path717" />
  <path
     style="fill:none;stroke:#231f20;stroke-width:1.33171;stroke-linecap:butt;stroke-linejoin:miter;stroke-miterlimit:4;stroke-dasharray:none;stroke-opacity:1"
     d="m 141.99761,36.658449 c -0.902,-0.4893 -1.24,-1.6146 -0.755,-2.5213 0.489,-0.9066 1.615,-1.24 2.52,-0.7547 0.907,0.4894 1.245,1.62 0.756,2.52 -0.489,0.9067 -1.615,1.2454 -2.521,0.756 z"
     id="path718" />
  <path
     style="fill:#231f20;fill-opacity:1;fill-rule:nonzero;stroke:none"
     d="m 9.5706088,108.55985 c -0.901,-1.006 -0.442,-1.887 0.5110002,-2.287 0.287,-0.125 0.405,-0.516 0.692,-0.609 0.672,-0.215 2.193,0.629 1.813,2.082 -0.032,0.104 0.006,0.923 -0.062,1.538 -0.136,1.208 -0.986,3.552 -3.4380002,4.67 -1.161,0.527 -1.261,-0.254 -0.86,-0.609 1.287,-1.135 1.183,-1.484 1.407,-1.905 0.7810002,-1.423 -0.063,-2.88 -0.063,-2.88"
     id="path719" />
  <path
     style="fill:none;stroke:#231f20;stroke-width:0.332927;stroke-linecap:butt;stroke-linejoin:miter;stroke-miterlimit:4;stroke-dasharray:none;stroke-opacity:1"
     d="m 9.5706088,108.55985 c -0.901,-1.006 -0.442,-1.887 0.5110002,-2.287 0.287,-0.125 0.405,-0.516 0.692,-0.609 0.672,-0.215 2.193,0.629 1.813,2.082 -0.032,0.104 0.006,0.923 -0.062,1.538 -0.136,1.208 -0.986,3.552 -3.4380002,4.67 -1.161,0.527 -1.261,-0.254 -0.86,-0.609 1.287,-1.135 1.183,-1.484 1.407,-1.905 0.7810002,-1.423 -0.063,-2.88 -0.063,-2.88 z"
     id="path720" />
  <path
     style="fill:#231f20;fill-opacity:1;fill-rule:nonzero;stroke:none"
     d="m 14.680609,90.516849 c -2.156,-0.713 -2.667,-0.562 -3.027,0.323 -0.244,0.6 -0.672,1.063 -0.833,1.412 -0.542,1.182 -0.9740002,3.385 -0.562,9.953001 0.094,1.489 0.208,3.583 0.192,4.443 -0.03,1.358 2.24,0.489 2.26,-0.042 0.058,-1.713 0.24,-2.88 0.344,-3.5 0.074,-0.422 0.099,-1.182 0.59,-2.776 0.749,-2.412001 1.552,-3.750001 1.937,-5.828001 0.181,-0.964 0.932,-1.573 0.62,-2.614 -0.308,-1.048 -1.521,-1.371 -1.521,-1.371"
     id="path721" />
  <path
     style="fill:none;stroke:#231f20;stroke-width:0.565977;stroke-linecap:butt;stroke-linejoin:miter;stroke-miterlimit:4;stroke-dasharray:none;stroke-opacity:1"
     d="m 14.680609,90.516849 c -2.156,-0.713 -2.667,-0.562 -3.027,0.323 -0.244,0.6 -0.672,1.063 -0.833,1.412 -0.542,1.182 -0.9740002,3.385 -0.562,9.953001 0.094,1.489 0.208,3.583 0.192,4.443 -0.03,1.358 2.24,0.489 2.26,-0.042 0.058,-1.713 0.24,-2.88 0.344,-3.5 0.074,-0.422 0.099,-1.182 0.59,-2.776 0.749,-2.412001 1.552,-3.750001 1.937,-5.828001 0.181,-0.964 0.932,-1.573 0.62,-2.614 -0.308,-1.048 -1.521,-1.371 -1.521,-1.371 z"
     id="path722" />
  <path
     style="fill:#0098c9;fill-opacity:1;fill-rule:nonzero;stroke:none"
     d="m 12.748609,66.256849 c 0.932,2.99 0.806,3.735 0.713,4.651 -0.579,5.751 2.255,5.928 4.807,4.584 3,-1.579 4.104,-2.084 1.666,-7.885 -0.676,-1.615 -2.473,-8.147 -2.473,-8.147 -0.328,-2.427 -1.943,-4.615 -3.333,-5.041 -1.475,-0.438 -0.918,-0.156 -2.355,-0.318 -1.364,-0.156 -3.3640002,0.735 -3.7130002,1.922 -0.339,1.136 0.802,2.354 2.2080002,4.328 1.109,1.557 2.48,5.906 2.48,5.906"
     id="path723" />
  <path
     style="fill:none;stroke:#231f20;stroke-width:0.565977;stroke-linecap:butt;stroke-linejoin:miter;stroke-miterlimit:4;stroke-dasharray:none;stroke-opacity:1"
     d="m 12.748609,66.256849 c 0.932,2.99 0.806,3.735 0.713,4.651 -0.579,5.751 2.255,5.928 4.807,4.584 3,-1.579 4.104,-2.084 1.666,-7.885 -0.676,-1.615 -2.473,-8.147 -2.473,-8.147 -0.328,-2.427 -1.943,-4.615 -3.333,-5.041 -1.475,-0.438 -0.918,-0.156 -2.355,-0.318 -1.364,-0.156 -3.3640002,0.735 -3.7130002,1.922 -0.339,1.136 0.802,2.354 2.2080002,4.328 1.109,1.557 2.48,5.906 2.48,5.906 z"
     id="path724" />
  <path
     style="fill:#ffffff;fill-opacity:1;fill-rule:nonzero;stroke:none"
     d="m 7.2626088,47.850849 c -0.192,-0.135 0.215,-1.214 -0.26,-1.438 -0.478,-0.224 -0.984,0.386 -2.968,0.396 h -0.021 c -1.459,-0.041 -2.735,0.5 -3.35499998,1.594 -1.03,1.802 0.126,4.401 2.57399998,5.797 2.453,1.401 5.276,1.073 6.306,-0.729 0.9910002,-1.719 -0.03,-4.183 -2.276,-5.62"
     id="path725" />
  <path
     style="fill:none;stroke:#231f20;stroke-width:0.565977;stroke-linecap:butt;stroke-linejoin:miter;stroke-miterlimit:4;stroke-dasharray:none;stroke-opacity:1"
     d="m 7.2626088,47.850849 c -0.192,-0.135 0.215,-1.214 -0.26,-1.438 -0.478,-0.224 -0.984,0.386 -2.968,0.396 h -0.021 c -1.459,-0.041 -2.735,0.5 -3.35499998,1.594 -1.03,1.802 0.126,4.401 2.57399998,5.797 2.453,1.401 5.276,1.073 6.306,-0.729 0.9910002,-1.719 -0.03,-4.183 -2.276,-5.62 z"
     id="path726" />
  <path
     style="fill:#231f20;fill-opacity:1;fill-rule:nonzero;stroke:none"
     d="m 13.388609,92.626849 c 3.682,1.578 3.437,-2.495 3.63,-2.938 1.995,-4.598 2.016,-4.973 3.287,-8.577 1.843,-5.219 2.301,-9.073 -0.412,-11.027 -1.844,-1.328 -3.489,-1.292 -4.599,-0.578 -1.218,0.786 -2.808,3.542 -1.458,6.1 l -0.12,1.708 c -0.23,1.134 -0.334,1.708 -0.49,2.254 -0.276,0.97 -0.51,2.016 -0.937,3.928 -0.76,3.386 -0.448,7.219 -0.448,7.219 -0.245,1.224 1.547,1.911 1.547,1.911"
     id="path727" />
  <path
     style="fill:none;stroke:#231f20;stroke-width:0.565977;stroke-linecap:butt;stroke-linejoin:miter;stroke-miterlimit:4;stroke-dasharray:none;stroke-opacity:1"
     d="m 13.388609,92.626849 c 3.682,1.578 3.437,-2.495 3.63,-2.938 1.995,-4.598 2.016,-4.973 3.287,-8.577 1.843,-5.219 2.301,-9.073 -0.412,-11.027 -1.844,-1.328 -3.489,-1.292 -4.599,-0.578 -1.218,0.786 -2.808,3.542 -1.458,6.1 l -0.12,1.708 c -0.23,1.134 -0.334,1.708 -0.49,2.254 -0.276,0.97 -0.51,2.016 -0.937,3.928 -0.76,3.386 -0.448,7.219 -0.448,7.219 -0.245,1.224 1.547,1.911 1.547,1.911 z"
     id="path728" />
  <path
     style="fill:#0098c9;fill-opacity:1;fill-rule:nonzero;stroke:none"
     d="m 21.857609,72.934849 c -0.376,-1.506 -1.141,-2.636 -2.464,-3.282 -2.036,-0.994 -3.64,-0.693 -4.62,0.192 -1.083,0.98 -2.187,3.97 -0.432,6.256 l 7.735,1.13 c 0.057,-0.656 0.068,-1.266 0.062,-1.854 0.026,-0.073 0.052,-0.146 0.078,-0.208 0.365,-0.724 0.104,-1.302 -0.359,-2.234"
     id="path729" />
  <path
     style="fill:none;stroke:#231f20;stroke-width:0.565977;stroke-linecap:butt;stroke-linejoin:miter;stroke-miterlimit:4;stroke-dasharray:none;stroke-opacity:1"
     d="m 21.857609,72.934849 c -0.376,-1.506 -1.141,-2.636 -2.464,-3.282 -2.036,-0.994 -3.64,-0.693 -4.62,0.192 -1.083,0.98 -2.187,3.97 -0.432,6.256 l 7.735,1.13 c 0.057,-0.656 0.068,-1.266 0.062,-1.854 0.026,-0.073 0.052,-0.146 0.078,-0.208 0.365,-0.724 0.104,-1.302 -0.359,-2.234 z"
     id="path730" />
  <path
     style="fill:#231f20;fill-opacity:1;fill-rule:nonzero;stroke:none"
     d="m 7.6806088,36.855849 c 0.478,0.428 0.724,2.36 1.525,3.756 0.537,0.943 0.8080002,3.676 1.4170002,4.572 0.552,0.823 0.73,1.256 -0.098,2.047 -0.49,0.474 -1.7510002,1.068 -2.1150002,0.714 -0.871,-0.824 -1.24,-1.688 -1.453,-2.734 -0.24,-1.194 -0.604,-4.484 -0.615,-5.099 -0.021,-1.521 -0.489,-2.095 -0.531,-2.495 -0.084,-0.7557 0.187,-0.9744 0.662,-1.1357 0.91,-0.308 1.208,0.3747 1.208,0.3747"
     id="path731" />
  <path
     style="fill:none;stroke:#231f20;stroke-width:0.565977;stroke-linecap:butt;stroke-linejoin:miter;stroke-miterlimit:4;stroke-dasharray:none;stroke-opacity:1"
     d="m 7.6806088,36.855849 c 0.478,0.428 0.724,2.36 1.525,3.756 0.537,0.943 0.8080002,3.676 1.4170002,4.572 0.552,0.823 0.73,1.256 -0.098,2.047 -0.49,0.474 -1.7510002,1.068 -2.1150002,0.714 -0.871,-0.824 -1.24,-1.688 -1.453,-2.734 -0.24,-1.194 -0.604,-4.484 -0.615,-5.099 -0.021,-1.521 -0.489,-2.095 -0.531,-2.495 -0.084,-0.7557 0.187,-0.9744 0.662,-1.1357 0.91,-0.308 1.208,0.3747 1.208,0.3747 z"
     id="path732" />
  <path
     style="fill:#231f20;fill-opacity:1;fill-rule:nonzero;stroke:none"
     d="m 10.081609,45.590849 c 1.281,-0.208 1.229,1.833 1.296,2.364 0.073,0.548 0.443,2.052 0.881,3.193 0.438,1.145 0.499,2.76 1.334,4.932 0.437,1.141 0.14,2.532 -1.543,3.093 -1.667,0.558 -2.6040002,-0.17 -2.9270002,-1.629 -0.322,-1.464 -0.005,-2.975 -0.229,-4.469 -0.219,-1.495 -0.583,-2.995 -0.921,-4.162 -0.391,-1.328 -0.09,-2.13 0.281,-2.432 0.921,-0.76 1.8280002,-0.89 1.8280002,-0.89"
     id="path733" />
  <path
     style="fill:none;stroke:#231f20;stroke-width:0.565977;stroke-linecap:butt;stroke-linejoin:miter;stroke-miterlimit:4;stroke-dasharray:none;stroke-opacity:1"
     d="m 10.081609,45.590849 c 1.281,-0.208 1.229,1.833 1.296,2.364 0.073,0.548 0.443,2.052 0.881,3.193 0.438,1.145 0.499,2.76 1.334,4.932 0.437,1.141 0.14,2.532 -1.543,3.093 -1.667,0.558 -2.6040002,-0.17 -2.9270002,-1.629 -0.322,-1.464 -0.005,-2.975 -0.229,-4.469 -0.219,-1.495 -0.583,-2.995 -0.921,-4.162 -0.391,-1.328 -0.09,-2.13 0.281,-2.432 0.921,-0.76 1.8280002,-0.89 1.8280002,-0.89 z"
     id="path734" />
  <path
     style="fill:#ffffff;fill-opacity:1;fill-rule:nonzero;stroke:none"
     d="m 8.1016088,35.069149 c 0.365,0.964 -0.115,2.0373 -1.072,2.4017 -0.959,0.365 -2.037,-0.115 -2.401,-1.0777 -0.37,-0.9587 0.12,-2.032 1.077,-2.4013 0.959,-0.3654 2.032,0.12 2.396,1.0773"
     id="path735" />
  <path
     style="fill:none;stroke:#231f20;stroke-width:1.33171;stroke-linecap:butt;stroke-linejoin:miter;stroke-miterlimit:4;stroke-dasharray:none;stroke-opacity:1"
     d="m 8.1016088,35.069149 c 0.365,0.964 -0.115,2.0373 -1.072,2.4017 -0.959,0.365 -2.037,-0.115 -2.401,-1.0777 -0.37,-0.9587 0.12,-2.032 1.077,-2.4013 0.959,-0.3654 2.032,0.12 2.396,1.0773 z"
     id="path736" />
</svg>
