<?xml version="1.0" encoding="UTF-8" standalone="no"?>
<!-- Created with Inkscape (http://www.inkscape.org/) -->

<svg
   version="1.1"
   id="svg1"
   width="281.10577"
   height="73.624031"
   viewBox="0 0 281.10576 73.624032"
   sodipodi:docname="cell.svg"
   xmlns:inkscape="http://www.inkscape.org/namespaces/inkscape"
   xmlns:sodipodi="http://sodipodi.sourceforge.net/DTD/sodipodi-0.dtd"
   xmlns="http://www.w3.org/2000/svg"
   xmlns:svg="http://www.w3.org/2000/svg">
  <sodipodi:namedview
     id="namedview1"
     pagecolor="#ffffff"
     bordercolor="#000000"
     borderopacity="0.25"
     inkscape:showpageshadow="2"
     inkscape:pageopacity="0.0"
     inkscape:pagecheckerboard="0"
     inkscape:deskcolor="#d1d1d1">
    <inkscape:page
       x="0"
       y="0"
       inkscape:label="1"
       id="page1"
       width="281.10577"
       height="73.624031"
       margin="0"
       bleed="0" />
  </sodipodi:namedview>
  <defs
     id="defs1" />
  <path
     style="fill:#231f20;fill-opacity:1;fill-rule:nonzero;stroke:none"
     d="m 213.80139,60.950007 c 0.631,-1.193 -0.031,-1.939 -1.057,-2.089 -0.302,-0.052 -0.52,-0.406 -0.818,-0.427 -0.702,-0.041 -1.973,1.151 -1.244,2.464 0.047,0.088 0.214,0.895 0.432,1.473 0.427,1.142 1.828,3.203 4.474,3.694 1.261,0.228 1.161,-0.558 0.688,-0.803 -1.522,-0.781 -1.511,-1.151 -1.828,-1.5 -1.11,-1.193 -0.647,-2.812 -0.647,-2.812"
     id="path96" />
  <path
     style="fill:none;stroke:#231f20;stroke-width:0.332927;stroke-linecap:butt;stroke-linejoin:miter;stroke-miterlimit:4;stroke-dasharray:none;stroke-opacity:1"
     d="m 213.80139,60.950007 c 0.631,-1.193 -0.031,-1.939 -1.057,-2.089 -0.302,-0.052 -0.52,-0.406 -0.818,-0.427 -0.702,-0.041 -1.973,1.151 -1.244,2.464 0.047,0.088 0.214,0.895 0.432,1.473 0.427,1.142 1.828,3.203 4.474,3.694 1.261,0.228 1.161,-0.558 0.688,-0.803 -1.522,-0.781 -1.511,-1.151 -1.828,-1.5 -1.11,-1.193 -0.647,-2.812 -0.647,-2.812 z"
     id="path97" />
  <path
     style="fill:#231f20;fill-opacity:1;fill-rule:nonzero;stroke:none"
     d="m 204.44839,44.699007 c 1.91,-1.213 2.448,-1.197 3.01,-0.416 0.38,0.506 0.906,0.859 1.151,1.162 0.812,1.01 1.771,3.046 2.973,9.51 0.272,1.474 0.667,3.526 0.907,4.354 0.355,1.308 -2.063,1.026 -2.208,0.516 -0.48,-1.651 -0.932,-2.74 -1.193,-3.312 -0.167,-0.391 -0.386,-1.12 -1.244,-2.543 -1.319,-2.161 -2.423,-3.255 -3.303,-5.181 -0.407,-0.896 -1.287,-1.308 -1.235,-2.387 0.038,-1.088 1.142,-1.703 1.142,-1.703"
     id="path98" />
  <path
     style="fill:none;stroke:#231f20;stroke-width:0.565977;stroke-linecap:butt;stroke-linejoin:miter;stroke-miterlimit:4;stroke-dasharray:none;stroke-opacity:1"
     d="m 204.44839,44.699007 c 1.91,-1.213 2.448,-1.197 3.01,-0.416 0.38,0.506 0.906,0.859 1.151,1.162 0.812,1.01 1.771,3.046 2.973,9.51 0.272,1.474 0.667,3.526 0.907,4.354 0.355,1.308 -2.063,1.026 -2.208,0.516 -0.48,-1.651 -0.932,-2.74 -1.193,-3.312 -0.167,-0.391 -0.386,-1.12 -1.244,-2.543 -1.319,-2.161 -2.423,-3.255 -3.303,-5.181 -0.407,-0.896 -1.287,-1.308 -1.235,-2.387 0.038,-1.088 1.142,-1.703 1.142,-1.703 z"
     id="path99" />
  <path
     style="fill:#0098c9;fill-opacity:1;fill-rule:nonzero;stroke:none"
     d="m 192.68839,21.653007 c 2.421,1.989 3.156,2.156 4.036,2.416 5.552,1.625 4.65,4.324 2.442,6.177 -2.588,2.188 -3.474,3.021 -7.932,-1.421 -1.24,-1.24 -6.62,-5.36 -6.62,-5.36 -2.12,-1.213 -3.541,-3.536 -3.406,-4.984 0.141,-1.531 0.198,-0.912 0.584,-2.301 0.374,-1.33 1.948,-2.844 3.176,-2.715 1.182,0.115 1.886,1.625 3.182,3.672 1.032,1.615 4.538,4.516 4.538,4.516"
     id="path100" />
  <path
     style="fill:none;stroke:#231f20;stroke-width:0.565977;stroke-linecap:butt;stroke-linejoin:miter;stroke-miterlimit:4;stroke-dasharray:none;stroke-opacity:1"
     d="m 192.68839,21.653007 c 2.421,1.989 3.156,2.156 4.036,2.416 5.552,1.625 4.65,4.324 2.442,6.177 -2.588,2.188 -3.474,3.021 -7.932,-1.421 -1.24,-1.24 -6.62,-5.36 -6.62,-5.36 -2.12,-1.213 -3.541,-3.536 -3.406,-4.984 0.141,-1.531 0.198,-0.912 0.584,-2.301 0.374,-1.33 1.948,-2.844 3.176,-2.715 1.182,0.115 1.886,1.625 3.182,3.672 1.032,1.615 4.538,4.516 4.538,4.516 z"
     id="path101" />
  <path
     style="fill:#ffffff;fill-opacity:1;fill-rule:nonzero;stroke:none"
     d="m 176.65639,11.908007 c -0.172,-0.176 -1.167,0.39 -1.464,-0.042 -0.291,-0.437 0.234,-1.025 -0.062,-2.9890001 l -0.005,-0.027 c -0.267,-1.432 0.083,-2.776 1.063,-3.552 1.629,-1.296 4.364,-0.552 6.124,1.658 1.761,2.208 1.87,5.0520001 0.245,6.3420001 -1.552,1.24 -4.136,0.61 -5.901,-1.39"
     id="path102" />
  <path
     style="fill:none;stroke:#231f20;stroke-width:0.565977;stroke-linecap:butt;stroke-linejoin:miter;stroke-miterlimit:4;stroke-dasharray:none;stroke-opacity:1"
     d="m 176.65639,11.908007 c -0.172,-0.176 -1.167,0.39 -1.464,-0.042 -0.291,-0.437 0.234,-1.025 -0.062,-2.9890001 l -0.005,-0.027 c -0.267,-1.432 0.083,-2.776 1.063,-3.552 1.629,-1.296 4.364,-0.552 6.124,1.658 1.761,2.208 1.87,5.0520001 0.245,6.3420001 -1.552,1.24 -4.136,0.61 -5.901,-1.39 z"
     id="path103" />
  <path
     style="fill:#231f20;fill-opacity:1;fill-rule:nonzero;stroke:none"
     d="m 206.21339,46.423007 c -3.188,2.438 -3.948,-1.573 -4.24,-1.953 -3.052,-3.968 -3.172,-4.339 -5.285,-7.515 -3.058,-4.61 -4.443,-8.234 -2.282,-10.797 1.463,-1.729 3.062,-2.099 4.312,-1.683 1.38,0.464 3.588,2.751 2.902,5.558 l 0.541,1.63 c 0.495,1.047 0.735,1.568 1.021,2.068 0.5,0.87 0.984,1.828 1.864,3.578 1.563,3.098 2.199,6.885 2.199,6.885 0.536,1.131 -1.032,2.229 -1.032,2.229"
     id="path104" />
  <path
     style="fill:none;stroke:#231f20;stroke-width:0.565977;stroke-linecap:butt;stroke-linejoin:miter;stroke-miterlimit:4;stroke-dasharray:none;stroke-opacity:1"
     d="m 206.21339,46.423007 c -3.188,2.438 -3.948,-1.573 -4.24,-1.953 -3.052,-3.968 -3.172,-4.339 -5.285,-7.515 -3.058,-4.61 -4.443,-8.234 -2.282,-10.797 1.463,-1.729 3.062,-2.099 4.312,-1.683 1.38,0.464 3.588,2.751 2.902,5.558 l 0.541,1.63 c 0.495,1.047 0.735,1.568 1.021,2.068 0.5,0.87 0.984,1.828 1.864,3.578 1.563,3.098 2.199,6.885 2.199,6.885 0.536,1.131 -1.032,2.229 -1.032,2.229 z"
     id="path105" />
  <path
     style="fill:#0098c9;fill-opacity:1;fill-rule:nonzero;stroke:none"
     d="m 199.30639,24.678007 c -1.161,-0.619 -2.796,-0.525 -4.53,0.944 -1.126,0.947 -1.588,2.224 -1.584,3.776 -0.224,1.02 -0.338,1.64 0.193,2.255 0.047,0.057 0.088,0.125 0.131,0.193 0.14,0.567 0.301,1.156 0.514,1.776 l 7.219,-2.985 c 1.147,-2.646 -0.651,-5.276 -1.943,-5.959"
     id="path106" />
  <path
     style="fill:none;stroke:#231f20;stroke-width:0.565977;stroke-linecap:butt;stroke-linejoin:miter;stroke-miterlimit:4;stroke-dasharray:none;stroke-opacity:1"
     d="m 199.30639,24.678007 c -1.161,-0.619 -2.796,-0.525 -4.53,0.944 -1.126,0.947 -1.588,2.224 -1.584,3.776 -0.224,1.02 -0.338,1.64 0.193,2.255 0.047,0.057 0.088,0.125 0.131,0.193 0.14,0.567 0.301,1.156 0.514,1.776 l 7.219,-2.985 c 1.147,-2.646 -0.651,-5.276 -1.943,-5.959 z"
     id="path107" />
  <path
     style="fill:#231f20;fill-opacity:1;fill-rule:nonzero;stroke:none"
     d="m 191.66639,34.861007 c 0.203,-0.61 -0.541,-2.411 -0.541,-4.02 0,-1.084 -1.131,-3.59 -1.043,-4.672 0.068,-0.99 0.011,-1.454 -1.109,-1.73 -0.661,-0.161 -2.041,-0.052 -2.187,0.438 -0.344,1.14 -0.234,2.082 0.099,3.093 0.391,1.156 1.708,4.193 2.005,4.729 0.74,1.328 0.615,2.058 0.782,2.427 0.301,0.704 0.64,0.756 1.14,0.663 0.937,-0.188 0.854,-0.928 0.854,-0.928"
     id="path108" />
  <path
     style="fill:none;stroke:#231f20;stroke-width:0.565977;stroke-linecap:butt;stroke-linejoin:miter;stroke-miterlimit:4;stroke-dasharray:none;stroke-opacity:1"
     d="m 191.66639,34.861007 c 0.203,-0.61 -0.541,-2.411 -0.541,-4.02 0,-1.084 -1.131,-3.59 -1.043,-4.672 0.068,-0.99 0.011,-1.454 -1.109,-1.73 -0.661,-0.161 -2.041,-0.052 -2.187,0.438 -0.344,1.14 -0.234,2.082 0.099,3.093 0.391,1.156 1.708,4.193 2.005,4.729 0.74,1.328 0.615,2.058 0.782,2.427 0.301,0.704 0.64,0.756 1.14,0.663 0.937,-0.188 0.854,-0.928 0.854,-0.928 z"
     id="path109" />
  <path
     style="fill:#231f20;fill-opacity:1;fill-rule:nonzero;stroke:none"
     d="m 189.41039,26.085007 c 1.215,-0.459 0.158,-2.203 -0.052,-2.698 -0.208,-0.505 -0.634,-1.999 -0.817,-3.207 -0.192,-1.21 -0.937,-2.636 -1.296,-4.939 -0.188,-1.213 -1.136,-2.265 -2.881,-1.916 -1.719,0.339 -2.172,1.437 -1.724,2.869 0.448,1.428 1.469,2.574 2.021,3.986 0.552,1.405 0.984,2.894 1.265,4.077 0.323,1.344 0.986,1.885 1.454,1.969 1.182,0.192 2.03,-0.141 2.03,-0.141"
     id="path110" />
  <path
     style="fill:none;stroke:#231f20;stroke-width:0.565977;stroke-linecap:butt;stroke-linejoin:miter;stroke-miterlimit:4;stroke-dasharray:none;stroke-opacity:1"
     d="m 189.41039,26.085007 c 1.215,-0.459 0.158,-2.203 -0.052,-2.698 -0.208,-0.505 -0.634,-1.999 -0.817,-3.207 -0.192,-1.21 -0.937,-2.636 -1.296,-4.939 -0.188,-1.213 -1.136,-2.265 -2.881,-1.916 -1.719,0.339 -2.172,1.437 -1.724,2.869 0.448,1.428 1.469,2.574 2.021,3.986 0.552,1.405 0.984,2.894 1.265,4.077 0.323,1.344 0.986,1.885 1.454,1.969 1.182,0.192 2.03,-0.141 2.03,-0.141 z"
     id="path111" />
  <path
     style="fill:#ffffff;fill-opacity:1;fill-rule:nonzero;stroke:none"
     d="m 189.19239,37.549007 c 0.062,-1.027 0.948,-1.803 1.969,-1.74 1.027,0.068 1.807,0.953 1.74,1.98 -0.063,1.025 -0.948,1.801 -1.975,1.733 -1.025,-0.063 -1.801,-0.948 -1.734,-1.973"
     id="path112" />
  <path
     style="fill:none;stroke:#231f20;stroke-width:1.33171;stroke-linecap:butt;stroke-linejoin:miter;stroke-miterlimit:4;stroke-dasharray:none;stroke-opacity:1"
     d="m 189.19239,37.549007 c 0.062,-1.027 0.948,-1.803 1.969,-1.74 1.027,0.068 1.807,0.953 1.74,1.98 -0.063,1.025 -0.948,1.801 -1.975,1.733 -1.025,-0.063 -1.801,-0.948 -1.734,-1.973 z"
     id="path113" />
  <path
     style="fill:#231f20;fill-opacity:1;fill-rule:nonzero;stroke:none"
     d="m 148.86439,5.8500069 c -1.031,0.871 -0.698,1.808 0.193,2.334 0.271,0.161 0.333,0.568 0.604,0.698 0.636,0.302 2.26,-0.328 2.073,-1.817 -0.01,-0.105 0.135,-0.912 0.151,-1.527 0.036,-1.218 -0.489,-3.656 -2.771,-5.09799995 -1.073,-0.683 -1.276,0.077 -0.932,0.484 1.119,1.29699995 0.968,1.62999995 1.135,2.07799995 0.584,1.515 -0.453,2.848 -0.453,2.848"
     id="path114" />
  <path
     style="fill:none;stroke:#231f20;stroke-width:0.332927;stroke-linecap:butt;stroke-linejoin:miter;stroke-miterlimit:4;stroke-dasharray:none;stroke-opacity:1"
     d="m 148.86439,5.8500069 c -1.031,0.871 -0.698,1.808 0.193,2.334 0.271,0.161 0.333,0.568 0.604,0.698 0.636,0.302 2.26,-0.328 2.073,-1.817 -0.01,-0.105 0.135,-0.912 0.151,-1.527 0.036,-1.218 -0.489,-3.656 -2.771,-5.09799995 -1.073,-0.683 -1.276,0.077 -0.932,0.484 1.119,1.29699995 0.968,1.62999995 1.135,2.07799995 0.584,1.515 -0.453,2.848 -0.453,2.848 z"
     id="path115" />
  <path
     style="fill:#231f20;fill-opacity:1;fill-rule:nonzero;stroke:none"
     d="m 151.46439,24.418007 c -2.235,0.417 -2.724,0.193 -2.954,-0.74 -0.161,-0.619 -0.516,-1.14 -0.636,-1.509 -0.374,-1.245 -0.5,-3.485 0.803,-9.933 0.296,-1.463 0.692,-3.5150001 0.796,-4.3800001 0.152,-1.343 2.287,-0.178 2.229,0.354 -0.172,1.708 -0.156,2.8910001 -0.129,3.5160001 0.009,0.427 -0.063,1.182 0.203,2.828 0.412,2.495 1.025,3.927 1.12,6.036 0.057,0.984 0.713,1.694 0.254,2.677 -0.437,0.995 -1.686,1.151 -1.686,1.151"
     id="path116" />
  <path
     style="fill:none;stroke:#231f20;stroke-width:0.565977;stroke-linecap:butt;stroke-linejoin:miter;stroke-miterlimit:4;stroke-dasharray:none;stroke-opacity:1"
     d="m 151.46439,24.418007 c -2.235,0.417 -2.724,0.193 -2.954,-0.74 -0.161,-0.619 -0.516,-1.14 -0.636,-1.509 -0.374,-1.245 -0.5,-3.485 0.803,-9.933 0.296,-1.463 0.692,-3.5150001 0.796,-4.3800001 0.152,-1.343 2.287,-0.178 2.229,0.354 -0.172,1.708 -0.156,2.8910001 -0.129,3.5160001 0.009,0.427 -0.063,1.182 0.203,2.828 0.412,2.495 1.025,3.927 1.12,6.036 0.057,0.984 0.713,1.694 0.254,2.677 -0.437,0.995 -1.686,1.151 -1.686,1.151 z"
     id="path117" />
  <path
     style="fill:#0098c9;fill-opacity:1;fill-rule:nonzero;stroke:none"
     d="m 153.12539,51.065007 c -1.24,-2.882 -1.819,-3.36 -2.485,-3.996 -4.187,-3.995 -2.151,-5.968 0.666,-6.61 3.303,-0.754 4.47,-1.093 6.396,4.902 0.538,1.666 3.423,7.797 3.423,7.797 1.328,2.052 1.525,4.765 0.744,5.995 -0.828,1.292 -0.593,0.713 -1.577,1.77 -0.934,1.011 -3.038,1.636 -4.068,0.959 -1,-0.641 -0.927,-2.308 -1.142,-4.724 -0.17,-1.907 -1.957,-6.093 -1.957,-6.093"
     id="path118" />
  <path
     style="fill:none;stroke:#231f20;stroke-width:0.565977;stroke-linecap:butt;stroke-linejoin:miter;stroke-miterlimit:4;stroke-dasharray:none;stroke-opacity:1"
     d="m 153.12539,51.065007 c -1.24,-2.882 -1.819,-3.36 -2.485,-3.996 -4.187,-3.995 -2.151,-5.968 0.666,-6.61 3.303,-0.754 4.47,-1.093 6.396,4.902 0.538,1.666 3.423,7.797 3.423,7.797 1.328,2.052 1.525,4.765 0.744,5.995 -0.828,1.292 -0.593,0.713 -1.577,1.77 -0.934,1.011 -3.038,1.636 -4.068,0.959 -1,-0.641 -0.927,-2.308 -1.142,-4.724 -0.17,-1.907 -1.957,-6.093 -1.957,-6.093 z"
     id="path119" />
  <path
     style="fill:#ffffff;fill-opacity:1;fill-rule:nonzero;stroke:none"
     d="m 162.84439,67.549007 c 0.025,0.24 1.166,0.401 1.134,0.921 -0.03,0.532 -0.806,0.672 -1.77,2.417 l -0.006,0.015 c -0.666,1.297 -1.754,2.157 -3.01,2.183 -2.078,0.037 -3.802,-2.219 -3.854,-5.042 -0.052,-2.828 1.588,-5.145 3.667,-5.182 1.984,-0.047 3.651,2.032 3.839,4.688"
     id="path120" />
  <path
     style="fill:none;stroke:#231f20;stroke-width:0.565977;stroke-linecap:butt;stroke-linejoin:miter;stroke-miterlimit:4;stroke-dasharray:none;stroke-opacity:1"
     d="m 162.84439,67.549007 c 0.025,0.24 1.166,0.401 1.134,0.921 -0.03,0.532 -0.806,0.672 -1.77,2.417 l -0.006,0.015 c -0.666,1.297 -1.754,2.157 -3.01,2.183 -2.078,0.037 -3.802,-2.219 -3.854,-5.042 -0.052,-2.828 1.588,-5.145 3.667,-5.182 1.984,-0.047 3.651,2.032 3.839,4.688 z"
     id="path121" />
  <path
     style="fill:#231f20;fill-opacity:1;fill-rule:nonzero;stroke:none"
     d="m 150.46839,22.153007 c 3.87,-1.057 3.068,2.942 3.198,3.401 1.35,4.828 1.318,5.208 2.088,8.948 1.115,5.416 1.038,9.296 -1.916,10.864 -2.01,1.063 -3.625,0.808 -4.636,-0.047 -1.098,-0.948 -2.296,-3.896 -0.609,-6.245 l 0.115,-1.708 c -0.074,-1.156 -0.099,-1.74 -0.178,-2.301 -0.14,-0.996 -0.233,-2.068 -0.39,-4.016 -0.291,-3.459 0.537,-7.214 0.537,-7.214 -0.073,-1.245 1.791,-1.682 1.791,-1.682"
     id="path122" />
  <path
     style="fill:none;stroke:#231f20;stroke-width:0.565977;stroke-linecap:butt;stroke-linejoin:miter;stroke-miterlimit:4;stroke-dasharray:none;stroke-opacity:1"
     d="m 150.46839,22.153007 c 3.87,-1.057 3.068,2.942 3.198,3.401 1.35,4.828 1.318,5.208 2.088,8.948 1.115,5.416 1.038,9.296 -1.916,10.864 -2.01,1.063 -3.625,0.808 -4.636,-0.047 -1.098,-0.948 -2.296,-3.896 -0.609,-6.245 l 0.115,-1.708 c -0.074,-1.156 -0.099,-1.74 -0.178,-2.301 -0.14,-0.996 -0.233,-2.068 -0.39,-4.016 -0.291,-3.459 0.537,-7.214 0.537,-7.214 -0.073,-1.245 1.791,-1.682 1.791,-1.682 z"
     id="path123" />
  <path
     style="fill:#0098c9;fill-opacity:1;fill-rule:nonzero;stroke:none"
     d="m 156.83839,40.653007 c -0.021,-0.068 -0.037,-0.146 -0.052,-0.224 0.088,-0.579 0.156,-1.183 0.192,-1.839 l -7.817,0.057 c -2.052,2.031 -1.36,5.146 -0.427,6.26 0.854,1.016 2.4,1.538 4.558,0.824 1.396,-0.464 2.301,-1.474 2.88,-2.912 0.588,-0.864 0.926,-1.401 0.666,-2.166"
     id="path124" />
  <path
     style="fill:none;stroke:#231f20;stroke-width:0.565977;stroke-linecap:butt;stroke-linejoin:miter;stroke-miterlimit:4;stroke-dasharray:none;stroke-opacity:1"
     d="m 156.83839,40.653007 c -0.021,-0.068 -0.037,-0.146 -0.052,-0.224 0.088,-0.579 0.156,-1.183 0.192,-1.839 l -7.817,0.057 c -2.052,2.031 -1.36,5.146 -0.427,6.26 0.854,1.016 2.4,1.538 4.558,0.824 1.396,-0.464 2.301,-1.474 2.88,-2.912 0.588,-0.864 0.926,-1.401 0.666,-2.166 z"
     id="path125" />
  <path
     style="fill:#231f20;fill-opacity:1;fill-rule:nonzero;stroke:none"
     d="m 156.75439,38.913007 c -0.338,0.552 -0.02,2.469 -0.39,4.037 -0.244,1.057 0.276,3.755 -0.047,4.785 -0.296,0.948 -0.344,1.412 0.683,1.934 0.604,0.317 1.978,0.525 2.229,0.077 0.599,-1.031 0.708,-1.973 0.609,-3.036 -0.114,-1.208 -0.704,-4.469 -0.87,-5.057 -0.416,-1.464 -0.13,-2.151 -0.208,-2.542 -0.135,-0.75 -0.459,-0.885 -0.959,-0.901 -0.957,-0.036 -1.047,0.703 -1.047,0.703"
     id="path126" />
  <path
     style="fill:none;stroke:#231f20;stroke-width:0.565977;stroke-linecap:butt;stroke-linejoin:miter;stroke-miterlimit:4;stroke-dasharray:none;stroke-opacity:1"
     d="m 156.75439,38.913007 c -0.338,0.552 -0.02,2.469 -0.39,4.037 -0.244,1.057 0.276,3.755 -0.047,4.785 -0.296,0.948 -0.344,1.412 0.683,1.934 0.604,0.317 1.978,0.525 2.229,0.077 0.599,-1.031 0.708,-1.973 0.609,-3.036 -0.114,-1.208 -0.704,-4.469 -0.87,-5.057 -0.416,-1.464 -0.13,-2.151 -0.208,-2.542 -0.135,-0.75 -0.459,-0.885 -0.959,-0.901 -0.957,-0.036 -1.047,0.703 -1.047,0.703 z"
     id="path127" />
  <path
     style="fill:#231f20;fill-opacity:1;fill-rule:nonzero;stroke:none"
     d="m 156.94839,47.970007 c -1.282,0.172 -0.651,2.109 -0.563,2.636 0.088,0.541 0.161,2.099 0.068,3.317 -0.095,1.219 0.312,2.782 0.135,5.099 -0.094,1.224 0.589,2.469 2.365,2.527 1.749,0.057 2.448,-0.907 2.333,-2.396 -0.104,-1.5 -0.844,-2.855 -1.057,-4.35 -0.219,-1.494 -0.297,-3.041 -0.308,-4.254 -0.005,-1.38 -0.525,-2.063 -0.963,-2.246 -1.1,-0.468 -2.01,-0.333 -2.01,-0.333"
     id="path128" />
  <path
     style="fill:none;stroke:#231f20;stroke-width:0.565977;stroke-linecap:butt;stroke-linejoin:miter;stroke-miterlimit:4;stroke-dasharray:none;stroke-opacity:1"
     d="m 156.94839,47.970007 c -1.282,0.172 -0.651,2.109 -0.563,2.636 0.088,0.541 0.161,2.099 0.068,3.317 -0.095,1.219 0.312,2.782 0.135,5.099 -0.094,1.224 0.589,2.469 2.365,2.527 1.749,0.057 2.448,-0.907 2.333,-2.396 -0.104,-1.5 -0.844,-2.855 -1.057,-4.35 -0.219,-1.494 -0.297,-3.041 -0.308,-4.254 -0.005,-1.38 -0.525,-2.063 -0.963,-2.246 -1.1,-0.468 -2.01,-0.333 -2.01,-0.333 z"
     id="path129" />
  <path
     style="fill:#ffffff;fill-opacity:1;fill-rule:nonzero;stroke:none"
     d="m 155.83839,37.325007 c -0.078,1.025 0.692,1.916 1.714,1.994 1.026,0.074 1.921,-0.697 1.994,-1.718 0.079,-1.027 -0.692,-1.918 -1.718,-1.995 -1.027,-0.079 -1.916,0.692 -1.99,1.719"
     id="path130" />
  <path
     style="fill:none;stroke:#231f20;stroke-width:1.33171;stroke-linecap:butt;stroke-linejoin:miter;stroke-miterlimit:4;stroke-dasharray:none;stroke-opacity:1"
     d="m 155.83839,37.325007 c -0.078,1.025 0.692,1.916 1.714,1.994 1.026,0.074 1.921,-0.697 1.994,-1.718 0.079,-1.027 -0.692,-1.918 -1.718,-1.995 -1.027,-0.079 -1.916,0.692 -1.99,1.719 z"
     id="path131" />
  <path
     style="fill:#231f20;fill-opacity:1;fill-rule:nonzero;stroke:none"
     d="m 112.84939,22.153007 c -0.666,-1.177 -1.646,-1.021 -2.328,-0.24 -0.209,0.229 -0.62,0.219 -0.797,0.464 -0.417,0.568 -0.093,2.276 1.401,2.374 0.11,0.006 0.87,0.298 1.474,0.428 1.193,0.26 3.682,0.192 5.526,-1.777 0.864,-0.932 0.156,-1.276 -0.308,-1.009 -1.478,0.858 -1.781,0.65 -2.254,0.729 -1.595,0.296 -2.714,-0.969 -2.714,-0.969"
     id="path132" />
  <path
     style="fill:none;stroke:#231f20;stroke-width:0.332927;stroke-linecap:butt;stroke-linejoin:miter;stroke-miterlimit:4;stroke-dasharray:none;stroke-opacity:1"
     d="m 112.84939,22.153007 c -0.666,-1.177 -1.646,-1.021 -2.328,-0.24 -0.209,0.229 -0.62,0.219 -0.797,0.464 -0.417,0.568 -0.093,2.276 1.401,2.374 0.11,0.006 0.87,0.298 1.474,0.428 1.193,0.26 3.682,0.192 5.526,-1.777 0.864,-0.932 0.156,-1.276 -0.308,-1.009 -1.478,0.858 -1.781,0.65 -2.254,0.729 -1.595,0.296 -2.714,-0.969 -2.714,-0.969 z"
     id="path133" />
  <path
     style="fill:#231f20;fill-opacity:1;fill-rule:nonzero;stroke:none"
     d="m 94.120389,21.278007 c 0.005,-2.27 0.312,-2.709 1.271,-2.765 0.64,-0.043 1.218,-0.303 1.598,-0.344 1.298,-0.141 3.522001,0.151 9.620001,2.62 1.386,0.561 3.328,1.333 4.156,1.593 1.292,0.396 -0.249,2.281 -0.76,2.125 -1.646,-0.485 -2.813,-0.688 -3.426,-0.776 -0.428,-0.068 -1.158,-0.286 -2.824,-0.324 -2.526,-0.057 -4.047001,0.282 -6.140001,-0.009 -0.975,-0.136 -1.792,0.38 -2.678,-0.245 -0.89,-0.62 -0.817,-1.875 -0.817,-1.875"
     id="path134" />
  <path
     style="fill:none;stroke:#231f20;stroke-width:0.565977;stroke-linecap:butt;stroke-linejoin:miter;stroke-miterlimit:4;stroke-dasharray:none;stroke-opacity:1"
     d="m 94.120389,21.278007 c 0.005,-2.27 0.312,-2.709 1.271,-2.765 0.64,-0.043 1.218,-0.303 1.598,-0.344 1.298,-0.141 3.522001,0.151 9.620001,2.62 1.386,0.561 3.328,1.333 4.156,1.593 1.292,0.396 -0.249,2.281 -0.76,2.125 -1.646,-0.485 -2.813,-0.688 -3.426,-0.776 -0.428,-0.068 -1.158,-0.286 -2.824,-0.324 -2.526,-0.057 -4.047001,0.282 -6.140001,-0.009 -0.975,-0.136 -1.792,0.38 -2.678,-0.245 -0.89,-0.62 -0.817,-1.875 -0.817,-1.875 z"
     id="path135" />
  <path
     style="fill:#0098c9;fill-opacity:1;fill-rule:nonzero;stroke:none"
     d="m 68.760389,15.132007 c 3.131,0.146 3.813,-0.167 4.683,-0.49 5.416,-2.016 6.301,0.678 5.65,3.49 -0.765,3.297 -0.973,4.499 -7.208,3.614 -1.734,-0.249 -8.505,-0.333 -8.505,-0.333 -2.426,0.297 -4.959,-0.708 -5.719,-1.948 -0.802,-1.312 -0.385,-0.848 -0.906,-2.197 -0.5,-1.282 -0.141,-3.443 0.917,-4.079 1.016,-0.615 2.484,0.177 4.749,1.037 1.787,0.682 6.339,0.906 6.339,0.906"
     id="path136" />
  <path
     style="fill:none;stroke:#231f20;stroke-width:0.565977;stroke-linecap:butt;stroke-linejoin:miter;stroke-miterlimit:4;stroke-dasharray:none;stroke-opacity:1"
     d="m 68.760389,15.132007 c 3.131,0.146 3.813,-0.167 4.683,-0.49 5.416,-2.016 6.301,0.678 5.65,3.49 -0.765,3.297 -0.973,4.499 -7.208,3.614 -1.734,-0.249 -8.505,-0.333 -8.505,-0.333 -2.426,0.297 -4.959,-0.708 -5.719,-1.948 -0.802,-1.312 -0.385,-0.848 -0.906,-2.197 -0.5,-1.282 -0.141,-3.443 0.917,-4.079 1.016,-0.615 2.484,0.177 4.749,1.037 1.787,0.682 6.339,0.906 6.339,0.906 z"
     id="path137" />
  <path
     style="fill:#ffffff;fill-opacity:1;fill-rule:nonzero;stroke:none"
     d="m 49.683389,16.669007 c -0.229,-0.084 -0.871,0.875 -1.324,0.62 -0.463,-0.261 -0.255,-1.027 -1.4,-2.652 l -0.011,-0.015 c -0.88,-1.162 -1.177,-2.516 -0.646,-3.657 0.87,-1.8850001 3.657,-2.4480001 6.219,-1.2600001 2.562,1.1880001 3.933,3.6720001 3.058,5.5570001 -0.83,1.807 -3.428,2.402 -5.896,1.407"
     id="path138" />
  <path
     style="fill:none;stroke:#231f20;stroke-width:0.565977;stroke-linecap:butt;stroke-linejoin:miter;stroke-miterlimit:4;stroke-dasharray:none;stroke-opacity:1"
     d="m 49.683389,16.669007 c -0.229,-0.084 -0.871,0.875 -1.324,0.62 -0.463,-0.261 -0.255,-1.027 -1.4,-2.652 l -0.011,-0.015 c -0.88,-1.162 -1.177,-2.516 -0.646,-3.657 0.87,-1.8850001 3.657,-2.4480001 6.219,-1.2600001 2.562,1.1880001 3.933,3.6720001 3.058,5.5570001 -0.83,1.807 -3.428,2.402 -5.896,1.407 z"
     id="path139" />
  <path
     style="fill:#231f20;fill-opacity:1;fill-rule:nonzero;stroke:none"
     d="m 96.531389,20.721007 c 0.328,3.994 -3.458,2.468 -3.932,2.51 -4.995,0.432 -5.364,0.334 -9.183,0.4 -5.531,0.095 -9.328,-0.692 -10.323,-3.89 -0.672,-2.167 -0.12,-3.713 0.902,-4.547 1.14,-0.905 4.254,-1.536 6.25,0.558 l 1.662,0.422 c 1.15,0.146 1.724,0.228 2.29,0.26 1.006,0.042 2.079,0.151 4.022,0.35 3.453,0.358 6.994,1.864 6.994,1.864 1.235,0.156 1.318,2.073 1.318,2.073"
     id="path140" />
  <path
     style="fill:none;stroke:#231f20;stroke-width:0.565977;stroke-linecap:butt;stroke-linejoin:miter;stroke-miterlimit:4;stroke-dasharray:none;stroke-opacity:1"
     d="m 96.531389,20.721007 c 0.328,3.994 -3.458,2.468 -3.932,2.51 -4.995,0.432 -5.364,0.334 -9.183,0.4 -5.531,0.095 -9.328,-0.692 -10.323,-3.89 -0.672,-2.167 -0.12,-3.713 0.902,-4.547 1.14,-0.905 4.254,-1.536 6.25,0.558 l 1.662,0.422 c 1.15,0.146 1.724,0.228 2.29,0.26 1.006,0.042 2.079,0.151 4.022,0.35 3.453,0.358 6.994,1.864 6.994,1.864 1.235,0.156 1.318,2.073 1.318,2.073 z"
     id="path141" />
  <path
     style="fill:#0098c9;fill-opacity:1;fill-rule:nonzero;stroke:#231f20;stroke-width:0.565977;stroke-linecap:butt;stroke-linejoin:miter;stroke-miterlimit:4;stroke-dasharray:none;stroke-opacity:1"
     d="m 80.557389,16.388007 c -1.614,-2.391 -4.802,-2.287 -6.073,-1.574 -1.151,0.646 -1.948,2.074 -1.646,4.323 0.198,1.459 1.026,2.541 2.334,3.376 0.735,0.733 1.203,1.165 2,1.052 0.068,-0.011 0.146,-0.011 0.224,-0.011 0.557,0.192 1.14,0.369 1.776,0.525 z"
     id="path142" />
  <path
     style="fill:#231f20;fill-opacity:1;fill-rule:nonzero;stroke:none"
     d="m 55.214389,36.298007 c 0.494,-0.405 0.833,-2.317 1.698,-3.676 0.583,-0.917 0.979,-3.636 1.63,-4.505 0.589,-0.792 0.791,-1.215 -0.006,-2.048 -0.468,-0.495 -1.692,-1.146 -2.077,-0.812 -0.907,0.781 -1.319,1.63 -1.579,2.666 -0.292,1.178 -0.812,4.448 -0.855,5.063 -0.088,1.521 -0.582,2.068 -0.645,2.469 -0.12,0.75 0.141,0.984 0.61,1.167 0.895,0.348 1.224,-0.324 1.224,-0.324"
     id="path143" />
  <path
     style="fill:none;stroke:#231f20;stroke-width:0.565977;stroke-linecap:butt;stroke-linejoin:miter;stroke-miterlimit:4;stroke-dasharray:none;stroke-opacity:1"
     d="m 55.214389,36.298007 c 0.494,-0.405 0.833,-2.317 1.698,-3.676 0.583,-0.917 0.979,-3.636 1.63,-4.505 0.589,-0.792 0.791,-1.215 -0.006,-2.048 -0.468,-0.495 -1.692,-1.146 -2.077,-0.812 -0.907,0.781 -1.319,1.63 -1.579,2.666 -0.292,1.178 -0.812,4.448 -0.855,5.063 -0.088,1.521 -0.582,2.068 -0.645,2.469 -0.12,0.75 0.141,0.984 0.61,1.167 0.895,0.348 1.224,-0.324 1.224,-0.324 z"
     id="path144" />
  <path
     style="fill:#231f20;fill-opacity:1;fill-rule:nonzero;stroke:none"
     d="m 58.021389,27.689007 c 1.271,0.266 1.312,-1.776 1.405,-2.302 0.095,-0.541 0.538,-2.032 1.028,-3.151 0.494,-1.119 0.629,-2.728 1.562,-4.859 0.489,-1.12 0.26,-2.527 -1.396,-3.167 -1.636,-0.63 -2.609,0.052 -2.995,1.495 -0.395,1.448 -0.146,2.969 -0.437,4.453 -0.292,1.484 -0.724,2.968 -1.12,4.115 -0.454,1.306 -0.188,2.12 0.167,2.437 0.885,0.807 1.786,0.979 1.786,0.979"
     id="path145" />
  <path
     style="fill:none;stroke:#231f20;stroke-width:0.565977;stroke-linecap:butt;stroke-linejoin:miter;stroke-miterlimit:4;stroke-dasharray:none;stroke-opacity:1"
     d="m 58.021389,27.689007 c 1.271,0.266 1.312,-1.776 1.405,-2.302 0.095,-0.541 0.538,-2.032 1.028,-3.151 0.494,-1.119 0.629,-2.728 1.562,-4.859 0.489,-1.12 0.26,-2.527 -1.396,-3.167 -1.636,-0.63 -2.609,0.052 -2.995,1.495 -0.395,1.448 -0.146,2.969 -0.437,4.453 -0.292,1.484 -0.724,2.968 -1.12,4.115 -0.454,1.306 -0.188,2.12 0.167,2.437 0.885,0.807 1.786,0.979 1.786,0.979 z"
     id="path146" />
  <path
     style="fill:#ffffff;fill-opacity:1;fill-rule:nonzero;stroke:none"
     d="m 55.552389,38.106007 c 0.412,-0.943 -0.021,-2.037 -0.964,-2.448 -0.943,-0.412 -2.041,0.02 -2.448,0.959 -0.41,0.942 0.021,2.041 0.964,2.452 0.943,0.412 2.036,-0.02 2.448,-0.963"
     id="path147" />
  <path
     style="fill:none;stroke:#231f20;stroke-width:1.33171;stroke-linecap:butt;stroke-linejoin:miter;stroke-miterlimit:4;stroke-dasharray:none;stroke-opacity:1"
     d="m 55.552389,38.106007 c 0.412,-0.943 -0.021,-2.037 -0.964,-2.448 -0.943,-0.412 -2.041,0.02 -2.448,0.959 -0.41,0.942 0.021,2.041 0.964,2.452 0.943,0.412 2.036,-0.02 2.448,-0.963 z"
     id="path148" />
  <path
     style="fill:#231f20;fill-opacity:1;fill-rule:nonzero;stroke:none"
     d="m 4.1405889,68.387007 c 1.3442,-0.156 1.5838,-1.125 1.1254,-2.052 -0.1306,-0.281 0.036,-0.657 -0.1145,-0.917 -0.3641,-0.609 -2.063,-0.973 -2.7349,0.371 -0.0468,0.093 -0.6187,0.681 -0.9683,1.186 -0.69839997,1 -1.61449997,3.318 -0.51039997,5.787 0.52139997,1.161 1.11469997,0.636 1.04699997,0.104 -0.2136,-1.697 0.0984,-1.891 0.2077,-2.359 0.3496,-1.584 1.948,-2.12 1.948,-2.12"
     id="path149" />
  <path
     style="fill:none;stroke:#231f20;stroke-width:0.332927;stroke-linecap:butt;stroke-linejoin:miter;stroke-miterlimit:4;stroke-dasharray:none;stroke-opacity:1"
     d="m 4.1405889,68.387007 c 1.3442,-0.156 1.5838,-1.125 1.1254,-2.052 -0.1306,-0.281 0.036,-0.657 -0.1145,-0.917 -0.3641,-0.609 -2.063,-0.973 -2.7349,0.371 -0.0468,0.093 -0.6187,0.681 -0.9683,1.186 -0.69839997,1 -1.61449997,3.318 -0.51039997,5.787 0.52139997,1.161 1.11469997,0.636 1.04699997,0.104 -0.2136,-1.697 0.0984,-1.891 0.2077,-2.359 0.3496,-1.584 1.948,-2.12 1.948,-2.12 z"
     id="path150" />
  <path
     style="fill:#231f20;fill-opacity:1;fill-rule:nonzero;stroke:none"
     d="m 12.235389,51.470007 c 2.0828,0.891 2.3692,1.344 2.052,2.251 -0.2094,0.604 -0.199,1.234 -0.3083,1.604 -0.3693,1.244 -1.5104,3.188 -6.1557001,7.844 -1.0522,1.052 -2.5214,2.546 -3.0787,3.208 -0.8749,1.036 -2.0041,-1.12 -1.6666,-1.531 1.089,-1.324 1.724,-2.319 2.0531,-2.855 0.2239,-0.365 0.7078,-0.948 1.3906,-2.474 1.036,-2.302 1.3172,-3.839 2.4,-5.651 0.5,-0.849 0.3442,-1.797 1.2666001,-2.369 0.9162,-0.584 2.047,-0.027 2.047,-0.027"
     id="path151" />
  <path
     style="fill:none;stroke:#231f20;stroke-width:0.565977;stroke-linecap:butt;stroke-linejoin:miter;stroke-miterlimit:4;stroke-dasharray:none;stroke-opacity:1"
     d="m 12.235389,51.470007 c 2.0828,0.891 2.3692,1.344 2.052,2.251 -0.2094,0.604 -0.199,1.234 -0.3083,1.604 -0.3693,1.244 -1.5104,3.188 -6.1557001,7.844 -1.0522,1.052 -2.5214,2.546 -3.0787,3.208 -0.8749,1.036 -2.0041,-1.12 -1.6666,-1.531 1.089,-1.324 1.724,-2.319 2.0531,-2.855 0.2239,-0.365 0.7078,-0.948 1.3906,-2.474 1.036,-2.302 1.3172,-3.839 2.4,-5.651 0.5,-0.849 0.3442,-1.797 1.2666001,-2.369 0.9162,-0.584 2.047,-0.027 2.047,-0.027 z"
     id="path152" />
  <path
     style="fill:#0098c9;fill-opacity:1;fill-rule:nonzero;stroke:none"
     d="m 18.355089,27.970007 c 2.0828,2.339 2.7854,2.615 3.6188,3.005 5.2349,2.459 3.9229,4.98 1.464,6.48 -2.8958,1.76 -3.9015,2.452 -7.6255,-2.625 -1.0308,-1.412 -5.7078,-6.313 -5.7078,-6.313 -1.9162001,-1.526 -2.9640001,-4.036 -2.6042001,-5.448 0.3751,-1.489 0.3334,-0.869 0.9323,-2.187 0.5677,-1.25 2.3599001,-2.505 3.5573001,-2.193 1.1454,0.297 1.6094,1.901 2.5787,4.12 0.7651,1.75 3.7864,5.161 3.7864,5.161"
     id="path153" />
  <path
     style="fill:none;stroke:#231f20;stroke-width:0.565977;stroke-linecap:butt;stroke-linejoin:miter;stroke-miterlimit:4;stroke-dasharray:none;stroke-opacity:1"
     d="m 18.355089,27.970007 c 2.0828,2.339 2.7854,2.615 3.6188,3.005 5.2349,2.459 3.9229,4.98 1.464,6.48 -2.8958,1.76 -3.9015,2.452 -7.6255,-2.625 -1.0308,-1.412 -5.7078,-6.313 -5.7078,-6.313 -1.9162001,-1.526 -2.9640001,-4.036 -2.6042001,-5.448 0.3751,-1.489 0.3334,-0.869 0.9323,-2.187 0.5677,-1.25 2.3599001,-2.505 3.5573001,-2.193 1.1454,0.297 1.6094,1.901 2.5787,4.12 0.7651,1.75 3.7864,5.161 3.7864,5.161 z"
     id="path154" />
  <path
     style="fill:#ffffff;fill-opacity:1;fill-rule:nonzero;stroke:none"
     d="m 2.7030889,18.658007 c -0.2026,-0.141 -1.0718,0.61 -1.4428,0.235 -0.36919997,-0.376 0.0271,-1.047 -0.63959997,-2.928 l -0.0057,-0.015 c -0.5265,-1.36 -0.4479,-2.74 0.3699,-3.693 1.34889997,-1.583 4.18219997,-1.375 6.32749997,0.459 2.1522,1.838 2.7922001,4.604 1.4427,6.182 -1.2864,1.51 -3.9426,1.386 -6.052,-0.24"
     id="path155" />
  <path
     style="fill:none;stroke:#231f20;stroke-width:0.565977;stroke-linecap:butt;stroke-linejoin:miter;stroke-miterlimit:4;stroke-dasharray:none;stroke-opacity:1"
     d="m 2.7030889,18.658007 c -0.2026,-0.141 -1.0718,0.61 -1.4428,0.235 -0.36919997,-0.376 0.0271,-1.047 -0.63959997,-2.928 l -0.0057,-0.015 c -0.5265,-1.36 -0.4479,-2.74 0.3699,-3.693 1.34889997,-1.583 4.18219997,-1.375 6.32749997,0.459 2.1522,1.838 2.7922001,4.604 1.4427,6.182 -1.2864,1.51 -3.9426,1.386 -6.052,-0.24 z"
     id="path156" />
  <path
     style="fill:#231f20;fill-opacity:1;fill-rule:nonzero;stroke:none"
     d="m 11.812389,53.907007 c -3.8120001,-1.249 -0.9369,-4.145 -0.7865,-4.598 1.5428,-4.771 1.772,-5.078 3.2043,-8.62 2.0624,-5.13 4.265,-8.323 7.5983,-7.995 2.2547,0.224 3.464,1.333 3.8282,2.599 0.3958,1.401 -0.235,4.516 -2.9323,5.548 l -1.0412,1.353 c -0.5839,1.011 -0.8812,1.505 -1.1255,2.027 -0.4318,0.905 -0.948,1.844 -1.8906,3.557 -1.6719,3.047 -4.4317,5.719 -4.4317,5.719 -0.6256,1.082 -2.423,0.41 -2.423,0.41"
     id="path157" />
  <path
     style="fill:none;stroke:#231f20;stroke-width:0.565977;stroke-linecap:butt;stroke-linejoin:miter;stroke-miterlimit:4;stroke-dasharray:none;stroke-opacity:1"
     d="m 11.812389,53.907007 c -3.8120001,-1.249 -0.9369,-4.145 -0.7865,-4.598 1.5428,-4.771 1.772,-5.078 3.2043,-8.62 2.0624,-5.13 4.265,-8.323 7.5983,-7.995 2.2547,0.224 3.464,1.333 3.8282,2.599 0.3958,1.401 -0.235,4.516 -2.9323,5.548 l -1.0412,1.353 c -0.5839,1.011 -0.8812,1.505 -1.1255,2.027 -0.4318,0.905 -0.948,1.844 -1.8906,3.557 -1.6719,3.047 -4.4317,5.719 -4.4317,5.719 -0.6256,1.082 -2.423,0.41 -2.423,0.41 z"
     id="path158" />
  <path
     style="fill:#0098c9;fill-opacity:1;fill-rule:nonzero;stroke:none"
     d="m 22.484789,32.694007 c -2.5579,-0.697 -4.7817,0.896 -7.0202,3.917 l 6.5467,4.266 c 2.8334,-0.558 3.9735,-3.532 3.812,-4.979 -0.1453,-1.313 -1.151,-2.605 -3.3385,-3.204"
     id="path159" />
  <path
     style="fill:none;stroke:#231f20;stroke-width:0.565977;stroke-linecap:butt;stroke-linejoin:miter;stroke-miterlimit:4;stroke-dasharray:none;stroke-opacity:1"
     d="m 22.484789,32.694007 c -2.5579,-0.697 -4.7817,0.896 -7.0202,3.917 l 6.5467,4.266 c 2.8334,-0.558 3.9735,-3.532 3.812,-4.979 -0.1453,-1.313 -1.151,-2.605 -3.3385,-3.204 z"
     id="path160" />
  <path
     style="fill:#231f20;fill-opacity:1;fill-rule:nonzero;stroke:none"
     d="m 11.197889,36.090007 c 0.6468,-0.011 2.0837,-1.323 3.6,-1.859 1.0203,-0.37 3.0041,-2.272 4.052,-2.557 0.9521,-0.267 1.3693,-0.475 1.2546,-1.625 -0.0681,-0.678 -0.6358,-1.943 -1.1453,-1.912 -1.1932,0.062 -2.0426,0.48 -2.8812,1.136 -0.9573,0.754 -3.3692,3.016 -3.7801,3.473 -1.0053,1.147 -1.7292,1.276 -2.0215,1.557 -0.5572001,0.522 -0.4948001,0.86 -0.24,1.292 0.4948,0.823 1.1615,0.495 1.1615,0.495"
     id="path161" />
  <path
     style="fill:none;stroke:#231f20;stroke-width:0.565977;stroke-linecap:butt;stroke-linejoin:miter;stroke-miterlimit:4;stroke-dasharray:none;stroke-opacity:1"
     d="m 11.197889,36.090007 c 0.6468,-0.011 2.0837,-1.323 3.6,-1.859 1.0203,-0.37 3.0041,-2.272 4.052,-2.557 0.9521,-0.267 1.3693,-0.475 1.2546,-1.625 -0.0681,-0.678 -0.6358,-1.943 -1.1453,-1.912 -1.1932,0.062 -2.0426,0.48 -2.8812,1.136 -0.9573,0.754 -3.3692,3.016 -3.7801,3.473 -1.0053,1.147 -1.7292,1.276 -2.0215,1.557 -0.5572001,0.522 -0.4948001,0.86 -0.24,1.292 0.4948,0.823 1.1615,0.495 1.1615,0.495 z"
     id="path162" />
  <path
     style="fill:#231f20;fill-opacity:1;fill-rule:nonzero;stroke:none"
     d="m 19.713989,30.085007 c 0.9119,-0.916 -0.7813,-2.063 -1.1719,-2.427 -0.4015,-0.375 -1.4214,-1.552 -2.0938,-2.573 -0.6719,-1.016 -1.9531,-2.006 -3.2343,-3.943 -0.6776,-1.02 -1.9786,-1.588 -3.4161001,-0.541 -1.4224,1.031 -1.3761,2.218 -0.3761,3.328 1.0052001,1.114 2.4229001,1.729 3.5052001,2.781 1.0948,1.041 2.1042,2.213 2.8546,3.167 0.859,1.088 1.683,1.306 2.1402,1.182 1.1562,-0.308 1.7922,-0.974 1.7922,-0.974"
     id="path163" />
  <path
     style="fill:none;stroke:#231f20;stroke-width:0.565977;stroke-linecap:butt;stroke-linejoin:miter;stroke-miterlimit:4;stroke-dasharray:none;stroke-opacity:1"
     d="m 19.713989,30.085007 c 0.9119,-0.916 -0.7813,-2.063 -1.1719,-2.427 -0.4015,-0.375 -1.4214,-1.552 -2.0938,-2.573 -0.6719,-1.016 -1.9531,-2.006 -3.2343,-3.943 -0.6776,-1.02 -1.9786,-1.588 -3.4161001,-0.541 -1.4224,1.031 -1.3761,2.218 -0.3761,3.328 1.0052001,1.114 2.4229001,1.729 3.5052001,2.781 1.0948,1.041 2.1042,2.213 2.8546,3.167 0.859,1.088 1.683,1.306 2.1402,1.182 1.1562,-0.308 1.7922,-0.974 1.7922,-0.974 z"
     id="path164" />
  <path
     style="fill:#ffffff;fill-opacity:1;fill-rule:nonzero;stroke:none"
     d="m 8.6978889,37.694007 c 0.5785,0.849 1.7348001,1.068 2.5837001,0.485 0.8496,-0.578 1.0683,-1.734 0.4844,-2.584 -0.5776,-0.849 -1.7348,-1.068 -2.5828001,-0.484 -0.8494,0.578 -1.0682,1.735 -0.4853,2.583"
     id="path165" />
  <path
     style="fill:none;stroke:#231f20;stroke-width:1.33171;stroke-linecap:butt;stroke-linejoin:miter;stroke-miterlimit:4;stroke-dasharray:none;stroke-opacity:1"
     d="m 8.6978889,37.694007 c 0.5785,0.849 1.7348001,1.068 2.5837001,0.485 0.8496,-0.578 1.0683,-1.734 0.4844,-2.584 -0.5776,-0.849 -1.7348,-1.068 -2.5828001,-0.484 -0.8494,0.578 -1.0682,1.735 -0.4853,2.583 z"
     id="path166" />
  <path
     style="fill:#231f20;fill-opacity:1;fill-rule:nonzero;stroke:none"
     d="m 255.67739,64.095007 c 1.348,-0.01 1.692,-0.942 1.339,-1.921 -0.1,-0.292 0.109,-0.647 -0.016,-0.923 -0.298,-0.64 -1.948,-1.192 -2.76,0.074 -0.058,0.088 -0.688,0.614 -1.095,1.082 -0.801,0.912 -1.953,3.12 -1.124,5.688 0.389,1.214 1.036,0.755 1.025,0.224 -0.03,-1.713 0.303,-1.869 0.459,-2.322 0.52,-1.542 2.172,-1.902 2.172,-1.902"
     id="path167" />
  <path
     style="fill:none;stroke:#231f20;stroke-width:0.332927;stroke-linecap:butt;stroke-linejoin:miter;stroke-miterlimit:4;stroke-dasharray:none;stroke-opacity:1"
     d="m 255.67739,64.095007 c 1.348,-0.01 1.692,-0.942 1.339,-1.921 -0.1,-0.292 0.109,-0.647 -0.016,-0.923 -0.298,-0.64 -1.948,-1.192 -2.76,0.074 -0.058,0.088 -0.688,0.614 -1.095,1.082 -0.801,0.912 -1.953,3.12 -1.124,5.688 0.389,1.214 1.036,0.755 1.025,0.224 -0.03,-1.713 0.303,-1.869 0.459,-2.322 0.52,-1.542 2.172,-1.902 2.172,-1.902 z"
     id="path168" />
  <path
     style="fill:#231f20;fill-opacity:1;fill-rule:nonzero;stroke:none"
     d="m 265.54139,48.153007 c 1.98,1.109 2.213,1.588 1.803,2.458 -0.276,0.578 -0.334,1.203 -0.48,1.563 -0.506,1.197 -1.843,3 -6.963,7.129 -1.167,0.932 -2.787,2.262 -3.412,2.86 -0.979,0.932 -1.869,-1.328 -1.489,-1.698 1.224,-1.203 1.964,-2.124 2.349,-2.619 0.26,-0.339 0.801,-0.871 1.645,-2.313 1.282,-2.178 1.724,-3.672 3,-5.359 0.588,-0.787 0.531,-1.751 1.516,-2.219 0.968,-0.48 2.031,0.198 2.031,0.198"
     id="path169" />
  <path
     style="fill:none;stroke:#231f20;stroke-width:0.565977;stroke-linecap:butt;stroke-linejoin:miter;stroke-miterlimit:4;stroke-dasharray:none;stroke-opacity:1"
     d="m 265.54139,48.153007 c 1.98,1.109 2.213,1.588 1.803,2.458 -0.276,0.578 -0.334,1.203 -0.48,1.563 -0.506,1.197 -1.843,3 -6.963,7.129 -1.167,0.932 -2.787,2.262 -3.412,2.86 -0.979,0.932 -1.869,-1.328 -1.489,-1.698 1.224,-1.203 1.964,-2.124 2.349,-2.619 0.26,-0.339 0.801,-0.871 1.645,-2.313 1.282,-2.178 1.724,-3.672 3,-5.359 0.588,-0.787 0.531,-1.751 1.516,-2.219 0.968,-0.48 2.031,0.198 2.031,0.198 z"
     id="path170" />
  <path
     style="fill:#0098c9;fill-opacity:1;fill-rule:nonzero;stroke:none"
     d="m 277.37439,25.183007 c 0.719,3.052 1.204,3.631 1.751,4.371 3.426,4.656 1.072,6.249 -1.808,6.391 -3.385,0.166 -4.599,0.296 -5.448,-5.943 -0.235,-1.735 -2.011,-8.27 -2.011,-8.27 -0.952,-2.256 -0.676,-4.964 0.314,-6.038 1.041,-1.129 0.708,-0.604 1.858,-1.473 1.1,-0.828 3.271,-1.079 4.172,-0.229 0.871,0.806 0.516,2.437 0.308,4.849 -0.161,1.905 0.864,6.342 0.864,6.342"
     id="path171" />
  <path
     style="fill:none;stroke:#231f20;stroke-width:0.565977;stroke-linecap:butt;stroke-linejoin:miter;stroke-miterlimit:4;stroke-dasharray:none;stroke-opacity:1"
     d="m 277.37439,25.183007 c 0.719,3.052 1.204,3.631 1.751,4.371 3.426,4.656 1.072,6.249 -1.808,6.391 -3.385,0.166 -4.599,0.296 -5.448,-5.943 -0.235,-1.735 -2.011,-8.27 -2.011,-8.27 -0.952,-2.256 -0.676,-4.964 0.314,-6.038 1.041,-1.129 0.708,-0.604 1.858,-1.473 1.1,-0.828 3.271,-1.079 4.172,-0.229 0.871,0.806 0.516,2.437 0.308,4.849 -0.161,1.905 0.864,6.342 0.864,6.342 z"
     id="path172" />
  <path
     style="fill:#ffffff;fill-opacity:1;fill-rule:nonzero;stroke:none"
     d="m 268.06239,9.5330069 c -0.114,-0.219 -1.234,0.027 -1.385,-0.479 -0.147,-0.505 0.525,-0.912 0.839,-2.874 l 0.005,-0.022 c 0.176,-1.442 0.911,-2.62 2.083,-3.073 1.937,-0.744 4.328,0.792 5.344,3.428 1.01,2.635 0.254,5.3750001 -1.683,6.1190001 -1.849,0.713 -4.131,-0.667 -5.203,-3.0990001"
     id="path173" />
  <path
     style="fill:none;stroke:#231f20;stroke-width:0.565977;stroke-linecap:butt;stroke-linejoin:miter;stroke-miterlimit:4;stroke-dasharray:none;stroke-opacity:1"
     d="m 268.06239,9.5330069 c -0.114,-0.219 -1.234,0.027 -1.385,-0.479 -0.147,-0.505 0.525,-0.912 0.839,-2.874 l 0.005,-0.022 c 0.176,-1.442 0.911,-2.62 2.083,-3.073 1.937,-0.744 4.328,0.792 5.344,3.428 1.01,2.635 0.254,5.3750001 -1.683,6.1190001 -1.849,0.713 -4.131,-0.667 -5.203,-3.0990001 z"
     id="path174" />
  <path
     style="fill:#231f20;fill-opacity:1;fill-rule:nonzero;stroke:none"
     d="m 264.86439,50.527007 c -3.656,-1.656 -0.484,-4.224 -0.286,-4.656 2.042,-4.578 2.307,-4.854 4.11,-8.224 2.604,-4.874 5.14,-7.817 8.416,-7.13 2.223,0.469 3.306,1.698 3.53,3 0.24,1.433 -0.719,4.464 -3.52,5.198 l -1.177,1.24 c -0.688,0.938 -1.036,1.395 -1.339,1.886 -0.525,0.853 -1.14,1.728 -2.26,3.333 -1.989,2.848 -5.026,5.208 -5.026,5.208 -0.739,1.005 -2.448,0.145 -2.448,0.145"
     id="path175" />
  <path
     style="fill:none;stroke:#231f20;stroke-width:0.565977;stroke-linecap:butt;stroke-linejoin:miter;stroke-miterlimit:4;stroke-dasharray:none;stroke-opacity:1"
     d="m 264.86439,50.527007 c -3.656,-1.656 -0.484,-4.224 -0.286,-4.656 2.042,-4.578 2.307,-4.854 4.11,-8.224 2.604,-4.874 5.14,-7.817 8.416,-7.13 2.223,0.469 3.306,1.698 3.53,3 0.24,1.433 -0.719,4.464 -3.52,5.198 l -1.177,1.24 c -0.688,0.938 -1.036,1.395 -1.339,1.886 -0.525,0.853 -1.14,1.728 -2.26,3.333 -1.989,2.848 -5.026,5.208 -5.026,5.208 -0.739,1.005 -2.448,0.145 -2.448,0.145 z"
     id="path176" />
  <path
     style="fill:#0098c9;fill-opacity:1;fill-rule:nonzero;stroke:none"
     d="m 277.76039,30.590007 c -1.375,-0.536 -2.724,-0.339 -4.088,0.401 -1,0.282 -1.599,0.484 -1.886,1.235 -0.032,0.067 -0.068,0.135 -0.104,0.208 -0.437,0.391 -0.881,0.812 -1.324,1.292 l 6.048,4.948 c 2.875,-0.251 4.333,-3.084 4.328,-4.543 -0.005,-1.317 -0.865,-2.708 -2.974,-3.541"
     id="path177" />
  <path
     style="fill:none;stroke:#231f20;stroke-width:0.565977;stroke-linecap:butt;stroke-linejoin:miter;stroke-miterlimit:4;stroke-dasharray:none;stroke-opacity:1"
     d="m 277.76039,30.590007 c -1.375,-0.536 -2.724,-0.339 -4.088,0.401 -1,0.282 -1.599,0.484 -1.886,1.235 -0.032,0.067 -0.068,0.135 -0.104,0.208 -0.437,0.391 -0.881,0.812 -1.324,1.292 l 6.048,4.948 c 2.875,-0.251 4.333,-3.084 4.328,-4.543 -0.005,-1.317 -0.865,-2.708 -2.974,-3.541 z"
     id="path178" />
  <path
     style="fill:#231f20;fill-opacity:1;fill-rule:nonzero;stroke:none"
     d="m 266.78139,36.174007 c 0.547,-0.339 1.115,-2.204 2.145,-3.439 0.694,-0.837 1.428,-3.484 2.183,-4.265 0.688,-0.713 0.932,-1.109 0.249,-2.036 -0.405,-0.547 -1.541,-1.344 -1.962,-1.063 -0.99,0.662 -1.511,1.454 -1.896,2.448 -0.438,1.136 -1.366,4.312 -1.479,4.916 -0.281,1.496 -0.839,1.98 -0.948,2.371 -0.215,0.729 0.015,0.989 0.452,1.229 0.844,0.458 1.256,-0.161 1.256,-0.161"
     id="path179" />
  <path
     style="fill:none;stroke:#231f20;stroke-width:0.565977;stroke-linecap:butt;stroke-linejoin:miter;stroke-miterlimit:4;stroke-dasharray:none;stroke-opacity:1"
     d="m 266.78139,36.174007 c 0.547,-0.339 1.115,-2.204 2.145,-3.439 0.694,-0.837 1.428,-3.484 2.183,-4.265 0.688,-0.713 0.932,-1.109 0.249,-2.036 -0.405,-0.547 -1.541,-1.344 -1.962,-1.063 -0.99,0.662 -1.511,1.454 -1.896,2.448 -0.438,1.136 -1.366,4.312 -1.479,4.916 -0.281,1.496 -0.839,1.98 -0.948,2.371 -0.215,0.729 0.015,0.989 0.452,1.229 0.844,0.458 1.256,-0.161 1.256,-0.161 z"
     id="path180" />
  <path
     style="fill:#231f20;fill-opacity:1;fill-rule:nonzero;stroke:none"
     d="m 270.64539,27.981007 c 1.229,0.421 1.527,-1.594 1.683,-2.11 0.161,-0.526 0.786,-1.948 1.416,-2.994 0.625,-1.052 0.964,-2.631 2.152,-4.631 0.629,-1.052 0.577,-2.468 -0.99,-3.312 -1.542,-0.833 -2.594,-0.276 -3.162,1.104 -0.562,1.391 -0.51,2.927 -0.984,4.364 -0.474,1.439 -1.088,2.849 -1.626,3.943 -0.613,1.24 -0.452,2.078 -0.14,2.444 0.782,0.905 1.651,1.192 1.651,1.192"
     id="path181" />
  <path
     style="fill:none;stroke:#231f20;stroke-width:0.565977;stroke-linecap:butt;stroke-linejoin:miter;stroke-miterlimit:4;stroke-dasharray:none;stroke-opacity:1"
     d="m 270.64539,27.981007 c 1.229,0.421 1.527,-1.594 1.683,-2.11 0.161,-0.526 0.786,-1.948 1.416,-2.994 0.625,-1.052 0.964,-2.631 2.152,-4.631 0.629,-1.052 0.577,-2.468 -0.99,-3.312 -1.542,-0.833 -2.594,-0.276 -3.162,1.104 -0.562,1.391 -0.51,2.927 -0.984,4.364 -0.474,1.439 -1.088,2.849 -1.626,3.943 -0.613,1.24 -0.452,2.078 -0.14,2.444 0.782,0.905 1.651,1.192 1.651,1.192 z"
     id="path182" />
  <path
     style="fill:#ffffff;fill-opacity:1;fill-rule:nonzero;stroke:none"
     d="m 265.44839,38.830007 c 0.926,0.432 2.03,0.025 2.468,-0.901 0.433,-0.932 0.032,-2.042 -0.9,-2.474 -0.934,-0.433 -2.043,-0.032 -2.47,0.9 -0.437,0.934 -0.03,2.038 0.902,2.475"
     id="path183" />
  <path
     style="fill:none;stroke:#231f20;stroke-width:1.33171;stroke-linecap:butt;stroke-linejoin:miter;stroke-miterlimit:4;stroke-dasharray:none;stroke-opacity:1"
     d="m 265.44839,38.830007 c 0.926,0.432 2.03,0.025 2.468,-0.901 0.433,-0.932 0.032,-2.042 -0.9,-2.474 -0.934,-0.433 -2.043,-0.032 -2.47,0.9 -0.437,0.934 -0.03,2.038 0.902,2.475 z"
     id="path184" />
</svg>
