<?xml version="1.0" encoding="UTF-8" standalone="no"?>
<!-- Created with Inkscape (http://www.inkscape.org/) -->

<svg
   version="1.1"
   id="svg1"
   width="282.53635"
   height="84.616264"
   viewBox="0 0 282.53633 84.616262"
   sodipodi:docname="cell.svg"
   xmlns:inkscape="http://www.inkscape.org/namespaces/inkscape"
   xmlns:sodipodi="http://sodipodi.sourceforge.net/DTD/sodipodi-0.dtd"
   xmlns="http://www.w3.org/2000/svg"
   xmlns:svg="http://www.w3.org/2000/svg">
  <sodipodi:namedview
     id="namedview1"
     pagecolor="#ffffff"
     bordercolor="#000000"
     borderopacity="0.25"
     inkscape:showpageshadow="2"
     inkscape:pageopacity="0.0"
     inkscape:pagecheckerboard="0"
     inkscape:deskcolor="#d1d1d1">
    <inkscape:page
       x="2.4663143e-07"
       y="1.4593531e-15"
       inkscape:label="1"
       id="page1"
       width="282.53635"
       height="84.616264"
       margin="0"
       bleed="0" />
  </sodipodi:namedview>
  <defs
     id="defs1" />
  <path
     style="fill:#0098c9;fill-opacity:1;fill-rule:nonzero;stroke:none"
     d="m 21.28503,13.799025 c -1.1306,-3.323 -1.6093,-4.1759993 -2.0786,-5.2189993 -2.3385,-5.281 -3.6239,-5.145 -5.8531,-4.27 -3.1614,1.24 -4.7665997,2.218 -1.912,7.8329993 2.1667,4.256 3.1667,7.729 3.1667,7.729 0.0104,1.87 1.4531,5.167 2.2401,5.62 1.3276,0.771 1.0932,0.583 2.5411,0.651 2.6718,0.125 3.2922,-0.9 3.5677,-2.057 0.2817,-1.151 0.1776,-2.187 -0.3907,-4.943 -0.4369,-2.135 -1.2812,-5.344 -1.2812,-5.344"
     id="path188" />
  <path
     style="fill:none;stroke:#231f20;stroke-width:0.565977;stroke-linecap:butt;stroke-linejoin:miter;stroke-miterlimit:4;stroke-dasharray:none;stroke-opacity:1"
     d="m 21.28503,13.799025 c -1.1306,-3.323 -1.6093,-4.1759993 -2.0786,-5.2189993 -2.3385,-5.281 -3.6239,-5.145 -5.8531,-4.27 -3.1614,1.24 -4.7665997,2.218 -1.912,7.8329993 2.1667,4.256 3.1667,7.729 3.1667,7.729 0.0104,1.87 1.4531,5.167 2.2401,5.62 1.3276,0.771 1.0932,0.583 2.5411,0.651 2.6718,0.125 3.2922,-0.9 3.5677,-2.057 0.2817,-1.151 0.1776,-2.187 -0.3907,-4.943 -0.4369,-2.135 -1.2812,-5.344 -1.2812,-5.344 z"
     id="path189" />
  <path
     style="fill:#ffffff;fill-opacity:1;fill-rule:nonzero;stroke:none"
     d="m 23.16533,32.404025 c 0.1557,0.182 -0.4839,1.14 -0.0787,1.463 0.4172,0.323 1.0479,-0.156 2.9854,0.287 l 0.0198,0.005 c 1.4068,0.38 2.7719,0.136 3.6255,-0.787 1.4172,-1.525 0.8855,-4.312 -1.1869,-6.229 -2.0735,-1.927 -4.8907,-2.249 -6.3027,-0.729 -1.364,1.458 -0.9213,4.084 0.9376,5.99"
     id="path190" />
  <path
     style="fill:none;stroke:#231f20;stroke-width:0.565977;stroke-linecap:butt;stroke-linejoin:miter;stroke-miterlimit:4;stroke-dasharray:none;stroke-opacity:1"
     d="m 23.16533,32.404025 c 0.1557,0.182 -0.4839,1.14 -0.0787,1.463 0.4172,0.323 1.0479,-0.156 2.9854,0.287 l 0.0198,0.005 c 1.4068,0.38 2.7719,0.136 3.6255,-0.787 1.4172,-1.525 0.8855,-4.312 -1.1869,-6.229 -2.0735,-1.927 -4.8907,-2.249 -6.3027,-0.729 -1.364,1.458 -0.9213,4.084 0.9376,5.99 z"
     id="path191" />
  <path
     style="fill:#231f20;fill-opacity:1;fill-rule:nonzero;stroke:none"
     d="m 16.35853,43.138025 c -0.3026,-0.567 0.1292,-2.468 -0.1521,-4.052 -0.1812,-1.072 0.5,-3.734 0.2297,-4.787 -0.239,-0.957 -0.2546,-1.427 0.7968,-1.891 0.6256,-0.27 2.0058,-0.4 2.2298,0.058 0.5308,1.062 0.588,2.01 0.4265,3.068 -0.1828,1.198 -0.964,4.422 -1.1563,5 -0.5052,1.437 -0.2598,2.136 -0.3598,2.526 -0.176,0.739 -0.5052,0.854 -1.0104,0.839 -0.9574,-0.021 -1.0042,-0.761 -1.0042,-0.761"
     id="path192" />
  <path
     style="fill:none;stroke:#231f20;stroke-width:0.565977;stroke-linecap:butt;stroke-linejoin:miter;stroke-miterlimit:4;stroke-dasharray:none;stroke-opacity:1"
     d="m 16.35853,43.138025 c -0.3026,-0.567 0.1292,-2.468 -0.1521,-4.052 -0.1812,-1.072 0.5,-3.734 0.2297,-4.787 -0.239,-0.957 -0.2546,-1.427 0.7968,-1.891 0.6256,-0.27 2.0058,-0.4 2.2298,0.058 0.5308,1.062 0.588,2.01 0.4265,3.068 -0.1828,1.198 -0.964,4.422 -1.1563,5 -0.5052,1.437 -0.2598,2.136 -0.3598,2.526 -0.176,0.739 -0.5052,0.854 -1.0104,0.839 -0.9574,-0.021 -1.0042,-0.761 -1.0042,-0.761 z"
     id="path193" />
  <path
     style="fill:#231f20;fill-opacity:1;fill-rule:nonzero;stroke:none"
     d="m 17.08253,34.107025 c -1.272,-0.251 -0.5266,-2.141 -0.412,-2.672 0.1255,-0.531 0.2864,-2.073 0.2656,-3.297 -0.0202,-1.224 0.4744,-2.766 0.4266,-5.088 -0.0203,-1.224 0.7401,-2.427 2.5104,-2.38 1.7562,0.046 2.3906,1.046 2.1931,2.53 -0.1932,1.486 -1.0104,2.792 -1.3129,4.271 -0.3068,1.485 -0.4735,3.021 -0.5521,4.235 -0.0828,1.38 -0.6401,2.032 -1.0932,2.188 -1.1255,0.396 -2.0255,0.213 -2.0255,0.213"
     id="path194" />
  <path
     style="fill:none;stroke:#231f20;stroke-width:0.565977;stroke-linecap:butt;stroke-linejoin:miter;stroke-miterlimit:4;stroke-dasharray:none;stroke-opacity:1"
     d="m 17.08253,34.107025 c -1.272,-0.251 -0.5266,-2.141 -0.412,-2.672 0.1255,-0.531 0.2864,-2.073 0.2656,-3.297 -0.0202,-1.224 0.4744,-2.766 0.4266,-5.088 -0.0203,-1.224 0.7401,-2.427 2.5104,-2.38 1.7562,0.046 2.3906,1.046 2.1931,2.53 -0.1932,1.486 -1.0104,2.792 -1.3129,4.271 -0.3068,1.485 -0.4735,3.021 -0.5521,4.235 -0.0828,1.38 -0.6401,2.032 -1.0932,2.188 -1.1255,0.396 -2.0255,0.213 -2.0255,0.213 z"
     id="path195" />
  <path
     style="fill:#ffffff;fill-opacity:1;fill-rule:nonzero;stroke:none"
     d="m 15.66013,43.211025 c -0.6562,0.787 -0.5521,1.959 0.2395,2.609 0.7923,0.662 1.9683,0.552 2.6152,-0.24 0.6609,-0.79 0.5572,-1.962 -0.2349,-2.618 -0.7974,-0.658 -1.9694,-0.543 -2.6198,0.249"
     id="path196" />
  <path
     style="fill:none;stroke:#231f20;stroke-width:1.33171;stroke-linecap:butt;stroke-linejoin:miter;stroke-miterlimit:4;stroke-dasharray:none;stroke-opacity:1"
     d="m 15.66013,43.211025 c -0.6562,0.787 -0.5521,1.959 0.2395,2.609 0.7923,0.662 1.9683,0.552 2.6152,-0.24 0.6609,-0.79 0.5572,-1.962 -0.2349,-2.618 -0.7974,-0.658 -1.9694,-0.543 -2.6198,0.249 z"
     id="path197" />
  <path
     style="fill:#ffffff;fill-opacity:1;fill-rule:nonzero;stroke:none"
     d="m 16.64393,24.508025 c -2.2656,0.099 -2.6922,0.422 -2.7135,1.386 -0.0145,0.64 -0.2489,1.224 -0.2703,1.609 -0.0938,1.296 0.2864,3.511 3.0052,9.505 0.6146,1.354 1.4692,3.276 1.7506,4.083 0.4572,1.281 2.2759,-0.339 2.0989,-0.844 -0.5521,-1.619 -0.7975,-2.781 -0.9177,-3.391 -0.0771,-0.421 -0.3276,-1.14 -0.4318,-2.806 -0.1614,-2.522 0.1198,-4.058 -0.26,-6.136 -0.1776,-0.968 0.3063,-1.807 -0.3546,-2.667 -0.6511,-0.864 -1.9068,-0.739 -1.9068,-0.739"
     id="path198" />
  <path
     style="fill:none;stroke:#231f20;stroke-width:0.565977;stroke-linecap:butt;stroke-linejoin:miter;stroke-miterlimit:4;stroke-dasharray:none;stroke-opacity:1"
     d="m 16.64393,24.508025 c -2.2656,0.099 -2.6922,0.422 -2.7135,1.386 -0.0145,0.64 -0.2489,1.224 -0.2703,1.609 -0.0938,1.296 0.2864,3.511 3.0052,9.505 0.6146,1.354 1.4692,3.276 1.7506,4.083 0.4572,1.281 2.2759,-0.339 2.0989,-0.844 -0.5521,-1.619 -0.7975,-2.781 -0.9177,-3.391 -0.0771,-0.421 -0.3276,-1.14 -0.4318,-2.806 -0.1614,-2.522 0.1198,-4.058 -0.26,-6.136 -0.1776,-0.968 0.3063,-1.807 -0.3546,-2.667 -0.6511,-0.864 -1.9068,-0.739 -1.9068,-0.739 z"
     id="path199" />
  <path
     style="fill:#ffffff;fill-opacity:1;fill-rule:nonzero;stroke:#231f20;stroke-width:0.565977;stroke-linecap:round;stroke-linejoin:round;stroke-miterlimit:4;stroke-dasharray:none;stroke-opacity:1"
     d="m 18.41593,26.279025 c 0.9468,-1.052 0.1093,-3.032 0.1238,-3.375 0.2298,-5.005 0.1204,-5.376 0.0266,-9.188 -0.1302,-5.5299993 -1.0624,-9.2969993 -4.3026,-10.1609993 -2.1974,-0.584 -3.713,0.036 -4.4999997,1.083 -0.8641,1.182 -1.3641,4.318 0.7973997,6.2339993 l 0.4948,1.636 c 0.1933,1.146 0.2974,1.714 0.3494,2.287 0.0824,0.995 0.2344,2.057 0.5199,4 0.4907,3.437 2.1359,6.911 2.1359,6.911 0.0469,0.302 0.2026,0.532 0.4214,0.708"
     id="path200" />
  <path
     style="fill:#231f20;fill-opacity:1;fill-rule:nonzero;stroke:none"
     d="m 18.27473,43.190025 c -1.1975,-0.619 -1.0828,-1.61 -0.3334,-2.323 0.224,-0.208 0.1984,-0.624 0.4266,-0.812 0.5521,-0.437 2.2813,-0.183 2.4385,1.307 0.0146,0.104 0.3333,0.86 0.4896,1.458 0.301,1.172 0.3385,3.672 -1.5631,5.588 -0.8957,0.907 -1.265,0.204 -1.0156,-0.27 0.7975,-1.515 0.5787,-1.802 0.6412,-2.276 0.2282,-1.604 -1.0838,-2.672 -1.0838,-2.672"
     id="path201" />
  <path
     style="fill:none;stroke:#231f20;stroke-width:0.332927;stroke-linecap:butt;stroke-linejoin:miter;stroke-miterlimit:4;stroke-dasharray:none;stroke-opacity:1"
     d="m 18.27473,43.190025 c -1.1975,-0.619 -1.0828,-1.61 -0.3334,-2.323 0.224,-0.208 0.1984,-0.624 0.4266,-0.812 0.5521,-0.437 2.2813,-0.183 2.4385,1.307 0.0146,0.104 0.3333,0.86 0.4896,1.458 0.301,1.172 0.3385,3.672 -1.5631,5.588 -0.8957,0.907 -1.265,0.204 -1.0156,-0.27 0.7975,-1.515 0.5787,-1.802 0.6412,-2.276 0.2282,-1.604 -1.0838,-2.672 -1.0838,-2.672 z"
     id="path202" />
  <path
     style="fill:#0098c9;fill-opacity:1;fill-rule:nonzero;stroke:none"
     d="m 14.84813,3.5960257 c -2.1204,-0.797 -3.6989,-0.333 -4.5844,0.642 -0.9733997,1.088 -1.7811997,4.161 0.199,6.2759993 l 7.8068,0.348 c -0.0631,-3.7549993 -0.9375,-6.3429993 -3.4214,-7.2659993"
     id="path203" />
  <path
     style="fill:none;stroke:#231f20;stroke-width:0.565977;stroke-linecap:butt;stroke-linejoin:miter;stroke-miterlimit:4;stroke-dasharray:none;stroke-opacity:1"
     d="m 14.84813,3.5960257 c -2.1204,-0.797 -3.6989,-0.333 -4.5844,0.642 -0.9733997,1.088 -1.7811997,4.161 0.199,6.2759993 l 7.8068,0.348 c -0.0631,-3.7549993 -0.9375,-6.3429993 -3.4214,-7.2659993 z"
     id="path204" />
  <path
     style="fill:#0098c9;fill-opacity:1;fill-rule:nonzero;stroke:none"
     d="m 71.97743,36.664025 c -3.432,0.73 -4.334,1.11 -5.422,1.454 -5.521,1.708 -5.536,3 -4.926,5.317 0.864,3.287 1.65,4.995 7.557,2.808 4.479,-1.652 8.047,-2.245 8.047,-2.245 1.858,0.208 5.297,-0.839 5.844,-1.563 0.916,-1.235 0.702,-1.027 0.937,-2.453 0.437,-2.635 -0.511,-3.375 -1.625,-3.787 -1.11,-0.411 -2.151,-0.427 -4.954,-0.181 -2.172,0.181 -5.458,0.65 -5.458,0.65"
     id="path205" />
  <path
     style="fill:none;stroke:#231f20;stroke-width:0.565977;stroke-linecap:butt;stroke-linejoin:miter;stroke-miterlimit:4;stroke-dasharray:none;stroke-opacity:1"
     d="m 71.97743,36.664025 c -3.432,0.73 -4.334,1.11 -5.422,1.454 -5.521,1.708 -5.536,3 -4.926,5.317 0.864,3.287 1.65,4.995 7.557,2.808 4.479,-1.652 8.047,-2.245 8.047,-2.245 1.858,0.208 5.297,-0.839 5.844,-1.563 0.916,-1.235 0.702,-1.027 0.937,-2.453 0.437,-2.635 -0.511,-3.375 -1.625,-3.787 -1.11,-0.411 -2.151,-0.427 -4.954,-0.181 -2.172,0.181 -5.458,0.65 -5.458,0.65 z"
     id="path206" />
  <path
     style="fill:#ffffff;fill-opacity:1;fill-rule:nonzero;stroke:none"
     d="m 90.67543,36.962025 c 0.198,-0.136 1.074,0.614 1.443,0.244 0.369,-0.375 -0.032,-1.052 0.635,-2.927 l 0.005,-0.021 c 0.537,-1.354 0.459,-2.739 -0.359,-3.692 -1.349,-1.584 -4.177,-1.38 -6.328,0.453 -2.152,1.833 -2.802,4.599 -1.453,6.176 1.287,1.521 3.948,1.396 6.057,-0.233"
     id="path207" />
  <path
     style="fill:none;stroke:#231f20;stroke-width:0.565977;stroke-linecap:butt;stroke-linejoin:miter;stroke-miterlimit:4;stroke-dasharray:none;stroke-opacity:1"
     d="m 90.67543,36.962025 c 0.198,-0.136 1.074,0.614 1.443,0.244 0.369,-0.375 -0.032,-1.052 0.635,-2.927 l 0.005,-0.021 c 0.537,-1.354 0.459,-2.739 -0.359,-3.692 -1.349,-1.584 -4.177,-1.38 -6.328,0.453 -2.152,1.833 -2.802,4.599 -1.453,6.176 1.287,1.521 3.948,1.396 6.057,-0.233 z"
     id="path208" />
  <path
     style="fill:#231f20;fill-opacity:1;fill-rule:nonzero;stroke:none"
     d="m 100.53943,44.966025 c -0.593,0.24 -2.432,-0.411 -4.036,-0.318 -1.088,0.058 -3.65,-0.926 -4.724,-0.781 -0.984,0.125 -1.453,0.084 -1.792,-1.015 -0.192,-0.646 -0.161,-2.037 0.319,-2.209 1.113,-0.405 2.067,-0.348 3.099,-0.067 1.166,0.323 4.276,1.479 4.828,1.734 1.369,0.666 2.093,0.505 2.468,0.646 0.714,0.266 0.786,0.604 0.714,1.104 -0.13,0.948 -0.876,0.906 -0.876,0.906"
     id="path209" />
  <path
     style="fill:none;stroke:#231f20;stroke-width:0.565977;stroke-linecap:butt;stroke-linejoin:miter;stroke-miterlimit:4;stroke-dasharray:none;stroke-opacity:1"
     d="m 100.53943,44.966025 c -0.593,0.24 -2.432,-0.411 -4.036,-0.318 -1.088,0.058 -3.65,-0.926 -4.724,-0.781 -0.984,0.125 -1.453,0.084 -1.792,-1.015 -0.192,-0.646 -0.161,-2.037 0.319,-2.209 1.113,-0.405 2.067,-0.348 3.099,-0.067 1.166,0.323 4.276,1.479 4.828,1.734 1.369,0.666 2.093,0.505 2.468,0.646 0.714,0.266 0.786,0.604 0.714,1.104 -0.13,0.948 -0.876,0.906 -0.876,0.906 z"
     id="path210" />
  <path
     style="fill:#231f20;fill-opacity:1;fill-rule:nonzero;stroke:none"
     d="m 91.65443,43.200025 c -0.391,1.235 -2.187,0.276 -2.692,0.099 -0.516,-0.181 -2.032,-0.531 -3.251,-0.645 -1.218,-0.126 -2.686,-0.798 -5.005,-1.022 -1.213,-0.118 -2.317,-1.014 -2.067,-2.77 0.244,-1.739 1.318,-2.244 2.771,-1.88 1.448,0.365 2.651,1.328 4.088,1.797 1.437,0.479 2.943,0.823 4.141,1.041 1.359,0.246 1.938,0.875 2.042,1.344 0.265,1.162 -0.027,2.036 -0.027,2.036"
     id="path211" />
  <path
     style="fill:none;stroke:#231f20;stroke-width:0.565977;stroke-linecap:butt;stroke-linejoin:miter;stroke-miterlimit:4;stroke-dasharray:none;stroke-opacity:1"
     d="m 91.65443,43.200025 c -0.391,1.235 -2.187,0.276 -2.692,0.099 -0.516,-0.181 -2.032,-0.531 -3.251,-0.645 -1.218,-0.126 -2.686,-0.798 -5.005,-1.022 -1.213,-0.118 -2.317,-1.014 -2.067,-2.77 0.244,-1.739 1.318,-2.244 2.771,-1.88 1.448,0.365 2.651,1.328 4.088,1.797 1.437,0.479 2.943,0.823 4.141,1.041 1.359,0.246 1.938,0.875 2.042,1.344 0.265,1.162 -0.027,2.036 -0.027,2.036 z"
     id="path212" />
  <path
     style="fill:#ffffff;fill-opacity:1;fill-rule:nonzero;stroke:none"
     d="m 100.53443,45.675025 c 0.704,0.744 1.881,0.771 2.62,0.063 0.745,-0.704 0.776,-1.891 0.068,-2.626 -0.708,-0.745 -1.891,-0.776 -2.631,-0.068 -0.744,0.714 -0.77,1.891 -0.057,2.631"
     id="path213" />
  <path
     style="fill:none;stroke:#231f20;stroke-width:1.33171;stroke-linecap:butt;stroke-linejoin:miter;stroke-miterlimit:4;stroke-dasharray:none;stroke-opacity:1"
     d="m 100.53443,45.675025 c 0.704,0.744 1.881,0.771 2.62,0.063 0.745,-0.704 0.776,-1.891 0.068,-2.626 -0.708,-0.745 -1.891,-0.776 -2.631,-0.068 -0.744,0.714 -0.77,1.891 -0.057,2.631 z"
     id="path214" />
  <path
     style="fill:#ffffff;fill-opacity:1;fill-rule:nonzero;stroke:none"
     d="m 82.07743,42.519025 c -0.167,2.26 0.104,2.724 1.057,2.853 0.635,0.094 1.187,0.391 1.567,0.459 1.276,0.244 3.521,0.125 9.792,-1.875 1.417,-0.458 3.422,-1.084 4.26,-1.266 1.324,-0.307 -0.072,-2.296 -0.599,-2.182 -1.672,0.359 -2.848,0.463 -3.473,0.515 -0.428,0.027 -1.172,0.193 -2.834,0.1 -2.526,-0.131 -4.021,-0.589 -6.125,-0.459 -0.984,0.068 -1.76,-0.51 -2.693,0.047 -0.932,0.541 -0.952,1.808 -0.952,1.808"
     id="path215" />
  <path
     style="fill:none;stroke:#231f20;stroke-width:0.565977;stroke-linecap:butt;stroke-linejoin:miter;stroke-miterlimit:4;stroke-dasharray:none;stroke-opacity:1"
     d="m 82.07743,42.519025 c -0.167,2.26 0.104,2.724 1.057,2.853 0.635,0.094 1.187,0.391 1.567,0.459 1.276,0.244 3.521,0.125 9.792,-1.875 1.417,-0.458 3.422,-1.084 4.26,-1.266 1.324,-0.307 -0.072,-2.296 -0.599,-2.182 -1.672,0.359 -2.848,0.463 -3.473,0.515 -0.428,0.027 -1.172,0.193 -2.834,0.1 -2.526,-0.131 -4.021,-0.589 -6.125,-0.459 -0.984,0.068 -1.76,-0.51 -2.693,0.047 -0.932,0.541 -0.952,1.808 -0.952,1.808 z"
     id="path216" />
  <path
     style="fill:#ffffff;fill-opacity:1;fill-rule:nonzero;stroke:#231f20;stroke-width:0.565977;stroke-linecap:round;stroke-linejoin:round;stroke-miterlimit:4;stroke-dasharray:none;stroke-opacity:1"
     d="m 84.03943,40.966025 c -0.937,-1.067 -3,-0.463 -3.338,-0.515 -4.948,-0.813 -5.323,-0.745 -9.119,-1.099 -5.511,-0.516 -9.36,-0.026 -10.6,3.088 -0.833,2.115 -0.396,3.698 0.557,4.599 1.074,0.995 4.131,1.86 6.282,-0.068 l 1.682,-0.301 c 1.167,-0.058 1.735,-0.094 2.312,-0.079 1,0.032 2.074,0.005 4.038,-0.052 3.468,-0.083 7.109,-1.317 7.109,-1.317 0.307,-0.011 0.552,-0.142 0.749,-0.334"
     id="path217" />
  <path
     style="fill:#231f20;fill-opacity:1;fill-rule:nonzero;stroke:none"
     d="m 100.81543,43.071025 c -0.754,1.119 -1.724,0.895 -2.338,0.061 -0.187,-0.244 -0.604,-0.27 -0.766,-0.52 -0.364,-0.593 0.09,-2.286 1.584,-2.265 0.104,0 0.891,-0.229 1.506,-0.319 1.202,-0.161 3.686,0.095 5.369,2.204 0.797,0.995 0.057,1.282 -0.385,0.979 -1.412,-0.968 -1.724,-0.787 -2.183,-0.901 -1.573,-0.416 -2.787,0.761 -2.787,0.761"
     id="path218" />
  <path
     style="fill:none;stroke:#231f20;stroke-width:0.332927;stroke-linecap:butt;stroke-linejoin:miter;stroke-miterlimit:4;stroke-dasharray:none;stroke-opacity:1"
     d="m 100.81543,43.071025 c -0.754,1.119 -1.724,0.895 -2.338,0.061 -0.187,-0.244 -0.604,-0.27 -0.766,-0.52 -0.364,-0.593 0.09,-2.286 1.584,-2.265 0.104,0 0.891,-0.229 1.506,-0.319 1.202,-0.161 3.686,0.095 5.369,2.204 0.797,0.995 0.057,1.282 -0.385,0.979 -1.412,-0.968 -1.724,-0.787 -2.183,-0.901 -1.573,-0.416 -2.787,0.761 -2.787,0.761 z"
     id="path219" />
  <path
     style="fill:#0098c9;fill-opacity:1;fill-rule:nonzero;stroke:none"
     d="m 61.09143,41.867025 c -1.036,2.016 -0.76,3.636 0.11,4.625 0.964,1.094 3.922,2.255 6.25,0.536 l 1.26,-7.713 c -3.734,-0.375 -6.41,0.193 -7.62,2.552"
     id="path220" />
  <path
     style="fill:none;stroke:#231f20;stroke-width:0.565977;stroke-linecap:butt;stroke-linejoin:miter;stroke-miterlimit:4;stroke-dasharray:none;stroke-opacity:1"
     d="m 61.09143,41.867025 c -1.036,2.016 -0.76,3.636 0.11,4.625 0.964,1.094 3.922,2.255 6.25,0.536 l 1.26,-7.713 c -3.734,-0.375 -6.41,0.193 -7.62,2.552 z"
     id="path221" />
  <path
     style="fill:none;stroke:#231f20;stroke-width:0.399514;stroke-linecap:butt;stroke-linejoin:miter;stroke-miterlimit:4;stroke-dasharray:none;stroke-opacity:1"
     d="m 1.4159303,22.591025 c -7.4428,25.423 21.3945997,44.078 28.4836997,45.652"
     id="path222" />
  <path
     style="fill:#231f20;fill-opacity:1;fill-rule:nonzero;stroke:none"
     d="m 31.07723,68.503025 c -0.6,0.083 -1.3656,0.281 -1.876,0.557 l 0.5426,-0.854 -0.1306,-1 c 0.3437,0.463 0.953,0.969 1.464,1.297"
     id="path223" />
  <path
     style="fill:#231f20;fill-opacity:1;fill-rule:nonzero;stroke:none"
     d="m 173.21643,67.514025 c 1.35,1.828 1.86,1.994 2.662,1.473 0.541,-0.344 1.156,-0.473 1.494,-0.672 1.126,-0.651 2.751,-2.203 6.194,-7.807 0.781,-1.276 1.89,-3.046 2.406,-3.745 0.807,-1.088 -1.553,-1.688 -1.876,-1.265 -1.036,1.369 -1.858,2.218 -2.296,2.661 -0.302,0.303 -0.761,0.912 -2.078,1.927 -2.006,1.546 -3.432,2.171 -4.943,3.646 -0.708,0.687 -1.672,0.755 -2.016,1.787 -0.353,1.025 0.453,1.995 0.453,1.995"
     id="path224" />
  <path
     style="fill:none;stroke:#231f20;stroke-width:0.565977;stroke-linecap:butt;stroke-linejoin:miter;stroke-miterlimit:4;stroke-dasharray:none;stroke-opacity:1"
     d="m 173.21643,67.514025 c 1.35,1.828 1.86,1.994 2.662,1.473 0.541,-0.344 1.156,-0.473 1.494,-0.672 1.126,-0.651 2.751,-2.203 6.194,-7.807 0.781,-1.276 1.89,-3.046 2.406,-3.745 0.807,-1.088 -1.553,-1.688 -1.876,-1.265 -1.036,1.369 -1.858,2.218 -2.296,2.661 -0.302,0.303 -0.761,0.912 -2.078,1.927 -2.006,1.546 -3.432,2.171 -4.943,3.646 -0.708,0.687 -1.672,0.755 -2.016,1.787 -0.353,1.025 0.453,1.995 0.453,1.995 z"
     id="path225" />
  <path
     style="fill:#231f20;fill-opacity:1;fill-rule:nonzero;stroke:#231f20;stroke-width:0.565977;stroke-linecap:round;stroke-linejoin:miter;stroke-miterlimit:4;stroke-dasharray:none;stroke-opacity:1"
     d="m 173.78443,65.071025 c -1.442,-0.287 -2.656,1.588 -2.953,1.771 -4.281,2.609 -4.516,2.905 -7.635,5.114 -4.505,3.203 -7.1,6.088 -6.01,9.25 0.744,2.15 2.104,3.067 3.421,3.125 1.453,0.063 4.339,-1.281 4.708,-4.146 l 1.079,-1.329 c 0.849,-0.796 1.26,-1.202 1.702,-1.561 0.787,-0.631 1.579,-1.35 3.032,-2.667 2.567,-2.333 4.526,-5.641 4.526,-5.641 0.276,-0.265 0.37,-0.599 0.365,-0.937"
     id="path226" />
  <path
     style="fill:#231f20;fill-opacity:1;fill-rule:nonzero;stroke:none"
     d="m 176.00843,47.044025 c 0.683,1.167 0.052,1.938 -0.964,2.131 -0.306,0.063 -0.505,0.421 -0.801,0.453 -0.704,0.078 -2.016,-1.062 -1.349,-2.406 0.052,-0.094 0.182,-0.902 0.374,-1.49 0.375,-1.156 1.688,-3.276 4.318,-3.876 1.245,-0.28 1.182,0.511 0.72,0.776 -1.491,0.844 -1.459,1.215 -1.772,1.579 -1.052,1.229 -0.526,2.833 -0.526,2.833"
     id="path227" />
  <path
     style="fill:none;stroke:#231f20;stroke-width:0.332927;stroke-linecap:butt;stroke-linejoin:miter;stroke-miterlimit:4;stroke-dasharray:none;stroke-opacity:1"
     d="m 176.00843,47.044025 c 0.683,1.167 0.052,1.938 -0.964,2.131 -0.306,0.063 -0.505,0.421 -0.801,0.453 -0.704,0.078 -2.016,-1.062 -1.349,-2.406 0.052,-0.094 0.182,-0.902 0.374,-1.49 0.375,-1.156 1.688,-3.276 4.318,-3.876 1.245,-0.28 1.182,0.511 0.72,0.776 -1.491,0.844 -1.459,1.215 -1.772,1.579 -1.052,1.229 -0.526,2.833 -0.526,2.833 z"
     id="path228" />
  <path
     style="fill:#ffffff;fill-opacity:1;fill-rule:nonzero;stroke:none"
     d="m 167.33143,63.664025 c 1.969,1.135 2.5,1.093 3.031,0.298 0.36,-0.538 0.876,-0.902 1.105,-1.215 0.771,-1.047 1.645,-3.115 2.577,-9.624 0.214,-1.48 0.527,-3.547 0.719,-4.391 0.308,-1.324 -2.093,-0.933 -2.224,-0.417 -0.405,1.667 -0.823,2.776 -1.047,3.355 -0.156,0.401 -0.338,1.14 -1.145,2.593 -1.224,2.213 -2.281,3.36 -3.084,5.313 -0.375,0.911 -1.235,1.354 -1.135,2.438 0.083,1.082 1.203,1.65 1.203,1.65"
     id="path229" />
  <path
     style="fill:none;stroke:#231f20;stroke-width:0.565977;stroke-linecap:butt;stroke-linejoin:miter;stroke-miterlimit:4;stroke-dasharray:none;stroke-opacity:1"
     d="m 167.33143,63.664025 c 1.969,1.135 2.5,1.093 3.031,0.298 0.36,-0.538 0.876,-0.902 1.105,-1.215 0.771,-1.047 1.645,-3.115 2.577,-9.624 0.214,-1.48 0.527,-3.547 0.719,-4.391 0.308,-1.324 -2.093,-0.933 -2.224,-0.417 -0.405,1.667 -0.823,2.776 -1.047,3.355 -0.156,0.401 -0.338,1.14 -1.145,2.593 -1.224,2.213 -2.281,3.36 -3.084,5.313 -0.375,0.911 -1.235,1.354 -1.135,2.438 0.083,1.082 1.203,1.65 1.203,1.65 z"
     id="path230" />
  <path
     style="fill:#0098c9;fill-opacity:1;fill-rule:nonzero;stroke:none"
     d="m 154.99843,74.284025 c 1.333,2.839 1.308,3.594 1.344,4.515 0.202,5.777 3.036,5.563 5.38,3.891 2.76,-1.974 3.792,-2.619 0.584,-8.042 -0.891,-1.51 -3.558,-7.734 -3.558,-7.734 -0.652,-2.359 -2.552,-4.312 -3.985,-4.541 -1.52,-0.235 -0.932,-0.031 -2.38,0.005 -1.375,0.03 -3.235,1.188 -3.411,2.406 -0.182,1.172 1.11,2.224 2.771,3.99 1.312,1.395 3.255,5.51 3.255,5.51"
     id="path231" />
  <path
     style="fill:none;stroke:#231f20;stroke-width:0.565977;stroke-linecap:butt;stroke-linejoin:miter;stroke-miterlimit:4;stroke-dasharray:none;stroke-opacity:1"
     d="m 154.99843,74.284025 c 1.333,2.839 1.308,3.594 1.344,4.515 0.202,5.777 3.036,5.563 5.38,3.891 2.76,-1.974 3.792,-2.619 0.584,-8.042 -0.891,-1.51 -3.558,-7.734 -3.558,-7.734 -0.652,-2.359 -2.552,-4.312 -3.985,-4.541 -1.52,-0.235 -0.932,-0.031 -2.38,0.005 -1.375,0.03 -3.235,1.188 -3.411,2.406 -0.182,1.172 1.11,2.224 2.771,3.99 1.312,1.395 3.255,5.51 3.255,5.51 z"
     id="path232" />
  <path
     style="fill:#ffffff;fill-opacity:1;fill-rule:nonzero;stroke:none"
     d="m 149.12843,56.071025 c -0.161,-0.183 0.479,-1.136 0.063,-1.459 -0.417,-0.328 -1.037,0.156 -2.98,-0.281 l -0.02,-0.005 c -1.412,-0.364 -2.772,-0.126 -3.625,0.802 -1.412,1.526 -0.866,4.318 1.208,6.228 2.084,1.918 4.901,2.23 6.308,0.699 1.353,-1.459 0.91,-4.079 -0.954,-5.984"
     id="path233" />
  <path
     style="fill:none;stroke:#231f20;stroke-width:0.565977;stroke-linecap:butt;stroke-linejoin:miter;stroke-miterlimit:4;stroke-dasharray:none;stroke-opacity:1"
     d="m 149.12843,56.071025 c -0.161,-0.183 0.479,-1.136 0.063,-1.459 -0.417,-0.328 -1.037,0.156 -2.98,-0.281 l -0.02,-0.005 c -1.412,-0.364 -2.772,-0.126 -3.625,0.802 -1.412,1.526 -0.866,4.318 1.208,6.228 2.084,1.918 4.901,2.23 6.308,0.699 1.353,-1.459 0.91,-4.079 -0.954,-5.984 z"
     id="path234" />
  <path
     style="fill:#ffffff;fill-opacity:1;fill-rule:nonzero;stroke:#231f20;stroke-width:0.565977;stroke-linecap:round;stroke-linejoin:miter;stroke-miterlimit:4;stroke-dasharray:none;stroke-opacity:1"
     d="m 167.10743,61.169025 c -1.625,0.115 -2.021,2.531 -2.229,2.829 -2.891,4.093 -2.99,4.464 -4.968,7.729 -2.866,4.729 -4.1,8.405 -1.839,10.875 1.536,1.677 3.145,1.978 4.38,1.51 1.359,-0.527 3.468,-2.901 2.672,-5.677 l 0.463,-1.645 c 0.458,-1.074 0.672,-1.61 0.938,-2.11 0.468,-0.896 0.911,-1.87 1.719,-3.657 1.437,-3.161 1.916,-6.973 1.916,-6.973 0.12,-0.287 0.109,-0.569 0.027,-0.828"
     id="path235" />
  <path
     style="fill:#0098c9;fill-opacity:1;fill-rule:nonzero;stroke:none"
     d="m 164.72743,77.847025 -7.344,-2.683 c -1.068,3.604 -1.005,6.339 1.084,7.964 1.791,1.395 3.427,1.422 4.567,0.755 1.25,-0.74 2.942,-3.443 1.693,-6.036"
     id="path236" />
  <path
     style="fill:none;stroke:#231f20;stroke-width:0.565977;stroke-linecap:butt;stroke-linejoin:miter;stroke-miterlimit:4;stroke-dasharray:none;stroke-opacity:1"
     d="m 164.72743,77.847025 -7.344,-2.683 c -1.068,3.604 -1.005,6.339 1.084,7.964 1.791,1.395 3.427,1.422 4.567,0.755 1.25,-0.74 2.942,-3.443 1.693,-6.036 z"
     id="path237" />
  <path
     style="fill:#231f20;fill-opacity:1;fill-rule:nonzero;stroke:none"
     d="m 156.53443,44.966025 c 0.286,0.578 -0.192,2.458 0.037,4.057 0.156,1.073 -0.595,3.715 -0.36,4.772 0.213,0.968 0.219,1.437 -0.844,1.869 -0.635,0.26 -2.02,0.35 -2.233,-0.114 -0.5,-1.084 -0.532,-2.027 -0.339,-3.079 0.213,-1.197 1.083,-4.391 1.301,-4.968 0.538,-1.423 0.314,-2.125 0.423,-2.516 0.197,-0.729 0.531,-0.839 1.031,-0.812 0.958,0.052 0.984,0.791 0.984,0.791"
     id="path238" />
  <path
     style="fill:none;stroke:#231f20;stroke-width:0.565977;stroke-linecap:butt;stroke-linejoin:miter;stroke-miterlimit:4;stroke-dasharray:none;stroke-opacity:1"
     d="m 156.53443,44.966025 c 0.286,0.578 -0.192,2.458 0.037,4.057 0.156,1.073 -0.595,3.715 -0.36,4.772 0.213,0.968 0.219,1.437 -0.844,1.869 -0.635,0.26 -2.02,0.35 -2.233,-0.114 -0.5,-1.084 -0.532,-2.027 -0.339,-3.079 0.213,-1.197 1.083,-4.391 1.301,-4.968 0.538,-1.423 0.314,-2.125 0.423,-2.516 0.197,-0.729 0.531,-0.839 1.031,-0.812 0.958,0.052 0.984,0.791 0.984,0.791 z"
     id="path239" />
  <path
     style="fill:#231f20;fill-opacity:1;fill-rule:nonzero;stroke:none"
     d="m 155.56043,53.971025 c 1.266,0.281 0.468,2.161 0.339,2.677 -0.136,0.538 -0.349,2.074 -0.36,3.297 -0.009,1.224 -0.547,2.75 -0.572,5.074 -0.011,1.224 -0.797,2.411 -2.568,2.312 -1.751,-0.093 -2.36,-1.115 -2.12,-2.593 0.235,-1.481 1.083,-2.767 1.427,-4.24 0.349,-1.475 0.557,-3 0.672,-4.208 0.125,-1.376 0.698,-2.011 1.152,-2.158 1.14,-0.369 2.03,-0.161 2.03,-0.161"
     id="path240" />
  <path
     style="fill:none;stroke:#231f20;stroke-width:0.565977;stroke-linecap:butt;stroke-linejoin:miter;stroke-miterlimit:4;stroke-dasharray:none;stroke-opacity:1"
     d="m 155.56043,53.971025 c 1.266,0.281 0.468,2.161 0.339,2.677 -0.136,0.538 -0.349,2.074 -0.36,3.297 -0.009,1.224 -0.547,2.75 -0.572,5.074 -0.011,1.224 -0.797,2.411 -2.568,2.312 -1.751,-0.093 -2.36,-1.115 -2.12,-2.593 0.235,-1.481 1.083,-2.767 1.427,-4.24 0.349,-1.475 0.557,-3 0.672,-4.208 0.125,-1.376 0.698,-2.011 1.152,-2.158 1.14,-0.369 2.03,-0.161 2.03,-0.161 z"
     id="path241" />
  <path
     style="fill:#ffffff;fill-opacity:1;fill-rule:nonzero;stroke:none"
     d="m 157.58643,43.466025 c -0.015,1.026 -0.854,1.844 -1.886,1.833 -1.025,-0.009 -1.848,-0.853 -1.833,-1.88 0.011,-1.031 0.855,-1.853 1.881,-1.839 1.031,0.011 1.848,0.86 1.838,1.886"
     id="path242" />
  <path
     style="fill:none;stroke:#231f20;stroke-width:1.33171;stroke-linecap:butt;stroke-linejoin:miter;stroke-miterlimit:4;stroke-dasharray:none;stroke-opacity:1"
     d="m 157.58643,43.466025 c -0.015,1.026 -0.854,1.844 -1.886,1.833 -1.025,-0.009 -1.848,-0.853 -1.833,-1.88 0.011,-1.031 0.855,-1.853 1.881,-1.839 1.031,0.011 1.848,0.86 1.838,1.886 z"
     id="path243" />
  <path
     style="fill:#ffffff;fill-opacity:1;fill-rule:nonzero;stroke:none"
     d="m 261.38343,13.580025 c 1.068,2.006 1.541,2.251 2.412,1.855 0.593,-0.265 1.219,-0.303 1.577,-0.443 1.21,-0.484 3.043,-1.776 7.281,-6.8119993 0.959,-1.141 2.319,-2.734 2.928,-3.344 0.963,-0.958 -1.281,-1.901 -1.662,-1.526 -1.228,1.193 -2.167,1.917 -2.671,2.286 -0.339,0.256 -0.887,0.792 -2.339,1.599 -2.209,1.235 -3.713,1.641 -5.427,2.8799993 -0.796,0.573 -1.76,0.496 -2.255,1.469 -0.5,0.959 0.156,2.036 0.156,2.036"
     id="path244" />
  <path
     style="fill:none;stroke:#231f20;stroke-width:0.565977;stroke-linecap:butt;stroke-linejoin:miter;stroke-miterlimit:4;stroke-dasharray:none;stroke-opacity:1"
     d="m 261.38343,13.580025 c 1.068,2.006 1.541,2.251 2.412,1.855 0.593,-0.265 1.219,-0.303 1.577,-0.443 1.21,-0.484 3.043,-1.776 7.281,-6.8119993 0.959,-1.141 2.319,-2.734 2.928,-3.344 0.963,-0.958 -1.281,-1.901 -1.662,-1.526 -1.228,1.193 -2.167,1.917 -2.671,2.286 -0.339,0.256 -0.887,0.792 -2.339,1.599 -2.209,1.235 -3.713,1.641 -5.427,2.8799993 -0.796,0.573 -1.76,0.496 -2.255,1.469 -0.5,0.959 0.156,2.036 0.156,2.036 z"
     id="path245" />
  <path
     style="fill:#0098c9;fill-opacity:1;fill-rule:nonzero;stroke:none"
     d="m 241.82643,30.862025 c 2.698,-1.594 3.453,-1.635 4.365,-1.755 5.733,-0.745 5.26,-3.547 3.369,-5.724 -2.218,-2.563 -2.964,-3.527 -8.057,0.172 -1.421,1.025 -7.369,4.26 -7.369,4.26 -2.287,0.871 -4.052,2.943 -4.147,4.396 -0.093,1.531 0.057,0.932 0.224,2.365 0.156,1.364 1.484,3.11 2.713,3.176 1.188,0.074 2.115,-1.317 3.719,-3.134 1.261,-1.438 5.183,-3.756 5.183,-3.756"
     id="path246" />
  <path
     style="fill:none;stroke:#231f20;stroke-width:0.565977;stroke-linecap:butt;stroke-linejoin:miter;stroke-miterlimit:4;stroke-dasharray:none;stroke-opacity:1"
     d="m 241.82643,30.862025 c 2.698,-1.594 3.453,-1.635 4.365,-1.755 5.733,-0.745 5.26,-3.547 3.369,-5.724 -2.218,-2.563 -2.964,-3.527 -8.057,0.172 -1.421,1.025 -7.369,4.26 -7.369,4.26 -2.287,0.871 -4.052,2.943 -4.147,4.396 -0.093,1.531 0.057,0.932 0.224,2.365 0.156,1.364 1.484,3.11 2.713,3.176 1.188,0.074 2.115,-1.317 3.719,-3.134 1.261,-1.438 5.183,-3.756 5.183,-3.756 z"
     id="path247" />
  <path
     style="fill:#ffffff;fill-opacity:1;fill-rule:nonzero;stroke:none"
     d="m 225.15443,40.388025 c -0.094,0.224 -1.23,0.074 -1.339,0.583 -0.115,0.521 0.6,0.871 1.057,2.803 l 0.006,0.021 c 0.292,1.427 1.109,2.541 2.318,2.9 1.984,0.595 4.255,-1.119 5.056,-3.828 0.808,-2.708 -0.156,-5.38 -2.145,-5.968 -1.901,-0.579 -4.068,0.979 -4.953,3.489"
     id="path248" />
  <path
     style="fill:none;stroke:#231f20;stroke-width:0.565977;stroke-linecap:butt;stroke-linejoin:miter;stroke-miterlimit:4;stroke-dasharray:none;stroke-opacity:1"
     d="m 225.15443,40.388025 c -0.094,0.224 -1.23,0.074 -1.339,0.583 -0.115,0.521 0.6,0.871 1.057,2.803 l 0.006,0.021 c 0.292,1.427 1.109,2.541 2.318,2.9 1.984,0.595 4.255,-1.119 5.056,-3.828 0.808,-2.708 -0.156,-5.38 -2.145,-5.968 -1.901,-0.579 -4.068,0.979 -4.953,3.489 z"
     id="path249" />
  <path
     style="fill:#ffffff;fill-opacity:1;fill-rule:nonzero;stroke:#231f20;stroke-width:0.565977;stroke-linecap:round;stroke-linejoin:miter;stroke-miterlimit:4;stroke-dasharray:none;stroke-opacity:1"
     d="m 262.05043,11.180025 c -1.307,-0.229 -2.631,1.255 -2.927,1.386 -4.62,1.948 -4.901,2.202 -8.308,3.932 -4.932,2.5 -7.921,4.973 -7.312,8.26 0.416,2.229 1.625,3.344 2.921,3.598 1.428,0.267 4.48,-0.629 5.271,-3.41 l 1.267,-1.147 c 0.948,-0.671 1.416,-1.009 1.91,-1.301 0.866,-0.506 1.762,-1.104 3.386,-2.188 2.89,-1.927 5.313,-4.911 5.313,-4.911 0.197,-0.141 0.328,-0.319 0.405,-0.511"
     id="path250" />
  <path
     style="fill:#0098c9;fill-opacity:1;fill-rule:nonzero;stroke:#231f20;stroke-width:0.565977;stroke-linecap:butt;stroke-linejoin:miter;stroke-miterlimit:4;stroke-dasharray:none;stroke-opacity:1"
     d="m 246.85843,18.080025 c -0.496,0.439 -0.928,0.871 -1.328,1.298 -0.068,0.036 -0.142,0.073 -0.204,0.098 -0.76,0.271 -0.974,0.866 -1.282,1.866 -0.765,1.348 -0.989,2.692 -0.484,4.072 0.787,2.125 2.156,3.016 3.479,3.052 1.453,0.037 4.323,-1.359 4.631,-4.228 z"
     id="path251" />
  <path
     style="fill:#231f20;fill-opacity:1;fill-rule:nonzero;stroke:none"
     d="m 214.35243,42.487025 c 0.307,-0.563 2.13,-1.24 3.312,-2.339 0.792,-0.74 3.391,-1.625 4.126,-2.421 0.677,-0.724 1.057,-1 2.02,-0.371 0.573,0.371 1.433,1.459 1.172,1.896 -0.599,1.032 -1.359,1.595 -2.334,2.038 -1.104,0.505 -4.224,1.609 -4.822,1.76 -1.479,0.364 -1.927,0.953 -2.307,1.082 -0.719,0.256 -0.995,0.043 -1.261,-0.385 -0.506,-0.817 0.094,-1.26 0.094,-1.26"
     id="path252" />
  <path
     style="fill:none;stroke:#231f20;stroke-width:0.565977;stroke-linecap:butt;stroke-linejoin:miter;stroke-miterlimit:4;stroke-dasharray:none;stroke-opacity:1"
     d="m 214.35243,42.487025 c 0.307,-0.563 2.13,-1.24 3.312,-2.339 0.792,-0.74 3.391,-1.625 4.126,-2.421 0.677,-0.724 1.057,-1 2.02,-0.371 0.573,0.371 1.433,1.459 1.172,1.896 -0.599,1.032 -1.359,1.595 -2.334,2.038 -1.104,0.505 -4.224,1.609 -4.822,1.76 -1.479,0.364 -1.927,0.953 -2.307,1.082 -0.719,0.256 -0.995,0.043 -1.261,-0.385 -0.506,-0.817 0.094,-1.26 0.094,-1.26 z"
     id="path253" />
  <path
     style="fill:#231f20;fill-opacity:1;fill-rule:nonzero;stroke:none"
     d="m 222.30643,38.159025 c -0.491,-1.197 1.509,-1.615 2.009,-1.803 0.516,-0.192 1.901,-0.894 2.912,-1.582 1.016,-0.688 2.573,-1.115 4.495,-2.418 1.016,-0.686 2.437,-0.718 3.364,0.792 0.922,1.5 0.428,2.579 -0.922,3.219 -1.349,0.652 -2.89,0.688 -4.297,1.24 -1.405,0.557 -2.785,1.255 -3.843,1.855 -1.204,0.676 -2.052,0.566 -2.433,0.276 -0.948,-0.724 -1.285,-1.579 -1.285,-1.579"
     id="path254" />
  <path
     style="fill:none;stroke:#231f20;stroke-width:0.565977;stroke-linecap:butt;stroke-linejoin:miter;stroke-miterlimit:4;stroke-dasharray:none;stroke-opacity:1"
     d="m 222.30643,38.159025 c -0.491,-1.197 1.509,-1.615 2.009,-1.803 0.516,-0.192 1.901,-0.894 2.912,-1.582 1.016,-0.688 2.573,-1.115 4.495,-2.418 1.016,-0.686 2.437,-0.718 3.364,0.792 0.922,1.5 0.428,2.579 -0.922,3.219 -1.349,0.652 -2.89,0.688 -4.297,1.24 -1.405,0.557 -2.785,1.255 -3.843,1.855 -1.204,0.676 -2.052,0.566 -2.433,0.276 -0.948,-0.724 -1.285,-1.579 -1.285,-1.579 z"
     id="path255" />
  <path
     style="fill:#ffffff;fill-opacity:1;fill-rule:nonzero;stroke:none"
     d="m 212.51943,42.482025 c 0.848,-0.578 2.005,-0.354 2.577,0.5 0.579,0.854 0.35,2.01 -0.5,2.578 -0.853,0.578 -2.005,0.354 -2.582,-0.5 -0.579,-0.849 -0.35,-2.005 0.505,-2.578"
     id="path256" />
  <path
     style="fill:none;stroke:#231f20;stroke-width:1.33171;stroke-linecap:butt;stroke-linejoin:miter;stroke-miterlimit:4;stroke-dasharray:none;stroke-opacity:1"
     d="m 212.51943,42.482025 c 0.848,-0.578 2.005,-0.354 2.577,0.5 0.579,0.854 0.35,2.01 -0.5,2.578 -0.853,0.578 -2.005,0.354 -2.582,-0.5 -0.579,-0.849 -0.35,-2.005 0.505,-2.578 z"
     id="path257" />
  <path
     style="fill:#231f20;fill-opacity:1;fill-rule:nonzero;stroke:none"
     d="m 187.78443,55.711025 c 0.162,1.344 -0.718,1.797 -1.729,1.573 -0.307,-0.068 -0.636,0.187 -0.916,0.099 -0.677,-0.208 -1.428,-1.776 -0.281,-2.745 0.082,-0.067 0.525,-0.755 0.937,-1.224 0.801,-0.906 2.848,-2.334 5.5,-1.834 1.255,0.235 0.88,0.939 0.348,0.996 -1.697,0.182 -1.817,0.531 -2.244,0.744 -1.459,0.708 -1.615,2.391 -1.615,2.391"
     id="path258" />
  <path
     style="fill:none;stroke:#231f20;stroke-width:0.332927;stroke-linecap:butt;stroke-linejoin:miter;stroke-miterlimit:4;stroke-dasharray:none;stroke-opacity:1"
     d="m 187.78443,55.711025 c 0.162,1.344 -0.718,1.797 -1.729,1.573 -0.307,-0.068 -0.636,0.187 -0.916,0.099 -0.677,-0.208 -1.428,-1.776 -0.281,-2.745 0.082,-0.067 0.525,-0.755 0.937,-1.224 0.801,-0.906 2.848,-2.334 5.5,-1.834 1.255,0.235 0.88,0.939 0.348,0.996 -1.697,0.182 -1.817,0.531 -2.244,0.744 -1.459,0.708 -1.615,2.391 -1.615,2.391 z"
     id="path259" />
  <path
     style="fill:#231f20;fill-opacity:1;fill-rule:nonzero;stroke:none"
     d="m 277.53343,4.0600257 c -0.041,1.354 -0.978,1.672 -1.948,1.302 -0.29,-0.11 -0.65,0.094 -0.916,-0.036 -0.641,-0.312 -1.15,-1.974 0.126,-2.76 0.093,-0.052 0.634,-0.667 1.104,-1.068 0.932,-0.78199997 3.166,-1.89099997 5.713,-0.99999997 1.208,0.416 0.735,1.05199997 0.203,1.02999997 -1.714,-0.066 -1.88,0.262 -2.334,0.407 -1.552,0.489 -1.948,2.125 -1.948,2.125"
     id="path260" />
  <path
     style="fill:none;stroke:#231f20;stroke-width:0.332927;stroke-linecap:butt;stroke-linejoin:miter;stroke-miterlimit:4;stroke-dasharray:none;stroke-opacity:1"
     d="m 277.53343,4.0600257 c -0.041,1.354 -0.978,1.672 -1.948,1.302 -0.29,-0.11 -0.65,0.094 -0.916,-0.036 -0.641,-0.312 -1.15,-1.974 0.126,-2.76 0.093,-0.052 0.634,-0.667 1.104,-1.068 0.932,-0.78199997 3.166,-1.89099997 5.713,-0.99999997 1.208,0.416 0.735,1.05199997 0.203,1.02999997 -1.714,-0.066 -1.88,0.262 -2.334,0.407 -1.552,0.489 -1.948,2.125 -1.948,2.125 z"
     id="path261" />
</svg>
