<?xml version="1.0" encoding="UTF-8" standalone="no"?>
<!-- Created with Inkscape (http://www.inkscape.org/) -->

<svg
   version="1.1"
   id="svg1"
   width="251.35011"
   height="70.697456"
   viewBox="0 0 251.3501 70.697457"
   sodipodi:docname="cell.svg"
   xmlns:inkscape="http://www.inkscape.org/namespaces/inkscape"
   xmlns:sodipodi="http://sodipodi.sourceforge.net/DTD/sodipodi-0.dtd"
   xmlns="http://www.w3.org/2000/svg"
   xmlns:svg="http://www.w3.org/2000/svg">
  <sodipodi:namedview
     id="namedview1"
     pagecolor="#ffffff"
     bordercolor="#000000"
     borderopacity="0.25"
     inkscape:showpageshadow="2"
     inkscape:pageopacity="0.0"
     inkscape:pagecheckerboard="0"
     inkscape:deskcolor="#d1d1d1">
    <inkscape:page
       x="0"
       y="0"
       inkscape:label="1"
       id="page1"
       width="251.3501"
       height="70.697456"
       margin="0"
       bleed="0" />
  </sodipodi:namedview>
  <defs
     id="defs1" />
  <path
     style="fill:#231f20;fill-opacity:1;fill-rule:nonzero;stroke:none"
     d="m 45.87237,57.647628 c 0.579,-1.219 -0.115,-1.934 -1.145,-2.038 -0.307,-0.041 -0.536,-0.379 -0.834,-0.39 -0.708,-0.01 -1.926,1.24 -1.14,2.516 0.052,0.093 0.255,0.89 0.5,1.458 0.474,1.12 1.963,3.12 4.634998,3.49 1.265,0.172 1.131,-0.61 0.647,-0.828 -1.557998,-0.719 -1.553998,-1.09 -1.890998,-1.427 -1.163,-1.136 -0.772,-2.781 -0.772,-2.781"
     id="path487" />
  <path
     style="fill:none;stroke:#231f20;stroke-width:0.332927;stroke-linecap:butt;stroke-linejoin:miter;stroke-miterlimit:4;stroke-dasharray:none;stroke-opacity:1"
     d="m 45.87237,57.647628 c 0.579,-1.219 -0.115,-1.934 -1.145,-2.038 -0.307,-0.041 -0.536,-0.379 -0.834,-0.39 -0.708,-0.01 -1.926,1.24 -1.14,2.516 0.052,0.093 0.255,0.89 0.5,1.458 0.474,1.12 1.963,3.12 4.634998,3.49 1.265,0.172 1.131,-0.61 0.647,-0.828 -1.557998,-0.719 -1.553998,-1.09 -1.890998,-1.427 -1.163,-1.136 -0.772,-2.781 -0.772,-2.781 z"
     id="path488" />
  <path
     style="fill:#231f20;fill-opacity:1;fill-rule:nonzero;stroke:none"
     d="m 35.80537,41.828628 c 1.859,-1.296 2.396,-1.296 2.995,-0.552 0.401,0.5 0.943,0.823 1.197,1.115 0.86,0.974 1.907,2.964 3.396,9.37 0.339,1.458 0.823,3.489 1.094,4.312 0.412,1.287 -2.01,1.11 -2.176,0.604 -0.548,-1.62 -1.058,-2.692 -1.339,-3.249 -0.188,-0.385 -0.433,-1.105 -1.365,-2.491 -1.402,-2.098 -2.558,-3.145 -3.52,-5.025 -0.454,-0.875 -1.344,-1.245 -1.344,-2.333 -0.011,-1.084 1.062,-1.751 1.062,-1.751"
     id="path489" />
  <path
     style="fill:none;stroke:#231f20;stroke-width:0.565977;stroke-linecap:butt;stroke-linejoin:miter;stroke-miterlimit:4;stroke-dasharray:none;stroke-opacity:1"
     d="m 35.80537,41.828628 c 1.859,-1.296 2.396,-1.296 2.995,-0.552 0.401,0.5 0.943,0.823 1.197,1.115 0.86,0.974 1.907,2.964 3.396,9.37 0.339,1.458 0.823,3.489 1.094,4.312 0.412,1.287 -2.01,1.11 -2.176,0.604 -0.548,-1.62 -1.058,-2.692 -1.339,-3.249 -0.188,-0.385 -0.433,-1.105 -1.365,-2.491 -1.402,-2.098 -2.558,-3.145 -3.52,-5.025 -0.454,-0.875 -1.344,-1.245 -1.344,-2.333 -0.011,-1.084 1.062,-1.751 1.062,-1.751 z"
     id="path490" />
  <path
     style="fill:#0098c9;fill-opacity:1;fill-rule:nonzero;stroke:none"
     d="m 22.12337,18.928628 c 2.683,1.619 3.432,1.676 4.344,1.801 5.724,0.808 5.224,3.604 3.306,5.76 -2.244,2.538 -3,3.496 -8.057,-0.26 -1.401,-1.041 -7.317,-4.344 -7.317,-4.344 -2.281,-0.89 -4.021,-2.978 -4.099,-4.437 -0.084,-1.531 0.063,-0.927 0.25,-2.359 0.172,-1.365 1.51,-3.094 2.745,-3.152 1.187,-0.052 2.104,1.344 3.683,3.178 1.249,1.448 5.145,3.813 5.145,3.813"
     id="path491" />
  <path
     style="fill:none;stroke:#231f20;stroke-width:0.565977;stroke-linecap:butt;stroke-linejoin:miter;stroke-miterlimit:4;stroke-dasharray:none;stroke-opacity:1"
     d="m 22.12337,18.928628 c 2.683,1.619 3.432,1.676 4.344,1.801 5.724,0.808 5.224,3.604 3.306,5.76 -2.244,2.538 -3,3.496 -8.057,-0.26 -1.401,-1.041 -7.317,-4.344 -7.317,-4.344 -2.281,-0.89 -4.021,-2.978 -4.099,-4.437 -0.084,-1.531 0.063,-0.927 0.25,-2.359 0.172,-1.365 1.51,-3.094 2.745,-3.152 1.187,-0.052 2.104,1.344 3.683,3.178 1.249,1.448 5.145,3.813 5.145,3.813 z"
     id="path492" />
  <path
     style="fill:#ffffff;fill-opacity:1;fill-rule:nonzero;stroke:none"
     d="m 4.3723696,15.287628 c -0.238,-0.058 -0.776,0.964 -1.26,0.75 -0.478,-0.214 -0.354,-0.99 -1.656,-2.494 l -0.016,-0.011 c -0.98400005,-1.073 -1.41600005,-2.391 -1.00000005,-3.5789994 0.67800005,-1.964 3.39100005,-2.801 6.05800005,-1.874 2.672,0.921 4.2810004,3.2649994 3.5980004,5.2289994 -0.6450004,1.88 -3.1660004,2.729 -5.7240004,1.979"
     id="path493" />
  <path
     style="fill:none;stroke:#231f20;stroke-width:0.565977;stroke-linecap:butt;stroke-linejoin:miter;stroke-miterlimit:4;stroke-dasharray:none;stroke-opacity:1"
     d="m 4.3723696,15.287628 c -0.238,-0.058 -0.776,0.964 -1.26,0.75 -0.478,-0.214 -0.354,-0.99 -1.656,-2.494 l -0.016,-0.011 c -0.98400005,-1.073 -1.41600005,-2.391 -1.00000005,-3.5789994 0.67800005,-1.964 3.39100005,-2.801 6.05800005,-1.874 2.672,0.921 4.2810004,3.2649994 3.5980004,5.2289994 -0.6450004,1.88 -3.1660004,2.729 -5.7240004,1.979 z"
     id="path494" />
  <path
     style="fill:#231f20;fill-opacity:1;fill-rule:nonzero;stroke:none"
     d="m 37.64837,43.480628 c -3.077,2.572 -4.009,-1.401 -4.317,-1.771 -3.235,-3.829 -3.364,-4.188 -5.62,-7.272 -3.255,-4.468 -4.801,-8.03 -2.76,-10.686 1.385,-1.792 2.964,-2.235 4.234,-1.875 1.396,0.411 3.708,2.593 3.151,5.427 l 0.604,1.604 c 0.547,1.026 0.808,1.541 1.12,2.026 0.536,0.843 1.063,1.78 2.016,3.484 1.703,3.031 2.505,6.792 2.505,6.792 0.588,1.099 -0.933,2.271 -0.933,2.271"
     id="path495" />
  <path
     style="fill:none;stroke:#231f20;stroke-width:0.565977;stroke-linecap:butt;stroke-linejoin:miter;stroke-miterlimit:4;stroke-dasharray:none;stroke-opacity:1"
     d="m 37.64837,43.480628 c -3.077,2.572 -4.009,-1.401 -4.317,-1.771 -3.235,-3.829 -3.364,-4.188 -5.62,-7.272 -3.255,-4.468 -4.801,-8.03 -2.76,-10.686 1.385,-1.792 2.964,-2.235 4.234,-1.875 1.396,0.411 3.708,2.593 3.151,5.427 l 0.604,1.604 c 0.547,1.026 0.808,1.541 1.12,2.026 0.536,0.843 1.063,1.78 2.016,3.484 1.703,3.031 2.505,6.792 2.505,6.792 0.588,1.099 -0.933,2.271 -0.933,2.271 z"
     id="path496" />
  <path
     style="fill:#0098c9;fill-opacity:1;fill-rule:nonzero;stroke:none"
     d="m 29.78437,22.057628 c -1.188,-0.568 -2.817,-0.401 -4.484,1.142 -1.084,1 -1.489,2.296 -1.417,3.848 -0.177,1.026 -0.26,1.657 0.297,2.24 0.047,0.052 0.088,0.12 0.135,0.182 0.163,0.568 0.355,1.146 0.595,1.755 l 7.082,-3.296 c 1.027,-2.699 -0.891,-5.24 -2.208,-5.871"
     id="path497" />
  <path
     style="fill:none;stroke:#231f20;stroke-width:0.565977;stroke-linecap:butt;stroke-linejoin:miter;stroke-miterlimit:4;stroke-dasharray:none;stroke-opacity:1"
     d="m 29.78437,22.057628 c -1.188,-0.568 -2.817,-0.401 -4.484,1.142 -1.084,1 -1.489,2.296 -1.417,3.848 -0.177,1.026 -0.26,1.657 0.297,2.24 0.047,0.052 0.088,0.12 0.135,0.182 0.163,0.568 0.355,1.146 0.595,1.755 l 7.082,-3.296 c 1.027,-2.699 -0.891,-5.24 -2.208,-5.871 z"
     id="path498" />
  <path
     style="fill:#231f20;fill-opacity:1;fill-rule:nonzero;stroke:none"
     d="m 23.91537,33.443628 c 0.093,-0.64 -0.964,-2.282 -1.245,-3.859 -0.192,-1.068 -1.746,-3.333 -1.855,-4.417 -0.104,-0.984 -0.244,-1.432 -1.395,-1.506 -0.682,-0.046 -2.021,0.314 -2.078,0.819 -0.136,1.181 0.136,2.088 0.65,3.025 0.584,1.068 2.418,3.823 2.803,4.298 0.968,1.182 0.973,1.921 1.203,2.254 0.417,0.636 0.765,0.631 1.234,0.448 0.891,-0.353 0.683,-1.062 0.683,-1.062"
     id="path499" />
  <path
     style="fill:none;stroke:#231f20;stroke-width:0.565977;stroke-linecap:butt;stroke-linejoin:miter;stroke-miterlimit:4;stroke-dasharray:none;stroke-opacity:1"
     d="m 23.91537,33.443628 c 0.093,-0.64 -0.964,-2.282 -1.245,-3.859 -0.192,-1.068 -1.746,-3.333 -1.855,-4.417 -0.104,-0.984 -0.244,-1.432 -1.395,-1.506 -0.682,-0.046 -2.021,0.314 -2.078,0.819 -0.136,1.181 0.136,2.088 0.65,3.025 0.584,1.068 2.418,3.823 2.803,4.298 0.968,1.182 0.973,1.921 1.203,2.254 0.417,0.636 0.765,0.631 1.234,0.448 0.891,-0.353 0.683,-1.062 0.683,-1.062 z"
     id="path500" />
  <path
     style="fill:#231f20;fill-opacity:1;fill-rule:nonzero;stroke:none"
     d="m 20.14437,25.204628 c 1.114,-0.667 -0.24,-2.193 -0.532,-2.647 -0.292,-0.458 -0.984,-1.853 -1.38,-3.01 -0.396,-1.162 -1.385,-2.432 -2.145,-4.635 -0.401,-1.156 -1.521,-2.027 -3.167,-1.375 -1.636,0.646 -1.89,1.802 -1.193,3.13 0.693,1.322 1.901,2.276 2.693,3.568 0.796,1.286 1.479,2.672 1.968,3.781 0.552,1.265 1.303,1.688 1.782,1.677 1.193,-0.005 1.974,-0.489 1.974,-0.489"
     id="path501" />
  <path
     style="fill:none;stroke:#231f20;stroke-width:0.565977;stroke-linecap:butt;stroke-linejoin:miter;stroke-miterlimit:4;stroke-dasharray:none;stroke-opacity:1"
     d="m 20.14437,25.204628 c 1.114,-0.667 -0.24,-2.193 -0.532,-2.647 -0.292,-0.458 -0.984,-1.853 -1.38,-3.01 -0.396,-1.162 -1.385,-2.432 -2.145,-4.635 -0.401,-1.156 -1.521,-2.027 -3.167,-1.375 -1.636,0.646 -1.89,1.802 -1.193,3.13 0.693,1.322 1.901,2.276 2.693,3.568 0.796,1.286 1.479,2.672 1.968,3.781 0.552,1.265 1.303,1.688 1.782,1.677 1.193,-0.005 1.974,-0.489 1.974,-0.489 z"
     id="path502" />
  <path
     style="fill:#ffffff;fill-opacity:1;fill-rule:nonzero;stroke:none"
     d="m 25.08737,36.172628 c 0.932,-0.432 1.333,-1.536 0.9,-2.468 -0.432,-0.933 -1.541,-1.339 -2.468,-0.901 -0.932,0.426 -1.339,1.53 -0.907,2.464 0.432,0.932 1.536,1.337 2.475,0.905"
     id="path503" />
  <path
     style="fill:none;stroke:#231f20;stroke-width:1.33171;stroke-linecap:butt;stroke-linejoin:miter;stroke-miterlimit:4;stroke-dasharray:none;stroke-opacity:1"
     d="m 25.08737,36.172628 c 0.932,-0.432 1.333,-1.536 0.9,-2.468 -0.432,-0.933 -1.541,-1.339 -2.468,-0.901 -0.932,0.426 -1.339,1.53 -0.907,2.464 0.432,0.932 1.536,1.337 2.475,0.905 z"
     id="path504" />
  <path
     style="fill:#231f20;fill-opacity:1;fill-rule:nonzero;stroke:none"
     d="m 249.18537,65.068628 c 0.812,-1.079 0.281,-1.916 -0.704,-2.23 -0.296,-0.103 -0.448,-0.483 -0.744,-0.551 -0.688,-0.151 -2.136,0.822 -1.625,2.229 0.036,0.104 0.068,0.921 0.193,1.526 0.233,1.193 1.281,3.458 3.828,4.365 1.197,0.426 1.229,-0.365 0.796,-0.677 -1.375,-1.026 -1.296,-1.381 -1.563,-1.782 -0.9,-1.348 -0.181,-2.88 -0.181,-2.88"
     id="path505" />
  <path
     style="fill:none;stroke:#231f20;stroke-width:0.332927;stroke-linecap:butt;stroke-linejoin:miter;stroke-miterlimit:4;stroke-dasharray:none;stroke-opacity:1"
     d="m 249.18537,65.068628 c 0.812,-1.079 0.281,-1.916 -0.704,-2.23 -0.296,-0.103 -0.448,-0.483 -0.744,-0.551 -0.688,-0.151 -2.136,0.822 -1.625,2.229 0.036,0.104 0.068,0.921 0.193,1.526 0.233,1.193 1.281,3.458 3.828,4.365 1.197,0.426 1.229,-0.365 0.796,-0.677 -1.375,-1.026 -1.296,-1.381 -1.563,-1.782 -0.9,-1.348 -0.181,-2.88 -0.181,-2.88 z"
     id="path506" />
  <path
     style="fill:#231f20;fill-opacity:1;fill-rule:nonzero;stroke:none"
     d="m 242.56037,47.527628 c 2.084,-0.891 2.609,-0.782 3.041,0.073 0.292,0.572 0.756,1 0.948,1.333 0.641,1.13 1.256,3.291 1.412,9.869 0.031,1.495 0.093,3.578 0.187,4.443 0.146,1.344 -2.192,0.678 -2.255,0.145 -0.203,-1.697 -0.484,-2.853 -0.645,-3.453 -0.104,-0.416 -0.199,-1.172 -0.828,-2.718 -0.943,-2.339 -1.86,-3.605 -2.423,-5.64 -0.26,-0.948 -1.057,-1.495 -0.839,-2.558 0.208,-1.057 1.402,-1.494 1.402,-1.494"
     id="path507" />
  <path
     style="fill:none;stroke:#231f20;stroke-width:0.565977;stroke-linecap:butt;stroke-linejoin:miter;stroke-miterlimit:4;stroke-dasharray:none;stroke-opacity:1"
     d="m 242.56037,47.527628 c 2.084,-0.891 2.609,-0.782 3.041,0.073 0.292,0.572 0.756,1 0.948,1.333 0.641,1.13 1.256,3.291 1.412,9.869 0.031,1.495 0.093,3.578 0.187,4.443 0.146,1.344 -2.192,0.678 -2.255,0.145 -0.203,-1.697 -0.484,-2.853 -0.645,-3.453 -0.104,-0.416 -0.199,-1.172 -0.828,-2.718 -0.943,-2.339 -1.86,-3.605 -2.423,-5.64 -0.26,-0.948 -1.057,-1.495 -0.839,-2.558 0.208,-1.057 1.402,-1.494 1.402,-1.494 z"
     id="path508" />
  <path
     style="fill:#0098c9;fill-opacity:1;fill-rule:nonzero;stroke:none"
     d="m 237.52937,21.183628 c 1.109,2.932 1.667,3.442 2.307,4.104 4.005,4.172 1.885,6.057 -0.954,6.573 -3.333,0.609 -4.52,0.896 -6.182,-5.177 -0.458,-1.688 -3.072,-7.938 -3.072,-7.938 -1.24,-2.109 -1.323,-4.828 -0.484,-6.021 0.88,-1.255 0.624,-0.692 1.65,-1.708 0.979,-0.964 3.104,-1.4999994 4.11,-0.776 0.964,0.688 0.822,2.349 0.932,4.771 0.088,1.912 1.693,6.172 1.693,6.172"
     id="path509" />
  <path
     style="fill:none;stroke:#231f20;stroke-width:0.565977;stroke-linecap:butt;stroke-linejoin:miter;stroke-miterlimit:4;stroke-dasharray:none;stroke-opacity:1"
     d="m 237.52937,21.183628 c 1.109,2.932 1.667,3.442 2.307,4.104 4.005,4.172 1.885,6.057 -0.954,6.573 -3.333,0.609 -4.52,0.896 -6.182,-5.177 -0.458,-1.688 -3.072,-7.938 -3.072,-7.938 -1.24,-2.109 -1.323,-4.828 -0.484,-6.021 0.88,-1.255 0.624,-0.692 1.65,-1.708 0.979,-0.964 3.104,-1.4999994 4.11,-0.776 0.964,0.688 0.822,2.349 0.932,4.771 0.088,1.912 1.693,6.172 1.693,6.172 z"
     id="path510" />
  <path
     style="fill:#ffffff;fill-opacity:1;fill-rule:nonzero;stroke:none"
     d="m 225.81437,7.3656286 c -0.156,-0.198 -1.202,0.276 -1.452,-0.188 -0.245,-0.468 0.334,-1 0.239,-2.989 l -0.005,-0.016 c -0.115,-1.453 0.36,-2.755 1.417,-3.43200004 1.749,-1.125 4.401,-0.109 5.927,2.26500004 1.532,2.375 1.349,5.214 -0.402,6.334 -1.666,1.0779994 -4.176,0.193 -5.724,-1.974"
     id="path511" />
  <path
     style="fill:none;stroke:#231f20;stroke-width:0.565977;stroke-linecap:butt;stroke-linejoin:miter;stroke-miterlimit:4;stroke-dasharray:none;stroke-opacity:1"
     d="m 225.81437,7.3656286 c -0.156,-0.198 -1.202,0.276 -1.452,-0.188 -0.245,-0.468 0.334,-1 0.239,-2.989 l -0.005,-0.016 c -0.115,-1.453 0.36,-2.755 1.417,-3.43200004 1.749,-1.125 4.401,-0.109 5.927,2.26500004 1.532,2.375 1.349,5.214 -0.402,6.334 -1.666,1.0779994 -4.176,0.193 -5.724,-1.974 z"
     id="path512" />
  <path
     style="fill:#231f20;fill-opacity:1;fill-rule:nonzero;stroke:none"
     d="m 244.02937,49.516628 c -3.543,1.891 -3.647,-2.193 -3.871,-2.609 -2.38,-4.412 -2.437,-4.792 -4.01,-8.271 -2.28,-5.036 -3.067,-8.839 -0.526,-11.021 1.724,-1.474 3.359,-1.583 4.531,-0.974 1.287,0.687 3.1,3.296 1.975,5.959 l 0.265,1.692 c 0.323,1.115 0.475,1.672 0.677,2.208 0.359,0.943 0.678,1.964 1.266,3.828 1.052,3.313 1.068,7.157 1.068,7.157 0.349,1.198 -1.375,2.031 -1.375,2.031"
     id="path513" />
  <path
     style="fill:none;stroke:#231f20;stroke-width:0.565977;stroke-linecap:butt;stroke-linejoin:miter;stroke-miterlimit:4;stroke-dasharray:none;stroke-opacity:1"
     d="m 244.02937,49.516628 c -3.543,1.891 -3.647,-2.193 -3.871,-2.609 -2.38,-4.412 -2.437,-4.792 -4.01,-8.271 -2.28,-5.036 -3.067,-8.839 -0.526,-11.021 1.724,-1.474 3.359,-1.583 4.531,-0.974 1.287,0.687 3.1,3.296 1.975,5.959 l 0.265,1.692 c 0.323,1.115 0.475,1.672 0.677,2.208 0.359,0.943 0.678,1.964 1.266,3.828 1.052,3.313 1.068,7.157 1.068,7.157 0.349,1.198 -1.375,2.031 -1.375,2.031 z"
     id="path514" />
  <path
     style="fill:#0098c9;fill-opacity:1;fill-rule:nonzero;stroke:none"
     d="m 240.70537,26.943628 c -1.052,-0.802 -2.681,-0.974 -4.629,0.198 -1.262,0.76 -1.923,1.948 -2.167,3.479 -0.385,0.969 -0.595,1.563 -0.172,2.256 0.036,0.061 0.068,0.135 0.099,0.208 0.041,0.583 0.109,1.187 0.218,1.839 l 7.61,-1.782 c 1.552,-2.432 0.198,-5.313 -0.959,-6.198"
     id="path515" />
  <path
     style="fill:none;stroke:#231f20;stroke-width:0.565977;stroke-linecap:butt;stroke-linejoin:miter;stroke-miterlimit:4;stroke-dasharray:none;stroke-opacity:1"
     d="m 240.70537,26.943628 c -1.052,-0.802 -2.681,-0.974 -4.629,0.198 -1.262,0.76 -1.923,1.948 -2.167,3.479 -0.385,0.969 -0.595,1.563 -0.172,2.256 0.036,0.061 0.068,0.135 0.099,0.208 0.041,0.583 0.109,1.187 0.218,1.839 l 7.61,-1.782 c 1.552,-2.432 0.198,-5.313 -0.959,-6.198 z"
     id="path516" />
  <path
     style="fill:#231f20;fill-opacity:1;fill-rule:nonzero;stroke:none"
     d="m 232.13337,33.833628 c 0.421,-0.494 0.396,-2.442 0.995,-3.932 0.401,-1.01 0.292,-3.754 0.77,-4.729 0.432,-0.885 0.552,-1.339 -0.385,-2.016 -0.552,-0.395 -1.875,-0.807 -2.193,-0.405 -0.739,0.932 -0.995,1.844 -1.058,2.91 -0.066,1.215 0.027,4.522 0.1,5.131 0.187,1.511 -0.193,2.141 -0.182,2.547 0.021,0.76 0.317,0.937 0.817,1.032 0.937,0.176 1.136,-0.538 1.136,-0.538"
     id="path517" />
  <path
     style="fill:none;stroke:#231f20;stroke-width:0.565977;stroke-linecap:butt;stroke-linejoin:miter;stroke-miterlimit:4;stroke-dasharray:none;stroke-opacity:1"
     d="m 232.13337,33.833628 c 0.421,-0.494 0.396,-2.442 0.995,-3.932 0.401,-1.01 0.292,-3.754 0.77,-4.729 0.432,-0.885 0.552,-1.339 -0.385,-2.016 -0.552,-0.395 -1.875,-0.807 -2.193,-0.405 -0.739,0.932 -0.995,1.844 -1.058,2.91 -0.066,1.215 0.027,4.522 0.1,5.131 0.187,1.511 -0.193,2.141 -0.182,2.547 0.021,0.76 0.317,0.937 0.817,1.032 0.937,0.176 1.136,-0.538 1.136,-0.538 z"
     id="path518" />
  <path
     style="fill:#231f20;fill-opacity:1;fill-rule:nonzero;stroke:none"
     d="m 233.30537,24.849628 c 1.301,0.027 0.963,-1.984 0.957,-2.526 -0.005,-0.547 0.152,-2.094 0.434,-3.28 0.276,-1.194 0.109,-2.803 0.634,-5.068 0.276,-1.194 -0.213,-2.527 -1.953,-2.85 -1.729,-0.317 -2.557,0.527 -2.677,2.022 -0.114,1.489 0.412,2.942 0.396,4.453 -0.01,1.509 -0.167,3.052 -0.343,4.249 -0.199,1.37 0.208,2.12 0.619,2.364 1.021,0.631 1.933,0.636 1.933,0.636"
     id="path519" />
  <path
     style="fill:none;stroke:#231f20;stroke-width:0.565977;stroke-linecap:butt;stroke-linejoin:miter;stroke-miterlimit:4;stroke-dasharray:none;stroke-opacity:1"
     d="m 233.30537,24.849628 c 1.301,0.027 0.963,-1.984 0.957,-2.526 -0.005,-0.547 0.152,-2.094 0.434,-3.28 0.276,-1.194 0.109,-2.803 0.634,-5.068 0.276,-1.194 -0.213,-2.527 -1.953,-2.85 -1.729,-0.317 -2.557,0.527 -2.677,2.022 -0.114,1.489 0.412,2.942 0.396,4.453 -0.01,1.509 -0.167,3.052 -0.343,4.249 -0.199,1.37 0.208,2.12 0.619,2.364 1.021,0.631 1.933,0.636 1.933,0.636 z"
     id="path520" />
  <path
     style="fill:#ffffff;fill-opacity:1;fill-rule:nonzero;stroke:none"
     d="m 231.68037,36.765628 c 1.02,0.131 1.942,-0.588 2.073,-1.613 0.129,-1.016 -0.595,-1.948 -1.615,-2.073 -1.016,-0.131 -1.948,0.593 -2.078,1.609 -0.126,1.025 0.598,1.948 1.62,2.077"
     id="path521" />
  <path
     style="fill:none;stroke:#231f20;stroke-width:1.33171;stroke-linecap:butt;stroke-linejoin:miter;stroke-miterlimit:4;stroke-dasharray:none;stroke-opacity:1"
     d="m 231.68037,36.765628 c 1.02,0.131 1.942,-0.588 2.073,-1.613 0.129,-1.016 -0.595,-1.948 -1.615,-2.073 -1.016,-0.131 -1.948,0.593 -2.078,1.609 -0.126,1.025 0.598,1.948 1.62,2.077 z"
     id="path522" />
  <path
     style="fill:#231f20;fill-opacity:1;fill-rule:nonzero;stroke:none"
     d="m 118.11237,42.303628 c -0.172,-1.339 -1.14,-1.563 -2.063,-1.094 -0.281,0.13 -0.661,-0.032 -0.916,0.124 -0.598,0.371 -0.948,2.079 0.402,2.73 0.098,0.046 0.697,0.609 1.208,0.953 1.005,0.688 3.338,1.568 5.786,0.427 1.162,-0.531 0.624,-1.12 0.099,-1.042 -1.704,0.235 -1.896,-0.073 -2.365,-0.177 -1.588,-0.328 -2.151,-1.921 -2.151,-1.921"
     id="path523" />
  <path
     style="fill:none;stroke:#231f20;stroke-width:0.332927;stroke-linecap:butt;stroke-linejoin:miter;stroke-miterlimit:4;stroke-dasharray:none;stroke-opacity:1"
     d="m 118.11237,42.303628 c -0.172,-1.339 -1.14,-1.563 -2.063,-1.094 -0.281,0.13 -0.661,-0.032 -0.916,0.124 -0.598,0.371 -0.948,2.079 0.402,2.73 0.098,0.046 0.697,0.609 1.208,0.953 1.005,0.688 3.338,1.568 5.786,0.427 1.162,-0.531 0.624,-1.12 0.099,-1.042 -1.704,0.235 -1.896,-0.073 -2.365,-0.177 -1.588,-0.328 -2.151,-1.921 -2.151,-1.921 z"
     id="path524" />
  <path
     style="fill:#231f20;fill-opacity:1;fill-rule:nonzero;stroke:none"
     d="m 101.09137,34.443628 c 0.865,-2.099 1.313,-2.391 2.22,-2.083 0.609,0.203 1.238,0.177 1.609,0.281 1.249,0.359 3.208,1.468 7.927,6.052 1.068,1.042 2.577,2.49 3.249,3.036 1.048,0.86 -1.088,2.022 -1.505,1.683 -1.338,-1.068 -2.348,-1.693 -2.886,-2.011 -0.364,-0.218 -0.957,-0.692 -2.489,-1.354 -2.317,-1.01 -3.853,-1.266 -5.681,-2.328 -0.855,-0.484 -1.803,-0.318 -2.391,-1.23 -0.595,-0.905 -0.053,-2.046 -0.053,-2.046"
     id="path525" />
  <path
     style="fill:none;stroke:#231f20;stroke-width:0.565977;stroke-linecap:butt;stroke-linejoin:miter;stroke-miterlimit:4;stroke-dasharray:none;stroke-opacity:1"
     d="m 101.09137,34.443628 c 0.865,-2.099 1.313,-2.391 2.22,-2.083 0.609,0.203 1.238,0.177 1.609,0.281 1.249,0.359 3.208,1.468 7.927,6.052 1.068,1.042 2.577,2.49 3.249,3.036 1.048,0.86 -1.088,2.022 -1.505,1.683 -1.338,-1.068 -2.348,-1.693 -2.886,-2.011 -0.364,-0.218 -0.957,-0.692 -2.489,-1.354 -2.317,-1.01 -3.853,-1.266 -5.681,-2.328 -0.855,-0.484 -1.803,-0.318 -2.391,-1.23 -0.595,-0.905 -0.053,-2.046 -0.053,-2.046 z"
     id="path526" />
  <path
     style="fill:#0098c9;fill-opacity:1;fill-rule:nonzero;stroke:none"
     d="m 77.196368,22.573628 c 3.135,-0.084 3.791,-0.448 4.629,-0.833 5.251,-2.417 6.339,0.208 5.896,3.057 -0.516,3.355 -0.634,4.563 -6.916,4.14 -1.745,-0.118 -8.505,0.308 -8.505,0.308 -2.401,0.479 -5,-0.338 -5.849,-1.521 -0.896,-1.244 -0.448,-0.812 -1.068,-2.12 -0.594,-1.239 -0.402,-3.421 0.609,-4.135 0.969,-0.688 2.495,-0.01 4.813,0.683 1.839,0.541 6.391,0.421 6.391,0.421"
     id="path527" />
  <path
     style="fill:none;stroke:#231f20;stroke-width:0.565977;stroke-linecap:butt;stroke-linejoin:miter;stroke-miterlimit:4;stroke-dasharray:none;stroke-opacity:1"
     d="m 77.196368,22.573628 c 3.135,-0.084 3.791,-0.448 4.629,-0.833 5.251,-2.417 6.339,0.208 5.896,3.057 -0.516,3.355 -0.634,4.563 -6.916,4.14 -1.745,-0.118 -8.505,0.308 -8.505,0.308 -2.401,0.479 -5,-0.338 -5.849,-1.521 -0.896,-1.244 -0.448,-0.812 -1.068,-2.12 -0.594,-1.239 -0.402,-3.421 0.609,-4.135 0.969,-0.688 2.495,-0.01 4.813,0.683 1.839,0.541 6.391,0.421 6.391,0.421 z"
     id="path528" />
  <path
     style="fill:#ffffff;fill-opacity:1;fill-rule:nonzero;stroke:none"
     d="m 60.300368,29.115628 c -0.235,0.078 -0.136,1.229 -0.656,1.308 -0.521,0.082 -0.833,-0.642 -2.745,-1.199 l -0.016,-0.005 c -1.411,-0.37 -2.484,-1.244 -2.776,-2.463 -0.495,-2.021 1.333,-4.193 4.078,-4.86 2.75,-0.667 5.37,0.432 5.854,2.453 0.474,1.932 -1.187,4.011 -3.739,4.766"
     id="path529" />
  <path
     style="fill:none;stroke:#231f20;stroke-width:0.565977;stroke-linecap:butt;stroke-linejoin:miter;stroke-miterlimit:4;stroke-dasharray:none;stroke-opacity:1"
     d="m 60.300368,29.115628 c -0.235,0.078 -0.136,1.229 -0.656,1.308 -0.521,0.082 -0.833,-0.642 -2.745,-1.199 l -0.016,-0.005 c -1.411,-0.37 -2.484,-1.244 -2.776,-2.463 -0.495,-2.021 1.333,-4.193 4.078,-4.86 2.75,-0.667 5.37,0.432 5.854,2.453 0.474,1.932 -1.187,4.011 -3.739,4.766 z"
     id="path530" />
  <path
     style="fill:#231f20;fill-opacity:1;fill-rule:nonzero;stroke:none"
     d="m 103.53537,34.828628 c -1.199,3.833 -4.136002,0.995 -4.590002,0.855 -4.792,-1.479 -5.098,-1.708 -8.661,-3.088 -5.156,-1.995 -8.385,-4.152 -8.099,-7.491 0.192,-2.26 1.287,-3.484 2.547,-3.869 1.396,-0.412 4.521,0.177 5.583,2.864 l 1.376,1.021 c 1.014,0.568 1.514,0.86 2.036,1.099 0.912,0.422 1.86,0.922 3.584,1.844 3.072002,1.625 5.780002,4.354 5.780002,4.354 1.089,0.61 0.444,2.411 0.444,2.411"
     id="path531" />
  <path
     style="fill:none;stroke:#231f20;stroke-width:0.565977;stroke-linecap:butt;stroke-linejoin:miter;stroke-miterlimit:4;stroke-dasharray:none;stroke-opacity:1"
     d="m 103.53537,34.828628 c -1.199,3.833 -4.136002,0.995 -4.590002,0.855 -4.792,-1.479 -5.098,-1.708 -8.661,-3.088 -5.156,-1.995 -8.385,-4.152 -8.099,-7.491 0.192,-2.26 1.287,-3.484 2.547,-3.869 1.396,-0.412 4.521,0.177 5.583,2.864 l 1.376,1.021 c 1.014,0.568 1.514,0.86 2.036,1.099 0.912,0.422 1.86,0.922 3.584,1.844 3.072002,1.625 5.780002,4.354 5.780002,4.354 1.089,0.61 0.444,2.411 0.444,2.411 z"
     id="path532" />
  <path
     style="fill:#0098c9;fill-opacity:1;fill-rule:nonzero;stroke:#231f20;stroke-width:0.565977;stroke-linecap:butt;stroke-linejoin:miter;stroke-miterlimit:4;stroke-dasharray:none;stroke-opacity:1"
     d="m 90.367368,24.808628 c -0.599,-2.819 -3.583,-3.923 -5.031,-3.745 -1.307,0.166 -2.588,1.188 -3.156,3.385 -0.369,1.428 -0.011,2.74 0.891,4.005 0.401,0.964 0.672,1.532 1.458,1.724 0.067,0.022 0.14,0.047 0.214,0.079 0.442,0.391 0.91,0.771 1.448,1.156 z"
     id="path533" />
  <path
     style="fill:#231f20;fill-opacity:1;fill-rule:nonzero;stroke:none"
     d="m 86.549368,33.813628 c -0.265,-0.589 -2.036,-1.39 -3.134,-2.573 -0.735,-0.792 -3.267,-1.86 -3.943,-2.708 -0.62,-0.771 -0.98,-1.073 -1.991,-0.516 -0.598,0.333 -1.53,1.36 -1.301,1.812 0.52,1.068 1.24,1.688 2.183,2.199 1.066,0.582 4.098,1.906 4.681,2.098 1.448,0.47 1.855,1.084 2.229,1.246 0.694,0.306 0.984,0.114 1.282,-0.292 0.557,-0.782 -0.006,-1.266 -0.006,-1.266"
     id="path534" />
  <path
     style="fill:none;stroke:#231f20;stroke-width:0.565977;stroke-linecap:butt;stroke-linejoin:miter;stroke-miterlimit:4;stroke-dasharray:none;stroke-opacity:1"
     d="m 86.549368,33.813628 c -0.265,-0.589 -2.036,-1.39 -3.134,-2.573 -0.735,-0.792 -3.267,-1.86 -3.943,-2.708 -0.62,-0.771 -0.98,-1.073 -1.991,-0.516 -0.598,0.333 -1.53,1.36 -1.301,1.812 0.52,1.068 1.24,1.688 2.183,2.199 1.066,0.582 4.098,1.906 4.681,2.098 1.448,0.47 1.855,1.084 2.229,1.246 0.694,0.306 0.984,0.114 1.282,-0.292 0.557,-0.782 -0.006,-1.266 -0.006,-1.266 z"
     id="path535" />
  <path
     style="fill:#231f20;fill-opacity:1;fill-rule:nonzero;stroke:none"
     d="m 78.924368,28.928628 c 0.579,-1.163 -1.385,-1.719 -1.875,-1.943 -0.494,-0.224 -1.833,-1.026 -2.792,-1.786 -0.957,-0.762 -2.484,-1.298 -4.306,-2.735 -0.964,-0.76 -2.375,-0.891 -3.412,0.552 -1.026,1.427 -0.615,2.536 0.688,3.281 1.302,0.74 2.833,0.886 4.193,1.542 1.369,0.65 2.692,1.448 3.703,2.12 1.15,0.765 2.005,0.713 2.406,0.448 1,-0.656 1.395,-1.479 1.395,-1.479"
     id="path536" />
  <path
     style="fill:none;stroke:#231f20;stroke-width:0.565977;stroke-linecap:butt;stroke-linejoin:miter;stroke-miterlimit:4;stroke-dasharray:none;stroke-opacity:1"
     d="m 78.924368,28.928628 c 0.579,-1.163 -1.385,-1.719 -1.875,-1.943 -0.494,-0.224 -1.833,-1.026 -2.792,-1.786 -0.957,-0.762 -2.484,-1.298 -4.306,-2.735 -0.964,-0.76 -2.375,-0.891 -3.412,0.552 -1.026,1.427 -0.615,2.536 0.688,3.281 1.302,0.74 2.833,0.886 4.193,1.542 1.369,0.65 2.692,1.448 3.703,2.12 1.15,0.765 2.005,0.713 2.406,0.448 1,-0.656 1.395,-1.479 1.395,-1.479 z"
     id="path537" />
  <path
     style="fill:#ffffff;fill-opacity:1;fill-rule:nonzero;stroke:none"
     d="m 89.013368,35.480628 c 0.552,-0.871 0.292,-2.016 -0.578,-2.568 -0.864,-0.547 -2.015,-0.292 -2.563,0.577 -0.552,0.866 -0.296,2.016 0.573,2.568 0.87,0.547 2.016,0.292 2.568,-0.577"
     id="path538" />
  <path
     style="fill:none;stroke:#231f20;stroke-width:1.33171;stroke-linecap:butt;stroke-linejoin:miter;stroke-miterlimit:4;stroke-dasharray:none;stroke-opacity:1"
     d="m 89.013368,35.480628 c 0.552,-0.871 0.292,-2.016 -0.578,-2.568 -0.864,-0.547 -2.015,-0.292 -2.563,0.577 -0.552,0.866 -0.296,2.016 0.573,2.568 0.87,0.547 2.016,0.292 2.568,-0.577 z"
     id="path539" />
  <path
     style="fill:#231f20;fill-opacity:1;fill-rule:nonzero;stroke:none"
     d="m 135.36337,35.573628 c 0.577,1.224 1.566,1.14 2.301,0.412 0.224,-0.214 0.636,-0.172 0.833,-0.396 0.459,-0.537 0.266,-2.27 -1.218,-2.48 -0.104,-0.014 -0.85,-0.369 -1.438,-0.541 -1.172,-0.344 -3.661,-0.469 -5.645,1.36 -0.939,0.864 -0.251,1.26 0.228,1.025 1.548,-0.744 1.829,-0.51 2.303,-0.557 1.614,-0.167 2.636,1.177 2.636,1.177"
     id="path540" />
  <path
     style="fill:none;stroke:#231f20;stroke-width:0.332927;stroke-linecap:butt;stroke-linejoin:miter;stroke-miterlimit:4;stroke-dasharray:none;stroke-opacity:1"
     d="m 135.36337,35.573628 c 0.577,1.224 1.566,1.14 2.301,0.412 0.224,-0.214 0.636,-0.172 0.833,-0.396 0.459,-0.537 0.266,-2.27 -1.218,-2.48 -0.104,-0.014 -0.85,-0.369 -1.438,-0.541 -1.172,-0.344 -3.661,-0.469 -5.645,1.36 -0.939,0.864 -0.251,1.26 0.228,1.025 1.548,-0.744 1.829,-0.51 2.303,-0.557 1.614,-0.167 2.636,1.177 2.636,1.177 z"
     id="path541" />
  <path
     style="fill:#231f20;fill-opacity:1;fill-rule:nonzero;stroke:none"
     d="m 153.97237,37.865628 c -0.183,2.26 -0.521,2.672 -1.48,2.662 -0.64,-0.011 -1.235,0.202 -1.62,0.218 -1.296,0.042 -3.495,-0.417 -9.391,-3.344 -1.337,-0.661 -3.218,-1.578 -4.02,-1.896 -1.26,-0.5 0.422,-2.254 0.916,-2.068 1.604,0.61 2.751,0.902 3.36,1.038 0.416,0.098 1.131,0.369 2.787,0.53 2.515,0.256 4.057,0.027 6.124,0.48 0.959,0.208 1.813,-0.245 2.652,0.448 0.839,0.676 0.672,1.932 0.672,1.932"
     id="path542" />
  <path
     style="fill:none;stroke:#231f20;stroke-width:0.565977;stroke-linecap:butt;stroke-linejoin:miter;stroke-miterlimit:4;stroke-dasharray:none;stroke-opacity:1"
     d="m 153.97237,37.865628 c -0.183,2.26 -0.521,2.672 -1.48,2.662 -0.64,-0.011 -1.235,0.202 -1.62,0.218 -1.296,0.042 -3.495,-0.417 -9.391,-3.344 -1.337,-0.661 -3.218,-1.578 -4.02,-1.896 -1.26,-0.5 0.422,-2.254 0.916,-2.068 1.604,0.61 2.751,0.902 3.36,1.038 0.416,0.098 1.131,0.369 2.787,0.53 2.515,0.256 4.057,0.027 6.124,0.48 0.959,0.208 1.813,-0.245 2.652,0.448 0.839,0.676 0.672,1.932 0.672,1.932 z"
     id="path543" />
  <path
     style="fill:#0098c9;fill-opacity:1;fill-rule:nonzero;stroke:none"
     d="m 180.31037,40.219628 c -2.734,1.542 -3.146,2.172 -3.709,2.906 -3.511,4.588 -5.697,2.782 -6.64,0.058 -1.109,-3.208 -1.573,-4.334 4.177,-6.896 1.599,-0.714 7.38,-4.244 7.38,-4.244 1.896,-1.554 4.572,-2.043 5.875,-1.396 1.375,0.681 0.781,0.509 1.937,1.374 1.104,0.818 1.954,2.839 1.396,3.943 -0.536,1.057 -2.197,1.172 -4.573,1.645 -1.88,0.376 -5.843,2.61 -5.843,2.61"
     id="path544" />
  <path
     style="fill:none;stroke:#231f20;stroke-width:0.565977;stroke-linecap:butt;stroke-linejoin:miter;stroke-miterlimit:4;stroke-dasharray:none;stroke-opacity:1"
     d="m 180.31037,40.219628 c -2.734,1.542 -3.146,2.172 -3.709,2.906 -3.511,4.588 -5.697,2.782 -6.64,0.058 -1.109,-3.208 -1.573,-4.334 4.177,-6.896 1.599,-0.714 7.38,-4.244 7.38,-4.244 1.896,-1.554 4.572,-2.043 5.875,-1.396 1.375,0.681 0.781,0.509 1.937,1.374 1.104,0.818 1.954,2.839 1.396,3.943 -0.536,1.057 -2.197,1.172 -4.573,1.645 -1.88,0.376 -5.843,2.61 -5.843,2.61 z"
     id="path545" />
  <path
     style="fill:#ffffff;fill-opacity:1;fill-rule:nonzero;stroke:none"
     d="m 192.18537,26.543628 c 0.172,-0.183 -0.453,-1.147 -0.032,-1.464 0.423,-0.314 1.037,0.177 2.985,-0.224 l 0.02,-0.006 c 1.418,-0.333 2.776,-0.057 3.604,0.886 1.382,1.557 0.782,4.328 -1.333,6.198 -2.119,1.875 -4.948,2.13 -6.323,0.567 -1.322,-1.484 -0.828,-4.099 1.079,-5.957"
     id="path546" />
  <path
     style="fill:none;stroke:#231f20;stroke-width:0.565977;stroke-linecap:butt;stroke-linejoin:miter;stroke-miterlimit:4;stroke-dasharray:none;stroke-opacity:1"
     d="m 192.18537,26.543628 c 0.172,-0.183 -0.453,-1.147 -0.032,-1.464 0.423,-0.314 1.037,0.177 2.985,-0.224 l 0.02,-0.006 c 1.418,-0.333 2.776,-0.057 3.604,0.886 1.382,1.557 0.782,4.328 -1.333,6.198 -2.119,1.875 -4.948,2.13 -6.323,0.567 -1.322,-1.484 -0.828,-4.099 1.079,-5.957 z"
     id="path547" />
  <path
     style="fill:#231f20;fill-opacity:1;fill-rule:nonzero;stroke:none"
     d="m 151.52937,38.240628 c -0.026,-4.016 3.635,-2.208 4.11,-2.213 5.014,-0.052 5.374,0.068 9.186,0.296 5.521,0.324 9.256,1.396 10,4.662 0.505,2.214 -0.161,3.714 -1.244,4.458 -1.204,0.824 -4.36,1.213 -6.193,-1.02 l -1.62,-0.552 c -1.14,-0.23 -1.703,-0.355 -2.276,-0.428 -0.995,-0.12 -2.047,-0.307 -3.974,-0.656 -3.422,-0.615 -6.833,-2.386 -6.833,-2.386 -1.218,-0.245 -1.156,-2.161 -1.156,-2.161"
     id="path548" />
  <path
     style="fill:none;stroke:#231f20;stroke-width:0.565977;stroke-linecap:butt;stroke-linejoin:miter;stroke-miterlimit:4;stroke-dasharray:none;stroke-opacity:1"
     d="m 151.52937,38.240628 c -0.026,-4.016 3.635,-2.208 4.11,-2.213 5.014,-0.052 5.374,0.068 9.186,0.296 5.521,0.324 9.256,1.396 10,4.662 0.505,2.214 -0.161,3.714 -1.244,4.458 -1.204,0.824 -4.36,1.213 -6.193,-1.02 l -1.62,-0.552 c -1.14,-0.23 -1.703,-0.355 -2.276,-0.428 -0.995,-0.12 -2.047,-0.307 -3.974,-0.656 -3.422,-0.615 -6.833,-2.386 -6.833,-2.386 -1.218,-0.245 -1.156,-2.161 -1.156,-2.161 z"
     id="path549" />
  <path
     style="fill:#0098c9;fill-opacity:1;fill-rule:nonzero;stroke:none"
     d="m 175.03337,41.604628 c -0.088,-1.468 -0.828,-2.609 -2.072,-3.536 -0.677,-0.792 -1.109,-1.255 -1.917,-1.203 -0.072,0.006 -0.151,0 -0.23,-0.005 -0.536,-0.235 -1.104,-0.459 -1.728,-0.661 l -1.958,7.562 c 1.426,2.506 4.609,2.646 5.932,2.036 1.193,-0.562 2.104,-1.926 1.973,-4.193"
     id="path550" />
  <path
     style="fill:none;stroke:#231f20;stroke-width:0.565977;stroke-linecap:butt;stroke-linejoin:miter;stroke-miterlimit:4;stroke-dasharray:none;stroke-opacity:1"
     d="m 175.03337,41.604628 c -0.088,-1.468 -0.828,-2.609 -2.072,-3.536 -0.677,-0.792 -1.109,-1.255 -1.917,-1.203 -0.072,0.006 -0.151,0 -0.23,-0.005 -0.536,-0.235 -1.104,-0.459 -1.728,-0.661 l -1.958,7.562 c 1.426,2.506 4.609,2.646 5.932,2.036 1.193,-0.562 2.104,-1.926 1.973,-4.193 z"
     id="path551" />
  <path
     style="fill:#231f20;fill-opacity:1;fill-rule:nonzero;stroke:none"
     d="m 166.77837,34.661628 c 0.511,0.396 2.459,0.276 3.975,0.808 1.025,0.359 3.765,0.115 4.76,0.552 0.907,0.391 1.364,0.49 1.995,-0.478 0.374,-0.568 0.718,-1.912 0.306,-2.21 -0.962,-0.697 -1.885,-0.91 -2.957,-0.921 -1.213,-0.011 -4.516,0.235 -5.12,0.339 -1.5,0.26 -2.151,-0.095 -2.552,-0.063 -0.761,0.057 -0.923,0.359 -0.995,0.859 -0.13,0.948 0.588,1.114 0.588,1.114"
     id="path552" />
  <path
     style="fill:none;stroke:#231f20;stroke-width:0.565977;stroke-linecap:butt;stroke-linejoin:miter;stroke-miterlimit:4;stroke-dasharray:none;stroke-opacity:1"
     d="m 166.77837,34.661628 c 0.511,0.396 2.459,0.276 3.975,0.808 1.025,0.359 3.765,0.115 4.76,0.552 0.907,0.391 1.364,0.49 1.995,-0.478 0.374,-0.568 0.718,-1.912 0.306,-2.21 -0.962,-0.697 -1.885,-0.91 -2.957,-0.921 -1.213,-0.011 -4.516,0.235 -5.12,0.339 -1.5,0.26 -2.151,-0.095 -2.552,-0.063 -0.761,0.057 -0.923,0.359 -0.995,0.859 -0.13,0.948 0.588,1.114 0.588,1.114 z"
     id="path553" />
  <path
     style="fill:#231f20;fill-opacity:1;fill-rule:nonzero;stroke:none"
     d="m 175.81037,35.417628 c 0.031,1.296 2.026,0.87 2.562,0.839 0.548,-0.032 2.105,0.052 3.302,0.276 1.203,0.224 2.803,-0.016 5.094,0.405 1.204,0.219 2.51,-0.328 2.75,-2.088 0.244,-1.74 -0.641,-2.526 -2.141,-2.578 -1.495,-0.047 -2.916,0.542 -4.427,0.6 -1.51,0.062 -3.057,-0.022 -4.265,-0.147 -1.375,-0.135 -2.104,0.313 -2.333,0.729 -0.584,1.047 -0.542,1.964 -0.542,1.964"
     id="path554" />
  <path
     style="fill:none;stroke:#231f20;stroke-width:0.565977;stroke-linecap:butt;stroke-linejoin:miter;stroke-miterlimit:4;stroke-dasharray:none;stroke-opacity:1"
     d="m 175.81037,35.417628 c 0.031,1.296 2.026,0.87 2.562,0.839 0.548,-0.032 2.105,0.052 3.302,0.276 1.203,0.224 2.803,-0.016 5.094,0.405 1.204,0.219 2.51,-0.328 2.75,-2.088 0.244,-1.74 -0.641,-2.526 -2.141,-2.578 -1.495,-0.047 -2.916,0.542 -4.427,0.6 -1.51,0.062 -3.057,-0.022 -4.265,-0.147 -1.375,-0.135 -2.104,0.313 -2.333,0.729 -0.584,1.047 -0.542,1.964 -0.542,1.964 z"
     id="path555" />
  <path
     style="fill:#ffffff;fill-opacity:1;fill-rule:nonzero;stroke:none"
     d="m 163.83037,34.339628 c -0.082,1.026 0.683,1.917 1.704,2 1.026,0.084 1.922,-0.683 2,-1.708 0.083,-1.022 -0.682,-1.922 -1.709,-2 -1.02,-0.079 -1.916,0.682 -1.995,1.708"
     id="path556" />
  <path
     style="fill:none;stroke:#231f20;stroke-width:1.33171;stroke-linecap:butt;stroke-linejoin:miter;stroke-miterlimit:4;stroke-dasharray:none;stroke-opacity:1"
     d="m 163.83037,34.339628 c -0.082,1.026 0.683,1.917 1.704,2 1.026,0.084 1.922,-0.683 2,-1.708 0.083,-1.022 -0.682,-1.922 -1.709,-2 -1.02,-0.079 -1.916,0.682 -1.995,1.708 z"
     id="path557" />
  <path
     style="fill:none;stroke:#231f20;stroke-width:0.399514;stroke-linecap:butt;stroke-linejoin:miter;stroke-miterlimit:4;stroke-dasharray:none;stroke-opacity:1"
     d="m 70.461368,40.177628 c 5.151,25.979 39.344002,29.199 46.359002,27.318"
     id="path558" />
  <path
     style="fill:#231f20;fill-opacity:1;fill-rule:nonzero;stroke:none"
     d="m 117.98137,67.183628 c -0.489,0.349 -1.077,0.88 -1.4,1.359 l 0.083,-1.005 -0.577,-0.828 c 0.52,0.25 1.296,0.416 1.894,0.474"
     id="path559" />
</svg>
