<?xml version="1.0" encoding="UTF-8" standalone="no"?>
<!-- Created with Inkscape (http://www.inkscape.org/) -->

<svg
   version="1.1"
   id="svg1"
   width="360.46698"
   height="129.83641"
   viewBox="0 0 360.46697 129.83641"
   sodipodi:docname="cell.svg"
   xmlns:inkscape="http://www.inkscape.org/namespaces/inkscape"
   xmlns:sodipodi="http://sodipodi.sourceforge.net/DTD/sodipodi-0.dtd"
   xmlns="http://www.w3.org/2000/svg"
   xmlns:svg="http://www.w3.org/2000/svg">
  <sodipodi:namedview
     id="namedview1"
     pagecolor="#ffffff"
     bordercolor="#000000"
     borderopacity="0.25"
     inkscape:showpageshadow="2"
     inkscape:pageopacity="0.0"
     inkscape:pagecheckerboard="0"
     inkscape:deskcolor="#d1d1d1">
    <inkscape:page
       x="0"
       y="0"
       inkscape:label="1"
       id="page1"
       width="360.46698"
       height="129.83641"
       margin="0"
       bleed="0" />
  </sodipodi:namedview>
  <defs
     id="defs1" />
  <path
     style="fill:#ffffff;fill-opacity:1;fill-rule:nonzero;stroke:none"
     d="m 166.099,18.874 h 18.874 V 0 h -18.874 z"
     id="path587" />
  <path
     style="fill:#ffffff;fill-opacity:1;fill-rule:nonzero;stroke:none"
     d="M 0,18.874 H 18.875 V 0 H 0 Z"
     id="path588" />
  <path
     style="fill:#ffffff;fill-opacity:1;fill-rule:nonzero;stroke:none"
     d="m 343.541,18.874 h 16.926 V 0 h -16.926 z"
     id="path589" />
  <path
     style="fill:#0098c9;fill-opacity:1;fill-rule:nonzero;stroke:none"
     d="m 299.234,62.568 c 0.11,-3.136 0.479,-3.787 0.875,-4.62 2.464,-5.235 -0.151,-6.344 -3.005,-5.927 -3.355,0.484 -4.568,0.593 -4.203,6.88 0.104,1.744 -0.381,8.505 -0.381,8.505 -0.5,2.396 0.286,5 1.464,5.859 1.234,0.912 0.808,0.453 2.109,1.089 1.235,0.604 3.417,0.432 4.147,-0.573 0.686,-0.964 0.025,-2.489 -0.642,-4.823 -0.525,-1.833 -0.364,-6.39 -0.364,-6.39"
     id="path590" />
  <path
     style="fill:none;stroke:#231f20;stroke-width:0.565977;stroke-linecap:butt;stroke-linejoin:miter;stroke-miterlimit:4;stroke-dasharray:none;stroke-opacity:1"
     d="m 299.234,62.568 c 0.11,-3.136 0.479,-3.787 0.875,-4.62 2.464,-5.235 -0.151,-6.344 -3.005,-5.927 -3.355,0.484 -4.568,0.593 -4.203,6.88 0.104,1.744 -0.381,8.505 -0.381,8.505 -0.5,2.396 0.286,5 1.464,5.859 1.234,0.912 0.808,0.453 2.109,1.089 1.235,0.604 3.417,0.432 4.147,-0.573 0.686,-0.964 0.025,-2.489 -0.642,-4.823 -0.525,-1.833 -0.364,-6.39 -0.364,-6.39 z"
     id="path591" />
  <path
     style="fill:#0098c9;fill-opacity:1;fill-rule:nonzero;stroke:none"
     d="m 37.344,62.942 c -1.125,-3.322 -1.609,-4.172 -2.073,-5.218 -2.339,-5.282 -3.631,-5.146 -5.86,-4.271 -3.156,1.24 -4.765,2.219 -1.911,7.833 2.167,4.255 3.172,7.73 3.172,7.73 0.011,1.869 1.448,5.166 2.235,5.62 1.328,0.77 1.099,0.582 2.541,0.645 2.672,0.131 3.292,-0.901 3.572,-2.052 0.282,-1.156 0.172,-2.188 -0.394,-4.943 -0.434,-2.136 -1.282,-5.344 -1.282,-5.344"
     id="path592" />
  <path
     style="fill:none;stroke:#231f20;stroke-width:0.565977;stroke-linecap:butt;stroke-linejoin:miter;stroke-miterlimit:4;stroke-dasharray:none;stroke-opacity:1"
     d="m 37.344,62.942 c -1.125,-3.322 -1.609,-4.172 -2.073,-5.218 -2.339,-5.282 -3.631,-5.146 -5.86,-4.271 -3.156,1.24 -4.765,2.219 -1.911,7.833 2.167,4.255 3.172,7.73 3.172,7.73 0.011,1.869 1.448,5.166 2.235,5.62 1.328,0.77 1.099,0.582 2.541,0.645 2.672,0.131 3.292,-0.901 3.572,-2.052 0.282,-1.156 0.172,-2.188 -0.394,-4.943 -0.434,-2.136 -1.282,-5.344 -1.282,-5.344 z"
     id="path593" />
  <path
     style="fill:#ffffff;fill-opacity:1;fill-rule:nonzero;stroke:none"
     d="m 39.23,81.546 c 0.156,0.183 -0.49,1.136 -0.079,1.464 0.417,0.323 1.041,-0.156 2.979,0.287 l 0.026,0.005 c 1.407,0.375 2.771,0.135 3.626,-0.786 1.41,-1.527 0.885,-4.314 -1.194,-6.23 -2.068,-1.926 -4.89,-2.25 -6.301,-0.729 -1.36,1.459 -0.923,4.084 0.943,5.989"
     id="path594" />
  <path
     style="fill:none;stroke:#231f20;stroke-width:0.565977;stroke-linecap:butt;stroke-linejoin:miter;stroke-miterlimit:4;stroke-dasharray:none;stroke-opacity:1"
     d="m 39.23,81.546 c 0.156,0.183 -0.49,1.136 -0.079,1.464 0.417,0.323 1.041,-0.156 2.979,0.287 l 0.026,0.005 c 1.407,0.375 2.771,0.135 3.626,-0.786 1.41,-1.527 0.885,-4.314 -1.194,-6.23 -2.068,-1.926 -4.89,-2.25 -6.301,-0.729 -1.36,1.459 -0.923,4.084 0.943,5.989 z"
     id="path595" />
  <path
     style="fill:#231f20;fill-opacity:1;fill-rule:nonzero;stroke:none"
     d="m 32.422,92.281 c -0.307,-0.568 0.125,-2.469 -0.151,-4.052 -0.183,-1.073 0.495,-3.735 0.229,-4.781 -0.24,-0.964 -0.26,-1.432 0.792,-1.896 0.624,-0.271 2.006,-0.402 2.234,0.057 0.532,1.063 0.584,2.011 0.428,3.068 -0.183,1.197 -0.97,4.421 -1.162,5 -0.5,1.437 -0.256,2.135 -0.354,2.525 -0.178,0.74 -0.506,0.855 -1.011,0.839 -0.959,-0.02 -1.005,-0.76 -1.005,-0.76"
     id="path596" />
  <path
     style="fill:none;stroke:#231f20;stroke-width:0.565977;stroke-linecap:butt;stroke-linejoin:miter;stroke-miterlimit:4;stroke-dasharray:none;stroke-opacity:1"
     d="m 32.422,92.281 c -0.307,-0.568 0.125,-2.469 -0.151,-4.052 -0.183,-1.073 0.495,-3.735 0.229,-4.781 -0.24,-0.964 -0.26,-1.432 0.792,-1.896 0.624,-0.271 2.006,-0.402 2.234,0.057 0.532,1.063 0.584,2.011 0.428,3.068 -0.183,1.197 -0.97,4.421 -1.162,5 -0.5,1.437 -0.256,2.135 -0.354,2.525 -0.178,0.74 -0.506,0.855 -1.011,0.839 -0.959,-0.02 -1.005,-0.76 -1.005,-0.76 z"
     id="path597" />
  <path
     style="fill:#231f20;fill-opacity:1;fill-rule:nonzero;stroke:none"
     d="m 33.146,83.245 c -1.276,-0.24 -0.531,-2.141 -0.416,-2.667 0.124,-0.532 0.29,-2.078 0.265,-3.297 -0.021,-1.224 0.473,-2.76 0.427,-5.088 -0.015,-1.224 0.74,-2.428 2.516,-2.381 1.749,0.042 2.385,1.048 2.188,2.532 -0.194,1.484 -1.011,2.792 -1.308,4.27 -0.307,1.484 -0.474,3.022 -0.552,4.235 -0.088,1.38 -0.646,2.031 -1.099,2.187 -1.12,0.396 -2.021,0.209 -2.021,0.209"
     id="path598" />
  <path
     style="fill:none;stroke:#231f20;stroke-width:0.565977;stroke-linecap:butt;stroke-linejoin:miter;stroke-miterlimit:4;stroke-dasharray:none;stroke-opacity:1"
     d="m 33.146,83.245 c -1.276,-0.24 -0.531,-2.141 -0.416,-2.667 0.124,-0.532 0.29,-2.078 0.265,-3.297 -0.021,-1.224 0.473,-2.76 0.427,-5.088 -0.015,-1.224 0.74,-2.428 2.516,-2.381 1.749,0.042 2.385,1.048 2.188,2.532 -0.194,1.484 -1.011,2.792 -1.308,4.27 -0.307,1.484 -0.474,3.022 -0.552,4.235 -0.088,1.38 -0.646,2.031 -1.099,2.187 -1.12,0.396 -2.021,0.209 -2.021,0.209 z"
     id="path599" />
  <path
     style="fill:#ffffff;fill-opacity:1;fill-rule:nonzero;stroke:none"
     d="m 31.719,92.354 c -0.651,0.787 -0.547,1.958 0.245,2.61 0.786,0.656 1.968,0.552 2.614,-0.24 0.657,-0.787 0.552,-1.964 -0.239,-2.62 -0.797,-0.656 -1.969,-0.547 -2.62,0.25"
     id="path600" />
  <path
     style="fill:none;stroke:#231f20;stroke-width:1.33171;stroke-linecap:butt;stroke-linejoin:miter;stroke-miterlimit:4;stroke-dasharray:none;stroke-opacity:1"
     d="m 31.719,92.354 c -0.651,0.787 -0.547,1.958 0.245,2.61 0.786,0.656 1.968,0.552 2.614,-0.24 0.657,-0.787 0.552,-1.964 -0.239,-2.62 -0.797,-0.656 -1.969,-0.547 -2.62,0.25 z"
     id="path601" />
  <path
     style="fill:#ffffff;fill-opacity:1;fill-rule:nonzero;stroke:none"
     d="m 32.703,73.65 c -2.26,0.1 -2.692,0.423 -2.708,1.386 -0.021,0.641 -0.251,1.218 -0.276,1.609 -0.093,1.297 0.287,3.511 3.005,9.505 0.62,1.355 1.474,3.272 1.755,4.084 0.453,1.276 2.271,-0.338 2.095,-0.844 C 36.026,87.765 35.782,86.609 35.656,86 35.578,85.578 35.328,84.86 35.23,83.193 35.063,80.672 35.344,79.136 34.968,77.057 34.787,76.084 35.271,75.25 34.615,74.39 33.964,73.526 32.703,73.65 32.703,73.65"
     id="path602" />
  <path
     style="fill:none;stroke:#231f20;stroke-width:0.565977;stroke-linecap:butt;stroke-linejoin:miter;stroke-miterlimit:4;stroke-dasharray:none;stroke-opacity:1"
     d="m 32.703,73.65 c -2.26,0.1 -2.692,0.423 -2.708,1.386 -0.021,0.641 -0.251,1.218 -0.276,1.609 -0.093,1.297 0.287,3.511 3.005,9.505 0.62,1.355 1.474,3.272 1.755,4.084 0.453,1.276 2.271,-0.338 2.095,-0.844 C 36.026,87.765 35.782,86.609 35.656,86 35.578,85.578 35.328,84.86 35.23,83.193 35.063,80.672 35.344,79.136 34.968,77.057 34.787,76.084 35.271,75.25 34.615,74.39 33.964,73.526 32.703,73.65 32.703,73.65 Z"
     id="path603" />
  <path
     style="fill:#ffffff;fill-opacity:1;fill-rule:nonzero;stroke:#231f20;stroke-width:0.565977;stroke-linecap:round;stroke-linejoin:round;stroke-miterlimit:4;stroke-dasharray:none;stroke-opacity:1"
     d="m 34.474,75.422 c 0.953,-1.057 0.109,-3.037 0.125,-3.376 0.229,-5.005 0.12,-5.369 0.032,-9.192 -0.131,-5.526 -1.063,-9.292 -4.308,-10.156 -2.193,-0.584 -3.713,0.036 -4.5,1.083 -0.864,1.183 -1.364,4.317 0.803,6.235 l 0.494,1.634 c 0.192,1.152 0.291,1.71 0.348,2.287 0.084,0.995 0.23,2.057 0.516,4 0.49,3.437 2.142,6.912 2.142,6.912 0.046,0.301 0.202,0.531 0.416,0.708"
     id="path604" />
  <path
     style="fill:#231f20;fill-opacity:1;fill-rule:nonzero;stroke:none"
     d="M 34.339,92.333 C 33.14,91.708 33.25,90.724 34.006,90.01 c 0.224,-0.213 0.197,-0.63 0.426,-0.812 0.547,-0.438 2.282,-0.182 2.438,1.307 0.01,0.104 0.333,0.855 0.489,1.453 0.297,1.178 0.339,3.678 -1.563,5.594 -0.894,0.901 -1.265,0.204 -1.02,-0.271 0.802,-1.516 0.583,-1.807 0.64,-2.276 0.235,-1.604 -1.077,-2.672 -1.077,-2.672"
     id="path605" />
  <path
     style="fill:none;stroke:#231f20;stroke-width:0.332927;stroke-linecap:butt;stroke-linejoin:miter;stroke-miterlimit:4;stroke-dasharray:none;stroke-opacity:1"
     d="M 34.339,92.333 C 33.14,91.708 33.25,90.724 34.006,90.01 c 0.224,-0.213 0.197,-0.63 0.426,-0.812 0.547,-0.438 2.282,-0.182 2.438,1.307 0.01,0.104 0.333,0.855 0.489,1.453 0.297,1.178 0.339,3.678 -1.563,5.594 -0.894,0.901 -1.265,0.204 -1.02,-0.271 0.802,-1.516 0.583,-1.807 0.64,-2.276 0.235,-1.604 -1.077,-2.672 -1.077,-2.672 z"
     id="path606" />
  <path
     style="fill:#0098c9;fill-opacity:1;fill-rule:nonzero;stroke:none"
     d="m 30.911,52.734 c -2.124,-0.792 -3.703,-0.328 -4.583,0.646 -0.974,1.089 -1.781,4.161 0.198,6.276 l 7.802,0.354 c -0.062,-3.756 -0.932,-6.349 -3.417,-7.276"
     id="path607" />
  <path
     style="fill:none;stroke:#231f20;stroke-width:0.565977;stroke-linecap:butt;stroke-linejoin:miter;stroke-miterlimit:4;stroke-dasharray:none;stroke-opacity:1"
     d="m 30.911,52.734 c -2.124,-0.792 -3.703,-0.328 -4.583,0.646 -0.974,1.089 -1.781,4.161 0.198,6.276 l 7.802,0.354 c -0.062,-3.756 -0.932,-6.349 -3.417,-7.276 z"
     id="path608" />
  <path
     style="fill:#0098c9;fill-opacity:1;fill-rule:nonzero;stroke:none"
     d="m 99.645,82.578 c 2.396,-2.568 2.912,-3.396 3.615,-4.297 3.547,-4.563 2.817,-5.636 0.989,-7.183 -2.588,-2.197 -4.208,-3.145 -7.801,2.022 -2.724,3.926 -5.313,6.453 -5.313,6.453 -1.64,0.891 -3.859,3.719 -3.891,4.625 -0.047,1.536 0.005,1.244 0.636,2.547 1.151,2.416 2.349,2.473 3.5,2.172 1.145,-0.297 2.005,-0.881 4.167,-2.683 1.677,-1.396 4.098,-3.656 4.098,-3.656"
     id="path609" />
  <path
     style="fill:none;stroke:#231f20;stroke-width:0.565977;stroke-linecap:butt;stroke-linejoin:miter;stroke-miterlimit:4;stroke-dasharray:none;stroke-opacity:1"
     d="m 99.645,82.578 c 2.396,-2.568 2.912,-3.396 3.615,-4.297 3.547,-4.563 2.817,-5.636 0.989,-7.183 -2.588,-2.197 -4.208,-3.145 -7.801,2.022 -2.724,3.926 -5.313,6.453 -5.313,6.453 -1.64,0.891 -3.859,3.719 -3.891,4.625 -0.047,1.536 0.005,1.244 0.636,2.547 1.151,2.416 2.349,2.473 3.5,2.172 1.145,-0.297 2.005,-0.881 4.167,-2.683 1.677,-1.396 4.098,-3.656 4.098,-3.656 z"
     id="path610" />
  <path
     style="fill:#ffffff;fill-opacity:1;fill-rule:nonzero;stroke:none"
     d="m 84.151,93.041 c -0.088,0.224 -1.235,0.109 -1.328,0.625 -0.083,0.516 0.631,0.844 1.156,2.76 l 0.005,0.022 c 0.339,1.417 1.199,2.505 2.412,2.822 2.015,0.527 4.219,-1.26 4.927,-3.994 0.713,-2.74 -0.334,-5.375 -2.344,-5.896 -1.927,-0.511 -4.031,1.114 -4.828,3.661"
     id="path611" />
  <path
     style="fill:none;stroke:#231f20;stroke-width:0.565977;stroke-linecap:butt;stroke-linejoin:miter;stroke-miterlimit:4;stroke-dasharray:none;stroke-opacity:1"
     d="m 84.151,93.041 c -0.088,0.224 -1.235,0.109 -1.328,0.625 -0.083,0.516 0.631,0.844 1.156,2.76 l 0.005,0.022 c 0.339,1.417 1.199,2.505 2.412,2.822 2.015,0.527 4.219,-1.26 4.927,-3.994 0.713,-2.74 -0.334,-5.375 -2.344,-5.896 -1.927,-0.511 -4.031,1.114 -4.828,3.661 z"
     id="path612" />
  <path
     style="fill:#231f20;fill-opacity:1;fill-rule:nonzero;stroke:none"
     d="m 71.474,92.125 c 0.354,-0.537 2.229,-1.057 3.494,-2.047 0.86,-0.672 3.527,-1.333 4.324,-2.068 0.734,-0.666 1.14,-0.901 2.047,-0.193 0.531,0.417 1.296,1.573 1.005,1.991 -0.688,0.973 -1.494,1.468 -2.505,1.828 -1.141,0.405 -4.349,1.244 -4.953,1.342 -1.5,0.24 -2,0.787 -2.391,0.887 -0.735,0.192 -0.989,-0.043 -1.219,-0.496 -0.432,-0.853 0.198,-1.244 0.198,-1.244"
     id="path613" />
  <path
     style="fill:none;stroke:#231f20;stroke-width:0.565977;stroke-linecap:butt;stroke-linejoin:miter;stroke-miterlimit:4;stroke-dasharray:none;stroke-opacity:1"
     d="m 71.474,92.125 c 0.354,-0.537 2.229,-1.057 3.494,-2.047 0.86,-0.672 3.527,-1.333 4.324,-2.068 0.734,-0.666 1.14,-0.901 2.047,-0.193 0.531,0.417 1.296,1.573 1.005,1.991 -0.688,0.973 -1.494,1.468 -2.505,1.828 -1.141,0.405 -4.349,1.244 -4.953,1.342 -1.5,0.24 -2,0.787 -2.391,0.887 -0.735,0.192 -0.989,-0.043 -1.219,-0.496 -0.432,-0.853 0.198,-1.244 0.198,-1.244 z"
     id="path614" />
  <path
     style="fill:#231f20;fill-opacity:1;fill-rule:nonzero;stroke:none"
     d="m 79.771,88.484 c -0.385,-1.234 1.636,-1.474 2.156,-1.624 0.527,-0.142 1.964,-0.73 3.027,-1.328 1.072,-0.6 2.661,-0.891 4.686,-2.032 1.068,-0.594 2.485,-0.5 3.287,1.084 0.792,1.566 0.208,2.604 -1.192,3.129 -1.396,0.532 -2.939,0.432 -4.386,0.871 -1.447,0.432 -2.881,1.009 -3.99,1.514 -1.255,0.579 -2.088,0.396 -2.443,0.074 -0.88,-0.807 -1.145,-1.688 -1.145,-1.688"
     id="path615" />
  <path
     style="fill:none;stroke:#231f20;stroke-width:0.565977;stroke-linecap:butt;stroke-linejoin:miter;stroke-miterlimit:4;stroke-dasharray:none;stroke-opacity:1"
     d="m 79.771,88.484 c -0.385,-1.234 1.636,-1.474 2.156,-1.624 0.527,-0.142 1.964,-0.73 3.027,-1.328 1.072,-0.6 2.661,-0.891 4.686,-2.032 1.068,-0.594 2.485,-0.5 3.287,1.084 0.792,1.566 0.208,2.604 -1.192,3.129 -1.396,0.532 -2.939,0.432 -4.386,0.871 -1.447,0.432 -2.881,1.009 -3.99,1.514 -1.255,0.579 -2.088,0.396 -2.443,0.074 -0.88,-0.807 -1.145,-1.688 -1.145,-1.688 z"
     id="path616" />
  <path
     style="fill:#ffffff;fill-opacity:1;fill-rule:nonzero;stroke:none"
     d="m 71.074,91.541 c -1,-0.203 -1.986,0.443 -2.183,1.448 -0.208,1.011 0.443,1.995 1.448,2.193 1.011,0.203 1.995,-0.442 2.197,-1.448 0.199,-1.016 -0.453,-1.994 -1.462,-2.193"
     id="path617" />
  <path
     style="fill:none;stroke:#231f20;stroke-width:1.33171;stroke-linecap:butt;stroke-linejoin:miter;stroke-miterlimit:4;stroke-dasharray:none;stroke-opacity:1"
     d="m 71.074,91.541 c -1,-0.203 -1.986,0.443 -2.183,1.448 -0.208,1.011 0.443,1.995 1.448,2.193 1.011,0.203 1.995,-0.442 2.197,-1.448 0.199,-1.016 -0.453,-1.994 -1.462,-2.193 z"
     id="path618" />
  <path
     style="fill:#ffffff;fill-opacity:1;fill-rule:nonzero;stroke:none"
     d="m 88.016,83.557 c -1.157,-1.948 -1.646,-2.172 -2.5,-1.735 -0.573,0.287 -1.198,0.36 -1.552,0.522 -1.182,0.53 -2.958,1.916 -6.953,7.145 -0.896,1.188 -2.183,2.849 -2.767,3.48 -0.905,1.005 1.376,1.843 1.74,1.448 1.167,-1.256 2.074,-2.016 2.552,-2.412 0.334,-0.271 0.85,-0.833 2.271,-1.708 2.141,-1.339 3.625,-1.819 5.281,-3.136 0.771,-0.615 1.735,-0.583 2.177,-1.573 0.459,-0.984 -0.249,-2.031 -0.249,-2.031"
     id="path619" />
  <path
     style="fill:none;stroke:#231f20;stroke-width:0.565977;stroke-linecap:butt;stroke-linejoin:miter;stroke-miterlimit:4;stroke-dasharray:none;stroke-opacity:1"
     d="m 88.016,83.557 c -1.157,-1.948 -1.646,-2.172 -2.5,-1.735 -0.573,0.287 -1.198,0.36 -1.552,0.522 -1.182,0.53 -2.958,1.916 -6.953,7.145 -0.896,1.188 -2.183,2.849 -2.767,3.48 -0.905,1.005 1.376,1.843 1.74,1.448 1.167,-1.256 2.074,-2.016 2.552,-2.412 0.334,-0.271 0.85,-0.833 2.271,-1.708 2.141,-1.339 3.625,-1.819 5.281,-3.136 0.771,-0.615 1.735,-0.583 2.177,-1.573 0.459,-0.984 -0.249,-2.031 -0.249,-2.031 z"
     id="path620" />
  <path
     style="fill:#ffffff;fill-opacity:1;fill-rule:nonzero;stroke:#231f20;stroke-width:0.565977;stroke-linecap:round;stroke-linejoin:round;stroke-miterlimit:4;stroke-dasharray:none;stroke-opacity:1"
     d="m 87.297,85.953 c 1.375,0.339 2.723,-1.339 3.031,-1.484 4.521,-2.167 4.787,-2.437 8.109,-4.324 4.807,-2.733 7.683,-5.337 6.912,-8.604 -0.526,-2.208 -1.792,-3.255 -3.089,-3.448 -1.448,-0.203 -4.448,0.839 -5.109,3.652 l -1.203,1.208 c -0.928,0.719 -1.375,1.073 -1.855,1.391 -0.838,0.546 -1.702,1.182 -3.276,2.354 -2.797,2.058 -5.077,5.151 -5.077,5.151 -0.245,0.187 -0.37,0.432 -0.422,0.703"
     id="path621" />
  <path
     style="fill:#231f20;fill-opacity:1;fill-rule:nonzero;stroke:none"
     d="m 72.334,93.838 c -0.022,-1.354 0.901,-1.718 1.885,-1.396 0.297,0.099 0.645,-0.12 0.921,-0.005 0.647,0.276 1.24,1.923 0,2.765 -0.082,0.058 -0.593,0.699 -1.052,1.12 -0.89,0.819 -3.072,2.038 -5.661,1.271 -1.224,-0.364 -0.781,-1.02 -0.244,-1.025 1.713,-0.016 1.864,-0.344 2.307,-0.516 1.526,-0.558 1.844,-2.214 1.844,-2.214"
     id="path622" />
  <path
     style="fill:none;stroke:#231f20;stroke-width:0.332927;stroke-linecap:butt;stroke-linejoin:miter;stroke-miterlimit:4;stroke-dasharray:none;stroke-opacity:1"
     d="m 72.334,93.838 c -0.022,-1.354 0.901,-1.718 1.885,-1.396 0.297,0.099 0.645,-0.12 0.921,-0.005 0.647,0.276 1.24,1.923 0,2.765 -0.082,0.058 -0.593,0.699 -1.052,1.12 -0.89,0.819 -3.072,2.038 -5.661,1.271 -1.224,-0.364 -0.781,-1.02 -0.244,-1.025 1.713,-0.016 1.864,-0.344 2.307,-0.516 1.526,-0.558 1.844,-2.214 1.844,-2.214 z"
     id="path623" />
  <path
     style="fill:#0098c9;fill-opacity:1;fill-rule:nonzero;stroke:none"
     d="m 105.588,72.078 c -0.301,-2.25 -1.459,-3.417 -2.735,-3.734 -1.416,-0.344 -4.509,0.401 -5.437,3.145 l 3.385,7.043 c 3.282,-1.834 5.152,-3.83 4.787,-6.454"
     id="path624" />
  <path
     style="fill:none;stroke:#231f20;stroke-width:0.565977;stroke-linecap:butt;stroke-linejoin:miter;stroke-miterlimit:4;stroke-dasharray:none;stroke-opacity:1"
     d="m 105.588,72.078 c -0.301,-2.25 -1.459,-3.417 -2.735,-3.734 -1.416,-0.344 -4.509,0.401 -5.437,3.145 l 3.385,7.043 c 3.282,-1.834 5.152,-3.83 4.787,-6.454 z"
     id="path625" />
  <path
     style="fill:#0098c9;fill-opacity:1;fill-rule:nonzero;stroke:none"
     d="m 126.396,122.885 c 2.421,2.546 3.213,3.114 4.072,3.87 4.344,3.812 5.453,3.151 7.109,1.422 2.35,-2.454 3.396,-4.016 -1.546,-7.912 -3.755,-2.958 -6.124,-5.692 -6.124,-5.692 -0.787,-1.694 -3.48,-4.079 -4.387,-4.162 -1.525,-0.141 -1.239,-0.068 -2.577,0.479 -2.48,1.005 -2.61,2.199 -2.375,3.364 0.228,1.163 0.755,2.057 2.427,4.324 1.292,1.755 3.401,4.307 3.401,4.307"
     id="path626" />
  <path
     style="fill:none;stroke:#231f20;stroke-width:0.565977;stroke-linecap:butt;stroke-linejoin:miter;stroke-miterlimit:4;stroke-dasharray:none;stroke-opacity:1"
     d="m 126.396,122.885 c 2.421,2.546 3.213,3.114 4.072,3.87 4.344,3.812 5.453,3.151 7.109,1.422 2.35,-2.454 3.396,-4.016 -1.546,-7.912 -3.755,-2.958 -6.124,-5.692 -6.124,-5.692 -0.787,-1.694 -3.48,-4.079 -4.387,-4.162 -1.525,-0.141 -1.239,-0.068 -2.577,0.479 -2.48,1.005 -2.61,2.199 -2.375,3.364 0.228,1.163 0.755,2.057 2.427,4.324 1.292,1.755 3.401,4.307 3.401,4.307 z"
     id="path627" />
  <path
     style="fill:#ffffff;fill-opacity:1;fill-rule:nonzero;stroke:none"
     d="m 116.885,106.791 c -0.224,-0.098 -0.036,-1.24 -0.541,-1.36 -0.516,-0.12 -0.885,0.579 -2.833,0.991 l -0.022,0.004 c -1.432,0.245 -2.573,1.043 -2.958,2.235 -0.646,1.98 1.005,4.286 3.693,5.156 2.687,0.881 5.385,-0.01 6.025,-1.984 0.626,-1.891 -0.874,-4.094 -3.364,-5.042"
     id="path628" />
  <path
     style="fill:none;stroke:#231f20;stroke-width:0.565977;stroke-linecap:butt;stroke-linejoin:miter;stroke-miterlimit:4;stroke-dasharray:none;stroke-opacity:1"
     d="m 116.885,106.791 c -0.224,-0.098 -0.036,-1.24 -0.541,-1.36 -0.516,-0.12 -0.885,0.579 -2.833,0.991 l -0.022,0.004 c -1.432,0.245 -2.573,1.043 -2.958,2.235 -0.646,1.98 1.005,4.286 3.693,5.156 2.687,0.881 5.385,-0.01 6.025,-1.984 0.626,-1.891 -0.874,-4.094 -3.364,-5.042 z"
     id="path629" />
  <path
     style="fill:#231f20;fill-opacity:1;fill-rule:nonzero;stroke:none"
     d="m 118.557,94.193 c 0.516,0.385 0.922,2.291 1.839,3.609 0.615,0.9 1.12,3.599 1.801,4.443 0.62,0.77 0.828,1.186 0.068,2.052 -0.448,0.505 -1.65,1.202 -2.046,0.885 -0.927,-0.745 -1.375,-1.584 -1.678,-2.609 -0.333,-1.162 -0.973,-4.417 -1.041,-5.021 -0.147,-1.52 -0.667,-2.047 -0.74,-2.448 -0.145,-0.739 0.104,-0.984 0.568,-1.183 0.88,-0.385 1.229,0.272 1.229,0.272"
     id="path630" />
  <path
     style="fill:none;stroke:#231f20;stroke-width:0.565977;stroke-linecap:butt;stroke-linejoin:miter;stroke-miterlimit:4;stroke-dasharray:none;stroke-opacity:1"
     d="m 118.557,94.193 c 0.516,0.385 0.922,2.291 1.839,3.609 0.615,0.9 1.12,3.599 1.801,4.443 0.62,0.77 0.828,1.186 0.068,2.052 -0.448,0.505 -1.65,1.202 -2.046,0.885 -0.927,-0.745 -1.375,-1.584 -1.678,-2.609 -0.333,-1.162 -0.973,-4.417 -1.041,-5.021 -0.147,-1.52 -0.667,-2.047 -0.74,-2.448 -0.145,-0.739 0.104,-0.984 0.568,-1.183 0.88,-0.385 1.229,0.272 1.229,0.272 z"
     id="path631" />
  <path
     style="fill:#231f20;fill-opacity:1;fill-rule:nonzero;stroke:none"
     d="m 121.692,102.693 c 1.256,-0.308 1.376,1.724 1.495,2.249 0.11,0.536 0.609,2.005 1.141,3.104 0.536,1.104 0.729,2.709 1.749,4.803 0.532,1.098 0.35,2.51 -1.281,3.213 -1.609,0.697 -2.609,0.047 -3.052,-1.38 -0.447,-1.428 -0.255,-2.959 -0.604,-4.428 -0.344,-1.473 -0.833,-2.937 -1.271,-4.077 -0.505,-1.287 -0.27,-2.11 0.074,-2.443 0.853,-0.828 1.749,-1.041 1.749,-1.041"
     id="path632" />
  <path
     style="fill:none;stroke:#231f20;stroke-width:0.565977;stroke-linecap:butt;stroke-linejoin:miter;stroke-miterlimit:4;stroke-dasharray:none;stroke-opacity:1"
     d="m 121.692,102.693 c 1.256,-0.308 1.376,1.724 1.495,2.249 0.11,0.536 0.609,2.005 1.141,3.104 0.536,1.104 0.729,2.709 1.749,4.803 0.532,1.098 0.35,2.51 -1.281,3.213 -1.609,0.697 -2.609,0.047 -3.052,-1.38 -0.447,-1.428 -0.255,-2.959 -0.604,-4.428 -0.344,-1.473 -0.833,-2.937 -1.271,-4.077 -0.505,-1.287 -0.27,-2.11 0.074,-2.443 0.853,-0.828 1.749,-1.041 1.749,-1.041 z"
     id="path633" />
  <path
     style="fill:#ffffff;fill-opacity:1;fill-rule:nonzero;stroke:none"
     d="m 119.167,93.828 c 0.265,-0.984 -0.328,-2.006 -1.314,-2.266 -0.994,-0.265 -2.02,0.328 -2.276,1.318 -0.265,0.989 0.319,2.016 1.314,2.276 1,0.261 2.016,-0.328 2.276,-1.328"
     id="path634" />
  <path
     style="fill:none;stroke:#231f20;stroke-width:1.33171;stroke-linecap:butt;stroke-linejoin:miter;stroke-miterlimit:4;stroke-dasharray:none;stroke-opacity:1"
     d="m 119.167,93.828 c 0.265,-0.984 -0.328,-2.006 -1.314,-2.266 -0.994,-0.265 -2.02,0.328 -2.276,1.318 -0.265,0.989 0.319,2.016 1.314,2.276 1,0.261 2.016,-0.328 2.276,-1.328 z"
     id="path635" />
  <path
     style="fill:#ffffff;fill-opacity:1;fill-rule:nonzero;stroke:none"
     d="m 126.12,111.218 c 2.009,-1.036 2.265,-1.511 1.875,-2.391 -0.251,-0.588 -0.282,-1.213 -0.422,-1.577 -0.458,-1.215 -1.734,-3.068 -6.72,-7.37 -1.129,-0.968 -2.708,-2.348 -3.306,-2.968 -0.943,-0.97 -1.916,1.26 -1.547,1.645 1.183,1.245 1.891,2.193 2.255,2.693 0.25,0.348 0.776,0.9 1.568,2.369 1.208,2.219 1.593,3.73 2.812,5.459 0.568,0.807 0.48,1.765 1.438,2.271 0.958,0.516 2.047,-0.131 2.047,-0.131"
     id="path636" />
  <path
     style="fill:none;stroke:#231f20;stroke-width:0.565977;stroke-linecap:butt;stroke-linejoin:miter;stroke-miterlimit:4;stroke-dasharray:none;stroke-opacity:1"
     d="m 126.12,111.218 c 2.009,-1.036 2.265,-1.511 1.875,-2.391 -0.251,-0.588 -0.282,-1.213 -0.422,-1.577 -0.458,-1.215 -1.734,-3.068 -6.72,-7.37 -1.129,-0.968 -2.708,-2.348 -3.306,-2.968 -0.943,-0.97 -1.916,1.26 -1.547,1.645 1.183,1.245 1.891,2.193 2.255,2.693 0.25,0.348 0.776,0.9 1.568,2.369 1.208,2.219 1.593,3.73 2.812,5.459 0.568,0.807 0.48,1.765 1.438,2.271 0.958,0.516 2.047,-0.131 2.047,-0.131 z"
     id="path637" />
  <path
     style="fill:#ffffff;fill-opacity:1;fill-rule:nonzero;stroke:#231f20;stroke-width:0.565977;stroke-linecap:round;stroke-linejoin:round;stroke-miterlimit:4;stroke-dasharray:none;stroke-opacity:1"
     d="m 123.765,110.359 c -0.416,1.354 1.178,2.796 1.308,3.115 1.891,4.64 2.14,4.927 3.828,8.353 2.438,4.964 4.864,7.984 8.172,7.418 2.234,-0.396 3.354,-1.595 3.624,-2.876 0.292,-1.438 -0.572,-4.495 -3.338,-5.323 l -1.135,-1.276 c -0.661,-0.963 -0.984,-1.432 -1.276,-1.927 -0.495,-0.869 -1.079,-1.776 -2.152,-3.417 -1.885,-2.911 -4.837,-5.375 -4.837,-5.375 -0.172,-0.254 -0.407,-0.401 -0.678,-0.468"
     id="path638" />
  <path
     style="fill:#231f20;fill-opacity:1;fill-rule:nonzero;stroke:none"
     d="m 116.796,94.948 c 1.349,0.062 1.663,1.005 1.277,1.969 -0.114,0.285 0.083,0.651 -0.048,0.916 -0.312,0.631 -1.989,1.125 -2.76,-0.161 -0.052,-0.088 -0.661,-0.64 -1.052,-1.12 -0.765,-0.938 -1.849,-3.187 -0.932,-5.73 0.438,-1.197 1.068,-0.718 1.042,-0.181 -0.094,1.713 0.229,1.88 0.374,2.333 0.464,1.558 2.099,1.974 2.099,1.974"
     id="path639" />
  <path
     style="fill:none;stroke:#231f20;stroke-width:0.332927;stroke-linecap:butt;stroke-linejoin:miter;stroke-miterlimit:4;stroke-dasharray:none;stroke-opacity:1"
     d="m 116.796,94.948 c 1.349,0.062 1.663,1.005 1.277,1.969 -0.114,0.285 0.083,0.651 -0.048,0.916 -0.312,0.631 -1.989,1.125 -2.76,-0.161 -0.052,-0.088 -0.661,-0.64 -1.052,-1.12 -0.765,-0.938 -1.849,-3.187 -0.932,-5.73 0.438,-1.197 1.068,-0.718 1.042,-0.181 -0.094,1.713 0.229,1.88 0.374,2.333 0.464,1.558 2.099,1.974 2.099,1.974 z"
     id="path640" />
  <path
     style="fill:#0098c9;fill-opacity:1;fill-rule:nonzero;stroke:none"
     d="m 137.604,121.327 -7.24,2.959 c 1.636,3.385 3.516,5.369 6.156,5.167 2.261,-0.167 3.5,-1.255 3.891,-2.511 0.428,-1.391 -0.13,-4.525 -2.807,-5.615"
     id="path641" />
  <path
     style="fill:none;stroke:#231f20;stroke-width:0.565977;stroke-linecap:butt;stroke-linejoin:miter;stroke-miterlimit:4;stroke-dasharray:none;stroke-opacity:1"
     d="m 137.604,121.327 -7.24,2.959 c 1.636,3.385 3.516,5.369 6.156,5.167 2.261,-0.167 3.5,-1.255 3.891,-2.511 0.428,-1.391 -0.13,-4.525 -2.807,-5.615 z"
     id="path642" />
  <path
     style="fill:#0098c9;fill-opacity:1;fill-rule:nonzero;stroke:none"
     d="m 154.401,66.432 c -2.906,-1.974 -3.802,-2.359 -4.802,-2.911 -5.052,-2.797 -5.995,-1.917 -7.25,0.124 -1.772,2.896 -2.458,4.647 3.203,7.401 4.297,2.09 7.192,4.256 7.192,4.256 1.131,1.484 4.272,3.239 5.172,3.13 1.521,-0.187 1.229,-0.198 2.417,-1.02 2.208,-1.511 2.083,-2.699 1.61,-3.792 -0.475,-1.088 -1.183,-1.844 -3.298,-3.703 -1.634,-1.439 -4.244,-3.485 -4.244,-3.485"
     id="path643" />
  <path
     style="fill:none;stroke:#231f20;stroke-width:0.565977;stroke-linecap:butt;stroke-linejoin:miter;stroke-miterlimit:4;stroke-dasharray:none;stroke-opacity:1"
     d="m 154.401,66.432 c -2.906,-1.974 -3.802,-2.359 -4.802,-2.911 -5.052,-2.797 -5.995,-1.917 -7.25,0.124 -1.772,2.896 -2.458,4.647 3.203,7.401 4.297,2.09 7.192,4.256 7.192,4.256 1.131,1.484 4.272,3.239 5.172,3.13 1.521,-0.187 1.229,-0.198 2.417,-1.02 2.208,-1.511 2.083,-2.699 1.61,-3.792 -0.475,-1.088 -1.183,-1.844 -3.298,-3.703 -1.634,-1.439 -4.244,-3.485 -4.244,-3.485 z"
     id="path644" />
  <path
     style="fill:#ffffff;fill-opacity:1;fill-rule:nonzero;stroke:none"
     d="m 167.125,80.13 c 0.239,0.052 0.302,1.203 0.823,1.214 0.525,0.005 0.739,-0.756 2.552,-1.568 l 0.02,-0.011 c 1.349,-0.552 2.292,-1.567 2.417,-2.817 0.208,-2.074 -1.896,-3.974 -4.708,-4.25 -2.813,-0.286 -5.256,1.162 -5.464,3.223 -0.208,1.98 1.724,3.813 4.36,4.209"
     id="path645" />
  <path
     style="fill:none;stroke:#231f20;stroke-width:0.565977;stroke-linecap:butt;stroke-linejoin:miter;stroke-miterlimit:4;stroke-dasharray:none;stroke-opacity:1"
     d="m 167.125,80.13 c 0.239,0.052 0.302,1.203 0.823,1.214 0.525,0.005 0.739,-0.756 2.552,-1.568 l 0.02,-0.011 c 1.349,-0.552 2.292,-1.567 2.417,-2.817 0.208,-2.074 -1.896,-3.974 -4.708,-4.25 -2.813,-0.286 -5.256,1.162 -5.464,3.223 -0.208,1.98 1.724,3.813 4.36,4.209 z"
     id="path646" />
  <path
     style="fill:#231f20;fill-opacity:1;fill-rule:nonzero;stroke:none"
     d="m 168.177,92.797 c -0.589,-0.271 -1.385,-2.041 -2.562,-3.141 -0.798,-0.744 -1.86,-3.276 -2.708,-3.954 -0.772,-0.618 -1.068,-0.984 -0.506,-1.989 0.328,-0.593 1.354,-1.525 1.807,-1.301 1.073,0.53 1.688,1.254 2.199,2.192 0.577,1.062 1.894,4.109 2.088,4.688 0.469,1.448 1.088,1.853 1.245,2.229 0.301,0.692 0.109,0.984 -0.303,1.276 -0.776,0.563 -1.26,0 -1.26,0"
     id="path647" />
  <path
     style="fill:none;stroke:#231f20;stroke-width:0.565977;stroke-linecap:butt;stroke-linejoin:miter;stroke-miterlimit:4;stroke-dasharray:none;stroke-opacity:1"
     d="m 168.177,92.797 c -0.589,-0.271 -1.385,-2.041 -2.562,-3.141 -0.798,-0.744 -1.86,-3.276 -2.708,-3.954 -0.772,-0.618 -1.068,-0.984 -0.506,-1.989 0.328,-0.593 1.354,-1.525 1.807,-1.301 1.073,0.53 1.688,1.254 2.199,2.192 0.577,1.062 1.894,4.109 2.088,4.688 0.469,1.448 1.088,1.853 1.245,2.229 0.301,0.692 0.109,0.984 -0.303,1.276 -0.776,0.563 -1.26,0 -1.26,0 z"
     id="path648" />
  <path
     style="fill:#231f20;fill-opacity:1;fill-rule:nonzero;stroke:none"
     d="m 163.301,85.156 c -1.161,0.573 -1.713,-1.386 -1.937,-1.875 -0.224,-0.505 -1.025,-1.833 -1.781,-2.792 -0.755,-0.963 -1.286,-2.489 -2.73,-4.317 -0.749,-0.964 -0.874,-2.38 0.568,-3.416 1.428,-1.022 2.538,-0.606 3.276,0.697 0.74,1.297 0.88,2.839 1.532,4.197 0.651,1.371 1.443,2.699 2.115,3.715 0.765,1.151 0.713,2 0.443,2.4 -0.658,0.995 -1.486,1.391 -1.486,1.391"
     id="path649" />
  <path
     style="fill:none;stroke:#231f20;stroke-width:0.565977;stroke-linecap:butt;stroke-linejoin:miter;stroke-miterlimit:4;stroke-dasharray:none;stroke-opacity:1"
     d="m 163.301,85.156 c -1.161,0.573 -1.713,-1.386 -1.937,-1.875 -0.224,-0.505 -1.025,-1.833 -1.781,-2.792 -0.755,-0.963 -1.286,-2.489 -2.73,-4.317 -0.749,-0.964 -0.874,-2.38 0.568,-3.416 1.428,-1.022 2.538,-0.606 3.276,0.697 0.74,1.297 0.88,2.839 1.532,4.197 0.651,1.371 1.443,2.699 2.115,3.715 0.765,1.151 0.713,2 0.443,2.4 -0.658,0.995 -1.486,1.391 -1.486,1.391 z"
     id="path650" />
  <path
     style="fill:#ffffff;fill-opacity:1;fill-rule:nonzero;stroke:none"
     d="m 167.661,93.281 c -0.046,1.016 0.746,1.891 1.766,1.932 1.032,0.047 1.906,-0.749 1.942,-1.771 0.047,-1.025 -0.744,-1.901 -1.77,-1.942 -1.031,-0.047 -1.896,0.75 -1.938,1.781"
     id="path651" />
  <path
     style="fill:none;stroke:#231f20;stroke-width:1.33171;stroke-linecap:butt;stroke-linejoin:miter;stroke-miterlimit:4;stroke-dasharray:none;stroke-opacity:1"
     d="m 167.661,93.281 c -0.046,1.016 0.746,1.891 1.766,1.932 1.032,0.047 1.906,-0.749 1.942,-1.771 0.047,-1.025 -0.744,-1.901 -1.77,-1.942 -1.031,-0.047 -1.896,0.75 -1.938,1.781 z"
     id="path652" />
  <path
     style="fill:#ffffff;fill-opacity:1;fill-rule:nonzero;stroke:none"
     d="m 157.161,77.77 c -1.745,1.443 -1.89,1.964 -1.322,2.74 0.364,0.522 0.536,1.126 0.749,1.448 0.709,1.088 2.349,2.63 8.131,5.771 1.312,0.703 3.15,1.719 3.864,2.197 1.136,0.74 1.609,-1.64 1.161,-1.942 -1.416,-0.963 -2.312,-1.734 -2.776,-2.151 -0.317,-0.287 -0.952,-0.708 -2.036,-1.979 -1.656,-1.912 -2.355,-3.302 -3.912,-4.734 -0.723,-0.667 -0.843,-1.626 -1.891,-1.912 -1.041,-0.296 -1.968,0.562 -1.968,0.562"
     id="path653" />
  <path
     style="fill:none;stroke:#231f20;stroke-width:0.565977;stroke-linecap:butt;stroke-linejoin:miter;stroke-miterlimit:4;stroke-dasharray:none;stroke-opacity:1"
     d="m 157.161,77.77 c -1.745,1.443 -1.89,1.964 -1.322,2.74 0.364,0.522 0.536,1.126 0.749,1.448 0.709,1.088 2.349,2.63 8.131,5.771 1.312,0.703 3.15,1.719 3.864,2.197 1.136,0.74 1.609,-1.64 1.161,-1.942 -1.416,-0.963 -2.312,-1.734 -2.776,-2.151 -0.317,-0.287 -0.952,-0.708 -2.036,-1.979 -1.656,-1.912 -2.355,-3.302 -3.912,-4.734 -0.723,-0.667 -0.843,-1.626 -1.891,-1.912 -1.041,-0.296 -1.968,0.562 -1.968,0.562 z"
     id="path654" />
  <path
     style="fill:#ffffff;fill-opacity:1;fill-rule:nonzero;stroke:#231f20;stroke-width:0.565977;stroke-linecap:round;stroke-linejoin:round;stroke-miterlimit:4;stroke-dasharray:none;stroke-opacity:1"
     d="m 159.64,78.114 c 0.125,-1.416 -1.744,-2.489 -1.937,-2.765 -2.839,-4.136 -3.14,-4.36 -5.52,-7.349 -3.439,-4.328 -6.454,-6.771 -9.563,-5.506 -2.1,0.86 -2.937,2.271 -2.933,3.584 0.021,1.463 1.516,4.266 4.396,4.484 l 1.38,1.006 c 0.849,0.801 1.272,1.192 1.662,1.614 0.667,0.744 1.427,1.5 2.828,2.88 2.463,2.443 5.875,4.219 5.875,4.219 0.219,0.213 0.479,0.303 0.76,0.312"
     id="path655" />
  <path
     style="fill:#231f20;fill-opacity:1;fill-rule:nonzero;stroke:none"
     d="m 169.735,91.682 c -1.328,0.23 -1.839,-0.63 -1.667,-1.65 0.052,-0.308 -0.219,-0.62 -0.147,-0.912 0.172,-0.678 1.704,-1.516 2.73,-0.427 0.073,0.077 0.781,0.484 1.27,0.869 0.948,0.755 2.486,2.724 2.126,5.402 -0.167,1.26 -0.891,0.926 -0.974,0.401 -0.277,-1.693 -0.625,-1.792 -0.865,-2.204 -0.781,-1.421 -2.473,-1.479 -2.473,-1.479"
     id="path656" />
  <path
     style="fill:none;stroke:#231f20;stroke-width:0.332927;stroke-linecap:butt;stroke-linejoin:miter;stroke-miterlimit:4;stroke-dasharray:none;stroke-opacity:1"
     d="m 169.735,91.682 c -1.328,0.23 -1.839,-0.63 -1.667,-1.65 0.052,-0.308 -0.219,-0.62 -0.147,-0.912 0.172,-0.678 1.704,-1.516 2.73,-0.427 0.073,0.077 0.781,0.484 1.27,0.869 0.948,0.755 2.486,2.724 2.126,5.402 -0.167,1.26 -0.891,0.926 -0.974,0.401 -0.277,-1.693 -0.625,-1.792 -0.865,-2.204 -0.781,-1.421 -2.473,-1.479 -2.473,-1.479 z"
     id="path657" />
  <path
     style="fill:#0098c9;fill-opacity:1;fill-rule:nonzero;stroke:none"
     d="m 143.109,62.177 c -2.172,0.645 -3.145,1.968 -3.265,3.281 -0.12,1.448 1.093,4.391 3.943,4.88 l 6.437,-4.432 c -2.313,-2.953 -4.573,-4.494 -7.115,-3.729"
     id="path658" />
  <path
     style="fill:none;stroke:#231f20;stroke-width:0.565977;stroke-linecap:butt;stroke-linejoin:miter;stroke-miterlimit:4;stroke-dasharray:none;stroke-opacity:1"
     d="m 143.109,62.177 c -2.172,0.645 -3.145,1.968 -3.265,3.281 -0.12,1.448 1.093,4.391 3.943,4.88 l 6.437,-4.432 c -2.313,-2.953 -4.573,-4.494 -7.115,-3.729 z"
     id="path659" />
  <path
     style="fill:#0098c9;fill-opacity:1;fill-rule:nonzero;stroke:none"
     d="m 223.634,66.432 c -2.9,-1.974 -3.795,-2.359 -4.795,-2.911 -5.058,-2.797 -6,-1.917 -7.256,0.124 -1.771,2.896 -2.458,4.647 3.204,7.401 4.296,2.09 7.191,4.256 7.191,4.256 1.136,1.484 4.271,3.239 5.178,3.13 1.521,-0.187 1.224,-0.198 2.417,-1.02 2.208,-1.511 2.077,-2.699 1.604,-3.792 -0.475,-1.088 -1.183,-1.844 -3.292,-3.703 -1.636,-1.439 -4.251,-3.485 -4.251,-3.485"
     id="path660" />
  <path
     style="fill:none;stroke:#231f20;stroke-width:0.565977;stroke-linecap:butt;stroke-linejoin:miter;stroke-miterlimit:4;stroke-dasharray:none;stroke-opacity:1"
     d="m 223.634,66.432 c -2.9,-1.974 -3.795,-2.359 -4.795,-2.911 -5.058,-2.797 -6,-1.917 -7.256,0.124 -1.771,2.896 -2.458,4.647 3.204,7.401 4.296,2.09 7.191,4.256 7.191,4.256 1.136,1.484 4.271,3.239 5.178,3.13 1.521,-0.187 1.224,-0.198 2.417,-1.02 2.208,-1.511 2.077,-2.699 1.604,-3.792 -0.475,-1.088 -1.183,-1.844 -3.292,-3.703 -1.636,-1.439 -4.251,-3.485 -4.251,-3.485 z"
     id="path661" />
  <path
     style="fill:#ffffff;fill-opacity:1;fill-rule:nonzero;stroke:none"
     d="m 236.364,80.13 c 0.24,0.052 0.302,1.203 0.818,1.214 0.531,0.005 0.739,-0.756 2.558,-1.568 l 0.02,-0.011 c 1.349,-0.552 2.292,-1.567 2.412,-2.817 0.208,-2.074 -1.896,-3.974 -4.71,-4.25 -2.812,-0.286 -5.254,1.162 -5.462,3.223 -0.208,1.98 1.729,3.813 4.364,4.209"
     id="path662" />
  <path
     style="fill:none;stroke:#231f20;stroke-width:0.565977;stroke-linecap:butt;stroke-linejoin:miter;stroke-miterlimit:4;stroke-dasharray:none;stroke-opacity:1"
     d="m 236.364,80.13 c 0.24,0.052 0.302,1.203 0.818,1.214 0.531,0.005 0.739,-0.756 2.558,-1.568 l 0.02,-0.011 c 1.349,-0.552 2.292,-1.567 2.412,-2.817 0.208,-2.074 -1.896,-3.974 -4.71,-4.25 -2.812,-0.286 -5.254,1.162 -5.462,3.223 -0.208,1.98 1.729,3.813 4.364,4.209 z"
     id="path663" />
  <path
     style="fill:#231f20;fill-opacity:1;fill-rule:nonzero;stroke:none"
     d="m 237.41,92.797 c -0.582,-0.271 -1.385,-2.041 -2.561,-3.141 -0.792,-0.744 -1.86,-3.276 -2.704,-3.954 -0.776,-0.618 -1.068,-0.984 -0.511,-1.989 0.334,-0.593 1.36,-1.525 1.814,-1.301 1.068,0.53 1.681,1.254 2.192,2.192 0.578,1.062 1.901,4.109 2.089,4.688 0.468,1.448 1.088,1.853 1.244,2.229 0.303,0.692 0.109,0.984 -0.301,1.276 -0.776,0.563 -1.262,0 -1.262,0"
     id="path664" />
  <path
     style="fill:none;stroke:#231f20;stroke-width:0.565977;stroke-linecap:butt;stroke-linejoin:miter;stroke-miterlimit:4;stroke-dasharray:none;stroke-opacity:1"
     d="m 237.41,92.797 c -0.582,-0.271 -1.385,-2.041 -2.561,-3.141 -0.792,-0.744 -1.86,-3.276 -2.704,-3.954 -0.776,-0.618 -1.068,-0.984 -0.511,-1.989 0.334,-0.593 1.36,-1.525 1.814,-1.301 1.068,0.53 1.681,1.254 2.192,2.192 0.578,1.062 1.901,4.109 2.089,4.688 0.468,1.448 1.088,1.853 1.244,2.229 0.303,0.692 0.109,0.984 -0.301,1.276 -0.776,0.563 -1.262,0 -1.262,0 z"
     id="path665" />
  <path
     style="fill:#231f20;fill-opacity:1;fill-rule:nonzero;stroke:none"
     d="m 232.536,85.156 c -1.162,0.573 -1.708,-1.386 -1.938,-1.875 -0.224,-0.505 -1.021,-1.833 -1.776,-2.792 -0.754,-0.963 -1.292,-2.489 -2.729,-4.317 -0.755,-0.964 -0.875,-2.38 0.563,-3.416 1.426,-1.022 2.536,-0.606 3.276,0.697 0.74,1.297 0.88,2.839 1.536,4.197 0.646,1.371 1.438,2.699 2.109,3.715 0.767,1.151 0.715,2 0.448,2.4 -0.656,0.995 -1.489,1.391 -1.489,1.391"
     id="path666" />
  <path
     style="fill:none;stroke:#231f20;stroke-width:0.565977;stroke-linecap:butt;stroke-linejoin:miter;stroke-miterlimit:4;stroke-dasharray:none;stroke-opacity:1"
     d="m 232.536,85.156 c -1.162,0.573 -1.708,-1.386 -1.938,-1.875 -0.224,-0.505 -1.021,-1.833 -1.776,-2.792 -0.754,-0.963 -1.292,-2.489 -2.729,-4.317 -0.755,-0.964 -0.875,-2.38 0.563,-3.416 1.426,-1.022 2.536,-0.606 3.276,0.697 0.74,1.297 0.88,2.839 1.536,4.197 0.646,1.371 1.438,2.699 2.109,3.715 0.767,1.151 0.715,2 0.448,2.4 -0.656,0.995 -1.489,1.391 -1.489,1.391 z"
     id="path667" />
  <path
     style="fill:#ffffff;fill-opacity:1;fill-rule:nonzero;stroke:none"
     d="m 236.896,93.281 c -0.047,1.016 0.744,1.891 1.77,1.932 1.026,0.047 1.902,-0.749 1.943,-1.771 0.041,-1.025 -0.745,-1.901 -1.776,-1.942 -1.027,-0.047 -1.896,0.75 -1.937,1.781"
     id="path668" />
  <path
     style="fill:none;stroke:#231f20;stroke-width:1.33171;stroke-linecap:butt;stroke-linejoin:miter;stroke-miterlimit:4;stroke-dasharray:none;stroke-opacity:1"
     d="m 236.896,93.281 c -0.047,1.016 0.744,1.891 1.77,1.932 1.026,0.047 1.902,-0.749 1.943,-1.771 0.041,-1.025 -0.745,-1.901 -1.776,-1.942 -1.027,-0.047 -1.896,0.75 -1.937,1.781 z"
     id="path669" />
  <path
     style="fill:#ffffff;fill-opacity:1;fill-rule:nonzero;stroke:none"
     d="m 204.995,81.484 c -1.844,-1.318 -2.38,-1.328 -2.984,-0.583 -0.418,0.489 -0.954,0.807 -1.215,1.093 -0.875,0.964 -1.943,2.943 -3.504,9.339 -0.349,1.448 -0.865,3.479 -1.147,4.292 -0.426,1.287 2,1.14 2.172,0.629 0.574,-1.618 1.094,-2.676 1.375,-3.233 0.199,-0.38 0.448,-1.1 1.396,-2.469 1.428,-2.088 2.595,-3.12 3.584,-4.99 0.457,-0.874 1.353,-1.234 1.364,-2.317 0.027,-1.084 -1.041,-1.761 -1.041,-1.761"
     id="path670" />
  <path
     style="fill:none;stroke:#231f20;stroke-width:0.565977;stroke-linecap:butt;stroke-linejoin:miter;stroke-miterlimit:4;stroke-dasharray:none;stroke-opacity:1"
     d="m 204.995,81.484 c -1.844,-1.318 -2.38,-1.328 -2.984,-0.583 -0.418,0.489 -0.954,0.807 -1.215,1.093 -0.875,0.964 -1.943,2.943 -3.504,9.339 -0.349,1.448 -0.865,3.479 -1.147,4.292 -0.426,1.287 2,1.14 2.172,0.629 0.574,-1.618 1.094,-2.676 1.375,-3.233 0.199,-0.38 0.448,-1.1 1.396,-2.469 1.428,-2.088 2.595,-3.12 3.584,-4.99 0.457,-0.874 1.353,-1.234 1.364,-2.317 0.027,-1.084 -1.041,-1.761 -1.041,-1.761 z"
     id="path671" />
  <path
     style="fill:#ffffff;fill-opacity:1;fill-rule:nonzero;stroke:#231f20;stroke-width:0.565977;stroke-linecap:round;stroke-linejoin:round;stroke-miterlimit:4;stroke-dasharray:none;stroke-opacity:1"
     d="m 205.297,83.969 c 1.395,-0.24 1.958,-2.319 2.176,-2.579 3.276,-3.797 3.412,-4.15 5.699,-7.208 3.307,-4.432 4.901,-7.964 2.891,-10.65 -1.371,-1.814 -2.948,-2.267 -4.214,-1.923 -1.412,0.396 -3.74,2.552 -3.218,5.391 l -0.62,1.593 c -0.563,1.027 -0.828,1.532 -1.136,2.016 -0.552,0.833 -1.094,1.765 -2.063,3.469 -1.739,3.006 -2.588,6.755 -2.588,6.755 -0.151,0.271 -0.167,0.547 -0.109,0.817"
     id="path672" />
  <path
     style="fill:#231f20;fill-opacity:1;fill-rule:nonzero;stroke:none"
     d="m 194.744,97.188 c -0.561,-1.23 0.136,-1.938 1.167,-2.032 0.313,-0.031 0.548,-0.37 0.844,-0.375 0.704,-0.005 1.901,1.26 1.109,2.531 -0.057,0.089 -0.271,0.881 -0.515,1.448 -0.49,1.109 -2,3.099 -4.682,3.433 -1.26,0.156 -1.12,-0.62 -0.636,-0.839 1.568,-0.699 1.573,-1.063 1.912,-1.396 1.177,-1.125 0.801,-2.77 0.801,-2.77"
     id="path673" />
  <path
     style="fill:none;stroke:#231f20;stroke-width:0.332927;stroke-linecap:butt;stroke-linejoin:miter;stroke-miterlimit:4;stroke-dasharray:none;stroke-opacity:1"
     d="m 194.744,97.188 c -0.561,-1.23 0.136,-1.938 1.167,-2.032 0.313,-0.031 0.548,-0.37 0.844,-0.375 0.704,-0.005 1.901,1.26 1.109,2.531 -0.057,0.089 -0.271,0.881 -0.515,1.448 -0.49,1.109 -2,3.099 -4.682,3.433 -1.26,0.156 -1.12,-0.62 -0.636,-0.839 1.568,-0.699 1.573,-1.063 1.912,-1.396 1.177,-1.125 0.801,-2.77 0.801,-2.77 z"
     id="path674" />
  <path
     style="fill:#0098c9;fill-opacity:1;fill-rule:nonzero;stroke:none"
     d="m 216.495,63.921 c -1.178,-1.932 -2.708,-2.541 -4.006,-2.317 -1.432,0.25 -3.969,2.172 -3.718,5.057 l 5.921,5.095 c 2.272,-2.991 3.188,-5.568 1.803,-7.835"
     id="path675" />
  <path
     style="fill:none;stroke:#231f20;stroke-width:0.565977;stroke-linecap:butt;stroke-linejoin:miter;stroke-miterlimit:4;stroke-dasharray:none;stroke-opacity:1"
     d="m 216.495,63.921 c -1.178,-1.932 -2.708,-2.541 -4.006,-2.317 -1.432,0.25 -3.969,2.172 -3.718,5.057 l 5.921,5.095 c 2.272,-2.991 3.188,-5.568 1.803,-7.835 z"
     id="path676" />
  <path
     style="fill:#ffffff;fill-opacity:1;fill-rule:nonzero;stroke:none"
     d="m 301.686,80.666 c 0.183,0.162 -0.337,1.194 0.106,1.464 0.452,0.266 1.02,-0.281 3,-0.084 h 0.02 c 1.442,0.199 2.765,-0.213 3.5,-1.234 1.213,-1.692 0.338,-4.39 -1.959,-6.036 -2.296,-1.646 -5.135,-1.62 -6.343,0.068 -1.172,1.614 -0.406,4.161 1.676,5.822"
     id="path677" />
  <path
     style="fill:none;stroke:#231f20;stroke-width:0.565977;stroke-linecap:butt;stroke-linejoin:miter;stroke-miterlimit:4;stroke-dasharray:none;stroke-opacity:1"
     d="m 301.686,80.666 c 0.183,0.162 -0.337,1.194 0.106,1.464 0.452,0.266 1.02,-0.281 3,-0.084 h 0.02 c 1.442,0.199 2.765,-0.213 3.5,-1.234 1.213,-1.692 0.338,-4.39 -1.959,-6.036 -2.296,-1.646 -5.135,-1.62 -6.343,0.068 -1.172,1.614 -0.406,4.161 1.676,5.822 z"
     id="path678" />
  <path
     style="fill:#231f20;fill-opacity:1;fill-rule:nonzero;stroke:none"
     d="m 296.276,92.166 c -0.375,-0.525 -0.183,-2.464 -0.656,-4 -0.319,-1.041 0.025,-3.765 -0.371,-4.776 -0.359,-0.921 -0.432,-1.385 0.552,-1.978 0.584,-0.344 1.939,-0.647 2.224,-0.219 0.657,0.989 0.828,1.921 0.803,2.989 -0.032,1.214 -0.407,4.511 -0.527,5.104 -0.317,1.495 0.011,2.151 -0.036,2.558 -0.083,0.749 -0.396,0.906 -0.901,0.953 -0.954,0.099 -1.088,-0.631 -1.088,-0.631"
     id="path679" />
  <path
     style="fill:none;stroke:#231f20;stroke-width:0.565977;stroke-linecap:butt;stroke-linejoin:miter;stroke-miterlimit:4;stroke-dasharray:none;stroke-opacity:1"
     d="m 296.276,92.166 c -0.375,-0.525 -0.183,-2.464 -0.656,-4 -0.319,-1.041 0.025,-3.765 -0.371,-4.776 -0.359,-0.921 -0.432,-1.385 0.552,-1.978 0.584,-0.344 1.939,-0.647 2.224,-0.219 0.657,0.989 0.828,1.921 0.803,2.989 -0.032,1.214 -0.407,4.511 -0.527,5.104 -0.317,1.495 0.011,2.151 -0.036,2.558 -0.083,0.749 -0.396,0.906 -0.901,0.953 -0.954,0.099 -1.088,-0.631 -1.088,-0.631 z"
     id="path680" />
  <path
     style="fill:#231f20;fill-opacity:1;fill-rule:nonzero;stroke:none"
     d="m 295.864,83.114 c -1.291,-0.082 -0.791,-2.057 -0.744,-2.593 0.057,-0.547 0.03,-2.099 -0.147,-3.308 -0.172,-1.213 0.125,-2.801 -0.208,-5.104 -0.177,-1.208 0.427,-2.5 2.193,-2.677 1.744,-0.172 2.5,0.745 2.49,2.245 -0.006,1.489 -0.652,2.896 -0.766,4.401 -0.12,1.51 -0.094,3.052 -0.021,4.271 0.088,1.375 -0.385,2.088 -0.817,2.301 -1.063,0.538 -1.98,0.464 -1.98,0.464"
     id="path681" />
  <path
     style="fill:none;stroke:#231f20;stroke-width:0.565977;stroke-linecap:butt;stroke-linejoin:miter;stroke-miterlimit:4;stroke-dasharray:none;stroke-opacity:1"
     d="m 295.864,83.114 c -1.291,-0.082 -0.791,-2.057 -0.744,-2.593 0.057,-0.547 0.03,-2.099 -0.147,-3.308 -0.172,-1.213 0.125,-2.801 -0.208,-5.104 -0.177,-1.208 0.427,-2.5 2.193,-2.677 1.744,-0.172 2.5,0.745 2.49,2.245 -0.006,1.489 -0.652,2.896 -0.766,4.401 -0.12,1.51 -0.094,3.052 -0.021,4.271 0.088,1.375 -0.385,2.088 -0.817,2.301 -1.063,0.538 -1.98,0.464 -1.98,0.464 z"
     id="path682" />
  <path
     style="fill:#ffffff;fill-opacity:1;fill-rule:nonzero;stroke:none"
     d="m 295.582,92.328 c -0.546,0.86 -0.296,2.01 0.568,2.557 0.87,0.557 2.027,0.303 2.568,-0.563 0.552,-0.864 0.307,-2.02 -0.562,-2.566 -0.875,-0.554 -2.022,-0.298 -2.574,0.572"
     id="path683" />
  <path
     style="fill:none;stroke:#231f20;stroke-width:1.33171;stroke-linecap:butt;stroke-linejoin:miter;stroke-miterlimit:4;stroke-dasharray:none;stroke-opacity:1"
     d="m 295.582,92.328 c -0.546,0.86 -0.296,2.01 0.568,2.557 0.87,0.557 2.027,0.303 2.568,-0.563 0.552,-0.864 0.307,-2.02 -0.562,-2.566 -0.875,-0.554 -2.022,-0.298 -2.574,0.572 z"
     id="path684" />
  <path
     style="fill:#ffffff;fill-opacity:1;fill-rule:nonzero;stroke:none"
     d="m 279.541,49.156 c 1.005,-2.026 0.932,-2.563 0.099,-3.042 -0.552,-0.328 -0.948,-0.812 -1.276,-1.021 -1.088,-0.708 -3.208,-1.448 -9.776,-1.968 -1.484,-0.115 -3.572,-0.297 -4.422,-0.448 -1.333,-0.213 -0.802,2.156 -0.27,2.244 1.686,0.308 2.817,0.652 3.405,0.839 0.407,0.141 1.161,0.266 2.667,0.99 2.286,1.072 3.494,2.062 5.494,2.739 0.939,0.313 1.439,1.141 2.502,0.98 1.077,-0.147 1.577,-1.313 1.577,-1.313"
     id="path685" />
  <path
     style="fill:none;stroke:#231f20;stroke-width:0.565977;stroke-linecap:butt;stroke-linejoin:miter;stroke-miterlimit:4;stroke-dasharray:none;stroke-opacity:1"
     d="m 279.541,49.156 c 1.005,-2.026 0.932,-2.563 0.099,-3.042 -0.552,-0.328 -0.948,-0.812 -1.276,-1.021 -1.088,-0.708 -3.208,-1.448 -9.776,-1.968 -1.484,-0.115 -3.572,-0.297 -4.422,-0.448 -1.333,-0.213 -0.802,2.156 -0.27,2.244 1.686,0.308 2.817,0.652 3.405,0.839 0.407,0.141 1.161,0.266 2.667,0.99 2.286,1.072 3.494,2.062 5.494,2.739 0.939,0.313 1.439,1.141 2.502,0.98 1.077,-0.147 1.577,-1.313 1.577,-1.313 z"
     id="path686" />
  <path
     style="fill:#ffffff;fill-opacity:1;fill-rule:nonzero;stroke:#231f20;stroke-width:0.565977;stroke-linecap:round;stroke-linejoin:round;stroke-miterlimit:4;stroke-dasharray:none;stroke-opacity:1"
     d="m 277.134,49.849 c 0.459,1.344 2.6,1.563 2.891,1.744 4.272,2.62 4.641,2.704 8.027,4.475 4.901,2.557 8.645,3.568 10.978,1.15 1.568,-1.64 1.766,-3.265 1.224,-4.462 -0.614,-1.33 -3.114,-3.287 -5.838,-2.319 l -1.672,-0.359 c -1.104,-0.39 -1.646,-0.573 -2.167,-0.802 -0.916,-0.411 -1.916,-0.792 -3.755,-1.479 -3.245,-1.24 -7.078,-1.48 -7.078,-1.48 -0.291,-0.104 -0.567,-0.077 -0.828,0.027"
     id="path687" />
  <path
     style="fill:#231f20;fill-opacity:1;fill-rule:nonzero;stroke:none"
     d="m 262.401,41.541 c 1.124,-0.749 1.932,-0.172 2.192,0.828 0.084,0.303 0.453,0.48 0.505,0.772 0.12,0.692 -0.942,2.083 -2.322,1.504 -0.094,-0.047 -0.912,-0.129 -1.511,-0.28 -1.172,-0.308 -3.375,-1.48 -4.136,-4.073 -0.359,-1.224 0.439,-1.208 0.729,-0.76 0.943,1.432 1.298,1.38 1.683,1.661 1.297,0.979 2.86,0.348 2.86,0.348"
     id="path688" />
  <path
     style="fill:none;stroke:#231f20;stroke-width:0.332927;stroke-linecap:butt;stroke-linejoin:miter;stroke-miterlimit:4;stroke-dasharray:none;stroke-opacity:1"
     d="m 262.401,41.541 c 1.124,-0.749 1.932,-0.172 2.192,0.828 0.084,0.303 0.453,0.48 0.505,0.772 0.12,0.692 -0.942,2.083 -2.322,1.504 -0.094,-0.047 -0.912,-0.129 -1.511,-0.28 -1.172,-0.308 -3.375,-1.48 -4.136,-4.073 -0.359,-1.224 0.439,-1.208 0.729,-0.76 0.943,1.432 1.298,1.38 1.683,1.661 1.297,0.979 2.86,0.348 2.86,0.348 z"
     id="path689" />
  <path
     style="fill:#0098c9;fill-opacity:1;fill-rule:nonzero;stroke:none"
     d="m 300.364,53.385 c -0.479,-1.369 -2.782,-3.573 -5.588,-2.864 l -4.084,6.661 c 3.313,1.76 6.005,2.255 8.016,0.526 1.724,-1.468 2.084,-3.078 1.656,-4.323"
     id="path690" />
  <path
     style="fill:none;stroke:#231f20;stroke-width:0.565977;stroke-linecap:butt;stroke-linejoin:miter;stroke-miterlimit:4;stroke-dasharray:none;stroke-opacity:1"
     d="m 300.364,53.385 c -0.479,-1.369 -2.782,-3.573 -5.588,-2.864 l -4.084,6.661 c 3.313,1.76 6.005,2.255 8.016,0.526 1.724,-1.468 2.084,-3.078 1.656,-4.323 z"
     id="path691" />
  <path
     style="fill:#0098c9;fill-opacity:1;fill-rule:nonzero;stroke:none"
     d="m 335.505,62.568 c 0.115,-3.136 0.479,-3.787 0.875,-4.62 2.464,-5.235 -0.151,-6.344 -3,-5.927 -3.355,0.484 -4.574,0.593 -4.203,6.88 0.099,1.744 -0.385,8.505 -0.385,8.505 -0.5,2.396 0.29,5 1.462,5.859 1.24,0.912 0.814,0.453 2.115,1.089 1.235,0.604 3.417,0.432 4.141,-0.573 0.692,-0.964 0.031,-2.489 -0.641,-4.823 -0.525,-1.833 -0.364,-6.39 -0.364,-6.39"
     id="path692" />
  <path
     style="fill:none;stroke:#231f20;stroke-width:0.565977;stroke-linecap:butt;stroke-linejoin:miter;stroke-miterlimit:4;stroke-dasharray:none;stroke-opacity:1"
     d="m 335.505,62.568 c 0.115,-3.136 0.479,-3.787 0.875,-4.62 2.464,-5.235 -0.151,-6.344 -3,-5.927 -3.355,0.484 -4.574,0.593 -4.203,6.88 0.099,1.744 -0.385,8.505 -0.385,8.505 -0.5,2.396 0.29,5 1.462,5.859 1.24,0.912 0.814,0.453 2.115,1.089 1.235,0.604 3.417,0.432 4.141,-0.573 0.692,-0.964 0.031,-2.489 -0.641,-4.823 -0.525,-1.833 -0.364,-6.39 -0.364,-6.39 z"
     id="path693" />
  <path
     style="fill:#ffffff;fill-opacity:1;fill-rule:nonzero;stroke:none"
     d="m 337.964,80.666 c 0.181,0.162 -0.339,1.194 0.104,1.464 0.452,0.266 1.02,-0.281 3,-0.084 h 0.02 c 1.442,0.199 2.765,-0.213 3.5,-1.234 1.213,-1.692 0.338,-4.39 -1.958,-6.036 -2.297,-1.646 -5.136,-1.62 -6.344,0.068 -1.172,1.614 -0.412,4.161 1.678,5.822"
     id="path694" />
  <path
     style="fill:none;stroke:#231f20;stroke-width:0.565977;stroke-linecap:butt;stroke-linejoin:miter;stroke-miterlimit:4;stroke-dasharray:none;stroke-opacity:1"
     d="m 337.964,80.666 c 0.181,0.162 -0.339,1.194 0.104,1.464 0.452,0.266 1.02,-0.281 3,-0.084 h 0.02 c 1.442,0.199 2.765,-0.213 3.5,-1.234 1.213,-1.692 0.338,-4.39 -1.958,-6.036 -2.297,-1.646 -5.136,-1.62 -6.344,0.068 -1.172,1.614 -0.412,4.161 1.678,5.822 z"
     id="path695" />
  <path
     style="fill:#231f20;fill-opacity:1;fill-rule:nonzero;stroke:none"
     d="m 332.552,92.166 c -0.375,-0.525 -0.183,-2.464 -0.656,-4 -0.319,-1.041 0.02,-3.765 -0.376,-4.776 -0.354,-0.921 -0.427,-1.385 0.557,-1.978 0.584,-0.344 1.939,-0.647 2.22,-0.219 0.661,0.989 0.832,1.921 0.807,2.989 -0.031,1.214 -0.407,4.511 -0.531,5.104 -0.319,1.495 0.015,2.151 -0.032,2.558 -0.083,0.749 -0.396,0.906 -0.901,0.953 -0.954,0.099 -1.088,-0.631 -1.088,-0.631"
     id="path696" />
  <path
     style="fill:none;stroke:#231f20;stroke-width:0.565977;stroke-linecap:butt;stroke-linejoin:miter;stroke-miterlimit:4;stroke-dasharray:none;stroke-opacity:1"
     d="m 332.552,92.166 c -0.375,-0.525 -0.183,-2.464 -0.656,-4 -0.319,-1.041 0.02,-3.765 -0.376,-4.776 -0.354,-0.921 -0.427,-1.385 0.557,-1.978 0.584,-0.344 1.939,-0.647 2.22,-0.219 0.661,0.989 0.832,1.921 0.807,2.989 -0.031,1.214 -0.407,4.511 -0.531,5.104 -0.319,1.495 0.015,2.151 -0.032,2.558 -0.083,0.749 -0.396,0.906 -0.901,0.953 -0.954,0.099 -1.088,-0.631 -1.088,-0.631 z"
     id="path697" />
  <path
     style="fill:#231f20;fill-opacity:1;fill-rule:nonzero;stroke:none"
     d="m 332.14,83.114 c -1.291,-0.082 -0.791,-2.057 -0.744,-2.593 0.057,-0.547 0.03,-2.099 -0.147,-3.308 -0.176,-1.213 0.125,-2.801 -0.213,-5.104 -0.172,-1.208 0.432,-2.5 2.198,-2.677 1.744,-0.172 2.495,0.745 2.49,2.245 -0.011,1.489 -0.656,2.896 -0.766,4.401 -0.12,1.51 -0.1,3.052 -0.021,4.271 0.083,1.375 -0.385,2.088 -0.817,2.301 -1.063,0.538 -1.98,0.464 -1.98,0.464"
     id="path698" />
  <path
     style="fill:none;stroke:#231f20;stroke-width:0.565977;stroke-linecap:butt;stroke-linejoin:miter;stroke-miterlimit:4;stroke-dasharray:none;stroke-opacity:1"
     d="m 332.14,83.114 c -1.291,-0.082 -0.791,-2.057 -0.744,-2.593 0.057,-0.547 0.03,-2.099 -0.147,-3.308 -0.176,-1.213 0.125,-2.801 -0.213,-5.104 -0.172,-1.208 0.432,-2.5 2.198,-2.677 1.744,-0.172 2.495,0.745 2.49,2.245 -0.011,1.489 -0.656,2.896 -0.766,4.401 -0.12,1.51 -0.1,3.052 -0.021,4.271 0.083,1.375 -0.385,2.088 -0.817,2.301 -1.063,0.538 -1.98,0.464 -1.98,0.464 z"
     id="path699" />
  <path
     style="fill:#ffffff;fill-opacity:1;fill-rule:nonzero;stroke:none"
     d="m 331.858,92.328 c -0.546,0.86 -0.296,2.01 0.568,2.557 0.871,0.557 2.027,0.303 2.568,-0.563 0.552,-0.864 0.303,-2.02 -0.562,-2.566 -0.875,-0.554 -2.022,-0.298 -2.574,0.572"
     id="path700" />
  <path
     style="fill:none;stroke:#231f20;stroke-width:1.33171;stroke-linecap:butt;stroke-linejoin:miter;stroke-miterlimit:4;stroke-dasharray:none;stroke-opacity:1"
     d="m 331.858,92.328 c -0.546,0.86 -0.296,2.01 0.568,2.557 0.871,0.557 2.027,0.303 2.568,-0.563 0.552,-0.864 0.303,-2.02 -0.562,-2.566 -0.875,-0.554 -2.022,-0.298 -2.574,0.572 z"
     id="path701" />
  <path
     style="fill:#ffffff;fill-opacity:1;fill-rule:nonzero;stroke:none"
     d="m 333.358,37.254 c 2.24,0.324 2.724,0.084 2.918,-0.858 0.14,-0.62 0.478,-1.151 0.573,-1.531 0.333,-1.256 0.369,-3.5 -1.183,-9.901 -0.354,-1.443 -0.833,-3.49 -0.958,-4.339 -0.214,-1.333 -2.298,-0.089 -2.219,0.443 0.235,1.697 0.265,2.88 0.271,3.5 -0.006,0.432 0.109,1.182 -0.104,2.838 -0.307,2.511 -0.87,3.963 -0.891,6.078 0,0.99 -0.631,1.718 -0.145,2.682 0.478,0.975 1.738,1.088 1.738,1.088"
     id="path702" />
  <path
     style="fill:none;stroke:#231f20;stroke-width:0.565977;stroke-linecap:butt;stroke-linejoin:miter;stroke-miterlimit:4;stroke-dasharray:none;stroke-opacity:1"
     d="m 333.358,37.254 c 2.24,0.324 2.724,0.084 2.918,-0.858 0.14,-0.62 0.478,-1.151 0.573,-1.531 0.333,-1.256 0.369,-3.5 -1.183,-9.901 -0.354,-1.443 -0.833,-3.49 -0.958,-4.339 -0.214,-1.333 -2.298,-0.089 -2.219,0.443 0.235,1.697 0.265,2.88 0.271,3.5 -0.006,0.432 0.109,1.182 -0.104,2.838 -0.307,2.511 -0.87,3.963 -0.891,6.078 0,0.99 -0.631,1.718 -0.145,2.682 0.478,0.975 1.738,1.088 1.738,1.088 z"
     id="path703" />
  <path
     style="fill:#ffffff;fill-opacity:1;fill-rule:nonzero;stroke:#231f20;stroke-width:0.565977;stroke-linecap:round;stroke-linejoin:round;stroke-miterlimit:4;stroke-dasharray:none;stroke-opacity:1"
     d="m 331.948,35.182 c -1.131,0.859 -0.672,2.959 -0.751,3.292 -1.156,4.88 -1.12,5.255 -1.739,9.026 -0.901,5.453 -0.688,9.328 2.334,10.786 2.046,0.974 3.656,0.656 4.624,-0.234 1.068,-0.995 2.146,-3.984 0.38,-6.266 l -0.187,-1.702 c 0.025,-1.167 0.031,-1.74 0.083,-2.314 0.109,-0.994 0.157,-2.068 0.234,-4.025 0.162,-3.469 -0.806,-7.188 -0.806,-7.188 0.005,-0.307 -0.104,-0.563 -0.282,-0.776"
     id="path704" />
  <path
     style="fill:#231f20;fill-opacity:1;fill-rule:nonzero;stroke:none"
     d="m 335.234,18.593 c 1.063,0.833 0.766,1.781 -0.105,2.344 -0.26,0.167 -0.312,0.579 -0.572,0.719 -0.62,0.328 -2.271,-0.244 -2.151,-1.739 0.01,-0.105 -0.166,-0.901 -0.209,-1.521 -0.077,-1.208 0.349,-3.672 2.579,-5.203 1.046,-0.719 1.281,0.041 0.948,0.452 -1.068,1.344 -0.907,1.667 -1.052,2.12 -0.527,1.537 0.562,2.828 0.562,2.828"
     id="path705" />
  <path
     style="fill:none;stroke:#231f20;stroke-width:0.332927;stroke-linecap:butt;stroke-linejoin:miter;stroke-miterlimit:4;stroke-dasharray:none;stroke-opacity:1"
     d="m 335.234,18.593 c 1.063,0.833 0.766,1.781 -0.105,2.344 -0.26,0.167 -0.312,0.579 -0.572,0.719 -0.62,0.328 -2.271,-0.244 -2.151,-1.739 0.01,-0.105 -0.166,-0.901 -0.209,-1.521 -0.077,-1.208 0.349,-3.672 2.579,-5.203 1.046,-0.719 1.281,0.041 0.948,0.452 -1.068,1.344 -0.907,1.667 -1.052,2.12 -0.527,1.537 0.562,2.828 0.562,2.828 z"
     id="path706" />
  <path
     style="fill:#0098c9;fill-opacity:1;fill-rule:nonzero;stroke:none"
     d="m 336.828,52.15 -7.61,-1.796 c -0.636,3.703 -0.26,6.411 2.006,7.782 1.937,1.176 3.577,1.014 4.625,0.218 1.156,-0.885 2.525,-3.761 0.979,-6.204"
     id="path707" />
  <path
     style="fill:none;stroke:#231f20;stroke-width:0.565977;stroke-linecap:butt;stroke-linejoin:miter;stroke-miterlimit:4;stroke-dasharray:none;stroke-opacity:1"
     d="m 336.828,52.15 -7.61,-1.796 c -0.636,3.703 -0.26,6.411 2.006,7.782 1.937,1.176 3.577,1.014 4.625,0.218 1.156,-0.885 2.525,-3.761 0.979,-6.204 z"
     id="path708" />
  <path
     style="fill:none;stroke:#231f20;stroke-width:0.399514;stroke-linecap:butt;stroke-linejoin:miter;stroke-miterlimit:4;stroke-dasharray:none;stroke-opacity:1"
     d="m 20.094,38.896 c 24.442,-10.203 46.161,16.401 48.51,23.27"
     id="path709" />
  <path
     style="fill:#231f20;fill-opacity:1;fill-rule:nonzero;stroke:none"
     d="M 68.995,63.308 C 68.61,62.838 68.042,62.292 67.542,62 l 1.01,0.016 0.787,-0.631 c -0.219,0.536 -0.328,1.317 -0.344,1.923"
     id="path710" />
  <path
     style="fill:none;stroke:#231f20;stroke-width:0.399514;stroke-linecap:butt;stroke-linejoin:miter;stroke-miterlimit:4;stroke-dasharray:none;stroke-opacity:1"
     d="m 190.687,75.724 c -3.135,-26.302 28.39,-39.932 35.646,-40.312"
     id="path711" />
  <path
     style="fill:#231f20;fill-opacity:1;fill-rule:nonzero;stroke:none"
     d="m 227.536,35.349 c -0.558,0.239 -1.239,0.635 -1.656,1.036 l 0.292,-0.963 -0.391,-0.933 c 0.453,0.355 1.177,0.677 1.755,0.86"
     id="path712" />
</svg>
