<?xml version="1.0" encoding="UTF-8" standalone="no"?>
<!-- Created with Inkscape (http://www.inkscape.org/) -->

<svg
   version="1.1"
   id="svg1"
   width="333.10812"
   height="111.80075"
   viewBox="0 0 333.10811 111.80075"
   sodipodi:docname="cell.svg"
   xmlns:inkscape="http://www.inkscape.org/namespaces/inkscape"
   xmlns:sodipodi="http://sodipodi.sourceforge.net/DTD/sodipodi-0.dtd"
   xmlns="http://www.w3.org/2000/svg"
   xmlns:svg="http://www.w3.org/2000/svg">
  <sodipodi:namedview
     id="namedview1"
     pagecolor="#ffffff"
     bordercolor="#000000"
     borderopacity="0.25"
     inkscape:showpageshadow="2"
     inkscape:pageopacity="0.0"
     inkscape:pagecheckerboard="0"
     inkscape:deskcolor="#d1d1d1">
    <inkscape:page
       x="0"
       y="0"
       inkscape:label="1"
       id="page1"
       width="333.10812"
       height="111.80075"
       margin="0"
       bleed="0" />
  </sodipodi:namedview>
  <defs
     id="defs1" />
  <path
     style="fill:#ffffff;fill-opacity:1;fill-rule:nonzero;stroke:none"
     d="m 275.63603,83.581046 c 1.027,-0.068 1.918,0.703 1.986,1.724 0.072,1.026 -0.699,1.916 -1.724,1.99 -1.022,0.072 -1.918,-0.704 -1.986,-1.73 -0.072,-1.021 0.704,-1.912 1.724,-1.984"
     id="path547" />
  <path
     style="fill:none;stroke:#231f20;stroke-width:1.33171;stroke-linecap:butt;stroke-linejoin:miter;stroke-miterlimit:4;stroke-dasharray:none;stroke-opacity:1"
     d="m 275.63603,83.581046 c 1.027,-0.068 1.918,0.703 1.986,1.724 0.072,1.026 -0.699,1.916 -1.724,1.99 -1.022,0.072 -1.918,-0.704 -1.986,-1.73 -0.072,-1.021 0.704,-1.912 1.724,-1.984 z"
     id="path548" />
  <path
     style="fill:#231f20;fill-opacity:1;fill-rule:nonzero;stroke:none"
     d="m 273.76703,83.768046 c -0.511,-0.385 -0.921,-2.292 -1.839,-3.609 -0.62,-0.896 -1.125,-3.594 -1.812,-4.432 -0.625,-0.771 -0.838,-1.188 -0.073,-2.052 0.448,-0.511 1.645,-1.208 2.041,-0.891 0.938,0.745 1.38,1.579 1.688,2.599 0.339,1.166 0.99,4.417 1.052,5.026 0.156,1.515 0.672,2.042 0.746,2.443 0.145,0.739 -0.1,0.984 -0.563,1.192 -0.885,0.376 -1.24,-0.276 -1.24,-0.276"
     id="path549" />
  <path
     style="fill:none;stroke:#231f20;stroke-width:0.565977;stroke-linecap:butt;stroke-linejoin:miter;stroke-miterlimit:4;stroke-dasharray:none;stroke-opacity:1"
     d="m 273.76703,83.768046 c -0.511,-0.385 -0.921,-2.292 -1.839,-3.609 -0.62,-0.896 -1.125,-3.594 -1.812,-4.432 -0.625,-0.771 -0.838,-1.188 -0.073,-2.052 0.448,-0.511 1.645,-1.208 2.041,-0.891 0.938,0.745 1.38,1.579 1.688,2.599 0.339,1.166 0.99,4.417 1.052,5.026 0.156,1.515 0.672,2.042 0.746,2.443 0.145,0.739 -0.1,0.984 -0.563,1.192 -0.885,0.376 -1.24,-0.276 -1.24,-0.276 z"
     id="path550" />
  <path
     style="fill:#231f20;fill-opacity:1;fill-rule:nonzero;stroke:none"
     d="m 270.26203,74.863046 c -1.292,-0.136 -0.703,-2.09 -0.626,-2.626 0.074,-0.537 0.115,-2.098 -0.005,-3.302 -0.119,-1.224 0.24,-2.796 0.005,-5.115 -0.118,-1.219 0.538,-2.4734 2.308,-2.5774 1.755,-0.0946 2.468,0.8484 2.391,2.3484 -0.068,1.496 -0.776,2.865 -0.953,4.365 -0.183,1.505 -0.23,3.047 -0.208,4.26 0.03,1.38 -0.48,2.073 -0.907,2.271 -1.093,0.485 -2.005,0.376 -2.005,0.376"
     id="path551" />
  <path
     style="fill:none;stroke:#231f20;stroke-width:0.565977;stroke-linecap:butt;stroke-linejoin:miter;stroke-miterlimit:4;stroke-dasharray:none;stroke-opacity:1"
     d="m 270.26203,74.863046 c -1.292,-0.136 -0.703,-2.09 -0.626,-2.626 0.074,-0.537 0.115,-2.098 -0.005,-3.302 -0.119,-1.224 0.24,-2.796 0.005,-5.115 -0.118,-1.219 0.538,-2.4734 2.308,-2.5774 1.755,-0.0946 2.468,0.8484 2.391,2.3484 -0.068,1.496 -0.776,2.865 -0.953,4.365 -0.183,1.505 -0.23,3.047 -0.208,4.26 0.03,1.38 -0.48,2.073 -0.907,2.271 -1.093,0.485 -2.005,0.376 -2.005,0.376 z"
     id="path552" />
  <path
     style="fill:#231f20;fill-opacity:1;fill-rule:nonzero;stroke:none"
     d="m 293.39203,75.883046 c -0.344,-0.547 -0.037,-2.468 -0.412,-4.031 -0.254,-1.057 0.256,-3.756 -0.073,-4.787 -0.307,-0.948 -0.348,-1.412 0.672,-1.937 0.605,-0.313 1.969,-0.532 2.229,-0.089 0.6,1.032 0.714,1.969 0.626,3.037 -0.11,1.208 -0.683,4.463 -0.85,5.057 -0.405,1.474 -0.12,2.151 -0.192,2.547 -0.13,0.755 -0.448,0.885 -0.953,0.901 -0.959,0.042 -1.047,-0.698 -1.047,-0.698"
     id="path553" />
  <path
     style="fill:none;stroke:#231f20;stroke-width:0.565977;stroke-linecap:butt;stroke-linejoin:miter;stroke-miterlimit:4;stroke-dasharray:none;stroke-opacity:1"
     d="m 293.39203,75.883046 c -0.344,-0.547 -0.037,-2.468 -0.412,-4.031 -0.254,-1.057 0.256,-3.756 -0.073,-4.787 -0.307,-0.948 -0.348,-1.412 0.672,-1.937 0.605,-0.313 1.969,-0.532 2.229,-0.089 0.6,1.032 0.714,1.969 0.626,3.037 -0.11,1.208 -0.683,4.463 -0.85,5.057 -0.405,1.474 -0.12,2.151 -0.192,2.547 -0.13,0.755 -0.448,0.885 -0.953,0.901 -0.959,0.042 -1.047,-0.698 -1.047,-0.698 z"
     id="path554" />
  <path
     style="fill:#231f20;fill-opacity:1;fill-rule:nonzero;stroke:none"
     d="m 294.66303,67.216046 c -0.797,1.027 -2.145,-0.5 -2.563,-0.839 -0.421,-0.353 -1.729,-1.208 -2.817,-1.744 -1.104,-0.532 -2.251,-1.672 -4.344,-2.688 -1.093,-0.541 -1.828,-1.7544 -0.975,-3.317 0.834,-1.5467 2.011,-1.656 3.251,-0.8027 1.229,0.8493 2.025,2.1667 3.208,3.1093 1.183,0.9374 2.48,1.7924 3.516,2.4174 1.188,0.703 1.516,1.495 1.448,1.968 -0.151,1.183 -0.724,1.896 -0.724,1.896"
     id="path555" />
  <path
     style="fill:none;stroke:#231f20;stroke-width:0.565977;stroke-linecap:butt;stroke-linejoin:miter;stroke-miterlimit:4;stroke-dasharray:none;stroke-opacity:1"
     d="m 294.66303,67.216046 c -0.797,1.027 -2.145,-0.5 -2.563,-0.839 -0.421,-0.353 -1.729,-1.208 -2.817,-1.744 -1.104,-0.532 -2.251,-1.672 -4.344,-2.688 -1.093,-0.541 -1.828,-1.7544 -0.975,-3.317 0.834,-1.5467 2.011,-1.656 3.251,-0.8027 1.229,0.8493 2.025,2.1667 3.208,3.1093 1.183,0.9374 2.48,1.7924 3.516,2.4174 1.188,0.703 1.516,1.495 1.448,1.968 -0.151,1.183 -0.724,1.896 -0.724,1.896 z"
     id="path556" />
  <path
     style="fill:#231f20;fill-opacity:1;fill-rule:nonzero;stroke:none"
     d="m 294.10003,82.039046 c 0.355,-0.635 0.88,-3.843 0.97,-4.578 0.077,-0.661 0.572,-1.708 -0.402,-2.328 -0.396,-0.256 -1.15,-0.338 -1.469,-0.292 -0.255,0.042 -0.396,0.339 -0.401,0.735 -0.02,0.661 0.229,0.859 0.266,2.135 0,0 0.058,0.308 0.192,0.838 0.386,1.584 0.366,0.855 0.412,3.271 0,0.172 0.178,0.292 0.292,0.281 0.176,-0.02 0.14,-0.062 0.14,-0.062"
     id="path557" />
  <path
     style="fill:none;stroke:#231f20;stroke-width:0.565977;stroke-linecap:round;stroke-linejoin:round;stroke-miterlimit:4;stroke-dasharray:none;stroke-opacity:1"
     d="m 294.10003,82.039046 c 0.355,-0.635 0.88,-3.843 0.97,-4.578 0.077,-0.661 0.572,-1.708 -0.402,-2.328 -0.396,-0.256 -1.15,-0.338 -1.469,-0.292 -0.255,0.042 -0.396,0.339 -0.401,0.735 -0.02,0.661 0.229,0.859 0.266,2.135 0,0 0.058,0.308 0.192,0.838 0.386,1.584 0.366,0.855 0.412,3.271 0,0.172 0.178,0.292 0.292,0.281 0.176,-0.02 0.14,-0.062 0.14,-0.062 z"
     id="path558" />
  <path
     style="fill:none;stroke:#231f20;stroke-width:0.399514;stroke-linecap:butt;stroke-linejoin:miter;stroke-miterlimit:4;stroke-dasharray:none;stroke-opacity:1"
     d="m 289.45003,35.476046 c -20.047,-17.3173 -29.235,-7.7226 -25.855,-0.0146"
     id="path559" />
  <path
     style="fill:#231f20;fill-opacity:1;fill-rule:nonzero;stroke:none"
     d="m 264.07903,36.565446 c -0.416,-0.4374 -1.031,-0.9374 -1.552,-1.1827 l 1.005,-0.068 0.735,-0.6973 c -0.177,0.552 -0.219,1.344 -0.188,1.948"
     id="path560" />
  <path
     style="fill:#231f20;fill-opacity:1;fill-rule:nonzero;stroke:none"
     d="m 279.03803,70.284046 c -1.511,-2.385 -1.312,-5.224 0.442,-6.333 1.756,-1.11 4.402,-0.079 5.912,2.312 1.511,2.385 1.312,5.224 -0.442,6.328 -1.751,1.114 -4.402,0.078 -5.912,-2.307"
     id="path561" />
  <path
     style="fill:none;stroke:#231f20;stroke-width:0.565977;stroke-linecap:butt;stroke-linejoin:miter;stroke-miterlimit:4;stroke-dasharray:none;stroke-opacity:1"
     d="m 279.03803,70.284046 c -1.511,-2.385 -1.312,-5.224 0.442,-6.333 1.756,-1.11 4.402,-0.079 5.912,2.312 1.511,2.385 1.312,5.224 -0.442,6.328 -1.751,1.114 -4.402,0.078 -5.912,-2.307 z"
     id="path562" />
  <path
     style="fill:#231f20;fill-opacity:1;fill-rule:nonzero;stroke:none"
     d="m 278.30303,46.961346 c 3.532,-0.7133 2.885,-2.2653 3.084,-6.3333 0.219,-4.4586 -0.032,-9.1253 -1.161,-12.2293 -1.256,-3.464 -0.855,-3.7973 -2.756,-4.0786 -1.9,-0.276 -2.031,0.4946 -2.948,1.4013 -1.058,1.0467 1.105,8.0786 0.704,12.8173 -0.183,2.2187 -2.074,7.4173 -0.699,7.8653 1.38,0.4587 3.776,0.5573 3.776,0.5573"
     id="path563" />
  <path
     style="fill:none;stroke:#231f20;stroke-width:0.565977;stroke-linecap:butt;stroke-linejoin:miter;stroke-miterlimit:4;stroke-dasharray:none;stroke-opacity:1"
     d="m 278.30303,46.961346 c 3.532,-0.7133 2.885,-2.2653 3.084,-6.3333 0.219,-4.4586 -0.032,-9.1253 -1.161,-12.2293 -1.256,-3.464 -0.855,-3.7973 -2.756,-4.0786 -1.9,-0.276 -2.031,0.4946 -2.948,1.4013 -1.058,1.0467 1.105,8.0786 0.704,12.8173 -0.183,2.2187 -2.074,7.4173 -0.699,7.8653 1.38,0.4587 3.776,0.5573 3.776,0.5573 z"
     id="path564" />
  <path
     style="fill:#231f20;fill-opacity:1;fill-rule:nonzero;stroke:none"
     d="m 276.52703,26.366746 c 2.261,0.0734 2.923,0.1254 2.604,-2.3586 -0.083,-0.6307 -0.437,-2.3694 -0.38,-2.756 0.188,-1.2854 0.297,-2.7907 -1.957,-8.9787 -0.35,-0.9533 -0.704,-2.9012997 -1.074,-4.2545997 -0.349,-1.3134 -2.286,0.1666 -2.156,0.6773 0.432,1.6666997 0.348,2.8279997 0.416,3.4426997 0.052,0.4213 0.271,1.2026 0.058,2.848 -0.552,4.2453 0.713,5.5213 0.677,6.4173 -0.115,2.5826 -0.745,4.7653 -0.131,5.0253 0.995,0.4427 1.943,-0.0627 1.943,-0.0627"
     id="path565" />
  <path
     style="fill:none;stroke:#231f20;stroke-width:0.565977;stroke-linecap:butt;stroke-linejoin:miter;stroke-miterlimit:4;stroke-dasharray:none;stroke-opacity:1"
     d="m 276.52703,26.366746 c 2.261,0.0734 2.923,0.1254 2.604,-2.3586 -0.083,-0.6307 -0.437,-2.3694 -0.38,-2.756 0.188,-1.2854 0.297,-2.7907 -1.957,-8.9787 -0.35,-0.9533 -0.704,-2.9012997 -1.074,-4.2545997 -0.349,-1.3134 -2.286,0.1666 -2.156,0.6773 0.432,1.6666997 0.348,2.8279997 0.416,3.4426997 0.052,0.4213 0.271,1.2026 0.058,2.848 -0.552,4.2453 0.713,5.5213 0.677,6.4173 -0.115,2.5826 -0.745,4.7653 -0.131,5.0253 0.995,0.4427 1.943,-0.0627 1.943,-0.0627 z"
     id="path566" />
  <path
     style="fill:#231f20;fill-opacity:1;fill-rule:nonzero;stroke:none"
     d="m 272.07503,47.065346 c -3.584,-0.3906 -3.084,-1.9893 -3.657,-6.0319 -0.62,-4.416 -0.796,-9.088 0.042,-12.28 0.932,-3.5627 0.504,-3.8547 2.37,-4.308 1.864,-0.4533 2.073,0.2973 3.062,1.12 1.151,0.9533 -0.36,8.1506 0.468,12.828 0.391,2.192 2.746,7.1919 1.418,7.7706 -1.334,0.5787 -3.703,0.9013 -3.703,0.9013"
     id="path567" />
  <path
     style="fill:none;stroke:#231f20;stroke-width:0.565977;stroke-linecap:butt;stroke-linejoin:miter;stroke-miterlimit:4;stroke-dasharray:none;stroke-opacity:1"
     d="m 272.07503,47.065346 c -3.584,-0.3906 -3.084,-1.9893 -3.657,-6.0319 -0.62,-4.416 -0.796,-9.088 0.042,-12.28 0.932,-3.5627 0.504,-3.8547 2.37,-4.308 1.864,-0.4533 2.073,0.2973 3.062,1.12 1.151,0.9533 -0.36,8.1506 0.468,12.828 0.391,2.192 2.746,7.1919 1.418,7.7706 -1.334,0.5787 -3.703,0.9013 -3.703,0.9013 z"
     id="path568" />
  <path
     style="fill:#231f20;fill-opacity:1;fill-rule:nonzero;stroke:none"
     d="m 271.93903,26.409446 c -2.251,0.2707 -2.907,0.3747 -2.803,-2.1307 0.032,-0.636 0.235,-2.4013 0.147,-2.7813 -0.303,-1.26 -0.537,-2.7493 1.181,-9.104 0.267,-0.9893 0.448,-2.9585997 0.699,-4.3332997 0.245,-1.3387 2.297,-0.0413 2.203,0.4893 -0.282,1.6879997 -0.094,2.8439997 -0.115,3.4586997 -0.015,0.432 -0.176,1.224 0.183,2.8493 0.921,4.176 -0.24,5.5573 -0.12,6.448 0.333,2.5613 1.146,4.6813 0.562,5 -0.953,0.52 -1.937,0.104 -1.937,0.104"
     id="path569" />
  <path
     style="fill:none;stroke:#231f20;stroke-width:0.565977;stroke-linecap:butt;stroke-linejoin:miter;stroke-miterlimit:4;stroke-dasharray:none;stroke-opacity:1"
     d="m 271.93903,26.409446 c -2.251,0.2707 -2.907,0.3747 -2.803,-2.1307 0.032,-0.636 0.235,-2.4013 0.147,-2.7813 -0.303,-1.26 -0.537,-2.7493 1.181,-9.104 0.267,-0.9893 0.448,-2.9585997 0.699,-4.3332997 0.245,-1.3387 2.297,-0.0413 2.203,0.4893 -0.282,1.6879997 -0.094,2.8439997 -0.115,3.4586997 -0.015,0.432 -0.176,1.224 0.183,2.8493 0.921,4.176 -0.24,5.5573 -0.12,6.448 0.333,2.5613 1.146,4.6813 0.562,5 -0.953,0.52 -1.937,0.104 -1.937,0.104 z"
     id="path570" />
  <path
     style="fill:#231f20;fill-opacity:1;fill-rule:nonzero;stroke:none"
     d="m 270.34603,4.6388463 c -0.276,0.6133 0.973,1.916 1.057,3.88 0.02,0.4053 0.224,0.7186 0.369,1.0626 0.604,1.3853997 1.912,2.3013997 2.724,-1.4386 0.11,-0.5147 -0.333,-2.5667 -0.109,-3.3174 0.547,-1.7866 -1.147,-4.64530001 -1.641,-4.49460001 -1.072,0.3227 -2.4,4.30800001 -2.4,4.30800001"
     id="path571" />
  <path
     style="fill:none;stroke:#231f20;stroke-width:0.644548;stroke-linecap:round;stroke-linejoin:round;stroke-miterlimit:4;stroke-dasharray:none;stroke-opacity:1"
     d="m 270.34603,4.6388463 c -0.276,0.6133 0.973,1.916 1.057,3.88 0.02,0.4053 0.224,0.7186 0.369,1.0626 0.604,1.3853997 1.912,2.3013997 2.724,-1.4386 0.11,-0.5147 -0.333,-2.5667 -0.109,-3.3174 0.547,-1.7866 -1.147,-4.64530001 -1.641,-4.49460001 -1.072,0.3227 -2.4,4.30800001 -2.4,4.30800001 z"
     id="path572" />
  <path
     style="fill:#231f20;fill-opacity:1;fill-rule:nonzero;stroke:none"
     d="m 276.48003,4.3001463 c 0.344,0.5667 -0.729,2.0147 -0.562,3.9787 0.032,0.4013 -0.13,0.7453 -0.234,1.0986 -0.422,1.4533997 -1.6,2.5319997 -2.881,-1.0773 -0.176,-0.5 0,-2.5893 -0.317,-3.308 -0.766,-1.6973 0.552,-4.75460001 1.068,-4.66130001 1.098,0.1773 2.926,3.96930001 2.926,3.96930001"
     id="path573" />
  <path
     style="fill:none;stroke:#231f20;stroke-width:0.644548;stroke-linecap:round;stroke-linejoin:round;stroke-miterlimit:4;stroke-dasharray:none;stroke-opacity:1"
     d="m 276.48003,4.3001463 c 0.344,0.5667 -0.729,2.0147 -0.562,3.9787 0.032,0.4013 -0.13,0.7453 -0.234,1.0986 -0.422,1.4533997 -1.6,2.5319997 -2.881,-1.0773 -0.176,-0.5 0,-2.5893 -0.317,-3.308 -0.766,-1.6973 0.552,-4.75460001 1.068,-4.66130001 1.098,0.1773 2.926,3.96930001 2.926,3.96930001 z"
     id="path574" />
  <path
     style="fill:#231f20;fill-opacity:1;fill-rule:nonzero;stroke:none"
     d="m 279.28303,42.289446 c -0.396,0.6093 -2.995,2.5733 -3.604,2.9946 -0.543,0.3853 -1.245,1.3067 -2.245,0.7293 -0.402,-0.2346 -0.834,-0.8546 -0.943,-1.156 -0.083,-0.2453 0.115,-0.5053 0.464,-0.7039 0.577,-0.3227 0.875,-0.192 2.02,-0.7547 0,0 0.287,-0.0933 0.819,-0.224 1.588,-0.4013 0.926,-0.0787 3.088,-1.1613 0.156,-0.084 0.344,0.02 0.39,0.1253 0.063,0.1667 0.011,0.1507 0.011,0.1507"
     id="path575" />
  <path
     style="fill:none;stroke:#231f20;stroke-width:0.565977;stroke-linecap:round;stroke-linejoin:round;stroke-miterlimit:4;stroke-dasharray:none;stroke-opacity:1"
     d="m 279.28303,42.289446 c -0.396,0.6093 -2.995,2.5733 -3.604,2.9946 -0.543,0.3853 -1.245,1.3067 -2.245,0.7293 -0.402,-0.2346 -0.834,-0.8546 -0.943,-1.156 -0.083,-0.2453 0.115,-0.5053 0.464,-0.7039 0.577,-0.3227 0.875,-0.192 2.02,-0.7547 0,0 0.287,-0.0933 0.819,-0.224 1.588,-0.4013 0.926,-0.0787 3.088,-1.1613 0.156,-0.084 0.344,0.02 0.39,0.1253 0.063,0.1667 0.011,0.1507 0.011,0.1507 z"
     id="path576" />
  <path
     style="fill:#0098c9;fill-opacity:1;fill-rule:nonzero;stroke:none"
     d="m 284.14203,56.366746 c -0.963,-0.9267 -3.662,-5.2547 -4.656,-8.348 -0.23,-0.7134 0.448,-3.0267 -0.172,-1.9374 l -0.344,0.088 c -3.047,-0.656 -5.396,-6.0106 -5.396,-6.0106 0,0 -0.703,-0.2347 -1.176,-0.088 -0.48,0.14 -0.934,0.724 -0.934,0.724 0,0 0.991,5.7653 -1.181,7.9946 l -0.339,0.1147 c -1.114,-0.568 0.724,0.9947 0.932,1.7027 0.87,3.136 1.016,8.2346 0.714,9.5319 -0.402,1.7904 -2.739,2.7444 -1.187,4.2444 0,0 1.145,1.869 3.708,0.718 0.932,-0.41 3.255,-0.369 3.255,-0.369 0.24,0.041 1.37,0.192 2.36,-0.125 1.104,-0.359 2.145,-1.224 2.145,-1.224 0,0 1.907,-1.323 2.912,-1.495 2.771,-0.4534 2.828,-2.396 2.828,-2.396 0.473,-2.1147 -2.141,-1.8587 -3.469,-3.1253"
     id="path577" />
  <path
     style="fill:none;stroke:#231f20;stroke-width:0.565977;stroke-linecap:butt;stroke-linejoin:miter;stroke-miterlimit:4;stroke-dasharray:none;stroke-opacity:1"
     d="m 284.14203,56.366746 c -0.963,-0.9267 -3.662,-5.2547 -4.656,-8.348 -0.23,-0.7134 0.448,-3.0267 -0.172,-1.9374 l -0.344,0.088 c -3.047,-0.656 -5.396,-6.0106 -5.396,-6.0106 0,0 -0.703,-0.2347 -1.176,-0.088 -0.48,0.14 -0.934,0.724 -0.934,0.724 0,0 0.991,5.7653 -1.181,7.9946 l -0.339,0.1147 c -1.114,-0.568 0.724,0.9947 0.932,1.7027 0.87,3.136 1.016,8.2346 0.714,9.5319 -0.402,1.7904 -2.739,2.7444 -1.187,4.2444 0,0 1.145,1.869 3.708,0.718 0.932,-0.41 3.255,-0.369 3.255,-0.369 0.24,0.041 1.37,0.192 2.36,-0.125 1.104,-0.359 2.145,-1.224 2.145,-1.224 0,0 1.907,-1.323 2.912,-1.495 2.771,-0.4534 2.828,-2.396 2.828,-2.396 0.473,-2.1147 -2.141,-1.8587 -3.469,-3.1253 z"
     id="path578" />
  <path
     style="fill:#0098c9;fill-opacity:1;fill-rule:nonzero;stroke:none"
     d="m 270.22003,50.013346 c -0.229,-0.26 -1,-1.396 -1.213,-1.808 -1.376,-2.6293 -1.688,-6.5719 -2.084,-7.7813 -0.396,-1.2133 6.167,-1.8226 6.167,-1.8226 l 0.912,1.1466 c 0.401,-0.4746 0.182,-0.016 0.182,-0.016 l 0.802,-1.4066 c 0,0 6.401,-0.9107 6.354,0.104 -0.062,1.3906 0.328,6.0053 -0.376,8.3439 -0.38,1.2974 -1.088,2.0414 -1.088,2.0414 0,0 -3.734,-0.708 -5.15,-0.5627 -1.423,0.152 -4.506,1.7613 -4.506,1.7613"
     id="path579" />
  <path
     style="fill:none;stroke:#231f20;stroke-width:0.565977;stroke-linecap:butt;stroke-linejoin:miter;stroke-miterlimit:4;stroke-dasharray:none;stroke-opacity:1"
     d="m 270.22003,50.013346 c -0.229,-0.26 -1,-1.396 -1.213,-1.808 -1.376,-2.6293 -1.688,-6.5719 -2.084,-7.7813 -0.396,-1.2133 6.167,-1.8226 6.167,-1.8226 l 0.912,1.1466 c 0.401,-0.4746 0.182,-0.016 0.182,-0.016 l 0.802,-1.4066 c 0,0 6.401,-0.9107 6.354,0.104 -0.062,1.3906 0.328,6.0053 -0.376,8.3439 -0.38,1.2974 -1.088,2.0414 -1.088,2.0414 0,0 -3.734,-0.708 -5.15,-0.5627 -1.423,0.152 -4.506,1.7613 -4.506,1.7613 z"
     id="path580" />
  <path
     style="fill:none;stroke:#231f20;stroke-width:0.565977;stroke-linecap:round;stroke-linejoin:round;stroke-miterlimit:4;stroke-dasharray:none;stroke-opacity:1"
     d="m 270.95503,40.502746 c 1.176,-1.36 3.208,-0.6093 3.208,-0.6093 1.64,-0.8174 3.135,-0.2347 3.135,-0.2347"
     id="path581" />
  <path
     style="fill:#231f20;fill-opacity:1;fill-rule:nonzero;stroke:none"
     d="m 327.78303,8.4508463 c -1.109,0.7706 -0.871,1.7399997 -0.032,2.3439997 0.256,0.1813 0.281,0.5933 0.537,0.7546 0.61,0.36 2.286,-0.12 2.239,-1.6199997 0,-0.104 0.219,-0.896 0.297,-1.5093 0.14,-1.204 -0.15,-3.6827 -2.281,-5.3333 -1.011,-0.7813 -1.287,-0.0427 -0.973,0.4 0.989,1.3906 0.806,1.7093 0.932,2.172 0.432,1.5626 -0.719,2.792 -0.719,2.792"
     id="path582" />
  <path
     style="fill:none;stroke:#231f20;stroke-width:0.332927;stroke-linecap:butt;stroke-linejoin:miter;stroke-miterlimit:4;stroke-dasharray:none;stroke-opacity:1"
     d="m 327.78303,8.4508463 c -1.109,0.7706 -0.871,1.7399997 -0.032,2.3439997 0.256,0.1813 0.281,0.5933 0.537,0.7546 0.61,0.36 2.286,-0.12 2.239,-1.6199997 0,-0.104 0.219,-0.896 0.297,-1.5093 0.14,-1.204 -0.15,-3.6827 -2.281,-5.3333 -1.011,-0.7813 -1.287,-0.0427 -0.973,0.4 0.989,1.3906 0.806,1.7093 0.932,2.172 0.432,1.5626 -0.719,2.792 -0.719,2.792 z"
     id="path583" />
  <path
     style="fill:#231f20;fill-opacity:1;fill-rule:nonzero;stroke:none"
     d="m 328.62203,27.185446 c -2.256,0.192 -2.724,-0.068 -2.871,-1.016 -0.099,-0.6307 -0.411,-1.1827 -0.489,-1.5627 -0.255,-1.2706 -0.167,-3.5106 1.729,-9.8119 0.437,-1.432 1.031,-3.4427 1.208,-4.2867 0.281,-1.3279997 2.292,0.036 2.188,0.5573 -0.333,1.6827 -0.427,2.864 -0.464,3.4947 -0.025,0.4213 -0.172,1.172 -0.057,2.8333 0.172,2.5213 0.652,4 0.546,6.1147 -0.041,0.984 0.543,1.7493 0.006,2.688 -0.531,0.9466 -1.796,0.9893 -1.796,0.9893"
     id="path584" />
  <path
     style="fill:none;stroke:#231f20;stroke-width:0.565977;stroke-linecap:butt;stroke-linejoin:miter;stroke-miterlimit:4;stroke-dasharray:none;stroke-opacity:1"
     d="m 328.62203,27.185446 c -2.256,0.192 -2.724,-0.068 -2.871,-1.016 -0.099,-0.6307 -0.411,-1.1827 -0.489,-1.5627 -0.255,-1.2706 -0.167,-3.5106 1.729,-9.8119 0.437,-1.432 1.031,-3.4427 1.208,-4.2867 0.281,-1.3279997 2.292,0.036 2.188,0.5573 -0.333,1.6827 -0.427,2.864 -0.464,3.4947 -0.025,0.4213 -0.172,1.172 -0.057,2.8333 0.172,2.5213 0.652,4 0.546,6.1147 -0.041,0.984 0.543,1.7493 0.006,2.688 -0.531,0.9466 -1.796,0.9893 -1.796,0.9893 z"
     id="path585" />
  <path
     style="fill:#0098c9;fill-opacity:1;fill-rule:nonzero;stroke:none"
     d="m 324.31903,52.924046 c 0.24,-3.124 -0.052,-3.8227 -0.349,-4.6973 -1.848,-5.4733 0.876,-6.2813 3.657,-5.5413 3.28,0.8586 4.473,1.1093 3.4,7.3066 -0.307,1.7293 -0.593,8.4946 -0.593,8.4946 0.229,2.4427 -0.855,4.9374 -2.12,5.6564 -1.334,0.761 -0.859,0.365 -2.219,0.844 -1.301,0.453 -3.448,0.037 -4.052,-1.042 -0.579,-1.036 0.251,-2.4784 1.183,-4.7184 0.729,-1.7653 1.093,-6.3026 1.093,-6.3026"
     id="path586" />
  <path
     style="fill:none;stroke:#231f20;stroke-width:0.565977;stroke-linecap:butt;stroke-linejoin:miter;stroke-miterlimit:4;stroke-dasharray:none;stroke-opacity:1"
     d="m 324.31903,52.924046 c 0.24,-3.124 -0.052,-3.8227 -0.349,-4.6973 -1.848,-5.4733 0.876,-6.2813 3.657,-5.5413 3.28,0.8586 4.473,1.1093 3.4,7.3066 -0.307,1.7293 -0.593,8.4946 -0.593,8.4946 0.229,2.4427 -0.855,4.9374 -2.12,5.6564 -1.334,0.761 -0.859,0.365 -2.219,0.844 -1.301,0.453 -3.448,0.037 -4.052,-1.042 -0.579,-1.036 0.251,-2.4784 1.183,-4.7184 0.729,-1.7653 1.093,-6.3026 1.093,-6.3026 z"
     id="path587" />
  <path
     style="fill:#ffffff;fill-opacity:1;fill-rule:nonzero;stroke:none"
     d="m 323.73103,71.399046 c -0.183,0.161 0.328,1.192 -0.12,1.458 -0.453,0.271 -1.016,-0.286 -2.995,-0.1 l -0.021,0.006 c -1.437,0.182 -2.765,-0.234 -3.489,-1.255 -1.203,-1.699 -0.308,-4.396 1.989,-6.027 2.308,-1.64 5.151,-1.582 6.349,0.104 1.151,1.62 0.38,4.168 -1.713,5.814"
     id="path588" />
  <path
     style="fill:none;stroke:#231f20;stroke-width:0.565977;stroke-linecap:butt;stroke-linejoin:miter;stroke-miterlimit:4;stroke-dasharray:none;stroke-opacity:1"
     d="m 323.73103,71.399046 c -0.183,0.161 0.328,1.192 -0.12,1.458 -0.453,0.271 -1.016,-0.286 -2.995,-0.1 l -0.021,0.006 c -1.437,0.182 -2.765,-0.234 -3.489,-1.255 -1.203,-1.699 -0.308,-4.396 1.989,-6.027 2.308,-1.64 5.151,-1.582 6.349,0.104 1.151,1.62 0.38,4.168 -1.713,5.814 z"
     id="path589" />
  <path
     style="fill:#231f20;fill-opacity:1;fill-rule:nonzero;stroke:none"
     d="m 327.84603,24.841446 c 3.948,-0.6987 2.781,3.208 2.864,3.6827 0.885,4.9319 0.822,5.3066 1.24,9.1039 0.598,5.4947 0.161,9.3533 -2.932,10.6347 -2.1,0.8653 -3.688,0.464 -4.606,-0.484 -1.014,-1.052 -1.921,-4.0933 -0.025,-6.276 l 0.276,-1.688 c 0.036,-1.1613 0.068,-1.7333 0.041,-2.312 -0.046,-1 -0.036,-2.0787 -0.01,-4.036 0.032,-3.4693 1.209,-7.1253 1.209,-7.1253 0.047,-1.2453 1.943,-1.5 1.943,-1.5"
     id="path590" />
  <path
     style="fill:none;stroke:#231f20;stroke-width:0.565977;stroke-linecap:butt;stroke-linejoin:miter;stroke-miterlimit:4;stroke-dasharray:none;stroke-opacity:1"
     d="m 327.84603,24.841446 c 3.948,-0.6987 2.781,3.208 2.864,3.6827 0.885,4.9319 0.822,5.3066 1.24,9.1039 0.598,5.4947 0.161,9.3533 -2.932,10.6347 -2.1,0.8653 -3.688,0.464 -4.606,-0.484 -1.014,-1.052 -1.921,-4.0933 -0.025,-6.276 l 0.276,-1.688 c 0.036,-1.1613 0.068,-1.7333 0.041,-2.312 -0.046,-1 -0.036,-2.0787 -0.01,-4.036 0.032,-3.4693 1.209,-7.1253 1.209,-7.1253 0.047,-1.2453 1.943,-1.5 1.943,-1.5 z"
     id="path591" />
  <path
     style="fill:#0098c9;fill-opacity:1;fill-rule:nonzero;stroke:none"
     d="m 332.45003,43.852046 c -0.016,-0.068 -0.027,-0.152 -0.032,-0.2293 0.141,-0.568 0.266,-1.1613 0.365,-1.8133 l -7.787,-0.6707 c -2.234,1.828 -1.838,4.984 -1.016,6.1866 0.746,1.084 2.246,1.7507 4.459,1.2454 1.432,-0.328 2.432,-1.2507 3.145,-2.6307 0.667,-0.8013 1.052,-1.3013 0.866,-2.088"
     id="path592" />
  <path
     style="fill:none;stroke:#231f20;stroke-width:0.565977;stroke-linecap:butt;stroke-linejoin:miter;stroke-miterlimit:4;stroke-dasharray:none;stroke-opacity:1"
     d="m 332.45003,43.852046 c -0.016,-0.068 -0.027,-0.152 -0.032,-0.2293 0.141,-0.568 0.266,-1.1613 0.365,-1.8133 l -7.787,-0.6707 c -2.234,1.828 -1.838,4.984 -1.016,6.1866 0.746,1.084 2.246,1.7507 4.459,1.2454 1.432,-0.328 2.432,-1.2507 3.145,-2.6307 0.667,-0.8013 1.052,-1.3013 0.866,-2.088 z"
     id="path593" />
  <path
     style="fill:#231f20;fill-opacity:1;fill-rule:nonzero;stroke:none"
     d="m 328.21003,82.633046 c 0.292,-0.573 -0.178,-2.469 0.057,-4.057 0.167,-1.073 -0.573,-3.719 -0.328,-4.771 0.213,-0.974 0.229,-1.438 -0.839,-1.876 -0.625,-0.265 -2.016,-0.358 -2.229,0.104 -0.505,1.074 -0.541,2.022 -0.359,3.074 0.208,1.198 1.062,4.396 1.271,4.974 0.531,1.422 0.307,2.124 0.411,2.515 0.193,0.74 0.526,0.844 1.026,0.824 0.964,-0.048 0.99,-0.787 0.99,-0.787"
     id="path594" />
  <path
     style="fill:none;stroke:#231f20;stroke-width:0.565977;stroke-linecap:butt;stroke-linejoin:miter;stroke-miterlimit:4;stroke-dasharray:none;stroke-opacity:1"
     d="m 328.21003,82.633046 c 0.292,-0.573 -0.178,-2.469 0.057,-4.057 0.167,-1.073 -0.573,-3.719 -0.328,-4.771 0.213,-0.974 0.229,-1.438 -0.839,-1.876 -0.625,-0.265 -2.016,-0.358 -2.229,0.104 -0.505,1.074 -0.541,2.022 -0.359,3.074 0.208,1.198 1.062,4.396 1.271,4.974 0.531,1.422 0.307,2.124 0.411,2.515 0.193,0.74 0.526,0.844 1.026,0.824 0.964,-0.048 0.99,-0.787 0.99,-0.787 z"
     id="path595" />
  <path
     style="fill:#231f20;fill-opacity:1;fill-rule:nonzero;stroke:none"
     d="m 327.28803,73.617046 c 1.271,-0.27 0.479,-2.15 0.348,-2.672 -0.129,-0.53 -0.333,-2.073 -0.333,-3.297 -0.005,-1.228 -0.536,-2.749 -0.541,-5.077 -0.006,-1.2244 -0.787,-2.4124 -2.558,-2.323 -1.76,0.0826 -2.369,1.0986 -2.14,2.577 0.23,1.48 1.072,2.771 1.406,4.246 0.338,1.468 0.542,3.005 0.646,4.218 0.12,1.375 0.687,2.016 1.14,2.156 1.142,0.375 2.032,0.172 2.032,0.172"
     id="path596" />
  <path
     style="fill:none;stroke:#231f20;stroke-width:0.565977;stroke-linecap:butt;stroke-linejoin:miter;stroke-miterlimit:4;stroke-dasharray:none;stroke-opacity:1"
     d="m 327.28803,73.617046 c 1.271,-0.27 0.479,-2.15 0.348,-2.672 -0.129,-0.53 -0.333,-2.073 -0.333,-3.297 -0.005,-1.228 -0.536,-2.749 -0.541,-5.077 -0.006,-1.2244 -0.787,-2.4124 -2.558,-2.323 -1.76,0.0826 -2.369,1.0986 -2.14,2.577 0.23,1.48 1.072,2.771 1.406,4.246 0.338,1.468 0.542,3.005 0.646,4.218 0.12,1.375 0.687,2.016 1.14,2.156 1.142,0.375 2.032,0.172 2.032,0.172 z"
     id="path597" />
  <path
     style="fill:#ffffff;fill-opacity:1;fill-rule:nonzero;stroke:none"
     d="m 326.30803,86.336046 c 0.636,0.807 1.803,0.953 2.615,0.317 0.808,-0.629 0.953,-1.801 0.317,-2.614 -0.629,-0.807 -1.801,-0.948 -2.613,-0.318 -0.808,0.636 -0.948,1.808 -0.319,2.615"
     id="path598" />
  <path
     style="fill:none;stroke:#231f20;stroke-width:1.33171;stroke-linecap:butt;stroke-linejoin:miter;stroke-miterlimit:4;stroke-dasharray:none;stroke-opacity:1"
     d="m 326.30803,86.336046 c 0.636,0.807 1.803,0.953 2.615,0.317 0.808,-0.629 0.953,-1.801 0.317,-2.614 -0.629,-0.807 -1.801,-0.948 -2.613,-0.318 -0.808,0.636 -0.948,1.808 -0.319,2.615 z"
     id="path599" />
  <path
     style="fill:none;stroke:#231f20;stroke-width:0.399514;stroke-linecap:butt;stroke-linejoin:miter;stroke-miterlimit:4;stroke-dasharray:none;stroke-opacity:1"
     d="m 152.26203,111.60105 c 26.484,-0.614 35.511,-33.749004 34.865,-40.984004"
     id="path600" />
  <path
     style="fill:#231f20;fill-opacity:1;fill-rule:nonzero;stroke:none"
     d="m 187.01803,69.415046 c 0.26,0.546 0.681,1.218 1.099,1.618 l -0.975,-0.26 -0.916,0.427 c 0.339,-0.468 0.635,-1.203 0.792,-1.785"
     id="path601" />
  <path
     style="fill:#0098c9;fill-opacity:1;fill-rule:nonzero;stroke:none"
     d="m 72.814029,74.331046 c -0.885,3.396 -0.948,4.369 -1.134,5.5 -0.948,5.698 0.202,6.297 2.546,6.792 3.317,0.692 5.203,0.76 5.896,-5.495 0.531,-4.751 1.604,-8.204 1.604,-8.204 1.016,-1.567 1.625,-5.115 1.219,-5.927 -0.694,-1.369 -0.599,-1.082 -1.766,-1.932 -2.161,-1.578 -3.245,-1.057 -4.12,-0.245 -0.865,0.813 -1.344,1.729 -2.379,4.339 -0.814,2.026 -1.866,5.172 -1.866,5.172"
     id="path602" />
  <path
     style="fill:none;stroke:#231f20;stroke-width:0.565977;stroke-linecap:butt;stroke-linejoin:miter;stroke-miterlimit:4;stroke-dasharray:none;stroke-opacity:1"
     d="m 72.814029,74.331046 c -0.885,3.396 -0.948,4.369 -1.134,5.5 -0.948,5.698 0.202,6.297 2.546,6.792 3.317,0.692 5.203,0.76 5.896,-5.495 0.531,-4.751 1.604,-8.204 1.604,-8.204 1.016,-1.567 1.625,-5.115 1.219,-5.927 -0.694,-1.369 -0.599,-1.082 -1.766,-1.932 -2.161,-1.578 -3.245,-1.057 -4.12,-0.245 -0.865,0.813 -1.344,1.729 -2.379,4.339 -0.814,2.026 -1.866,5.172 -1.866,5.172 z"
     id="path603" />
  <path
     style="fill:#ffffff;fill-opacity:1;fill-rule:nonzero;stroke:none"
     d="m 85.846029,60.060046 c 0.119,-0.2134 1.233,0.0826 1.4,-0.4174 0.172,-0.4946 -0.489,-0.9266 -0.703,-2.9053 l -0.005,-0.0213 c -0.109,-1.4533 -0.792,-2.6613 -1.943,-3.1613 -1.901,-0.8387 -4.358,0.588 -5.489,3.1773 -1.136,2.588 -0.505,5.359 1.396,6.187 1.817,0.802 4.156,-0.474 5.344,-2.859"
     id="path604" />
  <path
     style="fill:none;stroke:#231f20;stroke-width:0.565977;stroke-linecap:butt;stroke-linejoin:miter;stroke-miterlimit:4;stroke-dasharray:none;stroke-opacity:1"
     d="m 85.846029,60.060046 c 0.119,-0.2134 1.233,0.0826 1.4,-0.4174 0.172,-0.4946 -0.489,-0.9266 -0.703,-2.9053 l -0.005,-0.0213 c -0.109,-1.4533 -0.792,-2.6613 -1.943,-3.1613 -1.901,-0.8387 -4.358,0.588 -5.489,3.1773 -1.136,2.588 -0.505,5.359 1.396,6.187 1.817,0.802 4.156,-0.474 5.344,-2.859 z"
     id="path605" />
  <path
     style="fill:#231f20;fill-opacity:1;fill-rule:nonzero;stroke:none"
     d="m 96.361029,76.643046 c -0.64,0.1 -2.286,-0.932 -3.875,-1.198 -1.073,-0.182 -3.359,-1.702 -4.437,-1.797 -0.99,-0.093 -1.438,-0.228 -1.522,-1.375 -0.052,-0.682 0.282,-2.025 0.787,-2.088 1.188,-0.152 2.095,0.11 3.037,0.61 1.078,0.572 3.854,2.374 4.334,2.749 1.192,0.953 1.926,0.953 2.265,1.172 0.639998,0.417 0.639998,0.76 0.462998,1.235 -0.337998,0.896 -1.051998,0.692 -1.051998,0.692"
     id="path606" />
  <path
     style="fill:none;stroke:#231f20;stroke-width:0.565977;stroke-linecap:butt;stroke-linejoin:miter;stroke-miterlimit:4;stroke-dasharray:none;stroke-opacity:1"
     d="m 96.361029,76.643046 c -0.64,0.1 -2.286,-0.932 -3.875,-1.198 -1.073,-0.182 -3.359,-1.702 -4.437,-1.797 -0.99,-0.093 -1.438,-0.228 -1.522,-1.375 -0.052,-0.682 0.282,-2.025 0.787,-2.088 1.188,-0.152 2.095,0.11 3.037,0.61 1.078,0.572 3.854,2.374 4.334,2.749 1.192,0.953 1.926,0.953 2.265,1.172 0.639998,0.417 0.639998,0.76 0.462998,1.235 -0.337998,0.896 -1.051998,0.692 -1.051998,0.692 z"
     id="path607" />
  <path
     style="fill:#231f20;fill-opacity:1;fill-rule:nonzero;stroke:none"
     d="m 88.075029,72.976046 c -0.652,1.115 -2.193,-0.213 -2.652,-0.495 -0.462,-0.29 -1.869,-0.962 -3.025,-1.342 -1.167,-0.386 -2.453,-1.36 -4.661,-2.09 -1.163,-0.385 -2.048,-1.494 -1.418,-3.156 0.626,-1.641 1.782,-1.906 3.115,-1.229 1.339,0.677 2.303,1.875 3.604,2.651 1.292,0.776 2.688,1.448 3.808,1.922 1.271,0.536 1.697,1.276 1.703,1.755 0,1.193 -0.474,1.984 -0.474,1.984"
     id="path608" />
  <path
     style="fill:none;stroke:#231f20;stroke-width:0.565977;stroke-linecap:butt;stroke-linejoin:miter;stroke-miterlimit:4;stroke-dasharray:none;stroke-opacity:1"
     d="m 88.075029,72.976046 c -0.652,1.115 -2.193,-0.213 -2.652,-0.495 -0.462,-0.29 -1.869,-0.962 -3.025,-1.342 -1.167,-0.386 -2.453,-1.36 -4.661,-2.09 -1.163,-0.385 -2.048,-1.494 -1.418,-3.156 0.626,-1.641 1.782,-1.906 3.115,-1.229 1.339,0.677 2.303,1.875 3.604,2.651 1.292,0.776 2.688,1.448 3.808,1.922 1.271,0.536 1.697,1.276 1.703,1.755 0,1.193 -0.474,1.984 -0.474,1.984 z"
     id="path609" />
  <path
     style="fill:#ffffff;fill-opacity:1;fill-rule:nonzero;stroke:none"
     d="m 98.997027,77.872046 c 0.91,-0.479 1.260003,-1.604 0.786,-2.515 -0.48,-0.906 -1.604,-1.261 -2.509998,-0.781 -0.912,0.473 -1.266,1.604 -0.787,2.511 0.479,0.91 1.603998,1.26 2.510998,0.785"
     id="path610" />
  <path
     style="fill:none;stroke:#231f20;stroke-width:1.33171;stroke-linecap:butt;stroke-linejoin:miter;stroke-miterlimit:4;stroke-dasharray:none;stroke-opacity:1"
     d="m 98.997027,77.872046 c 0.91,-0.479 1.260003,-1.604 0.786,-2.515 -0.48,-0.906 -1.604,-1.261 -2.509998,-0.781 -0.912,0.473 -1.266,1.604 -0.787,2.511 0.479,0.91 1.603998,1.26 2.510998,0.785 z"
     id="path611" />
  <path
     style="fill:#0098c9;fill-opacity:1;fill-rule:nonzero;stroke:none"
     d="m 158.22603,82.404046 c 0.375,-3.489 0.296,-4.464 0.312,-5.604 0.093,-5.781 -1.129,-6.199 -3.516,-6.344 -3.391,-0.199 -5.265,0.016 -5.031,6.312 0.178,4.771 -0.369,8.339 -0.369,8.339 -0.776,1.702 -0.86,5.297 -0.333,6.041 0.885,1.256 0.749,0.991 2.036,1.657 2.369,1.239 3.36,0.567 4.104,-0.365 0.74,-0.927 1.073,-1.911 1.718,-4.645 0.5,-2.12 1.079,-5.391 1.079,-5.391"
     id="path612" />
  <path
     style="fill:none;stroke:#231f20;stroke-width:0.565977;stroke-linecap:butt;stroke-linejoin:miter;stroke-miterlimit:4;stroke-dasharray:none;stroke-opacity:1"
     d="m 158.22603,82.404046 c 0.375,-3.489 0.296,-4.464 0.312,-5.604 0.093,-5.781 -1.129,-6.199 -3.516,-6.344 -3.391,-0.199 -5.265,0.016 -5.031,6.312 0.178,4.771 -0.369,8.339 -0.369,8.339 -0.776,1.702 -0.86,5.297 -0.333,6.041 0.885,1.256 0.749,0.991 2.036,1.657 2.369,1.239 3.36,0.567 4.104,-0.365 0.74,-0.927 1.073,-1.911 1.718,-4.645 0.5,-2.12 1.079,-5.391 1.079,-5.391 z"
     id="path613" />
  <path
     style="fill:#ffffff;fill-opacity:1;fill-rule:nonzero;stroke:none"
     d="m 144.49103,93.836046 c -0.197,0.145 -1.098,-0.568 -1.453,-0.188 -0.353,0.385 0.068,1.052 -0.525,2.948 l -0.006,0.021 c -0.48,1.37 -0.349,2.755 0.506,3.678004 1.41,1.53 4.228,1.218 6.301,-0.699004 2.084,-1.911 2.625,-4.703 1.213,-6.229 -1.338,-1.463 -3.989,-1.239 -6.036,0.469"
     id="path614" />
  <path
     style="fill:none;stroke:#231f20;stroke-width:0.565977;stroke-linecap:butt;stroke-linejoin:miter;stroke-miterlimit:4;stroke-dasharray:none;stroke-opacity:1"
     d="m 144.49103,93.836046 c -0.197,0.145 -1.098,-0.568 -1.453,-0.188 -0.353,0.385 0.068,1.052 -0.525,2.948 l -0.006,0.021 c -0.48,1.37 -0.349,2.755 0.506,3.678004 1.41,1.53 4.228,1.218 6.301,-0.699004 2.084,-1.911 2.625,-4.703 1.213,-6.229 -1.338,-1.463 -3.989,-1.239 -6.036,0.469 z"
     id="path615" />
  <path
     style="fill:#231f20;fill-opacity:1;fill-rule:nonzero;stroke:none"
     d="m 137.84103,76.721046 c 0.64,0.058 1.989,1.464 3.462,2.11 0.991,0.437 2.839,2.474 3.86,2.833 0.938,0.328 1.339,0.568 1.14,1.703 -0.114,0.672 -0.77,1.896 -1.276,1.833 -1.181,-0.145 -2,-0.619 -2.796,-1.337 -0.901,-0.819 -3.152,-3.246 -3.526,-3.724 -0.922,-1.22 -1.635,-1.396 -1.911,-1.694 -0.521,-0.557 -0.433,-0.896 -0.147,-1.306 0.552,-0.787 1.194,-0.418 1.194,-0.418"
     id="path616" />
  <path
     style="fill:none;stroke:#231f20;stroke-width:0.565977;stroke-linecap:butt;stroke-linejoin:miter;stroke-miterlimit:4;stroke-dasharray:none;stroke-opacity:1"
     d="m 137.84103,76.721046 c 0.64,0.058 1.989,1.464 3.462,2.11 0.991,0.437 2.839,2.474 3.86,2.833 0.938,0.328 1.339,0.568 1.14,1.703 -0.114,0.672 -0.77,1.896 -1.276,1.833 -1.181,-0.145 -2,-0.619 -2.796,-1.337 -0.901,-0.819 -3.152,-3.246 -3.526,-3.724 -0.922,-1.22 -1.635,-1.396 -1.911,-1.694 -0.521,-0.557 -0.433,-0.896 -0.147,-1.306 0.552,-0.787 1.194,-0.418 1.194,-0.418 z"
     id="path617" />
  <path
     style="fill:#231f20;fill-opacity:1;fill-rule:nonzero;stroke:none"
     d="m 144.97503,82.309046 c 0.907,-0.926 2.074,0.74 2.448,1.126 0.38,0.396 1.574,1.39 2.61,2.041 1.032,0.663 2.042,1.923 4.005,3.172 1.032,0.657 1.62,1.948 0.599,3.401 -1.006,1.438 -2.192,1.418 -3.318,0.432 -1.134,-0.984 -1.776,-2.38 -2.844,-3.452 -1.066,-1.068 -2.254,-2.057 -3.224,-2.797 -1.098,-0.833 -1.333,-1.651 -1.218,-2.12 0.292,-1.161 0.942,-1.803 0.942,-1.803"
     id="path618" />
  <path
     style="fill:none;stroke:#231f20;stroke-width:0.565977;stroke-linecap:butt;stroke-linejoin:miter;stroke-miterlimit:4;stroke-dasharray:none;stroke-opacity:1"
     d="m 144.97503,82.309046 c 0.907,-0.926 2.074,0.74 2.448,1.126 0.38,0.396 1.574,1.39 2.61,2.041 1.032,0.663 2.042,1.923 4.005,3.172 1.032,0.657 1.62,1.948 0.599,3.401 -1.006,1.438 -2.192,1.418 -3.318,0.432 -1.134,-0.984 -1.776,-2.38 -2.844,-3.452 -1.066,-1.068 -2.254,-2.057 -3.224,-2.797 -1.098,-0.833 -1.333,-1.651 -1.218,-2.12 0.292,-1.161 0.942,-1.803 0.942,-1.803 z"
     id="path619" />
  <path
     style="fill:#ffffff;fill-opacity:1;fill-rule:nonzero;stroke:none"
     d="m 136.74203,74.841046 c -0.767,-0.688 -1.939,-0.625 -2.625,0.14 -0.694,0.762 -0.626,1.938 0.134,2.626 0.767,0.688 1.943,0.625 2.631,-0.14 0.683,-0.762 0.625,-1.938 -0.14,-2.626"
     id="path620" />
  <path
     style="fill:none;stroke:#231f20;stroke-width:1.33171;stroke-linecap:butt;stroke-linejoin:miter;stroke-miterlimit:4;stroke-dasharray:none;stroke-opacity:1"
     d="m 136.74203,74.841046 c -0.767,-0.688 -1.939,-0.625 -2.625,0.14 -0.694,0.762 -0.626,1.938 0.134,2.626 0.767,0.688 1.943,0.625 2.631,-0.14 0.683,-0.762 0.625,-1.938 -0.14,-2.626 z"
     id="path621" />
  <path
     style="fill:#231f20;fill-opacity:1;fill-rule:nonzero;stroke:none"
     d="m 24.872029,53.638746 c -1.844,-1.3187 -2.375,-1.3334 -2.984,-0.5894 -0.407,0.4894 -0.954,0.808 -1.214,1.0934 -0.876,0.964 -1.942,2.9333 -3.526,9.3293 -0.354,1.447 -0.87,3.473 -1.151,4.291 -0.432,1.286 1.995,1.141 2.172,0.636 0.568,-1.62 1.093,-2.683 1.38,-3.235 0.193,-0.385 0.448,-1.099 1.396,-2.468 1.432,-2.084 2.604,-3.1107 3.593,-4.9854 0.464,-0.8639 1.36,-1.2239 1.375,-2.3066 0.021,-1.084 -1.041,-1.7653 -1.041,-1.7653"
     id="path622" />
  <path
     style="fill:none;stroke:#231f20;stroke-width:0.565977;stroke-linecap:butt;stroke-linejoin:miter;stroke-miterlimit:4;stroke-dasharray:none;stroke-opacity:1"
     d="m 24.872029,53.638746 c -1.844,-1.3187 -2.375,-1.3334 -2.984,-0.5894 -0.407,0.4894 -0.954,0.808 -1.214,1.0934 -0.876,0.964 -1.942,2.9333 -3.526,9.3293 -0.354,1.447 -0.87,3.473 -1.151,4.291 -0.432,1.286 1.995,1.141 2.172,0.636 0.568,-1.62 1.093,-2.683 1.38,-3.235 0.193,-0.385 0.448,-1.099 1.396,-2.468 1.432,-2.084 2.604,-3.1107 3.593,-4.9854 0.464,-0.8639 1.36,-1.2239 1.375,-2.3066 0.021,-1.084 -1.041,-1.7653 -1.041,-1.7653 z"
     id="path623" />
  <path
     style="fill:#231f20;fill-opacity:1;fill-rule:nonzero;stroke:none"
     d="m 23.008029,55.262746 c 3.041,2.6146 4.03,-1.348 4.344,-1.708 3.28,-3.792 3.421,-4.1454 5.718,-7.1974 3.318,-4.4226 4.911,-7.9639 2.9,-10.6466 -1.353,-1.8173 -2.937,-2.276 -4.202,-1.932 -1.412,0.3853 -3.746,2.5413 -3.23,5.3853 l -0.625,1.5934 c -0.557,1.0213 -0.828,1.5266 -1.14,2.0053 -0.552,0.8387 -1.093,1.7706 -2.073,3.464 -1.744,3.0106 -2.599,6.7493 -2.599,6.7493 -0.593,1.0947 0.907,2.2867 0.907,2.2867"
     id="path624" />
  <path
     style="fill:none;stroke:#231f20;stroke-width:0.565977;stroke-linecap:butt;stroke-linejoin:miter;stroke-miterlimit:4;stroke-dasharray:none;stroke-opacity:1"
     d="m 23.008029,55.262746 c 3.041,2.6146 4.03,-1.348 4.344,-1.708 3.28,-3.792 3.421,-4.1454 5.718,-7.1974 3.318,-4.4226 4.911,-7.9639 2.9,-10.6466 -1.353,-1.8173 -2.937,-2.276 -4.202,-1.932 -1.412,0.3853 -3.746,2.5413 -3.23,5.3853 l -0.625,1.5934 c -0.557,1.0213 -0.828,1.5266 -1.14,2.0053 -0.552,0.8387 -1.093,1.7706 -2.073,3.464 -1.744,3.0106 -2.599,6.7493 -2.599,6.7493 -0.593,1.0947 0.907,2.2867 0.907,2.2867 z"
     id="path625" />
  <path
     style="fill:#231f20;fill-opacity:1;fill-rule:nonzero;stroke:none"
     d="m 14.590029,69.320046 c -0.557,-1.233 0.142,-1.932 1.172,-2.025 0.308,-0.032 0.547,-0.376 0.844,-0.376 0.708,-0.004 1.902,1.266 1.099,2.537 -0.052,0.083 -0.265,0.875 -0.516,1.443 -0.489,1.109 -2.004,3.093 -4.681,3.421 -1.271,0.156 -1.126,-0.62 -0.631,-0.844 1.563,-0.687 1.568,-1.056 1.907,-1.389 1.172,-1.12 0.806,-2.767 0.806,-2.767"
     id="path626" />
  <path
     style="fill:none;stroke:#231f20;stroke-width:0.332927;stroke-linecap:butt;stroke-linejoin:miter;stroke-miterlimit:4;stroke-dasharray:none;stroke-opacity:1"
     d="m 14.590029,69.320046 c -0.557,-1.233 0.142,-1.932 1.172,-2.025 0.308,-0.032 0.547,-0.376 0.844,-0.376 0.708,-0.004 1.902,1.266 1.099,2.537 -0.052,0.083 -0.265,0.875 -0.516,1.443 -0.489,1.109 -2.004,3.093 -4.681,3.421 -1.271,0.156 -1.126,-0.62 -0.631,-0.844 1.563,-0.687 1.568,-1.056 1.907,-1.389 1.172,-1.12 0.806,-2.767 0.806,-2.767 z"
     id="path627" />
  <path
     style="fill:#0098c9;fill-opacity:1;fill-rule:nonzero;stroke:none"
     d="m 37.404029,46.086746 c -0.563,-3.0787 -0.35,-3.8027 -0.142,-4.704 1.282,-5.6347 -1.505,-6.1613 -4.202,-5.1347 -3.172,1.192 -4.339,1.5614 -2.631,7.624 0.479,1.688 1.464,8.38 1.464,8.38 0.025,2.448 1.353,4.824 2.687,5.412 1.406,0.6146 0.89,0.2706 2.297,0.6093 1.344,0.3227 3.432,-0.3173 3.917,-1.4533 0.474,-1.088 -0.5,-2.4373 -1.657,-4.568 -0.905,-1.6813 -1.733,-6.1653 -1.733,-6.1653"
     id="path628" />
  <path
     style="fill:none;stroke:#231f20;stroke-width:0.565977;stroke-linecap:butt;stroke-linejoin:miter;stroke-miterlimit:4;stroke-dasharray:none;stroke-opacity:1"
     d="m 37.404029,46.086746 c -0.563,-3.0787 -0.35,-3.8027 -0.142,-4.704 1.282,-5.6347 -1.505,-6.1613 -4.202,-5.1347 -3.172,1.192 -4.339,1.5614 -2.631,7.624 0.479,1.688 1.464,8.38 1.464,8.38 0.025,2.448 1.353,4.824 2.687,5.412 1.406,0.6146 0.89,0.2706 2.297,0.6093 1.344,0.3227 3.432,-0.3173 3.917,-1.4533 0.474,-1.088 -0.5,-2.4373 -1.657,-4.568 -0.905,-1.6813 -1.733,-6.1653 -1.733,-6.1653 z"
     id="path629" />
  <path
     style="fill:#ffffff;fill-opacity:1;fill-rule:nonzero;stroke:none"
     d="m 42.852029,65.612046 c 0.224,0.109 0.009,1.229 0.509,1.369 0.5,0.142 0.896,-0.541 2.86,-0.89 h 0.02 c 1.439,-0.203 2.605,-0.958 3.037,-2.14 0.703,-1.954 -0.869,-4.3124 -3.526,-5.2817 -2.656,-0.964 -5.38,-0.1613 -6.088,1.792 -0.683,1.8637 0.74,4.1147 3.188,5.1507"
     id="path630" />
  <path
     style="fill:none;stroke:#231f20;stroke-width:0.565977;stroke-linecap:butt;stroke-linejoin:miter;stroke-miterlimit:4;stroke-dasharray:none;stroke-opacity:1"
     d="m 42.852029,65.612046 c 0.224,0.109 0.009,1.229 0.509,1.369 0.5,0.142 0.896,-0.541 2.86,-0.89 h 0.02 c 1.439,-0.203 2.605,-0.958 3.037,-2.14 0.703,-1.954 -0.869,-4.3124 -3.526,-5.2817 -2.656,-0.964 -5.38,-0.1613 -6.088,1.792 -0.683,1.8637 0.74,4.1147 3.188,5.1507 z"
     id="path631" />
  <path
     style="fill:#231f20;fill-opacity:1;fill-rule:nonzero;stroke:none"
     d="m 32.924029,75.211046 c -0.26,-0.588 0.317,-2.448 0.161,-4.052 -0.104,-1.078 0.776,-3.683 0.595,-4.75 -0.172,-0.974 -0.158,-1.442 0.937,-1.824 0.64,-0.228 2.025,-0.254 2.219,0.224 0.448,1.106 0.432,2.054 0.186,3.095 -0.27,1.183 -1.296,4.333 -1.536,4.891 -0.614,1.396 -0.416,2.109 -0.546,2.494 -0.235,0.724 -0.568,0.812 -1.068,0.766 -0.959,-0.104 -0.948,-0.844 -0.948,-0.844"
     id="path632" />
  <path
     style="fill:none;stroke:#231f20;stroke-width:0.565977;stroke-linecap:butt;stroke-linejoin:miter;stroke-miterlimit:4;stroke-dasharray:none;stroke-opacity:1"
     d="m 32.924029,75.211046 c -0.26,-0.588 0.317,-2.448 0.161,-4.052 -0.104,-1.078 0.776,-3.683 0.595,-4.75 -0.172,-0.974 -0.158,-1.442 0.937,-1.824 0.64,-0.228 2.025,-0.254 2.219,0.224 0.448,1.106 0.432,2.054 0.186,3.095 -0.27,1.183 -1.296,4.333 -1.536,4.891 -0.614,1.396 -0.416,2.109 -0.546,2.494 -0.235,0.724 -0.568,0.812 -1.068,0.766 -0.959,-0.104 -0.948,-0.844 -0.948,-0.844 z"
     id="path633" />
  <path
     style="fill:#231f20;fill-opacity:1;fill-rule:nonzero;stroke:none"
     d="m 34.336029,66.263046 c -1.251,-0.344 -0.366,-2.176 -0.208,-2.692 0.161,-0.522 0.446,-2.052 0.514,-3.2657 0.068,-1.2293 0.683,-2.724 0.819,-5.048 0.072,-1.2186 0.916,-2.3586 2.681,-2.1813 1.746,0.1813 2.303,1.2293 1.995,2.692 -0.307,1.4693 -1.219,2.708 -1.635,4.1613 -0.417,1.4533 -0.704,2.9747 -0.874,4.1777 -0.194,1.369 -0.798,1.974 -1.256,2.098 -1.156,0.308 -2.036,0.058 -2.036,0.058"
     id="path634" />
  <path
     style="fill:none;stroke:#231f20;stroke-width:0.565977;stroke-linecap:butt;stroke-linejoin:miter;stroke-miterlimit:4;stroke-dasharray:none;stroke-opacity:1"
     d="m 34.336029,66.263046 c -1.251,-0.344 -0.366,-2.176 -0.208,-2.692 0.161,-0.522 0.446,-2.052 0.514,-3.2657 0.068,-1.2293 0.683,-2.724 0.819,-5.048 0.072,-1.2186 0.916,-2.3586 2.681,-2.1813 1.746,0.1813 2.303,1.2293 1.995,2.692 -0.307,1.4693 -1.219,2.708 -1.635,4.1613 -0.417,1.4533 -0.704,2.9747 -0.874,4.1777 -0.194,1.369 -0.798,1.974 -1.256,2.098 -1.156,0.308 -2.036,0.058 -2.036,0.058 z"
     id="path635" />
  <path
     style="fill:#ffffff;fill-opacity:1;fill-rule:nonzero;stroke:none"
     d="m 34.356029,77.352046 c 0.485,-0.907 0.146,-2.032 -0.755,-2.521 -0.907,-0.484 -2.036,-0.146 -2.521,0.76 -0.49,0.901 -0.151,2.032 0.761,2.521 0.901,0.479 2.031,0.145 2.515,-0.76"
     id="path636" />
  <path
     style="fill:none;stroke:#231f20;stroke-width:1.33171;stroke-linecap:butt;stroke-linejoin:miter;stroke-miterlimit:4;stroke-dasharray:none;stroke-opacity:1"
     d="m 34.356029,77.352046 c 0.485,-0.907 0.146,-2.032 -0.755,-2.521 -0.907,-0.484 -2.036,-0.146 -2.521,0.76 -0.49,0.901 -0.151,2.032 0.761,2.521 0.901,0.479 2.031,0.145 2.515,-0.76 z"
     id="path637" />
  <path
     style="fill:#ffffff;fill-opacity:1;fill-rule:nonzero;stroke:none"
     d="m 19.841029,49.929346 c -1.251,-1.8853 -1.751,-2.0773 -2.584,-1.5986 -0.557,0.312 -1.177,0.4173 -1.52,0.5933 -1.157,0.5893 -2.86,2.0627 -6.5889999,7.4853 -0.839,1.2333 -2.0419998,2.9533 -2.5829998,3.6147 -0.86,1.052 1.4629998,1.771 1.8009998,1.3586 1.104,-1.312 1.9699999,-2.12 2.4319999,-2.5413 0.319,-0.2867 0.808,-0.8653 2.178,-1.8173 2.078,-1.4427 3.532,-2 5.12,-3.396 0.74,-0.652 1.708,-0.6667 2.098,-1.6773 0.407,-1.0054 -0.353,-2.0214 -0.353,-2.0214"
     id="path638" />
  <path
     style="fill:none;stroke:#231f20;stroke-width:0.565977;stroke-linecap:butt;stroke-linejoin:miter;stroke-miterlimit:4;stroke-dasharray:none;stroke-opacity:1"
     d="m 19.841029,49.929346 c -1.251,-1.8853 -1.751,-2.0773 -2.584,-1.5986 -0.557,0.312 -1.177,0.4173 -1.52,0.5933 -1.157,0.5893 -2.86,2.0627 -6.5889999,7.4853 -0.839,1.2333 -2.0419998,2.9533 -2.5829998,3.6147 -0.86,1.052 1.4629998,1.771 1.8009998,1.3586 1.104,-1.312 1.9699999,-2.12 2.4319999,-2.5413 0.319,-0.2867 0.808,-0.8653 2.178,-1.8173 2.078,-1.4427 3.532,-2 5.12,-3.396 0.74,-0.652 1.708,-0.6667 2.098,-1.6773 0.407,-1.0054 -0.353,-2.0214 -0.353,-2.0214 z"
     id="path639" />
  <path
     style="fill:#ffffff;fill-opacity:1;fill-rule:nonzero;stroke:#231f20;stroke-width:0.565977;stroke-linecap:round;stroke-linejoin:round;stroke-miterlimit:4;stroke-dasharray:none;stroke-opacity:1"
     d="m 19.241029,52.362746 c 1.396,0.2706 2.652,-1.4747 2.953,-1.636 4.407,-2.3907 4.662,-2.6774 7.886,-4.724 4.666,-2.9693 7.401,-5.7133 6.474,-8.9373 -0.641,-2.1827 -1.953,-3.1614 -3.26,-3.292 -1.458,-0.1347 -4.401,1.0626 -4.917,3.9066 l -1.145,1.2654 c -0.886,0.76 -1.319,1.1413 -1.782,1.4786 -0.813,0.5894 -1.636,1.272 -3.156,2.5107 -2.688,2.204 -4.808,5.4013 -4.808,5.4013 -0.234,0.208 -0.354,0.464 -0.396,0.7293"
     id="path640" />
  <path
     style="fill:#231f20;fill-opacity:1;fill-rule:nonzero;stroke:none"
     d="m 4.6940293,60.986646 c -0.088,-1.348 0.814,-1.76 1.814,-1.484 0.301,0.0787 0.645,-0.156 0.9209998,-0.052 0.661,0.2454 1.333,1.8547 0.141,2.7544 -0.084,0.063 -0.5619998,0.735 -0.9999998,1.172 -0.849,0.871 -2.958,2.188 -5.58900002,1.558 -1.239,-0.302 -0.833,-0.979 -0.296,-1.011 1.70800002,-0.099 1.84300002,-0.437 2.28000002,-0.629 1.496,-0.636 1.729,-2.3084 1.729,-2.3084"
     id="path641" />
  <path
     style="fill:none;stroke:#231f20;stroke-width:0.332927;stroke-linecap:butt;stroke-linejoin:miter;stroke-miterlimit:4;stroke-dasharray:none;stroke-opacity:1"
     d="m 4.6940293,60.986646 c -0.088,-1.348 0.814,-1.76 1.814,-1.484 0.301,0.0787 0.645,-0.156 0.9209998,-0.052 0.661,0.2454 1.333,1.8547 0.141,2.7544 -0.084,0.063 -0.5619998,0.735 -0.9999998,1.172 -0.849,0.871 -2.958,2.188 -5.58900002,1.558 -1.239,-0.302 -0.833,-0.979 -0.296,-1.011 1.70800002,-0.099 1.84300002,-0.437 2.28000002,-0.629 1.496,-0.636 1.729,-2.3084 1.729,-2.3084 z"
     id="path642" />
  <path
     style="fill:#0098c9;fill-opacity:1;fill-rule:nonzero;stroke:none"
     d="m 36.549029,36.492046 c -0.959,-2.0573 -2.401,-2.828 -3.724,-2.7546 -1.453,0.0933 -4.188,1.724 -4.26,4.6146 l 5.323,5.7187 c 2.593,-2.7187 3.781,-5.1827 2.661,-7.5787"
     id="path643" />
  <path
     style="fill:none;stroke:#231f20;stroke-width:0.565977;stroke-linecap:butt;stroke-linejoin:miter;stroke-miterlimit:4;stroke-dasharray:none;stroke-opacity:1"
     d="m 36.549029,36.492046 c -0.959,-2.0573 -2.401,-2.828 -3.724,-2.7546 -1.453,0.0933 -4.188,1.724 -4.26,4.6146 l 5.323,5.7187 c 2.593,-2.7187 3.781,-5.1827 2.661,-7.5787 z"
     id="path644" />
  <path
     style="fill:#231f20;fill-opacity:1;fill-rule:nonzero;stroke:none"
     d="m 215.63603,54.726746 c -0.009,-2.2654 -0.306,-2.708 -1.265,-2.7707 -0.64,-0.0413 -1.213,-0.3027 -1.599,-0.3493 -1.292,-0.1454 -3.516,0.136 -9.63,2.584 -1.38,0.5573 -3.328,1.3226 -4.156,1.5666 -1.297,0.4014 0.24,2.292 0.751,2.136 1.645,-0.4786 2.812,-0.6773 3.432,-0.7706 0.421,-0.0627 1.156,-0.2707 2.817,-0.3027 2.527,-0.052 4.046,0.2973 6.145,0.0107 0.975,-0.1254 1.787,0.3906 2.672,-0.2294 0.896,-0.6146 0.833,-1.8746 0.833,-1.8746"
     id="path645" />
  <path
     style="fill:none;stroke:#231f20;stroke-width:0.565977;stroke-linecap:butt;stroke-linejoin:miter;stroke-miterlimit:4;stroke-dasharray:none;stroke-opacity:1"
     d="m 215.63603,54.726746 c -0.009,-2.2654 -0.306,-2.708 -1.265,-2.7707 -0.64,-0.0413 -1.213,-0.3027 -1.599,-0.3493 -1.292,-0.1454 -3.516,0.136 -9.63,2.584 -1.38,0.5573 -3.328,1.3226 -4.156,1.5666 -1.297,0.4014 0.24,2.292 0.751,2.136 1.645,-0.4786 2.812,-0.6773 3.432,-0.7706 0.421,-0.0627 1.156,-0.2707 2.817,-0.3027 2.527,-0.052 4.046,0.2973 6.145,0.0107 0.975,-0.1254 1.787,0.3906 2.672,-0.2294 0.896,-0.6146 0.833,-1.8746 0.833,-1.8746 z"
     id="path646" />
  <path
     style="fill:#231f20;fill-opacity:1;fill-rule:nonzero;stroke:none"
     d="m 213.22603,54.158746 c -0.344,3.9946 3.448,2.484 3.921,2.532 4.995,0.448 5.365,0.3586 9.188,0.4426 5.52,0.1147 9.323,-0.6573 10.333,-3.8546 0.683,-2.1614 0.135,-3.7134 -0.885,-4.5414 -1.136,-0.9226 -4.245,-1.5626 -6.256,0.52 l -1.656,0.4227 c -1.156,0.14 -1.724,0.2187 -2.297,0.244 -1,0.0427 -2.078,0.1467 -4.02,0.3333 -3.464,0.344 -7,1.8334 -7,1.8334 -1.24,0.152 -1.328,2.068 -1.328,2.068"
     id="path647" />
  <path
     style="fill:none;stroke:#231f20;stroke-width:0.565977;stroke-linecap:butt;stroke-linejoin:miter;stroke-miterlimit:4;stroke-dasharray:none;stroke-opacity:1"
     d="m 213.22603,54.158746 c -0.344,3.9946 3.448,2.484 3.921,2.532 4.995,0.448 5.365,0.3586 9.188,0.4426 5.52,0.1147 9.323,-0.6573 10.333,-3.8546 0.683,-2.1614 0.135,-3.7134 -0.885,-4.5414 -1.136,-0.9226 -4.245,-1.5626 -6.256,0.52 l -1.656,0.4227 c -1.156,0.14 -1.724,0.2187 -2.297,0.244 -1,0.0427 -2.078,0.1467 -4.02,0.3333 -3.464,0.344 -7,1.8334 -7,1.8334 -1.24,0.152 -1.328,2.068 -1.328,2.068 z"
     id="path648" />
  <path
     style="fill:#231f20;fill-opacity:1;fill-rule:nonzero;stroke:none"
     d="m 196.89803,55.529346 c 0.676,-1.172 1.651,-1.016 2.333,-0.2346 0.203,0.2293 0.62,0.2293 0.796,0.468 0.418,0.5733 0.084,2.2813 -1.421,2.3706 -0.099,0.0053 -0.864,0.296 -1.475,0.4267 -1.181,0.2453 -3.681,0.172 -5.509,-1.812 -0.871,-0.9333 -0.157,-1.272 0.312,-1 1.475,0.8693 1.781,0.656 2.245,0.7387 1.599,0.2973 2.719,-0.9574 2.719,-0.9574"
     id="path649" />
  <path
     style="fill:none;stroke:#231f20;stroke-width:0.332927;stroke-linecap:butt;stroke-linejoin:miter;stroke-miterlimit:4;stroke-dasharray:none;stroke-opacity:1"
     d="m 196.89803,55.529346 c 0.676,-1.172 1.651,-1.016 2.333,-0.2346 0.203,0.2293 0.62,0.2293 0.796,0.468 0.418,0.5733 0.084,2.2813 -1.421,2.3706 -0.099,0.0053 -0.864,0.296 -1.475,0.4267 -1.181,0.2453 -3.681,0.172 -5.509,-1.812 -0.871,-0.9333 -0.157,-1.272 0.312,-1 1.475,0.8693 1.781,0.656 2.245,0.7387 1.599,0.2973 2.719,-0.9574 2.719,-0.9574 z"
     id="path650" />
  <path
     style="fill:#0098c9;fill-opacity:1;fill-rule:nonzero;stroke:none"
     d="m 232.64703,61.164046 c 1.095,-2.932 1.651,-3.448 2.292,-4.1093 3.979,-4.188 1.855,-6.068 -0.984,-6.5734 -3.339,-0.5933 -4.532,-0.8746 -6.161,5.2094 -0.454,1.692 -3.038,7.9483 -3.038,7.9483 -1.229,2.114 -1.301,4.833 -0.458,6.025 0.89,1.245 0.625,0.688 1.662,1.699 0.984,0.962 3.104,1.484 4.104,0.76 0.968,-0.699 0.823,-2.35 0.916,-4.776 0.084,-1.912 1.667,-6.183 1.667,-6.183"
     id="path651" />
  <path
     style="fill:none;stroke:#231f20;stroke-width:0.565977;stroke-linecap:butt;stroke-linejoin:miter;stroke-miterlimit:4;stroke-dasharray:none;stroke-opacity:1"
     d="m 232.64703,61.164046 c 1.095,-2.932 1.651,-3.448 2.292,-4.1093 3.979,-4.188 1.855,-6.068 -0.984,-6.5734 -3.339,-0.5933 -4.532,-0.8746 -6.161,5.2094 -0.454,1.692 -3.038,7.9483 -3.038,7.9483 -1.229,2.114 -1.301,4.833 -0.458,6.025 0.89,1.245 0.625,0.688 1.662,1.699 0.984,0.962 3.104,1.484 4.104,0.76 0.968,-0.699 0.823,-2.35 0.916,-4.776 0.084,-1.912 1.667,-6.183 1.667,-6.183 z"
     id="path652" />
  <path
     style="fill:#ffffff;fill-opacity:1;fill-rule:nonzero;stroke:none"
     d="m 227.33503,80.727046 c 0.135,0.202 -0.625,1.057 -0.265,1.437 0.358,0.375 1.046,-0.005 2.91,0.699 l 0.022,0.009 c 1.338,0.557 2.729,0.505 3.702,-0.291 1.604,-1.313 1.459,-4.146 -0.322,-6.333 -1.792,-2.188 -4.542,-2.896 -6.151,-1.584 -1.543,1.255 -1.469,3.917 0.104,6.063"
     id="path653" />
  <path
     style="fill:none;stroke:#231f20;stroke-width:0.565977;stroke-linecap:butt;stroke-linejoin:miter;stroke-miterlimit:4;stroke-dasharray:none;stroke-opacity:1"
     d="m 227.33503,80.727046 c 0.135,0.202 -0.625,1.057 -0.265,1.437 0.358,0.375 1.046,-0.005 2.91,0.699 l 0.022,0.009 c 1.338,0.557 2.729,0.505 3.702,-0.291 1.604,-1.313 1.459,-4.146 -0.322,-6.333 -1.792,-2.188 -4.542,-2.896 -6.151,-1.584 -1.543,1.255 -1.469,3.917 0.104,6.063 z"
     id="path654" />
  <path
     style="fill:#231f20;fill-opacity:1;fill-rule:nonzero;stroke:none"
     d="m 213.89203,83.888046 c 0.078,-0.636 1.526,-1.943 2.214,-3.396 0.464,-0.984 2.546,-2.771 2.937,-3.781 0.355,-0.922 0.609,-1.318 1.74,-1.088 0.667,0.134 1.869,0.828 1.791,1.333 -0.176,1.177 -0.676,1.984 -1.416,2.749 -0.844,0.88 -3.334,3.058 -3.828,3.418 -1.24,0.89 -1.438,1.598 -1.746,1.864 -0.572,0.505 -0.905,0.406 -1.312,0.109 -0.77,-0.572 -0.38,-1.208 -0.38,-1.208"
     id="path655" />
  <path
     style="fill:none;stroke:#231f20;stroke-width:0.565977;stroke-linecap:butt;stroke-linejoin:miter;stroke-miterlimit:4;stroke-dasharray:none;stroke-opacity:1"
     d="m 213.89203,83.888046 c 0.078,-0.636 1.526,-1.943 2.214,-3.396 0.464,-0.984 2.546,-2.771 2.937,-3.781 0.355,-0.922 0.609,-1.318 1.74,-1.088 0.667,0.134 1.869,0.828 1.791,1.333 -0.176,1.177 -0.676,1.984 -1.416,2.749 -0.844,0.88 -3.334,3.058 -3.828,3.418 -1.24,0.89 -1.438,1.598 -1.746,1.864 -0.572,0.505 -0.905,0.406 -1.312,0.109 -0.77,-0.572 -0.38,-1.208 -0.38,-1.208 z"
     id="path656" />
  <path
     style="fill:#231f20;fill-opacity:1;fill-rule:nonzero;stroke:none"
     d="m 219.68403,76.924046 c -0.901,-0.932 0.802,-2.057 1.198,-2.416 0.406,-0.365 1.437,-1.536 2.114,-2.547 0.688,-1.016 1.984,-1.989 3.287,-3.912 0.687,-1.01 1.995,-1.562 3.421,-0.5 1.407,1.042 1.344,2.23 0.334,3.328 -1.011,1.104 -2.432,1.704 -3.531,2.74 -1.104,1.036 -2.131,2.198 -2.891,3.14 -0.865,1.079 -1.693,1.287 -2.156,1.158 -1.146,-0.324 -1.776,-0.991 -1.776,-0.991"
     id="path657" />
  <path
     style="fill:none;stroke:#231f20;stroke-width:0.565977;stroke-linecap:butt;stroke-linejoin:miter;stroke-miterlimit:4;stroke-dasharray:none;stroke-opacity:1"
     d="m 219.68403,76.924046 c -0.901,-0.932 0.802,-2.057 1.198,-2.416 0.406,-0.365 1.437,-1.536 2.114,-2.547 0.688,-1.016 1.984,-1.989 3.287,-3.912 0.687,-1.01 1.995,-1.562 3.421,-0.5 1.407,1.042 1.344,2.23 0.334,3.328 -1.011,1.104 -2.432,1.704 -3.531,2.74 -1.104,1.036 -2.131,2.198 -2.891,3.14 -0.865,1.079 -1.693,1.287 -2.156,1.158 -1.146,-0.324 -1.776,-0.991 -1.776,-0.991 z"
     id="path658" />
  <path
     style="fill:#ffffff;fill-opacity:1;fill-rule:nonzero;stroke:none"
     d="m 214.02703,86.461046 c 0.876,-0.532 1.167,-1.672 0.636,-2.552 -0.527,-0.88 -1.672,-1.166 -2.552,-0.641 -0.88,0.527 -1.167,1.667 -0.636,2.552 0.527,0.88 1.672,1.167 2.552,0.641"
     id="path659" />
  <path
     style="fill:none;stroke:#231f20;stroke-width:1.33171;stroke-linecap:butt;stroke-linejoin:miter;stroke-miterlimit:4;stroke-dasharray:none;stroke-opacity:1"
     d="m 214.02703,86.461046 c 0.876,-0.532 1.167,-1.672 0.636,-2.552 -0.527,-0.88 -1.672,-1.166 -2.552,-0.641 -0.88,0.527 -1.167,1.667 -0.636,2.552 0.527,0.88 1.672,1.167 2.552,0.641 z"
     id="path660" />
  <path
     style="fill:#ffffff;fill-opacity:1;fill-rule:nonzero;stroke:none"
     d="m 215.71003,48.476046 c 0.797,-2.1133 0.666,-2.6347 -0.208,-3.0307 -0.584,-0.2706 -1.027,-0.7133 -1.371,-0.8853 -1.151,-0.5986 -3.343,-1.12 -9.921,-0.984 -1.495,0.036 -3.588,0.0627 -4.443,0.0054 -1.358,-0.084 -0.588,2.2239 -0.052,2.2599 1.708,0.1307 2.87,0.364 3.484,0.4947 0.418,0.088 1.172,0.1453 2.746,0.708 2.38,0.844 3.682,1.6987 5.743,2.1773 0.959,0.2187 1.538,0.9894 2.59,0.7187 1.052,-0.2547 1.432,-1.464 1.432,-1.464"
     id="path661" />
  <path
     style="fill:none;stroke:#231f20;stroke-width:0.565977;stroke-linecap:butt;stroke-linejoin:miter;stroke-miterlimit:4;stroke-dasharray:none;stroke-opacity:1"
     d="m 215.71003,48.476046 c 0.797,-2.1133 0.666,-2.6347 -0.208,-3.0307 -0.584,-0.2706 -1.027,-0.7133 -1.371,-0.8853 -1.151,-0.5986 -3.343,-1.12 -9.921,-0.984 -1.495,0.036 -3.588,0.0627 -4.443,0.0054 -1.358,-0.084 -0.588,2.2239 -0.052,2.2599 1.708,0.1307 2.87,0.364 3.484,0.4947 0.418,0.088 1.172,0.1453 2.746,0.708 2.38,0.844 3.682,1.6987 5.743,2.1773 0.959,0.2187 1.538,0.9894 2.59,0.7187 1.052,-0.2547 1.432,-1.464 1.432,-1.464 z"
     id="path662" />
  <path
     style="fill:#ffffff;fill-opacity:1;fill-rule:nonzero;stroke:#231f20;stroke-width:0.565977;stroke-linecap:round;stroke-linejoin:round;stroke-miterlimit:4;stroke-dasharray:none;stroke-opacity:1"
     d="m 213.38703,49.404046 c 0.588,1.296 2.744,1.3013 3.047,1.4533 4.516,2.1814 4.896,2.2187 8.442,3.64 5.131,2.0574 8.959,2.6774 11.031,0.0414 1.396,-1.7854 1.428,-3.4267 0.772,-4.5667 -0.74,-1.2613 -3.428,-2.9533 -6.043,-1.7147 l -1.697,-0.1866 c -1.131,-0.276 -1.693,-0.4067 -2.24,-0.584 -0.948,-0.3227 -1.984,-0.5934 -3.88,-1.0987 -3.355,-0.9013 -7.192,-0.7547 -7.192,-0.7547 -0.303,-0.0733 -0.579,-0.016 -0.819,0.104"
     id="path663" />
  <path
     style="fill:#231f20;fill-opacity:1;fill-rule:nonzero;stroke:none"
     d="m 197.89303,42.628046 c 1.041,-0.86 1.905,-0.3706 2.26,0.604 0.109,0.292 0.505,0.432 0.584,0.7187 0.181,0.6773 -0.73,2.1666 -2.158,1.7186 -0.104,-0.0266 -0.921,-0.0266 -1.536,-0.1253 -1.197,-0.1773 -3.505,-1.124 -4.525,-3.6293 -0.48,-1.1827 0.312,-1.2453 0.651,-0.828 1.077,1.328 1.432,1.2387 1.844,1.484 1.385,0.844 2.88,0.0573 2.88,0.0573"
     id="path664" />
  <path
     style="fill:none;stroke:#231f20;stroke-width:0.332927;stroke-linecap:butt;stroke-linejoin:miter;stroke-miterlimit:4;stroke-dasharray:none;stroke-opacity:1"
     d="m 197.89303,42.628046 c 1.041,-0.86 1.905,-0.3706 2.26,0.604 0.109,0.292 0.505,0.432 0.584,0.7187 0.181,0.6773 -0.73,2.1666 -2.158,1.7186 -0.104,-0.0266 -0.921,-0.0266 -1.536,-0.1253 -1.197,-0.1773 -3.505,-1.124 -4.525,-3.6293 -0.48,-1.1827 0.312,-1.2453 0.651,-0.828 1.077,1.328 1.432,1.2387 1.844,1.484 1.385,0.844 2.88,0.0573 2.88,0.0573 z"
     id="path665" />
  <path
     style="fill:#0098c9;fill-opacity:1;fill-rule:nonzero;stroke:none"
     d="m 236.43403,49.570746 c -0.922,-1.1307 -3.844,-2.396 -6.224,-0.7654 l -1.547,7.656 c 3.724,0.52 6.416,0.052 7.708,-2.256 1.109,-1.984 0.896,-3.604 0.063,-4.6346"
     id="path666" />
  <path
     style="fill:none;stroke:#231f20;stroke-width:0.565977;stroke-linecap:butt;stroke-linejoin:miter;stroke-miterlimit:4;stroke-dasharray:none;stroke-opacity:1"
     d="m 236.43403,49.570746 c -0.922,-1.1307 -3.844,-2.396 -6.224,-0.7654 l -1.547,7.656 c 3.724,0.52 6.416,0.052 7.708,-2.256 1.109,-1.984 0.896,-3.604 0.063,-4.6346 z"
     id="path667" />
  <path
     style="fill:#ffffff;fill-opacity:1;fill-rule:nonzero;stroke:none"
     d="m 89.726029,73.601046 c 1.072,1.99 1.552,2.235 2.421,1.834 0.59,-0.266 1.214,-0.307 1.568,-0.454 1.208,-0.478 3.036,-1.79 7.250001,-6.848 0.953,-1.146 2.308,-2.745 2.912,-3.354 0.953,-0.97 -1.292,-1.902 -1.672,-1.527 -1.219,1.209 -2.156,1.933 -2.656003,2.308 -0.344,0.255 -0.88,0.792 -2.333998,1.615 -2.202,1.24 -3.702,1.656 -5.412,2.901 -0.796,0.583 -1.76,0.509 -2.244,1.484 -0.5,0.959 0.167,2.041 0.167,2.041"
     id="path668" />
  <path
     style="fill:none;stroke:#231f20;stroke-width:0.565977;stroke-linecap:butt;stroke-linejoin:miter;stroke-miterlimit:4;stroke-dasharray:none;stroke-opacity:1"
     d="m 89.726029,73.601046 c 1.072,1.99 1.552,2.235 2.421,1.834 0.59,-0.266 1.214,-0.307 1.568,-0.454 1.208,-0.478 3.036,-1.79 7.250001,-6.848 0.953,-1.146 2.308,-2.745 2.912,-3.354 0.953,-0.97 -1.292,-1.902 -1.672,-1.527 -1.219,1.209 -2.156,1.933 -2.656003,2.308 -0.344,0.255 -0.88,0.792 -2.333998,1.615 -2.202,1.24 -3.702,1.656 -5.412,2.901 -0.796,0.583 -1.76,0.509 -2.244,1.484 -0.5,0.959 0.167,2.041 0.167,2.041 z"
     id="path669" />
  <path
     style="fill:#ffffff;fill-opacity:1;fill-rule:nonzero;stroke:#231f20;stroke-width:0.565977;stroke-linecap:round;stroke-linejoin:round;stroke-miterlimit:4;stroke-dasharray:none;stroke-opacity:1"
     d="m 90.549029,71.237046 c -1.37,-0.401 -2.782,1.219 -3.094,1.354 -4.609,1.974 -4.89,2.229 -8.286,3.98 -4.917,2.52 -7.901,5.005 -7.271,8.296 0.432,2.229 1.651,3.329 2.943,3.578 1.432,0.266 4.473,-0.65 5.254,-3.432 l 1.256,-1.156 c 0.947,-0.672 1.416,-1.01 1.911,-1.308 0.86,-0.516 1.751,-1.114 3.375,-2.208 2.881,-1.942 5.286,-4.942 5.286,-4.942 0.256,-0.178 0.391,-0.423 0.459,-0.683"
     id="path670" />
  <path
     style="fill:#231f20;fill-opacity:1;fill-rule:nonzero;stroke:none"
     d="m 106.05903,64.003046 c -0.041,1.354 -0.98,1.677 -1.942,1.302 -0.292,-0.109 -0.662,0.094 -0.928,-0.032 -0.63,-0.312 -1.146,-1.978 0.125,-2.76 0.095,-0.057 0.636,-0.677 1.109,-1.0677 0.932,-0.7867 3.162,-1.896 5.714,-1.0107 1.209,0.4174 0.734,1.0574 0.198,1.032 -1.713,-0.068 -1.874,0.2604 -2.333,0.4054 -1.541,0.491 -1.943,2.131 -1.943,2.131"
     id="path671" />
  <path
     style="fill:none;stroke:#231f20;stroke-width:0.332927;stroke-linecap:butt;stroke-linejoin:miter;stroke-miterlimit:4;stroke-dasharray:none;stroke-opacity:1"
     d="m 106.05903,64.003046 c -0.041,1.354 -0.98,1.677 -1.942,1.302 -0.292,-0.109 -0.662,0.094 -0.928,-0.032 -0.63,-0.312 -1.146,-1.978 0.125,-2.76 0.095,-0.057 0.636,-0.677 1.109,-1.0677 0.932,-0.7867 3.162,-1.896 5.714,-1.0107 1.209,0.4174 0.734,1.0574 0.198,1.032 -1.713,-0.068 -1.874,0.2604 -2.333,0.4054 -1.541,0.491 -1.943,2.131 -1.943,2.131 z"
     id="path672" />
  <path
     style="fill:#0098c9;fill-opacity:1;fill-rule:nonzero;stroke:#231f20;stroke-width:0.565977;stroke-linecap:butt;stroke-linejoin:miter;stroke-miterlimit:4;stroke-dasharray:none;stroke-opacity:1"
     d="m 75.388029,78.049046 c -2.808,2.5 -4.203,4.855 -3.287,7.334 0.787,2.13 2.167,3.021 3.484,3.052 1.453,0.032 4.318,-1.359 4.625,-4.235 z"
     id="path673" />
  <path
     style="fill:#ffffff;fill-opacity:1;fill-rule:nonzero;stroke:none"
     d="m 144.62203,87.940046 c -1.745,-1.448 -2.276,-1.489 -2.937,-0.797 -0.444,0.464 -1.011,0.74 -1.287,1.01 -0.937,0.896 -2.147,2.792 -4.167,9.058 -0.453,1.417 -1.109,3.412004 -1.448,4.204004 -0.521,1.249 1.911,1.276 2.124,0.785 0.683,-1.572 1.278,-2.599004 1.6,-3.129004 0.224,-0.371 0.526,-1.063 1.563,-2.366 1.583,-1.978 2.812,-2.926 3.937,-4.724 0.52,-0.833 1.438,-1.124 1.526,-2.208 0.104,-1.077 -0.911,-1.833 -0.911,-1.833"
     id="path674" />
  <path
     style="fill:none;stroke:#231f20;stroke-width:0.565977;stroke-linecap:butt;stroke-linejoin:miter;stroke-miterlimit:4;stroke-dasharray:none;stroke-opacity:1"
     d="m 144.62203,87.940046 c -1.745,-1.448 -2.276,-1.489 -2.937,-0.797 -0.444,0.464 -1.011,0.74 -1.287,1.01 -0.937,0.896 -2.147,2.792 -4.167,9.058 -0.453,1.417 -1.109,3.412004 -1.448,4.204004 -0.521,1.249 1.911,1.276 2.124,0.785 0.683,-1.572 1.278,-2.599004 1.6,-3.129004 0.224,-0.371 0.526,-1.063 1.563,-2.366 1.583,-1.978 2.812,-2.926 3.937,-4.724 0.52,-0.833 1.438,-1.124 1.526,-2.208 0.104,-1.077 -0.911,-1.833 -0.911,-1.833 z"
     id="path675" />
  <path
     style="fill:#ffffff;fill-opacity:1;fill-rule:nonzero;stroke:#231f20;stroke-width:0.565977;stroke-linecap:round;stroke-linejoin:round;stroke-miterlimit:4;stroke-dasharray:none;stroke-opacity:1"
     d="m 144.74203,90.445046 c 1.411,-0.14 2.119,-2.177 2.359,-2.416 3.541,-3.553 3.697,-3.896 6.202,-6.786 3.615,-4.178 5.454,-7.595 3.642,-10.412 -1.235,-1.907 -2.776,-2.474 -4.063,-2.224 -1.432,0.292 -3.912,2.276 -3.593,5.15 l -0.735,1.548 c -0.631,0.974 -0.932,1.463 -1.281,1.922 -0.61,0.797 -1.208,1.688 -2.308,3.312 -1.947,2.876 -3.062,6.552 -3.062,6.552 -0.166,0.266 -0.204,0.537 -0.166,0.808"
     id="path676" />
  <path
     style="fill:#0098c9;fill-opacity:1;fill-rule:nonzero;stroke:none"
     d="m 156.64203,70.252046 c -1.531,-1.681 -3.14,-1.984 -4.375,-1.515 -1.36,0.52 -3.484,2.891 -2.688,5.667 l 6.787,3.875 c 1.661,-3.37 2.063,-6.079 0.276,-8.027"
     id="path677" />
  <path
     style="fill:none;stroke:#231f20;stroke-width:0.565977;stroke-linecap:butt;stroke-linejoin:miter;stroke-miterlimit:4;stroke-dasharray:none;stroke-opacity:1"
     d="m 156.64203,70.252046 c -1.531,-1.681 -3.14,-1.984 -4.375,-1.515 -1.36,0.52 -3.484,2.891 -2.688,5.667 l 6.787,3.875 c 1.661,-3.37 2.063,-6.079 0.276,-8.027 z"
     id="path678" />
  <path
     style="fill:#231f20;fill-opacity:1;fill-rule:nonzero;stroke:none"
     d="m 133.27303,102.86705 c -0.475,-1.266 0.27,-1.916 1.306,-1.938 0.314,-0.01 0.574,-0.333 0.871,-0.317 0.703,0.047 1.812,1.396 0.921,2.604 -0.062,0.084 -0.328,0.865 -0.614,1.407 -0.568,1.077 -2.219,2.948 -4.911,3.093 -1.276,0.068 -1.079,-0.703 -0.579,-0.88 1.615,-0.588 1.64,-0.953 2.006,-1.26 1.254,-1.037 1,-2.709 1,-2.709"
     id="path679" />
  <path
     style="fill:none;stroke:#231f20;stroke-width:0.332927;stroke-linecap:butt;stroke-linejoin:miter;stroke-miterlimit:4;stroke-dasharray:none;stroke-opacity:1"
     d="m 133.27303,102.86705 c -0.475,-1.266 0.27,-1.916 1.306,-1.938 0.314,-0.01 0.574,-0.333 0.871,-0.317 0.703,0.047 1.812,1.396 0.921,2.604 -0.062,0.084 -0.328,0.865 -0.614,1.407 -0.568,1.077 -2.219,2.948 -4.911,3.093 -1.276,0.068 -1.079,-0.703 -0.579,-0.88 1.615,-0.588 1.64,-0.953 2.006,-1.26 1.254,-1.037 1,-2.709 1,-2.709 z"
     id="path680" />
</svg>
