<?xml version="1.0" encoding="UTF-8" standalone="no"?>
<!-- Created with Inkscape (http://www.inkscape.org/) -->

<svg
   version="1.1"
   id="svg1"
   width="217.19913"
   height="161.02017"
   viewBox="0 0 217.19912 161.02017"
   sodipodi:docname="cell.svg"
   xmlns:inkscape="http://www.inkscape.org/namespaces/inkscape"
   xmlns:sodipodi="http://sodipodi.sourceforge.net/DTD/sodipodi-0.dtd"
   xmlns="http://www.w3.org/2000/svg"
   xmlns:svg="http://www.w3.org/2000/svg">
  <sodipodi:namedview
     id="namedview1"
     pagecolor="#ffffff"
     bordercolor="#000000"
     borderopacity="0.25"
     inkscape:showpageshadow="2"
     inkscape:pageopacity="0.0"
     inkscape:pagecheckerboard="0"
     inkscape:deskcolor="#d1d1d1">
    <inkscape:page
       x="0"
       y="0"
       inkscape:label="1"
       id="page1"
       width="217.19913"
       height="161.02017"
       margin="0"
       bleed="0" />
  </sodipodi:namedview>
  <defs
     id="defs1" />
  <path
     style="fill:#231f20;fill-opacity:1;fill-rule:nonzero;stroke:none"
     d="m 108.29712,5.1171023 c 0.525,1.246 -0.194,1.934 -1.23,1.996 -0.308,0.02 -0.552,0.354 -0.854,0.348 -0.703,-0.014 -1.864,-1.317 -1.026,-2.562 0.058,-0.088 0.292,-0.875 0.563,-1.432 0.52,-1.094 2.088,-3.036 4.776,-3.287 1.276,-0.124 1.109,0.652 0.609,0.855 -1.584,0.65 -1.6,1.021 -1.948,1.338 -1.208,1.088 -0.89,2.744 -0.89,2.744"
     id="path164" />
  <path
     style="fill:none;stroke:#231f20;stroke-width:0.332927;stroke-linecap:butt;stroke-linejoin:miter;stroke-miterlimit:4;stroke-dasharray:none;stroke-opacity:1"
     d="m 108.29712,5.1171023 c 0.525,1.246 -0.194,1.934 -1.23,1.996 -0.308,0.02 -0.552,0.354 -0.854,0.348 -0.703,-0.014 -1.864,-1.317 -1.026,-2.562 0.058,-0.088 0.292,-0.875 0.563,-1.432 0.52,-1.094 2.088,-3.036 4.776,-3.287 1.276,-0.124 1.109,0.652 0.609,0.855 -1.584,0.65 -1.6,1.021 -1.948,1.338 -1.208,1.088 -0.89,2.744 -0.89,2.744 z"
     id="path165" />
  <path
     style="fill:#231f20;fill-opacity:1;fill-rule:nonzero;stroke:none"
     d="m 97.573124,20.499102 c 1.797,1.374 2.333,1.4 2.962996,0.676 0.422,-0.479 0.974,-0.776 1.245,-1.062 0.901,-0.933 2.032,-2.876 3.792,-9.22 0.396,-1.4369997 0.968,-3.4519997 1.27,-4.2599997 0.474,-1.27 -1.958,-1.197 -2.145,-0.697 -0.62,1.599 -1.167,2.645 -1.475,3.197 -0.207,0.37 -0.483,1.0839997 -1.463,2.4269997 -1.5,2.037 -2.691996,3.032 -3.738996,4.871 -0.489,0.853 -1.396,1.186 -1.443,2.27 -0.052,1.083 0.995,1.798 0.995,1.798"
     id="path166" />
  <path
     style="fill:none;stroke:#231f20;stroke-width:0.565977;stroke-linecap:butt;stroke-linejoin:miter;stroke-miterlimit:4;stroke-dasharray:none;stroke-opacity:1"
     d="m 97.573124,20.499102 c 1.797,1.374 2.333,1.4 2.962996,0.676 0.422,-0.479 0.974,-0.776 1.245,-1.062 0.901,-0.933 2.032,-2.876 3.792,-9.22 0.396,-1.4369997 0.968,-3.4519997 1.27,-4.2599997 0.474,-1.27 -1.958,-1.197 -2.145,-0.697 -0.62,1.599 -1.167,2.645 -1.475,3.197 -0.207,0.37 -0.483,1.0839997 -1.463,2.4269997 -1.5,2.037 -2.691996,3.032 -3.738996,4.871 -0.489,0.853 -1.396,1.186 -1.443,2.27 -0.052,1.083 0.995,1.798 0.995,1.798 z"
     id="path167" />
  <path
     style="fill:#0098c9;fill-opacity:1;fill-rule:nonzero;stroke:none"
     d="m 87.437124,44.545102 c 1.469,-2.77 2.084,-3.204 2.803,-3.781 4.494,-3.636 2.625,-5.771 -0.126,-6.641 -3.234,-1.026 -4.369,-1.454 -6.781,4.36 -0.661,1.625 -4.041,7.489 -4.041,7.489 -1.495,1.943 -1.918,4.631 -1.235,5.921 0.719,1.35 0.532,0.762 1.427,1.896 0.849,1.079 2.89,1.876 3.98,1.287 1.041,-0.568 1.109,-2.229 1.52,-4.62 0.329,-1.88 2.453,-5.911 2.453,-5.911"
     id="path168" />
  <path
     style="fill:none;stroke:#231f20;stroke-width:0.565977;stroke-linecap:butt;stroke-linejoin:miter;stroke-miterlimit:4;stroke-dasharray:none;stroke-opacity:1"
     d="m 87.437124,44.545102 c 1.469,-2.77 2.084,-3.204 2.803,-3.781 4.494,-3.636 2.625,-5.771 -0.126,-6.641 -3.234,-1.026 -4.369,-1.454 -6.781,4.36 -0.661,1.625 -4.041,7.489 -4.041,7.489 -1.495,1.943 -1.918,4.631 -1.235,5.921 0.719,1.35 0.532,0.762 1.427,1.896 0.849,1.079 2.89,1.876 3.98,1.287 1.041,-0.568 1.109,-2.229 1.52,-4.62 0.329,-1.88 2.453,-5.911 2.453,-5.911 z"
     id="path169" />
  <path
     style="fill:#ffffff;fill-opacity:1;fill-rule:nonzero;stroke:none"
     d="m 74.453124,57.316102 c -0.167,0.182 -1.193,-0.339 -1.464,0.109 -0.271,0.453 0.281,1.016 0.084,2.995 l -0.005,0.021 c -0.194,1.443 0.218,2.771 1.234,3.5 1.687,1.213 4.391,0.337 6.036,-1.953 1.651,-2.298 1.62,-5.136 -0.062,-6.35 -1.615,-1.161 -4.167,-0.406 -5.823,1.678"
     id="path170" />
  <path
     style="fill:none;stroke:#231f20;stroke-width:0.565977;stroke-linecap:butt;stroke-linejoin:miter;stroke-miterlimit:4;stroke-dasharray:none;stroke-opacity:1"
     d="m 74.453124,57.316102 c -0.167,0.182 -1.193,-0.339 -1.464,0.109 -0.271,0.453 0.281,1.016 0.084,2.995 l -0.005,0.021 c -0.194,1.443 0.218,2.771 1.234,3.5 1.687,1.213 4.391,0.337 6.036,-1.953 1.651,-2.298 1.62,-5.136 -0.062,-6.35 -1.615,-1.161 -4.167,-0.406 -5.823,1.678 z"
     id="path171" />
  <path
     style="fill:#231f20;fill-opacity:1;fill-rule:nonzero;stroke:none"
     d="m 99.480124,18.931102 c -2.964,-2.704 -4.074,1.229 -4.391,1.582 -3.385,3.688 -3.537,4.043 -5.923,7.027 -3.442,4.328 -5.14,7.817 -3.208,10.557 1.312,1.854 2.87,2.359 4.151,2.052 1.417,-0.344 3.813,-2.432 3.38,-5.286 l 0.667,-1.579 c 0.589,-1 0.87,-1.5 1.204,-1.973 0.572,-0.823 1.14,-1.735 2.166,-3.402 1.828,-2.953 2.790996,-6.672 2.790996,-6.672 0.631,-1.072 -0.836996,-2.306 -0.836996,-2.306"
     id="path172" />
  <path
     style="fill:none;stroke:#231f20;stroke-width:0.565977;stroke-linecap:butt;stroke-linejoin:miter;stroke-miterlimit:4;stroke-dasharray:none;stroke-opacity:1"
     d="m 99.480124,18.931102 c -2.964,-2.704 -4.074,1.229 -4.391,1.582 -3.385,3.688 -3.537,4.043 -5.923,7.027 -3.442,4.328 -5.14,7.817 -3.208,10.557 1.312,1.854 2.87,2.359 4.151,2.052 1.417,-0.344 3.813,-2.432 3.38,-5.286 l 0.667,-1.579 c 0.589,-1 0.87,-1.5 1.204,-1.973 0.572,-0.823 1.14,-1.735 2.166,-3.402 1.828,-2.953 2.790996,-6.672 2.790996,-6.672 0.631,-1.072 -0.836996,-2.306 -0.836996,-2.306 z"
     id="path173" />
  <path
     style="fill:#0098c9;fill-opacity:1;fill-rule:nonzero;stroke:none"
     d="m 93.172124,34.223102 -6.943,-3.595 c -0.265,0.604 -0.473,1.172 -0.661,1.729 -0.047,0.063 -0.099,0.126 -0.151,0.178 -0.579,0.562 -0.521,1.192 -0.385,2.224 -0.136,1.546 0.213,2.858 1.249,3.906 1.604,1.614 3.224,1.848 4.432,1.334 1.344,-0.579 3.365,-3.032 2.459,-5.776"
     id="path174" />
  <path
     style="fill:none;stroke:#231f20;stroke-width:0.565977;stroke-linecap:butt;stroke-linejoin:miter;stroke-miterlimit:4;stroke-dasharray:none;stroke-opacity:1"
     d="m 93.172124,34.223102 -6.943,-3.595 c -0.265,0.604 -0.473,1.172 -0.661,1.729 -0.047,0.063 -0.099,0.126 -0.151,0.178 -0.579,0.562 -0.521,1.192 -0.385,2.224 -0.136,1.546 0.213,2.858 1.249,3.906 1.604,1.614 3.224,1.848 4.432,1.334 1.344,-0.579 3.365,-3.032 2.459,-5.776 z"
     id="path175" />
  <path
     style="fill:#231f20;fill-opacity:1;fill-rule:nonzero;stroke:none"
     d="m 74.589124,71.212102 c -0.177,-0.615 0.656,-2.38 0.733,-3.986 0.052,-1.082 1.298,-3.53 1.267,-4.614 -0.027,-0.995 0.057,-1.452 1.187,-1.676 0.666,-0.131 2.041,0.041 2.166,0.541 0.287,1.151 0.136,2.088 -0.249,3.083 -0.443,1.136 -1.907,4.105 -2.229,4.625 -0.803,1.297 -0.714,2.032 -0.891,2.391 -0.339,0.682 -0.683,0.724 -1.172,0.604 -0.932,-0.235 -0.812,-0.968 -0.812,-0.968"
     id="path176" />
  <path
     style="fill:none;stroke:#231f20;stroke-width:0.565977;stroke-linecap:butt;stroke-linejoin:miter;stroke-miterlimit:4;stroke-dasharray:none;stroke-opacity:1"
     d="m 74.589124,71.212102 c -0.177,-0.615 0.656,-2.38 0.733,-3.986 0.052,-1.082 1.298,-3.53 1.267,-4.614 -0.027,-0.995 0.057,-1.452 1.187,-1.676 0.666,-0.131 2.041,0.041 2.166,0.541 0.287,1.151 0.136,2.088 -0.249,3.083 -0.443,1.136 -1.907,4.105 -2.229,4.625 -0.803,1.297 -0.714,2.032 -0.891,2.391 -0.339,0.682 -0.683,0.724 -1.172,0.604 -0.932,-0.235 -0.812,-0.968 -0.812,-0.968 z"
     id="path177" />
  <path
     style="fill:#231f20;fill-opacity:1;fill-rule:nonzero;stroke:none"
     d="m 77.260124,62.556102 c -1.187,-0.516 -0.047,-2.204 0.182,-2.688 0.23,-0.495 0.735,-1.97 0.975,-3.167 0.244,-1.203 1.063,-2.593 1.531,-4.874 0.245,-1.199 1.24,-2.21 2.964,-1.776 1.702,0.426 2.104,1.546 1.588,2.948 -0.516,1.405 -1.594,2.503 -2.214,3.89 -0.62,1.375 -1.12,2.837 -1.458,4.009 -0.386,1.324 -1.072,1.839 -1.547,1.891 -1.188,0.147 -2.021,-0.233 -2.021,-0.233"
     id="path178" />
  <path
     style="fill:none;stroke:#231f20;stroke-width:0.565977;stroke-linecap:butt;stroke-linejoin:miter;stroke-miterlimit:4;stroke-dasharray:none;stroke-opacity:1"
     d="m 77.260124,62.556102 c -1.187,-0.516 -0.047,-2.204 0.182,-2.688 0.23,-0.495 0.735,-1.97 0.975,-3.167 0.244,-1.203 1.063,-2.593 1.531,-4.874 0.245,-1.199 1.24,-2.21 2.964,-1.776 1.702,0.426 2.104,1.546 1.588,2.948 -0.516,1.405 -1.594,2.503 -2.214,3.89 -0.62,1.375 -1.12,2.837 -1.458,4.009 -0.386,1.324 -1.072,1.839 -1.547,1.891 -1.188,0.147 -2.021,-0.233 -2.021,-0.233 z"
     id="path179" />
  <path
     style="fill:#231f20;fill-opacity:1;fill-rule:nonzero;stroke:none"
     d="m 17.453124,146.8001 c -0.708,-1.151 -0.098,-1.938 0.917,-2.156 0.297,-0.063 0.495,-0.427 0.791,-0.475 0.699,-0.083 2.042,1.032 1.396,2.387 -0.047,0.093 -0.161,0.905 -0.339,1.504 -0.353,1.157 -1.62,3.308 -4.238,3.958 -1.241,0.314 -1.194,-0.478 -0.73,-0.76 1.468,-0.874 1.432,-1.24 1.73,-1.614 1.03,-1.255 0.473,-2.844 0.473,-2.844"
     id="path180" />
  <path
     style="fill:none;stroke:#231f20;stroke-width:0.332927;stroke-linecap:butt;stroke-linejoin:miter;stroke-miterlimit:4;stroke-dasharray:none;stroke-opacity:1"
     d="m 17.453124,146.8001 c -0.708,-1.151 -0.098,-1.938 0.917,-2.156 0.297,-0.063 0.495,-0.427 0.791,-0.475 0.699,-0.083 2.042,1.032 1.396,2.387 -0.047,0.093 -0.161,0.905 -0.339,1.504 -0.353,1.157 -1.62,3.308 -4.238,3.958 -1.241,0.314 -1.194,-0.478 -0.73,-0.76 1.468,-0.874 1.432,-1.24 1.73,-1.614 1.03,-1.255 0.473,-2.844 0.473,-2.844 z"
     id="path181" />
  <path
     style="fill:#231f20;fill-opacity:1;fill-rule:nonzero;stroke:none"
     d="m 25.770124,129.9981 c -1.989,-1.089 -2.52,-1.037 -3.036,-0.229 -0.343,0.536 -0.849,0.916 -1.073,1.233 -0.749,1.058 -1.577,3.147 -2.375,9.678 -0.182,1.489 -0.447,3.562 -0.625,4.406 -0.281,1.323 2.115,0.896 2.23,0.375 0.369,-1.677 0.759,-2.796 0.978,-3.385 0.152,-0.396 0.319,-1.14 1.089,-2.615 1.178,-2.239 2.214,-3.405 2.968,-5.38 0.36,-0.916 1.204,-1.375 1.095,-2.453 -0.109,-1.083 -1.251,-1.63 -1.251,-1.63"
     id="path182" />
  <path
     style="fill:none;stroke:#231f20;stroke-width:0.565977;stroke-linecap:butt;stroke-linejoin:miter;stroke-miterlimit:4;stroke-dasharray:none;stroke-opacity:1"
     d="m 25.770124,129.9981 c -1.989,-1.089 -2.52,-1.037 -3.036,-0.229 -0.343,0.536 -0.849,0.916 -1.073,1.233 -0.749,1.058 -1.577,3.147 -2.375,9.678 -0.182,1.489 -0.447,3.562 -0.625,4.406 -0.281,1.323 2.115,0.896 2.23,0.375 0.369,-1.677 0.759,-2.796 0.978,-3.385 0.152,-0.396 0.319,-1.14 1.089,-2.615 1.178,-2.239 2.214,-3.405 2.968,-5.38 0.36,-0.916 1.204,-1.375 1.095,-2.453 -0.109,-1.083 -1.251,-1.63 -1.251,-1.63 z"
     id="path183" />
  <path
     style="fill:#0098c9;fill-opacity:1;fill-rule:nonzero;stroke:none"
     d="m 32.213124,104.7121 c -1.041,2.957 -1.588,3.473 -2.208,4.156 -3.907,4.265 -1.74,6.098 1.109,6.546 3.349,0.531 4.542,0.792 6.058,-5.322 0.417,-1.703 2.885,-8.006 2.885,-8.006 1.188,-2.140998 1.203,-4.859998 0.339,-6.035998 -0.912,-1.229 -0.64,-0.677 -1.692,-1.661 -1.006,-0.943 -3.136,-1.423 -4.126,-0.683 -0.948,0.714 -0.77,2.37 -0.822,4.796 -0.043,1.906998 -1.543,6.209998 -1.543,6.209998"
     id="path184" />
  <path
     style="fill:none;stroke:#231f20;stroke-width:0.565977;stroke-linecap:butt;stroke-linejoin:miter;stroke-miterlimit:4;stroke-dasharray:none;stroke-opacity:1"
     d="m 32.213124,104.7121 c -1.041,2.957 -1.588,3.473 -2.208,4.156 -3.907,4.265 -1.74,6.098 1.109,6.546 3.349,0.531 4.542,0.792 6.058,-5.322 0.417,-1.703 2.885,-8.006 2.885,-8.006 1.188,-2.140998 1.203,-4.859998 0.339,-6.035998 -0.912,-1.229 -0.64,-0.677 -1.692,-1.661 -1.006,-0.943 -3.136,-1.423 -4.126,-0.683 -0.948,0.714 -0.77,2.37 -0.822,4.796 -0.043,1.906998 -1.543,6.209998 -1.543,6.209998 z"
     id="path185" />
  <path
     style="fill:#ffffff;fill-opacity:1;fill-rule:nonzero;stroke:none"
     d="m 43.150124,90.149102 c 0.142,-0.204 1.23,0.161 1.434,-0.328 0.197,-0.485 -0.428,-0.959 -0.527,-2.948 v -0.021 c -0.02,-1.454 -0.625,-2.703 -1.74,-3.276 -1.853,-0.948 -4.391,0.322 -5.681,2.828 -1.292,2.516 -0.834,5.322 1.01,6.27 1.766,0.912 4.176,-0.213 5.504,-2.525"
     id="path186" />
  <path
     style="fill:none;stroke:#231f20;stroke-width:0.565977;stroke-linecap:butt;stroke-linejoin:miter;stroke-miterlimit:4;stroke-dasharray:none;stroke-opacity:1"
     d="m 43.150124,90.149102 c 0.142,-0.204 1.23,0.161 1.434,-0.328 0.197,-0.485 -0.428,-0.959 -0.527,-2.948 v -0.021 c -0.02,-1.454 -0.625,-2.703 -1.74,-3.276 -1.853,-0.948 -4.391,0.322 -5.681,2.828 -1.292,2.516 -0.834,5.322 1.01,6.27 1.766,0.912 4.176,-0.213 5.504,-2.525 z"
     id="path187" />
  <path
     style="fill:#231f20;fill-opacity:1;fill-rule:nonzero;stroke:none"
     d="m 24.114124,131.8321 c 3.334,2.228 3.844,-1.819 4.11,-2.22 2.797,-4.156 2.896,-4.52 4.808,-7.832 2.76,-4.787 3.916,-8.491 1.604,-10.912 -1.574,-1.642 -3.193,-1.907 -4.412,-1.412 -1.35,0.552 -3.411,2.974 -2.552,5.729 l -0.427,1.656 c -0.437,1.079 -0.641,1.62 -0.896,2.136 -0.448,0.896 -0.869,1.885 -1.641,3.688 -1.364,3.187 -1.765,7.009 -1.765,7.009 -0.463,1.158 1.171,2.158 1.171,2.158"
     id="path188" />
  <path
     style="fill:none;stroke:#231f20;stroke-width:0.565977;stroke-linecap:butt;stroke-linejoin:miter;stroke-miterlimit:4;stroke-dasharray:none;stroke-opacity:1"
     d="m 24.114124,131.8321 c 3.334,2.228 3.844,-1.819 4.11,-2.22 2.797,-4.156 2.896,-4.52 4.808,-7.832 2.76,-4.787 3.916,-8.491 1.604,-10.912 -1.574,-1.642 -3.193,-1.907 -4.412,-1.412 -1.35,0.552 -3.411,2.974 -2.552,5.729 l -0.427,1.656 c -0.437,1.079 -0.641,1.62 -0.896,2.136 -0.448,0.896 -0.869,1.885 -1.641,3.688 -1.364,3.187 -1.765,7.009 -1.765,7.009 -0.463,1.158 1.171,2.158 1.171,2.158 z"
     id="path189" />
  <path
     style="fill:#0098c9;fill-opacity:1;fill-rule:nonzero;stroke:none"
     d="m 36.046124,114.0341 c -0.093,-1.552 -0.634,-2.802 -1.817,-3.682 -1.823,-1.354 -3.459,-1.35 -4.583,-0.656 -1.24,0.765 -2.87,3.494 -1.568,6.073 l 7.402,2.52 c 0.17,-0.629 0.296,-1.229 0.394,-1.807 0.043,-0.068 0.079,-0.141 0.12,-0.198 0.49,-0.64 0.339,-1.255 0.052,-2.25"
     id="path190" />
  <path
     style="fill:none;stroke:#231f20;stroke-width:0.565977;stroke-linecap:butt;stroke-linejoin:miter;stroke-miterlimit:4;stroke-dasharray:none;stroke-opacity:1"
     d="m 36.046124,114.0341 c -0.093,-1.552 -0.634,-2.802 -1.817,-3.682 -1.823,-1.354 -3.459,-1.35 -4.583,-0.656 -1.24,0.765 -2.87,3.494 -1.568,6.073 l 7.402,2.52 c 0.17,-0.629 0.296,-1.229 0.394,-1.807 0.043,-0.068 0.079,-0.141 0.12,-0.198 0.49,-0.64 0.339,-1.255 0.052,-2.25 z"
     id="path191" />
  <path
     style="fill:#231f20;fill-opacity:1;fill-rule:nonzero;stroke:none"
     d="m 40.953124,76.425102 c 0.265,0.588 -0.297,2.453 -0.136,4.052 0.109,1.083 -0.755,3.692 -0.561,4.755 0.17,0.98 0.161,1.442 -0.928,1.833 -0.64,0.229 -2.026,0.261 -2.224,-0.213 -0.454,-1.099 -0.443,-2.047 -0.208,-3.088 0.265,-1.188 1.27,-4.339 1.51,-4.907 0.604,-1.396 0.407,-2.109 0.531,-2.495 0.229,-0.729 0.568,-0.812 1.068,-0.765 0.953,0.083 0.948,0.828 0.948,0.828"
     id="path192" />
  <path
     style="fill:none;stroke:#231f20;stroke-width:0.565977;stroke-linecap:butt;stroke-linejoin:miter;stroke-miterlimit:4;stroke-dasharray:none;stroke-opacity:1"
     d="m 40.953124,76.425102 c 0.265,0.588 -0.297,2.453 -0.136,4.052 0.109,1.083 -0.755,3.692 -0.561,4.755 0.17,0.98 0.161,1.442 -0.928,1.833 -0.64,0.229 -2.026,0.261 -2.224,-0.213 -0.454,-1.099 -0.443,-2.047 -0.208,-3.088 0.265,-1.188 1.27,-4.339 1.51,-4.907 0.604,-1.396 0.407,-2.109 0.531,-2.495 0.229,-0.729 0.568,-0.812 1.068,-0.765 0.953,0.083 0.948,0.828 0.948,0.828 z"
     id="path193" />
  <path
     style="fill:#231f20;fill-opacity:1;fill-rule:nonzero;stroke:none"
     d="m 39.593124,85.384102 c 1.256,0.333 0.381,2.172 0.224,2.692 -0.156,0.516 -0.432,2.052 -0.495,3.27 -0.062,1.224 -0.666,2.724 -0.786,5.047 -0.062,1.224 -0.895,2.371 -2.667,2.199 -1.744,-0.167 -2.312,-1.208 -2.009,-2.683 0.296,-1.463 1.202,-2.713 1.609,-4.172 0.405,-1.453 0.687,-2.973 0.848,-4.177 0.183,-1.37 0.787,-1.979 1.245,-2.104 1.151,-0.318 2.031,-0.072 2.031,-0.072"
     id="path194" />
  <path
     style="fill:none;stroke:#231f20;stroke-width:0.565977;stroke-linecap:butt;stroke-linejoin:miter;stroke-miterlimit:4;stroke-dasharray:none;stroke-opacity:1"
     d="m 39.593124,85.384102 c 1.256,0.333 0.381,2.172 0.224,2.692 -0.156,0.516 -0.432,2.052 -0.495,3.27 -0.062,1.224 -0.666,2.724 -0.786,5.047 -0.062,1.224 -0.895,2.371 -2.667,2.199 -1.744,-0.167 -2.312,-1.208 -2.009,-2.683 0.296,-1.463 1.202,-2.713 1.609,-4.172 0.405,-1.453 0.687,-2.973 0.848,-4.177 0.183,-1.37 0.787,-1.979 1.245,-2.104 1.151,-0.318 2.031,-0.072 2.031,-0.072 z"
     id="path195" />
  <path
     style="fill:#ffffff;fill-opacity:1;fill-rule:nonzero;stroke:none"
     d="m 39.234124,72.633102 c 0.672,-0.776 1.844,-0.859 2.62,-0.192 0.782,0.672 0.87,1.848 0.198,2.624 -0.672,0.776 -1.85,0.865 -2.626,0.193 -0.776,-0.672 -0.864,-1.844 -0.192,-2.625"
     id="path196" />
  <path
     style="fill:none;stroke:#231f20;stroke-width:1.33171;stroke-linecap:butt;stroke-linejoin:miter;stroke-miterlimit:4;stroke-dasharray:none;stroke-opacity:1"
     d="m 39.234124,72.633102 c 0.672,-0.776 1.844,-0.859 2.62,-0.192 0.782,0.672 0.87,1.848 0.198,2.624 -0.672,0.776 -1.85,0.865 -2.626,0.193 -0.776,-0.672 -0.864,-1.844 -0.192,-2.625 z"
     id="path197" />
  <path
     style="fill:#231f20;fill-opacity:1;fill-rule:nonzero;stroke:none"
     d="m 80.218124,147.7741 c -1.218,-0.584 -1.134,-1.573 -0.405,-2.302 0.219,-0.224 0.181,-0.636 0.405,-0.834 0.542,-0.453 2.276,-0.249 2.475,1.24 0.011,0.104 0.353,0.848 0.531,1.443 0.333,1.167 0.442,3.661 -1.402,5.629 -0.869,0.939 -1.26,0.251 -1.025,-0.238 0.76,-1.538 0.525,-1.819 0.573,-2.292 0.187,-1.615 -1.152,-2.646 -1.152,-2.646"
     id="path198" />
  <path
     style="fill:none;stroke:#231f20;stroke-width:0.332927;stroke-linecap:butt;stroke-linejoin:miter;stroke-miterlimit:4;stroke-dasharray:none;stroke-opacity:1"
     d="m 80.218124,147.7741 c -1.218,-0.584 -1.134,-1.573 -0.405,-2.302 0.219,-0.224 0.181,-0.636 0.405,-0.834 0.542,-0.453 2.276,-0.249 2.475,1.24 0.011,0.104 0.353,0.848 0.531,1.443 0.333,1.167 0.442,3.661 -1.402,5.629 -0.869,0.939 -1.26,0.251 -1.025,-0.238 0.76,-1.538 0.525,-1.819 0.573,-2.292 0.187,-1.615 -1.152,-2.646 -1.152,-2.646 z"
     id="path199" />
  <path
     style="fill:#231f20;fill-opacity:1;fill-rule:nonzero;stroke:none"
     d="m 78.046124,129.1541 c -2.26,0.162 -2.676,0.5 -2.666,1.458 0,0.636 -0.219,1.229 -0.234,1.62 -0.053,1.297 0.39,3.494 3.28,9.412 0.658,1.344 1.563,3.234 1.871,4.036 0.489,1.261 2.26,-0.406 2.073,-0.9 -0.594,-1.611 -0.881,-2.762 -1.016,-3.371 -0.094,-0.416 -0.36,-1.135 -0.516,-2.792 -0.229,-2.515 0.006,-4.057 -0.432,-6.124 -0.204,-0.964 0.255,-1.813 -0.426,-2.657 -0.678,-0.843 -1.934,-0.682 -1.934,-0.682"
     id="path200" />
  <path
     style="fill:none;stroke:#231f20;stroke-width:0.565977;stroke-linecap:butt;stroke-linejoin:miter;stroke-miterlimit:4;stroke-dasharray:none;stroke-opacity:1"
     d="m 78.046124,129.1541 c -2.26,0.162 -2.676,0.5 -2.666,1.458 0,0.636 -0.219,1.229 -0.234,1.62 -0.053,1.297 0.39,3.494 3.28,9.412 0.658,1.344 1.563,3.234 1.871,4.036 0.489,1.261 2.26,-0.406 2.073,-0.9 -0.594,-1.611 -0.881,-2.762 -1.016,-3.371 -0.094,-0.416 -0.36,-1.135 -0.516,-2.792 -0.229,-2.515 0.006,-4.057 -0.432,-6.124 -0.204,-0.964 0.255,-1.813 -0.426,-2.657 -0.678,-0.843 -1.934,-0.682 -1.934,-0.682 z"
     id="path201" />
  <path
     style="fill:#0098c9;fill-opacity:1;fill-rule:nonzero;stroke:none"
     d="m 69.682124,104.4361 c 0.74,3.041 0.563,3.776 0.411,4.686 -0.952,5.699 1.865,6.063 4.496,4.886 3.099,-1.375 4.239,-1.807 2.181,-7.76 -0.572,-1.651 -1.937,-8.286998 -1.937,-8.286998 -0.167,-2.443 -1.635,-4.735 -3,-5.249 -1.437,-0.538 -0.907,-0.214 -2.328,-0.47 -1.355,-0.249 -3.407,0.511 -3.828,1.672 -0.407,1.115 0.645,2.407 1.921,4.47 1,1.623998 2.084,6.051998 2.084,6.051998"
     id="path202" />
  <path
     style="fill:none;stroke:#231f20;stroke-width:0.565977;stroke-linecap:butt;stroke-linejoin:miter;stroke-miterlimit:4;stroke-dasharray:none;stroke-opacity:1"
     d="m 69.682124,104.4361 c 0.74,3.041 0.563,3.776 0.411,4.686 -0.952,5.699 1.865,6.063 4.496,4.886 3.099,-1.375 4.239,-1.807 2.181,-7.76 -0.572,-1.651 -1.937,-8.286998 -1.937,-8.286998 -0.167,-2.443 -1.635,-4.735 -3,-5.249 -1.437,-0.538 -0.907,-0.214 -2.328,-0.47 -1.355,-0.249 -3.407,0.511 -3.828,1.672 -0.407,1.115 0.645,2.407 1.921,4.47 1,1.623998 2.084,6.051998 2.084,6.051998 z"
     id="path203" />
  <path
     style="fill:#ffffff;fill-opacity:1;fill-rule:nonzero;stroke:none"
     d="m 70.932124,86.264102 c 0.005,-0.246 1.114,-0.538 1.021,-1.052 -0.099,-0.516 -0.88,-0.574 -2.047,-2.188 l -0.01,-0.016 c -0.812,-1.208 -2,-1.932 -3.246,-1.802 -2.066,0.208 -3.509,2.656 -3.224,5.463 0.287,2.813 2.194,4.917 4.262,4.709 1.978,-0.198 3.385,-2.453 3.244,-5.114"
     id="path204" />
  <path
     style="fill:none;stroke:#231f20;stroke-width:0.565977;stroke-linecap:butt;stroke-linejoin:miter;stroke-miterlimit:4;stroke-dasharray:none;stroke-opacity:1"
     d="m 70.932124,86.264102 c 0.005,-0.246 1.114,-0.538 1.021,-1.052 -0.099,-0.516 -0.88,-0.574 -2.047,-2.188 l -0.01,-0.016 c -0.812,-1.208 -2,-1.932 -3.246,-1.802 -2.066,0.208 -3.509,2.656 -3.224,5.463 0.287,2.813 2.194,4.917 4.262,4.709 1.978,-0.198 3.385,-2.453 3.244,-5.114 z"
     id="path205" />
  <path
     style="fill:#231f20;fill-opacity:1;fill-rule:nonzero;stroke:none"
     d="m 77.656124,131.5921 c 4.01,0.057 2.234,-3.62 2.24,-4.099 0.084,-5.011 -0.031,-5.371 -0.235,-9.188 -0.291,-5.516 -1.333,-9.255 -4.593,-10.027 -2.214,-0.52 -3.714,0.136 -4.47,1.215 -0.833,1.203 -1.244,4.353 0.98,6.203 l 0.542,1.62 c 0.224,1.14 0.344,1.702 0.412,2.276 0.114,0.994 0.296,2.057 0.629,3.984 0.595,3.422 2.339,6.844 2.339,6.844 0.24,1.218 2.156,1.172 2.156,1.172"
     id="path206" />
  <path
     style="fill:none;stroke:#231f20;stroke-width:0.565977;stroke-linecap:butt;stroke-linejoin:miter;stroke-miterlimit:4;stroke-dasharray:none;stroke-opacity:1"
     d="m 77.656124,131.5921 c 4.01,0.057 2.234,-3.62 2.24,-4.099 0.084,-5.011 -0.031,-5.371 -0.235,-9.188 -0.291,-5.516 -1.333,-9.255 -4.593,-10.027 -2.214,-0.52 -3.714,0.136 -4.47,1.215 -0.833,1.203 -1.244,4.353 0.98,6.203 l 0.542,1.62 c 0.224,1.14 0.344,1.702 0.412,2.276 0.114,0.994 0.296,2.057 0.629,3.984 0.595,3.422 2.339,6.844 2.339,6.844 0.24,1.218 2.156,1.172 2.156,1.172 z"
     id="path207" />
  <path
     style="fill:#0098c9;fill-opacity:1;fill-rule:nonzero;stroke:none"
     d="m 79.166124,112.3161 c -0.005,-0.084 -0.01,-0.162 -0.005,-0.23 0.057,-0.808 -0.401,-1.245 -1.187,-1.921 -0.922,-1.251 -2.057,-2 -3.526,-2.095 -2.266,-0.145 -3.635,0.751 -4.203,1.938 -0.625,1.324 -0.505,4.5 1.995,5.953 l 7.573,-1.916 c -0.199,-0.625 -0.417,-1.193 -0.647,-1.729"
     id="path208" />
  <path
     style="fill:none;stroke:#231f20;stroke-width:0.565977;stroke-linecap:butt;stroke-linejoin:miter;stroke-miterlimit:4;stroke-dasharray:none;stroke-opacity:1"
     d="m 79.166124,112.3161 c -0.005,-0.084 -0.01,-0.162 -0.005,-0.23 0.057,-0.808 -0.401,-1.245 -1.187,-1.921 -0.922,-1.251 -2.057,-2 -3.526,-2.095 -2.266,-0.145 -3.635,0.751 -4.203,1.938 -0.625,1.324 -0.505,4.5 1.995,5.953 l 7.573,-1.916 c -0.199,-0.625 -0.417,-1.193 -0.647,-1.729 z"
     id="path209" />
  <path
     style="fill:#231f20;fill-opacity:1;fill-rule:nonzero;stroke:none"
     d="m 61.614124,75.950102 c 0.542,0.35 1.084,2.219 2.094,3.475 0.682,0.844 1.376,3.5 2.114,4.292 0.678,0.729 0.923,1.124 0.219,2.041 -0.405,0.542 -1.557,1.323 -1.973,1.031 -0.984,-0.672 -1.49,-1.473 -1.866,-2.479 -0.416,-1.141 -1.29,-4.333 -1.4,-4.932 -0.256,-1.505 -0.808,-1.994 -0.912,-2.385 -0.202,-0.735 0.032,-0.995 0.475,-1.224 0.848,-0.448 1.249,0.181 1.249,0.181"
     id="path210" />
  <path
     style="fill:none;stroke:#231f20;stroke-width:0.565977;stroke-linecap:butt;stroke-linejoin:miter;stroke-miterlimit:4;stroke-dasharray:none;stroke-opacity:1"
     d="m 61.614124,75.950102 c 0.542,0.35 1.084,2.219 2.094,3.475 0.682,0.844 1.376,3.5 2.114,4.292 0.678,0.729 0.923,1.124 0.219,2.041 -0.405,0.542 -1.557,1.323 -1.973,1.031 -0.984,-0.672 -1.49,-1.473 -1.866,-2.479 -0.416,-1.141 -1.29,-4.333 -1.4,-4.932 -0.256,-1.505 -0.808,-1.994 -0.912,-2.385 -0.202,-0.735 0.032,-0.995 0.475,-1.224 0.848,-0.448 1.249,0.181 1.249,0.181 z"
     id="path211" />
  <path
     style="fill:#231f20;fill-opacity:1;fill-rule:nonzero;stroke:none"
     d="m 65.354124,84.206102 c 1.235,-0.406 1.5,1.615 1.651,2.13 0.151,0.521 0.755,1.958 1.369,3.016 0.61,1.062 0.923,2.646 2.084,4.661 0.615,1.063 0.536,2.475 -1.036,3.297 -1.562,0.807 -2.6,0.24 -3.146,-1.156 -0.547,-1.39 -0.468,-2.932 -0.927,-4.374 -0.448,-1.439 -1.041,-2.871 -1.563,-3.97 -0.588,-1.25 -0.416,-2.084 -0.098,-2.442 0.792,-0.891 1.666,-1.162 1.666,-1.162"
     id="path212" />
  <path
     style="fill:none;stroke:#231f20;stroke-width:0.565977;stroke-linecap:butt;stroke-linejoin:miter;stroke-miterlimit:4;stroke-dasharray:none;stroke-opacity:1"
     d="m 65.354124,84.206102 c 1.235,-0.406 1.5,1.615 1.651,2.13 0.151,0.521 0.755,1.958 1.369,3.016 0.61,1.062 0.923,2.646 2.084,4.661 0.615,1.063 0.536,2.475 -1.036,3.297 -1.562,0.807 -2.6,0.24 -3.146,-1.156 -0.547,-1.39 -0.468,-2.932 -0.927,-4.374 -0.448,-1.439 -1.041,-2.871 -1.563,-3.97 -0.588,-1.25 -0.416,-2.084 -0.098,-2.442 0.792,-0.891 1.666,-1.162 1.666,-1.162 z"
     id="path213" />
  <path
     style="fill:#ffffff;fill-opacity:1;fill-rule:nonzero;stroke:none"
     d="m 58.109124,73.706102 c 0.141,-1.016 1.079,-1.729 2.093,-1.589 1.016,0.136 1.735,1.073 1.595,2.095 -0.141,1.014 -1.084,1.729 -2.099,1.582 -1.016,-0.134 -1.729,-1.072 -1.589,-2.088"
     id="path214" />
  <path
     style="fill:none;stroke:#231f20;stroke-width:1.33171;stroke-linecap:butt;stroke-linejoin:miter;stroke-miterlimit:4;stroke-dasharray:none;stroke-opacity:1"
     d="m 58.109124,73.706102 c 0.141,-1.016 1.079,-1.729 2.093,-1.589 1.016,0.136 1.735,1.073 1.595,2.095 -0.141,1.014 -1.084,1.729 -2.099,1.582 -1.016,-0.134 -1.729,-1.072 -1.589,-2.088 z"
     id="path215" />
  <path
     style="fill:#231f20;fill-opacity:1;fill-rule:nonzero;stroke:none"
     d="m 73.885124,77.982102 c 0.521,-0.51 1.917,-3.448 2.199,-4.13 0.265,-0.61 1.025,-1.484 0.265,-2.344 -0.308,-0.354 -1.011,-0.651 -1.328,-0.687 -0.261,-0.037 -0.475,0.213 -0.589,0.593 -0.208,0.636 -0.02,0.891 -0.339,2.131 0,0 -0.025,0.301 -0.047,0.853 -0.072,1.626 0.11,0.923 -0.514,3.256 -0.048,0.162 0.093,0.328 0.202,0.354 0.178,0.026 0.151,-0.026 0.151,-0.026"
     id="path216" />
  <path
     style="fill:none;stroke:#231f20;stroke-width:0.565977;stroke-linecap:round;stroke-linejoin:round;stroke-miterlimit:4;stroke-dasharray:none;stroke-opacity:1"
     d="m 73.885124,77.982102 c 0.521,-0.51 1.917,-3.448 2.199,-4.13 0.265,-0.61 1.025,-1.484 0.265,-2.344 -0.308,-0.354 -1.011,-0.651 -1.328,-0.687 -0.261,-0.037 -0.475,0.213 -0.589,0.593 -0.208,0.636 -0.02,0.891 -0.339,2.131 0,0 -0.025,0.301 -0.047,0.853 -0.072,1.626 0.11,0.923 -0.514,3.256 -0.048,0.162 0.093,0.328 0.202,0.354 0.178,0.026 0.151,-0.026 0.151,-0.026 z"
     id="path217" />
  <path
     style="fill:#231f20;fill-opacity:1;fill-rule:nonzero;stroke:none"
     d="m 121.18712,55.024102 c 1.11,-0.771 1.932,-0.214 2.203,0.786 0.084,0.298 0.464,0.468 0.527,0.771 0.124,0.688 -0.912,2.093 -2.303,1.532 -0.093,-0.043 -0.916,-0.111 -1.521,-0.256 -1.176,-0.281 -3.395,-1.421 -4.198,-4 -0.385,-1.218 0.407,-1.218 0.714,-0.77 0.964,1.411 1.322,1.354 1.713,1.63 1.313,0.957 2.865,0.307 2.865,0.307"
     id="path218" />
  <path
     style="fill:none;stroke:#231f20;stroke-width:0.332927;stroke-linecap:butt;stroke-linejoin:miter;stroke-miterlimit:4;stroke-dasharray:none;stroke-opacity:1"
     d="m 121.18712,55.024102 c 1.11,-0.771 1.932,-0.214 2.203,0.786 0.084,0.298 0.464,0.468 0.527,0.771 0.124,0.688 -0.912,2.093 -2.303,1.532 -0.093,-0.043 -0.916,-0.111 -1.521,-0.256 -1.176,-0.281 -3.395,-1.421 -4.198,-4 -0.385,-1.218 0.407,-1.218 0.714,-0.77 0.964,1.411 1.322,1.354 1.713,1.63 1.313,0.957 2.865,0.307 2.865,0.307 z"
     id="path219" />
  <path
     style="fill:#231f20;fill-opacity:1;fill-rule:nonzero;stroke:none"
     d="m 138.44712,62.346102 c 0.975,-2.041 0.891,-2.572 0.052,-3.041 -0.557,-0.312 -0.964,-0.792 -1.297,-1 -1.099,-0.688 -3.228,-1.391 -9.801,-1.807 -1.49,-0.094 -3.579,-0.24 -4.427,-0.37 -1.344,-0.198 -0.772,2.161 -0.245,2.245 1.693,0.281 2.833,0.599 3.432,0.787 0.406,0.124 1.161,0.249 2.677,0.937 2.303,1.041 3.527,2.005 5.541,2.651 0.934,0.297 1.443,1.12 2.516,0.942 1.074,-0.172 1.552,-1.344 1.552,-1.344"
     id="path220" />
  <path
     style="fill:none;stroke:#231f20;stroke-width:0.565977;stroke-linecap:butt;stroke-linejoin:miter;stroke-miterlimit:4;stroke-dasharray:none;stroke-opacity:1"
     d="m 138.44712,62.346102 c 0.975,-2.041 0.891,-2.572 0.052,-3.041 -0.557,-0.312 -0.964,-0.792 -1.297,-1 -1.099,-0.688 -3.228,-1.391 -9.801,-1.807 -1.49,-0.094 -3.579,-0.24 -4.427,-0.37 -1.344,-0.198 -0.772,2.161 -0.245,2.245 1.693,0.281 2.833,0.599 3.432,0.787 0.406,0.124 1.161,0.249 2.677,0.937 2.303,1.041 3.527,2.005 5.541,2.651 0.934,0.297 1.443,1.12 2.516,0.942 1.074,-0.172 1.552,-1.344 1.552,-1.344 z"
     id="path221" />
  <path
     style="fill:#0098c9;fill-opacity:1;fill-rule:nonzero;stroke:none"
     d="m 164.06712,67.310102 c -3.01,-0.869 -3.562,-1.38 -4.276,-1.964 -4.484,-3.65 -6.193,-1.38 -6.474,1.49 -0.334,3.376 -0.52,4.578 5.666,5.734 1.724,0.319 8.163,2.418 8.163,2.418 2.208,1.062 4.921,0.916 6.041,-0.016 1.178,-0.979 0.635,-0.678 1.563,-1.787 0.885,-1.057 1.239,-3.213 0.443,-4.156 -0.767,-0.907 -2.412,-0.631 -4.834,-0.541 -1.912,0.068 -6.292,-1.178 -6.292,-1.178"
     id="path222" />
  <path
     style="fill:none;stroke:#231f20;stroke-width:0.565977;stroke-linecap:butt;stroke-linejoin:miter;stroke-miterlimit:4;stroke-dasharray:none;stroke-opacity:1"
     d="m 164.06712,67.310102 c -3.01,-0.869 -3.562,-1.38 -4.276,-1.964 -4.484,-3.65 -6.193,-1.38 -6.474,1.49 -0.334,3.376 -0.52,4.578 5.666,5.734 1.724,0.319 8.163,2.418 8.163,2.418 2.208,1.062 4.921,0.916 6.041,-0.016 1.178,-0.979 0.635,-0.678 1.563,-1.787 0.885,-1.057 1.239,-3.213 0.443,-4.156 -0.767,-0.907 -2.412,-0.631 -4.834,-0.541 -1.912,0.068 -6.292,-1.178 -6.292,-1.178 z"
     id="path223" />
  <path
     style="fill:#ffffff;fill-opacity:1;fill-rule:nonzero;stroke:none"
     d="m 179.23912,77.384102 c 0.214,0.124 -0.084,1.233 0.411,1.405 0.496,0.172 0.933,-0.484 2.912,-0.697 h 0.021 c 1.454,-0.11 2.667,-0.782 3.167,-1.927 0.843,-1.901 -0.573,-4.365 -3.152,-5.511 -2.588,-1.136 -5.359,-0.521 -6.197,1.38 -0.808,1.812 0.458,4.156 2.838,5.35"
     id="path224" />
  <path
     style="fill:none;stroke:#231f20;stroke-width:0.565977;stroke-linecap:butt;stroke-linejoin:miter;stroke-miterlimit:4;stroke-dasharray:none;stroke-opacity:1"
     d="m 179.23912,77.384102 c 0.214,0.124 -0.084,1.233 0.411,1.405 0.496,0.172 0.933,-0.484 2.912,-0.697 h 0.021 c 1.454,-0.11 2.667,-0.782 3.167,-1.927 0.843,-1.901 -0.573,-4.365 -3.152,-5.511 -2.588,-1.136 -5.359,-0.521 -6.197,1.38 -0.808,1.812 0.458,4.156 2.838,5.35 z"
     id="path225" />
  <path
     style="fill:#231f20;fill-opacity:1;fill-rule:nonzero;stroke:none"
     d="m 136.52112,60.800102 c -2.032,3.464 2.041,3.734 2.453,3.974 4.312,2.552 4.681,2.63 8.099,4.343 4.942,2.48 8.708,3.423 10.989,0.969 1.547,-1.666 1.719,-3.297 1.151,-4.484 -0.63,-1.318 -3.162,-3.234 -5.87,-2.218 l -1.677,-0.334 c -1.099,-0.365 -1.651,-0.542 -2.183,-0.766 -0.921,-0.395 -1.932,-0.76 -3.776,-1.422 -3.265,-1.177 -7.104,-1.354 -7.104,-1.354 -1.177,-0.395 -2.082,1.292 -2.082,1.292"
     id="path226" />
  <path
     style="fill:none;stroke:#231f20;stroke-width:0.565977;stroke-linecap:butt;stroke-linejoin:miter;stroke-miterlimit:4;stroke-dasharray:none;stroke-opacity:1"
     d="m 136.52112,60.800102 c -2.032,3.464 2.041,3.734 2.453,3.974 4.312,2.552 4.681,2.63 8.099,4.343 4.942,2.48 8.708,3.423 10.989,0.969 1.547,-1.666 1.719,-3.297 1.151,-4.484 -0.63,-1.318 -3.162,-3.234 -5.87,-2.218 l -1.677,-0.334 c -1.099,-0.365 -1.651,-0.542 -2.183,-0.766 -0.921,-0.395 -1.932,-0.76 -3.776,-1.422 -3.265,-1.177 -7.104,-1.354 -7.104,-1.354 -1.177,-0.395 -2.082,1.292 -2.082,1.292 z"
     id="path227" />
  <path
     style="fill:#0098c9;fill-opacity:1;fill-rule:nonzero;stroke:none"
     d="m 158.94212,65.040102 c -0.839,-1.199 -3.656,-2.667 -6.156,-1.214 l -2.083,7.531 c 0.64,0.136 1.239,0.229 1.823,0.297 0.072,0.031 0.145,0.068 0.203,0.104 0.672,0.448 1.276,0.271 2.254,-0.078 1.548,-0.182 2.762,-0.796 3.568,-2.031 1.246,-1.901 1.147,-3.532 0.391,-4.609"
     id="path228" />
  <path
     style="fill:none;stroke:#231f20;stroke-width:0.565977;stroke-linecap:butt;stroke-linejoin:miter;stroke-miterlimit:4;stroke-dasharray:none;stroke-opacity:1"
     d="m 158.94212,65.040102 c -0.839,-1.199 -3.656,-2.667 -6.156,-1.214 l -2.083,7.531 c 0.64,0.136 1.239,0.229 1.823,0.297 0.072,0.031 0.145,0.068 0.203,0.104 0.672,0.448 1.276,0.271 2.254,-0.078 1.548,-0.182 2.762,-0.796 3.568,-2.031 1.246,-1.901 1.147,-3.532 0.391,-4.609 z"
     id="path229" />
  <path
     style="fill:#231f20;fill-opacity:1;fill-rule:nonzero;stroke:none"
     d="m 192.81312,74.389102 c -0.574,0.296 -2.47,-0.157 -4.054,0.099 -1.072,0.172 -3.722,-0.543 -4.78,-0.287 -0.964,0.229 -1.433,0.245 -1.881,-0.817 -0.265,-0.626 -0.375,-2.006 0.084,-2.23 1.068,-0.516 2.016,-0.568 3.068,-0.39 1.203,0.197 4.411,1.02 4.984,1.224 1.437,0.52 2.136,0.281 2.525,0.385 0.74,0.187 0.85,0.516 0.83,1.016 -0.032,0.957 -0.776,1 -0.776,1"
     id="path230" />
  <path
     style="fill:none;stroke:#231f20;stroke-width:0.565977;stroke-linecap:butt;stroke-linejoin:miter;stroke-miterlimit:4;stroke-dasharray:none;stroke-opacity:1"
     d="m 192.81312,74.389102 c -0.574,0.296 -2.47,-0.157 -4.054,0.099 -1.072,0.172 -3.722,-0.543 -4.78,-0.287 -0.964,0.229 -1.433,0.245 -1.881,-0.817 -0.265,-0.626 -0.375,-2.006 0.084,-2.23 1.068,-0.516 2.016,-0.568 3.068,-0.39 1.203,0.197 4.411,1.02 4.984,1.224 1.437,0.52 2.136,0.281 2.525,0.385 0.74,0.187 0.85,0.516 0.83,1.016 -0.032,0.957 -0.776,1 -0.776,1 z"
     id="path231" />
  <path
     style="fill:#231f20;fill-opacity:1;fill-rule:nonzero;stroke:none"
     d="m 183.79112,73.556102 c -0.26,1.27 -2.145,0.5 -2.672,0.374 -0.53,-0.125 -2.073,-0.308 -3.297,-0.297 -1.224,0.005 -2.755,-0.511 -5.083,-0.495 -1.224,0.006 -2.417,-0.76 -2.349,-2.536 0.063,-1.756 1.073,-2.376 2.557,-2.161 1.479,0.213 2.782,1.047 4.26,1.364 1.475,0.323 3.011,0.511 4.224,0.604 1.376,0.104 2.016,0.667 2.172,1.12 0.386,1.131 0.188,2.027 0.188,2.027"
     id="path232" />
  <path
     style="fill:none;stroke:#231f20;stroke-width:0.565977;stroke-linecap:butt;stroke-linejoin:miter;stroke-miterlimit:4;stroke-dasharray:none;stroke-opacity:1"
     d="m 183.79112,73.556102 c -0.26,1.27 -2.145,0.5 -2.672,0.374 -0.53,-0.125 -2.073,-0.308 -3.297,-0.297 -1.224,0.005 -2.755,-0.511 -5.083,-0.495 -1.224,0.006 -2.417,-0.76 -2.349,-2.536 0.063,-1.756 1.073,-2.376 2.557,-2.161 1.479,0.213 2.782,1.047 4.26,1.364 1.475,0.323 3.011,0.511 4.224,0.604 1.376,0.104 2.016,0.667 2.172,1.12 0.386,1.131 0.188,2.027 0.188,2.027 z"
     id="path233" />
  <path
     style="fill:#231f20;fill-opacity:1;fill-rule:nonzero;stroke:none"
     d="m 199.58312,73.674102 c -0.609,-0.4 -3.77,-1.161 -4.5,-1.296 -0.646,-0.136 -1.657,-0.704 -2.349,0.224 -0.281,0.375 -0.421,1.12 -0.396,1.443 0.016,0.26 0.308,0.421 0.703,0.453 0.666,0.067 0.876,-0.166 2.152,-0.109 0,0 0.301,-0.037 0.848,-0.131 1.609,-0.265 0.876,-0.297 3.292,-0.166 0.166,0.01 0.302,-0.156 0.302,-0.271 -0.005,-0.177 -0.052,-0.147 -0.052,-0.147"
     id="path234" />
  <path
     style="fill:none;stroke:#231f20;stroke-width:0.565977;stroke-linecap:round;stroke-linejoin:round;stroke-miterlimit:4;stroke-dasharray:none;stroke-opacity:1"
     d="m 199.58312,73.674102 c -0.609,-0.4 -3.77,-1.161 -4.5,-1.296 -0.646,-0.136 -1.657,-0.704 -2.349,0.224 -0.281,0.375 -0.421,1.12 -0.396,1.443 0.016,0.26 0.308,0.421 0.703,0.453 0.666,0.067 0.876,-0.166 2.152,-0.109 0,0 0.301,-0.037 0.848,-0.131 1.609,-0.265 0.876,-0.297 3.292,-0.166 0.166,0.01 0.302,-0.156 0.302,-0.271 -0.005,-0.177 -0.052,-0.147 -0.052,-0.147 z"
     id="path235" />
  <path
     style="fill:none;stroke:#231f20;stroke-width:0.399514;stroke-linecap:butt;stroke-linejoin:miter;stroke-miterlimit:4;stroke-dasharray:none;stroke-opacity:1"
     d="M 0.17202385,121.3571 C 13.636124,144.1651 46.964124,135.8681 52.958124,131.7691"
     id="path236" />
  <path
     style="fill:#231f20;fill-opacity:1;fill-rule:nonzero;stroke:none"
     d="m 53.953124,131.0921 c -0.349,0.494 -0.729,1.186 -0.875,1.749 l -0.25,-0.979 -0.818,-0.588 c 0.574,0.067 1.355,-0.037 1.943,-0.182"
     id="path237" />
  <path
     style="fill:#231f20;fill-opacity:1;fill-rule:nonzero;stroke:none"
     d="m 210.40612,77.810102 c -0.297,0.667 -0.537,3.907 -0.557,4.646 -0.027,0.666 -0.423,1.756 0.604,2.281 0.412,0.219 1.172,0.24 1.484,0.161 0.256,-0.062 0.365,-0.369 0.338,-0.765 -0.041,-0.667 -0.306,-0.839 -0.458,-2.104 0,0 -0.083,-0.297 -0.266,-0.817 -0.52,-1.547 -0.437,-0.819 -0.692,-3.219 -0.021,-0.172 -0.204,-0.276 -0.318,-0.261 -0.176,0.037 -0.135,0.078 -0.135,0.078"
     id="path238" />
  <path
     style="fill:none;stroke:#231f20;stroke-width:0.565977;stroke-linecap:round;stroke-linejoin:round;stroke-miterlimit:4;stroke-dasharray:none;stroke-opacity:1"
     d="m 210.40612,77.810102 c -0.297,0.667 -0.537,3.907 -0.557,4.646 -0.027,0.666 -0.423,1.756 0.604,2.281 0.412,0.219 1.172,0.24 1.484,0.161 0.256,-0.062 0.365,-0.369 0.338,-0.765 -0.041,-0.667 -0.306,-0.839 -0.458,-2.104 0,0 -0.083,-0.297 -0.266,-0.817 -0.52,-1.547 -0.437,-0.819 -0.692,-3.219 -0.021,-0.172 -0.204,-0.276 -0.318,-0.261 -0.176,0.037 -0.135,0.078 -0.135,0.078 z"
     id="path239" />
  <path
     style="fill:#231f20;fill-opacity:1;fill-rule:nonzero;stroke:none"
     d="m 208.45312,140.1601 c -2.251,-0.256 -2.724,0 -2.891,0.948 -0.115,0.629 -0.432,1.17 -0.521,1.546 -0.286,1.266 -0.255,3.515 1.51,9.854 0.402,1.437 0.948,3.464 1.099,4.308 0.256,1.333 2.303,0.016 2.209,-0.511 -0.297,-1.688 -0.365,-2.869 -0.385,-3.495 -0.016,-0.426 -0.152,-1.177 0,-2.838 0.233,-2.516 0.744,-3.984 0.692,-6.104 -0.025,-0.979 0.584,-1.735 0.063,-2.683 -0.516,-0.959 -1.776,-1.025 -1.776,-1.025"
     id="path240" />
  <path
     style="fill:none;stroke:#231f20;stroke-width:0.565977;stroke-linecap:butt;stroke-linejoin:miter;stroke-miterlimit:4;stroke-dasharray:none;stroke-opacity:1"
     d="m 208.45312,140.1601 c -2.251,-0.256 -2.724,0 -2.891,0.948 -0.115,0.629 -0.432,1.17 -0.521,1.546 -0.286,1.266 -0.255,3.515 1.51,9.854 0.402,1.437 0.948,3.464 1.099,4.308 0.256,1.333 2.303,0.016 2.209,-0.511 -0.297,-1.688 -0.365,-2.869 -0.385,-3.495 -0.016,-0.426 -0.152,-1.177 0,-2.838 0.233,-2.516 0.744,-3.984 0.692,-6.104 -0.025,-0.979 0.584,-1.735 0.063,-2.683 -0.516,-0.959 -1.776,-1.025 -1.776,-1.025 z"
     id="path241" />
  <path
     style="fill:#0098c9;fill-opacity:1;fill-rule:nonzero;stroke:none"
     d="m 206.65012,113.4301 c -0.635,3.068 -1.104,3.656 -1.629,4.411 -3.292,4.756 -0.902,6.281 1.984,6.339 3.385,0.078 4.604,0.172 5.281,-6.088 0.188,-1.74 1.781,-8.323 1.781,-8.323 0.891,-2.276 0.542,-4.975 -0.474,-6.021 -1.072,-1.099 -0.728,-0.583 -1.9,-1.422 -1.126,-0.802 -3.303,-0.99 -4.183,-0.12 -0.839,0.834 -0.443,2.454 -0.167,4.859 0.214,1.901 -0.693,6.365 -0.693,6.365"
     id="path242" />
  <path
     style="fill:none;stroke:#231f20;stroke-width:0.565977;stroke-linecap:butt;stroke-linejoin:miter;stroke-miterlimit:4;stroke-dasharray:none;stroke-opacity:1"
     d="m 206.65012,113.4301 c -0.635,3.068 -1.104,3.656 -1.629,4.411 -3.292,4.756 -0.902,6.281 1.984,6.339 3.385,0.078 4.604,0.172 5.281,-6.088 0.188,-1.74 1.781,-8.323 1.781,-8.323 0.891,-2.276 0.542,-4.975 -0.474,-6.021 -1.072,-1.099 -0.728,-0.583 -1.9,-1.422 -1.126,-0.802 -3.303,-0.99 -4.183,-0.12 -0.839,0.834 -0.443,2.454 -0.167,4.859 0.214,1.901 -0.693,6.365 -0.693,6.365 z"
     id="path243" />
  <path
     style="fill:#ffffff;fill-opacity:1;fill-rule:nonzero;stroke:none"
     d="m 215.53112,97.529102 c 0.104,-0.224 1.234,-0.011 1.37,-0.521 0.13,-0.506 -0.552,-0.891 -0.918,-2.848 l -0.004,-0.022 c -0.22,-1.432 -0.985,-2.598 -2.166,-3.016 -1.959,-0.686 -4.308,0.912 -5.246,3.574 -0.942,2.666 -0.114,5.384998 1.844,6.072998 1.875,0.667 4.11,-0.775998 5.12,-3.239998"
     id="path244" />
  <path
     style="fill:none;stroke:#231f20;stroke-width:0.565977;stroke-linecap:butt;stroke-linejoin:miter;stroke-miterlimit:4;stroke-dasharray:none;stroke-opacity:1"
     d="m 215.53112,97.529102 c 0.104,-0.224 1.234,-0.011 1.37,-0.521 0.13,-0.506 -0.552,-0.891 -0.918,-2.848 l -0.004,-0.022 c -0.22,-1.432 -0.985,-2.598 -2.166,-3.016 -1.959,-0.686 -4.308,0.912 -5.246,3.574 -0.942,2.666 -0.114,5.384998 1.844,6.072998 1.875,0.667 4.11,-0.775998 5.12,-3.239998 z"
     id="path245" />
  <path
     style="fill:#231f20;fill-opacity:1;fill-rule:nonzero;stroke:none"
     d="m 207.62512,142.4821 c 3.937,0.787 2.854,-3.15 2.948,-3.62 1,-4.912 0.948,-5.286 1.442,-9.078 0.724,-5.479 0.375,-9.343 -2.688,-10.692 -2.077,-0.918 -3.677,-0.547 -4.614,0.38 -1.036,1.026 -2.015,4.046 -0.167,6.27 l 0.235,1.699 c 0.016,1.161 0.032,1.739 -0.011,2.307 -0.067,1.005 -0.077,2.078 -0.104,4.036 -0.041,3.474 1.052,7.157 1.052,7.157 0.016,1.244 1.907,1.541 1.907,1.541"
     id="path246" />
  <path
     style="fill:none;stroke:#231f20;stroke-width:0.565977;stroke-linecap:butt;stroke-linejoin:miter;stroke-miterlimit:4;stroke-dasharray:none;stroke-opacity:1"
     d="m 207.62512,142.4821 c 3.937,0.787 2.854,-3.15 2.948,-3.62 1,-4.912 0.948,-5.286 1.442,-9.078 0.724,-5.479 0.375,-9.343 -2.688,-10.692 -2.077,-0.918 -3.677,-0.547 -4.614,0.38 -1.036,1.026 -2.015,4.046 -0.167,6.27 l 0.235,1.699 c 0.016,1.161 0.032,1.739 -0.011,2.307 -0.067,1.005 -0.077,2.078 -0.104,4.036 -0.041,3.474 1.052,7.157 1.052,7.157 0.016,1.244 1.907,1.541 1.907,1.541 z"
     id="path247" />
  <path
     style="fill:#0098c9;fill-opacity:1;fill-rule:nonzero;stroke:none"
     d="m 212.62512,123.8101 c 0.005,-0.084 0.016,-0.161 0.03,-0.234 0.21,-0.782 -0.166,-1.292 -0.812,-2.104 -0.682,-1.396 -1.661,-2.344 -3.088,-2.703 -2.204,-0.552 -3.714,0.072 -4.485,1.145 -0.853,1.183 -1.317,4.334 0.876,6.208 l 7.796,-0.494 c -0.083,-0.651 -0.192,-1.25 -0.317,-1.818"
     id="path248" />
  <path
     style="fill:none;stroke:#231f20;stroke-width:0.565977;stroke-linecap:butt;stroke-linejoin:miter;stroke-miterlimit:4;stroke-dasharray:none;stroke-opacity:1"
     d="m 212.62512,123.8101 c 0.005,-0.084 0.016,-0.161 0.03,-0.234 0.21,-0.782 -0.166,-1.292 -0.812,-2.104 -0.682,-1.396 -1.661,-2.344 -3.088,-2.703 -2.204,-0.552 -3.714,0.072 -4.485,1.145 -0.853,1.183 -1.317,4.334 0.876,6.208 l 7.796,-0.494 c -0.083,-0.651 -0.192,-1.25 -0.317,-1.818 z"
     id="path249" />
  <path
     style="fill:#231f20;fill-opacity:1;fill-rule:nonzero;stroke:none"
     d="m 211.49912,84.226102 c 0.344,0.543 0.036,2.47 0.412,4.032 0.255,1.058 -0.25,3.755 0.083,4.787 0.303,0.948 0.349,1.411 -0.672,1.943 -0.604,0.312 -1.973,0.53 -2.229,0.082 -0.599,-1.025 -0.719,-1.962 -0.624,-3.03 0.104,-1.208 0.672,-4.47 0.833,-5.063 0.411,-1.464 0.12,-2.145 0.192,-2.547 0.131,-0.75 0.453,-0.885 0.953,-0.901 0.959,-0.041 1.052,0.697 1.052,0.697"
     id="path250" />
  <path
     style="fill:none;stroke:#231f20;stroke-width:0.565977;stroke-linecap:butt;stroke-linejoin:miter;stroke-miterlimit:4;stroke-dasharray:none;stroke-opacity:1"
     d="m 211.49912,84.226102 c 0.344,0.543 0.036,2.47 0.412,4.032 0.255,1.058 -0.25,3.755 0.083,4.787 0.303,0.948 0.349,1.411 -0.672,1.943 -0.604,0.312 -1.973,0.53 -2.229,0.082 -0.599,-1.025 -0.719,-1.962 -0.624,-3.03 0.104,-1.208 0.672,-4.47 0.833,-5.063 0.411,-1.464 0.12,-2.145 0.192,-2.547 0.131,-0.75 0.453,-0.885 0.953,-0.901 0.959,-0.041 1.052,0.697 1.052,0.697 z"
     id="path251" />
  <path
     style="fill:#231f20;fill-opacity:1;fill-rule:nonzero;stroke:none"
     d="m 211.36512,93.284102 c 1.285,0.162 0.661,2.105 0.582,2.636 -0.088,0.536 -0.156,2.093 -0.052,3.312 0.104,1.217998 -0.292,2.785998 -0.098,5.103998 0.098,1.22 -0.574,2.469 -2.35,2.537 -1.754,0.068 -2.453,-0.891 -2.349,-2.385 0.095,-1.49 0.824,-2.855 1.032,-4.35 0.208,-1.493998 0.276,-3.040998 0.276,-4.253998 -0.005,-1.386 0.511,-2.068 0.953,-2.256 1.099,-0.474 2.006,-0.344 2.006,-0.344"
     id="path252" />
  <path
     style="fill:none;stroke:#231f20;stroke-width:0.565977;stroke-linecap:butt;stroke-linejoin:miter;stroke-miterlimit:4;stroke-dasharray:none;stroke-opacity:1"
     d="m 211.36512,93.284102 c 1.285,0.162 0.661,2.105 0.582,2.636 -0.088,0.536 -0.156,2.093 -0.052,3.312 0.104,1.217998 -0.292,2.785998 -0.098,5.103998 0.098,1.22 -0.574,2.469 -2.35,2.537 -1.754,0.068 -2.453,-0.891 -2.349,-2.385 0.095,-1.49 0.824,-2.855 1.032,-4.35 0.208,-1.493998 0.276,-3.040998 0.276,-4.253998 -0.005,-1.386 0.511,-2.068 0.953,-2.256 1.099,-0.474 2.006,-0.344 2.006,-0.344 z"
     id="path253" />
  <path
     style="fill:#231f20;fill-opacity:1;fill-rule:nonzero;stroke:none"
     d="m 208.15012,160.5131 c -1.077,-0.047 -0.833,-1.276 -0.604,-2.479 0.057,-0.302 0.084,-0.593 0.161,-0.885 0.324,-1.183 1.136,-1.844 3.115,0.401 0.073,0.088 1.923,1.25 2.495,1.49 2.761,1.145 2.974,0.333 2.761,1.145 -0.147,0.537 -0.656,0.552 -1.287,0.552 -0.849,0.005 -3.865,-0.235 -4.328,-0.239 -0.453,-0.01 -2.313,0.015 -2.313,0.015"
     id="path254" />
  <path
     style="fill:none;stroke:#231f20;stroke-width:0.565977;stroke-linecap:butt;stroke-linejoin:miter;stroke-miterlimit:4;stroke-dasharray:none;stroke-opacity:1"
     d="m 208.15012,160.5131 c -1.077,-0.047 -0.833,-1.276 -0.604,-2.479 0.057,-0.302 0.084,-0.593 0.161,-0.885 0.324,-1.183 1.136,-1.844 3.115,0.401 0.073,0.088 1.923,1.25 2.495,1.49 2.761,1.145 2.974,0.333 2.761,1.145 -0.147,0.537 -0.656,0.552 -1.287,0.552 -0.849,0.005 -3.865,-0.235 -4.328,-0.239 -0.453,-0.01 -2.313,0.015 -2.313,0.015 z"
     id="path256" />
</svg>
