<?xml version="1.0" encoding="UTF-8" standalone="no"?>
<!-- Created with Inkscape (http://www.inkscape.org/) -->

<svg
   version="1.1"
   id="svg1"
   width="339.78137"
   height="145.55566"
   viewBox="0 0 339.78136 145.55567"
   sodipodi:docname="cell.svg"
   xmlns:inkscape="http://www.inkscape.org/namespaces/inkscape"
   xmlns:sodipodi="http://sodipodi.sourceforge.net/DTD/sodipodi-0.dtd"
   xmlns="http://www.w3.org/2000/svg"
   xmlns:svg="http://www.w3.org/2000/svg">
  <sodipodi:namedview
     id="namedview1"
     pagecolor="#ffffff"
     bordercolor="#000000"
     borderopacity="0.25"
     inkscape:showpageshadow="2"
     inkscape:pageopacity="0.0"
     inkscape:pagecheckerboard="0"
     inkscape:deskcolor="#d1d1d1">
    <inkscape:page
       x="0"
       y="9.4382119e-13"
       inkscape:label="1"
       id="page1"
       width="339.78137"
       height="145.55566"
       margin="0"
       bleed="0" />
  </sodipodi:namedview>
  <defs
     id="defs1" />
  <path
     style="fill:#231f20;fill-opacity:1;fill-rule:nonzero;stroke:none"
     d="m 5.3868598,132.82181 c -1.063,-0.833 -0.771,-1.776 0.098,-2.339 0.26,-0.172 0.312,-0.582 0.579,-0.724 0.624,-0.328 2.271,0.24 2.145,1.735 -0.005,0.104 0.172,0.907 0.214,1.525 0.078,1.21 -0.35,3.667 -2.568,5.199 -1.052,0.735 -1.287,-0.027 -0.954,-0.453 1.068,-1.334 0.902,-1.662 1.054,-2.115 0.514,-1.536 -0.568,-2.828 -0.568,-2.828"
     id="path690" />
  <path
     style="fill:none;stroke:#231f20;stroke-width:0.332927;stroke-linecap:butt;stroke-linejoin:miter;stroke-miterlimit:4;stroke-dasharray:none;stroke-opacity:1"
     d="m 5.3868598,132.82181 c -1.063,-0.833 -0.771,-1.776 0.098,-2.339 0.26,-0.172 0.312,-0.582 0.579,-0.724 0.624,-0.328 2.271,0.24 2.145,1.735 -0.005,0.104 0.172,0.907 0.214,1.525 0.078,1.21 -0.35,3.667 -2.568,5.199 -1.052,0.735 -1.287,-0.027 -0.954,-0.453 1.068,-1.334 0.902,-1.662 1.054,-2.115 0.514,-1.536 -0.568,-2.828 -0.568,-2.828 z"
     id="path691" />
  <path
     style="fill:#231f20;fill-opacity:1;fill-rule:nonzero;stroke:none"
     d="m 7.2308598,114.15981 c -2.24,-0.317 -2.715,-0.078 -2.918,0.859 -0.13,0.625 -0.468,1.158 -0.568,1.532 -0.328,1.26 -0.364,3.5 1.199,9.902 0.353,1.442 0.839,3.484 0.968,4.338 0.209,1.338 2.297,0.088 2.213,-0.442 -0.238,-1.699 -0.265,-2.882 -0.27,-3.506 -0.006,-0.433 -0.11,-1.183 0.094,-2.833 0.307,-2.511 0.864,-3.964 0.88,-6.084 0.006,-0.978 0.64,-1.713 0.151,-2.683 -0.484,-0.973 -1.749,-1.083 -1.749,-1.083"
     id="path692" />
  <path
     style="fill:none;stroke:#231f20;stroke-width:0.565977;stroke-linecap:butt;stroke-linejoin:miter;stroke-miterlimit:4;stroke-dasharray:none;stroke-opacity:1"
     d="m 7.2308598,114.15981 c -2.24,-0.317 -2.715,-0.078 -2.918,0.859 -0.13,0.625 -0.468,1.158 -0.568,1.532 -0.328,1.26 -0.364,3.5 1.199,9.902 0.353,1.442 0.839,3.484 0.968,4.338 0.209,1.338 2.297,0.088 2.213,-0.442 -0.238,-1.699 -0.265,-2.882 -0.27,-3.506 -0.006,-0.433 -0.11,-1.183 0.094,-2.833 0.307,-2.511 0.864,-3.964 0.88,-6.084 0.006,-0.978 0.64,-1.713 0.151,-2.683 -0.484,-0.973 -1.749,-1.083 -1.749,-1.083 z"
     id="path693" />
  <path
     style="fill:#0098c9;fill-opacity:1;fill-rule:nonzero;stroke:none"
     d="m 6.2718598,87.389814 c -0.729,3.047 -1.213,3.625 -1.765,4.364 -3.443,4.641 -1.1,6.251 1.781,6.396 3.385,0.182 4.5990002,0.317 5.4790002,-5.916 0.234,-1.74 2.036,-8.267 2.036,-8.267 0.958,-2.249 0.698,-4.957 -0.287,-6.036 -1.036,-1.13 -0.708,-0.604 -1.853,-1.478 -1.099,-0.839 -3.2710002,-1.095 -4.1720002,-0.251 -0.875,0.808 -0.527,2.432 -0.323,4.849 0.151,1.907 -0.896,6.339 -0.896,6.339"
     id="path694" />
  <path
     style="fill:none;stroke:#231f20;stroke-width:0.565977;stroke-linecap:butt;stroke-linejoin:miter;stroke-miterlimit:4;stroke-dasharray:none;stroke-opacity:1"
     d="m 6.2718598,87.389814 c -0.729,3.047 -1.213,3.625 -1.765,4.364 -3.443,4.641 -1.1,6.251 1.781,6.396 3.385,0.182 4.5990002,0.317 5.4790002,-5.916 0.234,-1.74 2.036,-8.267 2.036,-8.267 0.958,-2.249 0.698,-4.957 -0.287,-6.036 -1.036,-1.13 -0.708,-0.604 -1.853,-1.478 -1.099,-0.839 -3.2710002,-1.095 -4.1720002,-0.251 -0.875,0.808 -0.527,2.432 -0.323,4.849 0.151,1.907 -0.896,6.339 -0.896,6.339 z"
     id="path695" />
  <path
     style="fill:#ffffff;fill-opacity:1;fill-rule:nonzero;stroke:none"
     d="m 13.54286,69.660814 c 0,-0.251 1.098,-0.568 0.989,-1.079 -0.109,-0.509 -0.891,-0.552 -2.099,-2.135 l -0.016,-0.021 c -0.844,-1.183 -2.046,-1.869 -3.2920002,-1.708 -2.061,0.26 -3.437,2.744 -3.077,5.547 0.359,2.802 2.323,4.86 4.3850002,4.593 1.968,-0.249 3.318,-2.547 3.11,-5.197"
     id="path696" />
  <path
     style="fill:none;stroke:#231f20;stroke-width:0.565977;stroke-linecap:butt;stroke-linejoin:miter;stroke-miterlimit:4;stroke-dasharray:none;stroke-opacity:1"
     d="m 13.54286,69.660814 c 0,-0.251 1.098,-0.568 0.989,-1.079 -0.109,-0.509 -0.891,-0.552 -2.099,-2.135 l -0.016,-0.021 c -0.844,-1.183 -2.046,-1.869 -3.2920002,-1.708 -2.061,0.26 -3.437,2.744 -3.077,5.547 0.359,2.802 2.323,4.86 4.3850002,4.593 1.968,-0.249 3.318,-2.547 3.11,-5.197 z"
     id="path697" />
  <path
     style="fill:#231f20;fill-opacity:1;fill-rule:nonzero;stroke:none"
     d="m 6.3348598,116.46181 c 3.9050002,0.912 2.948,-3.056 3.057,-3.525 1.1510002,-4.875 1.1150002,-5.255 1.7330002,-9.027 0.896,-5.451996 0.667,-9.327996 -2.3530002,-10.775996 -2.047,-0.984 -3.661,-0.656 -4.625,0.234 -1.068,0.995 -2.14,3.985 -0.364,6.266 l 0.181,1.703996 c -0.02,1.161 -0.025,1.734 -0.083,2.306 -0.098,1 -0.146,2.074 -0.234,4.033 -0.146,3.467 0.828,7.181 0.828,7.181 -0.02,1.245 1.86,1.604 1.86,1.604"
     id="path698" />
  <path
     style="fill:none;stroke:#231f20;stroke-width:0.565977;stroke-linecap:butt;stroke-linejoin:miter;stroke-miterlimit:4;stroke-dasharray:none;stroke-opacity:1"
     d="m 6.3348598,116.46181 c 3.9050002,0.912 2.948,-3.056 3.057,-3.525 1.1510002,-4.875 1.1150002,-5.255 1.7330002,-9.027 0.896,-5.451996 0.667,-9.327996 -2.3530002,-10.775996 -2.047,-0.984 -3.661,-0.656 -4.625,0.234 -1.068,0.995 -2.14,3.985 -0.364,6.266 l 0.181,1.703996 c -0.02,1.161 -0.025,1.734 -0.083,2.306 -0.098,1 -0.146,2.074 -0.234,4.033 -0.146,3.467 0.828,7.181 0.828,7.181 -0.02,1.245 1.86,1.604 1.86,1.604 z"
     id="path699" />
  <path
     style="fill:#0098c9;fill-opacity:1;fill-rule:nonzero;stroke:none"
     d="m 11.91686,97.952814 c 0.011,-0.079 0.022,-0.158 0.042,-0.224 0.229,-0.782 -0.124,-1.303 -0.755,-2.142 -0.631,-1.416 -1.5830002,-2.385 -2.9950002,-2.792 -2.182,-0.629 -3.713,-0.041 -4.521,1 -0.885,1.163 -1.453,4.292 0.683,6.239996 L 12.17886,99.779814 c -0.058,-0.651 -0.152,-1.25 -0.262,-1.827"
     id="path700" />
  <path
     style="fill:none;stroke:#231f20;stroke-width:0.565977;stroke-linecap:butt;stroke-linejoin:miter;stroke-miterlimit:4;stroke-dasharray:none;stroke-opacity:1"
     d="m 11.91686,97.952814 c 0.011,-0.079 0.022,-0.158 0.042,-0.224 0.229,-0.782 -0.124,-1.303 -0.755,-2.142 -0.631,-1.416 -1.5830002,-2.385 -2.9950002,-2.792 -2.182,-0.629 -3.713,-0.041 -4.521,1 -0.885,1.163 -1.453,4.292 0.683,6.239996 L 12.17886,99.779814 c -0.058,-0.651 -0.152,-1.25 -0.262,-1.827 z"
     id="path701" />
  <path
     style="fill:#231f20;fill-opacity:1;fill-rule:nonzero;stroke:none"
     d="m 13.74486,98.685814 c -0.484,-0.426 -0.724,-2.359 -1.525,-3.755 -0.537,-0.942 -0.808,-3.677 -1.417,-4.578 -0.558,-0.818 -0.735,-1.25 0.098,-2.047 0.496,-0.468 1.751,-1.063 2.12,-0.708 0.86,0.823 1.24,1.693 1.448,2.74 0.24,1.192 0.599,4.479 0.61,5.093 0.021,1.522 0.489,2.094 0.532,2.495 0.088,0.756 -0.183,0.98 -0.662,1.141 -0.912,0.301 -1.204,-0.381 -1.204,-0.381"
     id="path702" />
  <path
     style="fill:none;stroke:#231f20;stroke-width:0.565977;stroke-linecap:butt;stroke-linejoin:miter;stroke-miterlimit:4;stroke-dasharray:none;stroke-opacity:1"
     d="m 13.74486,98.685814 c -0.484,-0.426 -0.724,-2.359 -1.525,-3.755 -0.537,-0.942 -0.808,-3.677 -1.417,-4.578 -0.558,-0.818 -0.735,-1.25 0.098,-2.047 0.496,-0.468 1.751,-1.063 2.12,-0.708 0.86,0.823 1.24,1.693 1.448,2.74 0.24,1.192 0.599,4.479 0.61,5.093 0.021,1.522 0.489,2.094 0.532,2.495 0.088,0.756 -0.183,0.98 -0.662,1.141 -0.912,0.301 -1.204,-0.381 -1.204,-0.381 z"
     id="path703" />
  <path
     style="fill:#231f20;fill-opacity:1;fill-rule:nonzero;stroke:none"
     d="m 11.33986,89.952814 c -1.276,0.202 -1.224,-1.834 -1.292,-2.366 -0.073,-0.541 -0.4370002,-2.057 -0.8800002,-3.192 -0.437,-1.146 -0.495,-2.761 -1.333,-4.933 -0.434,-1.145 -0.136,-2.531 1.546,-3.093 1.6670002,-0.558 2.6040002,0.172 2.9270002,1.63 0.323,1.463 0.005,2.968 0.224,4.463 0.219,1.501 0.584,3.005 0.923,4.168 0.39,1.328 0.082,2.13 -0.282,2.432 -0.922,0.755 -1.833,0.891 -1.833,0.891"
     id="path704" />
  <path
     style="fill:none;stroke:#231f20;stroke-width:0.565977;stroke-linecap:butt;stroke-linejoin:miter;stroke-miterlimit:4;stroke-dasharray:none;stroke-opacity:1"
     d="m 11.33986,89.952814 c -1.276,0.202 -1.224,-1.834 -1.292,-2.366 -0.073,-0.541 -0.4370002,-2.057 -0.8800002,-3.192 -0.437,-1.146 -0.495,-2.761 -1.333,-4.933 -0.434,-1.145 -0.136,-2.531 1.546,-3.093 1.6670002,-0.558 2.6040002,0.172 2.9270002,1.63 0.323,1.463 0.005,2.968 0.224,4.463 0.219,1.501 0.584,3.005 0.923,4.168 0.39,1.328 0.082,2.13 -0.282,2.432 -0.922,0.755 -1.833,0.891 -1.833,0.891 z"
     id="path705" />
  <path
     style="fill:#ffffff;fill-opacity:1;fill-rule:nonzero;stroke:none"
     d="m 16.52086,98.971814 c -0.582,-0.843 -1.744,-1.052 -2.588,-0.467 -0.844,0.588 -1.046,1.748996 -0.464,2.587996 0.584,0.844 1.746,1.057 2.59,0.469 0.838,-0.59 1.052,-1.744996 0.462,-2.589996"
     id="path706" />
  <path
     style="fill:none;stroke:#231f20;stroke-width:1.33171;stroke-linecap:butt;stroke-linejoin:miter;stroke-miterlimit:4;stroke-dasharray:none;stroke-opacity:1"
     d="m 16.52086,98.971814 c -0.582,-0.843 -1.744,-1.052 -2.588,-0.467 -0.844,0.588 -1.046,1.748996 -0.464,2.587996 0.584,0.844 1.746,1.057 2.59,0.469 0.838,-0.59 1.052,-1.744996 0.462,-2.589996 z"
     id="path707" />
  <path
     style="fill:none;stroke:#231f20;stroke-width:1.33171;stroke-linecap:butt;stroke-linejoin:bevel;stroke-miterlimit:4;stroke-dasharray:none;stroke-opacity:1"
     d="m 31.64086,85.222814 2.699,-2.428 v -24.4 l 1.749,-1.48"
     id="path708" />
  <path
     style="fill:none;stroke:#231f20;stroke-width:1.33171;stroke-linecap:butt;stroke-linejoin:bevel;stroke-miterlimit:4;stroke-dasharray:none;stroke-opacity:1"
     d="m 31.64086,29.248814 2.699,2.428 v 24.4 l 1.749,1.48"
     id="path709" />
  <path
     style="fill:#231f20;fill-opacity:1;fill-rule:nonzero;stroke:none"
     d="m 230.06686,38.602814 c -0.806,1.088 -1.76,0.823 -2.342,-0.03 -0.178,-0.256 -0.59,-0.298 -0.74,-0.558 -0.344,-0.614 0.177,-2.276 1.672,-2.198 0.104,0.01 0.901,-0.192 1.521,-0.25 1.203,-0.114 3.676,0.244 5.271,2.422 0.754,1.026 0.009,1.281 -0.423,0.964 -1.369,-1.032 -1.692,-0.86 -2.151,-0.99 -1.552,-0.48 -2.808,0.64 -2.808,0.64"
     id="path710" />
  <path
     style="fill:none;stroke:#231f20;stroke-width:0.332927;stroke-linecap:butt;stroke-linejoin:miter;stroke-miterlimit:4;stroke-dasharray:none;stroke-opacity:1"
     d="m 230.06686,38.602814 c -0.806,1.088 -1.76,0.823 -2.342,-0.03 -0.178,-0.256 -0.59,-0.298 -0.74,-0.558 -0.344,-0.614 0.177,-2.276 1.672,-2.198 0.104,0.01 0.901,-0.192 1.521,-0.25 1.203,-0.114 3.676,0.244 5.271,2.422 0.754,1.026 0.009,1.281 -0.423,0.964 -1.369,-1.032 -1.692,-0.86 -2.151,-0.99 -1.552,-0.48 -2.808,0.64 -2.808,0.64 z"
     id="path711" />
  <path
     style="fill:#231f20;fill-opacity:1;fill-rule:nonzero;stroke:none"
     d="m 211.36486,37.274814 c -0.26,2.25 -0.011,2.724 0.937,2.896 0.625,0.12 1.167,0.438 1.547,0.526 1.266,0.292 3.51,0.266 9.86,-1.474 1.437,-0.396 3.458,-0.937 4.312,-1.089 1.328,-0.249 0.021,-2.296 -0.506,-2.203 -1.686,0.287 -2.869,0.355 -3.5,0.37 -0.421,0.016 -1.176,0.146 -2.833,-0.01 -2.52,-0.24 -3.989,-0.761 -6.104,-0.709 -0.979,0.016 -1.729,-0.588 -2.687,-0.077 -0.953,0.51 -1.026,1.77 -1.026,1.77"
     id="path712" />
  <path
     style="fill:none;stroke:#231f20;stroke-width:0.565977;stroke-linecap:butt;stroke-linejoin:miter;stroke-miterlimit:4;stroke-dasharray:none;stroke-opacity:1"
     d="m 211.36486,37.274814 c -0.26,2.25 -0.011,2.724 0.937,2.896 0.625,0.12 1.167,0.438 1.547,0.526 1.266,0.292 3.51,0.266 9.86,-1.474 1.437,-0.396 3.458,-0.937 4.312,-1.089 1.328,-0.249 0.021,-2.296 -0.506,-2.203 -1.686,0.287 -2.869,0.355 -3.5,0.37 -0.421,0.016 -1.176,0.146 -2.833,-0.01 -2.52,-0.24 -3.989,-0.761 -6.104,-0.709 -0.979,0.016 -1.729,-0.588 -2.687,-0.077 -0.953,0.51 -1.026,1.77 -1.026,1.77 z"
     id="path713" />
  <path
     style="fill:#0098c9;fill-opacity:1;fill-rule:nonzero;stroke:none"
     d="m 186.68186,43.081814 c 2.954,-1.067 3.699,-0.973 4.62,-0.921 5.771,0.322 5.823,-2.516 4.366,-5.006 -1.71,-2.926 -2.262,-4.01 -7.954,-1.317 -1.584,0.755 -8.026,2.833 -8.026,2.833 -2.411,0.438 -4.526,2.146 -4.886,3.558 -0.374,1.484 -0.114,0.926 -0.218,2.364 -0.094,1.374 0.885,3.333 2.089,3.62 1.151,0.286 2.317,-0.902 4.228,-2.396 1.505,-1.172 5.781,-2.735 5.781,-2.735"
     id="path714" />
  <path
     style="fill:none;stroke:#231f20;stroke-width:0.565977;stroke-linecap:butt;stroke-linejoin:miter;stroke-miterlimit:4;stroke-dasharray:none;stroke-opacity:1"
     d="m 186.68186,43.081814 c 2.954,-1.067 3.699,-0.973 4.62,-0.921 5.771,0.322 5.823,-2.516 4.366,-5.006 -1.71,-2.926 -2.262,-4.01 -7.954,-1.317 -1.584,0.755 -8.026,2.833 -8.026,2.833 -2.411,0.438 -4.526,2.146 -4.886,3.558 -0.374,1.484 -0.114,0.926 -0.218,2.364 -0.094,1.374 0.885,3.333 2.089,3.62 1.151,0.286 2.317,-0.902 4.228,-2.396 1.505,-1.172 5.781,-2.735 5.781,-2.735 z"
     id="path715" />
  <path
     style="fill:#0098c9;fill-opacity:1;fill-rule:nonzero;stroke:none"
     d="m 308.19286,94.316814 c 1.032,2.963 0.932,3.708 0.865,4.63 -0.391,5.765996 2.448,5.847996 4.952,4.420996 2.948,-1.672 4.037,-2.213 1.417,-7.936996 -0.74,-1.582 -2.745,-8.057 -2.745,-8.057 -0.405,-2.416 -2.088,-4.552 -3.5,-4.927 -1.479,-0.391 -0.921,-0.125 -2.359,-0.245 -1.374,-0.109 -3.344,0.849 -3.65,2.041 -0.292,1.152 0.88,2.334 2.348,4.256 1.161,1.526 2.672,5.818 2.672,5.818"
     id="path716" />
  <path
     style="fill:none;stroke:#231f20;stroke-width:0.565977;stroke-linecap:butt;stroke-linejoin:miter;stroke-miterlimit:4;stroke-dasharray:none;stroke-opacity:1"
     d="m 308.19286,94.316814 c 1.032,2.963 0.932,3.708 0.865,4.63 -0.391,5.765996 2.448,5.847996 4.952,4.420996 2.948,-1.672 4.037,-2.213 1.417,-7.936996 -0.74,-1.582 -2.745,-8.057 -2.745,-8.057 -0.405,-2.416 -2.088,-4.552 -3.5,-4.927 -1.479,-0.391 -0.921,-0.125 -2.359,-0.245 -1.374,-0.109 -3.344,0.849 -3.65,2.041 -0.292,1.152 0.88,2.334 2.348,4.256 1.161,1.526 2.672,5.818 2.672,5.818 z"
     id="path717" />
  <path
     style="fill:#ffffff;fill-opacity:1;fill-rule:nonzero;stroke:none"
     d="m 168.48986,43.826814 c -0.245,0.026 -0.656,-1.046 -1.156,-0.896 -0.505,0.151 -0.474,0.938 -1.953,2.271 l -0.016,0.016 c -1.109,0.937 -1.697,2.197 -1.432,3.421 0.432,2.032 3.025,3.199 5.787,2.604 2.76,-0.588 4.645,-2.718 4.208,-4.749 -0.412,-1.943 -2.812,-3.093 -5.438,-2.667"
     id="path718" />
  <path
     style="fill:none;stroke:#231f20;stroke-width:0.565977;stroke-linecap:butt;stroke-linejoin:miter;stroke-miterlimit:4;stroke-dasharray:none;stroke-opacity:1"
     d="m 168.48986,43.826814 c -0.245,0.026 -0.656,-1.046 -1.156,-0.896 -0.505,0.151 -0.474,0.938 -1.953,2.271 l -0.016,0.016 c -1.109,0.937 -1.697,2.197 -1.432,3.421 0.432,2.032 3.025,3.199 5.787,2.604 2.76,-0.588 4.645,-2.718 4.208,-4.749 -0.412,-1.943 -2.812,-3.093 -5.438,-2.667 z"
     id="path719" />
  <path
     style="fill:#231f20;fill-opacity:1;fill-rule:nonzero;stroke:none"
     d="m 213.68686,38.108814 c 0.798,-3.927 -3.14,-2.86 -3.609,-2.959 -4.911,-1.016 -5.287,-0.964 -9.072,-1.479 -5.48,-0.734 -9.349,-0.401 -10.709,2.656 -0.921,2.074 -0.552,3.678 0.365,4.615 1.02,1.041 4.042,2.031 6.271,0.192 l 1.697,-0.233 c 1.162,-0.006 1.74,-0.016 2.314,0.02 1,0.073 2.072,0.089 4.03,0.12 3.475,0.052 7.161,-1.026 7.161,-1.026 1.246,-0.01 1.552,-1.906 1.552,-1.906"
     id="path720" />
  <path
     style="fill:none;stroke:#231f20;stroke-width:0.565977;stroke-linecap:butt;stroke-linejoin:miter;stroke-miterlimit:4;stroke-dasharray:none;stroke-opacity:1"
     d="m 213.68686,38.108814 c 0.798,-3.927 -3.14,-2.86 -3.609,-2.959 -4.911,-1.016 -5.287,-0.964 -9.072,-1.479 -5.48,-0.734 -9.349,-0.401 -10.709,2.656 -0.921,2.074 -0.552,3.678 0.365,4.615 1.02,1.041 4.042,2.031 6.271,0.192 l 1.697,-0.233 c 1.162,-0.006 1.74,-0.016 2.314,0.02 1,0.073 2.072,0.089 4.03,0.12 3.475,0.052 7.161,-1.026 7.161,-1.026 1.246,-0.01 1.552,-1.906 1.552,-1.906 z"
     id="path721" />
  <path
     style="fill:#0098c9;fill-opacity:1;fill-rule:nonzero;stroke:#231f20;stroke-width:0.565977;stroke-linecap:butt;stroke-linejoin:miter;stroke-miterlimit:4;stroke-dasharray:none;stroke-opacity:1"
     d="m 196.84886,32.733814 c -0.656,0.083 -1.255,0.192 -1.828,0.317 -0.077,-0.01 -0.156,-0.021 -0.224,-0.036 -0.781,-0.209 -1.291,0.162 -2.099,0.802 -1.406,0.672 -2.358,1.65 -2.724,3.078 -0.562,2.203 0.063,3.714 1.131,4.49 1.177,0.858 4.328,1.338 6.213,-0.85 z"
     id="path722" />
  <path
     style="fill:#231f20;fill-opacity:1;fill-rule:nonzero;stroke:none"
     d="m 159.25586,54.217814 c 0.286,-0.573 2.088,-1.317 3.224,-2.459 0.765,-0.765 3.333,-1.749 4.036,-2.573 0.652,-0.749 1.021,-1.036 2.005,-0.443 0.584,0.35 1.485,1.407 1.245,1.855 -0.568,1.047 -1.308,1.641 -2.26,2.12 -1.089,0.541 -4.166,1.76 -4.756,1.937 -1.462,0.418 -1.89,1.016 -2.265,1.167 -0.708,0.281 -0.989,0.079 -1.271,-0.339 -0.532,-0.797 0.042,-1.265 0.042,-1.265"
     id="path723" />
  <path
     style="fill:none;stroke:#231f20;stroke-width:0.565977;stroke-linecap:butt;stroke-linejoin:miter;stroke-miterlimit:4;stroke-dasharray:none;stroke-opacity:1"
     d="m 159.25586,54.217814 c 0.286,-0.573 2.088,-1.317 3.224,-2.459 0.765,-0.765 3.333,-1.749 4.036,-2.573 0.652,-0.749 1.021,-1.036 2.005,-0.443 0.584,0.35 1.485,1.407 1.245,1.855 -0.568,1.047 -1.308,1.641 -2.26,2.12 -1.089,0.541 -4.166,1.76 -4.756,1.937 -1.462,0.418 -1.89,1.016 -2.265,1.167 -0.708,0.281 -0.989,0.079 -1.271,-0.339 -0.532,-0.797 0.042,-1.265 0.042,-1.265 z"
     id="path724" />
  <path
     style="fill:#231f20;fill-opacity:1;fill-rule:nonzero;stroke:none"
     d="m 167.05286,49.597814 c -0.537,-1.177 1.443,-1.667 1.937,-1.875 0.506,-0.208 1.864,-0.964 2.85,-1.688 0.989,-0.724 2.525,-1.208 4.405,-2.582 0.985,-0.724 2.401,-0.808 3.385,0.672 0.98,1.457 0.527,2.557 -0.796,3.254 -1.322,0.694 -2.865,0.782 -4.25,1.391 -1.386,0.609 -2.739,1.355 -3.776,1.989 -1.172,0.73 -2.026,0.647 -2.416,0.37 -0.975,-0.687 -1.339,-1.531 -1.339,-1.531"
     id="path725" />
  <path
     style="fill:none;stroke:#231f20;stroke-width:0.565977;stroke-linecap:butt;stroke-linejoin:miter;stroke-miterlimit:4;stroke-dasharray:none;stroke-opacity:1"
     d="m 167.05286,49.597814 c -0.537,-1.177 1.443,-1.667 1.937,-1.875 0.506,-0.208 1.864,-0.964 2.85,-1.688 0.989,-0.724 2.525,-1.208 4.405,-2.582 0.985,-0.724 2.401,-0.808 3.385,0.672 0.98,1.457 0.527,2.557 -0.796,3.254 -1.322,0.694 -2.865,0.782 -4.25,1.391 -1.386,0.609 -2.739,1.355 -3.776,1.989 -1.172,0.73 -2.026,0.647 -2.416,0.37 -0.975,-0.687 -1.339,-1.531 -1.339,-1.531 z"
     id="path726" />
  <path
     style="fill:#ffffff;fill-opacity:1;fill-rule:nonzero;stroke:none"
     d="m 158.24986,54.072814 c 1.011,-0.183 1.975,0.489 2.156,1.5 0.183,1.009 -0.489,1.978 -1.5,2.161 -1.009,0.181 -1.978,-0.491 -2.161,-1.505 -0.177,-1.011 0.495,-1.975 1.505,-2.156"
     id="path727" />
  <path
     style="fill:none;stroke:#231f20;stroke-width:1.33171;stroke-linecap:butt;stroke-linejoin:miter;stroke-miterlimit:4;stroke-dasharray:none;stroke-opacity:1"
     d="m 158.24986,54.072814 c 1.011,-0.183 1.975,0.489 2.156,1.5 0.183,1.009 -0.489,1.978 -1.5,2.161 -1.009,0.181 -1.978,-0.491 -2.161,-1.505 -0.177,-1.011 0.495,-1.975 1.505,-2.156 z"
     id="path728" />
  <path
     style="fill:#231f20;fill-opacity:1;fill-rule:nonzero;stroke:none"
     d="m 153.20386,45.238814 c 0.193,1.338 -0.678,1.812 -1.692,1.614 -0.308,-0.058 -0.626,0.204 -0.918,0.12 -0.677,-0.192 -1.469,-1.744 -0.344,-2.739 0.079,-0.068 0.506,-0.772 0.907,-1.24 0.781,-0.932 2.792,-2.407 5.459,-1.969 1.254,0.204 0.9,0.912 0.369,0.98 -1.697,0.229 -1.803,0.577 -2.229,0.801 -1.438,0.745 -1.552,2.433 -1.552,2.433"
     id="path729" />
  <path
     style="fill:none;stroke:#231f20;stroke-width:0.332927;stroke-linecap:butt;stroke-linejoin:miter;stroke-miterlimit:4;stroke-dasharray:none;stroke-opacity:1"
     d="m 153.20386,45.238814 c 0.193,1.338 -0.678,1.812 -1.692,1.614 -0.308,-0.058 -0.626,0.204 -0.918,0.12 -0.677,-0.192 -1.469,-1.744 -0.344,-2.739 0.079,-0.068 0.506,-0.772 0.907,-1.24 0.781,-0.932 2.792,-2.407 5.459,-1.969 1.254,0.204 0.9,0.912 0.369,0.98 -1.697,0.229 -1.803,0.577 -2.229,0.801 -1.438,0.745 -1.552,2.433 -1.552,2.433 z"
     id="path730" />
  <path
     style="fill:#231f20;fill-opacity:1;fill-rule:nonzero;stroke:none"
     d="m 138.92786,57.389814 c 1.396,1.792 1.906,1.953 2.697,1.411 0.532,-0.359 1.147,-0.504 1.475,-0.708 1.109,-0.678 2.692,-2.276 6.005,-7.959 0.749,-1.291 1.812,-3.093 2.312,-3.801 0.776,-1.11 -1.593,-1.651 -1.905,-1.214 -1,1.386 -1.803,2.255 -2.235,2.714 -0.292,0.306 -0.735,0.926 -2.032,1.978 -1.963,1.59 -3.375,2.251 -4.848,3.766 -0.693,0.698 -1.652,0.792 -1.969,1.829 -0.334,1.036 0.5,1.984 0.5,1.984"
     id="path731" />
  <path
     style="fill:none;stroke:#231f20;stroke-width:0.565977;stroke-linecap:butt;stroke-linejoin:miter;stroke-miterlimit:4;stroke-dasharray:none;stroke-opacity:1"
     d="m 138.92786,57.389814 c 1.396,1.792 1.906,1.953 2.697,1.411 0.532,-0.359 1.147,-0.504 1.475,-0.708 1.109,-0.678 2.692,-2.276 6.005,-7.959 0.749,-1.291 1.812,-3.093 2.312,-3.801 0.776,-1.11 -1.593,-1.651 -1.905,-1.214 -1,1.386 -1.803,2.255 -2.235,2.714 -0.292,0.306 -0.735,0.926 -2.032,1.978 -1.963,1.59 -3.375,2.251 -4.848,3.766 -0.693,0.698 -1.652,0.792 -1.969,1.829 -0.334,1.036 0.5,1.984 0.5,1.984 z"
     id="path732" />
  <path
     style="fill:#0098c9;fill-opacity:1;fill-rule:nonzero;stroke:none"
     d="m 118.00086,72.540814 c 3.124,0.25 3.765,0.641 4.583,1.073 5.12,2.683 6.338,0.12 6.046,-2.751 -0.342,-3.369 -0.4,-4.588 -6.697,-4.489 -1.751,0.027 -8.479,-0.744 -8.479,-0.744 -2.37,-0.605 -5.005,0.077 -5.917,1.213 -0.959,1.198 -0.489,0.791 -1.177,2.063 -0.656,1.213 -0.572,3.395 0.396,4.161 0.932,0.734 2.484,0.135 4.844,-0.433 1.858,-0.448 6.401,-0.093 6.401,-0.093"
     id="path733" />
  <path
     style="fill:none;stroke:#231f20;stroke-width:0.565977;stroke-linecap:butt;stroke-linejoin:miter;stroke-miterlimit:4;stroke-dasharray:none;stroke-opacity:1"
     d="m 118.00086,72.540814 c 3.124,0.25 3.765,0.641 4.583,1.073 5.12,2.683 6.338,0.12 6.046,-2.751 -0.342,-3.369 -0.4,-4.588 -6.697,-4.489 -1.751,0.027 -8.479,-0.744 -8.479,-0.744 -2.37,-0.605 -5.005,0.077 -5.917,1.213 -0.959,1.198 -0.489,0.791 -1.177,2.063 -0.656,1.213 -0.572,3.395 0.396,4.161 0.932,0.734 2.484,0.135 4.844,-0.433 1.858,-0.448 6.401,-0.093 6.401,-0.093 z"
     id="path734" />
  <path
     style="fill:#ffffff;fill-opacity:1;fill-rule:nonzero;stroke:none"
     d="m 101.12486,65.685814 c -0.228,-0.077 -0.161,-1.224 -0.681,-1.296 -0.522,-0.073 -0.819,0.656 -2.714,1.26 l -0.021,0.005 c -1.401,0.396 -2.459,1.298 -2.724,2.522 -0.448,2.03 1.432,4.166 4.188,4.77 2.76,0.604 5.353,-0.552 5.796,-2.584 0.432,-1.937 -1.271,-3.984 -3.844,-4.677"
     id="path735" />
  <path
     style="fill:none;stroke:#231f20;stroke-width:0.565977;stroke-linecap:butt;stroke-linejoin:miter;stroke-miterlimit:4;stroke-dasharray:none;stroke-opacity:1"
     d="m 101.12486,65.685814 c -0.228,-0.077 -0.161,-1.224 -0.681,-1.296 -0.522,-0.073 -0.819,0.656 -2.714,1.26 l -0.021,0.005 c -1.401,0.396 -2.459,1.298 -2.724,2.522 -0.448,2.03 1.432,4.166 4.188,4.77 2.76,0.604 5.353,-0.552 5.796,-2.584 0.432,-1.937 -1.271,-3.984 -3.844,-4.677 z"
     id="path736" />
  <path
     style="fill:#231f20;fill-opacity:1;fill-rule:nonzero;stroke:none"
     d="m 141.17286,56.357814 c -2.183,-3.359 -4.245,0.161 -4.647,0.417 -4.218,2.714 -4.448,3.016 -7.51,5.302 -4.427,3.308 -6.952,6.256 -5.782,9.39 0.792,2.131 2.172,3.016 3.496,3.043 1.452,0.025 4.307,-1.381 4.604,-4.256 l 1.047,-1.353 c 0.828,-0.824 1.229,-1.235 1.661,-1.61 0.771,-0.646 1.547,-1.39 2.964,-2.74 2.515,-2.396 4.391,-5.75 4.391,-5.75 0.885,-0.875 -0.224,-2.443 -0.224,-2.443"
     id="path737" />
  <path
     style="fill:none;stroke:#231f20;stroke-width:0.565977;stroke-linecap:butt;stroke-linejoin:miter;stroke-miterlimit:4;stroke-dasharray:none;stroke-opacity:1"
     d="m 141.17286,56.357814 c -2.183,-3.359 -4.245,0.161 -4.647,0.417 -4.218,2.714 -4.448,3.016 -7.51,5.302 -4.427,3.308 -6.952,6.256 -5.782,9.39 0.792,2.131 2.172,3.016 3.496,3.043 1.452,0.025 4.307,-1.381 4.604,-4.256 l 1.047,-1.353 c 0.828,-0.824 1.229,-1.235 1.661,-1.61 0.771,-0.646 1.547,-1.39 2.964,-2.74 2.515,-2.396 4.391,-5.75 4.391,-5.75 0.885,-0.875 -0.224,-2.443 -0.224,-2.443 z"
     id="path738" />
  <path
     style="fill:#0098c9;fill-opacity:1;fill-rule:nonzero;stroke:#231f20;stroke-width:0.565977;stroke-linecap:butt;stroke-linejoin:miter;stroke-miterlimit:4;stroke-dasharray:none;stroke-opacity:1"
     d="m 125.39186,64.316814 c -0.412,0.516 -0.762,1.016 -1.084,1.505 -0.063,0.047 -0.126,0.099 -0.187,0.136 -0.704,0.395 -0.808,1.02 -0.939,2.057 -0.525,1.458 -0.514,2.818 0.219,4.094 1.141,1.958 2.647,2.598 3.953,2.406 1.438,-0.214 4.022,-2.078 3.834,-4.958 z"
     id="path739" />
  <path
     style="fill:#231f20;fill-opacity:1;fill-rule:nonzero;stroke:none"
     d="m 124.65686,56.566814 c -0.104,0.635 -1.604,1.87 -2.36,3.296 -0.509,0.954 -2.676,2.647 -3.109,3.636 -0.4,0.911 -0.672,1.292 -1.791,1.011 -0.657,-0.161 -1.829,-0.912 -1.729,-1.412 0.233,-1.167 0.77,-1.948 1.541,-2.683 0.88,-0.838 3.468,-2.905 3.979,-3.238 1.281,-0.834 1.516,-1.532 1.833,-1.782 0.589,-0.48 0.923,-0.365 1.313,-0.046 0.739,0.604 0.323,1.218 0.323,1.218"
     id="path740" />
  <path
     style="fill:none;stroke:#231f20;stroke-width:0.565977;stroke-linecap:butt;stroke-linejoin:miter;stroke-miterlimit:4;stroke-dasharray:none;stroke-opacity:1"
     d="m 124.65686,56.566814 c -0.104,0.635 -1.604,1.87 -2.36,3.296 -0.509,0.954 -2.676,2.647 -3.109,3.636 -0.4,0.911 -0.672,1.292 -1.791,1.011 -0.657,-0.161 -1.829,-0.912 -1.729,-1.412 0.233,-1.167 0.77,-1.948 1.541,-2.683 0.88,-0.838 3.468,-2.905 3.979,-3.238 1.281,-0.834 1.516,-1.532 1.833,-1.782 0.589,-0.48 0.923,-0.365 1.313,-0.046 0.739,0.604 0.323,1.218 0.323,1.218 z"
     id="path741" />
  <path
     style="fill:#231f20;fill-opacity:1;fill-rule:nonzero;stroke:none"
     d="m 118.55786,63.258814 c 0.854,0.975 -0.896,2.016 -1.308,2.36 -0.426,0.348 -1.505,1.468 -2.234,2.448 -0.734,0.984 -2.067,1.896 -3.458,3.76 -0.734,0.979 -2.068,1.47 -3.437,0.344 -1.365,-1.109 -1.251,-2.292 -0.183,-3.338 1.063,-1.058 2.506,-1.594 3.651,-2.579 1.151,-0.984 2.224,-2.093 3.032,-3.005 0.911,-1.036 1.749,-1.208 2.203,-1.058 1.134,0.376 1.734,1.068 1.734,1.068"
     id="path742" />
  <path
     style="fill:none;stroke:#231f20;stroke-width:0.565977;stroke-linecap:butt;stroke-linejoin:miter;stroke-miterlimit:4;stroke-dasharray:none;stroke-opacity:1"
     d="m 118.55786,63.258814 c 0.854,0.975 -0.896,2.016 -1.308,2.36 -0.426,0.348 -1.505,1.468 -2.234,2.448 -0.734,0.984 -2.067,1.896 -3.458,3.76 -0.734,0.979 -2.068,1.47 -3.437,0.344 -1.365,-1.109 -1.251,-2.292 -0.183,-3.338 1.063,-1.058 2.506,-1.594 3.651,-2.579 1.151,-0.984 2.224,-2.093 3.032,-3.005 0.911,-1.036 1.749,-1.208 2.203,-1.058 1.134,0.376 1.734,1.068 1.734,1.068 z"
     id="path743" />
  <path
     style="fill:#ffffff;fill-opacity:1;fill-rule:nonzero;stroke:none"
     d="m 126.39686,55.972814 c -0.62,0.822 -1.787,0.985 -2.605,0.37 -0.823,-0.614 -0.99,-1.781 -0.37,-2.604 0.615,-0.824 1.782,-0.985 2.604,-0.37 0.819,0.62 0.984,1.781 0.371,2.604"
     id="path744" />
  <path
     style="fill:none;stroke:#231f20;stroke-width:1.33171;stroke-linecap:butt;stroke-linejoin:miter;stroke-miterlimit:4;stroke-dasharray:none;stroke-opacity:1"
     d="m 126.39686,55.972814 c -0.62,0.822 -1.787,0.985 -2.605,0.37 -0.823,-0.614 -0.99,-1.781 -0.37,-2.604 0.615,-0.824 1.782,-0.985 2.604,-0.37 0.819,0.62 0.984,1.781 0.371,2.604 z"
     id="path745" />
  <path
     style="fill:#231f20;fill-opacity:1;fill-rule:nonzero;stroke:none"
     d="m 103.96386,51.102814 c -0.334,1.312 -1.323,1.416 -2.182,0.844 -0.261,-0.166 -0.657,-0.052 -0.89,-0.24 -0.552,-0.437 -0.694,-2.177 0.729,-2.661 0.099,-0.036 0.765,-0.521 1.317,-0.797 1.078,-0.563 3.5,-1.151 5.792,0.276 1.083,0.672 0.484,1.188 -0.032,1.052 -1.656,-0.448 -1.89,-0.162 -2.364,-0.119 -1.62,0.135 -2.37,1.645 -2.37,1.645"
     id="path746" />
  <path
     style="fill:none;stroke:#231f20;stroke-width:0.332927;stroke-linecap:butt;stroke-linejoin:miter;stroke-miterlimit:4;stroke-dasharray:none;stroke-opacity:1"
     d="m 103.96386,51.102814 c -0.334,1.312 -1.323,1.416 -2.182,0.844 -0.261,-0.166 -0.657,-0.052 -0.89,-0.24 -0.552,-0.437 -0.694,-2.177 0.729,-2.661 0.099,-0.036 0.765,-0.521 1.317,-0.797 1.078,-0.563 3.5,-1.151 5.792,0.276 1.083,0.672 0.484,1.188 -0.032,1.052 -1.656,-0.448 -1.89,-0.162 -2.364,-0.119 -1.62,0.135 -2.37,1.645 -2.37,1.645 z"
     id="path747" />
  <path
     style="fill:#231f20;fill-opacity:1;fill-rule:nonzero;stroke:none"
     d="m 86.11586,56.848814 c 0.604,2.186 1.009,2.53 1.952,2.337 0.63,-0.124 1.25,-0.031 1.63,-0.088 1.287,-0.203 3.36,-1.068 8.599,-5.047 1.188,-0.901 2.865,-2.156 3.6,-2.62 1.14,-0.724 -0.839,-2.134 -1.292,-1.854 -1.464,0.901 -2.537,1.396 -3.109,1.646 -0.386,0.178 -1.038,0.572 -2.636,1.047 -2.422,0.719 -3.979,0.787 -5.927,1.62 -0.901,0.38 -1.823,0.099 -2.516,0.932 -0.703,0.828 -0.301,2.027 -0.301,2.027"
     id="path748" />
  <path
     style="fill:none;stroke:#231f20;stroke-width:0.565977;stroke-linecap:butt;stroke-linejoin:miter;stroke-miterlimit:4;stroke-dasharray:none;stroke-opacity:1"
     d="m 86.11586,56.848814 c 0.604,2.186 1.009,2.53 1.952,2.337 0.63,-0.124 1.25,-0.031 1.63,-0.088 1.287,-0.203 3.36,-1.068 8.599,-5.047 1.188,-0.901 2.865,-2.156 3.6,-2.62 1.14,-0.724 -0.839,-2.134 -1.292,-1.854 -1.464,0.901 -2.537,1.396 -3.109,1.646 -0.386,0.178 -1.038,0.572 -2.636,1.047 -2.422,0.719 -3.979,0.787 -5.927,1.62 -0.901,0.38 -1.823,0.099 -2.516,0.932 -0.703,0.828 -0.301,2.027 -0.301,2.027 z"
     id="path749" />
  <path
     style="fill:#0098c9;fill-opacity:1;fill-rule:nonzero;stroke:none"
     d="m 60.97486,62.800814 c 2.792,1.428 3.234,2.042 3.822,2.75 3.694,4.443 5.808,2.547 6.636,-0.213 0.979,-3.245 1.391,-4.396 -4.458,-6.724 -1.626,-0.641 -7.542,-3.937 -7.542,-3.937 -1.964,-1.47 -4.656,-1.85 -5.932,-1.152 -1.344,0.74 -0.756,0.542 -1.876,1.453 -1.072,0.865 -1.837,2.912 -1.233,3.995 0.577,1.037 2.244,1.084 4.635,1.458 1.89,0.303 5.948,2.37 5.948,2.37"
     id="path750" />
  <path
     style="fill:none;stroke:#231f20;stroke-width:0.565977;stroke-linecap:butt;stroke-linejoin:miter;stroke-miterlimit:4;stroke-dasharray:none;stroke-opacity:1"
     d="m 60.97486,62.800814 c 2.792,1.428 3.234,2.042 3.822,2.75 3.694,4.443 5.808,2.547 6.636,-0.213 0.979,-3.245 1.391,-4.396 -4.458,-6.724 -1.626,-0.641 -7.542,-3.937 -7.542,-3.937 -1.964,-1.47 -4.656,-1.85 -5.932,-1.152 -1.344,0.74 -0.756,0.542 -1.876,1.453 -1.072,0.865 -1.837,2.912 -1.233,3.995 0.577,1.037 2.244,1.084 4.635,1.458 1.89,0.303 5.948,2.37 5.948,2.37 z"
     id="path751" />
  <path
     style="fill:#ffffff;fill-opacity:1;fill-rule:nonzero;stroke:none"
     d="m 48.02686,49.993814 c -0.187,-0.161 0.317,-1.193 -0.13,-1.459 -0.458,-0.265 -1.01,0.292 -2.996,0.12 h -0.02 c -1.442,-0.172 -2.765,0.255 -3.484,1.287 -1.188,1.697 -0.276,4.391 2.042,6.005 2.317,1.62 5.156,1.547 6.344,-0.156 1.14,-1.625 0.348,-4.166 -1.756,-5.797"
     id="path752" />
  <path
     style="fill:none;stroke:#231f20;stroke-width:0.565977;stroke-linecap:butt;stroke-linejoin:miter;stroke-miterlimit:4;stroke-dasharray:none;stroke-opacity:1"
     d="m 48.02686,49.993814 c -0.187,-0.161 0.317,-1.193 -0.13,-1.459 -0.458,-0.265 -1.01,0.292 -2.996,0.12 h -0.02 c -1.442,-0.172 -2.765,0.255 -3.484,1.287 -1.188,1.697 -0.276,4.391 2.042,6.005 2.317,1.62 5.156,1.547 6.344,-0.156 1.14,-1.625 0.348,-4.166 -1.756,-5.797 z"
     id="path753" />
  <path
     style="fill:#231f20;fill-opacity:1;fill-rule:nonzero;stroke:none"
     d="m 88.58886,56.758814 c -0.729,-3.948 -3.984,-1.484 -4.453,-1.401 -4.938,0.885 -5.266,1.073 -8.968,2.011 -5.365,1.354 -8.828,3.109 -8.948,6.453 -0.084,2.271 0.853,3.615 2.057,4.151 1.339,0.578 4.511,0.376 5.891,-2.162 l 1.489,-0.848 c 1.077,-0.444 1.604,-0.672 2.151,-0.844 0.958,-0.308 1.958,-0.693 3.786,-1.396 3.24,-1.245 6.26,-3.62 6.26,-3.62 1.156,-0.473 0.735,-2.344 0.735,-2.344"
     id="path754" />
  <path
     style="fill:none;stroke:#231f20;stroke-width:0.565977;stroke-linecap:butt;stroke-linejoin:miter;stroke-miterlimit:4;stroke-dasharray:none;stroke-opacity:1"
     d="m 88.58886,56.758814 c -0.729,-3.948 -3.984,-1.484 -4.453,-1.401 -4.938,0.885 -5.266,1.073 -8.968,2.011 -5.365,1.354 -8.828,3.109 -8.948,6.453 -0.084,2.271 0.853,3.615 2.057,4.151 1.339,0.578 4.511,0.376 5.891,-2.162 l 1.489,-0.848 c 1.077,-0.444 1.604,-0.672 2.151,-0.844 0.958,-0.308 1.958,-0.693 3.786,-1.396 3.24,-1.245 6.26,-3.62 6.26,-3.62 1.156,-0.473 0.735,-2.344 0.735,-2.344 z"
     id="path755" />
  <path
     style="fill:#0098c9;fill-opacity:1;fill-rule:nonzero;stroke:#231f20;stroke-width:0.565977;stroke-linecap:butt;stroke-linejoin:miter;stroke-miterlimit:4;stroke-dasharray:none;stroke-opacity:1"
     d="m 70.95786,58.045814 c -0.577,0.317 -1.093,0.645 -1.577,0.973 -0.078,0.022 -0.156,0.043 -0.224,0.054 -0.802,0.098 -1.141,0.629 -1.656,1.536 -1.046,1.145 -1.562,2.406 -1.37,3.869 0.302,2.245 1.442,3.417 2.724,3.74 1.412,0.355 4.51,-0.375 5.447,-3.109 z"
     id="path756" />
  <path
     style="fill:#231f20;fill-opacity:1;fill-rule:nonzero;stroke:none"
     d="m 74.19286,55.160814 c -0.463,0.453 -2.405,0.557 -3.858,1.26 -0.975,0.469 -3.719,0.546 -4.662,1.089 -0.854,0.495 -1.302,0.64 -2.037,-0.245 -0.432,-0.526 -0.932,-1.818 -0.557,-2.162 0.88,-0.802 1.77,-1.12 2.833,-1.25 1.209,-0.156 4.516,-0.286 5.125,-0.255 1.521,0.088 2.125,-0.339 2.531,-0.349 0.761,-0.031 0.958,0.25 1.084,0.74 0.24,0.926 -0.459,1.172 -0.459,1.172"
     id="path757" />
  <path
     style="fill:none;stroke:#231f20;stroke-width:0.565977;stroke-linecap:butt;stroke-linejoin:miter;stroke-miterlimit:4;stroke-dasharray:none;stroke-opacity:1"
     d="m 74.19286,55.160814 c -0.463,0.453 -2.405,0.557 -3.858,1.26 -0.975,0.469 -3.719,0.546 -4.662,1.089 -0.854,0.495 -1.302,0.64 -2.037,-0.245 -0.432,-0.526 -0.932,-1.818 -0.557,-2.162 0.88,-0.802 1.77,-1.12 2.833,-1.25 1.209,-0.156 4.516,-0.286 5.125,-0.255 1.521,0.088 2.125,-0.339 2.531,-0.349 0.761,-0.031 0.958,0.25 1.084,0.74 0.24,0.926 -0.459,1.172 -0.459,1.172 z"
     id="path758" />
  <path
     style="fill:#231f20;fill-opacity:1;fill-rule:nonzero;stroke:none"
     d="m 65.30786,56.941814 c 0.115,1.292 -1.911,1.093 -2.453,1.131 -0.542,0.025 -2.078,0.285 -3.244,0.645 -1.172,0.359 -2.787,0.307 -5.011,0.979 -1.172,0.36 -2.536,-0.036 -2.979,-1.755 -0.433,-1.699 0.354,-2.584 1.834,-2.803 1.484,-0.218 2.962,0.204 4.473,0.09 1.505,-0.115 3.031,-0.371 4.219,-0.631 1.349,-0.292 2.13,0.068 2.401,0.459 0.692,0.973 0.76,1.885 0.76,1.885"
     id="path759" />
  <path
     style="fill:none;stroke:#231f20;stroke-width:0.565977;stroke-linecap:butt;stroke-linejoin:miter;stroke-miterlimit:4;stroke-dasharray:none;stroke-opacity:1"
     d="m 65.30786,56.941814 c 0.115,1.292 -1.911,1.093 -2.453,1.131 -0.542,0.025 -2.078,0.285 -3.244,0.645 -1.172,0.359 -2.787,0.307 -5.011,0.979 -1.172,0.36 -2.536,-0.036 -2.979,-1.755 -0.433,-1.699 0.354,-2.584 1.834,-2.803 1.484,-0.218 2.962,0.204 4.473,0.09 1.505,-0.115 3.031,-0.371 4.219,-0.631 1.349,-0.292 2.13,0.068 2.401,0.459 0.692,0.973 0.76,1.885 0.76,1.885 z"
     id="path760" />
  <path
     style="fill:#ffffff;fill-opacity:1;fill-rule:nonzero;stroke:none"
     d="m 77.08886,54.509814 c 0.199,1.005 -0.459,1.979 -1.468,2.176 -1.005,0.199 -1.985,-0.457 -2.183,-1.468 -0.193,-1.005 0.463,-1.984 1.468,-2.183 1.011,-0.197 1.986,0.464 2.183,1.475"
     id="path761" />
  <path
     style="fill:none;stroke:#231f20;stroke-width:1.33171;stroke-linecap:butt;stroke-linejoin:miter;stroke-miterlimit:4;stroke-dasharray:none;stroke-opacity:1"
     d="m 77.08886,54.509814 c 0.199,1.005 -0.459,1.979 -1.468,2.176 -1.005,0.199 -1.985,-0.457 -2.183,-1.468 -0.193,-1.005 0.463,-1.984 1.468,-2.183 1.011,-0.197 1.986,0.464 2.183,1.475 z"
     id="path762" />
  <path
     style="fill:#231f20;fill-opacity:1;fill-rule:nonzero;stroke:none"
     d="m 7.3398598,22.176814 c -2.24,-0.308 -2.719,-0.068 -2.912,0.874 -0.131,0.626 -0.464,1.156 -0.563,1.531 -0.317,1.256 -0.349,3.511 1.246,9.896 0.364,1.443 0.858,3.48 0.994,4.328 0.214,1.344 2.292,0.079 2.214,-0.453 -0.255,-1.692 -0.287,-2.875 -0.298,-3.5 0,-0.432 -0.114,-1.176 0.084,-2.838 0.296,-2.51 0.844,-3.964 0.85,-6.084 0.004,-0.978 0.629,-1.718 0.134,-2.682 -0.484,-0.974 -1.749,-1.072 -1.749,-1.072"
     id="path763" />
  <path
     style="fill:none;stroke:#231f20;stroke-width:0.565977;stroke-linecap:butt;stroke-linejoin:miter;stroke-miterlimit:4;stroke-dasharray:none;stroke-opacity:1"
     d="m 7.3398598,22.176814 c -2.24,-0.308 -2.719,-0.068 -2.912,0.874 -0.131,0.626 -0.464,1.156 -0.563,1.531 -0.317,1.256 -0.349,3.511 1.246,9.896 0.364,1.443 0.858,3.48 0.994,4.328 0.214,1.344 2.292,0.079 2.214,-0.453 -0.255,-1.692 -0.287,-2.875 -0.298,-3.5 0,-0.432 -0.114,-1.176 0.084,-2.838 0.296,-2.51 0.844,-3.964 0.85,-6.084 0.004,-0.978 0.629,-1.718 0.134,-2.682 -0.484,-0.974 -1.749,-1.072 -1.749,-1.072 z"
     id="path764" />
  <path
     style="fill:#231f20;fill-opacity:1;fill-rule:nonzero;stroke:#231f20;stroke-width:0.565977;stroke-linecap:round;stroke-linejoin:round;stroke-miterlimit:4;stroke-dasharray:none;stroke-opacity:1"
     d="m 8.7608598,24.238814 c 1.131,-0.865 0.662,-2.969 0.735,-3.297 1.1290002,-4.885 1.0880002,-5.265 1.6870002,-9.036 0.865,-5.4579999 0.625,-9.3329999 -2.4000002,-10.7719999 -2.058,-0.96199998 -3.662,-0.62899998 -4.626,0.267 -1.068,1 -2.125,3.995 -0.338,6.26 l 0.192,1.703 c -0.015,1.1659999 -0.015,1.7399999 -0.072,2.3129999 -0.094,1 -0.136,2.067 -0.208,4.03 -0.136,3.47 0.858,7.178 0.858,7.178 -0.005,0.317 0.11,0.568 0.282,0.776"
     id="path765" />
  <path
     style="fill:#231f20;fill-opacity:1;fill-rule:nonzero;stroke:none"
     d="m 5.5838598,40.842814 c -1.068,-0.824 -0.781,-1.776 0.089,-2.338 0.26,-0.167 0.307,-0.584 0.572,-0.724 0.62,-0.328 2.271,0.229 2.162,1.718 -0.01,0.11 0.172,0.911 0.214,1.526 0.088,1.209 -0.329,3.672 -2.542,5.218 -1.047,0.73 -1.282,-0.03 -0.948,-0.448 1.057,-1.348 0.885,-1.67 1.037,-2.124 0.515,-1.537 -0.584,-2.828 -0.584,-2.828"
     id="path766" />
  <path
     style="fill:none;stroke:#231f20;stroke-width:0.332927;stroke-linecap:butt;stroke-linejoin:miter;stroke-miterlimit:4;stroke-dasharray:none;stroke-opacity:1"
     d="m 5.5838598,40.842814 c -1.068,-0.824 -0.781,-1.776 0.089,-2.338 0.26,-0.167 0.307,-0.584 0.572,-0.724 0.62,-0.328 2.271,0.229 2.162,1.718 -0.01,0.11 0.172,0.911 0.214,1.526 0.088,1.209 -0.329,3.672 -2.542,5.218 -1.047,0.73 -1.282,-0.03 -0.948,-0.448 1.057,-1.348 0.885,-1.67 1.037,-2.124 0.515,-1.537 -0.584,-2.828 -0.584,-2.828 z"
     id="path767" />
  <path
     style="fill:#0098c9;fill-opacity:1;fill-rule:nonzero;stroke:none"
     d="m 17.91186,4.8168141 c -3.047,-1.74 -3.968,-2.052 -5.011,-2.525 -5.2600002,-2.40199998 -6.1290002,-1.45399998 -7.2180002,0.681 -1.542,3.021 -2.094,4.823 3.766,7.1309999 4.4430002,1.749 7.4950002,3.688 7.4950002,3.688 1.244,1.394 4.511,2.905 5.4,2.723 1.501,-0.308 1.204,-0.292 2.329,-1.198 2.088,-1.677 1.864,-2.859 1.312,-3.911 -0.557,-1.048 -1.322,-1.7499999 -3.568,-3.4379999 -1.744,-1.307 -4.505,-3.151 -4.505,-3.151"
     id="path768" />
  <path
     style="fill:none;stroke:#231f20;stroke-width:0.565977;stroke-linecap:butt;stroke-linejoin:miter;stroke-miterlimit:4;stroke-dasharray:none;stroke-opacity:1"
     d="m 17.91186,4.8168141 c -3.047,-1.74 -3.968,-2.052 -5.011,-2.525 -5.2600002,-2.40199998 -6.1290002,-1.45399998 -7.2180002,0.681 -1.542,3.021 -2.094,4.823 3.766,7.1309999 4.4430002,1.749 7.4950002,3.688 7.4950002,3.688 1.244,1.394 4.511,2.905 5.4,2.723 1.501,-0.308 1.204,-0.292 2.329,-1.198 2.088,-1.677 1.864,-2.859 1.312,-3.911 -0.557,-1.048 -1.322,-1.7499999 -3.568,-3.4379999 -1.744,-1.307 -4.505,-3.151 -4.505,-3.151 z"
     id="path769" />
  <path
     style="fill:#ffffff;fill-opacity:1;fill-rule:nonzero;stroke:none"
     d="m 24.89186,22.072814 c 0.104,0.224 -0.776,0.968 -0.469,1.385 0.312,0.427 1.041,0.14 2.786,1.093 l 0.022,0.011 c 1.249,0.739 2.634,0.88 3.702,0.224 1.776,-1.079 2.022,-3.907 0.552,-6.319 -1.469,-2.416 -4.098,-3.489 -5.874,-2.41 -1.699,1.03 -1.995,3.677 -0.719,6.016"
     id="path770" />
  <path
     style="fill:none;stroke:#231f20;stroke-width:0.565977;stroke-linecap:butt;stroke-linejoin:miter;stroke-miterlimit:4;stroke-dasharray:none;stroke-opacity:1"
     d="m 24.89186,22.072814 c 0.104,0.224 -0.776,0.968 -0.469,1.385 0.312,0.427 1.041,0.14 2.786,1.093 l 0.022,0.011 c 1.249,0.739 2.634,0.88 3.702,0.224 1.776,-1.079 2.022,-3.907 0.552,-6.319 -1.469,-2.416 -4.098,-3.489 -5.874,-2.41 -1.699,1.03 -1.995,3.677 -0.719,6.016 z"
     id="path771" />
  <path
     style="fill:#231f20;fill-opacity:1;fill-rule:nonzero;stroke:none"
     d="m 16.26086,31.149814 c -0.213,-0.609 0.522,-2.411 0.506,-4.021 -0.011,-1.088 1.082,-3.604 0.994,-4.682 -0.084,-0.989 -0.03,-1.453 1.084,-1.74 0.662,-0.172 2.047,-0.077 2.198,0.412 0.349,1.135 0.254,2.078 -0.074,3.094 -0.374,1.161 -1.666,4.208 -1.953,4.75 -0.728,1.338 -0.593,2.062 -0.755,2.438 -0.297,0.702 -0.64,0.76 -1.136,0.666 -0.937,-0.177 -0.864,-0.917 -0.864,-0.917"
     id="path772" />
  <path
     style="fill:none;stroke:#231f20;stroke-width:0.565977;stroke-linecap:butt;stroke-linejoin:miter;stroke-miterlimit:4;stroke-dasharray:none;stroke-opacity:1"
     d="m 16.26086,31.149814 c -0.213,-0.609 0.522,-2.411 0.506,-4.021 -0.011,-1.088 1.082,-3.604 0.994,-4.682 -0.084,-0.989 -0.03,-1.453 1.084,-1.74 0.662,-0.172 2.047,-0.077 2.198,0.412 0.349,1.135 0.254,2.078 -0.074,3.094 -0.374,1.161 -1.666,4.208 -1.953,4.75 -0.728,1.338 -0.593,2.062 -0.755,2.438 -0.297,0.702 -0.64,0.76 -1.136,0.666 -0.937,-0.177 -0.864,-0.917 -0.864,-0.917 z"
     id="path773" />
  <path
     style="fill:#231f20;fill-opacity:1;fill-rule:nonzero;stroke:none"
     d="m 18.42786,22.352814 c -1.219,-0.443 -0.177,-2.192 0.021,-2.698 0.208,-0.505 0.624,-2.005 0.791,-3.213 0.177,-1.213 0.912,-2.65 1.251,-4.953 0.172,-1.208 1.109,-2.2809999 2.853,-1.9479999 1.724,0.328 2.188,1.4229999 1.756,2.8549999 -0.432,1.432 -1.443,2.593 -1.979,4.005 -0.542,1.41 -0.958,2.9 -1.229,4.088 -0.308,1.344 -0.964,1.896 -1.433,1.978 -1.176,0.215 -2.031,-0.114 -2.031,-0.114"
     id="path774" />
  <path
     style="fill:none;stroke:#231f20;stroke-width:0.565977;stroke-linecap:butt;stroke-linejoin:miter;stroke-miterlimit:4;stroke-dasharray:none;stroke-opacity:1"
     d="m 18.42786,22.352814 c -1.219,-0.443 -0.177,-2.192 0.021,-2.698 0.208,-0.505 0.624,-2.005 0.791,-3.213 0.177,-1.213 0.912,-2.65 1.251,-4.953 0.172,-1.208 1.109,-2.2809999 2.853,-1.9479999 1.724,0.328 2.188,1.4229999 1.756,2.8549999 -0.432,1.432 -1.443,2.593 -1.979,4.005 -0.542,1.41 -0.958,2.9 -1.229,4.088 -0.308,1.344 -0.964,1.896 -1.433,1.978 -1.176,0.215 -2.031,-0.114 -2.031,-0.114 z"
     id="path775" />
  <path
     style="fill:#ffffff;fill-opacity:1;fill-rule:nonzero;stroke:none"
     d="m 5.3078598,21.889814 c -2.192,-0.573 -2.692,-0.385 -2.995,0.525 -0.202,0.61 -0.598,1.095 -0.74,1.459 -0.462,1.208 -0.74900004,3.443 0.084,9.975 0.192,1.473 0.448,3.557 0.479,4.416 0.057,1.354 2.265,0.344 2.256,-0.192 -0.057,-1.715 0.052,-2.891 0.115,-3.511 0.052,-0.428 0.02,-1.188 0.41,-2.813 0.59,-2.458 1.308,-3.839 1.552,-5.943 0.12,-0.973 0.828,-1.629 0.448,-2.645 -0.364,-1.022 -1.609,-1.271 -1.609,-1.271"
     id="path776" />
  <path
     style="fill:none;stroke:#231f20;stroke-width:0.565977;stroke-linecap:butt;stroke-linejoin:miter;stroke-miterlimit:4;stroke-dasharray:none;stroke-opacity:1"
     d="m 5.3078598,21.889814 c -2.192,-0.573 -2.692,-0.385 -2.995,0.525 -0.202,0.61 -0.598,1.095 -0.74,1.459 -0.462,1.208 -0.74900004,3.443 0.084,9.975 0.192,1.473 0.448,3.557 0.479,4.416 0.057,1.354 2.265,0.344 2.256,-0.192 -0.057,-1.715 0.052,-2.891 0.115,-3.511 0.052,-0.428 0.02,-1.188 0.41,-2.813 0.59,-2.458 1.308,-3.839 1.552,-5.943 0.12,-0.973 0.828,-1.629 0.448,-2.645 -0.364,-1.022 -1.609,-1.271 -1.609,-1.271 z"
     id="path777" />
  <path
     style="fill:#ffffff;fill-opacity:1;fill-rule:nonzero;stroke:#231f20;stroke-width:0.565977;stroke-linecap:round;stroke-linejoin:round;stroke-miterlimit:4;stroke-dasharray:none;stroke-opacity:1"
     d="m 6.4798598,24.102814 c 1.224,-0.729 1,-2.869 1.115,-3.188 1.688,-4.724 1.688,-5.104 2.7290002,-8.781 1.495,-5.3219999 1.708,-9.1919999 -1.1310002,-10.9729999 -1.932,-1.20299998 -3.562,-1.05699998 -4.625,-0.28099998 -1.176,0.86899998 -2.572,3.71799998 -1.061,6.18199998 l -0.011,1.714 c -0.152,1.156 -0.219,1.7239999 -0.344,2.2859999 -0.208,0.979 -0.375,2.042 -0.677,3.979 -0.536,3.426 0.016,7.234 0.016,7.234 -0.042,0.307 0.041,0.574 0.186,0.802"
     id="path778" />
  <path
     style="fill:#0098c9;fill-opacity:1;fill-rule:nonzero;stroke:none"
     d="m 8.6678598,0.76481412 c -2.1,-0.864 -3.688,-0.459 -4.604,0.48899998 -1.011,1.052 -1.923,4.099 -0.021,6.276 l 7.7920002,0.62 c 0.066,-3.754 -0.719,-6.38 -3.1670002,-7.38499998"
     id="path779" />
  <path
     style="fill:none;stroke:#231f20;stroke-width:0.565977;stroke-linecap:butt;stroke-linejoin:miter;stroke-miterlimit:4;stroke-dasharray:none;stroke-opacity:1"
     d="m 8.6678598,0.76481412 c -2.1,-0.864 -3.688,-0.459 -4.604,0.48899998 -1.011,1.052 -1.923,4.099 -0.021,6.276 l 7.7920002,0.62 c 0.066,-3.754 -0.719,-6.38 -3.1670002,-7.38499998 z"
     id="path780" />
  <path
     style="fill:#231f20;fill-opacity:1;fill-rule:nonzero;stroke:none"
     d="m 1.3868598,40.222814 c -0.97000004,-0.942 -0.57400004,-1.854 0.358,-2.308 0.276,-0.14 0.376,-0.546 0.652,-0.656 0.656,-0.26 2.234,0.49 1.947,1.964 -0.025,0.099 0.063,0.916 0.032,1.531 -0.052,1.219 -0.751,3.609 -3.131,4.891 -1.12400004,0.598 -1.27000004,-0.178 -0.89000004,-0.558 1.20900004,-1.213 1.07800004,-1.557 1.28100004,-1.989 0.688,-1.468 -0.249,-2.875 -0.249,-2.875"
     id="path781" />
  <path
     style="fill:none;stroke:#231f20;stroke-width:0.332927;stroke-linecap:butt;stroke-linejoin:miter;stroke-miterlimit:4;stroke-dasharray:none;stroke-opacity:1"
     d="m 1.3868598,40.222814 c -0.97000004,-0.942 -0.57400004,-1.854 0.358,-2.308 0.276,-0.14 0.376,-0.546 0.652,-0.656 0.656,-0.26 2.234,0.49 1.947,1.964 -0.025,0.099 0.063,0.916 0.032,1.531 -0.052,1.219 -0.751,3.609 -3.131,4.891 -1.12400004,0.598 -1.27000004,-0.178 -0.89000004,-0.558 1.20900004,-1.213 1.07800004,-1.557 1.28100004,-1.989 0.688,-1.468 -0.249,-2.875 -0.249,-2.875 z"
     id="path782" />
  <path
     style="fill:#ffffff;fill-opacity:1;fill-rule:nonzero;stroke:none"
     d="m 18.26686,32.920814 c -0.079,-1.02 -0.97,-1.792 -1.995,-1.714 -1.021,0.074 -1.792,0.964 -1.713,1.99 0.072,1.026 0.968,1.797 1.989,1.718 1.025,-0.077 1.796,-0.968 1.719,-1.994"
     id="path783" />
  <path
     style="fill:none;stroke:#231f20;stroke-width:1.33171;stroke-linecap:butt;stroke-linejoin:miter;stroke-miterlimit:4;stroke-dasharray:none;stroke-opacity:1"
     d="m 18.26686,32.920814 c -0.079,-1.02 -0.97,-1.792 -1.995,-1.714 -1.021,0.074 -1.792,0.964 -1.713,1.99 0.072,1.026 0.968,1.797 1.989,1.718 1.025,-0.077 1.796,-0.968 1.719,-1.994 z"
     id="path784" />
  <path
     style="fill:#231f20;fill-opacity:1;fill-rule:nonzero;stroke:none"
     d="m 335.27086,125.26981 c -1.333,0.224 -1.833,-0.636 -1.656,-1.656 0.052,-0.303 -0.214,-0.62 -0.141,-0.912 0.183,-0.683 1.713,-1.511 2.729,-0.401 0.068,0.073 0.782,0.485 1.26,0.876 0.948,0.76 2.464,2.733 2.095,5.405 -0.178,1.267 -0.896,0.928 -0.98,0.39 -0.266,-1.686 -0.615,-1.786 -0.844,-2.202 -0.78,-1.421 -2.463,-1.5 -2.463,-1.5"
     id="path785" />
  <path
     style="fill:none;stroke:#231f20;stroke-width:0.332927;stroke-linecap:butt;stroke-linejoin:miter;stroke-miterlimit:4;stroke-dasharray:none;stroke-opacity:1"
     d="m 335.27086,125.26981 c -1.333,0.224 -1.833,-0.636 -1.656,-1.656 0.052,-0.303 -0.214,-0.62 -0.141,-0.912 0.183,-0.683 1.713,-1.511 2.729,-0.401 0.068,0.073 0.782,0.485 1.26,0.876 0.948,0.76 2.464,2.733 2.095,5.405 -0.178,1.267 -0.896,0.928 -0.98,0.39 -0.266,-1.686 -0.615,-1.786 -0.844,-2.202 -0.78,-1.421 -2.463,-1.5 -2.463,-1.5 z"
     id="path786" />
  <path
     style="fill:#231f20;fill-opacity:1;fill-rule:nonzero;stroke:none"
     d="m 329.26586,107.12881 c -2.219,0.469 -2.589,0.854 -2.453,1.808 0.088,0.63 -0.042,1.249 -0.006,1.635 0.115,1.296 0.85,3.411 4.506,8.895 0.822,1.24 1.974,2.991 2.396,3.74 0.65,1.188 2.182,-0.697 1.932,-1.166 -0.807,-1.511 -1.25,-2.621 -1.463,-3.203 -0.147,-0.401 -0.505,-1.073 -0.881,-2.699 -0.567,-2.457 -0.536,-4.02 -1.25,-6.01 -0.322,-0.927 0.011,-1.828 -0.776,-2.578 -0.786,-0.745 -2.005,-0.422 -2.005,-0.422"
     id="path787" />
  <path
     style="fill:none;stroke:#231f20;stroke-width:0.565977;stroke-linecap:butt;stroke-linejoin:miter;stroke-miterlimit:4;stroke-dasharray:none;stroke-opacity:1"
     d="m 329.26586,107.12881 c -2.219,0.469 -2.589,0.854 -2.453,1.808 0.088,0.63 -0.042,1.249 -0.006,1.635 0.115,1.296 0.85,3.411 4.506,8.895 0.822,1.24 1.974,2.991 2.396,3.74 0.65,1.188 2.182,-0.697 1.932,-1.166 -0.807,-1.511 -1.25,-2.621 -1.463,-3.203 -0.147,-0.401 -0.505,-1.073 -0.881,-2.699 -0.567,-2.457 -0.536,-4.02 -1.25,-6.01 -0.322,-0.927 0.011,-1.828 -0.776,-2.578 -0.786,-0.745 -2.005,-0.422 -2.005,-0.422 z"
     id="path788" />
  <path
     style="fill:#231f20;fill-opacity:1;fill-rule:nonzero;stroke:none"
     d="m 326.43286,85.201814 c -0.5,0.407 -2.443,0.344 -3.954,0.912 -1.01,0.391 -3.749,0.229 -4.729,0.687 -0.905,0.422 -1.359,0.526 -2.016,-0.416 -0.391,-0.563 -0.776,-1.896 -0.364,-2.208 0.937,-0.719 1.86,-0.954 2.932,-1 1.209,-0.052 4.521,0.109 5.125,0.197 1.506,0.213 2.146,-0.156 2.552,-0.135 0.76,0.031 0.927,0.334 1.016,0.828 0.156,0.948 -0.562,1.135 -0.562,1.135"
     id="path789" />
  <path
     style="fill:none;stroke:#231f20;stroke-width:0.565977;stroke-linecap:butt;stroke-linejoin:miter;stroke-miterlimit:4;stroke-dasharray:none;stroke-opacity:1"
     d="m 326.43286,85.201814 c -0.5,0.407 -2.443,0.344 -3.954,0.912 -1.01,0.391 -3.749,0.229 -4.729,0.687 -0.905,0.422 -1.359,0.526 -2.016,-0.416 -0.391,-0.563 -0.776,-1.896 -0.364,-2.208 0.937,-0.719 1.86,-0.954 2.932,-1 1.209,-0.052 4.521,0.109 5.125,0.197 1.506,0.213 2.146,-0.156 2.552,-0.135 0.76,0.031 0.927,0.334 1.016,0.828 0.156,0.948 -0.562,1.135 -0.562,1.135 z"
     id="path790" />
  <path
     style="fill:#231f20;fill-opacity:1;fill-rule:nonzero;stroke:none"
     d="m 317.75486,85.920814 c -0.057,1.292 -2.041,0.844 -2.582,0.802 -0.538,-0.037 -2.095,0.031 -3.298,0.24 -1.208,0.208 -2.802,-0.048 -5.093,0.338 -1.209,0.209 -2.516,-0.354 -2.735,-2.119 -0.218,-1.735 0.678,-2.516 2.167,-2.552 1.505,-0.027 2.916,0.583 4.432,0.656 1.511,0.077 3.052,0.015 4.26,-0.089 1.376,-0.124 2.104,0.328 2.328,0.75 0.563,1.052 0.521,1.974 0.521,1.974"
     id="path791" />
  <path
     style="fill:none;stroke:#231f20;stroke-width:0.565977;stroke-linecap:butt;stroke-linejoin:miter;stroke-miterlimit:4;stroke-dasharray:none;stroke-opacity:1"
     d="m 317.75486,85.920814 c -0.057,1.292 -2.041,0.844 -2.582,0.802 -0.538,-0.037 -2.095,0.031 -3.298,0.24 -1.208,0.208 -2.802,-0.048 -5.093,0.338 -1.209,0.209 -2.516,-0.354 -2.735,-2.119 -0.218,-1.735 0.678,-2.516 2.167,-2.552 1.505,-0.027 2.916,0.583 4.432,0.656 1.511,0.077 3.052,0.015 4.26,-0.089 1.376,-0.124 2.104,0.328 2.328,0.75 0.563,1.052 0.521,1.974 0.521,1.974 z"
     id="path792" />
  <path
     style="fill:#231f20;fill-opacity:1;fill-rule:nonzero;stroke:none"
     d="m 333.34886,84.518814 c -0.651,0.319 -3.88,0.658 -4.624,0.704 -0.662,0.047 -1.735,0.474 -2.298,-0.537 -0.224,-0.406 -0.276,-1.161 -0.208,-1.473 0.052,-0.255 0.354,-0.375 0.755,-0.364 0.667,0.019 0.849,0.28 2.12,0.394 0,0 0.297,0.074 0.823,0.235 1.557,0.48 0.828,0.412 3.245,0.595 0.172,0.014 0.281,0.197 0.265,0.317 -0.03,0.172 -0.078,0.129 -0.078,0.129"
     id="path793" />
  <path
     style="fill:none;stroke:#231f20;stroke-width:0.565977;stroke-linecap:round;stroke-linejoin:round;stroke-miterlimit:4;stroke-dasharray:none;stroke-opacity:1"
     d="m 333.34886,84.518814 c -0.651,0.319 -3.88,0.658 -4.624,0.704 -0.662,0.047 -1.735,0.474 -2.298,-0.537 -0.224,-0.406 -0.276,-1.161 -0.208,-1.473 0.052,-0.255 0.354,-0.375 0.755,-0.364 0.667,0.019 0.849,0.28 2.12,0.394 0,0 0.297,0.074 0.823,0.235 1.557,0.48 0.828,0.412 3.245,0.595 0.172,0.014 0.281,0.197 0.265,0.317 -0.03,0.172 -0.078,0.129 -0.078,0.129 z"
     id="path794" />
  <path
     style="fill:#ffffff;fill-opacity:1;fill-rule:nonzero;stroke:none"
     d="m 308.07786,76.384814 c 0.032,-0.24 1.167,-0.391 1.141,-0.918 -0.032,-0.52 -0.808,-0.676 -1.761,-2.421 l -0.009,-0.016 c -0.652,-1.301 -1.74,-2.161 -2.995,-2.192 -2.079,-0.047 -3.813,2.203 -3.881,5.025 -0.058,2.828 1.568,5.152 3.646,5.199 1.99,0.047 3.667,-2.016 3.859,-4.677"
     id="path795" />
  <path
     style="fill:none;stroke:#231f20;stroke-width:0.565977;stroke-linecap:butt;stroke-linejoin:miter;stroke-miterlimit:4;stroke-dasharray:none;stroke-opacity:1"
     d="m 308.07786,76.384814 c 0.032,-0.24 1.167,-0.391 1.141,-0.918 -0.032,-0.52 -0.808,-0.676 -1.761,-2.421 l -0.009,-0.016 c -0.652,-1.301 -1.74,-2.161 -2.995,-2.192 -2.079,-0.047 -3.813,2.203 -3.881,5.025 -0.058,2.828 1.568,5.152 3.646,5.199 1.99,0.047 3.667,-2.016 3.859,-4.677 z"
     id="path796" />
  <path
     style="fill:#231f20;fill-opacity:1;fill-rule:nonzero;stroke:none"
     d="m 330.57786,110.13881 c 2.485,-3.14 -1.511,-3.973 -1.885,-4.271 -3.911,-3.125 -4.276,-3.249 -7.422,-5.421 -4.546,-3.135996 -8.146,-4.583996 -10.745,-2.468996 -1.76,1.437 -2.161,3.020996 -1.765,4.281996 0.442,1.39 2.688,3.635 5.505,3.005 l 1.62,0.557 c 1.041,0.527 1.563,0.77 2.057,1.068 0.854,0.516 1.807,1.011 3.542,1.927 3.068,1.614 6.849,2.317 6.849,2.317 1.115,0.552 2.244,-0.995 2.244,-0.995"
     id="path797" />
  <path
     style="fill:none;stroke:#231f20;stroke-width:0.565977;stroke-linecap:butt;stroke-linejoin:miter;stroke-miterlimit:4;stroke-dasharray:none;stroke-opacity:1"
     d="m 330.57786,110.13881 c 2.485,-3.14 -1.511,-3.973 -1.885,-4.271 -3.911,-3.125 -4.276,-3.249 -7.422,-5.421 -4.546,-3.135996 -8.146,-4.583996 -10.745,-2.468996 -1.76,1.437 -2.161,3.020996 -1.765,4.281996 0.442,1.39 2.688,3.635 5.505,3.005 l 1.62,0.557 c 1.041,0.527 1.563,0.77 2.057,1.068 0.854,0.516 1.807,1.011 3.542,1.927 3.068,1.614 6.849,2.317 6.849,2.317 1.115,0.552 2.244,-0.995 2.244,-0.995 z"
     id="path798" />
  <path
     style="fill:#0098c9;fill-opacity:1;fill-rule:nonzero;stroke:none"
     d="m 310.52586,97.977814 c -1.76,1.437 -2.161,3.026996 -1.765,4.281996 0.442,1.39 2.688,3.635 5.505,3.005 l 4.26,-6.551996 c -3.276,-1.855 -5.953,-2.407 -8,-0.735"
     id="path799" />
  <path
     style="fill:none;stroke:#231f20;stroke-width:0.565977;stroke-linecap:butt;stroke-linejoin:miter;stroke-miterlimit:4;stroke-dasharray:none;stroke-opacity:1"
     d="m 310.52586,97.977814 c -1.76,1.437 -2.161,3.026996 -1.765,4.281996 0.442,1.39 2.688,3.635 5.505,3.005 l 4.26,-6.551996 c -3.276,-1.855 -5.953,-2.407 -8,-0.735 z"
     id="path800" />
  <path
     style="fill:#0098c9;fill-opacity:1;fill-rule:nonzero;stroke:none"
     d="m 253.43286,67.086814 c 2.15,-2.77 2.598,-3.645 3.208,-4.609 3.125,-4.859 2.308,-5.864 0.349,-7.239 -2.765,-1.953 -4.475,-2.756 -7.589,2.714 -2.364,4.15 -4.719,6.896 -4.719,6.896 -1.547,1.041 -3.509,4.052 -3.457,4.962 0.088,1.532 0.118,1.235 0.858,2.48 1.366,2.302 2.563,2.25 3.683,1.848 1.115,-0.4 1.916,-1.057 3.907,-3.046 1.546,-1.536 3.76,-4.006 3.76,-4.006"
     id="path801" />
  <path
     style="fill:none;stroke:#231f20;stroke-width:0.565977;stroke-linecap:butt;stroke-linejoin:miter;stroke-miterlimit:4;stroke-dasharray:none;stroke-opacity:1"
     d="m 253.43286,67.086814 c 2.15,-2.77 2.598,-3.645 3.208,-4.609 3.125,-4.859 2.308,-5.864 0.349,-7.239 -2.765,-1.953 -4.475,-2.756 -7.589,2.714 -2.364,4.15 -4.719,6.896 -4.719,6.896 -1.547,1.041 -3.509,4.052 -3.457,4.962 0.088,1.532 0.118,1.235 0.858,2.48 1.366,2.302 2.563,2.25 3.683,1.848 1.115,-0.4 1.916,-1.057 3.907,-3.046 1.546,-1.536 3.76,-4.006 3.76,-4.006 z"
     id="path802" />
  <path
     style="fill:#231f20;fill-opacity:1;fill-rule:nonzero;stroke:none"
     d="m 243.37486,39.258814 c 1.156,0.699 0.984,1.672 0.188,2.334 -0.234,0.198 -0.234,0.614 -0.485,0.786 -0.577,0.407 -2.281,0.042 -2.339,-1.453 -0.005,-0.109 -0.281,-0.88 -0.396,-1.489 -0.228,-1.194 -0.104,-3.683 1.912,-5.474 0.954,-0.849 1.282,-0.13 0.995,0.334 -0.891,1.457 -0.687,1.76 -0.781,2.222 -0.328,1.595 0.906,2.74 0.906,2.74"
     id="path803" />
  <path
     style="fill:none;stroke:#231f20;stroke-width:0.332927;stroke-linecap:butt;stroke-linejoin:miter;stroke-miterlimit:4;stroke-dasharray:none;stroke-opacity:1"
     d="m 243.37486,39.258814 c 1.156,0.699 0.984,1.672 0.188,2.334 -0.234,0.198 -0.234,0.614 -0.485,0.786 -0.577,0.407 -2.281,0.042 -2.339,-1.453 -0.005,-0.109 -0.281,-0.88 -0.396,-1.489 -0.228,-1.194 -0.104,-3.683 1.912,-5.474 0.954,-0.849 1.282,-0.13 0.995,0.334 -0.891,1.457 -0.687,1.76 -0.781,2.222 -0.328,1.595 0.906,2.74 0.906,2.74 z"
     id="path804" />
  <path
     style="fill:none;stroke:#231f20;stroke-width:0.399514;stroke-linecap:butt;stroke-linejoin:miter;stroke-miterlimit:4;stroke-dasharray:none;stroke-opacity:1"
     d="m 258.59886,39.780814 c 8.38,-6.964 21.703,-6.636 25.468,4.421"
     id="path805" />
  <path
     style="fill:#231f20;fill-opacity:1;fill-rule:nonzero;stroke:none"
     d="m 284.45386,45.342814 c -0.381,-0.469 -0.948,-1.021 -1.448,-1.313 l 1.009,0.021 0.787,-0.63 c -0.219,0.537 -0.333,1.318 -0.348,1.922"
     id="path806" />
  <path
     style="fill:#231f20;fill-opacity:1;fill-rule:nonzero;stroke:none"
     d="m 236.20286,56.972814 c 1.99,1.078 2.527,1.021 3.042,0.213 0.338,-0.536 0.838,-0.927 1.062,-1.244 0.751,-1.063 1.563,-3.151 2.323,-9.693 0.177,-1.484 0.433,-3.563 0.6,-4.4 0.276,-1.334 -2.115,-0.886 -2.229,-0.366 -0.366,1.678 -0.751,2.803 -0.964,3.386 -0.14,0.401 -0.307,1.146 -1.074,2.63 -1.161,2.24 -2.186,3.407 -2.937,5.391 -0.349,0.916 -1.192,1.385 -1.077,2.463 0.114,1.078 1.254,1.62 1.254,1.62"
     id="path807" />
  <path
     style="fill:none;stroke:#231f20;stroke-width:0.565977;stroke-linecap:butt;stroke-linejoin:miter;stroke-miterlimit:4;stroke-dasharray:none;stroke-opacity:1"
     d="m 236.20286,56.972814 c 1.99,1.078 2.527,1.021 3.042,0.213 0.338,-0.536 0.838,-0.927 1.062,-1.244 0.751,-1.063 1.563,-3.151 2.323,-9.693 0.177,-1.484 0.433,-3.563 0.6,-4.4 0.276,-1.334 -2.115,-0.886 -2.229,-0.366 -0.366,1.678 -0.751,2.803 -0.964,3.386 -0.14,0.401 -0.307,1.146 -1.074,2.63 -1.161,2.24 -2.186,3.407 -2.937,5.391 -0.349,0.916 -1.192,1.385 -1.077,2.463 0.114,1.078 1.254,1.62 1.254,1.62 z"
     id="path808" />
  <path
     style="fill:#231f20;fill-opacity:1;fill-rule:nonzero;stroke:none"
     d="m 236.76086,52.909814 c 0.625,0.152 1.745,1.745 3.104,2.605 0.922,0.578 2.437,2.864 3.396,3.375 0.874,0.468 1.234,0.765 0.874,1.859 -0.213,0.646 -1.046,1.756 -1.541,1.62 -1.14,-0.323 -1.88,-0.916 -2.563,-1.739 -0.765,-0.944 -2.63,-3.683 -2.921,-4.22 -0.74,-1.333 -1.417,-1.619 -1.641,-1.952 -0.432,-0.631 -0.296,-0.948 0.046,-1.319 0.667,-0.692 1.246,-0.229 1.246,-0.229"
     id="path809" />
  <path
     style="fill:none;stroke:#231f20;stroke-width:0.565977;stroke-linecap:butt;stroke-linejoin:miter;stroke-miterlimit:4;stroke-dasharray:none;stroke-opacity:1"
     d="m 236.76086,52.909814 c 0.625,0.152 1.745,1.745 3.104,2.605 0.922,0.578 2.437,2.864 3.396,3.375 0.874,0.468 1.234,0.765 0.874,1.859 -0.213,0.646 -1.046,1.756 -1.541,1.62 -1.14,-0.323 -1.88,-0.916 -2.563,-1.739 -0.765,-0.944 -2.63,-3.683 -2.921,-4.22 -0.74,-1.333 -1.417,-1.619 -1.641,-1.952 -0.432,-0.631 -0.296,-0.948 0.046,-1.319 0.667,-0.692 1.246,-0.229 1.246,-0.229 z"
     id="path810" />
  <path
     style="fill:#231f20;fill-opacity:1;fill-rule:nonzero;stroke:none"
     d="m 243.72986,59.889814 c 1.291,-0.125 1.119,1.901 1.156,2.443 0.036,0.541 0.317,2.073 0.687,3.234 0.37,1.172 0.338,2.786 1.037,5.006 0.369,1.161 -0.011,2.53 -1.724,2.994 -1.693,0.458 -2.589,-0.324 -2.823,-1.797 -0.234,-1.484 0.171,-2.969 0.036,-4.479 -0.13,-1.505 -0.406,-3.026 -0.672,-4.209 -0.312,-1.348 0.036,-2.124 0.418,-2.411 0.973,-0.698 1.885,-0.781 1.885,-0.781"
     id="path811" />
  <path
     style="fill:none;stroke:#231f20;stroke-width:0.565977;stroke-linecap:butt;stroke-linejoin:miter;stroke-miterlimit:4;stroke-dasharray:none;stroke-opacity:1"
     d="m 243.72986,59.889814 c 1.291,-0.125 1.119,1.901 1.156,2.443 0.036,0.541 0.317,2.073 0.687,3.234 0.37,1.172 0.338,2.786 1.037,5.006 0.369,1.161 -0.011,2.53 -1.724,2.994 -1.693,0.458 -2.589,-0.324 -2.823,-1.797 -0.234,-1.484 0.171,-2.969 0.036,-4.479 -0.13,-1.505 -0.406,-3.026 -0.672,-4.209 -0.312,-1.348 0.036,-2.124 0.418,-2.411 0.973,-0.698 1.885,-0.781 1.885,-0.781 z"
     id="path812" />
  <path
     style="fill:#ffffff;fill-opacity:1;fill-rule:nonzero;stroke:none"
     d="m 235.95386,77.534814 c -0.105,0.219 -1.235,0.042 -1.355,0.552 -0.12,0.511 0.574,0.88 0.99,2.823 v 0.027 c 0.25,1.426 1.052,2.568 2.245,2.953 1.973,0.64 4.281,-1.016 5.151,-3.704 0.874,-2.687 -0.022,-5.385 -1.995,-6.02 -1.896,-0.615 -4.089,0.88 -5.036,3.369"
     id="path813" />
  <path
     style="fill:none;stroke:#231f20;stroke-width:0.565977;stroke-linecap:butt;stroke-linejoin:miter;stroke-miterlimit:4;stroke-dasharray:none;stroke-opacity:1"
     d="m 235.95386,77.534814 c -0.105,0.219 -1.235,0.042 -1.355,0.552 -0.12,0.511 0.574,0.88 0.99,2.823 v 0.027 c 0.25,1.426 1.052,2.568 2.245,2.953 1.973,0.64 4.281,-1.016 5.151,-3.704 0.874,-2.687 -0.022,-5.385 -1.995,-6.02 -1.896,-0.615 -4.089,0.88 -5.036,3.369 z"
     id="path814" />
  <path
     style="fill:#231f20;fill-opacity:1;fill-rule:nonzero;stroke:none"
     d="m 235.36986,54.086814 c -1.516,3.708 2.552,3.402 2.995,3.584 4.63,1.916 5.01,1.938 8.636,3.146 5.244,1.756 9.104,2.15 11.009,-0.599 1.297,-1.869 1.235,-3.505 0.505,-4.604 -0.806,-1.213 -3.588,-2.751 -6.118,-1.365 l -1.71,-0.083 c -1.145,-0.213 -1.713,-0.308 -2.27,-0.453 -0.968,-0.26 -2.02,-0.474 -3.938,-0.87 -3.401,-0.709 -7.224,-0.338 -7.224,-0.338 -1.224,-0.214 -1.885,1.582 -1.885,1.582"
     id="path815" />
  <path
     style="fill:none;stroke:#231f20;stroke-width:0.565977;stroke-linecap:butt;stroke-linejoin:miter;stroke-miterlimit:4;stroke-dasharray:none;stroke-opacity:1"
     d="m 235.36986,54.086814 c -1.516,3.708 2.552,3.402 2.995,3.584 4.63,1.916 5.01,1.938 8.636,3.146 5.244,1.756 9.104,2.15 11.009,-0.599 1.297,-1.869 1.235,-3.505 0.505,-4.604 -0.806,-1.213 -3.588,-2.751 -6.118,-1.365 l -1.71,-0.083 c -1.145,-0.213 -1.713,-0.308 -2.27,-0.453 -0.968,-0.26 -2.02,-0.474 -3.938,-0.87 -3.401,-0.709 -7.224,-0.338 -7.224,-0.338 -1.224,-0.214 -1.885,1.582 -1.885,1.582 z"
     id="path816" />
  <path
     style="fill:#0098c9;fill-opacity:1;fill-rule:nonzero;stroke:none"
     d="m 258.51486,55.613814 c -0.806,-1.213 -3.588,-2.751 -6.118,-1.36 l -2.276,7.475 c 3.661,0.869 6.38,0.661 7.889,-1.511 1.297,-1.869 1.235,-3.505 0.505,-4.604"
     id="path817" />
  <path
     style="fill:none;stroke:#231f20;stroke-width:0.565977;stroke-linecap:butt;stroke-linejoin:miter;stroke-miterlimit:4;stroke-dasharray:none;stroke-opacity:1"
     d="m 258.51486,55.613814 c -0.806,-1.213 -3.588,-2.751 -6.118,-1.36 l -2.276,7.475 c 3.661,0.869 6.38,0.661 7.889,-1.511 1.297,-1.869 1.235,-3.505 0.505,-4.604 z"
     id="path818" />
  <path
     style="fill:#231f20;fill-opacity:1;fill-rule:nonzero;stroke:none"
     d="m 240.23886,57.482814 c -0.724,-0.03 -3.733,-1.254 -4.41,-1.573 -0.604,-0.271 -1.756,-0.4 -1.776,-1.557 -0.006,-0.463 0.312,-1.156 0.52,-1.395 0.161,-0.199 0.49,-0.167 0.838,0.031 0.579,0.338 0.61,0.656 1.678,1.36 0,0 0.229,0.197 0.62,0.588 1.14,1.156 0.536,0.754 2.573,2.057 0.145,0.093 0.156,0.303 0.088,0.407 -0.115,0.134 -0.131,0.082 -0.131,0.082"
     id="path819" />
  <path
     style="fill:none;stroke:#231f20;stroke-width:0.565977;stroke-linecap:round;stroke-linejoin:round;stroke-miterlimit:4;stroke-dasharray:none;stroke-opacity:1"
     d="m 240.23886,57.482814 c -0.724,-0.03 -3.733,-1.254 -4.41,-1.573 -0.604,-0.271 -1.756,-0.4 -1.776,-1.557 -0.006,-0.463 0.312,-1.156 0.52,-1.395 0.161,-0.199 0.49,-0.167 0.838,0.031 0.579,0.338 0.61,0.656 1.678,1.36 0,0 0.229,0.197 0.62,0.588 1.14,1.156 0.536,0.754 2.573,2.057 0.145,0.093 0.156,0.303 0.088,0.407 -0.115,0.134 -0.131,0.082 -0.131,0.082 z"
     id="path820" />
  <path
     style="fill:#0098c9;fill-opacity:1;fill-rule:nonzero;stroke:none"
     d="m 279.67686,53.660814 c -3.495,-0.298 -4.468,-0.194 -5.614,-0.183 -5.776,0.032 -6.166,1.265 -6.256,3.656 -0.13,3.385 0.126,5.256 6.412,4.885 4.766,-0.28 8.354,0.194 8.354,0.194 1.714,0.74 5.308,0.74 6.048,0.202 1.233,-0.91 0.962,-0.776 1.604,-2.072 1.192,-2.401 0.494,-3.376 -0.454,-4.1 -0.948,-0.713 -1.932,-1.03 -4.682,-1.613 -2.131,-0.459 -5.412,-0.969 -5.412,-0.969"
     id="path821" />
  <path
     style="fill:none;stroke:#231f20;stroke-width:0.565977;stroke-linecap:butt;stroke-linejoin:miter;stroke-miterlimit:4;stroke-dasharray:none;stroke-opacity:1"
     d="m 279.67686,53.660814 c -3.495,-0.298 -4.468,-0.194 -5.614,-0.183 -5.776,0.032 -6.166,1.265 -6.256,3.656 -0.13,3.385 0.126,5.256 6.412,4.885 4.766,-0.28 8.354,0.194 8.354,0.194 1.714,0.74 5.308,0.74 6.048,0.202 1.233,-0.91 0.962,-0.776 1.604,-2.072 1.192,-2.401 0.494,-3.376 -0.454,-4.1 -0.948,-0.713 -1.932,-1.03 -4.682,-1.613 -2.131,-0.459 -5.412,-0.969 -5.412,-0.969 z"
     id="path822" />
  <path
     style="fill:#231f20;fill-opacity:1;fill-rule:nonzero;stroke:none"
     d="m 261.82886,77.253814 c -0.047,-1.348 0.864,-1.735 1.848,-1.427 0.297,0.088 0.646,-0.136 0.928,-0.021 0.656,0.261 1.281,1.891 0.057,2.756 -0.089,0.057 -0.589,0.713 -1.032,1.14 -0.88,0.839 -3.031,2.093 -5.635,1.38 -1.234,-0.339 -0.802,-1.005 -0.265,-1.015 1.713,-0.048 1.853,-0.385 2.296,-0.562 1.511,-0.59 1.803,-2.251 1.803,-2.251"
     id="path823" />
  <path
     style="fill:none;stroke:#231f20;stroke-width:0.332927;stroke-linecap:butt;stroke-linejoin:miter;stroke-miterlimit:4;stroke-dasharray:none;stroke-opacity:1"
     d="m 261.82886,77.253814 c -0.047,-1.348 0.864,-1.735 1.848,-1.427 0.297,0.088 0.646,-0.136 0.928,-0.021 0.656,0.261 1.281,1.891 0.057,2.756 -0.089,0.057 -0.589,0.713 -1.032,1.14 -0.88,0.839 -3.031,2.093 -5.635,1.38 -1.234,-0.339 -0.802,-1.005 -0.265,-1.015 1.713,-0.048 1.853,-0.385 2.296,-0.562 1.511,-0.59 1.803,-2.251 1.803,-2.251 z"
     id="path824" />
  <path
     style="fill:#231f20;fill-opacity:1;fill-rule:nonzero;stroke:none"
     d="m 280.58286,73.618814 c -0.177,-2.256 -0.516,-2.677 -1.473,-2.666 -0.641,0.005 -1.235,-0.199 -1.625,-0.214 -1.298,-0.048 -3.49,0.406 -9.396,3.334 -1.334,0.661 -3.219,1.577 -4.016,1.894 -1.266,0.495 0.412,2.256 0.912,2.068 1.604,-0.609 2.76,-0.901 3.364,-1.036 0.417,-0.098 1.125,-0.365 2.786,-0.532 2.516,-0.249 4.052,-0.025 6.12,-0.473 0.964,-0.208 1.818,0.245 2.656,-0.443 0.844,-0.682 0.672,-1.932 0.672,-1.932"
     id="path825" />
  <path
     style="fill:none;stroke:#231f20;stroke-width:0.565977;stroke-linecap:butt;stroke-linejoin:miter;stroke-miterlimit:4;stroke-dasharray:none;stroke-opacity:1"
     d="m 280.58286,73.618814 c -0.177,-2.256 -0.516,-2.677 -1.473,-2.666 -0.641,0.005 -1.235,-0.199 -1.625,-0.214 -1.298,-0.048 -3.49,0.406 -9.396,3.334 -1.334,0.661 -3.219,1.577 -4.016,1.894 -1.266,0.495 0.412,2.256 0.912,2.068 1.604,-0.609 2.76,-0.901 3.364,-1.036 0.417,-0.098 1.125,-0.365 2.786,-0.532 2.516,-0.249 4.052,-0.025 6.12,-0.473 0.964,-0.208 1.818,0.245 2.656,-0.443 0.844,-0.682 0.672,-1.932 0.672,-1.932 z"
     id="path826" />
  <path
     style="fill:#231f20;fill-opacity:1;fill-rule:nonzero;stroke:none"
     d="m 276.87486,75.362814 c -0.208,-0.609 0.511,-2.41 0.495,-4.02 -0.016,-1.089 1.073,-3.609 0.979,-4.688 -0.088,-0.989 -0.036,-1.453 1.084,-1.745 0.656,-0.171 2.041,-0.083 2.192,0.407 0.354,1.136 0.261,2.078 -0.062,3.098 -0.37,1.158 -1.652,4.21 -1.938,4.751 -0.719,1.344 -0.594,2.068 -0.75,2.443 -0.292,0.702 -0.636,0.765 -1.13,0.672 -0.938,-0.178 -0.87,-0.918 -0.87,-0.918"
     id="path827" />
  <path
     style="fill:none;stroke:#231f20;stroke-width:0.565977;stroke-linecap:butt;stroke-linejoin:miter;stroke-miterlimit:4;stroke-dasharray:none;stroke-opacity:1"
     d="m 276.87486,75.362814 c -0.208,-0.609 0.511,-2.41 0.495,-4.02 -0.016,-1.089 1.073,-3.609 0.979,-4.688 -0.088,-0.989 -0.036,-1.453 1.084,-1.745 0.656,-0.171 2.041,-0.083 2.192,0.407 0.354,1.136 0.261,2.078 -0.062,3.098 -0.37,1.158 -1.652,4.21 -1.938,4.751 -0.719,1.344 -0.594,2.068 -0.75,2.443 -0.292,0.702 -0.636,0.765 -1.13,0.672 -0.938,-0.178 -0.87,-0.918 -0.87,-0.918 z"
     id="path828" />
  <path
     style="fill:#231f20;fill-opacity:1;fill-rule:nonzero;stroke:none"
     d="m 278.93286,65.717814 c -0.808,-1.016 0.984,-1.975 1.416,-2.303 0.433,-0.322 1.568,-1.39 2.338,-2.338 0.782,-0.948 2.152,-1.796 3.631,-3.594 0.776,-0.942 2.131,-1.374 3.448,-0.186 1.307,1.17 1.14,2.348 0.036,3.348 -1.12,1.005 -2.583,1.474 -3.776,2.406 -1.192,0.927 -2.317,1.99 -3.161,2.859 -0.964,0.996 -1.802,1.131 -2.25,0.959 -1.114,-0.432 -1.682,-1.151 -1.682,-1.151"
     id="path829" />
  <path
     style="fill:none;stroke:#231f20;stroke-width:0.565977;stroke-linecap:butt;stroke-linejoin:miter;stroke-miterlimit:4;stroke-dasharray:none;stroke-opacity:1"
     d="m 278.93286,65.717814 c -0.808,-1.016 0.984,-1.975 1.416,-2.303 0.433,-0.322 1.568,-1.39 2.338,-2.338 0.782,-0.948 2.152,-1.796 3.631,-3.594 0.776,-0.942 2.131,-1.374 3.448,-0.186 1.307,1.17 1.14,2.348 0.036,3.348 -1.12,1.005 -2.583,1.474 -3.776,2.406 -1.192,0.927 -2.317,1.99 -3.161,2.859 -0.964,0.996 -1.802,1.131 -2.25,0.959 -1.114,-0.432 -1.682,-1.151 -1.682,-1.151 z"
     id="path830" />
  <path
     style="fill:#ffffff;fill-opacity:1;fill-rule:nonzero;stroke:none"
     d="m 297.96286,62.624814 c 0.24,-0.038 0.71,1.009 1.199,0.837 0.5,-0.181 0.427,-0.968 1.833,-2.369 l 0.015,-0.016 c 1.068,-0.99 1.584,-2.282 1.256,-3.495 -0.536,-2.005 -3.183,-3.036 -5.912,-2.301 -2.729,0.734 -4.5,2.953 -3.963,4.958 0.52,1.922 2.968,2.947 5.572,2.386"
     id="path831" />
  <path
     style="fill:none;stroke:#231f20;stroke-width:0.565977;stroke-linecap:butt;stroke-linejoin:miter;stroke-miterlimit:4;stroke-dasharray:none;stroke-opacity:1"
     d="m 297.96286,62.624814 c 0.24,-0.038 0.71,1.009 1.199,0.837 0.5,-0.181 0.427,-0.968 1.833,-2.369 l 0.015,-0.016 c 1.068,-0.99 1.584,-2.282 1.256,-3.495 -0.536,-2.005 -3.183,-3.036 -5.912,-2.301 -2.729,0.734 -4.5,2.953 -3.963,4.958 0.52,1.922 2.968,2.947 5.572,2.386 z"
     id="path832" />
  <path
     style="fill:#231f20;fill-opacity:1;fill-rule:nonzero;stroke:none"
     d="m 278.62086,75.889814 c 3.937,-0.751 1.457,-3.995 1.369,-4.464 -0.912,-4.927 -1.104,-5.26 -2.063,-8.959 -1.385,-5.348 -3.156,-8.801 -6.505,-8.9 -2.271,-0.068 -3.615,0.87 -4.135,2.078 -0.573,1.344 -0.349,4.51 2.192,5.88 l 0.86,1.48 c 0.448,1.077 0.676,1.604 0.859,2.15 0.308,0.954 0.703,1.954 1.417,3.776 1.26,3.23 3.651,6.24 3.651,6.24 0.489,1.146 2.355,0.719 2.355,0.719"
     id="path833" />
  <path
     style="fill:none;stroke:#231f20;stroke-width:0.565977;stroke-linecap:butt;stroke-linejoin:miter;stroke-miterlimit:4;stroke-dasharray:none;stroke-opacity:1"
     d="m 278.62086,75.889814 c 3.937,-0.751 1.457,-3.995 1.369,-4.464 -0.912,-4.927 -1.104,-5.26 -2.063,-8.959 -1.385,-5.348 -3.156,-8.801 -6.505,-8.9 -2.271,-0.068 -3.615,0.87 -4.135,2.078 -0.573,1.344 -0.349,4.51 2.192,5.88 l 0.86,1.48 c 0.448,1.077 0.676,1.604 0.859,2.15 0.308,0.954 0.703,1.954 1.417,3.776 1.26,3.23 3.651,6.24 3.651,6.24 0.489,1.146 2.355,0.719 2.355,0.719 z"
     id="path834" />
  <path
     style="fill:#0098c9;fill-opacity:1;fill-rule:nonzero;stroke:none"
     d="m 271.42186,53.566814 c -2.271,-0.068 -3.615,0.87 -4.135,2.078 -0.573,1.344 -0.349,4.51 2.192,5.88 l 7.511,-2.167 c -1.265,-3.547 -2.923,-5.713 -5.568,-5.791"
     id="path835" />
  <path
     style="fill:none;stroke:#231f20;stroke-width:0.565977;stroke-linecap:butt;stroke-linejoin:miter;stroke-miterlimit:4;stroke-dasharray:none;stroke-opacity:1"
     d="m 271.42186,53.566814 c -2.271,-0.068 -3.615,0.87 -4.135,2.078 -0.573,1.344 -0.349,4.51 2.192,5.88 l 7.511,-2.167 c -1.265,-3.547 -2.923,-5.713 -5.568,-5.791 z"
     id="path836" />
  <path
     style="fill:#231f20;fill-opacity:1;fill-rule:nonzero;stroke:none"
     d="m 278.81286,69.957814 c 0.369,0.624 0.984,3.812 1.093,4.552 0.095,0.656 0.615,1.687 -0.343,2.339 -0.385,0.254 -1.141,0.369 -1.453,0.328 -0.261,-0.032 -0.407,-0.324 -0.428,-0.724 -0.036,-0.667 0.209,-0.871 0.215,-2.147 0,0 0.052,-0.301 0.166,-0.839 0.343,-1.593 0.338,-0.864 0.323,-3.281 0,-0.171 0.161,-0.296 0.291,-0.291 0.172,0.015 0.136,0.063 0.136,0.063"
     id="path837" />
  <path
     style="fill:none;stroke:#231f20;stroke-width:0.565977;stroke-linecap:round;stroke-linejoin:round;stroke-miterlimit:4;stroke-dasharray:none;stroke-opacity:1"
     d="m 278.81286,69.957814 c 0.369,0.624 0.984,3.812 1.093,4.552 0.095,0.656 0.615,1.687 -0.343,2.339 -0.385,0.254 -1.141,0.369 -1.453,0.328 -0.261,-0.032 -0.407,-0.324 -0.428,-0.724 -0.036,-0.667 0.209,-0.871 0.215,-2.147 0,0 0.052,-0.301 0.166,-0.839 0.343,-1.593 0.338,-0.864 0.323,-3.281 0,-0.171 0.161,-0.296 0.291,-0.291 0.172,0.015 0.136,0.063 0.136,0.063 z"
     id="path838" />
  <path
     style="fill:none;stroke:#231f20;stroke-width:0.399514;stroke-linecap:butt;stroke-linejoin:miter;stroke-miterlimit:4;stroke-dasharray:none;stroke-opacity:1"
     d="m 43.25086,72.561814 c 23.756,14.396 57.499,13.869 70.193,11.681 39.921,-6.89 34.692,-20.437 63.926,-25.192 27.792,-4.516 42.245,-0.166 42.245,-0.166"
     id="path839" />
  <path
     style="fill:#231f20;fill-opacity:1;fill-rule:nonzero;stroke:none"
     d="m 220.76586,59.233814 c -0.599,0.036 -1.38,0.176 -1.907,0.416 l 0.604,-0.812 -0.057,-1.011 c 0.308,0.49 0.881,1.042 1.36,1.407"
     id="path840" />
  <path
     style="fill:none;stroke:#231f20;stroke-width:1.33171;stroke-linecap:round;stroke-linejoin:round;stroke-miterlimit:4;stroke-dasharray:none;stroke-opacity:1"
     d="m 13.44386,128.46681 c -5.4230002,1.355 -7.1670002,5.486 -3.391,8.177 1.244,0.891 3.5,1.339 5.146,0.746 1.573,-0.573 0.302,-1.953 -1.334,-2.235 -1.353,-0.235 -2.718,0.016 -3.697,0.667 -1.6670002,1.104 -1.9750002,2.588 -2.0000002,3.828 -0.052,2.052 1.791,5.109 6.2910002,5.24"
     id="path1277" />
</svg>
