<?xml version="1.0" encoding="UTF-8" standalone="no"?>
<!-- Created with Inkscape (http://www.inkscape.org/) -->

<svg
   version="1.1"
   id="svg1"
   width="230.11674"
   height="170.38625"
   viewBox="0 0 230.11674 170.38625"
   sodipodi:docname="cell.svg"
   xmlns:inkscape="http://www.inkscape.org/namespaces/inkscape"
   xmlns:sodipodi="http://sodipodi.sourceforge.net/DTD/sodipodi-0.dtd"
   xmlns="http://www.w3.org/2000/svg"
   xmlns:svg="http://www.w3.org/2000/svg">
  <sodipodi:namedview
     id="namedview1"
     pagecolor="#ffffff"
     bordercolor="#000000"
     borderopacity="0.25"
     inkscape:showpageshadow="2"
     inkscape:pageopacity="0.0"
     inkscape:pagecheckerboard="0"
     inkscape:deskcolor="#d1d1d1">
    <inkscape:page
       x="0"
       y="0"
       inkscape:label="1"
       id="page1"
       width="230.11674"
       height="170.38625"
       margin="0"
       bleed="0" />
  </sodipodi:namedview>
  <defs
     id="defs1" />
  <path
     style="fill:#ffffff;fill-opacity:1;fill-rule:nonzero;stroke:none"
     d="m 213.18974,18.874 h 16.927 V 0 h -16.927 z"
     id="path43" />
  <path
     style="fill:#fab41d;fill-opacity:1;fill-rule:nonzero;stroke:none"
     d="m 79.272739,137.974 c 0.203,-3.131 0.588,-3.781 1.005,-4.6 2.615,-5.161 0.031,-6.343 -2.828,-6.005 -3.369,0.386 -4.589,0.464 -4.401,6.75 0.052,1.75 -0.631,8.49 -0.631,8.49 -0.561,2.38 0.152,5.01 1.298,5.901 1.213,0.943 0.808,0.484 2.078,1.145 1.23,0.642 3.406,0.527 4.162,-0.448 0.724,-0.942 0.104,-2.494 -0.5,-4.838 -0.47,-1.859 -0.183,-6.395 -0.183,-6.395"
     id="path44" />
  <path
     style="fill:none;stroke:#231f20;stroke-width:0.565977;stroke-linecap:butt;stroke-linejoin:miter;stroke-miterlimit:4;stroke-dasharray:none;stroke-opacity:1"
     d="m 79.272739,137.974 c 0.203,-3.131 0.588,-3.781 1.005,-4.6 2.615,-5.161 0.031,-6.343 -2.828,-6.005 -3.369,0.386 -4.589,0.464 -4.401,6.75 0.052,1.75 -0.631,8.49 -0.631,8.49 -0.561,2.38 0.152,5.01 1.298,5.901 1.213,0.943 0.808,0.484 2.078,1.145 1.23,0.642 3.406,0.527 4.162,-0.448 0.724,-0.942 0.104,-2.494 -0.5,-4.838 -0.47,-1.859 -0.183,-6.395 -0.183,-6.395 z"
     id="path45" />
  <path
     style="fill:#ffffff;fill-opacity:1;fill-rule:nonzero;stroke:none"
     d="m 72.808739,155.401 c -0.041,0.244 -1.197,0.317 -1.203,0.844 0,0.53 0.771,0.729 1.604,2.53 l 0.011,0.022 c 0.568,1.333 1.604,2.27 2.855,2.374 2.072,0.178 3.937,-1.964 4.181,-4.77 0.245,-2.818 -1.239,-5.24 -3.312,-5.423 -1.975,-0.171 -3.776,1.787 -4.136,4.423"
     id="path46" />
  <path
     style="fill:none;stroke:#231f20;stroke-width:0.565977;stroke-linecap:butt;stroke-linejoin:miter;stroke-miterlimit:4;stroke-dasharray:none;stroke-opacity:1"
     d="m 72.808739,155.401 c -0.041,0.244 -1.197,0.317 -1.203,0.844 0,0.53 0.771,0.729 1.604,2.53 l 0.011,0.022 c 0.568,1.333 1.604,2.27 2.855,2.374 2.072,0.178 3.937,-1.964 4.181,-4.77 0.245,-2.818 -1.239,-5.24 -3.312,-5.423 -1.975,-0.171 -3.776,1.787 -4.136,4.423 z"
     id="path47" />
  <path
     style="fill:#231f20;fill-opacity:1;fill-rule:nonzero;stroke:none"
     d="m 59.731739,127.994 c 0.265,-2.244 0.01,-2.719 -0.932,-2.885 -0.631,-0.115 -1.167,-0.438 -1.548,-0.526 -1.26,-0.302 -3.515,-0.276 -9.864,1.448 -1.437,0.395 -3.469,0.927 -4.312,1.083 -1.328,0.251 -0.027,2.297 0.504,2.208 1.693,-0.287 2.871,-0.344 3.496,-0.369 0.427,-0.011 1.176,-0.146 2.837,0.021 2.516,0.244 3.985,0.76 6.1,0.719 0.979,-0.016 1.729,0.588 2.681,0.072 0.964,-0.5 1.038,-1.771 1.038,-1.771"
     id="path48" />
  <path
     style="fill:none;stroke:#231f20;stroke-width:0.565977;stroke-linecap:butt;stroke-linejoin:miter;stroke-miterlimit:4;stroke-dasharray:none;stroke-opacity:1"
     d="m 59.731739,127.994 c 0.265,-2.244 0.01,-2.719 -0.932,-2.885 -0.631,-0.115 -1.167,-0.438 -1.548,-0.526 -1.26,-0.302 -3.515,-0.276 -9.864,1.448 -1.437,0.395 -3.469,0.927 -4.312,1.083 -1.328,0.251 -0.027,2.297 0.504,2.208 1.693,-0.287 2.871,-0.344 3.496,-0.369 0.427,-0.011 1.176,-0.146 2.837,0.021 2.516,0.244 3.985,0.76 6.1,0.719 0.979,-0.016 1.729,0.588 2.681,0.072 0.964,-0.5 1.038,-1.771 1.038,-1.771 z"
     id="path49" />
  <path
     style="fill:#231f20;fill-opacity:1;fill-rule:nonzero;stroke:#231f20;stroke-width:0.565977;stroke-linecap:round;stroke-linejoin:round;stroke-miterlimit:4;stroke-dasharray:none;stroke-opacity:1"
     d="m 57.704739,129.474 c 0.885,1.104 2.975,0.583 3.308,0.651 4.905,1.03 5.287,0.973 9.072,1.494 5.48,0.755 9.344,0.427 10.715,-2.636 0.921,-2.072 0.561,-3.672 -0.36,-4.614 -1.022,-1.042 -4.042,-2.036 -6.266,-0.203 l -1.704,0.229 c -1.161,0.006 -1.733,0.016 -2.306,-0.021 -1,-0.077 -2.079,-0.093 -4.036,-0.124 -3.475,-0.057 -7.167,1.009 -7.167,1.009 -0.308,0.006 -0.563,0.12 -0.767,0.298"
     id="path50" />
  <path
     style="fill:#fab41d;fill-opacity:1;fill-rule:nonzero;stroke:none"
     d="m 80.756739,124.655 c -1.015,-1.046 -4.031,-2.057 -6.265,-0.229 l -0.875,7.767 c 3.755,0.192 6.396,-0.511 7.479,-2.923 0.932,-2.068 0.584,-3.672 -0.339,-4.615"
     id="path51" />
  <path
     style="fill:none;stroke:#231f20;stroke-width:0.565977;stroke-linecap:butt;stroke-linejoin:miter;stroke-miterlimit:4;stroke-dasharray:none;stroke-opacity:1"
     d="m 80.756739,124.655 c -1.015,-1.046 -4.031,-2.057 -6.265,-0.229 l -0.875,7.767 c 3.755,0.192 6.396,-0.511 7.479,-2.923 0.932,-2.068 0.584,-3.672 -0.339,-4.615 z"
     id="path52" />
  <path
     style="fill:#231f20;fill-opacity:1;fill-rule:nonzero;stroke:none"
     d="m 74.392739,167.135 c -0.333,-0.548 -0.016,-2.474 -0.375,-4.037 -0.25,-1.063 0.276,-3.749 -0.048,-4.787 -0.296,-0.952 -0.342,-1.41 0.678,-1.932 0.609,-0.317 1.985,-0.52 2.24,-0.077 0.588,1.036 0.697,1.973 0.598,3.036 -0.114,1.213 -0.708,4.473 -0.874,5.057 -0.418,1.47 -0.136,2.146 -0.203,2.547 -0.141,0.751 -0.464,0.88 -0.964,0.901 -0.964,0.031 -1.052,-0.708 -1.052,-0.708"
     id="path53" />
  <path
     style="fill:none;stroke:#231f20;stroke-width:0.565977;stroke-linecap:butt;stroke-linejoin:miter;stroke-miterlimit:4;stroke-dasharray:none;stroke-opacity:1"
     d="m 74.392739,167.135 c -0.333,-0.548 -0.016,-2.474 -0.375,-4.037 -0.25,-1.063 0.276,-3.749 -0.048,-4.787 -0.296,-0.952 -0.342,-1.41 0.678,-1.932 0.609,-0.317 1.985,-0.52 2.24,-0.077 0.588,1.036 0.697,1.973 0.598,3.036 -0.114,1.213 -0.708,4.473 -0.874,5.057 -0.418,1.47 -0.136,2.146 -0.203,2.547 -0.141,0.751 -0.464,0.88 -0.964,0.901 -0.964,0.031 -1.052,-0.708 -1.052,-0.708 z"
     id="path54" />
  <path
     style="fill:#231f20;fill-opacity:1;fill-rule:nonzero;stroke:none"
     d="m 74.600739,158.078 c -1.287,-0.172 -0.651,-2.109 -0.563,-2.636 0.09,-0.541 0.172,-2.099 0.074,-3.312 -0.094,-1.224 0.312,-2.792 0.14,-5.109 -0.088,-1.219 0.594,-2.464 2.365,-2.516 1.755,-0.058 2.448,0.906 2.339,2.401 -0.115,1.489 -0.85,2.844 -1.074,4.339 -0.218,1.5 -0.302,3.041 -0.306,4.254 -0.011,1.386 -0.516,2.063 -0.964,2.246 -1.104,0.462 -2.011,0.333 -2.011,0.333"
     id="path55" />
  <path
     style="fill:none;stroke:#231f20;stroke-width:0.565977;stroke-linecap:butt;stroke-linejoin:miter;stroke-miterlimit:4;stroke-dasharray:none;stroke-opacity:1"
     d="m 74.600739,158.078 c -1.287,-0.172 -0.651,-2.109 -0.563,-2.636 0.09,-0.541 0.172,-2.099 0.074,-3.312 -0.094,-1.224 0.312,-2.792 0.14,-5.109 -0.088,-1.219 0.594,-2.464 2.365,-2.516 1.755,-0.058 2.448,0.906 2.339,2.401 -0.115,1.489 -0.85,2.844 -1.074,4.339 -0.218,1.5 -0.302,3.041 -0.306,4.254 -0.011,1.386 -0.516,2.063 -0.964,2.246 -1.104,0.462 -2.011,0.333 -2.011,0.333 z"
     id="path56" />
  <path
     style="fill:#231f20;fill-opacity:1;fill-rule:nonzero;stroke:none"
     d="m 81.027739,169.499 c -0.703,0.23 -3.952,0.104 -4.692,0.032 -0.662,-0.053 -1.787,0.219 -2.188,-0.87 -0.178,-0.422 -0.11,-1.178 0,-1.479 0.089,-0.245 0.412,-0.317 0.797,-0.245 0.656,0.109 0.807,0.401 2.047,0.693 0,0 0.286,0.115 0.776,0.353 1.474,0.694 0.76,0.527 3.13,1.058 0.162,0.032 0.244,0.229 0.214,0.333 -0.058,0.177 -0.084,0.125 -0.084,0.125"
     id="path57" />
  <path
     style="fill:none;stroke:#231f20;stroke-width:0.565977;stroke-linecap:round;stroke-linejoin:round;stroke-miterlimit:4;stroke-dasharray:none;stroke-opacity:1"
     d="m 81.027739,169.499 c -0.703,0.23 -3.952,0.104 -4.692,0.032 -0.662,-0.053 -1.787,0.219 -2.188,-0.87 -0.178,-0.422 -0.11,-1.178 0,-1.479 0.089,-0.245 0.412,-0.317 0.797,-0.245 0.656,0.109 0.807,0.401 2.047,0.693 0,0 0.286,0.115 0.776,0.353 1.474,0.694 0.76,0.527 3.13,1.058 0.162,0.032 0.244,0.229 0.214,0.333 -0.058,0.177 -0.084,0.125 -0.084,0.125 z"
     id="path59" />
  <path
     style="fill:#231f20;fill-opacity:1;fill-rule:nonzero;stroke:none"
     d="m 40.575739,126.682 c 0.817,-1.084 1.771,-0.797 2.333,0.073 0.172,0.26 0.588,0.296 0.739,0.567 0.333,0.62 -0.219,2.271 -1.719,2.161 -0.104,-0.005 -0.905,0.178 -1.52,0.235 -1.209,0.089 -3.677,-0.301 -5.234,-2.511 -0.735,-1.041 0.02,-1.281 0.448,-0.957 1.344,1.057 1.666,0.885 2.129,1.025 1.543,0.511 2.824,-0.593 2.824,-0.593"
     id="path61" />
  <path
     style="fill:none;stroke:#231f20;stroke-width:0.332927;stroke-linecap:butt;stroke-linejoin:miter;stroke-miterlimit:4;stroke-dasharray:none;stroke-opacity:1"
     d="m 40.575739,126.682 c 0.817,-1.084 1.771,-0.797 2.333,0.073 0.172,0.26 0.588,0.296 0.739,0.567 0.333,0.62 -0.219,2.271 -1.719,2.161 -0.104,-0.005 -0.905,0.178 -1.52,0.235 -1.209,0.089 -3.677,-0.301 -5.234,-2.511 -0.735,-1.041 0.02,-1.281 0.448,-0.957 1.344,1.057 1.666,0.885 2.129,1.025 1.543,0.511 2.824,-0.593 2.824,-0.593 z"
     id="path62" />
  <path
     style="fill:#fab41d;fill-opacity:1;fill-rule:nonzero;stroke:none"
     d="m 7.132739,152.166 c -2.245,2.193 -3.568,4.115 -4.166,4.808 -2.07899996,2.421 -2.52699996,5.009 -0.167,6.671 2.765,1.953 5.317,0.772 7.895,-2.495 1.089,-1.385 4.229,-3.839 4.229,-3.839 2.787,-1.661 3.824,-4.984 3.959,-6.244 0.161,-1.526 0.645,-1.636 0.021,-2.932 -1.177,-2.401 -2.256,-2.74 -3.401,-2.428 -1.151,0.303 -2.068,1.214 -4.042,2.626 -1.89,1.349 -4.328,3.833 -4.328,3.833"
     id="path63" />
  <path
     style="fill:none;stroke:#231f20;stroke-width:0.565977;stroke-linecap:butt;stroke-linejoin:miter;stroke-miterlimit:4;stroke-dasharray:none;stroke-opacity:1"
     d="m 7.132739,152.166 c -2.245,2.193 -3.568,4.115 -4.166,4.808 -2.07899996,2.421 -2.52699996,5.009 -0.167,6.671 2.765,1.953 5.317,0.772 7.895,-2.495 1.089,-1.385 4.229,-3.839 4.229,-3.839 2.787,-1.661 3.824,-4.984 3.959,-6.244 0.161,-1.526 0.645,-1.636 0.021,-2.932 -1.177,-2.401 -2.256,-2.74 -3.401,-2.428 -1.151,0.303 -2.068,1.214 -4.042,2.626 -1.89,1.349 -4.328,3.833 -4.328,3.833 z"
     id="path64" />
  <path
     style="fill:#ffffff;fill-opacity:1;fill-rule:nonzero;stroke:none"
     d="m 25.002739,147.026 c 0.224,-0.1 0.926,0.807 1.364,0.515 0.437,-0.291 0.177,-1.036 1.198,-2.744 l 0.015,-0.022 c 0.787,-1.218 0.975,-2.593 0.365,-3.686 -1.01,-1.819 -3.833,-2.172 -6.297,-0.798 -2.468,1.38 -3.64,3.963 -2.635,5.776 0.968,1.735 3.594,2.135 5.99,0.959"
     id="path65" />
  <path
     style="fill:none;stroke:#231f20;stroke-width:0.565977;stroke-linecap:butt;stroke-linejoin:miter;stroke-miterlimit:4;stroke-dasharray:none;stroke-opacity:1"
     d="m 25.002739,147.026 c 0.224,-0.1 0.926,0.807 1.364,0.515 0.437,-0.291 0.177,-1.036 1.198,-2.744 l 0.015,-0.022 c 0.787,-1.218 0.975,-2.593 0.365,-3.686 -1.01,-1.819 -3.833,-2.172 -6.297,-0.798 -2.468,1.38 -3.64,3.963 -2.635,5.776 0.968,1.735 3.594,2.135 5.99,0.959 z"
     id="path66" />
  <path
     style="fill:#231f20;fill-opacity:1;fill-rule:nonzero;stroke:none"
     d="m 19.783739,168.963 c -0.469,-0.448 -0.661,-2.385 -1.427,-3.802 -0.516,-0.954 -0.714,-3.692 -1.297,-4.61 -0.536,-0.833 -0.703,-1.27 0.151,-2.046 0.505,-0.459 1.77,-1.016 2.136,-0.651 0.838,0.839 1.186,1.719 1.374,2.771 0.208,1.197 0.484,4.5 0.484,5.114 -0.02,1.52 0.432,2.104 0.47,2.511 0.062,0.755 -0.214,0.963 -0.699,1.115 -0.911,0.28 -1.192,-0.402 -1.192,-0.402"
     id="path67" />
  <path
     style="fill:none;stroke:#231f20;stroke-width:0.565977;stroke-linecap:butt;stroke-linejoin:miter;stroke-miterlimit:4;stroke-dasharray:none;stroke-opacity:1"
     d="m 19.783739,168.963 c -0.469,-0.448 -0.661,-2.385 -1.427,-3.802 -0.516,-0.954 -0.714,-3.692 -1.297,-4.61 -0.536,-0.833 -0.703,-1.27 0.151,-2.046 0.505,-0.459 1.77,-1.016 2.136,-0.651 0.838,0.839 1.186,1.719 1.374,2.771 0.208,1.197 0.484,4.5 0.484,5.114 -0.02,1.52 0.432,2.104 0.47,2.511 0.062,0.755 -0.214,0.963 -0.699,1.115 -0.911,0.28 -1.192,-0.402 -1.192,-0.402 z"
     id="path68" />
  <path
     style="fill:#231f20;fill-opacity:1;fill-rule:nonzero;stroke:none"
     d="m 17.606739,160.161 c -1.282,0.172 -1.183,-1.854 -1.24,-2.402 -0.052,-0.536 -0.386,-2.057 -0.791,-3.208 -0.412,-1.156 -0.433,-2.77 -1.209,-4.964 -0.406,-1.156 -0.067,-2.536 1.625,-3.052 1.677,-0.514 2.599,0.235 2.88,1.704 0.287,1.468 -0.068,2.968 0.115,4.474 0.182,1.5 0.505,3.01 0.817,4.188 0.355,1.333 0.037,2.125 -0.343,2.416 -0.942,0.734 -1.854,0.844 -1.854,0.844"
     id="path70" />
  <path
     style="fill:none;stroke:#231f20;stroke-width:0.565977;stroke-linecap:butt;stroke-linejoin:miter;stroke-miterlimit:4;stroke-dasharray:none;stroke-opacity:1"
     d="m 17.606739,160.161 c -1.282,0.172 -1.183,-1.854 -1.24,-2.402 -0.052,-0.536 -0.386,-2.057 -0.791,-3.208 -0.412,-1.156 -0.433,-2.77 -1.209,-4.964 -0.406,-1.156 -0.067,-2.536 1.625,-3.052 1.677,-0.514 2.599,0.235 2.88,1.704 0.287,1.468 -0.068,2.968 0.115,4.474 0.182,1.5 0.505,3.01 0.817,4.188 0.355,1.333 0.037,2.125 -0.343,2.416 -0.942,0.734 -1.854,0.844 -1.854,0.844 z"
     id="path71" />
  <path
     style="fill:#231f20;fill-opacity:1;fill-rule:nonzero;stroke:none"
     d="m 24.080739,168.229 c 0.37,-2.24 0.146,-2.719 -0.786,-2.943 -0.62,-0.151 -1.147,-0.5 -1.516,-0.609 -1.251,-0.36 -3.495,-0.454 -9.927,0.953 -1.459,0.317 -3.511,0.749 -4.36,0.859 -1.349,0.177 -0.151,2.292 0.38,2.229 1.704,-0.197 2.891,-0.203 3.516,-0.187 0.427,0.004 1.183,-0.084 2.828,0.162 2.5,0.374 3.943,0.962 6.057,1.03 0.984,0.032 1.703,0.678 2.683,0.219 0.984,-0.464 1.125,-1.713 1.125,-1.713"
     id="path72" />
  <path
     style="fill:none;stroke:#231f20;stroke-width:0.565977;stroke-linecap:butt;stroke-linejoin:miter;stroke-miterlimit:4;stroke-dasharray:none;stroke-opacity:1"
     d="m 24.080739,168.229 c 0.37,-2.24 0.146,-2.719 -0.786,-2.943 -0.62,-0.151 -1.147,-0.5 -1.516,-0.609 -1.251,-0.36 -3.495,-0.454 -9.927,0.953 -1.459,0.317 -3.511,0.749 -4.36,0.859 -1.349,0.177 -0.151,2.292 0.38,2.229 1.704,-0.197 2.891,-0.203 3.516,-0.187 0.427,0.004 1.183,-0.084 2.828,0.162 2.5,0.374 3.943,0.962 6.057,1.03 0.984,0.032 1.703,0.678 2.683,0.219 0.984,-0.464 1.125,-1.713 1.125,-1.713 z"
     id="path74" />
  <path
     style="fill:#231f20;fill-opacity:1;fill-rule:nonzero;stroke:#231f20;stroke-width:0.565977;stroke-linecap:round;stroke-linejoin:miter;stroke-miterlimit:4;stroke-dasharray:none;stroke-opacity:1"
     d="m 23.824739,165.406 c -0.536,-1.24 -2.541,-1.48 -2.817,-1.651 -4.235,-2.693 -4.604,-2.772 -7.969,-4.589 -4.864,-2.631 -8.599,-3.683 -10.948,-1.297 -1.59899996,1.614 -1.82299996,3.24 -1.29099996,4.442 0.58799996,1.339 3.06699996,3.33 5.79599996,2.396 l 1.672,0.382 c 1.089,0.405 1.631,0.593 2.156,0.837 0.912,0.417 1.912,0.808 3.729,1.532 3.23,1.276 7.063,1.568 7.063,1.568 0.292,0.104 0.568,0.083 0.823,-0.011"
     id="path76" />
  <path
     style="fill:#fab41d;fill-opacity:1;fill-rule:nonzero;stroke:none"
     d="m 2.090739,157.865 c -1.60399996,1.618 -1.82299996,3.244 -1.29099996,4.446 0.58799996,1.339 3.06699996,3.33 5.79599996,2.396 l 3.527,-6.973 c -3.459,-1.489 -6.172,-1.751 -8.032,0.131"
     id="path77" />
  <path
     style="fill:none;stroke:#231f20;stroke-width:0.565977;stroke-linecap:round;stroke-linejoin:round;stroke-miterlimit:4;stroke-dasharray:none;stroke-opacity:1"
     d="m 2.090739,157.865 c -1.60399996,1.618 -1.82299996,3.244 -1.29099996,4.446 0.58799996,1.339 3.06699996,3.33 5.79599996,2.396 l 3.527,-6.973 c -3.459,-1.489 -6.172,-1.751 -8.032,0.131 z"
     id="path79" />
  <path
     style="fill:#231f20;fill-opacity:1;fill-rule:nonzero;stroke:none"
     d="m 6.527739,164.521 c 0.901,-0.604 1.428,0.536 1.953,1.64 0.136,0.281 0.287,0.532 0.391,0.817 0.437,1.147 0.172,2.157 -2.749,1.505 -0.11,-0.02 -2.292,0.131 -2.896,0.276 -2.89599996,0.71 -2.59399996,1.491 -2.89599996,0.71 -0.203,-0.522 0.193,-0.839 0.70199996,-1.21 0.683,-0.509 3.262,-2.093 3.636,-2.358 0.37,-0.26 1.859,-1.38 1.859,-1.38"
     id="path81" />
  <path
     style="fill:none;stroke:#231f20;stroke-width:0.565977;stroke-linecap:butt;stroke-linejoin:miter;stroke-miterlimit:4;stroke-dasharray:none;stroke-opacity:1"
     d="m 6.527739,164.521 c 0.901,-0.604 1.428,0.536 1.953,1.64 0.136,0.281 0.287,0.532 0.391,0.817 0.437,1.147 0.172,2.157 -2.749,1.505 -0.11,-0.02 -2.292,0.131 -2.896,0.276 -2.89599996,0.71 -2.59399996,1.491 -2.89599996,0.71 -0.203,-0.522 0.193,-0.839 0.70199996,-1.21 0.683,-0.509 3.262,-2.093 3.636,-2.358 0.37,-0.26 1.859,-1.38 1.859,-1.38 z"
     id="path83" />
</svg>
