<?xml version="1.0" encoding="UTF-8" standalone="no"?>
<!-- Created with Inkscape (http://www.inkscape.org/) -->

<svg
   version="1.1"
   id="svg1"
   width="119.36682"
   height="84.921585"
   viewBox="0 0 119.36682 84.921583"
   sodipodi:docname="cell.svg"
   xmlns:inkscape="http://www.inkscape.org/namespaces/inkscape"
   xmlns:sodipodi="http://sodipodi.sourceforge.net/DTD/sodipodi-0.dtd"
   xmlns="http://www.w3.org/2000/svg"
   xmlns:svg="http://www.w3.org/2000/svg">
  <sodipodi:namedview
     id="namedview1"
     pagecolor="#ffffff"
     bordercolor="#000000"
     borderopacity="0.25"
     inkscape:showpageshadow="2"
     inkscape:pageopacity="0.0"
     inkscape:pagecheckerboard="0"
     inkscape:deskcolor="#d1d1d1">
    <inkscape:page
       x="0"
       y="0"
       inkscape:label="1"
       id="page1"
       width="119.36682"
       height="84.921585"
       margin="0"
       bleed="0" />
  </sodipodi:namedview>
  <defs
     id="defs1" />
  <path
     style="fill:#231f20;fill-opacity:1;fill-rule:nonzero;stroke:none"
     d="m 52.256408,80.359858 c -0.125,-1.348 0.771,-1.791 1.776,-1.525 0.297,0.072 0.636,-0.178 0.921,-0.084 0.667,0.234 1.371,1.828 0.194,2.756 -0.079,0.066 -0.542,0.744 -0.964,1.202 -0.834,0.88 -2.922,2.251 -5.558,1.672 -1.249,-0.265 -0.853,-0.953 -0.317,-1.005 1.703,-0.125 1.828,-0.473 2.265,-0.677 1.48,-0.667 1.683,-2.339 1.683,-2.339"
     id="path305" />
  <path
     style="fill:none;stroke:#231f20;stroke-width:0.332927;stroke-linecap:butt;stroke-linejoin:miter;stroke-miterlimit:4;stroke-dasharray:none;stroke-opacity:1"
     d="m 52.256408,80.359858 c -0.125,-1.348 0.771,-1.791 1.776,-1.525 0.297,0.072 0.636,-0.178 0.921,-0.084 0.667,0.234 1.371,1.828 0.194,2.756 -0.079,0.066 -0.542,0.744 -0.964,1.202 -0.834,0.88 -2.922,2.251 -5.558,1.672 -1.249,-0.265 -0.853,-0.953 -0.317,-1.005 1.703,-0.125 1.828,-0.473 2.265,-0.677 1.48,-0.667 1.683,-2.339 1.683,-2.339 z"
     id="path307" />
  <path
     style="fill:#231f20;fill-opacity:1;fill-rule:nonzero;stroke:none"
     d="m 64.251408,65.703858 c -1.688,-1.52 -2.219,-1.583 -2.902,-0.911 -0.457,0.443 -1.03,0.698 -1.328,0.952 -0.973,0.855 -2.26,2.71 -4.525,8.886 -0.516,1.396 -1.256,3.365 -1.62,4.13 -0.563,1.235 1.864,1.366 2.093,0.875 0.746,-1.547 1.38,-2.536 1.73,-3.057 0.234,-0.359 0.557,-1.047 1.656,-2.302 1.65,-1.912 2.928,-2.808 4.12,-4.557 0.557,-0.813 1.484,-1.068 1.62,-2.147 0.14,-1.077 -0.844,-1.869 -0.844,-1.869"
     id="path309" />
  <path
     style="fill:none;stroke:#231f20;stroke-width:0.565977;stroke-linecap:butt;stroke-linejoin:miter;stroke-miterlimit:4;stroke-dasharray:none;stroke-opacity:1"
     d="m 64.251408,65.703858 c -1.688,-1.52 -2.219,-1.583 -2.902,-0.911 -0.457,0.443 -1.03,0.698 -1.328,0.952 -0.973,0.855 -2.26,2.71 -4.525,8.886 -0.516,1.396 -1.256,3.365 -1.62,4.13 -0.563,1.235 1.864,1.366 2.093,0.875 0.746,-1.547 1.38,-2.536 1.73,-3.057 0.234,-0.359 0.557,-1.047 1.656,-2.302 1.65,-1.912 2.928,-2.808 4.12,-4.557 0.557,-0.813 1.484,-1.068 1.62,-2.147 0.14,-1.077 -0.844,-1.869 -0.844,-1.869 z"
     id="path310" />
  <path
     style="fill:#231f20;fill-opacity:1;fill-rule:nonzero;stroke:#231f20;stroke-width:0.565977;stroke-linecap:round;stroke-linejoin:round;stroke-miterlimit:4;stroke-dasharray:none;stroke-opacity:1"
     d="m 64.272408,68.208858 c 1.416,-0.078 2.203,-2.088 2.453,-2.317 3.676,-3.407 3.854,-3.745 6.474,-6.532 3.786,-4.031 5.754,-7.375 4.057,-10.26 -1.156,-1.953 -2.672,-2.588 -3.969,-2.38 -1.443,0.229 -4,2.115 -3.796,4.995 l -0.808,1.516 c -0.662,0.957 -0.99,1.426 -1.348,1.869 -0.647,0.771 -1.282,1.641 -2.439,3.213 -2.061,2.808 -3.328,6.432 -3.328,6.432 -0.176,0.256 -0.219,0.538 -0.203,0.798"
     id="path311" />
  <path
     style="fill:#fab41d;fill-opacity:1;fill-rule:nonzero;stroke:none"
     d="m 80.745408,57.604858 c -1.776,-2.578 -1.885,-3.328 -2.068,-4.229 -1.161,-5.661 -3.921,-4.984 -5.952,-2.943 -2.396,2.402 -3.302,3.214 0.76,8.027 1.126,1.337 4.792,7.036 4.792,7.036 1.036,2.219 3.224,3.833 4.682,3.812 1.532,-0.015 0.928,-0.12 2.338,-0.391 1.36,-0.26 2.995,-1.708 2.975,-2.942 -0.021,-1.187 -1.464,-2.015 -3.396,-3.474 -1.527,-1.161 -4.131,-4.896 -4.131,-4.896"
     id="path312" />
  <path
     style="fill:none;stroke:#231f20;stroke-width:0.565977;stroke-linecap:butt;stroke-linejoin:miter;stroke-miterlimit:4;stroke-dasharray:none;stroke-opacity:1"
     d="m 80.745408,57.604858 c -1.776,-2.578 -1.885,-3.328 -2.068,-4.229 -1.161,-5.661 -3.921,-4.984 -5.952,-2.943 -2.396,2.402 -3.302,3.214 0.76,8.027 1.126,1.337 4.792,7.036 4.792,7.036 1.036,2.219 3.224,3.833 4.682,3.812 1.532,-0.015 0.928,-0.12 2.338,-0.391 1.36,-0.26 2.995,-1.708 2.975,-2.942 -0.021,-1.187 -1.464,-2.015 -3.396,-3.474 -1.527,-1.161 -4.131,-4.896 -4.131,-4.896 z"
     id="path313" />
  <path
     style="fill:#ffffff;fill-opacity:1;fill-rule:nonzero;stroke:none"
     d="m 86.532408,75.266858 c 0.115,0.218 -0.74,1 -0.417,1.412 0.329,0.416 1.053,0.093 2.829,0.989 l 0.02,0.005 c 1.276,0.687 2.667,0.782 3.713,0.083 1.735,-1.151 1.866,-3.984 0.308,-6.339 -1.562,-2.358 -4.229,-3.328 -5.964,-2.181 -1.656,1.093 -1.849,3.744 -0.489,6.031"
     id="path314" />
  <path
     style="fill:none;stroke:#231f20;stroke-width:0.565977;stroke-linecap:butt;stroke-linejoin:miter;stroke-miterlimit:4;stroke-dasharray:none;stroke-opacity:1"
     d="m 86.532408,75.266858 c 0.115,0.218 -0.74,1 -0.417,1.412 0.329,0.416 1.053,0.093 2.829,0.989 l 0.02,0.005 c 1.276,0.687 2.667,0.782 3.713,0.083 1.735,-1.151 1.866,-3.984 0.308,-6.339 -1.562,-2.358 -4.229,-3.328 -5.964,-2.181 -1.656,1.093 -1.849,3.744 -0.489,6.031 z"
     id="path315" />
  <path
     style="fill:#231f20;fill-opacity:1;fill-rule:nonzero;stroke:none"
     d="m 63.709408,36.812858 c 2.006,-1.057 2.255,-1.53 1.859,-2.405 -0.26,-0.589 -0.296,-1.215 -0.437,-1.573 -0.468,-1.208 -1.771,-3.052 -6.787,-7.314 -1.135,-0.962 -2.724,-2.332999 -3.323,-2.941999 -0.962,-0.958 -1.916,1.281 -1.541,1.665999 1.197,1.235 1.912,2.172 2.281,2.672 0.255,0.344 0.787,0.891 1.588,2.35 1.224,2.213 1.631,3.718 2.866,5.437 0.566,0.803 0.489,1.76 1.453,2.256 0.957,0.509 2.041,-0.147 2.041,-0.147"
     id="path316" />
  <path
     style="fill:none;stroke:#231f20;stroke-width:0.565977;stroke-linecap:butt;stroke-linejoin:miter;stroke-miterlimit:4;stroke-dasharray:none;stroke-opacity:1"
     d="m 63.709408,36.812858 c 2.006,-1.057 2.255,-1.53 1.859,-2.405 -0.26,-0.589 -0.296,-1.215 -0.437,-1.573 -0.468,-1.208 -1.771,-3.052 -6.787,-7.314 -1.135,-0.962 -2.724,-2.332999 -3.323,-2.941999 -0.962,-0.958 -1.916,1.281 -1.541,1.665999 1.197,1.235 1.912,2.172 2.281,2.672 0.255,0.344 0.787,0.891 1.588,2.35 1.224,2.213 1.631,3.718 2.866,5.437 0.566,0.803 0.489,1.76 1.453,2.256 0.957,0.509 2.041,-0.147 2.041,-0.147 z"
     id="path317" />
  <path
     style="fill:#231f20;fill-opacity:1;fill-rule:nonzero;stroke:#231f20;stroke-width:0.565977;stroke-linecap:round;stroke-linejoin:round;stroke-miterlimit:4;stroke-dasharray:none;stroke-opacity:1"
     d="m 61.355408,35.974858 c -0.416,1.354 1.198,2.786 1.333,3.1 1.928,4.629 2.183,4.91 3.896,8.322 2.484,4.948 4.943,7.948 8.235,7.348 2.234,-0.416 3.349,-1.618 3.604,-2.905 0.281,-1.432 -0.604,-4.489 -3.38,-5.287 l -1.147,-1.276 c -0.667,-0.953 -1,-1.422 -1.296,-1.912 -0.495,-0.869 -1.095,-1.765 -2.177,-3.401 -1.912,-2.895 -4.88,-5.333 -4.88,-5.333 -0.183,-0.255 -0.423,-0.395 -0.688,-0.463"
     id="path318" />
  <path
     style="fill:#fab41d;fill-opacity:1;fill-rule:nonzero;stroke:none"
     d="m 75.011408,46.963858 -6.9,3.672 c 1.962,3.204 4.041,4.985 6.645,4.516 2.229,-0.407 3.349,-1.604 3.609,-2.891 0.292,-1.437 -0.584,-4.489 -3.354,-5.297"
     id="path319" />
  <path
     style="fill:none;stroke:#231f20;stroke-width:0.565977;stroke-linecap:butt;stroke-linejoin:miter;stroke-miterlimit:4;stroke-dasharray:none;stroke-opacity:1"
     d="m 75.011408,46.963858 -6.9,3.672 c 1.962,3.204 4.041,4.985 6.645,4.516 2.229,-0.407 3.349,-1.604 3.609,-2.891 0.292,-1.437 -0.584,-4.489 -3.354,-5.297 z"
     id="path320" />
  <path
     style="fill:#231f20;fill-opacity:1;fill-rule:nonzero;stroke:none"
     d="m 95.693408,83.074858 c -0.604,-0.199 -1.62,-1.866 -2.912,-2.824 -0.874,-0.646 -2.218,-3.031 -3.14,-3.61 -0.844,-0.53 -1.177,-0.848 -0.74,-1.91 0.262,-0.631 1.172,-1.678 1.652,-1.506 1.119,0.406 1.818,1.047 2.432,1.916 0.698,0.995 2.359,3.855 2.62,4.412 0.635,1.386 1.287,1.719 1.495,2.068 0.38,0.662 0.224,0.974 -0.147,1.312 -0.713,0.651 -1.26,0.142 -1.26,0.142"
     id="path321" />
  <path
     style="fill:none;stroke:#231f20;stroke-width:0.565977;stroke-linecap:butt;stroke-linejoin:miter;stroke-miterlimit:4;stroke-dasharray:none;stroke-opacity:1"
     d="m 95.693408,83.074858 c -0.604,-0.199 -1.62,-1.866 -2.912,-2.824 -0.874,-0.646 -2.218,-3.031 -3.14,-3.61 -0.844,-0.53 -1.177,-0.848 -0.74,-1.91 0.262,-0.631 1.172,-1.678 1.652,-1.506 1.119,0.406 1.818,1.047 2.432,1.916 0.698,0.995 2.359,3.855 2.62,4.412 0.635,1.386 1.287,1.719 1.495,2.068 0.38,0.662 0.224,0.974 -0.147,1.312 -0.713,0.651 -1.26,0.142 -1.26,0.142 z"
     id="path322" />
  <path
     style="fill:#231f20;fill-opacity:1;fill-rule:nonzero;stroke:none"
     d="m 89.969408,76.052858 c -1.088,0.708 -1.864,-1.177 -2.145,-1.636 -0.281,-0.468 -1.224,-1.702 -2.095,-2.562 -0.864,-0.875 -1.572,-2.323 -3.208,-3.979 -0.858,-0.864 -1.15,-2.26 0.162,-3.448 1.297,-1.183 2.448,-0.901 3.338,0.308 0.88,1.203 1.204,2.713 2.006,3.995 0.808,1.276 1.745,2.505 2.532,3.432 0.889,1.057 0.942,1.912 0.718,2.333 -0.532,1.073 -1.308,1.557 -1.308,1.557"
     id="path324" />
  <path
     style="fill:none;stroke:#231f20;stroke-width:0.565977;stroke-linecap:butt;stroke-linejoin:miter;stroke-miterlimit:4;stroke-dasharray:none;stroke-opacity:1"
     d="m 89.969408,76.052858 c -1.088,0.708 -1.864,-1.177 -2.145,-1.636 -0.281,-0.468 -1.224,-1.702 -2.095,-2.562 -0.864,-0.875 -1.572,-2.323 -3.208,-3.979 -0.858,-0.864 -1.15,-2.26 0.162,-3.448 1.297,-1.183 2.448,-0.901 3.338,0.308 0.88,1.203 1.204,2.713 2.006,3.995 0.808,1.276 1.745,2.505 2.532,3.432 0.889,1.057 0.942,1.912 0.718,2.333 -0.532,1.073 -1.308,1.557 -1.308,1.557 z"
     id="path325" />
  <path
     style="fill:#231f20;fill-opacity:1;fill-rule:nonzero;stroke:none"
     d="m 101.99141,84.506858 c -0.699,0.229 -3.948002,0.104 -4.688002,0.036 -0.662,-0.058 -1.787,0.218 -2.188,-0.87 -0.176,-0.422 -0.11,-1.182 0,-1.48 0.084,-0.249 0.406,-0.317 0.792,-0.249 0.661,0.109 0.813,0.401 2.046,0.692 0,0 0.287,0.115 0.776,0.355 1.480002,0.693 0.767,0.526 3.131002,1.057 0.167,0.036 0.245,0.229 0.219,0.339 -0.058,0.177 -0.088,0.12 -0.088,0.12"
     id="path326" />
  <path
     style="fill:none;stroke:#231f20;stroke-width:0.565977;stroke-linecap:round;stroke-linejoin:round;stroke-miterlimit:4;stroke-dasharray:none;stroke-opacity:1"
     d="m 101.99141,84.506858 c -0.699,0.229 -3.948002,0.104 -4.688002,0.036 -0.662,-0.058 -1.787,0.218 -2.188,-0.87 -0.176,-0.422 -0.11,-1.182 0,-1.48 0.084,-0.249 0.406,-0.317 0.792,-0.249 0.661,0.109 0.813,0.401 2.046,0.692 0,0 0.287,0.115 0.776,0.355 1.480002,0.693 0.767,0.526 3.131002,1.057 0.167,0.036 0.245,0.229 0.219,0.339 -0.058,0.177 -0.088,0.12 -0.088,0.12 z"
     id="path328" />
  <path
     style="fill:#231f20;fill-opacity:1;fill-rule:nonzero;stroke:none"
     d="m 53.959408,20.271859 c 1.349,0.063 1.657,1.011 1.261,1.968 -0.12,0.281 0.083,0.652 -0.057,0.923 -0.319,0.63 -1.991,1.108999 -2.751,-0.188 -0.052,-0.088 -0.656,-0.64 -1.052,-1.124 -0.76,-0.944 -1.828,-3.199 -0.891,-5.735 0.438,-1.199 1.068,-0.713 1.042,-0.172 -0.11,1.703 0.214,1.875 0.36,2.339 0.453,1.557 2.088,1.989 2.088,1.989"
     id="path330" />
  <path
     style="fill:none;stroke:#231f20;stroke-width:0.332927;stroke-linecap:butt;stroke-linejoin:miter;stroke-miterlimit:4;stroke-dasharray:none;stroke-opacity:1"
     d="m 53.959408,20.271859 c 1.349,0.063 1.657,1.011 1.261,1.968 -0.12,0.281 0.083,0.652 -0.057,0.923 -0.319,0.63 -1.991,1.108999 -2.751,-0.188 -0.052,-0.088 -0.656,-0.64 -1.052,-1.124 -0.76,-0.944 -1.828,-3.199 -0.891,-5.735 0.438,-1.199 1.068,-0.713 1.042,-0.172 -0.11,1.703 0.214,1.875 0.36,2.339 0.453,1.557 2.088,1.989 2.088,1.989 z"
     id="path331" />
  <path
     style="fill:#fab41d;fill-opacity:1;fill-rule:nonzero;stroke:none"
     d="m 116.60541,52.651858 c 0.203,-3.125 0.588,-3.781 1.005,-4.599 2.615,-5.156 0.031,-6.344 -2.829,-6.005 -3.369,0.391 -4.588,0.464 -4.4,6.749 0.052,1.756 -0.625,8.496 -0.625,8.496 -0.568,2.38 0.145,5.004 1.292,5.9 1.218,0.943 0.806,0.48 2.077,1.142 1.229,0.645 3.412,0.53 4.161,-0.448 0.724,-0.943 0.106,-2.495 -0.5,-4.839 -0.468,-1.855 -0.181,-6.396 -0.181,-6.396"
     id="path332" />
  <path
     style="fill:none;stroke:#231f20;stroke-width:0.565977;stroke-linecap:butt;stroke-linejoin:miter;stroke-miterlimit:4;stroke-dasharray:none;stroke-opacity:1"
     d="m 116.60541,52.651858 c 0.203,-3.125 0.588,-3.781 1.005,-4.599 2.615,-5.156 0.031,-6.344 -2.829,-6.005 -3.369,0.391 -4.588,0.464 -4.4,6.749 0.052,1.756 -0.625,8.496 -0.625,8.496 -0.568,2.38 0.145,5.004 1.292,5.9 1.218,0.943 0.806,0.48 2.077,1.142 1.229,0.645 3.412,0.53 4.161,-0.448 0.724,-0.943 0.106,-2.495 -0.5,-4.839 -0.468,-1.855 -0.181,-6.396 -0.181,-6.396 z"
     id="path333" />
  <path
     style="fill:#ffffff;fill-opacity:1;fill-rule:nonzero;stroke:none"
     d="m 110.14141,70.078858 c -0.041,0.245 -1.197,0.324 -1.203,0.849 0,0.527 0.771,0.724 1.604,2.527 l 0.011,0.025 c 0.567,1.328 1.604,2.265 2.853,2.371 2.074,0.176 3.938,-1.964 4.183,-4.772 0.245,-2.818 -1.24,-5.234 -3.312,-5.416 -1.975,-0.178 -3.776,1.781 -4.136,4.416"
     id="path334" />
  <path
     style="fill:none;stroke:#231f20;stroke-width:0.565977;stroke-linecap:butt;stroke-linejoin:miter;stroke-miterlimit:4;stroke-dasharray:none;stroke-opacity:1"
     d="m 110.14141,70.078858 c -0.041,0.245 -1.197,0.324 -1.203,0.849 0,0.527 0.771,0.724 1.604,2.527 l 0.011,0.025 c 0.567,1.328 1.604,2.265 2.853,2.371 2.074,0.176 3.938,-1.964 4.183,-4.772 0.245,-2.818 -1.24,-5.234 -3.312,-5.416 -1.975,-0.178 -3.776,1.781 -4.136,4.416 z"
     id="path335" />
  <path
     style="fill:#231f20;fill-opacity:1;fill-rule:nonzero;stroke:none"
     d="m 114.15741,25.042858 c 2.249,0.25 2.719,-0.006 2.885,-0.948 0.115,-0.630999 0.432,-1.171999 0.52,-1.551999 0.298,-1.255 0.262,-3.511 -1.494,-9.855 -0.4,-1.432 -0.938,-3.4629999 -1.099,-4.3069999 -0.255,-1.328 -2.297,-0.016 -2.208,0.516 0.297,1.6869999 0.359,2.8639999 0.385,3.4899999 0.016,0.426 0.151,1.177 -0.005,2.838 -0.235,2.516 -0.745,3.99 -0.693,6.104 0.021,0.979 -0.583,1.735 -0.062,2.682999 0.5,0.957 1.771,1.031 1.771,1.031"
     id="path336" />
  <path
     style="fill:none;stroke:#231f20;stroke-width:0.565977;stroke-linecap:butt;stroke-linejoin:miter;stroke-miterlimit:4;stroke-dasharray:none;stroke-opacity:1"
     d="m 114.15741,25.042858 c 2.249,0.25 2.719,-0.006 2.885,-0.948 0.115,-0.630999 0.432,-1.171999 0.52,-1.551999 0.298,-1.255 0.262,-3.511 -1.494,-9.855 -0.4,-1.432 -0.938,-3.4629999 -1.099,-4.3069999 -0.255,-1.328 -2.297,-0.016 -2.208,0.516 0.297,1.6869999 0.359,2.8639999 0.385,3.4899999 0.016,0.426 0.151,1.177 -0.005,2.838 -0.235,2.516 -0.745,3.99 -0.693,6.104 0.021,0.979 -0.583,1.735 -0.062,2.682999 0.5,0.957 1.771,1.031 1.771,1.031 z"
     id="path337" />
  <path
     style="fill:#231f20;fill-opacity:1;fill-rule:nonzero;stroke:#231f20;stroke-width:0.565977;stroke-linecap:round;stroke-linejoin:round;stroke-miterlimit:4;stroke-dasharray:none;stroke-opacity:1"
     d="m 112.67241,23.016859 c -1.099,0.89 -0.567,2.983999 -0.635,3.311999 -1.011,4.916 -0.953,5.292 -1.453,9.079 -0.735,5.484 -0.386,9.348 2.677,10.708 2.077,0.911 3.672,0.541 4.615,-0.38 1.036,-1.027 2.016,-4.052 0.177,-6.272 l -0.235,-1.703 c -0.016,-1.161 -0.026,-1.729 0.006,-2.306 0.072,-0.995 0.082,-2.079 0.109,-4.032 0.041,-3.474 -1.041,-7.162 -1.041,-7.162 -0.006,-0.311999 -0.126,-0.561999 -0.303,-0.769999"
     id="path338" />
  <path
     style="fill:#fab41d;fill-opacity:1;fill-rule:nonzero;stroke:none"
     d="m 117.79241,39.782858 -7.771,-0.839 c -0.177,3.755 0.537,6.391 2.959,7.468 2.068,0.923 3.672,0.563 4.609,-0.359 1.047,-1.021 2.036,-4.041 0.203,-6.27"
     id="path339" />
  <path
     style="fill:none;stroke:#231f20;stroke-width:0.565977;stroke-linecap:butt;stroke-linejoin:miter;stroke-miterlimit:4;stroke-dasharray:none;stroke-opacity:1"
     d="m 117.79241,39.782858 -7.771,-0.839 c -0.177,3.755 0.537,6.391 2.959,7.468 2.068,0.923 3.672,0.563 4.609,-0.359 1.047,-1.021 2.036,-4.041 0.203,-6.27 z"
     id="path340" />
  <path
     style="fill:#231f20;fill-opacity:1;fill-rule:nonzero;stroke:none"
     d="m 111.72541,81.812858 c -0.333,-0.546 -0.016,-2.468 -0.376,-4.036 -0.249,-1.062 0.276,-3.75 -0.047,-4.786 -0.297,-0.954 -0.344,-1.412 0.683,-1.932 0.604,-0.314 1.979,-0.516 2.235,-0.074 0.588,1.036 0.697,1.975 0.598,3.036 -0.114,1.215 -0.708,4.47 -0.874,5.054 -0.418,1.468 -0.136,2.15 -0.204,2.546 -0.14,0.75 -0.463,0.88 -0.963,0.9 -0.964,0.032 -1.052,-0.708 -1.052,-0.708"
     id="path341" />
  <path
     style="fill:none;stroke:#231f20;stroke-width:0.565977;stroke-linecap:butt;stroke-linejoin:miter;stroke-miterlimit:4;stroke-dasharray:none;stroke-opacity:1"
     d="m 111.72541,81.812858 c -0.333,-0.546 -0.016,-2.468 -0.376,-4.036 -0.249,-1.062 0.276,-3.75 -0.047,-4.786 -0.297,-0.954 -0.344,-1.412 0.683,-1.932 0.604,-0.314 1.979,-0.516 2.235,-0.074 0.588,1.036 0.697,1.975 0.598,3.036 -0.114,1.215 -0.708,4.47 -0.874,5.054 -0.418,1.468 -0.136,2.15 -0.204,2.546 -0.14,0.75 -0.463,0.88 -0.963,0.9 -0.964,0.032 -1.052,-0.708 -1.052,-0.708 z"
     id="path342" />
  <path
     style="fill:#231f20;fill-opacity:1;fill-rule:nonzero;stroke:none"
     d="m 111.93341,72.755858 c -1.287,-0.172 -0.651,-2.104 -0.563,-2.635 0.088,-0.542 0.172,-2.094 0.074,-3.313 -0.095,-1.224 0.312,-2.791 0.14,-5.109 -0.088,-1.219 0.593,-2.463 2.365,-2.515 1.755,-0.053 2.447,0.905 2.337,2.4 -0.114,1.491 -0.848,2.849 -1.072,4.344 -0.218,1.495 -0.302,3.041 -0.308,4.256 -0.005,1.38 -0.514,2.061 -0.962,2.239 -1.106,0.464 -2.011,0.333 -2.011,0.333"
     id="path343" />
  <path
     style="fill:none;stroke:#231f20;stroke-width:0.565977;stroke-linecap:butt;stroke-linejoin:miter;stroke-miterlimit:4;stroke-dasharray:none;stroke-opacity:1"
     d="m 111.93341,72.755858 c -1.287,-0.172 -0.651,-2.104 -0.563,-2.635 0.088,-0.542 0.172,-2.094 0.074,-3.313 -0.095,-1.224 0.312,-2.791 0.14,-5.109 -0.088,-1.219 0.593,-2.463 2.365,-2.515 1.755,-0.053 2.447,0.905 2.337,2.4 -0.114,1.491 -0.848,2.849 -1.072,4.344 -0.218,1.495 -0.302,3.041 -0.308,4.256 -0.005,1.38 -0.514,2.061 -0.962,2.239 -1.106,0.464 -2.011,0.333 -2.011,0.333 z"
     id="path344" />
  <path
     style="fill:#231f20;fill-opacity:1;fill-rule:nonzero;stroke:none"
     d="m 118.36041,84.178858 c -0.703,0.229 -3.948,0.104 -4.692,0.036 -0.663,-0.058 -1.787,0.213 -2.188,-0.87 -0.178,-0.422 -0.11,-1.182 0,-1.48 0.088,-0.249 0.412,-0.317 0.797,-0.249 0.656,0.109 0.807,0.401 2.047,0.692 0,0 0.286,0.115 0.776,0.355 1.478,0.692 0.76,0.525 3.129,1.057 0.167,0.036 0.245,0.229 0.219,0.333 -0.056,0.178 -0.088,0.126 -0.088,0.126"
     id="path345" />
  <path
     style="fill:none;stroke:#231f20;stroke-width:0.565977;stroke-linecap:round;stroke-linejoin:round;stroke-miterlimit:4;stroke-dasharray:none;stroke-opacity:1"
     d="m 118.36041,84.178858 c -0.703,0.229 -3.948,0.104 -4.692,0.036 -0.663,-0.058 -1.787,0.213 -2.188,-0.87 -0.178,-0.422 -0.11,-1.182 0,-1.48 0.088,-0.249 0.412,-0.317 0.797,-0.249 0.656,0.109 0.807,0.401 2.047,0.692 0,0 0.286,0.115 0.776,0.355 1.478,0.692 0.76,0.525 3.129,1.057 0.167,0.036 0.245,0.229 0.219,0.333 -0.056,0.178 -0.088,0.126 -0.088,0.126 z"
     id="path347" />
  <path
     style="fill:#231f20;fill-opacity:1;fill-rule:nonzero;stroke:none"
     d="m 115.39241,5.8758591 c 1.082,0.812 0.801,1.765 -0.063,2.339 -0.261,0.172 -0.297,0.588 -0.568,0.74 -0.62,0.333 -2.271,-0.214 -2.167,-1.71 0.006,-0.104 -0.182,-0.905 -0.24,-1.52 -0.098,-1.208 0.287,-3.677 2.484,-5.24500003 1.038,-0.744 1.287,0.011 0.959,0.443 -1.047,1.34900003 -0.875,1.67200003 -1.016,2.13600003 -0.499,1.541 0.611,2.817 0.611,2.817"
     id="path349" />
  <path
     style="fill:none;stroke:#231f20;stroke-width:0.332927;stroke-linecap:butt;stroke-linejoin:miter;stroke-miterlimit:4;stroke-dasharray:none;stroke-opacity:1"
     d="m 115.39241,5.8758591 c 1.082,0.812 0.801,1.765 -0.063,2.339 -0.261,0.172 -0.297,0.588 -0.568,0.74 -0.62,0.333 -2.271,-0.214 -2.167,-1.71 0.006,-0.104 -0.182,-0.905 -0.24,-1.52 -0.098,-1.208 0.287,-3.677 2.484,-5.24500003 1.038,-0.744 1.287,0.011 0.959,0.443 -1.047,1.34900003 -0.875,1.67200003 -1.016,2.13600003 -0.499,1.541 0.611,2.817 0.611,2.817 z"
     id="path350" />
  <path
     style="fill:#ffffff;fill-opacity:1;fill-rule:nonzero;stroke:none"
     d="m 46.360408,40.520858 c 0.213,-0.118 1.027,0.694 1.421,0.355 0.396,-0.344 0.054,-1.052 0.866,-2.869 l 0.01,-0.016 c 0.64,-1.307 0.667,-2.698 -0.073,-3.714 -1.213,-1.682 -4.057,-1.704 -6.344,-0.041 -2.287,1.656 -3.156,4.359 -1.937,6.041 1.166,1.61 3.822,1.698 6.057,0.244"
     id="path351" />
  <path
     style="fill:none;stroke:#231f20;stroke-width:0.565977;stroke-linecap:butt;stroke-linejoin:miter;stroke-miterlimit:4;stroke-dasharray:none;stroke-opacity:1"
     d="m 46.360408,40.520858 c 0.213,-0.118 1.027,0.694 1.421,0.355 0.396,-0.344 0.054,-1.052 0.866,-2.869 l 0.01,-0.016 c 0.64,-1.307 0.667,-2.698 -0.073,-3.714 -1.213,-1.682 -4.057,-1.704 -6.344,-0.041 -2.287,1.656 -3.156,4.359 -1.937,6.041 1.166,1.61 3.822,1.698 6.057,0.244 z"
     id="path352" />
  <path
     style="fill:#231f20;fill-opacity:1;fill-rule:nonzero;stroke:none"
     d="m 42.729408,64.178858 c -2.041,-0.975 -2.572,-0.891 -3.046,-0.058 -0.312,0.558 -0.791,0.963 -1,1.296 -0.692,1.1 -1.396,3.224 -1.823,9.798 -0.093,1.489 -0.244,3.582 -0.375,4.426 -0.202,1.344 2.162,0.776 2.244,0.251 0.282,-1.693 0.61,-2.839 0.792,-3.432 0.12,-0.401 0.246,-1.157 0.938,-2.677 1.046,-2.298 2.01,-3.522 2.661,-5.532 0.297,-0.938 1.12,-1.454 0.948,-2.52 -0.172,-1.068 -1.339,-1.552 -1.339,-1.552"
     id="path353" />
  <path
     style="fill:none;stroke:#231f20;stroke-width:0.565977;stroke-linecap:butt;stroke-linejoin:miter;stroke-miterlimit:4;stroke-dasharray:none;stroke-opacity:1"
     d="m 42.729408,64.178858 c -2.041,-0.975 -2.572,-0.891 -3.046,-0.058 -0.312,0.558 -0.791,0.963 -1,1.296 -0.692,1.1 -1.396,3.224 -1.823,9.798 -0.093,1.489 -0.244,3.582 -0.375,4.426 -0.202,1.344 2.162,0.776 2.244,0.251 0.282,-1.693 0.61,-2.839 0.792,-3.432 0.12,-0.401 0.246,-1.157 0.938,-2.677 1.046,-2.298 2.01,-3.522 2.661,-5.532 0.297,-0.938 1.12,-1.454 0.948,-2.52 -0.172,-1.068 -1.339,-1.552 -1.339,-1.552 z"
     id="path354" />
  <path
     style="fill:#231f20;fill-opacity:1;fill-rule:nonzero;stroke:none"
     d="m 43.053408,66.432858 c 2.635,-3.021 -1.313,-4.046 -1.672,-4.358 -3.761,-3.314 -4.114,-3.454 -7.152,-5.772 -4.394,-3.354 -7.921,-4.974 -10.618,-2.99 -1.83,1.35 -2.298,2.918 -1.964,4.194 0.369,1.41 2.505,3.765 5.349,3.265 l 1.593,0.64 c 1.016,0.568 1.522,0.839 2,1.161 0.834,0.558 1.76,1.1 3.448,2.095 2.984,1.765 6.73,2.651 6.73,2.651 1.082,0.604 2.286,-0.886 2.286,-0.886"
     id="path355" />
  <path
     style="fill:none;stroke:#231f20;stroke-width:0.565977;stroke-linecap:butt;stroke-linejoin:miter;stroke-miterlimit:4;stroke-dasharray:none;stroke-opacity:1"
     d="m 43.053408,66.432858 c 2.635,-3.021 -1.313,-4.046 -1.672,-4.358 -3.761,-3.314 -4.114,-3.454 -7.152,-5.772 -4.394,-3.354 -7.921,-4.974 -10.618,-2.99 -1.83,1.35 -2.298,2.918 -1.964,4.194 0.369,1.41 2.505,3.765 5.349,3.265 l 1.593,0.64 c 1.016,0.568 1.522,0.839 2,1.161 0.834,0.558 1.76,1.1 3.448,2.095 2.984,1.765 6.73,2.651 6.73,2.651 1.082,0.604 2.286,-0.886 2.286,-0.886 z"
     id="path356" />
  <path
     style="fill:#fab41d;fill-opacity:1;fill-rule:nonzero;stroke:none"
     d="m 29.365408,48.036858 c -2.421,1.99 -3.161,2.147 -4.046,2.407 -5.547,1.62 -4.647,4.312 -2.448,6.172 2.593,2.192 3.473,3.025 7.942,-1.412 1.24,-1.235 6.62,-5.349 6.62,-5.349 2.126,-1.214 3.547,-3.531 3.416,-4.984 -0.14,-1.526 -0.197,-0.911 -0.582,-2.302 -0.371,-1.329 -1.943,-2.838 -3.178,-2.718 -1.182,0.113 -1.885,1.624 -3.188,3.67 -1.03,1.61 -4.536,4.516 -4.536,4.516"
     id="path357" />
  <path
     style="fill:none;stroke:#231f20;stroke-width:0.565977;stroke-linecap:butt;stroke-linejoin:miter;stroke-miterlimit:4;stroke-dasharray:none;stroke-opacity:1"
     d="m 29.365408,48.036858 c -2.421,1.99 -3.161,2.147 -4.046,2.407 -5.547,1.62 -4.647,4.312 -2.448,6.172 2.593,2.192 3.473,3.025 7.942,-1.412 1.24,-1.235 6.62,-5.349 6.62,-5.349 2.126,-1.214 3.547,-3.531 3.416,-4.984 -0.14,-1.526 -0.197,-0.911 -0.582,-2.302 -0.371,-1.329 -1.943,-2.838 -3.178,-2.718 -1.182,0.113 -1.885,1.624 -3.188,3.67 -1.03,1.61 -4.536,4.516 -4.536,4.516 z"
     id="path358" />
  <path
     style="fill:#231f20;fill-opacity:1;fill-rule:nonzero;stroke:none"
     d="m 53.772408,30.760858 c -0.177,0.62 -1.797,1.694 -2.699,3.027 -0.604,0.896 -2.937,2.348 -3.478,3.291 -0.49,0.865 -0.798,1.214 -1.88,0.818 -0.642,-0.234 -1.73,-1.1 -1.574,-1.584 0.355,-1.14 0.97,-1.858 1.818,-2.516 0.958,-0.733 3.756,-2.514 4.297,-2.796 1.36,-0.693 1.667,-1.365 2.011,-1.584 0.64,-0.405 0.953,-0.26 1.306,0.095 0.678,0.681 0.199,1.249 0.199,1.249"
     id="path359" />
  <path
     style="fill:none;stroke:#231f20;stroke-width:0.565977;stroke-linecap:butt;stroke-linejoin:miter;stroke-miterlimit:4;stroke-dasharray:none;stroke-opacity:1"
     d="m 53.772408,30.760858 c -0.177,0.62 -1.797,1.694 -2.699,3.027 -0.604,0.896 -2.937,2.348 -3.478,3.291 -0.49,0.865 -0.798,1.214 -1.88,0.818 -0.642,-0.234 -1.73,-1.1 -1.574,-1.584 0.355,-1.14 0.97,-1.858 1.818,-2.516 0.958,-0.733 3.756,-2.514 4.297,-2.796 1.36,-0.693 1.667,-1.365 2.011,-1.584 0.64,-0.405 0.953,-0.26 1.306,0.095 0.678,0.681 0.199,1.249 0.199,1.249 z"
     id="path360" />
  <path
     style="fill:#231f20;fill-opacity:1;fill-rule:nonzero;stroke:none"
     d="m 46.996408,36.776858 c 0.749,1.058 -1.1,1.911 -1.552,2.208 -0.453,0.303 -1.641,1.298 -2.475,2.199 -0.833,0.895 -2.254,1.667 -3.833,3.375 -0.833,0.896 -2.208,1.244 -3.459,-0.022 -1.233,-1.244 -1,-2.41 0.172,-3.344 1.167,-0.937 2.662,-1.322 3.907,-2.176 1.245,-0.86 2.432,-1.849 3.328,-2.666 1.016,-0.939 1.865,-1.022 2.303,-0.824 1.088,0.5 1.609,1.25 1.609,1.25"
     id="path361" />
  <path
     style="fill:none;stroke:#231f20;stroke-width:0.565977;stroke-linecap:butt;stroke-linejoin:miter;stroke-miterlimit:4;stroke-dasharray:none;stroke-opacity:1"
     d="m 46.996408,36.776858 c 0.749,1.058 -1.1,1.911 -1.552,2.208 -0.453,0.303 -1.641,1.298 -2.475,2.199 -0.833,0.895 -2.254,1.667 -3.833,3.375 -0.833,0.896 -2.208,1.244 -3.459,-0.022 -1.233,-1.244 -1,-2.41 0.172,-3.344 1.167,-0.937 2.662,-1.322 3.907,-2.176 1.245,-0.86 2.432,-1.849 3.328,-2.666 1.016,-0.939 1.865,-1.022 2.303,-0.824 1.088,0.5 1.609,1.25 1.609,1.25 z"
     id="path362" />
  <path
     style="fill:#231f20;fill-opacity:1;fill-rule:nonzero;stroke:none"
     d="m 54.605408,23.068859 c 0.239,0.682 0.208,3.931999 0.172,4.681999 -0.032,0.661 0.271,1.776 -0.792,2.218 -0.432,0.178 -1.188,0.142 -1.489,0.043 -0.251,-0.084 -0.333,-0.401 -0.276,-0.797 0.093,-0.656 0.375,-0.807 0.635,-2.063 0,0 0.104,-0.281 0.317,-0.787 0.657,-1.494 0.505,-0.776 0.964,-3.155999 0.032,-0.166 0.224,-0.26 0.339,-0.224 0.172,0.047 0.13,0.084 0.13,0.084"
     id="path363" />
  <path
     style="fill:none;stroke:#231f20;stroke-width:0.565977;stroke-linecap:round;stroke-linejoin:round;stroke-miterlimit:4;stroke-dasharray:none;stroke-opacity:1"
     d="m 54.605408,23.068859 c 0.239,0.682 0.208,3.931999 0.172,4.681999 -0.032,0.661 0.271,1.776 -0.792,2.218 -0.432,0.178 -1.188,0.142 -1.489,0.043 -0.251,-0.084 -0.333,-0.401 -0.276,-0.797 0.093,-0.656 0.375,-0.807 0.635,-2.063 0,0 0.104,-0.281 0.317,-0.787 0.657,-1.494 0.505,-0.776 0.964,-3.155999 0.032,-0.166 0.224,-0.26 0.339,-0.224 0.172,0.047 0.13,0.084 0.13,0.084 z"
     id="path364" />
  <path
     style="fill:#231f20;fill-opacity:1;fill-rule:nonzero;stroke:none"
     d="m 13.115408,68.479858 c -1.452,-1.739 -1.968,-1.88 -2.744,-1.317 -0.516,0.374 -1.126,0.546 -1.448,0.754 -1.088,0.714 -2.615,2.355 -5.74,8.152 -0.703,1.318 -1.714,3.156 -2.182,3.875 -0.74500001,1.135 1.646,1.599 1.938,1.156 0.957,-1.416 1.733,-2.323 2.145,-2.787 0.281,-0.317 0.708,-0.953 1.969,-2.041 1.906,-1.661 3.296,-2.369 4.724,-3.932 0.662,-0.724 1.619,-0.849 1.906,-1.891 0.292,-1.041 -0.568,-1.969 -0.568,-1.969"
     id="path365" />
  <path
     style="fill:none;stroke:#231f20;stroke-width:0.565977;stroke-linecap:butt;stroke-linejoin:miter;stroke-miterlimit:4;stroke-dasharray:none;stroke-opacity:1"
     d="m 13.115408,68.479858 c -1.452,-1.739 -1.968,-1.88 -2.744,-1.317 -0.516,0.374 -1.126,0.546 -1.448,0.754 -1.088,0.714 -2.615,2.355 -5.74,8.152 -0.703,1.318 -1.714,3.156 -2.182,3.875 -0.74500001,1.135 1.646,1.599 1.938,1.156 0.957,-1.416 1.733,-2.323 2.145,-2.787 0.281,-0.317 0.708,-0.953 1.969,-2.041 1.906,-1.661 3.296,-2.369 4.724,-3.932 0.662,-0.724 1.619,-0.849 1.906,-1.891 0.292,-1.041 -0.568,-1.969 -0.568,-1.969 z"
     id="path366" />
  <path
     style="fill:#231f20;fill-opacity:1;fill-rule:nonzero;stroke:#231f20;stroke-width:0.565977;stroke-linecap:round;stroke-linejoin:miter;stroke-miterlimit:4;stroke-dasharray:none;stroke-opacity:1"
     d="m 12.917408,70.963858 c 1.35,-0.004 2.355,-1.76 2.62,-1.947 4.126,-2.849 4.344,-3.162 7.334,-5.548 4.312,-3.452 6.74,-6.478 5.464,-9.577 -0.866,-2.099 -2.272,-2.937 -3.59,-2.923 -1.458,0.022 -4.26,1.527 -4.468,4.407 l -1,1.391 c -0.797,0.844 -1.188,1.27 -1.614,1.656 -0.74,0.677 -1.491,1.442 -2.866,2.838 -2.437,2.47 -4.197,5.891 -4.197,5.891 -0.213,0.224 -0.303,0.489 -0.313,0.76"
     id="path367" />
  <path
     style="fill:#fab41d;fill-opacity:1;fill-rule:nonzero;stroke:none"
     d="m 28.335408,53.891858 c -0.866,-2.099 -2.272,-2.937 -3.59,-2.923 -1.458,0.022 -4.26,1.527 -4.462,4.407 l 5.041,5.969 c 0.473,-0.453 0.885,-0.901 1.265,-1.344 0.074,-0.041 0.146,-0.084 0.214,-0.109 0.745,-0.303 0.932,-0.907 1.198,-1.907 0.719,-1.38 0.895,-2.729 0.334,-4.093"
     id="path368" />
  <path
     style="fill:none;stroke:#231f20;stroke-width:0.565977;stroke-linecap:round;stroke-linejoin:round;stroke-miterlimit:4;stroke-dasharray:none;stroke-opacity:1"
     d="m 28.335408,53.891858 c -0.866,-2.099 -2.272,-2.937 -3.59,-2.923 -1.458,0.022 -4.26,1.527 -4.462,4.407 l 5.041,5.969 c 0.473,-0.453 0.885,-0.901 1.265,-1.344 0.074,-0.041 0.146,-0.084 0.214,-0.109 0.745,-0.303 0.932,-0.907 1.198,-1.907 0.719,-1.38 0.895,-2.729 0.334,-4.093 z"
     id="path369" />
  <path
     style="fill:#231f20;fill-opacity:1;fill-rule:nonzero;stroke:none"
     d="m 1.073408,83.818858 c -1.07700001,-0.063 -0.81700001,-1.287 -0.57700001,-2.49 0.057,-0.302 0.088,-0.593 0.172,-0.88 0.33700001,-1.182 1.15600001,-1.838 3.10900001,0.432 0.072,0.088 1.911,1.271 2.479,1.522 2.745,1.166 2.973,0.358 2.745,1.166 -0.152,0.542 -0.657,0.552 -1.286,0.547 -0.855,-0.005 -3.866,-0.281 -4.328,-0.292 -0.454,-0.011 -2.314,-0.005 -2.314,-0.005"
     id="path370" />
  <path
     style="fill:none;stroke:#231f20;stroke-width:0.565977;stroke-linecap:butt;stroke-linejoin:miter;stroke-miterlimit:4;stroke-dasharray:none;stroke-opacity:1"
     d="m 1.073408,83.818858 c -1.07700001,-0.063 -0.81700001,-1.287 -0.57700001,-2.49 0.057,-0.302 0.088,-0.593 0.172,-0.88 0.33700001,-1.182 1.15600001,-1.838 3.10900001,0.432 0.072,0.088 1.911,1.271 2.479,1.522 2.745,1.166 2.973,0.358 2.745,1.166 -0.152,0.542 -0.657,0.552 -1.286,0.547 -0.855,-0.005 -3.866,-0.281 -4.328,-0.292 -0.454,-0.011 -2.314,-0.005 -2.314,-0.005 z"
     id="path372" />
  <path
     style="fill:#231f20;fill-opacity:1;fill-rule:nonzero;stroke:none"
     d="m 36.917408,83.922858 c -1.078,-0.047 -0.833,-1.276 -0.609,-2.484 0.057,-0.303 0.084,-0.594 0.161,-0.88 0.323,-1.188 1.136,-1.85 3.115,0.396 0.073,0.082 1.927,1.244 2.5,1.489 2.76,1.135 2.975,0.323 2.76,1.135 -0.145,0.537 -0.656,0.552 -1.281,0.557 -0.854,0.011 -3.87,-0.233 -4.334,-0.233 -0.452,-0.011 -2.312,0.02 -2.312,0.02"
     id="path374" />
  <path
     style="fill:none;stroke:#231f20;stroke-width:0.565977;stroke-linecap:butt;stroke-linejoin:miter;stroke-miterlimit:4;stroke-dasharray:none;stroke-opacity:1"
     d="m 36.917408,83.922858 c -1.078,-0.047 -0.833,-1.276 -0.609,-2.484 0.057,-0.303 0.084,-0.594 0.161,-0.88 0.323,-1.188 1.136,-1.85 3.115,0.396 0.073,0.082 1.927,1.244 2.5,1.489 2.76,1.135 2.975,0.323 2.76,1.135 -0.145,0.537 -0.656,0.552 -1.281,0.557 -0.854,0.011 -3.87,-0.233 -4.334,-0.233 -0.452,-0.011 -2.312,0.02 -2.312,0.02 z"
     id="path376" />
</svg>
