<?xml version="1.0" encoding="UTF-8" standalone="no"?>
<!-- Created with Inkscape (http://www.inkscape.org/) -->

<svg
   version="1.1"
   id="svg1"
   width="320.9639"
   height="84.768272"
   viewBox="0 0 320.96389 84.768274"
   sodipodi:docname="cell.svg"
   xmlns:inkscape="http://www.inkscape.org/namespaces/inkscape"
   xmlns:sodipodi="http://sodipodi.sourceforge.net/DTD/sodipodi-0.dtd"
   xmlns="http://www.w3.org/2000/svg"
   xmlns:svg="http://www.w3.org/2000/svg">
  <sodipodi:namedview
     id="namedview1"
     pagecolor="#ffffff"
     bordercolor="#000000"
     borderopacity="0.25"
     inkscape:showpageshadow="2"
     inkscape:pageopacity="0.0"
     inkscape:pagecheckerboard="0"
     inkscape:deskcolor="#d1d1d1">
    <inkscape:page
       x="0"
       y="0"
       inkscape:label="1"
       id="page1"
       width="320.9639"
       height="84.768272"
       margin="0"
       bleed="0" />
  </sodipodi:namedview>
  <defs
     id="defs1" />
  <path
     style="fill:#fab41d;fill-opacity:1;fill-rule:nonzero;stroke:none"
     d="m 63.908988,75.565709 c 1.952,-2.448 3.025,-4.526 3.536,-5.292 1.765,-2.65 1.885,-5.276 -0.662,-6.636 -2.994,-1.593 -5.376,-0.104 -7.526,3.459 -0.906,1.511 -3.719,4.333 -3.719,4.333 -2.557,1.99 -3.177,5.418 -3.151,6.688 0.031,1.531 -0.442,1.698 0.339,2.911 1.463,2.24 2.577,2.437 3.677,1.985 1.104,-0.442 1.9,-1.458 3.687,-3.105 1.708,-1.577 3.819,-4.343 3.819,-4.343"
     id="path500" />
  <path
     style="fill:none;stroke:#231f20;stroke-width:0.565977;stroke-linecap:butt;stroke-linejoin:miter;stroke-miterlimit:4;stroke-dasharray:none;stroke-opacity:1"
     d="m 63.908988,75.565709 c 1.952,-2.448 3.025,-4.526 3.536,-5.292 1.765,-2.65 1.885,-5.276 -0.662,-6.636 -2.994,-1.593 -5.376,-0.104 -7.526,3.459 -0.906,1.511 -3.719,4.333 -3.719,4.333 -2.557,1.99 -3.177,5.418 -3.151,6.688 0.031,1.531 -0.442,1.698 0.339,2.911 1.463,2.24 2.577,2.437 3.677,1.985 1.104,-0.442 1.9,-1.458 3.687,-3.105 1.708,-1.577 3.819,-4.343 3.819,-4.343 z"
     id="path501" />
  <path
     style="fill:#fab41d;fill-opacity:1;fill-rule:nonzero;stroke:none"
     d="m 7.9499883,52.648709 c 0.203,-3.125 0.588,-3.776 1.005,-4.599 2.6149997,-5.156 0.031,-6.344 -2.828,-6.005 -3.37,0.391 -4.589,0.464 -4.401,6.751 0.052,1.754 -0.631,8.494 -0.631,8.494 -0.56200001,2.38 0.151,5.004 1.298,5.9 1.213,0.943 0.806,0.48 2.077,1.147 1.229,0.64 3.407,0.525 4.161,-0.453 0.724,-0.943 0.106,-2.495 -0.5,-4.839 -0.468,-1.855 -0.181,-6.396 -0.181,-6.396"
     id="path503" />
  <path
     style="fill:none;stroke:#231f20;stroke-width:0.565977;stroke-linecap:butt;stroke-linejoin:miter;stroke-miterlimit:4;stroke-dasharray:none;stroke-opacity:1"
     d="m 7.9499883,52.648709 c 0.203,-3.125 0.588,-3.776 1.005,-4.599 2.6149997,-5.156 0.031,-6.344 -2.828,-6.005 -3.37,0.391 -4.589,0.464 -4.401,6.751 0.052,1.754 -0.631,8.494 -0.631,8.494 -0.56200001,2.38 0.151,5.004 1.298,5.9 1.213,0.943 0.806,0.48 2.077,1.147 1.229,0.64 3.407,0.525 4.161,-0.453 0.724,-0.943 0.106,-2.495 -0.5,-4.839 -0.468,-1.855 -0.181,-6.396 -0.181,-6.396 z"
     id="path504" />
  <path
     style="fill:#ffffff;fill-opacity:1;fill-rule:nonzero;stroke:none"
     d="m 1.4859883,70.075709 c -0.041,0.245 -1.19700001,0.324 -1.20300001,0.849 0,0.527 0.77100001,0.724 1.60400001,2.532 l 0.011,0.02 c 0.567,1.333 1.604,2.265 2.853,2.375 2.074,0.172 3.938,-1.963 4.183,-4.776 0.245,-2.818 -1.24,-5.234 -3.312,-5.416 -1.975,-0.178 -3.776,1.781 -4.136,4.416"
     id="path505" />
  <path
     style="fill:none;stroke:#231f20;stroke-width:0.565977;stroke-linecap:butt;stroke-linejoin:miter;stroke-miterlimit:4;stroke-dasharray:none;stroke-opacity:1"
     d="m 1.4859883,70.075709 c -0.041,0.245 -1.19700001,0.324 -1.20300001,0.849 0,0.527 0.77100001,0.724 1.60400001,2.532 l 0.011,0.02 c 0.567,1.333 1.604,2.265 2.853,2.375 2.074,0.172 3.938,-1.963 4.183,-4.776 0.245,-2.818 -1.24,-5.234 -3.312,-5.416 -1.975,-0.178 -3.776,1.781 -4.136,4.416 z"
     id="path506" />
  <path
     style="fill:#231f20;fill-opacity:1;fill-rule:nonzero;stroke:none"
     d="m 5.5019883,25.039709 c 2.249,0.25 2.719,-0.006 2.885,-0.948 0.115,-0.629999 0.432,-1.166999 0.522,-1.551999 0.296,-1.255 0.26,-3.511 -1.496,-9.855 -0.4,-1.432 -0.943,-3.463 -1.099,-4.307 -0.255,-1.328 -2.301,-0.016 -2.208,0.516 0.297,1.692 0.359,2.864 0.385,3.49 0.016,0.426 0.151,1.177 -0.005,2.838 -0.235,2.516 -0.745,3.99 -0.692,6.104 0.02,0.979 -0.584,1.735 -0.063,2.682999 0.5,0.963 1.771,1.031 1.771,1.031"
     id="path507" />
  <path
     style="fill:none;stroke:#231f20;stroke-width:0.565977;stroke-linecap:butt;stroke-linejoin:miter;stroke-miterlimit:4;stroke-dasharray:none;stroke-opacity:1"
     d="m 5.5019883,25.039709 c 2.249,0.25 2.719,-0.006 2.885,-0.948 0.115,-0.629999 0.432,-1.166999 0.522,-1.551999 0.296,-1.255 0.26,-3.511 -1.496,-9.855 -0.4,-1.432 -0.943,-3.463 -1.099,-4.307 -0.255,-1.328 -2.301,-0.016 -2.208,0.516 0.297,1.692 0.359,2.864 0.385,3.49 0.016,0.426 0.151,1.177 -0.005,2.838 -0.235,2.516 -0.745,3.99 -0.692,6.104 0.02,0.979 -0.584,1.735 -0.063,2.682999 0.5,0.963 1.771,1.031 1.771,1.031 z"
     id="path508" />
  <path
     style="fill:#231f20;fill-opacity:1;fill-rule:nonzero;stroke:#231f20;stroke-width:0.565977;stroke-linecap:round;stroke-linejoin:round;stroke-miterlimit:4;stroke-dasharray:none;stroke-opacity:1"
     d="m 4.0179883,23.01771 c -1.1,0.886999 -0.573,2.979999 -0.636,3.313999 -1.011,4.91 -0.953,5.286 -1.459,9.077 -0.729,5.48 -0.38,9.344 2.683,10.704 2.079,0.911 3.672,0.541 4.615,-0.38 1.0359997,-1.027 2.0159997,-4.048 0.177,-6.271 l -0.235,-1.698 c -0.016,-1.167 -0.026,-1.74 0.006,-2.312 0.073,-0.995 0.082,-2.074 0.109,-4.032 0.041,-3.474 -1.041,-7.162 -1.041,-7.162 -0.006,-0.306 -0.126,-0.562 -0.303,-0.764999"
     id="path509" />
  <path
     style="fill:#fab41d;fill-opacity:1;fill-rule:nonzero;stroke:none"
     d="m 9.1369883,39.784709 -7.771,-0.844 c -0.177,3.755 0.537,6.396 2.959,7.468 2.068,0.923 3.672,0.563 4.609,-0.359 1.047,-1.021 2.0359997,-4.041 0.203,-6.265"
     id="path510" />
  <path
     style="fill:none;stroke:#231f20;stroke-width:0.565977;stroke-linecap:butt;stroke-linejoin:miter;stroke-miterlimit:4;stroke-dasharray:none;stroke-opacity:1"
     d="m 9.1369883,39.784709 -7.771,-0.844 c -0.177,3.755 0.537,6.396 2.959,7.468 2.068,0.923 3.672,0.563 4.609,-0.359 1.047,-1.021 2.0359997,-4.041 0.203,-6.265 z"
     id="path511" />
  <path
     style="fill:#231f20;fill-opacity:1;fill-rule:nonzero;stroke:none"
     d="m 3.0699883,81.815709 c -0.333,-0.552 -0.016,-2.474 -0.376,-4.042 -0.249,-1.057 0.276,-3.75 -0.047,-4.786 -0.296,-0.948 -0.344,-1.412 0.678,-1.932 0.609,-0.314 1.984,-0.516 2.24,-0.074 0.588,1.036 0.697,1.975 0.598,3.036 -0.114,1.215 -0.708,4.47 -0.874,5.058 -0.418,1.464 -0.136,2.146 -0.204,2.548 -0.14,0.744 -0.463,0.88 -0.963,0.894 -0.964,0.032 -1.052,-0.702 -1.052,-0.702"
     id="path512" />
  <path
     style="fill:none;stroke:#231f20;stroke-width:0.565977;stroke-linecap:butt;stroke-linejoin:miter;stroke-miterlimit:4;stroke-dasharray:none;stroke-opacity:1"
     d="m 3.0699883,81.815709 c -0.333,-0.552 -0.016,-2.474 -0.376,-4.042 -0.249,-1.057 0.276,-3.75 -0.047,-4.786 -0.296,-0.948 -0.344,-1.412 0.678,-1.932 0.609,-0.314 1.984,-0.516 2.24,-0.074 0.588,1.036 0.697,1.975 0.598,3.036 -0.114,1.215 -0.708,4.47 -0.874,5.058 -0.418,1.464 -0.136,2.146 -0.204,2.548 -0.14,0.744 -0.463,0.88 -0.963,0.894 -0.964,0.032 -1.052,-0.702 -1.052,-0.702 z"
     id="path513" />
  <path
     style="fill:#231f20;fill-opacity:1;fill-rule:nonzero;stroke:none"
     d="m 3.2779883,72.752709 c -1.287,-0.172 -0.651,-2.104 -0.563,-2.635 0.088,-0.542 0.172,-2.094 0.074,-3.313 -0.095,-1.224 0.312,-2.787 0.14,-5.104 -0.088,-1.219 0.593,-2.468 2.365,-2.52 1.755,-0.052 2.447,0.911 2.337,2.405 -0.113,1.486 -0.848,2.844 -1.072,4.339 -0.218,1.495 -0.302,3.041 -0.308,4.256 -0.005,1.38 -0.514,2.061 -0.962,2.244 -1.104,0.464 -2.011,0.328 -2.011,0.328"
     id="path514" />
  <path
     style="fill:none;stroke:#231f20;stroke-width:0.565977;stroke-linecap:butt;stroke-linejoin:miter;stroke-miterlimit:4;stroke-dasharray:none;stroke-opacity:1"
     d="m 3.2779883,72.752709 c -1.287,-0.172 -0.651,-2.104 -0.563,-2.635 0.088,-0.542 0.172,-2.094 0.074,-3.313 -0.095,-1.224 0.312,-2.787 0.14,-5.104 -0.088,-1.219 0.593,-2.468 2.365,-2.52 1.755,-0.052 2.447,0.911 2.337,2.405 -0.113,1.486 -0.848,2.844 -1.072,4.339 -0.218,1.495 -0.302,3.041 -0.308,4.256 -0.005,1.38 -0.514,2.061 -0.962,2.244 -1.104,0.464 -2.011,0.328 -2.011,0.328 z"
     id="path515" />
  <path
     style="fill:#231f20;fill-opacity:1;fill-rule:nonzero;stroke:none"
     d="m 9.7049883,84.175709 c -0.703,0.229 -3.954,0.104 -4.692,0.036 -0.662,-0.058 -1.787,0.218 -2.188,-0.87 -0.178,-0.422 -0.11,-1.182 0,-1.48 0.088,-0.249 0.412,-0.317 0.797,-0.249 0.656,0.109 0.807,0.401 2.047,0.692 0,0 0.286,0.115 0.776,0.355 1.473,0.692 0.76,0.525 3.13,1.057 0.166,0.036 0.244,0.229 0.214,0.339 -0.058,0.177 -0.084,0.12 -0.084,0.12"
     id="path516" />
  <path
     style="fill:none;stroke:#231f20;stroke-width:0.565977;stroke-linecap:round;stroke-linejoin:round;stroke-miterlimit:4;stroke-dasharray:none;stroke-opacity:1"
     d="m 9.7049883,84.175709 c -0.703,0.229 -3.954,0.104 -4.692,0.036 -0.662,-0.058 -1.787,0.218 -2.188,-0.87 -0.178,-0.422 -0.11,-1.182 0,-1.48 0.088,-0.249 0.412,-0.317 0.797,-0.249 0.656,0.109 0.807,0.401 2.047,0.692 0,0 0.286,0.115 0.776,0.355 1.473,0.692 0.76,0.525 3.13,1.057 0.166,0.036 0.244,0.229 0.214,0.339 -0.058,0.177 -0.084,0.12 -0.084,0.12 z"
     id="path518" />
  <path
     style="fill:#231f20;fill-opacity:1;fill-rule:nonzero;stroke:none"
     d="m 6.7369883,5.87271 c 1.082,0.812 0.801,1.771 -0.063,2.339 -0.261,0.172 -0.297,0.588 -0.568,0.74 -0.62,0.333 -2.271,-0.21 -2.167,-1.71 0.006,-0.104 -0.182,-0.9 -0.24,-1.52 -0.098,-1.208 0.287,-3.677 2.486,-5.245 1.036,-0.739 1.285,0.016 0.957,0.443 -1.047,1.349 -0.875,1.672 -1.015,2.136 -0.5,1.541 0.61,2.817 0.61,2.817"
     id="path520" />
  <path
     style="fill:none;stroke:#231f20;stroke-width:0.332927;stroke-linecap:butt;stroke-linejoin:miter;stroke-miterlimit:4;stroke-dasharray:none;stroke-opacity:1"
     d="m 6.7369883,5.87271 c 1.082,0.812 0.801,1.771 -0.063,2.339 -0.261,0.172 -0.297,0.588 -0.568,0.74 -0.62,0.333 -2.271,-0.21 -2.167,-1.71 0.006,-0.104 -0.182,-0.9 -0.24,-1.52 -0.098,-1.208 0.287,-3.677 2.486,-5.245 1.036,-0.739 1.285,0.016 0.957,0.443 -1.047,1.349 -0.875,1.672 -1.015,2.136 -0.5,1.541 0.61,2.817 0.61,2.817 z"
     id="path521" />
  <path
     style="fill:#fab41d;fill-opacity:1;fill-rule:nonzero;stroke:none"
     d="m 318.19999,52.648709 c 0.21,-3.125 0.59,-3.776 1.01,-4.599 2.61,-5.156 0.03,-6.344 -2.83,-6.005 -3.37,0.391 -4.59,0.464 -4.4,6.751 0.05,1.754 -0.63,8.494 -0.63,8.494 -0.56,2.38 0.15,5.004 1.3,5.9 1.21,0.943 0.8,0.48 2.08,1.147 1.22,0.64 3.4,0.525 4.16,-0.453 0.72,-0.943 0.1,-2.495 -0.5,-4.839 -0.47,-1.855 -0.19,-6.396 -0.19,-6.396"
     id="path522" />
  <path
     style="fill:none;stroke:#231f20;stroke-width:0.565977;stroke-linecap:butt;stroke-linejoin:miter;stroke-miterlimit:4;stroke-dasharray:none;stroke-opacity:1"
     d="m 318.19999,52.648709 c 0.21,-3.125 0.59,-3.776 1.01,-4.599 2.61,-5.156 0.03,-6.344 -2.83,-6.005 -3.37,0.391 -4.59,0.464 -4.4,6.751 0.05,1.754 -0.63,8.494 -0.63,8.494 -0.56,2.38 0.15,5.004 1.3,5.9 1.21,0.943 0.8,0.48 2.08,1.147 1.22,0.64 3.4,0.525 4.16,-0.453 0.72,-0.943 0.1,-2.495 -0.5,-4.839 -0.47,-1.855 -0.19,-6.396 -0.19,-6.396 z"
     id="path523" />
  <path
     style="fill:#ffffff;fill-opacity:1;fill-rule:nonzero;stroke:none"
     d="m 311.73999,70.075709 c -0.05,0.245 -1.2,0.324 -1.2,0.849 0,0.527 0.76,0.724 1.6,2.532 l 0.01,0.02 c 0.57,1.333 1.61,2.265 2.86,2.375 2.07,0.172 3.93,-1.963 4.18,-4.776 0.24,-2.818 -1.25,-5.234 -3.31,-5.416 -1.98,-0.178 -3.79,1.781 -4.14,4.416"
     id="path524" />
  <path
     style="fill:none;stroke:#231f20;stroke-width:0.565977;stroke-linecap:butt;stroke-linejoin:miter;stroke-miterlimit:4;stroke-dasharray:none;stroke-opacity:1"
     d="m 311.73999,70.075709 c -0.05,0.245 -1.2,0.324 -1.2,0.849 0,0.527 0.76,0.724 1.6,2.532 l 0.01,0.02 c 0.57,1.333 1.61,2.265 2.86,2.375 2.07,0.172 3.93,-1.963 4.18,-4.776 0.24,-2.818 -1.25,-5.234 -3.31,-5.416 -1.98,-0.178 -3.79,1.781 -4.14,4.416 z"
     id="path525" />
  <path
     style="fill:#231f20;fill-opacity:1;fill-rule:nonzero;stroke:none"
     d="m 315.75999,25.039709 c 2.24,0.25 2.71,-0.006 2.88,-0.948 0.12,-0.629999 0.43,-1.166999 0.52,-1.551999 0.29,-1.255 0.26,-3.511 -1.49,-9.855 -0.4,-1.432 -0.94,-3.463 -1.1,-4.307 -0.26,-1.328 -2.3,-0.016 -2.21,0.516 0.3,1.692 0.36,2.864 0.39,3.49 0.01,0.426 0.15,1.177 -0.01,2.838 -0.23,2.516 -0.74,3.99 -0.7,6.104 0.03,0.979 -0.58,1.735 -0.06,2.682999 0.51,0.963 1.78,1.031 1.78,1.031"
     id="path526" />
  <path
     style="fill:none;stroke:#231f20;stroke-width:0.565977;stroke-linecap:butt;stroke-linejoin:miter;stroke-miterlimit:4;stroke-dasharray:none;stroke-opacity:1"
     d="m 315.75999,25.039709 c 2.24,0.25 2.71,-0.006 2.88,-0.948 0.12,-0.629999 0.43,-1.166999 0.52,-1.551999 0.29,-1.255 0.26,-3.511 -1.49,-9.855 -0.4,-1.432 -0.94,-3.463 -1.1,-4.307 -0.26,-1.328 -2.3,-0.016 -2.21,0.516 0.3,1.692 0.36,2.864 0.39,3.49 0.01,0.426 0.15,1.177 -0.01,2.838 -0.23,2.516 -0.74,3.99 -0.7,6.104 0.03,0.979 -0.58,1.735 -0.06,2.682999 0.51,0.963 1.78,1.031 1.78,1.031 z"
     id="path527" />
  <path
     style="fill:#231f20;fill-opacity:1;fill-rule:nonzero;stroke:#231f20;stroke-width:0.565977;stroke-linecap:round;stroke-linejoin:round;stroke-miterlimit:4;stroke-dasharray:none;stroke-opacity:1"
     d="m 314.26999,23.01771 c -1.1,0.886999 -0.57,2.979999 -0.63,3.313999 -1.01,4.91 -0.96,5.286 -1.46,9.077 -0.73,5.48 -0.39,9.344 2.68,10.704 2.08,0.911 3.67,0.541 4.61,-0.38 1.04,-1.027 2.02,-4.048 0.18,-6.271 l -0.24,-1.698 c -0.01,-1.167 -0.02,-1.74 0.01,-2.312 0.08,-0.995 0.09,-2.074 0.11,-4.032 0.04,-3.474 -1.04,-7.162 -1.04,-7.162 0,-0.306 -0.12,-0.562 -0.3,-0.764999"
     id="path528" />
  <path
     style="fill:#fab41d;fill-opacity:1;fill-rule:nonzero;stroke:none"
     d="m 319.38999,39.784709 -7.77,-0.844 c -0.18,3.755 0.54,6.396 2.96,7.468 2.07,0.923 3.67,0.563 4.61,-0.359 1.04,-1.021 2.04,-4.041 0.2,-6.265"
     id="path529" />
  <path
     style="fill:none;stroke:#231f20;stroke-width:0.565977;stroke-linecap:butt;stroke-linejoin:miter;stroke-miterlimit:4;stroke-dasharray:none;stroke-opacity:1"
     d="m 319.38999,39.784709 -7.77,-0.844 c -0.18,3.755 0.54,6.396 2.96,7.468 2.07,0.923 3.67,0.563 4.61,-0.359 1.04,-1.021 2.04,-4.041 0.2,-6.265 z"
     id="path530" />
  <path
     style="fill:#231f20;fill-opacity:1;fill-rule:nonzero;stroke:none"
     d="m 313.31999,81.815709 c -0.33,-0.552 -0.01,-2.474 -0.37,-4.042 -0.25,-1.057 0.28,-3.75 -0.05,-4.786 -0.29,-0.948 -0.34,-1.412 0.68,-1.932 0.61,-0.314 1.98,-0.516 2.23,-0.074 0.59,1.036 0.71,1.975 0.61,3.036 -0.12,1.215 -0.71,4.47 -0.88,5.058 -0.41,1.464 -0.13,2.146 -0.2,2.548 -0.15,0.744 -0.46,0.88 -0.96,0.894 -0.97,0.032 -1.06,-0.702 -1.06,-0.702"
     id="path531" />
  <path
     style="fill:none;stroke:#231f20;stroke-width:0.565977;stroke-linecap:butt;stroke-linejoin:miter;stroke-miterlimit:4;stroke-dasharray:none;stroke-opacity:1"
     d="m 313.31999,81.815709 c -0.33,-0.552 -0.01,-2.474 -0.37,-4.042 -0.25,-1.057 0.28,-3.75 -0.05,-4.786 -0.29,-0.948 -0.34,-1.412 0.68,-1.932 0.61,-0.314 1.98,-0.516 2.23,-0.074 0.59,1.036 0.71,1.975 0.61,3.036 -0.12,1.215 -0.71,4.47 -0.88,5.058 -0.41,1.464 -0.13,2.146 -0.2,2.548 -0.15,0.744 -0.46,0.88 -0.96,0.894 -0.97,0.032 -1.06,-0.702 -1.06,-0.702 z"
     id="path532" />
  <path
     style="fill:#231f20;fill-opacity:1;fill-rule:nonzero;stroke:none"
     d="m 313.52999,72.752709 c -1.28,-0.172 -0.65,-2.104 -0.57,-2.635 0.1,-0.542 0.18,-2.094 0.08,-3.313 -0.09,-1.224 0.31,-2.787 0.14,-5.104 -0.09,-1.219 0.59,-2.468 2.37,-2.52 1.75,-0.052 2.45,0.911 2.34,2.405 -0.12,1.486 -0.85,2.844 -1.08,4.339 -0.22,1.495 -0.3,3.041 -0.3,4.256 -0.01,1.38 -0.52,2.061 -0.97,2.244 -1.1,0.464 -2.01,0.328 -2.01,0.328"
     id="path533" />
  <path
     style="fill:none;stroke:#231f20;stroke-width:0.565977;stroke-linecap:butt;stroke-linejoin:miter;stroke-miterlimit:4;stroke-dasharray:none;stroke-opacity:1"
     d="m 313.52999,72.752709 c -1.28,-0.172 -0.65,-2.104 -0.57,-2.635 0.1,-0.542 0.18,-2.094 0.08,-3.313 -0.09,-1.224 0.31,-2.787 0.14,-5.104 -0.09,-1.219 0.59,-2.468 2.37,-2.52 1.75,-0.052 2.45,0.911 2.34,2.405 -0.12,1.486 -0.85,2.844 -1.08,4.339 -0.22,1.495 -0.3,3.041 -0.3,4.256 -0.01,1.38 -0.52,2.061 -0.97,2.244 -1.1,0.464 -2.01,0.328 -2.01,0.328 z"
     id="path534" />
  <path
     style="fill:#231f20;fill-opacity:1;fill-rule:nonzero;stroke:none"
     d="m 319.94999,84.175709 c -0.69,0.229 -3.94,0.104 -4.68,0.036 -0.66,-0.058 -1.79,0.218 -2.19,-0.87 -0.18,-0.422 -0.11,-1.182 0,-1.48 0.09,-0.249 0.41,-0.317 0.79,-0.249 0.66,0.109 0.81,0.401 2.05,0.692 0,0 0.29,0.115 0.78,0.355 1.47,0.692 0.76,0.525 3.12,1.057 0.17,0.036 0.25,0.229 0.22,0.339 -0.05,0.177 -0.09,0.12 -0.09,0.12"
     id="path535" />
  <path
     style="fill:none;stroke:#231f20;stroke-width:0.565977;stroke-linecap:round;stroke-linejoin:round;stroke-miterlimit:4;stroke-dasharray:none;stroke-opacity:1"
     d="m 319.94999,84.175709 c -0.69,0.229 -3.94,0.104 -4.68,0.036 -0.66,-0.058 -1.79,0.218 -2.19,-0.87 -0.18,-0.422 -0.11,-1.182 0,-1.48 0.09,-0.249 0.41,-0.317 0.79,-0.249 0.66,0.109 0.81,0.401 2.05,0.692 0,0 0.29,0.115 0.78,0.355 1.47,0.692 0.76,0.525 3.12,1.057 0.17,0.036 0.25,0.229 0.22,0.339 -0.05,0.177 -0.09,0.12 -0.09,0.12 z"
     id="path537" />
  <path
     style="fill:#231f20;fill-opacity:1;fill-rule:nonzero;stroke:none"
     d="m 316.98999,5.87271 c 1.08,0.812 0.8,1.771 -0.06,2.339 -0.26,0.172 -0.3,0.588 -0.57,0.74 -0.62,0.333 -2.27,-0.21 -2.17,-1.71 0.01,-0.104 -0.18,-0.9 -0.24,-1.52 -0.1,-1.208 0.29,-3.677 2.49,-5.245 1.03,-0.739 1.28,0.016 0.96,0.443 -1.05,1.349 -0.88,1.672 -1.02,2.136 -0.5,1.541 0.61,2.817 0.61,2.817"
     id="path539" />
  <path
     style="fill:none;stroke:#231f20;stroke-width:0.332927;stroke-linecap:butt;stroke-linejoin:miter;stroke-miterlimit:4;stroke-dasharray:none;stroke-opacity:1"
     d="m 316.98999,5.87271 c 1.08,0.812 0.8,1.771 -0.06,2.339 -0.26,0.172 -0.3,0.588 -0.57,0.74 -0.62,0.333 -2.27,-0.21 -2.17,-1.71 0.01,-0.104 -0.18,-0.9 -0.24,-1.52 -0.1,-1.208 0.29,-3.677 2.49,-5.245 1.03,-0.739 1.28,0.016 0.96,0.443 -1.05,1.349 -0.88,1.672 -1.02,2.136 -0.5,1.541 0.61,2.817 0.61,2.817 z"
     id="path540" />
  <path
     style="fill:#ffffff;fill-opacity:1;fill-rule:nonzero;stroke:none"
     d="m 47.078988,76.976709 c -0.244,-0.041 -0.328,-1.192 -0.848,-1.197 -0.526,0 -0.724,0.77 -2.526,1.614 l -0.02,0.011 c -1.33,0.577 -2.262,1.613 -2.36,2.864 -0.167,2.073 1.978,3.932 4.786,4.167 2.823,0.229 5.235,-1.271 5.407,-3.339 0.167,-1.979 -1.797,-3.771 -4.439,-4.12"
     id="path541" />
  <path
     style="fill:none;stroke:#231f20;stroke-width:0.565977;stroke-linecap:butt;stroke-linejoin:miter;stroke-miterlimit:4;stroke-dasharray:none;stroke-opacity:1"
     d="m 47.078988,76.976709 c -0.244,-0.041 -0.328,-1.192 -0.848,-1.197 -0.526,0 -0.724,0.77 -2.526,1.614 l -0.02,0.011 c -1.33,0.577 -2.262,1.613 -2.36,2.864 -0.167,2.073 1.978,3.932 4.786,4.167 2.823,0.229 5.235,-1.271 5.407,-3.339 0.167,-1.979 -1.797,-3.771 -4.439,-4.12 z"
     id="path543" />
  <path
     style="fill:#231f20;fill-opacity:1;fill-rule:nonzero;stroke:none"
     d="m 63.026988,48.132709 c 2.256,0.095 2.714,-0.197 2.808,-1.145 0.068,-0.64 0.354,-1.198 0.411,-1.588 0.204,-1.271 0.005,-3.522 -2.192,-9.724 -0.5,-1.402 -1.188,-3.386 -1.401,-4.219 -0.35,-1.303 -2.298,0.151 -2.167,0.672 0.412,1.667 0.557,2.832 0.631,3.452 0.046,0.428 0.234,1.161 0.197,2.833 -0.057,2.532 -0.459,4.032 -0.26,6.142 0.093,0.973 -0.453,1.765 0.131,2.677 0.572,0.921 1.842,0.9 1.842,0.9"
     id="path545" />
  <path
     style="fill:none;stroke:#231f20;stroke-width:0.565977;stroke-linecap:butt;stroke-linejoin:miter;stroke-miterlimit:4;stroke-dasharray:none;stroke-opacity:1"
     d="m 63.026988,48.132709 c 2.256,0.095 2.714,-0.197 2.808,-1.145 0.068,-0.64 0.354,-1.198 0.411,-1.588 0.204,-1.271 0.005,-3.522 -2.192,-9.724 -0.5,-1.402 -1.188,-3.386 -1.401,-4.219 -0.35,-1.303 -2.298,0.151 -2.167,0.672 0.412,1.667 0.557,2.832 0.631,3.452 0.046,0.428 0.234,1.161 0.197,2.833 -0.057,2.532 -0.459,4.032 -0.26,6.142 0.093,0.973 -0.453,1.765 0.131,2.677 0.572,0.921 1.842,0.9 1.842,0.9 z"
     id="path546" />
  <path
     style="fill:#231f20;fill-opacity:1;fill-rule:nonzero;stroke:#231f20;stroke-width:0.565977;stroke-linecap:round;stroke-linejoin:round;stroke-miterlimit:4;stroke-dasharray:none;stroke-opacity:1"
     d="m 61.402988,46.221709 c -1.037,0.968 -0.36,3.011 -0.401,3.35 -0.656,4.973 -0.573,5.342 -0.808,9.161 -0.339,5.52 0.281,9.348 3.437,10.484 2.136,0.765 3.704,0.281 4.574,-0.703 0.958,-1.1 1.724,-4.182 -0.271,-6.272 l -0.355,-1.681 c -0.098,-1.152 -0.145,-1.724 -0.156,-2.303 0.006,-1 -0.062,-2.073 -0.177,-4.03 -0.208,-3.464 -1.552,-7.068 -1.552,-7.068 -0.025,-0.303 -0.161,-0.552 -0.353,-0.74"
     id="path547" />
  <path
     style="fill:#fab41d;fill-opacity:1;fill-rule:nonzero;stroke:none"
     d="m 67.698988,62.580709 -7.812,-0.287 c 0.094,3.762 0.995,6.339 3.484,7.24 2.131,0.771 3.699,0.298 4.574,-0.682 0.964,-1.099 1.744,-4.182 -0.246,-6.271"
     id="path548" />
  <path
     style="fill:none;stroke:#231f20;stroke-width:0.565977;stroke-linecap:butt;stroke-linejoin:miter;stroke-miterlimit:4;stroke-dasharray:none;stroke-opacity:1"
     d="m 67.698988,62.580709 -7.812,-0.287 c 0.094,3.762 0.995,6.339 3.484,7.24 2.131,0.771 3.699,0.298 4.574,-0.682 0.964,-1.099 1.744,-4.182 -0.246,-6.271 z"
     id="path549" />
  <path
     style="fill:#231f20;fill-opacity:1;fill-rule:nonzero;stroke:none"
     d="m 34.944988,80.445709 c 0.484,-0.422 2.432,-0.453 3.91,-1.084 1,-0.432 3.735,-0.39 4.704,-0.885 0.88,-0.463 1.328,-0.588 2.02,0.323 0.418,0.548 0.86,1.86 0.47,2.188 -0.918,0.76 -1.818,1.041 -2.88,1.13 -1.219,0.104 -4.527,0.088 -5.136,0.026 -1.515,-0.146 -2.135,0.25 -2.542,0.25 -0.76,-0.005 -0.948,-0.302 -1.052,-0.786 -0.202,-0.948 0.506,-1.162 0.506,-1.162"
     id="path550" />
  <path
     style="fill:none;stroke:#231f20;stroke-width:0.565977;stroke-linecap:butt;stroke-linejoin:miter;stroke-miterlimit:4;stroke-dasharray:none;stroke-opacity:1"
     d="m 34.944988,80.445709 c 0.484,-0.422 2.432,-0.453 3.91,-1.084 1,-0.432 3.735,-0.39 4.704,-0.885 0.88,-0.463 1.328,-0.588 2.02,0.323 0.418,0.548 0.86,1.86 0.47,2.188 -0.918,0.76 -1.818,1.041 -2.88,1.13 -1.219,0.104 -4.527,0.088 -5.136,0.026 -1.515,-0.146 -2.135,0.25 -2.542,0.25 -0.76,-0.005 -0.948,-0.302 -1.052,-0.786 -0.202,-0.948 0.506,-1.162 0.506,-1.162 z"
     id="path551" />
  <path
     style="fill:#231f20;fill-opacity:1;fill-rule:nonzero;stroke:none"
     d="m 43.897988,79.049709 c -0.057,-1.297 1.957,-1.016 2.5,-1.021 0.541,-0.005 2.088,-0.197 3.271,-0.511 1.186,-0.306 2.796,-0.186 5.052,-0.765 1.182,-0.301 2.525,0.147 2.896,1.885 0.364,1.719 -0.464,2.568 -1.954,2.724 -1.484,0.152 -2.948,-0.338 -4.464,-0.286 -1.51,0.048 -3.046,0.24 -4.238,0.448 -1.366,0.234 -2.126,-0.146 -2.382,-0.552 -0.65,-1.006 -0.681,-1.922 -0.681,-1.922"
     id="path552" />
  <path
     style="fill:none;stroke:#231f20;stroke-width:0.565977;stroke-linecap:butt;stroke-linejoin:miter;stroke-miterlimit:4;stroke-dasharray:none;stroke-opacity:1"
     d="m 43.897988,79.049709 c -0.057,-1.297 1.957,-1.016 2.5,-1.021 0.541,-0.005 2.088,-0.197 3.271,-0.511 1.186,-0.306 2.796,-0.186 5.052,-0.765 1.182,-0.301 2.525,0.147 2.896,1.885 0.364,1.719 -0.464,2.568 -1.954,2.724 -1.484,0.152 -2.948,-0.338 -4.464,-0.286 -1.51,0.048 -3.046,0.24 -4.238,0.448 -1.366,0.234 -2.126,-0.146 -2.382,-0.552 -0.65,-1.006 -0.681,-1.922 -0.681,-1.922 z"
     id="path553" />
  <path
     style="fill:#231f20;fill-opacity:1;fill-rule:nonzero;stroke:none"
     d="m 28.406988,82.888709 c 0.532,-0.516 3.511,-1.808 4.215,-2.068 0.615,-0.235 1.509,-0.973 2.343,-0.167 0.344,0.307 0.614,1.022 0.646,1.334 0.026,0.26 -0.229,0.464 -0.609,0.568 -0.641,0.192 -0.901,-0.011 -2.151,0.265 0,0 -0.302,0.021 -0.849,0.016 -1.631,0.02 -0.912,-0.141 -3.276,0.405 -0.167,0.043 -0.323,-0.098 -0.344,-0.208 -0.027,-0.182 0.025,-0.145 0.025,-0.145"
     id="path554" />
  <path
     style="fill:none;stroke:#231f20;stroke-width:0.565977;stroke-linecap:round;stroke-linejoin:round;stroke-miterlimit:4;stroke-dasharray:none;stroke-opacity:1"
     d="m 28.406988,82.888709 c 0.532,-0.516 3.511,-1.808 4.215,-2.068 0.615,-0.235 1.509,-0.973 2.343,-0.167 0.344,0.307 0.614,1.022 0.646,1.334 0.026,0.26 -0.229,0.464 -0.609,0.568 -0.641,0.192 -0.901,-0.011 -2.151,0.265 0,0 -0.302,0.021 -0.849,0.016 -1.631,0.02 -0.912,-0.141 -3.276,0.405 -0.167,0.043 -0.323,-0.098 -0.344,-0.208 -0.027,-0.182 0.025,-0.145 0.025,-0.145 z"
     id="path556" />
  <path
     style="fill:#231f20;fill-opacity:1;fill-rule:nonzero;stroke:none"
     d="m 62.892988,28.929709 c 1.14,0.735 0.926,1.703 0.104,2.339 -0.246,0.188 -0.256,0.609 -0.511,0.776 -0.593,0.375 -2.281,-0.047 -2.287,-1.552 0,-0.104 -0.249,-0.885 -0.348,-1.495 -0.177,-1.202 0.026,-3.693 2.11,-5.411999 0.978,-0.812 1.276,-0.077 0.984,0.370999 -0.948,1.421 -0.751,1.733 -0.86,2.208 -0.391,1.573 0.808,2.765 0.808,2.765"
     id="path558" />
  <path
     style="fill:none;stroke:#231f20;stroke-width:0.332927;stroke-linecap:butt;stroke-linejoin:miter;stroke-miterlimit:4;stroke-dasharray:none;stroke-opacity:1"
     d="m 62.892988,28.929709 c 1.14,0.735 0.926,1.703 0.104,2.339 -0.246,0.188 -0.256,0.609 -0.511,0.776 -0.593,0.375 -2.281,-0.047 -2.287,-1.552 0,-0.104 -0.249,-0.885 -0.348,-1.495 -0.177,-1.202 0.026,-3.693 2.11,-5.411999 0.978,-0.812 1.276,-0.077 0.984,0.370999 -0.948,1.421 -0.751,1.733 -0.86,2.208 -0.391,1.573 0.808,2.765 0.808,2.765 z"
     id="path559" />
  <path
     style="fill:#fab41d;fill-opacity:1;fill-rule:nonzero;stroke:none"
     d="m 115.16799,83.623709 c 3.13,-0.183 5.386,-0.772 6.296,-0.902 3.158,-0.458 5.188,-2.125 4.496,-4.926 -0.813,-3.292 -3.51,-4.074 -7.6,-3.292 -1.729,0.338 -5.708,0.129 -5.708,0.129 -3.192,-0.567 -6.15,1.261 -7.082,2.131 -1.12,1.046 -1.557,0.802 -1.939,2.193 -0.686,2.588 -0.093,3.547 0.98,4.067 1.068,0.521 2.359,0.433 4.776,0.661 2.312,0.22 5.781,-0.061 5.781,-0.061"
     id="path560" />
  <path
     style="fill:none;stroke:#231f20;stroke-width:0.565977;stroke-linecap:butt;stroke-linejoin:miter;stroke-miterlimit:4;stroke-dasharray:none;stroke-opacity:1"
     d="m 115.16799,83.623709 c 3.13,-0.183 5.386,-0.772 6.296,-0.902 3.158,-0.458 5.188,-2.125 4.496,-4.926 -0.813,-3.292 -3.51,-4.074 -7.6,-3.292 -1.729,0.338 -5.708,0.129 -5.708,0.129 -3.192,-0.567 -6.15,1.261 -7.082,2.131 -1.12,1.046 -1.557,0.802 -1.939,2.193 -0.686,2.588 -0.093,3.547 0.98,4.067 1.068,0.521 2.359,0.433 4.776,0.661 2.312,0.22 5.781,-0.061 5.781,-0.061 z"
     id="path562" />
  <path
     style="fill:#ffffff;fill-opacity:1;fill-rule:nonzero;stroke:none"
     d="m 102.87699,72.049709 c -0.136,-0.208 0.666,-1.041 0.317,-1.432 -0.348,-0.39 -1.057,-0.026 -2.885,-0.797 l -0.02,-0.011 c -1.318999,-0.604 -2.713999,-0.604 -3.709999,0.162 -1.656,1.256 -1.604,4.1 0.1,6.344 1.714,2.25 4.442999,3.046 6.093999,1.792 1.582,-1.199 1.609,-3.86 0.104,-6.058"
     id="path564" />
  <path
     style="fill:none;stroke:#231f20;stroke-width:0.565977;stroke-linecap:butt;stroke-linejoin:miter;stroke-miterlimit:4;stroke-dasharray:none;stroke-opacity:1"
     d="m 102.87699,72.049709 c -0.136,-0.208 0.666,-1.041 0.317,-1.432 -0.348,-0.39 -1.057,-0.026 -2.885,-0.797 l -0.02,-0.011 c -1.318999,-0.604 -2.713999,-0.604 -3.709999,0.162 -1.656,1.256 -1.604,4.1 0.1,6.344 1.714,2.25 4.442999,3.046 6.093999,1.792 1.582,-1.199 1.609,-3.86 0.104,-6.058 z"
     id="path565" />
  <path
     style="fill:#231f20;fill-opacity:1;fill-rule:nonzero;stroke:none"
     d="m 116.39199,60.929709 c 2.203,-0.5 2.568,-0.901 2.411,-1.844 -0.104,-0.634 0.027,-1.244 -0.02,-1.634 -0.136,-1.287 -0.917,-3.402 -4.661,-8.814 -0.85,-1.218 -2.027,-2.957 -2.459,-3.708 -0.677,-1.166 -2.177,0.751 -1.917,1.219 0.838,1.5 1.286,2.589 1.521,3.167 0.151,0.401 0.527,1.062 0.927,2.682 0.609,2.459 0.614,4.011 1.36,5.995 0.344,0.916 0.021,1.823 0.822,2.552 0.798,0.74 2.016,0.385 2.016,0.385"
     id="path566" />
  <path
     style="fill:none;stroke:#231f20;stroke-width:0.565977;stroke-linecap:butt;stroke-linejoin:miter;stroke-miterlimit:4;stroke-dasharray:none;stroke-opacity:1"
     d="m 116.39199,60.929709 c 2.203,-0.5 2.568,-0.901 2.411,-1.844 -0.104,-0.634 0.027,-1.244 -0.02,-1.634 -0.136,-1.287 -0.917,-3.402 -4.661,-8.814 -0.85,-1.218 -2.027,-2.957 -2.459,-3.708 -0.677,-1.166 -2.177,0.751 -1.917,1.219 0.838,1.5 1.286,2.589 1.521,3.167 0.151,0.401 0.527,1.062 0.927,2.682 0.609,2.459 0.614,4.011 1.36,5.995 0.344,0.916 0.021,1.823 0.822,2.552 0.798,0.74 2.016,0.385 2.016,0.385 z"
     id="path567" />
  <path
     style="fill:#231f20;fill-opacity:1;fill-rule:nonzero;stroke:#231f20;stroke-width:0.565977;stroke-linecap:round;stroke-linejoin:round;stroke-miterlimit:4;stroke-dasharray:none;stroke-opacity:1"
     d="m 114.32399,59.508709 c -0.745,1.203 0.443,3 0.495,3.339 0.661,4.973 0.839,5.312 1.615,9.052 1.12,5.416 2.724,8.948 6.068,9.224 2.26,0.17 3.645,-0.704 4.224,-1.882 0.64,-1.306 0.572,-4.489 -1.902,-5.978 l -0.781,-1.531 c -0.396,-1.089 -0.599,-1.631 -0.755,-2.183 -0.261,-0.964 -0.604,-1.984 -1.224,-3.844 -1.109,-3.292 -3.349,-6.416 -3.349,-6.416 -0.104,-0.286 -0.303,-0.49 -0.536,-0.625"
     id="path568" />
  <path
     style="fill:#fab41d;fill-opacity:1;fill-rule:nonzero;stroke:none"
     d="m 124.68399,73.648709 -7.614,1.771 c 1.077,3.604 2.618,5.86 5.26,6.073 2.254,0.188 3.65,-0.683 4.234,-1.855 0.646,-1.312 0.588,-4.494 -1.88,-5.989"
     id="path569" />
  <path
     style="fill:none;stroke:#231f20;stroke-width:0.565977;stroke-linecap:butt;stroke-linejoin:miter;stroke-miterlimit:4;stroke-dasharray:none;stroke-opacity:1"
     d="m 124.68399,73.648709 -7.614,1.771 c 1.077,3.604 2.618,5.86 5.26,6.073 2.254,0.188 3.65,-0.683 4.234,-1.855 0.646,-1.312 0.588,-4.494 -1.88,-5.989 z"
     id="path570" />
  <path
     style="fill:#231f20;fill-opacity:1;fill-rule:nonzero;stroke:none"
     d="m 92.184991,65.341709 c 0.634,0.072 1.962,1.506 3.416,2.187 0.989,0.453 2.792,2.516 3.802,2.901 0.937999,0.35 1.327999,0.594 1.114999,1.724 -0.131,0.672 -0.812999,1.88 -1.318999,1.807 -1.177,-0.171 -1.989,-0.656 -2.765,-1.389 -0.891,-0.834 -3.088,-3.303 -3.448,-3.798 -0.907,-1.224 -1.615,-1.422 -1.885,-1.724 -0.506,-0.568 -0.412,-0.906 -0.12,-1.312 0.568,-0.777 1.204,-0.396 1.204,-0.396"
     id="path571" />
  <path
     style="fill:none;stroke:#231f20;stroke-width:0.565977;stroke-linecap:butt;stroke-linejoin:miter;stroke-miterlimit:4;stroke-dasharray:none;stroke-opacity:1"
     d="m 92.184991,65.341709 c 0.634,0.072 1.962,1.506 3.416,2.187 0.989,0.453 2.792,2.516 3.802,2.901 0.937999,0.35 1.327999,0.594 1.114999,1.724 -0.131,0.672 -0.812999,1.88 -1.318999,1.807 -1.177,-0.171 -1.989,-0.656 -2.765,-1.389 -0.891,-0.834 -3.088,-3.303 -3.448,-3.798 -0.907,-1.224 -1.615,-1.422 -1.885,-1.724 -0.506,-0.568 -0.412,-0.906 -0.12,-1.312 0.568,-0.777 1.204,-0.396 1.204,-0.396 z"
     id="path572" />
  <path
     style="fill:#231f20;fill-opacity:1;fill-rule:nonzero;stroke:none"
     d="m 99.204991,71.071709 c 0.921999,-0.912 2.061999,0.776 2.425999,1.17 0.371,0.407 1.548,1.423 2.568,2.095 1.027,0.677 2.011,1.957 3.948,3.244 1.016,0.677 1.579,1.985 0.532,3.417 -1.032,1.422 -2.219,1.37 -3.333,0.37 -1.104,-1.006 -1.719,-2.422 -2.767,-3.511 -1.046,-1.093 -2.213,-2.109 -3.171999,-2.859 -1.082,-0.854 -1.306,-1.677 -1.176,-2.136 0.312,-1.156 0.974,-1.79 0.974,-1.79"
     id="path573" />
  <path
     style="fill:none;stroke:#231f20;stroke-width:0.565977;stroke-linecap:butt;stroke-linejoin:miter;stroke-miterlimit:4;stroke-dasharray:none;stroke-opacity:1"
     d="m 99.204991,71.071709 c 0.921999,-0.912 2.061999,0.776 2.425999,1.17 0.371,0.407 1.548,1.423 2.568,2.095 1.027,0.677 2.011,1.957 3.948,3.244 1.016,0.677 1.579,1.985 0.532,3.417 -1.032,1.422 -2.219,1.37 -3.333,0.37 -1.104,-1.006 -1.719,-2.422 -2.767,-3.511 -1.046,-1.093 -2.213,-2.109 -3.171999,-2.859 -1.082,-0.854 -1.306,-1.677 -1.176,-2.136 0.312,-1.156 0.974,-1.79 0.974,-1.79 z"
     id="path574" />
  <path
     style="fill:#231f20;fill-opacity:1;fill-rule:nonzero;stroke:none"
     d="m 86.001988,62.107709 c 0.735,0.057 3.687003,1.406 4.349003,1.754 0.588,0.303 1.734,0.48 1.692,1.636 0.006,0.459 -0.349,1.135 -0.562,1.37 -0.178,0.193 -0.5,0.136 -0.828,-0.078 -0.568,-0.349 -0.594,-0.672 -1.635,-1.417 0,0 -0.22,-0.213 -0.579,-0.62 -1.104,-1.203 -0.51,-0.776 -2.494003,-2.167 -0.142,-0.098 -0.142,-0.306 -0.074,-0.396 0.12,-0.14 0.131,-0.082 0.131,-0.082"
     id="path575" />
  <path
     style="fill:none;stroke:#231f20;stroke-width:0.565977;stroke-linecap:round;stroke-linejoin:round;stroke-miterlimit:4;stroke-dasharray:none;stroke-opacity:1"
     d="m 86.001988,62.107709 c 0.735,0.057 3.687003,1.406 4.349003,1.754 0.588,0.303 1.734,0.48 1.692,1.636 0.006,0.459 -0.349,1.135 -0.562,1.37 -0.178,0.193 -0.5,0.136 -0.828,-0.078 -0.568,-0.349 -0.594,-0.672 -1.635,-1.417 0,0 -0.22,-0.213 -0.579,-0.62 -1.104,-1.203 -0.51,-0.776 -2.494003,-2.167 -0.142,-0.098 -0.142,-0.306 -0.074,-0.396 0.12,-0.14 0.131,-0.082 0.131,-0.082 z"
     id="path576" />
  <path
     style="fill:#231f20;fill-opacity:1;fill-rule:nonzero;stroke:none"
     d="m 111.23599,42.435709 c 1.291,0.406 1.343,1.401 0.714,2.224 -0.188,0.245 -0.09,0.656 -0.292,0.88 -0.474,0.521 -2.214,0.552 -2.61,-0.891 -0.03,-0.104 -0.473,-0.797 -0.729,-1.359 -0.489,-1.105 -0.943,-3.562 0.62,-5.772 0.729,-1.036 1.213,-0.41 1.047,0.1 -0.547,1.624 -0.271,1.87 -0.255,2.354 0.036,1.62 1.505,2.464 1.505,2.464"
     id="path577" />
  <path
     style="fill:none;stroke:#231f20;stroke-width:0.332927;stroke-linecap:butt;stroke-linejoin:miter;stroke-miterlimit:4;stroke-dasharray:none;stroke-opacity:1"
     d="m 111.23599,42.435709 c 1.291,0.406 1.343,1.401 0.714,2.224 -0.188,0.245 -0.09,0.656 -0.292,0.88 -0.474,0.521 -2.214,0.552 -2.61,-0.891 -0.03,-0.104 -0.473,-0.797 -0.729,-1.359 -0.489,-1.105 -0.943,-3.562 0.62,-5.772 0.729,-1.036 1.213,-0.41 1.047,0.1 -0.547,1.624 -0.271,1.87 -0.255,2.354 0.036,1.62 1.505,2.464 1.505,2.464 z"
     id="path578" />
  <path
     style="fill:#ffffff;fill-opacity:1;fill-rule:nonzero;stroke:none"
     d="m 265.82999,50.711709 c -0.75,-2.136 -1.19,-2.448 -2.11,-2.183 -0.61,0.172 -1.24,0.12 -1.62,0.209 -1.26,0.28 -3.28,1.296 -8.22,5.64 -1.12,0.984 -2.71,2.36 -3.39,2.864 -1.09,0.814 0.98,2.079 1.42,1.767 1.39,-1 2.42,-1.573 2.97,-1.871 0.38,-0.197 1,-0.645 2.56,-1.233 2.37,-0.887 3.92,-1.068 5.8,-2.032 0.87,-0.453 1.81,-0.235 2.44,-1.12 0.64,-0.869 0.15,-2.041 0.15,-2.041"
     id="path579" />
  <path
     style="fill:none;stroke:#231f20;stroke-width:0.565977;stroke-linecap:butt;stroke-linejoin:miter;stroke-miterlimit:4;stroke-dasharray:none;stroke-opacity:1"
     d="m 265.82999,50.711709 c -0.75,-2.136 -1.19,-2.448 -2.11,-2.183 -0.61,0.172 -1.24,0.12 -1.62,0.209 -1.26,0.28 -3.28,1.296 -8.22,5.64 -1.12,0.984 -2.71,2.36 -3.39,2.864 -1.09,0.814 0.98,2.079 1.42,1.767 1.39,-1 2.42,-1.573 2.97,-1.871 0.38,-0.197 1,-0.645 2.56,-1.233 2.37,-0.887 3.92,-1.068 5.8,-2.032 0.87,-0.453 1.81,-0.235 2.44,-1.12 0.64,-0.869 0.15,-2.041 0.15,-2.041 z"
     id="path580" />
  <path
     style="fill:#ffffff;fill-opacity:1;fill-rule:nonzero;stroke:#231f20;stroke-width:0.565977;stroke-linecap:round;stroke-linejoin:round;stroke-miterlimit:4;stroke-dasharray:none;stroke-opacity:1"
     d="m 264.65999,52.929709 c 1.28,0.599 2.93,-0.786 3.26,-0.874 4.86,-1.235 5.17,-1.448 8.8,-2.647 5.25,-1.733 8.58,-3.728 8.47,-7.083 -0.09,-2.265 -1.12,-3.541 -2.36,-3.984 -1.37,-0.485 -4.52,-0.052 -5.71,2.572 l -1.44,0.954 c -1.04,0.521 -1.54,0.781 -2.07,1 -0.94,0.37 -1.91,0.833 -3.68,1.661 -3.15,1.48 -5.99,4.063 -5.99,4.063 -0.28,0.141 -0.45,0.36 -0.56,0.604"
     id="path581" />
  <path
     style="fill:#231f20;fill-opacity:1;fill-rule:nonzero;stroke:none"
     d="m 248.04999,57.956709 c 0.25,-1.329 1.24,-1.491 2.12,-0.964 0.27,0.161 0.66,0.016 0.91,0.188 0.58,0.416 0.81,2.14 -0.58,2.703 -0.1,0.036 -0.73,0.557 -1.26,0.874 -1.05,0.615 -3.44,1.344 -5.81,0.047 -1.12,-0.604 -0.55,-1.161 -0.02,-1.052 1.67,0.355 1.89,0.057 2.37,-0.02 1.6,-0.219 2.27,-1.776 2.27,-1.776"
     id="path582" />
  <path
     style="fill:none;stroke:#231f20;stroke-width:0.332927;stroke-linecap:butt;stroke-linejoin:miter;stroke-miterlimit:4;stroke-dasharray:none;stroke-opacity:1"
     d="m 248.04999,57.956709 c 0.25,-1.329 1.24,-1.491 2.12,-0.964 0.27,0.161 0.66,0.016 0.91,0.188 0.58,0.416 0.81,2.14 -0.58,2.703 -0.1,0.036 -0.73,0.557 -1.26,0.874 -1.05,0.615 -3.44,1.344 -5.81,0.047 -1.12,-0.604 -0.55,-1.161 -0.02,-1.052 1.67,0.355 1.89,0.057 2.37,-0.02 1.6,-0.219 2.27,-1.776 2.27,-1.776 z"
     id="path583" />
  <path
     style="fill:#fab41d;fill-opacity:1;fill-rule:nonzero;stroke:none"
     d="m 282.84999,52.815709 c 0.21,-3.126 0.6,-3.776 1.02,-4.599 2.61,-5.156 0.03,-6.344 -2.83,-6.005 -3.37,0.39 -4.59,0.464 -4.4,6.754 0.05,1.751 -0.63,8.491 -0.63,8.491 -0.57,2.38 0.15,5.005 1.29,5.9 1.22,0.943 0.81,0.48 2.08,1.147 1.23,0.64 3.41,0.525 4.16,-0.454 0.73,-0.942 0.11,-2.494 -0.5,-4.838 -0.47,-1.855 -0.19,-6.396 -0.19,-6.396"
     id="path584" />
  <path
     style="fill:none;stroke:#231f20;stroke-width:0.565977;stroke-linecap:butt;stroke-linejoin:miter;stroke-miterlimit:4;stroke-dasharray:none;stroke-opacity:1"
     d="m 282.84999,52.815709 c 0.21,-3.126 0.6,-3.776 1.02,-4.599 2.61,-5.156 0.03,-6.344 -2.83,-6.005 -3.37,0.39 -4.59,0.464 -4.4,6.754 0.05,1.751 -0.63,8.491 -0.63,8.491 -0.57,2.38 0.15,5.005 1.29,5.9 1.22,0.943 0.81,0.48 2.08,1.147 1.23,0.64 3.41,0.525 4.16,-0.454 0.73,-0.942 0.11,-2.494 -0.5,-4.838 -0.47,-1.855 -0.19,-6.396 -0.19,-6.396 z"
     id="path585" />
  <path
     style="fill:#ffffff;fill-opacity:1;fill-rule:nonzero;stroke:none"
     d="m 276.38999,70.241709 c -0.04,0.246 -1.19,0.324 -1.2,0.85 0,0.526 0.77,0.729 1.61,2.532 l 0.01,0.02 c 0.57,1.333 1.6,2.265 2.85,2.374 2.08,0.172 3.94,-1.962 4.19,-4.77 0.24,-2.823 -1.25,-5.239 -3.32,-5.422 -1.97,-0.177 -3.78,1.782 -4.14,4.416"
     id="path586" />
  <path
     style="fill:none;stroke:#231f20;stroke-width:0.565977;stroke-linecap:butt;stroke-linejoin:miter;stroke-miterlimit:4;stroke-dasharray:none;stroke-opacity:1"
     d="m 276.38999,70.241709 c -0.04,0.246 -1.19,0.324 -1.2,0.85 0,0.526 0.77,0.729 1.61,2.532 l 0.01,0.02 c 0.57,1.333 1.6,2.265 2.85,2.374 2.08,0.172 3.94,-1.962 4.19,-4.77 0.24,-2.823 -1.25,-5.239 -3.32,-5.422 -1.97,-0.177 -3.78,1.782 -4.14,4.416 z"
     id="path587" />
  <path
     style="fill:#231f20;fill-opacity:1;fill-rule:nonzero;stroke:none"
     d="m 264.09999,47.289709 c -0.3,-2.24 -0.66,-2.641 -1.61,-2.573 -0.64,0.041 -1.24,-0.141 -1.63,-0.131 -1.29,0.011 -3.47,0.59 -9.21,3.808 -1.3,0.735 -3.14,1.744 -3.92,2.099 -1.23,0.568 0.54,2.24 1.03,2.021 1.57,-0.693 2.69,-1.032 3.29,-1.209 0.42,-0.115 1.11,-0.427 2.76,-0.677 2.5,-0.375 4.06,-0.228 6.1,-0.786 0.94,-0.256 1.82,0.151 2.62,-0.584 0.81,-0.718 0.57,-1.968 0.57,-1.968"
     id="path588" />
  <path
     style="fill:none;stroke:#231f20;stroke-width:0.565977;stroke-linecap:butt;stroke-linejoin:miter;stroke-miterlimit:4;stroke-dasharray:none;stroke-opacity:1"
     d="m 264.09999,47.289709 c -0.3,-2.24 -0.66,-2.641 -1.61,-2.573 -0.64,0.041 -1.24,-0.141 -1.63,-0.131 -1.29,0.011 -3.47,0.59 -9.21,3.808 -1.3,0.735 -3.14,1.744 -3.92,2.099 -1.23,0.568 0.54,2.24 1.03,2.021 1.57,-0.693 2.69,-1.032 3.29,-1.209 0.42,-0.115 1.11,-0.427 2.76,-0.677 2.5,-0.375 4.06,-0.228 6.1,-0.786 0.94,-0.256 1.82,0.151 2.62,-0.584 0.81,-0.718 0.57,-1.968 0.57,-1.968 z"
     id="path589" />
  <path
     style="fill:#231f20;fill-opacity:1;fill-rule:nonzero;stroke:#231f20;stroke-width:0.565977;stroke-linecap:round;stroke-linejoin:round;stroke-miterlimit:4;stroke-dasharray:none;stroke-opacity:1"
     d="m 262.48999,49.216709 c 1.13,0.855 3.03,-0.156 3.37,-0.177 5.01,-0.192 5.37,-0.339 9.16,-0.76 5.5,-0.604 9.17,-1.866 9.76,-5.167 0.38,-2.235 -0.36,-3.693 -1.48,-4.385 -1.24,-0.762 -4.41,-0.99 -6.13,1.328 l -1.6,0.634 c -1.12,0.292 -1.67,0.443 -2.24,0.543 -0.98,0.172 -2.03,0.421 -3.94,0.864 -3.38,0.792 -6.7,2.729 -6.7,2.729 -0.3,0.079 -0.52,0.255 -0.67,0.479"
     id="path590" />
  <path
     style="fill:#fab41d;fill-opacity:1;fill-rule:nonzero;stroke:none"
     d="m 283.67999,38.924709 c -1.25,-0.765 -4.41,-1.011 -6.14,1.308 l 1.05,7.744 c 3.69,-0.729 6.08,-2.052 6.54,-4.661 0.4,-2.23 -0.33,-3.698 -1.45,-4.391"
     id="path591" />
  <path
     style="fill:none;stroke:#231f20;stroke-width:0.565977;stroke-linecap:butt;stroke-linejoin:miter;stroke-miterlimit:4;stroke-dasharray:none;stroke-opacity:1"
     d="m 283.67999,38.924709 c -1.25,-0.765 -4.41,-1.011 -6.14,1.308 l 1.05,7.744 c 3.69,-0.729 6.08,-2.052 6.54,-4.661 0.4,-2.23 -0.33,-3.698 -1.45,-4.391 z"
     id="path592" />
  <path
     style="fill:#231f20;fill-opacity:1;fill-rule:nonzero;stroke:none"
     d="m 277.97999,81.981709 c -0.33,-0.552 -0.02,-2.473 -0.37,-4.041 -0.26,-1.057 0.27,-3.745 -0.05,-4.781 -0.3,-0.954 -0.35,-1.412 0.68,-1.938 0.61,-0.313 1.98,-0.516 2.23,-0.073 0.59,1.036 0.7,1.975 0.6,3.036 -0.11,1.215 -0.7,4.469 -0.87,5.057 -0.42,1.47 -0.14,2.147 -0.2,2.548 -0.15,0.744 -0.47,0.88 -0.97,0.895 -0.97,0.032 -1.05,-0.703 -1.05,-0.703"
     id="path593" />
  <path
     style="fill:none;stroke:#231f20;stroke-width:0.565977;stroke-linecap:butt;stroke-linejoin:miter;stroke-miterlimit:4;stroke-dasharray:none;stroke-opacity:1"
     d="m 277.97999,81.981709 c -0.33,-0.552 -0.02,-2.473 -0.37,-4.041 -0.26,-1.057 0.27,-3.745 -0.05,-4.781 -0.3,-0.954 -0.35,-1.412 0.68,-1.938 0.61,-0.313 1.98,-0.516 2.23,-0.073 0.59,1.036 0.7,1.975 0.6,3.036 -0.11,1.215 -0.7,4.469 -0.87,5.057 -0.42,1.47 -0.14,2.147 -0.2,2.548 -0.15,0.744 -0.47,0.88 -0.97,0.895 -0.97,0.032 -1.05,-0.703 -1.05,-0.703 z"
     id="path594" />
  <path
     style="fill:#231f20;fill-opacity:1;fill-rule:nonzero;stroke:none"
     d="m 278.18999,72.924709 c -1.29,-0.177 -0.65,-2.109 -0.56,-2.64 0.08,-0.537 0.16,-2.095 0.07,-3.308 -0.09,-1.229 0.31,-2.792 0.13,-5.109 -0.08,-1.219 0.6,-2.463 2.37,-2.52 1.76,-0.054 2.45,0.91 2.34,2.405 -0.11,1.489 -0.85,2.844 -1.07,4.339 -0.22,1.494 -0.3,3.041 -0.31,4.256 -0.01,1.385 -0.52,2.061 -0.96,2.244 -1.11,0.464 -2.01,0.333 -2.01,0.333"
     id="path596" />
  <path
     style="fill:none;stroke:#231f20;stroke-width:0.565977;stroke-linecap:butt;stroke-linejoin:miter;stroke-miterlimit:4;stroke-dasharray:none;stroke-opacity:1"
     d="m 278.18999,72.924709 c -1.29,-0.177 -0.65,-2.109 -0.56,-2.64 0.08,-0.537 0.16,-2.095 0.07,-3.308 -0.09,-1.229 0.31,-2.792 0.13,-5.109 -0.08,-1.219 0.6,-2.463 2.37,-2.52 1.76,-0.054 2.45,0.91 2.34,2.405 -0.11,1.489 -0.85,2.844 -1.07,4.339 -0.22,1.494 -0.3,3.041 -0.31,4.256 -0.01,1.385 -0.52,2.061 -0.96,2.244 -1.11,0.464 -2.01,0.333 -2.01,0.333 z"
     id="path597" />
  <path
     style="fill:#231f20;fill-opacity:1;fill-rule:nonzero;stroke:none"
     d="m 284.60999,84.347709 c -0.7,0.224 -3.95,0.098 -4.69,0.03 -0.66,-0.057 -1.78,0.219 -2.18,-0.869 -0.18,-0.423 -0.11,-1.183 0,-1.48 0.08,-0.244 0.41,-0.317 0.79,-0.244 0.66,0.104 0.81,0.4 2.05,0.692 0,0 0.29,0.115 0.77,0.355 1.48,0.692 0.77,0.52 3.13,1.052 0.17,0.036 0.25,0.229 0.22,0.338 -0.06,0.178 -0.09,0.126 -0.09,0.126"
     id="path598" />
  <path
     style="fill:none;stroke:#231f20;stroke-width:0.565977;stroke-linecap:round;stroke-linejoin:round;stroke-miterlimit:4;stroke-dasharray:none;stroke-opacity:1"
     d="m 284.60999,84.347709 c -0.7,0.224 -3.95,0.098 -4.69,0.03 -0.66,-0.057 -1.78,0.219 -2.18,-0.869 -0.18,-0.423 -0.11,-1.183 0,-1.48 0.08,-0.244 0.41,-0.317 0.79,-0.244 0.66,0.104 0.81,0.4 2.05,0.692 0,0 0.29,0.115 0.77,0.355 1.48,0.692 0.77,0.52 3.13,1.052 0.17,0.036 0.25,0.229 0.22,0.338 -0.06,0.178 -0.09,0.126 -0.09,0.126 z"
     id="path600" />
  <path
     style="fill:#231f20;fill-opacity:1;fill-rule:nonzero;stroke:none"
     d="m 245.19999,50.684709 c 0.53,-1.249 1.52,-1.203 2.28,-0.5 0.23,0.209 0.64,0.147 0.85,0.371 0.48,0.52 0.34,2.26 -1.14,2.516 -0.1,0.02 -0.82,0.394 -1.41,0.598 -1.15,0.38 -3.64,0.604 -5.69,-1.161 -0.97,-0.824 -0.29,-1.245 0.2,-1.032 1.56,0.693 1.83,0.448 2.32,0.469 1.62,0.12 2.59,-1.261 2.59,-1.261"
     id="path602" />
  <path
     style="fill:none;stroke:#231f20;stroke-width:0.332927;stroke-linecap:butt;stroke-linejoin:miter;stroke-miterlimit:4;stroke-dasharray:none;stroke-opacity:1"
     d="m 245.19999,50.684709 c 0.53,-1.249 1.52,-1.203 2.28,-0.5 0.23,0.209 0.64,0.147 0.85,0.371 0.48,0.52 0.34,2.26 -1.14,2.516 -0.1,0.02 -0.82,0.394 -1.41,0.598 -1.15,0.38 -3.64,0.604 -5.69,-1.161 -0.97,-0.824 -0.29,-1.245 0.2,-1.032 1.56,0.693 1.83,0.448 2.32,0.469 1.62,0.12 2.59,-1.261 2.59,-1.261 z"
     id="path603" />
  <path
     style="fill:#fab41d;fill-opacity:1;fill-rule:nonzero;stroke:none"
     d="m 155.49599,66.965709 c -1.974,2.439 -3.068,4.506 -3.584,5.267 -1.79,2.64 -1.932,5.26 0.606,6.64 2.978,1.62 5.374,0.151 7.556,-3.396 0.917,-1.5 3.756,-4.301 3.756,-4.301 2.573,-1.97 3.218,-5.391 3.202,-6.662 -0.014,-1.532 0.459,-1.693 -0.312,-2.912 -1.448,-2.254 -2.557,-2.464 -3.666,-2.021 -1.099,0.437 -1.907,1.448 -3.703,3.079 -1.724,1.562 -3.855,4.306 -3.855,4.306"
     id="path604" />
  <path
     style="fill:none;stroke:#231f20;stroke-width:0.565977;stroke-linecap:butt;stroke-linejoin:miter;stroke-miterlimit:4;stroke-dasharray:none;stroke-opacity:1"
     d="m 155.49599,66.965709 c -1.974,2.439 -3.068,4.506 -3.584,5.267 -1.79,2.64 -1.932,5.26 0.606,6.64 2.978,1.62 5.374,0.151 7.556,-3.396 0.917,-1.5 3.756,-4.301 3.756,-4.301 2.573,-1.97 3.218,-5.391 3.202,-6.662 -0.014,-1.532 0.459,-1.693 -0.312,-2.912 -1.448,-2.254 -2.557,-2.464 -3.666,-2.021 -1.099,0.437 -1.907,1.448 -3.703,3.079 -1.724,1.562 -3.855,4.306 -3.855,4.306 z"
     id="path605" />
  <path
     style="fill:#ffffff;fill-opacity:1;fill-rule:nonzero;stroke:none"
     d="m 172.26699,57.851709 c 0.172,-0.182 1.172,0.39 1.469,-0.042 0.291,-0.437 -0.24,-1.03 0.062,-2.994 l 0.005,-0.026 c 0.261,-1.422 -0.083,-2.776 -1.067,-3.557 -1.63,-1.292 -4.37,-0.543 -6.125,1.661 -1.76,2.214 -1.86,5.052 -0.24,6.348 1.552,1.24 4.141,0.606 5.896,-1.39"
     id="path606" />
  <path
     style="fill:none;stroke:#231f20;stroke-width:0.565977;stroke-linecap:butt;stroke-linejoin:miter;stroke-miterlimit:4;stroke-dasharray:none;stroke-opacity:1"
     d="m 172.26699,57.851709 c 0.172,-0.182 1.172,0.39 1.469,-0.042 0.291,-0.437 -0.24,-1.03 0.062,-2.994 l 0.005,-0.026 c 0.261,-1.422 -0.083,-2.776 -1.067,-3.557 -1.63,-1.292 -4.37,-0.543 -6.125,1.661 -1.76,2.214 -1.86,5.052 -0.24,6.348 1.552,1.24 4.141,0.606 5.896,-1.39 z"
     id="path607" />
  <path
     style="fill:#231f20;fill-opacity:1;fill-rule:nonzero;stroke:none"
     d="m 158.93399,81.940709 c -0.24,-0.599 0.396,-2.443 0.302,-4.047 -0.062,-1.084 0.9,-3.652 0.76,-4.724 -0.136,-0.985 -0.104,-1.448 0.99,-1.792 0.656,-0.208 2.041,-0.177 2.218,0.303 0.407,1.119 0.36,2.061 0.084,3.088 -0.313,1.183 -1.448,4.292 -1.709,4.844 -0.656,1.375 -0.495,2.093 -0.629,2.473 -0.266,0.714 -0.604,0.792 -1.099,0.724 -0.959,-0.129 -0.917,-0.869 -0.917,-0.869"
     id="path608" />
  <path
     style="fill:none;stroke:#231f20;stroke-width:0.565977;stroke-linecap:butt;stroke-linejoin:miter;stroke-miterlimit:4;stroke-dasharray:none;stroke-opacity:1"
     d="m 158.93399,81.940709 c -0.24,-0.599 0.396,-2.443 0.302,-4.047 -0.062,-1.084 0.9,-3.652 0.76,-4.724 -0.136,-0.985 -0.104,-1.448 0.99,-1.792 0.656,-0.208 2.041,-0.177 2.218,0.303 0.407,1.119 0.36,2.061 0.084,3.088 -0.313,1.183 -1.448,4.292 -1.709,4.844 -0.656,1.375 -0.495,2.093 -0.629,2.473 -0.266,0.714 -0.604,0.792 -1.099,0.724 -0.959,-0.129 -0.917,-0.869 -0.917,-0.869 z"
     id="path609" />
  <path
     style="fill:#231f20;fill-opacity:1;fill-rule:nonzero;stroke:none"
     d="m 160.65199,73.044709 c -1.234,-0.385 -0.286,-2.188 -0.114,-2.697 0.182,-0.516 0.521,-2.032 0.63,-3.246 0.115,-1.229 0.776,-2.702 0.99,-5.016 0.12,-1.218 1,-2.333 2.754,-2.088 1.74,0.24 2.262,1.307 1.907,2.76 -0.364,1.448 -1.317,2.667 -1.787,4.104 -0.462,1.438 -0.801,2.948 -1.014,4.142 -0.24,1.358 -0.855,1.948 -1.324,2.052 -1.172,0.27 -2.042,-0.011 -2.042,-0.011"
     id="path611" />
  <path
     style="fill:none;stroke:#231f20;stroke-width:0.565977;stroke-linecap:butt;stroke-linejoin:miter;stroke-miterlimit:4;stroke-dasharray:none;stroke-opacity:1"
     d="m 160.65199,73.044709 c -1.234,-0.385 -0.286,-2.188 -0.114,-2.697 0.182,-0.516 0.521,-2.032 0.63,-3.246 0.115,-1.229 0.776,-2.702 0.99,-5.016 0.12,-1.218 1,-2.333 2.754,-2.088 1.74,0.24 2.262,1.307 1.907,2.76 -0.364,1.448 -1.317,2.667 -1.787,4.104 -0.462,1.438 -0.801,2.948 -1.014,4.142 -0.24,1.358 -0.855,1.948 -1.324,2.052 -1.172,0.27 -2.042,-0.011 -2.042,-0.011 z"
     id="path612" />
  <path
     style="fill:#231f20;fill-opacity:1;fill-rule:nonzero;stroke:none"
     d="m 165.56399,83.945709 c -0.677,0.292 -3.922,0.468 -4.666,0.468 -0.667,0.006 -1.762,0.382 -2.262,-0.661 -0.213,-0.411 -0.218,-1.172 -0.14,-1.479 0.068,-0.25 0.38,-0.354 0.771,-0.317 0.667,0.047 0.844,0.328 2.104,0.5 0,0 0.297,0.088 0.808,0.281 1.531,0.552 0.807,0.452 3.208,0.766 0.172,0.02 0.271,0.202 0.249,0.312 -0.041,0.182 -0.072,0.13 -0.072,0.13"
     id="path613" />
  <path
     style="fill:none;stroke:#231f20;stroke-width:0.565977;stroke-linecap:round;stroke-linejoin:round;stroke-miterlimit:4;stroke-dasharray:none;stroke-opacity:1"
     d="m 165.56399,83.945709 c -0.677,0.292 -3.922,0.468 -4.666,0.468 -0.667,0.006 -1.762,0.382 -2.262,-0.661 -0.213,-0.411 -0.218,-1.172 -0.14,-1.479 0.068,-0.25 0.38,-0.354 0.771,-0.317 0.667,0.047 0.844,0.328 2.104,0.5 0,0 0.297,0.088 0.808,0.281 1.531,0.552 0.807,0.452 3.208,0.766 0.172,0.02 0.271,0.202 0.249,0.312 -0.041,0.182 -0.072,0.13 -0.072,0.13 z"
     id="path615" />
  <path
     style="fill:#ffffff;fill-opacity:1;fill-rule:nonzero;stroke:none"
     d="m 167.68799,66.372709 c 1.11,1.975 1.595,2.208 2.454,1.792 0.584,-0.276 1.209,-0.333 1.562,-0.484 1.199,-0.496 3.006,-1.839 7.136,-6.969 0.927,-1.162 2.255,-2.787 2.854,-3.407 0.928,-0.984 -1.334,-1.875 -1.708,-1.489 -1.203,1.224 -2.12,1.964 -2.61,2.349 -0.338,0.26 -0.869,0.807 -2.312,1.651 -2.177,1.281 -3.672,1.729 -5.36,3 -0.781,0.593 -1.744,0.541 -2.213,1.521 -0.484,0.963 0.197,2.036 0.197,2.036"
     id="path617" />
  <path
     style="fill:none;stroke:#231f20;stroke-width:0.565977;stroke-linecap:butt;stroke-linejoin:miter;stroke-miterlimit:4;stroke-dasharray:none;stroke-opacity:1"
     d="m 167.68799,66.372709 c 1.11,1.975 1.595,2.208 2.454,1.792 0.584,-0.276 1.209,-0.333 1.562,-0.484 1.199,-0.496 3.006,-1.839 7.136,-6.969 0.927,-1.162 2.255,-2.787 2.854,-3.407 0.928,-0.984 -1.334,-1.875 -1.708,-1.489 -1.203,1.224 -2.12,1.964 -2.61,2.349 -0.338,0.26 -0.869,0.807 -2.312,1.651 -2.177,1.281 -3.672,1.729 -5.36,3 -0.781,0.593 -1.744,0.541 -2.213,1.521 -0.484,0.963 0.197,2.036 0.197,2.036 z"
     id="path618" />
  <path
     style="fill:#ffffff;fill-opacity:1;fill-rule:nonzero;stroke:#231f20;stroke-width:0.565977;stroke-linecap:round;stroke-linejoin:round;stroke-miterlimit:4;stroke-dasharray:none;stroke-opacity:1"
     d="m 168.46999,63.987709 c -1.364,-0.37 -2.755,1.276 -3.063,1.417 -4.577,2.052 -4.853,2.312 -8.219,4.119 -4.88,2.609 -7.817,5.146 -7.129,8.428 0.473,2.218 1.708,3.296 3,3.525 1.443,0.24 4.468,-0.729 5.197,-3.52 l 1.246,-1.183 c 0.932,-0.693 1.39,-1.036 1.874,-1.344 0.855,-0.521 1.735,-1.14 3.344,-2.265 2.839,-1.995 5.203,-5.027 5.203,-5.027 0.245,-0.186 0.385,-0.426 0.448,-0.692"
     id="path619" />
  <path
     style="fill:#fab41d;fill-opacity:1;fill-rule:nonzero;stroke:#231f20;stroke-width:0.565977;stroke-linecap:butt;stroke-linejoin:miter;stroke-miterlimit:4;stroke-dasharray:none;stroke-opacity:1"
     d="m 153.99099,71.132709 c -3.151,2.052 -4.875,4.172 -4.339,6.761 0.464,2.219 1.688,3.312 2.984,3.536 1.438,0.251 4.47,-0.708 5.21,-3.5 z"
     id="path620" />
  <path
     style="fill:#231f20;fill-opacity:1;fill-rule:nonzero;stroke:none"
     d="m 183.96999,56.184709 c -0.026,1.355 -0.963,1.683 -1.932,1.313 -0.292,-0.109 -0.651,0.104 -0.927,-0.026 -0.636,-0.307 -1.161,-1.968 0.12,-2.755 0.083,-0.057 0.62,-0.677 1.088,-1.089 0.927,-0.78 3.156,-1.911 5.713,-1.042 1.204,0.412 0.735,1.052 0.199,1.038 -1.704,-0.063 -1.871,0.27 -2.328,0.426 -1.543,0.49 -1.933,2.135 -1.933,2.135"
     id="path621" />
  <path
     style="fill:none;stroke:#231f20;stroke-width:0.332927;stroke-linecap:butt;stroke-linejoin:miter;stroke-miterlimit:4;stroke-dasharray:none;stroke-opacity:1"
     d="m 183.96999,56.184709 c -0.026,1.355 -0.963,1.683 -1.932,1.313 -0.292,-0.109 -0.651,0.104 -0.927,-0.026 -0.636,-0.307 -1.161,-1.968 0.12,-2.755 0.083,-0.057 0.62,-0.677 1.088,-1.089 0.927,-0.78 3.156,-1.911 5.713,-1.042 1.204,0.412 0.735,1.052 0.199,1.038 -1.704,-0.063 -1.871,0.27 -2.328,0.426 -1.543,0.49 -1.933,2.135 -1.933,2.135 z"
     id="path622" />
  <path
     style="fill:#fab41d;fill-opacity:1;fill-rule:nonzero;stroke:none"
     d="m 210.58399,53.060709 c -2.494,-1.896 -4.593,-2.923 -5.364,-3.417 -2.698,-1.714 -5.322,-1.771 -6.625,0.802 -1.525,3.031 0.016,5.38 3.625,7.454 1.526,0.869 4.411,3.624 4.411,3.624 2.053,2.51 5.491,3.052 6.761,3 1.531,-0.062 1.708,0.401 2.902,-0.406 2.208,-1.51 2.38,-2.63 1.905,-3.724 -0.473,-1.089 -1.505,-1.865 -3.187,-3.614 -1.62,-1.667 -4.428,-3.719 -4.428,-3.719"
     id="path623" />
  <path
     style="fill:none;stroke:#231f20;stroke-width:0.565977;stroke-linecap:butt;stroke-linejoin:miter;stroke-miterlimit:4;stroke-dasharray:none;stroke-opacity:1"
     d="m 210.58399,53.060709 c -2.494,-1.896 -4.593,-2.923 -5.364,-3.417 -2.698,-1.714 -5.322,-1.771 -6.625,0.802 -1.525,3.031 0.016,5.38 3.625,7.454 1.526,0.869 4.411,3.624 4.411,3.624 2.053,2.51 5.491,3.052 6.761,3 1.531,-0.062 1.708,0.401 2.902,-0.406 2.208,-1.51 2.38,-2.63 1.905,-3.724 -0.473,-1.089 -1.505,-1.865 -3.187,-3.614 -1.62,-1.667 -4.428,-3.719 -4.428,-3.719 z"
     id="path624" />
  <path
     style="fill:#ffffff;fill-opacity:1;fill-rule:nonzero;stroke:none"
     d="m 220.95999,69.361709 c 0.198,0.147 -0.25,1.214 0.214,1.448 0.468,0.246 0.994,-0.353 2.984,-0.292 l 0.021,0.006 c 1.448,0.089 2.749,-0.411 3.411,-1.479 1.084,-1.771 0.016,-4.401 -2.38,-5.885 -2.407,-1.49 -5.235,-1.251 -6.328,0.516 -1.052,1.681 -0.115,4.176 2.078,5.686"
     id="path625" />
  <path
     style="fill:none;stroke:#231f20;stroke-width:0.565977;stroke-linecap:butt;stroke-linejoin:miter;stroke-miterlimit:4;stroke-dasharray:none;stroke-opacity:1"
     d="m 220.95999,69.361709 c 0.198,0.147 -0.25,1.214 0.214,1.448 0.468,0.246 0.994,-0.353 2.984,-0.292 l 0.021,0.006 c 1.448,0.089 2.749,-0.411 3.411,-1.479 1.084,-1.771 0.016,-4.401 -2.38,-5.885 -2.407,-1.49 -5.235,-1.251 -6.328,0.516 -1.052,1.681 -0.115,4.176 2.078,5.686 z"
     id="path626" />
  <path
     style="fill:#231f20;fill-opacity:1;fill-rule:nonzero;stroke:none"
     d="m 210.32999,81.940709 c -0.235,-0.599 0.401,-2.443 0.306,-4.047 -0.066,-1.084 0.896,-3.652 0.756,-4.724 -0.136,-0.985 -0.098,-1.448 0.995,-1.792 0.651,-0.208 2.041,-0.177 2.213,0.303 0.407,1.119 0.364,2.061 0.088,3.088 -0.317,1.183 -1.446,4.292 -1.713,4.844 -0.651,1.375 -0.489,2.093 -0.624,2.473 -0.267,0.714 -0.605,0.792 -1.105,0.724 -0.952,-0.129 -0.916,-0.869 -0.916,-0.869"
     id="path627" />
  <path
     style="fill:none;stroke:#231f20;stroke-width:0.565977;stroke-linecap:butt;stroke-linejoin:miter;stroke-miterlimit:4;stroke-dasharray:none;stroke-opacity:1"
     d="m 210.32999,81.940709 c -0.235,-0.599 0.401,-2.443 0.306,-4.047 -0.066,-1.084 0.896,-3.652 0.756,-4.724 -0.136,-0.985 -0.098,-1.448 0.995,-1.792 0.651,-0.208 2.041,-0.177 2.213,0.303 0.407,1.119 0.364,2.061 0.088,3.088 -0.317,1.183 -1.446,4.292 -1.713,4.844 -0.651,1.375 -0.489,2.093 -0.624,2.473 -0.267,0.714 -0.605,0.792 -1.105,0.724 -0.952,-0.129 -0.916,-0.869 -0.916,-0.869 z"
     id="path628" />
  <path
     style="fill:#231f20;fill-opacity:1;fill-rule:nonzero;stroke:none"
     d="m 212.05399,73.044709 c -1.24,-0.385 -0.292,-2.188 -0.115,-2.697 0.177,-0.516 0.521,-2.032 0.625,-3.246 0.115,-1.229 0.776,-2.702 0.995,-5.016 0.115,-1.218 0.995,-2.333 2.755,-2.088 1.734,0.24 2.261,1.307 1.901,2.76 -0.364,1.448 -1.312,2.667 -1.781,4.104 -0.47,1.438 -0.807,2.948 -1.016,4.142 -0.239,1.358 -0.859,1.948 -1.328,2.052 -1.167,0.27 -2.036,-0.011 -2.036,-0.011"
     id="path630" />
  <path
     style="fill:none;stroke:#231f20;stroke-width:0.565977;stroke-linecap:butt;stroke-linejoin:miter;stroke-miterlimit:4;stroke-dasharray:none;stroke-opacity:1"
     d="m 212.05399,73.044709 c -1.24,-0.385 -0.292,-2.188 -0.115,-2.697 0.177,-0.516 0.521,-2.032 0.625,-3.246 0.115,-1.229 0.776,-2.702 0.995,-5.016 0.115,-1.218 0.995,-2.333 2.755,-2.088 1.734,0.24 2.261,1.307 1.901,2.76 -0.364,1.448 -1.312,2.667 -1.781,4.104 -0.47,1.438 -0.807,2.948 -1.016,4.142 -0.239,1.358 -0.859,1.948 -1.328,2.052 -1.167,0.27 -2.036,-0.011 -2.036,-0.011 z"
     id="path631" />
  <path
     style="fill:#231f20;fill-opacity:1;fill-rule:nonzero;stroke:none"
     d="m 216.95999,83.945709 c -0.677,0.292 -3.922,0.468 -4.666,0.468 -0.663,0.006 -1.756,0.382 -2.256,-0.661 -0.219,-0.411 -0.219,-1.172 -0.14,-1.479 0.066,-0.25 0.38,-0.354 0.77,-0.317 0.667,0.047 0.839,0.328 2.104,0.5 0,0 0.292,0.088 0.803,0.281 1.536,0.552 0.807,0.452 3.213,0.766 0.167,0.02 0.266,0.202 0.25,0.312 -0.042,0.182 -0.078,0.13 -0.078,0.13"
     id="path632" />
  <path
     style="fill:none;stroke:#231f20;stroke-width:0.565977;stroke-linecap:round;stroke-linejoin:round;stroke-miterlimit:4;stroke-dasharray:none;stroke-opacity:1"
     d="m 216.95999,83.945709 c -0.677,0.292 -3.922,0.468 -4.666,0.468 -0.663,0.006 -1.756,0.382 -2.256,-0.661 -0.219,-0.411 -0.219,-1.172 -0.14,-1.479 0.066,-0.25 0.38,-0.354 0.77,-0.317 0.667,0.047 0.839,0.328 2.104,0.5 0,0 0.292,0.088 0.803,0.281 1.536,0.552 0.807,0.452 3.213,0.766 0.167,0.02 0.266,0.202 0.25,0.312 -0.042,0.182 -0.078,0.13 -0.078,0.13 z"
     id="path634" />
  <path
     style="fill:#ffffff;fill-opacity:1;fill-rule:nonzero;stroke:none"
     d="m 211.49099,63.440709 c -1.932,1.172 -2.151,1.656 -1.713,2.505 0.292,0.572 0.369,1.192 0.53,1.547 0.532,1.183 1.934,2.948 7.188,6.921 1.183,0.891 2.85,2.172 3.484,2.746 1.016,0.901 1.839,-1.386 1.438,-1.751 -1.255,-1.167 -2.02,-2.061 -2.422,-2.536 -0.27,-0.328 -0.833,-0.844 -1.724,-2.26 -1.344,-2.141 -1.838,-3.615 -3.161,-5.265 -0.615,-0.767 -0.593,-1.73 -1.584,-2.167 -0.984,-0.459 -2.036,0.26 -2.036,0.26"
     id="path636" />
  <path
     style="fill:none;stroke:#231f20;stroke-width:0.565977;stroke-linecap:butt;stroke-linejoin:miter;stroke-miterlimit:4;stroke-dasharray:none;stroke-opacity:1"
     d="m 211.49099,63.440709 c -1.932,1.172 -2.151,1.656 -1.713,2.505 0.292,0.572 0.369,1.192 0.53,1.547 0.532,1.183 1.934,2.948 7.188,6.921 1.183,0.891 2.85,2.172 3.484,2.746 1.016,0.901 1.839,-1.386 1.438,-1.751 -1.255,-1.167 -2.02,-2.061 -2.422,-2.536 -0.27,-0.328 -0.833,-0.844 -1.724,-2.26 -1.344,-2.141 -1.838,-3.615 -3.161,-5.265 -0.615,-0.767 -0.593,-1.73 -1.584,-2.167 -0.984,-0.459 -2.036,0.26 -2.036,0.26 z"
     id="path637" />
  <path
     style="fill:#ffffff;fill-opacity:1;fill-rule:nonzero;stroke:#231f20;stroke-width:0.565977;stroke-linecap:round;stroke-linejoin:round;stroke-miterlimit:4;stroke-dasharray:none;stroke-opacity:1"
     d="m 215.27799,66.675709 c 0.338,-1.376 -1.355,-2.715 -1.506,-3.016 -2.188,-4.516 -2.458,-4.782 -4.365,-8.094 -2.755,-4.797 -5.385,-7.652 -8.64,-6.865 -2.208,0.537 -3.245,1.803 -3.432,3.104 -0.199,1.443 0.864,4.443 3.677,5.084 l 1.219,1.208 c 0.719,0.912 1.072,1.365 1.396,1.839 0.552,0.833 1.197,1.697 2.364,3.27 2.083,2.782 5.188,5.047 5.188,5.047 0.192,0.24 0.437,0.371 0.703,0.428"
     id="path638" />
  <path
     style="fill:#fab41d;fill-opacity:1;fill-rule:nonzero;stroke:none"
     d="m 200.80799,48.289709 c -2.202,0.531 -3.254,1.791 -3.442,3.088 -0.208,1.448 0.844,4.448 3.656,5.099 l 6.677,-4.057 c -2.14,-3.088 -4.312,-4.744 -6.891,-4.13"
     id="path639" />
  <path
     style="fill:none;stroke:#231f20;stroke-width:0.565977;stroke-linecap:butt;stroke-linejoin:miter;stroke-miterlimit:4;stroke-dasharray:none;stroke-opacity:1"
     d="m 200.80799,48.289709 c -2.202,0.531 -3.254,1.791 -3.442,3.088 -0.208,1.448 0.844,4.448 3.656,5.099 l 6.677,-4.057 c -2.14,-3.088 -4.312,-4.744 -6.891,-4.13 z"
     id="path640" />
  <path
     style="fill:#231f20;fill-opacity:1;fill-rule:nonzero;stroke:none"
     d="m 222.17399,79.404709 c -1.355,0.015 -1.714,-0.917 -1.376,-1.891 0.105,-0.297 -0.119,-0.652 0.005,-0.933 0.281,-0.645 1.933,-1.219 2.756,0.037 0.063,0.088 0.697,0.599 1.12,1.058 0.807,0.9 2.005,3.093 1.213,5.681 -0.37,1.215 -1.026,0.767 -1.032,0.229 0.011,-1.708 -0.322,-1.864 -0.494,-2.312 -0.536,-1.532 -2.192,-1.869 -2.192,-1.869"
     id="path641" />
  <path
     style="fill:none;stroke:#231f20;stroke-width:0.332927;stroke-linecap:butt;stroke-linejoin:miter;stroke-miterlimit:4;stroke-dasharray:none;stroke-opacity:1"
     d="m 222.17399,79.404709 c -1.355,0.015 -1.714,-0.917 -1.376,-1.891 0.105,-0.297 -0.119,-0.652 0.005,-0.933 0.281,-0.645 1.933,-1.219 2.756,0.037 0.063,0.088 0.697,0.599 1.12,1.058 0.807,0.9 2.005,3.093 1.213,5.681 -0.37,1.215 -1.026,0.767 -1.032,0.229 0.011,-1.708 -0.322,-1.864 -0.494,-2.312 -0.536,-1.532 -2.192,-1.869 -2.192,-1.869 z"
     id="path643" />
</svg>
