<?xml version="1.0" encoding="UTF-8" standalone="no"?>
<!-- Created with Inkscape (http://www.inkscape.org/) -->

<svg
   version="1.1"
   id="svg1"
   width="64.086746"
   height="29.425369"
   viewBox="0 0 64.086742 29.425369"
   sodipodi:docname="cell.svg"
   xmlns:inkscape="http://www.inkscape.org/namespaces/inkscape"
   xmlns:sodipodi="http://sodipodi.sourceforge.net/DTD/sodipodi-0.dtd"
   xmlns="http://www.w3.org/2000/svg"
   xmlns:svg="http://www.w3.org/2000/svg">
  <sodipodi:namedview
     id="namedview1"
     pagecolor="#ffffff"
     bordercolor="#000000"
     borderopacity="0.25"
     inkscape:showpageshadow="2"
     inkscape:pageopacity="0.0"
     inkscape:pagecheckerboard="0"
     inkscape:deskcolor="#d1d1d1">
    <inkscape:page
       x="6.0829012e-07"
       y="9.8084286e-07"
       inkscape:label="1"
       id="page1"
       width="64.086739"
       height="29.425369"
       margin="0"
       bleed="0" />
  </sodipodi:namedview>
  <defs
     id="defs1" />
  <path
     style="fill:#fab41d;fill-opacity:1;fill-rule:nonzero;stroke:none"
     d="m 19.423985,7.6333688 c 3.115,-0.359 3.823,-0.099 4.708,0.161 5.542,1.641 6.24,-1.115 5.391,-3.869 -0.989,-3.24599996 -1.281,-4.42699996 -7.432,-3.10399996 -1.713,0.36399996 -8.469,0.91599996 -8.469,0.91599996 -2.443,-0.124 -4.895,1.052 -5.567,2.338 -0.704,1.366 -0.328,0.88 -0.751,2.256 -0.41,1.318 0.099,3.443 1.194,4.0060002 1.057,0.541 2.473,-0.3440002 4.672,-1.3660002 1.733,-0.797 6.254,-1.338 6.254,-1.338"
     id="path706" />
  <path
     style="fill:none;stroke:#231f20;stroke-width:0.565977;stroke-linecap:butt;stroke-linejoin:miter;stroke-miterlimit:4;stroke-dasharray:none;stroke-opacity:1"
     d="m 19.423985,7.6333688 c 3.115,-0.359 3.823,-0.099 4.708,0.161 5.542,1.641 6.24,-1.115 5.391,-3.869 -0.989,-3.24599996 -1.281,-4.42699996 -7.432,-3.10399996 -1.713,0.36399996 -8.469,0.91599996 -8.469,0.91599996 -2.443,-0.124 -4.895,1.052 -5.567,2.338 -0.704,1.366 -0.328,0.88 -0.751,2.256 -0.41,1.318 0.099,3.443 1.194,4.0060002 1.057,0.541 2.473,-0.3440002 4.672,-1.3660002 1.733,-0.797 6.254,-1.338 6.254,-1.338 z"
     id="path707" />
  <path
     style="fill:#ffffff;fill-opacity:1;fill-rule:nonzero;stroke:none"
     d="m 1.595985,13.274369 c -0.078,0.239 -1.22900002,0.145 -1.30800002,0.661 -0.077,0.526 0.652,0.828 1.21500002,2.739 l 0.005,0.027 c 0.37,1.396 1.255,2.484 2.479,2.765 2.02,0.475 4.188,-1.364 4.839,-4.109 0.656,-2.755 -0.464,-5.3590002 -2.486,-5.8500002 -1.932,-0.457 -4.004,1.2150002 -4.744,3.7670002"
     id="path708" />
  <path
     style="fill:none;stroke:#231f20;stroke-width:0.565977;stroke-linecap:butt;stroke-linejoin:miter;stroke-miterlimit:4;stroke-dasharray:none;stroke-opacity:1"
     d="m 1.595985,13.274369 c -0.078,0.239 -1.22900002,0.145 -1.30800002,0.661 -0.077,0.526 0.652,0.828 1.21500002,2.739 l 0.005,0.027 c 0.37,1.396 1.255,2.484 2.479,2.765 2.02,0.475 4.188,-1.364 4.839,-4.109 0.656,-2.755 -0.464,-5.3590002 -2.486,-5.8500002 -1.932,-0.457 -4.004,1.2150002 -4.744,3.7670002 z"
     id="path709" />
  <path
     style="fill:#231f20;fill-opacity:1;fill-rule:nonzero;stroke:none"
     d="m 43.882985,13.835369 c -1.464,1.73 -1.516,2.267 -0.819,2.928 0.459,0.448 0.735,1.016 1,1.302 0.881,0.938 2.777,2.161 9.027,4.234 1.412,0.459 3.401,1.142 4.188,1.48 1.249,0.526 1.29,-1.901 0.796,-2.125 -1.567,-0.693 -2.578,-1.292 -3.115,-1.62 -0.359,-0.224 -1.063,-0.532 -2.353,-1.584 -1.959,-1.593 -2.902,-2.837 -4.683,-3.973 -0.833,-0.527 -1.125,-1.443 -2.197,-1.536 -1.09,-0.12 -1.844,0.894 -1.844,0.894"
     id="path710" />
  <path
     style="fill:none;stroke:#231f20;stroke-width:0.565977;stroke-linecap:butt;stroke-linejoin:miter;stroke-miterlimit:4;stroke-dasharray:none;stroke-opacity:1"
     d="m 43.882985,13.835369 c -1.464,1.73 -1.516,2.267 -0.819,2.928 0.459,0.448 0.735,1.016 1,1.302 0.881,0.938 2.777,2.161 9.027,4.234 1.412,0.459 3.401,1.142 4.188,1.48 1.249,0.526 1.29,-1.901 0.796,-2.125 -1.567,-0.693 -2.578,-1.292 -3.115,-1.62 -0.359,-0.224 -1.063,-0.532 -2.353,-1.584 -1.959,-1.593 -2.902,-2.837 -4.683,-3.973 -0.833,-0.527 -1.125,-1.443 -2.197,-1.536 -1.09,-0.12 -1.844,0.894 -1.844,0.894 z"
     id="path711" />
  <path
     style="fill:#231f20;fill-opacity:1;fill-rule:nonzero;stroke:#231f20;stroke-width:0.565977;stroke-linecap:round;stroke-linejoin:round;stroke-miterlimit:4;stroke-dasharray:none;stroke-opacity:1"
     d="m 46.387985,13.731369 c -0.131,-1.41 -2.161,-2.134 -2.401,-2.369 -3.516,-3.5730002 -3.866,-3.7350002 -6.73,-6.2600002 -4.156,-3.652 -7.562,-5.51599996 -10.395,-3.724 -1.911,1.224 -2.495,2.755 -2.25,4.047 0.282,1.432 2.244,3.932 5.119,3.634 l 1.542,0.751 c 0.968,0.6310002 1.454,0.9430002 1.911,1.2870002 0.792,0.614 1.683,1.224 3.292,2.333 2.864,1.968 6.536,3.115 6.536,3.115 0.256,0.172 0.532,0.213 0.803,0.177"
     id="path712" />
  <path
     style="fill:#fab41d;fill-opacity:1;fill-rule:nonzero;stroke:none"
     d="m 26.721985,1.3513688 c 2.244,-1.40999996 4.833,-0.53599996 7.853,1.694 l -5.02,5.994 c -2.871,0.292 -4.828,-2.213 -5.1,-3.65 -0.239,-1.292 0.355,-2.824 2.267,-4.038"
     id="path713" />
  <path
     style="fill:none;stroke:#231f20;stroke-width:0.565977;stroke-linecap:butt;stroke-linejoin:miter;stroke-miterlimit:4;stroke-dasharray:none;stroke-opacity:1"
     d="m 26.721985,1.3513688 c 2.244,-1.40999996 4.833,-0.53599996 7.853,1.694 l -5.02,5.994 c -2.871,0.292 -4.828,-2.213 -5.1,-3.65 -0.239,-1.292 0.355,-2.824 2.267,-4.038 z"
     id="path714" />
  <path
     style="fill:#231f20;fill-opacity:1;fill-rule:nonzero;stroke:none"
     d="m 7.106985,26.935369 c 0.484,-0.417 0.781,-2.344 1.604,-3.724 0.568,-0.922 0.901,-3.641 1.531,-4.532 0.578,-0.812 0.77,-1.238 -0.047,-2.046 -0.484,-0.49 -1.719,-1.11 -2.093,-0.766 -0.88,0.803 -1.287,1.656 -1.522,2.698 -0.265,1.188 -0.708,4.469 -0.738,5.084 -0.054,1.52 -0.532,2.082 -0.595,2.478 -0.093,0.762 0.167,0.986 0.641,1.152 0.906,0.334 1.219,-0.344 1.219,-0.344"
     id="path715" />
  <path
     style="fill:none;stroke:#231f20;stroke-width:0.565977;stroke-linecap:butt;stroke-linejoin:miter;stroke-miterlimit:4;stroke-dasharray:none;stroke-opacity:1"
     d="m 7.106985,26.935369 c 0.484,-0.417 0.781,-2.344 1.604,-3.724 0.568,-0.922 0.901,-3.641 1.531,-4.532 0.578,-0.812 0.77,-1.238 -0.047,-2.046 -0.484,-0.49 -1.719,-1.11 -2.093,-0.766 -0.88,0.803 -1.287,1.656 -1.522,2.698 -0.265,1.188 -0.708,4.469 -0.738,5.084 -0.054,1.52 -0.532,2.082 -0.595,2.478 -0.093,0.762 0.167,0.986 0.641,1.152 0.906,0.334 1.219,-0.344 1.219,-0.344 z"
     id="path716" />
  <path
     style="fill:#231f20;fill-opacity:1;fill-rule:nonzero;stroke:none"
     d="m 9.631985,18.909369 c 1.287,0.136 1.136,-1.896 1.183,-2.432 0.036,-0.542 0.328,-2.074 0.713,-3.23 0.38,-1.166 0.366,-2.786 1.09,-4.9940002 0.38,-1.162 0.009,-2.536 -1.699,-3.011 -1.688,-0.473 -2.593,0.297 -2.844,1.771 -0.249,1.48 0.147,2.969 0,4.4740002 -0.151,1.511 -0.432,3.02 -0.719,4.208 -0.322,1.344 0.016,2.126 0.407,2.407 0.959,0.713 1.869,0.807 1.869,0.807"
     id="path717" />
  <path
     style="fill:none;stroke:#231f20;stroke-width:0.565977;stroke-linecap:butt;stroke-linejoin:miter;stroke-miterlimit:4;stroke-dasharray:none;stroke-opacity:1"
     d="m 9.631985,18.909369 c 1.287,0.136 1.136,-1.896 1.183,-2.432 0.036,-0.542 0.328,-2.074 0.713,-3.23 0.38,-1.166 0.366,-2.786 1.09,-4.9940002 0.38,-1.162 0.009,-2.536 -1.699,-3.011 -1.688,-0.473 -2.593,0.297 -2.844,1.771 -0.249,1.48 0.147,2.969 0,4.4740002 -0.151,1.511 -0.432,3.02 -0.719,4.208 -0.322,1.344 0.016,2.126 0.407,2.407 0.959,0.713 1.869,0.807 1.869,0.807 z"
     id="path718" />
  <path
     style="fill:#231f20;fill-opacity:1;fill-rule:nonzero;stroke:none"
     d="m 12.085985,29.070369 c -0.708,0.199 -3.943,-0.067 -4.683,-0.167 -0.661,-0.082 -1.791,0.142 -2.145,-0.962 -0.162,-0.434 -0.063,-1.183 0.057,-1.48 0.104,-0.244 0.427,-0.296 0.807,-0.208 0.652,0.136 0.786,0.432 2.016,0.776 0,0 0.281,0.125 0.76,0.39 1.442,0.75 0.74,0.558 3.078,1.183 0.167,0.047 0.246,0.233 0.208,0.344 -0.066,0.176 -0.098,0.124 -0.098,0.124"
     id="path719" />
  <path
     style="fill:none;stroke:#231f20;stroke-width:0.565977;stroke-linecap:round;stroke-linejoin:round;stroke-miterlimit:4;stroke-dasharray:none;stroke-opacity:1"
     d="m 12.085985,29.070369 c -0.708,0.199 -3.943,-0.067 -4.683,-0.167 -0.661,-0.082 -1.791,0.142 -2.145,-0.962 -0.162,-0.434 -0.063,-1.183 0.057,-1.48 0.104,-0.244 0.427,-0.296 0.807,-0.208 0.652,0.136 0.786,0.432 2.016,0.776 0,0 0.281,0.125 0.76,0.39 1.442,0.75 0.74,0.558 3.078,1.183 0.167,0.047 0.246,0.233 0.208,0.344 -0.066,0.176 -0.098,0.124 -0.098,0.124 z"
     id="path721" />
  <path
     style="fill:#231f20;fill-opacity:1;fill-rule:nonzero;stroke:none"
     d="m 59.126985,25.518369 c -1.276,0.448 -1.916,-0.317 -1.911,-1.349 0,-0.312 -0.323,-0.567 -0.297,-0.88 0.062,-0.698 1.437,-1.776 2.625,-0.854 0.083,0.063 0.853,0.348 1.396,0.646 1.057,0.589 2.896,2.281 2.979,4.984 0.036,1.272 -0.724,1.057 -0.902,0.548 -0.541,-1.62 -0.905,-1.652 -1.208,-2.032 -1.005,-1.271 -2.682,-1.063 -2.682,-1.063"
     id="path723" />
  <path
     style="fill:none;stroke:#231f20;stroke-width:0.332927;stroke-linecap:butt;stroke-linejoin:miter;stroke-miterlimit:4;stroke-dasharray:none;stroke-opacity:1"
     d="m 59.126985,25.518369 c -1.276,0.448 -1.916,-0.317 -1.911,-1.349 0,-0.312 -0.323,-0.567 -0.297,-0.88 0.062,-0.698 1.437,-1.776 2.625,-0.854 0.083,0.063 0.853,0.348 1.396,0.646 1.057,0.589 2.896,2.281 2.979,4.984 0.036,1.272 -0.724,1.057 -0.902,0.548 -0.541,-1.62 -0.905,-1.652 -1.208,-2.032 -1.005,-1.271 -2.682,-1.063 -2.682,-1.063 z"
     id="path725" />
</svg>
