<?xml version="1.0" encoding="UTF-8" standalone="no"?>
<!-- Created with Inkscape (http://www.inkscape.org/) -->

<svg
   version="1.1"
   id="svg1"
   width="217.58083"
   height="161.72231"
   viewBox="0 0 217.58082 161.72231"
   sodipodi:docname="cell.svg"
   xmlns:inkscape="http://www.inkscape.org/namespaces/inkscape"
   xmlns:sodipodi="http://sodipodi.sourceforge.net/DTD/sodipodi-0.dtd"
   xmlns="http://www.w3.org/2000/svg"
   xmlns:svg="http://www.w3.org/2000/svg">
  <sodipodi:namedview
     id="namedview1"
     pagecolor="#ffffff"
     bordercolor="#000000"
     borderopacity="0.25"
     inkscape:showpageshadow="2"
     inkscape:pageopacity="0.0"
     inkscape:pagecheckerboard="0"
     inkscape:deskcolor="#d1d1d1">
    <inkscape:page
       x="0"
       y="0"
       inkscape:label="1"
       id="page1"
       width="217.58083"
       height="161.72231"
       margin="0"
       bleed="0" />
  </sodipodi:namedview>
  <defs
     id="defs1" />
  <path
     style="fill:#ffffff;fill-opacity:1;fill-rule:nonzero;stroke:none"
     d="m 200.65084,18.875 h 16.93 V 0 h -16.93 z"
     id="path559" />
  <path
     style="fill:#231f20;fill-opacity:1;fill-rule:nonzero;stroke:none"
     d="m 5.8008369,158.261 c 0.574,-1.224 1.563,-1.152 2.303,-0.417 0.219,0.213 0.635,0.167 0.833,0.401 0.458,0.531 0.266,2.266 -1.218,2.474 -0.11,0.01 -0.85,0.365 -1.443,0.546 -1.163,0.344 -3.657,0.47 -5.64099998,-1.353 -0.943,-0.865 -0.255,-1.261 0.229,-1.027 1.54099998,0.74 1.82299998,0.506 2.30099998,0.547 1.615,0.177 2.636,-1.171 2.636,-1.171"
     id="path560" />
  <path
     style="fill:none;stroke:#231f20;stroke-width:0.332927;stroke-linecap:butt;stroke-linejoin:miter;stroke-miterlimit:4;stroke-dasharray:none;stroke-opacity:1"
     d="m 5.8008369,158.261 c 0.574,-1.224 1.563,-1.152 2.303,-0.417 0.219,0.213 0.635,0.167 0.833,0.401 0.458,0.531 0.266,2.266 -1.218,2.474 -0.11,0.01 -0.85,0.365 -1.443,0.546 -1.163,0.344 -3.657,0.47 -5.64099998,-1.353 -0.943,-0.865 -0.255,-1.261 0.229,-1.027 1.54099998,0.74 1.82299998,0.506 2.30099998,0.547 1.615,0.177 2.636,-1.171 2.636,-1.171 z"
     id="path562" />
  <path
     style="fill:#231f20;fill-opacity:1;fill-rule:nonzero;stroke:none"
     d="m 23.546837,154.432 c -0.382,-2.239 -0.756,-2.615 -1.71,-2.515 -0.634,0.063 -1.244,-0.094 -1.634,-0.078 -1.292,0.068 -3.454,0.724 -9.058,4.161 -1.2700001,0.781 -3.0680001,1.865 -3.8380001,2.245 -1.208,0.615 0.625,2.219 1.104,1.984 1.541,-0.754 2.6560001,-1.14 3.2500001,-1.333 0.406,-0.136 1.088,-0.469 2.728,-0.781 2.486,-0.468 4.043,-0.386 6.058,-1.022 0.942,-0.29 1.829,0.084 2.6,-0.676 0.781,-0.75 0.5,-1.985 0.5,-1.985"
     id="path564" />
  <path
     style="fill:none;stroke:#231f20;stroke-width:0.565977;stroke-linecap:butt;stroke-linejoin:miter;stroke-miterlimit:4;stroke-dasharray:none;stroke-opacity:1"
     d="m 23.546837,154.432 c -0.382,-2.239 -0.756,-2.615 -1.71,-2.515 -0.634,0.063 -1.244,-0.094 -1.634,-0.078 -1.292,0.068 -3.454,0.724 -9.058,4.161 -1.2700001,0.781 -3.0680001,1.865 -3.8380001,2.245 -1.208,0.615 0.625,2.219 1.104,1.984 1.541,-0.754 2.6560001,-1.14 3.2500001,-1.333 0.406,-0.136 1.088,-0.469 2.728,-0.781 2.486,-0.468 4.043,-0.386 6.058,-1.022 0.942,-0.29 1.829,0.084 2.6,-0.676 0.781,-0.75 0.5,-1.985 0.5,-1.985 z"
     id="path565" />
  <path
     style="fill:#231f20;fill-opacity:1;fill-rule:nonzero;stroke:#231f20;stroke-width:0.565977;stroke-linecap:round;stroke-linejoin:round;stroke-miterlimit:4;stroke-dasharray:none;stroke-opacity:1"
     d="m 22.107837,156.36 c 1.204,0.755 3.005,-0.428 3.344,-0.469 4.975,-0.646 5.313,-0.823 9.063,-1.578 5.422,-1.094 8.958,-2.677 9.25,-6.01 0.187,-2.266 -0.682,-3.656 -1.865,-4.246 -1.301,-0.645 -4.484,-0.593 -5.984,1.875 l -1.531,0.772 c -1.094,0.395 -1.636,0.593 -2.188,0.744 -0.969,0.256 -1.989,0.593 -3.849,1.208 -3.301,1.089 -6.432,3.313 -6.432,3.313 -0.292,0.11 -0.489,0.307 -0.625,0.536"
     id="path566" />
  <path
     style="fill:#fab41d;fill-opacity:1;fill-rule:nonzero;stroke:none"
     d="m 37.847837,138.901 c 0.011,3.131 -0.328,3.807 -0.687,4.656 -2.245,5.328 0.416,6.328 3.25,5.792 3.328,-0.625 4.536,-0.781 3.917,-7.041 -0.177,-1.745 0.025,-8.516 0.025,-8.516 0.402,-2.417 -0.494,-4.984 -1.702,-5.797 -1.276,-0.854 -0.839,-0.422 -2.156,-0.995 -1.267,-0.557 -3.434,-0.287 -4.115,0.74 -0.657,0.989 0.067,2.495 0.833,4.792 0.604,1.817 0.635,6.369 0.635,6.369"
     id="path567" />
  <path
     style="fill:none;stroke:#231f20;stroke-width:0.565977;stroke-linecap:butt;stroke-linejoin:miter;stroke-miterlimit:4;stroke-dasharray:none;stroke-opacity:1"
     d="m 37.847837,138.901 c 0.011,3.131 -0.328,3.807 -0.687,4.656 -2.245,5.328 0.416,6.328 3.25,5.792 3.328,-0.625 4.536,-0.781 3.917,-7.041 -0.177,-1.745 0.025,-8.516 0.025,-8.516 0.402,-2.417 -0.494,-4.984 -1.702,-5.797 -1.276,-0.854 -0.839,-0.422 -2.156,-0.995 -1.267,-0.557 -3.434,-0.287 -4.115,0.74 -0.657,0.989 0.067,2.495 0.833,4.792 0.604,1.817 0.635,6.369 0.635,6.369 z"
     id="path568" />
  <path
     style="fill:#ffffff;fill-opacity:1;fill-rule:nonzero;stroke:none"
     d="m 43.076837,121.063 c 0.027,-0.246 1.172,-0.407 1.136,-0.927 -0.037,-0.532 -0.818,-0.677 -1.776,-2.417 l -0.01,-0.02 c -0.662,-1.287 -1.762,-2.147 -3.016,-2.167 -2.079,-0.032 -3.792,2.233 -3.839,5.052 -0.047,2.833 1.609,5.14 3.683,5.176 1.984,0.037 3.645,-2.047 3.822,-4.697"
     id="path569" />
  <path
     style="fill:none;stroke:#231f20;stroke-width:0.565977;stroke-linecap:butt;stroke-linejoin:miter;stroke-miterlimit:4;stroke-dasharray:none;stroke-opacity:1"
     d="m 43.076837,121.063 c 0.027,-0.246 1.172,-0.407 1.136,-0.927 -0.037,-0.532 -0.818,-0.677 -1.776,-2.417 l -0.01,-0.02 c -0.662,-1.287 -1.762,-2.147 -3.016,-2.167 -2.079,-0.032 -3.792,2.233 -3.839,5.052 -0.047,2.833 1.609,5.14 3.683,5.176 1.984,0.037 3.645,-2.047 3.822,-4.697 z"
     id="path570" />
  <path
     style="fill:#ffffff;fill-opacity:1;fill-rule:nonzero;stroke:none"
     d="m 57.118837,154.063 c -1.047,2.005 -0.984,2.536 -0.162,3.036 0.547,0.333 0.928,0.829 1.251,1.048 1.068,0.728 3.181,1.52 9.729,2.186 1.479,0.147 3.567,0.375 4.406,0.542 1.338,0.245 0.854,-2.14 0.328,-2.244 -1.682,-0.344 -2.802,-0.708 -3.391,-0.912 -0.405,-0.14 -1.151,-0.292 -2.645,-1.036 -2.255,-1.136 -3.443,-2.142 -5.432,-2.866 -0.927,-0.337 -1.402,-1.17 -2.48,-1.03 -1.078,0.12 -1.604,1.276 -1.604,1.276"
     id="path571" />
  <path
     style="fill:none;stroke:#231f20;stroke-width:0.565977;stroke-linecap:butt;stroke-linejoin:miter;stroke-miterlimit:4;stroke-dasharray:none;stroke-opacity:1"
     d="m 57.118837,154.063 c -1.047,2.005 -0.984,2.536 -0.162,3.036 0.547,0.333 0.928,0.829 1.251,1.048 1.068,0.728 3.181,1.52 9.729,2.186 1.479,0.147 3.567,0.375 4.406,0.542 1.338,0.245 0.854,-2.14 0.328,-2.244 -1.682,-0.344 -2.802,-0.708 -3.391,-0.912 -0.405,-0.14 -1.151,-0.292 -2.645,-1.036 -2.255,-1.136 -3.443,-2.142 -5.432,-2.866 -0.927,-0.337 -1.402,-1.17 -2.48,-1.03 -1.078,0.12 -1.604,1.276 -1.604,1.276 z"
     id="path572" />
  <path
     style="fill:#ffffff;fill-opacity:1;fill-rule:nonzero;stroke:#231f20;stroke-width:0.565977;stroke-linecap:round;stroke-linejoin:round;stroke-miterlimit:4;stroke-dasharray:none;stroke-opacity:1"
     d="m 59.540837,153.417 c -0.428,-1.349 -2.562,-1.614 -2.854,-1.802 -4.208,-2.719 -4.579,-2.807 -7.927,-4.651 -4.844,-2.672 -8.568,-3.751 -10.948,-1.391 -1.604,1.604 -1.839,3.23 -1.323,4.438 0.583,1.338 3.042,3.349 5.782,2.442 l 1.666,0.402 c 1.094,0.406 1.63,0.604 2.151,0.844 0.901,0.432 1.901,0.833 3.719,1.566 3.218,1.303 7.046,1.631 7.046,1.631 0.292,0.104 0.574,0.088 0.828,-0.005"
     id="path574" />
  <path
     style="fill:#fab41d;fill-opacity:1;fill-rule:nonzero;stroke:none"
     d="m 36.592837,146.151 c -1.313,1.849 -1.281,3.49 -0.562,4.594 0.792,1.23 3.557,2.802 6.104,1.443 l 2.369,-7.448 c -3.645,-0.923 -6.375,-0.745 -7.911,1.411"
     id="path575" />
  <path
     style="fill:none;stroke:#231f20;stroke-width:0.565977;stroke-linecap:butt;stroke-linejoin:miter;stroke-miterlimit:4;stroke-dasharray:none;stroke-opacity:1"
     d="m 36.592837,146.151 c -1.313,1.849 -1.281,3.49 -0.562,4.594 0.792,1.23 3.557,2.802 6.104,1.443 l 2.369,-7.448 c -3.645,-0.923 -6.375,-0.745 -7.911,1.411 z"
     id="path576" />
  <path
     style="fill:#231f20;fill-opacity:1;fill-rule:nonzero;stroke:none"
     d="m 36.811837,127.885 c 0.765,-1.134 2.197,-1.713 3.729,-0.437 1.526,1.26 1.454,2.62 0.328,3.844 -1.114,1.219 -5.5,-1.251 -4.057,-3.407"
     id="path577" />
  <path
     style="fill:none;stroke:#231f20;stroke-width:0.633894;stroke-linecap:butt;stroke-linejoin:miter;stroke-miterlimit:4;stroke-dasharray:none;stroke-opacity:1"
     d="m 36.811837,127.885 c 0.765,-1.134 2.197,-1.713 3.729,-0.437 1.526,1.26 1.454,2.62 0.328,3.844 -1.114,1.219 -5.5,-1.251 -4.057,-3.407 z"
     id="path578" />
  <path
     style="fill:none;stroke:#231f20;stroke-width:0.665856;stroke-linecap:butt;stroke-linejoin:miter;stroke-miterlimit:4;stroke-dasharray:none;stroke-opacity:1"
     d="m 41.316837,104.923 c 0,1.317 -1.068,2.39 -2.39,2.39 -1.318,0 -2.386,-1.073 -2.386,-2.39 0,-1.319 1.068,-2.386 2.386,-2.386 1.322,0 2.39,1.067 2.39,2.386 z"
     id="path579" />
  <path
     style="fill:#231f20;fill-opacity:1;fill-rule:nonzero;stroke:none"
     d="m 71.472837,161.453 c -1.078,0.052 -0.926,-1.062 -0.797,-2.156 0.037,-0.276 0.043,-0.532 0.099,-0.802 0.229,-1.072 0.99,-1.73 3.13,0.104 0.084,0.068 2.016,0.948 2.604,1.114 2.839,0.792 2.99,0.047 2.839,0.792 -0.104,0.49 -0.609,0.547 -1.235,0.599 -0.848,0.079 -3.874,0.109 -4.338,0.141 -0.447,0.031 -2.302,0.208 -2.302,0.208"
     id="path580" />
  <path
     style="fill:none;stroke:#231f20;stroke-width:0.535348;stroke-linecap:butt;stroke-linejoin:miter;stroke-miterlimit:4;stroke-dasharray:none;stroke-opacity:1"
     d="m 71.472837,161.453 c -1.078,0.052 -0.926,-1.062 -0.797,-2.156 0.037,-0.276 0.043,-0.532 0.099,-0.802 0.229,-1.072 0.99,-1.73 3.13,0.104 0.084,0.068 2.016,0.948 2.604,1.114 2.839,0.792 2.99,0.047 2.839,0.792 -0.104,0.49 -0.609,0.547 -1.235,0.599 -0.848,0.079 -3.874,0.109 -4.338,0.141 -0.447,0.031 -2.302,0.208 -2.302,0.208 z"
     id="path582" />
  <path
     style="fill:#231f20;fill-opacity:1;fill-rule:nonzero;stroke:none"
     d="m 38.956837,133.417 c 0.418,0.13 0.902,-0.292 1.699,-0.266 0.536,0.016 1.167,-0.63 1.744,-0.562 0.537,0.058 0.729,0.026 0.261,-0.646 -0.281,-0.402 -1.089,-1.25 -1.417,-1.344 -0.749,-0.224 -1.156,-0.176 -1.479,0.01 -0.365,0.219 -1.146,0.975 -1.25,1.147 -0.255,0.432 -0.683,0.348 -0.782,0.437 -0.181,0.172 -0.02,0.38 0.298,0.687 0.604,0.573 0.926,0.537 0.926,0.537"
     id="path584" />
  <path
     style="fill:#231f20;fill-opacity:1;fill-rule:nonzero;stroke:none"
     d="m 40.884837,132.683 c 1.438,-0.142 0.76,-0.812 0.671,-1 -0.088,-0.194 -0.151,-0.76 -0.031,-1.214 0.126,-0.453 -0.302,-1 -0.062,-1.86 0.114,-0.453 -0.631,-0.869 -2.615,-0.776 -1.959,0.084 -2.749,0.48 -2.651,1.022 0.104,0.541 0.907,0.989 1.126,1.525 0.218,0.537 0.281,1.095 0.276,1.537 -0.016,0.51 0.552,0.724 1.041,0.766 1.224,0.104 2.245,0 2.245,0"
     id="path585" />
  <path
     style="fill:none;stroke:#231f20;stroke-width:0.362226;stroke-linecap:butt;stroke-linejoin:miter;stroke-miterlimit:4;stroke-dasharray:none;stroke-opacity:1"
     d="m 40.884837,132.683 c 1.438,-0.142 0.76,-0.812 0.671,-1 -0.088,-0.194 -0.151,-0.76 -0.031,-1.214 0.126,-0.453 -0.302,-1 -0.062,-1.86 0.114,-0.453 -0.631,-0.869 -2.615,-0.776 -1.959,0.084 -2.749,0.48 -2.651,1.022 0.104,0.541 0.907,0.989 1.126,1.525 0.218,0.537 0.281,1.095 0.276,1.537 -0.016,0.51 0.552,0.724 1.041,0.766 1.224,0.104 2.245,0 2.245,0 z"
     id="path586" />
</svg>
