<?xml version="1.0" encoding="UTF-8" standalone="no"?>
<!-- Created with Inkscape (http://www.inkscape.org/) -->

<svg
   version="1.1"
   id="svg1"
   width="84.845261"
   height="50.838009"
   viewBox="0 0 84.845258 50.83801"
   sodipodi:docname="cell.svg"
   xmlns:inkscape="http://www.inkscape.org/namespaces/inkscape"
   xmlns:sodipodi="http://sodipodi.sourceforge.net/DTD/sodipodi-0.dtd"
   xmlns="http://www.w3.org/2000/svg"
   xmlns:svg="http://www.w3.org/2000/svg">
  <sodipodi:namedview
     id="namedview1"
     pagecolor="#ffffff"
     bordercolor="#000000"
     borderopacity="0.25"
     inkscape:showpageshadow="2"
     inkscape:pageopacity="0.0"
     inkscape:pagecheckerboard="0"
     inkscape:deskcolor="#d1d1d1">
    <inkscape:page
       x="0"
       y="0"
       inkscape:label="1"
       id="page1"
       width="84.845261"
       height="50.838009"
       margin="0"
       bleed="0" />
  </sodipodi:namedview>
  <defs
     id="defs1" />
  <path
     style="fill:#231f20;fill-opacity:1;fill-rule:nonzero;stroke:none"
     d="m 31.33244,14.207931 c 0.574,0.115 1.656,1.475 2.922,2.177 0.86,0.48 2.324,2.432 3.214,2.844 0.812,0.38 1.151,0.626 0.864,1.604 -0.166,0.579 -0.88,1.588 -1.328,1.49 -1.057,-0.244 -1.75,-0.735 -2.396,-1.432 -0.74,-0.807 -2.53,-3.146 -2.822,-3.604 -0.719,-1.151 -1.35,-1.38 -1.568,-1.662 -0.412,-0.541 -0.303,-0.828 -0.006,-1.161 0.574,-0.647 1.12,-0.256 1.12,-0.256"
     id="path69" />
  <path
     style="fill:none;stroke:#231f20;stroke-width:0.507381;stroke-linecap:butt;stroke-linejoin:miter;stroke-miterlimit:4;stroke-dasharray:none;stroke-opacity:1"
     d="m 31.33244,14.207931 c 0.574,0.115 1.656,1.475 2.922,2.177 0.86,0.48 2.324,2.432 3.214,2.844 0.812,0.38 1.151,0.626 0.864,1.604 -0.166,0.579 -0.88,1.588 -1.328,1.49 -1.057,-0.244 -1.75,-0.735 -2.396,-1.432 -0.74,-0.807 -2.53,-3.146 -2.822,-3.604 -0.719,-1.151 -1.35,-1.38 -1.568,-1.662 -0.412,-0.541 -0.303,-0.828 -0.006,-1.161 0.574,-0.647 1.12,-0.256 1.12,-0.256 z"
     id="path70" />
  <path
     style="fill:#231f20;fill-opacity:1;fill-rule:nonzero;stroke:none"
     d="m 37.23444,19.780931 c 0.905,-0.729 1.806,0.844 2.104,1.214 0.301,0.385 1.286,1.369 2.156,2.036 0.869,0.677 1.661,1.881 3.312,3.157 0.87,0.677 1.276,1.864 0.22,3.041 -1.054,1.172 -2.12,1.042 -3.048,0.074 -0.922,-0.97 -1.37,-2.262 -2.23,-3.298 -0.858,-1.041 -1.833,-2.021 -2.64,-2.754 -0.912,-0.834 -1.052,-1.579 -0.896,-1.97 0.375,-0.994 1.022,-1.5 1.022,-1.5"
     id="path71" />
  <path
     style="fill:none;stroke:#231f20;stroke-width:0.507381;stroke-linecap:butt;stroke-linejoin:miter;stroke-miterlimit:4;stroke-dasharray:none;stroke-opacity:1"
     d="m 37.23444,19.780931 c 0.905,-0.729 1.806,0.844 2.104,1.214 0.301,0.385 1.286,1.369 2.156,2.036 0.869,0.677 1.661,1.881 3.312,3.157 0.87,0.677 1.276,1.864 0.22,3.041 -1.054,1.172 -2.12,1.042 -3.048,0.074 -0.922,-0.97 -1.37,-2.262 -2.23,-3.298 -0.858,-1.041 -1.833,-2.021 -2.64,-2.754 -0.912,-0.834 -1.052,-1.579 -0.896,-1.97 0.375,-0.994 1.022,-1.5 1.022,-1.5 z"
     id="path72" />
  <path
     style="fill:#231f20;fill-opacity:1;fill-rule:nonzero;stroke:none"
     d="m 27.22344,10.416931 c 0.631,0.214 2.901,2.047 3.396,2.495 0.448,0.396 1.407,0.807 1.099,1.781 -0.11,0.391 -0.574,0.891 -0.818,1.036 -0.204,0.126 -0.469,0 -0.709,-0.25 -0.416,-0.432 -0.364,-0.714 -1.093,-1.588 0,0 -0.146,-0.23 -0.364,-0.667 -0.683,-1.271 -0.262,-0.776 -1.672,-2.416 -0.099,-0.115 -0.052,-0.292 0.03,-0.349 0.136,-0.095 0.131,-0.042 0.131,-0.042"
     id="path73" />
  <path
     style="fill:none;stroke:#231f20;stroke-width:0.507381;stroke-linecap:round;stroke-linejoin:round;stroke-miterlimit:4;stroke-dasharray:none;stroke-opacity:1"
     d="m 27.22344,10.416931 c 0.631,0.214 2.901,2.047 3.396,2.495 0.448,0.396 1.407,0.807 1.099,1.781 -0.11,0.391 -0.574,0.891 -0.818,1.036 -0.204,0.126 -0.469,0 -0.709,-0.25 -0.416,-0.432 -0.364,-0.714 -1.093,-1.588 0,0 -0.146,-0.23 -0.364,-0.667 -0.683,-1.271 -0.262,-0.776 -1.672,-2.416 -0.099,-0.115 -0.052,-0.292 0.03,-0.349 0.136,-0.095 0.131,-0.042 0.131,-0.042 z"
     id="path74" />
  <path
     style="fill:#231f20;fill-opacity:1;fill-rule:nonzero;stroke:none"
     d="m 5.8744395,47.535931 c 0.745,-1.129 1.713,-0.916 2.338,-0.083 0.188,0.24 0.61,0.255 0.771,0.516 0.376,0.588 -0.063,2.282 -1.563,2.271 -0.109,0 -0.89,0.244 -1.505,0.339 -1.197,0.172 -3.681,-0.058 -5.39099997,-2.147 -0.806,-0.989 -0.066,-1.281 0.382,-0.984 1.41599997,0.959 1.72399997,0.76 2.19699997,0.875 1.573,0.401 2.771,-0.787 2.771,-0.787"
     id="path75" />
  <path
     style="fill:none;stroke:#231f20;stroke-width:0.332927;stroke-linecap:butt;stroke-linejoin:miter;stroke-miterlimit:4;stroke-dasharray:none;stroke-opacity:1"
     d="m 5.8744395,47.535931 c 0.745,-1.129 1.713,-0.916 2.338,-0.083 0.188,0.24 0.61,0.255 0.771,0.516 0.376,0.588 -0.063,2.282 -1.563,2.271 -0.109,0 -0.89,0.244 -1.505,0.339 -1.197,0.172 -3.681,-0.058 -5.39099997,-2.147 -0.806,-0.989 -0.066,-1.281 0.382,-0.984 1.41599997,0.959 1.72399997,0.76 2.19699997,0.875 1.573,0.401 2.771,-0.787 2.771,-0.787 z"
     id="path77" />
  <path
     style="fill:#231f20;fill-opacity:1;fill-rule:nonzero;stroke:none"
     d="m 25.08244,47.546931 c 0.109,-2.266 -0.176,-2.714 -1.13,-2.823 -0.636,-0.073 -1.198,-0.36 -1.578,-0.421 -1.276,-0.215 -3.531,-0.038 -9.744,2.124 -1.407,0.49 -3.3910005,1.157 -4.2240005,1.365 -1.314,0.344 0.129,2.301 0.65,2.172 1.6670005,-0.401 2.8390005,-0.537 3.4590005,-0.6 0.427,-0.047 1.167,-0.228 2.833,-0.176 2.526,0.067 4.031,0.489 6.135,0.301 0.985,-0.082 1.771,0.475 2.683,-0.109 0.926,-0.568 0.916,-1.833 0.916,-1.833"
     id="path79" />
  <path
     style="fill:none;stroke:#231f20;stroke-width:0.565977;stroke-linecap:butt;stroke-linejoin:miter;stroke-miterlimit:4;stroke-dasharray:none;stroke-opacity:1"
     d="m 25.08244,47.546931 c 0.109,-2.266 -0.176,-2.714 -1.13,-2.823 -0.636,-0.073 -1.198,-0.36 -1.578,-0.421 -1.276,-0.215 -3.531,-0.038 -9.744,2.124 -1.407,0.49 -3.3910005,1.157 -4.2240005,1.365 -1.314,0.344 0.129,2.301 0.65,2.172 1.6670005,-0.401 2.8390005,-0.537 3.4590005,-0.6 0.427,-0.047 1.167,-0.228 2.833,-0.176 2.526,0.067 4.031,0.489 6.135,0.301 0.985,-0.082 1.771,0.475 2.683,-0.109 0.926,-0.568 0.916,-1.833 0.916,-1.833 z"
     id="path81" />
  <path
     style="fill:#231f20;fill-opacity:1;fill-rule:nonzero;stroke:#231f20;stroke-width:0.565977;stroke-linecap:round;stroke-linejoin:round;stroke-miterlimit:4;stroke-dasharray:none;stroke-opacity:1"
     d="m 23.15544,49.144931 c 0.964,1.048 3.011,0.387 3.349,0.439 4.968,0.687 5.339,0.604 9.151,0.869 5.521,0.38 9.355,-0.218 10.511,-3.354 0.781,-2.135 0.312,-3.703 -0.672,-4.583 -1.088,-0.969 -4.167,-1.756 -6.271,0.224 l -1.677,0.339 c -1.162,0.093 -1.735,0.14 -2.307,0.14 -1,-0.011 -2.079,0.046 -4.032,0.145 -3.473,0.183 -7.077,1.501 -7.077,1.501 -0.314,0.026 -0.558,0.166 -0.746,0.354"
     id="path83" />
  <path
     style="fill:#fab41d;fill-opacity:1;fill-rule:nonzero;stroke:none"
     d="m 40.26444,36.692931 c 0.011,3.135 -0.328,3.812 -0.686,4.656 -2.246,5.328 0.416,6.334 3.244,5.796 3.333,-0.624 4.541,-0.785 3.917,-7.046 -0.172,-1.739 0.031,-8.511 0.031,-8.511 0.401,-2.416 -0.5,-4.989 -1.703,-5.796 -1.276,-0.855 -0.839,-0.428 -2.156,-1 -1.267,-0.552 -3.433,-0.287 -4.115,0.744 -0.657,0.991 0.067,2.495 0.834,4.792 0.604,1.817 0.634,6.365 0.634,6.365"
     id="path85" />
  <path
     style="fill:none;stroke:#231f20;stroke-width:0.565977;stroke-linecap:butt;stroke-linejoin:miter;stroke-miterlimit:4;stroke-dasharray:none;stroke-opacity:1"
     d="m 40.26444,36.692931 c 0.011,3.135 -0.328,3.812 -0.686,4.656 -2.246,5.328 0.416,6.334 3.244,5.796 3.333,-0.624 4.541,-0.785 3.917,-7.046 -0.172,-1.739 0.031,-8.511 0.031,-8.511 0.401,-2.416 -0.5,-4.989 -1.703,-5.796 -1.276,-0.855 -0.839,-0.428 -2.156,-1 -1.267,-0.552 -3.433,-0.287 -4.115,0.744 -0.657,0.991 0.067,2.495 0.834,4.792 0.604,1.817 0.634,6.365 0.634,6.365 z"
     id="path86" />
  <path
     style="fill:#ffffff;fill-opacity:1;fill-rule:nonzero;stroke:none"
     d="m 45.49444,18.854931 c 0.021,-0.246 1.172,-0.407 1.136,-0.923 -0.038,-0.531 -0.819,-0.677 -1.776,-2.416 l -0.011,-0.021 c -0.661,-1.292 -1.761,-2.151 -3.016,-2.167 -2.079,-0.031 -3.797,2.229 -3.839,5.052 -0.046,2.828 1.61,5.141 3.683,5.177 1.984,0.031 3.645,-2.046 3.823,-4.702"
     id="path87" />
  <path
     style="fill:none;stroke:#231f20;stroke-width:0.565977;stroke-linecap:butt;stroke-linejoin:miter;stroke-miterlimit:4;stroke-dasharray:none;stroke-opacity:1"
     d="m 45.49444,18.854931 c 0.021,-0.246 1.172,-0.407 1.136,-0.923 -0.038,-0.531 -0.819,-0.677 -1.776,-2.416 l -0.011,-0.021 c -0.661,-1.292 -1.761,-2.151 -3.016,-2.167 -2.079,-0.031 -3.797,2.229 -3.839,5.052 -0.046,2.828 1.61,5.141 3.683,5.177 1.984,0.031 3.645,-2.046 3.823,-4.702 z"
     id="path88" />
  <path
     style="fill:#ffffff;fill-opacity:1;fill-rule:nonzero;stroke:none"
     d="m 59.98344,46.494931 c -0.416,2.224 -0.203,2.718 0.729,2.953 0.62,0.167 1.131,0.521 1.5,0.64 1.235,0.391 3.49,0.527 9.948,-0.733 1.459,-0.287 3.522,-0.678 4.375,-0.762 1.344,-0.156 0.193,-2.296 -0.344,-2.244 -1.708,0.162 -2.885,0.135 -3.509,0.115 -0.428,-0.021 -1.183,0.057 -2.828,-0.224 -2.491,-0.432 -3.923,-1.047 -6.032,-1.161 -0.984,-0.058 -1.687,-0.715 -2.672,-0.271 -0.995,0.432 -1.167,1.687 -1.167,1.687"
     id="path89" />
  <path
     style="fill:none;stroke:#231f20;stroke-width:0.565977;stroke-linecap:butt;stroke-linejoin:miter;stroke-miterlimit:4;stroke-dasharray:none;stroke-opacity:1"
     d="m 59.98344,46.494931 c -0.416,2.224 -0.203,2.718 0.729,2.953 0.62,0.167 1.131,0.521 1.5,0.64 1.235,0.391 3.49,0.527 9.948,-0.733 1.459,-0.287 3.522,-0.678 4.375,-0.762 1.344,-0.156 0.193,-2.296 -0.344,-2.244 -1.708,0.162 -2.885,0.135 -3.509,0.115 -0.428,-0.021 -1.183,0.057 -2.828,-0.224 -2.491,-0.432 -3.923,-1.047 -6.032,-1.161 -0.984,-0.058 -1.687,-0.715 -2.672,-0.271 -0.995,0.432 -1.167,1.687 -1.167,1.687 z"
     id="path91" />
  <path
     style="fill:#ffffff;fill-opacity:1;fill-rule:nonzero;stroke:#231f20;stroke-width:0.565977;stroke-linecap:round;stroke-linejoin:round;stroke-miterlimit:4;stroke-dasharray:none;stroke-opacity:1"
     d="m 62.11944,45.176931 c -0.808,-1.166 -2.928,-0.802 -3.256,-0.896 -4.823,-1.38 -5.203,-1.354 -8.937,-2.145 -5.416,-1.147 -9.291,-1.1 -10.88,1.848 -1.074,2 -0.823,3.62 0.021,4.631 0.948,1.114 3.885,2.322 6.239,0.656 l 1.714,-0.099 c 1.162,0.073 1.734,0.104 2.307,0.183 0.984,0.15 2.057,0.244 4.011,0.421 3.458,0.308 7.218,-0.489 7.218,-0.489 0.307,0.016 0.574,-0.084 0.787,-0.246"
     id="path93" />
  <path
     style="fill:#fab41d;fill-opacity:1;fill-rule:nonzero;stroke:none"
     d="m 38.77044,43.676931 c -1.078,2 -0.844,3.626 0.005,4.631 0.937,1.119 3.869,2.343 6.235,0.681 l 1.437,-7.681 c -3.729,-0.464 -6.417,0.041 -7.677,2.369"
     id="path95" />
  <path
     style="fill:none;stroke:#231f20;stroke-width:0.565977;stroke-linecap:butt;stroke-linejoin:miter;stroke-miterlimit:4;stroke-dasharray:none;stroke-opacity:1"
     d="m 38.77044,43.676931 c -1.078,2 -0.844,3.626 0.005,4.631 0.937,1.119 3.869,2.343 6.235,0.681 l 1.437,-7.681 c -3.729,-0.464 -6.417,0.041 -7.677,2.369 z"
     id="path97" />
  <path
     style="fill:#231f20;fill-opacity:1;fill-rule:nonzero;stroke:none"
     d="m 23.20744,19.650931 c 0.62,-0.156 2.371,0.704 3.975,0.813 1.082,0.068 3.505,1.353 4.593,1.344 0.995,-0.005 1.448,0.083 1.651,1.213 0.125,0.672 -0.078,2.047 -0.578,2.156 -1.161,0.266 -2.094,0.104 -3.078,-0.302 -1.131,-0.463 -4.074,-1.974 -4.588,-2.307 -1.282,-0.823 -2.016,-0.751 -2.376,-0.932 -0.676,-0.355 -0.708,-0.699 -0.578,-1.183 0.244,-0.932 0.979,-0.802 0.979,-0.802"
     id="path99" />
  <path
     style="fill:none;stroke:#231f20;stroke-width:0.565977;stroke-linecap:butt;stroke-linejoin:miter;stroke-miterlimit:4;stroke-dasharray:none;stroke-opacity:1"
     d="m 23.20744,19.650931 c 0.62,-0.156 2.371,0.704 3.975,0.813 1.082,0.068 3.505,1.353 4.593,1.344 0.995,-0.005 1.448,0.083 1.651,1.213 0.125,0.672 -0.078,2.047 -0.578,2.156 -1.161,0.266 -2.094,0.104 -3.078,-0.302 -1.131,-0.463 -4.074,-1.974 -4.588,-2.307 -1.282,-0.823 -2.016,-0.751 -2.376,-0.932 -0.676,-0.355 -0.708,-0.699 -0.578,-1.183 0.244,-0.932 0.979,-0.802 0.979,-0.802 z"
     id="path100" />
  <path
     style="fill:#231f20;fill-opacity:1;fill-rule:nonzero;stroke:none"
     d="m 31.81644,22.478931 c 0.532,-1.176 2.204,-0.01 2.688,0.224 0.484,0.245 1.954,0.776 3.146,1.037 1.198,0.265 2.573,1.104 4.844,1.615 1.198,0.265 2.188,1.281 1.724,2.994 -0.454,1.698 -1.579,2.078 -2.974,1.542 -1.396,-0.542 -2.48,-1.64 -3.844,-2.287 -1.37,-0.645 -2.822,-1.172 -3.985,-1.531 -1.323,-0.406 -1.823,-1.098 -1.864,-1.573 -0.125,-1.192 0.265,-2.021 0.265,-2.021"
     id="path101" />
  <path
     style="fill:none;stroke:#231f20;stroke-width:0.565977;stroke-linecap:butt;stroke-linejoin:miter;stroke-miterlimit:4;stroke-dasharray:none;stroke-opacity:1"
     d="m 31.81644,22.478931 c 0.532,-1.176 2.204,-0.01 2.688,0.224 0.484,0.245 1.954,0.776 3.146,1.037 1.198,0.265 2.573,1.104 4.844,1.615 1.198,0.265 2.188,1.281 1.724,2.994 -0.454,1.698 -1.579,2.078 -2.974,1.542 -1.396,-0.542 -2.48,-1.64 -3.844,-2.287 -1.37,-0.645 -2.822,-1.172 -3.985,-1.531 -1.323,-0.406 -1.823,-1.098 -1.864,-1.573 -0.125,-1.192 0.265,-2.021 0.265,-2.021 z"
     id="path102" />
  <path
     style="fill:#231f20;fill-opacity:1;fill-rule:nonzero;stroke:none"
     d="m 16.36844,17.660931 c 0.735,-0.082 3.891,0.683 4.604,0.902 0.642,0.182 1.798,0.14 1.975,1.286 0.083,0.448 -0.131,1.178 -0.297,1.448 -0.135,0.224 -0.463,0.23 -0.828,0.088 -0.626,-0.24 -0.714,-0.557 -1.87,-1.088 0,0 -0.256,-0.166 -0.688,-0.5 -1.312,-0.974 -0.645,-0.666 -2.853,-1.661 -0.157,-0.068 -0.204,-0.271 -0.152,-0.371 0.095,-0.161 0.109,-0.104 0.109,-0.104"
     id="path103" />
  <path
     style="fill:none;stroke:#231f20;stroke-width:0.565977;stroke-linecap:round;stroke-linejoin:round;stroke-miterlimit:4;stroke-dasharray:none;stroke-opacity:1"
     d="m 16.36844,17.660931 c 0.735,-0.082 3.891,0.683 4.604,0.902 0.642,0.182 1.798,0.14 1.975,1.286 0.083,0.448 -0.131,1.178 -0.297,1.448 -0.135,0.224 -0.463,0.23 -0.828,0.088 -0.626,-0.24 -0.714,-0.557 -1.87,-1.088 0,0 -0.256,-0.166 -0.688,-0.5 -1.312,-0.974 -0.645,-0.666 -2.853,-1.661 -0.157,-0.068 -0.204,-0.271 -0.152,-0.371 0.095,-0.161 0.109,-0.104 0.109,-0.104 z"
     id="path104" />
  <path
     style="fill:#231f20;fill-opacity:1;fill-rule:nonzero;stroke:none"
     d="m 79.00444,49.202931 c -0.896,1.01 -1.828,0.662 -2.328,-0.244 -0.152,-0.271 -0.562,-0.344 -0.693,-0.62 -0.287,-0.642 0.38,-2.251 1.871,-2.031 0.104,0.009 0.91,-0.115 1.53,-0.125 1.214,0 3.642,0.572 5.036,2.885 0.662,1.088 -0.109,1.276 -0.509,0.921 -1.267,-1.15 -1.605,-1 -2.053,-1.177 -1.499,-0.619 -2.854,0.391 -2.854,0.391"
     id="path105" />
  <path
     style="fill:none;stroke:#231f20;stroke-width:0.332927;stroke-linecap:butt;stroke-linejoin:miter;stroke-miterlimit:4;stroke-dasharray:none;stroke-opacity:1"
     d="m 79.00444,49.202931 c -0.896,1.01 -1.828,0.662 -2.328,-0.244 -0.152,-0.271 -0.562,-0.344 -0.693,-0.62 -0.287,-0.642 0.38,-2.251 1.871,-2.031 0.104,0.009 0.91,-0.115 1.53,-0.125 1.214,0 3.642,0.572 5.036,2.885 0.662,1.088 -0.109,1.276 -0.509,0.921 -1.267,-1.15 -1.605,-1 -2.053,-1.177 -1.499,-0.619 -2.854,0.391 -2.854,0.391 z"
     id="path107" />
  <path
     style="fill:none;stroke:#231f20;stroke-width:0.665856;stroke-linecap:butt;stroke-linejoin:miter;stroke-miterlimit:4;stroke-dasharray:none;stroke-opacity:1"
     d="m 43.72844,2.7189313 c 0,1.317 -1.068,2.385 -2.385,2.385 -1.317,0 -2.385,-1.068 -2.385,-2.385 0,-1.318 1.068,-2.38599999 2.385,-2.38599999 1.317,0 2.385,1.06799999 2.385,2.38599999 z"
     id="path109" />
</svg>
