<?xml version="1.0" encoding="UTF-8" standalone="no"?>
<!-- Created with Inkscape (http://www.inkscape.org/) -->

<svg
   version="1.1"
   id="svg1"
   width="295.61078"
   height="170.44411"
   viewBox="0 0 295.61077 170.4441"
   sodipodi:docname="cell.svg"
   xmlns:inkscape="http://www.inkscape.org/namespaces/inkscape"
   xmlns:sodipodi="http://sodipodi.sourceforge.net/DTD/sodipodi-0.dtd"
   xmlns="http://www.w3.org/2000/svg"
   xmlns:svg="http://www.w3.org/2000/svg">
  <sodipodi:namedview
     id="namedview1"
     pagecolor="#ffffff"
     bordercolor="#000000"
     borderopacity="0.25"
     inkscape:showpageshadow="2"
     inkscape:pageopacity="0.0"
     inkscape:pagecheckerboard="0"
     inkscape:deskcolor="#d1d1d1">
    <inkscape:page
       x="0"
       y="0"
       inkscape:label="1"
       id="page1"
       width="295.61078"
       height="170.44411"
       margin="0"
       bleed="0" />
  </sodipodi:namedview>
  <defs
     id="defs1" />
  <path
     style="fill:#ffffff;fill-opacity:1;fill-rule:nonzero;stroke:none"
     d="m 277.7198,18.874 h 17.891 V 0 h -17.891 z"
     id="path106" />
  <path
     style="fill:#fab41d;fill-opacity:1;fill-rule:nonzero;stroke:none"
     d="m 9.7723986,123.395 c -1.3692,2.823 -1.9744,3.276 -2.6666,3.88 -4.3599,3.798 -2.4172,5.866 0.3641,6.636 3.2667004,0.902 4.4229004,1.292 6.6145004,-4.609 0.6095,-1.641 3.7764,-7.631 3.7764,-7.631 1.423,-1.989 1.74,-4.692 1.016,-5.953 -0.766,-1.328 -0.563,-0.744 -1.495,-1.848 -0.891,-1.053 -2.9531,-1.767 -4.0212,-1.141 -1.0256,0.598 -1.0308,2.27 -1.359,4.672 -0.2609,1.896 -2.2292004,5.994 -2.2292004,5.994"
     id="path107" />
  <path
     style="fill:none;stroke:#231f20;stroke-width:0.565977;stroke-linecap:butt;stroke-linejoin:miter;stroke-miterlimit:4;stroke-dasharray:none;stroke-opacity:1"
     d="m 9.7723986,123.395 c -1.3692,2.823 -1.9744,3.276 -2.6666,3.88 -4.3599,3.798 -2.4172,5.866 0.3641,6.636 3.2667004,0.902 4.4229004,1.292 6.6145004,-4.609 0.6095,-1.641 3.7764,-7.631 3.7764,-7.631 1.423,-1.989 1.74,-4.692 1.016,-5.953 -0.766,-1.328 -0.563,-0.744 -1.495,-1.848 -0.891,-1.053 -2.9531,-1.767 -4.0212,-1.141 -1.0256,0.598 -1.0308,2.27 -1.359,4.672 -0.2609,1.896 -2.2292004,5.994 -2.2292004,5.994 z"
     id="path108" />
  <path
     style="fill:#231f20;fill-opacity:1;fill-rule:nonzero;stroke:none"
     d="m 34.272799,109.551 c -0.364,0.527 -2.251,1.011 -3.536,1.98 -0.865,0.656 -3.543,1.266 -4.36,1.984 -0.745,0.651 -1.151,0.88 -2.047,0.156 -0.527,-0.432 -1.27,-1.598 -0.969,-2.01 0.709,-0.959 1.521,-1.438 2.537,-1.782 1.151,-0.385 4.369,-1.156 4.979,-1.244 1.505,-0.213 2.016,-0.75 2.412,-0.844 0.738,-0.177 0.989,0.063 1.208,0.516 0.416,0.864 -0.224,1.244 -0.224,1.244"
     id="path109" />
  <path
     style="fill:none;stroke:#231f20;stroke-width:0.565977;stroke-linecap:butt;stroke-linejoin:miter;stroke-miterlimit:4;stroke-dasharray:none;stroke-opacity:1"
     d="m 34.272799,109.551 c -0.364,0.527 -2.251,1.011 -3.536,1.98 -0.865,0.656 -3.543,1.266 -4.36,1.984 -0.745,0.651 -1.151,0.88 -2.047,0.156 -0.527,-0.432 -1.27,-1.598 -0.969,-2.01 0.709,-0.959 1.521,-1.438 2.537,-1.782 1.151,-0.385 4.369,-1.156 4.979,-1.244 1.505,-0.213 2.016,-0.75 2.412,-0.844 0.738,-0.177 0.989,0.063 1.208,0.516 0.416,0.864 -0.224,1.244 -0.224,1.244 z"
     id="path110" />
  <path
     style="fill:#231f20;fill-opacity:1;fill-rule:nonzero;stroke:none"
     d="m 25.908799,113.031 c 0.364,1.244 -1.663,1.448 -2.188,1.583 -0.527,0.136 -1.98,0.693 -3.058,1.271 -1.078,0.578 -2.672,0.844 -4.719,1.942 -1.078,0.574 -2.4938,0.454 -3.2646,-1.145 -0.7614,-1.584 -0.1573,-2.609 1.2495,-3.109 1.4121,-0.5 2.9481,-0.375 4.4061,-0.787 1.454,-0.401 2.902,-0.948 4.011,-1.437 1.271,-0.547 2.104,-0.355 2.448,-0.022 0.869,0.819 1.115,1.704 1.115,1.704"
     id="path111" />
  <path
     style="fill:none;stroke:#231f20;stroke-width:0.565977;stroke-linecap:butt;stroke-linejoin:miter;stroke-miterlimit:4;stroke-dasharray:none;stroke-opacity:1"
     d="m 25.908799,113.031 c 0.364,1.244 -1.663,1.448 -2.188,1.583 -0.527,0.136 -1.98,0.693 -3.058,1.271 -1.078,0.578 -2.672,0.844 -4.719,1.942 -1.078,0.574 -2.4938,0.454 -3.2646,-1.145 -0.7614,-1.584 -0.1573,-2.609 1.2495,-3.109 1.4121,-0.5 2.9481,-0.375 4.4061,-0.787 1.454,-0.401 2.902,-0.948 4.011,-1.437 1.271,-0.547 2.104,-0.355 2.448,-0.022 0.869,0.819 1.115,1.704 1.115,1.704 z"
     id="path112" />
  <path
     style="fill:#231f20;fill-opacity:1;fill-rule:nonzero;stroke:none"
     d="m 40.725799,106.969 c -0.537,0.484 -3.547,1.713 -4.245,1.968 -0.626,0.224 -1.537,0.937 -2.359,0.125 -0.328,-0.328 -0.584,-1.041 -0.609,-1.36 -0.022,-0.26 0.238,-0.463 0.624,-0.561 0.647,-0.167 0.89,0.036 2.146,-0.21 0,0 0.302,-0.014 0.854,-0.009 1.63,0.025 0.912,0.167 3.281,-0.329 0.172,-0.042 0.328,0.105 0.338,0.224 0.022,0.177 -0.03,0.152 -0.03,0.152"
     id="path113" />
  <path
     style="fill:none;stroke:#231f20;stroke-width:0.565977;stroke-linecap:round;stroke-linejoin:round;stroke-miterlimit:4;stroke-dasharray:none;stroke-opacity:1"
     d="m 40.725799,106.969 c -0.537,0.484 -3.547,1.713 -4.245,1.968 -0.626,0.224 -1.537,0.937 -2.359,0.125 -0.328,-0.328 -0.584,-1.041 -0.609,-1.36 -0.022,-0.26 0.238,-0.463 0.624,-0.561 0.647,-0.167 0.89,0.036 2.146,-0.21 0,0 0.302,-0.014 0.854,-0.009 1.63,0.025 0.912,0.167 3.281,-0.329 0.172,-0.042 0.328,0.105 0.338,0.224 0.022,0.177 -0.03,0.152 -0.03,0.152 z"
     id="path114" />
  <path
     style="fill:#ffffff;fill-opacity:1;fill-rule:nonzero;stroke:none"
     d="m 22.059799,109.458 c 0.145,-0.199 1.218,0.203 1.437,-0.276 0.218,-0.475 -0.391,-0.975 -0.412,-2.964 v -0.025 c 0.032,-1.448 -0.525,-2.724 -1.62,-3.334 -1.807,-1.021 -4.4,0.151 -5.78,2.615 -1.3816,2.463 -1.0373,5.281 0.776,6.301 1.728,0.975 4.181,-0.062 5.599,-2.317"
     id="path115" />
  <path
     style="fill:none;stroke:#231f20;stroke-width:0.565977;stroke-linecap:butt;stroke-linejoin:miter;stroke-miterlimit:4;stroke-dasharray:none;stroke-opacity:1"
     d="m 22.059799,109.458 c 0.145,-0.199 1.218,0.203 1.437,-0.276 0.218,-0.475 -0.391,-0.975 -0.412,-2.964 v -0.025 c 0.032,-1.448 -0.525,-2.724 -1.62,-3.334 -1.807,-1.021 -4.4,0.151 -5.78,2.615 -1.3816,2.463 -1.0373,5.281 0.776,6.301 1.728,0.975 4.181,-0.062 5.599,-2.317 z"
     id="path116" />
  <path
     style="fill:#231f20;fill-opacity:1;fill-rule:nonzero;stroke:none"
     d="m 8.9551986,148.926 c -1.9692,-1.119 -2.5052,-1.072 -3.0374,-0.271 -0.3479,0.527 -0.8583,0.902 -1.088,1.215 -0.7651,1.052 -1.625,3.124 -2.5214,9.645 -0.2026,1.484 -0.4999,3.558 -0.6865,4.391 -0.2973,1.328 2.0985,0.927 2.224,0.411 0.3959,-1.667 0.8068,-2.786 1.0256,-3.364 0.1557,-0.402 0.3385,-1.14 1.1301,-2.604 1.2084,-2.219 2.2604,-3.37 3.0522,-5.334 0.364,-0.912 1.2186004,-1.365 1.1202004,-2.442 -0.0896,-1.079 -1.2188004,-1.647 -1.2188004,-1.647"
     id="path117" />
  <path
     style="fill:none;stroke:#231f20;stroke-width:0.565977;stroke-linecap:butt;stroke-linejoin:miter;stroke-miterlimit:4;stroke-dasharray:none;stroke-opacity:1"
     d="m 8.9551986,148.926 c -1.9692,-1.119 -2.5052,-1.072 -3.0374,-0.271 -0.3479,0.527 -0.8583,0.902 -1.088,1.215 -0.7651,1.052 -1.625,3.124 -2.5214,9.645 -0.2026,1.484 -0.4999,3.558 -0.6865,4.391 -0.2973,1.328 2.0985,0.927 2.224,0.411 0.3959,-1.667 0.8068,-2.786 1.0256,-3.364 0.1557,-0.402 0.3385,-1.14 1.1301,-2.604 1.2084,-2.219 2.2604,-3.37 3.0522,-5.334 0.364,-0.912 1.2186004,-1.365 1.1202004,-2.442 -0.0896,-1.079 -1.2188004,-1.647 -1.2188004,-1.647 z"
     id="path118" />
  <path
     style="fill:#231f20;fill-opacity:1;fill-rule:nonzero;stroke:#231f20;stroke-width:0.565977;stroke-linecap:round;stroke-linejoin:miter;stroke-miterlimit:4;stroke-dasharray:none;stroke-opacity:1"
     d="m 9.9177986,151.463 c 1.0265004,-0.874 0.6666004,-2.865 0.7505004,-3.182 1.3229,-4.834 1.2923,-5.214 2.0365,-8.964 1.0786,-5.416 0.9891,-9.296 -1.9844,-10.843 -2.0156004,-1.052 -3.6308004,-0.787 -4.6250004,0.077 -1.1042,0.954 -2.2812,3.907 -0.5828,6.24 l 0.1292,1.708 c -0.0667,1.167 -0.088,1.74 -0.1667,2.314 -0.1344,0.989 -0.2131,2.061 -0.3641,4.014 -0.2703,3.459 0.5776,7.208 0.5776,7.208 -0.0146,0.308 0.089,0.568 0.2557,0.782"
     id="path119" />
  <path
     style="fill:#fab41d;fill-opacity:1;fill-rule:nonzero;stroke:none"
     d="m 13.100599,131.817 c -0.3386,-1.515 -1.0734,-2.662 -2.3802,-3.343 -2.0156004,-1.052 -3.6308004,-0.787 -4.6250004,0.077 -1.1042,0.954 -2.2812,3.907 -0.5828,6.24 l 7.7026004,1.318 c 0.0734,-0.656 0.099,-1.26 0.1042,-1.85 0.0317,-0.072 0.0573,-0.15 0.088,-0.213 0.3812,-0.708 0.136,-1.291 -0.3068,-2.229"
     id="path120" />
  <path
     style="fill:none;stroke:#231f20;stroke-width:0.565977;stroke-linecap:round;stroke-linejoin:round;stroke-miterlimit:4;stroke-dasharray:none;stroke-opacity:1"
     d="m 13.100599,131.817 c -0.3386,-1.515 -1.0734,-2.662 -2.3802,-3.343 -2.0156004,-1.052 -3.6308004,-0.787 -4.6250004,0.077 -1.1042,0.954 -2.2812,3.907 -0.5828,6.24 l 7.7026004,1.318 c 0.0734,-0.656 0.099,-1.26 0.1042,-1.85 0.0317,-0.072 0.0573,-0.15 0.088,-0.213 0.3812,-0.708 0.136,-1.291 -0.3068,-2.229 z"
     id="path121" />
  <path
     style="fill:#231f20;fill-opacity:1;fill-rule:nonzero;stroke:none"
     d="m 0.79809857,167.046 c -1,-0.416 -0.3428,-1.484 0.28640003,-2.536 0.1614,-0.265 0.287,-0.531 0.4641,-0.776 0.7077,-0.995 1.7025,-1.339 2.7812,1.453 0.036,0.11 1.375,1.839 1.8281,2.26 2.1932,2.027 2.6771,1.339 2.1932,2.027 -0.3239,0.452 -0.8025,0.291 -1.3959,0.077 -0.8025,-0.286 -3.5478,-1.557 -3.9801,-1.724 -0.4213,-0.161 -2.17700003,-0.781 -2.17700003,-0.781"
     id="path122" />
  <path
     style="fill:none;stroke:#231f20;stroke-width:0.565977;stroke-linecap:butt;stroke-linejoin:miter;stroke-miterlimit:4;stroke-dasharray:none;stroke-opacity:1"
     d="m 0.79809857,167.046 c -1,-0.416 -0.3428,-1.484 0.28640003,-2.536 0.1614,-0.265 0.287,-0.531 0.4641,-0.776 0.7077,-0.995 1.7025,-1.339 2.7812,1.453 0.036,0.11 1.375,1.839 1.8281,2.26 2.1932,2.027 2.6771,1.339 2.1932,2.027 -0.3239,0.452 -0.8025,0.291 -1.3959,0.077 -0.8025,-0.286 -3.5478,-1.557 -3.9801,-1.724 -0.4213,-0.161 -2.17700003,-0.781 -2.17700003,-0.781 z"
     id="path124" />
  <path
     style="fill:#fab41d;fill-opacity:1;fill-rule:nonzero;stroke:none"
     d="m 84.641799,114.901 c -3.077,0.593 -3.807,0.39 -4.703,0.192 -5.656,-1.208 -6.145,1.594 -5.088,4.272 1.234,3.156 1.614,4.317 7.651,2.536 1.683,-0.5 8.369,-1.558 8.369,-1.558 2.448,-0.062 4.808,-1.421 5.38,-2.76 0.6,-1.412 0.262,-0.901 0.574,-2.297 0.306,-1.349 -0.355,-3.432 -1.495,-3.907 -1.093,-0.462 -2.437,0.532 -4.552,1.714 -1.672,0.928 -6.136,1.808 -6.136,1.808"
     id="path126" />
  <path
     style="fill:none;stroke:#231f20;stroke-width:0.565977;stroke-linecap:butt;stroke-linejoin:miter;stroke-miterlimit:4;stroke-dasharray:none;stroke-opacity:1"
     d="m 84.641799,114.901 c -3.077,0.593 -3.807,0.39 -4.703,0.192 -5.656,-1.208 -6.145,1.594 -5.088,4.272 1.234,3.156 1.614,4.317 7.651,2.536 1.683,-0.5 8.369,-1.558 8.369,-1.558 2.448,-0.062 4.808,-1.421 5.38,-2.76 0.6,-1.412 0.262,-0.901 0.574,-2.297 0.306,-1.349 -0.355,-3.432 -1.495,-3.907 -1.093,-0.462 -2.437,0.532 -4.552,1.714 -1.672,0.928 -6.136,1.808 -6.136,1.808 z"
     id="path127" />
  <path
     style="fill:#ffffff;fill-opacity:1;fill-rule:nonzero;stroke:none"
     d="m 104.3408,114.223 c 0.213,-0.125 1.01,0.714 1.416,0.38 0.406,-0.333 0.068,-1.057 0.928,-2.848 l 0.009,-0.021 c 0.661,-1.292 0.719,-2.683 0.005,-3.713 -1.186,-1.704 -4.02,-1.782 -6.344,-0.178 -2.328001,1.61 -3.238001,4.298 -2.061001,6.011 1.129,1.635 3.785001,1.776 6.047001,0.369"
     id="path128" />
  <path
     style="fill:none;stroke:#231f20;stroke-width:0.565977;stroke-linecap:butt;stroke-linejoin:miter;stroke-miterlimit:4;stroke-dasharray:none;stroke-opacity:1"
     d="m 104.3408,114.223 c 0.213,-0.125 1.01,0.714 1.416,0.38 0.406,-0.333 0.068,-1.057 0.928,-2.848 l 0.009,-0.021 c 0.661,-1.292 0.719,-2.683 0.005,-3.713 -1.186,-1.704 -4.02,-1.782 -6.344,-0.178 -2.328001,1.61 -3.238001,4.298 -2.061001,6.011 1.129,1.635 3.785001,1.776 6.047001,0.369 z"
     id="path129" />
  <path
     style="fill:#231f20;fill-opacity:1;fill-rule:nonzero;stroke:none"
     d="m 62.460799,131.026 c -1.292,-1.865 -1.798,-2.052 -2.615,-1.547 -0.548,0.323 -1.167,0.438 -1.511,0.619 -1.141,0.609 -2.813,2.12 -6.437,7.615 -0.819,1.245 -1.989,2.985 -2.521,3.661 -0.834,1.063 1.5,1.745 1.838,1.324 1.079,-1.333 1.922,-2.157 2.375,-2.589 0.319,-0.292 0.792,-0.88 2.147,-1.859 2.046,-1.48 3.494,-2.068 5.052,-3.495 0.724,-0.666 1.686,-0.698 2.057,-1.72 0.396,-1.014 -0.385,-2.009 -0.385,-2.009"
     id="path130" />
  <path
     style="fill:none;stroke:#231f20;stroke-width:0.565977;stroke-linecap:butt;stroke-linejoin:miter;stroke-miterlimit:4;stroke-dasharray:none;stroke-opacity:1"
     d="m 62.460799,131.026 c -1.292,-1.865 -1.798,-2.052 -2.615,-1.547 -0.548,0.323 -1.167,0.438 -1.511,0.619 -1.141,0.609 -2.813,2.12 -6.437,7.615 -0.819,1.245 -1.989,2.985 -2.521,3.661 -0.834,1.063 1.5,1.745 1.838,1.324 1.079,-1.333 1.922,-2.157 2.375,-2.589 0.319,-0.292 0.792,-0.88 2.147,-1.859 2.046,-1.48 3.494,-2.068 5.052,-3.495 0.724,-0.666 1.686,-0.698 2.057,-1.72 0.396,-1.014 -0.385,-2.009 -0.385,-2.009 z"
     id="path131" />
  <path
     style="fill:#231f20;fill-opacity:1;fill-rule:nonzero;stroke:#231f20;stroke-width:0.565977;stroke-linecap:round;stroke-linejoin:round;stroke-miterlimit:4;stroke-dasharray:none;stroke-opacity:1"
     d="m 61.908799,133.469 c 1.394,0.244 2.618,-1.527 2.916,-1.699 4.364,-2.473 4.609,-2.765 7.792,-4.875 4.609,-3.057 7.292,-5.864 6.301,-9.062 -0.687,-2.167 -2.015,-3.126 -3.328,-3.23 -1.453,-0.098 -4.375,1.152 -4.833,4 l -1.13,1.292 c -0.865,0.776 -1.286,1.162 -1.74,1.516 -0.802,0.599 -1.62,1.302 -3.114,2.572 -2.642,2.251 -4.703,5.496 -4.703,5.496 -0.229,0.203 -0.344,0.463 -0.381,0.728"
     id="path132" />
  <path
     style="fill:#fab41d;fill-opacity:1;fill-rule:nonzero;stroke:none"
     d="m 79.324799,117.849 c -0.672,-2.167 -1.995,-3.136 -3.307,-3.24 -1.453,-0.11 -4.387,1.125 -4.849,3.98 l 4.473,6.4 c 2.948,-2.339 4.464,-4.61 3.683,-7.14"
     id="path133" />
  <path
     style="fill:none;stroke:#231f20;stroke-width:0.565977;stroke-linecap:butt;stroke-linejoin:miter;stroke-miterlimit:4;stroke-dasharray:none;stroke-opacity:1"
     d="m 79.324799,117.849 c -0.672,-2.167 -1.995,-3.136 -3.307,-3.24 -1.453,-0.11 -4.387,1.125 -4.849,3.98 l 4.473,6.4 c 2.948,-2.339 4.464,-4.61 3.683,-7.14 z"
     id="path134" />
  <path
     style="fill:#231f20;fill-opacity:1;fill-rule:nonzero;stroke:none"
     d="m 109.3978,127.89 c -0.641,-0.025 -2.079,-1.339 -3.589,-1.891 -1.02,-0.38 -2.99,-2.281 -4.031,-2.582 -0.959,-0.271 -1.365,-0.491 -1.245,-1.626 0.068,-0.682 0.652,-1.942 1.161,-1.912 1.188,0.074 2.032,0.49 2.871,1.156 0.953,0.762 3.353,3.038 3.754,3.502 1,1.15 1.719,1.285 2.016,1.561 0.552,0.527 0.49,0.865 0.224,1.297 -0.494,0.823 -1.161,0.495 -1.161,0.495"
     id="path135" />
  <path
     style="fill:none;stroke:#231f20;stroke-width:0.565977;stroke-linecap:butt;stroke-linejoin:miter;stroke-miterlimit:4;stroke-dasharray:none;stroke-opacity:1"
     d="m 109.3978,127.89 c -0.641,-0.025 -2.079,-1.339 -3.589,-1.891 -1.02,-0.38 -2.99,-2.281 -4.031,-2.582 -0.959,-0.271 -1.365,-0.491 -1.245,-1.626 0.068,-0.682 0.652,-1.942 1.161,-1.912 1.188,0.074 2.032,0.49 2.871,1.156 0.953,0.762 3.353,3.038 3.754,3.502 1,1.15 1.719,1.285 2.016,1.561 0.552,0.527 0.49,0.865 0.224,1.297 -0.494,0.823 -1.161,0.495 -1.161,0.495 z"
     id="path136" />
  <path
     style="fill:#231f20;fill-opacity:1;fill-rule:nonzero;stroke:none"
     d="m 101.9288,122.759 c -0.85,0.98 -2.126001,-0.604 -2.522001,-0.968 -0.394,-0.374 -1.656,-1.292 -2.722,-1.874 -1.079,-0.595 -2.167,-1.787 -4.204,-2.912 -1.074,-0.588 -1.74,-1.844 -0.812,-3.355 0.916,-1.504 2.098,-1.557 3.286,-0.645 1.187,0.912 1.922,2.265 3.052,3.27 1.13,1 2.380001,1.918 3.391001,2.584 1.156,0.766 1.443,1.567 1.353,2.036 -0.218,1.178 -0.822,1.864 -0.822,1.864"
     id="path137" />
  <path
     style="fill:none;stroke:#231f20;stroke-width:0.565977;stroke-linecap:butt;stroke-linejoin:miter;stroke-miterlimit:4;stroke-dasharray:none;stroke-opacity:1"
     d="m 101.9288,122.759 c -0.85,0.98 -2.126001,-0.604 -2.522001,-0.968 -0.394,-0.374 -1.656,-1.292 -2.722,-1.874 -1.079,-0.595 -2.167,-1.787 -4.204,-2.912 -1.074,-0.588 -1.74,-1.844 -0.812,-3.355 0.916,-1.504 2.098,-1.557 3.286,-0.645 1.187,0.912 1.922,2.265 3.052,3.27 1.13,1 2.380001,1.918 3.391001,2.584 1.156,0.766 1.443,1.567 1.353,2.036 -0.218,1.178 -0.822,1.864 -0.822,1.864 z"
     id="path138" />
  <path
     style="fill:#231f20;fill-opacity:1;fill-rule:nonzero;stroke:none"
     d="m 114.2938,131.598 c -0.719,-0.135 -3.516,-1.796 -4.136,-2.213 -0.552,-0.364 -1.672,-0.667 -1.505,-1.812 0.052,-0.454 0.469,-1.09 0.708,-1.303 0.198,-0.172 0.516,-0.077 0.818,0.167 0.526,0.412 0.515,0.74 1.468,1.589 0,0 0.199,0.233 0.506,0.681 0.969,1.314 0.422,0.824 2.245,2.428 0.129,0.104 0.109,0.318 0.036,0.396 -0.14,0.124 -0.14,0.067 -0.14,0.067"
     id="path139" />
  <path
     style="fill:none;stroke:#231f20;stroke-width:0.565977;stroke-linecap:round;stroke-linejoin:round;stroke-miterlimit:4;stroke-dasharray:none;stroke-opacity:1"
     d="m 114.2938,131.598 c -0.719,-0.135 -3.516,-1.796 -4.136,-2.213 -0.552,-0.364 -1.672,-0.667 -1.505,-1.812 0.052,-0.454 0.469,-1.09 0.708,-1.303 0.198,-0.172 0.516,-0.077 0.818,0.167 0.526,0.412 0.515,0.74 1.468,1.589 0,0 0.199,0.233 0.506,0.681 0.969,1.314 0.422,0.824 2.245,2.428 0.129,0.104 0.109,0.318 0.036,0.396 -0.14,0.124 -0.14,0.067 -0.14,0.067 z"
     id="path140" />
  <path
     style="fill:#231f20;fill-opacity:1;fill-rule:nonzero;stroke:none"
     d="m 47.214799,142.707 c -0.104,-1.353 0.803,-1.77 1.798,-1.494 0.301,0.084 0.64,-0.162 0.926,-0.058 0.662,0.246 1.339,1.85 0.146,2.756 -0.083,0.068 -0.558,0.735 -0.984,1.182 -0.85,0.865 -2.964,2.198 -5.588,1.578 -1.24,-0.292 -0.834,-0.978 -0.298,-1.01 1.703,-0.104 1.834,-0.443 2.276,-0.646 1.49,-0.636 1.724,-2.308 1.724,-2.308"
     id="path141" />
  <path
     style="fill:none;stroke:#231f20;stroke-width:0.332927;stroke-linecap:butt;stroke-linejoin:miter;stroke-miterlimit:4;stroke-dasharray:none;stroke-opacity:1"
     d="m 47.214799,142.707 c -0.104,-1.353 0.803,-1.77 1.798,-1.494 0.301,0.084 0.64,-0.162 0.926,-0.058 0.662,0.246 1.339,1.85 0.146,2.756 -0.083,0.068 -0.558,0.735 -0.984,1.182 -0.85,0.865 -2.964,2.198 -5.588,1.578 -1.24,-0.292 -0.834,-0.978 -0.298,-1.01 1.703,-0.104 1.834,-0.443 2.276,-0.646 1.49,-0.636 1.724,-2.308 1.724,-2.308 z"
     id="path142" />
  <path
     style="fill:#fab41d;fill-opacity:1;fill-rule:nonzero;stroke:none"
     d="m 149.6308,161.302 c 1.808,-2.563 2.761,-4.693 3.229,-5.485 1.61,-2.755 1.579,-5.386 -1.041,-6.588 -3.079,-1.422 -5.375,0.202 -7.317,3.88 -0.818,1.557 -3.464,4.537 -3.464,4.537 -2.443,2.14 -3.454,2.285 -2.574,4.911 0.486,1.453 -0.53,3.672 0.319,4.838 1.593,2.151 2.713,2.287 3.787,1.771 1.072,-0.511 1.812,-1.568 3.5,-3.312 1.614,-1.672 3.561,-4.552 3.561,-4.552"
     id="path143" />
  <path
     style="fill:none;stroke:#231f20;stroke-width:0.565977;stroke-linecap:butt;stroke-linejoin:miter;stroke-miterlimit:4;stroke-dasharray:none;stroke-opacity:1"
     d="m 149.6308,161.302 c 1.808,-2.563 2.761,-4.693 3.229,-5.485 1.61,-2.755 1.579,-5.386 -1.041,-6.588 -3.079,-1.422 -5.375,0.202 -7.317,3.88 -0.818,1.557 -3.464,4.537 -3.464,4.537 -2.443,2.14 -3.454,2.285 -2.574,4.911 0.486,1.453 -0.53,3.672 0.319,4.838 1.593,2.151 2.713,2.287 3.787,1.771 1.072,-0.511 1.812,-1.568 3.5,-3.312 1.614,-1.672 3.561,-4.552 3.561,-4.552 z"
     id="path145" />
  <path
     style="fill:#ffffff;fill-opacity:1;fill-rule:nonzero;stroke:none"
     d="m 132.5018,162.682 c -0.246,-0.041 -0.318,-1.199 -0.839,-1.203 -0.527,-0.005 -0.735,0.76 -2.541,1.578 l -0.022,0.01 c -1.344,0.558 -2.286,1.588 -2.401,2.834 -0.192,2.073 1.928,3.958 4.729,4.229 2.818,0.265 5.256,-1.199 5.454,-3.26 0.192,-1.985 -1.751,-3.803 -4.38,-4.188"
     id="path147" />
  <path
     style="fill:none;stroke:#231f20;stroke-width:0.565977;stroke-linecap:butt;stroke-linejoin:miter;stroke-miterlimit:4;stroke-dasharray:none;stroke-opacity:1"
     d="m 132.5018,162.682 c -0.246,-0.041 -0.318,-1.199 -0.839,-1.203 -0.527,-0.005 -0.735,0.76 -2.541,1.578 l -0.022,0.01 c -1.344,0.558 -2.286,1.588 -2.401,2.834 -0.192,2.073 1.928,3.958 4.729,4.229 2.818,0.265 5.256,-1.199 5.454,-3.26 0.192,-1.985 -1.751,-3.803 -4.38,-4.188 z"
     id="path149" />
  <path
     style="fill:#231f20;fill-opacity:1;fill-rule:nonzero;stroke:none"
     d="m 151.5698,135.682 c 2.208,0.495 2.702,0.287 2.968,-0.636 0.182,-0.615 0.562,-1.109 0.688,-1.479 0.426,-1.224 0.634,-3.469 -0.438,-9.964 -0.24,-1.468 -0.562,-3.541 -0.625,-4.396 -0.115,-1.353 -2.287,-0.265 -2.251,0.276 0.11,1.71 0.048,2.886 0.011,3.511 -0.036,0.428 0.016,1.183 -0.312,2.823 -0.505,2.474 -1.167,3.885 -1.344,5.99 -0.083,0.979 -0.765,1.662 -0.349,2.662 0.396,1.01 1.652,1.213 1.652,1.213"
     id="path151" />
  <path
     style="fill:none;stroke:#231f20;stroke-width:0.565977;stroke-linecap:butt;stroke-linejoin:miter;stroke-miterlimit:4;stroke-dasharray:none;stroke-opacity:1"
     d="m 151.5698,135.682 c 2.208,0.495 2.702,0.287 2.968,-0.636 0.182,-0.615 0.562,-1.109 0.688,-1.479 0.426,-1.224 0.634,-3.469 -0.438,-9.964 -0.24,-1.468 -0.562,-3.541 -0.625,-4.396 -0.115,-1.353 -2.287,-0.265 -2.251,0.276 0.11,1.71 0.048,2.886 0.011,3.511 -0.036,0.428 0.016,1.183 -0.312,2.823 -0.505,2.474 -1.167,3.885 -1.344,5.99 -0.083,0.979 -0.765,1.662 -0.349,2.662 0.396,1.01 1.652,1.213 1.652,1.213 z"
     id="path152" />
  <path
     style="fill:#231f20;fill-opacity:1;fill-rule:nonzero;stroke:#231f20;stroke-width:0.565977;stroke-linecap:round;stroke-linejoin:round;stroke-miterlimit:4;stroke-dasharray:none;stroke-opacity:1"
     d="m 150.3978,132.073 c -1.188,0.765 -0.886,2.901 -0.986,3.224 -1.525,4.781 -1.504,5.161 -2.405,8.869 -1.303,5.38 -1.365,9.26 1.536,10.932 1.975,1.131 3.599,0.928 4.631,0.109 1.134,-0.91 2.432,-3.812 0.833,-6.218 l -0.052,-1.714 c 0.115,-1.156 0.156,-1.729 0.255,-2.296 0.177,-0.985 0.302,-2.057 0.53,-4 0.412,-3.453 -0.28,-7.229 -0.28,-7.229 0.026,-0.308 -0.068,-0.573 -0.224,-0.797"
     id="path153" />
  <path
     style="fill:#fab41d;fill-opacity:1;fill-rule:nonzero;stroke:none"
     d="m 153.9698,149.119 -7.635,-1.656 c -0.573,3.719 -0.147,6.411 2.151,7.74 1.964,1.13 3.593,0.943 4.625,0.124 1.145,-0.901 2.453,-3.801 0.859,-6.208"
     id="path154" />
  <path
     style="fill:none;stroke:#231f20;stroke-width:0.565977;stroke-linecap:butt;stroke-linejoin:miter;stroke-miterlimit:4;stroke-dasharray:none;stroke-opacity:1"
     d="m 153.9698,149.119 -7.635,-1.656 c -0.573,3.719 -0.147,6.411 2.151,7.74 1.964,1.13 3.593,0.943 4.625,0.124 1.145,-0.901 2.453,-3.801 0.859,-6.208 z"
     id="path155" />
  <path
     style="fill:#231f20;fill-opacity:1;fill-rule:nonzero;stroke:none"
     d="m 125.9958,166.635 c -0.046,-0.636 1.131,-2.198 1.526,-3.756 0.276,-1.052 1.98,-3.197 2.172,-4.265 0.182,-0.984 0.349,-1.407 1.494,-1.401 0.688,0.005 2,0.458 2.022,0.964 0.041,1.192 -0.292,2.078 -0.87,2.978 -0.661,1.016 -2.693,3.631 -3.109,4.074 -1.047,1.114 -1.115,1.844 -1.36,2.166 -0.473,0.599 -0.817,0.568 -1.265,0.355 -0.875,-0.423 -0.61,-1.115 -0.61,-1.115"
     id="path156" />
  <path
     style="fill:none;stroke:#231f20;stroke-width:0.565977;stroke-linecap:butt;stroke-linejoin:miter;stroke-miterlimit:4;stroke-dasharray:none;stroke-opacity:1"
     d="m 125.9958,166.635 c -0.046,-0.636 1.131,-2.198 1.526,-3.756 0.276,-1.052 1.98,-3.197 2.172,-4.265 0.182,-0.984 0.349,-1.407 1.494,-1.401 0.688,0.005 2,0.458 2.022,0.964 0.041,1.192 -0.292,2.078 -0.87,2.978 -0.661,1.016 -2.693,3.631 -3.109,4.074 -1.047,1.114 -1.115,1.844 -1.36,2.166 -0.473,0.599 -0.817,0.568 -1.265,0.355 -0.875,-0.423 -0.61,-1.115 -0.61,-1.115 z"
     id="path157" />
  <path
     style="fill:#231f20;fill-opacity:1;fill-rule:nonzero;stroke:none"
     d="m 130.6988,157.702 c 0.693,-1.093 2.188,0.292 2.631,0.595 0.448,0.306 1.822,1.036 2.968,1.458 1.146,0.432 2.401,1.458 4.573,2.28 1.147,0.428 1.989,1.574 1.292,3.204 -0.688,1.615 -1.855,1.839 -3.161,1.11 -1.303,-0.73 -2.224,-1.97 -3.495,-2.798 -1.256,-0.828 -2.625,-1.552 -3.729,-2.068 -1.246,-0.593 -1.651,-1.342 -1.626,-1.817 0.047,-1.203 0.547,-1.964 0.547,-1.964"
     id="path158" />
  <path
     style="fill:none;stroke:#231f20;stroke-width:0.565977;stroke-linecap:butt;stroke-linejoin:miter;stroke-miterlimit:4;stroke-dasharray:none;stroke-opacity:1"
     d="m 130.6988,157.702 c 0.693,-1.093 2.188,0.292 2.631,0.595 0.448,0.306 1.822,1.036 2.968,1.458 1.146,0.432 2.401,1.458 4.573,2.28 1.147,0.428 1.989,1.574 1.292,3.204 -0.688,1.615 -1.855,1.839 -3.161,1.11 -1.303,-0.73 -2.224,-1.97 -3.495,-2.798 -1.256,-0.828 -2.625,-1.552 -3.729,-2.068 -1.246,-0.593 -1.651,-1.342 -1.626,-1.817 0.047,-1.203 0.547,-1.964 0.547,-1.964 z"
     id="path159" />
  <path
     style="fill:#231f20;fill-opacity:1;fill-rule:nonzero;stroke:none"
     d="m 132.6268,169.817 c -0.709,0.209 -3.948,-0.01 -4.693,-0.099 -0.656,-0.072 -1.787,0.172 -2.156,-0.927 -0.167,-0.432 -0.079,-1.188 0.036,-1.478 0.098,-0.246 0.422,-0.303 0.802,-0.224 0.656,0.124 0.796,0.421 2.026,0.749 0,0 0.286,0.12 0.765,0.375 1.459,0.734 0.745,0.542 3.095,1.141 0.166,0.041 0.244,0.239 0.213,0.344 -0.063,0.176 -0.088,0.119 -0.088,0.119"
     id="path160" />
  <path
     style="fill:none;stroke:#231f20;stroke-width:0.565977;stroke-linecap:round;stroke-linejoin:round;stroke-miterlimit:4;stroke-dasharray:none;stroke-opacity:1"
     d="m 132.6268,169.817 c -0.709,0.209 -3.948,-0.01 -4.693,-0.099 -0.656,-0.072 -1.787,0.172 -2.156,-0.927 -0.167,-0.432 -0.079,-1.188 0.036,-1.478 0.098,-0.246 0.422,-0.303 0.802,-0.224 0.656,0.124 0.796,0.421 2.026,0.749 0,0 0.286,0.12 0.765,0.375 1.459,0.734 0.745,0.542 3.095,1.141 0.166,0.041 0.244,0.239 0.213,0.344 -0.063,0.176 -0.088,0.119 -0.088,0.119 z"
     id="path162" />
  <path
     style="fill:#231f20;fill-opacity:1;fill-rule:nonzero;stroke:none"
     d="m 154.8458,116.755 c 0.989,0.927 0.614,1.848 -0.303,2.328 -0.281,0.135 -0.364,0.547 -0.651,0.667 -0.646,0.265 -2.234,-0.448 -1.969,-1.928 0.011,-0.104 -0.093,-0.916 -0.077,-1.536 0.036,-1.213 0.681,-3.625 3.03,-4.948 1.115,-0.631 1.276,0.151 0.907,0.536 -1.183,1.235 -1.047,1.579 -1.24,2.021 -0.661,1.479 0.303,2.86 0.303,2.86"
     id="path164" />
  <path
     style="fill:none;stroke:#231f20;stroke-width:0.332927;stroke-linecap:butt;stroke-linejoin:miter;stroke-miterlimit:4;stroke-dasharray:none;stroke-opacity:1"
     d="m 154.8458,116.755 c 0.989,0.927 0.614,1.848 -0.303,2.328 -0.281,0.135 -0.364,0.547 -0.651,0.667 -0.646,0.265 -2.234,-0.448 -1.969,-1.928 0.011,-0.104 -0.093,-0.916 -0.077,-1.536 0.036,-1.213 0.681,-3.625 3.03,-4.948 1.115,-0.631 1.276,0.151 0.907,0.536 -1.183,1.235 -1.047,1.579 -1.24,2.021 -0.661,1.479 0.303,2.86 0.303,2.86 z"
     id="path165" />
  <path
     style="fill:#ffffff;fill-opacity:1;fill-rule:nonzero;stroke:none"
     d="m 199.1938,133.307 c 0.084,-0.229 1.229,-0.12 1.318,-0.636 0.083,-0.516 -0.63,-0.838 -1.172,-2.754 l -0.005,-0.027 c -0.344,-1.411 -1.213,-2.495 -2.427,-2.801 -2.016,-0.511 -4.214,1.29 -4.906,4.025 -0.699,2.74 0.374,5.375 2.385,5.885 1.927,0.49 4.02,-1.145 4.807,-3.692"
     id="path166" />
  <path
     style="fill:none;stroke:#231f20;stroke-width:0.565977;stroke-linecap:butt;stroke-linejoin:miter;stroke-miterlimit:4;stroke-dasharray:none;stroke-opacity:1"
     d="m 199.1938,133.307 c 0.084,-0.229 1.229,-0.12 1.318,-0.636 0.083,-0.516 -0.63,-0.838 -1.172,-2.754 l -0.005,-0.027 c -0.344,-1.411 -1.213,-2.495 -2.427,-2.801 -2.016,-0.511 -4.214,1.29 -4.906,4.025 -0.699,2.74 0.374,5.375 2.385,5.885 1.927,0.49 4.02,-1.145 4.807,-3.692 z"
     id="path167" />
  <path
     style="fill:#fab41d;fill-opacity:1;fill-rule:nonzero;stroke:none"
     d="m 184.7558,147.265 c -1.958,2.442 -2.65,2.75 -3.462,3.188 -5.1,2.729 -3.663,5.177 -1.12,6.546 2.984,1.61 4.02,2.246 7.473,-3.02 0.959,-1.458 5.38,-6.594 5.38,-6.594 1.828,-1.63 2.745,-4.192 2.313,-5.578 -0.448,-1.469 -0.376,-0.854 -1.042,-2.141 -0.635,-1.219 -2.49,-2.38 -3.667,-2.005 -1.129,0.36 -1.515,1.985 -2.364,4.25 -0.677,1.791 -3.511,5.354 -3.511,5.354"
     id="path168" />
  <path
     style="fill:none;stroke:#231f20;stroke-width:0.565977;stroke-linecap:butt;stroke-linejoin:miter;stroke-miterlimit:4;stroke-dasharray:none;stroke-opacity:1"
     d="m 184.7558,147.265 c -1.958,2.442 -2.65,2.75 -3.462,3.188 -5.1,2.729 -3.663,5.177 -1.12,6.546 2.984,1.61 4.02,2.246 7.473,-3.02 0.959,-1.458 5.38,-6.594 5.38,-6.594 1.828,-1.63 2.745,-4.192 2.313,-5.578 -0.448,-1.469 -0.376,-0.854 -1.042,-2.141 -0.635,-1.219 -2.49,-2.38 -3.667,-2.005 -1.129,0.36 -1.515,1.985 -2.364,4.25 -0.677,1.791 -3.511,5.354 -3.511,5.354 z"
     id="path169" />
  <path
     style="fill:#231f20;fill-opacity:1;fill-rule:nonzero;stroke:none"
     d="m 212.1838,140.354 c -0.526,0.38 -2.464,0.219 -3.996,0.713 -1.03,0.334 -3.765,0.036 -4.765,0.443 -0.921,0.375 -1.38,0.464 -1.989,-0.521 -0.36,-0.578 -0.678,-1.927 -0.255,-2.219 0.984,-0.672 1.911,-0.859 2.979,-0.848 1.213,0.009 4.51,0.337 5.109,0.452 1.5,0.292 2.151,-0.047 2.557,-0.005 0.76,0.073 0.912,0.386 0.97,0.886 0.114,0.952 -0.61,1.099 -0.61,1.099"
     id="path170" />
  <path
     style="fill:none;stroke:#231f20;stroke-width:0.565977;stroke-linecap:butt;stroke-linejoin:miter;stroke-miterlimit:4;stroke-dasharray:none;stroke-opacity:1"
     d="m 212.1838,140.354 c -0.526,0.38 -2.464,0.219 -3.996,0.713 -1.03,0.334 -3.765,0.036 -4.765,0.443 -0.921,0.375 -1.38,0.464 -1.989,-0.521 -0.36,-0.578 -0.678,-1.927 -0.255,-2.219 0.984,-0.672 1.911,-0.859 2.979,-0.848 1.213,0.009 4.51,0.337 5.109,0.452 1.5,0.292 2.151,-0.047 2.557,-0.005 0.76,0.073 0.912,0.386 0.97,0.886 0.114,0.952 -0.61,1.099 -0.61,1.099 z"
     id="path171" />
  <path
     style="fill:#231f20;fill-opacity:1;fill-rule:nonzero;stroke:none"
     d="m 203.1358,140.901 c -0.062,1.292 -2.041,0.822 -2.588,0.781 -0.541,-0.047 -2.093,0.005 -3.297,0.197 -1.213,0.194 -2.807,-0.077 -5.099,0.287 -1.213,0.193 -2.51,-0.385 -2.713,-2.151 -0.197,-1.74 0.708,-2.516 2.203,-2.526 1.494,-0.01 2.906,0.609 4.417,0.704 1.505,0.093 3.052,0.046 4.265,-0.047 1.38,-0.105 2.099,0.353 2.318,0.78 0.552,1.057 0.494,1.975 0.494,1.975"
     id="path172" />
  <path
     style="fill:none;stroke:#231f20;stroke-width:0.565977;stroke-linecap:butt;stroke-linejoin:miter;stroke-miterlimit:4;stroke-dasharray:none;stroke-opacity:1"
     d="m 203.1358,140.901 c -0.062,1.292 -2.041,0.822 -2.588,0.781 -0.541,-0.047 -2.093,0.005 -3.297,0.197 -1.213,0.194 -2.807,-0.077 -5.099,0.287 -1.213,0.193 -2.51,-0.385 -2.713,-2.151 -0.197,-1.74 0.708,-2.516 2.203,-2.526 1.494,-0.01 2.906,0.609 4.417,0.704 1.505,0.093 3.052,0.046 4.265,-0.047 1.38,-0.105 2.099,0.353 2.318,0.78 0.552,1.057 0.494,1.975 0.494,1.975 z"
     id="path173" />
  <path
     style="fill:#231f20;fill-opacity:1;fill-rule:nonzero;stroke:none"
     d="m 219.1218,140.026 c -0.662,0.287 -3.912,0.457 -4.658,0.468 -0.666,0.011 -1.754,0.385 -2.265,-0.656 -0.203,-0.416 -0.213,-1.172 -0.135,-1.479 0.067,-0.25 0.375,-0.36 0.776,-0.328 0.662,0.058 0.834,0.328 2.094,0.506 0,0 0.292,0.082 0.812,0.276 1.532,0.552 0.802,0.452 3.204,0.76 0.177,0.02 0.281,0.208 0.254,0.322 -0.041,0.172 -0.082,0.131 -0.082,0.131"
     id="path174" />
  <path
     style="fill:none;stroke:#231f20;stroke-width:0.565977;stroke-linecap:round;stroke-linejoin:round;stroke-miterlimit:4;stroke-dasharray:none;stroke-opacity:1"
     d="m 219.1218,140.026 c -0.662,0.287 -3.912,0.457 -4.658,0.468 -0.666,0.011 -1.754,0.385 -2.265,-0.656 -0.203,-0.416 -0.213,-1.172 -0.135,-1.479 0.067,-0.25 0.375,-0.36 0.776,-0.328 0.662,0.058 0.834,0.328 2.094,0.506 0,0 0.292,0.082 0.812,0.276 1.532,0.552 0.802,0.452 3.204,0.76 0.177,0.02 0.281,0.208 0.254,0.322 -0.041,0.172 -0.082,0.131 -0.082,0.131 z"
     id="path175" />
  <path
     style="fill:#231f20;fill-opacity:1;fill-rule:nonzero;stroke:none"
     d="m 201.8398,156.442 c -1.166,-1.937 -1.656,-2.156 -2.51,-1.719 -0.563,0.287 -1.194,0.37 -1.547,0.527 -1.177,0.541 -2.943,1.927 -6.912,7.181 -0.901,1.194 -2.177,2.855 -2.749,3.495 -0.907,1.005 1.38,1.833 1.738,1.439 1.167,-1.256 2.063,-2.032 2.547,-2.428 0.329,-0.271 0.849,-0.834 2.256,-1.719 2.14,-1.344 3.62,-1.833 5.265,-3.156 0.766,-0.62 1.735,-0.599 2.178,-1.583 0.448,-0.99 -0.266,-2.037 -0.266,-2.037"
     id="path176" />
  <path
     style="fill:none;stroke:#231f20;stroke-width:0.565977;stroke-linecap:butt;stroke-linejoin:miter;stroke-miterlimit:4;stroke-dasharray:none;stroke-opacity:1"
     d="m 201.8398,156.442 c -1.166,-1.937 -1.656,-2.156 -2.51,-1.719 -0.563,0.287 -1.194,0.37 -1.547,0.527 -1.177,0.541 -2.943,1.927 -6.912,7.181 -0.901,1.194 -2.177,2.855 -2.749,3.495 -0.907,1.005 1.38,1.833 1.738,1.439 1.167,-1.256 2.063,-2.032 2.547,-2.428 0.329,-0.271 0.849,-0.834 2.256,-1.719 2.14,-1.344 3.62,-1.833 5.265,-3.156 0.766,-0.62 1.735,-0.599 2.178,-1.583 0.448,-0.99 -0.266,-2.037 -0.266,-2.037 z"
     id="path177" />
  <path
     style="fill:#231f20;fill-opacity:1;fill-rule:nonzero;stroke:#231f20;stroke-width:0.565977;stroke-linecap:round;stroke-linejoin:miter;stroke-miterlimit:4;stroke-dasharray:none;stroke-opacity:1"
     d="m 201.0018,155.135 c -0.803,-1.084 -2.814,-0.854 -3.126,-0.958 -4.734,-1.64 -5.114,-1.636 -8.812,-2.626 -5.333,-1.432 -9.209,-1.598 -10.953,1.266 -1.177,1.942 -1.016,3.573 -0.224,4.625 0.88,1.161 3.749,2.532 6.192,0.989 l 1.715,-0.014 c 1.15,0.145 1.724,0.202 2.29,0.317 0.98,0.197 2.047,0.349 3.986,0.631 3.432,0.494 7.228,-0.106 7.228,-0.106 0.313,0.038 0.573,-0.052 0.797,-0.202"
     id="path178" />
  <path
     style="fill:#fab41d;fill-opacity:1;fill-rule:nonzero;stroke:none"
     d="m 178.1158,152.817 c -1.182,1.942 -1.021,3.573 -0.229,4.625 0.88,1.161 3.749,2.532 6.192,0.989 l 1.819,-7.598 c -3.704,-0.651 -6.407,-0.276 -7.782,1.984"
     id="path179" />
  <path
     style="fill:none;stroke:#231f20;stroke-width:0.565977;stroke-linecap:round;stroke-linejoin:round;stroke-miterlimit:4;stroke-dasharray:none;stroke-opacity:1"
     d="m 178.1158,152.817 c -1.182,1.942 -1.021,3.573 -0.229,4.625 0.88,1.161 3.749,2.532 6.192,0.989 l 1.819,-7.598 c -3.704,-0.651 -6.407,-0.276 -7.782,1.984 z"
     id="path180" />
  <path
     style="fill:#231f20;fill-opacity:1;fill-rule:nonzero;stroke:none"
     d="m 188.3028,169.655 c -1.083,-0.02 -0.864,-1.254 -0.667,-2.462 0.052,-0.308 0.068,-0.595 0.147,-0.891 0.296,-1.188 1.093,-1.871 3.12,0.333 0.077,0.078 1.952,1.203 2.536,1.427 2.776,1.073 2.979,0.26 2.776,1.073 -0.131,0.547 -0.636,0.572 -1.265,0.588 -0.85,0.032 -3.876,-0.145 -4.334,-0.134 -0.448,0 -2.313,0.066 -2.313,0.066"
     id="path181" />
  <path
     style="fill:none;stroke:#231f20;stroke-width:0.565977;stroke-linecap:butt;stroke-linejoin:miter;stroke-miterlimit:4;stroke-dasharray:none;stroke-opacity:1"
     d="m 188.3028,169.655 c -1.083,-0.02 -0.864,-1.254 -0.667,-2.462 0.052,-0.308 0.068,-0.595 0.147,-0.891 0.296,-1.188 1.093,-1.871 3.12,0.333 0.077,0.078 1.952,1.203 2.536,1.427 2.776,1.073 2.979,0.26 2.776,1.073 -0.131,0.547 -0.636,0.572 -1.265,0.588 -0.85,0.032 -3.876,-0.145 -4.334,-0.134 -0.448,0 -2.313,0.066 -2.313,0.066 z"
     id="path183" />
</svg>
