<?xml version="1.0" encoding="UTF-8" standalone="no"?>
<!-- Created with Inkscape (http://www.inkscape.org/) -->

<svg
   version="1.1"
   id="svg1"
   width="234.34225"
   height="116.24782"
   viewBox="0 0 234.34225 116.24782"
   sodipodi:docname="cell.svg"
   xmlns:inkscape="http://www.inkscape.org/namespaces/inkscape"
   xmlns:sodipodi="http://sodipodi.sourceforge.net/DTD/sodipodi-0.dtd"
   xmlns="http://www.w3.org/2000/svg"
   xmlns:svg="http://www.w3.org/2000/svg">
  <sodipodi:namedview
     id="namedview1"
     pagecolor="#ffffff"
     bordercolor="#000000"
     borderopacity="0.25"
     inkscape:showpageshadow="2"
     inkscape:pageopacity="0.0"
     inkscape:pagecheckerboard="0"
     inkscape:deskcolor="#d1d1d1">
    <inkscape:page
       x="0"
       y="0"
       inkscape:label="1"
       id="page1"
       width="234.34225"
       height="116.24782"
       margin="0"
       bleed="0" />
  </sodipodi:namedview>
  <defs
     id="defs1" />
  <path
     style="fill:#ffffff;fill-opacity:1;fill-rule:nonzero;stroke:none"
     d="m 21.20052,54.250932 c 0.135,-0.203 1.228,0.156 1.427,-0.328 0.197,-0.486 -0.427,-0.964 -0.527,-2.954 l -0.005,-0.016 c -0.015,-1.458 -0.63,-2.702 -1.744,-3.276 -1.844,-0.948 -4.391,0.323 -5.678,2.839 -1.286,2.516 -0.828,5.317 1.016,6.26 1.771,0.912 4.178,-0.219 5.511,-2.525"
     id="path361" />
  <path
     style="fill:none;stroke:#231f20;stroke-width:0.565977;stroke-linecap:butt;stroke-linejoin:miter;stroke-miterlimit:4;stroke-dasharray:none;stroke-opacity:1"
     d="m 21.20052,54.250932 c 0.135,-0.203 1.228,0.156 1.427,-0.328 0.197,-0.486 -0.427,-0.964 -0.527,-2.954 l -0.005,-0.016 c -0.015,-1.458 -0.63,-2.702 -1.744,-3.276 -1.844,-0.948 -4.391,0.323 -5.678,2.839 -1.286,2.516 -0.828,5.317 1.016,6.26 1.771,0.912 4.178,-0.219 5.511,-2.525 z"
     id="path362" />
  <path
     style="fill:#fab41d;fill-opacity:1;fill-rule:nonzero;stroke:none"
     d="m 8.58952,68.151932 c -1.504,2.744 -2.134,3.172 -2.858,3.739 -4.542,3.568 -2.703,5.729 0.03,6.641 3.219,1.068 4.355,1.516 6.844,-4.271 0.688,-1.604 4.147,-7.433 4.147,-7.433 1.52,-1.916 1.979,-4.599 1.317,-5.895 -0.698,-1.365 -0.521,-0.772 -1.401,-1.917 -0.839,-1.099 -2.864,-1.916 -3.959,-1.344 -1.052,0.552 -1.145,2.213 -1.593,4.599 -0.349,1.881 -2.527,5.881 -2.527,5.881"
     id="path363" />
  <path
     style="fill:none;stroke:#231f20;stroke-width:0.565977;stroke-linecap:butt;stroke-linejoin:miter;stroke-miterlimit:4;stroke-dasharray:none;stroke-opacity:1"
     d="m 8.58952,68.151932 c -1.504,2.744 -2.134,3.172 -2.858,3.739 -4.542,3.568 -2.703,5.729 0.03,6.641 3.219,1.068 4.355,1.516 6.844,-4.271 0.688,-1.604 4.147,-7.433 4.147,-7.433 1.52,-1.916 1.979,-4.599 1.317,-5.895 -0.698,-1.365 -0.521,-0.772 -1.401,-1.917 -0.839,-1.099 -2.864,-1.916 -3.959,-1.344 -1.052,0.552 -1.145,2.213 -1.593,4.599 -0.349,1.881 -2.527,5.881 -2.527,5.881 z"
     id="path364" />
  <path
     style="fill:#231f20;fill-opacity:1;fill-rule:nonzero;stroke:none"
     d="m 35.40252,57.291932 c -0.458,0.453 -2.401,0.584 -3.844,1.292 -0.973,0.484 -3.713,0.588 -4.65,1.145 -0.855,0.511 -1.292,0.656 -2.041,-0.224 -0.444,-0.52 -0.954,-1.806 -0.579,-2.156 0.869,-0.812 1.76,-1.136 2.817,-1.281 1.204,-0.161 4.511,-0.328 5.125,-0.301 1.522,0.066 2.12,-0.366 2.522,-0.386 0.765,-0.032 0.962,0.244 1.098,0.728 0.244,0.928 -0.448,1.183 -0.448,1.183"
     id="path365" />
  <path
     style="fill:none;stroke:#231f20;stroke-width:0.565977;stroke-linecap:butt;stroke-linejoin:miter;stroke-miterlimit:4;stroke-dasharray:none;stroke-opacity:1"
     d="m 35.40252,57.291932 c -0.458,0.453 -2.401,0.584 -3.844,1.292 -0.973,0.484 -3.713,0.588 -4.65,1.145 -0.855,0.511 -1.292,0.656 -2.041,-0.224 -0.444,-0.52 -0.954,-1.806 -0.579,-2.156 0.869,-0.812 1.76,-1.136 2.817,-1.281 1.204,-0.161 4.511,-0.328 5.125,-0.301 1.522,0.066 2.12,-0.366 2.522,-0.386 0.765,-0.032 0.962,0.244 1.098,0.728 0.244,0.928 -0.448,1.183 -0.448,1.183 z"
     id="path366" />
  <path
     style="fill:#231f20;fill-opacity:1;fill-rule:nonzero;stroke:none"
     d="m 26.53752,59.166932 c 0.131,1.281 -1.9,1.114 -2.442,1.152 -0.542,0.036 -2.072,0.312 -3.234,0.686 -1.172,0.371 -2.786,0.334 -5.005,1.032 -1.167,0.375 -2.537,-0.01 -2.995,-1.724 -0.453,-1.693 0.328,-2.589 1.802,-2.828 1.48,-0.229 2.969,0.176 4.474,0.052 1.506,-0.136 3.026,-0.406 4.214,-0.682 1.344,-0.308 2.125,0.041 2.405,0.432 0.704,0.969 0.781,1.88 0.781,1.88"
     id="path367" />
  <path
     style="fill:none;stroke:#231f20;stroke-width:0.565977;stroke-linecap:butt;stroke-linejoin:miter;stroke-miterlimit:4;stroke-dasharray:none;stroke-opacity:1"
     d="m 26.53752,59.166932 c 0.131,1.281 -1.9,1.114 -2.442,1.152 -0.542,0.036 -2.072,0.312 -3.234,0.686 -1.172,0.371 -2.786,0.334 -5.005,1.032 -1.167,0.375 -2.537,-0.01 -2.995,-1.724 -0.453,-1.693 0.328,-2.589 1.802,-2.828 1.48,-0.229 2.969,0.176 4.474,0.052 1.506,-0.136 3.026,-0.406 4.214,-0.682 1.344,-0.308 2.125,0.041 2.405,0.432 0.704,0.969 0.781,1.88 0.781,1.88 z"
     id="path368" />
  <path
     style="fill:#231f20;fill-opacity:1;fill-rule:nonzero;stroke:none"
     d="m 42.22052,55.942932 c -0.62,0.381 -3.802,1.032 -4.536,1.146 -0.656,0.11 -1.688,0.64 -2.339,-0.308 -0.265,-0.385 -0.385,-1.129 -0.349,-1.448 0.026,-0.254 0.317,-0.41 0.713,-0.437 0.667,-0.041 0.871,0.204 2.152,0.193 0,0 0.301,0.042 0.837,0.146 1.6,0.328 0.866,0.333 3.287,0.286 0.172,-0.005 0.303,0.167 0.292,0.282 -0.011,0.172 -0.057,0.14 -0.057,0.14"
     id="path369" />
  <path
     style="fill:none;stroke:#231f20;stroke-width:0.565977;stroke-linecap:round;stroke-linejoin:round;stroke-miterlimit:4;stroke-dasharray:none;stroke-opacity:1"
     d="m 42.22052,55.942932 c -0.62,0.381 -3.802,1.032 -4.536,1.146 -0.656,0.11 -1.688,0.64 -2.339,-0.308 -0.265,-0.385 -0.385,-1.129 -0.349,-1.448 0.026,-0.254 0.317,-0.41 0.713,-0.437 0.667,-0.041 0.871,0.204 2.152,0.193 0,0 0.301,0.042 0.837,0.146 1.6,0.328 0.866,0.333 3.287,0.286 0.172,-0.005 0.303,0.167 0.292,0.282 -0.011,0.172 -0.057,0.14 -0.057,0.14 z"
     id="path370" />
  <path
     style="fill:#231f20;fill-opacity:1;fill-rule:nonzero;stroke:none"
     d="m 8.64352,93.936932 c -2.016,-1.025 -2.548,-0.957 -3.043,-0.135 -0.323,0.547 -0.817,0.943 -1.031,1.266 -0.724,1.078 -1.484,3.188 -2.089,9.749998 -0.135,1.484 -0.343,3.567 -0.495,4.411 -0.238,1.339 2.142,0.833 2.24,0.313 0.328,-1.682 0.683,-2.818 0.88,-3.406 0.136,-0.407 0.282,-1.156 1.011,-2.651 1.109,-2.272 2.109,-3.469 2.807,-5.463998 0.329,-0.927 1.162,-1.417 1.021,-2.489 -0.145,-1.074 -1.301,-1.595 -1.301,-1.595"
     id="path371" />
  <path
     style="fill:none;stroke:#231f20;stroke-width:0.565977;stroke-linecap:butt;stroke-linejoin:miter;stroke-miterlimit:4;stroke-dasharray:none;stroke-opacity:1"
     d="m 8.64352,93.936932 c -2.016,-1.025 -2.548,-0.957 -3.043,-0.135 -0.323,0.547 -0.817,0.943 -1.031,1.266 -0.724,1.078 -1.484,3.188 -2.089,9.749998 -0.135,1.484 -0.343,3.567 -0.495,4.411 -0.238,1.339 2.142,0.833 2.24,0.313 0.328,-1.682 0.683,-2.818 0.88,-3.406 0.136,-0.407 0.282,-1.156 1.011,-2.651 1.109,-2.272 2.109,-3.469 2.807,-5.463998 0.329,-0.927 1.162,-1.417 1.021,-2.489 -0.145,-1.074 -1.301,-1.595 -1.301,-1.595 z"
     id="path372" />
  <path
     style="fill:#231f20;fill-opacity:1;fill-rule:nonzero;stroke:#231f20;stroke-width:0.565977;stroke-linecap:round;stroke-linejoin:miter;stroke-miterlimit:4;stroke-dasharray:none;stroke-opacity:1"
     d="m 9.43352,96.307932 c 0.959,-0.948 0.459,-2.907 0.522,-3.23 0.968,-4.912 0.912,-5.297 1.385,-9.084 0.688,-5.483 0.317,-9.347 -2.755,-10.681 -2.089,-0.901 -3.677,-0.516 -4.614,0.416 -1.032,1.027 -1.991,4.058 -0.126,6.266 l 0.244,1.693 c 0.022,1.167 0.043,1.745 0.006,2.317 -0.067,1 -0.067,2.073 -0.078,4.032 -0.021,3.473 1.094,7.145 1.094,7.145 0.01,0.318 0.13,0.568 0.312,0.766"
     id="path373" />
  <path
     style="fill:#fab41d;fill-opacity:1;fill-rule:nonzero;stroke:none"
     d="m 11.20052,76.484932 c -0.448,-1.49 -1.261,-2.584 -2.615,-3.172 -2.089,-0.901 -3.677,-0.521 -4.609,0.416 -1.037,1.027 -1.996,4.058 -0.131,6.271 l 7.771,0.756 c 0.027,-0.656 0.011,-1.265 -0.021,-1.855 0.021,-0.073 0.042,-0.15 0.073,-0.213 0.323,-0.735 0.041,-1.303 -0.468,-2.203"
     id="path374" />
  <path
     style="fill:none;stroke:#231f20;stroke-width:0.565977;stroke-linecap:round;stroke-linejoin:round;stroke-miterlimit:4;stroke-dasharray:none;stroke-opacity:1"
     d="m 11.20052,76.484932 c -0.448,-1.49 -1.261,-2.584 -2.615,-3.172 -2.089,-0.901 -3.677,-0.521 -4.609,0.416 -1.037,1.027 -1.996,4.058 -0.131,6.271 l 7.771,0.756 c 0.027,-0.656 0.011,-1.265 -0.021,-1.855 0.021,-0.073 0.042,-0.15 0.073,-0.213 0.323,-0.735 0.041,-1.303 -0.468,-2.203 z"
     id="path375" />
  <path
     style="fill:#231f20;fill-opacity:1;fill-rule:nonzero;stroke:none"
     d="m 0.66851996,111.93293 c -0.901,-0.605 -0.047,-1.527 0.77600004,-2.433 0.203,-0.234 0.38,-0.468 0.599,-0.672 0.896,-0.838 1.933,-0.984 2.448,1.964 0.016,0.114 0.989,2.068 1.36,2.573 1.754,2.411 2.364,1.833 1.754,2.411 -0.405,0.385 -0.844,0.13 -1.385,-0.192 -0.729,-0.443 -3.177,-2.219 -3.573,-2.464 -0.38,-0.24 -1.97900004,-1.187 -1.97900004,-1.187"
     id="path376" />
  <path
     style="fill:none;stroke:#231f20;stroke-width:0.565977;stroke-linecap:butt;stroke-linejoin:miter;stroke-miterlimit:4;stroke-dasharray:none;stroke-opacity:1"
     d="m 0.66851996,111.93293 c -0.901,-0.605 -0.047,-1.527 0.77600004,-2.433 0.203,-0.234 0.38,-0.468 0.599,-0.672 0.896,-0.838 1.933,-0.984 2.448,1.964 0.016,0.114 0.989,2.068 1.36,2.573 1.754,2.411 2.364,1.833 1.754,2.411 -0.405,0.385 -0.844,0.13 -1.385,-0.192 -0.729,-0.443 -3.177,-2.219 -3.573,-2.464 -0.38,-0.24 -1.97900004,-1.187 -1.97900004,-1.187 z"
     id="path378" />
  <path
     style="fill:#ffffff;fill-opacity:1;fill-rule:nonzero;stroke:none"
     d="m 229.73552,51.879932 c 0.036,-0.239 1.178,-0.38 1.156,-0.905 -0.03,-0.522 -0.802,-0.683 -1.734,-2.443 l -0.011,-0.016 c -0.635,-1.307 -1.719,-2.177 -2.973,-2.224 -2.074,-0.068 -3.839,2.161 -3.932,4.984 -0.09,2.824 1.514,5.167 3.588,5.24 1.989,0.068 3.682,-1.979 3.906,-4.636"
     id="path380" />
  <path
     style="fill:none;stroke:#231f20;stroke-width:0.565977;stroke-linecap:butt;stroke-linejoin:miter;stroke-miterlimit:4;stroke-dasharray:none;stroke-opacity:1"
     d="m 229.73552,51.879932 c 0.036,-0.239 1.178,-0.38 1.156,-0.905 -0.03,-0.522 -0.802,-0.683 -1.734,-2.443 l -0.011,-0.016 c -0.635,-1.307 -1.719,-2.177 -2.973,-2.224 -2.074,-0.068 -3.839,2.161 -3.932,4.984 -0.09,2.824 1.514,5.167 3.588,5.24 1.989,0.068 3.682,-1.979 3.906,-4.636 z"
     id="path381" />
  <path
     style="fill:#fab41d;fill-opacity:1;fill-rule:nonzero;stroke:none"
     d="m 225.24152,69.911932 c 0.082,3.131 -0.246,3.812 -0.584,4.667 -2.124,5.38 0.552,6.322 3.374,5.724 3.319,-0.703 4.522,-0.886 3.756,-7.136 -0.213,-1.734 -0.161,-8.506 -0.161,-8.506 0.349,-2.426 -0.609,-4.973 -1.833,-5.76 -1.298,-0.828 -0.844,-0.401 -2.183,-0.953 -1.271,-0.52 -3.432,-0.208 -4.093,0.839 -0.631,1.005 0.129,2.489 0.942,4.77 0.64,1.803 0.782,6.355 0.782,6.355"
     id="path382" />
  <path
     style="fill:none;stroke:#231f20;stroke-width:0.565977;stroke-linecap:butt;stroke-linejoin:miter;stroke-miterlimit:4;stroke-dasharray:none;stroke-opacity:1"
     d="m 225.24152,69.911932 c 0.082,3.131 -0.246,3.812 -0.584,4.667 -2.124,5.38 0.552,6.322 3.374,5.724 3.319,-0.703 4.522,-0.886 3.756,-7.136 -0.213,-1.734 -0.161,-8.506 -0.161,-8.506 0.349,-2.426 -0.609,-4.973 -1.833,-5.76 -1.298,-0.828 -0.844,-0.401 -2.183,-0.953 -1.271,-0.52 -3.432,-0.208 -4.093,0.839 -0.631,1.005 0.129,2.489 0.942,4.77 0.64,1.803 0.782,6.355 0.782,6.355 z"
     id="path383" />
  <path
     style="fill:#231f20;fill-opacity:1;fill-rule:nonzero;stroke:none"
     d="m 216.99052,41.900932 c 0.579,0.287 1.328,2.084 2.469,3.219 0.766,0.765 1.75,3.328 2.578,4.032 0.75,0.651 1.037,1.02 0.448,2.005 -0.348,0.588 -1.406,1.49 -1.854,1.244 -1.052,-0.557 -1.641,-1.301 -2.125,-2.254 -0.541,-1.084 -1.765,-4.167 -1.937,-4.751 -0.427,-1.463 -1.027,-1.891 -1.172,-2.271 -0.282,-0.702 -0.084,-0.984 0.338,-1.265 0.792,-0.536 1.255,0.041 1.255,0.041"
     id="path384" />
  <path
     style="fill:none;stroke:#231f20;stroke-width:0.565977;stroke-linecap:butt;stroke-linejoin:miter;stroke-miterlimit:4;stroke-dasharray:none;stroke-opacity:1"
     d="m 216.99052,41.900932 c 0.579,0.287 1.328,2.084 2.469,3.219 0.766,0.765 1.75,3.328 2.578,4.032 0.75,0.651 1.037,1.02 0.448,2.005 -0.348,0.588 -1.406,1.49 -1.854,1.244 -1.052,-0.557 -1.641,-1.301 -2.125,-2.254 -0.541,-1.084 -1.765,-4.167 -1.937,-4.751 -0.427,-1.463 -1.027,-1.891 -1.172,-2.271 -0.282,-0.702 -0.084,-0.984 0.338,-1.265 0.792,-0.536 1.255,0.041 1.255,0.041 z"
     id="path385" />
  <path
     style="fill:#231f20;fill-opacity:1;fill-rule:nonzero;stroke:none"
     d="m 221.62652,49.687932 c 1.177,-0.536 1.667,1.437 1.875,1.937 0.208,0.506 0.964,1.86 1.693,2.85 0.724,0.984 1.213,2.52 2.588,4.396 0.729,0.989 0.807,2.405 -0.667,3.396 -1.458,0.973 -2.562,0.525 -3.254,-0.798 -0.699,-1.328 -0.792,-2.865 -1.402,-4.25 -0.604,-1.38 -1.354,-2.734 -1.994,-3.771 -0.73,-1.177 -0.647,-2.025 -0.371,-2.416 0.693,-0.975 1.532,-1.344 1.532,-1.344"
     id="path386" />
  <path
     style="fill:none;stroke:#231f20;stroke-width:0.565977;stroke-linecap:butt;stroke-linejoin:miter;stroke-miterlimit:4;stroke-dasharray:none;stroke-opacity:1"
     d="m 221.62652,49.687932 c 1.177,-0.536 1.667,1.437 1.875,1.937 0.208,0.506 0.964,1.86 1.693,2.85 0.724,0.984 1.213,2.52 2.588,4.396 0.729,0.989 0.807,2.405 -0.667,3.396 -1.458,0.973 -2.562,0.525 -3.254,-0.798 -0.699,-1.328 -0.792,-2.865 -1.402,-4.25 -0.604,-1.38 -1.354,-2.734 -1.994,-3.771 -0.73,-1.177 -0.647,-2.025 -0.371,-2.416 0.693,-0.975 1.532,-1.344 1.532,-1.344 z"
     id="path387" />
  <path
     style="fill:#231f20;fill-opacity:1;fill-rule:nonzero;stroke:none"
     d="m 213.51752,35.875932 c 0.562,0.463 2.202,3.271 2.552,3.932 0.317,0.583 1.145,1.385 0.464,2.312 -0.282,0.371 -0.948,0.724 -1.262,0.797 -0.249,0.058 -0.489,-0.172 -0.645,-0.536 -0.256,-0.614 -0.089,-0.89 -0.511,-2.094 0,0 -0.057,-0.302 -0.13,-0.85 -0.208,-1.618 0.037,-0.926 -0.791,-3.197 -0.057,-0.161 0.061,-0.339 0.176,-0.369 0.172,-0.047 0.147,0.005 0.147,0.005"
     id="path388" />
  <path
     style="fill:none;stroke:#231f20;stroke-width:0.565977;stroke-linecap:round;stroke-linejoin:round;stroke-miterlimit:4;stroke-dasharray:none;stroke-opacity:1"
     d="m 213.51752,35.875932 c 0.562,0.463 2.202,3.271 2.552,3.932 0.317,0.583 1.145,1.385 0.464,2.312 -0.282,0.371 -0.948,0.724 -1.262,0.797 -0.249,0.058 -0.489,-0.172 -0.645,-0.536 -0.256,-0.614 -0.089,-0.89 -0.511,-2.094 0,0 -0.057,-0.302 -0.13,-0.85 -0.208,-1.618 0.037,-0.926 -0.791,-3.197 -0.057,-0.161 0.061,-0.339 0.176,-0.369 0.172,-0.047 0.147,0.005 0.147,0.005 z"
     id="path389" />
  <path
     style="fill:#231f20;fill-opacity:1;fill-rule:nonzero;stroke:none"
     d="m 227.67352,95.613932 c -2.23,-0.396 -2.719,-0.172 -2.948,0.762 -0.156,0.614 -0.506,1.14 -0.62,1.509 -0.37,1.245 -0.484,3.484998 0.86,9.932998 0.306,1.463 0.724,3.515 0.822,4.37 0.162,1.344 2.292,0.166 2.235,-0.364 -0.183,-1.704 -0.177,-2.891 -0.161,-3.511 0.009,-0.433 -0.068,-1.188 0.192,-2.833 0.39,-2.495 1,-3.934 1.084,-6.046998 0.041,-0.98 0.692,-1.693 0.244,-2.677 -0.454,-0.99 -1.708,-1.142 -1.708,-1.142"
     id="path390" />
  <path
     style="fill:none;stroke:#231f20;stroke-width:0.565977;stroke-linecap:butt;stroke-linejoin:miter;stroke-miterlimit:4;stroke-dasharray:none;stroke-opacity:1"
     d="m 227.67352,95.613932 c -2.23,-0.396 -2.719,-0.172 -2.948,0.762 -0.156,0.614 -0.506,1.14 -0.62,1.509 -0.37,1.245 -0.484,3.484998 0.86,9.932998 0.306,1.463 0.724,3.515 0.822,4.37 0.162,1.344 2.292,0.166 2.235,-0.364 -0.183,-1.704 -0.177,-2.891 -0.161,-3.511 0.009,-0.433 -0.068,-1.188 0.192,-2.833 0.39,-2.495 1,-3.934 1.084,-6.046998 0.041,-0.98 0.692,-1.693 0.244,-2.677 -0.454,-0.99 -1.708,-1.142 -1.708,-1.142 z"
     id="path391" />
  <path
     style="fill:#231f20;fill-opacity:1;fill-rule:nonzero;stroke:#231f20;stroke-width:0.565977;stroke-linecap:round;stroke-linejoin:miter;stroke-miterlimit:4;stroke-dasharray:none;stroke-opacity:1"
     d="m 229.12152,97.645932 c 1.025,-0.876 0.666,-2.865 0.749,-3.182 1.324,-4.834 1.292,-5.214 2.037,-8.964 1.078,-5.421 0.984,-9.301 -1.985,-10.848 -2.015,-1.048 -3.629,-0.781 -4.624,0.077 -1.109,0.959 -2.281,3.912 -0.584,6.251 l 0.131,1.703 c -0.068,1.166 -0.09,1.739 -0.167,2.311 -0.136,0.991 -0.213,2.063 -0.365,4.016 -0.271,3.459 0.578,7.208 0.578,7.208 -0.016,0.308 0.088,0.568 0.255,0.787"
     id="path392" />
  <path
     style="fill:#fab41d;fill-opacity:1;fill-rule:nonzero;stroke:none"
     d="m 232.30352,77.999932 c -0.338,-1.52 -1.073,-2.667 -2.381,-3.348 -2.015,-1.048 -3.629,-0.781 -4.624,0.077 -1.109,0.959 -2.281,3.912 -0.584,6.251 l 7.704,1.312 c 0.072,-0.656 0.099,-1.265 0.104,-1.849 0.031,-0.078 0.057,-0.151 0.088,-0.214 0.38,-0.708 0.136,-1.292 -0.307,-2.229"
     id="path393" />
  <path
     style="fill:none;stroke:#231f20;stroke-width:0.565977;stroke-linecap:round;stroke-linejoin:round;stroke-miterlimit:4;stroke-dasharray:none;stroke-opacity:1"
     d="m 232.30352,77.999932 c -0.338,-1.52 -1.073,-2.667 -2.381,-3.348 -2.015,-1.048 -3.629,-0.781 -4.624,0.077 -1.109,0.959 -2.281,3.912 -0.584,6.251 l 7.704,1.312 c 0.072,-0.656 0.099,-1.265 0.104,-1.849 0.031,-0.078 0.057,-0.151 0.088,-0.214 0.38,-0.708 0.136,-1.292 -0.307,-2.229 z"
     id="path394" />
  <path
     style="fill:#231f20;fill-opacity:1;fill-rule:nonzero;stroke:none"
     d="m 226.06352,115.41693 c -1.078,-0.057 -0.817,-1.281 -0.578,-2.484 0.062,-0.308 0.089,-0.595 0.172,-0.885 0.338,-1.178 1.156,-1.835 3.109,0.437 0.073,0.088 1.912,1.271 2.485,1.515 2.739,1.172 2.968,0.365 2.739,1.172 -0.145,0.537 -0.656,0.546 -1.281,0.542 -0.854,0 -3.87,-0.277 -4.334,-0.286 -0.448,-0.016 -2.312,-0.011 -2.312,-0.011"
     id="path395" />
  <path
     style="fill:none;stroke:#231f20;stroke-width:0.565977;stroke-linecap:butt;stroke-linejoin:miter;stroke-miterlimit:4;stroke-dasharray:none;stroke-opacity:1"
     d="m 226.06352,115.41693 c -1.078,-0.057 -0.817,-1.281 -0.578,-2.484 0.062,-0.308 0.089,-0.595 0.172,-0.885 0.338,-1.178 1.156,-1.835 3.109,0.437 0.073,0.088 1.912,1.271 2.485,1.515 2.739,1.172 2.968,0.365 2.739,1.172 -0.145,0.537 -0.656,0.546 -1.281,0.542 -0.854,0 -3.87,-0.277 -4.334,-0.286 -0.448,-0.016 -2.312,-0.011 -2.312,-0.011 z"
     id="path397" />
  <path
     style="fill:#ffffff;fill-opacity:1;fill-rule:nonzero;stroke:none"
     d="m 179.72552,14.979932 c 0.005,-0.2453 1.12,-0.5267 1.026,-1.0427 -0.089,-0.5146 -0.876,-0.5826 -2.026,-2.2026 l -0.011,-0.02 c -0.796,-1.2147 -1.984,-1.944 -3.235,-1.824 -2.061,0.1933 -3.525,2.6306 -3.26,5.4426 0.266,2.8134 2.151,4.9334 4.219,4.74 1.98,-0.188 3.407,-2.432 3.287,-5.0933"
     id="path399" />
  <path
     style="fill:none;stroke:#231f20;stroke-width:0.565977;stroke-linecap:butt;stroke-linejoin:miter;stroke-miterlimit:4;stroke-dasharray:none;stroke-opacity:1"
     d="m 179.72552,14.979932 c 0.005,-0.2453 1.12,-0.5267 1.026,-1.0427 -0.089,-0.5146 -0.876,-0.5826 -2.026,-2.2026 l -0.011,-0.02 c -0.796,-1.2147 -1.984,-1.944 -3.235,-1.824 -2.061,0.1933 -3.525,2.6306 -3.26,5.4426 0.266,2.8134 2.151,4.9334 4.219,4.74 1.98,-0.188 3.407,-2.432 3.287,-5.0933 z"
     id="path400" />
  <path
     style="fill:#fab41d;fill-opacity:1;fill-rule:nonzero;stroke:none"
     d="m 174.65152,34.296932 c 0.158,3.126 -0.15,3.818 -0.468,4.683 -2,5.421 0.703,6.301 3.511,5.635 3.301,-0.782 4.5,-0.995 3.583,-7.224 -0.26,-1.73 -0.37,-8.506 -0.37,-8.506 0.287,-2.4264 -0.729,-4.9477 -1.969,-5.7024 -1.317,-0.7973 -0.853,-0.3906 -2.203,-0.9013 -1.286,-0.4946 -3.442,-0.1293 -4.073,0.9373 -0.609,1.016 0.188,2.48 1.057,4.7454 0.683,1.781 0.932,6.333 0.932,6.333"
     id="path401" />
  <path
     style="fill:none;stroke:#231f20;stroke-width:0.565977;stroke-linecap:butt;stroke-linejoin:miter;stroke-miterlimit:4;stroke-dasharray:none;stroke-opacity:1"
     d="m 174.65152,34.296932 c 0.158,3.126 -0.15,3.818 -0.468,4.683 -2,5.421 0.703,6.301 3.511,5.635 3.301,-0.782 4.5,-0.995 3.583,-7.224 -0.26,-1.73 -0.37,-8.506 -0.37,-8.506 0.287,-2.4264 -0.729,-4.9477 -1.969,-5.7024 -1.317,-0.7973 -0.853,-0.3906 -2.203,-0.9013 -1.286,-0.4946 -3.442,-0.1293 -4.073,0.9373 -0.609,1.016 0.188,2.48 1.057,4.7454 0.683,1.781 0.932,6.333 0.932,6.333 z"
     id="path402" />
  <path
     style="fill:#231f20;fill-opacity:1;fill-rule:nonzero;stroke:none"
     d="m 180.77152,33.750932 c -0.489,0.426 -2.432,0.437 -3.916,1.068 -0.994,0.416 -3.745,0.364 -4.709,0.858 -0.885,0.459 -1.333,0.579 -2.025,-0.344 -0.412,-0.541 -0.844,-1.864 -0.454,-2.186 0.922,-0.756 1.828,-1.027 2.896,-1.115 1.208,-0.089 4.522,-0.057 5.131,0.005 1.509,0.156 2.135,-0.234 2.547,-0.229 0.76,0 0.942,0.296 1.046,0.792 0.192,0.937 -0.516,1.151 -0.516,1.151"
     id="path403" />
  <path
     style="fill:none;stroke:#231f20;stroke-width:0.565977;stroke-linecap:butt;stroke-linejoin:miter;stroke-miterlimit:4;stroke-dasharray:none;stroke-opacity:1"
     d="m 180.77152,33.750932 c -0.489,0.426 -2.432,0.437 -3.916,1.068 -0.994,0.416 -3.745,0.364 -4.709,0.858 -0.885,0.459 -1.333,0.579 -2.025,-0.344 -0.412,-0.541 -0.844,-1.864 -0.454,-2.186 0.922,-0.756 1.828,-1.027 2.896,-1.115 1.208,-0.089 4.522,-0.057 5.131,0.005 1.509,0.156 2.135,-0.234 2.547,-0.229 0.76,0 0.942,0.296 1.046,0.792 0.192,0.937 -0.516,1.151 -0.516,1.151 z"
     id="path404" />
  <path
     style="fill:#231f20;fill-opacity:1;fill-rule:nonzero;stroke:none"
     d="m 170.02752,34.656932 c -1.172,-0.557 0.026,-2.204 0.276,-2.688 0.25,-0.478 0.796,-1.932 1.083,-3.12 0.292,-1.192 1.156,-2.557 1.703,-4.817 0.286,-1.1933 1.318,-2.1613 3.021,-1.672 1.688,0.484 2.052,1.6146 1.489,3 -0.568,1.3853 -1.681,2.448 -2.348,3.807 -0.666,1.36 -1.22,2.797 -1.6,3.953 -0.437,1.317 -1.134,1.803 -1.614,1.844 -1.187,0.099 -2.01,-0.307 -2.01,-0.307"
     id="path405" />
  <path
     style="fill:none;stroke:#231f20;stroke-width:0.565977;stroke-linecap:butt;stroke-linejoin:miter;stroke-miterlimit:4;stroke-dasharray:none;stroke-opacity:1"
     d="m 170.02752,34.656932 c -1.172,-0.557 0.026,-2.204 0.276,-2.688 0.25,-0.478 0.796,-1.932 1.083,-3.12 0.292,-1.192 1.156,-2.557 1.703,-4.817 0.286,-1.1933 1.318,-2.1613 3.021,-1.672 1.688,0.484 2.052,1.6146 1.489,3 -0.568,1.3853 -1.681,2.448 -2.348,3.807 -0.666,1.36 -1.22,2.797 -1.6,3.953 -0.437,1.317 -1.134,1.803 -1.614,1.844 -1.187,0.099 -2.01,-0.307 -2.01,-0.307 z"
     id="path406" />
  <path
     style="fill:#231f20;fill-opacity:1;fill-rule:nonzero;stroke:none"
     d="m 187.65152,32.807932 c -0.634,0.344 -3.853,0.801 -4.593,0.88 -0.661,0.068 -1.724,0.536 -2.317,-0.448 -0.24,-0.401 -0.319,-1.151 -0.266,-1.469 0.047,-0.255 0.348,-0.386 0.744,-0.39 0.667,-0.005 0.855,0.25 2.136,0.312 0,0 0.291,0.063 0.828,0.203 1.578,0.423 0.839,0.38 3.266,0.48 0.172,0.005 0.286,0.181 0.27,0.296 -0.021,0.177 -0.068,0.136 -0.068,0.136"
     id="path407" />
  <path
     style="fill:none;stroke:#231f20;stroke-width:0.565977;stroke-linecap:round;stroke-linejoin:round;stroke-miterlimit:4;stroke-dasharray:none;stroke-opacity:1"
     d="m 187.65152,32.807932 c -0.634,0.344 -3.853,0.801 -4.593,0.88 -0.661,0.068 -1.724,0.536 -2.317,-0.448 -0.24,-0.401 -0.319,-1.151 -0.266,-1.469 0.047,-0.255 0.348,-0.386 0.744,-0.39 0.667,-0.005 0.855,0.25 2.136,0.312 0,0 0.291,0.063 0.828,0.203 1.578,0.423 0.839,0.38 3.266,0.48 0.172,0.005 0.286,0.181 0.27,0.296 -0.021,0.177 -0.068,0.136 -0.068,0.136 z"
     id="path408" />
  <path
     style="fill:#231f20;fill-opacity:1;fill-rule:nonzero;stroke:none"
     d="m 193.50652,49.375932 c -2.255,0.176 -2.672,0.52 -2.661,1.473 0.005,0.642 -0.203,1.235 -0.219,1.62 -0.047,1.298 0.405,3.495 3.328,9.396 0.667,1.339 1.583,3.224 1.901,4.02 0.49,1.267 2.255,-0.41 2.063,-0.91 -0.605,-1.599 -0.896,-2.756 -1.037,-3.36 -0.094,-0.416 -0.364,-1.13 -0.526,-2.787 -0.25,-2.515 -0.021,-4.057 -0.469,-6.124 -0.208,-0.964 0.245,-1.813 -0.443,-2.656 -0.682,-0.839 -1.937,-0.672 -1.937,-0.672"
     id="path409" />
  <path
     style="fill:none;stroke:#231f20;stroke-width:0.565977;stroke-linecap:butt;stroke-linejoin:miter;stroke-miterlimit:4;stroke-dasharray:none;stroke-opacity:1"
     d="m 193.50652,49.375932 c -2.255,0.176 -2.672,0.52 -2.661,1.473 0.005,0.642 -0.203,1.235 -0.219,1.62 -0.047,1.298 0.405,3.495 3.328,9.396 0.667,1.339 1.583,3.224 1.901,4.02 0.49,1.267 2.255,-0.41 2.063,-0.91 -0.605,-1.599 -0.896,-2.756 -1.037,-3.36 -0.094,-0.416 -0.364,-1.13 -0.526,-2.787 -0.25,-2.515 -0.021,-4.057 -0.469,-6.124 -0.208,-0.964 0.245,-1.813 -0.443,-2.656 -0.682,-0.839 -1.937,-0.672 -1.937,-0.672 z"
     id="path410" />
  <path
     style="fill:#231f20;fill-opacity:1;fill-rule:nonzero;stroke:#231f20;stroke-width:0.565977;stroke-linecap:round;stroke-linejoin:miter;stroke-miterlimit:4;stroke-dasharray:none;stroke-opacity:1"
     d="m 195.51152,50.375932 c -0.286,-1.313 -2.208,-1.939 -2.448,-2.163 -3.636,-3.452 -3.984,-3.609 -6.932,-6.041 -4.265,-3.515 -7.724,-5.265 -10.5,-3.38 -1.876,1.281 -2.406,2.828 -2.12,4.109 0.323,1.427 2.37,3.86 5.23,3.47 l 1.562,0.697 c 0.99,0.609 1.49,0.896 1.958,1.235 0.813,0.593 1.718,1.166 3.365,2.224 2.921,1.874 6.625,2.901 6.625,2.901 0.266,0.161 0.542,0.192 0.812,0.145"
     id="path411" />
  <path
     style="fill:#fab41d;fill-opacity:1;fill-rule:nonzero;stroke:none"
     d="m 175.63152,38.791932 c -1.876,1.281 -2.406,2.828 -2.12,4.109 0.318,1.427 2.37,3.86 5.23,3.47 l 4.801,-6.162 c -3.104,-2.125 -5.719,-2.906 -7.911,-1.417"
     id="path412" />
  <path
     style="fill:none;stroke:#231f20;stroke-width:0.565977;stroke-linecap:round;stroke-linejoin:round;stroke-miterlimit:4;stroke-dasharray:none;stroke-opacity:1"
     d="m 175.63152,38.791932 c -1.876,1.281 -2.406,2.828 -2.12,4.109 0.318,1.427 2.37,3.86 5.23,3.47 l 4.801,-6.162 c -3.104,-2.125 -5.719,-2.906 -7.911,-1.417 z"
     id="path413" />
  <path
     style="fill:#fab41d;fill-opacity:1;fill-rule:nonzero;stroke:none"
     d="m 74.058518,28.979932 c -3.082,0.604 -5.24,1.489 -6.125,1.744 -3.067,0.88 -4.853,2.808 -3.791,5.485 1.239,3.151 4.026,3.562 7.974,2.239 1.672,-0.563 5.636,-0.891 5.636,-0.891 3.244,0.136 4.812,-1 5.254,-1.776 0.755,-1.333 2.916,-2.29 3.104,-3.724 0.334,-2.656 -0.38,-3.525 -1.516,-3.896 -1.129,-0.369 -2.39,-0.113 -4.817,-0.014 -2.323,0.093 -5.719,0.833 -5.719,0.833"
     id="path414" />
  <path
     style="fill:none;stroke:#231f20;stroke-width:0.565977;stroke-linecap:butt;stroke-linejoin:miter;stroke-miterlimit:4;stroke-dasharray:none;stroke-opacity:1"
     d="m 74.058518,28.979932 c -3.082,0.604 -5.24,1.489 -6.125,1.744 -3.067,0.88 -4.853,2.808 -3.791,5.485 1.239,3.151 4.026,3.562 7.974,2.239 1.672,-0.563 5.636,-0.891 5.636,-0.891 3.244,0.136 4.812,-1 5.254,-1.776 0.755,-1.333 2.916,-2.29 3.104,-3.724 0.334,-2.656 -0.38,-3.525 -1.516,-3.896 -1.129,-0.369 -2.39,-0.113 -4.817,-0.014 -2.323,0.093 -5.719,0.833 -5.719,0.833 z"
     id="path415" />
  <path
     style="fill:#ffffff;fill-opacity:1;fill-rule:nonzero;stroke:none"
     d="m 90.804518,34.791932 c 0.233,0.084 0.114,1.229 0.629,1.323 0.516,0.094 0.844,-0.63 2.767,-1.14 l 0.025,-0.011 c 1.412,-0.328 2.511,-1.193 2.823,-2.412 0.526,-2.005 -1.26,-4.213 -3.984,-4.937 -2.735,-0.7137 -5.375,0.333 -5.907,2.338 -0.511,1.923 1.109,4.038 3.647,4.839"
     id="path416" />
  <path
     style="fill:none;stroke:#231f20;stroke-width:0.565977;stroke-linecap:butt;stroke-linejoin:miter;stroke-miterlimit:4;stroke-dasharray:none;stroke-opacity:1"
     d="m 90.804518,34.791932 c 0.233,0.084 0.114,1.229 0.629,1.323 0.516,0.094 0.844,-0.63 2.767,-1.14 l 0.025,-0.011 c 1.412,-0.328 2.511,-1.193 2.823,-2.412 0.526,-2.005 -1.26,-4.213 -3.984,-4.937 -2.735,-0.7137 -5.375,0.333 -5.907,2.338 -0.511,1.923 1.109,4.038 3.647,4.839 z"
     id="path417" />
  <path
     style="fill:#231f20;fill-opacity:1;fill-rule:nonzero;stroke:none"
     d="m 73.605518,50.974932 c -1.625,-1.574 -2.151,-1.656 -2.864,-1.011 -0.475,0.427 -1.057,0.656 -1.355,0.907 -1.01,0.817 -2.358,2.62 -4.849,8.718 -0.561,1.37 -1.369,3.307 -1.765,4.072 -0.61,1.21 1.813,1.423 2.062,0.939 0.803,-1.511 1.47,-2.48 1.828,-2.991 0.251,-0.348 0.604,-1.02 1.74,-2.244 1.73,-1.844 3.031,-2.704 4.287,-4.406 0.583,-0.787 1.52,-1.011 1.692,-2.083 0.183,-1.068 -0.776,-1.901 -0.776,-1.901"
     id="path418" />
  <path
     style="fill:none;stroke:#231f20;stroke-width:0.565977;stroke-linecap:butt;stroke-linejoin:miter;stroke-miterlimit:4;stroke-dasharray:none;stroke-opacity:1"
     d="m 73.605518,50.974932 c -1.625,-1.574 -2.151,-1.656 -2.864,-1.011 -0.475,0.427 -1.057,0.656 -1.355,0.907 -1.01,0.817 -2.358,2.62 -4.849,8.718 -0.561,1.37 -1.369,3.307 -1.765,4.072 -0.61,1.21 1.813,1.423 2.062,0.939 0.803,-1.511 1.47,-2.48 1.828,-2.991 0.251,-0.348 0.604,-1.02 1.74,-2.244 1.73,-1.844 3.031,-2.704 4.287,-4.406 0.583,-0.787 1.52,-1.011 1.692,-2.083 0.183,-1.068 -0.776,-1.901 -0.776,-1.901 z"
     id="path419" />
  <path
     style="fill:#231f20;fill-opacity:1;fill-rule:nonzero;stroke:#231f20;stroke-width:0.565977;stroke-linecap:round;stroke-linejoin:round;stroke-miterlimit:4;stroke-dasharray:none;stroke-opacity:1"
     d="m 74.037518,53.463932 c 0.844,-1.14 -0.192,-3.031 -0.208,-3.364 -0.26,-5.011 -0.407,-5.365 -0.869,-9.157 -0.672,-5.49 -1.98,-9.146 -5.287,-9.692 -2.24,-0.36 -3.693,0.406 -4.369,1.53 -0.746,1.256 -0.934,4.428 1.405,6.115 l 0.652,1.589 c 0.301,1.119 0.463,1.676 0.572,2.234 0.177,0.985 0.437,2.032 0.907,3.938 0.833,3.37 2.802,6.667 2.802,6.667 0.088,0.296 0.266,0.509 0.49,0.667"
     id="path420" />
  <path
     style="fill:#fab41d;fill-opacity:1;fill-rule:nonzero;stroke:none"
     d="m 67.694518,31.140932 c -2.24,-0.374 -3.698,0.375 -4.376,1.506 -0.754,1.249 -0.957,4.426 1.38,6.12 l 7.73,-1.136 c -0.771,-3.683 -2.124,-6.058 -4.734,-6.49"
     id="path421" />
  <path
     style="fill:none;stroke:#231f20;stroke-width:0.565977;stroke-linecap:butt;stroke-linejoin:miter;stroke-miterlimit:4;stroke-dasharray:none;stroke-opacity:1"
     d="m 67.694518,31.140932 c -2.24,-0.374 -3.698,0.375 -4.376,1.506 -0.754,1.249 -0.957,4.426 1.38,6.12 l 7.73,-1.136 c -0.771,-3.683 -2.124,-6.058 -4.734,-6.49 z"
     id="path422" />
  <path
     style="fill:#231f20;fill-opacity:1;fill-rule:nonzero;stroke:none"
     d="m 86.662518,51.318932 c -0.473,-0.434 -0.702,-2.371 -1.494,-3.772 -0.526,-0.947 -0.771,-3.682 -1.37,-4.588 -0.552,-0.834 -0.724,-1.255 0.115,-2.042 0.5,-0.474 1.755,-1.052 2.124,-0.693 0.855,0.828 1.219,1.699 1.423,2.745 0.229,1.198 0.562,4.49 0.568,5.099 0.009,1.527 0.468,2.099 0.514,2.505 0.074,0.76 -0.202,0.97 -0.676,1.136 -0.917,0.296 -1.204,-0.39 -1.204,-0.39"
     id="path423" />
  <path
     style="fill:none;stroke:#231f20;stroke-width:0.565977;stroke-linecap:butt;stroke-linejoin:miter;stroke-miterlimit:4;stroke-dasharray:none;stroke-opacity:1"
     d="m 86.662518,51.318932 c -0.473,-0.434 -0.702,-2.371 -1.494,-3.772 -0.526,-0.947 -0.771,-3.682 -1.37,-4.588 -0.552,-0.834 -0.724,-1.255 0.115,-2.042 0.5,-0.474 1.755,-1.052 2.124,-0.693 0.855,0.828 1.219,1.699 1.423,2.745 0.229,1.198 0.562,4.49 0.568,5.099 0.009,1.527 0.468,2.099 0.514,2.505 0.074,0.76 -0.202,0.97 -0.676,1.136 -0.917,0.296 -1.204,-0.39 -1.204,-0.39 z"
     id="path424" />
  <path
     style="fill:#231f20;fill-opacity:1;fill-rule:nonzero;stroke:none"
     d="m 84.137518,42.370932 c -1.287,0.166 -1.177,-1.866 -1.229,-2.402 -0.047,-0.546 -0.371,-2.068 -0.782,-3.218 -0.406,-1.162 -0.417,-2.776 -1.188,-4.97 -0.401,-1.15 -0.062,-2.536 1.636,-3.046 1.682,-0.506 2.604,0.245 2.88,1.718 0.276,1.47 -0.089,2.964 0.094,4.47 0.166,1.505 0.489,3.014 0.802,4.192 0.344,1.338 0.026,2.125 -0.36,2.412 -0.942,0.734 -1.853,0.844 -1.853,0.844"
     id="path425" />
  <path
     style="fill:none;stroke:#231f20;stroke-width:0.565977;stroke-linecap:butt;stroke-linejoin:miter;stroke-miterlimit:4;stroke-dasharray:none;stroke-opacity:1"
     d="m 84.137518,42.370932 c -1.287,0.166 -1.177,-1.866 -1.229,-2.402 -0.047,-0.546 -0.371,-2.068 -0.782,-3.218 -0.406,-1.162 -0.417,-2.776 -1.188,-4.97 -0.401,-1.15 -0.062,-2.536 1.636,-3.046 1.682,-0.506 2.604,0.245 2.88,1.718 0.276,1.47 -0.089,2.964 0.094,4.47 0.166,1.505 0.489,3.014 0.802,4.192 0.344,1.338 0.026,2.125 -0.36,2.412 -0.942,0.734 -1.853,0.844 -1.853,0.844 z"
     id="path426" />
  <path
     style="fill:#231f20;fill-opacity:1;fill-rule:nonzero;stroke:none"
     d="m 89.017518,57.422932 c -0.495,-0.552 -1.688,-3.574 -1.928,-4.276 -0.213,-0.631 -0.916,-1.543 -0.083,-2.35 0.318,-0.338 1.036,-0.578 1.35,-0.598 0.265,-0.022 0.457,0.244 0.546,0.625 0.167,0.645 -0.036,0.9 0.198,2.151 0,0 0.01,0.306 -0.015,0.853 -0.037,1.631 -0.167,0.907 0.291,3.287 0.042,0.166 -0.104,0.318 -0.219,0.338 -0.181,0.016 -0.14,-0.03 -0.14,-0.03"
     id="path427" />
  <path
     style="fill:none;stroke:#231f20;stroke-width:0.565977;stroke-linecap:round;stroke-linejoin:round;stroke-miterlimit:4;stroke-dasharray:none;stroke-opacity:1"
     d="m 89.017518,57.422932 c -0.495,-0.552 -1.688,-3.574 -1.928,-4.276 -0.213,-0.631 -0.916,-1.543 -0.083,-2.35 0.318,-0.338 1.036,-0.578 1.35,-0.598 0.265,-0.022 0.457,0.244 0.546,0.625 0.167,0.645 -0.036,0.9 0.198,2.151 0,0 0.01,0.306 -0.015,0.853 -0.037,1.631 -0.167,0.907 0.291,3.287 0.042,0.166 -0.104,0.318 -0.219,0.338 -0.181,0.016 -0.14,-0.03 -0.14,-0.03 z"
     id="path428" />
  <path
     style="fill:#231f20;fill-opacity:1;fill-rule:nonzero;stroke:none"
     d="m 60.908518,65.390932 c -0.355,-1.307 0.442,-1.896 1.478,-1.818 0.308,0.027 0.599,-0.281 0.902,-0.24 0.692,0.115 1.672,1.558 0.672,2.683 -0.074,0.073 -0.407,0.823 -0.74,1.349 -0.667,1.011 -2.479,2.73 -5.178,2.63 -1.27,-0.052 -1.005,-0.796 -0.489,-0.932 1.656,-0.432 1.719,-0.796 2.115,-1.072 1.333,-0.918 1.24,-2.6 1.24,-2.6"
     id="path429" />
  <path
     style="fill:none;stroke:#231f20;stroke-width:0.332927;stroke-linecap:butt;stroke-linejoin:miter;stroke-miterlimit:4;stroke-dasharray:none;stroke-opacity:1"
     d="m 60.908518,65.390932 c -0.355,-1.307 0.442,-1.896 1.478,-1.818 0.308,0.027 0.599,-0.281 0.902,-0.24 0.692,0.115 1.672,1.558 0.672,2.683 -0.074,0.073 -0.407,0.823 -0.74,1.349 -0.667,1.011 -2.479,2.73 -5.178,2.63 -1.27,-0.052 -1.005,-0.796 -0.489,-0.932 1.656,-0.432 1.719,-0.796 2.115,-1.072 1.333,-0.918 1.24,-2.6 1.24,-2.6 z"
     id="path430" />
  <path
     style="fill:#fab41d;fill-opacity:1;fill-rule:nonzero;stroke:none"
     d="m 137.58552,27.635932 c 1.989,-2.4227 3.088,-4.484 3.609,-5.2453 1.802,-2.6294 1.952,-5.2494 -0.573,-6.64 -2.964,-1.636 -5.375,-0.1827 -7.568,3.3533 -0.932,1.5 -3.776,4.2813 -3.776,4.2813 -2.583,1.9587 -3.401,2.772 -3.76,5.7187 -0.183,1.521 0.057,2.625 0.823,3.844 1.437,2.261 2.541,2.475 3.65,2.043 1.104,-0.439 1.918,-1.439 3.724,-3.063 1.73,-1.552 3.871,-4.292 3.871,-4.292"
     id="path431" />
  <path
     style="fill:none;stroke:#231f20;stroke-width:0.565977;stroke-linecap:butt;stroke-linejoin:miter;stroke-miterlimit:4;stroke-dasharray:none;stroke-opacity:1"
     d="m 137.58552,27.635932 c 1.989,-2.4227 3.088,-4.484 3.609,-5.2453 1.802,-2.6294 1.952,-5.2494 -0.573,-6.64 -2.964,-1.636 -5.375,-0.1827 -7.568,3.3533 -0.932,1.5 -3.776,4.2813 -3.776,4.2813 -2.583,1.9587 -3.401,2.772 -3.76,5.7187 -0.183,1.521 0.057,2.625 0.823,3.844 1.437,2.261 2.541,2.475 3.65,2.043 1.104,-0.439 1.918,-1.439 3.724,-3.063 1.73,-1.552 3.871,-4.292 3.871,-4.292 z"
     id="path432" />
  <path
     style="fill:#ffffff;fill-opacity:1;fill-rule:nonzero;stroke:none"
     d="m 120.98552,33.832932 c -0.229,0.084 -0.875,-0.874 -1.328,-0.62 -0.457,0.262 -0.249,1.027 -1.401,2.647 l -0.015,0.016 c -0.88,1.161 -1.172,2.525 -0.641,3.661 0.876,1.886 3.652,2.448 6.213,1.266 2.563,-1.188 3.928,-3.683 3.063,-5.568 -0.828,-1.802 -3.427,-2.396 -5.891,-1.402"
     id="path433" />
  <path
     style="fill:none;stroke:#231f20;stroke-width:0.565977;stroke-linecap:butt;stroke-linejoin:miter;stroke-miterlimit:4;stroke-dasharray:none;stroke-opacity:1"
     d="m 120.98552,33.832932 c -0.229,0.084 -0.875,-0.874 -1.328,-0.62 -0.457,0.262 -0.249,1.027 -1.401,2.647 l -0.015,0.016 c -0.88,1.161 -1.172,2.525 -0.641,3.661 0.876,1.886 3.652,2.448 6.213,1.266 2.563,-1.188 3.928,-3.683 3.063,-5.568 -0.828,-1.802 -3.427,-2.396 -5.891,-1.402 z"
     id="path434" />
  <path
     style="fill:#231f20;fill-opacity:1;fill-rule:nonzero;stroke:none"
     d="m 118.48552,16.942632 c 1.219,1.9066 1.715,2.1093 2.552,1.6466 0.557,-0.3133 1.183,-0.4013 1.527,-0.5733 1.166,-0.5627 2.896,-2.0107 6.713,-7.3747 0.86,-1.2133 2.088,-2.9066 2.651,-3.5626 0.87,-1.0413 -1.443,-1.7973 -1.791,-1.3907 -1.125,1.292 -2,2.0827 -2.464,2.4947 -0.323,0.2867 -0.823,0.86 -2.208,1.792 -2.104,1.396 -3.568,1.932 -5.177,3.3013 -0.751,0.636 -1.714,0.6413 -2.126,1.6413 -0.426,1 0.323,2.0254 0.323,2.0254"
     id="path435" />
  <path
     style="fill:none;stroke:#231f20;stroke-width:0.565977;stroke-linecap:butt;stroke-linejoin:miter;stroke-miterlimit:4;stroke-dasharray:none;stroke-opacity:1"
     d="m 118.48552,16.942632 c 1.219,1.9066 1.715,2.1093 2.552,1.6466 0.557,-0.3133 1.183,-0.4013 1.527,-0.5733 1.166,-0.5627 2.896,-2.0107 6.713,-7.3747 0.86,-1.2133 2.088,-2.9066 2.651,-3.5626 0.87,-1.0413 -1.443,-1.7973 -1.791,-1.3907 -1.125,1.292 -2,2.0827 -2.464,2.4947 -0.323,0.2867 -0.823,0.86 -2.208,1.792 -2.104,1.396 -3.568,1.932 -5.177,3.3013 -0.751,0.636 -1.714,0.6413 -2.126,1.6413 -0.426,1 0.323,2.0254 0.323,2.0254 z"
     id="path436" />
  <path
     style="fill:#231f20;fill-opacity:1;fill-rule:nonzero;stroke:#231f20;stroke-width:0.565977;stroke-linecap:round;stroke-linejoin:round;stroke-miterlimit:4;stroke-dasharray:none;stroke-opacity:1"
     d="m 119.17352,17.865232 c 0.729,1.2187 2.869,0.984 3.188,1.0987 4.719,1.688 5.104,1.6827 8.781,2.7133 5.323,1.4893 9.198,1.688 10.974,-1.1506 1.188,-1.9374 1.041,-3.568 0.265,-4.6254 -0.869,-1.172 -3.724,-2.5626 -6.181,-1.052 l -1.715,-0.0106 c -1.151,-0.1454 -1.724,-0.2134 -2.285,-0.328 -0.97,-0.2134 -2.043,-0.3747 -3.98,-0.672 -3.432,-0.5307 -7.23,0.0266 -7.23,0.0266 -0.306,-0.0413 -0.572,0.0467 -0.801,0.192"
     id="path437" />
  <path
     style="fill:#fab41d;fill-opacity:1;fill-rule:nonzero;stroke:none"
     d="m 142.50152,15.963932 c -0.864,-1.1773 -3.713,-2.5827 -6.177,-1.0733 l -1.922,7.5733 c 3.692,0.7026 6.407,0.364 7.807,-1.88 1.204,-1.9227 1.073,-3.5573 0.292,-4.62"
     id="path438" />
  <path
     style="fill:none;stroke:#231f20;stroke-width:0.565977;stroke-linecap:butt;stroke-linejoin:miter;stroke-miterlimit:4;stroke-dasharray:none;stroke-opacity:1"
     d="m 142.50152,15.963932 c -0.864,-1.1773 -3.713,-2.5827 -6.177,-1.0733 l -1.922,7.5733 c 3.692,0.7026 6.407,0.364 7.807,-1.88 1.204,-1.9227 1.073,-3.5573 0.292,-4.62 z"
     id="path439" />
  <path
     style="fill:#231f20;fill-opacity:1;fill-rule:nonzero;stroke:none"
     d="m 126.68952,11.385232 c 0.448,0.4587 0.583,2.4014 1.296,3.844 0.48,0.9747 0.589,3.7187 1.141,4.6467 0.506,0.864 0.656,1.296 -0.218,2.0413 -0.527,0.4427 -1.814,0.9534 -2.162,0.5827 -0.808,-0.8747 -1.13,-1.76 -1.281,-2.8173 -0.161,-1.208 -0.328,-4.5107 -0.308,-5.12 0.068,-1.5254 -0.359,-2.1254 -0.385,-2.5307 -0.031,-0.7613 0.256,-0.9587 0.734,-1.0947 0.927,-0.2493 1.183,0.448 1.183,0.448"
     id="path440" />
  <path
     style="fill:none;stroke:#231f20;stroke-width:0.565977;stroke-linecap:butt;stroke-linejoin:miter;stroke-miterlimit:4;stroke-dasharray:none;stroke-opacity:1"
     d="m 126.68952,11.385232 c 0.448,0.4587 0.583,2.4014 1.296,3.844 0.48,0.9747 0.589,3.7187 1.141,4.6467 0.506,0.864 0.656,1.296 -0.218,2.0413 -0.527,0.4427 -1.814,0.9534 -2.162,0.5827 -0.808,-0.8747 -1.13,-1.76 -1.281,-2.8173 -0.161,-1.208 -0.328,-4.5107 -0.308,-5.12 0.068,-1.5254 -0.359,-2.1254 -0.385,-2.5307 -0.031,-0.7613 0.256,-0.9587 0.734,-1.0947 0.927,-0.2493 1.183,0.448 1.183,0.448 z"
     id="path441" />
  <path
     style="fill:#231f20;fill-opacity:1;fill-rule:nonzero;stroke:none"
     d="m 128.75252,20.447932 c 1.296,-0.0933 1.082,1.928 1.104,2.464 0.025,0.5466 0.27,2.0826 0.62,3.2546 0.348,1.1774 0.28,2.7924 0.932,5.0214 0.344,1.172 -0.063,2.536 -1.787,2.959 -1.703,0.421 -2.584,-0.376 -2.787,-1.86 -0.202,-1.484 0.235,-2.963 0.136,-4.468 -0.094,-1.511 -0.338,-3.0377 -0.589,-4.2297 -0.276,-1.3546 0.084,-2.1253 0.48,-2.3906 0.979,-0.6827 1.891,-0.7507 1.891,-0.7507"
     id="path442" />
  <path
     style="fill:none;stroke:#231f20;stroke-width:0.565977;stroke-linecap:butt;stroke-linejoin:miter;stroke-miterlimit:4;stroke-dasharray:none;stroke-opacity:1"
     d="m 128.75252,20.447932 c 1.296,-0.0933 1.082,1.928 1.104,2.464 0.025,0.5466 0.27,2.0826 0.62,3.2546 0.348,1.1774 0.28,2.7924 0.932,5.0214 0.344,1.172 -0.063,2.536 -1.787,2.959 -1.703,0.421 -2.584,-0.376 -2.787,-1.86 -0.202,-1.484 0.235,-2.963 0.136,-4.468 -0.094,-1.511 -0.338,-3.0377 -0.589,-4.2297 -0.276,-1.3546 0.084,-2.1253 0.48,-2.3906 0.979,-0.6827 1.891,-0.7507 1.891,-0.7507 z"
     id="path443" />
  <path
     style="fill:#231f20;fill-opacity:1;fill-rule:nonzero;stroke:none"
     d="m 128.82952,6.157332 c 0.057,0.7386 -0.849,3.8639 -1.088,4.5666 -0.213,0.6253 -0.219,1.7813 -1.371,1.9067 -0.457,0.0786 -1.17,-0.172 -1.432,-0.3494 -0.224,-0.1453 -0.213,-0.4733 -0.052,-0.828 0.26,-0.6146 0.584,-0.692 1.162,-1.8226 0,0 0.182,-0.2493 0.532,-0.672 1.025,-1.2653 0.686,-0.6093 1.776,-2.776 0.072,-0.156 0.281,-0.188 0.38,-0.1347 0.156,0.0987 0.093,0.1094 0.093,0.1094"
     id="path444" />
  <path
     style="fill:none;stroke:#231f20;stroke-width:0.565977;stroke-linecap:round;stroke-linejoin:round;stroke-miterlimit:4;stroke-dasharray:none;stroke-opacity:1"
     d="m 128.82952,6.157332 c 0.057,0.7386 -0.849,3.8639 -1.088,4.5666 -0.213,0.6253 -0.219,1.7813 -1.371,1.9067 -0.457,0.0786 -1.17,-0.172 -1.432,-0.3494 -0.224,-0.1453 -0.213,-0.4733 -0.052,-0.828 0.26,-0.6146 0.584,-0.692 1.162,-1.8226 0,0 0.182,-0.2493 0.532,-0.672 1.025,-1.2653 0.686,-0.6093 1.776,-2.776 0.072,-0.156 0.281,-0.188 0.38,-0.1347 0.156,0.0987 0.093,0.1094 0.093,0.1094 z"
     id="path445" />
  <path
     style="fill:#231f20;fill-opacity:1;fill-rule:nonzero;stroke:none"
     d="m 133.68952,4.849332 c 0.396,1.292 -0.385,1.9066 -1.423,1.86 -0.312,-0.016 -0.588,0.296 -0.896,0.2653 -0.692,-0.0947 -1.713,-1.5107 -0.749,-2.656 0.068,-0.0787 0.385,-0.844 0.703,-1.376 0.63,-1.0307 2.396,-2.79600001 5.094,-2.77600001 1.271,0.0053 1.026,0.7667 0.51,0.91730001 -1.635,0.4734 -1.687,0.844 -2.078,1.1294 -1.308,0.9533 -1.161,2.636 -1.161,2.636"
     id="path446" />
  <path
     style="fill:none;stroke:#231f20;stroke-width:0.332927;stroke-linecap:butt;stroke-linejoin:miter;stroke-miterlimit:4;stroke-dasharray:none;stroke-opacity:1"
     d="m 133.68952,4.849332 c 0.396,1.292 -0.385,1.9066 -1.423,1.86 -0.312,-0.016 -0.588,0.296 -0.896,0.2653 -0.692,-0.0947 -1.713,-1.5107 -0.749,-2.656 0.068,-0.0787 0.385,-0.844 0.703,-1.376 0.63,-1.0307 2.396,-2.79600001 5.094,-2.77600001 1.271,0.0053 1.026,0.7667 0.51,0.91730001 -1.635,0.4734 -1.687,0.844 -2.078,1.1294 -1.308,0.9533 -1.161,2.636 -1.161,2.636 z"
     id="path447" />
  <path
     style="fill:#231f20;fill-opacity:1;fill-rule:nonzero;stroke:none"
     d="m 197.53352,68.490932 c -1.324,0.276 -1.866,-0.558 -1.724,-1.584 0.046,-0.307 -0.246,-0.61 -0.183,-0.916 0.156,-0.683 1.656,-1.568 2.713,-0.506 0.074,0.072 0.803,0.452 1.303,0.818 0.968,0.724 2.572,2.64 2.307,5.328 -0.12,1.27 -0.855,0.958 -0.964,0.432 -0.323,-1.678 -0.682,-1.766 -0.938,-2.178 -0.828,-1.385 -2.514,-1.394 -2.514,-1.394"
     id="path448" />
  <path
     style="fill:none;stroke:#231f20;stroke-width:0.332927;stroke-linecap:butt;stroke-linejoin:miter;stroke-miterlimit:4;stroke-dasharray:none;stroke-opacity:1"
     d="m 197.53352,68.490932 c -1.324,0.276 -1.866,-0.558 -1.724,-1.584 0.046,-0.307 -0.246,-0.61 -0.183,-0.916 0.156,-0.683 1.656,-1.568 2.713,-0.506 0.074,0.072 0.803,0.452 1.303,0.818 0.968,0.724 2.572,2.64 2.307,5.328 -0.12,1.27 -0.855,0.958 -0.964,0.432 -0.323,-1.678 -0.682,-1.766 -0.938,-2.178 -0.828,-1.385 -2.514,-1.394 -2.514,-1.394 z"
     id="path449" />
</svg>
