<?xml version="1.0" encoding="UTF-8" standalone="no"?>
<!-- Created with Inkscape (http://www.inkscape.org/) -->

<svg
   version="1.1"
   id="svg1"
   width="334.13953"
   height="147.22086"
   viewBox="0 0 334.13951 147.22085"
   sodipodi:docname="cell.svg"
   xmlns:inkscape="http://www.inkscape.org/namespaces/inkscape"
   xmlns:sodipodi="http://sodipodi.sourceforge.net/DTD/sodipodi-0.dtd"
   xmlns="http://www.w3.org/2000/svg"
   xmlns:svg="http://www.w3.org/2000/svg">
  <sodipodi:namedview
     id="namedview1"
     pagecolor="#ffffff"
     bordercolor="#000000"
     borderopacity="0.25"
     inkscape:showpageshadow="2"
     inkscape:pageopacity="0.0"
     inkscape:pagecheckerboard="0"
     inkscape:deskcolor="#d1d1d1">
    <inkscape:page
       x="9.0056149e-09"
       y="4.0864305e-07"
       inkscape:label="1"
       id="page1"
       width="334.1395"
       height="147.22086"
       margin="0"
       bleed="0" />
  </sodipodi:namedview>
  <defs
     id="defs1" />
  <path
     style="fill:#231f20;fill-opacity:1;fill-rule:nonzero;stroke:none"
     d="m 72.392967,144.15982 c 0.572,-0.344 0.286,-2.129 1.338,-3.796 0.214,-0.338 0.219,-0.714 0.296,-1.084 0.292,-1.473 -0.26,-2.978 -3.052,-0.364 -0.385,0.359 -1.197,2.296 -1.806,2.791 -1.464,1.157 -1.699,4.475 -1.204,4.625 1.062,0.344 4.428,-2.172 4.428,-2.172"
     id="path895" />
  <path
     style="fill:none;stroke:#231f20;stroke-width:0.644548;stroke-linecap:round;stroke-linejoin:round;stroke-miterlimit:4;stroke-dasharray:none;stroke-opacity:1"
     d="m 72.392967,144.15982 c 0.572,-0.344 0.286,-2.129 1.338,-3.796 0.214,-0.338 0.219,-0.714 0.296,-1.084 0.292,-1.473 -0.26,-2.978 -3.052,-0.364 -0.385,0.359 -1.197,2.296 -1.806,2.791 -1.464,1.157 -1.699,4.475 -1.204,4.625 1.062,0.344 4.428,-2.172 4.428,-2.172 z"
     id="path897" />
  <path
     style="fill:#231f20;fill-opacity:1;fill-rule:nonzero;stroke:none"
     d="m 82.569967,57.733824 c 0.479,0.464 -0.199,2.14 0.447,4 0.13,0.38 0.052,0.745 0.042,1.125 -0.046,1.506 -0.917,2.844 -3.052,-0.333 -0.297,-0.437 -0.652,-2.511 -1.13,-3.125 -1.167,-1.459 -0.646,-4.7457 -0.131,-4.7817 1.115,-0.0933 3.824,3.1147 3.824,3.1147"
     id="path899" />
  <path
     style="fill:none;stroke:#231f20;stroke-width:0.644548;stroke-linecap:round;stroke-linejoin:round;stroke-miterlimit:4;stroke-dasharray:none;stroke-opacity:1"
     d="m 82.569967,57.733824 c 0.479,0.464 -0.199,2.14 0.447,4 0.13,0.38 0.052,0.745 0.042,1.125 -0.046,1.506 -0.917,2.844 -3.052,-0.333 -0.297,-0.437 -0.652,-2.511 -1.13,-3.125 -1.167,-1.459 -0.646,-4.7457 -0.131,-4.7817 1.115,-0.0933 3.824,3.1147 3.824,3.1147 z"
     id="path900" />
  <path
     style="fill:#ffffff;fill-opacity:1;fill-rule:nonzero;stroke:none"
     d="m 303.14796,87.754824 c -0.04,-0.24 -1.18,-0.381 -1.15,-0.906 0.02,-0.522 0.79,-0.683 1.73,-2.443 l 0.01,-0.016 c 0.64,-1.312 1.72,-2.183 2.97,-2.224 2.08,-0.068 3.84,2.161 3.93,4.984 0.1,2.824 -1.51,5.167 -3.58,5.24 -1.99,0.068 -3.69,-1.979 -3.91,-4.635"
     id="path901" />
  <path
     style="fill:none;stroke:#231f20;stroke-width:0.565977;stroke-linecap:butt;stroke-linejoin:miter;stroke-miterlimit:4;stroke-dasharray:none;stroke-opacity:1"
     d="m 303.14796,87.754824 c -0.04,-0.24 -1.18,-0.381 -1.15,-0.906 0.02,-0.522 0.79,-0.683 1.73,-2.443 l 0.01,-0.016 c 0.64,-1.312 1.72,-2.183 2.97,-2.224 2.08,-0.068 3.84,2.161 3.93,4.984 0.1,2.824 -1.51,5.167 -3.58,5.24 -1.99,0.068 -3.69,-1.979 -3.91,-4.635 z"
     id="path902" />
  <path
     style="fill:#fab41d;fill-opacity:1;fill-rule:nonzero;stroke:none"
     d="m 308.97796,105.78582 c -0.09,3.131 0.24,3.812 0.58,4.667 2.12,5.379 -0.55,6.317 -3.38,5.723 -3.31,-0.702 -4.52,-0.885 -3.75,-7.135 0.21,-1.734 0.16,-8.51 0.16,-8.51 -0.35,-2.421996 0.61,-4.968996 1.83,-5.755996 1.3,-0.828 0.85,-0.401 2.19,-0.953 1.27,-0.52 3.43,-0.208 4.09,0.839 0.63,1.005 -0.13,2.489 -0.94,4.77 -0.64,1.802996 -0.78,6.354996 -0.78,6.354996"
     id="path903" />
  <path
     style="fill:none;stroke:#231f20;stroke-width:0.565977;stroke-linecap:butt;stroke-linejoin:miter;stroke-miterlimit:4;stroke-dasharray:none;stroke-opacity:1"
     d="m 308.97796,105.78582 c -0.09,3.131 0.24,3.812 0.58,4.667 2.12,5.379 -0.55,6.317 -3.38,5.723 -3.31,-0.702 -4.52,-0.885 -3.75,-7.135 0.21,-1.734 0.16,-8.51 0.16,-8.51 -0.35,-2.421996 0.61,-4.968996 1.83,-5.755996 1.3,-0.828 0.85,-0.401 2.19,-0.953 1.27,-0.52 3.43,-0.208 4.09,0.839 0.63,1.005 -0.13,2.489 -0.94,4.77 -0.64,1.802996 -0.78,6.354996 -0.78,6.354996 z"
     id="path904" />
  <path
     style="fill:#231f20;fill-opacity:1;fill-rule:nonzero;stroke:none"
     d="m 306.41796,75.561824 c -0.36,0.536 -0.13,2.469 -0.56,4.021 -0.29,1.042 0.12,3.755 -0.25,4.776 -0.34,0.938 -0.4,1.396 0.6,1.968 0.59,0.334 1.95,0.6 2.23,0.167 0.63,-1.005 0.78,-1.943 0.73,-3.011 -0.06,-1.213 -0.52,-4.494 -0.66,-5.088 -0.35,-1.484 -0.04,-2.15 -0.1,-2.552 -0.1,-0.754 -0.41,-0.901 -0.92,-0.942 -0.96,-0.068 -1.07,0.661 -1.07,0.661"
     id="path905" />
  <path
     style="fill:none;stroke:#231f20;stroke-width:0.565977;stroke-linecap:butt;stroke-linejoin:miter;stroke-miterlimit:4;stroke-dasharray:none;stroke-opacity:1"
     d="m 306.41796,75.561824 c -0.36,0.536 -0.13,2.469 -0.56,4.021 -0.29,1.042 0.12,3.755 -0.25,4.776 -0.34,0.938 -0.4,1.396 0.6,1.968 0.59,0.334 1.95,0.6 2.23,0.167 0.63,-1.005 0.78,-1.943 0.73,-3.011 -0.06,-1.213 -0.52,-4.494 -0.66,-5.088 -0.35,-1.484 -0.04,-2.15 -0.1,-2.552 -0.1,-0.754 -0.41,-0.901 -0.92,-0.942 -0.96,-0.068 -1.07,0.661 -1.07,0.661 z"
     id="path906" />
  <path
     style="fill:#231f20;fill-opacity:1;fill-rule:nonzero;stroke:none"
     d="m 306.22796,84.618824 c -1.29,0.12 -0.74,2.079 -0.67,2.615 0.06,0.541 0.07,2.093 -0.07,3.312 -0.15,1.213 0.19,2.792 -0.09,5.104 -0.14,1.215 0.49,2.485 2.26,2.62 1.75,0.131 2.48,-0.801 2.44,-2.301 -0.05,-1.495 -0.73,-2.88 -0.88,-4.38 -0.15,-1.506 -0.17,-3.052 -0.12,-4.267 0.04,-1.385 -0.44,-2.083 -0.87,-2.285 -1.09,-0.506 -2,-0.418 -2,-0.418"
     id="path907" />
  <path
     style="fill:none;stroke:#231f20;stroke-width:0.565977;stroke-linecap:butt;stroke-linejoin:miter;stroke-miterlimit:4;stroke-dasharray:none;stroke-opacity:1"
     d="m 306.22796,84.618824 c -1.29,0.12 -0.74,2.079 -0.67,2.615 0.06,0.541 0.07,2.093 -0.07,3.312 -0.15,1.213 0.19,2.792 -0.09,5.104 -0.14,1.215 0.49,2.485 2.26,2.62 1.75,0.131 2.48,-0.801 2.44,-2.301 -0.05,-1.495 -0.73,-2.88 -0.88,-4.38 -0.15,-1.506 -0.17,-3.052 -0.12,-4.267 0.04,-1.385 -0.44,-2.083 -0.87,-2.285 -1.09,-0.506 -2,-0.418 -2,-0.418 z"
     id="path908" />
  <path
     style="fill:#231f20;fill-opacity:1;fill-rule:nonzero;stroke:none"
     d="m 306.46796,68.613824 c -0.26,0.672 -0.31,3.927 -0.29,4.672 0.02,0.667 -0.31,1.771 0.75,2.24 0.43,0.187 1.18,0.167 1.49,0.072 0.24,-0.077 0.34,-0.391 0.29,-0.785 -0.08,-0.663 -0.36,-0.819 -0.59,-2.074 0,0 -0.1,-0.292 -0.3,-0.802 -0.62,-1.511 -0.49,-0.787 -0.89,-3.172 -0.03,-0.171 -0.22,-0.266 -0.33,-0.234 -0.18,0.042 -0.13,0.083 -0.13,0.083"
     id="path909" />
  <path
     style="fill:none;stroke:#231f20;stroke-width:0.565977;stroke-linecap:round;stroke-linejoin:round;stroke-miterlimit:4;stroke-dasharray:none;stroke-opacity:1"
     d="m 306.46796,68.613824 c -0.26,0.672 -0.31,3.927 -0.29,4.672 0.02,0.667 -0.31,1.771 0.75,2.24 0.43,0.187 1.18,0.167 1.49,0.072 0.24,-0.077 0.34,-0.391 0.29,-0.785 -0.08,-0.663 -0.36,-0.819 -0.59,-2.074 0,0 -0.1,-0.292 -0.3,-0.802 -0.62,-1.511 -0.49,-0.787 -0.89,-3.172 -0.03,-0.171 -0.22,-0.266 -0.33,-0.234 -0.18,0.042 -0.13,0.083 -0.13,0.083 z"
     id="path910" />
  <path
     style="fill:#231f20;fill-opacity:1;fill-rule:nonzero;stroke:none"
     d="m 316.72796,128.21782 c 1.54,-1.656 2.07,-1.766 2.81,-1.162 0.49,0.407 1.09,0.61 1.41,0.844 1.04,0.776 2.46,2.5 5.25,8.47 0.63,1.353 1.53,3.249 1.95,3.989 0.69,1.177 -1.73,1.505 -2,1.047 -0.87,-1.475 -1.59,-2.423 -1.97,-2.907 -0.27,-0.339 -0.66,-0.995 -1.85,-2.156 -1.81,-1.765 -3.16,-2.552 -4.49,-4.193 -0.62,-0.76 -1.57,-0.943 -1.8,-2 -0.23,-1.062 0.69,-1.932 0.69,-1.932"
     id="path911" />
  <path
     style="fill:none;stroke:#231f20;stroke-width:0.565977;stroke-linecap:butt;stroke-linejoin:miter;stroke-miterlimit:4;stroke-dasharray:none;stroke-opacity:1"
     d="m 316.72796,128.21782 c 1.54,-1.656 2.07,-1.766 2.81,-1.162 0.49,0.407 1.09,0.61 1.41,0.844 1.04,0.776 2.46,2.5 5.25,8.47 0.63,1.353 1.53,3.249 1.95,3.989 0.69,1.177 -1.73,1.505 -2,1.047 -0.87,-1.475 -1.59,-2.423 -1.97,-2.907 -0.27,-0.339 -0.66,-0.995 -1.85,-2.156 -1.81,-1.765 -3.16,-2.552 -4.49,-4.193 -0.62,-0.76 -1.57,-0.943 -1.8,-2 -0.23,-1.062 0.69,-1.932 0.69,-1.932 z"
     id="path912" />
  <path
     style="fill:#231f20;fill-opacity:1;fill-rule:nonzero;stroke:#231f20;stroke-width:0.565977;stroke-linecap:round;stroke-linejoin:miter;stroke-miterlimit:4;stroke-dasharray:none;stroke-opacity:1"
     d="m 316.77796,130.70682 c -1.34,-0.083 -2.25,-1.895 -2.5,-2.099 -3.95,-3.077 -4.16,-3.401 -7.01,-5.958 -4.1,-3.698 -6.35,-6.859 -4.89,-9.875 0.98,-2.052 2.44,-2.801 3.75,-2.708 1.46,0.104 4.16,1.766 4.2,4.651 l 0.92,1.442 c 0.75,0.896 1.11,1.344 1.51,1.756 0.71,0.714 1.41,1.526 2.7,2.995 2.29,2.609 3.86,6.125 3.86,6.125 0.19,0.239 0.27,0.51 0.26,0.78"
     id="path913" />
  <path
     style="fill:#fab41d;fill-opacity:1;fill-rule:nonzero;stroke:#231f20;stroke-width:0.565977;stroke-linecap:round;stroke-linejoin:round;stroke-miterlimit:4;stroke-dasharray:none;stroke-opacity:1"
     d="m 302.39796,116.52582 c 0.25,1.254 0.34,1.937 1.16,2.322 0.64,0.302 1.45,1.37 1.45,1.37 z"
     id="path914" />
  <path
     style="fill:#231f20;fill-opacity:1;fill-rule:nonzero;stroke:none"
     d="m 293.83796,126.60782 c 2.21,-0.5 2.7,-0.296 2.99,0.62 0.17,0.61 0.55,1.12 0.68,1.484 0.43,1.224 0.65,3.459 -0.39,9.959 -0.24,1.475 -0.56,3.552 -0.62,4.401 -0.1,1.354 -2.28,0.276 -2.25,-0.256 0.11,-1.713 0.04,-2.894 0,-3.514 -0.03,-0.428 0.01,-1.188 -0.33,-2.823 -0.51,-2.469 -1.18,-3.881 -1.36,-5.985 -0.09,-0.979 -0.77,-1.662 -0.37,-2.667 0.41,-1.005 1.65,-1.219 1.65,-1.219"
     id="path915" />
  <path
     style="fill:none;stroke:#231f20;stroke-width:0.565977;stroke-linecap:butt;stroke-linejoin:miter;stroke-miterlimit:4;stroke-dasharray:none;stroke-opacity:1"
     d="m 293.83796,126.60782 c 2.21,-0.5 2.7,-0.296 2.99,0.62 0.17,0.61 0.55,1.12 0.68,1.484 0.43,1.224 0.65,3.459 -0.39,9.959 -0.24,1.475 -0.56,3.552 -0.62,4.401 -0.1,1.354 -2.28,0.276 -2.25,-0.256 0.11,-1.713 0.04,-2.894 0,-3.514 -0.03,-0.428 0.01,-1.188 -0.33,-2.823 -0.51,-2.469 -1.18,-3.881 -1.36,-5.985 -0.09,-0.979 -0.77,-1.662 -0.37,-2.667 0.41,-1.005 1.65,-1.219 1.65,-1.219 z"
     id="path916" />
  <path
     style="fill:#231f20;fill-opacity:1;fill-rule:nonzero;stroke:#231f20;stroke-width:0.565977;stroke-linecap:round;stroke-linejoin:miter;stroke-miterlimit:4;stroke-dasharray:none;stroke-opacity:1"
     d="m 292.17796,128.19782 c -0.21,-1.328 1.36,-2.604 1.5,-2.902 2.15,-4.526 2.41,-4.797 4.29,-8.13 2.71,-4.817 5.31,-7.697 8.57,-6.937 2.21,0.51 3.26,1.765 3.46,3.068 0.22,1.447 -0.82,4.447 -3.62,5.119 l -1.21,1.214 c -0.7,0.926 -1.07,1.374 -1.38,1.858 -0.54,0.844 -1.18,1.704 -2.33,3.287 -2.06,2.803 -5.14,5.095 -5.14,5.095 -0.19,0.244 -0.44,0.374 -0.7,0.426"
     id="path917" />
  <path
     style="fill:#fab41d;fill-opacity:1;fill-rule:nonzero;stroke:none"
     d="m 309.99796,113.29682 c -0.2,-1.303 -1.25,-2.558 -3.46,-3.068 -1.44,-0.339 -2.74,0.057 -3.98,0.989 -0.95,0.423 -1.52,0.704 -1.69,1.489 -0.02,0.068 -0.04,0.147 -0.08,0.22 -0.37,0.452 -0.75,0.932 -1.11,1.473 l 6.7,4.016 c 2.8,-0.666 3.84,-3.677 3.62,-5.119"
     id="path918" />
  <path
     style="fill:none;stroke:#231f20;stroke-width:0.565977;stroke-linecap:round;stroke-linejoin:round;stroke-miterlimit:4;stroke-dasharray:none;stroke-opacity:1"
     d="m 309.99796,113.29682 c -0.2,-1.303 -1.25,-2.558 -3.46,-3.068 -1.44,-0.339 -2.74,0.057 -3.98,0.989 -0.95,0.423 -1.52,0.704 -1.69,1.489 -0.02,0.068 -0.04,0.147 -0.08,0.22 -0.37,0.452 -0.75,0.932 -1.11,1.473 l 6.7,4.016 c 2.8,-0.666 3.84,-3.677 3.62,-5.119 z"
     id="path919" />
  <path
     style="fill:#231f20;fill-opacity:1;fill-rule:nonzero;stroke:none"
     d="m 296.36796,146.31582 c 1.08,-0.104 0.76,-1.322 0.47,-2.514 -0.08,-0.298 -0.12,-0.584 -0.22,-0.871 -0.39,-1.161 -1.24,-1.781 -3.09,0.584 -0.06,0.088 -1.85,1.355 -2.4,1.631 -2.69,1.296 -2.95,0.5 -2.69,1.296 0.18,0.526 0.68,0.516 1.31,0.48 0.85,-0.043 3.85,-0.459 4.32,-0.491 0.44,-0.031 2.3,-0.115 2.3,-0.115"
     id="path920" />
  <path
     style="fill:none;stroke:#231f20;stroke-width:0.565977;stroke-linecap:butt;stroke-linejoin:miter;stroke-miterlimit:4;stroke-dasharray:none;stroke-opacity:1"
     d="m 296.36796,146.31582 c 1.08,-0.104 0.76,-1.322 0.47,-2.514 -0.08,-0.298 -0.12,-0.584 -0.22,-0.871 -0.39,-1.161 -1.24,-1.781 -3.09,0.584 -0.06,0.088 -1.85,1.355 -2.4,1.631 -2.69,1.296 -2.95,0.5 -2.69,1.296 0.18,0.526 0.68,0.516 1.31,0.48 0.85,-0.043 3.85,-0.459 4.32,-0.491 0.44,-0.031 2.3,-0.115 2.3,-0.115 z"
     id="path922" />
  <path
     style="fill:#231f20;fill-opacity:1;fill-rule:nonzero;stroke:none"
     d="m 82.693967,116.01482 c -0.317,1.249 1.713,1.391 2.24,1.511 0.531,0.114 2.005,0.62 3.099,1.161 1.098,0.541 2.702,0.749 4.786,1.776 1.099,0.536 2.510995,0.364 3.223995,-1.26 0.703,-1.605 0.068,-2.609 -1.36,-3.063 -1.425995,-0.448 -2.956995,-0.27 -4.425995,-0.63 -1.468,-0.355 -2.932,-0.855 -4.063,-1.298 -1.287,-0.505 -2.109,-0.281 -2.448,0.058 -0.839,0.854 -1.052,1.745 -1.052,1.745"
     id="path924" />
  <path
     style="fill:none;stroke:#231f20;stroke-width:0.565977;stroke-linecap:butt;stroke-linejoin:miter;stroke-miterlimit:4;stroke-dasharray:none;stroke-opacity:1"
     d="m 82.693967,116.01482 c -0.317,1.249 1.713,1.391 2.24,1.511 0.531,0.114 2.005,0.62 3.099,1.161 1.098,0.541 2.702,0.749 4.786,1.776 1.099,0.536 2.510995,0.364 3.223995,-1.26 0.703,-1.605 0.068,-2.609 -1.36,-3.063 -1.425995,-0.448 -2.956995,-0.27 -4.425995,-0.63 -1.468,-0.355 -2.932,-0.855 -4.063,-1.298 -1.287,-0.505 -2.109,-0.281 -2.448,0.058 -0.839,0.854 -1.052,1.745 -1.052,1.745 z"
     id="path925" />
  <path
     style="fill:#231f20;fill-opacity:1;fill-rule:nonzero;stroke:none"
     d="m 75.001967,110.78082 c 0.635,-0.12 2.323,0.844 3.921,1.046 1.074,0.136 3.418,1.568 4.506,1.626 0.989,0.052 1.437,0.166 1.573,1.311 0.083,0.678 -0.204,2.038 -0.709,2.115 -1.171,0.199 -2.094,-0.025 -3.056,-0.489 -1.095,-0.526 -3.939,-2.219 -4.439,-2.583 -1.228,-0.896 -1.963,-0.87 -2.312,-1.078 -0.656,-0.386 -0.667,-0.735 -0.511,-1.208 0.308,-0.912 1.027,-0.74 1.027,-0.74"
     id="path926" />
  <path
     style="fill:none;stroke:#231f20;stroke-width:0.565977;stroke-linecap:butt;stroke-linejoin:miter;stroke-miterlimit:4;stroke-dasharray:none;stroke-opacity:1"
     d="m 75.001967,110.78082 c 0.635,-0.12 2.323,0.844 3.921,1.046 1.074,0.136 3.418,1.568 4.506,1.626 0.989,0.052 1.437,0.166 1.573,1.311 0.083,0.678 -0.204,2.038 -0.709,2.115 -1.171,0.199 -2.094,-0.025 -3.056,-0.489 -1.095,-0.526 -3.939,-2.219 -4.439,-2.583 -1.228,-0.896 -1.963,-0.87 -2.312,-1.078 -0.656,-0.386 -0.667,-0.735 -0.511,-1.208 0.308,-0.912 1.027,-0.74 1.027,-0.74 z"
     id="path927" />
  <path
     style="fill:#231f20;fill-opacity:1;fill-rule:nonzero;stroke:none"
     d="m 68.292967,108.64082 c 0.724,-0.052 3.854,0.822 4.562,1.052 0.631,0.202 1.787,0.197 1.938,1.344 0.057,0.462 -0.171,1.181 -0.348,1.452 -0.147,0.214 -0.47,0.214 -0.834,0.057 -0.62,-0.265 -0.688,-0.577 -1.833,-1.151 0,0 -0.245,-0.172 -0.677,-0.516 -1.271,-1.02 -0.615,-0.692 -2.792,-1.749 -0.156,-0.079 -0.192,-0.287 -0.13,-0.385 0.088,-0.156 0.114,-0.104 0.114,-0.104"
     id="path928" />
  <path
     style="fill:none;stroke:#231f20;stroke-width:0.565977;stroke-linecap:round;stroke-linejoin:round;stroke-miterlimit:4;stroke-dasharray:none;stroke-opacity:1"
     d="m 68.292967,108.64082 c 0.724,-0.052 3.854,0.822 4.562,1.052 0.631,0.202 1.787,0.197 1.938,1.344 0.057,0.462 -0.171,1.181 -0.348,1.452 -0.147,0.214 -0.47,0.214 -0.834,0.057 -0.62,-0.265 -0.688,-0.577 -1.833,-1.151 0,0 -0.245,-0.172 -0.677,-0.516 -1.271,-1.02 -0.615,-0.692 -2.792,-1.749 -0.156,-0.079 -0.192,-0.287 -0.13,-0.385 0.088,-0.156 0.114,-0.104 0.114,-0.104 z"
     id="path929" />
  <path
     style="fill:#231f20;fill-opacity:1;fill-rule:nonzero;stroke:none"
     d="m 87.397967,102.17082 c 3.192,1.672 2.14,2.979 1.192,6.948 -1.036,4.339 -2.577,8.751 -4.531,11.412 -2.177,2.979 -1.885,3.405 -3.786,3.145 -1.896,-0.265 -1.814,-1.036 -2.438,-2.166 -0.724,-1.307 3.318,-7.454 4.26,-12.109 0.438,-2.188 0.079,-7.698 1.531,-7.755 1.448,-0.048 3.772,0.525 3.772,0.525"
     id="path930" />
  <path
     style="fill:none;stroke:#231f20;stroke-width:0.565977;stroke-linecap:butt;stroke-linejoin:miter;stroke-miterlimit:4;stroke-dasharray:none;stroke-opacity:1"
     d="m 87.397967,102.17082 c 3.192,1.672 2.14,2.979 1.192,6.948 -1.036,4.339 -2.577,8.751 -4.531,11.412 -2.177,2.979 -1.885,3.405 -3.786,3.145 -1.896,-0.265 -1.814,-1.036 -2.438,-2.166 -0.724,-1.307 3.318,-7.454 4.26,-12.109 0.438,-2.188 0.079,-7.698 1.531,-7.755 1.448,-0.048 3.772,0.525 3.772,0.525 z"
     id="path931" />
  <path
     style="fill:#231f20;fill-opacity:1;fill-rule:nonzero;stroke:none"
     d="m 79.938967,121.44682 c 2.192,0.563 2.839,0.699 1.839,2.989 -0.256,0.59 -1.079,2.158 -1.136,2.543 -0.177,1.291 -0.489,2.765 -4.385,8.072 -0.61,0.823 -1.49,2.595 -2.214,3.792 -0.713,1.156 -2.156,-0.797 -1.885,-1.255 0.875,-1.48 1.12,-2.614 1.359,-3.188 0.166,-0.396 0.6,-1.078 0.854,-2.718 0.651,-4.23 2.23,-5.099 2.438,-5.975 0.614,-2.509 0.625,-4.78 1.286,-4.864 1.074,-0.145 1.844,0.604 1.844,0.604"
     id="path932" />
  <path
     style="fill:none;stroke:#231f20;stroke-width:0.565977;stroke-linecap:butt;stroke-linejoin:miter;stroke-miterlimit:4;stroke-dasharray:none;stroke-opacity:1"
     d="m 79.938967,121.44682 c 2.192,0.563 2.839,0.699 1.839,2.989 -0.256,0.59 -1.079,2.158 -1.136,2.543 -0.177,1.291 -0.489,2.765 -4.385,8.072 -0.61,0.823 -1.49,2.595 -2.214,3.792 -0.713,1.156 -2.156,-0.797 -1.885,-1.255 0.875,-1.48 1.12,-2.614 1.359,-3.188 0.166,-0.396 0.6,-1.078 0.854,-2.718 0.651,-4.23 2.23,-5.099 2.438,-5.975 0.614,-2.509 0.625,-4.78 1.286,-4.864 1.074,-0.145 1.844,0.604 1.844,0.604 z"
     id="path933" />
  <path
     style="fill:#231f20;fill-opacity:1;fill-rule:nonzero;stroke:none"
     d="m 92.912967,101.82182 c 3.359995,-1.317 2.447995,-2.728996 1.936995,-6.780996 -0.561,-4.422 -1.618995,-8.974 -3.270995,-11.834 -1.844,-3.192 -1.505,-3.588 -3.421,-3.53 -1.921,0.057 -1.917,0.833 -2.656,1.89 -0.86,1.219 2.495,7.766 2.921,12.5 0.203,2.214 -0.754,7.661996 0.683,7.863996 1.443,0.21 3.807,-0.109 3.807,-0.109"
     id="path934" />
  <path
     style="fill:none;stroke:#231f20;stroke-width:0.565977;stroke-linecap:butt;stroke-linejoin:miter;stroke-miterlimit:4;stroke-dasharray:none;stroke-opacity:1"
     d="m 92.912967,101.82182 c 3.359995,-1.317 2.447995,-2.728996 1.936995,-6.780996 -0.561,-4.422 -1.618995,-8.974 -3.270995,-11.834 -1.844,-3.192 -1.505,-3.588 -3.421,-3.53 -1.921,0.057 -1.917,0.833 -2.656,1.89 -0.86,1.219 2.495,7.766 2.921,12.5 0.203,2.214 -0.754,7.661996 0.683,7.863996 1.443,0.21 3.807,-0.109 3.807,-0.109 z"
     id="path935" />
  <path
     style="fill:#fab41d;fill-opacity:1;fill-rule:nonzero;stroke:none"
     d="m 107.45896,112.02582 c -0.129,-0.761 -0.708,-1.839 -1.604,-3.095 -1.072,-1.5 -4.65,-4.233 -7.513998,-6.65 -0.418,-0.61 -0.438,-3.025996 -0.715,-1.802 l -0.312,0.182 c -3.098995,0.245 -6.884995,-4.207996 -6.884995,-4.207996 0,0 -0.746,-0.027 -1.156,0.245 -0.418,0.271 -0.683,0.968 -0.683,0.968 0,0 2.527,4.974996 1.084,7.728996 l -0.219,0.47 c -1.229,-0.224 0.979,0.738 1.38,1.369 1.735,2.749 3.328,7.593 3.422,8.926 0.124995,1.828 -1.744,3.667 0.176995,4.662 0,0 1.531,1.204 3.656,-0.63 0.771,-0.666 3.010998,-1.286 3.010998,-1.286 0,0 1.333,-0.24 2.317,-0.86 0.865,-0.552 1.475,-1.506 1.604,-1.724 l 0.005,-0.006 c 0,0 1.454,-0.78 2.038,-1.613 0.582,-0.844 0.394,-2.677 0.394,-2.677"
     id="path936" />
  <path
     style="fill:none;stroke:#231f20;stroke-width:0.565977;stroke-linecap:round;stroke-linejoin:round;stroke-miterlimit:4;stroke-dasharray:none;stroke-opacity:1"
     d="m 107.45896,112.02582 c -0.129,-0.761 -0.708,-1.839 -1.604,-3.095 -1.072,-1.5 -4.65,-4.233 -7.513998,-6.65 -0.418,-0.61 -0.438,-3.025996 -0.715,-1.802 l -0.312,0.182 c -3.098995,0.245 -6.884995,-4.207996 -6.884995,-4.207996 0,0 -0.746,-0.027 -1.156,0.245 -0.418,0.271 -0.683,0.968 -0.683,0.968 0,0 2.527,4.974996 1.084,7.728996 l -0.219,0.47 c -1.229,-0.224 0.979,0.738 1.38,1.369 1.735,2.749 3.328,7.593 3.422,8.926 0.124995,1.828 -1.744,3.667 0.176995,4.662 0,0 1.531,1.204 3.656,-0.63 0.771,-0.666 3.010998,-1.286 3.010998,-1.286 0,0 1.333,-0.24 2.317,-0.86 0.865,-0.552 1.475,-1.506 1.604,-1.724 l 0.005,-0.006 c 0,0 1.454,-0.78 2.038,-1.613 0.582,-0.844 0.394,-2.677 0.394,-2.677 z"
     id="path937" />
  <path
     style="fill:#231f20;fill-opacity:1;fill-rule:nonzero;stroke:none"
     d="m 109.20996,120.13482 c -1.552,-2.36 -4.213,-3.349 -5.953,-2.208 -1.735,1.135 -1.886,3.973 -0.334,6.333 1.547,2.364 4.208,3.354 5.948,2.214 1.735,-1.142 1.891,-3.98 0.339,-6.339"
     id="path938" />
  <path
     style="fill:none;stroke:#231f20;stroke-width:0.565977;stroke-linecap:butt;stroke-linejoin:miter;stroke-miterlimit:4;stroke-dasharray:none;stroke-opacity:1"
     d="m 109.20996,120.13482 c -1.552,-2.36 -4.213,-3.349 -5.953,-2.208 -1.735,1.135 -1.886,3.973 -0.334,6.333 1.547,2.364 4.208,3.354 5.948,2.214 1.735,-1.142 1.891,-3.98 0.339,-6.339 z"
     id="path939" />
  <path
     style="fill:#231f20;fill-opacity:1;fill-rule:nonzero;stroke:none"
     d="m 87.610967,81.864824 c 2.235,-0.339 2.896,-0.407 2.13,-2.792 -0.192,-0.604 -0.848,-2.256 -0.864,-2.647 -0.047,-1.296 -0.208,-2.791 -3.542,-8.473 -0.516,-0.88 -1.209,-2.735 -1.813,-3.995 -0.583,-1.229 -2.224,0.573 -2,1.052 0.715,1.557 0.844,2.713 1.027,3.312 0.125,0.407 0.484,1.131 0.568,2.792 0.218,4.276 1.697,5.297 1.817,6.188 0.349,2.563 0.131,4.817 0.776,4.973 1.057,0.251 1.901,-0.41 1.901,-0.41"
     id="path940" />
  <path
     style="fill:none;stroke:#231f20;stroke-width:0.565977;stroke-linecap:butt;stroke-linejoin:miter;stroke-miterlimit:4;stroke-dasharray:none;stroke-opacity:1"
     d="m 87.610967,81.864824 c 2.235,-0.339 2.896,-0.407 2.13,-2.792 -0.192,-0.604 -0.848,-2.256 -0.864,-2.647 -0.047,-1.296 -0.208,-2.791 -3.542,-8.473 -0.516,-0.88 -1.209,-2.735 -1.813,-3.995 -0.583,-1.229 -2.224,0.573 -2,1.052 0.715,1.557 0.844,2.713 1.027,3.312 0.125,0.407 0.484,1.131 0.568,2.792 0.218,4.276 1.697,5.297 1.817,6.188 0.349,2.563 0.131,4.817 0.776,4.973 1.057,0.251 1.901,-0.41 1.901,-0.41 z"
     id="path941" />
  <path
     style="fill:#fab41d;fill-opacity:1;fill-rule:nonzero;stroke:none"
     d="m 97.860962,101.16082 c 0.412,-0.115 0.208,-2.661996 -0.73,-5.062996 -0.76,-1.937 -1.957,-3.515 -1.957,-3.515 -5.124995,0 -5.999995,3.662 -6.452995,3.75 -2.251,0.453 -6.484,2.328 -6.058,6.988996 0.02,0.235 0.963,-1.676 3.812,0.563 2.115,1.656 2.303,2.912 2.688,2.308 0.287,-0.454 1.735,-2.647 3.37,-3.871 1.895995,-1.421 5.327995,-1.161 5.327995,-1.161"
     id="path942" />
  <path
     style="fill:none;stroke:#231f20;stroke-width:0.565977;stroke-linecap:round;stroke-linejoin:round;stroke-miterlimit:4;stroke-dasharray:none;stroke-opacity:1"
     d="m 97.860962,101.16082 c 0.412,-0.115 0.208,-2.661996 -0.73,-5.062996 -0.76,-1.937 -1.957,-3.515 -1.957,-3.515 -5.124995,0 -5.999995,3.662 -6.452995,3.75 -2.251,0.453 -6.484,2.328 -6.058,6.988996 0.02,0.235 0.963,-1.676 3.812,0.563 2.115,1.656 2.303,2.912 2.688,2.308 0.287,-0.454 1.735,-2.647 3.37,-3.871 1.895995,-1.421 5.327995,-1.161 5.327995,-1.161 z"
     id="path943" />
  <path
     style="fill:#fab41d;fill-opacity:1;fill-rule:nonzero;stroke:#231f20;stroke-width:0.332927;stroke-linecap:round;stroke-linejoin:round;stroke-miterlimit:4;stroke-dasharray:none;stroke-opacity:1"
     d="m 88.354967,96.430824 c 1.688,0.491 2.084,1.59 2.084,1.59"
     id="path944" />
  <path
     style="fill:#fab41d;fill-opacity:1;fill-rule:nonzero;stroke:none"
     d="m 20.616967,96.129824 c 0.634,3.068 0.442,3.801 0.26,4.702996 -1.136,5.666 1.672,6.12 4.338,5.032 3.14,-1.287 4.298,-1.683 2.427,-7.693996 -0.52,-1.672 -1.672,-8.344 -1.672,-8.344 -0.099,-2.448 -1.489,-4.786 -2.833,-5.338 -1.422,-0.583 -0.906,-0.25 -2.307,-0.547 -1.355,-0.292 -3.423,0.407 -3.885,1.552 -0.448,1.1 0.568,2.428 1.776,4.521 0.948,1.667 1.896,6.115 1.896,6.115"
     id="path945" />
  <path
     style="fill:none;stroke:#231f20;stroke-width:0.565977;stroke-linecap:butt;stroke-linejoin:miter;stroke-miterlimit:4;stroke-dasharray:none;stroke-opacity:1"
     d="m 20.616967,96.129824 c 0.634,3.068 0.442,3.801 0.26,4.702996 -1.136,5.666 1.672,6.12 4.338,5.032 3.14,-1.287 4.298,-1.683 2.427,-7.693996 -0.52,-1.672 -1.672,-8.344 -1.672,-8.344 -0.099,-2.448 -1.489,-4.786 -2.833,-5.338 -1.422,-0.583 -0.906,-0.25 -2.307,-0.547 -1.355,-0.292 -3.423,0.407 -3.885,1.552 -0.448,1.1 0.568,2.428 1.776,4.521 0.948,1.667 1.896,6.115 1.896,6.115 z"
     id="path946" />
  <path
     style="fill:#ffffff;fill-opacity:1;fill-rule:nonzero;stroke:none"
     d="m 20.761967,77.082824 c -0.083,-0.234 0.875,-0.876 0.62,-1.333 -0.26,-0.459 -1.027,-0.251 -2.647,-1.396 l -0.025,-0.016 c -1.151,-0.875 -2.516,-1.167 -3.651,-0.64 -1.885,0.875 -2.448,3.661 -1.261,6.219 1.188,2.566 3.683,3.932 5.563,3.062 1.808,-0.833 2.396,-3.433 1.401,-5.896"
     id="path947" />
  <path
     style="fill:none;stroke:#231f20;stroke-width:0.565977;stroke-linecap:butt;stroke-linejoin:miter;stroke-miterlimit:4;stroke-dasharray:none;stroke-opacity:1"
     d="m 20.761967,77.082824 c -0.083,-0.234 0.875,-0.876 0.62,-1.333 -0.26,-0.459 -1.027,-0.251 -2.647,-1.396 l -0.025,-0.016 c -1.151,-0.875 -2.516,-1.167 -3.651,-0.64 -1.885,0.875 -2.448,3.661 -1.261,6.219 1.188,2.566 3.683,3.932 5.563,3.062 1.808,-0.833 2.396,-3.433 1.401,-5.896 z"
     id="path948" />
  <path
     style="fill:#231f20;fill-opacity:1;fill-rule:nonzero;stroke:none"
     d="m 30.376967,122.07182 c -2.235,0.359 -2.62,0.735 -2.527,1.687 0.057,0.636 -0.104,1.24 -0.083,1.631 0.047,1.292 0.688,3.453 4.079,9.098 0.776,1.271 1.837,3.084 2.213,3.85 0.604,1.213 2.224,-0.599 1.99,-1.088 -0.735,-1.547 -1.115,-2.662 -1.308,-3.256 -0.124,-0.411 -0.458,-1.094 -0.75,-2.739 -0.453,-2.485 -0.354,-4.043 -0.974,-6.063 -0.282,-0.942 0.1,-1.828 -0.656,-2.604 -0.744,-0.792 -1.984,-0.516 -1.984,-0.516"
     id="path949" />
  <path
     style="fill:none;stroke:#231f20;stroke-width:0.565977;stroke-linecap:butt;stroke-linejoin:miter;stroke-miterlimit:4;stroke-dasharray:none;stroke-opacity:1"
     d="m 30.376967,122.07182 c -2.235,0.359 -2.62,0.735 -2.527,1.687 0.057,0.636 -0.104,1.24 -0.083,1.631 0.047,1.292 0.688,3.453 4.079,9.098 0.776,1.271 1.837,3.084 2.213,3.85 0.604,1.213 2.224,-0.599 1.99,-1.088 -0.735,-1.547 -1.115,-2.662 -1.308,-3.256 -0.124,-0.411 -0.458,-1.094 -0.75,-2.739 -0.453,-2.485 -0.354,-4.043 -0.974,-6.063 -0.282,-0.942 0.1,-1.828 -0.656,-2.604 -0.744,-0.792 -1.984,-0.516 -1.984,-0.516 z"
     id="path950" />
  <path
     style="fill:#231f20;fill-opacity:1;fill-rule:nonzero;stroke:#231f20;stroke-width:0.565977;stroke-linecap:round;stroke-linejoin:round;stroke-miterlimit:4;stroke-dasharray:none;stroke-opacity:1"
     d="m 32.345967,123.62382 c 0.823,-1.156 -0.245,-3.026 -0.272,-3.364 -0.343,-5 -0.5,-5.349 -1.031,-9.135 -0.77,-5.475 -2.14,-9.104 -5.458,-9.594 -2.244,-0.324 -3.682,0.463 -4.339,1.604 -0.724,1.266 -0.859,4.443 1.511,6.088 l 0.682,1.574 c 0.328,1.114 0.49,1.666 0.61,2.229 0.197,0.978 0.478,2.02 0.978,3.916 0.891,3.354 2.923,6.614 2.923,6.614 0.093,0.298 0.271,0.516 0.5,0.656"
     id="path951" />
  <path
     style="fill:#fab41d;fill-opacity:1;fill-rule:nonzero;stroke:none"
     d="m 25.777967,101.17082 c 2.62,0.386 4.015,2.735 4.853,6.402 l -7.708,1.27 c -2.369,-1.65 -2.224,-4.828 -1.489,-6.093 0.656,-1.136 2.104,-1.917 4.344,-1.579"
     id="path952" />
  <path
     style="fill:none;stroke:#231f20;stroke-width:0.565977;stroke-linecap:butt;stroke-linejoin:miter;stroke-miterlimit:4;stroke-dasharray:none;stroke-opacity:1"
     d="m 25.777967,101.17082 c 2.62,0.386 4.015,2.735 4.853,6.402 l -7.708,1.27 c -2.369,-1.65 -2.224,-4.828 -1.489,-6.093 0.656,-1.136 2.104,-1.917 4.344,-1.579 z"
     id="path953" />
  <path
     style="fill:#231f20;fill-opacity:1;fill-rule:nonzero;stroke:none"
     d="m 3.8139665,99.946824 c 0.167,-0.614 1.7810003,-1.713 2.6670003,-3.052 0.598,-0.906 2.906,-2.385 3.437,-3.328 0.4840002,-0.869 0.7870002,-1.224 1.8710002,-0.838 0.645,0.218 1.738,1.078 1.593,1.568 -0.349,1.14 -0.948,1.864 -1.787,2.525 -0.958,0.756 -3.7290002,2.563 -4.2700002,2.849 -1.35,0.707996 -1.646,1.385996 -1.984,1.603996 -0.642,0.418 -0.959,0.271 -1.3140003,-0.077 -0.692,-0.677 -0.213,-1.250996 -0.213,-1.250996"
     id="path954" />
  <path
     style="fill:none;stroke:#231f20;stroke-width:0.565977;stroke-linecap:butt;stroke-linejoin:miter;stroke-miterlimit:4;stroke-dasharray:none;stroke-opacity:1"
     d="m 3.8139665,99.946824 c 0.167,-0.614 1.7810003,-1.713 2.6670003,-3.052 0.598,-0.906 2.906,-2.385 3.437,-3.328 0.4840002,-0.869 0.7870002,-1.224 1.8710002,-0.838 0.645,0.218 1.738,1.078 1.593,1.568 -0.349,1.14 -0.948,1.864 -1.787,2.525 -0.958,0.756 -3.7290002,2.563 -4.2700002,2.849 -1.35,0.707996 -1.646,1.385996 -1.984,1.603996 -0.642,0.418 -0.959,0.271 -1.3140003,-0.077 -0.692,-0.677 -0.213,-1.250996 -0.213,-1.250996 z"
     id="path955" />
  <path
     style="fill:#231f20;fill-opacity:1;fill-rule:nonzero;stroke:none"
     d="m 10.516967,93.864824 c -0.7550002,-1.052 1.084,-1.928 1.526,-2.23 0.454,-0.308 1.636,-1.318 2.454,-2.224 0.822,-0.917 2.234,-1.698 3.796,-3.422 0.824,-0.906 2.193,-1.266 3.458,-0.02 1.246,1.238 1.027,2.401 -0.134,3.353 -1.158,0.943 -2.647,1.344 -3.886,2.215 -1.234,0.869 -2.412,1.874 -3.297,2.708 -1.005,0.942 -1.849,1.041 -2.287,0.844 -1.098,-0.48 -1.63,-1.224 -1.63,-1.224"
     id="path956" />
  <path
     style="fill:none;stroke:#231f20;stroke-width:0.565977;stroke-linecap:butt;stroke-linejoin:miter;stroke-miterlimit:4;stroke-dasharray:none;stroke-opacity:1"
     d="m 10.516967,93.864824 c -0.7550002,-1.052 1.084,-1.928 1.526,-2.23 0.454,-0.308 1.636,-1.318 2.454,-2.224 0.822,-0.917 2.234,-1.698 3.796,-3.422 0.824,-0.906 2.193,-1.266 3.458,-0.02 1.246,1.238 1.027,2.401 -0.134,3.353 -1.158,0.943 -2.647,1.344 -3.886,2.215 -1.234,0.869 -2.412,1.874 -3.297,2.708 -1.005,0.942 -1.849,1.041 -2.287,0.844 -1.098,-0.48 -1.63,-1.224 -1.63,-1.224 z"
     id="path957" />
  <path
     style="fill:#231f20;fill-opacity:1;fill-rule:nonzero;stroke:none"
     d="m 0.29296654,105.83282 c 0.089,-0.735 1.56199996,-3.626 1.93799996,-4.271 0.328,-0.579 0.552,-1.712996 1.703,-1.619996 0.4640003,0.016 1.1200003,0.395996 1.3440003,0.614996 0.187,0.188 0.12,0.505 -0.104,0.822 -0.376,0.558 -0.709,0.574 -1.4910003,1.574 0,0 -0.224,0.213 -0.645,0.557 -1.249,1.052 -0.797,0.469 -2.27099996,2.401 -0.098,0.13 -0.312,0.126 -0.396,0.058 -0.134,-0.131 -0.078,-0.136 -0.078,-0.136"
     id="path958" />
  <path
     style="fill:none;stroke:#231f20;stroke-width:0.565977;stroke-linecap:round;stroke-linejoin:round;stroke-miterlimit:4;stroke-dasharray:none;stroke-opacity:1"
     d="m 0.29296654,105.83282 c 0.089,-0.735 1.56199996,-3.626 1.93799996,-4.271 0.328,-0.579 0.552,-1.712996 1.703,-1.619996 0.4640003,0.016 1.1200003,0.395996 1.3440003,0.614996 0.187,0.188 0.12,0.505 -0.104,0.822 -0.376,0.558 -0.709,0.574 -1.4910003,1.574 0,0 -0.224,0.213 -0.645,0.557 -1.249,1.052 -0.797,0.469 -2.27099996,2.401 -0.098,0.13 -0.312,0.126 -0.396,0.058 -0.134,-0.131 -0.078,-0.136 -0.078,-0.136 z"
     id="path959" />
  <path
     style="fill:#231f20;fill-opacity:1;fill-rule:nonzero;stroke:none"
     d="m 34.329967,140.86982 c -1.261,-0.496 -1.251,-1.491 -0.568,-2.272 0.203,-0.234 0.125,-0.646 0.349,-0.864 0.506,-0.484 2.244,-0.412 2.542,1.068 0.026,0.093 0.421,0.817 0.64,1.396 0.417,1.14 0.714,3.618 -0.99,5.718 -0.796,0.995 -1.238,0.334 -1.041,-0.166 0.651,-1.584 0.396,-1.85 0.407,-2.334 0.072,-1.614 -1.339,-2.546 -1.339,-2.546"
     id="path960" />
  <path
     style="fill:none;stroke:#231f20;stroke-width:0.332927;stroke-linecap:butt;stroke-linejoin:miter;stroke-miterlimit:4;stroke-dasharray:none;stroke-opacity:1"
     d="m 34.329967,140.86982 c -1.261,-0.496 -1.251,-1.491 -0.568,-2.272 0.203,-0.234 0.125,-0.646 0.349,-0.864 0.506,-0.484 2.244,-0.412 2.542,1.068 0.026,0.093 0.421,0.817 0.64,1.396 0.417,1.14 0.714,3.618 -0.99,5.718 -0.796,0.995 -1.238,0.334 -1.041,-0.166 0.651,-1.584 0.396,-1.85 0.407,-2.334 0.072,-1.614 -1.339,-2.546 -1.339,-2.546 z"
     id="path962" />
  <path
     style="fill:#231f20;fill-opacity:1;fill-rule:nonzero;stroke:none"
     d="m 170.94996,74.285824 c -0.71,-0.131 -3.918,0.427 -4.636,0.584 -0.656,0.14 -1.807,0.025 -2.068,1.151 -0.104,0.448 0.057,1.186 0.209,1.473 0.115,0.229 0.443,0.265 0.823,0.147 0.64,-0.204 0.738,-0.506 1.932,-0.959 0,0 0.265,-0.151 0.724,-0.453 1.374,-0.886 0.688,-0.626 2.958,-1.464 0.167,-0.058 0.224,-0.266 0.172,-0.37 -0.078,-0.161 -0.114,-0.109 -0.114,-0.109"
     id="path964" />
  <path
     style="fill:none;stroke:#231f20;stroke-width:0.565977;stroke-linecap:round;stroke-linejoin:round;stroke-miterlimit:4;stroke-dasharray:none;stroke-opacity:1"
     d="m 170.94996,74.285824 c -0.71,-0.131 -3.918,0.427 -4.636,0.584 -0.656,0.14 -1.807,0.025 -2.068,1.151 -0.104,0.448 0.057,1.186 0.209,1.473 0.115,0.229 0.443,0.265 0.823,0.147 0.64,-0.204 0.738,-0.506 1.932,-0.959 0,0 0.265,-0.151 0.724,-0.453 1.374,-0.886 0.688,-0.626 2.958,-1.464 0.167,-0.058 0.224,-0.266 0.172,-0.37 -0.078,-0.161 -0.114,-0.109 -0.114,-0.109 z"
     id="path965" />
  <path
     style="fill:#231f20;fill-opacity:1;fill-rule:nonzero;stroke:none"
     d="m 135.35996,56.051124 c 0.402,0.5987 1.178,3.7557 1.323,4.4857 0.131,0.65 0.704,1.661 -0.224,2.348 -0.369,0.281 -1.113,0.428 -1.432,0.406 -0.26,-0.016 -0.427,-0.302 -0.463,-0.697 -0.073,-0.667 0.162,-0.881 0.104,-2.157 0,0 0.026,-0.302 0.12,-0.843 0.266,-1.615 0.296,-0.876 0.156,-3.292 -0.016,-0.1774 0.151,-0.3134 0.271,-0.308 0.177,0.0053 0.145,0.0573 0.145,0.0573"
     id="path966" />
  <path
     style="fill:none;stroke:#231f20;stroke-width:0.565977;stroke-linecap:round;stroke-linejoin:round;stroke-miterlimit:4;stroke-dasharray:none;stroke-opacity:1"
     d="m 135.35996,56.051124 c 0.402,0.5987 1.178,3.7557 1.323,4.4857 0.131,0.65 0.704,1.661 -0.224,2.348 -0.369,0.281 -1.113,0.428 -1.432,0.406 -0.26,-0.016 -0.427,-0.302 -0.463,-0.697 -0.073,-0.667 0.162,-0.881 0.104,-2.157 0,0 0.026,-0.302 0.12,-0.843 0.266,-1.615 0.296,-0.876 0.156,-3.292 -0.016,-0.1774 0.151,-0.3134 0.271,-0.308 0.177,0.0053 0.145,0.0573 0.145,0.0573 z"
     id="path967" />
  <path
     style="fill:#231f20;fill-opacity:1;fill-rule:nonzero;stroke:none"
     d="m 143.93896,94.509824 c 1.156,-2.579 0.552,-5.355 -1.339,-6.203 -1.896,-0.849 -4.369,0.552 -5.521,3.13 -1.156,2.578 -0.557,5.36 1.339,6.209 1.896,0.843 4.37,-0.557 5.521,-3.136"
     id="path968" />
  <path
     style="fill:none;stroke:#231f20;stroke-width:0.565977;stroke-linecap:butt;stroke-linejoin:miter;stroke-miterlimit:4;stroke-dasharray:none;stroke-opacity:1"
     d="m 143.93896,94.509824 c 1.156,-2.579 0.552,-5.355 -1.339,-6.203 -1.896,-0.849 -4.369,0.552 -5.521,3.13 -1.156,2.578 -0.557,5.36 1.339,6.209 1.896,0.843 4.37,-0.557 5.521,-3.136 z"
     id="path969" />
  <path
     style="fill:#231f20;fill-opacity:1;fill-rule:nonzero;stroke:none"
     d="m 157.59996,80.930824 c -0.874,-0.957 -2.104,0.667 -2.494,1.043 -0.391,0.38 -1.626,1.333 -2.678,1.948 -1.057,0.619 -2.114,1.843 -4.114,3.02 -1.058,0.62 -1.688,1.891 -0.724,3.38 0.953,1.475 2.145,1.495 3.302,0.552 1.162,-0.943 1.859,-2.317 2.963,-3.348 1.104,-1.027 2.328,-1.98 3.319,-2.677 1.134,-0.798 1.396,-1.61 1.296,-2.079 -0.25,-1.167 -0.87,-1.839 -0.87,-1.839"
     id="path970" />
  <path
     style="fill:none;stroke:#231f20;stroke-width:0.565977;stroke-linecap:butt;stroke-linejoin:miter;stroke-miterlimit:4;stroke-dasharray:none;stroke-opacity:1"
     d="m 157.59996,80.930824 c -0.874,-0.957 -2.104,0.667 -2.494,1.043 -0.391,0.38 -1.626,1.333 -2.678,1.948 -1.057,0.619 -2.114,1.843 -4.114,3.02 -1.058,0.62 -1.688,1.891 -0.724,3.38 0.953,1.475 2.145,1.495 3.302,0.552 1.162,-0.943 1.859,-2.317 2.963,-3.348 1.104,-1.027 2.328,-1.98 3.319,-2.677 1.134,-0.798 1.396,-1.61 1.296,-2.079 -0.25,-1.167 -0.87,-1.839 -0.87,-1.839 z"
     id="path971" />
  <path
     style="fill:#231f20;fill-opacity:1;fill-rule:nonzero;stroke:none"
     d="m 166.19896,77.389824 c -0.244,0.599 -1.979,1.475 -3.031,2.699 -0.709,0.822 -3.193,1.994 -3.833,2.869 -0.589,0.792 -0.933,1.104 -1.964,0.588 -0.609,-0.301 -1.588,-1.291 -1.38,-1.755 0.484,-1.084 1.177,-1.729 2.099,-2.281 1.041,-0.625 4.021,-2.068 4.593,-2.281 1.428,-0.531 1.813,-1.167 2.177,-1.344 0.683,-0.334 0.975,-0.151 1.292,0.245 0.583,0.76 0.047,1.26 0.047,1.26"
     id="path972" />
  <path
     style="fill:none;stroke:#231f20;stroke-width:0.565977;stroke-linecap:butt;stroke-linejoin:miter;stroke-miterlimit:4;stroke-dasharray:none;stroke-opacity:1"
     d="m 166.19896,77.389824 c -0.244,0.599 -1.979,1.475 -3.031,2.699 -0.709,0.822 -3.193,1.994 -3.833,2.869 -0.589,0.792 -0.933,1.104 -1.964,0.588 -0.609,-0.301 -1.588,-1.291 -1.38,-1.755 0.484,-1.084 1.177,-1.729 2.099,-2.281 1.041,-0.625 4.021,-2.068 4.593,-2.281 1.428,-0.531 1.813,-1.167 2.177,-1.344 0.683,-0.334 0.975,-0.151 1.292,0.245 0.583,0.76 0.047,1.26 0.047,1.26 z"
     id="path973" />
  <path
     style="fill:#231f20;fill-opacity:1;fill-rule:nonzero;stroke:none"
     d="m 135.06396,71.738824 c -1.272,0.25 -0.516,2.146 -0.396,2.667 0.124,0.531 0.302,2.077 0.287,3.301 -0.016,1.224 0.484,2.762 0.457,5.084 -0.014,1.224 0.751,2.427 2.522,2.37 1.754,-0.058 2.385,-1.068 2.177,-2.547 -0.204,-1.484 -1.021,-2.787 -1.333,-4.265 -0.314,-1.479 -0.495,-3.022 -0.579,-4.224 -0.093,-1.386 -0.656,-2.027 -1.104,-2.188 -1.136,-0.386 -2.031,-0.198 -2.031,-0.198"
     id="path974" />
  <path
     style="fill:none;stroke:#231f20;stroke-width:0.565977;stroke-linecap:butt;stroke-linejoin:miter;stroke-miterlimit:4;stroke-dasharray:none;stroke-opacity:1"
     d="m 135.06396,71.738824 c -1.272,0.25 -0.516,2.146 -0.396,2.667 0.124,0.531 0.302,2.077 0.287,3.301 -0.016,1.224 0.484,2.762 0.457,5.084 -0.014,1.224 0.751,2.427 2.522,2.37 1.754,-0.058 2.385,-1.068 2.177,-2.547 -0.204,-1.484 -1.021,-2.787 -1.333,-4.265 -0.314,-1.479 -0.495,-3.022 -0.579,-4.224 -0.093,-1.386 -0.656,-2.027 -1.104,-2.188 -1.136,-0.386 -2.031,-0.198 -2.031,-0.198 z"
     id="path975" />
  <path
     style="fill:#231f20;fill-opacity:1;fill-rule:nonzero;stroke:none"
     d="m 136.47496,62.545824 c 0.385,0.516 0.24,2.459 0.745,3.985 0.339,1.031 0.058,3.76 0.474,4.766 0.38,0.91 0.469,1.374 -0.506,1.989 -0.577,0.36 -1.926,0.688 -2.218,0.271 -0.678,-0.979 -0.875,-1.907 -0.87,-2.974 0.006,-1.213 0.302,-4.516 0.416,-5.12 0.287,-1.494 -0.057,-2.146 -0.02,-2.552 0.068,-0.756 0.375,-0.912 0.87,-0.974 0.953,-0.115 1.109,0.609 1.109,0.609"
     id="path976" />
  <path
     style="fill:none;stroke:#231f20;stroke-width:0.565977;stroke-linecap:butt;stroke-linejoin:miter;stroke-miterlimit:4;stroke-dasharray:none;stroke-opacity:1"
     d="m 136.47496,62.545824 c 0.385,0.516 0.24,2.459 0.745,3.985 0.339,1.031 0.058,3.76 0.474,4.766 0.38,0.91 0.469,1.374 -0.506,1.989 -0.577,0.36 -1.926,0.688 -2.218,0.271 -0.678,-0.979 -0.875,-1.907 -0.87,-2.974 0.006,-1.213 0.302,-4.516 0.416,-5.12 0.287,-1.494 -0.057,-2.146 -0.02,-2.552 0.068,-0.756 0.375,-0.912 0.87,-0.974 0.953,-0.115 1.109,0.609 1.109,0.609 z"
     id="path977" />
  <path
     style="fill:#fab41d;fill-opacity:1;fill-rule:nonzero;stroke:none"
     d="m 152.92296,66.566824 c 0.443,0.214 0.797,0.87 0.797,0.87 0,0 -1.922,5.521 -0.146,8.078 l 0.318,0.167 c 0.14,-0.036 -0.88,0.859 -1.193,1.536 -1.38,2.943 -2.353,7.948 -2.281,9.287 0.109,1.828 2.218,1.745 0.688,4.286 0,0 -1.642,1.746 -3.98,0.188 -0.854,-0.557 -3.062,-1.026 -3.062,-1.026 0.031,-0.036 -4.297,-1.99 -4.308,-1.943 0,0 -1.672,-1.62 -2.63,-1.948 -2.662,-0.907 -2.223,-3.052 -2.223,-3.052 0.599,-2.307 2.239,-1.26 3.755,-2.297 1.104,-0.75 4.473,-4.578 5.968,-7.468 0.338,-0.656 0.057,-3.058 0.485,-1.88 l 0.323,0.145 c 3.114,-0.151 6.312,-5.047 6.312,-5.047 0,0 0.734,-0.114 1.177,0.104"
     id="path978" />
  <path
     style="fill:none;stroke:#231f20;stroke-width:0.565977;stroke-linecap:butt;stroke-linejoin:miter;stroke-miterlimit:4;stroke-dasharray:none;stroke-opacity:1"
     d="m 152.92296,66.566824 c 0.443,0.214 0.797,0.87 0.797,0.87 0,0 -1.922,5.521 -0.146,8.078 l 0.318,0.167 c 0.14,-0.036 -0.88,0.859 -1.193,1.536 -1.38,2.943 -2.353,7.948 -2.281,9.287 0.109,1.828 2.218,1.745 0.688,4.286 0,0 -1.642,1.746 -3.98,0.188 -0.854,-0.557 -3.062,-1.026 -3.062,-1.026 0.031,-0.036 -4.297,-1.99 -4.308,-1.943 0,0 -1.672,-1.62 -2.63,-1.948 -2.662,-0.907 -2.223,-3.052 -2.223,-3.052 0.599,-2.307 2.239,-1.26 3.755,-2.297 1.104,-0.75 4.473,-4.578 5.968,-7.468 0.338,-0.656 0.057,-3.058 0.485,-1.88 l 0.323,0.145 c 3.114,-0.151 6.312,-5.047 6.312,-5.047 0,0 0.734,-0.114 1.177,0.104 z"
     id="path979" />
  <path
     style="fill:#231f20;fill-opacity:1;fill-rule:nonzero;stroke:none"
     d="m 155.12196,72.452824 c 0.394,-3.588 2,-3.088 6.041,-3.651 4.411,-0.62 9.088,-0.792 12.281,0.052 3.558,0.937 3.859,0.511 4.302,2.375 0.448,1.864 -0.302,2.068 -1.13,3.062 -0.942,1.146 -8.141,-0.369 -12.824,0.459 -2.197,0.385 -7.645,1.724 -8.233,0.385 -0.579,-1.328 -0.437,-2.682 -0.437,-2.682"
     id="path980" />
  <path
     style="fill:none;stroke:#231f20;stroke-width:0.565977;stroke-linecap:butt;stroke-linejoin:miter;stroke-miterlimit:4;stroke-dasharray:none;stroke-opacity:1"
     d="m 155.12196,72.452824 c 0.394,-3.588 2,-3.088 6.041,-3.651 4.411,-0.62 9.088,-0.792 12.281,0.052 3.558,0.937 3.859,0.511 4.302,2.375 0.448,1.864 -0.302,2.068 -1.13,3.062 -0.942,1.146 -8.141,-0.369 -12.824,0.459 -2.197,0.385 -7.645,1.724 -8.233,0.385 -0.579,-1.328 -0.437,-2.682 -0.437,-2.682 z"
     id="path981" />
  <path
     style="fill:#231f20;fill-opacity:1;fill-rule:nonzero;stroke:#231f20;stroke-width:0.565977;stroke-linecap:butt;stroke-linejoin:miter;stroke-miterlimit:4;stroke-dasharray:none;stroke-opacity:1"
     d="m 175.80796,70.077824 c 0.251,-0.428 0.855,-0.573 2.104,-0.527 0.636,0.022 2.396,0.219 2.776,0.126 1.262,-0.303 2.751,-0.547 9.12,1.14 0.984,0.266 2.954,0.444 4.339,0.677 1.333,0.235 0.041,2.303 -0.489,2.209 -1.688,-0.272 -2.834,-0.084 -3.459,-0.1 -0.427,-0.005 -1.224,-0.172 -2.844,0.199 -4.172,0.937 -5.563,-0.213 -6.452,-0.089 -2.557,0.338 -4.672,1.161 -5,0.584"
     id="path982" />
  <path
     style="fill:#231f20;fill-opacity:1;fill-rule:nonzero;stroke:none"
     d="m 147.09496,67.952824 c 2.251,-2.812 0.755,-3.588 -1.708,-6.839 -2.693,-3.5574 -5.88,-6.9787 -8.735,-8.6307 -3.193,-1.848 -3.093,-2.3586 -4.734,-1.3533 -1.63,1.0053 -1.244,1.6773 -1.359,2.9626 -0.136,1.4907 6.041,5.4854 8.765,9.3764 1.282,1.822 3.172,7.014 4.526,6.484 1.349,-0.542 3.245,-2 3.245,-2"
     id="path983" />
  <path
     style="fill:none;stroke:#231f20;stroke-width:0.565977;stroke-linecap:butt;stroke-linejoin:miter;stroke-miterlimit:4;stroke-dasharray:none;stroke-opacity:1"
     d="m 147.09496,67.952824 c 2.251,-2.812 0.755,-3.588 -1.708,-6.839 -2.693,-3.5574 -5.88,-6.9787 -8.735,-8.6307 -3.193,-1.848 -3.093,-2.3586 -4.734,-1.3533 -1.63,1.0053 -1.244,1.6773 -1.359,2.9626 -0.136,1.4907 6.041,5.4854 8.765,9.3764 1.282,1.822 3.172,7.014 4.526,6.484 1.349,-0.542 3.245,-2 3.245,-2 z"
     id="path984" />
  <path
     style="fill:#231f20;fill-opacity:1;fill-rule:nonzero;stroke:none"
     d="m 132.53796,53.301824 c 1.77,-1.412 2.312,-1.8027 0.464,-3.4853 -0.475,-0.432 -1.871,-1.5254 -2.074,-1.864 -0.688,-1.0987 -1.578,-2.3174 -7.292,-5.5787 -0.896,-0.504 -2.421,-1.76 -3.572,-2.5573 -1.114,-0.7707 -1.641,1.6053 -1.209,1.9066 1.401,0.9894 2.089,1.932 2.543,2.36 0.312,0.2907 0.989,0.7387 1.885,2.1347 2.317,3.5987 4.115,3.7507 4.661,4.4587 1.583,2.0413 2.515,4.1146 3.151,3.9266 1.036,-0.312 1.443,-1.3013 1.443,-1.3013"
     id="path985" />
  <path
     style="fill:none;stroke:#231f20;stroke-width:0.565977;stroke-linecap:butt;stroke-linejoin:miter;stroke-miterlimit:4;stroke-dasharray:none;stroke-opacity:1"
     d="m 132.53796,53.301824 c 1.77,-1.412 2.312,-1.8027 0.464,-3.4853 -0.475,-0.432 -1.871,-1.5254 -2.074,-1.864 -0.688,-1.0987 -1.578,-2.3174 -7.292,-5.5787 -0.896,-0.504 -2.421,-1.76 -3.572,-2.5573 -1.114,-0.7707 -1.641,1.6053 -1.209,1.9066 1.401,0.9894 2.089,1.932 2.543,2.36 0.312,0.2907 0.989,0.7387 1.885,2.1347 2.317,3.5987 4.115,3.7507 4.661,4.4587 1.583,2.0413 2.515,4.1146 3.151,3.9266 1.036,-0.312 1.443,-1.3013 1.443,-1.3013 z"
     id="path986" />
  <path
     style="fill:#231f20;fill-opacity:1;fill-rule:nonzero;stroke:none"
     d="m 119.56396,36.832524 c 0.619,0.2453 0.656,2.0467 1.984,3.5 0.271,0.2973 0.344,0.6666 0.479,1.016 0.552,1.4066 0.281,2.9786 -2.932,0.9013 -0.448,-0.292 -1.583,-2.052 -2.271,-2.428 -1.641,-0.88 -2.464,-4.0986 -2.005,-4.3386 0.989,-0.536 4.745,1.3493 4.745,1.3493"
     id="path987" />
  <path
     style="fill:none;stroke:#231f20;stroke-width:0.644548;stroke-linecap:round;stroke-linejoin:round;stroke-miterlimit:4;stroke-dasharray:none;stroke-opacity:1"
     d="m 119.56396,36.832524 c 0.619,0.2453 0.656,2.0467 1.984,3.5 0.271,0.2973 0.344,0.6666 0.479,1.016 0.552,1.4066 0.281,2.9786 -2.932,0.9013 -0.448,-0.292 -1.583,-2.052 -2.271,-2.428 -1.641,-0.88 -2.464,-4.0986 -2.005,-4.3386 0.989,-0.536 4.745,1.3493 4.745,1.3493 z"
     id="path988" />
  <path
     style="fill:#231f20;fill-opacity:1;fill-rule:nonzero;stroke:none"
     d="m 198.03196,70.154824 c -0.604,-0.27 -1.921,0.964 -3.89,1.032 -0.402,0.016 -0.714,0.214 -1.063,0.359 -1.391,0.589 -2.323,1.885 1.412,2.735 0.521,0.114 2.573,-0.312 3.323,-0.074 1.776,0.558 4.656,-1.109 4.51,-1.604 -0.308,-1.077 -4.292,-2.448 -4.292,-2.448"
     id="path989" />
  <path
     style="fill:none;stroke:#231f20;stroke-width:0.644548;stroke-linecap:round;stroke-linejoin:round;stroke-miterlimit:4;stroke-dasharray:none;stroke-opacity:1"
     d="m 198.03196,70.154824 c -0.604,-0.27 -1.921,0.964 -3.89,1.032 -0.402,0.016 -0.714,0.214 -1.063,0.359 -1.391,0.589 -2.323,1.885 1.412,2.735 0.521,0.114 2.573,-0.312 3.323,-0.074 1.776,0.558 4.656,-1.109 4.51,-1.604 -0.308,-1.077 -4.292,-2.448 -4.292,-2.448 z"
     id="path990" />
  <path
     style="fill:#fab41d;fill-opacity:1;fill-rule:nonzero;stroke:#231f20;stroke-width:0.565977;stroke-linecap:round;stroke-linejoin:round;stroke-miterlimit:4;stroke-dasharray:none;stroke-opacity:1"
     d="m 153.62596,76.004824 c -4.234,-3 -8.812,-3.927 -8.812,-3.927 -0.23,-1.495 -1.558,-2.125 -1.558,-2.125 3.86,-2.615 3.886,-6.891 3.886,-6.891 4.537,1.099 5.713,3.151 5.713,3.151 3.401,-0.276 5.813,2.589 5.813,2.589 -3.453,2.62 -2.761,6.828 -2.761,6.828 -1.437,-0.229 -2.172,0.255 -2.172,0.255"
     id="path991" />
  <path
     style="fill:none;stroke:#231f20;stroke-width:0.332927;stroke-linecap:round;stroke-linejoin:round;stroke-miterlimit:4;stroke-dasharray:none;stroke-opacity:1"
     d="m 143.78796,86.588824 2.438,-5.48"
     id="path992" />
  <path
     style="fill:#231f20;fill-opacity:1;fill-rule:nonzero;stroke:none"
     d="m 213.17896,78.842824 c 0.14,-0.708 1.807,-3.5 2.213,-4.114 0.37,-0.563 0.676,-1.678 1.812,-1.516 0.464,0.062 1.094,0.48 1.308,0.718 0.171,0.194 0.088,0.516 -0.162,0.824 -0.416,0.526 -0.734,0.51 -1.588,1.458 0,0 -0.235,0.193 -0.683,0.516 -1.323,0.958 -0.828,0.412 -2.427,2.229 -0.114,0.135 -0.328,0.115 -0.412,0.031 -0.118,-0.13 -0.061,-0.146 -0.061,-0.146"
     id="path993" />
  <path
     style="fill:none;stroke:#231f20;stroke-width:0.565977;stroke-linecap:round;stroke-linejoin:round;stroke-miterlimit:4;stroke-dasharray:none;stroke-opacity:1"
     d="m 213.17896,78.842824 c 0.14,-0.708 1.807,-3.5 2.213,-4.114 0.37,-0.563 0.676,-1.678 1.812,-1.516 0.464,0.062 1.094,0.48 1.308,0.718 0.171,0.194 0.088,0.516 -0.162,0.824 -0.416,0.526 -0.734,0.51 -1.588,1.458 0,0 -0.235,0.193 -0.683,0.516 -1.323,0.958 -0.828,0.412 -2.427,2.229 -0.114,0.135 -0.328,0.115 -0.412,0.031 -0.118,-0.13 -0.061,-0.146 -0.061,-0.146 z"
     id="path994" />
  <path
     style="fill:#231f20;fill-opacity:1;fill-rule:nonzero;stroke:none"
     d="m 203.65796,58.978824 c 0.625,0.37 3.817,0.963 4.552,1.067 0.661,0.095 1.697,0.604 2.333,-0.353 0.26,-0.386 0.364,-1.142 0.328,-1.459 -0.031,-0.255 -0.328,-0.407 -0.724,-0.421 -0.672,-0.032 -0.869,0.213 -2.151,0.224 0,0 -0.297,0.052 -0.833,0.17 -1.593,0.355 -0.86,0.35 -3.281,0.344 -0.172,-0.005 -0.298,0.167 -0.292,0.282 0.016,0.182 0.068,0.146 0.068,0.146"
     id="path995" />
  <path
     style="fill:none;stroke:#231f20;stroke-width:0.565977;stroke-linecap:round;stroke-linejoin:round;stroke-miterlimit:4;stroke-dasharray:none;stroke-opacity:1"
     d="m 203.65796,58.978824 c 0.625,0.37 3.817,0.963 4.552,1.067 0.661,0.095 1.697,0.604 2.333,-0.353 0.26,-0.386 0.364,-1.142 0.328,-1.459 -0.031,-0.255 -0.328,-0.407 -0.724,-0.421 -0.672,-0.032 -0.869,0.213 -2.151,0.224 0,0 -0.297,0.052 -0.833,0.17 -1.593,0.355 -0.86,0.35 -3.281,0.344 -0.172,-0.005 -0.298,0.167 -0.292,0.282 0.016,0.182 0.068,0.146 0.068,0.146 z"
     id="path996" />
  <path
     style="fill:#231f20;fill-opacity:1;fill-rule:nonzero;stroke:none"
     d="m 226.77796,64.197824 c 2.541,-1.224 3.88,-3.729 2.978,-5.604 -0.896,-1.876 -3.688,-2.4014 -6.234,-1.1774 -2.547,1.2244 -3.886,3.7294 -2.984,5.5984 0.896,1.875 3.688,2.402 6.24,1.183"
     id="path997" />
  <path
     style="fill:none;stroke:#231f20;stroke-width:0.565977;stroke-linecap:butt;stroke-linejoin:miter;stroke-miterlimit:4;stroke-dasharray:none;stroke-opacity:1"
     d="m 226.77796,64.197824 c 2.541,-1.224 3.88,-3.729 2.978,-5.604 -0.896,-1.876 -3.688,-2.4014 -6.234,-1.1774 -2.547,1.2244 -3.886,3.7294 -2.984,5.5984 0.896,1.875 3.688,2.402 6.24,1.183 z"
     id="path998" />
  <path
     style="fill:#231f20;fill-opacity:1;fill-rule:nonzero;stroke:none"
     d="m 224.18296,68.774824 c -0.577,-1.161 1.381,-1.724 1.871,-1.953 0.494,-0.224 1.822,-1.036 2.781,-1.796 0.957,-0.761 2.479,-1.308 4.296,-2.756 0.959,-0.76 2.371,-0.896 3.412,0.543 1.036,1.421 0.625,2.536 -0.672,3.28 -1.292,0.745 -2.828,0.901 -4.188,1.562 -1.359,0.658 -2.687,1.459 -3.692,2.131 -1.151,0.776 -2.005,0.729 -2.401,0.469 -1,-0.657 -1.407,-1.48 -1.407,-1.48"
     id="path999" />
  <path
     style="fill:none;stroke:#231f20;stroke-width:0.565977;stroke-linecap:butt;stroke-linejoin:miter;stroke-miterlimit:4;stroke-dasharray:none;stroke-opacity:1"
     d="m 224.18296,68.774824 c -0.577,-1.161 1.381,-1.724 1.871,-1.953 0.494,-0.224 1.822,-1.036 2.781,-1.796 0.957,-0.761 2.479,-1.308 4.296,-2.756 0.959,-0.76 2.371,-0.896 3.412,0.543 1.036,1.421 0.625,2.536 -0.672,3.28 -1.292,0.745 -2.828,0.901 -4.188,1.562 -1.359,0.658 -2.687,1.459 -3.692,2.131 -1.151,0.776 -2.005,0.729 -2.401,0.469 -1,-0.657 -1.407,-1.48 -1.407,-1.48 z"
     id="path1000" />
  <path
     style="fill:#231f20;fill-opacity:1;fill-rule:nonzero;stroke:none"
     d="m 217.78796,75.525824 c 0.646,-0.011 2.088,-1.319 3.604,-1.855 1.026,-0.364 3.01,-2.26 4.058,-2.546 0.952,-0.26 1.369,-0.475 1.254,-1.62 -0.062,-0.678 -0.63,-1.943 -1.14,-1.916 -1.188,0.057 -2.042,0.473 -2.885,1.129 -0.959,0.751 -3.376,3.011 -3.781,3.469 -1.006,1.14 -1.735,1.271 -2.032,1.547 -0.558,0.521 -0.495,0.86 -0.24,1.297 0.496,0.818 1.162,0.495 1.162,0.495"
     id="path1001" />
  <path
     style="fill:none;stroke:#231f20;stroke-width:0.565977;stroke-linecap:butt;stroke-linejoin:miter;stroke-miterlimit:4;stroke-dasharray:none;stroke-opacity:1"
     d="m 217.78796,75.525824 c 0.646,-0.011 2.088,-1.319 3.604,-1.855 1.026,-0.364 3.01,-2.26 4.058,-2.546 0.952,-0.26 1.369,-0.475 1.254,-1.62 -0.062,-0.678 -0.63,-1.943 -1.14,-1.916 -1.188,0.057 -2.042,0.473 -2.885,1.129 -0.959,0.751 -3.376,3.011 -3.781,3.469 -1.006,1.14 -1.735,1.271 -2.032,1.547 -0.558,0.521 -0.495,0.86 -0.24,1.297 0.496,0.818 1.162,0.495 1.162,0.495 z"
     id="path1002" />
  <path
     style="fill:#231f20;fill-opacity:1;fill-rule:nonzero;stroke:none"
     d="m 218.71996,56.749824 c 0.61,1.14 2.198,-0.136 2.667,-0.4067 0.468,-0.2707 1.896,-0.8907 3.072,-1.2347 1.177,-0.3386 2.5,-1.2653 4.729,-1.9213 1.172,-0.344 2.1,-1.4226 1.527,-3.0986 -0.563,-1.6627 -1.713,-1.9747 -3.068,-1.344 -1.359,0.6293 -2.364,1.792 -3.692,2.5253 -1.324,0.7293 -2.74,1.3493 -3.871,1.7867 -1.296,0.4946 -1.744,1.2186 -1.77,1.6933 -0.036,1.192 0.406,2 0.406,2"
     id="path1003" />
  <path
     style="fill:none;stroke:#231f20;stroke-width:0.565977;stroke-linecap:butt;stroke-linejoin:miter;stroke-miterlimit:4;stroke-dasharray:none;stroke-opacity:1"
     d="m 218.71996,56.749824 c 0.61,1.14 2.198,-0.136 2.667,-0.4067 0.468,-0.2707 1.896,-0.8907 3.072,-1.2347 1.177,-0.3386 2.5,-1.2653 4.729,-1.9213 1.172,-0.344 2.1,-1.4226 1.527,-3.0986 -0.563,-1.6627 -1.713,-1.9747 -3.068,-1.344 -1.359,0.6293 -2.364,1.792 -3.692,2.5253 -1.324,0.7293 -2.74,1.3493 -3.871,1.7867 -1.296,0.4946 -1.744,1.2186 -1.77,1.6933 -0.036,1.192 0.406,2 0.406,2 z"
     id="path1004" />
  <path
     style="fill:#231f20;fill-opacity:1;fill-rule:nonzero;stroke:none"
     d="m 209.51196,58.082824 c 0.386,-0.521 2.28,-0.9477 3.599,-1.8757 0.885,-0.624 3.577,-1.1507 4.416,-1.8427 0.765,-0.636 1.177,-0.8493 2.052,-0.1 0.511,0.448 1.219,1.6414 0.901,2.0427 -0.734,0.9373 -1.562,1.3907 -2.582,1.6977 -1.167,0.354 -4.407,1.026 -5.022,1.098 -1.51,0.167 -2.036,0.683 -2.432,0.767 -0.745,0.156 -0.985,-0.095 -1.193,-0.553 -0.385,-0.88 0.261,-1.234 0.261,-1.234"
     id="path1005" />
  <path
     style="fill:none;stroke:#231f20;stroke-width:0.565977;stroke-linecap:butt;stroke-linejoin:miter;stroke-miterlimit:4;stroke-dasharray:none;stroke-opacity:1"
     d="m 209.51196,58.082824 c 0.386,-0.521 2.28,-0.9477 3.599,-1.8757 0.885,-0.624 3.577,-1.1507 4.416,-1.8427 0.765,-0.636 1.177,-0.8493 2.052,-0.1 0.511,0.448 1.219,1.6414 0.901,2.0427 -0.734,0.9373 -1.562,1.3907 -2.582,1.6977 -1.167,0.354 -4.407,1.026 -5.022,1.098 -1.51,0.167 -2.036,0.683 -2.432,0.767 -0.745,0.156 -0.985,-0.095 -1.193,-0.553 -0.385,-0.88 0.261,-1.234 0.261,-1.234 z"
     id="path1006" />
  <path
     style="fill:#fab41d;fill-opacity:1;fill-rule:nonzero;stroke:none"
     d="m 251.67796,48.671124 c 0.21,0.4534 0.05,1.1827 0.05,1.1827 0,0 -5.03,2.9733 -5.33,6.068 l 0.13,0.3333 c 0.13,0.0613 -1.22,0.088 -1.9,0.4 -2.949,1.3547 -6.929,4.5477 -7.73,5.6147 -1.106,1.469 0.557,2.767 -2.256,3.713 0,0 -2.375,0.272 -3.151,-2.426 -0.292,-0.979 -1.672,-2.76 -1.672,-2.76 0.041,-0.011 -2,-4.2977 -2.036,-4.271 0,0 -0.229,-2.3134 -0.751,-3.1827 -1.448,-2.412 0.276,-3.7653 0.276,-3.7653 1.948,-1.3747 2.527,0.484 4.35,0.672 1.328,0.1453 6.374,-0.6 9.385,-1.8387 0.677,-0.292 2.016,-2.3026 1.579,-1.1253 l 0.156,0.3173 c 2.47,1.896 8.07,0.2294 8.07,0.2294 0,0 0.64,0.3853 0.83,0.8386"
     id="path1007" />
  <path
     style="fill:none;stroke:#231f20;stroke-width:0.565977;stroke-linecap:butt;stroke-linejoin:miter;stroke-miterlimit:4;stroke-dasharray:none;stroke-opacity:1"
     d="m 251.67796,48.671124 c 0.21,0.4534 0.05,1.1827 0.05,1.1827 0,0 -5.03,2.9733 -5.33,6.068 l 0.13,0.3333 c 0.13,0.0613 -1.22,0.088 -1.9,0.4 -2.949,1.3547 -6.929,4.5477 -7.73,5.6147 -1.106,1.469 0.557,2.767 -2.256,3.713 0,0 -2.375,0.272 -3.151,-2.426 -0.292,-0.979 -1.672,-2.76 -1.672,-2.76 0.041,-0.011 -2,-4.2977 -2.036,-4.271 0,0 -0.229,-2.3134 -0.751,-3.1827 -1.448,-2.412 0.276,-3.7653 0.276,-3.7653 1.948,-1.3747 2.527,0.484 4.35,0.672 1.328,0.1453 6.374,-0.6 9.385,-1.8387 0.677,-0.292 2.016,-2.3026 1.579,-1.1253 l 0.156,0.3173 c 2.47,1.896 8.07,0.2294 8.07,0.2294 0,0 0.64,0.3853 0.83,0.8386 z"
     id="path1008" />
  <path
     style="fill:#231f20;fill-opacity:1;fill-rule:nonzero;stroke:none"
     d="m 249.56796,54.583124 c 2.61,-2.48 3.52,-1.0626 6.96,1.12 3.77,2.3747 7.45,5.2657 9.34,7.9677 2.11,3.022 2.62,2.891 1.75,4.599 -0.86,1.713 -1.57,1.38 -2.84,1.604 -1.46,0.267 -5.98,-5.541 -10.08,-7.937 -1.93,-1.12 -6.95,-3.62 -6.54,-5.0204 0.42,-1.3906 1.41,-2.3333 1.41,-2.3333"
     id="path1009" />
  <path
     style="fill:none;stroke:#231f20;stroke-width:0.565977;stroke-linecap:butt;stroke-linejoin:miter;stroke-miterlimit:4;stroke-dasharray:none;stroke-opacity:1"
     d="m 249.56796,54.583124 c 2.61,-2.48 3.52,-1.0626 6.96,1.12 3.77,2.3747 7.45,5.2657 9.34,7.9677 2.11,3.022 2.62,2.891 1.75,4.599 -0.86,1.713 -1.57,1.38 -2.84,1.604 -1.46,0.267 -5.98,-5.541 -10.08,-7.937 -1.93,-1.12 -6.95,-3.62 -6.54,-5.0204 0.42,-1.3906 1.41,-2.3333 1.41,-2.3333 z"
     id="path1010" />
  <path
     style="fill:#231f20;fill-opacity:1;fill-rule:nonzero;stroke:#231f20;stroke-width:0.565977;stroke-linecap:butt;stroke-linejoin:miter;stroke-miterlimit:4;stroke-dasharray:none;stroke-opacity:1"
     d="m 266.87796,66.140824 c 0.48,-0.167 1.03,0.109 1.95,0.952 0.47,0.433 1.69,1.72 2.04,1.89 1.16,0.59 2.45,1.366 6.22,6.767 0.59,0.833 1.97,2.244 2.87,3.323 0.88,1.041 -1.45,1.776 -1.8,1.369 -1.1,-1.301 -2.1,-1.901 -2.57,-2.317 -0.32,-0.276 -0.82,-0.918 -2.3,-1.683 -3.79,-1.979 -4.11,-3.755 -4.87,-4.239 -2.17,-1.39 -4.31,-2.13 -4.19,-2.781"
     id="path1011" />
  <path
     style="fill:#231f20;fill-opacity:1;fill-rule:nonzero;stroke:none"
     d="m 246.34796,45.963124 c 3.53,-0.6933 2.89,-2.2506 3.11,-6.3226 0.24,-4.4533 0.02,-9.1253 -1.09,-12.2347 -1.24,-3.4693 -0.84,-3.7973 -2.74,-4.0893 -1.893,-0.2853 -2.033,0.48 -2.949,1.3867 -1.068,1.0467 1.061,8.0826 0.635,12.8173 -0.203,2.2187 -2.12,7.4066 -0.74,7.8693 1.376,0.464 3.774,0.5733 3.774,0.5733"
     id="path1012" />
  <path
     style="fill:none;stroke:#231f20;stroke-width:0.565977;stroke-linecap:butt;stroke-linejoin:miter;stroke-miterlimit:4;stroke-dasharray:none;stroke-opacity:1"
     d="m 246.34796,45.963124 c 3.53,-0.6933 2.89,-2.2506 3.11,-6.3226 0.24,-4.4533 0.02,-9.1253 -1.09,-12.2347 -1.24,-3.4693 -0.84,-3.7973 -2.74,-4.0893 -1.893,-0.2853 -2.033,0.48 -2.949,1.3867 -1.068,1.0467 1.061,8.0826 0.635,12.8173 -0.203,2.2187 -2.12,7.4066 -0.74,7.8693 1.376,0.464 3.774,0.5733 3.774,0.5733 z"
     id="path1013" />
  <path
     style="fill:#231f20;fill-opacity:1;fill-rule:nonzero;stroke:none"
     d="m 244.69796,25.369924 c 2.27,0.072 2.93,0.124 2.6,-2.3547 -0.08,-0.636 -0.43,-2.3693 -0.37,-2.76 0.18,-1.2867 0.3,-2.792 -1.96,-8.9746 -0.36,-0.9587 -0.71,-2.9014003 -1.076,-4.2547003 -0.354,-1.3133 -2.286,0.1613 -2.157,0.672 0.433,1.6667 0.344,2.8227003 0.417,3.4480003 0.047,0.4213 0.276,1.1973 0.058,2.8426 -0.558,4.2454 0.718,5.516 0.682,6.4174 -0.114,2.5826 -0.74,4.7653 -0.136,5.0306 0.995,0.4334 1.942,-0.0666 1.942,-0.0666"
     id="path1014" />
  <path
     style="fill:none;stroke:#231f20;stroke-width:0.565977;stroke-linecap:butt;stroke-linejoin:miter;stroke-miterlimit:4;stroke-dasharray:none;stroke-opacity:1"
     d="m 244.69796,25.369924 c 2.27,0.072 2.93,0.124 2.6,-2.3547 -0.08,-0.636 -0.43,-2.3693 -0.37,-2.76 0.18,-1.2867 0.3,-2.792 -1.96,-8.9746 -0.36,-0.9587 -0.71,-2.9014003 -1.076,-4.2547003 -0.354,-1.3133 -2.286,0.1613 -2.157,0.672 0.433,1.6667 0.344,2.8227003 0.417,3.4480003 0.047,0.4213 0.276,1.1973 0.058,2.8426 -0.558,4.2454 0.718,5.516 0.682,6.4174 -0.114,2.5826 -0.74,4.7653 -0.136,5.0306 0.995,0.4334 1.942,-0.0666 1.942,-0.0666 z"
     id="path1015" />
  <path
     style="fill:#231f20;fill-opacity:1;fill-rule:nonzero;stroke:none"
     d="m 245.43796,4.4219237 c 0.32,0.5827 -0.82,1.9893 -0.75,3.952 0.02,0.4013 -0.17,0.7347 -0.29,1.0893 -0.486,1.4320003 -1.71,2.4534003 -2.819,-1.208 -0.151,-0.5106 0.12,-2.5893 -0.167,-3.324 -0.677,-1.728 0.771,-4.71859998 1.276,-4.60389998 1.1,0.2293 2.75,4.09459998 2.75,4.09459998"
     id="path1016" />
  <path
     style="fill:none;stroke:#231f20;stroke-width:0.644548;stroke-linecap:round;stroke-linejoin:round;stroke-miterlimit:4;stroke-dasharray:none;stroke-opacity:1"
     d="m 245.43796,4.4219237 c 0.32,0.5827 -0.82,1.9893 -0.75,3.952 0.02,0.4013 -0.17,0.7347 -0.29,1.0893 -0.486,1.4320003 -1.71,2.4534003 -2.819,-1.208 -0.151,-0.5106 0.12,-2.5893 -0.167,-3.324 -0.677,-1.728 0.771,-4.71859998 1.276,-4.60389998 1.1,0.2293 2.75,4.09459998 2.75,4.09459998 z"
     id="path1017" />
  <path
     style="fill:#231f20;fill-opacity:1;fill-rule:nonzero;stroke:none"
     d="m 283.78796,80.556824 c -0.28,-0.599 -2.08,-0.506 -3.63,-1.724 -0.31,-0.25 -0.68,-0.302 -1.04,-0.411 -1.44,-0.453 -2.99,-0.063 -0.69,2.995 0.32,0.426 2.17,1.432 2.58,2.093 1,1.573 4.27,2.156 4.48,1.688 0.46,-1.021 -1.7,-4.641 -1.7,-4.641"
     id="path1018" />
  <path
     style="fill:none;stroke:#231f20;stroke-width:0.644548;stroke-linecap:round;stroke-linejoin:round;stroke-miterlimit:4;stroke-dasharray:none;stroke-opacity:1"
     d="m 283.78796,80.556824 c -0.28,-0.599 -2.08,-0.506 -3.63,-1.724 -0.31,-0.25 -0.68,-0.302 -1.04,-0.411 -1.44,-0.453 -2.99,-0.063 -0.69,2.995 0.32,0.426 2.17,1.432 2.58,2.093 1,1.573 4.27,2.156 4.48,1.688 0.46,-1.021 -1.7,-4.641 -1.7,-4.641 z"
     id="path1019" />
  <path
     style="fill:#fab41d;fill-opacity:1;fill-rule:nonzero;stroke:#231f20;stroke-width:0.565977;stroke-linecap:round;stroke-linejoin:round;stroke-miterlimit:4;stroke-dasharray:none;stroke-opacity:1"
     d="m 246.12796,56.332424 c -1.3,-5.0306 -4.194,-8.6919 -4.194,-8.6919 0.792,-1.2867 0.188,-2.6307 0.188,-2.6307 4.636,0.5 7.236,-2.4067 7.236,-2.4067 2,2.308 2.43,5.5 2.43,5.5 2.35,2.3187 2.73,5.724 2.73,5.724 -3.27,1.12 -6.41,3.688 -6.41,3.688 -0.95,-1.0987 -1.83,-1.2027 -1.83,-1.2027"
     id="path1020" />
  <path
     style="fill:none;stroke:#231f20;stroke-width:0.332927;stroke-linecap:round;stroke-linejoin:round;stroke-miterlimit:4;stroke-dasharray:none;stroke-opacity:1"
     d="m 231.77796,58.045824 5.401,-2.604"
     id="path1021" />
  <path
     style="fill:#fab41d;fill-opacity:1;fill-rule:nonzero;stroke:#231f20;stroke-width:0.332927;stroke-linecap:round;stroke-linejoin:round;stroke-miterlimit:4;stroke-dasharray:none;stroke-opacity:1"
     d="m 152.58996,66.468824 -0.583,1.312"
     id="path1022" />
  <path
     style="fill:#fab41d;fill-opacity:1;fill-rule:nonzero;stroke:#231f20;stroke-width:0.332927;stroke-linecap:round;stroke-linejoin:round;stroke-miterlimit:4;stroke-dasharray:none;stroke-opacity:1"
     d="m 251.27796,48.343124 -1.27,0.6614"
     id="path1023" />
  <path
     style="fill:#231f20;fill-opacity:1;fill-rule:nonzero;stroke:none"
     d="m 329.60796,141.96282 c 0.16,-1.349 -0.73,-1.803 -1.73,-1.579 -0.3,0.074 -0.63,-0.181 -0.92,-0.093 -0.68,0.208 -1.43,1.787 -0.28,2.745 0.09,0.072 0.53,0.755 0.94,1.224 0.81,0.906 2.86,2.328 5.51,1.823 1.26,-0.24 0.88,-0.937 0.34,-0.995 -1.7,-0.182 -1.82,-0.532 -2.24,-0.74 -1.46,-0.708 -1.62,-2.385 -1.62,-2.385"
     id="path1024" />
  <path
     style="fill:none;stroke:#231f20;stroke-width:0.332927;stroke-linecap:butt;stroke-linejoin:miter;stroke-miterlimit:4;stroke-dasharray:none;stroke-opacity:1"
     d="m 329.60796,141.96282 c 0.16,-1.349 -0.73,-1.803 -1.73,-1.579 -0.3,0.074 -0.63,-0.181 -0.92,-0.093 -0.68,0.208 -1.43,1.787 -0.28,2.745 0.09,0.072 0.53,0.755 0.94,1.224 0.81,0.906 2.86,2.328 5.51,1.823 1.26,-0.24 0.88,-0.937 0.34,-0.995 -1.7,-0.182 -1.82,-0.532 -2.24,-0.74 -1.46,-0.708 -1.62,-2.385 -1.62,-2.385 z"
     id="path1026" />
</svg>
