<?xml version="1.0" encoding="UTF-8" standalone="no"?>
<!-- Created with Inkscape (http://www.inkscape.org/) -->

<svg
   version="1.1"
   id="svg1"
   width="280.59955"
   height="117.33574"
   viewBox="0 0 280.59954 117.33574"
   sodipodi:docname="cell.svg"
   xmlns:inkscape="http://www.inkscape.org/namespaces/inkscape"
   xmlns:sodipodi="http://sodipodi.sourceforge.net/DTD/sodipodi-0.dtd"
   xmlns="http://www.w3.org/2000/svg"
   xmlns:svg="http://www.w3.org/2000/svg">
  <sodipodi:namedview
     id="namedview1"
     pagecolor="#ffffff"
     bordercolor="#000000"
     borderopacity="0.25"
     inkscape:showpageshadow="2"
     inkscape:pageopacity="0.0"
     inkscape:pagecheckerboard="0"
     inkscape:deskcolor="#d1d1d1">
    <inkscape:page
       x="0"
       y="0"
       inkscape:label="1"
       id="page1"
       width="280.59955"
       height="117.33574"
       margin="0"
       bleed="0" />
  </sodipodi:namedview>
  <defs
     id="defs1" />
  <path
     style="fill:#ffffff;fill-opacity:1;fill-rule:nonzero;stroke:none"
     d="m 21.157336,56.619652 c -0.1468,-0.188 -1.2093,0.26 -1.4484,-0.204 -0.2396,-0.468 0.3443,-0.995 0.276,-2.984 v -0.021 c -0.1036,-1.452 0.4016,-2.744 1.4641,-3.411 1.7547,-1.099 4.4,-0.047 5.8948,2.349 1.4948,2.395 1.276,5.227999 -0.4838,6.327999 -1.6828,1.052 -4.1776,0.13 -5.7027,-2.056999"
     id="path117" />
  <path
     style="fill:none;stroke:#231f20;stroke-width:0.565977;stroke-linecap:butt;stroke-linejoin:miter;stroke-miterlimit:4;stroke-dasharray:none;stroke-opacity:1"
     d="m 21.157336,56.619652 c -0.1468,-0.188 -1.2093,0.26 -1.4484,-0.204 -0.2396,-0.468 0.3443,-0.995 0.276,-2.984 v -0.021 c -0.1036,-1.452 0.4016,-2.744 1.4641,-3.411 1.7547,-1.099 4.4,-0.047 5.8948,2.349 1.4948,2.395 1.276,5.227999 -0.4838,6.327999 -1.6828,1.052 -4.1776,0.13 -5.7027,-2.056999 z"
     id="path118" />
  <path
     style="fill:#fab41d;fill-opacity:1;fill-rule:nonzero;stroke:none"
     d="m 34.895836,69.406651 c 1.7344,2.609 2.3959,2.978 3.1625,3.489 4.8334,3.172 3.1814,5.479 0.5308,6.62 -3.1146,1.333 -4.2078,1.875 -7.177,-3.683 -0.8229,-1.541 -4.7605,-7.052 -4.7605,-7.052 -1.6771,-1.786 -2.3599,-4.417 -1.8078,-5.765 0.5787,-1.417 0.4531,-0.813 1.235,-2.032 0.7394,-1.156 2.688,-2.145 3.8333,-1.667 1.0891,0.459 1.3224,2.11 1.9692,4.448 0.5104,1.839 3.0145,5.642 3.0145,5.642"
     id="path119" />
  <path
     style="fill:none;stroke:#231f20;stroke-width:0.565977;stroke-linecap:butt;stroke-linejoin:miter;stroke-miterlimit:4;stroke-dasharray:none;stroke-opacity:1"
     d="m 34.895836,69.406651 c 1.7344,2.609 2.3959,2.978 3.1625,3.489 4.8334,3.172 3.1814,5.479 0.5308,6.62 -3.1146,1.333 -4.2078,1.875 -7.177,-3.683 -0.8229,-1.541 -4.7605,-7.052 -4.7605,-7.052 -1.6771,-1.786 -2.3599,-4.417 -1.8078,-5.765 0.5787,-1.417 0.4531,-0.813 1.235,-2.032 0.7394,-1.156 2.688,-2.145 3.8333,-1.667 1.0891,0.459 1.3224,2.11 1.9692,4.448 0.5104,1.839 3.0145,5.642 3.0145,5.642 z"
     id="path120" />
  <path
     style="fill:#231f20;fill-opacity:1;fill-rule:nonzero;stroke:none"
     d="m 7.2611357,60.848651 c 0.4948,0.416 2.4426,0.38 3.9426003,0.968 1.0052,0.396 3.7495,0.276 4.7298,0.746 0.8905,0.432 1.3437,0.546 2.0145,-0.391 0.3959,-0.557 0.7975,-1.885 0.3959,-2.199 -0.9375,-0.738 -1.848,-0.984 -2.9214,-1.041 -1.2078,-0.063 -4.5161,0.052 -5.1308,0.131 -1.5093003,0.197 -2.1401003,-0.183 -2.5462003,-0.172 -0.7606,0.03 -0.9376,0.328 -1.0256,0.822 -0.1719,0.943 0.5412,1.136 0.5412,1.136"
     id="path121" />
  <path
     style="fill:none;stroke:#231f20;stroke-width:0.565977;stroke-linecap:butt;stroke-linejoin:miter;stroke-miterlimit:4;stroke-dasharray:none;stroke-opacity:1"
     d="m 7.2611357,60.848651 c 0.4948,0.416 2.4426,0.38 3.9426003,0.968 1.0052,0.396 3.7495,0.276 4.7298,0.746 0.8905,0.432 1.3437,0.546 2.0145,-0.391 0.3959,-0.557 0.7975,-1.885 0.3959,-2.199 -0.9375,-0.738 -1.848,-0.984 -2.9214,-1.041 -1.2078,-0.063 -4.5161,0.052 -5.1308,0.131 -1.5093003,0.197 -2.1401003,-0.183 -2.5462003,-0.172 -0.7606,0.03 -0.9376,0.328 -1.0256,0.822 -0.1719,0.943 0.5412,1.136 0.5412,1.136 z"
     id="path122" />
  <path
     style="fill:#231f20;fill-opacity:1;fill-rule:nonzero;stroke:none"
     d="m 16.255936,61.972651 c -0.0214,1.287 1.9838,0.948 2.5306,0.943 0.5427,-0.015 2.0891,0.136 3.2813,0.407 1.199,0.27 2.8026,0.098 5.0682,0.609 1.1985,0.271 2.5318,-0.224 2.8437,-1.973 0.3068,-1.73 -0.5411,-2.552 -2.0359,-2.662 -1.4948,-0.105 -2.9385,0.422 -4.4532,0.422 -1.5109,0 -3.052,-0.146 -4.2561,-0.318 -1.3693,-0.193 -2.1146,0.219 -2.3641,0.63 -0.6145,1.026 -0.6145,1.942 -0.6145,1.942"
     id="path123" />
  <path
     style="fill:none;stroke:#231f20;stroke-width:0.565977;stroke-linecap:butt;stroke-linejoin:miter;stroke-miterlimit:4;stroke-dasharray:none;stroke-opacity:1"
     d="m 16.255936,61.972651 c -0.0214,1.287 1.9838,0.948 2.5306,0.943 0.5427,-0.015 2.0891,0.136 3.2813,0.407 1.199,0.27 2.8026,0.098 5.0682,0.609 1.1985,0.271 2.5318,-0.224 2.8437,-1.973 0.3068,-1.73 -0.5411,-2.552 -2.0359,-2.662 -1.4948,-0.105 -2.9385,0.422 -4.4532,0.422 -1.5109,0 -3.052,-0.146 -4.2561,-0.318 -1.3693,-0.193 -2.1146,0.219 -2.3641,0.63 -0.6145,1.026 -0.6145,1.942 -0.6145,1.942 z"
     id="path124" />
  <path
     style="fill:#231f20;fill-opacity:1;fill-rule:nonzero;stroke:none"
     d="m 0.35483569,60.087651 c 0.64640001,0.319 3.87440001,0.704 4.61980001,0.761 0.6614,0.047 1.7343,0.495 2.3026,-0.51 0.2333,-0.407 0.2853,-1.162 0.224,-1.475 -0.0428,-0.249 -0.3496,-0.38 -0.7453,-0.369 -0.6667,0.01 -0.8495,0.27 -2.1256,0.369 0,0 -0.3011,0.063 -0.8276,0.219 -1.5681,0.464 -0.8333,0.401 -3.24950001,0.557 -0.1718,0.011 -0.2864,0.193 -0.2666,0.308 0.0265,0.172 0.0682,0.14 0.0682,0.14"
     id="path125" />
  <path
     style="fill:none;stroke:#231f20;stroke-width:0.565977;stroke-linecap:round;stroke-linejoin:round;stroke-miterlimit:4;stroke-dasharray:none;stroke-opacity:1"
     d="m 0.35483569,60.087651 c 0.64640001,0.319 3.87440001,0.704 4.61980001,0.761 0.6614,0.047 1.7343,0.495 2.3026,-0.51 0.2333,-0.407 0.2853,-1.162 0.224,-1.475 -0.0428,-0.249 -0.3496,-0.38 -0.7453,-0.369 -0.6667,0.01 -0.8495,0.27 -2.1256,0.369 0,0 -0.3011,0.063 -0.8276,0.219 -1.5681,0.464 -0.8333,0.401 -3.24950001,0.557 -0.1718,0.011 -0.2864,0.193 -0.2666,0.308 0.0265,0.172 0.0682,0.14 0.0682,0.14 z"
     id="path126" />
  <path
     style="fill:#231f20;fill-opacity:1;fill-rule:nonzero;stroke:none"
     d="m 37.021436,95.108651 c 1.9224,-1.198 2.4583,-1.172 3.0208,-0.39 0.3699,0.516 0.8912,0.864 1.1349,1.172 0.8078,1.016 1.7506,3.052 2.9068,9.529999 0.2547,1.475 0.6411,3.538 0.8599,4.366 0.3531,1.312 -2.0625,1.009 -2.2041,0.494 -0.4678,-1.65 -0.9158,-2.75 -1.1667,-3.317 -0.1667,-0.396 -0.3745,-1.131 -1.2292,-2.557 -1.2959,-2.172 -2.3959,-3.278 -3.2599,-5.209999 -0.4016,-0.896 -1.2761,-1.312 -1.224,-2.396 0.0522,-1.077 1.1615,-1.692 1.1615,-1.692"
     id="path127" />
  <path
     style="fill:none;stroke:#231f20;stroke-width:0.565977;stroke-linecap:butt;stroke-linejoin:miter;stroke-miterlimit:4;stroke-dasharray:none;stroke-opacity:1"
     d="m 37.021436,95.108651 c 1.9224,-1.198 2.4583,-1.172 3.0208,-0.39 0.3699,0.516 0.8912,0.864 1.1349,1.172 0.8078,1.016 1.7506,3.052 2.9068,9.529999 0.2547,1.475 0.6411,3.538 0.8599,4.366 0.3531,1.312 -2.0625,1.009 -2.2041,0.494 -0.4678,-1.65 -0.9158,-2.75 -1.1667,-3.317 -0.1667,-0.396 -0.3745,-1.131 -1.2292,-2.557 -1.2959,-2.172 -2.3959,-3.278 -3.2599,-5.209999 -0.4016,-0.896 -1.2761,-1.312 -1.224,-2.396 0.0522,-1.077 1.1615,-1.692 1.1615,-1.692 z"
     id="path128" />
  <path
     style="fill:#231f20;fill-opacity:1;fill-rule:nonzero;stroke:#231f20;stroke-width:0.565977;stroke-linecap:round;stroke-linejoin:miter;stroke-miterlimit:4;stroke-dasharray:none;stroke-opacity:1"
     d="m 36.433436,97.530651 c -1.0376,-0.859 -0.6989,-2.854 -0.7923,-3.167 -1.3801,-4.812 -1.3546,-5.203 -2.1505,-8.937 -1.1468,-5.407 -1.1041,-9.287 1.848,-10.875 2.0052,-1.073 3.6197,-0.828 4.6307,0.025 1.1146,0.939 2.3276,3.876 0.6557,6.235 l -0.1036,1.708 c 0.0839,1.163 0.1088,1.735 0.1932,2.303 0.1453,0.994 0.2385,2.068 0.4156,4.016 0.3188,3.453 -0.4839,7.213 -0.4839,7.213 0.0215,0.312 -0.0838,0.573 -0.2505,0.792"
     id="path129" />
  <path
     style="fill:#fab41d;fill-opacity:1;fill-rule:nonzero;stroke:none"
     d="m 39.969336,74.576651 c -1.011,-0.853 -2.6307,-1.098 -4.6307,-0.025 -1.2964,0.703 -2.0204,1.859 -2.3375,3.38 -0.4333,0.943 -0.6666,1.527 -0.2813,2.235 0.036,0.062 0.0626,0.134 0.0932,0.208 0.0162,0.589 0.0521,1.198 0.1308,1.849 l 7.6812,-1.412 c 1.6719,-2.359 0.4589,-5.301 -0.6557,-6.235"
     id="path130" />
  <path
     style="fill:none;stroke:#231f20;stroke-width:0.565977;stroke-linecap:round;stroke-linejoin:round;stroke-miterlimit:4;stroke-dasharray:none;stroke-opacity:1"
     d="m 39.969336,74.576651 c -1.011,-0.853 -2.6307,-1.098 -4.6307,-0.025 -1.2964,0.703 -2.0204,1.859 -2.3375,3.38 -0.4333,0.943 -0.6666,1.527 -0.2813,2.235 0.036,0.062 0.0626,0.134 0.0932,0.208 0.0162,0.589 0.0521,1.198 0.1308,1.849 l 7.6812,-1.412 c 1.6719,-2.359 0.4589,-5.301 -0.6557,-6.235 z"
     id="path131" />
  <path
     style="fill:#231f20;fill-opacity:1;fill-rule:nonzero;stroke:none"
     d="m 46.490736,112.36365 c 0.844,-0.677 -0.084,-1.52 -0.9802,-2.359 -0.224,-0.213 -0.4162,-0.432 -0.6558,-0.62 -0.9589,-0.76 -2.0057,-0.817 -2.2708,2.167 -0.0109,0.115 -0.8172,2.145 -1.1349,2.677 -1.5479,2.552 -2.2036,2.026 -1.5479,2.552 0.4334,0.348 0.8495,0.063 1.3599,-0.308 0.6921,-0.5 2.9787,-2.478 3.3536,-2.754 0.3547,-0.276 1.8761,-1.355 1.8761,-1.355"
     id="path132" />
  <path
     style="fill:none;stroke:#231f20;stroke-width:0.565977;stroke-linecap:butt;stroke-linejoin:miter;stroke-miterlimit:4;stroke-dasharray:none;stroke-opacity:1"
     d="m 46.490736,112.36365 c 0.844,-0.677 -0.084,-1.52 -0.9802,-2.359 -0.224,-0.213 -0.4162,-0.432 -0.6558,-0.62 -0.9589,-0.76 -2.0057,-0.817 -2.2708,2.167 -0.0109,0.115 -0.8172,2.145 -1.1349,2.677 -1.5479,2.552 -2.2036,2.026 -1.5479,2.552 0.4334,0.348 0.8495,0.063 1.3599,-0.308 0.6921,-0.5 2.9787,-2.478 3.3536,-2.754 0.3547,-0.276 1.8761,-1.355 1.8761,-1.355 z"
     id="path133" />
  <path
     style="fill:#ffffff;fill-opacity:1;fill-rule:nonzero;stroke:none"
     d="m 275.98974,53.218652 c 0.036,-0.24 1.178,-0.38 1.151,-0.907 -0.025,-0.52 -0.792,-0.681 -1.729,-2.443 l -0.011,-0.016 c -0.635,-1.306 -1.719,-2.176 -2.973,-2.222 -2.074,-0.068 -3.834,2.161 -3.927,4.984 -0.095,2.822 1.509,5.165999 3.583,5.237999 1.989,0.068 3.688,-1.977999 3.906,-4.633999"
     id="path135" />
  <path
     style="fill:none;stroke:#231f20;stroke-width:0.565977;stroke-linecap:butt;stroke-linejoin:miter;stroke-miterlimit:4;stroke-dasharray:none;stroke-opacity:1"
     d="m 275.98974,53.218652 c 0.036,-0.24 1.178,-0.38 1.151,-0.907 -0.025,-0.52 -0.792,-0.681 -1.729,-2.443 l -0.011,-0.016 c -0.635,-1.306 -1.719,-2.176 -2.973,-2.222 -2.074,-0.068 -3.834,2.161 -3.927,4.984 -0.095,2.822 1.509,5.165999 3.583,5.237999 1.989,0.068 3.688,-1.977999 3.906,-4.633999 z"
     id="path136" />
  <path
     style="fill:#fab41d;fill-opacity:1;fill-rule:nonzero;stroke:none"
     d="m 271.49574,71.248651 c 0.082,3.131 -0.246,3.819 -0.584,4.667 -2.126,5.381 0.552,6.324 3.374,5.724 3.319,-0.697 4.522,-0.885 3.756,-7.135 -0.213,-1.734 -0.161,-8.505 -0.161,-8.505 0.348,-2.427 -0.609,-4.975 -1.833,-5.76 -1.292,-0.829 -0.844,-0.401 -2.178,-0.953 -1.276,-0.522 -3.437,-0.21 -4.098,0.838 -0.631,1.004 0.129,2.49 0.942,4.776 0.64,1.796 0.782,6.348 0.782,6.348"
     id="path137" />
  <path
     style="fill:none;stroke:#231f20;stroke-width:0.565977;stroke-linecap:butt;stroke-linejoin:miter;stroke-miterlimit:4;stroke-dasharray:none;stroke-opacity:1"
     d="m 271.49574,71.248651 c 0.082,3.131 -0.246,3.819 -0.584,4.667 -2.126,5.381 0.552,6.324 3.374,5.724 3.319,-0.697 4.522,-0.885 3.756,-7.135 -0.213,-1.734 -0.161,-8.505 -0.161,-8.505 0.348,-2.427 -0.609,-4.975 -1.833,-5.76 -1.292,-0.829 -0.844,-0.401 -2.178,-0.953 -1.276,-0.522 -3.437,-0.21 -4.098,0.838 -0.631,1.004 0.129,2.49 0.942,4.776 0.64,1.796 0.782,6.348 0.782,6.348 z"
     id="path138" />
  <path
     style="fill:#231f20;fill-opacity:1;fill-rule:nonzero;stroke:none"
     d="m 263.24974,43.239652 c 0.579,0.285 1.323,2.083 2.464,3.219 0.771,0.765 1.755,3.328 2.578,4.03 0.756,0.651 1.037,1.022 0.448,2.006 -0.354,0.588 -1.406,1.489 -1.854,1.245 -1.048,-0.557 -1.641,-1.303 -2.125,-2.256 -0.541,-1.083 -1.765,-4.161 -1.932,-4.749 -0.428,-1.464 -1.032,-1.891 -1.177,-2.272 -0.282,-0.703 -0.084,-0.984 0.338,-1.266 0.796,-0.536 1.26,0.043 1.26,0.043"
     id="path139" />
  <path
     style="fill:none;stroke:#231f20;stroke-width:0.565977;stroke-linecap:butt;stroke-linejoin:miter;stroke-miterlimit:4;stroke-dasharray:none;stroke-opacity:1"
     d="m 263.24974,43.239652 c 0.579,0.285 1.323,2.083 2.464,3.219 0.771,0.765 1.755,3.328 2.578,4.03 0.756,0.651 1.037,1.022 0.448,2.006 -0.354,0.588 -1.406,1.489 -1.854,1.245 -1.048,-0.557 -1.641,-1.303 -2.125,-2.256 -0.541,-1.083 -1.765,-4.161 -1.932,-4.749 -0.428,-1.464 -1.032,-1.891 -1.177,-2.272 -0.282,-0.703 -0.084,-0.984 0.338,-1.266 0.796,-0.536 1.26,0.043 1.26,0.043 z"
     id="path140" />
  <path
     style="fill:#231f20;fill-opacity:1;fill-rule:nonzero;stroke:none"
     d="m 267.88074,51.024652 c 1.177,-0.53 1.667,1.438 1.875,1.939 0.208,0.504 0.969,1.859 1.693,2.848 0.728,0.984 1.213,2.526999 2.593,4.400999 0.724,0.984 0.802,2.402 -0.672,3.391 -1.458,0.973 -2.557,0.525 -3.254,-0.797 -0.699,-1.328 -0.792,-2.864 -1.402,-4.244 -0.604,-1.385999 -1.354,-2.739999 -1.989,-3.775999 -0.729,-1.178 -0.652,-2.027 -0.376,-2.418 0.693,-0.973 1.532,-1.344 1.532,-1.344"
     id="path141" />
  <path
     style="fill:none;stroke:#231f20;stroke-width:0.565977;stroke-linecap:butt;stroke-linejoin:miter;stroke-miterlimit:4;stroke-dasharray:none;stroke-opacity:1"
     d="m 267.88074,51.024652 c 1.177,-0.53 1.667,1.438 1.875,1.939 0.208,0.504 0.969,1.859 1.693,2.848 0.728,0.984 1.213,2.526999 2.593,4.400999 0.724,0.984 0.802,2.402 -0.672,3.391 -1.458,0.973 -2.557,0.525 -3.254,-0.797 -0.699,-1.328 -0.792,-2.864 -1.402,-4.244 -0.604,-1.385999 -1.354,-2.739999 -1.989,-3.775999 -0.729,-1.178 -0.652,-2.027 -0.376,-2.418 0.693,-0.973 1.532,-1.344 1.532,-1.344 z"
     id="path142" />
  <path
     style="fill:#231f20;fill-opacity:1;fill-rule:nonzero;stroke:none"
     d="m 259.77674,37.218652 c 0.557,0.464 2.203,3.265 2.552,3.926 0.312,0.584 1.145,1.386 0.457,2.314 -0.281,0.374 -0.948,0.728 -1.26,0.796 -0.249,0.057 -0.489,-0.172 -0.64,-0.536 -0.256,-0.615 -0.094,-0.886 -0.516,-2.094 0,0 -0.057,-0.302 -0.13,-0.844 -0.203,-1.625 0.037,-0.928 -0.791,-3.204 -0.057,-0.161 0.061,-0.337 0.176,-0.369 0.172,-0.047 0.152,0.011 0.152,0.011"
     id="path143" />
  <path
     style="fill:none;stroke:#231f20;stroke-width:0.565977;stroke-linecap:round;stroke-linejoin:round;stroke-miterlimit:4;stroke-dasharray:none;stroke-opacity:1"
     d="m 259.77674,37.218652 c 0.557,0.464 2.203,3.265 2.552,3.926 0.312,0.584 1.145,1.386 0.457,2.314 -0.281,0.374 -0.948,0.728 -1.26,0.796 -0.249,0.057 -0.489,-0.172 -0.64,-0.536 -0.256,-0.615 -0.094,-0.886 -0.516,-2.094 0,0 -0.057,-0.302 -0.13,-0.844 -0.203,-1.625 0.037,-0.928 -0.791,-3.204 -0.057,-0.161 0.061,-0.337 0.176,-0.369 0.172,-0.047 0.152,0.011 0.152,0.011 z"
     id="path144" />
  <path
     style="fill:#231f20;fill-opacity:1;fill-rule:nonzero;stroke:none"
     d="m 273.92774,96.952651 c -2.23,-0.396 -2.714,-0.172 -2.948,0.76 -0.151,0.62 -0.506,1.14 -0.62,1.511 -0.37,1.243999 -0.484,3.483999 0.86,9.931999 0.306,1.464 0.724,3.516 0.822,4.369 0.162,1.344 2.292,0.162 2.235,-0.364 -0.183,-1.702 -0.177,-2.89 -0.157,-3.51 0.01,-0.432 -0.072,-1.188 0.188,-2.834 0.396,-2.494 1,-3.932 1.088,-6.046 0.037,-0.978999 0.688,-1.693999 0.24,-2.677999 -0.454,-0.989 -1.708,-1.14 -1.708,-1.14"
     id="path145" />
  <path
     style="fill:none;stroke:#231f20;stroke-width:0.565977;stroke-linecap:butt;stroke-linejoin:miter;stroke-miterlimit:4;stroke-dasharray:none;stroke-opacity:1"
     d="m 273.92774,96.952651 c -2.23,-0.396 -2.714,-0.172 -2.948,0.76 -0.151,0.62 -0.506,1.14 -0.62,1.511 -0.37,1.243999 -0.484,3.483999 0.86,9.931999 0.306,1.464 0.724,3.516 0.822,4.369 0.162,1.344 2.292,0.162 2.235,-0.364 -0.183,-1.702 -0.177,-2.89 -0.157,-3.51 0.01,-0.432 -0.072,-1.188 0.188,-2.834 0.396,-2.494 1,-3.932 1.088,-6.046 0.037,-0.978999 0.688,-1.693999 0.24,-2.677999 -0.454,-0.989 -1.708,-1.14 -1.708,-1.14 z"
     id="path146" />
  <path
     style="fill:#231f20;fill-opacity:1;fill-rule:nonzero;stroke:#231f20;stroke-width:0.565977;stroke-linecap:round;stroke-linejoin:miter;stroke-miterlimit:4;stroke-dasharray:none;stroke-opacity:1"
     d="m 275.37574,98.983651 c 1.03,-0.875 0.666,-2.864 0.749,-3.177 1.324,-4.839 1.292,-5.219 2.043,-8.968 1.072,-5.423 0.984,-9.303 -1.991,-10.85 -2.015,-1.046 -3.629,-0.781 -4.624,0.079 -1.104,0.957 -2.281,3.911 -0.584,6.249 l 0.131,1.703 c -0.068,1.167 -0.09,1.74 -0.167,2.313 -0.136,0.99 -0.208,2.068 -0.365,4.016 -0.271,3.458 0.578,7.208 0.578,7.208 -0.016,0.307 0.094,0.568 0.255,0.787"
     id="path147" />
  <path
     style="fill:#fab41d;fill-opacity:1;fill-rule:nonzero;stroke:none"
     d="m 278.55774,79.343651 c -0.333,-1.521 -1.068,-2.672 -2.381,-3.355 -2.015,-1.046 -3.629,-0.781 -4.624,0.079 -1.104,0.957 -2.281,3.911 -0.584,6.249 l 7.703,1.314 c 0.073,-0.658 0.1,-1.267 0.11,-1.85 0.026,-0.078 0.052,-0.15 0.088,-0.213 0.375,-0.709 0.131,-1.292 -0.312,-2.224"
     id="path148" />
  <path
     style="fill:none;stroke:#231f20;stroke-width:0.565977;stroke-linecap:round;stroke-linejoin:round;stroke-miterlimit:4;stroke-dasharray:none;stroke-opacity:1"
     d="m 278.55774,79.343651 c -0.333,-1.521 -1.068,-2.672 -2.381,-3.355 -2.015,-1.046 -3.629,-0.781 -4.624,0.079 -1.104,0.957 -2.281,3.911 -0.584,6.249 l 7.703,1.314 c 0.073,-0.658 0.1,-1.267 0.11,-1.85 0.026,-0.078 0.052,-0.15 0.088,-0.213 0.375,-0.709 0.131,-1.292 -0.312,-2.224 z"
     id="path149" />
  <path
     style="fill:#231f20;fill-opacity:1;fill-rule:nonzero;stroke:none"
     d="m 272.32374,116.75465 c -1.084,-0.058 -0.823,-1.282 -0.584,-2.484 0.062,-0.307 0.094,-0.594 0.172,-0.886 0.338,-1.177 1.161,-1.833 3.109,0.438 0.073,0.088 1.912,1.27 2.484,1.516 2.745,1.172 2.969,0.364 2.745,1.172 -0.151,0.536 -0.661,0.546 -1.286,0.541 -0.854,0 -3.87,-0.276 -4.334,-0.287 -0.448,-0.016 -2.306,-0.01 -2.306,-0.01"
     id="path150" />
  <path
     style="fill:none;stroke:#231f20;stroke-width:0.565977;stroke-linecap:butt;stroke-linejoin:miter;stroke-miterlimit:4;stroke-dasharray:none;stroke-opacity:1"
     d="m 272.32374,116.75465 c -1.084,-0.058 -0.823,-1.282 -0.584,-2.484 0.062,-0.307 0.094,-0.594 0.172,-0.886 0.338,-1.177 1.161,-1.833 3.109,0.438 0.073,0.088 1.912,1.27 2.484,1.516 2.745,1.172 2.969,0.364 2.745,1.172 -0.151,0.536 -0.661,0.546 -1.286,0.541 -0.854,0 -3.87,-0.276 -4.334,-0.287 -0.448,-0.016 -2.306,-0.01 -2.306,-0.01 z"
     id="path152" />
  <path
     style="fill:#ffffff;fill-opacity:1;fill-rule:nonzero;stroke:none"
     d="m 225.97974,14.978652 c 0.01,-0.244 1.125,-0.526 1.03,-1.042 -0.093,-0.516 -0.88,-0.578 -2.03,-2.202 l -0.011,-0.022 c -0.797,-1.213 -1.984,-1.9370004 -3.229,-1.8220004 -2.068,0.1920004 -3.531,2.6290004 -3.271,5.4420004 0.271,2.812 2.156,4.938 4.224,4.74 1.979,-0.188 3.407,-2.433 3.287,-5.094"
     id="path154" />
  <path
     style="fill:none;stroke:#231f20;stroke-width:0.565977;stroke-linecap:butt;stroke-linejoin:miter;stroke-miterlimit:4;stroke-dasharray:none;stroke-opacity:1"
     d="m 225.97974,14.978652 c 0.01,-0.244 1.125,-0.526 1.03,-1.042 -0.093,-0.516 -0.88,-0.578 -2.03,-2.202 l -0.011,-0.022 c -0.797,-1.213 -1.984,-1.9370004 -3.229,-1.8220004 -2.068,0.1920004 -3.531,2.6290004 -3.271,5.4420004 0.271,2.812 2.156,4.938 4.224,4.74 1.979,-0.188 3.407,-2.433 3.287,-5.094 z"
     id="path155" />
  <path
     style="fill:#fab41d;fill-opacity:1;fill-rule:nonzero;stroke:none"
     d="m 220.90574,34.296652 c 0.162,3.13 -0.15,3.818 -0.468,4.682 -2,5.422 0.703,6.302 3.51,5.636 3.302,-0.782 4.501,-0.995 3.584,-7.224 -0.255,-1.73 -0.37,-8.506 -0.37,-8.506 0.291,-2.426 -0.729,-4.948 -1.974,-5.702 -1.307,-0.798 -0.85,-0.387 -2.198,-0.902 -1.286,-0.494 -3.442,-0.13 -4.073,0.938 -0.609,1.016 0.188,2.478 1.057,4.745 0.683,1.785 0.932,6.333 0.932,6.333"
     id="path156" />
  <path
     style="fill:none;stroke:#231f20;stroke-width:0.565977;stroke-linecap:butt;stroke-linejoin:miter;stroke-miterlimit:4;stroke-dasharray:none;stroke-opacity:1"
     d="m 220.90574,34.296652 c 0.162,3.13 -0.15,3.818 -0.468,4.682 -2,5.422 0.703,6.302 3.51,5.636 3.302,-0.782 4.501,-0.995 3.584,-7.224 -0.255,-1.73 -0.37,-8.506 -0.37,-8.506 0.291,-2.426 -0.729,-4.948 -1.974,-5.702 -1.307,-0.798 -0.85,-0.387 -2.198,-0.902 -1.286,-0.494 -3.442,-0.13 -4.073,0.938 -0.609,1.016 0.188,2.478 1.057,4.745 0.683,1.785 0.932,6.333 0.932,6.333 z"
     id="path157" />
  <path
     style="fill:#231f20;fill-opacity:1;fill-rule:nonzero;stroke:none"
     d="m 227.02574,33.748652 c -0.489,0.428 -2.432,0.438 -3.91,1.068 -1,0.418 -3.751,0.366 -4.715,0.86 -0.885,0.458 -1.333,0.578 -2.025,-0.344 -0.407,-0.541 -0.844,-1.865 -0.448,-2.188 0.916,-0.754 1.822,-1.025 2.89,-1.109 1.208,-0.093 4.52,-0.063 5.13,0 1.516,0.156 2.136,-0.235 2.548,-0.229 0.76,0 0.942,0.302 1.046,0.792 0.192,0.937 -0.516,1.15 -0.516,1.15"
     id="path158" />
  <path
     style="fill:none;stroke:#231f20;stroke-width:0.565977;stroke-linecap:butt;stroke-linejoin:miter;stroke-miterlimit:4;stroke-dasharray:none;stroke-opacity:1"
     d="m 227.02574,33.748652 c -0.489,0.428 -2.432,0.438 -3.91,1.068 -1,0.418 -3.751,0.366 -4.715,0.86 -0.885,0.458 -1.333,0.578 -2.025,-0.344 -0.407,-0.541 -0.844,-1.865 -0.448,-2.188 0.916,-0.754 1.822,-1.025 2.89,-1.109 1.208,-0.093 4.52,-0.063 5.13,0 1.516,0.156 2.136,-0.235 2.548,-0.229 0.76,0 0.942,0.302 1.046,0.792 0.192,0.937 -0.516,1.15 -0.516,1.15 z"
     id="path159" />
  <path
     style="fill:#231f20;fill-opacity:1;fill-rule:nonzero;stroke:none"
     d="m 216.28074,34.655652 c -1.165,-0.557 0.027,-2.197 0.277,-2.688 0.244,-0.479 0.802,-1.932 1.088,-3.119 0.287,-1.193 1.151,-2.557 1.698,-4.818 0.286,-1.192 1.318,-2.162 3.026,-1.672 1.683,0.485 2.052,1.62 1.484,3 -0.568,1.385 -1.677,2.453 -2.349,3.808 -0.667,1.358 -1.219,2.801 -1.599,3.958 -0.432,1.312 -1.134,1.802 -1.609,1.839 -1.192,0.099 -2.016,-0.308 -2.016,-0.308"
     id="path160" />
  <path
     style="fill:none;stroke:#231f20;stroke-width:0.565977;stroke-linecap:butt;stroke-linejoin:miter;stroke-miterlimit:4;stroke-dasharray:none;stroke-opacity:1"
     d="m 216.28074,34.655652 c -1.165,-0.557 0.027,-2.197 0.277,-2.688 0.244,-0.479 0.802,-1.932 1.088,-3.119 0.287,-1.193 1.151,-2.557 1.698,-4.818 0.286,-1.192 1.318,-2.162 3.026,-1.672 1.683,0.485 2.052,1.62 1.484,3 -0.568,1.385 -1.677,2.453 -2.349,3.808 -0.667,1.358 -1.219,2.801 -1.599,3.958 -0.432,1.312 -1.134,1.802 -1.609,1.839 -1.192,0.099 -2.016,-0.308 -2.016,-0.308 z"
     id="path161" />
  <path
     style="fill:#231f20;fill-opacity:1;fill-rule:nonzero;stroke:none"
     d="m 233.90574,32.811652 c -0.634,0.339 -3.853,0.803 -4.588,0.875 -0.666,0.073 -1.724,0.537 -2.322,-0.447 -0.24,-0.401 -0.319,-1.152 -0.267,-1.469 0.048,-0.255 0.349,-0.386 0.745,-0.391 0.667,-0.005 0.86,0.251 2.136,0.312 0,0 0.296,0.063 0.828,0.204 1.578,0.421 0.843,0.385 3.266,0.479 0.172,0.005 0.286,0.182 0.27,0.297 -0.021,0.177 -0.068,0.14 -0.068,0.14"
     id="path162" />
  <path
     style="fill:none;stroke:#231f20;stroke-width:0.565977;stroke-linecap:round;stroke-linejoin:round;stroke-miterlimit:4;stroke-dasharray:none;stroke-opacity:1"
     d="m 233.90574,32.811652 c -0.634,0.339 -3.853,0.803 -4.588,0.875 -0.666,0.073 -1.724,0.537 -2.322,-0.447 -0.24,-0.401 -0.319,-1.152 -0.267,-1.469 0.048,-0.255 0.349,-0.386 0.745,-0.391 0.667,-0.005 0.86,0.251 2.136,0.312 0,0 0.296,0.063 0.828,0.204 1.578,0.421 0.843,0.385 3.266,0.479 0.172,0.005 0.286,0.182 0.27,0.297 -0.021,0.177 -0.068,0.14 -0.068,0.14 z"
     id="path163" />
  <path
     style="fill:#231f20;fill-opacity:1;fill-rule:nonzero;stroke:none"
     d="m 239.76574,49.374652 c -2.261,0.177 -2.677,0.521 -2.666,1.474 0.005,0.64 -0.204,1.234 -0.219,1.619 -0.047,1.297 0.405,3.496 3.328,9.395999 0.667,1.339 1.583,3.224 1.901,4.021 0.49,1.266 2.255,-0.412 2.062,-0.912 -0.604,-1.598 -0.891,-2.754 -1.036,-3.358 -0.094,-0.418 -0.364,-1.136 -0.526,-2.787 -0.245,-2.515999 -0.021,-4.056999 -0.469,-6.124999 -0.208,-0.959 0.245,-1.812 -0.437,-2.651 -0.688,-0.844 -1.938,-0.677 -1.938,-0.677"
     id="path164" />
  <path
     style="fill:none;stroke:#231f20;stroke-width:0.565977;stroke-linecap:butt;stroke-linejoin:miter;stroke-miterlimit:4;stroke-dasharray:none;stroke-opacity:1"
     d="m 239.76574,49.374652 c -2.261,0.177 -2.677,0.521 -2.666,1.474 0.005,0.64 -0.204,1.234 -0.219,1.619 -0.047,1.297 0.405,3.496 3.328,9.395999 0.667,1.339 1.583,3.224 1.901,4.021 0.49,1.266 2.255,-0.412 2.062,-0.912 -0.604,-1.598 -0.891,-2.754 -1.036,-3.358 -0.094,-0.418 -0.364,-1.136 -0.526,-2.787 -0.245,-2.515999 -0.021,-4.056999 -0.469,-6.124999 -0.208,-0.959 0.245,-1.812 -0.437,-2.651 -0.688,-0.844 -1.938,-0.677 -1.938,-0.677 z"
     id="path165" />
  <path
     style="fill:#231f20;fill-opacity:1;fill-rule:nonzero;stroke:#231f20;stroke-width:0.565977;stroke-linecap:round;stroke-linejoin:miter;stroke-miterlimit:4;stroke-dasharray:none;stroke-opacity:1"
     d="m 241.76574,50.374652 c -0.286,-1.312 -2.208,-1.938 -2.448,-2.162 -3.63,-3.453 -3.98,-3.609 -6.932,-6.041 -4.266,-3.516 -7.724,-5.265 -10.494,-3.38 -1.882,1.281 -2.412,2.828 -2.12,4.115 0.317,1.421 2.364,3.853 5.224,3.462 l 1.566,0.699 c 0.991,0.609 1.486,0.896 1.954,1.233 0.813,0.595 1.718,1.167 3.365,2.224 2.921,1.876 6.624,2.907 6.624,2.907 0.267,0.156 0.548,0.188 0.813,0.141"
     id="path166" />
  <path
     style="fill:#fab41d;fill-opacity:1;fill-rule:nonzero;stroke:none"
     d="m 221.89174,38.791652 c -1.882,1.281 -2.412,2.828 -2.12,4.115 0.312,1.421 2.364,3.853 5.224,3.462 l 4.801,-6.161 c -3.104,-2.125 -5.719,-2.907 -7.905,-1.416"
     id="path167" />
  <path
     style="fill:none;stroke:#231f20;stroke-width:0.565977;stroke-linecap:round;stroke-linejoin:round;stroke-miterlimit:4;stroke-dasharray:none;stroke-opacity:1"
     d="m 221.89174,38.791652 c -1.882,1.281 -2.412,2.828 -2.12,4.115 0.312,1.421 2.364,3.853 5.224,3.462 l 4.801,-6.161 c -3.104,-2.125 -5.719,-2.907 -7.905,-1.416 z"
     id="path168" />
  <path
     style="fill:#fab41d;fill-opacity:1;fill-rule:nonzero;stroke:none"
     d="m 120.28674,28.978652 c -3.078,0.609 -5.234,1.494 -6.119,1.745 -3.068,0.88 -4.86,2.807 -3.792,5.489 1.239,3.151 4.025,3.563 7.973,2.235 1.667,-0.557 5.636,-0.891 5.636,-0.891 3.244,0.135 4.812,-1 5.25,-1.776 0.761,-1.328 2.922,-2.292 3.109,-3.724 0.328,-2.656 -0.385,-3.526 -1.515,-3.896 -1.13,-0.369 -2.396,-0.114 -4.818,-0.016 -2.323,0.095 -5.724,0.834 -5.724,0.834"
     id="path169" />
  <path
     style="fill:none;stroke:#231f20;stroke-width:0.565977;stroke-linecap:butt;stroke-linejoin:miter;stroke-miterlimit:4;stroke-dasharray:none;stroke-opacity:1"
     d="m 120.28674,28.978652 c -3.078,0.609 -5.234,1.494 -6.119,1.745 -3.068,0.88 -4.86,2.807 -3.792,5.489 1.239,3.151 4.025,3.563 7.973,2.235 1.667,-0.557 5.636,-0.891 5.636,-0.891 3.244,0.135 4.812,-1 5.25,-1.776 0.761,-1.328 2.922,-2.292 3.109,-3.724 0.328,-2.656 -0.385,-3.526 -1.515,-3.896 -1.13,-0.369 -2.396,-0.114 -4.818,-0.016 -2.323,0.095 -5.724,0.834 -5.724,0.834 z"
     id="path170" />
  <path
     style="fill:#ffffff;fill-opacity:1;fill-rule:nonzero;stroke:none"
     d="m 137.03674,34.791652 c 0.235,0.083 0.115,1.233 0.626,1.328 0.52,0.088 0.848,-0.636 2.77,-1.147 l 0.026,-0.005 c 1.412,-0.333 2.51,-1.197 2.822,-2.411 0.527,-2.01 -1.26,-4.218 -3.984,-4.942 -2.734,-0.714 -5.374,0.333 -5.91,2.338 -0.506,1.922 1.114,4.036 3.65,4.839"
     id="path171" />
  <path
     style="fill:none;stroke:#231f20;stroke-width:0.565977;stroke-linecap:butt;stroke-linejoin:miter;stroke-miterlimit:4;stroke-dasharray:none;stroke-opacity:1"
     d="m 137.03674,34.791652 c 0.235,0.083 0.115,1.233 0.626,1.328 0.52,0.088 0.848,-0.636 2.77,-1.147 l 0.026,-0.005 c 1.412,-0.333 2.51,-1.197 2.822,-2.411 0.527,-2.01 -1.26,-4.218 -3.984,-4.942 -2.734,-0.714 -5.374,0.333 -5.91,2.338 -0.506,1.922 1.114,4.036 3.65,4.839 z"
     id="path172" />
  <path
     style="fill:#231f20;fill-opacity:1;fill-rule:nonzero;stroke:none"
     d="m 119.83874,50.978652 c -1.624,-1.572 -2.156,-1.662 -2.864,-1.015 -0.474,0.432 -1.058,0.656 -1.36,0.905 -1.004,0.818 -2.359,2.62 -4.843,8.718999 -0.563,1.376 -1.371,3.308 -1.767,4.073 -0.609,1.208 1.814,1.422 2.063,0.943 0.803,-1.516 1.469,-2.484 1.828,-2.995 0.251,-0.349 0.605,-1.021 1.74,-2.245 1.729,-1.844 3.032,-2.696999 4.287,-4.404999 0.582,-0.787 1.521,-1.011 1.692,-2.084 0.182,-1.068 -0.776,-1.896 -0.776,-1.896"
     id="path173" />
  <path
     style="fill:none;stroke:#231f20;stroke-width:0.565977;stroke-linecap:butt;stroke-linejoin:miter;stroke-miterlimit:4;stroke-dasharray:none;stroke-opacity:1"
     d="m 119.83874,50.978652 c -1.624,-1.572 -2.156,-1.662 -2.864,-1.015 -0.474,0.432 -1.058,0.656 -1.36,0.905 -1.004,0.818 -2.359,2.62 -4.843,8.718999 -0.563,1.376 -1.371,3.308 -1.767,4.073 -0.609,1.208 1.814,1.422 2.063,0.943 0.803,-1.516 1.469,-2.484 1.828,-2.995 0.251,-0.349 0.605,-1.021 1.74,-2.245 1.729,-1.844 3.032,-2.696999 4.287,-4.404999 0.582,-0.787 1.521,-1.011 1.692,-2.084 0.182,-1.068 -0.776,-1.896 -0.776,-1.896 z"
     id="path174" />
  <path
     style="fill:#231f20;fill-opacity:1;fill-rule:nonzero;stroke:#231f20;stroke-width:0.565977;stroke-linecap:round;stroke-linejoin:round;stroke-miterlimit:4;stroke-dasharray:none;stroke-opacity:1"
     d="m 120.27174,53.462652 c 0.844,-1.135 -0.193,-3.026 -0.213,-3.364 -0.256,-5.011 -0.407,-5.364 -0.871,-9.151 -0.667,-5.489 -1.973,-9.152 -5.281,-9.699 -2.239,-0.353 -3.692,0.407 -4.37,1.532 -0.75,1.255 -0.937,4.427 1.402,6.115 l 0.656,1.588 c 0.301,1.12 0.464,1.677 0.573,2.235 0.176,0.984 0.437,2.03 0.905,3.937 0.828,3.375 2.808,6.667 2.808,6.667 0.078,0.297 0.26,0.51 0.484,0.661"
     id="path175" />
  <path
     style="fill:#fab41d;fill-opacity:1;fill-rule:nonzero;stroke:none"
     d="m 113.92774,31.139652 c -2.24,-0.369 -3.699,0.376 -4.375,1.505 -0.756,1.251 -0.958,4.428 1.38,6.12 l 7.73,-1.134 c -0.771,-3.683 -2.126,-6.058 -4.735,-6.491"
     id="path176" />
  <path
     style="fill:none;stroke:#231f20;stroke-width:0.565977;stroke-linecap:butt;stroke-linejoin:miter;stroke-miterlimit:4;stroke-dasharray:none;stroke-opacity:1"
     d="m 113.92774,31.139652 c -2.24,-0.369 -3.699,0.376 -4.375,1.505 -0.756,1.251 -0.958,4.428 1.38,6.12 l 7.73,-1.134 c -0.771,-3.683 -2.126,-6.058 -4.735,-6.491 z"
     id="path177" />
  <path
     style="fill:#231f20;fill-opacity:1;fill-rule:nonzero;stroke:none"
     d="m 132.89574,51.316652 c -0.473,-0.432 -0.708,-2.369 -1.495,-3.77 -0.525,-0.948 -0.776,-3.683 -1.374,-4.583 -0.547,-0.835 -0.719,-1.261 0.12,-2.048 0.494,-0.468 1.754,-1.047 2.125,-0.692 0.848,0.828 1.219,1.697 1.421,2.744 0.23,1.199 0.563,4.491 0.568,5.1 0.011,1.525 0.464,2.104 0.516,2.505 0.067,0.76 -0.204,0.968 -0.677,1.135 -0.917,0.297 -1.204,-0.391 -1.204,-0.391"
     id="path178" />
  <path
     style="fill:none;stroke:#231f20;stroke-width:0.565977;stroke-linecap:butt;stroke-linejoin:miter;stroke-miterlimit:4;stroke-dasharray:none;stroke-opacity:1"
     d="m 132.89574,51.316652 c -0.473,-0.432 -0.708,-2.369 -1.495,-3.77 -0.525,-0.948 -0.776,-3.683 -1.374,-4.583 -0.547,-0.835 -0.719,-1.261 0.12,-2.048 0.494,-0.468 1.754,-1.047 2.125,-0.692 0.848,0.828 1.219,1.697 1.421,2.744 0.23,1.199 0.563,4.491 0.568,5.1 0.011,1.525 0.464,2.104 0.516,2.505 0.067,0.76 -0.204,0.968 -0.677,1.135 -0.917,0.297 -1.204,-0.391 -1.204,-0.391 z"
     id="path179" />
  <path
     style="fill:#231f20;fill-opacity:1;fill-rule:nonzero;stroke:none"
     d="m 130.37074,42.368652 c -1.287,0.167 -1.178,-1.864 -1.23,-2.401 -0.046,-0.541 -0.374,-2.067 -0.781,-3.219 -0.407,-1.161 -0.421,-2.77 -1.188,-4.968 -0.4,-1.15 -0.061,-2.532 1.636,-3.046 1.683,-0.506 2.604,0.244 2.88,1.718 0.276,1.468 -0.088,2.968 0.095,4.474 0.165,1.5 0.484,3.01 0.801,4.188 0.344,1.338 0.021,2.129 -0.359,2.41 -0.948,0.735 -1.854,0.844 -1.854,0.844"
     id="path180" />
  <path
     style="fill:none;stroke:#231f20;stroke-width:0.565977;stroke-linecap:butt;stroke-linejoin:miter;stroke-miterlimit:4;stroke-dasharray:none;stroke-opacity:1"
     d="m 130.37074,42.368652 c -1.287,0.167 -1.178,-1.864 -1.23,-2.401 -0.046,-0.541 -0.374,-2.067 -0.781,-3.219 -0.407,-1.161 -0.421,-2.77 -1.188,-4.968 -0.4,-1.15 -0.061,-2.532 1.636,-3.046 1.683,-0.506 2.604,0.244 2.88,1.718 0.276,1.468 -0.088,2.968 0.095,4.474 0.165,1.5 0.484,3.01 0.801,4.188 0.344,1.338 0.021,2.129 -0.359,2.41 -0.948,0.735 -1.854,0.844 -1.854,0.844 z"
     id="path181" />
  <path
     style="fill:#231f20;fill-opacity:1;fill-rule:nonzero;stroke:none"
     d="m 135.25074,57.420652 c -0.495,-0.552 -1.692,-3.572 -1.927,-4.276 -0.213,-0.625 -0.917,-1.541 -0.084,-2.349 0.313,-0.337 1.037,-0.577 1.349,-0.599 0.26,-0.02 0.459,0.246 0.547,0.626 0.167,0.65 -0.036,0.901 0.199,2.15 0,0 0.004,0.308 -0.016,0.86 -0.038,1.626 -0.167,0.902 0.292,3.282 0.041,0.166 -0.106,0.322 -0.219,0.338 -0.183,0.015 -0.141,-0.032 -0.141,-0.032"
     id="path182" />
  <path
     style="fill:none;stroke:#231f20;stroke-width:0.565977;stroke-linecap:round;stroke-linejoin:round;stroke-miterlimit:4;stroke-dasharray:none;stroke-opacity:1"
     d="m 135.25074,57.420652 c -0.495,-0.552 -1.692,-3.572 -1.927,-4.276 -0.213,-0.625 -0.917,-1.541 -0.084,-2.349 0.313,-0.337 1.037,-0.577 1.349,-0.599 0.26,-0.02 0.459,0.246 0.547,0.626 0.167,0.65 -0.036,0.901 0.199,2.15 0,0 0.004,0.308 -0.016,0.86 -0.038,1.626 -0.167,0.902 0.292,3.282 0.041,0.166 -0.106,0.322 -0.219,0.338 -0.183,0.015 -0.141,-0.032 -0.141,-0.032 z"
     id="path183" />
  <path
     style="fill:#231f20;fill-opacity:1;fill-rule:nonzero;stroke:none"
     d="m 107.14074,65.390651 c -0.358,-1.308 0.443,-1.896 1.479,-1.818 0.308,0.026 0.595,-0.281 0.901,-0.24 0.688,0.115 1.667,1.558 0.667,2.683 -0.068,0.077 -0.401,0.828 -0.735,1.348 -0.666,1.016 -2.478,2.729 -5.176,2.631 -1.272,-0.052 -1.005,-0.798 -0.49,-0.932 1.657,-0.432 1.718,-0.798 2.114,-1.074 1.334,-0.912 1.24,-2.598 1.24,-2.598"
     id="path184" />
  <path
     style="fill:none;stroke:#231f20;stroke-width:0.332927;stroke-linecap:butt;stroke-linejoin:miter;stroke-miterlimit:4;stroke-dasharray:none;stroke-opacity:1"
     d="m 107.14074,65.390651 c -0.358,-1.308 0.443,-1.896 1.479,-1.818 0.308,0.026 0.595,-0.281 0.901,-0.24 0.688,0.115 1.667,1.558 0.667,2.683 -0.068,0.077 -0.401,0.828 -0.735,1.348 -0.666,1.016 -2.478,2.729 -5.176,2.631 -1.272,-0.052 -1.005,-0.798 -0.49,-0.932 1.657,-0.432 1.718,-0.798 2.114,-1.074 1.334,-0.912 1.24,-2.598 1.24,-2.598 z"
     id="path185" />
  <path
     style="fill:#fab41d;fill-opacity:1;fill-rule:nonzero;stroke:none"
     d="m 183.83774,27.639652 c 1.986,-2.427 3.084,-4.489 3.606,-5.244 1.806,-2.636 1.957,-5.256 -0.574,-6.647 -2.964,-1.634 -5.374,-0.176 -7.573,3.355 -0.927,1.5 -3.771,4.281 -3.771,4.281 -2.588,1.964 -3.406,2.771 -3.765,5.724 -0.183,1.516 0.057,2.62 0.828,3.839 1.432,2.26 2.541,2.479 3.651,2.041 1.104,-0.437 1.917,-1.437 3.718,-3.062 1.735,-1.552 3.88,-4.287 3.88,-4.287"
     id="path186" />
  <path
     style="fill:none;stroke:#231f20;stroke-width:0.565977;stroke-linecap:butt;stroke-linejoin:miter;stroke-miterlimit:4;stroke-dasharray:none;stroke-opacity:1"
     d="m 183.83774,27.639652 c 1.986,-2.427 3.084,-4.489 3.606,-5.244 1.806,-2.636 1.957,-5.256 -0.574,-6.647 -2.964,-1.634 -5.374,-0.176 -7.573,3.355 -0.927,1.5 -3.771,4.281 -3.771,4.281 -2.588,1.964 -3.406,2.771 -3.765,5.724 -0.183,1.516 0.057,2.62 0.828,3.839 1.432,2.26 2.541,2.479 3.651,2.041 1.104,-0.437 1.917,-1.437 3.718,-3.062 1.735,-1.552 3.88,-4.287 3.88,-4.287 z"
     id="path187" />
  <path
     style="fill:#ffffff;fill-opacity:1;fill-rule:nonzero;stroke:none"
     d="m 167.22874,33.838652 c -0.233,0.077 -0.875,-0.88 -1.333,-0.626 -0.458,0.26 -0.25,1.027 -1.4,2.646 l -0.016,0.021 c -0.875,1.156 -1.172,2.521 -0.642,3.656 0.876,1.885 3.658,2.448 6.22,1.265 2.562,-1.186 3.927,-3.676 3.062,-5.561 -0.828,-1.808 -3.427,-2.401 -5.891,-1.401"
     id="path188" />
  <path
     style="fill:none;stroke:#231f20;stroke-width:0.565977;stroke-linecap:butt;stroke-linejoin:miter;stroke-miterlimit:4;stroke-dasharray:none;stroke-opacity:1"
     d="m 167.22874,33.838652 c -0.233,0.077 -0.875,-0.88 -1.333,-0.626 -0.458,0.26 -0.25,1.027 -1.4,2.646 l -0.016,0.021 c -0.875,1.156 -1.172,2.521 -0.642,3.656 0.876,1.885 3.658,2.448 6.22,1.265 2.562,-1.186 3.927,-3.676 3.062,-5.561 -0.828,-1.808 -3.427,-2.401 -5.891,-1.401 z"
     id="path189" />
  <path
     style="fill:#231f20;fill-opacity:1;fill-rule:nonzero;stroke:none"
     d="m 164.72474,16.947652 c 1.219,1.901 1.713,2.104 2.552,1.64 0.561,-0.312 1.181,-0.401 1.531,-0.572 1.166,-0.563 2.896,-2.011 6.713,-7.376 0.86,-1.2130004 2.093,-2.9050004 2.656,-3.5620004 0.865,-1.042 -1.443,-1.796 -1.796,-1.391 -1.125,1.292 -2,2.084 -2.464,2.496 -0.323,0.285 -0.823,0.859 -2.208,1.791 -2.104,1.3960004 -3.568,1.9330004 -5.183,3.3020004 -0.749,0.635 -1.713,0.64 -2.12,1.64 -0.426,1 0.319,2.032 0.319,2.032"
     id="path190" />
  <path
     style="fill:none;stroke:#231f20;stroke-width:0.565977;stroke-linecap:butt;stroke-linejoin:miter;stroke-miterlimit:4;stroke-dasharray:none;stroke-opacity:1"
     d="m 164.72474,16.947652 c 1.219,1.901 1.713,2.104 2.552,1.64 0.561,-0.312 1.181,-0.401 1.531,-0.572 1.166,-0.563 2.896,-2.011 6.713,-7.376 0.86,-1.2130004 2.093,-2.9050004 2.656,-3.5620004 0.865,-1.042 -1.443,-1.796 -1.796,-1.391 -1.125,1.292 -2,2.084 -2.464,2.496 -0.323,0.285 -0.823,0.859 -2.208,1.791 -2.104,1.3960004 -3.568,1.9330004 -5.183,3.3020004 -0.749,0.635 -1.713,0.64 -2.12,1.64 -0.426,1 0.319,2.032 0.319,2.032 z"
     id="path191" />
  <path
     style="fill:#231f20;fill-opacity:1;fill-rule:nonzero;stroke:#231f20;stroke-width:0.565977;stroke-linecap:round;stroke-linejoin:round;stroke-miterlimit:4;stroke-dasharray:none;stroke-opacity:1"
     d="m 165.41174,17.868652 c 0.729,1.214 2.874,0.98 3.193,1.095 4.719,1.687 5.104,1.681 8.781,2.713 5.328,1.49 9.203,1.687 10.979,-1.152 1.193,-1.937 1.047,-3.566 0.271,-4.624 -0.87,-1.172 -3.73,-2.562 -6.187,-1.052 l -1.715,-0.01 c -1.156,-0.147 -1.724,-0.214 -2.285,-0.328 -0.975,-0.214 -2.043,-0.376 -3.98,-0.672 -3.437,-0.532 -7.235,0.025 -7.235,0.025 -0.306,-0.036 -0.577,0.047 -0.801,0.199"
     id="path192" />
  <path
     style="fill:#fab41d;fill-opacity:1;fill-rule:nonzero;stroke:none"
     d="m 188.74974,15.963652 c -0.858,-1.177 -3.713,-2.584 -6.177,-1.073 l -1.921,7.572 c 3.697,0.704 6.406,0.365 7.812,-1.875 1.204,-1.927 1.073,-3.563 0.286,-4.624"
     id="path193" />
  <path
     style="fill:none;stroke:#231f20;stroke-width:0.565977;stroke-linecap:butt;stroke-linejoin:miter;stroke-miterlimit:4;stroke-dasharray:none;stroke-opacity:1"
     d="m 188.74974,15.963652 c -0.858,-1.177 -3.713,-2.584 -6.177,-1.073 l -1.921,7.572 c 3.697,0.704 6.406,0.365 7.812,-1.875 1.204,-1.927 1.073,-3.563 0.286,-4.624 z"
     id="path194" />
  <path
     style="fill:#231f20;fill-opacity:1;fill-rule:nonzero;stroke:none"
     d="m 172.93274,11.390652 c 0.453,0.453 0.583,2.401 1.296,3.844 0.48,0.968 0.589,3.713 1.141,4.645 0.506,0.86 0.656,1.292 -0.218,2.036 -0.522,0.443 -1.808,0.953 -2.156,0.584 -0.814,-0.869 -1.136,-1.76 -1.287,-2.813 -0.167,-1.208 -0.328,-4.515 -0.303,-5.124 0.063,-1.527 -0.364,-2.12 -0.39,-2.527 -0.031,-0.765 0.25,-0.962 0.729,-1.098 0.937,-0.251 1.188,0.453 1.188,0.453"
     id="path195" />
  <path
     style="fill:none;stroke:#231f20;stroke-width:0.565977;stroke-linecap:butt;stroke-linejoin:miter;stroke-miterlimit:4;stroke-dasharray:none;stroke-opacity:1"
     d="m 172.93274,11.390652 c 0.453,0.453 0.583,2.401 1.296,3.844 0.48,0.968 0.589,3.713 1.141,4.645 0.506,0.86 0.656,1.292 -0.218,2.036 -0.522,0.443 -1.808,0.953 -2.156,0.584 -0.814,-0.869 -1.136,-1.76 -1.287,-2.813 -0.167,-1.208 -0.328,-4.515 -0.303,-5.124 0.063,-1.527 -0.364,-2.12 -0.39,-2.527 -0.031,-0.765 0.25,-0.962 0.729,-1.098 0.937,-0.251 1.188,0.453 1.188,0.453 z"
     id="path196" />
  <path
     style="fill:#231f20;fill-opacity:1;fill-rule:nonzero;stroke:none"
     d="m 174.99574,20.447652 c 1.296,-0.095 1.082,1.927 1.109,2.463 0.02,0.548 0.265,2.089 0.62,3.256 0.343,1.177 0.276,2.792 0.927,5.02 0.344,1.172 -0.063,2.537 -1.787,2.958 -1.703,0.428 -2.584,-0.374 -2.787,-1.858 -0.202,-1.486 0.235,-2.959 0.136,-4.47 -0.094,-1.505 -0.333,-3.036 -0.589,-4.229 -0.276,-1.353 0.084,-2.12 0.48,-2.391 0.979,-0.681 1.891,-0.749 1.891,-0.749"
     id="path197" />
  <path
     style="fill:none;stroke:#231f20;stroke-width:0.565977;stroke-linecap:butt;stroke-linejoin:miter;stroke-miterlimit:4;stroke-dasharray:none;stroke-opacity:1"
     d="m 174.99574,20.447652 c 1.296,-0.095 1.082,1.927 1.109,2.463 0.02,0.548 0.265,2.089 0.62,3.256 0.343,1.177 0.276,2.792 0.927,5.02 0.344,1.172 -0.063,2.537 -1.787,2.958 -1.703,0.428 -2.584,-0.374 -2.787,-1.858 -0.202,-1.486 0.235,-2.959 0.136,-4.47 -0.094,-1.505 -0.333,-3.036 -0.589,-4.229 -0.276,-1.353 0.084,-2.12 0.48,-2.391 0.979,-0.681 1.891,-0.749 1.891,-0.749 z"
     id="path198" />
  <path
     style="fill:#231f20;fill-opacity:1;fill-rule:nonzero;stroke:none"
     d="m 175.07774,6.1616516 c 0.052,0.734 -0.849,3.8580004 -1.093,4.5620004 -0.213,0.63 -0.219,1.781 -1.371,1.907 -0.457,0.077 -1.17,-0.172 -1.432,-0.35 -0.224,-0.146 -0.213,-0.474 -0.052,-0.827 0.262,-0.615 0.584,-0.694 1.162,-1.8230004 0,0 0.177,-0.251 0.537,-0.667 1.02,-1.266 0.681,-0.614 1.776,-2.781 0.067,-0.157 0.276,-0.188 0.375,-0.131 0.156,0.099 0.098,0.11 0.098,0.11"
     id="path199" />
  <path
     style="fill:none;stroke:#231f20;stroke-width:0.565977;stroke-linecap:round;stroke-linejoin:round;stroke-miterlimit:4;stroke-dasharray:none;stroke-opacity:1"
     d="m 175.07774,6.1616516 c 0.052,0.734 -0.849,3.8580004 -1.093,4.5620004 -0.213,0.63 -0.219,1.781 -1.371,1.907 -0.457,0.077 -1.17,-0.172 -1.432,-0.35 -0.224,-0.146 -0.213,-0.474 -0.052,-0.827 0.262,-0.615 0.584,-0.694 1.162,-1.8230004 0,0 0.177,-0.251 0.537,-0.667 1.02,-1.266 0.681,-0.614 1.776,-2.781 0.067,-0.157 0.276,-0.188 0.375,-0.131 0.156,0.099 0.098,0.11 0.098,0.11 z"
     id="path200" />
  <path
     style="fill:#231f20;fill-opacity:1;fill-rule:nonzero;stroke:none"
     d="m 179.93274,4.8496516 c 0.396,1.29 -0.38,1.905 -1.423,1.858 -0.306,-0.016 -0.588,0.303 -0.89,0.266 -0.698,-0.094 -1.714,-1.511 -0.75,-2.656 0.068,-0.078 0.38,-0.844 0.698,-1.375 0.636,-1.027 2.396,-2.79699998 5.1,-2.77599998 1.27,0.011 1.03,0.765 0.514,0.92099998 -1.64,0.475 -1.692,0.839 -2.082,1.131 -1.308,0.948 -1.167,2.631 -1.167,2.631"
     id="path201" />
  <path
     style="fill:none;stroke:#231f20;stroke-width:0.332927;stroke-linecap:butt;stroke-linejoin:miter;stroke-miterlimit:4;stroke-dasharray:none;stroke-opacity:1"
     d="m 179.93274,4.8496516 c 0.396,1.29 -0.38,1.905 -1.423,1.858 -0.306,-0.016 -0.588,0.303 -0.89,0.266 -0.698,-0.094 -1.714,-1.511 -0.75,-2.656 0.068,-0.078 0.38,-0.844 0.698,-1.375 0.636,-1.027 2.396,-2.79699998 5.1,-2.77599998 1.27,0.011 1.03,0.765 0.514,0.92099998 -1.64,0.475 -1.692,0.839 -2.082,1.131 -1.308,0.948 -1.167,2.631 -1.167,2.631 z"
     id="path202" />
  <path
     style="fill:#231f20;fill-opacity:1;fill-rule:nonzero;stroke:none"
     d="m 243.78574,68.488651 c -1.322,0.282 -1.858,-0.552 -1.724,-1.582 0.043,-0.308 -0.244,-0.61 -0.181,-0.912 0.156,-0.688 1.656,-1.574 2.713,-0.511 0.074,0.073 0.802,0.453 1.302,0.817 0.969,0.724 2.578,2.647 2.308,5.33 -0.12,1.27 -0.855,0.957 -0.959,0.432 -0.328,-1.678 -0.687,-1.766 -0.943,-2.178 -0.828,-1.385 -2.516,-1.396 -2.516,-1.396"
     id="path203" />
  <path
     style="fill:none;stroke:#231f20;stroke-width:0.332927;stroke-linecap:butt;stroke-linejoin:miter;stroke-miterlimit:4;stroke-dasharray:none;stroke-opacity:1"
     d="m 243.78574,68.488651 c -1.322,0.282 -1.858,-0.552 -1.724,-1.582 0.043,-0.308 -0.244,-0.61 -0.181,-0.912 0.156,-0.688 1.656,-1.574 2.713,-0.511 0.074,0.073 0.802,0.453 1.302,0.817 0.969,0.724 2.578,2.647 2.308,5.33 -0.12,1.27 -0.855,0.957 -0.959,0.432 -0.328,-1.678 -0.687,-1.766 -0.943,-2.178 -0.828,-1.385 -2.516,-1.396 -2.516,-1.396 z"
     id="path204" />
  <path
     style="fill:#231f20;fill-opacity:1;fill-rule:nonzero;stroke:#231f20;stroke-width:0.565977;stroke-linecap:round;stroke-linejoin:round;stroke-miterlimit:4;stroke-dasharray:none;stroke-opacity:1"
     d="m 68.047736,27.608652 c 0,0 1.291,-0.265 2.405,0.063 1.115,0.333 2.172,1.181 2.172,1.181 l -0.885,3.172 -4.61,-1.281 z"
     id="path205" />
  <path
     style="fill:#231f20;fill-opacity:1;fill-rule:nonzero;stroke:none"
     d="m 68.676736,44.967652 c 3.464,0.996 2.694,2.491 2.563,6.568 -0.14,4.459 -0.765,9.094999 -2.14,12.094999 -1.532,3.353 -1.161,3.713 -3.073,3.837 -1.916,0.125 -1.99,-0.651 -2.828,-1.629 -0.97,-1.131 1.754,-7.97 1.74,-12.718999 -0.011,-2.229 -1.475,-7.557 -0.063,-7.901 1.416,-0.339 3.801,-0.251 3.801,-0.251"
     id="path206" />
  <path
     style="fill:none;stroke:#231f20;stroke-width:0.565977;stroke-linecap:butt;stroke-linejoin:miter;stroke-miterlimit:4;stroke-dasharray:none;stroke-opacity:1"
     d="m 68.676736,44.967652 c 3.464,0.996 2.694,2.491 2.563,6.568 -0.14,4.459 -0.765,9.094999 -2.14,12.094999 -1.532,3.353 -1.161,3.713 -3.073,3.837 -1.916,0.125 -1.99,-0.651 -2.828,-1.629 -0.97,-1.131 1.754,-7.97 1.74,-12.718999 -0.011,-2.229 -1.475,-7.557 -0.063,-7.901 1.416,-0.339 3.801,-0.251 3.801,-0.251 z"
     id="path207" />
  <path
     style="fill:#231f20;fill-opacity:1;fill-rule:nonzero;stroke:none"
     d="m 65.250736,65.348651 c 2.26,0.114 2.921,0.114 2.401,2.562 -0.13,0.625 -0.625,2.333 -0.599,2.72 0.083,1.296 0.072,2.806 -2.677,8.785 -0.428,0.933 -0.932,2.839 -1.406,4.161 -0.459,1.282 -2.271,-0.342 -2.094,-0.848 0.558,-1.62 0.568,-2.786 0.687,-3.396 0.084,-0.422 0.376,-1.177 0.292,-2.838 -0.214,-4.271 1.156,-5.443 1.187,-6.339 0.094,-2.583 -0.354,-4.807 0.276,-5.027 1.026,-0.353 1.933,0.22 1.933,0.22"
     id="path208" />
  <path
     style="fill:none;stroke:#231f20;stroke-width:0.565977;stroke-linecap:butt;stroke-linejoin:miter;stroke-miterlimit:4;stroke-dasharray:none;stroke-opacity:1"
     d="m 65.250736,65.348651 c 2.26,0.114 2.921,0.114 2.401,2.562 -0.13,0.625 -0.625,2.333 -0.599,2.72 0.083,1.296 0.072,2.806 -2.677,8.785 -0.428,0.933 -0.932,2.839 -1.406,4.161 -0.459,1.282 -2.271,-0.342 -2.094,-0.848 0.558,-1.62 0.568,-2.786 0.687,-3.396 0.084,-0.422 0.376,-1.177 0.292,-2.838 -0.214,-4.271 1.156,-5.443 1.187,-6.339 0.094,-2.583 -0.354,-4.807 0.276,-5.027 1.026,-0.353 1.933,0.22 1.933,0.22 z"
     id="path209" />
  <path
     style="fill:#231f20;fill-opacity:1;fill-rule:nonzero;stroke:none"
     d="m 62.911736,43.400652 c -3.604,0.01 -3.271,1.662 -4.265,5.619 -1.088,4.319 -1.755,8.947999 -1.26,12.208999 0.561,3.646 0.104,3.896 1.905,4.536 1.814,0.646 2.095,-0.082 3.167,-0.792 1.24,-0.822 0.494,-8.139999 1.818,-12.707999 0.619,-2.14 3.484,-6.858 2.224,-7.578 -1.266,-0.719 -3.589,-1.286 -3.589,-1.286"
     id="path210" />
  <path
     style="fill:none;stroke:#231f20;stroke-width:0.565977;stroke-linecap:butt;stroke-linejoin:miter;stroke-miterlimit:4;stroke-dasharray:none;stroke-opacity:1"
     d="m 62.911736,43.400652 c -3.604,0.01 -3.271,1.662 -4.265,5.619 -1.088,4.319 -1.755,8.947999 -1.26,12.208999 0.561,3.646 0.104,3.896 1.905,4.536 1.814,0.646 2.095,-0.082 3.167,-0.792 1.24,-0.822 0.494,-8.139999 1.818,-12.707999 0.619,-2.14 3.484,-6.858 2.224,-7.578 -1.266,-0.719 -3.589,-1.286 -3.589,-1.286 z"
     id="path211" />
  <path
     style="fill:#fab41d;fill-opacity:1;fill-rule:nonzero;stroke:none"
     d="m 63.657736,52.363652 c 0.472,0.136 1.171,-0.12 1.171,-0.12 0,0 2.239,-5.395 5.266,-6.119 l 0.349,0.078 c 0.64,1.073 -0.084,-1.224 0.129,-1.938 0.928,-3.114 3.532,-7.5 4.48,-8.448 1.296,-1.292 3.916,-1.093 3.396,-3.192 0,0 -0.094,-1.942 -2.876,-2.344 -1.01,-0.146 -2.948,-1.428 -2.948,-1.428 0,0.043 -0.005,0.084 -0.014,0.126 -0.339,1.204 -1.558,1.604 -2.85,1.27 l 0.074,0.016 c -1.287,-0.374 -2.11,-1.412 -1.787,-2.557 0.011,-0.041 0.025,-0.073 0.047,-0.109 0,0 -2.323,0.093 -3.26,-0.298 -2.589,-1.093 -3.688,0.798 -3.688,0.798 -1.527,1.536 0.833,2.432 1.276,4.213 0.323,1.297 0.297,6.396 -0.516,9.547 -0.187,0.718 -1.995,2.318 -0.891,1.729 l 0.339,0.109 c 2.218,2.183 1.354,7.959 1.354,7.959 0,0 0.468,0.573 0.949,0.708"
     id="path212" />
  <path
     style="fill:none;stroke:#231f20;stroke-width:0.565977;stroke-linecap:round;stroke-linejoin:round;stroke-miterlimit:4;stroke-dasharray:none;stroke-opacity:1"
     d="m 63.657736,52.363652 c 0.472,0.136 1.171,-0.12 1.171,-0.12 0,0 2.239,-5.395 5.266,-6.119 l 0.349,0.078 c 0.64,1.073 -0.084,-1.224 0.129,-1.938 0.928,-3.114 3.532,-7.5 4.48,-8.448 1.296,-1.292 3.916,-1.093 3.396,-3.192 0,0 -0.094,-1.942 -2.876,-2.344 -1.01,-0.146 -2.948,-1.428 -2.948,-1.428 0,0.043 -0.005,0.084 -0.014,0.126 -0.339,1.204 -1.558,1.604 -2.85,1.27 l 0.074,0.016 c -1.287,-0.374 -2.11,-1.412 -1.787,-2.557 0.011,-0.041 0.025,-0.073 0.047,-0.109 0,0 -2.323,0.093 -3.26,-0.298 -2.589,-1.093 -3.688,0.798 -3.688,0.798 -1.527,1.536 0.833,2.432 1.276,4.213 0.323,1.297 0.297,6.396 -0.516,9.547 -0.187,0.718 -1.995,2.318 -0.891,1.729 l 0.339,0.109 c 2.218,2.183 1.354,7.959 1.354,7.959 0,0 0.468,0.573 0.949,0.708 z"
     id="path213" />
  <path
     style="fill:#ffffff;fill-opacity:1;fill-rule:nonzero;stroke:none"
     d="m 68.224736,21.936652 c -0.761,2.719 0.244,5.375 2.239,5.938 2,0.562 4.24,-1.192 5.005,-3.911 0.76,-2.72 -0.244,-5.381 -2.244,-5.939 -2,-0.557 -4.24,1.188 -5,3.912"
     id="path214" />
  <path
     style="fill:none;stroke:#231f20;stroke-width:0.565977;stroke-linecap:butt;stroke-linejoin:miter;stroke-miterlimit:4;stroke-dasharray:none;stroke-opacity:1"
     d="m 68.224736,21.936652 c -0.761,2.719 0.244,5.375 2.239,5.938 2,0.562 4.24,-1.192 5.005,-3.911 0.76,-2.72 -0.244,-5.381 -2.244,-5.939 -2,-0.557 -4.24,1.188 -5,3.912 z"
     id="path215" />
  <path
     style="fill:#231f20;fill-opacity:1;fill-rule:nonzero;stroke:none"
     d="m 60.599736,63.926651 c -2.208,-0.5 -2.844,-0.678 -3,1.822 -0.041,0.642 -0.027,2.418 -0.156,2.782 -0.433,1.224 -0.824,2.682 0.214,9.182 0.166,1.011 0.139,2.984 0.238,4.386 0.105,1.354 2.281,0.276 2.251,-0.26 -0.105,-1.71 0.202,-2.834 0.245,-3.454 0.031,-0.432 -0.043,-1.229 0.484,-2.812 1.353,-4.057 0.349,-5.548 0.558,-6.428 0.603,-2.51 1.634,-4.53 1.088,-4.91 -0.897,-0.615 -1.922,-0.308 -1.922,-0.308"
     id="path216" />
  <path
     style="fill:none;stroke:#231f20;stroke-width:0.565977;stroke-linecap:butt;stroke-linejoin:miter;stroke-miterlimit:4;stroke-dasharray:none;stroke-opacity:1"
     d="m 60.599736,63.926651 c -2.208,-0.5 -2.844,-0.678 -3,1.822 -0.041,0.642 -0.027,2.418 -0.156,2.782 -0.433,1.224 -0.824,2.682 0.214,9.182 0.166,1.011 0.139,2.984 0.238,4.386 0.105,1.354 2.281,0.276 2.251,-0.26 -0.105,-1.71 0.202,-2.834 0.245,-3.454 0.031,-0.432 -0.043,-1.229 0.484,-2.812 1.353,-4.057 0.349,-5.548 0.558,-6.428 0.603,-2.51 1.634,-4.53 1.088,-4.91 -0.897,-0.615 -1.922,-0.308 -1.922,-0.308 z"
     id="path217" />
  <path
     style="fill:#231f20;fill-opacity:1;fill-rule:nonzero;stroke:none"
     d="m 68.140736,18.103652 c 1.172,0.552 -0.016,2.203 -0.26,2.688 -0.251,0.484 -0.792,1.943 -1.073,3.129 -0.281,1.194 -1.14,2.563 -1.678,4.823 -0.281,1.193 -1.306,2.172 -3.014,1.688 -1.693,-0.473 -2.057,-1.604 -1.501,-2.995 0.557,-1.385 1.667,-2.458 2.329,-3.817 0.662,-1.36 1.208,-2.808 1.583,-3.959 0.421,-1.317 1.125,-1.812 1.598,-1.854 1.193,-0.104 2.016,0.297 2.016,0.297"
     id="path218" />
  <path
     style="fill:none;stroke:#231f20;stroke-width:0.565977;stroke-linecap:butt;stroke-linejoin:miter;stroke-miterlimit:4;stroke-dasharray:none;stroke-opacity:1"
     d="m 68.140736,18.103652 c 1.172,0.552 -0.016,2.203 -0.26,2.688 -0.251,0.484 -0.792,1.943 -1.073,3.129 -0.281,1.194 -1.14,2.563 -1.678,4.823 -0.281,1.193 -1.306,2.172 -3.014,1.688 -1.693,-0.473 -2.057,-1.604 -1.501,-2.995 0.557,-1.385 1.667,-2.458 2.329,-3.817 0.662,-1.36 1.208,-2.808 1.583,-3.959 0.421,-1.317 1.125,-1.812 1.598,-1.854 1.193,-0.104 2.016,0.297 2.016,0.297 z"
     id="path219" />
  <path
     style="fill:#231f20;fill-opacity:1;fill-rule:nonzero;stroke:none"
     d="m 72.990736,11.306652 c -0.631,0.125 -1.828,1.657 -3.235,2.442 -0.948,0.532 -2.579,2.74 -3.562,3.194 -0.902,0.426 -1.271,0.702 -0.969,1.817 0.176,0.656 0.952,1.808 1.452,1.693 1.162,-0.261 1.928,-0.813 2.652,-1.604 0.818,-0.901 2.812,-3.542 3.135,-4.062 0.803,-1.298 1.495,-1.547 1.74,-1.876 0.464,-0.599 0.344,-0.927 0.016,-1.307 -0.625,-0.729 -1.229,-0.297 -1.229,-0.297"
     id="path220" />
  <path
     style="fill:none;stroke:#231f20;stroke-width:0.565977;stroke-linecap:butt;stroke-linejoin:miter;stroke-miterlimit:4;stroke-dasharray:none;stroke-opacity:1"
     d="m 72.990736,11.306652 c -0.631,0.125 -1.828,1.657 -3.235,2.442 -0.948,0.532 -2.579,2.74 -3.562,3.194 -0.902,0.426 -1.271,0.702 -0.969,1.817 0.176,0.656 0.952,1.808 1.452,1.693 1.162,-0.261 1.928,-0.813 2.652,-1.604 0.818,-0.901 2.812,-3.542 3.135,-4.062 0.803,-1.298 1.495,-1.547 1.74,-1.876 0.464,-0.599 0.344,-0.927 0.016,-1.307 -0.625,-0.729 -1.229,-0.297 -1.229,-0.297 z"
     id="path221" />
  <path
     style="fill:#231f20;fill-opacity:1;fill-rule:nonzero;stroke:none"
     d="m 78.406736,6.8016516 c -0.692,0.218 -3.266,2.209 -3.834,2.688 -0.51,0.421 -1.582,0.8600004 -1.292,1.9730004 0.12,0.453 0.611,1.032 0.871,1.214 0.208,0.146 0.516,0.026 0.796,-0.261 0.469,-0.473 0.417,-0.79 1.261,-1.754 0,0 0.167,-0.251 0.432,-0.7300004 0.798,-1.426 0.318,-0.874 1.932,-2.672 0.115,-0.13 0.068,-0.344 -0.02,-0.41 -0.146,-0.106 -0.146,-0.048 -0.146,-0.048"
     id="path222" />
  <path
     style="fill:none;stroke:#231f20;stroke-width:0.565977;stroke-linecap:round;stroke-linejoin:round;stroke-miterlimit:4;stroke-dasharray:none;stroke-opacity:1"
     d="m 78.406736,6.8016516 c -0.692,0.218 -3.266,2.209 -3.834,2.688 -0.51,0.421 -1.582,0.8600004 -1.292,1.9730004 0.12,0.453 0.611,1.032 0.871,1.214 0.208,0.146 0.516,0.026 0.796,-0.261 0.469,-0.473 0.417,-0.79 1.261,-1.754 0,0 0.167,-0.251 0.432,-0.7300004 0.798,-1.426 0.318,-0.874 1.932,-2.672 0.115,-0.13 0.068,-0.344 -0.02,-0.41 -0.146,-0.106 -0.146,-0.048 -0.146,-0.048 z"
     id="path223" />
  <path
     style="fill:#231f20;fill-opacity:1;fill-rule:nonzero;stroke:none"
     d="m 79.427736,21.103652 c -1.251,-0.339 -1.412,1.692 -1.541,2.219 -0.126,0.526 -0.652,1.989 -1.21,3.078 -0.557,1.094 -0.79,2.692 -1.848,4.76 -0.552,1.094 -0.406,2.506 1.208,3.24 1.593,0.728 2.615,0.11 3.083,-1.308 0.475,-1.421 0.324,-2.953 0.699,-4.416 0.374,-1.469 0.896,-2.928 1.358,-4.046 0.527,-1.282 0.314,-2.106 -0.02,-2.448 -0.838,-0.85 -1.729,-1.079 -1.729,-1.079"
     id="path224" />
  <path
     style="fill:none;stroke:#231f20;stroke-width:0.565977;stroke-linecap:butt;stroke-linejoin:miter;stroke-miterlimit:4;stroke-dasharray:none;stroke-opacity:1"
     d="m 79.427736,21.103652 c -1.251,-0.339 -1.412,1.692 -1.541,2.219 -0.126,0.526 -0.652,1.989 -1.21,3.078 -0.557,1.094 -0.79,2.692 -1.848,4.76 -0.552,1.094 -0.406,2.506 1.208,3.24 1.593,0.728 2.615,0.11 3.083,-1.308 0.475,-1.421 0.324,-2.953 0.699,-4.416 0.374,-1.469 0.896,-2.928 1.358,-4.046 0.527,-1.282 0.314,-2.106 -0.02,-2.448 -0.838,-0.85 -1.729,-1.079 -1.729,-1.079 z"
     id="path225" />
  <path
     style="fill:#231f20;fill-opacity:1;fill-rule:nonzero;stroke:none"
     d="m 82.958736,12.624652 c 0.24,0.594 -0.391,2.432 -0.287,4.042 0.068,1.082 -0.889,3.65 -0.739,4.729 0.135,0.984 0.104,1.448 -0.994,1.796 -0.652,0.209 -2.038,0.188 -2.214,-0.296 -0.412,-1.115 -0.365,-2.057 -0.095,-3.095 0.309,-1.17 1.433,-4.285 1.694,-4.842 0.651,-1.382 0.484,-2.095 0.624,-2.48 0.256,-0.714 0.595,-0.792 1.095,-0.724 0.948,0.125 0.916,0.87 0.916,0.87"
     id="path226" />
  <path
     style="fill:none;stroke:#231f20;stroke-width:0.565977;stroke-linecap:butt;stroke-linejoin:miter;stroke-miterlimit:4;stroke-dasharray:none;stroke-opacity:1"
     d="m 82.958736,12.624652 c 0.24,0.594 -0.391,2.432 -0.287,4.042 0.068,1.082 -0.889,3.65 -0.739,4.729 0.135,0.984 0.104,1.448 -0.994,1.796 -0.652,0.209 -2.038,0.188 -2.214,-0.296 -0.412,-1.115 -0.365,-2.057 -0.095,-3.095 0.309,-1.17 1.433,-4.285 1.694,-4.842 0.651,-1.382 0.484,-2.095 0.624,-2.48 0.256,-0.714 0.595,-0.792 1.095,-0.724 0.948,0.125 0.916,0.87 0.916,0.87 z"
     id="path227" />
  <path
     style="fill:#231f20;fill-opacity:1;fill-rule:nonzero;stroke:none"
     d="m 83.786736,5.6256516 c 0.193,0.697 -0.072,3.942 -0.167,4.6810004 -0.077,0.661 0.141,1.792 -0.952,2.156 -0.443,0.146 -1.193,0.053 -1.491,-0.067 -0.233,-0.099 -0.306,-0.423 -0.218,-0.813 0.146,-0.651 0.437,-0.781 0.781,-2.0090004 0,0 0.131,-0.276 0.385,-0.762 0.762,-1.442 0.563,-0.738 1.188,-3.077 0.047,-0.167 0.246,-0.24 0.355,-0.204 0.167,0.063 0.119,0.095 0.119,0.095"
     id="path228" />
  <path
     style="fill:none;stroke:#231f20;stroke-width:0.565977;stroke-linecap:round;stroke-linejoin:round;stroke-miterlimit:4;stroke-dasharray:none;stroke-opacity:1"
     d="m 83.786736,5.6256516 c 0.193,0.697 -0.072,3.942 -0.167,4.6810004 -0.077,0.661 0.141,1.792 -0.952,2.156 -0.443,0.146 -1.193,0.053 -1.491,-0.067 -0.233,-0.099 -0.306,-0.423 -0.218,-0.813 0.146,-0.651 0.437,-0.781 0.781,-2.0090004 0,0 0.131,-0.276 0.385,-0.762 0.762,-1.442 0.563,-0.738 1.188,-3.077 0.047,-0.167 0.246,-0.24 0.355,-0.204 0.167,0.063 0.119,0.095 0.119,0.095 z"
     id="path229" />
  <path
     style="fill:#fab41d;fill-opacity:1;fill-rule:nonzero;stroke:none"
     d="m 61.260736,42.795652 c -0.26,0.235 -1.145,1.277 -1.406,1.663 -1.64,2.473 -2.38,6.353 -2.902,7.514 -0.525,1.162 5.939,2.475 5.939,2.475 l 0.859,-1.756 c 0.349,0.516 0.958,0.215 0.958,0.215 l 0.037,2.014 c 0,0 6.265,1.59 6.327,0.584 0.09,-1.396 0.969,-5.937 0.522,-8.349 -0.24,-1.323 -0.86,-2.136 -0.86,-2.136 0,0 -3.791,0.297 -5.187,0.005 -1.396,-0.296 -4.287,-2.229 -4.287,-2.229"
     id="path230" />
  <path
     style="fill:none;stroke:#231f20;stroke-width:0.565977;stroke-linecap:round;stroke-linejoin:round;stroke-miterlimit:4;stroke-dasharray:none;stroke-opacity:1"
     d="m 61.260736,42.795652 c -0.26,0.235 -1.145,1.277 -1.406,1.663 -1.64,2.473 -2.38,6.353 -2.902,7.514 -0.525,1.162 5.939,2.475 5.939,2.475 l 0.859,-1.756 c 0.349,0.516 0.958,0.215 0.958,0.215 l 0.037,2.014 c 0,0 6.265,1.59 6.327,0.584 0.09,-1.396 0.969,-5.937 0.522,-8.349 -0.24,-1.323 -0.86,-2.136 -0.86,-2.136 0,0 -3.791,0.297 -5.187,0.005 -1.396,-0.296 -4.287,-2.229 -4.287,-2.229 z"
     id="path231" />
  <path
     style="fill:#231f20;fill-opacity:1;fill-rule:nonzero;stroke:none"
     d="m 55.796736,87.046651 c -0.255,-0.62 1.027,-1.886 1.167,-3.85 0.027,-0.405 0.24,-0.713 0.401,-1.046 0.636,-1.37 1.964,-2.255 2.677,1.505 0.099,0.527 -0.395,2.563 -0.193,3.317 0.495,1.798 -1.276,4.615 -1.765,4.443 -1.062,-0.348 -2.287,-4.369 -2.287,-4.369"
     id="path232" />
  <path
     style="fill:none;stroke:#231f20;stroke-width:0.644548;stroke-linecap:round;stroke-linejoin:round;stroke-miterlimit:4;stroke-dasharray:none;stroke-opacity:1"
     d="m 55.796736,87.046651 c -0.255,-0.62 1.027,-1.886 1.167,-3.85 0.027,-0.405 0.24,-0.713 0.401,-1.046 0.636,-1.37 1.964,-2.255 2.677,1.505 0.099,0.527 -0.395,2.563 -0.193,3.317 0.495,1.798 -1.276,4.615 -1.765,4.443 -1.062,-0.348 -2.287,-4.369 -2.287,-4.369 z"
     id="path233" />
  <path
     style="fill:#231f20;fill-opacity:1;fill-rule:nonzero;stroke:none"
     d="m 63.572736,88.598651 c 0.35,-0.568 -0.718,-2.022 -0.546,-3.984 0.032,-0.402 -0.131,-0.74 -0.235,-1.099 -0.416,-1.448 -1.593,-2.537 -2.88,1.072 -0.177,0.5 -0.005,2.589 -0.323,3.308 -0.771,1.697 0.531,4.749 1.047,4.667 1.104,-0.178 2.937,-3.964 2.937,-3.964"
     id="path234" />
  <path
     style="fill:none;stroke:#231f20;stroke-width:0.644548;stroke-linecap:round;stroke-linejoin:round;stroke-miterlimit:4;stroke-dasharray:none;stroke-opacity:1"
     d="m 63.572736,88.598651 c 0.35,-0.568 -0.718,-2.022 -0.546,-3.984 0.032,-0.402 -0.131,-0.74 -0.235,-1.099 -0.416,-1.448 -1.593,-2.537 -2.88,1.072 -0.177,0.5 -0.005,2.589 -0.323,3.308 -0.771,1.697 0.531,4.749 1.047,4.667 1.104,-0.178 2.937,-3.964 2.937,-3.964 z"
     id="path235" />
</svg>
