<?xml version="1.0" encoding="UTF-8" standalone="no"?>
<!-- Created with Inkscape (http://www.inkscape.org/) -->

<svg
   version="1.1"
   id="svg1"
   width="315.69855"
   height="170.43411"
   viewBox="0 0 315.69854 170.43411"
   sodipodi:docname="cell.svg"
   xmlns:inkscape="http://www.inkscape.org/namespaces/inkscape"
   xmlns:sodipodi="http://sodipodi.sourceforge.net/DTD/sodipodi-0.dtd"
   xmlns="http://www.w3.org/2000/svg"
   xmlns:svg="http://www.w3.org/2000/svg">
  <sodipodi:namedview
     id="namedview1"
     pagecolor="#ffffff"
     bordercolor="#000000"
     borderopacity="0.25"
     inkscape:showpageshadow="2"
     inkscape:pageopacity="0.0"
     inkscape:pagecheckerboard="0"
     inkscape:deskcolor="#d1d1d1">
    <inkscape:page
       x="0"
       y="0"
       inkscape:label="1"
       id="page1"
       width="315.69855"
       height="170.43411"
       margin="0"
       bleed="0" />
  </sodipodi:namedview>
  <defs
     id="defs1" />
  <path
     style="fill:#ffffff;fill-opacity:1;fill-rule:nonzero;stroke:none"
     d="m 298.76854,18.874 h 16.93 V 0 h -16.93 z"
     id="path1015" />
  <path
     style="fill:#fab41d;fill-opacity:1;fill-rule:nonzero;stroke:none"
     d="m 68.622544,98.984 c -1.375,2.807 -1.979,3.266 -2.676,3.87 -4.376,3.781 -2.439,5.859 0.337,6.629 3.267,0.918 4.423,1.314 6.636,-4.577 0.615,-1.641 3.803,-7.614 3.803,-7.614 1.427,-1.995 1.76,-4.694 1.036,-5.954 -0.76,-1.333 -0.557,-0.754 -1.484,-1.849 -0.891,-1.057 -2.953,-1.781 -4.016,-1.161 -1.032,0.598 -1.047,2.265 -1.38,4.666 -0.265,1.891 -2.256,5.99 -2.256,5.99"
     id="path1016" />
  <path
     style="fill:none;stroke:#231f20;stroke-width:0.565977;stroke-linecap:butt;stroke-linejoin:miter;stroke-miterlimit:4;stroke-dasharray:none;stroke-opacity:1"
     d="m 68.622544,98.984 c -1.375,2.807 -1.979,3.266 -2.676,3.87 -4.376,3.781 -2.439,5.859 0.337,6.629 3.267,0.918 4.423,1.314 6.636,-4.577 0.615,-1.641 3.803,-7.614 3.803,-7.614 1.427,-1.995 1.76,-4.694 1.036,-5.954 -0.76,-1.333 -0.557,-0.754 -1.484,-1.849 -0.891,-1.057 -2.953,-1.781 -4.016,-1.161 -1.032,0.598 -1.047,2.265 -1.38,4.666 -0.265,1.891 -2.256,5.99 -2.256,5.99 z"
     id="path1017" />
  <path
     style="fill:#ffffff;fill-opacity:1;fill-rule:nonzero;stroke:none"
     d="m 81.216544,85.312 c 0.13,-0.214 1.23,0.157 1.432,-0.328 0.203,-0.49 -0.437,-0.968 -0.521,-2.948 l -0.005,-0.026 c -0.02,-1.453 -0.624,-2.708 -1.739,-3.281 -1.849,-0.948 -4.39,0.323 -5.682,2.828 -1.292,2.516 -0.834,5.317 1.01,6.271 1.76,0.912 4.178,-0.214 5.505,-2.516"
     id="path1018" />
  <path
     style="fill:none;stroke:#231f20;stroke-width:0.565977;stroke-linecap:butt;stroke-linejoin:miter;stroke-miterlimit:4;stroke-dasharray:none;stroke-opacity:1"
     d="m 81.216544,85.312 c 0.13,-0.214 1.23,0.157 1.432,-0.328 0.203,-0.49 -0.437,-0.968 -0.521,-2.948 l -0.005,-0.026 c -0.02,-1.453 -0.624,-2.708 -1.739,-3.281 -1.849,-0.948 -4.39,0.323 -5.682,2.828 -1.292,2.516 -0.834,5.317 1.01,6.271 1.76,0.912 4.178,-0.214 5.505,-2.516 z"
     id="path1019" />
  <path
     style="fill:#231f20;fill-opacity:1;fill-rule:nonzero;stroke:none"
     d="m 53.607548,120.713 c -1.286,-1.859 -1.792,-2.047 -2.609,-1.547 -0.548,0.328 -1.167,0.443 -1.511,0.625 -1.141,0.61 -2.813,2.12 -6.437,7.615 -0.819,1.244 -1.985,2.989 -2.521,3.661 -0.828,1.068 1.505,1.74 1.844,1.323 1.077,-1.333 1.921,-2.156 2.374,-2.588 0.312,-0.292 0.787,-0.881 2.142,-1.86 2.046,-1.484 3.494,-2.068 5.052,-3.5 0.724,-0.661 1.686,-0.697 2.062,-1.713 0.39,-1.016 -0.396,-2.016 -0.396,-2.016"
     id="path1020" />
  <path
     style="fill:none;stroke:#231f20;stroke-width:0.565977;stroke-linecap:butt;stroke-linejoin:miter;stroke-miterlimit:4;stroke-dasharray:none;stroke-opacity:1"
     d="m 53.607548,120.713 c -1.286,-1.859 -1.792,-2.047 -2.609,-1.547 -0.548,0.328 -1.167,0.443 -1.511,0.625 -1.141,0.61 -2.813,2.12 -6.437,7.615 -0.819,1.244 -1.985,2.989 -2.521,3.661 -0.828,1.068 1.505,1.74 1.844,1.323 1.077,-1.333 1.921,-2.156 2.374,-2.588 0.312,-0.292 0.787,-0.881 2.142,-1.86 2.046,-1.484 3.494,-2.068 5.052,-3.5 0.724,-0.661 1.686,-0.697 2.062,-1.713 0.39,-1.016 -0.396,-2.016 -0.396,-2.016 z"
     id="path1021" />
  <path
     style="fill:#231f20;fill-opacity:1;fill-rule:nonzero;stroke:#231f20;stroke-width:0.565977;stroke-linecap:round;stroke-linejoin:round;stroke-miterlimit:4;stroke-dasharray:none;stroke-opacity:1"
     d="m 53.059548,123.161 c 1.396,0.245 2.619996,-1.531 2.917996,-1.698 4.364,-2.474 4.609,-2.765 7.792,-4.88 4.609,-3.057 7.29,-5.865 6.296,-9.062 -0.682,-2.167 -2.01,-3.126 -3.323,-3.23 -1.453,-0.098 -4.38,1.151 -4.839,4 l -1.124,1.292 c -0.865,0.776 -1.292,1.167 -1.745,1.515 -0.797,0.604 -1.615,1.303 -3.109,2.573 -2.641996,2.255 -4.702996,5.5 -4.702996,5.5 -0.229,0.203 -0.344,0.459 -0.381,0.73"
     id="path1022" />
  <path
     style="fill:#fab41d;fill-opacity:1;fill-rule:nonzero;stroke:none"
     d="m 70.471544,107.535 c -0.666,-2.166 -1.994,-3.134 -3.302,-3.238 -1.458,-0.11 -4.386,1.125 -4.848,3.978 l 4.473,6.402 c 2.948,-2.339 4.464,-4.61 3.677,-7.142"
     id="path1023" />
  <path
     style="fill:none;stroke:#231f20;stroke-width:0.565977;stroke-linecap:butt;stroke-linejoin:miter;stroke-miterlimit:4;stroke-dasharray:none;stroke-opacity:1"
     d="m 70.471544,107.535 c -0.666,-2.166 -1.994,-3.134 -3.302,-3.238 -1.458,-0.11 -4.386,1.125 -4.848,3.978 l 4.473,6.402 c 2.948,-2.339 4.464,-4.61 3.677,-7.142 z"
     id="path1024" />
  <path
     style="fill:#231f20;fill-opacity:1;fill-rule:nonzero;stroke:none"
     d="m 84.206544,73.849 c 0.093,0.635 -0.927,2.296 -1.188,3.88 -0.172,1.079 -1.678,3.364 -1.771,4.443 -0.088,0.994 -0.224,1.437 -1.364,1.536 -0.682,0.057 -2.032,-0.276 -2.094,-0.782 -0.156,-1.181 0.1,-2.093 0.594,-3.041 0.567,-1.077 2.354,-3.864 2.729,-4.344 0.943,-1.197 0.943,-1.932 1.156,-2.276 0.411,-0.64 0.76,-0.64 1.23,-0.468 0.905,0.339 0.708,1.052 0.708,1.052"
     id="path1025" />
  <path
     style="fill:none;stroke:#231f20;stroke-width:0.565977;stroke-linecap:butt;stroke-linejoin:miter;stroke-miterlimit:4;stroke-dasharray:none;stroke-opacity:1"
     d="m 84.206544,73.849 c 0.093,0.635 -0.927,2.296 -1.188,3.88 -0.172,1.079 -1.678,3.364 -1.771,4.443 -0.088,0.994 -0.224,1.437 -1.364,1.536 -0.682,0.057 -2.032,-0.276 -2.094,-0.782 -0.156,-1.181 0.1,-2.093 0.594,-3.041 0.567,-1.077 2.354,-3.864 2.729,-4.344 0.943,-1.197 0.943,-1.932 1.156,-2.276 0.411,-0.64 0.76,-0.64 1.23,-0.468 0.905,0.339 0.708,1.052 0.708,1.052 z"
     id="path1026" />
  <path
     style="fill:#231f20;fill-opacity:1;fill-rule:nonzero;stroke:none"
     d="m 80.575544,82.15 c 1.12,0.647 -0.197,2.199 -0.478,2.658 -0.292,0.462 -0.959,1.869 -1.328,3.03 -0.38,1.172 -1.344,2.464 -2.063,4.678 -0.38,1.161 -1.489,2.052 -3.147,1.432 -1.65,-0.62 -1.926,-1.776 -1.249,-3.115 0.667,-1.333 1.859,-2.307 2.636,-3.609 0.771,-1.303 1.432,-2.698 1.9,-3.818 0.532,-1.276 1.261,-1.713 1.745,-1.708 1.192,-0.01 1.984,0.452 1.984,0.452"
     id="path1027" />
  <path
     style="fill:none;stroke:#231f20;stroke-width:0.565977;stroke-linecap:butt;stroke-linejoin:miter;stroke-miterlimit:4;stroke-dasharray:none;stroke-opacity:1"
     d="m 80.575544,82.15 c 1.12,0.647 -0.197,2.199 -0.478,2.658 -0.292,0.462 -0.959,1.869 -1.328,3.03 -0.38,1.172 -1.344,2.464 -2.063,4.678 -0.38,1.161 -1.489,2.052 -3.147,1.432 -1.65,-0.62 -1.926,-1.776 -1.249,-3.115 0.667,-1.333 1.859,-2.307 2.636,-3.609 0.771,-1.303 1.432,-2.698 1.9,-3.818 0.532,-1.276 1.261,-1.713 1.745,-1.708 1.192,-0.01 1.984,0.452 1.984,0.452 z"
     id="path1028" />
  <path
     style="fill:#231f20;fill-opacity:1;fill-rule:nonzero;stroke:none"
     d="m 84.794544,67.12 c 0.265,0.682 0.354,3.932 0.338,4.677 -0.016,0.661 0.328,1.771 -0.729,2.239 -0.411,0.204 -1.172,0.188 -1.473,0.105 -0.256,-0.079 -0.344,-0.396 -0.303,-0.781 0.068,-0.667 0.349,-0.834 0.563,-2.09 0,0 0.089,-0.296 0.302,-0.796 0.594,-1.521 0.474,-0.797 0.848,-3.193 0.027,-0.167 0.215,-0.26 0.324,-0.24 0.176,0.043 0.13,0.079 0.13,0.079"
     id="path1029" />
  <path
     style="fill:none;stroke:#231f20;stroke-width:0.565977;stroke-linecap:round;stroke-linejoin:round;stroke-miterlimit:4;stroke-dasharray:none;stroke-opacity:1"
     d="m 84.794544,67.12 c 0.265,0.682 0.354,3.932 0.338,4.677 -0.016,0.661 0.328,1.771 -0.729,2.239 -0.411,0.204 -1.172,0.188 -1.473,0.105 -0.256,-0.079 -0.344,-0.396 -0.303,-0.781 0.068,-0.667 0.349,-0.834 0.563,-2.09 0,0 0.089,-0.296 0.302,-0.796 0.594,-1.521 0.474,-0.797 0.848,-3.193 0.027,-0.167 0.215,-0.26 0.324,-0.24 0.176,0.043 0.13,0.079 0.13,0.079 z"
     id="path1030" />
  <path
     style="fill:#231f20;fill-opacity:1;fill-rule:nonzero;stroke:none"
     d="m 38.367548,132.401 c -0.098,-1.35 0.802,-1.771 1.802,-1.495 0.297,0.083 0.636,-0.161 0.928,-0.057 0.661,0.244 1.338,1.849 0.14,2.754 -0.078,0.068 -0.558,0.735 -0.984,1.183 -0.85,0.864 -2.959,2.203 -5.583,1.579 -1.24,-0.292 -0.835,-0.975 -0.297,-1.011 1.702,-0.1 1.833,-0.443 2.276,-0.641 1.489,-0.635 1.718,-2.312 1.718,-2.312"
     id="path1031" />
  <path
     style="fill:none;stroke:#231f20;stroke-width:0.332927;stroke-linecap:butt;stroke-linejoin:miter;stroke-miterlimit:4;stroke-dasharray:none;stroke-opacity:1"
     d="m 38.367548,132.401 c -0.098,-1.35 0.802,-1.771 1.802,-1.495 0.297,0.083 0.636,-0.161 0.928,-0.057 0.661,0.244 1.338,1.849 0.14,2.754 -0.078,0.068 -0.558,0.735 -0.984,1.183 -0.85,0.864 -2.959,2.203 -5.583,1.579 -1.24,-0.292 -0.835,-0.975 -0.297,-1.011 1.702,-0.1 1.833,-0.443 2.276,-0.641 1.489,-0.635 1.718,-2.312 1.718,-2.312 z"
     id="path1032" />
  <path
     style="fill:#ffffff;fill-opacity:1;fill-rule:nonzero;stroke:none"
     d="m 21.195548,107.947 c 0.136,-0.202 1.23,0.156 1.432,-0.333 0.194,-0.479 -0.432,-0.964 -0.53,-2.948 v -0.016 c -0.022,-1.457 -0.631,-2.703 -1.746,-3.281 -1.849,-0.943 -4.39,0.324 -5.677,2.838 -1.285,2.516 -0.833,5.319 1.016,6.267 1.765,0.905 4.172,-0.224 5.505,-2.527"
     id="path1033" />
  <path
     style="fill:none;stroke:#231f20;stroke-width:0.565977;stroke-linecap:butt;stroke-linejoin:miter;stroke-miterlimit:4;stroke-dasharray:none;stroke-opacity:1"
     d="m 21.195548,107.947 c 0.136,-0.202 1.23,0.156 1.432,-0.333 0.194,-0.479 -0.432,-0.964 -0.53,-2.948 v -0.016 c -0.022,-1.457 -0.631,-2.703 -1.746,-3.281 -1.849,-0.943 -4.39,0.324 -5.677,2.838 -1.285,2.516 -0.833,5.319 1.016,6.267 1.765,0.905 4.172,-0.224 5.505,-2.527 z"
     id="path1034" />
  <path
     style="fill:#fab41d;fill-opacity:1;fill-rule:nonzero;stroke:none"
     d="m 8.5865481,121.843 c -1.505,2.75 -2.136,3.178 -2.855,3.744 -4.546,3.568 -2.708,5.73 0.032,6.636 3.219,1.068 4.3499999,1.522 6.8389999,-4.27 0.687,-1.604 4.151,-7.427 4.151,-7.427 1.516,-1.923 1.973,-4.6 1.312,-5.896 -0.698,-1.371 -0.52,-0.776 -1.4,-1.917 -0.834,-1.099 -2.866,-1.916 -3.959,-1.344 -1.052,0.548 -1.147,2.214 -1.593,4.594 -0.35,1.88 -2.5269999,5.88 -2.5269999,5.88"
     id="path1035" />
  <path
     style="fill:none;stroke:#231f20;stroke-width:0.565977;stroke-linecap:butt;stroke-linejoin:miter;stroke-miterlimit:4;stroke-dasharray:none;stroke-opacity:1"
     d="m 8.5865481,121.843 c -1.505,2.75 -2.136,3.178 -2.855,3.744 -4.546,3.568 -2.708,5.73 0.032,6.636 3.219,1.068 4.3499999,1.522 6.8389999,-4.27 0.687,-1.604 4.151,-7.427 4.151,-7.427 1.516,-1.923 1.973,-4.6 1.312,-5.896 -0.698,-1.371 -0.52,-0.776 -1.4,-1.917 -0.834,-1.099 -2.866,-1.916 -3.959,-1.344 -1.052,0.548 -1.147,2.214 -1.593,4.594 -0.35,1.88 -2.5269999,5.88 -2.5269999,5.88 z"
     id="path1036" />
  <path
     style="fill:#231f20;fill-opacity:1;fill-rule:nonzero;stroke:none"
     d="m 35.403548,110.983 c -0.462,0.454 -2.405,0.584 -3.848,1.298 -0.969,0.478 -3.714,0.588 -4.646,1.141 -0.854,0.509 -1.296,0.661 -2.042,-0.224 -0.442,-0.516 -0.953,-1.808 -0.584,-2.157 0.876,-0.807 1.762,-1.13 2.824,-1.282 1.203,-0.161 4.506,-0.328 5.119,-0.301 1.527,0.068 2.12,-0.365 2.527,-0.385 0.765,-0.032 0.964,0.244 1.093,0.734 0.251,0.927 -0.443,1.176 -0.443,1.176"
     id="path1037" />
  <path
     style="fill:none;stroke:#231f20;stroke-width:0.565977;stroke-linecap:butt;stroke-linejoin:miter;stroke-miterlimit:4;stroke-dasharray:none;stroke-opacity:1"
     d="m 35.403548,110.983 c -0.462,0.454 -2.405,0.584 -3.848,1.298 -0.969,0.478 -3.714,0.588 -4.646,1.141 -0.854,0.509 -1.296,0.661 -2.042,-0.224 -0.442,-0.516 -0.953,-1.808 -0.584,-2.157 0.876,-0.807 1.762,-1.13 2.824,-1.282 1.203,-0.161 4.506,-0.328 5.119,-0.301 1.527,0.068 2.12,-0.365 2.527,-0.385 0.765,-0.032 0.964,0.244 1.093,0.734 0.251,0.927 -0.443,1.176 -0.443,1.176 z"
     id="path1038" />
  <path
     style="fill:#231f20;fill-opacity:1;fill-rule:nonzero;stroke:none"
     d="m 26.534548,112.859 c 0.131,1.286 -1.896,1.119 -2.443,1.156 -0.541,0.036 -2.068,0.312 -3.234,0.683 -1.172,0.369 -2.787,0.333 -5,1.036 -1.167,0.369 -2.536,-0.011 -3,-1.729 -0.454,-1.694 0.328,-2.588 1.802,-2.823 1.484,-0.229 2.968,0.177 4.474,0.047 1.505,-0.131 3.032,-0.402 4.213,-0.678 1.349,-0.306 2.125,0.042 2.412,0.427 0.697,0.975 0.776,1.881 0.776,1.881"
     id="path1039" />
  <path
     style="fill:none;stroke:#231f20;stroke-width:0.565977;stroke-linecap:butt;stroke-linejoin:miter;stroke-miterlimit:4;stroke-dasharray:none;stroke-opacity:1"
     d="m 26.534548,112.859 c 0.131,1.286 -1.896,1.119 -2.443,1.156 -0.541,0.036 -2.068,0.312 -3.234,0.683 -1.172,0.369 -2.787,0.333 -5,1.036 -1.167,0.369 -2.536,-0.011 -3,-1.729 -0.454,-1.694 0.328,-2.588 1.802,-2.823 1.484,-0.229 2.968,0.177 4.474,0.047 1.505,-0.131 3.032,-0.402 4.213,-0.678 1.349,-0.306 2.125,0.042 2.412,0.427 0.697,0.975 0.776,1.881 0.776,1.881 z"
     id="path1040" />
  <path
     style="fill:#231f20;fill-opacity:1;fill-rule:nonzero;stroke:none"
     d="m 42.217548,109.641 c -0.615,0.374 -3.803,1.03 -4.538,1.145 -0.656,0.109 -1.681,0.64 -2.338,-0.308 -0.266,-0.385 -0.386,-1.135 -0.348,-1.452 0.025,-0.251 0.317,-0.412 0.713,-0.433 0.667,-0.042 0.869,0.198 2.151,0.188 0,0 0.302,0.041 0.838,0.15 1.604,0.328 0.87,0.328 3.287,0.282 0.172,-0.006 0.301,0.166 0.297,0.286 -0.016,0.172 -0.062,0.142 -0.062,0.142"
     id="path1041" />
  <path
     style="fill:none;stroke:#231f20;stroke-width:0.565977;stroke-linecap:round;stroke-linejoin:round;stroke-miterlimit:4;stroke-dasharray:none;stroke-opacity:1"
     d="m 42.217548,109.641 c -0.615,0.374 -3.803,1.03 -4.538,1.145 -0.656,0.109 -1.681,0.64 -2.338,-0.308 -0.266,-0.385 -0.386,-1.135 -0.348,-1.452 0.025,-0.251 0.317,-0.412 0.713,-0.433 0.667,-0.042 0.869,0.198 2.151,0.188 0,0 0.302,0.041 0.838,0.15 1.604,0.328 0.87,0.328 3.287,0.282 0.172,-0.006 0.301,0.166 0.297,0.286 -0.016,0.172 -0.062,0.142 -0.062,0.142 z"
     id="path1042" />
  <path
     style="fill:#231f20;fill-opacity:1;fill-rule:nonzero;stroke:none"
     d="m 8.6435481,147.635 c -2.016,-1.032 -2.546,-0.958 -3.041,-0.141 -0.328,0.552 -0.819,0.948 -1.037,1.271 -0.719,1.078 -1.484,3.188 -2.088,9.745 -0.136,1.489 -0.339,3.573 -0.49,4.416 -0.24,1.339 2.14,0.833 2.239,0.308 0.324,-1.683 0.677,-2.817 0.876,-3.407 0.135,-0.405 0.281,-1.156 1.015,-2.645 1.109,-2.271 2.109,-3.469 2.808,-5.469 0.322,-0.922 1.1559999,-1.416 1.016,-2.484 -0.142,-1.079 -1.298,-1.594 -1.298,-1.594"
     id="path1043" />
  <path
     style="fill:none;stroke:#231f20;stroke-width:0.565977;stroke-linecap:butt;stroke-linejoin:miter;stroke-miterlimit:4;stroke-dasharray:none;stroke-opacity:1"
     d="m 8.6435481,147.635 c -2.016,-1.032 -2.546,-0.958 -3.041,-0.141 -0.328,0.552 -0.819,0.948 -1.037,1.271 -0.719,1.078 -1.484,3.188 -2.088,9.745 -0.136,1.489 -0.339,3.573 -0.49,4.416 -0.24,1.339 2.14,0.833 2.239,0.308 0.324,-1.683 0.677,-2.817 0.876,-3.407 0.135,-0.405 0.281,-1.156 1.015,-2.645 1.109,-2.271 2.109,-3.469 2.808,-5.469 0.322,-0.922 1.1559999,-1.416 1.016,-2.484 -0.142,-1.079 -1.298,-1.594 -1.298,-1.594 z"
     id="path1044" />
  <path
     style="fill:#231f20;fill-opacity:1;fill-rule:nonzero;stroke:#231f20;stroke-width:0.565977;stroke-linecap:round;stroke-linejoin:miter;stroke-miterlimit:4;stroke-dasharray:none;stroke-opacity:1"
     d="m 9.4355481,149.999 c 0.9579999,-0.942 0.454,-2.906 0.515,-3.224 0.9749999,-4.916 0.9169999,-5.297 1.3909999,-9.082 0.688,-5.486 0.318,-9.35 -2.7599999,-10.683 -2.083,-0.907 -3.678,-0.521 -4.61,0.412 -1.03,1.025 -1.989,4.061 -0.13,6.271 l 0.25,1.692 c 0.016,1.161 0.036,1.74 0,2.313 -0.062,1 -0.062,2.077 -0.073,4.036 -0.02,3.468 1.095,7.145 1.095,7.145 0.004,0.319 0.129,0.563 0.306,0.766"
     id="path1045" />
  <path
     style="fill:#fab41d;fill-opacity:1;fill-rule:nonzero;stroke:none"
     d="m 11.195548,130.177 c -0.442,-1.484 -1.2599999,-2.579 -2.6139999,-3.167 -2.083,-0.907 -3.678,-0.521 -4.61,0.412 -1.03,1.025 -1.989,4.061 -0.13,6.271 l 7.7759999,0.76 c 0.021,-0.656 0.01,-1.266 -0.026,-1.855 0.022,-0.077 0.047,-0.151 0.074,-0.219 0.328,-0.734 0.041,-1.296 -0.47,-2.202"
     id="path1046" />
  <path
     style="fill:none;stroke:#231f20;stroke-width:0.565977;stroke-linecap:round;stroke-linejoin:round;stroke-miterlimit:4;stroke-dasharray:none;stroke-opacity:1"
     d="m 11.195548,130.177 c -0.442,-1.484 -1.2599999,-2.579 -2.6139999,-3.167 -2.083,-0.907 -3.678,-0.521 -4.61,0.412 -1.03,1.025 -1.989,4.061 -0.13,6.271 l 7.7759999,0.76 c 0.021,-0.656 0.01,-1.266 -0.026,-1.855 0.022,-0.077 0.047,-0.151 0.074,-0.219 0.328,-0.734 0.041,-1.296 -0.47,-2.202 z"
     id="path1047" />
  <path
     style="fill:#231f20;fill-opacity:1;fill-rule:nonzero;stroke:none"
     d="m 0.66554812,165.63 c -0.896,-0.604 -0.043,-1.527 0.77599998,-2.437 0.208,-0.23 0.38,-0.464 0.604,-0.672 0.89,-0.834 1.926,-0.986 2.442,1.968 0.02,0.109 0.995,2.068 1.359,2.573 1.756,2.407 2.365,1.828 1.756,2.407 -0.407,0.385 -0.844,0.134 -1.38,-0.188 -0.735,-0.443 -3.183,-2.219 -3.573,-2.464 -0.38,-0.244 -1.98399998,-1.187 -1.98399998,-1.187"
     id="path1048" />
  <path
     style="fill:none;stroke:#231f20;stroke-width:0.565977;stroke-linecap:butt;stroke-linejoin:miter;stroke-miterlimit:4;stroke-dasharray:none;stroke-opacity:1"
     d="m 0.66554812,165.63 c -0.896,-0.604 -0.043,-1.527 0.77599998,-2.437 0.208,-0.23 0.38,-0.464 0.604,-0.672 0.89,-0.834 1.926,-0.986 2.442,1.968 0.02,0.109 0.995,2.068 1.359,2.573 1.756,2.407 2.365,1.828 1.756,2.407 -0.407,0.385 -0.844,0.134 -1.38,-0.188 -0.735,-0.443 -3.183,-2.219 -3.573,-2.464 -0.38,-0.244 -1.98399998,-1.187 -1.98399998,-1.187 z"
     id="path1050" />
  <path
     style="fill:#231f20;fill-opacity:1;fill-rule:nonzero;stroke:none"
     d="m 106.06454,56.786 c -0.582,0.26 -1.41,2.026 -2.598,3.104 -0.802,0.735 -1.907,3.251 -2.766,3.918 -0.780996,0.609 -1.083996,0.962 -0.532,1.973 0.324,0.599 1.33,1.552 1.792,1.328 1.079,-0.516 1.704,-1.219 2.224,-2.151 0.599,-1.062 1.959,-4.084 2.152,-4.656 0.495,-1.448 1.114,-1.844 1.276,-2.218 0.312,-0.688 0.13,-0.98 -0.276,-1.287 -0.777,-0.568 -1.272,-0.011 -1.272,-0.011"
     id="path1052" />
  <path
     style="fill:none;stroke:#231f20;stroke-width:0.565977;stroke-linecap:butt;stroke-linejoin:miter;stroke-miterlimit:4;stroke-dasharray:none;stroke-opacity:1"
     d="m 106.06454,56.786 c -0.582,0.26 -1.41,2.026 -2.598,3.104 -0.802,0.735 -1.907,3.251 -2.766,3.918 -0.780996,0.609 -1.083996,0.962 -0.532,1.973 0.324,0.599 1.33,1.552 1.792,1.328 1.079,-0.516 1.704,-1.219 2.224,-2.151 0.599,-1.062 1.959,-4.084 2.152,-4.656 0.495,-1.448 1.114,-1.844 1.276,-2.218 0.312,-0.688 0.13,-0.98 -0.276,-1.287 -0.777,-0.568 -1.272,-0.011 -1.272,-0.011 z"
     id="path1053" />
  <path
     style="fill:#231f20;fill-opacity:1;fill-rule:nonzero;stroke:none"
     d="m 100.64854,64.677 c -1.285996,-0.156 -1.149996,1.88 -1.197996,2.416 -0.047,0.543 -0.359,2.068 -0.744,3.219 -0.396,1.166 -0.391,2.781 -1.142,4.985 -0.39,1.161 -0.036,2.536 1.667,3.031 1.692996,0.484 2.599996,-0.276 2.859996,-1.75 0.265,-1.474 -0.115,-2.969 0.047,-4.474 0.161,-1.5 0.464,-3.015 0.76,-4.192 0.333,-1.339 -0.006,-2.131 -0.38,-2.418 -0.959,-0.718 -1.87,-0.817 -1.87,-0.817"
     id="path1054" />
  <path
     style="fill:none;stroke:#231f20;stroke-width:0.565977;stroke-linecap:butt;stroke-linejoin:miter;stroke-miterlimit:4;stroke-dasharray:none;stroke-opacity:1"
     d="m 100.64854,64.677 c -1.285996,-0.156 -1.149996,1.88 -1.197996,2.416 -0.047,0.543 -0.359,2.068 -0.744,3.219 -0.396,1.166 -0.391,2.781 -1.142,4.985 -0.39,1.161 -0.036,2.536 1.667,3.031 1.692996,0.484 2.599996,-0.276 2.859996,-1.75 0.265,-1.474 -0.115,-2.969 0.047,-4.474 0.161,-1.5 0.464,-3.015 0.76,-4.192 0.333,-1.339 -0.006,-2.131 -0.38,-2.418 -0.959,-0.718 -1.87,-0.817 -1.87,-0.817 z"
     id="path1055" />
  <path
     style="fill:#231f20;fill-opacity:1;fill-rule:nonzero;stroke:none"
     d="m 113.20054,61.5 c -0.032,0.641 1.172,2.172 1.604,3.724 0.292,1.046 2.047,3.156 2.26,4.218 0.194,0.975 0.382,1.402 1.532,1.366 0.683,-0.022 1.979,-0.5 1.995,-1.006 0.021,-1.193 -0.339,-2.073 -0.927,-2.958 -0.688,-1.006 -2.776,-3.574 -3.209,-4.011 -1.067,-1.088 -1.145,-1.817 -1.405,-2.131 -0.48,-0.598 -0.824,-0.557 -1.271,-0.328 -0.86,0.434 -0.579,1.126 -0.579,1.126"
     id="path1056" />
  <path
     style="fill:none;stroke:#231f20;stroke-width:0.565977;stroke-linecap:butt;stroke-linejoin:miter;stroke-miterlimit:4;stroke-dasharray:none;stroke-opacity:1"
     d="m 113.20054,61.5 c -0.032,0.641 1.172,2.172 1.604,3.724 0.292,1.046 2.047,3.156 2.26,4.218 0.194,0.975 0.382,1.402 1.532,1.366 0.683,-0.022 1.979,-0.5 1.995,-1.006 0.021,-1.193 -0.339,-2.073 -0.927,-2.958 -0.688,-1.006 -2.776,-3.574 -3.209,-4.011 -1.067,-1.088 -1.145,-1.817 -1.405,-2.131 -0.48,-0.598 -0.824,-0.557 -1.271,-0.328 -0.86,0.434 -0.579,1.126 -0.579,1.126 z"
     id="path1057" />
  <path
     style="fill:#231f20;fill-opacity:1;fill-rule:nonzero;stroke:none"
     d="m 118.52854,68.453 c -1.197,-0.505 -1.636,1.484 -1.828,1.979 -0.198,0.516 -0.926,1.89 -1.625,2.89 -0.703,1.011 -1.145,2.558 -2.479,4.47 -0.698,1.005 -0.75,2.421 0.755,3.369 1.484,0.943 2.568,0.469 3.235,-0.875 0.661,-1.344 0.718,-2.88 1.292,-4.286 0.577,-1.391 1.29,-2.766 1.896,-3.812 0.697,-1.194 0.598,-2.047 0.312,-2.428 -0.708,-0.963 -1.558,-1.307 -1.558,-1.307"
     id="path1058" />
  <path
     style="fill:none;stroke:#231f20;stroke-width:0.565977;stroke-linecap:butt;stroke-linejoin:miter;stroke-miterlimit:4;stroke-dasharray:none;stroke-opacity:1"
     d="m 118.52854,68.453 c -1.197,-0.505 -1.636,1.484 -1.828,1.979 -0.198,0.516 -0.926,1.89 -1.625,2.89 -0.703,1.011 -1.145,2.558 -2.479,4.47 -0.698,1.005 -0.75,2.421 0.755,3.369 1.484,0.943 2.568,0.469 3.235,-0.875 0.661,-1.344 0.718,-2.88 1.292,-4.286 0.577,-1.391 1.29,-2.766 1.896,-3.812 0.697,-1.194 0.598,-2.047 0.312,-2.428 -0.708,-0.963 -1.558,-1.307 -1.558,-1.307 z"
     id="path1059" />
  <path
     style="fill:#231f20;fill-opacity:1;fill-rule:nonzero;stroke:none"
     d="m 110.82654,55.776 c 0.624,0.38 2.64,2.926 3.072,3.532 0.396,0.541 1.333,1.213 0.781,2.228 -0.219,0.417 -0.833,0.854 -1.135,0.964 -0.245,0.093 -0.51,-0.099 -0.713,-0.443 -0.339,-0.573 -0.215,-0.864 -0.803,-2 0,0 -0.098,-0.292 -0.24,-0.823 -0.432,-1.573 -0.098,-0.926 -1.229,-3.057 -0.083,-0.151 0.011,-0.344 0.115,-0.391 0.166,-0.068 0.152,-0.01 0.152,-0.01"
     id="path1060" />
  <path
     style="fill:none;stroke:#231f20;stroke-width:0.565977;stroke-linecap:round;stroke-linejoin:round;stroke-miterlimit:4;stroke-dasharray:none;stroke-opacity:1"
     d="m 110.82654,55.776 c 0.624,0.38 2.64,2.926 3.072,3.532 0.396,0.541 1.333,1.213 0.781,2.228 -0.219,0.417 -0.833,0.854 -1.135,0.964 -0.245,0.093 -0.51,-0.099 -0.713,-0.443 -0.339,-0.573 -0.215,-0.864 -0.803,-2 0,0 -0.098,-0.292 -0.24,-0.823 -0.432,-1.573 -0.098,-0.926 -1.229,-3.057 -0.083,-0.151 0.011,-0.344 0.115,-0.391 0.166,-0.068 0.152,-0.01 0.152,-0.01 z"
     id="path1061" />
  <path
     style="fill:#231f20;fill-opacity:1;fill-rule:nonzero;stroke:none"
     d="m 109.79454,51.322 c -0.588,0.434 -2.386,3.131 -2.776,3.771 -0.344,0.563 -1.224,1.313 -0.594,2.281 0.255,0.391 0.902,0.787 1.208,0.876 0.256,0.067 0.506,-0.146 0.678,-0.51 0.292,-0.59 0.14,-0.875 0.636,-2.058 0,0 0.072,-0.292 0.17,-0.833 0.308,-1.604 0.027,-0.928 0.986,-3.151 0.066,-0.157 -0.047,-0.338 -0.152,-0.376 -0.171,-0.057 -0.156,0 -0.156,0"
     id="path1062" />
  <path
     style="fill:none;stroke:#231f20;stroke-width:0.565977;stroke-linecap:round;stroke-linejoin:round;stroke-miterlimit:4;stroke-dasharray:none;stroke-opacity:1"
     d="m 109.79454,51.322 c -0.588,0.434 -2.386,3.131 -2.776,3.771 -0.344,0.563 -1.224,1.313 -0.594,2.281 0.255,0.391 0.902,0.787 1.208,0.876 0.256,0.067 0.506,-0.146 0.678,-0.51 0.292,-0.59 0.14,-0.875 0.636,-2.058 0,0 0.072,-0.292 0.17,-0.833 0.308,-1.604 0.027,-0.928 0.986,-3.151 0.066,-0.157 -0.047,-0.338 -0.152,-0.376 -0.171,-0.057 -0.156,0 -0.156,0 z"
     id="path1063" />
  <path
     style="fill:none;stroke:#231f20;stroke-width:0.399514;stroke-linecap:butt;stroke-linejoin:miter;stroke-miterlimit:4;stroke-dasharray:none;stroke-opacity:1"
     d="m 129.26354,56.385 c -12.927,-23.115 -24.839,-17.235 -24.287,-8.839"
     id="path1064" />
  <path
     style="fill:#231f20;fill-opacity:1;fill-rule:nonzero;stroke:none"
     d="m 105.05554,48.75 c -0.251,-0.552 -0.652,-1.229 -1.063,-1.641 l 0.974,0.281 0.922,-0.406 c -0.349,0.458 -0.662,1.188 -0.833,1.766"
     id="path1065" />
  <path
     style="fill:#231f20;fill-opacity:1;fill-rule:nonzero;stroke:none"
     d="m 103.61254,86.093 c -0.261,-2.807 1.203,-5.244 3.271,-5.437 2.067,-0.187 3.957,1.932 4.213,4.75 0.266,2.812 -1.204,5.244 -3.27,5.438 -2.068,0.192 -3.954,-1.932 -4.214,-4.751"
     id="path1066" />
  <path
     style="fill:none;stroke:#231f20;stroke-width:0.565977;stroke-linecap:butt;stroke-linejoin:miter;stroke-miterlimit:4;stroke-dasharray:none;stroke-opacity:1"
     d="m 103.61254,86.093 c -0.261,-2.807 1.203,-5.244 3.271,-5.437 2.067,-0.187 3.957,1.932 4.213,4.75 0.266,2.812 -1.204,5.244 -3.27,5.438 -2.068,0.192 -3.954,-1.932 -4.214,-4.751 z"
     id="path1067" />
  <path
     style="fill:#231f20;fill-opacity:1;fill-rule:nonzero;stroke:none"
     d="m 113.55954,64.994 c 3.475,0.97 3.605,-0.713 5.631,-4.244 2.218,-3.87 4.12,-8.146 4.526,-11.417 0.452,-3.661 0.963,-3.776 -0.6,-4.885 -1.566,-1.104 -2.036,-0.49 -3.265,-0.094 -1.416,0.454 -2.687,7.698 -5.197,11.735 -1.172,1.889 -5.224,5.661 -4.199,6.692 1.021,1.031 3.104,2.213 3.104,2.213"
     id="path1068" />
  <path
     style="fill:none;stroke:#231f20;stroke-width:0.565977;stroke-linecap:butt;stroke-linejoin:miter;stroke-miterlimit:4;stroke-dasharray:none;stroke-opacity:1"
     d="m 113.55954,64.994 c 3.475,0.97 3.605,-0.713 5.631,-4.244 2.218,-3.87 4.12,-8.146 4.526,-11.417 0.452,-3.661 0.963,-3.776 -0.6,-4.885 -1.566,-1.104 -2.036,-0.49 -3.265,-0.094 -1.416,0.454 -2.687,7.698 -5.197,11.735 -1.172,1.889 -5.224,5.661 -4.199,6.692 1.021,1.031 3.104,2.213 3.104,2.213 z"
     id="path1069" />
  <path
     style="fill:#231f20;fill-opacity:1;fill-rule:nonzero;stroke:none"
     d="m 121.34054,45.844 c 1.986,1.088 2.548,1.437 3.391,-0.918 0.215,-0.598 0.693,-2.312 0.923,-2.629 0.749,-1.063 1.53,-2.349 2.338,-8.885 0.12,-1.011 0.692,-2.907 0.979,-4.276 0.287,-1.334 -2.109,-0.896 -2.229,-0.376 -0.375,1.672 -0.979,2.672 -1.198,3.245 -0.146,0.407 -0.302,1.203 -1.24,2.573 -2.421,3.526 -1.874,5.234 -2.312,6.02 -1.281,2.246 -2.833,3.902 -2.406,4.418 0.688,0.844 1.754,0.828 1.754,0.828"
     id="path1070" />
  <path
     style="fill:none;stroke:#231f20;stroke-width:0.565977;stroke-linecap:butt;stroke-linejoin:miter;stroke-miterlimit:4;stroke-dasharray:none;stroke-opacity:1"
     d="m 121.34054,45.844 c 1.986,1.088 2.548,1.437 3.391,-0.918 0.215,-0.598 0.693,-2.312 0.923,-2.629 0.749,-1.063 1.53,-2.349 2.338,-8.885 0.12,-1.011 0.692,-2.907 0.979,-4.276 0.287,-1.334 -2.109,-0.896 -2.229,-0.376 -0.375,1.672 -0.979,2.672 -1.198,3.245 -0.146,0.407 -0.302,1.203 -1.24,2.573 -2.421,3.526 -1.874,5.234 -2.312,6.02 -1.281,2.246 -2.833,3.902 -2.406,4.418 0.688,0.844 1.754,0.828 1.754,0.828 z"
     id="path1071" />
  <path
     style="fill:#231f20;fill-opacity:1;fill-rule:nonzero;stroke:none"
     d="m 107.96654,62.25 c -3.016,-1.974 -1.839,-3.177 -0.511,-7.037 1.453,-4.208 3.423,-8.457 5.62,-10.916 2.453,-2.745 2.204,-3.204 4.068,-2.761 1.869,0.442 1.713,1.214 2.224,2.39 0.588,1.371 -4.031,7.1 -5.421,11.642 -0.647,2.13 -0.824,7.656 -2.272,7.568 -1.448,-0.095 -3.708,-0.886 -3.708,-0.886"
     id="path1072" />
  <path
     style="fill:none;stroke:#231f20;stroke-width:0.565977;stroke-linecap:butt;stroke-linejoin:miter;stroke-miterlimit:4;stroke-dasharray:none;stroke-opacity:1"
     d="m 107.96654,62.25 c -3.016,-1.974 -1.839,-3.177 -0.511,-7.037 1.453,-4.208 3.423,-8.457 5.62,-10.916 2.453,-2.745 2.204,-3.204 4.068,-2.761 1.869,0.442 1.713,1.214 2.224,2.39 0.588,1.371 -4.031,7.1 -5.421,11.642 -0.647,2.13 -0.824,7.656 -2.272,7.568 -1.448,-0.095 -3.708,-0.886 -3.708,-0.886 z"
     id="path1073" />
  <path
     style="fill:#231f20;fill-opacity:1;fill-rule:nonzero;stroke:none"
     d="m 117.23654,43.792 c -2.12,-0.787 -2.749,-0.984 -1.525,-3.172 0.317,-0.552 1.301,-2.032 1.396,-2.412 0.301,-1.26 0.771,-2.692 5.192,-7.567 0.683,-0.767 1.745,-2.433 2.593,-3.548 0.819,-1.077 2.058,1.011 1.74,1.439 -1.02,1.38 -1.38,2.489 -1.677,3.03 -0.208,0.38 -0.708,1.011 -1.129,2.62 -1.079,4.14 -2.74,4.844 -3.043,5.692 -0.864,2.428 -1.104,4.694 -1.771,4.704 -1.088,0.031 -1.776,-0.786 -1.776,-0.786"
     id="path1074" />
  <path
     style="fill:none;stroke:#231f20;stroke-width:0.565977;stroke-linecap:butt;stroke-linejoin:miter;stroke-miterlimit:4;stroke-dasharray:none;stroke-opacity:1"
     d="m 117.23654,43.792 c -2.12,-0.787 -2.749,-0.984 -1.525,-3.172 0.317,-0.552 1.301,-2.032 1.396,-2.412 0.301,-1.26 0.771,-2.692 5.192,-7.567 0.683,-0.767 1.745,-2.433 2.593,-3.548 0.819,-1.077 2.058,1.011 1.74,1.439 -1.02,1.38 -1.38,2.489 -1.677,3.03 -0.208,0.38 -0.708,1.011 -1.129,2.62 -1.079,4.14 -2.74,4.844 -3.043,5.692 -0.864,2.428 -1.104,4.694 -1.771,4.704 -1.088,0.031 -1.776,-0.786 -1.776,-0.786 z"
     id="path1075" />
  <path
     style="fill:#231f20;fill-opacity:1;fill-rule:nonzero;stroke:none"
     d="m 125.71654,23.677 c -0.521,0.416 0,2.145 -0.818,3.937 -0.167,0.364 -0.13,0.74 -0.156,1.115 -0.088,1.505 0.656,2.921 3.084,-0.041 0.328,-0.407 0.869,-2.443 1.41,-3.006 1.298,-1.344 1.09,-4.656 0.579,-4.75 -1.104,-0.203 -4.099,2.745 -4.099,2.745"
     id="path1076" />
  <path
     style="fill:none;stroke:#231f20;stroke-width:0.644548;stroke-linecap:round;stroke-linejoin:round;stroke-miterlimit:4;stroke-dasharray:none;stroke-opacity:1"
     d="m 125.71654,23.677 c -0.521,0.416 0,2.145 -0.818,3.937 -0.167,0.364 -0.13,0.74 -0.156,1.115 -0.088,1.505 0.656,2.921 3.084,-0.041 0.328,-0.407 0.869,-2.443 1.41,-3.006 1.298,-1.344 1.09,-4.656 0.579,-4.75 -1.104,-0.203 -4.099,2.745 -4.099,2.745 z"
     id="path1077" />
  <path
     style="fill:#231f20;fill-opacity:1;fill-rule:nonzero;stroke:none"
     d="m 131.33654,26.166 c 0.047,0.662 -1.562,1.464 -2.308,3.292 -0.156,0.364 -0.453,0.594 -0.708,0.87 -1.041,1.098 -2.578,1.526 -2.078,-2.271 0.073,-0.525 1.177,-2.307 1.224,-3.093 0.089,-1.86 2.65,-3.986 3.068,-3.667 0.896,0.661 0.802,4.869 0.802,4.869"
     id="path1078" />
  <path
     style="fill:none;stroke:#231f20;stroke-width:0.644548;stroke-linecap:round;stroke-linejoin:round;stroke-miterlimit:4;stroke-dasharray:none;stroke-opacity:1"
     d="m 131.33654,26.166 c 0.047,0.662 -1.562,1.464 -2.308,3.292 -0.156,0.364 -0.453,0.594 -0.708,0.87 -1.041,1.098 -2.578,1.526 -2.078,-2.271 0.073,-0.525 1.177,-2.307 1.224,-3.093 0.089,-1.86 2.65,-3.986 3.068,-3.667 0.896,0.661 0.802,4.869 0.802,4.869 z"
     id="path1079" />
  <path
     style="fill:#231f20;fill-opacity:1;fill-rule:nonzero;stroke:none"
     d="m 116.55554,61.276 c -0.625,0.36 -3.833,0.926 -4.563,1.026 -0.666,0.099 -1.709,0.599 -2.338,-0.37 -0.246,-0.391 -0.355,-1.14 -0.308,-1.458 0.032,-0.256 0.328,-0.401 0.724,-0.417 0.666,-0.025 0.876,0.224 2.146,0.245 0,0 0.302,0.052 0.834,0.172 1.593,0.37 0.858,0.354 3.281,0.37 0.171,0 0.296,0.177 0.285,0.292 -0.014,0.176 -0.061,0.14 -0.061,0.14"
     id="path1080" />
  <path
     style="fill:none;stroke:#231f20;stroke-width:0.565977;stroke-linecap:round;stroke-linejoin:round;stroke-miterlimit:4;stroke-dasharray:none;stroke-opacity:1"
     d="m 116.55554,61.276 c -0.625,0.36 -3.833,0.926 -4.563,1.026 -0.666,0.099 -1.709,0.599 -2.338,-0.37 -0.246,-0.391 -0.355,-1.14 -0.308,-1.458 0.032,-0.256 0.328,-0.401 0.724,-0.417 0.666,-0.025 0.876,0.224 2.146,0.245 0,0 0.302,0.052 0.834,0.172 1.593,0.37 0.858,0.354 3.281,0.37 0.171,0 0.296,0.177 0.285,0.292 -0.014,0.176 -0.061,0.14 -0.061,0.14 z"
     id="path1081" />
  <path
     style="fill:#fab41d;fill-opacity:1;fill-rule:nonzero;stroke:none"
     d="m 114.48754,76.021 c -0.437,-1.261 -0.871,-6.344 -0.355,-9.552 0.12,-0.74 1.776,-2.491 0.73,-1.803 l -0.35,-0.078 c -2.41,-1.968 -2.072,-7.802 -2.072,-7.802 0,0 -0.521,-0.536 -1.005,-0.62 -0.489,-0.088 -1.161,0.224 -1.161,0.224 0,0 -1.735,5.579 -4.688,6.579 l -0.35,-0.052 c -0.734,-1.011 0.194,1.213 0.052,1.943 -0.645,3.186 -2.838,7.796 -3.697,8.817 -1.172,1.412 -3.687996,1.192 -2.983996,3.235 0,0 0.167,2.192 2.972996,2.333 1.016,0.052 3.063,1.145 3.063,1.145 h 0.005 c 0.187,0.142 1.131,0.798 2.156,0.964 1.146,0.187 2.47,-0.12 2.47,-0.12 0,0 2.301,-0.308 3.276,-0.005 2.672,0.86 3.604,-0.849 3.604,-0.849 1.385,-1.667 -1.058,-2.624 -1.667,-4.359"
     id="path1082" />
  <path
     style="fill:none;stroke:#231f20;stroke-width:0.565977;stroke-linecap:butt;stroke-linejoin:miter;stroke-miterlimit:4;stroke-dasharray:none;stroke-opacity:1"
     d="m 114.48754,76.021 c -0.437,-1.261 -0.871,-6.344 -0.355,-9.552 0.12,-0.74 1.776,-2.491 0.73,-1.803 l -0.35,-0.078 c -2.41,-1.968 -2.072,-7.802 -2.072,-7.802 0,0 -0.521,-0.536 -1.005,-0.62 -0.489,-0.088 -1.161,0.224 -1.161,0.224 0,0 -1.735,5.579 -4.688,6.579 l -0.35,-0.052 c -0.734,-1.011 0.194,1.213 0.052,1.943 -0.645,3.186 -2.838,7.796 -3.697,8.817 -1.172,1.412 -3.687996,1.192 -2.983996,3.235 0,0 0.167,2.192 2.972996,2.333 1.016,0.052 3.063,1.145 3.063,1.145 h 0.005 c 0.187,0.142 1.131,0.798 2.156,0.964 1.146,0.187 2.47,-0.12 2.47,-0.12 0,0 2.301,-0.308 3.276,-0.005 2.672,0.86 3.604,-0.849 3.604,-0.849 1.385,-1.667 -1.058,-2.624 -1.667,-4.359 z"
     id="path1083" />
  <path
     style="fill:#fab41d;fill-opacity:1;fill-rule:nonzero;stroke:none"
     d="m 104.97654,64.032 c -0.084,-0.334 -0.254,-1.694 -0.26,-2.158 -0.026,-2.968 1.484,-6.624 1.682,-7.885 0.198,-1.26 6.324,1.188 6.324,1.188 l 0.285,1.432 c 0.579,-0.24 0.172,0.068 0.172,0.068 l 1.36,-0.885 c 0,0 6.115,2.098 5.609,2.978 -0.688,1.214 -2.442,5.5 -4.13,7.271 -0.927,0.969 -1.896,1.313 -1.896,1.313 0,0 -3.006,-2.328 -4.339,-2.838 -1.328,-0.516 -4.807,-0.484 -4.807,-0.484"
     id="path1084" />
  <path
     style="fill:none;stroke:#231f20;stroke-width:0.565977;stroke-linecap:butt;stroke-linejoin:miter;stroke-miterlimit:4;stroke-dasharray:none;stroke-opacity:1"
     d="m 104.97654,64.032 c -0.084,-0.334 -0.254,-1.694 -0.26,-2.158 -0.026,-2.968 1.484,-6.624 1.682,-7.885 0.198,-1.26 6.324,1.188 6.324,1.188 l 0.285,1.432 c 0.579,-0.24 0.172,0.068 0.172,0.068 l 1.36,-0.885 c 0,0 6.115,2.098 5.609,2.978 -0.688,1.214 -2.442,5.5 -4.13,7.271 -0.927,0.969 -1.896,1.313 -1.896,1.313 0,0 -3.006,-2.328 -4.339,-2.838 -1.328,-0.516 -4.807,-0.484 -4.807,-0.484 z"
     id="path1085" />
  <path
     style="fill:none;stroke:#231f20;stroke-width:0.565977;stroke-linecap:round;stroke-linejoin:round;stroke-miterlimit:4;stroke-dasharray:none;stroke-opacity:1"
     d="m 109.95054,55.896 c 1.672,-0.678 3.136,0.916 3.136,0.916 1.833,0.016 2.901,1.22 2.901,1.22"
     id="path1086" />
  <path
     style="fill:#fab41d;fill-opacity:1;fill-rule:nonzero;stroke:none"
     d="m 219.82854,97.598 c 1.49,2.751 2.12,3.183 2.84,3.751 4.53,3.593 2.68,5.744 -0.06,6.64 -3.23,1.052 -4.36,1.494 -6.82,-4.296 -0.69,-1.61 -4.118,-7.453 -4.118,-7.453 -1.511,-1.923 -1.964,-4.604 -1.292,-5.896 0.708,-1.37 0.525,-0.782 1.41,-1.912 0.844,-1.099 2.87,-1.9 3.96,-1.328 1.05,0.552 1.14,2.218 1.57,4.598 0.35,1.886 2.51,5.896 2.51,5.896"
     id="path1087" />
  <path
     style="fill:none;stroke:#231f20;stroke-width:0.565977;stroke-linecap:butt;stroke-linejoin:miter;stroke-miterlimit:4;stroke-dasharray:none;stroke-opacity:1"
     d="m 219.82854,97.598 c 1.49,2.751 2.12,3.183 2.84,3.751 4.53,3.593 2.68,5.744 -0.06,6.64 -3.23,1.052 -4.36,1.494 -6.82,-4.296 -0.69,-1.61 -4.118,-7.453 -4.118,-7.453 -1.511,-1.923 -1.964,-4.604 -1.292,-5.896 0.708,-1.37 0.525,-0.782 1.41,-1.912 0.844,-1.099 2.87,-1.9 3.96,-1.328 1.05,0.552 1.14,2.218 1.57,4.598 0.35,1.886 2.51,5.896 2.51,5.896 z"
     id="path1088" />
  <path
     style="fill:#ffffff;fill-opacity:1;fill-rule:nonzero;stroke:none"
     d="m 207.39254,83.374 c -0.134,-0.202 -1.228,0.188 -1.442,-0.29 -0.214,-0.48 0.417,-0.975 0.453,-2.964 l -0.005,-0.022 c -0.01,-1.448 0.562,-2.724 1.661,-3.322 1.829,-0.995 4.401,0.213 5.751,2.688 1.358,2.484 0.968,5.296 -0.855,6.296 -1.733,0.953 -4.176,-0.115 -5.563,-2.386"
     id="path1089" />
  <path
     style="fill:none;stroke:#231f20;stroke-width:0.565977;stroke-linecap:butt;stroke-linejoin:miter;stroke-miterlimit:4;stroke-dasharray:none;stroke-opacity:1"
     d="m 207.39254,83.374 c -0.134,-0.202 -1.228,0.188 -1.442,-0.29 -0.214,-0.48 0.417,-0.975 0.453,-2.964 l -0.005,-0.022 c -0.01,-1.448 0.562,-2.724 1.661,-3.322 1.829,-0.995 4.401,0.213 5.751,2.688 1.358,2.484 0.968,5.296 -0.855,6.296 -1.733,0.953 -4.176,-0.115 -5.563,-2.386 z"
     id="path1090" />
  <path
     style="fill:#231f20;fill-opacity:1;fill-rule:nonzero;stroke:none"
     d="m 222.65854,125.119 c 2.23,-0.385 2.71,-0.156 2.93,0.776 0.15,0.626 0.51,1.14 0.62,1.516 0.37,1.234 0.47,3.495 -0.91,9.927 -0.32,1.459 -0.73,3.511 -0.84,4.364 -0.18,1.344 -2.29,0.152 -2.23,-0.385 0.19,-1.703 0.18,-2.88 0.17,-3.506 -0.01,-0.426 0.08,-1.181 -0.18,-2.833 -0.38,-2.5 -0.98,-3.937 -1.05,-6.052 -0.04,-0.979 -0.69,-1.697 -0.22,-2.676 0.44,-0.991 1.71,-1.131 1.71,-1.131"
     id="path1091" />
  <path
     style="fill:none;stroke:#231f20;stroke-width:0.565977;stroke-linecap:butt;stroke-linejoin:miter;stroke-miterlimit:4;stroke-dasharray:none;stroke-opacity:1"
     d="m 222.65854,125.119 c 2.23,-0.385 2.71,-0.156 2.93,0.776 0.15,0.626 0.51,1.14 0.62,1.516 0.37,1.234 0.47,3.495 -0.91,9.927 -0.32,1.459 -0.73,3.511 -0.84,4.364 -0.18,1.344 -2.29,0.152 -2.23,-0.385 0.19,-1.703 0.18,-2.88 0.17,-3.506 -0.01,-0.426 0.08,-1.181 -0.18,-2.833 -0.38,-2.5 -0.98,-3.937 -1.05,-6.052 -0.04,-0.979 -0.69,-1.697 -0.22,-2.676 0.44,-0.991 1.71,-1.131 1.71,-1.131 z"
     id="path1092" />
  <path
     style="fill:#231f20;fill-opacity:1;fill-rule:nonzero;stroke:#231f20;stroke-width:0.565977;stroke-linecap:round;stroke-linejoin:round;stroke-miterlimit:4;stroke-dasharray:none;stroke-opacity:1"
     d="m 221.29854,127.229 c -1.16,-0.823 -0.75,-2.943 -0.84,-3.266 -1.3,-4.849 -1.26,-5.229 -1.99,-8.98 -1.06,-5.426 -0.94,-9.306 2.04,-10.848 2.01,-1.032 3.63,-0.761 4.62,0.104 1.1,0.968 2.26,3.922 0.55,6.25 l -0.13,1.713 c 0.06,1.163 0.08,1.735 0.15,2.303 0.13,0.989 0.2,2.073 0.35,4.021 0.25,3.468 -0.62,7.213 -0.62,7.213 0.02,0.307 -0.09,0.568 -0.25,0.782"
     id="path1093" />
  <path
     style="fill:#fab41d;fill-opacity:1;fill-rule:nonzero;stroke:none"
     d="m 224.82854,103.942 c -0.99,-0.864 -2.61,-1.125 -4.62,-0.083 -2.35,1.219 -2.91,3.896 -2.51,7.63 l 7.7,-1.307 c 1.71,-2.323 0.54,-5.281 -0.57,-6.24"
     id="path1094" />
  <path
     style="fill:none;stroke:#231f20;stroke-width:0.565977;stroke-linecap:butt;stroke-linejoin:miter;stroke-miterlimit:4;stroke-dasharray:none;stroke-opacity:1"
     d="m 224.82854,103.942 c -0.99,-0.864 -2.61,-1.125 -4.62,-0.083 -2.35,1.219 -2.91,3.896 -2.51,7.63 l 7.7,-1.307 c 1.71,-2.323 0.54,-5.281 -0.57,-6.24 z"
     id="path1095" />
  <path
     style="fill:#231f20;fill-opacity:1;fill-rule:nonzero;stroke:none"
     d="m 207.93554,110.317 c 0.536,-0.343 1.115,-2.208 2.14,-3.443 0.688,-0.839 1.417,-3.484 2.177,-4.265 0.683,-0.719 0.927,-1.11 0.25,-2.031 -0.406,-0.552 -1.547,-1.349 -1.963,-1.068 -0.989,0.672 -1.511,1.459 -1.901,2.453 -0.438,1.13 -1.355,4.318 -1.47,4.916 -0.28,1.5 -0.832,1.98 -0.952,2.371 -0.204,0.733 0.026,0.989 0.458,1.228 0.854,0.464 1.261,-0.161 1.261,-0.161"
     id="path1096" />
  <path
     style="fill:none;stroke:#231f20;stroke-width:0.565977;stroke-linecap:butt;stroke-linejoin:miter;stroke-miterlimit:4;stroke-dasharray:none;stroke-opacity:1"
     d="m 207.93554,110.317 c 0.536,-0.343 1.115,-2.208 2.14,-3.443 0.688,-0.839 1.417,-3.484 2.177,-4.265 0.683,-0.719 0.927,-1.11 0.25,-2.031 -0.406,-0.552 -1.547,-1.349 -1.963,-1.068 -0.989,0.672 -1.511,1.459 -1.901,2.453 -0.438,1.13 -1.355,4.318 -1.47,4.916 -0.28,1.5 -0.832,1.98 -0.952,2.371 -0.204,0.733 0.026,0.989 0.458,1.228 0.854,0.464 1.261,-0.161 1.261,-0.161 z"
     id="path1097" />
  <path
     style="fill:#231f20;fill-opacity:1;fill-rule:nonzero;stroke:none"
     d="m 212.00754,102.395 c 1.281,0.198 1.224,-1.838 1.292,-2.374 0.063,-0.537 0.432,-2.052 0.869,-3.188 0.44,-1.151 0.5,-2.765 1.32,-4.943 0.44,-1.134 0.14,-2.525 -1.542,-3.082 -1.667,-0.554 -2.61,0.17 -2.923,1.634 -0.323,1.459 -0.005,2.97 -0.213,4.47 -0.219,1.494 -0.579,3 -0.927,4.166 -0.381,1.328 -0.084,2.12 0.291,2.421 0.928,0.76 1.833,0.896 1.833,0.896"
     id="path1098" />
  <path
     style="fill:none;stroke:#231f20;stroke-width:0.565977;stroke-linecap:butt;stroke-linejoin:miter;stroke-miterlimit:4;stroke-dasharray:none;stroke-opacity:1"
     d="m 212.00754,102.395 c 1.281,0.198 1.224,-1.838 1.292,-2.374 0.063,-0.537 0.432,-2.052 0.869,-3.188 0.44,-1.151 0.5,-2.765 1.32,-4.943 0.44,-1.134 0.14,-2.525 -1.542,-3.082 -1.667,-0.554 -2.61,0.17 -2.923,1.634 -0.323,1.459 -0.005,2.97 -0.213,4.47 -0.219,1.494 -0.579,3 -0.927,4.166 -0.381,1.328 -0.084,2.12 0.291,2.421 0.928,0.76 1.833,0.896 1.833,0.896 z"
     id="path1099" />
  <path
     style="fill:#231f20;fill-opacity:1;fill-rule:nonzero;stroke:none"
     d="m 204.97654,116.417 c 0.563,-0.475 2.156,-3.303 2.484,-3.975 0.303,-0.593 1.126,-1.411 0.407,-2.323 -0.271,-0.369 -0.948,-0.708 -1.26,-0.776 -0.261,-0.046 -0.485,0.183 -0.625,0.552 -0.256,0.615 -0.084,0.896 -0.484,2.104 0,0 -0.052,0.308 -0.1,0.844 -0.182,1.626 0.048,0.927 -0.739,3.23 -0.057,0.15 0.063,0.328 0.172,0.358 0.181,0.047 0.145,-0.014 0.145,-0.014"
     id="path1100" />
  <path
     style="fill:none;stroke:#231f20;stroke-width:0.565977;stroke-linecap:round;stroke-linejoin:round;stroke-miterlimit:4;stroke-dasharray:none;stroke-opacity:1"
     d="m 204.97654,116.417 c 0.563,-0.475 2.156,-3.303 2.484,-3.975 0.303,-0.593 1.126,-1.411 0.407,-2.323 -0.271,-0.369 -0.948,-0.708 -1.26,-0.776 -0.261,-0.046 -0.485,0.183 -0.625,0.552 -0.256,0.615 -0.084,0.896 -0.484,2.104 0,0 -0.052,0.308 -0.1,0.844 -0.182,1.626 0.048,0.927 -0.739,3.23 -0.057,0.15 0.063,0.328 0.172,0.358 0.181,0.047 0.145,-0.014 0.145,-0.014 z"
     id="path1101" />
  <path
     style="fill:#231f20;fill-opacity:1;fill-rule:nonzero;stroke:none"
     d="m 225.02854,144.177 c 1.03,-0.875 0.69,-1.812 -0.2,-2.328 -0.27,-0.151 -0.33,-0.568 -0.61,-0.704 -0.64,-0.296 -2.26,0.344 -2.06,1.833 0.01,0.105 -0.14,0.912 -0.16,1.532 -0.02,1.208 0.51,3.651 2.81,5.088 1.07,0.677 1.27,-0.088 0.92,-0.5 -1.12,-1.287 -0.97,-1.62 -1.14,-2.072 -0.59,-1.511 0.44,-2.849 0.44,-2.849"
     id="path1102" />
  <path
     style="fill:none;stroke:#231f20;stroke-width:0.332927;stroke-linecap:butt;stroke-linejoin:miter;stroke-miterlimit:4;stroke-dasharray:none;stroke-opacity:1"
     d="m 225.02854,144.177 c 1.03,-0.875 0.69,-1.812 -0.2,-2.328 -0.27,-0.151 -0.33,-0.568 -0.61,-0.704 -0.64,-0.296 -2.26,0.344 -2.06,1.833 0.01,0.105 -0.14,0.912 -0.16,1.532 -0.02,1.208 0.51,3.651 2.81,5.088 1.07,0.677 1.27,-0.088 0.92,-0.5 -1.12,-1.287 -0.97,-1.62 -1.14,-2.072 -0.59,-1.511 0.44,-2.849 0.44,-2.849 z"
     id="path1103" />
  <path
     style="fill:#ffffff;fill-opacity:1;fill-rule:nonzero;stroke:none"
     d="m 256.96854,106.311 c -0.03,-0.238 -1.17,-0.38 -1.15,-0.9 0.03,-0.526 0.8,-0.688 1.73,-2.448 l 0.01,-0.016 c 0.64,-1.306 1.72,-2.182 2.98,-2.224 2.07,-0.068 3.83,2.162 3.93,4.984 0.09,2.824 -1.52,5.167 -3.59,5.24 -1.99,0.068 -3.68,-1.978 -3.91,-4.636"
     id="path1104" />
  <path
     style="fill:none;stroke:#231f20;stroke-width:0.565977;stroke-linecap:butt;stroke-linejoin:miter;stroke-miterlimit:4;stroke-dasharray:none;stroke-opacity:1"
     d="m 256.96854,106.311 c -0.03,-0.238 -1.17,-0.38 -1.15,-0.9 0.03,-0.526 0.8,-0.688 1.73,-2.448 l 0.01,-0.016 c 0.64,-1.306 1.72,-2.182 2.98,-2.224 2.07,-0.068 3.83,2.162 3.93,4.984 0.09,2.824 -1.52,5.167 -3.59,5.24 -1.99,0.068 -3.68,-1.978 -3.91,-4.636 z"
     id="path1105" />
  <path
     style="fill:#fab41d;fill-opacity:1;fill-rule:nonzero;stroke:none"
     d="m 261.46854,124.343 c -0.09,3.135 0.24,3.812 0.58,4.672 2.13,5.375 -0.55,6.318 -3.37,5.719 -3.32,-0.703 -4.52,-0.88 -3.76,-7.136 0.21,-1.733 0.16,-8.505 0.16,-8.505 -0.35,-2.427 0.61,-4.968 1.84,-5.76 1.29,-0.828 0.84,-0.402 2.18,-0.954 1.27,-0.52 3.43,-0.208 4.09,0.839 0.63,1.005 -0.13,2.489 -0.94,4.776 -0.64,1.797 -0.78,6.349 -0.78,6.349"
     id="path1106" />
  <path
     style="fill:none;stroke:#231f20;stroke-width:0.565977;stroke-linecap:butt;stroke-linejoin:miter;stroke-miterlimit:4;stroke-dasharray:none;stroke-opacity:1"
     d="m 261.46854,124.343 c -0.09,3.135 0.24,3.812 0.58,4.672 2.13,5.375 -0.55,6.318 -3.37,5.719 -3.32,-0.703 -4.52,-0.88 -3.76,-7.136 0.21,-1.733 0.16,-8.505 0.16,-8.505 -0.35,-2.427 0.61,-4.968 1.84,-5.76 1.29,-0.828 0.84,-0.402 2.18,-0.954 1.27,-0.52 3.43,-0.208 4.09,0.839 0.63,1.005 -0.13,2.489 -0.94,4.776 -0.64,1.797 -0.78,6.349 -0.78,6.349 z"
     id="path1107" />
  <path
     style="fill:#231f20;fill-opacity:1;fill-rule:nonzero;stroke:none"
     d="m 269.71854,96.333 c -0.58,0.287 -1.33,2.084 -2.47,3.224 -0.77,0.76 -1.75,3.322 -2.58,4.03 -0.75,0.647 -1.04,1.011 -0.45,2.006 0.36,0.584 1.41,1.485 1.86,1.24 1.05,-0.558 1.64,-1.302 2.12,-2.255 0.54,-1.084 1.77,-4.161 1.93,-4.75 0.44,-1.463 1.04,-1.891 1.18,-2.266 0.28,-0.708 0.08,-0.989 -0.33,-1.276 -0.8,-0.53 -1.26,0.047 -1.26,0.047"
     id="path1108" />
  <path
     style="fill:none;stroke:#231f20;stroke-width:0.565977;stroke-linecap:butt;stroke-linejoin:miter;stroke-miterlimit:4;stroke-dasharray:none;stroke-opacity:1"
     d="m 269.71854,96.333 c -0.58,0.287 -1.33,2.084 -2.47,3.224 -0.77,0.76 -1.75,3.322 -2.58,4.03 -0.75,0.647 -1.04,1.011 -0.45,2.006 0.36,0.584 1.41,1.485 1.86,1.24 1.05,-0.558 1.64,-1.302 2.12,-2.255 0.54,-1.084 1.77,-4.161 1.93,-4.75 0.44,-1.463 1.04,-1.891 1.18,-2.266 0.28,-0.708 0.08,-0.989 -0.33,-1.276 -0.8,-0.53 -1.26,0.047 -1.26,0.047 z"
     id="path1109" />
  <path
     style="fill:#231f20;fill-opacity:1;fill-rule:nonzero;stroke:none"
     d="m 265.07854,104.119 c -1.18,-0.532 -1.66,1.443 -1.87,1.943 -0.21,0.5 -0.97,1.859 -1.7,2.844 -0.72,0.984 -1.21,2.525 -2.58,4.396 -0.73,0.989 -0.81,2.405 0.66,3.396 1.46,0.973 2.56,0.525 3.26,-0.797 0.7,-1.323 0.79,-2.866 1.4,-4.246 0.61,-1.385 1.35,-2.738 1.99,-3.77 0.73,-1.183 0.65,-2.031 0.37,-2.422 -0.69,-0.974 -1.53,-1.344 -1.53,-1.344"
     id="path1110" />
  <path
     style="fill:none;stroke:#231f20;stroke-width:0.565977;stroke-linecap:butt;stroke-linejoin:miter;stroke-miterlimit:4;stroke-dasharray:none;stroke-opacity:1"
     d="m 265.07854,104.119 c -1.18,-0.532 -1.66,1.443 -1.87,1.943 -0.21,0.5 -0.97,1.859 -1.7,2.844 -0.72,0.984 -1.21,2.525 -2.58,4.396 -0.73,0.989 -0.81,2.405 0.66,3.396 1.46,0.973 2.56,0.525 3.26,-0.797 0.7,-1.323 0.79,-2.866 1.4,-4.246 0.61,-1.385 1.35,-2.738 1.99,-3.77 0.73,-1.183 0.65,-2.031 0.37,-2.422 -0.69,-0.974 -1.53,-1.344 -1.53,-1.344 z"
     id="path1111" />
  <path
     style="fill:#231f20;fill-opacity:1;fill-rule:nonzero;stroke:none"
     d="m 273.18854,90.312 c -0.56,0.464 -2.21,3.266 -2.56,3.928 -0.31,0.582 -1.14,1.385 -0.45,2.312 0.28,0.374 0.94,0.729 1.26,0.797 0.25,0.057 0.49,-0.167 0.64,-0.537 0.25,-0.614 0.09,-0.891 0.51,-2.094 0,0 0.06,-0.301 0.13,-0.849 0.21,-1.619 -0.03,-0.921 0.79,-3.197 0.06,-0.167 -0.06,-0.339 -0.17,-0.37 -0.17,-0.048 -0.15,0.01 -0.15,0.01"
     id="path1112" />
  <path
     style="fill:none;stroke:#231f20;stroke-width:0.565977;stroke-linecap:round;stroke-linejoin:round;stroke-miterlimit:4;stroke-dasharray:none;stroke-opacity:1"
     d="m 273.18854,90.312 c -0.56,0.464 -2.21,3.266 -2.56,3.928 -0.31,0.582 -1.14,1.385 -0.45,2.312 0.28,0.374 0.94,0.729 1.26,0.797 0.25,0.057 0.49,-0.167 0.64,-0.537 0.25,-0.614 0.09,-0.891 0.51,-2.094 0,0 0.06,-0.301 0.13,-0.849 0.21,-1.619 -0.03,-0.921 0.79,-3.197 0.06,-0.167 -0.06,-0.339 -0.17,-0.37 -0.17,-0.048 -0.15,0.01 -0.15,0.01 z"
     id="path1113" />
  <path
     style="fill:#231f20;fill-opacity:1;fill-rule:nonzero;stroke:none"
     d="m 259.03854,150.046 c 2.22,-0.396 2.71,-0.172 2.94,0.761 0.16,0.615 0.51,1.14 0.62,1.51 0.37,1.25 0.49,3.485 -0.86,9.933 -0.3,1.463 -0.72,3.52 -0.82,4.369 -0.16,1.35 -2.29,0.167 -2.23,-0.36 0.18,-1.708 0.17,-2.894 0.16,-3.514 -0.01,-0.434 0.07,-1.188 -0.19,-2.834 -0.4,-2.494 -1,-3.933 -1.09,-6.046 -0.04,-0.98 -0.69,-1.694 -0.24,-2.678 0.45,-0.985 1.71,-1.141 1.71,-1.141"
     id="path1114" />
  <path
     style="fill:none;stroke:#231f20;stroke-width:0.565977;stroke-linecap:butt;stroke-linejoin:miter;stroke-miterlimit:4;stroke-dasharray:none;stroke-opacity:1"
     d="m 259.03854,150.046 c 2.22,-0.396 2.71,-0.172 2.94,0.761 0.16,0.615 0.51,1.14 0.62,1.51 0.37,1.25 0.49,3.485 -0.86,9.933 -0.3,1.463 -0.72,3.52 -0.82,4.369 -0.16,1.35 -2.29,0.167 -2.23,-0.36 0.18,-1.708 0.17,-2.894 0.16,-3.514 -0.01,-0.434 0.07,-1.188 -0.19,-2.834 -0.4,-2.494 -1,-3.933 -1.09,-6.046 -0.04,-0.98 -0.69,-1.694 -0.24,-2.678 0.45,-0.985 1.71,-1.141 1.71,-1.141 z"
     id="path1115" />
  <path
     style="fill:#231f20;fill-opacity:1;fill-rule:nonzero;stroke:#231f20;stroke-width:0.565977;stroke-linecap:round;stroke-linejoin:miter;stroke-miterlimit:4;stroke-dasharray:none;stroke-opacity:1"
     d="m 257.58854,152.078 c -1.03,-0.876 -0.67,-2.865 -0.75,-3.183 -1.33,-4.833 -1.29,-5.213 -2.04,-8.964 -1.08,-5.416 -0.99,-9.296 1.98,-10.842 2.02,-1.054 3.64,-0.787 4.63,0.077 1.1,0.953 2.28,3.907 0.58,6.245 l -0.12,1.703 c 0.06,1.167 0.08,1.74 0.16,2.312 0.14,0.991 0.21,2.063 0.36,4.016 0.28,3.459 -0.57,7.208 -0.57,7.208 0.01,0.313 -0.09,0.568 -0.26,0.787"
     id="path1116" />
  <path
     style="fill:#fab41d;fill-opacity:1;fill-rule:nonzero;stroke:none"
     d="m 254.39854,132.431 c 0.34,-1.514 1.08,-2.661 2.38,-3.342 2.02,-1.054 3.64,-0.787 4.63,0.077 1.1,0.953 2.28,3.907 0.58,6.245 l -7.7,1.312 c -0.07,-0.656 -0.1,-1.26 -0.1,-1.849 -0.03,-0.072 -0.06,-0.151 -0.09,-0.213 -0.38,-0.708 -0.14,-1.292 0.3,-2.23"
     id="path1117" />
  <path
     style="fill:none;stroke:#231f20;stroke-width:0.565977;stroke-linecap:round;stroke-linejoin:round;stroke-miterlimit:4;stroke-dasharray:none;stroke-opacity:1"
     d="m 254.39854,132.431 c 0.34,-1.514 1.08,-2.661 2.38,-3.342 2.02,-1.054 3.64,-0.787 4.63,0.077 1.1,0.953 2.28,3.907 0.58,6.245 l -7.7,1.312 c -0.07,-0.656 -0.1,-1.26 -0.1,-1.849 -0.03,-0.072 -0.06,-0.151 -0.09,-0.213 -0.38,-0.708 -0.14,-1.292 0.3,-2.23 z"
     id="path1118" />
  <path
     style="fill:#231f20;fill-opacity:1;fill-rule:nonzero;stroke:none"
     d="m 260.63854,169.854 c 1.08,-0.057 0.82,-1.287 0.58,-2.489 -0.06,-0.303 -0.09,-0.595 -0.17,-0.882 -0.34,-1.181 -1.16,-1.838 -3.11,0.434 -0.07,0.088 -1.91,1.27 -2.48,1.52 -2.74,1.166 -2.97,0.36 -2.74,1.166 0.14,0.542 0.65,0.552 1.28,0.547 0.85,-0.005 3.87,-0.281 4.33,-0.291 0.45,-0.01 2.31,-0.005 2.31,-0.005"
     id="path1119" />
  <path
     style="fill:none;stroke:#231f20;stroke-width:0.565977;stroke-linecap:butt;stroke-linejoin:miter;stroke-miterlimit:4;stroke-dasharray:none;stroke-opacity:1"
     d="m 260.63854,169.854 c 1.08,-0.057 0.82,-1.287 0.58,-2.489 -0.06,-0.303 -0.09,-0.595 -0.17,-0.882 -0.34,-1.181 -1.16,-1.838 -3.11,0.434 -0.07,0.088 -1.91,1.27 -2.48,1.52 -2.74,1.166 -2.97,0.36 -2.74,1.166 0.14,0.542 0.65,0.552 1.28,0.547 0.85,-0.005 3.87,-0.281 4.33,-0.291 0.45,-0.01 2.31,-0.005 2.31,-0.005 z"
     id="path1121" />
  <path
     style="fill:#231f20;fill-opacity:1;fill-rule:nonzero;stroke:#231f20;stroke-width:0.565977;stroke-linecap:round;stroke-linejoin:round;stroke-miterlimit:4;stroke-dasharray:none;stroke-opacity:1"
     d="m 150.78854,71.286 c 0,0 0.631,-1.156 1.604,-1.802 0.964,-0.64 2.298,-0.906 2.298,-0.906 l 1.865,2.714 -3.943,2.713 z"
     id="path1123" />
  <path
     style="fill:#231f20;fill-opacity:1;fill-rule:nonzero;stroke:none"
     d="m 164.67054,82.026 c 3.348,-1.333 3.661,0.323 6.052,3.63 2.618,3.604 4.962,7.652 5.708,10.865 0.849,3.593 1.358,3.65 -0.079,4.921 -1.437,1.265 -1.968,0.699 -3.229,0.437 -1.458,-0.296 -3.495,-7.369 -6.416,-11.114 -1.37,-1.76 -5.792,-5.072 -4.891,-6.208 0.911,-1.135 2.855,-2.531 2.855,-2.531"
     id="path1124" />
  <path
     style="fill:none;stroke:#231f20;stroke-width:0.565977;stroke-linecap:butt;stroke-linejoin:miter;stroke-miterlimit:4;stroke-dasharray:none;stroke-opacity:1"
     d="m 164.67054,82.026 c 3.348,-1.333 3.661,0.323 6.052,3.63 2.618,3.604 4.962,7.652 5.708,10.865 0.849,3.593 1.358,3.65 -0.079,4.921 -1.437,1.265 -1.968,0.699 -3.229,0.437 -1.458,-0.296 -3.495,-7.369 -6.416,-11.114 -1.37,-1.76 -5.792,-5.072 -4.891,-6.208 0.911,-1.135 2.855,-2.531 2.855,-2.531 z"
     id="path1125" />
  <path
     style="fill:#231f20;fill-opacity:1;fill-rule:nonzero;stroke:none"
     d="m 174.44654,100.239 c 1.853,-1.291 2.374,-1.698 3.462,0.558 0.282,0.572 0.938,2.224 1.194,2.514 0.858,0.97 1.781,2.172 3.27,8.59 0.23,0.994 1,2.806 1.432,4.145 0.422,1.292 -2.01,1.115 -2.177,0.609 -0.552,-1.624 -1.26,-2.546 -1.536,-3.104 -0.193,-0.385 -0.427,-1.156 -1.511,-2.421 -2.781,-3.245 -2.416,-5.005 -2.942,-5.74 -1.5,-2.093 -3.219,-3.579 -2.855,-4.14 0.595,-0.907 1.663,-1.011 1.663,-1.011"
     id="path1126" />
  <path
     style="fill:none;stroke:#231f20;stroke-width:0.565977;stroke-linecap:butt;stroke-linejoin:miter;stroke-miterlimit:4;stroke-dasharray:none;stroke-opacity:1"
     d="m 174.44654,100.239 c 1.853,-1.291 2.374,-1.698 3.462,0.558 0.282,0.572 0.938,2.224 1.194,2.514 0.858,0.97 1.781,2.172 3.27,8.59 0.23,0.994 1,2.806 1.432,4.145 0.422,1.292 -2.01,1.115 -2.177,0.609 -0.552,-1.624 -1.26,-2.546 -1.536,-3.104 -0.193,-0.385 -0.427,-1.156 -1.511,-2.421 -2.781,-3.245 -2.416,-5.005 -2.942,-5.74 -1.5,-2.093 -3.219,-3.579 -2.855,-4.14 0.595,-0.907 1.663,-1.011 1.663,-1.011 z"
     id="path1127" />
  <path
     style="fill:#231f20;fill-opacity:1;fill-rule:nonzero;stroke:none"
     d="m 159.39854,85.349 c -2.791,2.287 -1.484,3.353 0.24,7.047 1.896,4.036 4.302,8.046 6.75,10.259 2.728,2.475 2.531,2.964 4.338,2.314 1.808,-0.642 1.573,-1.382 1.953,-2.615 0.443,-1.423 -4.76,-6.625 -6.62,-10.994 -0.875,-2.052 -1.635,-7.522 -3.061,-7.282 -1.439,0.244 -3.6,1.271 -3.6,1.271"
     id="path1128" />
  <path
     style="fill:none;stroke:#231f20;stroke-width:0.565977;stroke-linecap:butt;stroke-linejoin:miter;stroke-miterlimit:4;stroke-dasharray:none;stroke-opacity:1"
     d="m 159.39854,85.349 c -2.791,2.287 -1.484,3.353 0.24,7.047 1.896,4.036 4.302,8.046 6.75,10.259 2.728,2.475 2.531,2.964 4.338,2.314 1.808,-0.642 1.573,-1.382 1.953,-2.615 0.443,-1.423 -4.76,-6.625 -6.62,-10.994 -0.875,-2.052 -1.635,-7.522 -3.061,-7.282 -1.439,0.244 -3.6,1.271 -3.6,1.271 z"
     id="path1129" />
  <path
     style="fill:#fab41d;fill-opacity:1;fill-rule:nonzero;stroke:none"
     d="m 166.95554,90.546 c 0.407,-0.281 0.661,-0.978 0.661,-0.978 0,0 -2.702,-5.178 -1.312,-7.964 l 0.287,-0.219 c 1.235,0.203 -0.995,-0.719 -1.401,-1.344 -1.798,-2.713 -3.49,-7.52 -3.604,-8.853 -0.156,-1.823 1.677,-3.704 -0.266,-4.662 0,0 -1.557,-1.166 -3.65,0.708 -0.756,0.683 -2.986,1.344 -2.986,1.344 0.032,0.026 0.063,0.058 0.09,0.088 0.708,1.036 0.229,2.23 -0.86,3 l 0.062,-0.041 c -1.114,0.744 -2.432,0.708 -3.109,-0.271 -0.021,-0.037 -0.041,-0.073 -0.057,-0.109 0,0 -1.412,1.844 -2.312,2.307 -2.506,1.286 -1.762,3.338 -1.762,3.338 0.199,2.156 2.407,0.927 4.052,1.73 1.199,0.582 5.095,3.88 6.991,6.525 0.432,0.605 0.495,3.016 0.749,1.792 l 0.303,-0.192 c 3.099,-0.303 6.973,4.072 6.973,4.072 0,0 0.746,0.011 1.151,-0.271"
     id="path1130" />
  <path
     style="fill:none;stroke:#231f20;stroke-width:0.565977;stroke-linecap:butt;stroke-linejoin:miter;stroke-miterlimit:4;stroke-dasharray:none;stroke-opacity:1"
     d="m 166.95554,90.546 c 0.407,-0.281 0.661,-0.978 0.661,-0.978 0,0 -2.702,-5.178 -1.312,-7.964 l 0.287,-0.219 c 1.235,0.203 -0.995,-0.719 -1.401,-1.344 -1.798,-2.713 -3.49,-7.52 -3.604,-8.853 -0.156,-1.823 1.677,-3.704 -0.266,-4.662 0,0 -1.557,-1.166 -3.65,0.708 -0.756,0.683 -2.986,1.344 -2.986,1.344 0.032,0.026 0.063,0.058 0.09,0.088 0.708,1.036 0.229,2.23 -0.86,3 l 0.062,-0.041 c -1.114,0.744 -2.432,0.708 -3.109,-0.271 -0.021,-0.037 -0.041,-0.073 -0.057,-0.109 0,0 -1.412,1.844 -2.312,2.307 -2.506,1.286 -1.762,3.338 -1.762,3.338 0.199,2.156 2.407,0.927 4.052,1.73 1.199,0.582 5.095,3.88 6.991,6.525 0.432,0.605 0.495,3.016 0.749,1.792 l 0.303,-0.192 c 3.099,-0.303 6.973,4.072 6.973,4.072 0,0 0.746,0.011 1.151,-0.271 z"
     id="path1131" />
  <path
     style="fill:#ffffff;fill-opacity:1;fill-rule:nonzero;stroke:none"
     d="m 147.46054,67.026 c 1.131,2.583 3.59,4.01 5.49,3.176 1.906,-0.833 2.526,-3.604 1.396,-6.192 -1.135,-2.588 -3.594,-4.01 -5.495,-3.177 -1.901,0.828 -2.525,3.604 -1.391,6.193"
     id="path1132" />
  <path
     style="fill:none;stroke:#231f20;stroke-width:0.565977;stroke-linecap:butt;stroke-linejoin:miter;stroke-miterlimit:4;stroke-dasharray:none;stroke-opacity:1"
     d="m 147.46054,67.026 c 1.131,2.583 3.59,4.01 5.49,3.176 1.906,-0.833 2.526,-3.604 1.396,-6.192 -1.135,-2.588 -3.594,-4.01 -5.495,-3.177 -1.901,0.828 -2.525,3.604 -1.391,6.193 z"
     id="path1133" />
  <path
     style="fill:#231f20;fill-opacity:1;fill-rule:nonzero;stroke:none"
     d="m 170.57554,102.718 c -2.025,1.005 -2.629,1.276 -1.177,3.313 0.376,0.515 1.505,1.875 1.636,2.25 0.448,1.218 1.062,2.598 5.969,6.978 0.765,0.683 2,2.23 2.957,3.246 0.932,0.989 1.943,-1.219 1.579,-1.615 -1.161,-1.26 -1.636,-2.323 -1.989,-2.833 -0.246,-0.355 -0.814,-0.927 -1.402,-2.484 -1.516,-4 -3.24,-4.522 -3.625,-5.334 -1.12,-2.328 -1.599,-4.546 -2.265,-4.494 -1.084,0.082 -1.683,0.973 -1.683,0.973"
     id="path1134" />
  <path
     style="fill:none;stroke:#231f20;stroke-width:0.565977;stroke-linecap:butt;stroke-linejoin:miter;stroke-miterlimit:4;stroke-dasharray:none;stroke-opacity:1"
     d="m 170.57554,102.718 c -2.025,1.005 -2.629,1.276 -1.177,3.313 0.376,0.515 1.505,1.875 1.636,2.25 0.448,1.218 1.062,2.598 5.969,6.978 0.765,0.683 2,2.23 2.957,3.246 0.932,0.989 1.943,-1.219 1.579,-1.615 -1.161,-1.26 -1.636,-2.323 -1.989,-2.833 -0.246,-0.355 -0.814,-0.927 -1.402,-2.484 -1.516,-4 -3.24,-4.522 -3.625,-5.334 -1.12,-2.328 -1.599,-4.546 -2.265,-4.494 -1.084,0.082 -1.683,0.973 -1.683,0.973 z"
     id="path1135" />
  <path
     style="fill:#fab41d;fill-opacity:1;fill-rule:nonzero;stroke:none"
     d="m 157.61654,85.937 c -0.036,0.349 0.032,1.708 0.106,2.172 0.494,2.927 2.598,6.265 3.009,7.475 0.417,1.202 6.032,-2.256 6.032,-2.256 l -0.573,-1.864 c 0.609,0.14 0.849,-0.506 0.849,-0.506 l 1.407,1.454 c 0,0 5.656,-3.12 5.014,-3.896 -0.885,-1.074 -3.348,-4.995 -5.317,-6.454 -1.084,-0.797 -2.093,-0.973 -2.093,-0.973 0,0 -2.558,2.812 -3.782,3.547 -1.224,0.733 -4.652,1.301 -4.652,1.301"
     id="path1136" />
  <path
     style="fill:none;stroke:#231f20;stroke-width:0.565977;stroke-linecap:butt;stroke-linejoin:miter;stroke-miterlimit:4;stroke-dasharray:none;stroke-opacity:1"
     d="m 157.61654,85.937 c -0.036,0.349 0.032,1.708 0.106,2.172 0.494,2.927 2.598,6.265 3.009,7.475 0.417,1.202 6.032,-2.256 6.032,-2.256 l -0.573,-1.864 c 0.609,0.14 0.849,-0.506 0.849,-0.506 l 1.407,1.454 c 0,0 5.656,-3.12 5.014,-3.896 -0.885,-1.074 -3.348,-4.995 -5.317,-6.454 -1.084,-0.797 -2.093,-0.973 -2.093,-0.973 0,0 -2.558,2.812 -3.782,3.547 -1.224,0.733 -4.652,1.301 -4.652,1.301 z"
     id="path1137" />
  <path
     style="fill:#231f20;fill-opacity:1;fill-rule:nonzero;stroke:none"
     d="m 181.14354,121.817 c -0.563,-0.359 -0.229,-2.135 -1.229,-3.828 -0.208,-0.348 -0.208,-0.724 -0.276,-1.088 -0.246,-1.49 0.344,-2.975 3.068,-0.287 0.374,0.369 1.129,2.333 1.724,2.839 1.432,1.197 1.582,4.516 1.082,4.661 -1.072,0.317 -4.369,-2.297 -4.369,-2.297"
     id="path1138" />
  <path
     style="fill:none;stroke:#231f20;stroke-width:0.644548;stroke-linecap:round;stroke-linejoin:round;stroke-miterlimit:4;stroke-dasharray:none;stroke-opacity:1"
     d="m 181.14354,121.817 c -0.563,-0.359 -0.229,-2.135 -1.229,-3.828 -0.208,-0.348 -0.208,-0.724 -0.276,-1.088 -0.246,-1.49 0.344,-2.975 3.068,-0.287 0.374,0.369 1.129,2.333 1.724,2.839 1.432,1.197 1.582,4.516 1.082,4.661 -1.072,0.317 -4.369,-2.297 -4.369,-2.297 z"
     id="path1139" />
  <path
     style="fill:#231f20;fill-opacity:1;fill-rule:nonzero;stroke:none"
     d="m 186.46654,118.755 c -0.016,-0.666 -1.708,-1.302 -2.64,-3.037 -0.199,-0.349 -0.516,-0.547 -0.798,-0.792 -1.15,-0.984 -2.729,-1.233 -1.822,2.48 0.125,0.515 1.416,2.172 1.541,2.948 0.287,1.839 3.057,3.677 3.437,3.317 0.823,-0.745 0.282,-4.916 0.282,-4.916"
     id="path1140" />
  <path
     style="fill:none;stroke:#231f20;stroke-width:0.644548;stroke-linecap:round;stroke-linejoin:round;stroke-miterlimit:4;stroke-dasharray:none;stroke-opacity:1"
     d="m 186.46654,118.755 c -0.016,-0.666 -1.708,-1.302 -2.64,-3.037 -0.199,-0.349 -0.516,-0.547 -0.798,-0.792 -1.15,-0.984 -2.729,-1.233 -1.822,2.48 0.125,0.515 1.416,2.172 1.541,2.948 0.287,1.839 3.057,3.677 3.437,3.317 0.823,-0.745 0.282,-4.916 0.282,-4.916 z"
     id="path1141" />
  <path
     style="fill:#231f20;fill-opacity:1;fill-rule:nonzero;stroke:none"
     d="m 176.64354,77.672 c -0.568,0.306 -2.469,-0.11 -4.052,0.166 -1.068,0.194 -3.735,-0.473 -4.787,-0.197 -0.958,0.239 -1.426,0.26 -1.89,-0.792 -0.276,-0.62 -0.412,-2 0.046,-2.229 1.068,-0.536 2.006,-0.599 3.063,-0.448 1.199,0.182 4.423,0.948 5.005,1.145 1.443,0.491 2.136,0.245 2.531,0.339 0.735,0.177 0.855,0.494 0.849,1.01 -0.025,0.954 -0.765,1.006 -0.765,1.006"
     id="path1142" />
  <path
     style="fill:none;stroke:#231f20;stroke-width:0.565977;stroke-linecap:butt;stroke-linejoin:miter;stroke-miterlimit:4;stroke-dasharray:none;stroke-opacity:1"
     d="m 176.64354,77.672 c -0.568,0.306 -2.469,-0.11 -4.052,0.166 -1.068,0.194 -3.735,-0.473 -4.787,-0.197 -0.958,0.239 -1.426,0.26 -1.89,-0.792 -0.276,-0.62 -0.412,-2 0.046,-2.229 1.068,-0.536 2.006,-0.599 3.063,-0.448 1.199,0.182 4.423,0.948 5.005,1.145 1.443,0.491 2.136,0.245 2.531,0.339 0.735,0.177 0.855,0.494 0.849,1.01 -0.025,0.954 -0.765,1.006 -0.765,1.006 z"
     id="path1143" />
  <path
     style="fill:#231f20;fill-opacity:1;fill-rule:nonzero;stroke:none"
     d="m 167.08654,77.145 c -1.068,0.735 -1.896,-1.129 -2.188,-1.583 -0.291,-0.458 -1.282,-1.666 -2.156,-2.505 -0.891,-0.844 -1.635,-2.281 -3.323,-3.88 -0.885,-0.849 -1.213,-2.229 0.068,-3.464 1.271,-1.213 2.427,-0.957 3.344,0.229 0.916,1.178 1.276,2.678 2.115,3.938 0.842,1.25 1.817,2.453 2.624,3.36 0.922,1.025 0.989,1.885 0.786,2.317 -0.51,1.079 -1.27,1.588 -1.27,1.588"
     id="path1144" />
  <path
     style="fill:none;stroke:#231f20;stroke-width:0.565977;stroke-linecap:butt;stroke-linejoin:miter;stroke-miterlimit:4;stroke-dasharray:none;stroke-opacity:1"
     d="m 167.08654,77.145 c -1.068,0.735 -1.896,-1.129 -2.188,-1.583 -0.291,-0.458 -1.282,-1.666 -2.156,-2.505 -0.891,-0.844 -1.635,-2.281 -3.323,-3.88 -0.885,-0.849 -1.213,-2.229 0.068,-3.464 1.271,-1.213 2.427,-0.957 3.344,0.229 0.916,1.178 1.276,2.678 2.115,3.938 0.842,1.25 1.817,2.453 2.624,3.36 0.922,1.025 0.989,1.885 0.786,2.317 -0.51,1.079 -1.27,1.588 -1.27,1.588 z"
     id="path1145" />
  <path
     style="fill:#231f20;fill-opacity:1;fill-rule:nonzero;stroke:none"
     d="m 158.87254,90.24 c -0.333,-0.552 -2.198,-1.131 -3.432,-2.156 -0.833,-0.704 -3.474,-1.443 -4.25,-2.199 -0.719,-0.692 -1.11,-0.937 -2.036,-0.26 -0.552,0.401 -1.355,1.531 -1.074,1.963 0.656,0.99 1.454,1.51 2.443,1.906 1.136,0.438 4.312,1.375 4.912,1.49 1.495,0.292 1.973,0.849 2.364,0.958 0.729,0.219 0.989,-0.01 1.229,-0.453 0.464,-0.839 -0.156,-1.249 -0.156,-1.249"
     id="path1146" />
  <path
     style="fill:none;stroke:#231f20;stroke-width:0.565977;stroke-linecap:butt;stroke-linejoin:miter;stroke-miterlimit:4;stroke-dasharray:none;stroke-opacity:1"
     d="m 158.87254,90.24 c -0.333,-0.552 -2.198,-1.131 -3.432,-2.156 -0.833,-0.704 -3.474,-1.443 -4.25,-2.199 -0.719,-0.692 -1.11,-0.937 -2.036,-0.26 -0.552,0.401 -1.355,1.531 -1.074,1.963 0.656,0.99 1.454,1.51 2.443,1.906 1.136,0.438 4.312,1.375 4.912,1.49 1.495,0.292 1.973,0.849 2.364,0.958 0.729,0.219 0.989,-0.01 1.229,-0.453 0.464,-0.839 -0.156,-1.249 -0.156,-1.249 z"
     id="path1147" />
  <path
     style="fill:#231f20;fill-opacity:1;fill-rule:nonzero;stroke:none"
     d="m 150.54454,87.521 c 1.271,-0.251 0.506,-2.141 0.38,-2.661 -0.125,-0.538 -0.308,-2.084 -0.297,-3.303 0.005,-1.224 -0.505,-2.755 -0.489,-5.083 0.005,-1.224 -0.755,-2.422 -2.531,-2.349 -1.756,0.063 -2.381,1.068 -2.167,2.552 0.214,1.484 1.042,2.781 1.359,4.265 0.317,1.47 0.505,3.011 0.604,4.219 0.099,1.375 0.667,2.021 1.115,2.172 1.13,0.385 2.026,0.188 2.026,0.188"
     id="path1148" />
  <path
     style="fill:none;stroke:#231f20;stroke-width:0.565977;stroke-linecap:butt;stroke-linejoin:miter;stroke-miterlimit:4;stroke-dasharray:none;stroke-opacity:1"
     d="m 150.54454,87.521 c 1.271,-0.251 0.506,-2.141 0.38,-2.661 -0.125,-0.538 -0.308,-2.084 -0.297,-3.303 0.005,-1.224 -0.505,-2.755 -0.489,-5.083 0.005,-1.224 -0.755,-2.422 -2.531,-2.349 -1.756,0.063 -2.381,1.068 -2.167,2.552 0.214,1.484 1.042,2.781 1.359,4.265 0.317,1.47 0.505,3.011 0.604,4.219 0.099,1.375 0.667,2.021 1.115,2.172 1.13,0.385 2.026,0.188 2.026,0.188 z"
     id="path1149" />
  <path
     style="fill:#231f20;fill-opacity:1;fill-rule:nonzero;stroke:none"
     d="m 164.07554,93.609 c -0.735,0.036 -3.839,-0.916 -4.536,-1.172 -0.631,-0.219 -1.787,-0.239 -1.907,-1.391 -0.052,-0.462 0.203,-1.177 0.391,-1.437 0.145,-0.213 0.479,-0.208 0.839,-0.041 0.598,0.281 0.666,0.593 1.797,1.197 0,0 0.239,0.183 0.661,0.543 1.25,1.046 0.604,0.702 2.744,1.817 0.152,0.073 0.188,0.292 0.126,0.385 -0.099,0.151 -0.115,0.099 -0.115,0.099"
     id="path1150" />
  <path
     style="fill:none;stroke:#231f20;stroke-width:0.565977;stroke-linecap:round;stroke-linejoin:round;stroke-miterlimit:4;stroke-dasharray:none;stroke-opacity:1"
     d="m 164.07554,93.609 c -0.735,0.036 -3.839,-0.916 -4.536,-1.172 -0.631,-0.219 -1.787,-0.239 -1.907,-1.391 -0.052,-0.462 0.203,-1.177 0.391,-1.437 0.145,-0.213 0.479,-0.208 0.839,-0.041 0.598,0.281 0.666,0.593 1.797,1.197 0,0 0.239,0.183 0.661,0.543 1.25,1.046 0.604,0.702 2.744,1.817 0.152,0.073 0.188,0.292 0.126,0.385 -0.099,0.151 -0.115,0.099 -0.115,0.099 z"
     id="path1151" />
  <path
     style="fill:#231f20;fill-opacity:1;fill-rule:nonzero;stroke:none"
     d="m 183.24754,78.062 c -0.703,0.198 -3.943,-0.021 -4.683,-0.104 -0.656,-0.073 -1.79,0.167 -2.172,-0.922 -0.156,-0.443 -0.066,-1.198 0.054,-1.495 0.093,-0.239 0.416,-0.307 0.806,-0.224 0.646,0.136 0.787,0.428 2.022,0.751 0,0 0.281,0.125 0.765,0.374 1.459,0.74 0.749,0.547 3.093,1.146 0.167,0.042 0.246,0.24 0.208,0.349 -0.057,0.167 -0.093,0.125 -0.093,0.125"
     id="path1152" />
  <path
     style="fill:none;stroke:#231f20;stroke-width:0.565977;stroke-linecap:round;stroke-linejoin:round;stroke-miterlimit:4;stroke-dasharray:none;stroke-opacity:1"
     d="m 183.24754,78.062 c -0.703,0.198 -3.943,-0.021 -4.683,-0.104 -0.656,-0.073 -1.79,0.167 -2.172,-0.922 -0.156,-0.443 -0.066,-1.198 0.054,-1.495 0.093,-0.239 0.416,-0.307 0.806,-0.224 0.646,0.136 0.787,0.428 2.022,0.751 0,0 0.281,0.125 0.765,0.374 1.459,0.74 0.749,0.547 3.093,1.146 0.167,0.042 0.246,0.24 0.208,0.349 -0.057,0.167 -0.093,0.125 -0.093,0.125 z"
     id="path1153" />
</svg>
