<?xml version="1.0" encoding="UTF-8" standalone="no"?>
<!-- Created with Inkscape (http://www.inkscape.org/) -->

<svg
   version="1.1"
   id="svg1"
   width="331.27725"
   height="91.399864"
   viewBox="0 0 331.27723 91.399863"
   sodipodi:docname="cell.svg"
   xmlns:inkscape="http://www.inkscape.org/namespaces/inkscape"
   xmlns:sodipodi="http://sodipodi.sourceforge.net/DTD/sodipodi-0.dtd"
   xmlns="http://www.w3.org/2000/svg"
   xmlns:svg="http://www.w3.org/2000/svg">
  <sodipodi:namedview
     id="namedview1"
     pagecolor="#ffffff"
     bordercolor="#000000"
     borderopacity="0.25"
     inkscape:showpageshadow="2"
     inkscape:pageopacity="0.0"
     inkscape:pagecheckerboard="0"
     inkscape:deskcolor="#d1d1d1">
    <inkscape:page
       x="8.4216751e-08"
       y="1.2456249e-07"
       inkscape:label="1"
       id="page1"
       width="331.27722"
       height="91.399864"
       margin="0"
       bleed="0" />
  </sodipodi:namedview>
  <defs
     id="defs1" />
  <path
     style="fill:#ffffff;fill-opacity:1;fill-rule:nonzero;stroke:none"
     d="m 22.477497,30.792799 c 0.151,-0.192 1.208,0.251 1.454,-0.213 0.228,-0.468 -0.355,-0.989 -0.298,-2.984 v -0.016 c 0.094,-1.459 -0.412,-2.744002 -1.478,-3.407002 -1.767,-1.088 -4.407,-0.02 -5.886,2.382002 -1.48,2.405 -1.25,5.233 0.52,6.328 1.688,1.041 4.178,0.104 5.688,-2.09"
     id="path480" />
  <path
     style="fill:none;stroke:#231f20;stroke-width:0.565977;stroke-linecap:butt;stroke-linejoin:miter;stroke-miterlimit:4;stroke-dasharray:none;stroke-opacity:1"
     d="m 22.477497,30.792799 c 0.151,-0.192 1.208,0.251 1.454,-0.213 0.228,-0.468 -0.355,-0.989 -0.298,-2.984 v -0.016 c 0.094,-1.459 -0.412,-2.744002 -1.478,-3.407002 -1.767,-1.088 -4.407,-0.02 -5.886,2.382002 -1.48,2.405 -1.25,5.233 0.52,6.328 1.688,1.041 4.178,0.104 5.688,-2.09 z"
     id="path481" />
  <path
     style="fill:#fab41d;fill-opacity:1;fill-rule:nonzero;stroke:none"
     d="m 8.8114968,43.652799 c -1.719,2.626 -2.38,2.995 -3.142,3.506 -4.81199972,3.202 -3.156,5.5 -0.494,6.625 3.12,1.317 4.218,1.853 7.1560002,-3.72 0.813,-1.547 4.718,-7.077 4.718,-7.077 1.667,-1.798 2.334,-4.432 1.776,-5.776 -0.588,-1.418 -0.457,-0.814 -1.244,-2.027 -0.745,-1.156 -2.702,-2.129 -3.844,-1.645 -1.088,0.464 -1.312,2.114 -1.948,4.458 -0.494,1.839 -2.9780002,5.656 -2.9780002,5.656"
     id="path482" />
  <path
     style="fill:none;stroke:#231f20;stroke-width:0.565977;stroke-linecap:butt;stroke-linejoin:miter;stroke-miterlimit:4;stroke-dasharray:none;stroke-opacity:1"
     d="m 8.8114968,43.652799 c -1.719,2.626 -2.38,2.995 -3.142,3.506 -4.81199972,3.202 -3.156,5.5 -0.494,6.625 3.12,1.317 4.218,1.853 7.1560002,-3.72 0.813,-1.547 4.718,-7.077 4.718,-7.077 1.667,-1.798 2.334,-4.432 1.776,-5.776 -0.588,-1.418 -0.457,-0.814 -1.244,-2.027 -0.745,-1.156 -2.702,-2.129 -3.844,-1.645 -1.088,0.464 -1.312,2.114 -1.948,4.458 -0.494,1.839 -2.9780002,5.656 -2.9780002,5.656 z"
     id="path483" />
  <path
     style="fill:#231f20;fill-opacity:1;fill-rule:nonzero;stroke:none"
     d="m 34.779497,32.335799 c -0.416,0.495 -2.334,0.812 -3.703,1.661 -0.921,0.578 -3.64,0.948 -4.516,1.588 -0.801,0.588 -1.224,0.782 -2.057,-0.021 -0.49,-0.473 -1.12,-1.708 -0.782,-2.093 0.787,-0.891 1.642,-1.298 2.683,-1.547 1.183,-0.281 4.453,-0.765 5.068,-0.797 1.521,-0.083 2.073,-0.567 2.473,-0.63 0.756,-0.109 0.986,0.151 1.162,0.62 0.333,0.895 -0.328,1.219 -0.328,1.219"
     id="path484" />
  <path
     style="fill:none;stroke:#231f20;stroke-width:0.565977;stroke-linecap:butt;stroke-linejoin:miter;stroke-miterlimit:4;stroke-dasharray:none;stroke-opacity:1"
     d="m 34.779497,32.335799 c -0.416,0.495 -2.334,0.812 -3.703,1.661 -0.921,0.578 -3.64,0.948 -4.516,1.588 -0.801,0.588 -1.224,0.782 -2.057,-0.021 -0.49,-0.473 -1.12,-1.708 -0.782,-2.093 0.787,-0.891 1.642,-1.298 2.683,-1.547 1.183,-0.281 4.453,-0.765 5.068,-0.797 1.521,-0.083 2.073,-0.567 2.473,-0.63 0.756,-0.109 0.986,0.151 1.162,0.62 0.333,0.895 -0.328,1.219 -0.328,1.219 z"
     id="path485" />
  <path
     style="fill:#231f20;fill-opacity:1;fill-rule:nonzero;stroke:none"
     d="m 26.133497,35.063799 c 0.255,1.267 -1.781,1.292 -2.317,1.387 -0.537,0.082 -2.032,0.509 -3.152,0.994 -1.129,0.479 -2.739,0.604 -4.88,1.515 -1.12,0.48 -2.525,0.235 -3.151,-1.432 -0.614,-1.64 0.074,-2.609 1.522,-2.989 1.452,-0.366 2.968,-0.11 4.457,-0.386 1.485,-0.276 2.975,-0.693 4.125,-1.078 1.312,-0.438 2.12,-0.167 2.438,0.193 0.792,0.896 0.958,1.796 0.958,1.796"
     id="path486" />
  <path
     style="fill:none;stroke:#231f20;stroke-width:0.565977;stroke-linecap:butt;stroke-linejoin:miter;stroke-miterlimit:4;stroke-dasharray:none;stroke-opacity:1"
     d="m 26.133497,35.063799 c 0.255,1.267 -1.781,1.292 -2.317,1.387 -0.537,0.082 -2.032,0.509 -3.152,0.994 -1.129,0.479 -2.739,0.604 -4.88,1.515 -1.12,0.48 -2.525,0.235 -3.151,-1.432 -0.614,-1.64 0.074,-2.609 1.522,-2.989 1.452,-0.366 2.968,-0.11 4.457,-0.386 1.485,-0.276 2.975,-0.693 4.125,-1.078 1.312,-0.438 2.12,-0.167 2.438,0.193 0.792,0.896 0.958,1.796 0.958,1.796 z"
     id="path487" />
  <path
     style="fill:#231f20;fill-opacity:1;fill-rule:nonzero;stroke:none"
     d="m 41.431497,30.335799 c -0.579,0.437 -3.683,1.395 -4.402,1.583 -0.646,0.166 -1.614,0.797 -2.36,-0.079 -0.301,-0.364 -0.494,-1.093 -0.484,-1.416 0,-0.251 0.271,-0.437 0.667,-0.505 0.656,-0.099 0.885,0.12 2.156,-0.011 0,0 0.308,0.011 0.849,0.063 1.626,0.172 0.896,0.25 3.298,-0.036 0.176,-0.022 0.317,0.14 0.317,0.254 0.011,0.172 -0.041,0.147 -0.041,0.147"
     id="path488" />
  <path
     style="fill:none;stroke:#231f20;stroke-width:0.565977;stroke-linecap:round;stroke-linejoin:round;stroke-miterlimit:4;stroke-dasharray:none;stroke-opacity:1"
     d="m 41.431497,30.335799 c -0.579,0.437 -3.683,1.395 -4.402,1.583 -0.646,0.166 -1.614,0.797 -2.36,-0.079 -0.301,-0.364 -0.494,-1.093 -0.484,-1.416 0,-0.251 0.271,-0.437 0.667,-0.505 0.656,-0.099 0.885,0.12 2.156,-0.011 0,0 0.308,0.011 0.849,0.063 1.626,0.172 0.896,0.25 3.298,-0.036 0.176,-0.022 0.317,0.14 0.317,0.254 0.011,0.172 -0.041,0.147 -0.041,0.147 z"
     id="path489" />
  <path
     style="fill:#231f20;fill-opacity:1;fill-rule:nonzero;stroke:none"
     d="m 8.1754968,69.876799 c -2.02,-1.016 -2.552,-0.942 -3.042,-0.114 -0.322,0.546 -0.812,0.942 -1.03,1.265 -0.71,1.089 -1.464,3.203 -2.0319997,9.76 -0.126,1.491 -0.312,3.579 -0.464,4.423 -0.228,1.338 2.1459997,0.817 2.2449997,0.292 0.312,-1.683 0.661,-2.824 0.855,-3.407 0.134,-0.412 0.276,-1.161 0.994,-2.656 1.099,-2.281 2.088,-3.485 2.782,-5.485 0.317,-0.927 1.15,-1.422 1,-2.49 -0.147,-1.077 -1.308,-1.588 -1.308,-1.588"
     id="path490" />
  <path
     style="fill:none;stroke:#231f20;stroke-width:0.565977;stroke-linecap:butt;stroke-linejoin:miter;stroke-miterlimit:4;stroke-dasharray:none;stroke-opacity:1"
     d="m 8.1754968,69.876799 c -2.02,-1.016 -2.552,-0.942 -3.042,-0.114 -0.322,0.546 -0.812,0.942 -1.03,1.265 -0.71,1.089 -1.464,3.203 -2.0319997,9.76 -0.126,1.491 -0.312,3.579 -0.464,4.423 -0.228,1.338 2.1459997,0.817 2.2449997,0.292 0.312,-1.683 0.661,-2.824 0.855,-3.407 0.134,-0.412 0.276,-1.161 0.994,-2.656 1.099,-2.281 2.088,-3.485 2.782,-5.485 0.317,-0.927 1.15,-1.422 1,-2.49 -0.147,-1.077 -1.308,-1.588 -1.308,-1.588 z"
     id="path491" />
  <path
     style="fill:#231f20;fill-opacity:1;fill-rule:nonzero;stroke:#231f20;stroke-width:0.565977;stroke-linecap:round;stroke-linejoin:miter;stroke-miterlimit:4;stroke-dasharray:none;stroke-opacity:1"
     d="m 8.9834968,72.240799 c 0.953,-0.953 0.437,-2.91 0.494,-3.229 0.9480002,-4.921 0.8860002,-5.301 1.3390002,-9.093 0.656,-5.49 0.26,-9.35 -2.8190002,-10.662 -2.093,-0.896 -3.686,-0.5 -4.609,0.438 -1.025,1.032 -1.9679997,4.073 -0.093,6.27 l 0.26,1.694 c 0.021,1.161 0.048,1.734 0.016,2.306 -0.058,1.006 -0.058,2.079 -0.058,4.038 0,3.473 1.142,7.14 1.142,7.14 0.005,0.312 0.129,0.568 0.312,0.765"
     id="path492" />
  <path
     style="fill:#fab41d;fill-opacity:1;fill-rule:nonzero;stroke:none"
     d="m 3.3884968,49.694799 c 0.923,-0.938 2.516,-1.328 4.609,-0.438 1.355,0.579 2.1780002,1.667 2.6310002,3.156 0.516,0.896 0.803,1.459 0.479,2.194 -0.026,0.068 -0.047,0.145 -0.067,0.218 0.036,0.588 0.057,1.198 0.036,1.854 l -7.7810002,-0.714 c -1.8749997,-2.197 -0.932,-5.238 0.093,-6.27"
     id="path493" />
  <path
     style="fill:none;stroke:#231f20;stroke-width:0.565977;stroke-linecap:round;stroke-linejoin:round;stroke-miterlimit:4;stroke-dasharray:none;stroke-opacity:1"
     d="m 3.3884968,49.694799 c 0.923,-0.938 2.516,-1.328 4.609,-0.438 1.355,0.579 2.1780002,1.667 2.6310002,3.156 0.516,0.896 0.803,1.459 0.479,2.194 -0.026,0.068 -0.047,0.145 -0.067,0.218 0.036,0.588 0.057,1.198 0.036,1.854 l -7.7810002,-0.714 c -1.8749997,-2.197 -0.932,-5.238 0.093,-6.27 z"
     id="path494" />
  <path
     style="fill:#231f20;fill-opacity:1;fill-rule:nonzero;stroke:none"
     d="m 0.77349708,88.178799 c -0.984,-0.452 -0.29,-1.5 0.37100002,-2.531 0.167,-0.26 0.301,-0.516 0.484,-0.76 0.7449997,-0.969 1.7449997,-1.281 2.7349997,1.547 0.036,0.104 1.317,1.874 1.754,2.317 2.126,2.088 2.631,1.421 2.126,2.088 -0.339,0.448 -0.812,0.272 -1.396,0.043 -0.792,-0.319 -3.495,-1.678 -3.922,-1.855 -0.412,-0.177 -2.15199972,-0.849 -2.15199972,-0.849"
     id="path495" />
  <path
     style="fill:none;stroke:#231f20;stroke-width:0.565977;stroke-linecap:butt;stroke-linejoin:miter;stroke-miterlimit:4;stroke-dasharray:none;stroke-opacity:1"
     d="m 0.77349708,88.178799 c -0.984,-0.452 -0.29,-1.5 0.37100002,-2.531 0.167,-0.26 0.301,-0.516 0.484,-0.76 0.7449997,-0.969 1.7449997,-1.281 2.7349997,1.547 0.036,0.104 1.317,1.874 1.754,2.317 2.126,2.088 2.631,1.421 2.126,2.088 -0.339,0.448 -0.812,0.272 -1.396,0.043 -0.792,-0.319 -3.495,-1.678 -3.922,-1.855 -0.412,-0.177 -2.15199972,-0.849 -2.15199972,-0.849 z"
     id="path497" />
  <path
     style="fill:#fab41d;fill-opacity:1;fill-rule:nonzero;stroke:none"
     d="m 208.4505,25.975799 c 1.833,2.547 3.532,4.141 4.131,4.839 2.078,2.426 4.573,3.249 6.568,1.166 2.348,-2.442 1.562,-5.145 -1.287,-8.182002 -1.203,-1.287 -3.156,-4.75 -3.156,-4.75 -1.224,-3.01 -2.912,-3.964 -3.797,-4.037 -1.527,-0.135 -3.303,-1.703 -4.683,-1.276 -2.547,0.803 -3.047,1.813 -2.911,3 0.135,1.177 0.896,2.224 1.995,4.385 1.052,2.074 3.14,4.855002 3.14,4.855002"
     id="path499" />
  <path
     style="fill:none;stroke:#231f20;stroke-width:0.565977;stroke-linecap:butt;stroke-linejoin:miter;stroke-miterlimit:4;stroke-dasharray:none;stroke-opacity:1"
     d="m 208.4505,25.975799 c 1.833,2.547 3.532,4.141 4.131,4.839 2.078,2.426 4.573,3.249 6.568,1.166 2.348,-2.442 1.562,-5.145 -1.287,-8.182002 -1.203,-1.287 -3.156,-4.75 -3.156,-4.75 -1.224,-3.01 -2.912,-3.964 -3.797,-4.037 -1.527,-0.135 -3.303,-1.703 -4.683,-1.276 -2.547,0.803 -3.047,1.813 -2.911,3 0.135,1.177 0.896,2.224 1.995,4.385 1.052,2.074 3.14,4.855002 3.14,4.855002 z"
     id="path500" />
  <path
     style="fill:#ffffff;fill-opacity:1;fill-rule:nonzero;stroke:none"
     d="m 206.7585,8.3307971 c -0.021,-0.246 1.077,-0.62 0.948,-1.126 -0.136,-0.51 -0.928,-0.505 -2.193,-2.036 l -0.016,-0.021 c -0.891,-1.145 -2.13,-1.787 -3.369,-1.563 -2.047,0.355 -3.307,2.896 -2.834,5.678 0.49,2.7809999 2.542,4.7449999 4.588,4.3959999 1.959,-0.334 3.204,-2.688 2.876,-5.3279999"
     id="path501" />
  <path
     style="fill:none;stroke:#231f20;stroke-width:0.565977;stroke-linecap:butt;stroke-linejoin:miter;stroke-miterlimit:4;stroke-dasharray:none;stroke-opacity:1"
     d="m 206.7585,8.3307971 c -0.021,-0.246 1.077,-0.62 0.948,-1.126 -0.136,-0.51 -0.928,-0.505 -2.193,-2.036 l -0.016,-0.021 c -0.891,-1.145 -2.13,-1.787 -3.369,-1.563 -2.047,0.355 -3.307,2.896 -2.834,5.678 0.49,2.7809999 2.542,4.7449999 4.588,4.3959999 1.959,-0.334 3.204,-2.688 2.876,-5.3279999 z"
     id="path502" />
  <path
     style="fill:#231f20;fill-opacity:1;fill-rule:nonzero;stroke:none"
     d="m 232.9555,23.658797 c -1.609,1.582 -1.713,2.114 -1.082,2.838002 0.416,0.484 0.629,1.078 0.869,1.38 0.792,1.026 2.563,2.422 8.593,5.068 1.36,0.594 3.271,1.452 4.027,1.864 1.197,0.642 1.468,-1.776 0.995,-2.036 -1.495,-0.838 -2.448,-1.532 -2.948,-1.906 -0.339,-0.255 -1.006,-0.626 -2.198,-1.798 -1.802,-1.77 -2.62,-3.093 -4.297,-4.390002 -0.771,-0.604 -0.975,-1.547 -2.036,-1.744 -1.063,-0.214 -1.923,0.724 -1.923,0.724"
     id="path503" />
  <path
     style="fill:none;stroke:#231f20;stroke-width:0.565977;stroke-linecap:butt;stroke-linejoin:miter;stroke-miterlimit:4;stroke-dasharray:none;stroke-opacity:1"
     d="m 232.9555,23.658797 c -1.609,1.582 -1.713,2.114 -1.082,2.838002 0.416,0.484 0.629,1.078 0.869,1.38 0.792,1.026 2.563,2.422 8.593,5.068 1.36,0.594 3.271,1.452 4.027,1.864 1.197,0.642 1.468,-1.776 0.995,-2.036 -1.495,-0.838 -2.448,-1.532 -2.948,-1.906 -0.339,-0.255 -1.006,-0.626 -2.198,-1.798 -1.802,-1.77 -2.62,-3.093 -4.297,-4.390002 -0.771,-0.604 -0.975,-1.547 -2.036,-1.744 -1.063,-0.214 -1.923,0.724 -1.923,0.724 z"
     id="path504" />
  <path
     style="fill:#231f20;fill-opacity:1;fill-rule:nonzero;stroke:#231f20;stroke-width:0.565977;stroke-linecap:round;stroke-linejoin:round;stroke-miterlimit:4;stroke-dasharray:none;stroke-opacity:1"
     d="m 235.4555,23.287797 c -1.12,-0.869 -3.036,0.115 -3.369,0.125 -5.016,0.131 -5.375,0.271 -9.172,0.642 -5.511,0.53 -9.193,1.744 -9.828,5.036002 -0.412,2.229 0.312,3.702 1.421,4.406 1.235,0.776 4.402,1.047 6.147,-1.25 l 1.604,-0.61 c 1.124,-0.276 1.687,-0.421 2.249,-0.52 0.984,-0.146 2.042,-0.386 3.954,-0.802 3.396,-0.746 6.74,-2.636 6.74,-2.636 0.301,-0.072 0.52,-0.25 0.677,-0.474"
     id="path505" />
  <path
     style="fill:#fab41d;fill-opacity:1;fill-rule:nonzero;stroke:none"
     d="m 212.9775,29.063799 c 0.5,-2.599 2.905,-3.891002 6.604,-4.567002 l 0.942,7.760002 c -1.75,2.292 -4.921,2.006 -6.15,1.224 -1.115,-0.708 -1.824,-2.188 -1.396,-4.417"
     id="path506" />
  <path
     style="fill:none;stroke:#231f20;stroke-width:0.565977;stroke-linecap:butt;stroke-linejoin:miter;stroke-miterlimit:4;stroke-dasharray:none;stroke-opacity:1"
     d="m 212.9775,29.063799 c 0.5,-2.599 2.905,-3.891002 6.604,-4.567002 l 0.942,7.760002 c -1.75,2.292 -4.921,2.006 -6.15,1.224 -1.115,-0.708 -1.824,-2.188 -1.396,-4.417 z"
     id="path507" />
  <path
     style="fill:#231f20;fill-opacity:1;fill-rule:nonzero;stroke:none"
     d="m 223.5075,5.2207971 c -0.192,0.604 -1.853,1.624 -2.801,2.922 -0.641,0.874 -3.027,2.2399999 -3.604,3.1559999 -0.527,0.849 -0.839,1.182 -1.901,0.75 -0.642,-0.256 -1.688,-1.161 -1.516,-1.646 0.401,-1.1189999 1.03,-1.8179999 1.901,-2.4379999 0.995,-0.702 3.849,-2.38 4.401,-2.634 1.386,-0.647 1.719,-1.303 2.062,-1.511 0.666,-0.385 0.969,-0.224 1.313,0.14 0.651,0.715 0.145,1.261 0.145,1.261"
     id="path508" />
  <path
     style="fill:none;stroke:#231f20;stroke-width:0.565977;stroke-linecap:butt;stroke-linejoin:miter;stroke-miterlimit:4;stroke-dasharray:none;stroke-opacity:1"
     d="m 223.5075,5.2207971 c -0.192,0.604 -1.853,1.624 -2.801,2.922 -0.641,0.874 -3.027,2.2399999 -3.604,3.1559999 -0.527,0.849 -0.839,1.182 -1.901,0.75 -0.642,-0.256 -1.688,-1.161 -1.516,-1.646 0.401,-1.1189999 1.03,-1.8179999 1.901,-2.4379999 0.995,-0.702 3.849,-2.38 4.401,-2.634 1.386,-0.647 1.719,-1.303 2.062,-1.511 0.666,-0.385 0.969,-0.224 1.313,0.14 0.651,0.715 0.145,1.261 0.145,1.261 z"
     id="path509" />
  <path
     style="fill:#231f20;fill-opacity:1;fill-rule:nonzero;stroke:none"
     d="m 216.4305,11.235797 c 0.681,1.1 -1.215,1.849 -1.677,2.12 -0.475,0.271 -1.724,1.199 -2.599,2.052 -0.885,0.849 -2.349,1.532 -4.021,3.141 -0.886,0.848 -2.282,1.115 -3.454,-0.218 -1.161,-1.319 -0.858,-2.47 0.366,-3.328 1.218,-0.871 2.733,-1.158 4.025,-1.948 1.292,-0.776 2.536,-1.699 3.475,-2.475 1.072,-0.8689999 1.926,-0.9049999 2.342,-0.6769999 1.058,0.5519999 1.543,1.3329999 1.543,1.3329999"
     id="path510" />
  <path
     style="fill:none;stroke:#231f20;stroke-width:0.565977;stroke-linecap:butt;stroke-linejoin:miter;stroke-miterlimit:4;stroke-dasharray:none;stroke-opacity:1"
     d="m 216.4305,11.235797 c 0.681,1.1 -1.215,1.849 -1.677,2.12 -0.475,0.271 -1.724,1.199 -2.599,2.052 -0.885,0.849 -2.349,1.532 -4.021,3.141 -0.886,0.848 -2.282,1.115 -3.454,-0.218 -1.161,-1.319 -0.858,-2.47 0.366,-3.328 1.218,-0.871 2.733,-1.158 4.025,-1.948 1.292,-0.776 2.536,-1.699 3.475,-2.475 1.072,-0.8689999 1.926,-0.9049999 2.342,-0.6769999 1.058,0.5519999 1.543,1.3329999 1.543,1.3329999 z"
     id="path511" />
  <path
     style="fill:#231f20;fill-opacity:1;fill-rule:nonzero;stroke:none"
     d="m 228.0815,0.53279709 c -0.298,0.68300001 -2.542,3.02700001 -3.084,3.53600001 -0.479,0.454 -1.02,1.475 -2.099,1.052 -0.443,-0.145 -0.963,-0.697 -1.109,-0.978 -0.13,-0.23 0.032,-0.516 0.344,-0.755 0.516,-0.428 0.833,-0.344 1.869,-1.073 0,0 0.276,-0.142 0.787,-0.344 1.494,-0.646 0.89,-0.224 2.865,-1.63500001 0.135,-0.105 0.339,-0.037 0.395,0.057 0.094,0.162 0.032,0.14 0.032,0.14"
     id="path512" />
  <path
     style="fill:none;stroke:#231f20;stroke-width:0.565977;stroke-linecap:round;stroke-linejoin:round;stroke-miterlimit:4;stroke-dasharray:none;stroke-opacity:1"
     d="m 228.0815,0.53279709 c -0.298,0.68300001 -2.542,3.02700001 -3.084,3.53600001 -0.479,0.454 -1.02,1.475 -2.099,1.052 -0.443,-0.145 -0.963,-0.697 -1.109,-0.978 -0.13,-0.23 0.032,-0.516 0.344,-0.755 0.516,-0.428 0.833,-0.344 1.869,-1.073 0,0 0.276,-0.142 0.787,-0.344 1.494,-0.646 0.89,-0.224 2.865,-1.63500001 0.135,-0.105 0.339,-0.037 0.395,0.057 0.094,0.162 0.032,0.14 0.032,0.14 z"
     id="path513" />
  <path
     style="fill:#231f20;fill-opacity:1;fill-rule:nonzero;stroke:none"
     d="m 247.0455,36.715799 c -1.319,0.328 -1.882,-0.485 -1.782,-1.521 0.036,-0.307 -0.266,-0.604 -0.214,-0.907 0.13,-0.692 1.594,-1.629 2.698,-0.604 0.074,0.068 0.812,0.428 1.328,0.771 1,0.693 2.667,2.548 2.495,5.245 -0.079,1.265 -0.817,0.984 -0.943,0.464 -0.385,-1.667 -0.749,-1.74 -1.016,-2.141 -0.88,-1.359 -2.566,-1.307 -2.566,-1.307"
     id="path514" />
  <path
     style="fill:none;stroke:#231f20;stroke-width:0.332927;stroke-linecap:butt;stroke-linejoin:miter;stroke-miterlimit:4;stroke-dasharray:none;stroke-opacity:1"
     d="m 247.0455,36.715799 c -1.319,0.328 -1.882,-0.485 -1.782,-1.521 0.036,-0.307 -0.266,-0.604 -0.214,-0.907 0.13,-0.692 1.594,-1.629 2.698,-0.604 0.074,0.068 0.812,0.428 1.328,0.771 1,0.693 2.667,2.548 2.495,5.245 -0.079,1.265 -0.817,0.984 -0.943,0.464 -0.385,-1.667 -0.749,-1.74 -1.016,-2.141 -0.88,-1.359 -2.566,-1.307 -2.566,-1.307 z"
     id="path515" />
  <path
     style="fill:#fab41d;fill-opacity:1;fill-rule:nonzero;stroke:none"
     d="m 166.0405,1.1637971 c -3.131,0.145 -5.402,0.708 -6.314,0.828 -3.161,0.421 -5.213,2.063 -4.552,4.869 0.771,3.3029999 3.464,4.1149999 7.563,3.3859999 1.729,-0.3119999 5.703,-0.058 5.703,-0.058 3.193,0.61 4.338,0.672 6.772,-1.0299999 1.249,-0.88 1.905,-1.798 2.301,-3.188 0.713,-2.574 0.141,-3.542 -0.927,-4.078 -1.062,-0.526 -2.354,-0.464 -4.761,-0.714 -2.317,-0.25000001 -5.785,-0.015 -5.785,-0.015"
     id="path516" />
  <path
     style="fill:none;stroke:#231f20;stroke-width:0.565977;stroke-linecap:butt;stroke-linejoin:miter;stroke-miterlimit:4;stroke-dasharray:none;stroke-opacity:1"
     d="m 166.0405,1.1637971 c -3.131,0.145 -5.402,0.708 -6.314,0.828 -3.161,0.421 -5.213,2.063 -4.552,4.869 0.771,3.3029999 3.464,4.1149999 7.563,3.3859999 1.729,-0.3119999 5.703,-0.058 5.703,-0.058 3.193,0.61 4.338,0.672 6.772,-1.0299999 1.249,-0.88 1.905,-1.798 2.301,-3.188 0.713,-2.574 0.141,-3.542 -0.927,-4.078 -1.062,-0.526 -2.354,-0.464 -4.761,-0.714 -2.317,-0.25000001 -5.785,-0.015 -5.785,-0.015 z"
     id="path517" />
  <path
     style="fill:#ffffff;fill-opacity:1;fill-rule:nonzero;stroke:none"
     d="m 181.7585,9.3607971 c 0.219,0.12 -0.068,1.2399999 0.427,1.4119999 0.495,0.162 0.932,-0.505 2.901,-0.729 l 0.026,-0.005 c 1.448,-0.1199999 2.657,-0.8119999 3.146,-1.9699999 0.812,-1.91 -0.63,-4.353 -3.218,-5.462 -2.6,-1.115 -5.366,-0.464 -6.188,1.437 -0.787,1.828 0.516,4.156 2.906,5.317"
     id="path518" />
  <path
     style="fill:none;stroke:#231f20;stroke-width:0.565977;stroke-linecap:butt;stroke-linejoin:miter;stroke-miterlimit:4;stroke-dasharray:none;stroke-opacity:1"
     d="m 181.7585,9.3607971 c 0.219,0.12 -0.068,1.2399999 0.427,1.4119999 0.495,0.162 0.932,-0.505 2.901,-0.729 l 0.026,-0.005 c 1.448,-0.1199999 2.657,-0.8119999 3.146,-1.9699999 0.812,-1.91 -0.63,-4.353 -3.218,-5.462 -2.6,-1.115 -5.366,-0.464 -6.188,1.437 -0.787,1.828 0.516,4.156 2.906,5.317 z"
     id="path519" />
  <path
     style="fill:#231f20;fill-opacity:1;fill-rule:nonzero;stroke:none"
     d="m 170.8785,22.522797 c 0.604,-2.178 0.422,-2.683 -0.485,-2.995 -0.604,-0.213 -1.088,-0.609 -1.448,-0.755 -1.203,-0.489 -3.437,-0.808 -9.979,-0.052 -1.469,0.167 -3.557,0.386 -4.417,0.406 -1.353,0.052 -0.375,2.276 0.167,2.261 1.714,-0.027 2.886,0.099 3.5,0.167 0.428,0.052 1.188,0.036 2.808,0.442 2.453,0.63 3.822,1.359 5.921,1.64 0.975,0.136 1.625,0.844 2.641,0.48 1.031,-0.349 1.292,-1.594 1.292,-1.594"
     id="path520" />
  <path
     style="fill:none;stroke:#231f20;stroke-width:0.565977;stroke-linecap:butt;stroke-linejoin:miter;stroke-miterlimit:4;stroke-dasharray:none;stroke-opacity:1"
     d="m 170.8785,22.522797 c 0.604,-2.178 0.422,-2.683 -0.485,-2.995 -0.604,-0.213 -1.088,-0.609 -1.448,-0.755 -1.203,-0.489 -3.437,-0.808 -9.979,-0.052 -1.469,0.167 -3.557,0.386 -4.417,0.406 -1.353,0.052 -0.375,2.276 0.167,2.261 1.714,-0.027 2.886,0.099 3.5,0.167 0.428,0.052 1.188,0.036 2.808,0.442 2.453,0.63 3.822,1.359 5.921,1.64 0.975,0.136 1.625,0.844 2.641,0.48 1.031,-0.349 1.292,-1.594 1.292,-1.594 z"
     id="path521" />
  <path
     style="fill:#231f20;fill-opacity:1;fill-rule:nonzero;stroke:#231f20;stroke-width:0.565977;stroke-linecap:round;stroke-linejoin:round;stroke-miterlimit:4;stroke-dasharray:none;stroke-opacity:1"
     d="m 171.1025,21.392797 c 0.416,-1.349 -1.188,-2.792 -1.313,-3.1 -1.911,-4.64 -2.172,-4.921 -3.864,-8.3479999 -2.459,-4.953 -4.901,-7.969 -8.204,-7.385 -2.233,0.405 -3.348,1.609 -3.615,2.891 -0.285,1.432 0.584,4.489 3.355,5.3059999 l 1.145,1.276 c 0.658,0.954 0.991,1.427 1.282,1.922 0.494,0.865 1.089,1.766 2.166,3.406 1.902,2.912 4.86,5.355 4.86,5.355 0.172,0.26 0.416,0.401 0.678,0.468"
     id="path522" />
  <path
     style="fill:#fab41d;fill-opacity:1;fill-rule:nonzero;stroke:none"
     d="m 154.0765,5.3247971 c 0.265,-1.297 1.39,-2.489 3.63,-2.88 2.604,-0.458 4.667,1.334 6.62,4.547 l -6.917,3.6399999 c -2.765,-0.8169999 -3.631,-3.8799999 -3.333,-5.3069999"
     id="path523" />
  <path
     style="fill:none;stroke:#231f20;stroke-width:0.565977;stroke-linecap:butt;stroke-linejoin:miter;stroke-miterlimit:4;stroke-dasharray:none;stroke-opacity:1"
     d="m 154.0765,5.3247971 c 0.265,-1.297 1.39,-2.489 3.63,-2.88 2.604,-0.458 4.667,1.334 6.62,4.547 l -6.917,3.6399999 c -2.765,-0.8169999 -3.631,-3.8799999 -3.333,-5.3069999 z"
     id="path524" />
  <path
     style="fill:#231f20;fill-opacity:1;fill-rule:nonzero;stroke:none"
     d="m 161.2585,20.142797 c 0.036,-0.64 1.396,-2.042 1.99,-3.536 0.401,-1.011 2.364,-2.923 2.688,-3.959 0.301,-0.953 0.525,-1.355 1.661,-1.197 0.681,0.088 1.921,0.702 1.88,1.213 -0.104,1.181 -0.552,2.02 -1.235,2.833 -0.786,0.938 -3.13,3.271 -3.604,3.662 -1.177,0.968 -1.333,1.681 -1.62,1.973 -0.541,0.537 -0.88,0.459 -1.302,0.193 -0.812,-0.532 -0.458,-1.182 -0.458,-1.182"
     id="path525" />
  <path
     style="fill:none;stroke:#231f20;stroke-width:0.565977;stroke-linecap:butt;stroke-linejoin:miter;stroke-miterlimit:4;stroke-dasharray:none;stroke-opacity:1"
     d="m 161.2585,20.142797 c 0.036,-0.64 1.396,-2.042 1.99,-3.536 0.401,-1.011 2.364,-2.923 2.688,-3.959 0.301,-0.953 0.525,-1.355 1.661,-1.197 0.681,0.088 1.921,0.702 1.88,1.213 -0.104,1.181 -0.552,2.02 -1.235,2.833 -0.786,0.938 -3.13,3.271 -3.604,3.662 -1.177,0.968 -1.333,1.681 -1.62,1.973 -0.541,0.537 -0.88,0.459 -1.302,0.193 -0.812,-0.532 -0.458,-1.182 -0.458,-1.182 z"
     id="path526" />
  <path
     style="fill:#231f20;fill-opacity:1;fill-rule:nonzero;stroke:none"
     d="m 166.6125,12.543797 c -0.938,-0.896 0.709,-2.089 1.089,-2.469 0.391,-0.3859999 1.375,-1.5939999 2.005,-2.6349999 0.64,-1.047 1.886,-2.079 3.11,-4.057 0.64,-1.038 1.921,-1.647 3.39,-0.647 1.458,0.985 1.454,2.177 0.484,3.313 -0.964,1.146 -2.36,1.807 -3.412,2.896 -1.057,1.0719999 -2.03,2.2759999 -2.744,3.2659999 -0.822,1.109 -1.636,1.353 -2.098,1.24 -1.163,-0.272 -1.824,-0.907 -1.824,-0.907"
     id="path527" />
  <path
     style="fill:none;stroke:#231f20;stroke-width:0.565977;stroke-linecap:butt;stroke-linejoin:miter;stroke-miterlimit:4;stroke-dasharray:none;stroke-opacity:1"
     d="m 166.6125,12.543797 c -0.938,-0.896 0.709,-2.089 1.089,-2.469 0.391,-0.3859999 1.375,-1.5939999 2.005,-2.6349999 0.64,-1.047 1.886,-2.079 3.11,-4.057 0.64,-1.038 1.921,-1.647 3.39,-0.647 1.458,0.985 1.454,2.177 0.484,3.313 -0.964,1.146 -2.36,1.807 -3.412,2.896 -1.057,1.0719999 -2.03,2.2759999 -2.744,3.2659999 -0.822,1.109 -1.636,1.353 -2.098,1.24 -1.163,-0.272 -1.824,-0.907 -1.824,-0.907 z"
     id="path528" />
  <path
     style="fill:#231f20;fill-opacity:1;fill-rule:nonzero;stroke:none"
     d="m 155.9365,22.048797 c 0.514,-0.537 3.437,-1.953 4.124,-2.245 0.609,-0.26 1.469,-1.031 2.338,-0.26 0.36,0.292 0.651,0.989 0.694,1.301 0.041,0.262 -0.21,0.475 -0.584,0.595 -0.63,0.213 -0.902,0.025 -2.126,0.353 0,0 -0.306,0.038 -0.858,0.052 -1.626,0.084 -0.912,-0.098 -3.251,0.538 -0.167,0.052 -0.328,-0.084 -0.353,-0.194 -0.032,-0.181 0.016,-0.14 0.016,-0.14"
     id="path529" />
  <path
     style="fill:none;stroke:#231f20;stroke-width:0.565977;stroke-linecap:round;stroke-linejoin:round;stroke-miterlimit:4;stroke-dasharray:none;stroke-opacity:1"
     d="m 155.9365,22.048797 c 0.514,-0.537 3.437,-1.953 4.124,-2.245 0.609,-0.26 1.469,-1.031 2.338,-0.26 0.36,0.292 0.651,0.989 0.694,1.301 0.041,0.262 -0.21,0.475 -0.584,0.595 -0.63,0.213 -0.902,0.025 -2.126,0.353 0,0 -0.306,0.038 -0.858,0.052 -1.626,0.084 -0.912,-0.098 -3.251,0.538 -0.167,0.052 -0.328,-0.084 -0.353,-0.194 -0.032,-0.181 0.016,-0.14 0.016,-0.14 z"
     id="path530" />
  <path
     style="fill:#231f20;fill-opacity:1;fill-rule:nonzero;stroke:none"
     d="m 151.7125,19.308797 c 0.697,-1.156 1.676,-0.984 2.333,-0.182 0.197,0.24 0.619,0.234 0.796,0.49 0.396,0.572 0.027,2.28 -1.473,2.328 -0.099,0.006 -0.88,0.282 -1.486,0.4 -1.192,0.215 -3.686,0.09 -5.473,-1.926 -0.849,-0.954 -0.125,-1.282 0.333,-1 1.454,0.901 1.76,0.693 2.235,0.786 1.583,0.339 2.735,-0.896 2.735,-0.896"
     id="path531" />
  <path
     style="fill:none;stroke:#231f20;stroke-width:0.332927;stroke-linecap:butt;stroke-linejoin:miter;stroke-miterlimit:4;stroke-dasharray:none;stroke-opacity:1"
     d="m 151.7125,19.308797 c 0.697,-1.156 1.676,-0.984 2.333,-0.182 0.197,0.24 0.619,0.234 0.796,0.49 0.396,0.572 0.027,2.28 -1.473,2.328 -0.099,0.006 -0.88,0.282 -1.486,0.4 -1.192,0.215 -3.686,0.09 -5.473,-1.926 -0.849,-0.954 -0.125,-1.282 0.333,-1 1.454,0.901 1.76,0.693 2.235,0.786 1.583,0.339 2.735,-0.896 2.735,-0.896 z"
     id="path532" />
  <path
     style="fill:#fab41d;fill-opacity:1;fill-rule:nonzero;stroke:none"
     d="m 67.185497,24.620797 c -3.13,0.147 -5.396,0.704 -6.312,0.83 -3.161,0.421002 -5.213,2.056002 -4.552,4.869002 0.771,3.297 3.463,4.115 7.562,3.385 1.729,-0.317 5.709,-0.062 5.709,-0.062 3.186,0.614 4.333,0.677 6.765,-1.031 1.249,-0.881 1.912,-1.792 2.303,-3.183 0.718,-2.578 0.14,-3.546 -0.928,-4.078002 -1.063,-0.531 -2.35,-0.463 -4.76,-0.719 -2.312,-0.249 -5.787,-0.011 -5.787,-0.011"
     id="path533" />
  <path
     style="fill:none;stroke:#231f20;stroke-width:0.565977;stroke-linecap:butt;stroke-linejoin:miter;stroke-miterlimit:4;stroke-dasharray:none;stroke-opacity:1"
     d="m 67.185497,24.620797 c -3.13,0.147 -5.396,0.704 -6.312,0.83 -3.161,0.421002 -5.213,2.056002 -4.552,4.869002 0.771,3.297 3.463,4.115 7.562,3.385 1.729,-0.317 5.709,-0.062 5.709,-0.062 3.186,0.614 4.333,0.677 6.765,-1.031 1.249,-0.881 1.912,-1.792 2.303,-3.183 0.718,-2.578 0.14,-3.546 -0.928,-4.078002 -1.063,-0.531 -2.35,-0.463 -4.76,-0.719 -2.312,-0.249 -5.787,-0.011 -5.787,-0.011 z"
     id="path534" />
  <path
     style="fill:#ffffff;fill-opacity:1;fill-rule:nonzero;stroke:none"
     d="m 82.904497,32.819799 c 0.218,0.12 -0.068,1.235 0.426,1.407 0.5,0.166 0.934,-0.5 2.907,-0.73 h 0.021 c 1.448,-0.125 2.656,-0.818 3.146,-1.974 0.812,-1.911 -0.631,-4.35 -3.219,-5.463 -2.599,-1.115002 -5.36,-0.459002 -6.188,1.443 -0.781,1.822 0.516,4.15 2.907,5.317"
     id="path535" />
  <path
     style="fill:none;stroke:#231f20;stroke-width:0.565977;stroke-linecap:butt;stroke-linejoin:miter;stroke-miterlimit:4;stroke-dasharray:none;stroke-opacity:1"
     d="m 82.904497,32.819799 c 0.218,0.12 -0.068,1.235 0.426,1.407 0.5,0.166 0.934,-0.5 2.907,-0.73 h 0.021 c 1.448,-0.125 2.656,-0.818 3.146,-1.974 0.812,-1.911 -0.631,-4.35 -3.219,-5.463 -2.599,-1.115002 -5.36,-0.459002 -6.188,1.443 -0.781,1.822 0.516,4.15 2.907,5.317 z"
     id="path536" />
  <path
     style="fill:#231f20;fill-opacity:1;fill-rule:nonzero;stroke:none"
     d="m 72.024497,45.980799 c 0.604,-2.182 0.421,-2.688 -0.484,-2.994 -0.604,-0.214 -1.09,-0.615 -1.448,-0.756 -1.199,-0.495 -3.432,-0.807 -9.975,-0.058 -1.473,0.172 -3.562,0.387 -4.421,0.412 -1.355,0.047 -0.369,2.271 0.167,2.26 1.713,-0.025 2.885,0.095 3.505,0.163 0.421,0.052 1.181,0.036 2.807,0.447 2.448,0.63 3.822,1.36 5.917,1.636 0.979,0.136 1.624,0.849 2.645,0.484 1.027,-0.354 1.287,-1.594 1.287,-1.594"
     id="path537" />
  <path
     style="fill:none;stroke:#231f20;stroke-width:0.565977;stroke-linecap:butt;stroke-linejoin:miter;stroke-miterlimit:4;stroke-dasharray:none;stroke-opacity:1"
     d="m 72.024497,45.980799 c 0.604,-2.182 0.421,-2.688 -0.484,-2.994 -0.604,-0.214 -1.09,-0.615 -1.448,-0.756 -1.199,-0.495 -3.432,-0.807 -9.975,-0.058 -1.473,0.172 -3.562,0.387 -4.421,0.412 -1.355,0.047 -0.369,2.271 0.167,2.26 1.713,-0.025 2.885,0.095 3.505,0.163 0.421,0.052 1.181,0.036 2.807,0.447 2.448,0.63 3.822,1.36 5.917,1.636 0.979,0.136 1.624,0.849 2.645,0.484 1.027,-0.354 1.287,-1.594 1.287,-1.594 z"
     id="path538" />
  <path
     style="fill:#231f20;fill-opacity:1;fill-rule:nonzero;stroke:#231f20;stroke-width:0.565977;stroke-linecap:round;stroke-linejoin:round;stroke-miterlimit:4;stroke-dasharray:none;stroke-opacity:1"
     d="m 72.253497,44.850799 c 0.416,-1.354 -1.193,-2.796 -1.317,-3.104 -1.912,-4.64 -2.172,-4.922 -3.865,-8.35 -2.459,-4.952 -4.902,-7.962002 -8.203,-7.385 -2.235,0.412 -3.349,1.609 -3.615,2.891 -0.286,1.438 0.588,4.49 3.359,5.308 l 1.141,1.281 c 0.656,0.953 0.99,1.427 1.282,1.916 0.494,0.865 1.088,1.765 2.166,3.407 1.906,2.912 4.859,5.358 4.859,5.358 0.172,0.256 0.417,0.396 0.683,0.47"
     id="path539" />
  <path
     style="fill:#fab41d;fill-opacity:1;fill-rule:nonzero;stroke:none"
     d="m 55.221497,28.778799 c 0.267,-1.292 1.396,-2.486 3.631,-2.876 2.604,-0.458002 4.667,1.328 6.62,4.548 l -6.917,3.634 c -2.766,-0.817 -3.63,-3.88 -3.334,-5.306"
     id="path540" />
  <path
     style="fill:none;stroke:#231f20;stroke-width:0.565977;stroke-linecap:butt;stroke-linejoin:miter;stroke-miterlimit:4;stroke-dasharray:none;stroke-opacity:1"
     d="m 55.221497,28.778799 c 0.267,-1.292 1.396,-2.486 3.631,-2.876 2.604,-0.458002 4.667,1.328 6.62,4.548 l -6.917,3.634 c -2.766,-0.817 -3.63,-3.88 -3.334,-5.306 z"
     id="path541" />
  <path
     style="fill:#231f20;fill-opacity:1;fill-rule:nonzero;stroke:none"
     d="m 62.409497,43.600799 c 0.031,-0.646 1.391,-2.041 1.984,-3.537 0.402,-1.009 2.371,-2.927 2.694,-3.963 0.296,-0.948 0.52,-1.349 1.656,-1.198 0.682,0.089 1.921,0.709 1.879,1.214 -0.104,1.182 -0.552,2.02 -1.234,2.838 -0.785,0.933 -3.129,3.266 -3.599,3.657 -1.182,0.968 -1.338,1.681 -1.62,1.973 -0.546,0.542 -0.885,0.459 -1.306,0.194 -0.808,-0.527 -0.454,-1.178 -0.454,-1.178"
     id="path542" />
  <path
     style="fill:none;stroke:#231f20;stroke-width:0.565977;stroke-linecap:butt;stroke-linejoin:miter;stroke-miterlimit:4;stroke-dasharray:none;stroke-opacity:1"
     d="m 62.409497,43.600799 c 0.031,-0.646 1.391,-2.041 1.984,-3.537 0.402,-1.009 2.371,-2.927 2.694,-3.963 0.296,-0.948 0.52,-1.349 1.656,-1.198 0.682,0.089 1.921,0.709 1.879,1.214 -0.104,1.182 -0.552,2.02 -1.234,2.838 -0.785,0.933 -3.129,3.266 -3.599,3.657 -1.182,0.968 -1.338,1.681 -1.62,1.973 -0.546,0.542 -0.885,0.459 -1.306,0.194 -0.808,-0.527 -0.454,-1.178 -0.454,-1.178 z"
     id="path543" />
  <path
     style="fill:#231f20;fill-opacity:1;fill-rule:nonzero;stroke:none"
     d="m 67.759497,35.996799 c -0.938,-0.896 0.708,-2.089 1.088,-2.469 0.39,-0.385 1.374,-1.593 2.005,-2.635 0.645,-1.048 1.89,-2.078 3.114,-4.053 0.64,-1.041002 1.922,-1.651002 3.386,-0.651 1.458,0.984 1.453,2.178 0.484,3.318 -0.958,1.141 -2.354,1.802 -3.411,2.89 -1.057,1.079 -2.032,2.282 -2.745,3.267 -0.823,1.109 -1.635,1.359 -2.099,1.239 -1.161,-0.271 -1.822,-0.906 -1.822,-0.906"
     id="path544" />
  <path
     style="fill:none;stroke:#231f20;stroke-width:0.565977;stroke-linecap:butt;stroke-linejoin:miter;stroke-miterlimit:4;stroke-dasharray:none;stroke-opacity:1"
     d="m 67.759497,35.996799 c -0.938,-0.896 0.708,-2.089 1.088,-2.469 0.39,-0.385 1.374,-1.593 2.005,-2.635 0.645,-1.048 1.89,-2.078 3.114,-4.053 0.64,-1.041002 1.922,-1.651002 3.386,-0.651 1.458,0.984 1.453,2.178 0.484,3.318 -0.958,1.141 -2.354,1.802 -3.411,2.89 -1.057,1.079 -2.032,2.282 -2.745,3.267 -0.823,1.109 -1.635,1.359 -2.099,1.239 -1.161,-0.271 -1.822,-0.906 -1.822,-0.906 z"
     id="path545" />
  <path
     style="fill:#231f20;fill-opacity:1;fill-rule:nonzero;stroke:none"
     d="m 57.081497,45.502799 c 0.516,-0.538 3.443,-1.954 4.126,-2.24 0.614,-0.266 1.468,-1.032 2.338,-0.26 0.359,0.285 0.651,0.984 0.692,1.301 0.047,0.256 -0.208,0.469 -0.577,0.589 -0.636,0.219 -0.907,0.031 -2.131,0.354 0,0 -0.308,0.041 -0.854,0.052 -1.63,0.084 -0.916,-0.099 -3.255,0.541 -0.161,0.048 -0.323,-0.083 -0.355,-0.192 -0.03,-0.183 0.016,-0.145 0.016,-0.145"
     id="path546" />
  <path
     style="fill:none;stroke:#231f20;stroke-width:0.565977;stroke-linecap:round;stroke-linejoin:round;stroke-miterlimit:4;stroke-dasharray:none;stroke-opacity:1"
     d="m 57.081497,45.502799 c 0.516,-0.538 3.443,-1.954 4.126,-2.24 0.614,-0.266 1.468,-1.032 2.338,-0.26 0.359,0.285 0.651,0.984 0.692,1.301 0.047,0.256 -0.208,0.469 -0.577,0.589 -0.636,0.219 -0.907,0.031 -2.131,0.354 0,0 -0.308,0.041 -0.854,0.052 -1.63,0.084 -0.916,-0.099 -3.255,0.541 -0.161,0.048 -0.323,-0.083 -0.355,-0.192 -0.03,-0.183 0.016,-0.145 0.016,-0.145 z"
     id="path547" />
  <path
     style="fill:#231f20;fill-opacity:1;fill-rule:nonzero;stroke:none"
     d="m 52.863497,42.767799 c 0.692,-1.156 1.672,-0.989 2.333,-0.188 0.192,0.24 0.615,0.235 0.792,0.489 0.395,0.579 0.031,2.282 -1.475,2.334 -0.098,0 -0.88,0.281 -1.484,0.396 -1.193,0.218 -3.688,0.094 -5.474,-1.927 -0.848,-0.953 -0.124,-1.281 0.338,-0.995 1.448,0.896 1.756,0.692 2.23,0.787 1.584,0.333 2.74,-0.896 2.74,-0.896"
     id="path548" />
  <path
     style="fill:none;stroke:#231f20;stroke-width:0.332927;stroke-linecap:butt;stroke-linejoin:miter;stroke-miterlimit:4;stroke-dasharray:none;stroke-opacity:1"
     d="m 52.863497,42.767799 c 0.692,-1.156 1.672,-0.989 2.333,-0.188 0.192,0.24 0.615,0.235 0.792,0.489 0.395,0.579 0.031,2.282 -1.475,2.334 -0.098,0 -0.88,0.281 -1.484,0.396 -1.193,0.218 -3.688,0.094 -5.474,-1.927 -0.848,-0.953 -0.124,-1.281 0.338,-0.995 1.448,0.896 1.756,0.692 2.23,0.787 1.584,0.333 2.74,-0.896 2.74,-0.896 z"
     id="path549" />
  <path
     style="fill:#fab41d;fill-opacity:1;fill-rule:nonzero;stroke:none"
     d="m 114.4565,29.126799 c 2.781,1.448 5.032,2.1 5.874,2.458 2.948,1.224 5.548,0.834 6.386,-1.926 0.996,-3.24 -0.927,-5.303002 -4.838,-6.724002 -1.657,-0.599 -4.964,-2.818 -4.964,-2.818 -2.448,-2.125 -3.412,-2.756 -6.369,-2.5 -1.527,0.13 -2.552,0.588 -3.595,1.594 -1.91,1.869 -1.896,2.994 -1.244,3.994 0.651,0.984 1.802,1.579 3.76,3.011002 1.875,1.375 4.99,2.911 4.99,2.911"
     id="path550" />
  <path
     style="fill:none;stroke:#231f20;stroke-width:0.565977;stroke-linecap:butt;stroke-linejoin:miter;stroke-miterlimit:4;stroke-dasharray:none;stroke-opacity:1"
     d="m 114.4565,29.126799 c 2.781,1.448 5.032,2.1 5.874,2.458 2.948,1.224 5.548,0.834 6.386,-1.926 0.996,-3.24 -0.927,-5.303002 -4.838,-6.724002 -1.657,-0.599 -4.964,-2.818 -4.964,-2.818 -2.448,-2.125 -3.412,-2.756 -6.369,-2.5 -1.527,0.13 -2.552,0.588 -3.595,1.594 -1.91,1.869 -1.896,2.994 -1.244,3.994 0.651,0.984 1.802,1.579 3.76,3.011002 1.875,1.375 4.99,2.911 4.99,2.911 z"
     id="path551" />
  <path
     style="fill:#ffffff;fill-opacity:1;fill-rule:nonzero;stroke:none"
     d="m 104.9885,14.147797 c -0.131,-0.213 0.676,-1.036 0.333,-1.432 -0.349,-0.391 -1.057,-0.032 -2.876,-0.828 l -0.02,-0.011 c -1.319,-0.62 -2.708998,-0.63 -3.708998,0.126 -1.667,1.244 -1.646,4.077 0.037,6.342 1.686998,2.267 4.404998,3.09 6.071998,1.86 1.595,-1.188 1.641,-3.854 0.163,-6.057"
     id="path552" />
  <path
     style="fill:none;stroke:#231f20;stroke-width:0.565977;stroke-linecap:butt;stroke-linejoin:miter;stroke-miterlimit:4;stroke-dasharray:none;stroke-opacity:1"
     d="m 104.9885,14.147797 c -0.131,-0.213 0.676,-1.036 0.333,-1.432 -0.349,-0.391 -1.057,-0.032 -2.876,-0.828 l -0.02,-0.011 c -1.319,-0.62 -2.708998,-0.63 -3.708998,0.126 -1.667,1.244 -1.646,4.077 0.037,6.342 1.686998,2.267 4.404998,3.09 6.071998,1.86 1.595,-1.188 1.641,-3.854 0.163,-6.057 z"
     id="path553" />
  <path
     style="fill:#231f20;fill-opacity:1;fill-rule:nonzero;stroke:none"
     d="m 121.0025,8.2307971 c -1.614,1.578 -1.713,2.1099999 -1.088,2.8329999 0.422,0.491 0.635,1.073 0.875,1.381 0.792,1.026 2.568,2.422 8.599,5.058 1.36,0.593 3.276,1.452 4.032,1.858 1.192,0.642 1.462,-1.776 0.989,-2.036 -1.495,-0.838 -2.448,-1.526 -2.948,-1.901 -0.344,-0.255 -1.005,-0.625 -2.203,-1.792 -1.802,-1.776 -2.625,-3.093 -4.302,-4.3909999 -0.771,-0.604 -0.974,-1.546 -2.036,-1.744 -1.068,-0.209 -1.918,0.734 -1.918,0.734"
     id="path554" />
  <path
     style="fill:none;stroke:#231f20;stroke-width:0.565977;stroke-linecap:butt;stroke-linejoin:miter;stroke-miterlimit:4;stroke-dasharray:none;stroke-opacity:1"
     d="m 121.0025,8.2307971 c -1.614,1.578 -1.713,2.1099999 -1.088,2.8329999 0.422,0.491 0.635,1.073 0.875,1.381 0.792,1.026 2.568,2.422 8.599,5.058 1.36,0.593 3.276,1.452 4.032,1.858 1.192,0.642 1.462,-1.776 0.989,-2.036 -1.495,-0.838 -2.448,-1.526 -2.948,-1.901 -0.344,-0.255 -1.005,-0.625 -2.203,-1.792 -1.802,-1.776 -2.625,-3.093 -4.302,-4.3909999 -0.771,-0.604 -0.974,-1.546 -2.036,-1.744 -1.068,-0.209 -1.918,0.734 -1.918,0.734 z"
     id="path555" />
  <path
     style="fill:#231f20;fill-opacity:1;fill-rule:nonzero;stroke:#231f20;stroke-width:0.565977;stroke-linecap:round;stroke-linejoin:round;stroke-miterlimit:4;stroke-dasharray:none;stroke-opacity:1"
     d="m 120.2375,9.0907971 c -1.036,0.9639999 -0.369,3.0159999 -0.416,3.3489999 -0.683,4.968 -0.6,5.344 -0.849,9.156 -0.37,5.516002 0.234,9.349002 3.38,10.505002 2.14,0.771 3.708,0.292 4.578,-0.682 0.968,-1.099 1.744,-4.178 -0.234,-6.276002 l -0.35,-1.678 c -0.093,-1.161 -0.14,-1.734 -0.145,-2.306 0.005,-0.995 -0.052,-2.074 -0.161,-4.032 -0.188,-3.474 -1.511,-7.072 -1.511,-7.072 -0.021,-0.3139999 -0.161,-0.5579999 -0.36,-0.7509999"
     id="path556" />
  <path
     style="fill:#fab41d;fill-opacity:1;fill-rule:nonzero;stroke:none"
     d="m 118.8735,24.950797 7.801,0.328 c 1.986,2.093002 1.194,5.176002 0.219,6.265002 -0.875,0.984 -2.453,1.448 -4.583,0.667 -2.485,-0.918 -3.37,-3.5 -3.437,-7.260002"
     id="path557" />
  <path
     style="fill:none;stroke:#231f20;stroke-width:0.565977;stroke-linecap:butt;stroke-linejoin:miter;stroke-miterlimit:4;stroke-dasharray:none;stroke-opacity:1"
     d="m 118.8735,24.950797 7.801,0.328 c 1.986,2.093002 1.194,5.176002 0.219,6.265002 -0.875,0.984 -2.453,1.448 -4.583,0.667 -2.485,-0.918 -3.37,-3.5 -3.437,-7.260002 z"
     id="path558" />
  <path
     style="fill:#231f20;fill-opacity:1;fill-rule:nonzero;stroke:none"
     d="m 128.1225,15.116797 c -0.349,0.536 -2.229,1.067 -3.494,2.062 -0.855,0.672 -3.511,1.338 -4.312,2.073 -0.74,0.672 -1.131,0.907 -2.043,0.203 -0.541,-0.422 -1.301,-1.578 -1.009,-1.995 0.681,-0.968 1.489,-1.473 2.489,-1.833 1.151,-0.411 4.349,-1.25 4.953,-1.354 1.506,-0.245 2,-0.786 2.391,-0.896 0.744,-0.188 0.995,0.052 1.224,0.49 0.437,0.864 -0.199,1.25 -0.199,1.25"
     id="path559" />
  <path
     style="fill:none;stroke:#231f20;stroke-width:0.565977;stroke-linecap:butt;stroke-linejoin:miter;stroke-miterlimit:4;stroke-dasharray:none;stroke-opacity:1"
     d="m 128.1225,15.116797 c -0.349,0.536 -2.229,1.067 -3.494,2.062 -0.855,0.672 -3.511,1.338 -4.312,2.073 -0.74,0.672 -1.131,0.907 -2.043,0.203 -0.541,-0.422 -1.301,-1.578 -1.009,-1.995 0.681,-0.968 1.489,-1.473 2.489,-1.833 1.151,-0.411 4.349,-1.25 4.953,-1.354 1.506,-0.245 2,-0.786 2.391,-0.896 0.744,-0.188 0.995,0.052 1.224,0.49 0.437,0.864 -0.199,1.25 -0.199,1.25 z"
     id="path560" />
  <path
     style="fill:#231f20;fill-opacity:1;fill-rule:nonzero;stroke:none"
     d="m 119.6805,19.002797 c 0.36,1.244 -1.662,1.452 -2.188,1.588 -0.526,0.136 -1.979,0.693 -3.056,1.27 -1.079,0.584 -2.672,0.85 -4.72,1.948 -1.078,0.574 -2.49,0.459 -3.26,-1.14 -0.766,-1.584 -0.162,-2.614 1.245,-3.114 1.405,-0.5 2.948,-0.376 4.401,-0.787 1.458,-0.401 2.906,-0.953 4.02,-1.443 1.266,-0.552 2.094,-0.354 2.438,-0.021 0.87,0.817 1.12,1.699 1.12,1.699"
     id="path561" />
  <path
     style="fill:none;stroke:#231f20;stroke-width:0.565977;stroke-linecap:butt;stroke-linejoin:miter;stroke-miterlimit:4;stroke-dasharray:none;stroke-opacity:1"
     d="m 119.6805,19.002797 c 0.36,1.244 -1.662,1.452 -2.188,1.588 -0.526,0.136 -1.979,0.693 -3.056,1.27 -1.079,0.584 -2.672,0.85 -4.72,1.948 -1.078,0.574 -2.49,0.459 -3.26,-1.14 -0.766,-1.584 -0.162,-2.614 1.245,-3.114 1.405,-0.5 2.948,-0.376 4.401,-0.787 1.458,-0.401 2.906,-0.953 4.02,-1.443 1.266,-0.552 2.094,-0.354 2.438,-0.021 0.87,0.817 1.12,1.699 1.12,1.699 z"
     id="path562" />
  <path
     style="fill:#231f20;fill-opacity:1;fill-rule:nonzero;stroke:none"
     d="m 133.6805,16.142797 c -0.708,0.208 -3.954,-0.036 -4.687,-0.131 -0.663,-0.077 -1.792,0.152 -2.152,-0.952 -0.172,-0.428 -0.068,-1.177 0.052,-1.469 0.095,-0.25 0.417,-0.307 0.797,-0.219 0.656,0.131 0.798,0.427 2.022,0.76 0,0 0.285,0.12 0.765,0.385 1.448,0.746 0.744,0.547 3.083,1.167 0.166,0.043 0.24,0.24 0.209,0.344 -0.063,0.177 -0.089,0.115 -0.089,0.115"
     id="path563" />
  <path
     style="fill:none;stroke:#231f20;stroke-width:0.565977;stroke-linecap:round;stroke-linejoin:round;stroke-miterlimit:4;stroke-dasharray:none;stroke-opacity:1"
     d="m 133.6805,16.142797 c -0.708,0.208 -3.954,-0.036 -4.687,-0.131 -0.663,-0.077 -1.792,0.152 -2.152,-0.952 -0.172,-0.428 -0.068,-1.177 0.052,-1.469 0.095,-0.25 0.417,-0.307 0.797,-0.219 0.656,0.131 0.798,0.427 2.022,0.76 0,0 0.285,0.12 0.765,0.385 1.448,0.746 0.744,0.547 3.083,1.167 0.166,0.043 0.24,0.24 0.209,0.344 -0.063,0.177 -0.089,0.115 -0.089,0.115 z"
     id="path564" />
  <path
     style="fill:#231f20;fill-opacity:1;fill-rule:nonzero;stroke:none"
     d="m 135.9615,20.631797 c -1.183,0.652 -1.943,0.016 -2.109,-1.015 -0.052,-0.302 -0.416,-0.51 -0.443,-0.818 -0.057,-0.698 1.12,-1.99 2.443,-1.276 0.093,0.046 0.906,0.198 1.489,0.401 1.136,0.407 3.229,1.771 3.765,4.417 0.256,1.25 -0.541,1.166 -0.796,0.692 -0.802,-1.505 -1.172,-1.484 -1.537,-1.802 -1.197,-1.083 -2.812,-0.599 -2.812,-0.599"
     id="path565" />
  <path
     style="fill:none;stroke:#231f20;stroke-width:0.332927;stroke-linecap:butt;stroke-linejoin:miter;stroke-miterlimit:4;stroke-dasharray:none;stroke-opacity:1"
     d="m 135.9615,20.631797 c -1.183,0.652 -1.943,0.016 -2.109,-1.015 -0.052,-0.302 -0.416,-0.51 -0.443,-0.818 -0.057,-0.698 1.12,-1.99 2.443,-1.276 0.093,0.046 0.906,0.198 1.489,0.401 1.136,0.407 3.229,1.771 3.765,4.417 0.256,1.25 -0.541,1.166 -0.796,0.692 -0.802,-1.505 -1.172,-1.484 -1.537,-1.802 -1.197,-1.083 -2.812,-0.599 -2.812,-0.599 z"
     id="path566" />
  <path
     style="fill:#ffffff;fill-opacity:1;fill-rule:nonzero;stroke:none"
     d="m 326.6695,27.022799 c 0.037,-0.239 1.177,-0.38 1.152,-0.906 -0.027,-0.521002 -0.798,-0.682002 -1.73,-2.442002 l -0.01,-0.016 c -0.642,-1.308 -1.719,-2.178 -2.975,-2.219 -2.072,-0.073 -3.837,2.156 -3.932,4.979002 -0.093,2.822 1.516,5.166 3.589,5.24 1.99,0.068 3.682,-1.98 3.906,-4.636"
     id="path567" />
  <path
     style="fill:none;stroke:#231f20;stroke-width:0.565977;stroke-linecap:butt;stroke-linejoin:miter;stroke-miterlimit:4;stroke-dasharray:none;stroke-opacity:1"
     d="m 326.6695,27.022799 c 0.037,-0.239 1.177,-0.38 1.152,-0.906 -0.027,-0.521002 -0.798,-0.682002 -1.73,-2.442002 l -0.01,-0.016 c -0.642,-1.308 -1.719,-2.178 -2.975,-2.219 -2.072,-0.073 -3.837,2.156 -3.932,4.979002 -0.093,2.822 1.516,5.166 3.589,5.24 1.99,0.068 3.682,-1.98 3.906,-4.636 z"
     id="path568" />
  <path
     style="fill:#fab41d;fill-opacity:1;fill-rule:nonzero;stroke:none"
     d="m 322.1745,45.059799 c 0.084,3.124 -0.244,3.812 -0.583,4.661 -2.125,5.38 0.552,6.323 3.375,5.724 3.317,-0.698 4.521,-0.885 3.755,-7.136 -0.214,-1.734 -0.162,-8.505 -0.162,-8.505 0.35,-2.427 -0.609,-4.973 -1.833,-5.755 -1.296,-0.833 -0.844,-0.406 -2.181,-0.958 -1.272,-0.522 -3.439,-0.208 -4.095,0.844 -0.629,1 0.131,2.484 0.943,4.77 0.641,1.798 0.781,6.355 0.781,6.355"
     id="path569" />
  <path
     style="fill:none;stroke:#231f20;stroke-width:0.565977;stroke-linecap:butt;stroke-linejoin:miter;stroke-miterlimit:4;stroke-dasharray:none;stroke-opacity:1"
     d="m 322.1745,45.059799 c 0.084,3.124 -0.244,3.812 -0.583,4.661 -2.125,5.38 0.552,6.323 3.375,5.724 3.317,-0.698 4.521,-0.885 3.755,-7.136 -0.214,-1.734 -0.162,-8.505 -0.162,-8.505 0.35,-2.427 -0.609,-4.973 -1.833,-5.755 -1.296,-0.833 -0.844,-0.406 -2.181,-0.958 -1.272,-0.522 -3.439,-0.208 -4.095,0.844 -0.629,1 0.131,2.484 0.943,4.77 0.641,1.798 0.781,6.355 0.781,6.355 z"
     id="path570" />
  <path
     style="fill:#231f20;fill-opacity:1;fill-rule:nonzero;stroke:none"
     d="m 313.9255,17.043797 c 0.577,0.287 1.322,2.083 2.468,3.219 0.765,0.765 1.75,3.328 2.578,4.03 0.75,0.652 1.036,1.022 0.443,2.006002 -0.349,0.589 -1.401,1.489 -1.849,1.245 -1.052,-0.557 -1.64,-1.303 -2.126,-2.251002 -0.541,-1.088 -1.765,-4.166 -1.937,-4.754 -0.427,-1.464 -1.025,-1.891 -1.172,-2.271 -0.281,-0.704 -0.083,-0.984 0.333,-1.265 0.798,-0.538 1.262,0.041 1.262,0.041"
     id="path571" />
  <path
     style="fill:none;stroke:#231f20;stroke-width:0.565977;stroke-linecap:butt;stroke-linejoin:miter;stroke-miterlimit:4;stroke-dasharray:none;stroke-opacity:1"
     d="m 313.9255,17.043797 c 0.577,0.287 1.322,2.083 2.468,3.219 0.765,0.765 1.75,3.328 2.578,4.03 0.75,0.652 1.036,1.022 0.443,2.006002 -0.349,0.589 -1.401,1.489 -1.849,1.245 -1.052,-0.557 -1.64,-1.303 -2.126,-2.251002 -0.541,-1.088 -1.765,-4.166 -1.937,-4.754 -0.427,-1.464 -1.025,-1.891 -1.172,-2.271 -0.281,-0.704 -0.083,-0.984 0.333,-1.265 0.798,-0.538 1.262,0.041 1.262,0.041 z"
     id="path572" />
  <path
     style="fill:#231f20;fill-opacity:1;fill-rule:nonzero;stroke:none"
     d="m 318.5545,24.830797 c 1.183,-0.538 1.672,1.437002 1.881,1.937002 0.208,0.505 0.963,1.859 1.692,2.849 0.724,0.984 1.214,2.52 2.588,4.4 0.724,0.986 0.803,2.402 -0.666,3.391 -1.463,0.98 -2.562,0.527 -3.255,-0.796 -0.697,-1.328 -0.792,-2.865 -1.401,-4.251 -0.61,-1.38 -1.354,-2.734 -1.995,-3.77 -0.729,-1.178 -0.645,-2.027 -0.369,-2.418 0.692,-0.973002 1.525,-1.342002 1.525,-1.342002"
     id="path573" />
  <path
     style="fill:none;stroke:#231f20;stroke-width:0.565977;stroke-linecap:butt;stroke-linejoin:miter;stroke-miterlimit:4;stroke-dasharray:none;stroke-opacity:1"
     d="m 318.5545,24.830797 c 1.183,-0.538 1.672,1.437002 1.881,1.937002 0.208,0.505 0.963,1.859 1.692,2.849 0.724,0.984 1.214,2.52 2.588,4.4 0.724,0.986 0.803,2.402 -0.666,3.391 -1.463,0.98 -2.562,0.527 -3.255,-0.796 -0.697,-1.328 -0.792,-2.865 -1.401,-4.251 -0.61,-1.38 -1.354,-2.734 -1.995,-3.77 -0.729,-1.178 -0.645,-2.027 -0.369,-2.418 0.692,-0.973002 1.525,-1.342002 1.525,-1.342002 z"
     id="path574" />
  <path
     style="fill:#231f20;fill-opacity:1;fill-rule:nonzero;stroke:none"
     d="m 310.4505,11.022797 c 0.563,0.458 2.204,3.265 2.552,3.928 0.319,0.582 1.147,1.385 0.459,2.312 -0.276,0.374 -0.948,0.729 -1.255,0.797 -0.251,0.057 -0.491,-0.172 -0.647,-0.537 -0.254,-0.615 -0.088,-0.886 -0.51,-2.094 0,0 -0.056,-0.302 -0.13,-0.844 -0.208,-1.62 0.036,-0.926 -0.792,-3.202 -0.057,-0.162 0.063,-0.339 0.178,-0.371 0.166,-0.047 0.145,0.011 0.145,0.011"
     id="path575" />
  <path
     style="fill:none;stroke:#231f20;stroke-width:0.565977;stroke-linecap:round;stroke-linejoin:round;stroke-miterlimit:4;stroke-dasharray:none;stroke-opacity:1"
     d="m 310.4505,11.022797 c 0.563,0.458 2.204,3.265 2.552,3.928 0.319,0.582 1.147,1.385 0.459,2.312 -0.276,0.374 -0.948,0.729 -1.255,0.797 -0.251,0.057 -0.491,-0.172 -0.647,-0.537 -0.254,-0.615 -0.088,-0.886 -0.51,-2.094 0,0 -0.056,-0.302 -0.13,-0.844 -0.208,-1.62 0.036,-0.926 -0.792,-3.202 -0.057,-0.162 0.063,-0.339 0.178,-0.371 0.166,-0.047 0.145,0.011 0.145,0.011 z"
     id="path576" />
  <path
     style="fill:#231f20;fill-opacity:1;fill-rule:nonzero;stroke:none"
     d="m 324.6065,70.762799 c -2.228,-0.402 -2.719,-0.178 -2.947,0.754 -0.157,0.62 -0.51,1.142 -0.62,1.511 -0.37,1.245 -0.485,3.484 0.859,9.932 0.308,1.464 0.724,3.516 0.823,4.371 0.161,1.344 2.292,0.166 2.234,-0.366 -0.182,-1.702 -0.177,-2.89 -0.161,-3.51 0.011,-0.432 -0.068,-1.187 0.188,-2.834 0.396,-2.494 1.005,-3.932 1.088,-6.046 0.041,-0.979 0.693,-1.692 0.245,-2.678 -0.453,-0.989 -1.709,-1.134 -1.709,-1.134"
     id="path577" />
  <path
     style="fill:none;stroke:#231f20;stroke-width:0.565977;stroke-linecap:butt;stroke-linejoin:miter;stroke-miterlimit:4;stroke-dasharray:none;stroke-opacity:1"
     d="m 324.6065,70.762799 c -2.228,-0.402 -2.719,-0.178 -2.947,0.754 -0.157,0.62 -0.51,1.142 -0.62,1.511 -0.37,1.245 -0.485,3.484 0.859,9.932 0.308,1.464 0.724,3.516 0.823,4.371 0.161,1.344 2.292,0.166 2.234,-0.366 -0.182,-1.702 -0.177,-2.89 -0.161,-3.51 0.011,-0.432 -0.068,-1.187 0.188,-2.834 0.396,-2.494 1.005,-3.932 1.088,-6.046 0.041,-0.979 0.693,-1.692 0.245,-2.678 -0.453,-0.989 -1.709,-1.134 -1.709,-1.134 z"
     id="path578" />
  <path
     style="fill:#231f20;fill-opacity:1;fill-rule:nonzero;stroke:#231f20;stroke-width:0.565977;stroke-linecap:round;stroke-linejoin:miter;stroke-miterlimit:4;stroke-dasharray:none;stroke-opacity:1"
     d="m 326.0545,72.787799 c 1.027,-0.875 0.667,-2.864 0.751,-3.176 1.322,-4.839 1.292,-5.219 2.036,-8.969 1.078,-5.422 0.984,-9.302 -1.984,-10.85 -2.016,-1.046 -3.631,-0.781 -4.626,0.079 -1.109,0.959 -2.281,3.912 -0.582,6.249 l 0.124,1.704 c -0.062,1.167 -0.083,1.739 -0.162,2.312 -0.134,0.99 -0.213,2.068 -0.364,4.016 -0.27,3.459 0.578,7.208 0.578,7.208 -0.015,0.308 0.089,0.568 0.256,0.787"
     id="path579" />
  <path
     style="fill:#fab41d;fill-opacity:1;fill-rule:nonzero;stroke:none"
     d="m 322.2315,49.871799 c 0.995,-0.86 2.61,-1.125 4.626,-0.079 1.306,0.683 2.041,1.828 2.38,3.35 0.442,0.937 0.688,1.521 0.308,2.229 -0.032,0.063 -0.063,0.135 -0.084,0.213 -0.011,0.588 -0.042,1.194 -0.11,1.85 l -7.702,-1.314 c -1.699,-2.337 -0.527,-5.29 0.582,-6.249"
     id="path580" />
  <path
     style="fill:none;stroke:#231f20;stroke-width:0.565977;stroke-linecap:round;stroke-linejoin:round;stroke-miterlimit:4;stroke-dasharray:none;stroke-opacity:1"
     d="m 322.2315,49.871799 c 0.995,-0.86 2.61,-1.125 4.626,-0.079 1.306,0.683 2.041,1.828 2.38,3.35 0.442,0.937 0.688,1.521 0.308,2.229 -0.032,0.063 -0.063,0.135 -0.084,0.213 -0.011,0.588 -0.042,1.194 -0.11,1.85 l -7.702,-1.314 c -1.699,-2.337 -0.527,-5.29 0.582,-6.249 z"
     id="path581" />
  <path
     style="fill:#231f20;fill-opacity:1;fill-rule:nonzero;stroke:none"
     d="m 323.0025,90.559799 c -1.083,-0.057 -0.823,-1.281 -0.583,-2.485 0.063,-0.302 0.088,-0.594 0.172,-0.886 0.339,-1.177 1.156,-1.833 3.11,0.438 0.072,0.089 1.91,1.27 2.484,1.516 2.74,1.172 2.969,0.364 2.74,1.172 -0.147,0.536 -0.656,0.546 -1.287,0.541 -0.849,0 -3.865,-0.276 -4.328,-0.287 -0.453,-0.014 -2.308,-0.009 -2.308,-0.009"
     id="path582" />
  <path
     style="fill:none;stroke:#231f20;stroke-width:0.565977;stroke-linecap:butt;stroke-linejoin:miter;stroke-miterlimit:4;stroke-dasharray:none;stroke-opacity:1"
     d="m 323.0025,90.559799 c -1.083,-0.057 -0.823,-1.281 -0.583,-2.485 0.063,-0.302 0.088,-0.594 0.172,-0.886 0.339,-1.177 1.156,-1.833 3.11,0.438 0.072,0.089 1.91,1.27 2.484,1.516 2.74,1.172 2.969,0.364 2.74,1.172 -0.147,0.536 -0.656,0.546 -1.287,0.541 -0.849,0 -3.865,-0.276 -4.328,-0.287 -0.453,-0.014 -2.308,-0.009 -2.308,-0.009 z"
     id="path584" />
  <path
     style="fill:#ffffff;fill-opacity:1;fill-rule:nonzero;stroke:none"
     d="m 283.0545,32.912799 c 0.167,-0.177 1.193,0.344 1.464,-0.104 0.271,-0.448 -0.276,-1.016 -0.068,-2.989 l 0.011,-0.032 c 0.198,-1.437 -0.208,-2.765 -1.219,-3.504 -1.683,-1.220002 -4.391,-0.355 -6.047,1.927 -1.666,2.286 -1.65,5.125 0.031,6.349 1.604,1.167 4.161,0.427 5.828,-1.647"
     id="path586" />
  <path
     style="fill:none;stroke:#231f20;stroke-width:0.565977;stroke-linecap:butt;stroke-linejoin:miter;stroke-miterlimit:4;stroke-dasharray:none;stroke-opacity:1"
     d="m 283.0545,32.912799 c 0.167,-0.177 1.193,0.344 1.464,-0.104 0.271,-0.448 -0.276,-1.016 -0.068,-2.989 l 0.011,-0.032 c 0.198,-1.437 -0.208,-2.765 -1.219,-3.504 -1.683,-1.220002 -4.391,-0.355 -6.047,1.927 -1.666,2.286 -1.65,5.125 0.031,6.349 1.604,1.167 4.161,0.427 5.828,-1.647 z"
     id="path587" />
  <path
     style="fill:#fab41d;fill-opacity:1;fill-rule:nonzero;stroke:none"
     d="m 266.4775,44.043799 c -1.948,2.453 -2.636,2.765 -3.448,3.203 -5.09,2.75 -3.642,5.193 -1.094,6.546 2.995,1.6 4.031,2.23 7.463,-3.046 0.953,-1.463 5.349,-6.62 5.349,-6.62 1.823,-1.63 2.73,-4.198 2.292,-5.583 -0.458,-1.469 -0.38,-0.855 -1.052,-2.136 -0.641,-1.219 -2.496,-2.369 -3.677,-1.989 -1.131,0.36 -1.5,1.984 -2.349,4.26 -0.667,1.792 -3.484,5.365 -3.484,5.365"
     id="path588" />
  <path
     style="fill:none;stroke:#231f20;stroke-width:0.565977;stroke-linecap:butt;stroke-linejoin:miter;stroke-miterlimit:4;stroke-dasharray:none;stroke-opacity:1"
     d="m 266.4775,44.043799 c -1.948,2.453 -2.636,2.765 -3.448,3.203 -5.09,2.75 -3.642,5.193 -1.094,6.546 2.995,1.6 4.031,2.23 7.463,-3.046 0.953,-1.463 5.349,-6.62 5.349,-6.62 1.823,-1.63 2.73,-4.198 2.292,-5.583 -0.458,-1.469 -0.38,-0.855 -1.052,-2.136 -0.641,-1.219 -2.496,-2.369 -3.677,-1.989 -1.131,0.36 -1.5,1.984 -2.349,4.26 -0.667,1.792 -3.484,5.365 -3.484,5.365 z"
     id="path589" />
  <path
     style="fill:#231f20;fill-opacity:1;fill-rule:nonzero;stroke:none"
     d="m 290.5455,44.783799 c -0.48,0.443 -2.423,0.504 -3.886,1.176 -0.985,0.448 -3.734,0.469 -4.682,0.995 -0.875,0.48 -1.318,0.614 -2.038,-0.291 -0.426,-0.527 -0.894,-1.839 -0.509,-2.172 0.891,-0.781 1.796,-1.073 2.859,-1.193 1.208,-0.126 4.516,-0.187 5.13,-0.14 1.511,0.114 2.13,-0.298 2.536,-0.303 0.76,-0.016 0.948,0.276 1.068,0.765 0.219,0.934 -0.478,1.163 -0.478,1.163"
     id="path590" />
  <path
     style="fill:none;stroke:#231f20;stroke-width:0.565977;stroke-linecap:butt;stroke-linejoin:miter;stroke-miterlimit:4;stroke-dasharray:none;stroke-opacity:1"
     d="m 290.5455,44.783799 c -0.48,0.443 -2.423,0.504 -3.886,1.176 -0.985,0.448 -3.734,0.469 -4.682,0.995 -0.875,0.48 -1.318,0.614 -2.038,-0.291 -0.426,-0.527 -0.894,-1.839 -0.509,-2.172 0.891,-0.781 1.796,-1.073 2.859,-1.193 1.208,-0.126 4.516,-0.187 5.13,-0.14 1.511,0.114 2.13,-0.298 2.536,-0.303 0.76,-0.016 0.948,0.276 1.068,0.765 0.219,0.934 -0.478,1.163 -0.478,1.163 z"
     id="path591" />
  <path
     style="fill:#231f20;fill-opacity:1;fill-rule:nonzero;stroke:none"
     d="m 280.5755,46.735799 c -1.036,0.776 -1.937,-1.047 -2.254,-1.489 -0.314,-0.448 -1.339,-1.61 -2.262,-2.416 -0.921,-0.808 -1.729,-2.21 -3.473,-3.74 -0.917,-0.807 -1.303,-2.178 -0.079,-3.459 1.219,-1.265 2.386,-1.068 3.35,0.079 0.964,1.145 1.39,2.625 2.281,3.844 0.891,1.224 1.911,2.385 2.76,3.254 0.964,1 1.073,1.85 0.88,2.287 -0.463,1.099 -1.203,1.64 -1.203,1.64"
     id="path592" />
  <path
     style="fill:none;stroke:#231f20;stroke-width:0.565977;stroke-linecap:butt;stroke-linejoin:miter;stroke-miterlimit:4;stroke-dasharray:none;stroke-opacity:1"
     d="m 280.5755,46.735799 c -1.036,0.776 -1.937,-1.047 -2.254,-1.489 -0.314,-0.448 -1.339,-1.61 -2.262,-2.416 -0.921,-0.808 -1.729,-2.21 -3.473,-3.74 -0.917,-0.807 -1.303,-2.178 -0.079,-3.459 1.219,-1.265 2.386,-1.068 3.35,0.079 0.964,1.145 1.39,2.625 2.281,3.844 0.891,1.224 1.911,2.385 2.76,3.254 0.964,1 1.073,1.85 0.88,2.287 -0.463,1.099 -1.203,1.64 -1.203,1.64 z"
     id="path593" />
  <path
     style="fill:#231f20;fill-opacity:1;fill-rule:nonzero;stroke:none"
     d="m 297.3935,43.652799 c -0.624,0.359 -3.828,0.907 -4.568,1.006 -0.656,0.088 -1.708,0.582 -2.328,-0.386 -0.25,-0.39 -0.348,-1.141 -0.307,-1.458 0.036,-0.255 0.339,-0.396 0.735,-0.412 0.666,-0.02 0.864,0.224 2.14,0.256 0,0 0.297,0.057 0.833,0.177 1.593,0.375 0.855,0.359 3.276,0.385 0.172,0 0.297,0.176 0.281,0.296 -0.016,0.172 -0.062,0.136 -0.062,0.136"
     id="path594" />
  <path
     style="fill:none;stroke:#231f20;stroke-width:0.565977;stroke-linecap:round;stroke-linejoin:round;stroke-miterlimit:4;stroke-dasharray:none;stroke-opacity:1"
     d="m 297.3935,43.652799 c -0.624,0.359 -3.828,0.907 -4.568,1.006 -0.656,0.088 -1.708,0.582 -2.328,-0.386 -0.25,-0.39 -0.348,-1.141 -0.307,-1.458 0.036,-0.255 0.339,-0.396 0.735,-0.412 0.666,-0.02 0.864,0.224 2.14,0.256 0,0 0.297,0.057 0.833,0.177 1.593,0.375 0.855,0.359 3.276,0.385 0.172,0 0.297,0.176 0.281,0.296 -0.016,0.172 -0.062,0.136 -0.062,0.136 z"
     id="path595" />
  <path
     style="fill:#231f20;fill-opacity:1;fill-rule:nonzero;stroke:none"
     d="m 270.6495,67.824799 c -1.808,-1.36 -2.35,-1.38 -2.975,-0.656 -0.416,0.484 -0.968,0.791 -1.235,1.072 -0.894,0.943 -2.004,2.891 -3.713,9.251 -0.391,1.443 -0.943,3.463 -1.239,4.271 -0.464,1.276 1.968,1.182 2.156,0.682 0.604,-1.6 1.151,-2.657 1.443,-3.209 0.208,-0.375 0.479,-1.088 1.448,-2.437 1.473,-2.047 2.667,-3.058 3.703,-4.902 0.474,-0.864 1.374,-1.202 1.422,-2.285 0.042,-1.084 -1.01,-1.787 -1.01,-1.787"
     id="path596" />
  <path
     style="fill:none;stroke:#231f20;stroke-width:0.565977;stroke-linecap:butt;stroke-linejoin:miter;stroke-miterlimit:4;stroke-dasharray:none;stroke-opacity:1"
     d="m 270.6495,67.824799 c -1.808,-1.36 -2.35,-1.38 -2.975,-0.656 -0.416,0.484 -0.968,0.791 -1.235,1.072 -0.894,0.943 -2.004,2.891 -3.713,9.251 -0.391,1.443 -0.943,3.463 -1.239,4.271 -0.464,1.276 1.968,1.182 2.156,0.682 0.604,-1.6 1.151,-2.657 1.443,-3.209 0.208,-0.375 0.479,-1.088 1.448,-2.437 1.473,-2.047 2.667,-3.058 3.703,-4.902 0.474,-0.864 1.374,-1.202 1.422,-2.285 0.042,-1.084 -1.01,-1.787 -1.01,-1.787 z"
     id="path597" />
  <path
     style="fill:#231f20;fill-opacity:1;fill-rule:nonzero;stroke:#231f20;stroke-width:0.565977;stroke-linecap:round;stroke-linejoin:miter;stroke-miterlimit:4;stroke-dasharray:none;stroke-opacity:1"
     d="m 271.4915,69.902799 c 0.658,-1.176 -0.374,-2.916 -0.405,-3.244 -0.443,-4.99 -0.599,-5.339 -1.208,-9.115 -0.876,-5.459 -2.313,-9.057 -5.636,-9.48 -2.255,-0.276 -3.677,0.537 -4.312,1.683 -0.704,1.281 -0.776,4.458 1.629,6.062 l 0.71,1.552 c 0.342,1.115 0.525,1.662 0.65,2.224 0.219,0.979 0.52,2.011 1.058,3.891 0.948,3.339 3.046,6.563 3.046,6.563 0.099,0.292 0.287,0.5 0.516,0.64"
     id="path598" />
  <path
     style="fill:#fab41d;fill-opacity:1;fill-rule:nonzero;stroke:none"
     d="m 259.9305,49.746799 c 0.635,-1.146 2.057,-1.963 4.312,-1.683 2.625,0.329 4.073,2.652 4.995,6.292 l -7.678,1.453 c -2.405,-1.598 -2.333,-4.781 -1.629,-6.062"
     id="path599" />
  <path
     style="fill:none;stroke:#231f20;stroke-width:0.565977;stroke-linecap:round;stroke-linejoin:round;stroke-miterlimit:4;stroke-dasharray:none;stroke-opacity:1"
     d="m 259.9305,49.746799 c 0.635,-1.146 2.057,-1.963 4.312,-1.683 2.625,0.329 4.073,2.652 4.995,6.292 l -7.678,1.453 c -2.405,-1.598 -2.333,-4.781 -1.629,-6.062 z"
     id="path600" />
  <path
     style="fill:#231f20;fill-opacity:1;fill-rule:nonzero;stroke:none"
     d="m 261.0235,84.824799 c -1.172,-0.666 -1.03,-1.646 -0.245,-2.322 0.24,-0.204 0.219,-0.626 0.469,-0.808 0.568,-0.411 2.282,-0.083 2.375,1.412 0.005,0.104 0.303,0.869 0.432,1.473 0.251,1.188 0.183,3.683 -1.791,5.527 -0.933,0.864 -1.27,0.145 -1.005,-0.319 0.864,-1.468 0.651,-1.776 0.735,-2.249 0.29,-1.588 -0.97,-2.714 -0.97,-2.714"
     id="path601" />
  <path
     style="fill:none;stroke:#231f20;stroke-width:0.332927;stroke-linecap:butt;stroke-linejoin:miter;stroke-miterlimit:4;stroke-dasharray:none;stroke-opacity:1"
     d="m 261.0235,84.824799 c -1.172,-0.666 -1.03,-1.646 -0.245,-2.322 0.24,-0.204 0.219,-0.626 0.469,-0.808 0.568,-0.411 2.282,-0.083 2.375,1.412 0.005,0.104 0.303,0.869 0.432,1.473 0.251,1.188 0.183,3.683 -1.791,5.527 -0.933,0.864 -1.27,0.145 -1.005,-0.319 0.864,-1.468 0.651,-1.776 0.735,-2.249 0.29,-1.588 -0.97,-2.714 -0.97,-2.714 z"
     id="path603" />
</svg>
