<?xml version="1.0" encoding="UTF-8" standalone="no"?>
<!-- Created with Inkscape (http://www.inkscape.org/) -->

<svg
   version="1.1"
   id="svg1"
   width="335.86731"
   height="117.03787"
   viewBox="0 0 335.86729 117.03787"
   sodipodi:docname="cell.svg"
   xmlns:inkscape="http://www.inkscape.org/namespaces/inkscape"
   xmlns:sodipodi="http://sodipodi.sourceforge.net/DTD/sodipodi-0.dtd"
   xmlns="http://www.w3.org/2000/svg"
   xmlns:svg="http://www.w3.org/2000/svg">
  <sodipodi:namedview
     id="namedview1"
     pagecolor="#ffffff"
     bordercolor="#000000"
     borderopacity="0.25"
     inkscape:showpageshadow="2"
     inkscape:pageopacity="0.0"
     inkscape:pagecheckerboard="0"
     inkscape:deskcolor="#d1d1d1">
    <inkscape:page
       x="4.1247894e-08"
       y="1.007059e-07"
       inkscape:label="1"
       id="page1"
       width="335.86731"
       height="117.03787"
       margin="0"
       bleed="0" />
  </sodipodi:namedview>
  <defs
     id="defs1" />
  <path
     style="fill:#ffffff;fill-opacity:1;fill-rule:nonzero;stroke:none"
     d="m 21.156175,56.228508 c -0.15,-0.193 -1.208,0.26 -1.448,-0.208 -0.24,-0.464 0.344,-0.991 0.276,-2.985 v -0.015 c -0.104,-1.453002 0.396,-2.745002 1.464,-3.412002 1.755,-1.099 4.402,-0.052 5.896,2.344002 1.495,2.401 1.276,5.229 -0.485,6.333 -1.687,1.052 -4.176,0.131 -5.703,-2.057"
     id="path607" />
  <path
     style="fill:none;stroke:#231f20;stroke-width:0.565977;stroke-linecap:butt;stroke-linejoin:miter;stroke-miterlimit:4;stroke-dasharray:none;stroke-opacity:1"
     d="m 21.156175,56.228508 c -0.15,-0.193 -1.208,0.26 -1.448,-0.208 -0.24,-0.464 0.344,-0.991 0.276,-2.985 v -0.015 c -0.104,-1.453002 0.396,-2.745002 1.464,-3.412002 1.755,-1.099 4.402,-0.052 5.896,2.344002 1.495,2.401 1.276,5.229 -0.485,6.333 -1.687,1.052 -4.176,0.131 -5.703,-2.057 z"
     id="path608" />
  <path
     style="fill:#fab41d;fill-opacity:1;fill-rule:nonzero;stroke:none"
     d="m 34.896175,69.015508 c 1.734,2.609 2.396,2.978 3.162,3.484 4.833,3.177 3.182,5.484 0.53,6.62 -3.12,1.333 -4.208,1.874 -7.177,-3.678 -0.823,-1.541 -4.76,-7.052 -4.76,-7.052 -1.677,-1.786 -2.359,-4.416 -1.807,-5.765 0.578,-1.423 0.452,-0.817 1.234,-2.032 0.74,-1.161 2.688,-2.145 3.829,-1.672 1.093,0.459 1.328,2.109 1.973,4.448 0.511,1.844 3.016,5.647 3.016,5.647"
     id="path609" />
  <path
     style="fill:none;stroke:#231f20;stroke-width:0.565977;stroke-linecap:butt;stroke-linejoin:miter;stroke-miterlimit:4;stroke-dasharray:none;stroke-opacity:1"
     d="m 34.896175,69.015508 c 1.734,2.609 2.396,2.978 3.162,3.484 4.833,3.177 3.182,5.484 0.53,6.62 -3.12,1.333 -4.208,1.874 -7.177,-3.678 -0.823,-1.541 -4.76,-7.052 -4.76,-7.052 -1.677,-1.786 -2.359,-4.416 -1.807,-5.765 0.578,-1.423 0.452,-0.817 1.234,-2.032 0.74,-1.161 2.688,-2.145 3.829,-1.672 1.093,0.459 1.328,2.109 1.973,4.448 0.511,1.844 3.016,5.647 3.016,5.647 z"
     id="path610" />
  <path
     style="fill:#231f20;fill-opacity:1;fill-rule:nonzero;stroke:none"
     d="m 7.2601746,60.457508 c 0.495,0.411 2.443,0.375 3.9380004,0.963 1.01,0.401 3.756,0.276 4.729,0.751 0.896,0.432 1.349,0.541 2.021,-0.396 0.396,-0.552 0.796,-1.88 0.391,-2.198 -0.933,-0.734 -1.844,-0.98 -2.917,-1.037 -1.208,-0.063 -4.52,0.052 -5.13,0.131 -1.5100004,0.193 -2.1410004,-0.183 -2.5480004,-0.172 -0.76,0.032 -0.9370001,0.322 -1.0250001,0.817 -0.172,0.943 0.5410001,1.141 0.5410001,1.141"
     id="path611" />
  <path
     style="fill:none;stroke:#231f20;stroke-width:0.565977;stroke-linecap:butt;stroke-linejoin:miter;stroke-miterlimit:4;stroke-dasharray:none;stroke-opacity:1"
     d="m 7.2601746,60.457508 c 0.495,0.411 2.443,0.375 3.9380004,0.963 1.01,0.401 3.756,0.276 4.729,0.751 0.896,0.432 1.349,0.541 2.021,-0.396 0.396,-0.552 0.796,-1.88 0.391,-2.198 -0.933,-0.734 -1.844,-0.98 -2.917,-1.037 -1.208,-0.063 -4.52,0.052 -5.13,0.131 -1.5100004,0.193 -2.1410004,-0.183 -2.5480004,-0.172 -0.76,0.032 -0.9370001,0.322 -1.0250001,0.817 -0.172,0.943 0.5410001,1.141 0.5410001,1.141 z"
     id="path612" />
  <path
     style="fill:#231f20;fill-opacity:1;fill-rule:nonzero;stroke:none"
     d="m 16.255175,61.577508 c -0.02,1.291 1.985,0.954 2.527,0.943 0.546,-0.011 2.093,0.14 3.286,0.411 1.198,0.266 2.802,0.098 5.067,0.604 1.193,0.272 2.527,-0.224 2.844,-1.974 0.308,-1.724 -0.547,-2.552 -2.036,-2.661 -1.495,-0.099 -2.943,0.427 -4.453,0.427 -1.511,-0.006 -3.052,-0.151 -4.255,-0.318 -1.371,-0.198 -2.115,0.219 -2.365,0.631 -0.615,1.025 -0.615,1.937 -0.615,1.937"
     id="path613" />
  <path
     style="fill:none;stroke:#231f20;stroke-width:0.565977;stroke-linecap:butt;stroke-linejoin:miter;stroke-miterlimit:4;stroke-dasharray:none;stroke-opacity:1"
     d="m 16.255175,61.577508 c -0.02,1.291 1.985,0.954 2.527,0.943 0.546,-0.011 2.093,0.14 3.286,0.411 1.198,0.266 2.802,0.098 5.067,0.604 1.193,0.272 2.527,-0.224 2.844,-1.974 0.308,-1.724 -0.547,-2.552 -2.036,-2.661 -1.495,-0.099 -2.943,0.427 -4.453,0.427 -1.511,-0.006 -3.052,-0.151 -4.255,-0.318 -1.371,-0.198 -2.115,0.219 -2.365,0.631 -0.615,1.025 -0.615,1.937 -0.615,1.937 z"
     id="path614" />
  <path
     style="fill:#231f20;fill-opacity:1;fill-rule:nonzero;stroke:none"
     d="m 0.35417452,59.692508 c 0.64599998,0.323 3.87599998,0.708 4.61399998,0.76 0.667,0.052 1.735,0.495 2.3080001,-0.505 0.235,-0.407 0.287,-1.162 0.224,-1.474 -0.041,-0.256 -0.349,-0.381 -0.7500001,-0.376 -0.667,0.016 -0.848,0.276 -2.12,0.376 0,0 -0.302,0.062 -0.828,0.219 -1.567,0.457 -0.834,0.4 -3.24999998,0.557 -0.172,0.004 -0.286,0.192 -0.265,0.307 0.025,0.172 0.067,0.136 0.067,0.136"
     id="path615" />
  <path
     style="fill:none;stroke:#231f20;stroke-width:0.565977;stroke-linecap:round;stroke-linejoin:round;stroke-miterlimit:4;stroke-dasharray:none;stroke-opacity:1"
     d="m 0.35417452,59.692508 c 0.64599998,0.323 3.87599998,0.708 4.61399998,0.76 0.667,0.052 1.735,0.495 2.3080001,-0.505 0.235,-0.407 0.287,-1.162 0.224,-1.474 -0.041,-0.256 -0.349,-0.381 -0.7500001,-0.376 -0.667,0.016 -0.848,0.276 -2.12,0.376 0,0 -0.302,0.062 -0.828,0.219 -1.567,0.457 -0.834,0.4 -3.24999998,0.557 -0.172,0.004 -0.286,0.192 -0.265,0.307 0.025,0.172 0.067,0.136 0.067,0.136 z"
     id="path616" />
  <path
     style="fill:#231f20;fill-opacity:1;fill-rule:nonzero;stroke:none"
     d="m 37.020175,94.717508 c 1.918,-1.197 2.459,-1.172 3.022,-0.396 0.369,0.522 0.89,0.871 1.136,1.172 0.806,1.016 1.744,3.058 2.9,9.536002 0.261,1.475 0.641,3.532 0.865,4.36 0.353,1.312 -2.063,1.011 -2.204,0.5 -0.468,-1.65 -0.916,-2.749 -1.165,-3.322 -0.168,-0.391 -0.376,-1.126 -1.23,-2.558 -1.297,-2.166 -2.396,-3.276 -3.261,-5.208002 -0.4,-0.89 -1.276,-1.308 -1.224,-2.39 0.052,-1.084 1.161,-1.694 1.161,-1.694"
     id="path617" />
  <path
     style="fill:none;stroke:#231f20;stroke-width:0.565977;stroke-linecap:butt;stroke-linejoin:miter;stroke-miterlimit:4;stroke-dasharray:none;stroke-opacity:1"
     d="m 37.020175,94.717508 c 1.918,-1.197 2.459,-1.172 3.022,-0.396 0.369,0.522 0.89,0.871 1.136,1.172 0.806,1.016 1.744,3.058 2.9,9.536002 0.261,1.475 0.641,3.532 0.865,4.36 0.353,1.312 -2.063,1.011 -2.204,0.5 -0.468,-1.65 -0.916,-2.749 -1.165,-3.322 -0.168,-0.391 -0.376,-1.126 -1.23,-2.558 -1.297,-2.166 -2.396,-3.276 -3.261,-5.208002 -0.4,-0.89 -1.276,-1.308 -1.224,-2.39 0.052,-1.084 1.161,-1.694 1.161,-1.694 z"
     id="path618" />
  <path
     style="fill:#231f20;fill-opacity:1;fill-rule:nonzero;stroke:#231f20;stroke-width:0.565977;stroke-linecap:round;stroke-linejoin:miter;stroke-miterlimit:4;stroke-dasharray:none;stroke-opacity:1"
     d="m 36.432175,97.140508 c -1.036,-0.86 -0.702,-2.855 -0.792,-3.172 -1.38,-4.813 -1.358,-5.199 -2.15,-8.933 -1.146,-5.411 -1.104,-9.286 1.849,-10.875 2,-1.077 3.62,-0.828 4.624,0.021 1.12,0.938 2.329,3.88 0.663,6.239 l -0.106,1.709 c 0.079,1.162 0.11,1.73 0.194,2.302 0.145,0.989 0.24,2.062 0.416,4.016 0.318,3.453 -0.49,7.208 -0.49,7.208 0.022,0.318 -0.077,0.578 -0.244,0.792"
     id="path619" />
  <path
     style="fill:#fab41d;fill-opacity:1;fill-rule:nonzero;stroke:none"
     d="m 39.968175,74.181508 c -1.009,-0.849 -2.629,-1.098 -4.629,-0.021 -1.303,0.699 -2.021,1.855 -2.339,3.38 -0.432,0.943 -0.666,1.527 -0.281,2.229 0.036,0.063 0.063,0.142 0.088,0.214 0.021,0.589 0.057,1.193 0.136,1.849 l 7.683,-1.412 c 1.666,-2.359 0.457,-5.301 -0.658,-6.239"
     id="path620" />
  <path
     style="fill:none;stroke:#231f20;stroke-width:0.565977;stroke-linecap:round;stroke-linejoin:round;stroke-miterlimit:4;stroke-dasharray:none;stroke-opacity:1"
     d="m 39.968175,74.181508 c -1.009,-0.849 -2.629,-1.098 -4.629,-0.021 -1.303,0.699 -2.021,1.855 -2.339,3.38 -0.432,0.943 -0.666,1.527 -0.281,2.229 0.036,0.063 0.063,0.142 0.088,0.214 0.021,0.589 0.057,1.193 0.136,1.849 l 7.683,-1.412 c 1.666,-2.359 0.457,-5.301 -0.658,-6.239 z"
     id="path621" />
  <path
     style="fill:#231f20;fill-opacity:1;fill-rule:nonzero;stroke:none"
     d="m 46.484175,111.97351 c 0.85,-0.677 -0.082,-1.526 -0.973,-2.36 -0.224,-0.218 -0.417,-0.432 -0.657,-0.62 -0.963,-0.76 -2.004,-0.817 -2.271,2.167 -0.009,0.109 -0.817,2.141 -1.135,2.672 -1.546,2.552 -2.204,2.027 -1.546,2.552 0.432,0.349 0.848,0.063 1.358,-0.301 0.694,-0.506 2.98,-2.486 3.35,-2.762 0.358,-0.27 1.874,-1.348 1.874,-1.348"
     id="path622" />
  <path
     style="fill:none;stroke:#231f20;stroke-width:0.565977;stroke-linecap:butt;stroke-linejoin:miter;stroke-miterlimit:4;stroke-dasharray:none;stroke-opacity:1"
     d="m 46.484175,111.97351 c 0.85,-0.677 -0.082,-1.526 -0.973,-2.36 -0.224,-0.218 -0.417,-0.432 -0.657,-0.62 -0.963,-0.76 -2.004,-0.817 -2.271,2.167 -0.009,0.109 -0.817,2.141 -1.135,2.672 -1.546,2.552 -2.204,2.027 -1.546,2.552 0.432,0.349 0.848,0.063 1.358,-0.301 0.694,-0.506 2.98,-2.486 3.35,-2.762 0.358,-0.27 1.874,-1.348 1.874,-1.348 z"
     id="path624" />
  <path
     style="fill:#ffffff;fill-opacity:1;fill-rule:nonzero;stroke:none"
     d="m 331.25518,52.920508 c 0.04,-0.244 1.18,-0.38 1.16,-0.905 -0.03,-0.527002 -0.8,-0.688002 -1.73,-2.448002 l -0.01,-0.016 c -0.64,-1.307 -1.72,-2.178 -2.98,-2.219 -2.07,-0.073 -3.83,2.161 -3.93,4.984002 -0.09,2.824 1.52,5.167 3.59,5.235 1.99,0.068 3.69,-1.979 3.9,-4.631"
     id="path626" />
  <path
     style="fill:none;stroke:#231f20;stroke-width:0.565977;stroke-linecap:butt;stroke-linejoin:miter;stroke-miterlimit:4;stroke-dasharray:none;stroke-opacity:1"
     d="m 331.25518,52.920508 c 0.04,-0.244 1.18,-0.38 1.16,-0.905 -0.03,-0.527002 -0.8,-0.688002 -1.73,-2.448002 l -0.01,-0.016 c -0.64,-1.307 -1.72,-2.178 -2.98,-2.219 -2.07,-0.073 -3.83,2.161 -3.93,4.984002 -0.09,2.824 1.52,5.167 3.59,5.235 1.99,0.068 3.69,-1.979 3.9,-4.631 z"
     id="path627" />
  <path
     style="fill:#fab41d;fill-opacity:1;fill-rule:nonzero;stroke:none"
     d="m 326.76518,70.952508 c 0.08,3.131 -0.25,3.812 -0.58,4.667 -2.13,5.374 0.55,6.317 3.37,5.718 3.32,-0.697 4.52,-0.88 3.76,-7.13 -0.22,-1.734 -0.16,-8.511 -0.16,-8.511 0.34,-2.421 -0.61,-4.968 -1.84,-5.755 -1.3,-0.828 -0.84,-0.406 -2.18,-0.953 -1.27,-0.525 -3.43,-0.208 -4.09,0.839 -0.63,1 0.13,2.489 0.94,4.77 0.64,1.803 0.78,6.355 0.78,6.355"
     id="path628" />
  <path
     style="fill:none;stroke:#231f20;stroke-width:0.565977;stroke-linecap:butt;stroke-linejoin:miter;stroke-miterlimit:4;stroke-dasharray:none;stroke-opacity:1"
     d="m 326.76518,70.952508 c 0.08,3.131 -0.25,3.812 -0.58,4.667 -2.13,5.374 0.55,6.317 3.37,5.718 3.32,-0.697 4.52,-0.88 3.76,-7.13 -0.22,-1.734 -0.16,-8.511 -0.16,-8.511 0.34,-2.421 -0.61,-4.968 -1.84,-5.755 -1.3,-0.828 -0.84,-0.406 -2.18,-0.953 -1.27,-0.525 -3.43,-0.208 -4.09,0.839 -0.63,1 0.13,2.489 0.94,4.77 0.64,1.803 0.78,6.355 0.78,6.355 z"
     id="path629" />
  <path
     style="fill:#231f20;fill-opacity:1;fill-rule:nonzero;stroke:none"
     d="m 318.51518,42.936506 c 0.58,0.292 1.33,2.089 2.47,3.224 0.76,0.76 1.75,3.328 2.58,4.032 0.75,0.645 1.03,1.015 0.45,2.005002 -0.36,0.588 -1.41,1.49 -1.86,1.244 -1.05,-0.557 -1.64,-1.301 -2.12,-2.254002 -0.55,-1.09 -1.77,-4.167 -1.94,-4.751 -0.42,-1.468 -1.03,-1.896 -1.17,-2.271 -0.29,-0.708 -0.09,-0.989 0.33,-1.27 0.8,-0.536 1.26,0.041 1.26,0.041"
     id="path630" />
  <path
     style="fill:none;stroke:#231f20;stroke-width:0.565977;stroke-linecap:butt;stroke-linejoin:miter;stroke-miterlimit:4;stroke-dasharray:none;stroke-opacity:1"
     d="m 318.51518,42.936506 c 0.58,0.292 1.33,2.089 2.47,3.224 0.76,0.76 1.75,3.328 2.58,4.032 0.75,0.645 1.03,1.015 0.45,2.005002 -0.36,0.588 -1.41,1.49 -1.86,1.244 -1.05,-0.557 -1.64,-1.301 -2.12,-2.254002 -0.55,-1.09 -1.77,-4.167 -1.94,-4.751 -0.42,-1.468 -1.03,-1.896 -1.17,-2.271 -0.29,-0.708 -0.09,-0.989 0.33,-1.27 0.8,-0.536 1.26,0.041 1.26,0.041 z"
     id="path631" />
  <path
     style="fill:#231f20;fill-opacity:1;fill-rule:nonzero;stroke:none"
     d="m 323.15518,50.723506 c 1.17,-0.531 1.66,1.442002 1.88,1.942002 0.2,0.5 0.96,1.86 1.68,2.844 0.73,0.99 1.22,2.526 2.6,4.402 0.72,0.989 0.8,2.405 -0.68,3.39 -1.45,0.979 -2.55,0.531 -3.25,-0.797 -0.7,-1.323 -0.79,-2.864 -1.4,-4.245 -0.61,-1.386 -1.36,-2.734 -2,-3.771 -0.72,-1.177 -0.64,-2.025 -0.37,-2.416 0.7,-0.975002 1.54,-1.349002 1.54,-1.349002"
     id="path632" />
  <path
     style="fill:none;stroke:#231f20;stroke-width:0.565977;stroke-linecap:butt;stroke-linejoin:miter;stroke-miterlimit:4;stroke-dasharray:none;stroke-opacity:1"
     d="m 323.15518,50.723506 c 1.17,-0.531 1.66,1.442002 1.88,1.942002 0.2,0.5 0.96,1.86 1.68,2.844 0.73,0.99 1.22,2.526 2.6,4.402 0.72,0.989 0.8,2.405 -0.68,3.39 -1.45,0.979 -2.55,0.531 -3.25,-0.797 -0.7,-1.323 -0.79,-2.864 -1.4,-4.245 -0.61,-1.386 -1.36,-2.734 -2,-3.771 -0.72,-1.177 -0.64,-2.025 -0.37,-2.416 0.7,-0.975002 1.54,-1.349002 1.54,-1.349002 z"
     id="path633" />
  <path
     style="fill:#231f20;fill-opacity:1;fill-rule:nonzero;stroke:none"
     d="m 315.04518,36.916506 c 0.56,0.463 2.2,3.265 2.55,3.927 0.32,0.588 1.15,1.385 0.46,2.317 -0.28,0.371 -0.95,0.724 -1.26,0.792 -0.25,0.063 -0.49,-0.167 -0.64,-0.536 -0.25,-0.615 -0.09,-0.885 -0.52,-2.095 0,0 -0.05,-0.301 -0.12,-0.844 -0.21,-1.618 0.03,-0.926 -0.8,-3.197 -0.05,-0.167 0.07,-0.344 0.18,-0.375 0.17,-0.046 0.15,0.011 0.15,0.011"
     id="path634" />
  <path
     style="fill:none;stroke:#231f20;stroke-width:0.565977;stroke-linecap:round;stroke-linejoin:round;stroke-miterlimit:4;stroke-dasharray:none;stroke-opacity:1"
     d="m 315.04518,36.916506 c 0.56,0.463 2.2,3.265 2.55,3.927 0.32,0.588 1.15,1.385 0.46,2.317 -0.28,0.371 -0.95,0.724 -1.26,0.792 -0.25,0.063 -0.49,-0.167 -0.64,-0.536 -0.25,-0.615 -0.09,-0.885 -0.52,-2.095 0,0 -0.05,-0.301 -0.12,-0.844 -0.21,-1.618 0.03,-0.926 -0.8,-3.197 -0.05,-0.167 0.07,-0.344 0.18,-0.375 0.17,-0.046 0.15,0.011 0.15,0.011 z"
     id="path635" />
  <path
     style="fill:#231f20;fill-opacity:1;fill-rule:nonzero;stroke:none"
     d="m 329.19518,96.655508 c -2.23,-0.396 -2.71,-0.172 -2.95,0.756 -0.15,0.618 -0.5,1.14 -0.62,1.514 -0.37,1.246002 -0.47,3.486002 0.86,9.934002 0.31,1.457 0.73,3.514 0.83,4.364 0.16,1.349 2.29,0.166 2.23,-0.359 -0.18,-1.704 -0.18,-2.896 -0.15,-3.516 0,-0.428 -0.08,-1.188 0.18,-2.833 0.39,-2.495 1,-3.932 1.09,-6.042 0.04,-0.980002 0.69,-1.698002 0.24,-2.682002 -0.45,-0.984 -1.71,-1.136 -1.71,-1.136"
     id="path636" />
  <path
     style="fill:none;stroke:#231f20;stroke-width:0.565977;stroke-linecap:butt;stroke-linejoin:miter;stroke-miterlimit:4;stroke-dasharray:none;stroke-opacity:1"
     d="m 329.19518,96.655508 c -2.23,-0.396 -2.71,-0.172 -2.95,0.756 -0.15,0.618 -0.5,1.14 -0.62,1.514 -0.37,1.246002 -0.47,3.486002 0.86,9.934002 0.31,1.457 0.73,3.514 0.83,4.364 0.16,1.349 2.29,0.166 2.23,-0.359 -0.18,-1.704 -0.18,-2.896 -0.15,-3.516 0,-0.428 -0.08,-1.188 0.18,-2.833 0.39,-2.495 1,-3.932 1.09,-6.042 0.04,-0.980002 0.69,-1.698002 0.24,-2.682002 -0.45,-0.984 -1.71,-1.136 -1.71,-1.136 z"
     id="path637" />
  <path
     style="fill:#231f20;fill-opacity:1;fill-rule:nonzero;stroke:#231f20;stroke-width:0.565977;stroke-linecap:round;stroke-linejoin:miter;stroke-miterlimit:4;stroke-dasharray:none;stroke-opacity:1"
     d="m 330.64518,98.681508 c 1.03,-0.87 0.67,-2.86 0.75,-3.177 1.32,-4.833 1.29,-5.219 2.04,-8.969 1.08,-5.416 0.99,-9.296 -1.99,-10.843 -2.01,-1.052 -3.63,-0.781 -4.62,0.077 -1.11,0.959 -2.28,3.907 -0.59,6.246 l 0.13,1.708 c -0.06,1.161 -0.08,1.734 -0.16,2.306 -0.14,0.996 -0.22,2.068 -0.37,4.016 -0.27,3.459 0.58,7.208 0.58,7.208 -0.01,0.314 0.09,0.574 0.26,0.787"
     id="path638" />
  <path
     style="fill:#fab41d;fill-opacity:1;fill-rule:nonzero;stroke:none"
     d="m 333.83518,79.035508 c -0.34,-1.515 -1.08,-2.662 -2.39,-3.343 -2.01,-1.052 -3.63,-0.781 -4.62,0.077 -1.11,0.959 -2.28,3.907 -0.59,6.246 l 7.71,1.312 c 0.07,-0.651 0.1,-1.26 0.1,-1.844 0.03,-0.078 0.06,-0.151 0.09,-0.214 0.38,-0.713 0.14,-1.292 -0.3,-2.234"
     id="path639" />
  <path
     style="fill:none;stroke:#231f20;stroke-width:0.565977;stroke-linecap:round;stroke-linejoin:round;stroke-miterlimit:4;stroke-dasharray:none;stroke-opacity:1"
     d="m 333.83518,79.035508 c -0.34,-1.515 -1.08,-2.662 -2.39,-3.343 -2.01,-1.052 -3.63,-0.781 -4.62,0.077 -1.11,0.959 -2.28,3.907 -0.59,6.246 l 7.71,1.312 c 0.07,-0.651 0.1,-1.26 0.1,-1.844 0.03,-0.078 0.06,-0.151 0.09,-0.214 0.38,-0.713 0.14,-1.292 -0.3,-2.234 z"
     id="path640" />
  <path
     style="fill:#231f20;fill-opacity:1;fill-rule:nonzero;stroke:none"
     d="m 327.58518,116.45751 c -1.07,-0.057 -0.81,-1.286 -0.57,-2.489 0.06,-0.303 0.09,-0.589 0.17,-0.881 0.33,-1.176 1.15,-1.834 3.11,0.438 0.07,0.083 1.91,1.271 2.48,1.515 2.74,1.172 2.97,0.36 2.74,1.172 -0.15,0.537 -0.66,0.547 -1.29,0.541 -0.85,-0.004 -3.86,-0.276 -4.32,-0.29 -0.45,-0.011 -2.32,-0.006 -2.32,-0.006"
     id="path641" />
  <path
     style="fill:none;stroke:#231f20;stroke-width:0.565977;stroke-linecap:butt;stroke-linejoin:miter;stroke-miterlimit:4;stroke-dasharray:none;stroke-opacity:1"
     d="m 327.58518,116.45751 c -1.07,-0.057 -0.81,-1.286 -0.57,-2.489 0.06,-0.303 0.09,-0.589 0.17,-0.881 0.33,-1.176 1.15,-1.834 3.11,0.438 0.07,0.083 1.91,1.271 2.48,1.515 2.74,1.172 2.97,0.36 2.74,1.172 -0.15,0.537 -0.66,0.547 -1.29,0.541 -0.85,-0.004 -3.86,-0.276 -4.32,-0.29 -0.45,-0.011 -2.32,-0.006 -2.32,-0.006 z"
     id="path643" />
  <path
     style="fill:#231f20;fill-opacity:1;fill-rule:nonzero;stroke:#231f20;stroke-width:0.565977;stroke-linecap:round;stroke-linejoin:round;stroke-miterlimit:4;stroke-dasharray:none;stroke-opacity:1"
     d="m 79.312175,30.791506 c 0,0 1.276,0.338 2.131,1.134 0.849,0.792 1.416,2.016 1.416,2.016 l -2.203,2.454 -3.562,-3.198 z"
     id="path645" />
  <path
     style="fill:#231f20;fill-opacity:1;fill-rule:nonzero;stroke:none"
     d="m 73.000175,45.515506 c 3.058,1.921 1.902,3.14 0.646,7.025002 -1.37,4.245 -3.255,8.521 -5.406,11.027 -2.406,2.796 -2.146,3.244 -4.021,2.833 -1.875,-0.412 -1.729,-1.177 -2.26,-2.349 -0.62,-1.359 3.891,-7.167 5.192,-11.74 0.609,-2.140002 0.677,-7.667002 2.131,-7.604002 1.453,0.062 3.718,0.808 3.718,0.808"
     id="path646" />
  <path
     style="fill:none;stroke:#231f20;stroke-width:0.565977;stroke-linecap:butt;stroke-linejoin:miter;stroke-miterlimit:4;stroke-dasharray:none;stroke-opacity:1"
     d="m 73.000175,45.515506 c 3.058,1.921 1.902,3.14 0.646,7.025002 -1.37,4.245 -3.255,8.521 -5.406,11.027 -2.406,2.796 -2.146,3.244 -4.021,2.833 -1.875,-0.412 -1.729,-1.177 -2.26,-2.349 -0.62,-1.359 3.891,-7.167 5.192,-11.74 0.609,-2.140002 0.677,-7.667002 2.131,-7.604002 1.453,0.062 3.718,0.808 3.718,0.808 z"
     id="path647" />
  <path
     style="fill:#231f20;fill-opacity:1;fill-rule:nonzero;stroke:none"
     d="m 64.058175,64.149508 c 2.145,0.74 2.781,0.923 1.604,3.131 -0.303,0.563 -1.251,2.068 -1.334,2.443 -0.276,1.27 -0.702,2.718 -5.005,7.702 -0.667,0.776 -1.683,2.47 -2.505,3.61 -0.798,1.1 -2.083,-0.963 -1.776,-1.4 0.984,-1.402 1.317,-2.522 1.604,-3.074 0.198,-0.374 0.682,-1.026 1.062,-2.641 0.979,-4.167 2.62,-4.911 2.902,-5.765 0.806,-2.454 0.989,-4.714 1.656,-4.75 1.084,-0.057 1.792,0.744 1.792,0.744"
     id="path648" />
  <path
     style="fill:none;stroke:#231f20;stroke-width:0.565977;stroke-linecap:butt;stroke-linejoin:miter;stroke-miterlimit:4;stroke-dasharray:none;stroke-opacity:1"
     d="m 64.058175,64.149508 c 2.145,0.74 2.781,0.923 1.604,3.131 -0.303,0.563 -1.251,2.068 -1.334,2.443 -0.276,1.27 -0.702,2.718 -5.005,7.702 -0.667,0.776 -1.683,2.47 -2.505,3.61 -0.798,1.1 -2.083,-0.963 -1.776,-1.4 0.984,-1.402 1.317,-2.522 1.604,-3.074 0.198,-0.374 0.682,-1.026 1.062,-2.641 0.979,-4.167 2.62,-4.911 2.902,-5.765 0.806,-2.454 0.989,-4.714 1.656,-4.75 1.084,-0.057 1.792,0.744 1.792,0.744 z"
     id="path649" />
  <path
     style="fill:#231f20;fill-opacity:1;fill-rule:nonzero;stroke:none"
     d="m 67.902175,42.416506 c -3.47,-0.991 -3.61,0.687 -5.662,4.213 -2.24,3.848 -4.168,8.115002 -4.589,11.386002 -0.479,3.656 -0.984,3.765 0.573,4.885 1.558,1.125 2.031,0.505 3.26,0.115 1.423,-0.448 2.73,-7.688 5.266,-11.704002 1.188,-1.886 5.256,-5.63 4.24,-6.671 -1.022,-1.037 -3.088,-2.224 -3.088,-2.224"
     id="path650" />
  <path
     style="fill:none;stroke:#231f20;stroke-width:0.565977;stroke-linecap:butt;stroke-linejoin:miter;stroke-miterlimit:4;stroke-dasharray:none;stroke-opacity:1"
     d="m 67.902175,42.416506 c -3.47,-0.991 -3.61,0.687 -5.662,4.213 -2.24,3.848 -4.168,8.115002 -4.589,11.386002 -0.479,3.656 -0.984,3.765 0.573,4.885 1.558,1.125 2.031,0.505 3.26,0.115 1.423,-0.448 2.73,-7.688 5.266,-11.704002 1.188,-1.886 5.256,-5.63 4.24,-6.671 -1.022,-1.037 -3.088,-2.224 -3.088,-2.224 z"
     id="path651" />
  <path
     style="fill:#fab41d;fill-opacity:1;fill-rule:nonzero;stroke:none"
     d="m 64.364175,51.009506 c 0.371,0.328 1.11,0.416 1.11,0.416 0,0 4.401,-3.838 7.437,-3.14 l 0.276,0.23 c 0.095,1.244 0.469,-1.136 0.975,-1.683 2.218,-2.375 6.505,-5.145 7.77,-5.568 1.74,-0.583 3.995,0.761 4.47,-1.348 0,0 0.776,-1.787 -1.538,-3.381 -0.838,-0.578 -2.005,-2.588 -2.005,-2.588 -0.02,0.03 -0.041,0.068 -0.067,0.098 -0.838,0.932 -2.109,0.751 -3.114,-0.129 l 0.052,0.052 c -0.98,-0.912 -1.256,-2.204 -0.459,-3.089 0.025,-0.026 0.057,-0.052 0.093,-0.078 0,0 -2.124,-0.942 -2.79,-1.714 -1.83,-2.13 -3.658,-0.927 -3.658,-0.927 -2.052,0.693 -0.338,2.552 -0.729,4.344 -0.291,1.303 -2.588,5.859 -4.713,8.317 -0.484,0.563 -2.818,1.188 -1.567,1.152 l 0.26,0.25 c 1.016,2.942 -2.333,7.729 -2.333,7.729 0,0 0.166,0.724 0.53,1.057"
     id="path652" />
  <path
     style="fill:none;stroke:#231f20;stroke-width:0.565977;stroke-linecap:round;stroke-linejoin:round;stroke-miterlimit:4;stroke-dasharray:none;stroke-opacity:1"
     d="m 64.364175,51.009506 c 0.371,0.328 1.11,0.416 1.11,0.416 0,0 4.401,-3.838 7.437,-3.14 l 0.276,0.23 c 0.095,1.244 0.469,-1.136 0.975,-1.683 2.218,-2.375 6.505,-5.145 7.77,-5.568 1.74,-0.583 3.995,0.761 4.47,-1.348 0,0 0.776,-1.787 -1.538,-3.381 -0.838,-0.578 -2.005,-2.588 -2.005,-2.588 -0.02,0.03 -0.041,0.068 -0.067,0.098 -0.838,0.932 -2.109,0.751 -3.114,-0.129 l 0.052,0.052 c -0.98,-0.912 -1.256,-2.204 -0.459,-3.089 0.025,-0.026 0.057,-0.052 0.093,-0.078 0,0 -2.124,-0.942 -2.79,-1.714 -1.83,-2.13 -3.658,-0.927 -3.658,-0.927 -2.052,0.693 -0.338,2.552 -0.729,4.344 -0.291,1.303 -2.588,5.859 -4.713,8.317 -0.484,0.563 -2.818,1.188 -1.567,1.152 l 0.26,0.25 c 1.016,2.942 -2.333,7.729 -2.333,7.729 0,0 0.166,0.724 0.53,1.057 z"
     id="path653" />
  <path
     style="fill:#ffffff;fill-opacity:1;fill-rule:nonzero;stroke:none"
     d="m 82.000175,25.791506 c -1.89,2.098 -2.177,4.926 -0.636,6.317 1.543,1.391 4.323,0.817 6.219,-1.276 1.891,-2.099 2.177,-4.927 0.631,-6.317 -1.542,-1.391 -4.323,-0.819 -6.214,1.276"
     id="path654" />
  <path
     style="fill:none;stroke:#231f20;stroke-width:0.565977;stroke-linecap:butt;stroke-linejoin:miter;stroke-miterlimit:4;stroke-dasharray:none;stroke-opacity:1"
     d="m 82.000175,25.791506 c -1.89,2.098 -2.177,4.926 -0.636,6.317 1.543,1.391 4.323,0.817 6.219,-1.276 1.891,-2.099 2.177,-4.927 0.631,-6.317 -1.542,-1.391 -4.323,-0.819 -6.214,1.276 z"
     id="path655" />
  <path
     style="fill:#231f20;fill-opacity:1;fill-rule:nonzero;stroke:none"
     d="m 59.990175,61.499508 c -1.984,-1.094 -2.547,-1.438 -3.391,0.917 -0.219,0.599 -0.692,2.312 -0.921,2.629 -0.751,1.052 -1.532,2.344 -2.339,8.88 -0.12,1.016 -0.693,2.907 -0.98,4.282 -0.281,1.328 2.109,0.896 2.229,0.376 0.375,-1.678 0.98,-2.672 1.194,-3.256 0.15,-0.402 0.301,-1.192 1.244,-2.563 2.428,-3.525 1.87,-5.239 2.313,-6.02 1.276,-2.245 2.833,-3.907 2.411,-4.423 -0.692,-0.838 -1.76,-0.822 -1.76,-0.822"
     id="path656" />
  <path
     style="fill:none;stroke:#231f20;stroke-width:0.565977;stroke-linecap:butt;stroke-linejoin:miter;stroke-miterlimit:4;stroke-dasharray:none;stroke-opacity:1"
     d="m 59.990175,61.499508 c -1.984,-1.094 -2.547,-1.438 -3.391,0.917 -0.219,0.599 -0.692,2.312 -0.921,2.629 -0.751,1.052 -1.532,2.344 -2.339,8.88 -0.12,1.016 -0.693,2.907 -0.98,4.282 -0.281,1.328 2.109,0.896 2.229,0.376 0.375,-1.678 0.98,-2.672 1.194,-3.256 0.15,-0.402 0.301,-1.192 1.244,-2.563 2.428,-3.525 1.87,-5.239 2.313,-6.02 1.276,-2.245 2.833,-3.907 2.411,-4.423 -0.692,-0.838 -1.76,-0.822 -1.76,-0.822 z"
     id="path657" />
  <path
     style="fill:#231f20;fill-opacity:1;fill-rule:nonzero;stroke:none"
     d="m 83.630175,22.321506 c 0.802,1.016 -1,1.97 -1.432,2.292 -0.438,0.323 -1.572,1.386 -2.354,2.328 -0.781,0.943 -2.157,1.787 -3.646,3.574 -0.782,0.937 -2.14,1.358 -3.454,0.166 -1.301,-1.177 -1.129,-2.354 -0.009,-3.349 1.115,-0.995 2.583,-1.459 3.785,-2.38 1.194,-0.927 2.33,-1.979 3.178,-2.844 0.969,-0.995 1.813,-1.12 2.261,-0.948 1.109,0.437 1.671,1.161 1.671,1.161"
     id="path658" />
  <path
     style="fill:none;stroke:#231f20;stroke-width:0.565977;stroke-linecap:butt;stroke-linejoin:miter;stroke-miterlimit:4;stroke-dasharray:none;stroke-opacity:1"
     d="m 83.630175,22.321506 c 0.802,1.016 -1,1.97 -1.432,2.292 -0.438,0.323 -1.572,1.386 -2.354,2.328 -0.781,0.943 -2.157,1.787 -3.646,3.574 -0.782,0.937 -2.14,1.358 -3.454,0.166 -1.301,-1.177 -1.129,-2.354 -0.009,-3.349 1.115,-0.995 2.583,-1.459 3.785,-2.38 1.194,-0.927 2.33,-1.979 3.178,-2.844 0.969,-0.995 1.813,-1.12 2.261,-0.948 1.109,0.437 1.671,1.161 1.671,1.161 z"
     id="path659" />
  <path
     style="fill:#231f20;fill-opacity:1;fill-rule:nonzero;stroke:none"
     d="m 90.995175,18.395506 c -0.62,-0.172 -2.375,0.666 -3.984,0.749 -1.084,0.053 -3.532,1.303 -4.615,1.272 -0.99,-0.016 -1.448,0.061 -1.672,1.197 -0.13,0.667 0.052,2.042 0.547,2.162 1.156,0.281 2.093,0.13 3.088,-0.26 1.131,-0.438 4.095,-1.918 4.62,-2.24 1.292,-0.802 2.027,-0.719 2.391,-0.902 0.677,-0.338 0.718,-0.681 0.593,-1.172 -0.233,-0.926 -0.968,-0.806 -0.968,-0.806"
     id="path660" />
  <path
     style="fill:none;stroke:#231f20;stroke-width:0.565977;stroke-linecap:butt;stroke-linejoin:miter;stroke-miterlimit:4;stroke-dasharray:none;stroke-opacity:1"
     d="m 90.995175,18.395506 c -0.62,-0.172 -2.375,0.666 -3.984,0.749 -1.084,0.053 -3.532,1.303 -4.615,1.272 -0.99,-0.016 -1.448,0.061 -1.672,1.197 -0.13,0.667 0.052,2.042 0.547,2.162 1.156,0.281 2.093,0.13 3.088,-0.26 1.131,-0.438 4.095,-1.918 4.62,-2.24 1.292,-0.802 2.027,-0.719 2.391,-0.902 0.677,-0.338 0.718,-0.681 0.593,-1.172 -0.233,-0.926 -0.968,-0.806 -0.968,-0.806 z"
     id="path661" />
  <path
     style="fill:#231f20;fill-opacity:1;fill-rule:nonzero;stroke:none"
     d="m 97.850176,16.764506 c -0.72,-0.109 -3.907001,0.527 -4.631001,0.704 -0.645,0.156 -1.797,0.067 -2.032,1.197 -0.093,0.454 0.084,1.188 0.24,1.47 0.125,0.228 0.453,0.254 0.828,0.124 0.631,-0.219 0.724,-0.526 1.907,-1.01 0,0 0.26,-0.157 0.718,-0.464 1.344,-0.921 0.667,-0.645 2.916001,-1.536 0.163,-0.062 0.215,-0.272 0.163,-0.376 -0.084,-0.161 -0.109,-0.109 -0.109,-0.109"
     id="path662" />
  <path
     style="fill:none;stroke:#231f20;stroke-width:0.565977;stroke-linecap:round;stroke-linejoin:round;stroke-miterlimit:4;stroke-dasharray:none;stroke-opacity:1"
     d="m 97.850176,16.764506 c -0.72,-0.109 -3.907001,0.527 -4.631001,0.704 -0.645,0.156 -1.797,0.067 -2.032,1.197 -0.093,0.454 0.084,1.188 0.24,1.47 0.125,0.228 0.453,0.254 0.828,0.124 0.631,-0.219 0.724,-0.526 1.907,-1.01 0,0 0.26,-0.157 0.718,-0.464 1.344,-0.921 0.667,-0.645 2.916001,-1.536 0.163,-0.062 0.215,-0.272 0.163,-0.376 -0.084,-0.161 -0.109,-0.109 -0.109,-0.109 z"
     id="path663" />
  <path
     style="fill:#231f20;fill-opacity:1;fill-rule:nonzero;stroke:none"
     d="m 92.402175,30.029506 c -0.97,-0.858 -2.022,0.887 -2.366,1.303 -0.349,0.417 -1.473,1.495 -2.458,2.219 -0.984,0.729 -1.9,2.057 -3.771,3.442 -0.984,0.73 -1.479,2.063 -0.359,3.438 1.104,1.365 2.291,1.261 3.344,0.198 1.058,-1.062 1.599,-2.5 2.588,-3.646 0.99,-1.146 2.104,-2.214 3.016,-3.015 1.047,-0.912 1.219,-1.745 1.072,-2.199 -0.374,-1.134 -1.066,-1.74 -1.066,-1.74"
     id="path664" />
  <path
     style="fill:none;stroke:#231f20;stroke-width:0.565977;stroke-linecap:butt;stroke-linejoin:miter;stroke-miterlimit:4;stroke-dasharray:none;stroke-opacity:1"
     d="m 92.402175,30.029506 c -0.97,-0.858 -2.022,0.887 -2.366,1.303 -0.349,0.417 -1.473,1.495 -2.458,2.219 -0.984,0.729 -1.9,2.057 -3.771,3.442 -0.984,0.73 -1.479,2.063 -0.359,3.438 1.104,1.365 2.291,1.261 3.344,0.198 1.058,-1.062 1.599,-2.5 2.588,-3.646 0.99,-1.146 2.104,-2.214 3.016,-3.015 1.047,-0.912 1.219,-1.745 1.072,-2.199 -0.374,-1.134 -1.066,-1.74 -1.066,-1.74 z"
     id="path665" />
  <path
     style="fill:#231f20;fill-opacity:1;fill-rule:nonzero;stroke:none"
     d="m 99.339176,24.004506 c -0.052,0.645 -1.437,2.011 -2.057,3.495 -0.423001,1 -2.423001,2.88 -2.771001,3.906 -0.313,0.943 -0.548,1.344 -1.688,1.167 -0.672,-0.104 -1.907,-0.74 -1.849,-1.245 0.125,-1.187 0.589,-2.011 1.292,-2.818 0.802,-0.917 3.193,-3.202 3.672,-3.589 1.197001,-0.943 1.364001,-1.656 1.661001,-1.937 0.547,-0.526 0.885,-0.448 1.303,-0.167 0.79,0.543 0.437,1.188 0.437,1.188"
     id="path666" />
  <path
     style="fill:none;stroke:#231f20;stroke-width:0.565977;stroke-linecap:butt;stroke-linejoin:miter;stroke-miterlimit:4;stroke-dasharray:none;stroke-opacity:1"
     d="m 99.339176,24.004506 c -0.052,0.645 -1.437,2.011 -2.057,3.495 -0.423001,1 -2.423001,2.88 -2.771001,3.906 -0.313,0.943 -0.548,1.344 -1.688,1.167 -0.672,-0.104 -1.907,-0.74 -1.849,-1.245 0.125,-1.187 0.589,-2.011 1.292,-2.818 0.802,-0.917 3.193,-3.202 3.672,-3.589 1.197001,-0.943 1.364001,-1.656 1.661001,-1.937 0.547,-0.526 0.885,-0.448 1.303,-0.167 0.79,0.543 0.437,1.188 0.437,1.188 z"
     id="path667" />
  <path
     style="fill:#231f20;fill-opacity:1;fill-rule:nonzero;stroke:none"
     d="m 103.19218,18.108506 c -0.14,0.713 -1.822,3.5 -2.233,4.12 -0.365,0.557 -0.672,1.667 -1.813004,1.505 -0.463,-0.068 -1.088,-0.484 -1.302,-0.724 -0.172,-0.198 -0.089,-0.51 0.167,-0.822 0.416,-0.522 0.739,-0.506 1.593,-1.454 0,0 0.235,-0.193 0.683004,-0.516 1.323,-0.953 0.833,-0.406 2.432,-2.224 0.115,-0.129 0.328,-0.104 0.407,-0.02 0.124,0.13 0.066,0.135 0.066,0.135"
     id="path668" />
  <path
     style="fill:none;stroke:#231f20;stroke-width:0.565977;stroke-linecap:round;stroke-linejoin:round;stroke-miterlimit:4;stroke-dasharray:none;stroke-opacity:1"
     d="m 103.19218,18.108506 c -0.14,0.713 -1.822,3.5 -2.233,4.12 -0.365,0.557 -0.672,1.667 -1.813004,1.505 -0.463,-0.068 -1.088,-0.484 -1.302,-0.724 -0.172,-0.198 -0.089,-0.51 0.167,-0.822 0.416,-0.522 0.739,-0.506 1.593,-1.454 0,0 0.235,-0.193 0.683004,-0.516 1.323,-0.953 0.833,-0.406 2.432,-2.224 0.115,-0.129 0.328,-0.104 0.407,-0.02 0.124,0.13 0.066,0.135 0.066,0.135 z"
     id="path669" />
  <path
     style="fill:#fab41d;fill-opacity:1;fill-rule:nonzero;stroke:none"
     d="m 66.479175,41.373506 c -0.317,0.152 -1.453,0.912 -1.807,1.21 -2.266,1.921 -4.052,5.442 -4.876,6.416 -0.828,0.974 5.016,4.021002 5.016,4.021002 l 1.314,-1.448002 c 0.192,0.593002 0.869,0.473002 0.869,0.473002 l -0.527,1.948 c 0,0 5.579,3.26 5.918,2.308 0.468,-1.313 2.573,-5.433002 2.812,-7.870002 0.136,-1.339 -0.235,-2.296 -0.235,-2.296 0,0 -3.723,-0.762 -4.984,-1.434 -1.255,-0.672 -3.5,-3.328 -3.5,-3.328"
     id="path670" />
  <path
     style="fill:none;stroke:#231f20;stroke-width:0.565977;stroke-linecap:round;stroke-linejoin:round;stroke-miterlimit:4;stroke-dasharray:none;stroke-opacity:1"
     d="m 66.479175,41.373506 c -0.317,0.152 -1.453,0.912 -1.807,1.21 -2.266,1.921 -4.052,5.442 -4.876,6.416 -0.828,0.974 5.016,4.021002 5.016,4.021002 l 1.314,-1.448002 c 0.192,0.593002 0.869,0.473002 0.869,0.473002 l -0.527,1.948 c 0,0 5.579,3.26 5.918,2.308 0.468,-1.313 2.573,-5.433002 2.812,-7.870002 0.136,-1.339 -0.235,-2.296 -0.235,-2.296 0,0 -3.723,-0.762 -4.984,-1.434 -1.255,-0.672 -3.5,-3.328 -3.5,-3.328 z"
     id="path671" />
  <path
     style="fill:#231f20;fill-opacity:1;fill-rule:nonzero;stroke:none"
     d="m 48.968175,82.373508 c -0.077,-0.661 1.506,-1.52 2.188,-3.369 0.136,-0.38 0.427,-0.62 0.672,-0.896 0.995,-1.14 2.516,-1.625 2.156,2.188 -0.052,0.531 -1.093,2.348 -1.104,3.135 -0.026,1.865 -2.505,4.078 -2.926,3.781 -0.928,-0.629 -0.986,-4.839 -0.986,-4.839"
     id="path672" />
  <path
     style="fill:none;stroke:#231f20;stroke-width:0.644548;stroke-linecap:round;stroke-linejoin:round;stroke-miterlimit:4;stroke-dasharray:none;stroke-opacity:1"
     d="m 48.968175,82.373508 c -0.077,-0.661 1.506,-1.52 2.188,-3.369 0.136,-0.38 0.427,-0.62 0.672,-0.896 0.995,-1.14 2.516,-1.625 2.156,2.188 -0.052,0.531 -1.093,2.348 -1.104,3.135 -0.026,1.865 -2.505,4.078 -2.926,3.781 -0.928,-0.629 -0.986,-4.839 -0.986,-4.839 z"
     id="path673" />
  <path
     style="fill:#231f20;fill-opacity:1;fill-rule:nonzero;stroke:none"
     d="m 56.011175,86.025508 c 0.489,-0.448 -0.131,-2.141 0.572,-3.98 0.147,-0.374 0.084,-0.749 0.084,-1.12 0,-1.509 -0.828,-2.874 -3.068,0.23 -0.307,0.432 -0.719,2.489 -1.224,3.089 -1.213,1.416 -0.807,4.713 -0.287,4.771 1.11,0.134 3.923,-2.99 3.923,-2.99"
     id="path674" />
  <path
     style="fill:none;stroke:#231f20;stroke-width:0.644548;stroke-linecap:round;stroke-linejoin:round;stroke-miterlimit:4;stroke-dasharray:none;stroke-opacity:1"
     d="m 56.011175,86.025508 c 0.489,-0.448 -0.131,-2.141 0.572,-3.98 0.147,-0.374 0.084,-0.749 0.084,-1.12 0,-1.509 -0.828,-2.874 -3.068,0.23 -0.307,0.432 -0.719,2.489 -1.224,3.089 -1.213,1.416 -0.807,4.713 -0.287,4.771 1.11,0.134 3.923,-2.99 3.923,-2.99 z"
     id="path675" />
  <path
     style="fill:none;stroke:#231f20;stroke-width:0.49806;stroke-linecap:butt;stroke-linejoin:miter;stroke-miterlimit:4;stroke-dasharray:none;stroke-opacity:1"
     d="m 55.760175,45.759506 c 36.266,-13.646 26.115,5.464 26.115,5.464"
     id="path676" />
  <path
     style="fill:#231f20;fill-opacity:1;fill-rule:nonzero;stroke:none"
     d="m 81.172175,52.551508 c 0.099,-0.75 0.115,-1.740002 -0.046,-2.438002 l 0.842,0.932 1.251,0.178 c -0.677,0.26 -1.484,0.822002 -2.047,1.328002"
     id="path677" />
  <path
     style="fill:#fab41d;fill-opacity:1;fill-rule:nonzero;stroke:none"
     d="m 266.36518,45.379506 c 1.73,2.62 3.36,4.281 3.93,5.005 1.98,2.505002 4.44,3.432002 6.52,1.432002 2.44,-2.339002 1.77,-5.077002 -0.95,-8.229002 -1.15,-1.328 -2.95,-4.88 -2.95,-4.88 -1.1,-3.052 -0.87,-4.042 -3.63,-4.187 -1.54,-0.084 -3.23,-1.833 -4.63,-1.469 -2.58,0.698 -3.12,1.693 -3.03,2.88 0.08,1.182 0.8,2.261 1.81,4.464 0.97,2.114 2.93,4.984 2.93,4.984"
     id="path678" />
  <path
     style="fill:none;stroke:#231f20;stroke-width:0.565977;stroke-linecap:butt;stroke-linejoin:miter;stroke-miterlimit:4;stroke-dasharray:none;stroke-opacity:1"
     d="m 266.36518,45.379506 c 1.73,2.62 3.36,4.281 3.93,5.005 1.98,2.505002 4.44,3.432002 6.52,1.432002 2.44,-2.339002 1.77,-5.077002 -0.95,-8.229002 -1.15,-1.328 -2.95,-4.88 -2.95,-4.88 -1.1,-3.052 -0.87,-4.042 -3.63,-4.187 -1.54,-0.084 -3.23,-1.833 -4.63,-1.469 -2.58,0.698 -3.12,1.693 -3.03,2.88 0.08,1.182 0.8,2.261 1.81,4.464 0.97,2.114 2.93,4.984 2.93,4.984 z"
     id="path679" />
  <path
     style="fill:#ffffff;fill-opacity:1;fill-rule:nonzero;stroke:none"
     d="m 265.41518,27.676506 c -0.01,-0.251 1.09,-0.573 0.99,-1.084 -0.11,-0.515 -0.91,-0.547 -2.11,-2.129 l -0.01,-0.022 c -0.85,-1.182 -2.07,-1.869 -3.31,-1.697 -2.06,0.271 -3.42,2.76 -3.06,5.557 0.37,2.796 2.34,4.843 4.4,4.583 1.97,-0.255 3.31,-2.557 3.1,-5.208"
     id="path680" />
  <path
     style="fill:none;stroke:#231f20;stroke-width:0.565977;stroke-linecap:butt;stroke-linejoin:miter;stroke-miterlimit:4;stroke-dasharray:none;stroke-opacity:1"
     d="m 265.41518,27.676506 c -0.01,-0.251 1.09,-0.573 0.99,-1.084 -0.11,-0.515 -0.91,-0.547 -2.11,-2.129 l -0.01,-0.022 c -0.85,-1.182 -2.07,-1.869 -3.31,-1.697 -2.06,0.271 -3.42,2.76 -3.06,5.557 0.37,2.796 2.34,4.843 4.4,4.583 1.97,-0.255 3.31,-2.557 3.1,-5.208 z"
     id="path681" />
  <path
     style="fill:#231f20;fill-opacity:1;fill-rule:nonzero;stroke:none"
     d="m 289.79518,41.468506 c -1.38,1.791 -1.4,2.328 -0.68,2.957 0.48,0.423 0.77,0.975 1.05,1.246 0.93,0.912 2.88,2.046 9.21,3.828 1.43,0.401 3.45,0.984 4.25,1.292 1.28,0.468 1.21,-1.964 0.7,-2.156 -1.59,-0.626 -2.63,-1.178 -3.18,-1.48 -0.37,-0.208 -1.08,-0.479 -2.43,-1.474 -2.02,-1.505 -3.02,-2.704 -4.86,-3.756 -0.84,-0.489 -1.17,-1.394 -2.26,-1.442 -1.08,-0.067 -1.8,0.985 -1.8,0.985"
     id="path682" />
  <path
     style="fill:none;stroke:#231f20;stroke-width:0.565977;stroke-linecap:butt;stroke-linejoin:miter;stroke-miterlimit:4;stroke-dasharray:none;stroke-opacity:1"
     d="m 289.79518,41.468506 c -1.38,1.791 -1.4,2.328 -0.68,2.957 0.48,0.423 0.77,0.975 1.05,1.246 0.93,0.912 2.88,2.046 9.21,3.828 1.43,0.401 3.45,0.984 4.25,1.292 1.28,0.468 1.21,-1.964 0.7,-2.156 -1.59,-0.626 -2.63,-1.178 -3.18,-1.48 -0.37,-0.208 -1.08,-0.479 -2.43,-1.474 -2.02,-1.505 -3.02,-2.704 -4.86,-3.756 -0.84,-0.489 -1.17,-1.394 -2.26,-1.442 -1.08,-0.067 -1.8,0.985 -1.8,0.985 z"
     id="path683" />
  <path
     style="fill:#231f20;fill-opacity:1;fill-rule:nonzero;stroke:#231f20;stroke-width:0.565977;stroke-linecap:round;stroke-linejoin:round;stroke-miterlimit:4;stroke-dasharray:none;stroke-opacity:1"
     d="m 292.21518,40.753506 c -1.23,-0.708 -2.99,0.532 -3.31,0.595 -4.95,0.823 -5.29,1.011 -9,1.901 -5.39,1.291 -8.86,3 -9.03,6.348 -0.1,2.271002 0.82,3.626002 2.02,4.167002 1.32,0.604 4.5,0.428 5.91,-2.088002 l 1.5,-0.828 c 1.08,-0.432 1.62,-0.651 2.16,-0.823 0.96,-0.286 1.97,-0.666 3.81,-1.349 3.25,-1.203 6.3,-3.541 6.3,-3.541 0.28,-0.115 0.48,-0.319 0.61,-0.563"
     id="path684" />
  <path
     style="fill:#fab41d;fill-opacity:1;fill-rule:nonzero;stroke:#231f20;stroke-width:0.565977;stroke-linecap:butt;stroke-linejoin:miter;stroke-miterlimit:4;stroke-dasharray:none;stroke-opacity:1"
     d="m 276.66518,44.149506 c -3.57,1.183 -5.77,2.798 -5.91,5.438 -0.12,2.266002 0.8,3.630002 2,4.182002 1.32,0.604 4.5,0.448 5.92,-2.068002 z"
     id="path685" />
  <path
     style="fill:#231f20;fill-opacity:1;fill-rule:nonzero;stroke:none"
     d="m 282.27518,25.259506 c -0.22,0.6 -1.92,1.548 -2.93,2.808 -0.67,0.844 -3.11,2.109 -3.72,3.005 -0.56,0.823 -0.89,1.145 -1.94,0.667 -0.62,-0.282 -1.63,-1.235 -1.45,-1.704 0.45,-1.104 1.12,-1.776 2.01,-2.359 1.03,-0.661 3.95,-2.219 4.5,-2.453 1.42,-0.588 1.77,-1.23 2.13,-1.427 0.68,-0.355 0.98,-0.177 1.3,0.197 0.63,0.735 0.1,1.266 0.1,1.266"
     id="path686" />
  <path
     style="fill:none;stroke:#231f20;stroke-width:0.565977;stroke-linecap:butt;stroke-linejoin:miter;stroke-miterlimit:4;stroke-dasharray:none;stroke-opacity:1"
     d="m 282.27518,25.259506 c -0.22,0.6 -1.92,1.548 -2.93,2.808 -0.67,0.844 -3.11,2.109 -3.72,3.005 -0.56,0.823 -0.89,1.145 -1.94,0.667 -0.62,-0.282 -1.63,-1.235 -1.45,-1.704 0.45,-1.104 1.12,-1.776 2.01,-2.359 1.03,-0.661 3.95,-2.219 4.5,-2.453 1.42,-0.588 1.77,-1.23 2.13,-1.427 0.68,-0.355 0.98,-0.177 1.3,0.197 0.63,0.735 0.1,1.266 0.1,1.266 z"
     id="path687" />
  <path
     style="fill:#231f20;fill-opacity:1;fill-rule:nonzero;stroke:none"
     d="m 274.94518,30.977506 c 0.64,1.131 -1.28,1.798 -1.75,2.048 -0.49,0.25 -1.78,1.13 -2.69,1.943 -0.92,0.812 -2.41,1.437 -4.15,2.973 -0.91,0.812 -2.32,1.022 -3.44,-0.358 -1.1,-1.366 -0.75,-2.5 0.51,-3.314 1.25,-0.812 2.77,-1.046 4.1,-1.781 1.32,-0.719 2.6,-1.588 3.57,-2.328 1.11,-0.823 1.96,-0.823 2.37,-0.577 1.04,0.598 1.48,1.394 1.48,1.394"
     id="path688" />
  <path
     style="fill:none;stroke:#231f20;stroke-width:0.565977;stroke-linecap:butt;stroke-linejoin:miter;stroke-miterlimit:4;stroke-dasharray:none;stroke-opacity:1"
     d="m 274.94518,30.977506 c 0.64,1.131 -1.28,1.798 -1.75,2.048 -0.49,0.25 -1.78,1.13 -2.69,1.943 -0.92,0.812 -2.41,1.437 -4.15,2.973 -0.91,0.812 -2.32,1.022 -3.44,-0.358 -1.1,-1.366 -0.75,-2.5 0.51,-3.314 1.25,-0.812 2.77,-1.046 4.1,-1.781 1.32,-0.719 2.6,-1.588 3.57,-2.328 1.11,-0.823 1.96,-0.823 2.37,-0.577 1.04,0.598 1.48,1.394 1.48,1.394 z"
     id="path689" />
  <path
     style="fill:#231f20;fill-opacity:1;fill-rule:nonzero;stroke:none"
     d="m 287.03518,20.764506 c -0.32,0.667 -2.67,2.917 -3.23,3.401 -0.5,0.438 -1.08,1.432 -2.14,0.97 -0.43,-0.162 -0.93,-0.74 -1.07,-1.022 -0.12,-0.234 0.06,-0.521 0.37,-0.745 0.54,-0.4 0.86,-0.307 1.93,-0.995 0,0 0.28,-0.129 0.79,-0.312 1.52,-0.578 0.9,-0.182 2.93,-1.516 0.14,-0.093 0.34,-0.02 0.4,0.079 0.08,0.161 0.02,0.14 0.02,0.14"
     id="path690" />
  <path
     style="fill:none;stroke:#231f20;stroke-width:0.565977;stroke-linecap:round;stroke-linejoin:round;stroke-miterlimit:4;stroke-dasharray:none;stroke-opacity:1"
     d="m 287.03518,20.764506 c -0.32,0.667 -2.67,2.917 -3.23,3.401 -0.5,0.438 -1.08,1.432 -2.14,0.97 -0.43,-0.162 -0.93,-0.74 -1.07,-1.022 -0.12,-0.234 0.06,-0.521 0.37,-0.745 0.54,-0.4 0.86,-0.307 1.93,-0.995 0,0 0.28,-0.129 0.79,-0.312 1.52,-0.578 0.9,-0.182 2.93,-1.516 0.14,-0.093 0.34,-0.02 0.4,0.079 0.08,0.161 0.02,0.14 0.02,0.14 z"
     id="path691" />
  <path
     style="fill:#231f20;fill-opacity:1;fill-rule:nonzero;stroke:none"
     d="m 305.55518,52.447508 c -1.25,0.505 -1.93,-0.224 -1.97,-1.260002 -0.01,-0.314 -0.35,-0.563 -0.34,-0.876 0.04,-0.692 1.36,-1.834 2.59,-0.963 0.08,0.057 0.86,0.307 1.42,0.577 1.08,0.548 2.99,2.152002 3.2,4.844002 0.09,1.271 -0.68,1.09 -0.87,0.594 -0.62,-1.594 -0.99,-1.619 -1.3,-1.979 -1.07,-1.224 -2.73,-0.937 -2.73,-0.937"
     id="path692" />
  <path
     style="fill:none;stroke:#231f20;stroke-width:0.332927;stroke-linecap:butt;stroke-linejoin:miter;stroke-miterlimit:4;stroke-dasharray:none;stroke-opacity:1"
     d="m 305.55518,52.447508 c -1.25,0.505 -1.93,-0.224 -1.97,-1.260002 -0.01,-0.314 -0.35,-0.563 -0.34,-0.876 0.04,-0.692 1.36,-1.834 2.59,-0.963 0.08,0.057 0.86,0.307 1.42,0.577 1.08,0.548 2.99,2.152002 3.2,4.844002 0.09,1.271 -0.68,1.09 -0.87,0.594 -0.62,-1.594 -0.99,-1.619 -1.3,-1.979 -1.07,-1.224 -2.73,-0.937 -2.73,-0.937 z"
     id="path693" />
  <path
     style="fill:#fab41d;fill-opacity:1;fill-rule:nonzero;stroke:none"
     d="m 123.24918,20.420506 c -3.088,0.537 -5.27,1.381 -6.156,1.615 -3.088,0.818 -4.915,2.704 -3.906,5.406 1.177,3.178 3.953,3.646 7.928,2.407 1.681,-0.532 5.656,-0.776 5.656,-0.776 3.234,0.203 4.38,0.12 6.582,-1.88 1.131,-1.027 1.672,-2.021 1.887,-3.448 0.385,-2.647 -0.313,-3.537 -1.439,-3.928 -1.118,-0.391 -2.39,-0.167 -4.817,-0.115 -2.323,0.048 -5.735,0.719 -5.735,0.719"
     id="path694" />
  <path
     style="fill:none;stroke:#231f20;stroke-width:0.565977;stroke-linecap:butt;stroke-linejoin:miter;stroke-miterlimit:4;stroke-dasharray:none;stroke-opacity:1"
     d="m 123.24918,20.420506 c -3.088,0.537 -5.27,1.381 -6.156,1.615 -3.088,0.818 -4.915,2.704 -3.906,5.406 1.177,3.178 3.953,3.646 7.928,2.407 1.681,-0.532 5.656,-0.776 5.656,-0.776 3.234,0.203 4.38,0.12 6.582,-1.88 1.131,-1.027 1.672,-2.021 1.887,-3.448 0.385,-2.647 -0.313,-3.537 -1.439,-3.928 -1.118,-0.391 -2.39,-0.167 -4.817,-0.115 -2.323,0.048 -5.735,0.719 -5.735,0.719 z"
     id="path695" />
  <path
     style="fill:#ffffff;fill-opacity:1;fill-rule:nonzero;stroke:none"
     d="m 139.87518,26.572506 c 0.229,0.088 0.088,1.235 0.598,1.339 0.516,0.104 0.866,-0.615 2.792,-1.084 l 0.027,-0.006 c 1.416,-0.306 2.531,-1.15 2.869,-2.353 0.568,-2 -1.172,-4.24 -3.88,-5.021 -2.718,-0.771 -5.38,0.224 -5.953,2.213 -0.552,1.912 1.025,4.057 3.547,4.912"
     id="path696" />
  <path
     style="fill:none;stroke:#231f20;stroke-width:0.565977;stroke-linecap:butt;stroke-linejoin:miter;stroke-miterlimit:4;stroke-dasharray:none;stroke-opacity:1"
     d="m 139.87518,26.572506 c 0.229,0.088 0.088,1.235 0.598,1.339 0.516,0.104 0.866,-0.615 2.792,-1.084 l 0.027,-0.006 c 1.416,-0.306 2.531,-1.15 2.869,-2.353 0.568,-2 -1.172,-4.24 -3.88,-5.021 -2.718,-0.771 -5.38,0.224 -5.953,2.213 -0.552,1.912 1.025,4.057 3.547,4.912 z"
     id="path697" />
  <path
     style="fill:#231f20;fill-opacity:1;fill-rule:nonzero;stroke:none"
     d="m 130.73918,40.999506 c 0.324,-2.24 0.078,-2.719 -0.859,-2.912 -0.631,-0.13 -1.156,-0.468 -1.531,-0.567 -1.256,-0.333 -3.51,-0.365 -9.906,1.203 -1.438,0.354 -3.48,0.833 -4.328,0.964 -1.344,0.224 -0.09,2.301 0.448,2.224 1.697,-0.24 2.874,-0.271 3.494,-0.276 0.432,-0.006 1.183,-0.115 2.844,0.082 2.504,0.318 3.963,0.866 6.078,0.88 0.984,0.011 1.713,0.636 2.677,0.147 0.979,-0.48 1.083,-1.745 1.083,-1.745"
     id="path698" />
  <path
     style="fill:none;stroke:#231f20;stroke-width:0.565977;stroke-linecap:butt;stroke-linejoin:miter;stroke-miterlimit:4;stroke-dasharray:none;stroke-opacity:1"
     d="m 130.73918,40.999506 c 0.324,-2.24 0.078,-2.719 -0.859,-2.912 -0.631,-0.13 -1.156,-0.468 -1.531,-0.567 -1.256,-0.333 -3.51,-0.365 -9.906,1.203 -1.438,0.354 -3.48,0.833 -4.328,0.964 -1.344,0.224 -0.09,2.301 0.448,2.224 1.697,-0.24 2.874,-0.271 3.494,-0.276 0.432,-0.006 1.183,-0.115 2.844,0.082 2.504,0.318 3.963,0.866 6.078,0.88 0.984,0.011 1.713,0.636 2.677,0.147 0.979,-0.48 1.083,-1.745 1.083,-1.745 z"
     id="path699" />
  <path
     style="fill:#231f20;fill-opacity:1;fill-rule:nonzero;stroke:#231f20;stroke-width:0.565977;stroke-linecap:round;stroke-linejoin:round;stroke-miterlimit:4;stroke-dasharray:none;stroke-opacity:1"
     d="m 130.82318,39.853506 c 0.24,-1.396 -1.536,-2.625 -1.698,-2.917 -2.48,-4.359 -2.772,-4.609 -4.885,-7.792 -3.063,-4.604 -5.871,-7.285 -9.068,-6.296 -2.167,0.687 -3.125,2.02 -3.218,3.328 -0.11,1.453 1.145,4.375 3.994,4.839 l 1.292,1.125 c 0.776,0.864 1.165,1.285 1.515,1.744 0.598,0.797 1.308,1.615 2.578,3.104 2.255,2.647 5.495,4.704 5.495,4.704 0.208,0.233 0.468,0.343 0.735,0.38"
     id="path700" />
  <path
     style="fill:#fab41d;fill-opacity:1;fill-rule:nonzero;stroke:none"
     d="m 115.14018,22.739506 c -2.166,0.672 -3.134,1.994 -3.238,3.312 -0.11,1.453 1.129,4.385 3.978,4.849 l 6.401,-4.48 c -2.338,-2.947 -4.614,-4.463 -7.141,-3.681"
     id="path701" />
  <path
     style="fill:none;stroke:#231f20;stroke-width:0.565977;stroke-linecap:butt;stroke-linejoin:miter;stroke-miterlimit:4;stroke-dasharray:none;stroke-opacity:1"
     d="m 115.14018,22.739506 c -2.166,0.672 -3.134,1.994 -3.238,3.312 -0.11,1.453 1.129,4.385 3.978,4.849 l 6.401,-4.48 c -2.338,-2.947 -4.614,-4.463 -7.141,-3.681 z"
     id="path702" />
  <path
     style="fill:#231f20;fill-opacity:1;fill-rule:nonzero;stroke:none"
     d="m 120.89618,39.848506 c -0.043,-0.636 1.124,-2.199 1.525,-3.756 0.271,-1.052 1.98,-3.203 2.172,-4.265 0.178,-0.984 0.344,-1.411 1.495,-1.402 0.688,0.006 1.995,0.459 2.016,0.97 0.047,1.188 -0.292,2.073 -0.864,2.968 -0.663,1.021 -2.699,3.636 -3.115,4.078 -1.042,1.115 -1.109,1.844 -1.36,2.167 -0.469,0.604 -0.812,0.563 -1.265,0.355 -0.871,-0.423 -0.604,-1.115 -0.604,-1.115"
     id="path703" />
  <path
     style="fill:none;stroke:#231f20;stroke-width:0.565977;stroke-linecap:butt;stroke-linejoin:miter;stroke-miterlimit:4;stroke-dasharray:none;stroke-opacity:1"
     d="m 120.89618,39.848506 c -0.043,-0.636 1.124,-2.199 1.525,-3.756 0.271,-1.052 1.98,-3.203 2.172,-4.265 0.178,-0.984 0.344,-1.411 1.495,-1.402 0.688,0.006 1.995,0.459 2.016,0.97 0.047,1.188 -0.292,2.073 -0.864,2.968 -0.663,1.021 -2.699,3.636 -3.115,4.078 -1.042,1.115 -1.109,1.844 -1.36,2.167 -0.469,0.604 -0.812,0.563 -1.265,0.355 -0.871,-0.423 -0.604,-1.115 -0.604,-1.115 z"
     id="path704" />
  <path
     style="fill:#231f20;fill-opacity:1;fill-rule:nonzero;stroke:none"
     d="m 125.24918,31.635506 c -1.046,-0.771 0.438,-2.162 0.771,-2.59 0.339,-0.426 1.157,-1.749 1.652,-2.864 0.511,-1.12 1.615,-2.297 2.577,-4.412 0.506,-1.114 1.704,-1.88 3.287,-1.073 1.563,0.792 1.713,1.975 0.896,3.229 -0.812,1.256 -2.115,2.09 -3.021,3.298 -0.916,1.197 -1.728,2.521 -2.312,3.584 -0.678,1.208 -1.454,1.556 -1.927,1.494 -1.188,-0.12 -1.923,-0.666 -1.923,-0.666"
     id="path705" />
  <path
     style="fill:none;stroke:#231f20;stroke-width:0.565977;stroke-linecap:butt;stroke-linejoin:miter;stroke-miterlimit:4;stroke-dasharray:none;stroke-opacity:1"
     d="m 125.24918,31.635506 c -1.046,-0.771 0.438,-2.162 0.771,-2.59 0.339,-0.426 1.157,-1.749 1.652,-2.864 0.511,-1.12 1.615,-2.297 2.577,-4.412 0.506,-1.114 1.704,-1.88 3.287,-1.073 1.563,0.792 1.713,1.975 0.896,3.229 -0.812,1.256 -2.115,2.09 -3.021,3.298 -0.916,1.197 -1.728,2.521 -2.312,3.584 -0.678,1.208 -1.454,1.556 -1.927,1.494 -1.188,-0.12 -1.923,-0.666 -1.923,-0.666 z"
     id="path706" />
  <path
     style="fill:#231f20;fill-opacity:1;fill-rule:nonzero;stroke:none"
     d="m 111.32318,40.223506 c 0.541,-1.235 1.536,-1.188 2.292,-0.474 0.224,0.214 0.64,0.156 0.848,0.386 0.464,0.52 0.313,2.254 -1.167,2.5 -0.099,0.014 -0.837,0.385 -1.421,0.577 -1.156,0.371 -3.645,0.557 -5.677,-1.219 -0.958,-0.844 -0.282,-1.254 0.208,-1.036 1.553,0.714 1.834,0.468 2.313,0.5 1.615,0.135 2.604,-1.234 2.604,-1.234"
     id="path707" />
  <path
     style="fill:none;stroke:#231f20;stroke-width:0.332927;stroke-linecap:butt;stroke-linejoin:miter;stroke-miterlimit:4;stroke-dasharray:none;stroke-opacity:1"
     d="m 111.32318,40.223506 c 0.541,-1.235 1.536,-1.188 2.292,-0.474 0.224,0.214 0.64,0.156 0.848,0.386 0.464,0.52 0.313,2.254 -1.167,2.5 -0.099,0.014 -0.837,0.385 -1.421,0.577 -1.156,0.371 -3.645,0.557 -5.677,-1.219 -0.958,-0.844 -0.282,-1.254 0.208,-1.036 1.553,0.714 1.834,0.468 2.313,0.5 1.615,0.135 2.604,-1.234 2.604,-1.234 z"
     id="path708" />
  <path
     style="fill:#fab41d;fill-opacity:1;fill-rule:nonzero;stroke:none"
     d="m 167.24918,22.463506 c 1.934,2.468 3.704,3.994 4.328,4.666 2.178,2.339 4.699,3.058 6.61,0.896 2.245,-2.537 1.354,-5.209 -1.619,-8.125 -1.256,-1.235 -3.349,-4.625 -3.349,-4.625 -1.344,-2.948 -1.959,-3.922 -4.756,-4.916 -1.443,-0.5160004 -2.572,-0.5210004 -3.932,-0.037 -2.515,0.906 -2.968,1.937 -2.792,3.114 0.182,1.172 0.985,2.188 2.177,4.303 1.136,2.025 3.333,4.724 3.333,4.724"
     id="path709" />
  <path
     style="fill:none;stroke:#231f20;stroke-width:0.565977;stroke-linecap:butt;stroke-linejoin:miter;stroke-miterlimit:4;stroke-dasharray:none;stroke-opacity:1"
     d="m 167.24918,22.463506 c 1.934,2.468 3.704,3.994 4.328,4.666 2.178,2.339 4.699,3.058 6.61,0.896 2.245,-2.537 1.354,-5.209 -1.619,-8.125 -1.256,-1.235 -3.349,-4.625 -3.349,-4.625 -1.344,-2.948 -1.959,-3.922 -4.756,-4.916 -1.443,-0.5160004 -2.572,-0.5210004 -3.932,-0.037 -2.515,0.906 -2.968,1.937 -2.792,3.114 0.182,1.172 0.985,2.188 2.177,4.303 1.136,2.025 3.333,4.724 3.333,4.724 z"
     id="path710" />
  <path
     style="fill:#ffffff;fill-opacity:1;fill-rule:nonzero;stroke:none"
     d="m 164.83918,4.9005056 c -0.027,-0.245 1.046,-0.661 0.9,-1.161 -0.156,-0.505 -0.947,-0.475 -2.276,-1.948 l -0.015,-0.021 c -0.937,-1.10999999 -2.208,-1.69199999 -3.432,-1.42199999 -2.032,0.438 -3.183,3.03099999 -2.595,5.78699999 0.599,2.76 2.73,4.6400004 4.762,4.2080004 1.942,-0.4170004 3.093,-2.8230004 2.656,-5.4430004"
     id="path711" />
  <path
     style="fill:none;stroke:#231f20;stroke-width:0.565977;stroke-linecap:butt;stroke-linejoin:miter;stroke-miterlimit:4;stroke-dasharray:none;stroke-opacity:1"
     d="m 164.83918,4.9005056 c -0.027,-0.245 1.046,-0.661 0.9,-1.161 -0.156,-0.505 -0.947,-0.475 -2.276,-1.948 l -0.015,-0.021 c -0.937,-1.10999999 -2.208,-1.69199999 -3.432,-1.42199999 -2.032,0.438 -3.183,3.03099999 -2.595,5.78699999 0.599,2.76 2.73,4.6400004 4.762,4.2080004 1.942,-0.4170004 3.093,-2.8230004 2.656,-5.4430004 z"
     id="path712" />
  <path
     style="fill:#231f20;fill-opacity:1;fill-rule:nonzero;stroke:none"
     d="m 181.86918,6.1505056 c -2.125,0.776 -2.432,1.213 -2.161,2.13 0.177,0.62 0.131,1.24 0.219,1.62 0.302,1.2650004 1.333,3.2710004 5.729,8.1670004 0.995,1.104 2.38,2.677 2.896,3.369 0.823,1.073 2.068,-1.016 1.749,-1.448 -1.014,-1.38 -1.598,-2.405 -1.896,-2.953 -0.208,-0.375 -0.661,-0.984 -1.26,-2.547 -0.905,-2.359 -1.109,-3.901 -2.093,-5.7760004 -0.453,-0.869 -0.251,-1.806 -1.136,-2.426 -0.88,-0.636 -2.047,-0.136 -2.047,-0.136"
     id="path713" />
  <path
     style="fill:none;stroke:#231f20;stroke-width:0.565977;stroke-linecap:butt;stroke-linejoin:miter;stroke-miterlimit:4;stroke-dasharray:none;stroke-opacity:1"
     d="m 181.86918,6.1505056 c -2.125,0.776 -2.432,1.213 -2.161,2.13 0.177,0.62 0.131,1.24 0.219,1.62 0.302,1.2650004 1.333,3.2710004 5.729,8.1670004 0.995,1.104 2.38,2.677 2.896,3.369 0.823,1.073 2.068,-1.016 1.749,-1.448 -1.014,-1.38 -1.598,-2.405 -1.896,-2.953 -0.208,-0.375 -0.661,-0.984 -1.26,-2.547 -0.905,-2.359 -1.109,-3.901 -2.093,-5.7760004 -0.453,-0.869 -0.251,-1.806 -1.136,-2.426 -0.88,-0.636 -2.047,-0.136 -2.047,-0.136 z"
     id="path714" />
  <path
     style="fill:#231f20;fill-opacity:1;fill-rule:nonzero;stroke:#231f20;stroke-width:0.565977;stroke-linecap:round;stroke-linejoin:round;stroke-miterlimit:4;stroke-dasharray:none;stroke-opacity:1"
     d="m 180.81718,6.6195056 c -1.344,0.448 -1.588,2.593 -1.77,2.875 -2.678,4.2390004 -2.755,4.6140004 -4.568,7.9790004 -2.62,4.875 -3.662,8.61 -1.276,10.963 1.625,1.589 3.25,1.803 4.453,1.276 1.333,-0.593 3.317,-3.077 2.38,-5.807 l 0.385,-1.672 c 0.396,-1.093 0.59,-1.636 0.819,-2.156 0.421,-0.906 0.812,-1.912 1.525,-3.74 1.271,-3.234 1.558,-7.0620004 1.558,-7.0620004 0.104,-0.292 0.082,-0.573 -0.011,-0.823"
     id="path715" />
  <path
     style="fill:#fab41d;fill-opacity:1;fill-rule:nonzero;stroke:none"
     d="m 179.96318,24.020506 -6.963,-3.537 c -1.495,3.458 -1.76,6.172 0.12,8.032 1.615,1.598 3.239,1.828 4.448,1.296 1.333,-0.583 3.333,-3.062 2.395,-5.791"
     id="path716" />
  <path
     style="fill:none;stroke:#231f20;stroke-width:0.565977;stroke-linecap:butt;stroke-linejoin:miter;stroke-miterlimit:4;stroke-dasharray:none;stroke-opacity:1"
     d="m 179.96318,24.020506 -6.963,-3.537 c -1.495,3.458 -1.76,6.172 0.12,8.032 1.615,1.598 3.239,1.828 4.448,1.296 1.333,-0.583 3.333,-3.062 2.395,-5.791 z"
     id="path717" />
  <path
     style="fill:#231f20;fill-opacity:1;fill-rule:nonzero;stroke:none"
     d="m 185.49518,15.373506 c -0.542,0.339 -2.47,0.047 -4.036,0.428 -1.054,0.255 -3.756,-0.24 -4.782,0.094 -0.953,0.306 -1.412,0.364 -1.942,-0.656 -0.319,-0.61 -0.538,-1.98 -0.095,-2.235 1.027,-0.599 1.964,-0.719 3.027,-0.636 1.213,0.105 4.478,0.661 5.068,0.819 1.468,0.4 2.145,0.114 2.546,0.181 0.755,0.131 0.886,0.453 0.911,0.953 0.043,0.964 -0.697,1.052 -0.697,1.052"
     id="path718" />
  <path
     style="fill:none;stroke:#231f20;stroke-width:0.565977;stroke-linecap:butt;stroke-linejoin:miter;stroke-miterlimit:4;stroke-dasharray:none;stroke-opacity:1"
     d="m 185.49518,15.373506 c -0.542,0.339 -2.47,0.047 -4.036,0.428 -1.054,0.255 -3.756,-0.24 -4.782,0.094 -0.953,0.306 -1.412,0.364 -1.942,-0.656 -0.319,-0.61 -0.538,-1.98 -0.095,-2.235 1.027,-0.599 1.964,-0.719 3.027,-0.636 1.213,0.105 4.478,0.661 5.068,0.819 1.468,0.4 2.145,0.114 2.546,0.181 0.755,0.131 0.886,0.453 0.911,0.953 0.043,0.964 -0.697,1.052 -0.697,1.052 z"
     id="path719" />
  <path
     style="fill:#231f20;fill-opacity:1;fill-rule:nonzero;stroke:none"
     d="m 176.19718,15.411506 c -0.186,1.281 -2.109,0.629 -2.64,0.541 -0.541,-0.099 -2.094,-0.199 -3.313,-0.109 -1.224,0.077 -2.781,-0.339 -5.104,-0.194 -1.219,0.084 -2.457,-0.614 -2.495,-2.39 -0.041,-1.755 0.932,-2.443 2.423,-2.312 1.495,0.125 2.839,0.88 4.333,1.109 1.49,0.24 3.036,0.339 4.255,0.349 1.38,0.031 2.052,0.547 2.229,0.995 0.454,1.104 0.312,2.011 0.312,2.011"
     id="path720" />
  <path
     style="fill:none;stroke:#231f20;stroke-width:0.565977;stroke-linecap:butt;stroke-linejoin:miter;stroke-miterlimit:4;stroke-dasharray:none;stroke-opacity:1"
     d="m 176.19718,15.411506 c -0.186,1.281 -2.109,0.629 -2.64,0.541 -0.541,-0.099 -2.094,-0.199 -3.313,-0.109 -1.224,0.077 -2.781,-0.339 -5.104,-0.194 -1.219,0.084 -2.457,-0.614 -2.495,-2.39 -0.041,-1.755 0.932,-2.443 2.423,-2.312 1.495,0.125 2.839,0.88 4.333,1.109 1.49,0.24 3.036,0.339 4.255,0.349 1.38,0.031 2.052,0.547 2.229,0.995 0.454,1.104 0.312,2.011 0.312,2.011 z"
     id="path721" />
  <path
     style="fill:#231f20;fill-opacity:1;fill-rule:nonzero;stroke:none"
     d="m 190.33918,23.640506 c -1.344,0.104 -1.771,-0.792 -1.5,-1.792 0.082,-0.303 -0.162,-0.641 -0.063,-0.932 0.244,-0.657 1.844,-1.344 2.755,-0.152 0.062,0.084 0.74,0.557 1.188,0.985 0.864,0.843 2.208,2.947 1.593,5.583 -0.287,1.24 -0.968,0.833 -1.011,0.297 -0.104,-1.704 -0.448,-1.833 -0.645,-2.276 -0.645,-1.485 -2.317,-1.713 -2.317,-1.713"
     id="path722" />
  <path
     style="fill:none;stroke:#231f20;stroke-width:0.332927;stroke-linecap:butt;stroke-linejoin:miter;stroke-miterlimit:4;stroke-dasharray:none;stroke-opacity:1"
     d="m 190.33918,23.640506 c -1.344,0.104 -1.771,-0.792 -1.5,-1.792 0.082,-0.303 -0.162,-0.641 -0.063,-0.932 0.244,-0.657 1.844,-1.344 2.755,-0.152 0.062,0.084 0.74,0.557 1.188,0.985 0.864,0.843 2.208,2.947 1.593,5.583 -0.287,1.24 -0.968,0.833 -1.011,0.297 -0.104,-1.704 -0.448,-1.833 -0.645,-2.276 -0.645,-1.485 -2.317,-1.713 -2.317,-1.713 z"
     id="path723" />
  <path
     style="fill:#fab41d;fill-opacity:1;fill-rule:nonzero;stroke:none"
     d="m 223.85918,10.941506 c -2.906,1.188 -4.848,2.475 -5.667,2.896 -2.839,1.459 -4.219,3.694 -2.656,6.115 1.828,2.849 4.641,2.713 8.256,0.651 1.531,-0.875 5.359,-1.968 5.359,-1.968 3.208,-0.495 4.308,-0.824 6.032,-3.246 0.885,-1.249 1.192,-2.333 1.098,-3.776 -0.188,-2.6660004 -1.062,-3.3790004 -2.24,-3.5300004 -1.177,-0.141 -2.369,0.359 -4.734,0.927 -2.26,0.541 -5.448,1.9310004 -5.448,1.9310004"
     id="path724" />
  <path
     style="fill:none;stroke:#231f20;stroke-width:0.565977;stroke-linecap:butt;stroke-linejoin:miter;stroke-miterlimit:4;stroke-dasharray:none;stroke-opacity:1"
     d="m 223.85918,10.941506 c -2.906,1.188 -4.848,2.475 -5.667,2.896 -2.839,1.459 -4.219,3.694 -2.656,6.115 1.828,2.849 4.641,2.713 8.256,0.651 1.531,-0.875 5.359,-1.968 5.359,-1.968 3.208,-0.495 4.308,-0.824 6.032,-3.246 0.885,-1.249 1.192,-2.333 1.098,-3.776 -0.188,-2.6660004 -1.062,-3.3790004 -2.24,-3.5300004 -1.177,-0.141 -2.369,0.359 -4.734,0.927 -2.26,0.541 -5.448,1.9310004 -5.448,1.9310004 z"
     id="path725" />
  <path
     style="fill:#ffffff;fill-opacity:1;fill-rule:nonzero;stroke:none"
     d="m 241.41618,13.384506 c 0.245,0.041 0.355,1.193 0.876,1.183 0.525,-0.011 0.708,-0.787 2.489,-1.662 l 0.026,-0.005 c 1.318,-0.604 2.228,-1.667 2.298,-2.9170004 0.13,-2.072 -2.048,-3.891 -4.865,-4.067 -2.819,-0.177 -5.209,1.364 -5.339,3.438 -0.13,1.9780004 1.875,3.7380004 4.515,4.0300004"
     id="path726" />
  <path
     style="fill:none;stroke:#231f20;stroke-width:0.565977;stroke-linecap:butt;stroke-linejoin:miter;stroke-miterlimit:4;stroke-dasharray:none;stroke-opacity:1"
     d="m 241.41618,13.384506 c 0.245,0.041 0.355,1.193 0.876,1.183 0.525,-0.011 0.708,-0.787 2.489,-1.662 l 0.026,-0.005 c 1.318,-0.604 2.228,-1.667 2.298,-2.9170004 0.13,-2.072 -2.048,-3.891 -4.865,-4.067 -2.819,-0.177 -5.209,1.364 -5.339,3.438 -0.13,1.9780004 1.875,3.7380004 4.515,4.0300004 z"
     id="path727" />
  <path
     style="fill:#231f20;fill-opacity:1;fill-rule:nonzero;stroke:none"
     d="m 235.58818,29.436506 c -0.167,-2.255 -0.511,-2.672 -1.468,-2.661 -0.641,0.005 -1.224,-0.208 -1.615,-0.224 -1.297,-0.058 -3.505,0.39 -9.417,3.297 -1.333,0.651 -3.224,1.563 -4.025,1.869 -1.262,0.5 0.41,2.266 0.916,2.074 1.604,-0.599 2.75,-0.88 3.354,-1.022 0.422,-0.093 1.13,-0.364 2.796,-0.52 2.516,-0.234 4.054,-0.005 6.126,-0.448 0.964,-0.198 1.808,0.255 2.646,-0.433 0.854,-0.672 0.687,-1.932 0.687,-1.932"
     id="path728" />
  <path
     style="fill:none;stroke:#231f20;stroke-width:0.565977;stroke-linecap:butt;stroke-linejoin:miter;stroke-miterlimit:4;stroke-dasharray:none;stroke-opacity:1"
     d="m 235.58818,29.436506 c -0.167,-2.255 -0.511,-2.672 -1.468,-2.661 -0.641,0.005 -1.224,-0.208 -1.615,-0.224 -1.297,-0.058 -3.505,0.39 -9.417,3.297 -1.333,0.651 -3.224,1.563 -4.025,1.869 -1.262,0.5 0.41,2.266 0.916,2.074 1.604,-0.599 2.75,-0.88 3.354,-1.022 0.422,-0.093 1.13,-0.364 2.796,-0.52 2.516,-0.234 4.054,-0.005 6.126,-0.448 0.964,-0.198 1.808,0.255 2.646,-0.433 0.854,-0.672 0.687,-1.932 0.687,-1.932 z"
     id="path729" />
  <path
     style="fill:#231f20;fill-opacity:1;fill-rule:nonzero;stroke:#231f20;stroke-width:0.565977;stroke-linecap:round;stroke-linejoin:round;stroke-miterlimit:4;stroke-dasharray:none;stroke-opacity:1"
     d="m 235.42118,28.296506 c -0.062,-1.412 -2.062,-2.229 -2.286,-2.48 -3.354,-3.733 -3.692,-3.911 -6.438,-6.567 -3.978,-3.844 -7.292,-5.86 -10.208,-4.209 -1.964,1.136 -2.614,2.641 -2.432,3.943 0.208,1.442 2.063,4.026 4.943,3.865 l 1.5,0.823 c 0.948,0.682 1.416,1.01 1.853,1.38 0.756,0.65 1.62,1.297 3.183,2.484 2.771,2.1 6.38,3.412 6.38,3.412 0.251,0.182 0.527,0.234 0.797,0.213"
     id="path730" />
  <path
     style="fill:#fab41d;fill-opacity:1;fill-rule:nonzero;stroke:none"
     d="m 216.43718,14.941506 c -1.974,1.12 -2.636,2.62 -2.453,3.927 0.203,1.443 2.041,4.043 4.923,3.881 l 5.29,-5.745 c -2.916,-2.375 -5.458,-3.364 -7.76,-2.063"
     id="path731" />
  <path
     style="fill:none;stroke:#231f20;stroke-width:0.565977;stroke-linecap:butt;stroke-linejoin:miter;stroke-miterlimit:4;stroke-dasharray:none;stroke-opacity:1"
     d="m 216.43718,14.941506 c -1.974,1.12 -2.636,2.62 -2.453,3.927 0.203,1.443 2.041,4.043 4.923,3.881 l 5.29,-5.745 c -2.916,-2.375 -5.458,-3.364 -7.76,-2.063 z"
     id="path732" />
  <path
     style="fill:#231f20;fill-opacity:1;fill-rule:nonzero;stroke:none"
     d="m 225.72418,30.420506 c -0.183,-0.613 0.629,-2.391 0.687,-4 0.037,-1.083 1.245,-3.547 1.209,-4.629 -0.043,-0.995 0.031,-1.454 1.161,-1.688 0.667,-0.146 2.042,0.021 2.172,0.516 0.296,1.15 0.162,2.082 -0.209,3.082 -0.432,1.142 -1.853,4.131 -2.167,4.658 -0.781,1.306 -0.692,2.036 -0.864,2.4 -0.328,0.693 -0.677,0.729 -1.161,0.62 -0.943,-0.224 -0.828,-0.959 -0.828,-0.959"
     id="path733" />
  <path
     style="fill:none;stroke:#231f20;stroke-width:0.565977;stroke-linecap:butt;stroke-linejoin:miter;stroke-miterlimit:4;stroke-dasharray:none;stroke-opacity:1"
     d="m 225.72418,30.420506 c -0.183,-0.613 0.629,-2.391 0.687,-4 0.037,-1.083 1.245,-3.547 1.209,-4.629 -0.043,-0.995 0.031,-1.454 1.161,-1.688 0.667,-0.146 2.042,0.021 2.172,0.516 0.296,1.15 0.162,2.082 -0.209,3.082 -0.432,1.142 -1.853,4.131 -2.167,4.658 -0.781,1.306 -0.692,2.036 -0.864,2.4 -0.328,0.693 -0.677,0.729 -1.161,0.62 -0.943,-0.224 -0.828,-0.959 -0.828,-0.959 z"
     id="path734" />
  <path
     style="fill:#231f20;fill-opacity:1;fill-rule:nonzero;stroke:none"
     d="m 228.21918,21.468506 c -1.188,-0.532 -0.036,-2.209 0.192,-2.693 0.245,-0.49 0.761,-1.964 1.005,-3.162 0.256,-1.197 1.084,-2.584 1.573,-4.86 0.251,-1.1910004 1.26,-2.1970004 2.974,-1.7490004 1.704,0.438 2.1,1.5630004 1.568,2.9640004 -0.526,1.4 -1.615,2.489 -2.244,3.869 -0.636,1.364 -1.147,2.828 -1.491,3.995 -0.4,1.323 -1.083,1.828 -1.561,1.875 -1.188,0.136 -2.016,-0.239 -2.016,-0.239"
     id="path735" />
  <path
     style="fill:none;stroke:#231f20;stroke-width:0.565977;stroke-linecap:butt;stroke-linejoin:miter;stroke-miterlimit:4;stroke-dasharray:none;stroke-opacity:1"
     d="m 228.21918,21.468506 c -1.188,-0.532 -0.036,-2.209 0.192,-2.693 0.245,-0.49 0.761,-1.964 1.005,-3.162 0.256,-1.197 1.084,-2.584 1.573,-4.86 0.251,-1.1910004 1.26,-2.1970004 2.974,-1.7490004 1.704,0.438 2.1,1.5630004 1.568,2.9640004 -0.526,1.4 -1.615,2.489 -2.244,3.869 -0.636,1.364 -1.147,2.828 -1.491,3.995 -0.4,1.323 -1.083,1.828 -1.561,1.875 -1.188,0.136 -2.016,-0.239 -2.016,-0.239 z"
     id="path736" />
  <path
     style="fill:#231f20;fill-opacity:1;fill-rule:nonzero;stroke:none"
     d="m 216.45318,32.837506 c 0.266,-1.322 1.244,-1.489 2.135,-0.953 0.265,0.161 0.656,0.016 0.912,0.193 0.568,0.406 0.792,2.14 -0.604,2.692 -0.095,0.038 -0.735,0.558 -1.267,0.871 -1.046,0.609 -3.437,1.328 -5.806,0.02 -1.115,-0.615 -0.542,-1.161 -0.016,-1.052 1.666,0.365 1.89,0.068 2.365,-0.005 1.609,-0.219 2.281,-1.766 2.281,-1.766"
     id="path737" />
  <path
     style="fill:none;stroke:#231f20;stroke-width:0.332927;stroke-linecap:butt;stroke-linejoin:miter;stroke-miterlimit:4;stroke-dasharray:none;stroke-opacity:1"
     d="m 216.45318,32.837506 c 0.266,-1.322 1.244,-1.489 2.135,-0.953 0.265,0.161 0.656,0.016 0.912,0.193 0.568,0.406 0.792,2.14 -0.604,2.692 -0.095,0.038 -0.735,0.558 -1.267,0.871 -1.046,0.609 -3.437,1.328 -5.806,0.02 -1.115,-0.615 -0.542,-1.161 -0.016,-1.052 1.666,0.365 1.89,0.068 2.365,-0.005 1.609,-0.219 2.281,-1.766 2.281,-1.766 z"
     id="path738" />
</svg>
