<?xml version="1.0" encoding="UTF-8" standalone="no"?>
<!-- Created with Inkscape (http://www.inkscape.org/) -->

<svg
   version="1.1"
   id="svg1"
   width="314.61182"
   height="122.88487"
   viewBox="0 0 314.6118 122.88487"
   sodipodi:docname="cell.svg"
   xmlns:inkscape="http://www.inkscape.org/namespaces/inkscape"
   xmlns:sodipodi="http://sodipodi.sourceforge.net/DTD/sodipodi-0.dtd"
   xmlns="http://www.w3.org/2000/svg"
   xmlns:svg="http://www.w3.org/2000/svg">
  <sodipodi:namedview
     id="namedview1"
     pagecolor="#ffffff"
     bordercolor="#000000"
     borderopacity="0.25"
     inkscape:showpageshadow="2"
     inkscape:pageopacity="0.0"
     inkscape:pagecheckerboard="0"
     inkscape:deskcolor="#d1d1d1">
    <inkscape:page
       x="0"
       y="0"
       inkscape:label="1"
       id="page1"
       width="314.61179"
       height="122.88487"
       margin="0"
       bleed="0" />
  </sodipodi:namedview>
  <defs
     id="defs1" />
  <path
     style="fill:#231f20;fill-opacity:1;fill-rule:nonzero;stroke:none"
     d="m 136.20811,39.293539 c 0.525,0.365 1.009,2.261 1.968,3.548 0.651,0.869 1.245,3.546 1.959,4.364 0.65,0.754 0.88,1.156 0.15,2.046 -0.432,0.527 -1.609,1.266 -2.014,0.959 -0.954,-0.708 -1.434,-1.521 -1.772,-2.536 -0.386,-1.157 -1.14,-4.381 -1.224,-4.985 -0.208,-1.51 -0.739,-2.02 -0.834,-2.416 -0.17,-0.74 0.074,-0.984 0.522,-1.203 0.869,-0.417 1.245,0.223 1.245,0.223"
     id="path384" />
  <path
     style="fill:none;stroke:#231f20;stroke-width:0.565977;stroke-linecap:butt;stroke-linejoin:miter;stroke-miterlimit:4;stroke-dasharray:none;stroke-opacity:1"
     d="m 136.20811,39.293539 c 0.525,0.365 1.009,2.261 1.968,3.548 0.651,0.869 1.245,3.546 1.959,4.364 0.65,0.754 0.88,1.156 0.15,2.046 -0.432,0.527 -1.609,1.266 -2.014,0.959 -0.954,-0.708 -1.434,-1.521 -1.772,-2.536 -0.386,-1.157 -1.14,-4.381 -1.224,-4.985 -0.208,-1.51 -0.739,-2.02 -0.834,-2.416 -0.17,-0.74 0.074,-0.984 0.522,-1.203 0.869,-0.417 1.245,0.223 1.245,0.223 z"
     id="path385" />
  <path
     style="fill:#fab41d;fill-opacity:1;fill-rule:nonzero;stroke:none"
     d="m 142.54111,43.090539 c -2.25,-2.177 -2.5,-2.896 -2.86,-3.74 -2.244,-5.328 -4.817,-4.119 -6.41,-1.724 -1.876,2.829 -2.61,3.803 2.312,7.724 1.369,1.095 6.078,5.964 6.078,5.964 1.452,1.969 3.916,3.125 5.343,2.823 1.5,-0.318 0.885,-0.302 2.213,-0.844 1.282,-0.52 2.606,-2.26 2.339,-3.468 -0.249,-1.162 -1.833,-1.688 -4.009,-2.746 -1.72,-0.838 -5.006,-3.989 -5.006,-3.989"
     id="path386" />
  <path
     style="fill:none;stroke:#231f20;stroke-width:0.565977;stroke-linecap:butt;stroke-linejoin:miter;stroke-miterlimit:4;stroke-dasharray:none;stroke-opacity:1"
     d="m 142.54111,43.090539 c -2.25,-2.177 -2.5,-2.896 -2.86,-3.74 -2.244,-5.328 -4.817,-4.119 -6.41,-1.724 -1.876,2.829 -2.61,3.803 2.312,7.724 1.369,1.095 6.078,5.964 6.078,5.964 1.452,1.969 3.916,3.125 5.343,2.823 1.5,-0.318 0.885,-0.302 2.213,-0.844 1.282,-0.52 2.606,-2.26 2.339,-3.468 -0.249,-1.162 -1.833,-1.688 -4.009,-2.746 -1.72,-0.838 -5.006,-3.989 -5.006,-3.989 z"
     id="path387" />
  <path
     style="fill:#ffffff;fill-opacity:1;fill-rule:nonzero;stroke:none"
     d="m 154.24411,59.850539 c 0.224,0.109 -0.041,1.235 0.459,1.391 0.505,0.162 0.916,-0.515 2.89,-0.786 h 0.026 c 1.437,-0.157 2.636,-0.87 3.104,-2.032 0.776,-1.932 -0.719,-4.344 -3.334,-5.401 -2.618,-1.067 -5.369,-0.353 -6.15,1.568 -0.75,1.839 0.593,4.141 3.005,5.26"
     id="path388" />
  <path
     style="fill:none;stroke:#231f20;stroke-width:0.565977;stroke-linecap:butt;stroke-linejoin:miter;stroke-miterlimit:4;stroke-dasharray:none;stroke-opacity:1"
     d="m 154.24411,59.850539 c 0.224,0.109 -0.041,1.235 0.459,1.391 0.505,0.162 0.916,-0.515 2.89,-0.786 h 0.026 c 1.437,-0.157 2.636,-0.87 3.104,-2.032 0.776,-1.932 -0.719,-4.344 -3.334,-5.401 -2.618,-1.067 -5.369,-0.353 -6.15,1.568 -0.75,1.839 0.593,4.141 3.005,5.26 z"
     id="path389" />
  <path
     style="fill:#231f20;fill-opacity:1;fill-rule:nonzero;stroke:none"
     d="m 124.76011,22.773239 c 2.099,-0.844 2.391,-1.2974 2.088,-2.2027 -0.197,-0.6107 -0.172,-1.2347 -0.281,-1.6107 -0.334,-1.2493 -1.438,-3.2133 -5.995,-7.9626 -1.036,-1.0733001 -2.473,-2.5987001 -3.016,-3.2653001 -0.859,-1.048 -2.031,1.0826 -1.697,1.5 1.062,1.3480001 1.677,2.3533001 2,2.8906001 0.213,0.3694 0.688,0.9627 1.344,2.5 0.989,2.3227 1.238,3.864 2.29,5.7027 0.486,0.8493 0.308,1.7973 1.22,2.3853 0.9,0.6093 2.047,0.0627 2.047,0.0627"
     id="path390" />
  <path
     style="fill:none;stroke:#231f20;stroke-width:0.565977;stroke-linecap:butt;stroke-linejoin:miter;stroke-miterlimit:4;stroke-dasharray:none;stroke-opacity:1"
     d="m 124.76011,22.773239 c 2.099,-0.844 2.391,-1.2974 2.088,-2.2027 -0.197,-0.6107 -0.172,-1.2347 -0.281,-1.6107 -0.334,-1.2493 -1.438,-3.2133 -5.995,-7.9626 -1.036,-1.0733001 -2.473,-2.5987001 -3.016,-3.2653001 -0.859,-1.048 -2.031,1.0826 -1.697,1.5 1.062,1.3480001 1.677,2.3533001 2,2.8906001 0.213,0.3694 0.688,0.9627 1.344,2.5 0.989,2.3227 1.238,3.864 2.29,5.7027 0.486,0.8493 0.308,1.7973 1.22,2.3853 0.9,0.6093 2.047,0.0627 2.047,0.0627 z"
     id="path391" />
  <path
     style="fill:#231f20;fill-opacity:1;fill-rule:nonzero;stroke:#231f20;stroke-width:0.565977;stroke-linecap:round;stroke-linejoin:round;stroke-miterlimit:4;stroke-dasharray:none;stroke-opacity:1"
     d="m 122.49311,21.699839 c -0.541,1.308 0.918,2.896 1.016,3.2134 1.443,4.8026 1.672,5.1093 3.032,8.6823 1.963,5.172 4.104,8.402 7.448,8.142 2.266,-0.183 3.49,-1.267 3.88,-2.527 0.422,-1.391 -0.152,-4.521 -2.828,-5.599 l -1.01,-1.385 c -0.568,-1.016 -0.85,-1.516 -1.094,-2.0374 -0.412,-0.9053 -0.912,-1.8586 -1.824,-3.5986 -1.609,-3.0773 -4.317,-5.8013 -4.317,-5.8013 -0.151,-0.272 -0.375,-0.4387 -0.631,-0.532"
     id="path392" />
  <path
     style="fill:#fab41d;fill-opacity:1;fill-rule:nonzero;stroke:none"
     d="m 134.96811,34.017539 -7.24,2.953 c 1.631,3.391 3.516,5.371 6.156,5.167 2.261,-0.172 3.496,-1.25 3.887,-2.511 0.432,-1.395 -0.131,-4.525 -2.803,-5.609"
     id="path393" />
  <path
     style="fill:none;stroke:#231f20;stroke-width:0.565977;stroke-linecap:butt;stroke-linejoin:miter;stroke-miterlimit:4;stroke-dasharray:none;stroke-opacity:1"
     d="m 134.96811,34.017539 -7.24,2.953 c 1.631,3.391 3.516,5.371 6.156,5.167 2.261,-0.172 3.496,-1.25 3.887,-2.511 0.432,-1.395 -0.131,-4.525 -2.803,-5.609 z"
     id="path394" />
  <path
     style="fill:#231f20;fill-opacity:1;fill-rule:nonzero;stroke:none"
     d="m 138.41111,48.346539 c 0.292,-1.261 2.161,-0.453 2.677,-0.313 0.531,0.141 2.063,0.37 3.292,0.39 1.224,0.022 2.744,0.574 5.072,0.62 1.219,0.027 2.396,0.828 2.276,2.594 -0.109,1.756 -1.135,2.349 -2.609,2.104 -1.474,-0.26 -2.755,-1.119 -4.219,-1.479 -1.473,-0.364 -3,-0.593 -4.213,-0.708 -1.37,-0.141 -2,-0.719 -2.136,-1.177 -0.354,-1.14 -0.14,-2.031 -0.14,-2.031"
     id="path395" />
  <path
     style="fill:none;stroke:#231f20;stroke-width:0.565977;stroke-linecap:butt;stroke-linejoin:miter;stroke-miterlimit:4;stroke-dasharray:none;stroke-opacity:1"
     d="m 138.41111,48.346539 c 0.292,-1.261 2.161,-0.453 2.677,-0.313 0.531,0.141 2.063,0.37 3.292,0.39 1.224,0.022 2.744,0.574 5.072,0.62 1.219,0.027 2.396,0.828 2.276,2.594 -0.109,1.756 -1.135,2.349 -2.609,2.104 -1.474,-0.26 -2.755,-1.119 -4.219,-1.479 -1.473,-0.364 -3,-0.593 -4.213,-0.708 -1.37,-0.141 -2,-0.719 -2.136,-1.177 -0.354,-1.14 -0.14,-2.031 -0.14,-2.031 z"
     id="path396" />
  <path
     style="fill:#231f20;fill-opacity:1;fill-rule:nonzero;stroke:none"
     d="m 116.73311,5.3252389 c 1.344,0.1973 1.552,1.1773 1.058,2.0827 -0.146,0.276 0.021,0.6666 -0.146,0.9226 -0.385,0.588 -2.098,0.896 -2.718,-0.4693 -0.047,-0.0987 -0.595,-0.708 -0.938,-1.224 -0.657,-1.0147 -1.496,-3.3693 -0.302,-5.79599999 0.557,-1.1466 1.136,-0.6 1.052,-0.068 -0.282,1.68799999 0.026,1.89069999 0.125,2.36399999 0.287,1.5947 1.869,2.188 1.869,2.188"
     id="path397" />
  <path
     style="fill:none;stroke:#231f20;stroke-width:0.332927;stroke-linecap:butt;stroke-linejoin:miter;stroke-miterlimit:4;stroke-dasharray:none;stroke-opacity:1"
     d="m 116.73311,5.3252389 c 1.344,0.1973 1.552,1.1773 1.058,2.0827 -0.146,0.276 0.021,0.6666 -0.146,0.9226 -0.385,0.588 -2.098,0.896 -2.718,-0.4693 -0.047,-0.0987 -0.595,-0.708 -0.938,-1.224 -0.657,-1.0147 -1.496,-3.3693 -0.302,-5.79599999 0.557,-1.1466 1.136,-0.6 1.052,-0.068 -0.282,1.68799999 0.026,1.89069999 0.125,2.36399999 0.287,1.5947 1.869,2.188 1.869,2.188 z"
     id="path398" />
  <path
     style="fill:#231f20;fill-opacity:1;fill-rule:nonzero;stroke:none"
     d="m 204.09311,36.163539 c -0.385,0.511 -2.292,0.932 -3.609,1.85 -0.891,0.618 -3.589,1.129 -4.428,1.817 -0.776,0.62 -1.187,0.839 -2.047,0.083 -0.516,-0.448 -1.218,-1.651 -0.901,-2.047 0.745,-0.932 1.573,-1.385 2.595,-1.687 1.172,-0.349 4.416,-0.996 5.025,-1.062 1.516,-0.158 2.042,-0.667 2.442,-0.751 0.746,-0.151 0.986,0.104 1.183,0.563 0.396,0.88 -0.26,1.234 -0.26,1.234"
     id="path399" />
  <path
     style="fill:none;stroke:#231f20;stroke-width:0.565977;stroke-linecap:butt;stroke-linejoin:miter;stroke-miterlimit:4;stroke-dasharray:none;stroke-opacity:1"
     d="m 204.09311,36.163539 c -0.385,0.511 -2.292,0.932 -3.609,1.85 -0.891,0.618 -3.589,1.129 -4.428,1.817 -0.776,0.62 -1.187,0.839 -2.047,0.083 -0.516,-0.448 -1.218,-1.651 -0.901,-2.047 0.745,-0.932 1.573,-1.385 2.595,-1.687 1.172,-0.349 4.416,-0.996 5.025,-1.062 1.516,-0.158 2.042,-0.667 2.442,-0.751 0.746,-0.151 0.986,0.104 1.183,0.563 0.396,0.88 -0.26,1.234 -0.26,1.234 z"
     id="path400" />
  <path
     style="fill:#fab41d;fill-opacity:1;fill-rule:nonzero;stroke:none"
     d="m 200.08811,42.371539 c 2.249,-2.182 2.973,-2.406 3.833,-2.74 5.396,-2.072 4.276,-4.681 1.932,-6.348 -2.765,-1.9744 -3.719,-2.7344 -7.797,2.058 -1.135,1.333 -6.156,5.874 -6.156,5.874 -2.016,1.391 -3.249,3.818 -3,5.25 0.271,1.51 0.276,0.896 0.771,2.245 0.48,1.297 2.177,2.672 3.39,2.453 1.172,-0.218 1.751,-1.781 2.876,-3.922 0.895,-1.692 4.151,-4.87 4.151,-4.87"
     id="path401" />
  <path
     style="fill:none;stroke:#231f20;stroke-width:0.565977;stroke-linecap:butt;stroke-linejoin:miter;stroke-miterlimit:4;stroke-dasharray:none;stroke-opacity:1"
     d="m 200.08811,42.371539 c 2.249,-2.182 2.973,-2.406 3.833,-2.74 5.396,-2.072 4.276,-4.681 1.932,-6.348 -2.765,-1.9744 -3.719,-2.7344 -7.797,2.058 -1.135,1.333 -6.156,5.874 -6.156,5.874 -2.016,1.391 -3.249,3.818 -3,5.25 0.271,1.51 0.276,0.896 0.771,2.245 0.48,1.297 2.177,2.672 3.39,2.453 1.172,-0.218 1.751,-1.781 2.876,-3.922 0.895,-1.692 4.151,-4.87 4.151,-4.87 z"
     id="path402" />
  <path
     style="fill:#ffffff;fill-opacity:1;fill-rule:nonzero;stroke:none"
     d="m 184.17111,53.054539 c -0.13,0.213 -1.234,-0.136 -1.427,0.349 -0.197,0.49 0.443,0.958 0.563,2.943 v 0.02 c 0.041,1.453 0.666,2.699 1.786,3.256 1.859,0.927 4.386,-0.376 5.64,-2.901 1.262,-2.538 0.766,-5.328 -1.093,-6.256 -1.771,-0.891 -4.172,0.272 -5.469,2.589"
     id="path403" />
  <path
     style="fill:none;stroke:#231f20;stroke-width:0.565977;stroke-linecap:butt;stroke-linejoin:miter;stroke-miterlimit:4;stroke-dasharray:none;stroke-opacity:1"
     d="m 184.17111,53.054539 c -0.13,0.213 -1.234,-0.136 -1.427,0.349 -0.197,0.49 0.443,0.958 0.563,2.943 v 0.02 c 0.041,1.453 0.666,2.699 1.786,3.256 1.859,0.927 4.386,-0.376 5.64,-2.901 1.262,-2.538 0.766,-5.328 -1.093,-6.256 -1.771,-0.891 -4.172,0.272 -5.469,2.589 z"
     id="path404" />
  <path
     style="fill:#231f20;fill-opacity:1;fill-rule:nonzero;stroke:none"
     d="m 221.81711,27.846539 c 0.457,2.2133 0.848,2.5826 1.791,2.4466 0.636,-0.088 1.25,0.0534 1.636,0.016 1.292,-0.1093 3.421,-0.8386 8.916,-4.4733 1.234,-0.8226 3,-1.964 3.75,-2.3746 1.188,-0.6574 -0.697,-2.1934 -1.172,-1.9387 -1.516,0.7973 -2.614,1.224 -3.197,1.4427 -0.407,0.1466 -1.073,0.5053 -2.704,0.876 -2.463,0.5573 -4.025,0.5253 -6.02,1.2293 -0.923,0.3227 -1.828,-0.0213 -2.568,0.7707 -0.76,0.776 -0.432,2.0053 -0.432,2.0053"
     id="path405" />
  <path
     style="fill:none;stroke:#231f20;stroke-width:0.565977;stroke-linecap:butt;stroke-linejoin:miter;stroke-miterlimit:4;stroke-dasharray:none;stroke-opacity:1"
     d="m 221.81711,27.846539 c 0.457,2.2133 0.848,2.5826 1.791,2.4466 0.636,-0.088 1.25,0.0534 1.636,0.016 1.292,-0.1093 3.421,-0.8386 8.916,-4.4733 1.234,-0.8226 3,-1.964 3.75,-2.3746 1.188,-0.6574 -0.697,-2.1934 -1.172,-1.9387 -1.516,0.7973 -2.614,1.224 -3.197,1.4427 -0.407,0.1466 -1.073,0.5053 -2.704,0.876 -2.463,0.5573 -4.025,0.5253 -6.02,1.2293 -0.923,0.3227 -1.828,-0.0213 -2.568,0.7707 -0.76,0.776 -0.432,2.0053 -0.432,2.0053 z"
     id="path406" />
  <path
     style="fill:#231f20;fill-opacity:1;fill-rule:nonzero;stroke:#231f20;stroke-width:0.565977;stroke-linecap:round;stroke-linejoin:round;stroke-miterlimit:4;stroke-dasharray:none;stroke-opacity:1"
     d="m 223.28011,25.809239 c -1.187,-0.7707 -3.01,0.3746 -3.343,0.4173 -4.985,0.5573 -5.324,0.7293 -9.079,1.4267 -5.442,1 -9.01,2.5266 -9.354,5.8643 -0.23,2.256 0.62,3.662 1.792,4.266 1.292,0.667 4.469,0.667 6.016,-1.77 l 1.541,-0.751 c 1.099,-0.375 1.645,-0.563 2.197,-0.708 0.97,-0.24 2,-0.563 3.876,-1.147 3.312,-1.0304 6.484,-3.2024 6.484,-3.2024 0.292,-0.104 0.495,-0.292 0.631,-0.5253"
     id="path407" />
  <path
     style="fill:#fab41d;fill-opacity:1;fill-rule:nonzero;stroke:#231f20;stroke-width:0.565977;stroke-linecap:butt;stroke-linejoin:miter;stroke-miterlimit:4;stroke-dasharray:none;stroke-opacity:1"
     d="m 207.32211,28.215839 c -3.63,0.9947 -5.912,2.4893 -6.188,5.1257 -0.234,2.249 0.599,3.666 1.771,4.27 1.292,0.678 4.469,0.687 6.021,-1.75 z"
     id="path408" />
  <path
     style="fill:#231f20;fill-opacity:1;fill-rule:nonzero;stroke:none"
     d="m 194.96811,38.070539 c 1.255,0.333 0.385,2.171 0.229,2.687 -0.161,0.521 -0.437,2.046 -0.5,3.27 -0.062,1.23 -0.661,2.73 -0.781,5.052 -0.068,1.219 -0.907,2.371 -2.667,2.194 -1.75,-0.167 -2.317,-1.214 -2.021,-2.678 0.308,-1.464 1.209,-2.718 1.615,-4.172 0.412,-1.458 0.693,-2.978 0.849,-4.182 0.188,-1.37 0.781,-1.979 1.245,-2.104 1.156,-0.318 2.031,-0.067 2.031,-0.067"
     id="path409" />
  <path
     style="fill:none;stroke:#231f20;stroke-width:0.565977;stroke-linecap:butt;stroke-linejoin:miter;stroke-miterlimit:4;stroke-dasharray:none;stroke-opacity:1"
     d="m 194.96811,38.070539 c 1.255,0.333 0.385,2.171 0.229,2.687 -0.161,0.521 -0.437,2.046 -0.5,3.27 -0.062,1.23 -0.661,2.73 -0.781,5.052 -0.068,1.219 -0.907,2.371 -2.667,2.194 -1.75,-0.167 -2.317,-1.214 -2.021,-2.678 0.308,-1.464 1.209,-2.718 1.615,-4.172 0.412,-1.458 0.693,-2.978 0.849,-4.182 0.188,-1.37 0.781,-1.979 1.245,-2.104 1.156,-0.318 2.031,-0.067 2.031,-0.067 z"
     id="path410" />
  <path
     style="fill:#231f20;fill-opacity:1;fill-rule:nonzero;stroke:none"
     d="m 240.42611,23.085239 c -0.437,1.2813 -1.432,1.3133 -2.245,0.6666 -0.244,-0.1973 -0.651,-0.104 -0.875,-0.312 -0.51,-0.484 -0.51,-2.224 0.954,-2.5933 0.098,-0.0213 0.796,-0.4533 1.364,-0.6987 1.12,-0.464 3.589,-0.864 5.765,0.7454 1.021,0.7546 0.381,1.224 -0.129,1.0466 -1.604,-0.5786 -1.86,-0.3133 -2.344,-0.308 -1.62,0 -2.49,1.4534 -2.49,1.4534"
     id="path411" />
  <path
     style="fill:none;stroke:#231f20;stroke-width:0.332927;stroke-linecap:butt;stroke-linejoin:miter;stroke-miterlimit:4;stroke-dasharray:none;stroke-opacity:1"
     d="m 240.42611,23.085239 c -0.437,1.2813 -1.432,1.3133 -2.245,0.6666 -0.244,-0.1973 -0.651,-0.104 -0.875,-0.312 -0.51,-0.484 -0.51,-2.224 0.954,-2.5933 0.098,-0.0213 0.796,-0.4533 1.364,-0.6987 1.12,-0.464 3.589,-0.864 5.765,0.7454 1.021,0.7546 0.381,1.224 -0.129,1.0466 -1.604,-0.5786 -1.86,-0.3133 -2.344,-0.308 -1.62,0 -2.49,1.4534 -2.49,1.4534 z"
     id="path412" />
  <path
     style="fill:#231f20;fill-opacity:1;fill-rule:nonzero;stroke:none"
     d="m 254.75411,61.819539 c -0.458,-0.442 -0.636,-2.39 -1.374,-3.812 -0.511,-0.958 -0.678,-3.698 -1.251,-4.62 -0.521,-0.844 -0.688,-1.276 0.172,-2.041 0.511,-0.453 1.792,-1 2.145,-0.631 0.828,0.85 1.178,1.73 1.35,2.782 0.193,1.208 0.432,4.505 0.421,5.12 -0.036,1.52 0.407,2.109 0.444,2.514 0.047,0.762 -0.229,0.964 -0.715,1.106 -0.921,0.276 -1.192,-0.418 -1.192,-0.418"
     id="path413" />
  <path
     style="fill:none;stroke:#231f20;stroke-width:0.565977;stroke-linecap:butt;stroke-linejoin:miter;stroke-miterlimit:4;stroke-dasharray:none;stroke-opacity:1"
     d="m 254.75411,61.819539 c -0.458,-0.442 -0.636,-2.39 -1.374,-3.812 -0.511,-0.958 -0.678,-3.698 -1.251,-4.62 -0.521,-0.844 -0.688,-1.276 0.172,-2.041 0.511,-0.453 1.792,-1 2.145,-0.631 0.828,0.85 1.178,1.73 1.35,2.782 0.193,1.208 0.432,4.505 0.421,5.12 -0.036,1.52 0.407,2.109 0.444,2.514 0.047,0.762 -0.229,0.964 -0.715,1.106 -0.921,0.276 -1.192,-0.418 -1.192,-0.418 z"
     id="path414" />
  <path
     style="fill:#231f20;fill-opacity:1;fill-rule:nonzero;stroke:none"
     d="m 261.77011,62.450539 c -0.62,0.385 -3.797,1.083 -4.526,1.203 -0.656,0.114 -1.678,0.661 -2.339,-0.287 -0.276,-0.369 -0.407,-1.12 -0.375,-1.432 0.026,-0.265 0.318,-0.417 0.708,-0.443 0.667,-0.062 0.886,0.188 2.156,0.156 0,0 0.308,0.042 0.844,0.147 1.599,0.301 0.866,0.317 3.292,0.233 0.172,-0.005 0.296,0.162 0.292,0.271 -0.005,0.188 -0.052,0.152 -0.052,0.152"
     id="path415" />
  <path
     style="fill:none;stroke:#231f20;stroke-width:0.565977;stroke-linecap:round;stroke-linejoin:round;stroke-miterlimit:4;stroke-dasharray:none;stroke-opacity:1"
     d="m 261.77011,62.450539 c -0.62,0.385 -3.797,1.083 -4.526,1.203 -0.656,0.114 -1.678,0.661 -2.339,-0.287 -0.276,-0.369 -0.407,-1.12 -0.375,-1.432 0.026,-0.265 0.318,-0.417 0.708,-0.443 0.667,-0.062 0.886,0.188 2.156,0.156 0,0 0.308,0.042 0.844,0.147 1.599,0.301 0.866,0.317 3.292,0.233 0.172,-0.005 0.296,0.162 0.292,0.271 -0.005,0.188 -0.052,0.152 -0.052,0.152 z"
     id="path416" />
  <path
     style="fill:#fab41d;fill-opacity:1;fill-rule:nonzero;stroke:none"
     d="m 249.10411,57.070539 c 1.88,2.504 2.009,3.255 2.233,4.145 1.376,5.615 4.109,4.834 6.057,2.714 2.303,-2.495 3.178,-3.344 -1.062,-7.995 -1.182,-1.292 -5.062,-6.844 -5.062,-6.844 -1.125,-2.177 -3.376,-3.703 -4.829,-3.635 -1.536,0.078 -0.921,0.162 -2.323,0.49 -1.348,0.312 -2.926,1.822 -2.858,3.052 0.068,1.186 1.546,1.962 3.53,3.344 1.563,1.098 4.314,4.729 4.314,4.729"
     id="path417" />
  <path
     style="fill:none;stroke:#231f20;stroke-width:0.565977;stroke-linecap:butt;stroke-linejoin:miter;stroke-miterlimit:4;stroke-dasharray:none;stroke-opacity:1"
     d="m 249.10411,57.070539 c 1.88,2.504 2.009,3.255 2.233,4.145 1.376,5.615 4.109,4.834 6.057,2.714 2.303,-2.495 3.178,-3.344 -1.062,-7.995 -1.182,-1.292 -5.062,-6.844 -5.062,-6.844 -1.125,-2.177 -3.376,-3.703 -4.829,-3.635 -1.536,0.078 -0.921,0.162 -2.323,0.49 -1.348,0.312 -2.926,1.822 -2.858,3.052 0.068,1.186 1.546,1.962 3.53,3.344 1.563,1.098 4.314,4.729 4.314,4.729 z"
     id="path418" />
  <path
     style="fill:#ffffff;fill-opacity:1;fill-rule:nonzero;stroke:none"
     d="m 242.64011,39.642539 c -0.126,-0.213 0.697,-1.025 0.364,-1.421 -0.343,-0.407 -1.063,-0.052 -2.87,-0.88 l -0.021,-0.006 c -1.301,-0.641 -2.692,-0.672 -3.713,0.058 -1.683,1.218 -1.708,4.057 -0.063,6.348 1.657,2.297 4.36,3.162 6.047,1.953 1.614,-1.156 1.704,-3.817 0.256,-6.052"
     id="path419" />
  <path
     style="fill:none;stroke:#231f20;stroke-width:0.565977;stroke-linecap:butt;stroke-linejoin:miter;stroke-miterlimit:4;stroke-dasharray:none;stroke-opacity:1"
     d="m 242.64011,39.642539 c -0.126,-0.213 0.697,-1.025 0.364,-1.421 -0.343,-0.407 -1.063,-0.052 -2.87,-0.88 l -0.021,-0.006 c -1.301,-0.641 -2.692,-0.672 -3.713,0.058 -1.683,1.218 -1.708,4.057 -0.063,6.348 1.657,2.297 4.36,3.162 6.047,1.953 1.614,-1.156 1.704,-3.817 0.256,-6.052 z"
     id="path420" />
  <path
     style="fill:#231f20;fill-opacity:1;fill-rule:nonzero;stroke:none"
     d="m 266.52011,78.174539 c -2.063,0.937 -2.339,1.396 -1.995,2.291 0.224,0.6 0.224,1.224 0.344,1.6 0.385,1.233 1.572,3.15 6.323,7.707 1.078,1.026 2.578,2.495 3.14,3.135 0.901,1.011 1.99,-1.161 1.641,-1.572 -1.12,-1.297 -1.776,-2.276 -2.12,-2.797 -0.229,-0.359 -0.729,-0.937 -1.443,-2.448 -1.088,-2.281 -1.401,-3.807 -2.526,-5.599 -0.515,-0.828 -0.386,-1.786 -1.318,-2.338 -0.921,-0.568 -2.046,0.021 -2.046,0.021"
     id="path421" />
  <path
     style="fill:none;stroke:#231f20;stroke-width:0.565977;stroke-linecap:butt;stroke-linejoin:miter;stroke-miterlimit:4;stroke-dasharray:none;stroke-opacity:1"
     d="m 266.52011,78.174539 c -2.063,0.937 -2.339,1.396 -1.995,2.291 0.224,0.6 0.224,1.224 0.344,1.6 0.385,1.233 1.572,3.15 6.323,7.707 1.078,1.026 2.578,2.495 3.14,3.135 0.901,1.011 1.99,-1.161 1.641,-1.572 -1.12,-1.297 -1.776,-2.276 -2.12,-2.797 -0.229,-0.359 -0.729,-0.937 -1.443,-2.448 -1.088,-2.281 -1.401,-3.807 -2.526,-5.599 -0.515,-0.828 -0.386,-1.786 -1.318,-2.338 -0.921,-0.568 -2.046,0.021 -2.046,0.021 z"
     id="path422" />
  <path
     style="fill:#231f20;fill-opacity:1;fill-rule:nonzero;stroke:#231f20;stroke-width:0.565977;stroke-linecap:round;stroke-linejoin:round;stroke-miterlimit:4;stroke-dasharray:none;stroke-opacity:1"
     d="m 268.82611,79.158539 c 0.491,-1.328 -1.03,-2.86 -1.145,-3.172 -1.64,-4.74 -1.885,-5.036 -3.385,-8.547 -2.178,-5.084 -4.454,-8.229 -7.782,-7.828 -2.254,0.271 -3.432,1.406 -3.77,2.682 -0.364,1.406 0.338,4.51 3.057,5.48 l 1.068,1.344 c 0.609,0.984 0.905,1.478 1.172,1.984 0.448,0.89 0.995,1.828 1.973,3.525 1.735,3.005 4.552,5.62 4.552,5.62 0.167,0.261 0.396,0.417 0.651,0.5"
     id="path423" />
  <path
     style="fill:#fab41d;fill-opacity:1;fill-rule:nonzero;stroke:none"
     d="m 256.60411,59.205539 c -2.251,0.265 -3.444,1.396 -3.778,2.666 -0.374,1.418 0.314,4.516 3.032,5.49 l 7.11,-3.244 c -1.771,-3.323 -3.735,-5.219 -6.364,-4.912"
     id="path424" />
  <path
     style="fill:none;stroke:#231f20;stroke-width:0.565977;stroke-linecap:butt;stroke-linejoin:miter;stroke-miterlimit:4;stroke-dasharray:none;stroke-opacity:1"
     d="m 256.60411,59.205539 c -2.251,0.265 -3.444,1.396 -3.778,2.666 -0.374,1.418 0.314,4.516 3.032,5.49 l 7.11,-3.244 c -1.771,-3.323 -3.735,-5.219 -6.364,-4.912 z"
     id="path425" />
  <path
     style="fill:#231f20;fill-opacity:1;fill-rule:nonzero;stroke:none"
     d="m 254.00911,52.533539 c -0.484,1.204 -2.203,0.109 -2.692,-0.115 -0.5,-0.219 -1.98,-0.687 -3.188,-0.901 -1.208,-0.219 -2.62,-1 -4.912,-1.411 -1.197,-0.219 -2.233,-1.193 -1.837,-2.923 0.385,-1.713 1.489,-2.145 2.905,-1.666 1.417,0.485 2.547,1.537 3.937,2.125 1.396,0.589 2.871,1.057 4.048,1.371 1.328,0.353 1.864,1.014 1.927,1.494 0.172,1.182 -0.188,2.026 -0.188,2.026"
     id="path426" />
  <path
     style="fill:none;stroke:#231f20;stroke-width:0.565977;stroke-linecap:butt;stroke-linejoin:miter;stroke-miterlimit:4;stroke-dasharray:none;stroke-opacity:1"
     d="m 254.00911,52.533539 c -0.484,1.204 -2.203,0.109 -2.692,-0.115 -0.5,-0.219 -1.98,-0.687 -3.188,-0.901 -1.208,-0.219 -2.62,-1 -4.912,-1.411 -1.197,-0.219 -2.233,-1.193 -1.837,-2.923 0.385,-1.713 1.489,-2.145 2.905,-1.666 1.417,0.485 2.547,1.537 3.937,2.125 1.396,0.589 2.871,1.057 4.048,1.371 1.328,0.353 1.864,1.014 1.927,1.494 0.172,1.182 -0.188,2.026 -0.188,2.026 z"
     id="path427" />
  <path
     style="fill:#231f20;fill-opacity:1;fill-rule:nonzero;stroke:none"
     d="m 275.25411,95.278539 c -1.344,-0.142 -1.593,-1.11 -1.141,-2.042 0.136,-0.277 -0.047,-0.657 0.109,-0.922 0.36,-0.604 2.058,-0.984 2.735,0.36 0.052,0.088 0.62,0.676 0.989,1.181 0.694,0.991 1.631,3.308 0.543,5.781 -0.511,1.167001 -1.109,0.642001 -1.052,0.11 0.213,-1.698 -0.105,-1.886 -0.22,-2.359 -0.353,-1.579 -1.963,-2.109 -1.963,-2.109"
     id="path428" />
  <path
     style="fill:none;stroke:#231f20;stroke-width:0.332927;stroke-linecap:butt;stroke-linejoin:miter;stroke-miterlimit:4;stroke-dasharray:none;stroke-opacity:1"
     d="m 275.25411,95.278539 c -1.344,-0.142 -1.593,-1.11 -1.141,-2.042 0.136,-0.277 -0.047,-0.657 0.109,-0.922 0.36,-0.604 2.058,-0.984 2.735,0.36 0.052,0.088 0.62,0.676 0.989,1.181 0.694,0.991 1.631,3.308 0.543,5.781 -0.511,1.167001 -1.109,0.642001 -1.052,0.11 0.213,-1.698 -0.105,-1.886 -0.22,-2.359 -0.353,-1.579 -1.963,-2.109 -1.963,-2.109 z"
     id="path429" />
  <path
     style="fill:#231f20;fill-opacity:1;fill-rule:nonzero;stroke:none"
     d="m 85.061109,13.757239 c -0.014,0.7347 1.052,3.808 1.334,4.4946 0.245,0.6147 0.313,1.776 1.469,1.8387 0.459,0.0467 1.160998,-0.24 1.415998,-0.4267 0.209,-0.1613 0.183,-0.484 0.005,-0.8333 -0.296,-0.604 -0.619998,-0.6613 -1.259998,-1.76 0,0 -0.193,-0.24 -0.562,-0.6413 -1.094,-1.208 -0.73,-0.5734 -1.927,-2.6827 -0.084,-0.1506 -0.287,-0.1666 -0.385,-0.1093 -0.152,0.104 -0.09,0.12 -0.09,0.12"
     id="path430" />
  <path
     style="fill:none;stroke:#231f20;stroke-width:0.565977;stroke-linecap:round;stroke-linejoin:round;stroke-miterlimit:4;stroke-dasharray:none;stroke-opacity:1"
     d="m 85.061109,13.757239 c -0.014,0.7347 1.052,3.808 1.334,4.4946 0.245,0.6147 0.313,1.776 1.469,1.8387 0.459,0.0467 1.160998,-0.24 1.415998,-0.4267 0.209,-0.1613 0.183,-0.484 0.005,-0.8333 -0.296,-0.604 -0.619998,-0.6613 -1.259998,-1.76 0,0 -0.193,-0.24 -0.562,-0.6413 -1.094,-1.208 -0.73,-0.5734 -1.927,-2.6827 -0.084,-0.1506 -0.287,-0.1666 -0.385,-0.1093 -0.152,0.104 -0.09,0.12 -0.09,0.12 z"
     id="path431" />
  <path
     style="fill:#231f20;fill-opacity:1;fill-rule:nonzero;stroke:none"
     d="m 83.884109,11.689239 c -0.728,-0.072 -3.88,0.7293 -4.593,0.9533 -0.635,0.188 -1.792,0.1614 -1.954,1.3134 -0.082,0.448 0.142,1.172 0.308,1.448 0.14,0.2186 0.468,0.2186 0.834,0.072 0.62,-0.2494 0.702,-0.5627 1.853,-1.104 0,0 0.256,-0.172 0.683,-0.516 1.302,-0.984 0.636,-0.672 2.844,-1.692 0.15,-0.0627 0.192,-0.2707 0.14,-0.3694 -0.094,-0.1626 -0.115,-0.1053 -0.115,-0.1053"
     id="path432" />
  <path
     style="fill:none;stroke:#231f20;stroke-width:0.565977;stroke-linecap:round;stroke-linejoin:round;stroke-miterlimit:4;stroke-dasharray:none;stroke-opacity:1"
     d="m 83.884109,11.689239 c -0.728,-0.072 -3.88,0.7293 -4.593,0.9533 -0.635,0.188 -1.792,0.1614 -1.954,1.3134 -0.082,0.448 0.142,1.172 0.308,1.448 0.14,0.2186 0.468,0.2186 0.834,0.072 0.62,-0.2494 0.702,-0.5627 1.853,-1.104 0,0 0.256,-0.172 0.683,-0.516 1.302,-0.984 0.636,-0.672 2.844,-1.692 0.15,-0.0627 0.192,-0.2707 0.14,-0.3694 -0.094,-0.1626 -0.115,-0.1053 -0.115,-0.1053 z"
     id="path433" />
  <path
     style="fill:#231f20;fill-opacity:1;fill-rule:nonzero;stroke:#231f20;stroke-width:0.565977;stroke-linecap:round;stroke-linejoin:round;stroke-miterlimit:4;stroke-dasharray:none;stroke-opacity:1"
     d="m 82.656109,33.303539 c 0,0 -0.907,-0.957 -2.016,-1.3224 -1.099,-0.364 -2.453,-0.2706 -2.453,-0.2706 l -1.094,3.109 4.52,1.584 z"
     id="path434" />
  <path
     style="fill:#231f20;fill-opacity:1;fill-rule:nonzero;stroke:none"
     d="m 71.796109,47.231539 c -3.547,-0.636 -3.516,1.047 -5.197,4.766 -1.839,4.062 -3.319,8.494 -3.407,11.797 -0.104,3.687 -0.598,3.848 1.068,4.801 1.662,0.954 2.072,0.292 3.249,-0.218 1.371,-0.594 1.938,-7.922 4.052,-12.183 0.99,-1.995 4.652,-6.129 3.538,-7.063 -1.12,-0.932 -3.303,-1.9 -3.303,-1.9"
     id="path435" />
  <path
     style="fill:none;stroke:#231f20;stroke-width:0.565977;stroke-linecap:butt;stroke-linejoin:miter;stroke-miterlimit:4;stroke-dasharray:none;stroke-opacity:1"
     d="m 71.796109,47.231539 c -3.547,-0.636 -3.516,1.047 -5.197,4.766 -1.839,4.062 -3.319,8.494 -3.407,11.797 -0.104,3.687 -0.598,3.848 1.068,4.801 1.662,0.954 2.072,0.292 3.249,-0.218 1.371,-0.594 1.938,-7.922 4.052,-12.183 0.99,-1.995 4.652,-6.129 3.538,-7.063 -1.12,-0.932 -3.303,-1.9 -3.303,-1.9 z"
     id="path436" />
  <path
     style="fill:#231f20;fill-opacity:1;fill-rule:nonzero;stroke:none"
     d="m 65.890109,67.038539 c -2.083,-0.901 -2.676,-1.188 -3.291,1.24 -0.152,0.615 -0.464,2.364 -0.657,2.703 -0.651,1.125 -1.302,2.484 -1.474,9.068 -0.026,1.021 -0.412,2.958 -0.573,4.354 -0.151,1.348 2.193,0.687 2.261,0.156 0.208,-1.698 0.714,-2.745 0.875,-3.349 0.109,-0.412 0.183,-1.219 0.995,-2.672 2.073,-3.744 1.358,-5.396 1.724,-6.219 1.052,-2.36 2.437,-4.156 1.967,-4.63 -0.765,-0.766 -1.827,-0.651 -1.827,-0.651"
     id="path437" />
  <path
     style="fill:none;stroke:#231f20;stroke-width:0.565977;stroke-linecap:butt;stroke-linejoin:miter;stroke-miterlimit:4;stroke-dasharray:none;stroke-opacity:1"
     d="m 65.890109,67.038539 c -2.083,-0.901 -2.676,-1.188 -3.291,1.24 -0.152,0.615 -0.464,2.364 -0.657,2.703 -0.651,1.125 -1.302,2.484 -1.474,9.068 -0.026,1.021 -0.412,2.958 -0.573,4.354 -0.151,1.348 2.193,0.687 2.261,0.156 0.208,-1.698 0.714,-2.745 0.875,-3.349 0.109,-0.412 0.183,-1.219 0.995,-2.672 2.073,-3.744 1.358,-5.396 1.724,-6.219 1.052,-2.36 2.437,-4.156 1.967,-4.63 -0.765,-0.766 -1.827,-0.651 -1.827,-0.651 z"
     id="path438" />
  <path
     style="fill:#231f20;fill-opacity:1;fill-rule:nonzero;stroke:none"
     d="m 77.604109,49.491539 c 3.239,1.583 2.223,2.922 1.385,6.912 -0.917,4.364 -2.338,8.823 -4.214,11.536 -2.094,3.036 -1.791,3.459 -3.698,3.244 -1.906,-0.208 -1.844,-0.989 -2.494,-2.098 -0.76,-1.287 3.114,-7.536 3.921,-12.219 0.38,-2.197 -0.129,-7.697 1.319,-7.792 1.448,-0.088 3.781,0.417 3.781,0.417"
     id="path439" />
  <path
     style="fill:none;stroke:#231f20;stroke-width:0.565977;stroke-linecap:butt;stroke-linejoin:miter;stroke-miterlimit:4;stroke-dasharray:none;stroke-opacity:1"
     d="m 77.604109,49.491539 c 3.239,1.583 2.223,2.922 1.385,6.912 -0.917,4.364 -2.338,8.823 -4.214,11.536 -2.094,3.036 -1.791,3.459 -3.698,3.244 -1.906,-0.208 -1.844,-0.989 -2.494,-2.098 -0.76,-1.287 3.114,-7.536 3.921,-12.219 0.38,-2.197 -0.129,-7.697 1.319,-7.792 1.448,-0.088 3.781,0.417 3.781,0.417 z"
     id="path440" />
  <path
     style="fill:#fab41d;fill-opacity:1;fill-rule:nonzero;stroke:none"
     d="m 72.099109,56.122539 c -0.47,-0.163 -0.902,-0.772 -0.902,-0.772 0,0 1.255,-5.703 -0.813,-8.031 l -0.333,-0.136 c -1.14,0.516 0.772,-0.957 1.005,-1.656 1.021,-3.093 1.391,-8.177 1.157,-9.494 -0.324,-1.802 -2.584,-3.135 -0.958,-4.5684 0,0 1.192,-1.536 3.697,-0.2706 0.912,0.4533 3.235,0.516 3.235,0.516 -0.022,0.0306 -0.042,0.068 -0.058,0.104 -0.412,1.188 0.36,2.213 1.615,2.677 l -0.073,-0.026 c 1.27,0.422 2.537,0.048 2.933,-1.078 0.009,-0.037 0.02,-0.078 0.02,-0.12 0,0 1.849,1.412 2.844,1.626 2.749,0.577 2.568,2.76 2.568,2.76 0.375,2.136 -2.079,1.521 -3.459,2.729 -1.005,0.875 -3.901,5.079 -5.036,8.125 -0.261,0.698 0.312,3.042 -0.261,1.927 l -0.339,-0.104 c -3.066,0.516 -5.666,5.755 -5.666,5.755 0,0 -0.714,0.204 -1.176,0.037"
     id="path441" />
  <path
     style="fill:none;stroke:#231f20;stroke-width:0.565977;stroke-linecap:butt;stroke-linejoin:miter;stroke-miterlimit:4;stroke-dasharray:none;stroke-opacity:1"
     d="m 72.099109,56.122539 c -0.47,-0.163 -0.902,-0.772 -0.902,-0.772 0,0 1.255,-5.703 -0.813,-8.031 l -0.333,-0.136 c -1.14,0.516 0.772,-0.957 1.005,-1.656 1.021,-3.093 1.391,-8.177 1.157,-9.494 -0.324,-1.802 -2.584,-3.135 -0.958,-4.5684 0,0 1.192,-1.536 3.697,-0.2706 0.912,0.4533 3.235,0.516 3.235,0.516 -0.022,0.0306 -0.042,0.068 -0.058,0.104 -0.412,1.188 0.36,2.213 1.615,2.677 l -0.073,-0.026 c 1.27,0.422 2.537,0.048 2.933,-1.078 0.009,-0.037 0.02,-0.078 0.02,-0.12 0,0 1.849,1.412 2.844,1.626 2.749,0.577 2.568,2.76 2.568,2.76 0.375,2.136 -2.079,1.521 -3.459,2.729 -1.005,0.875 -3.901,5.079 -5.036,8.125 -0.261,0.698 0.312,3.042 -0.261,1.927 l -0.339,-0.104 c -3.066,0.516 -5.666,5.755 -5.666,5.755 0,0 -0.714,0.204 -1.176,0.037 z"
     id="path442" />
  <path
     style="fill:#ffffff;fill-opacity:1;fill-rule:nonzero;stroke:none"
     d="m 78.437109,26.751839 c -0.838,2.6933 0.088,5.3853 2.067,6 1.985,0.6197 4.271,-1.068 5.109,-3.7653 0.844,-2.6973 -0.088,-5.3853 -2.066,-6 -1.986,-0.6147 -4.272,1.068 -5.11,3.7653"
     id="path443" />
  <path
     style="fill:none;stroke:#231f20;stroke-width:0.565977;stroke-linecap:butt;stroke-linejoin:miter;stroke-miterlimit:4;stroke-dasharray:none;stroke-opacity:1"
     d="m 78.437109,26.751839 c -0.838,2.6933 0.088,5.3853 2.067,6 1.985,0.6197 4.271,-1.068 5.109,-3.7653 0.844,-2.6973 -0.088,-5.3853 -2.066,-6 -1.986,-0.6147 -4.272,1.068 -5.11,3.7653 z"
     id="path444" />
  <path
     style="fill:#231f20;fill-opacity:1;fill-rule:nonzero;stroke:none"
     d="m 70.708109,68.959539 c 2.203,0.516 2.853,0.636 1.905,2.954 -0.244,0.589 -1.036,2.177 -1.077,2.568 -0.152,1.286 -0.437,2.765 -4.213,8.161 -0.589,0.839 -1.428,2.62 -2.131,3.839 -0.682,1.177 -2.172,-0.75 -1.906,-1.214 0.838,-1.494 1.052,-2.641 1.286,-3.218 0.156,-0.396 0.579,-1.09 0.798,-2.735 0.557,-4.244 2.114,-5.145 2.306,-6.025 0.557,-2.522 0.511,-4.792 1.172,-4.896 1.073,-0.162 1.86,0.566 1.86,0.566"
     id="path445" />
  <path
     style="fill:none;stroke:#231f20;stroke-width:0.565977;stroke-linecap:butt;stroke-linejoin:miter;stroke-miterlimit:4;stroke-dasharray:none;stroke-opacity:1"
     d="m 70.708109,68.959539 c 2.203,0.516 2.853,0.636 1.905,2.954 -0.244,0.589 -1.036,2.177 -1.077,2.568 -0.152,1.286 -0.437,2.765 -4.213,8.161 -0.589,0.839 -1.428,2.62 -2.131,3.839 -0.682,1.177 -2.172,-0.75 -1.906,-1.214 0.838,-1.494 1.052,-2.641 1.286,-3.218 0.156,-0.396 0.579,-1.09 0.798,-2.735 0.557,-4.244 2.114,-5.145 2.306,-6.025 0.557,-2.522 0.511,-4.792 1.172,-4.896 1.073,-0.162 1.86,0.566 1.86,0.566 z"
     id="path446" />
  <path
     style="fill:#231f20;fill-opacity:1;fill-rule:nonzero;stroke:none"
     d="m 88.541109,26.461239 c -1.24,-0.3707 -1.464,1.6506 -1.6,2.176 -0.134,0.5266 -0.702,1.9746 -1.29,3.0466 -0.584,1.0787 -0.86,2.6667 -1.97,4.7147 -0.582,1.072 -0.468,2.489 1.131,3.265 1.572,0.771 2.604,0.178 3.115,-1.229 0.505,-1.407 0.39,-2.943 0.806,-4.396 0.417998,-1.4534 0.974998,-2.9014 1.463998,-4.0107 0.558,-1.2653 0.364,-2.0986 0.042,-2.448 -0.818,-0.8693 -1.697998,-1.1186 -1.697998,-1.1186"
     id="path447" />
  <path
     style="fill:none;stroke:#231f20;stroke-width:0.565977;stroke-linecap:butt;stroke-linejoin:miter;stroke-miterlimit:4;stroke-dasharray:none;stroke-opacity:1"
     d="m 88.541109,26.461239 c -1.24,-0.3707 -1.464,1.6506 -1.6,2.176 -0.134,0.5266 -0.702,1.9746 -1.29,3.0466 -0.584,1.0787 -0.86,2.6667 -1.97,4.7147 -0.582,1.072 -0.468,2.489 1.131,3.265 1.572,0.771 2.604,0.178 3.115,-1.229 0.505,-1.407 0.39,-2.943 0.806,-4.396 0.417998,-1.4534 0.974998,-2.9014 1.463998,-4.0107 0.558,-1.2653 0.364,-2.0986 0.042,-2.448 -0.818,-0.8693 -1.697998,-1.1186 -1.697998,-1.1186 z"
     id="path448" />
  <path
     style="fill:#231f20;fill-opacity:1;fill-rule:nonzero;stroke:none"
     d="m 89.020107,17.819839 c 0.407,0.5 0.339,2.448 0.901,3.9534 0.38,1.016 0.214,3.7546 0.672,4.74 0.416,0.9 0.515,1.3533 -0.433,2.0093 -0.556,0.3853 -1.888998,0.7666 -2.202998,0.36 -0.718,-0.948 -0.953,-1.8653 -0.989,-2.932 -0.047,-1.2187 0.125,-4.5213 0.213,-5.1307 0.224,-1.5053 -0.145,-2.14 -0.125,-2.552 0.037,-0.7546 0.339,-0.9266 0.833,-1.016 0.948,-0.1506 1.130998,0.568 1.130998,0.568"
     id="path449" />
  <path
     style="fill:none;stroke:#231f20;stroke-width:0.565977;stroke-linecap:butt;stroke-linejoin:miter;stroke-miterlimit:4;stroke-dasharray:none;stroke-opacity:1"
     d="m 89.020107,17.819839 c 0.407,0.5 0.339,2.448 0.901,3.9534 0.38,1.016 0.214,3.7546 0.672,4.74 0.416,0.9 0.515,1.3533 -0.433,2.0093 -0.556,0.3853 -1.888998,0.7666 -2.202998,0.36 -0.718,-0.948 -0.953,-1.8653 -0.989,-2.932 -0.047,-1.2187 0.125,-4.5213 0.213,-5.1307 0.224,-1.5053 -0.145,-2.14 -0.125,-2.552 0.037,-0.7546 0.339,-0.9266 0.833,-1.016 0.948,-0.1506 1.130998,0.568 1.130998,0.568 z"
     id="path450" />
  <path
     style="fill:#231f20;fill-opacity:1;fill-rule:nonzero;stroke:none"
     d="m 73.801109,20.918539 c 1.298,0.052 0.844,2.0373 0.807,2.5787 -0.041,0.5413 0.027,2.0933 0.235,3.3013 0.204,1.2093 -0.052,2.8026 0.338,5.0946 0.203,1.2084 -0.364,2.5104 -2.125,2.7294 -1.739,0.219 -2.52,-0.677 -2.547,-2.172 -0.03,-1.5 0.579,-2.912 0.656,-4.4227 0.079,-1.5106 0.016,-3.0573 -0.088,-4.2653 -0.12,-1.38 0.328,-2.0987 0.75,-2.328 1.057,-0.5627 1.974,-0.516 1.974,-0.516"
     id="path451" />
  <path
     style="fill:none;stroke:#231f20;stroke-width:0.565977;stroke-linecap:butt;stroke-linejoin:miter;stroke-miterlimit:4;stroke-dasharray:none;stroke-opacity:1"
     d="m 73.801109,20.918539 c 1.298,0.052 0.844,2.0373 0.807,2.5787 -0.041,0.5413 0.027,2.0933 0.235,3.3013 0.204,1.2093 -0.052,2.8026 0.338,5.0946 0.203,1.2084 -0.364,2.5104 -2.125,2.7294 -1.739,0.219 -2.52,-0.677 -2.547,-2.172 -0.03,-1.5 0.579,-2.912 0.656,-4.4227 0.079,-1.5106 0.016,-3.0573 -0.088,-4.2653 -0.12,-1.38 0.328,-2.0987 0.75,-2.328 1.057,-0.5627 1.974,-0.516 1.974,-0.516 z"
     id="path452" />
  <path
     style="fill:#231f20;fill-opacity:1;fill-rule:nonzero;stroke:none"
     d="m 77.187109,13.590539 c -0.579,0.276 -1.37,2.052 -2.536,3.1613 -0.787,0.7454 -1.834,3.2814 -2.672,3.9694 -0.771,0.6293 -1.063,0.9893 -0.495,1.9946 0.333,0.5934 1.364,1.516 1.823,1.2867 1.062,-0.5373 1.672,-1.2653 2.177,-2.208 0.567,-1.0733 1.864,-4.12 2.047,-4.704 0.464,-1.448 1.073,-1.864 1.229,-2.24 0.296,-0.6973 0.104,-0.984 -0.303,-1.276 -0.786,-0.552 -1.27,0.016 -1.27,0.016"
     id="path453" />
  <path
     style="fill:none;stroke:#231f20;stroke-width:0.565977;stroke-linecap:butt;stroke-linejoin:miter;stroke-miterlimit:4;stroke-dasharray:none;stroke-opacity:1"
     d="m 77.187109,13.590539 c -0.579,0.276 -1.37,2.052 -2.536,3.1613 -0.787,0.7454 -1.834,3.2814 -2.672,3.9694 -0.771,0.6293 -1.063,0.9893 -0.495,1.9946 0.333,0.5934 1.364,1.516 1.823,1.2867 1.062,-0.5373 1.672,-1.2653 2.177,-2.208 0.567,-1.0733 1.864,-4.12 2.047,-4.704 0.464,-1.448 1.073,-1.864 1.229,-2.24 0.296,-0.6973 0.104,-0.984 -0.303,-1.276 -0.786,-0.552 -1.27,0.016 -1.27,0.016 z"
     id="path454" />
  <path
     style="fill:#fab41d;fill-opacity:1;fill-rule:nonzero;stroke:none"
     d="m 79.536109,49.642539 c 0.104,0.333 0.312,1.688 0.333,2.152 0.115,2.968 -1.27,6.667 -1.432,7.932 -0.157,1.26 -6.36,-0.98 -6.36,-0.98 l 0.183,-1.948 c -0.568,0.261 -0.932,-0.317 -0.932,-0.317 l -1.079,1.702 c 0,0 -6.182,-1.9 -5.702,-2.796 0.645,-1.234 2.26,-5.573 3.89,-7.396 0.895,-1.005 1.854,-1.38 1.854,-1.38 0,0 3.078,2.23 4.426,2.703 1.344,0.475 4.819,0.328 4.819,0.328"
     id="path455" />
  <path
     style="fill:none;stroke:#231f20;stroke-width:0.565977;stroke-linecap:butt;stroke-linejoin:miter;stroke-miterlimit:4;stroke-dasharray:none;stroke-opacity:1"
     d="m 79.536109,49.642539 c 0.104,0.333 0.312,1.688 0.333,2.152 0.115,2.968 -1.27,6.667 -1.432,7.932 -0.157,1.26 -6.36,-0.98 -6.36,-0.98 l 0.183,-1.948 c -0.568,0.261 -0.932,-0.317 -0.932,-0.317 l -1.079,1.702 c 0,0 -6.182,-1.9 -5.702,-2.796 0.645,-1.234 2.26,-5.573 3.89,-7.396 0.895,-1.005 1.854,-1.38 1.854,-1.38 0,0 3.078,2.23 4.426,2.703 1.344,0.475 4.819,0.328 4.819,0.328 z"
     id="path456" />
  <path
     style="fill:#231f20;fill-opacity:1;fill-rule:nonzero;stroke:none"
     d="m 63.526109,92.158539 c 0.557,-0.36 0.218,-2.136 1.213,-3.828 0.203,-0.349 0.203,-0.729 0.265,-1.093 0.246,-1.491 -0.348,-2.975 -3.062,-0.278 -0.375,0.376 -1.119,2.339 -1.719,2.849 -1.421,1.199 -1.557,4.527 -1.057,4.662 1.073,0.318 4.36,-2.312 4.36,-2.312"
     id="path457" />
  <path
     style="fill:none;stroke:#231f20;stroke-width:0.644548;stroke-linecap:round;stroke-linejoin:round;stroke-miterlimit:4;stroke-dasharray:none;stroke-opacity:1"
     d="m 63.526109,92.158539 c 0.557,-0.36 0.218,-2.136 1.213,-3.828 0.203,-0.349 0.203,-0.729 0.265,-1.093 0.246,-1.491 -0.348,-2.975 -3.062,-0.278 -0.375,0.376 -1.119,2.339 -1.719,2.849 -1.421,1.199 -1.557,4.527 -1.057,4.662 1.073,0.318 4.36,-2.312 4.36,-2.312 z"
     id="path458" />
  <path
     style="fill:#231f20;fill-opacity:1;fill-rule:nonzero;stroke:none"
     d="m 57.624109,88.262539 c -0.12,-0.651 1.402,-1.625 1.959,-3.511 0.115,-0.385 0.385,-0.645 0.615,-0.937 0.916,-1.203 2.406,-1.792 2.296,2.036 -0.015,0.537 -0.938,2.423 -0.9,3.204 0.104,1.858 -2.219,4.234 -2.667,3.968 -0.964,-0.567 -1.303,-4.76 -1.303,-4.76"
     id="path459" />
  <path
     style="fill:none;stroke:#231f20;stroke-width:0.644548;stroke-linecap:round;stroke-linejoin:round;stroke-miterlimit:4;stroke-dasharray:none;stroke-opacity:1"
     d="m 57.624109,88.262539 c -0.12,-0.651 1.402,-1.625 1.959,-3.511 0.115,-0.385 0.385,-0.645 0.615,-0.937 0.916,-1.203 2.406,-1.792 2.296,2.036 -0.015,0.537 -0.938,2.423 -0.9,3.204 0.104,1.858 -2.219,4.234 -2.667,3.968 -0.964,-0.567 -1.303,-4.76 -1.303,-4.76 z"
     id="path460" />
  <path
     style="fill:#ffffff;fill-opacity:1;fill-rule:nonzero;stroke:none"
     d="m 310.00411,58.762539 c 0.037,-0.24 1.177,-0.375 1.152,-0.901 -0.027,-0.526 -0.798,-0.687 -1.735,-2.448 l -0.005,-0.015 c -0.642,-1.308 -1.724,-2.177 -2.975,-2.219 -2.077,-0.073 -3.837,2.156 -3.932,4.984 -0.093,2.823 1.511,5.162 3.589,5.235 1.984,0.067 3.682,-1.98 3.906,-4.636"
     id="path461" />
  <path
     style="fill:none;stroke:#231f20;stroke-width:0.565977;stroke-linecap:butt;stroke-linejoin:miter;stroke-miterlimit:4;stroke-dasharray:none;stroke-opacity:1"
     d="m 310.00411,58.762539 c 0.037,-0.24 1.177,-0.375 1.152,-0.901 -0.027,-0.526 -0.798,-0.687 -1.735,-2.448 l -0.005,-0.015 c -0.642,-1.308 -1.724,-2.177 -2.975,-2.219 -2.077,-0.073 -3.837,2.156 -3.932,4.984 -0.093,2.823 1.511,5.162 3.589,5.235 1.984,0.067 3.682,-1.98 3.906,-4.636 z"
     id="path462" />
  <path
     style="fill:#fab41d;fill-opacity:1;fill-rule:nonzero;stroke:none"
     d="m 305.50411,76.794539 c 0.089,3.135 -0.239,3.817 -0.578,4.671 -2.125,5.376 0.552,6.318 3.375,5.718 3.317,-0.702 4.521,-0.88 3.755,-7.134 -0.214,-1.73 -0.162,-8.506 -0.162,-8.506 0.344,-2.426 -0.609,-4.969 -1.838,-5.754 -1.291,-0.83 -0.839,-0.407 -2.176,-0.954 -1.276,-0.526 -3.439,-0.209 -4.095,0.834 -0.635,1.005 0.125,2.494 0.943,4.776 0.641,1.801 0.776,6.349 0.776,6.349"
     id="path463" />
  <path
     style="fill:none;stroke:#231f20;stroke-width:0.565977;stroke-linecap:butt;stroke-linejoin:miter;stroke-miterlimit:4;stroke-dasharray:none;stroke-opacity:1"
     d="m 305.50411,76.794539 c 0.089,3.135 -0.239,3.817 -0.578,4.671 -2.125,5.376 0.552,6.318 3.375,5.718 3.317,-0.702 4.521,-0.88 3.755,-7.134 -0.214,-1.73 -0.162,-8.506 -0.162,-8.506 0.344,-2.426 -0.609,-4.969 -1.838,-5.754 -1.291,-0.83 -0.839,-0.407 -2.176,-0.954 -1.276,-0.526 -3.439,-0.209 -4.095,0.834 -0.635,1.005 0.125,2.494 0.943,4.776 0.641,1.801 0.776,6.349 0.776,6.349 z"
     id="path464" />
  <path
     style="fill:#231f20;fill-opacity:1;fill-rule:nonzero;stroke:none"
     d="m 297.26011,48.783539 c 0.577,0.291 1.322,2.088 2.462,3.224 0.771,0.76 1.756,3.323 2.579,4.031 0.755,0.645 1.041,1.016 0.448,2.005 -0.349,0.583 -1.401,1.49 -1.855,1.246 -1.046,-0.563 -1.64,-1.303 -2.124,-2.262 -0.542,-1.082 -1.761,-4.161 -1.933,-4.744 -0.427,-1.469 -1.025,-1.89 -1.176,-2.27 -0.281,-0.71 -0.079,-0.991 0.337,-1.272 0.798,-0.536 1.262,0.042 1.262,0.042"
     id="path465" />
  <path
     style="fill:none;stroke:#231f20;stroke-width:0.565977;stroke-linecap:butt;stroke-linejoin:miter;stroke-miterlimit:4;stroke-dasharray:none;stroke-opacity:1"
     d="m 297.26011,48.783539 c 0.577,0.291 1.322,2.088 2.462,3.224 0.771,0.76 1.756,3.323 2.579,4.031 0.755,0.645 1.041,1.016 0.448,2.005 -0.349,0.583 -1.401,1.49 -1.855,1.246 -1.046,-0.563 -1.64,-1.303 -2.124,-2.262 -0.542,-1.082 -1.761,-4.161 -1.933,-4.744 -0.427,-1.469 -1.025,-1.89 -1.176,-2.27 -0.281,-0.71 -0.079,-0.991 0.337,-1.272 0.798,-0.536 1.262,0.042 1.262,0.042 z"
     id="path466" />
  <path
     style="fill:#231f20;fill-opacity:1;fill-rule:nonzero;stroke:none"
     d="m 301.88911,56.570539 c 1.183,-0.532 1.672,1.443 1.881,1.943 0.208,0.5 0.963,1.858 1.692,2.842 0.724,0.991 1.214,2.527 2.588,4.402 0.724,0.989 0.803,2.406 -0.67,3.39 -1.459,0.98 -2.558,0.527 -3.251,-0.797 -0.697,-1.323 -0.797,-2.864 -1.401,-4.244 -0.61,-1.385 -1.359,-2.74 -1.995,-3.771 -0.729,-1.182 -0.651,-2.026 -0.369,-2.417 0.686,-0.979 1.525,-1.348 1.525,-1.348"
     id="path467" />
  <path
     style="fill:none;stroke:#231f20;stroke-width:0.565977;stroke-linecap:butt;stroke-linejoin:miter;stroke-miterlimit:4;stroke-dasharray:none;stroke-opacity:1"
     d="m 301.88911,56.570539 c 1.183,-0.532 1.672,1.443 1.881,1.943 0.208,0.5 0.963,1.858 1.692,2.842 0.724,0.991 1.214,2.527 2.588,4.402 0.724,0.989 0.803,2.406 -0.67,3.39 -1.459,0.98 -2.558,0.527 -3.251,-0.797 -0.697,-1.323 -0.797,-2.864 -1.401,-4.244 -0.61,-1.385 -1.359,-2.74 -1.995,-3.771 -0.729,-1.182 -0.651,-2.026 -0.369,-2.417 0.686,-0.979 1.525,-1.348 1.525,-1.348 z"
     id="path468" />
  <path
     style="fill:#231f20;fill-opacity:1;fill-rule:nonzero;stroke:none"
     d="m 293.78511,42.762539 c 0.557,0.464 2.204,3.271 2.552,3.927 0.313,0.589 1.147,1.385 0.459,2.318 -0.276,0.37 -0.948,0.724 -1.26,0.791 -0.251,0.063 -0.49,-0.167 -0.642,-0.536 -0.254,-0.615 -0.088,-0.885 -0.514,-2.093 0,0 -0.058,-0.303 -0.126,-0.844 -0.208,-1.62 0.036,-0.927 -0.792,-3.198 -0.062,-0.168 0.058,-0.344 0.172,-0.376 0.172,-0.046 0.151,0.011 0.151,0.011"
     id="path469" />
  <path
     style="fill:none;stroke:#231f20;stroke-width:0.565977;stroke-linecap:round;stroke-linejoin:round;stroke-miterlimit:4;stroke-dasharray:none;stroke-opacity:1"
     d="m 293.78511,42.762539 c 0.557,0.464 2.204,3.271 2.552,3.927 0.313,0.589 1.147,1.385 0.459,2.318 -0.276,0.37 -0.948,0.724 -1.26,0.791 -0.251,0.063 -0.49,-0.167 -0.642,-0.536 -0.254,-0.615 -0.088,-0.885 -0.514,-2.093 0,0 -0.058,-0.303 -0.126,-0.844 -0.208,-1.62 0.036,-0.927 -0.792,-3.198 -0.062,-0.168 0.058,-0.344 0.172,-0.376 0.172,-0.046 0.151,0.011 0.151,0.011 z"
     id="path470" />
  <path
     style="fill:#231f20;fill-opacity:1;fill-rule:nonzero;stroke:none"
     d="m 307.94111,102.49654 c -2.228,-0.396 -2.719,-0.166 -2.952,0.76 -0.152,0.615 -0.505,1.142 -0.615,1.516 -0.376,1.244 -0.485,3.484 0.859,9.932 0.303,1.459 0.719,3.516 0.823,4.366 0.161,1.348 2.286,0.166 2.229,-0.36 -0.181,-1.708 -0.172,-2.896 -0.156,-3.516 0.011,-0.432 -0.068,-1.187 0.188,-2.834 0.396,-2.494 1,-3.932 1.088,-6.041 0.036,-0.979 0.693,-1.697 0.24,-2.683 -0.448,-0.984 -1.704,-1.14 -1.704,-1.14"
     id="path471" />
  <path
     style="fill:none;stroke:#231f20;stroke-width:0.565977;stroke-linecap:butt;stroke-linejoin:miter;stroke-miterlimit:4;stroke-dasharray:none;stroke-opacity:1"
     d="m 307.94111,102.49654 c -2.228,-0.396 -2.719,-0.166 -2.952,0.76 -0.152,0.615 -0.505,1.142 -0.615,1.516 -0.376,1.244 -0.485,3.484 0.859,9.932 0.303,1.459 0.719,3.516 0.823,4.366 0.161,1.348 2.286,0.166 2.229,-0.36 -0.181,-1.708 -0.172,-2.896 -0.156,-3.516 0.011,-0.432 -0.068,-1.187 0.188,-2.834 0.396,-2.494 1,-3.932 1.088,-6.041 0.036,-0.979 0.693,-1.697 0.24,-2.683 -0.448,-0.984 -1.704,-1.14 -1.704,-1.14 z"
     id="path472" />
  <path
     style="fill:#231f20;fill-opacity:1;fill-rule:nonzero;stroke:#231f20;stroke-width:0.565977;stroke-linecap:round;stroke-linejoin:miter;stroke-miterlimit:4;stroke-dasharray:none;stroke-opacity:1"
     d="m 309.38911,104.52754 c 1.027,-0.869 0.661,-2.859 0.751,-3.181 1.317,-4.830001 1.292,-5.215001 2.036,-8.964001 1.078,-5.417 0.984,-9.297 -1.984,-10.844 -2.016,-1.052 -3.631,-0.781 -4.631,0.079 -1.104,0.957 -2.276,3.905 -0.577,6.244 l 0.124,1.709 c -0.067,1.161 -0.088,1.733 -0.167,2.306 -0.129,0.99 -0.208,2.063 -0.359,4.016 -0.27,3.458 0.578,7.208001 0.578,7.208001 -0.015,0.312 0.089,0.574 0.256,0.787"
     id="path473" />
  <path
     style="fill:#fab41d;fill-opacity:1;fill-rule:nonzero;stroke:none"
     d="m 312.57211,84.887539 c -0.339,-1.521 -1.074,-2.666 -2.38,-3.349 -2.016,-1.052 -3.636,-0.781 -4.631,0.079 -1.104,0.957 -2.276,3.905 -0.577,6.244 l 7.702,1.313 c 0.068,-0.652 0.099,-1.261 0.104,-1.844 0.027,-0.079 0.058,-0.151 0.09,-0.213 0.38,-0.714 0.134,-1.292 -0.308,-2.23"
     id="path474" />
  <path
     style="fill:none;stroke:#231f20;stroke-width:0.565977;stroke-linecap:round;stroke-linejoin:round;stroke-miterlimit:4;stroke-dasharray:none;stroke-opacity:1"
     d="m 312.57211,84.887539 c -0.339,-1.521 -1.074,-2.666 -2.38,-3.349 -2.016,-1.052 -3.636,-0.781 -4.631,0.079 -1.104,0.957 -2.276,3.905 -0.577,6.244 l 7.702,1.313 c 0.068,-0.652 0.099,-1.261 0.104,-1.844 0.027,-0.079 0.058,-0.151 0.09,-0.213 0.38,-0.714 0.134,-1.292 -0.308,-2.23 z"
     id="path475" />
  <path
     style="fill:#231f20;fill-opacity:1;fill-rule:nonzero;stroke:none"
     d="m 306.33211,122.30354 c -1.083,-0.057 -0.818,-1.287 -0.578,-2.489 0.058,-0.302 0.088,-0.588 0.172,-0.88 0.339,-1.178 1.156,-1.834 3.11,0.437 0.072,0.084 1.91,1.271 2.478,1.516 2.746,1.172 2.975,0.359 2.746,1.172 -0.152,0.536 -0.656,0.547 -1.287,0.541 -0.855,-0.005 -3.865,-0.276 -4.328,-0.292 -0.453,-0.01 -2.313,-0.005 -2.313,-0.005"
     id="path476" />
  <path
     style="fill:none;stroke:#231f20;stroke-width:0.565977;stroke-linecap:butt;stroke-linejoin:miter;stroke-miterlimit:4;stroke-dasharray:none;stroke-opacity:1"
     d="m 306.33211,122.30354 c -1.083,-0.057 -0.818,-1.287 -0.578,-2.489 0.058,-0.302 0.088,-0.588 0.172,-0.88 0.339,-1.178 1.156,-1.834 3.11,0.437 0.072,0.084 1.91,1.271 2.478,1.516 2.746,1.172 2.975,0.359 2.746,1.172 -0.152,0.536 -0.656,0.547 -1.287,0.541 -0.855,-0.005 -3.865,-0.276 -4.328,-0.292 -0.453,-0.01 -2.313,-0.005 -2.313,-0.005 z"
     id="path478" />
  <path
     style="fill:#ffffff;fill-opacity:1;fill-rule:nonzero;stroke:none"
     d="m 19.728109,65.762539 c -0.161,-0.183 -1.186,0.339 -1.462,-0.115 -0.267,-0.448 0.285,-1.01 0.088,-2.994 v -0.022 c -0.203,-1.442 0.218,-2.76 1.234,-3.494 1.687,-1.214 4.391,-0.334 6.042,1.958 1.641,2.298 1.609,5.136 -0.079,6.355 -1.609,1.156 -4.161,0.396 -5.823,-1.688"
     id="path480" />
  <path
     style="fill:none;stroke:#231f20;stroke-width:0.565977;stroke-linecap:butt;stroke-linejoin:miter;stroke-miterlimit:4;stroke-dasharray:none;stroke-opacity:1"
     d="m 19.728109,65.762539 c -0.161,-0.183 -1.186,0.339 -1.462,-0.115 -0.267,-0.448 0.285,-1.01 0.088,-2.994 v -0.022 c -0.203,-1.442 0.218,-2.76 1.234,-3.494 1.687,-1.214 4.391,-0.334 6.042,1.958 1.641,2.298 1.609,5.136 -0.079,6.355 -1.609,1.156 -4.161,0.396 -5.823,-1.688 z"
     id="path481" />
  <path
     style="fill:#fab41d;fill-opacity:1;fill-rule:nonzero;stroke:none"
     d="m 34.266109,77.637539 c 1.894,2.49 2.582,2.813 3.38,3.27 5.025,2.86 3.53,5.272 0.958,6.574 -3.026,1.531 -4.084,2.145 -7.401,-3.208 -0.923,-1.484 -5.208,-6.73 -5.208,-6.73 -1.787,-1.672 -2.636,-4.26 -2.172,-5.636 0.484,-1.452 0.395,-0.842 1.099,-2.109 0.661,-1.203 2.546,-2.317 3.713,-1.911 1.125,0.386 1.464,2.02 2.26,4.312 0.625,1.803 3.371,5.438 3.371,5.438"
     id="path482" />
  <path
     style="fill:none;stroke:#231f20;stroke-width:0.565977;stroke-linecap:butt;stroke-linejoin:miter;stroke-miterlimit:4;stroke-dasharray:none;stroke-opacity:1"
     d="m 34.266109,77.637539 c 1.894,2.49 2.582,2.813 3.38,3.27 5.025,2.86 3.53,5.272 0.958,6.574 -3.026,1.531 -4.084,2.145 -7.401,-3.208 -0.923,-1.484 -5.208,-6.73 -5.208,-6.73 -1.787,-1.672 -2.636,-4.26 -2.172,-5.636 0.484,-1.452 0.395,-0.842 1.099,-2.109 0.661,-1.203 2.546,-2.317 3.713,-1.911 1.125,0.386 1.464,2.02 2.26,4.312 0.625,1.803 3.371,5.438 3.371,5.438 z"
     id="path483" />
  <path
     style="fill:#231f20;fill-opacity:1;fill-rule:nonzero;stroke:none"
     d="m 7.2661092,75.241539 c 0.588,0.266 2.457,-0.282 4.0569998,-0.114 1.077,0.114 3.687,-0.734 4.755,-0.537 0.978,0.177 1.442,0.167 1.844,-0.916 0.234,-0.641 0.265,-2.027 -0.204,-2.224 -1.099,-0.459 -2.047,-0.453 -3.094,-0.229 -1.182,0.265 -4.338,1.249 -4.9059998,1.494 -1.406,0.588 -2.114,0.391 -2.5,0.506 -0.728,0.234 -0.823,0.568 -0.776,1.068 0.089,0.952 0.824,0.952 0.824,0.952"
     id="path484" />
  <path
     style="fill:none;stroke:#231f20;stroke-width:0.565977;stroke-linecap:butt;stroke-linejoin:miter;stroke-miterlimit:4;stroke-dasharray:none;stroke-opacity:1"
     d="m 7.2661092,75.241539 c 0.588,0.266 2.457,-0.282 4.0569998,-0.114 1.077,0.114 3.687,-0.734 4.755,-0.537 0.978,0.177 1.442,0.167 1.844,-0.916 0.234,-0.641 0.265,-2.027 -0.204,-2.224 -1.099,-0.459 -2.047,-0.453 -3.094,-0.229 -1.182,0.265 -4.338,1.249 -4.9059998,1.494 -1.406,0.588 -2.114,0.391 -2.5,0.506 -0.728,0.234 -0.823,0.568 -0.776,1.068 0.089,0.952 0.824,0.952 0.824,0.952 z"
     id="path485" />
  <path
     style="fill:#231f20;fill-opacity:1;fill-rule:nonzero;stroke:none"
     d="m 16.234109,73.934539 c 0.322,1.249 2.172,0.385 2.693,0.235 0.52,-0.152 2.052,-0.423 3.271,-0.48 1.224,-0.058 2.729,-0.646 5.052,-0.76 1.218,-0.052 2.374,-0.886 2.213,-2.656 -0.161,-1.746 -1.203,-2.318 -2.667,-2.027 -1.468,0.303 -2.724,1.188 -4.188,1.595 -1.457,0.396 -2.978,0.666 -4.181,0.822 -1.376,0.178 -1.98,0.776 -2.109,1.235 -0.323,1.156 -0.084,2.036 -0.084,2.036"
     id="path486" />
  <path
     style="fill:none;stroke:#231f20;stroke-width:0.565977;stroke-linecap:butt;stroke-linejoin:miter;stroke-miterlimit:4;stroke-dasharray:none;stroke-opacity:1"
     d="m 16.234109,73.934539 c 0.322,1.249 2.172,0.385 2.693,0.235 0.52,-0.152 2.052,-0.423 3.271,-0.48 1.224,-0.058 2.729,-0.646 5.052,-0.76 1.218,-0.052 2.374,-0.886 2.213,-2.656 -0.161,-1.746 -1.203,-2.318 -2.667,-2.027 -1.468,0.303 -2.724,1.188 -4.188,1.595 -1.457,0.396 -2.978,0.666 -4.181,0.822 -1.376,0.178 -1.98,0.776 -2.109,1.235 -0.323,1.156 -0.084,2.036 -0.084,2.036 z"
     id="path487" />
  <path
     style="fill:#231f20;fill-opacity:1;fill-rule:nonzero;stroke:none"
     d="m 0.40610921,76.335539 c 0.70799999,0.14 3.92199999,-0.344 4.65599999,-0.489 0.652,-0.131 1.802,0.015 2.084,-1.1 0.114,-0.457 -0.032,-1.197 -0.172,-1.484 -0.115,-0.229 -0.438,-0.276 -0.823,-0.161 -0.641,0.192 -0.745,0.489 -1.948,0.926 0,0 -0.271,0.142 -0.74,0.428 -1.385,0.864 -0.697,0.61 -2.98399999,1.4 -0.167,0.058 -0.224,0.262 -0.177,0.371 0.073,0.156 0.104,0.109 0.104,0.109"
     id="path488" />
  <path
     style="fill:none;stroke:#231f20;stroke-width:0.565977;stroke-linecap:round;stroke-linejoin:round;stroke-miterlimit:4;stroke-dasharray:none;stroke-opacity:1"
     d="m 0.40610921,76.335539 c 0.70799999,0.14 3.92199999,-0.344 4.65599999,-0.489 0.652,-0.131 1.802,0.015 2.084,-1.1 0.114,-0.457 -0.032,-1.197 -0.172,-1.484 -0.115,-0.229 -0.438,-0.276 -0.823,-0.161 -0.641,0.192 -0.745,0.489 -1.948,0.926 0,0 -0.271,0.142 -0.74,0.428 -1.385,0.864 -0.697,0.61 -2.98399999,1.4 -0.167,0.058 -0.224,0.262 -0.177,0.371 0.073,0.156 0.104,0.109 0.104,0.109 z"
     id="path489" />
  <path
     style="fill:#231f20;fill-opacity:1;fill-rule:nonzero;stroke:none"
     d="m 28.218109,101.42354 c 2.256,-0.151 2.714,0.125 2.849,1.073 0.084,0.635 0.38,1.187 0.453,1.568 0.235,1.276 0.11,3.52 -1.916,9.786 -0.458,1.422 -1.089,3.417 -1.281,4.25 -0.308,1.328 -2.297,-0.073 -2.183,-0.593 0.364,-1.672 0.484,-2.86 0.531,-3.475 0.037,-0.426 0.199,-1.177 0.115,-2.838 -0.124,-2.52 -0.578,-4.015 -0.432,-6.124 0.062,-0.986 -0.511,-1.762 0.041,-2.688 0.552,-0.932 1.823,-0.959 1.823,-0.959"
     id="path490" />
  <path
     style="fill:none;stroke:#231f20;stroke-width:0.565977;stroke-linecap:butt;stroke-linejoin:miter;stroke-miterlimit:4;stroke-dasharray:none;stroke-opacity:1"
     d="m 28.218109,101.42354 c 2.256,-0.151 2.714,0.125 2.849,1.073 0.084,0.635 0.38,1.187 0.453,1.568 0.235,1.276 0.11,3.52 -1.916,9.786 -0.458,1.422 -1.089,3.417 -1.281,4.25 -0.308,1.328 -2.297,-0.073 -2.183,-0.593 0.364,-1.672 0.484,-2.86 0.531,-3.475 0.037,-0.426 0.199,-1.177 0.115,-2.838 -0.124,-2.52 -0.578,-4.015 -0.432,-6.124 0.062,-0.986 -0.511,-1.762 0.041,-2.688 0.552,-0.932 1.823,-0.959 1.823,-0.959 z"
     id="path491" />
  <path
     style="fill:#231f20;fill-opacity:1;fill-rule:nonzero;stroke:#231f20;stroke-width:0.565977;stroke-linecap:round;stroke-linejoin:miter;stroke-miterlimit:4;stroke-dasharray:none;stroke-opacity:1"
     d="m 26.556109,103.29254 c -0.509,-1.249 0.724,-2.853 0.792,-3.17 1.036,-4.902001 1.24,-5.230001 2.298,-8.902001 1.525,-5.313 3.385,-8.713 6.734,-8.734 2.276,-0.011 3.588,0.975 4.078,2.193 0.546,1.354 0.234,4.52 -2.344,5.817 l -0.896,1.459 c -0.479,1.061 -0.719,1.583 -0.911,2.124 -0.339,0.948 -0.76,1.937 -1.516,3.74 -1.349,3.203001 -3.817,6.140001 -3.817,6.140001 -0.131,0.287 -0.344,0.469 -0.59,0.584"
     id="path492" />
  <path
     style="fill:#fab41d;fill-opacity:1;fill-rule:nonzero;stroke:none"
     d="m 40.458109,84.679539 c -0.49,-1.218 -1.802,-2.198 -4.078,-2.188 -1.474,0.006 -2.652,0.688 -3.652,1.886 -0.822,0.625 -1.301,1.03 -1.29,1.838 0,0.074 -0.011,0.151 -0.022,0.224 -0.26,0.526 -0.516,1.083 -0.75,1.698 l 7.442,2.359 c 2.584,-1.297 2.896,-4.463 2.35,-5.817"
     id="path493" />
  <path
     style="fill:none;stroke:#231f20;stroke-width:0.565977;stroke-linecap:round;stroke-linejoin:round;stroke-miterlimit:4;stroke-dasharray:none;stroke-opacity:1"
     d="m 40.458109,84.679539 c -0.49,-1.218 -1.802,-2.198 -4.078,-2.188 -1.474,0.006 -2.652,0.688 -3.652,1.886 -0.822,0.625 -1.301,1.03 -1.29,1.838 0,0.074 -0.011,0.151 -0.022,0.224 -0.26,0.526 -0.516,1.083 -0.75,1.698 l 7.442,2.359 c 2.584,-1.297 2.896,-4.463 2.35,-5.817 z"
     id="path494" />
  <path
     style="fill:#231f20;fill-opacity:1;fill-rule:nonzero;stroke:none"
     d="m 28.468109,121.10654 c 1.068,-0.199 0.646,-1.38 0.25,-2.542 -0.099,-0.292 -0.167,-0.578 -0.286,-0.854 -0.494,-1.126 -1.39,-1.662 -3.026,0.849 -0.063,0.088 -1.724,1.505 -2.26,1.828 -2.563,1.525 -2.896,0.749 -2.563,1.525 0.219,0.511 0.724,0.454 1.344,0.371 0.848,-0.12 3.796,-0.792 4.255,-0.865 0.442,-0.072 2.286,-0.312 2.286,-0.312"
     id="path495" />
  <path
     style="fill:none;stroke:#231f20;stroke-width:0.565977;stroke-linecap:butt;stroke-linejoin:miter;stroke-miterlimit:4;stroke-dasharray:none;stroke-opacity:1"
     d="m 28.468109,121.10654 c 1.068,-0.199 0.646,-1.38 0.25,-2.542 -0.099,-0.292 -0.167,-0.578 -0.286,-0.854 -0.494,-1.126 -1.39,-1.662 -3.026,0.849 -0.063,0.088 -1.724,1.505 -2.26,1.828 -2.563,1.525 -2.896,0.749 -2.563,1.525 0.219,0.511 0.724,0.454 1.344,0.371 0.848,-0.12 3.796,-0.792 4.255,-0.865 0.442,-0.072 2.286,-0.312 2.286,-0.312 z"
     id="path497" />
  <path
     style="fill:none;stroke:#231f20;stroke-width:0.49806;stroke-linecap:butt;stroke-linejoin:miter;stroke-miterlimit:4;stroke-dasharray:none;stroke-opacity:1"
     d="m 56.714109,51.726539 c -13.12,-35.8493 33.565998,8.359 33.565998,8.359"
     id="path499" />
  <path
     style="fill:#231f20;fill-opacity:1;fill-rule:nonzero;stroke:none"
     d="m 91.375107,61.117539 c -0.694,-0.298 -1.642,-0.574 -2.36,-0.6 l 1.125,-0.567 0.505,-1.156 c 0.068,0.719 0.396,1.651 0.73,2.323"
     id="path500" />
</svg>
