<?xml version="1.0" encoding="UTF-8" standalone="no"?>
<!-- Created with Inkscape (http://www.inkscape.org/) -->

<svg
   version="1.1"
   id="svg1"
   width="338.27155"
   height="170.72107"
   viewBox="0 0 338.27153 170.72107"
   sodipodi:docname="cell.svg"
   xmlns:inkscape="http://www.inkscape.org/namespaces/inkscape"
   xmlns:sodipodi="http://sodipodi.sourceforge.net/DTD/sodipodi-0.dtd"
   xmlns="http://www.w3.org/2000/svg"
   xmlns:svg="http://www.w3.org/2000/svg">
  <sodipodi:namedview
     id="namedview1"
     pagecolor="#ffffff"
     bordercolor="#000000"
     borderopacity="0.25"
     inkscape:showpageshadow="2"
     inkscape:pageopacity="0.0"
     inkscape:pagecheckerboard="0"
     inkscape:deskcolor="#d1d1d1">
    <inkscape:page
       x="5.3727405e-08"
       y="0"
       inkscape:label="1"
       id="page1"
       width="338.27155"
       height="170.72107"
       margin="0"
       bleed="0" />
  </sodipodi:namedview>
  <defs
     id="defs1" />
  <path
     style="fill:#ffffff;fill-opacity:1;fill-rule:nonzero;stroke:none"
     d="m 321.34455,18.874 h 16.927 V 0 h -16.927 z"
     id="path95" />
  <path
     style="fill:#231f20;fill-opacity:1;fill-rule:nonzero;stroke:none"
     d="m 221.74455,76.869 c 0.47,0.439 0.678,2.376 1.448,3.787 0.522,0.948 0.74,3.682 1.334,4.594 0.537,0.834 0.704,1.271 -0.14,2.052 -0.506,0.463 -1.771,1.031 -2.131,0.672 -0.849,-0.838 -1.203,-1.72 -1.401,-2.776 -0.208,-1.193 -0.51,-4.49 -0.506,-5.094 0.006,-1.531 -0.446,-2.11 -0.484,-2.516 -0.073,-0.755 0.203,-0.968 0.683,-1.119 0.916,-0.287 1.197,0.4 1.197,0.4"
     id="path96" />
  <path
     style="fill:none;stroke:#231f20;stroke-width:0.565977;stroke-linecap:butt;stroke-linejoin:miter;stroke-miterlimit:4;stroke-dasharray:none;stroke-opacity:1"
     d="m 221.74455,76.869 c 0.47,0.439 0.678,2.376 1.448,3.787 0.522,0.948 0.74,3.682 1.334,4.594 0.537,0.834 0.704,1.271 -0.14,2.052 -0.506,0.463 -1.771,1.031 -2.131,0.672 -0.849,-0.838 -1.203,-1.72 -1.401,-2.776 -0.208,-1.193 -0.51,-4.49 -0.506,-5.094 0.006,-1.531 -0.446,-2.11 -0.484,-2.516 -0.073,-0.755 0.203,-0.968 0.683,-1.119 0.916,-0.287 1.197,0.4 1.197,0.4 z"
     id="path97" />
  <path
     style="fill:#231f20;fill-opacity:1;fill-rule:nonzero;stroke:none"
     d="m 223.97455,85.645 c 1.286,-0.176 1.193,1.855 1.256,2.396 0.057,0.537 0.394,2.052 0.812,3.204 0.416,1.156 0.448,2.771 1.24,4.957 0.41,1.152 0.082,2.532 -1.604,3.063 -1.678,0.521 -2.606,-0.219 -2.896,-1.687 -0.292,-1.469 0.052,-2.974 -0.142,-4.469 -0.192,-1.505 -0.525,-3.011 -0.838,-4.183 -0.364,-1.333 -0.052,-2.129 0.328,-2.421 0.937,-0.74 1.844,-0.86 1.844,-0.86"
     id="path98" />
  <path
     style="fill:none;stroke:#231f20;stroke-width:0.565977;stroke-linecap:butt;stroke-linejoin:miter;stroke-miterlimit:4;stroke-dasharray:none;stroke-opacity:1"
     d="m 223.97455,85.645 c 1.286,-0.176 1.193,1.855 1.256,2.396 0.057,0.537 0.394,2.052 0.812,3.204 0.416,1.156 0.448,2.771 1.24,4.957 0.41,1.152 0.082,2.532 -1.604,3.063 -1.678,0.521 -2.606,-0.219 -2.896,-1.687 -0.292,-1.469 0.052,-2.974 -0.142,-4.469 -0.192,-1.505 -0.525,-3.011 -0.838,-4.183 -0.364,-1.333 -0.052,-2.129 0.328,-2.421 0.937,-0.74 1.844,-0.86 1.844,-0.86 z"
     id="path99" />
  <path
     style="fill:#231f20;fill-opacity:1;fill-rule:nonzero;stroke:none"
     d="m 220.12055,70.109 c 0.406,0.599 1.187,3.756 1.334,4.484 0.134,0.652 0.708,1.657 -0.219,2.355 -0.371,0.276 -1.111,0.426 -1.433,0.406 -0.255,-0.016 -0.422,-0.302 -0.463,-0.704 -0.073,-0.656 0.167,-0.874 0.099,-2.15 0,0 0.036,-0.307 0.12,-0.85 0.26,-1.609 0.296,-0.869 0.145,-3.285 -0.011,-0.177 0.156,-0.313 0.276,-0.308 0.177,0.005 0.141,0.052 0.141,0.052"
     id="path100" />
  <path
     style="fill:none;stroke:#231f20;stroke-width:0.565977;stroke-linecap:round;stroke-linejoin:round;stroke-miterlimit:4;stroke-dasharray:none;stroke-opacity:1"
     d="m 220.12055,70.109 c 0.406,0.599 1.187,3.756 1.334,4.484 0.134,0.652 0.708,1.657 -0.219,2.355 -0.371,0.276 -1.111,0.426 -1.433,0.406 -0.255,-0.016 -0.422,-0.302 -0.463,-0.704 -0.073,-0.656 0.167,-0.874 0.099,-2.15 0,0 0.036,-0.307 0.12,-0.85 0.26,-1.609 0.296,-0.869 0.145,-3.285 -0.011,-0.177 0.156,-0.313 0.276,-0.308 0.177,0.005 0.141,0.052 0.141,0.052 z"
     id="path101" />
  <path
     style="fill:#231f20;fill-opacity:1;fill-rule:nonzero;stroke:none"
     d="m 186.58855,96.552 c -0.03,0.734 0.964,3.827 1.23,4.526 0.229,0.62 0.27,1.776 1.426,1.869 0.454,0.058 1.172,-0.208 1.428,-0.39 0.214,-0.156 0.192,-0.484 0.02,-0.834 -0.281,-0.609 -0.598,-0.677 -1.218,-1.791 0,0 -0.187,-0.244 -0.552,-0.651 -1.063,-1.235 -0.708,-0.593 -1.855,-2.729 -0.077,-0.151 -0.285,-0.178 -0.385,-0.12 -0.156,0.104 -0.094,0.12 -0.094,0.12"
     id="path102" />
  <path
     style="fill:none;stroke:#231f20;stroke-width:0.565977;stroke-linecap:round;stroke-linejoin:round;stroke-miterlimit:4;stroke-dasharray:none;stroke-opacity:1"
     d="m 186.58855,96.552 c -0.03,0.734 0.964,3.827 1.23,4.526 0.229,0.62 0.27,1.776 1.426,1.869 0.454,0.058 1.172,-0.208 1.428,-0.39 0.214,-0.156 0.192,-0.484 0.02,-0.834 -0.281,-0.609 -0.598,-0.677 -1.218,-1.791 0,0 -0.187,-0.244 -0.552,-0.651 -1.063,-1.235 -0.708,-0.593 -1.855,-2.729 -0.077,-0.151 -0.285,-0.178 -0.385,-0.12 -0.156,0.104 -0.094,0.12 -0.094,0.12 z"
     id="path103" />
  <path
     style="fill:#231f20;fill-opacity:1;fill-rule:nonzero;stroke:none"
     d="m 192.87555,109.911 c -1.292,-0.042 -0.995,1.974 -0.989,2.511 -0.006,0.541 -0.183,2.088 -0.48,3.276 -0.291,1.187 -0.156,2.796 -0.714,5.057 -0.292,1.187 0.178,2.531 1.918,2.88 1.724,0.343 2.568,-0.49 2.702,-1.985 0.136,-1.489 -0.364,-2.943 -0.333,-4.457 0.036,-1.511 0.208,-3.048 0.401,-4.251 0.224,-1.364 -0.172,-2.115 -0.578,-2.375 -1.011,-0.636 -1.927,-0.656 -1.927,-0.656"
     id="path104" />
  <path
     style="fill:none;stroke:#231f20;stroke-width:0.565977;stroke-linecap:butt;stroke-linejoin:miter;stroke-miterlimit:4;stroke-dasharray:none;stroke-opacity:1"
     d="m 192.87555,109.911 c -1.292,-0.042 -0.995,1.974 -0.989,2.511 -0.006,0.541 -0.183,2.088 -0.48,3.276 -0.291,1.187 -0.156,2.796 -0.714,5.057 -0.292,1.187 0.178,2.531 1.918,2.88 1.724,0.343 2.568,-0.49 2.702,-1.985 0.136,-1.489 -0.364,-2.943 -0.333,-4.457 0.036,-1.511 0.208,-3.048 0.401,-4.251 0.224,-1.364 -0.172,-2.115 -0.578,-2.375 -1.011,-0.636 -1.927,-0.656 -1.927,-0.656 z"
     id="path105" />
  <path
     style="fill:#231f20;fill-opacity:1;fill-rule:nonzero;stroke:none"
     d="m 190.35455,101.969 c 0.557,0.322 1.193,2.161 2.261,3.364 0.724,0.812 1.557,3.426 2.333,4.182 0.719,0.692 0.974,1.072 0.328,2.026 -0.385,0.568 -1.489,1.401 -1.928,1.13 -1.009,-0.62 -1.561,-1.396 -1.984,-2.38 -0.478,-1.114 -1.51,-4.26 -1.65,-4.86 -0.334,-1.484 -0.907,-1.942 -1.036,-2.333 -0.235,-0.724 -0.016,-0.989 0.416,-1.244 0.828,-0.485 1.26,0.115 1.26,0.115"
     id="path106" />
  <path
     style="fill:none;stroke:#231f20;stroke-width:0.565977;stroke-linecap:butt;stroke-linejoin:miter;stroke-miterlimit:4;stroke-dasharray:none;stroke-opacity:1"
     d="m 190.35455,101.969 c 0.557,0.322 1.193,2.161 2.261,3.364 0.724,0.812 1.557,3.426 2.333,4.182 0.719,0.692 0.974,1.072 0.328,2.026 -0.385,0.568 -1.489,1.401 -1.928,1.13 -1.009,-0.62 -1.561,-1.396 -1.984,-2.38 -0.478,-1.114 -1.51,-4.26 -1.65,-4.86 -0.334,-1.484 -0.907,-1.942 -1.036,-2.333 -0.235,-0.724 -0.016,-0.989 0.416,-1.244 0.828,-0.485 1.26,0.115 1.26,0.115 z"
     id="path107" />
  <path
     style="fill:#231f20;fill-opacity:1;fill-rule:nonzero;stroke:none"
     d="m 192.72455,97.208 c -0.27,0.688 -2.428,3.119 -2.953,3.646 -0.464,0.479 -0.964,1.52 -2.057,1.14 -0.443,-0.129 -0.984,-0.661 -1.146,-0.937 -0.136,-0.224 0.015,-0.522 0.312,-0.771 0.5,-0.442 0.823,-0.369 1.834,-1.145 0,0 0.27,-0.147 0.77,-0.376 1.47,-0.703 0.886,-0.255 2.803,-1.749 0.129,-0.104 0.328,-0.047 0.395,0.046 0.1,0.156 0.042,0.146 0.042,0.146"
     id="path108" />
  <path
     style="fill:none;stroke:#231f20;stroke-width:0.565977;stroke-linecap:round;stroke-linejoin:round;stroke-miterlimit:4;stroke-dasharray:none;stroke-opacity:1"
     d="m 192.72455,97.208 c -0.27,0.688 -2.428,3.119 -2.953,3.646 -0.464,0.479 -0.964,1.52 -2.057,1.14 -0.443,-0.129 -0.984,-0.661 -1.146,-0.937 -0.136,-0.224 0.015,-0.522 0.312,-0.771 0.5,-0.442 0.823,-0.369 1.834,-1.145 0,0 0.27,-0.147 0.77,-0.376 1.47,-0.703 0.886,-0.255 2.803,-1.749 0.129,-0.104 0.328,-0.047 0.395,0.046 0.1,0.156 0.042,0.146 0.042,0.146 z"
     id="path109" />
  <path
     style="fill:#231f20;fill-opacity:1;fill-rule:nonzero;stroke:none"
     d="m 182.16255,107.786 c 1.26,0.303 0.432,2.161 0.286,2.683 -0.146,0.52 -0.381,2.062 -0.417,3.286 -0.036,1.219 -0.599,2.734 -0.667,5.062 -0.036,1.218 -0.849,2.385 -2.62,2.256 -1.744,-0.126 -2.338,-1.156 -2.072,-2.631 0.271,-1.473 1.14,-2.74 1.515,-4.208 0.371,-1.469 0.615,-2.995 0.751,-4.199 0.15,-1.38 0.74,-2 1.192,-2.134 1.146,-0.344 2.032,-0.115 2.032,-0.115"
     id="path110" />
  <path
     style="fill:none;stroke:#231f20;stroke-width:0.565977;stroke-linecap:butt;stroke-linejoin:miter;stroke-miterlimit:4;stroke-dasharray:none;stroke-opacity:1"
     d="m 182.16255,107.786 c 1.26,0.303 0.432,2.161 0.286,2.683 -0.146,0.52 -0.381,2.062 -0.417,3.286 -0.036,1.219 -0.599,2.734 -0.667,5.062 -0.036,1.218 -0.849,2.385 -2.62,2.256 -1.744,-0.126 -2.338,-1.156 -2.072,-2.631 0.271,-1.473 1.14,-2.74 1.515,-4.208 0.371,-1.469 0.615,-2.995 0.751,-4.199 0.15,-1.38 0.74,-2 1.192,-2.134 1.146,-0.344 2.032,-0.115 2.032,-0.115 z"
     id="path111" />
  <path
     style="fill:#231f20;fill-opacity:1;fill-rule:nonzero;stroke:none"
     d="m 186.57255,100.734 c -0.609,0.208 -1.572,1.907 -2.842,2.891 -0.855,0.666 -2.152,3.082 -3.063,3.677 -0.823,0.552 -1.147,0.885 -0.683,1.937 0.271,0.626 1.203,1.651 1.683,1.463 1.109,-0.427 1.791,-1.083 2.385,-1.973 0.678,-1.011 2.271,-3.918 2.511,-4.479 0.604,-1.396 1.255,-1.745 1.448,-2.105 0.364,-0.667 0.197,-0.968 -0.177,-1.302 -0.724,-0.625 -1.262,-0.109 -1.262,-0.109"
     id="path112" />
  <path
     style="fill:none;stroke:#231f20;stroke-width:0.565977;stroke-linecap:butt;stroke-linejoin:miter;stroke-miterlimit:4;stroke-dasharray:none;stroke-opacity:1"
     d="m 186.57255,100.734 c -0.609,0.208 -1.572,1.907 -2.842,2.891 -0.855,0.666 -2.152,3.082 -3.063,3.677 -0.823,0.552 -1.147,0.885 -0.683,1.937 0.271,0.626 1.203,1.651 1.683,1.463 1.109,-0.427 1.791,-1.083 2.385,-1.973 0.678,-1.011 2.271,-3.918 2.511,-4.479 0.604,-1.396 1.255,-1.745 1.448,-2.105 0.364,-0.667 0.197,-0.968 -0.177,-1.302 -0.724,-0.625 -1.262,-0.109 -1.262,-0.109 z"
     id="path113" />
  <path
     style="fill:#231f20;fill-opacity:1;fill-rule:nonzero;stroke:none"
     d="m 191.18755,60.052 c -0.463,0.484 0.271,2.13 -0.317,4.01 -0.12,0.386 -0.036,0.755 -0.011,1.126 0.095,1.505 1.011,2.817 3.047,-0.428 0.281,-0.452 0.557,-2.531 1.026,-3.162 1.115,-1.494 0.495,-4.76 -0.026,-4.781 -1.115,-0.061 -3.719,3.235 -3.719,3.235"
     id="path114" />
  <path
     style="fill:none;stroke:#231f20;stroke-width:0.644548;stroke-linecap:round;stroke-linejoin:round;stroke-miterlimit:4;stroke-dasharray:none;stroke-opacity:1"
     d="m 191.18755,60.052 c -0.463,0.484 0.271,2.13 -0.317,4.01 -0.12,0.386 -0.036,0.755 -0.011,1.126 0.095,1.505 1.011,2.817 3.047,-0.428 0.281,-0.452 0.557,-2.531 1.026,-3.162 1.115,-1.494 0.495,-4.76 -0.026,-4.781 -1.115,-0.061 -3.719,3.235 -3.719,3.235 z"
     id="path115" />
  <path
     style="fill:#231f20;fill-opacity:1;fill-rule:nonzero;stroke:none"
     d="m 196.79655,62.38 c 0.262,0.609 -1,1.901 -1.118,3.865 -0.022,0.4 -0.23,0.713 -0.387,1.052 -0.619,1.38 -1.937,2.281 -2.692,-1.469 -0.109,-0.52 0.364,-2.568 0.151,-3.323 -0.52,-1.787 1.204,-4.625 1.704,-4.469 1.066,0.333 2.342,4.344 2.342,4.344"
     id="path116" />
  <path
     style="fill:none;stroke:#231f20;stroke-width:0.644548;stroke-linecap:round;stroke-linejoin:round;stroke-miterlimit:4;stroke-dasharray:none;stroke-opacity:1"
     d="m 196.79655,62.38 c 0.262,0.609 -1,1.901 -1.118,3.865 -0.022,0.4 -0.23,0.713 -0.387,1.052 -0.619,1.38 -1.937,2.281 -2.692,-1.469 -0.109,-0.52 0.364,-2.568 0.151,-3.323 -0.52,-1.787 1.204,-4.625 1.704,-4.469 1.066,0.333 2.342,4.344 2.342,4.344 z"
     id="path117" />
  <path
     style="fill:#231f20;fill-opacity:1;fill-rule:nonzero;stroke:none"
     d="m 190.88655,106.275 c 3.604,-0.057 3.249,-1.702 4.186,-5.672 1.027,-4.343 1.626,-8.978 1.079,-12.234 -0.609,-3.635 -0.151,-3.891 -1.969,-4.504 -1.812,-0.62 -2.088,0.109 -3.151,0.837 -1.229,0.839 -0.38,8.147 -1.635,12.73 -0.594,2.152 -3.39,6.911 -2.114,7.609 1.27,0.704 3.604,1.234 3.604,1.234"
     id="path118" />
  <path
     style="fill:none;stroke:#231f20;stroke-width:0.565977;stroke-linecap:butt;stroke-linejoin:miter;stroke-miterlimit:4;stroke-dasharray:none;stroke-opacity:1"
     d="m 190.88655,106.275 c 3.604,-0.057 3.249,-1.702 4.186,-5.672 1.027,-4.343 1.626,-8.978 1.079,-12.234 -0.609,-3.635 -0.151,-3.891 -1.969,-4.504 -1.812,-0.62 -2.088,0.109 -3.151,0.837 -1.229,0.839 -0.38,8.147 -1.635,12.73 -0.594,2.152 -3.39,6.911 -2.114,7.609 1.27,0.704 3.604,1.234 3.604,1.234 z"
     id="path119" />
  <path
     style="fill:#231f20;fill-opacity:1;fill-rule:nonzero;stroke:none"
     d="m 192.88055,85.702 c 2.214,0.486 2.854,0.652 2.99,-1.848 0.036,-0.636 0.005,-2.412 0.13,-2.776 0.422,-1.229 0.796,-2.688 -0.292,-9.182 -0.172,-1.011 -0.166,-2.984 -0.276,-4.38 -0.114,-1.36 -2.281,-0.262 -2.245,0.27 0.115,1.714 -0.176,2.839 -0.224,3.459 -0.025,0.427 0.057,1.233 -0.452,2.812 -1.319,4.073 -0.303,5.557 -0.505,6.437 -0.584,2.516 -1.595,4.547 -1.043,4.923 0.896,0.604 1.917,0.285 1.917,0.285"
     id="path120" />
  <path
     style="fill:none;stroke:#231f20;stroke-width:0.565977;stroke-linecap:butt;stroke-linejoin:miter;stroke-miterlimit:4;stroke-dasharray:none;stroke-opacity:1"
     d="m 192.88055,85.702 c 2.214,0.486 2.854,0.652 2.99,-1.848 0.036,-0.636 0.005,-2.412 0.13,-2.776 0.422,-1.229 0.796,-2.688 -0.292,-9.182 -0.172,-1.011 -0.166,-2.984 -0.276,-4.38 -0.114,-1.36 -2.281,-0.262 -2.245,0.27 0.115,1.714 -0.176,2.839 -0.224,3.459 -0.025,0.427 0.057,1.233 -0.452,2.812 -1.319,4.073 -0.303,5.557 -0.505,6.437 -0.584,2.516 -1.595,4.547 -1.043,4.923 0.896,0.604 1.917,0.285 1.917,0.285 z"
     id="path121" />
  <path
     style="fill:#231f20;fill-opacity:1;fill-rule:nonzero;stroke:none"
     d="m 184.96855,105.385 c -3.468,-0.979 -2.708,-2.474 -2.598,-6.557 0.114,-4.454 0.718,-9.094 2.078,-12.099 1.52,-3.36 1.146,-3.724 3.058,-3.855 1.91,-0.134 1.989,0.642 2.833,1.615 0.973,1.131 -1.715,7.975 -1.672,12.724 0.02,2.229 1.511,7.552 0.099,7.906 -1.407,0.344 -3.798,0.266 -3.798,0.266"
     id="path122" />
  <path
     style="fill:none;stroke:#231f20;stroke-width:0.565977;stroke-linecap:butt;stroke-linejoin:miter;stroke-miterlimit:4;stroke-dasharray:none;stroke-opacity:1"
     d="m 184.96855,105.385 c -3.468,-0.979 -2.708,-2.474 -2.598,-6.557 0.114,-4.454 0.718,-9.094 2.078,-12.099 1.52,-3.36 1.146,-3.724 3.058,-3.855 1.91,-0.134 1.989,0.642 2.833,1.615 0.973,1.131 -1.715,7.975 -1.672,12.724 0.02,2.229 1.511,7.552 0.099,7.906 -1.407,0.344 -3.798,0.266 -3.798,0.266 z"
     id="path123" />
  <path
     style="fill:#fab41d;fill-opacity:1;fill-rule:nonzero;stroke:none"
     d="m 192.99555,117.349 c -0.495,-1.24 -1.172,-6.298 -0.808,-9.527 0.084,-0.739 1.657,-2.572 0.641,-1.833 l -0.354,-0.063 c -2.5,-1.853 -2.432,-7.697 -2.432,-7.697 0,0 -0.547,-0.505 -1.042,-0.573 -0.485,-0.063 -1.146,0.281 -1.146,0.281 0,0 -1.468,5.656 -4.364,6.792 l -0.36,-0.031 c -0.782,-0.975 0.256,1.203 0.141,1.937 -0.489,3.214 -2.464,7.916 -3.271,8.984 -1.104,1.459 -3.63,1.364 -2.822,3.375 0,0 0.27,2.172 3.077,2.183 1.016,0.005 3.115,1.005 3.115,1.005 h 0.005 c 0.208,0.14 1.172,0.739 2.197,0.853 1.152,0.131 2.459,-0.228 2.459,-0.228 0,0 2.281,-0.422 3.265,-0.162 2.719,0.724 3.568,-1.026 3.568,-1.026 1.303,-1.729 -1.182,-2.573 -1.869,-4.27"
     id="path124" />
  <path
     style="fill:none;stroke:#231f20;stroke-width:0.565977;stroke-linecap:butt;stroke-linejoin:miter;stroke-miterlimit:4;stroke-dasharray:none;stroke-opacity:1"
     d="m 192.99555,117.349 c -0.495,-1.24 -1.172,-6.298 -0.808,-9.527 0.084,-0.739 1.657,-2.572 0.641,-1.833 l -0.354,-0.063 c -2.5,-1.853 -2.432,-7.697 -2.432,-7.697 0,0 -0.547,-0.505 -1.042,-0.573 -0.485,-0.063 -1.146,0.281 -1.146,0.281 0,0 -1.468,5.656 -4.364,6.792 l -0.36,-0.031 c -0.782,-0.975 0.256,1.203 0.141,1.937 -0.489,3.214 -2.464,7.916 -3.271,8.984 -1.104,1.459 -3.63,1.364 -2.822,3.375 0,0 0.27,2.172 3.077,2.183 1.016,0.005 3.115,1.005 3.115,1.005 h 0.005 c 0.208,0.14 1.172,0.739 2.197,0.853 1.152,0.131 2.459,-0.228 2.459,-0.228 0,0 2.281,-0.422 3.265,-0.162 2.719,0.724 3.568,-1.026 3.568,-1.026 1.303,-1.729 -1.182,-2.573 -1.869,-4.27 z"
     id="path125" />
  <path
     style="fill:#231f20;fill-opacity:1;fill-rule:nonzero;stroke:none"
     d="m 181.27155,127.442 c 0.364,-2.801 2.328,-4.855 4.391,-4.583 2.057,0.271 3.426,2.76 3.062,5.558 -0.365,2.801 -2.328,4.853 -4.39,4.582 -2.058,-0.27 -3.432,-2.754 -3.063,-5.557"
     id="path126" />
  <path
     style="fill:none;stroke:#231f20;stroke-width:0.565977;stroke-linecap:butt;stroke-linejoin:miter;stroke-miterlimit:4;stroke-dasharray:none;stroke-opacity:1"
     d="m 181.27155,127.442 c 0.364,-2.801 2.328,-4.855 4.391,-4.583 2.057,0.271 3.426,2.76 3.062,5.558 -0.365,2.801 -2.328,4.853 -4.39,4.582 -2.058,-0.27 -3.432,-2.754 -3.063,-5.557 z"
     id="path127" />
  <path
     style="fill:#231f20;fill-opacity:1;fill-rule:nonzero;stroke:none"
     d="m 188.27155,85 c -2.265,-0.115 -2.927,-0.12 -2.401,-2.568 0.13,-0.624 0.62,-2.328 0.593,-2.719 -0.077,-1.291 -0.067,-2.801 2.683,-8.787 0.426,-0.926 0.937,-2.837 1.412,-4.156 0.457,-1.276 2.27,0.35 2.093,0.85 -0.557,1.625 -0.568,2.792 -0.693,3.396 -0.083,0.421 -0.37,1.177 -0.291,2.838 0.213,4.271 -1.156,5.438 -1.193,6.339 -0.094,2.583 0.354,4.807 -0.276,5.025 -1.026,0.355 -1.927,-0.218 -1.927,-0.218"
     id="path128" />
  <path
     style="fill:none;stroke:#231f20;stroke-width:0.565977;stroke-linecap:butt;stroke-linejoin:miter;stroke-miterlimit:4;stroke-dasharray:none;stroke-opacity:1"
     d="m 188.27155,85 c -2.265,-0.115 -2.927,-0.12 -2.401,-2.568 0.13,-0.624 0.62,-2.328 0.593,-2.719 -0.077,-1.291 -0.067,-2.801 2.683,-8.787 0.426,-0.926 0.937,-2.837 1.412,-4.156 0.457,-1.276 2.27,0.35 2.093,0.85 -0.557,1.625 -0.568,2.792 -0.693,3.396 -0.083,0.421 -0.37,1.177 -0.291,2.838 0.213,4.271 -1.156,5.438 -1.193,6.339 -0.094,2.583 0.354,4.807 -0.276,5.025 -1.026,0.355 -1.927,-0.218 -1.927,-0.218 z"
     id="path129" />
  <path
     style="fill:#fab41d;fill-opacity:1;fill-rule:nonzero;stroke:none"
     d="m 183.04755,105.521 c -0.172,-0.308 -0.656,-1.584 -0.771,-2.038 -0.718,-2.88 -0.109,-6.781 -0.213,-8.051 -0.105,-1.276 6.416,-0.343 6.416,-0.343 l 0.62,1.333 c 0.505,-0.376 0.188,0.02 0.188,0.02 l 1.104,-1.182 c 0,0 6.437,0.605 6.156,1.573 -0.385,1.344 -1.079,5.917 -2.303,8.036 -0.672,1.166 -1.525,1.729 -1.525,1.729 0,0 -3.475,-1.552 -4.891,-1.739 -1.412,-0.188 -4.781,0.662 -4.781,0.662"
     id="path130" />
  <path
     style="fill:none;stroke:#231f20;stroke-width:0.565977;stroke-linecap:butt;stroke-linejoin:miter;stroke-miterlimit:4;stroke-dasharray:none;stroke-opacity:1"
     d="m 183.04755,105.521 c -0.172,-0.308 -0.656,-1.584 -0.771,-2.038 -0.718,-2.88 -0.109,-6.781 -0.213,-8.051 -0.105,-1.276 6.416,-0.343 6.416,-0.343 l 0.62,1.333 c 0.505,-0.376 0.188,0.02 0.188,0.02 l 1.104,-1.182 c 0,0 6.437,0.605 6.156,1.573 -0.385,1.344 -1.079,5.917 -2.303,8.036 -0.672,1.166 -1.525,1.729 -1.525,1.729 0,0 -3.475,-1.552 -4.891,-1.739 -1.412,-0.188 -4.781,0.662 -4.781,0.662 z"
     id="path131" />
  <path
     style="fill:none;stroke:#231f20;stroke-width:0.565977;stroke-linecap:round;stroke-linejoin:round;stroke-miterlimit:4;stroke-dasharray:none;stroke-opacity:1"
     d="m 185.96355,96.442 c 1.459,-1.052 3.261,0.156 3.261,0.156 1.787,-0.416 3.104,0.495 3.104,0.495"
     id="path132" />
  <path
     style="fill:#fab41d;fill-opacity:1;fill-rule:nonzero;stroke:none"
     d="m 233.80755,95.786 c 2.995,0.912 3.745,0.782 4.656,0.683 5.751,-0.62 5.948,2.213 4.62,4.77 -1.552,3.011 -2.052,4.126 -7.875,1.73 -1.62,-0.667 -8.156,-2.418 -8.156,-2.418 -2.432,-0.312 -4.641,-1.906 -5.068,-3.301 -0.453,-1.464 -0.166,-0.922 -0.338,-2.344 -0.167,-1.374 0.713,-3.374 1.896,-3.729 1.136,-0.344 2.369,0.781 4.349,2.172 1.567,1.099 5.916,2.437 5.916,2.437"
     id="path133" />
  <path
     style="fill:none;stroke:#231f20;stroke-width:0.565977;stroke-linecap:butt;stroke-linejoin:miter;stroke-miterlimit:4;stroke-dasharray:none;stroke-opacity:1"
     d="m 233.80755,95.786 c 2.995,0.912 3.745,0.782 4.656,0.683 5.751,-0.62 5.948,2.213 4.62,4.77 -1.552,3.011 -2.052,4.126 -7.875,1.73 -1.62,-0.667 -8.156,-2.418 -8.156,-2.418 -2.432,-0.312 -4.641,-1.906 -5.068,-3.301 -0.453,-1.464 -0.166,-0.922 -0.338,-2.344 -0.167,-1.374 0.713,-3.374 1.896,-3.729 1.136,-0.344 2.369,0.781 4.349,2.172 1.567,1.099 5.916,2.437 5.916,2.437 z"
     id="path134" />
  <path
     style="fill:#ffffff;fill-opacity:1;fill-rule:nonzero;stroke:none"
     d="m 213.47455,93.698 c -0.203,-0.141 -1.063,0.64 -1.438,0.276 -0.385,-0.365 0.006,-1.057 -0.713,-2.912 l -0.011,-0.021 c -0.568,-1.333 -0.521,-2.724 0.266,-3.703 1.308,-1.614 4.141,-1.484 6.338,0.292 2.204,1.776 2.918,4.526 1.615,6.14 -1.244,1.552 -3.907,1.49 -6.057,-0.072"
     id="path135" />
  <path
     style="fill:none;stroke:#231f20;stroke-width:0.565977;stroke-linecap:butt;stroke-linejoin:miter;stroke-miterlimit:4;stroke-dasharray:none;stroke-opacity:1"
     d="m 213.47455,93.698 c -0.203,-0.141 -1.063,0.64 -1.438,0.276 -0.385,-0.365 0.006,-1.057 -0.713,-2.912 l -0.011,-0.021 c -0.568,-1.333 -0.521,-2.724 0.266,-3.703 1.308,-1.614 4.141,-1.484 6.338,0.292 2.204,1.776 2.918,4.526 1.615,6.14 -1.244,1.552 -3.907,1.49 -6.057,-0.072 z"
     id="path136" />
  <path
     style="fill:#231f20;fill-opacity:1;fill-rule:nonzero;stroke:none"
     d="m 258.77655,108.535 c 0.635,-2.166 1.063,-2.5 1.99,-2.285 0.63,0.14 1.245,0.047 1.63,0.119 1.276,0.214 3.343,1.125 8.506,5.204 1.165,0.926 2.828,2.208 3.546,2.681 1.12,0.751 -0.885,2.131 -1.333,1.839 -1.443,-0.927 -2.505,-1.448 -3.073,-1.714 -0.386,-0.177 -1.027,-0.593 -2.62,-1.093 -2.407,-0.76 -3.964,-0.864 -5.891,-1.729 -0.896,-0.402 -1.823,-0.135 -2.5,-0.984 -0.687,-0.839 -0.255,-2.038 -0.255,-2.038"
     id="path137" />
  <path
     style="fill:none;stroke:#231f20;stroke-width:0.565977;stroke-linecap:butt;stroke-linejoin:miter;stroke-miterlimit:4;stroke-dasharray:none;stroke-opacity:1"
     d="m 258.77655,108.535 c 0.635,-2.166 1.063,-2.5 1.99,-2.285 0.63,0.14 1.245,0.047 1.63,0.119 1.276,0.214 3.343,1.125 8.506,5.204 1.165,0.926 2.828,2.208 3.546,2.681 1.12,0.751 -0.885,2.131 -1.333,1.839 -1.443,-0.927 -2.505,-1.448 -3.073,-1.714 -0.386,-0.177 -1.027,-0.593 -2.62,-1.093 -2.407,-0.76 -3.964,-0.864 -5.891,-1.729 -0.896,-0.402 -1.823,-0.135 -2.5,-0.984 -0.687,-0.839 -0.255,-2.038 -0.255,-2.038 z"
     id="path138" />
  <path
     style="fill:#231f20;fill-opacity:1;fill-rule:nonzero;stroke:#231f20;stroke-width:0.565977;stroke-linecap:round;stroke-linejoin:round;stroke-miterlimit:4;stroke-dasharray:none;stroke-opacity:1"
     d="m 260.06355,110.687 c -1.251,0.672 -2.969,-0.625 -3.297,-0.693 -4.922,-0.979 -5.251,-1.177 -8.932,-2.183 -5.339,-1.457 -8.762,-3.276 -8.823,-6.624 -0.037,-2.27 0.921,-3.599 2.14,-4.103 1.339,-0.558 4.516,-0.292 5.844,2.27 l 1.479,0.875 c 1.062,0.464 1.589,0.697 2.125,0.885 0.943,0.323 1.943,0.729 3.765,1.469 3.214,1.307 6.194,3.739 6.194,3.739 0.281,0.125 0.468,0.328 0.582,0.573"
     id="path139" />
  <path
     style="fill:#fab41d;fill-opacity:1;fill-rule:nonzero;stroke:none"
     d="m 240.74455,97.218 c -1.213,0.506 -2.172,1.85 -2.124,4.109 0.052,2.651 2.208,4.334 5.744,5.626 l 2.235,-7.484 c -1.339,-2.557 -4.505,-2.813 -5.855,-2.251"
     id="path140" />
  <path
     style="fill:none;stroke:#231f20;stroke-width:0.565977;stroke-linecap:butt;stroke-linejoin:miter;stroke-miterlimit:4;stroke-dasharray:none;stroke-opacity:1"
     d="m 240.74455,97.218 c -1.213,0.506 -2.172,1.85 -2.124,4.109 0.052,2.651 2.208,4.334 5.744,5.626 l 2.235,-7.484 c -1.339,-2.557 -4.505,-2.813 -5.855,-2.251 z"
     id="path141" />
  <path
     style="fill:#231f20;fill-opacity:1;fill-rule:nonzero;stroke:none"
     d="m 276.91655,114.838 c -0.328,-1.312 -1.317,-1.427 -2.177,-0.844 -0.26,0.172 -0.661,0.041 -0.9,0.235 -0.548,0.437 -0.693,2.172 0.729,2.656 0.099,0.036 0.76,0.521 1.307,0.813 1.079,0.556 3.505,1.167 5.803,-0.256 1.088,-0.661 0.484,-1.188 -0.043,-1.052 -1.645,0.437 -1.88,0.151 -2.359,0.104 -1.614,-0.135 -2.36,-1.656 -2.36,-1.656"
     id="path142" />
  <path
     style="fill:none;stroke:#231f20;stroke-width:0.332927;stroke-linecap:butt;stroke-linejoin:miter;stroke-miterlimit:4;stroke-dasharray:none;stroke-opacity:1"
     d="m 276.91655,114.838 c -0.328,-1.312 -1.317,-1.427 -2.177,-0.844 -0.26,0.172 -0.661,0.041 -0.9,0.235 -0.548,0.437 -0.693,2.172 0.729,2.656 0.099,0.036 0.76,0.521 1.307,0.813 1.079,0.556 3.505,1.167 5.803,-0.256 1.088,-0.661 0.484,-1.188 -0.043,-1.052 -1.645,0.437 -1.88,0.151 -2.359,0.104 -1.614,-0.135 -2.36,-1.656 -2.36,-1.656 z"
     id="path143" />
  <path
     style="fill:#231f20;fill-opacity:1;fill-rule:nonzero;stroke:none"
     d="m 85.058552,61.588 c -0.011,0.74 1.052,3.808 1.333,4.501 0.25,0.613 0.318,1.771 1.468,1.837 0.464,0.043 1.167,-0.244 1.423,-0.432 0.208,-0.161 0.181,-0.484 0.005,-0.833 -0.297,-0.599 -0.625,-0.656 -1.261,-1.76 0,0 -0.198,-0.24 -0.568,-0.636 -1.093,-1.208 -0.724,-0.577 -1.926,-2.681 -0.078,-0.152 -0.287,-0.172 -0.381,-0.115 -0.15,0.104 -0.093,0.119 -0.093,0.119"
     id="path144" />
  <path
     style="fill:none;stroke:#231f20;stroke-width:0.565977;stroke-linecap:round;stroke-linejoin:round;stroke-miterlimit:4;stroke-dasharray:none;stroke-opacity:1"
     d="m 85.058552,61.588 c -0.011,0.74 1.052,3.808 1.333,4.501 0.25,0.613 0.318,1.771 1.468,1.837 0.464,0.043 1.167,-0.244 1.423,-0.432 0.208,-0.161 0.181,-0.484 0.005,-0.833 -0.297,-0.599 -0.625,-0.656 -1.261,-1.76 0,0 -0.198,-0.24 -0.568,-0.636 -1.093,-1.208 -0.724,-0.577 -1.926,-2.681 -0.078,-0.152 -0.287,-0.172 -0.381,-0.115 -0.15,0.104 -0.093,0.119 -0.093,0.119 z"
     id="path145" />
  <path
     style="fill:#231f20;fill-opacity:1;fill-rule:nonzero;stroke:none"
     d="m 83.886552,59.526 c -0.735,-0.078 -3.885,0.728 -4.595,0.952 -0.634,0.188 -1.79,0.163 -1.957,1.308 -0.078,0.448 0.14,1.178 0.307,1.448 0.141,0.224 0.474,0.224 0.833,0.074 0.62,-0.246 0.708,-0.558 1.86,-1.106 0,0 0.255,-0.17 0.681,-0.509 1.298,-0.991 0.636,-0.672 2.839,-1.693 0.157,-0.068 0.193,-0.276 0.141,-0.375 -0.089,-0.161 -0.109,-0.099 -0.109,-0.099"
     id="path146" />
  <path
     style="fill:none;stroke:#231f20;stroke-width:0.565977;stroke-linecap:round;stroke-linejoin:round;stroke-miterlimit:4;stroke-dasharray:none;stroke-opacity:1"
     d="m 83.886552,59.526 c -0.735,-0.078 -3.885,0.728 -4.595,0.952 -0.634,0.188 -1.79,0.163 -1.957,1.308 -0.078,0.448 0.14,1.178 0.307,1.448 0.141,0.224 0.474,0.224 0.833,0.074 0.62,-0.246 0.708,-0.558 1.86,-1.106 0,0 0.255,-0.17 0.681,-0.509 1.298,-0.991 0.636,-0.672 2.839,-1.693 0.157,-0.068 0.193,-0.276 0.141,-0.375 -0.089,-0.161 -0.109,-0.099 -0.109,-0.099 z"
     id="path147" />
  <path
     style="fill:#231f20;fill-opacity:1;fill-rule:nonzero;stroke:#231f20;stroke-width:0.565977;stroke-linecap:round;stroke-linejoin:round;stroke-miterlimit:4;stroke-dasharray:none;stroke-opacity:1"
     d="m 82.657552,81.136 c 0,0 -0.912,-0.954 -2.016,-1.319 -1.104,-0.364 -2.454,-0.276 -2.454,-0.276 l -1.093,3.109 4.516,1.59 z"
     id="path148" />
  <path
     style="fill:#231f20;fill-opacity:1;fill-rule:nonzero;stroke:none"
     d="m 71.792552,95.062 c -3.542,-0.63 -3.515,1.052 -5.193,4.771 -1.843,4.062 -3.322,8.494 -3.412,11.797 -0.098,3.681 -0.598,3.848 1.069,4.801 1.666,0.954 2.072,0.287 3.255,-0.218 1.37,-0.594 1.933,-7.927 4.047,-12.182 0.989,-2 4.656,-6.135 3.536,-7.062 -1.12,-0.933 -3.302,-1.907 -3.302,-1.907"
     id="path149" />
  <path
     style="fill:none;stroke:#231f20;stroke-width:0.565977;stroke-linecap:butt;stroke-linejoin:miter;stroke-miterlimit:4;stroke-dasharray:none;stroke-opacity:1"
     d="m 71.792552,95.062 c -3.542,-0.63 -3.515,1.052 -5.193,4.771 -1.843,4.062 -3.322,8.494 -3.412,11.797 -0.098,3.681 -0.598,3.848 1.069,4.801 1.666,0.954 2.072,0.287 3.255,-0.218 1.37,-0.594 1.933,-7.927 4.047,-12.182 0.989,-2 4.656,-6.135 3.536,-7.062 -1.12,-0.933 -3.302,-1.907 -3.302,-1.907 z"
     id="path150" />
  <path
     style="fill:#231f20;fill-opacity:1;fill-rule:nonzero;stroke:none"
     d="m 65.886552,114.869 c -2.084,-0.895 -2.672,-1.187 -3.287,1.245 -0.155,0.615 -0.464,2.364 -0.661,2.703 -0.646,1.12 -1.303,2.48 -1.475,9.062 -0.025,1.022 -0.41,2.964 -0.566,4.355 -0.152,1.349 2.186,0.687 2.254,0.161 0.214,-1.702 0.719,-2.75 0.881,-3.354 0.109,-0.411 0.182,-1.214 0.989,-2.672 2.078,-3.739 1.36,-5.391 1.729,-6.219 1.052,-2.353 2.437,-4.151 1.97,-4.629 -0.771,-0.766 -1.834,-0.652 -1.834,-0.652"
     id="path151" />
  <path
     style="fill:none;stroke:#231f20;stroke-width:0.565977;stroke-linecap:butt;stroke-linejoin:miter;stroke-miterlimit:4;stroke-dasharray:none;stroke-opacity:1"
     d="m 65.886552,114.869 c -2.084,-0.895 -2.672,-1.187 -3.287,1.245 -0.155,0.615 -0.464,2.364 -0.661,2.703 -0.646,1.12 -1.303,2.48 -1.475,9.062 -0.025,1.022 -0.41,2.964 -0.566,4.355 -0.152,1.349 2.186,0.687 2.254,0.161 0.214,-1.702 0.719,-2.75 0.881,-3.354 0.109,-0.411 0.182,-1.214 0.989,-2.672 2.078,-3.739 1.36,-5.391 1.729,-6.219 1.052,-2.353 2.437,-4.151 1.97,-4.629 -0.771,-0.766 -1.834,-0.652 -1.834,-0.652 z"
     id="path152" />
  <path
     style="fill:#231f20;fill-opacity:1;fill-rule:nonzero;stroke:none"
     d="m 77.604552,97.322 c 3.241,1.584 2.219,2.923 1.386,6.917 -0.917,4.364 -2.339,8.818 -4.213,11.531 -2.099,3.037 -1.797,3.459 -3.699,3.251 -1.91,-0.214 -1.843,-0.99 -2.5,-2.104 -0.755,-1.282 3.115,-7.538 3.928,-12.219 0.375,-2.193 -0.136,-7.698 1.312,-7.792 1.448,-0.089 3.786,0.416 3.786,0.416"
     id="path153" />
  <path
     style="fill:none;stroke:#231f20;stroke-width:0.565977;stroke-linecap:butt;stroke-linejoin:miter;stroke-miterlimit:4;stroke-dasharray:none;stroke-opacity:1"
     d="m 77.604552,97.322 c 3.241,1.584 2.219,2.923 1.386,6.917 -0.917,4.364 -2.339,8.818 -4.213,11.531 -2.099,3.037 -1.797,3.459 -3.699,3.251 -1.91,-0.214 -1.843,-0.99 -2.5,-2.104 -0.755,-1.282 3.115,-7.538 3.928,-12.219 0.375,-2.193 -0.136,-7.698 1.312,-7.792 1.448,-0.089 3.786,0.416 3.786,0.416 z"
     id="path154" />
  <path
     style="fill:#fab41d;fill-opacity:1;fill-rule:nonzero;stroke:none"
     d="m 72.094552,103.958 c -0.469,-0.167 -0.896,-0.776 -0.896,-0.776 0,0 1.256,-5.704 -0.812,-8.026 l -0.333,-0.135 c -1.142,0.515 0.765,-0.959 1,-1.661 1.02,-3.09 1.396,-8.178 1.156,-9.495 -0.323,-1.803 -2.584,-3.136 -0.959,-4.563 0,0 1.194,-1.537 3.704,-0.276 0.911,0.458 3.233,0.515 3.233,0.515 -0.02,0.037 -0.041,0.068 -0.057,0.109 -0.416,1.183 0.36,2.21 1.609,2.672 l -0.066,-0.025 c 1.265,0.421 2.53,0.047 2.926,-1.079 0.011,-0.036 0.022,-0.077 0.022,-0.114 0,0 1.853,1.406 2.842,1.62 2.751,0.584 2.574,2.765 2.574,2.765 0.374,2.131 -2.079,1.521 -3.459,2.724 -1.005,0.88 -3.9,5.079 -5.036,8.125 -0.26,0.698 0.307,3.042 -0.26,1.927 l -0.344,-0.104 c -3.068,0.516 -5.661,5.756 -5.661,5.756 0,0 -0.714,0.202 -1.183,0.041"
     id="path155" />
  <path
     style="fill:none;stroke:#231f20;stroke-width:0.565977;stroke-linecap:butt;stroke-linejoin:miter;stroke-miterlimit:4;stroke-dasharray:none;stroke-opacity:1"
     d="m 72.094552,103.958 c -0.469,-0.167 -0.896,-0.776 -0.896,-0.776 0,0 1.256,-5.704 -0.812,-8.026 l -0.333,-0.135 c -1.142,0.515 0.765,-0.959 1,-1.661 1.02,-3.09 1.396,-8.178 1.156,-9.495 -0.323,-1.803 -2.584,-3.136 -0.959,-4.563 0,0 1.194,-1.537 3.704,-0.276 0.911,0.458 3.233,0.515 3.233,0.515 -0.02,0.037 -0.041,0.068 -0.057,0.109 -0.416,1.183 0.36,2.21 1.609,2.672 l -0.066,-0.025 c 1.265,0.421 2.53,0.047 2.926,-1.079 0.011,-0.036 0.022,-0.077 0.022,-0.114 0,0 1.853,1.406 2.842,1.62 2.751,0.584 2.574,2.765 2.574,2.765 0.374,2.131 -2.079,1.521 -3.459,2.724 -1.005,0.88 -3.9,5.079 -5.036,8.125 -0.26,0.698 0.307,3.042 -0.26,1.927 l -0.344,-0.104 c -3.068,0.516 -5.661,5.756 -5.661,5.756 0,0 -0.714,0.202 -1.183,0.041 z"
     id="path156" />
  <path
     style="fill:#ffffff;fill-opacity:1;fill-rule:nonzero;stroke:none"
     d="m 78.433552,74.588 c -0.839,2.693 0.088,5.381 2.073,6 1.979,0.614 4.271,-1.067 5.109,-3.766 0.839,-2.697 -0.089,-5.385 -2.073,-6 -1.979,-0.62 -4.265,1.068 -5.109,3.766"
     id="path157" />
  <path
     style="fill:none;stroke:#231f20;stroke-width:0.565977;stroke-linecap:butt;stroke-linejoin:miter;stroke-miterlimit:4;stroke-dasharray:none;stroke-opacity:1"
     d="m 78.433552,74.588 c -0.839,2.693 0.088,5.381 2.073,6 1.979,0.614 4.271,-1.067 5.109,-3.766 0.839,-2.697 -0.089,-5.385 -2.073,-6 -1.979,-0.62 -4.265,1.068 -5.109,3.766 z"
     id="path158" />
  <path
     style="fill:#231f20;fill-opacity:1;fill-rule:nonzero;stroke:none"
     d="m 70.709552,116.791 c 2.202,0.516 2.854,0.64 1.901,2.954 -0.245,0.588 -1.037,2.181 -1.078,2.566 -0.146,1.287 -0.433,2.772 -4.209,8.163 -0.589,0.837 -1.426,2.624 -2.136,3.837 -0.676,1.178 -2.166,-0.749 -1.905,-1.213 0.843,-1.489 1.057,-2.635 1.291,-3.219 0.152,-0.396 0.578,-1.082 0.792,-2.729 0.557,-4.249 2.115,-5.151 2.313,-6.031 0.552,-2.521 0.509,-4.786 1.171,-4.89 1.067,-0.162 1.86,0.562 1.86,0.562"
     id="path159" />
  <path
     style="fill:none;stroke:#231f20;stroke-width:0.565977;stroke-linecap:butt;stroke-linejoin:miter;stroke-miterlimit:4;stroke-dasharray:none;stroke-opacity:1"
     d="m 70.709552,116.791 c 2.202,0.516 2.854,0.64 1.901,2.954 -0.245,0.588 -1.037,2.181 -1.078,2.566 -0.146,1.287 -0.433,2.772 -4.209,8.163 -0.589,0.837 -1.426,2.624 -2.136,3.837 -0.676,1.178 -2.166,-0.749 -1.905,-1.213 0.843,-1.489 1.057,-2.635 1.291,-3.219 0.152,-0.396 0.578,-1.082 0.792,-2.729 0.557,-4.249 2.115,-5.151 2.313,-6.031 0.552,-2.521 0.509,-4.786 1.171,-4.89 1.067,-0.162 1.86,0.562 1.86,0.562 z"
     id="path160" />
  <path
     style="fill:#231f20;fill-opacity:1;fill-rule:nonzero;stroke:none"
     d="m 88.537552,74.292 c -1.24,-0.371 -1.459,1.656 -1.594,2.177 -0.141,0.525 -0.704,1.973 -1.292,3.052 -0.584,1.072 -0.86,2.667 -1.969,4.708 -0.583,1.073 -0.468,2.489 1.126,3.271 1.578,0.77 2.603,0.177 3.114,-1.23 0.511,-1.41 0.396,-2.948 0.808,-4.401 0.416,-1.452 0.973,-2.895 1.463,-4.004 0.562,-1.272 0.37,-2.1 0.042,-2.448 -0.819,-0.876 -1.698,-1.125 -1.698,-1.125"
     id="path161" />
  <path
     style="fill:none;stroke:#231f20;stroke-width:0.565977;stroke-linecap:butt;stroke-linejoin:miter;stroke-miterlimit:4;stroke-dasharray:none;stroke-opacity:1"
     d="m 88.537552,74.292 c -1.24,-0.371 -1.459,1.656 -1.594,2.177 -0.141,0.525 -0.704,1.973 -1.292,3.052 -0.584,1.072 -0.86,2.667 -1.969,4.708 -0.583,1.073 -0.468,2.489 1.126,3.271 1.578,0.77 2.603,0.177 3.114,-1.23 0.511,-1.41 0.396,-2.948 0.808,-4.401 0.416,-1.452 0.973,-2.895 1.463,-4.004 0.562,-1.272 0.37,-2.1 0.042,-2.448 -0.819,-0.876 -1.698,-1.125 -1.698,-1.125 z"
     id="path162" />
  <path
     style="fill:#231f20;fill-opacity:1;fill-rule:nonzero;stroke:none"
     d="m 89.021552,65.65 c 0.406,0.506 0.338,2.448 0.901,3.959 0.375,1.016 0.213,3.756 0.672,4.74 0.412,0.901 0.516,1.353 -0.432,2.005 -0.558,0.391 -1.891,0.771 -2.204,0.359 -0.719,-0.943 -0.952,-1.864 -0.989,-2.932 -0.047,-1.213 0.125,-4.521 0.209,-5.131 0.223,-1.505 -0.146,-2.14 -0.12,-2.546 0.036,-0.76 0.339,-0.932 0.833,-1.015 0.943,-0.152 1.13,0.561 1.13,0.561"
     id="path163" />
  <path
     style="fill:none;stroke:#231f20;stroke-width:0.565977;stroke-linecap:butt;stroke-linejoin:miter;stroke-miterlimit:4;stroke-dasharray:none;stroke-opacity:1"
     d="m 89.021552,65.65 c 0.406,0.506 0.338,2.448 0.901,3.959 0.375,1.016 0.213,3.756 0.672,4.74 0.412,0.901 0.516,1.353 -0.432,2.005 -0.558,0.391 -1.891,0.771 -2.204,0.359 -0.719,-0.943 -0.952,-1.864 -0.989,-2.932 -0.047,-1.213 0.125,-4.521 0.209,-5.131 0.223,-1.505 -0.146,-2.14 -0.12,-2.546 0.036,-0.76 0.339,-0.932 0.833,-1.015 0.943,-0.152 1.13,0.561 1.13,0.561 z"
     id="path164" />
  <path
     style="fill:#231f20;fill-opacity:1;fill-rule:nonzero;stroke:none"
     d="m 73.802552,68.756 c 1.292,0.046 0.844,2.036 0.802,2.577 -0.035,0.536 0.026,2.093 0.235,3.303 0.208,1.202 -0.047,2.796 0.339,5.088 0.208,1.208 -0.36,2.51 -2.12,2.734 -1.745,0.219 -2.521,-0.677 -2.552,-2.177 -0.026,-1.495 0.577,-2.912 0.662,-4.421 0.071,-1.511 0.014,-3.052 -0.095,-4.267 -0.119,-1.375 0.333,-2.099 0.755,-2.323 1.058,-0.562 1.974,-0.514 1.974,-0.514"
     id="path165" />
  <path
     style="fill:none;stroke:#231f20;stroke-width:0.565977;stroke-linecap:butt;stroke-linejoin:miter;stroke-miterlimit:4;stroke-dasharray:none;stroke-opacity:1"
     d="m 73.802552,68.756 c 1.292,0.046 0.844,2.036 0.802,2.577 -0.035,0.536 0.026,2.093 0.235,3.303 0.208,1.202 -0.047,2.796 0.339,5.088 0.208,1.208 -0.36,2.51 -2.12,2.734 -1.745,0.219 -2.521,-0.677 -2.552,-2.177 -0.026,-1.495 0.577,-2.912 0.662,-4.421 0.071,-1.511 0.014,-3.052 -0.095,-4.267 -0.119,-1.375 0.333,-2.099 0.755,-2.323 1.058,-0.562 1.974,-0.514 1.974,-0.514 z"
     id="path166" />
  <path
     style="fill:#231f20;fill-opacity:1;fill-rule:nonzero;stroke:none"
     d="m 77.187552,61.422 c -0.583,0.276 -1.369,2.052 -2.541,3.162 -0.787,0.744 -1.833,3.285 -2.672,3.968 -0.765,0.63 -1.063,0.994 -0.494,1.994 0.338,0.595 1.369,1.522 1.822,1.287 1.063,-0.536 1.678,-1.26 2.178,-2.203 0.567,-1.073 1.865,-4.12 2.052,-4.704 0.458,-1.448 1.072,-1.864 1.229,-2.244 0.297,-0.693 0.104,-0.98 -0.307,-1.27 -0.786,-0.558 -1.267,0.01 -1.267,0.01"
     id="path167" />
  <path
     style="fill:none;stroke:#231f20;stroke-width:0.565977;stroke-linecap:butt;stroke-linejoin:miter;stroke-miterlimit:4;stroke-dasharray:none;stroke-opacity:1"
     d="m 77.187552,61.422 c -0.583,0.276 -1.369,2.052 -2.541,3.162 -0.787,0.744 -1.833,3.285 -2.672,3.968 -0.765,0.63 -1.063,0.994 -0.494,1.994 0.338,0.595 1.369,1.522 1.822,1.287 1.063,-0.536 1.678,-1.26 2.178,-2.203 0.567,-1.073 1.865,-4.12 2.052,-4.704 0.458,-1.448 1.072,-1.864 1.229,-2.244 0.297,-0.693 0.104,-0.98 -0.307,-1.27 -0.786,-0.558 -1.267,0.01 -1.267,0.01 z"
     id="path168" />
  <path
     style="fill:#fab41d;fill-opacity:1;fill-rule:nonzero;stroke:none"
     d="m 79.532552,97.478 c 0.103,0.334 0.317,1.688 0.333,2.147 0.12,2.973 -1.271,6.666 -1.427,7.932 -0.156,1.265 -6.36,-0.979 -6.36,-0.979 l 0.183,-1.943 c -0.574,0.255 -0.938,-0.318 -0.938,-0.318 l -1.073,1.704 c 0,0 -6.182,-1.907 -5.708,-2.798 0.651,-1.24 2.26,-5.573 3.896,-7.395 0.896,-1.006 1.849,-1.38 1.849,-1.38 0,0 3.078,2.229 4.427,2.702 1.344,0.47 4.818,0.328 4.818,0.328"
     id="path169" />
  <path
     style="fill:none;stroke:#231f20;stroke-width:0.565977;stroke-linecap:butt;stroke-linejoin:miter;stroke-miterlimit:4;stroke-dasharray:none;stroke-opacity:1"
     d="m 79.532552,97.478 c 0.103,0.334 0.317,1.688 0.333,2.147 0.12,2.973 -1.271,6.666 -1.427,7.932 -0.156,1.265 -6.36,-0.979 -6.36,-0.979 l 0.183,-1.943 c -0.574,0.255 -0.938,-0.318 -0.938,-0.318 l -1.073,1.704 c 0,0 -6.182,-1.907 -5.708,-2.798 0.651,-1.24 2.26,-5.573 3.896,-7.395 0.896,-1.006 1.849,-1.38 1.849,-1.38 0,0 3.078,2.229 4.427,2.702 1.344,0.47 4.818,0.328 4.818,0.328 z"
     id="path170" />
  <path
     style="fill:#231f20;fill-opacity:1;fill-rule:nonzero;stroke:none"
     d="m 63.521552,139.994 c 0.562,-0.364 0.218,-2.14 1.218,-3.833 0.205,-0.35 0.199,-0.73 0.262,-1.094 0.249,-1.489 -0.344,-2.974 -3.063,-0.276 -0.375,0.38 -1.115,2.344 -1.713,2.85 -1.423,1.202 -1.557,4.525 -1.057,4.661 1.071,0.317 4.353,-2.308 4.353,-2.308"
     id="path171" />
  <path
     style="fill:none;stroke:#231f20;stroke-width:0.644548;stroke-linecap:round;stroke-linejoin:round;stroke-miterlimit:4;stroke-dasharray:none;stroke-opacity:1"
     d="m 63.521552,139.994 c 0.562,-0.364 0.218,-2.14 1.218,-3.833 0.205,-0.35 0.199,-0.73 0.262,-1.094 0.249,-1.489 -0.344,-2.974 -3.063,-0.276 -0.375,0.38 -1.115,2.344 -1.713,2.85 -1.423,1.202 -1.557,4.525 -1.057,4.661 1.071,0.317 4.353,-2.308 4.353,-2.308 z"
     id="path172" />
  <path
     style="fill:#231f20;fill-opacity:1;fill-rule:nonzero;stroke:none"
     d="m 57.625452,136.098 c -0.1188,-0.656 1.4011,-1.629 1.9581,-3.515 0.115,-0.385 0.386,-0.641 0.615,-0.938 0.912,-1.203 2.401,-1.786 2.292,2.037 -0.01,0.541 -0.932,2.421 -0.896,3.208 0.104,1.86 -2.224,4.235 -2.672,3.964 -0.9638,-0.563 -1.2971,-4.756 -1.2971,-4.756"
     id="path173" />
  <path
     style="fill:none;stroke:#231f20;stroke-width:0.644548;stroke-linecap:round;stroke-linejoin:round;stroke-miterlimit:4;stroke-dasharray:none;stroke-opacity:1"
     d="m 57.625452,136.098 c -0.1188,-0.656 1.4011,-1.629 1.9581,-3.515 0.115,-0.385 0.386,-0.641 0.615,-0.938 0.912,-1.203 2.401,-1.786 2.292,2.037 -0.01,0.541 -0.932,2.421 -0.896,3.208 0.104,1.86 -2.224,4.235 -2.672,3.964 -0.9638,-0.563 -1.2971,-4.756 -1.2971,-4.756 z"
     id="path174" />
  <path
     style="fill:#ffffff;fill-opacity:1;fill-rule:nonzero;stroke:none"
     d="m 297.76555,106.598 c -0.032,-0.239 -1.172,-0.38 -1.15,-0.9 0.03,-0.527 0.796,-0.688 1.733,-2.448 l 0.011,-0.016 c 0.636,-1.313 1.718,-2.183 2.974,-2.224 2.072,-0.068 3.834,2.161 3.927,4.984 0.093,2.823 -1.511,5.167 -3.583,5.24 -1.99,0.068 -3.688,-1.98 -3.912,-4.636"
     id="path175" />
  <path
     style="fill:none;stroke:#231f20;stroke-width:0.565977;stroke-linecap:butt;stroke-linejoin:miter;stroke-miterlimit:4;stroke-dasharray:none;stroke-opacity:1"
     d="m 297.76555,106.598 c -0.032,-0.239 -1.172,-0.38 -1.15,-0.9 0.03,-0.527 0.796,-0.688 1.733,-2.448 l 0.011,-0.016 c 0.636,-1.313 1.718,-2.183 2.974,-2.224 2.072,-0.068 3.834,2.161 3.927,4.984 0.093,2.823 -1.511,5.167 -3.583,5.24 -1.99,0.068 -3.688,-1.98 -3.912,-4.636 z"
     id="path176" />
  <path
     style="fill:#fab41d;fill-opacity:1;fill-rule:nonzero;stroke:none"
     d="m 302.26555,124.63 c -0.084,3.135 0.24,3.812 0.579,4.672 2.129,5.375 -0.553,6.317 -3.376,5.719 -3.312,-0.704 -4.515,-0.88 -3.749,-7.136 0.208,-1.735 0.161,-8.511 0.161,-8.511 -0.349,-2.421 0.609,-4.968 1.833,-5.755 1.292,-0.828 0.839,-0.406 2.183,-0.953 1.271,-0.521 3.432,-0.208 4.093,0.839 0.631,1 -0.13,2.489 -0.942,4.776 -0.642,1.797 -0.782,6.349 -0.782,6.349"
     id="path177" />
  <path
     style="fill:none;stroke:#231f20;stroke-width:0.565977;stroke-linecap:butt;stroke-linejoin:miter;stroke-miterlimit:4;stroke-dasharray:none;stroke-opacity:1"
     d="m 302.26555,124.63 c -0.084,3.135 0.24,3.812 0.579,4.672 2.129,5.375 -0.553,6.317 -3.376,5.719 -3.312,-0.704 -4.515,-0.88 -3.749,-7.136 0.208,-1.735 0.161,-8.511 0.161,-8.511 -0.349,-2.421 0.609,-4.968 1.833,-5.755 1.292,-0.828 0.839,-0.406 2.183,-0.953 1.271,-0.521 3.432,-0.208 4.093,0.839 0.631,1 -0.13,2.489 -0.942,4.776 -0.642,1.797 -0.782,6.349 -0.782,6.349 z"
     id="path178" />
  <path
     style="fill:#231f20;fill-opacity:1;fill-rule:nonzero;stroke:none"
     d="m 310.51555,96.62 c -0.578,0.286 -1.328,2.082 -2.468,3.224 -0.771,0.759 -1.756,3.322 -2.579,4.025 -0.755,0.646 -1.036,1.016 -0.448,2.01 0.349,0.584 1.407,1.486 1.855,1.24 1.046,-0.557 1.64,-1.302 2.125,-2.254 0.541,-1.09 1.765,-4.163 1.932,-4.751 0.427,-1.464 1.031,-1.89 1.177,-2.27 0.282,-0.703 0.083,-0.984 -0.338,-1.271 -0.798,-0.532 -1.256,0.047 -1.256,0.047"
     id="path179" />
  <path
     style="fill:none;stroke:#231f20;stroke-width:0.565977;stroke-linecap:butt;stroke-linejoin:miter;stroke-miterlimit:4;stroke-dasharray:none;stroke-opacity:1"
     d="m 310.51555,96.62 c -0.578,0.286 -1.328,2.082 -2.468,3.224 -0.771,0.759 -1.756,3.322 -2.579,4.025 -0.755,0.646 -1.036,1.016 -0.448,2.01 0.349,0.584 1.407,1.486 1.855,1.24 1.046,-0.557 1.64,-1.302 2.125,-2.254 0.541,-1.09 1.765,-4.163 1.932,-4.751 0.427,-1.464 1.031,-1.89 1.177,-2.27 0.282,-0.703 0.083,-0.984 -0.338,-1.271 -0.798,-0.532 -1.256,0.047 -1.256,0.047 z"
     id="path180" />
  <path
     style="fill:#231f20;fill-opacity:1;fill-rule:nonzero;stroke:none"
     d="m 305.88055,104.406 c -1.177,-0.537 -1.667,1.437 -1.875,1.937 -0.209,0.5 -0.969,1.859 -1.693,2.85 -0.729,0.984 -1.213,2.525 -2.588,4.394 -0.729,0.991 -0.808,2.407 0.667,3.396 1.457,0.975 2.557,0.527 3.254,-0.796 0.699,-1.328 0.792,-2.865 1.402,-4.25 0.604,-1.386 1.353,-2.735 1.989,-3.766 0.729,-1.182 0.651,-2.03 0.375,-2.421 -0.692,-0.975 -1.531,-1.344 -1.531,-1.344"
     id="path181" />
  <path
     style="fill:none;stroke:#231f20;stroke-width:0.565977;stroke-linecap:butt;stroke-linejoin:miter;stroke-miterlimit:4;stroke-dasharray:none;stroke-opacity:1"
     d="m 305.88055,104.406 c -1.177,-0.537 -1.667,1.437 -1.875,1.937 -0.209,0.5 -0.969,1.859 -1.693,2.85 -0.729,0.984 -1.213,2.525 -2.588,4.394 -0.729,0.991 -0.808,2.407 0.667,3.396 1.457,0.975 2.557,0.527 3.254,-0.796 0.699,-1.328 0.792,-2.865 1.402,-4.25 0.604,-1.386 1.353,-2.735 1.989,-3.766 0.729,-1.182 0.651,-2.03 0.375,-2.421 -0.692,-0.975 -1.531,-1.344 -1.531,-1.344 z"
     id="path182" />
  <path
     style="fill:#231f20;fill-opacity:1;fill-rule:nonzero;stroke:none"
     d="m 313.98455,90.598 c -0.557,0.459 -2.203,3.267 -2.552,3.923 -0.312,0.588 -1.145,1.385 -0.459,2.317 0.282,0.375 0.948,0.724 1.262,0.798 0.249,0.057 0.489,-0.167 0.64,-0.543 0.254,-0.609 0.093,-0.885 0.516,-2.088 0,0 0.057,-0.307 0.129,-0.849 0.204,-1.62 -0.036,-0.922 0.792,-3.198 0.057,-0.166 -0.063,-0.344 -0.177,-0.37 -0.172,-0.047 -0.151,0.01 -0.151,0.01"
     id="path183" />
  <path
     style="fill:none;stroke:#231f20;stroke-width:0.565977;stroke-linecap:round;stroke-linejoin:round;stroke-miterlimit:4;stroke-dasharray:none;stroke-opacity:1"
     d="m 313.98455,90.598 c -0.557,0.459 -2.203,3.267 -2.552,3.923 -0.312,0.588 -1.145,1.385 -0.459,2.317 0.282,0.375 0.948,0.724 1.262,0.798 0.249,0.057 0.489,-0.167 0.64,-0.543 0.254,-0.609 0.093,-0.885 0.516,-2.088 0,0 0.057,-0.307 0.129,-0.849 0.204,-1.62 -0.036,-0.922 0.792,-3.198 0.057,-0.166 -0.063,-0.344 -0.177,-0.37 -0.172,-0.047 -0.151,0.01 -0.151,0.01 z"
     id="path184" />
  <path
     style="fill:#231f20;fill-opacity:1;fill-rule:nonzero;stroke:none"
     d="m 214.70855,114.015 c -0.093,-0.636 0.943,-2.286 1.208,-3.87 0.178,-1.072 1.704,-3.359 1.798,-4.438 0.093,-0.989 0.234,-1.432 1.38,-1.52 0.682,-0.057 2.026,0.282 2.088,0.791 0.146,1.183 -0.119,2.095 -0.619,3.043 -0.568,1.068 -2.376,3.844 -2.756,4.322 -0.948,1.192 -0.948,1.927 -1.172,2.266 -0.411,0.641 -0.755,0.636 -1.229,0.458 -0.895,-0.338 -0.698,-1.052 -0.698,-1.052"
     id="path185" />
  <path
     style="fill:none;stroke:#231f20;stroke-width:0.565977;stroke-linecap:butt;stroke-linejoin:miter;stroke-miterlimit:4;stroke-dasharray:none;stroke-opacity:1"
     d="m 214.70855,114.015 c -0.093,-0.636 0.943,-2.286 1.208,-3.87 0.178,-1.072 1.704,-3.359 1.798,-4.438 0.093,-0.989 0.234,-1.432 1.38,-1.52 0.682,-0.057 2.026,0.282 2.088,0.791 0.146,1.183 -0.119,2.095 -0.619,3.043 -0.568,1.068 -2.376,3.844 -2.756,4.322 -0.948,1.192 -0.948,1.927 -1.172,2.266 -0.411,0.641 -0.755,0.636 -1.229,0.458 -0.895,-0.338 -0.698,-1.052 -0.698,-1.052 z"
     id="path186" />
  <path
     style="fill:#231f20;fill-opacity:1;fill-rule:nonzero;stroke:none"
     d="m 218.39155,105.739 c -1.12,-0.656 0.213,-2.198 0.5,-2.656 0.281,-0.458 0.957,-1.86 1.344,-3.026 0.385,-1.161 1.359,-2.448 2.093,-4.656 0.386,-1.161 1.5,-2.047 3.151,-1.417 1.645,0.63 1.912,1.786 1.235,3.12 -0.678,1.333 -1.88,2.302 -2.656,3.598 -0.787,1.297 -1.454,2.688 -1.928,3.803 -0.542,1.281 -1.276,1.702 -1.755,1.702 -1.197,0 -1.984,-0.468 -1.984,-0.468"
     id="path187" />
  <path
     style="fill:none;stroke:#231f20;stroke-width:0.565977;stroke-linecap:butt;stroke-linejoin:miter;stroke-miterlimit:4;stroke-dasharray:none;stroke-opacity:1"
     d="m 218.39155,105.739 c -1.12,-0.656 0.213,-2.198 0.5,-2.656 0.281,-0.458 0.957,-1.86 1.344,-3.026 0.385,-1.161 1.359,-2.448 2.093,-4.656 0.386,-1.161 1.5,-2.047 3.151,-1.417 1.645,0.63 1.912,1.786 1.235,3.12 -0.678,1.333 -1.88,2.302 -2.656,3.598 -0.787,1.297 -1.454,2.688 -1.928,3.803 -0.542,1.281 -1.276,1.702 -1.755,1.702 -1.197,0 -1.984,-0.468 -1.984,-0.468 z"
     id="path188" />
  <path
     style="fill:#231f20;fill-opacity:1;fill-rule:nonzero;stroke:none"
     d="m 211.80755,120.327 c 0.052,-0.718 1.391,-3.682 1.729,-4.349 0.292,-0.593 0.464,-1.733 1.626,-1.713 0.462,0.016 1.14,0.354 1.374,0.568 0.194,0.172 0.146,0.5 -0.073,0.838 -0.348,0.563 -0.667,0.588 -1.405,1.631 0,0 -0.219,0.219 -0.615,0.593 -1.204,1.104 -0.781,0.5 -2.156,2.495 -0.1,0.141 -0.313,0.145 -0.401,0.068 -0.136,-0.109 -0.079,-0.131 -0.079,-0.131"
     id="path189" />
  <path
     style="fill:none;stroke:#231f20;stroke-width:0.565977;stroke-linecap:round;stroke-linejoin:round;stroke-miterlimit:4;stroke-dasharray:none;stroke-opacity:1"
     d="m 211.80755,120.327 c 0.052,-0.718 1.391,-3.682 1.729,-4.349 0.292,-0.593 0.464,-1.733 1.626,-1.713 0.462,0.016 1.14,0.354 1.374,0.568 0.194,0.172 0.146,0.5 -0.073,0.838 -0.348,0.563 -0.667,0.588 -1.405,1.631 0,0 -0.219,0.219 -0.615,0.593 -1.204,1.104 -0.781,0.5 -2.156,2.495 -0.1,0.141 -0.313,0.145 -0.401,0.068 -0.136,-0.109 -0.079,-0.131 -0.079,-0.131 z"
     id="path190" />
  <path
     style="fill:#231f20;fill-opacity:1;fill-rule:nonzero;stroke:none"
     d="m 299.82855,150.333 c 2.235,-0.396 2.719,-0.172 2.953,0.756 0.151,0.618 0.506,1.145 0.619,1.514 0.371,1.246 0.485,3.486 -0.864,9.932 -0.301,1.464 -0.719,3.522 -0.817,4.371 -0.162,1.348 -2.292,0.167 -2.235,-0.365 0.183,-1.703 0.177,-2.891 0.156,-3.515 -0.011,-0.428 0.068,-1.183 -0.187,-2.828 -0.396,-2.5 -1,-3.939 -1.089,-6.048 -0.036,-0.979 -0.687,-1.692 -0.24,-2.676 0.453,-0.991 1.704,-1.141 1.704,-1.141"
     id="path191" />
  <path
     style="fill:none;stroke:#231f20;stroke-width:0.565977;stroke-linecap:butt;stroke-linejoin:miter;stroke-miterlimit:4;stroke-dasharray:none;stroke-opacity:1"
     d="m 299.82855,150.333 c 2.235,-0.396 2.719,-0.172 2.953,0.756 0.151,0.618 0.506,1.145 0.619,1.514 0.371,1.246 0.485,3.486 -0.864,9.932 -0.301,1.464 -0.719,3.522 -0.817,4.371 -0.162,1.348 -2.292,0.167 -2.235,-0.365 0.183,-1.703 0.177,-2.891 0.156,-3.515 -0.011,-0.428 0.068,-1.183 -0.187,-2.828 -0.396,-2.5 -1,-3.939 -1.089,-6.048 -0.036,-0.979 -0.687,-1.692 -0.24,-2.676 0.453,-0.991 1.704,-1.141 1.704,-1.141 z"
     id="path192" />
  <path
     style="fill:#231f20;fill-opacity:1;fill-rule:nonzero;stroke:#231f20;stroke-width:0.565977;stroke-linecap:round;stroke-linejoin:miter;stroke-miterlimit:4;stroke-dasharray:none;stroke-opacity:1"
     d="m 298.38055,152.365 c -1.027,-0.876 -0.661,-2.866 -0.751,-3.183 -1.317,-4.833 -1.29,-5.213 -2.036,-8.964 -1.078,-5.421 -0.984,-9.297 1.984,-10.844 2.022,-1.057 3.636,-0.787 4.631,0.079 1.104,0.953 2.276,3.906 0.583,6.24 l -0.13,1.708 c 0.068,1.161 0.088,1.74 0.167,2.306 0.135,0.995 0.208,2.068 0.364,4.022 0.271,3.453 -0.583,7.208 -0.583,7.208 0.015,0.308 -0.089,0.568 -0.25,0.781"
     id="path193" />
  <path
     style="fill:#fab41d;fill-opacity:1;fill-rule:nonzero;stroke:none"
     d="m 302.20855,129.453 c -0.995,-0.866 -2.609,-1.136 -4.631,-0.084 -1.306,0.682 -2.041,1.833 -2.38,3.349 -0.442,0.943 -0.682,1.521 -0.306,2.229 0.036,0.063 0.062,0.142 0.088,0.214 0.01,0.589 0.036,1.198 0.109,1.849 l 7.703,-1.317 c 1.693,-2.334 0.521,-5.287 -0.583,-6.24"
     id="path194" />
  <path
     style="fill:none;stroke:#231f20;stroke-width:0.565977;stroke-linecap:round;stroke-linejoin:round;stroke-miterlimit:4;stroke-dasharray:none;stroke-opacity:1"
     d="m 302.20855,129.453 c -0.995,-0.866 -2.609,-1.136 -4.631,-0.084 -1.306,0.682 -2.041,1.833 -2.38,3.349 -0.442,0.943 -0.682,1.521 -0.306,2.229 0.036,0.063 0.062,0.142 0.088,0.214 0.01,0.589 0.036,1.198 0.109,1.849 l 7.703,-1.317 c 1.693,-2.334 0.521,-5.287 -0.583,-6.24 z"
     id="path195" />
  <path
     style="fill:#231f20;fill-opacity:1;fill-rule:nonzero;stroke:none"
     d="m 301.43755,170.141 c 1.083,-0.063 0.818,-1.287 0.583,-2.491 -0.063,-0.301 -0.093,-0.593 -0.172,-0.885 -0.337,-1.178 -1.161,-1.834 -3.109,0.437 -0.072,0.084 -1.911,1.272 -2.484,1.521 -2.74,1.167 -2.968,0.355 -2.74,1.167 0.146,0.541 0.657,0.552 1.281,0.547 0.855,-0.006 3.871,-0.282 4.333,-0.292 0.448,-0.01 2.308,-0.004 2.308,-0.004"
     id="path196" />
  <path
     style="fill:none;stroke:#231f20;stroke-width:0.565977;stroke-linecap:butt;stroke-linejoin:miter;stroke-miterlimit:4;stroke-dasharray:none;stroke-opacity:1"
     d="m 301.43755,170.141 c 1.083,-0.063 0.818,-1.287 0.583,-2.491 -0.063,-0.301 -0.093,-0.593 -0.172,-0.885 -0.337,-1.178 -1.161,-1.834 -3.109,0.437 -0.072,0.084 -1.911,1.272 -2.484,1.521 -2.74,1.167 -2.968,0.355 -2.74,1.167 0.146,0.541 0.657,0.552 1.281,0.547 0.855,-0.006 3.871,-0.282 4.333,-0.292 0.448,-0.01 2.308,-0.004 2.308,-0.004 z"
     id="path198" />
  <path
     style="fill:#ffffff;fill-opacity:1;fill-rule:nonzero;stroke:none"
     d="m 19.725552,113.593 c -0.1615,-0.176 -1.188,0.338 -1.459,-0.11 -0.265,-0.452 0.2814,-1.014 0.0828,-3 v -0.014 c -0.1973,-1.443 0.2199,-2.767 1.2402,-3.5 1.6822,-1.21 4.3906,-0.334 6.036,1.962 1.6462,2.298 1.6145,5.136 -0.0719,6.35 -1.6152,1.156 -4.1615,0.396 -5.8281,-1.688"
     id="path200" />
  <path
     style="fill:none;stroke:#231f20;stroke-width:0.565977;stroke-linecap:butt;stroke-linejoin:miter;stroke-miterlimit:4;stroke-dasharray:none;stroke-opacity:1"
     d="m 19.725552,113.593 c -0.1615,-0.176 -1.188,0.338 -1.459,-0.11 -0.265,-0.452 0.2814,-1.014 0.0828,-3 v -0.014 c -0.1973,-1.443 0.2199,-2.767 1.2402,-3.5 1.6822,-1.21 4.3906,-0.334 6.036,1.962 1.6462,2.298 1.6145,5.136 -0.0719,6.35 -1.6152,1.156 -4.1615,0.396 -5.8281,-1.688 z"
     id="path201" />
  <path
     style="fill:#fab41d;fill-opacity:1;fill-rule:nonzero;stroke:none"
     d="m 34.266552,125.469 c 1.8959,2.489 2.5787,2.817 3.3751,3.276 5.0265,2.853 3.5317,5.265 0.9582,6.572 -3.0265,1.532 -4.0785,2.141 -7.4009,-3.208 -0.9214,-1.49 -5.2084,-6.735 -5.2084,-6.735 -1.7864,-1.672 -2.6358,-4.255 -2.1718,-5.635 0.4838,-1.453 0.4016,-0.844 1.0984,-2.104 0.6614,-1.209 2.5469,-2.318 3.7188,-1.917 1.1202,0.385 1.4588,2.021 2.2562,4.313 0.6239,1.802 3.3744,5.438 3.3744,5.438"
     id="path202" />
  <path
     style="fill:none;stroke:#231f20;stroke-width:0.565977;stroke-linecap:butt;stroke-linejoin:miter;stroke-miterlimit:4;stroke-dasharray:none;stroke-opacity:1"
     d="m 34.266552,125.469 c 1.8959,2.489 2.5787,2.817 3.3751,3.276 5.0265,2.853 3.5317,5.265 0.9582,6.572 -3.0265,1.532 -4.0785,2.141 -7.4009,-3.208 -0.9214,-1.49 -5.2084,-6.735 -5.2084,-6.735 -1.7864,-1.672 -2.6358,-4.255 -2.1718,-5.635 0.4838,-1.453 0.4016,-0.844 1.0984,-2.104 0.6614,-1.209 2.5469,-2.318 3.7188,-1.917 1.1202,0.385 1.4588,2.021 2.2562,4.313 0.6239,1.802 3.3744,5.438 3.3744,5.438 z"
     id="path203" />
  <path
     style="fill:#231f20;fill-opacity:1;fill-rule:nonzero;stroke:none"
     d="m 7.2666517,123.078 c 0.5881,0.26 2.4537,-0.287 4.0573003,-0.12 1.0735,0.12 3.688,-0.729 4.7547,-0.536 0.9802,0.181 1.4428,0.171 1.8385,-0.917 0.2401,-0.636 0.2709,-2.027 -0.2025,-2.224 -1.0986,-0.459 -2.0412,-0.454 -3.0891,-0.224 -1.1871,0.26 -4.3428,1.25 -4.9109003,1.489 -1.4063,0.589 -2.1147,0.391 -2.5,0.511 -0.7292,0.229 -0.8172,0.562 -0.7762,1.062 0.0882,0.959 0.8282,0.959 0.8282,0.959"
     id="path204" />
  <path
     style="fill:none;stroke:#231f20;stroke-width:0.565977;stroke-linecap:butt;stroke-linejoin:miter;stroke-miterlimit:4;stroke-dasharray:none;stroke-opacity:1"
     d="m 7.2666517,123.078 c 0.5881,0.26 2.4537,-0.287 4.0573003,-0.12 1.0735,0.12 3.688,-0.729 4.7547,-0.536 0.9802,0.181 1.4428,0.171 1.8385,-0.917 0.2401,-0.636 0.2709,-2.027 -0.2025,-2.224 -1.0986,-0.459 -2.0412,-0.454 -3.0891,-0.224 -1.1871,0.26 -4.3428,1.25 -4.9109003,1.489 -1.4063,0.589 -2.1147,0.391 -2.5,0.511 -0.7292,0.229 -0.8172,0.562 -0.7762,1.062 0.0882,0.959 0.8282,0.959 0.8282,0.959 z"
     id="path205" />
  <path
     style="fill:#231f20;fill-opacity:1;fill-rule:nonzero;stroke:none"
     d="m 16.235952,121.765 c 0.3229,1.25 2.1656,0.39 2.6869,0.24 0.5213,-0.156 2.0521,-0.427 3.2704,-0.479 1.2296,-0.057 2.7348,-0.652 5.0572,-0.761 1.2188,-0.058 2.3751,-0.891 2.2084,-2.656 -0.1563,-1.75 -1.2027,-2.318 -2.6667,-2.031 -1.4682,0.301 -2.724,1.192 -4.1813,1.593 -1.4588,0.402 -2.9801,0.672 -4.188,0.823 -1.3692,0.177 -1.9786,0.776 -2.1093,1.24 -0.3177,1.151 -0.0776,2.031 -0.0776,2.031"
     id="path206" />
  <path
     style="fill:none;stroke:#231f20;stroke-width:0.565977;stroke-linecap:butt;stroke-linejoin:miter;stroke-miterlimit:4;stroke-dasharray:none;stroke-opacity:1"
     d="m 16.235952,121.765 c 0.3229,1.25 2.1656,0.39 2.6869,0.24 0.5213,-0.156 2.0521,-0.427 3.2704,-0.479 1.2296,-0.057 2.7348,-0.652 5.0572,-0.761 1.2188,-0.058 2.3751,-0.891 2.2084,-2.656 -0.1563,-1.75 -1.2027,-2.318 -2.6667,-2.031 -1.4682,0.301 -2.724,1.192 -4.1813,1.593 -1.4588,0.402 -2.9801,0.672 -4.188,0.823 -1.3692,0.177 -1.9786,0.776 -2.1093,1.24 -0.3177,1.151 -0.0776,2.031 -0.0776,2.031 z"
     id="path207" />
  <path
     style="fill:#231f20;fill-opacity:1;fill-rule:nonzero;stroke:none"
     d="m 0.40155175,124.171 c 0.71459995,0.14 3.92759995,-0.349 4.65729995,-0.494 0.6506,-0.126 1.8011,0.021 2.088,-1.099 0.1146,-0.459 -0.0308,-1.199 -0.1776,-1.485 -0.1093,-0.228 -0.4369,-0.271 -0.8224,-0.156 -0.6349,0.193 -0.7401,0.485 -1.9426,0.922 0,0 -0.2761,0.14 -0.7453,0.432 -1.3855,0.859 -0.6923,0.61 -2.97869995,1.402 -0.1667,0.052 -0.224,0.26 -0.1776,0.364 0.0735,0.161 0.0989,0.114 0.0989,0.114"
     id="path208" />
  <path
     style="fill:none;stroke:#231f20;stroke-width:0.565977;stroke-linecap:round;stroke-linejoin:round;stroke-miterlimit:4;stroke-dasharray:none;stroke-opacity:1"
     d="m 0.40155175,124.171 c 0.71459995,0.14 3.92759995,-0.349 4.65729995,-0.494 0.6506,-0.126 1.8011,0.021 2.088,-1.099 0.1146,-0.459 -0.0308,-1.199 -0.1776,-1.485 -0.1093,-0.228 -0.4369,-0.271 -0.8224,-0.156 -0.6349,0.193 -0.7401,0.485 -1.9426,0.922 0,0 -0.2761,0.14 -0.7453,0.432 -1.3855,0.859 -0.6923,0.61 -2.97869995,1.402 -0.1667,0.052 -0.224,0.26 -0.1776,0.364 0.0735,0.161 0.0989,0.114 0.0989,0.114 z"
     id="path209" />
  <path
     style="fill:#231f20;fill-opacity:1;fill-rule:nonzero;stroke:none"
     d="m 28.214552,149.259 c 2.2547,-0.15 2.7187,0.12 2.8495,1.074 0.088,0.63 0.3853,1.182 0.452,1.568 0.2401,1.276 0.1094,3.516 -1.9109,9.781 -0.4635,1.421 -1.0932,3.421 -1.2864,4.255 -0.3027,1.322 -2.2974,-0.072 -2.1828,-0.594 0.3656,-1.677 0.4854,-2.86 0.5322,-3.478 0.036,-0.428 0.1975,-1.172 0.1146,-2.834 -0.1255,-2.526 -0.5734,-4.021 -0.4334,-6.13 0.0626,-0.98 -0.5041,-1.756 0.0428,-2.688 0.5572,-0.932 1.8224,-0.954 1.8224,-0.954"
     id="path210" />
  <path
     style="fill:none;stroke:#231f20;stroke-width:0.565977;stroke-linecap:butt;stroke-linejoin:miter;stroke-miterlimit:4;stroke-dasharray:none;stroke-opacity:1"
     d="m 28.214552,149.259 c 2.2547,-0.15 2.7187,0.12 2.8495,1.074 0.088,0.63 0.3853,1.182 0.452,1.568 0.2401,1.276 0.1094,3.516 -1.9109,9.781 -0.4635,1.421 -1.0932,3.421 -1.2864,4.255 -0.3027,1.322 -2.2974,-0.072 -2.1828,-0.594 0.3656,-1.677 0.4854,-2.86 0.5322,-3.478 0.036,-0.428 0.1975,-1.172 0.1146,-2.834 -0.1255,-2.526 -0.5734,-4.021 -0.4334,-6.13 0.0626,-0.98 -0.5041,-1.756 0.0428,-2.688 0.5572,-0.932 1.8224,-0.954 1.8224,-0.954 z"
     id="path211" />
  <path
     style="fill:#231f20;fill-opacity:1;fill-rule:nonzero;stroke:#231f20;stroke-width:0.565977;stroke-linecap:round;stroke-linejoin:miter;stroke-miterlimit:4;stroke-dasharray:none;stroke-opacity:1"
     d="m 26.553652,151.125 c -0.5109,-1.246 0.7239,-2.85 0.7957,-3.167 1.0376,-4.901 1.2402,-5.235 2.2975,-8.901 1.5213,-5.312 3.3797,-8.719 6.7344,-8.735 2.276,-0.011 3.5828,0.969 4.0734,2.193 0.5468,1.354 0.2334,4.516 -2.3438,5.818 l -0.8963,1.458 c -0.4745,1.063 -0.7131,1.578 -0.912,2.126 -0.3333,0.942 -0.7547,1.932 -1.5145,3.738 -1.3439,3.199 -3.8188,6.136 -3.8188,6.136 -0.1292,0.287 -0.3437,0.474 -0.588,0.588"
     id="path212" />
  <path
     style="fill:#fab41d;fill-opacity:1;fill-rule:nonzero;stroke:none"
     d="m 40.458852,132.515 c -0.4948,-1.224 -1.8068,-2.204 -4.0776,-2.193 -1.4746,0.005 -2.6558,0.693 -3.6506,1.885 -0.824,0.631 -1.3078,1.038 -1.2974,1.839 0,0.073 -0.0104,0.152 -0.0214,0.224 -0.2598,0.532 -0.5145,1.084 -0.7494,1.699 l 7.4484,2.358 c 2.5824,-1.296 2.8906,-4.458 2.348,-5.812"
     id="path213" />
  <path
     style="fill:none;stroke:#231f20;stroke-width:0.565977;stroke-linecap:round;stroke-linejoin:round;stroke-miterlimit:4;stroke-dasharray:none;stroke-opacity:1"
     d="m 40.458852,132.515 c -0.4948,-1.224 -1.8068,-2.204 -4.0776,-2.193 -1.4746,0.005 -2.6558,0.693 -3.6506,1.885 -0.824,0.631 -1.3078,1.038 -1.2974,1.839 0,0.073 -0.0104,0.152 -0.0214,0.224 -0.2598,0.532 -0.5145,1.084 -0.7494,1.699 l 7.4484,2.358 c 2.5824,-1.296 2.8906,-4.458 2.348,-5.812 z"
     id="path214" />
  <path
     style="fill:#231f20;fill-opacity:1;fill-rule:nonzero;stroke:none"
     d="m 28.469252,168.942 c 1.0683,-0.197 0.6416,-1.385 0.2453,-2.547 -0.0985,-0.292 -0.1666,-0.573 -0.2865,-0.849 -0.4896,-1.124 -1.3905,-1.667 -3.0213,0.844 -0.0615,0.093 -1.7282,1.511 -2.2599,1.833 -2.5683,1.522 -2.8964,0.751 -2.5683,1.522 0.224,0.509 0.7298,0.453 1.3495,0.369 0.8437,-0.115 3.7923,-0.792 4.2505,-0.86 0.447,-0.072 2.2907,-0.312 2.2907,-0.312"
     id="path215" />
  <path
     style="fill:none;stroke:#231f20;stroke-width:0.565977;stroke-linecap:butt;stroke-linejoin:miter;stroke-miterlimit:4;stroke-dasharray:none;stroke-opacity:1"
     d="m 28.469252,168.942 c 1.0683,-0.197 0.6416,-1.385 0.2453,-2.547 -0.0985,-0.292 -0.1666,-0.573 -0.2865,-0.849 -0.4896,-1.124 -1.3905,-1.667 -3.0213,0.844 -0.0615,0.093 -1.7282,1.511 -2.2599,1.833 -2.5683,1.522 -2.8964,0.751 -2.5683,1.522 0.224,0.509 0.7298,0.453 1.3495,0.369 0.8437,-0.115 3.7923,-0.792 4.2505,-0.86 0.447,-0.072 2.2907,-0.312 2.2907,-0.312 z"
     id="path217" />
  <path
     style="fill:none;stroke:#231f20;stroke-width:0.49806;stroke-linecap:butt;stroke-linejoin:miter;stroke-miterlimit:4;stroke-dasharray:none;stroke-opacity:1"
     d="m 56.714552,99.562 c -13.1199,-35.854 33.568,8.355 33.568,8.355"
     id="path219" />
  <path
     style="fill:#231f20;fill-opacity:1;fill-rule:nonzero;stroke:none"
     d="m 91.375552,108.953 c -0.697,-0.298 -1.641,-0.579 -2.364,-0.604 l 1.124,-0.568 0.506,-1.156 c 0.068,0.718 0.401,1.65 0.734,2.328"
     id="path220" />
  <path
     style="fill:#231f20;fill-opacity:1;fill-rule:nonzero;stroke:none"
     d="m 137.73455,86.041 c 0.521,0.365 1.005,2.256 1.964,3.547 0.651,0.87 1.251,3.542 1.959,4.365 0.65,0.755 0.88,1.156 0.156,2.041 -0.438,0.532 -1.61,1.271 -2.022,0.964 -0.952,-0.708 -1.432,-1.521 -1.77,-2.536 -0.38,-1.162 -1.14,-4.381 -1.224,-4.985 -0.208,-1.511 -0.734,-2.02 -0.828,-2.416 -0.172,-0.74 0.068,-0.989 0.521,-1.204 0.864,-0.421 1.244,0.224 1.244,0.224"
     id="path221" />
  <path
     style="fill:none;stroke:#231f20;stroke-width:0.565977;stroke-linecap:butt;stroke-linejoin:miter;stroke-miterlimit:4;stroke-dasharray:none;stroke-opacity:1"
     d="m 137.73455,86.041 c 0.521,0.365 1.005,2.256 1.964,3.547 0.651,0.87 1.251,3.542 1.959,4.365 0.65,0.755 0.88,1.156 0.156,2.041 -0.438,0.532 -1.61,1.271 -2.022,0.964 -0.952,-0.708 -1.432,-1.521 -1.77,-2.536 -0.38,-1.162 -1.14,-4.381 -1.224,-4.985 -0.208,-1.511 -0.734,-2.02 -0.828,-2.416 -0.172,-0.74 0.068,-0.989 0.521,-1.204 0.864,-0.421 1.244,0.224 1.244,0.224 z"
     id="path222" />
  <path
     style="fill:#fab41d;fill-opacity:1;fill-rule:nonzero;stroke:none"
     d="m 144.06755,89.838 c -2.249,-2.177 -2.504,-2.896 -2.858,-3.745 -2.251,-5.323 -4.823,-4.119 -6.412,-1.719 -1.88,2.824 -2.615,3.803 2.313,7.724 1.369,1.095 6.072,5.964 6.072,5.964 1.459,1.97 3.923,3.12 5.344,2.823 1.505,-0.318 0.891,-0.302 2.219,-0.844 1.281,-0.52 2.6,-2.26 2.338,-3.468 -0.249,-1.161 -1.833,-1.693 -4.01,-2.745 -1.719,-0.839 -5.006,-3.99 -5.006,-3.99"
     id="path223" />
  <path
     style="fill:none;stroke:#231f20;stroke-width:0.565977;stroke-linecap:butt;stroke-linejoin:miter;stroke-miterlimit:4;stroke-dasharray:none;stroke-opacity:1"
     d="m 144.06755,89.838 c -2.249,-2.177 -2.504,-2.896 -2.858,-3.745 -2.251,-5.323 -4.823,-4.119 -6.412,-1.719 -1.88,2.824 -2.615,3.803 2.313,7.724 1.369,1.095 6.072,5.964 6.072,5.964 1.459,1.97 3.923,3.12 5.344,2.823 1.505,-0.318 0.891,-0.302 2.219,-0.844 1.281,-0.52 2.6,-2.26 2.338,-3.468 -0.249,-1.161 -1.833,-1.693 -4.01,-2.745 -1.719,-0.839 -5.006,-3.99 -5.006,-3.99 z"
     id="path224" />
  <path
     style="fill:#ffffff;fill-opacity:1;fill-rule:nonzero;stroke:none"
     d="m 155.77155,106.593 c 0.219,0.114 -0.046,1.24 0.454,1.396 0.505,0.161 0.921,-0.515 2.89,-0.787 l 0.025,-0.004 c 1.438,-0.152 2.636,-0.865 3.104,-2.032 0.776,-1.927 -0.713,-4.339 -3.333,-5.396 -2.614,-1.068 -5.369,-0.353 -6.15,1.568 -0.75,1.839 0.598,4.14 3.01,5.255"
     id="path225" />
  <path
     style="fill:none;stroke:#231f20;stroke-width:0.565977;stroke-linecap:butt;stroke-linejoin:miter;stroke-miterlimit:4;stroke-dasharray:none;stroke-opacity:1"
     d="m 155.77155,106.593 c 0.219,0.114 -0.046,1.24 0.454,1.396 0.505,0.161 0.921,-0.515 2.89,-0.787 l 0.025,-0.004 c 1.438,-0.152 2.636,-0.865 3.104,-2.032 0.776,-1.927 -0.713,-4.339 -3.333,-5.396 -2.614,-1.068 -5.369,-0.353 -6.15,1.568 -0.75,1.839 0.598,4.14 3.01,5.255 z"
     id="path226" />
  <path
     style="fill:#231f20;fill-opacity:1;fill-rule:nonzero;stroke:none"
     d="m 126.28755,69.521 c 2.094,-0.849 2.391,-1.297 2.083,-2.204 -0.197,-0.609 -0.172,-1.233 -0.276,-1.615 -0.339,-1.244 -1.443,-3.213 -6,-7.962 -1.036,-1.068 -2.473,-2.599 -3.011,-3.266 -0.858,-1.048 -2.036,1.083 -1.702,1.504 1.068,1.35 1.682,2.355 2,2.887 0.213,0.369 0.686,0.968 1.344,2.504 0.989,2.324 1.244,3.865 2.29,5.699 0.486,0.853 0.314,1.801 1.22,2.39 0.9,0.604 2.052,0.063 2.052,0.063"
     id="path227" />
  <path
     style="fill:none;stroke:#231f20;stroke-width:0.565977;stroke-linecap:butt;stroke-linejoin:miter;stroke-miterlimit:4;stroke-dasharray:none;stroke-opacity:1"
     d="m 126.28755,69.521 c 2.094,-0.849 2.391,-1.297 2.083,-2.204 -0.197,-0.609 -0.172,-1.233 -0.276,-1.615 -0.339,-1.244 -1.443,-3.213 -6,-7.962 -1.036,-1.068 -2.473,-2.599 -3.011,-3.266 -0.858,-1.048 -2.036,1.083 -1.702,1.504 1.068,1.35 1.682,2.355 2,2.887 0.213,0.369 0.686,0.968 1.344,2.504 0.989,2.324 1.244,3.865 2.29,5.699 0.486,0.853 0.314,1.801 1.22,2.39 0.9,0.604 2.052,0.063 2.052,0.063 z"
     id="path228" />
  <path
     style="fill:#231f20;fill-opacity:1;fill-rule:nonzero;stroke:#231f20;stroke-width:0.565977;stroke-linecap:round;stroke-linejoin:round;stroke-miterlimit:4;stroke-dasharray:none;stroke-opacity:1"
     d="m 124.02155,68.448 c -0.547,1.302 0.912,2.896 1.01,3.213 1.448,4.803 1.678,5.109 3.036,8.677 1.964,5.178 4.106,8.407 7.448,8.146 2.262,-0.182 3.491,-1.266 3.876,-2.531 0.427,-1.385 -0.146,-4.516 -2.822,-5.593 l -1.016,-1.386 c -0.568,-1.016 -0.85,-1.516 -1.09,-2.037 -0.41,-0.905 -0.916,-1.859 -1.822,-3.599 -1.615,-3.078 -4.323,-5.806 -4.323,-5.806 -0.151,-0.267 -0.375,-0.434 -0.631,-0.527"
     id="path229" />
  <path
     style="fill:#fab41d;fill-opacity:1;fill-rule:nonzero;stroke:none"
     d="m 136.49055,80.765 -7.24,2.948 c 1.636,3.391 3.516,5.371 6.156,5.172 2.261,-0.172 3.5,-1.255 3.885,-2.511 0.434,-1.396 -0.124,-4.525 -2.801,-5.609"
     id="path230" />
  <path
     style="fill:none;stroke:#231f20;stroke-width:0.565977;stroke-linecap:butt;stroke-linejoin:miter;stroke-miterlimit:4;stroke-dasharray:none;stroke-opacity:1"
     d="m 136.49055,80.765 -7.24,2.948 c 1.636,3.391 3.516,5.371 6.156,5.172 2.261,-0.172 3.5,-1.255 3.885,-2.511 0.434,-1.396 -0.124,-4.525 -2.801,-5.609 z"
     id="path231" />
  <path
     style="fill:#231f20;fill-opacity:1;fill-rule:nonzero;stroke:none"
     d="m 139.93355,95.093 c 0.297,-1.265 2.161,-0.452 2.682,-0.312 0.526,0.14 2.063,0.364 3.287,0.391 1.228,0.021 2.749,0.573 5.072,0.614 1.219,0.031 2.396,0.828 2.281,2.599 -0.109,1.751 -1.134,2.349 -2.614,2.104 -1.468,-0.26 -2.75,-1.12 -4.219,-1.484 -1.468,-0.36 -3,-0.588 -4.208,-0.708 -1.375,-0.141 -2.005,-0.713 -2.141,-1.172 -0.354,-1.147 -0.14,-2.032 -0.14,-2.032"
     id="path232" />
  <path
     style="fill:none;stroke:#231f20;stroke-width:0.565977;stroke-linecap:butt;stroke-linejoin:miter;stroke-miterlimit:4;stroke-dasharray:none;stroke-opacity:1"
     d="m 139.93355,95.093 c 0.297,-1.265 2.161,-0.452 2.682,-0.312 0.526,0.14 2.063,0.364 3.287,0.391 1.228,0.021 2.749,0.573 5.072,0.614 1.219,0.031 2.396,0.828 2.281,2.599 -0.109,1.751 -1.134,2.349 -2.614,2.104 -1.468,-0.26 -2.75,-1.12 -4.219,-1.484 -1.468,-0.36 -3,-0.588 -4.208,-0.708 -1.375,-0.141 -2.005,-0.713 -2.141,-1.172 -0.354,-1.147 -0.14,-2.032 -0.14,-2.032 z"
     id="path233" />
  <path
     style="fill:#231f20;fill-opacity:1;fill-rule:nonzero;stroke:none"
     d="m 118.26155,52.073 c 1.338,0.197 1.546,1.177 1.057,2.083 -0.145,0.276 0.016,0.661 -0.151,0.917 -0.38,0.593 -2.094,0.901 -2.718,-0.469 -0.043,-0.094 -0.59,-0.703 -0.934,-1.219 -0.656,-1.016 -1.494,-3.375 -0.301,-5.801 0.557,-1.142 1.131,-0.595 1.052,-0.063 -0.281,1.687 0.025,1.885 0.12,2.364 0.292,1.589 1.875,2.188 1.875,2.188"
     id="path234" />
  <path
     style="fill:none;stroke:#231f20;stroke-width:0.332927;stroke-linecap:butt;stroke-linejoin:miter;stroke-miterlimit:4;stroke-dasharray:none;stroke-opacity:1"
     d="m 118.26155,52.073 c 1.338,0.197 1.546,1.177 1.057,2.083 -0.145,0.276 0.016,0.661 -0.151,0.917 -0.38,0.593 -2.094,0.901 -2.718,-0.469 -0.043,-0.094 -0.59,-0.703 -0.934,-1.219 -0.656,-1.016 -1.494,-3.375 -0.301,-5.801 0.557,-1.142 1.131,-0.595 1.052,-0.063 -0.281,1.687 0.025,1.885 0.12,2.364 0.292,1.589 1.875,2.188 1.875,2.188 z"
     id="path235" />
  <path
     style="fill:none;stroke:#231f20;stroke-width:0.49806;stroke-linecap:butt;stroke-linejoin:miter;stroke-miterlimit:4;stroke-dasharray:none;stroke-opacity:1"
     d="m 146.87555,76.145 c 8.522,-37.219 -32.254,12.5 -32.254,12.5"
     id="path236" />
  <path
     style="fill:#231f20;fill-opacity:1;fill-rule:nonzero;stroke:none"
     d="m 113.66755,89.808 c 0.244,-0.715 0.454,-1.678 0.432,-2.402 l 0.646,1.088 1.188,0.418 c -0.714,0.12 -1.615,0.514 -2.266,0.896"
     id="path237" />
</svg>
