<?xml version="1.0" encoding="UTF-8" standalone="no"?>
<!-- Created with Inkscape (http://www.inkscape.org/) -->

<svg
   version="1.1"
   id="svg1"
   width="268.07947"
   height="169.37259"
   viewBox="0 0 268.07945 169.37258"
   sodipodi:docname="cell.svg"
   xmlns:inkscape="http://www.inkscape.org/namespaces/inkscape"
   xmlns:sodipodi="http://sodipodi.sourceforge.net/DTD/sodipodi-0.dtd"
   xmlns="http://www.w3.org/2000/svg"
   xmlns:svg="http://www.w3.org/2000/svg">
  <sodipodi:namedview
     id="namedview1"
     pagecolor="#ffffff"
     bordercolor="#000000"
     borderopacity="0.25"
     inkscape:showpageshadow="2"
     inkscape:pageopacity="0.0"
     inkscape:pagecheckerboard="0"
     inkscape:deskcolor="#d1d1d1">
    <inkscape:page
       x="0"
       y="0"
       inkscape:label="1"
       id="page1"
       width="268.07944"
       height="169.37257"
       margin="0"
       bleed="0" />
  </sodipodi:namedview>
  <defs
     id="defs1" />
  <path
     style="fill:#ffffff;fill-opacity:1;fill-rule:nonzero;stroke:none"
     d="m 34.372644,117.8335 c 0.09,-0.23 1.23,-0.12 1.318,-0.642 0.089,-0.514 -0.63,-0.838 -1.167,-2.754 l -0.009,-0.022 c -0.339,-1.41 -1.215,-2.494 -2.428,-2.801 -2.011,-0.516 -4.208,1.287 -4.906,4.025 -0.693,2.74 0.375,5.371 2.386,5.88 1.926,0.495 4.02,-1.14 4.806,-3.686"
     id="path207" />
  <path
     style="fill:none;stroke:#231f20;stroke-width:0.565977;stroke-linecap:butt;stroke-linejoin:miter;stroke-miterlimit:4;stroke-dasharray:none;stroke-opacity:1"
     d="m 34.372644,117.8335 c 0.09,-0.23 1.23,-0.12 1.318,-0.642 0.089,-0.514 -0.63,-0.838 -1.167,-2.754 l -0.009,-0.022 c -0.339,-1.41 -1.215,-2.494 -2.428,-2.801 -2.011,-0.516 -4.208,1.287 -4.906,4.025 -0.693,2.74 0.375,5.371 2.386,5.88 1.926,0.495 4.02,-1.14 4.806,-3.686 z"
     id="path208" />
  <path
     style="fill:#fab41d;fill-opacity:1;fill-rule:nonzero;stroke:none"
     d="m 19.935644,131.7865 c -1.959,2.448 -2.651,2.755 -3.464,3.192 -5.092998,2.724 -3.660998,5.177 -1.119,6.546 2.984,1.604 4.02,2.246 7.474,-3.02 0.964,-1.464 5.38,-6.599 5.38,-6.599 1.828,-1.624 2.745,-4.187 2.317,-5.578 -0.452,-1.464 -0.38,-0.854 -1.047,-2.136 -0.634,-1.218 -2.489,-2.38 -3.666,-2.005 -1.13,0.36 -1.511,1.98 -2.364,4.251 -0.672,1.786 -3.511,5.349 -3.511,5.349"
     id="path209" />
  <path
     style="fill:none;stroke:#231f20;stroke-width:0.565977;stroke-linecap:butt;stroke-linejoin:miter;stroke-miterlimit:4;stroke-dasharray:none;stroke-opacity:1"
     d="m 19.935644,131.7865 c -1.959,2.448 -2.651,2.755 -3.464,3.192 -5.092998,2.724 -3.660998,5.177 -1.119,6.546 2.984,1.604 4.02,2.246 7.474,-3.02 0.964,-1.464 5.38,-6.599 5.38,-6.599 1.828,-1.624 2.745,-4.187 2.317,-5.578 -0.452,-1.464 -0.38,-0.854 -1.047,-2.136 -0.634,-1.218 -2.489,-2.38 -3.666,-2.005 -1.13,0.36 -1.511,1.98 -2.364,4.251 -0.672,1.786 -3.511,5.349 -3.511,5.349 z"
     id="path210" />
  <path
     style="fill:#231f20;fill-opacity:1;fill-rule:nonzero;stroke:none"
     d="m 6.7636458,131.3745 c 0.365,-0.531 2.245,-1.027 3.5270002,-2.005 0.858,-0.656 3.536,-1.287 4.342,-2.011 0.745998,-0.656 1.146998,-0.891 2.047998,-0.167 0.536,0.423 1.282,1.595 0.984,2.006 -0.702,0.958 -1.516,1.448 -2.526,1.797 -1.145998,0.391 -4.363998,1.183 -4.967998,1.276 -1.5060002,0.219 -2.0160002,0.76 -2.4070002,0.853 -0.744,0.183 -0.989,-0.052 -1.213,-0.504 -0.422,-0.865 0.213,-1.245 0.213,-1.245"
     id="path211" />
  <path
     style="fill:none;stroke:#231f20;stroke-width:0.565977;stroke-linecap:butt;stroke-linejoin:miter;stroke-miterlimit:4;stroke-dasharray:none;stroke-opacity:1"
     d="m 6.7636458,131.3745 c 0.365,-0.531 2.245,-1.027 3.5270002,-2.005 0.858,-0.656 3.536,-1.287 4.342,-2.011 0.745998,-0.656 1.146998,-0.891 2.047998,-0.167 0.536,0.423 1.282,1.595 0.984,2.006 -0.702,0.958 -1.516,1.448 -2.526,1.797 -1.145998,0.391 -4.363998,1.183 -4.967998,1.276 -1.5060002,0.219 -2.0160002,0.76 -2.4070002,0.853 -0.744,0.183 -0.989,-0.052 -1.213,-0.504 -0.422,-0.865 0.213,-1.245 0.213,-1.245 z"
     id="path212" />
  <path
     style="fill:#231f20;fill-opacity:1;fill-rule:nonzero;stroke:none"
     d="m 15.107644,127.8435 c -0.368998,-1.24 1.651,-1.458 2.177,-1.6 0.526,-0.134 1.974,-0.702 3.047,-1.285 1.077,-0.589 2.672,-0.86 4.713,-1.969 1.074,-0.588 2.49,-0.475 3.271,1.12 0.771,1.577 0.172,2.609 -1.235,3.114 -1.405,0.511 -2.942,0.402 -4.394,0.812 -1.454,0.412 -2.896,0.975 -4.006,1.464 -1.266,0.563 -2.1,0.37 -2.448,0.042 -0.876,-0.818 -1.125,-1.698 -1.125,-1.698"
     id="path213" />
  <path
     style="fill:none;stroke:#231f20;stroke-width:0.565977;stroke-linecap:butt;stroke-linejoin:miter;stroke-miterlimit:4;stroke-dasharray:none;stroke-opacity:1"
     d="m 15.107644,127.8435 c -0.368998,-1.24 1.651,-1.458 2.177,-1.6 0.526,-0.134 1.974,-0.702 3.047,-1.285 1.077,-0.589 2.672,-0.86 4.713,-1.969 1.074,-0.588 2.49,-0.475 3.271,1.12 0.771,1.577 0.172,2.609 -1.235,3.114 -1.405,0.511 -2.942,0.402 -4.394,0.812 -1.454,0.412 -2.896,0.975 -4.006,1.464 -1.266,0.563 -2.1,0.37 -2.448,0.042 -0.876,-0.818 -1.125,-1.698 -1.125,-1.698 z"
     id="path214" />
  <path
     style="fill:#231f20;fill-opacity:1;fill-rule:nonzero;stroke:none"
     d="m 0.32664576,133.9995 c 0.53,-0.489 3.53600004,-1.74 4.23400004,-1.994 0.626,-0.235 1.531,-0.948 2.359,-0.142 0.328,0.323 0.595,1.038 0.615,1.355 0.026,0.255 -0.235,0.463 -0.62,0.563 -0.64,0.172 -0.891,-0.032 -2.146,0.224 0,0 -0.302,0.02 -0.849,0.014 -1.635,-0.014 -0.911,-0.161 -3.28100004,0.35 -0.172,0.036 -0.328,-0.104 -0.339,-0.224 -0.025,-0.178 0.027,-0.146 0.027,-0.146"
     id="path215" />
  <path
     style="fill:none;stroke:#231f20;stroke-width:0.565977;stroke-linecap:round;stroke-linejoin:round;stroke-miterlimit:4;stroke-dasharray:none;stroke-opacity:1"
     d="m 0.32664576,133.9995 c 0.53,-0.489 3.53600004,-1.74 4.23400004,-1.994 0.626,-0.235 1.531,-0.948 2.359,-0.142 0.328,0.323 0.595,1.038 0.615,1.355 0.026,0.255 -0.235,0.463 -0.62,0.563 -0.64,0.172 -0.891,-0.032 -2.146,0.224 0,0 -0.302,0.02 -0.849,0.014 -1.635,-0.014 -0.911,-0.161 -3.28100004,0.35 -0.172,0.036 -0.328,-0.104 -0.339,-0.224 -0.025,-0.178 0.027,-0.146 0.027,-0.146 z"
     id="path216" />
  <path
     style="fill:#231f20;fill-opacity:1;fill-rule:nonzero;stroke:none"
     d="m 33.060644,148.6395 c -1.781,-1.396 -2.318,-1.427 -2.964,-0.719 -0.421,0.475 -0.978,0.771 -1.254,1.047 -0.912,0.928 -2.063,2.849 -3.907,9.172 -0.416,1.437 -1.011,3.448 -1.323,4.245 -0.489,1.266 1.943,1.224 2.14,0.73 0.642,-1.59 1.204,-2.636 1.511,-3.178 0.213,-0.374 0.495,-1.084 1.495,-2.412 1.521,-2.014 2.734,-3.005 3.802,-4.828 0.495,-0.849 1.406,-1.172 1.468,-2.249 0.068,-1.084 -0.968,-1.808 -0.968,-1.808"
     id="path217" />
  <path
     style="fill:none;stroke:#231f20;stroke-width:0.565977;stroke-linecap:butt;stroke-linejoin:miter;stroke-miterlimit:4;stroke-dasharray:none;stroke-opacity:1"
     d="m 33.060644,148.6395 c -1.781,-1.396 -2.318,-1.427 -2.964,-0.719 -0.421,0.475 -0.978,0.771 -1.254,1.047 -0.912,0.928 -2.063,2.849 -3.907,9.172 -0.416,1.437 -1.011,3.448 -1.323,4.245 -0.489,1.266 1.943,1.224 2.14,0.73 0.642,-1.59 1.204,-2.636 1.511,-3.178 0.213,-0.374 0.495,-1.084 1.495,-2.412 1.521,-2.014 2.734,-3.005 3.802,-4.828 0.495,-0.849 1.406,-1.172 1.468,-2.249 0.068,-1.084 -0.968,-1.808 -0.968,-1.808 z"
     id="path218" />
  <path
     style="fill:#231f20;fill-opacity:1;fill-rule:nonzero;stroke:#231f20;stroke-width:0.565977;stroke-linecap:round;stroke-linejoin:miter;stroke-miterlimit:4;stroke-dasharray:none;stroke-opacity:1"
     d="m 33.638644,149.9675 c -0.13,-1.343 -1.968,-2.187 -2.176,-2.432 -3.21,-3.855 -3.538,-4.047 -6.188,-6.807 -3.823,-3.985 -7.058,-6.13 -10.031,-4.584 -2.010998,1.052 -2.719998,2.532 -2.583998,3.844 0.151,1.448 1.901,4.104 4.786998,4.052 l 1.473,0.87 c 0.917,0.718 1.376,1.068 1.797,1.458 0.74,0.678 1.574,1.355 3.083,2.594 2.688,2.204 6.245,3.657 6.245,3.657 0.246,0.187 0.516,0.255 0.792,0.239"
     id="path219" />
  <path
     style="fill:#fab41d;fill-opacity:1;fill-rule:nonzero;stroke:none"
     d="m 15.243644,136.1445 c -2.010998,1.052 -2.719998,2.532 -2.583998,3.844 0.151,1.448 1.901,4.104 4.786998,4.052 l 5.489,-5.568 c -2.833,-2.467 -5.344,-3.546 -7.692,-2.328"
     id="path220" />
  <path
     style="fill:none;stroke:#231f20;stroke-width:0.565977;stroke-linecap:round;stroke-linejoin:round;stroke-miterlimit:4;stroke-dasharray:none;stroke-opacity:1"
     d="m 15.243644,136.1445 c -2.010998,1.052 -2.719998,2.532 -2.583998,3.844 0.151,1.448 1.901,4.104 4.786998,4.052 l 5.489,-5.568 c -2.833,-2.467 -5.344,-3.546 -7.692,-2.328 z"
     id="path221" />
  <path
     style="fill:#231f20;fill-opacity:1;fill-rule:nonzero;stroke:none"
     d="m 22.342644,165.3685 c -0.928,-0.562 -0.126,-1.521 0.656,-2.468 0.192,-0.24 0.354,-0.485 0.568,-0.698 0.848,-0.886 1.88,-1.079 2.536,1.844 0.026,0.109 1.093,2.021 1.478,2.505 1.871,2.323 2.454,1.713 1.871,2.323 -0.38,0.406 -0.833,0.177 -1.385,-0.126 -0.756,-0.401 -3.287,-2.062 -3.688,-2.292 -0.391,-0.218 -2.036,-1.088 -2.036,-1.088"
     id="path222" />
  <path
     style="fill:none;stroke:#231f20;stroke-width:0.565977;stroke-linecap:butt;stroke-linejoin:miter;stroke-miterlimit:4;stroke-dasharray:none;stroke-opacity:1"
     d="m 22.342644,165.3685 c -0.928,-0.562 -0.126,-1.521 0.656,-2.468 0.192,-0.24 0.354,-0.485 0.568,-0.698 0.848,-0.886 1.88,-1.079 2.536,1.844 0.026,0.109 1.093,2.021 1.478,2.505 1.871,2.323 2.454,1.713 1.871,2.323 -0.38,0.406 -0.833,0.177 -1.385,-0.126 -0.756,-0.401 -3.287,-2.062 -3.688,-2.292 -0.391,-0.218 -2.036,-1.088 -2.036,-1.088 z"
     id="path224" />
  <path
     style="fill:#ffffff;fill-opacity:1;fill-rule:nonzero;stroke:none"
     d="m 170.22764,117.8335 c -0.09,-0.23 -1.235,-0.12 -1.318,-0.642 -0.089,-0.514 0.63,-0.838 1.166,-2.754 l 0.01,-0.022 c 0.339,-1.41 1.214,-2.494 2.428,-2.801 2.01,-0.516 4.208,1.287 4.9,4.025 0.699,2.74 -0.369,5.371 -2.38,5.88 -1.926,0.495 -4.025,-1.14 -4.806,-3.686"
     id="path226" />
  <path
     style="fill:none;stroke:#231f20;stroke-width:0.565977;stroke-linecap:butt;stroke-linejoin:miter;stroke-miterlimit:4;stroke-dasharray:none;stroke-opacity:1"
     d="m 170.22764,117.8335 c -0.09,-0.23 -1.235,-0.12 -1.318,-0.642 -0.089,-0.514 0.63,-0.838 1.166,-2.754 l 0.01,-0.022 c 0.339,-1.41 1.214,-2.494 2.428,-2.801 2.01,-0.516 4.208,1.287 4.9,4.025 0.699,2.74 -0.369,5.371 -2.38,5.88 -1.926,0.495 -4.025,-1.14 -4.806,-3.686 z"
     id="path227" />
  <path
     style="fill:#fab41d;fill-opacity:1;fill-rule:nonzero;stroke:none"
     d="m 184.66464,131.7865 c 1.959,2.448 2.651,2.755 3.459,3.192 5.098,2.724 3.666,5.177 1.124,6.546 -2.984,1.604 -4.02,2.246 -7.479,-3.02 -0.959,-1.464 -5.375,-6.599 -5.375,-6.599 -1.828,-1.624 -2.745,-4.187 -2.318,-5.578 0.453,-1.464 0.381,-0.854 1.048,-2.136 0.634,-1.218 2.484,-2.38 3.666,-2.005 1.13,0.36 1.51,1.98 2.364,4.251 0.672,1.786 3.511,5.349 3.511,5.349"
     id="path228" />
  <path
     style="fill:none;stroke:#231f20;stroke-width:0.565977;stroke-linecap:butt;stroke-linejoin:miter;stroke-miterlimit:4;stroke-dasharray:none;stroke-opacity:1"
     d="m 184.66464,131.7865 c 1.959,2.448 2.651,2.755 3.459,3.192 5.098,2.724 3.666,5.177 1.124,6.546 -2.984,1.604 -4.02,2.246 -7.479,-3.02 -0.959,-1.464 -5.375,-6.599 -5.375,-6.599 -1.828,-1.624 -2.745,-4.187 -2.318,-5.578 0.453,-1.464 0.381,-0.854 1.048,-2.136 0.634,-1.218 2.484,-2.38 3.666,-2.005 1.13,0.36 1.51,1.98 2.364,4.251 0.672,1.786 3.511,5.349 3.511,5.349 z"
     id="path229" />
  <path
     style="fill:#231f20;fill-opacity:1;fill-rule:nonzero;stroke:none"
     d="m 157.20064,128.6665 c 0.568,0.301 2.464,-0.136 4.052,0.135 1.068,0.182 3.729,-0.51 4.781,-0.25 0.964,0.239 1.428,0.255 1.891,-0.802 0.276,-0.62 0.391,-2.006 -0.063,-2.235 -1.066,-0.525 -2.014,-0.577 -3.072,-0.416 -1.198,0.193 -4.412,0.989 -4.994,1.193 -1.434,0.504 -2.131,0.266 -2.527,0.364 -0.74,0.183 -0.849,0.506 -0.833,1.011 0.026,0.959 0.765,1 0.765,1"
     id="path230" />
  <path
     style="fill:none;stroke:#231f20;stroke-width:0.565977;stroke-linecap:butt;stroke-linejoin:miter;stroke-miterlimit:4;stroke-dasharray:none;stroke-opacity:1"
     d="m 157.20064,128.6665 c 0.568,0.301 2.464,-0.136 4.052,0.135 1.068,0.182 3.729,-0.51 4.781,-0.25 0.964,0.239 1.428,0.255 1.891,-0.802 0.276,-0.62 0.391,-2.006 -0.063,-2.235 -1.066,-0.525 -2.014,-0.577 -3.072,-0.416 -1.198,0.193 -4.412,0.989 -4.994,1.193 -1.434,0.504 -2.131,0.266 -2.527,0.364 -0.74,0.183 -0.849,0.506 -0.833,1.011 0.026,0.959 0.765,1 0.765,1 z"
     id="path231" />
  <path
     style="fill:#231f20;fill-opacity:1;fill-rule:nonzero;stroke:none"
     d="m 166.23264,127.9055 c 0.249,1.272 2.14,0.521 2.672,0.401 0.525,-0.125 2.072,-0.296 3.291,-0.281 1.224,0.021 2.766,-0.479 5.089,-0.454 1.224,0.022 2.427,-0.738 2.369,-2.514 -0.052,-1.751 -1.057,-2.386 -2.541,-2.183 -1.484,0.203 -2.787,1.021 -4.265,1.333 -1.486,0.312 -3.016,0.484 -4.23,0.568 -1.38,0.094 -2.026,0.651 -2.182,1.104 -0.396,1.131 -0.203,2.026 -0.203,2.026"
     id="path232" />
  <path
     style="fill:none;stroke:#231f20;stroke-width:0.565977;stroke-linecap:butt;stroke-linejoin:miter;stroke-miterlimit:4;stroke-dasharray:none;stroke-opacity:1"
     d="m 166.23264,127.9055 c 0.249,1.272 2.14,0.521 2.672,0.401 0.525,-0.125 2.072,-0.296 3.291,-0.281 1.224,0.021 2.766,-0.479 5.089,-0.454 1.224,0.022 2.427,-0.738 2.369,-2.514 -0.052,-1.751 -1.057,-2.386 -2.541,-2.183 -1.484,0.203 -2.787,1.021 -4.265,1.333 -1.486,0.312 -3.016,0.484 -4.23,0.568 -1.38,0.094 -2.026,0.651 -2.182,1.104 -0.396,1.131 -0.203,2.026 -0.203,2.026 z"
     id="path233" />
  <path
     style="fill:#231f20;fill-opacity:1;fill-rule:nonzero;stroke:none"
     d="m 150.28464,129.3435 c 0.697,0.187 3.937,-0.109 4.677,-0.209 0.662,-0.083 1.791,0.125 2.151,-0.973 0.135,-0.443 0.041,-1.194 -0.084,-1.484 -0.099,-0.24 -0.427,-0.303 -0.812,-0.21 -0.651,0.147 -0.776,0.443 -2.005,0.798 0,0 -0.276,0.125 -0.76,0.385 -1.438,0.776 -0.735,0.568 -3.063,1.219 -0.172,0.046 -0.245,0.245 -0.199,0.354 0.063,0.167 0.095,0.12 0.095,0.12"
     id="path234" />
  <path
     style="fill:none;stroke:#231f20;stroke-width:0.565977;stroke-linecap:round;stroke-linejoin:round;stroke-miterlimit:4;stroke-dasharray:none;stroke-opacity:1"
     d="m 150.28464,129.3435 c 0.697,0.187 3.937,-0.109 4.677,-0.209 0.662,-0.083 1.791,0.125 2.151,-0.973 0.135,-0.443 0.041,-1.194 -0.084,-1.484 -0.099,-0.24 -0.427,-0.303 -0.812,-0.21 -0.651,0.147 -0.776,0.443 -2.005,0.798 0,0 -0.276,0.125 -0.76,0.385 -1.438,0.776 -0.735,0.568 -3.063,1.219 -0.172,0.046 -0.245,0.245 -0.199,0.354 0.063,0.167 0.095,0.12 0.095,0.12 z"
     id="path235" />
  <path
     style="fill:#231f20;fill-opacity:1;fill-rule:nonzero;stroke:none"
     d="m 171.53964,148.6395 c 1.781,-1.396 2.317,-1.427 2.958,-0.719 0.427,0.475 0.984,0.771 1.26,1.047 0.912,0.928 2.063,2.849 3.902,9.172 0.416,1.437 1.016,3.448 1.328,4.245 0.489,1.266 -1.943,1.224 -2.14,0.73 -0.642,-1.59 -1.21,-2.636 -1.511,-3.178 -0.213,-0.374 -0.5,-1.084 -1.5,-2.412 -1.516,-2.014 -2.729,-3.005 -3.797,-4.828 -0.495,-0.849 -1.407,-1.172 -1.468,-2.249 -0.068,-1.084 0.968,-1.808 0.968,-1.808"
     id="path236" />
  <path
     style="fill:none;stroke:#231f20;stroke-width:0.565977;stroke-linecap:butt;stroke-linejoin:miter;stroke-miterlimit:4;stroke-dasharray:none;stroke-opacity:1"
     d="m 171.53964,148.6395 c 1.781,-1.396 2.317,-1.427 2.958,-0.719 0.427,0.475 0.984,0.771 1.26,1.047 0.912,0.928 2.063,2.849 3.902,9.172 0.416,1.437 1.016,3.448 1.328,4.245 0.489,1.266 -1.943,1.224 -2.14,0.73 -0.642,-1.59 -1.21,-2.636 -1.511,-3.178 -0.213,-0.374 -0.5,-1.084 -1.5,-2.412 -1.516,-2.014 -2.729,-3.005 -3.797,-4.828 -0.495,-0.849 -1.407,-1.172 -1.468,-2.249 -0.068,-1.084 0.968,-1.808 0.968,-1.808 z"
     id="path237" />
  <path
     style="fill:#231f20;fill-opacity:1;fill-rule:nonzero;stroke:#231f20;stroke-width:0.565977;stroke-linecap:round;stroke-linejoin:miter;stroke-miterlimit:4;stroke-dasharray:none;stroke-opacity:1"
     d="m 170.96164,149.9675 c 0.13,-1.343 1.968,-2.187 2.176,-2.432 3.21,-3.855 3.538,-4.047 6.183,-6.807 3.828,-3.985 7.063,-6.13 10.036,-4.584 2.011,1.052 2.719,2.532 2.584,3.844 -0.151,1.448 -1.901,4.104 -4.787,4.052 l -1.473,0.87 c -0.917,0.718 -1.376,1.068 -1.803,1.458 -0.734,0.678 -1.568,1.355 -3.078,2.594 -2.687,2.204 -6.25,3.657 -6.25,3.657 -0.24,0.187 -0.516,0.255 -0.786,0.239"
     id="path238" />
  <path
     style="fill:#fab41d;fill-opacity:1;fill-rule:nonzero;stroke:none"
     d="m 189.35664,136.1445 c -2.348,-1.218 -4.859,-0.139 -7.692,2.328 l 5.489,5.568 c 2.886,0.052 4.636,-2.604 4.787,-4.052 0.135,-1.312 -0.573,-2.792 -2.584,-3.844"
     id="path239" />
  <path
     style="fill:none;stroke:#231f20;stroke-width:0.565977;stroke-linecap:round;stroke-linejoin:round;stroke-miterlimit:4;stroke-dasharray:none;stroke-opacity:1"
     d="m 189.35664,136.1445 c -2.348,-1.218 -4.859,-0.139 -7.692,2.328 l 5.489,5.568 c 2.886,0.052 4.636,-2.604 4.787,-4.052 0.135,-1.312 -0.573,-2.792 -2.584,-3.844 z"
     id="path240" />
  <path
     style="fill:#231f20;fill-opacity:1;fill-rule:nonzero;stroke:none"
     d="m 182.25764,165.3685 c 0.928,-0.562 0.12,-1.521 -0.656,-2.468 -0.193,-0.24 -0.358,-0.485 -0.568,-0.698 -0.848,-0.886 -1.88,-1.079 -2.536,1.844 -0.026,0.109 -1.093,2.021 -1.484,2.505 -1.87,2.323 -2.448,1.713 -1.87,2.323 0.385,0.406 0.838,0.177 1.39,-0.126 0.756,-0.401 3.287,-2.062 3.688,-2.292 0.391,-0.218 2.036,-1.088 2.036,-1.088"
     id="path241" />
  <path
     style="fill:none;stroke:#231f20;stroke-width:0.565977;stroke-linecap:butt;stroke-linejoin:miter;stroke-miterlimit:4;stroke-dasharray:none;stroke-opacity:1"
     d="m 182.25764,165.3685 c 0.928,-0.562 0.12,-1.521 -0.656,-2.468 -0.193,-0.24 -0.358,-0.485 -0.568,-0.698 -0.848,-0.886 -1.88,-1.079 -2.536,1.844 -0.026,0.109 -1.093,2.021 -1.484,2.505 -1.87,2.323 -2.448,1.713 -1.87,2.323 0.385,0.406 0.838,0.177 1.39,-0.126 0.756,-0.401 3.287,-2.062 3.688,-2.292 0.391,-0.218 2.036,-1.088 2.036,-1.088 z"
     id="path243" />
  <path
     style="fill:#fab41d;fill-opacity:1;fill-rule:nonzero;stroke:none"
     d="m 129.91364,97.1775 c 1.412,2.796 2.022,3.249 2.719,3.842 4.412,3.74 2.491,5.834 -0.276,6.636 -3.255,0.948 -4.405,1.355 -6.676,-4.516 -0.63,-1.634 -3.876,-7.582 -3.876,-7.582 -1.448,-1.975 -1.806,-4.672 -1.098,-5.938 0.75,-1.344 0.557,-0.761 1.469,-1.86 0.88,-1.068 2.937,-1.812 4.011,-1.202 1.03,0.588 1.061,2.26 1.421,4.65 0.286,1.891 2.306,5.97 2.306,5.97"
     id="path245" />
  <path
     style="fill:none;stroke:#231f20;stroke-width:0.565977;stroke-linecap:butt;stroke-linejoin:miter;stroke-miterlimit:4;stroke-dasharray:none;stroke-opacity:1"
     d="m 129.91364,97.1775 c 1.412,2.796 2.022,3.249 2.719,3.842 4.412,3.74 2.491,5.834 -0.276,6.636 -3.255,0.948 -4.405,1.355 -6.676,-4.516 -0.63,-1.634 -3.876,-7.582 -3.876,-7.582 -1.448,-1.975 -1.806,-4.672 -1.098,-5.938 0.75,-1.344 0.557,-0.761 1.469,-1.86 0.88,-1.068 2.937,-1.812 4.011,-1.202 1.03,0.588 1.061,2.26 1.421,4.65 0.286,1.891 2.306,5.97 2.306,5.97 z"
     id="path246" />
  <path
     style="fill:#ffffff;fill-opacity:1;fill-rule:nonzero;stroke:none"
     d="m 117.19064,83.6255 c -0.13,-0.21 -1.224,0.17 -1.432,-0.314 -0.208,-0.489 0.428,-0.968 0.494,-2.953 l 0.006,-0.025 c 0.005,-1.4484 0.594,-2.7137 1.704,-3.2977 1.842,-0.964 4.394,0.276 5.708,2.7707 1.322,2.505 0.89,5.313 -0.943,6.281 -1.756,0.932 -4.183,-0.172 -5.537,-2.462"
     id="path247" />
  <path
     style="fill:none;stroke:#231f20;stroke-width:0.565977;stroke-linecap:butt;stroke-linejoin:miter;stroke-miterlimit:4;stroke-dasharray:none;stroke-opacity:1"
     d="m 117.19064,83.6255 c -0.13,-0.21 -1.224,0.17 -1.432,-0.314 -0.208,-0.489 0.428,-0.968 0.494,-2.953 l 0.006,-0.025 c 0.005,-1.4484 0.594,-2.7137 1.704,-3.2977 1.842,-0.964 4.394,0.276 5.708,2.7707 1.322,2.505 0.89,5.313 -0.943,6.281 -1.756,0.932 -4.183,-0.172 -5.537,-2.462 z"
     id="path248" />
  <path
     style="fill:#231f20;fill-opacity:1;fill-rule:nonzero;stroke:none"
     d="m 138.38864,123.5675 c 1.968,-1.105 2.505,-1.053 3.02,-0.25 0.355,0.541 0.86,0.912 1.089,1.229 0.76,1.047 1.599,3.135 2.448,9.661 0.187,1.479 0.479,3.557 0.662,4.396 0.281,1.323 -2.115,0.911 -2.235,0.385 -0.385,-1.672 -0.787,-2.781 -1,-3.369 -0.151,-0.401 -0.323,-1.141 -1.115,-2.609 -1.186,-2.229 -2.234,-3.391 -3.005,-5.36 -0.359,-0.912 -1.213,-1.369 -1.099,-2.448 0.09,-1.079 1.235,-1.635 1.235,-1.635"
     id="path249" />
  <path
     style="fill:none;stroke:#231f20;stroke-width:0.565977;stroke-linecap:butt;stroke-linejoin:miter;stroke-miterlimit:4;stroke-dasharray:none;stroke-opacity:1"
     d="m 138.38864,123.5675 c 1.968,-1.105 2.505,-1.053 3.02,-0.25 0.355,0.541 0.86,0.912 1.089,1.229 0.76,1.047 1.599,3.135 2.448,9.661 0.187,1.479 0.479,3.557 0.662,4.396 0.281,1.323 -2.115,0.911 -2.235,0.385 -0.385,-1.672 -0.787,-2.781 -1,-3.369 -0.151,-0.401 -0.323,-1.141 -1.115,-2.609 -1.186,-2.229 -2.234,-3.391 -3.005,-5.36 -0.359,-0.912 -1.213,-1.369 -1.099,-2.448 0.09,-1.079 1.235,-1.635 1.235,-1.635 z"
     id="path250" />
  <path
     style="fill:#231f20;fill-opacity:1;fill-rule:nonzero;stroke:#231f20;stroke-width:0.565977;stroke-linecap:round;stroke-linejoin:round;stroke-miterlimit:4;stroke-dasharray:none;stroke-opacity:1"
     d="m 137.80464,126.0055 c -1.359,-0.391 -1.681,-2.522 -1.869,-2.803 -2.844,-4.135 -2.938,-4.505 -4.87,-7.797 -2.802,-4.771 -3.985,-8.468 -1.688,-10.906 1.563,-1.652 3.172,-1.928 4.402,-1.442 1.349,0.541 3.426,2.948 2.593,5.708 l 0.448,1.656 c 0.437,1.078 0.645,1.609 0.901,2.125 0.454,0.891 0.886,1.88 1.672,3.677 1.38,3.182 1.812,7 1.812,7 0.12,0.287 0.11,0.567 0.027,0.823"
     id="path251" />
  <path
     style="fill:#fab41d;fill-opacity:1;fill-rule:nonzero;stroke:none"
     d="m 133.38864,102.8745 c -1.219,-0.484 -2.833,-0.197 -4.385,1.459 -1.814,1.932 -1.448,4.64 0.177,8.03 l 6.828,-3.792 c 0.833,-2.765 -1.261,-5.166 -2.62,-5.697"
     id="path252" />
  <path
     style="fill:none;stroke:#231f20;stroke-width:0.565977;stroke-linecap:butt;stroke-linejoin:miter;stroke-miterlimit:4;stroke-dasharray:none;stroke-opacity:1"
     d="m 133.38864,102.8745 c -1.219,-0.484 -2.833,-0.197 -4.385,1.459 -1.814,1.932 -1.448,4.64 0.177,8.03 l 6.828,-3.792 c 0.833,-2.765 -1.261,-5.166 -2.62,-5.697 z"
     id="path253" />
  <path
     style="fill:#231f20;fill-opacity:1;fill-rule:nonzero;stroke:none"
     d="m 114.09664,72.1918 c -0.093,0.636 0.943,2.2867 1.219,3.8707 0.188,1.072 1.708,3.348 1.817,4.427 0.1,0.994 0.235,1.432 1.382,1.521 0.681,0.052 2.025,-0.297 2.082,-0.803 0.146,-1.1824 -0.114,-2.093 -0.62,-3.0304 -0.577,-1.0733 -2.39,-3.8439 -2.77,-4.3239 -0.954,-1.1867 -0.959,-1.9214 -1.178,-2.26 -0.421,-0.64 -0.77,-0.6347 -1.238,-0.4587 -0.902,0.3493 -0.694,1.0573 -0.694,1.0573"
     id="path254" />
  <path
     style="fill:none;stroke:#231f20;stroke-width:0.565977;stroke-linecap:butt;stroke-linejoin:miter;stroke-miterlimit:4;stroke-dasharray:none;stroke-opacity:1"
     d="m 114.09664,72.1918 c -0.093,0.636 0.943,2.2867 1.219,3.8707 0.188,1.072 1.708,3.348 1.817,4.427 0.1,0.994 0.235,1.432 1.382,1.521 0.681,0.052 2.025,-0.297 2.082,-0.803 0.146,-1.1824 -0.114,-2.093 -0.62,-3.0304 -0.577,-1.0733 -2.39,-3.8439 -2.77,-4.3239 -0.954,-1.1867 -0.959,-1.9214 -1.178,-2.26 -0.421,-0.64 -0.77,-0.6347 -1.238,-0.4587 -0.902,0.3493 -0.694,1.0573 -0.694,1.0573 z"
     id="path255" />
  <path
     style="fill:#231f20;fill-opacity:1;fill-rule:nonzero;stroke:none"
     d="m 117.80464,80.4625 c -1.114,0.657 0.219,2.193 0.506,2.647 0.297,0.462 0.969,1.864 1.354,3.025 0.391,1.161 1.375,2.448 2.11,4.652 0.396,1.156 1.505,2.041 3.161,1.4 1.641,-0.629 1.906,-1.791 1.224,-3.124 -0.683,-1.328 -1.891,-2.292 -2.672,-3.584 -0.787,-1.292 -1.464,-2.683 -1.937,-3.801 -0.547,-1.272 -1.282,-1.699 -1.76,-1.6884 -1.199,0 -1.986,0.4734 -1.986,0.4734"
     id="path256" />
  <path
     style="fill:none;stroke:#231f20;stroke-width:0.565977;stroke-linecap:butt;stroke-linejoin:miter;stroke-miterlimit:4;stroke-dasharray:none;stroke-opacity:1"
     d="m 117.80464,80.4625 c -1.114,0.657 0.219,2.193 0.506,2.647 0.297,0.462 0.969,1.864 1.354,3.025 0.391,1.161 1.375,2.448 2.11,4.652 0.396,1.156 1.505,2.041 3.161,1.4 1.641,-0.629 1.906,-1.791 1.224,-3.124 -0.683,-1.328 -1.891,-2.292 -2.672,-3.584 -0.787,-1.292 -1.464,-2.683 -1.937,-3.801 -0.547,-1.272 -1.282,-1.699 -1.76,-1.6884 -1.199,0 -1.986,0.4734 -1.986,0.4734 z"
     id="path257" />
  <path
     style="fill:#231f20;fill-opacity:1;fill-rule:nonzero;stroke:none"
     d="m 113.44664,65.4732 c -0.266,0.6826 -0.323,3.932 -0.298,4.6773 0.022,0.6613 -0.317,1.7707 0.746,2.2347 0.416,0.1973 1.177,0.172 1.478,0.0826 0.256,-0.0773 0.339,-0.3906 0.292,-0.7813 -0.068,-0.6613 -0.354,-0.828 -0.578,-2.0827 0,0 -0.094,-0.292 -0.307,-0.792 -0.609,-1.516 -0.484,-0.792 -0.885,-3.1866 -0.027,-0.1627 -0.214,-0.256 -0.323,-0.2347 -0.177,0.0467 -0.125,0.0827 -0.125,0.0827"
     id="path258" />
  <path
     style="fill:none;stroke:#231f20;stroke-width:0.565977;stroke-linecap:round;stroke-linejoin:round;stroke-miterlimit:4;stroke-dasharray:none;stroke-opacity:1"
     d="m 113.44664,65.4732 c -0.266,0.6826 -0.323,3.932 -0.298,4.6773 0.022,0.6613 -0.317,1.7707 0.746,2.2347 0.416,0.1973 1.177,0.172 1.478,0.0826 0.256,-0.0773 0.339,-0.3906 0.292,-0.7813 -0.068,-0.6613 -0.354,-0.828 -0.578,-2.0827 0,0 -0.094,-0.292 -0.307,-0.792 -0.609,-1.516 -0.484,-0.792 -0.885,-3.1866 -0.027,-0.1627 -0.214,-0.256 -0.323,-0.2347 -0.177,0.0467 -0.125,0.0827 -0.125,0.0827 z"
     id="path259" />
  <path
     style="fill:#231f20;fill-opacity:1;fill-rule:nonzero;stroke:none"
     d="m 146.96564,140.7485 c 0.683,-1.172 0.054,-1.942 -0.962,-2.129 -0.303,-0.057 -0.506,-0.428 -0.808,-0.459 -0.703,-0.073 -2.015,1.074 -1.339,2.416 0.048,0.095 0.183,0.902 0.371,1.491 0.38,1.151 1.697,3.276 4.328,3.869 1.244,0.282 1.177,-0.51 0.713,-0.781 -1.489,-0.833 -1.453,-1.203 -1.771,-1.573 -1.057,-1.23 -0.532,-2.834 -0.532,-2.834"
     id="path260" />
  <path
     style="fill:none;stroke:#231f20;stroke-width:0.332927;stroke-linecap:butt;stroke-linejoin:miter;stroke-miterlimit:4;stroke-dasharray:none;stroke-opacity:1"
     d="m 146.96564,140.7485 c 0.683,-1.172 0.054,-1.942 -0.962,-2.129 -0.303,-0.057 -0.506,-0.428 -0.808,-0.459 -0.703,-0.073 -2.015,1.074 -1.339,2.416 0.048,0.095 0.183,0.902 0.371,1.491 0.38,1.151 1.697,3.276 4.328,3.869 1.244,0.282 1.177,-0.51 0.713,-0.781 -1.489,-0.833 -1.453,-1.203 -1.771,-1.573 -1.057,-1.23 -0.532,-2.834 -0.532,-2.834 z"
     id="path261" />
  <path
     style="fill:#fab41d;fill-opacity:1;fill-rule:nonzero;stroke:none"
     d="m 80.138644,97.1775 c -1.406,2.796 -2.015,3.249 -2.719,3.842 -4.405,3.74 -2.489,5.834 0.281,6.636 3.251,0.948 4.402,1.355 6.678,-4.516 0.63,-1.634 3.874,-7.582 3.874,-7.582 1.443,-1.975 1.808,-4.672 1.095,-5.938 -0.751,-1.344 -0.552,-0.761 -1.469,-1.86 -0.88,-1.068 -2.938,-1.812 -4.006,-1.202 -1.03,0.588 -1.068,2.26 -1.421,4.65 -0.287,1.891 -2.313,5.97 -2.313,5.97"
     id="path262" />
  <path
     style="fill:none;stroke:#231f20;stroke-width:0.565977;stroke-linecap:butt;stroke-linejoin:miter;stroke-miterlimit:4;stroke-dasharray:none;stroke-opacity:1"
     d="m 80.138644,97.1775 c -1.406,2.796 -2.015,3.249 -2.719,3.842 -4.405,3.74 -2.489,5.834 0.281,6.636 3.251,0.948 4.402,1.355 6.678,-4.516 0.63,-1.634 3.874,-7.582 3.874,-7.582 1.443,-1.975 1.808,-4.672 1.095,-5.938 -0.751,-1.344 -0.552,-0.761 -1.469,-1.86 -0.88,-1.068 -2.938,-1.812 -4.006,-1.202 -1.03,0.588 -1.068,2.26 -1.421,4.65 -0.287,1.891 -2.313,5.97 -2.313,5.97 z"
     id="path263" />
  <path
     style="fill:#ffffff;fill-opacity:1;fill-rule:nonzero;stroke:none"
     d="m 92.862644,83.6255 c 0.136,-0.21 1.229,0.17 1.437,-0.314 0.204,-0.489 -0.427,-0.968 -0.5,-2.953 v -0.025 c -0.004,-1.4484 -0.599,-2.7137 -1.708,-3.2977 -1.839,-0.964 -4.391,0.276 -5.708,2.7707 -1.317,2.505 -0.891,5.313 0.948,6.281 1.755,0.932 4.177,-0.172 5.531,-2.462"
     id="path264" />
  <path
     style="fill:none;stroke:#231f20;stroke-width:0.565977;stroke-linecap:butt;stroke-linejoin:miter;stroke-miterlimit:4;stroke-dasharray:none;stroke-opacity:1"
     d="m 92.862644,83.6255 c 0.136,-0.21 1.229,0.17 1.437,-0.314 0.204,-0.489 -0.427,-0.968 -0.5,-2.953 v -0.025 c -0.004,-1.4484 -0.599,-2.7137 -1.708,-3.2977 -1.839,-0.964 -4.391,0.276 -5.708,2.7707 -1.317,2.505 -0.891,5.313 0.948,6.281 1.755,0.932 4.177,-0.172 5.531,-2.462 z"
     id="path265" />
  <path
     style="fill:#231f20;fill-opacity:1;fill-rule:nonzero;stroke:none"
     d="m 71.670644,123.5675 c -1.975,-1.105 -2.511,-1.053 -3.027,-0.25 -0.348,0.541 -0.853,0.912 -1.083,1.229 -0.761,1.047 -1.598,3.135 -2.448,9.661 -0.193,1.479 -0.48,3.557 -0.666,4.396 -0.276,1.323 2.114,0.911 2.234,0.385 0.391,-1.672 0.786,-2.781 1.006,-3.369 0.15,-0.401 0.322,-1.141 1.109,-2.609 1.192,-2.229 2.233,-3.391 3.009,-5.36 0.36,-0.912 1.21,-1.369 1.1,-2.448 -0.094,-1.079 -1.234,-1.635 -1.234,-1.635"
     id="path266" />
  <path
     style="fill:none;stroke:#231f20;stroke-width:0.565977;stroke-linecap:butt;stroke-linejoin:miter;stroke-miterlimit:4;stroke-dasharray:none;stroke-opacity:1"
     d="m 71.670644,123.5675 c -1.975,-1.105 -2.511,-1.053 -3.027,-0.25 -0.348,0.541 -0.853,0.912 -1.083,1.229 -0.761,1.047 -1.598,3.135 -2.448,9.661 -0.193,1.479 -0.48,3.557 -0.666,4.396 -0.276,1.323 2.114,0.911 2.234,0.385 0.391,-1.672 0.786,-2.781 1.006,-3.369 0.15,-0.401 0.322,-1.141 1.109,-2.609 1.192,-2.229 2.233,-3.391 3.009,-5.36 0.36,-0.912 1.21,-1.369 1.1,-2.448 -0.094,-1.079 -1.234,-1.635 -1.234,-1.635 z"
     id="path267" />
  <path
     style="fill:#231f20;fill-opacity:1;fill-rule:nonzero;stroke:#231f20;stroke-width:0.565977;stroke-linecap:round;stroke-linejoin:round;stroke-miterlimit:4;stroke-dasharray:none;stroke-opacity:1"
     d="m 72.247644,126.0055 c 1.36,-0.391 1.688,-2.522 1.876,-2.803 2.839,-4.135 2.932,-4.505 4.869,-7.797 2.803,-4.771 3.984,-8.468 1.688,-10.906 -1.562,-1.652 -3.177,-1.928 -4.401,-1.442 -1.355,0.541 -3.432,2.948 -2.599,5.708 l -0.442,1.656 c -0.439,1.078 -0.652,1.609 -0.907,2.125 -0.453,0.891 -0.88,1.88 -1.667,3.677 -1.385,3.182 -1.817,7 -1.817,7 -0.12,0.287 -0.105,0.567 -0.021,0.823"
     id="path268" />
  <path
     style="fill:#fab41d;fill-opacity:1;fill-rule:nonzero;stroke:none"
     d="m 81.055644,104.3335 c -1.552,-1.652 -3.167,-1.943 -4.391,-1.459 -1.36,0.536 -3.448,2.932 -2.62,5.697 l 6.834,3.792 c 1.625,-3.39 1.989,-6.098 0.177,-8.03"
     id="path269" />
  <path
     style="fill:none;stroke:#231f20;stroke-width:0.565977;stroke-linecap:butt;stroke-linejoin:miter;stroke-miterlimit:4;stroke-dasharray:none;stroke-opacity:1"
     d="m 81.055644,104.3335 c -1.552,-1.652 -3.167,-1.943 -4.391,-1.459 -1.36,0.536 -3.448,2.932 -2.62,5.697 l 6.834,3.792 c 1.625,-3.39 1.989,-6.098 0.177,-8.03 z"
     id="path270" />
  <path
     style="fill:#231f20;fill-opacity:1;fill-rule:nonzero;stroke:none"
     d="m 95.962644,72.1918 c 0.088,0.636 -0.948,2.2867 -1.224,3.8707 -0.188,1.072 -1.71,3.348 -1.819,4.427 -0.093,0.994 -0.233,1.432 -1.375,1.521 -0.682,0.052 -2.025,-0.297 -2.088,-0.803 -0.141,-1.1824 0.12,-2.093 0.624,-3.0304 0.579,-1.0733 2.391,-3.8439 2.772,-4.3239 0.952,-1.1867 0.958,-1.9214 1.176,-2.26 0.418,-0.64 0.767,-0.6347 1.235,-0.4587 0.907,0.3493 0.699,1.0573 0.699,1.0573"
     id="path271" />
  <path
     style="fill:none;stroke:#231f20;stroke-width:0.565977;stroke-linecap:butt;stroke-linejoin:miter;stroke-miterlimit:4;stroke-dasharray:none;stroke-opacity:1"
     d="m 95.962644,72.1918 c 0.088,0.636 -0.948,2.2867 -1.224,3.8707 -0.188,1.072 -1.71,3.348 -1.819,4.427 -0.093,0.994 -0.233,1.432 -1.375,1.521 -0.682,0.052 -2.025,-0.297 -2.088,-0.803 -0.141,-1.1824 0.12,-2.093 0.624,-3.0304 0.579,-1.0733 2.391,-3.8439 2.772,-4.3239 0.952,-1.1867 0.958,-1.9214 1.176,-2.26 0.418,-0.64 0.767,-0.6347 1.235,-0.4587 0.907,0.3493 0.699,1.0573 0.699,1.0573 z"
     id="path272" />
  <path
     style="fill:#231f20;fill-opacity:1;fill-rule:nonzero;stroke:none"
     d="m 92.252644,80.4625 c 1.115,0.657 -0.218,2.193 -0.505,2.647 -0.296,0.462 -0.973,1.864 -1.353,3.025 -0.391,1.161 -1.375,2.448 -2.115,4.652 -0.391,1.156 -1.505,2.041 -3.156,1.4 -1.641,-0.629 -1.907,-1.791 -1.224,-3.124 0.681,-1.328 1.885,-2.292 2.672,-3.584 0.781,-1.292 1.457,-2.683 1.937,-3.801 0.542,-1.272 1.282,-1.699 1.76,-1.6884 1.198,0 1.984,0.4734 1.984,0.4734"
     id="path273" />
  <path
     style="fill:none;stroke:#231f20;stroke-width:0.565977;stroke-linecap:butt;stroke-linejoin:miter;stroke-miterlimit:4;stroke-dasharray:none;stroke-opacity:1"
     d="m 92.252644,80.4625 c 1.115,0.657 -0.218,2.193 -0.505,2.647 -0.296,0.462 -0.973,1.864 -1.353,3.025 -0.391,1.161 -1.375,2.448 -2.115,4.652 -0.391,1.156 -1.505,2.041 -3.156,1.4 -1.641,-0.629 -1.907,-1.791 -1.224,-3.124 0.681,-1.328 1.885,-2.292 2.672,-3.584 0.781,-1.292 1.457,-2.683 1.937,-3.801 0.542,-1.272 1.282,-1.699 1.76,-1.6884 1.198,0 1.984,0.4734 1.984,0.4734 z"
     id="path274" />
  <path
     style="fill:#231f20;fill-opacity:1;fill-rule:nonzero;stroke:none"
     d="m 96.612644,65.4732 c 0.26,0.6826 0.318,3.932 0.292,4.6773 -0.021,0.6613 0.318,1.7707 -0.745,2.2347 -0.412,0.1973 -1.172,0.172 -1.479,0.0826 -0.25,-0.0773 -0.338,-0.3906 -0.286,-0.7813 0.068,-0.6613 0.353,-0.828 0.572,-2.0827 0,0 0.1,-0.292 0.313,-0.792 0.609,-1.516 0.484,-0.792 0.885,-3.1866 0.022,-0.1627 0.208,-0.256 0.318,-0.2347 0.177,0.0467 0.13,0.0827 0.13,0.0827"
     id="path275" />
  <path
     style="fill:none;stroke:#231f20;stroke-width:0.565977;stroke-linecap:round;stroke-linejoin:round;stroke-miterlimit:4;stroke-dasharray:none;stroke-opacity:1"
     d="m 96.612644,65.4732 c 0.26,0.6826 0.318,3.932 0.292,4.6773 -0.021,0.6613 0.318,1.7707 -0.745,2.2347 -0.412,0.1973 -1.172,0.172 -1.479,0.0826 -0.25,-0.0773 -0.338,-0.3906 -0.286,-0.7813 0.068,-0.6613 0.353,-0.828 0.572,-2.0827 0,0 0.1,-0.292 0.313,-0.792 0.609,-1.516 0.484,-0.792 0.885,-3.1866 0.022,-0.1627 0.208,-0.256 0.318,-0.2347 0.177,0.0467 0.13,0.0827 0.13,0.0827 z"
     id="path276" />
  <path
     style="fill:#231f20;fill-opacity:1;fill-rule:nonzero;stroke:none"
     d="m 63.091644,140.7485 c -0.687,-1.172 -0.057,-1.942 0.959,-2.129 0.306,-0.057 0.505,-0.428 0.812,-0.459 0.698,-0.073 2.01,1.074 1.333,2.416 -0.047,0.095 -0.176,0.902 -0.364,1.491 -0.385,1.151 -1.699,3.276 -4.333,3.869 -1.24,0.282 -1.178,-0.51 -0.708,-0.781 1.484,-0.833 1.453,-1.203 1.765,-1.573 1.063,-1.23 0.536,-2.834 0.536,-2.834"
     id="path277" />
  <path
     style="fill:none;stroke:#231f20;stroke-width:0.332927;stroke-linecap:butt;stroke-linejoin:miter;stroke-miterlimit:4;stroke-dasharray:none;stroke-opacity:1"
     d="m 63.091644,140.7485 c -0.687,-1.172 -0.057,-1.942 0.959,-2.129 0.306,-0.057 0.505,-0.428 0.812,-0.459 0.698,-0.073 2.01,1.074 1.333,2.416 -0.047,0.095 -0.176,0.902 -0.364,1.491 -0.385,1.151 -1.699,3.276 -4.333,3.869 -1.24,0.282 -1.178,-0.51 -0.708,-0.781 1.484,-0.833 1.453,-1.203 1.765,-1.573 1.063,-1.23 0.536,-2.834 0.536,-2.834 z"
     id="path278" />
  <path
     style="fill:none;stroke:#231f20;stroke-width:0.49806;stroke-linecap:butt;stroke-linejoin:miter;stroke-miterlimit:4;stroke-dasharray:none;stroke-opacity:1"
     d="m 69.878644,97.1555 c -28.64,-1.302 -16.662,11.974 -4.688,15.359 38.905996,10.996 108.312996,-9.113 76.806996,-15.619"
     id="path279" />
  <path
     style="fill:#231f20;fill-opacity:1;fill-rule:nonzero;stroke:none"
     d="m 140.52364,96.5875 c 0.75,-0.109 1.698,-0.374 2.329,-0.729 l -0.663,1.073 0.183,1.25 c -0.437,-0.572 -1.208,-1.192 -1.849,-1.594"
     id="path280" />
  <path
     style="fill:none;stroke:#231f20;stroke-width:0.49806;stroke-linecap:butt;stroke-linejoin:miter;stroke-miterlimit:4;stroke-dasharray:none;stroke-opacity:1"
     d="m 43.523644,152.1665 8.772,-25.516"
     id="path281" />
  <path
     style="fill:#231f20;fill-opacity:1;fill-rule:nonzero;stroke:none"
     d="m 52.784644,125.2235 c 0.02,0.755 0.156,1.735 0.427,2.402 l -0.979,-0.787 -1.261,0.02 c 0.625,-0.364 1.333,-1.047 1.813,-1.635"
     id="path282" />
  <path
     style="fill:none;stroke:#918f8f;stroke-width:1.33171;stroke-linecap:butt;stroke-linejoin:miter;stroke-miterlimit:4;stroke-dasharray:none;stroke-opacity:1"
     d="M 267.41364,0 V 168.5405"
     id="path1207" />
</svg>
