<?xml version="1.0" encoding="UTF-8" standalone="no"?>
<!-- Created with Inkscape (http://www.inkscape.org/) -->

<svg
   version="1.1"
   id="svg1"
   width="664.53412"
   height="170.62392"
   viewBox="0 0 664.53409 170.62392"
   sodipodi:docname="cell.svg"
   xmlns:inkscape="http://www.inkscape.org/namespaces/inkscape"
   xmlns:sodipodi="http://sodipodi.sourceforge.net/DTD/sodipodi-0.dtd"
   xmlns="http://www.w3.org/2000/svg"
   xmlns:svg="http://www.w3.org/2000/svg">
  <sodipodi:namedview
     id="namedview1"
     pagecolor="#ffffff"
     bordercolor="#000000"
     borderopacity="0.25"
     inkscape:showpageshadow="2"
     inkscape:pageopacity="0.0"
     inkscape:pagecheckerboard="0"
     inkscape:deskcolor="#d1d1d1">
    <inkscape:page
       x="6.2783357e-15"
       y="0"
       inkscape:label="1"
       id="page1"
       width="664.53412"
       height="170.62392"
       margin="0"
       bleed="0" />
  </sodipodi:namedview>
  <defs
     id="defs1" />
  <path
     style="fill:#ffffff;fill-opacity:1;fill-rule:nonzero;stroke:none"
     d="m 182.70185,18.874 h 18.874 V 0 h -18.874 z"
     id="path1004" />
  <path
     style="fill:#ffffff;fill-opacity:1;fill-rule:nonzero;stroke:none"
     d="m 526.24785,18.874 h 18.869 V 0 h -18.869 z"
     id="path1005" />
  <path
     style="fill:#ffffff;fill-opacity:1;fill-rule:nonzero;stroke:none"
     d="m 520.57585,157.531 c -2.062,1.927 -2.583,4.728 -1.162,6.244 1.418,1.511 4.246,1.177 6.303,-0.76 2.063,-1.932 2.588,-4.713 1.161,-6.235 -1.412,-1.521 -4.24,-1.182 -6.302,0.751"
     id="path1006" />
  <path
     style="fill:none;stroke:#231f20;stroke-width:0.565977;stroke-linecap:butt;stroke-linejoin:miter;stroke-miterlimit:4;stroke-dasharray:none;stroke-opacity:1"
     d="m 520.57585,157.531 c -2.062,1.927 -2.583,4.728 -1.162,6.244 1.418,1.511 4.246,1.177 6.303,-0.76 2.063,-1.932 2.588,-4.713 1.161,-6.235 -1.412,-1.521 -4.24,-1.182 -6.302,0.751 z"
     id="path1007" />
  <path
     style="fill:#ffffff;fill-opacity:1;fill-rule:nonzero;stroke:#231f20;stroke-width:0.565977;stroke-linecap:round;stroke-linejoin:round;stroke-miterlimit:4;stroke-dasharray:none;stroke-opacity:1"
     d="m 527.66985,158.682 c -0.177,-0.938 0.208,-1.938 -0.136,-2.282 -0.333,-0.338 -1.926,-0.286 -2.656,-0.557"
     id="path1008" />
  <path
     style="fill:#231f20;fill-opacity:1;fill-rule:nonzero;stroke:none"
     d="m 542.79985,158.004 c -0.624,-0.172 -2.375,0.678 -3.979,0.766 -1.083,0.062 -3.525,1.322 -4.609,1.302 -0.995,-0.016 -1.448,0.068 -1.662,1.203 -0.136,0.667 0.063,2.041 0.558,2.161 1.156,0.271 2.088,0.12 3.082,-0.276 1.126,-0.448 4.084,-1.937 4.61,-2.265 1.286,-0.807 2.021,-0.729 2.381,-0.912 0.681,-0.337 0.719,-0.681 0.593,-1.171 -0.245,-0.928 -0.974,-0.808 -0.974,-0.808"
     id="path1009" />
  <path
     style="fill:none;stroke:#231f20;stroke-width:0.565977;stroke-linecap:butt;stroke-linejoin:miter;stroke-miterlimit:4;stroke-dasharray:none;stroke-opacity:1"
     d="m 542.79985,158.004 c -0.624,-0.172 -2.375,0.678 -3.979,0.766 -1.083,0.062 -3.525,1.322 -4.609,1.302 -0.995,-0.016 -1.448,0.068 -1.662,1.203 -0.136,0.667 0.063,2.041 0.558,2.161 1.156,0.271 2.088,0.12 3.082,-0.276 1.126,-0.448 4.084,-1.937 4.61,-2.265 1.286,-0.807 2.021,-0.729 2.381,-0.912 0.681,-0.337 0.719,-0.681 0.593,-1.171 -0.245,-0.928 -0.974,-0.808 -0.974,-0.808 z"
     id="path1010" />
  <path
     style="fill:#231f20;fill-opacity:1;fill-rule:nonzero;stroke:none"
     d="m 549.64385,156.343 c -0.719,-0.109 -3.902,0.541 -4.626,0.724 -0.64,0.161 -1.79,0.073 -2.025,1.208 -0.093,0.459 0.093,1.188 0.245,1.469 0.13,0.23 0.458,0.25 0.828,0.12 0.635,-0.218 0.724,-0.526 1.906,-1.021 0,0 0.261,-0.151 0.713,-0.469 1.344,-0.927 0.667,-0.646 2.912,-1.547 0.156,-0.068 0.208,-0.276 0.156,-0.38 -0.083,-0.156 -0.109,-0.104 -0.109,-0.104"
     id="path1011" />
  <path
     style="fill:none;stroke:#231f20;stroke-width:0.565977;stroke-linecap:round;stroke-linejoin:round;stroke-miterlimit:4;stroke-dasharray:none;stroke-opacity:1"
     d="m 549.64385,156.343 c -0.719,-0.109 -3.902,0.541 -4.626,0.724 -0.64,0.161 -1.79,0.073 -2.025,1.208 -0.093,0.459 0.093,1.188 0.245,1.469 0.13,0.23 0.458,0.25 0.828,0.12 0.635,-0.218 0.724,-0.526 1.906,-1.021 0,0 0.261,-0.151 0.713,-0.469 1.344,-0.927 0.667,-0.646 2.912,-1.547 0.156,-0.068 0.208,-0.276 0.156,-0.38 -0.083,-0.156 -0.109,-0.104 -0.109,-0.104 z"
     id="path1012" />
  <path
     style="fill:#231f20;fill-opacity:1;fill-rule:nonzero;stroke:none"
     d="m 537.79385,161.796 c 0.267,1.266 -1.77,1.312 -2.301,1.407 -0.536,0.093 -2.032,0.531 -3.151,1.025 -1.12,0.49 -2.729,0.631 -4.86,1.563 -1.12,0.489 -2.52,0.255 -3.161,-1.396 -0.636,-1.636 0.041,-2.615 1.489,-3.005 1.448,-0.386 2.97,-0.14 4.454,-0.432 1.484,-0.292 2.969,-0.724 4.114,-1.115 1.307,-0.453 2.12,-0.188 2.443,0.167 0.797,0.885 0.973,1.786 0.973,1.786"
     id="path1013" />
  <path
     style="fill:none;stroke:#231f20;stroke-width:0.565977;stroke-linecap:butt;stroke-linejoin:miter;stroke-miterlimit:4;stroke-dasharray:none;stroke-opacity:1"
     d="m 537.79385,161.796 c 0.267,1.266 -1.77,1.312 -2.301,1.407 -0.536,0.093 -2.032,0.531 -3.151,1.025 -1.12,0.49 -2.729,0.631 -4.86,1.563 -1.12,0.489 -2.52,0.255 -3.161,-1.396 -0.636,-1.636 0.041,-2.615 1.489,-3.005 1.448,-0.386 2.97,-0.14 4.454,-0.432 1.484,-0.292 2.969,-0.724 4.114,-1.115 1.307,-0.453 2.12,-0.188 2.443,0.167 0.797,0.885 0.973,1.786 0.973,1.786 z"
     id="path1014" />
  <path
     style="fill:#231f20;fill-opacity:1;fill-rule:nonzero;stroke:none"
     d="m 531.42485,152.166 c -0.443,0.469 -2.38,0.656 -3.796,1.417 -0.964,0.505 -3.699,0.697 -4.615,1.276 -0.838,0.536 -1.272,0.703 -2.048,-0.152 -0.452,-0.509 -1.009,-1.781 -0.645,-2.14 0.844,-0.839 1.724,-1.188 2.781,-1.364 1.194,-0.209 4.495,-0.469 5.11,-0.464 1.521,0.02 2.109,-0.427 2.51,-0.464 0.76,-0.063 0.968,0.219 1.12,0.699 0.271,0.916 -0.417,1.192 -0.417,1.192"
     id="path1015" />
  <path
     style="fill:none;stroke:#231f20;stroke-width:0.565977;stroke-linecap:butt;stroke-linejoin:miter;stroke-miterlimit:4;stroke-dasharray:none;stroke-opacity:1"
     d="m 531.42485,152.166 c -0.443,0.469 -2.38,0.656 -3.796,1.417 -0.964,0.505 -3.699,0.697 -4.615,1.276 -0.838,0.536 -1.272,0.703 -2.048,-0.152 -0.452,-0.509 -1.009,-1.781 -0.645,-2.14 0.844,-0.839 1.724,-1.188 2.781,-1.364 1.194,-0.209 4.495,-0.469 5.11,-0.464 1.521,0.02 2.109,-0.427 2.51,-0.464 0.76,-0.063 0.968,0.219 1.12,0.699 0.271,0.916 -0.417,1.192 -0.417,1.192 z"
     id="path1016" />
  <path
     style="fill:#231f20;fill-opacity:1;fill-rule:nonzero;stroke:none"
     d="m 538.13785,150.031 c -0.557,0.463 -3.62,1.561 -4.328,1.785 -0.629,0.194 -1.577,0.871 -2.358,0.016 -0.319,-0.333 -0.543,-1.057 -0.552,-1.38 -0.011,-0.254 0.254,-0.448 0.645,-0.536 0.656,-0.136 0.896,0.083 2.156,-0.114 0,0 0.303,0 0.849,0.03 1.631,0.094 0.907,0.199 3.292,-0.192 0.172,-0.026 0.323,0.124 0.339,0.244 0.009,0.178 -0.043,0.147 -0.043,0.147"
     id="path1017" />
  <path
     style="fill:none;stroke:#231f20;stroke-width:0.565977;stroke-linecap:round;stroke-linejoin:round;stroke-miterlimit:4;stroke-dasharray:none;stroke-opacity:1"
     d="m 538.13785,150.031 c -0.557,0.463 -3.62,1.561 -4.328,1.785 -0.629,0.194 -1.577,0.871 -2.358,0.016 -0.319,-0.333 -0.543,-1.057 -0.552,-1.38 -0.011,-0.254 0.254,-0.448 0.645,-0.536 0.656,-0.136 0.896,0.083 2.156,-0.114 0,0 0.303,0 0.849,0.03 1.631,0.094 0.907,0.199 3.292,-0.192 0.172,-0.026 0.323,0.124 0.339,0.244 0.009,0.178 -0.043,0.147 -0.043,0.147 z"
     id="path1018" />
  <path
     style="fill:#231f20;fill-opacity:1;fill-rule:nonzero;stroke:none"
     d="m 521.17585,152.411 c -1.11,-0.647 -1.803,1.271 -2.058,1.744 -0.256,0.48 -1.146,1.756 -1.969,2.661 -0.828,0.907 -1.464,2.387 -3.021,4.115 -0.823,0.907 -1.042,2.313 0.324,3.437 1.353,1.126 2.494,0.787 3.317,-0.457 0.828,-1.251 1.079,-2.771 1.823,-4.084 0.745,-1.317 1.625,-2.588 2.36,-3.552 0.842,-1.099 0.848,-1.953 0.62,-2.369 -0.59,-1.036 -1.396,-1.495 -1.396,-1.495"
     id="path1019" />
  <path
     style="fill:none;stroke:#231f20;stroke-width:0.565977;stroke-linecap:butt;stroke-linejoin:miter;stroke-miterlimit:4;stroke-dasharray:none;stroke-opacity:1"
     d="m 521.17585,152.411 c -1.11,-0.647 -1.803,1.271 -2.058,1.744 -0.256,0.48 -1.146,1.756 -1.969,2.661 -0.828,0.907 -1.464,2.387 -3.021,4.115 -0.823,0.907 -1.042,2.313 0.324,3.437 1.353,1.126 2.494,0.787 3.317,-0.457 0.828,-1.251 1.079,-2.771 1.823,-4.084 0.745,-1.317 1.625,-2.588 2.36,-3.552 0.842,-1.099 0.848,-1.953 0.62,-2.369 -0.59,-1.036 -1.396,-1.495 -1.396,-1.495 z"
     id="path1020" />
  <path
     style="fill:#fab41d;fill-opacity:1;fill-rule:nonzero;stroke:none"
     d="m 515.46085,163.458 c 0,0 0.308,-1.276 1.667,-2.86 0,0 5.37,-4.782 11.48,0.068 0,0 1.062,1.396 1.286,2.958 l 0.015,0.016 c 1.105,0.662 1.756,1.474 1.756,2.354 -0.011,2.188 -3.875,1.453 -8.896,1.432 -5.021,-0.026 -6.719,0.365 -6.708,-1.828 0.005,-0.932 -1.833,-1.474 -0.6,-2.14"
     id="path1021" />
  <path
     style="fill:none;stroke:#231f20;stroke-width:0.563313;stroke-linecap:butt;stroke-linejoin:miter;stroke-miterlimit:4;stroke-dasharray:none;stroke-opacity:1"
     d="m 515.46085,163.458 c 0,0 0.308,-1.276 1.667,-2.86 0,0 5.37,-4.782 11.48,0.068 0,0 1.062,1.396 1.286,2.958 l 0.015,0.016 c 1.105,0.662 1.756,1.474 1.756,2.354 -0.011,2.188 -3.875,1.453 -8.896,1.432 -5.021,-0.026 -6.719,0.365 -6.708,-1.828 0.005,-0.932 -1.833,-1.474 -0.6,-2.14 z"
     id="path1022" />
  <path
     style="fill:#231f20;fill-opacity:1;fill-rule:nonzero;stroke:none"
     d="m 189.94685,160.759 c -0.317,0.579 0.828,1.98 0.76,3.953 -0.016,0.402 0.167,0.73 0.292,1.079 0.495,1.432 1.719,2.448 2.818,-1.219 0.15,-0.51 -0.131,-2.593 0.15,-3.317 0.678,-1.74 -0.785,-4.719 -1.296,-4.609 -1.094,0.233 -2.724,4.113 -2.724,4.113"
     id="path1023" />
  <path
     style="fill:none;stroke:#231f20;stroke-width:0.644548;stroke-linecap:round;stroke-linejoin:round;stroke-miterlimit:4;stroke-dasharray:none;stroke-opacity:1"
     d="m 189.94685,160.759 c -0.317,0.579 0.828,1.98 0.76,3.953 -0.016,0.402 0.167,0.73 0.292,1.079 0.495,1.432 1.719,2.448 2.818,-1.219 0.15,-0.51 -0.131,-2.593 0.15,-3.317 0.678,-1.74 -0.785,-4.719 -1.296,-4.609 -1.094,0.233 -2.724,4.113 -2.724,4.113 z"
     id="path1024" />
  <path
     style="fill:#231f20;fill-opacity:1;fill-rule:nonzero;stroke:none"
     d="m 212.22285,142.988 c -3,-2 -3.641,-0.442 -6.666,2.292 -3.314,2.99 -6.443,6.459 -7.844,9.448 -1.568,3.339 -2.088,3.287 -0.943,4.828 1.14,1.542 1.24,-0.098 2.527,-0.098 1.489,0.01 5.921,-4.26 9.556,-7.318 1.709,-1.433 5.094,-5.756 4.444,-7.052 -0.658,-1.297 -1.074,-2.1 -1.074,-2.1"
     id="path1025" />
  <path
     style="fill:none;stroke:#231f20;stroke-width:0.565977;stroke-linecap:butt;stroke-linejoin:miter;stroke-miterlimit:4;stroke-dasharray:none;stroke-opacity:1"
     d="m 212.22285,142.988 c -3,-2 -3.641,-0.442 -6.666,2.292 -3.314,2.99 -6.443,6.459 -7.844,9.448 -1.568,3.339 -2.088,3.287 -0.943,4.828 1.14,1.542 1.24,-0.098 2.527,-0.098 1.489,0.01 5.921,-4.26 9.556,-7.318 1.709,-1.433 5.094,-5.756 4.444,-7.052 -0.658,-1.297 -1.074,-2.1 -1.074,-2.1 z"
     id="path1026" />
  <path
     style="fill:#231f20;fill-opacity:1;fill-rule:nonzero;stroke:none"
     d="m 203.86885,152.078 c -1.547,-1.652 -1.968,-2.152 -3.506,-0.172 -0.39,0.5 -1.374,1.973 -1.686,2.213 -1.043,0.765 -2.183,1.755 -4.986,7.719 -0.421,0.921 -1.557,2.546 -2.254,3.754 -0.683,1.178 1.729,1.516 2,1.054 0.869,-1.475 1.76,-2.23 2.145,-2.72 0.271,-0.334 0.657,-1.042 1.975,-2.056 3.401,-2.6 3.41,-4.396 4.073,-5 1.911,-1.735 3.9,-2.839 3.661,-3.459 -0.396,-1.016 -1.422,-1.333 -1.422,-1.333"
     id="path1027" />
  <path
     style="fill:none;stroke:#231f20;stroke-width:0.565977;stroke-linecap:butt;stroke-linejoin:miter;stroke-miterlimit:4;stroke-dasharray:none;stroke-opacity:1"
     d="m 203.86885,152.078 c -1.547,-1.652 -1.968,-2.152 -3.506,-0.172 -0.39,0.5 -1.374,1.973 -1.686,2.213 -1.043,0.765 -2.183,1.755 -4.986,7.719 -0.421,0.921 -1.557,2.546 -2.254,3.754 -0.683,1.178 1.729,1.516 2,1.054 0.869,-1.475 1.76,-2.23 2.145,-2.72 0.271,-0.334 0.657,-1.042 1.975,-2.056 3.401,-2.6 3.41,-4.396 4.073,-5 1.911,-1.735 3.9,-2.839 3.661,-3.459 -0.396,-1.016 -1.422,-1.333 -1.422,-1.333 z"
     id="path1028" />
  <path
     style="fill:#231f20;fill-opacity:1;fill-rule:nonzero;stroke:none"
     d="m 135.02485,147.952 c 0.494,-0.349 1.084,-0.869 1.412,-1.349 l -0.094,1.005 0.578,0.828 c -0.52,-0.254 -1.291,-0.421 -1.896,-0.484"
     id="path1031" />
  <path
     style="fill:#231f20;fill-opacity:1;fill-rule:nonzero;stroke:none"
     d="m 525.72185,166.119 c 0.49,3.573 2.078,3.031 6.135,3.484 4.428,0.5 9.105,0.552 12.271,-0.38 3.537,-1.036 3.844,-0.615 4.245,-2.495 0.391,-1.874 -0.364,-2.057 -1.213,-3.026 -0.979,-1.119 -8.131,0.589 -12.834,-0.11 -2.202,-0.328 -7.693,-1.52 -8.24,-0.17 -0.546,1.342 -0.364,2.697 -0.364,2.697"
     id="path1034" />
  <path
     style="fill:none;stroke:#231f20;stroke-width:0.565977;stroke-linecap:butt;stroke-linejoin:miter;stroke-miterlimit:4;stroke-dasharray:none;stroke-opacity:1"
     d="m 525.72185,166.119 c 0.49,3.573 2.078,3.031 6.135,3.484 4.428,0.5 9.105,0.552 12.271,-0.38 3.537,-1.036 3.844,-0.615 4.245,-2.495 0.391,-1.874 -0.364,-2.057 -1.213,-3.026 -0.979,-1.119 -8.131,0.589 -12.834,-0.11 -2.202,-0.328 -7.693,-1.52 -8.24,-0.17 -0.546,1.342 -0.364,2.697 -0.364,2.697 z"
     id="path1036" />
  <path
     style="fill:#231f20;fill-opacity:1;fill-rule:nonzero;stroke:#231f20;stroke-width:0.565977;stroke-linecap:butt;stroke-linejoin:miter;stroke-miterlimit:4;stroke-dasharray:none;stroke-opacity:1"
     d="m 546.46085,167.931 c 0.267,0.428 0.871,0.552 2.12,0.469 0.631,-0.041 2.391,-0.281 2.771,-0.197 1.272,0.265 2.766,0.473 9.084,-1.381 0.973,-0.296 2.942,-0.526 4.317,-0.802 1.333,-0.27 -0.015,-2.297 -0.547,-2.193 -1.682,0.319 -2.833,0.156 -3.458,0.193 -0.422,0.015 -1.214,0.198 -2.843,-0.12 -4.199,-0.822 -5.553,0.359 -6.448,0.266 -2.568,-0.276 -4.704,-1.042 -5.016,-0.454"
     id="path1038" />
  <path
     style="fill:#231f20;fill-opacity:1;fill-rule:nonzero;stroke:none"
     d="m 519.38885,165.223 c -2.541,2.552 -3.48,1.156 -6.984,-0.932 -3.833,-2.281 -7.589,-5.063 -9.557,-7.724 -2.188,-2.964 -2.683,-2.808 -1.871,-4.552 0.817,-1.729 1.532,-1.423 2.797,-1.677 1.464,-0.298 5.954,3.917 10.12,6.193 1.954,1.067 7.5,3.837 7.115,5.239 -0.38,1.406 -1.62,3.453 -1.62,3.453"
     id="path1039" />
  <path
     style="fill:none;stroke:#231f20;stroke-width:0.565977;stroke-linecap:butt;stroke-linejoin:miter;stroke-miterlimit:4;stroke-dasharray:none;stroke-opacity:1"
     d="m 519.38885,165.223 c -2.541,2.552 -3.48,1.156 -6.984,-0.932 -3.833,-2.281 -7.589,-5.063 -9.557,-7.724 -2.188,-2.964 -2.683,-2.808 -1.871,-4.552 0.817,-1.729 1.532,-1.423 2.797,-1.677 1.464,-0.298 5.954,3.917 10.12,6.193 1.954,1.067 7.5,3.837 7.115,5.239 -0.38,1.406 -1.62,3.453 -1.62,3.453 z"
     id="path1040" />
  <path
     style="fill:#231f20;fill-opacity:1;fill-rule:nonzero;stroke:none"
     d="m 503.20085,152.39 c -1.203,1.922 -1.525,2.494 -3.407,0.844 -0.478,-0.418 -1.722,-1.678 -2.082,-1.844 -1.167,-0.563 -2.479,-1.312 -6.355,-6.631 -0.604,-0.828 -2.02,-2.203 -2.943,-3.265 -0.89,-1.02 1.412,-1.807 1.762,-1.406 1.14,1.28 2.156,1.854 2.629,2.26 0.328,0.276 0.839,0.896 2.333,1.635 3.834,1.901 4.178,3.667 4.948,4.136 2.21,1.349 4.371,2.041 4.256,2.693 -0.198,1.067 -1.141,1.578 -1.141,1.578"
     id="path1041" />
  <path
     style="fill:none;stroke:#231f20;stroke-width:0.565977;stroke-linecap:butt;stroke-linejoin:miter;stroke-miterlimit:4;stroke-dasharray:none;stroke-opacity:1"
     d="m 503.20085,152.39 c -1.203,1.922 -1.525,2.494 -3.407,0.844 -0.478,-0.418 -1.722,-1.678 -2.082,-1.844 -1.167,-0.563 -2.479,-1.312 -6.355,-6.631 -0.604,-0.828 -2.02,-2.203 -2.943,-3.265 -0.89,-1.02 1.412,-1.807 1.762,-1.406 1.14,1.28 2.156,1.854 2.629,2.26 0.328,0.276 0.839,0.896 2.333,1.635 3.834,1.901 4.178,3.667 4.948,4.136 2.21,1.349 4.371,2.041 4.256,2.693 -0.198,1.067 -1.141,1.578 -1.141,1.578 z"
     id="path1042" />
  <path
     style="fill:#231f20;fill-opacity:1;fill-rule:nonzero;stroke:none"
     d="m 485.39485,141.327 c 0.306,0.599 2.109,0.428 3.697,1.589 0.328,0.234 0.708,0.271 1.068,0.364 1.458,0.391 2.989,-0.057 0.562,-3.016 -0.333,-0.41 -2.213,-1.348 -2.666,-1.984 -1.057,-1.536 -4.349,-1.994 -4.532,-1.516 -0.421,1.048 1.871,4.563 1.871,4.563"
     id="path1043" />
  <path
     style="fill:none;stroke:#231f20;stroke-width:0.644548;stroke-linecap:round;stroke-linejoin:round;stroke-miterlimit:4;stroke-dasharray:none;stroke-opacity:1"
     d="m 485.39485,141.327 c 0.306,0.599 2.109,0.428 3.697,1.589 0.328,0.234 0.708,0.271 1.068,0.364 1.458,0.391 2.989,-0.057 0.562,-3.016 -0.333,-0.41 -2.213,-1.348 -2.666,-1.984 -1.057,-1.536 -4.349,-1.994 -4.532,-1.516 -0.421,1.048 1.871,4.563 1.871,4.563 z"
     id="path1044" />
  <path
     style="fill:#231f20;fill-opacity:1;fill-rule:nonzero;stroke:none"
     d="m 568.68085,167.255 c -0.605,0.291 -1.953,-0.912 -3.917,-0.928 -0.402,0 -0.724,-0.192 -1.074,-0.328 -1.41,-0.552 -2.369,-1.823 1.334,-2.771 0.516,-0.125 2.584,0.24 3.328,-0.016 1.761,-0.598 4.677,0.98 4.548,1.486 -0.276,1.082 -4.219,2.557 -4.219,2.557"
     id="path1045" />
  <path
     style="fill:none;stroke:#231f20;stroke-width:0.644548;stroke-linecap:round;stroke-linejoin:round;stroke-miterlimit:4;stroke-dasharray:none;stroke-opacity:1"
     d="m 568.68085,167.255 c -0.605,0.291 -1.953,-0.912 -3.917,-0.928 -0.402,0 -0.724,-0.192 -1.074,-0.328 -1.41,-0.552 -2.369,-1.823 1.334,-2.771 0.516,-0.125 2.584,0.24 3.328,-0.016 1.761,-0.598 4.677,0.98 4.548,1.486 -0.276,1.082 -4.219,2.557 -4.219,2.557 z"
     id="path1046" />
  <path
     style="fill:#231f20;fill-opacity:1;fill-rule:nonzero;stroke:none"
     d="m 109.72885,154.447 c 0.396,-1.24 -1.631,-1.484 -2.156,-1.631 -0.527,-0.14 -1.964,-0.724 -3.027,-1.328 -1.073,-0.593 -2.656,-0.896 -4.682995,-2.03 -1.072,-0.599 -2.489,-0.506 -3.286,1.073 -0.796,1.572 -0.214,2.609 1.193,3.14 1.401,0.527 2.931995,0.432 4.384995,0.869 1.443,0.434 2.88,1.011 3.979,1.516 1.261,0.574 2.1,0.402 2.448,0.068 0.891,-0.802 1.147,-1.677 1.147,-1.677"
     id="path1047" />
  <path
     style="fill:none;stroke:#231f20;stroke-width:0.565977;stroke-linecap:butt;stroke-linejoin:miter;stroke-miterlimit:4;stroke-dasharray:none;stroke-opacity:1"
     d="m 109.72885,154.447 c 0.396,-1.24 -1.631,-1.484 -2.156,-1.631 -0.527,-0.14 -1.964,-0.724 -3.027,-1.328 -1.073,-0.593 -2.656,-0.896 -4.682995,-2.03 -1.072,-0.599 -2.489,-0.506 -3.286,1.073 -0.796,1.572 -0.214,2.609 1.193,3.14 1.401,0.527 2.931995,0.432 4.384995,0.869 1.443,0.434 2.88,1.011 3.979,1.516 1.261,0.574 2.1,0.402 2.448,0.068 0.891,-0.802 1.147,-1.677 1.147,-1.677 z"
     id="path1048" />
  <path
     style="fill:#231f20;fill-opacity:1;fill-rule:nonzero;stroke:#231f20;stroke-width:0.565977;stroke-linecap:round;stroke-linejoin:round;stroke-miterlimit:4;stroke-dasharray:none;stroke-opacity:1"
     d="m 95.461855,155.004 c 0,0 -1.072,0.776 -1.577,1.823 -0.5,1.052 -0.584,2.401 -0.584,2.401 l 2.942,1.484 2.152,-4.27 z"
     id="path1049" />
  <path
     style="fill:#231f20;fill-opacity:1;fill-rule:nonzero;stroke:none"
     d="m 112.16585,164.259 c -3.584,-0.348 -3.104,-1.952 -3.735,-5.984 -0.682,-4.411 -0.926,-9.077 -0.134,-12.281 0.889,-3.572 0.457,-3.87 2.317,-4.339 1.859,-0.473 2.068,0.267 3.077,1.084 1.162,0.927 1.11,10.088 2.063,13.593 0.589,2.147 1.428,6.375 0.104,6.975 -1.328,0.593 -3.692,0.952 -3.692,0.952"
     id="path1050" />
  <path
     style="fill:none;stroke:#231f20;stroke-width:0.565977;stroke-linecap:butt;stroke-linejoin:miter;stroke-miterlimit:4;stroke-dasharray:none;stroke-opacity:1"
     d="m 112.16585,164.259 c -3.584,-0.348 -3.104,-1.952 -3.735,-5.984 -0.682,-4.411 -0.926,-9.077 -0.134,-12.281 0.889,-3.572 0.457,-3.87 2.317,-4.339 1.859,-0.473 2.068,0.267 3.077,1.084 1.162,0.927 1.11,10.088 2.063,13.593 0.589,2.147 1.428,6.375 0.104,6.975 -1.328,0.593 -3.692,0.952 -3.692,0.952 z"
     id="path1051" />
  <path
     style="fill:#231f20;fill-opacity:1;fill-rule:nonzero;stroke:none"
     d="m 111.76985,143.588 c -2.245,0.312 -2.896,0.432 -2.844,-2.073 0.021,-0.641 0.188,-2.407 0.093,-2.787 -0.328,-1.249 -0.593,-2.729 1,-9.13 0.251,-0.99 0.396,-2.952 0.615,-4.343 0.215,-1.339 2.297,-0.084 2.219,0.447 -0.25,1.698 -0.042,2.844 -0.052,3.469 -0.006,0.421 -0.151,1.219 0.234,2.833 1.011,4.167 -0.125,5.568 0.011,6.459 0.38,2.547 1.24,4.656 0.656,4.989 -0.937,0.531 -1.932,0.136 -1.932,0.136"
     id="path1052" />
  <path
     style="fill:none;stroke:#231f20;stroke-width:0.565977;stroke-linecap:butt;stroke-linejoin:miter;stroke-miterlimit:4;stroke-dasharray:none;stroke-opacity:1"
     d="m 111.76985,143.588 c -2.245,0.312 -2.896,0.432 -2.844,-2.073 0.021,-0.641 0.188,-2.407 0.093,-2.787 -0.328,-1.249 -0.593,-2.729 1,-9.13 0.251,-0.99 0.396,-2.952 0.615,-4.343 0.215,-1.339 2.297,-0.084 2.219,0.447 -0.25,1.698 -0.042,2.844 -0.052,3.469 -0.006,0.421 -0.151,1.219 0.234,2.833 1.011,4.167 -0.125,5.568 0.011,6.459 0.38,2.547 1.24,4.656 0.656,4.989 -0.937,0.531 -1.932,0.136 -1.932,0.136 z"
     id="path1053" />
  <path
     style="fill:#231f20;fill-opacity:1;fill-rule:nonzero;stroke:none"
     d="m 107.64985,165.166 c 0.844,3.505 2.369,2.802 6.453,2.849 4.454,0.052 9.11,-0.375 12.167,-1.615 3.416,-1.385 3.765,-1 3.969,-2.912 0.208,-1.9 -0.568,-2.009 -1.505,-2.885 -1.089,-1.02 -8.037,1.401 -12.781,1.177 -2.219,-0.104 -7.491,-1.797 -7.891,-0.401 -0.401,1.401 -0.412,3.787 -0.412,3.787"
     id="path1054" />
  <path
     style="fill:none;stroke:#231f20;stroke-width:0.565977;stroke-linecap:butt;stroke-linejoin:miter;stroke-miterlimit:4;stroke-dasharray:none;stroke-opacity:1"
     d="m 107.64985,165.166 c 0.844,3.505 2.369,2.802 6.453,2.849 4.454,0.052 9.11,-0.375 12.167,-1.615 3.416,-1.385 3.765,-1 3.969,-2.912 0.208,-1.9 -0.568,-2.009 -1.505,-2.885 -1.089,-1.02 -8.037,1.401 -12.781,1.177 -2.219,-0.104 -7.491,-1.797 -7.891,-0.401 -0.401,1.401 -0.412,3.787 -0.412,3.787 z"
     id="path1055" />
  <path
     style="fill:#231f20;fill-opacity:1;fill-rule:nonzero;stroke:none"
     d="m 128.14985,162.65 c 0.027,2.266 0.005,2.922 2.469,2.496 0.624,-0.111 2.348,-0.532 2.744,-0.496 1.292,0.136 2.792,0.182 8.88,-2.343 0.939,-0.391 2.871,-0.828 4.21,-1.251 1.29,-0.41 -0.267,-2.276 -0.771,-2.125 -1.641,0.495 -2.808,0.464 -3.423,0.563 -0.421,0.073 -1.186,0.328 -2.849,0.182 -4.255,-0.374 -5.473,0.954 -6.38,0.954 -2.583,-0.006 -4.787,-0.542 -5.031,0.082 -0.39,1.011 0.151,1.938 0.151,1.938"
     id="path1056" />
  <path
     style="fill:none;stroke:#231f20;stroke-width:0.565977;stroke-linecap:butt;stroke-linejoin:miter;stroke-miterlimit:4;stroke-dasharray:none;stroke-opacity:1"
     d="m 128.14985,162.65 c 0.027,2.266 0.005,2.922 2.469,2.496 0.624,-0.111 2.348,-0.532 2.744,-0.496 1.292,0.136 2.792,0.182 8.88,-2.343 0.939,-0.391 2.871,-0.828 4.21,-1.251 1.29,-0.41 -0.267,-2.276 -0.771,-2.125 -1.641,0.495 -2.808,0.464 -3.423,0.563 -0.421,0.073 -1.186,0.328 -2.849,0.182 -4.255,-0.374 -5.473,0.954 -6.38,0.954 -2.583,-0.006 -4.787,-0.542 -5.031,0.082 -0.39,1.011 0.151,1.938 0.151,1.938 z"
     id="path1057" />
  <path
     style="fill:#231f20;fill-opacity:1;fill-rule:nonzero;stroke:none"
     d="m 389.51485,159.264 c 0.473,0.475 2.134,-0.233 4.004,0.382 0.386,0.124 0.756,0.046 1.12,0.03 1.516,-0.078 2.838,-0.978 -0.37,-3.057 -0.453,-0.292 -2.526,-0.599 -3.145,-1.073 -1.48,-1.135 -4.751,-0.567 -4.787,-0.052 -0.084,1.114 3.178,3.77 3.178,3.77"
     id="path1058" />
  <path
     style="fill:none;stroke:#231f20;stroke-width:0.644548;stroke-linecap:round;stroke-linejoin:round;stroke-miterlimit:4;stroke-dasharray:none;stroke-opacity:1"
     d="m 389.51485,159.264 c 0.473,0.475 2.134,-0.233 4.004,0.382 0.386,0.124 0.756,0.046 1.12,0.03 1.516,-0.078 2.838,-0.978 -0.37,-3.057 -0.453,-0.292 -2.526,-0.599 -3.145,-1.073 -1.48,-1.135 -4.751,-0.567 -4.787,-0.052 -0.084,1.114 3.178,3.77 3.178,3.77 z"
     id="path1059" />
  <path
     style="fill:#231f20;fill-opacity:1;fill-rule:nonzero;stroke:none"
     d="m 433.11885,166.63 c -1.12,3.421 -2.59,2.604 -6.662,2.328 -4.448,-0.303 -9.057,-1.079 -12,-2.563 -3.297,-1.651 -3.677,-1.297 -3.734,-3.208 -0.047,-1.923 0.724,-1.959 1.734,-2.765 1.162,-0.928 8.214,0.525 12.963,0.676 2.229,0.062 7.281,0.297 7.584,1.729 0.292,1.423 0.115,3.803 0.115,3.803"
     id="path1060" />
  <path
     style="fill:none;stroke:#231f20;stroke-width:0.565977;stroke-linecap:butt;stroke-linejoin:miter;stroke-miterlimit:4;stroke-dasharray:none;stroke-opacity:1"
     d="m 433.11885,166.63 c -1.12,3.421 -2.59,2.604 -6.662,2.328 -4.448,-0.303 -9.057,-1.079 -12,-2.563 -3.297,-1.651 -3.677,-1.297 -3.734,-3.208 -0.047,-1.923 0.724,-1.959 1.734,-2.765 1.162,-0.928 8.214,0.525 12.963,0.676 2.229,0.062 7.281,0.297 7.584,1.729 0.292,1.423 0.115,3.803 0.115,3.803 z"
     id="path1061" />
  <path
     style="fill:#231f20;fill-opacity:1;fill-rule:nonzero;stroke:#231f20;stroke-width:0.565977;stroke-linecap:butt;stroke-linejoin:miter;stroke-miterlimit:4;stroke-dasharray:none;stroke-opacity:1"
     d="m 412.61285,160.588 c -0.146,-0.474 -0.698,-0.75 -1.928,-0.996 -0.618,-0.118 -2.38,-0.333 -2.728,-0.509 -1.157,-0.584 -2.557,-1.161 -9.141,-0.98 -1.016,0.043 -2.973,-0.239 -4.38,-0.323 -1.355,-0.082 -0.563,2.23 -0.031,2.26 1.714,0.115 2.786,0.568 3.395,0.688 0.417,0.094 1.224,0.12 2.724,0.844 3.849,1.875 5.464,1.068 6.303,1.391 2.412,0.916 4.276,2.203 4.729,1.713"
     id="path1063" />
  <path
     style="fill:#231f20;fill-opacity:1;fill-rule:nonzero;stroke:none"
     d="m 285.20685,155.031 c 0.547,-0.376 2.052,0.629 4.005,0.375 0.402,-0.052 0.746,0.098 1.104,0.177 1.47,0.359 2.604,1.489 -0.937,2.932 -0.495,0.203 -2.588,0.12 -3.292,0.468 -1.661,0.844 -4.771,-0.328 -4.708,-0.843 0.125,-1.109 3.828,-3.109 3.828,-3.109"
     id="path1064" />
  <path
     style="fill:none;stroke:#231f20;stroke-width:0.644548;stroke-linecap:round;stroke-linejoin:round;stroke-miterlimit:4;stroke-dasharray:none;stroke-opacity:1"
     d="m 285.20685,155.031 c 0.547,-0.376 2.052,0.629 4.005,0.375 0.402,-0.052 0.746,0.098 1.104,0.177 1.47,0.359 2.604,1.489 -0.937,2.932 -0.495,0.203 -2.588,0.12 -3.292,0.468 -1.661,0.844 -4.771,-0.328 -4.708,-0.843 0.125,-1.109 3.828,-3.109 3.828,-3.109 z"
     id="path1065" />
  <path
     style="fill:#231f20;fill-opacity:1;fill-rule:nonzero;stroke:none"
     d="m 152.12885,160.488 c -0.447,0.495 -2.146,-0.129 -3.979,0.584 -0.38,0.146 -0.749,0.083 -1.115,0.088 -1.516,0 -2.885,-0.828 0.208,-3.068 0.439,-0.312 2.491,-0.728 3.09,-1.238 1.416,-1.214 4.713,-0.814 4.776,-0.298 0.14,1.104 -2.98,3.932 -2.98,3.932"
     id="path1066" />
  <path
     style="fill:none;stroke:#231f20;stroke-width:0.644548;stroke-linecap:round;stroke-linejoin:round;stroke-miterlimit:4;stroke-dasharray:none;stroke-opacity:1"
     d="m 152.12885,160.488 c -0.447,0.495 -2.146,-0.129 -3.979,0.584 -0.38,0.146 -0.749,0.083 -1.115,0.088 -1.516,0 -2.885,-0.828 0.208,-3.068 0.439,-0.312 2.491,-0.728 3.09,-1.238 1.416,-1.214 4.713,-0.814 4.776,-0.298 0.14,1.104 -2.98,3.932 -2.98,3.932 z"
     id="path1067" />
  <path
     style="fill:#231f20;fill-opacity:1;fill-rule:nonzero;stroke:none"
     d="m 109.59785,122.494 c -0.265,0.614 0.995,1.906 1.084,3.874 0.02,0.402 0.228,0.715 0.38,1.058 0.615,1.381 1.916,2.292 2.703,-1.458 0.114,-0.51 -0.339,-2.568 -0.126,-3.313 0.543,-1.785 -1.172,-4.64 -1.661,-4.484 -1.077,0.328 -2.38,4.323 -2.38,4.323"
     id="path1068" />
  <path
     style="fill:none;stroke:#231f20;stroke-width:0.644548;stroke-linecap:round;stroke-linejoin:round;stroke-miterlimit:4;stroke-dasharray:none;stroke-opacity:1"
     d="m 109.59785,122.494 c -0.265,0.614 0.995,1.906 1.084,3.874 0.02,0.402 0.228,0.715 0.38,1.058 0.615,1.381 1.916,2.292 2.703,-1.458 0.114,-0.51 -0.339,-2.568 -0.126,-3.313 0.543,-1.785 -1.172,-4.64 -1.661,-4.484 -1.077,0.328 -2.38,4.323 -2.38,4.323 z"
     id="path1069" />
  <path
     style="fill:#fab41d;fill-opacity:1;fill-rule:nonzero;stroke:none"
     d="m 118.74285,164.65 c 0.136,-0.474 -0.113,-1.176 -0.113,-1.176 0,0 -7.751,0 -6.772,-3.022 l 0.417,-1.76 c -0.604,-0.636 -1.281,-0.12 -1.994,-0.338 -5.38,-1.246 -5.938,-4.907 -7.266,-4.735 -2.573,0.339 -3.676995,-0.339 -4.635995,-1.151 0,0 -2.052,-1.422 -2.208,-0.614 -0.224,1.125 -0.89,3.697 -0.89,3.697 0.041,0.005 0.082,0.005 0.12,0.016 1.208,0.344 1.604,1.568 1.254,2.859 l 0.022,-0.067 c -0.386,1.276 -1.882,1.172 -3.027,0.848 -0.041,-0.015 -0.735,0.923 -0.776,0.901 0,0 -1.489,2.402 -1.177,3.678 0.141,0.552 0.818,1.136 0.818,1.136 1.52,1.536 4.391,1.285 6.167,0.853 1.296,-0.317 2.123995,0.407 5.270995,1.229 0.718,0.188 4.614,0.251 6,0.24 l 3.828,-0.594 c 2.197,-2.208 4.244,-1.052 4.244,-1.052 0,0 0.578,-0.468 0.718,-0.948"
     id="path1070" />
  <path
     style="fill:none;stroke:#231f20;stroke-width:0.565977;stroke-linecap:butt;stroke-linejoin:miter;stroke-miterlimit:4;stroke-dasharray:none;stroke-opacity:1"
     d="m 118.74285,164.65 c 0.136,-0.474 -0.113,-1.176 -0.113,-1.176 0,0 -7.751,0 -6.772,-3.022 l 0.417,-1.76 c -0.604,-0.636 -1.281,-0.12 -1.994,-0.338 -5.38,-1.246 -5.938,-4.907 -7.266,-4.735 -2.573,0.339 -3.676995,-0.339 -4.635995,-1.151 0,0 -2.052,-1.422 -2.208,-0.614 -0.224,1.125 -0.89,3.697 -0.89,3.697 0.041,0.005 0.082,0.005 0.12,0.016 1.208,0.344 1.604,1.568 1.254,2.859 l 0.022,-0.067 c -0.386,1.276 -1.882,1.172 -3.027,0.848 -0.041,-0.015 -0.735,0.923 -0.776,0.901 0,0 -1.489,2.402 -1.177,3.678 0.141,0.552 0.818,1.136 0.818,1.136 1.52,1.536 4.391,1.285 6.167,0.853 1.296,-0.317 2.123995,0.407 5.270995,1.229 0.718,0.188 4.614,0.251 6,0.24 l 3.828,-0.594 c 2.197,-2.208 4.244,-1.052 4.244,-1.052 0,0 0.578,-0.468 0.718,-0.948 z"
     id="path1071" />
  <path
     style="fill:#ffffff;fill-opacity:1;fill-rule:nonzero;stroke:none"
     d="m 88.029855,156.062 c -1.896,-2.094 -2.192,-4.922 -0.656,-6.312 1.536,-1.396 4.328,-0.834 6.224,1.254 1.907,2.094 2.197,4.912 0.661,6.312 -1.536,1.396 -4.328,0.83 -6.229,-1.254"
     id="path1072" />
  <path
     style="fill:none;stroke:#231f20;stroke-width:0.565977;stroke-linecap:butt;stroke-linejoin:miter;stroke-miterlimit:4;stroke-dasharray:none;stroke-opacity:1"
     d="m 88.029855,156.062 c -1.896,-2.094 -2.192,-4.922 -0.656,-6.312 1.536,-1.396 4.328,-0.834 6.224,1.254 1.907,2.094 2.197,4.912 0.661,6.312 -1.536,1.396 -4.328,0.83 -6.229,-1.254 z"
     id="path1073" />
  <path
     style="fill:#fab41d;fill-opacity:1;fill-rule:nonzero;stroke:none"
     d="m 107.70685,157.874 c 0.24,-0.25 1.011,-0.042 1.418,-0.266 0.88,-0.484 0.869,-2.349 1.249,-1.786 2.969,4.417 6.407,4.078 6.407,4.078 l 0.296,0.552 c 0.442,0.651 -1.588,0.99 -1.588,0.99 l 3.088,-0.074 c 0,0 1.542,6.767 0.537,6.803 -1.396,0.047 -5.969,0.792 -8.36,0.276 -1.312,-0.287 -2.115,-0.932 -2.115,-0.932 0,0 0.418,-3.781 0.167,-5.183 -0.26,-1.401 -1.099,-4.458 -1.099,-4.458"
     id="path1074" />
  <path
     style="fill:none;stroke:#231f20;stroke-width:0.565977;stroke-linecap:round;stroke-linejoin:round;stroke-miterlimit:4;stroke-dasharray:none;stroke-opacity:1"
     d="m 107.70685,157.874 c 0.24,-0.25 1.011,-0.042 1.418,-0.266 0.88,-0.484 0.869,-2.349 1.249,-1.786 2.969,4.417 6.407,4.078 6.407,4.078 l 0.296,0.552 c 0.442,0.651 -1.588,0.99 -1.588,0.99 l 3.088,-0.074 c 0,0 1.542,6.767 0.537,6.803 -1.396,0.047 -5.969,0.792 -8.36,0.276 -1.312,-0.287 -2.115,-0.932 -2.115,-0.932 0,0 0.418,-3.781 0.167,-5.183 -0.26,-1.401 -1.099,-4.458 -1.099,-4.458 z"
     id="path1075" />
  <path
     style="fill:#231f20;fill-opacity:1;fill-rule:nonzero;stroke:none"
     d="m 113.91485,169.63 c -0.588,0.249 -2.442,-0.36 -4.046,-0.24 -1.083,0.084 -3.662,-0.844 -4.74,-0.678 -0.979,0.147 -1.447,0.126 -1.802,-0.968 -0.218,-0.646 -0.208,-2.032 0.266,-2.218 1.109,-0.428 2.057,-0.396 3.089,-0.142 1.181,0.303 4.312,1.386 4.869,1.642 1.38,0.629 2.104,0.457 2.479,0.588 0.724,0.25 0.803,0.589 0.745,1.088 -0.109,0.953 -0.86,0.928 -0.86,0.928"
     id="path1076" />
  <path
     style="fill:none;stroke:#231f20;stroke-width:0.565977;stroke-linecap:butt;stroke-linejoin:miter;stroke-miterlimit:4;stroke-dasharray:none;stroke-opacity:1"
     d="m 113.91485,169.63 c -0.588,0.249 -2.442,-0.36 -4.046,-0.24 -1.083,0.084 -3.662,-0.844 -4.74,-0.678 -0.979,0.147 -1.447,0.126 -1.802,-0.968 -0.218,-0.646 -0.208,-2.032 0.266,-2.218 1.109,-0.428 2.057,-0.396 3.089,-0.142 1.181,0.303 4.312,1.386 4.869,1.642 1.38,0.629 2.104,0.457 2.479,0.588 0.724,0.25 0.803,0.589 0.745,1.088 -0.109,0.953 -0.86,0.928 -0.86,0.928 z"
     id="path1078" />
  <path
     style="fill:#231f20;fill-opacity:1;fill-rule:nonzero;stroke:none"
     d="m 104.99885,168.051 c -0.365,1.245 -2.188,0.323 -2.693,0.156 -0.52,-0.172 -2.047,-0.484 -3.259995,-0.577 -1.229,-0.09 -2.713,-0.73 -5.027,-0.912 -1.218,-0.094 -2.348,-0.963 -2.134,-2.719 0.213,-1.744 1.27,-2.287 2.729,-1.943 1.459,0.334 2.687,1.271 4.129,1.714 1.447995,0.437 2.963995,0.756 4.162995,0.948 1.364,0.218 1.957,0.833 2.067,1.297 0.292,1.161 0.026,2.036 0.026,2.036"
     id="path1080" />
  <path
     style="fill:none;stroke:#231f20;stroke-width:0.565977;stroke-linecap:butt;stroke-linejoin:miter;stroke-miterlimit:4;stroke-dasharray:none;stroke-opacity:1"
     d="m 104.99885,168.051 c -0.365,1.245 -2.188,0.323 -2.693,0.156 -0.52,-0.172 -2.047,-0.484 -3.259995,-0.577 -1.229,-0.09 -2.713,-0.73 -5.027,-0.912 -1.218,-0.094 -2.348,-0.963 -2.134,-2.719 0.213,-1.744 1.27,-2.287 2.729,-1.943 1.459,0.334 2.687,1.271 4.129,1.714 1.447995,0.437 2.963995,0.756 4.162995,0.948 1.364,0.218 1.957,0.833 2.067,1.297 0.292,1.161 0.026,2.036 0.026,2.036 z"
     id="path1081" />
  <path
     style="fill:#231f20;fill-opacity:1;fill-rule:nonzero;stroke:none"
     d="m 120.62985,169.135 c -0.693,0.26 -3.944,0.276 -4.688,0.239 -0.661,-0.026 -1.776,0.297 -2.224,-0.771 -0.193,-0.416 -0.161,-1.177 -0.063,-1.479 0.079,-0.25 0.396,-0.333 0.782,-0.281 0.666,0.079 0.828,0.364 2.078,0.599 0,0 0.291,0.104 0.791,0.322 1.505,0.626 0.781,0.491 3.172,0.918 0.167,0.025 0.256,0.218 0.235,0.322 -0.052,0.183 -0.083,0.131 -0.083,0.131"
     id="path1083" />
  <path
     style="fill:none;stroke:#231f20;stroke-width:0.565977;stroke-linecap:round;stroke-linejoin:round;stroke-miterlimit:4;stroke-dasharray:none;stroke-opacity:1"
     d="m 120.62985,169.135 c -0.693,0.26 -3.944,0.276 -4.688,0.239 -0.661,-0.026 -1.776,0.297 -2.224,-0.771 -0.193,-0.416 -0.161,-1.177 -0.063,-1.479 0.079,-0.25 0.396,-0.333 0.782,-0.281 0.666,0.079 0.828,0.364 2.078,0.599 0,0 0.291,0.104 0.791,0.322 1.505,0.626 0.781,0.491 3.172,0.918 0.167,0.025 0.256,0.218 0.235,0.322 -0.052,0.183 -0.083,0.131 -0.083,0.131 z"
     id="path1085" />
  <path
     style="fill:#231f20;fill-opacity:1;fill-rule:nonzero;stroke:none"
     d="m 115.00985,169.124 c -0.537,-0.505 -1.98,-3.417 -2.276,-4.104 -0.272,-0.598 -1.048,-1.458 -0.287,-2.333 0.292,-0.36 0.984,-0.661 1.302,-0.713 0.261,-0.038 0.474,0.208 0.6,0.582 0.218,0.631 0.03,0.902 0.369,2.131 0,0 0.041,0.307 0.063,0.853 0.098,1.62 -0.095,0.918 0.572,3.246 0.048,0.166 -0.083,0.333 -0.192,0.354 -0.183,0.036 -0.151,-0.016 -0.151,-0.016"
     id="path1087" />
  <path
     style="fill:none;stroke:#231f20;stroke-width:0.565977;stroke-linecap:round;stroke-linejoin:round;stroke-miterlimit:4;stroke-dasharray:none;stroke-opacity:1"
     d="m 115.00985,169.124 c -0.537,-0.505 -1.98,-3.417 -2.276,-4.104 -0.272,-0.598 -1.048,-1.458 -0.287,-2.333 0.292,-0.36 0.984,-0.661 1.302,-0.713 0.261,-0.038 0.474,0.208 0.6,0.582 0.218,0.631 0.03,0.902 0.369,2.131 0,0 0.041,0.307 0.063,0.853 0.098,1.62 -0.095,0.918 0.572,3.246 0.048,0.166 -0.083,0.333 -0.192,0.354 -0.183,0.036 -0.151,-0.016 -0.151,-0.016 z"
     id="path1088" />
  <path
     style="fill:#231f20;fill-opacity:1;fill-rule:nonzero;stroke:none"
     d="m 112.30085,164.067 c -0.552,-0.328 -1.187,-2.183 -2.234,-3.385 -0.718,-0.818 -1.521,-3.443 -2.297,-4.199 -0.703,-0.708 -0.964,-1.088 -0.308,-2.036 0.391,-0.557 1.505,-1.385 1.933,-1.109 1.006,0.636 1.547,1.401 1.963,2.396 0.469,1.12 1.475,4.27 1.609,4.874 0.324,1.484 0.891,1.959 1.016,2.339 0.23,0.724 0.006,0.989 -0.426,1.251 -0.834,0.478 -1.256,-0.131 -1.256,-0.131"
     id="path1090" />
  <path
     style="fill:none;stroke:#231f20;stroke-width:0.565977;stroke-linecap:butt;stroke-linejoin:miter;stroke-miterlimit:4;stroke-dasharray:none;stroke-opacity:1"
     d="m 112.30085,164.067 c -0.552,-0.328 -1.187,-2.183 -2.234,-3.385 -0.718,-0.818 -1.521,-3.443 -2.297,-4.199 -0.703,-0.708 -0.964,-1.088 -0.308,-2.036 0.391,-0.557 1.505,-1.385 1.933,-1.109 1.006,0.636 1.547,1.401 1.963,2.396 0.469,1.12 1.475,4.27 1.609,4.874 0.324,1.484 0.891,1.959 1.016,2.339 0.23,0.724 0.006,0.989 -0.426,1.251 -0.834,0.478 -1.256,-0.131 -1.256,-0.131 z"
     id="path1091" />
  <path
     style="fill:#231f20;fill-opacity:1;fill-rule:nonzero;stroke:#231f20;stroke-width:0.565977;stroke-linecap:round;stroke-linejoin:round;stroke-miterlimit:4;stroke-dasharray:none;stroke-opacity:1"
     d="m 447.35185,155.004 c 0,0 1.068,0.776 1.579,1.823 0.494,1.052 0.578,2.401 0.578,2.401 l -2.937,1.484 -2.157,-4.27 z"
     id="path1092" />
  <path
     style="fill:#231f20;fill-opacity:1;fill-rule:nonzero;stroke:none"
     d="m 430.64385,164.259 c 3.589,-0.348 3.109,-1.952 3.735,-5.984 0.682,-4.411 0.926,-9.077 0.136,-12.281 -0.891,-3.572 -0.459,-3.87 -2.319,-4.339 -1.859,-0.473 -2.068,0.267 -3.077,1.084 -1.156,0.927 -1.11,10.088 -2.063,13.593 -0.589,2.147 -1.427,6.375 -0.104,6.975 1.328,0.593 3.692,0.952 3.692,0.952"
     id="path1093" />
  <path
     style="fill:none;stroke:#231f20;stroke-width:0.565977;stroke-linecap:butt;stroke-linejoin:miter;stroke-miterlimit:4;stroke-dasharray:none;stroke-opacity:1"
     d="m 430.64385,164.259 c 3.589,-0.348 3.109,-1.952 3.735,-5.984 0.682,-4.411 0.926,-9.077 0.136,-12.281 -0.891,-3.572 -0.459,-3.87 -2.319,-4.339 -1.859,-0.473 -2.068,0.267 -3.077,1.084 -1.156,0.927 -1.11,10.088 -2.063,13.593 -0.589,2.147 -1.427,6.375 -0.104,6.975 1.328,0.593 3.692,0.952 3.692,0.952 z"
     id="path1094" />
  <path
     style="fill:#231f20;fill-opacity:1;fill-rule:nonzero;stroke:none"
     d="m 431.03985,143.958 c 2.251,0.306 2.896,0.426 2.844,-2.079 -0.021,-0.635 -0.188,-2.4 -0.093,-2.781 0.328,-1.255 0.593,-2.734 -1,-9.13 -0.251,-0.989 -0.396,-2.958 -0.615,-4.344 -0.213,-1.338 -2.297,-0.088 -2.213,0.448 0.244,1.692 0.036,2.844 0.046,3.468 0.006,0.423 0.151,1.215 -0.234,2.828 -1.011,4.172 0.125,5.574 -0.011,6.464 -0.38,2.547 -1.24,4.656 -0.656,4.99 0.937,0.532 1.932,0.136 1.932,0.136"
     id="path1095" />
  <path
     style="fill:none;stroke:#231f20;stroke-width:0.565977;stroke-linecap:butt;stroke-linejoin:miter;stroke-miterlimit:4;stroke-dasharray:none;stroke-opacity:1"
     d="m 431.03985,143.958 c 2.251,0.306 2.896,0.426 2.844,-2.079 -0.021,-0.635 -0.188,-2.4 -0.093,-2.781 0.328,-1.255 0.593,-2.734 -1,-9.13 -0.251,-0.989 -0.396,-2.958 -0.615,-4.344 -0.213,-1.338 -2.297,-0.088 -2.213,0.448 0.244,1.692 0.036,2.844 0.046,3.468 0.006,0.423 0.151,1.215 -0.234,2.828 -1.011,4.172 0.125,5.574 -0.011,6.464 -0.38,2.547 -1.24,4.656 -0.656,4.99 0.937,0.532 1.932,0.136 1.932,0.136 z"
     id="path1096" />
  <path
     style="fill:#231f20;fill-opacity:1;fill-rule:nonzero;stroke:none"
     d="m 434.07185,122.374 c 0.265,0.614 -0.996,1.906 -1.084,3.87 -0.021,0.406 -0.229,0.719 -0.38,1.058 -0.615,1.385 -1.917,2.296 -2.703,-1.454 -0.114,-0.516 0.338,-2.568 0.119,-3.317 -0.536,-1.787 1.177,-4.636 1.667,-4.48 1.078,0.323 2.381,4.323 2.381,4.323"
     id="path1097" />
  <path
     style="fill:none;stroke:#231f20;stroke-width:0.644548;stroke-linecap:round;stroke-linejoin:round;stroke-miterlimit:4;stroke-dasharray:none;stroke-opacity:1"
     d="m 434.07185,122.374 c 0.265,0.614 -0.996,1.906 -1.084,3.87 -0.021,0.406 -0.229,0.719 -0.38,1.058 -0.615,1.385 -1.917,2.296 -2.703,-1.454 -0.114,-0.516 0.338,-2.568 0.119,-3.317 -0.536,-1.787 1.177,-4.636 1.667,-4.48 1.078,0.323 2.381,4.323 2.381,4.323 z"
     id="path1098" />
  <path
     style="fill:#fab41d;fill-opacity:1;fill-rule:nonzero;stroke:none"
     d="m 428.06685,164.65 c -0.136,-0.474 0.114,-1.176 0.114,-1.176 0,0 3.75,0 2.771,-3.022 l -0.417,-1.76 c 0.604,-0.636 1.281,-0.12 1.994,-0.338 5.38,-1.246 8.543,-5.656 9.866,-5.484 2.572,0.337 1.077,0.41 2.036,-0.402 0,0 2.052,-1.422 2.208,-0.614 0.224,1.125 0.89,3.697 0.89,3.697 -0.041,0.005 -0.082,0.005 -0.114,0.016 -1.208,0.344 -1.61,1.568 -1.26,2.859 l -0.022,-0.067 c 0.386,1.276 1.882,1.172 3.027,0.848 0.041,-0.015 0.74,0.923 0.776,0.901 0,0 1.489,2.402 1.177,3.678 -0.141,0.552 -0.817,1.136 -0.817,1.136 -1.521,1.536 -4.391,1.285 -6.168,0.853 -1.296,-0.317 -2.124,0.407 -5.271,1.229 -0.718,0.188 -4.609,0.251 -5.994,0.24 l -3.834,-0.594 c -2.197,-2.208 -0.244,-1.052 -0.244,-1.052 0,0 -0.584,-0.468 -0.718,-0.948"
     id="path1099" />
  <path
     style="fill:none;stroke:#231f20;stroke-width:0.565977;stroke-linecap:butt;stroke-linejoin:miter;stroke-miterlimit:4;stroke-dasharray:none;stroke-opacity:1"
     d="m 428.06685,164.65 c -0.136,-0.474 0.114,-1.176 0.114,-1.176 0,0 3.75,0 2.771,-3.022 l -0.417,-1.76 c 0.604,-0.636 1.281,-0.12 1.994,-0.338 5.38,-1.246 8.543,-5.656 9.866,-5.484 2.572,0.337 1.077,0.41 2.036,-0.402 0,0 2.052,-1.422 2.208,-0.614 0.224,1.125 0.89,3.697 0.89,3.697 -0.041,0.005 -0.082,0.005 -0.114,0.016 -1.208,0.344 -1.61,1.568 -1.26,2.859 l -0.022,-0.067 c 0.386,1.276 1.882,1.172 3.027,0.848 0.041,-0.015 0.74,0.923 0.776,0.901 0,0 1.489,2.402 1.177,3.678 -0.141,0.552 -0.817,1.136 -0.817,1.136 -1.521,1.536 -4.391,1.285 -6.168,0.853 -1.296,-0.317 -2.124,0.407 -5.271,1.229 -0.718,0.188 -4.609,0.251 -5.994,0.24 l -3.834,-0.594 c -2.197,-2.208 -0.244,-1.052 -0.244,-1.052 0,0 -0.584,-0.468 -0.718,-0.948 z"
     id="path1100" />
  <path
     style="fill:#ffffff;fill-opacity:1;fill-rule:nonzero;stroke:none"
     d="m 454.77985,156.062 c 1.896,-2.094 2.192,-4.922 0.656,-6.312 -1.536,-1.396 -4.328,-0.834 -6.224,1.254 -1.907,2.094 -2.197,4.912 -0.656,6.312 1.536,1.396 4.323,0.83 6.224,-1.254"
     id="path1101" />
  <path
     style="fill:none;stroke:#231f20;stroke-width:0.565977;stroke-linecap:butt;stroke-linejoin:miter;stroke-miterlimit:4;stroke-dasharray:none;stroke-opacity:1"
     d="m 454.77985,156.062 c 1.896,-2.094 2.192,-4.922 0.656,-6.312 -1.536,-1.396 -4.328,-0.834 -6.224,1.254 -1.907,2.094 -2.197,4.912 -0.656,6.312 1.536,1.396 4.323,0.83 6.224,-1.254 z"
     id="path1102" />
  <path
     style="fill:#fab41d;fill-opacity:1;fill-rule:nonzero;stroke:none"
     d="m 435.10285,157.874 c -0.24,-0.25 0.281,-0.364 -0.131,-0.588 -0.88,-0.479 0.224,-2.88 -0.067,-2.266 -3.24,6.896 -8.548,3.026 -8.548,3.026 l -0.624,2.406 c -0.442,0.651 1.588,0.99 1.588,0.99 l -3.082,-0.074 c 0,0 0.609,1.948 0.348,3.642 -0.26,1.697 -1.391,3.145 -0.891,3.161 1.396,0.047 5.969,0.792 8.36,0.276 1.312,-0.287 2.115,-0.932 2.115,-0.932 0,0 -0.418,-3.781 -0.162,-5.183 0.255,-1.401 1.094,-4.458 1.094,-4.458"
     id="path1103" />
  <path
     style="fill:none;stroke:#231f20;stroke-width:0.565977;stroke-linecap:round;stroke-linejoin:round;stroke-miterlimit:4;stroke-dasharray:none;stroke-opacity:1"
     d="m 435.10285,157.874 c -0.24,-0.25 0.281,-0.364 -0.131,-0.588 -0.88,-0.479 0.224,-2.88 -0.067,-2.266 -3.24,6.896 -8.548,3.026 -8.548,3.026 l -0.624,2.406 c -0.442,0.651 1.588,0.99 1.588,0.99 l -3.082,-0.074 c 0,0 0.609,1.948 0.348,3.642 -0.26,1.697 -1.391,3.145 -0.891,3.161 1.396,0.047 5.969,0.792 8.36,0.276 1.312,-0.287 2.115,-0.932 2.115,-0.932 0,0 -0.418,-3.781 -0.162,-5.183 0.255,-1.401 1.094,-4.458 1.094,-4.458 z"
     id="path1104" />
  <path
     style="fill:#231f20;fill-opacity:1;fill-rule:nonzero;stroke:none"
     d="m 428.89485,169.63 c 0.588,0.249 2.442,-0.36 4.046,-0.24 1.083,0.084 3.662,-0.844 4.74,-0.678 0.979,0.147 1.447,0.126 1.802,-0.968 0.218,-0.646 0.213,-2.032 -0.266,-2.218 -1.109,-0.428 -2.057,-0.396 -3.089,-0.142 -1.181,0.303 -4.312,1.386 -4.864,1.642 -1.385,0.629 -2.104,0.457 -2.484,0.588 -0.724,0.25 -0.803,0.589 -0.745,1.088 0.109,0.953 0.86,0.928 0.86,0.928"
     id="path1105" />
  <path
     style="fill:none;stroke:#231f20;stroke-width:0.565977;stroke-linecap:butt;stroke-linejoin:miter;stroke-miterlimit:4;stroke-dasharray:none;stroke-opacity:1"
     d="m 428.89485,169.63 c 0.588,0.249 2.442,-0.36 4.046,-0.24 1.083,0.084 3.662,-0.844 4.74,-0.678 0.979,0.147 1.447,0.126 1.802,-0.968 0.218,-0.646 0.213,-2.032 -0.266,-2.218 -1.109,-0.428 -2.057,-0.396 -3.089,-0.142 -1.181,0.303 -4.312,1.386 -4.864,1.642 -1.385,0.629 -2.104,0.457 -2.484,0.588 -0.724,0.25 -0.803,0.589 -0.745,1.088 0.109,0.953 0.86,0.928 0.86,0.928 z"
     id="path1107" />
  <path
     style="fill:#231f20;fill-opacity:1;fill-rule:nonzero;stroke:none"
     d="m 437.81585,168.051 c 0.36,1.245 2.183,0.323 2.688,0.156 0.52,-0.172 2.047,-0.484 3.26,-0.577 1.229,-0.09 2.713,-0.73 5.027,-0.912 1.218,-0.094 2.348,-0.963 2.134,-2.719 -0.213,-1.744 -1.27,-2.287 -2.729,-1.943 -1.457,0.334 -2.687,1.271 -4.129,1.714 -1.448,0.437 -2.964,0.756 -4.162,0.948 -1.365,0.218 -1.958,0.833 -2.068,1.297 -0.292,1.161 -0.021,2.036 -0.021,2.036"
     id="path1109" />
  <path
     style="fill:none;stroke:#231f20;stroke-width:0.565977;stroke-linecap:butt;stroke-linejoin:miter;stroke-miterlimit:4;stroke-dasharray:none;stroke-opacity:1"
     d="m 437.81585,168.051 c 0.36,1.245 2.183,0.323 2.688,0.156 0.52,-0.172 2.047,-0.484 3.26,-0.577 1.229,-0.09 2.713,-0.73 5.027,-0.912 1.218,-0.094 2.348,-0.963 2.134,-2.719 -0.213,-1.744 -1.27,-2.287 -2.729,-1.943 -1.457,0.334 -2.687,1.271 -4.129,1.714 -1.448,0.437 -2.964,0.756 -4.162,0.948 -1.365,0.218 -1.958,0.833 -2.068,1.297 -0.292,1.161 -0.021,2.036 -0.021,2.036 z"
     id="path1110" />
  <path
     style="fill:#231f20;fill-opacity:1;fill-rule:nonzero;stroke:none"
     d="m 422.18085,169.135 c 0.692,0.26 3.943,0.276 4.687,0.239 0.661,-0.026 1.776,0.297 2.224,-0.771 0.193,-0.416 0.161,-1.177 0.068,-1.479 -0.084,-0.25 -0.396,-0.333 -0.787,-0.281 -0.666,0.079 -0.828,0.364 -2.077,0.599 0,0 -0.292,0.104 -0.792,0.322 -1.505,0.626 -0.781,0.491 -3.172,0.918 -0.167,0.025 -0.256,0.218 -0.235,0.322 0.052,0.183 0.084,0.131 0.084,0.131"
     id="path1112" />
  <path
     style="fill:none;stroke:#231f20;stroke-width:0.565977;stroke-linecap:round;stroke-linejoin:round;stroke-miterlimit:4;stroke-dasharray:none;stroke-opacity:1"
     d="m 422.18085,169.135 c 0.692,0.26 3.943,0.276 4.687,0.239 0.661,-0.026 1.776,0.297 2.224,-0.771 0.193,-0.416 0.161,-1.177 0.068,-1.479 -0.084,-0.25 -0.396,-0.333 -0.787,-0.281 -0.666,0.079 -0.828,0.364 -2.077,0.599 0,0 -0.292,0.104 -0.792,0.322 -1.505,0.626 -0.781,0.491 -3.172,0.918 -0.167,0.025 -0.256,0.218 -0.235,0.322 0.052,0.183 0.084,0.131 0.084,0.131 z"
     id="path1114" />
  <path
     style="fill:#231f20;fill-opacity:1;fill-rule:nonzero;stroke:none"
     d="m 214.97785,146.728 c -1.875,-3.082 -0.296,-3.656 2.563,-6.568 3.125,-3.181 6.723,-6.172 9.765,-7.442 3.401,-1.427 3.376,-1.948 4.865,-0.744 1.489,1.208 1.02,1.822 0.968,3.114 -0.052,1.495 -4.484,4.734 -7.692,8.239 -1.5,1.647 -7.15,5.261 -8.422,4.557 -1.266,-0.708 -2.047,-1.156 -2.047,-1.156"
     id="path1116" />
  <path
     style="fill:none;stroke:#231f20;stroke-width:0.565977;stroke-linecap:butt;stroke-linejoin:miter;stroke-miterlimit:4;stroke-dasharray:none;stroke-opacity:1"
     d="m 214.97785,146.728 c -1.875,-3.082 -0.296,-3.656 2.563,-6.568 3.125,-3.181 6.723,-6.172 9.765,-7.442 3.401,-1.427 3.376,-1.948 4.865,-0.744 1.489,1.208 1.02,1.822 0.968,3.114 -0.052,1.495 -4.484,4.734 -7.692,8.239 -1.5,1.647 -7.15,5.261 -8.422,4.557 -1.266,-0.708 -2.047,-1.156 -2.047,-1.156 z"
     id="path1117" />
  <path
     style="fill:#231f20;fill-opacity:1;fill-rule:nonzero;stroke:none"
     d="m 231.30585,134.056 c -1.588,-1.614 -2.067,-2.062 -0.026,-3.51 0.515,-0.37 2.036,-1.291 2.282,-1.594 0.812,-1.01 1.844,-2.109 7.916,-4.656 0.942,-0.39 2.609,-1.458 3.854,-2.098 1.203,-0.631 1.432,1.79 0.964,2.041 -1.51,0.812 -2.308,1.667 -2.808,2.025 -0.349,0.256 -1.068,0.615 -2.136,1.886 -2.733,3.297 -4.536,3.229 -5.166,3.87 -1.818,1.834 -3,3.776 -3.61,3.511 -0.994,-0.439 -1.27,-1.475 -1.27,-1.475"
     id="path1118" />
  <path
     style="fill:none;stroke:#231f20;stroke-width:0.565977;stroke-linecap:butt;stroke-linejoin:miter;stroke-miterlimit:4;stroke-dasharray:none;stroke-opacity:1"
     d="m 231.30585,134.056 c -1.588,-1.614 -2.067,-2.062 -0.026,-3.51 0.515,-0.37 2.036,-1.291 2.282,-1.594 0.812,-1.01 1.844,-2.109 7.916,-4.656 0.942,-0.39 2.609,-1.458 3.854,-2.098 1.203,-0.631 1.432,1.79 0.964,2.041 -1.51,0.812 -2.308,1.667 -2.808,2.025 -0.349,0.256 -1.068,0.615 -2.136,1.886 -2.733,3.297 -4.536,3.229 -5.166,3.87 -1.818,1.834 -3,3.776 -3.61,3.511 -0.994,-0.439 -1.27,-1.475 -1.27,-1.475 z"
     id="path1119" />
  <path
     style="fill:#231f20;fill-opacity:1;fill-rule:nonzero;stroke:none"
     d="m 247.20185,118.974 c -0.646,0.145 -0.932,1.932 -2.459,3.186 -0.307,0.256 -0.437,0.61 -0.619,0.932 -0.734,1.314 -0.693,2.912 2.782,1.303 0.484,-0.219 1.853,-1.807 2.588,-2.083 1.749,-0.641 3.016,-3.709 2.598,-4.016 -0.906,-0.672 -4.89,0.678 -4.89,0.678"
     id="path1120" />
  <path
     style="fill:none;stroke:#231f20;stroke-width:0.644548;stroke-linecap:round;stroke-linejoin:round;stroke-miterlimit:4;stroke-dasharray:none;stroke-opacity:1"
     d="m 247.20185,118.974 c -0.646,0.145 -0.932,1.932 -2.459,3.186 -0.307,0.256 -0.437,0.61 -0.619,0.932 -0.734,1.314 -0.693,2.912 2.782,1.303 0.484,-0.219 1.853,-1.807 2.588,-2.083 1.749,-0.641 3.016,-3.709 2.598,-4.016 -0.906,-0.672 -4.89,0.678 -4.89,0.678 z"
     id="path1121" />
  <path
     style="fill:#231f20;fill-opacity:1;fill-rule:nonzero;stroke:none"
     d="m 327.84785,148.531 c -0.829,-3.511 0.854,-3.568 4.468,-5.453 3.954,-2.068 8.303,-3.792 11.59,-4.063 3.676,-0.308 3.812,-0.812 4.858,0.797 1.042,1.61 0.402,2.052 -0.046,3.26 -0.511,1.402 -5.73,3.115 -9.86,5.459 -1.938,1.104 -8.427,2.791 -9.416,1.733 -0.99,-1.066 -1.594,-1.733 -1.594,-1.733"
     id="path1122" />
  <path
     style="fill:none;stroke:#231f20;stroke-width:0.565977;stroke-linecap:butt;stroke-linejoin:miter;stroke-miterlimit:4;stroke-dasharray:none;stroke-opacity:1"
     d="m 327.84785,148.531 c -0.829,-3.511 0.854,-3.568 4.468,-5.453 3.954,-2.068 8.303,-3.792 11.59,-4.063 3.676,-0.308 3.812,-0.812 4.858,0.797 1.042,1.61 0.402,2.052 -0.046,3.26 -0.511,1.402 -5.73,3.115 -9.86,5.459 -1.938,1.104 -8.427,2.791 -9.416,1.733 -0.99,-1.066 -1.594,-1.733 -1.594,-1.733 z"
     id="path1123" />
  <path
     style="fill:#231f20;fill-opacity:1;fill-rule:nonzero;stroke:none"
     d="m 347.29585,141.526 c -1.016,-2.027 -1.333,-2.6 1.062,-3.35 0.6,-0.193 2.333,-0.593 2.657,-0.808 1.083,-0.708 2.405,-1.437 8.968,-1.984 1.016,-0.077 2.932,-0.577 4.313,-0.801 1.343,-0.229 0.812,2.145 0.285,2.233 -1.681,0.308 -2.702,0.876 -3.29,1.063 -0.412,0.136 -1.21,0.256 -2.615,1.136 -3.625,2.287 -5.313,1.667 -6.109,2.077 -2.297,1.188 -4.021,2.667 -4.521,2.23 -0.807,-0.724 -0.75,-1.796 -0.75,-1.796"
     id="path1124" />
  <path
     style="fill:none;stroke:#231f20;stroke-width:0.565977;stroke-linecap:butt;stroke-linejoin:miter;stroke-miterlimit:4;stroke-dasharray:none;stroke-opacity:1"
     d="m 347.29585,141.526 c -1.016,-2.027 -1.333,-2.6 1.062,-3.35 0.6,-0.193 2.333,-0.593 2.657,-0.808 1.083,-0.708 2.405,-1.437 8.968,-1.984 1.016,-0.077 2.932,-0.577 4.313,-0.801 1.343,-0.229 0.812,2.145 0.285,2.233 -1.681,0.308 -2.702,0.876 -3.29,1.063 -0.412,0.136 -1.21,0.256 -2.615,1.136 -3.625,2.287 -5.313,1.667 -6.109,2.077 -2.297,1.188 -4.021,2.667 -4.521,2.23 -0.807,-0.724 -0.75,-1.796 -0.75,-1.796 z"
     id="path1125" />
  <path
     style="fill:#231f20;fill-opacity:1;fill-rule:nonzero;stroke:none"
     d="m 366.57585,132.712 c -0.656,-0.062 -1.484,1.547 -3.317,2.271 -0.375,0.147 -0.604,0.448 -0.875,0.693 -1.109,1.022 -1.563,2.558 2.24,2.104 0.525,-0.062 2.323,-1.15 3.104,-1.182 1.859,-0.067 4.015,-2.599 3.713,-3.02 -0.656,-0.918 -4.865,-0.866 -4.865,-0.866"
     id="path1126" />
  <path
     style="fill:none;stroke:#231f20;stroke-width:0.644548;stroke-linecap:round;stroke-linejoin:round;stroke-miterlimit:4;stroke-dasharray:none;stroke-opacity:1"
     d="m 366.57585,132.712 c -0.656,-0.062 -1.484,1.547 -3.317,2.271 -0.375,0.147 -0.604,0.448 -0.875,0.693 -1.109,1.022 -1.563,2.558 2.24,2.104 0.525,-0.062 2.323,-1.15 3.104,-1.182 1.859,-0.067 4.015,-2.599 3.713,-3.02 -0.656,-0.918 -4.865,-0.866 -4.865,-0.866 z"
     id="path1127" />
  <path
     style="fill:#fab41d;fill-opacity:1;fill-rule:nonzero;stroke:none"
     d="m 213.14985,141.051 c -2.823,0.615 -3.593,1.579 -3.864,2.417 -0.631,1.938 -1.245,5.624 -0.5,5.891 3.453,1.244 6.14,-0.672 6.14,-0.672 l 0.495,-0.371 h 0.38 c 0,0 4.261,0.579 5.651,-1.525 0.182,-0.276 -1.417,-4.219 -2.775,-5.427 -0.626,-0.548 -1.61,-1.048 -4.136,-0.573 -0.178,0.031 -0.37,0.349 -0.563,0.385 -0.265,0.052 -0.588,-0.177 -0.828,-0.125"
     id="path1128" />
  <path
     style="fill:none;stroke:#231f20;stroke-width:0.565977;stroke-linecap:butt;stroke-linejoin:miter;stroke-miterlimit:4;stroke-dasharray:none;stroke-opacity:1"
     d="m 213.14985,141.051 c -2.823,0.615 -3.593,1.579 -3.864,2.417 -0.631,1.938 -1.245,5.624 -0.5,5.891 3.453,1.244 6.14,-0.672 6.14,-0.672 l 0.495,-0.371 h 0.38 c 0,0 4.261,0.579 5.651,-1.525 0.182,-0.276 -1.417,-4.219 -2.775,-5.427 -0.626,-0.548 -1.61,-1.048 -4.136,-0.573 -0.178,0.031 -0.37,0.349 -0.563,0.385 -0.265,0.052 -0.588,-0.177 -0.828,-0.125 z"
     id="path1129" />
  <path
     style="fill:#231f20;fill-opacity:1;fill-rule:nonzero;stroke:none"
     d="m 238.24785,169.098 c -0.686,0.234 -3.937,0.166 -4.672,0.12 -0.666,-0.042 -1.79,0.245 -2.213,-0.823 -0.172,-0.432 -0.124,-1.192 -0.02,-1.495 0.077,-0.24 0.4,-0.328 0.791,-0.265 0.661,0.109 0.813,0.385 2.057,0.661 0,0 0.281,0.11 0.787,0.334 1.484,0.677 0.765,0.516 3.136,1.005 0.177,0.031 0.26,0.229 0.229,0.339 -0.052,0.172 -0.095,0.124 -0.095,0.124"
     id="path1130" />
  <path
     style="fill:none;stroke:#231f20;stroke-width:0.565977;stroke-linecap:round;stroke-linejoin:round;stroke-miterlimit:4;stroke-dasharray:none;stroke-opacity:1"
     d="m 238.24785,169.098 c -0.686,0.234 -3.937,0.166 -4.672,0.12 -0.666,-0.042 -1.79,0.245 -2.213,-0.823 -0.172,-0.432 -0.124,-1.192 -0.02,-1.495 0.077,-0.24 0.4,-0.328 0.791,-0.265 0.661,0.109 0.813,0.385 2.057,0.661 0,0 0.281,0.11 0.787,0.334 1.484,0.677 0.765,0.516 3.136,1.005 0.177,0.031 0.26,0.229 0.229,0.339 -0.052,0.172 -0.095,0.124 -0.095,0.124 z"
     id="path1131" />
  <path
     style="fill:#231f20;fill-opacity:1;fill-rule:nonzero;stroke:none"
     d="m 223.97185,169.228 c -0.577,-0.437 -3.681,-1.396 -4.395,-1.582 -0.646,-0.172 -1.624,-0.798 -2.364,0.082 -0.303,0.355 -0.49,1.088 -0.49,1.412 0.006,0.255 0.282,0.438 0.672,0.5 0.662,0.11 0.891,-0.109 2.156,0.026 0,0 0.307,-0.016 0.855,-0.074 1.618,-0.17 0.89,-0.249 3.29,0.038 0.178,0.025 0.319,-0.136 0.328,-0.251 0,-0.176 -0.052,-0.151 -0.052,-0.151"
     id="path1133" />
  <path
     style="fill:none;stroke:#231f20;stroke-width:0.565977;stroke-linecap:round;stroke-linejoin:round;stroke-miterlimit:4;stroke-dasharray:none;stroke-opacity:1"
     d="m 223.97185,169.228 c -0.577,-0.437 -3.681,-1.396 -4.395,-1.582 -0.646,-0.172 -1.624,-0.798 -2.364,0.082 -0.303,0.355 -0.49,1.088 -0.49,1.412 0.006,0.255 0.282,0.438 0.672,0.5 0.662,0.11 0.891,-0.109 2.156,0.026 0,0 0.307,-0.016 0.855,-0.074 1.618,-0.17 0.89,-0.249 3.29,0.038 0.178,0.025 0.319,-0.136 0.328,-0.251 0,-0.176 -0.052,-0.151 -0.052,-0.151 z"
     id="path1135" />
  <path
     style="fill:#fab41d;fill-opacity:1;fill-rule:nonzero;stroke:none"
     d="m 209.42585,145.952 c -0.583,2.23 -0.765,4.287 -1.208,5.547 -0.609,1.729 -1.568,6.349 -0.683,7.328 0,0 0.932,1.709 3.61,0.865 0.974,-0.302 3.276,0.01 3.276,0.01 -0.015,-0.036 -0.031,-0.078 -0.036,-0.114 -0.219,-1.234 0.702,-2.125 2.016,-2.381 l -0.074,0.011 c 1.323,-0.214 2.506,0.365 2.719,1.532 0.005,0.041 0.005,0.082 0.005,0.124 0,0 2.052,-1.094 3.063,-1.14 2.812,-0.142 2.984,-2.323 2.984,-2.323 0.708,-2.043 -1.506,-4.823 -2.583,-6.303 -1.516,-2.093 -2.792,-4.52 -3.401,-5.593 -1.057,-1.855 -3.661,-1.756 -5.199,-1.459 -1.53,0.298 -3.557,0.438 -4.489,3.896"
     id="path1137" />
  <path
     style="fill:none;stroke:#231f20;stroke-width:0.565977;stroke-linecap:butt;stroke-linejoin:miter;stroke-miterlimit:4;stroke-dasharray:none;stroke-opacity:1"
     d="m 209.42585,145.952 c -0.583,2.23 -0.765,4.287 -1.208,5.547 -0.609,1.729 -1.568,6.349 -0.683,7.328 0,0 0.932,1.709 3.61,0.865 0.974,-0.302 3.276,0.01 3.276,0.01 -0.015,-0.036 -0.031,-0.078 -0.036,-0.114 -0.219,-1.234 0.702,-2.125 2.016,-2.381 l -0.074,0.011 c 1.323,-0.214 2.506,0.365 2.719,1.532 0.005,0.041 0.005,0.082 0.005,0.124 0,0 2.052,-1.094 3.063,-1.14 2.812,-0.142 2.984,-2.323 2.984,-2.323 0.708,-2.043 -1.506,-4.823 -2.583,-6.303 -1.516,-2.093 -2.792,-4.52 -3.401,-5.593 -1.057,-1.855 -3.661,-1.756 -5.199,-1.459 -1.53,0.298 -3.557,0.438 -4.489,3.896 z"
     id="path1138" />
  <path
     style="fill:#231f20;fill-opacity:1;fill-rule:nonzero;stroke:none"
     d="m 235.99885,159.603 c -0.375,1.24 -2.183,0.308 -2.699,0.131 -0.509,-0.178 -2.03,-0.506 -3.249,-0.61 -1.224,-0.109 -2.699,-0.756 -5.016,-0.958 -1.219,-0.11 -2.339,-0.979 -2.104,-2.744 0.224,-1.74 1.292,-2.267 2.745,-1.918 1.452,0.355 2.672,1.298 4.115,1.751 1.443,0.457 2.952,0.791 4.151,0.995 1.364,0.229 1.948,0.853 2.062,1.317 0.276,1.161 -0.005,2.036 -0.005,2.036"
     id="path1139" />
  <path
     style="fill:none;stroke:#231f20;stroke-width:0.565977;stroke-linecap:butt;stroke-linejoin:miter;stroke-miterlimit:4;stroke-dasharray:none;stroke-opacity:1"
     d="m 235.99885,159.603 c -0.375,1.24 -2.183,0.308 -2.699,0.131 -0.509,-0.178 -2.03,-0.506 -3.249,-0.61 -1.224,-0.109 -2.699,-0.756 -5.016,-0.958 -1.219,-0.11 -2.339,-0.979 -2.104,-2.744 0.224,-1.74 1.292,-2.267 2.745,-1.918 1.452,0.355 2.672,1.298 4.115,1.751 1.443,0.457 2.952,0.791 4.151,0.995 1.364,0.229 1.948,0.853 2.062,1.317 0.276,1.161 -0.005,2.036 -0.005,2.036 z"
     id="path1140" />
  <path
     style="fill:#231f20;fill-opacity:1;fill-rule:nonzero;stroke:none"
     d="m 233.27485,167.827 c 0.473,-0.443 0.667,-2.38 1.427,-3.796 0.521,-0.959 0.718,-3.693 1.302,-4.605 0.536,-0.838 0.698,-1.276 -0.152,-2.047 -0.504,-0.463 -1.776,-1.015 -2.134,-0.656 -0.839,0.839 -1.199,1.719 -1.38,2.776 -0.21,1.199 -0.486,4.495 -0.48,5.104 0.016,1.527 -0.432,2.109 -0.468,2.516 -0.063,0.755 0.213,0.964 0.692,1.115 0.917,0.281 1.193,-0.407 1.193,-0.407"
     id="path1141" />
  <path
     style="fill:none;stroke:#231f20;stroke-width:0.565977;stroke-linecap:butt;stroke-linejoin:miter;stroke-miterlimit:4;stroke-dasharray:none;stroke-opacity:1"
     d="m 233.27485,167.827 c 0.473,-0.443 0.667,-2.38 1.427,-3.796 0.521,-0.959 0.718,-3.693 1.302,-4.605 0.536,-0.838 0.698,-1.276 -0.152,-2.047 -0.504,-0.463 -1.776,-1.015 -2.134,-0.656 -0.839,0.839 -1.199,1.719 -1.38,2.776 -0.21,1.199 -0.486,4.495 -0.48,5.104 0.016,1.527 -0.432,2.109 -0.468,2.516 -0.063,0.755 0.213,0.964 0.692,1.115 0.917,0.281 1.193,-0.407 1.193,-0.407 z"
     id="path1142" />
  <path
     style="fill:#231f20;fill-opacity:1;fill-rule:nonzero;stroke:none"
     d="m 208.70185,169.296 c 1.297,0.068 1.032,-1.948 1.041,-2.489 0.011,-0.543 0.22,-2.089 0.538,-3.267 0.317,-1.186 0.208,-2.796 0.806,-5.041 0.314,-1.183 -0.129,-2.536 -1.858,-2.916 -1.714,-0.376 -2.579,0.443 -2.74,1.932 -0.162,1.489 0.306,2.953 0.245,4.464 -0.057,1.509 -0.267,3.047 -0.485,4.239 -0.244,1.36 0.141,2.125 0.537,2.385 1,0.656 1.916,0.693 1.916,0.693"
     id="path1143" />
  <path
     style="fill:none;stroke:#231f20;stroke-width:0.565977;stroke-linecap:butt;stroke-linejoin:miter;stroke-miterlimit:4;stroke-dasharray:none;stroke-opacity:1"
     d="m 208.70185,169.296 c 1.297,0.068 1.032,-1.948 1.041,-2.489 0.011,-0.543 0.22,-2.089 0.538,-3.267 0.317,-1.186 0.208,-2.796 0.806,-5.041 0.314,-1.183 -0.129,-2.536 -1.858,-2.916 -1.714,-0.376 -2.579,0.443 -2.74,1.932 -0.162,1.489 0.306,2.953 0.245,4.464 -0.057,1.509 -0.267,3.047 -0.485,4.239 -0.244,1.36 0.141,2.125 0.537,2.385 1,0.656 1.916,0.693 1.916,0.693 z"
     id="path1145" />
  <path
     style="fill:#231f20;fill-opacity:1;fill-rule:nonzero;stroke:none"
     d="m 217.17085,169.114 c -0.557,0.317 -2.464,-0.074 -4.046,0.234 -1.063,0.214 -3.74,-0.406 -4.787,-0.12 -0.959,0.26 -1.417,0.292 -1.907,-0.754 -0.292,-0.615 -0.448,-1.995 0.006,-2.23 1.052,-0.552 2,-0.63 3.062,-0.494 1.203,0.156 4.438,0.869 5.02,1.057 1.448,0.463 2.142,0.208 2.538,0.291 0.744,0.166 0.858,0.49 0.858,1 -0.005,0.953 -0.744,1.016 -0.744,1.016"
     id="path1147" />
  <path
     style="fill:none;stroke:#231f20;stroke-width:0.565977;stroke-linecap:butt;stroke-linejoin:miter;stroke-miterlimit:4;stroke-dasharray:none;stroke-opacity:1"
     d="m 217.17085,169.114 c -0.557,0.317 -2.464,-0.074 -4.046,0.234 -1.063,0.214 -3.74,-0.406 -4.787,-0.12 -0.959,0.26 -1.417,0.292 -1.907,-0.754 -0.292,-0.615 -0.448,-1.995 0.006,-2.23 1.052,-0.552 2,-0.63 3.062,-0.494 1.203,0.156 4.438,0.869 5.02,1.057 1.448,0.463 2.142,0.208 2.538,0.291 0.744,0.166 0.858,0.49 0.858,1 -0.005,0.953 -0.744,1.016 -0.744,1.016 z"
     id="path1149" />
  <path
     style="fill:#ffffff;fill-opacity:1;fill-rule:nonzero;stroke:none"
     d="m 220.43685,155.624 c -1.694,-2.256 -4.418,-3.078 -6.074,-1.833 -1.661,1.244 -1.634,4.093 0.063,6.349 1.699,2.26 4.412,3.083 6.073,1.834 1.667,-1.24 1.635,-4.09 -0.062,-6.35"
     id="path1151" />
  <path
     style="fill:none;stroke:#231f20;stroke-width:0.565977;stroke-linecap:butt;stroke-linejoin:miter;stroke-miterlimit:4;stroke-dasharray:none;stroke-opacity:1"
     d="m 220.43685,155.624 c -1.694,-2.256 -4.418,-3.078 -6.074,-1.833 -1.661,1.244 -1.634,4.093 0.063,6.349 1.699,2.26 4.412,3.083 6.073,1.834 1.667,-1.24 1.635,-4.09 -0.062,-6.35 z"
     id="path1152" />
  <path
     style="fill:#231f20;fill-opacity:1;fill-rule:nonzero;stroke:#231f20;stroke-width:0.565977;stroke-linecap:butt;stroke-linejoin:miter;stroke-miterlimit:4;stroke-dasharray:none;stroke-opacity:1"
     d="m 221.63385,158.27 c -0.167,-0.891 -0.567,-1.807 -1.197,-2.646 -1.688,-2.256 -4.418,-3.078 -6.079,-1.833 -1.656,1.244 -1.629,4.093 0.068,6.349 0.593,0.796 1.317,1.411 2.079,1.823"
     id="path1153" />
  <path
     style="fill:#ffffff;fill-opacity:1;fill-rule:nonzero;stroke:#231f20;stroke-width:0.565977;stroke-linecap:round;stroke-linejoin:round;stroke-miterlimit:4;stroke-dasharray:none;stroke-opacity:1"
     d="m 218.52485,162.556 c 0.948,-0.077 1.901,0.418 2.275,0.11 0.376,-0.298 0.5,-1.886 0.844,-2.578"
     id="path1154" />
  <path
     style="fill:#231f20;fill-opacity:1;fill-rule:nonzero;stroke:none"
     d="m 332.68585,168.583 c -0.583,-0.428 -3.708,-1.339 -4.432,-1.516 -0.646,-0.156 -1.63,-0.771 -2.354,0.125 -0.297,0.364 -0.48,1.104 -0.469,1.416 0.011,0.262 0.287,0.438 0.683,0.5 0.661,0.095 0.885,-0.134 2.161,-0.02 0,0 0.297,-0.016 0.844,-0.089 1.62,-0.192 0.891,-0.255 3.296,-0.011 0.172,0.016 0.313,-0.14 0.319,-0.265 0,-0.177 -0.048,-0.14 -0.048,-0.14"
     id="path1155" />
  <path
     style="fill:none;stroke:#231f20;stroke-width:0.565977;stroke-linecap:round;stroke-linejoin:round;stroke-miterlimit:4;stroke-dasharray:none;stroke-opacity:1"
     d="m 332.68585,168.583 c -0.583,-0.428 -3.708,-1.339 -4.432,-1.516 -0.646,-0.156 -1.63,-0.771 -2.354,0.125 -0.297,0.364 -0.48,1.104 -0.469,1.416 0.011,0.262 0.287,0.438 0.683,0.5 0.661,0.095 0.885,-0.134 2.161,-0.02 0,0 0.297,-0.016 0.844,-0.089 1.62,-0.192 0.891,-0.255 3.296,-0.011 0.172,0.016 0.313,-0.14 0.319,-0.265 0,-0.177 -0.048,-0.14 -0.048,-0.14 z"
     id="path1156" />
  <path
     style="fill:#231f20;fill-opacity:1;fill-rule:nonzero;stroke:none"
     d="m 326.32685,168.786 c -0.573,0.302 -2.469,-0.151 -4.052,0.114 -1.079,0.167 -3.729,-0.541 -4.787,-0.292 -0.964,0.23 -1.432,0.24 -1.88,-0.812 -0.265,-0.63 -0.38,-2.005 0.083,-2.234 1.068,-0.511 2.016,-0.563 3.073,-0.391 1.199,0.197 4.407,1.016 4.979,1.219 1.439,0.521 2.136,0.281 2.527,0.38 0.74,0.193 0.844,0.526 0.833,1.026 -0.036,0.963 -0.776,0.99 -0.776,0.99"
     id="path1158" />
  <path
     style="fill:none;stroke:#231f20;stroke-width:0.565977;stroke-linecap:butt;stroke-linejoin:miter;stroke-miterlimit:4;stroke-dasharray:none;stroke-opacity:1"
     d="m 326.32685,168.786 c -0.573,0.302 -2.469,-0.151 -4.052,0.114 -1.079,0.167 -3.729,-0.541 -4.787,-0.292 -0.964,0.23 -1.432,0.24 -1.88,-0.812 -0.265,-0.63 -0.38,-2.005 0.083,-2.234 1.068,-0.511 2.016,-0.563 3.073,-0.391 1.199,0.197 4.407,1.016 4.979,1.219 1.439,0.521 2.136,0.281 2.527,0.38 0.74,0.193 0.844,0.526 0.833,1.026 -0.036,0.963 -0.776,0.99 -0.776,0.99 z"
     id="path1159" />
  <path
     style="fill:#231f20;fill-opacity:1;fill-rule:nonzero;stroke:none"
     d="m 315.75385,166.916 c -0.812,-1.005 0.985,-1.969 1.422,-2.286 0.438,-0.328 1.567,-1.396 2.339,-2.339 0.781,-0.953 2.156,-1.792 3.64,-3.593 0.776,-0.943 2.125,-1.371 3.443,-0.183 1.312,1.172 1.141,2.349 0.026,3.349 -1.105,1 -2.578,1.463 -3.772,2.395 -1.197,0.928 -2.317,1.996 -3.166,2.86 -0.963,1 -1.807,1.125 -2.255,0.953 -1.115,-0.426 -1.677,-1.156 -1.677,-1.156"
     id="path1161" />
  <path
     style="fill:none;stroke:#231f20;stroke-width:0.565977;stroke-linecap:butt;stroke-linejoin:miter;stroke-miterlimit:4;stroke-dasharray:none;stroke-opacity:1"
     d="m 315.75385,166.916 c -0.812,-1.005 0.985,-1.969 1.422,-2.286 0.438,-0.328 1.567,-1.396 2.339,-2.339 0.781,-0.953 2.156,-1.792 3.64,-3.593 0.776,-0.943 2.125,-1.371 3.443,-0.183 1.312,1.172 1.141,2.349 0.026,3.349 -1.105,1 -2.578,1.463 -3.772,2.395 -1.197,0.928 -2.317,1.996 -3.166,2.86 -0.963,1 -1.807,1.125 -2.255,0.953 -1.115,-0.426 -1.677,-1.156 -1.677,-1.156 z"
     id="path1162" />
  <path
     style="fill:#231f20;fill-opacity:1;fill-rule:nonzero;stroke:none"
     d="m 355.72785,164.239 c 0.041,-0.719 -0.901,-3.844 -1.147,-4.541 -0.213,-0.626 -0.238,-1.787 -1.379,-1.912 -0.463,-0.047 -1.183,0.197 -1.443,0.38 -0.213,0.15 -0.213,0.474 -0.047,0.838 0.282,0.61 0.594,0.672 1.194,1.803 0,0 0.176,0.244 0.525,0.667 1.052,1.249 0.708,0.604 1.812,2.754 0.078,0.156 0.286,0.188 0.39,0.131 0.152,-0.1 0.095,-0.12 0.095,-0.12"
     id="path1163" />
  <path
     style="fill:none;stroke:#231f20;stroke-width:0.565977;stroke-linecap:round;stroke-linejoin:round;stroke-miterlimit:4;stroke-dasharray:none;stroke-opacity:1"
     d="m 355.72785,164.239 c 0.041,-0.719 -0.901,-3.844 -1.147,-4.541 -0.213,-0.626 -0.238,-1.787 -1.379,-1.912 -0.463,-0.047 -1.183,0.197 -1.443,0.38 -0.213,0.15 -0.213,0.474 -0.047,0.838 0.282,0.61 0.594,0.672 1.194,1.803 0,0 0.176,0.244 0.525,0.667 1.052,1.249 0.708,0.604 1.812,2.754 0.078,0.156 0.286,0.188 0.39,0.131 0.152,-0.1 0.095,-0.12 0.095,-0.12 z"
     id="path1164" />
  <path
     style="fill:#231f20;fill-opacity:1;fill-rule:nonzero;stroke:none"
     d="m 352.27485,159.312 c -0.609,-0.229 -1.536,-1.938 -2.797,-2.944 -0.844,-0.681 -2.094,-3.124 -2.99,-3.744 -0.812,-0.557 -1.14,-0.896 -0.661,-1.942 0.297,-0.615 1.24,-1.626 1.724,-1.427 1.093,0.447 1.765,1.113 2.349,2.015 0.656,1.026 2.192,3.953 2.427,4.521 0.579,1.407 1.224,1.771 1.407,2.131 0.353,0.67 0.181,0.973 -0.199,1.296 -0.74,0.62 -1.26,0.094 -1.26,0.094"
     id="path1165" />
  <path
     style="fill:none;stroke:#231f20;stroke-width:0.565977;stroke-linecap:butt;stroke-linejoin:miter;stroke-miterlimit:4;stroke-dasharray:none;stroke-opacity:1"
     d="m 352.27485,159.312 c -0.609,-0.229 -1.536,-1.938 -2.797,-2.944 -0.844,-0.681 -2.094,-3.124 -2.99,-3.744 -0.812,-0.557 -1.14,-0.896 -0.661,-1.942 0.297,-0.615 1.24,-1.626 1.724,-1.427 1.093,0.447 1.765,1.113 2.349,2.015 0.656,1.026 2.192,3.953 2.427,4.521 0.579,1.407 1.224,1.771 1.407,2.131 0.353,0.67 0.181,0.973 -0.199,1.296 -0.74,0.62 -1.26,0.094 -1.26,0.094 z"
     id="path1166" />
  <path
     style="fill:#231f20;fill-opacity:1;fill-rule:nonzero;stroke:none"
     d="m 348.98785,151.786 c 0.198,1.27 -1.838,1.208 -2.374,1.265 -0.547,0.068 -2.058,0.432 -3.199,0.86 -1.151,0.427 -2.765,0.473 -4.948,1.287 -1.14,0.432 -2.525,0.124 -3.077,-1.563 -0.542,-1.677 0.192,-2.6 1.661,-2.917 1.453,-0.312 2.964,0.026 4.464,-0.182 1.495,-0.209 3,-0.568 4.171,-0.896 1.333,-0.385 2.125,-0.068 2.428,0.302 0.754,0.928 0.874,1.844 0.874,1.844"
     id="path1167" />
  <path
     style="fill:none;stroke:#231f20;stroke-width:0.565977;stroke-linecap:butt;stroke-linejoin:miter;stroke-miterlimit:4;stroke-dasharray:none;stroke-opacity:1"
     d="m 348.98785,151.786 c 0.198,1.27 -1.838,1.208 -2.374,1.265 -0.547,0.068 -2.058,0.432 -3.199,0.86 -1.151,0.427 -2.765,0.473 -4.948,1.287 -1.14,0.432 -2.525,0.124 -3.077,-1.563 -0.542,-1.677 0.192,-2.6 1.661,-2.917 1.453,-0.312 2.964,0.026 4.464,-0.182 1.495,-0.209 3,-0.568 4.171,-0.896 1.333,-0.385 2.125,-0.068 2.428,0.302 0.754,0.928 0.874,1.844 0.874,1.844 z"
     id="path1168" />
  <path
     style="fill:#231f20;fill-opacity:1;fill-rule:nonzero;stroke:none"
     d="m 328.91485,150.296 c 0.177,3.599 -1.484,3.359 -5.385,4.558 -4.26,1.312 -8.848,2.229 -12.13,1.901 -3.666,-0.365 -3.896,0.104 -4.63,-1.667 -0.735,-1.772 -0.027,-2.089 0.625,-3.198 0.755,-1.287 7.864,-2.448 12.353,-4.006 2.104,-0.738 6.912,-2.322 7.699,-1.098 0.781,1.224 1.468,3.51 1.468,3.51"
     id="path1169" />
  <path
     style="fill:none;stroke:#231f20;stroke-width:0.565977;stroke-linecap:butt;stroke-linejoin:miter;stroke-miterlimit:4;stroke-dasharray:none;stroke-opacity:1"
     d="m 328.91485,150.296 c 0.177,3.599 -1.484,3.359 -5.385,4.558 -4.26,1.312 -8.848,2.229 -12.13,1.901 -3.666,-0.365 -3.896,0.104 -4.63,-1.667 -0.735,-1.772 -0.027,-2.089 0.625,-3.198 0.755,-1.287 7.864,-2.448 12.353,-4.006 2.104,-0.738 6.912,-2.322 7.699,-1.098 0.781,1.224 1.468,3.51 1.468,3.51 z"
     id="path1170" />
  <path
     style="fill:#231f20;fill-opacity:1;fill-rule:nonzero;stroke:#231f20;stroke-width:0.565977;stroke-linecap:butt;stroke-linejoin:miter;stroke-miterlimit:4;stroke-dasharray:none;stroke-opacity:1"
     d="m 307.60285,151.988 c -0.307,-0.39 -0.921,-0.452 -2.156,-0.238 -0.625,0.109 -2.349,0.541 -2.735,0.5 -1.286,-0.131 -2.797,-0.178 -8.88,2.348 -0.937,0.406 -2.865,0.844 -4.208,1.266 -1.297,0.406 0.266,2.282 0.782,2.124 1.634,-0.505 2.801,-0.468 3.41,-0.572 0.427,-0.062 1.188,-0.328 2.85,-0.188 4.26,0.375 5.484,-0.953 6.385,-0.953 2.573,-0.005 4.781,0.527 5.025,-0.093"
     id="path1171" />
  <path
     style="fill:#fab41d;fill-opacity:1;fill-rule:nonzero;stroke:none"
     d="m 326.30585,145.364 c 2.693,-1.037 3.876,-0.652 4.562,-0.1 1.59,1.267 4.126,4.011 3.651,4.647 -2.203,2.932 -5.495,2.812 -5.495,2.812 l -0.618,-0.036 -0.319,0.208 c 0,0 -3.244,2.823 -5.557,1.833 -0.307,-0.136 -1.14,-4.306 -0.662,-6.062 0.214,-0.807 0.766,-1.766 3.131,-2.755 0.167,-0.068 0.505,0.093 0.687,0.015 0.25,-0.104 0.396,-0.474 0.62,-0.562"
     id="path1172" />
  <path
     style="fill:none;stroke:#231f20;stroke-width:0.565977;stroke-linecap:butt;stroke-linejoin:miter;stroke-miterlimit:4;stroke-dasharray:none;stroke-opacity:1"
     d="m 326.30585,145.364 c 2.693,-1.037 3.876,-0.652 4.562,-0.1 1.59,1.267 4.126,4.011 3.651,4.647 -2.203,2.932 -5.495,2.812 -5.495,2.812 l -0.618,-0.036 -0.319,0.208 c 0,0 -3.244,2.823 -5.557,1.833 -0.307,-0.136 -1.14,-4.306 -0.662,-6.062 0.214,-0.807 0.766,-1.766 3.131,-2.755 0.167,-0.068 0.505,0.093 0.687,0.015 0.25,-0.104 0.396,-0.474 0.62,-0.562 z"
     id="path1173" />
  <path
     style="fill:#fab41d;fill-opacity:1;fill-rule:nonzero;stroke:none"
     d="m 333.17585,147.698 c 0.791,0.364 1.422,3.457 2.156,3.77 0.599,0.255 1.703,1.334 1.766,1.922 0,0 1.052,2.708 0.421,3.172 -0.817,0.598 -2.733,1.76 -2.733,1.76 -0.006,-0.031 -0.011,-0.067 -0.022,-0.094 -0.416,-0.912 -1.625,-0.984 -2.849,-0.442 l 0.068,-0.031 c -1.208,0.567 -1.921,1.572 -1.525,2.437 0.009,0.031 0.03,0.058 0.052,0.083 0,0 -2.814,1.875 -3.126,0.912 -0.505,-1.579 -1.74,-2.547 -1.74,-2.547 -1.093,-1.276 -2.458,0.01 -2.276,-1.516 0.251,-2.156 -0.541,-5.666 -0.385,-6.666 0.265,-1.672 2.213,-3.094 3.641,-3.73 1.427,-0.63 3.995,-0.614 6.552,0.97"
     id="path1174" />
  <path
     style="fill:none;stroke:#231f20;stroke-width:0.506049;stroke-linecap:butt;stroke-linejoin:miter;stroke-miterlimit:4;stroke-dasharray:none;stroke-opacity:1"
     d="m 333.17585,147.698 c 0.791,0.364 1.422,3.457 2.156,3.77 0.599,0.255 1.703,1.334 1.766,1.922 0,0 1.052,2.708 0.421,3.172 -0.817,0.598 -2.733,1.76 -2.733,1.76 -0.006,-0.031 -0.011,-0.067 -0.022,-0.094 -0.416,-0.912 -1.625,-0.984 -2.849,-0.442 l 0.068,-0.031 c -1.208,0.567 -1.921,1.572 -1.525,2.437 0.009,0.031 0.03,0.058 0.052,0.083 0,0 -2.814,1.875 -3.126,0.912 -0.505,-1.579 -1.74,-2.547 -1.74,-2.547 -1.093,-1.276 -2.458,0.01 -2.276,-1.516 0.251,-2.156 -0.541,-5.666 -0.385,-6.666 0.265,-1.672 2.213,-3.094 3.641,-3.73 1.427,-0.63 3.995,-0.614 6.552,0.97 z"
     id="path1175" />
  <path
     style="fill:#ffffff;fill-opacity:1;fill-rule:nonzero;stroke:none"
     d="m 329.92585,160.447 c -2.558,-1.197 -3.916,-3.697 -3.036,-5.577 0.885,-1.876 3.672,-2.434 6.234,-1.23 2.552,1.198 3.916,3.687 3.026,5.567 -0.87,1.885 -3.662,2.439 -6.224,1.24"
     id="path1176" />
  <path
     style="fill:none;stroke:#231f20;stroke-width:0.565977;stroke-linecap:butt;stroke-linejoin:miter;stroke-miterlimit:4;stroke-dasharray:none;stroke-opacity:1"
     d="m 329.92585,160.447 c -2.558,-1.197 -3.916,-3.697 -3.036,-5.577 0.885,-1.876 3.672,-2.434 6.234,-1.23 2.552,1.198 3.916,3.687 3.026,5.567 -0.87,1.885 -3.662,2.439 -6.224,1.24 z"
     id="path1177" />
  <path
     style="fill:#231f20;fill-opacity:1;fill-rule:nonzero;stroke:#231f20;stroke-width:0.565977;stroke-linecap:butt;stroke-linejoin:miter;stroke-miterlimit:4;stroke-dasharray:none;stroke-opacity:1"
     d="m 332.75885,161.083 c -0.907,0.009 -1.885,-0.193 -2.833,-0.636 -2.558,-1.197 -3.916,-3.697 -3.036,-5.577 0.885,-1.876 3.672,-2.434 6.234,-1.23 0.895,0.422 1.646,1 2.203,1.656"
     id="path1178" />
  <path
     style="fill:#ffffff;fill-opacity:1;fill-rule:nonzero;stroke:#231f20;stroke-width:0.565977;stroke-linecap:round;stroke-linejoin:round;stroke-miterlimit:4;stroke-dasharray:none;stroke-opacity:1"
     d="m 336.31585,157.16 c 0.126,0.943 0.798,1.776 0.579,2.204 -0.219,0.432 -1.745,0.875 -2.355,1.354"
     id="path1179" />
  <path
     style="fill:#231f20;fill-opacity:1;fill-rule:nonzero;stroke:none"
     d="m 440.68085,162.515 c -1.25,-0.36 -0.333,-2.183 -0.162,-2.693 0.172,-0.52 0.485,-2.042 0.568,-3.266 0.098,-1.218 0.724,-2.702 0.896,-5.02 0.093,-1.224 0.958,-2.354 2.718,-2.146 1.751,0.208 2.292,1.27 1.954,2.729 -0.339,1.459 -1.266,2.688 -1.703,4.136 -0.437,1.443 -0.751,2.957 -0.937,4.156 -0.224,1.364 -0.83,1.968 -1.298,2.072 -1.161,0.303 -2.036,0.032 -2.036,0.032"
     id="path1180" />
  <path
     style="fill:none;stroke:#231f20;stroke-width:0.565977;stroke-linecap:butt;stroke-linejoin:miter;stroke-miterlimit:4;stroke-dasharray:none;stroke-opacity:1"
     d="m 440.68085,162.515 c -1.25,-0.36 -0.333,-2.183 -0.162,-2.693 0.172,-0.52 0.485,-2.042 0.568,-3.266 0.098,-1.218 0.724,-2.702 0.896,-5.02 0.093,-1.224 0.958,-2.354 2.718,-2.146 1.751,0.208 2.292,1.27 1.954,2.729 -0.339,1.459 -1.266,2.688 -1.703,4.136 -0.437,1.443 -0.751,2.957 -0.937,4.156 -0.224,1.364 -0.83,1.968 -1.298,2.072 -1.161,0.303 -2.036,0.032 -2.036,0.032 z"
     id="path1181" />
  <path
     style="fill:#231f20;fill-opacity:1;fill-rule:nonzero;stroke:none"
     d="m 454.99285,168.854 c -0.568,-0.475 -3.636,-1.547 -4.349,-1.756 -0.635,-0.192 -1.583,-0.859 -2.353,0.005 -0.319,0.333 -0.538,1.063 -0.548,1.38 -0.004,0.261 0.266,0.443 0.652,0.521 0.65,0.142 0.896,-0.078 2.161,0.104 0,0 0.307,0 0.853,-0.046 1.62,-0.099 0.896,-0.203 3.292,0.166 0.172,0.031 0.318,-0.12 0.328,-0.234 0.011,-0.182 -0.036,-0.14 -0.036,-0.14"
     id="path1182" />
  <path
     style="fill:none;stroke:#231f20;stroke-width:0.565977;stroke-linecap:round;stroke-linejoin:round;stroke-miterlimit:4;stroke-dasharray:none;stroke-opacity:1"
     d="m 454.99285,168.854 c -0.568,-0.475 -3.636,-1.547 -4.349,-1.756 -0.635,-0.192 -1.583,-0.859 -2.353,0.005 -0.319,0.333 -0.538,1.063 -0.548,1.38 -0.004,0.261 0.266,0.443 0.652,0.521 0.65,0.142 0.896,-0.078 2.161,0.104 0,0 0.307,0 0.853,-0.046 1.62,-0.099 0.896,-0.203 3.292,0.166 0.172,0.031 0.318,-0.12 0.328,-0.234 0.011,-0.182 -0.036,-0.14 -0.036,-0.14 z"
     id="path1183" />
  <path
     style="fill:#231f20;fill-opacity:1;fill-rule:nonzero;stroke:none"
     d="m 449.82085,167.031 c -0.234,-0.595 -1.958,-1.527 -2.973,-2.756 -0.688,-0.849 -3.147,-2.068 -3.761,-2.953 -0.578,-0.818 -0.916,-1.135 -1.959,-0.646 -0.613,0.292 -1.613,1.255 -1.411,1.724 0.459,1.099 1.126,1.76 2.036,2.328 1.032,0.656 3.975,2.167 4.543,2.391 1.421,0.568 1.785,1.203 2.145,1.391 0.672,0.344 0.974,0.166 1.302,-0.214 0.609,-0.745 0.078,-1.265 0.078,-1.265"
     id="path1185" />
  <path
     style="fill:none;stroke:#231f20;stroke-width:0.565977;stroke-linecap:butt;stroke-linejoin:miter;stroke-miterlimit:4;stroke-dasharray:none;stroke-opacity:1"
     d="m 449.82085,167.031 c -0.234,-0.595 -1.958,-1.527 -2.973,-2.756 -0.688,-0.849 -3.147,-2.068 -3.761,-2.953 -0.578,-0.818 -0.916,-1.135 -1.959,-0.646 -0.613,0.292 -1.613,1.255 -1.411,1.724 0.459,1.099 1.126,1.76 2.036,2.328 1.032,0.656 3.975,2.167 4.543,2.391 1.421,0.568 1.785,1.203 2.145,1.391 0.672,0.344 0.974,0.166 1.302,-0.214 0.609,-0.745 0.078,-1.265 0.078,-1.265 z"
     id="path1186" />
  <path
     style="fill:#fab41d;fill-opacity:1;fill-rule:nonzero;stroke:none"
     d="m 530.83185,162.551 c 0.426,-0.057 -1.975,1.057 -1.912,3.636 0.052,2.083 1.88,3.276 1.88,3.276 -4.536,2.229 -8.578,-1.365 -8.99,-1.151 -2.27,1.151 -8.51,-1.901 -7.64,-2.802 0.162,-0.172 2.167,-0.412 3.14,-2.47 1.147,-2.426 -0.568,-4.64 0.022,-4.228 0.442,0.307 4.458,0.619 6.448,1.114 2.301,0.573 7.052,2.625 7.052,2.625"
     id="path1188" />
  <path
     style="fill:none;stroke:#231f20;stroke-width:0.565977;stroke-linecap:round;stroke-linejoin:round;stroke-miterlimit:4;stroke-dasharray:none;stroke-opacity:1"
     d="m 530.83185,162.551 c 0.426,-0.057 -1.975,1.057 -1.912,3.636 0.052,2.083 1.88,3.276 1.88,3.276 -4.536,2.229 -8.578,-1.365 -8.99,-1.151 -2.27,1.151 -8.51,-1.901 -7.64,-2.802 0.162,-0.172 2.167,-0.412 3.14,-2.47 1.147,-2.426 -0.568,-4.64 0.022,-4.228 0.442,0.307 4.458,0.619 6.448,1.114 2.301,0.573 7.052,2.625 7.052,2.625 z"
     id="path1190" />
  <path
     style="fill:#fab41d;fill-opacity:1;fill-rule:nonzero;stroke:#231f20;stroke-width:0.332927;stroke-linecap:round;stroke-linejoin:round;stroke-miterlimit:4;stroke-dasharray:none;stroke-opacity:1"
     d="m 522.26385,166.906 -0.334,1.333"
     id="path1192" />
  <path
     style="fill:#ffffff;fill-opacity:1;fill-rule:nonzero;stroke:none"
     d="m 632.27385,155.302 c 2.53,1.244 3.84,3.776 2.92,5.634 -0.92,1.86 -3.72,2.36 -6.25,1.099 -2.54,-1.249 -3.84,-3.765 -2.92,-5.624 0.91,-1.871 3.72,-2.365 6.25,-1.109"
     id="path1194" />
  <path
     style="fill:none;stroke:#231f20;stroke-width:0.565977;stroke-linecap:butt;stroke-linejoin:miter;stroke-miterlimit:4;stroke-dasharray:none;stroke-opacity:1"
     d="m 632.27385,155.302 c 2.53,1.244 3.84,3.776 2.92,5.634 -0.92,1.86 -3.72,2.36 -6.25,1.099 -2.54,-1.249 -3.84,-3.765 -2.92,-5.624 0.91,-1.871 3.72,-2.365 6.25,-1.109 z"
     id="path1195" />
  <path
     style="fill:#ffffff;fill-opacity:1;fill-rule:nonzero;stroke:#231f20;stroke-width:0.565977;stroke-linecap:round;stroke-linejoin:round;stroke-miterlimit:4;stroke-dasharray:none;stroke-opacity:1"
     d="m 625.81385,158.452 c -0.1,-0.948 -0.76,-1.792 -0.52,-2.218 0.21,-0.422 1.75,-0.834 2.38,-1.303"
     id="path1196" />
  <path
     style="fill:#231f20;fill-opacity:1;fill-rule:nonzero;stroke:none"
     d="m 613.39985,162.75 c 0.541,-0.344 2.468,-0.043 4.025,-0.418 1.057,-0.254 3.759,0.246 4.789,-0.088 0.95,-0.302 1.41,-0.354 1.94,0.667 0.32,0.604 0.54,1.979 0.09,2.229 -1.03,0.599 -1.96,0.724 -3.03,0.635 -1.205,-0.104 -4.472,-0.677 -5.065,-0.833 -1.464,-0.406 -2.145,-0.115 -2.547,-0.183 -0.745,-0.135 -0.885,-0.452 -0.906,-0.957 -0.036,-0.954 0.704,-1.052 0.704,-1.052"
     id="path1197" />
  <path
     style="fill:none;stroke:#231f20;stroke-width:0.565977;stroke-linecap:butt;stroke-linejoin:miter;stroke-miterlimit:4;stroke-dasharray:none;stroke-opacity:1"
     d="m 613.39985,162.75 c 0.541,-0.344 2.468,-0.043 4.025,-0.418 1.057,-0.254 3.759,0.246 4.789,-0.088 0.95,-0.302 1.41,-0.354 1.94,0.667 0.32,0.604 0.54,1.979 0.09,2.229 -1.03,0.599 -1.96,0.724 -3.03,0.635 -1.205,-0.104 -4.472,-0.677 -5.065,-0.833 -1.464,-0.406 -2.145,-0.115 -2.547,-0.183 -0.745,-0.135 -0.885,-0.452 -0.906,-0.957 -0.036,-0.954 0.704,-1.052 0.704,-1.052 z"
     id="path1198" />
  <path
     style="fill:#231f20;fill-opacity:1;fill-rule:nonzero;stroke:none"
     d="m 606.36185,163.14 c 0.656,-0.308 3.896,-0.609 4.636,-0.646 0.662,-0.031 1.74,-0.448 2.292,0.573 0.224,0.412 0.255,1.161 0.192,1.473 -0.062,0.256 -0.369,0.376 -0.76,0.355 -0.672,-0.025 -0.849,-0.292 -2.12,-0.421 0,0 -0.297,-0.074 -0.817,-0.24 -1.552,-0.506 -0.823,-0.432 -3.235,-0.646 -0.172,-0.016 -0.281,-0.198 -0.26,-0.318 0.031,-0.172 0.072,-0.13 0.072,-0.13"
     id="path1199" />
  <path
     style="fill:none;stroke:#231f20;stroke-width:0.565977;stroke-linecap:round;stroke-linejoin:round;stroke-miterlimit:4;stroke-dasharray:none;stroke-opacity:1"
     d="m 606.36185,163.14 c 0.656,-0.308 3.896,-0.609 4.636,-0.646 0.662,-0.031 1.74,-0.448 2.292,0.573 0.224,0.412 0.255,1.161 0.192,1.473 -0.062,0.256 -0.369,0.376 -0.76,0.355 -0.672,-0.025 -0.849,-0.292 -2.12,-0.421 0,0 -0.297,-0.074 -0.817,-0.24 -1.552,-0.506 -0.823,-0.432 -3.235,-0.646 -0.172,-0.016 -0.281,-0.198 -0.26,-0.318 0.031,-0.172 0.072,-0.13 0.072,-0.13 z"
     id="path1200" />
  <path
     style="fill:#231f20;fill-opacity:1;fill-rule:nonzero;stroke:none"
     d="m 619.28485,164.931 c 0.115,1.292 2.069,0.745 2.609,0.683 0.54,-0.068 2.1,-0.078 3.31,0.068 1.22,0.145 2.8,-0.188 5.11,0.088 1.21,0.146 2.49,-0.484 2.62,-2.255 0.13,-1.751 -0.8,-2.484 -2.3,-2.443 -1.5,0.052 -2.88,0.73 -4.38,0.88 -1.51,0.146 -3.05,0.162 -4.27,0.12 -1.382,-0.052 -2.079,0.432 -2.283,0.864 -0.511,1.084 -0.416,1.995 -0.416,1.995"
     id="path1201" />
  <path
     style="fill:none;stroke:#231f20;stroke-width:0.565977;stroke-linecap:butt;stroke-linejoin:miter;stroke-miterlimit:4;stroke-dasharray:none;stroke-opacity:1"
     d="m 619.28485,164.931 c 0.115,1.292 2.069,0.745 2.609,0.683 0.54,-0.068 2.1,-0.078 3.31,0.068 1.22,0.145 2.8,-0.188 5.11,0.088 1.21,0.146 2.49,-0.484 2.62,-2.255 0.13,-1.751 -0.8,-2.484 -2.3,-2.443 -1.5,0.052 -2.88,0.73 -4.38,0.88 -1.51,0.146 -3.05,0.162 -4.27,0.12 -1.382,-0.052 -2.079,0.432 -2.283,0.864 -0.511,1.084 -0.416,1.995 -0.416,1.995 z"
     id="path1202" />
  <path
     style="fill:#231f20;fill-opacity:1;fill-rule:nonzero;stroke:none"
     d="m 622.59385,153.874 c 0.56,0.313 2.47,-0.067 4.04,0.25 1.07,0.214 3.74,-0.401 4.79,-0.109 0.96,0.271 1.42,0.297 1.92,-0.745 0.28,-0.615 0.45,-1.99 0,-2.23 -1.05,-0.561 -2,-0.64 -3.06,-0.504 -1.21,0.151 -4.44,0.854 -5.03,1.031 -1.45,0.464 -2.14,0.208 -2.54,0.292 -0.74,0.161 -0.86,0.484 -0.86,0.989 0,0.959 0.74,1.026 0.74,1.026"
     id="path1203" />
  <path
     style="fill:none;stroke:#231f20;stroke-width:0.565977;stroke-linecap:butt;stroke-linejoin:miter;stroke-miterlimit:4;stroke-dasharray:none;stroke-opacity:1"
     d="m 622.59385,153.874 c 0.56,0.313 2.47,-0.067 4.04,0.25 1.07,0.214 3.74,-0.401 4.79,-0.109 0.96,0.271 1.42,0.297 1.92,-0.745 0.28,-0.615 0.45,-1.99 0,-2.23 -1.05,-0.561 -2,-0.64 -3.06,-0.504 -1.21,0.151 -4.44,0.854 -5.03,1.031 -1.45,0.464 -2.14,0.208 -2.54,0.292 -0.74,0.161 -0.86,0.484 -0.86,0.989 0,0.959 0.74,1.026 0.74,1.026 z"
     id="path1204" />
  <path
     style="fill:#231f20;fill-opacity:1;fill-rule:nonzero;stroke:none"
     d="m 615.54985,153.77 c 0.667,0.281 3.916,0.448 4.662,0.453 0.652,0.011 1.752,0.38 2.262,-0.667 0.21,-0.41 0.21,-1.172 0.13,-1.478 -0.07,-0.246 -0.37,-0.355 -0.78,-0.323 -0.66,0.057 -0.83,0.328 -2.091,0.509 0,0 -0.292,0.09 -0.808,0.276 -1.531,0.563 -0.807,0.454 -3.203,0.772 -0.177,0.02 -0.276,0.208 -0.256,0.328 0.043,0.172 0.084,0.13 0.084,0.13"
     id="path1205" />
  <path
     style="fill:none;stroke:#231f20;stroke-width:0.565977;stroke-linecap:round;stroke-linejoin:round;stroke-miterlimit:4;stroke-dasharray:none;stroke-opacity:1"
     d="m 615.54985,153.77 c 0.667,0.281 3.916,0.448 4.662,0.453 0.652,0.011 1.752,0.38 2.262,-0.667 0.21,-0.41 0.21,-1.172 0.13,-1.478 -0.07,-0.246 -0.37,-0.355 -0.78,-0.323 -0.66,0.057 -0.83,0.328 -2.091,0.509 0,0 -0.292,0.09 -0.808,0.276 -1.531,0.563 -0.807,0.454 -3.203,0.772 -0.177,0.02 -0.276,0.208 -0.256,0.328 0.043,0.172 0.084,0.13 0.084,0.13 z"
     id="path1206" />
  <path
     style="fill:#231f20;fill-opacity:1;fill-rule:nonzero;stroke:none"
     d="m 632.47385,151.14 c 0.88,-0.948 2.09,0.692 2.48,1.072 0.38,0.38 1.6,1.35 2.65,1.975 1.06,0.629 2.09,1.864 4.08,3.068 1.05,0.629 1.67,1.905 0.69,3.38 -0.97,1.468 -2.16,1.473 -3.31,0.525 -1.15,-0.957 -1.83,-2.344 -2.93,-3.385 -1.09,-1.041 -2.3,-2.005 -3.29,-2.713 -1.12,-0.812 -1.37,-1.626 -1.27,-2.088 0.26,-1.167 0.9,-1.834 0.9,-1.834"
     id="path1207" />
  <path
     style="fill:none;stroke:#231f20;stroke-width:0.565977;stroke-linecap:butt;stroke-linejoin:miter;stroke-miterlimit:4;stroke-dasharray:none;stroke-opacity:1"
     d="m 632.47385,151.14 c 0.88,-0.948 2.09,0.692 2.48,1.072 0.38,0.38 1.6,1.35 2.65,1.975 1.06,0.629 2.09,1.864 4.08,3.068 1.05,0.629 1.67,1.905 0.69,3.38 -0.97,1.468 -2.16,1.473 -3.31,0.525 -1.15,-0.957 -1.83,-2.344 -2.93,-3.385 -1.09,-1.041 -2.3,-2.005 -3.29,-2.713 -1.12,-0.812 -1.37,-1.626 -1.27,-2.088 0.26,-1.167 0.9,-1.834 0.9,-1.834 z"
     id="path1208" />
  <path
     style="fill:#fab41d;fill-opacity:1;fill-rule:nonzero;stroke:none"
     d="m 640.41385,158.968 c 0,0 -0.79,-1.046 -2.66,-1.969 0,0 -6.82,-2.265 -10.52,4.604 0,0 -0.42,1.704 -0.01,3.229 l -0.01,0.016 c -0.75,1.047 -1.03,2.052 -0.68,2.859 0.87,2.005 4.14,-0.197 8.73,-2.203 4.61,-2.005 6.32,-2.322 5.45,-4.328 -0.38,-0.854 1.1,-2.078 -0.3,-2.208"
     id="path1209" />
  <path
     style="fill:none;stroke:#231f20;stroke-width:0.563313;stroke-linecap:butt;stroke-linejoin:miter;stroke-miterlimit:4;stroke-dasharray:none;stroke-opacity:1"
     d="m 640.41385,158.968 c 0,0 -0.79,-1.046 -2.66,-1.969 0,0 -6.82,-2.265 -10.52,4.604 0,0 -0.42,1.704 -0.01,3.229 l -0.01,0.016 c -0.75,1.047 -1.03,2.052 -0.68,2.859 0.87,2.005 4.14,-0.197 8.73,-2.203 4.61,-2.005 6.32,-2.322 5.45,-4.328 -0.38,-0.854 1.1,-2.078 -0.3,-2.208 z"
     id="path1210" />
  <path
     style="fill:#231f20;fill-opacity:1;fill-rule:nonzero;stroke:none"
     d="m 633.29385,166.119 c -0.49,3.573 -2.08,3.031 -6.13,3.484 -4.43,0.5 -9.108,0.552 -12.275,-0.38 -3.541,-1.036 -3.849,-0.615 -4.245,-2.495 -0.396,-1.874 0.36,-2.057 1.208,-3.026 0.985,-1.119 8.136,0.589 12.842,-0.11 2.19,-0.328 7.68,-1.52 8.24,-0.17 0.54,1.342 0.36,2.697 0.36,2.697"
     id="path1211" />
  <path
     style="fill:none;stroke:#231f20;stroke-width:0.565977;stroke-linecap:butt;stroke-linejoin:miter;stroke-miterlimit:4;stroke-dasharray:none;stroke-opacity:1"
     d="m 633.29385,166.119 c -0.49,3.573 -2.08,3.031 -6.13,3.484 -4.43,0.5 -9.108,0.552 -12.275,-0.38 -3.541,-1.036 -3.849,-0.615 -4.245,-2.495 -0.396,-1.874 0.36,-2.057 1.208,-3.026 0.985,-1.119 8.136,0.589 12.842,-0.11 2.19,-0.328 7.68,-1.52 8.24,-0.17 0.54,1.342 0.36,2.697 0.36,2.697 z"
     id="path1213" />
  <path
     style="fill:#231f20;fill-opacity:1;fill-rule:nonzero;stroke:#231f20;stroke-width:0.565977;stroke-linecap:butt;stroke-linejoin:miter;stroke-miterlimit:4;stroke-dasharray:none;stroke-opacity:1"
     d="m 612.55585,167.931 c -0.266,0.428 -0.875,0.552 -2.12,0.469 -0.636,-0.041 -2.396,-0.281 -2.776,-0.197 -1.266,0.265 -2.76,0.473 -9.084,-1.381 -0.974,-0.296 -2.938,-0.526 -4.318,-0.802 -1.333,-0.27 0.022,-2.297 0.547,-2.193 1.683,0.319 2.833,0.156 3.459,0.193 0.426,0.015 1.213,0.198 2.849,-0.12 4.192,-0.822 5.552,0.359 6.448,0.266 2.563,-0.276 4.703,-1.042 5.011,-0.454"
     id="path1215" />
  <path
     style="fill:#231f20;fill-opacity:1;fill-rule:nonzero;stroke:none"
     d="m 637.89385,162.884 c 3.17,1.704 3.67,0.095 6.42,-2.916 3.01,-3.292 5.79,-7.042 6.91,-10.156 1.24,-3.469 1.75,-3.464 0.47,-4.896 -1.29,-1.428 -1.88,-0.922 -3.16,-0.802 -1.49,0.141 -4.57,5.474 -7.9,8.86 -1.56,1.588 -6.06,5.848 -5.29,7.077 0.77,1.229 2.55,2.833 2.55,2.833"
     id="path1216" />
  <path
     style="fill:none;stroke:#231f20;stroke-width:0.565977;stroke-linecap:butt;stroke-linejoin:miter;stroke-miterlimit:4;stroke-dasharray:none;stroke-opacity:1"
     d="m 637.89385,162.884 c 3.17,1.704 3.67,0.095 6.42,-2.916 3.01,-3.292 5.79,-7.042 6.91,-10.156 1.24,-3.469 1.75,-3.464 0.47,-4.896 -1.29,-1.428 -1.88,-0.922 -3.16,-0.802 -1.49,0.141 -4.57,5.474 -7.9,8.86 -1.56,1.588 -6.06,5.848 -5.29,7.077 0.77,1.229 2.55,2.833 2.55,2.833 z"
     id="path1217" />
  <path
     style="fill:#231f20;fill-opacity:1;fill-rule:nonzero;stroke:none"
     d="m 649.67385,145.911 c 1.7,1.495 2.18,1.948 3.51,-0.172 0.33,-0.541 1.16,-2.109 1.45,-2.371 0.96,-0.88 2,-1.978 4.17,-8.186 0.33,-0.97 1.3,-2.694 1.87,-3.975 0.56,-1.239 -1.87,-1.323 -2.09,-0.843 -0.73,1.558 -1.53,2.4 -1.87,2.927 -0.23,0.359 -0.54,1.104 -1.75,2.245 -3.13,2.927 -2.95,4.719 -3.54,5.39 -1.73,1.928 -3.6,3.22 -3.3,3.808 0.5,0.964 1.55,1.177 1.55,1.177"
     id="path1218" />
  <path
     style="fill:none;stroke:#231f20;stroke-width:0.565977;stroke-linecap:butt;stroke-linejoin:miter;stroke-miterlimit:4;stroke-dasharray:none;stroke-opacity:1"
     d="m 649.67385,145.911 c 1.7,1.495 2.18,1.948 3.51,-0.172 0.33,-0.541 1.16,-2.109 1.45,-2.371 0.96,-0.88 2,-1.978 4.17,-8.186 0.33,-0.97 1.3,-2.694 1.87,-3.975 0.56,-1.239 -1.87,-1.323 -2.09,-0.843 -0.73,1.558 -1.53,2.4 -1.87,2.927 -0.23,0.359 -0.54,1.104 -1.75,2.245 -3.13,2.927 -2.95,4.719 -3.54,5.39 -1.73,1.928 -3.6,3.22 -3.3,3.808 0.5,0.964 1.55,1.177 1.55,1.177 z"
     id="path1219" />
  <path
     style="fill:#231f20;fill-opacity:1;fill-rule:nonzero;stroke:none"
     d="m 663.51385,130.176 c -0.12,0.656 -1.89,1.016 -3.08,2.583 -0.24,0.324 -0.59,0.464 -0.92,0.663 -1.28,0.796 -2.88,0.806 -1.41,-2.724 0.2,-0.495 1.73,-1.934 1.98,-2.672 0.57,-1.776 3.59,-3.172 3.9,-2.762 0.71,0.882 -0.47,4.912 -0.47,4.912"
     id="path1220" />
  <path
     style="fill:none;stroke:#231f20;stroke-width:0.644548;stroke-linecap:round;stroke-linejoin:round;stroke-miterlimit:4;stroke-dasharray:none;stroke-opacity:1"
     d="m 663.51385,130.176 c -0.12,0.656 -1.89,1.016 -3.08,2.583 -0.24,0.324 -0.59,0.464 -0.92,0.663 -1.28,0.796 -2.88,0.806 -1.41,-2.724 0.2,-0.495 1.73,-1.934 1.98,-2.672 0.57,-1.776 3.59,-3.172 3.9,-2.762 0.71,0.882 -0.47,4.912 -0.47,4.912 z"
     id="path1221" />
  <path
     style="fill:#231f20;fill-opacity:1;fill-rule:nonzero;stroke:none"
     d="m 590.33685,167.255 c 0.599,0.291 1.953,-0.912 3.916,-0.928 0.401,0 0.724,-0.192 1.068,-0.328 1.412,-0.552 2.375,-1.823 -1.333,-2.771 -0.516,-0.125 -2.579,0.24 -3.323,-0.016 -1.76,-0.598 -4.683,0.98 -4.547,1.486 0.276,1.082 4.219,2.557 4.219,2.557"
     id="path1222" />
  <path
     style="fill:none;stroke:#231f20;stroke-width:0.644548;stroke-linecap:round;stroke-linejoin:round;stroke-miterlimit:4;stroke-dasharray:none;stroke-opacity:1"
     d="m 590.33685,167.255 c 0.599,0.291 1.953,-0.912 3.916,-0.928 0.401,0 0.724,-0.192 1.068,-0.328 1.412,-0.552 2.375,-1.823 -1.333,-2.771 -0.516,-0.125 -2.579,0.24 -3.323,-0.016 -1.76,-0.598 -4.683,0.98 -4.547,1.486 0.276,1.082 4.219,2.557 4.219,2.557 z"
     id="path1223" />
  <path
     style="fill:#fab41d;fill-opacity:1;fill-rule:nonzero;stroke:none"
     d="m 626.17385,163.635 c -0.43,0.067 2.19,0.443 2.88,2.932 0.55,2.011 -0.85,3.677 -0.85,3.677 4.98,0.818 7.81,-3.786 8.27,-3.708 2.51,0.447 7.59,-4.277 6.5,-4.89 -0.21,-0.115 -2.19,0.238 -3.73,-1.454 -1.79,-1.989 -0.79,-4.609 -1.24,-4.042 -0.33,0.422 -4.09,1.885 -5.85,2.938 -2.03,1.214 -5.98,4.547 -5.98,4.547"
     id="path1224" />
  <path
     style="fill:none;stroke:#231f20;stroke-width:0.565977;stroke-linecap:round;stroke-linejoin:round;stroke-miterlimit:4;stroke-dasharray:none;stroke-opacity:1"
     d="m 626.17385,163.635 c -0.43,0.067 2.19,0.443 2.88,2.932 0.55,2.011 -0.85,3.677 -0.85,3.677 4.98,0.818 7.81,-3.786 8.27,-3.708 2.51,0.447 7.59,-4.277 6.5,-4.89 -0.21,-0.115 -2.19,0.238 -3.73,-1.454 -1.79,-1.989 -0.79,-4.609 -1.24,-4.042 -0.33,0.422 -4.09,1.885 -5.85,2.938 -2.03,1.214 -5.98,4.547 -5.98,4.547 z"
     id="path1226" />
  <path
     style="fill:#fab41d;fill-opacity:1;fill-rule:nonzero;stroke:#231f20;stroke-width:0.332927;stroke-linecap:round;stroke-linejoin:round;stroke-miterlimit:4;stroke-dasharray:none;stroke-opacity:1"
     d="m 635.63385,165.327 0.7,1.177"
     id="path1228" />
  <path
     style="fill:none;stroke:#918f8f;stroke-width:1.33171;stroke-linecap:butt;stroke-linejoin:miter;stroke-miterlimit:4;stroke-dasharray:none;stroke-opacity:1"
     d="M 0.66585499,1.77 V 169.655"
     id="path1378" />
</svg>
