<?xml version="1.0" encoding="UTF-8" standalone="no"?>
<!-- Created with Inkscape (http://www.inkscape.org/) -->

<svg
   version="1.1"
   id="svg1"
   width="336.63904"
   height="142.20932"
   viewBox="0 0 336.63902 142.20932"
   sodipodi:docname="cell.svg"
   xmlns:inkscape="http://www.inkscape.org/namespaces/inkscape"
   xmlns:sodipodi="http://sodipodi.sourceforge.net/DTD/sodipodi-0.dtd"
   xmlns="http://www.w3.org/2000/svg"
   xmlns:svg="http://www.w3.org/2000/svg">
  <sodipodi:namedview
     id="namedview1"
     pagecolor="#ffffff"
     bordercolor="#000000"
     borderopacity="0.25"
     inkscape:showpageshadow="2"
     inkscape:pageopacity="0.0"
     inkscape:pagecheckerboard="0"
     inkscape:deskcolor="#d1d1d1">
    <inkscape:page
       x="0"
       y="0"
       inkscape:label="1"
       id="page1"
       width="336.63901"
       height="142.20932"
       margin="0"
       bleed="0" />
  </sodipodi:namedview>
  <defs
     id="defs1" />
  <path
     style="fill:#231f20;fill-opacity:1;fill-rule:nonzero;stroke:none"
     d="m 188.31321,15.332872 c -0.568,0.312 -2.468,-0.079 -4.047,0.219 -1.068,0.202 -3.745,-0.432 -4.792,-0.147 -0.953,0.256 -1.426,0.281 -1.896,-0.765 -0.285,-0.62 -0.442,-1.995 0.022,-2.23 1.052,-0.552 1.994,-0.624 3.046,-0.484 1.208,0.162 4.438,0.891 5.022,1.079 1.448,0.479 2.134,0.224 2.536,0.312 0.74,0.172 0.86,0.495 0.86,1.005 -0.011,0.954 -0.751,1.011 -0.751,1.011"
     id="path156" />
  <path
     style="fill:none;stroke:#231f20;stroke-width:0.565977;stroke-linecap:butt;stroke-linejoin:miter;stroke-miterlimit:4;stroke-dasharray:none;stroke-opacity:1"
     d="m 188.31321,15.332872 c -0.568,0.312 -2.468,-0.079 -4.047,0.219 -1.068,0.202 -3.745,-0.432 -4.792,-0.147 -0.953,0.256 -1.426,0.281 -1.896,-0.765 -0.285,-0.62 -0.442,-1.995 0.022,-2.23 1.052,-0.552 1.994,-0.624 3.046,-0.484 1.208,0.162 4.438,0.891 5.022,1.079 1.448,0.479 2.134,0.224 2.536,0.312 0.74,0.172 0.86,0.495 0.86,1.005 -0.011,0.954 -0.751,1.011 -0.751,1.011 z"
     id="path157" />
  <path
     style="fill:#231f20;fill-opacity:1;fill-rule:nonzero;stroke:none"
     d="m 179.01221,14.461872 c -0.21,1.282 -2.126,0.584 -2.658,0.48 -0.53,-0.1 -2.082,-0.224 -3.301,-0.172 -1.224,0.063 -2.776,-0.39 -5.104,-0.276 -1.224,0.052 -2.448,-0.666 -2.453,-2.442 0.005,-1.756 0.979,-2.4230005 2.473,-2.2620005 1.491,0.152 2.824,0.9280005 4.308,1.1880005 1.489,0.26 3.036,0.391 4.249,0.432 1.376,0.047 2.043,0.595 2.214,1.027 0.428,1.125 0.272,2.025 0.272,2.025"
     id="path158" />
  <path
     style="fill:none;stroke:#231f20;stroke-width:0.565977;stroke-linecap:butt;stroke-linejoin:miter;stroke-miterlimit:4;stroke-dasharray:none;stroke-opacity:1"
     d="m 179.01221,14.461872 c -0.21,1.282 -2.126,0.584 -2.658,0.48 -0.53,-0.1 -2.082,-0.224 -3.301,-0.172 -1.224,0.063 -2.776,-0.39 -5.104,-0.276 -1.224,0.052 -2.448,-0.666 -2.453,-2.442 0.005,-1.756 0.979,-2.4230005 2.473,-2.2620005 1.491,0.152 2.824,0.9280005 4.308,1.1880005 1.489,0.26 3.036,0.391 4.249,0.432 1.376,0.047 2.043,0.595 2.214,1.027 0.428,1.125 0.272,2.025 0.272,2.025 z"
     id="path159" />
  <path
     style="fill:#231f20;fill-opacity:1;fill-rule:nonzero;stroke:none"
     d="m 195.29721,14.144872 c -0.635,-0.339 -3.859,-0.817 -4.593,-0.896 -0.667,-0.077 -1.719,-0.552 -2.323,0.432 -0.24,0.401 -0.323,1.157 -0.271,1.469 0.042,0.255 0.339,0.391 0.739,0.391 0.667,0.016 0.86,-0.251 2.136,-0.303 0,0 0.303,-0.057 0.833,-0.192 1.584,-0.412 0.844,-0.38 3.266,-0.458 0.172,-0.006 0.292,-0.183 0.276,-0.298 -0.02,-0.176 -0.063,-0.145 -0.063,-0.145"
     id="path160" />
  <path
     style="fill:none;stroke:#231f20;stroke-width:0.565977;stroke-linecap:round;stroke-linejoin:round;stroke-miterlimit:4;stroke-dasharray:none;stroke-opacity:1"
     d="m 195.29721,14.144872 c -0.635,-0.339 -3.859,-0.817 -4.593,-0.896 -0.667,-0.077 -1.719,-0.552 -2.323,0.432 -0.24,0.401 -0.323,1.157 -0.271,1.469 0.042,0.255 0.339,0.391 0.739,0.391 0.667,0.016 0.86,-0.251 2.136,-0.303 0,0 0.303,-0.057 0.833,-0.192 1.584,-0.412 0.844,-0.38 3.266,-0.458 0.172,-0.006 0.292,-0.183 0.276,-0.298 -0.02,-0.176 -0.063,-0.145 -0.063,-0.145 z"
     id="path161" />
  <path
     style="fill:#fab41d;fill-opacity:1;fill-rule:nonzero;stroke:none"
     d="m 19.277514,89.398871 c -2.0266,2.391 -2.724,2.688 -3.5411,3.1 -5.1666,2.599 -3.7922,5.083 -1.2975,6.515 2.9427,1.682999 3.9683,2.348999 7.5522,-2.823 0.9948,-1.437 5.5519,-6.453 5.5519,-6.453 1.8642,-1.583 2.8547,-4.115 2.4642,-5.515 -0.4172,-1.485 -0.3656,-0.87 -0.9948,-2.157 -0.6,-1.243999 -2.4224,-2.446999 -3.6093,-2.103999 -1.1412,0.324 -1.5678,1.936999 -2.4746,4.182999 -0.724,1.77 -3.651,5.254 -3.651,5.254"
     id="path162" />
  <path
     style="fill:none;stroke:#231f20;stroke-width:0.565977;stroke-linecap:butt;stroke-linejoin:miter;stroke-miterlimit:4;stroke-dasharray:none;stroke-opacity:1"
     d="m 19.277514,89.398871 c -2.0266,2.391 -2.724,2.688 -3.5411,3.1 -5.1666,2.599 -3.7922,5.083 -1.2975,6.515 2.9427,1.682999 3.9683,2.348999 7.5522,-2.823 0.9948,-1.437 5.5519,-6.453 5.5519,-6.453 1.8642,-1.583 2.8547,-4.115 2.4642,-5.515 -0.4172,-1.485 -0.3656,-0.87 -0.9948,-2.157 -0.6,-1.243999 -2.4224,-2.446999 -3.6093,-2.103999 -1.1412,0.324 -1.5678,1.936999 -2.4746,4.182999 -0.724,1.77 -3.651,5.254 -3.651,5.254 z"
     id="path163" />
  <path
     style="fill:#ffffff;fill-opacity:1;fill-rule:nonzero;stroke:none"
     d="m 33.064414,75.346872 c 0.0464,-0.244 1.2026,-0.301 1.2188,-0.828 0.0104,-0.52 -0.7563,-0.733 -1.5631,-2.557 l -0.0052,-0.02 c -0.5463,-1.339 -1.5624,-2.297 -2.8119,-2.428 -2.0677,-0.213 -3.9745,1.896 -4.2719,4.699 -0.2906,2.817 1.1521,5.254 3.2146,5.478 1.9735,0.214 3.812,-1.713 4.2187,-4.344"
     id="path164" />
  <path
     style="fill:none;stroke:#231f20;stroke-width:0.565977;stroke-linecap:butt;stroke-linejoin:miter;stroke-miterlimit:4;stroke-dasharray:none;stroke-opacity:1"
     d="m 33.064414,75.346872 c 0.0464,-0.244 1.2026,-0.301 1.2188,-0.828 0.0104,-0.52 -0.7563,-0.733 -1.5631,-2.557 l -0.0052,-0.02 c -0.5463,-1.339 -1.5624,-2.297 -2.8119,-2.428 -2.0677,-0.213 -3.9745,1.896 -4.2719,4.699 -0.2906,2.817 1.1521,5.254 3.2146,5.478 1.9735,0.214 3.812,-1.713 4.2187,-4.344 z"
     id="path165" />
  <path
     style="fill:#231f20;fill-opacity:1;fill-rule:nonzero;stroke:none"
     d="m 9.8192139,115.50887 c -2.0469,-0.968 -2.5786,-0.875 -3.036,-0.036 -0.3188,0.557 -0.7973,0.964 -1,1.292 -0.688,1.093 -1.3801,3.245 -1.7812,9.812 -0.0844,1.485 -0.2297,3.584 -0.3604,4.428 -0.1865,1.338 2.1776,0.765 2.2615,0.228 0.2708,-1.692 0.588,-2.823 0.7656,-3.422 0.1249,-0.412 0.2385,-1.166 0.9317,-2.688 1.036,-2.301 1.9948,-3.53 2.6307001,-5.546 0.3011,-0.938 1.1147,-1.454 0.9319,-2.52 -0.1719,-1.074 -1.3438001,-1.548 -1.3438001,-1.548"
     id="path166" />
  <path
     style="fill:none;stroke:#231f20;stroke-width:0.565977;stroke-linecap:butt;stroke-linejoin:miter;stroke-miterlimit:4;stroke-dasharray:none;stroke-opacity:1"
     d="m 9.8192139,115.50887 c -2.0469,-0.968 -2.5786,-0.875 -3.036,-0.036 -0.3188,0.557 -0.7973,0.964 -1,1.292 -0.688,1.093 -1.3801,3.245 -1.7812,9.812 -0.0844,1.485 -0.2297,3.584 -0.3604,4.428 -0.1865,1.338 2.1776,0.765 2.2615,0.228 0.2708,-1.692 0.588,-2.823 0.7656,-3.422 0.1249,-0.412 0.2385,-1.166 0.9317,-2.688 1.036,-2.301 1.9948,-3.53 2.6307001,-5.546 0.3011,-0.938 1.1147,-1.454 0.9319,-2.52 -0.1719,-1.074 -1.3438001,-1.548 -1.3438001,-1.548 z"
     id="path167" />
  <path
     style="fill:#231f20;fill-opacity:1;fill-rule:nonzero;stroke:#231f20;stroke-width:0.565977;stroke-linecap:round;stroke-linejoin:round;stroke-miterlimit:4;stroke-dasharray:none;stroke-opacity:1"
     d="m 10.564414,117.90487 c 1.3282,-0.484 1.5054,-2.635 1.6762,-2.927 2.5478,-4.323 2.6145,-4.697 4.3186,-8.115 2.4729,-4.953 3.3959,-8.717999 0.9371,-10.999999 -1.6667,-1.536 -3.3027,-1.702 -4.4891,-1.134 -1.3136,0.634 -3.2188001,3.176 -2.1989,5.873999 l -0.3276,1.683 c -0.3641,1.104 -0.5417001,1.651 -0.7548001,2.181 -0.3963,0.923 -0.7561,1.938 -1.4176,3.782 -1.1609,3.276 -1.3276,7.114 -1.3276,7.114 -0.0991,0.292 -0.0683,0.574 0.0317,0.823"
     id="path168" />
  <path
     style="fill:#fab41d;fill-opacity:1;fill-rule:nonzero;stroke:none"
     d="m 17.860314,95.676871 c -1.6615,-1.543 -3.2906,-1.724 -4.4787,-1.158 -1.3172,0.631 -3.2452,3.162 -2.2186,5.865999 l 7.0734,3.312 c 1.3853,-3.495 1.5613,-6.218999 -0.3761,-8.019999"
     id="path169" />
  <path
     style="fill:none;stroke:#231f20;stroke-width:0.565977;stroke-linecap:butt;stroke-linejoin:miter;stroke-miterlimit:4;stroke-dasharray:none;stroke-opacity:1"
     d="m 17.860314,95.676871 c -1.6615,-1.543 -3.2906,-1.724 -4.4787,-1.158 -1.3172,0.631 -3.2452,3.162 -2.2186,5.865999 l 7.0734,3.312 c 1.3853,-3.495 1.5613,-6.218999 -0.3761,-8.019999 z"
     id="path170" />
  <path
     style="fill:#231f20;fill-opacity:1;fill-rule:nonzero;stroke:none"
     d="m 46.214914,82.097871 c -0.4839,0.421 -2.4318,0.432 -3.9172,1.052 -1,0.421 -3.7443,0.355 -4.7135,0.849 -0.8854,0.448 -1.3333,0.572 -2.0145,-0.349 -0.412,-0.547 -0.8439,-1.869 -0.4532,-2.187999 0.9265,-0.749 1.8276,-1.025 2.8959,-1.104 1.2134,-0.093 4.5254,-0.052 5.1291,0.011 1.5162,0.166 2.1416,-0.224 2.5468,-0.224 0.7615,0.016 0.9427,0.312 1.0427,0.802 0.1975,0.947999 -0.5161,1.150999 -0.5161,1.150999"
     id="path171" />
  <path
     style="fill:none;stroke:#231f20;stroke-width:0.565977;stroke-linecap:butt;stroke-linejoin:miter;stroke-miterlimit:4;stroke-dasharray:none;stroke-opacity:1"
     d="m 46.214914,82.097871 c -0.4839,0.421 -2.4318,0.432 -3.9172,1.052 -1,0.421 -3.7443,0.355 -4.7135,0.849 -0.8854,0.448 -1.3333,0.572 -2.0145,-0.349 -0.412,-0.547 -0.8439,-1.869 -0.4532,-2.187999 0.9265,-0.749 1.8276,-1.025 2.8959,-1.104 1.2134,-0.093 4.5254,-0.052 5.1291,0.011 1.5162,0.166 2.1416,-0.224 2.5468,-0.224 0.7615,0.016 0.9427,0.312 1.0427,0.802 0.1975,0.947999 -0.5161,1.150999 -0.5161,1.150999 z"
     id="path172" />
  <path
     style="fill:#231f20;fill-opacity:1;fill-rule:nonzero;stroke:none"
     d="m 37.912414,82.898871 c 0.152,1.292 -1.8803,1.158 -2.4162,1.204 -0.5412,0.047 -2.0677,0.354 -3.224,0.75 -1.1614,0.401 -2.776,0.396 -4.9838,1.141 -1.152,0.391 -2.5317,0.041 -3.0213,-1.667 -0.4948,-1.682 0.265,-2.598 1.7453,-2.859999 1.4682,-0.26 2.9625,0.109999 4.4682,-0.046 1.5052,-0.156 3.0214,-0.464 4.1984,-0.76 1.3386,-0.339 2.124,-0.006 2.411,0.38 0.724,0.947999 0.8224,1.857999 0.8224,1.857999"
     id="path173" />
  <path
     style="fill:none;stroke:#231f20;stroke-width:0.565977;stroke-linecap:butt;stroke-linejoin:miter;stroke-miterlimit:4;stroke-dasharray:none;stroke-opacity:1"
     d="m 37.912414,82.898871 c 0.152,1.292 -1.8803,1.158 -2.4162,1.204 -0.5412,0.047 -2.0677,0.354 -3.224,0.75 -1.1614,0.401 -2.776,0.396 -4.9838,1.141 -1.152,0.391 -2.5317,0.041 -3.0213,-1.667 -0.4948,-1.682 0.265,-2.598 1.7453,-2.859999 1.4682,-0.26 2.9625,0.109999 4.4682,-0.046 1.5052,-0.156 3.0214,-0.464 4.1984,-0.76 1.3386,-0.339 2.124,-0.006 2.411,0.38 0.724,0.947999 0.8224,1.857999 0.8224,1.857999 z"
     id="path174" />
  <path
     style="fill:#231f20;fill-opacity:1;fill-rule:nonzero;stroke:none"
     d="m 52.907114,81.040872 c -0.6188,0.401 -3.7906,1.103999 -4.5204,1.223999 -0.6557,0.12 -1.677,0.666 -2.3437,-0.287 -0.276,-0.359 -0.4015,-1.108999 -0.3744,-1.431999 0.0249,-0.256 0.312,-0.407 0.7077,-0.437 0.6615,-0.063 0.8803,0.181 2.1558,0.15 0,0 0.3032,0.036 0.839,0.146 1.6038,0.292 0.8694,0.313 3.2975,0.224 0.1667,-0.006 0.2957,0.157 0.2916,0.27 -0.0052,0.188 -0.0531,0.142 -0.0531,0.142"
     id="path175" />
  <path
     style="fill:none;stroke:#231f20;stroke-width:0.565977;stroke-linecap:round;stroke-linejoin:round;stroke-miterlimit:4;stroke-dasharray:none;stroke-opacity:1"
     d="m 52.907114,81.040872 c -0.6188,0.401 -3.7906,1.103999 -4.5204,1.223999 -0.6557,0.12 -1.677,0.666 -2.3437,-0.287 -0.276,-0.359 -0.4015,-1.108999 -0.3744,-1.431999 0.0249,-0.256 0.312,-0.407 0.7077,-0.437 0.6615,-0.063 0.8803,0.181 2.1558,0.15 0,0 0.3032,0.036 0.839,0.146 1.6038,0.292 0.8694,0.313 3.2975,0.224 0.1667,-0.006 0.2957,0.157 0.2916,0.27 -0.0052,0.188 -0.0531,0.142 -0.0531,0.142 z"
     id="path176" />
  <path
     style="fill:#231f20;fill-opacity:1;fill-rule:nonzero;stroke:none"
     d="m 2.4338139,133.24287 c -0.7599,-1.124 -0.1828,-1.937 0.812,-2.197 0.3077,-0.073 0.4744,-0.459 0.7812,-0.511 0.6932,-0.12 2.0838,0.932 1.4948,2.318 -0.0359,0.094 -0.1146,0.912 -0.2599,1.516 -0.3016,1.172 -1.4683,3.38 -4.0573,4.156 -1.21869997,0.365 -1.20829997,-0.427 -0.76039997,-0.73 1.42699997,-0.937 1.36979997,-1.301 1.65099997,-1.692 0.9746,-1.297 0.3386,-2.86 0.3386,-2.86"
     id="path177" />
  <path
     style="fill:none;stroke:#231f20;stroke-width:0.332927;stroke-linecap:butt;stroke-linejoin:miter;stroke-miterlimit:4;stroke-dasharray:none;stroke-opacity:1"
     d="m 2.4338139,133.24287 c -0.7599,-1.124 -0.1828,-1.937 0.812,-2.197 0.3077,-0.073 0.4744,-0.459 0.7812,-0.511 0.6932,-0.12 2.0838,0.932 1.4948,2.318 -0.0359,0.094 -0.1146,0.912 -0.2599,1.516 -0.3016,1.172 -1.4683,3.38 -4.0573,4.156 -1.21869997,0.365 -1.20829997,-0.427 -0.76039997,-0.73 1.42699997,-0.937 1.36979997,-1.301 1.65099997,-1.692 0.9746,-1.297 0.3386,-2.86 0.3386,-2.86 z"
     id="path178" />
  <path
     style="fill:#fab41d;fill-opacity:1;fill-rule:nonzero;stroke:none"
     d="m 209.93321,69.280872 c -2.177,-2.251 -2.401,-2.975 -2.735,-3.834 -2.072,-5.396 -4.682,-4.276 -6.353,-1.928 -1.969,2.756 -2.729,3.714 2.061,7.792 1.334,1.136 5.882,6.156 5.882,6.156 1.385,2.016 3.812,3.251 5.244,2.995 1.516,-0.265 0.896,-0.271 2.245,-0.771 1.296,-0.478 2.672,-2.172 2.448,-3.39 -0.213,-1.167 -1.776,-1.744 -3.923,-2.87 -1.686,-0.896 -4.869,-4.15 -4.869,-4.15"
     id="path179" />
  <path
     style="fill:none;stroke:#231f20;stroke-width:0.565977;stroke-linecap:butt;stroke-linejoin:miter;stroke-miterlimit:4;stroke-dasharray:none;stroke-opacity:1"
     d="m 209.93321,69.280872 c -2.177,-2.251 -2.401,-2.975 -2.735,-3.834 -2.072,-5.396 -4.682,-4.276 -6.353,-1.928 -1.969,2.756 -2.729,3.714 2.061,7.792 1.334,1.136 5.882,6.156 5.882,6.156 1.385,2.016 3.812,3.251 5.244,2.995 1.516,-0.265 0.896,-0.271 2.245,-0.771 1.296,-0.478 2.672,-2.172 2.448,-3.39 -0.213,-1.167 -1.776,-1.744 -3.923,-2.87 -1.686,-0.896 -4.869,-4.15 -4.869,-4.15 z"
     id="path180" />
  <path
     style="fill:#ffffff;fill-opacity:1;fill-rule:nonzero;stroke:none"
     d="m 222.55821,84.384871 c 0.239,0.072 0.182,1.229 0.703,1.292 0.521,0.061 0.808,-0.683 2.699,-1.298 l 0.025,-0.01 c 1.385,-0.407 2.437,-1.328 2.688,-2.558 0.416,-2.035999 -1.491,-4.139999 -4.251,-4.712999 -2.776,-0.568 -5.344,0.625 -5.77,2.661 -0.407,1.942999 1.333,3.958999 3.906,4.625999"
     id="path181" />
  <path
     style="fill:none;stroke:#231f20;stroke-width:0.565977;stroke-linecap:butt;stroke-linejoin:miter;stroke-miterlimit:4;stroke-dasharray:none;stroke-opacity:1"
     d="m 222.55821,84.384871 c 0.239,0.072 0.182,1.229 0.703,1.292 0.521,0.061 0.808,-0.683 2.699,-1.298 l 0.025,-0.01 c 1.385,-0.407 2.437,-1.328 2.688,-2.558 0.416,-2.035999 -1.491,-4.139999 -4.251,-4.712999 -2.776,-0.568 -5.344,0.625 -5.77,2.661 -0.407,1.942999 1.333,3.958999 3.906,4.625999 z"
     id="path182" />
  <path
     style="fill:#ffffff;fill-opacity:1;fill-rule:nonzero;stroke:none"
     d="m 189.53721,51.920872 c 1.828,-1.339 2,-1.85 1.484,-2.651 -0.343,-0.541 -0.468,-1.156 -0.661,-1.5 -0.635,-1.12 -2.187,-2.756 -7.771,-6.245 -1.265,-0.782 -3.036,-1.911 -3.719,-2.427 -1.088,-0.808 -1.713,1.547 -1.281,1.875 1.36,1.041 2.204,1.865 2.641,2.308 0.302,0.306 0.906,0.765 1.916,2.098 1.532,2.011 2.151,3.438 3.62,4.964 0.678,0.708 0.746,1.671 1.771,2.02 1.021,0.366 2,-0.442 2,-0.442"
     id="path183" />
  <path
     style="fill:none;stroke:#231f20;stroke-width:0.565977;stroke-linecap:butt;stroke-linejoin:miter;stroke-miterlimit:4;stroke-dasharray:none;stroke-opacity:1"
     d="m 189.53721,51.920872 c 1.828,-1.339 2,-1.85 1.484,-2.651 -0.343,-0.541 -0.468,-1.156 -0.661,-1.5 -0.635,-1.12 -2.187,-2.756 -7.771,-6.245 -1.265,-0.782 -3.036,-1.911 -3.719,-2.427 -1.088,-0.808 -1.713,1.547 -1.281,1.875 1.36,1.041 2.204,1.865 2.641,2.308 0.302,0.306 0.906,0.765 1.916,2.098 1.532,2.011 2.151,3.438 3.62,4.964 0.678,0.708 0.746,1.671 1.771,2.02 1.021,0.366 2,-0.442 2,-0.442 z"
     id="path184" />
  <path
     style="fill:#ffffff;fill-opacity:1;fill-rule:nonzero;stroke:#231f20;stroke-width:0.565977;stroke-linecap:round;stroke-linejoin:round;stroke-miterlimit:4;stroke-dasharray:none;stroke-opacity:1"
     d="m 187.07321,51.430872 c -0.203,1.396 1.6,2.583 1.776,2.87 2.579,4.302 2.876,4.541 5.068,7.672 3.167,4.536 6.043,7.146 9.213,6.073 2.147,-0.729 3.074,-2.089 3.142,-3.401 0.073,-1.459 -1.251,-4.35 -4.11,-4.735 l -1.322,-1.093 c -0.798,-0.85 -1.194,-1.266 -1.558,-1.708 -0.62,-0.787 -1.344,-1.59 -2.646,-3.047 -2.318,-2.589 -5.615,-4.568 -5.615,-4.568 -0.208,-0.224 -0.468,-0.328 -0.739,-0.36"
     id="path185" />
  <path
     style="fill:#231f20;fill-opacity:1;fill-rule:nonzero;stroke:none"
     d="m 177.48021,36.966872 c 1.349,-0.134 1.792,0.762 1.541,1.762 -0.077,0.306 0.177,0.634 0.079,0.932 -0.23,0.661 -1.812,1.385 -2.75,0.208 -0.068,-0.083 -0.75,-0.542 -1.204,-0.959 -0.89,-0.823 -2.276,-2.9 -1.718,-5.546 0.26,-1.244 0.953,-0.859 1,-0.318 0.141,1.703 0.489,1.823 0.698,2.26 0.676,1.475 2.354,1.661 2.354,1.661"
     id="path186" />
  <path
     style="fill:none;stroke:#231f20;stroke-width:0.332927;stroke-linecap:butt;stroke-linejoin:miter;stroke-miterlimit:4;stroke-dasharray:none;stroke-opacity:1"
     d="m 177.48021,36.966872 c 1.349,-0.134 1.792,0.762 1.541,1.762 -0.077,0.306 0.177,0.634 0.079,0.932 -0.23,0.661 -1.812,1.385 -2.75,0.208 -0.068,-0.083 -0.75,-0.542 -1.204,-0.959 -0.89,-0.823 -2.276,-2.9 -1.718,-5.546 0.26,-1.244 0.953,-0.859 1,-0.318 0.141,1.703 0.489,1.823 0.698,2.26 0.676,1.475 2.354,1.661 2.354,1.661 z"
     id="path187" />
  <path
     style="fill:#231f20;fill-opacity:1;fill-rule:nonzero;stroke:none"
     d="m 191.06921,50.649872 c 1.963,-1.125 2.192,-1.609 1.771,-2.469 -0.276,-0.578 -0.339,-1.203 -0.49,-1.562 -0.505,-1.188 -1.87,-2.99 -7.026,-7.078 -1.167,-0.918 -2.803,-2.24 -3.422,-2.834 -0.99,-0.917 -1.87,1.35 -1.485,1.724 1.24,1.192 1.98,2.099 2.371,2.588 0.26,0.339 0.812,0.866 1.666,2.303 1.296,2.167 1.755,3.656 3.042,5.333 0.593,0.782 0.552,1.744 1.53,2.208 0.975,0.475 2.043,-0.213 2.043,-0.213"
     id="path188" />
  <path
     style="fill:none;stroke:#231f20;stroke-width:0.565977;stroke-linecap:butt;stroke-linejoin:miter;stroke-miterlimit:4;stroke-dasharray:none;stroke-opacity:1"
     d="m 191.06921,50.649872 c 1.963,-1.125 2.192,-1.609 1.771,-2.469 -0.276,-0.578 -0.339,-1.203 -0.49,-1.562 -0.505,-1.188 -1.87,-2.99 -7.026,-7.078 -1.167,-0.918 -2.803,-2.24 -3.422,-2.834 -0.99,-0.917 -1.87,1.35 -1.485,1.724 1.24,1.192 1.98,2.099 2.371,2.588 0.26,0.339 0.812,0.866 1.666,2.303 1.296,2.167 1.755,3.656 3.042,5.333 0.593,0.782 0.552,1.744 1.53,2.208 0.975,0.475 2.043,-0.213 2.043,-0.213 z"
     id="path189" />
  <path
     style="fill:#231f20;fill-opacity:1;fill-rule:nonzero;stroke:#231f20;stroke-width:0.565977;stroke-linecap:round;stroke-linejoin:round;stroke-miterlimit:4;stroke-dasharray:none;stroke-opacity:1"
     d="m 188.67821,49.884872 c -0.365,1.369 1.296,2.744 1.438,3.052 2.082,4.562 2.348,4.838 4.177,8.192 2.64,4.86 5.203,7.776 8.479,7.062 2.213,-0.484 3.286,-1.729 3.5,-3.025 0.234,-1.443 -0.756,-4.459 -3.558,-5.167 l -1.188,-1.234 c -0.697,-0.932 -1.046,-1.391 -1.353,-1.87 -0.532,-0.849 -1.161,-1.729 -2.292,-3.329 -2.016,-2.823 -5.068,-5.161 -5.068,-5.161 -0.183,-0.25 -0.427,-0.386 -0.692,-0.443"
     id="path190" />
  <path
     style="fill:#fab41d;fill-opacity:1;fill-rule:nonzero;stroke:none"
     d="m 202.69321,60.409872 -6.765,3.901 c 2.068,3.136 4.202,4.844 6.786,4.287 2.224,-0.479 3.303,-1.708 3.516,-3.005 0.239,-1.443 -0.734,-4.47 -3.537,-5.183"
     id="path191" />
  <path
     style="fill:none;stroke:#231f20;stroke-width:0.565977;stroke-linecap:butt;stroke-linejoin:miter;stroke-miterlimit:4;stroke-dasharray:none;stroke-opacity:1"
     d="m 202.69321,60.409872 -6.765,3.901 c 2.068,3.136 4.202,4.844 6.786,4.287 2.224,-0.479 3.303,-1.708 3.516,-3.005 0.239,-1.443 -0.734,-4.47 -3.537,-5.183 z"
     id="path192" />
  <path
     style="fill:#231f20;fill-opacity:1;fill-rule:nonzero;stroke:none"
     d="m 223.92821,93.081871 c -0.64,0.011 -2.135,-1.244 -3.672,-1.724 -1.031,-0.328 -3.083,-2.151 -4.14,-2.396 -0.97,-0.229 -1.391,-0.421 -1.319,-1.567 0.043,-0.688 0.563,-1.974 1.068,-1.964 1.193,0.022 2.057,0.402 2.928,1.026 0.984,0.714 3.484,2.886 3.911,3.324 1.046,1.109 1.77,1.208 2.084,1.473 0.572,0.505 0.52,0.844 0.281,1.281 -0.459,0.85 -1.141,0.547 -1.141,0.547"
     id="path193" />
  <path
     style="fill:none;stroke:#231f20;stroke-width:0.565977;stroke-linecap:butt;stroke-linejoin:miter;stroke-miterlimit:4;stroke-dasharray:none;stroke-opacity:1"
     d="m 223.92821,93.081871 c -0.64,0.011 -2.135,-1.244 -3.672,-1.724 -1.031,-0.328 -3.083,-2.151 -4.14,-2.396 -0.97,-0.229 -1.391,-0.421 -1.319,-1.567 0.043,-0.688 0.563,-1.974 1.068,-1.964 1.193,0.022 2.057,0.402 2.928,1.026 0.984,0.714 3.484,2.886 3.911,3.324 1.046,1.109 1.77,1.208 2.084,1.473 0.572,0.505 0.52,0.844 0.281,1.281 -0.459,0.85 -1.141,0.547 -1.141,0.547 z"
     id="path194" />
  <path
     style="fill:#231f20;fill-opacity:1;fill-rule:nonzero;stroke:none"
     d="m 215.87021,88.732871 c -1.281,0.204 -1.234,-1.828 -1.301,-2.364 -0.068,-0.542 -0.443,-2.052 -0.885,-3.188 -0.448,-1.146 -0.511,-2.759999 -1.344,-4.931999 -0.443,-1.135 -0.152,-2.531 1.53,-3.088 1.667,-0.568 2.61,0.156 2.932,1.62 0.324,1.457 0.016,2.968 0.235,4.462 0.224,1.494999 0.589,2.999999 0.937,4.166999 0.391,1.323 0.095,2.12 -0.281,2.423 -0.916,0.765 -1.823,0.9 -1.823,0.9"
     id="path195" />
  <path
     style="fill:none;stroke:#231f20;stroke-width:0.565977;stroke-linecap:butt;stroke-linejoin:miter;stroke-miterlimit:4;stroke-dasharray:none;stroke-opacity:1"
     d="m 215.87021,88.732871 c -1.281,0.204 -1.234,-1.828 -1.301,-2.364 -0.068,-0.542 -0.443,-2.052 -0.885,-3.188 -0.448,-1.146 -0.511,-2.759999 -1.344,-4.931999 -0.443,-1.135 -0.152,-2.531 1.53,-3.088 1.667,-0.568 2.61,0.156 2.932,1.62 0.324,1.457 0.016,2.968 0.235,4.462 0.224,1.494999 0.589,2.999999 0.937,4.166999 0.391,1.323 0.095,2.12 -0.281,2.423 -0.916,0.765 -1.823,0.9 -1.823,0.9 z"
     id="path196" />
  <path
     style="fill:#231f20;fill-opacity:1;fill-rule:nonzero;stroke:none"
     d="m 229.72521,96.597871 c -0.729,-0.093 -3.609,-1.604 -4.245,-1.989 -0.578,-0.334 -1.714,-0.574 -1.604,-1.73 0.026,-0.453 0.412,-1.109 0.636,-1.338 0.186,-0.178 0.505,-0.104 0.822,0.125 0.547,0.38 0.563,0.708 1.552,1.505 0,0 0.208,0.228 0.547,0.656 1.036,1.26 0.464,0.802 2.375,2.302 0.13,0.1 0.12,0.313 0.046,0.39 -0.124,0.142 -0.129,0.079 -0.129,0.079"
     id="path197" />
  <path
     style="fill:none;stroke:#231f20;stroke-width:0.565977;stroke-linecap:round;stroke-linejoin:round;stroke-miterlimit:4;stroke-dasharray:none;stroke-opacity:1"
     d="m 229.72521,96.597871 c -0.729,-0.093 -3.609,-1.604 -4.245,-1.989 -0.578,-0.334 -1.714,-0.574 -1.604,-1.73 0.026,-0.453 0.412,-1.109 0.636,-1.338 0.186,-0.178 0.505,-0.104 0.822,0.125 0.547,0.38 0.563,0.708 1.552,1.505 0,0 0.208,0.228 0.547,0.656 1.036,1.26 0.464,0.802 2.375,2.302 0.13,0.1 0.12,0.313 0.046,0.39 -0.124,0.142 -0.129,0.079 -0.129,0.079 z"
     id="path198" />
  <path
     style="fill:#231f20;fill-opacity:1;fill-rule:nonzero;stroke:none"
     d="m 180.76121,34.441872 c 1.355,0.015 1.693,0.958 1.333,1.921 -0.114,0.292 0.104,0.651 -0.03,0.932 -0.298,0.636 -1.954,1.172 -2.756,-0.104 -0.058,-0.082 -0.682,-0.614 -1.088,-1.082 -0.792,-0.917 -1.938,-3.141 -1.084,-5.704 0.396,-1.208 1.042,-0.744 1.032,-0.203 -0.047,1.703 0.281,1.864 0.442,2.323 0.506,1.541 2.151,1.917 2.151,1.917"
     id="path199" />
  <path
     style="fill:none;stroke:#231f20;stroke-width:0.332927;stroke-linecap:butt;stroke-linejoin:miter;stroke-miterlimit:4;stroke-dasharray:none;stroke-opacity:1"
     d="m 180.76121,34.441872 c 1.355,0.015 1.693,0.958 1.333,1.921 -0.114,0.292 0.104,0.651 -0.03,0.932 -0.298,0.636 -1.954,1.172 -2.756,-0.104 -0.058,-0.082 -0.682,-0.614 -1.088,-1.082 -0.792,-0.917 -1.938,-3.141 -1.084,-5.704 0.396,-1.208 1.042,-0.744 1.032,-0.203 -0.047,1.703 0.281,1.864 0.442,2.323 0.506,1.541 2.151,1.917 2.151,1.917 z"
     id="path200" />
  <path
     style="fill:#fab41d;fill-opacity:1;fill-rule:nonzero;stroke:none"
     d="m 268.07321,87.622871 c -2.181,-2.249 -2.405,-2.973 -2.733,-3.833 -2.079,-5.394999 -4.688,-4.275999 -6.355,-1.927 -1.968,2.756 -2.735,3.714 2.063,7.792 1.333,1.135 5.874,6.156 5.874,6.156 1.391,2.016 3.814,3.251 5.246,2.995 1.516,-0.265 0.901,-0.271 2.249,-0.771 1.292,-0.478 2.672,-2.172 2.448,-3.39 -0.213,-1.167 -1.776,-1.746 -3.921,-2.87 -1.694,-0.896 -4.871,-4.152 -4.871,-4.152"
     id="path201" />
  <path
     style="fill:none;stroke:#231f20;stroke-width:0.565977;stroke-linecap:butt;stroke-linejoin:miter;stroke-miterlimit:4;stroke-dasharray:none;stroke-opacity:1"
     d="m 268.07321,87.622871 c -2.181,-2.249 -2.405,-2.973 -2.733,-3.833 -2.079,-5.394999 -4.688,-4.275999 -6.355,-1.927 -1.968,2.756 -2.735,3.714 2.063,7.792 1.333,1.135 5.874,6.156 5.874,6.156 1.391,2.016 3.814,3.251 5.246,2.995 1.516,-0.265 0.901,-0.271 2.249,-0.771 1.292,-0.478 2.672,-2.172 2.448,-3.39 -0.213,-1.167 -1.776,-1.746 -3.921,-2.87 -1.694,-0.896 -4.871,-4.152 -4.871,-4.152 z"
     id="path202" />
  <path
     style="fill:#ffffff;fill-opacity:1;fill-rule:nonzero;stroke:none"
     d="m 280.69821,102.72887 c 0.235,0.072 0.183,1.228 0.704,1.29 0.52,0.063 0.807,-0.681 2.698,-1.301 l 0.021,-0.005 c 1.391,-0.407 2.443,-1.328 2.692,-2.558 0.417,-2.035999 -1.489,-4.140999 -4.255,-4.712999 -2.77,-0.568 -5.338,0.624 -5.765,2.661 -0.407,1.942999 1.333,3.958999 3.905,4.625999"
     id="path203" />
  <path
     style="fill:none;stroke:#231f20;stroke-width:0.565977;stroke-linecap:butt;stroke-linejoin:miter;stroke-miterlimit:4;stroke-dasharray:none;stroke-opacity:1"
     d="m 280.69821,102.72887 c 0.235,0.072 0.183,1.228 0.704,1.29 0.52,0.063 0.807,-0.681 2.698,-1.301 l 0.021,-0.005 c 1.391,-0.407 2.443,-1.328 2.692,-2.558 0.417,-2.035999 -1.489,-4.140999 -4.255,-4.712999 -2.77,-0.568 -5.338,0.624 -5.765,2.661 -0.407,1.942999 1.333,3.958999 3.905,4.625999 z"
     id="path204" />
  <path
     style="fill:#231f20;fill-opacity:1;fill-rule:nonzero;stroke:none"
     d="m 249.20921,68.993872 c 1.964,-1.125 2.188,-1.609 1.765,-2.469 -0.276,-0.578 -0.333,-1.203 -0.489,-1.563 -0.505,-1.187 -1.864,-2.989 -7.021,-7.077 -1.167,-0.918 -2.802,-2.24 -3.427,-2.834 -0.989,-0.917 -1.869,1.348 -1.479,1.724 1.235,1.192 1.979,2.099 2.364,2.588 0.266,0.339 0.818,0.866 1.672,2.303 1.298,2.167 1.751,3.656 3.042,5.333 0.594,0.782 0.546,1.744 1.532,2.208 0.973,0.474 2.041,-0.213 2.041,-0.213"
     id="path205" />
  <path
     style="fill:none;stroke:#231f20;stroke-width:0.565977;stroke-linecap:butt;stroke-linejoin:miter;stroke-miterlimit:4;stroke-dasharray:none;stroke-opacity:1"
     d="m 249.20921,68.993872 c 1.964,-1.125 2.188,-1.609 1.765,-2.469 -0.276,-0.578 -0.333,-1.203 -0.489,-1.563 -0.505,-1.187 -1.864,-2.989 -7.021,-7.077 -1.167,-0.918 -2.802,-2.24 -3.427,-2.834 -0.989,-0.917 -1.869,1.348 -1.479,1.724 1.235,1.192 1.979,2.099 2.364,2.588 0.266,0.339 0.818,0.866 1.672,2.303 1.298,2.167 1.751,3.656 3.042,5.333 0.594,0.782 0.546,1.744 1.532,2.208 0.973,0.474 2.041,-0.213 2.041,-0.213 z"
     id="path206" />
  <path
     style="fill:#231f20;fill-opacity:1;fill-rule:nonzero;stroke:#231f20;stroke-width:0.565977;stroke-linecap:round;stroke-linejoin:round;stroke-miterlimit:4;stroke-dasharray:none;stroke-opacity:1"
     d="m 246.81321,68.228872 c -0.359,1.369 1.297,2.744 1.443,3.052 2.078,4.561 2.349,4.838 4.177,8.192 2.64,4.859999 5.203,7.775999 8.473,7.061999 2.22,-0.484 3.292,-1.729 3.506,-3.026 0.234,-1.443 -0.76,-4.457999 -3.558,-5.165999 l -1.192,-1.234 c -0.693,-0.934 -1.041,-1.391 -1.354,-1.871 -0.526,-0.848 -1.156,-1.729 -2.291,-3.328 -2.016,-2.828 -5.063,-5.167 -5.063,-5.167 -0.188,-0.244 -0.433,-0.38 -0.693,-0.437"
     id="path207" />
  <path
     style="fill:#fab41d;fill-opacity:1;fill-rule:nonzero;stroke:none"
     d="m 260.83421,78.753872 -6.77,3.900999 c 2.072,3.135 4.202,4.844 6.79,4.287 2.219,-0.48 3.303,-1.709 3.516,-3.011 0.24,-1.437 -0.734,-4.463999 -3.536,-5.176999"
     id="path208" />
  <path
     style="fill:none;stroke:#231f20;stroke-width:0.565977;stroke-linecap:butt;stroke-linejoin:miter;stroke-miterlimit:4;stroke-dasharray:none;stroke-opacity:1"
     d="m 260.83421,78.753872 -6.77,3.900999 c 2.072,3.135 4.202,4.844 6.79,4.287 2.219,-0.48 3.303,-1.709 3.516,-3.011 0.24,-1.437 -0.734,-4.463999 -3.536,-5.176999 z"
     id="path209" />
  <path
     style="fill:#231f20;fill-opacity:1;fill-rule:nonzero;stroke:none"
     d="m 272.68421,115.14987 c -0.371,-0.527 -0.194,-2.469 -0.663,-4.005 -0.317,-1.036 0.021,-3.76 -0.375,-4.771 -0.364,-0.927 -0.442,-1.38 0.542,-1.975 0.589,-0.353 1.942,-0.656 2.224,-0.233 0.657,0.995 0.838,1.921 0.813,2.989 -0.027,1.219 -0.396,4.511 -0.516,5.11 -0.317,1.489 0.011,2.145 -0.031,2.552 -0.089,0.754 -0.401,0.906 -0.896,0.964 -0.964,0.098 -1.098,-0.631 -1.098,-0.631"
     id="path210" />
  <path
     style="fill:none;stroke:#231f20;stroke-width:0.565977;stroke-linecap:butt;stroke-linejoin:miter;stroke-miterlimit:4;stroke-dasharray:none;stroke-opacity:1"
     d="m 272.68421,115.14987 c -0.371,-0.527 -0.194,-2.469 -0.663,-4.005 -0.317,-1.036 0.021,-3.76 -0.375,-4.771 -0.364,-0.927 -0.442,-1.38 0.542,-1.975 0.589,-0.353 1.942,-0.656 2.224,-0.233 0.657,0.995 0.838,1.921 0.813,2.989 -0.027,1.219 -0.396,4.511 -0.516,5.11 -0.317,1.489 0.011,2.145 -0.031,2.552 -0.089,0.754 -0.401,0.906 -0.896,0.964 -0.964,0.098 -1.098,-0.631 -1.098,-0.631 z"
     id="path211" />
  <path
     style="fill:#231f20;fill-opacity:1;fill-rule:nonzero;stroke:none"
     d="m 272.70421,106.80587 c -1.298,0.027 -0.968,-1.984 -0.959,-2.52 0.011,-0.548 -0.151,-2.095 -0.432,-3.281 -0.276,-1.198999 -0.115,-2.802999 -0.64,-5.073999 -0.276,-1.188 0.208,-2.526 1.953,-2.844 1.728,-0.322 2.562,0.522 2.676,2.016 0.115,1.49 -0.405,2.943 -0.396,4.454 0.011,1.513999 0.163,3.051999 0.35,4.253999 0.198,1.364 -0.203,2.115 -0.62,2.36 -1.015,0.624 -1.932,0.635 -1.932,0.635"
     id="path212" />
  <path
     style="fill:none;stroke:#231f20;stroke-width:0.565977;stroke-linecap:butt;stroke-linejoin:miter;stroke-miterlimit:4;stroke-dasharray:none;stroke-opacity:1"
     d="m 272.70421,106.80587 c -1.298,0.027 -0.968,-1.984 -0.959,-2.52 0.011,-0.548 -0.151,-2.095 -0.432,-3.281 -0.276,-1.198999 -0.115,-2.802999 -0.64,-5.073999 -0.276,-1.188 0.208,-2.526 1.953,-2.844 1.728,-0.322 2.562,0.522 2.676,2.016 0.115,1.49 -0.405,2.943 -0.396,4.454 0.011,1.513999 0.163,3.051999 0.35,4.253999 0.198,1.364 -0.203,2.115 -0.62,2.36 -1.015,0.624 -1.932,0.635 -1.932,0.635 z"
     id="path213" />
  <path
     style="fill:#231f20;fill-opacity:1;fill-rule:nonzero;stroke:none"
     d="m 273.07821,121.91487 c -0.338,-0.656 -0.728,-3.885 -0.776,-4.625 -0.046,-0.667 -0.494,-1.728 0.516,-2.301 0.391,-0.24 1.151,-0.292 1.464,-0.235 0.255,0.052 0.375,0.355 0.37,0.751 -0.011,0.666 -0.271,0.858 -0.364,2.129 0,0 -0.068,0.303 -0.23,0.819 -0.448,1.572 -0.396,0.837 -0.552,3.265 -0.005,0.161 -0.182,0.276 -0.292,0.265 -0.188,-0.03 -0.136,-0.068 -0.136,-0.068"
     id="path214" />
  <path
     style="fill:none;stroke:#231f20;stroke-width:0.565977;stroke-linecap:round;stroke-linejoin:round;stroke-miterlimit:4;stroke-dasharray:none;stroke-opacity:1"
     d="m 273.07821,121.91487 c -0.338,-0.656 -0.728,-3.885 -0.776,-4.625 -0.046,-0.667 -0.494,-1.728 0.516,-2.301 0.391,-0.24 1.151,-0.292 1.464,-0.235 0.255,0.052 0.375,0.355 0.37,0.751 -0.011,0.666 -0.271,0.858 -0.364,2.129 0,0 -0.068,0.303 -0.23,0.819 -0.448,1.572 -0.396,0.837 -0.552,3.265 -0.005,0.161 -0.182,0.276 -0.292,0.265 -0.188,-0.03 -0.136,-0.068 -0.136,-0.068 z"
     id="path215" />
  <path
     style="fill:#231f20;fill-opacity:1;fill-rule:nonzero;stroke:none"
     d="m 238.90221,52.785872 c 1.354,0.015 1.692,0.957 1.328,1.921 -0.109,0.292 0.11,0.651 -0.026,0.932 -0.302,0.636 -1.959,1.172 -2.755,-0.104 -0.057,-0.082 -0.683,-0.614 -1.089,-1.082 -0.791,-0.918 -1.938,-3.142 -1.088,-5.704 0.401,-1.208 1.046,-0.75 1.036,-0.203 -0.052,1.703 0.281,1.864 0.437,2.323 0.511,1.541 2.157,1.917 2.157,1.917"
     id="path216" />
  <path
     style="fill:none;stroke:#231f20;stroke-width:0.332927;stroke-linecap:butt;stroke-linejoin:miter;stroke-miterlimit:4;stroke-dasharray:none;stroke-opacity:1"
     d="m 238.90221,52.785872 c 1.354,0.015 1.692,0.957 1.328,1.921 -0.109,0.292 0.11,0.651 -0.026,0.932 -0.302,0.636 -1.959,1.172 -2.755,-0.104 -0.057,-0.082 -0.683,-0.614 -1.089,-1.082 -0.791,-0.918 -1.938,-3.142 -1.088,-5.704 0.401,-1.208 1.046,-0.75 1.036,-0.203 -0.052,1.703 0.281,1.864 0.437,2.323 0.511,1.541 2.157,1.917 2.157,1.917 z"
     id="path217" />
  <path
     style="fill:#fab41d;fill-opacity:1;fill-rule:nonzero;stroke:none"
     d="m 316.69321,121.18087 c -2.796,1.412 -3.558,1.412 -4.474,1.469 -5.765,0.38 -5.474,3.208 -3.729,5.495 2.047,2.697 2.735,3.713 8.052,0.349 1.479,-0.932 7.631,-3.781 7.631,-3.781 2.333,-0.73 4.233,-2.672 4.416,-4.12 0.193,-1.522 0.005,-0.938 -0.068,-2.37 -0.072,-1.381 -1.282,-3.198 -2.51,-3.344 -1.177,-0.146 -2.193,1.172 -3.906,2.886 -1.36,1.349 -5.412,3.416 -5.412,3.416"
     id="path218" />
  <path
     style="fill:none;stroke:#231f20;stroke-width:0.565977;stroke-linecap:butt;stroke-linejoin:miter;stroke-miterlimit:4;stroke-dasharray:none;stroke-opacity:1"
     d="m 316.69321,121.18087 c -2.796,1.412 -3.558,1.412 -4.474,1.469 -5.765,0.38 -5.474,3.208 -3.729,5.495 2.047,2.697 2.735,3.713 8.052,0.349 1.479,-0.932 7.631,-3.781 7.631,-3.781 2.333,-0.73 4.233,-2.672 4.416,-4.12 0.193,-1.522 0.005,-0.938 -0.068,-2.37 -0.072,-1.381 -1.282,-3.198 -2.51,-3.344 -1.177,-0.146 -2.193,1.172 -3.906,2.886 -1.36,1.349 -5.412,3.416 -5.412,3.416 z"
     id="path219" />
  <path
     style="fill:#ffffff;fill-opacity:1;fill-rule:nonzero;stroke:none"
     d="m 334.86521,113.61887 c 0.141,-0.204 1.229,0.192 1.448,-0.286 0.213,-0.48 -0.411,-0.975 -0.443,-2.964 l 0.005,-0.026 c 0.022,-1.444 -0.546,-2.724 -1.645,-3.329 -1.824,-1.004 -4.396,0.193 -5.761,2.657 -1.375,2.479 -0.995,5.291 0.824,6.302 1.728,0.964 4.176,-0.094 5.572,-2.354"
     id="path220" />
  <path
     style="fill:none;stroke:#231f20;stroke-width:0.565977;stroke-linecap:butt;stroke-linejoin:miter;stroke-miterlimit:4;stroke-dasharray:none;stroke-opacity:1"
     d="m 334.86521,113.61887 c 0.141,-0.204 1.229,0.192 1.448,-0.286 0.213,-0.48 -0.411,-0.975 -0.443,-2.964 l 0.005,-0.026 c 0.022,-1.444 -0.546,-2.724 -1.645,-3.329 -1.824,-1.004 -4.396,0.193 -5.761,2.657 -1.375,2.479 -0.995,5.291 0.824,6.302 1.728,0.964 4.176,-0.094 5.572,-2.354 z"
     id="path221" />
  <path
     style="fill:#231f20;fill-opacity:1;fill-rule:nonzero;stroke:none"
     d="m 293.29321,133.65487 c -0.491,-2.208 -0.881,-2.573 -1.829,-2.422 -0.635,0.089 -1.25,-0.042 -1.635,0 -1.281,0.13 -3.412,0.896 -8.844,4.605 -1.229,0.839 -2.973,2.009 -3.724,2.427 -1.172,0.672 0.729,2.188 1.203,1.921 1.505,-0.823 2.594,-1.26 3.177,-1.489 0.401,-0.151 1.063,-0.522 2.693,-0.907 2.454,-0.593 4.011,-0.588 5.995,-1.317 0.927,-0.334 1.828,-0.006 2.563,-0.807 0.744,-0.787 0.401,-2.011 0.401,-2.011"
     id="path222" />
  <path
     style="fill:none;stroke:#231f20;stroke-width:0.565977;stroke-linecap:butt;stroke-linejoin:miter;stroke-miterlimit:4;stroke-dasharray:none;stroke-opacity:1"
     d="m 293.29321,133.65487 c -0.491,-2.208 -0.881,-2.573 -1.829,-2.422 -0.635,0.089 -1.25,-0.042 -1.635,0 -1.281,0.13 -3.412,0.896 -8.844,4.605 -1.229,0.839 -2.973,2.009 -3.724,2.427 -1.172,0.672 0.729,2.188 1.203,1.921 1.505,-0.823 2.594,-1.26 3.177,-1.489 0.401,-0.151 1.063,-0.522 2.693,-0.907 2.454,-0.593 4.011,-0.588 5.995,-1.317 0.927,-0.334 1.828,-0.006 2.563,-0.807 0.744,-0.787 0.401,-2.011 0.401,-2.011 z"
     id="path223" />
  <path
     style="fill:#231f20;fill-opacity:1;fill-rule:nonzero;stroke:#231f20;stroke-width:0.565977;stroke-linecap:round;stroke-linejoin:round;stroke-miterlimit:4;stroke-dasharray:none;stroke-opacity:1"
     d="m 291.85421,135.71287 c 1.199,0.749 3.006,-0.423 3.344,-0.47 4.975,-0.629 5.313,-0.801 9.057,-1.552 5.428,-1.077 8.975,-2.656 9.266,-5.994 0.198,-2.26 -0.667,-3.656 -1.843,-4.244 -1.308,-0.652 -4.485,-0.6 -5.991,1.858 l -1.536,0.771 c -1.093,0.391 -1.636,0.584 -2.188,0.74 -0.968,0.249 -1.994,0.588 -3.858,1.197 -3.297,1.084 -6.437,3.303 -6.437,3.303 -0.287,0.099 -0.49,0.297 -0.626,0.531"
     id="path224" />
  <path
     style="fill:#fab41d;fill-opacity:1;fill-rule:nonzero;stroke:none"
     d="m 312.06921,123.61887 c -1.303,-0.657 -4.486,-0.625 -5.996,1.838 l 1.709,7.625 c 3.615,-1.047 5.88,-2.577 6.115,-5.213 0.202,-2.26 -0.652,-3.662 -1.828,-4.25"
     id="path225" />
  <path
     style="fill:none;stroke:#231f20;stroke-width:0.565977;stroke-linecap:butt;stroke-linejoin:miter;stroke-miterlimit:4;stroke-dasharray:none;stroke-opacity:1"
     d="m 312.06921,123.61887 c -1.303,-0.657 -4.486,-0.625 -5.996,1.838 l 1.709,7.625 c 3.615,-1.047 5.88,-2.577 6.115,-5.213 0.202,-2.26 -0.652,-3.662 -1.828,-4.25 z"
     id="path226" />
  <path
     style="fill:#231f20;fill-opacity:1;fill-rule:nonzero;stroke:none"
     d="m 326.08921,139.33787 c -0.37,-0.521 -0.192,-2.464 -0.662,-4 -0.317,-1.037 0.016,-3.761 -0.374,-4.772 -0.366,-0.927 -0.443,-1.38 0.541,-1.973 0.588,-0.355 1.943,-0.656 2.224,-0.235 0.656,0.995 0.839,1.923 0.812,2.989 -0.031,1.219 -0.395,4.511 -0.52,5.11 -0.313,1.49 0.016,2.146 -0.027,2.553 -0.088,0.755 -0.4,0.905 -0.896,0.957 -0.962,0.104 -1.098,-0.629 -1.098,-0.629"
     id="path227" />
  <path
     style="fill:none;stroke:#231f20;stroke-width:0.565977;stroke-linecap:butt;stroke-linejoin:miter;stroke-miterlimit:4;stroke-dasharray:none;stroke-opacity:1"
     d="m 326.08921,139.33787 c -0.37,-0.521 -0.192,-2.464 -0.662,-4 -0.317,-1.037 0.016,-3.761 -0.374,-4.772 -0.366,-0.927 -0.443,-1.38 0.541,-1.973 0.588,-0.355 1.943,-0.656 2.224,-0.235 0.656,0.995 0.839,1.923 0.812,2.989 -0.031,1.219 -0.395,4.511 -0.52,5.11 -0.313,1.49 0.016,2.146 -0.027,2.553 -0.088,0.755 -0.4,0.905 -0.896,0.957 -0.962,0.104 -1.098,-0.629 -1.098,-0.629 z"
     id="path228" />
  <path
     style="fill:#231f20;fill-opacity:1;fill-rule:nonzero;stroke:none"
     d="m 326.11021,130.99887 c -1.297,0.026 -0.969,-1.985 -0.959,-2.521 0.006,-0.547 -0.15,-2.099 -0.432,-3.281 -0.276,-1.198 -0.114,-2.807 -0.641,-5.074 -0.276,-1.186 0.209,-2.525 1.953,-2.842 1.73,-0.328 2.563,0.52 2.678,2.014 0.114,1.491 -0.407,2.943 -0.396,4.454 0.01,1.51 0.161,3.052 0.344,4.256 0.202,1.364 -0.198,2.114 -0.615,2.358 -1.016,0.626 -1.932,0.636 -1.932,0.636"
     id="path229" />
  <path
     style="fill:none;stroke:#231f20;stroke-width:0.565977;stroke-linecap:butt;stroke-linejoin:miter;stroke-miterlimit:4;stroke-dasharray:none;stroke-opacity:1"
     d="m 326.11021,130.99887 c -1.297,0.026 -0.969,-1.985 -0.959,-2.521 0.006,-0.547 -0.15,-2.099 -0.432,-3.281 -0.276,-1.198 -0.114,-2.807 -0.641,-5.074 -0.276,-1.186 0.209,-2.525 1.953,-2.842 1.73,-0.328 2.563,0.52 2.678,2.014 0.114,1.491 -0.407,2.943 -0.396,4.454 0.01,1.51 0.161,3.052 0.344,4.256 0.202,1.364 -0.198,2.114 -0.615,2.358 -1.016,0.626 -1.932,0.636 -1.932,0.636 z"
     id="path230" />
  <path
     style="fill:#231f20;fill-opacity:1;fill-rule:nonzero;stroke:none"
     d="m 333.14621,141.59287 c -0.697,0.229 -3.948,0.13 -4.687,0.062 -0.666,-0.052 -1.786,0.235 -2.198,-0.854 -0.178,-0.422 -0.115,-1.178 -0.011,-1.484 0.089,-0.246 0.407,-0.312 0.797,-0.251 0.656,0.109 0.807,0.396 2.052,0.683 0,0 0.287,0.109 0.776,0.349 1.484,0.683 0.766,0.521 3.142,1.036 0.161,0.037 0.249,0.224 0.218,0.333 -0.057,0.178 -0.089,0.126 -0.089,0.126"
     id="path231" />
  <path
     style="fill:none;stroke:#231f20;stroke-width:0.565977;stroke-linecap:round;stroke-linejoin:round;stroke-miterlimit:4;stroke-dasharray:none;stroke-opacity:1"
     d="m 333.14621,141.59287 c -0.697,0.229 -3.948,0.13 -4.687,0.062 -0.666,-0.052 -1.786,0.235 -2.198,-0.854 -0.178,-0.422 -0.115,-1.178 -0.011,-1.484 0.089,-0.246 0.407,-0.312 0.797,-0.251 0.656,0.109 0.807,0.396 2.052,0.683 0,0 0.287,0.109 0.776,0.349 1.484,0.683 0.766,0.521 3.142,1.036 0.161,0.037 0.249,0.224 0.218,0.333 -0.057,0.178 -0.089,0.126 -0.089,0.126 z"
     id="path233" />
  <path
     style="fill:#231f20;fill-opacity:1;fill-rule:nonzero;stroke:none"
     d="m 274.75621,138.67687 c 0.417,-1.287 1.417,-1.33 2.229,-0.699 0.245,0.193 0.656,0.088 0.885,0.303 0.516,0.473 0.536,2.218 -0.916,2.604 -0.1,0.025 -0.792,0.462 -1.36,0.713 -1.114,0.479 -3.573,0.916 -5.77,-0.656 -1.036,-0.745 -0.402,-1.224 0.114,-1.052 1.615,0.557 1.864,0.291 2.35,0.271 1.618,-0.022 2.468,-1.484 2.468,-1.484"
     id="path235" />
  <path
     style="fill:none;stroke:#231f20;stroke-width:0.332927;stroke-linecap:butt;stroke-linejoin:miter;stroke-miterlimit:4;stroke-dasharray:none;stroke-opacity:1"
     d="m 274.75621,138.67687 c 0.417,-1.287 1.417,-1.33 2.229,-0.699 0.245,0.193 0.656,0.088 0.885,0.303 0.516,0.473 0.536,2.218 -0.916,2.604 -0.1,0.025 -0.792,0.462 -1.36,0.713 -1.114,0.479 -3.573,0.916 -5.77,-0.656 -1.036,-0.745 -0.402,-1.224 0.114,-1.052 1.615,0.557 1.864,0.291 2.35,0.271 1.618,-0.022 2.468,-1.484 2.468,-1.484 z"
     id="path237" />
  <path
     style="fill:#231f20;fill-opacity:1;fill-rule:nonzero;stroke:none"
     d="m 113.79321,24.217872 c 0.786,1.104 1.75,0.848 2.343,0.006 0.172,-0.262 0.595,-0.287 0.751,-0.552 0.353,-0.61 -0.147,-2.276 -1.651,-2.215 -0.105,0 -0.896,-0.208 -1.511,-0.276 -1.204,-0.129 -3.682,0.188 -5.308,2.349 -0.77,1.011 -0.025,1.282 0.418,0.964 1.374,-1.01 1.697,-0.833 2.161,-0.958 1.557,-0.459 2.797,0.682 2.797,0.682"
     id="path239" />
  <path
     style="fill:none;stroke:#231f20;stroke-width:0.332927;stroke-linecap:butt;stroke-linejoin:miter;stroke-miterlimit:4;stroke-dasharray:none;stroke-opacity:1"
     d="m 113.79321,24.217872 c 0.786,1.104 1.75,0.848 2.343,0.006 0.172,-0.262 0.595,-0.287 0.751,-0.552 0.353,-0.61 -0.147,-2.276 -1.651,-2.215 -0.105,0 -0.896,-0.208 -1.511,-0.276 -1.204,-0.129 -3.682,0.188 -5.308,2.349 -0.77,1.011 -0.025,1.282 0.418,0.964 1.374,-1.01 1.697,-0.833 2.161,-0.958 1.557,-0.459 2.797,0.682 2.797,0.682 z"
     id="path240" />
  <path
     style="fill:#ffffff;fill-opacity:1;fill-rule:nonzero;stroke:none"
     d="m 132.73621,19.128872 c 0.771,2.125 0.635,2.647 -0.24,3.037 -0.579,0.255 -1.036,0.698 -1.385,0.87 -1.156,0.584 -3.344,1.084 -9.928,0.874 -1.495,-0.041 -3.588,-0.098 -4.447,-0.052 -1.355,0.074 -0.557,-2.224 -0.027,-2.26 1.708,-0.114 2.88,-0.333 3.49,-0.453 0.417,-0.088 1.177,-0.14 2.756,-0.677 2.385,-0.823 3.697,-1.667 5.765,-2.12 0.959,-0.208 1.547,-0.974 2.593,-0.703 1.052,0.276 1.423,1.484 1.423,1.484"
     id="path241" />
  <path
     style="fill:none;stroke:#231f20;stroke-width:0.565977;stroke-linecap:butt;stroke-linejoin:miter;stroke-miterlimit:4;stroke-dasharray:none;stroke-opacity:1"
     d="m 132.73621,19.128872 c 0.771,2.125 0.635,2.647 -0.24,3.037 -0.579,0.255 -1.036,0.698 -1.385,0.87 -1.156,0.584 -3.344,1.084 -9.928,0.874 -1.495,-0.041 -3.588,-0.098 -4.447,-0.052 -1.355,0.074 -0.557,-2.224 -0.027,-2.26 1.708,-0.114 2.88,-0.333 3.49,-0.453 0.417,-0.088 1.177,-0.14 2.756,-0.677 2.385,-0.823 3.697,-1.667 5.765,-2.12 0.959,-0.208 1.547,-0.974 2.593,-0.703 1.052,0.276 1.423,1.484 1.423,1.484 z"
     id="path242" />
  <path
     style="fill:#ffffff;fill-opacity:1;fill-rule:nonzero;stroke:#231f20;stroke-width:0.565977;stroke-linecap:round;stroke-linejoin:miter;stroke-miterlimit:4;stroke-dasharray:none;stroke-opacity:1"
     d="m 130.48021,18.056872 c 0.688,-1.161 2.708,-1.152 3.005,-1.292 4.532,-2.141 4.912,-2.177 8.475,-3.563 5.151,-2 8.984,-2.582 11.025,0.079 1.386,1.801 1.402,3.437 0.724,4.567 -0.745,1.256 -3.453,2.922 -6.046,1.657 l -1.703,0.172 c -1.131,0.265 -1.699,0.385 -2.245,0.561 -0.954,0.303 -2,0.563 -3.896,1.052 -3.359,0.871 -7.198,0.683 -7.198,0.683 -0.302,0.068 -0.578,0.011 -0.818,-0.115"
     id="path243" />
  <path
     style="fill:#231f20;fill-opacity:1;fill-rule:nonzero;stroke:none"
     d="m 113.22021,21.415872 c 0.697,1.166 1.677,0.984 2.333,0.193 0.192,-0.251 0.615,-0.24 0.798,-0.495 0.394,-0.578 0.025,-2.281 -1.48,-2.333 -0.099,-0.005 -0.875,-0.276 -1.484,-0.396 -1.188,-0.219 -3.688,-0.099 -5.475,1.927 -0.843,0.953 -0.119,1.276 0.339,1 1.448,-0.907 1.756,-0.698 2.229,-0.792 1.589,-0.339 2.74,0.896 2.74,0.896"
     id="path244" />
  <path
     style="fill:none;stroke:#231f20;stroke-width:0.332927;stroke-linecap:butt;stroke-linejoin:miter;stroke-miterlimit:4;stroke-dasharray:none;stroke-opacity:1"
     d="m 113.22021,21.415872 c 0.697,1.166 1.677,0.984 2.333,0.193 0.192,-0.251 0.615,-0.24 0.798,-0.495 0.394,-0.578 0.025,-2.281 -1.48,-2.333 -0.099,-0.005 -0.875,-0.276 -1.484,-0.396 -1.188,-0.219 -3.688,-0.099 -5.475,1.927 -0.843,0.953 -0.119,1.276 0.339,1 1.448,-0.907 1.756,-0.698 2.229,-0.792 1.589,-0.339 2.74,0.896 2.74,0.896 z"
     id="path245" />
  <path
     style="fill:#231f20;fill-opacity:1;fill-rule:nonzero;stroke:none"
     d="m 109.34521,43.665872 c -0.245,0.588 -1.98,1.473 -3.026,2.692 -0.708,0.823 -3.192,1.995 -3.834,2.875 -0.588,0.797 -0.937,1.114 -1.958,0.589 -0.609996,-0.303 -1.587996,-1.281 -1.379996,-1.751 0.484,-1.093 1.171996,-1.738 2.083996,-2.285 1.041,-0.631 4.025,-2.073 4.593,-2.287 1.432,-0.537 1.812,-1.166 2.177,-1.344 0.683,-0.328 0.979,-0.156 1.296,0.244 0.59,0.756 0.048,1.267 0.048,1.267"
     id="path246" />
  <path
     style="fill:none;stroke:#231f20;stroke-width:0.565977;stroke-linecap:butt;stroke-linejoin:miter;stroke-miterlimit:4;stroke-dasharray:none;stroke-opacity:1"
     d="m 109.34521,43.665872 c -0.245,0.588 -1.98,1.473 -3.026,2.692 -0.708,0.823 -3.192,1.995 -3.834,2.875 -0.588,0.797 -0.937,1.114 -1.958,0.589 -0.609996,-0.303 -1.587996,-1.281 -1.379996,-1.751 0.484,-1.093 1.171996,-1.738 2.083996,-2.285 1.041,-0.631 4.025,-2.073 4.593,-2.287 1.432,-0.537 1.812,-1.166 2.177,-1.344 0.683,-0.328 0.979,-0.156 1.296,0.244 0.59,0.756 0.048,1.267 0.048,1.267 z"
     id="path247" />
  <path
     style="fill:#231f20;fill-opacity:1;fill-rule:nonzero;stroke:none"
     d="m 101.62121,49.310872 c 0.187,1.282 -1.848996,1.203 -2.384996,1.266 -0.538,0.062 -2.057,0.422 -3.199,0.838 -1.151,0.432 -2.765,0.475 -4.942,1.292 -1.156,0.422 -2.536,0.11 -3.088,-1.584 -0.532,-1.67 0.202,-2.604 1.672,-2.905 1.468,-0.313 2.973,0.025 4.468,-0.177 1.5,-0.203 3.005,-0.552 4.172,-0.88 1.328,-0.375 2.129996,-0.058 2.425996,0.306 0.746,0.932 0.876,1.844 0.876,1.844"
     id="path248" />
  <path
     style="fill:none;stroke:#231f20;stroke-width:0.565977;stroke-linecap:butt;stroke-linejoin:miter;stroke-miterlimit:4;stroke-dasharray:none;stroke-opacity:1"
     d="m 101.62121,49.310872 c 0.187,1.282 -1.848996,1.203 -2.384996,1.266 -0.538,0.062 -2.057,0.422 -3.199,0.838 -1.151,0.432 -2.765,0.475 -4.942,1.292 -1.156,0.422 -2.536,0.11 -3.088,-1.584 -0.532,-1.67 0.202,-2.604 1.672,-2.905 1.468,-0.313 2.973,0.025 4.468,-0.177 1.5,-0.203 3.005,-0.552 4.172,-0.88 1.328,-0.375 2.129996,-0.058 2.425996,0.306 0.746,0.932 0.876,1.844 0.876,1.844 z"
     id="path249" />
  <path
     style="fill:#231f20;fill-opacity:1;fill-rule:nonzero;stroke:none"
     d="m 114.05921,38.373872 c -0.708,0.131 -3.522,1.765 -4.147,2.167 -0.572,0.354 -1.687,0.64 -1.541,1.786 0.057,0.459 0.464,1.104 0.702,1.318 0.188,0.172 0.511,0.093 0.824,-0.156 0.526,-0.402 0.52,-0.735 1.474,-1.568 0,0 0.202,-0.235 0.532,-0.672 0.978,-1.307 0.426,-0.823 2.27,-2.396 0.13,-0.115 0.11,-0.328 0.026,-0.406 -0.13,-0.13 -0.14,-0.073 -0.14,-0.073"
     id="path250" />
  <path
     style="fill:none;stroke:#231f20;stroke-width:0.565977;stroke-linecap:round;stroke-linejoin:round;stroke-miterlimit:4;stroke-dasharray:none;stroke-opacity:1"
     d="m 114.05921,38.373872 c -0.708,0.131 -3.522,1.765 -4.147,2.167 -0.572,0.354 -1.687,0.64 -1.541,1.786 0.057,0.459 0.464,1.104 0.702,1.318 0.188,0.172 0.511,0.093 0.824,-0.156 0.526,-0.402 0.52,-0.735 1.474,-1.568 0,0 0.202,-0.235 0.532,-0.672 0.978,-1.307 0.426,-0.823 2.27,-2.396 0.13,-0.115 0.11,-0.328 0.026,-0.406 -0.13,-0.13 -0.14,-0.073 -0.14,-0.073 z"
     id="path251" />
  <path
     style="fill:#231f20;fill-opacity:1;fill-rule:nonzero;stroke:none"
     d="m 96.512214,34.728872 c -0.573,0.285 -2.459,-0.209 -4.052,0.009 -1.079,0.152 -3.709,-0.618 -4.772,-0.39 -0.973,0.209 -1.432,0.209 -1.864,-0.864 -0.25,-0.631 -0.333,-2.011 0.131,-2.224 1.082,-0.495 2.036,-0.522 3.082,-0.328 1.194,0.229 4.38,1.12 4.954,1.344 1.421,0.541 2.13,0.322 2.516,0.437 0.738,0.203 0.838,0.536 0.807,1.036 -0.058,0.964 -0.802,0.98 -0.802,0.98"
     id="path252" />
  <path
     style="fill:none;stroke:#231f20;stroke-width:0.565977;stroke-linecap:butt;stroke-linejoin:miter;stroke-miterlimit:4;stroke-dasharray:none;stroke-opacity:1"
     d="m 96.512214,34.728872 c -0.573,0.285 -2.459,-0.209 -4.052,0.009 -1.079,0.152 -3.709,-0.618 -4.772,-0.39 -0.973,0.209 -1.432,0.209 -1.864,-0.864 -0.25,-0.631 -0.333,-2.011 0.131,-2.224 1.082,-0.495 2.036,-0.522 3.082,-0.328 1.194,0.229 4.38,1.12 4.954,1.344 1.421,0.541 2.13,0.322 2.516,0.437 0.738,0.203 0.838,0.536 0.807,1.036 -0.058,0.964 -0.802,0.98 -0.802,0.98 z"
     id="path253" />
  <path
     style="fill:#231f20;fill-opacity:1;fill-rule:nonzero;stroke:none"
     d="m 88.439214,32.389872 c 0.942,0.891 -0.714,2.083 -1.094,2.463 -0.385,0.391 -1.365,1.604 -2,2.636 -0.647,1.046 -1.89,2.073 -3.109,4.057 -0.646,1.036 -1.922,1.651 -3.391,0.651 -1.459,-0.984 -1.453,-2.167 -0.485,-3.312 0.969,-1.147 2.355,-1.808 3.412,-2.896 1.047,-1.079 2.025,-2.287 2.744,-3.26 0.819,-1.109 1.641,-1.36 2.1,-1.251 1.167,0.266 1.823,0.912 1.823,0.912"
     id="path254" />
  <path
     style="fill:none;stroke:#231f20;stroke-width:0.565977;stroke-linecap:butt;stroke-linejoin:miter;stroke-miterlimit:4;stroke-dasharray:none;stroke-opacity:1"
     d="m 88.439214,32.389872 c 0.942,0.891 -0.714,2.083 -1.094,2.463 -0.385,0.391 -1.365,1.604 -2,2.636 -0.647,1.046 -1.89,2.073 -3.109,4.057 -0.646,1.036 -1.922,1.651 -3.391,0.651 -1.459,-0.984 -1.453,-2.167 -0.485,-3.312 0.969,-1.147 2.355,-1.808 3.412,-2.896 1.047,-1.079 2.025,-2.287 2.744,-3.26 0.819,-1.109 1.641,-1.36 2.1,-1.251 1.167,0.266 1.823,0.912 1.823,0.912 z"
     id="path255" />
  <path
     style="fill:#231f20;fill-opacity:1;fill-rule:nonzero;stroke:none"
     d="m 103.13621,34.399872 c -0.604,-0.416 -3.743996,-1.25 -4.467996,-1.411 -0.651,-0.147 -1.647,-0.74 -2.349,0.172 -0.298,0.364 -0.454,1.104 -0.438,1.427 0.016,0.265 0.292,0.426 0.692,0.474 0.658,0.088 0.876,-0.141 2.152,-0.057 0,0 0.307,-0.027 0.854,-0.109 1.608996,-0.224 0.884996,-0.276 3.291996,-0.09 0.172,0.016 0.312,-0.15 0.312,-0.265 -0.004,-0.177 -0.047,-0.141 -0.047,-0.141"
     id="path256" />
  <path
     style="fill:none;stroke:#231f20;stroke-width:0.565977;stroke-linecap:round;stroke-linejoin:round;stroke-miterlimit:4;stroke-dasharray:none;stroke-opacity:1"
     d="m 103.13621,34.399872 c -0.604,-0.416 -3.743996,-1.25 -4.467996,-1.411 -0.651,-0.147 -1.647,-0.74 -2.349,0.172 -0.298,0.364 -0.454,1.104 -0.438,1.427 0.016,0.265 0.292,0.426 0.692,0.474 0.658,0.088 0.876,-0.141 2.152,-0.057 0,0 0.307,-0.027 0.854,-0.109 1.608996,-0.224 0.884996,-0.276 3.291996,-0.09 0.172,0.016 0.312,-0.15 0.312,-0.265 -0.004,-0.177 -0.047,-0.141 -0.047,-0.141 z"
     id="path257" />
  <path
     style="fill:#231f20;fill-opacity:1;fill-rule:nonzero;stroke:none"
     d="m 70.236214,68.332872 c 0.703,-0.188 3.364,-2.038 3.957,-2.495 0.527,-0.401 1.626,-0.772 1.391,-1.901 -0.093,-0.464 -0.552,-1.068 -0.807,-1.26 -0.208,-0.158 -0.521,-0.048 -0.808,0.222 -0.489,0.448 -0.457,0.767 -1.348,1.683 0,0 -0.182,0.251 -0.469,0.719 -0.875,1.376 -0.359,0.849 -2.068,2.568 -0.115,0.12 -0.082,0.328 0,0.406 0.142,0.115 0.152,0.058 0.152,0.058"
     id="path258" />
  <path
     style="fill:none;stroke:#231f20;stroke-width:0.565977;stroke-linecap:round;stroke-linejoin:round;stroke-miterlimit:4;stroke-dasharray:none;stroke-opacity:1"
     d="m 70.236214,68.332872 c 0.703,-0.188 3.364,-2.038 3.957,-2.495 0.527,-0.401 1.626,-0.772 1.391,-1.901 -0.093,-0.464 -0.552,-1.068 -0.807,-1.26 -0.208,-0.158 -0.521,-0.048 -0.808,0.222 -0.489,0.448 -0.457,0.767 -1.348,1.683 0,0 -0.182,0.251 -0.469,0.719 -0.875,1.376 -0.359,0.849 -2.068,2.568 -0.115,0.12 -0.082,0.328 0,0.406 0.142,0.115 0.152,0.058 0.152,0.058 z"
     id="path259" />
  <path
     style="fill:#231f20;fill-opacity:1;fill-rule:nonzero;stroke:none"
     d="m 93.084214,42.508872 c -1.875,2.11 -4.656,2.704 -6.203,1.329 -1.552,-1.381 -1.291,-4.215 0.583,-6.324 1.876,-2.114 4.657,-2.702 6.209,-1.323 1.552,1.375 1.291,4.208 -0.589,6.318"
     id="path260" />
  <path
     style="fill:none;stroke:#231f20;stroke-width:0.565977;stroke-linecap:butt;stroke-linejoin:miter;stroke-miterlimit:4;stroke-dasharray:none;stroke-opacity:1"
     d="m 93.084214,42.508872 c -1.875,2.11 -4.656,2.704 -6.203,1.329 -1.552,-1.381 -1.291,-4.215 0.583,-6.324 1.876,-2.114 4.657,-2.702 6.209,-1.323 1.552,1.375 1.291,4.208 -0.589,6.318 z"
     id="path261" />
  <path
     style="fill:#ffffff;fill-opacity:1;fill-rule:nonzero;stroke:none"
     d="m 176.12621,12.499872 c -2.724,0.744 -5.376,-0.282 -5.917,-2.282 -0.547,-2.0050005 1.219,-4.2290005 3.948,-4.9740005 2.724,-0.744 5.375,0.281 5.921,2.286 0.548,2 -1.224,4.2300005 -3.952,4.9700005"
     id="path262" />
  <path
     style="fill:none;stroke:#231f20;stroke-width:0.565977;stroke-linecap:butt;stroke-linejoin:miter;stroke-miterlimit:4;stroke-dasharray:none;stroke-opacity:1"
     d="m 176.12621,12.499872 c -2.724,0.744 -5.376,-0.282 -5.917,-2.282 -0.547,-2.0050005 1.219,-4.2290005 3.948,-4.9740005 2.724,-0.744 5.375,0.281 5.921,2.286 0.548,2 -1.224,4.2300005 -3.952,4.9700005 z"
     id="path263" />
  <path
     style="fill:#231f20;fill-opacity:1;fill-rule:nonzero;stroke:none"
     d="m 71.991214,54.665872 c -3.417,-1.147 -3.631,0.525 -5.8336,3.953 -2.4172,3.75 -4.5308,7.922 -5.1042,11.167 -0.6463,3.635 -1.161,3.719 0.3496,4.911 1.5041,1.182 2.0093,0.589 3.2494,0.256 1.4375,-0.376 3.0788,-7.554 5.7918,-11.454 1.271,-1.828 5.506,-5.385 4.542,-6.464 -0.969,-1.082 -2.995,-2.369 -2.995,-2.369"
     id="path264" />
  <path
     style="fill:none;stroke:#231f20;stroke-width:0.565977;stroke-linecap:butt;stroke-linejoin:miter;stroke-miterlimit:4;stroke-dasharray:none;stroke-opacity:1"
     d="m 71.991214,54.665872 c -3.417,-1.147 -3.631,0.525 -5.8336,3.953 -2.4172,3.75 -4.5308,7.922 -5.1042,11.167 -0.6463,3.635 -1.161,3.719 0.3496,4.911 1.5041,1.182 2.0093,0.589 3.2494,0.256 1.4375,-0.376 3.0788,-7.554 5.7918,-11.454 1.271,-1.828 5.506,-5.385 4.542,-6.464 -0.969,-1.082 -2.995,-2.369 -2.995,-2.369 z"
     id="path265" />
  <path
     style="fill:#231f20;fill-opacity:1;fill-rule:nonzero;stroke:none"
     d="m 63.245614,73.394872 c -1.9213,-1.193 -2.4734,-1.568 -3.4374,0.744 -0.2439,0.584 -0.8063,2.271 -1.0516,2.579 -0.8016,1.015 -1.6459,2.265 -2.7923,8.754999 -0.1667,1 -0.8333,2.865 -1.1921,4.218 -0.3547,1.314 2.063,1 2.2026,0.49 0.464,-1.656 1.1151,-2.619 1.3656,-3.187 0.1667,-0.391 0.364,-1.177 1.3692,-2.5 2.6043,-3.400999 2.1402,-5.135999 2.6199,-5.895999 1.3905,-2.177 3.0255,-3.751 2.6255,-4.287 -0.6411,-0.88 -1.7094,-0.916 -1.7094,-0.916"
     id="path266" />
  <path
     style="fill:none;stroke:#231f20;stroke-width:0.565977;stroke-linecap:butt;stroke-linejoin:miter;stroke-miterlimit:4;stroke-dasharray:none;stroke-opacity:1"
     d="m 63.245614,73.394872 c -1.9213,-1.193 -2.4734,-1.568 -3.4374,0.744 -0.2439,0.584 -0.8063,2.271 -1.0516,2.579 -0.8016,1.015 -1.6459,2.265 -2.7923,8.754999 -0.1667,1 -0.8333,2.865 -1.1921,4.218 -0.3547,1.314 2.063,1 2.2026,0.49 0.464,-1.656 1.1151,-2.619 1.3656,-3.187 0.1667,-0.391 0.364,-1.177 1.3692,-2.5 2.6043,-3.400999 2.1402,-5.135999 2.6199,-5.895999 1.3905,-2.177 3.0255,-3.751 2.6255,-4.287 -0.6411,-0.88 -1.7094,-0.916 -1.7094,-0.916 z"
     id="path267" />
  <path
     style="fill:#231f20;fill-opacity:1;fill-rule:nonzero;stroke:none"
     d="m 77.439214,57.690872 c 2.912,2.126 1.677,3.262 0.151,7.052 -1.667,4.131 -3.85,8.271 -6.173,10.62 -2.588,2.61 -2.358,3.084 -4.202,2.547 -1.8441,-0.541 -1.6456,-1.296 -2.0936,-2.505 -0.5213,-1.4 4.3906,-6.88 6.0056,-11.343 0.754,-2.1 1.213,-7.605 2.65,-7.443 1.449,0.167 3.662,1.072 3.662,1.072"
     id="path268" />
  <path
     style="fill:none;stroke:#231f20;stroke-width:0.565977;stroke-linecap:butt;stroke-linejoin:miter;stroke-miterlimit:4;stroke-dasharray:none;stroke-opacity:1"
     d="m 77.439214,57.690872 c 2.912,2.126 1.677,3.262 0.151,7.052 -1.667,4.131 -3.85,8.271 -6.173,10.62 -2.588,2.61 -2.358,3.084 -4.202,2.547 -1.8441,-0.541 -1.6456,-1.296 -2.0936,-2.505 -0.5213,-1.4 4.3906,-6.88 6.0056,-11.343 0.754,-2.1 1.213,-7.605 2.65,-7.443 1.449,0.167 3.662,1.072 3.662,1.072 z"
     id="path269" />
  <path
     style="fill:#231f20;fill-opacity:1;fill-rule:nonzero;stroke:none"
     d="m 67.236214,75.649872 c 2.083,0.891 2.703,1.125 1.364,3.245 -0.344,0.536 -1.402,1.963 -1.516,2.338 -0.3694,1.239999 -0.9104,2.651999 -5.5719,7.296999 -0.7188,0.724 -1.8651,2.339 -2.7719,3.407 -0.875,1.036 -2.0041,-1.115 -1.6666,-1.527 1.0948,-1.323 1.5104,-2.411 1.8333,-2.943 0.2292,-0.364 0.7615,-0.968 1.2615,-2.557 1.2916,-4.076999 2.9838,-4.691999 3.3276,-5.524999 0.9896,-2.386 1.3442,-4.631 2.0109,-4.61 1.0828,0.026 1.7291,0.875 1.7291,0.875"
     id="path270" />
  <path
     style="fill:none;stroke:#231f20;stroke-width:0.565977;stroke-linecap:butt;stroke-linejoin:miter;stroke-miterlimit:4;stroke-dasharray:none;stroke-opacity:1"
     d="m 67.236214,75.649872 c 2.083,0.891 2.703,1.125 1.364,3.245 -0.344,0.536 -1.402,1.963 -1.516,2.338 -0.3694,1.239999 -0.9104,2.651999 -5.5719,7.296999 -0.7188,0.724 -1.8651,2.339 -2.7719,3.407 -0.875,1.036 -2.0041,-1.115 -1.6666,-1.527 1.0948,-1.323 1.5104,-2.411 1.8333,-2.943 0.2292,-0.364 0.7615,-0.968 1.2615,-2.557 1.2916,-4.076999 2.9838,-4.691999 3.3276,-5.524999 0.9896,-2.386 1.3442,-4.631 2.0109,-4.61 1.0828,0.026 1.7291,0.875 1.7291,0.875 z"
     id="path271" />
  <path
     style="fill:#231f20;fill-opacity:1;fill-rule:nonzero;stroke:none"
     d="m 57.740414,95.305871 c 0.5427,-0.391 0.1146,-2.145 1.0214,-3.891 0.188,-0.353 0.1666,-0.729 0.213,-1.104 0.1667,-1.5 -0.5052,-2.953 -3.0772,-0.114 -0.3546,0.39 -1,2.39 -1.5681,2.926 -1.3652,1.276 -1.3224,4.6 -0.8172,4.715 1.088,0.26 4.2281,-2.532 4.2281,-2.532"
     id="path272" />
  <path
     style="fill:none;stroke:#231f20;stroke-width:0.644548;stroke-linecap:round;stroke-linejoin:round;stroke-miterlimit:4;stroke-dasharray:none;stroke-opacity:1"
     d="m 57.740414,95.305871 c 0.5427,-0.391 0.1146,-2.145 1.0214,-3.891 0.188,-0.353 0.1666,-0.729 0.213,-1.104 0.1667,-1.5 -0.5052,-2.953 -3.0772,-0.114 -0.3546,0.39 -1,2.39 -1.5681,2.926 -1.3652,1.276 -1.3224,4.6 -0.8172,4.715 1.088,0.26 4.2281,-2.532 4.2281,-2.532 z"
     id="path273" />
  <path
     style="fill:#231f20;fill-opacity:1;fill-rule:nonzero;stroke:none"
     d="m 52.261814,92.534871 c -0.0161,-0.661 1.6358,-1.385 2.4692,-3.172 0.172,-0.358 0.4838,-0.573 0.7548,-0.828 1.0932,-1.046 2.6452,-1.396 1.953,2.37 -0.0984,0.521 -1.2916,2.245 -1.3745,3.026 -0.188,1.855 -2.8546,3.844 -3.2561,3.506 -0.8584,-0.704 -0.5464,-4.902 -0.5464,-4.902"
     id="path274" />
  <path
     style="fill:none;stroke:#231f20;stroke-width:0.644548;stroke-linecap:round;stroke-linejoin:round;stroke-miterlimit:4;stroke-dasharray:none;stroke-opacity:1"
     d="m 52.261814,92.534871 c -0.0161,-0.661 1.6358,-1.385 2.4692,-3.172 0.172,-0.358 0.4838,-0.573 0.7548,-0.828 1.0932,-1.046 2.6452,-1.396 1.953,2.37 -0.0984,0.521 -1.2916,2.245 -1.3745,3.026 -0.188,1.855 -2.8546,3.844 -3.2561,3.506 -0.8584,-0.704 -0.5464,-4.902 -0.5464,-4.902 z"
     id="path275" />
  <path
     style="fill:#fab41d;fill-opacity:1;fill-rule:nonzero;stroke:none"
     d="m 90.480214,47.977872 c -0.801,-0.62 -1.859,-2.688 -1.859,-2.688 0,0 -0.005,-0.004 -0.005,-0.009 -0.084,-0.24 -0.485,-1.303 -1.224,-2.016 -0.839,-0.808 -2.095,-1.312 -2.095,-1.312 0,0 -2.066,-1.058 -2.692,-1.866 -1.708,-2.229 -3.448,-1.358 -3.448,-1.358 -2.083,0.577 -0.63,2.76 -1.114,4.53 -0.364,1.287 -2.907,5.708 -5.167,8.047 -0.516,0.536 -2.874,1.032 -1.625,1.068 l 0.245,0.26 c 0.859,2.989 -2.751,7.589 -2.751,7.589 0,0 0.12,0.739 0.475,1.083 0.349,0.355 1.077,0.484 1.077,0.484 0,0 4.615,-3.599 7.606,-2.733 l 0.26,0.238 c 0.025,1.256 0.535,-1.104 1.068,-1.618 2.343,-2.251 6.776,-4.782 8.062,-5.131 1.771,-0.489 3.709,1.12 4.297,-0.959 0,0 1.108,-1.89 -1.11,-3.609"
     id="path276" />
  <path
     style="fill:none;stroke:#231f20;stroke-width:0.565977;stroke-linecap:butt;stroke-linejoin:miter;stroke-miterlimit:4;stroke-dasharray:none;stroke-opacity:1"
     d="m 90.480214,47.977872 c -0.801,-0.62 -1.859,-2.688 -1.859,-2.688 0,0 -0.005,-0.004 -0.005,-0.009 -0.084,-0.24 -0.485,-1.303 -1.224,-2.016 -0.839,-0.808 -2.095,-1.312 -2.095,-1.312 0,0 -2.066,-1.058 -2.692,-1.866 -1.708,-2.229 -3.448,-1.358 -3.448,-1.358 -2.083,0.577 -0.63,2.76 -1.114,4.53 -0.364,1.287 -2.907,5.708 -5.167,8.047 -0.516,0.536 -2.874,1.032 -1.625,1.068 l 0.245,0.26 c 0.859,2.989 -2.751,7.589 -2.751,7.589 0,0 0.12,0.739 0.475,1.083 0.349,0.355 1.077,0.484 1.077,0.484 0,0 4.615,-3.599 7.606,-2.733 l 0.26,0.238 c 0.025,1.256 0.535,-1.104 1.068,-1.618 2.343,-2.251 6.776,-4.782 8.062,-5.131 1.771,-0.489 3.709,1.12 4.297,-0.959 0,0 1.108,-1.89 -1.11,-3.609 z"
     id="path277" />
  <path
     style="fill:#fab41d;fill-opacity:1;fill-rule:nonzero;stroke:none"
     d="m 80.397214,56.660872 c 0.036,0.344 0.01,1.713 -0.046,2.172 -0.401,2.942 -2.423,6.342 -2.803,7.562 -0.369,1.219 -6.084,-2.078 -6.084,-2.078 l -0.083,-1.464 c -0.598,0.157 -0.155,-0.088 -0.155,-0.088 l -1.47,0.688 c 0,0 -5.7491,-2.959 -5.1252,-3.762 0.8548,-1.098 3.1982,-5.088 5.1252,-6.598 1.063,-0.834 2.068,-1.031 2.068,-1.031 0,0 2.64,2.733 3.885,3.432 1.241,0.703 4.688,1.167 4.688,1.167"
     id="path278" />
  <path
     style="fill:none;stroke:#231f20;stroke-width:0.565977;stroke-linecap:butt;stroke-linejoin:miter;stroke-miterlimit:4;stroke-dasharray:none;stroke-opacity:1"
     d="m 80.397214,56.660872 c 0.036,0.344 0.01,1.713 -0.046,2.172 -0.401,2.942 -2.423,6.342 -2.803,7.562 -0.369,1.219 -6.084,-2.078 -6.084,-2.078 l -0.083,-1.464 c -0.598,0.157 -0.155,-0.088 -0.155,-0.088 l -1.47,0.688 c 0,0 -5.7491,-2.959 -5.1252,-3.762 0.8548,-1.098 3.1982,-5.088 5.1252,-6.598 1.063,-0.834 2.068,-1.031 2.068,-1.031 0,0 2.64,2.733 3.885,3.432 1.241,0.703 4.688,1.167 4.688,1.167 z"
     id="path279" />
  <path
     style="fill:none;stroke:#231f20;stroke-width:0.565977;stroke-linecap:round;stroke-linejoin:round;stroke-miterlimit:4;stroke-dasharray:none;stroke-opacity:1"
     d="m 74.907214,63.498872 c -1.755,0.411 -2.957,-1.39 -2.957,-1.39 -1.809,-0.303 -2.673,-1.652 -2.673,-1.652"
     id="path280" />
  <path
     style="fill:none;stroke:#231f20;stroke-width:0.399514;stroke-linecap:butt;stroke-linejoin:miter;stroke-miterlimit:4;stroke-dasharray:none;stroke-opacity:1"
     d="m 56.912314,56.545872 c 26.4849,-0.099 27.2149,13.167 19.6309,16.812"
     id="path281" />
  <path
     style="fill:#231f20;fill-opacity:1;fill-rule:nonzero;stroke:none"
     d="m 75.460214,73.878872 c 0.416,-0.432 0.895,-1.062 1.124,-1.593 l 0.1,1.004 0.723,0.709 c -0.557,-0.157 -1.348,-0.172 -1.947,-0.12"
     id="path282" />
  <path
     style="fill:#fab41d;fill-opacity:1;fill-rule:nonzero;stroke:none"
     d="m 158.55321,16.040872 c -3.016,0.864 -3.562,1.385 -4.276,1.964 -4.484,3.651 -6.193,1.38 -6.474,-1.491 -0.334,-3.369 -0.52,-4.577 5.666,-5.728 1.719,-0.324 8.162,-2.4220005 8.162,-2.4220005 2.204,-1.063 4.922,-0.916 6.042,0.016 1.176,0.978 0.64,0.677 1.567,1.7860005 0.881,1.058 1.234,3.214 0.438,4.162 -0.766,0.905 -2.412,0.625 -4.833,0.536 -1.912,-0.068 -6.292,1.177 -6.292,1.177"
     id="path283" />
  <path
     style="fill:none;stroke:#231f20;stroke-width:0.565977;stroke-linecap:butt;stroke-linejoin:miter;stroke-miterlimit:4;stroke-dasharray:none;stroke-opacity:1"
     d="m 158.55321,16.040872 c -3.016,0.864 -3.562,1.385 -4.276,1.964 -4.484,3.651 -6.193,1.38 -6.474,-1.491 -0.334,-3.369 -0.52,-4.577 5.666,-5.728 1.719,-0.324 8.162,-2.4220005 8.162,-2.4220005 2.204,-1.063 4.922,-0.916 6.042,0.016 1.176,0.978 0.64,0.677 1.567,1.7860005 0.881,1.058 1.234,3.214 0.438,4.162 -0.766,0.905 -2.412,0.625 -4.833,0.536 -1.912,-0.068 -6.292,1.177 -6.292,1.177 z"
     id="path284" />
  <path
     style="fill:#231f20;fill-opacity:1;fill-rule:nonzero;stroke:none"
     d="m 132.49621,17.821872 c 0.609,2.178 0.432,2.687 -0.469,3.006 -0.599,0.213 -1.088,0.614 -1.448,0.76 -1.203,0.489 -3.422,0.817 -9.968,0.098 -1.484,-0.161 -3.568,-0.38 -4.428,-0.396 -1.359,-0.03 -0.386,-2.265 0.146,-2.254 1.714,0.016 2.896,-0.104 3.511,-0.183 0.427,-0.052 1.192,-0.047 2.801,-0.457 2.448,-0.636 3.819,-1.382 5.918,-1.667 0.968,-0.136 1.62,-0.849 2.64,-0.496 1.026,0.355 1.297,1.589 1.297,1.589"
     id="path285" />
  <path
     style="fill:none;stroke:#231f20;stroke-width:0.565977;stroke-linecap:butt;stroke-linejoin:miter;stroke-miterlimit:4;stroke-dasharray:none;stroke-opacity:1"
     d="m 132.49621,17.821872 c 0.609,2.178 0.432,2.687 -0.469,3.006 -0.599,0.213 -1.088,0.614 -1.448,0.76 -1.203,0.489 -3.422,0.817 -9.968,0.098 -1.484,-0.161 -3.568,-0.38 -4.428,-0.396 -1.359,-0.03 -0.386,-2.265 0.146,-2.254 1.714,0.016 2.896,-0.104 3.511,-0.183 0.427,-0.052 1.192,-0.047 2.801,-0.457 2.448,-0.636 3.819,-1.382 5.918,-1.667 0.968,-0.136 1.62,-0.849 2.64,-0.496 1.026,0.355 1.297,1.589 1.297,1.589 z"
     id="path286" />
  <path
     style="fill:#231f20;fill-opacity:1;fill-rule:nonzero;stroke:#231f20;stroke-width:0.565977;stroke-linecap:round;stroke-linejoin:miter;stroke-miterlimit:4;stroke-dasharray:none;stroke-opacity:1"
     d="m 130.33521,16.571872 c 0.776,-1.104 2.792,-0.938 3.093,-1.052 4.688,-1.782 5.068,-1.787 8.729,-2.891 5.292,-1.593 9.162,-1.875 10.99,0.933 1.24,1.906 1.125,3.542 0.365,4.614 -0.844,1.193 -3.672,2.646 -6.161,1.182 l -1.71,0.038 c -1.15,0.176 -1.724,0.249 -2.281,0.385 -0.979,0.229 -2.036,0.405 -3.963,0.749 -3.422,0.599 -7.234,0.115 -7.234,0.115 -0.303,0.047 -0.579,-0.031 -0.803,-0.177"
     id="path287" />
  <path
     style="fill:#fab41d;fill-opacity:1;fill-rule:nonzero;stroke:none"
     d="m 153.14721,13.561872 c -0.807,-1.234 -2.02,-1.86 -3.568,-2.048 -0.974,-0.348 -1.572,-0.536 -2.244,-0.093 -0.063,0.041 -0.131,0.073 -0.204,0.109 -0.583,0.063 -1.182,0.151 -1.828,0.287 l 2.048,7.541 c 2.489,1.464 5.317,0.011 6.161,-1.182 0.76,-1.072 0.875,-2.708 -0.365,-4.614"
     id="path288" />
  <path
     style="fill:none;stroke:#231f20;stroke-width:0.565977;stroke-linecap:round;stroke-linejoin:round;stroke-miterlimit:4;stroke-dasharray:none;stroke-opacity:1"
     d="m 153.14721,13.561872 c -0.807,-1.234 -2.02,-1.86 -3.568,-2.048 -0.974,-0.348 -1.572,-0.536 -2.244,-0.093 -0.063,0.041 -0.131,0.073 -0.204,0.109 -0.583,0.063 -1.182,0.151 -1.828,0.287 l 2.048,7.541 c 2.489,1.464 5.317,0.011 6.161,-1.182 0.76,-1.072 0.875,-2.708 -0.365,-4.614 z"
     id="path289" />
  <path
     style="fill:#231f20;fill-opacity:1;fill-rule:nonzero;stroke:none"
     d="m 182.57321,1.8898715 c -0.509,-0.385 -2.452,-0.266 -3.973,-0.792 -1.027,-0.34899997 -3.766,-0.10399997 -4.76,-0.53599997 -0.912,-0.39 -1.371,-0.485 -1.991,0.48999997 -0.369,0.568 -0.719,1.905 -0.296,2.208 0.963,0.693 1.885,0.901 2.948,0.912 1.224,0.014 4.52,-0.251 5.125,-0.355 1.504,-0.26 2.146,0.088 2.556,0.057 0.751,-0.062 0.923,-0.365 0.991,-0.869 0.124,-0.948 -0.6,-1.115 -0.6,-1.115"
     id="path290" />
  <path
     style="fill:none;stroke:#231f20;stroke-width:0.565977;stroke-linecap:butt;stroke-linejoin:miter;stroke-miterlimit:4;stroke-dasharray:none;stroke-opacity:1"
     d="m 182.57321,1.8898715 c -0.509,-0.385 -2.452,-0.266 -3.973,-0.792 -1.027,-0.34899997 -3.766,-0.10399997 -4.76,-0.53599997 -0.912,-0.39 -1.371,-0.485 -1.991,0.48999997 -0.369,0.568 -0.719,1.905 -0.296,2.208 0.963,0.693 1.885,0.901 2.948,0.912 1.224,0.014 4.52,-0.251 5.125,-0.355 1.504,-0.26 2.146,0.088 2.556,0.057 0.751,-0.062 0.923,-0.365 0.991,-0.869 0.124,-0.948 -0.6,-1.115 -0.6,-1.115 z"
     id="path291" />
  <path
     style="fill:#231f20;fill-opacity:1;fill-rule:nonzero;stroke:none"
     d="m 172.81821,1.2598715 c -1.098,-0.68299997 -1.833,1.218 -2.109,1.688 -0.271,0.468 -1.197,1.724 -2.041,2.604 -0.844,0.885 -1.527,2.344 -3.141,4.025 -0.848,0.8910005 -1.104,2.2810005 0.229,3.4590005 1.322,1.15 2.469,0.849 3.333,-0.38 0.865,-1.224 1.151,-2.7400005 1.932,-4.0320005 0.781,-1.291 1.699,-2.536 2.464,-3.479 0.869,-1.073 0.896,-1.927 0.683,-2.349 -0.563,-1.058 -1.35,-1.536 -1.35,-1.536"
     id="path292" />
  <path
     style="fill:none;stroke:#231f20;stroke-width:0.565977;stroke-linecap:butt;stroke-linejoin:miter;stroke-miterlimit:4;stroke-dasharray:none;stroke-opacity:1"
     d="m 172.81821,1.2598715 c -1.098,-0.68299997 -1.833,1.218 -2.109,1.688 -0.271,0.468 -1.197,1.724 -2.041,2.604 -0.844,0.885 -1.527,2.344 -3.141,4.025 -0.848,0.8910005 -1.104,2.2810005 0.229,3.4590005 1.322,1.15 2.469,0.849 3.333,-0.38 0.865,-1.224 1.151,-2.7400005 1.932,-4.0320005 0.781,-1.291 1.699,-2.536 2.464,-3.479 0.869,-1.073 0.896,-1.927 0.683,-2.349 -0.563,-1.058 -1.35,-1.536 -1.35,-1.536 z"
     id="path293" />
  <path
     style="fill:#231f20;fill-opacity:1;fill-rule:nonzero;stroke:none"
     d="m 189.31821,4.0618715 c -0.677,0.25 -3.932,0.266 -4.672,0.234 -0.672,-0.015 -1.781,0.302 -2.234,-0.76 -0.182,-0.427 -0.162,-1.183 -0.062,-1.49 0.078,-0.245 0.39,-0.338 0.786,-0.281 0.661,0.077 0.824,0.364 2.073,0.604 0,0 0.287,0.099 0.792,0.308 1.511,0.635 0.787,0.495 3.167,0.916 0.177,0.031 0.265,0.224 0.234,0.339 -0.042,0.172 -0.084,0.13 -0.084,0.13"
     id="path294" />
  <path
     style="fill:none;stroke:#231f20;stroke-width:0.565977;stroke-linecap:round;stroke-linejoin:round;stroke-miterlimit:4;stroke-dasharray:none;stroke-opacity:1"
     d="m 189.31821,4.0618715 c -0.677,0.25 -3.932,0.266 -4.672,0.234 -0.672,-0.015 -1.781,0.302 -2.234,-0.76 -0.182,-0.427 -0.162,-1.183 -0.062,-1.49 0.078,-0.245 0.39,-0.338 0.786,-0.281 0.661,0.077 0.824,0.364 2.073,0.604 0,0 0.287,0.099 0.792,0.308 1.511,0.635 0.787,0.495 3.167,0.916 0.177,0.031 0.265,0.224 0.234,0.339 -0.042,0.172 -0.084,0.13 -0.084,0.13 z"
     id="path295" />
</svg>
