<?xml version="1.0" encoding="UTF-8" standalone="no"?>
<!-- Created with Inkscape (http://www.inkscape.org/) -->

<svg
   version="1.1"
   id="svg1"
   width="30.15921"
   height="30.97888"
   viewBox="0 0 30.159208 30.97888"
   sodipodi:docname="cell.svg"
   xmlns:inkscape="http://www.inkscape.org/namespaces/inkscape"
   xmlns:sodipodi="http://sodipodi.sourceforge.net/DTD/sodipodi-0.dtd"
   xmlns="http://www.w3.org/2000/svg"
   xmlns:svg="http://www.w3.org/2000/svg">
  <sodipodi:namedview
     id="namedview1"
     pagecolor="#ffffff"
     bordercolor="#000000"
     borderopacity="0.25"
     inkscape:showpageshadow="2"
     inkscape:pageopacity="0.0"
     inkscape:pagecheckerboard="0"
     inkscape:deskcolor="#d1d1d1">
    <inkscape:page
       x="9.9811295e-08"
       y="1.1065014e-07"
       inkscape:label="1"
       id="page1"
       width="30.159208"
       height="30.97888"
       margin="0"
       bleed="0" />
  </sodipodi:namedview>
  <defs
     id="defs1" />
  <path
     style="fill:none;stroke:#231f20;stroke-width:1.33171;stroke-linecap:round;stroke-linejoin:round;stroke-miterlimit:4;stroke-dasharray:none;stroke-opacity:1"
     d="m 6.587155,12.218879 c 2.3693,-3.6720001 6.7188,-8.6980001 9.5985,-10.5360001 2.0427,-1.30300001 3.1093,-0.92800001 3.5572,0.462 0.4428,1.355 0.2813,4.334 -0.7239,5.459 2.6613,-3.968 4.9479,-7.60900001 7.4333,-6.83800001 1.9323,0.60400001 1.0307,4.94200001 -0.5677,6.89500001"
     id="path703" />
  <path
     style="fill:#231f20;fill-opacity:1;fill-rule:nonzero;stroke:none"
     d="m 25.326655,30.978879 c 0.8855,0 1.6042,-0.719 1.6042,-1.604 0,-0.886 -0.7187,-1.604 -1.6042,-1.604 -0.8849,0 -1.6036,0.718 -1.6036,1.604 0,0.885 0.7187,1.604 1.6036,1.604"
     id="path704" />
  <path
     style="fill:none;stroke:#231f20;stroke-width:1.33171;stroke-linecap:round;stroke-linejoin:round;stroke-miterlimit:4;stroke-dasharray:none;stroke-opacity:1"
     d="m 22.925655,13.348879 c 0,1.812 1.4693,3.282 3.2813,3.282 1.8172,0 3.2864,-1.47 3.2864,-3.282 0,-1.813 -1.4692,-3.281 -3.2864,-3.281 -1.812,0 -3.2813,1.468 -3.2813,3.281 z"
     id="path705" />
  <path
     style="fill:none;stroke:#231f20;stroke-width:1.33171;stroke-linecap:round;stroke-linejoin:round;stroke-miterlimit:4;stroke-dasharray:none;stroke-opacity:1"
     d="M 0.66585521,14.114879 H 22.581355"
     id="path706" />
  <path
     style="fill:none;stroke:#231f20;stroke-width:1.33171;stroke-linecap:round;stroke-linejoin:round;stroke-miterlimit:4;stroke-dasharray:none;stroke-opacity:1"
     d="m 13.540355,25.363879 8.8066,-11.171 1.8907,11.328"
     id="path707" />
</svg>
