<?xml version="1.0" encoding="UTF-8" standalone="no"?>
<!-- Created with Inkscape (http://www.inkscape.org/) -->

<svg
   version="1.1"
   id="svg1"
   width="17.130972"
   height="11.797373"
   viewBox="0 0 17.130971 11.797373"
   sodipodi:docname="cell.svg"
   xmlns:inkscape="http://www.inkscape.org/namespaces/inkscape"
   xmlns:sodipodi="http://sodipodi.sourceforge.net/DTD/sodipodi-0.dtd"
   xmlns="http://www.w3.org/2000/svg"
   xmlns:svg="http://www.w3.org/2000/svg">
  <sodipodi:namedview
     id="namedview1"
     pagecolor="#ffffff"
     bordercolor="#000000"
     borderopacity="0.25"
     inkscape:showpageshadow="2"
     inkscape:pageopacity="0.0"
     inkscape:pagecheckerboard="0"
     inkscape:deskcolor="#d1d1d1">
    <inkscape:page
       x="0"
       y="0"
       inkscape:label="1"
       id="page1"
       width="17.130972"
       height="11.797373"
       margin="0"
       bleed="0" />
  </sodipodi:namedview>
  <defs
     id="defs1" />
  <path
     style="fill:#231f20;fill-opacity:1;fill-rule:nonzero;stroke:none"
     d="m 6.8409874,1.8561863 c 0.1053,0.104 0.0319,0.282 0.0319,0.491 0.1401,0.312 0.2082,0.765 0.2082,1.323 0,0.765 -0.1041,1.64 -0.6614,2.681 -0.1042,0.177 -0.2078,0.245 -0.3495,0.245 -0.1344,0 -0.2385,-0.104 -0.312,-0.312 -0.1041,-0.385 -0.1411,-0.766 -0.1411,-1.152 0,-0.697 0.1411,-1.358 0.3864,-2.057 0.036,-0.104 0.0667,-0.172 0.0667,-0.276 0,-0.104 -0.0307,-0.208 -0.1344,-0.312 -0.3187,-0.421 -0.7348,-0.631 -1.152,-0.631 -0.5573,0 -1.2188,0.314 -1.8803,0.907 -1.1505,1.083 -1.7437,2.579 -1.7437,4.005 0,1.364 0.5573,2.688 1.6344,3.3499997 0.7708,0.416 1.5735,0.661 2.3391,0.661 2.2968,0 4.5625,-1.7399997 5.6769996,-3.9369997 0.0735,-0.106 0.1771,-0.178 0.2454,-0.178 0.1041,0 0.2811,0.104 0.1401,0.422 -0.8385,2.057 -3.6922996,4.2859997 -6.4479996,4.2859997 -0.9068,0 -1.776,-0.245 -2.5776,-0.765 C 0.95048738,9.8041863 0.39418738,8.4821863 0.39418738,7.1181863 c 0,-1.808 0.90570002,-3.62 2.16150002,-4.735 1.1812,-1.084 1.9478,-1.224 2.5776,-1.224 0.313,0 0.9369,0.213 1.3598,0.667 0.1719,0 0.276,-0.074 0.3479,0.03"
     id="path1244" />
  <path
     style="fill:none;stroke:#231f20;stroke-width:0.788373;stroke-linecap:butt;stroke-linejoin:miter;stroke-miterlimit:10;stroke-dasharray:none;stroke-opacity:1"
     d="m 6.8409874,1.8561863 c 0.1053,0.104 0.0319,0.282 0.0319,0.491 0.1401,0.312 0.2082,0.765 0.2082,1.323 0,0.765 -0.1041,1.64 -0.6614,2.681 -0.1042,0.177 -0.2078,0.245 -0.3495,0.245 -0.1344,0 -0.2385,-0.104 -0.312,-0.312 -0.1041,-0.385 -0.1411,-0.766 -0.1411,-1.152 0,-0.697 0.1411,-1.358 0.3864,-2.057 0.036,-0.104 0.0667,-0.172 0.0667,-0.276 0,-0.104 -0.0307,-0.208 -0.1344,-0.312 -0.3187,-0.421 -0.7348,-0.631 -1.152,-0.631 -0.5573,0 -1.2188,0.314 -1.8803,0.907 -1.1505,1.083 -1.7437,2.579 -1.7437,4.005 0,1.364 0.5573,2.688 1.6344,3.3499997 0.7708,0.416 1.5735,0.661 2.3391,0.661 2.2968,0 4.5625,-1.7399997 5.6769996,-3.9369997 0.0735,-0.106 0.1771,-0.178 0.2454,-0.178 0.1041,0 0.2811,0.104 0.1401,0.422 -0.8385,2.057 -3.6922996,4.2859997 -6.4479996,4.2859997 -0.9068,0 -1.776,-0.245 -2.5776,-0.765 C 0.95048738,9.8041863 0.39418738,8.4821863 0.39418738,7.1181863 c 0,-1.808 0.90570002,-3.62 2.16150002,-4.735 1.1812,-1.084 1.9478,-1.224 2.5776,-1.224 0.313,0 0.9369,0.213 1.3598,0.667 0.1719,0 0.276,-0.074 0.3479,0.03 z"
     id="path1245" />
  <path
     style="fill:#231f20;fill-opacity:1;fill-rule:nonzero;stroke:none"
     d="m 11.055687,4.1591863 c 0.0718,-0.073 0.1759,-0.104 0.2811,-0.104 0.1402,0 0.348,0.104 0.2386,0.52 -0.3796,1.672 -0.6249,3.032 -0.6249,4.079 0,0.869 0.177,1.5299997 0.5571,1.8119997 0.2454,0.209 0.4907,0.276 0.8387,0.276 1.2187,0 2.8239,-1.7389997 3.9744,-3.9379997 0.0308,-0.104 0.1724,-0.172 0.2443,-0.172 0.1,0 0.1718,0.068 0.1718,0.172 0,0.074 -0.0358,0.142 -0.0718,0.246 -0.5574,1.396 -1.6,2.792 -2.8907,3.7289997 -0.5572,0.416 -1.2187,0.624 -1.8135,0.624 -0.3854,0 -0.7292,-0.104 -0.9734,-0.312 -0.4172,-0.38 -0.7651,-0.907 -0.7651,-2.3329997 0,-0.87 0.1042,-1.954 0.4162,-3.552 0.0677,-0.35 0.0358,-0.771 0.4172,-1.047"
     id="path1287" />
  <path
     style="fill:#231f20;fill-opacity:1;fill-rule:nonzero;stroke:none"
     d="m 12.378587,0.77918628 c 0.0718,0.172 0.1088,0.31200002 0.1088,0.48900002 0,0.552 -0.3172,1.115 -0.7344,1.359 -0.1776,0.105 -0.3495,0.136 -0.5214,0.136 -0.2442,0 -0.4519,-0.104 -0.5573,-0.281 -0.14,-0.24 0.172,-1.355 0.3814,-1.59900002 0.2077,-0.281 0.5573,-0.489 0.8374,-0.489 0.1719,0 0.3812,0.104 0.4855,0.385"
     id="path1246" />
  <path
     style="fill:none;stroke:#231f20;stroke-width:0.788373;stroke-linecap:butt;stroke-linejoin:miter;stroke-miterlimit:10;stroke-dasharray:none;stroke-opacity:1"
     d="m 11.055687,4.1591863 c 0.0718,-0.073 0.1759,-0.104 0.2811,-0.104 0.1402,0 0.348,0.104 0.2386,0.52 -0.3796,1.672 -0.6249,3.032 -0.6249,4.079 0,0.869 0.177,1.5299997 0.5571,1.8119997 0.2454,0.209 0.4907,0.276 0.8387,0.276 1.2187,0 2.8239,-1.7389997 3.9744,-3.9379997 0.0308,-0.104 0.1724,-0.172 0.2443,-0.172 0.1,0 0.1718,0.068 0.1718,0.172 0,0.074 -0.0358,0.142 -0.0718,0.246 -0.5574,1.396 -1.6,2.792 -2.8907,3.7289997 -0.5572,0.416 -1.2187,0.624 -1.8135,0.624 -0.3854,0 -0.7292,-0.104 -0.9734,-0.312 -0.4172,-0.38 -0.7651,-0.907 -0.7651,-2.3329997 0,-0.87 0.1042,-1.954 0.4162,-3.552 0.0677,-0.35 0.0358,-0.771 0.4172,-1.047 z"
     id="path1288" />
  <path
     style="fill:none;stroke:#231f20;stroke-width:0.788373;stroke-linecap:butt;stroke-linejoin:miter;stroke-miterlimit:10;stroke-dasharray:none;stroke-opacity:1"
     d="m 12.378587,0.77918628 c 0.0718,0.172 0.1088,0.31200002 0.1088,0.48900002 0,0.552 -0.3172,1.115 -0.7344,1.359 -0.1776,0.105 -0.3495,0.136 -0.5214,0.136 -0.2442,0 -0.4519,-0.104 -0.5573,-0.281 -0.14,-0.24 0.172,-1.355 0.3814,-1.59900002 0.2077,-0.281 0.5573,-0.489 0.8374,-0.489 0.1719,0 0.3812,0.104 0.4855,0.385 z"
     id="path1247" />
</svg>
