<?xml version="1.0" encoding="UTF-8" standalone="no"?>
<!-- Created with Inkscape (http://www.inkscape.org/) -->

<svg
   version="1.1"
   id="svg1"
   width="11.219001"
   height="9.842"
   viewBox="0 0 11.219 9.8420002"
   sodipodi:docname="cell.svg"
   xmlns:inkscape="http://www.inkscape.org/namespaces/inkscape"
   xmlns:sodipodi="http://sodipodi.sourceforge.net/DTD/sodipodi-0.dtd"
   xmlns="http://www.w3.org/2000/svg"
   xmlns:svg="http://www.w3.org/2000/svg">
  <sodipodi:namedview
     id="namedview1"
     pagecolor="#ffffff"
     bordercolor="#000000"
     borderopacity="0.25"
     inkscape:showpageshadow="2"
     inkscape:pageopacity="0.0"
     inkscape:pagecheckerboard="0"
     inkscape:deskcolor="#d1d1d1">
    <inkscape:page
       x="7.902903e-07"
       y="7.1230808e-09"
       inkscape:label="1"
       id="page1"
       width="11.219"
       height="9.842"
       margin="0"
       bleed="0" />
  </sodipodi:namedview>
  <defs
     id="defs1" />
  <path
     style="fill:#231f20;fill-opacity:1;fill-rule:nonzero;stroke:none"
     d="m 1.2509996,8.8059997 c 0.26,0.047 0.604,0.058 1.052,0.058 1.292,0 2.484,-0.474 2.484,-1.88 0,-1.308 -1.135,-1.87 -2.5,-1.87 h -1.036 z M -3.5451216e-7,0.21299968 C 0.54799965,0.08199968 1.4229996,-3.1718197e-7 2.2869996,-3.1718197e-7 c 1.251,0 2.057,0.21299999718197 2.647,0.70199999718197 0.5,0.37500002 0.817,0.94800002 0.817,1.70800002 0,0.948 -0.636,1.771 -1.641,2.131 v 0.041 c 0.922,0.214 2,0.979 2,2.418 0,0.833 -0.328,1.462 -0.834,1.937 -0.661,0.62 -1.754,0.905 -3.333,0.905 -0.864,0 -1.52499995,-0.057 -1.94299995451217,-0.113 z M 1.2509996,4.1809997 h 1.135 c 1.308,0 2.084,-0.708 2.084,-1.64 0,-1.12 -0.844,-1.57900002 -2.11,-1.57900002 -0.578,0 -0.906,0.043 -1.109,0.084 z"
     id="path1435" />
  <path
     style="fill:#231f20;fill-opacity:1;fill-rule:nonzero;stroke:none"
     d="m 7.7819996,4.9729997 c 0,-0.817 -0.015,-1.525 -0.058,-2.172 h 1.106 l 0.056,1.365 h 0.048 c 0.312,-0.933 1.0930004,-1.526 1.9370004,-1.526 0.129,0 0.235,0.016 0.348,0.046 v 1.178 c -0.145,-0.016 -0.276,-0.031 -0.447,-0.031 -0.8900004,0 -1.5260004,0.676 -1.6980004,1.615 -0.026,0.186 -0.042,0.385 -0.042,0.604 v 3.708 h -1.265 z"
     id="path1436" />
</svg>
