<?xml version="1.0" encoding="UTF-8" standalone="no"?>
<!-- Created with Inkscape (http://www.inkscape.org/) -->

<svg
   version="1.1"
   id="svg1"
   width="36.545856"
   height="35.705708"
   viewBox="0 0 36.545854 35.705707"
   sodipodi:docname="cell.svg"
   xmlns:inkscape="http://www.inkscape.org/namespaces/inkscape"
   xmlns:sodipodi="http://sodipodi.sourceforge.net/DTD/sodipodi-0.dtd"
   xmlns="http://www.w3.org/2000/svg"
   xmlns:svg="http://www.w3.org/2000/svg">
  <sodipodi:namedview
     id="namedview1"
     pagecolor="#ffffff"
     bordercolor="#000000"
     borderopacity="0.25"
     inkscape:showpageshadow="2"
     inkscape:pageopacity="0.0"
     inkscape:pagecheckerboard="0"
     inkscape:deskcolor="#d1d1d1">
    <inkscape:page
       x="0"
       y="0"
       inkscape:label="1"
       id="page1"
       width="36.545853"
       height="35.705708"
       margin="0"
       bleed="0" />
  </sodipodi:namedview>
  <defs
     id="defs1" />
  <path
     style="fill:none;stroke:#231f20;stroke-width:1.33171;stroke-linecap:round;stroke-linejoin:round;stroke-miterlimit:4;stroke-dasharray:none;stroke-opacity:1"
     d="m 21.082,11.785858 c -11.4839999,-0.631 -13.6039999,5.932 -13.6039999,5.932"
     id="path902" />
  <path
     style="fill:#231f20;fill-opacity:1;fill-rule:nonzero;stroke:none"
     d="m 6.2400001,21.545858 c -0.084,-2.016 -0.5,-4.62 -1.262,-6.391 l 2.662,2.063 3.3649999,-0.115 c -1.6559999,0.995 -3.5159999,2.859 -4.7649999,4.443"
     id="path903" />
  <path
     style="fill:none;stroke:#231f20;stroke-width:1.33171;stroke-linecap:round;stroke-linejoin:miter;stroke-miterlimit:4;stroke-dasharray:none;stroke-opacity:1"
     d="M 2.0100001,3.6908584 V 22.414858"
     id="path904" />
  <path
     style="fill:#231f20;fill-opacity:1;fill-rule:nonzero;stroke:none"
     d="m 1.9480001,29.195858 c 1.082,0 1.958,-0.869 1.958,-1.953 0,-1.072 -0.876,-1.948 -1.958,-1.948 -1.07399999,0 -1.94799998990931,0.876 -1.94799998990931,1.948 0,1.084 0.87399999990931,1.953 1.94799998990931,1.953"
     id="path905" />
  <path
     style="fill:none;stroke:#231f20;stroke-width:1.33171;stroke-linecap:butt;stroke-linejoin:miter;stroke-miterlimit:4;stroke-dasharray:none;stroke-opacity:1"
     d="m 33.926,35.039858 c 1.079,0 1.954,-0.869 1.954,-1.948 0,-1.078 -0.875,-1.953 -1.954,-1.953 -1.077,0 -1.953,0.875 -1.953,1.953 0,1.079 0.876,1.948 1.953,1.948 z"
     id="path906" />
  <path
     style="fill:none;stroke:#231f20;stroke-width:1.33171;stroke-linecap:round;stroke-linejoin:round;stroke-miterlimit:4;stroke-dasharray:none;stroke-opacity:1"
     d="M 33.833,0.66585842 V 28.097858"
     id="path907" />
  <path
     style="fill:none;stroke:#231f20;stroke-width:1.33171;stroke-linecap:round;stroke-linejoin:round;stroke-miterlimit:4;stroke-dasharray:none;stroke-opacity:1"
     d="m 26.082,18.842858 c 0,2.176 1.767,3.943 3.943,3.943 2.183,0 3.948,-1.767 3.948,-3.943 0,-2.183 -1.765,-3.948 -3.948,-3.948 -2.176,0 -3.943,1.765 -3.943,3.948 z"
     id="path908" />
  <path
     style="fill:none;stroke:#231f20;stroke-width:1.33171;stroke-linecap:round;stroke-linejoin:round;stroke-miterlimit:4;stroke-dasharray:none;stroke-opacity:1"
     d="m 12.536,26.211858 8.057,-6.693"
     id="path909" />
</svg>
