<?xml version="1.0" encoding="UTF-8" standalone="no"?>
<!-- Created with Inkscape (http://www.inkscape.org/) -->

<svg
   version="1.1"
   id="svg1"
   width="341.25485"
   height="91.764999"
   viewBox="0 0 341.25484 91.764998"
   sodipodi:docname="cell.svg"
   xmlns:inkscape="http://www.inkscape.org/namespaces/inkscape"
   xmlns:sodipodi="http://sodipodi.sourceforge.net/DTD/sodipodi-0.dtd"
   xmlns="http://www.w3.org/2000/svg"
   xmlns:svg="http://www.w3.org/2000/svg">
  <sodipodi:namedview
     id="namedview1"
     pagecolor="#ffffff"
     bordercolor="#000000"
     borderopacity="0.25"
     inkscape:showpageshadow="2"
     inkscape:pageopacity="0.0"
     inkscape:pagecheckerboard="0"
     inkscape:deskcolor="#d1d1d1">
    <inkscape:page
       x="0"
       y="0"
       inkscape:label="1"
       id="page1"
       width="341.25485"
       height="91.764999"
       margin="0"
       bleed="0" />
  </sodipodi:namedview>
  <defs
     id="defs1" />
  <path
     style="fill:#231f20;fill-opacity:1;fill-rule:nonzero;stroke:none"
     d="m 208.01993,68.184597 c -1.088,-0.808 -0.818,-1.766 0.048,-2.344 0.254,-0.172 0.29,-0.589 0.557,-0.734 0.615,-0.344 2.276,0.188 2.181,1.688 -0.005,0.104 0.194,0.9 0.251,1.52 0.104,1.209 -0.265,3.677 -2.453,5.256 -1.031,0.749 -1.282,0.005 -0.959,-0.432 1.037,-1.36 0.86,-1.683 1,-2.142 0.485,-1.546 -0.625,-2.812 -0.625,-2.812"
     id="path476" />
  <path
     style="fill:none;stroke:#231f20;stroke-width:0.332927;stroke-linecap:butt;stroke-linejoin:miter;stroke-miterlimit:4;stroke-dasharray:none;stroke-opacity:1"
     d="m 208.01993,68.184597 c -1.088,-0.808 -0.818,-1.766 0.048,-2.344 0.254,-0.172 0.29,-0.589 0.557,-0.734 0.615,-0.344 2.276,0.188 2.181,1.688 -0.005,0.104 0.194,0.9 0.251,1.52 0.104,1.209 -0.265,3.677 -2.453,5.256 -1.031,0.749 -1.282,0.005 -0.959,-0.432 1.037,-1.36 0.86,-1.683 1,-2.142 0.485,-1.546 -0.625,-2.812 -0.625,-2.812 z"
     id="path477" />
  <path
     style="fill:#63c99d;fill-opacity:1;fill-rule:nonzero;stroke:none"
     d="m 205.98393,23.622597 c 0.136,3.135 -0.172,3.823 -0.5,4.687 -2.026,5.412 0.672,6.308 3.478,5.652 3.308,-0.751 4.506,-0.964 3.631,-7.194 -0.249,-1.74 -0.317,-8.51 -0.317,-8.51 0.301,-2.432 -0.699,-4.958 -1.938,-5.724 -1.313,-0.796 -0.854,-0.386 -2.193,-0.906 -1.287,-0.5 -3.443,-0.152 -4.083,0.906 -0.609,1.016 0.172,2.485 1.031,4.756 0.672,1.792 0.891,6.333 0.891,6.333"
     id="path478" />
  <path
     style="fill:none;stroke:#231f20;stroke-width:0.565977;stroke-linecap:butt;stroke-linejoin:miter;stroke-miterlimit:4;stroke-dasharray:none;stroke-opacity:1"
     d="m 205.98393,23.622597 c 0.136,3.135 -0.172,3.823 -0.5,4.687 -2.026,5.412 0.672,6.308 3.478,5.652 3.308,-0.751 4.506,-0.964 3.631,-7.194 -0.249,-1.74 -0.317,-8.51 -0.317,-8.51 0.301,-2.432 -0.699,-4.958 -1.938,-5.724 -1.313,-0.796 -0.854,-0.386 -2.193,-0.906 -1.287,-0.5 -3.443,-0.152 -4.083,0.906 -0.609,1.016 0.172,2.485 1.031,4.756 0.672,1.792 0.891,6.333 0.891,6.333 z"
     id="path479" />
  <path
     style="fill:#ffffff;fill-opacity:1;fill-rule:nonzero;stroke:none"
     d="m 210.82793,5.6638973 c 0.021,-0.2453 1.156,-0.448 1.098,-0.9693 -0.052,-0.52 -0.833,-0.64 -1.858,-2.3373 l -0.016,-0.0214 c -0.714,-1.2653 -1.839,-2.08400004 -3.094,-2.05200004 -2.078,0.0467 -3.709,2.37470004 -3.646,5.18800004 0.062,2.8337 1.802,5.0776997 3.874,5.0356997 1.986,-0.041 3.568,-2.1819997 3.642,-4.8436997"
     id="path480" />
  <path
     style="fill:none;stroke:#231f20;stroke-width:0.565977;stroke-linecap:butt;stroke-linejoin:miter;stroke-miterlimit:4;stroke-dasharray:none;stroke-opacity:1"
     d="m 210.82793,5.6638973 c 0.021,-0.2453 1.156,-0.448 1.098,-0.9693 -0.052,-0.52 -0.833,-0.64 -1.858,-2.3373 l -0.016,-0.0214 c -0.714,-1.2653 -1.839,-2.08400004 -3.094,-2.05200004 -2.078,0.0467 -3.709,2.37470004 -3.646,5.18800004 0.062,2.8337 1.802,5.0776997 3.874,5.0356997 1.986,-0.041 3.568,-2.1819997 3.642,-4.8436997 z"
     id="path481" />
  <path
     style="fill:#231f20;fill-opacity:1;fill-rule:nonzero;stroke:none"
     d="m 209.12993,49.007597 c -2.256,-0.24 -2.724,0.02 -2.886,0.968 -0.11,0.631 -0.422,1.172 -0.51,1.554 -0.286,1.26 -0.234,3.514 1.562,9.848 0.406,1.428 0.964,3.453 1.125,4.297 0.261,1.328 2.303,0 2.204,-0.527 -0.308,-1.686 -0.376,-2.864 -0.407,-3.489 -0.016,-0.427 -0.156,-1.177 -0.01,-2.839 0.213,-2.514 0.718,-3.989 0.65,-6.109 -0.025,-0.984 0.574,-1.735 0.048,-2.683 -0.51,-0.957 -1.776,-1.02 -1.776,-1.02"
     id="path482" />
  <path
     style="fill:none;stroke:#231f20;stroke-width:0.565977;stroke-linecap:butt;stroke-linejoin:miter;stroke-miterlimit:4;stroke-dasharray:none;stroke-opacity:1"
     d="m 209.12993,49.007597 c -2.256,-0.24 -2.724,0.02 -2.886,0.968 -0.11,0.631 -0.422,1.172 -0.51,1.554 -0.286,1.26 -0.234,3.514 1.562,9.848 0.406,1.428 0.964,3.453 1.125,4.297 0.261,1.328 2.303,0 2.204,-0.527 -0.308,-1.686 -0.376,-2.864 -0.407,-3.489 -0.016,-0.427 -0.156,-1.177 -0.01,-2.839 0.213,-2.514 0.718,-3.989 0.65,-6.109 -0.025,-0.984 0.574,-1.735 0.048,-2.683 -0.51,-0.957 -1.776,-1.02 -1.776,-1.02 z"
     id="path483" />
  <path
     style="fill:#231f20;fill-opacity:1;fill-rule:nonzero;stroke:#231f20;stroke-width:0.565977;stroke-linecap:round;stroke-linejoin:round;stroke-miterlimit:4;stroke-dasharray:none;stroke-opacity:1"
     d="m 210.61393,51.023597 c 1.104,-0.901 0.558,-2.985 0.626,-3.318 0.973,-4.922 0.921,-5.296 1.394,-9.083 0.694,-5.489 0.324,-9.349 -2.749,-10.688 -2.084,-0.901 -3.677,-0.52 -4.609,0.412 -1.032,1.031 -1.995,4.057 -0.136,6.271 l 0.245,1.697 c 0.021,1.161 0.036,1.74 0.005,2.308 -0.068,1 -0.068,2.077 -0.084,4.031 -0.02,3.48 1.09,7.156 1.09,7.156 0.005,0.308 0.129,0.562 0.306,0.766"
     id="path484" />
  <path
     style="fill:#63c99d;fill-opacity:1;fill-rule:nonzero;stroke:none"
     d="m 212.52993,31.038597 c -0.41,-1.38 -1.172,-2.405 -2.426,-3.005 -2.047,-0.979 -3.651,-0.662 -4.626,0.234 -1.068,0.99 -2.14,3.98 -0.369,6.262 l 7.744,1.056 c 0.048,-0.619 0.053,-1.192 0.048,-1.744 0.031,-0.131 0.072,-0.26 0.119,-0.366 0.386,-0.785 0.057,-1.374 -0.49,-2.437"
     id="path485" />
  <path
     style="fill:none;stroke:#231f20;stroke-width:0.565977;stroke-linecap:butt;stroke-linejoin:miter;stroke-miterlimit:4;stroke-dasharray:none;stroke-opacity:1"
     d="m 212.52993,31.038597 c -0.41,-1.38 -1.172,-2.405 -2.426,-3.005 -2.047,-0.979 -3.651,-0.662 -4.626,0.234 -1.068,0.99 -2.14,3.98 -0.369,6.262 l 7.744,1.056 c 0.048,-0.619 0.053,-1.192 0.048,-1.744 0.031,-0.131 0.072,-0.26 0.119,-0.366 0.386,-0.785 0.057,-1.374 -0.49,-2.437 z"
     id="path486" />
  <path
     style="fill:#231f20;fill-opacity:1;fill-rule:nonzero;stroke:none"
     d="m 208.62493,34.674597 c -0.423,-0.484 -0.433,-2.432 -1.057,-3.917 -0.423,-1 -0.36,-3.744 -0.855,-4.708 -0.448,-0.886 -0.573,-1.334 0.349,-2.022 0.547,-0.41 1.859,-0.842 2.187,-0.446 0.756,0.916 1.027,1.822 1.109,2.885 0.09,1.213 0.052,4.525 -0.009,5.135 -0.163,1.516 0.228,2.141 0.228,2.541 -0.015,0.767 -0.312,0.948 -0.801,1.053 -0.943,0.192 -1.151,-0.521 -1.151,-0.521"
     id="path487" />
  <path
     style="fill:none;stroke:#231f20;stroke-width:0.565977;stroke-linecap:butt;stroke-linejoin:miter;stroke-miterlimit:4;stroke-dasharray:none;stroke-opacity:1"
     d="m 208.62493,34.674597 c -0.423,-0.484 -0.433,-2.432 -1.057,-3.917 -0.423,-1 -0.36,-3.744 -0.855,-4.708 -0.448,-0.886 -0.573,-1.334 0.349,-2.022 0.547,-0.41 1.859,-0.842 2.187,-0.446 0.756,0.916 1.027,1.822 1.109,2.885 0.09,1.213 0.052,4.525 -0.009,5.135 -0.163,1.516 0.228,2.141 0.228,2.541 -0.015,0.767 -0.312,0.948 -0.801,1.053 -0.943,0.192 -1.151,-0.521 -1.151,-0.521 z"
     id="path488" />
  <path
     style="fill:#231f20;fill-opacity:1;fill-rule:nonzero;stroke:none"
     d="m 207.29593,25.710597 c -1.296,0.047 -1,-1.968 -1,-2.505 0,-0.547 -0.187,-2.088 -0.484,-3.276 -0.296,-1.192 -0.162,-2.796 -0.724,-5.058 -0.302,-1.181 0.161,-2.525 1.901,-2.88 1.724,-0.353 2.568,0.484 2.708,1.975 0.147,1.489 -0.353,2.948 -0.317,4.457 0.036,1.511 0.218,3.048 0.417,4.246 0.223,1.364 -0.168,2.125 -0.573,2.374 -1.011,0.647 -1.928,0.667 -1.928,0.667"
     id="path489" />
  <path
     style="fill:none;stroke:#231f20;stroke-width:0.565977;stroke-linecap:butt;stroke-linejoin:miter;stroke-miterlimit:4;stroke-dasharray:none;stroke-opacity:1"
     d="m 207.29593,25.710597 c -1.296,0.047 -1,-1.968 -1,-2.505 0,-0.547 -0.187,-2.088 -0.484,-3.276 -0.296,-1.192 -0.162,-2.796 -0.724,-5.058 -0.302,-1.181 0.161,-2.525 1.901,-2.88 1.724,-0.353 2.568,0.484 2.708,1.975 0.147,1.489 -0.353,2.948 -0.317,4.457 0.036,1.511 0.218,3.048 0.417,4.246 0.223,1.364 -0.168,2.125 -0.573,2.374 -1.011,0.647 -1.928,0.667 -1.928,0.667 z"
     id="path490" />
  <path
     style="fill:#63c99d;fill-opacity:1;fill-rule:nonzero;stroke:none"
     d="m 142.24393,42.054597 c 0.245,3.12 -0.042,3.823 -0.334,4.697 -1.837,5.48 0.891,6.276 3.672,5.532 3.276,-0.874 4.47,-1.125 3.376,-7.322 -0.308,-1.724 -0.614,-8.49 -0.614,-8.49 0.218,-2.438 -0.871,-4.933 -2.136,-5.652 -1.334,-0.754 -0.864,-0.358 -2.224,-0.833 -1.302,-0.453 -3.443,-0.031 -4.047,1.052 -0.579,1.037 0.26,2.48 1.193,4.713 0.739,1.767 1.114,6.303 1.114,6.303"
     id="path491" />
  <path
     style="fill:none;stroke:#231f20;stroke-width:0.565977;stroke-linecap:butt;stroke-linejoin:miter;stroke-miterlimit:4;stroke-dasharray:none;stroke-opacity:1"
     d="m 142.24393,42.054597 c 0.245,3.12 -0.042,3.823 -0.334,4.697 -1.837,5.48 0.891,6.276 3.672,5.532 3.276,-0.874 4.47,-1.125 3.376,-7.322 -0.308,-1.724 -0.614,-8.49 -0.614,-8.49 0.218,-2.438 -0.871,-4.933 -2.136,-5.652 -1.334,-0.754 -0.864,-0.358 -2.224,-0.833 -1.302,-0.453 -3.443,-0.031 -4.047,1.052 -0.579,1.037 0.26,2.48 1.193,4.713 0.739,1.767 1.114,6.303 1.114,6.303 z"
     id="path492" />
  <path
     style="fill:#ffffff;fill-opacity:1;fill-rule:nonzero;stroke:none"
     d="m 146.45793,23.934597 c 0.01,-0.244 1.14,-0.489 1.067,-1.005 -0.072,-0.52 -0.859,-0.615 -1.948,-2.276 l -0.009,-0.015 c -0.756,-1.245 -1.912,-2.021 -3.162,-1.948 -2.078,0.119 -3.625,2.505 -3.464,5.317 0.162,2.828 1.979,5.011 4.047,4.896 1.984,-0.114 3.489,-2.308 3.469,-4.969"
     id="path493" />
  <path
     style="fill:none;stroke:#231f20;stroke-width:0.565977;stroke-linecap:butt;stroke-linejoin:miter;stroke-miterlimit:4;stroke-dasharray:none;stroke-opacity:1"
     d="m 146.45793,23.934597 c 0.01,-0.244 1.14,-0.489 1.067,-1.005 -0.072,-0.52 -0.859,-0.615 -1.948,-2.276 l -0.009,-0.015 c -0.756,-1.245 -1.912,-2.021 -3.162,-1.948 -2.078,0.119 -3.625,2.505 -3.464,5.317 0.162,2.828 1.979,5.011 4.047,4.896 1.984,-0.114 3.489,-2.308 3.469,-4.969 z"
     id="path494" />
  <path
     style="fill:#231f20;fill-opacity:1;fill-rule:nonzero;stroke:none"
     d="m 146.27593,67.308597 c -2.26,-0.156 -2.724,0.12 -2.85,1.068 -0.088,0.636 -0.385,1.188 -0.453,1.568 -0.244,1.276 -0.115,3.527 1.896,9.792 0.464,1.416 1.089,3.416 1.281,4.255 0.308,1.317 2.303,-0.077 2.183,-0.599 -0.371,-1.677 -0.48,-2.854 -0.527,-3.478 -0.036,-0.423 -0.197,-1.167 -0.114,-2.834 0.13,-2.526 0.584,-4.016 0.442,-6.13 -0.061,-0.984 0.511,-1.755 -0.046,-2.683 -0.547,-0.943 -1.812,-0.959 -1.812,-0.959"
     id="path495" />
  <path
     style="fill:none;stroke:#231f20;stroke-width:0.565977;stroke-linecap:butt;stroke-linejoin:miter;stroke-miterlimit:4;stroke-dasharray:none;stroke-opacity:1"
     d="m 146.27593,67.308597 c -2.26,-0.156 -2.724,0.12 -2.85,1.068 -0.088,0.636 -0.385,1.188 -0.453,1.568 -0.244,1.276 -0.115,3.527 1.896,9.792 0.464,1.416 1.089,3.416 1.281,4.255 0.308,1.317 2.303,-0.077 2.183,-0.599 -0.371,-1.677 -0.48,-2.854 -0.527,-3.478 -0.036,-0.423 -0.197,-1.167 -0.114,-2.834 0.13,-2.526 0.584,-4.016 0.442,-6.13 -0.061,-0.984 0.511,-1.755 -0.046,-2.683 -0.547,-0.943 -1.812,-0.959 -1.812,-0.959 z"
     id="path496" />
  <path
     style="fill:#231f20;fill-opacity:1;fill-rule:nonzero;stroke:#231f20;stroke-width:0.565977;stroke-linecap:round;stroke-linejoin:round;stroke-miterlimit:4;stroke-dasharray:none;stroke-opacity:1"
     d="m 147.82793,69.272597 c 1.073,-0.937 0.453,-3 0.51,-3.338 0.802,-4.948 0.735,-5.323 1.078,-9.125 0.494,-5.51 -0.006,-9.359 -3.12,-10.583 -2.119,-0.828 -3.698,-0.391 -4.599,0.568 -0.989,1.068 -1.848,4.129 0.089,6.276 l 0.302,1.687 c 0.062,1.161 0.098,1.734 0.089,2.308 -0.037,1 0,2.077 0.057,4.03 0.104,3.475 1.339,7.109 1.339,7.109 0.015,0.314 0.145,0.558 0.333,0.756"
     id="path497" />
  <path
     style="fill:#63c99d;fill-opacity:1;fill-rule:nonzero;stroke:none"
     d="m 149.04593,49.231597 c -0.458,-1.36 -1.254,-2.36 -2.526,-2.917 -2.083,-0.905 -3.676,-0.531 -4.614,0.396 -1.037,1.027 -2.005,4.052 -0.152,6.271 l 7.776,0.781 c 0.022,-0.615 0.011,-1.192 -0.014,-1.749 0.03,-0.131 0.061,-0.256 0.109,-0.36 0.353,-0.796 0.009,-1.375 -0.579,-2.422"
     id="path498" />
  <path
     style="fill:none;stroke:#231f20;stroke-width:0.565977;stroke-linecap:butt;stroke-linejoin:miter;stroke-miterlimit:4;stroke-dasharray:none;stroke-opacity:1"
     d="m 149.04593,49.231597 c -0.458,-1.36 -1.254,-2.36 -2.526,-2.917 -2.083,-0.905 -3.676,-0.531 -4.614,0.396 -1.037,1.027 -2.005,4.052 -0.152,6.271 l 7.776,0.781 c 0.022,-0.615 0.011,-1.192 -0.014,-1.749 0.03,-0.131 0.061,-0.256 0.109,-0.36 0.353,-0.796 0.009,-1.375 -0.579,-2.422 z"
     id="path499" />
  <path
     style="fill:#ffffff;fill-opacity:1;fill-rule:nonzero;stroke:none"
     d="m 0.33292805,35.903597 c 0,0.687 0.552,1.244 1.23500005,1.244 H 339.68193 c 0.69,0 1.24,-0.557 1.24,-1.244 0,-0.682 -0.55,-1.24 -1.24,-1.24 H 1.5679281 c -0.68300005,0 -1.23500005,0.558 -1.23500005,1.24"
     id="path500" />
  <path
     style="fill:none;stroke:#231f20;stroke-width:0.665856;stroke-linecap:butt;stroke-linejoin:miter;stroke-miterlimit:4;stroke-dasharray:none;stroke-opacity:1"
     d="m 0.33292805,35.903597 c 0,0.687 0.552,1.244 1.23500005,1.244 H 339.68193 c 0.69,0 1.24,-0.557 1.24,-1.244 0,-0.682 -0.55,-1.24 -1.24,-1.24 H 1.5679281 c -0.68300005,0 -1.23500005,0.558 -1.23500005,1.24 z"
     id="path501" />
  <path
     style="fill:#231f20;fill-opacity:1;fill-rule:nonzero;stroke:none"
     d="m 162.99993,36.887597 c -0.59,0.266 -2.459,-0.292 -4.058,-0.13 -1.078,0.109 -3.682,-0.75 -4.75,-0.558 -0.979,0.178 -1.443,0.162 -1.834,-0.916 -0.233,-0.641 -0.265,-2.032 0.21,-2.224 1.098,-0.458 2.041,-0.453 3.088,-0.218 1.188,0.265 4.344,1.27 4.906,1.505 1.4,0.599 2.11,0.405 2.495,0.525 0.729,0.235 0.817,0.568 0.776,1.068 -0.093,0.959 -0.833,0.948 -0.833,0.948"
     id="path502" />
  <path
     style="fill:none;stroke:#231f20;stroke-width:0.565977;stroke-linecap:butt;stroke-linejoin:miter;stroke-miterlimit:4;stroke-dasharray:none;stroke-opacity:1"
     d="m 162.99993,36.887597 c -0.59,0.266 -2.459,-0.292 -4.058,-0.13 -1.078,0.109 -3.682,-0.75 -4.75,-0.558 -0.979,0.178 -1.443,0.162 -1.834,-0.916 -0.233,-0.641 -0.265,-2.032 0.21,-2.224 1.098,-0.458 2.041,-0.453 3.088,-0.218 1.188,0.265 4.344,1.27 4.906,1.505 1.4,0.599 2.11,0.405 2.495,0.525 0.729,0.235 0.817,0.568 0.776,1.068 -0.093,0.959 -0.833,0.948 -0.833,0.948 z"
     id="path503" />
  <path
     style="fill:#231f20;fill-opacity:1;fill-rule:nonzero;stroke:none"
     d="m 154.03593,35.543597 c -0.328,1.256 -2.172,0.38 -2.687,0.23 -0.521,-0.156 -2.053,-0.432 -3.276,-0.49 -1.224,-0.062 -2.724,-0.661 -5.048,-0.781 -1.219,-0.063 -2.369,-0.901 -2.203,-2.661 0.172,-1.751 1.214,-2.318 2.683,-2.022 1.463,0.303 2.713,1.204 4.172,1.604 1.453,0.407 2.979,0.688 4.181,0.844 1.371,0.183 1.98,0.782 2.104,1.24 0.324,1.156 0.074,2.036 0.074,2.036"
     id="path504" />
  <path
     style="fill:none;stroke:#231f20;stroke-width:0.565977;stroke-linecap:butt;stroke-linejoin:miter;stroke-miterlimit:4;stroke-dasharray:none;stroke-opacity:1"
     d="m 154.03593,35.543597 c -0.328,1.256 -2.172,0.38 -2.687,0.23 -0.521,-0.156 -2.053,-0.432 -3.276,-0.49 -1.224,-0.062 -2.724,-0.661 -5.048,-0.781 -1.219,-0.063 -2.369,-0.901 -2.203,-2.661 0.172,-1.751 1.214,-2.318 2.683,-2.022 1.463,0.303 2.713,1.204 4.172,1.604 1.453,0.407 2.979,0.688 4.181,0.844 1.371,0.183 1.98,0.782 2.104,1.24 0.324,1.156 0.074,2.036 0.074,2.036 z"
     id="path505" />
  <path
     style="fill:#231f20;fill-opacity:1;fill-rule:nonzero;stroke:none"
     d="m 144.21293,85.642597 c -0.625,-0.88 0.5,-1.443 1.588,-2 0.276,-0.14 0.521,-0.296 0.803,-0.411 1.13,-0.469 2.156,-0.235 1.588,2.708 -0.02,0.109 0.182,2.287 0.354,2.885 0.604,2.162 2.235,2.208 1.459,2.536 -0.516,0.215 -1.511,0.163 -1.901,-0.333 -0.527,-0.667 -2.183,-3.197 -2.459,-3.567 -0.271,-0.365 -1.432,-1.818 -1.432,-1.818"
     id="path506" />
  <path
     style="fill:none;stroke:#231f20;stroke-width:0.565977;stroke-linecap:butt;stroke-linejoin:miter;stroke-miterlimit:4;stroke-dasharray:none;stroke-opacity:1"
     d="m 144.21293,85.642597 c -0.625,-0.88 0.5,-1.443 1.588,-2 0.276,-0.14 0.521,-0.296 0.803,-0.411 1.13,-0.469 2.156,-0.235 1.588,2.708 -0.02,0.109 0.182,2.287 0.354,2.885 0.604,2.162 2.235,2.208 1.459,2.536 -0.516,0.215 -1.511,0.163 -1.901,-0.333 -0.527,-0.667 -2.183,-3.197 -2.459,-3.567 -0.271,-0.365 -1.432,-1.818 -1.432,-1.818 z"
     id="path507" />
  <path
     style="fill:#231f20;fill-opacity:1;fill-rule:nonzero;stroke:none"
     d="m 212.07293,35.705597 c 0,1.177 -0.959,2.136 -2.136,2.136 -1.177,0 -2.131,-0.959 -2.131,-2.136 0,-1.176 0.954,-2.135 2.131,-2.135 1.177,0 2.136,0.959 2.136,2.135"
     id="path508" />
  <path
     style="fill:#231f20;fill-opacity:1;fill-rule:nonzero;stroke:none"
     d="m 164.98893,33.893597 c 1.131,0.349 1.76,1.541 1.417,2.661 -0.344,1.131 -1.537,1.765 -2.662,1.421 -1.124,-0.342 -1.76,-1.536 -1.416,-2.661 0.344,-1.124 1.53,-1.765 2.661,-1.421"
     id="path511" />
</svg>
