<?xml version="1.0" encoding="UTF-8" standalone="no"?>
<!-- Created with Inkscape (http://www.inkscape.org/) -->

<svg
   version="1.1"
   id="svg1"
   width="353.94714"
   height="146.3833"
   viewBox="0 0 353.94713 146.3833"
   sodipodi:docname="cell.svg"
   xmlns:inkscape="http://www.inkscape.org/namespaces/inkscape"
   xmlns:sodipodi="http://sodipodi.sourceforge.net/DTD/sodipodi-0.dtd"
   xmlns="http://www.w3.org/2000/svg"
   xmlns:svg="http://www.w3.org/2000/svg">
  <sodipodi:namedview
     id="namedview1"
     pagecolor="#ffffff"
     bordercolor="#000000"
     borderopacity="0.25"
     inkscape:showpageshadow="2"
     inkscape:pageopacity="0.0"
     inkscape:pagecheckerboard="0"
     inkscape:deskcolor="#d1d1d1">
    <inkscape:page
       x="0"
       y="0"
       inkscape:label="1"
       id="page1"
       width="353.94714"
       height="146.3833"
       margin="0"
       bleed="0" />
  </sodipodi:namedview>
  <defs
     id="defs1" />
  <path
     style="fill:#ffffff;fill-opacity:1;fill-rule:nonzero;stroke:none"
     d="m 159.57813,18.874 h 18.875 V 0 h -18.875 z"
     id="path1" />
  <path
     style="fill:#ffffff;fill-opacity:1;fill-rule:nonzero;stroke:none"
     d="m 337.02013,18.874 h 16.927 V 0 h -16.927 z"
     id="path3" />
  <path
     style="fill:#231f20;fill-opacity:1;fill-rule:nonzero;stroke:none"
     d="m 178.09813,140.51 c -1.083,-0.808 -0.818,-1.76 0.046,-2.339 0.256,-0.172 0.298,-0.588 0.558,-0.74 0.62,-0.338 2.281,0.194 2.188,1.688 -0.006,0.11 0.186,0.907 0.244,1.526 0.105,1.204 -0.266,3.672 -2.447,5.256 -1.037,0.744 -1.287,0 -0.964,-0.432 1.036,-1.36 0.859,-1.683 1.005,-2.142 0.484,-1.552 -0.63,-2.817 -0.63,-2.817"
     id="path4" />
  <path
     style="fill:none;stroke:#231f20;stroke-width:0.332927;stroke-linecap:butt;stroke-linejoin:miter;stroke-miterlimit:4;stroke-dasharray:none;stroke-opacity:1"
     d="m 178.09813,140.51 c -1.083,-0.808 -0.818,-1.76 0.046,-2.339 0.256,-0.172 0.298,-0.588 0.558,-0.74 0.62,-0.338 2.281,0.194 2.188,1.688 -0.006,0.11 0.186,0.907 0.244,1.526 0.105,1.204 -0.266,3.672 -2.447,5.256 -1.037,0.744 -1.287,0 -0.964,-0.432 1.036,-1.36 0.859,-1.683 1.005,-2.142 0.484,-1.552 -0.63,-2.817 -0.63,-2.817 z"
     id="path5" />
  <path
     style="fill:#63c99d;fill-opacity:1;fill-rule:nonzero;stroke:none"
     d="m 176.06213,95.953 c 0.14,3.131 -0.172,3.817 -0.5,4.682 -2.027,5.416 0.672,6.307 3.478,5.656 3.308,-0.756 4.511,-0.964 3.636,-7.198 -0.256,-1.733 -0.318,-8.505 -0.318,-8.505 0.297,-2.432 -0.698,-4.958 -1.943,-5.723 -1.307,-0.803 -0.848,-0.391 -2.192,-0.912 -1.287,-0.5 -3.443,-0.151 -4.084,0.912 -0.609,1.015 0.172,2.484 1.032,4.749 0.672,1.792 0.891,6.339 0.891,6.339"
     id="path6" />
  <path
     style="fill:none;stroke:#231f20;stroke-width:0.565977;stroke-linecap:butt;stroke-linejoin:miter;stroke-miterlimit:4;stroke-dasharray:none;stroke-opacity:1"
     d="m 176.06213,95.953 c 0.14,3.131 -0.172,3.817 -0.5,4.682 -2.027,5.416 0.672,6.307 3.478,5.656 3.308,-0.756 4.511,-0.964 3.636,-7.198 -0.256,-1.733 -0.318,-8.505 -0.318,-8.505 0.297,-2.432 -0.698,-4.958 -1.943,-5.723 -1.307,-0.803 -0.848,-0.391 -2.192,-0.912 -1.287,-0.5 -3.443,-0.151 -4.084,0.912 -0.609,1.015 0.172,2.484 1.032,4.749 0.672,1.792 0.891,6.339 0.891,6.339 z"
     id="path7" />
  <path
     style="fill:#ffffff;fill-opacity:1;fill-rule:nonzero;stroke:none"
     d="m 180.91113,77.994 c 0.02,-0.244 1.156,-0.448 1.099,-0.968 -0.052,-0.526 -0.839,-0.641 -1.866,-2.344 l -0.01,-0.016 c -0.714,-1.27 -1.843,-2.082 -3.094,-2.057 -2.077,0.047 -3.707,2.375 -3.65,5.193 0.063,2.834 1.801,5.078 3.88,5.036 1.984,-0.046 3.568,-2.182 3.641,-4.844"
     id="path8" />
  <path
     style="fill:none;stroke:#231f20;stroke-width:0.565977;stroke-linecap:butt;stroke-linejoin:miter;stroke-miterlimit:4;stroke-dasharray:none;stroke-opacity:1"
     d="m 180.91113,77.994 c 0.02,-0.244 1.156,-0.448 1.099,-0.968 -0.052,-0.526 -0.839,-0.641 -1.866,-2.344 l -0.01,-0.016 c -0.714,-1.27 -1.843,-2.082 -3.094,-2.057 -2.077,0.047 -3.707,2.375 -3.65,5.193 0.063,2.834 1.801,5.078 3.88,5.036 1.984,-0.046 3.568,-2.182 3.641,-4.844 z"
     id="path9" />
  <path
     style="fill:#231f20;fill-opacity:1;fill-rule:nonzero;stroke:none"
     d="m 179.20713,121.338 c -2.249,-0.24 -2.724,0.021 -2.88,0.964 -0.115,0.635 -0.427,1.172 -0.511,1.552 -0.286,1.265 -0.238,3.52 1.558,9.848 0.412,1.433 0.969,3.453 1.13,4.303 0.26,1.328 2.302,0 2.203,-0.527 -0.312,-1.687 -0.38,-2.869 -0.407,-3.489 -0.02,-0.432 -0.156,-1.178 -0.009,-2.844 0.213,-2.515 0.719,-3.99 0.651,-6.104 -0.027,-0.984 0.573,-1.739 0.046,-2.687 -0.516,-0.959 -1.781,-1.016 -1.781,-1.016"
     id="path10" />
  <path
     style="fill:none;stroke:#231f20;stroke-width:0.565977;stroke-linecap:butt;stroke-linejoin:miter;stroke-miterlimit:4;stroke-dasharray:none;stroke-opacity:1"
     d="m 179.20713,121.338 c -2.249,-0.24 -2.724,0.021 -2.88,0.964 -0.115,0.635 -0.427,1.172 -0.511,1.552 -0.286,1.265 -0.238,3.52 1.558,9.848 0.412,1.433 0.969,3.453 1.13,4.303 0.26,1.328 2.302,0 2.203,-0.527 -0.312,-1.687 -0.38,-2.869 -0.407,-3.489 -0.02,-0.432 -0.156,-1.178 -0.009,-2.844 0.213,-2.515 0.719,-3.99 0.651,-6.104 -0.027,-0.984 0.573,-1.739 0.046,-2.687 -0.516,-0.959 -1.781,-1.016 -1.781,-1.016 z"
     id="path11" />
  <path
     style="fill:#231f20;fill-opacity:1;fill-rule:nonzero;stroke:#231f20;stroke-width:0.565977;stroke-linecap:round;stroke-linejoin:round;stroke-miterlimit:4;stroke-dasharray:none;stroke-opacity:1"
     d="m 180.69613,123.349 c 1.1,-0.896 0.558,-2.984 0.626,-3.318 0.974,-4.917 0.917,-5.297 1.396,-9.084 0.688,-5.484 0.322,-9.349 -2.751,-10.682 -2.088,-0.9 -3.681,-0.52 -4.613,0.406 -1.032,1.036 -1.996,4.063 -0.136,6.276 l 0.245,1.694 c 0.02,1.166 0.036,1.738 0.004,2.306 -0.067,1.006 -0.067,2.079 -0.083,4.036 -0.016,3.475 1.094,7.152 1.094,7.152 0.005,0.312 0.13,0.563 0.308,0.766"
     id="path12" />
  <path
     style="fill:#63c99d;fill-opacity:1;fill-rule:nonzero;stroke:none"
     d="m 182.61413,103.374 c -0.407,-1.38 -1.172,-2.411 -2.427,-3.015 -2.053,-0.974 -3.657,-0.657 -4.625,0.234 -1.074,0.99 -2.147,3.985 -0.371,6.261 l 7.745,1.057 c 0.047,-0.62 0.052,-1.193 0.047,-1.75 0.037,-0.13 0.073,-0.255 0.12,-0.354 0.385,-0.786 0.063,-1.376 -0.489,-2.433"
     id="path13" />
  <path
     style="fill:none;stroke:#231f20;stroke-width:0.565977;stroke-linecap:butt;stroke-linejoin:miter;stroke-miterlimit:4;stroke-dasharray:none;stroke-opacity:1"
     d="m 182.61413,103.374 c -0.407,-1.38 -1.172,-2.411 -2.427,-3.015 -2.053,-0.974 -3.657,-0.657 -4.625,0.234 -1.074,0.99 -2.147,3.985 -0.371,6.261 l 7.745,1.057 c 0.047,-0.62 0.052,-1.193 0.047,-1.75 0.037,-0.13 0.073,-0.255 0.12,-0.354 0.385,-0.786 0.063,-1.376 -0.489,-2.433 z"
     id="path14" />
  <path
     style="fill:#231f20;fill-opacity:1;fill-rule:nonzero;stroke:none"
     d="m 178.70213,106.999 c -0.416,-0.478 -0.432,-2.432 -1.052,-3.91 -0.422,-1.006 -0.359,-3.745 -0.859,-4.715 -0.448,-0.885 -0.573,-1.328 0.348,-2.02 0.548,-0.406 1.865,-0.838 2.188,-0.448 0.76,0.916 1.027,1.828 1.109,2.891 0.094,1.213 0.052,4.525 -0.005,5.134 -0.167,1.511 0.229,2.136 0.224,2.543 -0.011,0.76 -0.307,0.943 -0.797,1.047 -0.943,0.192 -1.156,-0.522 -1.156,-0.522"
     id="path15" />
  <path
     style="fill:none;stroke:#231f20;stroke-width:0.565977;stroke-linecap:butt;stroke-linejoin:miter;stroke-miterlimit:4;stroke-dasharray:none;stroke-opacity:1"
     d="m 178.70213,106.999 c -0.416,-0.478 -0.432,-2.432 -1.052,-3.91 -0.422,-1.006 -0.359,-3.745 -0.859,-4.715 -0.448,-0.885 -0.573,-1.328 0.348,-2.02 0.548,-0.406 1.865,-0.838 2.188,-0.448 0.76,0.916 1.027,1.828 1.109,2.891 0.094,1.213 0.052,4.525 -0.005,5.134 -0.167,1.511 0.229,2.136 0.224,2.543 -0.011,0.76 -0.307,0.943 -0.797,1.047 -0.943,0.192 -1.156,-0.522 -1.156,-0.522 z"
     id="path16" />
  <path
     style="fill:#231f20;fill-opacity:1;fill-rule:nonzero;stroke:none"
     d="m 177.37913,98.041 c -1.303,0.048 -1.005,-1.968 -1.005,-2.505 0,-0.547 -0.187,-2.094 -0.484,-3.276 -0.298,-1.192 -0.162,-2.802 -0.724,-5.058 -0.303,-1.186 0.166,-2.53 1.901,-2.885 1.724,-0.348 2.567,0.485 2.713,1.98 0.14,1.484 -0.36,2.943 -0.317,4.453 0.036,1.51 0.213,3.052 0.411,4.25 0.229,1.365 -0.167,2.125 -0.574,2.374 -1.009,0.642 -1.921,0.667 -1.921,0.667"
     id="path17" />
  <path
     style="fill:none;stroke:#231f20;stroke-width:0.565977;stroke-linecap:butt;stroke-linejoin:miter;stroke-miterlimit:4;stroke-dasharray:none;stroke-opacity:1"
     d="m 177.37913,98.041 c -1.303,0.048 -1.005,-1.968 -1.005,-2.505 0,-0.547 -0.187,-2.094 -0.484,-3.276 -0.298,-1.192 -0.162,-2.802 -0.724,-5.058 -0.303,-1.186 0.166,-2.53 1.901,-2.885 1.724,-0.348 2.567,0.485 2.713,1.98 0.14,1.484 -0.36,2.943 -0.317,4.453 0.036,1.51 0.213,3.052 0.411,4.25 0.229,1.365 -0.167,2.125 -0.574,2.374 -1.009,0.642 -1.921,0.667 -1.921,0.667 z"
     id="path18" />
  <path
     style="fill:#ffffff;fill-opacity:1;fill-rule:nonzero;stroke:none"
     d="m 0.33292788,108.469 c 0,0.686 0.5521,1.244 1.24010002,1.244 H 347.68713 c 0.686,0 1.238,-0.558 1.238,-1.244 0,-0.683 -0.552,-1.235 -1.238,-1.235 H 1.5730279 c -0.68800002,0 -1.24010002,0.552 -1.24010002,1.235"
     id="path19" />
  <path
     style="fill:none;stroke:#231f20;stroke-width:0.665856;stroke-linecap:butt;stroke-linejoin:miter;stroke-miterlimit:4;stroke-dasharray:none;stroke-opacity:1"
     d="m 0.33292788,108.469 c 0,0.686 0.5521,1.244 1.24010002,1.244 H 347.68713 c 0.686,0 1.238,-0.558 1.238,-1.244 0,-0.683 -0.552,-1.235 -1.238,-1.235 H 1.5730279 c -0.68800002,0 -1.24010002,0.552 -1.24010002,1.235 z"
     id="path20" />
  <path
     style="fill:none;stroke:#231f20;stroke-width:0.399514;stroke-linecap:butt;stroke-linejoin:miter;stroke-miterlimit:4;stroke-dasharray:none;stroke-opacity:1"
     d="m 152.71813,121.431 c 16.86,20.438 48.478,7.047 53.77,2.068"
     id="path21" />
  <path
     style="fill:#231f20;fill-opacity:1;fill-rule:nonzero;stroke:none"
     d="m 207.36313,122.671 c -0.265,0.542 -0.531,1.287 -0.588,1.864 l -0.407,-0.932 -0.901,-0.453 c 0.584,-0.02 1.339,-0.239 1.896,-0.479"
     id="path22" />
  <path
     style="fill:#63c99d;fill-opacity:1;fill-rule:nonzero;stroke:none"
     d="m 111.48313,81.844 c -3.036,-0.776 -3.604,-1.276 -4.338,-1.839 -4.594,-3.511 -6.23,-1.188 -6.422,1.688 -0.234,3.38 -0.385,4.593 5.834,5.561 1.734,0.267 8.234,2.168 8.234,2.168 2.239,0.995 4.948,0.776 6.036,-0.193 1.146,-1.021 0.62,-0.697 1.511,-1.833 0.849,-1.084 1.14,-3.251 0.312,-4.167 -0.792,-0.885 -2.427,-0.557 -4.844,-0.401 -1.911,0.13 -6.323,-0.984 -6.323,-0.984"
     id="path23" />
  <path
     style="fill:none;stroke:#231f20;stroke-width:0.565977;stroke-linecap:butt;stroke-linejoin:miter;stroke-miterlimit:4;stroke-dasharray:none;stroke-opacity:1"
     d="m 111.48313,81.844 c -3.036,-0.776 -3.604,-1.276 -4.338,-1.839 -4.594,-3.511 -6.23,-1.188 -6.422,1.688 -0.234,3.38 -0.385,4.593 5.834,5.561 1.734,0.267 8.234,2.168 8.234,2.168 2.239,0.995 4.948,0.776 6.036,-0.193 1.146,-1.021 0.62,-0.697 1.511,-1.833 0.849,-1.084 1.14,-3.251 0.312,-4.167 -0.792,-0.885 -2.427,-0.557 -4.844,-0.401 -1.911,0.13 -6.323,-0.984 -6.323,-0.984 z"
     id="path24" />
  <path
     style="fill:#ffffff;fill-opacity:1;fill-rule:nonzero;stroke:none"
     d="m 131.01513,87.912 c 0.214,-0.126 1.026,0.692 1.422,0.353 0.401,-0.344 0.052,-1.052 0.864,-2.864 l 0.01,-0.021 c 0.642,-1.307 0.672,-2.698 -0.066,-3.714 -1.22,-1.682 -4.063,-1.697 -6.344,-0.052 -2.292,1.662 -3.152,4.375 -1.938,6.052 1.162,1.61 3.823,1.699 6.052,0.246"
     id="path25" />
  <path
     style="fill:none;stroke:#231f20;stroke-width:0.565977;stroke-linecap:butt;stroke-linejoin:miter;stroke-miterlimit:4;stroke-dasharray:none;stroke-opacity:1"
     d="m 131.01513,87.912 c 0.214,-0.126 1.026,0.692 1.422,0.353 0.401,-0.344 0.052,-1.052 0.864,-2.864 l 0.01,-0.021 c 0.642,-1.307 0.672,-2.698 -0.066,-3.714 -1.22,-1.682 -4.063,-1.697 -6.344,-0.052 -2.292,1.662 -3.152,4.375 -1.938,6.052 1.162,1.61 3.823,1.699 6.052,0.246 z"
     id="path26" />
  <path
     style="fill:#231f20;fill-opacity:1;fill-rule:nonzero;stroke:none"
     d="m 115.83313,106.499 c -0.292,-0.573 0.177,-2.468 -0.058,-4.057 -0.161,-1.073 0.574,-3.713 0.334,-4.77 -0.219,-0.97 -0.23,-1.438 0.833,-1.875 0.631,-0.265 2.016,-0.36 2.229,0.104 0.511,1.077 0.547,2.02 0.359,3.073 -0.208,1.198 -1.063,4.395 -1.271,4.973 -0.53,1.427 -0.301,2.131 -0.405,2.522 -0.199,0.733 -0.532,0.838 -1.032,0.817 -0.964,-0.047 -0.989,-0.787 -0.989,-0.787"
     id="path27" />
  <path
     style="fill:none;stroke:#231f20;stroke-width:0.565977;stroke-linecap:butt;stroke-linejoin:miter;stroke-miterlimit:4;stroke-dasharray:none;stroke-opacity:1"
     d="m 115.83313,106.499 c -0.292,-0.573 0.177,-2.468 -0.058,-4.057 -0.161,-1.073 0.574,-3.713 0.334,-4.77 -0.219,-0.97 -0.23,-1.438 0.833,-1.875 0.631,-0.265 2.016,-0.36 2.229,0.104 0.511,1.077 0.547,2.02 0.359,3.073 -0.208,1.198 -1.063,4.395 -1.271,4.973 -0.53,1.427 -0.301,2.131 -0.405,2.522 -0.199,0.733 -0.532,0.838 -1.032,0.817 -0.964,-0.047 -0.989,-0.787 -0.989,-0.787 z"
     id="path28" />
  <path
     style="fill:#231f20;fill-opacity:1;fill-rule:nonzero;stroke:none"
     d="m 116.75413,97.484 c -1.265,-0.271 -0.479,-2.151 -0.348,-2.672 0.129,-0.531 0.333,-2.072 0.333,-3.296 0.004,-1.224 0.536,-2.751 0.547,-5.079 0,-1.224 0.781,-2.405 2.552,-2.323 1.76,0.084 2.369,1.099 2.14,2.579 -0.229,1.479 -1.072,2.771 -1.405,4.244 -0.339,1.469 -0.543,3.005 -0.647,4.219 -0.12,1.376 -0.681,2.016 -1.14,2.156 -1.136,0.381 -2.032,0.172 -2.032,0.172"
     id="path29" />
  <path
     style="fill:none;stroke:#231f20;stroke-width:0.565977;stroke-linecap:butt;stroke-linejoin:miter;stroke-miterlimit:4;stroke-dasharray:none;stroke-opacity:1"
     d="m 116.75413,97.484 c -1.265,-0.271 -0.479,-2.151 -0.348,-2.672 0.129,-0.531 0.333,-2.072 0.333,-3.296 0.004,-1.224 0.536,-2.751 0.547,-5.079 0,-1.224 0.781,-2.405 2.552,-2.323 1.76,0.084 2.369,1.099 2.14,2.579 -0.229,1.479 -1.072,2.771 -1.405,4.244 -0.339,1.469 -0.543,3.005 -0.647,4.219 -0.12,1.376 -0.681,2.016 -1.14,2.156 -1.136,0.381 -2.032,0.172 -2.032,0.172 z"
     id="path30" />
  <path
     style="fill:#231f20;fill-opacity:1;fill-rule:nonzero;stroke:none"
     d="m 86.280128,77.478 c 0.881,-2.082 0.771,-2.609 -0.089,-3.036 -0.571,-0.292 -1,-0.749 -1.337,-0.937 -1.125,-0.645 -3.297,-1.251 -9.876,-1.369 -1.4891,-0.022 -3.588,-0.079 -4.4427,-0.172 -1.3439,-0.136 -0.6667,2.202 -0.1344,2.26 1.7025,0.198 2.8531,0.474 3.4571,0.625 0.412,0.109 1.172,0.192 2.72,0.817 2.343,0.932 3.609,1.844 5.656,2.396 0.948,0.26 1.495,1.052 2.552,0.828 1.068,-0.213 1.494,-1.412 1.494,-1.412"
     id="path31" />
  <path
     style="fill:none;stroke:#231f20;stroke-width:0.565977;stroke-linecap:butt;stroke-linejoin:miter;stroke-miterlimit:4;stroke-dasharray:none;stroke-opacity:1"
     d="m 86.280128,77.478 c 0.881,-2.082 0.771,-2.609 -0.089,-3.036 -0.571,-0.292 -1,-0.749 -1.337,-0.937 -1.125,-0.645 -3.297,-1.251 -9.876,-1.369 -1.4891,-0.022 -3.588,-0.079 -4.4427,-0.172 -1.3439,-0.136 -0.6667,2.202 -0.1344,2.26 1.7025,0.198 2.8531,0.474 3.4571,0.625 0.412,0.109 1.172,0.192 2.72,0.817 2.343,0.932 3.609,1.844 5.656,2.396 0.948,0.26 1.495,1.052 2.552,0.828 1.068,-0.213 1.494,-1.412 1.494,-1.412 z"
     id="path32" />
  <path
     style="fill:#231f20;fill-opacity:1;fill-rule:nonzero;stroke:#231f20;stroke-width:0.565977;stroke-linecap:round;stroke-linejoin:round;stroke-miterlimit:4;stroke-dasharray:none;stroke-opacity:1"
     d="m 83.921128,78.322 c 0.542,1.308 2.693,1.396 2.99,1.563 4.427,2.355 4.802,2.412 8.291,3.969 5.047002,2.255 8.849002,3.026 11.021002,0.474 1.468,-1.735 1.568,-3.37 0.948,-4.536 -0.687,-1.282 -3.308,-3.084 -5.963,-1.943 l -1.693002,-0.265 c -1.119,-0.314 -1.672,-0.464 -2.214,-0.663 -0.938,-0.353 -1.963,-0.671 -3.833,-1.249 -3.323,-1.031 -7.162,-1.036 -7.162,-1.036 -0.296,-0.084 -0.572,-0.043 -0.817,0.072"
     id="path33" />
  <path
     style="fill:#63c99d;fill-opacity:1;fill-rule:nonzero;stroke:none"
     d="m 107.21313,80.068 c -0.635,-1.308 -3.188,-3.208 -5.886,-2.172 L 98.073128,85 c 0.609,0.234 1.186,0.422 1.754,0.578 0.063,0.047 0.131,0.094 0.183002,0.14 0.593,0.552 1.219,0.47 2.239,0.282 1.552,0.062 2.849,-0.35 3.843,-1.438 1.533,-1.677 1.694,-3.308 1.121,-4.494"
     id="path34" />
  <path
     style="fill:none;stroke:#231f20;stroke-width:0.565977;stroke-linecap:butt;stroke-linejoin:miter;stroke-miterlimit:4;stroke-dasharray:none;stroke-opacity:1"
     d="m 107.21313,80.068 c -0.635,-1.308 -3.188,-3.208 -5.886,-2.172 L 98.073128,85 c 0.609,0.234 1.186,0.422 1.754,0.578 0.063,0.047 0.131,0.094 0.183002,0.14 0.593,0.552 1.219,0.47 2.239,0.282 1.552,0.062 2.849,-0.35 3.843,-1.438 1.533,-1.677 1.694,-3.308 1.121,-4.494 z"
     id="path35" />
  <path
     style="fill:#231f20;fill-opacity:1;fill-rule:nonzero;stroke:none"
     d="m 68.248928,71.27 c 1.089,-0.801 1.9281,-0.265 2.2292,0.724 0.0896,0.298 0.4801,0.454 0.5426,0.751 0.1454,0.687 -0.8437,2.124 -2.2505,1.604 -0.0989,-0.041 -0.9161,-0.084 -1.5255,-0.213 -1.188,-0.251 -3.4437,-1.319 -4.324,-3.866 -0.4161,-1.208 0.3762,-1.234 0.6932,-0.796 1.0058,1.386 1.3642,1.312 1.7606,1.578 1.3437,0.917 2.8744,0.218 2.8744,0.218"
     id="path36" />
  <path
     style="fill:none;stroke:#231f20;stroke-width:0.332927;stroke-linecap:butt;stroke-linejoin:miter;stroke-miterlimit:4;stroke-dasharray:none;stroke-opacity:1"
     d="m 68.248928,71.27 c 1.089,-0.801 1.9281,-0.265 2.2292,0.724 0.0896,0.298 0.4801,0.454 0.5426,0.751 0.1454,0.687 -0.8437,2.124 -2.2505,1.604 -0.0989,-0.041 -0.9161,-0.084 -1.5255,-0.213 -1.188,-0.251 -3.4437,-1.319 -4.324,-3.866 -0.4161,-1.208 0.3762,-1.234 0.6932,-0.796 1.0058,1.386 1.3642,1.312 1.7606,1.578 1.3437,0.917 2.8744,0.218 2.8744,0.218 z"
     id="path37" />
  <path
     style="fill:#231f20;fill-opacity:1;fill-rule:nonzero;stroke:none"
     d="m 119.52113,108.035 c 0,1.172 -0.959,2.131 -2.136,2.131 -1.178,0 -2.131,-0.959 -2.131,-2.131 0,-1.181 0.953,-2.134 2.131,-2.134 1.177,0 2.136,0.953 2.136,2.134"
     id="path38" />
  <path
     style="fill:#63c99d;fill-opacity:1;fill-rule:nonzero;stroke:none"
     d="m 238.98813,84.781 c 2.948,-1.063 3.699,-0.969 4.62,-0.916 5.776,0.323 5.823,-2.516 4.364,-5.005 -1.702,-2.934 -2.265,-4.016 -7.948,-1.324 -1.582,0.756 -8.03,2.838 -8.03,2.838 -2.412,0.434 -4.527,2.142 -4.886,3.552 -0.374,1.491 -0.12,0.928 -0.218,2.366 -0.094,1.374 0.885,3.328 2.082,3.625 1.158,0.281 2.324,-0.907 4.235,-2.396 1.505,-1.177 5.781,-2.74 5.781,-2.74"
     id="path39" />
  <path
     style="fill:none;stroke:#231f20;stroke-width:0.565977;stroke-linecap:butt;stroke-linejoin:miter;stroke-miterlimit:4;stroke-dasharray:none;stroke-opacity:1"
     d="m 238.98813,84.781 c 2.948,-1.063 3.699,-0.969 4.62,-0.916 5.776,0.323 5.823,-2.516 4.364,-5.005 -1.702,-2.934 -2.265,-4.016 -7.948,-1.324 -1.582,0.756 -8.03,2.838 -8.03,2.838 -2.412,0.434 -4.527,2.142 -4.886,3.552 -0.374,1.491 -0.12,0.928 -0.218,2.366 -0.094,1.374 0.885,3.328 2.082,3.625 1.158,0.281 2.324,-0.907 4.235,-2.396 1.505,-1.177 5.781,-2.74 5.781,-2.74 z"
     id="path40" />
  <path
     style="fill:#ffffff;fill-opacity:1;fill-rule:nonzero;stroke:none"
     d="m 222.27013,82.958 c -0.224,-0.104 -0.026,-1.24 -0.531,-1.365 -0.511,-0.135 -0.891,0.563 -2.839,0.943 l -0.026,0.005 c -1.432,0.229 -2.583,1.011 -2.99,2.199 -0.672,1.962 0.954,4.296 3.62,5.208 2.683,0.917 5.391,0.057 6.063,-1.907 0.64,-1.88 -0.824,-4.104 -3.297,-5.083"
     id="path41" />
  <path
     style="fill:none;stroke:#231f20;stroke-width:0.565977;stroke-linecap:butt;stroke-linejoin:miter;stroke-miterlimit:4;stroke-dasharray:none;stroke-opacity:1"
     d="m 222.27013,82.958 c -0.224,-0.104 -0.026,-1.24 -0.531,-1.365 -0.511,-0.135 -0.891,0.563 -2.839,0.943 l -0.026,0.005 c -1.432,0.229 -2.583,1.011 -2.99,2.199 -0.672,1.962 0.954,4.296 3.62,5.208 2.683,0.917 5.391,0.057 6.063,-1.907 0.64,-1.88 -0.824,-4.104 -3.297,-5.083 z"
     id="path42" />
  <path
     style="fill:#231f20;fill-opacity:1;fill-rule:nonzero;stroke:none"
     d="m 226.35413,106.499 c -0.292,-0.573 0.176,-2.468 -0.063,-4.057 -0.161,-1.073 0.577,-3.713 0.333,-4.77 -0.218,-0.97 -0.229,-1.438 0.839,-1.875 0.624,-0.265 2.009,-0.36 2.228,0.104 0.505,1.077 0.543,2.02 0.36,3.073 -0.208,1.198 -1.063,4.395 -1.271,4.973 -0.536,1.427 -0.308,2.131 -0.412,2.522 -0.197,0.733 -0.525,0.838 -1.025,0.817 -0.964,-0.047 -0.989,-0.787 -0.989,-0.787"
     id="path43" />
  <path
     style="fill:none;stroke:#231f20;stroke-width:0.565977;stroke-linecap:butt;stroke-linejoin:miter;stroke-miterlimit:4;stroke-dasharray:none;stroke-opacity:1"
     d="m 226.35413,106.499 c -0.292,-0.573 0.176,-2.468 -0.063,-4.057 -0.161,-1.073 0.577,-3.713 0.333,-4.77 -0.218,-0.97 -0.229,-1.438 0.839,-1.875 0.624,-0.265 2.009,-0.36 2.228,0.104 0.505,1.077 0.543,2.02 0.36,3.073 -0.208,1.198 -1.063,4.395 -1.271,4.973 -0.536,1.427 -0.308,2.131 -0.412,2.522 -0.197,0.733 -0.525,0.838 -1.025,0.817 -0.964,-0.047 -0.989,-0.787 -0.989,-0.787 z"
     id="path44" />
  <path
     style="fill:#231f20;fill-opacity:1;fill-rule:nonzero;stroke:none"
     d="m 227.27513,97.484 c -1.271,-0.271 -0.484,-2.151 -0.355,-2.672 0.136,-0.531 0.339,-2.072 0.339,-3.296 0.005,-1.224 0.532,-2.751 0.541,-5.079 0.006,-1.224 0.787,-2.405 2.558,-2.323 1.756,0.084 2.37,1.099 2.136,2.579 -0.224,1.479 -1.068,2.771 -1.402,4.244 -0.338,1.469 -0.546,3.005 -0.645,4.219 -0.12,1.376 -0.688,2.016 -1.141,2.156 -1.14,0.381 -2.031,0.172 -2.031,0.172"
     id="path45" />
  <path
     style="fill:none;stroke:#231f20;stroke-width:0.565977;stroke-linecap:butt;stroke-linejoin:miter;stroke-miterlimit:4;stroke-dasharray:none;stroke-opacity:1"
     d="m 227.27513,97.484 c -1.271,-0.271 -0.484,-2.151 -0.355,-2.672 0.136,-0.531 0.339,-2.072 0.339,-3.296 0.005,-1.224 0.532,-2.751 0.541,-5.079 0.006,-1.224 0.787,-2.405 2.558,-2.323 1.756,0.084 2.37,1.099 2.136,2.579 -0.224,1.479 -1.068,2.771 -1.402,4.244 -0.338,1.469 -0.546,3.005 -0.645,4.219 -0.12,1.376 -0.688,2.016 -1.141,2.156 -1.14,0.381 -2.031,0.172 -2.031,0.172 z"
     id="path46" />
  <path
     style="fill:#231f20;fill-opacity:1;fill-rule:nonzero;stroke:none"
     d="m 262.28613,74.224 c 0.442,2.218 0.833,2.588 1.781,2.464 0.635,-0.084 1.244,0.057 1.635,0.025 1.292,-0.104 3.428,-0.828 8.937,-4.421 1.245,-0.818 3.011,-1.954 3.767,-2.36 1.192,-0.646 -0.683,-2.192 -1.158,-1.943 -1.514,0.797 -2.624,1.213 -3.208,1.428 -0.406,0.145 -1.077,0.495 -2.708,0.853 -2.469,0.542 -4.026,0.5 -6.026,1.194 -0.932,0.322 -1.828,-0.027 -2.578,0.754 -0.761,0.776 -0.442,2.006 -0.442,2.006"
     id="path47" />
  <path
     style="fill:none;stroke:#231f20;stroke-width:0.565977;stroke-linecap:butt;stroke-linejoin:miter;stroke-miterlimit:4;stroke-dasharray:none;stroke-opacity:1"
     d="m 262.28613,74.224 c 0.442,2.218 0.833,2.588 1.781,2.464 0.635,-0.084 1.244,0.057 1.635,0.025 1.292,-0.104 3.428,-0.828 8.937,-4.421 1.245,-0.818 3.011,-1.954 3.767,-2.36 1.192,-0.646 -0.683,-2.192 -1.158,-1.943 -1.514,0.797 -2.624,1.213 -3.208,1.428 -0.406,0.145 -1.077,0.495 -2.708,0.853 -2.469,0.542 -4.026,0.5 -6.026,1.194 -0.932,0.322 -1.828,-0.027 -2.578,0.754 -0.761,0.776 -0.442,2.006 -0.442,2.006 z"
     id="path48" />
  <path
     style="fill:#231f20;fill-opacity:1;fill-rule:nonzero;stroke:#231f20;stroke-width:0.565977;stroke-linecap:round;stroke-linejoin:round;stroke-miterlimit:4;stroke-dasharray:none;stroke-opacity:1"
     d="m 263.76413,72.202 c -1.186,-0.78 -3.016,0.36 -3.354,0.386 -4.984,0.542 -5.328,0.704 -9.083,1.376 -5.448,0.978 -9.021,2.473 -9.38,5.806 -0.245,2.262 0.593,3.667 1.76,4.282 1.292,0.677 4.469,0.693 6.027,-1.74 l 1.546,-0.734 c 1.104,-0.37 1.646,-0.557 2.203,-0.698 0.975,-0.23 2.005,-0.547 3.875,-1.12 3.324,-1.015 6.505,-3.172 6.505,-3.172 0.292,-0.094 0.5,-0.286 0.636,-0.52"
     id="path49" />
  <path
     style="fill:#63c99d;fill-opacity:1;fill-rule:nonzero;stroke:#231f20;stroke-width:0.565977;stroke-linecap:butt;stroke-linejoin:miter;stroke-miterlimit:4;stroke-dasharray:none;stroke-opacity:1"
     d="m 248.30613,74.63 c -0.635,0.151 -1.224,0.323 -1.776,0.511 -0.083,0 -0.162,0 -0.23,-0.016 -0.801,-0.12 -1.27,0.301 -2.004,1.031 -1.324,0.818 -2.166,1.89 -2.381,3.349 -0.323,2.245 0.459,3.688 1.6,4.344 1.271,0.724 4.443,0.864 6.088,-1.511 z"
     id="path50" />
  <path
     style="fill:#231f20;fill-opacity:1;fill-rule:nonzero;stroke:none"
     d="m 280.68713,69.224 c -0.448,1.276 -1.443,1.302 -2.245,0.65 -0.246,-0.192 -0.656,-0.104 -0.87,-0.312 -0.516,-0.489 -0.5,-2.229 0.958,-2.588 0.104,-0.026 0.802,-0.453 1.381,-0.688 1.119,-0.458 3.588,-0.844 5.744,0.771 1.027,0.765 0.385,1.229 -0.125,1.047 -1.61,-0.583 -1.864,-0.323 -2.343,-0.318 -1.625,-0.005 -2.5,1.438 -2.5,1.438"
     id="path51" />
  <path
     style="fill:none;stroke:#231f20;stroke-width:0.332927;stroke-linecap:butt;stroke-linejoin:miter;stroke-miterlimit:4;stroke-dasharray:none;stroke-opacity:1"
     d="m 280.68713,69.224 c -0.448,1.276 -1.443,1.302 -2.245,0.65 -0.246,-0.192 -0.656,-0.104 -0.87,-0.312 -0.516,-0.489 -0.5,-2.229 0.958,-2.588 0.104,-0.026 0.802,-0.453 1.381,-0.688 1.119,-0.458 3.588,-0.844 5.744,0.771 1.027,0.765 0.385,1.229 -0.125,1.047 -1.61,-0.583 -1.864,-0.323 -2.343,-0.318 -1.625,-0.005 -2.5,1.438 -2.5,1.438 z"
     id="path52" />
  <path
     style="fill:#231f20;fill-opacity:1;fill-rule:nonzero;stroke:none"
     d="m 230.03513,108.035 c 0,1.172 -0.953,2.131 -2.129,2.131 -1.178,0 -2.136,-0.959 -2.136,-2.131 0,-1.181 0.958,-2.134 2.136,-2.134 1.176,0 2.129,0.953 2.129,2.134"
     id="path53" />
  <path
     style="fill:#231f20;fill-opacity:1;fill-rule:nonzero;stroke:none"
     d="m 182.15013,108.035 c 0,1.172 -0.954,2.131 -2.13,2.131 -1.182,0 -2.136,-0.959 -2.136,-2.131 0,-1.181 0.954,-2.134 2.136,-2.134 1.176,0 2.13,0.953 2.13,2.134"
     id="path54" />
</svg>
