<?xml version="1.0" encoding="UTF-8" standalone="no"?>
<!-- Created with Inkscape (http://www.inkscape.org/) -->

<svg
   version="1.1"
   id="svg1"
   width="341.26385"
   height="100.43994"
   viewBox="0 0 341.26384 100.43994"
   sodipodi:docname="cell.svg"
   xmlns:inkscape="http://www.inkscape.org/namespaces/inkscape"
   xmlns:sodipodi="http://sodipodi.sourceforge.net/DTD/sodipodi-0.dtd"
   xmlns="http://www.w3.org/2000/svg"
   xmlns:svg="http://www.w3.org/2000/svg">
  <sodipodi:namedview
     id="namedview1"
     pagecolor="#ffffff"
     bordercolor="#000000"
     borderopacity="0.25"
     inkscape:showpageshadow="2"
     inkscape:pageopacity="0.0"
     inkscape:pagecheckerboard="0"
     inkscape:deskcolor="#d1d1d1">
    <inkscape:page
       x="0"
       y="0"
       inkscape:label="1"
       id="page1"
       width="341.26385"
       height="100.43994"
       margin="0"
       bleed="0" />
  </sodipodi:namedview>
  <defs
     id="defs1" />
  <path
     style="fill:#231f20;fill-opacity:1;fill-rule:nonzero;stroke:none"
     d="m 171.96893,94.564511 c -1.084,-0.803 -0.813,-1.761 0.047,-2.339 0.26,-0.177 0.296,-0.589 0.557,-0.74 0.62,-0.338 2.281,0.194 2.187,1.694 -0.006,0.104 0.188,0.896 0.245,1.514 0.104,1.21 -0.265,3.678 -2.448,5.262 -1.031,0.748999 -1.287,0 -0.959,-0.434 1.032,-1.358 0.86,-1.681 0.995,-2.14 0.491,-1.552 -0.624,-2.817 -0.624,-2.817"
     id="path318" />
  <path
     style="fill:none;stroke:#231f20;stroke-width:0.332927;stroke-linecap:butt;stroke-linejoin:miter;stroke-miterlimit:4;stroke-dasharray:none;stroke-opacity:1"
     d="m 171.96893,94.564511 c -1.084,-0.803 -0.813,-1.761 0.047,-2.339 0.26,-0.177 0.296,-0.589 0.557,-0.74 0.62,-0.338 2.281,0.194 2.187,1.694 -0.006,0.104 0.188,0.896 0.245,1.514 0.104,1.21 -0.265,3.678 -2.448,5.262 -1.031,0.748999 -1.287,0 -0.959,-0.434 1.032,-1.358 0.86,-1.681 0.995,-2.14 0.491,-1.552 -0.624,-2.817 -0.624,-2.817 z"
     id="path319" />
  <path
     style="fill:#63c99d;fill-opacity:1;fill-rule:nonzero;stroke:none"
     d="m 169.93193,50.007512 c 0.141,3.129 -0.172,3.817 -0.495,4.681 -2.025,5.412 0.667,6.308 3.475,5.657 3.306,-0.756 4.509,-0.964 3.629,-7.198 -0.249,-1.735 -0.312,-8.506 -0.312,-8.506 0.297,-2.432 -0.697,-4.957 -1.937,-5.724 -1.314,-0.801 -0.855,-0.39 -2.199,-0.91 -1.285,-0.5 -3.443,-0.152 -4.077,0.91 -0.615,1.016 0.172,2.486 1.025,4.751 0.677,1.792 0.891,6.339 0.891,6.339"
     id="path320" />
  <path
     style="fill:none;stroke:#231f20;stroke-width:0.565977;stroke-linecap:butt;stroke-linejoin:miter;stroke-miterlimit:4;stroke-dasharray:none;stroke-opacity:1"
     d="m 169.93193,50.007512 c 0.141,3.129 -0.172,3.817 -0.495,4.681 -2.025,5.412 0.667,6.308 3.475,5.657 3.306,-0.756 4.509,-0.964 3.629,-7.198 -0.249,-1.735 -0.312,-8.506 -0.312,-8.506 0.297,-2.432 -0.697,-4.957 -1.937,-5.724 -1.314,-0.801 -0.855,-0.39 -2.199,-0.91 -1.285,-0.5 -3.443,-0.152 -4.077,0.91 -0.615,1.016 0.172,2.486 1.025,4.751 0.677,1.792 0.891,6.339 0.891,6.339 z"
     id="path321" />
  <path
     style="fill:#ffffff;fill-opacity:1;fill-rule:nonzero;stroke:none"
     d="m 174.78093,32.048512 c 0.016,-0.245 1.156,-0.448 1.099,-0.969 -0.052,-0.52 -0.839,-0.64 -1.864,-2.338 l -0.011,-0.021 c -0.713,-1.265 -1.844,-2.084 -3.093,-2.057 -2.079,0.046 -3.71,2.38 -3.652,5.192 0.068,2.833 1.808,5.078 3.881,5.037 1.984,-0.047 3.567,-2.183 3.64,-4.844"
     id="path322" />
  <path
     style="fill:none;stroke:#231f20;stroke-width:0.565977;stroke-linecap:butt;stroke-linejoin:miter;stroke-miterlimit:4;stroke-dasharray:none;stroke-opacity:1"
     d="m 174.78093,32.048512 c 0.016,-0.245 1.156,-0.448 1.099,-0.969 -0.052,-0.52 -0.839,-0.64 -1.864,-2.338 l -0.011,-0.021 c -0.713,-1.265 -1.844,-2.084 -3.093,-2.057 -2.079,0.046 -3.71,2.38 -3.652,5.192 0.068,2.833 1.808,5.078 3.881,5.037 1.984,-0.047 3.567,-2.183 3.64,-4.844 z"
     id="path323" />
  <path
     style="fill:#231f20;fill-opacity:1;fill-rule:nonzero;stroke:none"
     d="m 173.07793,75.392511 c -2.25,-0.24 -2.718,0.02 -2.88,0.968 -0.114,0.631 -0.428,1.172 -0.51,1.547 -0.287,1.266 -0.24,3.521 1.557,9.849 0.411,1.432 0.968,3.453 1.129,4.297 0.262,1.334 2.303,0.006 2.204,-0.526 -0.308,-1.682 -0.38,-2.864 -0.406,-3.49 -0.016,-0.421 -0.162,-1.172 -0.011,-2.838 0.213,-2.515 0.719,-3.99 0.651,-6.11 -0.026,-0.978 0.573,-1.734 0.048,-2.681 -0.516,-0.959 -1.782,-1.016 -1.782,-1.016"
     id="path324" />
  <path
     style="fill:none;stroke:#231f20;stroke-width:0.565977;stroke-linecap:butt;stroke-linejoin:miter;stroke-miterlimit:4;stroke-dasharray:none;stroke-opacity:1"
     d="m 173.07793,75.392511 c -2.25,-0.24 -2.718,0.02 -2.88,0.968 -0.114,0.631 -0.428,1.172 -0.51,1.547 -0.287,1.266 -0.24,3.521 1.557,9.849 0.411,1.432 0.968,3.453 1.129,4.297 0.262,1.334 2.303,0.006 2.204,-0.526 -0.308,-1.682 -0.38,-2.864 -0.406,-3.49 -0.016,-0.421 -0.162,-1.172 -0.011,-2.838 0.213,-2.515 0.719,-3.99 0.651,-6.11 -0.026,-0.978 0.573,-1.734 0.048,-2.681 -0.516,-0.959 -1.782,-1.016 -1.782,-1.016 z"
     id="path325" />
  <path
     style="fill:#231f20;fill-opacity:1;fill-rule:nonzero;stroke:#231f20;stroke-width:0.565977;stroke-linecap:round;stroke-linejoin:round;stroke-miterlimit:4;stroke-dasharray:none;stroke-opacity:1"
     d="m 174.56793,77.403511 c 1.098,-0.896 0.557,-2.98 0.625,-3.314 0.973,-4.921 0.916,-5.296 1.395,-9.088 0.688,-5.483999 0.324,-9.348999 -2.75,-10.681999 -2.088,-0.902 -3.682,-0.522 -4.614,0.406 -1.031,1.036 -1.99,4.063 -0.131,6.276 l 0.24,1.692 c 0.027,1.166999 0.041,1.739999 0.011,2.313999 -0.068,0.994 -0.074,2.072 -0.084,4.03 -0.02,3.475 1.089,7.151 1.089,7.151 0.005,0.308 0.129,0.568 0.307,0.767"
     id="path326" />
  <path
     style="fill:#63c99d;fill-opacity:1;fill-rule:nonzero;stroke:none"
     d="m 176.48393,57.428512 c -0.411,-1.38 -1.172,-2.411 -2.427,-3.016 -2.047,-0.973 -3.656,-0.656 -4.625,0.235 -1.072,0.994 -2.146,3.984 -0.37,6.265 l 7.746,1.052 c 0.041,-0.619 0.052,-1.192 0.046,-1.749 0.031,-0.131 0.072,-0.255 0.12,-0.355 0.38,-0.781 0.062,-1.375 -0.49,-2.432"
     id="path327" />
  <path
     style="fill:none;stroke:#231f20;stroke-width:0.565977;stroke-linecap:butt;stroke-linejoin:miter;stroke-miterlimit:4;stroke-dasharray:none;stroke-opacity:1"
     d="m 176.48393,57.428512 c -0.411,-1.38 -1.172,-2.411 -2.427,-3.016 -2.047,-0.973 -3.656,-0.656 -4.625,0.235 -1.072,0.994 -2.146,3.984 -0.37,6.265 l 7.746,1.052 c 0.041,-0.619 0.052,-1.192 0.046,-1.749 0.031,-0.131 0.072,-0.255 0.12,-0.355 0.38,-0.781 0.062,-1.375 -0.49,-2.432 z"
     id="path328" />
  <path
     style="fill:#231f20;fill-opacity:1;fill-rule:nonzero;stroke:none"
     d="m 172.57793,61.053512 c -0.422,-0.48 -0.437,-2.432 -1.057,-3.912 -0.423,-1.005 -0.36,-3.744 -0.855,-4.708 -0.453,-0.885 -0.578,-1.333 0.344,-2.025 0.547,-0.407 1.864,-0.839 2.188,-0.448 0.755,0.916 1.026,1.828 1.11,2.891 0.093,1.213 0.052,4.525 -0.011,5.134 -0.161,1.511 0.229,2.136 0.229,2.542 -0.01,0.761 -0.308,0.942 -0.797,1.046 -0.943,0.194 -1.151,-0.52 -1.151,-0.52"
     id="path329" />
  <path
     style="fill:none;stroke:#231f20;stroke-width:0.565977;stroke-linecap:butt;stroke-linejoin:miter;stroke-miterlimit:4;stroke-dasharray:none;stroke-opacity:1"
     d="m 172.57793,61.053512 c -0.422,-0.48 -0.437,-2.432 -1.057,-3.912 -0.423,-1.005 -0.36,-3.744 -0.855,-4.708 -0.453,-0.885 -0.578,-1.333 0.344,-2.025 0.547,-0.407 1.864,-0.839 2.188,-0.448 0.755,0.916 1.026,1.828 1.11,2.891 0.093,1.213 0.052,4.525 -0.011,5.134 -0.161,1.511 0.229,2.136 0.229,2.542 -0.01,0.761 -0.308,0.942 -0.797,1.046 -0.943,0.194 -1.151,-0.52 -1.151,-0.52 z"
     id="path330" />
  <path
     style="fill:#231f20;fill-opacity:1;fill-rule:nonzero;stroke:none"
     d="m 171.24993,52.095512 c -1.297,0.046 -1,-1.968 -1,-2.506 -0.005,-0.546 -0.188,-2.093 -0.49,-3.276 -0.296,-1.192 -0.162,-2.801 -0.724,-5.057 -0.296,-1.181 0.166,-2.525 1.906,-2.88 1.719,-0.355 2.568,0.479 2.708,1.975 0.142,1.484 -0.358,2.946 -0.317,4.452 0.036,1.51 0.213,3.052 0.417,4.25 0.224,1.364 -0.166,2.126 -0.578,2.375 -1.011,0.647 -1.922,0.667 -1.922,0.667"
     id="path331" />
  <path
     style="fill:none;stroke:#231f20;stroke-width:0.565977;stroke-linecap:butt;stroke-linejoin:miter;stroke-miterlimit:4;stroke-dasharray:none;stroke-opacity:1"
     d="m 171.24993,52.095512 c -1.297,0.046 -1,-1.968 -1,-2.506 -0.005,-0.546 -0.188,-2.093 -0.49,-3.276 -0.296,-1.192 -0.162,-2.801 -0.724,-5.057 -0.296,-1.181 0.166,-2.525 1.906,-2.88 1.719,-0.355 2.568,0.479 2.708,1.975 0.142,1.484 -0.358,2.946 -0.317,4.452 0.036,1.51 0.213,3.052 0.417,4.25 0.224,1.364 -0.166,2.126 -0.578,2.375 -1.011,0.647 -1.922,0.667 -1.922,0.667 z"
     id="path332" />
  <path
     style="fill:#ffffff;fill-opacity:1;fill-rule:nonzero;stroke:none"
     d="m 0.33292806,62.288512 c 0,0.686999 0.558,1.243999 1.24000004,1.243999 H 339.68693 c 0.687,0 1.244,-0.557 1.244,-1.243999 0,-0.683 -0.557,-1.235 -1.244,-1.235 H 1.5729281 c -0.68200004,0 -1.24000004,0.552 -1.24000004,1.235"
     id="path333" />
  <path
     style="fill:none;stroke:#231f20;stroke-width:0.665856;stroke-linecap:butt;stroke-linejoin:miter;stroke-miterlimit:4;stroke-dasharray:none;stroke-opacity:1"
     d="m 0.33292806,62.288512 c 0,0.686999 0.558,1.243999 1.24000004,1.243999 H 339.68693 c 0.687,0 1.244,-0.557 1.244,-1.243999 0,-0.683 -0.557,-1.235 -1.244,-1.235 H 1.5729281 c -0.68200004,0 -1.24000004,0.552 -1.24000004,1.235 z"
     id="path334" />
  <path
     style="fill:none;stroke:#231f20;stroke-width:0.399514;stroke-linecap:butt;stroke-linejoin:miter;stroke-miterlimit:4;stroke-dasharray:none;stroke-opacity:1"
     d="m 198.43693,76.105511 c -17.495,19.896 -48.677,5.511 -53.807,0.359"
     id="path335" />
  <path
     style="fill:#231f20;fill-opacity:1;fill-rule:nonzero;stroke:none"
     d="m 143.78093,75.611511 c 0.547,0.254 1.303,0.5 1.875,0.541 l -0.911,0.427 -0.433,0.912 c -0.036,-0.574 -0.282,-1.328 -0.531,-1.88"
     id="path336" />
  <path
     style="fill:#63c99d;fill-opacity:1;fill-rule:nonzero;stroke:none"
     d="m 76.911928,40.964512 c 3.082,-0.531 3.806,-0.307 4.708,-0.088 5.625,1.333 6.177,-1.453 5.177,-4.156 -1.156,-3.188 -1.516,-4.355 -7.589,-2.708 -1.692,0.463 -8.405,1.375 -8.405,1.375 -2.448,0 -4.834,1.301 -5.439,2.63 -0.629,1.4 -0.28,0.895 -0.629,2.291 -0.339,1.339 0.281,3.433 1.41,3.932 1.084,0.485 2.448,-0.473 4.59,-1.609 1.692,-0.89 6.177,-1.667 6.177,-1.667"
     id="path337" />
  <path
     style="fill:none;stroke:#231f20;stroke-width:0.565977;stroke-linecap:butt;stroke-linejoin:miter;stroke-miterlimit:4;stroke-dasharray:none;stroke-opacity:1"
     d="m 76.911928,40.964512 c 3.082,-0.531 3.806,-0.307 4.708,-0.088 5.625,1.333 6.177,-1.453 5.177,-4.156 -1.156,-3.188 -1.516,-4.355 -7.589,-2.708 -1.692,0.463 -8.405,1.375 -8.405,1.375 -2.448,0 -4.834,1.301 -5.439,2.63 -0.629,1.4 -0.28,0.895 -0.629,2.291 -0.339,1.339 0.281,3.433 1.41,3.932 1.084,0.485 2.448,-0.473 4.59,-1.609 1.692,-0.89 6.177,-1.667 6.177,-1.667 z"
     id="path338" />
  <path
     style="fill:#ffffff;fill-opacity:1;fill-rule:nonzero;stroke:none"
     d="m 59.630928,39.537512 c -0.24,-0.041 -0.355,-1.186 -0.876,-1.172 -0.526,0.011 -0.708,0.782 -2.484,1.672 l -0.016,0.011 c -1.323,0.609 -2.224,1.667 -2.296,2.916 -0.12,2.079 2.072,3.891 4.885,4.053 2.828,0.156 5.208,-1.396 5.328,-3.464 0.115,-1.984 -1.891,-3.734 -4.541,-4.016"
     id="path339" />
  <path
     style="fill:none;stroke:#231f20;stroke-width:0.565977;stroke-linecap:butt;stroke-linejoin:miter;stroke-miterlimit:4;stroke-dasharray:none;stroke-opacity:1"
     d="m 59.630928,39.537512 c -0.24,-0.041 -0.355,-1.186 -0.876,-1.172 -0.526,0.011 -0.708,0.782 -2.484,1.672 l -0.016,0.011 c -1.323,0.609 -2.224,1.667 -2.296,2.916 -0.12,2.079 2.072,3.891 4.885,4.053 2.828,0.156 5.208,-1.396 5.328,-3.464 0.115,-1.984 -1.891,-3.734 -4.541,-4.016 z"
     id="path340" />
  <path
     style="fill:#231f20;fill-opacity:1;fill-rule:nonzero;stroke:none"
     d="m 64.311928,60.851512 c -0.291,-0.574 0.177,-2.464 -0.057,-4.054 -0.162,-1.077 0.573,-3.718 0.333,-4.776 -0.219,-0.968 -0.228,-1.437 0.833,-1.874 0.631,-0.26 2.016,-0.359 2.23,0.104 0.51,1.078 0.548,2.021 0.36,3.073 -0.208,1.203 -1.063,4.401 -1.271,4.973 -0.532,1.428 -0.303,2.131 -0.407,2.522 -0.197,0.734 -0.53,0.838 -1.03,0.822 -0.964,-0.046 -0.991,-0.79 -0.991,-0.79"
     id="path341" />
  <path
     style="fill:none;stroke:#231f20;stroke-width:0.565977;stroke-linecap:butt;stroke-linejoin:miter;stroke-miterlimit:4;stroke-dasharray:none;stroke-opacity:1"
     d="m 64.311928,60.851512 c -0.291,-0.574 0.177,-2.464 -0.057,-4.054 -0.162,-1.077 0.573,-3.718 0.333,-4.776 -0.219,-0.968 -0.228,-1.437 0.833,-1.874 0.631,-0.26 2.016,-0.359 2.23,0.104 0.51,1.078 0.548,2.021 0.36,3.073 -0.208,1.203 -1.063,4.401 -1.271,4.973 -0.532,1.428 -0.303,2.131 -0.407,2.522 -0.197,0.734 -0.53,0.838 -1.03,0.822 -0.964,-0.046 -0.991,-0.79 -0.991,-0.79 z"
     id="path342" />
  <path
     style="fill:#231f20;fill-opacity:1;fill-rule:nonzero;stroke:none"
     d="m 65.234928,51.835512 c -1.266,-0.271 -0.48,-2.151 -0.355,-2.672 0.136,-0.532 0.339,-2.074 0.339,-3.292 0.005,-1.23 0.532,-2.755 0.541,-5.083 0.005,-1.219 0.787,-2.407 2.563,-2.324 1.756,0.084 2.37,1.1 2.136,2.584 -0.224,1.473 -1.074,2.765 -1.407,4.24 -0.333,1.473 -0.541,3.009 -0.645,4.219 -0.115,1.374 -0.683,2.014 -1.142,2.161 -1.134,0.375 -2.03,0.167 -2.03,0.167"
     id="path343" />
  <path
     style="fill:none;stroke:#231f20;stroke-width:0.565977;stroke-linecap:butt;stroke-linejoin:miter;stroke-miterlimit:4;stroke-dasharray:none;stroke-opacity:1"
     d="m 65.234928,51.835512 c -1.266,-0.271 -0.48,-2.151 -0.355,-2.672 0.136,-0.532 0.339,-2.074 0.339,-3.292 0.005,-1.23 0.532,-2.755 0.541,-5.083 0.005,-1.219 0.787,-2.407 2.563,-2.324 1.756,0.084 2.37,1.1 2.136,2.584 -0.224,1.473 -1.074,2.765 -1.407,4.24 -0.333,1.473 -0.541,3.009 -0.645,4.219 -0.115,1.374 -0.683,2.014 -1.142,2.161 -1.134,0.375 -2.03,0.167 -2.03,0.167 z"
     id="path344" />
  <path
     style="fill:#231f20;fill-opacity:1;fill-rule:nonzero;stroke:none"
     d="m 100.98393,31.532512 c 0.464,2.213 0.854,2.579 1.808,2.443 0.634,-0.088 1.244,0.046 1.629,0.01 1.297,-0.12 3.423,-0.858 8.896,-4.516 1.235,-0.828 2.985,-1.978 3.745,-2.39 1.178,-0.656 -0.708,-2.187 -1.182,-1.932 -1.511,0.808 -2.61,1.24 -3.192,1.458 -0.402,0.146 -1.074,0.511 -2.699,0.88 -2.463,0.574 -4.02,0.547 -6.015,1.256 -0.928,0.334 -1.829,-0.01 -2.568,0.78 -0.756,0.787 -0.422,2.011 -0.422,2.011"
     id="path345" />
  <path
     style="fill:none;stroke:#231f20;stroke-width:0.565977;stroke-linecap:butt;stroke-linejoin:miter;stroke-miterlimit:4;stroke-dasharray:none;stroke-opacity:1"
     d="m 100.98393,31.532512 c 0.464,2.213 0.854,2.579 1.808,2.443 0.634,-0.088 1.244,0.046 1.629,0.01 1.297,-0.12 3.423,-0.858 8.896,-4.516 1.235,-0.828 2.985,-1.978 3.745,-2.39 1.178,-0.656 -0.708,-2.187 -1.182,-1.932 -1.511,0.808 -2.61,1.24 -3.192,1.458 -0.402,0.146 -1.074,0.511 -2.699,0.88 -2.463,0.574 -4.02,0.547 -6.015,1.256 -0.928,0.334 -1.829,-0.01 -2.568,0.78 -0.756,0.787 -0.422,2.011 -0.422,2.011 z"
     id="path346" />
  <path
     style="fill:#231f20;fill-opacity:1;fill-rule:nonzero;stroke:#231f20;stroke-width:0.565977;stroke-linecap:round;stroke-linejoin:round;stroke-miterlimit:4;stroke-dasharray:none;stroke-opacity:1"
     d="m 102.44193,29.496512 c -1.192,-0.771 -3.010004,0.391 -3.349004,0.421 -4.978998,0.59 -5.322998,0.762 -9.071998,1.47 -5.437,1.025 -8.995,2.568 -9.324,5.901 -0.219,2.265 0.636,3.661 1.808,4.265 1.303,0.662 4.479,0.646 6.011,-1.802 l 1.536,-0.755 c 1.104,-0.38 1.641,-0.568 2.198,-0.713 0.974,-0.246 1.995,-0.574 3.864,-1.162 3.311998,-1.052 6.470002,-3.24 6.470002,-3.24 0.29,-0.098 0.494,-0.292 0.634,-0.526"
     id="path347" />
  <path
     style="fill:#63c99d;fill-opacity:1;fill-rule:nonzero;stroke:#231f20;stroke-width:0.565977;stroke-linecap:butt;stroke-linejoin:miter;stroke-miterlimit:4;stroke-dasharray:none;stroke-opacity:1"
     d="m 87.009928,32.084512 c -0.641,0.156 -1.218,0.333 -1.776,0.527 -0.078,0 -0.156,0 -0.229,-0.011 -0.797,-0.115 -1.26,0.307 -1.989,1.041 -1.319,0.834 -2.151,1.918 -2.35,3.38 -0.297,2.251 0.5,3.683 1.646,4.33 1.276,0.713 4.448,0.817 6.073,-1.574 z"
     id="path348" />
  <path
     style="fill:#231f20;fill-opacity:1;fill-rule:nonzero;stroke:none"
     d="m 119.33293,26.345512 c -0.437,1.276 -1.427,1.312 -2.24,0.676 -0.244,-0.192 -0.656,-0.104 -0.875,-0.306 -0.516,-0.484 -0.521,-2.224 0.932,-2.599 0.104,-0.027 0.798,-0.459 1.371,-0.704 1.12,-0.468 3.583,-0.875 5.755,0.715 1.032,0.754 0.401,1.224 -0.11,1.046 -1.614,-0.568 -1.869,-0.302 -2.349,-0.292 -1.624,0.016 -2.484,1.464 -2.484,1.464"
     id="path349" />
  <path
     style="fill:none;stroke:#231f20;stroke-width:0.332927;stroke-linecap:butt;stroke-linejoin:miter;stroke-miterlimit:4;stroke-dasharray:none;stroke-opacity:1"
     d="m 119.33293,26.345512 c -0.437,1.276 -1.427,1.312 -2.24,0.676 -0.244,-0.192 -0.656,-0.104 -0.875,-0.306 -0.516,-0.484 -0.521,-2.224 0.932,-2.599 0.104,-0.027 0.798,-0.459 1.371,-0.704 1.12,-0.468 3.583,-0.875 5.755,0.715 1.032,0.754 0.401,1.224 -0.11,1.046 -1.614,-0.568 -1.869,-0.302 -2.349,-0.292 -1.624,0.016 -2.484,1.464 -2.484,1.464 z"
     id="path350" />
  <path
     style="fill:#231f20;fill-opacity:1;fill-rule:nonzero;stroke:none"
     d="m 67.999928,62.387512 c 0,1.176999 -0.959,2.129999 -2.135,2.129999 -1.177,0 -2.136,-0.953 -2.136,-2.129999 0,-1.178 0.959,-2.136 2.136,-2.136 1.176,0 2.135,0.958 2.135,2.136"
     id="path351" />
  <path
     style="fill:#63c99d;fill-opacity:1;fill-rule:nonzero;stroke:none"
     d="m 266.44693,33.912512 c -2.234,-2.197 -2.473,-2.916 -2.822,-3.771 -2.204,-5.344 -4.787,-4.161 -6.402,-1.776 -1.906,2.808 -2.64,3.782 2.246,7.746 1.364,1.104 6.025,6.016 6.025,6.016 1.432,1.989 3.885,3.161 5.313,2.874 1.504,-0.308 0.89,-0.297 2.228,-0.828 1.282,-0.505 2.62,-2.234 2.371,-3.442 -0.245,-1.167 -1.823,-1.71 -3.989,-2.782 -1.715,-0.854 -4.97,-4.037 -4.97,-4.037"
     id="path352" />
  <path
     style="fill:none;stroke:#231f20;stroke-width:0.565977;stroke-linecap:butt;stroke-linejoin:miter;stroke-miterlimit:4;stroke-dasharray:none;stroke-opacity:1"
     d="m 266.44693,33.912512 c -2.234,-2.197 -2.473,-2.916 -2.822,-3.771 -2.204,-5.344 -4.787,-4.161 -6.402,-1.776 -1.906,2.808 -2.64,3.782 2.246,7.746 1.364,1.104 6.025,6.016 6.025,6.016 1.432,1.989 3.885,3.161 5.313,2.874 1.504,-0.308 0.89,-0.297 2.228,-0.828 1.282,-0.505 2.62,-2.234 2.371,-3.442 -0.245,-1.167 -1.823,-1.71 -3.989,-2.782 -1.715,-0.854 -4.97,-4.037 -4.97,-4.037 z"
     id="path353" />
  <path
     style="fill:#ffffff;fill-opacity:1;fill-rule:nonzero;stroke:none"
     d="m 277.71793,50.059512 c 0.199,0.14 -0.192,1.218 0.281,1.432 0.484,0.218 0.975,-0.396 2.964,-0.432 h 0.026 c 1.453,0.025 2.724,-0.542 3.328,-1.642 1.005,-1.817 -0.187,-4.4 -2.656,-5.765 -2.474,-1.364 -5.298,-0.995 -6.302,0.823 -0.958,1.734 0.094,4.182 2.359,5.584"
     id="path354" />
  <path
     style="fill:none;stroke:#231f20;stroke-width:0.565977;stroke-linecap:butt;stroke-linejoin:miter;stroke-miterlimit:4;stroke-dasharray:none;stroke-opacity:1"
     d="m 277.71793,50.059512 c 0.199,0.14 -0.192,1.218 0.281,1.432 0.484,0.218 0.975,-0.396 2.964,-0.432 h 0.026 c 1.453,0.025 2.724,-0.542 3.328,-1.642 1.005,-1.817 -0.187,-4.4 -2.656,-5.765 -2.474,-1.364 -5.298,-0.995 -6.302,0.823 -0.958,1.734 0.094,4.182 2.359,5.584 z"
     id="path355" />
  <path
     style="fill:#231f20;fill-opacity:1;fill-rule:nonzero;stroke:none"
     d="m 269.95293,62.089512 c -0.35,-0.536 -0.084,-2.468 -0.484,-4.025 -0.271,-1.052 0.181,-3.756 -0.167,-4.781 -0.324,-0.943 -0.381,-1.402 0.629,-1.954 0.604,-0.322 1.97,-0.568 2.235,-0.13 0.615,1.021 0.751,1.958 0.677,3.021 -0.084,1.213 -0.598,4.484 -0.745,5.077 -0.38,1.475 -0.077,2.152 -0.14,2.548 -0.12,0.755 -0.437,0.896 -0.943,0.927 -0.958,0.057 -1.062,-0.683 -1.062,-0.683"
     id="path356" />
  <path
     style="fill:none;stroke:#231f20;stroke-width:0.565977;stroke-linecap:butt;stroke-linejoin:miter;stroke-miterlimit:4;stroke-dasharray:none;stroke-opacity:1"
     d="m 269.95293,62.089512 c -0.35,-0.536 -0.084,-2.468 -0.484,-4.025 -0.271,-1.052 0.181,-3.756 -0.167,-4.781 -0.324,-0.943 -0.381,-1.402 0.629,-1.954 0.604,-0.322 1.97,-0.568 2.235,-0.13 0.615,1.021 0.751,1.958 0.677,3.021 -0.084,1.213 -0.598,4.484 -0.745,5.077 -0.38,1.475 -0.077,2.152 -0.14,2.548 -0.12,0.755 -0.437,0.896 -0.943,0.927 -0.958,0.057 -1.062,-0.683 -1.062,-0.683 z"
     id="path357" />
  <path
     style="fill:#231f20;fill-opacity:1;fill-rule:nonzero;stroke:none"
     d="m 269.92593,53.032512 c -1.291,-0.14 -0.703,-2.093 -0.629,-2.624 0.077,-0.543 0.114,-2.095 -0.011,-3.313 -0.12,-1.219 0.245,-2.792 0.011,-5.11 -0.126,-1.213 0.53,-2.473 2.301,-2.577 1.756,-0.1 2.469,0.848 2.396,2.343 -0.073,1.494 -0.776,2.87 -0.953,4.37 -0.182,1.5 -0.23,3.047 -0.203,4.26 0.027,1.38 -0.469,2.079 -0.912,2.266 -1.088,0.494 -2,0.385 -2,0.385"
     id="path358" />
  <path
     style="fill:none;stroke:#231f20;stroke-width:0.565977;stroke-linecap:butt;stroke-linejoin:miter;stroke-miterlimit:4;stroke-dasharray:none;stroke-opacity:1"
     d="m 269.92593,53.032512 c -1.291,-0.14 -0.703,-2.093 -0.629,-2.624 0.077,-0.543 0.114,-2.095 -0.011,-3.313 -0.12,-1.219 0.245,-2.792 0.011,-5.11 -0.126,-1.213 0.53,-2.473 2.301,-2.577 1.756,-0.1 2.469,0.848 2.396,2.343 -0.073,1.494 -0.776,2.87 -0.953,4.37 -0.182,1.5 -0.23,3.047 -0.203,4.26 0.027,1.38 -0.469,2.079 -0.912,2.266 -1.088,0.494 -2,0.385 -2,0.385 z"
     id="path359" />
  <path
     style="fill:#231f20;fill-opacity:1;fill-rule:nonzero;stroke:none"
     d="m 246.06193,18.111512 c 1.735,-1.453 1.875,-1.969 1.307,-2.745 -0.375,-0.52 -0.547,-1.12 -0.76,-1.443 -0.714,-1.088 -2.364,-2.615 -8.167,-5.729 -1.317,-0.698 -3.151,-1.703 -3.869,-2.176 -1.136,-0.735 -1.599,1.656 -1.152,1.952 1.422,0.948 2.324,1.718 2.786,2.13 0.319,0.287 0.954,0.708 2.047,1.97 1.663,1.9 2.371,3.29 3.944,4.713 0.723,0.666 0.848,1.62 1.889,1.905 1.048,0.292 1.975,-0.577 1.975,-0.577"
     id="path360" />
  <path
     style="fill:none;stroke:#231f20;stroke-width:0.565977;stroke-linecap:butt;stroke-linejoin:miter;stroke-miterlimit:4;stroke-dasharray:none;stroke-opacity:1"
     d="m 246.06193,18.111512 c 1.735,-1.453 1.875,-1.969 1.307,-2.745 -0.375,-0.52 -0.547,-1.12 -0.76,-1.443 -0.714,-1.088 -2.364,-2.615 -8.167,-5.729 -1.317,-0.698 -3.151,-1.703 -3.869,-2.176 -1.136,-0.735 -1.599,1.656 -1.152,1.952 1.422,0.948 2.324,1.718 2.786,2.13 0.319,0.287 0.954,0.708 2.047,1.97 1.663,1.9 2.371,3.29 3.944,4.713 0.723,0.666 0.848,1.62 1.889,1.905 1.048,0.292 1.975,-0.577 1.975,-0.577 z"
     id="path361" />
  <path
     style="fill:#231f20;fill-opacity:1;fill-rule:nonzero;stroke:#231f20;stroke-width:0.565977;stroke-linecap:round;stroke-linejoin:round;stroke-miterlimit:4;stroke-dasharray:none;stroke-opacity:1"
     d="m 243.57793,17.783512 c -0.12,1.416 1.76,2.473 1.948,2.754 2.864,4.115 3.171,4.339 5.561,7.318 3.464,4.313 6.496,6.734 9.595,5.448 2.099,-0.87 2.927,-2.282 2.911,-3.594 -0.026,-1.464 -1.531,-4.26 -4.416,-4.458 l -1.391,-1.006 c -0.849,-0.79 -1.271,-1.176 -1.661,-1.598 -0.672,-0.744 -1.443,-1.495 -2.844,-2.864 -2.484,-2.432 -5.902,-4.188 -5.902,-4.188 -0.224,-0.213 -0.489,-0.301 -0.76,-0.312"
     id="path362" />
  <path
     style="fill:#63c99d;fill-opacity:1;fill-rule:nonzero;stroke:none"
     d="m 259.26493,25.355512 -6.146,4.829 c 0.438,0.489 0.87,0.921 1.298,1.323 0.041,0.066 0.077,0.134 0.104,0.202 0.27,0.76 0.864,0.97 1.858,1.271 1.355,0.765 2.699,0.989 4.079,0.48 2.125,-0.792 3.016,-2.172 3.047,-3.491 0.026,-1.452 -1.37,-4.312 -4.24,-4.614"
     id="path363" />
  <path
     style="fill:none;stroke:#231f20;stroke-width:0.565977;stroke-linecap:butt;stroke-linejoin:miter;stroke-miterlimit:4;stroke-dasharray:none;stroke-opacity:1"
     d="m 259.26493,25.355512 -6.146,4.829 c 0.438,0.489 0.87,0.921 1.298,1.323 0.041,0.066 0.077,0.134 0.104,0.202 0.27,0.76 0.864,0.97 1.858,1.271 1.355,0.765 2.699,0.989 4.079,0.48 2.125,-0.792 3.016,-2.172 3.047,-3.491 0.026,-1.452 -1.37,-4.312 -4.24,-4.614 z"
     id="path364" />
  <path
     style="fill:#231f20;fill-opacity:1;fill-rule:nonzero;stroke:none"
     d="m 232.85393,4.360512 c 1.333,-0.218 1.833,0.642 1.651,1.658 -0.052,0.306 0.213,0.624 0.136,0.916 -0.178,0.682 -1.715,1.505 -2.73,0.396 -0.073,-0.079 -0.776,-0.49 -1.261,-0.875 -0.943,-0.771 -2.457,-2.751 -2.077,-5.417 0.177,-1.26600003 0.89,-0.92700003 0.978,-0.39600003 0.26,1.69300003 0.61,1.79200003 0.844,2.21300003 0.776,1.423 2.459,1.505 2.459,1.505"
     id="path365" />
  <path
     style="fill:none;stroke:#231f20;stroke-width:0.332927;stroke-linecap:butt;stroke-linejoin:miter;stroke-miterlimit:4;stroke-dasharray:none;stroke-opacity:1"
     d="m 232.85393,4.360512 c 1.333,-0.218 1.833,0.642 1.651,1.658 -0.052,0.306 0.213,0.624 0.136,0.916 -0.178,0.682 -1.715,1.505 -2.73,0.396 -0.073,-0.079 -0.776,-0.49 -1.261,-0.875 -0.943,-0.771 -2.457,-2.751 -2.077,-5.417 0.177,-1.26600003 0.89,-0.92700003 0.978,-0.39600003 0.26,1.69300003 0.61,1.79200003 0.844,2.21300003 0.776,1.423 2.459,1.505 2.459,1.505 z"
     id="path366" />
  <path
     style="fill:#231f20;fill-opacity:1;fill-rule:nonzero;stroke:none"
     d="m 273.77493,63.231511 c 0.126,1.172 -0.724,2.224 -1.896,2.348 -1.172,0.12 -2.224,-0.728 -2.348,-1.9 -0.12,-1.171999 0.728,-2.223999 1.9,-2.343999 1.172,-0.126 2.224,0.724 2.344,1.895999"
     id="path367" />
  <path
     style="fill:#231f20;fill-opacity:1;fill-rule:nonzero;stroke:none"
     d="m 176.02093,62.084512 c 0,1.182999 -0.953,2.135999 -2.136,2.135999 -1.177,0 -2.131,-0.953 -2.131,-2.135999 0,-1.177 0.954,-2.129 2.131,-2.129 1.183,0 2.136,0.952 2.136,2.129"
     id="path368" />
</svg>
