<?xml version="1.0" encoding="UTF-8" standalone="no"?>
<!-- Created with Inkscape (http://www.inkscape.org/) -->

<svg
   version="1.1"
   id="svg1"
   width="303.6806"
   height="51.357159"
   viewBox="0 0 303.68059 51.357159"
   sodipodi:docname="cell.svg"
   xmlns:inkscape="http://www.inkscape.org/namespaces/inkscape"
   xmlns:sodipodi="http://sodipodi.sourceforge.net/DTD/sodipodi-0.dtd"
   xmlns="http://www.w3.org/2000/svg"
   xmlns:svg="http://www.w3.org/2000/svg">
  <sodipodi:namedview
     id="namedview1"
     pagecolor="#ffffff"
     bordercolor="#000000"
     borderopacity="0.25"
     inkscape:showpageshadow="2"
     inkscape:pageopacity="0.0"
     inkscape:pagecheckerboard="0"
     inkscape:deskcolor="#d1d1d1">
    <inkscape:page
       x="0"
       y="0"
       inkscape:label="1"
       id="page1"
       width="303.6806"
       height="51.357159"
       margin="0"
       bleed="0" />
  </sodipodi:namedview>
  <defs
     id="defs1" />
  <path
     style="fill:#231f20;fill-opacity:1;fill-rule:nonzero;stroke:none"
     d="m 201.42093,24.064218 c 0.312,-0.536 1.635,-0.244 2.99,-1.208 0.281,-0.197 0.568,-0.197 0.854,-0.265 1.146,-0.256 2.235,0.286 0.006,2.89 -0.314,0.359 -1.855,1.088 -2.282,1.662 -1.005,1.364 -3.542,1.541 -3.614,1.073 -0.167,-1.011 2.046,-4.152 2.046,-4.152"
     id="path454" />
  <path
     style="fill:none;stroke:#231f20;stroke-width:0.546001;stroke-linecap:round;stroke-linejoin:round;stroke-miterlimit:4;stroke-dasharray:none;stroke-opacity:1"
     d="m 201.42093,24.064218 c 0.312,-0.536 1.635,-0.244 2.99,-1.208 0.281,-0.197 0.568,-0.197 0.854,-0.265 1.146,-0.256 2.235,0.286 0.006,2.89 -0.314,0.359 -1.855,1.088 -2.282,1.662 -1.005,1.364 -3.542,1.541 -3.614,1.073 -0.167,-1.011 2.046,-4.152 2.046,-4.152 z"
     id="path455" />
  <path
     style="fill:#231f20;fill-opacity:1;fill-rule:nonzero;stroke:none"
     d="m 210.19193,6.372218 c -0.76,1.296 -3.312,9.391 -3.312,9.391 0.063,1.208 2.995,1.984 2.995,1.984 1.738,-0.834 8.604,-8.9537 8.65,-10.407 0.052,-1.452 -4.202,-3.796 -5.385,-3.3747 -1.188,0.4214 -2.948,2.4067 -2.948,2.4067"
     id="path456" />
  <path
     style="fill:none;stroke:#231f20;stroke-width:0.565977;stroke-linecap:butt;stroke-linejoin:miter;stroke-miterlimit:4;stroke-dasharray:none;stroke-opacity:1"
     d="m 210.19193,6.372218 c -0.76,1.296 -3.312,9.391 -3.312,9.391 0.063,1.208 2.995,1.984 2.995,1.984 1.738,-0.834 8.604,-8.9537 8.65,-10.407 0.052,-1.452 -4.202,-3.796 -5.385,-3.3747 -1.188,0.4214 -2.948,2.4067 -2.948,2.4067 z"
     id="path457" />
  <path
     style="fill:#231f20;fill-opacity:1;fill-rule:nonzero;stroke:none"
     d="m 207.43193,15.903218 c -0.568,-0.187 -0.1,-1.1617 -1.177,0.432 -1.188,1.761 -2.938,6.354 -2.714,7.401 0.219,1.052 0.49,0.943 1.334,0.937 0.838,-0.009 3.604,-3.672 4.401,-3.869 0.801,-0.197 0.916,-2.552 0.744,-3.203 -0.172,-0.652 -2.588,-1.698 -2.588,-1.698"
     id="path458" />
  <path
     style="fill:none;stroke:#231f20;stroke-width:0.565977;stroke-linecap:butt;stroke-linejoin:miter;stroke-miterlimit:4;stroke-dasharray:none;stroke-opacity:1"
     d="m 207.43193,15.903218 c -0.568,-0.187 -0.1,-1.1617 -1.177,0.432 -1.188,1.761 -2.938,6.354 -2.714,7.401 0.219,1.052 0.49,0.943 1.334,0.937 0.838,-0.009 3.604,-3.672 4.401,-3.869 0.801,-0.197 0.916,-2.552 0.744,-3.203 -0.172,-0.652 -2.588,-1.698 -2.588,-1.698 z"
     id="path459" />
  <path
     style="fill:#63c99d;fill-opacity:1;fill-rule:nonzero;stroke:none"
     d="m 207.02493,0.59621803 c 3.495,-0.3707 4.47,-0.2867 5.61,-0.308 5.776,-0.0933 6.198,1.13069997 6.338,3.52129997 0.198,3.3907 -0.016,5.26 -6.308,5.0254 -4.776,-0.1814 -8.342,0.3706 -8.342,0.3706 -1.71,0.7707 -5.298,0.8534 -6.043,0.328 -1.255,-0.8853 -0.989,-0.7506 -1.656,-2.036 -1.234,-2.3706 -0.562,-3.3653 0.365,-4.1053 0.932,-0.7387 1.911,-1.072 4.651,-1.7187 2.12,-0.5 5.385,-1.07729997 5.385,-1.07729997"
     id="path460" />
  <path
     style="fill:none;stroke:#231f20;stroke-width:0.565977;stroke-linecap:butt;stroke-linejoin:miter;stroke-miterlimit:4;stroke-dasharray:none;stroke-opacity:1"
     d="m 207.02493,0.59621803 c 3.495,-0.3707 4.47,-0.2867 5.61,-0.308 5.776,-0.0933 6.198,1.13069997 6.338,3.52129997 0.198,3.3907 -0.016,5.26 -6.308,5.0254 -4.776,-0.1814 -8.342,0.3706 -8.342,0.3706 -1.71,0.7707 -5.298,0.8534 -6.043,0.328 -1.255,-0.8853 -0.989,-0.7506 -1.656,-2.036 -1.234,-2.3706 -0.562,-3.3653 0.365,-4.1053 0.932,-0.7387 1.911,-1.072 4.651,-1.7187 2.12,-0.5 5.385,-1.07729997 5.385,-1.07729997 z"
     id="path461" />
  <path
     style="fill:#ffffff;fill-opacity:1;fill-rule:nonzero;stroke:none"
     d="m 188.59393,8.340218 c -0.23,-0.0933 -0.918,0.828 -1.36,0.548 -0.443,-0.2813 -0.198,-1.0373 -1.255,-2.72 l -0.011,-0.0147 c -0.817,-1.204 -1.036,-2.5786 -0.453,-3.688 0.98,-1.83329997 3.792,-2.24399997 6.281,-0.932 2.5,1.328 3.73,3.8907 2.76,5.724 -0.926,1.7547 -3.552,2.2134 -5.962,1.0827"
     id="path462" />
  <path
     style="fill:none;stroke:#231f20;stroke-width:0.565977;stroke-linecap:butt;stroke-linejoin:miter;stroke-miterlimit:4;stroke-dasharray:none;stroke-opacity:1"
     d="m 188.59393,8.340218 c -0.23,-0.0933 -0.918,0.828 -1.36,0.548 -0.443,-0.2813 -0.198,-1.0373 -1.255,-2.72 l -0.011,-0.0147 c -0.817,-1.204 -1.036,-2.5786 -0.453,-3.688 0.98,-1.83329997 3.792,-2.24399997 6.281,-0.932 2.5,1.328 3.73,3.8907 2.76,5.724 -0.926,1.7547 -3.552,2.2134 -5.962,1.0827 z"
     id="path463" />
  <path
     style="fill:#231f20;fill-opacity:1;fill-rule:nonzero;stroke:none"
     d="m 198.24893,24.069218 c 0.547,-0.328 1.172,-2.177 2.23,-3.39 0.708,-0.818 1.51,-3.438 2.286,-4.198 0.703,-0.704 0.963,-1.089 0.307,-2.0317 -0.385,-0.5613 -1.505,-1.3853 -1.937,-1.1093 -1.006,0.6306 -1.547,1.4066 -1.959,2.396 -0.468,1.125 -1.473,4.276 -1.604,4.875 -0.317,1.49 -0.885,1.958 -1.016,2.344 -0.224,0.724 0,0.989 0.433,1.245 0.834,0.479 1.26,-0.131 1.26,-0.131"
     id="path464" />
  <path
     style="fill:none;stroke:#231f20;stroke-width:0.565977;stroke-linecap:butt;stroke-linejoin:miter;stroke-miterlimit:4;stroke-dasharray:none;stroke-opacity:1"
     d="m 198.24893,24.069218 c 0.547,-0.328 1.172,-2.177 2.23,-3.39 0.708,-0.818 1.51,-3.438 2.286,-4.198 0.703,-0.704 0.963,-1.089 0.307,-2.0317 -0.385,-0.5613 -1.505,-1.3853 -1.937,-1.1093 -1.006,0.6306 -1.547,1.4066 -1.959,2.396 -0.468,1.125 -1.473,4.276 -1.604,4.875 -0.317,1.49 -0.885,1.958 -1.016,2.344 -0.224,0.724 0,0.989 0.433,1.245 0.834,0.479 1.26,-0.131 1.26,-0.131 z"
     id="path465" />
  <path
     style="fill:#231f20;fill-opacity:1;fill-rule:nonzero;stroke:none"
     d="m 202.62393,16.471218 c 1.245,-0.35 0.349,-2.1777 0.183,-2.6884 -0.162,-0.52 -0.459,-2.0466 -0.536,-3.2706 -0.079,-1.224 -0.699,-2.7133 -0.855,-5.0307 -0.079,-1.224 -0.932,-2.36 -2.697,-2.1666 -1.746,0.192 -2.292,1.244 -1.975,2.708 0.317,1.464 1.24,2.7026 1.667,4.1453 0.426,1.4533 0.729,2.9746 0.906,4.1773 0.203,1.3657 0.807,1.9697 1.266,2.0837 1.161,0.302 2.041,0.042 2.041,0.042"
     id="path466" />
  <path
     style="fill:none;stroke:#231f20;stroke-width:0.565977;stroke-linecap:butt;stroke-linejoin:miter;stroke-miterlimit:4;stroke-dasharray:none;stroke-opacity:1"
     d="m 202.62393,16.471218 c 1.245,-0.35 0.349,-2.1777 0.183,-2.6884 -0.162,-0.52 -0.459,-2.0466 -0.536,-3.2706 -0.079,-1.224 -0.699,-2.7133 -0.855,-5.0307 -0.079,-1.224 -0.932,-2.36 -2.697,-2.1666 -1.746,0.192 -2.292,1.244 -1.975,2.708 0.317,1.464 1.24,2.7026 1.667,4.1453 0.426,1.4533 0.729,2.9746 0.906,4.1773 0.203,1.3657 0.807,1.9697 1.266,2.0837 1.161,0.302 2.041,0.042 2.041,0.042 z"
     id="path467" />
  <path
     style="fill:#231f20;fill-opacity:1;fill-rule:nonzero;stroke:none"
     d="m 212.98893,30.059218 c 0.359,-0.567 -0.781,-1.452 -0.625,-3.094 0.031,-0.338 -0.145,-0.568 -0.255,-0.833 -0.458,-1.063 -1.714,-1.62 -3.037,1.672 -0.183,0.459 0.021,2.115 -0.307,2.787 -0.797,1.593 0.62,3.713 1.156,3.505 1.167,-0.453 3.068,-4.037 3.068,-4.037"
     id="path468" />
  <path
     style="fill:none;stroke:#231f20;stroke-width:0.599269;stroke-linecap:round;stroke-linejoin:round;stroke-miterlimit:4;stroke-dasharray:none;stroke-opacity:1"
     d="m 212.98893,30.059218 c 0.359,-0.567 -0.781,-1.452 -0.625,-3.094 0.031,-0.338 -0.145,-0.568 -0.255,-0.833 -0.458,-1.063 -1.714,-1.62 -3.037,1.672 -0.183,0.459 0.021,2.115 -0.307,2.787 -0.797,1.593 0.62,3.713 1.156,3.505 1.167,-0.453 3.068,-4.037 3.068,-4.037 z"
     id="path469" />
  <path
     style="fill:#231f20;fill-opacity:1;fill-rule:nonzero;stroke:none"
     d="m 209.80693,9.205518 c -0.194,1.4947 0.614,9.9427 0.614,9.9427 0.531,1.088 3.536,0.656 3.536,0.656 1.271,-1.448 4.423,-11.604 3.902,-12.9587 -0.527,-1.3586 -5.359,-1.8586 -6.287,-1.0053 -0.921,0.8493 -1.765,3.3653 -1.765,3.3653"
     id="path470" />
  <path
     style="fill:none;stroke:#231f20;stroke-width:0.565977;stroke-linecap:butt;stroke-linejoin:miter;stroke-miterlimit:4;stroke-dasharray:none;stroke-opacity:1"
     d="m 209.80693,9.205518 c -0.194,1.4947 0.614,9.9427 0.614,9.9427 0.531,1.088 3.536,0.656 3.536,0.656 1.271,-1.448 4.423,-11.604 3.902,-12.9587 -0.527,-1.3586 -5.359,-1.8586 -6.287,-1.0053 -0.921,0.8493 -1.765,3.3653 -1.765,3.3653 z"
     id="path471" />
  <path
     style="fill:#231f20;fill-opacity:1;fill-rule:nonzero;stroke:none"
     d="m 210.98893,19.059218 c -0.6,0.052 -0.552,-1.026 -0.917,0.854 -0.407,2.088 -0.219,7 0.396,7.88 0.609,0.88 0.823,0.672 1.588,0.339 0.777,-0.339 1.887,-4.787 2.548,-5.281 0.656,-0.495 -0.157,-2.714 -0.573,-3.244 -0.412,-0.527 -3.042,-0.548 -3.042,-0.548"
     id="path472" />
  <path
     style="fill:none;stroke:#231f20;stroke-width:0.565977;stroke-linecap:butt;stroke-linejoin:miter;stroke-miterlimit:4;stroke-dasharray:none;stroke-opacity:1"
     d="m 210.98893,19.059218 c -0.6,0.052 -0.552,-1.026 -0.917,0.854 -0.407,2.088 -0.219,7 0.396,7.88 0.609,0.88 0.823,0.672 1.588,0.339 0.777,-0.339 1.887,-4.787 2.548,-5.281 0.656,-0.495 -0.157,-2.714 -0.573,-3.244 -0.412,-0.527 -3.042,-0.548 -3.042,-0.548 z"
     id="path473" />
  <path
     style="fill:#63c99d;fill-opacity:1;fill-rule:nonzero;stroke:none"
     d="m 218.66493,2.164218 c -0.776,-1.0627 -2.29,-1.68269997 -4.489,-1.12 -2.563,0.6613 -3.703,3.1453 -4.156,6.88 l 8.036,0.516 c 2.355,-2.72 1.469,-5.0947 0.609,-6.276"
     id="path474" />
  <path
     style="fill:none;stroke:#231f20;stroke-width:0.565977;stroke-linecap:butt;stroke-linejoin:miter;stroke-miterlimit:4;stroke-dasharray:none;stroke-opacity:1"
     d="m 218.66493,2.164218 c -0.776,-1.0627 -2.29,-1.68269997 -4.489,-1.12 -2.563,0.6613 -3.703,3.1453 -4.156,6.88 l 8.036,0.516 c 2.355,-2.72 1.469,-5.0947 0.609,-6.276 z"
     id="path475" />
  <path
     style="fill:#231f20;fill-opacity:1;fill-rule:nonzero;stroke:none"
     d="m 143.15093,16.783218 c 0.531,0.313 0.239,1.636 1.203,2.99 0.198,0.28 0.202,0.567 0.265,0.854 0.256,1.146 -0.287,2.234 -2.891,0.005 -0.358,-0.312 -1.088,-1.855 -1.661,-2.281 -1.359,-1.006 -1.536,-3.5417 -1.068,-3.615 1.005,-0.1667 4.152,2.047 4.152,2.047"
     id="path476" />
  <path
     style="fill:none;stroke:#231f20;stroke-width:0.546001;stroke-linecap:round;stroke-linejoin:round;stroke-miterlimit:4;stroke-dasharray:none;stroke-opacity:1"
     d="m 143.15093,16.783218 c 0.531,0.313 0.239,1.636 1.203,2.99 0.198,0.28 0.202,0.567 0.265,0.854 0.256,1.146 -0.287,2.234 -2.891,0.005 -0.358,-0.312 -1.088,-1.855 -1.661,-2.281 -1.359,-1.006 -1.536,-3.5417 -1.068,-3.615 1.005,-0.1667 4.152,2.047 4.152,2.047 z"
     id="path477" />
  <path
     style="fill:#ffffff;fill-opacity:1;fill-rule:nonzero;stroke:none"
     d="m 151.30693,22.793218 c 0.188,-0.572 1.161,-0.104 -0.427,-1.177 -1.761,-1.187 -6.354,-2.932 -7.406,-2.713 -1.052,0.218 -0.943,0.489 -0.932,1.333 0.005,0.844 3.666,3.604 3.864,4.401 0.198,0.798 2.557,0.918 3.208,0.746 0.652,-0.172 1.693,-2.59 1.693,-2.59"
     id="path478" />
  <path
     style="fill:none;stroke:#231f20;stroke-width:0.565977;stroke-linecap:butt;stroke-linejoin:miter;stroke-miterlimit:4;stroke-dasharray:none;stroke-opacity:1"
     d="m 151.30693,22.793218 c 0.188,-0.572 1.161,-0.104 -0.427,-1.177 -1.761,-1.187 -6.354,-2.932 -7.406,-2.713 -1.052,0.218 -0.943,0.489 -0.932,1.333 0.005,0.844 3.666,3.604 3.864,4.401 0.198,0.798 2.557,0.918 3.208,0.746 0.652,-0.172 1.693,-2.59 1.693,-2.59 z"
     id="path479" />
  <path
     style="fill:#ffffff;fill-opacity:1;fill-rule:nonzero;stroke:#231f20;stroke-width:0.565977;stroke-linecap:round;stroke-linejoin:round;stroke-miterlimit:4;stroke-dasharray:none;stroke-opacity:1"
     d="m 149.61893,24.725218 c -0.099,0.308 -0.156,0.511 -0.156,0.511 0.839,1.74 8.953,8.604 10.412,8.652 1.448,0.052 3.796,-4.204 3.375,-5.391 -0.422,-1.177 -2.412,-2.938 -2.412,-2.938 -1.296,-0.766 -9.391,-3.318 -9.391,-3.318 -0.181,0.011 -0.359,0.084 -0.525,0.214"
     id="path480" />
  <path
     style="fill:#63c99d;fill-opacity:1;fill-rule:nonzero;stroke:none"
     d="m 162.57793,21.075218 c 2.021,2.869 2.421,3.76 2.989,4.75 2.896,5.006 2.027,5.963 0.005,7.25 -2.858,1.822 -4.604,2.541 -7.453,-3.068 -2.161,-4.26 -4.38,-7.115 -4.38,-7.115 -1.505,-1.115 -3.317,-4.213 -3.224,-5.119 0.161,-1.526 0.177,-1.224 0.975,-2.438 1.473,-2.2284 2.661,-2.1244 3.765,-1.671 1.099,0.452 1.864,1.1506 3.755,3.224 1.474,1.613 3.568,4.187 3.568,4.187"
     id="path481" />
  <path
     style="fill:none;stroke:#231f20;stroke-width:0.565977;stroke-linecap:butt;stroke-linejoin:miter;stroke-miterlimit:4;stroke-dasharray:none;stroke-opacity:1"
     d="m 162.57793,21.075218 c 2.021,2.869 2.421,3.76 2.989,4.75 2.896,5.006 2.027,5.963 0.005,7.25 -2.858,1.822 -4.604,2.541 -7.453,-3.068 -2.161,-4.26 -4.38,-7.115 -4.38,-7.115 -1.505,-1.115 -3.317,-4.213 -3.224,-5.119 0.161,-1.526 0.177,-1.224 0.975,-2.438 1.473,-2.2284 2.661,-2.1244 3.765,-1.671 1.099,0.452 1.864,1.1506 3.755,3.224 1.474,1.613 3.568,4.187 3.568,4.187 z"
     id="path482" />
  <path
     style="fill:#ffffff;fill-opacity:1;fill-rule:nonzero;stroke:none"
     d="m 145.93193,11.673518 c -0.193,-0.1507 -1.114,0.5427 -1.458,0.152 -0.35,-0.396 0.098,-1.052 -0.454,-2.9586 l -0.005,-0.0267 c -0.448,-1.38 -0.281,-2.76 0.589,-3.6613 1.443,-1.4947 4.26,-1.1094 6.286,0.844 2.042,1.9693 2.51,4.7706 1.073,6.2599 -1.38,1.4334 -4.025,1.1414 -6.031,-0.6093"
     id="path483" />
  <path
     style="fill:none;stroke:#231f20;stroke-width:0.565977;stroke-linecap:butt;stroke-linejoin:miter;stroke-miterlimit:4;stroke-dasharray:none;stroke-opacity:1"
     d="m 145.93193,11.673518 c -0.193,-0.1507 -1.114,0.5427 -1.458,0.152 -0.35,-0.396 0.098,-1.052 -0.454,-2.9586 l -0.005,-0.0267 c -0.448,-1.38 -0.281,-2.76 0.589,-3.6613 1.443,-1.4947 4.26,-1.1094 6.286,0.844 2.042,1.9693 2.51,4.7706 1.073,6.2599 -1.38,1.4334 -4.025,1.1414 -6.031,-0.6093 z"
     id="path484" />
  <path
     style="fill:#231f20;fill-opacity:1;fill-rule:nonzero;stroke:none"
     d="m 141.29093,29.419218 c 0.625,0.136 2.344,-0.798 3.937,-0.97 1.084,-0.114 3.454,-1.494 4.538,-1.525 0.994,-0.036 1.448,-0.141 1.604,-1.281 0.098,-0.672 -0.162,-2.036 -0.662,-2.131 -1.172,-0.219 -2.098,-0.015 -3.068,0.423 -1.109,0.509 -3.989,2.14 -4.494,2.489 -1.24,0.875 -1.979,0.833 -2.334,1.031 -0.656,0.38 -0.677,0.718 -0.532,1.204 0.287,0.921 1.011,0.76 1.011,0.76"
     id="path485" />
  <path
     style="fill:none;stroke:#231f20;stroke-width:0.565977;stroke-linecap:butt;stroke-linejoin:miter;stroke-miterlimit:4;stroke-dasharray:none;stroke-opacity:1"
     d="m 141.29093,29.419218 c 0.625,0.136 2.344,-0.798 3.937,-0.97 1.084,-0.114 3.454,-1.494 4.538,-1.525 0.994,-0.036 1.448,-0.141 1.604,-1.281 0.098,-0.672 -0.162,-2.036 -0.662,-2.131 -1.172,-0.219 -2.098,-0.015 -3.068,0.423 -1.109,0.509 -3.989,2.14 -4.494,2.489 -1.24,0.875 -1.979,0.833 -2.334,1.031 -0.656,0.38 -0.677,0.718 -0.532,1.204 0.287,0.921 1.011,0.76 1.011,0.76 z"
     id="path486" />
  <path
     style="fill:#231f20;fill-opacity:1;fill-rule:nonzero;stroke:none"
     d="m 149.66593,26.820218 c 1.152,0.593 1.74,-1.36 1.964,-1.849 0.234,-0.49 1.057,-1.812 1.828,-2.76 0.776,-0.954 1.333,-2.464 2.797,-4.276 0.771,-0.948 0.916,-2.36 -0.505,-3.4177 -1.412,-1.0467 -2.531,-0.6453 -3.292,0.6467 -0.76,1.285 -0.927,2.823 -1.599,4.171 -0.672,1.354 -1.484,2.672 -2.172,3.677 -0.781,1.141 -0.744,1.989 -0.489,2.391 0.65,1.01 1.468,1.417 1.468,1.417"
     id="path487" />
  <path
     style="fill:none;stroke:#231f20;stroke-width:0.565977;stroke-linecap:butt;stroke-linejoin:miter;stroke-miterlimit:4;stroke-dasharray:none;stroke-opacity:1"
     d="m 149.66593,26.820218 c 1.152,0.593 1.74,-1.36 1.964,-1.849 0.234,-0.49 1.057,-1.812 1.828,-2.76 0.776,-0.954 1.333,-2.464 2.797,-4.276 0.771,-0.948 0.916,-2.36 -0.505,-3.4177 -1.412,-1.0467 -2.531,-0.6453 -3.292,0.6467 -0.76,1.285 -0.927,2.823 -1.599,4.171 -0.672,1.354 -1.484,2.672 -2.172,3.677 -0.781,1.141 -0.744,1.989 -0.489,2.391 0.65,1.01 1.468,1.417 1.468,1.417 z"
     id="path488" />
  <path
     style="fill:#231f20;fill-opacity:1;fill-rule:nonzero;stroke:none"
     d="m 134.45193,28.668218 c 0.642,-0.353 3.85,-0.859 4.59,-0.943 0.656,-0.077 1.713,-0.557 2.317,0.423 0.255,0.391 0.339,1.145 0.287,1.463 -0.042,0.256 -0.339,0.396 -0.735,0.401 -0.667,0.016 -0.864,-0.244 -2.14,-0.287 0,0 -0.303,-0.057 -0.828,-0.202 -1.584,-0.386 -0.855,-0.359 -3.277,-0.422 -0.166,-0.005 -0.286,-0.177 -0.28,-0.297 0.025,-0.183 0.066,-0.136 0.066,-0.136"
     id="path489" />
  <path
     style="fill:none;stroke:#231f20;stroke-width:0.565977;stroke-linecap:round;stroke-linejoin:round;stroke-miterlimit:4;stroke-dasharray:none;stroke-opacity:1"
     d="m 134.45193,28.668218 c 0.642,-0.353 3.85,-0.859 4.59,-0.943 0.656,-0.077 1.713,-0.557 2.317,0.423 0.255,0.391 0.339,1.145 0.287,1.463 -0.042,0.256 -0.339,0.396 -0.735,0.401 -0.667,0.016 -0.864,-0.244 -2.14,-0.287 0,0 -0.303,-0.057 -0.828,-0.202 -1.584,-0.386 -0.855,-0.359 -3.277,-0.422 -0.166,-0.005 -0.286,-0.177 -0.28,-0.297 0.025,-0.183 0.066,-0.136 0.066,-0.136 z"
     id="path490" />
  <path
     style="fill:#231f20;fill-opacity:1;fill-rule:nonzero;stroke:none"
     d="m 193.39493,28.908218 c 0.095,-0.724 1.589,-3.609 1.964,-4.255 0.328,-0.573 0.563,-1.709 1.708,-1.614 0.469,0.025 1.125,0.405 1.349,0.634 0.183,0.188 0.115,0.506 -0.115,0.828 -0.38,0.548 -0.702,0.552 -1.494,1.552 0,0 -0.23,0.215 -0.656,0.554 -1.251,1.046 -0.792,0.473 -2.281,2.385 -0.104,0.135 -0.314,0.124 -0.407,0.052 -0.131,-0.125 -0.068,-0.136 -0.068,-0.136"
     id="path491" />
  <path
     style="fill:none;stroke:#231f20;stroke-width:0.565977;stroke-linecap:round;stroke-linejoin:round;stroke-miterlimit:4;stroke-dasharray:none;stroke-opacity:1"
     d="m 193.39493,28.908218 c 0.095,-0.724 1.589,-3.609 1.964,-4.255 0.328,-0.573 0.563,-1.709 1.708,-1.614 0.469,0.025 1.125,0.405 1.349,0.634 0.183,0.188 0.115,0.506 -0.115,0.828 -0.38,0.548 -0.702,0.552 -1.494,1.552 0,0 -0.23,0.215 -0.656,0.554 -1.251,1.046 -0.792,0.473 -2.281,2.385 -0.104,0.135 -0.314,0.124 -0.407,0.052 -0.131,-0.125 -0.068,-0.136 -0.068,-0.136 z"
     id="path492" />
  <path
     style="fill:#231f20;fill-opacity:1;fill-rule:nonzero;stroke:none"
     d="m 138.05593,35.544218 c 0.652,0.172 1.147,-1.183 2.762,-1.532 0.328,-0.072 0.494,-0.312 0.713,-0.495 0.875,-0.76 1.031,-2.125 -2.511,-2.39 -0.489,-0.036 -2.005,0.661 -2.749,0.546 -1.756,-0.276 -3.355,1.719 -2.991,2.167 0.787,0.975 4.776,1.704 4.776,1.704"
     id="path493" />
  <path
     style="fill:none;stroke:#231f20;stroke-width:0.599269;stroke-linecap:round;stroke-linejoin:round;stroke-miterlimit:4;stroke-dasharray:none;stroke-opacity:1"
     d="m 138.05593,35.544218 c 0.652,0.172 1.147,-1.183 2.762,-1.532 0.328,-0.072 0.494,-0.312 0.713,-0.495 0.875,-0.76 1.031,-2.125 -2.511,-2.39 -0.489,-0.036 -2.005,0.661 -2.749,0.546 -1.756,-0.276 -3.355,1.719 -2.991,2.167 0.787,0.975 4.776,1.704 4.776,1.704 z"
     id="path494" />
  <path
     style="fill:#231f20;fill-opacity:1;fill-rule:nonzero;stroke:none"
     d="m 156.96793,26.200218 c -1.478,0.265 -9.286,3.593 -9.286,3.593 -0.88,0.834 0.442,3.568 0.442,3.568 1.766,0.776 12.396,0.698 13.532,-0.202 1.135,-0.912 0.151,-5.667 -0.942,-6.292 -1.09,-0.626 -3.746,-0.667 -3.746,-0.667"
     id="path495" />
  <path
     style="fill:none;stroke:#231f20;stroke-width:0.565977;stroke-linecap:butt;stroke-linejoin:miter;stroke-miterlimit:4;stroke-dasharray:none;stroke-opacity:1"
     d="m 156.96793,26.200218 c -1.478,0.265 -9.286,3.593 -9.286,3.593 -0.88,0.834 0.442,3.568 0.442,3.568 1.766,0.776 12.396,0.698 13.532,-0.202 1.135,-0.912 0.151,-5.667 -0.942,-6.292 -1.09,-0.626 -3.746,-0.667 -3.746,-0.667 z"
     id="path496" />
  <path
     style="fill:#231f20;fill-opacity:1;fill-rule:nonzero;stroke:none"
     d="m 147.93793,30.304218 c -0.235,-0.547 0.812,-0.828 -1.095,-0.609 -2.109,0.245 -6.733,1.906 -7.391,2.754 -0.65,0.855 -0.396,0.991 0.158,1.626 0.557,0.63 5.134,0.344 5.806,0.822 0.667,0.48 2.536,-0.968 2.916,-1.52 0.382,-0.557 -0.394,-3.073 -0.394,-3.073"
     id="path497" />
  <path
     style="fill:none;stroke:#231f20;stroke-width:0.565977;stroke-linecap:butt;stroke-linejoin:miter;stroke-miterlimit:4;stroke-dasharray:none;stroke-opacity:1"
     d="m 147.93793,30.304218 c -0.235,-0.547 0.812,-0.828 -1.095,-0.609 -2.109,0.245 -6.733,1.906 -7.391,2.754 -0.65,0.855 -0.396,0.991 0.158,1.626 0.557,0.63 5.134,0.344 5.806,0.822 0.667,0.48 2.536,-0.968 2.916,-1.52 0.382,-0.557 -0.394,-3.073 -0.394,-3.073 z"
     id="path498" />
  <path
     style="fill:#63c99d;fill-opacity:1;fill-rule:nonzero;stroke:none"
     d="m 166.07193,27.892218 c -1.406,-2.239 -4.114,-2.577 -7.817,-1.88 l 1.943,7.819 c 3.302,1.421 5.297,-0.142 6.166,-1.314 0.771,-1.062 0.907,-2.702 -0.292,-4.625"
     id="path499" />
  <path
     style="fill:none;stroke:#231f20;stroke-width:0.565977;stroke-linecap:butt;stroke-linejoin:miter;stroke-miterlimit:4;stroke-dasharray:none;stroke-opacity:1"
     d="m 166.07193,27.892218 c -1.406,-2.239 -4.114,-2.577 -7.817,-1.88 l 1.943,7.819 c 3.302,1.421 5.297,-0.142 6.166,-1.314 0.771,-1.062 0.907,-2.702 -0.292,-4.625 z"
     id="path500" />
  <path
     style="fill:#ffffff;fill-opacity:1;fill-rule:nonzero;stroke:none"
     d="m 0.33292755,42.935218 c 0,0.681 0.553,1.238 1.24000005,1.238 H 258.98893 c 0.687,0 1.239,-0.557 1.239,-1.238 0,-0.688 -0.552,-1.24 -1.239,-1.24 H 1.5729276 c -0.68700005,0 -1.24000005,0.552 -1.24000005,1.24"
     id="path501" />
  <path
     style="fill:none;stroke:#231f20;stroke-width:0.665856;stroke-linecap:butt;stroke-linejoin:miter;stroke-miterlimit:4;stroke-dasharray:none;stroke-opacity:1"
     d="m 0.33292755,42.935218 c 0,0.681 0.553,1.238 1.24000005,1.238 H 258.98893 c 0.687,0 1.239,-0.557 1.239,-1.238 0,-0.688 -0.552,-1.24 -1.239,-1.24 H 1.5729276 c -0.68700005,0 -1.24000005,0.552 -1.24000005,1.24 z"
     id="path502" />
  <path
     style="fill:#63c99d;fill-opacity:1;fill-rule:nonzero;stroke:none"
     d="m 256.90493,21.455218 c 2.912,1.161 3.662,1.094 4.584,1.073 5.776,-0.131 5.734,2.708 4.192,5.145 -1.796,2.876 -2.396,3.938 -7.989,1.058 -1.557,-0.807 -7.921,-3.104 -7.921,-3.104 -2.402,-0.511 -4.459,-2.292 -4.772,-3.714 -0.323,-1.5 -0.088,-0.932 -0.135,-2.374 -0.047,-1.375 0.989,-3.292 2.203,-3.552 1.156,-0.24 2.292,0.984 4.152,2.541 1.462,1.224 5.686,2.927 5.686,2.927"
     id="path503" />
  <path
     style="fill:none;stroke:#231f20;stroke-width:0.565977;stroke-linecap:butt;stroke-linejoin:miter;stroke-miterlimit:4;stroke-dasharray:none;stroke-opacity:1"
     d="m 256.90493,21.455218 c 2.912,1.161 3.662,1.094 4.584,1.073 5.776,-0.131 5.734,2.708 4.192,5.145 -1.796,2.876 -2.396,3.938 -7.989,1.058 -1.557,-0.807 -7.921,-3.104 -7.921,-3.104 -2.402,-0.511 -4.459,-2.292 -4.772,-3.714 -0.323,-1.5 -0.088,-0.932 -0.135,-2.374 -0.047,-1.375 0.989,-3.292 2.203,-3.552 1.156,-0.24 2.292,0.984 4.152,2.541 1.462,1.224 5.686,2.927 5.686,2.927 z"
     id="path504" />
  <path
     style="fill:#ffffff;fill-opacity:1;fill-rule:nonzero;stroke:none"
     d="m 238.50893,13.637518 c -0.062,-0.2347 -1.213,-0.2347 -1.254,-0.7547 -0.042,-0.532 0.713,-0.776 1.426,-2.6359 l 0.006,-0.0214 c 0.48,-1.3746 1.442,-2.3746 2.682,-2.5666 2.052,-0.3187 4.074,1.6866 4.506,4.4733 0.432,2.7973 -0.88,5.312 -2.928,5.636 -1.963,0.307 -3.906,-1.527 -4.438,-4.1307"
     id="path505" />
  <path
     style="fill:none;stroke:#231f20;stroke-width:0.565977;stroke-linecap:butt;stroke-linejoin:miter;stroke-miterlimit:4;stroke-dasharray:none;stroke-opacity:1"
     d="m 238.50893,13.637518 c -0.062,-0.2347 -1.213,-0.2347 -1.254,-0.7547 -0.042,-0.532 0.713,-0.776 1.426,-2.6359 l 0.006,-0.0214 c 0.48,-1.3746 1.442,-2.3746 2.682,-2.5666 2.052,-0.3187 4.074,1.6866 4.506,4.4733 0.432,2.7973 -0.88,5.312 -2.928,5.636 -1.963,0.307 -3.906,-1.527 -4.438,-4.1307 z"
     id="path506" />
  <path
     style="fill:#231f20;fill-opacity:1;fill-rule:nonzero;stroke:none"
     d="m 251.97893,40.987218 c 0.286,-0.574 -0.183,-2.464 0.057,-4.052 0.161,-1.079 -0.579,-3.719 -0.333,-4.776 0.218,-0.97 0.229,-1.434 -0.834,-1.876 -0.63,-0.26 -2.016,-0.359 -2.234,0.104 -0.506,1.078 -0.542,2.026 -0.355,3.078 0.204,1.199 1.057,4.396 1.272,4.97 0.525,1.426 0.301,2.129 0.405,2.52 0.199,0.734 0.527,0.838 1.027,0.822 0.963,-0.046 0.995,-0.79 0.995,-0.79"
     id="path507" />
  <path
     style="fill:none;stroke:#231f20;stroke-width:0.565977;stroke-linecap:butt;stroke-linejoin:miter;stroke-miterlimit:4;stroke-dasharray:none;stroke-opacity:1"
     d="m 251.97893,40.987218 c 0.286,-0.574 -0.183,-2.464 0.057,-4.052 0.161,-1.079 -0.579,-3.719 -0.333,-4.776 0.218,-0.97 0.229,-1.434 -0.834,-1.876 -0.63,-0.26 -2.016,-0.359 -2.234,0.104 -0.506,1.078 -0.542,2.026 -0.355,3.078 0.204,1.199 1.057,4.396 1.272,4.97 0.525,1.426 0.301,2.129 0.405,2.52 0.199,0.734 0.527,0.838 1.027,0.822 0.963,-0.046 0.995,-0.79 0.995,-0.79 z"
     id="path508" />
  <path
     style="fill:#231f20;fill-opacity:1;fill-rule:nonzero;stroke:none"
     d="m 251.05193,31.976218 c 1.271,-0.276 0.484,-2.156 0.353,-2.672 -0.134,-0.531 -0.333,-2.079 -0.338,-3.297 -0.006,-1.23 -0.531,-2.75 -0.542,-5.078 0,-1.224 -0.781,-2.412 -2.557,-2.328 -1.755,0.088 -2.369,1.104 -2.14,2.583 0.228,1.475 1.072,2.771 1.411,4.245 0.333,1.468 0.541,3.006 0.641,4.214 0.119,1.374 0.687,2.016 1.145,2.161 1.136,0.375 2.027,0.172 2.027,0.172"
     id="path509" />
  <path
     style="fill:none;stroke:#231f20;stroke-width:0.565977;stroke-linecap:butt;stroke-linejoin:miter;stroke-miterlimit:4;stroke-dasharray:none;stroke-opacity:1"
     d="m 251.05193,31.976218 c 1.271,-0.276 0.484,-2.156 0.353,-2.672 -0.134,-0.531 -0.333,-2.079 -0.338,-3.297 -0.006,-1.23 -0.531,-2.75 -0.542,-5.078 0,-1.224 -0.781,-2.412 -2.557,-2.328 -1.755,0.088 -2.369,1.104 -2.14,2.583 0.228,1.475 1.072,2.771 1.411,4.245 0.333,1.468 0.541,3.006 0.641,4.214 0.119,1.374 0.687,2.016 1.145,2.161 1.136,0.375 2.027,0.172 2.027,0.172 z"
     id="path510" />
  <path
     style="fill:#231f20;fill-opacity:1;fill-rule:nonzero;stroke:none"
     d="m 279.83293,32.783218 c 0.515,-2.203 0.916,-2.562 1.859,-2.4 0.636,0.098 1.245,-0.016 1.636,0.025 1.285,0.151 3.395,0.937 8.781,4.719 1.214,0.86 2.943,2.046 3.687,2.474 1.167,0.687 -0.755,2.176 -1.224,1.911 -1.489,-0.848 -2.583,-1.301 -3.161,-1.536 -0.396,-0.156 -1.063,-0.532 -2.672,-0.943 -2.448,-0.625 -4.011,-0.636 -5.984,-1.396 -0.918,-0.349 -1.828,-0.03 -2.552,-0.838 -0.735,-0.798 -0.37,-2.016 -0.37,-2.016"
     id="path511" />
  <path
     style="fill:none;stroke:#231f20;stroke-width:0.565977;stroke-linecap:butt;stroke-linejoin:miter;stroke-miterlimit:4;stroke-dasharray:none;stroke-opacity:1"
     d="m 279.83293,32.783218 c 0.515,-2.203 0.916,-2.562 1.859,-2.4 0.636,0.098 1.245,-0.016 1.636,0.025 1.285,0.151 3.395,0.937 8.781,4.719 1.214,0.86 2.943,2.046 3.687,2.474 1.167,0.687 -0.755,2.176 -1.224,1.911 -1.489,-0.848 -2.583,-1.301 -3.161,-1.536 -0.396,-0.156 -1.063,-0.532 -2.672,-0.943 -2.448,-0.625 -4.011,-0.636 -5.984,-1.396 -0.918,-0.349 -1.828,-0.03 -2.552,-0.838 -0.735,-0.798 -0.37,-2.016 -0.37,-2.016 z"
     id="path512" />
  <path
     style="fill:#231f20;fill-opacity:1;fill-rule:nonzero;stroke:#231f20;stroke-width:0.565977;stroke-linecap:round;stroke-linejoin:round;stroke-miterlimit:4;stroke-dasharray:none;stroke-opacity:1"
     d="m 281.23893,34.851218 c -1.208,0.745 -2.995,-0.459 -3.339,-0.5 -4.957,-0.703 -5.296,-0.88 -9.025,-1.672 -5.412,-1.156 -8.938,-2.776 -9.188,-6.12 -0.162,-2.271 0.724,-3.64 1.906,-4.219 1.312,-0.635 4.495,-0.547 5.968,1.943 l 1.522,0.786 c 1.088,0.407 1.625,0.61 2.182,0.766 0.963,0.266 1.979,0.62 3.834,1.256 3.286,1.125 6.39,3.38 6.39,3.38 0.282,0.109 0.484,0.302 0.615,0.536"
     id="path513" />
  <path
     style="fill:#63c99d;fill-opacity:1;fill-rule:nonzero;stroke:#231f20;stroke-width:0.565977;stroke-linecap:butt;stroke-linejoin:miter;stroke-miterlimit:4;stroke-dasharray:none;stroke-opacity:1"
     d="m 267.43193,24.252218 c -1.563,-2.427 -4.745,-2.396 -6.037,-1.713 -1.156,0.62 -1.99,2.03 -1.739,4.292 0.161,1.462 0.968,2.561 2.26,3.421 0.713,0.755 1.167,1.192 1.973,1.099 0.068,-0.011 0.147,-0.011 0.23,-0.006 0.546,0.204 1.125,0.396 1.761,0.568 z"
     id="path514" />
  <path
     style="fill:#231f20;fill-opacity:1;fill-rule:nonzero;stroke:none"
     d="m 298.05193,38.392218 c -0.407,-1.291 -1.396,-1.348 -2.224,-0.728 -0.251,0.187 -0.657,0.088 -0.881,0.285 -0.526,0.47 -0.572,2.215 0.87,2.62 0.104,0.027 0.792,0.475 1.359,0.73 1.104,0.5 3.557,0.964 5.771,-0.574 1.048,-0.733 0.422,-1.218 -0.088,-1.052 -1.626,0.532 -1.875,0.262 -2.355,0.24 -1.624,-0.052 -2.452,-1.521 -2.452,-1.521"
     id="path515" />
  <path
     style="fill:none;stroke:#231f20;stroke-width:0.332927;stroke-linecap:butt;stroke-linejoin:miter;stroke-miterlimit:4;stroke-dasharray:none;stroke-opacity:1"
     d="m 298.05193,38.392218 c -0.407,-1.291 -1.396,-1.348 -2.224,-0.728 -0.251,0.187 -0.657,0.088 -0.881,0.285 -0.526,0.47 -0.572,2.215 0.87,2.62 0.104,0.027 0.792,0.475 1.359,0.73 1.104,0.5 3.557,0.964 5.771,-0.574 1.048,-0.733 0.422,-1.218 -0.088,-1.052 -1.626,0.532 -1.875,0.262 -2.355,0.24 -1.624,-0.052 -2.452,-1.521 -2.452,-1.521 z"
     id="path516" />
  <path
     style="fill:#231f20;fill-opacity:1;fill-rule:nonzero;stroke:none"
     d="m 248.29093,42.523218 c 0,1.177 0.953,2.13 2.136,2.13 1.177,0 2.129,-0.953 2.129,-2.13 0,-1.178 -0.952,-2.136 -2.129,-2.136 -1.183,0 -2.136,0.958 -2.136,2.136"
     id="path517" />
  <path
     style="fill:#63c99d;fill-opacity:1;fill-rule:nonzero;stroke:none"
     d="m 95.041926,24.580218 c -3.043,0.745 -3.615,1.24 -4.355,1.797 -4.631,3.463 -6.239998,1.124 -6.406998,-1.75 -0.202,-3.386 -0.337,-4.599 5.886998,-5.506 1.739,-0.249 8.255,-2.088 8.255,-2.088 2.249004,-0.974 4.958004,-0.729 6.041004,0.25 1.136,1.032 0.609,0.709 1.489,1.854 0.839,1.088 1.104,3.255 0.271,4.167 -0.807,0.875 -2.437,0.536 -4.848,0.349 -1.912004,-0.141 -6.333004,0.927 -6.333004,0.927"
     id="path518" />
  <path
     style="fill:none;stroke:#231f20;stroke-width:0.565977;stroke-linecap:butt;stroke-linejoin:miter;stroke-miterlimit:4;stroke-dasharray:none;stroke-opacity:1"
     d="m 95.041926,24.580218 c -3.043,0.745 -3.615,1.24 -4.355,1.797 -4.631,3.463 -6.239998,1.124 -6.406998,-1.75 -0.202,-3.386 -0.337,-4.599 5.886998,-5.506 1.739,-0.249 8.255,-2.088 8.255,-2.088 2.249004,-0.974 4.958004,-0.729 6.041004,0.25 1.136,1.032 0.609,0.709 1.489,1.854 0.839,1.088 1.104,3.255 0.271,4.167 -0.807,0.875 -2.437,0.536 -4.848,0.349 -1.912004,-0.141 -6.333004,0.927 -6.333004,0.927 z"
     id="path519" />
  <path
     style="fill:#ffffff;fill-opacity:1;fill-rule:nonzero;stroke:none"
     d="m 107.85393,11.569518 c 0.182,-0.156 -0.276,-1.208 0.182,-1.4533 0.464,-0.2493 1,0.3333 2.984,0.2347 l 0.022,-0.0054 c 1.453,-0.12 2.754,0.36 3.437,1.4173 1.125,1.744 0.109,4.4014 -2.265,5.9264 -2.38,1.532 -5.215,1.35 -6.339,-0.39 -1.079,-1.672 -0.193,-4.183 1.979,-5.7297"
     id="path520" />
  <path
     style="fill:none;stroke:#231f20;stroke-width:0.565977;stroke-linecap:butt;stroke-linejoin:miter;stroke-miterlimit:4;stroke-dasharray:none;stroke-opacity:1"
     d="m 107.85393,11.569518 c 0.182,-0.156 -0.276,-1.208 0.182,-1.4533 0.464,-0.2493 1,0.3333 2.984,0.2347 l 0.022,-0.0054 c 1.453,-0.12 2.754,0.36 3.437,1.4173 1.125,1.744 0.109,4.4014 -2.265,5.9264 -2.38,1.532 -5.215,1.35 -6.339,-0.39 -1.079,-1.672 -0.193,-4.183 1.979,-5.7297 z"
     id="path521" />
  <path
     style="fill:#231f20;fill-opacity:1;fill-rule:nonzero;stroke:none"
     d="m 102.46793,41.549218 c 0.412,-0.496 0.35,-2.448 0.918,-3.953 0.385,-1.011 0.224,-3.751 0.686,-4.735 0.418,-0.901 0.527,-1.354 -0.421,-2.005 -0.563,-0.391 -1.891,-0.781 -2.204,-0.369 -0.724,0.942 -0.957,1.858 -1,2.926 -0.052,1.214 0.105,4.522 0.188,5.126 0.219,1.51 -0.151,2.145 -0.131,2.552 0.038,0.765 0.339,0.932 0.834,1.02 0.948,0.162 1.13,-0.562 1.13,-0.562"
     id="path522" />
  <path
     style="fill:none;stroke:#231f20;stroke-width:0.565977;stroke-linecap:butt;stroke-linejoin:miter;stroke-miterlimit:4;stroke-dasharray:none;stroke-opacity:1"
     d="m 102.46793,41.549218 c 0.412,-0.496 0.35,-2.448 0.918,-3.953 0.385,-1.011 0.224,-3.751 0.686,-4.735 0.418,-0.901 0.527,-1.354 -0.421,-2.005 -0.563,-0.391 -1.891,-0.781 -2.204,-0.369 -0.724,0.942 -0.957,1.858 -1,2.926 -0.052,1.214 0.105,4.522 0.188,5.126 0.219,1.51 -0.151,2.145 -0.131,2.552 0.038,0.765 0.339,0.932 0.834,1.02 0.948,0.162 1.13,-0.562 1.13,-0.562 z"
     id="path523" />
  <path
     style="fill:#231f20;fill-opacity:1;fill-rule:nonzero;stroke:none"
     d="m 103.47393,32.544218 c 1.302,0.005 0.926,-2 0.912,-2.537 -0.016,-0.547 0.109,-2.099 0.369,-3.291 0.255,-1.204 0.063,-2.803 0.541,-5.079 0.256,-1.197 -0.254,-2.521 -2.01,-2.812 -1.73,-0.292 -2.547,0.572 -2.63,2.067 -0.094,1.495 0.458,2.933 0.468,4.443 0.022,1.51 -0.104,3.057 -0.254,4.261 -0.178,1.369 0.24,2.115 0.656,2.353 1.03,0.61 1.948,0.595 1.948,0.595"
     id="path524" />
  <path
     style="fill:none;stroke:#231f20;stroke-width:0.565977;stroke-linecap:butt;stroke-linejoin:miter;stroke-miterlimit:4;stroke-dasharray:none;stroke-opacity:1"
     d="m 103.47393,32.544218 c 1.302,0.005 0.926,-2 0.912,-2.537 -0.016,-0.547 0.109,-2.099 0.369,-3.291 0.255,-1.204 0.063,-2.803 0.541,-5.079 0.256,-1.197 -0.254,-2.521 -2.01,-2.812 -1.73,-0.292 -2.547,0.572 -2.63,2.067 -0.094,1.495 0.458,2.933 0.468,4.443 0.022,1.51 -0.104,3.057 -0.254,4.261 -0.178,1.369 0.24,2.115 0.656,2.353 1.03,0.61 1.948,0.595 1.948,0.595 z"
     id="path525" />
  <path
     style="fill:#231f20;fill-opacity:1;fill-rule:nonzero;stroke:none"
     d="m 68.863928,21.815218 c 0.083,2.265 -0.213,2.713 -1.166,2.806 -0.642,0.063 -1.198,0.344 -1.588,0.396 -1.282,0.194 -3.527,-0.02 -9.709,-2.27 -1.402,-0.511 -3.375,-1.214 -4.208,-1.432 -1.303,-0.36 0.166,-2.298 0.688,-2.156 1.656,0.426 2.833,0.582 3.448,0.656 0.426,0.046 1.161,0.238 2.833,0.213 2.525,-0.031 4.03,-0.427 6.134,-0.208 0.984,0.099 1.776,-0.443 2.683,0.145 0.921,0.584 0.885,1.85 0.885,1.85"
     id="path526" />
  <path
     style="fill:none;stroke:#231f20;stroke-width:0.565977;stroke-linecap:butt;stroke-linejoin:miter;stroke-miterlimit:4;stroke-dasharray:none;stroke-opacity:1"
     d="m 68.863928,21.815218 c 0.083,2.265 -0.213,2.713 -1.166,2.806 -0.642,0.063 -1.198,0.344 -1.588,0.396 -1.282,0.194 -3.527,-0.02 -9.709,-2.27 -1.402,-0.511 -3.375,-1.214 -4.208,-1.432 -1.303,-0.36 0.166,-2.298 0.688,-2.156 1.656,0.426 2.833,0.582 3.448,0.656 0.426,0.046 1.161,0.238 2.833,0.213 2.525,-0.031 4.03,-0.427 6.134,-0.208 0.984,0.099 1.776,-0.443 2.683,0.145 0.921,0.584 0.885,1.85 0.885,1.85 z"
     id="path527" />
  <path
     style="fill:#231f20;fill-opacity:1;fill-rule:nonzero;stroke:#231f20;stroke-width:0.565977;stroke-linecap:round;stroke-linejoin:round;stroke-miterlimit:4;stroke-dasharray:none;stroke-opacity:1"
     d="m 66.967928,20.189218 c 0.975,-1.03 3.016,-0.338 3.35,-0.39 4.978,-0.61 5.353,-0.526 9.166,-0.73 5.519998,-0.292 9.349998,0.355 10.458998,3.516 0.749,2.146 0.249,3.708 -0.745,4.574 -1.104,0.952 -4.194,1.692 -6.265998,-0.324 l -1.672,-0.364 c -1.161,-0.11 -1.729,-0.167 -2.308,-0.178 -1,0 -2.077,-0.077 -4.025,-0.208 -3.464,-0.229 -7.052,-1.598 -7.052,-1.598 -0.313,-0.032 -0.552,-0.172 -0.74,-0.366"
     id="path528" />
  <path
     style="fill:#63c99d;fill-opacity:1;fill-rule:nonzero;stroke:none"
     d="m 89.905926,22.320218 c -0.542,-1.376 -1.604,-2.224 -3.078,-2.724 -0.885,-0.543 -1.438,-0.839 -2.187998,-0.543 -0.068,0.027 -0.14,0.048 -0.218,0.063 -0.584,-0.052 -1.194,-0.088 -1.855,-0.088 l 0.5,7.803 c 2.146998,1.937 5.203998,1.077 6.270998,0.082 0.958,-0.901 1.396,-2.484 0.568,-4.593"
     id="path529" />
  <path
     style="fill:none;stroke:#231f20;stroke-width:0.565977;stroke-linecap:butt;stroke-linejoin:miter;stroke-miterlimit:4;stroke-dasharray:none;stroke-opacity:1"
     d="m 89.905926,22.320218 c -0.542,-1.376 -1.604,-2.224 -3.078,-2.724 -0.885,-0.543 -1.438,-0.839 -2.187998,-0.543 -0.068,0.027 -0.14,0.048 -0.218,0.063 -0.584,-0.052 -1.194,-0.088 -1.855,-0.088 l 0.5,7.803 c 2.146998,1.937 5.203998,1.077 6.270998,0.082 0.958,-0.901 1.396,-2.484 0.568,-4.593 z"
     id="path530" />
  <path
     style="fill:#231f20;fill-opacity:1;fill-rule:nonzero;stroke:none"
     d="m 49.812928,21.143218 c 0.729,1.134 1.697,0.937 2.333,0.125 0.197,-0.245 0.615,-0.256 0.776,-0.505 0.391,-0.595 -0.021,-2.287 -1.521,-2.303 -0.104,-0.005 -0.886,-0.255 -1.495,-0.353 -1.203,-0.194 -3.687,-0.006 -5.421,2.057 -0.823,0.979 -0.099,1.28 0.353,0.995 1.439,-0.938 1.745,-0.74 2.215,-0.844 1.577,-0.375 2.76,0.828 2.76,0.828"
     id="path531" />
  <path
     style="fill:none;stroke:#231f20;stroke-width:0.332927;stroke-linecap:butt;stroke-linejoin:miter;stroke-miterlimit:4;stroke-dasharray:none;stroke-opacity:1"
     d="m 49.812928,21.143218 c 0.729,1.134 1.697,0.937 2.333,0.125 0.197,-0.245 0.615,-0.256 0.776,-0.505 0.391,-0.595 -0.021,-2.287 -1.521,-2.303 -0.104,-0.005 -0.886,-0.255 -1.495,-0.353 -1.203,-0.194 -3.687,-0.006 -5.421,2.057 -0.823,0.979 -0.099,1.28 0.353,0.995 1.439,-0.938 1.745,-0.74 2.215,-0.844 1.577,-0.375 2.76,0.828 2.76,0.828 z"
     id="path532" />
  <path
     style="fill:#231f20;fill-opacity:1;fill-rule:nonzero;stroke:none"
     d="m 98.541926,42.268218 c -0.251,1.156 0.484,2.291 1.634004,2.536 1.152,0.249 2.287,-0.479 2.538,-1.631 0.249,-1.15 -0.486,-2.285 -1.636,-2.536 -1.151004,-0.25 -2.287004,0.479 -2.536004,1.631"
     id="path533" />
  <path
     style="fill:none;stroke:#231f20;stroke-width:0.399514;stroke-linecap:butt;stroke-linejoin:miter;stroke-miterlimit:4;stroke-dasharray:none;stroke-opacity:1"
     d="m 188.57793,48.116218 c 23.781,11.677 47.083,-13.547 49.849,-20.265"
     id="path534" />
  <path
     style="fill:#231f20;fill-opacity:1;fill-rule:nonzero;stroke:none"
     d="m 238.88493,26.741218 c -0.021,0.604 0.042,1.391 0.228,1.938 l -0.749,-0.678 -1.005,-0.046 c 0.516,-0.255 1.114,-0.771 1.526,-1.214"
     id="path535" />
</svg>
