<?xml version="1.0" encoding="UTF-8" standalone="no"?>
<!-- Created with Inkscape (http://www.inkscape.org/) -->

<svg
   version="1.1"
   id="svg1"
   width="339.92587"
   height="51.355064"
   viewBox="0 0 339.92586 51.355064"
   sodipodi:docname="cell.svg"
   xmlns:inkscape="http://www.inkscape.org/namespaces/inkscape"
   xmlns:sodipodi="http://sodipodi.sourceforge.net/DTD/sodipodi-0.dtd"
   xmlns="http://www.w3.org/2000/svg"
   xmlns:svg="http://www.w3.org/2000/svg">
  <sodipodi:namedview
     id="namedview1"
     pagecolor="#ffffff"
     bordercolor="#000000"
     borderopacity="0.25"
     inkscape:showpageshadow="2"
     inkscape:pageopacity="0.0"
     inkscape:pagecheckerboard="0"
     inkscape:deskcolor="#d1d1d1">
    <inkscape:page
       x="0"
       y="0"
       inkscape:label="1"
       id="page1"
       width="339.92587"
       height="51.355064"
       margin="0"
       bleed="0" />
  </sodipodi:namedview>
  <defs
     id="defs1" />
  <path
     style="fill:#231f20;fill-opacity:1;fill-rule:nonzero;stroke:none"
     d="m 201.42193,24.059849 c 0.312,-0.531 1.634,-0.24 2.989,-1.208 0.276,-0.194 0.568,-0.199 0.849,-0.266 1.151,-0.25 2.239,0.287 0.01,2.896 -0.312,0.354 -1.854,1.088 -2.282,1.656 -1.004,1.364 -3.541,1.542 -3.614,1.072 -0.167,-1.009 2.048,-4.15 2.048,-4.15"
     id="path637" />
  <path
     style="fill:none;stroke:#231f20;stroke-width:0.546001;stroke-linecap:round;stroke-linejoin:round;stroke-miterlimit:4;stroke-dasharray:none;stroke-opacity:1"
     d="m 201.42193,24.059849 c 0.312,-0.531 1.634,-0.24 2.989,-1.208 0.276,-0.194 0.568,-0.199 0.849,-0.266 1.151,-0.25 2.239,0.287 0.01,2.896 -0.312,0.354 -1.854,1.088 -2.282,1.656 -1.004,1.364 -3.541,1.542 -3.614,1.072 -0.167,-1.009 2.048,-4.15 2.048,-4.15 z"
     id="path638" />
  <path
     style="fill:#231f20;fill-opacity:1;fill-rule:nonzero;stroke:none"
     d="m 210.19193,6.367849 c -0.761,1.301 -3.313,9.39 -3.313,9.39 0.063,1.208 2.994,1.99 2.994,1.99 1.74,-0.839 8.606,-8.959 8.652,-10.412 0.052,-1.454 -4.204,-3.796 -5.385,-3.375 -1.188,0.421 -2.948,2.407 -2.948,2.407"
     id="path639" />
  <path
     style="fill:none;stroke:#231f20;stroke-width:0.565977;stroke-linecap:butt;stroke-linejoin:miter;stroke-miterlimit:4;stroke-dasharray:none;stroke-opacity:1"
     d="m 210.19193,6.367849 c -0.761,1.301 -3.313,9.39 -3.313,9.39 0.063,1.208 2.994,1.99 2.994,1.99 1.74,-0.839 8.606,-8.959 8.652,-10.412 0.052,-1.454 -4.204,-3.796 -5.385,-3.375 -1.188,0.421 -2.948,2.407 -2.948,2.407 z"
     id="path640" />
  <path
     style="fill:#231f20;fill-opacity:1;fill-rule:nonzero;stroke:none"
     d="m 207.43093,15.897849 c -0.572,-0.182 -0.104,-1.156 -1.176,0.432 -1.188,1.762 -2.937,6.355 -2.715,7.407 0.22,1.047 0.491,0.943 1.33,0.932 0.842,-0.005 3.609,-3.672 4.405,-3.869 0.802,-0.199 0.917,-2.552 0.745,-3.204 -0.172,-0.651 -2.589,-1.698 -2.589,-1.698"
     id="path641" />
  <path
     style="fill:none;stroke:#231f20;stroke-width:0.565977;stroke-linecap:butt;stroke-linejoin:miter;stroke-miterlimit:4;stroke-dasharray:none;stroke-opacity:1"
     d="m 207.43093,15.897849 c -0.572,-0.182 -0.104,-1.156 -1.176,0.432 -1.188,1.762 -2.937,6.355 -2.715,7.407 0.22,1.047 0.491,0.943 1.33,0.932 0.842,-0.005 3.609,-3.672 4.405,-3.869 0.802,-0.199 0.917,-2.552 0.745,-3.204 -0.172,-0.651 -2.589,-1.698 -2.589,-1.698 z"
     id="path642" />
  <path
     style="fill:#63c99d;fill-opacity:1;fill-rule:nonzero;stroke:none"
     d="m 207.02593,0.59184902 c 3.494,-0.371 4.467,-0.287 5.609,-0.303 5.776,-0.099 6.197,1.12499998 6.338,3.51599998 0.198,3.391 -0.016,5.265 -6.308,5.025 -4.775,-0.181 -8.343,0.371 -8.343,0.371 -1.708,0.776 -5.296,0.853 -6.042,0.328 -1.254,-0.88 -0.989,-0.751 -1.656,-2.037 -1.234,-2.37 -0.562,-3.359 0.364,-4.099 0.934,-0.74 1.912,-1.077 4.652,-1.719 2.12,-0.505 5.386,-1.08199998 5.386,-1.08199998"
     id="path643" />
  <path
     style="fill:none;stroke:#231f20;stroke-width:0.565977;stroke-linecap:butt;stroke-linejoin:miter;stroke-miterlimit:4;stroke-dasharray:none;stroke-opacity:1"
     d="m 207.02593,0.59184902 c 3.494,-0.371 4.467,-0.287 5.609,-0.303 5.776,-0.099 6.197,1.12499998 6.338,3.51599998 0.198,3.391 -0.016,5.265 -6.308,5.025 -4.775,-0.181 -8.343,0.371 -8.343,0.371 -1.708,0.776 -5.296,0.853 -6.042,0.328 -1.254,-0.88 -0.989,-0.751 -1.656,-2.037 -1.234,-2.37 -0.562,-3.359 0.364,-4.099 0.934,-0.74 1.912,-1.077 4.652,-1.719 2.12,-0.505 5.386,-1.08199998 5.386,-1.08199998 z"
     id="path644" />
  <path
     style="fill:#ffffff;fill-opacity:1;fill-rule:nonzero;stroke:none"
     d="m 188.59393,8.335849 c -0.23,-0.094 -0.918,0.833 -1.36,0.552 -0.443,-0.287 -0.198,-1.042 -1.255,-2.719 l -0.011,-0.02 c -0.818,-1.204 -1.037,-2.579 -0.453,-3.683 0.979,-1.83799998 3.792,-2.24999998 6.276,-0.932 2.505,1.328 3.735,3.891 2.765,5.719 -0.926,1.755 -3.552,2.213 -5.962,1.083"
     id="path645" />
  <path
     style="fill:none;stroke:#231f20;stroke-width:0.565977;stroke-linecap:butt;stroke-linejoin:miter;stroke-miterlimit:4;stroke-dasharray:none;stroke-opacity:1"
     d="m 188.59393,8.335849 c -0.23,-0.094 -0.918,0.833 -1.36,0.552 -0.443,-0.287 -0.198,-1.042 -1.255,-2.719 l -0.011,-0.02 c -0.818,-1.204 -1.037,-2.579 -0.453,-3.683 0.979,-1.83799998 3.792,-2.24999998 6.276,-0.932 2.505,1.328 3.735,3.891 2.765,5.719 -0.926,1.755 -3.552,2.213 -5.962,1.083 z"
     id="path646" />
  <path
     style="fill:#231f20;fill-opacity:1;fill-rule:nonzero;stroke:none"
     d="m 198.24993,24.064849 c 0.546,-0.323 1.172,-2.177 2.229,-3.385 0.708,-0.823 1.509,-3.443 2.285,-4.203 0.704,-0.699 0.964,-1.089 0.308,-2.032 -0.39,-0.557 -1.505,-1.385 -1.937,-1.109 -1.005,0.636 -1.547,1.412 -1.959,2.396 -0.469,1.125 -1.473,4.276 -1.604,4.88 -0.317,1.484 -0.885,1.953 -1.016,2.338 -0.224,0.73 0,0.995 0.432,1.246 0.834,0.478 1.262,-0.131 1.262,-0.131"
     id="path647" />
  <path
     style="fill:none;stroke:#231f20;stroke-width:0.565977;stroke-linecap:butt;stroke-linejoin:miter;stroke-miterlimit:4;stroke-dasharray:none;stroke-opacity:1"
     d="m 198.24993,24.064849 c 0.546,-0.323 1.172,-2.177 2.229,-3.385 0.708,-0.823 1.509,-3.443 2.285,-4.203 0.704,-0.699 0.964,-1.089 0.308,-2.032 -0.39,-0.557 -1.505,-1.385 -1.937,-1.109 -1.005,0.636 -1.547,1.412 -1.959,2.396 -0.469,1.125 -1.473,4.276 -1.604,4.88 -0.317,1.484 -0.885,1.953 -1.016,2.338 -0.224,0.73 0,0.995 0.432,1.246 0.834,0.478 1.262,-0.131 1.262,-0.131 z"
     id="path648" />
  <path
     style="fill:#231f20;fill-opacity:1;fill-rule:nonzero;stroke:none"
     d="m 202.62393,16.471849 c 1.246,-0.35 0.35,-2.183 0.183,-2.694 -0.161,-0.52 -0.459,-2.046 -0.543,-3.265 -0.072,-1.224 -0.692,-2.719 -0.848,-5.036 -0.078,-1.219 -0.933,-2.36 -2.698,-2.161 -1.744,0.192 -2.291,1.244 -1.974,2.708 0.318,1.458 1.24,2.697 1.667,4.145 0.427,1.453 0.729,2.969 0.907,4.172 0.202,1.364 0.806,1.969 1.265,2.084 1.161,0.301 2.041,0.047 2.041,0.047"
     id="path649" />
  <path
     style="fill:none;stroke:#231f20;stroke-width:0.565977;stroke-linecap:butt;stroke-linejoin:miter;stroke-miterlimit:4;stroke-dasharray:none;stroke-opacity:1"
     d="m 202.62393,16.471849 c 1.246,-0.35 0.35,-2.183 0.183,-2.694 -0.161,-0.52 -0.459,-2.046 -0.543,-3.265 -0.072,-1.224 -0.692,-2.719 -0.848,-5.036 -0.078,-1.219 -0.933,-2.36 -2.698,-2.161 -1.744,0.192 -2.291,1.244 -1.974,2.708 0.318,1.458 1.24,2.697 1.667,4.145 0.427,1.453 0.729,2.969 0.907,4.172 0.202,1.364 0.806,1.969 1.265,2.084 1.161,0.301 2.041,0.047 2.041,0.047 z"
     id="path650" />
  <path
     style="fill:#231f20;fill-opacity:1;fill-rule:nonzero;stroke:none"
     d="m 212.98793,30.053849 c 0.36,-0.562 -0.781,-1.448 -0.624,-3.093 0.031,-0.333 -0.147,-0.568 -0.256,-0.828 -0.457,-1.063 -1.713,-1.625 -3.036,1.667 -0.183,0.458 0.021,2.114 -0.308,2.786 -0.796,1.594 0.62,3.719 1.157,3.506 1.167,-0.448 3.067,-4.038 3.067,-4.038"
     id="path651" />
  <path
     style="fill:none;stroke:#231f20;stroke-width:0.599269;stroke-linecap:round;stroke-linejoin:round;stroke-miterlimit:4;stroke-dasharray:none;stroke-opacity:1"
     d="m 212.98793,30.053849 c 0.36,-0.562 -0.781,-1.448 -0.624,-3.093 0.031,-0.333 -0.147,-0.568 -0.256,-0.828 -0.457,-1.063 -1.713,-1.625 -3.036,1.667 -0.183,0.458 0.021,2.114 -0.308,2.786 -0.796,1.594 0.62,3.719 1.157,3.506 1.167,-0.448 3.067,-4.038 3.067,-4.038 z"
     id="path652" />
  <path
     style="fill:#231f20;fill-opacity:1;fill-rule:nonzero;stroke:none"
     d="m 209.80693,9.200849 c -0.194,1.495 0.614,9.943 0.614,9.943 0.526,1.088 3.536,0.656 3.536,0.656 1.271,-1.448 4.416,-11.604 3.896,-12.959 -0.521,-1.359 -5.354,-1.855 -6.281,-1.005 -0.921,0.854 -1.765,3.365 -1.765,3.365"
     id="path653" />
  <path
     style="fill:none;stroke:#231f20;stroke-width:0.565977;stroke-linecap:butt;stroke-linejoin:miter;stroke-miterlimit:4;stroke-dasharray:none;stroke-opacity:1"
     d="m 209.80693,9.200849 c -0.194,1.495 0.614,9.943 0.614,9.943 0.526,1.088 3.536,0.656 3.536,0.656 1.271,-1.448 4.416,-11.604 3.896,-12.959 -0.521,-1.359 -5.354,-1.855 -6.281,-1.005 -0.921,0.854 -1.765,3.365 -1.765,3.365 z"
     id="path654" />
  <path
     style="fill:#231f20;fill-opacity:1;fill-rule:nonzero;stroke:none"
     d="m 210.98793,19.053849 c -0.599,0.058 -0.552,-1.025 -0.916,0.86 -0.407,2.083 -0.219,6.995 0.396,7.875 0.609,0.88 0.823,0.677 1.588,0.339 0.776,-0.334 1.885,-4.787 2.547,-5.282 0.657,-0.494 -0.156,-2.708 -0.572,-3.24 -0.412,-0.53 -3.043,-0.552 -3.043,-0.552"
     id="path655" />
  <path
     style="fill:none;stroke:#231f20;stroke-width:0.565977;stroke-linecap:butt;stroke-linejoin:miter;stroke-miterlimit:4;stroke-dasharray:none;stroke-opacity:1"
     d="m 210.98793,19.053849 c -0.599,0.058 -0.552,-1.025 -0.916,0.86 -0.407,2.083 -0.219,6.995 0.396,7.875 0.609,0.88 0.823,0.677 1.588,0.339 0.776,-0.334 1.885,-4.787 2.547,-5.282 0.657,-0.494 -0.156,-2.708 -0.572,-3.24 -0.412,-0.53 -3.043,-0.552 -3.043,-0.552 z"
     id="path656" />
  <path
     style="fill:#63c99d;fill-opacity:1;fill-rule:nonzero;stroke:none"
     d="m 218.66493,2.163849 c -0.776,-1.063 -2.292,-1.68699998 -4.489,-1.12 -2.563,0.657 -3.703,3.141 -4.156,6.876 l 8.036,0.514 c 2.355,-2.713 1.469,-5.088 0.609,-6.27"
     id="path657" />
  <path
     style="fill:none;stroke:#231f20;stroke-width:0.565977;stroke-linecap:butt;stroke-linejoin:miter;stroke-miterlimit:4;stroke-dasharray:none;stroke-opacity:1"
     d="m 218.66493,2.163849 c -0.776,-1.063 -2.292,-1.68699998 -4.489,-1.12 -2.563,0.657 -3.703,3.141 -4.156,6.876 l 8.036,0.514 c 2.355,-2.713 1.469,-5.088 0.609,-6.27 z"
     id="path658" />
  <path
     style="fill:#231f20;fill-opacity:1;fill-rule:nonzero;stroke:none"
     d="m 143.14993,16.777849 c 0.532,0.314 0.24,1.636 1.204,2.995 0.197,0.276 0.202,0.568 0.265,0.849 0.255,1.146 -0.287,2.235 -2.891,0.006 -0.358,-0.308 -1.088,-1.855 -1.661,-2.276 -1.36,-1.011 -1.536,-3.547 -1.068,-3.62 1.005,-0.167 4.151,2.046 4.151,2.046"
     id="path659" />
  <path
     style="fill:none;stroke:#231f20;stroke-width:0.546001;stroke-linecap:round;stroke-linejoin:round;stroke-miterlimit:4;stroke-dasharray:none;stroke-opacity:1"
     d="m 143.14993,16.777849 c 0.532,0.314 0.24,1.636 1.204,2.995 0.197,0.276 0.202,0.568 0.265,0.849 0.255,1.146 -0.287,2.235 -2.891,0.006 -0.358,-0.308 -1.088,-1.855 -1.661,-2.276 -1.36,-1.011 -1.536,-3.547 -1.068,-3.62 1.005,-0.167 4.151,2.046 4.151,2.046 z"
     id="path660" />
  <path
     style="fill:#ffffff;fill-opacity:1;fill-rule:nonzero;stroke:none"
     d="m 151.30693,22.788849 c 0.187,-0.568 1.161,-0.099 -0.428,-1.177 -1.76,-1.187 -6.353,-2.932 -7.405,-2.714 -1.052,0.219 -0.943,0.49 -0.934,1.334 0.006,0.844 3.667,3.604 3.866,4.406 0.197,0.796 2.557,0.911 3.208,0.739 0.65,-0.171 1.693,-2.588 1.693,-2.588"
     id="path661" />
  <path
     style="fill:none;stroke:#231f20;stroke-width:0.565977;stroke-linecap:butt;stroke-linejoin:miter;stroke-miterlimit:4;stroke-dasharray:none;stroke-opacity:1"
     d="m 151.30693,22.788849 c 0.187,-0.568 1.161,-0.099 -0.428,-1.177 -1.76,-1.187 -6.353,-2.932 -7.405,-2.714 -1.052,0.219 -0.943,0.49 -0.934,1.334 0.006,0.844 3.667,3.604 3.866,4.406 0.197,0.796 2.557,0.911 3.208,0.739 0.65,-0.171 1.693,-2.588 1.693,-2.588 z"
     id="path662" />
  <path
     style="fill:#ffffff;fill-opacity:1;fill-rule:nonzero;stroke:#231f20;stroke-width:0.565977;stroke-linecap:round;stroke-linejoin:round;stroke-miterlimit:4;stroke-dasharray:none;stroke-opacity:1"
     d="m 149.61893,24.725849 c -0.099,0.303 -0.156,0.506 -0.156,0.506 0.839,1.74 8.953,8.604 10.407,8.65 1.452,0.052 3.801,-4.202 3.374,-5.385 -0.422,-1.181 -2.406,-2.943 -2.406,-2.943 -1.298,-0.765 -9.391,-3.317 -9.391,-3.317 -0.183,0.011 -0.359,0.088 -0.525,0.213"
     id="path663" />
  <path
     style="fill:#63c99d;fill-opacity:1;fill-rule:nonzero;stroke:none"
     d="m 162.57793,21.069849 c 2.02,2.87 2.421,3.76 2.989,4.75 2.896,5.005 2.027,5.964 0.005,7.25 -2.86,1.823 -4.604,2.547 -7.458,-3.068 -2.162,-4.26 -4.375,-7.114 -4.375,-7.114 -1.505,-1.11 -3.323,-4.214 -3.229,-5.115 0.166,-1.525 0.182,-1.229 0.978,-2.437 1.47,-2.235 2.662,-2.126 3.767,-1.678 1.093,0.454 1.864,1.152 3.755,3.23 1.473,1.609 3.568,4.182 3.568,4.182"
     id="path664" />
  <path
     style="fill:none;stroke:#231f20;stroke-width:0.565977;stroke-linecap:butt;stroke-linejoin:miter;stroke-miterlimit:4;stroke-dasharray:none;stroke-opacity:1"
     d="m 162.57793,21.069849 c 2.02,2.87 2.421,3.76 2.989,4.75 2.896,5.005 2.027,5.964 0.005,7.25 -2.86,1.823 -4.604,2.547 -7.458,-3.068 -2.162,-4.26 -4.375,-7.114 -4.375,-7.114 -1.505,-1.11 -3.323,-4.214 -3.229,-5.115 0.166,-1.525 0.182,-1.229 0.978,-2.437 1.47,-2.235 2.662,-2.126 3.767,-1.678 1.093,0.454 1.864,1.152 3.755,3.23 1.473,1.609 3.568,4.182 3.568,4.182 z"
     id="path665" />
  <path
     style="fill:#ffffff;fill-opacity:1;fill-rule:nonzero;stroke:none"
     d="m 145.93093,11.668849 c -0.192,-0.151 -1.115,0.541 -1.457,0.151 -0.35,-0.391 0.098,-1.052 -0.454,-2.958 l -0.005,-0.021 c -0.453,-1.38 -0.281,-2.765 0.588,-3.667 1.443,-1.494 4.261,-1.109 6.287,0.844 2.037,1.968 2.505,4.771 1.073,6.26 -1.38,1.432 -4.027,1.147 -6.032,-0.609"
     id="path666" />
  <path
     style="fill:none;stroke:#231f20;stroke-width:0.565977;stroke-linecap:butt;stroke-linejoin:miter;stroke-miterlimit:4;stroke-dasharray:none;stroke-opacity:1"
     d="m 145.93093,11.668849 c -0.192,-0.151 -1.115,0.541 -1.457,0.151 -0.35,-0.391 0.098,-1.052 -0.454,-2.958 l -0.005,-0.021 c -0.453,-1.38 -0.281,-2.765 0.588,-3.667 1.443,-1.494 4.261,-1.109 6.287,0.844 2.037,1.968 2.505,4.771 1.073,6.26 -1.38,1.432 -4.027,1.147 -6.032,-0.609 z"
     id="path667" />
  <path
     style="fill:#231f20;fill-opacity:1;fill-rule:nonzero;stroke:none"
     d="m 141.29093,29.413849 c 0.625,0.135 2.344,-0.797 3.937,-0.969 1.084,-0.115 3.454,-1.495 4.536,-1.525 0.996,-0.032 1.448,-0.142 1.606,-1.282 0.098,-0.672 -0.163,-2.037 -0.667,-2.13 -1.167,-0.219 -2.095,-0.016 -3.063,0.426 -1.109,0.506 -3.989,2.136 -4.494,2.491 -1.24,0.875 -1.98,0.828 -2.334,1.025 -0.657,0.38 -0.677,0.724 -0.532,1.203 0.287,0.923 1.011,0.761 1.011,0.761"
     id="path668" />
  <path
     style="fill:none;stroke:#231f20;stroke-width:0.565977;stroke-linecap:butt;stroke-linejoin:miter;stroke-miterlimit:4;stroke-dasharray:none;stroke-opacity:1"
     d="m 141.29093,29.413849 c 0.625,0.135 2.344,-0.797 3.937,-0.969 1.084,-0.115 3.454,-1.495 4.536,-1.525 0.996,-0.032 1.448,-0.142 1.606,-1.282 0.098,-0.672 -0.163,-2.037 -0.667,-2.13 -1.167,-0.219 -2.095,-0.016 -3.063,0.426 -1.109,0.506 -3.989,2.136 -4.494,2.491 -1.24,0.875 -1.98,0.828 -2.334,1.025 -0.657,0.38 -0.677,0.724 -0.532,1.203 0.287,0.923 1.011,0.761 1.011,0.761 z"
     id="path669" />
  <path
     style="fill:#231f20;fill-opacity:1;fill-rule:nonzero;stroke:none"
     d="m 149.66593,26.819849 c 1.15,0.589 1.74,-1.359 1.964,-1.848 0.234,-0.495 1.057,-1.819 1.828,-2.762 0.776,-0.952 1.333,-2.468 2.797,-4.276 0.771,-0.948 0.916,-2.364 -0.511,-3.416 -1.406,-1.046 -2.526,-0.65 -3.292,0.64 -0.76,1.292 -0.921,2.824 -1.593,4.172 -0.672,1.36 -1.485,2.678 -2.172,3.678 -0.781,1.141 -0.745,1.994 -0.489,2.396 0.65,1.01 1.468,1.416 1.468,1.416"
     id="path670" />
  <path
     style="fill:none;stroke:#231f20;stroke-width:0.565977;stroke-linecap:butt;stroke-linejoin:miter;stroke-miterlimit:4;stroke-dasharray:none;stroke-opacity:1"
     d="m 149.66593,26.819849 c 1.15,0.589 1.74,-1.359 1.964,-1.848 0.234,-0.495 1.057,-1.819 1.828,-2.762 0.776,-0.952 1.333,-2.468 2.797,-4.276 0.771,-0.948 0.916,-2.364 -0.511,-3.416 -1.406,-1.046 -2.526,-0.65 -3.292,0.64 -0.76,1.292 -0.921,2.824 -1.593,4.172 -0.672,1.36 -1.485,2.678 -2.172,3.678 -0.781,1.141 -0.745,1.994 -0.489,2.396 0.65,1.01 1.468,1.416 1.468,1.416 z"
     id="path671" />
  <path
     style="fill:#231f20;fill-opacity:1;fill-rule:nonzero;stroke:none"
     d="m 134.45193,28.663849 c 0.642,-0.348 3.85,-0.859 4.588,-0.938 0.658,-0.077 1.71,-0.562 2.319,0.418 0.255,0.396 0.333,1.145 0.287,1.462 -0.043,0.262 -0.339,0.396 -0.735,0.402 -0.667,0.016 -0.865,-0.24 -2.141,-0.287 0,0 -0.302,-0.057 -0.828,-0.197 -1.583,-0.391 -0.854,-0.36 -3.276,-0.428 -0.172,-0.004 -0.287,-0.176 -0.282,-0.296 0.027,-0.178 0.068,-0.136 0.068,-0.136"
     id="path672" />
  <path
     style="fill:none;stroke:#231f20;stroke-width:0.565977;stroke-linecap:round;stroke-linejoin:round;stroke-miterlimit:4;stroke-dasharray:none;stroke-opacity:1"
     d="m 134.45193,28.663849 c 0.642,-0.348 3.85,-0.859 4.588,-0.938 0.658,-0.077 1.71,-0.562 2.319,0.418 0.255,0.396 0.333,1.145 0.287,1.462 -0.043,0.262 -0.339,0.396 -0.735,0.402 -0.667,0.016 -0.865,-0.24 -2.141,-0.287 0,0 -0.302,-0.057 -0.828,-0.197 -1.583,-0.391 -0.854,-0.36 -3.276,-0.428 -0.172,-0.004 -0.287,-0.176 -0.282,-0.296 0.027,-0.178 0.068,-0.136 0.068,-0.136 z"
     id="path673" />
  <path
     style="fill:#231f20;fill-opacity:1;fill-rule:nonzero;stroke:none"
     d="m 138.05593,35.539849 c 0.647,0.176 1.147,-1.183 2.76,-1.532 0.33,-0.074 0.496,-0.312 0.715,-0.495 0.875,-0.755 1.025,-2.12 -2.511,-2.391 -0.489,-0.03 -2.005,0.662 -2.75,0.552 -1.755,-0.276 -3.354,1.714 -2.99,2.167 0.787,0.975 4.776,1.699 4.776,1.699"
     id="path674" />
  <path
     style="fill:none;stroke:#231f20;stroke-width:0.599269;stroke-linecap:round;stroke-linejoin:round;stroke-miterlimit:4;stroke-dasharray:none;stroke-opacity:1"
     d="m 138.05593,35.539849 c 0.647,0.176 1.147,-1.183 2.76,-1.532 0.33,-0.074 0.496,-0.312 0.715,-0.495 0.875,-0.755 1.025,-2.12 -2.511,-2.391 -0.489,-0.03 -2.005,0.662 -2.75,0.552 -1.755,-0.276 -3.354,1.714 -2.99,2.167 0.787,0.975 4.776,1.699 4.776,1.699 z"
     id="path675" />
  <path
     style="fill:#231f20;fill-opacity:1;fill-rule:nonzero;stroke:none"
     d="m 156.96793,26.195849 c -1.48,0.27 -9.286,3.593 -9.286,3.593 -0.88,0.839 0.442,3.573 0.442,3.573 1.766,0.771 12.396,0.698 13.531,-0.209 1.136,-0.911 0.152,-5.667 -0.943,-6.285 -1.093,-0.626 -3.744,-0.672 -3.744,-0.672"
     id="path676" />
  <path
     style="fill:none;stroke:#231f20;stroke-width:0.565977;stroke-linecap:butt;stroke-linejoin:miter;stroke-miterlimit:4;stroke-dasharray:none;stroke-opacity:1"
     d="m 156.96793,26.195849 c -1.48,0.27 -9.286,3.593 -9.286,3.593 -0.88,0.839 0.442,3.573 0.442,3.573 1.766,0.771 12.396,0.698 13.531,-0.209 1.136,-0.911 0.152,-5.667 -0.943,-6.285 -1.093,-0.626 -3.744,-0.672 -3.744,-0.672 z"
     id="path677" />
  <path
     style="fill:#231f20;fill-opacity:1;fill-rule:nonzero;stroke:none"
     d="m 147.93593,30.304849 c -0.233,-0.552 0.814,-0.833 -1.093,-0.615 -2.109,0.244 -6.735,1.911 -7.391,2.76 -0.65,0.85 -0.396,0.99 0.156,1.62 0.558,0.635 5.136,0.35 5.808,0.828 0.667,0.474 2.536,-0.973 2.916,-1.526 0.38,-0.556 -0.396,-3.067 -0.396,-3.067"
     id="path678" />
  <path
     style="fill:none;stroke:#231f20;stroke-width:0.565977;stroke-linecap:butt;stroke-linejoin:miter;stroke-miterlimit:4;stroke-dasharray:none;stroke-opacity:1"
     d="m 147.93593,30.304849 c -0.233,-0.552 0.814,-0.833 -1.093,-0.615 -2.109,0.244 -6.735,1.911 -7.391,2.76 -0.65,0.85 -0.396,0.99 0.156,1.62 0.558,0.635 5.136,0.35 5.808,0.828 0.667,0.474 2.536,-0.973 2.916,-1.526 0.38,-0.556 -0.396,-3.067 -0.396,-3.067 z"
     id="path679" />
  <path
     style="fill:#63c99d;fill-opacity:1;fill-rule:nonzero;stroke:none"
     d="m 166.06693,27.892849 c -1.401,-2.244 -4.109,-2.577 -7.807,-1.88 l 1.938,7.812 c 3.296,1.423 5.296,-0.135 6.166,-1.312 0.771,-1.063 0.906,-2.697 -0.297,-4.62"
     id="path680" />
  <path
     style="fill:none;stroke:#231f20;stroke-width:0.565977;stroke-linecap:butt;stroke-linejoin:miter;stroke-miterlimit:4;stroke-dasharray:none;stroke-opacity:1"
     d="m 166.06693,27.892849 c -1.401,-2.244 -4.109,-2.577 -7.807,-1.88 l 1.938,7.812 c 3.296,1.423 5.296,-0.135 6.166,-1.312 0.771,-1.063 0.906,-2.697 -0.297,-4.62 z"
     id="path681" />
  <path
     style="fill:#ffffff;fill-opacity:1;fill-rule:nonzero;stroke:none"
     d="m 0.33292808,42.928849 c 0,0.688 0.552,1.24 1.24000002,1.24 H 338.35293 c 0.687,0 1.24,-0.552 1.24,-1.24 0,-0.681 -0.553,-1.239 -1.24,-1.239 H 1.5729281 c -0.68800002,0 -1.24000002,0.558 -1.24000002,1.239"
     id="path682" />
  <path
     style="fill:none;stroke:#231f20;stroke-width:0.665856;stroke-linecap:butt;stroke-linejoin:miter;stroke-miterlimit:4;stroke-dasharray:none;stroke-opacity:1"
     d="m 0.33292808,42.928849 c 0,0.688 0.552,1.24 1.24000002,1.24 H 338.35293 c 0.687,0 1.24,-0.552 1.24,-1.24 0,-0.681 -0.553,-1.239 -1.24,-1.239 H 1.5729281 c -0.68800002,0 -1.24000002,0.558 -1.24000002,1.239 z"
     id="path683" />
  <path
     style="fill:#63c99d;fill-opacity:1;fill-rule:nonzero;stroke:none"
     d="m 256.90493,21.449849 c 2.911,1.162 3.662,1.099 4.583,1.074 5.776,-0.126 5.735,2.713 4.193,5.145 -1.797,2.875 -2.396,3.937 -7.989,1.063 -1.557,-0.812 -7.923,-3.104 -7.923,-3.104 -2.4,-0.516 -4.457,-2.292 -4.77,-3.719 -0.323,-1.5 -0.088,-0.932 -0.135,-2.369 -0.048,-1.376 0.989,-3.298 2.203,-3.554 1.156,-0.244 2.292,0.98 4.15,2.538 1.464,1.229 5.688,2.926 5.688,2.926"
     id="path684" />
  <path
     style="fill:none;stroke:#231f20;stroke-width:0.565977;stroke-linecap:butt;stroke-linejoin:miter;stroke-miterlimit:4;stroke-dasharray:none;stroke-opacity:1"
     d="m 256.90493,21.449849 c 2.911,1.162 3.662,1.099 4.583,1.074 5.776,-0.126 5.735,2.713 4.193,5.145 -1.797,2.875 -2.396,3.937 -7.989,1.063 -1.557,-0.812 -7.923,-3.104 -7.923,-3.104 -2.4,-0.516 -4.457,-2.292 -4.77,-3.719 -0.323,-1.5 -0.088,-0.932 -0.135,-2.369 -0.048,-1.376 0.989,-3.298 2.203,-3.554 1.156,-0.244 2.292,0.98 4.15,2.538 1.464,1.229 5.688,2.926 5.688,2.926 z"
     id="path685" />
  <path
     style="fill:#ffffff;fill-opacity:1;fill-rule:nonzero;stroke:none"
     d="m 238.50893,13.637849 c -0.062,-0.24 -1.218,-0.24 -1.254,-0.761 -0.043,-0.525 0.713,-0.776 1.426,-2.635 l 0.006,-0.021 c 0.478,-1.369 1.442,-2.375 2.682,-2.563 2.052,-0.322 4.067,1.683 4.504,4.47 0.434,2.797 -0.88,5.312 -2.926,5.634 -1.968,0.308 -3.907,-1.52 -4.438,-4.124"
     id="path686" />
  <path
     style="fill:none;stroke:#231f20;stroke-width:0.565977;stroke-linecap:butt;stroke-linejoin:miter;stroke-miterlimit:4;stroke-dasharray:none;stroke-opacity:1"
     d="m 238.50893,13.637849 c -0.062,-0.24 -1.218,-0.24 -1.254,-0.761 -0.043,-0.525 0.713,-0.776 1.426,-2.635 l 0.006,-0.021 c 0.478,-1.369 1.442,-2.375 2.682,-2.563 2.052,-0.322 4.067,1.683 4.504,4.47 0.434,2.797 -0.88,5.312 -2.926,5.634 -1.968,0.308 -3.907,-1.52 -4.438,-4.124 z"
     id="path687" />
  <path
     style="fill:#231f20;fill-opacity:1;fill-rule:nonzero;stroke:none"
     d="m 251.97293,40.985849 c 0.291,-0.572 -0.177,-2.468 0.058,-4.057 0.166,-1.072 -0.574,-3.719 -0.328,-4.771 0.213,-0.973 0.228,-1.437 -0.834,-1.874 -0.63,-0.266 -2.016,-0.359 -2.234,0.104 -0.506,1.073 -0.542,2.021 -0.36,3.073 0.208,1.197 1.062,4.396 1.276,4.973 0.526,1.423 0.302,2.126 0.406,2.522 0.192,0.734 0.526,0.838 1.027,0.817 0.963,-0.047 0.989,-0.787 0.989,-0.787"
     id="path688" />
  <path
     style="fill:none;stroke:#231f20;stroke-width:0.565977;stroke-linecap:butt;stroke-linejoin:miter;stroke-miterlimit:4;stroke-dasharray:none;stroke-opacity:1"
     d="m 251.97293,40.985849 c 0.291,-0.572 -0.177,-2.468 0.058,-4.057 0.166,-1.072 -0.574,-3.719 -0.328,-4.771 0.213,-0.973 0.228,-1.437 -0.834,-1.874 -0.63,-0.266 -2.016,-0.359 -2.234,0.104 -0.506,1.073 -0.542,2.021 -0.36,3.073 0.208,1.197 1.062,4.396 1.276,4.973 0.526,1.423 0.302,2.126 0.406,2.522 0.192,0.734 0.526,0.838 1.027,0.817 0.963,-0.047 0.989,-0.787 0.989,-0.787 z"
     id="path689" />
  <path
     style="fill:#231f20;fill-opacity:1;fill-rule:nonzero;stroke:none"
     d="m 251.05093,31.971849 c 1.27,-0.271 0.485,-2.152 0.354,-2.672 -0.136,-0.532 -0.333,-2.074 -0.338,-3.298 -0.006,-1.229 -0.531,-2.749 -0.542,-5.077 -0.005,-1.224 -0.781,-2.407 -2.557,-2.324 -1.756,0.084 -2.371,1.1 -2.141,2.579 0.229,1.478 1.073,2.77 1.412,4.245 0.333,1.468 0.536,3.004 0.64,4.219 0.12,1.374 0.688,2.014 1.146,2.156 1.135,0.38 2.026,0.172 2.026,0.172"
     id="path690" />
  <path
     style="fill:none;stroke:#231f20;stroke-width:0.565977;stroke-linecap:butt;stroke-linejoin:miter;stroke-miterlimit:4;stroke-dasharray:none;stroke-opacity:1"
     d="m 251.05093,31.971849 c 1.27,-0.271 0.485,-2.152 0.354,-2.672 -0.136,-0.532 -0.333,-2.074 -0.338,-3.298 -0.006,-1.229 -0.531,-2.749 -0.542,-5.077 -0.005,-1.224 -0.781,-2.407 -2.557,-2.324 -1.756,0.084 -2.371,1.1 -2.141,2.579 0.229,1.478 1.073,2.77 1.412,4.245 0.333,1.468 0.536,3.004 0.64,4.219 0.12,1.374 0.688,2.014 1.146,2.156 1.135,0.38 2.026,0.172 2.026,0.172 z"
     id="path691" />
  <path
     style="fill:#231f20;fill-opacity:1;fill-rule:nonzero;stroke:none"
     d="m 279.83193,32.783849 c 0.516,-2.203 0.917,-2.568 1.86,-2.407 0.635,0.105 1.244,-0.015 1.635,0.032 1.286,0.145 3.396,0.932 8.781,4.713 1.213,0.86 2.943,2.047 3.688,2.479 1.167,0.688 -0.76,2.172 -1.224,1.907 -1.489,-0.844 -2.584,-1.302 -3.161,-1.536 -0.402,-0.156 -1.063,-0.532 -2.672,-0.943 -2.448,-0.625 -4.011,-0.636 -5.984,-1.396 -0.918,-0.349 -1.828,-0.027 -2.552,-0.833 -0.735,-0.803 -0.371,-2.016 -0.371,-2.016"
     id="path692" />
  <path
     style="fill:none;stroke:#231f20;stroke-width:0.565977;stroke-linecap:butt;stroke-linejoin:miter;stroke-miterlimit:4;stroke-dasharray:none;stroke-opacity:1"
     d="m 279.83193,32.783849 c 0.516,-2.203 0.917,-2.568 1.86,-2.407 0.635,0.105 1.244,-0.015 1.635,0.032 1.286,0.145 3.396,0.932 8.781,4.713 1.213,0.86 2.943,2.047 3.688,2.479 1.167,0.688 -0.76,2.172 -1.224,1.907 -1.489,-0.844 -2.584,-1.302 -3.161,-1.536 -0.402,-0.156 -1.063,-0.532 -2.672,-0.943 -2.448,-0.625 -4.011,-0.636 -5.984,-1.396 -0.918,-0.349 -1.828,-0.027 -2.552,-0.833 -0.735,-0.803 -0.371,-2.016 -0.371,-2.016 z"
     id="path693" />
  <path
     style="fill:#231f20;fill-opacity:1;fill-rule:nonzero;stroke:#231f20;stroke-width:0.565977;stroke-linecap:round;stroke-linejoin:round;stroke-miterlimit:4;stroke-dasharray:none;stroke-opacity:1"
     d="m 281.23893,34.845849 c -1.208,0.746 -2.995,-0.453 -3.339,-0.494 -4.959,-0.703 -5.297,-0.88 -9.027,-1.678 -5.41,-1.156 -8.937,-2.776 -9.186,-6.114 -0.162,-2.271 0.724,-3.646 1.906,-4.224 1.312,-0.631 4.495,-0.542 5.968,1.942 l 1.516,0.787 c 1.094,0.407 1.63,0.609 2.187,0.765 0.964,0.271 1.98,0.62 3.833,1.256 3.282,1.124 6.391,3.38 6.391,3.38 0.281,0.11 0.485,0.307 0.615,0.542"
     id="path694" />
  <path
     style="fill:#63c99d;fill-opacity:1;fill-rule:nonzero;stroke:#231f20;stroke-width:0.565977;stroke-linecap:butt;stroke-linejoin:miter;stroke-miterlimit:4;stroke-dasharray:none;stroke-opacity:1"
     d="m 267.43093,24.247849 c -1.562,-2.428 -4.744,-2.396 -6.036,-1.714 -1.156,0.619 -1.99,2.036 -1.74,4.291 0.161,1.464 0.969,2.563 2.261,3.428 0.713,0.755 1.167,1.187 1.973,1.093 0.068,-0.01 0.147,-0.005 0.23,-0.005 0.546,0.203 1.125,0.396 1.76,0.568 z"
     id="path695" />
  <path
     style="fill:#231f20;fill-opacity:1;fill-rule:nonzero;stroke:none"
     d="m 298.05093,38.387849 c -0.406,-1.287 -1.396,-1.35 -2.224,-0.724 -0.25,0.182 -0.656,0.084 -0.88,0.281 -0.531,0.469 -0.574,2.213 0.869,2.62 0.105,0.031 0.792,0.473 1.355,0.735 1.109,0.494 3.562,0.958 5.776,-0.579 1.046,-0.729 0.422,-1.213 -0.088,-1.052 -1.626,0.532 -1.88,0.26 -2.355,0.24 -1.625,-0.052 -2.453,-1.521 -2.453,-1.521"
     id="path696" />
  <path
     style="fill:none;stroke:#231f20;stroke-width:0.332927;stroke-linecap:butt;stroke-linejoin:miter;stroke-miterlimit:4;stroke-dasharray:none;stroke-opacity:1"
     d="m 298.05093,38.387849 c -0.406,-1.287 -1.396,-1.35 -2.224,-0.724 -0.25,0.182 -0.656,0.084 -0.88,0.281 -0.531,0.469 -0.574,2.213 0.869,2.62 0.105,0.031 0.792,0.473 1.355,0.735 1.109,0.494 3.562,0.958 5.776,-0.579 1.046,-0.729 0.422,-1.213 -0.088,-1.052 -1.626,0.532 -1.88,0.26 -2.355,0.24 -1.625,-0.052 -2.453,-1.521 -2.453,-1.521 z"
     id="path697" />
  <path
     style="fill:#231f20;fill-opacity:1;fill-rule:nonzero;stroke:none"
     d="m 248.29093,42.517849 c 0,1.178 0.953,2.135 2.13,2.135 1.176,0 2.135,-0.957 2.135,-2.135 0,-1.177 -0.959,-2.13 -2.135,-2.13 -1.177,0 -2.13,0.953 -2.13,2.13"
     id="path698" />
  <path
     style="fill:#63c99d;fill-opacity:1;fill-rule:nonzero;stroke:none"
     d="m 95.039928,24.580849 c -3.041,0.739 -3.613,1.235 -4.353,1.791 -4.631,3.464 -6.245,1.13 -6.407,-1.75 -0.202,-3.385 -0.338,-4.593 5.886,-5.505 1.74,-0.249 8.255998,-2.088 8.255998,-2.088 2.249004,-0.969 4.957004,-0.724 6.041004,0.249 1.135,1.038 0.609,0.708 1.489,1.855 0.839,1.088 1.104,3.26 0.271,4.167 -0.807,0.88 -2.437,0.536 -4.849,0.353 -1.911004,-0.145 -6.334002,0.928 -6.334002,0.928"
     id="path699" />
  <path
     style="fill:none;stroke:#231f20;stroke-width:0.565977;stroke-linecap:butt;stroke-linejoin:miter;stroke-miterlimit:4;stroke-dasharray:none;stroke-opacity:1"
     d="m 95.039928,24.580849 c -3.041,0.739 -3.613,1.235 -4.353,1.791 -4.631,3.464 -6.245,1.13 -6.407,-1.75 -0.202,-3.385 -0.338,-4.593 5.886,-5.505 1.74,-0.249 8.255998,-2.088 8.255998,-2.088 2.249004,-0.969 4.957004,-0.724 6.041004,0.249 1.135,1.038 0.609,0.708 1.489,1.855 0.839,1.088 1.104,3.26 0.271,4.167 -0.807,0.88 -2.437,0.536 -4.849,0.353 -1.911004,-0.145 -6.334002,0.928 -6.334002,0.928 z"
     id="path700" />
  <path
     style="fill:#ffffff;fill-opacity:1;fill-rule:nonzero;stroke:none"
     d="m 107.84793,11.564849 c 0.188,-0.156 -0.27,-1.208 0.188,-1.453 0.463,-0.25 1,0.333 2.984,0.234 h 0.02 c 1.454,-0.12 2.756,0.359 3.439,1.412 1.124,1.744 0.109,4.4 -2.267,5.932 -2.38,1.531 -5.213,1.348 -6.338,-0.396 -1.078,-1.672 -0.192,-4.182 1.974,-5.729"
     id="path701" />
  <path
     style="fill:none;stroke:#231f20;stroke-width:0.565977;stroke-linecap:butt;stroke-linejoin:miter;stroke-miterlimit:4;stroke-dasharray:none;stroke-opacity:1"
     d="m 107.84793,11.564849 c 0.188,-0.156 -0.27,-1.208 0.188,-1.453 0.463,-0.25 1,0.333 2.984,0.234 h 0.02 c 1.454,-0.12 2.756,0.359 3.439,1.412 1.124,1.744 0.109,4.4 -2.267,5.932 -2.38,1.531 -5.213,1.348 -6.338,-0.396 -1.078,-1.672 -0.192,-4.182 1.974,-5.729 z"
     id="path702" />
  <path
     style="fill:#231f20;fill-opacity:1;fill-rule:nonzero;stroke:none"
     d="m 102.46793,41.543849 c 0.411,-0.495 0.348,-2.448 0.916,-3.948 0.386,-1.015 0.224,-3.755 0.688,-4.734 0.416,-0.906 0.526,-1.36 -0.421,-2.01 -0.563,-0.391 -1.896,-0.776 -2.204,-0.37 -0.724,0.943 -0.959,1.859 -1,2.927 -0.052,1.219 0.104,4.52 0.188,5.131 0.219,1.504 -0.152,2.145 -0.131,2.546 0.036,0.766 0.339,0.938 0.834,1.02 0.942,0.162 1.13,-0.562 1.13,-0.562"
     id="path703" />
  <path
     style="fill:none;stroke:#231f20;stroke-width:0.565977;stroke-linecap:butt;stroke-linejoin:miter;stroke-miterlimit:4;stroke-dasharray:none;stroke-opacity:1"
     d="m 102.46793,41.543849 c 0.411,-0.495 0.348,-2.448 0.916,-3.948 0.386,-1.015 0.224,-3.755 0.688,-4.734 0.416,-0.906 0.526,-1.36 -0.421,-2.01 -0.563,-0.391 -1.896,-0.776 -2.204,-0.37 -0.724,0.943 -0.959,1.859 -1,2.927 -0.052,1.219 0.104,4.52 0.188,5.131 0.219,1.504 -0.152,2.145 -0.131,2.546 0.036,0.766 0.339,0.938 0.834,1.02 0.942,0.162 1.13,-0.562 1.13,-0.562 z"
     id="path704" />
  <path
     style="fill:#231f20;fill-opacity:1;fill-rule:nonzero;stroke:none"
     d="m 103.47393,32.543849 c 1.301,0 0.926,-2.004 0.91,-2.542 -0.014,-0.546 0.11,-2.093 0.371,-3.292 0.255,-1.202 0.061,-2.801 0.541,-5.077 0.255,-1.199 -0.256,-2.521 -2.01,-2.813 -1.73,-0.286 -2.547,0.573 -2.635,2.068 -0.089,1.494 0.463,2.937 0.473,4.442 0.022,1.516 -0.104,3.058 -0.254,4.266 -0.178,1.365 0.238,2.114 0.656,2.349 1.03,0.609 1.948,0.599 1.948,0.599"
     id="path705" />
  <path
     style="fill:none;stroke:#231f20;stroke-width:0.565977;stroke-linecap:butt;stroke-linejoin:miter;stroke-miterlimit:4;stroke-dasharray:none;stroke-opacity:1"
     d="m 103.47393,32.543849 c 1.301,0 0.926,-2.004 0.91,-2.542 -0.014,-0.546 0.11,-2.093 0.371,-3.292 0.255,-1.202 0.061,-2.801 0.541,-5.077 0.255,-1.199 -0.256,-2.521 -2.01,-2.813 -1.73,-0.286 -2.547,0.573 -2.635,2.068 -0.089,1.494 0.463,2.937 0.473,4.442 0.022,1.516 -0.104,3.058 -0.254,4.266 -0.178,1.365 0.238,2.114 0.656,2.349 1.03,0.609 1.948,0.599 1.948,0.599 z"
     id="path706" />
  <path
     style="fill:#231f20;fill-opacity:1;fill-rule:nonzero;stroke:none"
     d="m 68.864928,21.815849 c 0.077,2.26 -0.214,2.713 -1.167,2.801 -0.641,0.063 -1.204,0.344 -1.589,0.401 -1.282,0.192 -3.526,-0.021 -9.708,-2.276 -1.402,-0.51 -3.375,-1.208 -4.208,-1.432 -1.303,-0.354 0.166,-2.297 0.686,-2.157 1.658,0.428 2.834,0.584 3.448,0.657 0.428,0.052 1.162,0.239 2.834,0.219 2.526,-0.032 4.032,-0.428 6.136,-0.213 0.984,0.104 1.776,-0.444 2.682,0.145 0.922,0.588 0.886,1.855 0.886,1.855"
     id="path707" />
  <path
     style="fill:none;stroke:#231f20;stroke-width:0.565977;stroke-linecap:butt;stroke-linejoin:miter;stroke-miterlimit:4;stroke-dasharray:none;stroke-opacity:1"
     d="m 68.864928,21.815849 c 0.077,2.26 -0.214,2.713 -1.167,2.801 -0.641,0.063 -1.204,0.344 -1.589,0.401 -1.282,0.192 -3.526,-0.021 -9.708,-2.276 -1.402,-0.51 -3.375,-1.208 -4.208,-1.432 -1.303,-0.354 0.166,-2.297 0.686,-2.157 1.658,0.428 2.834,0.584 3.448,0.657 0.428,0.052 1.162,0.239 2.834,0.219 2.526,-0.032 4.032,-0.428 6.136,-0.213 0.984,0.104 1.776,-0.444 2.682,0.145 0.922,0.588 0.886,1.855 0.886,1.855 z"
     id="path708" />
  <path
     style="fill:#231f20;fill-opacity:1;fill-rule:nonzero;stroke:#231f20;stroke-width:0.565977;stroke-linecap:round;stroke-linejoin:round;stroke-miterlimit:4;stroke-dasharray:none;stroke-opacity:1"
     d="m 66.968928,20.184849 c 0.973,-1.032 3.016,-0.339 3.349,-0.385 4.979,-0.615 5.353,-0.532 9.165,-0.735 5.521,-0.292 9.344,0.355 10.453,3.516 0.756,2.151 0.256,3.708 -0.738,4.572 -1.104,0.953 -4.194,1.699 -6.267,-0.323 l -1.671,-0.364 c -1.162,-0.109 -1.729,-0.166 -2.308,-0.177 -1,0 -2.078,-0.073 -4.025,-0.203 -3.464,-0.234 -7.053,-1.604 -7.053,-1.604 -0.312,-0.032 -0.552,-0.172 -0.739,-0.365"
     id="path709" />
  <path
     style="fill:#63c99d;fill-opacity:1;fill-rule:nonzero;stroke:none"
     d="m 89.905928,22.315849 c -0.542,-1.376 -1.604,-2.224 -3.079,-2.724 -0.885,-0.543 -1.437,-0.839 -2.187,-0.543 -0.068,0.027 -0.141,0.047 -0.218,0.068 -0.584,-0.057 -1.194,-0.093 -1.855,-0.088 l 0.5,7.801 c 2.145,1.932 5.203,1.079 6.271,0.079 0.958,-0.901 1.396,-2.48 0.568,-4.593"
     id="path710" />
  <path
     style="fill:none;stroke:#231f20;stroke-width:0.565977;stroke-linecap:butt;stroke-linejoin:miter;stroke-miterlimit:4;stroke-dasharray:none;stroke-opacity:1"
     d="m 89.905928,22.315849 c -0.542,-1.376 -1.604,-2.224 -3.079,-2.724 -0.885,-0.543 -1.437,-0.839 -2.187,-0.543 -0.068,0.027 -0.141,0.047 -0.218,0.068 -0.584,-0.057 -1.194,-0.093 -1.855,-0.088 l 0.5,7.801 c 2.145,1.932 5.203,1.079 6.271,0.079 0.958,-0.901 1.396,-2.48 0.568,-4.593 z"
     id="path711" />
  <path
     style="fill:#231f20;fill-opacity:1;fill-rule:nonzero;stroke:none"
     d="m 49.812928,21.137849 c 0.728,1.14 1.697,0.943 2.333,0.124 0.197,-0.244 0.615,-0.254 0.776,-0.504 0.385,-0.589 -0.021,-2.281 -1.521,-2.302 -0.104,0 -0.886,-0.255 -1.495,-0.355 -1.203,-0.192 -3.688,-0.005 -5.423,2.057 -0.822,0.98 -0.098,1.287 0.355,0.995 1.437,-0.937 1.745,-0.739 2.213,-0.843 1.579,-0.37 2.762,0.828 2.762,0.828"
     id="path712" />
  <path
     style="fill:none;stroke:#231f20;stroke-width:0.332927;stroke-linecap:butt;stroke-linejoin:miter;stroke-miterlimit:4;stroke-dasharray:none;stroke-opacity:1"
     d="m 49.812928,21.137849 c 0.728,1.14 1.697,0.943 2.333,0.124 0.197,-0.244 0.615,-0.254 0.776,-0.504 0.385,-0.589 -0.021,-2.281 -1.521,-2.302 -0.104,0 -0.886,-0.255 -1.495,-0.355 -1.203,-0.192 -3.688,-0.005 -5.423,2.057 -0.822,0.98 -0.098,1.287 0.355,0.995 1.437,-0.937 1.745,-0.739 2.213,-0.843 1.579,-0.37 2.762,0.828 2.762,0.828 z"
     id="path713" />
  <path
     style="fill:#231f20;fill-opacity:1;fill-rule:nonzero;stroke:none"
     d="m 98.539926,42.267849 c -0.249,1.152 0.486,2.286 1.636004,2.537 1.151,0.249 2.287,-0.485 2.536,-1.636 0.251,-1.151 -0.484,-2.287 -1.634,-2.536 -1.151004,-0.251 -2.287004,0.484 -2.538004,1.635"
     id="path714" />
  <path
     style="fill:none;stroke:#231f20;stroke-width:0.399514;stroke-linecap:butt;stroke-linejoin:miter;stroke-miterlimit:4;stroke-dasharray:none;stroke-opacity:1"
     d="m 188.57793,48.111849 c 23.781,11.682 47.082,-13.542 49.849,-20.26"
     id="path715" />
  <path
     style="fill:#231f20;fill-opacity:1;fill-rule:nonzero;stroke:none"
     d="m 238.88393,26.736849 c -0.025,0.604 0.043,1.391 0.229,1.937 l -0.749,-0.677 -1.005,-0.041 c 0.514,-0.26 1.114,-0.776 1.525,-1.219"
     id="path716" />
</svg>
