<?xml version="1.0" encoding="UTF-8" standalone="no"?>
<!-- Created with Inkscape (http://www.inkscape.org/) -->

<svg
   version="1.1"
   id="svg1"
   width="346.59488"
   height="89.087273"
   viewBox="0 0 346.59486 89.087272"
   sodipodi:docname="cell.svg"
   xmlns:inkscape="http://www.inkscape.org/namespaces/inkscape"
   xmlns:sodipodi="http://sodipodi.sourceforge.net/DTD/sodipodi-0.dtd"
   xmlns="http://www.w3.org/2000/svg"
   xmlns:svg="http://www.w3.org/2000/svg">
  <sodipodi:namedview
     id="namedview1"
     pagecolor="#ffffff"
     bordercolor="#000000"
     borderopacity="0.25"
     inkscape:showpageshadow="2"
     inkscape:pageopacity="0.0"
     inkscape:pagecheckerboard="0"
     inkscape:deskcolor="#d1d1d1">
    <inkscape:page
       x="3.3462453e-14"
       y="9.4204402e-14"
       inkscape:label="1"
       id="page1"
       width="346.59485"
       height="89.087273"
       margin="0"
       bleed="0" />
  </sodipodi:namedview>
  <defs
     id="defs1" />
  <path
     style="fill:#63c99d;fill-opacity:1;fill-rule:nonzero;stroke:none"
     d="m 53.472928,36.882988 c -3.036,0.776 -3.61,1.276 -4.339,1.843 -4.588,3.516 -6.229,1.193 -6.421,-1.681 -0.246,-3.382 -0.396,-4.59 5.817,-5.568 1.74,-0.271 8.235,-2.178 8.235,-2.178 2.238,-1 4.953,-0.781 6.046,0.183 1.146,1.02 0.615,0.697 1.506,1.833 0.849,1.083 1.145,3.25 0.322,4.167 -0.797,0.885 -2.432,0.563 -4.849,0.405 -1.911,-0.124 -6.317,0.996 -6.317,0.996"
     id="path967" />
  <path
     style="fill:none;stroke:#231f20;stroke-width:0.565977;stroke-linecap:butt;stroke-linejoin:miter;stroke-miterlimit:4;stroke-dasharray:none;stroke-opacity:1"
     d="m 53.472928,36.882988 c -3.036,0.776 -3.61,1.276 -4.339,1.843 -4.588,3.516 -6.229,1.193 -6.421,-1.681 -0.246,-3.382 -0.396,-4.59 5.817,-5.568 1.74,-0.271 8.235,-2.178 8.235,-2.178 2.238,-1 4.953,-0.781 6.046,0.183 1.146,1.02 0.615,0.697 1.506,1.833 0.849,1.083 1.145,3.25 0.322,4.167 -0.797,0.885 -2.432,0.563 -4.849,0.405 -1.911,-0.124 -6.317,0.996 -6.317,0.996 z"
     id="path968" />
  <path
     style="fill:#ffffff;fill-opacity:1;fill-rule:nonzero;stroke:none"
     d="m 63.576928,23.449988 c 0.104,-0.213 -0.766,-0.973 -0.448,-1.391 0.317,-0.421 1.046,-0.118 2.808,-1.052 l 0.014,-0.014 c 1.267,-0.724 2.647,-0.844 3.71,-0.178 1.76,1.104 1.968,3.943 0.468,6.334 -1.506,2.396 -4.151,3.432 -5.906,2.333 -1.682,-1.057 -1.948,-3.704 -0.646,-6.032"
     id="path969" />
  <path
     style="fill:none;stroke:#231f20;stroke-width:0.565977;stroke-linecap:butt;stroke-linejoin:miter;stroke-miterlimit:4;stroke-dasharray:none;stroke-opacity:1"
     d="m 63.576928,23.449988 c 0.104,-0.213 -0.766,-0.973 -0.448,-1.391 0.317,-0.421 1.046,-0.118 2.808,-1.052 l 0.014,-0.014 c 1.267,-0.724 2.647,-0.844 3.71,-0.178 1.76,1.104 1.968,3.943 0.468,6.334 -1.506,2.396 -4.151,3.432 -5.906,2.333 -1.682,-1.057 -1.948,-3.704 -0.646,-6.032 z"
     id="path970" />
  <path
     style="fill:#231f20;fill-opacity:1;fill-rule:nonzero;stroke:none"
     d="m 27.846928,30.762988 c -0.396,2.23 -0.781,2.61 -1.729,2.5 -0.635,-0.073 -1.239,0.083 -1.635,0.058 -1.292,-0.079 -3.442,-0.756 -9.021,-4.251 -1.265,-0.787 -3.041,-1.891 -3.817,-2.276 -1.199,-0.62 0.645,-2.213 1.125,-1.968 1.531,0.765 2.651,1.161 3.233,1.359 0.407,0.141 1.09,0.478 2.724,0.802 2.48,0.5 4.032,0.427 6.048,1.078 0.938,0.302 1.828,-0.063 2.594,0.704 0.781,0.76 0.478,1.994 0.478,1.994"
     id="path971" />
  <path
     style="fill:none;stroke:#231f20;stroke-width:0.565977;stroke-linecap:butt;stroke-linejoin:miter;stroke-miterlimit:4;stroke-dasharray:none;stroke-opacity:1"
     d="m 27.846928,30.762988 c -0.396,2.23 -0.781,2.61 -1.729,2.5 -0.635,-0.073 -1.239,0.083 -1.635,0.058 -1.292,-0.079 -3.442,-0.756 -9.021,-4.251 -1.265,-0.787 -3.041,-1.891 -3.817,-2.276 -1.199,-0.62 0.645,-2.213 1.125,-1.968 1.531,0.765 2.651,1.161 3.233,1.359 0.407,0.141 1.09,0.478 2.724,0.802 2.48,0.5 4.032,0.427 6.048,1.078 0.938,0.302 1.828,-0.063 2.594,0.704 0.781,0.76 0.478,1.994 0.478,1.994 z"
     id="path972" />
  <path
     style="fill:#231f20;fill-opacity:1;fill-rule:nonzero;stroke:#231f20;stroke-width:0.565977;stroke-linecap:round;stroke-linejoin:round;stroke-miterlimit:4;stroke-dasharray:none;stroke-opacity:1"
     d="m 26.332928,28.773988 c 1.17,-0.808 3.02,0.296 3.358,0.317 4.995,0.443 5.344,0.604 9.11,1.203 5.469,0.86 9.073,2.287 9.5,5.615 0.286,2.256 -0.526,3.677 -1.683,4.312 -1.281,0.709 -4.452,0.786 -6.057,-1.614 l -1.558,-0.709 c -1.113,-0.348 -1.661,-0.525 -2.218,-0.651 -0.979,-0.213 -2.02,-0.51 -3.9,-1.046 -3.339,-0.948 -6.563,-3.036 -6.563,-3.036 -0.297,-0.095 -0.505,-0.282 -0.652,-0.511"
     id="path973" />
  <path
     style="fill:#63c99d;fill-opacity:1;fill-rule:nonzero;stroke:none"
     d="m 48.321928,35.642988 c -0.24,-1.453 -1.099,-2.51 -2.437,-3.302 -0.756,-0.719 -1.235,-1.124 -2.032,-0.99 -0.074,0.011 -0.151,0.016 -0.23,0.016 -0.562,-0.172 -1.15,-0.333 -1.79,-0.469 l -1.142,7.729 c 1.694,2.339 4.866,2.142 6.115,1.391 1.125,-0.683 1.88,-2.135 1.516,-4.375"
     id="path974" />
  <path
     style="fill:none;stroke:#231f20;stroke-width:0.565977;stroke-linecap:butt;stroke-linejoin:miter;stroke-miterlimit:4;stroke-dasharray:none;stroke-opacity:1"
     d="m 48.321928,35.642988 c -0.24,-1.453 -1.099,-2.51 -2.437,-3.302 -0.756,-0.719 -1.235,-1.124 -2.032,-0.99 -0.074,0.011 -0.151,0.016 -0.23,0.016 -0.562,-0.172 -1.15,-0.333 -1.79,-0.469 l -1.142,7.729 c 1.694,2.339 4.866,2.142 6.115,1.391 1.125,-0.683 1.88,-2.135 1.516,-4.375 z"
     id="path975" />
  <path
     style="fill:#231f20;fill-opacity:1;fill-rule:nonzero;stroke:none"
     d="m 9.357928,26.132988 c 0.469,1.26 1.464,1.27 2.256,0.604 0.239,-0.192 0.651,-0.12 0.864,-0.334 0.5,-0.494 0.459,-2.234 -1.011,-2.568 -0.104,-0.02 -0.806,-0.432 -1.385,-0.661 -1.14,-0.437 -3.609,-0.771 -5.74,0.885 -1.005,0.787 -0.353,1.235 0.147,1.048 1.598,-0.614 1.858,-0.36 2.338,-0.365 1.624,-0.036 2.531,1.391 2.531,1.391"
     id="path976" />
  <path
     style="fill:none;stroke:#231f20;stroke-width:0.332927;stroke-linecap:butt;stroke-linejoin:miter;stroke-miterlimit:4;stroke-dasharray:none;stroke-opacity:1"
     d="m 9.357928,26.132988 c 0.469,1.26 1.464,1.27 2.256,0.604 0.239,-0.192 0.651,-0.12 0.864,-0.334 0.5,-0.494 0.459,-2.234 -1.011,-2.568 -0.104,-0.02 -0.806,-0.432 -1.385,-0.661 -1.14,-0.437 -3.609,-0.771 -5.74,0.885 -1.005,0.787 -0.353,1.235 0.147,1.048 1.598,-0.614 1.858,-0.36 2.338,-0.365 1.624,-0.036 2.531,1.391 2.531,1.391 z"
     id="path977" />
  <path
     style="fill:#231f20;fill-opacity:1;fill-rule:nonzero;stroke:none"
     d="m 308.79193,33.716988 c -0.43,-0.595 -1.33,-3.715 -1.51,-4.439 -0.15,-0.64 -0.76,-1.629 0.13,-2.353 0.36,-0.298 1.1,-0.475 1.41,-0.464 0.26,0.01 0.44,0.286 0.49,0.677 0.1,0.661 -0.13,0.891 -0.01,2.167 0,0 -0.02,0.302 -0.1,0.838 -0.19,1.62 -0.25,0.891 -0.01,3.302 0.02,0.172 -0.14,0.308 -0.26,0.318 -0.18,-0.005 -0.14,-0.046 -0.14,-0.046"
     id="path978" />
  <path
     style="fill:none;stroke:#231f20;stroke-width:0.565977;stroke-linecap:round;stroke-linejoin:round;stroke-miterlimit:4;stroke-dasharray:none;stroke-opacity:1"
     d="m 308.79193,33.716988 c -0.43,-0.595 -1.33,-3.715 -1.51,-4.439 -0.15,-0.64 -0.76,-1.629 0.13,-2.353 0.36,-0.298 1.1,-0.475 1.41,-0.464 0.26,0.01 0.44,0.286 0.49,0.677 0.1,0.661 -0.13,0.891 -0.01,2.167 0,0 -0.02,0.302 -0.1,0.838 -0.19,1.62 -0.25,0.891 -0.01,3.302 0.02,0.172 -0.14,0.308 -0.26,0.318 -0.18,-0.005 -0.14,-0.046 -0.14,-0.046 z"
     id="path979" />
  <path
     style="fill:#231f20;fill-opacity:1;fill-rule:nonzero;stroke:none"
     d="m 90.998928,70.444988 c -0.36,0.49 -0.756,1.172 -0.917,1.729 l -0.229,-0.984 -0.802,-0.609 c 0.572,0.078 1.359,0 1.948,-0.136"
     id="path981" />
  <path
     style="fill:#63c99d;fill-opacity:1;fill-rule:nonzero;stroke:none"
     d="m 96.893928,41.189988 c 1.496,2.751 2.12,3.183 2.839,3.755 4.526002,3.594 2.677002,5.75 -0.063,6.641 -3.224,1.052 -4.364,1.495 -6.823,-4.297 -0.681,-1.62 -4.114,-7.458 -4.114,-7.458 -1.515,-1.928 -1.963,-4.61 -1.291,-5.906 0.713,-1.36 0.531,-0.766 1.411,-1.907 0.844,-1.093 2.874,-1.901 3.969,-1.323 1.052,0.558 1.135,2.219 1.568,4.604 0.348,1.88 2.504,5.891 2.504,5.891"
     id="path982" />
  <path
     style="fill:none;stroke:#231f20;stroke-width:0.565977;stroke-linecap:butt;stroke-linejoin:miter;stroke-miterlimit:4;stroke-dasharray:none;stroke-opacity:1"
     d="m 96.893928,41.189988 c 1.496,2.751 2.12,3.183 2.839,3.755 4.526002,3.594 2.677002,5.75 -0.063,6.641 -3.224,1.052 -4.364,1.495 -6.823,-4.297 -0.681,-1.62 -4.114,-7.458 -4.114,-7.458 -1.515,-1.928 -1.963,-4.61 -1.291,-5.906 0.713,-1.36 0.531,-0.766 1.411,-1.907 0.844,-1.093 2.874,-1.901 3.969,-1.323 1.052,0.558 1.135,2.219 1.568,4.604 0.348,1.88 2.504,5.891 2.504,5.891 z"
     id="path983" />
  <path
     style="fill:#ffffff;fill-opacity:1;fill-rule:nonzero;stroke:none"
     d="m 85.002928,26.273988 c -0.104,-0.22 -1.238,-0.037 -1.358,-0.543 -0.126,-0.514 0.573,-0.885 0.973,-2.833 v -0.02 c 0.245,-1.437 1.037,-2.579 2.229,-2.975 1.975,-0.65 4.287,0.995 5.178,3.672 0.885,2.688 0,5.391 -1.964,6.047 -1.891,0.62 -4.099,-0.859 -5.058,-3.348"
     id="path984" />
  <path
     style="fill:none;stroke:#231f20;stroke-width:0.565977;stroke-linecap:butt;stroke-linejoin:miter;stroke-miterlimit:4;stroke-dasharray:none;stroke-opacity:1"
     d="m 85.002928,26.273988 c -0.104,-0.22 -1.238,-0.037 -1.358,-0.543 -0.126,-0.514 0.573,-0.885 0.973,-2.833 v -0.02 c 0.245,-1.437 1.037,-2.579 2.229,-2.975 1.975,-0.65 4.287,0.995 5.178,3.672 0.885,2.688 0,5.391 -1.964,6.047 -1.891,0.62 -4.099,-0.859 -5.058,-3.348 z"
     id="path985" />
  <path
     style="fill:#231f20;fill-opacity:1;fill-rule:nonzero;stroke:none"
     d="m 104.35293,65.939988 c 2.032,-1 2.557,-0.917 3.037,-0.083 0.323,0.552 0.807,0.948 1.015,1.276 0.713,1.088 1.437,3.218 1.948,9.781 0.114,1.484 0.286,3.573 0.432,4.421 0.214,1.334 -2.156,0.798 -2.25,0.267 -0.292,-1.688 -0.641,-2.819 -0.822,-3.412 -0.131,-0.407 -0.267,-1.162 -0.98,-2.667 -1.072,-2.287 -2.052,-3.5 -2.724,-5.505 -0.318,-0.932 -1.14,-1.432 -0.974,-2.5 0.146,-1.083 1.318,-1.578 1.318,-1.578"
     id="path986" />
  <path
     style="fill:none;stroke:#231f20;stroke-width:0.565977;stroke-linecap:butt;stroke-linejoin:miter;stroke-miterlimit:4;stroke-dasharray:none;stroke-opacity:1"
     d="m 104.35293,65.939988 c 2.032,-1 2.557,-0.917 3.037,-0.083 0.323,0.552 0.807,0.948 1.015,1.276 0.713,1.088 1.437,3.218 1.948,9.781 0.114,1.484 0.286,3.573 0.432,4.421 0.214,1.334 -2.156,0.798 -2.25,0.267 -0.292,-1.688 -0.641,-2.819 -0.822,-3.412 -0.131,-0.407 -0.267,-1.162 -0.98,-2.667 -1.072,-2.287 -2.052,-3.5 -2.724,-5.505 -0.318,-0.932 -1.14,-1.432 -0.974,-2.5 0.146,-1.083 1.318,-1.578 1.318,-1.578 z"
     id="path987" />
  <path
     style="fill:#231f20;fill-opacity:1;fill-rule:nonzero;stroke:#231f20;stroke-width:0.565977;stroke-linecap:round;stroke-linejoin:round;stroke-miterlimit:4;stroke-dasharray:none;stroke-opacity:1"
     d="m 103.65493,68.345988 c -1.344,-0.463 -1.557,-2.604 -1.74,-2.891 -2.609002,-4.281 -2.692002,-4.656 -4.453002,-8.046 -2.547,-4.907 -3.536,-8.656 -1.115,-10.968 1.647,-1.579 3.271,-1.767 4.470002,-1.215 1.322,0.609 3.276,3.12 2.296,5.839 l 0.354,1.666 c 0.386,1.104 0.568,1.647 0.798,2.178 0.41,0.912 0.786,1.922 1.473,3.75 1.219,3.255 1.453,7.088 1.453,7.088 0.099,0.298 0.079,0.574 -0.021,0.823"
     id="path988" />
  <path
     style="fill:#63c99d;fill-opacity:1;fill-rule:nonzero;stroke:none"
     d="m 100.54093,45.194988 c -1.224002,-0.5 -2.839002,-0.245 -4.423002,1.38 -1.031,1.063 -1.364,2.386 -1.208,3.932 -0.125,1.027 -0.172,1.652 0.412,2.214 0.052,0.048 0.099,0.11 0.151,0.172 0.193,0.557 0.406,1.125 0.682,1.724 l 6.902002,-3.676 c 0.874,-2.751 -1.172,-5.183 -2.516,-5.746"
     id="path989" />
  <path
     style="fill:none;stroke:#231f20;stroke-width:0.565977;stroke-linecap:butt;stroke-linejoin:miter;stroke-miterlimit:4;stroke-dasharray:none;stroke-opacity:1"
     d="m 100.54093,45.194988 c -1.224002,-0.5 -2.839002,-0.245 -4.423002,1.38 -1.031,1.063 -1.364,2.386 -1.208,3.932 -0.125,1.027 -0.172,1.652 0.412,2.214 0.052,0.048 0.099,0.11 0.151,0.172 0.193,0.557 0.406,1.125 0.682,1.724 l 6.902002,-3.676 c 0.874,-2.751 -1.172,-5.183 -2.516,-5.746 z"
     id="path990" />
  <path
     style="fill:#231f20;fill-opacity:1;fill-rule:nonzero;stroke:none"
     d="m 111.61393,83.574988 c 0.733,-1.135 0.145,-1.937 -0.855,-2.182 -0.302,-0.072 -0.484,-0.448 -0.781,-0.495 -0.697,-0.11 -2.073,0.964 -1.469,2.338 0.048,0.099 0.136,0.913 0.297,1.511 0.323,1.172 1.521,3.36 4.115,4.088 1.229,0.344 1.213,-0.442 0.76,-0.738 -1.448,-0.923 -1.396,-1.282 -1.687,-1.662 -0.985,-1.286 -0.38,-2.86 -0.38,-2.86"
     id="path991" />
  <path
     style="fill:none;stroke:#231f20;stroke-width:0.332927;stroke-linecap:butt;stroke-linejoin:miter;stroke-miterlimit:4;stroke-dasharray:none;stroke-opacity:1"
     d="m 111.61393,83.574988 c 0.733,-1.135 0.145,-1.937 -0.855,-2.182 -0.302,-0.072 -0.484,-0.448 -0.781,-0.495 -0.697,-0.11 -2.073,0.964 -1.469,2.338 0.048,0.099 0.136,0.913 0.297,1.511 0.323,1.172 1.521,3.36 4.115,4.088 1.229,0.344 1.213,-0.442 0.76,-0.738 -1.448,-0.923 -1.396,-1.282 -1.687,-1.662 -0.985,-1.286 -0.38,-2.86 -0.38,-2.86 z"
     id="path992" />
  <path
     style="fill:#63c99d;fill-opacity:1;fill-rule:nonzero;stroke:none"
     d="m 332.76193,41.189988 c -1.49,2.751 -2.11,3.183 -2.84,3.755 -4.52,3.594 -2.67,5.75 0.07,6.641 3.22,1.052 4.36,1.495 6.82,-4.297 0.68,-1.62 4.11,-7.458 4.11,-7.458 1.52,-1.928 1.97,-4.61 1.3,-5.906 -0.72,-1.36 -0.53,-0.766 -1.42,-1.907 -0.84,-1.093 -2.87,-1.901 -3.97,-1.323 -1.05,0.558 -1.13,2.219 -1.56,4.604 -0.35,1.88 -2.51,5.891 -2.51,5.891"
     id="path993" />
  <path
     style="fill:none;stroke:#231f20;stroke-width:0.565977;stroke-linecap:butt;stroke-linejoin:miter;stroke-miterlimit:4;stroke-dasharray:none;stroke-opacity:1"
     d="m 332.76193,41.189988 c -1.49,2.751 -2.11,3.183 -2.84,3.755 -4.52,3.594 -2.67,5.75 0.07,6.641 3.22,1.052 4.36,1.495 6.82,-4.297 0.68,-1.62 4.11,-7.458 4.11,-7.458 1.52,-1.928 1.97,-4.61 1.3,-5.906 -0.72,-1.36 -0.53,-0.766 -1.42,-1.907 -0.84,-1.093 -2.87,-1.901 -3.97,-1.323 -1.05,0.558 -1.13,2.219 -1.56,4.604 -0.35,1.88 -2.51,5.891 -2.51,5.891 z"
     id="path994" />
  <path
     style="fill:#ffffff;fill-opacity:1;fill-rule:nonzero;stroke:none"
     d="m 344.65193,26.273988 c 0.1,-0.22 1.24,-0.037 1.36,-0.543 0.13,-0.514 -0.57,-0.885 -0.97,-2.833 l -0.01,-0.02 c -0.24,-1.437 -1.03,-2.579 -2.22,-2.975 -1.98,-0.65 -4.29,0.995 -5.18,3.672 -0.88,2.688 0,5.391 1.97,6.047 1.89,0.62 4.09,-0.859 5.05,-3.348"
     id="path995" />
  <path
     style="fill:none;stroke:#231f20;stroke-width:0.565977;stroke-linecap:butt;stroke-linejoin:miter;stroke-miterlimit:4;stroke-dasharray:none;stroke-opacity:1"
     d="m 344.65193,26.273988 c 0.1,-0.22 1.24,-0.037 1.36,-0.543 0.13,-0.514 -0.57,-0.885 -0.97,-2.833 l -0.01,-0.02 c -0.24,-1.437 -1.03,-2.579 -2.22,-2.975 -1.98,-0.65 -4.29,0.995 -5.18,3.672 -0.88,2.688 0,5.391 1.97,6.047 1.89,0.62 4.09,-0.859 5.05,-3.348 z"
     id="path996" />
  <path
     style="fill:#231f20;fill-opacity:1;fill-rule:nonzero;stroke:none"
     d="m 325.30193,65.939988 c -2.02,-1 -2.55,-0.917 -3.03,-0.083 -0.33,0.552 -0.81,0.948 -1.02,1.276 -0.71,1.088 -1.44,3.218 -1.95,9.781 -0.11,1.484 -0.29,3.573 -0.43,4.421 -0.21,1.334 2.16,0.798 2.25,0.267 0.29,-1.688 0.64,-2.819 0.83,-3.412 0.13,-0.407 0.26,-1.162 0.97,-2.667 1.07,-2.287 2.06,-3.5 2.73,-5.505 0.31,-0.932 1.14,-1.432 0.97,-2.5 -0.14,-1.083 -1.32,-1.578 -1.32,-1.578"
     id="path997" />
  <path
     style="fill:none;stroke:#231f20;stroke-width:0.565977;stroke-linecap:butt;stroke-linejoin:miter;stroke-miterlimit:4;stroke-dasharray:none;stroke-opacity:1"
     d="m 325.30193,65.939988 c -2.02,-1 -2.55,-0.917 -3.03,-0.083 -0.33,0.552 -0.81,0.948 -1.02,1.276 -0.71,1.088 -1.44,3.218 -1.95,9.781 -0.11,1.484 -0.29,3.573 -0.43,4.421 -0.21,1.334 2.16,0.798 2.25,0.267 0.29,-1.688 0.64,-2.819 0.83,-3.412 0.13,-0.407 0.26,-1.162 0.97,-2.667 1.07,-2.287 2.06,-3.5 2.73,-5.505 0.31,-0.932 1.14,-1.432 0.97,-2.5 -0.14,-1.083 -1.32,-1.578 -1.32,-1.578 z"
     id="path998" />
  <path
     style="fill:#231f20;fill-opacity:1;fill-rule:nonzero;stroke:#231f20;stroke-width:0.565977;stroke-linecap:round;stroke-linejoin:round;stroke-miterlimit:4;stroke-dasharray:none;stroke-opacity:1"
     d="m 326.00193,68.345988 c 1.34,-0.463 1.55,-2.604 1.74,-2.891 2.61,-4.281 2.69,-4.656 4.45,-8.046 2.55,-4.907 3.54,-8.656 1.12,-10.968 -1.65,-1.579 -3.27,-1.767 -4.47,-1.215 -1.32,0.609 -3.28,3.12 -2.3,5.839 l -0.36,1.666 c -0.38,1.104 -0.56,1.647 -0.79,2.178 -0.41,0.912 -0.78,1.922 -1.47,3.75 -1.22,3.255 -1.46,7.088 -1.46,7.088 -0.09,0.298 -0.07,0.574 0.03,0.823"
     id="path999" />
  <path
     style="fill:#63c99d;fill-opacity:1;fill-rule:nonzero;stroke:none"
     d="m 334.75193,50.511988 c 0.15,-1.551 -0.18,-2.874 -1.21,-3.931 -1.59,-1.631 -3.21,-1.886 -4.42,-1.386 -1.34,0.563 -3.4,2.995 -2.51,5.746 l 6.89,3.676 c 0.27,-0.599 0.5,-1.167 0.68,-1.719 0.05,-0.067 0.1,-0.129 0.15,-0.177 0.59,-0.556 0.54,-1.182 0.42,-2.209"
     id="path1000" />
  <path
     style="fill:none;stroke:#231f20;stroke-width:0.565977;stroke-linecap:butt;stroke-linejoin:miter;stroke-miterlimit:4;stroke-dasharray:none;stroke-opacity:1"
     d="m 334.75193,50.511988 c 0.15,-1.551 -0.18,-2.874 -1.21,-3.931 -1.59,-1.631 -3.21,-1.886 -4.42,-1.386 -1.34,0.563 -3.4,2.995 -2.51,5.746 l 6.89,3.676 c 0.27,-0.599 0.5,-1.167 0.68,-1.719 0.05,-0.067 0.1,-0.129 0.15,-0.177 0.59,-0.556 0.54,-1.182 0.42,-2.209 z"
     id="path1001" />
  <path
     style="fill:#231f20;fill-opacity:1;fill-rule:nonzero;stroke:none"
     d="m 318.05193,83.574988 c -0.74,-1.135 -0.16,-1.937 0.85,-2.182 0.3,-0.072 0.48,-0.448 0.78,-0.495 0.7,-0.11 2.07,0.964 1.46,2.338 -0.04,0.099 -0.13,0.913 -0.29,1.511 -0.32,1.172 -1.53,3.36 -4.11,4.088 -1.24,0.344 -1.22,-0.442 -0.76,-0.738 1.44,-0.923 1.39,-1.282 1.68,-1.662 0.99,-1.286 0.39,-2.86 0.39,-2.86"
     id="path1002" />
  <path
     style="fill:none;stroke:#231f20;stroke-width:0.332927;stroke-linecap:butt;stroke-linejoin:miter;stroke-miterlimit:4;stroke-dasharray:none;stroke-opacity:1"
     d="m 318.05193,83.574988 c -0.74,-1.135 -0.16,-1.937 0.85,-2.182 0.3,-0.072 0.48,-0.448 0.78,-0.495 0.7,-0.11 2.07,0.964 1.46,2.338 -0.04,0.099 -0.13,0.913 -0.29,1.511 -0.32,1.172 -1.53,3.36 -4.11,4.088 -1.24,0.344 -1.22,-0.442 -0.76,-0.738 1.44,-0.923 1.39,-1.282 1.68,-1.662 0.99,-1.286 0.39,-2.86 0.39,-2.86 z"
     id="path1003" />
  <path
     style="fill:#ffffff;fill-opacity:1;fill-rule:nonzero;stroke:none"
     d="m 0.332928,55.992988 c 0,0.686 0.552,1.238 1.238,1.238 H 345.02193 c 0.68,0 1.24,-0.552 1.24,-1.238 0,-0.688 -0.56,-1.241 -1.24,-1.241 H 1.570928 c -0.686,0 -1.238,0.553 -1.238,1.241"
     id="path1004" />
  <path
     style="fill:none;stroke:#231f20;stroke-width:0.665856;stroke-linecap:butt;stroke-linejoin:miter;stroke-miterlimit:4;stroke-dasharray:none;stroke-opacity:1"
     d="m 0.332928,55.992988 c 0,0.686 0.552,1.238 1.238,1.238 H 345.02193 c 0.68,0 1.24,-0.552 1.24,-1.238 0,-0.688 -0.56,-1.241 -1.24,-1.241 H 1.570928 c -0.686,0 -1.238,0.553 -1.238,1.241 z"
     id="path1005" />
  <path
     style="fill:#ffffff;fill-opacity:1;fill-rule:nonzero;stroke:none"
     d="m 288.93193,25.345988 c -2.23,-0.364 -2.71,-0.129 -2.93,0.803 -0.14,0.625 -0.49,1.15 -0.59,1.52 -0.36,1.25 -0.43,3.5 1,9.922 0.34,1.454 0.78,3.5 0.89,4.354 0.19,1.338 2.3,0.13 2.23,-0.406 -0.22,-1.698 -0.22,-2.88 -0.21,-3.505 0,-0.427 -0.09,-1.183 0.14,-2.833 0.36,-2.5 0.94,-3.948 1,-6.063 0.03,-0.989 0.67,-1.708 0.2,-2.683 -0.46,-0.978 -1.73,-1.109 -1.73,-1.109"
     id="path1006" />
  <path
     style="fill:none;stroke:#231f20;stroke-width:0.565977;stroke-linecap:butt;stroke-linejoin:miter;stroke-miterlimit:4;stroke-dasharray:none;stroke-opacity:1"
     d="m 288.93193,25.345988 c -2.23,-0.364 -2.71,-0.129 -2.93,0.803 -0.14,0.625 -0.49,1.15 -0.59,1.52 -0.36,1.25 -0.43,3.5 1,9.922 0.34,1.454 0.78,3.5 0.89,4.354 0.19,1.338 2.3,0.13 2.23,-0.406 -0.22,-1.698 -0.22,-2.88 -0.21,-3.505 0,-0.427 -0.09,-1.183 0.14,-2.833 0.36,-2.5 0.94,-3.948 1,-6.063 0.03,-0.989 0.67,-1.708 0.2,-2.683 -0.46,-0.978 -1.73,-1.109 -1.73,-1.109 z"
     id="path1007" />
  <path
     style="fill:#ffffff;fill-opacity:1;fill-rule:nonzero;stroke:#231f20;stroke-width:0.565977;stroke-linecap:round;stroke-linejoin:round;stroke-miterlimit:4;stroke-dasharray:none;stroke-opacity:1"
     d="m 290.31193,27.434988 c 1.14,-0.833 0.72,-2.948 0.81,-3.276 1.24,-4.854 1.2,-5.234 1.89,-8.994 1,-5.4389995 0.85,-9.3189995 -2.14,-10.8189995 -2.04,-1.02 -3.65,-0.724 -4.63,0.152 -1.09,0.973 -2.22,3.943 -0.49,6.2549995 l 0.15,1.708 c -0.04,1.161 -0.06,1.734 -0.12,2.308 -0.12,0.989 -0.18,2.066 -0.31,4.02 -0.21,3.469 0.69,7.204 0.69,7.204 -0.01,0.306 0.1,0.561 0.27,0.776"
     id="path1008" />
  <path
     style="fill:#63c99d;fill-opacity:1;fill-rule:nonzero;stroke:none"
     d="m 291.12193,4.4139885 c -1.99,-1.088 -3.61,-0.86 -4.63,-0.027 -1.12,0.939 -2.36,3.86 -0.71,6.2349995 l 7.66,1.485 c 0.49,-3.7289995 0,-6.4169995 -2.32,-7.6929995"
     id="path1009" />
  <path
     style="fill:none;stroke:#231f20;stroke-width:0.565977;stroke-linecap:butt;stroke-linejoin:miter;stroke-miterlimit:4;stroke-dasharray:none;stroke-opacity:1"
     d="m 291.12193,4.4139885 c -1.99,-1.088 -3.61,-0.86 -4.63,-0.027 -1.12,0.939 -2.36,3.86 -0.71,6.2349995 l 7.66,1.485 c 0.49,-3.7289995 0,-6.4169995 -2.32,-7.6929995 z"
     id="path1010" />
  <path
     style="fill:#231f20;fill-opacity:1;fill-rule:nonzero;stroke:none"
     d="m 287.28193,44.913988 c -1.04,-0.869 -0.72,-1.807 0.17,-2.339 0.27,-0.156 0.33,-0.573 0.6,-0.697 0.64,-0.313 2.27,0.307 2.09,1.801 -0.01,0.104 0.14,0.907 0.16,1.532 0.04,1.213 -0.47,3.662 -2.73,5.11 -1.08,0.691 -1.29,-0.063 -0.94,-0.475 1.11,-1.307 0.95,-1.64 1.12,-2.088 0.57,-1.522 -0.47,-2.844 -0.47,-2.844"
     id="path1011" />
  <path
     style="fill:none;stroke:#231f20;stroke-width:0.332927;stroke-linecap:butt;stroke-linejoin:miter;stroke-miterlimit:4;stroke-dasharray:none;stroke-opacity:1"
     d="m 287.28193,44.913988 c -1.04,-0.869 -0.72,-1.807 0.17,-2.339 0.27,-0.156 0.33,-0.573 0.6,-0.697 0.64,-0.313 2.27,0.307 2.09,1.801 -0.01,0.104 0.14,0.907 0.16,1.532 0.04,1.213 -0.47,3.662 -2.73,5.11 -1.08,0.691 -1.29,-0.063 -0.94,-0.475 1.11,-1.307 0.95,-1.64 1.12,-2.088 0.57,-1.522 -0.47,-2.844 -0.47,-2.844 z"
     id="path1012" />
  <path
     style="fill:#63c99d;fill-opacity:1;fill-rule:nonzero;stroke:none"
     d="m 138.02993,28.684988 c 2.906,-1.172 3.406,-1.74 4.057,-2.396 4.088,-4.083 6.016,-2 6.588,0.822 0.683,3.324 0.991,4.506 -5.041,6.287 -1.692,0.489 -7.88,3.235 -7.88,3.235 -2.088,1.286 -4.803,1.421 -6.011,0.609 -1.271,-0.859 -0.708,-0.609 -1.74,-1.62 -0.989,-0.963 -1.561,-3.072 -0.859,-4.088 0.667,-0.98 2.334,-0.875 4.75,-1.036 1.906,-0.125 6.136,-1.813 6.136,-1.813"
     id="path1013" />
  <path
     style="fill:none;stroke:#231f20;stroke-width:0.565977;stroke-linecap:butt;stroke-linejoin:miter;stroke-miterlimit:4;stroke-dasharray:none;stroke-opacity:1"
     d="m 138.02993,28.684988 c 2.906,-1.172 3.406,-1.74 4.057,-2.396 4.088,-4.083 6.016,-2 6.588,0.822 0.683,3.324 0.991,4.506 -5.041,6.287 -1.692,0.489 -7.88,3.235 -7.88,3.235 -2.088,1.286 -4.803,1.421 -6.011,0.609 -1.271,-0.859 -0.708,-0.609 -1.74,-1.62 -0.989,-0.963 -1.561,-3.072 -0.859,-4.088 0.667,-0.98 2.334,-0.875 4.75,-1.036 1.906,-0.125 6.136,-1.813 6.136,-1.813 z"
     id="path1014" />
  <path
     style="fill:#ffffff;fill-opacity:1;fill-rule:nonzero;stroke:none"
     d="m 119.29993,35.460988 c -0.202,-0.131 -1.057,0.641 -1.431,0.286 -0.386,-0.364 0,-1.057 -0.724,-2.912 l -0.006,-0.02 c -0.573,-1.338 -0.53,-2.724 0.26,-3.698 1.303,-1.619 4.141,-1.495 6.339,0.27 2.204,1.772 2.922,4.527 1.625,6.142 -1.245,1.552 -3.912,1.5 -6.063,-0.068"
     id="path1015" />
  <path
     style="fill:none;stroke:#231f20;stroke-width:0.565977;stroke-linecap:butt;stroke-linejoin:miter;stroke-miterlimit:4;stroke-dasharray:none;stroke-opacity:1"
     d="m 119.29993,35.460988 c -0.202,-0.131 -1.057,0.641 -1.431,0.286 -0.386,-0.364 0,-1.057 -0.724,-2.912 l -0.006,-0.02 c -0.573,-1.338 -0.53,-2.724 0.26,-3.698 1.303,-1.619 4.141,-1.495 6.339,0.27 2.204,1.772 2.922,4.527 1.625,6.142 -1.245,1.552 -3.912,1.5 -6.063,-0.068 z"
     id="path1016" />
  <path
     style="fill:#231f20;fill-opacity:1;fill-rule:nonzero;stroke:none"
     d="m 131.75893,54.793988 c 0.364,-0.525 0.156,-2.464 0.604,-4.005 0.307,-1.047 -0.068,-3.76 0.317,-4.777 0.344,-0.931 0.423,-1.39 -0.572,-1.973 -0.589,-0.344 -1.948,-0.625 -2.224,-0.198 -0.652,1 -0.813,1.933 -0.772,3 0.043,1.213 0.454,4.5 0.584,5.1 0.339,1.483 0.016,2.15 0.068,2.552 0.094,0.754 0.406,0.905 0.906,0.952 0.958,0.083 1.089,-0.651 1.089,-0.651"
     id="path1017" />
  <path
     style="fill:none;stroke:#231f20;stroke-width:0.565977;stroke-linecap:butt;stroke-linejoin:miter;stroke-miterlimit:4;stroke-dasharray:none;stroke-opacity:1"
     d="m 131.75893,54.793988 c 0.364,-0.525 0.156,-2.464 0.604,-4.005 0.307,-1.047 -0.068,-3.76 0.317,-4.777 0.344,-0.931 0.423,-1.39 -0.572,-1.973 -0.589,-0.344 -1.948,-0.625 -2.224,-0.198 -0.652,1 -0.813,1.933 -0.772,3 0.043,1.213 0.454,4.5 0.584,5.1 0.339,1.483 0.016,2.15 0.068,2.552 0.094,0.754 0.406,0.905 0.906,0.952 0.958,0.083 1.089,-0.651 1.089,-0.651 z"
     id="path1018" />
  <path
     style="fill:#231f20;fill-opacity:1;fill-rule:nonzero;stroke:none"
     d="m 132.05993,45.735988 c 1.298,-0.093 0.772,-2.062 0.715,-2.593 -0.063,-0.546 -0.052,-2.098 0.109,-3.312 0.162,-1.22 -0.157,-2.802 0.151,-5.105 0.161,-1.213 -0.453,-2.5 -2.224,-2.651 -1.751,-0.156 -2.489,0.766 -2.464,2.266 0.027,1.494 0.688,2.89 0.819,4.396 0.134,1.505 0.129,3.052 0.066,4.265 -0.066,1.381 0.407,2.095 0.844,2.297 1.074,0.527 1.984,0.437 1.984,0.437"
     id="path1019" />
  <path
     style="fill:none;stroke:#231f20;stroke-width:0.565977;stroke-linecap:butt;stroke-linejoin:miter;stroke-miterlimit:4;stroke-dasharray:none;stroke-opacity:1"
     d="m 132.05993,45.735988 c 1.298,-0.093 0.772,-2.062 0.715,-2.593 -0.063,-0.546 -0.052,-2.098 0.109,-3.312 0.162,-1.22 -0.157,-2.802 0.151,-5.105 0.161,-1.213 -0.453,-2.5 -2.224,-2.651 -1.751,-0.156 -2.489,0.766 -2.464,2.266 0.027,1.494 0.688,2.89 0.819,4.396 0.134,1.505 0.129,3.052 0.066,4.265 -0.066,1.381 0.407,2.095 0.844,2.297 1.074,0.527 1.984,0.437 1.984,0.437 z"
     id="path1020" />
  <path
     style="fill:#231f20;fill-opacity:1;fill-rule:nonzero;stroke:none"
     d="m 162.43593,21.033988 c -1.152,-1.953 -1.114,-2.489 -0.318,-3.021 0.532,-0.37 0.89,-0.875 1.198,-1.11 1.036,-0.786 3.104,-1.672 9.604,-2.661 1.479,-0.219 3.547,-0.552 4.386,-0.755 1.317,-0.313 0.953,2.094 0.432,2.219 -1.662,0.421 -2.766,0.848 -3.348,1.083 -0.396,0.161 -1.136,0.344 -2.584,1.166 -2.203,1.235 -3.334,2.303 -5.287,3.12 -0.911,0.38 -1.344,1.24 -2.421,1.156 -1.09,-0.066 -1.662,-1.197 -1.662,-1.197"
     id="path1021" />
  <path
     style="fill:none;stroke:#231f20;stroke-width:0.565977;stroke-linecap:butt;stroke-linejoin:miter;stroke-miterlimit:4;stroke-dasharray:none;stroke-opacity:1"
     d="m 162.43593,21.033988 c -1.152,-1.953 -1.114,-2.489 -0.318,-3.021 0.532,-0.37 0.89,-0.875 1.198,-1.11 1.036,-0.786 3.104,-1.672 9.604,-2.661 1.479,-0.219 3.547,-0.552 4.386,-0.755 1.317,-0.313 0.953,2.094 0.432,2.219 -1.662,0.421 -2.766,0.848 -3.348,1.083 -0.396,0.161 -1.136,0.344 -2.584,1.166 -2.203,1.235 -3.334,2.303 -5.287,3.12 -0.911,0.38 -1.344,1.24 -2.421,1.156 -1.09,-0.066 -1.662,-1.197 -1.662,-1.197 z"
     id="path1022" />
  <path
     style="fill:#231f20;fill-opacity:1;fill-rule:nonzero;stroke:#231f20;stroke-width:0.565977;stroke-linecap:round;stroke-linejoin:round;stroke-miterlimit:4;stroke-dasharray:none;stroke-opacity:1"
     d="m 164.87893,21.553988 c -0.36,1.371 -2.48,1.74 -2.756,1.944 -4.072,2.921 -4.437,3.025 -7.687,5.031 -4.709,2.906 -8.376,4.166 -10.865,1.921 -1.687,-1.525 -1.995,-3.129 -1.541,-4.369 0.516,-1.364 2.874,-3.495 5.661,-2.714 l 1.641,-0.48 c 1.067,-0.462 1.594,-0.686 2.104,-0.957 0.88,-0.475 1.859,-0.917 3.635,-1.745 3.156,-1.454 6.959,-1.968 6.959,-1.968 0.281,-0.12 0.562,-0.115 0.822,-0.032"
     id="path1023" />
  <path
     style="fill:#63c99d;fill-opacity:1;fill-rule:nonzero;stroke:none"
     d="m 151.74293,30.044988 -4.172,-6.61 c -2.807,-0.677 -5.083,1.542 -5.547,2.927 -0.41,1.249 -0.03,2.849 1.703,4.307 1.136,0.948 2.48,1.188 4.011,0.912 1.037,0.052 1.661,0.052 2.177,-0.568 0.047,-0.058 0.104,-0.11 0.161,-0.162 0.542,-0.234 1.09,-0.494 1.667,-0.806"
     id="path1024" />
  <path
     style="fill:none;stroke:#231f20;stroke-width:0.565977;stroke-linecap:butt;stroke-linejoin:miter;stroke-miterlimit:4;stroke-dasharray:none;stroke-opacity:1"
     d="m 151.74293,30.044988 -4.172,-6.61 c -2.807,-0.677 -5.083,1.542 -5.547,2.927 -0.41,1.249 -0.03,2.849 1.703,4.307 1.136,0.948 2.48,1.188 4.011,0.912 1.037,0.052 1.661,0.052 2.177,-0.568 0.047,-0.058 0.104,-0.11 0.161,-0.162 0.542,-0.234 1.09,-0.494 1.667,-0.806 z"
     id="path1025" />
  <path
     style="fill:#231f20;fill-opacity:1;fill-rule:nonzero;stroke:none"
     d="m 179.48293,12.497988 c -1.188,-0.652 -1.948,-0.011 -2.115,1.009 -0.052,0.308 -0.417,0.516 -0.442,0.814 -0.058,0.702 1.114,1.994 2.448,1.296 0.088,-0.052 0.896,-0.203 1.484,-0.411 1.145,-0.407 3.24,-1.765 3.77,-4.407 0.256,-1.2489995 -0.53,-1.1719995 -0.792,-0.697 -0.806,1.509 -1.17,1.484 -1.536,1.801 -1.208,1.084 -2.817,0.595 -2.817,0.595"
     id="path1026" />
  <path
     style="fill:none;stroke:#231f20;stroke-width:0.332927;stroke-linecap:butt;stroke-linejoin:miter;stroke-miterlimit:4;stroke-dasharray:none;stroke-opacity:1"
     d="m 179.48293,12.497988 c -1.188,-0.652 -1.948,-0.011 -2.115,1.009 -0.052,0.308 -0.417,0.516 -0.442,0.814 -0.058,0.702 1.114,1.994 2.448,1.296 0.088,-0.052 0.896,-0.203 1.484,-0.411 1.145,-0.407 3.24,-1.765 3.77,-4.407 0.256,-1.2489995 -0.53,-1.1719995 -0.792,-0.697 -0.806,1.509 -1.17,1.484 -1.536,1.801 -1.208,1.084 -2.817,0.595 -2.817,0.595 z"
     id="path1027" />
  <path
     style="fill:#231f20;fill-opacity:1;fill-rule:nonzero;stroke:none"
     d="m 127.89893,55.820988 c -0.161,1.166 0.657,2.238 1.824,2.4 1.167,0.162 2.244,-0.662 2.4,-1.823 0.161,-1.172 -0.656,-2.244 -1.823,-2.405 -1.166,-0.158 -2.244,0.661 -2.401,1.828"
     id="path1028" />
  <path
     style="fill:#231f20;fill-opacity:1;fill-rule:nonzero;stroke:none"
     d="m 94.617928,54.210988 c 0.292,-0.573 -0.176,-2.464 0.063,-4.052 0.156,-1.078 -0.578,-3.718 -0.334,-4.776 0.219,-0.969 0.23,-1.433 -0.838,-1.876 -0.63,-0.26 -2.015,-0.359 -2.234,0.104 -0.505,1.079 -0.542,2.022 -0.36,3.079 0.208,1.197 1.068,4.391 1.276,4.969 0.532,1.427 0.303,2.13 0.407,2.52 0.197,0.735 0.531,0.839 1.031,0.823 0.964,-0.047 0.989,-0.791 0.989,-0.791"
     id="path1029" />
  <path
     style="fill:none;stroke:#231f20;stroke-width:0.565977;stroke-linecap:butt;stroke-linejoin:miter;stroke-miterlimit:4;stroke-dasharray:none;stroke-opacity:1"
     d="m 94.617928,54.210988 c 0.292,-0.573 -0.176,-2.464 0.063,-4.052 0.156,-1.078 -0.578,-3.718 -0.334,-4.776 0.219,-0.969 0.23,-1.433 -0.838,-1.876 -0.63,-0.26 -2.015,-0.359 -2.234,0.104 -0.505,1.079 -0.542,2.022 -0.36,3.079 0.208,1.197 1.068,4.391 1.276,4.969 0.532,1.427 0.303,2.13 0.407,2.52 0.197,0.735 0.531,0.839 1.031,0.823 0.964,-0.047 0.989,-0.791 0.989,-0.791 z"
     id="path1030" />
  <path
     style="fill:#231f20;fill-opacity:1;fill-rule:nonzero;stroke:none"
     d="m 93.696928,45.194988 c 1.265,-0.271 0.484,-2.15 0.354,-2.672 -0.136,-0.526 -0.338,-2.073 -0.338,-3.292 -0.006,-1.229 -0.532,-2.754 -0.543,-5.082 -0.004,-1.219 -0.785,-2.407 -2.561,-2.323 -1.756,0.083 -2.371,1.099 -2.142,2.583 0.23,1.478 1.074,2.765 1.407,4.24 0.339,1.473 0.541,3.01 0.645,4.218 0.12,1.375 0.688,2.016 1.147,2.162 1.135,0.374 2.031,0.166 2.031,0.166"
     id="path1031" />
  <path
     style="fill:none;stroke:#231f20;stroke-width:0.565977;stroke-linecap:butt;stroke-linejoin:miter;stroke-miterlimit:4;stroke-dasharray:none;stroke-opacity:1"
     d="m 93.696928,45.194988 c 1.265,-0.271 0.484,-2.15 0.354,-2.672 -0.136,-0.526 -0.338,-2.073 -0.338,-3.292 -0.006,-1.229 -0.532,-2.754 -0.543,-5.082 -0.004,-1.219 -0.785,-2.407 -2.561,-2.323 -1.756,0.083 -2.371,1.099 -2.142,2.583 0.23,1.478 1.074,2.765 1.407,4.24 0.339,1.473 0.541,3.01 0.645,4.218 0.12,1.375 0.688,2.016 1.147,2.162 1.135,0.374 2.031,0.166 2.031,0.166 z"
     id="path1032" />
  <path
     style="fill:#231f20;fill-opacity:1;fill-rule:nonzero;stroke:none"
     d="m 90.930928,55.746988 c 0,1.177 0.959,2.131 2.135,2.131 1.177,0 2.136,-0.954 2.136,-2.131 0,-1.177 -0.959,-2.136 -2.136,-2.136 -1.176,0 -2.135,0.959 -2.135,2.136"
     id="path1033" />
  <path
     style="fill:#231f20;fill-opacity:1;fill-rule:nonzero;stroke:none"
     d="m 335.04193,54.210988 c -0.29,-0.573 0.18,-2.464 -0.06,-4.052 -0.17,-1.078 0.57,-3.718 0.33,-4.776 -0.22,-0.969 -0.23,-1.433 0.84,-1.876 0.63,-0.26 2.01,-0.359 2.23,0.104 0.51,1.079 0.54,2.022 0.36,3.079 -0.21,1.197 -1.06,4.391 -1.28,4.969 -0.53,1.427 -0.3,2.13 -0.4,2.52 -0.2,0.735 -0.53,0.839 -1.03,0.823 -0.97,-0.047 -0.99,-0.791 -0.99,-0.791"
     id="path1034" />
  <path
     style="fill:none;stroke:#231f20;stroke-width:0.565977;stroke-linecap:butt;stroke-linejoin:miter;stroke-miterlimit:4;stroke-dasharray:none;stroke-opacity:1"
     d="m 335.04193,54.210988 c -0.29,-0.573 0.18,-2.464 -0.06,-4.052 -0.17,-1.078 0.57,-3.718 0.33,-4.776 -0.22,-0.969 -0.23,-1.433 0.84,-1.876 0.63,-0.26 2.01,-0.359 2.23,0.104 0.51,1.079 0.54,2.022 0.36,3.079 -0.21,1.197 -1.06,4.391 -1.28,4.969 -0.53,1.427 -0.3,2.13 -0.4,2.52 -0.2,0.735 -0.53,0.839 -1.03,0.823 -0.97,-0.047 -0.99,-0.791 -0.99,-0.791 z"
     id="path1035" />
  <path
     style="fill:#231f20;fill-opacity:1;fill-rule:nonzero;stroke:none"
     d="m 335.96193,45.194988 c -1.27,-0.271 -0.48,-2.15 -0.35,-2.672 0.13,-0.526 0.33,-2.073 0.33,-3.292 0.01,-1.229 0.54,-2.754 0.55,-5.082 0,-1.219 0.78,-2.407 2.56,-2.323 1.75,0.083 2.37,1.099 2.14,2.583 -0.23,1.478 -1.07,2.765 -1.41,4.24 -0.34,1.473 -0.54,3.01 -0.65,4.218 -0.11,1.375 -0.68,2.016 -1.14,2.162 -1.13,0.374 -2.03,0.166 -2.03,0.166"
     id="path1036" />
  <path
     style="fill:none;stroke:#231f20;stroke-width:0.565977;stroke-linecap:butt;stroke-linejoin:miter;stroke-miterlimit:4;stroke-dasharray:none;stroke-opacity:1"
     d="m 335.96193,45.194988 c -1.27,-0.271 -0.48,-2.15 -0.35,-2.672 0.13,-0.526 0.33,-2.073 0.33,-3.292 0.01,-1.229 0.54,-2.754 0.55,-5.082 0,-1.219 0.78,-2.407 2.56,-2.323 1.75,0.083 2.37,1.099 2.14,2.583 -0.23,1.478 -1.07,2.765 -1.41,4.24 -0.34,1.473 -0.54,3.01 -0.65,4.218 -0.11,1.375 -0.68,2.016 -1.14,2.162 -1.13,0.374 -2.03,0.166 -2.03,0.166 z"
     id="path1037" />
  <path
     style="fill:#231f20;fill-opacity:1;fill-rule:nonzero;stroke:none"
     d="m 338.72193,55.746988 c 0,1.177 -0.95,2.131 -2.13,2.131 -1.18,0 -2.14,-0.954 -2.14,-2.131 0,-1.177 0.96,-2.136 2.14,-2.136 1.18,0 2.13,0.959 2.13,2.136"
     id="path1038" />
  <path
     style="fill:#231f20;fill-opacity:1;fill-rule:nonzero;stroke:none"
     d="m 61.654928,54.777988 c 0.406,-0.5 0.348,-2.448 0.916,-3.947 0.386,-1.016 0.224,-3.756 0.683,-4.74 0.421,-0.901 0.525,-1.355 -0.417,-2.005 -0.562,-0.391 -1.895,-0.776 -2.203,-0.375 -0.724,0.948 -0.959,1.864 -1,2.932 -0.052,1.219 0.104,4.522 0.188,5.126 0.219,1.509 -0.152,2.15 -0.131,2.552 0.032,0.765 0.334,0.937 0.828,1.019 0.948,0.162 1.136,-0.562 1.136,-0.562"
     id="path1039" />
  <path
     style="fill:none;stroke:#231f20;stroke-width:0.565977;stroke-linecap:butt;stroke-linejoin:miter;stroke-miterlimit:4;stroke-dasharray:none;stroke-opacity:1"
     d="m 61.654928,54.777988 c 0.406,-0.5 0.348,-2.448 0.916,-3.947 0.386,-1.016 0.224,-3.756 0.683,-4.74 0.421,-0.901 0.525,-1.355 -0.417,-2.005 -0.562,-0.391 -1.895,-0.776 -2.203,-0.375 -0.724,0.948 -0.959,1.864 -1,2.932 -0.052,1.219 0.104,4.522 0.188,5.126 0.219,1.509 -0.152,2.15 -0.131,2.552 0.032,0.765 0.334,0.937 0.828,1.019 0.948,0.162 1.136,-0.562 1.136,-0.562 z"
     id="path1040" />
  <path
     style="fill:#231f20;fill-opacity:1;fill-rule:nonzero;stroke:none"
     d="m 62.660928,45.773988 c 1.296,0 0.926,-2 0.91,-2.538 -0.02,-0.546 0.11,-2.093 0.371,-3.291 0.255,-1.203 0.057,-2.802 0.541,-5.078 0.255,-1.198 -0.256,-2.521 -2.01,-2.813 -1.73,-0.291 -2.547,0.573 -2.636,2.068 -0.094,1.495 0.464,2.932 0.474,4.443 0.022,1.51 -0.104,3.057 -0.254,4.266 -0.178,1.364 0.238,2.11 0.656,2.348 1.03,0.604 1.948,0.595 1.948,0.595"
     id="path1041" />
  <path
     style="fill:none;stroke:#231f20;stroke-width:0.565977;stroke-linecap:butt;stroke-linejoin:miter;stroke-miterlimit:4;stroke-dasharray:none;stroke-opacity:1"
     d="m 62.660928,45.773988 c 1.296,0 0.926,-2 0.91,-2.538 -0.02,-0.546 0.11,-2.093 0.371,-3.291 0.255,-1.203 0.057,-2.802 0.541,-5.078 0.255,-1.198 -0.256,-2.521 -2.01,-2.813 -1.73,-0.291 -2.547,0.573 -2.636,2.068 -0.094,1.495 0.464,2.932 0.474,4.443 0.022,1.51 -0.104,3.057 -0.254,4.266 -0.178,1.364 0.238,2.11 0.656,2.348 1.03,0.604 1.948,0.595 1.948,0.595 z"
     id="path1042" />
  <path
     style="fill:#231f20;fill-opacity:1;fill-rule:nonzero;stroke:none"
     d="m 57.726928,55.501988 c -0.249,1.152 0.48,2.286 1.631,2.532 1.156,0.254 2.292,-0.48 2.541,-1.631 0.251,-1.151 -0.484,-2.286 -1.634,-2.536 -1.152,-0.25 -2.287,0.479 -2.538,1.635"
     id="path1043" />
  <path
     style="fill:#231f20;fill-opacity:1;fill-rule:nonzero;stroke:none"
     d="m 228.03993,24.137988 c -0.532,-0.5 -1.994,-3.407 -2.297,-4.084 -0.271,-0.604 -1.057,-1.457 -0.312,-2.337 0.301,-0.36 0.989,-0.667 1.312,-0.71 0.26,-0.046 0.48,0.199 0.604,0.574 0.219,0.63 0.032,0.896 0.38,2.12 0,0 0.037,0.306 0.063,0.853 0.114,1.631 -0.083,0.923 0.594,3.251 0.047,0.161 -0.084,0.328 -0.198,0.36 -0.172,0.025 -0.146,-0.027 -0.146,-0.027"
     id="path1044" />
  <path
     style="fill:none;stroke:#231f20;stroke-width:0.565977;stroke-linecap:round;stroke-linejoin:round;stroke-miterlimit:4;stroke-dasharray:none;stroke-opacity:1"
     d="m 228.03993,24.137988 c -0.532,-0.5 -1.994,-3.407 -2.297,-4.084 -0.271,-0.604 -1.057,-1.457 -0.312,-2.337 0.301,-0.36 0.989,-0.667 1.312,-0.71 0.26,-0.046 0.48,0.199 0.604,0.574 0.219,0.63 0.032,0.896 0.38,2.12 0,0 0.037,0.306 0.063,0.853 0.114,1.631 -0.083,0.923 0.594,3.251 0.047,0.161 -0.084,0.328 -0.198,0.36 -0.172,0.025 -0.146,-0.027 -0.146,-0.027 z"
     id="path1045" />
  <path
     style="fill:#231f20;fill-opacity:1;fill-rule:nonzero;stroke:none"
     d="m 189.05593,37.137988 c 0.192,-0.703 2.056,-3.364 2.515,-3.948 0.401,-0.527 0.787,-1.625 1.907,-1.38 0.464,0.093 1.057,0.552 1.254,0.812 0.152,0.213 0.047,0.521 -0.224,0.808 -0.452,0.489 -0.776,0.457 -1.692,1.339 0,0 -0.25,0.176 -0.724,0.457 -1.38,0.871 -0.849,0.365 -2.584,2.057 -0.118,0.12 -0.328,0.084 -0.405,-0.005 -0.109,-0.14 -0.047,-0.14 -0.047,-0.14"
     id="path1046" />
  <path
     style="fill:none;stroke:#231f20;stroke-width:0.565977;stroke-linecap:round;stroke-linejoin:round;stroke-miterlimit:4;stroke-dasharray:none;stroke-opacity:1"
     d="m 189.05593,37.137988 c 0.192,-0.703 2.056,-3.364 2.515,-3.948 0.401,-0.527 0.787,-1.625 1.907,-1.38 0.464,0.093 1.057,0.552 1.254,0.812 0.152,0.213 0.047,0.521 -0.224,0.808 -0.452,0.489 -0.776,0.457 -1.692,1.339 0,0 -0.25,0.176 -0.724,0.457 -1.38,0.871 -0.849,0.365 -2.584,2.057 -0.118,0.12 -0.328,0.084 -0.405,-0.005 -0.109,-0.14 -0.047,-0.14 -0.047,-0.14 z"
     id="path1047" />
  <path
     style="fill:#231f20;fill-opacity:1;fill-rule:nonzero;stroke:none"
     d="m 198.29993,24.528988 c -0.91,-0.922 0.776,-2.063 1.172,-2.432 0.396,-0.371 1.412,-1.552 2.084,-2.574 0.671,-1.025 1.947,-2.016 3.228,-3.958 0.678,-1.015 1.98,-1.583 3.418,-0.542 1.421,1.027 1.38,2.214 0.38,3.328 -1,1.11 -2.412,1.735 -3.5,2.782 -1.094,1.052 -2.099,2.224 -2.85,3.177 -0.853,1.088 -1.676,1.312 -2.14,1.188 -1.15,-0.308 -1.792,-0.969 -1.792,-0.969"
     id="path1048" />
  <path
     style="fill:none;stroke:#231f20;stroke-width:0.565977;stroke-linecap:butt;stroke-linejoin:miter;stroke-miterlimit:4;stroke-dasharray:none;stroke-opacity:1"
     d="m 198.29993,24.528988 c -0.91,-0.922 0.776,-2.063 1.172,-2.432 0.396,-0.371 1.412,-1.552 2.084,-2.574 0.671,-1.025 1.947,-2.016 3.228,-3.958 0.678,-1.015 1.98,-1.583 3.418,-0.542 1.421,1.027 1.38,2.214 0.38,3.328 -1,1.11 -2.412,1.735 -3.5,2.782 -1.094,1.052 -2.099,2.224 -2.85,3.177 -0.853,1.088 -1.676,1.312 -2.14,1.188 -1.15,-0.308 -1.792,-0.969 -1.792,-0.969 z"
     id="path1049" />
  <path
     style="fill:#231f20;fill-opacity:1;fill-rule:nonzero;stroke:none"
     d="m 194.32193,32.929988 c 0.609,-0.209 1.572,-1.896 2.848,-2.88 0.86,-0.667 2.152,-3.084 3.062,-3.677 0.828,-0.547 1.158,-0.88 0.694,-1.938 -0.271,-0.62 -1.203,-1.652 -1.688,-1.464 -1.104,0.427 -1.787,1.083 -2.386,1.974 -0.672,1.005 -2.27,3.906 -2.516,4.469 -0.604,1.401 -1.254,1.751 -1.452,2.104 -0.37,0.667 -0.204,0.969 0.182,1.303 0.724,0.629 1.256,0.109 1.256,0.109"
     id="path1050" />
  <path
     style="fill:none;stroke:#231f20;stroke-width:0.565977;stroke-linecap:butt;stroke-linejoin:miter;stroke-miterlimit:4;stroke-dasharray:none;stroke-opacity:1"
     d="m 194.32193,32.929988 c 0.609,-0.209 1.572,-1.896 2.848,-2.88 0.86,-0.667 2.152,-3.084 3.062,-3.677 0.828,-0.547 1.158,-0.88 0.694,-1.938 -0.271,-0.62 -1.203,-1.652 -1.688,-1.464 -1.104,0.427 -1.787,1.083 -2.386,1.974 -0.672,1.005 -2.27,3.906 -2.516,4.469 -0.604,1.401 -1.254,1.751 -1.452,2.104 -0.37,0.667 -0.204,0.969 0.182,1.303 0.724,0.629 1.256,0.109 1.256,0.109 z"
     id="path1051" />
  <path
     style="fill:#231f20;fill-opacity:1;fill-rule:nonzero;stroke:none"
     d="m 223.51393,10.044988 c -0.432,1.218 -2.198,0.202 -2.703,0.009 -0.5,-0.1969995 -2.005,-0.5929995 -3.219,-0.7549995 -1.218,-0.161 -2.661,-0.88 -4.969,-1.182 -1.213,-0.162 -2.291,-1.088 -1.979,-2.834 0.303,-1.724 1.386,-2.208 2.828,-1.79 1.432,0.421 2.615,1.41 4.031,1.937 1.417,0.515 2.917,0.911 4.105,1.172 1.348,0.291 1.911,0.932 1.995,1.405 0.229,1.172 -0.089,2.0379995 -0.089,2.0379995"
     id="path1052" />
  <path
     style="fill:none;stroke:#231f20;stroke-width:0.565977;stroke-linecap:butt;stroke-linejoin:miter;stroke-miterlimit:4;stroke-dasharray:none;stroke-opacity:1"
     d="m 223.51393,10.044988 c -0.432,1.218 -2.198,0.202 -2.703,0.009 -0.5,-0.1969995 -2.005,-0.5929995 -3.219,-0.7549995 -1.218,-0.161 -2.661,-0.88 -4.969,-1.182 -1.213,-0.162 -2.291,-1.088 -1.979,-2.834 0.303,-1.724 1.386,-2.208 2.828,-1.79 1.432,0.421 2.615,1.41 4.031,1.937 1.417,0.515 2.917,0.911 4.105,1.172 1.348,0.291 1.911,0.932 1.995,1.405 0.229,1.172 -0.089,2.0379995 -0.089,2.0379995 z"
     id="path1053" />
  <path
     style="fill:#231f20;fill-opacity:1;fill-rule:nonzero;stroke:none"
     d="m 216.27993,16.314988 c -0.005,-0.641 1.255,-2.125 1.755,-3.656 0.328,-1.032 2.167,-3.0729995 2.421,-4.1299995 0.235,-0.964 0.434,-1.386 1.584,-1.303 0.678,0.043 1.963,0.573 1.948,1.089 -0.021,1.187 -0.412,2.0469995 -1.046,2.9109995 -0.715,0.98 -2.912,3.464 -3.355,3.885 -1.115,1.043 -1.219,1.767 -1.484,2.079 -0.505,0.568 -0.844,0.516 -1.287,0.265 -0.844,-0.462 -0.536,-1.14 -0.536,-1.14"
     id="path1054" />
  <path
     style="fill:none;stroke:#231f20;stroke-width:0.565977;stroke-linecap:butt;stroke-linejoin:miter;stroke-miterlimit:4;stroke-dasharray:none;stroke-opacity:1"
     d="m 216.27993,16.314988 c -0.005,-0.641 1.255,-2.125 1.755,-3.656 0.328,-1.032 2.167,-3.0729995 2.421,-4.1299995 0.235,-0.964 0.434,-1.386 1.584,-1.303 0.678,0.043 1.963,0.573 1.948,1.089 -0.021,1.187 -0.412,2.0469995 -1.046,2.9109995 -0.715,0.98 -2.912,3.464 -3.355,3.885 -1.115,1.043 -1.219,1.767 -1.484,2.079 -0.505,0.568 -0.844,0.516 -1.287,0.265 -0.844,-0.462 -0.536,-1.14 -0.536,-1.14 z"
     id="path1055" />
  <path
     style="fill:#231f20;fill-opacity:1;fill-rule:nonzero;stroke:none"
     d="m 222.13893,17.402988 c 0.437,-3.577 2.036,-3.052 6.084,-3.568 4.421,-0.561 9.093,-0.67 12.276,0.215 3.552,0.989 3.859,0.561 4.276,2.437 0.427,1.87 -0.333,2.063 -1.167,3.042 -0.969,1.134 -8.141,-0.479 -12.833,0.286 -2.199,0.359 -7.229,2.64 -7.792,1.302 -0.557,-1.343 -0.844,-3.714 -0.844,-3.714"
     id="path1056" />
  <path
     style="fill:none;stroke:#231f20;stroke-width:0.565977;stroke-linecap:butt;stroke-linejoin:miter;stroke-miterlimit:4;stroke-dasharray:none;stroke-opacity:1"
     d="m 222.13893,17.402988 c 0.437,-3.577 2.036,-3.052 6.084,-3.568 4.421,-0.561 9.093,-0.67 12.276,0.215 3.552,0.989 3.859,0.561 4.276,2.437 0.427,1.87 -0.333,2.063 -1.167,3.042 -0.969,1.134 -8.141,-0.479 -12.833,0.286 -2.199,0.359 -7.229,2.64 -7.792,1.302 -0.557,-1.343 -0.844,-3.714 -0.844,-3.714 z"
     id="path1057" />
  <path
     style="fill:#231f20;fill-opacity:1;fill-rule:nonzero;stroke:none"
     d="m 242.80593,17.585988 c -0.246,-2.256 -0.35,-2.907 2.156,-2.776 0.636,0.031 2.396,0.249 2.776,0.161 1.265,-0.292 2.756,-0.51 9.094,1.26 0.99,0.276 2.95,0.48 4.33,0.735 1.34,0.255 0.02,2.303 -0.51,2.203 -1.69,-0.296 -2.84,-0.124 -3.46,-0.146 -0.43,-0.016 -1.22,-0.182 -2.85,0.162 -4.187,0.88 -5.552,-0.287 -6.443,-0.183 -2.567,0.319 -4.692,1.109 -5.009,0.521 -0.506,-0.958 -0.084,-1.937 -0.084,-1.937"
     id="path1058" />
  <path
     style="fill:none;stroke:#231f20;stroke-width:0.565977;stroke-linecap:butt;stroke-linejoin:miter;stroke-miterlimit:4;stroke-dasharray:none;stroke-opacity:1"
     d="m 242.80593,17.585988 c -0.246,-2.256 -0.35,-2.907 2.156,-2.776 0.636,0.031 2.396,0.249 2.776,0.161 1.265,-0.292 2.756,-0.51 9.094,1.26 0.99,0.276 2.95,0.48 4.33,0.735 1.34,0.255 0.02,2.303 -0.51,2.203 -1.69,-0.296 -2.84,-0.124 -3.46,-0.146 -0.43,-0.016 -1.22,-0.182 -2.85,0.162 -4.187,0.88 -5.552,-0.287 -6.443,-0.183 -2.567,0.319 -4.692,1.109 -5.009,0.521 -0.506,-0.958 -0.084,-1.937 -0.084,-1.937 z"
     id="path1059" />
  <path
     style="fill:#231f20;fill-opacity:1;fill-rule:nonzero;stroke:none"
     d="m 220.37393,21.304988 c -0.224,3.598 1.442,3.374 5.328,4.62 4.245,1.358 8.817,2.328 12.109,2.036 3.672,-0.318 3.891,0.156 4.645,-1.61 0.762,-1.76 0.052,-2.088 -0.588,-3.202 -0.745,-1.298 -8.093,-1.022 -12.568,-2.631 -2.093,-0.76 -6.625,-3.927 -7.416,-2.708 -0.797,1.213 -1.51,3.495 -1.51,3.495"
     id="path1060" />
  <path
     style="fill:none;stroke:#231f20;stroke-width:0.565977;stroke-linecap:butt;stroke-linejoin:miter;stroke-miterlimit:4;stroke-dasharray:none;stroke-opacity:1"
     d="m 220.37393,21.304988 c -0.224,3.598 1.442,3.374 5.328,4.62 4.245,1.358 8.817,2.328 12.109,2.036 3.672,-0.318 3.891,0.156 4.645,-1.61 0.762,-1.76 0.052,-2.088 -0.588,-3.202 -0.745,-1.298 -8.093,-1.022 -12.568,-2.631 -2.093,-0.76 -6.625,-3.927 -7.416,-2.708 -0.797,1.213 -1.51,3.495 -1.51,3.495 z"
     id="path1061" />
  <path
     style="fill:#231f20;fill-opacity:1;fill-rule:nonzero;stroke:none"
     d="m 240.70693,24.929988 c -0.641,2.172 -0.86,2.801 1.625,3.115 0.63,0.077 2.406,0.181 2.766,0.338 1.186,0.504 2.62,0.99 9.174,0.37 1.02,-0.099 2.99,0.057 4.39,0.041 1.36,-0.011 0.42,-2.255 -0.11,-2.255 -1.72,-0.005 -2.81,-0.38 -3.43,-0.469 -0.43,-0.057 -1.23,-0.036 -2.78,-0.667 -3.958,-1.609 -5.515,-0.697 -6.37,-0.968 -2.473,-0.761 -4.421,-1.922 -4.838,-1.396 -0.672,0.848 -0.427,1.891 -0.427,1.891"
     id="path1062" />
  <path
     style="fill:none;stroke:#231f20;stroke-width:0.565977;stroke-linecap:butt;stroke-linejoin:miter;stroke-miterlimit:4;stroke-dasharray:none;stroke-opacity:1"
     d="m 240.70693,24.929988 c -0.641,2.172 -0.86,2.801 1.625,3.115 0.63,0.077 2.406,0.181 2.766,0.338 1.186,0.504 2.62,0.99 9.174,0.37 1.02,-0.099 2.99,0.057 4.39,0.041 1.36,-0.011 0.42,-2.255 -0.11,-2.255 -1.72,-0.005 -2.81,-0.38 -3.43,-0.469 -0.43,-0.057 -1.23,-0.036 -2.78,-0.667 -3.958,-1.609 -5.515,-0.697 -6.37,-0.968 -2.473,-0.761 -4.421,-1.922 -4.838,-1.396 -0.672,0.848 -0.427,1.891 -0.427,1.891 z"
     id="path1063" />
  <path
     style="fill:#231f20;fill-opacity:1;fill-rule:nonzero;stroke:none"
     d="m 266.34193,15.684988 c -0.6,-0.292 -1.93,0.926 -3.9,0.969 -0.4,0.009 -0.72,0.203 -1.07,0.348 -1.4,0.573 -2.35,1.86 1.38,2.751 0.51,0.12 2.57,-0.276 3.31,-0.032 1.78,0.584 4.68,-1.042 4.54,-1.542 -0.3,-1.077 -4.26,-2.494 -4.26,-2.494"
     id="path1064" />
  <path
     style="fill:none;stroke:#231f20;stroke-width:0.644548;stroke-linecap:round;stroke-linejoin:round;stroke-miterlimit:4;stroke-dasharray:none;stroke-opacity:1"
     d="m 266.34193,15.684988 c -0.6,-0.292 -1.93,0.926 -3.9,0.969 -0.4,0.009 -0.72,0.203 -1.07,0.348 -1.4,0.573 -2.35,1.86 1.38,2.751 0.51,0.12 2.57,-0.276 3.31,-0.032 1.78,0.584 4.68,-1.042 4.54,-1.542 -0.3,-1.077 -4.26,-2.494 -4.26,-2.494 z"
     id="path1065" />
  <path
     style="fill:#231f20;fill-opacity:1;fill-rule:nonzero;stroke:none"
     d="m 263.34193,25.924988 c -0.52,-0.407 -2.08,0.505 -4.01,0.134 -0.4,-0.077 -0.76,0.048 -1.12,0.115 -1.49,0.271 -2.68,1.328 0.77,2.975 0.48,0.234 2.57,0.276 3.26,0.672 1.6,0.937 4.78,-0.047 4.75,-0.563 -0.07,-1.12 -3.65,-3.333 -3.65,-3.333"
     id="path1066" />
  <path
     style="fill:none;stroke:#231f20;stroke-width:0.644548;stroke-linecap:round;stroke-linejoin:round;stroke-miterlimit:4;stroke-dasharray:none;stroke-opacity:1"
     d="m 263.34193,25.924988 c -0.52,-0.407 -2.08,0.505 -4.01,0.134 -0.4,-0.077 -0.76,0.048 -1.12,0.115 -1.49,0.271 -2.68,1.328 0.77,2.975 0.48,0.234 2.57,0.276 3.26,0.672 1.6,0.937 4.78,-0.047 4.75,-0.563 -0.07,-1.12 -3.65,-3.333 -3.65,-3.333 z"
     id="path1067" />
  <path
     style="fill:#231f20;fill-opacity:1;fill-rule:nonzero;stroke:none"
     d="m 201.05993,11.481988 c 2.496,1.317 5.308,0.896 6.276,-0.943 0.97,-1.8329995 -0.27,-4.3899995 -2.77,-5.7079995 -2.5,-1.318 -5.307,-0.896 -6.276,0.943 -0.968,1.837 0.276,4.3949995 2.77,5.7079995"
     id="path1068" />
  <path
     style="fill:none;stroke:#231f20;stroke-width:0.565977;stroke-linecap:butt;stroke-linejoin:miter;stroke-miterlimit:4;stroke-dasharray:none;stroke-opacity:1"
     d="m 201.05993,11.481988 c 2.496,1.317 5.308,0.896 6.276,-0.943 0.97,-1.8329995 -0.27,-4.3899995 -2.77,-5.7079995 -2.5,-1.318 -5.307,-0.896 -6.276,0.943 -0.968,1.837 0.276,4.3949995 2.77,5.7079995 z"
     id="path1069" />
  <path
     style="fill:#63c99d;fill-opacity:1;fill-rule:nonzero;stroke:none"
     d="m 229.66593,21.658988 c 0.218,-0.448 0.088,-1.182 0.088,-1.182 0,0 -7.052,-2.672 -7.219,-5.776 l 0.14,-0.328 c 1.172,-0.443 0.412,-0.047 -0.244,-0.386 -5.084,-2.166 -6.24,-5.4059995 -7,-6.5049995 -1.047,-1.505 -0.38,-4.052 -2.541,-3.912 0,0 -1.928,-0.255 -2.819,2.412 -0.323,0.963 -1.932,2.64 -1.932,2.64 0.041,0.011 0.156,0.027 0.115,0.037 -0.104,0.031 -1.183,0.484 -1.751,1.6919995 l 0.032,-0.068 c -0.599,1.194 -0.443,2.631 -0.344,2.642 0.041,0 -0.068,-0.042 -0.099,-0.068 0,0 -0.474,2.218 -0.874,3.15 -0.516,1.178 -0.162,1.678 -0.162,1.678 1.286,2.27 2.834,1.713 4.662,1.598 1.333,-0.088 2.02,0.762 4.973,2.126 0.677,0.312 6.245,2.464 5.865,1.276 l 0.171,-0.318 c 2.543,-1.792 8.068,0.094 8.068,0.094 0,0 0.651,-0.359 0.871,-0.802"
     id="path1070" />
  <path
     style="fill:none;stroke:#231f20;stroke-width:0.565977;stroke-linecap:round;stroke-linejoin:round;stroke-miterlimit:4;stroke-dasharray:none;stroke-opacity:1"
     d="m 229.66593,21.658988 c 0.218,-0.448 0.088,-1.182 0.088,-1.182 0,0 -7.052,-2.672 -7.219,-5.776 l 0.14,-0.328 c 1.172,-0.443 0.412,-0.047 -0.244,-0.386 -5.084,-2.166 -6.24,-5.4059995 -7,-6.5049995 -1.047,-1.505 -0.38,-4.052 -2.541,-3.912 0,0 -1.928,-0.255 -2.819,2.412 -0.323,0.963 -1.932,2.64 -1.932,2.64 0.041,0.011 0.156,0.027 0.115,0.037 -0.104,0.031 -1.183,0.484 -1.751,1.6919995 l 0.032,-0.068 c -0.599,1.194 -0.443,2.631 -0.344,2.642 0.041,0 -0.068,-0.042 -0.099,-0.068 0,0 -0.474,2.218 -0.874,3.15 -0.516,1.178 -0.162,1.678 -0.162,1.678 1.286,2.27 2.834,1.713 4.662,1.598 1.333,-0.088 2.02,0.762 4.973,2.126 0.677,0.312 6.245,2.464 5.865,1.276 l 0.171,-0.318 c 2.543,-1.792 8.068,0.094 8.068,0.094 0,0 0.651,-0.359 0.871,-0.802 z"
     id="path1071" />
  <path
     style="fill:none;stroke:#231f20;stroke-width:0.399514;stroke-linecap:butt;stroke-linejoin:miter;stroke-miterlimit:4;stroke-dasharray:none;stroke-opacity:1"
     d="m 249.07093,8.2469885 c 8.191,25.1939995 -4.213,29.9379995 -10.005,23.8339995"
     id="path1072" />
  <path
     style="fill:#231f20;fill-opacity:1;fill-rule:nonzero;stroke:none"
     d="m 238.23193,31.210988 c 0.547,0.266 1.292,0.526 1.866,0.583 l -0.923,0.401 -0.452,0.907 c -0.027,-0.579 -0.251,-1.339 -0.491,-1.891"
     id="path1073" />
  <path
     style="fill:#63c99d;fill-opacity:1;fill-rule:nonzero;stroke:none"
     d="m 219.60293,22.986988 c 0.233,0.26 1.287,1.135 1.672,1.391 2.489,1.619 6.375,2.323 7.547,2.839 1.166,0.509 2.416,-5.959 2.416,-5.959 l -1.058,-1.021 c 0.516,-0.359 0.038,-0.183 0.038,-0.183 l 1.478,-0.661 c 0,0 1.531,-6.282 0.527,-6.328 -1.396,-0.078 -5.948,-0.916 -8.349,-0.448 -1.323,0.256 -2.131,0.881 -2.131,0.881 0,0 0.333,3.785 0.047,5.181 -0.282,1.402 -2.187,4.308 -2.187,4.308"
     id="path1074" />
  <path
     style="fill:none;stroke:#231f20;stroke-width:0.565977;stroke-linecap:round;stroke-linejoin:round;stroke-miterlimit:4;stroke-dasharray:none;stroke-opacity:1"
     d="m 219.60293,22.986988 c 0.233,0.26 1.287,1.135 1.672,1.391 2.489,1.619 6.375,2.323 7.547,2.839 1.166,0.509 2.416,-5.959 2.416,-5.959 l -1.058,-1.021 c 0.516,-0.359 0.038,-0.183 0.038,-0.183 l 1.478,-0.661 c 0,0 1.531,-6.282 0.527,-6.328 -1.396,-0.078 -5.948,-0.916 -8.349,-0.448 -1.323,0.256 -2.131,0.881 -2.131,0.881 0,0 0.333,3.785 0.047,5.181 -0.282,1.402 -2.187,4.308 -2.187,4.308 z"
     id="path1075" />
  <path
     style="fill:none;stroke:#231f20;stroke-width:0.565977;stroke-linecap:round;stroke-linejoin:round;stroke-miterlimit:4;stroke-dasharray:none;stroke-opacity:1"
     d="m 229.13893,23.194988 c 1.469,-1.036 0.917,-3.13 0.917,-3.13 0.974,-1.558 0.542,-3.099 0.542,-3.099"
     id="path1076" />
  <path
     style="fill:#63c99d;fill-opacity:1;fill-rule:nonzero;stroke:none"
     d="m 297.28193,3.8979885 c -3.13,0.063 -3.81,-0.26 -4.66,-0.609 -5.37,-2.151 -6.33,0.521 -5.74,3.338 0.67,3.328 0.85,4.5319995 7.1,3.8079995 1.74,-0.214 8.51,-0.114 8.51,-0.114 2.43,0.358 4.98,-0.5739995 5.77,-1.8029995 0.84,-1.292 0.41,-0.839 0.96,-2.167 0.54,-1.276 0.24,-3.437 -0.8,-4.104 -1,-0.636 -2.49,0.115 -4.78,0.912 -1.81,0.635 -6.36,0.739 -6.36,0.739"
     id="path1077" />
  <path
     style="fill:none;stroke:#231f20;stroke-width:0.565977;stroke-linecap:butt;stroke-linejoin:miter;stroke-miterlimit:4;stroke-dasharray:none;stroke-opacity:1"
     d="m 297.28193,3.8979885 c -3.13,0.063 -3.81,-0.26 -4.66,-0.609 -5.37,-2.151 -6.33,0.521 -5.74,3.338 0.67,3.328 0.85,4.5319995 7.1,3.8079995 1.74,-0.214 8.51,-0.114 8.51,-0.114 2.43,0.358 4.98,-0.5739995 5.77,-1.8029995 0.84,-1.292 0.41,-0.839 0.96,-2.167 0.54,-1.276 0.24,-3.437 -0.8,-4.104 -1,-0.636 -2.49,0.115 -4.78,0.912 -1.81,0.635 -6.36,0.739 -6.36,0.739 z"
     id="path1078" />
  <path
     style="fill:#ffffff;fill-opacity:1;fill-rule:nonzero;stroke:none"
     d="m 315.11193,7.7939885 c 0.24,0.027 0.42,1.161 0.94,1.12 0.53,-0.041 0.66,-0.823 2.38,-1.812 l 0.02,-0.016 c 1.28,-0.683 2.12,-1.792 2.12,-3.047 0,-2.084 -2.3,-3.75600001 -5.12,-3.75600001 -2.82,0.006 -5.11,1.69900001 -5.11,3.77100001 0,1.991 2.11,3.615 4.77,3.74"
     id="path1079" />
  <path
     style="fill:none;stroke:#231f20;stroke-width:0.565977;stroke-linecap:butt;stroke-linejoin:miter;stroke-miterlimit:4;stroke-dasharray:none;stroke-opacity:1"
     d="m 315.11193,7.7939885 c 0.24,0.027 0.42,1.161 0.94,1.12 0.53,-0.041 0.66,-0.823 2.38,-1.812 l 0.02,-0.016 c 1.28,-0.683 2.12,-1.792 2.12,-3.047 0,-2.084 -2.3,-3.75600001 -5.12,-3.75600001 -2.82,0.006 -5.11,1.69900001 -5.11,3.77100001 0,1.991 2.11,3.615 4.77,3.74 z"
     id="path1080" />
  <path
     style="fill:#231f20;fill-opacity:1;fill-rule:nonzero;stroke:none"
     d="m 307.50193,26.366988 c -0.42,-0.494 -0.36,-2.442 -0.94,-3.942 -0.39,-1.016 -0.25,-3.756 -0.71,-4.735 -0.42,-0.896 -0.53,-1.355 0.41,-2.011 0.56,-0.39 1.89,-0.792 2.2,-0.38 0.73,0.943 0.97,1.855 1.02,2.922 0.05,1.214 -0.09,4.521 -0.17,5.13 -0.21,1.511 0.17,2.147 0.14,2.547 -0.03,0.765 -0.32,0.937 -0.82,1.027 -0.95,0.166 -1.13,-0.558 -1.13,-0.558"
     id="path1081" />
  <path
     style="fill:none;stroke:#231f20;stroke-width:0.565977;stroke-linecap:butt;stroke-linejoin:miter;stroke-miterlimit:4;stroke-dasharray:none;stroke-opacity:1"
     d="m 307.50193,26.366988 c -0.42,-0.494 -0.36,-2.442 -0.94,-3.942 -0.39,-1.016 -0.25,-3.756 -0.71,-4.735 -0.42,-0.896 -0.53,-1.355 0.41,-2.011 0.56,-0.39 1.89,-0.792 2.2,-0.38 0.73,0.943 0.97,1.855 1.02,2.922 0.05,1.214 -0.09,4.521 -0.17,5.13 -0.21,1.511 0.17,2.147 0.14,2.547 -0.03,0.765 -0.32,0.937 -0.82,1.027 -0.95,0.166 -1.13,-0.558 -1.13,-0.558 z"
     id="path1082" />
  <path
     style="fill:#231f20;fill-opacity:1;fill-rule:nonzero;stroke:none"
     d="m 306.44193,17.372988 c -1.29,0.005 -0.93,-2 -0.92,-2.538 0.02,-0.546 -0.12,-2.098 -0.38,-3.29 -0.26,-1.199 -0.08,-2.8029995 -0.57,-5.0789995 -0.26,-1.192 0.25,-2.516 1.99,-2.817 1.74,-0.298 2.56,0.557 2.65,2.057 0.1,1.489 -0.45,2.932 -0.45,4.4429995 -0.01,1.51 0.12,3.057 0.28,4.26 0.18,1.369 -0.24,2.114 -0.65,2.354 -1.03,0.615 -1.95,0.61 -1.95,0.61"
     id="path1083" />
  <path
     style="fill:none;stroke:#231f20;stroke-width:0.565977;stroke-linecap:butt;stroke-linejoin:miter;stroke-miterlimit:4;stroke-dasharray:none;stroke-opacity:1"
     d="m 306.44193,17.372988 c -1.29,0.005 -0.93,-2 -0.92,-2.538 0.02,-0.546 -0.12,-2.098 -0.38,-3.29 -0.26,-1.199 -0.08,-2.8029995 -0.57,-5.0789995 -0.26,-1.192 0.25,-2.516 1.99,-2.817 1.74,-0.298 2.56,0.557 2.65,2.057 0.1,1.489 -0.45,2.932 -0.45,4.4429995 -0.01,1.51 0.12,3.057 0.28,4.26 0.18,1.369 -0.24,2.114 -0.65,2.354 -1.03,0.615 -1.95,0.61 -1.95,0.61 z"
     id="path1084" />
  <path
     style="fill:#231f20;fill-opacity:1;fill-rule:nonzero;stroke:none"
     d="m 284.60193,24.632988 c -2.08,-0.891 -2.61,-0.782 -3.04,0.078 -0.29,0.567 -0.75,0.995 -0.94,1.334 -0.64,1.124 -1.26,3.29 -1.4,9.874 -0.03,1.484 -0.09,3.583 -0.18,4.438 -0.14,1.343 2.2,0.677 2.26,0.141 0.2,-1.699 0.48,-2.855 0.63,-3.453 0.11,-0.412 0.2,-1.172 0.83,-2.719 0.94,-2.344 1.85,-3.609 2.41,-5.652 0.26,-0.948 1.06,-1.489 0.84,-2.552 -0.22,-1.063 -1.41,-1.489 -1.41,-1.489"
     id="path1085" />
  <path
     style="fill:none;stroke:#231f20;stroke-width:0.565977;stroke-linecap:butt;stroke-linejoin:miter;stroke-miterlimit:4;stroke-dasharray:none;stroke-opacity:1"
     d="m 284.60193,24.632988 c -2.08,-0.891 -2.61,-0.782 -3.04,0.078 -0.29,0.567 -0.75,0.995 -0.94,1.334 -0.64,1.124 -1.26,3.29 -1.4,9.874 -0.03,1.484 -0.09,3.583 -0.18,4.438 -0.14,1.343 2.2,0.677 2.26,0.141 0.2,-1.699 0.48,-2.855 0.63,-3.453 0.11,-0.412 0.2,-1.172 0.83,-2.719 0.94,-2.344 1.85,-3.609 2.41,-5.652 0.26,-0.948 1.06,-1.489 0.84,-2.552 -0.22,-1.063 -1.41,-1.489 -1.41,-1.489 z"
     id="path1086" />
  <path
     style="fill:#231f20;fill-opacity:1;fill-rule:nonzero;stroke:#231f20;stroke-width:0.565977;stroke-linecap:round;stroke-linejoin:round;stroke-miterlimit:4;stroke-dasharray:none;stroke-opacity:1"
     d="m 285.43193,26.992988 c 1.32,-0.543 1.41,-2.694 1.58,-2.991 2.36,-4.416 2.42,-4.796 3.99,-8.276 2.27,-5.047 3.05,-8.8429995 0.5,-11.0199995 -1.73,-1.475 -3.36,-1.573 -4.53,-0.964 -1.29,0.688 -3.1,3.303 -1.96,5.959 l -0.27,1.6919995 c -0.32,1.12 -0.47,1.672 -0.67,2.214 -0.35,0.932 -0.67,1.963 -1.26,3.828 -1.04,3.318 -1.06,7.156 -1.06,7.156 -0.08,0.296 -0.03,0.578 0.07,0.823"
     id="path1087" />
  <path
     style="fill:#63c99d;fill-opacity:1;fill-rule:nonzero;stroke:none"
     d="m 291.74193,4.8309885 c -1.68,-1.532 -3.31,-1.698 -4.49,-1.13 -1.32,0.634 -3.22,3.177 -2.19,5.88 l 7.09,3.2759995 c 1.37,-3.5059995 1.53,-6.2299995 -0.41,-8.0259995"
     id="path1088" />
  <path
     style="fill:none;stroke:#231f20;stroke-width:0.565977;stroke-linecap:butt;stroke-linejoin:miter;stroke-miterlimit:4;stroke-dasharray:none;stroke-opacity:1"
     d="m 291.74193,4.8309885 c -1.68,-1.532 -3.31,-1.698 -4.49,-1.13 -1.32,0.634 -3.22,3.177 -2.19,5.88 l 7.09,3.2759995 c 1.37,-3.5059995 1.53,-6.2299995 -0.41,-8.0259995 z"
     id="path1089" />
  <path
     style="fill:#231f20;fill-opacity:1;fill-rule:nonzero;stroke:none"
     d="m 278.30193,43.230988 c -0.79,-1.093 -0.26,-1.926 0.73,-2.224 0.3,-0.088 0.46,-0.478 0.76,-0.536 0.69,-0.15 2.12,0.844 1.59,2.25 -0.04,0.1 -0.08,0.917 -0.21,1.526 -0.26,1.188 -1.33,3.438 -3.88,4.307 -1.21,0.417 -1.24,-0.375 -0.79,-0.687 1.39,-1 1.31,-1.365 1.58,-1.76 0.92,-1.338 0.22,-2.876 0.22,-2.876"
     id="path1090" />
  <path
     style="fill:none;stroke:#231f20;stroke-width:0.332927;stroke-linecap:butt;stroke-linejoin:miter;stroke-miterlimit:4;stroke-dasharray:none;stroke-opacity:1"
     d="m 278.30193,43.230988 c -0.79,-1.093 -0.26,-1.926 0.73,-2.224 0.3,-0.088 0.46,-0.478 0.76,-0.536 0.69,-0.15 2.12,0.844 1.59,2.25 -0.04,0.1 -0.08,0.917 -0.21,1.526 -0.26,1.188 -1.33,3.438 -3.88,4.307 -1.21,0.417 -1.24,-0.375 -0.79,-0.687 1.39,-1 1.31,-1.365 1.58,-1.76 0.92,-1.338 0.22,-2.876 0.22,-2.876 z"
     id="path1091" />
</svg>
