<?xml version="1.0" encoding="UTF-8" standalone="no"?>
<!-- Created with Inkscape (http://www.inkscape.org/) -->

<svg
   version="1.1"
   id="svg1"
   width="360.46881"
   height="158.63319"
   viewBox="0 0 360.4688 158.6332"
   sodipodi:docname="cell.svg"
   xmlns:inkscape="http://www.inkscape.org/namespaces/inkscape"
   xmlns:sodipodi="http://sodipodi.sourceforge.net/DTD/sodipodi-0.dtd"
   xmlns="http://www.w3.org/2000/svg"
   xmlns:svg="http://www.w3.org/2000/svg">
  <sodipodi:namedview
     id="namedview1"
     pagecolor="#ffffff"
     bordercolor="#000000"
     borderopacity="0.25"
     inkscape:showpageshadow="2"
     inkscape:pageopacity="0.0"
     inkscape:pagecheckerboard="0"
     inkscape:deskcolor="#d1d1d1">
    <inkscape:page
       x="0"
       y="0"
       inkscape:label="1"
       id="page1"
       width="360.46881"
       height="158.63319"
       margin="0"
       bleed="0" />
  </sodipodi:namedview>
  <defs
     id="defs1" />
  <path
     style="fill:#ffffff;fill-opacity:1;fill-rule:nonzero;stroke:none"
     d="m 166.0998,18.875 h 18.875 V 0 h -18.875 z"
     id="path258" />
  <path
     style="fill:#ffffff;fill-opacity:1;fill-rule:nonzero;stroke:none"
     d="M -1.4269758e-8,18.875 H 18.875 V 0 H -1.4269758e-8 Z"
     id="path259" />
  <path
     style="fill:#ffffff;fill-opacity:1;fill-rule:nonzero;stroke:none"
     d="m 343.5418,18.875 h 16.927 V 0 h -16.927 z"
     id="path260" />
  <path
     style="fill:#63c99d;fill-opacity:1;fill-rule:nonzero;stroke:none"
     d="m 322.1978,114.521 c 0.697,3.052 0.515,3.787 0.348,4.703 -1.025,5.682 1.787,6.084 4.433,4.938 3.12,-1.329 4.26,-1.756 2.286,-7.724 -0.552,-1.666 -1.828,-8.318 -1.828,-8.318 -0.135,-2.448 -1.567,-4.755 -2.927,-5.287 -1.432,-0.557 -0.901,-0.233 -2.323,-0.504 -1.349,-0.267 -3.412,0.468 -3.849,1.624 -0.421,1.109 0.609,2.417 1.855,4.489 0.984,1.647 2.005,6.079 2.005,6.079"
     id="path261" />
  <path
     style="fill:none;stroke:#231f20;stroke-width:0.565977;stroke-linecap:butt;stroke-linejoin:miter;stroke-miterlimit:4;stroke-dasharray:none;stroke-opacity:1"
     d="m 322.1978,114.521 c 0.697,3.052 0.515,3.787 0.348,4.703 -1.025,5.682 1.787,6.084 4.433,4.938 3.12,-1.329 4.26,-1.756 2.286,-7.724 -0.552,-1.666 -1.828,-8.318 -1.828,-8.318 -0.135,-2.448 -1.567,-4.755 -2.927,-5.287 -1.432,-0.557 -0.901,-0.233 -2.323,-0.504 -1.349,-0.267 -3.412,0.468 -3.849,1.624 -0.421,1.109 0.609,2.417 1.855,4.489 0.984,1.647 2.005,6.079 2.005,6.079 z"
     id="path262" />
  <path
     style="fill:#ffffff;fill-opacity:1;fill-rule:nonzero;stroke:none"
     d="m 326.7698,95.906 c 0.057,-0.229 1.204,-0.292 1.219,-0.812 0.016,-0.526 -0.75,-0.745 -1.547,-2.562 l -0.009,-0.022 c -0.538,-1.348 -1.554,-2.306 -2.798,-2.437 -2.068,-0.229 -3.989,1.869 -4.292,4.672 -0.301,2.817 1.131,5.271 3.194,5.495 1.973,0.218 3.817,-1.698 4.233,-4.334"
     id="path263" />
  <path
     style="fill:none;stroke:#231f20;stroke-width:0.565977;stroke-linecap:butt;stroke-linejoin:miter;stroke-miterlimit:4;stroke-dasharray:none;stroke-opacity:1"
     d="m 326.7698,95.906 c 0.057,-0.229 1.204,-0.292 1.219,-0.812 0.016,-0.526 -0.75,-0.745 -1.547,-2.562 l -0.009,-0.022 c -0.538,-1.348 -1.554,-2.306 -2.798,-2.437 -2.068,-0.229 -3.989,1.869 -4.292,4.672 -0.301,2.817 1.131,5.271 3.194,5.495 1.973,0.218 3.817,-1.698 4.233,-4.334 z"
     id="path264" />
  <path
     style="fill:#231f20;fill-opacity:1;fill-rule:nonzero;stroke:none"
     d="m 336.3898,136.693 c -2.063,0.943 -2.333,1.407 -1.984,2.303 0.229,0.598 0.229,1.224 0.349,1.593 0.406,1.235 1.604,3.145 6.38,7.667 1.083,1.025 2.599,2.473 3.167,3.125 0.907,1 1.979,-1.183 1.62,-1.579 -1.12,-1.297 -1.787,-2.276 -2.131,-2.792 -0.234,-0.364 -0.734,-0.937 -1.458,-2.437 -1.104,-2.276 -1.427,-3.801 -2.563,-5.583 -0.525,-0.833 -0.395,-1.786 -1.328,-2.333 -0.937,-0.563 -2.052,0.036 -2.052,0.036"
     id="path265" />
  <path
     style="fill:none;stroke:#231f20;stroke-width:0.565977;stroke-linecap:butt;stroke-linejoin:miter;stroke-miterlimit:4;stroke-dasharray:none;stroke-opacity:1"
     d="m 336.3898,136.693 c -2.063,0.943 -2.333,1.407 -1.984,2.303 0.229,0.598 0.229,1.224 0.349,1.593 0.406,1.235 1.604,3.145 6.38,7.667 1.083,1.025 2.599,2.473 3.167,3.125 0.907,1 1.979,-1.183 1.62,-1.579 -1.12,-1.297 -1.787,-2.276 -2.131,-2.792 -0.234,-0.364 -0.734,-0.937 -1.458,-2.437 -1.104,-2.276 -1.427,-3.801 -2.563,-5.583 -0.525,-0.833 -0.395,-1.786 -1.328,-2.333 -0.937,-0.563 -2.052,0.036 -2.052,0.036 z"
     id="path266" />
  <path
     style="fill:#231f20;fill-opacity:1;fill-rule:nonzero;stroke:#231f20;stroke-width:0.565977;stroke-linecap:round;stroke-linejoin:round;stroke-miterlimit:4;stroke-dasharray:none;stroke-opacity:1"
     d="m 338.6928,137.662 c 0.489,-1.338 -1.042,-2.854 -1.151,-3.172 -1.683,-4.724 -1.923,-5.021 -3.448,-8.521 -2.209,-5.073 -4.5,-8.203 -7.824,-7.781 -2.255,0.292 -3.432,1.432 -3.755,2.713 -0.36,1.412 0.36,4.505 3.094,5.459 l 1.073,1.333 c 0.615,0.984 0.921,1.469 1.188,1.984 0.452,0.891 1,1.823 1.989,3.505 1.755,2.995 4.588,5.59 4.588,5.59 0.167,0.265 0.402,0.421 0.656,0.5"
     id="path267" />
  <path
     style="fill:#63c99d;fill-opacity:1;fill-rule:nonzero;stroke:none"
     d="m 331.8378,121.573 c -0.016,-0.077 -0.031,-0.151 -0.041,-0.224 -0.068,-0.807 -0.584,-1.161 -1.459,-1.713 -1.109,-1.094 -2.344,-1.667 -3.817,-1.536 -2.256,0.208 -3.475,1.306 -3.855,2.566 -0.411,1.396 0.193,4.522 2.88,5.568 l 7.204,-3.046 c -0.297,-0.588 -0.599,-1.12 -0.912,-1.615"
     id="path268" />
  <path
     style="fill:none;stroke:#231f20;stroke-width:0.565977;stroke-linecap:butt;stroke-linejoin:miter;stroke-miterlimit:4;stroke-dasharray:none;stroke-opacity:1"
     d="m 331.8378,121.573 c -0.016,-0.077 -0.031,-0.151 -0.041,-0.224 -0.068,-0.807 -0.584,-1.161 -1.459,-1.713 -1.109,-1.094 -2.344,-1.667 -3.817,-1.536 -2.256,0.208 -3.475,1.306 -3.855,2.566 -0.411,1.396 0.193,4.522 2.88,5.568 l 7.204,-3.046 c -0.297,-0.588 -0.599,-1.12 -0.912,-1.615 z"
     id="path269" />
  <path
     style="fill:#231f20;fill-opacity:1;fill-rule:nonzero;stroke:none"
     d="m 345.5208,153.428 c -1.344,-0.142 -1.604,-1.099 -1.156,-2.032 0.129,-0.282 -0.047,-0.662 0.104,-0.922 0.353,-0.609 2.052,-1.005 2.744,0.334 0.048,0.093 0.62,0.677 0.98,1.177 0.713,0.989 1.661,3.296 0.588,5.771 -0.506,1.172 -1.104,0.661 -1.047,0.13 0.193,-1.709 -0.12,-1.89 -0.235,-2.354 -0.374,-1.584 -1.978,-2.104 -1.978,-2.104"
     id="path270" />
  <path
     style="fill:none;stroke:#231f20;stroke-width:0.332927;stroke-linecap:butt;stroke-linejoin:miter;stroke-miterlimit:4;stroke-dasharray:none;stroke-opacity:1"
     d="m 345.5208,153.428 c -1.344,-0.142 -1.604,-1.099 -1.156,-2.032 0.129,-0.282 -0.047,-0.662 0.104,-0.922 0.353,-0.609 2.052,-1.005 2.744,0.334 0.048,0.093 0.62,0.677 0.98,1.177 0.713,0.989 1.661,3.296 0.588,5.771 -0.506,1.172 -1.104,0.661 -1.047,0.13 0.193,-1.709 -0.12,-1.89 -0.235,-2.354 -0.374,-1.584 -1.978,-2.104 -1.978,-2.104 z"
     id="path271" />
  <path
     style="fill:none;stroke:#231f20;stroke-width:0.399514;stroke-linecap:butt;stroke-linejoin:miter;stroke-miterlimit:4;stroke-dasharray:none;stroke-opacity:1"
     d="M 53.8493,93.792 C 46.928,68.224 76.1356,50.167 83.2608,48.735"
     id="path272" />
  <path
     style="fill:#231f20;fill-opacity:1;fill-rule:nonzero;stroke:none"
     d="m 84.4428,48.5 c -0.515,0.319 -1.135,0.808 -1.489,1.267 l 0.15,-1 -0.52,-0.86 c 0.5,0.286 1.26,0.5 1.859,0.593"
     id="path273" />
  <path
     style="fill:#63c99d;fill-opacity:1;fill-rule:nonzero;stroke:none"
     d="m 34.4748,95.548 c -1.4948,2.749 -2.1151,3.181 -2.8391,3.754 -4.5265,3.599 -2.677,5.75 0.0631,6.64 3.224,1.054 4.3641,1.496 6.8224,-4.29 0.6828,-1.626 4.1145,-7.464 4.1145,-7.464 1.5163,-1.927 1.9631,-4.604 1.2964,-5.902 -0.7188,-1.364 -0.5307,-0.77 -1.4161,-1.91 -0.8438,-1.09 -2.8745,-1.902 -3.9693,-1.324 -1.052,0.557 -1.1348,2.22 -1.5667,4.605 -0.3443,1.885 -2.5052,5.891 -2.5052,5.891"
     id="path274" />
  <path
     style="fill:none;stroke:#231f20;stroke-width:0.565977;stroke-linecap:butt;stroke-linejoin:miter;stroke-miterlimit:4;stroke-dasharray:none;stroke-opacity:1"
     d="m 34.4748,95.548 c -1.4948,2.749 -2.1151,3.181 -2.8391,3.754 -4.5265,3.599 -2.677,5.75 0.0631,6.64 3.224,1.054 4.3641,1.496 6.8224,-4.29 0.6828,-1.626 4.1145,-7.464 4.1145,-7.464 1.5163,-1.927 1.9631,-4.604 1.2964,-5.902 -0.7188,-1.364 -0.5307,-0.77 -1.4161,-1.91 -0.8438,-1.09 -2.8745,-1.902 -3.9693,-1.324 -1.052,0.557 -1.1348,2.22 -1.5667,4.605 -0.3443,1.885 -2.5052,5.891 -2.5052,5.891 z"
     id="path275" />
  <path
     style="fill:#ffffff;fill-opacity:1;fill-rule:nonzero;stroke:none"
     d="m 46.3654,80.63 c 0.1036,-0.218 1.2386,-0.03 1.3584,-0.541 0.1255,-0.511 -0.5718,-0.885 -0.9729,-2.833 v -0.022 c -0.2453,-1.432 -1.0376,-2.577 -2.2297,-2.973 -1.9746,-0.652 -4.2864,0.995 -5.1771,3.672 -0.8854,2.687 -0.0052,5.391 1.964,6.047 1.8907,0.62 4.0985,-0.86 5.0573,-3.35"
     id="path276" />
  <path
     style="fill:none;stroke:#231f20;stroke-width:0.565977;stroke-linecap:butt;stroke-linejoin:miter;stroke-miterlimit:4;stroke-dasharray:none;stroke-opacity:1"
     d="m 46.3654,80.63 c 0.1036,-0.218 1.2386,-0.03 1.3584,-0.541 0.1255,-0.511 -0.5718,-0.885 -0.9729,-2.833 v -0.022 c -0.2453,-1.432 -1.0376,-2.577 -2.2297,-2.973 -1.9746,-0.652 -4.2864,0.995 -5.1771,3.672 -0.8854,2.687 -0.0052,5.391 1.964,6.047 1.8907,0.62 4.0985,-0.86 5.0573,-3.35 z"
     id="path277" />
  <path
     style="fill:#63c99d;fill-opacity:1;fill-rule:nonzero;stroke:none"
     d="m 36.4587,104.87 c 0.1557,-1.552 -0.1776,-2.874 -1.2078,-3.932 -1.5844,-1.63 -3.2042,-1.886 -4.4229,-1.385 -1.3427,0.561 -3.3907,2.995 -2.5093,5.744 l 6.8946,3.677 c 0.272,-0.598 0.4907,-1.166 0.683,-1.718 0.0514,-0.063 0.0984,-0.131 0.1504,-0.178 0.5838,-0.557 0.5376,-1.182 0.412,-2.208"
     id="path281" />
  <path
     style="fill:none;stroke:#231f20;stroke-width:0.565977;stroke-linecap:butt;stroke-linejoin:miter;stroke-miterlimit:4;stroke-dasharray:none;stroke-opacity:1"
     d="m 36.4587,104.87 c 0.1557,-1.552 -0.1776,-2.874 -1.2078,-3.932 -1.5844,-1.63 -3.2042,-1.886 -4.4229,-1.385 -1.3427,0.561 -3.3907,2.995 -2.5093,5.744 l 6.8946,3.677 c 0.272,-0.598 0.4907,-1.166 0.683,-1.718 0.0514,-0.063 0.0984,-0.131 0.1504,-0.178 0.5838,-0.557 0.5376,-1.182 0.412,-2.208 z"
     id="path282" />
  <path
     style="fill:#ffffff;fill-opacity:1;fill-rule:nonzero;stroke:none"
     d="m 8.3187,108.652 c 0,0.686 0.552,1.238 1.2386,1.238 h 342.1135 c 0.683,0 1.24,-0.552 1.24,-1.238 0,-0.683 -0.557,-1.24 -1.24,-1.24 H 9.5573 c -0.6866,0 -1.2386,0.557 -1.2386,1.24"
     id="path285" />
  <path
     style="fill:none;stroke:#231f20;stroke-width:0.665856;stroke-linecap:butt;stroke-linejoin:miter;stroke-miterlimit:4;stroke-dasharray:none;stroke-opacity:1"
     d="m 8.3187,108.652 c 0,0.686 0.552,1.238 1.2386,1.238 h 342.1135 c 0.683,0 1.24,-0.552 1.24,-1.238 0,-0.683 -0.557,-1.24 -1.24,-1.24 H 9.5573 c -0.6866,0 -1.2386,0.557 -1.2386,1.24 z"
     id="path286" />
  <path
     style="fill:#231f20;fill-opacity:1;fill-rule:nonzero;stroke:none"
     d="m 148.1558,90.068 c -0.619,-0.391 -2.613,-2.959 -3.036,-3.568 -0.385,-0.536 -1.323,-1.224 -0.755,-2.228 0.219,-0.412 0.844,-0.85 1.14,-0.959 0.246,-0.089 0.506,0.109 0.704,0.453 0.338,0.572 0.208,0.87 0.786,2.006 0,0 0.1,0.296 0.224,0.828 0.422,1.572 0.094,0.921 1.209,3.072 0.077,0.152 -0.021,0.338 -0.12,0.385 -0.172,0.068 -0.152,0.011 -0.152,0.011"
     id="path287" />
  <path
     style="fill:none;stroke:#231f20;stroke-width:0.565977;stroke-linecap:round;stroke-linejoin:round;stroke-miterlimit:4;stroke-dasharray:none;stroke-opacity:1"
     d="m 148.1558,90.068 c -0.619,-0.391 -2.613,-2.959 -3.036,-3.568 -0.385,-0.536 -1.323,-1.224 -0.755,-2.228 0.219,-0.412 0.844,-0.85 1.14,-0.959 0.246,-0.089 0.506,0.109 0.704,0.453 0.338,0.572 0.208,0.87 0.786,2.006 0,0 0.1,0.296 0.224,0.828 0.422,1.572 0.094,0.921 1.209,3.072 0.077,0.152 -0.021,0.338 -0.12,0.385 -0.172,0.068 -0.152,0.011 -0.152,0.011 z"
     id="path288" />
  <path
     style="fill:#231f20;fill-opacity:1;fill-rule:nonzero;stroke:none"
     d="m 163.0948,82.693 c -0.548,-0.479 -3.574,-1.667 -4.282,-1.901 -0.625,-0.219 -1.548,-0.916 -2.354,-0.088 -0.328,0.328 -0.574,1.046 -0.594,1.364 -0.016,0.261 0.25,0.458 0.635,0.546 0.647,0.162 0.896,-0.052 2.147,0.188 0,0 0.312,0.011 0.858,-0.021 1.626,-0.041 0.907,-0.172 3.287,0.287 0.167,0.032 0.317,-0.115 0.339,-0.224 0.016,-0.182 -0.036,-0.151 -0.036,-0.151"
     id="path289" />
  <path
     style="fill:none;stroke:#231f20;stroke-width:0.565977;stroke-linecap:round;stroke-linejoin:round;stroke-miterlimit:4;stroke-dasharray:none;stroke-opacity:1"
     d="m 163.0948,82.693 c -0.548,-0.479 -3.574,-1.667 -4.282,-1.901 -0.625,-0.219 -1.548,-0.916 -2.354,-0.088 -0.328,0.328 -0.574,1.046 -0.594,1.364 -0.016,0.261 0.25,0.458 0.635,0.546 0.647,0.162 0.896,-0.052 2.147,0.188 0,0 0.312,0.011 0.858,-0.021 1.626,-0.041 0.907,-0.172 3.287,0.287 0.167,0.032 0.317,-0.115 0.339,-0.224 0.016,-0.182 -0.036,-0.151 -0.036,-0.151 z"
     id="path290" />
  <path
     style="fill:#231f20;fill-opacity:1;fill-rule:nonzero;stroke:none"
     d="m 200.5568,85.401 c -0.703,-0.181 -3.385,-2.016 -3.979,-2.463 -0.532,-0.396 -1.63,-0.766 -1.401,-1.896 0.088,-0.458 0.541,-1.062 0.797,-1.261 0.203,-0.161 0.511,-0.052 0.807,0.215 0.495,0.442 0.464,0.77 1.36,1.67 0,0 0.181,0.256 0.463,0.719 0.885,1.371 0.376,0.849 2.089,2.557 0.125,0.12 0.088,0.33 0.011,0.407 -0.147,0.12 -0.147,0.052 -0.147,0.052"
     id="path291" />
  <path
     style="fill:none;stroke:#231f20;stroke-width:0.565977;stroke-linecap:round;stroke-linejoin:round;stroke-miterlimit:4;stroke-dasharray:none;stroke-opacity:1"
     d="m 200.5568,85.401 c -0.703,-0.181 -3.385,-2.016 -3.979,-2.463 -0.532,-0.396 -1.63,-0.766 -1.401,-1.896 0.088,-0.458 0.541,-1.062 0.797,-1.261 0.203,-0.161 0.511,-0.052 0.807,0.215 0.495,0.442 0.464,0.77 1.36,1.67 0,0 0.181,0.256 0.463,0.719 0.885,1.371 0.376,0.849 2.089,2.557 0.125,0.12 0.088,0.33 0.011,0.407 -0.147,0.12 -0.147,0.052 -0.147,0.052 z"
     id="path292" />
  <path
     style="fill:#231f20;fill-opacity:1;fill-rule:nonzero;stroke:none"
     d="m 185.9058,43.073 c 0.214,0.694 2.188,3.282 2.667,3.844 0.421,0.511 0.849,1.588 1.969,1.303 0.452,-0.111 1.031,-0.6 1.214,-0.86 0.15,-0.213 0.025,-0.516 -0.256,-0.797 -0.468,-0.468 -0.791,-0.422 -1.739,-1.276 0,0 -0.267,-0.167 -0.745,-0.427 -1.412,-0.812 -0.864,-0.323 -2.662,-1.953 -0.125,-0.115 -0.328,-0.068 -0.401,0.016 -0.109,0.15 -0.047,0.15 -0.047,0.15"
     id="path293" />
  <path
     style="fill:none;stroke:#231f20;stroke-width:0.565977;stroke-linecap:round;stroke-linejoin:round;stroke-miterlimit:4;stroke-dasharray:none;stroke-opacity:1"
     d="m 185.9058,43.073 c 0.214,0.694 2.188,3.282 2.667,3.844 0.421,0.511 0.849,1.588 1.969,1.303 0.452,-0.111 1.031,-0.6 1.214,-0.86 0.15,-0.213 0.025,-0.516 -0.256,-0.797 -0.468,-0.468 -0.791,-0.422 -1.739,-1.276 0,0 -0.267,-0.167 -0.745,-0.427 -1.412,-0.812 -0.864,-0.323 -2.662,-1.953 -0.125,-0.115 -0.328,-0.068 -0.401,0.016 -0.109,0.15 -0.047,0.15 -0.047,0.15 z"
     id="path294" />
  <path
     style="fill:#231f20;fill-opacity:1;fill-rule:nonzero;stroke:none"
     d="m 224.0318,88.344 c -0.282,-0.672 -0.434,-3.916 -0.434,-4.662 -0.009,-0.661 -0.374,-1.76 0.667,-2.26 0.417,-0.208 1.177,-0.208 1.48,-0.125 0.26,0.068 0.355,0.375 0.317,0.771 -0.052,0.661 -0.333,0.833 -0.505,2.098 0,0 -0.099,0.298 -0.296,0.803 -0.557,1.531 -0.448,0.807 -0.776,3.208 -0.021,0.172 -0.209,0.265 -0.324,0.251 -0.176,-0.043 -0.129,-0.084 -0.129,-0.084"
     id="path295" />
  <path
     style="fill:none;stroke:#231f20;stroke-width:0.565977;stroke-linecap:round;stroke-linejoin:round;stroke-miterlimit:4;stroke-dasharray:none;stroke-opacity:1"
     d="m 224.0318,88.344 c -0.282,-0.672 -0.434,-3.916 -0.434,-4.662 -0.009,-0.661 -0.374,-1.76 0.667,-2.26 0.417,-0.208 1.177,-0.208 1.48,-0.125 0.26,0.068 0.355,0.375 0.317,0.771 -0.052,0.661 -0.333,0.833 -0.505,2.098 0,0 -0.099,0.298 -0.296,0.803 -0.557,1.531 -0.448,0.807 -0.776,3.208 -0.021,0.172 -0.209,0.265 -0.324,0.251 -0.176,-0.043 -0.129,-0.084 -0.129,-0.084 z"
     id="path296" />
  <path
     style="fill:#231f20;fill-opacity:1;fill-rule:nonzero;stroke:none"
     d="m 248.9418,51.109 c -0.421,0.595 -1.296,3.73 -1.457,4.454 -0.152,0.641 -0.756,1.63 0.151,2.354 0.358,0.292 1.098,0.464 1.421,0.448 0.256,-0.01 0.423,-0.292 0.475,-0.682 0.093,-0.662 -0.142,-0.886 -0.032,-2.162 0,0 -0.026,-0.306 -0.11,-0.849 -0.202,-1.615 -0.254,-0.885 -0.046,-3.301 0.016,-0.167 -0.146,-0.303 -0.255,-0.314 -0.188,0.006 -0.147,0.052 -0.147,0.052"
     id="path297" />
  <path
     style="fill:none;stroke:#231f20;stroke-width:0.565977;stroke-linecap:round;stroke-linejoin:round;stroke-miterlimit:4;stroke-dasharray:none;stroke-opacity:1"
     d="m 248.9418,51.109 c -0.421,0.595 -1.296,3.73 -1.457,4.454 -0.152,0.641 -0.756,1.63 0.151,2.354 0.358,0.292 1.098,0.464 1.421,0.448 0.256,-0.01 0.423,-0.292 0.475,-0.682 0.093,-0.662 -0.142,-0.886 -0.032,-2.162 0,0 -0.026,-0.306 -0.11,-0.849 -0.202,-1.615 -0.254,-0.885 -0.046,-3.301 0.016,-0.167 -0.146,-0.303 -0.255,-0.314 -0.188,0.006 -0.147,0.052 -0.147,0.052 z"
     id="path298" />
  <path
     style="fill:#231f20;fill-opacity:1;fill-rule:nonzero;stroke:none"
     d="m 158.0788,81.188 c -0.292,-0.568 -2.094,-1.323 -3.23,-2.454 -0.77,-0.77 -3.333,-1.744 -4.041,-2.568 -0.652,-0.749 -1.016,-1.036 -2.005,-0.442 -0.584,0.354 -1.484,1.406 -1.24,1.86 0.568,1.046 1.302,1.636 2.26,2.114 1.089,0.542 4.172,1.755 4.761,1.927 1.463,0.423 1.891,1.021 2.265,1.167 0.708,0.281 0.99,0.078 1.271,-0.339 0.536,-0.801 -0.041,-1.265 -0.041,-1.265"
     id="path299" />
  <path
     style="fill:none;stroke:#231f20;stroke-width:0.565977;stroke-linecap:butt;stroke-linejoin:miter;stroke-miterlimit:4;stroke-dasharray:none;stroke-opacity:1"
     d="m 158.0788,81.188 c -0.292,-0.568 -2.094,-1.323 -3.23,-2.454 -0.77,-0.77 -3.333,-1.744 -4.041,-2.568 -0.652,-0.749 -1.016,-1.036 -2.005,-0.442 -0.584,0.354 -1.484,1.406 -1.24,1.86 0.568,1.046 1.302,1.636 2.26,2.114 1.089,0.542 4.172,1.755 4.761,1.927 1.463,0.423 1.891,1.021 2.265,1.167 0.708,0.281 0.99,0.078 1.271,-0.339 0.536,-0.801 -0.041,-1.265 -0.041,-1.265 z"
     id="path300" />
  <path
     style="fill:#231f20;fill-opacity:1;fill-rule:nonzero;stroke:none"
     d="m 148.4228,78.182 c -1.251,0.36 -1.438,-1.672 -1.574,-2.192 -0.13,-0.532 -0.677,-1.985 -1.26,-3.062 -0.568,-1.09 -0.822,-2.683 -1.912,-4.74 -0.573,-1.074 -0.442,-2.495 1.162,-3.25 1.584,-0.756 2.609,-0.152 3.104,1.266 0.494,1.41 0.36,2.948 0.756,4.401 0.401,1.457 0.942,2.911 1.421,4.025 0.547,1.271 0.349,2.099 0.011,2.443 -0.823,0.869 -1.708,1.109 -1.708,1.109"
     id="path301" />
  <path
     style="fill:none;stroke:#231f20;stroke-width:0.565977;stroke-linecap:butt;stroke-linejoin:miter;stroke-miterlimit:4;stroke-dasharray:none;stroke-opacity:1"
     d="m 148.4228,78.182 c -1.251,0.36 -1.438,-1.672 -1.574,-2.192 -0.13,-0.532 -0.677,-1.985 -1.26,-3.062 -0.568,-1.09 -0.822,-2.683 -1.912,-4.74 -0.573,-1.074 -0.442,-2.495 1.162,-3.25 1.584,-0.756 2.609,-0.152 3.104,1.266 0.494,1.41 0.36,2.948 0.756,4.401 0.401,1.457 0.942,2.911 1.421,4.025 0.547,1.271 0.349,2.099 0.011,2.443 -0.823,0.869 -1.708,1.109 -1.708,1.109 z"
     id="path302" />
  <path
     style="fill:#63c99d;fill-opacity:1;fill-rule:nonzero;stroke:none"
     d="m 85.0838,80.406 c -2.849,-1.317 -3.317,-1.91 -3.932,-2.598 -3.876,-4.292 -5.9067,-2.308 -6.6255,0.484 -0.8489,3.281 -1.2131,4.442 4.7188,6.537 1.6567,0.577 7.6977,3.629 7.6977,3.629 2.021,1.391 4.724,1.672 5.975,0.918 1.317,-0.792 0.738,-0.574 1.822,-1.527 1.031,-0.911 1.714,-2.984 1.068,-4.041 -0.62,-1.011 -2.287,-0.99 -4.694,-1.276 -1.901,-0.224 -6.03,-2.126 -6.03,-2.126"
     id="path303" />
  <path
     style="fill:none;stroke:#231f20;stroke-width:0.565977;stroke-linecap:butt;stroke-linejoin:miter;stroke-miterlimit:4;stroke-dasharray:none;stroke-opacity:1"
     d="m 85.0838,80.406 c -2.849,-1.317 -3.317,-1.91 -3.932,-2.598 -3.876,-4.292 -5.9067,-2.308 -6.6255,0.484 -0.8489,3.281 -1.2131,4.442 4.7188,6.537 1.6567,0.577 7.6977,3.629 7.6977,3.629 2.021,1.391 4.724,1.672 5.975,0.918 1.317,-0.792 0.738,-0.574 1.822,-1.527 1.031,-0.911 1.714,-2.984 1.068,-4.041 -0.62,-1.011 -2.287,-0.99 -4.694,-1.276 -1.901,-0.224 -6.03,-2.126 -6.03,-2.126 z"
     id="path304" />
  <path
     style="fill:#ffffff;fill-opacity:1;fill-rule:nonzero;stroke:none"
     d="m 103.4328,88.13 c 0.214,-0.12 1.026,0.699 1.422,0.36 0.401,-0.344 0.052,-1.052 0.869,-2.87 l 0.011,-0.015 c 0.636,-1.308 0.666,-2.699 -0.068,-3.715 -1.219,-1.681 -4.063,-1.697 -6.348,-0.052 -2.293,1.662 -3.152,4.376 -1.939,6.052 1.163,1.61 3.829,1.699 6.053,0.24"
     id="path305" />
  <path
     style="fill:none;stroke:#231f20;stroke-width:0.565977;stroke-linecap:butt;stroke-linejoin:miter;stroke-miterlimit:4;stroke-dasharray:none;stroke-opacity:1"
     d="m 103.4328,88.13 c 0.214,-0.12 1.026,0.699 1.422,0.36 0.401,-0.344 0.052,-1.052 0.869,-2.87 l 0.011,-0.015 c 0.636,-1.308 0.666,-2.699 -0.068,-3.715 -1.219,-1.681 -4.063,-1.697 -6.348,-0.052 -2.293,1.662 -3.152,4.376 -1.939,6.052 1.163,1.61 3.829,1.699 6.053,0.24 z"
     id="path306" />
  <path
     style="fill:#231f20;fill-opacity:1;fill-rule:nonzero;stroke:none"
     d="m 88.2508,106.724 c -0.287,-0.572 0.182,-2.468 -0.058,-4.058 -0.161,-1.072 0.578,-3.713 0.333,-4.77 -0.218,-0.968 -0.229,-1.438 0.834,-1.875 0.63,-0.265 2.016,-0.359 2.235,0.104 0.505,1.079 0.541,2.021 0.353,3.073 -0.208,1.198 -1.057,4.396 -1.27,4.974 -0.531,1.428 -0.302,2.13 -0.407,2.521 -0.198,0.735 -0.531,0.839 -1.026,0.817 -0.964,-0.046 -0.994,-0.786 -0.994,-0.786"
     id="path307" />
  <path
     style="fill:none;stroke:#231f20;stroke-width:0.565977;stroke-linecap:butt;stroke-linejoin:miter;stroke-miterlimit:4;stroke-dasharray:none;stroke-opacity:1"
     d="m 88.2508,106.724 c -0.287,-0.572 0.182,-2.468 -0.058,-4.058 -0.161,-1.072 0.578,-3.713 0.333,-4.77 -0.218,-0.968 -0.229,-1.438 0.834,-1.875 0.63,-0.265 2.016,-0.359 2.235,0.104 0.505,1.079 0.541,2.021 0.353,3.073 -0.208,1.198 -1.057,4.396 -1.27,4.974 -0.531,1.428 -0.302,2.13 -0.407,2.521 -0.198,0.735 -0.531,0.839 -1.026,0.817 -0.964,-0.046 -0.994,-0.786 -0.994,-0.786 z"
     id="path308" />
  <path
     style="fill:#231f20;fill-opacity:1;fill-rule:nonzero;stroke:none"
     d="m 89.1778,97.709 c -1.271,-0.271 -0.485,-2.152 -0.355,-2.672 0.136,-0.532 0.333,-2.073 0.338,-3.292 0.006,-1.229 0.532,-2.755 0.543,-5.083 0,-1.224 0.781,-2.406 2.557,-2.324 1.755,0.084 2.364,1.1 2.135,2.579 -0.229,1.479 -1.068,2.771 -1.406,4.245 -0.334,1.474 -0.542,3.004 -0.646,4.219 -0.114,1.375 -0.683,2.015 -1.14,2.161 -1.136,0.37 -2.026,0.167 -2.026,0.167"
     id="path309" />
  <path
     style="fill:none;stroke:#231f20;stroke-width:0.565977;stroke-linecap:butt;stroke-linejoin:miter;stroke-miterlimit:4;stroke-dasharray:none;stroke-opacity:1"
     d="m 89.1778,97.709 c -1.271,-0.271 -0.485,-2.152 -0.355,-2.672 0.136,-0.532 0.333,-2.073 0.338,-3.292 0.006,-1.229 0.532,-2.755 0.543,-5.083 0,-1.224 0.781,-2.406 2.557,-2.324 1.755,0.084 2.364,1.1 2.135,2.579 -0.229,1.479 -1.068,2.771 -1.406,4.245 -0.334,1.474 -0.542,3.004 -0.646,4.219 -0.114,1.375 -0.683,2.015 -1.14,2.161 -1.136,0.37 -2.026,0.167 -2.026,0.167 z"
     id="path310" />
  <path
     style="fill:#231f20;fill-opacity:1;fill-rule:nonzero;stroke:none"
     d="m 61.0998,71.51 c 1.2495,-1.885 1.2391,-2.421 0.4735,-3 -0.5104,-0.39 -0.8438,-0.916 -1.1402,-1.166 -0.9958,-0.839 -3.0156,-1.828 -9.4583,-3.151 -1.464,-0.297 -3.511,-0.735 -4.3334,-0.979 -1.3025,-0.381 -1.0629,2.042 -0.5468,2.198 1.635,0.505 2.7187,0.984 3.2812,1.245 0.3855,0.181 1.1188,0.405 2.5256,1.296 2.1359,1.349 3.2129,2.48 5.1197,3.396 0.8855,0.427 1.276,1.303 2.3588,1.276 1.0839,-0.016 1.7199,-1.115 1.7199,-1.115"
     id="path311" />
  <path
     style="fill:none;stroke:#231f20;stroke-width:0.565977;stroke-linecap:butt;stroke-linejoin:miter;stroke-miterlimit:4;stroke-dasharray:none;stroke-opacity:1"
     d="m 61.0998,71.51 c 1.2495,-1.885 1.2391,-2.421 0.4735,-3 -0.5104,-0.39 -0.8438,-0.916 -1.1402,-1.166 -0.9958,-0.839 -3.0156,-1.828 -9.4583,-3.151 -1.464,-0.297 -3.511,-0.735 -4.3334,-0.979 -1.3025,-0.381 -1.0629,2.042 -0.5468,2.198 1.635,0.505 2.7187,0.984 3.2812,1.245 0.3855,0.181 1.1188,0.405 2.5256,1.296 2.1359,1.349 3.2129,2.48 5.1197,3.396 0.8855,0.427 1.276,1.303 2.3588,1.276 1.0839,-0.016 1.7199,-1.115 1.7199,-1.115 z"
     id="path312" />
  <path
     style="fill:#231f20;fill-opacity:1;fill-rule:nonzero;stroke:#231f20;stroke-width:0.565977;stroke-linecap:round;stroke-linejoin:round;stroke-miterlimit:4;stroke-dasharray:none;stroke-opacity:1"
     d="m 58.6305,71.906 c 0.2974,1.391 2.3906,1.87 2.6562,2.084 3.9172,3.124 4.2762,3.25 7.4172,5.422 4.5521,3.136 8.1505,4.588 10.7495,2.474 1.7654,-1.438 2.1554,-3.026 1.7594,-4.281 -0.437,-1.391 -2.6865,-3.641 -5.5037,-3.005 l -1.6145,-0.563 c -1.048,-0.521 -1.5626,-0.771 -2.0574,-1.063 -0.8546,-0.521 -1.8077,-1.016 -3.5426,-1.926 -3.0719,-1.62 -6.8427,-2.33 -6.8427,-2.33 -0.2761,-0.134 -0.5573,-0.14 -0.824,-0.077"
     id="path313" />
  <path
     style="fill:#63c99d;fill-opacity:1;fill-rule:nonzero;stroke:none"
     d="m 81.2088,77.881 c -0.39,-1.401 -2.5476,-3.74 -5.3902,-3.209 l -4.5,6.385 c 0.5572,0.349 1.0932,0.636 1.6186,0.896 0.0574,0.052 0.1094,0.109 0.1522,0.167 0.489,0.652 1.1145,0.682 2.1505,0.682 1.5161,0.35 2.8692,0.183 4.0468,-0.708 1.8081,-1.365 2.2651,-2.942 1.9221,-4.213"
     id="path314" />
  <path
     style="fill:none;stroke:#231f20;stroke-width:0.565977;stroke-linecap:butt;stroke-linejoin:miter;stroke-miterlimit:4;stroke-dasharray:none;stroke-opacity:1"
     d="m 81.2088,77.881 c -0.39,-1.401 -2.5476,-3.74 -5.3902,-3.209 l -4.5,6.385 c 0.5572,0.349 1.0932,0.636 1.6186,0.896 0.0574,0.052 0.1094,0.109 0.1522,0.167 0.489,0.652 1.1145,0.682 2.1505,0.682 1.5161,0.35 2.8692,0.183 4.0468,-0.708 1.8081,-1.365 2.2651,-2.942 1.9221,-4.213 z"
     id="path315" />
  <path
     style="fill:#231f20;fill-opacity:1;fill-rule:nonzero;stroke:none"
     d="m 44.516,62.115 c 1.2188,-0.588 1.9426,0.089 2.0573,1.119 0.0359,0.308 0.3853,0.532 0.3957,0.834 0.0204,0.708 -1.2129,1.937 -2.5,1.166 -0.0932,-0.057 -0.8905,-0.249 -1.4634,-0.484 -1.1256,-0.464 -3.1459,-1.926 -3.5469,-4.593 -0.188,-1.266 0.5933,-1.141 0.8281,-0.657 0.7292,1.548 1.0985,1.543 1.4428,1.876 1.1504,1.145 2.7864,0.739 2.7864,0.739"
     id="path316" />
  <path
     style="fill:none;stroke:#231f20;stroke-width:0.332927;stroke-linecap:butt;stroke-linejoin:miter;stroke-miterlimit:4;stroke-dasharray:none;stroke-opacity:1"
     d="m 44.516,62.115 c 1.2188,-0.588 1.9426,0.089 2.0573,1.119 0.0359,0.308 0.3853,0.532 0.3957,0.834 0.0204,0.708 -1.2129,1.937 -2.5,1.166 -0.0932,-0.057 -0.8905,-0.249 -1.4634,-0.484 -1.1256,-0.464 -3.1459,-1.926 -3.5469,-4.593 -0.188,-1.266 0.5933,-1.141 0.8281,-0.657 0.7292,1.548 1.0985,1.543 1.4428,1.876 1.1504,1.145 2.7864,0.739 2.7864,0.739 z"
     id="path317" />
  <path
     style="fill:#231f20;fill-opacity:1;fill-rule:nonzero;stroke:none"
     d="m 91.9368,108.261 c 0,1.172 -0.952,2.129 -2.135,2.129 -1.177,0 -2.13,-0.957 -2.13,-2.129 0,-1.183 0.953,-2.136 2.13,-2.136 1.183,0 2.135,0.953 2.135,2.136"
     id="path318" />
  <path
     style="fill:#231f20;fill-opacity:1;fill-rule:nonzero;stroke:none"
     d="m 36.7509,108.573 c -0.2922,-0.573 0.1771,-2.468 -0.063,-4.057 -0.1615,-1.074 0.5776,-3.719 0.3333,-4.771 -0.2188,-0.973 -0.2292,-1.437 0.8385,-1.88 0.6298,-0.26 2.0162,-0.355 2.235,0.109 0.5041,1.074 0.541,2.016 0.353,3.074 -0.2025,1.197 -1.0624,4.394 -1.2702,4.973 -0.5308,1.421 -0.3016,2.125 -0.4068,2.516 -0.1974,0.735 -0.5307,0.844 -1.0307,0.823 -0.9641,-0.047 -0.9891,-0.787 -0.9891,-0.787"
     id="path319" />
  <path
     style="fill:none;stroke:#231f20;stroke-width:0.565977;stroke-linecap:butt;stroke-linejoin:miter;stroke-miterlimit:4;stroke-dasharray:none;stroke-opacity:1"
     d="m 36.7509,108.573 c -0.2922,-0.573 0.1771,-2.468 -0.063,-4.057 -0.1615,-1.074 0.5776,-3.719 0.3333,-4.771 -0.2188,-0.973 -0.2292,-1.437 0.8385,-1.88 0.6298,-0.26 2.0162,-0.355 2.235,0.109 0.5041,1.074 0.541,2.016 0.353,3.074 -0.2025,1.197 -1.0624,4.394 -1.2702,4.973 -0.5308,1.421 -0.3016,2.125 -0.4068,2.516 -0.1974,0.735 -0.5307,0.844 -1.0307,0.823 -0.9641,-0.047 -0.9891,-0.787 -0.9891,-0.787 z"
     id="path320" />
  <path
     style="fill:#231f20;fill-opacity:1;fill-rule:nonzero;stroke:none"
     d="m 37.6723,99.557 c -1.2708,-0.271 -0.4844,-2.151 -0.3536,-2.671 0.1348,-0.532 0.3374,-2.073 0.3374,-3.297 0.0052,-1.229 0.5318,-2.751 0.5427,-5.079 0.0052,-1.224 0.7865,-2.41 2.5625,-2.328 1.7547,0.09 2.3692,1.099 2.1401,2.584 -0.2292,1.479 -1.0734,2.771 -1.4068,4.244 -0.3385,1.47 -0.5469,3.006 -0.6505,4.219 -0.1145,1.376 -0.6828,2.016 -1.1401,2.156 -1.1359,0.376 -2.0317,0.172 -2.0317,0.172"
     id="path321" />
  <path
     style="fill:none;stroke:#231f20;stroke-width:0.565977;stroke-linecap:butt;stroke-linejoin:miter;stroke-miterlimit:4;stroke-dasharray:none;stroke-opacity:1"
     d="m 37.6723,99.557 c -1.2708,-0.271 -0.4844,-2.151 -0.3536,-2.671 0.1348,-0.532 0.3374,-2.073 0.3374,-3.297 0.0052,-1.229 0.5318,-2.751 0.5427,-5.079 0.0052,-1.224 0.7865,-2.41 2.5625,-2.328 1.7547,0.09 2.3692,1.099 2.1401,2.584 -0.2292,1.479 -1.0734,2.771 -1.4068,4.244 -0.3385,1.47 -0.5469,3.006 -0.6505,4.219 -0.1145,1.376 -0.6828,2.016 -1.1401,2.156 -1.1359,0.376 -2.0317,0.172 -2.0317,0.172 z"
     id="path322" />
  <path
     style="fill:#231f20;fill-opacity:1;fill-rule:nonzero;stroke:none"
     d="m 40.4373,110.105 c 0,1.181 -0.9573,2.135 -2.1349,2.135 -1.1771,0 -2.1359,-0.954 -2.1359,-2.135 0,-1.177 0.9588,-2.131 2.1359,-2.131 1.1776,0 2.1349,0.954 2.1349,2.131"
     id="path323" />
  <path
     style="fill:#63c99d;fill-opacity:1;fill-rule:nonzero;stroke:none"
     d="m 276.9688,90.261 c 3.172,1.505 4.12,1.749 5.187,2.145 5.422,2 6.22,0.99 7.152,-1.218 1.306,-3.131 1.724,-4.964 -4.287,-6.828 -4.568,-1.422 -7.443,-4.136 -7.443,-4.136 -2.365,-2.031 -3.396,-2.468 -5.896,-1.302 -1.396,0.651 -0.869,0.422 -1.921,1.407 -1.959,1.828 -1.964,2.952 -1.328,3.963 0.629,1.005 1.443,1.646 3.812,3.161 1.833,1.177 4.724,2.808 4.724,2.808"
     id="path324" />
  <path
     style="fill:none;stroke:#231f20;stroke-width:0.565977;stroke-linecap:butt;stroke-linejoin:miter;stroke-miterlimit:4;stroke-dasharray:none;stroke-opacity:1"
     d="m 276.9688,90.261 c 3.172,1.505 4.12,1.749 5.187,2.145 5.422,2 6.22,0.99 7.152,-1.218 1.306,-3.131 1.724,-4.964 -4.287,-6.828 -4.568,-1.422 -7.443,-4.136 -7.443,-4.136 -2.365,-2.031 -3.396,-2.468 -5.896,-1.302 -1.396,0.651 -0.869,0.422 -1.921,1.407 -1.959,1.828 -1.964,2.952 -1.328,3.963 0.629,1.005 1.443,1.646 3.812,3.161 1.833,1.177 4.724,2.808 4.724,2.808 z"
     id="path325" />
  <path
     style="fill:#ffffff;fill-opacity:1;fill-rule:nonzero;stroke:none"
     d="m 269.8488,73.204 c -0.12,-0.214 0.697,-1.022 0.36,-1.418 -0.333,-0.405 -1.048,-0.062 -2.86,-0.885 l -0.016,-0.015 c -1.301,-0.646 -2.692,-0.677 -3.713,0.052 -1.688,1.208 -1.73,4.047 -0.088,6.343 1.65,2.297 4.348,3.177 6.036,1.975 1.62,-1.151 1.718,-3.814 0.281,-6.052"
     id="path326" />
  <path
     style="fill:none;stroke:#231f20;stroke-width:0.565977;stroke-linecap:butt;stroke-linejoin:miter;stroke-miterlimit:4;stroke-dasharray:none;stroke-opacity:1"
     d="m 269.8488,73.204 c -0.12,-0.214 0.697,-1.022 0.36,-1.418 -0.333,-0.405 -1.048,-0.062 -2.86,-0.885 l -0.016,-0.015 c -1.301,-0.646 -2.692,-0.677 -3.713,0.052 -1.688,1.208 -1.73,4.047 -0.088,6.343 1.65,2.297 4.348,3.177 6.036,1.975 1.62,-1.151 1.718,-3.814 0.281,-6.052 z"
     id="path327" />
  <path
     style="fill:#231f20;fill-opacity:1;fill-rule:nonzero;stroke:none"
     d="m 281.9638,99.917 c -0.642,0.025 -2.172,-1.193 -3.708,-1.651 -1.043,-0.302 -3.136,-2.078 -4.194,-2.297 -0.973,-0.208 -1.401,-0.396 -1.353,-1.547 0.025,-0.682 0.52,-1.98 1.031,-1.98 1.188,-0.009 2.068,0.35 2.942,0.959 1,0.688 3.547,2.813 3.979,3.245 1.073,1.078 1.808,1.167 2.12,1.422 0.584,0.489 0.541,0.833 0.313,1.281 -0.448,0.855 -1.13,0.568 -1.13,0.568"
     id="path328" />
  <path
     style="fill:none;stroke:#231f20;stroke-width:0.565977;stroke-linecap:butt;stroke-linejoin:miter;stroke-miterlimit:4;stroke-dasharray:none;stroke-opacity:1"
     d="m 281.9638,99.917 c -0.642,0.025 -2.172,-1.193 -3.708,-1.651 -1.043,-0.302 -3.136,-2.078 -4.194,-2.297 -0.973,-0.208 -1.401,-0.396 -1.353,-1.547 0.025,-0.682 0.52,-1.98 1.031,-1.98 1.188,-0.009 2.068,0.35 2.942,0.959 1,0.688 3.547,2.813 3.979,3.245 1.073,1.078 1.808,1.167 2.12,1.422 0.584,0.489 0.541,0.833 0.313,1.281 -0.448,0.855 -1.13,0.568 -1.13,0.568 z"
     id="path329" />
  <path
     style="fill:#231f20;fill-opacity:1;fill-rule:nonzero;stroke:none"
     d="m 273.4418,94.636 c -1.265,0.281 -1.328,-1.76 -1.426,-2.282 -0.099,-0.541 -0.558,-2.025 -1.063,-3.14 -0.505,-1.12 -0.651,-2.724 -1.615,-4.849 -0.5,-1.115 -0.281,-2.516 1.366,-3.177 1.634,-0.651 2.614,0.026 3.014,1.469 0.407,1.432 0.172,2.963 0.48,4.437 0.307,1.484 0.755,2.963 1.167,4.11 0.457,1.301 0.208,2.12 -0.147,2.437 -0.874,0.812 -1.776,0.995 -1.776,0.995"
     id="path330" />
  <path
     style="fill:none;stroke:#231f20;stroke-width:0.565977;stroke-linecap:butt;stroke-linejoin:miter;stroke-miterlimit:4;stroke-dasharray:none;stroke-opacity:1"
     d="m 273.4418,94.636 c -1.265,0.281 -1.328,-1.76 -1.426,-2.282 -0.099,-0.541 -0.558,-2.025 -1.063,-3.14 -0.505,-1.12 -0.651,-2.724 -1.615,-4.849 -0.5,-1.115 -0.281,-2.516 1.366,-3.177 1.634,-0.651 2.614,0.026 3.014,1.469 0.407,1.432 0.172,2.963 0.48,4.437 0.307,1.484 0.755,2.963 1.167,4.11 0.457,1.301 0.208,2.12 -0.147,2.437 -0.874,0.812 -1.776,0.995 -1.776,0.995 z"
     id="path331" />
  <path
     style="fill:#231f20;fill-opacity:1;fill-rule:nonzero;stroke:none"
     d="m 299.4278,77.709 c 1.244,1.891 1.738,2.088 2.572,1.609 0.562,-0.313 1.177,-0.412 1.521,-0.589 1.167,-0.583 2.869,-2.057 6.62,-7.463 0.848,-1.229 2.052,-2.937 2.604,-3.6 0.858,-1.046 -1.459,-1.776 -1.808,-1.369 -1.109,1.312 -1.973,2.115 -2.437,2.532 -0.318,0.291 -0.812,0.869 -2.187,1.812 -2.079,1.437 -3.537,1.984 -5.131,3.38 -0.745,0.641 -1.708,0.656 -2.109,1.661 -0.412,1.011 0.355,2.027 0.355,2.027"
     id="path332" />
  <path
     style="fill:none;stroke:#231f20;stroke-width:0.565977;stroke-linecap:butt;stroke-linejoin:miter;stroke-miterlimit:4;stroke-dasharray:none;stroke-opacity:1"
     d="m 299.4278,77.709 c 1.244,1.891 1.738,2.088 2.572,1.609 0.562,-0.313 1.177,-0.412 1.521,-0.589 1.167,-0.583 2.869,-2.057 6.62,-7.463 0.848,-1.229 2.052,-2.937 2.604,-3.6 0.858,-1.046 -1.459,-1.776 -1.808,-1.369 -1.109,1.312 -1.973,2.115 -2.437,2.532 -0.318,0.291 -0.812,0.869 -2.187,1.812 -2.079,1.437 -3.537,1.984 -5.131,3.38 -0.745,0.641 -1.708,0.656 -2.109,1.661 -0.412,1.011 0.355,2.027 0.355,2.027 z"
     id="path333" />
  <path
     style="fill:#231f20;fill-opacity:1;fill-rule:nonzero;stroke:#231f20;stroke-width:0.565977;stroke-linecap:round;stroke-linejoin:round;stroke-miterlimit:4;stroke-dasharray:none;stroke-opacity:1"
     d="m 300.0318,75.281 c -1.396,-0.276 -2.662,1.464 -2.964,1.62 -4.412,2.375 -4.667,2.661 -7.902,4.699 -4.672,2.957 -7.416,5.692 -6.5,8.91 0.631,2.188 1.938,3.172 3.246,3.308 1.453,0.135 4.406,-1.046 4.926,-3.885 l 1.156,-1.271 c 0.886,-0.756 1.319,-1.13 1.782,-1.469 0.813,-0.579 1.652,-1.265 3.166,-2.5 2.694,-2.188 4.828,-5.385 4.828,-5.385 0.24,-0.199 0.355,-0.459 0.402,-0.724"
     id="path334" />
  <path
     style="fill:#63c99d;fill-opacity:1;fill-rule:nonzero;stroke:#231f20;stroke-width:0.565977;stroke-linecap:butt;stroke-linejoin:miter;stroke-miterlimit:4;stroke-dasharray:none;stroke-opacity:1"
     d="m 286.6248,83.354 c -3.073,2.167 -4.713,4.355 -4.088,6.922 0.552,2.198 1.817,3.24 3.124,3.422 1.443,0.192 4.439,-0.874 5.068,-3.693 z"
     id="path335" />
  <path
     style="fill:#231f20;fill-opacity:1;fill-rule:nonzero;stroke:none"
     d="m 314.5938,66.146 c 0.061,1.354 -0.849,1.75 -1.844,1.454 -0.297,-0.09 -0.646,0.145 -0.922,0.03 -0.651,-0.249 -1.302,-1.874 -0.088,-2.754 0.088,-0.063 0.573,-0.719 1.021,-1.152 0.864,-0.848 3.009,-2.135 5.614,-1.452 1.239,0.322 0.823,0.994 0.28,1.014 -1.708,0.063 -1.848,0.402 -2.29,0.59 -1.506,0.609 -1.771,2.27 -1.771,2.27"
     id="path336" />
  <path
     style="fill:none;stroke:#231f20;stroke-width:0.332927;stroke-linecap:butt;stroke-linejoin:miter;stroke-miterlimit:4;stroke-dasharray:none;stroke-opacity:1"
     d="m 314.5938,66.146 c 0.061,1.354 -0.849,1.75 -1.844,1.454 -0.297,-0.09 -0.646,0.145 -0.922,0.03 -0.651,-0.249 -1.302,-1.874 -0.088,-2.754 0.088,-0.063 0.573,-0.719 1.021,-1.152 0.864,-0.848 3.009,-2.135 5.614,-1.452 1.239,0.322 0.823,0.994 0.28,1.014 -1.708,0.063 -1.848,0.402 -2.29,0.59 -1.506,0.609 -1.771,2.27 -1.771,2.27 z"
     id="path337" />
  <path
     style="fill:#231f20;fill-opacity:1;fill-rule:nonzero;stroke:none"
     d="m 288.7238,102.718 c -0.73,0.048 -3.848,-0.864 -4.552,-1.104 -0.626,-0.213 -1.787,-0.224 -1.922,-1.364 -0.057,-0.469 0.187,-1.188 0.375,-1.442 0.145,-0.224 0.475,-0.219 0.833,-0.058 0.604,0.276 0.678,0.594 1.812,1.172 0,0 0.251,0.183 0.667,0.536 1.267,1.027 0.615,0.688 2.776,1.787 0.152,0.073 0.188,0.276 0.131,0.38 -0.099,0.151 -0.12,0.093 -0.12,0.093"
     id="path338" />
  <path
     style="fill:none;stroke:#231f20;stroke-width:0.565977;stroke-linecap:round;stroke-linejoin:round;stroke-miterlimit:4;stroke-dasharray:none;stroke-opacity:1"
     d="m 288.7238,102.718 c -0.73,0.048 -3.848,-0.864 -4.552,-1.104 -0.626,-0.213 -1.787,-0.224 -1.922,-1.364 -0.057,-0.469 0.187,-1.188 0.375,-1.442 0.145,-0.224 0.475,-0.219 0.833,-0.058 0.604,0.276 0.678,0.594 1.812,1.172 0,0 0.251,0.183 0.667,0.536 1.267,1.027 0.615,0.688 2.776,1.787 0.152,0.073 0.188,0.276 0.131,0.38 -0.099,0.151 -0.12,0.093 -0.12,0.093 z"
     id="path339" />
  <path
     style="fill:#63c99d;fill-opacity:1;fill-rule:nonzero;stroke:none"
     d="m 140.2398,59.527 c -2.328,-2.099 -2.599,-2.803 -2.984,-3.64 -2.437,-5.246 -4.964,-3.948 -6.475,-1.491 -1.781,2.885 -2.473,3.885 2.579,7.636 1.411,1.041 6.287,5.74 6.287,5.74 1.514,1.926 4.014,2.994 5.432,2.64 1.489,-0.37 0.874,-0.328 2.192,-0.922 1.261,-0.562 2.521,-2.344 2.214,-3.548 -0.292,-1.145 -1.89,-1.618 -4.109,-2.604 -1.745,-0.77 -5.136,-3.811 -5.136,-3.811"
     id="path340" />
  <path
     style="fill:none;stroke:#231f20;stroke-width:0.565977;stroke-linecap:butt;stroke-linejoin:miter;stroke-miterlimit:4;stroke-dasharray:none;stroke-opacity:1"
     d="m 140.2398,59.527 c -2.328,-2.099 -2.599,-2.803 -2.984,-3.64 -2.437,-5.246 -4.964,-3.948 -6.475,-1.491 -1.781,2.885 -2.473,3.885 2.579,7.636 1.411,1.041 6.287,5.74 6.287,5.74 1.514,1.926 4.014,2.994 5.432,2.64 1.489,-0.37 0.874,-0.328 2.192,-0.922 1.261,-0.562 2.521,-2.344 2.214,-3.548 -0.292,-1.145 -1.89,-1.618 -4.109,-2.604 -1.745,-0.77 -5.136,-3.811 -5.136,-3.811 z"
     id="path341" />
  <path
     style="fill:#ffffff;fill-opacity:1;fill-rule:nonzero;stroke:none"
     d="m 153.0628,73.886 c 0.218,0.11 -0.016,1.239 0.489,1.38 0.505,0.146 0.901,-0.537 2.871,-0.86 h 0.02 c 1.437,-0.192 2.614,-0.932 3.052,-2.104 0.734,-1.948 -0.818,-4.328 -3.458,-5.322 -2.646,-0.995 -5.385,-0.214 -6.114,1.718 -0.699,1.864 0.697,4.131 3.14,5.188"
     id="path342" />
  <path
     style="fill:none;stroke:#231f20;stroke-width:0.565977;stroke-linecap:butt;stroke-linejoin:miter;stroke-miterlimit:4;stroke-dasharray:none;stroke-opacity:1"
     d="m 153.0628,73.886 c 0.218,0.11 -0.016,1.239 0.489,1.38 0.505,0.146 0.901,-0.537 2.871,-0.86 h 0.02 c 1.437,-0.192 2.614,-0.932 3.052,-2.104 0.734,-1.948 -0.818,-4.328 -3.458,-5.322 -2.646,-0.995 -5.385,-0.214 -6.114,1.718 -0.699,1.864 0.697,4.131 3.14,5.188 z"
     id="path343" />
  <path
     style="fill:#ffffff;fill-opacity:1;fill-rule:nonzero;stroke:none"
     d="m 121.3078,42.677 c 1.896,-1.238 2.093,-1.738 1.62,-2.572 -0.313,-0.562 -0.407,-1.177 -0.584,-1.526 -0.577,-1.162 -2.041,-2.87 -7.437,-6.646 -1.224,-0.844 -2.932,-2.062 -3.594,-2.614 -1.042,-0.866 -1.781,1.453 -1.37,1.801 1.302,1.109 2.109,1.985 2.521,2.443 0.287,0.324 0.864,0.818 1.801,2.198 1.428,2.083 1.97,3.547 3.36,5.14 0.646,0.746 0.651,1.708 1.656,2.11 1.006,0.422 2.027,-0.334 2.027,-0.334"
     id="path344" />
  <path
     style="fill:none;stroke:#231f20;stroke-width:0.565977;stroke-linecap:butt;stroke-linejoin:miter;stroke-miterlimit:4;stroke-dasharray:none;stroke-opacity:1"
     d="m 121.3078,42.677 c 1.896,-1.238 2.093,-1.738 1.62,-2.572 -0.313,-0.562 -0.407,-1.177 -0.584,-1.526 -0.577,-1.162 -2.041,-2.87 -7.437,-6.646 -1.224,-0.844 -2.932,-2.062 -3.594,-2.614 -1.042,-0.866 -1.781,1.453 -1.37,1.801 1.302,1.109 2.109,1.985 2.521,2.443 0.287,0.324 0.864,0.818 1.801,2.198 1.428,2.083 1.97,3.547 3.36,5.14 0.646,0.746 0.651,1.708 1.656,2.11 1.006,0.422 2.027,-0.334 2.027,-0.334 z"
     id="path345" />
  <path
     style="fill:#ffffff;fill-opacity:1;fill-rule:nonzero;stroke:#231f20;stroke-width:0.565977;stroke-linecap:round;stroke-linejoin:round;stroke-miterlimit:4;stroke-dasharray:none;stroke-opacity:1"
     d="m 118.8798,42.057 c -0.281,1.391 1.459,2.662 1.615,2.964 2.36,4.422 2.641,4.683 4.666,7.918 2.939,4.686 5.662,7.446 8.886,6.536 2.193,-0.62 3.177,-1.922 3.318,-3.23 0.146,-1.453 -1.026,-4.406 -3.865,-4.948 l -1.265,-1.156 c -0.75,-0.89 -1.126,-1.322 -1.464,-1.786 -0.578,-0.818 -1.255,-1.651 -2.484,-3.178 -2.183,-2.702 -5.37,-4.848 -5.37,-4.848 -0.198,-0.234 -0.453,-0.354 -0.718,-0.396"
     id="path346" />
  <path
     style="fill:#231f20;fill-opacity:1;fill-rule:nonzero;stroke:none"
     d="m 109.8078,27.469 c 1.348,-0.057 1.744,0.855 1.443,1.844 -0.09,0.296 0.14,0.64 0.03,0.922 -0.26,0.656 -1.88,1.292 -2.76,0.078 -0.062,-0.089 -0.713,-0.584 -1.15,-1.026 -0.845,-0.87 -2.12,-3.015 -1.428,-5.62 0.322,-1.234 0.994,-0.818 1.016,-0.276 0.057,1.714 0.396,1.849 0.584,2.292 0.598,1.51 2.265,1.786 2.265,1.786"
     id="path347" />
  <path
     style="fill:none;stroke:#231f20;stroke-width:0.332927;stroke-linecap:butt;stroke-linejoin:miter;stroke-miterlimit:4;stroke-dasharray:none;stroke-opacity:1"
     d="m 109.8078,27.469 c 1.348,-0.057 1.744,0.855 1.443,1.844 -0.09,0.296 0.14,0.64 0.03,0.922 -0.26,0.656 -1.88,1.292 -2.76,0.078 -0.062,-0.089 -0.713,-0.584 -1.15,-1.026 -0.845,-0.87 -2.12,-3.015 -1.428,-5.62 0.322,-1.234 0.994,-0.818 1.016,-0.276 0.057,1.714 0.396,1.849 0.584,2.292 0.598,1.51 2.265,1.786 2.265,1.786 z"
     id="path348" />
  <path
     style="fill:#231f20;fill-opacity:1;fill-rule:nonzero;stroke:none"
     d="m 119.9478,43.953 c 1.751,-1.437 1.896,-1.953 1.333,-2.729 -0.369,-0.525 -0.53,-1.129 -0.744,-1.457 -0.698,-1.09 -2.338,-2.636 -8.109,-5.803 -1.308,-0.708 -3.136,-1.735 -3.849,-2.213 -1.136,-0.746 -1.62,1.634 -1.172,1.937 1.412,0.964 2.306,1.745 2.77,2.161 0.312,0.287 0.943,0.719 2.027,1.984 1.645,1.923 2.339,3.319 3.896,4.751 0.719,0.677 0.832,1.631 1.875,1.921 1.041,0.308 1.973,-0.552 1.973,-0.552"
     id="path349" />
  <path
     style="fill:none;stroke:#231f20;stroke-width:0.565977;stroke-linecap:butt;stroke-linejoin:miter;stroke-miterlimit:4;stroke-dasharray:none;stroke-opacity:1"
     d="m 119.9478,43.953 c 1.751,-1.437 1.896,-1.953 1.333,-2.729 -0.369,-0.525 -0.53,-1.129 -0.744,-1.457 -0.698,-1.09 -2.338,-2.636 -8.109,-5.803 -1.308,-0.708 -3.136,-1.735 -3.849,-2.213 -1.136,-0.746 -1.62,1.634 -1.172,1.937 1.412,0.964 2.306,1.745 2.77,2.161 0.312,0.287 0.943,0.719 2.027,1.984 1.645,1.923 2.339,3.319 3.896,4.751 0.719,0.677 0.832,1.631 1.875,1.921 1.041,0.308 1.973,-0.552 1.973,-0.552 z"
     id="path350" />
  <path
     style="fill:#231f20;fill-opacity:1;fill-rule:nonzero;stroke:#231f20;stroke-width:0.565977;stroke-linecap:round;stroke-linejoin:round;stroke-miterlimit:4;stroke-dasharray:none;stroke-opacity:1"
     d="m 117.4748,43.6 c -0.136,1.411 1.734,2.489 1.921,2.776 2.823,4.14 3.131,4.369 5.489,7.364 3.428,4.349 6.434,6.797 9.543,5.541 2.109,-0.853 2.952,-2.254 2.948,-3.572 -0.011,-1.458 -1.496,-4.27 -4.376,-4.494 l -1.38,-1.016 c -0.844,-0.803 -1.26,-1.194 -1.651,-1.62 -0.661,-0.75 -1.426,-1.506 -2.813,-2.891 -2.463,-2.453 -5.859,-4.24 -5.859,-4.24 -0.224,-0.213 -0.489,-0.301 -0.76,-0.317"
     id="path351" />
  <path
     style="fill:#63c99d;fill-opacity:1;fill-rule:nonzero;stroke:none"
     d="m 133.0838,51.313 -6.188,4.776 c 0.432,0.495 0.86,0.927 1.287,1.334 0.036,0.068 0.073,0.14 0.098,0.208 0.271,0.76 0.86,0.974 1.85,1.286 1.344,0.776 2.688,1.016 4.073,0.516 2.135,-0.77 3.036,-2.141 3.077,-3.458 0.047,-1.459 -1.328,-4.328 -4.197,-4.662"
     id="path352" />
  <path
     style="fill:none;stroke:#231f20;stroke-width:0.565977;stroke-linecap:butt;stroke-linejoin:miter;stroke-miterlimit:4;stroke-dasharray:none;stroke-opacity:1"
     d="m 133.0838,51.313 -6.188,4.776 c 0.432,0.495 0.86,0.927 1.287,1.334 0.036,0.068 0.073,0.14 0.098,0.208 0.271,0.76 0.86,0.974 1.85,1.286 1.344,0.776 2.688,1.016 4.073,0.516 2.135,-0.77 3.036,-2.141 3.077,-3.458 0.047,-1.459 -1.328,-4.328 -4.197,-4.662 z"
     id="path353" />
  <path
     style="fill:#231f20;fill-opacity:1;fill-rule:nonzero;stroke:none"
     d="m 106.8708,30.073 c 1.338,-0.202 1.828,0.662 1.635,1.678 -0.058,0.306 0.213,0.625 0.13,0.916 -0.183,0.682 -1.729,1.49 -2.735,0.376 -0.068,-0.084 -0.77,-0.5 -1.254,-0.896 -0.934,-0.776 -2.434,-2.771 -2.022,-5.432 0.194,-1.267 0.901,-0.923 0.979,-0.386 0.245,1.698 0.595,1.796 0.824,2.219 0.765,1.432 2.443,1.525 2.443,1.525"
     id="path354" />
  <path
     style="fill:none;stroke:#231f20;stroke-width:0.332927;stroke-linecap:butt;stroke-linejoin:miter;stroke-miterlimit:4;stroke-dasharray:none;stroke-opacity:1"
     d="m 106.8708,30.073 c 1.338,-0.202 1.828,0.662 1.635,1.678 -0.058,0.306 0.213,0.625 0.13,0.916 -0.183,0.682 -1.729,1.49 -2.735,0.376 -0.068,-0.084 -0.77,-0.5 -1.254,-0.896 -0.934,-0.776 -2.434,-2.771 -2.022,-5.432 0.194,-1.267 0.901,-0.923 0.979,-0.386 0.245,1.698 0.595,1.796 0.824,2.219 0.765,1.432 2.443,1.525 2.443,1.525 z"
     id="path355" />
  <path
     style="fill:#231f20;fill-opacity:1;fill-rule:nonzero;stroke:none"
     d="m 145.5568,83.385 c -0.046,-0.635 -1.41,-2.031 -2.014,-3.52 -0.402,-1.011 -2.382,-2.912 -2.71,-3.943 -0.306,-0.948 -0.53,-1.354 -1.672,-1.193 -0.672,0.095 -1.921,0.713 -1.869,1.224 0.115,1.188 0.557,2.021 1.255,2.833 0.786,0.923 3.146,3.246 3.62,3.636 1.182,0.959 1.344,1.678 1.63,1.963 0.542,0.532 0.88,0.459 1.303,0.183 0.807,-0.526 0.457,-1.183 0.457,-1.183"
     id="path356" />
  <path
     style="fill:none;stroke:#231f20;stroke-width:0.565977;stroke-linecap:butt;stroke-linejoin:miter;stroke-miterlimit:4;stroke-dasharray:none;stroke-opacity:1"
     d="m 145.5568,83.385 c -0.046,-0.635 -1.41,-2.031 -2.014,-3.52 -0.402,-1.011 -2.382,-2.912 -2.71,-3.943 -0.306,-0.948 -0.53,-1.354 -1.672,-1.193 -0.672,0.095 -1.921,0.713 -1.869,1.224 0.115,1.188 0.557,2.021 1.255,2.833 0.786,0.923 3.146,3.246 3.62,3.636 1.182,0.959 1.344,1.678 1.63,1.963 0.542,0.532 0.88,0.459 1.303,0.183 0.807,-0.526 0.457,-1.183 0.457,-1.183 z"
     id="path357" />
  <path
     style="fill:#231f20;fill-opacity:1;fill-rule:nonzero;stroke:none"
     d="m 138.8078,77.292 c 1.099,0.693 1.844,-1.203 2.115,-1.667 0.281,-0.479 1.208,-1.719 2.057,-2.593 0.853,-0.886 1.536,-2.35 3.156,-4.022 0.844,-0.88 1.115,-2.276 -0.213,-3.453 -1.319,-1.161 -2.464,-0.859 -3.334,0.36 -0.865,1.219 -1.166,2.735 -1.953,4.021 -0.787,1.291 -1.708,2.536 -2.475,3.474 -0.88,1.073 -0.916,1.921 -0.692,2.344 0.552,1.062 1.339,1.536 1.339,1.536"
     id="path358" />
  <path
     style="fill:none;stroke:#231f20;stroke-width:0.565977;stroke-linecap:butt;stroke-linejoin:miter;stroke-miterlimit:4;stroke-dasharray:none;stroke-opacity:1"
     d="m 138.8078,77.292 c 1.099,0.693 1.844,-1.203 2.115,-1.667 0.281,-0.479 1.208,-1.719 2.057,-2.593 0.853,-0.886 1.536,-2.35 3.156,-4.022 0.844,-0.88 1.115,-2.276 -0.213,-3.453 -1.319,-1.161 -2.464,-0.859 -3.334,0.36 -0.865,1.219 -1.166,2.735 -1.953,4.021 -0.787,1.291 -1.708,2.536 -2.475,3.474 -0.88,1.073 -0.916,1.921 -0.692,2.344 0.552,1.062 1.339,1.536 1.339,1.536 z"
     id="path359" />
  <path
     style="fill:#231f20;fill-opacity:1;fill-rule:nonzero;stroke:none"
     d="m 189.4058,46.964 c -0.046,0.636 1.104,2.219 1.484,3.771 0.262,1.062 1.943,3.224 2.12,4.297 0.167,0.979 0.334,1.411 1.479,1.416 0.683,0.005 2,-0.427 2.027,-0.943 0.057,-1.186 -0.26,-2.072 -0.828,-2.973 -0.651,-1.036 -2.651,-3.672 -3.068,-4.125 -1.031,-1.12 -1.083,-1.854 -1.323,-2.178 -0.469,-0.609 -0.812,-0.577 -1.271,-0.369 -0.87,0.407 -0.62,1.104 -0.62,1.104"
     id="path360" />
  <path
     style="fill:none;stroke:#231f20;stroke-width:0.565977;stroke-linecap:butt;stroke-linejoin:miter;stroke-miterlimit:4;stroke-dasharray:none;stroke-opacity:1"
     d="m 189.4058,46.964 c -0.046,0.636 1.104,2.219 1.484,3.771 0.262,1.062 1.943,3.224 2.12,4.297 0.167,0.979 0.334,1.411 1.479,1.416 0.683,0.005 2,-0.427 2.027,-0.943 0.057,-1.186 -0.26,-2.072 -0.828,-2.973 -0.651,-1.036 -2.651,-3.672 -3.068,-4.125 -1.031,-1.12 -1.083,-1.854 -1.323,-2.178 -0.469,-0.609 -0.812,-0.577 -1.271,-0.369 -0.87,0.407 -0.62,1.104 -0.62,1.104 z"
     id="path361" />
  <path
     style="fill:#231f20;fill-opacity:1;fill-rule:nonzero;stroke:none"
     d="m 196.0938,54.553 c 1.255,0.338 0.359,2.176 0.203,2.687 -0.167,0.521 -0.448,2.052 -0.516,3.271 -0.077,1.224 -0.687,2.718 -0.828,5.042 -0.068,1.219 -0.916,2.359 -2.683,2.176 -1.744,-0.181 -2.306,-1.229 -1.989,-2.697 0.313,-1.464 1.224,-2.703 1.641,-4.156 0.411,-1.453 0.708,-2.975 0.875,-4.172 0.197,-1.371 0.797,-1.98 1.26,-2.095 1.156,-0.312 2.037,-0.056 2.037,-0.056"
     id="path362" />
  <path
     style="fill:none;stroke:#231f20;stroke-width:0.565977;stroke-linecap:butt;stroke-linejoin:miter;stroke-miterlimit:4;stroke-dasharray:none;stroke-opacity:1"
     d="m 196.0938,54.553 c 1.255,0.338 0.359,2.176 0.203,2.687 -0.167,0.521 -0.448,2.052 -0.516,3.271 -0.077,1.224 -0.687,2.718 -0.828,5.042 -0.068,1.219 -0.916,2.359 -2.683,2.176 -1.744,-0.181 -2.306,-1.229 -1.989,-2.697 0.313,-1.464 1.224,-2.703 1.641,-4.156 0.411,-1.453 0.708,-2.975 0.875,-4.172 0.197,-1.371 0.797,-1.98 1.26,-2.095 1.156,-0.312 2.037,-0.056 2.037,-0.056 z"
     id="path363" />
  <path
     style="fill:none;stroke:#231f20;stroke-width:0.399514;stroke-linecap:butt;stroke-linejoin:miter;stroke-miterlimit:4;stroke-dasharray:none;stroke-opacity:1"
     d="m 199.6248,23.276 c -26.041,-4.837 -29.13,8.073 -22.328,13.027"
     id="path364" />
  <path
     style="fill:#231f20;fill-opacity:1;fill-rule:nonzero;stroke:none"
     d="m 178.2708,37.016 c -0.578,-0.167 -1.359,-0.292 -1.938,-0.24 l 0.839,-0.567 0.281,-0.969 c 0.126,0.568 0.484,1.271 0.818,1.776"
     id="path365" />
  <path
     style="fill:#63c99d;fill-opacity:1;fill-rule:nonzero;stroke:none"
     d="m 191.5418,56.011 c -0.62,-3.072 -0.422,-3.802 -0.234,-4.703 1.161,-5.661 -1.642,-6.125 -4.314,-5.047 -3.145,1.255 -4.301,1.651 -2.473,7.667 0.521,1.677 1.635,8.359 1.635,8.359 0.078,2.447 1.453,4.791 2.802,5.349 1.418,0.593 0.902,0.26 2.307,0.562 1.349,0.298 3.423,-0.385 3.891,-1.532 0.453,-1.093 -0.558,-2.426 -1.755,-4.535 -0.943,-1.662 -1.859,-6.12 -1.859,-6.12"
     id="path366" />
  <path
     style="fill:none;stroke:#231f20;stroke-width:0.565977;stroke-linecap:butt;stroke-linejoin:miter;stroke-miterlimit:4;stroke-dasharray:none;stroke-opacity:1"
     d="m 191.5418,56.011 c -0.62,-3.072 -0.422,-3.802 -0.234,-4.703 1.161,-5.661 -1.642,-6.125 -4.314,-5.047 -3.145,1.255 -4.301,1.651 -2.473,7.667 0.521,1.677 1.635,8.359 1.635,8.359 0.078,2.447 1.453,4.791 2.802,5.349 1.418,0.593 0.902,0.26 2.307,0.562 1.349,0.298 3.423,-0.385 3.891,-1.532 0.453,-1.093 -0.558,-2.426 -1.755,-4.535 -0.943,-1.662 -1.859,-6.12 -1.859,-6.12 z"
     id="path367" />
  <path
     style="fill:#ffffff;fill-opacity:1;fill-rule:nonzero;stroke:none"
     d="m 193.3078,75.177 c 0.114,0.219 -0.746,0.989 -0.428,1.401 0.324,0.422 1.048,0.104 2.818,1.016 l 0.02,0.015 c 1.267,0.704 2.652,0.808 3.704,0.125 1.75,-1.129 1.916,-3.968 0.391,-6.338 -1.543,-2.375 -4.204,-3.375 -5.943,-2.25 -1.672,1.078 -1.896,3.73 -0.562,6.031"
     id="path368" />
  <path
     style="fill:none;stroke:#231f20;stroke-width:0.565977;stroke-linecap:butt;stroke-linejoin:miter;stroke-miterlimit:4;stroke-dasharray:none;stroke-opacity:1"
     d="m 193.3078,75.177 c 0.114,0.219 -0.746,0.989 -0.428,1.401 0.324,0.422 1.048,0.104 2.818,1.016 l 0.02,0.015 c 1.267,0.704 2.652,0.808 3.704,0.125 1.75,-1.129 1.916,-3.968 0.391,-6.338 -1.543,-2.375 -4.204,-3.375 -5.943,-2.25 -1.672,1.078 -1.896,3.73 -0.562,6.031 z"
     id="path369" />
  <path
     style="fill:#231f20;fill-opacity:1;fill-rule:nonzero;stroke:none"
     d="m 184.4998,31.417 c 2.261,-0.109 2.688,-0.437 2.693,-1.396 0.016,-0.645 0.244,-1.224 0.271,-1.614 0.082,-1.292 -0.318,-3.511 -3.068,-9.49 -0.63,-1.349 -1.49,-3.26 -1.782,-4.068 -0.462,-1.27 -2.27,0.35 -2.093,0.86 0.568,1.615 0.817,2.776 0.943,3.386 0.082,0.416 0.328,1.134 0.448,2.801 0.182,2.521 -0.09,4.057 0.306,6.136 0.178,0.968 -0.301,1.807 0.36,2.661 0.656,0.864 1.922,0.724 1.922,0.724"
     id="path370" />
  <path
     style="fill:none;stroke:#231f20;stroke-width:0.565977;stroke-linecap:butt;stroke-linejoin:miter;stroke-miterlimit:4;stroke-dasharray:none;stroke-opacity:1"
     d="m 184.4998,31.417 c 2.261,-0.109 2.688,-0.437 2.693,-1.396 0.016,-0.645 0.244,-1.224 0.271,-1.614 0.082,-1.292 -0.318,-3.511 -3.068,-9.49 -0.63,-1.349 -1.49,-3.26 -1.782,-4.068 -0.462,-1.27 -2.27,0.35 -2.093,0.86 0.568,1.615 0.817,2.776 0.943,3.386 0.082,0.416 0.328,1.134 0.448,2.801 0.182,2.521 -0.09,4.057 0.306,6.136 0.178,0.968 -0.301,1.807 0.36,2.661 0.656,0.864 1.922,0.724 1.922,0.724 z"
     id="path371" />
  <path
     style="fill:#231f20;fill-opacity:1;fill-rule:nonzero;stroke:#231f20;stroke-width:0.565977;stroke-linecap:round;stroke-linejoin:round;stroke-miterlimit:4;stroke-dasharray:none;stroke-opacity:1"
     d="m 182.7178,29.663 c -0.948,1.056 -0.088,3.036 -0.104,3.374 -0.197,5.011 -0.088,5.375 0.027,9.192 0.172,5.527 1.129,9.282 4.375,10.126 2.202,0.573 3.713,-0.052 4.494,-1.115 0.86,-1.183 1.339,-4.323 -0.838,-6.219 l -0.506,-1.636 c -0.208,-1.15 -0.306,-1.713 -0.369,-2.285 -0.084,-0.995 -0.251,-2.057 -0.541,-3.995 -0.516,-3.438 -2.183,-6.896 -2.183,-6.896 -0.057,-0.302 -0.219,-0.537 -0.421,-0.709"
     id="path372" />
  <path
     style="fill:#63c99d;fill-opacity:1;fill-rule:nonzero;stroke:none"
     d="m 190.6768,45.152 -7.812,0.156 c 0.052,0.656 0.135,1.26 0.239,1.839 -0.01,0.077 -0.026,0.156 -0.047,0.224 -0.235,0.776 0.109,1.296 0.724,2.134 0.62,1.428 1.557,2.418 2.969,2.839 2.172,0.652 3.714,0.084 4.526,-0.948 0.901,-1.145 1.51,-4.271 -0.599,-6.244"
     id="path373" />
  <path
     style="fill:none;stroke:#231f20;stroke-width:0.565977;stroke-linecap:butt;stroke-linejoin:miter;stroke-miterlimit:4;stroke-dasharray:none;stroke-opacity:1"
     d="m 190.6768,45.152 -7.812,0.156 c 0.052,0.656 0.135,1.26 0.239,1.839 -0.01,0.077 -0.026,0.156 -0.047,0.224 -0.235,0.776 0.109,1.296 0.724,2.134 0.62,1.428 1.557,2.418 2.969,2.839 2.172,0.652 3.714,0.084 4.526,-0.948 0.901,-1.145 1.51,-4.271 -0.599,-6.244 z"
     id="path374" />
  <path
     style="fill:#231f20;fill-opacity:1;fill-rule:nonzero;stroke:none"
     d="m 182.2448,12.485 c 1.192,0.635 1.073,1.62 0.312,2.318 -0.224,0.213 -0.197,0.63 -0.437,0.817 -0.552,0.437 -2.276,0.167 -2.421,-1.328 -0.006,-0.109 -0.323,-0.859 -0.475,-1.463 -0.287,-1.177 -0.307,-3.672 1.604,-5.573 0.906,-0.901 1.272,-0.204 1.016,0.276 -0.812,1.505 -0.588,1.797 -0.656,2.271 -0.24,1.609 1.057,2.682 1.057,2.682"
     id="path375" />
  <path
     style="fill:none;stroke:#231f20;stroke-width:0.332927;stroke-linecap:butt;stroke-linejoin:miter;stroke-miterlimit:4;stroke-dasharray:none;stroke-opacity:1"
     d="m 182.2448,12.485 c 1.192,0.635 1.073,1.62 0.312,2.318 -0.224,0.213 -0.197,0.63 -0.437,0.817 -0.552,0.437 -2.276,0.167 -2.421,-1.328 -0.006,-0.109 -0.323,-0.859 -0.475,-1.463 -0.287,-1.177 -0.307,-3.672 1.604,-5.573 0.906,-0.901 1.272,-0.204 1.016,0.276 -0.812,1.505 -0.588,1.797 -0.656,2.271 -0.24,1.609 1.057,2.682 1.057,2.682 z"
     id="path376" />
  <path
     style="fill:#231f20;fill-opacity:1;fill-rule:nonzero;stroke:none"
     d="m 196.0418,79.838 c -0.24,-0.598 -1.964,-1.509 -2.99,-2.738 -0.698,-0.839 -3.162,-2.048 -3.787,-2.928 -0.583,-0.807 -0.921,-1.124 -1.957,-0.624 -0.615,0.296 -1.61,1.265 -1.402,1.738 0.464,1.09 1.146,1.751 2.058,2.308 1.03,0.646 3.989,2.135 4.557,2.359 1.416,0.552 1.792,1.188 2.151,1.371 0.677,0.342 0.98,0.166 1.297,-0.219 0.609,-0.751 0.073,-1.267 0.073,-1.267"
     id="path377" />
  <path
     style="fill:none;stroke:#231f20;stroke-width:0.565977;stroke-linecap:butt;stroke-linejoin:miter;stroke-miterlimit:4;stroke-dasharray:none;stroke-opacity:1"
     d="m 196.0418,79.838 c -0.24,-0.598 -1.964,-1.509 -2.99,-2.738 -0.698,-0.839 -3.162,-2.048 -3.787,-2.928 -0.583,-0.807 -0.921,-1.124 -1.957,-0.624 -0.615,0.296 -1.61,1.265 -1.402,1.738 0.464,1.09 1.146,1.751 2.058,2.308 1.03,0.646 3.989,2.135 4.557,2.359 1.416,0.552 1.792,1.188 2.151,1.371 0.677,0.342 0.98,0.166 1.297,-0.219 0.609,-0.751 0.073,-1.267 0.073,-1.267 z"
     id="path378" />
  <path
     style="fill:#231f20;fill-opacity:1;fill-rule:nonzero;stroke:none"
     d="m 187.7498,76.1 c 1.26,0.317 1.391,-1.715 1.511,-2.24 0.119,-0.536 0.619,-2.006 1.161,-3.099 0.542,-1.104 0.75,-2.704 1.776,-4.792 0.542,-1.093 0.37,-2.505 -1.256,-3.219 -1.609,-0.702 -2.609,-0.068 -3.062,1.359 -0.452,1.423 -0.276,2.959 -0.63,4.428 -0.354,1.468 -0.854,2.932 -1.297,4.063 -0.511,1.286 -0.287,2.109 0.057,2.442 0.855,0.844 1.74,1.058 1.74,1.058"
     id="path379" />
  <path
     style="fill:none;stroke:#231f20;stroke-width:0.565977;stroke-linecap:butt;stroke-linejoin:miter;stroke-miterlimit:4;stroke-dasharray:none;stroke-opacity:1"
     d="m 187.7498,76.1 c 1.26,0.317 1.391,-1.715 1.511,-2.24 0.119,-0.536 0.619,-2.006 1.161,-3.099 0.542,-1.104 0.75,-2.704 1.776,-4.792 0.542,-1.093 0.37,-2.505 -1.256,-3.219 -1.609,-0.702 -2.609,-0.068 -3.062,1.359 -0.452,1.423 -0.276,2.959 -0.63,4.428 -0.354,1.468 -0.854,2.932 -1.297,4.063 -0.511,1.286 -0.287,2.109 0.057,2.442 0.855,0.844 1.74,1.058 1.74,1.058 z"
     id="path380" />
  <path
     style="fill:#231f20;fill-opacity:1;fill-rule:nonzero;stroke:none"
     d="m 247.9528,56.256 c -0.536,0.344 -1.104,2.213 -2.115,3.459 -0.686,0.848 -1.396,3.494 -2.145,4.281 -0.683,0.722 -0.927,1.113 -0.235,2.036 0.407,0.546 1.547,1.338 1.975,1.046 0.984,-0.672 1.495,-1.464 1.875,-2.458 0.426,-1.14 1.322,-4.328 1.437,-4.932 0.265,-1.5 0.817,-1.984 0.932,-2.375 0.203,-0.734 -0.031,-0.994 -0.468,-1.229 -0.855,-0.453 -1.256,0.172 -1.256,0.172"
     id="path381" />
  <path
     style="fill:none;stroke:#231f20;stroke-width:0.565977;stroke-linecap:butt;stroke-linejoin:miter;stroke-miterlimit:4;stroke-dasharray:none;stroke-opacity:1"
     d="m 247.9528,56.256 c -0.536,0.344 -1.104,2.213 -2.115,3.459 -0.686,0.848 -1.396,3.494 -2.145,4.281 -0.683,0.722 -0.927,1.113 -0.235,2.036 0.407,0.546 1.547,1.338 1.975,1.046 0.984,-0.672 1.495,-1.464 1.875,-2.458 0.426,-1.14 1.322,-4.328 1.437,-4.932 0.265,-1.5 0.817,-1.984 0.932,-2.375 0.203,-0.734 -0.031,-0.994 -0.468,-1.229 -0.855,-0.453 -1.256,0.172 -1.256,0.172 z"
     id="path382" />
  <path
     style="fill:#231f20;fill-opacity:1;fill-rule:nonzero;stroke:none"
     d="m 245.9368,66.162 c 0.485,1.208 -1.515,1.604 -2.015,1.786 -0.521,0.188 -1.912,0.881 -2.922,1.568 -1.026,0.677 -2.583,1.089 -4.52,2.38 -1.011,0.682 -2.438,0.693 -3.355,-0.823 -0.912,-1.505 -0.412,-2.583 0.948,-3.219 1.355,-0.63 2.896,-0.656 4.303,-1.197 1.41,-0.548 2.801,-1.235 3.858,-1.824 1.208,-0.667 2.058,-0.557 2.432,-0.26 0.943,0.735 1.271,1.589 1.271,1.589"
     id="path383" />
  <path
     style="fill:none;stroke:#231f20;stroke-width:0.565977;stroke-linecap:butt;stroke-linejoin:miter;stroke-miterlimit:4;stroke-dasharray:none;stroke-opacity:1"
     d="m 245.9368,66.162 c 0.485,1.208 -1.515,1.604 -2.015,1.786 -0.521,0.188 -1.912,0.881 -2.922,1.568 -1.026,0.677 -2.583,1.089 -4.52,2.38 -1.011,0.682 -2.438,0.693 -3.355,-0.823 -0.912,-1.505 -0.412,-2.583 0.948,-3.219 1.355,-0.63 2.896,-0.656 4.303,-1.197 1.41,-0.548 2.801,-1.235 3.858,-1.824 1.208,-0.667 2.058,-0.557 2.432,-0.26 0.943,0.735 1.271,1.589 1.271,1.589 z"
     id="path384" />
  <path
     style="fill:#63c99d;fill-opacity:1;fill-rule:nonzero;stroke:none"
     d="m 242.0258,63.412 c 2.074,-2.344 2.776,-2.625 3.61,-3.021 5.218,-2.495 3.896,-5.006 1.421,-6.484 -2.901,-1.75 -3.911,-2.432 -7.609,2.656 -1.02,1.428 -5.672,6.349 -5.672,6.349 -1.906,1.536 -2.948,4.052 -2.578,5.464 0.386,1.484 0.339,0.869 0.943,2.177 0.577,1.255 2.375,2.499 3.572,2.176 1.147,-0.301 1.6,-1.905 2.557,-4.135 0.756,-1.756 3.756,-5.182 3.756,-5.182"
     id="path385" />
  <path
     style="fill:none;stroke:#231f20;stroke-width:0.565977;stroke-linecap:butt;stroke-linejoin:miter;stroke-miterlimit:4;stroke-dasharray:none;stroke-opacity:1"
     d="m 242.0258,63.412 c 2.074,-2.344 2.776,-2.625 3.61,-3.021 5.218,-2.495 3.896,-5.006 1.421,-6.484 -2.901,-1.75 -3.911,-2.432 -7.609,2.656 -1.02,1.428 -5.672,6.349 -5.672,6.349 -1.906,1.536 -2.948,4.052 -2.578,5.464 0.386,1.484 0.339,0.869 0.943,2.177 0.577,1.255 2.375,2.499 3.572,2.176 1.147,-0.301 1.6,-1.905 2.557,-4.135 0.756,-1.756 3.756,-5.182 3.756,-5.182 z"
     id="path386" />
  <path
     style="fill:#ffffff;fill-opacity:1;fill-rule:nonzero;stroke:none"
     d="m 227.8078,76.39 c -0.104,0.224 -1.235,0.006 -1.375,0.506 -0.136,0.51 0.552,0.901 0.895,2.86 v 0.025 c 0.204,1.433 0.958,2.604 2.136,3.027 1.958,0.713 4.317,-0.866 5.286,-3.511 0.963,-2.661 0.156,-5.385 -1.792,-6.099 -1.864,-0.682 -4.12,0.74 -5.15,3.192"
     id="path387" />
  <path
     style="fill:none;stroke:#231f20;stroke-width:0.565977;stroke-linecap:butt;stroke-linejoin:miter;stroke-miterlimit:4;stroke-dasharray:none;stroke-opacity:1"
     d="m 227.8078,76.39 c -0.104,0.224 -1.235,0.006 -1.375,0.506 -0.136,0.51 0.552,0.901 0.895,2.86 v 0.025 c 0.204,1.433 0.958,2.604 2.136,3.027 1.958,0.713 4.317,-0.866 5.286,-3.511 0.963,-2.661 0.156,-5.385 -1.792,-6.099 -1.864,-0.682 -4.12,0.74 -5.15,3.192 z"
     id="path388" />
  <path
     style="fill:#231f20;fill-opacity:1;fill-rule:nonzero;stroke:none"
     d="m 257.3848,42.959 c 1.453,1.734 1.969,1.874 2.745,1.302 0.516,-0.374 1.12,-0.542 1.443,-0.761 1.083,-0.708 2.609,-2.364 5.713,-8.171 0.699,-1.318 1.703,-3.157 2.172,-3.876 0.735,-1.14 -1.65,-1.598 -1.948,-1.15 -0.948,1.426 -1.718,2.328 -2.13,2.797 -0.286,0.317 -0.708,0.948 -1.963,2.047 -1.901,1.666 -3.287,2.38 -4.708,3.948 -0.667,0.729 -1.62,0.848 -1.901,1.896 -0.298,1.046 0.577,1.968 0.577,1.968"
     id="path389" />
  <path
     style="fill:none;stroke:#231f20;stroke-width:0.565977;stroke-linecap:butt;stroke-linejoin:miter;stroke-miterlimit:4;stroke-dasharray:none;stroke-opacity:1"
     d="m 257.3848,42.959 c 1.453,1.734 1.969,1.874 2.745,1.302 0.516,-0.374 1.12,-0.542 1.443,-0.761 1.083,-0.708 2.609,-2.364 5.713,-8.171 0.699,-1.318 1.703,-3.157 2.172,-3.876 0.735,-1.14 -1.65,-1.598 -1.948,-1.15 -0.948,1.426 -1.718,2.328 -2.13,2.797 -0.286,0.317 -0.708,0.948 -1.963,2.047 -1.901,1.666 -3.287,2.38 -4.708,3.948 -0.667,0.729 -1.62,0.848 -1.901,1.896 -0.298,1.046 0.577,1.968 0.577,1.968 z"
     id="path390" />
  <path
     style="fill:#231f20;fill-opacity:1;fill-rule:nonzero;stroke:#231f20;stroke-width:0.565977;stroke-linecap:round;stroke-linejoin:round;stroke-miterlimit:4;stroke-dasharray:none;stroke-opacity:1"
     d="m 257.7088,40.48 c -1.417,-0.12 -2.475,1.76 -2.751,1.953 -4.114,2.864 -4.338,3.176 -7.312,5.567 -4.308,3.475 -6.724,6.505 -5.433,9.6 0.871,2.099 2.281,2.932 3.6,2.911 1.457,-0.026 4.255,-1.542 4.452,-4.422 l 0.996,-1.39 c 0.796,-0.855 1.181,-1.276 1.604,-1.672 0.739,-0.667 1.489,-1.443 2.859,-2.844 2.428,-2.484 4.177,-5.907 4.177,-5.907 0.213,-0.224 0.297,-0.489 0.308,-0.76"
     id="path391" />
  <path
     style="fill:#63c99d;fill-opacity:1;fill-rule:nonzero;stroke:#231f20;stroke-width:0.565977;stroke-linecap:butt;stroke-linejoin:miter;stroke-miterlimit:4;stroke-dasharray:none;stroke-opacity:1"
     d="m 245.3218,50.037 c -0.489,0.438 -0.916,0.87 -1.312,1.296 -0.073,0.043 -0.145,0.079 -0.213,0.106 -0.76,0.276 -0.964,0.869 -1.265,1.864 -0.766,1.354 -0.99,2.697 -0.475,4.082 0.797,2.12 2.177,3.006 3.489,3.038 1.459,0.025 4.314,-1.375 4.615,-4.251 z"
     id="path392" />
  <path
     style="fill:#231f20;fill-opacity:1;fill-rule:nonzero;stroke:none"
     d="m 271.1198,29.735 c 0.213,1.333 -0.64,1.833 -1.662,1.65 -0.306,-0.056 -0.62,0.22 -0.912,0.142 -0.681,-0.178 -1.509,-1.714 -0.4,-2.73 0.078,-0.073 0.49,-0.781 0.875,-1.265 0.765,-0.943 2.745,-2.464 5.412,-2.084 1.265,0.177 0.932,0.891 0.395,0.975 -1.692,0.265 -1.791,0.614 -2.208,0.849 -1.427,0.776 -1.5,2.463 -1.5,2.463"
     id="path393" />
  <path
     style="fill:none;stroke:#231f20;stroke-width:0.332927;stroke-linecap:butt;stroke-linejoin:miter;stroke-miterlimit:4;stroke-dasharray:none;stroke-opacity:1"
     d="m 271.1198,29.735 c 0.213,1.333 -0.64,1.833 -1.662,1.65 -0.306,-0.056 -0.62,0.22 -0.912,0.142 -0.681,-0.178 -1.509,-1.714 -0.4,-2.73 0.078,-0.073 0.49,-0.781 0.875,-1.265 0.765,-0.943 2.745,-2.464 5.412,-2.084 1.265,0.177 0.932,0.891 0.395,0.975 -1.692,0.265 -1.791,0.614 -2.208,0.849 -1.427,0.776 -1.5,2.463 -1.5,2.463 z"
     id="path394" />
  <path
     style="fill:#231f20;fill-opacity:1;fill-rule:nonzero;stroke:none"
     d="m 225.7448,81.385 c 0.333,-0.552 0.021,-2.473 0.38,-4.041 0.251,-1.058 -0.281,-3.75 0.047,-4.782 0.292,-0.953 0.344,-1.41 -0.683,-1.937 -0.604,-0.307 -1.979,-0.52 -2.228,-0.072 -0.595,1.036 -0.709,1.973 -0.605,3.036 0.114,1.213 0.709,4.468 0.876,5.057 0.41,1.468 0.134,2.151 0.202,2.547 0.136,0.745 0.459,0.88 0.959,0.901 0.963,0.031 1.052,-0.709 1.052,-0.709"
     id="path395" />
  <path
     style="fill:none;stroke:#231f20;stroke-width:0.565977;stroke-linecap:butt;stroke-linejoin:miter;stroke-miterlimit:4;stroke-dasharray:none;stroke-opacity:1"
     d="m 225.7448,81.385 c 0.333,-0.552 0.021,-2.473 0.38,-4.041 0.251,-1.058 -0.281,-3.75 0.047,-4.782 0.292,-0.953 0.344,-1.41 -0.683,-1.937 -0.604,-0.307 -1.979,-0.52 -2.228,-0.072 -0.595,1.036 -0.709,1.973 -0.605,3.036 0.114,1.213 0.709,4.468 0.876,5.057 0.41,1.468 0.134,2.151 0.202,2.547 0.136,0.745 0.459,0.88 0.959,0.901 0.963,0.031 1.052,-0.709 1.052,-0.709 z"
     id="path396" />
  <path
     style="fill:#231f20;fill-opacity:1;fill-rule:nonzero;stroke:none"
     d="m 223.7238,72.516 c 0.505,1.202 2.204,0.078 2.693,-0.146 0.5,-0.229 1.973,-0.713 3.177,-0.942 1.203,-0.235 2.604,-1.038 4.891,-1.48 1.197,-0.23 2.219,-1.219 1.812,-2.943 -0.412,-1.703 -1.527,-2.119 -2.937,-1.62 -1.407,0.501 -2.527,1.568 -3.907,2.168 -1.391,0.604 -2.859,1.093 -4.025,1.416 -1.328,0.375 -1.855,1.047 -1.912,1.527 -0.156,1.186 0.208,2.02 0.208,2.02"
     id="path397" />
  <path
     style="fill:none;stroke:#231f20;stroke-width:0.565977;stroke-linecap:butt;stroke-linejoin:miter;stroke-miterlimit:4;stroke-dasharray:none;stroke-opacity:1"
     d="m 223.7238,72.516 c 0.505,1.202 2.204,0.078 2.693,-0.146 0.5,-0.229 1.973,-0.713 3.177,-0.942 1.203,-0.235 2.604,-1.038 4.891,-1.48 1.197,-0.23 2.219,-1.219 1.812,-2.943 -0.412,-1.703 -1.527,-2.119 -2.937,-1.62 -1.407,0.501 -2.527,1.568 -3.907,2.168 -1.391,0.604 -2.859,1.093 -4.025,1.416 -1.328,0.375 -1.855,1.047 -1.912,1.527 -0.156,1.186 0.208,2.02 0.208,2.02 z"
     id="path398" />
  <path
     style="fill:#231f20;fill-opacity:1;fill-rule:nonzero;stroke:none"
     d="m 341.0048,109.709 c -0.588,0.255 -2.448,-0.324 -4.052,-0.183 -1.078,0.099 -3.678,-0.792 -4.744,-0.614 -0.98,0.156 -1.443,0.14 -1.824,-0.948 -0.224,-0.646 -0.234,-2.031 0.24,-2.219 1.104,-0.443 2.046,-0.421 3.088,-0.177 1.182,0.281 4.329,1.322 4.89,1.562 1.391,0.62 2.106,0.432 2.491,0.563 0.724,0.24 0.807,0.579 0.755,1.079 -0.099,0.952 -0.844,0.937 -0.844,0.937"
     id="path399" />
  <path
     style="fill:none;stroke:#231f20;stroke-width:0.565977;stroke-linecap:butt;stroke-linejoin:miter;stroke-miterlimit:4;stroke-dasharray:none;stroke-opacity:1"
     d="m 341.0048,109.709 c -0.588,0.255 -2.448,-0.324 -4.052,-0.183 -1.078,0.099 -3.678,-0.792 -4.744,-0.614 -0.98,0.156 -1.443,0.14 -1.824,-0.948 -0.224,-0.646 -0.234,-2.031 0.24,-2.219 1.104,-0.443 2.046,-0.421 3.088,-0.177 1.182,0.281 4.329,1.322 4.89,1.562 1.391,0.62 2.106,0.432 2.491,0.563 0.724,0.24 0.807,0.579 0.755,1.079 -0.099,0.952 -0.844,0.937 -0.844,0.937 z"
     id="path400" />
  <path
     style="fill:#231f20;fill-opacity:1;fill-rule:nonzero;stroke:none"
     d="m 332.0618,108.25 c -0.349,1.25 -2.177,0.355 -2.687,0.192 -0.526,-0.161 -2.053,-0.457 -3.272,-0.53 -1.224,-0.079 -2.713,-0.698 -5.036,-0.844 -1.224,-0.072 -2.358,-0.927 -2.166,-2.692 0.188,-1.746 1.24,-2.298 2.702,-1.98 1.459,0.313 2.704,1.234 4.152,1.652 1.448,0.426 2.968,0.724 4.172,0.9 1.364,0.198 1.974,0.802 2.088,1.266 0.307,1.156 0.047,2.036 0.047,2.036"
     id="path401" />
  <path
     style="fill:none;stroke:#231f20;stroke-width:0.565977;stroke-linecap:butt;stroke-linejoin:miter;stroke-miterlimit:4;stroke-dasharray:none;stroke-opacity:1"
     d="m 332.0618,108.25 c -0.349,1.25 -2.177,0.355 -2.687,0.192 -0.526,-0.161 -2.053,-0.457 -3.272,-0.53 -1.224,-0.079 -2.713,-0.698 -5.036,-0.844 -1.224,-0.072 -2.358,-0.927 -2.166,-2.692 0.188,-1.746 1.24,-2.298 2.702,-1.98 1.459,0.313 2.704,1.234 4.152,1.652 1.448,0.426 2.968,0.724 4.172,0.9 1.364,0.198 1.974,0.802 2.088,1.266 0.307,1.156 0.047,2.036 0.047,2.036 z"
     id="path402" />
  <path
     style="fill:#231f20;fill-opacity:1;fill-rule:nonzero;stroke:none"
     d="m 342.7548,106.12 c 1.176,0.073 2.072,1.084 2.006,2.256 -0.068,1.177 -1.084,2.072 -2.256,2.005 -1.178,-0.068 -2.072,-1.084 -2.006,-2.256 0.074,-1.183 1.079,-2.073 2.256,-2.005"
     id="path403" />
</svg>
