<?xml version="1.0" encoding="UTF-8" standalone="no"?>
<!-- Created with Inkscape (http://www.inkscape.org/) -->

<svg
   version="1.1"
   id="svg1"
   width="350.08591"
   height="156.55168"
   viewBox="0 0 350.0859 156.55168"
   sodipodi:docname="cell.svg"
   xmlns:inkscape="http://www.inkscape.org/namespaces/inkscape"
   xmlns:sodipodi="http://sodipodi.sourceforge.net/DTD/sodipodi-0.dtd"
   xmlns="http://www.w3.org/2000/svg"
   xmlns:svg="http://www.w3.org/2000/svg">
  <sodipodi:namedview
     id="namedview1"
     pagecolor="#ffffff"
     bordercolor="#000000"
     borderopacity="0.25"
     inkscape:showpageshadow="2"
     inkscape:pageopacity="0.0"
     inkscape:pagecheckerboard="0"
     inkscape:deskcolor="#d1d1d1">
    <inkscape:page
       x="0"
       y="0"
       inkscape:label="1"
       id="page1"
       width="350.08591"
       height="156.55168"
       margin="0"
       bleed="0" />
  </sodipodi:namedview>
  <defs
     id="defs1" />
  <path
     style="fill:#ffffff;fill-opacity:1;fill-rule:nonzero;stroke:none"
     d="m 155.71793,18.874 h 18.874 V 0 h -18.874 z"
     id="path299" />
  <path
     style="fill:#ffffff;fill-opacity:1;fill-rule:nonzero;stroke:none"
     d="m 333.15993,18.874 h 16.926 V 0 h -16.926 z"
     id="path301" />
  <path
     style="fill:#231f20;fill-opacity:1;fill-rule:nonzero;stroke:none"
     d="m 194.05093,108.327 c -0.525,-0.369 -0.984,-2.265 -1.927,-3.568 -0.646,-0.874 -1.213,-3.557 -1.917,-4.38 -0.64,-0.759 -0.869,-1.171 -0.129,-2.051 0.437,-0.52 1.618,-1.25 2.025,-0.938 0.948,0.714 1.423,1.536 1.745,2.558 0.37,1.161 1.094,4.385 1.178,4.994 0.186,1.511 0.713,2.027 0.796,2.423 0.172,0.744 -0.074,0.994 -0.526,1.208 -0.876,0.401 -1.245,-0.246 -1.245,-0.246"
     id="path302" />
  <path
     style="fill:none;stroke:#231f20;stroke-width:0.565977;stroke-linecap:butt;stroke-linejoin:miter;stroke-miterlimit:4;stroke-dasharray:none;stroke-opacity:1"
     d="m 194.05093,108.327 c -0.525,-0.369 -0.984,-2.265 -1.927,-3.568 -0.646,-0.874 -1.213,-3.557 -1.917,-4.38 -0.64,-0.759 -0.869,-1.171 -0.129,-2.051 0.437,-0.52 1.618,-1.25 2.025,-0.938 0.948,0.714 1.423,1.536 1.745,2.558 0.37,1.161 1.094,4.385 1.178,4.994 0.186,1.511 0.713,2.027 0.796,2.423 0.172,0.744 -0.074,0.994 -0.526,1.208 -0.876,0.401 -1.245,-0.246 -1.245,-0.246 z"
     id="path303" />
  <path
     style="fill:#231f20;fill-opacity:1;fill-rule:nonzero;stroke:none"
     d="m 198.02593,107.983 c 0.546,1.048 0.145,2.334 -0.902,2.876 -1.042,0.547 -2.333,0.146 -2.88,-0.901 -0.542,-1.041 -0.136,-2.333 0.911,-2.88 1.041,-0.543 2.328,-0.136 2.871,0.905"
     id="path304" />
  <path
     style="fill:#231f20;fill-opacity:1;fill-rule:nonzero;stroke:none"
     d="m 37.368928,151.411 c -0.536,-1.24 0.177,-1.933 1.214,-2.005 0.307,-0.021 0.547,-0.36 0.854,-0.36 0.702,0.016 1.874,1.303 1.046,2.557 -0.062,0.09 -0.286,0.875 -0.546,1.438 -0.516,1.1 -2.068,3.052 -4.75,3.328 -1.27,0.136 -1.114,-0.64 -0.614,-0.854 1.577,-0.661 1.582,-1.026 1.932,-1.354 1.197,-1.094 0.864,-2.75 0.864,-2.75"
     id="path305" />
  <path
     style="fill:none;stroke:#231f20;stroke-width:0.332927;stroke-linecap:butt;stroke-linejoin:miter;stroke-miterlimit:4;stroke-dasharray:none;stroke-opacity:1"
     d="m 37.368928,151.411 c -0.536,-1.24 0.177,-1.933 1.214,-2.005 0.307,-0.021 0.547,-0.36 0.854,-0.36 0.702,0.016 1.874,1.303 1.046,2.557 -0.062,0.09 -0.286,0.875 -0.546,1.438 -0.516,1.1 -2.068,3.052 -4.75,3.328 -1.27,0.136 -1.114,-0.64 -0.614,-0.854 1.577,-0.661 1.582,-1.026 1.932,-1.354 1.197,-1.094 0.864,-2.75 0.864,-2.75 z"
     id="path306" />
  <path
     style="fill:#63c99d;fill-opacity:1;fill-rule:nonzero;stroke:none"
     d="m 57.884928,111.802 c -1.443,2.781 -2.058,3.224 -2.771,3.807 -4.464,3.677 -2.573,5.802 0.183,6.636 3.238,1 4.385,1.416 6.744,-4.418 0.652,-1.625 3.974,-7.525 3.974,-7.525 1.479,-1.953 1.875,-4.647 1.182,-5.928 -0.734,-1.348 -0.542,-0.76 -1.443,-1.88 -0.864,-1.077 -2.905,-1.853 -3.989,-1.255 -1.036,0.572 -1.094,2.235 -1.484,4.63 -0.308,1.886 -2.396,5.933 -2.396,5.933"
     id="path307" />
  <path
     style="fill:none;stroke:#231f20;stroke-width:0.565977;stroke-linecap:butt;stroke-linejoin:miter;stroke-miterlimit:4;stroke-dasharray:none;stroke-opacity:1"
     d="m 57.884928,111.802 c -1.443,2.781 -2.058,3.224 -2.771,3.807 -4.464,3.677 -2.573,5.802 0.183,6.636 3.238,1 4.385,1.416 6.744,-4.418 0.652,-1.625 3.974,-7.525 3.974,-7.525 1.479,-1.953 1.875,-4.647 1.182,-5.928 -0.734,-1.348 -0.542,-0.76 -1.443,-1.88 -0.864,-1.077 -2.905,-1.853 -3.989,-1.255 -1.036,0.572 -1.094,2.235 -1.484,4.63 -0.308,1.886 -2.396,5.933 -2.396,5.933 z"
     id="path308" />
  <path
     style="fill:#231f20;fill-opacity:1;fill-rule:nonzero;stroke:none"
     d="m 47.916928,135.359 c -1.83,-1.333 -2.366,-1.344 -2.975,-0.604 -0.416,0.495 -0.959,0.802 -1.219,1.088 -0.88,0.954 -1.964,2.932 -3.573,9.312 -0.364,1.443 -0.891,3.475 -1.177,4.282 -0.438,1.286 1.996,1.156 2.172,0.652 0.578,-1.62 1.109,-2.678 1.396,-3.23 0.198,-0.381 0.448,-1.094 1.406,-2.464 1.448,-2.073 2.62,-3.093 3.62,-4.964 0.468,-0.864 1.364,-1.218 1.386,-2.301 0.036,-1.084 -1.036,-1.771 -1.036,-1.771"
     id="path309" />
  <path
     style="fill:none;stroke:#231f20;stroke-width:0.565977;stroke-linecap:butt;stroke-linejoin:miter;stroke-miterlimit:4;stroke-dasharray:none;stroke-opacity:1"
     d="m 47.916928,135.359 c -1.83,-1.333 -2.366,-1.344 -2.975,-0.604 -0.416,0.495 -0.959,0.802 -1.219,1.088 -0.88,0.954 -1.964,2.932 -3.573,9.312 -0.364,1.443 -0.891,3.475 -1.177,4.282 -0.438,1.286 1.996,1.156 2.172,0.652 0.578,-1.62 1.109,-2.678 1.396,-3.23 0.198,-0.381 0.448,-1.094 1.406,-2.464 1.448,-2.073 2.62,-3.093 3.62,-4.964 0.468,-0.864 1.364,-1.218 1.386,-2.301 0.036,-1.084 -1.036,-1.771 -1.036,-1.771 z"
     id="path310" />
  <path
     style="fill:#231f20;fill-opacity:1;fill-rule:nonzero;stroke:#231f20;stroke-width:0.565977;stroke-linecap:round;stroke-linejoin:round;stroke-miterlimit:4;stroke-dasharray:none;stroke-opacity:1"
     d="m 48.201928,137.849 c 1.401,-0.23 1.975,-2.308 2.199,-2.563 3.301,-3.771 3.442,-4.125 5.749,-7.167 3.344,-4.412 4.953,-7.937 2.959,-10.63 -1.355,-1.823 -2.927,-2.291 -4.198,-1.954 -1.406,0.382 -3.756,2.522 -3.25,5.366 l -0.64,1.593 c -0.558,1.016 -0.834,1.521 -1.147,2 -0.557,0.833 -1.099,1.765 -2.088,3.453 -1.756,3 -2.631,6.74 -2.631,6.74 -0.15,0.271 -0.172,0.552 -0.12,0.818"
     id="path311" />
  <path
     style="fill:#63c99d;fill-opacity:1;fill-rule:nonzero;stroke:none"
     d="m 59.249928,117.682 c -1.281,-1.871 -2.835,-2.401 -4.12,-2.109 -1.423,0.322 -3.849,2.374 -3.448,5.234 l 6.177,4.786 c 0.343,-0.51 0.64,-1.006 0.911,-1.49 0.099,-0.093 0.193,-0.182 0.287,-0.249 0.724,-0.485 0.74,-1.161 0.792,-2.355 0.333,-1.396 0.192,-2.672 -0.599,-3.817"
     id="path312" />
  <path
     style="fill:none;stroke:#231f20;stroke-width:0.565977;stroke-linecap:butt;stroke-linejoin:miter;stroke-miterlimit:4;stroke-dasharray:none;stroke-opacity:1"
     d="m 59.249928,117.682 c -1.281,-1.871 -2.835,-2.401 -4.12,-2.109 -1.423,0.322 -3.849,2.374 -3.448,5.234 l 6.177,4.786 c 0.343,-0.51 0.64,-1.006 0.911,-1.49 0.099,-0.093 0.193,-0.182 0.287,-0.249 0.724,-0.485 0.74,-1.161 0.792,-2.355 0.333,-1.396 0.192,-2.672 -0.599,-3.817 z"
     id="path313" />
  <path
     style="fill:#231f20;fill-opacity:1;fill-rule:nonzero;stroke:none"
     d="m 275.76393,132.453 c -0.677,-1.172 -0.052,-1.943 0.969,-2.131 0.307,-0.057 0.506,-0.421 0.807,-0.457 0.704,-0.068 2.016,1.077 1.333,2.416 -0.046,0.093 -0.181,0.906 -0.374,1.494 -0.38,1.146 -1.703,3.271 -4.328,3.86 -1.251,0.276 -1.183,-0.51 -0.714,-0.781 1.49,-0.839 1.459,-1.204 1.766,-1.573 1.062,-1.224 0.541,-2.828 0.541,-2.828"
     id="path314" />
  <path
     style="fill:none;stroke:#231f20;stroke-width:0.332927;stroke-linecap:butt;stroke-linejoin:miter;stroke-miterlimit:4;stroke-dasharray:none;stroke-opacity:1"
     d="m 275.76393,132.453 c -0.677,-1.172 -0.052,-1.943 0.969,-2.131 0.307,-0.057 0.506,-0.421 0.807,-0.457 0.704,-0.068 2.016,1.077 1.333,2.416 -0.046,0.093 -0.181,0.906 -0.374,1.494 -0.38,1.146 -1.703,3.271 -4.328,3.86 -1.251,0.276 -1.183,-0.51 -0.714,-0.781 1.49,-0.839 1.459,-1.204 1.766,-1.573 1.062,-1.224 0.541,-2.828 0.541,-2.828 z"
     id="path315" />
  <path
     style="fill:#ffffff;fill-opacity:1;fill-rule:nonzero;stroke:none"
     d="m 284.38393,115.286 c -1.973,-1.109 -2.505,-1.057 -3.025,-0.251 -0.36,0.538 -0.86,0.907 -1.09,1.219 -0.76,1.048 -1.609,3.136 -2.468,9.663 -0.193,1.473 -0.485,3.552 -0.672,4.39 -0.286,1.323 2.115,0.916 2.234,0.391 0.381,-1.667 0.786,-2.781 1.005,-3.365 0.157,-0.402 0.324,-1.14 1.12,-2.61 1.193,-2.229 2.24,-3.38 3.021,-5.349 0.359,-0.916 1.208,-1.369 1.104,-2.448 -0.088,-1.083 -1.229,-1.64 -1.229,-1.64"
     id="path316" />
  <path
     style="fill:none;stroke:#231f20;stroke-width:0.565977;stroke-linecap:butt;stroke-linejoin:miter;stroke-miterlimit:4;stroke-dasharray:none;stroke-opacity:1"
     d="m 284.38393,115.286 c -1.973,-1.109 -2.505,-1.057 -3.025,-0.251 -0.36,0.538 -0.86,0.907 -1.09,1.219 -0.76,1.048 -1.609,3.136 -2.468,9.663 -0.193,1.473 -0.485,3.552 -0.672,4.39 -0.286,1.323 2.115,0.916 2.234,0.391 0.381,-1.667 0.786,-2.781 1.005,-3.365 0.157,-0.402 0.324,-1.14 1.12,-2.61 1.193,-2.229 2.24,-3.38 3.021,-5.349 0.359,-0.916 1.208,-1.369 1.104,-2.448 -0.088,-1.083 -1.229,-1.64 -1.229,-1.64 z"
     id="path317" />
  <path
     style="fill:#ffffff;fill-opacity:1;fill-rule:nonzero;stroke:#231f20;stroke-width:0.565977;stroke-linecap:round;stroke-linejoin:round;stroke-miterlimit:4;stroke-dasharray:none;stroke-opacity:1"
     d="m 284.95193,117.723 c 1.364,-0.385 1.692,-2.516 1.891,-2.797 2.844,-4.129 2.937,-4.495 4.88,-7.785 2.806,-4.767 4.005,-8.453 1.708,-10.896 -1.558,-1.657 -3.167,-1.937 -4.396,-1.459 -1.354,0.542 -3.438,2.943 -2.61,5.708 l -0.448,1.651 c -0.442,1.084 -0.656,1.614 -0.91,2.125 -0.454,0.891 -0.886,1.88 -1.672,3.672 -1.396,3.183 -1.834,6.995 -1.834,6.995 -0.12,0.286 -0.104,0.568 -0.021,0.828"
     id="path318" />
  <path
     style="fill:#231f20;fill-opacity:1;fill-rule:nonzero;stroke:none"
     d="m 102.26393,86.953 c 1.099,-0.797 1.928,-0.251 2.219,0.749 0.089,0.298 0.475,0.459 0.537,0.751 0.14,0.692 -0.87,2.115 -2.266,1.573 -0.104,-0.037 -0.922,-0.084 -1.531,-0.218 -1.183,-0.267 -3.421,-1.36 -4.271,-3.918 -0.401,-1.213 0.386,-1.229 0.703,-0.786 0.984,1.396 1.344,1.322 1.74,1.598 1.328,0.928 2.869,0.251 2.869,0.251"
     id="path319" />
  <path
     style="fill:none;stroke:#231f20;stroke-width:0.332927;stroke-linecap:butt;stroke-linejoin:miter;stroke-miterlimit:4;stroke-dasharray:none;stroke-opacity:1"
     d="m 102.26393,86.953 c 1.099,-0.797 1.928,-0.251 2.219,0.749 0.089,0.298 0.475,0.459 0.537,0.751 0.14,0.692 -0.87,2.115 -2.266,1.573 -0.104,-0.037 -0.922,-0.084 -1.531,-0.218 -1.183,-0.267 -3.421,-1.36 -4.271,-3.918 -0.401,-1.213 0.386,-1.229 0.703,-0.786 0.984,1.396 1.344,1.322 1.74,1.598 1.328,0.928 2.869,0.251 2.869,0.251 z"
     id="path320" />
  <path
     style="fill:#63c99d;fill-opacity:1;fill-rule:nonzero;stroke:none"
     d="m 130.03993,103.75 c 2.902,-1.199 3.647,-1.141 4.574,-1.131 5.781,0.063 5.702,-2.781 4.134,-5.197 -1.842,-2.854 -2.446,-3.906 -8.009,-0.964 -1.543,0.828 -7.885,3.203 -7.885,3.203 -2.391,0.541 -4.423,2.344 -4.719,3.77 -0.308,1.506 -0.079,0.938 -0.109,2.376 -0.032,1.375 1.03,3.286 2.244,3.526 1.166,0.224 2.276,-1.006 4.12,-2.588 1.453,-1.246 5.65,-2.995 5.65,-2.995"
     id="path321" />
  <path
     style="fill:none;stroke:#231f20;stroke-width:0.565977;stroke-linecap:butt;stroke-linejoin:miter;stroke-miterlimit:4;stroke-dasharray:none;stroke-opacity:1"
     d="m 130.03993,103.75 c 2.902,-1.199 3.647,-1.141 4.574,-1.131 5.781,0.063 5.702,-2.781 4.134,-5.197 -1.842,-2.854 -2.446,-3.906 -8.009,-0.964 -1.543,0.828 -7.885,3.203 -7.885,3.203 -2.391,0.541 -4.423,2.344 -4.719,3.77 -0.308,1.506 -0.079,0.938 -0.109,2.376 -0.032,1.375 1.03,3.286 2.244,3.526 1.166,0.224 2.276,-1.006 4.12,-2.588 1.453,-1.246 5.65,-2.995 5.65,-2.995 z"
     id="path322" />
  <path
     style="fill:#ffffff;fill-opacity:1;fill-rule:nonzero;stroke:none"
     d="m 112.85893,103.666 c -0.245,-0.031 -0.407,-1.172 -0.928,-1.14 -0.525,0.036 -0.672,0.812 -2.411,1.776 l -0.021,0.009 c -1.292,0.667 -2.145,1.767 -2.167,3.016 -0.03,2.079 2.235,3.798 5.052,3.839 2.834,0.041 5.142,-1.609 5.178,-3.688 0.03,-1.984 -2.052,-3.645 -4.703,-3.812"
     id="path323" />
  <path
     style="fill:none;stroke:#231f20;stroke-width:0.565977;stroke-linecap:butt;stroke-linejoin:miter;stroke-miterlimit:4;stroke-dasharray:none;stroke-opacity:1"
     d="m 112.85893,103.666 c -0.245,-0.031 -0.407,-1.172 -0.928,-1.14 -0.525,0.036 -0.672,0.812 -2.411,1.776 l -0.021,0.009 c -1.292,0.667 -2.145,1.767 -2.167,3.016 -0.03,2.079 2.235,3.798 5.052,3.839 2.834,0.041 5.142,-1.609 5.178,-3.688 0.03,-1.984 -2.052,-3.645 -4.703,-3.812 z"
     id="path324" />
  <path
     style="fill:#231f20;fill-opacity:1;fill-rule:nonzero;stroke:none"
     d="m 120.21793,93.781 c 0.906,-2.073 0.802,-2.599 -0.058,-3.036 -0.573,-0.297 -0.989,-0.761 -1.322,-0.953 -1.12,-0.651 -3.282,-1.287 -9.866,-1.48 -1.489,-0.042 -3.577,-0.114 -4.437,-0.219 -1.343,-0.151 -0.692,2.193 -0.161,2.256 1.704,0.219 2.849,0.505 3.453,0.667 0.407,0.114 1.161,0.202 2.708,0.838 2.333,0.968 3.589,1.896 5.625,2.463 0.954,0.276 1.49,1.073 2.547,0.86 1.068,-0.199 1.511,-1.396 1.511,-1.396"
     id="path325" />
  <path
     style="fill:none;stroke:#231f20;stroke-width:0.565977;stroke-linecap:butt;stroke-linejoin:miter;stroke-miterlimit:4;stroke-dasharray:none;stroke-opacity:1"
     d="m 120.21793,93.781 c 0.906,-2.073 0.802,-2.599 -0.058,-3.036 -0.573,-0.297 -0.989,-0.761 -1.322,-0.953 -1.12,-0.651 -3.282,-1.287 -9.866,-1.48 -1.489,-0.042 -3.577,-0.114 -4.437,-0.219 -1.343,-0.151 -0.692,2.193 -0.161,2.256 1.704,0.219 2.849,0.505 3.453,0.667 0.407,0.114 1.161,0.202 2.708,0.838 2.333,0.968 3.589,1.896 5.625,2.463 0.954,0.276 1.49,1.073 2.547,0.86 1.068,-0.199 1.511,-1.396 1.511,-1.396 z"
     id="path326" />
  <path
     style="fill:#231f20;fill-opacity:1;fill-rule:nonzero;stroke:#231f20;stroke-width:0.565977;stroke-linecap:round;stroke-linejoin:round;stroke-miterlimit:4;stroke-dasharray:none;stroke-opacity:1"
     d="m 117.84793,94.593 c 0.526,1.324 2.678,1.433 2.974,1.6 4.401,2.411 4.776,2.468 8.24,4.061 5.03,2.313 8.817,3.125 11.02,0.595 1.49,-1.713 1.6,-3.344 1,-4.516 -0.676,-1.297 -3.271,-3.125 -5.943,-2.016 l -1.687,-0.281 c -1.12,-0.328 -1.672,-0.484 -2.202,-0.687 -0.939,-0.371 -1.964,-0.693 -3.83,-1.292 -3.306,-1.068 -7.14,-1.115 -7.14,-1.115 -0.297,-0.093 -0.578,-0.046 -0.828,0.058"
     id="path327" />
  <path
     style="fill:#63c99d;fill-opacity:1;fill-rule:nonzero;stroke:#231f20;stroke-width:0.565977;stroke-linecap:butt;stroke-linejoin:miter;stroke-miterlimit:4;stroke-dasharray:none;stroke-opacity:1"
     d="m 131.89493,101.379 c 0.577,0.235 1.125,0.418 1.661,0.579 0.115,0.068 0.219,0.14 0.303,0.219 0.624,0.598 1.285,0.468 2.463,0.265 1.437,0.027 2.65,-0.391 3.604,-1.411 1.552,-1.657 1.729,-3.281 1.166,-4.479 -0.62,-1.318 -3.145,-3.244 -5.853,-2.24 z"
     id="path328" />
  <path
     style="fill:#ffffff;fill-opacity:1;fill-rule:nonzero;stroke:none"
     d="m 0.33292805,108.593 c 0,0.682 0.557,1.24 1.24000005,1.24 H 339.69193 c 0.687,0 1.239,-0.558 1.239,-1.24 0,-0.687 -0.552,-1.239 -1.239,-1.239 H 1.5729281 c -0.68300005,0 -1.24000005,0.552 -1.24000005,1.239"
     id="path329" />
  <path
     style="fill:none;stroke:#231f20;stroke-width:0.665856;stroke-linecap:butt;stroke-linejoin:miter;stroke-miterlimit:4;stroke-dasharray:none;stroke-opacity:1"
     d="m 0.33292805,108.593 c 0,0.682 0.557,1.24 1.24000005,1.24 H 339.69193 c 0.687,0 1.239,-0.558 1.239,-1.24 0,-0.687 -0.552,-1.239 -1.239,-1.239 H 1.5729281 c -0.68300005,0 -1.24000005,0.552 -1.24000005,1.239 z"
     id="path330" />
  <path
     style="fill:#ffffff;fill-opacity:1;fill-rule:nonzero;stroke:none"
     d="m 71.061928,98.672 c 0.135,-0.203 1.224,0.188 1.432,-0.287 0.219,-0.484 -0.401,-0.973 -0.443,-2.963 v -0.021 c 0.016,-1.453 -0.552,-2.724 -1.65,-3.323 -1.823,-1 -4.402,0.203 -5.756,2.672 -1.359,2.484 -0.979,5.296 0.838,6.296 1.746,0.953 4.183,-0.109 5.579,-2.374"
     id="path331" />
  <path
     style="fill:none;stroke:#231f20;stroke-width:0.565977;stroke-linecap:butt;stroke-linejoin:miter;stroke-miterlimit:4;stroke-dasharray:none;stroke-opacity:1"
     d="m 71.061928,98.672 c 0.135,-0.203 1.224,0.188 1.432,-0.287 0.219,-0.484 -0.401,-0.973 -0.443,-2.963 v -0.021 c 0.016,-1.453 -0.552,-2.724 -1.65,-3.323 -1.823,-1 -4.402,0.203 -5.756,2.672 -1.359,2.484 -0.979,5.296 0.838,6.296 1.746,0.953 4.183,-0.109 5.579,-2.374 z"
     id="path332" />
  <path
     style="fill:#231f20;fill-opacity:1;fill-rule:nonzero;stroke:none"
     d="m 82.149928,108.797 c -0.526,0.364 -2.463,0.156 -4.011,0.614 -1.036,0.302 -3.76,-0.068 -4.77,0.318 -0.932,0.349 -1.391,0.421 -1.974,-0.568 -0.344,-0.594 -0.625,-1.948 -0.198,-2.23 0.996,-0.645 1.928,-0.812 2.996,-0.776 1.218,0.043 4.499,0.454 5.098,0.584 1.484,0.334 2.151,0.016 2.552,0.063 0.76,0.099 0.905,0.411 0.953,0.911 0.088,0.953 -0.646,1.084 -0.646,1.084"
     id="path333" />
  <path
     style="fill:none;stroke:#231f20;stroke-width:0.565977;stroke-linecap:butt;stroke-linejoin:miter;stroke-miterlimit:4;stroke-dasharray:none;stroke-opacity:1"
     d="m 82.149928,108.797 c -0.526,0.364 -2.463,0.156 -4.011,0.614 -1.036,0.302 -3.76,-0.068 -4.77,0.318 -0.932,0.349 -1.391,0.421 -1.974,-0.568 -0.344,-0.594 -0.625,-1.948 -0.198,-2.23 0.996,-0.645 1.928,-0.812 2.996,-0.776 1.218,0.043 4.499,0.454 5.098,0.584 1.484,0.334 2.151,0.016 2.552,0.063 0.76,0.099 0.905,0.411 0.953,0.911 0.088,0.953 -0.646,1.084 -0.646,1.084 z"
     id="path334" />
  <path
     style="fill:#231f20;fill-opacity:1;fill-rule:nonzero;stroke:none"
     d="m 72.805928,109.317 c -0.556,1.172 -2.208,-0.026 -2.681,-0.271 -0.486,-0.255 -1.938,-0.807 -3.131,-1.088 -1.192,-0.287 -2.557,-1.151 -4.817,-1.699 -1.188,-0.285 -2.162,-1.317 -1.672,-3.02 0.484,-1.693 1.614,-2.052 3.005,-1.489 1.385,0.561 2.448,1.681 3.801,2.343 1.36,0.666 2.803,1.224 3.959,1.6 1.313,0.432 1.808,1.134 1.844,1.609 0.099,1.192 -0.308,2.015 -0.308,2.015"
     id="path335" />
  <path
     style="fill:none;stroke:#231f20;stroke-width:0.565977;stroke-linecap:butt;stroke-linejoin:miter;stroke-miterlimit:4;stroke-dasharray:none;stroke-opacity:1"
     d="m 72.805928,109.317 c -0.556,1.172 -2.208,-0.026 -2.681,-0.271 -0.486,-0.255 -1.938,-0.807 -3.131,-1.088 -1.192,-0.287 -2.557,-1.151 -4.817,-1.699 -1.188,-0.285 -2.162,-1.317 -1.672,-3.02 0.484,-1.693 1.614,-2.052 3.005,-1.489 1.385,0.561 2.448,1.681 3.801,2.343 1.36,0.666 2.803,1.224 3.959,1.6 1.313,0.432 1.808,1.134 1.844,1.609 0.099,1.192 -0.308,2.015 -0.308,2.015 z"
     id="path336" />
  <path
     style="fill:#231f20;fill-opacity:1;fill-rule:nonzero;stroke:none"
     d="m 136.80593,109.583 c -0.343,0.542 -2.214,1.104 -3.458,2.119 -0.844,0.683 -3.494,1.396 -4.276,2.147 -0.724,0.682 -1.12,0.926 -2.037,0.24 -0.552,-0.412 -1.339,-1.554 -1.047,-1.975 0.662,-0.984 1.459,-1.5 2.459,-1.88 1.136,-0.432 4.323,-1.328 4.927,-1.437 1.494,-0.271 1.985,-0.823 2.374,-0.932 0.735,-0.21 0.996,0.025 1.235,0.468 0.448,0.844 -0.177,1.25 -0.177,1.25"
     id="path337" />
  <path
     style="fill:none;stroke:#231f20;stroke-width:0.565977;stroke-linecap:butt;stroke-linejoin:miter;stroke-miterlimit:4;stroke-dasharray:none;stroke-opacity:1"
     d="m 136.80593,109.583 c -0.343,0.542 -2.214,1.104 -3.458,2.119 -0.844,0.683 -3.494,1.396 -4.276,2.147 -0.724,0.682 -1.12,0.926 -2.037,0.24 -0.552,-0.412 -1.339,-1.554 -1.047,-1.975 0.662,-0.984 1.459,-1.5 2.459,-1.88 1.136,-0.432 4.323,-1.328 4.927,-1.437 1.494,-0.271 1.985,-0.823 2.374,-0.932 0.735,-0.21 0.996,0.025 1.235,0.468 0.448,0.844 -0.177,1.25 -0.177,1.25 z"
     id="path338" />
  <path
     style="fill:#231f20;fill-opacity:1;fill-rule:nonzero;stroke:none"
     d="m 128.02593,114.041 c -0.896,0.933 -2.084,-0.719 -2.459,-1.104 -0.38,-0.396 -1.584,-1.375 -2.625,-2.02 -1.042,-0.652 -2.063,-1.902 -4.031,-3.136 -1.043,-0.646 -1.641,-1.932 -0.636,-3.396 0.995,-1.448 2.183,-1.432 3.323,-0.464 1.136,0.974 1.786,2.37 2.865,3.433 1.077,1.057 2.271,2.041 3.249,2.765 1.11,0.823 1.36,1.64 1.24,2.104 -0.281,1.167 -0.926,1.818 -0.926,1.818"
     id="path339" />
  <path
     style="fill:none;stroke:#231f20;stroke-width:0.565977;stroke-linecap:butt;stroke-linejoin:miter;stroke-miterlimit:4;stroke-dasharray:none;stroke-opacity:1"
     d="m 128.02593,114.041 c -0.896,0.933 -2.084,-0.719 -2.459,-1.104 -0.38,-0.396 -1.584,-1.375 -2.625,-2.02 -1.042,-0.652 -2.063,-1.902 -4.031,-3.136 -1.043,-0.646 -1.641,-1.932 -0.636,-3.396 0.995,-1.448 2.183,-1.432 3.323,-0.464 1.136,0.974 1.786,2.37 2.865,3.433 1.077,1.057 2.271,2.041 3.249,2.765 1.11,0.823 1.36,1.64 1.24,2.104 -0.281,1.167 -0.926,1.818 -0.926,1.818 z"
     id="path340" />
  <path
     style="fill:#63c99d;fill-opacity:1;fill-rule:nonzero;stroke:none"
     d="m 288.27993,91.354 c 0.135,3.13 -0.177,3.818 -0.5,4.682 -2.027,5.411 0.672,6.307 3.473,5.657 3.308,-0.756 4.511,-0.964 3.636,-7.199 -0.25,-1.734 -0.317,-8.505 -0.317,-8.505 0.301,-2.432 -0.699,-4.957 -1.937,-5.724 -1.314,-0.801 -0.855,-0.391 -2.194,-0.911 -1.292,-0.5 -3.448,-0.152 -4.082,0.911 -0.615,1.016 0.17,2.485 1.025,4.751 0.677,1.792 0.896,6.338 0.896,6.338"
     id="path341" />
  <path
     style="fill:none;stroke:#231f20;stroke-width:0.565977;stroke-linecap:butt;stroke-linejoin:miter;stroke-miterlimit:4;stroke-dasharray:none;stroke-opacity:1"
     d="m 288.27993,91.354 c 0.135,3.13 -0.177,3.818 -0.5,4.682 -2.027,5.411 0.672,6.307 3.473,5.657 3.308,-0.756 4.511,-0.964 3.636,-7.199 -0.25,-1.734 -0.317,-8.505 -0.317,-8.505 0.301,-2.432 -0.699,-4.957 -1.937,-5.724 -1.314,-0.801 -0.855,-0.391 -2.194,-0.911 -1.292,-0.5 -3.448,-0.152 -4.082,0.911 -0.615,1.016 0.17,2.485 1.025,4.751 0.677,1.792 0.896,6.338 0.896,6.338 z"
     id="path342" />
  <path
     style="fill:#ffffff;fill-opacity:1;fill-rule:nonzero;stroke:none"
     d="m 293.12393,73.396 c 0.02,-0.246 1.156,-0.448 1.099,-0.97 -0.052,-0.525 -0.839,-0.64 -1.864,-2.342 l -0.011,-0.016 c -0.713,-1.271 -1.839,-2.084 -3.089,-2.058 -2.083,0.047 -3.714,2.375 -3.651,5.192 0.063,2.834 1.803,5.079 3.875,5.038 1.989,-0.047 3.568,-2.183 3.641,-4.844"
     id="path343" />
  <path
     style="fill:none;stroke:#231f20;stroke-width:0.565977;stroke-linecap:butt;stroke-linejoin:miter;stroke-miterlimit:4;stroke-dasharray:none;stroke-opacity:1"
     d="m 293.12393,73.396 c 0.02,-0.246 1.156,-0.448 1.099,-0.97 -0.052,-0.525 -0.839,-0.64 -1.864,-2.342 l -0.011,-0.016 c -0.713,-1.271 -1.839,-2.084 -3.089,-2.058 -2.083,0.047 -3.714,2.375 -3.651,5.192 0.063,2.834 1.803,5.079 3.875,5.038 1.989,-0.047 3.568,-2.183 3.641,-4.844 z"
     id="path344" />
  <path
     style="fill:#231f20;fill-opacity:1;fill-rule:nonzero;stroke:none"
     d="m 290.31093,135.911 c -1.083,-0.802 -0.812,-1.761 0.048,-2.338 0.26,-0.178 0.296,-0.59 0.561,-0.74 0.615,-0.339 2.276,0.193 2.183,1.693 -0.006,0.104 0.188,0.896 0.245,1.515 0.104,1.209 -0.261,3.677 -2.448,5.261 -1.032,0.749 -1.281,0 -0.959,-0.433 1.036,-1.359 0.86,-1.682 1,-2.14 0.49,-1.552 -0.63,-2.818 -0.63,-2.818"
     id="path345" />
  <path
     style="fill:none;stroke:#231f20;stroke-width:0.332927;stroke-linecap:butt;stroke-linejoin:miter;stroke-miterlimit:4;stroke-dasharray:none;stroke-opacity:1"
     d="m 290.31093,135.911 c -1.083,-0.802 -0.812,-1.761 0.048,-2.338 0.26,-0.178 0.296,-0.59 0.561,-0.74 0.615,-0.339 2.276,0.193 2.183,1.693 -0.006,0.104 0.188,0.896 0.245,1.515 0.104,1.209 -0.261,3.677 -2.448,5.261 -1.032,0.749 -1.281,0 -0.959,-0.433 1.036,-1.359 0.86,-1.682 1,-2.14 0.49,-1.552 -0.63,-2.818 -0.63,-2.818 z"
     id="path346" />
  <path
     style="fill:#231f20;fill-opacity:1;fill-rule:nonzero;stroke:none"
     d="m 291.41993,116.739 c -2.249,-0.24 -2.719,0.02 -2.875,0.968 -0.114,0.631 -0.432,1.172 -0.516,1.547 -0.285,1.267 -0.233,3.521 1.558,9.849 0.412,1.432 0.969,3.454 1.13,4.298 0.26,1.333 2.303,0.005 2.203,-0.527 -0.307,-1.681 -0.38,-2.864 -0.405,-3.489 -0.016,-0.422 -0.156,-1.172 -0.011,-2.839 0.213,-2.515 0.719,-3.989 0.651,-6.109 -0.026,-0.979 0.573,-1.735 0.052,-2.682 -0.515,-0.958 -1.787,-1.016 -1.787,-1.016"
     id="path347" />
  <path
     style="fill:none;stroke:#231f20;stroke-width:0.565977;stroke-linecap:butt;stroke-linejoin:miter;stroke-miterlimit:4;stroke-dasharray:none;stroke-opacity:1"
     d="m 291.41993,116.739 c -2.249,-0.24 -2.719,0.02 -2.875,0.968 -0.114,0.631 -0.432,1.172 -0.516,1.547 -0.285,1.267 -0.233,3.521 1.558,9.849 0.412,1.432 0.969,3.454 1.13,4.298 0.26,1.333 2.303,0.005 2.203,-0.527 -0.307,-1.681 -0.38,-2.864 -0.405,-3.489 -0.016,-0.422 -0.156,-1.172 -0.011,-2.839 0.213,-2.515 0.719,-3.989 0.651,-6.109 -0.026,-0.979 0.573,-1.735 0.052,-2.682 -0.515,-0.958 -1.787,-1.016 -1.787,-1.016 z"
     id="path348" />
  <path
     style="fill:#231f20;fill-opacity:1;fill-rule:nonzero;stroke:#231f20;stroke-width:0.565977;stroke-linecap:round;stroke-linejoin:round;stroke-miterlimit:4;stroke-dasharray:none;stroke-opacity:1"
     d="m 292.91093,118.75 c 1.098,-0.896 0.557,-2.98 0.624,-3.313 0.974,-4.922 0.917,-5.296 1.396,-9.088 0.688,-5.49 0.322,-9.349 -2.75,-10.683 -2.089,-0.906 -3.677,-0.521 -4.614,0.407 -1.027,1.031 -1.99,4.063 -0.131,6.276 l 0.24,1.692 c 0.025,1.166 0.041,1.74 0.011,2.313 -0.068,0.995 -0.074,2.072 -0.084,4.031 -0.02,3.474 1.089,7.15 1.089,7.15 0.009,0.308 0.129,0.563 0.307,0.767"
     id="path349" />
  <path
     style="fill:#63c99d;fill-opacity:1;fill-rule:nonzero;stroke:none"
     d="m 294.82693,98.776 c -0.407,-1.38 -1.172,-2.416 -2.427,-3.016 -2.047,-0.979 -3.656,-0.656 -4.625,0.234 -1.074,0.99 -2.146,3.984 -0.37,6.26 l 7.744,1.057 c 0.047,-0.618 0.058,-1.192 0.047,-1.749 0.037,-0.131 0.073,-0.255 0.12,-0.36 0.385,-0.78 0.063,-1.369 -0.489,-2.426"
     id="path350" />
  <path
     style="fill:none;stroke:#231f20;stroke-width:0.565977;stroke-linecap:butt;stroke-linejoin:miter;stroke-miterlimit:4;stroke-dasharray:none;stroke-opacity:1"
     d="m 294.82693,98.776 c -0.407,-1.38 -1.172,-2.416 -2.427,-3.016 -2.047,-0.979 -3.656,-0.656 -4.625,0.234 -1.074,0.99 -2.146,3.984 -0.37,6.26 l 7.744,1.057 c 0.047,-0.618 0.058,-1.192 0.047,-1.749 0.037,-0.131 0.073,-0.255 0.12,-0.36 0.385,-0.78 0.063,-1.369 -0.489,-2.426 z"
     id="path351" />
  <path
     style="fill:#231f20;fill-opacity:1;fill-rule:nonzero;stroke:none"
     d="m 290.91993,102.401 c -0.421,-0.48 -0.432,-2.432 -1.057,-3.912 -0.416,-1.005 -0.359,-3.744 -0.854,-4.708 -0.448,-0.891 -0.573,-1.339 0.344,-2.025 0.547,-0.412 1.87,-0.844 2.192,-0.448 0.756,0.916 1.027,1.828 1.104,2.89 0.095,1.214 0.058,4.52 -0.005,5.135 -0.167,1.51 0.229,2.136 0.224,2.541 -0.009,0.761 -0.301,0.943 -0.796,1.047 -0.937,0.193 -1.152,-0.52 -1.152,-0.52"
     id="path352" />
  <path
     style="fill:none;stroke:#231f20;stroke-width:0.565977;stroke-linecap:butt;stroke-linejoin:miter;stroke-miterlimit:4;stroke-dasharray:none;stroke-opacity:1"
     d="m 290.91993,102.401 c -0.421,-0.48 -0.432,-2.432 -1.057,-3.912 -0.416,-1.005 -0.359,-3.744 -0.854,-4.708 -0.448,-0.891 -0.573,-1.339 0.344,-2.025 0.547,-0.412 1.87,-0.844 2.192,-0.448 0.756,0.916 1.027,1.828 1.104,2.89 0.095,1.214 0.058,4.52 -0.005,5.135 -0.167,1.51 0.229,2.136 0.224,2.541 -0.009,0.761 -0.301,0.943 -0.796,1.047 -0.937,0.193 -1.152,-0.52 -1.152,-0.52 z"
     id="path353" />
  <path
     style="fill:#231f20;fill-opacity:1;fill-rule:nonzero;stroke:none"
     d="m 289.59193,93.437 c -1.296,0.052 -1,-1.963 -1,-2.5 0,-0.547 -0.187,-2.093 -0.484,-3.276 -0.303,-1.192 -0.167,-2.801 -0.729,-5.057 -0.298,-1.187 0.166,-2.531 1.906,-2.886 1.724,-0.349 2.568,0.484 2.708,1.98 0.146,1.484 -0.354,2.943 -0.317,4.452 0.036,1.511 0.213,3.052 0.416,4.251 0.224,1.364 -0.167,2.125 -0.572,2.375 -1.011,0.641 -1.928,0.661 -1.928,0.661"
     id="path354" />
  <path
     style="fill:none;stroke:#231f20;stroke-width:0.565977;stroke-linecap:butt;stroke-linejoin:miter;stroke-miterlimit:4;stroke-dasharray:none;stroke-opacity:1"
     d="m 289.59193,93.437 c -1.296,0.052 -1,-1.963 -1,-2.5 0,-0.547 -0.187,-2.093 -0.484,-3.276 -0.303,-1.192 -0.167,-2.801 -0.729,-5.057 -0.298,-1.187 0.166,-2.531 1.906,-2.886 1.724,-0.349 2.568,0.484 2.708,1.98 0.146,1.484 -0.354,2.943 -0.317,4.452 0.036,1.511 0.213,3.052 0.416,4.251 0.224,1.364 -0.167,2.125 -0.572,2.375 -1.011,0.641 -1.928,0.661 -1.928,0.661 z"
     id="path355" />
  <path
     style="fill:#231f20;fill-opacity:1;fill-rule:nonzero;stroke:none"
     d="m 190.30593,99.729 c -1.192,-0.505 -0.072,-2.203 0.146,-2.693 0.23,-0.5 0.719,-1.974 0.948,-3.176 0.235,-1.204 1.036,-2.606 1.484,-4.886 0.23,-1.204 1.219,-2.224 2.943,-1.808 1.713,0.412 2.125,1.527 1.62,2.938 -0.5,1.406 -1.568,2.516 -2.172,3.901 -0.604,1.385 -1.093,2.855 -1.416,4.027 -0.376,1.328 -1.053,1.848 -1.527,1.905 -1.193,0.156 -2.026,-0.208 -2.026,-0.208"
     id="path356" />
  <path
     style="fill:none;stroke:#231f20;stroke-width:0.565977;stroke-linecap:butt;stroke-linejoin:miter;stroke-miterlimit:4;stroke-dasharray:none;stroke-opacity:1"
     d="m 190.30593,99.729 c -1.192,-0.505 -0.072,-2.203 0.146,-2.693 0.23,-0.5 0.719,-1.974 0.948,-3.176 0.235,-1.204 1.036,-2.606 1.484,-4.886 0.23,-1.204 1.219,-2.224 2.943,-1.808 1.713,0.412 2.125,1.527 1.62,2.938 -0.5,1.406 -1.568,2.516 -2.172,3.901 -0.604,1.385 -1.093,2.855 -1.416,4.027 -0.376,1.328 -1.053,1.848 -1.527,1.905 -1.193,0.156 -2.026,-0.208 -2.026,-0.208 z"
     id="path357" />
  <path
     style="fill:#231f20;fill-opacity:1;fill-rule:nonzero;stroke:none"
     d="m 137.11893,105.453 c 1.131,-0.328 2.312,0.317 2.651,1.448 0.328,1.13 -0.318,2.317 -1.448,2.645 -1.13,0.333 -2.318,-0.312 -2.651,-1.443 -0.328,-1.129 0.317,-2.317 1.448,-2.65"
     id="path358" />
  <path
     style="fill:#231f20;fill-opacity:1;fill-rule:nonzero;stroke:none"
     d="m 83.561928,105.489 c 1.172,0.13 2.016,1.188 1.885,2.36 -0.136,1.166 -1.193,2.016 -2.36,1.88 -1.171,-0.136 -2.015,-1.188 -1.885,-2.36 0.136,-1.171 1.193,-2.01 2.36,-1.88"
     id="path359" />
  <path
     style="fill:#ffffff;fill-opacity:1;fill-rule:nonzero;stroke:none"
     d="m 224.51993,83.724 c 1.135,1.958 1.619,2.182 2.484,1.754 0.573,-0.285 1.197,-0.353 1.552,-0.504 1.188,-0.521 2.973,-1.896 7.016,-7.089 0.911,-1.183 2.213,-2.823 2.796,-3.453 0.917,-0.995 -1.353,-1.854 -1.724,-1.463 -1.176,1.244 -2.093,2 -2.577,2.391 -0.328,0.27 -0.85,0.822 -2.276,1.686 -2.156,1.319 -3.647,1.787 -5.314,3.09 -0.781,0.609 -1.738,0.566 -2.192,1.546 -0.469,0.984 0.235,2.042 0.235,2.042"
     id="path360" />
  <path
     style="fill:none;stroke:#231f20;stroke-width:0.565977;stroke-linecap:butt;stroke-linejoin:miter;stroke-miterlimit:4;stroke-dasharray:none;stroke-opacity:1"
     d="m 224.51993,83.724 c 1.135,1.958 1.619,2.182 2.484,1.754 0.573,-0.285 1.197,-0.353 1.552,-0.504 1.188,-0.521 2.973,-1.896 7.016,-7.089 0.911,-1.183 2.213,-2.823 2.796,-3.453 0.917,-0.995 -1.353,-1.854 -1.724,-1.463 -1.176,1.244 -2.093,2 -2.577,2.391 -0.328,0.27 -0.85,0.822 -2.276,1.686 -2.156,1.319 -3.647,1.787 -5.314,3.09 -0.781,0.609 -1.738,0.566 -2.192,1.546 -0.469,0.984 0.235,2.042 0.235,2.042 z"
     id="path361" />
  <path
     style="fill:#ffffff;fill-opacity:1;fill-rule:nonzero;stroke:#231f20;stroke-width:0.565977;stroke-linecap:round;stroke-linejoin:round;stroke-miterlimit:4;stroke-dasharray:none;stroke-opacity:1"
     d="m 225.25893,81.333 c -1.375,-0.355 -2.739,1.317 -3.042,1.453 -4.541,2.131 -4.812,2.402 -8.15,4.255 -4.833,2.688 -7.735,5.267 -6.985,8.537 0.505,2.219 1.75,3.276 3.057,3.479 1.444,0.219 4.453,-0.797 5.13,-3.604 l 1.224,-1.199 c 0.927,-0.713 1.38,-1.061 1.86,-1.374 0.843,-0.536 1.714,-1.172 3.302,-2.318 2.817,-2.041 5.125,-5.109 5.125,-5.109 0.24,-0.183 0.375,-0.437 0.432,-0.697"
     id="path362" />
  <path
     style="fill:#231f20;fill-opacity:1;fill-rule:nonzero;stroke:none"
     d="m 240.29593,73.021 c -0.011,1.353 -0.943,1.697 -1.912,1.348 -0.292,-0.104 -0.656,0.109 -0.927,-0.015 -0.641,-0.297 -1.193,-1.948 0.068,-2.761 0.088,-0.057 0.61,-0.687 1.072,-1.099 0.918,-0.801 3.131,-1.958 5.694,-1.14 1.213,0.396 0.765,1.042 0.224,1.036 -1.714,-0.03 -1.866,0.298 -2.319,0.459 -1.536,0.525 -1.9,2.172 -1.9,2.172"
     id="path363" />
  <path
     style="fill:none;stroke:#231f20;stroke-width:0.332927;stroke-linecap:butt;stroke-linejoin:miter;stroke-miterlimit:4;stroke-dasharray:none;stroke-opacity:1"
     d="m 240.29593,73.021 c -0.011,1.353 -0.943,1.697 -1.912,1.348 -0.292,-0.104 -0.656,0.109 -0.927,-0.015 -0.641,-0.297 -1.193,-1.948 0.068,-2.761 0.088,-0.057 0.61,-0.687 1.072,-1.099 0.918,-0.801 3.131,-1.958 5.694,-1.14 1.213,0.396 0.765,1.042 0.224,1.036 -1.714,-0.03 -1.866,0.298 -2.319,0.459 -1.536,0.525 -1.9,2.172 -1.9,2.172 z"
     id="path364" />
  <path
     style="fill:#63c99d;fill-opacity:1;fill-rule:nonzero;stroke:none"
     d="m 203.09793,94.76 c 2.906,1.157 3.406,1.729 4.062,2.381 4.104,4.066 6.027,1.979 6.584,-0.855 0.671,-3.322 0.968,-4.505 -5.073,-6.26 -1.683,-0.49 -7.885,-3.209 -7.885,-3.209 -2.09,-1.271 -4.808,-1.4 -6.016,-0.583 -1.271,0.864 -0.703,0.615 -1.73,1.626 -0.984,0.962 -1.552,3.077 -0.848,4.093 0.676,0.979 2.343,0.864 4.76,1.016 1.911,0.124 6.146,1.791 6.146,1.791"
     id="path365" />
  <path
     style="fill:none;stroke:#231f20;stroke-width:0.565977;stroke-linecap:butt;stroke-linejoin:miter;stroke-miterlimit:4;stroke-dasharray:none;stroke-opacity:1"
     d="m 203.09793,94.76 c 2.906,1.157 3.406,1.729 4.062,2.381 4.104,4.066 6.027,1.979 6.584,-0.855 0.671,-3.322 0.968,-4.505 -5.073,-6.26 -1.683,-0.49 -7.885,-3.209 -7.885,-3.209 -2.09,-1.271 -4.808,-1.4 -6.016,-0.583 -1.271,0.864 -0.703,0.615 -1.73,1.626 -0.984,0.962 -1.552,3.077 -0.848,4.093 0.676,0.979 2.343,0.864 4.76,1.016 1.911,0.124 6.146,1.791 6.146,1.791 z"
     id="path366" />
  <path
     style="fill:#ffffff;fill-opacity:1;fill-rule:nonzero;stroke:none"
     d="m 191.12993,81.854 c -0.126,-0.204 0.656,-1.046 0.301,-1.432 -0.353,-0.39 -1.052,-0.016 -2.896,-0.756 l -0.02,-0.01 c -1.333,-0.594 -2.719,-0.567 -3.709,0.204 -1.635,1.281 -1.552,4.124 0.188,6.342 1.75,2.23 4.484,2.991 6.12,1.715 1.568,-1.224 1.552,-3.885 0.016,-6.063"
     id="path367" />
  <path
     style="fill:none;stroke:#231f20;stroke-width:0.565977;stroke-linecap:butt;stroke-linejoin:miter;stroke-miterlimit:4;stroke-dasharray:none;stroke-opacity:1"
     d="m 191.12993,81.854 c -0.126,-0.204 0.656,-1.046 0.301,-1.432 -0.353,-0.39 -1.052,-0.016 -2.896,-0.756 l -0.02,-0.01 c -1.333,-0.594 -2.719,-0.567 -3.709,0.204 -1.635,1.281 -1.552,4.124 0.188,6.342 1.75,2.23 4.484,2.991 6.12,1.715 1.568,-1.224 1.552,-3.885 0.016,-6.063 z"
     id="path368" />
  <path
     style="fill:#231f20;fill-opacity:1;fill-rule:nonzero;stroke:none"
     d="m 201.93593,107.926 c -0.62,-0.151 -1.749,-1.744 -3.104,-2.604 -0.921,-0.583 -2.442,-2.864 -3.396,-3.369 -0.874,-0.475 -1.24,-0.766 -0.874,-1.86 0.213,-0.645 1.041,-1.76 1.536,-1.619 1.146,0.318 1.885,0.906 2.562,1.733 0.771,0.943 2.636,3.678 2.932,4.215 0.735,1.333 1.412,1.619 1.642,1.952 0.432,0.636 0.292,0.953 -0.052,1.319 -0.662,0.697 -1.246,0.233 -1.246,0.233"
     id="path369" />
  <path
     style="fill:none;stroke:#231f20;stroke-width:0.565977;stroke-linecap:butt;stroke-linejoin:miter;stroke-miterlimit:4;stroke-dasharray:none;stroke-opacity:1"
     d="m 201.93593,107.926 c -0.62,-0.151 -1.749,-1.744 -3.104,-2.604 -0.921,-0.583 -2.442,-2.864 -3.396,-3.369 -0.874,-0.475 -1.24,-0.766 -0.874,-1.86 0.213,-0.645 1.041,-1.76 1.536,-1.619 1.146,0.318 1.885,0.906 2.562,1.733 0.771,0.943 2.636,3.678 2.932,4.215 0.735,1.333 1.412,1.619 1.642,1.952 0.432,0.636 0.292,0.953 -0.052,1.319 -0.662,0.697 -1.246,0.233 -1.246,0.233 z"
     id="path370" />
  <path
     style="fill:#231f20;fill-opacity:1;fill-rule:nonzero;stroke:none"
     d="m 195.28593,101.311 c -1.298,-0.03 -0.88,-2.019 -0.85,-2.561 0.027,-0.542 -0.062,-2.094 -0.292,-3.297 -0.228,-1.208 0.006,-2.803 -0.426,-5.088 -0.224,-1.204 0.317,-2.516 2.073,-2.767 1.744,-0.249 2.536,0.636 2.588,2.131 0.057,1.495 -0.531,2.921 -0.583,4.432 -0.052,1.511 0.036,3.052 0.167,4.265 0.145,1.371 -0.292,2.105 -0.713,2.333 -1.048,0.584 -1.964,0.552 -1.964,0.552"
     id="path371" />
  <path
     style="fill:none;stroke:#231f20;stroke-width:0.565977;stroke-linecap:butt;stroke-linejoin:miter;stroke-miterlimit:4;stroke-dasharray:none;stroke-opacity:1"
     d="m 195.28593,101.311 c -1.298,-0.03 -0.88,-2.019 -0.85,-2.561 0.027,-0.542 -0.062,-2.094 -0.292,-3.297 -0.228,-1.208 0.006,-2.803 -0.426,-5.088 -0.224,-1.204 0.317,-2.516 2.073,-2.767 1.744,-0.249 2.536,0.636 2.588,2.131 0.057,1.495 -0.531,2.921 -0.583,4.432 -0.052,1.511 0.036,3.052 0.167,4.265 0.145,1.371 -0.292,2.105 -0.713,2.333 -1.048,0.584 -1.964,0.552 -1.964,0.552 z"
     id="path372" />
  <path
     style="fill:#231f20;fill-opacity:1;fill-rule:nonzero;stroke:none"
     d="m 225.75893,85.557 c 0.88,2.088 1.333,2.375 2.245,2.057 0.604,-0.208 1.229,-0.192 1.599,-0.302 1.25,-0.364 3.198,-1.495 7.869,-6.135 1.057,-1.047 2.553,-2.516 3.22,-3.063 1.036,-0.869 -1.115,-2.016 -1.532,-1.672 -1.328,1.084 -2.328,1.719 -2.855,2.042 -0.364,0.224 -0.952,0.709 -2.478,1.381 -2.307,1.031 -3.844,1.307 -5.662,2.389 -0.854,0.502 -1.797,0.339 -2.374,1.251 -0.595,0.917 -0.032,2.052 -0.032,2.052"
     id="path373" />
  <path
     style="fill:none;stroke:#231f20;stroke-width:0.565977;stroke-linecap:butt;stroke-linejoin:miter;stroke-miterlimit:4;stroke-dasharray:none;stroke-opacity:1"
     d="m 225.75893,85.557 c 0.88,2.088 1.333,2.375 2.245,2.057 0.604,-0.208 1.229,-0.192 1.599,-0.302 1.25,-0.364 3.198,-1.495 7.869,-6.135 1.057,-1.047 2.553,-2.516 3.22,-3.063 1.036,-0.869 -1.115,-2.016 -1.532,-1.672 -1.328,1.084 -2.328,1.719 -2.855,2.042 -0.364,0.224 -0.952,0.709 -2.478,1.381 -2.307,1.031 -3.844,1.307 -5.662,2.389 -0.854,0.502 -1.797,0.339 -2.374,1.251 -0.595,0.917 -0.032,2.052 -0.032,2.052 z"
     id="path374" />
  <path
     style="fill:#231f20;fill-opacity:1;fill-rule:nonzero;stroke:#231f20;stroke-width:0.565977;stroke-linecap:round;stroke-linejoin:round;stroke-miterlimit:4;stroke-dasharray:none;stroke-opacity:1"
     d="m 226.80493,83.281 c -1.322,-0.525 -2.885,0.959 -3.208,1.057 -4.776,1.531 -5.077,1.76 -8.625,3.178 -5.135,2.046 -8.342,4.24 -8.02,7.573 0.219,2.265 1.323,3.473 2.594,3.837 1.395,0.407 4.515,-0.213 5.546,-2.916 l 1.365,-1.032 c 1.011,-0.582 1.506,-0.874 2.026,-1.124 0.901,-0.422 1.844,-0.942 3.568,-1.88 3.052,-1.662 5.729,-4.406 5.729,-4.406 0.271,-0.156 0.432,-0.391 0.521,-0.642"
     id="path375" />
  <path
     style="fill:#63c99d;fill-opacity:1;fill-rule:nonzero;stroke:#231f20;stroke-width:0.565977;stroke-linecap:butt;stroke-linejoin:miter;stroke-miterlimit:4;stroke-dasharray:none;stroke-opacity:1"
     d="m 212.14893,88.77 c -0.593,0.276 -1.134,0.563 -1.64,0.86 -0.078,0.015 -0.156,0.031 -0.224,0.031 -0.807,0.047 -1.182,0.547 -1.765,1.412 -1.125,1.068 -1.734,2.292 -1.652,3.76 0.142,2.265 1.194,3.521 2.443,3.937 1.385,0.454 4.526,-0.052 5.661,-2.702 z"
     id="path376" />
  <path
     style="fill:#231f20;fill-opacity:1;fill-rule:nonzero;stroke:none"
     d="m 242.77993,76.964 c -0.183,1.338 -1.151,1.562 -2.068,1.088 -0.276,-0.14 -0.661,0.026 -0.921,-0.135 -0.595,-0.371 -0.932,-2.079 0.421,-2.729 0.099,-0.043 0.693,-0.6 1.208,-0.948 1.011,-0.678 3.349,-1.547 5.787,-0.402 1.156,0.542 0.625,1.126 0.094,1.052 -1.698,-0.249 -1.89,0.058 -2.365,0.162 -1.588,0.322 -2.156,1.912 -2.156,1.912"
     id="path377" />
  <path
     style="fill:none;stroke:#231f20;stroke-width:0.332927;stroke-linecap:butt;stroke-linejoin:miter;stroke-miterlimit:4;stroke-dasharray:none;stroke-opacity:1"
     d="m 242.77993,76.964 c -0.183,1.338 -1.151,1.562 -2.068,1.088 -0.276,-0.14 -0.661,0.026 -0.921,-0.135 -0.595,-0.371 -0.932,-2.079 0.421,-2.729 0.099,-0.043 0.693,-0.6 1.208,-0.948 1.011,-0.678 3.349,-1.547 5.787,-0.402 1.156,0.542 0.625,1.126 0.094,1.052 -1.698,-0.249 -1.89,0.058 -2.365,0.162 -1.588,0.322 -2.156,1.912 -2.156,1.912 z"
     id="path378" />
  <path
     style="fill:#231f20;fill-opacity:1;fill-rule:nonzero;stroke:none"
     d="m 205.50993,106.141 c 0.89,0.77 0.989,2.113 0.218,3.004 -0.77,0.89 -2.114,0.996 -3.005,0.224 -0.896,-0.766 -0.995,-2.119 -0.219,-3.01 0.766,-0.89 2.115,-0.99 3.006,-0.218"
     id="path379" />
  <path
     style="fill:#231f20;fill-opacity:1;fill-rule:nonzero;stroke:none"
     d="m 294.36293,103.431 c 0,1.183 -0.952,2.136 -2.13,2.136 -1.177,0 -2.136,-0.953 -2.136,-2.136 0,-1.177 0.959,-2.129 2.136,-2.129 1.178,0 2.13,0.952 2.13,2.129"
     id="path380" />
</svg>
