<?xml version="1.0" encoding="UTF-8" standalone="no"?>
<!-- Created with Inkscape (http://www.inkscape.org/) -->

<svg
   version="1.1"
   id="svg1"
   width="355.14792"
   height="156.48326"
   viewBox="0 0 355.14791 156.48327"
   sodipodi:docname="cell.svg"
   xmlns:inkscape="http://www.inkscape.org/namespaces/inkscape"
   xmlns:sodipodi="http://sodipodi.sourceforge.net/DTD/sodipodi-0.dtd"
   xmlns="http://www.w3.org/2000/svg"
   xmlns:svg="http://www.w3.org/2000/svg">
  <sodipodi:namedview
     id="namedview1"
     pagecolor="#ffffff"
     bordercolor="#000000"
     borderopacity="0.25"
     inkscape:showpageshadow="2"
     inkscape:pageopacity="0.0"
     inkscape:pagecheckerboard="0"
     inkscape:deskcolor="#d1d1d1">
    <inkscape:page
       x="0"
       y="0"
       inkscape:label="1"
       id="page1"
       width="355.14792"
       height="156.48328"
       margin="0"
       bleed="0" />
  </sodipodi:namedview>
  <defs
     id="defs1" />
  <path
     style="fill:#ffffff;fill-opacity:1;fill-rule:nonzero;stroke:none"
     d="m 160.78092,18.874 h 18.875 V 0 h -18.875 z"
     id="path467" />
  <path
     style="fill:#ffffff;fill-opacity:1;fill-rule:nonzero;stroke:none"
     d="m 338.21792,18.874 h 16.93 V 0 h -16.93 z"
     id="path469" />
  <path
     style="fill:#231f20;fill-opacity:1;fill-rule:nonzero;stroke:none"
     d="m 240.40492,151.343 c -0.536,-1.245 0.172,-1.937 1.209,-2.005 0.312,-0.021 0.552,-0.36 0.854,-0.36 0.708,0.011 1.88,1.303 1.046,2.557 -0.057,0.084 -0.285,0.876 -0.546,1.439 -0.511,1.099 -2.063,3.052 -4.75,3.328 -1.27,0.129 -1.114,-0.641 -0.614,-0.855 1.577,-0.661 1.588,-1.025 1.937,-1.354 1.192,-1.099 0.864,-2.75 0.864,-2.75"
     id="path470" />
  <path
     style="fill:none;stroke:#231f20;stroke-width:0.332927;stroke-linecap:butt;stroke-linejoin:miter;stroke-miterlimit:4;stroke-dasharray:none;stroke-opacity:1"
     d="m 240.40492,151.343 c -0.536,-1.245 0.172,-1.937 1.209,-2.005 0.312,-0.021 0.552,-0.36 0.854,-0.36 0.708,0.011 1.88,1.303 1.046,2.557 -0.057,0.084 -0.285,0.876 -0.546,1.439 -0.511,1.099 -2.063,3.052 -4.75,3.328 -1.27,0.129 -1.114,-0.641 -0.614,-0.855 1.577,-0.661 1.588,-1.025 1.937,-1.354 1.192,-1.099 0.864,-2.75 0.864,-2.75 z"
     id="path471" />
  <path
     style="fill:#63c99d;fill-opacity:1;fill-rule:nonzero;stroke:none"
     d="m 260.91792,111.729 c -1.45,2.786 -2.06,3.224 -2.77,3.812 -4.46,3.672 -2.58,5.797 0.18,6.636 3.24,1 4.39,1.416 6.74,-4.422 0.66,-1.625 3.98,-7.521 3.98,-7.521 1.48,-1.959 1.88,-4.647 1.18,-5.927 -0.73,-1.349 -0.54,-0.766 -1.44,-1.885 -0.86,-1.079 -2.9,-1.849 -3.99,-1.256 -1.03,0.579 -1.09,2.24 -1.48,4.631 -0.31,1.89 -2.4,5.932 -2.4,5.932"
     id="path472" />
  <path
     style="fill:none;stroke:#231f20;stroke-width:0.565977;stroke-linecap:butt;stroke-linejoin:miter;stroke-miterlimit:4;stroke-dasharray:none;stroke-opacity:1"
     d="m 260.91792,111.729 c -1.45,2.786 -2.06,3.224 -2.77,3.812 -4.46,3.672 -2.58,5.797 0.18,6.636 3.24,1 4.39,1.416 6.74,-4.422 0.66,-1.625 3.98,-7.521 3.98,-7.521 1.48,-1.959 1.88,-4.647 1.18,-5.927 -0.73,-1.349 -0.54,-0.766 -1.44,-1.885 -0.86,-1.079 -2.9,-1.849 -3.99,-1.256 -1.03,0.579 -1.09,2.24 -1.48,4.631 -0.31,1.89 -2.4,5.932 -2.4,5.932 z"
     id="path473" />
  <path
     style="fill:#231f20;fill-opacity:1;fill-rule:nonzero;stroke:none"
     d="m 250.95192,135.291 c -1.832,-1.333 -2.37,-1.344 -2.979,-0.604 -0.411,0.49 -0.959,0.802 -1.219,1.088 -0.88,0.948 -1.964,2.927 -3.573,9.308 -0.359,1.448 -0.891,3.474 -1.172,4.286 -0.437,1.281 1.991,1.157 2.172,0.652 0.573,-1.62 1.104,-2.678 1.391,-3.23 0.198,-0.38 0.453,-1.093 1.412,-2.464 1.442,-2.073 2.614,-3.098 3.614,-4.962 0.474,-0.866 1.37,-1.22 1.386,-2.303 0.036,-1.088 -1.032,-1.771 -1.032,-1.771"
     id="path474" />
  <path
     style="fill:none;stroke:#231f20;stroke-width:0.565977;stroke-linecap:butt;stroke-linejoin:miter;stroke-miterlimit:4;stroke-dasharray:none;stroke-opacity:1"
     d="m 250.95192,135.291 c -1.832,-1.333 -2.37,-1.344 -2.979,-0.604 -0.411,0.49 -0.959,0.802 -1.219,1.088 -0.88,0.948 -1.964,2.927 -3.573,9.308 -0.359,1.448 -0.891,3.474 -1.172,4.286 -0.437,1.281 1.991,1.157 2.172,0.652 0.573,-1.62 1.104,-2.678 1.391,-3.23 0.198,-0.38 0.453,-1.093 1.412,-2.464 1.442,-2.073 2.614,-3.098 3.614,-4.962 0.474,-0.866 1.37,-1.22 1.386,-2.303 0.036,-1.088 -1.032,-1.771 -1.032,-1.771 z"
     id="path475" />
  <path
     style="fill:#231f20;fill-opacity:1;fill-rule:nonzero;stroke:#231f20;stroke-width:0.565977;stroke-linecap:round;stroke-linejoin:round;stroke-miterlimit:4;stroke-dasharray:none;stroke-opacity:1"
     d="m 251.23292,137.775 c 1.407,-0.229 1.975,-2.301 2.199,-2.557 3.306,-3.776 3.446,-4.125 5.746,-7.172 3.35,-4.405 4.96,-7.937 2.97,-10.624 -1.36,-1.829 -2.93,-2.292 -4.2,-1.953 -1.41,0.374 -3.76,2.52 -3.26,5.364 l -0.63,1.589 c -0.564,1.02 -0.84,1.525 -1.148,2.004 -0.562,0.833 -1.098,1.767 -2.093,3.453 -1.751,2.995 -2.631,6.735 -2.631,6.735 -0.145,0.276 -0.166,0.552 -0.114,0.817"
     id="path476" />
  <path
     style="fill:#63c99d;fill-opacity:1;fill-rule:nonzero;stroke:none"
     d="m 262.28792,117.614 c -1.29,-1.875 -2.84,-2.401 -4.13,-2.115 -1.42,0.323 -3.84,2.38 -3.45,5.24 l 6.18,4.787 c 0.35,-0.511 0.65,-1.005 0.92,-1.491 0.09,-0.098 0.19,-0.186 0.28,-0.249 0.72,-0.489 0.74,-1.161 0.79,-2.355 0.34,-1.4 0.19,-2.672 -0.59,-3.817"
     id="path477" />
  <path
     style="fill:none;stroke:#231f20;stroke-width:0.565977;stroke-linecap:butt;stroke-linejoin:miter;stroke-miterlimit:4;stroke-dasharray:none;stroke-opacity:1"
     d="m 262.28792,117.614 c -1.29,-1.875 -2.84,-2.401 -4.13,-2.115 -1.42,0.323 -3.84,2.38 -3.45,5.24 l 6.18,4.787 c 0.35,-0.511 0.65,-1.005 0.92,-1.491 0.09,-0.098 0.19,-0.186 0.28,-0.249 0.72,-0.489 0.74,-1.161 0.79,-2.355 0.34,-1.4 0.19,-2.672 -0.59,-3.817 z"
     id="path478" />
  <path
     style="fill:#ffffff;fill-opacity:1;fill-rule:nonzero;stroke:none"
     d="m 0.33292813,108.974 c 0,0.681 0.558,1.239 1.23899997,1.239 H 347.68792 c 0.69,0 1.24,-0.558 1.24,-1.239 0,-0.688 -0.55,-1.24 -1.24,-1.24 H 1.5719281 c -0.68099997,0 -1.23899997,0.552 -1.23899997,1.24"
     id="path479" />
  <path
     style="fill:none;stroke:#231f20;stroke-width:0.665856;stroke-linecap:butt;stroke-linejoin:miter;stroke-miterlimit:4;stroke-dasharray:none;stroke-opacity:1"
     d="m 0.33292813,108.974 c 0,0.681 0.558,1.239 1.23899997,1.239 H 347.68792 c 0.69,0 1.24,-0.558 1.24,-1.239 0,-0.688 -0.55,-1.24 -1.24,-1.24 H 1.5719281 c -0.68099997,0 -1.23899997,0.552 -1.23899997,1.24 z"
     id="path480" />
  <path
     style="fill:#231f20;fill-opacity:1;fill-rule:nonzero;stroke:none"
     d="m 150.38492,71.74 c 1.328,-0.271 1.859,0.562 1.713,1.588 -0.041,0.313 0.244,0.614 0.178,0.912 -0.156,0.686 -1.658,1.572 -2.714,0.505 -0.073,-0.079 -0.797,-0.459 -1.297,-0.828 -0.969,-0.729 -2.568,-2.652 -2.287,-5.333 0.131,-1.267 0.855,-0.959 0.964,-0.428 0.323,1.682 0.676,1.761 0.927,2.172 0.833,1.396 2.516,1.412 2.516,1.412"
     id="path481" />
  <path
     style="fill:none;stroke:#231f20;stroke-width:0.332927;stroke-linecap:butt;stroke-linejoin:miter;stroke-miterlimit:4;stroke-dasharray:none;stroke-opacity:1"
     d="m 150.38492,71.74 c 1.328,-0.271 1.859,0.562 1.713,1.588 -0.041,0.313 0.244,0.614 0.178,0.912 -0.156,0.686 -1.658,1.572 -2.714,0.505 -0.073,-0.079 -0.797,-0.459 -1.297,-0.828 -0.969,-0.729 -2.568,-2.652 -2.287,-5.333 0.131,-1.267 0.855,-0.959 0.964,-0.428 0.323,1.682 0.676,1.761 0.927,2.172 0.833,1.396 2.516,1.412 2.516,1.412 z"
     id="path482" />
  <path
     style="fill:#63c99d;fill-opacity:1;fill-rule:nonzero;stroke:none"
     d="m 185.65592,98.141 c -2.818,-1.376 -3.271,-1.98 -3.875,-2.683 -3.781,-4.374 -5.86,-2.437 -6.636,0.339 -0.921,3.265 -1.312,4.421 4.579,6.64 1.645,0.614 7.618,3.797 7.618,3.797 1.991,1.432 4.688,1.765 5.954,1.047 1.333,-0.766 0.75,-0.558 1.849,-1.49 1.057,-0.885 1.787,-2.948 1.161,-4.016 -0.598,-1.025 -2.26,-1.041 -4.661,-1.374 -1.896,-0.265 -5.989,-2.26 -5.989,-2.26"
     id="path483" />
  <path
     style="fill:none;stroke:#231f20;stroke-width:0.565977;stroke-linecap:butt;stroke-linejoin:miter;stroke-miterlimit:4;stroke-dasharray:none;stroke-opacity:1"
     d="m 185.65592,98.141 c -2.818,-1.376 -3.271,-1.98 -3.875,-2.683 -3.781,-4.374 -5.86,-2.437 -6.636,0.339 -0.921,3.265 -1.312,4.421 4.579,6.64 1.645,0.614 7.618,3.797 7.618,3.797 1.991,1.432 4.688,1.765 5.954,1.047 1.333,-0.766 0.75,-0.558 1.849,-1.49 1.057,-0.885 1.787,-2.948 1.161,-4.016 -0.598,-1.025 -2.26,-1.041 -4.661,-1.374 -1.896,-0.265 -5.989,-2.26 -5.989,-2.26 z"
     id="path484" />
  <path
     style="fill:#ffffff;fill-opacity:1;fill-rule:nonzero;stroke:none"
     d="m 204.10392,106.583 c 0.229,-0.089 0.91,0.843 1.353,0.562 0.448,-0.276 0.209,-1.036 1.281,-2.708 l 0.011,-0.015 c 0.823,-1.199 1.057,-2.573 0.48,-3.688 -0.959,-1.838 -3.767,-2.276 -6.272,-0.978 -2.509,1.306 -3.76,3.853 -2.807,5.697 0.916,1.765 3.536,2.24 5.954,1.13"
     id="path485" />
  <path
     style="fill:none;stroke:#231f20;stroke-width:0.565977;stroke-linecap:butt;stroke-linejoin:miter;stroke-miterlimit:4;stroke-dasharray:none;stroke-opacity:1"
     d="m 204.10392,106.583 c 0.229,-0.089 0.91,0.843 1.353,0.562 0.448,-0.276 0.209,-1.036 1.281,-2.708 l 0.011,-0.015 c 0.823,-1.199 1.057,-2.573 0.48,-3.688 -0.959,-1.838 -3.767,-2.276 -6.272,-0.978 -2.509,1.306 -3.76,3.853 -2.807,5.697 0.916,1.765 3.536,2.24 5.954,1.13 z"
     id="path486" />
  <path
     style="fill:#231f20;fill-opacity:1;fill-rule:nonzero;stroke:none"
     d="m 163.94192,85.344 c 1.676,-1.522 1.796,-2.042 1.198,-2.792 -0.396,-0.506 -0.588,-1.099 -0.812,-1.411 -0.756,-1.057 -2.47,-2.521 -8.386,-5.401 -1.338,-0.651 -3.218,-1.584 -3.953,-2.032 -1.167,-0.687 -1.536,1.718 -1.079,1.994 1.464,0.896 2.391,1.631 2.876,2.027 0.328,0.271 0.979,0.667 2.119,1.88 1.74,1.839 2.5,3.199 4.12,4.557 0.751,0.642 0.917,1.59 1.969,1.828 1.058,0.256 1.948,-0.65 1.948,-0.65"
     id="path487" />
  <path
     style="fill:none;stroke:#231f20;stroke-width:0.565977;stroke-linecap:butt;stroke-linejoin:miter;stroke-miterlimit:4;stroke-dasharray:none;stroke-opacity:1"
     d="m 163.94192,85.344 c 1.676,-1.522 1.796,-2.042 1.198,-2.792 -0.396,-0.506 -0.588,-1.099 -0.812,-1.411 -0.756,-1.057 -2.47,-2.521 -8.386,-5.401 -1.338,-0.651 -3.218,-1.584 -3.953,-2.032 -1.167,-0.687 -1.536,1.718 -1.079,1.994 1.464,0.896 2.391,1.631 2.876,2.027 0.328,0.271 0.979,0.667 2.119,1.88 1.74,1.839 2.5,3.199 4.12,4.557 0.751,0.642 0.917,1.59 1.969,1.828 1.058,0.256 1.948,-0.65 1.948,-0.65 z"
     id="path488" />
  <path
     style="fill:#231f20;fill-opacity:1;fill-rule:nonzero;stroke:#231f20;stroke-width:0.565977;stroke-linecap:round;stroke-linejoin:round;stroke-miterlimit:4;stroke-dasharray:none;stroke-opacity:1"
     d="m 161.44792,85.114 c -0.063,1.418 1.853,2.402 2.057,2.672 3.015,4.011 3.337,4.219 5.843,7.099 3.63,4.172 6.756,6.469 9.797,5.068 2.068,-0.953 2.844,-2.396 2.776,-3.708 -0.083,-1.453 -1.703,-4.193 -4.593,-4.281 l -1.428,-0.948 c -0.88,-0.762 -1.318,-1.131 -1.724,-1.538 -0.703,-0.713 -1.504,-1.437 -2.952,-2.749 -2.574,-2.328 -6.058,-3.953 -6.058,-3.953 -0.234,-0.203 -0.505,-0.276 -0.776,-0.282"
     id="path489" />
  <path
     style="fill:#63c99d;fill-opacity:1;fill-rule:nonzero;stroke:none"
     d="m 177.41592,92.005 -5.948,5.068 c 0.432,0.448 0.854,0.839 1.276,1.203 0.073,0.109 0.141,0.218 0.182,0.322 0.328,0.814 0.984,0.964 2.146,1.262 1.297,0.614 2.573,0.727 3.86,0.197 2.093,-0.88 2.926,-2.287 2.906,-3.604 -0.026,-1.464 -1.542,-4.255 -4.422,-4.448"
     id="path490" />
  <path
     style="fill:none;stroke:#231f20;stroke-width:0.565977;stroke-linecap:butt;stroke-linejoin:miter;stroke-miterlimit:4;stroke-dasharray:none;stroke-opacity:1"
     d="m 177.41592,92.005 -5.948,5.068 c 0.432,0.448 0.854,0.839 1.276,1.203 0.073,0.109 0.141,0.218 0.182,0.322 0.328,0.814 0.984,0.964 2.146,1.262 1.297,0.614 2.573,0.727 3.86,0.197 2.093,-0.88 2.926,-2.287 2.906,-3.604 -0.026,-1.464 -1.542,-4.255 -4.422,-4.448 z"
     id="path491" />
  <path
     style="fill:#ffffff;fill-opacity:1;fill-rule:nonzero;stroke:none"
     d="m 274.08792,98.604 c 0.14,-0.203 1.23,0.188 1.44,-0.287 0.22,-0.484 -0.4,-0.979 -0.44,-2.963 l -0.01,-0.021 c 0.03,-1.453 -0.55,-2.724 -1.64,-3.328 -1.83,-1 -4.4,0.203 -5.76,2.677 -1.36,2.479 -0.98,5.296 0.84,6.292 1.74,0.957 4.18,-0.105 5.57,-2.37"
     id="path492" />
  <path
     style="fill:none;stroke:#231f20;stroke-width:0.565977;stroke-linecap:butt;stroke-linejoin:miter;stroke-miterlimit:4;stroke-dasharray:none;stroke-opacity:1"
     d="m 274.08792,98.604 c 0.14,-0.203 1.23,0.188 1.44,-0.287 0.22,-0.484 -0.4,-0.979 -0.44,-2.963 l -0.01,-0.021 c 0.03,-1.453 -0.55,-2.724 -1.64,-3.328 -1.83,-1 -4.4,0.203 -5.76,2.677 -1.36,2.479 -0.98,5.296 0.84,6.292 1.74,0.957 4.18,-0.105 5.57,-2.37 z"
     id="path493" />
  <path
     style="fill:#231f20;fill-opacity:1;fill-rule:nonzero;stroke:none"
     d="m 285.17792,108.729 c -0.52,0.364 -2.46,0.156 -4,0.609 -1.04,0.307 -3.76,-0.068 -4.78,0.317 -0.93,0.35 -1.39,0.423 -1.97,-0.566 -0.35,-0.59 -0.62,-1.948 -0.2,-2.224 1,-0.652 1.93,-0.819 3,-0.776 1.21,0.041 4.5,0.452 5.1,0.582 1.48,0.334 2.15,0.016 2.55,0.063 0.76,0.093 0.9,0.411 0.95,0.911 0.09,0.953 -0.65,1.084 -0.65,1.084"
     id="path494" />
  <path
     style="fill:none;stroke:#231f20;stroke-width:0.565977;stroke-linecap:butt;stroke-linejoin:miter;stroke-miterlimit:4;stroke-dasharray:none;stroke-opacity:1"
     d="m 285.17792,108.729 c -0.52,0.364 -2.46,0.156 -4,0.609 -1.04,0.307 -3.76,-0.068 -4.78,0.317 -0.93,0.35 -1.39,0.423 -1.97,-0.566 -0.35,-0.59 -0.62,-1.948 -0.2,-2.224 1,-0.652 1.93,-0.819 3,-0.776 1.21,0.041 4.5,0.452 5.1,0.582 1.48,0.334 2.15,0.016 2.55,0.063 0.76,0.093 0.9,0.411 0.95,0.911 0.09,0.953 -0.65,1.084 -0.65,1.084 z"
     id="path495" />
  <path
     style="fill:#231f20;fill-opacity:1;fill-rule:nonzero;stroke:none"
     d="m 275.83792,109.25 c -0.55,1.167 -2.2,-0.032 -2.68,-0.276 -0.49,-0.251 -1.94,-0.803 -3.13,-1.089 -1.19,-0.282 -2.56,-1.151 -4.82,-1.698 -1.19,-0.281 -2.16,-1.313 -1.67,-3.021 0.49,-1.688 1.62,-2.052 3,-1.484 1.39,0.563 2.45,1.677 3.8,2.344 1.36,0.667 2.81,1.219 3.97,1.599 1.31,0.432 1.8,1.13 1.84,1.604 0.1,1.197 -0.31,2.021 -0.31,2.021"
     id="path496" />
  <path
     style="fill:none;stroke:#231f20;stroke-width:0.565977;stroke-linecap:butt;stroke-linejoin:miter;stroke-miterlimit:4;stroke-dasharray:none;stroke-opacity:1"
     d="m 275.83792,109.25 c -0.55,1.167 -2.2,-0.032 -2.68,-0.276 -0.49,-0.251 -1.94,-0.803 -3.13,-1.089 -1.19,-0.282 -2.56,-1.151 -4.82,-1.698 -1.19,-0.281 -2.16,-1.313 -1.67,-3.021 0.49,-1.688 1.62,-2.052 3,-1.484 1.39,0.563 2.45,1.677 3.8,2.344 1.36,0.667 2.81,1.219 3.97,1.599 1.31,0.432 1.8,1.13 1.84,1.604 0.1,1.197 -0.31,2.021 -0.31,2.021 z"
     id="path497" />
  <path
     style="fill:#231f20;fill-opacity:1;fill-rule:nonzero;stroke:none"
     d="m 208.32192,109.531 c -0.37,0.526 -2.26,1.004 -3.546,1.963 -0.871,0.647 -3.552,1.245 -4.371,1.953 -0.749,0.651 -1.156,0.88 -2.047,0.156 -0.53,-0.437 -1.265,-1.614 -0.958,-2.02 0.709,-0.953 1.526,-1.433 2.542,-1.772 1.151,-0.374 4.375,-1.129 4.984,-1.218 1.506,-0.203 2.022,-0.734 2.416,-0.828 0.74,-0.172 0.991,0.073 1.21,0.526 0.41,0.864 -0.23,1.24 -0.23,1.24"
     id="path498" />
  <path
     style="fill:none;stroke:#231f20;stroke-width:0.565977;stroke-linecap:butt;stroke-linejoin:miter;stroke-miterlimit:4;stroke-dasharray:none;stroke-opacity:1"
     d="m 208.32192,109.531 c -0.37,0.526 -2.26,1.004 -3.546,1.963 -0.871,0.647 -3.552,1.245 -4.371,1.953 -0.749,0.651 -1.156,0.88 -2.047,0.156 -0.53,-0.437 -1.265,-1.614 -0.958,-2.02 0.709,-0.953 1.526,-1.433 2.542,-1.772 1.151,-0.374 4.375,-1.129 4.984,-1.218 1.506,-0.203 2.022,-0.734 2.416,-0.828 0.74,-0.172 0.991,0.073 1.21,0.526 0.41,0.864 -0.23,1.24 -0.23,1.24 z"
     id="path499" />
  <path
     style="fill:#231f20;fill-opacity:1;fill-rule:nonzero;stroke:none"
     d="m 199.48392,113.587 c -1.042,0.782 -1.948,-1.046 -2.251,-1.484 -0.317,-0.448 -1.348,-1.614 -2.271,-2.416 -0.921,-0.808 -1.729,-2.209 -3.478,-3.74 -0.922,-0.806 -1.303,-2.172 -0.079,-3.453 1.213,-1.276 2.385,-1.068 3.349,0.079 0.97,1.134 1.391,2.62 2.282,3.838 0.89,1.224 1.916,2.386 2.765,3.255 0.959,0.995 1.073,1.839 0.885,2.281 -0.468,1.104 -1.202,1.64 -1.202,1.64"
     id="path500" />
  <path
     style="fill:none;stroke:#231f20;stroke-width:0.565977;stroke-linecap:butt;stroke-linejoin:miter;stroke-miterlimit:4;stroke-dasharray:none;stroke-opacity:1"
     d="m 199.48392,113.587 c -1.042,0.782 -1.948,-1.046 -2.251,-1.484 -0.317,-0.448 -1.348,-1.614 -2.271,-2.416 -0.921,-0.808 -1.729,-2.209 -3.478,-3.74 -0.922,-0.806 -1.303,-2.172 -0.079,-3.453 1.213,-1.276 2.385,-1.068 3.349,0.079 0.97,1.134 1.391,2.62 2.282,3.838 0.89,1.224 1.916,2.386 2.765,3.255 0.959,0.995 1.073,1.839 0.885,2.281 -0.468,1.104 -1.202,1.64 -1.202,1.64 z"
     id="path501" />
  <path
     style="fill:#231f20;fill-opacity:1;fill-rule:nonzero;stroke:none"
     d="m 68.956928,52.089 c 1.324,-0.297 1.871,0.531 1.74,1.561 -0.036,0.308 0.255,0.61 0.199,0.907 -0.147,0.693 -1.636,1.599 -2.709,0.552 -0.078,-0.077 -0.807,-0.448 -1.312,-0.807 -0.979,-0.714 -2.61,-2.604 -2.38,-5.292 0.109,-1.276 0.838,-0.974 0.958,-0.448 0.348,1.678 0.708,1.755 0.968,2.162 0.85,1.38 2.536,1.365 2.536,1.365"
     id="path502" />
  <path
     style="fill:none;stroke:#231f20;stroke-width:0.332927;stroke-linecap:butt;stroke-linejoin:miter;stroke-miterlimit:4;stroke-dasharray:none;stroke-opacity:1"
     d="m 68.956928,52.089 c 1.324,-0.297 1.871,0.531 1.74,1.561 -0.036,0.308 0.255,0.61 0.199,0.907 -0.147,0.693 -1.636,1.599 -2.709,0.552 -0.078,-0.077 -0.807,-0.448 -1.312,-0.807 -0.979,-0.714 -2.61,-2.604 -2.38,-5.292 0.109,-1.276 0.838,-0.974 0.958,-0.448 0.348,1.678 0.708,1.755 0.968,2.162 0.85,1.38 2.536,1.365 2.536,1.365 z"
     id="path503" />
  <path
     style="fill:#63c99d;fill-opacity:1;fill-rule:nonzero;stroke:none"
     d="m 104.01492,79.666 c -2.458,-1.937 -2.776,-2.625 -3.219,-3.432 -2.775996,-5.073 -5.212996,-3.614 -6.551992,-1.068 -1.588,2.995 -2.213,4.042 3.072996,7.454 1.474,0.948 6.645996,5.317 6.645996,5.317 1.641,1.819 4.209,2.713 5.6,2.276 1.462,-0.468 0.848,-0.391 2.118,-1.063 1.219,-0.65 2.366,-2.509 1.98,-3.686 -0.37,-1.131 -1.994,-1.495 -4.265,-2.323 -1.803,-0.663 -5.381,-3.475 -5.381,-3.475"
     id="path504" />
  <path
     style="fill:none;stroke:#231f20;stroke-width:0.565977;stroke-linecap:butt;stroke-linejoin:miter;stroke-miterlimit:4;stroke-dasharray:none;stroke-opacity:1"
     d="m 104.01492,79.666 c -2.458,-1.937 -2.776,-2.625 -3.219,-3.432 -2.775996,-5.073 -5.212996,-3.614 -6.551992,-1.068 -1.588,2.995 -2.213,4.042 3.072996,7.454 1.474,0.948 6.645996,5.317 6.645996,5.317 1.641,1.819 4.209,2.713 5.6,2.276 1.462,-0.468 0.848,-0.391 2.118,-1.063 1.219,-0.65 2.366,-2.509 1.98,-3.686 -0.37,-1.131 -1.994,-1.495 -4.265,-2.323 -1.803,-0.663 -5.381,-3.475 -5.381,-3.475 z"
     id="path505" />
  <path
     style="fill:#ffffff;fill-opacity:1;fill-rule:nonzero;stroke:none"
     d="m 117.58292,93.984 c 0.24,0.068 0.224,1.218 0.745,1.266 0.525,0.047 0.792,-0.704 2.65,-1.39 l 0.022,-0.011 c 1.38,-0.459 2.39,-1.412 2.598,-2.651 0.344,-2.053 -1.636,-4.089 -4.411,-4.557 -2.796,-0.475 -5.328,0.812 -5.672,2.859 -0.334,1.958 1.469,3.917 4.068,4.484"
     id="path506" />
  <path
     style="fill:none;stroke:#231f20;stroke-width:0.565977;stroke-linecap:butt;stroke-linejoin:miter;stroke-miterlimit:4;stroke-dasharray:none;stroke-opacity:1"
     d="m 117.58292,93.984 c 0.24,0.068 0.224,1.218 0.745,1.266 0.525,0.047 0.792,-0.704 2.65,-1.39 l 0.022,-0.011 c 1.38,-0.459 2.39,-1.412 2.598,-2.651 0.344,-2.053 -1.636,-4.089 -4.411,-4.557 -2.796,-0.475 -5.328,0.812 -5.672,2.859 -0.334,1.958 1.469,3.917 4.068,4.484 z"
     id="path507" />
  <path
     style="fill:#231f20;fill-opacity:1;fill-rule:nonzero;stroke:none"
     d="m 82.743928,65.458 c 1.652,-1.546 1.765,-2.073 1.152,-2.808 -0.401,-0.5 -0.611,-1.093 -0.839,-1.405 -0.766,-1.043 -2.505,-2.475 -8.474,-5.256 -1.35,-0.624 -3.244,-1.525 -3.99,-1.953 -1.177,-0.671 -1.505,1.74 -1.041,2.01 1.479,0.866 2.416,1.584 2.905,1.975 0.339,0.265 0.996,0.645 2.158,1.844 1.765,1.807 2.552,3.151 4.197,4.484 0.76,0.629 0.943,1.572 2,1.796 1.063,0.235 1.932,-0.687 1.932,-0.687"
     id="path508" />
  <path
     style="fill:none;stroke:#231f20;stroke-width:0.565977;stroke-linecap:butt;stroke-linejoin:miter;stroke-miterlimit:4;stroke-dasharray:none;stroke-opacity:1"
     d="m 82.743928,65.458 c 1.652,-1.546 1.765,-2.073 1.152,-2.808 -0.401,-0.5 -0.611,-1.093 -0.839,-1.405 -0.766,-1.043 -2.505,-2.475 -8.474,-5.256 -1.35,-0.624 -3.244,-1.525 -3.99,-1.953 -1.177,-0.671 -1.505,1.74 -1.041,2.01 1.479,0.866 2.416,1.584 2.905,1.975 0.339,0.265 0.996,0.645 2.158,1.844 1.765,1.807 2.552,3.151 4.197,4.484 0.76,0.629 0.943,1.572 2,1.796 1.063,0.235 1.932,-0.687 1.932,-0.687 z"
     id="path509" />
  <path
     style="fill:#231f20;fill-opacity:1;fill-rule:nonzero;stroke:#231f20;stroke-width:0.565977;stroke-linecap:round;stroke-linejoin:round;stroke-miterlimit:4;stroke-dasharray:none;stroke-opacity:1"
     d="m 80.248928,65.27 c -0.041,1.418 1.896,2.371 2.104,2.642 3.084,3.953 3.407,4.156 5.964,6.994 3.698,4.11 6.863996,6.348 9.885996,4.902 2.045996,-0.991 2.796996,-2.443 2.701996,-3.762 -0.109,-1.453 -1.769996,-4.161 -4.660996,-4.197 l -1.443,-0.928 c -0.895996,-0.739 -1.337996,-1.104 -1.748996,-1.504 -0.713,-0.704 -1.527,-1.407 -3,-2.699 -2.615,-2.281 -6.125,-3.849 -6.125,-3.849 -0.24,-0.197 -0.511,-0.265 -0.782,-0.265"
     id="path510" />
  <path
     style="fill:#63c99d;fill-opacity:1;fill-rule:nonzero;stroke:none"
     d="m 96.332924,71.885 -5.859996,5.167 c 0.438,0.437 0.866,0.822 1.292,1.182 0.078,0.11 0.146,0.219 0.192,0.323 0.339,0.803 1,0.943 2.163,1.219 1.311996,0.593 2.587996,0.693 3.863996,0.13 2.078996,-0.906 2.884996,-2.333 2.843996,-3.652 -0.047,-1.457 -1.608996,-4.228 -4.494996,-4.369"
     id="path511" />
  <path
     style="fill:none;stroke:#231f20;stroke-width:0.565977;stroke-linecap:butt;stroke-linejoin:miter;stroke-miterlimit:4;stroke-dasharray:none;stroke-opacity:1"
     d="m 96.332924,71.885 -5.859996,5.167 c 0.438,0.437 0.866,0.822 1.292,1.182 0.078,0.11 0.146,0.219 0.192,0.323 0.339,0.803 1,0.943 2.163,1.219 1.311996,0.593 2.587996,0.693 3.863996,0.13 2.078996,-0.906 2.884996,-2.333 2.843996,-3.652 -0.047,-1.457 -1.608996,-4.228 -4.494996,-4.369 z"
     id="path512" />
  <path
     style="fill:#231f20;fill-opacity:1;fill-rule:nonzero;stroke:none"
     d="m 110.23292,107.155 c -0.385,-0.514 -0.244,-2.457 -0.749,-3.984 -0.344,-1.03 -0.073,-3.759 -0.489,-4.759 -0.386,-0.923 -0.475,-1.38 0.5,-1.995 0.572,-0.365 1.921,-0.693 2.213,-0.276 0.683,0.973 0.885,1.9 0.885,2.963 0,1.218 -0.297,4.515 -0.406,5.119 -0.282,1.495 0.062,2.151 0.032,2.552 -0.068,0.76 -0.376,0.923 -0.876,0.984 -0.952,0.12 -1.11,-0.604 -1.11,-0.604"
     id="path513" />
  <path
     style="fill:none;stroke:#231f20;stroke-width:0.565977;stroke-linecap:butt;stroke-linejoin:miter;stroke-miterlimit:4;stroke-dasharray:none;stroke-opacity:1"
     d="m 110.23292,107.155 c -0.385,-0.514 -0.244,-2.457 -0.749,-3.984 -0.344,-1.03 -0.073,-3.759 -0.489,-4.759 -0.386,-0.923 -0.475,-1.38 0.5,-1.995 0.572,-0.365 1.921,-0.693 2.213,-0.276 0.683,0.973 0.885,1.9 0.885,2.963 0,1.218 -0.297,4.515 -0.406,5.119 -0.282,1.495 0.062,2.151 0.032,2.552 -0.068,0.76 -0.376,0.923 -0.876,0.984 -0.952,0.12 -1.11,-0.604 -1.11,-0.604 z"
     id="path514" />
  <path
     style="fill:#231f20;fill-opacity:1;fill-rule:nonzero;stroke:none"
     d="m 109.59892,98.12 c -1.298,-0.052 -0.844,-2.042 -0.803,-2.579 0.037,-0.547 -0.025,-2.099 -0.233,-3.301 -0.204,-1.214 0.052,-2.808 -0.334,-5.099 -0.209,-1.204 0.359,-2.505 2.119,-2.729 1.745,-0.219 2.521,0.681 2.548,2.176 0.031,1.496 -0.579,2.917 -0.657,4.422 -0.083,1.511 -0.02,3.058 0.089,4.266 0.115,1.374 -0.333,2.104 -0.756,2.322 -1.057,0.568 -1.973,0.522 -1.973,0.522"
     id="path515" />
  <path
     style="fill:none;stroke:#231f20;stroke-width:0.565977;stroke-linecap:butt;stroke-linejoin:miter;stroke-miterlimit:4;stroke-dasharray:none;stroke-opacity:1"
     d="m 109.59892,98.12 c -1.298,-0.052 -0.844,-2.042 -0.803,-2.579 0.037,-0.547 -0.025,-2.099 -0.233,-3.301 -0.204,-1.214 0.052,-2.808 -0.334,-5.099 -0.209,-1.204 0.359,-2.505 2.119,-2.729 1.745,-0.219 2.521,0.681 2.548,2.176 0.031,1.496 -0.579,2.917 -0.657,4.422 -0.083,1.511 -0.02,3.058 0.089,4.266 0.115,1.374 -0.333,2.104 -0.756,2.322 -1.057,0.568 -1.973,0.522 -1.973,0.522 z"
     id="path516" />
  <path
     style="fill:#231f20;fill-opacity:1;fill-rule:nonzero;stroke:none"
     d="m 286.59792,105.417 c 1.17,0.134 2.01,1.192 1.88,2.364 -0.14,1.166 -1.19,2.01 -2.36,1.88 -1.17,-0.135 -2.01,-1.187 -1.88,-2.364 0.13,-1.167 1.19,-2.011 2.36,-1.88"
     id="path517" />
  <path
     style="fill:#231f20;fill-opacity:1;fill-rule:nonzero;stroke:none"
     d="m 208.49992,105.937 c 1.14,-0.282 2.296,0.417 2.582,1.562 0.276,1.146 -0.421,2.303 -1.562,2.584 -1.146,0.282 -2.302,-0.417 -2.583,-1.562 -0.281,-1.142 0.421,-2.298 1.563,-2.584"
     id="path518" />
  <path
     style="fill:#231f20;fill-opacity:1;fill-rule:nonzero;stroke:none"
     d="m 113.58792,108.447 c -0.088,1.178 -1.115,2.052 -2.287,1.964 -1.177,-0.094 -2.057,-1.114 -1.962,-2.292 0.088,-1.172 1.114,-2.052 2.29,-1.964 1.172,0.09 2.052,1.115 1.959,2.292"
     id="path519" />
</svg>
