<?xml version="1.0" encoding="UTF-8" standalone="no"?>
<!-- Created with Inkscape (http://www.inkscape.org/) -->

<svg
   version="1.1"
   id="svg1"
   width="341.25775"
   height="74.260292"
   viewBox="0 0 341.25774 74.260292"
   sodipodi:docname="cell.svg"
   xmlns:inkscape="http://www.inkscape.org/namespaces/inkscape"
   xmlns:sodipodi="http://sodipodi.sourceforge.net/DTD/sodipodi-0.dtd"
   xmlns="http://www.w3.org/2000/svg"
   xmlns:svg="http://www.w3.org/2000/svg">
  <sodipodi:namedview
     id="namedview1"
     pagecolor="#ffffff"
     bordercolor="#000000"
     borderopacity="0.25"
     inkscape:showpageshadow="2"
     inkscape:pageopacity="0.0"
     inkscape:pagecheckerboard="0"
     inkscape:deskcolor="#d1d1d1">
    <inkscape:page
       x="0"
       y="0"
       inkscape:label="1"
       id="page1"
       width="341.25775"
       height="74.260292"
       margin="0"
       bleed="0" />
  </sodipodi:namedview>
  <defs
     id="defs1" />
  <path
     style="fill:#231f20;fill-opacity:1;fill-rule:nonzero;stroke:none"
     d="m 255.55583,16.624681 c -0.27,1.328 -1.249,1.484 -2.14,0.943 -0.266,-0.156 -0.662,-0.016 -0.906,-0.192 -0.568,-0.418 -0.782,-2.147 0.614,-2.694 0.099,-0.041 0.735,-0.552 1.276,-0.864 1.047,-0.605 3.443,-1.313 5.798,0.004 1.113,0.626 0.541,1.163 0.009,1.054 -1.672,-0.366 -1.88,-0.068 -2.359,-0.006 -1.609,0.214 -2.292,1.755 -2.292,1.755"
     id="path4" />
  <path
     style="fill:none;stroke:#231f20;stroke-width:0.332927;stroke-linecap:butt;stroke-linejoin:miter;stroke-miterlimit:4;stroke-dasharray:none;stroke-opacity:1"
     d="m 255.55583,16.624681 c -0.27,1.328 -1.249,1.484 -2.14,0.943 -0.266,-0.156 -0.662,-0.016 -0.906,-0.192 -0.568,-0.418 -0.782,-2.147 0.614,-2.694 0.099,-0.041 0.735,-0.552 1.276,-0.864 1.047,-0.605 3.443,-1.313 5.798,0.004 1.113,0.626 0.541,1.163 0.009,1.054 -1.672,-0.366 -1.88,-0.068 -2.359,-0.006 -1.609,0.214 -2.292,1.755 -2.292,1.755 z"
     id="path5" />
  <path
     style="fill:#63c99d;fill-opacity:1;fill-rule:nonzero;stroke:none"
     d="m 215.63483,25.291681 c 1.703,2.636 1.781,3.385 1.937,4.302 0.974,5.692 3.755,5.104 5.848,3.13 2.48,-2.323 3.407,-3.11 -0.489,-8.052 -1.088,-1.37 -4.563,-7.183 -4.563,-7.183 -0.962,-2.255 -3.098,-3.932 -4.561,-3.968 -1.532,-0.032 -0.933,0.093 -2.355,0.323 -1.36,0.213 -3.046,1.598 -3.062,2.838 -0.016,1.188 1.396,2.058 3.281,3.584 1.489,1.208 3.964,5.026 3.964,5.026"
     id="path6" />
  <path
     style="fill:none;stroke:#231f20;stroke-width:0.565977;stroke-linecap:butt;stroke-linejoin:miter;stroke-miterlimit:4;stroke-dasharray:none;stroke-opacity:1"
     d="m 215.63483,25.291681 c 1.703,2.636 1.781,3.385 1.937,4.302 0.974,5.692 3.755,5.104 5.848,3.13 2.48,-2.323 3.407,-3.11 -0.489,-8.052 -1.088,-1.37 -4.563,-7.183 -4.563,-7.183 -0.962,-2.255 -3.098,-3.932 -4.561,-3.968 -1.532,-0.032 -0.933,0.093 -2.355,0.323 -1.36,0.213 -3.046,1.598 -3.062,2.838 -0.016,1.188 1.396,2.058 3.281,3.584 1.489,1.208 3.964,5.026 3.964,5.026 z"
     id="path7" />
  <path
     style="fill:#231f20;fill-opacity:1;fill-rule:nonzero;stroke:none"
     d="m 237.70183,23.697681 c 0.734,2.146 1.162,2.463 2.094,2.208 0.624,-0.166 1.239,-0.109 1.62,-0.188 1.266,-0.27 3.286,-1.27 8.28,-5.566 1.12,-0.975 2.715,-2.334 3.418,-2.834 1.098,-0.797 -0.97,-2.089 -1.407,-1.776 -1.4,0.99 -2.443,1.552 -2.989,1.838 -0.386,0.193 -1,0.636 -2.574,1.209 -2.369,0.864 -3.921,1.031 -5.812,1.979 -0.885,0.442 -1.817,0.218 -2.458,1.089 -0.651,0.875 -0.172,2.041 -0.172,2.041"
     id="path8" />
  <path
     style="fill:none;stroke:#231f20;stroke-width:0.565977;stroke-linecap:butt;stroke-linejoin:miter;stroke-miterlimit:4;stroke-dasharray:none;stroke-opacity:1"
     d="m 237.70183,23.697681 c 0.734,2.146 1.162,2.463 2.094,2.208 0.624,-0.166 1.239,-0.109 1.62,-0.188 1.266,-0.27 3.286,-1.27 8.28,-5.566 1.12,-0.975 2.715,-2.334 3.418,-2.834 1.098,-0.797 -0.97,-2.089 -1.407,-1.776 -1.4,0.99 -2.443,1.552 -2.989,1.838 -0.386,0.193 -1,0.636 -2.574,1.209 -2.369,0.864 -3.921,1.031 -5.812,1.979 -0.885,0.442 -1.817,0.218 -2.458,1.089 -0.651,0.875 -0.172,2.041 -0.172,2.041 z"
     id="path9" />
  <path
     style="fill:#231f20;fill-opacity:1;fill-rule:nonzero;stroke:#231f20;stroke-width:0.565977;stroke-linecap:round;stroke-linejoin:round;stroke-miterlimit:4;stroke-dasharray:none;stroke-opacity:1"
     d="m 238.89983,21.504681 c -1.276,-0.625 -2.937,0.751 -3.27,0.828 -4.871,1.193 -5.194,1.401 -8.823,2.563 -5.272,1.688 -8.615,3.65 -8.527,7 0.052,2.27 1.074,3.552 2.307,4.01 1.371,0.5 4.527,0.099 5.745,-2.521 l 1.438,-0.937 c 1.041,-0.511 1.557,-0.766 2.089,-0.979 0.937,-0.36 1.916,-0.808 3.692,-1.625 3.161,-1.448 6.027,-4 6.027,-4 0.276,-0.135 0.452,-0.359 0.566,-0.604"
     id="path10" />
  <path
     style="fill:#63c99d;fill-opacity:1;fill-rule:nonzero;stroke:#231f20;stroke-width:0.565977;stroke-linecap:butt;stroke-linejoin:miter;stroke-miterlimit:4;stroke-dasharray:none;stroke-opacity:1"
     d="m 223.95783,25.979681 c -3.522,1.333 -5.656,3.03 -5.688,5.677 -0.026,2.271 0.942,3.593 2.161,4.099 1.349,0.546 4.511,0.265 5.833,-2.308 z"
     id="path11" />
  <path
     style="fill:#63c99d;fill-opacity:1;fill-rule:nonzero;stroke:none"
     d="m 169.95283,39.197681 c 0.786,3.031 0.63,3.771 0.494,4.682 -0.854,5.72 1.973,6.026 4.583,4.802 3.068,-1.432 4.198,-1.89 2.042,-7.797 -0.604,-1.645 -2.089,-8.255 -2.089,-8.255 -0.213,-2.437 -1.719,-4.702 -3.093,-5.188 -1.448,-0.509 -0.916,-0.202 -2.333,-0.432 -1.364,-0.218 -3.402,0.574 -3.803,1.746 -0.385,1.12 0.688,2.396 2,4.432 1.037,1.609 2.199,6.01 2.199,6.01"
     id="path12" />
  <path
     style="fill:none;stroke:#231f20;stroke-width:0.565977;stroke-linecap:butt;stroke-linejoin:miter;stroke-miterlimit:4;stroke-dasharray:none;stroke-opacity:1"
     d="m 169.95283,39.197681 c 0.786,3.031 0.63,3.771 0.494,4.682 -0.854,5.72 1.973,6.026 4.583,4.802 3.068,-1.432 4.198,-1.89 2.042,-7.797 -0.604,-1.645 -2.089,-8.255 -2.089,-8.255 -0.213,-2.437 -1.719,-4.702 -3.093,-5.188 -1.448,-0.509 -0.916,-0.202 -2.333,-0.432 -1.364,-0.218 -3.402,0.574 -3.803,1.746 -0.385,1.12 0.688,2.396 2,4.432 1.037,1.609 2.199,6.01 2.199,6.01 z"
     id="path13" />
  <path
     style="fill:#231f20;fill-opacity:1;fill-rule:nonzero;stroke:none"
     d="m 188.37883,57.239681 c -1.609,1.598 -1.708,2.125 -1.072,2.844 0.416,0.489 0.635,1.072 0.875,1.38 0.796,1.021 2.577,2.406 8.614,5.015 1.37,0.594 3.291,1.443 4.042,1.848 1.197,0.636 1.464,-1.781 0.989,-2.041 -1.5,-0.823 -2.464,-1.516 -2.963,-1.891 -0.344,-0.254 -1.005,-0.62 -2.204,-1.786 -1.817,-1.76 -2.634,-3.077 -4.322,-4.364 -0.776,-0.609 -0.979,-1.541 -2.042,-1.74 -1.073,-0.203 -1.917,0.735 -1.917,0.735"
     id="path14" />
  <path
     style="fill:none;stroke:#231f20;stroke-width:0.565977;stroke-linecap:butt;stroke-linejoin:miter;stroke-miterlimit:4;stroke-dasharray:none;stroke-opacity:1"
     d="m 188.37883,57.239681 c -1.609,1.598 -1.708,2.125 -1.072,2.844 0.416,0.489 0.635,1.072 0.875,1.38 0.796,1.021 2.577,2.406 8.614,5.015 1.37,0.594 3.291,1.443 4.042,1.848 1.197,0.636 1.464,-1.781 0.989,-2.041 -1.5,-0.823 -2.464,-1.516 -2.963,-1.891 -0.344,-0.254 -1.005,-0.62 -2.204,-1.786 -1.817,-1.76 -2.634,-3.077 -4.322,-4.364 -0.776,-0.609 -0.979,-1.541 -2.042,-1.74 -1.073,-0.203 -1.917,0.735 -1.917,0.735 z"
     id="path15" />
  <path
     style="fill:#231f20;fill-opacity:1;fill-rule:nonzero;stroke:#231f20;stroke-width:0.565977;stroke-linecap:round;stroke-linejoin:round;stroke-miterlimit:4;stroke-dasharray:none;stroke-opacity:1"
     d="m 190.87883,57.364681 c 0,-1.423 -1.963,-2.319 -2.172,-2.584 -3.192,-3.864 -3.525,-4.057 -6.161,-6.828 -3.807,-4.005 -7.031,-6.161 -10.011,-4.629 -2.02,1.046 -2.728,2.525 -2.604,3.837 0.147,1.448 1.885,4.109 4.776,4.073 l 1.469,0.88 c 0.916,0.719 1.37,1.068 1.792,1.454 0.734,0.688 1.563,1.374 3.072,2.614 2.678,2.208 6.23,3.683 6.23,3.683 0.245,0.187 0.516,0.249 0.792,0.239"
     id="path16" />
  <path
     style="fill:#63c99d;fill-opacity:1;fill-rule:nonzero;stroke:none"
     d="m 179.00983,44.723681 c -0.084,-0.11 -0.151,-0.219 -0.199,-0.323 -0.364,-0.787 -1.025,-0.912 -2.187,-1.151 -1.333,-0.562 -2.614,-0.625 -3.874,-0.032 -2.058,0.97 -2.824,2.418 -2.745,3.73 0.088,1.458 1.734,4.182 4.614,4.25 l 5.713,-5.333 c -0.448,-0.423 -0.885,-0.797 -1.322,-1.141"
     id="path17" />
  <path
     style="fill:none;stroke:#231f20;stroke-width:0.565977;stroke-linecap:butt;stroke-linejoin:miter;stroke-miterlimit:4;stroke-dasharray:none;stroke-opacity:1"
     d="m 179.00983,44.723681 c -0.084,-0.11 -0.151,-0.219 -0.199,-0.323 -0.364,-0.787 -1.025,-0.912 -2.187,-1.151 -1.333,-0.562 -2.614,-0.625 -3.874,-0.032 -2.058,0.97 -2.824,2.418 -2.745,3.73 0.088,1.458 1.734,4.182 4.614,4.25 l 5.713,-5.333 c -0.448,-0.423 -0.885,-0.797 -1.322,-1.141 z"
     id="path18" />
  <path
     style="fill:#231f20;fill-opacity:1;fill-rule:nonzero;stroke:none"
     d="m 202.53083,70.228681 c -1.308,0.333 -1.881,-0.484 -1.787,-1.516 0.031,-0.307 -0.266,-0.604 -0.213,-0.895 0.124,-0.699 1.588,-1.647 2.687,-0.625 0.078,0.068 0.817,0.416 1.333,0.765 0.995,0.688 2.677,2.531 2.527,5.224 -0.079,1.276 -0.819,0.995 -0.943,0.469 -0.401,-1.661 -0.761,-1.729 -1.027,-2.13 -0.896,-1.36 -2.577,-1.292 -2.577,-1.292"
     id="path19" />
  <path
     style="fill:none;stroke:#231f20;stroke-width:0.332927;stroke-linecap:butt;stroke-linejoin:miter;stroke-miterlimit:4;stroke-dasharray:none;stroke-opacity:1"
     d="m 202.53083,70.228681 c -1.308,0.333 -1.881,-0.484 -1.787,-1.516 0.031,-0.307 -0.266,-0.604 -0.213,-0.895 0.124,-0.699 1.588,-1.647 2.687,-0.625 0.078,0.068 0.817,0.416 1.333,0.765 0.995,0.688 2.677,2.531 2.527,5.224 -0.079,1.276 -0.819,0.995 -0.943,0.469 -0.401,-1.661 -0.761,-1.729 -1.027,-2.13 -0.896,-1.36 -2.577,-1.292 -2.577,-1.292 z"
     id="path20" />
  <path
     style="fill:#63c99d;fill-opacity:1;fill-rule:nonzero;stroke:none"
     d="m 123.24983,34.353681 c -2.527,1.859 -3.267,1.984 -4.167,2.192 -5.625,1.334 -4.865,4.068 -2.761,6.038 2.464,2.328 3.313,3.208 7.995,-0.99 1.308,-1.172 6.896,-5 6.896,-5 2.188,-1.1 3.729,-3.338 3.672,-4.797 -0.063,-1.531 -0.151,-0.921 -0.464,-2.323 -0.302,-1.349 -1.791,-2.948 -3.026,-2.885 -1.188,0.057 -1.969,1.525 -3.374,3.5 -1.115,1.557 -4.771,4.265 -4.771,4.265"
     id="path21" />
  <path
     style="fill:none;stroke:#231f20;stroke-width:0.565977;stroke-linecap:butt;stroke-linejoin:miter;stroke-miterlimit:4;stroke-dasharray:none;stroke-opacity:1"
     d="m 123.24983,34.353681 c -2.527,1.859 -3.267,1.984 -4.167,2.192 -5.625,1.334 -4.865,4.068 -2.761,6.038 2.464,2.328 3.313,3.208 7.995,-0.99 1.308,-1.172 6.896,-5 6.896,-5 2.188,-1.1 3.729,-3.338 3.672,-4.797 -0.063,-1.531 -0.151,-0.921 -0.464,-2.323 -0.302,-1.349 -1.791,-2.948 -3.026,-2.885 -1.188,0.057 -1.969,1.525 -3.374,3.5 -1.115,1.557 -4.771,4.265 -4.771,4.265 z"
     id="path22" />
  <path
     style="fill:#ffffff;fill-opacity:1;fill-rule:nonzero;stroke:none"
     d="m 139.46883,23.457681 c 0.052,-0.245 1.202,-0.302 1.218,-0.822 0.01,-0.527 -0.756,-0.746 -1.557,-2.563 l -0.011,-0.016 c -0.546,-1.344 -1.562,-2.301 -2.808,-2.432 -2.066,-0.213 -3.978,1.891 -4.276,4.693 -0.296,2.818 1.147,5.26 3.21,5.484 1.978,0.208 3.817,-1.713 4.224,-4.344"
     id="path23" />
  <path
     style="fill:none;stroke:#231f20;stroke-width:0.565977;stroke-linecap:butt;stroke-linejoin:miter;stroke-miterlimit:4;stroke-dasharray:none;stroke-opacity:1"
     d="m 139.46883,23.457681 c 0.052,-0.245 1.202,-0.302 1.218,-0.822 0.01,-0.527 -0.756,-0.746 -1.557,-2.563 l -0.011,-0.016 c -0.546,-1.344 -1.562,-2.301 -2.808,-2.432 -2.066,-0.213 -3.978,1.891 -4.276,4.693 -0.296,2.818 1.147,5.26 3.21,5.484 1.978,0.208 3.817,-1.713 4.224,-4.344 z"
     id="path24" />
  <path
     style="fill:#231f20;fill-opacity:1;fill-rule:nonzero;stroke:none"
     d="m 102.64483,49.113681 c -0.766,-2.134 -1.198,-2.448 -2.119,-2.177 -0.620002,0.172 -1.245002,0.125 -1.620002,0.209 -1.261,0.296 -3.271,1.323 -8.194,5.687 -1.108,0.989 -2.691,2.371 -3.379,2.88 -1.083,0.813 0.995,2.079 1.426,1.756 1.386,-1.005 2.418,-1.584 2.97,-1.88 0.38,-0.204 0.989,-0.652 2.552,-1.245 2.36,-0.896 3.906,-1.083 5.786002,-2.068 0.875,-0.448 1.807,-0.234 2.438,-1.12 0.636,-0.88 0.14,-2.042 0.14,-2.042"
     id="path25" />
  <path
     style="fill:none;stroke:#231f20;stroke-width:0.565977;stroke-linecap:butt;stroke-linejoin:miter;stroke-miterlimit:4;stroke-dasharray:none;stroke-opacity:1"
     d="m 102.64483,49.113681 c -0.766,-2.134 -1.198,-2.448 -2.119,-2.177 -0.620002,0.172 -1.245002,0.125 -1.620002,0.209 -1.261,0.296 -3.271,1.323 -8.194,5.687 -1.108,0.989 -2.691,2.371 -3.379,2.88 -1.083,0.813 0.995,2.079 1.426,1.756 1.386,-1.005 2.418,-1.584 2.97,-1.88 0.38,-0.204 0.989,-0.652 2.552,-1.245 2.36,-0.896 3.906,-1.083 5.786002,-2.068 0.875,-0.448 1.807,-0.234 2.438,-1.12 0.636,-0.88 0.14,-2.042 0.14,-2.042 z"
     id="path26" />
  <path
     style="fill:#231f20;fill-opacity:1;fill-rule:nonzero;stroke:#231f20;stroke-width:0.565977;stroke-linecap:round;stroke-linejoin:round;stroke-miterlimit:4;stroke-dasharray:none;stroke-opacity:1"
     d="m 101.47783,51.327681 c 1.292,0.6 2.933,-0.796 3.256,-0.88 4.853,-1.26 5.172,-1.474 8.797,-2.687 5.239,-1.761 8.556,-3.771 8.432,-7.115 -0.098,-2.276 -1.136,-3.542 -2.376,-3.985 -1.38,-0.479 -4.525,-0.031 -5.708,2.605 l -1.421,0.958 c -1.041,0.526 -1.547,0.792 -2.079,1.01 -0.932,0.375 -1.905,0.839 -3.672,1.678 -3.134,1.494 -5.968,4.088 -5.968,4.088 -0.276,0.141 -0.448,0.36 -0.552,0.609"
     id="path27" />
  <path
     style="fill:#63c99d;fill-opacity:1;fill-rule:nonzero;stroke:none"
     d="m 121.96883,40.879681 c -0.016,-2.271 -0.995,-3.578 -2.219,-4.062 -1.365,-0.537 -4.527,-0.198 -5.803,2.386 l 2.412,7.432 c 0.572,-0.23 1.099,-0.47 1.594,-0.714 0.13,-0.026 0.265,-0.046 0.38,-0.046 0.865,0.004 1.254,-0.543 1.969,-1.496 1.067,-0.968 1.667,-2.104 1.667,-3.5"
     id="path28" />
  <path
     style="fill:none;stroke:#231f20;stroke-width:0.565977;stroke-linecap:butt;stroke-linejoin:miter;stroke-miterlimit:4;stroke-dasharray:none;stroke-opacity:1"
     d="m 121.96883,40.879681 c -0.016,-2.271 -0.995,-3.578 -2.219,-4.062 -1.365,-0.537 -4.527,-0.198 -5.803,2.386 l 2.412,7.432 c 0.572,-0.23 1.099,-0.47 1.594,-0.714 0.13,-0.026 0.265,-0.046 0.38,-0.046 0.865,0.004 1.254,-0.543 1.969,-1.496 1.067,-0.968 1.667,-2.104 1.667,-3.5 z"
     id="path29" />
  <path
     style="fill:#231f20;fill-opacity:1;fill-rule:nonzero;stroke:none"
     d="m 84.889828,56.441681 c 0.255,-1.328 1.234,-1.5 2.131,-0.973 0.27,0.151 0.661,0.011 0.905,0.183 0.579,0.405 0.819,2.134 -0.572,2.697 -0.095,0.041 -0.724,0.563 -1.261,0.885 -1.041,0.615 -3.427,1.355 -5.796,0.079 -1.126,-0.609 -0.563,-1.161 -0.032,-1.057 1.677,0.348 1.89,0.046 2.365,-0.027 1.61,-0.235 2.26,-1.787 2.26,-1.787"
     id="path30" />
  <path
     style="fill:none;stroke:#231f20;stroke-width:0.332927;stroke-linecap:butt;stroke-linejoin:miter;stroke-miterlimit:4;stroke-dasharray:none;stroke-opacity:1"
     d="m 84.889828,56.441681 c 0.255,-1.328 1.234,-1.5 2.131,-0.973 0.27,0.151 0.661,0.011 0.905,0.183 0.579,0.405 0.819,2.134 -0.572,2.697 -0.095,0.041 -0.724,0.563 -1.261,0.885 -1.041,0.615 -3.427,1.355 -5.796,0.079 -1.126,-0.609 -0.563,-1.161 -0.032,-1.057 1.677,0.348 1.89,0.046 2.365,-0.027 1.61,-0.235 2.26,-1.787 2.26,-1.787 z"
     id="path31" />
  <path
     style="fill:#63c99d;fill-opacity:1;fill-rule:nonzero;stroke:none"
     d="m 57.311228,28.608681 c -3.1347,0 -3.8066,-0.339 -4.6561,-0.697 -5.3172,-2.266 -6.3333,0.39 -5.801,3.224 0.6093,3.333 0.7702,4.541 7.0306,3.937 1.7454,-0.167 8.5104,0.057 8.5104,0.057 2.4161,0.407 4.9896,-0.478 5.8068,-1.688 0.8547,-1.27 0.4224,-0.833 1,-2.15 0.5573,-1.266 0.3027,-3.432 -0.7281,-4.115 -0.9906,-0.661 -2.4906,0.063 -4.7916,0.817 -1.8178,0.595 -6.371,0.615 -6.371,0.615"
     id="path32" />
  <path
     style="fill:none;stroke:#231f20;stroke-width:0.565977;stroke-linecap:butt;stroke-linejoin:miter;stroke-miterlimit:4;stroke-dasharray:none;stroke-opacity:1"
     d="m 57.311228,28.608681 c -3.1347,0 -3.8066,-0.339 -4.6561,-0.697 -5.3172,-2.266 -6.3333,0.39 -5.801,3.224 0.6093,3.333 0.7702,4.541 7.0306,3.937 1.7454,-0.167 8.5104,0.057 8.5104,0.057 2.4161,0.407 4.9896,-0.478 5.8068,-1.688 0.8547,-1.27 0.4224,-0.833 1,-2.15 0.5573,-1.266 0.3027,-3.432 -0.7281,-4.115 -0.9906,-0.661 -2.4906,0.063 -4.7916,0.817 -1.8178,0.595 -6.371,0.615 -6.371,0.615 z"
     id="path33" />
  <path
     style="fill:#ffffff;fill-opacity:1;fill-rule:nonzero;stroke:none"
     d="m 76.832828,29.436681 c 0.183,-0.167 1.145,0.469 1.469,0.057 0.322,-0.416 -0.167,-1.046 0.26,-2.984 l 0.005,-0.021 c 0.354,-1.411 0.104,-2.776 -0.822,-3.624 -1.543,-1.396 -4.324,-0.833 -6.224,1.249 -1.9069,2.095 -2.1933,4.918 -0.662,6.319 1.469,1.337 4.088,0.88 5.974,-0.996"
     id="path34" />
  <path
     style="fill:none;stroke:#231f20;stroke-width:0.565977;stroke-linecap:butt;stroke-linejoin:miter;stroke-miterlimit:4;stroke-dasharray:none;stroke-opacity:1"
     d="m 76.832828,29.436681 c 0.183,-0.167 1.145,0.469 1.469,0.057 0.322,-0.416 -0.167,-1.046 0.26,-2.984 l 0.005,-0.021 c 0.354,-1.411 0.104,-2.776 -0.822,-3.624 -1.543,-1.396 -4.324,-0.833 -6.224,1.249 -1.9069,2.095 -2.1933,4.918 -0.662,6.319 1.469,1.337 4.088,0.88 5.974,-0.996 z"
     id="path35" />
  <path
     style="fill:#231f20;fill-opacity:1;fill-rule:nonzero;stroke:none"
     d="m 31.811328,31.343681 c 0.2505,-2.25 -0.0041,-2.724 -0.9468,-2.886 -0.636,-0.12 -1.1718,-0.437 -1.5532,-0.525 -1.2598,-0.292 -3.5145,-0.256 -9.8536,1.504 -1.4369,0.396 -3.4634,0.943 -4.3077,1.1 -1.3281,0.249 -0.0146,2.296 0.511,2.203 1.6931,-0.298 2.8702,-0.36 3.4942,-0.386 0.4281,-0.016 1.1776,-0.15 2.8391,0.011 2.5156,0.229 3.9837,0.739 6.1036,0.687 0.9854,-0.015 1.7297,0.584 2.6827,0.068 0.964,-0.511 1.0307,-1.776 1.0307,-1.776"
     id="path36" />
  <path
     style="fill:none;stroke:#231f20;stroke-width:0.565977;stroke-linecap:butt;stroke-linejoin:miter;stroke-miterlimit:4;stroke-dasharray:none;stroke-opacity:1"
     d="m 31.811328,31.343681 c 0.2505,-2.25 -0.0041,-2.724 -0.9468,-2.886 -0.636,-0.12 -1.1718,-0.437 -1.5532,-0.525 -1.2598,-0.292 -3.5145,-0.256 -9.8536,1.504 -1.4369,0.396 -3.4634,0.943 -4.3077,1.1 -1.3281,0.249 -0.0146,2.296 0.511,2.203 1.6931,-0.298 2.8702,-0.36 3.4942,-0.386 0.4281,-0.016 1.1776,-0.15 2.8391,0.011 2.5156,0.229 3.9837,0.739 6.1036,0.687 0.9854,-0.015 1.7297,0.584 2.6827,0.068 0.964,-0.511 1.0307,-1.776 1.0307,-1.776 z"
     id="path37" />
  <path
     style="fill:#231f20;fill-opacity:1;fill-rule:nonzero;stroke:#231f20;stroke-width:0.565977;stroke-linecap:round;stroke-linejoin:round;stroke-miterlimit:4;stroke-dasharray:none;stroke-opacity:1"
     d="m 29.785928,32.817681 c 0.8963,1.11 2.9843,0.572 3.3119,0.646 4.912,1.005 5.2922,0.953 9.0787,1.453 5.4844,0.724 9.3442,0.38 10.7025,-2.677 0.9177,-2.088 0.5417,-3.683 -0.3796,-4.62 -1.0256,-1.042 -4.0469,-2.02 -6.2709,-0.178 l -1.6974,0.235 c -1.1677,0.016 -1.7401,0.032 -2.313,-0.005 -1,-0.072 -2.0776,-0.088 -4.0307,-0.11 -3.475,-0.036 -7.1573,1.047 -7.1573,1.047 -0.312,0 -0.5667,0.125 -0.7708,0.303"
     id="path38" />
  <path
     style="fill:#63c99d;fill-opacity:1;fill-rule:nonzero;stroke:none"
     d="m 52.577928,27.827681 c -0.9853,-1.083 -3.9744,-2.171 -6.2613,-0.411 l -1.1043,7.735 c 0.6152,0.052 1.188,0.066 1.7454,0.061 0.1297,0.032 0.2604,0.073 0.3589,0.125 0.776,0.386 1.3708,0.068 2.428,-0.473 1.3907,-0.401 2.4267,-1.156 3.036,-2.412 0.9896,-2.047 0.6828,-3.651 -0.2027,-4.625"
     id="path39" />
  <path
     style="fill:none;stroke:#231f20;stroke-width:0.565977;stroke-linecap:butt;stroke-linejoin:miter;stroke-miterlimit:4;stroke-dasharray:none;stroke-opacity:1"
     d="m 52.577928,27.827681 c -0.9853,-1.083 -3.9744,-2.171 -6.2613,-0.411 l -1.1043,7.735 c 0.6152,0.052 1.188,0.066 1.7454,0.061 0.1297,0.032 0.2604,0.073 0.3589,0.125 0.776,0.386 1.3708,0.068 2.428,-0.473 1.3907,-0.401 2.4267,-1.156 3.036,-2.412 0.9896,-2.047 0.6828,-3.651 -0.2027,-4.625 z"
     id="path40" />
  <path
     style="fill:none;stroke:#231f20;stroke-width:0.399514;stroke-linecap:butt;stroke-linejoin:miter;stroke-miterlimit:4;stroke-dasharray:none;stroke-opacity:1"
     d="m 117.21283,62.296681 c 16.854,20.432 48.48,7.041 53.765,2.062"
     id="path41" />
  <path
     style="fill:#231f20;fill-opacity:1;fill-rule:nonzero;stroke:none"
     d="m 171.85883,63.530681 c -0.272,0.542 -0.537,1.287 -0.595,1.859 l -0.4,-0.921 -0.901,-0.459 c 0.577,-0.02 1.333,-0.24 1.896,-0.479"
     id="path42" />
  <path
     style="fill:#ffffff;fill-opacity:1;fill-rule:nonzero;stroke:none"
     d="m 0.33292803,33.733681 c 0,0.683 0.552,1.24 1.23999997,1.24 H 339.68683 c 0.681,0 1.238,-0.557 1.238,-1.24 0,-0.688 -0.557,-1.24 -1.238,-1.24 H 1.572928 c -0.68799997,0 -1.23999997,0.552 -1.23999997,1.24"
     id="path43" />
  <path
     style="fill:none;stroke:#231f20;stroke-width:0.665856;stroke-linecap:butt;stroke-linejoin:miter;stroke-miterlimit:4;stroke-dasharray:none;stroke-opacity:1"
     d="m 0.33292803,33.733681 c 0,0.683 0.552,1.24 1.23999997,1.24 H 339.68683 c 0.681,0 1.238,-0.557 1.238,-1.24 0,-0.688 -0.557,-1.24 -1.238,-1.24 H 1.572928 c -0.68799997,0 -1.23999997,0.552 -1.23999997,1.24 z"
     id="path44" />
  <path
     style="fill:#ffffff;fill-opacity:1;fill-rule:nonzero;stroke:none"
     d="m 212.41983,7.9476809 c -0.014,-0.244 1.084,-0.61 0.954,-1.115 -0.13,-0.509 -0.922,-0.52 -2.176,-2.052 l -0.022,-0.02 c -0.885,-1.152 -2.114,-1.7974 -3.349,-1.5894 -2.052,0.3387 -3.333,2.8744 -2.869,5.6614 0.462,2.7920001 2.505,4.7610001 4.552,4.4230001 1.958,-0.323 3.218,-2.667 2.91,-5.3080001"
     id="path45" />
  <path
     style="fill:none;stroke:#231f20;stroke-width:0.565977;stroke-linecap:butt;stroke-linejoin:miter;stroke-miterlimit:4;stroke-dasharray:none;stroke-opacity:1"
     d="m 212.41983,7.9476809 c -0.014,-0.244 1.084,-0.61 0.954,-1.115 -0.13,-0.509 -0.922,-0.52 -2.176,-2.052 l -0.022,-0.02 c -0.885,-1.152 -2.114,-1.7974 -3.349,-1.5894 -2.052,0.3387 -3.333,2.8744 -2.869,5.6614 0.462,2.7920001 2.505,4.7610001 4.552,4.4230001 1.958,-0.323 3.218,-2.667 2.91,-5.3080001 z"
     id="path46" />
  <path
     style="fill:#231f20;fill-opacity:1;fill-rule:nonzero;stroke:none"
     d="m 212.87883,32.989681 c -0.615,-0.177 -1.687,-1.813 -3.015,-2.714 -0.896,-0.615 -2.333,-2.948 -3.272,-3.49 -0.864,-0.5 -1.208,-0.806 -0.812,-1.885 0.235,-0.645 1.11,-1.719 1.594,-1.568 1.136,0.36 1.854,0.975 2.5,1.828 0.74,0.964 2.505,3.767 2.781,4.313 0.688,1.359 1.36,1.672 1.573,2.011 0.407,0.645 0.255,0.963 -0.098,1.312 -0.683,0.672 -1.251,0.193 -1.251,0.193"
     id="path47" />
  <path
     style="fill:none;stroke:#231f20;stroke-width:0.565977;stroke-linecap:butt;stroke-linejoin:miter;stroke-miterlimit:4;stroke-dasharray:none;stroke-opacity:1"
     d="m 212.87883,32.989681 c -0.615,-0.177 -1.687,-1.813 -3.015,-2.714 -0.896,-0.615 -2.333,-2.948 -3.272,-3.49 -0.864,-0.5 -1.208,-0.806 -0.812,-1.885 0.235,-0.645 1.11,-1.719 1.594,-1.568 1.136,0.36 1.854,0.975 2.5,1.828 0.74,0.964 2.505,3.767 2.781,4.313 0.688,1.359 1.36,1.672 1.573,2.011 0.407,0.645 0.255,0.963 -0.098,1.312 -0.683,0.672 -1.251,0.193 -1.251,0.193 z"
     id="path48" />
  <path
     style="fill:#231f20;fill-opacity:1;fill-rule:nonzero;stroke:none"
     d="m 206.10783,25.837681 c -1.15,-0.593 0.099,-2.202 0.36,-2.666 0.271,-0.479 0.864,-1.911 1.187,-3.094 0.328,-1.188 1.24,-2.521 1.86,-4.76 0.317,-1.182 1.385,-2.12 3.072,-1.573 1.672,0.541 1.996,1.683 1.387,3.052 -0.606,1.364 -1.762,2.385 -2.464,3.724 -0.714,1.333 -1.318,2.76 -1.735,3.901 -0.473,1.296 -1.188,1.771 -1.661,1.787 -1.198,0.061 -2.006,-0.371 -2.006,-0.371"
     id="path49" />
  <path
     style="fill:none;stroke:#231f20;stroke-width:0.565977;stroke-linecap:butt;stroke-linejoin:miter;stroke-miterlimit:4;stroke-dasharray:none;stroke-opacity:1"
     d="m 206.10783,25.837681 c -1.15,-0.593 0.099,-2.202 0.36,-2.666 0.271,-0.479 0.864,-1.911 1.187,-3.094 0.328,-1.188 1.24,-2.521 1.86,-4.76 0.317,-1.182 1.385,-2.12 3.072,-1.573 1.672,0.541 1.996,1.683 1.387,3.052 -0.606,1.364 -1.762,2.385 -2.464,3.724 -0.714,1.333 -1.318,2.76 -1.735,3.901 -0.473,1.296 -1.188,1.771 -1.661,1.787 -1.198,0.061 -2.006,-0.371 -2.006,-0.371 z"
     id="path50" />
  <path
     style="fill:#231f20;fill-opacity:1;fill-rule:nonzero;stroke:none"
     d="m 12.640628,30.113681 c 0.812,-1.082 1.7708,-0.806 2.3428,0.063 0.1718,0.256 0.5894,0.297 0.7348,0.563 0.3385,0.62 -0.2083,2.276 -1.7026,2.172 -0.1094,-0.006 -0.9016,0.188 -1.5213,0.24 -1.2084,0.093 -3.6776,-0.292 -5.2443,-2.486 -0.7401,-1.036 0.0094,-1.286 0.4375,-0.957 1.3531,1.047 1.676,0.875 2.1401,1.015 1.5411,0.5 2.813,-0.61 2.813,-0.61"
     id="path51" />
  <path
     style="fill:none;stroke:#231f20;stroke-width:0.332927;stroke-linecap:butt;stroke-linejoin:miter;stroke-miterlimit:4;stroke-dasharray:none;stroke-opacity:1"
     d="m 12.640628,30.113681 c 0.812,-1.082 1.7708,-0.806 2.3428,0.063 0.1718,0.256 0.5894,0.297 0.7348,0.563 0.3385,0.62 -0.2083,2.276 -1.7026,2.172 -0.1094,-0.006 -0.9016,0.188 -1.5213,0.24 -1.2084,0.093 -3.6776,-0.292 -5.2443,-2.486 -0.7401,-1.036 0.0094,-1.286 0.4375,-0.957 1.3531,1.047 1.676,0.875 2.1401,1.015 1.5411,0.5 2.813,-0.61 2.813,-0.61 z"
     id="path52" />
  <path
     style="fill:#231f20;fill-opacity:1;fill-rule:nonzero;stroke:none"
     d="m 86.399828,34.416681 c -0.578,0.281 -2.458,-0.219 -4.051,-0.011 -1.079,0.146 -3.708,-0.636 -4.771,-0.412 -0.974,0.204 -1.437,0.204 -1.86,-0.864 -0.249,-0.636 -0.323,-2.021 0.141,-2.229 1.088,-0.489 2.036,-0.511 3.078,-0.312 1.198,0.229 4.385,1.14 4.953,1.359 1.417,0.557 2.126,0.338 2.51,0.448 0.735,0.213 0.84,0.546 0.807,1.046 -0.057,0.959 -0.807,0.975 -0.807,0.975"
     id="path53" />
  <path
     style="fill:none;stroke:#231f20;stroke-width:0.565977;stroke-linecap:butt;stroke-linejoin:miter;stroke-miterlimit:4;stroke-dasharray:none;stroke-opacity:1"
     d="m 86.399828,34.416681 c -0.578,0.281 -2.458,-0.219 -4.051,-0.011 -1.079,0.146 -3.708,-0.636 -4.771,-0.412 -0.974,0.204 -1.437,0.204 -1.86,-0.864 -0.249,-0.636 -0.323,-2.021 0.141,-2.229 1.088,-0.489 2.036,-0.511 3.078,-0.312 1.198,0.229 4.385,1.14 4.953,1.359 1.417,0.557 2.126,0.338 2.51,0.448 0.735,0.213 0.84,0.546 0.807,1.046 -0.057,0.959 -0.807,0.975 -0.807,0.975 z"
     id="path54" />
  <path
     style="fill:#231f20;fill-opacity:1;fill-rule:nonzero;stroke:none"
     d="m 77.405828,33.343681 c -0.292,1.26 -2.161,0.448 -2.677,0.308 -0.531,-0.147 -2.068,-0.371 -3.287,-0.391 -1.2295,-0.032 -2.7492,-0.584 -5.0732,-0.636 -1.224,-0.021 -2.3948,-0.823 -2.2812,-2.593 0.1145,-1.756 1.141,-2.35 2.6197,-2.095 1.4693,0.256 2.7505,1.12 4.2137,1.48 1.464,0.359 3,0.593 4.209,0.713 1.375,0.146 2.005,0.719 2.14,1.183 0.354,1.14 0.136,2.031 0.136,2.031"
     id="path55" />
  <path
     style="fill:none;stroke:#231f20;stroke-width:0.565977;stroke-linecap:butt;stroke-linejoin:miter;stroke-miterlimit:4;stroke-dasharray:none;stroke-opacity:1"
     d="m 77.405828,33.343681 c -0.292,1.26 -2.161,0.448 -2.677,0.308 -0.531,-0.147 -2.068,-0.371 -3.287,-0.391 -1.2295,-0.032 -2.7492,-0.584 -5.0732,-0.636 -1.224,-0.021 -2.3948,-0.823 -2.2812,-2.593 0.1145,-1.756 1.141,-2.35 2.6197,-2.095 1.4693,0.256 2.7505,1.12 4.2137,1.48 1.464,0.359 3,0.593 4.209,0.713 1.375,0.146 2.005,0.719 2.14,1.183 0.354,1.14 0.136,2.031 0.136,2.031 z"
     id="path56" />
  <path
     style="fill:#231f20;fill-opacity:1;fill-rule:nonzero;stroke:none"
     d="m 151.23883,34.416681 c -0.573,0.281 -2.458,-0.219 -4.052,-0.011 -1.078,0.146 -3.704,-0.636 -4.766,-0.412 -0.974,0.204 -1.438,0.204 -1.859,-0.864 -0.255,-0.636 -0.328,-2.021 0.14,-2.229 1.084,-0.489 2.032,-0.511 3.079,-0.312 1.197,0.229 4.38,1.14 4.953,1.359 1.416,0.557 2.125,0.338 2.511,0.448 0.733,0.213 0.833,0.546 0.801,1.046 -0.057,0.959 -0.807,0.975 -0.807,0.975"
     id="path57" />
  <path
     style="fill:none;stroke:#231f20;stroke-width:0.565977;stroke-linecap:butt;stroke-linejoin:miter;stroke-miterlimit:4;stroke-dasharray:none;stroke-opacity:1"
     d="m 151.23883,34.416681 c -0.573,0.281 -2.458,-0.219 -4.052,-0.011 -1.078,0.146 -3.704,-0.636 -4.766,-0.412 -0.974,0.204 -1.438,0.204 -1.859,-0.864 -0.255,-0.636 -0.328,-2.021 0.14,-2.229 1.084,-0.489 2.032,-0.511 3.079,-0.312 1.197,0.229 4.38,1.14 4.953,1.359 1.416,0.557 2.125,0.338 2.511,0.448 0.733,0.213 0.833,0.546 0.801,1.046 -0.057,0.959 -0.807,0.975 -0.807,0.975 z"
     id="path58" />
  <path
     style="fill:#231f20;fill-opacity:1;fill-rule:nonzero;stroke:none"
     d="m 142.24983,33.343681 c -0.297,1.26 -2.167,0.448 -2.683,0.308 -0.526,-0.147 -2.068,-0.371 -3.286,-0.391 -1.23,-0.032 -2.746,-0.584 -5.068,-0.636 -1.224,-0.021 -2.402,-0.823 -2.282,-2.593 0.11,-1.756 1.136,-2.35 2.615,-2.095 1.469,0.256 2.751,1.12 4.219,1.48 1.464,0.359 2.994,0.593 4.204,0.713 1.374,0.146 2.005,0.719 2.14,1.183 0.36,1.14 0.141,2.031 0.141,2.031"
     id="path59" />
  <path
     style="fill:none;stroke:#231f20;stroke-width:0.565977;stroke-linecap:butt;stroke-linejoin:miter;stroke-miterlimit:4;stroke-dasharray:none;stroke-opacity:1"
     d="m 142.24983,33.343681 c -0.297,1.26 -2.167,0.448 -2.683,0.308 -0.526,-0.147 -2.068,-0.371 -3.286,-0.391 -1.23,-0.032 -2.746,-0.584 -5.068,-0.636 -1.224,-0.021 -2.402,-0.823 -2.282,-2.593 0.11,-1.756 1.136,-2.35 2.615,-2.095 1.469,0.256 2.751,1.12 4.219,1.48 1.464,0.359 2.994,0.593 4.204,0.713 1.374,0.146 2.005,0.719 2.14,1.183 0.36,1.14 0.141,2.031 0.141,2.031 z"
     id="path60" />
  <path
     style="fill:#ffffff;fill-opacity:1;fill-rule:nonzero;stroke:none"
     d="m 172.27483,21.525681 c 0.052,-0.24 1.203,-0.302 1.219,-0.817 0.01,-0.532 -0.755,-0.751 -1.558,-2.563 l -0.01,-0.021 c -0.547,-1.344 -1.558,-2.297 -2.807,-2.427 -2.068,-0.213 -3.978,1.886 -4.276,4.687 -0.292,2.824 1.146,5.267 3.208,5.485 1.979,0.214 3.817,-1.714 4.224,-4.344"
     id="path61" />
  <path
     style="fill:none;stroke:#231f20;stroke-width:0.565977;stroke-linecap:butt;stroke-linejoin:miter;stroke-miterlimit:4;stroke-dasharray:none;stroke-opacity:1"
     d="m 172.27483,21.525681 c 0.052,-0.24 1.203,-0.302 1.219,-0.817 0.01,-0.532 -0.755,-0.751 -1.558,-2.563 l -0.01,-0.021 c -0.547,-1.344 -1.558,-2.297 -2.807,-2.427 -2.068,-0.213 -3.978,1.886 -4.276,4.687 -0.292,2.824 1.146,5.267 3.208,5.485 1.979,0.214 3.817,-1.714 4.224,-4.344 z"
     id="path62" />
  <path
     style="fill:#231f20;fill-opacity:1;fill-rule:nonzero;stroke:none"
     d="m 189.83783,34.416681 c -0.574,0.281 -2.459,-0.219 -4.058,-0.011 -1.073,0.146 -3.702,-0.636 -4.76,-0.412 -0.98,0.204 -1.442,0.204 -1.865,-0.864 -0.249,-0.636 -0.323,-2.021 0.147,-2.229 1.082,-0.489 2.03,-0.511 3.077,-0.312 1.199,0.229 4.38,1.14 4.953,1.359 1.412,0.557 2.12,0.338 2.511,0.448 0.729,0.213 0.833,0.546 0.801,1.046 -0.057,0.959 -0.806,0.975 -0.806,0.975"
     id="path63" />
  <path
     style="fill:none;stroke:#231f20;stroke-width:0.565977;stroke-linecap:butt;stroke-linejoin:miter;stroke-miterlimit:4;stroke-dasharray:none;stroke-opacity:1"
     d="m 189.83783,34.416681 c -0.574,0.281 -2.459,-0.219 -4.058,-0.011 -1.073,0.146 -3.702,-0.636 -4.76,-0.412 -0.98,0.204 -1.442,0.204 -1.865,-0.864 -0.249,-0.636 -0.323,-2.021 0.147,-2.229 1.082,-0.489 2.03,-0.511 3.077,-0.312 1.199,0.229 4.38,1.14 4.953,1.359 1.412,0.557 2.12,0.338 2.511,0.448 0.729,0.213 0.833,0.546 0.801,1.046 -0.057,0.959 -0.806,0.975 -0.806,0.975 z"
     id="path64" />
  <path
     style="fill:#231f20;fill-opacity:1;fill-rule:nonzero;stroke:none"
     d="m 180.84283,33.343681 c -0.292,1.26 -2.161,0.448 -2.677,0.308 -0.531,-0.147 -2.068,-0.371 -3.287,-0.391 -1.229,-0.032 -2.744,-0.584 -5.072,-0.636 -1.224,-0.021 -2.396,-0.823 -2.281,-2.593 0.115,-1.756 1.14,-2.35 2.619,-2.095 1.469,0.256 2.75,1.12 4.218,1.48 1.464,0.359 2.996,0.593 4.204,0.713 1.375,0.146 2.005,0.719 2.14,1.183 0.36,1.14 0.136,2.031 0.136,2.031"
     id="path65" />
  <path
     style="fill:none;stroke:#231f20;stroke-width:0.565977;stroke-linecap:butt;stroke-linejoin:miter;stroke-miterlimit:4;stroke-dasharray:none;stroke-opacity:1"
     d="m 180.84283,33.343681 c -0.292,1.26 -2.161,0.448 -2.677,0.308 -0.531,-0.147 -2.068,-0.371 -3.287,-0.391 -1.229,-0.032 -2.744,-0.584 -5.072,-0.636 -1.224,-0.021 -2.396,-0.823 -2.281,-2.593 0.115,-1.756 1.14,-2.35 2.619,-2.095 1.469,0.256 2.75,1.12 4.218,1.48 1.464,0.359 2.996,0.593 4.204,0.713 1.375,0.146 2.005,0.719 2.14,1.183 0.36,1.14 0.136,2.031 0.136,2.031 z"
     id="path66" />
  <path
     style="fill:#231f20;fill-opacity:1;fill-rule:nonzero;stroke:none"
     d="m 88.301828,31.364681 c 1.135,0.307 1.807,1.484 1.5,2.62 -0.313,1.135 -1.485,1.807 -2.62,1.5 -1.136,-0.313 -1.808,-1.485 -1.5,-2.625 0.312,-1.136 1.484,-1.808 2.62,-1.495"
     id="path67" />
  <path
     style="fill:#231f20;fill-opacity:1;fill-rule:nonzero;stroke:none"
     d="m 153.14083,31.364681 c 1.14,0.307 1.806,1.484 1.5,2.62 -0.314,1.135 -1.486,1.807 -2.62,1.5 -1.136,-0.313 -1.808,-1.485 -1.495,-2.625 0.307,-1.136 1.479,-1.808 2.615,-1.495"
     id="path68" />
  <path
     style="fill:#231f20;fill-opacity:1;fill-rule:nonzero;stroke:none"
     d="m 191.73883,31.364681 c 1.135,0.307 1.807,1.484 1.5,2.62 -0.313,1.135 -1.485,1.807 -2.62,1.5 -1.136,-0.313 -1.808,-1.485 -1.495,-2.625 0.307,-1.136 1.479,-1.808 2.615,-1.495"
     id="path69" />
  <path
     style="fill:#231f20;fill-opacity:1;fill-rule:nonzero;stroke:none"
     d="m 216.92583,32.108681 c 0.641,0.991 0.36,2.308 -0.63,2.953 -0.989,0.642 -2.313,0.355 -2.948,-0.629 -0.641,-0.991 -0.36,-2.313 0.626,-2.953 0.994,-0.642 2.317,-0.355 2.952,0.629"
     id="path70" />
  <path
     style="fill:#63c99d;fill-opacity:1;fill-rule:nonzero;stroke:none"
     d="m 286.01983,18.551681 c 2.667,1.641 3.063,2.286 3.594,3.042 3.344,4.714 5.598,2.984 6.636,0.296 1.228,-3.156 1.728,-4.27 -3.918,-7.046 -1.578,-0.766 -7.218,-4.511 -7.218,-4.511 -1.844,-1.6200001 -4.495,-2.2130001 -5.823,-1.6150001 -1.401,0.636 -0.803,0.491 -1.989,1.3080001 -1.131,0.782 -2.052,2.76 -1.532,3.886 0.494,1.078 2.146,1.254 4.505,1.817 1.86,0.448 5.745,2.823 5.745,2.823"
     id="path71" />
  <path
     style="fill:none;stroke:#231f20;stroke-width:0.565977;stroke-linecap:butt;stroke-linejoin:miter;stroke-miterlimit:4;stroke-dasharray:none;stroke-opacity:1"
     d="m 286.01983,18.551681 c 2.667,1.641 3.063,2.286 3.594,3.042 3.344,4.714 5.598,2.984 6.636,0.296 1.228,-3.156 1.728,-4.27 -3.918,-7.046 -1.578,-0.766 -7.218,-4.511 -7.218,-4.511 -1.844,-1.6200001 -4.495,-2.2130001 -5.823,-1.6150001 -1.401,0.636 -0.803,0.491 -1.989,1.3080001 -1.131,0.782 -2.052,2.76 -1.532,3.886 0.494,1.078 2.146,1.254 4.505,1.817 1.86,0.448 5.745,2.823 5.745,2.823 z"
     id="path72" />
  <path
     style="fill:#ffffff;fill-opacity:1;fill-rule:nonzero;stroke:none"
     d="m 277.03483,4.3326809 c -0.057,-0.2387 0.953,-0.7907 0.74,-1.2654 -0.213,-0.484 -1,-0.344 -2.511,-1.6346 l -0.02,-0.016 c -1.073,-0.97999999 -2.401,-1.39069999 -3.573,-0.96929999 -1.964,0.69859999 -2.776,3.42259999 -1.828,6.07829999 0.953,2.662 3.312,4.2440001 5.265,3.5520001 1.87,-0.6660001 2.699,-3.1980001 1.927,-5.7450001"
     id="path73" />
  <path
     style="fill:none;stroke:#231f20;stroke-width:0.565977;stroke-linecap:butt;stroke-linejoin:miter;stroke-miterlimit:4;stroke-dasharray:none;stroke-opacity:1"
     d="m 277.03483,4.3326809 c -0.057,-0.2387 0.953,-0.7907 0.74,-1.2654 -0.213,-0.484 -1,-0.344 -2.511,-1.6346 l -0.02,-0.016 c -1.073,-0.97999999 -2.401,-1.39069999 -3.573,-0.96929999 -1.964,0.69859999 -2.776,3.42259999 -1.828,6.07829999 0.953,2.662 3.312,4.2440001 5.265,3.5520001 1.87,-0.6660001 2.699,-3.1980001 1.927,-5.7450001 z"
     id="path74" />
  <path
     style="fill:#231f20;fill-opacity:1;fill-rule:nonzero;stroke:none"
     d="m 275.81083,32.379681 c -0.291,-0.572 0.177,-2.463 -0.057,-4.052 -0.162,-1.078 0.573,-3.719 0.333,-4.776 -0.219,-0.968 -0.228,-1.432 0.833,-1.875 0.631,-0.26 2.016,-0.359 2.23,0.104 0.51,1.079 0.546,2.021 0.365,3.079 -0.208,1.197 -1.068,4.39 -1.276,4.968 -0.532,1.428 -0.303,2.13 -0.407,2.521 -0.197,0.735 -0.525,0.839 -1.03,0.823 -0.959,-0.047 -0.991,-0.792 -0.991,-0.792"
     id="path75" />
  <path
     style="fill:none;stroke:#231f20;stroke-width:0.565977;stroke-linecap:butt;stroke-linejoin:miter;stroke-miterlimit:4;stroke-dasharray:none;stroke-opacity:1"
     d="m 275.81083,32.379681 c -0.291,-0.572 0.177,-2.463 -0.057,-4.052 -0.162,-1.078 0.573,-3.719 0.333,-4.776 -0.219,-0.968 -0.228,-1.432 0.833,-1.875 0.631,-0.26 2.016,-0.359 2.23,0.104 0.51,1.079 0.546,2.021 0.365,3.079 -0.208,1.197 -1.068,4.39 -1.276,4.968 -0.532,1.428 -0.303,2.13 -0.407,2.521 -0.197,0.735 -0.525,0.839 -1.03,0.823 -0.959,-0.047 -0.991,-0.792 -0.991,-0.792 z"
     id="path76" />
  <path
     style="fill:#231f20;fill-opacity:1;fill-rule:nonzero;stroke:none"
     d="m 276.73883,23.364681 c -1.271,-0.271 -0.485,-2.152 -0.355,-2.672 0.131,-0.527 0.334,-2.073 0.334,-3.292 0.005,-1.229 0.536,-2.755 0.546,-5.083 0.006,-1.218 0.782,-2.4060001 2.552,-2.3240001 1.762,0.084 2.376,1.1000001 2.142,2.5840001 -0.224,1.479 -1.074,2.766 -1.407,4.24 -0.339,1.474 -0.541,3.01 -0.64,4.219 -0.12,1.38 -0.688,2.02 -1.147,2.161 -1.134,0.375 -2.025,0.167 -2.025,0.167"
     id="path77" />
  <path
     style="fill:none;stroke:#231f20;stroke-width:0.565977;stroke-linecap:butt;stroke-linejoin:miter;stroke-miterlimit:4;stroke-dasharray:none;stroke-opacity:1"
     d="m 276.73883,23.364681 c -1.271,-0.271 -0.485,-2.152 -0.355,-2.672 0.131,-0.527 0.334,-2.073 0.334,-3.292 0.005,-1.229 0.536,-2.755 0.546,-5.083 0.006,-1.218 0.782,-2.4060001 2.552,-2.3240001 1.762,0.084 2.376,1.1000001 2.142,2.5840001 -0.224,1.479 -1.074,2.766 -1.407,4.24 -0.339,1.474 -0.541,3.01 -0.64,4.219 -0.12,1.38 -0.688,2.02 -1.147,2.161 -1.134,0.375 -2.025,0.167 -2.025,0.167 z"
     id="path78" />
  <path
     style="fill:#231f20;fill-opacity:1;fill-rule:nonzero;stroke:none"
     d="m 310.96783,17.572681 c 0.14,2.26 0.473,2.683 1.427,2.683 0.645,0.005 1.229,0.229 1.62,0.249 1.292,0.073 3.51,-0.349 9.453,-3.167 1.343,-0.645 3.249,-1.525 4.052,-1.822 1.271,-0.479 -0.376,-2.271 -0.88,-2.083 -1.611,0.583 -2.767,0.843 -3.376,0.973 -0.416,0.088 -1.135,0.35 -2.796,0.479 -2.516,0.209 -4.057,-0.047 -6.136,0.371 -0.964,0.186 -1.807,-0.282 -2.651,0.396 -0.865,0.661 -0.713,1.921 -0.713,1.921"
     id="path79" />
  <path
     style="fill:none;stroke:#231f20;stroke-width:0.565977;stroke-linecap:butt;stroke-linejoin:miter;stroke-miterlimit:4;stroke-dasharray:none;stroke-opacity:1"
     d="m 310.96783,17.572681 c 0.14,2.26 0.473,2.683 1.427,2.683 0.645,0.005 1.229,0.229 1.62,0.249 1.292,0.073 3.51,-0.349 9.453,-3.167 1.343,-0.645 3.249,-1.525 4.052,-1.822 1.271,-0.479 -0.376,-2.271 -0.88,-2.083 -1.611,0.583 -2.767,0.843 -3.376,0.973 -0.416,0.088 -1.135,0.35 -2.796,0.479 -2.516,0.209 -4.057,-0.047 -6.136,0.371 -0.964,0.186 -1.807,-0.282 -2.651,0.396 -0.865,0.661 -0.713,1.921 -0.713,1.921 z"
     id="path80" />
  <path
     style="fill:#231f20;fill-opacity:1;fill-rule:nonzero;stroke:#231f20;stroke-width:0.565977;stroke-linecap:round;stroke-linejoin:round;stroke-miterlimit:4;stroke-dasharray:none;stroke-opacity:1"
     d="m 312.70683,15.775681 c -1.067,-0.938 -3.031,-0.058 -3.375,-0.072 -5.011,-0.142 -5.375,-0.027 -9.188,0.129 -5.525,0.224 -9.27,1.224 -10.082,4.48 -0.547,2.203 0.093,3.713 1.166,4.479 1.188,0.844 4.334,1.297 6.208,-0.907 l 1.631,-0.52 c 1.145,-0.213 1.708,-0.323 2.281,-0.385 0.995,-0.1 2.058,-0.276 3.989,-0.59 3.427,-0.552 6.87,-2.254 6.87,-2.254 0.308,-0.058 0.532,-0.219 0.704,-0.427"
     id="path81" />
  <path
     style="fill:#63c99d;fill-opacity:1;fill-rule:nonzero;stroke:#231f20;stroke-width:0.565977;stroke-linecap:butt;stroke-linejoin:miter;stroke-miterlimit:4;stroke-dasharray:none;stroke-opacity:1"
     d="m 297.06683,16.083681 c -0.656,0.057 -1.26,0.15 -1.833,0.26 -0.084,-0.011 -0.156,-0.02 -0.23,-0.042 -0.77,-0.229 -1.292,0.12 -2.125,0.744 -1.421,0.631 -2.401,1.579 -2.807,2.996 -0.625,2.182 -0.046,3.719 0.99,4.52 1.161,0.891 4.286,1.459 6.24,-0.672 z"
     id="path82" />
  <path
     style="fill:#231f20;fill-opacity:1;fill-rule:nonzero;stroke:none"
     d="m 329.87883,15.119681 c -0.62,1.204 -1.604,1.093 -2.318,0.344 -0.213,-0.23 -0.63,-0.198 -0.817,-0.432 -0.437,-0.552 -0.188,-2.276 1.301,-2.438 0.104,-0.005 0.86,-0.333 1.459,-0.49 1.172,-0.302 3.672,-0.343 5.588,1.548 0.917,0.89 0.219,1.265 -0.265,1.014 -1.516,-0.796 -1.802,-0.572 -2.276,-0.629 -1.61,-0.224 -2.672,1.083 -2.672,1.083"
     id="path83" />
  <path
     style="fill:none;stroke:#231f20;stroke-width:0.332927;stroke-linecap:butt;stroke-linejoin:miter;stroke-miterlimit:4;stroke-dasharray:none;stroke-opacity:1"
     d="m 329.87883,15.119681 c -0.62,1.204 -1.604,1.093 -2.318,0.344 -0.213,-0.23 -0.63,-0.198 -0.817,-0.432 -0.437,-0.552 -0.188,-2.276 1.301,-2.438 0.104,-0.005 0.86,-0.333 1.459,-0.49 1.172,-0.302 3.672,-0.343 5.588,1.548 0.917,0.89 0.219,1.265 -0.265,1.014 -1.516,-0.796 -1.802,-0.572 -2.276,-0.629 -1.61,-0.224 -2.672,1.083 -2.672,1.083 z"
     id="path84" />
  <path
     style="fill:#231f20;fill-opacity:1;fill-rule:nonzero;stroke:none"
     d="m 279.49883,33.916681 c 0,1.177 -0.953,2.135 -2.136,2.135 -1.176,0 -2.129,-0.958 -2.129,-2.135 0,-1.177 0.953,-2.136 2.129,-2.136 1.183,0 2.136,0.959 2.136,2.136"
     id="path85" />
</svg>
