<?xml version="1.0" encoding="UTF-8" standalone="no"?>
<!-- Created with Inkscape (http://www.inkscape.org/) -->

<svg
   version="1.1"
   id="svg1"
   width="342.04382"
   height="121.94324"
   viewBox="0 0 342.04381 121.94324"
   sodipodi:docname="cell.svg"
   xmlns:inkscape="http://www.inkscape.org/namespaces/inkscape"
   xmlns:sodipodi="http://sodipodi.sourceforge.net/DTD/sodipodi-0.dtd"
   xmlns="http://www.w3.org/2000/svg"
   xmlns:svg="http://www.w3.org/2000/svg">
  <sodipodi:namedview
     id="namedview1"
     pagecolor="#ffffff"
     bordercolor="#000000"
     borderopacity="0.25"
     inkscape:showpageshadow="2"
     inkscape:pageopacity="0.0"
     inkscape:pagecheckerboard="0"
     inkscape:deskcolor="#d1d1d1">
    <inkscape:page
       x="0"
       y="0"
       inkscape:label="1"
       id="page1"
       width="342.04382"
       height="121.94324"
       margin="0"
       bleed="0" />
  </sodipodi:namedview>
  <defs
     id="defs1" />
  <path
     style="fill:#231f20;fill-opacity:1;fill-rule:nonzero;stroke:none"
     d="m 216.23787,57.457757 c -0.527,-0.51 -1.954,-3.428 -2.251,-4.109 -0.265,-0.609 -1.036,-1.469 -0.281,-2.344 0.308,-0.355 0.994,-0.651 1.322,-0.699 0.251,-0.036 0.47,0.215 0.59,0.584 0.213,0.631 0.025,0.896 0.353,2.126 0,0 0.037,0.312 0.063,0.858 0.089,1.626 -0.104,0.923 0.552,3.251 0.042,0.161 -0.088,0.328 -0.203,0.353 -0.177,0.032 -0.145,-0.02 -0.145,-0.02"
     id="path338" />
  <path
     style="fill:none;stroke:#231f20;stroke-width:0.565977;stroke-linecap:round;stroke-linejoin:round;stroke-miterlimit:4;stroke-dasharray:none;stroke-opacity:1"
     d="m 216.23787,57.457757 c -0.527,-0.51 -1.954,-3.428 -2.251,-4.109 -0.265,-0.609 -1.036,-1.469 -0.281,-2.344 0.308,-0.355 0.994,-0.651 1.322,-0.699 0.251,-0.036 0.47,0.215 0.59,0.584 0.213,0.631 0.025,0.896 0.353,2.126 0,0 0.037,0.312 0.063,0.858 0.089,1.626 -0.104,0.923 0.552,3.251 0.042,0.161 -0.088,0.328 -0.203,0.353 -0.177,0.032 -0.145,-0.02 -0.145,-0.02 z"
     id="path339" />
  <path
     style="fill:#231f20;fill-opacity:1;fill-rule:nonzero;stroke:none"
     d="m 213.67487,51.051757 c -0.355,-0.536 -0.095,-2.464 -0.511,-4.0164 -0.281,-1.0573 0.151,-3.7653 -0.202,-4.7906 -0.33,-0.9333 -0.391,-1.396 0.614,-1.9587 0.599,-0.3226 1.958,-0.5786 2.228,-0.1413 0.62,1.0107 0.767,1.948 0.704,3.016 -0.073,1.2133 -0.562,4.489 -0.704,5.084 -0.374,1.479 -0.062,2.151 -0.124,2.552 -0.109,0.749 -0.428,0.896 -0.928,0.921 -0.962,0.068 -1.077,-0.666 -1.077,-0.666"
     id="path340" />
  <path
     style="fill:none;stroke:#231f20;stroke-width:0.565977;stroke-linecap:butt;stroke-linejoin:miter;stroke-miterlimit:4;stroke-dasharray:none;stroke-opacity:1"
     d="m 213.67487,51.051757 c -0.355,-0.536 -0.095,-2.464 -0.511,-4.0164 -0.281,-1.0573 0.151,-3.7653 -0.202,-4.7906 -0.33,-0.9333 -0.391,-1.396 0.614,-1.9587 0.599,-0.3226 1.958,-0.5786 2.228,-0.1413 0.62,1.0107 0.767,1.948 0.704,3.016 -0.073,1.2133 -0.562,4.489 -0.704,5.084 -0.374,1.479 -0.062,2.151 -0.124,2.552 -0.109,0.749 -0.428,0.896 -0.928,0.921 -0.962,0.068 -1.077,-0.666 -1.077,-0.666 z"
     id="path341" />
  <path
     style="fill:#231f20;fill-opacity:1;fill-rule:nonzero;stroke:none"
     d="m 213.23787,40.832757 c -0.896,-0.932 0.806,-2.052 1.213,-2.4067 0.405,-0.3693 1.432,-1.5306 2.12,-2.5413 0.692,-1.016 1.984,-1.9787 3.296,-3.9013 0.693,-1.0107 2,-1.552 3.423,-0.4894 1.405,1.052 1.342,2.2347 0.322,3.3334 -1.016,1.0933 -2.437,1.6933 -3.541,2.7293 -1.105,1.0267 -2.136,2.1827 -2.896,3.1253 -0.871,1.0774 -1.704,1.2867 -2.161,1.1507 -1.152,-0.3227 -1.776,-1 -1.776,-1"
     id="path342" />
  <path
     style="fill:none;stroke:#231f20;stroke-width:0.565977;stroke-linecap:butt;stroke-linejoin:miter;stroke-miterlimit:4;stroke-dasharray:none;stroke-opacity:1"
     d="m 213.23787,40.832757 c -0.896,-0.932 0.806,-2.052 1.213,-2.4067 0.405,-0.3693 1.432,-1.5306 2.12,-2.5413 0.692,-1.016 1.984,-1.9787 3.296,-3.9013 0.693,-1.0107 2,-1.552 3.423,-0.4894 1.405,1.052 1.342,2.2347 0.322,3.3334 -1.016,1.0933 -2.437,1.6933 -3.541,2.7293 -1.105,1.0267 -2.136,2.1827 -2.896,3.1253 -0.871,1.0774 -1.704,1.2867 -2.161,1.1507 -1.152,-0.3227 -1.776,-1 -1.776,-1 z"
     id="path343" />
  <path
     style="fill:none;stroke:#231f20;stroke-width:0.399514;stroke-linecap:butt;stroke-linejoin:miter;stroke-miterlimit:4;stroke-dasharray:none;stroke-opacity:1"
     d="m 37.732876,103.45776 c 16.859,20.432 48.478,7.047 53.765,2.063"
     id="path344" />
  <path
     style="fill:#231f20;fill-opacity:1;fill-rule:nonzero;stroke:none"
     d="m 92.377876,104.69276 c -0.271,0.541 -0.536,1.285 -0.593,1.864 l -0.402,-0.927 -0.901,-0.459 c 0.579,-0.021 1.339,-0.24 1.896,-0.478"
     id="path345" />
  <path
     style="fill:#63c99d;fill-opacity:1;fill-rule:nonzero;stroke:none"
     d="m 93.846876,79.196757 c 1.796,2.568 1.906,3.313 2.094,4.22 1.188,5.656 3.941996,4.963 5.963994,2.911 2.385,-2.411 3.285,-3.235 -0.798,-8.022 -1.135998,-1.333 -4.821994,-7.014 -4.821994,-7.014 -1.047,-2.214 -3.251,-3.814 -4.708,-3.792 -1.532,0.026 -0.923,0.13 -2.334,0.406 -1.36,0.271 -2.99,1.724 -2.958,2.958 0.025,1.188 1.473,2.005 3.416,3.458 1.526,1.152 4.146,4.875 4.146,4.875"
     id="path346" />
  <path
     style="fill:none;stroke:#231f20;stroke-width:0.565977;stroke-linecap:butt;stroke-linejoin:miter;stroke-miterlimit:4;stroke-dasharray:none;stroke-opacity:1"
     d="m 93.846876,79.196757 c 1.796,2.568 1.906,3.313 2.094,4.22 1.188,5.656 3.941996,4.963 5.963994,2.911 2.385,-2.411 3.285,-3.235 -0.798,-8.022 -1.135998,-1.333 -4.821994,-7.014 -4.821994,-7.014 -1.047,-2.214 -3.251,-3.814 -4.708,-3.792 -1.532,0.026 -0.923,0.13 -2.334,0.406 -1.36,0.271 -2.99,1.724 -2.958,2.958 0.025,1.188 1.473,2.005 3.416,3.458 1.526,1.152 4.146,4.875 4.146,4.875 z"
     id="path347" />
  <path
     style="fill:#231f20;fill-opacity:1;fill-rule:nonzero;stroke:none"
     d="m 117.39887,89.707757 c -0.953,2.057 -0.86,2.589 -0.021,3.037 0.563,0.317 0.975,0.791 1.303,0.995 1.104,0.677 3.254,1.358 9.822,1.708 1.49,0.078 3.588,0.202 4.432,0.328 1.344,0.182 0.751,-2.178 0.214,-2.255 -1.692,-0.256 -2.834,-0.573 -3.432,-0.745 -0.412,-0.126 -1.162,-0.235 -2.688,-0.907 -2.312,-1.025 -3.547,-1.973 -5.567,-2.593 -0.939,-0.303 -1.459,-1.11 -2.527,-0.922 -1.068,0.182 -1.536,1.354 -1.536,1.354"
     id="path348" />
  <path
     style="fill:none;stroke:#231f20;stroke-width:0.565977;stroke-linecap:butt;stroke-linejoin:miter;stroke-miterlimit:4;stroke-dasharray:none;stroke-opacity:1"
     d="m 117.39887,89.707757 c -0.953,2.057 -0.86,2.589 -0.021,3.037 0.563,0.317 0.975,0.791 1.303,0.995 1.104,0.677 3.254,1.358 9.822,1.708 1.49,0.078 3.588,0.202 4.432,0.328 1.344,0.182 0.751,-2.178 0.214,-2.255 -1.692,-0.256 -2.834,-0.573 -3.432,-0.745 -0.412,-0.126 -1.162,-0.235 -2.688,-0.907 -2.312,-1.025 -3.547,-1.973 -5.567,-2.593 -0.939,-0.303 -1.459,-1.11 -2.527,-0.922 -1.068,0.182 -1.536,1.354 -1.536,1.354 z"
     id="path349" />
  <path
     style="fill:#231f20;fill-opacity:1;fill-rule:nonzero;stroke:#231f20;stroke-width:0.565977;stroke-linecap:round;stroke-linejoin:round;stroke-miterlimit:4;stroke-dasharray:none;stroke-opacity:1"
     d="m 119.78487,88.957757 c -0.495,-1.333 -2.642,-1.494 -2.932,-1.666 -4.339,-2.516 -4.72,-2.584 -8.147,-4.262 -4.968,-2.432 -8.743998,-3.333 -10.999994,-0.864 -1.531,1.688 -1.683,3.318 -1.109,4.506 0.646,1.306 3.197996,3.197 5.895994,2.156 l 1.677,0.317 c 1.115,0.355 1.661,0.521 2.192,0.74 0.923,0.391 1.943,0.745 3.787,1.385 3.281,1.142 7.12,1.287 7.12,1.287 0.297,0.093 0.573,0.052 0.822,-0.052"
     id="path350" />
  <path
     style="fill:#63c99d;fill-opacity:1;fill-rule:nonzero;stroke:none"
     d="m 104.26287,81.228757 c -0.109,-0.073 -0.218,-0.151 -0.301,-0.229 -0.615,-0.615 -1.276,-0.506 -2.448,-0.323 -1.443,-0.063 -2.671998,0.323 -3.646994,1.317 -1.588,1.626 -1.806,3.246 -1.276,4.454 0.59,1.338 3.078996,3.317 5.802994,2.38 l 3.511,-6.984 c -0.574,-0.246 -1.11,-0.438 -1.642,-0.615"
     id="path351" />
  <path
     style="fill:none;stroke:#231f20;stroke-width:0.565977;stroke-linecap:butt;stroke-linejoin:miter;stroke-miterlimit:4;stroke-dasharray:none;stroke-opacity:1"
     d="m 104.26287,81.228757 c -0.109,-0.073 -0.218,-0.151 -0.301,-0.229 -0.615,-0.615 -1.276,-0.506 -2.448,-0.323 -1.443,-0.063 -2.671998,0.323 -3.646994,1.317 -1.588,1.626 -1.806,3.246 -1.276,4.454 0.59,1.338 3.078996,3.317 5.802994,2.38 l 3.511,-6.984 c -0.574,-0.246 -1.11,-0.438 -1.642,-0.615 z"
     id="path352" />
  <path
     style="fill:#231f20;fill-opacity:1;fill-rule:nonzero;stroke:none"
     d="m 135.18087,96.968757 c -1.11,0.765 -1.934,0.203 -2.199,-0.803 -0.083,-0.297 -0.463,-0.469 -0.516,-0.765 -0.124,-0.699 0.917,-2.095 2.303,-1.516 0.098,0.036 0.912,0.109 1.521,0.251 1.172,0.296 3.391,1.448 4.181,4.02 0.376,1.224 -0.416,1.218 -0.718,0.77 -0.954,-1.421 -1.318,-1.358 -1.708,-1.64 -1.307,-0.964 -2.864,-0.317 -2.864,-0.317"
     id="path353" />
  <path
     style="fill:none;stroke:#231f20;stroke-width:0.332927;stroke-linecap:butt;stroke-linejoin:miter;stroke-miterlimit:4;stroke-dasharray:none;stroke-opacity:1"
     d="m 135.18087,96.968757 c -1.11,0.765 -1.934,0.203 -2.199,-0.803 -0.083,-0.297 -0.463,-0.469 -0.516,-0.765 -0.124,-0.699 0.917,-2.095 2.303,-1.516 0.098,0.036 0.912,0.109 1.521,0.251 1.172,0.296 3.391,1.448 4.181,4.02 0.376,1.224 -0.416,1.218 -0.718,0.77 -0.954,-1.421 -1.318,-1.358 -1.708,-1.64 -1.307,-0.964 -2.864,-0.317 -2.864,-0.317 z"
     id="path354" />
  <path
     style="fill:#63c99d;fill-opacity:1;fill-rule:nonzero;stroke:none"
     d="m 43.773876,75.520757 c -2.526,1.853 -3.27,1.979 -4.166,2.192 -5.626,1.328 -4.87,4.068 -2.76,6.037 2.462,2.323 3.306,3.203 7.994,-0.99 1.307,-1.172 6.891,-5 6.891,-5 2.187,-1.104 3.733,-3.343 3.676,-4.796 -0.061,-1.538 -0.151,-0.928 -0.463,-2.328 -0.302,-1.35 -1.797,-2.948 -3.032,-2.886 -1.181,0.058 -1.968,1.526 -3.374,3.5 -1.11,1.558 -4.766,4.271 -4.766,4.271"
     id="path355" />
  <path
     style="fill:none;stroke:#231f20;stroke-width:0.565977;stroke-linecap:butt;stroke-linejoin:miter;stroke-miterlimit:4;stroke-dasharray:none;stroke-opacity:1"
     d="m 43.773876,75.520757 c -2.526,1.853 -3.27,1.979 -4.166,2.192 -5.626,1.328 -4.87,4.068 -2.76,6.037 2.462,2.323 3.306,3.203 7.994,-0.99 1.307,-1.172 6.891,-5 6.891,-5 2.187,-1.104 3.733,-3.343 3.676,-4.796 -0.061,-1.538 -0.151,-0.928 -0.463,-2.328 -0.302,-1.35 -1.797,-2.948 -3.032,-2.886 -1.181,0.058 -1.968,1.526 -3.374,3.5 -1.11,1.558 -4.766,4.271 -4.766,4.271 z"
     id="path356" />
  <path
     style="fill:#231f20;fill-opacity:1;fill-rule:nonzero;stroke:none"
     d="m 23.169876,90.275757 c -0.765,-2.135 -1.204,-2.443 -2.12,-2.178 -0.62,0.178 -1.245,0.126 -1.625,0.214 -1.26,0.292 -3.271,1.318 -8.187,5.688 -1.114,0.984 -2.698,2.369 -3.385,2.874 -1.079,0.814 1.0000005,2.079 1.4320005,1.756 1.3849995,-1.005 2.4159995,-1.584 2.9679995,-1.88 0.376,-0.204 0.991,-0.652 2.547,-1.24 2.365,-0.901 3.912,-1.089 5.786,-2.073 0.88,-0.443 1.814,-0.235 2.443,-1.115 0.636,-0.88 0.141,-2.046 0.141,-2.046"
     id="path357" />
  <path
     style="fill:none;stroke:#231f20;stroke-width:0.565977;stroke-linecap:butt;stroke-linejoin:miter;stroke-miterlimit:4;stroke-dasharray:none;stroke-opacity:1"
     d="m 23.169876,90.275757 c -0.765,-2.135 -1.204,-2.443 -2.12,-2.178 -0.62,0.178 -1.245,0.126 -1.625,0.214 -1.26,0.292 -3.271,1.318 -8.187,5.688 -1.114,0.984 -2.698,2.369 -3.385,2.874 -1.079,0.814 1.0000005,2.079 1.4320005,1.756 1.3849995,-1.005 2.4159995,-1.584 2.9679995,-1.88 0.376,-0.204 0.991,-0.652 2.547,-1.24 2.365,-0.901 3.912,-1.089 5.786,-2.073 0.88,-0.443 1.814,-0.235 2.443,-1.115 0.636,-0.88 0.141,-2.046 0.141,-2.046 z"
     id="path358" />
  <path
     style="fill:#231f20;fill-opacity:1;fill-rule:nonzero;stroke:#231f20;stroke-width:0.565977;stroke-linecap:round;stroke-linejoin:round;stroke-miterlimit:4;stroke-dasharray:none;stroke-opacity:1"
     d="m 22.003876,92.488757 c 1.286,0.599 2.926,-0.796 3.254,-0.875 4.855,-1.26 5.172,-1.478 8.792,-2.693 5.246,-1.76 8.563,-3.771 8.432,-7.113 -0.093,-2.278 -1.129,-3.543 -2.374,-3.98 -1.375,-0.484 -4.527,-0.031 -5.708,2.604 l -1.423,0.953 c -1.036,0.532 -1.547,0.792 -2.077,1.011 -0.934,0.374 -1.902,0.838 -3.667,1.677 -3.136,1.495 -5.969,4.088 -5.969,4.088 -0.276,0.141 -0.448,0.36 -0.552,0.615"
     id="path359" />
  <path
     style="fill:#63c99d;fill-opacity:1;fill-rule:nonzero;stroke:none"
     d="m 42.487876,82.040757 c -0.011,-2.271 -0.995,-3.577 -2.219,-4.063 -1.359,-0.536 -4.521,-0.197 -5.803,2.386 l 2.412,7.433 c 0.579,-0.224 1.099,-0.464 1.599,-0.713 0.131,-0.027 0.261,-0.048 0.376,-0.048 0.869,0.005 1.26,-0.542 1.973,-1.495 1.068,-0.968 1.667,-2.104 1.662,-3.5"
     id="path360" />
  <path
     style="fill:none;stroke:#231f20;stroke-width:0.565977;stroke-linecap:butt;stroke-linejoin:miter;stroke-miterlimit:4;stroke-dasharray:none;stroke-opacity:1"
     d="m 42.487876,82.040757 c -0.011,-2.271 -0.995,-3.577 -2.219,-4.063 -1.359,-0.536 -4.521,-0.197 -5.803,2.386 l 2.412,7.433 c 0.579,-0.224 1.099,-0.464 1.599,-0.713 0.131,-0.027 0.261,-0.048 0.376,-0.048 0.869,0.005 1.26,-0.542 1.973,-1.495 1.068,-0.968 1.667,-2.104 1.662,-3.5 z"
     id="path361" />
  <path
     style="fill:#231f20;fill-opacity:1;fill-rule:nonzero;stroke:none"
     d="m 5.413876,97.603757 c 0.256,-1.328 1.235,-1.5 2.131,-0.974 0.271,0.156 0.661,0.01 0.907,0.182 0.5770005,0.406 0.8170005,2.136 -0.574,2.704 -0.098,0.041 -0.729,0.562003 -1.26,0.885003 -1.041,0.615 -3.428,1.353 -5.80200001,0.073 -1.12599998,-0.605003 -0.558,-1.157003 -0.026,-1.053003 1.67200001,0.344 1.89100001,0.043 2.36400001,-0.031 1.61,-0.229 2.26,-1.786 2.26,-1.786"
     id="path362" />
  <path
     style="fill:none;stroke:#231f20;stroke-width:0.332927;stroke-linecap:butt;stroke-linejoin:miter;stroke-miterlimit:4;stroke-dasharray:none;stroke-opacity:1"
     d="m 5.413876,97.603757 c 0.256,-1.328 1.235,-1.5 2.131,-0.974 0.271,0.156 0.661,0.01 0.907,0.182 0.5770005,0.406 0.8170005,2.136 -0.574,2.704 -0.098,0.041 -0.729,0.562003 -1.26,0.885003 -1.041,0.615 -3.428,1.353 -5.80200001,0.073 -1.12599998,-0.605003 -0.558,-1.157003 -0.026,-1.053003 1.67200001,0.344 1.89100001,0.043 2.36400001,-0.031 1.61,-0.229 2.26,-1.786 2.26,-1.786 z"
     id="path363" />
  <path
     style="fill:#ffffff;fill-opacity:1;fill-rule:nonzero;stroke:none"
     d="m 1.112876,74.816757 c 0,0.688 0.552,1.24 1.24,1.24 H 340.46587 c 0.688,0 1.245,-0.552 1.245,-1.24 0,-0.687 -0.557,-1.239 -1.245,-1.239 H 2.352876 c -0.688,0 -1.24,0.552 -1.24,1.239"
     id="path364" />
  <path
     style="fill:none;stroke:#231f20;stroke-width:0.665856;stroke-linecap:butt;stroke-linejoin:miter;stroke-miterlimit:4;stroke-dasharray:none;stroke-opacity:1"
     d="m 1.112876,74.816757 c 0,0.688 0.552,1.24 1.24,1.24 H 340.46587 c 0.688,0 1.245,-0.552 1.245,-1.24 0,-0.687 -0.557,-1.239 -1.245,-1.239 H 2.352876 c -0.688,0 -1.24,0.552 -1.24,1.239 z"
     id="path365" />
  <path
     style="fill:#231f20;fill-opacity:1;fill-rule:nonzero;stroke:none"
     d="m 197.36687,46.942057 c -0.396,1.2977 -1.385,1.3597 -2.224,0.7457 -0.244,-0.188 -0.656,-0.079 -0.88,-0.276 -0.53,-0.4697 -0.588,-2.2097 0.855,-2.6257 0.099,-0.036 0.781,-0.484 1.348,-0.7453 1.105,-0.5107 3.553,-0.9947 5.777,0.532 1.052,0.724 0.432,1.208 -0.084,1.052 -1.63,-0.5214 -1.874,-0.2454 -2.354,-0.2187 -1.619,0.0627 -2.438,1.536 -2.438,1.536"
     id="path366" />
  <path
     style="fill:none;stroke:#231f20;stroke-width:0.332927;stroke-linecap:butt;stroke-linejoin:miter;stroke-miterlimit:4;stroke-dasharray:none;stroke-opacity:1"
     d="m 197.36687,46.942057 c -0.396,1.2977 -1.385,1.3597 -2.224,0.7457 -0.244,-0.188 -0.656,-0.079 -0.88,-0.276 -0.53,-0.4697 -0.588,-2.2097 0.855,-2.6257 0.099,-0.036 0.781,-0.484 1.348,-0.7453 1.105,-0.5107 3.553,-0.9947 5.777,0.532 1.052,0.724 0.432,1.208 -0.084,1.052 -1.63,-0.5214 -1.874,-0.2454 -2.354,-0.2187 -1.619,0.0627 -2.438,1.536 -2.438,1.536 z"
     id="path367" />
  <path
     style="fill:#ffffff;fill-opacity:1;fill-rule:nonzero;stroke:none"
     d="m 178.94087,52.353757 c 0.53,2.208 0.932,2.563 1.88,2.391 0.641,-0.105 1.245,0.005 1.636,-0.043 1.281,-0.156 3.39,-0.962 8.749,-4.785 1.203,-0.865 2.917,-2.073 3.661,-2.511 1.167,-0.693 -0.77,-2.1717 -1.234,-1.8957 -1.49,0.8587 -2.578,1.3227 -3.151,1.5627 -0.401,0.156 -1.052,0.536 -2.672,0.968 -2.437,0.647 -4,0.661 -5.968,1.443 -0.923,0.354 -1.828,0.042 -2.543,0.854 -0.733,0.807 -0.358,2.016 -0.358,2.016"
     id="path368" />
  <path
     style="fill:none;stroke:#231f20;stroke-width:0.565977;stroke-linecap:butt;stroke-linejoin:miter;stroke-miterlimit:4;stroke-dasharray:none;stroke-opacity:1"
     d="m 178.94087,52.353757 c 0.53,2.208 0.932,2.563 1.88,2.391 0.641,-0.105 1.245,0.005 1.636,-0.043 1.281,-0.156 3.39,-0.962 8.749,-4.785 1.203,-0.865 2.917,-2.073 3.661,-2.511 1.167,-0.693 -0.77,-2.1717 -1.234,-1.8957 -1.49,0.8587 -2.578,1.3227 -3.151,1.5627 -0.401,0.156 -1.052,0.536 -2.672,0.968 -2.437,0.647 -4,0.661 -5.968,1.443 -0.923,0.354 -1.828,0.042 -2.543,0.854 -0.733,0.807 -0.358,2.016 -0.358,2.016 z"
     id="path369" />
  <path
     style="fill:#ffffff;fill-opacity:1;fill-rule:nonzero;stroke:#231f20;stroke-width:0.565977;stroke-linecap:round;stroke-linejoin:round;stroke-miterlimit:4;stroke-dasharray:none;stroke-opacity:1"
     d="m 180.33087,50.275757 c -1.213,-0.735 -2.994,0.484 -3.333,0.532 -4.959,0.738 -5.297,0.921 -9.021,1.744 -5.4,1.198 -8.911,2.849 -9.13,6.193 -0.152,2.271 0.744,3.64 1.932,4.208 1.323,0.62 4.5,0.505 5.954,-1.989 l 1.514,-0.803 c 1.084,-0.411 1.626,-0.62 2.172,-0.781 0.964,-0.271 1.98,-0.635 3.828,-1.287 3.276,-1.151 6.366,-3.432 6.366,-3.432 0.286,-0.109 0.478,-0.312 0.62,-0.552"
     id="path370" />
  <path
     style="fill:#63c99d;fill-opacity:1;fill-rule:nonzero;stroke:#231f20;stroke-width:0.565977;stroke-linecap:butt;stroke-linejoin:miter;stroke-miterlimit:4;stroke-dasharray:none;stroke-opacity:1"
     d="m 165.04487,53.373757 c -3.631,1 -5.912,2.5 -6.183,5.131 -0.233,2.26 0.609,3.661 1.776,4.276 1.292,0.672 4.469,0.677 6.021,-1.76 z"
     id="path371" />
  <path
     style="fill:#231f20;fill-opacity:1;fill-rule:nonzero;stroke:none"
     d="m 198.35287,50.425757 c -0.522,1.251 -1.511,1.219 -2.287,0.527 -0.224,-0.208 -0.641,-0.141 -0.849,-0.365 -0.484,-0.515 -0.37,-2.25 1.109,-2.526 0.104,-0.021 0.828,-0.406 1.416,-0.609 1.141,-0.396 3.625,-0.6414 5.693,1.093 0.979,0.828 0.312,1.251 -0.188,1.038 -1.572,-0.672 -1.838,-0.423 -2.317,-0.448 -1.62,-0.095 -2.577,1.29 -2.577,1.29"
     id="path372" />
  <path
     style="fill:none;stroke:#231f20;stroke-width:0.332927;stroke-linecap:butt;stroke-linejoin:miter;stroke-miterlimit:4;stroke-dasharray:none;stroke-opacity:1"
     d="m 198.35287,50.425757 c -0.522,1.251 -1.511,1.219 -2.287,0.527 -0.224,-0.208 -0.641,-0.141 -0.849,-0.365 -0.484,-0.515 -0.37,-2.25 1.109,-2.526 0.104,-0.021 0.828,-0.406 1.416,-0.609 1.141,-0.396 3.625,-0.6414 5.693,1.093 0.979,0.828 0.312,1.251 -0.188,1.038 -1.572,-0.672 -1.838,-0.423 -2.317,-0.448 -1.62,-0.095 -2.577,1.29 -2.577,1.29 z"
     id="path373" />
  <path
     style="fill:#63c99d;fill-opacity:1;fill-rule:nonzero;stroke:none"
     d="m 153.46187,60.509757 c 3.129,0.172 3.785,0.552 4.613,0.964 5.178,2.556 6.339,-0.037 5.975,-2.89 -0.421,-3.371 -0.511,-4.584 -6.797,-4.339 -1.75,0.072 -8.495,-0.537 -8.495,-0.537 -2.391,-0.547 -5.005,0.198 -5.891,1.354 -0.926,1.224 -0.473,0.807 -1.125,2.094 -0.624,1.224 -0.499,3.406 0.496,4.15 0.948,0.71 2.484,0.079 4.828,-0.552 1.853,-0.489 6.396,-0.244 6.396,-0.244"
     id="path374" />
  <path
     style="fill:none;stroke:#231f20;stroke-width:0.565977;stroke-linecap:butt;stroke-linejoin:miter;stroke-miterlimit:4;stroke-dasharray:none;stroke-opacity:1"
     d="m 153.46187,60.509757 c 3.129,0.172 3.785,0.552 4.613,0.964 5.178,2.556 6.339,-0.037 5.975,-2.89 -0.421,-3.371 -0.511,-4.584 -6.797,-4.339 -1.75,0.072 -8.495,-0.537 -8.495,-0.537 -2.391,-0.547 -5.005,0.198 -5.891,1.354 -0.926,1.224 -0.473,0.807 -1.125,2.094 -0.624,1.224 -0.499,3.406 0.496,4.15 0.948,0.71 2.484,0.079 4.828,-0.552 1.853,-0.489 6.396,-0.244 6.396,-0.244 z"
     id="path375" />
  <path
     style="fill:#231f20;fill-opacity:1;fill-rule:nonzero;stroke:none"
     d="m 179.48187,54.004757 c 0.313,2.249 0.677,2.64 1.636,2.568 0.645,-0.047 1.239,0.124 1.629,0.115 1.292,-0.027 3.47,-0.626 9.178,-3.902 1.286,-0.75 3.109,-1.781 3.896,-2.141 1.224,-0.572 -0.558,-2.233 -1.047,-2.005 -1.563,0.704 -2.693,1.062 -3.287,1.24 -0.412,0.12 -1.098,0.432 -2.754,0.704 -2.49,0.4 -4.043,0.265 -6.079,0.848 -0.953,0.265 -1.823,-0.135 -2.62,0.604 -0.801,0.729 -0.552,1.969 -0.552,1.969"
     id="path376" />
  <path
     style="fill:none;stroke:#231f20;stroke-width:0.565977;stroke-linecap:butt;stroke-linejoin:miter;stroke-miterlimit:4;stroke-dasharray:none;stroke-opacity:1"
     d="m 179.48187,54.004757 c 0.313,2.249 0.677,2.64 1.636,2.568 0.645,-0.047 1.239,0.124 1.629,0.115 1.292,-0.027 3.47,-0.626 9.178,-3.902 1.286,-0.75 3.109,-1.781 3.896,-2.141 1.224,-0.572 -0.558,-2.233 -1.047,-2.005 -1.563,0.704 -2.693,1.062 -3.287,1.24 -0.412,0.12 -1.098,0.432 -2.754,0.704 -2.49,0.4 -4.043,0.265 -6.079,0.848 -0.953,0.265 -1.823,-0.135 -2.62,0.604 -0.801,0.729 -0.552,1.969 -0.552,1.969 z"
     id="path377" />
  <path
     style="fill:#231f20;fill-opacity:1;fill-rule:nonzero;stroke:#231f20;stroke-width:0.565977;stroke-linecap:round;stroke-linejoin:round;stroke-miterlimit:4;stroke-dasharray:none;stroke-opacity:1"
     d="m 181.07087,52.077757 c -1.136,-0.854 -3.026,0.182 -3.37,0.198 -5.011,0.25 -5.359,0.396 -9.146,0.854 -5.494,0.662 -9.15,1.958 -9.698,5.266 -0.37,2.24 0.39,3.692 1.51,4.374 1.262,0.746 4.432,0.943 6.126,-1.396 l 1.582,-0.645 c 1.12,-0.308 1.678,-0.464 2.235,-0.568 0.989,-0.177 2.037,-0.437 3.937,-0.901 3.376,-0.828 6.672,-2.796 6.672,-2.796 0.298,-0.079 0.511,-0.262 0.672,-0.486"
     id="path378" />
  <path
     style="fill:#63c99d;fill-opacity:1;fill-rule:nonzero;stroke:#231f20;stroke-width:0.565977;stroke-linecap:butt;stroke-linejoin:miter;stroke-miterlimit:4;stroke-dasharray:none;stroke-opacity:1"
     d="m 165.55487,53.655757 c -3.713,0.641 -6.13,1.912 -6.661,4.5 -0.453,2.224 0.249,3.708 1.353,4.432 1.219,0.797 4.382,1.114 6.162,-1.162 z"
     id="path379" />
  <path
     style="fill:#ffffff;fill-opacity:1;fill-rule:nonzero;stroke:none"
     d="m 137.54487,52.905757 c -0.208,-0.13 0.141,-1.234 -0.339,-1.428 -0.495,-0.197 -0.963,0.439 -2.943,0.558 h -0.025 c -1.453,0.042 -2.704,0.657 -3.261,1.776 -0.932,1.86 0.37,4.39 2.89,5.652 2.538,1.265 5.328,0.77 6.256,-1.084 0.891,-1.771 -0.261,-4.167 -2.578,-5.474"
     id="path380" />
  <path
     style="fill:none;stroke:#231f20;stroke-width:0.565977;stroke-linecap:butt;stroke-linejoin:miter;stroke-miterlimit:4;stroke-dasharray:none;stroke-opacity:1"
     d="m 137.54487,52.905757 c -0.208,-0.13 0.141,-1.234 -0.339,-1.428 -0.495,-0.197 -0.963,0.439 -2.943,0.558 h -0.025 c -1.453,0.042 -2.704,0.657 -3.261,1.776 -0.932,1.86 0.37,4.39 2.89,5.652 2.538,1.265 5.328,0.77 6.256,-1.084 0.891,-1.771 -0.261,-4.167 -2.578,-5.474 z"
     id="path381" />
  <path
     style="fill:#231f20;fill-opacity:1;fill-rule:nonzero;stroke:none"
     d="m 144.71087,75.004757 c -0.614,-0.172 -1.688,-1.808 -3.016,-2.713 -0.896,-0.61 -2.333,-2.948 -3.276,-3.484 -0.858,-0.502 -1.202,-0.814 -0.806,-1.887 0.234,-0.645 1.109,-1.719 1.593,-1.567 1.136,0.359 1.855,0.974 2.5,1.823 0.74,0.968 2.505,3.771 2.781,4.312 0.688,1.36 1.355,1.672 1.574,2.016 0.405,0.645 0.254,0.959 -0.099,1.312 -0.688,0.672 -1.251,0.188 -1.251,0.188"
     id="path382" />
  <path
     style="fill:none;stroke:#231f20;stroke-width:0.565977;stroke-linecap:butt;stroke-linejoin:miter;stroke-miterlimit:4;stroke-dasharray:none;stroke-opacity:1"
     d="m 144.71087,75.004757 c -0.614,-0.172 -1.688,-1.808 -3.016,-2.713 -0.896,-0.61 -2.333,-2.948 -3.276,-3.484 -0.858,-0.502 -1.202,-0.814 -0.806,-1.887 0.234,-0.645 1.109,-1.719 1.593,-1.567 1.136,0.359 1.855,0.974 2.5,1.823 0.74,0.968 2.505,3.771 2.781,4.312 0.688,1.36 1.355,1.672 1.574,2.016 0.405,0.645 0.254,0.959 -0.099,1.312 -0.688,0.672 -1.251,0.188 -1.251,0.188 z"
     id="path383" />
  <path
     style="fill:#231f20;fill-opacity:1;fill-rule:nonzero;stroke:none"
     d="m 137.94087,67.859757 c -1.156,-0.595 0.093,-2.204 0.358,-2.672 0.267,-0.475 0.866,-1.912 1.188,-3.09 0.328,-1.186 1.235,-2.525 1.855,-4.76 0.323,-1.182 1.385,-2.125 3.072,-1.578 1.672,0.542 2,1.682 1.391,3.052 -0.604,1.365 -1.76,2.39 -2.468,3.724 -0.708,1.333 -1.314,2.761 -1.73,3.906 -0.474,1.298 -1.188,1.771 -1.661,1.787 -1.204,0.063 -2.005,-0.369 -2.005,-0.369"
     id="path384" />
  <path
     style="fill:none;stroke:#231f20;stroke-width:0.565977;stroke-linecap:butt;stroke-linejoin:miter;stroke-miterlimit:4;stroke-dasharray:none;stroke-opacity:1"
     d="m 137.94087,67.859757 c -1.156,-0.595 0.093,-2.204 0.358,-2.672 0.267,-0.475 0.866,-1.912 1.188,-3.09 0.328,-1.186 1.235,-2.525 1.855,-4.76 0.323,-1.182 1.385,-2.125 3.072,-1.578 1.672,0.542 2,1.682 1.391,3.052 -0.604,1.365 -1.76,2.39 -2.468,3.724 -0.708,1.333 -1.314,2.761 -1.73,3.906 -0.474,1.298 -1.188,1.771 -1.661,1.787 -1.204,0.063 -2.005,-0.369 -2.005,-0.369 z"
     id="path385" />
  <path
     style="fill:#ffffff;fill-opacity:1;fill-rule:nonzero;stroke:none"
     d="m 59.992876,64.619757 c 0.047,-0.24 1.197,-0.303 1.213,-0.823 0.016,-0.527 -0.749,-0.745 -1.552,-2.557 l -0.01,-0.022 c -0.547,-1.344 -1.563,-2.297 -2.807,-2.426 -2.068,-0.214 -3.98,1.885 -4.276,4.686 -0.297,2.819 1.145,5.267 3.208,5.486 1.973,0.208 3.812,-1.714 4.224,-4.344"
     id="path386" />
  <path
     style="fill:none;stroke:#231f20;stroke-width:0.565977;stroke-linecap:butt;stroke-linejoin:miter;stroke-miterlimit:4;stroke-dasharray:none;stroke-opacity:1"
     d="m 59.992876,64.619757 c 0.047,-0.24 1.197,-0.303 1.213,-0.823 0.016,-0.527 -0.749,-0.745 -1.552,-2.557 l -0.01,-0.022 c -0.547,-1.344 -1.563,-2.297 -2.807,-2.426 -2.068,-0.214 -3.98,1.885 -4.276,4.686 -0.297,2.819 1.145,5.267 3.208,5.486 1.973,0.208 3.812,-1.714 4.224,-4.344 z"
     id="path387" />
  <path
     style="fill:#231f20;fill-opacity:1;fill-rule:nonzero;stroke:none"
     d="m 71.763876,75.577757 c -0.578,0.286 -2.459,-0.218 -4.052,-0.005 -1.079,0.14 -3.708,-0.641 -4.771,-0.417 -0.975,0.204 -1.437,0.208 -1.86,-0.864 -0.249,-0.636 -0.323,-2.022 0.141,-2.23 1.088,-0.484 2.036,-0.51 3.078,-0.308 1.198,0.23 4.386,1.136 4.953,1.355 1.417,0.557 2.125,0.344 2.511,0.453 0.734,0.208 0.838,0.542 0.808,1.042 -0.058,0.964 -0.808,0.974 -0.808,0.974"
     id="path388" />
  <path
     style="fill:none;stroke:#231f20;stroke-width:0.565977;stroke-linecap:butt;stroke-linejoin:miter;stroke-miterlimit:4;stroke-dasharray:none;stroke-opacity:1"
     d="m 71.763876,75.577757 c -0.578,0.286 -2.459,-0.218 -4.052,-0.005 -1.079,0.14 -3.708,-0.641 -4.771,-0.417 -0.975,0.204 -1.437,0.208 -1.86,-0.864 -0.249,-0.636 -0.323,-2.022 0.141,-2.23 1.088,-0.484 2.036,-0.51 3.078,-0.308 1.198,0.23 4.386,1.136 4.953,1.355 1.417,0.557 2.125,0.344 2.511,0.453 0.734,0.208 0.838,0.542 0.808,1.042 -0.058,0.964 -0.808,0.974 -0.808,0.974 z"
     id="path389" />
  <path
     style="fill:#231f20;fill-opacity:1;fill-rule:nonzero;stroke:none"
     d="m 62.768876,74.504757 c -0.292,1.265 -2.161,0.448 -2.677,0.307 -0.531,-0.14 -2.068,-0.37 -3.287,-0.391 -1.228,-0.025 -2.749,-0.583 -5.072,-0.629 -1.224,-0.027 -2.396,-0.823 -2.281,-2.599 0.114,-1.751 1.14,-2.349 2.62,-2.095 1.468,0.256 2.749,1.12 4.213,1.48 1.463,0.359 3,0.599 4.208,0.719 1.375,0.14 2.005,0.713 2.14,1.177 0.355,1.146 0.136,2.031 0.136,2.031"
     id="path390" />
  <path
     style="fill:none;stroke:#231f20;stroke-width:0.565977;stroke-linecap:butt;stroke-linejoin:miter;stroke-miterlimit:4;stroke-dasharray:none;stroke-opacity:1"
     d="m 62.768876,74.504757 c -0.292,1.265 -2.161,0.448 -2.677,0.307 -0.531,-0.14 -2.068,-0.37 -3.287,-0.391 -1.228,-0.025 -2.749,-0.583 -5.072,-0.629 -1.224,-0.027 -2.396,-0.823 -2.281,-2.599 0.114,-1.751 1.14,-2.349 2.62,-2.095 1.468,0.256 2.749,1.12 4.213,1.48 1.463,0.359 3,0.599 4.208,0.719 1.375,0.14 2.005,0.713 2.14,1.177 0.355,1.146 0.136,2.031 0.136,2.031 z"
     id="path391" />
  <path
     style="fill:#ffffff;fill-opacity:1;fill-rule:nonzero;stroke:none"
     d="m 90.773876,62.400757 c 0.005,-0.251 1.131,-0.495 1.063,-1.011 -0.079,-0.526 -0.871,-0.614 -1.959,-2.27 l -0.016,-0.016 c -0.76,-1.235 -1.921,-2.011 -3.172,-1.932 -2.072,0.13 -3.609,2.521 -3.437,5.333 0.177,2.828 2,5 4.073,4.875 1.984,-0.12 3.479,-2.318 3.448,-4.979"
     id="path392" />
  <path
     style="fill:none;stroke:#231f20;stroke-width:0.565977;stroke-linecap:butt;stroke-linejoin:miter;stroke-miterlimit:4;stroke-dasharray:none;stroke-opacity:1"
     d="m 90.773876,62.400757 c 0.005,-0.251 1.131,-0.495 1.063,-1.011 -0.079,-0.526 -0.871,-0.614 -1.959,-2.27 l -0.016,-0.016 c -0.76,-1.235 -1.921,-2.011 -3.172,-1.932 -2.072,0.13 -3.609,2.521 -3.437,5.333 0.177,2.828 2,5 4.073,4.875 1.984,-0.12 3.479,-2.318 3.448,-4.979 z"
     id="path393" />
  <path
     style="fill:#231f20;fill-opacity:1;fill-rule:nonzero;stroke:none"
     d="m 110.36187,75.577757 c -0.577,0.286 -2.463,-0.218 -4.057,-0.005 -1.078,0.14 -3.703,-0.641 -4.766,-0.417 -0.973,0.204 -1.437,0.208 -1.857998,-0.864 -0.251,-0.636 -0.324,-2.022 0.14,-2.23 1.088998,-0.484 2.031998,-0.51 3.077998,-0.308 1.198,0.23 4.38,1.136 4.954,1.355 1.416,0.557 2.124,0.344 2.509,0.453 0.735,0.208 0.833,0.542 0.803,1.042 -0.052,0.964 -0.803,0.974 -0.803,0.974"
     id="path394" />
  <path
     style="fill:none;stroke:#231f20;stroke-width:0.565977;stroke-linecap:butt;stroke-linejoin:miter;stroke-miterlimit:4;stroke-dasharray:none;stroke-opacity:1"
     d="m 110.36187,75.577757 c -0.577,0.286 -2.463,-0.218 -4.057,-0.005 -1.078,0.14 -3.703,-0.641 -4.766,-0.417 -0.973,0.204 -1.437,0.208 -1.857998,-0.864 -0.251,-0.636 -0.324,-2.022 0.14,-2.23 1.088998,-0.484 2.031998,-0.51 3.077998,-0.308 1.198,0.23 4.38,1.136 4.954,1.355 1.416,0.557 2.124,0.344 2.509,0.453 0.735,0.208 0.833,0.542 0.803,1.042 -0.052,0.964 -0.803,0.974 -0.803,0.974 z"
     id="path395" />
  <path
     style="fill:#231f20;fill-opacity:1;fill-rule:nonzero;stroke:none"
     d="m 101.36687,74.504757 c -0.296,1.265 -2.160998,0.448 -2.676994,0.307 -0.531,-0.14 -2.067,-0.37 -3.291,-0.391 -1.224,-0.025 -2.745,-0.583 -5.068,-0.629 -1.224,-0.027 -2.396,-0.823 -2.281,-2.599 0.115,-1.751 1.14,-2.349 2.615,-2.095 1.473,0.256 2.749,1.12 4.218,1.48 1.464,0.359 3,0.599 4.207996,0.719 1.374998,0.14 2.005998,0.713 2.141998,1.177 0.353,1.146 0.134,2.031 0.134,2.031"
     id="path396" />
  <path
     style="fill:none;stroke:#231f20;stroke-width:0.565977;stroke-linecap:butt;stroke-linejoin:miter;stroke-miterlimit:4;stroke-dasharray:none;stroke-opacity:1"
     d="m 101.36687,74.504757 c -0.296,1.265 -2.160998,0.448 -2.676994,0.307 -0.531,-0.14 -2.067,-0.37 -3.291,-0.391 -1.224,-0.025 -2.745,-0.583 -5.068,-0.629 -1.224,-0.027 -2.396,-0.823 -2.281,-2.599 0.115,-1.751 1.14,-2.349 2.615,-2.095 1.473,0.256 2.749,1.12 4.218,1.48 1.464,0.359 3,0.599 4.207996,0.719 1.374998,0.14 2.005998,0.713 2.141998,1.177 0.353,1.146 0.134,2.031 0.134,2.031 z"
     id="path397" />
  <path
     style="fill:#231f20;fill-opacity:1;fill-rule:nonzero;stroke:none"
     d="m 307.69487,74.785757 c 0,1.178 0.953,2.131 2.136,2.131 1.177,0 2.131,-0.953 2.131,-2.131 0,-1.182 -0.954,-2.136 -2.131,-2.136 -1.183,0 -2.136,0.954 -2.136,2.136"
     id="path398" />
  <path
     style="fill:#231f20;fill-opacity:1;fill-rule:nonzero;stroke:none"
     d="m 328.24287,74.785757 c 0,1.178 0.952,2.131 2.129,2.131 1.178,0 2.136,-0.953 2.136,-2.131 0,-1.182 -0.958,-2.136 -2.136,-2.136 -1.177,0 -2.129,0.954 -2.129,2.136"
     id="path399" />
  <path
     style="fill:#231f20;fill-opacity:1;fill-rule:nonzero;stroke:none"
     d="m 278.94587,72.848757 c -0.86,1.375 -0.751,3 0.249,3.625 1,0.619 2.505,0.01 3.365,-1.37 0.864,-1.38 0.75,-3 -0.25,-3.626 -1,-0.624 -2.506,-0.009 -3.364,1.371"
     id="path400" />
  <path
     style="fill:#231f20;fill-opacity:1;fill-rule:nonzero;stroke:none"
     d="m 293.93487,74.529757 c 0.5,1.595 1.817,2.6 2.943,2.246 1.12,-0.35 1.63,-1.927 1.125,-3.522 -0.5,-1.598 -1.813,-2.604 -2.937,-2.249 -1.126,0.355 -1.631,1.932 -1.131,3.525"
     id="path401" />
  <path
     style="fill:#231f20;fill-opacity:1;fill-rule:nonzero;stroke:none"
     d="m 313.68987,82.807757 c 1.281,-0.147 1.198,1.457 1.261,1.885 0.057,0.427 0.405,1.624 0.823,2.531 0.426,0.906 0.458,2.182 1.26,3.906 0.417,0.906 0.098,2 -1.594,2.422 -1.672,0.417 -2.604,-0.167 -2.901,-1.323 -0.296,-1.156 0.041,-2.344 -0.151,-3.527 -0.202,-1.186 -0.541,-2.374 -0.86,-3.296 -0.369,-1.057 -0.057,-1.682 0.319,-1.917 0.932,-0.588 1.843,-0.681 1.843,-0.681"
     id="path402" />
  <path
     style="fill:none;stroke:#231f20;stroke-width:0.503387;stroke-linecap:butt;stroke-linejoin:miter;stroke-miterlimit:4;stroke-dasharray:none;stroke-opacity:1"
     d="m 313.68987,82.807757 c 1.281,-0.147 1.198,1.457 1.261,1.885 0.057,0.427 0.405,1.624 0.823,2.531 0.426,0.906 0.458,2.182 1.26,3.906 0.417,0.906 0.098,2 -1.594,2.422 -1.672,0.417 -2.604,-0.167 -2.901,-1.323 -0.296,-1.156 0.041,-2.344 -0.151,-3.527 -0.202,-1.186 -0.541,-2.374 -0.86,-3.296 -0.369,-1.057 -0.057,-1.682 0.319,-1.917 0.932,-0.588 1.843,-0.681 1.843,-0.681 z"
     id="path403" />
  <path
     style="fill:#231f20;fill-opacity:1;fill-rule:nonzero;stroke:none"
     d="m 309.30987,76.332757 c -0.192,0.484 0.589,1.891 0.62,3.161 0.021,0.86 1.193,2.818 1.136,3.672 -0.058,0.782 0.014,1.146 1.134,1.35 0.667,0.12 2.047,0.01 2.183,-0.38 0.317,-0.902 0.193,-1.647 -0.161,-2.443 -0.407,-0.901 -1.792,-3.276 -2.099,-3.699 -0.761,-1.036 -0.657,-1.614 -0.824,-1.906 -0.317,-0.547 -0.661,-0.583 -1.156,-0.5 -0.932,0.162 -0.833,0.745 -0.833,0.745"
     id="path404" />
  <path
     style="fill:none;stroke:#231f20;stroke-width:0.503387;stroke-linecap:butt;stroke-linejoin:miter;stroke-miterlimit:4;stroke-dasharray:none;stroke-opacity:1"
     d="m 309.30987,76.332757 c -0.192,0.484 0.589,1.891 0.62,3.161 0.021,0.86 1.193,2.818 1.136,3.672 -0.058,0.782 0.014,1.146 1.134,1.35 0.667,0.12 2.047,0.01 2.183,-0.38 0.317,-0.902 0.193,-1.647 -0.161,-2.443 -0.407,-0.901 -1.792,-3.276 -2.099,-3.699 -0.761,-1.036 -0.657,-1.614 -0.824,-1.906 -0.317,-0.547 -0.661,-0.583 -1.156,-0.5 -0.932,0.162 -0.833,0.745 -0.833,0.745 z"
     id="path405" />
  <path
     style="fill:#231f20;fill-opacity:1;fill-rule:nonzero;stroke:none"
     d="m 327.59087,82.920757 c -1.296,-0.036 -0.995,1.553 -0.995,1.98 0,0.432 -0.182,1.651 -0.478,2.588 -0.292,0.937 -0.156,2.208 -0.714,3.989 -0.292,0.939 0.176,2 1.916,2.276 1.719,0.272 2.563,-0.39 2.703,-1.561 0.136,-1.183 -0.364,-2.329 -0.328,-3.527 0.032,-1.188 0.209,-2.406 0.401,-3.349 0.224,-1.077 -0.172,-1.672 -0.577,-1.875 -1.011,-0.505 -1.928,-0.521 -1.928,-0.521"
     id="path406" />
  <path
     style="fill:none;stroke:#231f20;stroke-width:0.503387;stroke-linecap:butt;stroke-linejoin:miter;stroke-miterlimit:4;stroke-dasharray:none;stroke-opacity:1"
     d="m 327.59087,82.920757 c -1.296,-0.036 -0.995,1.553 -0.995,1.98 0,0.432 -0.182,1.651 -0.478,2.588 -0.292,0.937 -0.156,2.208 -0.714,3.989 -0.292,0.939 0.176,2 1.916,2.276 1.719,0.272 2.563,-0.39 2.703,-1.561 0.136,-1.183 -0.364,-2.329 -0.328,-3.527 0.032,-1.188 0.209,-2.406 0.401,-3.349 0.224,-1.077 -0.172,-1.672 -0.577,-1.875 -1.011,-0.505 -1.928,-0.521 -1.928,-0.521 z"
     id="path407" />
  <path
     style="fill:#231f20;fill-opacity:1;fill-rule:nonzero;stroke:none"
     d="m 331.06587,76.108757 c 0.254,0.469 -0.328,1.932 -0.194,3.197 0.099,0.855 -0.797,2.902 -0.62,3.751 0.162,0.771 0.142,1.136 -0.948,1.432 -0.645,0.177 -2.03,0.188 -2.218,-0.187 -0.443,-0.876 -0.422,-1.62 -0.172,-2.442 0.281,-0.934 1.329,-3.412 1.578,-3.855 0.615,-1.099 0.432,-1.661 0.558,-1.969 0.24,-0.567 0.578,-0.635 1.078,-0.594 0.952,0.084 0.938,0.667 0.938,0.667"
     id="path408" />
  <path
     style="fill:none;stroke:#231f20;stroke-width:0.503387;stroke-linecap:butt;stroke-linejoin:miter;stroke-miterlimit:4;stroke-dasharray:none;stroke-opacity:1"
     d="m 331.06587,76.108757 c 0.254,0.469 -0.328,1.932 -0.194,3.197 0.099,0.855 -0.797,2.902 -0.62,3.751 0.162,0.771 0.142,1.136 -0.948,1.432 -0.645,0.177 -2.03,0.188 -2.218,-0.187 -0.443,-0.876 -0.422,-1.62 -0.172,-2.442 0.281,-0.934 1.329,-3.412 1.578,-3.855 0.615,-1.099 0.432,-1.661 0.558,-1.969 0.24,-0.567 0.578,-0.635 1.078,-0.594 0.952,0.084 0.938,0.667 0.938,0.667 z"
     id="path409" />
  <path
     style="fill:#231f20;fill-opacity:1;fill-rule:nonzero;stroke:none"
     d="m 222.12287,40.384757 c -1.313,3.36 0.343,3.656 3.661,6.0266 3.63,2.5984 7.687,4.9164 10.906,5.6454 3.6,0.817 3.662,1.333 4.917,-0.109 1.265,-1.448 0.692,-1.975 0.421,-3.235 -0.312,-1.459 -7.396,-3.448 -11.156,-6.3493 -1.765,-1.3587 -5.109,-5.76 -6.24,-4.8427 -1.129,0.9107 -2.509,2.864 -2.509,2.864"
     id="path410" />
  <path
     style="fill:none;stroke:#231f20;stroke-width:0.565977;stroke-linecap:butt;stroke-linejoin:miter;stroke-miterlimit:4;stroke-dasharray:none;stroke-opacity:1"
     d="m 222.12287,40.384757 c -1.313,3.36 0.343,3.656 3.661,6.0266 3.63,2.5984 7.687,4.9164 10.906,5.6454 3.6,0.817 3.662,1.333 4.917,-0.109 1.265,-1.448 0.692,-1.975 0.421,-3.235 -0.312,-1.459 -7.396,-3.448 -11.156,-6.3493 -1.765,-1.3587 -5.109,-5.76 -6.24,-4.8427 -1.129,0.9107 -2.509,2.864 -2.509,2.864 z"
     id="path411" />
  <path
     style="fill:#231f20;fill-opacity:1;fill-rule:nonzero;stroke:none"
     d="m 240.39887,50.040757 c -1.287,1.865 -1.683,2.391 0.577,3.469 0.574,0.276 2.23,0.916 2.522,1.172 0.978,0.854 2.188,1.76 8.604,3.214 1,0.224 2.822,0.984 4.161,1.406 1.297,0.411 1.104,-2.016 0.593,-2.182 -1.624,-0.536 -2.557,-1.24 -3.114,-1.511 -0.386,-0.188 -1.156,-0.416 -2.427,-1.489 -3.265,-2.771 -5.025,-2.391 -5.76,-2.912 -2.109,-1.49 -3.604,-3.198 -4.161,-2.834 -0.902,0.599 -0.995,1.667 -0.995,1.667"
     id="path412" />
  <path
     style="fill:none;stroke:#231f20;stroke-width:0.565977;stroke-linecap:butt;stroke-linejoin:miter;stroke-miterlimit:4;stroke-dasharray:none;stroke-opacity:1"
     d="m 240.39887,50.040757 c -1.287,1.865 -1.683,2.391 0.577,3.469 0.574,0.276 2.23,0.916 2.522,1.172 0.978,0.854 2.188,1.76 8.604,3.214 1,0.224 2.822,0.984 4.161,1.406 1.297,0.411 1.104,-2.016 0.593,-2.182 -1.624,-0.536 -2.557,-1.24 -3.114,-1.511 -0.386,-0.188 -1.156,-0.416 -2.427,-1.489 -3.265,-2.771 -5.025,-2.391 -5.76,-2.912 -2.109,-1.49 -3.604,-3.198 -4.161,-2.834 -0.902,0.599 -0.995,1.667 -0.995,1.667 z"
     id="path413" />
  <path
     style="fill:#231f20;fill-opacity:1;fill-rule:nonzero;stroke:none"
     d="m 224.57087,35.854057 c 2.099,-2.9333 3.249,-1.704 7.052,-0.2186 4.151,1.624 8.307,3.7653 10.676,6.0613 2.647,2.568 3.109,2.3386 2.589,4.188 -0.526,1.844 -1.281,1.651 -2.48,2.115 -1.394,0.536 -6.921,-4.3177 -11.405,-5.8963 -2.104,-0.7347 -7.615,-1.1347 -7.464,-2.5827 0.151,-1.448 1.032,-3.6667 1.032,-3.6667"
     id="path414" />
  <path
     style="fill:none;stroke:#231f20;stroke-width:0.565977;stroke-linecap:butt;stroke-linejoin:miter;stroke-miterlimit:4;stroke-dasharray:none;stroke-opacity:1"
     d="m 224.57087,35.854057 c 2.099,-2.9333 3.249,-1.704 7.052,-0.2186 4.151,1.624 8.307,3.7653 10.676,6.0613 2.647,2.568 3.109,2.3386 2.589,4.188 -0.526,1.844 -1.281,1.651 -2.48,2.115 -1.394,0.536 -6.921,-4.3177 -11.405,-5.8963 -2.104,-0.7347 -7.615,-1.1347 -7.464,-2.5827 0.151,-1.448 1.032,-3.6667 1.032,-3.6667 z"
     id="path415" />
  <path
     style="fill:#231f20;fill-opacity:1;fill-rule:nonzero;stroke:none"
     d="m 242.63187,45.879357 c 0.876,-2.088 1.106,-2.7133 3.224,-1.3906 0.543,0.3386 1.98,1.38 2.355,1.484 1.251,0.3653 2.661,0.8866 7.36,5.505 0.728,0.719 2.348,1.844 3.427,2.74 1.052,0.866 -1.094,2.016 -1.511,1.678 -1.333,-1.074 -2.427,-1.479 -2.959,-1.803 -0.364,-0.219 -0.973,-0.749 -2.566,-1.233 -4.095,-1.251 -4.724,-2.939 -5.558,-3.276 -2.396,-0.964 -4.646,-1.298 -4.63,-1.964 0.01,-1.0844 0.858,-1.7404 0.858,-1.7404"
     id="path416" />
  <path
     style="fill:none;stroke:#231f20;stroke-width:0.565977;stroke-linecap:butt;stroke-linejoin:miter;stroke-miterlimit:4;stroke-dasharray:none;stroke-opacity:1"
     d="m 242.63187,45.879357 c 0.876,-2.088 1.106,-2.7133 3.224,-1.3906 0.543,0.3386 1.98,1.38 2.355,1.484 1.251,0.3653 2.661,0.8866 7.36,5.505 0.728,0.719 2.348,1.844 3.427,2.74 1.052,0.866 -1.094,2.016 -1.511,1.678 -1.333,-1.074 -2.427,-1.479 -2.959,-1.803 -0.364,-0.219 -0.973,-0.749 -2.566,-1.233 -4.095,-1.251 -4.724,-2.939 -5.558,-3.276 -2.396,-0.964 -4.646,-1.298 -4.63,-1.964 0.01,-1.0844 0.858,-1.7404 0.858,-1.7404 z"
     id="path417" />
  <path
     style="fill:#231f20;fill-opacity:1;fill-rule:nonzero;stroke:none"
     d="m 262.00287,53.889757 c -0.401,-0.536 -2.147,-0.078 -3.907,-0.958 -0.358,-0.182 -0.734,-0.156 -1.109,-0.192 -1.5,-0.147 -2.943,0.546 -0.068,3.072 0.401,0.354 2.407,0.964 2.953,1.526 1.298,1.344 4.62,1.255 4.724,0.746 0.246,-1.095 -2.593,-4.194 -2.593,-4.194"
     id="path418" />
  <path
     style="fill:none;stroke:#231f20;stroke-width:0.644548;stroke-linecap:round;stroke-linejoin:round;stroke-miterlimit:4;stroke-dasharray:none;stroke-opacity:1"
     d="m 262.00287,53.889757 c -0.401,-0.536 -2.147,-0.078 -3.907,-0.958 -0.358,-0.182 -0.734,-0.156 -1.109,-0.192 -1.5,-0.147 -2.943,0.546 -0.068,3.072 0.401,0.354 2.407,0.964 2.953,1.526 1.298,1.344 4.62,1.255 4.724,0.746 0.246,-1.095 -2.593,-4.194 -2.593,-4.194 z"
     id="path419" />
  <path
     style="fill:#231f20;fill-opacity:1;fill-rule:nonzero;stroke:none"
     d="m 258.26287,61.468757 c -0.667,-0.032 -1.26,-1.74 -2.968,-2.709 -0.355,-0.203 -0.543,-0.526 -0.776,-0.812 -0.959,-1.167 -1.183,-2.751 2.515,-1.766 0.51,0.135 2.141,1.463 2.912,1.599 1.833,0.333 3.609,3.14 3.249,3.511 -0.771,0.812 -4.932,0.177 -4.932,0.177"
     id="path420" />
  <path
     style="fill:none;stroke:#231f20;stroke-width:0.644548;stroke-linecap:round;stroke-linejoin:round;stroke-miterlimit:4;stroke-dasharray:none;stroke-opacity:1"
     d="m 258.26287,61.468757 c -0.667,-0.032 -1.26,-1.74 -2.968,-2.709 -0.355,-0.203 -0.543,-0.526 -0.776,-0.812 -0.959,-1.167 -1.183,-2.751 2.515,-1.766 0.51,0.135 2.141,1.463 2.912,1.599 1.833,0.333 3.609,3.14 3.249,3.511 -0.771,0.812 -4.932,0.177 -4.932,0.177 z"
     id="path421" />
  <path
     style="fill:none;stroke:#231f20;stroke-width:0.399514;stroke-linecap:butt;stroke-linejoin:miter;stroke-miterlimit:4;stroke-dasharray:none;stroke-opacity:1"
     d="m 217.46587,9.2074566 c 11.12,-19.0053 40.433,-13.7493 39.824,73.3803004"
     id="path422" />
  <path
     style="fill:#231f20;fill-opacity:1;fill-rule:nonzero;stroke:none"
     d="m 257.28387,83.796757 c -0.209,-0.568 -0.562,-1.276 -0.937,-1.713 l 0.948,0.348 0.952,-0.339 c -0.385,0.437 -0.749,1.136 -0.963,1.704"
     id="path423" />
  <path
     style="fill:none;stroke:#231f20;stroke-width:0.399514;stroke-linecap:butt;stroke-linejoin:miter;stroke-miterlimit:4;stroke-dasharray:none;stroke-opacity:1"
     d="m 184.41887,66.879757 c 4.771,-26.0523 -8.15,-29.1097 -13.082,-22.2924"
     id="path424" />
  <path
     style="fill:#231f20;fill-opacity:1;fill-rule:nonzero;stroke:none"
     d="m 170.62887,45.562057 c 0.161,-0.584 0.285,-1.3653 0.233,-1.9373 l 0.568,0.8333 0.969,0.2813 c -0.562,0.1294 -1.266,0.484 -1.77,0.8227"
     id="path425" />
  <path
     style="fill:#231f20;fill-opacity:1;fill-rule:nonzero;stroke:none"
     d="m 224.56587,29.302157 c 0.317,-2.8027 -1.1,-5.272 -3.167,-5.5 -2.063,-0.2294 -3.995,1.8586 -4.308,4.672 -0.312,2.8013 1.099,5.2653 3.172,5.4946 2.063,0.2333 3.989,-1.86 4.303,-4.6666"
     id="path426" />
  <path
     style="fill:none;stroke:#231f20;stroke-width:0.565977;stroke-linecap:butt;stroke-linejoin:miter;stroke-miterlimit:4;stroke-dasharray:none;stroke-opacity:1"
     d="m 224.56587,29.302157 c 0.317,-2.8027 -1.1,-5.272 -3.167,-5.5 -2.063,-0.2294 -3.995,1.8586 -4.308,4.672 -0.312,2.8013 1.099,5.2653 3.172,5.4946 2.063,0.2333 3.989,-1.86 4.303,-4.6666 z"
     id="path427" />
  <path
     style="fill:#63c99d;fill-opacity:1;fill-rule:nonzero;stroke:none"
     d="m 226.29887,42.270057 c -2.457,1.016 -5.577,-0.9213 -6.979,-4.3226 -1.396,-3.396 -0.541,-6.9694 1.918,-7.9787 2.457,-1.0106 5.582,0.9213 6.978,4.3227 1.402,3.4013 0.542,6.9733 -1.917,7.9786"
     id="path428" />
  <path
     style="fill:none;stroke:#231f20;stroke-width:0.565977;stroke-linecap:butt;stroke-linejoin:miter;stroke-miterlimit:4;stroke-dasharray:none;stroke-opacity:1"
     d="m 226.29887,42.270057 c -2.457,1.016 -5.577,-0.9213 -6.979,-4.3226 -1.396,-3.396 -0.541,-6.9694 1.918,-7.9787 2.457,-1.0106 5.582,0.9213 6.978,4.3227 1.402,3.4013 0.542,6.9733 -1.917,7.9786 z"
     id="path429" />
  <path
     style="fill:#63c99d;fill-opacity:1;fill-rule:nonzero;stroke:none"
     d="m 221.41387,41.160757 c 0.052,0.276 0.442,1.912 0.589,2.224 0.963,1.948 2.708,3.7026 3.52,4.073 2.448,1.11 4.167,-4.8223 4.167,-4.8223 l -0.271,-1.1254 c 0.495,-0.208 0.104,-0.1506 0.104,-0.1506 l 1.267,-0.292 c 0,0 4.676,-3.1094 2.801,-5.1507 -0.651,-0.7093 -3.672,-1.5573 -5.484,-1.6307 -0.984,-0.0413 -2.568,0.4267 -2.568,0.4267 0,0 -1.891,1.032 -2.677,2.2187 -0.791,1.188 -1.448,4.2293 -1.448,4.2293"
     id="path430" />
  <path
     style="fill:none;stroke:#231f20;stroke-width:0.565977;stroke-linecap:butt;stroke-linejoin:miter;stroke-miterlimit:4;stroke-dasharray:none;stroke-opacity:1"
     d="m 221.41387,41.160757 c 0.052,0.276 0.442,1.912 0.589,2.224 0.963,1.948 2.708,3.7026 3.52,4.073 2.448,1.11 4.167,-4.8223 4.167,-4.8223 l -0.271,-1.1254 c 0.495,-0.208 0.104,-0.1506 0.104,-0.1506 l 1.267,-0.292 c 0,0 4.676,-3.1094 2.801,-5.1507 -0.651,-0.7093 -3.672,-1.5573 -5.484,-1.6307 -0.984,-0.0413 -2.568,0.4267 -2.568,0.4267 0,0 -1.891,1.032 -2.677,2.2187 -0.791,1.188 -1.448,4.2293 -1.448,4.2293 z"
     id="path431" />
  <path
     style="fill:none;stroke:#231f20;stroke-width:0.467431;stroke-linecap:round;stroke-linejoin:round;stroke-miterlimit:4;stroke-dasharray:none;stroke-opacity:1"
     d="m 227.45087,43.936757 c 1.427,-0.6307 1.957,-2.6093 1.957,-2.6093 1.314,-1.1867 1.688,-2.6507 1.688,-2.6507"
     id="path432" />
  <path
     style="fill:#231f20;fill-opacity:1;fill-rule:nonzero;stroke:none"
     d="m 323.49187,113.96876 c -1.521,-0.256 -1.89,-4.443 -1.344,-7.636 0.538,-3.192 2.208,-5.568 3.73,-5.312 1.521,0.26 2.312,3.057 1.77,6.249 -0.541,3.193 -2.634,6.959 -4.156,6.699"
     id="path433" />
  <path
     style="fill:none;stroke:#231f20;stroke-width:0.506049;stroke-linecap:round;stroke-linejoin:round;stroke-miterlimit:4;stroke-dasharray:none;stroke-opacity:1"
     d="m 323.49187,113.96876 c -1.521,-0.256 -1.89,-4.443 -1.344,-7.636 0.538,-3.192 2.208,-5.568 3.73,-5.312 1.521,0.26 2.312,3.057 1.77,6.249 -0.541,3.193 -2.634,6.959 -4.156,6.699 z"
     id="path434" />
  <path
     style="fill:#231f20;fill-opacity:1;fill-rule:nonzero;stroke:none"
     d="m 318.28987,113.94176 c -1.694,0.093 -3.084,-3.901 -3.267,-7.131 -0.176,-3.233 1.052,-5.931 2.745,-6.025 1.694,-0.093 3.208,2.448 3.386,5.683 0.182,3.233 -1.167,7.38 -2.864,7.473"
     id="path435" />
  <path
     style="fill:none;stroke:#231f20;stroke-width:0.530021;stroke-linecap:round;stroke-linejoin:round;stroke-miterlimit:4;stroke-dasharray:none;stroke-opacity:1"
     d="m 318.28987,113.94176 c -1.694,0.093 -3.084,-3.901 -3.267,-7.131 -0.176,-3.233 1.052,-5.931 2.745,-6.025 1.694,-0.093 3.208,2.448 3.386,5.683 0.182,3.233 -1.167,7.38 -2.864,7.473 z"
     id="path436" />
  <path
     style="fill:#231f20;fill-opacity:1;fill-rule:nonzero;stroke:none"
     d="m 324.88287,86.873757 c -0.24,-2.817 -2.109,-4.957 -4.177,-4.781 -2.068,0.172 -3.558,2.6 -3.318,5.417 0.24,2.812 2.104,4.954 4.178,4.776 2.066,-0.172 3.557,-2.598 3.317,-5.412"
     id="path437" />
  <path
     style="fill:none;stroke:#231f20;stroke-width:0.565977;stroke-linecap:butt;stroke-linejoin:miter;stroke-miterlimit:4;stroke-dasharray:none;stroke-opacity:1"
     d="m 324.88287,86.873757 c -0.24,-2.817 -2.109,-4.957 -4.177,-4.781 -2.068,0.172 -3.558,2.6 -3.318,5.417 0.24,2.812 2.104,4.954 4.178,4.776 2.066,-0.172 3.557,-2.598 3.317,-5.412 z"
     id="path438" />
  <path
     style="fill:#ffffff;fill-opacity:1;fill-rule:nonzero;stroke:none"
     d="m 324.92987,117.68676 c 0.36,-0.568 -0.683,-2.042 -0.474,-4.005 0.042,-0.396 -0.114,-0.735 -0.209,-1.099 -0.395,-1.458 -1.552,-2.562 -2.905,1.02 -0.188,0.495 -0.052,2.59 -0.386,3.298 -0.802,1.686 0.452,4.765 0.963,4.686 1.115,-0.161 3.011,-3.9 3.011,-3.9"
     id="path439" />
  <path
     style="fill:none;stroke:#231f20;stroke-width:0.644548;stroke-linecap:round;stroke-linejoin:round;stroke-miterlimit:4;stroke-dasharray:none;stroke-opacity:1"
     d="m 324.92987,117.68676 c 0.36,-0.568 -0.683,-2.042 -0.474,-4.005 0.042,-0.396 -0.114,-0.735 -0.209,-1.099 -0.395,-1.458 -1.552,-2.562 -2.905,1.02 -0.188,0.495 -0.052,2.59 -0.386,3.298 -0.802,1.686 0.452,4.765 0.963,4.686 1.115,-0.161 3.011,-3.9 3.011,-3.9 z"
     id="path440" />
  <path
     style="fill:#ffffff;fill-opacity:1;fill-rule:nonzero;stroke:none"
     d="m 316.61187,117.73876 c -0.36,-0.562 0.672,-2.042 0.448,-4 -0.046,-0.396 0.11,-0.74 0.203,-1.104 0.38,-1.458 1.521,-2.578 2.912,1 0.187,0.49 0.072,2.588 0.405,3.291 0.819,1.677 -0.41,4.767 -0.926,4.693 -1.115,-0.15 -3.042,-3.88 -3.042,-3.88"
     id="path441" />
  <path
     style="fill:none;stroke:#231f20;stroke-width:0.644548;stroke-linecap:round;stroke-linejoin:round;stroke-miterlimit:4;stroke-dasharray:none;stroke-opacity:1"
     d="m 316.61187,117.73876 c -0.36,-0.562 0.672,-2.042 0.448,-4 -0.046,-0.396 0.11,-0.74 0.203,-1.104 0.38,-1.458 1.521,-2.578 2.912,1 0.187,0.49 0.072,2.588 0.405,3.291 0.819,1.677 -0.41,4.767 -0.926,4.693 -1.115,-0.15 -3.042,-3.88 -3.042,-3.88 z"
     id="path442" />
  <path
     style="fill:#63c99d;fill-opacity:1;fill-rule:nonzero;stroke:none"
     d="m 330.19987,91.015757 c 0,0 -0.629,-1.839 -3.416,-1.459 -1.005,0.14 -3.224,-0.563 -3.224,-0.563 0.011,0.042 -4.713,0.079 -4.698,0.036 0,0 -2.208,0.735 -3.219,0.615 -2.787,-0.339 -3.328,1.781 -3.328,1.781 -1.047,1.896 1.475,2.115 2.391,3.699 0.666,1.161 2.041,6.072003 2.125,9.322003 l 8.995,-0.068 c 0.036,-3.254 1.338,-8.186003 1.984,-9.358003 0.896,-1.6 3.464,-2.125 2.39,-4.005"
     id="path443" />
  <path
     style="fill:none;stroke:#231f20;stroke-width:0.565977;stroke-linecap:round;stroke-linejoin:round;stroke-miterlimit:4;stroke-dasharray:none;stroke-opacity:1"
     d="m 330.19987,91.015757 c 0,0 -0.629,-1.839 -3.416,-1.459 -1.005,0.14 -3.224,-0.563 -3.224,-0.563 0.011,0.042 -4.713,0.079 -4.698,0.036 0,0 -2.208,0.735 -3.219,0.615 -2.787,-0.339 -3.328,1.781 -3.328,1.781 -1.047,1.896 1.475,2.115 2.391,3.699 0.666,1.161 2.041,6.072003 2.125,9.322003 l 8.995,-0.068 c 0.036,-3.254 1.338,-8.186003 1.984,-9.358003 0.896,-1.6 3.464,-2.125 2.39,-4.005 z"
     id="path444" />
  <path
     style="fill:#63c99d;fill-opacity:1;fill-rule:nonzero;stroke:none"
     d="m 317.37187,97.816757 c -0.202,0.193 -1.369,1.417 -1.546,1.704 -1.115,1.869003 -1.636,4.286003 -1.506,5.172003 0.396,2.65 6.312,0.869 6.312,0.869 l 0.798,-0.833 c 0.448,0.301 0.182,0.005 0.182,0.005 l 0.932,0.905 c 0,0 5.156,2.235 5.85,-0.452 0.238,-0.928 -0.694,-3.927 -1.615,-5.485003 -0.5,-0.853 -1.756,-1.926 -1.756,-1.926 0,0 -1.891,-1.026 -3.317,-1.042 -1.422,-0.016 -4.334,1.083 -4.334,1.083"
     id="path445" />
  <path
     style="fill:none;stroke:#231f20;stroke-width:0.565977;stroke-linecap:butt;stroke-linejoin:miter;stroke-miterlimit:4;stroke-dasharray:none;stroke-opacity:1"
     d="m 317.37187,97.816757 c -0.202,0.193 -1.369,1.417 -1.546,1.704 -1.115,1.869003 -1.636,4.286003 -1.506,5.172003 0.396,2.65 6.312,0.869 6.312,0.869 l 0.798,-0.833 c 0.448,0.301 0.182,0.005 0.182,0.005 l 0.932,0.905 c 0,0 5.156,2.235 5.85,-0.452 0.238,-0.928 -0.694,-3.927 -1.615,-5.485003 -0.5,-0.853 -1.756,-1.926 -1.756,-1.926 0,0 -1.891,-1.026 -3.317,-1.042 -1.422,-0.016 -4.334,1.083 -4.334,1.083 z"
     id="path446" />
  <path
     style="fill:none;stroke:#231f20;stroke-width:0.467431;stroke-linecap:round;stroke-linejoin:round;stroke-miterlimit:4;stroke-dasharray:none;stroke-opacity:1"
     d="m 318.31987,104.39476 c 1.308,0.859 3.256,0.224 3.256,0.224 1.708,0.464 3.146,-0.026 3.146,-0.026"
     id="path447" />
  <path
     style="fill:#231f20;fill-opacity:1;fill-rule:nonzero;stroke:none"
     d="m 290.74187,96.785757 c -1.52,-0.26 -1.89,-4.442 -1.348,-7.636 0.546,-3.192 2.213,-5.566 3.734,-5.312 1.52,0.26 2.312,3.058 1.771,6.25 -0.543,3.188 -2.636,6.958 -4.157,6.698"
     id="path448" />
  <path
     style="fill:none;stroke:#231f20;stroke-width:0.506049;stroke-linecap:round;stroke-linejoin:round;stroke-miterlimit:4;stroke-dasharray:none;stroke-opacity:1"
     d="m 290.74187,96.785757 c -1.52,-0.26 -1.89,-4.442 -1.348,-7.636 0.546,-3.192 2.213,-5.566 3.734,-5.312 1.52,0.26 2.312,3.058 1.771,6.25 -0.543,3.188 -2.636,6.958 -4.157,6.698 z"
     id="path449" />
  <path
     style="fill:#231f20;fill-opacity:1;fill-rule:nonzero;stroke:none"
     d="m 285.53887,96.759757 c -1.692,0.094 -3.088,-3.9 -3.265,-7.13 -0.183,-3.234 1.046,-5.933 2.74,-6.026 1.692,-0.094 3.213,2.448 3.39,5.682 0.182,3.235 -1.172,7.38 -2.865,7.474"
     id="path450" />
  <path
     style="fill:none;stroke:#231f20;stroke-width:0.530021;stroke-linecap:round;stroke-linejoin:round;stroke-miterlimit:4;stroke-dasharray:none;stroke-opacity:1"
     d="m 285.53887,96.759757 c -1.692,0.094 -3.088,-3.9 -3.265,-7.13 -0.183,-3.234 1.046,-5.933 2.74,-6.026 1.692,-0.094 3.213,2.448 3.39,5.682 0.182,3.235 -1.172,7.38 -2.865,7.474 z"
     id="path451" />
  <path
     style="fill:#231f20;fill-opacity:1;fill-rule:nonzero;stroke:none"
     d="m 292.13187,69.692757 c -0.233,-2.819 -2.104,-4.959 -4.176,-4.781 -2.068,0.172 -3.557,2.593 -3.318,5.41 0.24,2.819 2.104,4.959 4.177,4.776 2.068,-0.166 3.557,-2.593 3.317,-5.405"
     id="path452" />
  <path
     style="fill:none;stroke:#231f20;stroke-width:0.565977;stroke-linecap:butt;stroke-linejoin:miter;stroke-miterlimit:4;stroke-dasharray:none;stroke-opacity:1"
     d="m 292.13187,69.692757 c -0.233,-2.819 -2.104,-4.959 -4.176,-4.781 -2.068,0.172 -3.557,2.593 -3.318,5.41 0.24,2.819 2.104,4.959 4.177,4.776 2.068,-0.166 3.557,-2.593 3.317,-5.405 z"
     id="path453" />
  <path
     style="fill:#ffffff;fill-opacity:1;fill-rule:nonzero;stroke:none"
     d="m 292.17987,100.49976 c 0.359,-0.568003 -0.682,-2.042003 -0.48,-4.000003 0.047,-0.402 -0.109,-0.735 -0.208,-1.099 -0.39,-1.459 -1.541,-2.563 -2.901,1.02 -0.187,0.491 -0.052,2.589 -0.385,3.292 -0.802,1.693003 0.453,4.765003 0.964,4.688003 1.114,-0.156 3.01,-3.901 3.01,-3.901"
     id="path454" />
  <path
     style="fill:none;stroke:#231f20;stroke-width:0.644548;stroke-linecap:round;stroke-linejoin:round;stroke-miterlimit:4;stroke-dasharray:none;stroke-opacity:1"
     d="m 292.17987,100.49976 c 0.359,-0.568003 -0.682,-2.042003 -0.48,-4.000003 0.047,-0.402 -0.109,-0.735 -0.208,-1.099 -0.39,-1.459 -1.541,-2.563 -2.901,1.02 -0.187,0.491 -0.052,2.589 -0.385,3.292 -0.802,1.693003 0.453,4.765003 0.964,4.688003 1.114,-0.156 3.01,-3.901 3.01,-3.901 z"
     id="path455" />
  <path
     style="fill:#ffffff;fill-opacity:1;fill-rule:nonzero;stroke:none"
     d="m 283.86187,100.55676 c -0.359,-0.563003 0.666,-2.047003 0.448,-4.000003 -0.047,-0.401 0.104,-0.74 0.198,-1.104 0.386,-1.464 1.531,-2.579 2.916,0.995 0.188,0.494 0.068,2.593 0.407,3.297 0.812,1.676003 -0.412,4.765003 -0.927,4.692003 -1.109,-0.151 -3.042,-3.88 -3.042,-3.88"
     id="path456" />
  <path
     style="fill:none;stroke:#231f20;stroke-width:0.644548;stroke-linecap:round;stroke-linejoin:round;stroke-miterlimit:4;stroke-dasharray:none;stroke-opacity:1"
     d="m 283.86187,100.55676 c -0.359,-0.563003 0.666,-2.047003 0.448,-4.000003 -0.047,-0.401 0.104,-0.74 0.198,-1.104 0.386,-1.464 1.531,-2.579 2.916,0.995 0.188,0.494 0.068,2.593 0.407,3.297 0.812,1.676003 -0.412,4.765003 -0.927,4.692003 -1.109,-0.151 -3.042,-3.88 -3.042,-3.88 z"
     id="path457" />
  <path
     style="fill:#63c99d;fill-opacity:1;fill-rule:nonzero;stroke:none"
     d="m 297.45087,73.832757 c 0,0 -0.631,-1.844 -3.412,-1.464 -1.005,0.141 -3.224,-0.557 -3.224,-0.557 0.005,0.042 -4.713,0.073 -4.703,0.037 0,0 -2.208,0.735 -3.218,0.609 -2.787,-0.338 -3.328,1.787 -3.328,1.787 -1.047,1.891 1.473,2.115 2.39,3.697 0.667,1.156 2.042,6.074 2.13,9.323 l 8.989,-0.072 c 0.037,-3.251 1.339,-8.188 1.985,-9.355 0.896,-1.598 3.463,-2.125 2.391,-4.005"
     id="path458" />
  <path
     style="fill:none;stroke:#231f20;stroke-width:0.565977;stroke-linecap:round;stroke-linejoin:round;stroke-miterlimit:4;stroke-dasharray:none;stroke-opacity:1"
     d="m 297.45087,73.832757 c 0,0 -0.631,-1.844 -3.412,-1.464 -1.005,0.141 -3.224,-0.557 -3.224,-0.557 0.005,0.042 -4.713,0.073 -4.703,0.037 0,0 -2.208,0.735 -3.218,0.609 -2.787,-0.338 -3.328,1.787 -3.328,1.787 -1.047,1.891 1.473,2.115 2.39,3.697 0.667,1.156 2.042,6.074 2.13,9.323 l 8.989,-0.072 c 0.037,-3.251 1.339,-8.188 1.985,-9.355 0.896,-1.598 3.463,-2.125 2.391,-4.005 z"
     id="path459" />
  <path
     style="fill:#63c99d;fill-opacity:1;fill-rule:nonzero;stroke:none"
     d="m 284.62287,80.635757 c -0.209,0.192 -1.371,1.41 -1.548,1.702 -1.113,1.87 -1.635,4.287 -1.504,5.167 0.395,2.656 6.312,0.875 6.312,0.875 l 0.797,-0.834 c 0.443,0.298 0.182,0 0.182,0 l 0.933,0.912 c 0,0 5.151,2.235 5.848,-0.453 0.24,-0.932 -0.692,-3.927 -1.615,-5.484 -0.5,-0.855 -1.754,-1.928 -1.754,-1.928 0,0 -1.891,-1.025 -3.318,-1.041 -1.428,-0.016 -4.333,1.084 -4.333,1.084"
     id="path460" />
  <path
     style="fill:none;stroke:#231f20;stroke-width:0.565977;stroke-linecap:butt;stroke-linejoin:miter;stroke-miterlimit:4;stroke-dasharray:none;stroke-opacity:1"
     d="m 284.62287,80.635757 c -0.209,0.192 -1.371,1.41 -1.548,1.702 -1.113,1.87 -1.635,4.287 -1.504,5.167 0.395,2.656 6.312,0.875 6.312,0.875 l 0.797,-0.834 c 0.443,0.298 0.182,0 0.182,0 l 0.933,0.912 c 0,0 5.151,2.235 5.848,-0.453 0.24,-0.932 -0.692,-3.927 -1.615,-5.484 -0.5,-0.855 -1.754,-1.928 -1.754,-1.928 0,0 -1.891,-1.025 -3.318,-1.041 -1.428,-0.016 -4.333,1.084 -4.333,1.084 z"
     id="path461" />
  <path
     style="fill:none;stroke:#231f20;stroke-width:0.467431;stroke-linecap:round;stroke-linejoin:round;stroke-miterlimit:4;stroke-dasharray:none;stroke-opacity:1"
     d="m 285.57087,87.212757 c 1.307,0.855 3.255,0.224 3.255,0.224 1.713,0.459 3.145,-0.025 3.145,-0.025"
     id="path462" />
  <path
     style="fill:#231f20;fill-opacity:1;fill-rule:nonzero;stroke:none"
     d="m 237.65387,10.592857 c 0.344,0.6466 0.812,3.86 0.88,4.6 0.073,0.6613 0.541,1.7186 -0.443,2.3173 -0.401,0.244 -1.151,0.3173 -1.473,0.2653 -0.251,-0.0467 -0.386,-0.3493 -0.386,-0.7453 -0.01,-0.6613 0.25,-0.8533 0.312,-2.1293 0,0 0.063,-0.308 0.203,-0.8334 0.412,-1.5786 0.381,-0.8493 0.469,-3.2653 0.011,-0.1667 0.188,-0.2867 0.303,-0.272 0.176,0.0213 0.135,0.0627 0.135,0.0627"
     id="path463" />
  <path
     style="fill:none;stroke:#231f20;stroke-width:0.565977;stroke-linecap:round;stroke-linejoin:round;stroke-miterlimit:4;stroke-dasharray:none;stroke-opacity:1"
     d="m 237.65387,10.592857 c 0.344,0.6466 0.812,3.86 0.88,4.6 0.073,0.6613 0.541,1.7186 -0.443,2.3173 -0.401,0.244 -1.151,0.3173 -1.473,0.2653 -0.251,-0.0467 -0.386,-0.3493 -0.386,-0.7453 -0.01,-0.6613 0.25,-0.8533 0.312,-2.1293 0,0 0.063,-0.308 0.203,-0.8334 0.412,-1.5786 0.381,-0.8493 0.469,-3.2653 0.011,-0.1667 0.188,-0.2867 0.303,-0.272 0.176,0.0213 0.135,0.0627 0.135,0.0627 z"
     id="path464" />
  <path
     style="fill:#231f20;fill-opacity:1;fill-rule:nonzero;stroke:none"
     d="m 238.12787,17.474157 c 0.176,0.6186 -0.662,2.3746 -0.734,3.9786 -0.063,1.0934 -1.303,3.5414 -1.276,4.6254 0.025,0.9893 -0.058,1.448 -1.183,1.676 -0.672,0.1253 -2.047,-0.052 -2.167,-0.5467 -0.281,-1.156 -0.136,-2.088 0.251,-3.088 0.443,-1.1307 1.916,-4.0987 2.228,-4.62 0.808,-1.2973 0.719,-2.0307 0.896,-2.396 0.339,-0.6826 0.683,-0.7186 1.172,-0.5933 0.932,0.2293 0.813,0.964 0.813,0.964"
     id="path465" />
  <path
     style="fill:none;stroke:#231f20;stroke-width:0.565977;stroke-linecap:butt;stroke-linejoin:miter;stroke-miterlimit:4;stroke-dasharray:none;stroke-opacity:1"
     d="m 238.12787,17.474157 c 0.176,0.6186 -0.662,2.3746 -0.734,3.9786 -0.063,1.0934 -1.303,3.5414 -1.276,4.6254 0.025,0.9893 -0.058,1.448 -1.183,1.676 -0.672,0.1253 -2.047,-0.052 -2.167,-0.5467 -0.281,-1.156 -0.136,-2.088 0.251,-3.088 0.443,-1.1307 1.916,-4.0987 2.228,-4.62 0.808,-1.2973 0.719,-2.0307 0.896,-2.396 0.339,-0.6826 0.683,-0.7186 1.172,-0.5933 0.932,0.2293 0.813,0.964 0.813,0.964 z"
     id="path466" />
  <path
     style="fill:#231f20;fill-opacity:1;fill-rule:nonzero;stroke:none"
     d="m 235.41887,27.338157 c 0.573,1.1613 -1.396,1.7026 -1.891,1.9213 -0.5,0.224 -1.833,1.016 -2.796,1.7666 -0.969,0.7547 -2.494,1.276 -4.333,2.7027 -0.964,0.7547 -2.38,0.8693 -3.407,-0.5787 -1.021,-1.432 -0.593,-2.536 0.714,-3.2706 1.302,-0.7347 2.838,-0.864 4.208,-1.5107 1.365,-0.64 2.698,-1.432 3.714,-2.0933 1.156,-0.76 2.01,-0.6973 2.411,-0.432 0.989,0.6613 1.38,1.4947 1.38,1.4947"
     id="path467" />
  <path
     style="fill:none;stroke:#231f20;stroke-width:0.565977;stroke-linecap:butt;stroke-linejoin:miter;stroke-miterlimit:4;stroke-dasharray:none;stroke-opacity:1"
     d="m 235.41887,27.338157 c 0.573,1.1613 -1.396,1.7026 -1.891,1.9213 -0.5,0.224 -1.833,1.016 -2.796,1.7666 -0.969,0.7547 -2.494,1.276 -4.333,2.7027 -0.964,0.7547 -2.38,0.8693 -3.407,-0.5787 -1.021,-1.432 -0.593,-2.536 0.714,-3.2706 1.302,-0.7347 2.838,-0.864 4.208,-1.5107 1.365,-0.64 2.698,-1.432 3.714,-2.0933 1.156,-0.76 2.01,-0.6973 2.411,-0.432 0.989,0.6613 1.38,1.4947 1.38,1.4947 z"
     id="path468" />
  <path
     style="fill:#231f20;fill-opacity:1;fill-rule:nonzero;stroke:none"
     d="m 148.75787,74.129757 c 0.641,0.99 0.36,2.307 -0.635,2.954 -0.985,0.634 -2.308,0.353 -2.948,-0.636 -0.636,-0.99 -0.36,-2.307 0.63,-2.948 0.99,-0.64 2.313,-0.355 2.953,0.63"
     id="path469" />
  <path
     style="fill:#231f20;fill-opacity:1;fill-rule:nonzero;stroke:none"
     d="m 73.664876,72.525757 c 1.135,0.307 1.807,1.484 1.5,2.624 -0.312,1.131 -1.484,1.803 -2.62,1.495 -1.136,-0.312 -1.807,-1.484 -1.5,-2.619 0.312,-1.136 1.484,-1.808 2.62,-1.5"
     id="path470" />
  <path
     style="fill:#231f20;fill-opacity:1;fill-rule:nonzero;stroke:none"
     d="m 112.26287,72.525757 c 1.136,0.307 1.808,1.484 1.495,2.624 -0.307,1.131 -1.479,1.803 -2.615,1.495 -1.14,-0.312 -1.806,-1.484 -1.5,-2.619 0.314,-1.136 1.486,-1.808 2.62,-1.5"
     id="path471" />
</svg>
