<?xml version="1.0" encoding="UTF-8" standalone="no"?>
<!-- Created with Inkscape (http://www.inkscape.org/) -->

<svg
   version="1.1"
   id="svg1"
   width="349.26184"
   height="123.52555"
   viewBox="0 0 349.26183 123.52555"
   sodipodi:docname="cell.svg"
   xmlns:inkscape="http://www.inkscape.org/namespaces/inkscape"
   xmlns:sodipodi="http://sodipodi.sourceforge.net/DTD/sodipodi-0.dtd"
   xmlns="http://www.w3.org/2000/svg"
   xmlns:svg="http://www.w3.org/2000/svg">
  <sodipodi:namedview
     id="namedview1"
     pagecolor="#ffffff"
     bordercolor="#000000"
     borderopacity="0.25"
     inkscape:showpageshadow="2"
     inkscape:pageopacity="0.0"
     inkscape:pagecheckerboard="0"
     inkscape:deskcolor="#d1d1d1">
    <inkscape:page
       x="0"
       y="6.6069539e-08"
       inkscape:label="1"
       id="page1"
       width="349.26184"
       height="123.52555"
       margin="0"
       bleed="0" />
  </sodipodi:namedview>
  <defs
     id="defs1" />
  <path
     style="fill:#231f20;fill-opacity:1;fill-rule:nonzero;stroke:none"
     d="m 211.81793,92.579848 c -0.604,-1.214 -1.589,-1.119 -2.319,-0.37 -0.208,0.219 -0.629,0.183 -0.822,0.418 -0.443,0.546 -0.219,2.27 1.276,2.448 0.104,0.014 0.849,0.348 1.453,0.514 1.167,0.319 3.661,0.391 5.604,-1.478 0.923,-0.88 0.229,-1.266 -0.255,-1.022 -1.521,0.782 -1.808,0.547 -2.281,0.604 -1.609,0.204 -2.656,-1.114 -2.656,-1.114"
     id="path993" />
  <path
     style="fill:none;stroke:#231f20;stroke-width:0.332927;stroke-linecap:butt;stroke-linejoin:miter;stroke-miterlimit:4;stroke-dasharray:none;stroke-opacity:1"
     d="m 211.81793,92.579848 c -0.604,-1.214 -1.589,-1.119 -2.319,-0.37 -0.208,0.219 -0.629,0.183 -0.822,0.418 -0.443,0.546 -0.219,2.27 1.276,2.448 0.104,0.014 0.849,0.348 1.453,0.514 1.167,0.319 3.661,0.391 5.604,-1.478 0.923,-0.88 0.229,-1.266 -0.255,-1.022 -1.521,0.782 -1.808,0.547 -2.281,0.604 -1.609,0.204 -2.656,-1.114 -2.656,-1.114 z"
     id="path994" />
  <path
     style="fill:#63c99d;fill-opacity:1;fill-rule:nonzero;stroke:none"
     d="m 169.31793,80.688849 c 2.739,1.515999 3.495,1.547999 4.411,1.640999 5.75,0.599 5.349,3.416 3.51,5.636 -2.145,2.619 -2.869,3.604 -8.057,0.042 -1.437,-1.006 -7.469,-4.084 -7.469,-4.084 -2.307,-0.812 -4.124,-2.833999 -4.26,-4.286999 -0.13,-1.531 0.037,-0.937 0.166,-2.369 0.131,-1.375 1.402,-3.151 2.636,-3.25 1.178,-0.094 2.14,1.266 3.787,3.042 1.307,1.405 5.276,3.629 5.276,3.629"
     id="path995" />
  <path
     style="fill:none;stroke:#231f20;stroke-width:0.565977;stroke-linecap:butt;stroke-linejoin:miter;stroke-miterlimit:4;stroke-dasharray:none;stroke-opacity:1"
     d="m 169.31793,80.688849 c 2.739,1.515999 3.495,1.547999 4.411,1.640999 5.75,0.599 5.349,3.416 3.51,5.636 -2.145,2.619 -2.869,3.604 -8.057,0.042 -1.437,-1.006 -7.469,-4.084 -7.469,-4.084 -2.307,-0.812 -4.124,-2.833999 -4.26,-4.286999 -0.13,-1.531 0.037,-0.937 0.166,-2.369 0.131,-1.375 1.402,-3.151 2.636,-3.25 1.178,-0.094 2.14,1.266 3.787,3.042 1.307,1.405 5.276,3.629 5.276,3.629 z"
     id="path996" />
  <path
     style="fill:#231f20;fill-opacity:1;fill-rule:nonzero;stroke:none"
     d="m 192.74993,90.267848 c 0.161,-2.26 0.505,-2.678 1.459,-2.667 0.64,0.005 1.233,-0.213 1.618,-0.229 1.298,-0.058 3.5,0.396 9.418,3.286 1.338,0.656 3.229,1.563 4.03,1.87 1.256,0.494 -0.405,2.266 -0.91,2.078 -1.604,-0.604 -2.756,-0.885 -3.366,-1.021 -0.416,-0.093 -1.124,-0.364 -2.785,-0.515 -2.516,-0.234 -4.057,0 -6.131,-0.442 -0.964,-0.199 -1.808,0.254 -2.65,-0.428 -0.85,-0.678 -0.683,-1.932 -0.683,-1.932"
     id="path997" />
  <path
     style="fill:none;stroke:#231f20;stroke-width:0.565977;stroke-linecap:butt;stroke-linejoin:miter;stroke-miterlimit:4;stroke-dasharray:none;stroke-opacity:1"
     d="m 192.74993,90.267848 c 0.161,-2.26 0.505,-2.678 1.459,-2.667 0.64,0.005 1.233,-0.213 1.618,-0.229 1.298,-0.058 3.5,0.396 9.418,3.286 1.338,0.656 3.229,1.563 4.03,1.87 1.256,0.494 -0.405,2.266 -0.91,2.078 -1.604,-0.604 -2.756,-0.885 -3.366,-1.021 -0.416,-0.093 -1.124,-0.364 -2.785,-0.515 -2.516,-0.234 -4.057,0 -6.131,-0.442 -0.964,-0.199 -1.808,0.254 -2.65,-0.428 -0.85,-0.678 -0.683,-1.932 -0.683,-1.932 z"
     id="path998" />
  <path
     style="fill:#231f20;fill-opacity:1;fill-rule:nonzero;stroke:#231f20;stroke-width:0.565977;stroke-linecap:round;stroke-linejoin:round;stroke-miterlimit:4;stroke-dasharray:none;stroke-opacity:1"
     d="m 194.46293,92.089848 c -1.078,0.923 -3.03,0.016 -3.369,0.022 -5.016,0.088 -5.376,-0.036 -9.183,-0.24 -5.526,-0.296 -9.26,-1.344 -10.026,-4.604 -0.515,-2.214 0.141,-3.714 1.218,-4.47 1.199,-0.827999 4.35,-1.232999 6.194,0.986 l 1.63,0.541 c 1.135,0.229 1.703,0.349 2.266,0.417 1,0.114 2.057,0.302 3.984,0.635 3.422,0.599 6.838,2.344 6.838,2.344 0.308,0.063 0.532,0.229 0.698,0.437"
     id="path999" />
  <path
     style="fill:#63c99d;fill-opacity:1;fill-rule:nonzero;stroke:#231f20;stroke-width:0.565977;stroke-linecap:butt;stroke-linejoin:miter;stroke-miterlimit:4;stroke-dasharray:none;stroke-opacity:1"
     d="m 179.21393,83.736848 c -1.923,-2.146999 -5.057,-1.624999 -6.224,-0.745 -1.048,0.797 -1.647,2.317 -1.053,4.51 0.37,1.344 1.256,2.276 2.542,2.922 0.943,0.729 1.463,1.152 2.302,0.912 0.109,-0.027 0.24,-0.042 0.37,-0.052 0.547,0.104 1.115,0.197 1.73,0.265 z"
     id="path1000" />
  <path
     style="fill:#ffffff;fill-opacity:1;fill-rule:nonzero;stroke:none"
     d="m 150.68693,74.403849 c -0.161,-0.183 -1.193,0.328 -1.458,-0.12 -0.271,-0.459 0.292,-1.016 0.109,-2.995 v -0.021 c -0.187,-1.443 0.24,-2.771 1.261,-3.495 1.698,-1.193 4.391,-0.287 6.02,2.011 1.626,2.317 1.558,5.15 -0.129,6.353 -1.62,1.147 -4.163,0.365 -5.803,-1.733"
     id="path1001" />
  <path
     style="fill:none;stroke:#231f20;stroke-width:0.565977;stroke-linecap:butt;stroke-linejoin:miter;stroke-miterlimit:4;stroke-dasharray:none;stroke-opacity:1"
     d="m 150.68693,74.403849 c -0.161,-0.183 -1.193,0.328 -1.458,-0.12 -0.271,-0.459 0.292,-1.016 0.109,-2.995 v -0.021 c -0.187,-1.443 0.24,-2.771 1.261,-3.495 1.698,-1.193 4.391,-0.287 6.02,2.011 1.626,2.317 1.558,5.15 -0.129,6.353 -1.62,1.147 -4.163,0.365 -5.803,-1.733 z"
     id="path1002" />
  <path
     style="fill:#231f20;fill-opacity:1;fill-rule:nonzero;stroke:none"
     d="m 265.90893,33.794849 c -1.31,-0.35 -1.89,0.452 -1.81,1.489 0.03,0.301 -0.27,0.599 -0.22,0.896 0.11,0.692 1.56,1.661 2.68,0.661 0.08,-0.073 0.82,-0.412 1.34,-0.75 1.01,-0.672 2.71,-2.495 2.59,-5.187 -0.05,-1.276 -0.79,-1.011 -0.93,-0.485 -0.42,1.657 -0.78,1.718 -1.05,2.114 -0.92,1.339 -2.6,1.262 -2.6,1.262"
     id="path1003" />
  <path
     style="fill:none;stroke:#231f20;stroke-width:0.332927;stroke-linecap:butt;stroke-linejoin:miter;stroke-miterlimit:4;stroke-dasharray:none;stroke-opacity:1"
     d="m 265.90893,33.794849 c -1.31,-0.35 -1.89,0.452 -1.81,1.489 0.03,0.301 -0.27,0.599 -0.22,0.896 0.11,0.692 1.56,1.661 2.68,0.661 0.08,-0.073 0.82,-0.412 1.34,-0.75 1.01,-0.672 2.71,-2.495 2.59,-5.187 -0.05,-1.276 -0.79,-1.011 -0.93,-0.485 -0.42,1.657 -0.78,1.718 -1.05,2.114 -0.92,1.339 -2.6,1.262 -2.6,1.262 z"
     id="path1004" />
  <path
     style="fill:#63c99d;fill-opacity:1;fill-rule:nonzero;stroke:none"
     d="m 228.91693,57.855849 c 2.948,-1.062 3.473,-1.604 4.15,-2.228 4.246,-3.923 6.094,-1.762 6.547,1.082 0.552,3.344 0.813,4.532 -5.291,6.079 -1.704,0.416 -7.996,2.916 -7.996,2.916 -2.134,1.193 -4.853,1.224 -6.036,0.365 -1.229,-0.912 -0.677,-0.646 -1.666,-1.688 -0.943,-1.005 -1.438,-3.136 -0.698,-4.125 0.708,-0.948 2.364,-0.776 4.786,-0.839 1.912,-0.052 6.204,-1.562 6.204,-1.562"
     id="path1005" />
  <path
     style="fill:none;stroke:#231f20;stroke-width:0.565977;stroke-linecap:butt;stroke-linejoin:miter;stroke-miterlimit:4;stroke-dasharray:none;stroke-opacity:1"
     d="m 228.91693,57.855849 c 2.948,-1.062 3.473,-1.604 4.15,-2.228 4.246,-3.923 6.094,-1.762 6.547,1.082 0.552,3.344 0.813,4.532 -5.291,6.079 -1.704,0.416 -7.996,2.916 -7.996,2.916 -2.134,1.193 -4.853,1.224 -6.036,0.365 -1.229,-0.912 -0.677,-0.646 -1.666,-1.688 -0.943,-1.005 -1.438,-3.136 -0.698,-4.125 0.708,-0.948 2.364,-0.776 4.786,-0.839 1.912,-0.052 6.204,-1.562 6.204,-1.562 z"
     id="path1006" />
  <path
     style="fill:#231f20;fill-opacity:1;fill-rule:nonzero;stroke:none"
     d="m 251.58293,46.579849 c -1.584,-1.614 -1.677,-2.14 -1.036,-2.854 0.427,-0.48 0.656,-1.068 0.895,-1.365 0.813,-1.015 2.607,-2.369 8.687,-4.905 1.38,-0.568 3.3,-1.391 4.07,-1.787 1.2,-0.625 1.43,1.801 0.95,2.047 -1.51,0.812 -2.48,1.489 -2.98,1.854 -0.35,0.255 -1.02,0.61 -2.23,1.755 -1.84,1.735 -2.68,3.047 -4.38,4.312 -0.78,0.589 -1,1.527 -2.07,1.709 -1.072,0.192 -1.906,-0.766 -1.906,-0.766"
     id="path1007" />
  <path
     style="fill:none;stroke:#231f20;stroke-width:0.565977;stroke-linecap:butt;stroke-linejoin:miter;stroke-miterlimit:4;stroke-dasharray:none;stroke-opacity:1"
     d="m 251.58293,46.579849 c -1.584,-1.614 -1.677,-2.14 -1.036,-2.854 0.427,-0.48 0.656,-1.068 0.895,-1.365 0.813,-1.015 2.607,-2.369 8.687,-4.905 1.38,-0.568 3.3,-1.391 4.07,-1.787 1.2,-0.625 1.43,1.801 0.95,2.047 -1.51,0.812 -2.48,1.489 -2.98,1.854 -0.35,0.255 -1.02,0.61 -2.23,1.755 -1.84,1.735 -2.68,3.047 -4.38,4.312 -0.78,0.589 -1,1.527 -2.07,1.709 -1.072,0.192 -1.906,-0.766 -1.906,-0.766 z"
     id="path1008" />
  <path
     style="fill:#231f20;fill-opacity:1;fill-rule:nonzero;stroke:#231f20;stroke-width:0.565977;stroke-linecap:round;stroke-linejoin:round;stroke-miterlimit:4;stroke-dasharray:none;stroke-opacity:1"
     d="m 254.07893,46.496849 c -0.01,1.416 -1.985,2.292 -2.198,2.547 -3.251,3.822 -3.584,4.01 -6.251,6.734 -3.864,3.959 -7.12,6.074 -10.073,4.495 -2.006,-1.079 -2.698,-2.563 -2.552,-3.869 0.172,-1.448 1.942,-4.084 4.828,-4 l 1.48,-0.866 c 0.926,-0.702 1.385,-1.052 1.812,-1.426 0.745,-0.678 1.584,-1.35 3.109,-2.579 2.703,-2.172 6.276,-3.583 6.276,-3.583 0.251,-0.188 0.521,-0.25 0.787,-0.234"
     id="path1009" />
  <path
     style="fill:#63c99d;fill-opacity:1;fill-rule:nonzero;stroke:none"
     d="m 243.38493,57.845849 -5.64,-5.412 c -2.886,0.027 -4.558,2.724 -4.672,4.183 -0.094,1.312 0.65,2.765 2.693,3.765 1.255,0.61 2.536,0.563 3.875,0.027 1.166,-0.229 1.833,-0.339 2.202,-1.125 0.052,-0.104 0.126,-0.208 0.203,-0.318 0.444,-0.338 0.887,-0.704 1.339,-1.12"
     id="path1010" />
  <path
     style="fill:none;stroke:#231f20;stroke-width:0.565977;stroke-linecap:butt;stroke-linejoin:miter;stroke-miterlimit:4;stroke-dasharray:none;stroke-opacity:1"
     d="m 243.38493,57.845849 -5.64,-5.412 c -2.886,0.027 -4.558,2.724 -4.672,4.183 -0.094,1.312 0.65,2.765 2.693,3.765 1.255,0.61 2.536,0.563 3.875,0.027 1.166,-0.229 1.833,-0.339 2.202,-1.125 0.052,-0.104 0.126,-0.208 0.203,-0.318 0.444,-0.338 0.887,-0.704 1.339,-1.12 z"
     id="path1011" />
  <path
     style="fill:#ffffff;fill-opacity:1;fill-rule:nonzero;stroke:none"
     d="m 211.89493,67.693849 c -0.244,0.006 -0.541,1.115 -1.057,1.022 -0.52,-0.099 -0.568,-0.891 -2.177,-2.058 l -0.015,-0.016 c -1.204,-0.817 -1.923,-2.009 -1.787,-3.254 0.224,-2.068 2.683,-3.49 5.484,-3.199 2.814,0.308 4.902,2.235 4.688,4.292 -0.213,1.975 -2.48,3.371 -5.136,3.213"
     id="path1012" />
  <path
     style="fill:none;stroke:#231f20;stroke-width:0.565977;stroke-linecap:butt;stroke-linejoin:miter;stroke-miterlimit:4;stroke-dasharray:none;stroke-opacity:1"
     d="m 211.89493,67.693849 c -0.244,0.006 -0.541,1.115 -1.057,1.022 -0.52,-0.099 -0.568,-0.891 -2.177,-2.058 l -0.015,-0.016 c -1.204,-0.817 -1.923,-2.009 -1.787,-3.254 0.224,-2.068 2.683,-3.49 5.484,-3.199 2.814,0.308 4.902,2.235 4.688,4.292 -0.213,1.975 -2.48,3.371 -5.136,3.213 z"
     id="path1013" />
  <path
     style="fill:#231f20;fill-opacity:1;fill-rule:nonzero;stroke:none"
     d="m 309.42893,10.412849 c -1.29,0.407 -1.35,1.402 -0.72,2.23 0.18,0.245 0.08,0.652 0.28,0.876 0.47,0.525 2.22,0.561 2.62,-0.886 0.03,-0.1 0.47,-0.786 0.73,-1.354 0.49,-1.11 0.94,-3.5629996 -0.61,-5.7659996 -0.73,-1.048 -1.21,-0.422 -1.05,0.094 0.54,1.625 0.27,1.869 0.25,2.349 -0.04,1.624 -1.5,2.4569996 -1.5,2.4569996"
     id="path1014" />
  <path
     style="fill:none;stroke:#231f20;stroke-width:0.332927;stroke-linecap:butt;stroke-linejoin:miter;stroke-miterlimit:4;stroke-dasharray:none;stroke-opacity:1"
     d="m 309.42893,10.412849 c -1.29,0.407 -1.35,1.402 -0.72,2.23 0.18,0.245 0.08,0.652 0.28,0.876 0.47,0.525 2.22,0.561 2.62,-0.886 0.03,-0.1 0.47,-0.786 0.73,-1.354 0.49,-1.11 0.94,-3.5629996 -0.61,-5.7659996 -0.73,-1.048 -1.21,-0.422 -1.05,0.094 0.54,1.625 0.27,1.869 0.25,2.349 -0.04,1.624 -1.5,2.4569996 -1.5,2.4569996 z"
     id="path1015" />
  <path
     style="fill:#63c99d;fill-opacity:1;fill-rule:nonzero;stroke:none"
     d="m 291.18893,50.600849 c 1.91,-2.479 2.07,-3.219 2.3,-4.109 1.47,-5.588 4.19,-4.766 6.1,-2.615 2.26,2.527 3.12,3.391 -1.19,7.975 -1.21,1.27 -5.17,6.754 -5.17,6.754 -1.16,2.162 -3.43,3.646 -4.89,3.558 -1.53,-0.104 -0.92,-0.178 -2.31,-0.527 -1.34,-0.333 -2.9,-1.864 -2.81,-3.099 0.08,-1.182 1.57,-1.921 3.58,-3.281 1.59,-1.072 4.39,-4.656 4.39,-4.656"
     id="path1016" />
  <path
     style="fill:none;stroke:#231f20;stroke-width:0.565977;stroke-linecap:butt;stroke-linejoin:miter;stroke-miterlimit:4;stroke-dasharray:none;stroke-opacity:1"
     d="m 291.18893,50.600849 c 1.91,-2.479 2.07,-3.219 2.3,-4.109 1.47,-5.588 4.19,-4.766 6.1,-2.615 2.26,2.527 3.12,3.391 -1.19,7.975 -1.21,1.27 -5.17,6.754 -5.17,6.754 -1.16,2.162 -3.43,3.646 -4.89,3.558 -1.53,-0.104 -0.92,-0.178 -2.31,-0.527 -1.34,-0.333 -2.9,-1.864 -2.81,-3.099 0.08,-1.182 1.57,-1.921 3.58,-3.281 1.59,-1.072 4.39,-4.656 4.39,-4.656 z"
     id="path1017" />
  <path
     style="fill:#231f20;fill-opacity:1;fill-rule:nonzero;stroke:none"
     d="m 304.22893,28.903849 c -2.2,-0.511 -2.57,-0.907 -2.41,-1.849 0.1,-0.636 -0.02,-1.251 0.02,-1.636 0.14,-1.287 0.93,-3.4 4.69,-8.807 0.85,-1.219 2.03,-2.948 2.46,-3.693 0.68,-1.172 2.18,0.745 1.91,1.213 -0.84,1.496 -1.29,2.589 -1.52,3.168 -0.16,0.4 -0.54,1.061 -0.94,2.676 -0.61,2.453 -0.61,4.011 -1.37,5.991 -0.34,0.921 -0.02,1.828 -0.82,2.556 -0.81,0.734 -2.02,0.381 -2.02,0.381"
     id="path1018" />
  <path
     style="fill:none;stroke:#231f20;stroke-width:0.565977;stroke-linecap:butt;stroke-linejoin:miter;stroke-miterlimit:4;stroke-dasharray:none;stroke-opacity:1"
     d="m 304.22893,28.903849 c -2.2,-0.511 -2.57,-0.907 -2.41,-1.849 0.1,-0.636 -0.02,-1.251 0.02,-1.636 0.14,-1.287 0.93,-3.4 4.69,-8.807 0.85,-1.219 2.03,-2.948 2.46,-3.693 0.68,-1.172 2.18,0.745 1.91,1.213 -0.84,1.496 -1.29,2.589 -1.52,3.168 -0.16,0.4 -0.54,1.061 -0.94,2.676 -0.61,2.453 -0.61,4.011 -1.37,5.991 -0.34,0.921 -0.02,1.828 -0.82,2.556 -0.81,0.734 -2.02,0.381 -2.02,0.381 z"
     id="path1019" />
  <path
     style="fill:#231f20;fill-opacity:1;fill-rule:nonzero;stroke:#231f20;stroke-width:0.565977;stroke-linecap:round;stroke-linejoin:round;stroke-miterlimit:4;stroke-dasharray:none;stroke-opacity:1"
     d="m 306.28893,27.486849 c 0.75,1.202 -0.45,3 -0.49,3.333 -0.67,4.969 -0.86,5.308 -1.64,9.036 -1.13,5.417 -2.73,8.948 -6.08,9.214 -2.26,0.167 -3.64,-0.709 -4.23,-1.89 -0.63,-1.314 -0.56,-4.486 1.92,-5.975 l 0.78,-1.52 c 0.4,-1.095 0.61,-1.631 0.76,-2.183 0.27,-0.969 0.61,-1.983 1.24,-3.843 1.11,-3.282 3.36,-6.396 3.36,-6.396 0.11,-0.292 0.3,-0.49 0.54,-0.626"
     id="path1020" />
  <path
     style="fill:#63c99d;fill-opacity:1;fill-rule:nonzero;stroke:none"
     d="m 302.84893,44.469849 c 0.19,-0.52 0.37,-1.066 0.53,-1.666 l -7.67,-1.52 c -2.41,1.572 -2.37,4.749 -1.68,6.036 0.62,1.156 2.03,1.984 4.29,1.729 1.39,-0.161 2.45,-0.891 3.28,-2.068 0.86,-0.817 1.36,-1.271 1.25,-2.135 -0.01,-0.109 -0.01,-0.24 0,-0.376"
     id="path1021" />
  <path
     style="fill:none;stroke:#231f20;stroke-width:0.565977;stroke-linecap:butt;stroke-linejoin:miter;stroke-miterlimit:4;stroke-dasharray:none;stroke-opacity:1"
     d="m 302.84893,44.469849 c 0.19,-0.52 0.37,-1.066 0.53,-1.666 l -7.67,-1.52 c -2.41,1.572 -2.37,4.749 -1.68,6.036 0.62,1.156 2.03,1.984 4.29,1.729 1.39,-0.161 2.45,-0.891 3.28,-2.068 0.86,-0.817 1.36,-1.271 1.25,-2.135 -0.01,-0.109 -0.01,-0.24 0,-0.376 z"
     id="path1022" />
  <path
     style="fill:#ffffff;fill-opacity:1;fill-rule:nonzero;stroke:none"
     d="m 282.13893,68.053849 c -0.21,0.135 0.14,1.235 -0.35,1.427 -0.49,0.199 -0.96,-0.448 -2.94,-0.568 h -0.02 c -1.45,-0.041 -2.7,-0.661 -3.26,-1.781 -0.92,-1.864 0.38,-4.386 2.9,-5.646 2.54,-1.254 5.34,-0.754 6.26,1.099 0.88,1.776 -0.27,4.167 -2.59,5.469"
     id="path1023" />
  <path
     style="fill:none;stroke:#231f20;stroke-width:0.565977;stroke-linecap:butt;stroke-linejoin:miter;stroke-miterlimit:4;stroke-dasharray:none;stroke-opacity:1"
     d="m 282.13893,68.053849 c -0.21,0.135 0.14,1.235 -0.35,1.427 -0.49,0.199 -0.96,-0.448 -2.94,-0.568 h -0.02 c -1.45,-0.041 -2.7,-0.661 -3.26,-1.781 -0.92,-1.864 0.38,-4.386 2.9,-5.646 2.54,-1.254 5.34,-0.754 6.26,1.099 0.88,1.776 -0.27,4.167 -2.59,5.469 z"
     id="path1024" />
  <path
     style="fill:none;stroke:#231f20;stroke-width:0.399514;stroke-linecap:butt;stroke-linejoin:miter;stroke-miterlimit:4;stroke-dasharray:none;stroke-opacity:1"
     d="m 97.697928,112.33585 c 16.854002,20.437 48.479002,7.046 53.765002,2.062"
     id="path1025" />
  <path
     style="fill:#231f20;fill-opacity:1;fill-rule:nonzero;stroke:none"
     d="m 152.34293,113.57585 c -0.27,0.541 -0.536,1.285 -0.593,1.858 l -0.401,-0.926 -0.902,-0.454 c 0.579,-0.021 1.339,-0.245 1.896,-0.478"
     id="path1026" />
  <path
     style="fill:#231f20;fill-opacity:1;fill-rule:nonzero;stroke:none"
     d="m 78.760928,117.75185 c 1.317,0.308 1.869,-0.515 1.755,-1.552 -0.031,-0.307 0.26,-0.604 0.202,-0.9 -0.14,-0.694 -1.618,-1.615 -2.702,-0.574 -0.074,0.072 -0.807,0.438 -1.318,0.792 -0.989,0.703 -2.636,2.578 -2.428,5.271 0.1,1.271 0.834,0.979 0.954,0.453 0.365,-1.672 0.724,-1.745 0.985,-2.146 0.864,-1.375 2.552,-1.344 2.552,-1.344"
     id="path1027" />
  <path
     style="fill:none;stroke:#231f20;stroke-width:0.332927;stroke-linecap:butt;stroke-linejoin:miter;stroke-miterlimit:4;stroke-dasharray:none;stroke-opacity:1"
     d="m 78.760928,117.75185 c 1.317,0.308 1.869,-0.515 1.755,-1.552 -0.031,-0.307 0.26,-0.604 0.202,-0.9 -0.14,-0.694 -1.618,-1.615 -2.702,-0.574 -0.074,0.072 -0.807,0.438 -1.318,0.792 -0.989,0.703 -2.636,2.578 -2.428,5.271 0.1,1.271 0.834,0.979 0.954,0.453 0.365,-1.672 0.724,-1.745 0.985,-2.146 0.864,-1.375 2.552,-1.344 2.552,-1.344 z"
     id="path1028" />
  <path
     style="fill:#63c99d;fill-opacity:1;fill-rule:nonzero;stroke:none"
     d="m 110.44193,86.069848 c -0.634,3.072 -0.437,3.802 -0.254,4.703 1.13,5.672 -1.672,6.125 -4.339,5.025 -3.145,-1.276 -4.292,-1.676 -2.432,-7.686 0.525,-1.672 1.677,-8.343999 1.677,-8.343999 0.094,-2.448 1.484,-4.782 2.828,-5.339 1.422,-0.583 0.906,-0.249 2.312,-0.547 1.35,-0.286 3.423,0.402 3.886,1.552 0.437,1.099 -0.568,2.422 -1.776,4.522 -0.954,1.661 -1.902,6.113999 -1.902,6.113999"
     id="path1029" />
  <path
     style="fill:none;stroke:#231f20;stroke-width:0.565977;stroke-linecap:butt;stroke-linejoin:miter;stroke-miterlimit:4;stroke-dasharray:none;stroke-opacity:1"
     d="m 110.44193,86.069848 c -0.634,3.072 -0.437,3.802 -0.254,4.703 1.13,5.672 -1.672,6.125 -4.339,5.025 -3.145,-1.276 -4.292,-1.676 -2.432,-7.686 0.525,-1.672 1.677,-8.343999 1.677,-8.343999 0.094,-2.448 1.484,-4.782 2.828,-5.339 1.422,-0.583 0.906,-0.249 2.312,-0.547 1.35,-0.286 3.423,0.402 3.886,1.552 0.437,1.099 -0.568,2.422 -1.776,4.522 -0.954,1.661 -1.902,6.113999 -1.902,6.113999 z"
     id="path1030" />
  <path
     style="fill:#231f20;fill-opacity:1;fill-rule:nonzero;stroke:none"
     d="m 92.671928,104.51285 c 1.636,1.557 1.74,2.083 1.125,2.817 -0.407,0.495 -0.62,1.083 -0.855,1.396 -0.776,1.031 -2.53,2.448 -8.52,5.178 -1.36,0.614 -3.261,1.494 -4.01,1.916 -1.178,0.661 -1.484,-1.755 -1.022,-2.016 1.491,-0.859 2.434,-1.567 2.928,-1.948 0.339,-0.266 1,-0.64 2.172,-1.828 1.78,-1.791 2.578,-3.13 4.239,-4.448 0.765,-0.614 0.953,-1.562 2.016,-1.776 1.063,-0.224 1.927,0.709 1.927,0.709"
     id="path1031" />
  <path
     style="fill:none;stroke:#231f20;stroke-width:0.565977;stroke-linecap:butt;stroke-linejoin:miter;stroke-miterlimit:4;stroke-dasharray:none;stroke-opacity:1"
     d="m 92.671928,104.51285 c 1.636,1.557 1.74,2.083 1.125,2.817 -0.407,0.495 -0.62,1.083 -0.855,1.396 -0.776,1.031 -2.53,2.448 -8.52,5.178 -1.36,0.614 -3.261,1.494 -4.01,1.916 -1.178,0.661 -1.484,-1.755 -1.022,-2.016 1.491,-0.859 2.434,-1.567 2.928,-1.948 0.339,-0.266 1,-0.64 2.172,-1.828 1.78,-1.791 2.578,-3.13 4.239,-4.448 0.765,-0.614 0.953,-1.562 2.016,-1.776 1.063,-0.224 1.927,0.709 1.927,0.709 z"
     id="path1032" />
  <path
     style="fill:#231f20;fill-opacity:1;fill-rule:nonzero;stroke:#231f20;stroke-width:0.565977;stroke-linecap:round;stroke-linejoin:round;stroke-miterlimit:4;stroke-dasharray:none;stroke-opacity:1"
     d="m 90.171928,104.67385 c -0.026,-1.422 1.917,-2.354 2.13,-2.62 3.12,-3.926002 3.443,-4.125002 6.026,-6.937002 3.740002,-4.079 6.922002,-6.297 9.928002,-4.813 2.036,1.01 2.781,2.469 2.672,3.781 -0.12,1.453 -1.808,4.147 -4.699,4.161 l -1.453,0.912 c -0.9,0.73 -1.348,1.094002 -1.766,1.484002 -0.718,0.699 -1.536,1.396 -3.020002,2.672 -2.636,2.262 -6.162,3.792 -6.162,3.792 -0.239,0.198 -0.51,0.266 -0.782,0.26"
     id="path1033" />
  <path
     style="fill:#63c99d;fill-opacity:1;fill-rule:nonzero;stroke:none"
     d="m 108.04193,90.199848 c -1.272,-0.567 -2.548,-0.484 -3.86,0.094 -1.172,0.266 -1.828,0.4 -2.177,1.203 -0.047,0.104 -0.12,0.213 -0.197,0.323 -0.432,0.354 -0.866,0.734 -1.303,1.166 l 5.813,5.224 c 2.886,-0.12 4.474,-2.874 4.536,-4.333 0.052,-1.317 -0.74,-2.745 -2.812,-3.677"
     id="path1034" />
  <path
     style="fill:none;stroke:#231f20;stroke-width:0.565977;stroke-linecap:butt;stroke-linejoin:miter;stroke-miterlimit:4;stroke-dasharray:none;stroke-opacity:1"
     d="m 108.04193,90.199848 c -1.272,-0.567 -2.548,-0.484 -3.86,0.094 -1.172,0.266 -1.828,0.4 -2.177,1.203 -0.047,0.104 -0.12,0.213 -0.197,0.323 -0.432,0.354 -0.866,0.734 -1.303,1.166 l 5.813,5.224 c 2.886,-0.12 4.474,-2.874 4.536,-4.333 0.052,-1.317 -0.74,-2.745 -2.812,-3.677 z"
     id="path1035" />
  <path
     style="fill:#ffffff;fill-opacity:1;fill-rule:nonzero;stroke:none"
     d="m 108.10393,67.131849 c 0.016,-0.244 -1.078,-0.614 -0.947,-1.119 0.129,-0.516 0.927,-0.511 2.192,-2.037 l 0.016,-0.015 c 0.891,-1.152 2.129,-1.787 3.364,-1.573 2.047,0.354 3.313,2.901 2.833,5.672 -0.484,2.796 -2.536,4.754 -4.582,4.405 -1.959,-0.337 -3.204,-2.692 -2.876,-5.333"
     id="path1036" />
  <path
     style="fill:none;stroke:#231f20;stroke-width:0.565977;stroke-linecap:butt;stroke-linejoin:miter;stroke-miterlimit:4;stroke-dasharray:none;stroke-opacity:1"
     d="m 108.10393,67.131849 c 0.016,-0.244 -1.078,-0.614 -0.947,-1.119 0.129,-0.516 0.927,-0.511 2.192,-2.037 l 0.016,-0.015 c 0.891,-1.152 2.129,-1.787 3.364,-1.573 2.047,0.354 3.313,2.901 2.833,5.672 -0.484,2.796 -2.536,4.754 -4.582,4.405 -1.959,-0.337 -3.204,-2.692 -2.876,-5.333 z"
     id="path1037" />
  <path
     style="fill:#231f20;fill-opacity:1;fill-rule:nonzero;stroke:none"
     d="m 18.859928,69.480849 c 0.306,1.317 1.286,1.448 2.161,0.885 0.265,-0.161 0.661,-0.036 0.901,-0.213 0.558,-0.437 0.73,-2.167 -0.682,-2.677 -0.099,-0.042 -0.75,-0.536 -1.303,-0.834 -1.061,-0.577 -3.468,-1.218 -5.791,0.156 -1.094,0.658 -0.51,1.183 0.02,1.058 1.658,-0.411 1.88,-0.119 2.355,-0.067 1.615,0.167 2.339,1.692 2.339,1.692"
     id="path1038" />
  <path
     style="fill:none;stroke:#231f20;stroke-width:0.332927;stroke-linecap:butt;stroke-linejoin:miter;stroke-miterlimit:4;stroke-dasharray:none;stroke-opacity:1"
     d="m 18.859928,69.480849 c 0.306,1.317 1.286,1.448 2.161,0.885 0.265,-0.161 0.661,-0.036 0.901,-0.213 0.558,-0.437 0.73,-2.167 -0.682,-2.677 -0.099,-0.042 -0.75,-0.536 -1.303,-0.834 -1.061,-0.577 -3.468,-1.218 -5.791,0.156 -1.094,0.658 -0.51,1.183 0.02,1.058 1.658,-0.411 1.88,-0.119 2.355,-0.067 1.615,0.167 2.339,1.692 2.339,1.692 z"
     id="path1039" />
  <path
     style="fill:#63c99d;fill-opacity:1;fill-rule:nonzero;stroke:none"
     d="m 61.353928,82.928848 c -2.984,0.959 -3.521,1.489 -4.218,2.093 -4.366,3.792 -6.142,1.574 -6.511,-1.28 -0.443,-3.364999 -0.667,-4.561999 5.479,-5.916999 1.714,-0.369 8.084,-2.667 8.084,-2.667 2.177,-1.136 4.89,-1.073 6.046,-0.177 1.203,0.948 0.656,0.661 1.61,1.735 0.917,1.03 1.344,3.177 0.573,4.145 -0.74,0.928 -2.385,0.704 -4.813,0.688 -1.916,-0.005 -6.25,1.379999 -6.25,1.379999"
     id="path1040" />
  <path
     style="fill:none;stroke:#231f20;stroke-width:0.565977;stroke-linecap:butt;stroke-linejoin:miter;stroke-miterlimit:4;stroke-dasharray:none;stroke-opacity:1"
     d="m 61.353928,82.928848 c -2.984,0.959 -3.521,1.489 -4.218,2.093 -4.366,3.792 -6.142,1.574 -6.511,-1.28 -0.443,-3.364999 -0.667,-4.561999 5.479,-5.916999 1.714,-0.369 8.084,-2.667 8.084,-2.667 2.177,-1.136 4.89,-1.073 6.046,-0.177 1.203,0.948 0.656,0.661 1.61,1.735 0.917,1.03 1.344,3.177 0.573,4.145 -0.74,0.928 -2.385,0.704 -4.813,0.688 -1.916,-0.005 -6.25,1.379999 -6.25,1.379999 z"
     id="path1041" />
  <path
     style="fill:#231f20;fill-opacity:1;fill-rule:nonzero;stroke:none"
     d="m 36.889928,76.084849 c -0.676,2.161 -1.098,2.491 -2.036,2.256 -0.625,-0.147 -1.245,-0.079 -1.625,-0.147 -1.271,-0.238 -3.323,-1.181 -8.416,-5.342 -1.152,-0.948 -2.781,-2.262 -3.495,-2.746 -1.114,-0.765 0.911,-2.114 1.359,-1.812 1.427,0.952 2.48,1.49 3.036,1.76 0.387,0.183 1.016,0.61 2.6,1.14 2.396,0.803 3.953,0.928 5.864,1.828 0.896,0.418 1.823,0.167 2.484,1.016 0.677,0.855 0.229,2.047 0.229,2.047"
     id="path1042" />
  <path
     style="fill:none;stroke:#231f20;stroke-width:0.565977;stroke-linecap:butt;stroke-linejoin:miter;stroke-miterlimit:4;stroke-dasharray:none;stroke-opacity:1"
     d="m 36.889928,76.084849 c -0.676,2.161 -1.098,2.491 -2.036,2.256 -0.625,-0.147 -1.245,-0.079 -1.625,-0.147 -1.271,-0.238 -3.323,-1.181 -8.416,-5.342 -1.152,-0.948 -2.781,-2.262 -3.495,-2.746 -1.114,-0.765 0.911,-2.114 1.359,-1.812 1.427,0.952 2.48,1.49 3.036,1.76 0.387,0.183 1.016,0.61 2.6,1.14 2.396,0.803 3.953,0.928 5.864,1.828 0.896,0.418 1.823,0.167 2.484,1.016 0.677,0.855 0.229,2.047 0.229,2.047 z"
     id="path1043" />
  <path
     style="fill:#231f20;fill-opacity:1;fill-rule:nonzero;stroke:#231f20;stroke-width:0.565977;stroke-linecap:round;stroke-linejoin:round;stroke-miterlimit:4;stroke-dasharray:none;stroke-opacity:1"
     d="m 35.629928,73.917849 c 1.26,-0.65 2.959,0.678 3.298,0.746 4.9,1.057 5.224,1.26 8.885,2.328 5.312,1.546 8.708,3.417 8.713,6.769999 0,2.271 -0.984,3.579 -2.202,4.068 -1.36,0.536 -4.522,0.214 -5.814,-2.369 l -1.464,-0.896 c -1.056,-0.485 -1.577,-0.729 -2.113,-0.923 -0.943,-0.338 -1.933,-0.76 -3.735,-1.529999 -3.198,-1.366 -6.125,-3.839 -6.125,-3.839 -0.287,-0.131 -0.464,-0.344 -0.583,-0.588"
     id="path1044" />
  <path
     style="fill:#63c99d;fill-opacity:1;fill-rule:nonzero;stroke:none"
     d="m 54.717928,80.089849 c -0.749,-0.916 -1.161,-1.448 -2.025,-1.41 -0.115,0.005 -0.24,-0.006 -0.375,-0.027 -0.505,-0.229 -1.042,-0.453 -1.63,-0.656 l -2.104,7.524999 c 1.385,2.532 4.557,2.735 5.89,2.152 1.203,-0.537 2.135,-1.885 2.052,-4.156 -0.052,-1.389999 -0.698,-2.504999 -1.808,-3.427999"
     id="path1045" />
  <path
     style="fill:none;stroke:#231f20;stroke-width:0.565977;stroke-linecap:butt;stroke-linejoin:miter;stroke-miterlimit:4;stroke-dasharray:none;stroke-opacity:1"
     d="m 54.717928,80.089849 c -0.749,-0.916 -1.161,-1.448 -2.025,-1.41 -0.115,0.005 -0.24,-0.006 -0.375,-0.027 -0.505,-0.229 -1.042,-0.453 -1.63,-0.656 l -2.104,7.524999 c 1.385,2.532 4.557,2.735 5.89,2.152 1.203,-0.537 2.135,-1.885 2.052,-4.156 -0.052,-1.389999 -0.698,-2.504999 -1.808,-3.427999 z"
     id="path1046" />
  <path
     style="fill:#ffffff;fill-opacity:1;fill-rule:nonzero;stroke:none"
     d="m 0.332928,81.272849 c 0,0.683 0.557,1.239999 1.24,1.239999 H 347.68893 c 0.68,0 1.24,-0.556999 1.24,-1.239999 0,-0.688 -0.56,-1.24 -1.24,-1.24 H 1.572928 c -0.683,0 -1.24,0.552 -1.24,1.24"
     id="path1047" />
  <path
     style="fill:none;stroke:#231f20;stroke-width:0.665856;stroke-linecap:butt;stroke-linejoin:miter;stroke-miterlimit:4;stroke-dasharray:none;stroke-opacity:1"
     d="m 0.332928,81.272849 c 0,0.683 0.557,1.239999 1.24,1.239999 H 347.68893 c 0.68,0 1.24,-0.556999 1.24,-1.239999 0,-0.688 -0.56,-1.24 -1.24,-1.24 H 1.572928 c -0.683,0 -1.24,0.552 -1.24,1.24 z"
     id="path1048" />
  <path
     style="fill:#ffffff;fill-opacity:1;fill-rule:nonzero;stroke:none"
     d="m 73.665928,70.688849 c 0.126,-0.213 -0.681,-1.036 -0.338,-1.427 0.344,-0.396 1.057,-0.041 2.876,-0.833 l 0.014,-0.011 c 1.324,-0.62 2.715,-0.629 3.719,0.115 1.663,1.24 1.652,4.079 -0.031,6.349 -1.688,2.271 -4.406,3.094 -6.073,1.86 -1.593,-1.182 -1.651,-3.844 -0.167,-6.053"
     id="path1049" />
  <path
     style="fill:none;stroke:#231f20;stroke-width:0.565977;stroke-linecap:butt;stroke-linejoin:miter;stroke-miterlimit:4;stroke-dasharray:none;stroke-opacity:1"
     d="m 73.665928,70.688849 c 0.126,-0.213 -0.681,-1.036 -0.338,-1.427 0.344,-0.396 1.057,-0.041 2.876,-0.833 l 0.014,-0.011 c 1.324,-0.62 2.715,-0.629 3.719,0.115 1.663,1.24 1.652,4.079 -0.031,6.349 -1.688,2.271 -4.406,3.094 -6.073,1.86 -1.593,-1.182 -1.651,-3.844 -0.167,-6.053 z"
     id="path1050" />
  <path
     style="fill:#231f20;fill-opacity:1;fill-rule:nonzero;stroke:none"
     d="m 52.697928,83.256848 c 0.344,0.537 2.214,1.099 3.459,2.115 0.837,0.688 3.495,1.401 4.276,2.146 0.724,0.682 1.119,0.927 2.036,0.239 0.552,-0.405 1.339,-1.552 1.047,-1.973 -0.667,-0.986 -1.459,-1.5 -2.459,-1.88 -1.135,-0.428 -4.323,-1.324 -4.927,-1.439 -1.494,-0.265 -1.984,-0.816999 -2.374,-0.931999 -0.735,-0.203 -0.995,0.032 -1.235,0.475 -0.448,0.843999 0.177,1.248999 0.177,1.248999"
     id="path1051" />
  <path
     style="fill:none;stroke:#231f20;stroke-width:0.565977;stroke-linecap:butt;stroke-linejoin:miter;stroke-miterlimit:4;stroke-dasharray:none;stroke-opacity:1"
     d="m 52.697928,83.256848 c 0.344,0.537 2.214,1.099 3.459,2.115 0.837,0.688 3.495,1.401 4.276,2.146 0.724,0.682 1.119,0.927 2.036,0.239 0.552,-0.405 1.339,-1.552 1.047,-1.973 -0.667,-0.986 -1.459,-1.5 -2.459,-1.88 -1.135,-0.428 -4.323,-1.324 -4.927,-1.439 -1.494,-0.265 -1.984,-0.816999 -2.374,-0.931999 -0.735,-0.203 -0.995,0.032 -1.235,0.475 -0.448,0.843999 0.177,1.248999 0.177,1.248999 z"
     id="path1052" />
  <path
     style="fill:#231f20;fill-opacity:1;fill-rule:nonzero;stroke:none"
     d="m 61.479928,87.709848 c 0.896,0.938 2.082,-0.718 2.457,-1.104 0.381,-0.396 1.584,-1.374 2.625,-2.021 1.042,-0.645 2.063,-1.9 4.032,-3.128999 1.042,-0.647 1.64,-1.938 0.635,-3.402 -0.995,-1.448 -2.183,-1.432 -3.323,-0.458 -1.136,0.969 -1.786,2.37 -2.864,3.426 -1.078,1.058 -2.272,2.047999 -3.25,2.766999 -1.11,0.828 -1.359,1.645 -1.24,2.109 0.281,1.162 0.928,1.812 0.928,1.812"
     id="path1053" />
  <path
     style="fill:none;stroke:#231f20;stroke-width:0.565977;stroke-linecap:butt;stroke-linejoin:miter;stroke-miterlimit:4;stroke-dasharray:none;stroke-opacity:1"
     d="m 61.479928,87.709848 c 0.896,0.938 2.082,-0.718 2.457,-1.104 0.381,-0.396 1.584,-1.374 2.625,-2.021 1.042,-0.645 2.063,-1.9 4.032,-3.128999 1.042,-0.647 1.64,-1.938 0.635,-3.402 -0.995,-1.448 -2.183,-1.432 -3.323,-0.458 -1.136,0.969 -1.786,2.37 -2.864,3.426 -1.078,1.058 -2.272,2.047999 -3.25,2.766999 -1.11,0.828 -1.359,1.645 -1.24,2.109 0.281,1.162 0.928,1.812 0.928,1.812 z"
     id="path1054" />
  <path
     style="fill:#231f20;fill-opacity:1;fill-rule:nonzero;stroke:none"
     d="m 52.384928,79.127849 c -1.129,-0.334 -2.312,0.312 -2.651,1.448 -0.328,1.129 0.318,2.311999 1.448,2.644999 1.131,0.333 2.318,-0.317 2.651,-1.447999 0.328,-1.125 -0.317,-2.312 -1.448,-2.645"
     id="path1055" />
  <path
     style="fill:#63c99d;fill-opacity:1;fill-rule:nonzero;stroke:none"
     d="m 334.01893,50.256849 c -0.22,-3.125 -0.6,-3.776 -1.03,-4.599 -2.61,-5.15 -0.03,-6.344 2.83,-6.01 3.37,0.385 4.59,0.458 4.41,6.745 -0.05,1.755 0.64,8.489 0.64,8.489 0.57,2.386 -0.14,5.011 -1.29,5.907 -1.21,0.943 -0.8,0.484 -2.07,1.151 -1.23,0.64 -3.41,0.536 -4.17,-0.448 -0.71,-0.943 -0.1,-2.49 0.5,-4.839 0.47,-1.855 0.18,-6.396 0.18,-6.396"
     id="path1056" />
  <path
     style="fill:none;stroke:#231f20;stroke-width:0.565977;stroke-linecap:butt;stroke-linejoin:miter;stroke-miterlimit:4;stroke-dasharray:none;stroke-opacity:1"
     d="m 334.01893,50.256849 c -0.22,-3.125 -0.6,-3.776 -1.03,-4.599 -2.61,-5.15 -0.03,-6.344 2.83,-6.01 3.37,0.385 4.59,0.458 4.41,6.745 -0.05,1.755 0.64,8.489 0.64,8.489 0.57,2.386 -0.14,5.011 -1.29,5.907 -1.21,0.943 -0.8,0.484 -2.07,1.151 -1.23,0.64 -3.41,0.536 -4.17,-0.448 -0.71,-0.943 -0.1,-2.49 0.5,-4.839 0.47,-1.855 0.18,-6.396 0.18,-6.396 z"
     id="path1057" />
  <path
     style="fill:#ffffff;fill-opacity:1;fill-rule:nonzero;stroke:none"
     d="m 336.42893,70.569849 c -0.16,0.187 0.5,1.135 0.09,1.458 -0.41,0.333 -1.04,-0.14 -2.97,0.333 l -0.02,0.005 c -1.4,0.391 -2.78,0.167 -3.64,-0.738 -1.44,-1.506 -0.94,-4.303 1.1,-6.251 2.05,-1.953 4.87,-2.307 6.3,-0.807 1.38,1.438 0.98,4.072 -0.86,6"
     id="path1058" />
  <path
     style="fill:none;stroke:#231f20;stroke-width:0.565977;stroke-linecap:butt;stroke-linejoin:miter;stroke-miterlimit:4;stroke-dasharray:none;stroke-opacity:1"
     d="m 336.42893,70.569849 c -0.16,0.187 0.5,1.135 0.09,1.458 -0.41,0.333 -1.04,-0.14 -2.97,0.333 l -0.02,0.005 c -1.4,0.391 -2.78,0.167 -3.64,-0.738 -1.44,-1.506 -0.94,-4.303 1.1,-6.251 2.05,-1.953 4.87,-2.307 6.3,-0.807 1.38,1.438 0.98,4.072 -0.86,6 z"
     id="path1059" />
  <path
     style="fill:#231f20;fill-opacity:1;fill-rule:nonzero;stroke:none"
     d="m 336.63893,79.855849 c 0.39,-0.51 0.27,-2.452 0.8,-3.974 0.35,-1.026 0.11,-3.76 0.55,-4.754 0.39,-0.912 0.48,-1.371 -0.48,-1.996 -0.57,-0.375 -1.92,-0.723 -2.22,-0.307 -0.69,0.969 -0.9,1.891 -0.91,2.959 -0.01,1.218 0.24,4.516 0.34,5.12 0.26,1.5 -0.09,2.15 -0.06,2.552 0.06,0.76 0.37,0.921 0.86,0.994 0.95,0.13 1.12,-0.594 1.12,-0.594"
     id="path1060" />
  <path
     style="fill:none;stroke:#231f20;stroke-width:0.565977;stroke-linecap:butt;stroke-linejoin:miter;stroke-miterlimit:4;stroke-dasharray:none;stroke-opacity:1"
     d="m 336.63893,79.855849 c 0.39,-0.51 0.27,-2.452 0.8,-3.974 0.35,-1.026 0.11,-3.76 0.55,-4.754 0.39,-0.912 0.48,-1.371 -0.48,-1.996 -0.57,-0.375 -1.92,-0.723 -2.22,-0.307 -0.69,0.969 -0.9,1.891 -0.91,2.959 -0.01,1.218 0.24,4.516 0.34,5.12 0.26,1.5 -0.09,2.15 -0.06,2.552 0.06,0.76 0.37,0.921 0.86,0.994 0.95,0.13 1.12,-0.594 1.12,-0.594 z"
     id="path1061" />
  <path
     style="fill:#231f20;fill-opacity:1;fill-rule:nonzero;stroke:none"
     d="m 337.37893,70.824849 c 1.3,-0.031 0.87,-2.027 0.83,-2.563 -0.03,-0.546 0.06,-2.098 0.28,-3.296 0.21,-1.214 -0.03,-2.808 0.39,-5.094 0.22,-1.208 -0.33,-2.516 -2.09,-2.755 -1.74,-0.24 -2.53,0.651 -2.57,2.145 -0.05,1.495 0.55,2.923 0.6,4.427 0.07,1.511 -0.01,3.057 -0.13,4.267 -0.14,1.374 0.3,2.109 0.73,2.333 1.04,0.577 1.96,0.536 1.96,0.536"
     id="path1062" />
  <path
     style="fill:none;stroke:#231f20;stroke-width:0.565977;stroke-linecap:butt;stroke-linejoin:miter;stroke-miterlimit:4;stroke-dasharray:none;stroke-opacity:1"
     d="m 337.37893,70.824849 c 1.3,-0.031 0.87,-2.027 0.83,-2.563 -0.03,-0.546 0.06,-2.098 0.28,-3.296 0.21,-1.214 -0.03,-2.808 0.39,-5.094 0.22,-1.208 -0.33,-2.516 -2.09,-2.755 -1.74,-0.24 -2.53,0.651 -2.57,2.145 -0.05,1.495 0.55,2.923 0.6,4.427 0.07,1.511 -0.01,3.057 -0.13,4.267 -0.14,1.374 0.3,2.109 0.73,2.333 1.04,0.577 1.96,0.536 1.96,0.536 z"
     id="path1063" />
  <path
     style="fill:#231f20;fill-opacity:1;fill-rule:nonzero;stroke:none"
     d="m 334.30893,24.679849 c -2.21,0.489 -2.71,0.281 -2.98,-0.641 -0.18,-0.615 -0.55,-1.115 -0.68,-1.479 -0.42,-1.229 -0.62,-3.475 0.45,-9.969 0.25,-1.463 0.58,-3.5359996 0.65,-4.3909996 0.1,-1.353 2.28,-0.26 2.24,0.276 -0.11,1.7089996 -0.06,2.8909996 -0.01,3.5109996 0.03,0.426 -0.03,1.188 0.3,2.822 0.5,2.48 1.16,3.891 1.33,6 0.09,0.98 0.77,1.662 0.35,2.662 -0.4,1.01 -1.65,1.209 -1.65,1.209"
     id="path1064" />
  <path
     style="fill:none;stroke:#231f20;stroke-width:0.565977;stroke-linecap:butt;stroke-linejoin:miter;stroke-miterlimit:4;stroke-dasharray:none;stroke-opacity:1"
     d="m 334.30893,24.679849 c -2.21,0.489 -2.71,0.281 -2.98,-0.641 -0.18,-0.615 -0.55,-1.115 -0.68,-1.479 -0.42,-1.229 -0.62,-3.475 0.45,-9.969 0.25,-1.463 0.58,-3.5359996 0.65,-4.3909996 0.1,-1.353 2.28,-0.26 2.24,0.276 -0.11,1.7089996 -0.06,2.8909996 -0.01,3.5109996 0.03,0.426 -0.03,1.188 0.3,2.822 0.5,2.48 1.16,3.891 1.33,6 0.09,0.98 0.77,1.662 0.35,2.662 -0.4,1.01 -1.65,1.209 -1.65,1.209 z"
     id="path1065" />
  <path
     style="fill:#231f20;fill-opacity:1;fill-rule:nonzero;stroke:#231f20;stroke-width:0.565977;stroke-linecap:round;stroke-linejoin:round;stroke-miterlimit:4;stroke-dasharray:none;stroke-opacity:1"
     d="m 335.55893,22.512849 c 1.19,0.771 0.88,2.906 0.99,3.23 1.52,4.78 1.5,5.156 2.4,8.869 1.3,5.374 1.37,9.254 -1.54,10.921 -1.97,1.136 -3.59,0.932 -4.63,0.109 -1.13,-0.905 -2.43,-3.812 -0.83,-6.218 l 0.06,-1.708 c -0.11,-1.162 -0.16,-1.729 -0.26,-2.297 -0.18,-0.984 -0.3,-2.058 -0.53,-4 -0.41,-3.448 0.29,-7.224 0.29,-7.224 -0.04,-0.312 0.06,-0.572 0.21,-0.796"
     id="path1066" />
  <path
     style="fill:#63c99d;fill-opacity:1;fill-rule:nonzero;stroke:none"
     d="m 339.90893,39.679849 c -0.03,-0.063 -0.07,-0.136 -0.1,-0.21 -0.05,-0.582 -0.13,-1.181 -0.25,-1.828 l -7.58,1.912 c -1.51,2.464 -0.1,5.318 1.07,6.188 1.06,0.776 2.69,0.911 4.62,-0.286 1.25,-0.782 1.89,-1.986 2.11,-3.527 0.37,-0.968 0.56,-1.568 0.13,-2.249"
     id="path1067" />
  <path
     style="fill:none;stroke:#231f20;stroke-width:0.565977;stroke-linecap:butt;stroke-linejoin:miter;stroke-miterlimit:4;stroke-dasharray:none;stroke-opacity:1"
     d="m 339.90893,39.679849 c -0.03,-0.063 -0.07,-0.136 -0.1,-0.21 -0.05,-0.582 -0.13,-1.181 -0.25,-1.828 l -7.58,1.912 c -1.51,2.464 -0.1,5.318 1.07,6.188 1.06,0.776 2.69,0.911 4.62,-0.286 1.25,-0.782 1.89,-1.986 2.11,-3.527 0.37,-0.968 0.56,-1.568 0.13,-2.249 z"
     id="path1068" />
  <path
     style="fill:#231f20;fill-opacity:1;fill-rule:nonzero;stroke:none"
     d="m 331.46893,5.8248494 c -0.98,0.922 -0.6,1.844 0.31,2.318 0.28,0.146 0.36,0.552 0.64,0.666 0.65,0.276 2.24,-0.437 1.99,-1.916 -0.02,-0.104 0.08,-0.917 0.07,-1.541 -0.03,-1.209 -0.68,-3.62 -3.02,-4.94299996 -1.12,-0.636 -1.28,0.135 -0.91,0.531 1.18,1.23999996 1.04,1.57899996 1.23,2.01599996 0.66,1.489 -0.31,2.869 -0.31,2.869"
     id="path1069" />
  <path
     style="fill:none;stroke:#231f20;stroke-width:0.332927;stroke-linecap:butt;stroke-linejoin:miter;stroke-miterlimit:4;stroke-dasharray:none;stroke-opacity:1"
     d="m 331.46893,5.8248494 c -0.98,0.922 -0.6,1.844 0.31,2.318 0.28,0.146 0.36,0.552 0.64,0.666 0.65,0.276 2.24,-0.437 1.99,-1.916 -0.02,-0.104 0.08,-0.917 0.07,-1.541 -0.03,-1.209 -0.68,-3.62 -3.02,-4.94299996 -1.12,-0.636 -1.28,0.135 -0.91,0.531 1.18,1.23999996 1.04,1.57899996 1.23,2.01599996 0.66,1.489 -0.31,2.869 -0.31,2.869 z"
     id="path1070" />
  <path
     style="fill:#231f20;fill-opacity:1;fill-rule:nonzero;stroke:none"
     d="m 332.72893,80.688849 c -0.21,1.157 0.55,2.271999 1.71,2.490999 1.16,0.213 2.27,-0.552 2.49,-1.709999 0.21,-1.156 -0.55,-2.27 -1.71,-2.484 -1.16,-0.218 -2.27,0.547 -2.49,1.703"
     id="path1071" />
  <path
     style="fill:#231f20;fill-opacity:1;fill-rule:nonzero;stroke:none"
     d="m 91.665928,81.715849 c 0.543,0.338 2.47,0.03 4.032,0.416 1.058,0.244999 3.755,-0.255 4.787002,0.078 0.948,0.303 1.411,0.355 1.937,-0.665998 0.318,-0.604 0.531,-1.974 0.094,-2.23 -1.031,-0.598 -1.968,-0.718 -3.031002,-0.629 -1.215,0.104 -4.475,0.671 -5.068,0.837 -1.464,0.402 -2.147,0.115 -2.541,0.183 -0.751,0.136 -0.886,0.459 -0.912,0.959 -0.036,0.958 0.702,1.052 0.702,1.052"
     id="path1072" />
  <path
     style="fill:none;stroke:#231f20;stroke-width:0.565977;stroke-linecap:butt;stroke-linejoin:miter;stroke-miterlimit:4;stroke-dasharray:none;stroke-opacity:1"
     d="m 91.665928,81.715849 c 0.543,0.338 2.47,0.03 4.032,0.416 1.058,0.244999 3.755,-0.255 4.787002,0.078 0.948,0.303 1.411,0.355 1.937,-0.665998 0.318,-0.604 0.531,-1.974 0.094,-2.23 -1.031,-0.598 -1.968,-0.718 -3.031002,-0.629 -1.215,0.104 -4.475,0.671 -5.068,0.837 -1.464,0.402 -2.147,0.115 -2.541,0.183 -0.751,0.136 -0.886,0.459 -0.912,0.959 -0.036,0.958 0.702,1.052 0.702,1.052 z"
     id="path1073" />
  <path
     style="fill:#231f20;fill-opacity:1;fill-rule:nonzero;stroke:none"
     d="m 100.59993,81.611849 c 0.364,1.243999 2.181,0.312 2.692,0.14 0.516,-0.172 2.036,-0.495 3.256,-0.588 1.222,-0.104 2.708,-0.751 5.02,-0.938 1.224,-0.098 2.344,-0.969 2.12,-2.729 -0.219,-1.745 -1.282,-2.276 -2.74,-1.932 -1.454,0.339 -2.678,1.281 -4.115,1.735 -1.448,0.446 -2.957,0.776 -4.161,0.968 -1.364,0.224 -1.959,0.838 -2.068,1.308 -0.28,1.161 -0.004,2.036 -0.004,2.036"
     id="path1074" />
  <path
     style="fill:none;stroke:#231f20;stroke-width:0.565977;stroke-linecap:butt;stroke-linejoin:miter;stroke-miterlimit:4;stroke-dasharray:none;stroke-opacity:1"
     d="m 100.59993,81.611849 c 0.364,1.243999 2.181,0.312 2.692,0.14 0.516,-0.172 2.036,-0.495 3.256,-0.588 1.222,-0.104 2.708,-0.751 5.02,-0.938 1.224,-0.098 2.344,-0.969 2.12,-2.729 -0.219,-1.745 -1.282,-2.276 -2.74,-1.932 -1.454,0.339 -2.678,1.281 -4.115,1.735 -1.448,0.446 -2.957,0.776 -4.161,0.968 -1.364,0.224 -1.959,0.838 -2.068,1.308 -0.28,1.161 -0.004,2.036 -0.004,2.036 z"
     id="path1075" />
  <path
     style="fill:#231f20;fill-opacity:1;fill-rule:nonzero;stroke:none"
     d="m 90.093928,78.480849 c -1.166,0.188 -1.953,1.287 -1.766,2.448 0.193,1.161 1.292,1.952999 2.448,1.759999 1.166,-0.187 1.953,-1.279999 1.766,-2.446999 -0.193,-1.162 -1.292,-1.948 -2.448,-1.761"
     id="path1076" />
  <path
     style="fill:#231f20;fill-opacity:1;fill-rule:nonzero;stroke:none"
     d="m 140.19793,81.715849 c 0.541,0.338 2.468,0.03 4.031,0.416 1.052,0.244999 3.75,-0.255 4.781,0.078 0.943,0.303 1.412,0.355 1.937,-0.665998 0.319,-0.604 0.532,-1.974 0.095,-2.23 -1.032,-0.598 -1.969,-0.718 -3.032,-0.629 -1.208,0.104 -4.468,0.671 -5.063,0.837 -1.462,0.402 -2.145,0.115 -2.541,0.183 -0.749,0.136 -0.885,0.459 -0.907,0.959 -0.041,0.958 0.699,1.052 0.699,1.052"
     id="path1077" />
  <path
     style="fill:none;stroke:#231f20;stroke-width:0.565977;stroke-linecap:butt;stroke-linejoin:miter;stroke-miterlimit:4;stroke-dasharray:none;stroke-opacity:1"
     d="m 140.19793,81.715849 c 0.541,0.338 2.468,0.03 4.031,0.416 1.052,0.244999 3.75,-0.255 4.781,0.078 0.943,0.303 1.412,0.355 1.937,-0.665998 0.319,-0.604 0.532,-1.974 0.095,-2.23 -1.032,-0.598 -1.969,-0.718 -3.032,-0.629 -1.208,0.104 -4.468,0.671 -5.063,0.837 -1.462,0.402 -2.145,0.115 -2.541,0.183 -0.749,0.136 -0.885,0.459 -0.907,0.959 -0.041,0.958 0.699,1.052 0.699,1.052 z"
     id="path1078" />
  <path
     style="fill:#231f20;fill-opacity:1;fill-rule:nonzero;stroke:none"
     d="m 149.12493,81.611849 c 0.369,1.243999 2.182,0.312 2.688,0.14 0.52,-0.172 2.041,-0.495 3.26,-0.588 1.224,-0.104 2.702,-0.751 5.016,-0.938 1.224,-0.098 2.344,-0.969 2.12,-2.729 -0.219,-1.745 -1.282,-2.276 -2.74,-1.932 -1.454,0.339 -2.672,1.281 -4.115,1.735 -1.443,0.446 -2.953,0.776 -4.156,0.968 -1.365,0.224 -1.953,0.838 -2.063,1.308 -0.286,1.161 -0.01,2.036 -0.01,2.036"
     id="path1079" />
  <path
     style="fill:none;stroke:#231f20;stroke-width:0.565977;stroke-linecap:butt;stroke-linejoin:miter;stroke-miterlimit:4;stroke-dasharray:none;stroke-opacity:1"
     d="m 149.12493,81.611849 c 0.369,1.243999 2.182,0.312 2.688,0.14 0.52,-0.172 2.041,-0.495 3.26,-0.588 1.224,-0.104 2.702,-0.751 5.016,-0.938 1.224,-0.098 2.344,-0.969 2.12,-2.729 -0.219,-1.745 -1.282,-2.276 -2.74,-1.932 -1.454,0.339 -2.672,1.281 -4.115,1.735 -1.443,0.446 -2.953,0.776 -4.156,0.968 -1.365,0.224 -1.953,0.838 -2.063,1.308 -0.286,1.161 -0.01,2.036 -0.01,2.036 z"
     id="path1080" />
  <path
     style="fill:#231f20;fill-opacity:1;fill-rule:nonzero;stroke:none"
     d="m 138.62493,78.480849 c -1.167,0.188 -1.954,1.287 -1.766,2.448 0.192,1.161 1.292,1.952999 2.448,1.759999 1.167,-0.187 1.954,-1.279999 1.766,-2.446999 -0.192,-1.162 -1.287,-1.948 -2.448,-1.761"
     id="path1081" />
  <path
     style="fill:#231f20;fill-opacity:1;fill-rule:nonzero;stroke:none"
     d="m 210.45793,80.408849 c 0.615,-0.188 1.656,-1.833 2.975,-2.756 0.88,-0.625 2.285,-2.984 3.218,-3.541 0.848,-0.506 1.192,-0.823 0.782,-1.896 -0.246,-0.64 -1.136,-1.703 -1.62,-1.542 -1.126,0.38 -1.834,1 -2.475,1.859 -0.719,0.98 -2.443,3.808 -2.713,4.36 -0.662,1.369 -1.328,1.687 -1.536,2.031 -0.396,0.656 -0.246,0.964 0.114,1.313 0.698,0.661 1.255,0.172 1.255,0.172"
     id="path1082" />
  <path
     style="fill:none;stroke:#231f20;stroke-width:0.565977;stroke-linecap:butt;stroke-linejoin:miter;stroke-miterlimit:4;stroke-dasharray:none;stroke-opacity:1"
     d="m 210.45793,80.408849 c 0.615,-0.188 1.656,-1.833 2.975,-2.756 0.88,-0.625 2.285,-2.984 3.218,-3.541 0.848,-0.506 1.192,-0.823 0.782,-1.896 -0.246,-0.64 -1.136,-1.703 -1.62,-1.542 -1.126,0.38 -1.834,1 -2.475,1.859 -0.719,0.98 -2.443,3.808 -2.713,4.36 -0.662,1.369 -1.328,1.687 -1.536,2.031 -0.396,0.656 -0.246,0.964 0.114,1.313 0.698,0.661 1.255,0.172 1.255,0.172 z"
     id="path1083" />
  <path
     style="fill:#231f20;fill-opacity:1;fill-rule:nonzero;stroke:none"
     d="m 216.27493,73.632849 c 1.178,0.541 1.678,-1.433 1.886,-1.928 0.209,-0.505 0.974,-1.859 1.704,-2.839 0.734,-0.984 1.229,-2.52 2.614,-4.39 0.73,-0.979 0.818,-2.396 -0.652,-3.391 -1.457,-0.989 -2.557,-0.541 -3.26,0.781 -0.702,1.319 -0.801,2.855 -1.416,4.235 -0.614,1.38 -1.37,2.735 -2.016,3.765 -0.729,1.172 -0.661,2.022 -0.385,2.412 0.687,0.984 1.525,1.355 1.525,1.355"
     id="path1084" />
  <path
     style="fill:none;stroke:#231f20;stroke-width:0.565977;stroke-linecap:butt;stroke-linejoin:miter;stroke-miterlimit:4;stroke-dasharray:none;stroke-opacity:1"
     d="m 216.27493,73.632849 c 1.178,0.541 1.678,-1.433 1.886,-1.928 0.209,-0.505 0.974,-1.859 1.704,-2.839 0.734,-0.984 1.229,-2.52 2.614,-4.39 0.73,-0.979 0.818,-2.396 -0.652,-3.391 -1.457,-0.989 -2.557,-0.541 -3.26,0.781 -0.702,1.319 -0.801,2.855 -1.416,4.235 -0.614,1.38 -1.37,2.735 -2.016,3.765 -0.729,1.172 -0.661,2.022 -0.385,2.412 0.687,0.984 1.525,1.355 1.525,1.355 z"
     id="path1085" />
  <path
     style="fill:#231f20;fill-opacity:1;fill-rule:nonzero;stroke:none"
     d="m 206.98993,79.455849 c -0.631,1 -0.324,2.312 0.671,2.941999 1,0.62 2.318,0.323 2.942,-0.676999 0.626,-1 0.33,-2.317 -0.676,-2.943 -1,-0.625 -2.313,-0.317 -2.937,0.678"
     id="path1086" />
  <path
     style="fill:#231f20;fill-opacity:1;fill-rule:nonzero;stroke:none"
     d="m 287.76893,79.543849 c 0.41,-0.484 0.4,-2.438 1.02,-3.922 0.4,-1.005 0.32,-3.75 0.8,-4.713 0.45,-0.891 0.57,-1.344 -0.36,-2.021 -0.55,-0.412 -1.87,-0.828 -2.19,-0.432 -0.75,0.926 -1.01,1.833 -1.08,2.9 -0.08,1.214 -0.02,4.521 0.05,5.136 0.18,1.505 -0.21,2.136 -0.2,2.541 0.02,0.761 0.32,0.943 0.8,1.043 0.95,0.181 1.16,-0.532 1.16,-0.532"
     id="path1087" />
  <path
     style="fill:none;stroke:#231f20;stroke-width:0.565977;stroke-linecap:butt;stroke-linejoin:miter;stroke-miterlimit:4;stroke-dasharray:none;stroke-opacity:1"
     d="m 287.76893,79.543849 c 0.41,-0.484 0.4,-2.438 1.02,-3.922 0.4,-1.005 0.32,-3.75 0.8,-4.713 0.45,-0.891 0.57,-1.344 -0.36,-2.021 -0.55,-0.412 -1.87,-0.828 -2.19,-0.432 -0.75,0.926 -1.01,1.833 -1.08,2.9 -0.08,1.214 -0.02,4.521 0.05,5.136 0.18,1.505 -0.21,2.136 -0.2,2.541 0.02,0.761 0.32,0.943 0.8,1.043 0.95,0.181 1.16,-0.532 1.16,-0.532 z"
     id="path1088" />
  <path
     style="fill:#231f20;fill-opacity:1;fill-rule:nonzero;stroke:none"
     d="m 289.01893,70.699849 c 1.29,-0.172 0.65,-2.11 0.55,-2.635 -0.1,-0.543 -0.17,-2.095 -0.08,-3.313 0.08,-1.224 -0.33,-2.786 -0.17,-5.104 0.09,-1.219 -0.6,-2.459 -2.37,-2.511 -1.76,-0.047 -2.44,0.917 -2.32,2.412 0.11,1.489 0.86,2.839 1.08,4.333 0.22,1.495 0.31,3.042 0.33,4.255 0.01,1.385 0.52,2.063 0.97,2.245 1.1,0.459 2.01,0.318 2.01,0.318"
     id="path1089" />
  <path
     style="fill:none;stroke:#231f20;stroke-width:0.565977;stroke-linecap:butt;stroke-linejoin:miter;stroke-miterlimit:4;stroke-dasharray:none;stroke-opacity:1"
     d="m 289.01893,70.699849 c 1.29,-0.172 0.65,-2.11 0.55,-2.635 -0.1,-0.543 -0.17,-2.095 -0.08,-3.313 0.08,-1.224 -0.33,-2.786 -0.17,-5.104 0.09,-1.219 -0.6,-2.459 -2.37,-2.511 -1.76,-0.047 -2.44,0.917 -2.32,2.412 0.11,1.489 0.86,2.839 1.08,4.333 0.22,1.495 0.31,3.042 0.33,4.255 0.01,1.385 0.52,2.063 0.97,2.245 1.1,0.459 2.01,0.318 2.01,0.318 z"
     id="path1090" />
  <path
     style="fill:#231f20;fill-opacity:1;fill-rule:nonzero;stroke:none"
     d="m 284.31893,80.605849 c 0.01,1.183 0.98,2.125999 2.16,2.114999 1.18,-0.011 2.12,-0.974999 2.11,-2.144999 -0.01,-1.183 -0.97,-2.131 -2.15,-2.12 -1.18,0.009 -2.13,0.973 -2.12,2.15"
     id="path1091" />
</svg>
