<?xml version="1.0" encoding="UTF-8" standalone="no"?>
<!-- Created with Inkscape (http://www.inkscape.org/) -->

<svg
   version="1.1"
   id="svg1"
   width="349.25885"
   height="68.391335"
   viewBox="0 0 349.25884 68.391336"
   sodipodi:docname="cell.svg"
   xmlns:inkscape="http://www.inkscape.org/namespaces/inkscape"
   xmlns:sodipodi="http://sodipodi.sourceforge.net/DTD/sodipodi-0.dtd"
   xmlns="http://www.w3.org/2000/svg"
   xmlns:svg="http://www.w3.org/2000/svg">
  <sodipodi:namedview
     id="namedview1"
     pagecolor="#ffffff"
     bordercolor="#000000"
     borderopacity="0.25"
     inkscape:showpageshadow="2"
     inkscape:pageopacity="0.0"
     inkscape:pagecheckerboard="0"
     inkscape:deskcolor="#d1d1d1">
    <inkscape:page
       x="0"
       y="2.1815964e-07"
       inkscape:label="1"
       id="page1"
       width="349.25885"
       height="68.391335"
       margin="0"
       bleed="0" />
  </sodipodi:namedview>
  <defs
     id="defs1" />
  <path
     style="fill:#63c99d;fill-opacity:1;fill-rule:nonzero;stroke:none"
     d="m 126.69593,10.530054 c -3.129,0 -3.806,-0.339 -4.65,-0.7039999 -5.323,-2.2657 -6.333,0.3959999 -5.807,3.2239999 0.615,3.338 0.771,4.548 7.031,3.944 1.745,-0.172 8.516,0.052 8.516,0.052 2.416,0.41 4.984,-0.48 5.801,-1.683 0.86,-1.276 0.428,-0.839 1.005,-2.151 0.558,-1.266 0.298,-3.4379999 -0.729,-4.1143999 -0.989,-0.6613 -2.495,0.0574 -4.796,0.8174 -1.819,0.5929999 -6.371,0.6149999 -6.371,0.6149999"
     id="path538" />
  <path
     style="fill:none;stroke:#231f20;stroke-width:0.565977;stroke-linecap:butt;stroke-linejoin:miter;stroke-miterlimit:4;stroke-dasharray:none;stroke-opacity:1"
     d="m 126.69593,10.530054 c -3.129,0 -3.806,-0.339 -4.65,-0.7039999 -5.323,-2.2657 -6.333,0.3959999 -5.807,3.2239999 0.615,3.338 0.771,4.548 7.031,3.944 1.745,-0.172 8.516,0.052 8.516,0.052 2.416,0.41 4.984,-0.48 5.801,-1.683 0.86,-1.276 0.428,-0.839 1.005,-2.151 0.558,-1.266 0.298,-3.4379999 -0.729,-4.1143999 -0.989,-0.6613 -2.495,0.0574 -4.796,0.8174 -1.819,0.5929999 -6.371,0.6149999 -6.371,0.6149999 z"
     id="path539" />
  <path
     style="fill:#ffffff;fill-opacity:1;fill-rule:nonzero;stroke:none"
     d="m 144.24793,15.331054 c 0.246,-0.004 0.548,1.109 1.063,1.011 0.516,-0.099 0.568,-0.891 2.167,-2.063 l 0.016,-0.015 c 1.197,-0.824 1.917,-2.016 1.776,-3.261 -0.23,-2.0666999 -2.694,-3.4839999 -5.49,-3.1773999 -2.817,0.3134 -4.901,2.2403999 -4.677,4.3023999 0.219,1.979 2.489,3.364 5.145,3.203"
     id="path540" />
  <path
     style="fill:none;stroke:#231f20;stroke-width:0.565977;stroke-linecap:butt;stroke-linejoin:miter;stroke-miterlimit:4;stroke-dasharray:none;stroke-opacity:1"
     d="m 144.24793,15.331054 c 0.246,-0.004 0.548,1.109 1.063,1.011 0.516,-0.099 0.568,-0.891 2.167,-2.063 l 0.016,-0.015 c 1.197,-0.824 1.917,-2.016 1.776,-3.261 -0.23,-2.0666999 -2.694,-3.4839999 -5.49,-3.1773999 -2.817,0.3134 -4.901,2.2403999 -4.677,4.3023999 0.219,1.979 2.489,3.364 5.145,3.203 z"
     id="path541" />
  <path
     style="fill:#231f20;fill-opacity:1;fill-rule:nonzero;stroke:none"
     d="m 101.52093,16.404054 c -0.183,-2.26 -0.522,-2.672 -1.48,-2.65 -0.646002,0 -1.235002,-0.208 -1.620002,-0.224 -1.291,-0.047 -3.506,0.416 -9.396,3.349 -1.334,0.661 -3.219,1.577 -4.015,1.891 -1.261,0.5 0.416,2.265 0.921,2.072 1.599,-0.615 2.746,-0.902 3.355,-1.042 0.416,-0.098 1.125,-0.369 2.787,-0.53 2.514,-0.251 4.057,-0.032 6.124,-0.486 0.964,-0.202 1.813002,0.246 2.652002,-0.442 0.842,-0.682 0.672,-1.938 0.672,-1.938"
     id="path542" />
  <path
     style="fill:none;stroke:#231f20;stroke-width:0.565977;stroke-linecap:butt;stroke-linejoin:miter;stroke-miterlimit:4;stroke-dasharray:none;stroke-opacity:1"
     d="m 101.52093,16.404054 c -0.183,-2.26 -0.522,-2.672 -1.48,-2.65 -0.646002,0 -1.235002,-0.208 -1.620002,-0.224 -1.291,-0.047 -3.506,0.416 -9.396,3.349 -1.334,0.661 -3.219,1.577 -4.015,1.891 -1.261,0.5 0.416,2.265 0.921,2.072 1.599,-0.615 2.746,-0.902 3.355,-1.042 0.416,-0.098 1.125,-0.369 2.787,-0.53 2.514,-0.251 4.057,-0.032 6.124,-0.486 0.964,-0.202 1.813002,0.246 2.652002,-0.442 0.842,-0.682 0.672,-1.938 0.672,-1.938 z"
     id="path543" />
  <path
     style="fill:#231f20;fill-opacity:1;fill-rule:nonzero;stroke:#231f20;stroke-width:0.565977;stroke-linecap:round;stroke-linejoin:round;stroke-miterlimit:4;stroke-dasharray:none;stroke-opacity:1"
     d="m 99.810928,18.238054 c 1.090002,0.917 3.038002,-0.006 3.376002,0.005 5.015,0.052 5.375,-0.073 9.187,-0.303 5.521,-0.328 9.25,-1.394 10,-4.661 0.505,-2.219 -0.167,-3.7129999 -1.25,-4.4626999 -1.209,-0.8227 -4.359,-1.2133 -6.193,1.0197 l -1.62,0.5519999 c -1.14,0.24 -1.702,0.36 -2.27,0.434 -0.995,0.118 -2.052,0.312 -3.979,0.661 -3.417,0.62 -6.828,2.38 -6.828,2.38 -0.308002,0.068 -0.532002,0.235 -0.699002,0.448"
     id="path544" />
  <path
     style="fill:#63c99d;fill-opacity:1;fill-rule:nonzero;stroke:none"
     d="m 121.96293,9.7480541 c -0.985,-1.0837 -3.969,-2.1717 -6.261,-0.4117 l -1.099,7.7346999 c 0.615,0.052 1.188,0.063 1.746,0.057 0.129,0.036 0.254,0.079 0.358,0.126 0.776,0.39 1.371,0.068 2.427,-0.475 1.386,-0.4 2.428,-1.156 3.032,-2.405 0.989,-2.047 0.688,-3.652 -0.203,-4.6259999"
     id="path545" />
  <path
     style="fill:none;stroke:#231f20;stroke-width:0.565977;stroke-linecap:butt;stroke-linejoin:miter;stroke-miterlimit:4;stroke-dasharray:none;stroke-opacity:1"
     d="m 121.96293,9.7480541 c -0.985,-1.0837 -3.969,-2.1717 -6.261,-0.4117 l -1.099,7.7346999 c 0.615,0.052 1.188,0.063 1.746,0.057 0.129,0.036 0.254,0.079 0.358,0.126 0.776,0.39 1.371,0.068 2.427,-0.475 1.386,-0.4 2.428,-1.156 3.032,-2.405 0.989,-2.047 0.688,-3.652 -0.203,-4.6259999 z"
     id="path546" />
  <path
     style="fill:#231f20;fill-opacity:1;fill-rule:nonzero;stroke:none"
     d="m 82.466928,18.831054 c 0.59,-1.208 1.584,-1.119 2.308,-0.38 0.219,0.219 0.636,0.183 0.828,0.412 0.448,0.547 0.23,2.276 -1.26,2.459 -0.104,0.014 -0.849,0.353 -1.448,0.525 -1.166,0.317 -3.661,0.412 -5.62,-1.443 -0.926,-0.88 -0.234,-1.265 0.25,-1.025 1.526,0.771 1.813,0.536 2.292,0.593 1.614,0.192 2.65,-1.141 2.65,-1.141"
     id="path547" />
  <path
     style="fill:none;stroke:#231f20;stroke-width:0.332927;stroke-linecap:butt;stroke-linejoin:miter;stroke-miterlimit:4;stroke-dasharray:none;stroke-opacity:1"
     d="m 82.466928,18.831054 c 0.59,-1.208 1.584,-1.119 2.308,-0.38 0.219,0.219 0.636,0.183 0.828,0.412 0.448,0.547 0.23,2.276 -1.26,2.459 -0.104,0.014 -0.849,0.353 -1.448,0.525 -1.166,0.317 -3.661,0.412 -5.62,-1.443 -0.926,-0.88 -0.234,-1.265 0.25,-1.025 1.526,0.771 1.813,0.536 2.292,0.593 1.614,0.192 2.65,-1.141 2.65,-1.141 z"
     id="path548" />
  <path
     style="fill:#231f20;fill-opacity:1;fill-rule:nonzero;stroke:none"
     d="m 156.03993,14.779054 c -0.53,0.36 -2.464,0.12 -4.016,0.548 -1.046,0.291 -3.754,-0.12 -4.781,0.249 -0.937,0.339 -1.389,0.407 -1.957,-0.598 -0.339,-0.595 -0.599,-1.954 -0.172,-2.23 1.01,-0.63 1.948,-0.781 3.01,-0.729 1.214,0.063 4.495,0.521 5.088,0.656 1.484,0.36 2.156,0.047 2.552,0.104 0.756,0.104 0.902,0.423 0.943,0.923 0.073,0.958 -0.667,1.077 -0.667,1.077"
     id="path549" />
  <path
     style="fill:none;stroke:#231f20;stroke-width:0.565977;stroke-linecap:butt;stroke-linejoin:miter;stroke-miterlimit:4;stroke-dasharray:none;stroke-opacity:1"
     d="m 156.03993,14.779054 c -0.53,0.36 -2.464,0.12 -4.016,0.548 -1.046,0.291 -3.754,-0.12 -4.781,0.249 -0.937,0.339 -1.389,0.407 -1.957,-0.598 -0.339,-0.595 -0.599,-1.954 -0.172,-2.23 1.01,-0.63 1.948,-0.781 3.01,-0.729 1.214,0.063 4.495,0.521 5.088,0.656 1.484,0.36 2.156,0.047 2.552,0.104 0.756,0.104 0.902,0.423 0.943,0.923 0.073,0.958 -0.667,1.077 -0.667,1.077 z"
     id="path550" />
  <path
     style="fill:#231f20;fill-opacity:1;fill-rule:nonzero;stroke:none"
     d="m 146.98293,14.956054 c -0.115,1.292 -2.077,0.746 -2.604,0.672 -0.547,-0.068 -2.104,-0.078 -3.312,0.068 -1.224,0.146 -2.803,-0.193 -5.109,0.078 -1.214,0.146 -2.491,-0.484 -2.62,-2.255 -0.131,-1.749 0.801,-2.484 2.301,-2.437 1.495,0.046 2.881,0.729 4.381,0.88 1.5,0.156 3.052,0.177 4.266,0.13 1.38,-0.046 2.088,0.432 2.286,0.87 0.51,1.084 0.411,1.994 0.411,1.994"
     id="path551" />
  <path
     style="fill:none;stroke:#231f20;stroke-width:0.565977;stroke-linecap:butt;stroke-linejoin:miter;stroke-miterlimit:4;stroke-dasharray:none;stroke-opacity:1"
     d="m 146.98293,14.956054 c -0.115,1.292 -2.077,0.746 -2.604,0.672 -0.547,-0.068 -2.104,-0.078 -3.312,0.068 -1.224,0.146 -2.803,-0.193 -5.109,0.078 -1.214,0.146 -2.491,-0.484 -2.62,-2.255 -0.131,-1.749 0.801,-2.484 2.301,-2.437 1.495,0.046 2.881,0.729 4.381,0.88 1.5,0.156 3.052,0.177 4.266,0.13 1.38,-0.046 2.088,0.432 2.286,0.87 0.51,1.084 0.411,1.994 0.411,1.994 z"
     id="path552" />
  <path
     style="fill:#63c99d;fill-opacity:1;fill-rule:nonzero;stroke:none"
     d="m 189.57193,19.128054 c 3.119,0.276 3.766,0.672 4.578,1.11 5.098,2.724 6.338,0.166 6.062,-2.703 -0.317,-3.376 -0.369,-4.595 -6.656,-4.541 -1.756,0.014 -8.478,-0.803 -8.478,-0.803 -2.366,-0.625 -5.011,0.036 -5.928,1.167 -0.968,1.192 -0.495,0.792 -1.187,2.052 -0.667,1.213 -0.6,3.396 0.364,4.166 0.927,0.746 2.484,0.156 4.844,-0.396 1.864,-0.432 6.401,-0.052 6.401,-0.052"
     id="path553" />
  <path
     style="fill:none;stroke:#231f20;stroke-width:0.565977;stroke-linecap:butt;stroke-linejoin:miter;stroke-miterlimit:4;stroke-dasharray:none;stroke-opacity:1"
     d="m 189.57193,19.128054 c 3.119,0.276 3.766,0.672 4.578,1.11 5.098,2.724 6.338,0.166 6.062,-2.703 -0.317,-3.376 -0.369,-4.595 -6.656,-4.541 -1.756,0.014 -8.478,-0.803 -8.478,-0.803 -2.366,-0.625 -5.011,0.036 -5.928,1.167 -0.968,1.192 -0.495,0.792 -1.187,2.052 -0.667,1.213 -0.6,3.396 0.364,4.166 0.927,0.746 2.484,0.156 4.844,-0.396 1.864,-0.432 6.401,-0.052 6.401,-0.052 z"
     id="path554" />
  <path
     style="fill:#ffffff;fill-opacity:1;fill-rule:nonzero;stroke:none"
     d="m 172.51493,12.800054 c -0.245,-0.016 -0.448,-1.15 -0.969,-1.098 -0.522,0.052 -0.646,0.838 -2.344,1.864 l -0.015,0.016 c -1.267,0.708 -2.084,1.838 -2.057,3.088 0.046,2.078 2.374,3.709 5.192,3.652 2.833,-0.063 5.078,-1.803 5.032,-3.876 -0.038,-1.99 -2.178,-3.572 -4.839,-3.646"
     id="path555" />
  <path
     style="fill:none;stroke:#231f20;stroke-width:0.565977;stroke-linecap:butt;stroke-linejoin:miter;stroke-miterlimit:4;stroke-dasharray:none;stroke-opacity:1"
     d="m 172.51493,12.800054 c -0.245,-0.016 -0.448,-1.15 -0.969,-1.098 -0.522,0.052 -0.646,0.838 -2.344,1.864 l -0.015,0.016 c -1.267,0.708 -2.084,1.838 -2.057,3.088 0.046,2.078 2.374,3.709 5.192,3.652 2.833,-0.063 5.078,-1.803 5.032,-3.876 -0.038,-1.99 -2.178,-3.572 -4.839,-3.646 z"
     id="path556" />
  <path
     style="fill:#231f20;fill-opacity:1;fill-rule:nonzero;stroke:none"
     d="m 213.55093,10.284054 c 0.677,2.162 1.104,2.49 2.031,2.256 0.625,-0.146 1.25,-0.073 1.625,-0.146 1.276,-0.239 3.328,-1.187 8.417,-5.3536999 1.151,-0.9427 2.787,-2.2613 3.495,-2.74 1.115,-0.7706 -0.912,-2.1146 -1.36,-1.812 -1.421,0.952 -2.479,1.4894 -3.041,1.76 -0.38,0.188 -1.016,0.6094 -2.599,1.14 -2.396,0.8027 -3.948,0.928 -5.86,1.8333 -0.896,0.4174 -1.823,0.1667 -2.484,1.0267 -0.672,0.8493 -0.224,2.0356999 -0.224,2.0356999"
     id="path557" />
  <path
     style="fill:none;stroke:#231f20;stroke-width:0.565977;stroke-linecap:butt;stroke-linejoin:miter;stroke-miterlimit:4;stroke-dasharray:none;stroke-opacity:1"
     d="m 213.55093,10.284054 c 0.677,2.162 1.104,2.49 2.031,2.256 0.625,-0.146 1.25,-0.073 1.625,-0.146 1.276,-0.239 3.328,-1.187 8.417,-5.3536999 1.151,-0.9427 2.787,-2.2613 3.495,-2.74 1.115,-0.7706 -0.912,-2.1146 -1.36,-1.812 -1.421,0.952 -2.479,1.4894 -3.041,1.76 -0.38,0.188 -1.016,0.6094 -2.599,1.14 -2.396,0.8027 -3.948,0.928 -5.86,1.8333 -0.896,0.4174 -1.823,0.1667 -2.484,1.0267 -0.672,0.8493 -0.224,2.0356999 -0.224,2.0356999 z"
     id="path558" />
  <path
     style="fill:#231f20;fill-opacity:1;fill-rule:nonzero;stroke:#231f20;stroke-width:0.565977;stroke-linecap:round;stroke-linejoin:round;stroke-miterlimit:4;stroke-dasharray:none;stroke-opacity:1"
     d="m 214.80593,8.1176541 c -1.266,-0.6506 -2.958,0.6774 -3.291,0.7454 -4.901,1.068 -5.224,1.2709999 -8.891,2.3389999 -5.308,1.546 -8.704,3.421 -8.714,6.77 0.005,2.276 0.996,3.583 2.214,4.074 1.359,0.536 4.52,0.213 5.812,-2.376 l 1.459,-0.896 c 1.063,-0.49 1.572,-0.728 2.115,-0.927 0.948,-0.339 1.937,-0.76 3.733,-1.531 3.193,-1.365 6.125,-3.844 6.125,-3.844 0.287,-0.13 0.464,-0.344 0.579,-0.589"
     id="path559" />
  <path
     style="fill:#63c99d;fill-opacity:1;fill-rule:nonzero;stroke:#231f20;stroke-width:0.565977;stroke-linecap:butt;stroke-linejoin:miter;stroke-miterlimit:4;stroke-dasharray:none;stroke-opacity:1"
     d="m 201.42593,13.150054 c 0,0 -0.323,0.02 -0.73,0.009 l -0.046,-0.613 c -0.588,0.082 -1.135,0.192 -1.656,0.317 -0.454,-0.057 -0.891,0.109 -1.443,0.421 -1.969,0.704 -3.271,1.814 -3.677,3.579 -0.511,2.213 0.146,3.708 1.229,4.464 1.197,0.832 4.355,1.233 6.193,-0.996 l -0.589,-7.104 z"
     id="path560" />
  <path
     style="fill:#231f20;fill-opacity:1;fill-rule:nonzero;stroke:none"
     d="m 231.58193,3.6697541 c -0.307,1.3186 -1.291,1.448 -2.167,0.8906 -0.26,-0.1666 -0.656,-0.036 -0.895,-0.2186 -0.562,-0.432 -0.734,-2.1667 0.676,-2.6774 0.1,-0.036 0.751,-0.536 1.298,-0.83330003 1.068,-0.572 3.478,-1.2187 5.797,0.1573 1.099,0.65070003 0.515,1.17600003 -0.011,1.05200003 -1.661,-0.4066 -1.89,-0.12 -2.365,-0.068 -1.619,0.172 -2.333,1.6974 -2.333,1.6974"
     id="path561" />
  <path
     style="fill:none;stroke:#231f20;stroke-width:0.332927;stroke-linecap:butt;stroke-linejoin:miter;stroke-miterlimit:4;stroke-dasharray:none;stroke-opacity:1"
     d="m 231.58193,3.6697541 c -0.307,1.3186 -1.291,1.448 -2.167,0.8906 -0.26,-0.1666 -0.656,-0.036 -0.895,-0.2186 -0.562,-0.432 -0.734,-2.1667 0.676,-2.6774 0.1,-0.036 0.751,-0.536 1.298,-0.83330003 1.068,-0.572 3.478,-1.2187 5.797,0.1573 1.099,0.65070003 0.515,1.17600003 -0.011,1.05200003 -1.661,-0.4066 -1.89,-0.12 -2.365,-0.068 -1.619,0.172 -2.333,1.6974 -2.333,1.6974 z"
     id="path562" />
  <path
     style="fill:#231f20;fill-opacity:1;fill-rule:nonzero;stroke:none"
     d="m 158.47193,12.316054 c 0.558,-0.313 2.464,0.094 4.048,-0.193 1.067,-0.197 3.734,0.448 4.78,0.167 0.964,-0.25 1.428,-0.276 1.902,0.77 0.281,0.626 0.428,2.006 -0.026,2.235 -1.062,0.541 -2.005,0.615 -3.062,0.464 -1.204,-0.167 -4.432,-0.917 -5.011,-1.104 -1.443,-0.485 -2.14,-0.235 -2.531,-0.324 -0.745,-0.172 -0.865,-0.5 -0.854,-1 0.005,-0.963 0.754,-1.015 0.754,-1.015"
     id="path563" />
  <path
     style="fill:none;stroke:#231f20;stroke-width:0.565977;stroke-linecap:butt;stroke-linejoin:miter;stroke-miterlimit:4;stroke-dasharray:none;stroke-opacity:1"
     d="m 158.47193,12.316054 c 0.558,-0.313 2.464,0.094 4.048,-0.193 1.067,-0.197 3.734,0.448 4.78,0.167 0.964,-0.25 1.428,-0.276 1.902,0.77 0.281,0.626 0.428,2.006 -0.026,2.235 -1.062,0.541 -2.005,0.615 -3.062,0.464 -1.204,-0.167 -4.432,-0.917 -5.011,-1.104 -1.443,-0.485 -2.14,-0.235 -2.531,-0.324 -0.745,-0.172 -0.865,-0.5 -0.854,-1 0.005,-0.963 0.754,-1.015 0.754,-1.015 z"
     id="path564" />
  <path
     style="fill:#231f20;fill-opacity:1;fill-rule:nonzero;stroke:none"
     d="m 169.75393,12.931054 c 0.229,-1.276 2.136,-0.552 2.661,-0.439 0.537,0.115 2.084,0.267 3.303,0.224 1.224,-0.036 2.77,0.443 5.093,0.376 1.224,-0.042 2.437,0.698 2.412,2.474 -0.027,1.756 -1.021,2.401 -2.511,2.224 -1.478,-0.178 -2.802,-0.974 -4.286,-1.26 -1.479,-0.287 -3.02,-0.448 -4.235,-0.506 -1.38,-0.073 -2.041,-0.614 -2.197,-1.068 -0.412,-1.125 -0.24,-2.025 -0.24,-2.025"
     id="path565" />
  <path
     style="fill:none;stroke:#231f20;stroke-width:0.565977;stroke-linecap:butt;stroke-linejoin:miter;stroke-miterlimit:4;stroke-dasharray:none;stroke-opacity:1"
     d="m 169.75393,12.931054 c 0.229,-1.276 2.136,-0.552 2.661,-0.439 0.537,0.115 2.084,0.267 3.303,0.224 1.224,-0.036 2.77,0.443 5.093,0.376 1.224,-0.042 2.437,0.698 2.412,2.474 -0.027,1.756 -1.021,2.401 -2.511,2.224 -1.478,-0.178 -2.802,-0.974 -4.286,-1.26 -1.479,-0.287 -3.02,-0.448 -4.235,-0.506 -1.38,-0.073 -2.041,-0.614 -2.197,-1.068 -0.412,-1.125 -0.24,-2.025 -0.24,-2.025 z"
     id="path566" />
  <path
     style="fill:#ffffff;fill-opacity:1;fill-rule:nonzero;stroke:none"
     d="m 156.47793,19.358054 c 0.24,-0.074 0.828,0.921 1.297,0.688 0.473,-0.235 0.307,-1.011 1.536,-2.574 l 0.011,-0.01 c 0.937,-1.12 1.308,-2.459 0.838,-3.62 -0.776,-1.932 -3.53,-2.64 -6.145,-1.588 -2.631,1.052 -4.12,3.468 -3.349,5.396 0.734,1.842 3.297,2.572 5.812,1.708"
     id="path567" />
  <path
     style="fill:none;stroke:#231f20;stroke-width:0.565977;stroke-linecap:butt;stroke-linejoin:miter;stroke-miterlimit:4;stroke-dasharray:none;stroke-opacity:1"
     d="m 156.47793,19.358054 c 0.24,-0.074 0.828,0.921 1.297,0.688 0.473,-0.235 0.307,-1.011 1.536,-2.574 l 0.011,-0.01 c 0.937,-1.12 1.308,-2.459 0.838,-3.62 -0.776,-1.932 -3.53,-2.64 -6.145,-1.588 -2.631,1.052 -4.12,3.468 -3.349,5.396 0.734,1.842 3.297,2.572 5.812,1.708 z"
     id="path568" />
  <path
     style="fill:#231f20;fill-opacity:1;fill-rule:nonzero;stroke:none"
     d="m 169.20693,11.634054 c 1.021,0.588 1.365,1.89 0.776,2.912 -0.588,1.02 -1.896,1.369 -2.916,0.776 -1.016,-0.59 -1.365,-1.891 -0.776,-2.912 0.593,-1.022 1.896,-1.364 2.916,-0.776"
     id="path569" />
  <path
     style="fill:#231f20;fill-opacity:1;fill-rule:nonzero;stroke:none"
     d="m 99.118928,38.910054 c 0.651,-1.183 1.630002,-1.052 2.328002,-0.276 0.203,0.229 0.62,0.213 0.802,0.453 0.422,0.563 0.125,2.281 -1.37,2.391 -0.109,0.01 -0.864,0.317 -1.473002,0.462 -1.183,0.267 -3.677,0.24 -5.548,-1.713 -0.88,-0.916 -0.171,-1.271 0.297,-1.011 1.484,0.844 1.787,0.626 2.256,0.704 1.604,0.266 2.708,-1.01 2.708,-1.01"
     id="path570" />
  <path
     style="fill:none;stroke:#231f20;stroke-width:0.332927;stroke-linecap:butt;stroke-linejoin:miter;stroke-miterlimit:4;stroke-dasharray:none;stroke-opacity:1"
     d="m 99.118928,38.910054 c 0.651,-1.183 1.630002,-1.052 2.328002,-0.276 0.203,0.229 0.62,0.213 0.802,0.453 0.422,0.563 0.125,2.281 -1.37,2.391 -0.109,0.01 -0.864,0.317 -1.473002,0.462 -1.183,0.267 -3.677,0.24 -5.548,-1.713 -0.88,-0.916 -0.171,-1.271 0.297,-1.011 1.484,0.844 1.787,0.626 2.256,0.704 1.604,0.266 2.708,-1.01 2.708,-1.01 z"
     id="path571" />
  <path
     style="fill:#63c99d;fill-opacity:1;fill-rule:nonzero;stroke:none"
     d="m 139.36793,23.300054 c -2.916,1.14 -3.666,1.074 -4.588,1.047 -5.776,-0.161 -5.75,2.683 -4.224,5.125 1.798,2.88 2.38,3.948 7.99,1.094 1.562,-0.796 7.942,-3.068 7.942,-3.068 2.396,-0.5 4.47,-2.266 4.787,-3.692 0.333,-1.49 0.088,-0.927 0.145,-2.366 0.058,-1.38 -0.978,-3.306 -2.186,-3.566 -1.162,-0.246 -2.298,0.973 -4.156,2.52 -1.475,1.218 -5.71,2.906 -5.71,2.906"
     id="path572" />
  <path
     style="fill:none;stroke:#231f20;stroke-width:0.565977;stroke-linecap:butt;stroke-linejoin:miter;stroke-miterlimit:4;stroke-dasharray:none;stroke-opacity:1"
     d="m 139.36793,23.300054 c -2.916,1.14 -3.666,1.074 -4.588,1.047 -5.776,-0.161 -5.75,2.683 -4.224,5.125 1.798,2.88 2.38,3.948 7.99,1.094 1.562,-0.796 7.942,-3.068 7.942,-3.068 2.396,-0.5 4.47,-2.266 4.787,-3.692 0.333,-1.49 0.088,-0.927 0.145,-2.366 0.058,-1.38 -0.978,-3.306 -2.186,-3.566 -1.162,-0.246 -2.298,0.973 -4.156,2.52 -1.475,1.218 -5.71,2.906 -5.71,2.906 z"
     id="path573" />
  <path
     style="fill:#231f20;fill-opacity:1;fill-rule:nonzero;stroke:none"
     d="m 118.26493,37.374054 c -0.078,-2.262 -0.402,-2.694 -1.355,-2.714 -0.64,-0.026 -1.223,-0.266 -1.609,-0.297 -1.286,-0.109 -3.515,0.249 -9.542,2.896 -1.358,0.599 -3.286,1.432 -4.098,1.703 -1.276,0.442 0.312,2.286 0.817,2.114 1.631,-0.536 2.787,-0.765 3.407,-0.88 0.421,-0.073 1.14,-0.317 2.806,-0.396 2.527,-0.136 4.058,0.156 6.142,-0.202 0.973,-0.158 1.797,0.333 2.672,-0.319 0.869,-0.64 0.76,-1.905 0.76,-1.905"
     id="path574" />
  <path
     style="fill:none;stroke:#231f20;stroke-width:0.565977;stroke-linecap:butt;stroke-linejoin:miter;stroke-miterlimit:4;stroke-dasharray:none;stroke-opacity:1"
     d="m 118.26493,37.374054 c -0.078,-2.262 -0.402,-2.694 -1.355,-2.714 -0.64,-0.026 -1.223,-0.266 -1.609,-0.297 -1.286,-0.109 -3.515,0.249 -9.542,2.896 -1.358,0.599 -3.286,1.432 -4.098,1.703 -1.276,0.442 0.312,2.286 0.817,2.114 1.631,-0.536 2.787,-0.765 3.407,-0.88 0.421,-0.073 1.14,-0.317 2.806,-0.396 2.527,-0.136 4.058,0.156 6.142,-0.202 0.973,-0.158 1.797,0.333 2.672,-0.319 0.869,-0.64 0.76,-1.905 0.76,-1.905 z"
     id="path575" />
  <path
     style="fill:#231f20;fill-opacity:1;fill-rule:nonzero;stroke:#231f20;stroke-width:0.565977;stroke-linecap:round;stroke-linejoin:round;stroke-miterlimit:4;stroke-dasharray:none;stroke-opacity:1"
     d="m 115.56693,39.150054 c 1.276,0.62 2.943,-0.751 3.271,-0.834 4.869,-1.182 5.186,-1.385 8.833,-2.546 5.265,-1.683 8.62,-3.636 8.531,-6.986 -0.052,-2.27 -1.072,-3.557 -2.307,-4.014 -1.371,-0.5 -4.527,-0.106 -5.751,2.514 l -1.432,0.932 c -1.046,0.516 -1.562,0.767 -2.093,0.98 -0.937,0.359 -1.912,0.807 -3.693,1.62 -3.161,1.443 -6.031,4 -6.031,4 -0.276,0.13 -0.458,0.348 -0.562,0.594"
     id="path576" />
  <path
     style="fill:#63c99d;fill-opacity:1;fill-rule:nonzero;stroke:none"
     d="m 136.21193,29.024054 c 0.027,-2.27 -0.937,-3.593 -2.161,-4.098 -1.349,-0.558 -4.516,-0.276 -5.833,2.296 l 2.297,7.469 c 0.577,-0.219 1.104,-0.453 1.609,-0.693 0.13,-0.026 0.255,-0.042 0.37,-0.042 0.874,0.022 1.27,-0.52 2.01,-1.468 1.072,-0.953 1.687,-2.078 1.708,-3.464"
     id="path577" />
  <path
     style="fill:none;stroke:#231f20;stroke-width:0.565977;stroke-linecap:butt;stroke-linejoin:miter;stroke-miterlimit:4;stroke-dasharray:none;stroke-opacity:1"
     d="m 136.21193,29.024054 c 0.027,-2.27 -0.937,-3.593 -2.161,-4.098 -1.349,-0.558 -4.516,-0.276 -5.833,2.296 l 2.297,7.469 c 0.577,-0.219 1.104,-0.453 1.609,-0.693 0.13,-0.026 0.255,-0.042 0.37,-0.042 0.874,0.022 1.27,-0.52 2.01,-1.468 1.072,-0.953 1.687,-2.078 1.708,-3.464 z"
     id="path578" />
  <path
     style="fill:#231f20;fill-opacity:1;fill-rule:nonzero;stroke:none"
     d="m 168.22293,14.467054 c -0.333,0.547 -2.193,1.14 -3.423,2.177 -0.828,0.698 -3.462,1.459 -4.233,2.219 -0.713,0.697 -1.104,0.948 -2.037,0.271 -0.552,-0.396 -1.359,-1.527 -1.083,-1.954 0.656,-0.994 1.437,-1.525 2.427,-1.916 1.136,-0.453 4.308,-1.401 4.906,-1.526 1.495,-0.292 1.974,-0.855 2.359,-0.974 0.735,-0.214 0.995,0.01 1.24,0.448 0.469,0.843 -0.156,1.255 -0.156,1.255"
     id="path579" />
  <path
     style="fill:none;stroke:#231f20;stroke-width:0.565977;stroke-linecap:butt;stroke-linejoin:miter;stroke-miterlimit:4;stroke-dasharray:none;stroke-opacity:1"
     d="m 168.22293,14.467054 c -0.333,0.547 -2.193,1.14 -3.423,2.177 -0.828,0.698 -3.462,1.459 -4.233,2.219 -0.713,0.697 -1.104,0.948 -2.037,0.271 -0.552,-0.396 -1.359,-1.527 -1.083,-1.954 0.656,-0.994 1.437,-1.525 2.427,-1.916 1.136,-0.453 4.308,-1.401 4.906,-1.526 1.495,-0.292 1.974,-0.855 2.359,-0.974 0.735,-0.214 0.995,0.01 1.24,0.448 0.469,0.843 -0.156,1.255 -0.156,1.255 z"
     id="path580" />
  <path
     style="fill:#231f20;fill-opacity:1;fill-rule:nonzero;stroke:none"
     d="m 160.06693,18.404054 c 0.432,1.224 -1.584,1.542 -2.089,1.703 -0.526,0.167 -1.943,0.803 -2.984,1.443 -1.047,0.641 -2.626,0.996 -4.61,2.198 -1.046,0.64 -2.464,0.599 -3.317,-0.958 -0.855,-1.536 -0.308,-2.594 1.072,-3.172 1.376,-0.583 2.923,-0.542 4.349,-1.026 1.432,-0.485 2.85,-1.114 3.932,-1.661 1.235,-0.62 2.079,-0.475 2.438,-0.161 0.917,0.77 1.209,1.634 1.209,1.634"
     id="path581" />
  <path
     style="fill:none;stroke:#231f20;stroke-width:0.565977;stroke-linecap:butt;stroke-linejoin:miter;stroke-miterlimit:4;stroke-dasharray:none;stroke-opacity:1"
     d="m 160.06693,18.404054 c 0.432,1.224 -1.584,1.542 -2.089,1.703 -0.526,0.167 -1.943,0.803 -2.984,1.443 -1.047,0.641 -2.626,0.996 -4.61,2.198 -1.046,0.64 -2.464,0.599 -3.317,-0.958 -0.855,-1.536 -0.308,-2.594 1.072,-3.172 1.376,-0.583 2.923,-0.542 4.349,-1.026 1.432,-0.485 2.85,-1.114 3.932,-1.661 1.235,-0.62 2.079,-0.475 2.438,-0.161 0.917,0.77 1.209,1.634 1.209,1.634 z"
     id="path582" />
  <path
     style="fill:#ffffff;fill-opacity:1;fill-rule:nonzero;stroke:none"
     d="m 161.27493,25.707054 c 0.197,-0.141 1.088,0.593 1.453,0.213 0.364,-0.374 -0.057,-1.052 0.578,-2.937 l 0.005,-0.016 c 0.505,-1.369 0.401,-2.755 -0.432,-3.693 -1.375,-1.552 -4.208,-1.291 -6.317,0.578 -2.12,1.875 -2.708,4.656 -1.334,6.208 1.312,1.49 3.968,1.314 6.047,-0.353"
     id="path583" />
  <path
     style="fill:none;stroke:#231f20;stroke-width:0.565977;stroke-linecap:butt;stroke-linejoin:miter;stroke-miterlimit:4;stroke-dasharray:none;stroke-opacity:1"
     d="m 161.27493,25.707054 c 0.197,-0.141 1.088,0.593 1.453,0.213 0.364,-0.374 -0.057,-1.052 0.578,-2.937 l 0.005,-0.016 c 0.505,-1.369 0.401,-2.755 -0.432,-3.693 -1.375,-1.552 -4.208,-1.291 -6.317,0.578 -2.12,1.875 -2.708,4.656 -1.334,6.208 1.312,1.49 3.968,1.314 6.047,-0.353 z"
     id="path584" />
  <path
     style="fill:#231f20;fill-opacity:1;fill-rule:nonzero;stroke:none"
     d="m 168.31093,11.374054 c 1.177,0.098 2.047,1.124 1.948,2.301 -0.088,1.172 -1.125,2.047 -2.296,1.953 -1.172,-0.098 -2.048,-1.125 -1.953,-2.301 0.098,-1.177 1.129,-2.048 2.301,-1.953"
     id="path585" />
  <path
     style="fill:#231f20;fill-opacity:1;fill-rule:nonzero;stroke:none"
     d="m 110.33793,50.806054 c 0.953,-0.964 1.859,-0.568 2.312,0.369 0.136,0.281 0.541,0.38 0.651,0.656 0.25,0.661 -0.51,2.235 -1.979,1.928 -0.109,-0.021 -0.916,0.063 -1.541,0.036 -1.214,-0.073 -3.604,-0.787 -4.86,-3.177 -0.594,-1.126 0.182,-1.271 0.562,-0.886 1.199,1.219 1.547,1.09 1.98,1.292 1.463,0.703 2.875,-0.218 2.875,-0.218"
     id="path586" />
  <path
     style="fill:none;stroke:#231f20;stroke-width:0.332927;stroke-linecap:butt;stroke-linejoin:miter;stroke-miterlimit:4;stroke-dasharray:none;stroke-opacity:1"
     d="m 110.33793,50.806054 c 0.953,-0.964 1.859,-0.568 2.312,0.369 0.136,0.281 0.541,0.38 0.651,0.656 0.25,0.661 -0.51,2.235 -1.979,1.928 -0.109,-0.021 -0.916,0.063 -1.541,0.036 -1.214,-0.073 -3.604,-0.787 -4.86,-3.177 -0.594,-1.126 0.182,-1.271 0.562,-0.886 1.199,1.219 1.547,1.09 1.98,1.292 1.463,0.703 2.875,-0.218 2.875,-0.218 z"
     id="path587" />
  <path
     style="fill:#63c99d;fill-opacity:1;fill-rule:nonzero;stroke:none"
     d="m 146.35393,34.707054 c -2.142,2.281 -2.85,2.541 -3.699,2.911 -5.287,2.333 -4.041,4.885 -1.615,6.442 2.855,1.834 3.844,2.547 7.688,-2.437 1.068,-1.391 5.859,-6.172 5.859,-6.172 1.953,-1.484 3.063,-3.968 2.74,-5.391 -0.339,-1.489 -0.317,-0.874 -0.88,-2.197 -0.541,-1.271 -2.303,-2.568 -3.505,-2.287 -1.156,0.276 -1.656,1.864 -2.678,4.058 -0.806,1.74 -3.91,5.073 -3.91,5.073"
     id="path588" />
  <path
     style="fill:none;stroke:#231f20;stroke-width:0.565977;stroke-linecap:butt;stroke-linejoin:miter;stroke-miterlimit:4;stroke-dasharray:none;stroke-opacity:1"
     d="m 146.35393,34.707054 c -2.142,2.281 -2.85,2.541 -3.699,2.911 -5.287,2.333 -4.041,4.885 -1.615,6.442 2.855,1.834 3.844,2.547 7.688,-2.437 1.068,-1.391 5.859,-6.172 5.859,-6.172 1.953,-1.484 3.063,-3.968 2.74,-5.391 -0.339,-1.489 -0.317,-0.874 -0.88,-2.197 -0.541,-1.271 -2.303,-2.568 -3.505,-2.287 -1.156,0.276 -1.656,1.864 -2.678,4.058 -0.806,1.74 -3.91,5.073 -3.91,5.073 z"
     id="path589" />
  <path
     style="fill:#231f20;fill-opacity:1;fill-rule:nonzero;stroke:none"
     d="m 129.16593,54.607054 c 0.552,-2.192 0.358,-2.697 -0.552,-2.984 -0.61,-0.203 -1.104,-0.588 -1.464,-0.729 -1.208,-0.463 -3.448,-0.73 -9.968,0.152 -1.475,0.202 -3.557,0.473 -4.412,0.509 -1.355,0.073 -0.333,2.281 0.203,2.256 1.714,-0.068 2.89,0.031 3.516,0.093 0.421,0.042 1.188,0.011 2.807,0.391 2.463,0.568 3.854,1.276 5.958,1.5 0.98,0.12 1.636,0.817 2.656,0.432 1.01,-0.375 1.256,-1.62 1.256,-1.62"
     id="path590" />
  <path
     style="fill:none;stroke:#231f20;stroke-width:0.565977;stroke-linecap:butt;stroke-linejoin:miter;stroke-miterlimit:4;stroke-dasharray:none;stroke-opacity:1"
     d="m 129.16593,54.607054 c 0.552,-2.192 0.358,-2.697 -0.552,-2.984 -0.61,-0.203 -1.104,-0.588 -1.464,-0.729 -1.208,-0.463 -3.448,-0.73 -9.968,0.152 -1.475,0.202 -3.557,0.473 -4.412,0.509 -1.355,0.073 -0.333,2.281 0.203,2.256 1.714,-0.068 2.89,0.031 3.516,0.093 0.421,0.042 1.188,0.011 2.807,0.391 2.463,0.568 3.854,1.276 5.958,1.5 0.98,0.12 1.636,0.817 2.656,0.432 1.01,-0.375 1.256,-1.62 1.256,-1.62 z"
     id="path591" />
  <path
     style="fill:#231f20;fill-opacity:1;fill-rule:nonzero;stroke:#231f20;stroke-width:0.565977;stroke-linecap:round;stroke-linejoin:round;stroke-miterlimit:4;stroke-dasharray:none;stroke-opacity:1"
     d="m 127.31093,55.519054 c 1.349,0.443 2.813,-1.136 3.131,-1.26 4.666,-1.819 4.953,-2.068 8.412,-3.704 4.994,-2.375 8.052,-4.76 7.52,-8.063 -0.354,-2.249 -1.536,-3.385 -2.823,-3.676 -1.421,-0.308 -4.495,0.511 -5.36,3.266 l -1.296,1.114 c -0.969,0.651 -1.443,0.968 -1.943,1.25 -0.88,0.485 -1.786,1.057 -3.448,2.1 -2.937,1.853 -5.442,4.77 -5.442,4.77 -0.256,0.172 -0.402,0.411 -0.475,0.667"
     id="path592" />
  <path
     style="fill:#63c99d;fill-opacity:1;fill-rule:nonzero;stroke:none"
     d="m 146.41493,42.722054 c -0.276,-2.25 -1.411,-3.432 -2.687,-3.771 -1.412,-0.369 -4.51,0.333 -5.48,3.057 l 3.276,7.099 c 0.887,-0.473 1.658,-0.968 2.324,-1.473 l -0.485,0.65 c 0,0 0.839,-1.041 1.475,-1.333 0.629,-0.281 0.838,-0.744 1.025,-1.5 0.469,-0.828 0.672,-1.735 0.552,-2.729"
     id="path593" />
  <path
     style="fill:none;stroke:#231f20;stroke-width:0.565977;stroke-linecap:butt;stroke-linejoin:miter;stroke-miterlimit:4;stroke-dasharray:none;stroke-opacity:1"
     d="m 146.41493,42.722054 c -0.276,-2.25 -1.411,-3.432 -2.687,-3.771 -1.412,-0.369 -4.51,0.333 -5.48,3.057 l 3.276,7.099 c 0.887,-0.473 1.658,-0.968 2.324,-1.473 l -0.485,0.65 c 0,0 0.839,-1.041 1.475,-1.333 0.629,-0.281 0.838,-0.744 1.025,-1.5 0.469,-0.828 0.672,-1.735 0.552,-2.729 z"
     id="path594" />
  <path
     style="fill:#231f20;fill-opacity:1;fill-rule:nonzero;stroke:none"
     d="m 168.63893,14.358054 c -0.067,0.636 -1.495,1.969 -2.161,3.432 -0.448,0.989 -2.506,2.802 -2.875,3.822 -0.349,0.934 -0.593,1.328 -1.724,1.12 -0.667,-0.125 -1.885,-0.796 -1.812,-1.301 0.161,-1.183 0.645,-1.995 1.369,-2.776 0.828,-0.896 3.287,-3.109 3.782,-3.48 1.218,-0.905 1.416,-1.62 1.713,-1.891 0.568,-0.51 0.901,-0.416 1.308,-0.125 0.785,0.557 0.4,1.199 0.4,1.199"
     id="path595" />
  <path
     style="fill:none;stroke:#231f20;stroke-width:0.565977;stroke-linecap:butt;stroke-linejoin:miter;stroke-miterlimit:4;stroke-dasharray:none;stroke-opacity:1"
     d="m 168.63893,14.358054 c -0.067,0.636 -1.495,1.969 -2.161,3.432 -0.448,0.989 -2.506,2.802 -2.875,3.822 -0.349,0.934 -0.593,1.328 -1.724,1.12 -0.667,-0.125 -1.885,-0.796 -1.812,-1.301 0.161,-1.183 0.645,-1.995 1.369,-2.776 0.828,-0.896 3.287,-3.109 3.782,-3.48 1.218,-0.905 1.416,-1.62 1.713,-1.891 0.568,-0.51 0.901,-0.416 1.308,-0.125 0.785,0.557 0.4,1.199 0.4,1.199 z"
     id="path596" />
  <path
     style="fill:#231f20;fill-opacity:1;fill-rule:nonzero;stroke:none"
     d="m 162.95793,21.415054 c 0.916,0.916 -0.771,2.068 -1.162,2.432 -0.401,0.375 -1.406,1.557 -2.073,2.584 -0.672,1.025 -1.948,2.02 -3.224,3.963 -0.672,1.021 -1.969,1.594 -3.412,0.552 -1.427,-1.02 -1.385,-2.214 -0.391,-3.328 0.995,-1.115 2.412,-1.739 3.491,-2.792 1.093,-1.047 2.099,-2.223 2.843,-3.187 0.849,-1.084 1.672,-1.317 2.13,-1.188 1.162,0.308 1.798,0.964 1.798,0.964"
     id="path597" />
  <path
     style="fill:none;stroke:#231f20;stroke-width:0.565977;stroke-linecap:butt;stroke-linejoin:miter;stroke-miterlimit:4;stroke-dasharray:none;stroke-opacity:1"
     d="m 162.95793,21.415054 c 0.916,0.916 -0.771,2.068 -1.162,2.432 -0.401,0.375 -1.406,1.557 -2.073,2.584 -0.672,1.025 -1.948,2.02 -3.224,3.963 -0.672,1.021 -1.969,1.594 -3.412,0.552 -1.427,-1.02 -1.385,-2.214 -0.391,-3.328 0.995,-1.115 2.412,-1.739 3.491,-2.792 1.093,-1.047 2.099,-2.223 2.843,-3.187 0.849,-1.084 1.672,-1.317 2.13,-1.188 1.162,0.308 1.798,0.964 1.798,0.964 z"
     id="path598" />
  <path
     style="fill:#ffffff;fill-opacity:1;fill-rule:nonzero;stroke:none"
     d="m 171.11893,27.456054 c 0.083,-0.234 1.235,-0.14 1.312,-0.656 0.084,-0.521 -0.645,-0.838 -1.203,-2.745 l -0.005,-0.015 c -0.365,-1.412 -1.245,-2.49 -2.464,-2.781 -2.02,-0.489 -4.192,1.344 -4.859,4.083 -0.666,2.756 0.443,5.37 2.458,5.86 1.928,0.468 4.005,-1.194 4.761,-3.746"
     id="path599" />
  <path
     style="fill:none;stroke:#231f20;stroke-width:0.565977;stroke-linecap:butt;stroke-linejoin:miter;stroke-miterlimit:4;stroke-dasharray:none;stroke-opacity:1"
     d="m 171.11893,27.456054 c 0.083,-0.234 1.235,-0.14 1.312,-0.656 0.084,-0.521 -0.645,-0.838 -1.203,-2.745 l -0.005,-0.015 c -0.365,-1.412 -1.245,-2.49 -2.464,-2.781 -2.02,-0.489 -4.192,1.344 -4.859,4.083 -0.666,2.756 0.443,5.37 2.458,5.86 1.928,0.468 4.005,-1.194 4.761,-3.746 z"
     id="path600" />
  <path
     style="fill:#231f20;fill-opacity:1;fill-rule:nonzero;stroke:none"
     d="m 132.75393,60.686054 c 1.052,-0.85 1.912,-0.355 2.256,0.63 0.098,0.291 0.494,0.438 0.566,0.73 0.178,0.676 -0.754,2.156 -2.176,1.686 -0.104,-0.03 -0.922,-0.041 -1.537,-0.14 -1.197,-0.209 -3.489,-1.182 -4.473,-3.698 -0.459,-1.187 0.322,-1.244 0.661,-0.823 1.052,1.349 1.412,1.26 1.817,1.511 1.375,0.858 2.886,0.104 2.886,0.104"
     id="path601" />
  <path
     style="fill:none;stroke:#231f20;stroke-width:0.332927;stroke-linecap:butt;stroke-linejoin:miter;stroke-miterlimit:4;stroke-dasharray:none;stroke-opacity:1"
     d="m 132.75393,60.686054 c 1.052,-0.85 1.912,-0.355 2.256,0.63 0.098,0.291 0.494,0.438 0.566,0.73 0.178,0.676 -0.754,2.156 -2.176,1.686 -0.104,-0.03 -0.922,-0.041 -1.537,-0.14 -1.197,-0.209 -3.489,-1.182 -4.473,-3.698 -0.459,-1.187 0.322,-1.244 0.661,-0.823 1.052,1.349 1.412,1.26 1.817,1.511 1.375,0.858 2.886,0.104 2.886,0.104 z"
     id="path602" />
  <path
     style="fill:#63c99d;fill-opacity:1;fill-rule:nonzero;stroke:none"
     d="m 161.01993,42.795054 c -0.912,3 -1.428,3.547 -2.021,4.255 -3.703,4.438 -1.453,6.172 1.412,6.49 3.369,0.375 4.572,0.578 5.807,-5.594 0.338,-1.724 2.51,-8.135 2.51,-8.135 1.094,-2.193 0.984,-4.912 0.063,-6.041 -0.964,-1.188 -0.672,-0.652 -1.767,-1.584 -1.046,-0.902 -3.197,-1.282 -4.156,-0.49 -0.91,0.755 -0.656,2.402 -0.598,4.823 0.046,1.912 -1.25,6.276 -1.25,6.276"
     id="path603" />
  <path
     style="fill:none;stroke:#231f20;stroke-width:0.565977;stroke-linecap:butt;stroke-linejoin:miter;stroke-miterlimit:4;stroke-dasharray:none;stroke-opacity:1"
     d="m 161.01993,42.795054 c -0.912,3 -1.428,3.547 -2.021,4.255 -3.703,4.438 -1.453,6.172 1.412,6.49 3.369,0.375 4.572,0.578 5.807,-5.594 0.338,-1.724 2.51,-8.135 2.51,-8.135 1.094,-2.193 0.984,-4.912 0.063,-6.041 -0.964,-1.188 -0.672,-0.652 -1.767,-1.584 -1.046,-0.902 -3.197,-1.282 -4.156,-0.49 -0.91,0.755 -0.656,2.402 -0.598,4.823 0.046,1.912 -1.25,6.276 -1.25,6.276 z"
     id="path604" />
  <path
     style="fill:#231f20;fill-opacity:1;fill-rule:nonzero;stroke:none"
     d="m 151.03493,66.587054 c 0.792,-2.12 0.661,-2.641 -0.213,-3.032 -0.583,-0.271 -1.031,-0.708 -1.375,-0.891 -1.151,-0.593 -3.344,-1.109 -9.923,-0.968 -1.489,0.036 -3.582,0.068 -4.437,0.011 -1.353,-0.084 -0.588,2.229 -0.052,2.265 1.709,0.126 2.865,0.355 3.48,0.484 0.416,0.094 1.176,0.147 2.744,0.708 2.385,0.839 3.693,1.699 5.756,2.163 0.957,0.228 1.531,0.994 2.588,0.728 1.047,-0.26 1.432,-1.468 1.432,-1.468"
     id="path605" />
  <path
     style="fill:none;stroke:#231f20;stroke-width:0.565977;stroke-linecap:butt;stroke-linejoin:miter;stroke-miterlimit:4;stroke-dasharray:none;stroke-opacity:1"
     d="m 151.03493,66.587054 c 0.792,-2.12 0.661,-2.641 -0.213,-3.032 -0.583,-0.271 -1.031,-0.708 -1.375,-0.891 -1.151,-0.593 -3.344,-1.109 -9.923,-0.968 -1.489,0.036 -3.582,0.068 -4.437,0.011 -1.353,-0.084 -0.588,2.229 -0.052,2.265 1.709,0.126 2.865,0.355 3.48,0.484 0.416,0.094 1.176,0.147 2.744,0.708 2.385,0.839 3.693,1.699 5.756,2.163 0.957,0.228 1.531,0.994 2.588,0.728 1.047,-0.26 1.432,-1.468 1.432,-1.468 z"
     id="path606" />
  <path
     style="fill:#231f20;fill-opacity:1;fill-rule:nonzero;stroke:#231f20;stroke-width:0.565977;stroke-linecap:round;stroke-linejoin:round;stroke-miterlimit:4;stroke-dasharray:none;stroke-opacity:1"
     d="m 149.82193,66.879054 c 1.417,0.104 2.453,-1.787 2.724,-1.985 4.084,-2.911 4.302,-3.219 7.25,-5.656 4.26,-3.522 6.646,-6.583 5.318,-9.662 -0.896,-2.088 -2.323,-2.896 -3.636,-2.869 -1.458,0.052 -4.239,1.593 -4.4,4.484 l -0.986,1.396 c -0.776,0.864 -1.161,1.292 -1.577,1.687 -0.735,0.682 -1.475,1.464 -2.824,2.881 -2.395,2.515 -4.109,5.952 -4.109,5.952 -0.203,0.229 -0.291,0.5 -0.296,0.767"
     id="path607" />
  <path
     style="fill:#63c99d;fill-opacity:1;fill-rule:nonzero;stroke:none"
     d="m 165.20693,49.795054 c -0.823,-2.115 -2.208,-2.984 -3.525,-2.995 -1.464,-0.016 -4.292,1.422 -4.563,4.303 l 4.916,6.077 c 0.735,-0.677 1.365,-1.344 1.885,-2 l -0.306,0.751 c 0,0 0.557,-1.215 1.098,-1.652 0.542,-0.427 0.636,-0.927 0.631,-1.703 0.255,-0.921 0.224,-1.844 -0.136,-2.781"
     id="path608" />
  <path
     style="fill:none;stroke:#231f20;stroke-width:0.565977;stroke-linecap:butt;stroke-linejoin:miter;stroke-miterlimit:4;stroke-dasharray:none;stroke-opacity:1"
     d="m 165.20693,49.795054 c -0.823,-2.115 -2.208,-2.984 -3.525,-2.995 -1.464,-0.016 -4.292,1.422 -4.563,4.303 l 4.916,6.077 c 0.735,-0.677 1.365,-1.344 1.885,-2 l -0.306,0.751 c 0,0 0.557,-1.215 1.098,-1.652 0.542,-0.427 0.636,-0.927 0.631,-1.703 0.255,-0.921 0.224,-1.844 -0.136,-2.781 z"
     id="path609" />
  <path
     style="fill:#231f20;fill-opacity:1;fill-rule:nonzero;stroke:none"
     d="m 169.16593,14.030054 c 0.297,0.562 -0.151,2.462 0.104,4.052 0.177,1.073 -0.526,3.724 -0.271,4.776 0.229,0.968 0.244,1.432 -0.812,1.885 -0.625,0.271 -2.011,0.38 -2.235,-0.079 -0.521,-1.072 -0.568,-2.014 -0.396,-3.066 0.192,-1.204 1.011,-4.412 1.214,-4.991 0.51,-1.432 0.281,-2.135 0.374,-2.525 0.194,-0.74 0.522,-0.844 1.022,-0.828 0.964,0.025 1,0.776 1,0.776"
     id="path610" />
  <path
     style="fill:none;stroke:#231f20;stroke-width:0.565977;stroke-linecap:butt;stroke-linejoin:miter;stroke-miterlimit:4;stroke-dasharray:none;stroke-opacity:1"
     d="m 169.16593,14.030054 c 0.297,0.562 -0.151,2.462 0.104,4.052 0.177,1.073 -0.526,3.724 -0.271,4.776 0.229,0.968 0.244,1.432 -0.812,1.885 -0.625,0.271 -2.011,0.38 -2.235,-0.079 -0.521,-1.072 -0.568,-2.014 -0.396,-3.066 0.192,-1.204 1.011,-4.412 1.214,-4.991 0.51,-1.432 0.281,-2.135 0.374,-2.525 0.194,-0.74 0.522,-0.844 1.022,-0.828 0.964,0.025 1,0.776 1,0.776 z"
     id="path611" />
  <path
     style="fill:#231f20;fill-opacity:1;fill-rule:nonzero;stroke:none"
     d="m 168.34793,23.050054 c 1.276,0.256 0.51,2.152 0.391,2.666 -0.131,0.538 -0.313,2.079 -0.297,3.298 0.01,1.229 -0.5,2.765 -0.484,5.089 0.009,1.224 -0.756,2.421 -2.532,2.353 -1.755,-0.062 -2.38,-1.073 -2.172,-2.552 0.213,-1.478 1.042,-2.786 1.36,-4.26 0.322,-1.48 0.505,-3.016 0.593,-4.229 0.104,-1.375 0.661,-2.021 1.115,-2.172 1.136,-0.385 2.026,-0.193 2.026,-0.193"
     id="path612" />
  <path
     style="fill:none;stroke:#231f20;stroke-width:0.565977;stroke-linecap:butt;stroke-linejoin:miter;stroke-miterlimit:4;stroke-dasharray:none;stroke-opacity:1"
     d="m 168.34793,23.050054 c 1.276,0.256 0.51,2.152 0.391,2.666 -0.131,0.538 -0.313,2.079 -0.297,3.298 0.01,1.229 -0.5,2.765 -0.484,5.089 0.009,1.224 -0.756,2.421 -2.532,2.353 -1.755,-0.062 -2.38,-1.073 -2.172,-2.552 0.213,-1.478 1.042,-2.786 1.36,-4.26 0.322,-1.48 0.505,-3.016 0.593,-4.229 0.104,-1.375 0.661,-2.021 1.115,-2.172 1.136,-0.385 2.026,-0.193 2.026,-0.193 z"
     id="path613" />
  <path
     style="fill:#ffffff;fill-opacity:1;fill-rule:nonzero;stroke:none"
     d="m 179.75893,21.936054 c -0.088,-0.234 0.855,-0.901 0.584,-1.349 -0.271,-0.453 -1.032,-0.224 -2.688,-1.328 l -0.016,-0.011 c -1.181,-0.844 -2.552,-1.104 -3.672,-0.541 -1.864,0.921 -2.348,3.724 -1.093,6.244 1.26,2.541 3.786,3.833 5.646,2.912 1.78,-0.88 2.302,-3.489 1.239,-5.927"
     id="path614" />
  <path
     style="fill:none;stroke:#231f20;stroke-width:0.565977;stroke-linecap:butt;stroke-linejoin:miter;stroke-miterlimit:4;stroke-dasharray:none;stroke-opacity:1"
     d="m 179.75893,21.936054 c -0.088,-0.234 0.855,-0.901 0.584,-1.349 -0.271,-0.453 -1.032,-0.224 -2.688,-1.328 l -0.016,-0.011 c -1.181,-0.844 -2.552,-1.104 -3.672,-0.541 -1.864,0.921 -2.348,3.724 -1.093,6.244 1.26,2.541 3.786,3.833 5.646,2.912 1.78,-0.88 2.302,-3.489 1.239,-5.927 z"
     id="path615" />
  <path
     style="fill:#231f20;fill-opacity:1;fill-rule:nonzero;stroke:none"
     d="m 174.10293,64.462054 c 0.771,-1.11 1.735,-0.88 2.344,-0.036 0.177,0.254 0.593,0.276 0.749,0.536 0.366,0.603 -0.109,2.281 -1.609,2.239 -0.109,0 -0.891,0.224 -1.515,0.302 -1.204,0.141 -3.682,-0.14 -5.333,-2.276 -0.781,-1.005 -0.048,-1.281 0.395,-0.973 1.39,0.994 1.714,0.801 2.172,0.926 1.568,0.437 2.797,-0.718 2.797,-0.718"
     id="path616" />
  <path
     style="fill:none;stroke:#231f20;stroke-width:0.332927;stroke-linecap:butt;stroke-linejoin:miter;stroke-miterlimit:4;stroke-dasharray:none;stroke-opacity:1"
     d="m 174.10293,64.462054 c 0.771,-1.11 1.735,-0.88 2.344,-0.036 0.177,0.254 0.593,0.276 0.749,0.536 0.366,0.603 -0.109,2.281 -1.609,2.239 -0.109,0 -0.891,0.224 -1.515,0.302 -1.204,0.141 -3.682,-0.14 -5.333,-2.276 -0.781,-1.005 -0.048,-1.281 0.395,-0.973 1.39,0.994 1.714,0.801 2.172,0.926 1.568,0.437 2.797,-0.718 2.797,-0.718 z"
     id="path617" />
  <path
     style="fill:#63c99d;fill-opacity:1;fill-rule:nonzero;stroke:none"
     d="m 181.88393,40.175054 c 1.23,2.88 1.188,3.636 1.188,4.563 0.015,5.776 2.854,5.661 5.25,4.062 2.828,-1.88 3.874,-2.5 0.854,-8.021 -0.849,-1.536 -3.308,-7.843 -3.308,-7.843 -0.572,-2.386 -2.401,-4.396 -3.833,-4.672 -1.505,-0.286 -0.932,-0.062 -2.369,-0.073 -1.38,-0.016 -3.276,1.073 -3.5,2.292 -0.214,1.167 1.041,2.265 2.64,4.077 1.272,1.438 3.078,5.615 3.078,5.615"
     id="path618" />
  <path
     style="fill:none;stroke:#231f20;stroke-width:0.565977;stroke-linecap:butt;stroke-linejoin:miter;stroke-miterlimit:4;stroke-dasharray:none;stroke-opacity:1"
     d="m 181.88393,40.175054 c 1.23,2.88 1.188,3.636 1.188,4.563 0.015,5.776 2.854,5.661 5.25,4.062 2.828,-1.88 3.874,-2.5 0.854,-8.021 -0.849,-1.536 -3.308,-7.843 -3.308,-7.843 -0.572,-2.386 -2.401,-4.396 -3.833,-4.672 -1.505,-0.286 -0.932,-0.062 -2.369,-0.073 -1.38,-0.016 -3.276,1.073 -3.5,2.292 -0.214,1.167 1.041,2.265 2.64,4.077 1.272,1.438 3.078,5.615 3.078,5.615 z"
     id="path619" />
  <path
     style="fill:#231f20;fill-opacity:1;fill-rule:nonzero;stroke:none"
     d="m 193.30593,64.920054 c 0.157,-2.26 -0.119,-2.724 -1.063,-2.844 -0.64,-0.093 -1.192,-0.385 -1.572,-0.464 -1.271,-0.238 -3.521,-0.114 -9.787,1.896 -1.421,0.454 -3.421,1.084 -4.254,1.266 -1.324,0.313 0.066,2.307 0.593,2.193 1.672,-0.37 2.849,-0.479 3.473,-0.527 0.428,-0.031 1.172,-0.197 2.834,-0.104 2.532,0.125 4.021,0.579 6.136,0.437 0.984,-0.052 1.749,0.516 2.688,-0.041 0.932,-0.547 0.952,-1.812 0.952,-1.812"
     id="path620" />
  <path
     style="fill:none;stroke:#231f20;stroke-width:0.565977;stroke-linecap:butt;stroke-linejoin:miter;stroke-miterlimit:4;stroke-dasharray:none;stroke-opacity:1"
     d="m 193.30593,64.920054 c 0.157,-2.26 -0.119,-2.724 -1.063,-2.844 -0.64,-0.093 -1.192,-0.385 -1.572,-0.464 -1.271,-0.238 -3.521,-0.114 -9.787,1.896 -1.421,0.454 -3.421,1.084 -4.254,1.266 -1.324,0.313 0.066,2.307 0.593,2.193 1.672,-0.37 2.849,-0.479 3.473,-0.527 0.428,-0.031 1.172,-0.197 2.834,-0.104 2.532,0.125 4.021,0.579 6.136,0.437 0.984,-0.052 1.749,0.516 2.688,-0.041 0.932,-0.547 0.952,-1.812 0.952,-1.812 z"
     id="path621" />
  <path
     style="fill:#231f20;fill-opacity:1;fill-rule:nonzero;stroke:#231f20;stroke-width:0.565977;stroke-linecap:round;stroke-linejoin:round;stroke-miterlimit:4;stroke-dasharray:none;stroke-opacity:1"
     d="m 193.07193,65.888054 c 0.938,-1.066 0.058,-3.036 0.062,-3.374 0.146,-5.011 0.032,-5.37 -0.124,-9.187 -0.23,-5.527 -1.23,-9.277 -4.486,-10.079 -2.202,-0.546 -3.708,0.099 -4.484,1.167 -0.838,1.188 -1.292,4.339 0.912,6.208 l 0.52,1.631 c 0.219,1.145 0.328,1.708 0.391,2.281 0.1,0.995 0.276,2.052 0.589,3.984 0.558,3.432 2.26,6.875 2.26,6.875 0.058,0.302 0.224,0.531 0.432,0.698"
     id="path622" />
  <path
     style="fill:#63c99d;fill-opacity:1;fill-rule:nonzero;stroke:none"
     d="m 192.26993,47.587054 0.417,0.697 c 0,0 -0.636,-1.177 -0.657,-1.874 -0.01,-0.688 -0.354,-1.068 -0.974,-1.531 -0.584,-0.761 -1.333,-1.297 -2.297,-1.573 -2.183,-0.626 -3.713,-0.047 -4.52,1 -0.896,1.156 -1.459,4.281 0.671,6.234 l 7.813,-0.245 c -0.093,-0.995 -0.245,-1.896 -0.453,-2.708"
     id="path623" />
  <path
     style="fill:none;stroke:#231f20;stroke-width:0.565977;stroke-linecap:butt;stroke-linejoin:miter;stroke-miterlimit:4;stroke-dasharray:none;stroke-opacity:1"
     d="m 192.26993,47.587054 0.417,0.697 c 0,0 -0.636,-1.177 -0.657,-1.874 -0.01,-0.688 -0.354,-1.068 -0.974,-1.531 -0.584,-0.761 -1.333,-1.297 -2.297,-1.573 -2.183,-0.626 -3.713,-0.047 -4.52,1 -0.896,1.156 -1.459,4.281 0.671,6.234 l 7.813,-0.245 c -0.093,-0.995 -0.245,-1.896 -0.453,-2.708 z"
     id="path624" />
  <path
     style="fill:#231f20;fill-opacity:1;fill-rule:nonzero;stroke:none"
     d="m 169.62993,12.904054 c 0.593,0.246 1.468,1.984 2.686,3.036 0.823,0.71 1.99,3.194 2.86,3.839 0.802,0.589 1.11,0.937 0.594,1.964 -0.307,0.604 -1.298,1.584 -1.76,1.375 -1.09,-0.49 -1.735,-1.178 -2.276,-2.094 -0.631,-1.046 -2.063,-4.03 -2.282,-4.604 -0.526,-1.426 -1.156,-1.813 -1.333,-2.177 -0.328,-0.688 -0.147,-0.979 0.244,-1.292 0.761,-0.593 1.267,-0.047 1.267,-0.047"
     id="path625" />
  <path
     style="fill:none;stroke:#231f20;stroke-width:0.565977;stroke-linecap:butt;stroke-linejoin:miter;stroke-miterlimit:4;stroke-dasharray:none;stroke-opacity:1"
     d="m 169.62993,12.904054 c 0.593,0.246 1.468,1.984 2.686,3.036 0.823,0.71 1.99,3.194 2.86,3.839 0.802,0.589 1.11,0.937 0.594,1.964 -0.307,0.604 -1.298,1.584 -1.76,1.375 -1.09,-0.49 -1.735,-1.178 -2.276,-2.094 -0.631,-1.046 -2.063,-4.03 -2.282,-4.604 -0.526,-1.426 -1.156,-1.813 -1.333,-2.177 -0.328,-0.688 -0.147,-0.979 0.244,-1.292 0.761,-0.593 1.267,-0.047 1.267,-0.047 z"
     id="path626" />
  <path
     style="fill:#231f20;fill-opacity:1;fill-rule:nonzero;stroke:none"
     d="m 174.80593,20.336054 c 1.141,-0.62 1.77,1.324 2.01,1.798 0.246,0.489 1.099,1.792 1.896,2.718 0.798,0.932 1.391,2.438 2.896,4.208 0.798,0.928 0.979,2.339 -0.421,3.428 -1.387,1.083 -2.516,0.708 -3.303,-0.557 -0.792,-1.271 -0.994,-2.803 -1.702,-4.136 -0.704,-1.339 -1.548,-2.636 -2.262,-3.62 -0.806,-1.12 -0.796,-1.979 -0.541,-2.38 0.62,-1.031 1.427,-1.459 1.427,-1.459"
     id="path627" />
  <path
     style="fill:none;stroke:#231f20;stroke-width:0.565977;stroke-linecap:butt;stroke-linejoin:miter;stroke-miterlimit:4;stroke-dasharray:none;stroke-opacity:1"
     d="m 174.80593,20.336054 c 1.141,-0.62 1.77,1.324 2.01,1.798 0.246,0.489 1.099,1.792 1.896,2.718 0.798,0.932 1.391,2.438 2.896,4.208 0.798,0.928 0.979,2.339 -0.421,3.428 -1.387,1.083 -2.516,0.708 -3.303,-0.557 -0.792,-1.271 -0.994,-2.803 -1.702,-4.136 -0.704,-1.339 -1.548,-2.636 -2.262,-3.62 -0.806,-1.12 -0.796,-1.979 -0.541,-2.38 0.62,-1.031 1.427,-1.459 1.427,-1.459 z"
     id="path628" />
  <path
     style="fill:#ffffff;fill-opacity:1;fill-rule:nonzero;stroke:none"
     d="m 182.79993,16.071054 c -0.181,-0.172 0.366,-1.188 -0.082,-1.468 -0.443,-0.281 -1.027,0.265 -2.995,0.025 h -0.021 c -1.438,-0.224 -2.776,0.162 -3.52,1.167 -1.251,1.667 -0.423,4.385 1.833,6.073 2.271,1.698 5.109,1.714 6.353,0.052 1.194,-1.589 0.486,-4.15 -1.568,-5.849"
     id="path629" />
  <path
     style="fill:none;stroke:#231f20;stroke-width:0.565977;stroke-linecap:butt;stroke-linejoin:miter;stroke-miterlimit:4;stroke-dasharray:none;stroke-opacity:1"
     d="m 182.79993,16.071054 c -0.181,-0.172 0.366,-1.188 -0.082,-1.468 -0.443,-0.281 -1.027,0.265 -2.995,0.025 h -0.021 c -1.438,-0.224 -2.776,0.162 -3.52,1.167 -1.251,1.667 -0.423,4.385 1.833,6.073 2.271,1.698 5.109,1.714 6.353,0.052 1.194,-1.589 0.486,-4.15 -1.568,-5.849 z"
     id="path630" />
  <path
     style="fill:#231f20;fill-opacity:1;fill-rule:nonzero;stroke:none"
     d="m 214.21793,61.019054 c -0.984,-0.932 -0.61,-1.849 0.317,-2.323 0.276,-0.141 0.365,-0.546 0.641,-0.661 0.656,-0.265 2.244,0.457 1.968,1.927 -0.014,0.109 0.09,0.917 0.074,1.546 -0.042,1.208 -0.698,3.615 -3.058,4.928 -1.109,0.624 -1.276,-0.152 -0.901,-0.543 1.193,-1.223 1.052,-1.566 1.251,-2.005 0.661,-1.478 -0.292,-2.869 -0.292,-2.869"
     id="path631" />
  <path
     style="fill:none;stroke:#231f20;stroke-width:0.332927;stroke-linecap:butt;stroke-linejoin:miter;stroke-miterlimit:4;stroke-dasharray:none;stroke-opacity:1"
     d="m 214.21793,61.019054 c -0.984,-0.932 -0.61,-1.849 0.317,-2.323 0.276,-0.141 0.365,-0.546 0.641,-0.661 0.656,-0.265 2.244,0.457 1.968,1.927 -0.014,0.109 0.09,0.917 0.074,1.546 -0.042,1.208 -0.698,3.615 -3.058,4.928 -1.109,0.624 -1.276,-0.152 -0.901,-0.543 1.193,-1.223 1.052,-1.566 1.251,-2.005 0.661,-1.478 -0.292,-2.869 -0.292,-2.869 z"
     id="path632" />
  <path
     style="fill:#63c99d;fill-opacity:1;fill-rule:nonzero;stroke:none"
     d="m 192.92593,31.399054 c 2.396,2.016 2.693,2.708 3.109,3.532 2.62,5.151 5.099,3.771 6.521,1.26 1.678,-2.948 2.334,-3.975 -2.854,-7.541 -1.448,-0.99 -6.484,-5.511 -6.484,-5.511 -1.584,-1.869 -4.131,-2.844 -5.531,-2.443 -1.469,0.416 -0.86,0.359 -2.147,1 -1.244,0.61 -2.437,2.438 -2.088,3.626 0.334,1.134 1.948,1.552 4.192,2.448 1.782,0.713 5.282,3.629 5.282,3.629"
     id="path633" />
  <path
     style="fill:none;stroke:#231f20;stroke-width:0.565977;stroke-linecap:butt;stroke-linejoin:miter;stroke-miterlimit:4;stroke-dasharray:none;stroke-opacity:1"
     d="m 192.92593,31.399054 c 2.396,2.016 2.693,2.708 3.109,3.532 2.62,5.151 5.099,3.771 6.521,1.26 1.678,-2.948 2.334,-3.975 -2.854,-7.541 -1.448,-0.99 -6.484,-5.511 -6.484,-5.511 -1.584,-1.869 -4.131,-2.844 -5.531,-2.443 -1.469,0.416 -0.86,0.359 -2.147,1 -1.244,0.61 -2.437,2.438 -2.088,3.626 0.334,1.134 1.948,1.552 4.192,2.448 1.782,0.713 5.282,3.629 5.282,3.629 z"
     id="path634" />
  <path
     style="fill:#231f20;fill-opacity:1;fill-rule:nonzero;stroke:none"
     d="m 217.57193,42.107054 c -2.209,-0.5 -2.704,-0.296 -2.969,0.62 -0.188,0.615 -0.563,1.12 -0.697,1.485 -0.428,1.219 -0.647,3.463 0.39,9.958 0.239,1.469 0.558,3.546 0.614,4.396 0.105,1.354 2.286,0.281 2.25,-0.255 -0.109,-1.708 -0.036,-2.891 0.011,-3.516 0.036,-0.421 -0.016,-1.183 0.323,-2.812 0.51,-2.48 1.182,-3.891 1.36,-6 0.098,-0.98 0.776,-1.652 0.369,-2.661 -0.401,-1.006 -1.651,-1.215 -1.651,-1.215"
     id="path635" />
  <path
     style="fill:none;stroke:#231f20;stroke-width:0.565977;stroke-linecap:butt;stroke-linejoin:miter;stroke-miterlimit:4;stroke-dasharray:none;stroke-opacity:1"
     d="m 217.57193,42.107054 c -2.209,-0.5 -2.704,-0.296 -2.969,0.62 -0.188,0.615 -0.563,1.12 -0.697,1.485 -0.428,1.219 -0.647,3.463 0.39,9.958 0.239,1.469 0.558,3.546 0.614,4.396 0.105,1.354 2.286,0.281 2.25,-0.255 -0.109,-1.708 -0.036,-2.891 0.011,-3.516 0.036,-0.421 -0.016,-1.183 0.323,-2.812 0.51,-2.48 1.182,-3.891 1.36,-6 0.098,-0.98 0.776,-1.652 0.369,-2.661 -0.401,-1.006 -1.651,-1.215 -1.651,-1.215 z"
     id="path636" />
  <path
     style="fill:#231f20;fill-opacity:1;fill-rule:nonzero;stroke:#231f20;stroke-width:0.565977;stroke-linecap:round;stroke-linejoin:round;stroke-miterlimit:4;stroke-dasharray:none;stroke-opacity:1"
     d="m 218.81593,43.660054 c -0.172,-1.412 -2.229,-2.062 -2.478,-2.297 -3.642,-3.432 -3.99,-3.589 -6.948,-6.011 -4.282,-3.5 -7.746,-5.245 -10.506,-3.349 -1.88,1.287 -2.401,2.839 -2.114,4.125 0.328,1.422 2.385,3.85 5.25,3.448 l 1.556,0.698 c 1.006,0.594 1.496,0.885 1.964,1.218 0.814,0.59 1.719,1.163 3.37,2.215 2.933,1.859 6.641,2.875 6.641,2.875 0.265,0.156 0.547,0.192 0.807,0.145"
     id="path637" />
  <path
     style="fill:#63c99d;fill-opacity:1;fill-rule:nonzero;stroke:none"
     d="m 204.60793,32.092054 0.798,0.156 c 0,0 -1.298,-0.312 -1.834,-0.765 -0.526,-0.443 -1.037,-0.437 -1.792,-0.281 -0.958,-0.074 -1.854,0.134 -2.702,0.666 -1.918,1.219 -2.502,2.744 -2.262,4.042 0.271,1.437 2.235,3.937 5.11,3.645 l 5.01,-6 c -0.806,-0.593 -1.578,-1.083 -2.328,-1.463"
     id="path638" />
  <path
     style="fill:none;stroke:#231f20;stroke-width:0.565977;stroke-linecap:butt;stroke-linejoin:miter;stroke-miterlimit:4;stroke-dasharray:none;stroke-opacity:1"
     d="m 204.60793,32.092054 0.798,0.156 c 0,0 -1.298,-0.312 -1.834,-0.765 -0.526,-0.443 -1.037,-0.437 -1.792,-0.281 -0.958,-0.074 -1.854,0.134 -2.702,0.666 -1.918,1.219 -2.502,2.744 -2.262,4.042 0.271,1.437 2.235,3.937 5.11,3.645 l 5.01,-6 c -0.806,-0.593 -1.578,-1.083 -2.328,-1.463 z"
     id="path639" />
  <path
     style="fill:#231f20;fill-opacity:1;fill-rule:nonzero;stroke:none"
     d="m 169.69093,12.576054 c 0.641,-0.052 2.209,1.11 3.772,1.495 1.052,0.265 3.208,1.953 4.281,2.136 0.979,0.172 1.411,0.339 1.411,1.489 0,0.683 -0.443,2 -0.948,2.02 -1.192,0.058 -2.083,-0.27 -2.979,-0.842 -1.032,-0.652 -3.656,-2.667 -4.109,-3.079 -1.115,-1.041 -1.849,-1.104 -2.172,-1.344 -0.604,-0.468 -0.573,-0.812 -0.365,-1.265 0.412,-0.87 1.109,-0.61 1.109,-0.61"
     id="path640" />
  <path
     style="fill:none;stroke:#231f20;stroke-width:0.565977;stroke-linecap:butt;stroke-linejoin:miter;stroke-miterlimit:4;stroke-dasharray:none;stroke-opacity:1"
     d="m 169.69093,12.576054 c 0.641,-0.052 2.209,1.11 3.772,1.495 1.052,0.265 3.208,1.953 4.281,2.136 0.979,0.172 1.411,0.339 1.411,1.489 0,0.683 -0.443,2 -0.948,2.02 -1.192,0.058 -2.083,-0.27 -2.979,-0.842 -1.032,-0.652 -3.656,-2.667 -4.109,-3.079 -1.115,-1.041 -1.849,-1.104 -2.172,-1.344 -0.604,-0.468 -0.573,-0.812 -0.365,-1.265 0.412,-0.87 1.109,-0.61 1.109,-0.61 z"
     id="path641" />
  <path
     style="fill:#231f20;fill-opacity:1;fill-rule:nonzero;stroke:none"
     d="m 177.66593,16.879054 c 0.734,-1.068 2.172,0.38 2.604,0.697 0.437,0.328 1.786,1.104 2.912,1.574 1.134,0.473 2.342,1.546 4.484,2.448 1.13,0.468 1.926,1.645 1.172,3.249 -0.751,1.593 -1.928,1.765 -3.204,0.989 -1.28,-0.776 -2.151,-2.052 -3.38,-2.926 -1.234,-0.875 -2.572,-1.651 -3.651,-2.208 -1.224,-0.642 -1.599,-1.407 -1.557,-1.886 0.088,-1.193 0.62,-1.937 0.62,-1.937"
     id="path642" />
  <path
     style="fill:none;stroke:#231f20;stroke-width:0.565977;stroke-linecap:butt;stroke-linejoin:miter;stroke-miterlimit:4;stroke-dasharray:none;stroke-opacity:1"
     d="m 177.66593,16.879054 c 0.734,-1.068 2.172,0.38 2.604,0.697 0.437,0.328 1.786,1.104 2.912,1.574 1.134,0.473 2.342,1.546 4.484,2.448 1.13,0.468 1.926,1.645 1.172,3.249 -0.751,1.593 -1.928,1.765 -3.204,0.989 -1.28,-0.776 -2.151,-2.052 -3.38,-2.926 -1.234,-0.875 -2.572,-1.651 -3.651,-2.208 -1.224,-0.642 -1.599,-1.407 -1.557,-1.886 0.088,-1.193 0.62,-1.937 0.62,-1.937 z"
     id="path643" />
  <path
     style="fill:#ffffff;fill-opacity:1;fill-rule:nonzero;stroke:none"
     d="m 0.332928,13.519054 c 0,0.688 0.552,1.24 1.24,1.24 H 347.68593 c 0.69,0 1.24,-0.552 1.24,-1.24 0,-0.683 -0.55,-1.24 -1.24,-1.24 H 1.572928 c -0.688,0 -1.24,0.557 -1.24,1.24"
     id="path644" />
  <path
     style="fill:none;stroke:#231f20;stroke-width:0.665856;stroke-linecap:butt;stroke-linejoin:miter;stroke-miterlimit:4;stroke-dasharray:none;stroke-opacity:1"
     d="m 0.332928,13.519054 c 0,0.688 0.552,1.24 1.24,1.24 H 347.68593 c 0.69,0 1.24,-0.552 1.24,-1.24 0,-0.683 -0.55,-1.24 -1.24,-1.24 H 1.572928 c -0.688,0 -1.24,0.557 -1.24,1.24 z"
     id="path645" />
</svg>
