<?xml version="1.0" encoding="UTF-8" standalone="no"?>
<!-- Created with Inkscape (http://www.inkscape.org/) -->

<svg
   version="1.1"
   id="svg1"
   width="356.25476"
   height="159.55421"
   viewBox="0 0 356.25475 159.55422"
   sodipodi:docname="cell.svg"
   xmlns:inkscape="http://www.inkscape.org/namespaces/inkscape"
   xmlns:sodipodi="http://sodipodi.sourceforge.net/DTD/sodipodi-0.dtd"
   xmlns="http://www.w3.org/2000/svg"
   xmlns:svg="http://www.w3.org/2000/svg">
  <sodipodi:namedview
     id="namedview1"
     pagecolor="#ffffff"
     bordercolor="#000000"
     borderopacity="0.25"
     inkscape:showpageshadow="2"
     inkscape:pageopacity="0.0"
     inkscape:pagecheckerboard="0"
     inkscape:deskcolor="#d1d1d1">
    <inkscape:page
       x="0"
       y="0"
       inkscape:label="1"
       id="page1"
       width="356.25476"
       height="159.55421"
       margin="0"
       bleed="0" />
  </sodipodi:namedview>
  <defs
     id="defs1" />
  <path
     style="fill:#ffffff;fill-opacity:1;fill-rule:nonzero;stroke:none"
     d="m 166.1,18.874 h 18.875 V 0 H 166.1 Z"
     id="path870" />
  <path
     style="fill:#ffffff;fill-opacity:1;fill-rule:nonzero;stroke:none"
     d="M 0,18.874 H 18.875 V 0 H 0 Z"
     id="path871" />
  <path
     style="fill:#231f20;fill-opacity:1;fill-rule:nonzero;stroke:none"
     d="m 219.813,81.354 c 0.782,1.104 0.235,1.927 -0.765,2.214 -0.297,0.082 -0.469,0.468 -0.767,0.525 -0.686,0.136 -2.104,-0.885 -1.552,-2.281 0.043,-0.099 0.099,-0.911 0.235,-1.52 0.276,-1.188 1.396,-3.418 3.964,-4.24 1.213,-0.396 1.213,0.39 0.776,0.704 -1.407,0.968 -1.339,1.333 -1.615,1.728 -0.942,1.318 -0.276,2.87 -0.276,2.87"
     id="path873" />
  <path
     style="fill:none;stroke:#231f20;stroke-width:0.332927;stroke-linecap:butt;stroke-linejoin:miter;stroke-miterlimit:4;stroke-dasharray:none;stroke-opacity:1"
     d="m 219.813,81.354 c 0.782,1.104 0.235,1.927 -0.765,2.214 -0.297,0.082 -0.469,0.468 -0.767,0.525 -0.686,0.136 -2.104,-0.885 -1.552,-2.281 0.043,-0.099 0.099,-0.911 0.235,-1.52 0.276,-1.188 1.396,-3.418 3.964,-4.24 1.213,-0.396 1.213,0.39 0.776,0.704 -1.407,0.968 -1.339,1.333 -1.615,1.728 -0.942,1.318 -0.276,2.87 -0.276,2.87 z"
     id="path874" />
  <path
     style="fill:#63c99d;fill-opacity:1;fill-rule:nonzero;stroke:none"
     d="m 204.975,122.51 c 2.39,-2.027 3.125,-2.208 4.005,-2.479 5.52,-1.714 4.572,-4.396 2.339,-6.214 -2.626,-2.151 -3.527,-2.968 -7.912,1.542 -1.219,1.266 -6.526,5.474 -6.526,5.474 -2.109,1.245 -3.496,3.589 -3.333,5.036 0.167,1.526 0.213,0.912 0.624,2.286 0.391,1.323 1.995,2.814 3.219,2.667 1.177,-0.135 1.86,-1.656 3.12,-3.724 1.005,-1.629 4.464,-4.588 4.464,-4.588"
     id="path875" />
  <path
     style="fill:none;stroke:#231f20;stroke-width:0.565977;stroke-linecap:butt;stroke-linejoin:miter;stroke-miterlimit:4;stroke-dasharray:none;stroke-opacity:1"
     d="m 204.975,122.51 c 2.39,-2.027 3.125,-2.208 4.005,-2.479 5.52,-1.714 4.572,-4.396 2.339,-6.214 -2.626,-2.151 -3.527,-2.968 -7.912,1.542 -1.219,1.266 -6.526,5.474 -6.526,5.474 -2.109,1.245 -3.496,3.589 -3.333,5.036 0.167,1.526 0.213,0.912 0.624,2.286 0.391,1.323 1.995,2.814 3.219,2.667 1.177,-0.135 1.86,-1.656 3.12,-3.724 1.005,-1.629 4.464,-4.588 4.464,-4.588 z"
     id="path876" />
  <path
     style="fill:#231f20;fill-opacity:1;fill-rule:nonzero;stroke:none"
     d="m 212.824,99.245 c 2.072,0.921 2.593,0.817 3.036,-0.027 0.307,-0.568 0.771,-0.989 0.968,-1.322 0.667,-1.11 1.313,-3.271 1.568,-9.844 0.052,-1.49 0.152,-3.583 0.256,-4.432 0.167,-1.35 -2.188,-0.719 -2.256,-0.188 -0.229,1.704 -0.525,2.849 -0.697,3.448 -0.115,0.406 -0.214,1.166 -0.866,2.698 -0.984,2.334 -1.916,3.578 -2.509,5.61 -0.281,0.948 -1.084,1.473 -0.881,2.541 0.198,1.063 1.381,1.516 1.381,1.516"
     id="path877" />
  <path
     style="fill:none;stroke:#231f20;stroke-width:0.565977;stroke-linecap:butt;stroke-linejoin:miter;stroke-miterlimit:4;stroke-dasharray:none;stroke-opacity:1"
     d="m 212.824,99.245 c 2.072,0.921 2.593,0.817 3.036,-0.027 0.307,-0.568 0.771,-0.989 0.968,-1.322 0.667,-1.11 1.313,-3.271 1.568,-9.844 0.052,-1.49 0.152,-3.583 0.256,-4.432 0.167,-1.35 -2.188,-0.719 -2.256,-0.188 -0.229,1.704 -0.525,2.849 -0.697,3.448 -0.115,0.406 -0.214,1.166 -0.866,2.698 -0.984,2.334 -1.916,3.578 -2.509,5.61 -0.281,0.948 -1.084,1.473 -0.881,2.541 0.198,1.063 1.381,1.516 1.381,1.516 z"
     id="path878" />
  <path
     style="fill:#231f20;fill-opacity:1;fill-rule:nonzero;stroke:#231f20;stroke-width:0.565977;stroke-linecap:round;stroke-linejoin:round;stroke-miterlimit:4;stroke-dasharray:none;stroke-opacity:1"
     d="m 212.724,95.016 c -1.307,0.562 -1.359,2.713 -1.52,3.016 -2.287,4.451 -2.339,4.833 -3.839,8.342 -2.177,5.089 -2.885,8.901 -0.302,11.027 1.756,1.448 3.396,1.516 4.546,0.885 1.276,-0.713 3.038,-3.36 1.86,-6 l 0.23,-1.693 c 0.296,-1.13 0.442,-1.682 0.629,-2.224 0.339,-0.943 0.641,-1.974 1.193,-3.854 0.974,-3.333 0.918,-7.177 0.918,-7.177 0.082,-0.297 0.03,-0.573 -0.084,-0.812"
     id="path879" />
  <path
     style="fill:#63c99d;fill-opacity:1;fill-rule:nonzero;stroke:none"
     d="m 213.469,112.385 -7.15,-3.151 c -1.303,3.531 -1.418,6.265 0.562,8.02 1.703,1.501 3.334,1.641 4.51,1.043 1.308,-0.652 3.161,-3.235 2.078,-5.912"
     id="path880" />
  <path
     style="fill:none;stroke:#231f20;stroke-width:0.565977;stroke-linecap:butt;stroke-linejoin:miter;stroke-miterlimit:4;stroke-dasharray:none;stroke-opacity:1"
     d="m 213.469,112.385 -7.15,-3.151 c -1.303,3.531 -1.418,6.265 0.562,8.02 1.703,1.501 3.334,1.641 4.51,1.043 1.308,-0.652 3.161,-3.235 2.078,-5.912 z"
     id="path881" />
  <path
     style="fill:#63c99d;fill-opacity:1;fill-rule:nonzero;stroke:none"
     d="m 86.276,95.672 c -0.588,3.464 -0.566,4.437 -0.65,5.578 -0.454,5.76 0.745,6.255 3.12,6.547 3.36,0.41 5.245,0.312 5.401,-5.986 0.12,-4.775 0.891,-8.306 0.891,-8.306 0.88,-1.645 1.181,-5.229 0.708,-6.005 -0.803,-1.307 -0.694,-1.031 -1.932,-1.776 -2.287,-1.386 -3.319,-0.776 -4.115,0.109 -0.797,0.88 -1.193,1.839 -2.005,4.532 -0.636,2.083 -1.418,5.307 -1.418,5.307"
     id="path882" />
  <path
     style="fill:none;stroke:#231f20;stroke-width:0.565977;stroke-linecap:butt;stroke-linejoin:miter;stroke-miterlimit:4;stroke-dasharray:none;stroke-opacity:1"
     d="m 86.276,95.672 c -0.588,3.464 -0.566,4.437 -0.65,5.578 -0.454,5.76 0.745,6.255 3.12,6.547 3.36,0.41 5.245,0.312 5.401,-5.986 0.12,-4.775 0.891,-8.306 0.891,-8.306 0.88,-1.645 1.181,-5.229 0.708,-6.005 -0.803,-1.307 -0.694,-1.031 -1.932,-1.776 -2.287,-1.386 -3.319,-0.776 -4.115,0.109 -0.797,0.88 -1.193,1.839 -2.005,4.532 -0.636,2.083 -1.418,5.307 -1.418,5.307 z"
     id="path883" />
  <path
     style="fill:#ffffff;fill-opacity:1;fill-rule:nonzero;stroke:none"
     d="m 105.74,101.843 c 0.251,2.25 0.599,2.656 1.563,2.615 0.635,-0.027 1.24,0.167 1.631,0.167 1.29,0.01 3.473,-0.522 9.281,-3.626 1.317,-0.702 3.171,-1.677 3.957,-2.021 1.246,-0.536 -0.484,-2.244 -0.973,-2.036 -1.584,0.656 -2.729,0.984 -3.333,1.147 -0.412,0.104 -1.115,0.395 -2.766,0.609 -2.505,0.334 -4.052,0.151 -6.1,0.667 -0.957,0.233 -1.822,-0.188 -2.645,0.52 -0.823,0.713 -0.615,1.958 -0.615,1.958"
     id="path884" />
  <path
     style="fill:none;stroke:#231f20;stroke-width:0.565977;stroke-linecap:butt;stroke-linejoin:miter;stroke-miterlimit:4;stroke-dasharray:none;stroke-opacity:1"
     d="m 105.74,101.843 c 0.251,2.25 0.599,2.656 1.563,2.615 0.635,-0.027 1.24,0.167 1.631,0.167 1.29,0.01 3.473,-0.522 9.281,-3.626 1.317,-0.702 3.171,-1.677 3.957,-2.021 1.246,-0.536 -0.484,-2.244 -0.973,-2.036 -1.584,0.656 -2.729,0.984 -3.333,1.147 -0.412,0.104 -1.115,0.395 -2.766,0.609 -2.505,0.334 -4.052,0.151 -6.1,0.667 -0.957,0.233 -1.822,-0.188 -2.645,0.52 -0.823,0.713 -0.615,1.958 -0.615,1.958 z"
     id="path885" />
  <path
     style="fill:#ffffff;fill-opacity:1;fill-rule:nonzero;stroke:none"
     d="m 97.298,78.869 c -0.022,-0.244 1.057,-0.635 0.917,-1.135 -0.141,-0.51 -0.928,-0.494 -2.235,-1.994 l -0.016,-0.016 c -0.912,-1.136 -2.161,-1.74 -3.396,-1.5 -2.036,0.396 -3.249,2.964 -2.713,5.74 0.541,2.77 2.631,4.697 4.667,4.296 1.958,-0.38 3.15,-2.755 2.776,-5.391"
     id="path886" />
  <path
     style="fill:none;stroke:#231f20;stroke-width:0.565977;stroke-linecap:butt;stroke-linejoin:miter;stroke-miterlimit:4;stroke-dasharray:none;stroke-opacity:1"
     d="m 97.298,78.869 c -0.022,-0.244 1.057,-0.635 0.917,-1.135 -0.141,-0.51 -0.928,-0.494 -2.235,-1.994 l -0.016,-0.016 c -0.912,-1.136 -2.161,-1.74 -3.396,-1.5 -2.036,0.396 -3.249,2.964 -2.713,5.74 0.541,2.77 2.631,4.697 4.667,4.296 1.958,-0.38 3.15,-2.755 2.776,-5.391 z"
     id="path887" />
  <path
     style="fill:#ffffff;fill-opacity:1;fill-rule:nonzero;stroke:#231f20;stroke-width:0.565977;stroke-linecap:round;stroke-linejoin:round;stroke-miterlimit:4;stroke-dasharray:none;stroke-opacity:1"
     d="m 108.568,99.964 c -1.052,-1.016 -3.077,-0.131 -3.421,-0.142 -5.011,-0.186 -5.375,-0.072 -9.193,0.047 -5.52,0.177 -9.282,1.152 -10.11,4.39 -0.568,2.204 0.058,3.719 1.12,4.491 1.183,0.864 4.323,1.339 6.214,-0.844 l 1.636,-0.511 c 1.145,-0.202 1.713,-0.312 2.286,-0.369 0.995,-0.089 2.058,-0.261 3.995,-0.548 3.427,-0.525 6.891,-2.208 6.891,-2.208 0.15,-0.025 0.285,-0.077 0.4,-0.151"
     id="path888" />
  <path
     style="fill:#63c99d;fill-opacity:1;fill-rule:nonzero;stroke:#231f20;stroke-width:0.565977;stroke-linecap:butt;stroke-linejoin:miter;stroke-miterlimit:4;stroke-dasharray:none;stroke-opacity:1"
     d="m 92.715,100.104 c -3.74,0.453 -6.22,1.598 -6.871,4.155 -0.568,2.204 0.058,3.719 1.12,4.491 1.183,0.864 4.323,1.339 6.214,-0.844 z"
     id="path889" />
  <path
     style="fill:none;stroke:#231f20;stroke-width:0.399514;stroke-linecap:butt;stroke-linejoin:miter;stroke-miterlimit:4;stroke-dasharray:none;stroke-opacity:1"
     d="m 23.303,92.114 c -7.339,58.38 67.385,83.068 125.432,56.713"
     id="path890" />
  <path
     style="fill:#231f20;fill-opacity:1;fill-rule:nonzero;stroke:none"
     d="m 149.828,148.327 c -0.427,0.423 -0.921,1.042 -1.161,1.568 l -0.078,-1.005 -0.704,-0.724 c 0.554,0.167 1.339,0.203 1.943,0.161"
     id="path891" />
  <path
     style="fill:#63c99d;fill-opacity:1;fill-rule:nonzero;stroke:none"
     d="m 152.412,137.759 c 2.749,1.495 3.183,2.12 3.755,2.844 3.589,4.532 5.745,2.688 6.641,-0.052 1.057,-3.224 1.5,-4.358 -4.287,-6.828 -1.62,-0.688 -7.448,-4.125 -7.448,-4.125 -1.926,-1.52 -4.609,-1.968 -5.901,-1.301 -1.364,0.708 -0.776,0.53 -1.916,1.41 -1.089,0.839 -1.907,2.871 -1.328,3.964 0.557,1.047 2.219,1.136 4.599,1.574 1.88,0.348 5.885,2.514 5.885,2.514"
     id="path892" />
  <path
     style="fill:none;stroke:#231f20;stroke-width:0.565977;stroke-linecap:butt;stroke-linejoin:miter;stroke-miterlimit:4;stroke-dasharray:none;stroke-opacity:1"
     d="m 152.412,137.759 c 2.749,1.495 3.183,2.12 3.755,2.844 3.589,4.532 5.745,2.688 6.641,-0.052 1.057,-3.224 1.5,-4.358 -4.287,-6.828 -1.62,-0.688 -7.448,-4.125 -7.448,-4.125 -1.926,-1.52 -4.609,-1.968 -5.901,-1.301 -1.364,0.708 -0.776,0.53 -1.916,1.41 -1.089,0.839 -1.907,2.871 -1.328,3.964 0.557,1.047 2.219,1.136 4.599,1.574 1.88,0.348 5.885,2.514 5.885,2.514 z"
     id="path893" />
  <path
     style="fill:#ffffff;fill-opacity:1;fill-rule:nonzero;stroke:none"
     d="m 134.625,128.713 c -0.234,0.068 -0.817,-0.922 -1.286,-0.692 -0.474,0.229 -0.307,1.005 -1.547,2.562 l -0.016,0.02 c -0.943,1.104 -1.307,2.448 -0.843,3.61 0.771,1.932 3.52,2.646 6.14,1.614 2.626,-1.052 4.126,-3.462 3.366,-5.39 -0.735,-1.85 -3.292,-2.583 -5.814,-1.724"
     id="path894" />
  <path
     style="fill:none;stroke:#231f20;stroke-width:0.565977;stroke-linecap:butt;stroke-linejoin:miter;stroke-miterlimit:4;stroke-dasharray:none;stroke-opacity:1"
     d="m 134.625,128.713 c -0.234,0.068 -0.817,-0.922 -1.286,-0.692 -0.474,0.229 -0.307,1.005 -1.547,2.562 l -0.016,0.02 c -0.943,1.104 -1.307,2.448 -0.843,3.61 0.771,1.932 3.52,2.646 6.14,1.614 2.626,-1.052 4.126,-3.462 3.366,-5.39 -0.735,-1.85 -3.292,-2.583 -5.814,-1.724 z"
     id="path895" />
  <path
     style="fill:#231f20;fill-opacity:1;fill-rule:nonzero;stroke:none"
     d="m 151.573,124.035 c 2.099,-0.848 2.391,-1.296 2.088,-2.208 -0.202,-0.609 -0.176,-1.234 -0.28,-1.609 -0.344,-1.255 -1.453,-3.213 -6.016,-7.959 -1.037,-1.066 -2.484,-2.588 -3.021,-3.254 -0.859,-1.047 -2.031,1.084 -1.697,1.5 1.068,1.344 1.686,2.354 2.005,2.885 0.219,0.369 0.692,0.969 1.343,2.505 1,2.318 1.245,3.86 2.302,5.692 0.49,0.855 0.312,1.803 1.224,2.391 0.907,0.605 2.052,0.057 2.052,0.057"
     id="path896" />
  <path
     style="fill:none;stroke:#231f20;stroke-width:0.565977;stroke-linecap:butt;stroke-linejoin:miter;stroke-miterlimit:4;stroke-dasharray:none;stroke-opacity:1"
     d="m 151.573,124.035 c 2.099,-0.848 2.391,-1.296 2.088,-2.208 -0.202,-0.609 -0.176,-1.234 -0.28,-1.609 -0.344,-1.255 -1.453,-3.213 -6.016,-7.959 -1.037,-1.066 -2.484,-2.588 -3.021,-3.254 -0.859,-1.047 -2.031,1.084 -1.697,1.5 1.068,1.344 1.686,2.354 2.005,2.885 0.219,0.369 0.692,0.969 1.343,2.505 1,2.318 1.245,3.86 2.302,5.692 0.49,0.855 0.312,1.803 1.224,2.391 0.907,0.605 2.052,0.057 2.052,0.057 z"
     id="path897" />
  <path
     style="fill:#231f20;fill-opacity:1;fill-rule:nonzero;stroke:#231f20;stroke-width:0.565977;stroke-linecap:round;stroke-linejoin:round;stroke-miterlimit:4;stroke-dasharray:none;stroke-opacity:1"
     d="m 149.308,122.963 c -0.541,1.307 0.916,2.891 1.011,3.219 1.462,4.796 1.692,5.104 3.052,8.672 1.984,5.161 4.124,8.396 7.462,8.124 2.267,-0.181 3.491,-1.271 3.876,-2.531 0.422,-1.396 -0.157,-4.526 -2.838,-5.598 l -1.016,-1.38 c -0.568,-1.016 -0.85,-1.511 -1.088,-2.038 -0.412,-0.91 -0.918,-1.858 -1.83,-3.593 -1.624,-3.073 -4.333,-5.792 -4.333,-5.792 -0.151,-0.271 -0.38,-0.437 -0.629,-0.531"
     id="path898" />
  <path
     style="fill:#63c99d;fill-opacity:1;fill-rule:nonzero;stroke:none"
     d="m 161.917,134.974 -7.322,2.719 c 1.52,3.437 3.342,5.478 5.978,5.364 2.271,-0.099 3.536,-1.14 3.97,-2.386 0.478,-1.38 0.014,-4.526 -2.626,-5.697"
     id="path899" />
  <path
     style="fill:none;stroke:#231f20;stroke-width:0.565977;stroke-linecap:butt;stroke-linejoin:miter;stroke-miterlimit:4;stroke-dasharray:none;stroke-opacity:1"
     d="m 161.917,134.974 -7.322,2.719 c 1.52,3.437 3.342,5.478 5.978,5.364 2.271,-0.099 3.536,-1.14 3.97,-2.386 0.478,-1.38 0.014,-4.526 -2.626,-5.697 z"
     id="path900" />
  <path
     style="fill:#231f20;fill-opacity:1;fill-rule:nonzero;stroke:none"
     d="m 143.219,106.895 c 1.338,0.203 1.548,1.172 1.057,2.088 -0.14,0.271 0.021,0.662 -0.14,0.912 -0.385,0.594 -2.099,0.907 -2.729,-0.458 -0.042,-0.099 -0.588,-0.703 -0.932,-1.224 -0.656,-1.015 -1.495,-3.37 -0.314,-5.787 0.558,-1.156 1.131,-0.609 1.048,-0.077 -0.272,1.692 0.036,1.89 0.13,2.364 0.297,1.594 1.88,2.182 1.88,2.182"
     id="path901" />
  <path
     style="fill:none;stroke:#231f20;stroke-width:0.332927;stroke-linecap:butt;stroke-linejoin:miter;stroke-miterlimit:4;stroke-dasharray:none;stroke-opacity:1"
     d="m 143.219,106.895 c 1.338,0.203 1.548,1.172 1.057,2.088 -0.14,0.271 0.021,0.662 -0.14,0.912 -0.385,0.594 -2.099,0.907 -2.729,-0.458 -0.042,-0.099 -0.588,-0.703 -0.932,-1.224 -0.656,-1.015 -1.495,-3.37 -0.314,-5.787 0.558,-1.156 1.131,-0.609 1.048,-0.077 -0.272,1.692 0.036,1.89 0.13,2.364 0.297,1.594 1.88,2.182 1.88,2.182 z"
     id="path902" />
  <path
     style="fill:#ffffff;fill-opacity:1;fill-rule:nonzero;stroke:none"
     d="m 6.298,108.562 c 0,0.688 0.552,1.245 1.24,1.245 h 346.109 c 0.69,0 1.25,-0.557 1.25,-1.245 0,-0.683 -0.56,-1.235 -1.25,-1.235 H 7.538 c -0.688,0 -1.24,0.552 -1.24,1.235"
     id="path903" />
  <path
     style="fill:none;stroke:#231f20;stroke-width:0.665856;stroke-linecap:butt;stroke-linejoin:miter;stroke-miterlimit:4;stroke-dasharray:none;stroke-opacity:1"
     d="m 6.298,108.562 c 0,0.688 0.552,1.245 1.24,1.245 h 346.109 c 0.69,0 1.25,-0.557 1.25,-1.245 0,-0.683 -0.56,-1.235 -1.25,-1.235 H 7.538 c -0.688,0 -1.24,0.552 -1.24,1.235 z"
     id="path904" />
  <path
     style="fill:#63c99d;fill-opacity:1;fill-rule:nonzero;stroke:none"
     d="m 52.303,82.193 c -3.032,-0.776 -3.604,-1.276 -4.339,-1.839 -4.588,-3.51 -6.229,-1.188 -6.416,1.687 -0.24,3.381 -0.386,4.595 5.828,5.563 1.739,0.265 8.234,2.166 8.234,2.166 2.24,1 4.948,0.776 6.042,-0.192 1.146,-1.021 0.619,-0.698 1.506,-1.833 0.853,-1.084 1.145,-3.251 0.317,-4.167 -0.797,-0.88 -2.427,-0.557 -4.849,-0.401 -1.907,0.131 -6.323,-0.984 -6.323,-0.984"
     id="path905" />
  <path
     style="fill:none;stroke:#231f20;stroke-width:0.565977;stroke-linecap:butt;stroke-linejoin:miter;stroke-miterlimit:4;stroke-dasharray:none;stroke-opacity:1"
     d="m 52.303,82.193 c -3.032,-0.776 -3.604,-1.276 -4.339,-1.839 -4.588,-3.51 -6.229,-1.188 -6.416,1.687 -0.24,3.381 -0.386,4.595 5.828,5.563 1.739,0.265 8.234,2.166 8.234,2.166 2.24,1 4.948,0.776 6.042,-0.192 1.146,-1.021 0.619,-0.698 1.506,-1.833 0.853,-1.084 1.145,-3.251 0.317,-4.167 -0.797,-0.88 -2.427,-0.557 -4.849,-0.401 -1.907,0.131 -6.323,-0.984 -6.323,-0.984 z"
     id="path906" />
  <path
     style="fill:#ffffff;fill-opacity:1;fill-rule:nonzero;stroke:none"
     d="m 71.839,88.26 c 0.213,-0.124 1.027,0.693 1.417,0.354 0.402,-0.344 0.052,-1.052 0.87,-2.864 l 0.01,-0.021 c 0.636,-1.307 0.667,-2.697 -0.068,-3.708 -1.218,-1.688 -4.062,-1.704 -6.349,-0.052 -2.291,1.656 -3.151,4.369 -1.937,6.047 1.166,1.609 3.828,1.697 6.057,0.244"
     id="path907" />
  <path
     style="fill:none;stroke:#231f20;stroke-width:0.565977;stroke-linecap:butt;stroke-linejoin:miter;stroke-miterlimit:4;stroke-dasharray:none;stroke-opacity:1"
     d="m 71.839,88.26 c 0.213,-0.124 1.027,0.693 1.417,0.354 0.402,-0.344 0.052,-1.052 0.87,-2.864 l 0.01,-0.021 c 0.636,-1.307 0.667,-2.697 -0.068,-3.708 -1.218,-1.688 -4.062,-1.704 -6.349,-0.052 -2.291,1.656 -3.151,4.369 -1.937,6.047 1.166,1.609 3.828,1.697 6.057,0.244 z"
     id="path908" />
  <path
     style="fill:#231f20;fill-opacity:1;fill-rule:nonzero;stroke:none"
     d="m 56.652,106.849 c -0.286,-0.574 0.182,-2.47 -0.057,-4.058 -0.161,-1.073 0.577,-3.713 0.333,-4.77 -0.218,-0.969 -0.229,-1.437 0.834,-1.876 0.629,-0.26 2.014,-0.359 2.233,0.105 0.505,1.078 0.543,2.02 0.36,3.072 -0.208,1.199 -1.063,4.396 -1.276,4.975 -0.527,1.426 -0.303,2.129 -0.407,2.52 -0.192,0.734 -0.525,0.838 -1.025,0.818 -0.964,-0.042 -0.995,-0.786 -0.995,-0.786"
     id="path909" />
  <path
     style="fill:none;stroke:#231f20;stroke-width:0.565977;stroke-linecap:butt;stroke-linejoin:miter;stroke-miterlimit:4;stroke-dasharray:none;stroke-opacity:1"
     d="m 56.652,106.849 c -0.286,-0.574 0.182,-2.47 -0.057,-4.058 -0.161,-1.073 0.577,-3.713 0.333,-4.77 -0.218,-0.969 -0.229,-1.437 0.834,-1.876 0.629,-0.26 2.014,-0.359 2.233,0.105 0.505,1.078 0.543,2.02 0.36,3.072 -0.208,1.199 -1.063,4.396 -1.276,4.975 -0.527,1.426 -0.303,2.129 -0.407,2.52 -0.192,0.734 -0.525,0.838 -1.025,0.818 -0.964,-0.042 -0.995,-0.786 -0.995,-0.786 z"
     id="path910" />
  <path
     style="fill:#231f20;fill-opacity:1;fill-rule:nonzero;stroke:none"
     d="m 57.579,97.833 c -1.271,-0.271 -0.484,-2.151 -0.355,-2.672 0.136,-0.531 0.334,-2.072 0.339,-3.296 0.005,-1.224 0.532,-2.751 0.543,-5.079 0.004,-1.224 0.78,-2.406 2.556,-2.322 1.756,0.082 2.37,1.098 2.141,2.577 -0.229,1.48 -1.073,2.771 -1.412,4.245 -0.333,1.474 -0.541,3.006 -0.64,4.219 -0.12,1.375 -0.688,2.016 -1.147,2.156 -1.134,0.38 -2.025,0.172 -2.025,0.172"
     id="path911" />
  <path
     style="fill:none;stroke:#231f20;stroke-width:0.565977;stroke-linecap:butt;stroke-linejoin:miter;stroke-miterlimit:4;stroke-dasharray:none;stroke-opacity:1"
     d="m 57.579,97.833 c -1.271,-0.271 -0.484,-2.151 -0.355,-2.672 0.136,-0.531 0.334,-2.072 0.339,-3.296 0.005,-1.224 0.532,-2.751 0.543,-5.079 0.004,-1.224 0.78,-2.406 2.556,-2.322 1.756,0.082 2.37,1.098 2.141,2.577 -0.229,1.48 -1.073,2.771 -1.412,4.245 -0.333,1.474 -0.541,3.006 -0.64,4.219 -0.12,1.375 -0.688,2.016 -1.147,2.156 -1.134,0.38 -2.025,0.172 -2.025,0.172 z"
     id="path912" />
  <path
     style="fill:#231f20;fill-opacity:1;fill-rule:nonzero;stroke:none"
     d="m 29.032,73.322 c 1.416,-1.76 1.454,-2.296 0.744,-2.948 -0.473,-0.437 -0.754,-0.989 -1.03,-1.265 -0.907,-0.921 -2.828,-2.099 -9.126,-4.016 -1.426,-0.427 -3.432,-1.052 -4.224,-1.375 -1.265,-0.494 -1.249,1.932 -0.749,2.142 1.583,0.65 2.615,1.233 3.151,1.546 0.374,0.214 1.078,0.506 2.396,1.52 2,1.543 2.968,2.762 4.786,3.855 0.844,0.511 1.151,1.417 2.23,1.489 1.088,0.09 1.822,-0.948 1.822,-0.948"
     id="path913" />
  <path
     style="fill:none;stroke:#231f20;stroke-width:0.565977;stroke-linecap:butt;stroke-linejoin:miter;stroke-miterlimit:4;stroke-dasharray:none;stroke-opacity:1"
     d="m 29.032,73.322 c 1.416,-1.76 1.454,-2.296 0.744,-2.948 -0.473,-0.437 -0.754,-0.989 -1.03,-1.265 -0.907,-0.921 -2.828,-2.099 -9.126,-4.016 -1.426,-0.427 -3.432,-1.052 -4.224,-1.375 -1.265,-0.494 -1.249,1.932 -0.749,2.142 1.583,0.65 2.615,1.233 3.151,1.546 0.374,0.214 1.078,0.506 2.396,1.52 2,1.543 2.968,2.762 4.786,3.855 0.844,0.511 1.151,1.417 2.23,1.489 1.088,0.09 1.822,-0.948 1.822,-0.948 z"
     id="path914" />
  <path
     style="fill:#231f20;fill-opacity:1;fill-rule:nonzero;stroke:#231f20;stroke-width:0.565977;stroke-linecap:round;stroke-linejoin:round;stroke-miterlimit:4;stroke-dasharray:none;stroke-opacity:1"
     d="m 26.538,73.489 c 0.156,1.412 2.202,2.079 2.448,2.319 3.614,3.473 3.957,3.634 6.89,6.082 4.239,3.547 7.687,5.328 10.474,3.464 1.885,-1.27 2.426,-2.813 2.15,-4.1 -0.312,-1.426 -2.342,-3.874 -5.208,-3.504 l -1.557,-0.714 c -0.989,-0.61 -1.479,-0.906 -1.948,-1.239 -0.801,-0.599 -1.708,-1.183 -3.344,-2.256 -2.916,-1.891 -6.609,-2.948 -6.609,-2.948 -0.26,-0.161 -0.542,-0.192 -0.807,-0.151"
     id="path915" />
  <path
     style="fill:#63c99d;fill-opacity:1;fill-rule:nonzero;stroke:none"
     d="M 48.464,81.532 C 48.21,80.093 46.276,77.568 43.396,77.833 l -5.072,5.943 c 0.52,0.396 1.031,0.729 1.531,1.036 0.052,0.062 0.099,0.125 0.136,0.188 0.421,0.693 1.047,0.781 2.083,0.88 1.474,0.485 2.833,0.437 4.088,-0.334 1.933,-1.192 2.532,-2.718 2.302,-4.014"
     id="path916" />
  <path
     style="fill:none;stroke:#231f20;stroke-width:0.565977;stroke-linecap:butt;stroke-linejoin:miter;stroke-miterlimit:4;stroke-dasharray:none;stroke-opacity:1"
     d="M 48.464,81.532 C 48.21,80.093 46.276,77.568 43.396,77.833 l -5.072,5.943 c 0.52,0.396 1.031,0.729 1.531,1.036 0.052,0.062 0.099,0.125 0.136,0.188 0.421,0.693 1.047,0.781 2.083,0.88 1.474,0.485 2.833,0.437 4.088,-0.334 1.933,-1.192 2.532,-2.718 2.302,-4.014 z"
     id="path917" />
  <path
     style="fill:#231f20;fill-opacity:1;fill-rule:nonzero;stroke:none"
     d="m 13.386,62.426 c 1.266,-0.473 1.922,0.272 1.942,1.308 0.006,0.307 0.334,0.568 0.314,0.87 -0.042,0.704 -1.386,1.813 -2.599,0.922 -0.084,-0.062 -0.86,-0.324 -1.407,-0.614 -1.078,-0.563 -2.953,-2.21 -3.104,-4.902 -0.073,-1.276 0.698,-1.084 0.886,-0.578 0.582,1.609 0.948,1.636 1.26,2 1.037,1.25 2.708,0.994 2.708,0.994"
     id="path918" />
  <path
     style="fill:none;stroke:#231f20;stroke-width:0.332927;stroke-linecap:butt;stroke-linejoin:miter;stroke-miterlimit:4;stroke-dasharray:none;stroke-opacity:1"
     d="m 13.386,62.426 c 1.266,-0.473 1.922,0.272 1.942,1.308 0.006,0.307 0.334,0.568 0.314,0.87 -0.042,0.704 -1.386,1.813 -2.599,0.922 -0.084,-0.062 -0.86,-0.324 -1.407,-0.614 -1.078,-0.563 -2.953,-2.21 -3.104,-4.902 -0.073,-1.276 0.698,-1.084 0.886,-0.578 0.582,1.609 0.948,1.636 1.26,2 1.037,1.25 2.708,0.994 2.708,0.994 z"
     id="path919" />
  <path
     style="fill:#231f20;fill-opacity:1;fill-rule:nonzero;stroke:none"
     d="m 60.339,108.385 c 0,1.177 -0.953,2.13 -2.135,2.13 -1.177,0 -2.13,-0.953 -2.13,-2.13 0,-1.183 0.953,-2.135 2.13,-2.135 1.182,0 2.135,0.952 2.135,2.135"
     id="path920" />
  <path
     style="fill:#231f20;fill-opacity:1;fill-rule:nonzero;stroke:none"
     d="m 101.172,109.698 c -0.729,0.927 -2.066,1.088 -2.994,0.364 -0.927,-0.729 -1.088,-2.068 -0.364,-2.995 0.729,-0.926 2.068,-1.089 2.994,-0.365 0.927,0.729 1.088,2.068 0.364,2.996"
     id="path921" />
  <path
     style="fill:#231f20;fill-opacity:1;fill-rule:nonzero;stroke:none"
     d="M 97.538,107.869 C 97,107.526 96.443,105.655 95.428,104.406 94.74,103.567 94.032,100.911 93.287,100.13 92.61,99.401 92.366,99 93.052,98.084 c 0.412,-0.548 1.558,-1.328 1.98,-1.038 0.979,0.667 1.495,1.464 1.875,2.47 0.427,1.134 1.317,4.322 1.421,4.926 0.267,1.5 0.819,1.989 0.928,2.38 0.208,0.735 -0.021,0.989 -0.469,1.229 -0.849,0.443 -1.249,-0.182 -1.249,-0.182"
     id="path922" />
  <path
     style="fill:none;stroke:#231f20;stroke-width:0.565977;stroke-linecap:butt;stroke-linejoin:miter;stroke-miterlimit:4;stroke-dasharray:none;stroke-opacity:1"
     d="M 97.538,107.869 C 97,107.526 96.443,105.655 95.428,104.406 94.74,103.567 94.032,100.911 93.287,100.13 92.61,99.401 92.366,99 93.052,98.084 c 0.412,-0.548 1.558,-1.328 1.98,-1.038 0.979,0.667 1.495,1.464 1.875,2.47 0.427,1.134 1.317,4.322 1.421,4.926 0.267,1.5 0.819,1.989 0.928,2.38 0.208,0.735 -0.021,0.989 -0.469,1.229 -0.849,0.443 -1.249,-0.182 -1.249,-0.182 z"
     id="path923" />
  <path
     style="fill:#231f20;fill-opacity:1;fill-rule:nonzero;stroke:none"
     d="m 94.131,99.854 c -1.245,0.359 -1.448,-1.666 -1.579,-2.193 -0.129,-0.525 -0.686,-1.979 -1.26,-3.057 -0.573,-1.088 -0.833,-2.678 -1.921,-4.73 -0.579,-1.077 -0.453,-2.5 1.151,-3.26 1.584,-0.76 2.604,-0.15 3.104,1.26 0.5,1.412 0.365,2.943 0.77,4.407 0.402,1.459 0.948,2.901 1.423,4.021 0.552,1.266 0.348,2.094 0.025,2.438 -0.828,0.869 -1.713,1.114 -1.713,1.114"
     id="path924" />
  <path
     style="fill:none;stroke:#231f20;stroke-width:0.565977;stroke-linecap:butt;stroke-linejoin:miter;stroke-miterlimit:4;stroke-dasharray:none;stroke-opacity:1"
     d="m 94.131,99.854 c -1.245,0.359 -1.448,-1.666 -1.579,-2.193 -0.129,-0.525 -0.686,-1.979 -1.26,-3.057 -0.573,-1.088 -0.833,-2.678 -1.921,-4.73 -0.579,-1.077 -0.453,-2.5 1.151,-3.26 1.584,-0.76 2.604,-0.15 3.104,1.26 0.5,1.412 0.365,2.943 0.77,4.407 0.402,1.459 0.948,2.901 1.423,4.021 0.552,1.266 0.348,2.094 0.025,2.438 -0.828,0.869 -1.713,1.114 -1.713,1.114 z"
     id="path925" />
  <path
     style="fill:#231f20;fill-opacity:1;fill-rule:nonzero;stroke:none"
     d="m 123.767,98.865 c -0.677,1.167 -1.661,1.004 -2.328,0.213 -0.204,-0.229 -0.62,-0.229 -0.792,-0.474 -0.412,-0.572 -0.073,-2.282 1.427,-2.354 0.104,-0.005 0.874,-0.292 1.484,-0.412 1.188,-0.24 3.677,-0.15 5.499,1.844 0.855,0.943 0.136,1.276 -0.322,1.006 -1.468,-0.88 -1.771,-0.672 -2.24,-0.762 -1.593,-0.312 -2.728,0.939 -2.728,0.939"
     id="path926" />
  <path
     style="fill:none;stroke:#231f20;stroke-width:0.332927;stroke-linecap:butt;stroke-linejoin:miter;stroke-miterlimit:4;stroke-dasharray:none;stroke-opacity:1"
     d="m 123.767,98.865 c -0.677,1.167 -1.661,1.004 -2.328,0.213 -0.204,-0.229 -0.62,-0.229 -0.792,-0.474 -0.412,-0.572 -0.073,-2.282 1.427,-2.354 0.104,-0.005 0.874,-0.292 1.484,-0.412 1.188,-0.24 3.677,-0.15 5.499,1.844 0.855,0.943 0.136,1.276 -0.322,1.006 -1.468,-0.88 -1.771,-0.672 -2.24,-0.762 -1.593,-0.312 -2.728,0.939 -2.728,0.939 z"
     id="path927" />
  <path
     style="fill:#231f20;fill-opacity:1;fill-rule:nonzero;stroke:none"
     d="m 141.761,108.734 c -0.204,-1.161 0.578,-2.265 1.739,-2.469 1.161,-0.198 2.267,0.578 2.464,1.74 0.203,1.156 -0.573,2.26 -1.735,2.464 -1.161,0.202 -2.265,-0.574 -2.468,-1.735"
     id="path928" />
  <path
     style="fill:#231f20;fill-opacity:1;fill-rule:nonzero;stroke:none"
     d="m 144.849,110.515 c 0.38,0.511 0.246,2.459 0.751,3.984 0.343,1.032 0.072,3.76 0.489,4.755 0.386,0.923 0.474,1.381 -0.5,1.996 -0.578,0.364 -1.922,0.697 -2.213,0.281 -0.688,-0.974 -0.885,-1.901 -0.885,-2.969 0,-1.219 0.29,-4.516 0.4,-5.12 0.281,-1.495 -0.063,-2.145 -0.026,-2.552 0.068,-0.755 0.375,-0.916 0.875,-0.979 0.953,-0.125 1.109,0.604 1.109,0.604"
     id="path929" />
  <path
     style="fill:none;stroke:#231f20;stroke-width:0.565977;stroke-linecap:butt;stroke-linejoin:miter;stroke-miterlimit:4;stroke-dasharray:none;stroke-opacity:1"
     d="m 144.849,110.515 c 0.38,0.511 0.246,2.459 0.751,3.984 0.343,1.032 0.072,3.76 0.489,4.755 0.386,0.923 0.474,1.381 -0.5,1.996 -0.578,0.364 -1.922,0.697 -2.213,0.281 -0.688,-0.974 -0.885,-1.901 -0.885,-2.969 0,-1.219 0.29,-4.516 0.4,-5.12 0.281,-1.495 -0.063,-2.145 -0.026,-2.552 0.068,-0.755 0.375,-0.916 0.875,-0.979 0.953,-0.125 1.109,0.604 1.109,0.604 z"
     id="path930" />
  <path
     style="fill:#231f20;fill-opacity:1;fill-rule:nonzero;stroke:none"
     d="m 145.48,119.551 c 1.301,0.052 0.844,2.042 0.807,2.574 -0.042,0.546 0.026,2.098 0.234,3.306 0.203,1.21 -0.057,2.798 0.334,5.1 0.208,1.198 -0.36,2.5 -2.12,2.723 -1.744,0.22 -2.52,-0.676 -2.552,-2.176 -0.026,-1.495 0.584,-2.912 0.661,-4.417 0.079,-1.511 0.016,-3.058 -0.088,-4.271 -0.12,-1.375 0.333,-2.104 0.755,-2.317 1.057,-0.568 1.969,-0.522 1.969,-0.522"
     id="path931" />
  <path
     style="fill:none;stroke:#231f20;stroke-width:0.565977;stroke-linecap:butt;stroke-linejoin:miter;stroke-miterlimit:4;stroke-dasharray:none;stroke-opacity:1"
     d="m 145.48,119.551 c 1.301,0.052 0.844,2.042 0.807,2.574 -0.042,0.546 0.026,2.098 0.234,3.306 0.203,1.21 -0.057,2.798 0.334,5.1 0.208,1.198 -0.36,2.5 -2.12,2.723 -1.744,0.22 -2.52,-0.676 -2.552,-2.176 -0.026,-1.495 0.584,-2.912 0.661,-4.417 0.079,-1.511 0.016,-3.058 -0.088,-4.271 -0.12,-1.375 0.333,-2.104 0.755,-2.317 1.057,-0.568 1.969,-0.522 1.969,-0.522 z"
     id="path932" />
  <path
     style="fill:#ffffff;fill-opacity:1;fill-rule:nonzero;stroke:none"
     d="m 188.396,133.39 c -0.088,0.235 -1.235,0.104 -1.328,0.62 -0.099,0.521 0.625,0.855 1.131,2.771 v 0.021 c 0.328,1.421 1.182,2.52 2.39,2.848 2.011,0.543 4.23,-1.233 4.968,-3.952 0.74,-2.735 -0.296,-5.381 -2.301,-5.923 -1.912,-0.521 -4.037,1.084 -4.86,3.615"
     id="path933" />
  <path
     style="fill:none;stroke:#231f20;stroke-width:0.565977;stroke-linecap:butt;stroke-linejoin:miter;stroke-miterlimit:4;stroke-dasharray:none;stroke-opacity:1"
     d="m 188.396,133.39 c -0.088,0.235 -1.235,0.104 -1.328,0.62 -0.099,0.521 0.625,0.855 1.131,2.771 v 0.021 c 0.328,1.421 1.182,2.52 2.39,2.848 2.011,0.543 4.23,-1.233 4.968,-3.952 0.74,-2.735 -0.296,-5.381 -2.301,-5.923 -1.912,-0.521 -4.037,1.084 -4.86,3.615 z"
     id="path934" />
  <path
     style="fill:#231f20;fill-opacity:1;fill-rule:nonzero;stroke:none"
     d="m 193.215,116.515 c 1.224,-0.422 1.525,1.594 1.681,2.104 0.156,0.526 0.781,1.954 1.412,2.995 0.629,1.057 0.963,2.64 2.151,4.636 0.63,1.047 0.573,2.468 -0.99,3.312 -1.546,0.833 -2.598,0.276 -3.161,-1.109 -0.568,-1.38 -0.511,-2.922 -0.984,-4.36 -0.469,-1.438 -1.084,-2.859 -1.625,-3.948 -0.61,-1.239 -0.454,-2.078 -0.136,-2.438 0.781,-0.905 1.652,-1.192 1.652,-1.192"
     id="path935" />
  <path
     style="fill:none;stroke:#231f20;stroke-width:0.565977;stroke-linecap:butt;stroke-linejoin:miter;stroke-miterlimit:4;stroke-dasharray:none;stroke-opacity:1"
     d="m 193.215,116.515 c 1.224,-0.422 1.525,1.594 1.681,2.104 0.156,0.526 0.781,1.954 1.412,2.995 0.629,1.057 0.963,2.64 2.151,4.636 0.63,1.047 0.573,2.468 -0.99,3.312 -1.546,0.833 -2.598,0.276 -3.161,-1.109 -0.568,-1.38 -0.511,-2.922 -0.984,-4.36 -0.469,-1.438 -1.084,-2.859 -1.625,-3.948 -0.61,-1.239 -0.454,-2.078 -0.136,-2.438 0.781,-0.905 1.652,-1.192 1.652,-1.192 z"
     id="path936" />
  <path
     style="fill:#231f20;fill-opacity:1;fill-rule:nonzero;stroke:none"
     d="m 189.355,108.317 c 0.541,0.338 1.12,2.204 2.14,3.442 0.693,0.839 1.428,3.48 2.182,4.262 0.683,0.718 0.932,1.114 0.251,2.036 -0.407,0.552 -1.543,1.349 -1.969,1.062 -0.984,-0.661 -1.511,-1.453 -1.891,-2.448 -0.443,-1.136 -1.359,-4.312 -1.479,-4.916 -0.276,-1.496 -0.833,-1.98 -0.948,-2.37 -0.208,-0.735 0.02,-0.99 0.459,-1.235 0.848,-0.457 1.255,0.167 1.255,0.167"
     id="path937" />
  <path
     style="fill:none;stroke:#231f20;stroke-width:0.565977;stroke-linecap:butt;stroke-linejoin:miter;stroke-miterlimit:4;stroke-dasharray:none;stroke-opacity:1"
     d="m 189.355,108.317 c 0.541,0.338 1.12,2.204 2.14,3.442 0.693,0.839 1.428,3.48 2.182,4.262 0.683,0.718 0.932,1.114 0.251,2.036 -0.407,0.552 -1.543,1.349 -1.969,1.062 -0.984,-0.661 -1.511,-1.453 -1.891,-2.448 -0.443,-1.136 -1.359,-4.312 -1.479,-4.916 -0.276,-1.496 -0.833,-1.98 -0.948,-2.37 -0.208,-0.735 0.02,-0.99 0.459,-1.235 0.848,-0.457 1.255,0.167 1.255,0.167 z"
     id="path938" />
  <path
     style="fill:#231f20;fill-opacity:1;fill-rule:nonzero;stroke:none"
     d="m 186.527,107.307 c 0.598,-1.016 1.906,-1.349 2.921,-0.745 1.016,0.593 1.349,1.907 0.751,2.921 -0.599,1.011 -1.907,1.35 -2.923,0.746 -1.015,-0.599 -1.348,-1.907 -0.749,-2.922"
     id="path939" />
  <path
     style="fill:#63c99d;fill-opacity:1;fill-rule:nonzero;stroke:none"
     d="m 241.548,94.76 c 1.291,2.854 1.26,3.614 1.28,4.537 0.136,5.776 2.969,5.604 5.333,3.953 2.787,-1.928 3.824,-2.573 0.694,-8.026 -0.88,-1.526 -3.459,-7.782 -3.459,-7.782 -0.624,-2.369 -2.489,-4.349 -3.927,-4.598 -1.516,-0.251 -0.932,-0.042 -2.38,-0.027 -1.37,0.016 -3.245,1.141 -3.442,2.365 -0.194,1.172 1.082,2.24 2.718,4.026 1.292,1.412 3.183,5.552 3.183,5.552"
     id="path940" />
  <path
     style="fill:none;stroke:#231f20;stroke-width:0.565977;stroke-linecap:butt;stroke-linejoin:miter;stroke-miterlimit:4;stroke-dasharray:none;stroke-opacity:1"
     d="m 241.548,94.76 c 1.291,2.854 1.26,3.614 1.28,4.537 0.136,5.776 2.969,5.604 5.333,3.953 2.787,-1.928 3.824,-2.573 0.694,-8.026 -0.88,-1.526 -3.459,-7.782 -3.459,-7.782 -0.624,-2.369 -2.489,-4.349 -3.927,-4.598 -1.516,-0.251 -0.932,-0.042 -2.38,-0.027 -1.37,0.016 -3.245,1.141 -3.442,2.365 -0.194,1.172 1.082,2.24 2.718,4.026 1.292,1.412 3.183,5.552 3.183,5.552 z"
     id="path941" />
  <path
     style="fill:#ffffff;fill-opacity:1;fill-rule:nonzero;stroke:none"
     d="m 239.876,75.912 c -0.1,-0.219 0.785,-0.954 0.489,-1.38 -0.302,-0.434 -1.046,-0.152 -2.776,-1.131 l -0.021,-0.011 c -1.24,-0.76 -2.62,-0.921 -3.697,-0.281 -1.792,1.057 -2.079,3.88 -0.647,6.317 1.443,2.434 4.057,3.548 5.844,2.491 1.713,-1.005 2.052,-3.647 0.808,-6.005"
     id="path942" />
  <path
     style="fill:none;stroke:#231f20;stroke-width:0.565977;stroke-linecap:butt;stroke-linejoin:miter;stroke-miterlimit:4;stroke-dasharray:none;stroke-opacity:1"
     d="m 239.876,75.912 c -0.1,-0.219 0.785,-0.954 0.489,-1.38 -0.302,-0.434 -1.046,-0.152 -2.776,-1.131 l -0.021,-0.011 c -1.24,-0.76 -2.62,-0.921 -3.697,-0.281 -1.792,1.057 -2.079,3.88 -0.647,6.317 1.443,2.434 4.057,3.548 5.844,2.491 1.713,-1.005 2.052,-3.647 0.808,-6.005 z"
     id="path943" />
  <path
     style="fill:#231f20;fill-opacity:1;fill-rule:nonzero;stroke:none"
     d="m 242.125,107.333 c -0.473,-0.432 -0.708,-2.37 -1.489,-3.771 -0.536,-0.948 -0.787,-3.682 -1.38,-4.584 -0.552,-0.828 -0.724,-1.26 0.115,-2.046 0.494,-0.474 1.754,-1.052 2.12,-0.698 0.858,0.828 1.228,1.698 1.426,2.75 0.235,1.193 0.568,4.49 0.574,5.099 0.009,1.52 0.468,2.099 0.509,2.5 0.079,0.76 -0.197,0.974 -0.672,1.135 -0.911,0.297 -1.203,-0.385 -1.203,-0.385"
     id="path944" />
  <path
     style="fill:none;stroke:#231f20;stroke-width:0.565977;stroke-linecap:butt;stroke-linejoin:miter;stroke-miterlimit:4;stroke-dasharray:none;stroke-opacity:1"
     d="m 242.125,107.333 c -0.473,-0.432 -0.708,-2.37 -1.489,-3.771 -0.536,-0.948 -0.787,-3.682 -1.38,-4.584 -0.552,-0.828 -0.724,-1.26 0.115,-2.046 0.494,-0.474 1.754,-1.052 2.12,-0.698 0.858,0.828 1.228,1.698 1.426,2.75 0.235,1.193 0.568,4.49 0.574,5.099 0.009,1.52 0.468,2.099 0.509,2.5 0.079,0.76 -0.197,0.974 -0.672,1.135 -0.911,0.297 -1.203,-0.385 -1.203,-0.385 z"
     id="path945" />
  <path
     style="fill:#231f20;fill-opacity:1;fill-rule:nonzero;stroke:none"
     d="m 239.792,98.578 c -1.281,0.192 -1.213,-1.844 -1.276,-2.376 -0.063,-0.541 -0.421,-2.061 -0.855,-3.202 -0.432,-1.151 -0.478,-2.766 -1.29,-4.943 -0.428,-1.145 -0.12,-2.531 1.566,-3.079 1.672,-0.546 2.611,0.194 2.918,1.658 0.312,1.457 -0.022,2.968 0.188,4.462 0.208,1.495 0.557,3.006 0.89,4.172 0.38,1.328 0.072,2.131 -0.302,2.428 -0.927,0.75 -1.839,0.88 -1.839,0.88"
     id="path946" />
  <path
     style="fill:none;stroke:#231f20;stroke-width:0.565977;stroke-linecap:butt;stroke-linejoin:miter;stroke-miterlimit:4;stroke-dasharray:none;stroke-opacity:1"
     d="m 239.792,98.578 c -1.281,0.192 -1.213,-1.844 -1.276,-2.376 -0.063,-0.541 -0.421,-2.061 -0.855,-3.202 -0.432,-1.151 -0.478,-2.766 -1.29,-4.943 -0.428,-1.145 -0.12,-2.531 1.566,-3.079 1.672,-0.546 2.611,0.194 2.918,1.658 0.312,1.457 -0.022,2.968 0.188,4.462 0.208,1.495 0.557,3.006 0.89,4.172 0.38,1.328 0.072,2.131 -0.302,2.428 -0.927,0.75 -1.839,0.88 -1.839,0.88 z"
     id="path947" />
  <path
     style="fill:#231f20;fill-opacity:1;fill-rule:nonzero;stroke:none"
     d="m 258.521,87.202 c 1.466,1.724 1.986,1.86 2.756,1.282 0.51,-0.386 1.12,-0.558 1.44,-0.776 1.07,-0.724 2.59,-2.396 5.64,-8.23 0.69,-1.322 1.67,-3.17 2.13,-3.894 0.73,-1.142 -1.67,-1.584 -1.96,-1.131 -0.93,1.437 -1.7,2.344 -2.1,2.812 -0.28,0.323 -0.7,0.964 -1.95,2.068 -1.88,1.683 -3.26,2.407 -4.67,3.989 -0.66,0.74 -1.608,0.871 -1.879,1.918 -0.292,1.052 0.593,1.962 0.593,1.962"
     id="path948" />
  <path
     style="fill:none;stroke:#231f20;stroke-width:0.565977;stroke-linecap:butt;stroke-linejoin:miter;stroke-miterlimit:4;stroke-dasharray:none;stroke-opacity:1"
     d="m 258.521,87.202 c 1.466,1.724 1.986,1.86 2.756,1.282 0.51,-0.386 1.12,-0.558 1.44,-0.776 1.07,-0.724 2.59,-2.396 5.64,-8.23 0.69,-1.322 1.67,-3.17 2.13,-3.894 0.73,-1.142 -1.67,-1.584 -1.96,-1.131 -0.93,1.437 -1.7,2.344 -2.1,2.812 -0.28,0.323 -0.7,0.964 -1.95,2.068 -1.88,1.683 -3.26,2.407 -4.67,3.989 -0.66,0.74 -1.608,0.871 -1.879,1.918 -0.292,1.052 0.593,1.962 0.593,1.962 z"
     id="path949" />
  <path
     style="fill:#231f20;fill-opacity:1;fill-rule:nonzero;stroke:#231f20;stroke-width:0.565977;stroke-linecap:round;stroke-linejoin:round;stroke-miterlimit:4;stroke-dasharray:none;stroke-opacity:1"
     d="m 258.824,84.724 c -1.417,-0.104 -2.459,1.781 -2.735,1.969 -4.089,2.905 -4.308,3.219 -7.261,5.64 -4.276,3.516 -6.661,6.573 -5.348,9.65 0.901,2.095 2.312,2.907 3.635,2.876 1.458,-0.042 4.24,-1.573 4.406,-4.464 l 0.99,-1.401 c 0.781,-0.858 1.161,-1.281 1.584,-1.682 0.738,-0.676 1.478,-1.452 2.833,-2.87 2.409,-2.51 4.119,-5.942 4.119,-5.942 0.21,-0.224 0.3,-0.495 0.31,-0.76"
     id="path950" />
  <path
     style="fill:#63c99d;fill-opacity:1;fill-rule:nonzero;stroke:#231f20;stroke-width:0.565977;stroke-linecap:butt;stroke-linejoin:miter;stroke-miterlimit:4;stroke-dasharray:none;stroke-opacity:1"
     d="m 246.527,94.39 c -0.49,0.443 -0.918,0.88 -1.312,1.318 -0.068,0.037 -0.136,0.073 -0.199,0.1 -0.76,0.285 -0.964,0.869 -1.244,1.864 -0.761,1.364 -0.975,2.713 -0.444,4.093 0.813,2.114 2.199,2.99 3.516,3.01 1.464,0.016 4.297,-1.416 4.579,-4.292 z"
     id="path951" />
  <path
     style="fill:#231f20;fill-opacity:1;fill-rule:nonzero;stroke:none"
     d="m 272.137,73.854 c 0.23,1.328 -0.63,1.839 -1.64,1.667 -0.31,-0.052 -0.63,0.224 -0.92,0.145 -0.68,-0.177 -1.52,-1.697 -0.43,-2.724 0.08,-0.077 0.48,-0.786 0.87,-1.27 0.75,-0.954 2.72,-2.49 5.39,-2.136 1.27,0.166 0.94,0.881 0.41,0.969 -1.69,0.276 -1.79,0.636 -2.2,0.869 -1.42,0.792 -1.48,2.48 -1.48,2.48"
     id="path952" />
  <path
     style="fill:none;stroke:#231f20;stroke-width:0.332927;stroke-linecap:butt;stroke-linejoin:miter;stroke-miterlimit:4;stroke-dasharray:none;stroke-opacity:1"
     d="m 272.137,73.854 c 0.23,1.328 -0.63,1.839 -1.64,1.667 -0.31,-0.052 -0.63,0.224 -0.92,0.145 -0.68,-0.177 -1.52,-1.697 -0.43,-2.724 0.08,-0.077 0.48,-0.786 0.87,-1.27 0.75,-0.954 2.72,-2.49 5.39,-2.136 1.27,0.166 0.94,0.881 0.41,0.969 -1.69,0.276 -1.79,0.636 -2.2,0.869 -1.42,0.792 -1.48,2.48 -1.48,2.48 z"
     id="path953" />
  <path
     style="fill:#231f20;fill-opacity:1;fill-rule:nonzero;stroke:none"
     d="m 246.115,107.458 c 0.417,1.104 -0.135,2.333 -1.234,2.749 -1.105,0.423 -2.338,-0.134 -2.756,-1.233 -0.416,-1.105 0.142,-2.333 1.24,-2.756 1.104,-0.411 2.334,0.141 2.75,1.24"
     id="path954" />
  <path
     style="fill:#63c99d;fill-opacity:1;fill-rule:nonzero;stroke:none"
     d="m 306.607,92.74 c 2.33,2.082 2.61,2.792 3,3.625 2.46,5.228 4.98,3.926 6.48,1.463 1.76,-2.891 2.46,-3.902 -2.61,-7.626 -1.42,-1.036 -6.32,-5.718 -6.32,-5.718 -1.53,-1.916 -4.03,-2.968 -5.44,-2.615 -1.49,0.381 -0.88,0.339 -2.19,0.933 -1.25,0.572 -2.51,2.359 -2.2,3.558 0.3,1.15 1.9,1.614 4.12,2.582 1.75,0.771 5.16,3.798 5.16,3.798"
     id="path955" />
  <path
     style="fill:none;stroke:#231f20;stroke-width:0.565977;stroke-linecap:butt;stroke-linejoin:miter;stroke-miterlimit:4;stroke-dasharray:none;stroke-opacity:1"
     d="m 306.607,92.74 c 2.33,2.082 2.61,2.792 3,3.625 2.46,5.228 4.98,3.926 6.48,1.463 1.76,-2.891 2.46,-3.902 -2.61,-7.626 -1.42,-1.036 -6.32,-5.718 -6.32,-5.718 -1.53,-1.916 -4.03,-2.968 -5.44,-2.615 -1.49,0.381 -0.88,0.339 -2.19,0.933 -1.25,0.572 -2.51,2.359 -2.2,3.558 0.3,1.15 1.9,1.614 4.12,2.582 1.75,0.771 5.16,3.798 5.16,3.798 z"
     id="path956" />
  <path
     style="fill:#ffffff;fill-opacity:1;fill-rule:nonzero;stroke:none"
     d="m 297.457,76.172 c -0.19,-0.162 0.33,-1.194 -0.12,-1.459 -0.45,-0.271 -1.01,0.287 -2.99,0.089 l -0.02,-0.005 c -1.45,-0.193 -2.78,0.224 -3.5,1.239 -1.21,1.693 -0.33,4.39 1.96,6.037 2.31,1.645 5.15,1.609 6.36,-0.084 1.16,-1.609 0.4,-4.161 -1.69,-5.817"
     id="path957" />
  <path
     style="fill:none;stroke:#231f20;stroke-width:0.565977;stroke-linecap:butt;stroke-linejoin:miter;stroke-miterlimit:4;stroke-dasharray:none;stroke-opacity:1"
     d="m 297.457,76.172 c -0.19,-0.162 0.33,-1.194 -0.12,-1.459 -0.45,-0.271 -1.01,0.287 -2.99,0.089 l -0.02,-0.005 c -1.45,-0.193 -2.78,0.224 -3.5,1.239 -1.21,1.693 -0.33,4.39 1.96,6.037 2.31,1.645 5.15,1.609 6.36,-0.084 1.16,-1.609 0.4,-4.161 -1.69,-5.817 z"
     id="path958" />
  <path
     style="fill:#231f20;fill-opacity:1;fill-rule:nonzero;stroke:none"
     d="m 296.197,107.051 c -0.29,-0.577 0.22,-2.464 0.02,-4.052 -0.15,-1.078 0.64,-3.707 0.42,-4.77 -0.2,-0.969 -0.2,-1.437 0.87,-1.855 0.63,-0.254 2.02,-0.322 2.23,0.147 0.48,1.083 0.5,2.031 0.3,3.077 -0.23,1.199 -1.15,4.376 -1.37,4.948 -0.56,1.417 -0.34,2.12 -0.45,2.511 -0.21,0.734 -0.55,0.833 -1.05,0.802 -0.96,-0.062 -0.97,-0.808 -0.97,-0.808"
     id="path959" />
  <path
     style="fill:none;stroke:#231f20;stroke-width:0.565977;stroke-linecap:butt;stroke-linejoin:miter;stroke-miterlimit:4;stroke-dasharray:none;stroke-opacity:1"
     d="m 296.197,107.051 c -0.29,-0.577 0.22,-2.464 0.02,-4.052 -0.15,-1.078 0.64,-3.707 0.42,-4.77 -0.2,-0.969 -0.2,-1.437 0.87,-1.855 0.63,-0.254 2.02,-0.322 2.23,0.147 0.48,1.083 0.5,2.031 0.3,3.077 -0.23,1.199 -1.15,4.376 -1.37,4.948 -0.56,1.417 -0.34,2.12 -0.45,2.511 -0.21,0.734 -0.55,0.833 -1.05,0.802 -0.96,-0.062 -0.97,-0.808 -0.97,-0.808 z"
     id="path960" />
  <path
     style="fill:#231f20;fill-opacity:1;fill-rule:nonzero;stroke:none"
     d="m 297.287,98.057 c -1.26,-0.297 -0.44,-2.161 -0.3,-2.677 0.14,-0.526 0.37,-2.068 0.39,-3.291 0.03,-1.224 0.59,-2.74 0.64,-5.063 0.03,-1.224 0.84,-2.396 2.61,-2.276 1.75,0.115 2.35,1.146 2.09,2.619 -0.26,1.475 -1.13,2.751 -1.49,4.215 -0.36,1.468 -0.6,2.994 -0.73,4.202 -0.14,1.375 -0.72,2.006 -1.18,2.14 -1.14,0.355 -2.03,0.131 -2.03,0.131"
     id="path961" />
  <path
     style="fill:none;stroke:#231f20;stroke-width:0.565977;stroke-linecap:butt;stroke-linejoin:miter;stroke-miterlimit:4;stroke-dasharray:none;stroke-opacity:1"
     d="m 297.287,98.057 c -1.26,-0.297 -0.44,-2.161 -0.3,-2.677 0.14,-0.526 0.37,-2.068 0.39,-3.291 0.03,-1.224 0.59,-2.74 0.64,-5.063 0.03,-1.224 0.84,-2.396 2.61,-2.276 1.75,0.115 2.35,1.146 2.09,2.619 -0.26,1.475 -1.13,2.751 -1.49,4.215 -0.36,1.468 -0.6,2.994 -0.73,4.202 -0.14,1.375 -0.72,2.006 -1.18,2.14 -1.14,0.355 -2.03,0.131 -2.03,0.131 z"
     id="path962" />
  <path
     style="fill:#231f20;fill-opacity:1;fill-rule:nonzero;stroke:none"
     d="m 331.507,92.093 c 0.12,2.267 0.45,2.688 1.42,2.699 0.64,0 1.22,0.229 1.6,0.254 1.3,0.074 3.52,-0.333 9.48,-3.12 1.35,-0.634 3.25,-1.504 4.06,-1.801 1.27,-0.469 -0.36,-2.271 -0.87,-2.089 -1.62,0.573 -2.77,0.833 -3.38,0.958 -0.42,0.09 -1.13,0.344 -2.8,0.464 -2.52,0.192 -4.06,-0.068 -6.13,0.334 -0.97,0.186 -1.81,-0.287 -2.66,0.38 -0.87,0.661 -0.72,1.921 -0.72,1.921"
     id="path963" />
  <path
     style="fill:none;stroke:#231f20;stroke-width:0.565977;stroke-linecap:butt;stroke-linejoin:miter;stroke-miterlimit:4;stroke-dasharray:none;stroke-opacity:1"
     d="m 331.507,92.093 c 0.12,2.267 0.45,2.688 1.42,2.699 0.64,0 1.22,0.229 1.6,0.254 1.3,0.074 3.52,-0.333 9.48,-3.12 1.35,-0.634 3.25,-1.504 4.06,-1.801 1.27,-0.469 -0.36,-2.271 -0.87,-2.089 -1.62,0.573 -2.77,0.833 -3.38,0.958 -0.42,0.09 -1.13,0.344 -2.8,0.464 -2.52,0.192 -4.06,-0.068 -6.13,0.334 -0.97,0.186 -1.81,-0.287 -2.66,0.38 -0.87,0.661 -0.72,1.921 -0.72,1.921 z"
     id="path964" />
  <path
     style="fill:#231f20;fill-opacity:1;fill-rule:nonzero;stroke:#231f20;stroke-width:0.565977;stroke-linecap:round;stroke-linejoin:round;stroke-miterlimit:4;stroke-dasharray:none;stroke-opacity:1"
     d="m 333.247,90.308 c -1.06,-0.943 -3.03,-0.079 -3.37,-0.095 -5.01,-0.167 -5.37,-0.052 -9.19,0.079 -5.53,0.197 -9.28,1.177 -10.11,4.421 -0.55,2.208 0.08,3.713 1.15,4.489 1.18,0.855 4.32,1.324 6.21,-0.874 l 1.64,-0.511 c 1.14,-0.208 1.7,-0.312 2.28,-0.375 0.99,-0.088 2.05,-0.26 3.99,-0.562 3.43,-0.531 6.88,-2.219 6.88,-2.219 0.31,-0.052 0.54,-0.213 0.71,-0.421"
     id="path965" />
  <path
     style="fill:#63c99d;fill-opacity:1;fill-rule:nonzero;stroke:#231f20;stroke-width:0.565977;stroke-linecap:butt;stroke-linejoin:miter;stroke-miterlimit:4;stroke-dasharray:none;stroke-opacity:1"
     d="m 317.607,90.526 c -0.65,0.058 -1.26,0.146 -1.84,0.25 -0.07,-0.011 -0.15,-0.02 -0.22,-0.042 -0.78,-0.234 -1.29,0.11 -2.12,0.73 -1.43,0.625 -2.42,1.568 -2.83,2.984 -0.64,2.177 -0.07,3.713 0.97,4.526 1.15,0.9 4.27,1.484 6.24,-0.63 z"
     id="path966" />
  <path
     style="fill:#231f20;fill-opacity:1;fill-rule:nonzero;stroke:none"
     d="m 350.427,89.75 c -0.62,1.198 -1.61,1.083 -2.31,0.328 -0.22,-0.229 -0.64,-0.204 -0.82,-0.437 -0.44,-0.552 -0.18,-2.276 1.31,-2.428 0.11,-0.015 0.86,-0.333 1.46,-0.484 1.18,-0.297 3.68,-0.328 5.58,1.573 0.91,0.906 0.21,1.271 -0.26,1.02 -1.52,-0.806 -1.8,-0.577 -2.28,-0.645 -1.61,-0.229 -2.68,1.073 -2.68,1.073"
     id="path967" />
  <path
     style="fill:none;stroke:#231f20;stroke-width:0.332927;stroke-linecap:butt;stroke-linejoin:miter;stroke-miterlimit:4;stroke-dasharray:none;stroke-opacity:1"
     d="m 350.427,89.75 c -0.62,1.198 -1.61,1.083 -2.31,0.328 -0.22,-0.229 -0.64,-0.204 -0.82,-0.437 -0.44,-0.552 -0.18,-2.276 1.31,-2.428 0.11,-0.015 0.86,-0.333 1.46,-0.484 1.18,-0.297 3.68,-0.328 5.58,1.573 0.91,0.906 0.21,1.271 -0.26,1.02 -1.52,-0.806 -1.8,-0.577 -2.28,-0.645 -1.61,-0.229 -2.68,1.073 -2.68,1.073 z"
     id="path968" />
  <path
     style="fill:#231f20;fill-opacity:1;fill-rule:nonzero;stroke:none"
     d="m 299.857,108.655 c -0.03,1.183 -1,2.115 -2.18,2.095 -1.18,-0.021 -2.11,-0.995 -2.09,-2.172 0.02,-1.177 1,-2.115 2.17,-2.095 1.18,0.022 2.12,0.995 2.1,2.172"
     id="path969" />
</svg>
