<?xml version="1.0" encoding="UTF-8" standalone="no"?>
<!-- Created with Inkscape (http://www.inkscape.org/) -->

<svg
   version="1.1"
   id="svg1"
   width="349.25833"
   height="149.26076"
   viewBox="0 0 349.25832 149.26076"
   sodipodi:docname="cell.svg"
   xmlns:inkscape="http://www.inkscape.org/namespaces/inkscape"
   xmlns:sodipodi="http://sodipodi.sourceforge.net/DTD/sodipodi-0.dtd"
   xmlns="http://www.w3.org/2000/svg"
   xmlns:svg="http://www.w3.org/2000/svg">
  <sodipodi:namedview
     id="namedview1"
     pagecolor="#ffffff"
     bordercolor="#000000"
     borderopacity="0.25"
     inkscape:showpageshadow="2"
     inkscape:pageopacity="0.0"
     inkscape:pagecheckerboard="0"
     inkscape:deskcolor="#d1d1d1">
    <inkscape:page
       x="4.9382667e-09"
       y="0"
       inkscape:label="1"
       id="page1"
       width="349.25833"
       height="149.26076"
       margin="0"
       bleed="0" />
  </sodipodi:namedview>
  <defs
     id="defs1" />
  <path
     style="fill:#63c99d;fill-opacity:1;fill-rule:nonzero;stroke:none"
     d="m 185.01543,98.419358 c 1.697,2.634992 1.776,3.385992 1.932,4.295992 0.984,5.699 3.76,5.11 5.853,3.131 2.475,-2.323 3.407,-3.104 -0.489,-8.046992 -1.094,-1.376 -4.563,-7.182 -4.563,-7.182 -0.968,-2.26 -3.104,-3.932 -4.561,-3.97 -1.538,-0.03 -0.934,0.095 -2.355,0.324 -1.365,0.214 -3.047,1.604 -3.068,2.839 -0.016,1.192 1.401,2.061 3.287,3.588 1.484,1.203 3.964,5.021 3.964,5.021"
     id="path4" />
  <path
     style="fill:none;stroke:#231f20;stroke-width:0.565977;stroke-linecap:butt;stroke-linejoin:miter;stroke-miterlimit:4;stroke-dasharray:none;stroke-opacity:1"
     d="m 185.01543,98.419358 c 1.697,2.634992 1.776,3.385992 1.932,4.295992 0.984,5.699 3.76,5.11 5.853,3.131 2.475,-2.323 3.407,-3.104 -0.489,-8.046992 -1.094,-1.376 -4.563,-7.182 -4.563,-7.182 -0.968,-2.26 -3.104,-3.932 -4.561,-3.97 -1.538,-0.03 -0.934,0.095 -2.355,0.324 -1.365,0.214 -3.047,1.604 -3.068,2.839 -0.016,1.192 1.401,2.061 3.287,3.588 1.484,1.203 3.964,5.021 3.964,5.021 z"
     id="path5" />
  <path
     style="fill:#ffffff;fill-opacity:1;fill-rule:nonzero;stroke:none"
     d="m 182.16543,81.461358 c 0.022,-0.251 1.156,-0.448 1.099,-0.97 -0.052,-0.525 -0.833,-0.64 -1.859,-2.344 l -0.01,-0.014 c -0.708,-1.271 -1.839,-2.084 -3.09,-2.063 -2.077,0.047 -3.713,2.375 -3.656,5.192 0.063,2.828 1.798,5.073 3.875,5.037 1.985,-0.042 3.568,-2.182 3.641,-4.838"
     id="path6" />
  <path
     style="fill:none;stroke:#231f20;stroke-width:0.565977;stroke-linecap:butt;stroke-linejoin:miter;stroke-miterlimit:4;stroke-dasharray:none;stroke-opacity:1"
     d="m 182.16543,81.461358 c 0.022,-0.251 1.156,-0.448 1.099,-0.97 -0.052,-0.525 -0.833,-0.64 -1.859,-2.344 l -0.01,-0.014 c -0.708,-1.271 -1.839,-2.084 -3.09,-2.063 -2.077,0.047 -3.713,2.375 -3.656,5.192 0.063,2.828 1.798,5.073 3.875,5.037 1.985,-0.042 3.568,-2.182 3.641,-4.838 z"
     id="path7" />
  <path
     style="fill:#231f20;fill-opacity:1;fill-rule:nonzero;stroke:none"
     d="m 162.92043,80.929358 c 0.626,-0.151 2.355,0.734 3.959,0.87 1.084,0.083 3.489,1.402 4.573,1.406 0.995,0.01 1.453,0.105 1.635,1.24 0.114,0.672 -0.11,2.046 -0.61,2.15 -1.161,0.246 -2.093,0.068 -3.071,-0.353 -1.12,-0.475 -4.043,-2.032 -4.552,-2.371 -1.272,-0.842 -2.006,-0.781 -2.36,-0.968 -0.672,-0.36 -0.703,-0.708 -0.568,-1.193 0.261,-0.921 0.994,-0.781 0.994,-0.781"
     id="path8" />
  <path
     style="fill:none;stroke:#231f20;stroke-width:0.565977;stroke-linecap:butt;stroke-linejoin:miter;stroke-miterlimit:4;stroke-dasharray:none;stroke-opacity:1"
     d="m 162.92043,80.929358 c 0.626,-0.151 2.355,0.734 3.959,0.87 1.084,0.083 3.489,1.402 4.573,1.406 0.995,0.01 1.453,0.105 1.635,1.24 0.114,0.672 -0.11,2.046 -0.61,2.15 -1.161,0.246 -2.093,0.068 -3.071,-0.353 -1.12,-0.475 -4.043,-2.032 -4.552,-2.371 -1.272,-0.842 -2.006,-0.781 -2.36,-0.968 -0.672,-0.36 -0.703,-0.708 -0.568,-1.193 0.261,-0.921 0.994,-0.781 0.994,-0.781 z"
     id="path9" />
  <path
     style="fill:#231f20;fill-opacity:1;fill-rule:nonzero;stroke:none"
     d="m 171.48343,83.882358 c 0.557,-1.177 2.208,0.021 2.688,0.265 0.484,0.251 1.937,0.798 3.129,1.079 1.193,0.281 2.557,1.145 4.824,1.688 1.187,0.281 2.167,1.307 1.676,3.015 -0.479,1.693 -1.609,2.057 -2.995,1.494 -1.39,-0.556 -2.452,-1.67 -3.812,-2.337 -1.36,-0.663 -2.806,-1.209 -3.964,-1.589 -1.311,-0.427 -1.806,-1.126 -1.838,-1.604 -0.109,-1.188 0.292,-2.011 0.292,-2.011"
     id="path10" />
  <path
     style="fill:none;stroke:#231f20;stroke-width:0.565977;stroke-linecap:butt;stroke-linejoin:miter;stroke-miterlimit:4;stroke-dasharray:none;stroke-opacity:1"
     d="m 171.48343,83.882358 c 0.557,-1.177 2.208,0.021 2.688,0.265 0.484,0.251 1.937,0.798 3.129,1.079 1.193,0.281 2.557,1.145 4.824,1.688 1.187,0.281 2.167,1.307 1.676,3.015 -0.479,1.693 -1.609,2.057 -2.995,1.494 -1.39,-0.556 -2.452,-1.67 -3.812,-2.337 -1.36,-0.663 -2.806,-1.209 -3.964,-1.589 -1.311,-0.427 -1.806,-1.126 -1.838,-1.604 -0.109,-1.188 0.292,-2.011 0.292,-2.011 z"
     id="path11" />
  <path
     style="fill:#231f20;fill-opacity:1;fill-rule:nonzero;stroke:none"
     d="m 210.49943,108.21535 c -2.058,-0.953 -2.584,-0.858 -3.042,-0.014 -0.313,0.561 -0.781,0.973 -0.985,1.306 -0.676,1.104 -1.353,3.255 -1.692,9.828 -0.073,1.49 -0.199,3.584 -0.317,4.427 -0.178,1.344 2.176,0.745 2.254,0.215 0.25,-1.694 0.568,-2.839 0.74,-3.434 0.12,-0.416 0.23,-1.166 0.906,-2.697 1.01,-2.312 1.964,-3.547 2.584,-5.568 0.292,-0.943 1.104,-1.464 0.91,-2.525 -0.181,-1.074 -1.358,-1.538 -1.358,-1.538"
     id="path12" />
  <path
     style="fill:none;stroke:#231f20;stroke-width:0.565977;stroke-linecap:butt;stroke-linejoin:miter;stroke-miterlimit:4;stroke-dasharray:none;stroke-opacity:1"
     d="m 210.49943,108.21535 c -2.058,-0.953 -2.584,-0.858 -3.042,-0.014 -0.313,0.561 -0.781,0.973 -0.985,1.306 -0.676,1.104 -1.353,3.255 -1.692,9.828 -0.073,1.49 -0.199,3.584 -0.317,4.427 -0.178,1.344 2.176,0.745 2.254,0.215 0.25,-1.694 0.568,-2.839 0.74,-3.434 0.12,-0.416 0.23,-1.166 0.906,-2.697 1.01,-2.312 1.964,-3.547 2.584,-5.568 0.292,-0.943 1.104,-1.464 0.91,-2.525 -0.181,-1.074 -1.358,-1.538 -1.358,-1.538 z"
     id="path13" />
  <path
     style="fill:#231f20;fill-opacity:1;fill-rule:nonzero;stroke:#231f20;stroke-width:0.565977;stroke-linecap:round;stroke-linejoin:round;stroke-miterlimit:4;stroke-dasharray:none;stroke-opacity:1"
     d="m 209.93143,108.10135 c -0.479,-1.334 -2.626,-1.526 -2.911,-1.703 -4.313,-2.563 -4.683,-2.641 -8.095,-4.36 -4.937,-2.494992 -8.697,-3.442992 -10.984,-0.995 -1.552,1.662 -1.729,3.287 -1.166,4.48 0.63,1.323 3.156,3.244 5.864,2.23 l 1.677,0.342 c 1.109,0.371 1.656,0.548 2.183,0.767 0.916,0.4 1.926,0.765 3.77,1.432 3.266,1.187 7.104,1.375 7.104,1.375 0.292,0.098 0.574,0.068 0.823,-0.036"
     id="path14" />
  <path
     style="fill:#63c99d;fill-opacity:1;fill-rule:nonzero;stroke:none"
     d="m 188.07643,100.81435 c -1.604,1.6 -1.848,3.224 -1.328,4.433 0.573,1.339 3.032,3.359 5.772,2.452 l 3.588,-6.942 c -3.437,-1.519992 -6.156,-1.806992 -8.032,0.057"
     id="path15" />
  <path
     style="fill:none;stroke:#231f20;stroke-width:0.565977;stroke-linecap:butt;stroke-linejoin:miter;stroke-miterlimit:4;stroke-dasharray:none;stroke-opacity:1"
     d="m 188.07643,100.81435 c -1.604,1.6 -1.848,3.224 -1.328,4.433 0.573,1.339 3.032,3.359 5.772,2.452 l 3.588,-6.942 c -3.437,-1.519992 -6.156,-1.806992 -8.032,0.057 z"
     id="path16" />
  <path
     style="fill:#231f20;fill-opacity:1;fill-rule:nonzero;stroke:none"
     d="m 203.69143,126.02935 c -0.766,-1.115 -0.198,-1.934 0.802,-2.204 0.298,-0.078 0.47,-0.463 0.766,-0.515 0.693,-0.125 2.094,0.911 1.526,2.301 -0.042,0.094 -0.109,0.912 -0.256,1.516 -0.29,1.178 -1.437,3.396 -4.014,4.192 -1.219,0.376 -1.215,-0.41 -0.767,-0.718 1.417,-0.958 1.355,-1.318 1.636,-1.708 0.953,-1.307 0.307,-2.864 0.307,-2.864"
     id="path17" />
  <path
     style="fill:none;stroke:#231f20;stroke-width:0.332927;stroke-linecap:butt;stroke-linejoin:miter;stroke-miterlimit:4;stroke-dasharray:none;stroke-opacity:1"
     d="m 203.69143,126.02935 c -0.766,-1.115 -0.198,-1.934 0.802,-2.204 0.298,-0.078 0.47,-0.463 0.766,-0.515 0.693,-0.125 2.094,0.911 1.526,2.301 -0.042,0.094 -0.109,0.912 -0.256,1.516 -0.29,1.178 -1.437,3.396 -4.014,4.192 -1.219,0.376 -1.215,-0.41 -0.767,-0.718 1.417,-0.958 1.355,-1.318 1.636,-1.708 0.953,-1.307 0.307,-2.864 0.307,-2.864 z"
     id="path18" />
  <path
     style="fill:#231f20;fill-opacity:1;fill-rule:nonzero;stroke:none"
     d="m 311.54043,100.68535 c -1.296,0.385 -1.907,-0.407 -1.85,-1.442992 0.016,-0.313 -0.29,-0.589 -0.249,-0.891 0.093,-0.698 1.521,-1.708 2.661,-0.734 0.079,0.068 0.834,0.39 1.364,0.713 1.027,0.647 2.778,2.416992 2.73,5.119992 -0.02,1.276 -0.766,1.027 -0.922,0.505 -0.464,-1.645 -0.828,-1.698 -1.114,-2.084 -0.943,-1.317 -2.62,-1.186 -2.62,-1.186"
     id="path19" />
  <path
     style="fill:none;stroke:#231f20;stroke-width:0.332927;stroke-linecap:butt;stroke-linejoin:miter;stroke-miterlimit:4;stroke-dasharray:none;stroke-opacity:1"
     d="m 311.54043,100.68535 c -1.296,0.385 -1.907,-0.407 -1.85,-1.442992 0.016,-0.313 -0.29,-0.589 -0.249,-0.891 0.093,-0.698 1.521,-1.708 2.661,-0.734 0.079,0.068 0.834,0.39 1.364,0.713 1.027,0.647 2.778,2.416992 2.73,5.119992 -0.02,1.276 -0.766,1.027 -0.922,0.505 -0.464,-1.645 -0.828,-1.698 -1.114,-2.084 -0.943,-1.317 -2.62,-1.186 -2.62,-1.186 z"
     id="path20" />
  <path
     style="fill:#63c99d;fill-opacity:1;fill-rule:nonzero;stroke:none"
     d="m 278.93643,70.179358 c 0.479,3.099 0.251,3.818 0.021,4.708 -1.417,5.604 1.359,6.199 4.078,5.24 3.204,-1.114 4.374,-1.458 2.813,-7.552 -0.439,-1.698 -1.251,-8.422 -1.251,-8.422 0.032,-2.448 -1.244,-4.853 -2.562,-5.473 -1.386,-0.651 -0.886,-0.292 -2.276,-0.667 -1.334,-0.355 -3.438,0.235 -3.959,1.359 -0.495,1.073 0.448,2.447 1.553,4.609 0.864,1.704 1.583,6.198 1.583,6.198"
     id="path21" />
  <path
     style="fill:none;stroke:#231f20;stroke-width:0.565977;stroke-linecap:butt;stroke-linejoin:miter;stroke-miterlimit:4;stroke-dasharray:none;stroke-opacity:1"
     d="m 278.93643,70.179358 c 0.479,3.099 0.251,3.818 0.021,4.708 -1.417,5.604 1.359,6.199 4.078,5.24 3.204,-1.114 4.374,-1.458 2.813,-7.552 -0.439,-1.698 -1.251,-8.422 -1.251,-8.422 0.032,-2.448 -1.244,-4.853 -2.562,-5.473 -1.386,-0.651 -0.886,-0.292 -2.276,-0.667 -1.334,-0.355 -3.438,0.235 -3.959,1.359 -0.495,1.073 0.448,2.447 1.553,4.609 0.864,1.704 1.583,6.198 1.583,6.198 z"
     id="path22" />
  <path
     style="fill:#ffffff;fill-opacity:1;fill-rule:nonzero;stroke:none"
     d="m 281.76443,51.800358 c -0.005,-0.246 1.104,-0.579 0.989,-1.09 -0.109,-0.509 -0.9,-0.541 -2.109,-2.12 l -0.015,-0.014 c -0.849,-1.183 -2.057,-1.871 -3.297,-1.704 -2.063,0.276 -3.427,2.772 -3.057,5.562 0.38,2.808 2.354,4.85 4.412,4.579 1.968,-0.26 3.301,-2.563 3.077,-5.213"
     id="path23" />
  <path
     style="fill:none;stroke:#231f20;stroke-width:0.565977;stroke-linecap:butt;stroke-linejoin:miter;stroke-miterlimit:4;stroke-dasharray:none;stroke-opacity:1"
     d="m 281.76443,51.800358 c -0.005,-0.246 1.104,-0.579 0.989,-1.09 -0.109,-0.509 -0.9,-0.541 -2.109,-2.12 l -0.015,-0.014 c -0.849,-1.183 -2.057,-1.871 -3.297,-1.704 -2.063,0.276 -3.427,2.772 -3.057,5.562 0.38,2.808 2.354,4.85 4.412,4.579 1.968,-0.26 3.301,-2.563 3.077,-5.213 z"
     id="path24" />
  <path
     style="fill:#231f20;fill-opacity:1;fill-rule:nonzero;stroke:none"
     d="m 296.86843,88.289358 c -1.541,1.656 -1.62,2.188 -0.953,2.88 0.438,0.469 0.682,1.046 0.933,1.344 0.839,0.984 2.672,2.297 8.812,4.666 1.39,0.526 3.338,1.298 4.109,1.672 1.224,0.594 1.391,-1.833 0.907,-2.078 -1.532,-0.766 -2.522,-1.416 -3.038,-1.766 -0.353,-0.245 -1.03,-0.584 -2.276,-1.697 -1.885,-1.683 -2.759,-2.969 -4.494,-4.193 -0.801,-0.568 -1.047,-1.5 -2.115,-1.646 -1.077,-0.166 -1.885,0.818 -1.885,0.818"
     id="path25" />
  <path
     style="fill:none;stroke:#231f20;stroke-width:0.565977;stroke-linecap:butt;stroke-linejoin:miter;stroke-miterlimit:4;stroke-dasharray:none;stroke-opacity:1"
     d="m 296.86843,88.289358 c -1.541,1.656 -1.62,2.188 -0.953,2.88 0.438,0.469 0.682,1.046 0.933,1.344 0.839,0.984 2.672,2.297 8.812,4.666 1.39,0.526 3.338,1.298 4.109,1.672 1.224,0.594 1.391,-1.833 0.907,-2.078 -1.532,-0.766 -2.522,-1.416 -3.038,-1.766 -0.353,-0.245 -1.03,-0.584 -2.276,-1.697 -1.885,-1.683 -2.759,-2.969 -4.494,-4.193 -0.801,-0.568 -1.047,-1.5 -2.115,-1.646 -1.077,-0.166 -1.885,0.818 -1.885,0.818 z"
     id="path26" />
  <path
     style="fill:#231f20;fill-opacity:1;fill-rule:nonzero;stroke:#231f20;stroke-width:0.565977;stroke-linecap:round;stroke-linejoin:round;stroke-miterlimit:4;stroke-dasharray:none;stroke-opacity:1"
     d="m 299.37343,88.305358 c -0.057,-1.418 -2.052,-2.235 -2.281,-2.491 -3.349,-3.733 -3.683,-3.916 -6.427,-6.572 -3.974,-3.844 -7.281,-5.871 -10.193,-4.213 -1.973,1.124 -2.629,2.629 -2.443,3.932 0.204,1.442 2.047,4.03 4.934,3.874 l 1.504,0.823 c 0.942,0.677 1.412,1.011 1.854,1.38 0.755,0.652 1.615,1.303 3.172,2.491 2.766,2.098 6.375,3.416 6.375,3.416 0.256,0.182 0.532,0.234 0.797,0.213"
     id="path27" />
  <path
     style="fill:#63c99d;fill-opacity:1;fill-rule:nonzero;stroke:none"
     d="m 286.99943,76.153358 c -0.084,-0.104 -0.162,-0.208 -0.214,-0.307 -0.396,-0.776 -1.062,-0.869 -2.245,-1.068 -1.344,-0.5 -2.625,-0.511 -3.859,0.131 -2.016,1.052 -2.724,2.53 -2.594,3.838 0.152,1.454 1.901,4.11 4.786,4.058 l 5.495,-5.563 c -0.463,-0.407 -0.921,-0.761 -1.369,-1.089"
     id="path28" />
  <path
     style="fill:none;stroke:#231f20;stroke-width:0.565977;stroke-linecap:butt;stroke-linejoin:miter;stroke-miterlimit:4;stroke-dasharray:none;stroke-opacity:1"
     d="m 286.99943,76.153358 c -0.084,-0.104 -0.162,-0.208 -0.214,-0.307 -0.396,-0.776 -1.062,-0.869 -2.245,-1.068 -1.344,-0.5 -2.625,-0.511 -3.859,0.131 -2.016,1.052 -2.724,2.53 -2.594,3.838 0.152,1.454 1.901,4.11 4.786,4.058 l 5.495,-5.563 c -0.463,-0.407 -0.921,-0.761 -1.369,-1.089 z"
     id="path29" />
  <path
     style="fill:#231f20;fill-opacity:1;fill-rule:nonzero;stroke:none"
     d="m 280.53543,81.169358 c -0.422,-0.484 -0.432,-2.432 -1.052,-3.916 -0.422,-1 -0.364,-3.74 -0.854,-4.71 -0.453,-0.885 -0.578,-1.333 0.343,-2.02 0.548,-0.412 1.865,-0.844 2.188,-0.448 0.755,0.916 1.027,1.823 1.109,2.891 0.094,1.213 0.052,4.52 -0.01,5.129 -0.162,1.516 0.229,2.142 0.229,2.548 -0.011,0.76 -0.307,0.943 -0.801,1.047 -0.939,0.192 -1.152,-0.521 -1.152,-0.521"
     id="path30" />
  <path
     style="fill:none;stroke:#231f20;stroke-width:0.565977;stroke-linecap:butt;stroke-linejoin:miter;stroke-miterlimit:4;stroke-dasharray:none;stroke-opacity:1"
     d="m 280.53543,81.169358 c -0.422,-0.484 -0.432,-2.432 -1.052,-3.916 -0.422,-1 -0.364,-3.74 -0.854,-4.71 -0.453,-0.885 -0.578,-1.333 0.343,-2.02 0.548,-0.412 1.865,-0.844 2.188,-0.448 0.755,0.916 1.027,1.823 1.109,2.891 0.094,1.213 0.052,4.52 -0.01,5.129 -0.162,1.516 0.229,2.142 0.229,2.548 -0.011,0.76 -0.307,0.943 -0.801,1.047 -0.939,0.192 -1.152,-0.521 -1.152,-0.521 z"
     id="path31" />
  <path
     style="fill:#231f20;fill-opacity:1;fill-rule:nonzero;stroke:none"
     d="m 279.21243,72.205358 c -1.297,0.052 -1,-1.968 -1.005,-2.506 0,-0.541 -0.183,-2.088 -0.484,-3.27 -0.298,-1.192 -0.162,-2.802 -0.724,-5.063 -0.298,-1.181 0.166,-2.525 1.906,-2.88 1.719,-0.348 2.562,0.486 2.708,1.975 0.14,1.489 -0.36,2.948 -0.322,4.458 0.041,1.51 0.218,3.047 0.421,4.25 0.219,1.36 -0.167,2.12 -0.579,2.374 -1.009,0.642 -1.921,0.662 -1.921,0.662"
     id="path32" />
  <path
     style="fill:none;stroke:#231f20;stroke-width:0.565977;stroke-linecap:butt;stroke-linejoin:miter;stroke-miterlimit:4;stroke-dasharray:none;stroke-opacity:1"
     d="m 279.21243,72.205358 c -1.297,0.052 -1,-1.968 -1.005,-2.506 0,-0.541 -0.183,-2.088 -0.484,-3.27 -0.298,-1.192 -0.162,-2.802 -0.724,-5.063 -0.298,-1.181 0.166,-2.525 1.906,-2.88 1.719,-0.348 2.562,0.486 2.708,1.975 0.14,1.489 -0.36,2.948 -0.322,4.458 0.041,1.51 0.218,3.047 0.421,4.25 0.219,1.36 -0.167,2.12 -0.579,2.374 -1.009,0.642 -1.921,0.662 -1.921,0.662 z"
     id="path33" />
  <path
     style="fill:#ffffff;fill-opacity:1;fill-rule:nonzero;stroke:none"
     d="m 0.33292754,81.586358 c 0,0.681 0.5573,1.239 1.24009976,1.239 H 347.68643 c 0.687,0 1.239,-0.558 1.239,-1.239 0,-0.688 -0.552,-1.24 -1.239,-1.24 H 1.5730273 c -0.68279976,0 -1.24009976,0.552 -1.24009976,1.24"
     id="path34" />
  <path
     style="fill:none;stroke:#231f20;stroke-width:0.665856;stroke-linecap:butt;stroke-linejoin:miter;stroke-miterlimit:4;stroke-dasharray:none;stroke-opacity:1"
     d="m 0.33292754,81.586358 c 0,0.681 0.5573,1.239 1.24009976,1.239 H 347.68643 c 0.687,0 1.239,-0.558 1.239,-1.239 0,-0.688 -0.552,-1.24 -1.239,-1.24 H 1.5730273 c -0.68279976,0 -1.24009976,0.552 -1.24009976,1.24 z"
     id="path35" />
  <path
     style="fill:#231f20;fill-opacity:1;fill-rule:nonzero;stroke:none"
     d="m 283.98343,82.201358 c 0,1.176 -0.954,2.134 -2.135,2.134 -1.177,0 -2.131,-0.958 -2.131,-2.134 0,-1.178 0.954,-2.136 2.131,-2.136 1.181,0 2.135,0.958 2.135,2.136"
     id="path36" />
  <path
     style="fill:#63c99d;fill-opacity:1;fill-rule:nonzero;stroke:none"
     d="m 141.11443,112.03335 c -0.298,3.12 -0.704,3.761 -1.147,4.568 -2.765,5.078 -0.224,6.338 2.652,6.089 3.38,-0.287 4.593,-0.324 4.604,-6.615 -0.005,-1.756 0.88,-8.469 0.88,-8.469 0.64,-2.364 0.005,-5.011 -1.12,-5.937 -1.183,-0.979 -0.787,-0.506 -2.041,-1.214 -1.203,-0.671992 -3.386,-0.629992 -4.172,0.328 -0.746,0.922 -0.178,2.49 0.354,4.85 0.416,1.869 -0.01,6.4 -0.01,6.4"
     id="path37" />
  <path
     style="fill:none;stroke:#231f20;stroke-width:0.565977;stroke-linecap:butt;stroke-linejoin:miter;stroke-miterlimit:4;stroke-dasharray:none;stroke-opacity:1"
     d="m 141.11443,112.03335 c -0.298,3.12 -0.704,3.761 -1.147,4.568 -2.765,5.078 -0.224,6.338 2.652,6.089 3.38,-0.287 4.593,-0.324 4.604,-6.615 -0.005,-1.756 0.88,-8.469 0.88,-8.469 0.64,-2.364 0.005,-5.011 -1.12,-5.937 -1.183,-0.979 -0.787,-0.506 -2.041,-1.214 -1.203,-0.671992 -3.386,-0.629992 -4.172,0.328 -0.746,0.922 -0.178,2.49 0.354,4.85 0.416,1.869 -0.01,6.4 -0.01,6.4 z"
     id="path38" />
  <path
     style="fill:#ffffff;fill-opacity:1;fill-rule:nonzero;stroke:none"
     d="m 151.25443,96.778358 c 0.156,-0.188 1.198,0.287 1.453,-0.167 0.256,-0.464 -0.323,-1.005 -0.203,-2.989 v -0.021 c 0.14,-1.448 -0.322,-2.755 -1.37,-3.448 -1.739,-1.146 -4.406,-0.156 -5.958,2.198 -1.552,2.359 -1.401,5.198 0.328,6.344 1.656,1.094 4.178,0.228 5.75,-1.917"
     id="path39" />
  <path
     style="fill:none;stroke:#231f20;stroke-width:0.565977;stroke-linecap:butt;stroke-linejoin:miter;stroke-miterlimit:4;stroke-dasharray:none;stroke-opacity:1"
     d="m 151.25443,96.778358 c 0.156,-0.188 1.198,0.287 1.453,-0.167 0.256,-0.464 -0.323,-1.005 -0.203,-2.989 v -0.021 c 0.14,-1.448 -0.322,-2.755 -1.37,-3.448 -1.739,-1.146 -4.406,-0.156 -5.958,2.198 -1.552,2.359 -1.401,5.198 0.328,6.344 1.656,1.094 4.178,0.228 5.75,-1.917 z"
     id="path40" />
  <path
     style="fill:#231f20;fill-opacity:1;fill-rule:nonzero;stroke:none"
     d="m 138.89543,82.805358 c 0.511,0.39 0.905,2.296 1.801,3.629 0.615,0.896 1.095,3.599 1.767,4.448 0.619,0.776 0.828,1.193 0.061,2.047 -0.457,0.51 -1.661,1.198 -2.057,0.876 -0.921,-0.756 -1.364,-1.59 -1.656,-2.62 -0.328,-1.172 -0.943,-4.423 -1,-5.032 -0.135,-1.515 -0.645,-2.052 -0.724,-2.448 -0.14,-0.75 0.115,-0.99 0.573,-1.187 0.886,-0.375 1.235,0.287 1.235,0.287"
     id="path41" />
  <path
     style="fill:none;stroke:#231f20;stroke-width:0.565977;stroke-linecap:butt;stroke-linejoin:miter;stroke-miterlimit:4;stroke-dasharray:none;stroke-opacity:1"
     d="m 138.89543,82.805358 c 0.511,0.39 0.905,2.296 1.801,3.629 0.615,0.896 1.095,3.599 1.767,4.448 0.619,0.776 0.828,1.193 0.061,2.047 -0.457,0.51 -1.661,1.198 -2.057,0.876 -0.921,-0.756 -1.364,-1.59 -1.656,-2.62 -0.328,-1.172 -0.943,-4.423 -1,-5.032 -0.135,-1.515 -0.645,-2.052 -0.724,-2.448 -0.14,-0.75 0.115,-0.99 0.573,-1.187 0.886,-0.375 1.235,0.287 1.235,0.287 z"
     id="path42" />
  <path
     style="fill:#231f20;fill-opacity:1;fill-rule:nonzero;stroke:none"
     d="m 141.95843,91.330358 c 1.265,-0.301 1.369,1.735 1.473,2.256 0.109,0.536 0.593,2.015 1.125,3.119 0.526,1.109 0.708,2.709 1.703,4.812992 0.527,1.104 0.333,2.511 -1.296,3.203 -1.625,0.682 -2.615,0.032 -3.048,-1.407 -0.432,-1.427 -0.228,-2.957 -0.567,-4.431992 -0.333,-1.473 -0.808,-2.943 -1.24,-4.083 -0.489,-1.292 -0.254,-2.114 0.099,-2.437 0.86,-0.833 1.751,-1.032 1.751,-1.032"
     id="path43" />
  <path
     style="fill:none;stroke:#231f20;stroke-width:0.565977;stroke-linecap:butt;stroke-linejoin:miter;stroke-miterlimit:4;stroke-dasharray:none;stroke-opacity:1"
     d="m 141.95843,91.330358 c 1.265,-0.301 1.369,1.735 1.473,2.256 0.109,0.536 0.593,2.015 1.125,3.119 0.526,1.109 0.708,2.709 1.703,4.812992 0.527,1.104 0.333,2.511 -1.296,3.203 -1.625,0.682 -2.615,0.032 -3.048,-1.407 -0.432,-1.427 -0.228,-2.957 -0.567,-4.431992 -0.333,-1.473 -0.808,-2.943 -1.24,-4.083 -0.489,-1.292 -0.254,-2.114 0.099,-2.437 0.86,-0.833 1.751,-1.032 1.751,-1.032 z"
     id="path44" />
  <path
     style="fill:#231f20;fill-opacity:1;fill-rule:nonzero;stroke:none"
     d="m 155.02443,135.52335 c -1.02,-2.021 -1.489,-2.27 -2.374,-1.896 -0.594,0.25 -1.214,0.276 -1.578,0.416 -1.218,0.448 -3.084,1.71 -7.433,6.656 -0.973,1.12 -2.375,2.688 -2.995,3.278 -0.968,0.942 1.251,1.932 1.642,1.561 1.244,-1.167 2.202,-1.869 2.708,-2.228 0.349,-0.251 0.901,-0.772 2.385,-1.553 2.224,-1.187 3.74,-1.562 5.479,-2.766 0.813,-0.562 1.772,-0.462 2.281,-1.416 0.527,-0.953 -0.115,-2.052 -0.115,-2.052"
     id="path45" />
  <path
     style="fill:none;stroke:#231f20;stroke-width:0.565977;stroke-linecap:butt;stroke-linejoin:miter;stroke-miterlimit:4;stroke-dasharray:none;stroke-opacity:1"
     d="m 155.02443,135.52335 c -1.02,-2.021 -1.489,-2.27 -2.374,-1.896 -0.594,0.25 -1.214,0.276 -1.578,0.416 -1.218,0.448 -3.084,1.71 -7.433,6.656 -0.973,1.12 -2.375,2.688 -2.995,3.278 -0.968,0.942 1.251,1.932 1.642,1.561 1.244,-1.167 2.202,-1.869 2.708,-2.228 0.349,-0.251 0.901,-0.772 2.385,-1.553 2.224,-1.187 3.74,-1.562 5.479,-2.766 0.813,-0.562 1.772,-0.462 2.281,-1.416 0.527,-0.953 -0.115,-2.052 -0.115,-2.052 z"
     id="path46" />
  <path
     style="fill:#231f20;fill-opacity:1;fill-rule:nonzero;stroke:#231f20;stroke-width:0.565977;stroke-linecap:round;stroke-linejoin:round;stroke-miterlimit:4;stroke-dasharray:none;stroke-opacity:1"
     d="m 154.65543,135.08635 c 0.453,-1.349 -1.115,-2.824 -1.229,-3.147 -1.792,-4.682 -2.036,-4.973 -3.646,-8.437 -2.322,-5.016 -4.682,-8.093 -7.994,-7.593 -2.251,0.338 -3.396,1.505 -3.694,2.79 -0.328,1.428 0.464,4.502 3.214,5.387 l 1.104,1.307 c 0.641,0.973 0.958,1.453 1.234,1.958 0.475,0.88 1.043,1.796 2.068,3.459 1.828,2.957 4.724,5.484 4.724,5.484 0.167,0.26 0.407,0.411 0.662,0.484"
     id="path47" />
  <path
     style="fill:#63c99d;fill-opacity:1;fill-rule:nonzero;stroke:none"
     d="m 142.03543,115.81035 c -2.255,0.26 -3.448,1.385 -3.796,2.651 -0.381,1.41 0.296,4.52 3.009,5.505 l 7.126,-3.213 c -1.755,-3.33 -3.714,-5.235 -6.339,-4.943"
     id="path48" />
  <path
     style="fill:none;stroke:#231f20;stroke-width:0.565977;stroke-linecap:butt;stroke-linejoin:miter;stroke-miterlimit:4;stroke-dasharray:none;stroke-opacity:1"
     d="m 142.03543,115.81035 c -2.255,0.26 -3.448,1.385 -3.796,2.651 -0.381,1.41 0.296,4.52 3.009,5.505 l 7.126,-3.213 c -1.755,-3.33 -3.714,-5.235 -6.339,-4.943 z"
     id="path49" />
  <path
     style="fill:#231f20;fill-opacity:1;fill-rule:nonzero;stroke:none"
     d="m 138.63943,145.27335 c 0.089,-1.35 1.043,-1.635 1.991,-1.23 0.285,0.12 0.656,-0.072 0.926,0.068 0.62,0.334 1.074,2.016 -0.234,2.756 -0.094,0.052 -0.651,0.646 -1.14,1.031 -0.959,0.74 -3.235,1.771 -5.746,0.797 -1.192,-0.464 -0.702,-1.078 -0.161,-1.042 1.708,0.13 1.88,-0.192 2.344,-0.323 1.563,-0.432 2.02,-2.057 2.02,-2.057"
     id="path50" />
  <path
     style="fill:none;stroke:#231f20;stroke-width:0.332927;stroke-linecap:butt;stroke-linejoin:miter;stroke-miterlimit:4;stroke-dasharray:none;stroke-opacity:1"
     d="m 138.63943,145.27335 c 0.089,-1.35 1.043,-1.635 1.991,-1.23 0.285,0.12 0.656,-0.072 0.926,0.068 0.62,0.334 1.074,2.016 -0.234,2.756 -0.094,0.052 -0.651,0.646 -1.14,1.031 -0.959,0.74 -3.235,1.771 -5.746,0.797 -1.192,-0.464 -0.702,-1.078 -0.161,-1.042 1.708,0.13 1.88,-0.192 2.344,-0.323 1.563,-0.432 2.02,-2.057 2.02,-2.057 z"
     id="path51" />
  <path
     style="fill:#231f20;fill-opacity:1;fill-rule:nonzero;stroke:none"
     d="m 134.91143,83.013358 c -0.511,-1.063 -0.063,-2.339 1,-2.844 1.061,-0.511 2.333,-0.063 2.843,1 0.51,1.062 0.062,2.333 -1,2.844 -1.063,0.51 -2.339,0.062 -2.843,-1"
     id="path52" />
  <path
     style="fill:#231f20;fill-opacity:1;fill-rule:nonzero;stroke:none"
     d="m 70.368727,81.429358 c 0.0895,1.172 -0.7865,2.198 -1.9625,2.292 -1.1719,0.089 -2.2042,-0.787 -2.2923,-1.964 -0.0932,-1.171 0.7871,-2.198 1.9631,-2.291 1.1718,-0.089 2.1984,0.787 2.2917,1.963"
     id="path53" />
  <path
     style="fill:#231f20;fill-opacity:1;fill-rule:nonzero;stroke:none"
     d="m 73.166427,5.8003573 c 0.958,0.953 0.552,1.858 -0.38,2.312 -0.276,0.136 -0.376,0.536 -0.656,0.645 -0.6628,0.251 -2.2294,-0.509 -1.9284,-1.979 0.0271,-0.104 -0.0573,-0.921 -0.025,-1.541 0.0677,-1.213 0.7906,-3.599 3.1814,-4.85499995 1.125,-0.593 1.272,0.183 0.886,0.563 -1.22,1.20299995 -1.094,1.54699995 -1.297,1.97899995 -0.703,1.464 0.219,2.876 0.219,2.876"
     id="path54" />
  <path
     style="fill:none;stroke:#231f20;stroke-width:0.332927;stroke-linecap:butt;stroke-linejoin:miter;stroke-miterlimit:4;stroke-dasharray:none;stroke-opacity:1"
     d="m 73.166427,5.8003573 c 0.958,0.953 0.552,1.858 -0.38,2.312 -0.276,0.136 -0.376,0.536 -0.656,0.645 -0.6628,0.251 -2.2294,-0.509 -1.9284,-1.979 0.0271,-0.104 -0.0573,-0.921 -0.025,-1.541 0.0677,-1.213 0.7906,-3.599 3.1814,-4.85499995 1.125,-0.593 1.272,0.183 0.886,0.563 -1.22,1.20299995 -1.094,1.54699995 -1.297,1.97899995 -0.703,1.464 0.219,2.876 0.219,2.876 z"
     id="path55" />
  <path
     style="fill:#231f20;fill-opacity:1;fill-rule:nonzero;stroke:none"
     d="m 69.072827,24.096358 c 2.1864,0.589 2.6922,0.412 2.9996,-0.5 0.208,-0.599 0.61,-1.088 0.755,-1.452 0.474,-1.204 0.786,-3.428 0.005,-9.964 -0.177,-1.49 -0.412,-3.5680007 -0.437,-4.4270007 -0.041,-1.355 -2.2611,-0.365 -2.2507,0.167 0.0323,1.713 -0.0771,2.8900007 -0.1505,3.5200007 -0.047,0.422 -0.036,1.182 -0.4375,2.797 -0.6095,2.459 -1.3385,3.828 -1.6095,5.932 -0.1249,0.975 -0.8385,1.625 -0.4744,2.645 0.3599,1.022 1.6,1.282 1.6,1.282"
     id="path56" />
  <path
     style="fill:none;stroke:#231f20;stroke-width:0.565977;stroke-linecap:butt;stroke-linejoin:miter;stroke-miterlimit:4;stroke-dasharray:none;stroke-opacity:1"
     d="m 69.072827,24.096358 c 2.1864,0.589 2.6922,0.412 2.9996,-0.5 0.208,-0.599 0.61,-1.088 0.755,-1.452 0.474,-1.204 0.786,-3.428 0.005,-9.964 -0.177,-1.49 -0.412,-3.5680007 -0.437,-4.4270007 -0.041,-1.355 -2.2611,-0.365 -2.2507,0.167 0.0323,1.713 -0.0771,2.8900007 -0.1505,3.5200007 -0.047,0.422 -0.036,1.182 -0.4375,2.797 -0.6095,2.459 -1.3385,3.828 -1.6095,5.932 -0.1249,0.975 -0.8385,1.625 -0.4744,2.645 0.3599,1.022 1.6,1.282 1.6,1.282 z"
     id="path57" />
  <path
     style="fill:#63c99d;fill-opacity:1;fill-rule:nonzero;stroke:none"
     d="m 68.817127,50.190358 c 0.3077,-3.12 0.7131,-3.75 1.1609,-4.562 2.7764,-5.068 0.235,-6.339 -2.6344,-6.094 -3.3801,0.28 -4.6,0.312 -4.6202,6.61 0,1.749 -0.9011,8.457 -0.9011,8.457 -0.6453,2.365 -0.0161,5.011 1.1036,5.942 1.1776,0.986 0.7819,0.506 2.0376,1.219 1.2025,0.677 3.3853,0.636 4.1667,-0.317 0.7546,-0.916 0.1869,-2.484 -0.3387,-4.855 -0.4067,-1.864 0.0256,-6.4 0.0256,-6.4"
     id="path58" />
  <path
     style="fill:none;stroke:#231f20;stroke-width:0.565977;stroke-linecap:butt;stroke-linejoin:miter;stroke-miterlimit:4;stroke-dasharray:none;stroke-opacity:1"
     d="m 68.817127,50.190358 c 0.3077,-3.12 0.7131,-3.75 1.1609,-4.562 2.7764,-5.068 0.235,-6.339 -2.6344,-6.094 -3.3801,0.28 -4.6,0.312 -4.6202,6.61 0,1.749 -0.9011,8.457 -0.9011,8.457 -0.6453,2.365 -0.0161,5.011 1.1036,5.942 1.1776,0.986 0.7819,0.506 2.0376,1.219 1.2025,0.677 3.3853,0.636 4.1667,-0.317 0.7546,-0.916 0.1869,-2.484 -0.3387,-4.855 -0.4067,-1.864 0.0256,-6.4 0.0256,-6.4 z"
     id="path59" />
  <path
     style="fill:#ffffff;fill-opacity:1;fill-rule:nonzero;stroke:none"
     d="m 66.691527,69.221358 c 0.1412,0.202 -0.6041,1.084 -0.228,1.453 0.3744,0.364 1.052,-0.041 2.9265,0.609 l 0.0203,0.006 c 1.3599,0.521 2.7451,0.426 3.6931,-0.396 1.568,-1.364 1.339,-4.194 -0.511,-6.323 -1.8529,-2.141 -4.6248,-2.756 -6.1914,-1.396 -1.5052,1.297 -1.3547,3.959 0.2905,6.047"
     id="path60" />
  <path
     style="fill:none;stroke:#231f20;stroke-width:0.565977;stroke-linecap:butt;stroke-linejoin:miter;stroke-miterlimit:4;stroke-dasharray:none;stroke-opacity:1"
     d="m 66.691527,69.221358 c 0.1412,0.202 -0.6041,1.084 -0.228,1.453 0.3744,0.364 1.052,-0.041 2.9265,0.609 l 0.0203,0.006 c 1.3599,0.521 2.7451,0.426 3.6931,-0.396 1.568,-1.364 1.339,-4.194 -0.511,-6.323 -1.8529,-2.141 -4.6248,-2.756 -6.1914,-1.396 -1.5052,1.297 -1.3547,3.959 0.2905,6.047 z"
     id="path61" />
  <path
     style="fill:#231f20;fill-opacity:1;fill-rule:nonzero;stroke:none"
     d="m 70.244727,21.924358 c -3.7667,-1.375 -3.3027,2.677 -3.4641,3.13 -1.7291,4.699 -1.7395,5.079 -2.813,8.746 -1.5417,5.312 -1.7854,9.181 1.037,10.984 1.9161,1.218 3.5521,1.098 4.6202,0.328 1.1762,-0.859 2.6046,-3.698 1.1188,-6.178 l 0.0214,-1.713 c 0.1666,-1.145 0.2344,-1.719 0.3652,-2.276 0.2186,-0.979 0.3946,-2.041 0.7186,-3.973 0.5666,-3.423 0.047,-7.235 0.047,-7.235 0.1766,-1.229 -1.6511,-1.813 -1.6511,-1.813"
     id="path62" />
  <path
     style="fill:none;stroke:#231f20;stroke-width:0.565977;stroke-linecap:butt;stroke-linejoin:miter;stroke-miterlimit:4;stroke-dasharray:none;stroke-opacity:1"
     d="m 70.244727,21.924358 c -3.7667,-1.375 -3.3027,2.677 -3.4641,3.13 -1.7291,4.699 -1.7395,5.079 -2.813,8.746 -1.5417,5.312 -1.7854,9.181 1.037,10.984 1.9161,1.218 3.5521,1.098 4.6202,0.328 1.1762,-0.859 2.6046,-3.698 1.1188,-6.178 l 0.0214,-1.713 c 0.1666,-1.145 0.2344,-1.719 0.3652,-2.276 0.2186,-0.979 0.3946,-2.041 0.7186,-3.973 0.5666,-3.423 0.047,-7.235 0.047,-7.235 0.1766,-1.229 -1.6511,-1.813 -1.6511,-1.813 z"
     id="path63" />
  <path
     style="fill:#63c99d;fill-opacity:1;fill-rule:nonzero;stroke:none"
     d="m 70.207827,38.466358 -7.7819,-0.693 c -0.0197,0.656 0,1.265 0.0376,1.849 -0.0215,0.078 -0.0428,0.156 -0.0677,0.219 -0.323,0.745 -0.0323,1.307 0.4838,2.208 0.4583,1.48 1.2812,2.568 2.6411,3.141 2.0932,0.886 3.6813,0.49 4.6041,-0.448 1.0256,-1.042 1.9626,-4.084 0.083,-6.276"
     id="path64" />
  <path
     style="fill:none;stroke:#231f20;stroke-width:0.565977;stroke-linecap:butt;stroke-linejoin:miter;stroke-miterlimit:4;stroke-dasharray:none;stroke-opacity:1"
     d="m 70.207827,38.466358 -7.7819,-0.693 c -0.0197,0.656 0,1.265 0.0376,1.849 -0.0215,0.078 -0.0428,0.156 -0.0677,0.219 -0.323,0.745 -0.0323,1.307 0.4838,2.208 0.4583,1.48 1.2812,2.568 2.6411,3.141 2.0932,0.886 3.6813,0.49 4.6041,-0.448 1.0256,-1.042 1.9626,-4.084 0.083,-6.276 z"
     id="path65" />
  <path
     style="fill:#231f20;fill-opacity:1;fill-rule:nonzero;stroke:none"
     d="m 67.041127,79.742358 c -0.3907,-0.505 -0.2923,-2.453 -0.8281,-3.969 -0.3642,-1.026 -0.1402,-3.76 -0.5828,-4.755 -0.3959,-0.907 -0.4959,-1.36 0.4624,-1.995 0.5682,-0.376 1.912,-0.734 2.2136,-0.324 0.7041,0.959 0.9172,1.882 0.9385,2.954 0.0203,1.214 -0.2093,4.516 -0.3027,5.125 -0.2546,1.5 0.1043,2.145 0.0735,2.547 -0.052,0.761 -0.3547,0.928 -0.8495,1 -0.953,0.141 -1.1249,-0.583 -1.1249,-0.583"
     id="path66" />
  <path
     style="fill:none;stroke:#231f20;stroke-width:0.565977;stroke-linecap:butt;stroke-linejoin:miter;stroke-miterlimit:4;stroke-dasharray:none;stroke-opacity:1"
     d="m 67.041127,79.742358 c -0.3907,-0.505 -0.2923,-2.453 -0.8281,-3.969 -0.3642,-1.026 -0.1402,-3.76 -0.5828,-4.755 -0.3959,-0.907 -0.4959,-1.36 0.4624,-1.995 0.5682,-0.376 1.912,-0.734 2.2136,-0.324 0.7041,0.959 0.9172,1.882 0.9385,2.954 0.0203,1.214 -0.2093,4.516 -0.3027,5.125 -0.2546,1.5 0.1043,2.145 0.0735,2.547 -0.052,0.761 -0.3547,0.928 -0.8495,1 -0.953,0.141 -1.1249,-0.583 -1.1249,-0.583 z"
     id="path67" />
  <path
     style="fill:#231f20;fill-opacity:1;fill-rule:nonzero;stroke:none"
     d="m 66.234327,70.715358 c -1.2975,-0.025 -0.8803,-2.02 -0.8547,-2.557 0.0307,-0.541 -0.0625,-2.099 -0.2974,-3.296 -0.2282,-1.204 0.0052,-2.803 -0.4318,-5.089 -0.2297,-1.203 0.3078,-2.516 2.0678,-2.771 1.74,-0.249 2.5358,0.631 2.588,2.126 0.0573,1.494 -0.5256,2.926 -0.5667,4.437 -0.0521,1.51 0.0359,3.052 0.1667,4.26 0.1453,1.376 -0.2923,2.109 -0.7147,2.338 -1.0411,0.584 -1.9572,0.552 -1.9572,0.552"
     id="path68" />
  <path
     style="fill:none;stroke:#231f20;stroke-width:0.565977;stroke-linecap:butt;stroke-linejoin:miter;stroke-miterlimit:4;stroke-dasharray:none;stroke-opacity:1"
     d="m 66.234327,70.715358 c -1.2975,-0.025 -0.8803,-2.02 -0.8547,-2.557 0.0307,-0.541 -0.0625,-2.099 -0.2974,-3.296 -0.2282,-1.204 0.0052,-2.803 -0.4318,-5.089 -0.2297,-1.203 0.3078,-2.516 2.0678,-2.771 1.74,-0.249 2.5358,0.631 2.588,2.126 0.0573,1.494 -0.5256,2.926 -0.5667,4.437 -0.0521,1.51 0.0359,3.052 0.1667,4.26 0.1453,1.376 -0.2923,2.109 -0.7147,2.338 -1.0411,0.584 -1.9572,0.552 -1.9572,0.552 z"
     id="path69" />
  <path
     style="fill:#231f20;fill-opacity:1;fill-rule:nonzero;stroke:none"
     d="m 117.29143,80.429358 c 0.864,-0.802 2.213,-0.75 3.015,0.109 0.797,0.865 0.75,2.219 -0.115,3.021 -0.864,0.798 -2.213,0.751 -3.015,-0.114 -0.802,-0.864 -0.75,-2.214 0.115,-3.016"
     id="path70" />
  <path
     style="fill:#231f20;fill-opacity:1;fill-rule:nonzero;stroke:none"
     d="m 49.582227,94.357358 c 0.9855,-0.928 1.876,-0.495 2.3027,0.448 0.1254,0.276 0.5254,0.39 0.6306,0.676 0.2282,0.666 -0.5786,2.214 -2.0374,1.865 -0.1036,-0.027 -0.9214,0.031 -1.5412,-0.016 -1.2078,-0.104 -3.5787,-0.896 -4.7599,-3.323 -0.563,-1.145 0.2188,-1.265 0.588,-0.869 1.1667,1.255 1.5156,1.14 1.9428,1.353 1.4369,0.751 2.8744,-0.134 2.8744,-0.134"
     id="path71" />
  <path
     style="fill:none;stroke:#231f20;stroke-width:0.332927;stroke-linecap:butt;stroke-linejoin:miter;stroke-miterlimit:4;stroke-dasharray:none;stroke-opacity:1"
     d="m 49.582227,94.357358 c 0.9855,-0.928 1.876,-0.495 2.3027,0.448 0.1254,0.276 0.5254,0.39 0.6306,0.676 0.2282,0.666 -0.5786,2.214 -2.0374,1.865 -0.1036,-0.027 -0.9214,0.031 -1.5412,-0.016 -1.2078,-0.104 -3.5787,-0.896 -4.7599,-3.323 -0.563,-1.145 0.2188,-1.265 0.588,-0.869 1.1667,1.255 1.5156,1.14 1.9428,1.353 1.4369,0.751 2.8744,-0.134 2.8744,-0.134 z"
     id="path72" />
  <path
     style="fill:#231f20;fill-opacity:1;fill-rule:nonzero;stroke:none"
     d="m 67.754027,98.977358 c 0.6522,-2.167 0.4907,-2.683 -0.4104,-3.016 -0.5948,-0.219 -1.0682,-0.636 -1.4281,-0.792 -1.1921,-0.511 -3.4052,-0.88 -9.9625,-0.298 -1.4895,0.136 -3.5785,0.308 -4.4375,0.308 -1.3546,0.006 -0.4333,2.255 0.1042,2.26 1.713,0.016 2.8849,0.162 3.5105,0.251 0.4213,0.063 1.1812,0.072 2.7853,0.52 2.4333,0.677 3.7865,1.448 5.8813,1.781 0.9682,0.155992 1.599,0.885992 2.6291,0.546992 1.0323,-0.328 1.3281,-1.560992 1.3281,-1.560992"
     id="path73" />
  <path
     style="fill:none;stroke:#231f20;stroke-width:0.565977;stroke-linecap:butt;stroke-linejoin:miter;stroke-miterlimit:4;stroke-dasharray:none;stroke-opacity:1"
     d="m 67.754027,98.977358 c 0.6522,-2.167 0.4907,-2.683 -0.4104,-3.016 -0.5948,-0.219 -1.0682,-0.636 -1.4281,-0.792 -1.1921,-0.511 -3.4052,-0.88 -9.9625,-0.298 -1.4895,0.136 -3.5785,0.308 -4.4375,0.308 -1.3546,0.006 -0.4333,2.255 0.1042,2.26 1.713,0.016 2.8849,0.162 3.5105,0.251 0.4213,0.063 1.1812,0.072 2.7853,0.52 2.4333,0.677 3.7865,1.448 5.8813,1.781 0.9682,0.155992 1.599,0.885992 2.6291,0.546992 1.0323,-0.328 1.3281,-1.560992 1.3281,-1.560992 z"
     id="path74" />
  <path
     style="fill:#63c99d;fill-opacity:1;fill-rule:nonzero;stroke:none"
     d="m 92.890427,97.382358 c -3.094,0.5 -3.808,0.271 -4.708,0.047 -5.61,-1.386 -6.188,1.39 -5.215,4.104992 1.131,3.197 1.475,4.369 7.568,2.776 1.694,-0.448 8.412,-1.292 8.412,-1.292 2.448003,0.015 4.844003,-1.271 5.459003,-2.595 0.645,-1.389992 0.285,-0.879992 0.656,-2.279992 0.348,-1.333 -0.251,-3.438 -1.375,-3.948 -1.084,-0.49 -2.448,0.458 -4.605003,1.572 -1.698,0.876 -6.192,1.615 -6.192,1.615"
     id="path75" />
  <path
     style="fill:none;stroke:#231f20;stroke-width:0.565977;stroke-linecap:butt;stroke-linejoin:miter;stroke-miterlimit:4;stroke-dasharray:none;stroke-opacity:1"
     d="m 92.890427,97.382358 c -3.094,0.5 -3.808,0.271 -4.708,0.047 -5.61,-1.386 -6.188,1.39 -5.215,4.104992 1.131,3.197 1.475,4.369 7.568,2.776 1.694,-0.448 8.412,-1.292 8.412,-1.292 2.448003,0.015 4.844003,-1.271 5.459003,-2.595 0.645,-1.389992 0.285,-0.879992 0.656,-2.279992 0.348,-1.333 -0.251,-3.438 -1.375,-3.948 -1.084,-0.49 -2.448,0.458 -4.605003,1.572 -1.698,0.876 -6.192,1.615 -6.192,1.615 z"
     id="path76" />
  <path
     style="fill:#ffffff;fill-opacity:1;fill-rule:nonzero;stroke:none"
     d="m 111.83243,94.565358 c 0.162,-0.188 1.198,0.306 1.459,-0.146 0.26,-0.458 -0.313,-1.005 -0.157,-2.99 v -0.02 c 0.157,-1.454 -0.291,-2.766 -1.328,-3.47 -1.724,-1.166 -4.396,-0.224 -5.984,2.11 -1.588,2.344 -1.479,5.182 0.24,6.349 1.634,1.12 4.172,0.292 5.77,-1.833"
     id="path77" />
  <path
     style="fill:none;stroke:#231f20;stroke-width:0.565977;stroke-linecap:butt;stroke-linejoin:miter;stroke-miterlimit:4;stroke-dasharray:none;stroke-opacity:1"
     d="m 111.83243,94.565358 c 0.162,-0.188 1.198,0.306 1.459,-0.146 0.26,-0.458 -0.313,-1.005 -0.157,-2.99 v -0.02 c 0.157,-1.454 -0.291,-2.766 -1.328,-3.47 -1.724,-1.166 -4.396,-0.224 -5.984,2.11 -1.588,2.344 -1.479,5.182 0.24,6.349 1.634,1.12 4.172,0.292 5.77,-1.833 z"
     id="path78" />
  <path
     style="fill:#231f20;fill-opacity:1;fill-rule:nonzero;stroke:none"
     d="m 65.619627,97.747358 c -1.4853,3.723992 2.5772,3.374992 3.0251,3.546992 4.6467,1.869 5.0327,1.891 8.6667,3.068 5.261,1.697 9.12,2.057 11.006,-0.715 1.275,-1.88 1.198,-3.514 0.458,-4.608992 -0.822,-1.203 -3.615,-2.713 -6.136,-1.296 l -1.714,-0.073 c -1.139,-0.198 -1.712,-0.287 -2.27,-0.427 -0.968,-0.256 -2.025,-0.459 -3.948,-0.839 -3.4064,-0.661 -7.2236,-0.256 -7.2236,-0.256 -1.2298,-0.208 -1.8642,1.6 -1.8642,1.6"
     id="path79" />
  <path
     style="fill:none;stroke:#231f20;stroke-width:0.565977;stroke-linecap:butt;stroke-linejoin:miter;stroke-miterlimit:4;stroke-dasharray:none;stroke-opacity:1"
     d="m 65.619627,97.747358 c -1.4853,3.723992 2.5772,3.374992 3.0251,3.546992 4.6467,1.869 5.0327,1.891 8.6667,3.068 5.261,1.697 9.12,2.057 11.006,-0.715 1.275,-1.88 1.198,-3.514 0.458,-4.608992 -0.822,-1.203 -3.615,-2.713 -6.136,-1.296 l -1.714,-0.073 c -1.139,-0.198 -1.712,-0.287 -2.27,-0.427 -0.968,-0.256 -2.025,-0.459 -3.948,-0.839 -3.4064,-0.661 -7.2236,-0.256 -7.2236,-0.256 -1.2298,-0.208 -1.8642,1.6 -1.8642,1.6 z"
     id="path80" />
  <path
     style="fill:#63c99d;fill-opacity:1;fill-rule:nonzero;stroke:none"
     d="m 88.420427,98.523358 c -1.01,-1.052 -4.019,-2.078 -6.265,-0.261 l -0.921,7.760992 c 0.656,0.036 1.265,0.036 1.848,0.015 0.078,0.021 0.152,0.048 0.219,0.073 0.734,0.344 1.302,0.074 2.219,-0.421 1.495,-0.417 2.604,-1.209 3.214,-2.547 0.948,-2.068 0.598,-3.665992 -0.314,-4.619992"
     id="path81" />
  <path
     style="fill:none;stroke:#231f20;stroke-width:0.565977;stroke-linecap:butt;stroke-linejoin:miter;stroke-miterlimit:4;stroke-dasharray:none;stroke-opacity:1"
     d="m 88.420427,98.523358 c -1.01,-1.052 -4.019,-2.078 -6.265,-0.261 l -0.921,7.760992 c 0.656,0.036 1.265,0.036 1.848,0.015 0.078,0.021 0.152,0.048 0.219,0.073 0.734,0.344 1.302,0.074 2.219,-0.421 1.495,-0.417 2.604,-1.209 3.214,-2.547 0.948,-2.068 0.598,-3.665992 -0.314,-4.619992 z"
     id="path82" />
  <path
     style="fill:#231f20;fill-opacity:1;fill-rule:nonzero;stroke:none"
     d="m 118.03543,84.086358 c -0.151,0.619 -1.739,1.749 -2.593,3.115 -0.579,0.921 -2.86,2.446 -3.366,3.405 -0.462,0.88 -0.754,1.24 -1.848,0.88 -0.65,-0.208 -1.761,-1.036 -1.625,-1.531 0.312,-1.145 0.901,-1.89 1.724,-2.568 0.943,-0.776 3.672,-2.645 4.203,-2.948 1.333,-0.734 1.614,-1.416 1.953,-1.645 0.625,-0.432 0.948,-0.297 1.313,0.047 0.703,0.661 0.239,1.245 0.239,1.245"
     id="path83" />
  <path
     style="fill:none;stroke:#231f20;stroke-width:0.565977;stroke-linecap:butt;stroke-linejoin:miter;stroke-miterlimit:4;stroke-dasharray:none;stroke-opacity:1"
     d="m 118.03543,84.086358 c -0.151,0.619 -1.739,1.749 -2.593,3.115 -0.579,0.921 -2.86,2.446 -3.366,3.405 -0.462,0.88 -0.754,1.24 -1.848,0.88 -0.65,-0.208 -1.761,-1.036 -1.625,-1.531 0.312,-1.145 0.901,-1.89 1.724,-2.568 0.943,-0.776 3.672,-2.645 4.203,-2.948 1.333,-0.734 1.614,-1.416 1.953,-1.645 0.625,-0.432 0.948,-0.297 1.313,0.047 0.703,0.661 0.239,1.245 0.239,1.245 z"
     id="path84" />
  <path
     style="fill:#231f20;fill-opacity:1;fill-rule:nonzero;stroke:none"
     d="m 111.46743,90.325358 c 0.787,1.032 -1.036,1.942 -1.473,2.261 -0.443,0.317 -1.604,1.353 -2.396,2.281 -0.802,0.927 -2.198,1.739 -3.719,3.504 -0.797,0.923 -2.161,1.319 -3.459,0.1 -1.276003,-1.204 -1.077003,-2.376 0.058,-3.349 1.141,-0.975 2.62,-1.407 3.833,-2.312 1.213,-0.901 2.365,-1.928 3.235,-2.781 0.984,-0.97 1.833,-1.079 2.27,-0.896 1.11,0.453 1.651,1.192 1.651,1.192"
     id="path85" />
  <path
     style="fill:none;stroke:#231f20;stroke-width:0.565977;stroke-linecap:butt;stroke-linejoin:miter;stroke-miterlimit:4;stroke-dasharray:none;stroke-opacity:1"
     d="m 111.46743,90.325358 c 0.787,1.032 -1.036,1.942 -1.473,2.261 -0.443,0.317 -1.604,1.353 -2.396,2.281 -0.802,0.927 -2.198,1.739 -3.719,3.504 -0.797,0.923 -2.161,1.319 -3.459,0.1 -1.276003,-1.204 -1.077003,-2.376 0.058,-3.349 1.141,-0.975 2.62,-1.407 3.833,-2.312 1.213,-0.901 2.365,-1.928 3.235,-2.781 0.984,-0.97 1.833,-1.079 2.27,-0.896 1.11,0.453 1.651,1.192 1.651,1.192 z"
     id="path86" />
  <path
     style="fill:#63c99d;fill-opacity:1;fill-rule:nonzero;stroke:none"
     d="m 225.01543,64.138358 c 3.124,-0.204 3.817,0.093 4.692,0.405 5.448,1.918 6.286,-0.796 5.584,-3.588 -0.819,-3.291 -1.052,-4.489 -7.262,-3.489 -1.738,0.282 -8.505,0.479 -8.505,0.479 -2.437,-0.255 -4.947,0.792 -5.687,2.047 -0.776,1.327 -0.374,0.859 -0.865,2.213 -0.473,1.292 -0.083,3.442 0.985,4.062 1.031,0.595 2.484,-0.224 4.734,-1.12 1.776,-0.708 6.324,-1.009 6.324,-1.009"
     id="path87" />
  <path
     style="fill:none;stroke:#231f20;stroke-width:0.565977;stroke-linecap:butt;stroke-linejoin:miter;stroke-miterlimit:4;stroke-dasharray:none;stroke-opacity:1"
     d="m 225.01543,64.138358 c 3.124,-0.204 3.817,0.093 4.692,0.405 5.448,1.918 6.286,-0.796 5.584,-3.588 -0.819,-3.291 -1.052,-4.489 -7.262,-3.489 -1.738,0.282 -8.505,0.479 -8.505,0.479 -2.437,-0.255 -4.947,0.792 -5.687,2.047 -0.776,1.327 -0.374,0.859 -0.865,2.213 -0.473,1.292 -0.083,3.442 0.985,4.062 1.031,0.595 2.484,-0.224 4.734,-1.12 1.776,-0.708 6.324,-1.009 6.324,-1.009 z"
     id="path88" />
  <path
     style="fill:#ffffff;fill-opacity:1;fill-rule:nonzero;stroke:none"
     d="m 209.26943,56.529358 c -0.193,-0.141 0.198,-1.219 -0.276,-1.439 -0.473,-0.218 -0.973,0.396 -2.964,0.423 h -0.02 c -1.453,-0.032 -2.729,0.525 -3.338,1.62 -1.016,1.812 0.161,4.405 2.625,5.781 2.468,1.38 5.291,1.02 6.301,-0.792 0.975,-1.729 -0.068,-4.182 -2.328,-5.593"
     id="path89" />
  <path
     style="fill:none;stroke:#231f20;stroke-width:0.565977;stroke-linecap:butt;stroke-linejoin:miter;stroke-miterlimit:4;stroke-dasharray:none;stroke-opacity:1"
     d="m 209.26943,56.529358 c -0.193,-0.141 0.198,-1.219 -0.276,-1.439 -0.473,-0.218 -0.973,0.396 -2.964,0.423 h -0.02 c -1.453,-0.032 -2.729,0.525 -3.338,1.62 -1.016,1.812 0.161,4.405 2.625,5.781 2.468,1.38 5.291,1.02 6.301,-0.792 0.975,-1.729 -0.068,-4.182 -2.328,-5.593 z"
     id="path90" />
  <path
     style="fill:#231f20;fill-opacity:1;fill-rule:nonzero;stroke:none"
     d="m 204.84843,80.570358 c -0.073,-0.636 1.02,-2.251 1.348,-3.823 0.224,-1.062 1.828,-3.286 1.969,-4.36 0.131,-0.989 0.287,-1.426 1.432,-1.473 0.683,-0.027 2.016,0.364 2.058,0.875 0.104,1.188 -0.192,2.088 -0.73,3.005 -0.609,1.057 -2.516,3.76 -2.916,4.224 -0.989,1.156 -1.021,1.891 -1.256,2.224 -0.437,0.625 -0.786,0.609 -1.254,0.411 -0.88,-0.375 -0.651,-1.083 -0.651,-1.083"
     id="path91" />
  <path
     style="fill:none;stroke:#231f20;stroke-width:0.565977;stroke-linecap:butt;stroke-linejoin:miter;stroke-miterlimit:4;stroke-dasharray:none;stroke-opacity:1"
     d="m 204.84843,80.570358 c -0.073,-0.636 1.02,-2.251 1.348,-3.823 0.224,-1.062 1.828,-3.286 1.969,-4.36 0.131,-0.989 0.287,-1.426 1.432,-1.473 0.683,-0.027 2.016,0.364 2.058,0.875 0.104,1.188 -0.192,2.088 -0.73,3.005 -0.609,1.057 -2.516,3.76 -2.916,4.224 -0.989,1.156 -1.021,1.891 -1.256,2.224 -0.437,0.625 -0.786,0.609 -1.254,0.411 -0.88,-0.375 -0.651,-1.083 -0.651,-1.083 z"
     id="path92" />
  <path
     style="fill:#231f20;fill-opacity:1;fill-rule:nonzero;stroke:none"
     d="m 208.84343,72.439358 c -1.1,-0.697 0.29,-2.186 0.593,-2.629 0.307,-0.453 1.031,-1.833 1.459,-2.975 0.426,-1.15 1.453,-2.401 2.27,-4.578 0.427,-1.146 1.574,-1.984 3.208,-1.291 1.615,0.687 1.839,1.853 1.104,3.161 -0.718,1.307 -1.962,2.23 -2.786,3.495 -0.828,1.26 -1.552,2.631 -2.067,3.729 -0.589,1.25 -1.344,1.656 -1.819,1.63 -1.197,-0.042 -1.962,-0.542 -1.962,-0.542"
     id="path93" />
  <path
     style="fill:none;stroke:#231f20;stroke-width:0.565977;stroke-linecap:butt;stroke-linejoin:miter;stroke-miterlimit:4;stroke-dasharray:none;stroke-opacity:1"
     d="m 208.84343,72.439358 c -1.1,-0.697 0.29,-2.186 0.593,-2.629 0.307,-0.453 1.031,-1.833 1.459,-2.975 0.426,-1.15 1.453,-2.401 2.27,-4.578 0.427,-1.146 1.574,-1.984 3.208,-1.291 1.615,0.687 1.839,1.853 1.104,3.161 -0.718,1.307 -1.962,2.23 -2.786,3.495 -0.828,1.26 -1.552,2.631 -2.067,3.729 -0.589,1.25 -1.344,1.656 -1.819,1.63 -1.197,-0.042 -1.962,-0.542 -1.962,-0.542 z"
     id="path94" />
  <path
     style="fill:#231f20;fill-opacity:1;fill-rule:nonzero;stroke:none"
     d="m 245.01543,48.090358 c 1.38,1.792 1.896,1.954 2.686,1.418 0.538,-0.36 1.147,-0.5 1.475,-0.698 1.115,-0.672 2.708,-2.266 6.052,-7.938 0.749,-1.286 1.828,-3.083 2.328,-3.782 0.776,-1.104 -1.589,-1.666 -1.901,-1.228 -1.011,1.391 -1.818,2.255 -2.246,2.703 -0.296,0.312 -0.744,0.927 -2.046,1.969 -1.968,1.583 -3.38,2.239 -4.87,3.744 -0.693,0.703 -1.65,0.787 -1.973,1.818 -0.339,1.037 0.495,1.994 0.495,1.994"
     id="path95" />
  <path
     style="fill:none;stroke:#231f20;stroke-width:0.565977;stroke-linecap:butt;stroke-linejoin:miter;stroke-miterlimit:4;stroke-dasharray:none;stroke-opacity:1"
     d="m 245.01543,48.090358 c 1.38,1.792 1.896,1.954 2.686,1.418 0.538,-0.36 1.147,-0.5 1.475,-0.698 1.115,-0.672 2.708,-2.266 6.052,-7.938 0.749,-1.286 1.828,-3.083 2.328,-3.782 0.776,-1.104 -1.589,-1.666 -1.901,-1.228 -1.011,1.391 -1.818,2.255 -2.246,2.703 -0.296,0.312 -0.744,0.927 -2.046,1.969 -1.968,1.583 -3.38,2.239 -4.87,3.744 -0.693,0.703 -1.65,0.787 -1.973,1.818 -0.339,1.037 0.495,1.994 0.495,1.994 z"
     id="path96" />
  <path
     style="fill:#231f20;fill-opacity:1;fill-rule:nonzero;stroke:#231f20;stroke-width:0.565977;stroke-linecap:round;stroke-linejoin:round;stroke-miterlimit:4;stroke-dasharray:none;stroke-opacity:1"
     d="m 245.44143,45.628358 c -1.412,-0.178 -2.541,1.656 -2.833,1.833 -4.224,2.692 -4.464,2.995 -7.532,5.265 -4.447,3.292 -6.984,6.219 -5.832,9.364 0.796,2.141 2.165,3.021 3.484,3.057 1.463,0.032 4.312,-1.358 4.625,-4.238 l 1.062,-1.344 c 0.824,-0.817 1.229,-1.224 1.666,-1.599 0.772,-0.641 1.548,-1.38 2.975,-2.729 2.525,-2.38 4.416,-5.724 4.416,-5.724 0.224,-0.213 0.324,-0.48 0.344,-0.751"
     id="path97" />
  <path
     style="fill:#63c99d;fill-opacity:1;fill-rule:nonzero;stroke:#231f20;stroke-width:0.565977;stroke-linecap:butt;stroke-linejoin:miter;stroke-miterlimit:4;stroke-dasharray:none;stroke-opacity:1"
     d="m 232.67143,54.658358 c -0.511,0.418 -0.959,0.839 -1.375,1.251 -0.073,0.036 -0.141,0.068 -0.209,0.088 -0.771,0.245 -1.006,0.828 -1.344,1.813 -0.818,1.323 -1.094,2.656 -0.64,4.057 0.708,2.156 2.046,3.099 3.364,3.182 1.458,0.089 4.36,-1.198 4.781,-4.052 z"
     id="path98" />
  <path
     style="fill:#231f20;fill-opacity:1;fill-rule:nonzero;stroke:none"
     d="m 259.28543,35.445358 c 0.167,1.339 -0.718,1.808 -1.724,1.584 -0.302,-0.068 -0.636,0.192 -0.922,0.104 -0.672,-0.213 -1.432,-1.776 -0.291,-2.745 0.083,-0.074 0.52,-0.76 0.927,-1.23 0.806,-0.91 2.849,-2.348 5.5,-1.858 1.254,0.229 0.89,0.926 0.354,0.989 -1.704,0.192 -1.813,0.541 -2.24,0.755 -1.458,0.724 -1.604,2.401 -1.604,2.401"
     id="path99" />
  <path
     style="fill:none;stroke:#231f20;stroke-width:0.332927;stroke-linecap:butt;stroke-linejoin:miter;stroke-miterlimit:4;stroke-dasharray:none;stroke-opacity:1"
     d="m 259.28543,35.445358 c 0.167,1.339 -0.718,1.808 -1.724,1.584 -0.302,-0.068 -0.636,0.192 -0.922,0.104 -0.672,-0.213 -1.432,-1.776 -0.291,-2.745 0.083,-0.074 0.52,-0.76 0.927,-1.23 0.806,-0.91 2.849,-2.348 5.5,-1.858 1.254,0.229 0.89,0.926 0.354,0.989 -1.704,0.192 -1.813,0.541 -2.24,0.755 -1.458,0.724 -1.604,2.401 -1.604,2.401 z"
     id="path100" />
  <path
     style="fill:#231f20;fill-opacity:1;fill-rule:nonzero;stroke:none"
     d="m 207.77543,83.294358 c -0.412,1.099 -1.636,1.667 -2.74,1.255 -1.11,-0.406 -1.678,-1.635 -1.266,-2.739 0.407,-1.105 1.636,-1.667 2.746,-1.261 1.104,0.412 1.666,1.636 1.26,2.745"
     id="path101" />
  <path
     style="fill:#231f20;fill-opacity:1;fill-rule:nonzero;stroke:none"
     d="m 160.47843,83.481358 c -1.146,-0.266 -1.859,-1.411 -1.594,-2.558 0.271,-1.15 1.416,-1.858 2.563,-1.588 1.151,0.26 1.859,1.412 1.593,2.558 -0.27,1.145 -1.416,1.86 -2.562,1.588"
     id="path102" />
</svg>
