<?xml version="1.0" encoding="UTF-8" standalone="no"?>
<!-- Created with Inkscape (http://www.inkscape.org/) -->

<svg
   version="1.1"
   id="svg1"
   width="303.98633"
   height="144.33881"
   viewBox="0 0 303.98632 144.3388"
   sodipodi:docname="cell.svg"
   xmlns:inkscape="http://www.inkscape.org/namespaces/inkscape"
   xmlns:sodipodi="http://sodipodi.sourceforge.net/DTD/sodipodi-0.dtd"
   xmlns="http://www.w3.org/2000/svg"
   xmlns:svg="http://www.w3.org/2000/svg">
  <sodipodi:namedview
     id="namedview1"
     pagecolor="#ffffff"
     bordercolor="#000000"
     borderopacity="0.25"
     inkscape:showpageshadow="2"
     inkscape:pageopacity="0.0"
     inkscape:pagecheckerboard="0"
     inkscape:deskcolor="#d1d1d1">
    <inkscape:page
       x="0"
       y="0"
       inkscape:label="1"
       id="page1"
       width="303.98633"
       height="144.33881"
       margin="0"
       bleed="0" />
  </sodipodi:namedview>
  <defs
     id="defs1" />
  <path
     style="fill:#63c99d;fill-opacity:1;fill-rule:nonzero;stroke:none"
     d="m 52.514405,104.7498 c 3.129,-0.142 3.817,0.166 4.682,0.489 5.416,2.016 6.307,-0.683 5.651,-3.484 -0.761,-3.308003 -0.975,-4.511003 -7.204,-3.620003 -1.739,0.254 -8.504,0.334 -8.504,0.334 -2.433,-0.298 -4.958,0.707 -5.724,1.947003 -0.797,1.312 -0.385,0.854 -0.901,2.197 -0.5,1.287 -0.147,3.443 0.911,4.079 1.021,0.61 2.49,-0.177 4.75,-1.037 1.792,-0.681 6.339,-0.905 6.339,-0.905"
     id="path604" />
  <path
     style="fill:none;stroke:#231f20;stroke-width:0.565977;stroke-linecap:butt;stroke-linejoin:miter;stroke-miterlimit:4;stroke-dasharray:none;stroke-opacity:1"
     d="m 52.514405,104.7498 c 3.129,-0.142 3.817,0.166 4.682,0.489 5.416,2.016 6.307,-0.683 5.651,-3.484 -0.761,-3.308003 -0.975,-4.511003 -7.204,-3.620003 -1.739,0.254 -8.504,0.334 -8.504,0.334 -2.433,-0.298 -4.958,0.707 -5.724,1.947003 -0.797,1.312 -0.385,0.854 -0.901,2.197 -0.5,1.287 -0.147,3.443 0.911,4.079 1.021,0.61 2.49,-0.177 4.75,-1.037 1.792,-0.681 6.339,-0.905 6.339,-0.905 z"
     id="path605" />
  <path
     style="fill:#ffffff;fill-opacity:1;fill-rule:nonzero;stroke:none"
     d="m 34.806405,99.935797 c -0.245,-0.014 -0.453,-1.15 -0.969,-1.098 -0.527,0.057 -0.64,0.838 -2.339,1.869003 l -0.021,0.01 c -1.266,0.719 -2.078,1.845 -2.047,3.099 0.052,2.079 2.38,3.699 5.199,3.642 2.828,-0.074 5.072,-1.818 5.025,-3.891 -0.047,-1.984 -2.187,-3.563 -4.848,-3.631003"
     id="path606" />
  <path
     style="fill:none;stroke:#231f20;stroke-width:0.565977;stroke-linecap:butt;stroke-linejoin:miter;stroke-miterlimit:4;stroke-dasharray:none;stroke-opacity:1"
     d="m 34.806405,99.935797 c -0.245,-0.014 -0.453,-1.15 -0.969,-1.098 -0.527,0.057 -0.64,0.838 -2.339,1.869003 l -0.021,0.01 c -1.266,0.719 -2.078,1.845 -2.047,3.099 0.052,2.079 2.38,3.699 5.199,3.642 2.828,-0.074 5.072,-1.818 5.025,-3.891 -0.047,-1.984 -2.187,-3.563 -4.848,-3.631003 z"
     id="path607" />
  <path
     style="fill:#231f20;fill-opacity:1;fill-rule:nonzero;stroke:none"
     d="m 58.148405,65.482796 c 1.126,0.745 0.907,1.72 0.079,2.339 -0.251,0.188 -0.265,0.605 -0.521,0.772 -0.599,0.369 -2.282,-0.074 -2.271,-1.574 0,-0.104 -0.239,-0.89 -0.328,-1.5 -0.167,-1.202 0.068,-3.688 2.161,-5.385 0.995,-0.803 1.287,-0.068 0.986,0.38 -0.964,1.412 -0.772,1.724 -0.882,2.192 -0.405,1.573 0.776,2.776 0.776,2.776"
     id="path608" />
  <path
     style="fill:none;stroke:#231f20;stroke-width:0.332927;stroke-linecap:butt;stroke-linejoin:miter;stroke-miterlimit:4;stroke-dasharray:none;stroke-opacity:1"
     d="m 58.148405,65.482796 c 1.126,0.745 0.907,1.72 0.079,2.339 -0.251,0.188 -0.265,0.605 -0.521,0.772 -0.599,0.369 -2.282,-0.074 -2.271,-1.574 0,-0.104 -0.239,-0.89 -0.328,-1.5 -0.167,-1.202 0.068,-3.688 2.161,-5.385 0.995,-0.803 1.287,-0.068 0.986,0.38 -0.964,1.412 -0.772,1.724 -0.882,2.192 -0.405,1.573 0.776,2.776 0.776,2.776 z"
     id="path609" />
  <path
     style="fill:#231f20;fill-opacity:1;fill-rule:nonzero;stroke:none"
     d="m 58.071405,84.691797 c 2.265,0.115 2.719,-0.172 2.823,-1.125 0.082,-0.636 0.364,-1.193001 0.432,-1.574001 0.213,-1.275 0.046,-3.525 -2.088,-9.754 -0.49,-1.407 -1.152,-3.396 -1.36,-4.229 -0.334,-1.312 -2.296,0.12 -2.172,0.645 0.401,1.667 0.537,2.844 0.594,3.464 0.042,0.427 0.219,1.167 0.167,2.833 -0.079,2.527 -0.505,4.027 -0.324,6.136 0.079,0.979 -0.479,1.765 0.095,2.682001 0.568,0.933 1.833,0.922 1.833,0.922"
     id="path610" />
  <path
     style="fill:none;stroke:#231f20;stroke-width:0.565977;stroke-linecap:butt;stroke-linejoin:miter;stroke-miterlimit:4;stroke-dasharray:none;stroke-opacity:1"
     d="m 58.071405,84.691797 c 2.265,0.115 2.719,-0.172 2.823,-1.125 0.082,-0.636 0.364,-1.193001 0.432,-1.574001 0.213,-1.275 0.046,-3.525 -2.088,-9.754 -0.49,-1.407 -1.152,-3.396 -1.36,-4.229 -0.334,-1.312 -2.296,0.12 -2.172,0.645 0.401,1.667 0.537,2.844 0.594,3.464 0.042,0.427 0.219,1.167 0.167,2.833 -0.079,2.527 -0.505,4.027 -0.324,6.136 0.079,0.979 -0.479,1.765 0.095,2.682001 0.568,0.933 1.833,0.922 1.833,0.922 z"
     id="path611" />
  <path
     style="fill:#231f20;fill-opacity:1;fill-rule:nonzero;stroke:#231f20;stroke-width:0.565977;stroke-linecap:round;stroke-linejoin:round;stroke-miterlimit:4;stroke-dasharray:none;stroke-opacity:1"
     d="m 56.476405,82.759796 c -1.046,0.957001 -0.39,3.010001 -0.442,3.348001 -0.708,4.964 -0.63,5.333 -0.906,9.142 -0.39,5.520003 0.182,9.353003 3.323,10.525003 2.136,0.787 3.703,0.318 4.583,-0.656 0.974,-1.088 1.772,-4.167 -0.203,-6.276003 l -0.333,-1.678 c -0.088,-1.161 -0.135,-1.734 -0.135,-2.306 0.02,-1 -0.043,-2.079 -0.131,-4.032 -0.172,-3.468 -1.474,-7.083 -1.474,-7.083 -0.026,-0.308 -0.162,-0.552 -0.354,-0.745"
     id="path612" />
  <path
     style="fill:#63c99d;fill-opacity:1;fill-rule:nonzero;stroke:none"
     d="m 62.863405,98.930797 -7.787,-0.635 c -0.073,3.760003 0.708,6.380003 3.151,7.391003 2.099,0.864 3.688,0.463 4.604,-0.48 1.021,-1.047 1.927,-4.094 0.032,-6.276003"
     id="path613" />
  <path
     style="fill:none;stroke:#231f20;stroke-width:0.565977;stroke-linecap:butt;stroke-linejoin:miter;stroke-miterlimit:4;stroke-dasharray:none;stroke-opacity:1"
     d="m 62.863405,98.930797 -7.787,-0.635 c -0.073,3.760003 0.708,6.380003 3.151,7.391003 2.099,0.864 3.688,0.463 4.604,-0.48 1.021,-1.047 1.927,-4.094 0.032,-6.276003 z"
     id="path614" />
  <path
     style="fill:#231f20;fill-opacity:1;fill-rule:nonzero;stroke:none"
     d="m 49.233405,82.915797 c -0.522,0.375 -0.959,2.276 -1.891,3.583 -0.636,0.885 -1.172,3.578 -1.869,4.406 -0.636,0.771 -0.855,1.178 -0.106,2.053 0.443,0.521 1.631,1.234 2.038,0.916 0.937,-0.728 1.401,-1.552 1.713,-2.578 0.359,-1.161 1.047,-4.401 1.12,-5.005 0.172,-1.516 0.692,-2.036 0.781,-2.432 0.156,-0.745 -0.094,-0.989001 -0.546,-1.199001 -0.882,-0.396 -1.24,0.256001 -1.24,0.256001"
     id="path615" />
  <path
     style="fill:none;stroke:#231f20;stroke-width:0.565977;stroke-linecap:butt;stroke-linejoin:miter;stroke-miterlimit:4;stroke-dasharray:none;stroke-opacity:1"
     d="m 49.233405,82.915797 c -0.522,0.375 -0.959,2.276 -1.891,3.583 -0.636,0.885 -1.172,3.578 -1.869,4.406 -0.636,0.771 -0.855,1.178 -0.106,2.053 0.443,0.521 1.631,1.234 2.038,0.916 0.937,-0.728 1.401,-1.552 1.713,-2.578 0.359,-1.161 1.047,-4.401 1.12,-5.005 0.172,-1.516 0.692,-2.036 0.781,-2.432 0.156,-0.745 -0.094,-0.989001 -0.546,-1.199001 -0.882,-0.396 -1.24,0.256001 -1.24,0.256001 z"
     id="path616" />
  <path
     style="fill:#231f20;fill-opacity:1;fill-rule:nonzero;stroke:none"
     d="m 45.790405,92.159797 c -1.256,-0.333 -1.407,1.699 -1.527,2.224 -0.12,0.532 -0.64,1.995 -1.192,3.085 -0.557,1.098 -0.776,2.696003 -1.817,4.775003 -0.553,1.094 -0.396,2.506 1.223,3.235 1.6,0.719 2.609,0.088 3.073,-1.333 0.469,-1.423 0.303,-2.954 0.672,-4.418003 0.365,-1.468 0.88,-2.926 1.339,-4.057 0.516,-1.282 0.302,-2.104 -0.036,-2.437 -0.844,-0.855 -1.735,-1.074 -1.735,-1.074"
     id="path617" />
  <path
     style="fill:none;stroke:#231f20;stroke-width:0.565977;stroke-linecap:butt;stroke-linejoin:miter;stroke-miterlimit:4;stroke-dasharray:none;stroke-opacity:1"
     d="m 45.790405,92.159797 c -1.256,-0.333 -1.407,1.699 -1.527,2.224 -0.12,0.532 -0.64,1.995 -1.192,3.085 -0.557,1.098 -0.776,2.696003 -1.817,4.775003 -0.553,1.094 -0.396,2.506 1.223,3.235 1.6,0.719 2.609,0.088 3.073,-1.333 0.469,-1.423 0.303,-2.954 0.672,-4.418003 0.365,-1.468 0.88,-2.926 1.339,-4.057 0.516,-1.282 0.302,-2.104 -0.036,-2.437 -0.844,-0.855 -1.735,-1.074 -1.735,-1.074 z"
     id="path618" />
  <path
     style="fill:#231f20;fill-opacity:1;fill-rule:nonzero;stroke:none"
     d="m 124.6594,73.545796 c 0.729,0.089 3.896,-0.64 4.609,-0.843 0.642,-0.177 1.798,-0.12 2,-1.256 0.084,-0.463 -0.12,-1.187 -0.286,-1.468 -0.13,-0.219 -0.463,-0.235 -0.828,-0.09 -0.624,0.23 -0.708,0.542 -1.88,1.063 0,0 -0.26,0.167 -0.698,0.49 -1.322,0.958 -0.656,0.661 -2.876,1.62 -0.156,0.068 -0.197,0.276 -0.145,0.38 0.084,0.156 0.104,0.104 0.104,0.104"
     id="path619" />
  <path
     style="fill:none;stroke:#231f20;stroke-width:0.565977;stroke-linecap:round;stroke-linejoin:round;stroke-miterlimit:4;stroke-dasharray:none;stroke-opacity:1"
     d="m 124.6594,73.545796 c 0.729,0.089 3.896,-0.64 4.609,-0.843 0.642,-0.177 1.798,-0.12 2,-1.256 0.084,-0.463 -0.12,-1.187 -0.286,-1.468 -0.13,-0.219 -0.463,-0.235 -0.828,-0.09 -0.624,0.23 -0.708,0.542 -1.88,1.063 0,0 -0.26,0.167 -0.698,0.49 -1.322,0.958 -0.656,0.661 -2.876,1.62 -0.156,0.068 -0.197,0.276 -0.145,0.38 0.084,0.156 0.104,0.104 0.104,0.104 z"
     id="path620" />
  <path
     style="fill:#63c99d;fill-opacity:1;fill-rule:nonzero;stroke:none"
     d="m 254.9814,94.749797 c -1.634,2.666 -2.281,3.062 -3.03,3.598 -4.708,3.350003 -2.979,5.599003 -0.287,6.631003 3.161,1.228 4.276,1.724 7.036,-3.928 0.772,-1.577003 4.5,-7.229003 4.5,-7.229003 1.609,-1.843 2.204,-4.5 1.6,-5.829 -0.636,-1.395 -0.491,-0.795 -1.308,-1.978 -0.787,-1.136 -2.771,-2.052 -3.891,-1.532 -1.077,0.501 -1.249,2.157 -1.812,4.516 -0.442,1.86 -2.808,5.751 -2.808,5.751"
     id="path621" />
  <path
     style="fill:none;stroke:#231f20;stroke-width:0.565977;stroke-linecap:butt;stroke-linejoin:miter;stroke-miterlimit:4;stroke-dasharray:none;stroke-opacity:1"
     d="m 254.9814,94.749797 c -1.634,2.666 -2.281,3.062 -3.03,3.598 -4.708,3.350003 -2.979,5.599003 -0.287,6.631003 3.161,1.228 4.276,1.724 7.036,-3.928 0.772,-1.577003 4.5,-7.229003 4.5,-7.229003 1.609,-1.843 2.204,-4.5 1.6,-5.829 -0.636,-1.395 -0.491,-0.795 -1.308,-1.978 -0.787,-1.136 -2.771,-2.052 -3.891,-1.532 -1.077,0.501 -1.249,2.157 -1.812,4.516 -0.442,1.86 -2.808,5.751 -2.808,5.751 z"
     id="path622" />
  <path
     style="fill:#231f20;fill-opacity:1;fill-rule:nonzero;stroke:none"
     d="m 264.5764,116.2598 c -1.896,1.239 -2.1,1.739 -1.62,2.567 0.312,0.562 0.411,1.183 0.583,1.532 0.578,1.151 2.048,2.869 7.437,6.634 1.224,0.85 2.944,2.063 3.595,2.615 1.041,0.866 1.786,-1.453 1.374,-1.801 -1.302,-1.109 -2.104,-1.98 -2.526,-2.448 -0.28,-0.319 -0.864,-0.808 -1.802,-2.188 -1.426,-2.088 -1.969,-3.547 -3.364,-5.14 -0.636,-0.751 -0.652,-1.709 -1.657,-2.115 -1.005,-0.412 -2.02,0.344 -2.02,0.344"
     id="path623" />
  <path
     style="fill:none;stroke:#231f20;stroke-width:0.565977;stroke-linecap:butt;stroke-linejoin:miter;stroke-miterlimit:4;stroke-dasharray:none;stroke-opacity:1"
     d="m 264.5764,116.2598 c -1.896,1.239 -2.1,1.739 -1.62,2.567 0.312,0.562 0.411,1.183 0.583,1.532 0.578,1.151 2.048,2.869 7.437,6.634 1.224,0.85 2.944,2.063 3.595,2.615 1.041,0.866 1.786,-1.453 1.374,-1.801 -1.302,-1.109 -2.104,-1.98 -2.526,-2.448 -0.28,-0.319 -0.864,-0.808 -1.802,-2.188 -1.426,-2.088 -1.969,-3.547 -3.364,-5.14 -0.636,-0.751 -0.652,-1.709 -1.657,-2.115 -1.005,-0.412 -2.02,0.344 -2.02,0.344 z"
     id="path624" />
  <path
     style="fill:#231f20;fill-opacity:1;fill-rule:nonzero;stroke:#231f20;stroke-width:0.565977;stroke-linecap:round;stroke-linejoin:round;stroke-miterlimit:4;stroke-dasharray:none;stroke-opacity:1"
     d="m 267.0034,116.8738 c 0.281,-1.391 -1.459,-2.662 -1.615,-2.958 -2.359,-4.428 -2.645,-4.682 -4.672,-7.923 -2.937,-4.681 -5.667,-7.442003 -8.891,-6.535003 -2.186,0.625003 -3.177,1.931003 -3.312,3.240003 -0.146,1.452 1.026,4.405 3.864,4.942 l 1.262,1.156 c 0.754,0.891 1.134,1.323 1.473,1.787 0.579,0.817 1.255,1.656 2.484,3.172 2.183,2.703 5.365,4.853 5.365,4.853 0.203,0.235 0.458,0.35 0.73,0.391"
     id="path625" />
  <path
     style="fill:#63c99d;fill-opacity:1;fill-rule:nonzero;stroke:none"
     d="m 257.8934,102.1188 c -0.057,-0.12 -0.104,-0.24 -0.136,-0.355 -0.192,-0.842 -0.817,-1.099 -1.91,-1.566 -1.194,-0.814003 -2.438,-1.131003 -3.792,-0.803003 -2.203,0.541 -3.246,1.808003 -3.432,3.109003 -0.204,1.448 0.864,4.443 3.677,5.084 l 6.667,-4.078 c -0.36,-0.511 -0.714,-0.964 -1.074,-1.391"
     id="path626" />
  <path
     style="fill:none;stroke:#231f20;stroke-width:0.565977;stroke-linecap:butt;stroke-linejoin:miter;stroke-miterlimit:4;stroke-dasharray:none;stroke-opacity:1"
     d="m 257.8934,102.1188 c -0.057,-0.12 -0.104,-0.24 -0.136,-0.355 -0.192,-0.842 -0.817,-1.099 -1.91,-1.566 -1.194,-0.814003 -2.438,-1.131003 -3.792,-0.803003 -2.203,0.541 -3.246,1.808003 -3.432,3.109003 -0.204,1.448 0.864,4.443 3.677,5.084 l 6.667,-4.078 c -0.36,-0.511 -0.714,-0.964 -1.074,-1.391 z"
     id="path627" />
  <path
     style="fill:#231f20;fill-opacity:1;fill-rule:nonzero;stroke:none"
     d="m 275.8474,131.8068 c -1.35,0.067 -1.746,-0.844 -1.443,-1.839 0.083,-0.297 -0.147,-0.646 -0.032,-0.922 0.261,-0.662 1.881,-1.296 2.756,-0.072 0.068,0.082 0.719,0.572 1.156,1.01 0.839,0.875 2.12,3.02 1.427,5.624 -0.328,1.235 -0.995,0.813 -1.015,0.276 -0.057,-1.713 -0.396,-1.848 -0.584,-2.296 -0.599,-1.511 -2.265,-1.781 -2.265,-1.781"
     id="path628" />
  <path
     style="fill:none;stroke:#231f20;stroke-width:0.332927;stroke-linecap:butt;stroke-linejoin:miter;stroke-miterlimit:4;stroke-dasharray:none;stroke-opacity:1"
     d="m 275.8474,131.8068 c -1.35,0.067 -1.746,-0.844 -1.443,-1.839 0.083,-0.297 -0.147,-0.646 -0.032,-0.922 0.261,-0.662 1.881,-1.296 2.756,-0.072 0.068,0.082 0.719,0.572 1.156,1.01 0.839,0.875 2.12,3.02 1.427,5.624 -0.328,1.235 -0.995,0.813 -1.015,0.276 -0.057,-1.713 -0.396,-1.848 -0.584,-2.296 -0.599,-1.511 -2.265,-1.781 -2.265,-1.781 z"
     id="path629" />
  <path
     style="fill:#ffffff;fill-opacity:1;fill-rule:nonzero;stroke:none"
     d="m 269.3314,84.175797 c 0.208,-0.136 1.046,0.656 1.432,0.307 0.39,-0.354 0.016,-1.061 0.77,-2.895001 l 0.006,-0.021 c 0.594,-1.328 0.578,-2.719 -0.192,-3.708 -1.282,-1.636 -4.12,-1.558 -6.344,0.172 -2.24,1.733 -3.006,4.468 -1.73,6.115001 1.219,1.566 3.88,1.561 6.058,0.03"
     id="path630" />
  <path
     style="fill:none;stroke:#231f20;stroke-width:0.565977;stroke-linecap:butt;stroke-linejoin:miter;stroke-miterlimit:4;stroke-dasharray:none;stroke-opacity:1"
     d="m 269.3314,84.175797 c 0.208,-0.136 1.046,0.656 1.432,0.307 0.39,-0.354 0.016,-1.061 0.77,-2.895001 l 0.006,-0.021 c 0.594,-1.328 0.578,-2.719 -0.192,-3.708 -1.282,-1.636 -4.12,-1.558 -6.344,0.172 -2.24,1.733 -3.006,4.468 -1.73,6.115001 1.219,1.566 3.88,1.561 6.058,0.03 z"
     id="path631" />
  <path
     style="fill:#231f20;fill-opacity:1;fill-rule:nonzero;stroke:none"
     d="m 281.4724,82.926797 c -0.407,0.495 -2.329,0.817 -3.693,1.666 -0.922,0.578 -3.64,0.953 -4.511,1.599 -0.807,0.589 -1.224,0.782 -2.052,-0.021 -0.489,-0.473 -1.131,-1.708 -0.797,-2.088 0.792,-0.891 1.646,-1.302001 2.677,-1.552001 1.188,-0.287 4.464,-0.776 5.073,-0.814 1.516,-0.077 2.074,-0.567 2.474,-0.629 0.75,-0.109 0.98,0.151 1.162,0.619 0.343,0.896 -0.333,1.220001 -0.333,1.220001"
     id="path632" />
  <path
     style="fill:none;stroke:#231f20;stroke-width:0.565977;stroke-linecap:butt;stroke-linejoin:miter;stroke-miterlimit:4;stroke-dasharray:none;stroke-opacity:1"
     d="m 281.4724,82.926797 c -0.407,0.495 -2.329,0.817 -3.693,1.666 -0.922,0.578 -3.64,0.953 -4.511,1.599 -0.807,0.589 -1.224,0.782 -2.052,-0.021 -0.489,-0.473 -1.131,-1.708 -0.797,-2.088 0.792,-0.891 1.646,-1.302001 2.677,-1.552001 1.188,-0.287 4.464,-0.776 5.073,-0.814 1.516,-0.077 2.074,-0.567 2.474,-0.629 0.75,-0.109 0.98,0.151 1.162,0.619 0.343,0.896 -0.333,1.220001 -0.333,1.220001 z"
     id="path633" />
  <path
     style="fill:#231f20;fill-opacity:1;fill-rule:nonzero;stroke:none"
     d="m 272.8414,85.670797 c 0.255,1.27 -1.786,1.303 -2.312,1.385 -0.542,0.09 -2.037,0.516 -3.157,1.006 -1.124,0.478 -2.739,0.603 -4.875,1.515 -1.125,0.49 -2.525,0.245 -3.15,-1.417 -0.62,-1.64 0.068,-2.609 1.516,-2.989 1.442,-0.375 2.962,-0.12 4.452,-0.396 1.48,-0.276 2.974,-0.698 4.125,-1.088 1.312,-0.437 2.12,-0.177 2.437,0.187 0.792,0.896 0.964,1.797 0.964,1.797"
     id="path634" />
  <path
     style="fill:none;stroke:#231f20;stroke-width:0.565977;stroke-linecap:butt;stroke-linejoin:miter;stroke-miterlimit:4;stroke-dasharray:none;stroke-opacity:1"
     d="m 272.8414,85.670797 c 0.255,1.27 -1.786,1.303 -2.312,1.385 -0.542,0.09 -2.037,0.516 -3.157,1.006 -1.124,0.478 -2.739,0.603 -4.875,1.515 -1.125,0.49 -2.525,0.245 -3.15,-1.417 -0.62,-1.64 0.068,-2.609 1.516,-2.989 1.442,-0.375 2.962,-0.12 4.452,-0.396 1.48,-0.276 2.974,-0.698 4.125,-1.088 1.312,-0.437 2.12,-0.177 2.437,0.187 0.792,0.896 0.964,1.797 0.964,1.797 z"
     id="path635" />
  <path
     style="fill:#ffffff;fill-opacity:1;fill-rule:nonzero;stroke:none"
     d="m 282.5554,82.035796 c -0.688,0 -1.246,0.552 -1.246,1.234001 V 142.4108 c 0,0.686 0.558,1.244 1.246,1.244 0.682,0 1.234,-0.558 1.234,-1.244 V 83.269797 c 0,-0.682001 -0.552,-1.234001 -1.234,-1.234001"
     id="path636" />
  <path
     style="fill:none;stroke:#231f20;stroke-width:0.665856;stroke-linecap:butt;stroke-linejoin:miter;stroke-miterlimit:4;stroke-dasharray:none;stroke-opacity:1"
     d="m 282.5554,82.035796 c -0.688,0 -1.246,0.552 -1.246,1.234001 V 142.4108 c 0,0.686 0.558,1.244 1.246,1.244 0.682,0 1.234,-0.558 1.234,-1.244 V 83.269797 c 0,-0.682001 -0.552,-1.234001 -1.234,-1.234001 z"
     id="path637" />
  <path
     style="fill:#ffffff;fill-opacity:1;fill-rule:nonzero;stroke:none"
     d="m 168.7164,81.957796 c -0.686,0 -1.244,0.557 -1.244,1.240001 V 142.3378 c 0,0.688 0.558,1.239 1.244,1.239 0.683,0 1.24,-0.551 1.24,-1.239 V 83.197797 c 0,-0.683001 -0.557,-1.240001 -1.24,-1.240001"
     id="path639" />
  <path
     style="fill:none;stroke:#231f20;stroke-width:0.665856;stroke-linecap:butt;stroke-linejoin:miter;stroke-miterlimit:4;stroke-dasharray:none;stroke-opacity:1"
     d="m 168.7164,81.957796 c -0.686,0 -1.244,0.557 -1.244,1.240001 V 142.3378 c 0,0.688 0.558,1.239 1.244,1.239 0.683,0 1.24,-0.551 1.24,-1.239 V 83.197797 c 0,-0.683001 -0.557,-1.240001 -1.24,-1.240001 z"
     id="path640" />
  <path
     style="fill:#63c99d;fill-opacity:1;fill-rule:nonzero;stroke:none"
     d="m 169.9514,50.259796 c 0.208,-3.13 0.599,-3.781 1.016,-4.6 2.62,-5.156 0.036,-6.342 -2.824,-6.009 -3.369,0.38 -4.588,0.452 -4.416,6.744 0.057,1.755 -0.631,8.489 -0.631,8.489 -0.572,2.386 0.136,5.011 1.287,5.907 1.213,0.943 0.803,0.479 2.079,1.151 1.218,0.641 3.401,0.532 4.156,-0.448 0.718,-0.943 0.104,-2.495 -0.49,-4.839 -0.474,-1.853 -0.177,-6.395 -0.177,-6.395"
     id="path642" />
  <path
     style="fill:none;stroke:#231f20;stroke-width:0.565977;stroke-linecap:butt;stroke-linejoin:miter;stroke-miterlimit:4;stroke-dasharray:none;stroke-opacity:1"
     d="m 169.9514,50.259796 c 0.208,-3.13 0.599,-3.781 1.016,-4.6 2.62,-5.156 0.036,-6.342 -2.824,-6.009 -3.369,0.38 -4.588,0.452 -4.416,6.744 0.057,1.755 -0.631,8.489 -0.631,8.489 -0.572,2.386 0.136,5.011 1.287,5.907 1.213,0.943 0.803,0.479 2.079,1.151 1.218,0.641 3.401,0.532 4.156,-0.448 0.718,-0.943 0.104,-2.495 -0.49,-4.839 -0.474,-1.853 -0.177,-6.395 -0.177,-6.395 z"
     id="path643" />
  <path
     style="fill:#ffffff;fill-opacity:1;fill-rule:nonzero;stroke:none"
     d="m 167.5344,70.566796 c 0.157,0.188 -0.5,1.136 -0.094,1.464 0.412,0.333 1.047,-0.147 2.979,0.333 l 0.021,0.006 c 1.396,0.39 2.771,0.166 3.636,-0.74 1.432,-1.511 0.932,-4.308 -1.104,-6.251 -2.048,-1.952 -4.87,-2.307 -6.297,-0.807 -1.375,1.432 -0.979,4.068 0.859,5.995"
     id="path644" />
  <path
     style="fill:none;stroke:#231f20;stroke-width:0.565977;stroke-linecap:butt;stroke-linejoin:miter;stroke-miterlimit:4;stroke-dasharray:none;stroke-opacity:1"
     d="m 167.5344,70.566796 c 0.157,0.188 -0.5,1.136 -0.094,1.464 0.412,0.333 1.047,-0.147 2.979,0.333 l 0.021,0.006 c 1.396,0.39 2.771,0.166 3.636,-0.74 1.432,-1.511 0.932,-4.308 -1.104,-6.251 -2.048,-1.952 -4.87,-2.307 -6.297,-0.807 -1.375,1.432 -0.979,4.068 0.859,5.995 z"
     id="path645" />
  <path
     style="fill:#231f20;fill-opacity:1;fill-rule:nonzero;stroke:none"
     d="m 167.3264,79.858796 c -0.391,-0.511 -0.276,-2.459 -0.802,-3.975 -0.354,-1.031 -0.114,-3.76 -0.542,-4.754 -0.391,-0.918 -0.49,-1.37 0.48,-1.995 0.568,-0.375 1.91,-0.724 2.208,-0.308 0.693,0.969 0.906,1.885 0.917,2.959 0.015,1.213 -0.24,4.515 -0.344,5.12 -0.261,1.5 0.093,2.145 0.063,2.552 -0.058,0.76 -0.366,0.921 -0.86,0.994 -0.959,0.131 -1.12,-0.593 -1.12,-0.593"
     id="path646" />
  <path
     style="fill:none;stroke:#231f20;stroke-width:0.565977;stroke-linecap:butt;stroke-linejoin:miter;stroke-miterlimit:4;stroke-dasharray:none;stroke-opacity:1"
     d="m 167.3264,79.858796 c -0.391,-0.511 -0.276,-2.459 -0.802,-3.975 -0.354,-1.031 -0.114,-3.76 -0.542,-4.754 -0.391,-0.918 -0.49,-1.37 0.48,-1.995 0.568,-0.375 1.91,-0.724 2.208,-0.308 0.693,0.969 0.906,1.885 0.917,2.959 0.015,1.213 -0.24,4.515 -0.344,5.12 -0.261,1.5 0.093,2.145 0.063,2.552 -0.058,0.76 -0.366,0.921 -0.86,0.994 -0.959,0.131 -1.12,-0.593 -1.12,-0.593 z"
     id="path647" />
  <path
     style="fill:#231f20;fill-opacity:1;fill-rule:nonzero;stroke:none"
     d="m 166.5874,70.826796 c -1.297,-0.036 -0.871,-2.026 -0.839,-2.563 0.036,-0.546 -0.048,-2.098 -0.272,-3.301 -0.218,-1.208 0.022,-2.803 -0.394,-5.093 -0.219,-1.204 0.333,-2.511 2.088,-2.756 1.74,-0.235 2.53,0.65 2.573,2.15 0.047,1.496 -0.547,2.918 -0.604,4.428 -0.063,1.511 0.02,3.058 0.14,4.266 0.131,1.374 -0.307,2.109 -0.729,2.333 -1.052,0.573 -1.963,0.536 -1.963,0.536"
     id="path648" />
  <path
     style="fill:none;stroke:#231f20;stroke-width:0.565977;stroke-linecap:butt;stroke-linejoin:miter;stroke-miterlimit:4;stroke-dasharray:none;stroke-opacity:1"
     d="m 166.5874,70.826796 c -1.297,-0.036 -0.871,-2.026 -0.839,-2.563 0.036,-0.546 -0.048,-2.098 -0.272,-3.301 -0.218,-1.208 0.022,-2.803 -0.394,-5.093 -0.219,-1.204 0.333,-2.511 2.088,-2.756 1.74,-0.235 2.53,0.65 2.573,2.15 0.047,1.496 -0.547,2.918 -0.604,4.428 -0.063,1.511 0.02,3.058 0.14,4.266 0.131,1.374 -0.307,2.109 -0.729,2.333 -1.052,0.573 -1.963,0.536 -1.963,0.536 z"
     id="path649" />
  <path
     style="fill:#231f20;fill-opacity:1;fill-rule:nonzero;stroke:none"
     d="m 169.6594,24.681796 c 2.208,0.489 2.704,0.281 2.969,-0.642 0.182,-0.613 0.558,-1.113 0.682,-1.478 0.428,-1.23 0.625,-3.474 -0.447,-9.968 -0.251,-1.47 -0.573,-3.5380004 -0.641,-4.3960004 -0.115,-1.35 -2.287,-0.256 -2.246,0.276 0.115,1.7080004 0.054,2.8960004 0.011,3.5140004 -0.031,0.428 0.021,1.188 -0.307,2.824 -0.494,2.474 -1.161,3.891 -1.328,6 -0.084,0.979 -0.765,1.662 -0.349,2.656 0.401,1.015 1.656,1.214 1.656,1.214"
     id="path650" />
  <path
     style="fill:none;stroke:#231f20;stroke-width:0.565977;stroke-linecap:butt;stroke-linejoin:miter;stroke-miterlimit:4;stroke-dasharray:none;stroke-opacity:1"
     d="m 169.6594,24.681796 c 2.208,0.489 2.704,0.281 2.969,-0.642 0.182,-0.613 0.558,-1.113 0.682,-1.478 0.428,-1.23 0.625,-3.474 -0.447,-9.968 -0.251,-1.47 -0.573,-3.5380004 -0.641,-4.3960004 -0.115,-1.35 -2.287,-0.256 -2.246,0.276 0.115,1.7080004 0.054,2.8960004 0.011,3.5140004 -0.031,0.428 0.021,1.188 -0.307,2.824 -0.494,2.474 -1.161,3.891 -1.328,6 -0.084,0.979 -0.765,1.662 -0.349,2.656 0.401,1.015 1.656,1.214 1.656,1.214 z"
     id="path651" />
  <path
     style="fill:#231f20;fill-opacity:1;fill-rule:nonzero;stroke:#231f20;stroke-width:0.565977;stroke-linecap:round;stroke-linejoin:round;stroke-miterlimit:4;stroke-dasharray:none;stroke-opacity:1"
     d="m 168.4044,22.514796 c -1.193,0.771 -0.885,2.901 -0.994,3.224 -1.511,4.781 -1.5,5.161 -2.402,8.869 -1.297,5.38 -1.365,9.262 1.542,10.928 1.974,1.135 3.598,0.927 4.63,0.11 1.14,-0.912 2.432,-3.814 0.834,-6.219 l -0.052,-1.709 c 0.104,-1.162 0.156,-1.734 0.249,-2.302 0.183,-0.985 0.303,-2.052 0.537,-3.994 0.4,-3.454 -0.286,-7.23 -0.286,-7.23 0.025,-0.308 -0.068,-0.573 -0.224,-0.792"
     id="path652" />
  <path
     style="fill:#63c99d;fill-opacity:1;fill-rule:nonzero;stroke:none"
     d="m 171.9824,39.555796 -7.572,-1.916 c -0.126,0.646 -0.199,1.25 -0.256,1.834 -0.031,0.072 -0.068,0.145 -0.104,0.208 -0.432,0.682 -0.235,1.276 0.136,2.245 0.218,1.541 0.858,2.744 2.109,3.531 1.927,1.193 3.563,1.062 4.62,0.281 1.171,-0.869 2.577,-3.719 1.067,-6.183"
     id="path653" />
  <path
     style="fill:none;stroke:#231f20;stroke-width:0.565977;stroke-linecap:butt;stroke-linejoin:miter;stroke-miterlimit:4;stroke-dasharray:none;stroke-opacity:1"
     d="m 171.9824,39.555796 -7.572,-1.916 c -0.126,0.646 -0.199,1.25 -0.256,1.834 -0.031,0.072 -0.068,0.145 -0.104,0.208 -0.432,0.682 -0.235,1.276 0.136,2.245 0.218,1.541 0.858,2.744 2.109,3.531 1.927,1.193 3.563,1.062 4.62,0.281 1.171,-0.869 2.577,-3.719 1.067,-6.183 z"
     id="path654" />
  <path
     style="fill:#231f20;fill-opacity:1;fill-rule:nonzero;stroke:none"
     d="m 172.4874,5.8217956 c 0.985,0.928 0.609,1.849 -0.307,2.324 -0.276,0.14 -0.36,0.552 -0.641,0.666 -0.645,0.276 -2.239,-0.438 -1.984,-1.917 0.021,-0.104 -0.083,-0.916 -0.068,-1.541 0.032,-1.214 0.672,-3.626 3.016,-4.94800004 1.115,-0.631 1.281,0.14 0.912,0.536 -1.183,1.23400004 -1.048,1.57300004 -1.235,2.01600004 -0.656,1.484 0.307,2.864 0.307,2.864"
     id="path655" />
  <path
     style="fill:none;stroke:#231f20;stroke-width:0.332927;stroke-linecap:butt;stroke-linejoin:miter;stroke-miterlimit:4;stroke-dasharray:none;stroke-opacity:1"
     d="m 172.4874,5.8217956 c 0.985,0.928 0.609,1.849 -0.307,2.324 -0.276,0.14 -0.36,0.552 -0.641,0.666 -0.645,0.276 -2.239,-0.438 -1.984,-1.917 0.021,-0.104 -0.083,-0.916 -0.068,-1.541 0.032,-1.214 0.672,-3.626 3.016,-4.94800004 1.115,-0.631 1.281,0.14 0.912,0.536 -1.183,1.23400004 -1.048,1.57300004 -1.235,2.01600004 -0.656,1.484 0.307,2.864 0.307,2.864 z"
     id="path656" />
  <path
     style="fill:#231f20;fill-opacity:1;fill-rule:nonzero;stroke:none"
     d="m 171.2274,80.691796 c 0.219,1.156 -0.541,2.271001 -1.703,2.484001 -1.157,0.219 -2.27,-0.547001 -2.485,-1.702001 -0.219,-1.156 0.548,-2.271 1.704,-2.49 1.161,-0.214 2.276,0.552 2.484,1.708"
     id="path657" />
  <path
     style="fill:#ffffff;fill-opacity:1;fill-rule:nonzero;stroke:none"
     d="m 81.790403,81.957796 c -0.688,0 -1.24,0.557 -1.24,1.240001 V 142.3378 c 0,0.688 0.552,1.239 1.24,1.239 0.686,0 1.24,-0.551 1.24,-1.239 V 83.197797 c 0,-0.683001 -0.554,-1.240001 -1.24,-1.240001"
     id="path658" />
  <path
     style="fill:none;stroke:#231f20;stroke-width:0.665856;stroke-linecap:butt;stroke-linejoin:miter;stroke-miterlimit:4;stroke-dasharray:none;stroke-opacity:1"
     d="m 81.790403,81.957796 c -0.688,0 -1.24,0.557 -1.24,1.240001 V 142.3378 c 0,0.688 0.552,1.239 1.24,1.239 0.686,0 1.24,-0.551 1.24,-1.239 V 83.197797 c 0,-0.683001 -0.554,-1.240001 -1.24,-1.240001 z"
     id="path659" />
  <path
     style="fill:#ffffff;fill-opacity:1;fill-rule:nonzero;stroke:none"
     d="m 24.810405,81.957796 c -0.681,0 -1.239,0.557 -1.239,1.240001 V 142.3378 c 0,0.688 0.558,1.239 1.239,1.239 0.688,0 1.24,-0.551 1.24,-1.239 V 83.197797 c 0,-0.683001 -0.552,-1.240001 -1.24,-1.240001"
     id="path661" />
  <path
     style="fill:none;stroke:#231f20;stroke-width:0.665856;stroke-linecap:butt;stroke-linejoin:miter;stroke-miterlimit:4;stroke-dasharray:none;stroke-opacity:1"
     d="m 24.810405,81.957796 c -0.681,0 -1.239,0.557 -1.239,1.240001 V 142.3378 c 0,0.688 0.558,1.239 1.239,1.239 0.688,0 1.24,-0.551 1.24,-1.239 V 83.197797 c 0,-0.683001 -0.552,-1.240001 -1.24,-1.240001 z"
     id="path662" />
  <path
     style="fill:#ffffff;fill-opacity:1;fill-rule:nonzero;stroke:none"
     d="m 51.030405,81.957796 c -0.688,0 -1.245,0.557 -1.245,1.240001 V 142.3378 c 0,0.688 0.557,1.239 1.245,1.239 0.681,0 1.233,-0.551 1.233,-1.239 V 83.197797 c 0,-0.683001 -0.552,-1.240001 -1.233,-1.240001"
     id="path664" />
  <path
     style="fill:none;stroke:#231f20;stroke-width:0.665856;stroke-linecap:butt;stroke-linejoin:miter;stroke-miterlimit:4;stroke-dasharray:none;stroke-opacity:1"
     d="m 51.030405,81.957796 c -0.688,0 -1.245,0.557 -1.245,1.240001 V 142.3378 c 0,0.688 0.557,1.239 1.245,1.239 0.681,0 1.233,-0.551 1.233,-1.239 V 83.197797 c 0,-0.683001 -0.552,-1.240001 -1.233,-1.240001 z"
     id="path665" />
  <path
     style="fill:#63c99d;fill-opacity:1;fill-rule:nonzero;stroke:none"
     d="m 97.476403,83.082797 c -1.312,-2.844001 -1.28,-3.600001 -1.306,-4.521001 -0.178,-5.776 -3.011,-5.583 -5.364,-3.922 -2.772,1.954 -3.803,2.599 -0.636,8.036 0.89,1.516001 3.51,7.755001 3.51,7.755001 0.64,2.365 2.52,4.329 3.963,4.562 1.516,0.251 0.933,0.043 2.370997,0.017 1.38,-0.022 3.244,-1.162 3.437,-2.386 0.183,-1.172 -1.104,-2.235 -2.751,-4.01 -1.300997,-1.402 -3.223997,-5.531 -3.223997,-5.531"
     id="path667" />
  <path
     style="fill:none;stroke:#231f20;stroke-width:0.565977;stroke-linecap:butt;stroke-linejoin:miter;stroke-miterlimit:4;stroke-dasharray:none;stroke-opacity:1"
     d="m 97.476403,83.082797 c -1.312,-2.844001 -1.28,-3.600001 -1.306,-4.521001 -0.178,-5.776 -3.011,-5.583 -5.364,-3.922 -2.772,1.954 -3.803,2.599 -0.636,8.036 0.89,1.516001 3.51,7.755001 3.51,7.755001 0.64,2.365 2.52,4.329 3.963,4.562 1.516,0.251 0.933,0.043 2.370997,0.017 1.38,-0.022 3.244,-1.162 3.437,-2.386 0.183,-1.172 -1.104,-2.235 -2.751,-4.01 -1.300997,-1.402 -3.223997,-5.531 -3.223997,-5.531 z"
     id="path668" />
  <path
     style="fill:#ffffff;fill-opacity:1;fill-rule:nonzero;stroke:none"
     d="m 105.0964,102.0668 c 0.23,0.088 0.104,1.235 0.62,1.328 0.516,0.093 0.844,-0.625 2.771,-1.135 l 0.021,-0.005 c 1.416,-0.328 2.511,-1.183 2.834,-2.396003 0.541,-2.006 -1.24,-4.224 -3.964,-4.954 -2.735,-0.729 -5.375,0.307 -5.916,2.307 -0.516,1.923 1.098,4.043003 3.634,4.855003"
     id="path669" />
  <path
     style="fill:none;stroke:#231f20;stroke-width:0.565977;stroke-linecap:butt;stroke-linejoin:miter;stroke-miterlimit:4;stroke-dasharray:none;stroke-opacity:1"
     d="m 105.0964,102.0668 c 0.23,0.088 0.104,1.235 0.62,1.328 0.516,0.093 0.844,-0.625 2.771,-1.135 l 0.021,-0.005 c 1.416,-0.328 2.511,-1.183 2.834,-2.396003 0.541,-2.006 -1.24,-4.224 -3.964,-4.954 -2.735,-0.729 -5.375,0.307 -5.916,2.307 -0.516,1.923 1.098,4.043003 3.634,4.855003 z"
     id="path670" />
  <path
     style="fill:#231f20;fill-opacity:1;fill-rule:nonzero;stroke:none"
     d="m 84.279403,80.383796 c 0.641,0 2.125,1.267 3.651,1.771 1.032,0.338 3.062,2.183001 4.114,2.443001 0.964,0.24 1.386,0.438 1.298,1.589 -0.042,0.677 -0.584,1.959 -1.094,1.942 -1.188,-0.031 -2.048,-0.422 -2.906,-1.057 -0.979,-0.724 -3.454,-2.926 -3.87,-3.369 -1.037,-1.120001 -1.766,-1.229001 -2.068,-1.500001 -0.573,-0.505 -0.516,-0.85 -0.27,-1.287 0.473,-0.839 1.145,-0.532 1.145,-0.532"
     id="path671" />
  <path
     style="fill:none;stroke:#231f20;stroke-width:0.565977;stroke-linecap:butt;stroke-linejoin:miter;stroke-miterlimit:4;stroke-dasharray:none;stroke-opacity:1"
     d="m 84.279403,80.383796 c 0.641,0 2.125,1.267 3.651,1.771 1.032,0.338 3.062,2.183001 4.114,2.443001 0.964,0.24 1.386,0.438 1.298,1.589 -0.042,0.677 -0.584,1.959 -1.094,1.942 -1.188,-0.031 -2.048,-0.422 -2.906,-1.057 -0.979,-0.724 -3.454,-2.926 -3.87,-3.369 -1.037,-1.120001 -1.766,-1.229001 -2.068,-1.500001 -0.573,-0.505 -0.516,-0.85 -0.27,-1.287 0.473,-0.839 1.145,-0.532 1.145,-0.532 z"
     id="path672" />
  <path
     style="fill:#231f20;fill-opacity:1;fill-rule:nonzero;stroke:none"
     d="m 91.920403,85.263797 c 0.812,-1.014 2.135,0.532 2.547,0.882 0.411,0.358 1.697,1.233 2.791,1.781 1.094,0.556 2.218,1.713 4.291997,2.771 1.093,0.552 1.802,1.781 0.932,3.328 -0.87,1.53 -2.052,1.62 -3.270997,0.749 -1.219,-0.87 -1.995,-2.203 -3.156,-3.162 -1.167,-0.962 -2.443,-1.838 -3.479,-2.473 -1.177,-0.724 -1.494,-1.516 -1.417,-1.99 0.177,-1.182 0.761,-1.886 0.761,-1.886"
     id="path673" />
  <path
     style="fill:none;stroke:#231f20;stroke-width:0.565977;stroke-linecap:butt;stroke-linejoin:miter;stroke-miterlimit:4;stroke-dasharray:none;stroke-opacity:1"
     d="m 91.920403,85.263797 c 0.812,-1.014 2.135,0.532 2.547,0.882 0.411,0.358 1.697,1.233 2.791,1.781 1.094,0.556 2.218,1.713 4.291997,2.771 1.093,0.552 1.802,1.781 0.932,3.328 -0.87,1.53 -2.052,1.62 -3.270997,0.749 -1.219,-0.87 -1.995,-2.203 -3.156,-3.162 -1.167,-0.962 -2.443,-1.838 -3.479,-2.473 -1.177,-0.724 -1.494,-1.516 -1.417,-1.99 0.177,-1.182 0.761,-1.886 0.761,-1.886 z"
     id="path674" />
  <path
     style="fill:#231f20;fill-opacity:1;fill-rule:nonzero;stroke:none"
     d="m 78.582403,65.238796 c 1.724,-1.469 1.853,-1.989 1.281,-2.756 -0.387,-0.515 -0.557,-1.113 -0.777,-1.437 -0.719,-1.078 -2.39,-2.588 -8.222998,-5.646 -1.324,-0.682 -3.172,-1.672 -3.896,-2.136 -1.141,-0.724 -1.579,1.667 -1.131,1.959 1.432,0.937 2.339,1.699 2.812,2.109 0.324,0.276 0.959,0.694 2.068,1.943 1.678,1.885 2.407,3.265 3.984,4.677 0.734998,0.656 0.870998,1.61 1.917998,1.88 1.046,0.287 1.964,-0.593 1.964,-0.593"
     id="path675" />
  <path
     style="fill:none;stroke:#231f20;stroke-width:0.565977;stroke-linecap:butt;stroke-linejoin:miter;stroke-miterlimit:4;stroke-dasharray:none;stroke-opacity:1"
     d="m 78.582403,65.238796 c 1.724,-1.469 1.853,-1.989 1.281,-2.756 -0.387,-0.515 -0.557,-1.113 -0.777,-1.437 -0.719,-1.078 -2.39,-2.588 -8.222998,-5.646 -1.324,-0.682 -3.172,-1.672 -3.896,-2.136 -1.141,-0.724 -1.579,1.667 -1.131,1.959 1.432,0.937 2.339,1.699 2.812,2.109 0.324,0.276 0.959,0.694 2.068,1.943 1.678,1.885 2.407,3.265 3.984,4.677 0.734998,0.656 0.870998,1.61 1.917998,1.88 1.046,0.287 1.964,-0.593 1.964,-0.593 z"
     id="path676" />
  <path
     style="fill:#231f20;fill-opacity:1;fill-rule:nonzero;stroke:#231f20;stroke-width:0.565977;stroke-linecap:round;stroke-linejoin:round;stroke-miterlimit:4;stroke-dasharray:none;stroke-opacity:1"
     d="m 76.096403,64.935796 c -0.104,1.418 1.782,2.454 1.975,2.735 2.905,4.089 3.219,4.308 5.635,7.26 3.51,4.276 6.568,6.667 9.652,5.355 2.088,-0.897 2.905,-2.312 2.874,-3.631 -0.041,-1.457 -1.578,-4.239 -4.464,-4.411 l -1.396,-0.989 c -0.864,-0.787 -1.286,-1.167 -1.681,-1.584 -0.677,-0.74 -1.459,-1.479 -2.871,-2.833 -2.51,-2.407 -5.942,-4.131 -5.942,-4.131 -0.23,-0.203 -0.495,-0.291 -0.766,-0.296"
     id="path677" />
  <path
     style="fill:#63c99d;fill-opacity:1;fill-rule:nonzero;stroke:none"
     d="m 91.858403,72.342796 -6.095,4.896 c 0.437,0.484 0.876,0.907 1.308,1.301 0.041,0.074 0.077,0.142 0.104,0.21 0.287,0.76 0.88,0.962 1.875,1.249 1.365,0.756 2.708,0.969 4.089,0.443 2.115,-0.818 2.989,-2.208 3.009,-3.52 0.011,-1.459 -1.416,-4.298 -4.29,-4.579"
     id="path678" />
  <path
     style="fill:none;stroke:#231f20;stroke-width:0.565977;stroke-linecap:butt;stroke-linejoin:miter;stroke-miterlimit:4;stroke-dasharray:none;stroke-opacity:1"
     d="m 91.858403,72.342796 -6.095,4.896 c 0.437,0.484 0.876,0.907 1.308,1.301 0.041,0.074 0.077,0.142 0.104,0.21 0.287,0.76 0.88,0.962 1.875,1.249 1.365,0.756 2.708,0.969 4.089,0.443 2.115,-0.818 2.989,-2.208 3.009,-3.52 0.011,-1.459 -1.416,-4.298 -4.29,-4.579 z"
     id="path679" />
  <path
     style="fill:#231f20;fill-opacity:1;fill-rule:nonzero;stroke:none"
     d="m 65.232405,51.618796 c 1.334,-0.229 1.844,0.625 1.672,1.645 -0.052,0.303 0.224,0.62 0.146,0.912 -0.172,0.688 -1.698,1.527 -2.73,0.427 -0.066,-0.077 -0.781,-0.479 -1.27,-0.869 -0.948,-0.755 -2.484,-2.719 -2.13,-5.391 0.166,-1.265 0.886,-0.937 0.974,-0.407 0.276,1.694 0.63,1.787 0.869,2.21 0.787,1.416 2.469,1.473 2.469,1.473"
     id="path680" />
  <path
     style="fill:none;stroke:#231f20;stroke-width:0.332927;stroke-linecap:butt;stroke-linejoin:miter;stroke-miterlimit:4;stroke-dasharray:none;stroke-opacity:1"
     d="m 65.232405,51.618796 c 1.334,-0.229 1.844,0.625 1.672,1.645 -0.052,0.303 0.224,0.62 0.146,0.912 -0.172,0.688 -1.698,1.527 -2.73,0.427 -0.066,-0.077 -0.781,-0.479 -1.27,-0.869 -0.948,-0.755 -2.484,-2.719 -2.13,-5.391 0.166,-1.265 0.886,-0.937 0.974,-0.407 0.276,1.694 0.63,1.787 0.869,2.21 0.787,1.416 2.469,1.473 2.469,1.473 z"
     id="path681" />
  <path
     style="fill:#231f20;fill-opacity:1;fill-rule:nonzero;stroke:none"
     d="m 81.254403,82.987797 c -1.054,-0.525001 -1.475,-1.806001 -0.944,-2.864001 0.526,-1.052 1.808,-1.473 2.86,-0.948 1.052,0.531 1.478,1.812 0.948,2.864 -0.531,1.053001 -1.812,1.480001 -2.864,0.948001"
     id="path682" />
  <path
     style="fill:#ffffff;fill-opacity:1;fill-rule:nonzero;stroke:none"
     d="m 123.1024,81.957796 c -0.687,0 -1.239,0.557 -1.239,1.240001 V 142.3378 c 0,0.688 0.552,1.239 1.239,1.239 0.688,0 1.24,-0.551 1.24,-1.239 V 83.197797 c 0,-0.683001 -0.552,-1.240001 -1.24,-1.240001"
     id="path683" />
  <path
     style="fill:none;stroke:#231f20;stroke-width:0.665856;stroke-linecap:butt;stroke-linejoin:miter;stroke-miterlimit:4;stroke-dasharray:none;stroke-opacity:1"
     d="m 123.1024,81.957796 c -0.687,0 -1.239,0.557 -1.239,1.240001 V 142.3378 c 0,0.688 0.552,1.239 1.239,1.239 0.688,0 1.24,-0.551 1.24,-1.239 V 83.197797 c 0,-0.683001 -0.552,-1.240001 -1.24,-1.240001 z"
     id="path684" />
  <path
     style="fill:#63c99d;fill-opacity:1;fill-rule:nonzero;stroke:none"
     d="m 146.7004,64.369796 c -0.509,-3.095 -0.285,-3.814 -0.061,-4.71 1.359,-5.614 -1.423,-6.181 -4.136,-5.197 -3.188,1.145 -4.355,1.5 -2.745,7.577 0.458,1.694 1.338,8.407 1.338,8.407 -0.01,2.453 1.282,4.844 2.61,5.448 1.401,0.645 0.89,0.292 2.286,0.645 1.339,0.344 3.438,-0.259 3.943,-1.394 0.489,-1.079 -0.468,-2.443 -1.588,-4.59 -0.885,-1.697 -1.647,-6.186 -1.647,-6.186"
     id="path686" />
  <path
     style="fill:none;stroke:#231f20;stroke-width:0.565977;stroke-linecap:butt;stroke-linejoin:miter;stroke-miterlimit:4;stroke-dasharray:none;stroke-opacity:1"
     d="m 146.7004,64.369796 c -0.509,-3.095 -0.285,-3.814 -0.061,-4.71 1.359,-5.614 -1.423,-6.181 -4.136,-5.197 -3.188,1.145 -4.355,1.5 -2.745,7.577 0.458,1.694 1.338,8.407 1.338,8.407 -0.01,2.453 1.282,4.844 2.61,5.448 1.401,0.645 0.89,0.292 2.286,0.645 1.339,0.344 3.438,-0.259 3.943,-1.394 0.489,-1.079 -0.468,-2.443 -1.588,-4.59 -0.885,-1.697 -1.647,-6.186 -1.647,-6.186 z"
     id="path687" />
  <path
     style="fill:#ffffff;fill-opacity:1;fill-rule:nonzero;stroke:none"
     d="m 149.0244,84.691797 c 0.192,0.146 -0.229,1.219 0.244,1.443 0.475,0.229 0.986,-0.38 2.975,-0.36 h 0.02 c 1.448,0.057 2.735,-0.474 3.371,-1.558 1.052,-1.795001 -0.079,-4.401001 -2.511,-5.828001 -2.443,-1.426 -5.271,-1.125 -6.317,0.662 -1.006,1.713 -0.016,4.188001 2.218,5.641001"
     id="path688" />
  <path
     style="fill:none;stroke:#231f20;stroke-width:0.565977;stroke-linecap:butt;stroke-linejoin:miter;stroke-miterlimit:4;stroke-dasharray:none;stroke-opacity:1"
     d="m 149.0244,84.691797 c 0.192,0.146 -0.229,1.219 0.244,1.443 0.475,0.229 0.986,-0.38 2.975,-0.36 h 0.02 c 1.448,0.057 2.735,-0.474 3.371,-1.558 1.052,-1.795001 -0.079,-4.401001 -2.511,-5.828001 -2.443,-1.426 -5.271,-1.125 -6.317,0.662 -1.006,1.713 -0.016,4.188001 2.218,5.641001 z"
     id="path689" />
  <path
     style="fill:#231f20;fill-opacity:1;fill-rule:nonzero;stroke:none"
     d="m 129.2324,70.410796 c 0.38,-0.516 2.282,-0.959 3.594,-1.885 0.885,-0.631 3.578,-1.167 4.412,-1.86 0.765,-0.63 1.172,-0.854 2.046,-0.099 0.522,0.437 1.23,1.631 0.912,2.031 -0.729,0.942 -1.557,1.401 -2.578,1.709 -1.162,0.358 -4.402,1.041 -5.011,1.115 -1.516,0.172 -2.036,0.692 -2.432,0.776 -0.745,0.155 -0.989,-0.09 -1.199,-0.547 -0.389,-0.881 0.256,-1.24 0.256,-1.24"
     id="path690" />
  <path
     style="fill:none;stroke:#231f20;stroke-width:0.565977;stroke-linecap:butt;stroke-linejoin:miter;stroke-miterlimit:4;stroke-dasharray:none;stroke-opacity:1"
     d="m 129.2324,70.410796 c 0.38,-0.516 2.282,-0.959 3.594,-1.885 0.885,-0.631 3.578,-1.167 4.412,-1.86 0.765,-0.63 1.172,-0.854 2.046,-0.099 0.522,0.437 1.23,1.631 0.912,2.031 -0.729,0.942 -1.557,1.401 -2.578,1.709 -1.162,0.358 -4.402,1.041 -5.011,1.115 -1.516,0.172 -2.036,0.692 -2.432,0.776 -0.745,0.155 -0.989,-0.09 -1.199,-0.547 -0.389,-0.881 0.256,-1.24 0.256,-1.24 z"
     id="path691" />
  <path
     style="fill:#231f20;fill-opacity:1;fill-rule:nonzero;stroke:none"
     d="m 138.6284,66.858796 c 0.812,-1.016 2.14,0.536 2.547,0.88 0.416,0.359 1.697,1.235 2.792,1.781 1.093,0.557 2.219,1.714 4.291,2.771 1.094,0.552 1.802,1.786 0.933,3.328 -0.865,1.531 -2.052,1.62 -3.271,0.751 -1.22,-0.866 -1.99,-2.205 -3.157,-3.163 -1.167,-0.963 -2.443,-1.833 -3.479,-2.473 -1.177,-0.724 -1.494,-1.516 -1.412,-1.99 0.172,-1.182 0.756,-1.885 0.756,-1.885"
     id="path692" />
  <path
     style="fill:none;stroke:#231f20;stroke-width:0.565977;stroke-linecap:butt;stroke-linejoin:miter;stroke-miterlimit:4;stroke-dasharray:none;stroke-opacity:1"
     d="m 138.6284,66.858796 c 0.812,-1.016 2.14,0.536 2.547,0.88 0.416,0.359 1.697,1.235 2.792,1.781 1.093,0.557 2.219,1.714 4.291,2.771 1.094,0.552 1.802,1.786 0.933,3.328 -0.865,1.531 -2.052,1.62 -3.271,0.751 -1.22,-0.866 -1.99,-2.205 -3.157,-3.163 -1.167,-0.963 -2.443,-1.833 -3.479,-2.473 -1.177,-0.724 -1.494,-1.516 -1.412,-1.99 0.172,-1.182 0.756,-1.885 0.756,-1.885 z"
     id="path693" />
  <path
     style="fill:#231f20;fill-opacity:1;fill-rule:nonzero;stroke:none"
     d="m 139.2794,39.863796 c 2.255,-0.157 2.672,-0.5 2.667,-1.458 0,-0.642 0.213,-1.23 0.229,-1.615 0.063,-1.297 -0.385,-3.505 -3.265,-9.427 -0.662,-1.333 -1.568,-3.229 -1.876,-4.026 -0.49,-1.26 -2.26,0.401 -2.072,0.906 0.598,1.604 0.88,2.755 1.014,3.359 0.095,0.423 0.36,1.131 0.506,2.797 0.24,2.511 0.005,4.052 0.438,6.131 0.203,0.963 -0.256,1.807 0.427,2.645 0.677,0.855 1.932,0.688 1.932,0.688"
     id="path694" />
  <path
     style="fill:none;stroke:#231f20;stroke-width:0.565977;stroke-linecap:butt;stroke-linejoin:miter;stroke-miterlimit:4;stroke-dasharray:none;stroke-opacity:1"
     d="m 139.2794,39.863796 c 2.255,-0.157 2.672,-0.5 2.667,-1.458 0,-0.642 0.213,-1.23 0.229,-1.615 0.063,-1.297 -0.385,-3.505 -3.265,-9.427 -0.662,-1.333 -1.568,-3.229 -1.876,-4.026 -0.49,-1.26 -2.26,0.401 -2.072,0.906 0.598,1.604 0.88,2.755 1.014,3.359 0.095,0.423 0.36,1.131 0.506,2.797 0.24,2.511 0.005,4.052 0.438,6.131 0.203,0.963 -0.256,1.807 0.427,2.645 0.677,0.855 1.932,0.688 1.932,0.688 z"
     id="path695" />
  <path
     style="fill:#231f20;fill-opacity:1;fill-rule:nonzero;stroke:#231f20;stroke-width:0.565977;stroke-linecap:round;stroke-linejoin:round;stroke-miterlimit:4;stroke-dasharray:none;stroke-opacity:1"
     d="m 137.4564,38.149796 c -0.922,1.073 -0.021,3.032 -0.026,3.37 -0.088,5.016 0.032,5.375 0.224,9.187 0.292,5.527 1.333,9.261 4.594,10.037 2.214,0.52 3.714,-0.136 4.468,-1.218 0.834,-1.199 1.246,-4.35 -0.973,-6.199 l -0.543,-1.624 c -0.224,-1.141 -0.342,-1.704 -0.41,-2.276 -0.11,-0.996 -0.298,-2.053 -0.631,-3.985 -0.593,-3.422 -2.333,-6.844 -2.333,-6.844 -0.063,-0.302 -0.224,-0.531 -0.438,-0.692"
     id="path696" />
  <path
     style="fill:#63c99d;fill-opacity:1;fill-rule:nonzero;stroke:none"
     d="m 145.7524,53.462796 -7.806,0.323 c 0.062,0.65 0.161,1.25 0.276,1.822 -0.011,0.079 -0.022,0.162 -0.042,0.23 -0.218,0.781 0.14,1.297 0.771,2.12 0.645,1.412 1.604,2.385 3.031,2.781 2.188,0.593 3.714,0 4.51,-1.047 0.875,-1.166 1.407,-4.302 -0.74,-6.229"
     id="path697" />
  <path
     style="fill:none;stroke:#231f20;stroke-width:0.565977;stroke-linecap:butt;stroke-linejoin:miter;stroke-miterlimit:4;stroke-dasharray:none;stroke-opacity:1"
     d="m 145.7524,53.462796 -7.806,0.323 c 0.062,0.65 0.161,1.25 0.276,1.822 -0.011,0.079 -0.022,0.162 -0.042,0.23 -0.218,0.781 0.14,1.297 0.771,2.12 0.645,1.412 1.604,2.385 3.031,2.781 2.188,0.593 3.714,0 4.51,-1.047 0.875,-1.166 1.407,-4.302 -0.74,-6.229 z"
     id="path698" />
  <path
     style="fill:#231f20;fill-opacity:1;fill-rule:nonzero;stroke:none"
     d="m 136.6124,20.983796 c 1.214,0.61 1.115,1.594 0.37,2.312 -0.224,0.214 -0.182,0.631 -0.422,0.823 -0.546,0.448 -2.27,0.219 -2.448,-1.271 -0.01,-0.109 -0.344,-0.854 -0.51,-1.458 -0.312,-1.172 -0.386,-3.667 1.484,-5.604 0.886,-0.922 1.266,-0.23 1.026,0.25 -0.786,1.526 -0.557,1.812 -0.609,2.291 -0.203,1.609 1.109,2.657 1.109,2.657"
     id="path699" />
  <path
     style="fill:none;stroke:#231f20;stroke-width:0.332927;stroke-linecap:butt;stroke-linejoin:miter;stroke-miterlimit:4;stroke-dasharray:none;stroke-opacity:1"
     d="m 136.6124,20.983796 c 1.214,0.61 1.115,1.594 0.37,2.312 -0.224,0.214 -0.182,0.631 -0.422,0.823 -0.546,0.448 -2.27,0.219 -2.448,-1.271 -0.01,-0.109 -0.344,-0.854 -0.51,-1.458 -0.312,-1.172 -0.386,-3.667 1.484,-5.604 0.886,-0.922 1.266,-0.23 1.026,0.25 -0.786,1.526 -0.557,1.812 -0.609,2.291 -0.203,1.609 1.109,2.657 1.109,2.657 z"
     id="path700" />
  <path
     style="fill:#231f20;fill-opacity:1;fill-rule:nonzero;stroke:none"
     d="m 221.4814,79.525796 c 0.188,-0.71 -0.093,-3.943 -0.192,-4.678 -0.089,-0.661 0.13,-1.802 -0.969,-2.156 -0.448,-0.146 -1.192,-0.046 -1.495,0.078 -0.234,0.1 -0.292,0.428 -0.202,0.807 0.14,0.651 0.442,0.776 0.792,2.011 0,0 0.129,0.282 0.39,0.76 0.766,1.443 0.562,0.74 1.203,3.068 0.047,0.161 0.245,0.239 0.355,0.198 0.17,-0.058 0.118,-0.088 0.118,-0.088"
     id="path701" />
  <path
     style="fill:none;stroke:#231f20;stroke-width:0.565977;stroke-linecap:round;stroke-linejoin:round;stroke-miterlimit:4;stroke-dasharray:none;stroke-opacity:1"
     d="m 221.4814,79.525796 c 0.188,-0.71 -0.093,-3.943 -0.192,-4.678 -0.089,-0.661 0.13,-1.802 -0.969,-2.156 -0.448,-0.146 -1.192,-0.046 -1.495,0.078 -0.234,0.1 -0.292,0.428 -0.202,0.807 0.14,0.651 0.442,0.776 0.792,2.011 0,0 0.129,0.282 0.39,0.76 0.766,1.443 0.562,0.74 1.203,3.068 0.047,0.161 0.245,0.239 0.355,0.198 0.17,-0.058 0.118,-0.088 0.118,-0.088 z"
     id="path702" />
  <path
     style="fill:#63c99d;fill-opacity:1;fill-rule:nonzero;stroke:none"
     d="m 218.6234,43.394796 c -0.516,-3.093 -0.287,-3.812 -0.068,-4.713 1.36,-5.615 -1.422,-6.178 -4.131,-5.194 -3.192,1.147 -4.359,1.496 -2.744,7.574 0.459,1.698 1.333,8.412 1.333,8.412 -0.01,2.448 1.287,4.844 2.615,5.448 1.396,0.64 0.891,0.29 2.281,0.645 1.339,0.339 3.438,-0.265 3.948,-1.396 0.484,-1.077 -0.474,-2.448 -1.594,-4.593 -0.886,-1.699 -1.64,-6.183 -1.64,-6.183"
     id="path703" />
  <path
     style="fill:none;stroke:#231f20;stroke-width:0.565977;stroke-linecap:butt;stroke-linejoin:miter;stroke-miterlimit:4;stroke-dasharray:none;stroke-opacity:1"
     d="m 218.6234,43.394796 c -0.516,-3.093 -0.287,-3.812 -0.068,-4.713 1.36,-5.615 -1.422,-6.178 -4.131,-5.194 -3.192,1.147 -4.359,1.496 -2.744,7.574 0.459,1.698 1.333,8.412 1.333,8.412 -0.01,2.448 1.287,4.844 2.615,5.448 1.396,0.64 0.891,0.29 2.281,0.645 1.339,0.339 3.438,-0.265 3.948,-1.396 0.484,-1.077 -0.474,-2.448 -1.594,-4.593 -0.886,-1.699 -1.64,-6.183 -1.64,-6.183 z"
     id="path704" />
  <path
     style="fill:#ffffff;fill-opacity:1;fill-rule:nonzero;stroke:none"
     d="m 220.9404,63.717796 c 0.199,0.146 -0.224,1.218 0.251,1.442 0.468,0.23 0.978,-0.38 2.968,-0.358 l 0.021,-0.006 c 1.453,0.063 2.74,-0.474 3.369,-1.557 1.052,-1.792 -0.077,-4.396 -2.51,-5.823 -2.443,-1.432 -5.266,-1.13 -6.318,0.662 -1.005,1.713 -0.01,4.182 2.219,5.64"
     id="path705" />
  <path
     style="fill:none;stroke:#231f20;stroke-width:0.565977;stroke-linecap:butt;stroke-linejoin:miter;stroke-miterlimit:4;stroke-dasharray:none;stroke-opacity:1"
     d="m 220.9404,63.717796 c 0.199,0.146 -0.224,1.218 0.251,1.442 0.468,0.23 0.978,-0.38 2.968,-0.358 l 0.021,-0.006 c 1.453,0.063 2.74,-0.474 3.369,-1.557 1.052,-1.792 -0.077,-4.396 -2.51,-5.823 -2.443,-1.432 -5.266,-1.13 -6.318,0.662 -1.005,1.713 -0.01,4.182 2.219,5.64 z"
     id="path706" />
  <path
     style="fill:#231f20;fill-opacity:1;fill-rule:nonzero;stroke:none"
     d="m 219.0134,74.561796 c -0.458,-0.448 -0.63,-2.391 -1.37,-3.818 -0.5,-0.963 -0.662,-3.704 -1.234,-4.625 -0.516,-0.849 -0.682,-1.281 0.187,-2.041 0.505,-0.454 1.787,-0.995 2.141,-0.626 0.828,0.855 1.172,1.735 1.334,2.792 0.192,1.198 0.421,4.506 0.41,5.115 -0.041,1.525 0.402,2.115 0.428,2.515 0.058,0.761 -0.224,0.969 -0.704,1.114 -0.926,0.267 -1.192,-0.426 -1.192,-0.426"
     id="path707" />
  <path
     style="fill:none;stroke:#231f20;stroke-width:0.565977;stroke-linecap:butt;stroke-linejoin:miter;stroke-miterlimit:4;stroke-dasharray:none;stroke-opacity:1"
     d="m 219.0134,74.561796 c -0.458,-0.448 -0.63,-2.391 -1.37,-3.818 -0.5,-0.963 -0.662,-3.704 -1.234,-4.625 -0.516,-0.849 -0.682,-1.281 0.187,-2.041 0.505,-0.454 1.787,-0.995 2.141,-0.626 0.828,0.855 1.172,1.735 1.334,2.792 0.192,1.198 0.421,4.506 0.41,5.115 -0.041,1.525 0.402,2.115 0.428,2.515 0.058,0.761 -0.224,0.969 -0.704,1.114 -0.926,0.267 -1.192,-0.426 -1.192,-0.426 z"
     id="path708" />
  <path
     style="fill:#231f20;fill-opacity:1;fill-rule:nonzero;stroke:none"
     d="m 216.7634,65.181796 c -1.302,-0.032 -0.87,-2.027 -0.839,-2.563 0.037,-0.547 -0.047,-2.099 -0.271,-3.301 -0.213,-1.21 0.027,-2.803 -0.39,-5.095 -0.219,-1.203 0.333,-2.511 2.094,-2.749 1.739,-0.24 2.526,0.65 2.572,2.15 0.047,1.49 -0.552,2.916 -0.609,4.427 -0.063,1.505 0.016,3.052 0.136,4.267 0.131,1.369 -0.308,2.104 -0.735,2.328 -1.046,0.577 -1.958,0.536 -1.958,0.536"
     id="path709" />
  <path
     style="fill:none;stroke:#231f20;stroke-width:0.565977;stroke-linecap:butt;stroke-linejoin:miter;stroke-miterlimit:4;stroke-dasharray:none;stroke-opacity:1"
     d="m 216.7634,65.181796 c -1.302,-0.032 -0.87,-2.027 -0.839,-2.563 0.037,-0.547 -0.047,-2.099 -0.271,-3.301 -0.213,-1.21 0.027,-2.803 -0.39,-5.095 -0.219,-1.203 0.333,-2.511 2.094,-2.749 1.739,-0.24 2.526,0.65 2.572,2.15 0.047,1.49 -0.552,2.916 -0.609,4.427 -0.063,1.505 0.016,3.052 0.136,4.267 0.131,1.369 -0.308,2.104 -0.735,2.328 -1.046,0.577 -1.958,0.536 -1.958,0.536 z"
     id="path710" />
  <path
     style="fill:#231f20;fill-opacity:1;fill-rule:nonzero;stroke:none"
     d="m 204.2574,22.025796 c 1.975,-1.11 2.204,-1.599 1.787,-2.464 -0.276,-0.578 -0.333,-1.198 -0.484,-1.552 -0.505,-1.203 -1.849,-3.006 -6.989,-7.12 -1.172,-0.9220004 -2.798,-2.2440004 -3.418,-2.8390004 -0.989,-0.927 -1.874,1.333 -1.489,1.709 1.229,1.1920004 1.975,2.1140004 2.36,2.6040004 0.265,0.339 0.807,0.864 1.656,2.307 1.292,2.167 1.739,3.661 3.02,5.349 0.595,0.782 0.543,1.744 1.521,2.214 0.975,0.478 2.036,-0.208 2.036,-0.208"
     id="path711" />
  <path
     style="fill:none;stroke:#231f20;stroke-width:0.565977;stroke-linecap:butt;stroke-linejoin:miter;stroke-miterlimit:4;stroke-dasharray:none;stroke-opacity:1"
     d="m 204.2574,22.025796 c 1.975,-1.11 2.204,-1.599 1.787,-2.464 -0.276,-0.578 -0.333,-1.198 -0.484,-1.552 -0.505,-1.203 -1.849,-3.006 -6.989,-7.12 -1.172,-0.9220004 -2.798,-2.2440004 -3.418,-2.8390004 -0.989,-0.927 -1.874,1.333 -1.489,1.709 1.229,1.1920004 1.975,2.1140004 2.36,2.6040004 0.265,0.339 0.807,0.864 1.656,2.307 1.292,2.167 1.739,3.661 3.02,5.349 0.595,0.782 0.543,1.744 1.521,2.214 0.975,0.478 2.036,-0.208 2.036,-0.208 z"
     id="path712" />
  <path
     style="fill:#231f20;fill-opacity:1;fill-rule:nonzero;stroke:#231f20;stroke-width:0.565977;stroke-linecap:round;stroke-linejoin:round;stroke-miterlimit:4;stroke-dasharray:none;stroke-opacity:1"
     d="m 201.8774,21.254796 c -0.369,1.369 1.282,2.749 1.423,3.063 2.067,4.561 2.333,4.842 4.14,8.202 2.631,4.864 5.172,7.798 8.448,7.094 2.224,-0.474 3.297,-1.708 3.516,-3.011 0.239,-1.443 -0.735,-4.463 -3.537,-5.181 l -1.187,-1.24 c -0.688,-0.932 -1.037,-1.391 -1.344,-1.875 -0.527,-0.855 -1.145,-1.729 -2.276,-3.333 -2.005,-2.834 -5.041,-5.183 -5.041,-5.183 -0.183,-0.251 -0.428,-0.385 -0.694,-0.443"
     id="path713" />
  <path
     style="fill:#63c99d;fill-opacity:1;fill-rule:nonzero;stroke:none"
     d="m 215.9354,31.535796 -6.916,3.64 c 0.338,0.558 0.681,1.058 1.03,1.527 0.027,0.077 0.052,0.156 0.063,0.224 0.136,0.801 0.683,1.109 1.599,1.583 1.198,1.005 2.48,1.469 3.932,1.218 2.234,-0.401 3.36,-1.593 3.625,-2.88 0.292,-1.426 -0.563,-4.489 -3.333,-5.312"
     id="path714" />
  <path
     style="fill:none;stroke:#231f20;stroke-width:0.565977;stroke-linecap:butt;stroke-linejoin:miter;stroke-miterlimit:4;stroke-dasharray:none;stroke-opacity:1"
     d="m 215.9354,31.535796 -6.916,3.64 c 0.338,0.558 0.681,1.058 1.03,1.527 0.027,0.077 0.052,0.156 0.063,0.224 0.136,0.801 0.683,1.109 1.599,1.583 1.198,1.005 2.48,1.469 3.932,1.218 2.234,-0.401 3.36,-1.593 3.625,-2.88 0.292,-1.426 -0.563,-4.489 -3.333,-5.312 z"
     id="path715" />
  <path
     style="fill:#231f20;fill-opacity:1;fill-rule:nonzero;stroke:none"
     d="m 193.7634,6.1077956 c 1.354,0.027 1.688,0.959 1.322,1.932 -0.109,0.287 0.106,0.647 -0.025,0.923 -0.303,0.64 -1.964,1.1670004 -2.76,-0.099 -0.057,-0.094 -0.677,-0.625 -1.084,-1.1 -0.787,-0.926 -1.921,-3.145 -1.063,-5.697 0.407,-1.21300004 1.047,-0.749 1.032,-0.213 -0.052,1.713 0.276,1.874 0.438,2.328 0.5,1.541 2.14,1.926 2.14,1.926"
     id="path716" />
  <path
     style="fill:none;stroke:#231f20;stroke-width:0.332927;stroke-linecap:butt;stroke-linejoin:miter;stroke-miterlimit:4;stroke-dasharray:none;stroke-opacity:1"
     d="m 193.7634,6.1077956 c 1.354,0.027 1.688,0.959 1.322,1.932 -0.109,0.287 0.106,0.647 -0.025,0.923 -0.303,0.64 -1.964,1.1670004 -2.76,-0.099 -0.057,-0.094 -0.677,-0.625 -1.084,-1.1 -0.787,-0.926 -1.921,-3.145 -1.063,-5.697 0.407,-1.21300004 1.047,-0.749 1.032,-0.213 -0.052,1.713 0.276,1.874 0.438,2.328 0.5,1.541 2.14,1.926 2.14,1.926 z"
     id="path717" />
  <path
     style="fill:#ffffff;fill-opacity:1;fill-rule:nonzero;stroke:none"
     d="m 230.7734,81.957796 c -0.688,0 -1.24,0.557 -1.24,1.240001 V 142.3378 c 0,0.688 0.552,1.239 1.24,1.239 0.688,0 1.24,-0.551 1.24,-1.239 V 83.197797 c 0,-0.683001 -0.552,-1.240001 -1.24,-1.240001"
     id="path718" />
  <path
     style="fill:none;stroke:#231f20;stroke-width:0.665856;stroke-linecap:butt;stroke-linejoin:miter;stroke-miterlimit:4;stroke-dasharray:none;stroke-opacity:1"
     d="m 230.7734,81.957796 c -0.688,0 -1.24,0.557 -1.24,1.240001 V 142.3378 c 0,0.688 0.552,1.239 1.24,1.239 0.688,0 1.24,-0.551 1.24,-1.239 V 83.197797 c 0,-0.683001 -0.552,-1.240001 -1.24,-1.240001 z"
     id="path719" />
  <path
     style="fill:#ffffff;fill-opacity:1;fill-rule:nonzero;stroke:none"
     d="m 208.7734,81.957796 c -0.688,0 -1.24,0.557 -1.24,1.240001 V 142.3378 c 0,0.688 0.552,1.239 1.24,1.239 0.683,0 1.24,-0.551 1.24,-1.239 V 83.197797 c 0,-0.683001 -0.557,-1.240001 -1.24,-1.240001"
     id="path721" />
  <path
     style="fill:none;stroke:#231f20;stroke-width:0.665856;stroke-linecap:butt;stroke-linejoin:miter;stroke-miterlimit:4;stroke-dasharray:none;stroke-opacity:1"
     d="m 208.7734,81.957796 c -0.688,0 -1.24,0.557 -1.24,1.240001 V 142.3378 c 0,0.688 0.552,1.239 1.24,1.239 0.683,0 1.24,-0.551 1.24,-1.239 V 83.197797 c 0,-0.683001 -0.557,-1.240001 -1.24,-1.240001 z"
     id="path722" />
  <path
     style="fill:#ffffff;fill-opacity:1;fill-rule:nonzero;stroke:none"
     d="m 302.4194,81.957796 c -0.687,0 -1.244,0.557 -1.244,1.240001 V 142.3378 c 0,0.688 0.557,1.239 1.244,1.239 0.682,0 1.234,-0.551 1.234,-1.239 V 83.197797 c 0,-0.683001 -0.552,-1.240001 -1.234,-1.240001"
     id="path724" />
  <path
     style="fill:none;stroke:#231f20;stroke-width:0.665856;stroke-linecap:butt;stroke-linejoin:miter;stroke-miterlimit:4;stroke-dasharray:none;stroke-opacity:1"
     d="m 302.4194,81.957796 c -0.687,0 -1.244,0.557 -1.244,1.240001 V 142.3378 c 0,0.688 0.557,1.239 1.244,1.239 0.682,0 1.234,-0.551 1.234,-1.239 V 83.197797 c 0,-0.683001 -0.552,-1.240001 -1.234,-1.240001 z"
     id="path725" />
  <path
     style="fill:#231f20;fill-opacity:1;fill-rule:nonzero;stroke:none"
     d="m 26.749405,80.399796 c 0.213,1.162 -0.548,2.271 -1.71,2.489 -1.156,0.214001 -2.27,-0.551 -2.484,-1.707 -0.218,-1.156 0.547,-2.271 1.703,-2.484 1.161,-0.219 2.276,0.546 2.491,1.702"
     id="path727" />
  <path
     style="fill:#231f20;fill-opacity:1;fill-rule:nonzero;stroke:none"
     d="m 2.7384055,143.7598 c -1.084,-0.063 -0.823,-1.286 -0.584,-2.491 0.063,-0.306 0.089,-0.593 0.172,-0.885 0.339,-1.177 1.156,-1.833 3.109,0.437 0.074,0.084 1.912,1.272 2.486,1.517 2.7379995,1.171 2.9679995,0.365 2.7379995,1.171 -0.15,0.536 -0.656,0.547 -1.2859995,0.547 -0.854,-0.005 -3.864,-0.281 -4.328,-0.292 -0.448,-0.014 -2.307,-0.004 -2.307,-0.004"
     id="path728" />
  <path
     style="fill:none;stroke:#231f20;stroke-width:0.565977;stroke-linecap:butt;stroke-linejoin:miter;stroke-miterlimit:4;stroke-dasharray:none;stroke-opacity:1"
     d="m 2.7384055,143.7598 c -1.084,-0.063 -0.823,-1.286 -0.584,-2.491 0.063,-0.306 0.089,-0.593 0.172,-0.885 0.339,-1.177 1.156,-1.833 3.109,0.437 0.074,0.084 1.912,1.272 2.486,1.517 2.7379995,1.171 2.9679995,0.365 2.7379995,1.171 -0.15,0.536 -0.656,0.547 -1.2859995,0.547 -0.854,-0.005 -3.864,-0.281 -4.328,-0.292 -0.448,-0.014 -2.307,-0.004 -2.307,-0.004 z"
     id="path729" />
  <path
     style="fill:#231f20;fill-opacity:1;fill-rule:nonzero;stroke:none"
     d="m 4.3424055,123.9518 c -2.229,-0.396 -2.719,-0.172 -2.948,0.76 -0.156,0.615 -0.50500004,1.141 -0.62000004,1.511 -0.369,1.245 -0.484,3.484 0.86000004,9.932 0.307,1.464 0.724,3.516 0.823,4.365 0.161,1.354 2.292,0.172 2.234,-0.36 -0.188,-1.703 -0.177,-2.891 -0.161,-3.515 0.015,-0.428 -0.068,-1.182 0.192,-2.829 0.396,-2.494 1,-3.932 1.084,-6.046 0.041,-0.979 0.692,-1.693 0.244,-2.677 -0.453,-0.99 -1.708,-1.141 -1.708,-1.141"
     id="path731" />
  <path
     style="fill:none;stroke:#231f20;stroke-width:0.565977;stroke-linecap:butt;stroke-linejoin:miter;stroke-miterlimit:4;stroke-dasharray:none;stroke-opacity:1"
     d="m 4.3424055,123.9518 c -2.229,-0.396 -2.719,-0.172 -2.948,0.76 -0.156,0.615 -0.50500004,1.141 -0.62000004,1.511 -0.369,1.245 -0.484,3.484 0.86000004,9.932 0.307,1.464 0.724,3.516 0.823,4.365 0.161,1.354 2.292,0.172 2.234,-0.36 -0.188,-1.703 -0.177,-2.891 -0.161,-3.515 0.015,-0.428 -0.068,-1.182 0.192,-2.829 0.396,-2.494 1,-3.932 1.084,-6.046 0.041,-0.979 0.692,-1.693 0.244,-2.677 -0.453,-0.99 -1.708,-1.141 -1.708,-1.141 z"
     id="path732" />
  <path
     style="fill:#63c99d;fill-opacity:1;fill-rule:nonzero;stroke:none"
     d="m 2.3894055,98.030797 c -0.068,3.134003 -0.427,3.801003 -0.807,4.640003 -2.38500004,5.265 0.239,6.333 3.088,5.875 3.349,-0.536 4.557,-0.662 4.099,-6.938 -0.126,-1.749003 0.256,-8.510003 0.256,-8.510003 0.462,-2.406 -0.366,-4.995 -1.552,-5.838 -1.251,-0.886 -0.819,-0.448 -2.131,-1.057 -1.245,-0.584 -3.421,-0.376 -4.131,0.635 -0.68100004,0.974 0.006,2.489 0.71,4.813 0.552,1.828 0.468,6.38 0.468,6.38"
     id="path733" />
  <path
     style="fill:none;stroke:#231f20;stroke-width:0.565977;stroke-linecap:butt;stroke-linejoin:miter;stroke-miterlimit:4;stroke-dasharray:none;stroke-opacity:1"
     d="m 2.3894055,98.030797 c -0.068,3.134003 -0.427,3.801003 -0.807,4.640003 -2.38500004,5.265 0.239,6.333 3.088,5.875 3.349,-0.536 4.557,-0.662 4.099,-6.938 -0.126,-1.749003 0.256,-8.510003 0.256,-8.510003 0.462,-2.406 -0.366,-4.995 -1.552,-5.838 -1.251,-0.886 -0.819,-0.448 -2.131,-1.057 -1.245,-0.584 -3.421,-0.376 -4.131,0.635 -0.68100004,0.974 0.006,2.489 0.71,4.813 0.552,1.828 0.468,6.38 0.468,6.38 z"
     id="path734" />
  <path
     style="fill:#231f20;fill-opacity:1;fill-rule:nonzero;stroke:none"
     d="m 23.061405,82.206796 c -0.364,0.532 -2.251,1.016001 -3.536,1.980001 -0.871,0.651 -3.548,1.26 -4.366,1.973 -0.744,0.652 -1.15,0.88 -2.046,0.157 -0.526,-0.428 -1.271,-1.605 -0.964,-2.016 0.704,-0.953 1.521,-1.437001 2.537,-1.775001 1.151,-0.386 4.369,-1.152 4.979,-1.24 1.51,-0.209 2.021,-0.746 2.412,-0.834 0.738,-0.177 0.989,0.063 1.208,0.516 0.416,0.864 -0.224,1.239 -0.224,1.239"
     id="path735" />
  <path
     style="fill:none;stroke:#231f20;stroke-width:0.565977;stroke-linecap:butt;stroke-linejoin:miter;stroke-miterlimit:4;stroke-dasharray:none;stroke-opacity:1"
     d="m 23.061405,82.206796 c -0.364,0.532 -2.251,1.016001 -3.536,1.980001 -0.871,0.651 -3.548,1.26 -4.366,1.973 -0.744,0.652 -1.15,0.88 -2.046,0.157 -0.526,-0.428 -1.271,-1.605 -0.964,-2.016 0.704,-0.953 1.521,-1.437001 2.537,-1.775001 1.151,-0.386 4.369,-1.152 4.979,-1.24 1.51,-0.209 2.021,-0.746 2.412,-0.834 0.738,-0.177 0.989,0.063 1.208,0.516 0.416,0.864 -0.224,1.239 -0.224,1.239 z"
     id="path736" />
  <path
     style="fill:#231f20;fill-opacity:1;fill-rule:nonzero;stroke:none"
     d="m 14.691405,85.675797 c 0.364,1.246 -1.661,1.448 -2.188,1.584 -0.526,0.135 -1.978,0.687 -3.0569995,1.266 -1.083,0.577 -2.672,0.838 -4.724,1.932 -1.083,0.578 -2.495,0.458 -3.265,-1.146 -0.75600004,-1.584 -0.156,-2.609 1.254,-3.109 1.412,-0.496 2.948,-0.371 4.407,-0.776 1.453,-0.401 2.9009995,-0.948 4.0159995,-1.439 1.271,-0.547 2.099,-0.348 2.448,-0.02 0.864,0.823 1.109,1.708 1.109,1.708"
     id="path737" />
  <path
     style="fill:none;stroke:#231f20;stroke-width:0.565977;stroke-linecap:butt;stroke-linejoin:miter;stroke-miterlimit:4;stroke-dasharray:none;stroke-opacity:1"
     d="m 14.691405,85.675797 c 0.364,1.246 -1.661,1.448 -2.188,1.584 -0.526,0.135 -1.978,0.687 -3.0569995,1.266 -1.083,0.577 -2.672,0.838 -4.724,1.932 -1.083,0.578 -2.495,0.458 -3.265,-1.146 -0.75600004,-1.584 -0.156,-2.609 1.254,-3.109 1.412,-0.496 2.948,-0.371 4.407,-0.776 1.453,-0.401 2.9009995,-0.948 4.0159995,-1.439 1.271,-0.547 2.099,-0.348 2.448,-0.02 0.864,0.823 1.109,1.708 1.109,1.708 z"
     id="path738" />
  <path
     style="fill:#ffffff;fill-opacity:1;fill-rule:nonzero;stroke:none"
     d="m 7.7634055,80.243796 c 0.047,-0.24 1.194,-0.322 1.194,-0.849 0,-0.521 -0.76,-0.724 -1.61,-2.525 l -0.01,-0.017 c -0.574,-1.338 -1.61,-2.259 -2.86,-2.365 -2.067,-0.17 -3.93800004,1.975 -4.17100004,4.787 -0.229,2.813 1.25500004,5.235001 3.32800004,5.406001 1.979,0.162 3.776,-1.797001 4.129,-4.437001"
     id="path739" />
  <path
     style="fill:none;stroke:#231f20;stroke-width:0.565977;stroke-linecap:butt;stroke-linejoin:miter;stroke-miterlimit:4;stroke-dasharray:none;stroke-opacity:1"
     d="m 7.7634055,80.243796 c 0.047,-0.24 1.194,-0.322 1.194,-0.849 0,-0.521 -0.76,-0.724 -1.61,-2.525 l -0.01,-0.017 c -0.574,-1.338 -1.61,-2.259 -2.86,-2.365 -2.067,-0.17 -3.93800004,1.975 -4.17100004,4.787 -0.229,2.813 1.25500004,5.235001 3.32800004,5.406001 1.979,0.162 3.776,-1.797001 4.129,-4.437001 z"
     id="path740" />
  <path
     style="fill:#231f20;fill-opacity:1;fill-rule:nonzero;stroke:none"
     d="m 3.3634055,126.2228 c 3.875,1.037 3.052,-2.963 3.176,-3.421 1.324,-4.834 1.292,-5.214 2.043,-8.964 1.072,-5.422 0.984,-9.298 -1.991,-10.85 -2.014,-1.047 -3.629,-0.781 -4.624,0.079 -1.10400004,0.953 -2.28100004,3.912 -0.584,6.245 l 0.131,1.708 c -0.068,1.161 -0.089,1.74 -0.167,2.307 -0.136,0.995 -0.213,2.068 -0.36500004,4.016 -0.271,3.464 0.57900004,7.213 0.57900004,7.213 -0.063,1.24 1.802,1.667 1.802,1.667"
     id="path741" />
  <path
     style="fill:none;stroke:#231f20;stroke-width:0.565977;stroke-linecap:butt;stroke-linejoin:miter;stroke-miterlimit:4;stroke-dasharray:none;stroke-opacity:1"
     d="m 3.3634055,126.2228 c 3.875,1.037 3.052,-2.963 3.176,-3.421 1.324,-4.834 1.292,-5.214 2.043,-8.964 1.072,-5.422 0.984,-9.298 -1.991,-10.85 -2.014,-1.047 -3.629,-0.781 -4.624,0.079 -1.10400004,0.953 -2.28100004,3.912 -0.584,6.245 l 0.131,1.708 c -0.068,1.161 -0.089,1.74 -0.167,2.307 -0.136,0.995 -0.213,2.068 -0.36500004,4.016 -0.271,3.464 0.57900004,7.213 0.57900004,7.213 -0.063,1.24 1.802,1.667 1.802,1.667 z"
     id="path742" />
  <path
     style="fill:#63c99d;fill-opacity:1;fill-rule:nonzero;stroke:none"
     d="m 8.9734055,106.3378 c -0.334,-1.522 -1.074,-2.667 -2.382,-3.35 -2.014,-1.047 -3.629,-0.781 -4.624,0.079 -1.10400004,0.953 -2.28100004,3.912 -0.584,6.245 l 7.703,1.317 c 0.068,-0.655 0.1,-1.259 0.111,-1.849 0.025,-0.077 0.052,-0.151 0.088,-0.213 0.374,-0.708 0.13,-1.292 -0.312,-2.229"
     id="path743" />
  <path
     style="fill:none;stroke:#231f20;stroke-width:0.565977;stroke-linecap:butt;stroke-linejoin:miter;stroke-miterlimit:4;stroke-dasharray:none;stroke-opacity:1"
     d="m 8.9734055,106.3378 c -0.334,-1.522 -1.074,-2.667 -2.382,-3.35 -2.014,-1.047 -3.629,-0.781 -4.624,0.079 -1.10400004,0.953 -2.28100004,3.912 -0.584,6.245 l 7.703,1.317 c 0.068,-0.655 0.1,-1.259 0.111,-1.849 0.025,-0.077 0.052,-0.151 0.088,-0.213 0.374,-0.708 0.13,-1.292 -0.312,-2.229 z"
     id="path744" />
  <path
     style="fill:#231f20;fill-opacity:1;fill-rule:nonzero;stroke:none"
     d="m 281.9404,79.363796 c 1.167,-0.193 2.26,0.599 2.448,1.766 0.188,1.161 -0.604,2.254001 -1.765,2.442001 -1.162,0.192 -2.256,-0.598 -2.443,-1.765001 -0.188,-1.161 0.599,-2.256 1.76,-2.443"
     id="path745" />
  <path
     style="fill:#231f20;fill-opacity:1;fill-rule:nonzero;stroke:none"
     d="m 52.935405,82.159796 c 0.256,-1.15 -0.468,-2.296 -1.614,-2.552 -1.146,-0.26 -2.291,0.464 -2.547,1.615 -0.26,1.147 0.459,2.287001 1.609,2.547001 1.151,0.261 2.292,-0.463 2.552,-1.610001"
     id="path746" />
</svg>
