<?xml version="1.0" encoding="UTF-8" standalone="no"?>
<!-- Created with Inkscape (http://www.inkscape.org/) -->

<svg
   version="1.1"
   id="svg1"
   width="349.38885"
   height="162.52249"
   viewBox="0 0 349.38884 162.52249"
   sodipodi:docname="cell.svg"
   xmlns:inkscape="http://www.inkscape.org/namespaces/inkscape"
   xmlns:sodipodi="http://sodipodi.sourceforge.net/DTD/sodipodi-0.dtd"
   xmlns="http://www.w3.org/2000/svg"
   xmlns:svg="http://www.w3.org/2000/svg">
  <sodipodi:namedview
     id="namedview1"
     pagecolor="#ffffff"
     bordercolor="#000000"
     borderopacity="0.25"
     inkscape:showpageshadow="2"
     inkscape:pageopacity="0.0"
     inkscape:pagecheckerboard="0"
     inkscape:deskcolor="#d1d1d1">
    <inkscape:page
       x="0"
       y="0"
       inkscape:label="1"
       id="page1"
       width="349.38885"
       height="162.52249"
       margin="0"
       bleed="0" />
  </sodipodi:namedview>
  <defs
     id="defs1" />
  <path
     style="fill:#231f20;fill-opacity:1;fill-rule:nonzero;stroke:none"
     d="m 175.93693,62.816255 c 1.202,-0.624 1.948,0.037 2.082,1.062 0.043,0.308 0.407,0.527 0.423,0.828 0.036,0.704 -1.172,1.964 -2.48,1.224 -0.088,-0.052 -0.891,-0.224 -1.473,-0.442 -1.131,-0.438 -3.188,-1.854 -3.647,-4.511 -0.219,-1.255 0.557,-1.151 0.803,-0.676 0.77,1.531 1.136,1.509 1.489,1.843 1.177,1.114 2.803,0.672 2.803,0.672"
     id="path865" />
  <path
     style="fill:none;stroke:#231f20;stroke-width:0.332927;stroke-linecap:butt;stroke-linejoin:miter;stroke-miterlimit:4;stroke-dasharray:none;stroke-opacity:1"
     d="m 175.93693,62.816255 c 1.202,-0.624 1.948,0.037 2.082,1.062 0.043,0.308 0.407,0.527 0.423,0.828 0.036,0.704 -1.172,1.964 -2.48,1.224 -0.088,-0.052 -0.891,-0.224 -1.473,-0.442 -1.131,-0.438 -3.188,-1.854 -3.647,-4.511 -0.219,-1.255 0.557,-1.151 0.803,-0.676 0.77,1.531 1.136,1.509 1.489,1.843 1.177,1.114 2.803,0.672 2.803,0.672 z"
     id="path866" />
  <path
     style="fill:#63c99d;fill-opacity:1;fill-rule:nonzero;stroke:none"
     d="m 207.44193,86.744255 c 0.645,-3.063 1.115,-3.658 1.645,-4.412 3.312,-4.74 0.922,-6.276 -1.958,-6.344 -3.391,-0.088 -4.604,-0.183 -5.307,6.068 -0.193,1.745 -1.808,8.323 -1.808,8.323 -0.9,2.275 -0.557,4.974 0.453,6.026 1.068,1.099 0.73,0.588 1.896,1.427 1.126,0.802 3.303,1 4.183,0.13 0.844,-0.833 0.448,-2.448 0.183,-4.854 -0.21,-1.907 0.713,-6.364 0.713,-6.364"
     id="path867" />
  <path
     style="fill:none;stroke:#231f20;stroke-width:0.565977;stroke-linecap:butt;stroke-linejoin:miter;stroke-miterlimit:4;stroke-dasharray:none;stroke-opacity:1"
     d="m 207.44193,86.744255 c 0.645,-3.063 1.115,-3.658 1.645,-4.412 3.312,-4.74 0.922,-6.276 -1.958,-6.344 -3.391,-0.088 -4.604,-0.183 -5.307,6.068 -0.193,1.745 -1.808,8.323 -1.808,8.323 -0.9,2.275 -0.557,4.974 0.453,6.026 1.068,1.099 0.73,0.588 1.896,1.427 1.126,0.802 3.303,1 4.183,0.13 0.844,-0.833 0.448,-2.448 0.183,-4.854 -0.21,-1.907 0.713,-6.364 0.713,-6.364 z"
     id="path868" />
  <path
     style="fill:#231f20;fill-opacity:1;fill-rule:nonzero;stroke:none"
     d="m 192.68593,72.217255 c 1.199,-1.921 1.172,-2.453 0.396,-3.016 -0.52,-0.375 -0.869,-0.896 -1.172,-1.14 -1.011,-0.808 -3.057,-1.751 -9.536,-2.912 -1.464,-0.26 -3.527,-0.645 -4.355,-0.869 -1.312,-0.355 -1.014,2.062 -0.494,2.208 1.65,0.464 2.745,0.917 3.313,1.166 0.391,0.172 1.124,0.375 2.552,1.235 2.176,1.297 3.276,2.396 5.213,3.26 0.896,0.412 1.307,1.276 2.391,1.224 1.083,-0.041 1.692,-1.156 1.692,-1.156"
     id="path869" />
  <path
     style="fill:none;stroke:#231f20;stroke-width:0.565977;stroke-linecap:butt;stroke-linejoin:miter;stroke-miterlimit:4;stroke-dasharray:none;stroke-opacity:1"
     d="m 192.68593,72.217255 c 1.199,-1.921 1.172,-2.453 0.396,-3.016 -0.52,-0.375 -0.869,-0.896 -1.172,-1.14 -1.011,-0.808 -3.057,-1.751 -9.536,-2.912 -1.464,-0.26 -3.527,-0.645 -4.355,-0.869 -1.312,-0.355 -1.014,2.062 -0.494,2.208 1.65,0.464 2.745,0.917 3.313,1.166 0.391,0.172 1.124,0.375 2.552,1.235 2.176,1.297 3.276,2.396 5.213,3.26 0.896,0.412 1.307,1.276 2.391,1.224 1.083,-0.041 1.692,-1.156 1.692,-1.156 z"
     id="path870" />
  <path
     style="fill:#231f20;fill-opacity:1;fill-rule:nonzero;stroke:#231f20;stroke-width:0.565977;stroke-linecap:round;stroke-linejoin:round;stroke-miterlimit:4;stroke-dasharray:none;stroke-opacity:1"
     d="m 188.48293,71.733255 c 0.375,1.375 2.5,1.724 2.776,1.921 4.099,2.88 4.464,2.99 7.735,4.964 4.735,2.859 8.405,4.088 10.875,1.828 1.677,-1.541 1.973,-3.15 1.505,-4.385 -0.527,-1.36 -2.901,-3.469 -5.683,-2.672 l -1.645,-0.464 c -1.073,-0.453 -1.599,-0.667 -2.115,-0.932 -0.885,-0.464 -1.865,-0.907 -3.65,-1.713 -3.167,-1.427 -6.98,-1.907 -6.98,-1.907 -0.282,-0.12 -0.563,-0.109 -0.823,-0.025"
     id="path871" />
  <path
     style="fill:#63c99d;fill-opacity:1;fill-rule:nonzero;stroke:none"
     d="m 211.35793,76.280255 c -0.468,-1.386 -2.765,-3.579 -5.573,-2.88 l -4.11,6.65 c 3.319,1.771 6.011,2.271 8.022,0.558 1.724,-1.479 2.088,-3.079 1.661,-4.328"
     id="path872" />
  <path
     style="fill:none;stroke:#231f20;stroke-width:0.565977;stroke-linecap:butt;stroke-linejoin:miter;stroke-miterlimit:4;stroke-dasharray:none;stroke-opacity:1"
     d="m 211.35793,76.280255 c -0.468,-1.386 -2.765,-3.579 -5.573,-2.88 l -4.11,6.65 c 3.319,1.771 6.011,2.271 8.022,0.558 1.724,-1.479 2.088,-3.079 1.661,-4.328 z"
     id="path873" />
  <path
     style="fill:#ffffff;fill-opacity:1;fill-rule:nonzero;stroke:none"
     d="m 201.00893,105.50325 c 0.073,0.235 -0.911,0.839 -0.671,1.302 0.244,0.474 1.015,0.292 2.593,1.5 l 0.016,0.016 c 1.13,0.917 2.474,1.265 3.63,0.781 1.917,-0.801 2.589,-3.563 1.505,-6.161 -1.093,-2.615 -3.536,-4.072995 -5.448,-3.275995 -1.833,0.759995 -2.531,3.327995 -1.625,5.837995"
     id="path874" />
  <path
     style="fill:none;stroke:#231f20;stroke-width:0.565977;stroke-linecap:butt;stroke-linejoin:miter;stroke-miterlimit:4;stroke-dasharray:none;stroke-opacity:1"
     d="m 201.00893,105.50325 c 0.073,0.235 -0.911,0.839 -0.671,1.302 0.244,0.474 1.015,0.292 2.593,1.5 l 0.016,0.016 c 1.13,0.917 2.474,1.265 3.63,0.781 1.917,-0.801 2.589,-3.563 1.505,-6.161 -1.093,-2.615 -3.536,-4.072995 -5.448,-3.275995 -1.833,0.759995 -2.531,3.327995 -1.625,5.837995 z"
     id="path875" />
  <path
     style="fill:#231f20;fill-opacity:1;fill-rule:nonzero;stroke:none"
     d="m 194.47293,89.217255 c 0.713,-1.088 2.188,0.323 2.62,0.631 0.448,0.317 1.812,1.062 2.953,1.505 1.145,0.448 2.38,1.489 4.541,2.339 1.136,0.442 1.964,1.604 1.246,3.224 -0.71,1.609 -1.886,1.812 -3.178,1.061 -1.297,-0.744 -2.198,-1.995 -3.448,-2.839 -1.254,-0.848 -2.609,-1.593 -3.702,-2.124 -1.24,-0.609 -1.636,-1.37 -1.606,-1.844 0.063,-1.198 0.574,-1.953 0.574,-1.953"
     id="path876" />
  <path
     style="fill:none;stroke:#231f20;stroke-width:0.565977;stroke-linecap:butt;stroke-linejoin:miter;stroke-miterlimit:4;stroke-dasharray:none;stroke-opacity:1"
     d="m 194.47293,89.217255 c 0.713,-1.088 2.188,0.323 2.62,0.631 0.448,0.317 1.812,1.062 2.953,1.505 1.145,0.448 2.38,1.489 4.541,2.339 1.136,0.442 1.964,1.604 1.246,3.224 -0.71,1.609 -1.886,1.812 -3.178,1.061 -1.297,-0.744 -2.198,-1.995 -3.448,-2.839 -1.254,-0.848 -2.609,-1.593 -3.702,-2.124 -1.24,-0.609 -1.636,-1.37 -1.606,-1.844 0.063,-1.198 0.574,-1.953 0.574,-1.953 z"
     id="path877" />
  <path
     style="fill:#231f20;fill-opacity:1;fill-rule:nonzero;stroke:none"
     d="m 186.39893,85.102255 c 0.642,-0.062 2.24,1.052 3.808,1.407 1.058,0.239 3.255,1.875 4.328,2.036 0.99,0.141 1.422,0.303 1.448,1.453 0.016,0.683 -0.39,2.006 -0.901,2.042 -1.187,0.084 -2.083,-0.224 -2.995,-0.777 -1.046,-0.625 -3.718,-2.571 -4.182,-2.978 -1.135,-1.011 -1.875,-1.052 -2.203,-1.287 -0.615,-0.453 -0.593,-0.802 -0.391,-1.254 0.386,-0.886 1.088,-0.642 1.088,-0.642"
     id="path878" />
  <path
     style="fill:none;stroke:#231f20;stroke-width:0.565977;stroke-linecap:butt;stroke-linejoin:miter;stroke-miterlimit:4;stroke-dasharray:none;stroke-opacity:1"
     d="m 186.39893,85.102255 c 0.642,-0.062 2.24,1.052 3.808,1.407 1.058,0.239 3.255,1.875 4.328,2.036 0.99,0.141 1.422,0.303 1.448,1.453 0.016,0.683 -0.39,2.006 -0.901,2.042 -1.187,0.084 -2.083,-0.224 -2.995,-0.777 -1.046,-0.625 -3.718,-2.571 -4.182,-2.978 -1.135,-1.011 -1.875,-1.052 -2.203,-1.287 -0.615,-0.453 -0.593,-0.802 -0.391,-1.254 0.386,-0.886 1.088,-0.642 1.088,-0.642 z"
     id="path879" />
  <path
     style="fill:#ffffff;fill-opacity:1;fill-rule:nonzero;stroke:none"
     d="m 260.20693,92.342255 c 0.224,0.109 -0.005,1.244 0.495,1.38 0.51,0.146 0.906,-0.541 2.864,-0.869 h 0.021 c 1.443,-0.199 2.62,-0.943 3.052,-2.125 0.724,-1.948 -0.839,-4.318 -3.479,-5.303 -2.661,-0.984 -5.39,-0.197 -6.109,1.75 -0.699,1.859 0.708,4.121 3.156,5.167"
     id="path880" />
  <path
     style="fill:none;stroke:#231f20;stroke-width:0.565977;stroke-linecap:butt;stroke-linejoin:miter;stroke-miterlimit:4;stroke-dasharray:none;stroke-opacity:1"
     d="m 260.20693,92.342255 c 0.224,0.109 -0.005,1.244 0.495,1.38 0.51,0.146 0.906,-0.541 2.864,-0.869 h 0.021 c 1.443,-0.199 2.62,-0.943 3.052,-2.125 0.724,-1.948 -0.839,-4.318 -3.479,-5.303 -2.661,-0.984 -5.39,-0.197 -6.109,1.75 -0.699,1.859 0.708,4.121 3.156,5.167 z"
     id="path881" />
  <path
     style="fill:#231f20;fill-opacity:1;fill-rule:nonzero;stroke:none"
     d="m 220.65993,44.034255 c 1.339,-0.145 1.796,0.74 1.558,1.746 -0.074,0.301 0.186,0.634 0.093,0.926 -0.224,0.667 -1.803,1.407 -2.755,0.246 -0.062,-0.084 -0.75,-0.532 -1.214,-0.943 -0.9,-0.817 -2.307,-2.88 -1.78,-5.527 0.249,-1.249 0.937,-0.869 0.994,-0.333 0.167,1.704 0.515,1.813 0.724,2.251 0.698,1.468 2.38,1.634 2.38,1.634"
     id="path882" />
  <path
     style="fill:none;stroke:#231f20;stroke-width:0.332927;stroke-linecap:butt;stroke-linejoin:miter;stroke-miterlimit:4;stroke-dasharray:none;stroke-opacity:1"
     d="m 220.65993,44.034255 c 1.339,-0.145 1.796,0.74 1.558,1.746 -0.074,0.301 0.186,0.634 0.093,0.926 -0.224,0.667 -1.803,1.407 -2.755,0.246 -0.062,-0.084 -0.75,-0.532 -1.214,-0.943 -0.9,-0.817 -2.307,-2.88 -1.78,-5.527 0.249,-1.249 0.937,-0.869 0.994,-0.333 0.167,1.704 0.515,1.813 0.724,2.251 0.698,1.468 2.38,1.634 2.38,1.634 z"
     id="path883" />
  <path
     style="fill:#63c99d;fill-opacity:1;fill-rule:nonzero;stroke:none"
     d="m 250.88393,74.842255 c -1.802,-2.562 -1.917,-3.313 -2.104,-4.213 -1.209,-5.652 -3.964,-4.953 -5.974,-2.891 -2.38,2.416 -3.276,3.234 0.813,8.015 1.145,1.333 4.848,6.995 4.848,6.995 1.057,2.22 3.261,3.808 4.719,3.781 1.532,-0.025 0.928,-0.124 2.333,-0.411 1.36,-0.27 2.985,-1.729 2.953,-2.964 -0.03,-1.186 -1.484,-2.005 -3.426,-3.448 -1.532,-1.145 -4.162,-4.864 -4.162,-4.864"
     id="path884" />
  <path
     style="fill:none;stroke:#231f20;stroke-width:0.565977;stroke-linecap:butt;stroke-linejoin:miter;stroke-miterlimit:4;stroke-dasharray:none;stroke-opacity:1"
     d="m 250.88393,74.842255 c -1.802,-2.562 -1.917,-3.313 -2.104,-4.213 -1.209,-5.652 -3.964,-4.953 -5.974,-2.891 -2.38,2.416 -3.276,3.234 0.813,8.015 1.145,1.333 4.848,6.995 4.848,6.995 1.057,2.22 3.261,3.808 4.719,3.781 1.532,-0.025 0.928,-0.124 2.333,-0.411 1.36,-0.27 2.985,-1.729 2.953,-2.964 -0.03,-1.186 -1.484,-2.005 -3.426,-3.448 -1.532,-1.145 -4.162,-4.864 -4.162,-4.864 z"
     id="path885" />
  <path
     style="fill:#231f20;fill-opacity:1;fill-rule:nonzero;stroke:none"
     d="m 232.89493,58.837255 c 1.812,-1.36 1.979,-1.865 1.452,-2.667 -0.348,-0.541 -0.489,-1.15 -0.681,-1.489 -0.652,-1.115 -2.224,-2.735 -7.85,-6.152 -1.27,-0.771 -3.052,-1.869 -3.745,-2.38 -1.099,-0.796 -1.692,1.563 -1.26,1.885 1.375,1.022 2.229,1.844 2.677,2.282 0.302,0.297 0.911,0.756 1.932,2.068 1.563,1.994 2.194,3.421 3.688,4.921 0.687,0.704 0.76,1.663 1.791,2.005 1.027,0.35 1.996,-0.473 1.996,-0.473"
     id="path886" />
  <path
     style="fill:none;stroke:#231f20;stroke-width:0.565977;stroke-linecap:butt;stroke-linejoin:miter;stroke-miterlimit:4;stroke-dasharray:none;stroke-opacity:1"
     d="m 232.89493,58.837255 c 1.812,-1.36 1.979,-1.865 1.452,-2.667 -0.348,-0.541 -0.489,-1.15 -0.681,-1.489 -0.652,-1.115 -2.224,-2.735 -7.85,-6.152 -1.27,-0.771 -3.052,-1.869 -3.745,-2.38 -1.099,-0.796 -1.692,1.563 -1.26,1.885 1.375,1.022 2.229,1.844 2.677,2.282 0.302,0.297 0.911,0.756 1.932,2.068 1.563,1.994 2.194,3.421 3.688,4.921 0.687,0.704 0.76,1.663 1.791,2.005 1.027,0.35 1.996,-0.473 1.996,-0.473 z"
     id="path887" />
  <path
     style="fill:#231f20;fill-opacity:1;fill-rule:nonzero;stroke:#231f20;stroke-width:0.565977;stroke-linecap:round;stroke-linejoin:round;stroke-miterlimit:4;stroke-dasharray:none;stroke-opacity:1"
     d="m 229.14993,56.868255 c -0.146,1.422 1.708,2.51 1.896,2.797 2.786,4.167 3.088,4.391 5.426,7.416 3.391,4.371 6.375,6.839 9.49,5.62 2.12,-0.833 2.974,-2.229 2.985,-3.547 -0.005,-1.462 -1.459,-4.286 -4.344,-4.541 l -1.365,-1.027 c -0.843,-0.806 -1.255,-1.197 -1.635,-1.629 -0.661,-0.751 -1.417,-1.516 -2.792,-2.907 -2.437,-2.473 -5.823,-4.297 -5.823,-4.297 -0.218,-0.213 -0.489,-0.307 -0.756,-0.323"
     id="path888" />
  <path
     style="fill:#63c99d;fill-opacity:1;fill-rule:nonzero;stroke:none"
     d="m 244.69093,64.660255 -6.229,4.724 c 2.453,2.849 4.786,4.281 7.281,3.406 2.141,-0.761 3.052,-2.114 3.104,-3.437 0.068,-1.459 -1.291,-4.333 -4.156,-4.693"
     id="path889" />
  <path
     style="fill:none;stroke:#231f20;stroke-width:0.565977;stroke-linecap:butt;stroke-linejoin:miter;stroke-miterlimit:4;stroke-dasharray:none;stroke-opacity:1"
     d="m 244.69093,64.660255 -6.229,4.724 c 2.453,2.849 4.786,4.281 7.281,3.406 2.141,-0.761 3.052,-2.114 3.104,-3.437 0.068,-1.459 -1.291,-4.333 -4.156,-4.693 z"
     id="path890" />
  <path
     style="fill:#231f20;fill-opacity:1;fill-rule:nonzero;stroke:none"
     d="m 243.67093,84.692255 c -0.163,-1.292 1.875,-1.167 2.405,-1.215 0.547,-0.047 2.074,-0.364 3.224,-0.765 1.162,-0.396 2.776,-0.402 4.975,-1.151 1.156,-0.396 2.536,-0.052 3.041,1.651 0.495,1.682 -0.265,2.598 -1.74,2.865 -1.468,0.271 -2.968,-0.1 -4.462,0.067 -1.506,0.161 -3.027,0.474 -4.199,0.776 -1.344,0.338 -2.135,0.016 -2.416,-0.37 -0.729,-0.953 -0.828,-1.858 -0.828,-1.858"
     id="path891" />
  <path
     style="fill:none;stroke:#231f20;stroke-width:0.565977;stroke-linecap:butt;stroke-linejoin:miter;stroke-miterlimit:4;stroke-dasharray:none;stroke-opacity:1"
     d="m 243.67093,84.692255 c -0.163,-1.292 1.875,-1.167 2.405,-1.215 0.547,-0.047 2.074,-0.364 3.224,-0.765 1.162,-0.396 2.776,-0.402 4.975,-1.151 1.156,-0.396 2.536,-0.052 3.041,1.651 0.495,1.682 -0.265,2.598 -1.74,2.865 -1.468,0.271 -2.968,-0.1 -4.462,0.067 -1.506,0.161 -3.027,0.474 -4.199,0.776 -1.344,0.338 -2.135,0.016 -2.416,-0.37 -0.729,-0.953 -0.828,-1.858 -0.828,-1.858 z"
     id="path892" />
  <path
     style="fill:#231f20;fill-opacity:1;fill-rule:nonzero;stroke:none"
     d="m 234.85193,86.774255 c 0.443,-0.458 2.386,-0.64 3.814,-1.385 0.962,-0.505 3.697,-0.677 4.62,-1.251 0.842,-0.53 1.28,-0.686 2.041,0.167 0.453,0.511 1,1.787 0.629,2.147 -0.848,0.833 -1.728,1.182 -2.781,1.349 -1.197,0.197 -4.504,0.437 -5.113,0.432 -1.522,-0.037 -2.115,0.405 -2.511,0.442 -0.767,0.053 -0.975,-0.224 -1.115,-0.703 -0.276,-0.922 0.416,-1.198 0.416,-1.198"
     id="path893" />
  <path
     style="fill:none;stroke:#231f20;stroke-width:0.565977;stroke-linecap:butt;stroke-linejoin:miter;stroke-miterlimit:4;stroke-dasharray:none;stroke-opacity:1"
     d="m 234.85193,86.774255 c 0.443,-0.458 2.386,-0.64 3.814,-1.385 0.962,-0.505 3.697,-0.677 4.62,-1.251 0.842,-0.53 1.28,-0.686 2.041,0.167 0.453,0.511 1,1.787 0.629,2.147 -0.848,0.833 -1.728,1.182 -2.781,1.349 -1.197,0.197 -4.504,0.437 -5.113,0.432 -1.522,-0.037 -2.115,0.405 -2.511,0.442 -0.767,0.053 -0.975,-0.224 -1.115,-0.703 -0.276,-0.922 0.416,-1.198 0.416,-1.198 z"
     id="path894" />
  <path
     style="fill:#231f20;fill-opacity:1;fill-rule:nonzero;stroke:none"
     d="m 170.97293,84.077255 c -0.12,1.348 -1.074,1.619 -2.016,1.181 -0.282,-0.129 -0.662,0.058 -0.922,-0.093 -0.614,-0.344 -1.026,-2.041 0.303,-2.745 0.093,-0.047 0.667,-0.63 1.167,-1.006 0.978,-0.718 3.276,-1.686 5.765,-0.645 1.177,0.489 0.667,1.089 0.129,1.041 -1.697,-0.176 -1.88,0.147 -2.348,0.262 -1.573,0.39 -2.078,2.005 -2.078,2.005"
     id="path895" />
  <path
     style="fill:none;stroke:#231f20;stroke-width:0.332927;stroke-linecap:butt;stroke-linejoin:miter;stroke-miterlimit:4;stroke-dasharray:none;stroke-opacity:1"
     d="m 170.97293,84.077255 c -0.12,1.348 -1.074,1.619 -2.016,1.181 -0.282,-0.129 -0.662,0.058 -0.922,-0.093 -0.614,-0.344 -1.026,-2.041 0.303,-2.745 0.093,-0.047 0.667,-0.63 1.167,-1.006 0.978,-0.718 3.276,-1.686 5.765,-0.645 1.177,0.489 0.667,1.089 0.129,1.041 -1.697,-0.176 -1.88,0.147 -2.348,0.262 -1.573,0.39 -2.078,2.005 -2.078,2.005 z"
     id="path896" />
  <path
     style="fill:#63c99d;fill-opacity:1;fill-rule:nonzero;stroke:none"
     d="m 132.33793,103.52025 c 3.031,0.781 3.604,1.281 4.333,1.842 4.588,3.517 6.228,1.199 6.427,-1.676 0.24,-3.381 0.391,-4.593995 -5.828,-5.572995 -1.729,-0.265 -8.229,-2.177 -8.229,-2.177 -2.235,-1 -4.943,-0.782 -6.042,0.182 -1.146,1.02 -0.62,0.703 -1.505,1.833 -0.86,1.083 -1.147,3.254995 -0.323,4.166995 0.796,0.885 2.427,0.568 4.843,0.407 1.912,-0.126 6.324,0.995 6.324,0.995"
     id="path897" />
  <path
     style="fill:none;stroke:#231f20;stroke-width:0.565977;stroke-linecap:butt;stroke-linejoin:miter;stroke-miterlimit:4;stroke-dasharray:none;stroke-opacity:1"
     d="m 132.33793,103.52025 c 3.031,0.781 3.604,1.281 4.333,1.842 4.588,3.517 6.228,1.199 6.427,-1.676 0.24,-3.381 0.391,-4.593995 -5.828,-5.572995 -1.729,-0.265 -8.229,-2.177 -8.229,-2.177 -2.235,-1 -4.943,-0.782 -6.042,0.182 -1.146,1.02 -0.62,0.703 -1.505,1.833 -0.86,1.083 -1.147,3.254995 -0.323,4.166995 0.796,0.885 2.427,0.568 4.843,0.407 1.912,-0.126 6.324,0.995 6.324,0.995 z"
     id="path898" />
  <path
     style="fill:#231f20;fill-opacity:1;fill-rule:nonzero;stroke:none"
     d="m 154.04093,93.134255 c 0.973,2.041 1.437,2.307 2.322,1.952 0.599,-0.233 1.224,-0.249 1.594,-0.374 1.224,-0.411 3.125,-1.635 7.589,-6.468 1.011,-1.095 2.443,-2.626 3.077,-3.199 1,-0.921 -1.197,-1.968 -1.598,-1.609 -1.276,1.146 -2.244,1.817 -2.766,2.172 -0.354,0.234 -0.921,0.745 -2.417,1.478 -2.26,1.136 -3.78,1.475 -5.552,2.642 -0.823,0.53 -1.781,0.41 -2.317,1.353 -0.542,0.939 0.068,2.053 0.068,2.053"
     id="path899" />
  <path
     style="fill:none;stroke:#231f20;stroke-width:0.565977;stroke-linecap:butt;stroke-linejoin:miter;stroke-miterlimit:4;stroke-dasharray:none;stroke-opacity:1"
     d="m 154.04093,93.134255 c 0.973,2.041 1.437,2.307 2.322,1.952 0.599,-0.233 1.224,-0.249 1.594,-0.374 1.224,-0.411 3.125,-1.635 7.589,-6.468 1.011,-1.095 2.443,-2.626 3.077,-3.199 1,-0.921 -1.197,-1.968 -1.598,-1.609 -1.276,1.146 -2.244,1.817 -2.766,2.172 -0.354,0.234 -0.921,0.745 -2.417,1.478 -2.26,1.136 -3.78,1.475 -5.552,2.642 -0.823,0.53 -1.781,0.41 -2.317,1.353 -0.542,0.939 0.068,2.053 0.068,2.053 z"
     id="path900" />
  <path
     style="fill:#231f20;fill-opacity:1;fill-rule:nonzero;stroke:#231f20;stroke-width:0.565977;stroke-linecap:round;stroke-linejoin:round;stroke-miterlimit:4;stroke-dasharray:none;stroke-opacity:1"
     d="m 156.71293,89.853255 c -1.36,-0.423 -2.803,1.176 -3.115,1.301 -4.636,1.907 -4.923,2.156 -8.344,3.855 -4.959,2.448 -7.979,4.885 -7.391,8.181995 0.391,2.239 1.594,3.354 2.88,3.63 1.432,0.281 4.49,-0.583 5.308,-3.353 l 1.276,-1.142 c 0.959,-0.666 1.432,-0.989 1.922,-1.281 0.869,-0.489 1.77,-1.082995 3.412,-2.150995 2.905,-1.907 5.364,-4.86 5.364,-4.86 0.256,-0.172 0.396,-0.41 0.464,-0.676"
     id="path901" />
  <path
     style="fill:#63c99d;fill-opacity:1;fill-rule:nonzero;stroke:#231f20;stroke-width:0.565977;stroke-linecap:butt;stroke-linejoin:miter;stroke-miterlimit:4;stroke-dasharray:none;stroke-opacity:1"
     d="m 142.59793,96.498255 c -3.276,1.839 -5.147,3.843995 -4.781,6.458995 0.317,2.249 1.464,3.411 2.749,3.729 1.417,0.348 4.505,-0.407 5.428,-3.147 z"
     id="path902" />
  <path
     style="fill:#231f20;fill-opacity:1;fill-rule:nonzero;stroke:none"
     d="m 133.19693,93.889255 c 0.702,1.088 -1.183,1.859 -1.64,2.136 -0.475,0.28 -1.71,1.224 -2.574,2.088 -0.874,0.859 -2.333,1.562 -3.984,3.191995 -0.87,0.865 -2.261,1.152 -3.453,-0.167 -1.183,-1.300995 -0.891,-2.456995 0.323,-3.336995 1.202,-0.881 2.718,-1.193 3.994,-1.996 1.287,-0.801 2.516,-1.733 3.448,-2.52 1.058,-0.886 1.912,-0.937 2.334,-0.713 1.068,0.541 1.552,1.317 1.552,1.317"
     id="path903" />
  <path
     style="fill:none;stroke:#231f20;stroke-width:0.565977;stroke-linecap:butt;stroke-linejoin:miter;stroke-miterlimit:4;stroke-dasharray:none;stroke-opacity:1"
     d="m 133.19693,93.889255 c 0.702,1.088 -1.183,1.859 -1.64,2.136 -0.475,0.28 -1.71,1.224 -2.574,2.088 -0.874,0.859 -2.333,1.562 -3.984,3.191995 -0.87,0.865 -2.261,1.152 -3.453,-0.167 -1.183,-1.300995 -0.891,-2.456995 0.323,-3.336995 1.202,-0.881 2.718,-1.193 3.994,-1.996 1.287,-0.801 2.516,-1.733 3.448,-2.52 1.058,-0.886 1.912,-0.937 2.334,-0.713 1.068,0.541 1.552,1.317 1.552,1.317 z"
     id="path904" />
  <path
     style="fill:#231f20;fill-opacity:1;fill-rule:nonzero;stroke:none"
     d="m 140.23293,88.181255 c -0.198,0.609 -1.87,1.615 -2.828,2.905 -0.651,0.871 -3.036,2.215 -3.62,3.131 -0.531,0.844 -0.854,1.177 -1.916,0.734 -0.631,-0.265 -1.672,-1.177 -1.5,-1.655 0.406,-1.121 1.052,-1.814 1.921,-2.423 1,-0.703 3.865,-2.353 4.423,-2.61 1.385,-0.629 1.724,-1.286 2.072,-1.489 0.666,-0.38 0.974,-0.218 1.313,0.151 0.645,0.713 0.135,1.256 0.135,1.256"
     id="path905" />
  <path
     style="fill:none;stroke:#231f20;stroke-width:0.565977;stroke-linecap:butt;stroke-linejoin:miter;stroke-miterlimit:4;stroke-dasharray:none;stroke-opacity:1"
     d="m 140.23293,88.181255 c -0.198,0.609 -1.87,1.615 -2.828,2.905 -0.651,0.871 -3.036,2.215 -3.62,3.131 -0.531,0.844 -0.854,1.177 -1.916,0.734 -0.631,-0.265 -1.672,-1.177 -1.5,-1.655 0.406,-1.121 1.052,-1.814 1.921,-2.423 1,-0.703 3.865,-2.353 4.423,-2.61 1.385,-0.629 1.724,-1.286 2.072,-1.489 0.666,-0.38 0.974,-0.218 1.313,0.151 0.645,0.713 0.135,1.256 0.135,1.256 z"
     id="path906" />
  <path
     style="fill:#ffffff;fill-opacity:1;fill-rule:nonzero;stroke:none"
     d="m 0.332928,49.686255 c 0,0.687 0.557,1.244 1.239,1.244 h 84.151 c 0.682,0 1.239,-0.557 1.239,-1.244 0,-0.682 -0.557,-1.234 -1.239,-1.234 h -84.151 c -0.682,0 -1.239,0.552 -1.239,1.234"
     id="path907" />
  <path
     style="fill:none;stroke:#231f20;stroke-width:0.665856;stroke-linecap:butt;stroke-linejoin:miter;stroke-miterlimit:4;stroke-dasharray:none;stroke-opacity:1"
     d="m 0.332928,49.686255 c 0,0.687 0.557,1.244 1.239,1.244 h 84.151 c 0.682,0 1.239,-0.557 1.239,-1.244 0,-0.682 -0.557,-1.234 -1.239,-1.234 h -84.151 c -0.682,0 -1.239,0.552 -1.239,1.234 z"
     id="path908" />
  <path
     style="fill:#ffffff;fill-opacity:1;fill-rule:nonzero;stroke:none"
     d="m 0.332928,87.269255 c 0,0.682 0.557,1.24 1.239,1.24 h 84.151 c 0.682,0 1.239,-0.558 1.239,-1.24 0,-0.687 -0.557,-1.24 -1.239,-1.24 h -84.151 c -0.682,0 -1.239,0.553 -1.239,1.24"
     id="path909" />
  <path
     style="fill:none;stroke:#231f20;stroke-width:0.665856;stroke-linecap:butt;stroke-linejoin:miter;stroke-miterlimit:4;stroke-dasharray:none;stroke-opacity:1"
     d="m 0.332928,87.269255 c 0,0.682 0.557,1.24 1.239,1.24 h 84.151 c 0.682,0 1.239,-0.558 1.239,-1.24 0,-0.687 -0.557,-1.24 -1.239,-1.24 h -84.151 c -0.682,0 -1.239,0.553 -1.239,1.24 z"
     id="path910" />
  <path
     style="fill:#63c99d;fill-opacity:1;fill-rule:nonzero;stroke:none"
     d="m 72.155928,30.113255 c -2.604,1.745 -3.355,1.833 -4.26,2 -5.683,1.073 -5.048,3.844 -3.038,5.907 2.36,2.437 3.162,3.353 8.038,-0.62 1.353,-1.115 7.109,-4.683 7.109,-4.683 2.238,-1 3.885,-3.161 3.89,-4.62 0.01,-1.541 -0.105,-0.932 -0.354,-2.349 -0.24,-1.359 -1.656,-3.02 -2.891,-3.02 -1.188,0.005 -2.036,1.437 -3.532,3.338 -1.181,1.511 -4.962,4.047 -4.962,4.047"
     id="path911" />
  <path
     style="fill:none;stroke:#231f20;stroke-width:0.565977;stroke-linecap:butt;stroke-linejoin:miter;stroke-miterlimit:4;stroke-dasharray:none;stroke-opacity:1"
     d="m 72.155928,30.113255 c -2.604,1.745 -3.355,1.833 -4.26,2 -5.683,1.073 -5.048,3.844 -3.038,5.907 2.36,2.437 3.162,3.353 8.038,-0.62 1.353,-1.115 7.109,-4.683 7.109,-4.683 2.238,-1 3.885,-3.161 3.89,-4.62 0.01,-1.541 -0.105,-0.932 -0.354,-2.349 -0.24,-1.359 -1.656,-3.02 -2.891,-3.02 -1.188,0.005 -2.036,1.437 -3.532,3.338 -1.181,1.511 -4.962,4.047 -4.962,4.047 z"
     id="path912" />
  <path
     style="fill:#ffffff;fill-opacity:1;fill-rule:nonzero;stroke:none"
     d="m 89.722928,19.635255 c 0.047,-0.246 1.198,-0.303 1.214,-0.824 0.01,-0.526 -0.751,-0.739 -1.558,-2.558 l -0.005,-0.02 c -0.547,-1.349 -1.563,-2.302 -2.808,-2.428 -2.067,-0.218 -3.979,1.887 -4.276,4.688 -0.296,2.812 1.147,5.26 3.204,5.484 1.979,0.209 3.817,-1.713 4.229,-4.342"
     id="path913" />
  <path
     style="fill:none;stroke:#231f20;stroke-width:0.565977;stroke-linecap:butt;stroke-linejoin:miter;stroke-miterlimit:4;stroke-dasharray:none;stroke-opacity:1"
     d="m 89.722928,19.635255 c 0.047,-0.246 1.198,-0.303 1.214,-0.824 0.01,-0.526 -0.751,-0.739 -1.558,-2.558 l -0.005,-0.02 c -0.547,-1.349 -1.563,-2.302 -2.808,-2.428 -2.067,-0.218 -3.979,1.887 -4.276,4.688 -0.296,2.812 1.147,5.26 3.204,5.484 1.979,0.209 3.817,-1.713 4.229,-4.342 z"
     id="path914" />
  <path
     style="fill:#231f20;fill-opacity:1;fill-rule:nonzero;stroke:none"
     d="m 76.909928,47.712255 c -0.29,-0.574 0.178,-2.468 -0.057,-4.058 -0.161,-1.072 0.573,-3.713 0.328,-4.77 -0.213,-0.968 -0.224,-1.438 0.839,-1.875 0.63,-0.265 2.016,-0.36 2.229,0.104 0.51,1.079 0.546,2.021 0.36,3.073 -0.21,1.198 -1.063,4.396 -1.271,4.974 -0.532,1.422 -0.302,2.125 -0.406,2.521 -0.199,0.733 -0.532,0.839 -1.032,0.817 -0.963,-0.046 -0.99,-0.786 -0.99,-0.786"
     id="path915" />
  <path
     style="fill:none;stroke:#231f20;stroke-width:0.565977;stroke-linecap:butt;stroke-linejoin:miter;stroke-miterlimit:4;stroke-dasharray:none;stroke-opacity:1"
     d="m 76.909928,47.712255 c -0.29,-0.574 0.178,-2.468 -0.057,-4.058 -0.161,-1.072 0.573,-3.713 0.328,-4.77 -0.213,-0.968 -0.224,-1.438 0.839,-1.875 0.63,-0.265 2.016,-0.36 2.229,0.104 0.51,1.079 0.546,2.021 0.36,3.073 -0.21,1.198 -1.063,4.396 -1.271,4.974 -0.532,1.422 -0.302,2.125 -0.406,2.521 -0.199,0.733 -0.532,0.839 -1.032,0.817 -0.963,-0.046 -0.99,-0.786 -0.99,-0.786 z"
     id="path916" />
  <path
     style="fill:#231f20;fill-opacity:1;fill-rule:nonzero;stroke:none"
     d="m 77.832928,38.696255 c -1.267,-0.271 -0.48,-2.151 -0.349,-2.671 0.13,-0.532 0.333,-2.073 0.333,-3.297 0.005,-1.224 0.536,-2.751 0.547,-5.079 0,-1.224 0.781,-2.405 2.551,-2.323 1.76,0.084 2.371,1.099 2.142,2.579 -0.23,1.479 -1.074,2.771 -1.407,4.244 -0.339,1.469 -0.541,3.005 -0.645,4.219 -0.12,1.376 -0.688,2.016 -1.141,2.157 -1.135,0.38 -2.031,0.171 -2.031,0.171"
     id="path917" />
  <path
     style="fill:none;stroke:#231f20;stroke-width:0.565977;stroke-linecap:butt;stroke-linejoin:miter;stroke-miterlimit:4;stroke-dasharray:none;stroke-opacity:1"
     d="m 77.832928,38.696255 c -1.267,-0.271 -0.48,-2.151 -0.349,-2.671 0.13,-0.532 0.333,-2.073 0.333,-3.297 0.005,-1.224 0.536,-2.751 0.547,-5.079 0,-1.224 0.781,-2.405 2.551,-2.323 1.76,0.084 2.371,1.099 2.142,2.579 -0.23,1.479 -1.074,2.771 -1.407,4.244 -0.339,1.469 -0.541,3.005 -0.645,4.219 -0.12,1.376 -0.688,2.016 -1.141,2.157 -1.135,0.38 -2.031,0.171 -2.031,0.171 z"
     id="path918" />
  <path
     style="fill:#231f20;fill-opacity:1;fill-rule:nonzero;stroke:none"
     d="m 50.013928,41.509255 c -0.364,-2.235 -0.744,-2.62 -1.697,-2.527 -0.641,0.063 -1.245,-0.098 -1.631,-0.077 -1.296,0.057 -3.457,0.703 -9.088,4.109 -1.265,0.776 -3.073,1.848 -3.844,2.224 -1.208,0.61 0.61,2.219 1.088,1.984 1.548,-0.74 2.672,-1.12 3.262,-1.312 0.405,-0.13 1.093,-0.458 2.734,-0.761 2.484,-0.457 4.042,-0.364 6.062,-0.989 0.942,-0.287 1.829,0.093 2.605,-0.662 0.785,-0.75 0.509,-1.989 0.509,-1.989"
     id="path919" />
  <path
     style="fill:none;stroke:#231f20;stroke-width:0.565977;stroke-linecap:butt;stroke-linejoin:miter;stroke-miterlimit:4;stroke-dasharray:none;stroke-opacity:1"
     d="m 50.013928,41.509255 c -0.364,-2.235 -0.744,-2.62 -1.697,-2.527 -0.641,0.063 -1.245,-0.098 -1.631,-0.077 -1.296,0.057 -3.457,0.703 -9.088,4.109 -1.265,0.776 -3.073,1.848 -3.844,2.224 -1.208,0.61 0.61,2.219 1.088,1.984 1.548,-0.74 2.672,-1.12 3.262,-1.312 0.405,-0.13 1.093,-0.458 2.734,-0.761 2.484,-0.457 4.042,-0.364 6.062,-0.989 0.942,-0.287 1.829,0.093 2.605,-0.662 0.785,-0.75 0.509,-1.989 0.509,-1.989 z"
     id="path920" />
  <path
     style="fill:#231f20;fill-opacity:1;fill-rule:nonzero;stroke:#231f20;stroke-width:0.565977;stroke-linecap:round;stroke-linejoin:round;stroke-miterlimit:4;stroke-dasharray:none;stroke-opacity:1"
     d="m 48.467928,43.477255 c 1.156,0.824 3.021,-0.255 3.36,-0.276 5,-0.364 5.353,-0.52 9.129,-1.063 5.475,-0.785 9.105,-2.161 9.573,-5.484 0.318,-2.249 -0.468,-3.682 -1.614,-4.338 -1.266,-0.719 -4.443,-0.844 -6.083,1.537 l -1.568,0.681 c -1.12,0.328 -1.667,0.495 -2.229,0.62 -0.979,0.199 -2.016,0.48 -3.912,0.984 -3.354,0.907 -6.604,2.948 -6.604,2.948 -0.296,0.09 -0.511,0.272 -0.656,0.5"
     id="path921" />
  <path
     style="fill:#63c99d;fill-opacity:1;fill-rule:nonzero;stroke:none"
     d="m 69.103928,32.529255 c -1.246,-0.765 -4.418,-1.015 -6.136,1.303 l 1.026,7.745 c 0.646,-0.131 1.235,-0.281 1.796,-0.448 0.079,0.005 0.163,0.009 0.23,0.02 0.797,0.152 1.281,-0.255 2.046,-0.957 1.344,-0.772 2.224,-1.819 2.486,-3.267 0.401,-2.233 -0.334,-3.697 -1.448,-4.396"
     id="path922" />
  <path
     style="fill:none;stroke:#231f20;stroke-width:0.565977;stroke-linecap:butt;stroke-linejoin:miter;stroke-miterlimit:4;stroke-dasharray:none;stroke-opacity:1"
     d="m 69.103928,32.529255 c -1.246,-0.765 -4.418,-1.015 -6.136,1.303 l 1.026,7.745 c 0.646,-0.131 1.235,-0.281 1.796,-0.448 0.079,0.005 0.163,0.009 0.23,0.02 0.797,0.152 1.281,-0.255 2.046,-0.957 1.344,-0.772 2.224,-1.819 2.486,-3.267 0.401,-2.233 -0.334,-3.697 -1.448,-4.396 z"
     id="path923" />
  <path
     style="fill:#231f20;fill-opacity:1;fill-rule:nonzero;stroke:none"
     d="m 31.451928,45.873255 c 0.49,-1.26 1.485,-1.249 2.266,-0.572 0.239,0.203 0.646,0.129 0.859,0.343 0.5,0.505 0.423,2.245 -1.047,2.552 -0.104,0.021 -0.817,0.422 -1.401,0.641 -1.135,0.421 -3.615,0.719 -5.719,-0.969 -0.994,-0.796 -0.344,-1.239 0.162,-1.042 1.589,0.642 1.854,0.386 2.333,0.396 1.62,0.058 2.547,-1.349 2.547,-1.349"
     id="path924" />
  <path
     style="fill:none;stroke:#231f20;stroke-width:0.332927;stroke-linecap:butt;stroke-linejoin:miter;stroke-miterlimit:4;stroke-dasharray:none;stroke-opacity:1"
     d="m 31.451928,45.873255 c 0.49,-1.26 1.485,-1.249 2.266,-0.572 0.239,0.203 0.646,0.129 0.859,0.343 0.5,0.505 0.423,2.245 -1.047,2.552 -0.104,0.021 -0.817,0.422 -1.401,0.641 -1.135,0.421 -3.615,0.719 -5.719,-0.969 -0.994,-0.796 -0.344,-1.239 0.162,-1.042 1.589,0.642 1.854,0.386 2.333,0.396 1.62,0.058 2.547,-1.349 2.547,-1.349 z"
     id="path925" />
  <path
     style="fill:#231f20;fill-opacity:1;fill-rule:nonzero;stroke:none"
     d="m 300.68593,81.821255 c 0.302,-0.667 0.594,-3.901 0.63,-4.64 0.031,-0.667 0.443,-1.74 -0.573,-2.292 -0.411,-0.219 -1.167,-0.255 -1.479,-0.183 -0.256,0.052 -0.374,0.366 -0.349,0.762 0.027,0.666 0.292,0.837 0.423,2.114 0,0 0.077,0.291 0.254,0.818 0.495,1.557 0.422,0.828 0.64,3.234 0.016,0.167 0.204,0.276 0.314,0.26 0.177,-0.036 0.14,-0.073 0.14,-0.073"
     id="path926" />
  <path
     style="fill:none;stroke:#231f20;stroke-width:0.565977;stroke-linecap:round;stroke-linejoin:round;stroke-miterlimit:4;stroke-dasharray:none;stroke-opacity:1"
     d="m 300.68593,81.821255 c 0.302,-0.667 0.594,-3.901 0.63,-4.64 0.031,-0.667 0.443,-1.74 -0.573,-2.292 -0.411,-0.219 -1.167,-0.255 -1.479,-0.183 -0.256,0.052 -0.374,0.366 -0.349,0.762 0.027,0.666 0.292,0.837 0.423,2.114 0,0 0.077,0.291 0.254,0.818 0.495,1.557 0.422,0.828 0.64,3.234 0.016,0.167 0.204,0.276 0.314,0.26 0.177,-0.036 0.14,-0.073 0.14,-0.073 z"
     id="path927" />
  <path
     style="fill:#231f20;fill-opacity:1;fill-rule:nonzero;stroke:none"
     d="m 281.53493,5.5202549 c 1.307,0.323 1.432,1.307 0.86,2.176 -0.167,0.261 -0.043,0.657 -0.229,0.896 -0.434,0.552 -2.167,0.709 -2.667,-0.713 -0.032,-0.094 -0.521,-0.75 -0.819,-1.296 -0.562,-1.074 -1.176,-3.496 0.219,-5.80300006 0.667,-1.093 1.188,-0.5 1.057,0.025 -0.426,1.65800006 -0.14,1.89100006 -0.093,2.36600006 0.151,1.614 1.672,2.349 1.672,2.349"
     id="path928" />
  <path
     style="fill:none;stroke:#231f20;stroke-width:0.332927;stroke-linecap:butt;stroke-linejoin:miter;stroke-miterlimit:4;stroke-dasharray:none;stroke-opacity:1"
     d="m 281.53493,5.5202549 c 1.307,0.323 1.432,1.307 0.86,2.176 -0.167,0.261 -0.043,0.657 -0.229,0.896 -0.434,0.552 -2.167,0.709 -2.667,-0.713 -0.032,-0.094 -0.521,-0.75 -0.819,-1.296 -0.562,-1.074 -1.176,-3.496 0.219,-5.80300006 0.667,-1.093 1.188,-0.5 1.057,0.025 -0.426,1.65800006 -0.14,1.89100006 -0.093,2.36600006 0.151,1.614 1.672,2.349 1.672,2.349 z"
     id="path929" />
  <path
     style="fill:#231f20;fill-opacity:1;fill-rule:nonzero;stroke:none"
     d="m 287.46193,23.301255 c 2.182,-0.62 2.521,-1.037 2.318,-1.969 -0.13,-0.626 -0.042,-1.246 -0.105,-1.636 -0.219,-1.276 -1.099,-3.337 -5.135,-8.541 -0.921,-1.1780001 -2.198,-2.8440001 -2.656,-3.5680001 -0.734,-1.135 -2.13,0.86 -1.849,1.308 0.917,1.4530001 1.427,2.5200001 1.693,3.0880001 0.167,0.39 0.572,1.037 1.062,2.625 0.75,2.421 0.833,3.979 1.682,5.912 0.396,0.9 0.115,1.822 0.959,2.509 0.839,0.693 2.031,0.272 2.031,0.272"
     id="path930" />
  <path
     style="fill:none;stroke:#231f20;stroke-width:0.565977;stroke-linecap:butt;stroke-linejoin:miter;stroke-miterlimit:4;stroke-dasharray:none;stroke-opacity:1"
     d="m 287.46193,23.301255 c 2.182,-0.62 2.521,-1.037 2.318,-1.969 -0.13,-0.626 -0.042,-1.246 -0.105,-1.636 -0.219,-1.276 -1.099,-3.337 -5.135,-8.541 -0.921,-1.1780001 -2.198,-2.8440001 -2.656,-3.5680001 -0.734,-1.135 -2.13,0.86 -1.849,1.308 0.917,1.4530001 1.427,2.5200001 1.693,3.0880001 0.167,0.39 0.572,1.037 1.062,2.625 0.75,2.421 0.833,3.979 1.682,5.912 0.396,0.9 0.115,1.822 0.959,2.509 0.839,0.693 2.031,0.272 2.031,0.272 z"
     id="path931" />
  <path
     style="fill:#63c99d;fill-opacity:1;fill-rule:nonzero;stroke:none"
     d="m 300.60793,46.004255 c -1.245,-2.88 -1.193,-3.636 -1.198,-4.558 -0.02,-5.781 -2.859,-5.656 -5.255,-4.052 -2.823,1.875 -3.869,2.495 -0.844,8.016 0.849,1.531 3.308,7.839 3.308,7.839 0.577,2.38 2.411,4.389 3.843,4.667 1.505,0.285 0.933,0.061 2.37,0.077 1.386,0.011 3.276,-1.083 3.495,-2.301 0.213,-1.167 -1.037,-2.262 -2.647,-4.079 -1.26,-1.432 -3.072,-5.609 -3.072,-5.609"
     id="path932" />
  <path
     style="fill:none;stroke:#231f20;stroke-width:0.565977;stroke-linecap:butt;stroke-linejoin:miter;stroke-miterlimit:4;stroke-dasharray:none;stroke-opacity:1"
     d="m 300.60793,46.004255 c -1.245,-2.88 -1.193,-3.636 -1.198,-4.558 -0.02,-5.781 -2.859,-5.656 -5.255,-4.052 -2.823,1.875 -3.869,2.495 -0.844,8.016 0.849,1.531 3.308,7.839 3.308,7.839 0.577,2.38 2.411,4.389 3.843,4.667 1.505,0.285 0.933,0.061 2.37,0.077 1.386,0.011 3.276,-1.083 3.495,-2.301 0.213,-1.167 -1.037,-2.262 -2.647,-4.079 -1.26,-1.432 -3.072,-5.609 -3.072,-5.609 z"
     id="path933" />
  <path
     style="fill:#ffffff;fill-opacity:1;fill-rule:nonzero;stroke:none"
     d="m 308.50793,64.249255 c 0.23,0.088 0.126,1.228 0.642,1.317 0.516,0.083 0.838,-0.636 2.749,-1.177 l 0.027,-0.005 c 1.406,-0.355 2.489,-1.224 2.797,-2.443 0.5,-2.016 -1.308,-4.203 -4.048,-4.885 -2.744,-0.688 -5.369,0.39 -5.875,2.401 -0.489,1.927 1.156,4.02 3.708,4.792"
     id="path934" />
  <path
     style="fill:none;stroke:#231f20;stroke-width:0.565977;stroke-linecap:butt;stroke-linejoin:miter;stroke-miterlimit:4;stroke-dasharray:none;stroke-opacity:1"
     d="m 308.50793,64.249255 c 0.23,0.088 0.126,1.228 0.642,1.317 0.516,0.083 0.838,-0.636 2.749,-1.177 l 0.027,-0.005 c 1.406,-0.355 2.489,-1.224 2.797,-2.443 0.5,-2.016 -1.308,-4.203 -4.048,-4.885 -2.744,-0.688 -5.369,0.39 -5.875,2.401 -0.489,1.927 1.156,4.02 3.708,4.792 z"
     id="path935" />
  <path
     style="fill:#231f20;fill-opacity:1;fill-rule:nonzero;stroke:none"
     d="m 287.34693,20.837255 c -3.937,0.771 -1.452,4 -1.353,4.473 0.942,4.918 1.129,5.251 2.104,8.943 1.41,5.344 3.197,8.792 6.546,8.881 2.271,0.052 3.604,-0.896 4.131,-2.105 0.567,-1.348 0.323,-4.515 -2.229,-5.869 l -0.866,-1.479 c -0.448,-1.068 -0.681,-1.6 -0.864,-2.141 -0.312,-0.958 -0.713,-1.958 -1.432,-3.776 -1.276,-3.224 -3.682,-6.219 -3.682,-6.219 -0.495,-1.145 -2.355,-0.708 -2.355,-0.708"
     id="path936" />
  <path
     style="fill:none;stroke:#231f20;stroke-width:0.565977;stroke-linecap:butt;stroke-linejoin:miter;stroke-miterlimit:4;stroke-dasharray:none;stroke-opacity:1"
     d="m 287.34693,20.837255 c -3.937,0.771 -1.452,4 -1.353,4.473 0.942,4.918 1.129,5.251 2.104,8.943 1.41,5.344 3.197,8.792 6.546,8.881 2.271,0.052 3.604,-0.896 4.131,-2.105 0.567,-1.348 0.323,-4.515 -2.229,-5.869 l -0.866,-1.479 c -0.448,-1.068 -0.681,-1.6 -0.864,-2.141 -0.312,-0.958 -0.713,-1.958 -1.432,-3.776 -1.276,-3.224 -3.682,-6.219 -3.682,-6.219 -0.495,-1.145 -2.355,-0.708 -2.355,-0.708 z"
     id="path937" />
  <path
     style="fill:#63c99d;fill-opacity:1;fill-rule:nonzero;stroke:none"
     d="m 295.84693,35.034255 -7.025,3.418 c 0.322,0.573 0.65,1.082 0.989,1.568 0.021,0.077 0.041,0.15 0.052,0.224 0.104,0.801 0.641,1.134 1.552,1.64 1.156,1.032 2.423,1.536 3.88,1.328 2.251,-0.323 3.407,-1.479 3.713,-2.76 0.344,-1.423 -0.421,-4.506 -3.161,-5.418"
     id="path938" />
  <path
     style="fill:none;stroke:#231f20;stroke-width:0.565977;stroke-linecap:butt;stroke-linejoin:miter;stroke-miterlimit:4;stroke-dasharray:none;stroke-opacity:1"
     d="m 295.84693,35.034255 -7.025,3.418 c 0.322,0.573 0.65,1.082 0.989,1.568 0.021,0.077 0.041,0.15 0.052,0.224 0.104,0.801 0.641,1.134 1.552,1.64 1.156,1.032 2.423,1.536 3.88,1.328 2.251,-0.323 3.407,-1.479 3.713,-2.76 0.344,-1.423 -0.421,-4.506 -3.161,-5.418 z"
     id="path939" />
  <path
     style="fill:#231f20;fill-opacity:1;fill-rule:nonzero;stroke:none"
     d="m 299.03993,75.258255 c -0.385,-0.514 -0.234,-2.457 -0.734,-3.989 -0.339,-1.031 -0.052,-3.76 -0.464,-4.765 -0.375,-0.918 -0.463,-1.37 0.51,-1.984 0.579,-0.366 1.928,-0.688 2.214,-0.271 0.682,0.973 0.876,1.905 0.87,2.973 -0.005,1.219 -0.313,4.516 -0.428,5.115 -0.285,1.495 0.058,2.151 0.016,2.552 -0.068,0.76 -0.374,0.916 -0.874,0.973 -0.954,0.126 -1.11,-0.604 -1.11,-0.604"
     id="path940" />
  <path
     style="fill:none;stroke:#231f20;stroke-width:0.565977;stroke-linecap:butt;stroke-linejoin:miter;stroke-miterlimit:4;stroke-dasharray:none;stroke-opacity:1"
     d="m 299.03993,75.258255 c -0.385,-0.514 -0.234,-2.457 -0.734,-3.989 -0.339,-1.031 -0.052,-3.76 -0.464,-4.765 -0.375,-0.918 -0.463,-1.37 0.51,-1.984 0.579,-0.366 1.928,-0.688 2.214,-0.271 0.682,0.973 0.876,1.905 0.87,2.973 -0.005,1.219 -0.313,4.516 -0.428,5.115 -0.285,1.495 0.058,2.151 0.016,2.552 -0.068,0.76 -0.374,0.916 -0.874,0.973 -0.954,0.126 -1.11,-0.604 -1.11,-0.604 z"
     id="path941" />
  <path
     style="fill:#231f20;fill-opacity:1;fill-rule:nonzero;stroke:none"
     d="m 298.36793,65.900255 c -1.197,-0.49 -0.098,-2.204 0.115,-2.699 0.219,-0.495 0.688,-1.984 0.896,-3.187 0.213,-1.209 1,-2.62 1.405,-4.912 0.215,-1.197 1.188,-2.234 2.923,-1.849 1.713,0.385 2.14,1.491 1.661,2.907 -0.478,1.422 -1.53,2.552 -2.109,3.942 -0.588,1.391 -1.052,2.875 -1.364,4.042 -0.349,1.338 -1.021,1.87 -1.496,1.937 -1.181,0.172 -2.031,-0.181 -2.031,-0.181"
     id="path942" />
  <path
     style="fill:none;stroke:#231f20;stroke-width:0.565977;stroke-linecap:butt;stroke-linejoin:miter;stroke-miterlimit:4;stroke-dasharray:none;stroke-opacity:1"
     d="m 298.36793,65.900255 c -1.197,-0.49 -0.098,-2.204 0.115,-2.699 0.219,-0.495 0.688,-1.984 0.896,-3.187 0.213,-1.209 1,-2.62 1.405,-4.912 0.215,-1.197 1.188,-2.234 2.923,-1.849 1.713,0.385 2.14,1.491 1.661,2.907 -0.478,1.422 -1.53,2.552 -2.109,3.942 -0.588,1.391 -1.052,2.875 -1.364,4.042 -0.349,1.338 -1.021,1.87 -1.496,1.937 -1.181,0.172 -2.031,-0.181 -2.031,-0.181 z"
     id="path943" />
  <path
     style="fill:#ffffff;fill-opacity:1;fill-rule:nonzero;stroke:none"
     d="m 97.190928,87.253255 c 0,0.688 0.552,1.245 1.24,1.245 H 347.81593 c 0.683,0 1.24,-0.557 1.24,-1.245 0,-0.681 -0.557,-1.233 -1.24,-1.233 H 98.430928 c -0.688,0 -1.24,0.552 -1.24,1.233"
     id="path944" />
  <path
     style="fill:none;stroke:#231f20;stroke-width:0.665856;stroke-linecap:butt;stroke-linejoin:miter;stroke-miterlimit:4;stroke-dasharray:none;stroke-opacity:1"
     d="m 97.190928,87.253255 c 0,0.688 0.552,1.245 1.24,1.245 H 347.81593 c 0.683,0 1.24,-0.557 1.24,-1.245 0,-0.681 -0.557,-1.233 -1.24,-1.233 H 98.430928 c -0.688,0 -1.24,0.552 -1.24,1.233 z"
     id="path945" />
  <path
     style="fill:#ffffff;fill-opacity:1;fill-rule:nonzero;stroke:none"
     d="m 113.88993,96.253255 c -0.24,0.063 -0.803,-0.948 -1.276,-0.728 -0.48,0.219 -0.333,1 -1.615,2.52 l -0.01,0.016 c -0.97,1.088 -1.38,2.410995 -0.948,3.592995 0.713,1.954 3.442,2.745 6.088,1.776 2.666,-0.973 4.224,-3.344 3.516,-5.291995 -0.678,-1.864 -3.214,-2.676 -5.755,-1.885"
     id="path946" />
  <path
     style="fill:none;stroke:#231f20;stroke-width:0.565977;stroke-linecap:butt;stroke-linejoin:miter;stroke-miterlimit:4;stroke-dasharray:none;stroke-opacity:1"
     d="m 113.88993,96.253255 c -0.24,0.063 -0.803,-0.948 -1.276,-0.728 -0.48,0.219 -0.333,1 -1.615,2.52 l -0.01,0.016 c -0.97,1.088 -1.38,2.410995 -0.948,3.592995 0.713,1.954 3.442,2.745 6.088,1.776 2.666,-0.973 4.224,-3.344 3.516,-5.291995 -0.678,-1.864 -3.214,-2.676 -5.755,-1.885 z"
     id="path947" />
  <path
     style="fill:#231f20;fill-opacity:1;fill-rule:nonzero;stroke:none"
     d="m 141.70693,84.654255 c 1.131,0.339 1.76,1.532 1.422,2.656 -0.339,1.131 -1.531,1.767 -2.656,1.428 -1.126,-0.339 -1.766,-1.532 -1.427,-2.657 0.344,-1.129 1.531,-1.765 2.661,-1.427"
     id="path948" />
  <path
     style="fill:#231f20;fill-opacity:1;fill-rule:nonzero;stroke:none"
     d="m 337.85193,86.957255 c 0.09,1.172 -0.786,2.197 -1.962,2.292 -1.172,0.088 -2.204,-0.787 -2.292,-1.964 -0.094,-1.177 0.786,-2.199 1.958,-2.292 1.176,-0.093 2.203,0.787 2.296,1.964"
     id="path949" />
  <path
     style="fill:#231f20;fill-opacity:1;fill-rule:nonzero;stroke:none"
     d="m 340.64993,11.327255 c 0.958,0.953 0.552,1.86 -0.38,2.308 -0.276,0.134 -0.375,0.541 -0.656,0.65 -0.662,0.25 -2.23,-0.51 -1.928,-1.984 0.026,-0.1 -0.058,-0.917 -0.026,-1.542 0.068,-1.2080001 0.791,-3.5940001 3.182,-4.8480001 1.125,-0.595 1.272,0.176 0.886,0.561 -1.224,1.204 -1.094,1.548 -1.297,1.98 -0.703,1.464 0.219,2.8750001 0.219,2.8750001"
     id="path950" />
  <path
     style="fill:none;stroke:#231f20;stroke-width:0.332927;stroke-linecap:butt;stroke-linejoin:miter;stroke-miterlimit:4;stroke-dasharray:none;stroke-opacity:1"
     d="m 340.64993,11.327255 c 0.958,0.953 0.552,1.86 -0.38,2.308 -0.276,0.134 -0.375,0.541 -0.656,0.65 -0.662,0.25 -2.23,-0.51 -1.928,-1.984 0.026,-0.1 -0.058,-0.917 -0.026,-1.542 0.068,-1.2080001 0.791,-3.5940001 3.182,-4.8480001 1.125,-0.595 1.272,0.176 0.886,0.561 -1.224,1.204 -1.094,1.548 -1.297,1.98 -0.703,1.464 0.219,2.8750001 0.219,2.8750001 z"
     id="path951" />
  <path
     style="fill:#231f20;fill-opacity:1;fill-rule:nonzero;stroke:none"
     d="m 336.55593,29.624255 c 2.187,0.588 2.692,0.41 3,-0.5 0.208,-0.604 0.615,-1.09 0.755,-1.454 0.473,-1.202 0.787,-3.426 0.005,-9.963 -0.177,-1.49 -0.412,-3.568 -0.432,-4.427 -0.046,-1.355 -2.265,-0.369 -2.256,0.167 0.032,1.713 -0.077,2.89 -0.15,3.516 -0.047,0.426 -0.036,1.186 -0.438,2.801 -0.609,2.453 -1.338,3.828 -1.609,5.928 -0.125,0.978 -0.839,1.624 -0.475,2.645 0.366,1.025 1.6,1.287 1.6,1.287"
     id="path952" />
  <path
     style="fill:none;stroke:#231f20;stroke-width:0.565977;stroke-linecap:butt;stroke-linejoin:miter;stroke-miterlimit:4;stroke-dasharray:none;stroke-opacity:1"
     d="m 336.55593,29.624255 c 2.187,0.588 2.692,0.41 3,-0.5 0.208,-0.604 0.615,-1.09 0.755,-1.454 0.473,-1.202 0.787,-3.426 0.005,-9.963 -0.177,-1.49 -0.412,-3.568 -0.432,-4.427 -0.046,-1.355 -2.265,-0.369 -2.256,0.167 0.032,1.713 -0.077,2.89 -0.15,3.516 -0.047,0.426 -0.036,1.186 -0.438,2.801 -0.609,2.453 -1.338,3.828 -1.609,5.928 -0.125,0.978 -0.839,1.624 -0.475,2.645 0.366,1.025 1.6,1.287 1.6,1.287 z"
     id="path953" />
  <path
     style="fill:#63c99d;fill-opacity:1;fill-rule:nonzero;stroke:none"
     d="m 336.29993,55.717255 c 0.308,-3.12 0.714,-3.749 1.162,-4.563 2.776,-5.068 0.234,-6.338 -2.635,-6.093 -3.38,0.276 -4.599,0.307 -4.62,6.604 0,1.749 -0.901,8.464 -0.901,8.464 -0.646,2.359 -0.016,5.009 1.104,5.943 1.177,0.978 0.781,0.505 2.037,1.213 1.203,0.677 3.385,0.64 4.167,-0.317 0.754,-0.918 0.186,-2.486 -0.339,-4.85 -0.407,-1.865 0.025,-6.401 0.025,-6.401"
     id="path954" />
  <path
     style="fill:none;stroke:#231f20;stroke-width:0.565977;stroke-linecap:butt;stroke-linejoin:miter;stroke-miterlimit:4;stroke-dasharray:none;stroke-opacity:1"
     d="m 336.29993,55.717255 c 0.308,-3.12 0.714,-3.749 1.162,-4.563 2.776,-5.068 0.234,-6.338 -2.635,-6.093 -3.38,0.276 -4.599,0.307 -4.62,6.604 0,1.749 -0.901,8.464 -0.901,8.464 -0.646,2.359 -0.016,5.009 1.104,5.943 1.177,0.978 0.781,0.505 2.037,1.213 1.203,0.677 3.385,0.64 4.167,-0.317 0.754,-0.918 0.186,-2.486 -0.339,-4.85 -0.407,-1.865 0.025,-6.401 0.025,-6.401 z"
     id="path955" />
  <path
     style="fill:#ffffff;fill-opacity:1;fill-rule:nonzero;stroke:none"
     d="m 334.17493,74.748255 c 0.141,0.204 -0.604,1.084 -0.228,1.448 0.375,0.365 1.052,-0.042 2.927,0.614 l 0.021,0.006 c 1.359,0.521 2.744,0.422 3.692,-0.396 1.568,-1.364 1.339,-4.198 -0.511,-6.323 -1.853,-2.14 -4.625,-2.76 -6.197,-1.401 -1.5,1.302 -1.349,3.964 0.296,6.052"
     id="path956" />
  <path
     style="fill:none;stroke:#231f20;stroke-width:0.565977;stroke-linecap:butt;stroke-linejoin:miter;stroke-miterlimit:4;stroke-dasharray:none;stroke-opacity:1"
     d="m 334.17493,74.748255 c 0.141,0.204 -0.604,1.084 -0.228,1.448 0.375,0.365 1.052,-0.042 2.927,0.614 l 0.021,0.006 c 1.359,0.521 2.744,0.422 3.692,-0.396 1.568,-1.364 1.339,-4.198 -0.511,-6.323 -1.853,-2.14 -4.625,-2.76 -6.197,-1.401 -1.5,1.302 -1.349,3.964 0.296,6.052 z"
     id="path957" />
  <path
     style="fill:#231f20;fill-opacity:1;fill-rule:nonzero;stroke:none"
     d="m 337.72793,27.452255 c -3.766,-1.375 -3.302,2.672 -3.464,3.125 -1.729,4.703 -1.74,5.083 -2.813,8.749 -1.541,5.308 -1.791,9.183 1.037,10.984 1.916,1.219 3.547,1.095 4.62,0.328 1.178,-0.858 2.61,-3.697 1.115,-6.176 l 0.031,-1.714 c 0.161,-1.146 0.229,-1.719 0.36,-2.28 0.218,-0.98 0.394,-2.043 0.718,-3.97 0.567,-3.426 0.047,-7.234 0.047,-7.234 0.177,-1.23 -1.651,-1.812 -1.651,-1.812"
     id="path958" />
  <path
     style="fill:none;stroke:#231f20;stroke-width:0.565977;stroke-linecap:butt;stroke-linejoin:miter;stroke-miterlimit:4;stroke-dasharray:none;stroke-opacity:1"
     d="m 337.72793,27.452255 c -3.766,-1.375 -3.302,2.672 -3.464,3.125 -1.729,4.703 -1.74,5.083 -2.813,8.749 -1.541,5.308 -1.791,9.183 1.037,10.984 1.916,1.219 3.547,1.095 4.62,0.328 1.178,-0.858 2.61,-3.697 1.115,-6.176 l 0.031,-1.714 c 0.161,-1.146 0.229,-1.719 0.36,-2.28 0.218,-0.98 0.394,-2.043 0.718,-3.97 0.567,-3.426 0.047,-7.234 0.047,-7.234 0.177,-1.23 -1.651,-1.812 -1.651,-1.812 z"
     id="path959" />
  <path
     style="fill:#63c99d;fill-opacity:1;fill-rule:nonzero;stroke:none"
     d="m 337.69093,43.993255 -7.787,-0.692 c -0.014,0.656 0.006,1.265 0.043,1.848 -0.021,0.079 -0.043,0.156 -0.068,0.219 -0.323,0.745 -0.032,1.302 0.484,2.204 0.459,1.484 1.281,2.566 2.641,3.14 2.094,0.885 3.682,0.489 4.604,-0.448 1.026,-1.042 1.963,-4.078 0.083,-6.271"
     id="path960" />
  <path
     style="fill:none;stroke:#231f20;stroke-width:0.565977;stroke-linecap:butt;stroke-linejoin:miter;stroke-miterlimit:4;stroke-dasharray:none;stroke-opacity:1"
     d="m 337.69093,43.993255 -7.787,-0.692 c -0.014,0.656 0.006,1.265 0.043,1.848 -0.021,0.079 -0.043,0.156 -0.068,0.219 -0.323,0.745 -0.032,1.302 0.484,2.204 0.459,1.484 1.281,2.566 2.641,3.14 2.094,0.885 3.682,0.489 4.604,-0.448 1.026,-1.042 1.963,-4.078 0.083,-6.271 z"
     id="path961" />
  <path
     style="fill:#231f20;fill-opacity:1;fill-rule:nonzero;stroke:none"
     d="m 334.52393,85.269255 c -0.396,-0.505 -0.292,-2.453 -0.828,-3.968 -0.364,-1.027 -0.14,-3.767 -0.582,-4.756 -0.396,-0.907 -0.495,-1.364 0.462,-2 0.568,-0.369 1.912,-0.729 2.208,-0.317 0.71,0.958 0.923,1.88 0.944,2.948 0.02,1.218 -0.209,4.52 -0.302,5.125 -0.255,1.5 0.104,2.145 0.073,2.547 -0.052,0.765 -0.36,0.932 -0.849,1.005 -0.954,0.14 -1.126,-0.584 -1.126,-0.584"
     id="path962" />
  <path
     style="fill:none;stroke:#231f20;stroke-width:0.565977;stroke-linecap:butt;stroke-linejoin:miter;stroke-miterlimit:4;stroke-dasharray:none;stroke-opacity:1"
     d="m 334.52393,85.269255 c -0.396,-0.505 -0.292,-2.453 -0.828,-3.968 -0.364,-1.027 -0.14,-3.767 -0.582,-4.756 -0.396,-0.907 -0.495,-1.364 0.462,-2 0.568,-0.369 1.912,-0.729 2.208,-0.317 0.71,0.958 0.923,1.88 0.944,2.948 0.02,1.218 -0.209,4.52 -0.302,5.125 -0.255,1.5 0.104,2.145 0.073,2.547 -0.052,0.765 -0.36,0.932 -0.849,1.005 -0.954,0.14 -1.126,-0.584 -1.126,-0.584 z"
     id="path963" />
  <path
     style="fill:#231f20;fill-opacity:1;fill-rule:nonzero;stroke:none"
     d="m 333.71793,76.244255 c -1.298,-0.027 -0.88,-2.022 -0.855,-2.558 0.032,-0.548 -0.068,-2.1 -0.297,-3.297 -0.228,-1.208 0,-2.803 -0.432,-5.093 -0.23,-1.199 0.308,-2.511 2.068,-2.767 1.734,-0.255 2.53,0.631 2.588,2.125 0.057,1.495 -0.526,2.923 -0.572,4.438 -0.052,1.51 0.041,3.052 0.166,4.261 0.151,1.369 -0.292,2.109 -0.709,2.339 -1.041,0.582 -1.957,0.552 -1.957,0.552"
     id="path964" />
  <path
     style="fill:none;stroke:#231f20;stroke-width:0.565977;stroke-linecap:butt;stroke-linejoin:miter;stroke-miterlimit:4;stroke-dasharray:none;stroke-opacity:1"
     d="m 333.71793,76.244255 c -1.298,-0.027 -0.88,-2.022 -0.855,-2.558 0.032,-0.548 -0.068,-2.1 -0.297,-3.297 -0.228,-1.208 0,-2.803 -0.432,-5.093 -0.23,-1.199 0.308,-2.511 2.068,-2.767 1.734,-0.255 2.53,0.631 2.588,2.125 0.057,1.495 -0.526,2.923 -0.572,4.438 -0.052,1.51 0.041,3.052 0.166,4.261 0.151,1.369 -0.292,2.109 -0.709,2.339 -1.041,0.582 -1.957,0.552 -1.957,0.552 z"
     id="path965" />
  <path
     style="fill:#231f20;fill-opacity:1;fill-rule:nonzero;stroke:none"
     d="m 231.84693,87.493255 c 0.073,-1.177 1.084,-2.073 2.256,-2 1.177,0.063 2.077,1.079 2.005,2.251 -0.068,1.176 -1.078,2.072 -2.25,2.009 -1.183,-0.072 -2.078,-1.083 -2.011,-2.26"
     id="path966" />
  <path
     style="fill:#231f20;fill-opacity:1;fill-rule:nonzero;stroke:none"
     d="m 46.243928,89.670255 c -1.115,0.38 -2.328,-0.213 -2.708,-1.328 -0.386,-1.114 0.208,-2.328 1.322,-2.708 1.115,-0.381 2.328,0.214 2.708,1.328 0.387,1.11 -0.208,2.323 -1.322,2.708"
     id="path967" />
  <path
     style="fill:#231f20;fill-opacity:1;fill-rule:nonzero;stroke:none"
     d="m 78.425928,51.577255 c -1.114,0.38 -2.322,-0.215 -2.708,-1.328 -0.38,-1.115 0.214,-2.329 1.328,-2.709 1.115,-0.38 2.323,0.213 2.708,1.328 0.38,1.114 -0.213,2.328 -1.328,2.709"
     id="path968" />
  <path
     style="fill:#231f20;fill-opacity:1;fill-rule:nonzero;stroke:none"
     d="m 20.395928,137.97725 c -2.063,-0.927 -2.595,-0.828 -3.043,0.021 -0.301,0.563 -0.771,0.984 -0.968,1.317 -0.661,1.115 -1.319,3.262 -1.579,9.845 -0.057,1.489 -0.15,3.578 -0.26,4.431 -0.172,1.345 2.183,0.719 2.25,0.188 0.234,-1.698 0.532,-2.843 0.704,-3.442 0.114,-0.412 0.218,-1.167 0.869,-2.703 0.989,-2.324 1.927,-3.568 2.521,-5.6 0.282,-0.943 1.088,-1.473 0.88,-2.536 -0.193,-1.073 -1.374,-1.521 -1.374,-1.521"
     id="path969" />
  <path
     style="fill:none;stroke:#231f20;stroke-width:0.565977;stroke-linecap:butt;stroke-linejoin:miter;stroke-miterlimit:4;stroke-dasharray:none;stroke-opacity:1"
     d="m 20.395928,137.97725 c -2.063,-0.927 -2.595,-0.828 -3.043,0.021 -0.301,0.563 -0.771,0.984 -0.968,1.317 -0.661,1.115 -1.319,3.262 -1.579,9.845 -0.057,1.489 -0.15,3.578 -0.26,4.431 -0.172,1.345 2.183,0.719 2.25,0.188 0.234,-1.698 0.532,-2.843 0.704,-3.442 0.114,-0.412 0.218,-1.167 0.869,-2.703 0.989,-2.324 1.927,-3.568 2.521,-5.6 0.282,-0.943 1.088,-1.473 0.88,-2.536 -0.193,-1.073 -1.374,-1.521 -1.374,-1.521 z"
     id="path970" />
  <path
     style="fill:#63c99d;fill-opacity:1;fill-rule:nonzero;stroke:none"
     d="m 24.993928,112.25825 c -0.942,2.991 -1.464,3.527 -2.068,4.224 -3.754,4.396 -1.526,6.162 1.334,6.511 3.364,0.417 4.562,0.636 5.874,-5.525 0.36,-1.715 2.61,-8.106 2.61,-8.106 1.114,-2.176 1.037,-4.894 0.13,-6.036 -0.953,-1.202 -0.661,-0.656 -1.745,-1.609 -1.036,-0.912 -3.181,-1.312 -4.145,-0.536 -0.922,0.739 -0.688,2.396 -0.656,4.812 0.02,1.912 -1.334,6.265 -1.334,6.265"
     id="path971" />
  <path
     style="fill:none;stroke:#231f20;stroke-width:0.565977;stroke-linecap:butt;stroke-linejoin:miter;stroke-miterlimit:4;stroke-dasharray:none;stroke-opacity:1"
     d="m 24.993928,112.25825 c -0.942,2.991 -1.464,3.527 -2.068,4.224 -3.754,4.396 -1.526,6.162 1.334,6.511 3.364,0.417 4.562,0.636 5.874,-5.525 0.36,-1.715 2.61,-8.106 2.61,-8.106 1.114,-2.176 1.037,-4.894 0.13,-6.036 -0.953,-1.202 -0.661,-0.656 -1.745,-1.609 -1.036,-0.912 -3.181,-1.312 -4.145,-0.536 -0.922,0.739 -0.688,2.396 -0.656,4.812 0.02,1.912 -1.334,6.265 -1.334,6.265 z"
     id="path972" />
  <path
     style="fill:#ffffff;fill-opacity:1;fill-rule:nonzero;stroke:none"
     d="m 35.431928,97.332255 c 0.13,-0.208 1.234,0.114 1.416,-0.375 0.182,-0.495 -0.458,-0.943 -0.624,-2.928 v -0.025 c -0.074,-1.448 -0.719,-2.683 -1.855,-3.214 -1.88,-0.885 -4.375,0.473 -5.579,3.02 -1.208,2.563 -0.656,5.35 1.224,6.228995 1.798,0.85 4.167,-0.357995 5.418,-2.706995"
     id="path973" />
  <path
     style="fill:none;stroke:#231f20;stroke-width:0.565977;stroke-linecap:butt;stroke-linejoin:miter;stroke-miterlimit:4;stroke-dasharray:none;stroke-opacity:1"
     d="m 35.431928,97.332255 c 0.13,-0.208 1.234,0.114 1.416,-0.375 0.182,-0.495 -0.458,-0.943 -0.624,-2.928 v -0.025 c -0.074,-1.448 -0.719,-2.683 -1.855,-3.214 -1.88,-0.885 -4.375,0.473 -5.579,3.02 -1.208,2.563 -0.656,5.35 1.224,6.228995 1.798,0.85 4.167,-0.357995 5.418,-2.706995 z"
     id="path974" />
  <path
     style="fill:#231f20;fill-opacity:1;fill-rule:nonzero;stroke:none"
     d="m 18.895928,139.94125 c 3.509,1.948 3.681,-2.131 3.916,-2.547 2.448,-4.369 2.516,-4.745 4.15,-8.203 2.36,-4.995 3.21,-8.781 0.704,-11.005 -1.698,-1.505 -3.333,-1.641 -4.51,-1.048 -1.298,0.663 -3.156,3.24 -2.074,5.923 l -0.297,1.683 c -0.337,1.114 -0.499,1.666 -0.713,2.197 -0.37,0.937 -0.708,1.948 -1.334,3.812 -1.098,3.292 -1.186,7.136 -1.186,7.136 -0.366,1.188 1.344,2.052 1.344,2.052"
     id="path975" />
  <path
     style="fill:none;stroke:#231f20;stroke-width:0.565977;stroke-linecap:butt;stroke-linejoin:miter;stroke-miterlimit:4;stroke-dasharray:none;stroke-opacity:1"
     d="m 18.895928,139.94125 c 3.509,1.948 3.681,-2.131 3.916,-2.547 2.448,-4.369 2.516,-4.745 4.15,-8.203 2.36,-4.995 3.21,-8.781 0.704,-11.005 -1.698,-1.505 -3.333,-1.641 -4.51,-1.048 -1.298,0.663 -3.156,3.24 -2.074,5.923 l -0.297,1.683 c -0.337,1.114 -0.499,1.666 -0.713,2.197 -0.37,0.937 -0.708,1.948 -1.334,3.812 -1.098,3.292 -1.186,7.136 -1.186,7.136 -0.366,1.188 1.344,2.052 1.344,2.052 z"
     id="path976" />
  <path
     style="fill:#63c99d;fill-opacity:1;fill-rule:nonzero;stroke:none"
     d="m 29.289928,121.63825 c -0.041,-1.552 -0.546,-2.823 -1.702,-3.738 -1.776,-1.413 -3.412,-1.459 -4.558,-0.803 -1.26,0.729 -2.984,3.406 -1.754,6.021 l 7.306,2.755 c 0.194,-0.624 0.339,-1.213 0.459,-1.787 0.041,-0.066 0.083,-0.14 0.131,-0.197 0.504,-0.626 0.374,-1.245 0.118,-2.251"
     id="path977" />
  <path
     style="fill:none;stroke:#231f20;stroke-width:0.565977;stroke-linecap:butt;stroke-linejoin:miter;stroke-miterlimit:4;stroke-dasharray:none;stroke-opacity:1"
     d="m 29.289928,121.63825 c -0.041,-1.552 -0.546,-2.823 -1.702,-3.738 -1.776,-1.413 -3.412,-1.459 -4.558,-0.803 -1.26,0.729 -2.984,3.406 -1.754,6.021 l 7.306,2.755 c 0.194,-0.624 0.339,-1.213 0.459,-1.787 0.041,-0.066 0.083,-0.14 0.131,-0.197 0.504,-0.626 0.374,-1.245 0.118,-2.251 z"
     id="path978" />
  <path
     style="fill:#231f20;fill-opacity:1;fill-rule:nonzero;stroke:none"
     d="m 44.628928,90.296255 c -0.093,0.634 -1.567,1.905 -2.291,3.342 -0.49,0.97 -2.62,2.704 -3.032,3.71 -0.385,0.915 -0.645,1.301 -1.765,1.041 -0.667,-0.145 -1.849,-0.869 -1.76,-1.369 0.208,-1.172 0.724,-1.97 1.484,-2.719 0.864,-0.855 3.407,-2.98 3.911,-3.324 1.256,-0.853 1.474,-1.563 1.786,-1.823 0.59,-0.484 0.918,-0.385 1.319,-0.073 0.749,0.594 0.348,1.215 0.348,1.215"
     id="path979" />
  <path
     style="fill:none;stroke:#231f20;stroke-width:0.565977;stroke-linecap:butt;stroke-linejoin:miter;stroke-miterlimit:4;stroke-dasharray:none;stroke-opacity:1"
     d="m 44.628928,90.296255 c -0.093,0.634 -1.567,1.905 -2.291,3.342 -0.49,0.97 -2.62,2.704 -3.032,3.71 -0.385,0.915 -0.645,1.301 -1.765,1.041 -0.667,-0.145 -1.849,-0.869 -1.76,-1.369 0.208,-1.172 0.724,-1.97 1.484,-2.719 0.864,-0.855 3.407,-2.98 3.911,-3.324 1.256,-0.853 1.474,-1.563 1.786,-1.823 0.59,-0.484 0.918,-0.385 1.319,-0.073 0.749,0.594 0.348,1.215 0.348,1.215 z"
     id="path980" />
  <path
     style="fill:#231f20;fill-opacity:1;fill-rule:nonzero;stroke:none"
     d="m 38.671928,97.124255 c 0.874,0.948 -0.855,2.03 -1.262,2.385 -0.41,0.353 -1.468,1.493995 -2.177,2.493995 -0.708,0.995 -2.025,1.938 -3.38,3.829 -0.708,1 -2.025,1.51 -3.432,0.421 -1.38,-1.083 -1.292,-2.266 -0.249,-3.343 1.041,-1.073 2.473,-1.641 3.598,-2.652 1.126,-1.004995 2.183,-2.139995 2.963,-3.065995 0.891,-1.058 1.724,-1.251 2.188,-1.106 1.136,0.35 1.751,1.038 1.751,1.038"
     id="path981" />
  <path
     style="fill:none;stroke:#231f20;stroke-width:0.565977;stroke-linecap:butt;stroke-linejoin:miter;stroke-miterlimit:4;stroke-dasharray:none;stroke-opacity:1"
     d="m 38.671928,97.124255 c 0.874,0.948 -0.855,2.03 -1.262,2.385 -0.41,0.353 -1.468,1.493995 -2.177,2.493995 -0.708,0.995 -2.025,1.938 -3.38,3.829 -0.708,1 -2.025,1.51 -3.432,0.421 -1.38,-1.083 -1.292,-2.266 -0.249,-3.343 1.041,-1.073 2.473,-1.641 3.598,-2.652 1.126,-1.004995 2.183,-2.139995 2.963,-3.065995 0.891,-1.058 1.724,-1.251 2.188,-1.106 1.136,0.35 1.751,1.038 1.751,1.038 z"
     id="path982" />
  <path
     style="fill:#231f20;fill-opacity:1;fill-rule:nonzero;stroke:none"
     d="m 12.341928,155.82625 c -0.561,-0.926 0.595,-1.412 1.72,-1.896 0.28,-0.125 0.536,-0.265 0.823,-0.358 1.161,-0.397 2.167,-0.095 1.411,2.801 -0.031,0.109 0.042,2.297 0.166,2.906 0.6,2.922 1.391,2.646 0.6,2.922 -0.532,0.183 -0.829,-0.229 -1.182,-0.75 -0.48,-0.708 -1.97,-3.338 -2.224,-3.724 -0.246,-0.379 -1.314,-1.901 -1.314,-1.901"
     id="path983" />
  <path
     style="fill:none;stroke:#231f20;stroke-width:0.565977;stroke-linecap:butt;stroke-linejoin:miter;stroke-miterlimit:4;stroke-dasharray:none;stroke-opacity:1"
     d="m 12.341928,155.82625 c -0.561,-0.926 0.595,-1.412 1.72,-1.896 0.28,-0.125 0.536,-0.265 0.823,-0.358 1.161,-0.397 2.167,-0.095 1.411,2.801 -0.031,0.109 0.042,2.297 0.166,2.906 0.6,2.922 1.391,2.646 0.6,2.922 -0.532,0.183 -0.829,-0.229 -1.182,-0.75 -0.48,-0.708 -1.97,-3.338 -2.224,-3.724 -0.246,-0.379 -1.314,-1.901 -1.314,-1.901 z"
     id="path984" />
  <path
     style="fill:none;stroke:#231f20;stroke-width:1.33171;stroke-linecap:butt;stroke-linejoin:bevel;stroke-miterlimit:4;stroke-dasharray:none;stroke-opacity:1"
     d="m 88.504928,98.405255 2.697,-2.428 v -24.4 l 1.751,-1.48"
     id="path986" />
  <path
     style="fill:none;stroke:#231f20;stroke-width:1.33171;stroke-linecap:butt;stroke-linejoin:bevel;stroke-miterlimit:4;stroke-dasharray:none;stroke-opacity:1"
     d="m 88.504928,42.430255 2.697,2.423 v 24.4 l 1.751,1.485"
     id="path987" />
  <path
     style="fill:#231f20;fill-opacity:1;fill-rule:nonzero;stroke:none"
     d="m 183.55093,86.034255 c -0.152,-1.166 0.682,-2.233 1.848,-2.38 1.167,-0.15 2.235,0.683 2.382,1.85 0.145,1.166 -0.678,2.234 -1.85,2.385 -1.172,0.145 -2.234,-0.683 -2.38,-1.855"
     id="path988" />
</svg>
