<?xml version="1.0" encoding="UTF-8" standalone="no"?>
<!-- Created with Inkscape (http://www.inkscape.org/) -->

<svg
   version="1.1"
   id="svg1"
   width="350.26291"
   height="144.254"
   viewBox="0 0 350.2629 144.254"
   sodipodi:docname="cell.svg"
   xmlns:inkscape="http://www.inkscape.org/namespaces/inkscape"
   xmlns:sodipodi="http://sodipodi.sourceforge.net/DTD/sodipodi-0.dtd"
   xmlns="http://www.w3.org/2000/svg"
   xmlns:svg="http://www.w3.org/2000/svg">
  <sodipodi:namedview
     id="namedview1"
     pagecolor="#ffffff"
     bordercolor="#000000"
     borderopacity="0.25"
     inkscape:showpageshadow="2"
     inkscape:pageopacity="0.0"
     inkscape:pagecheckerboard="0"
     inkscape:deskcolor="#d1d1d1">
    <inkscape:page
       x="0"
       y="0"
       inkscape:label="1"
       id="page1"
       width="350.26291"
       height="144.254"
       margin="0"
       bleed="0" />
  </sodipodi:namedview>
  <defs
     id="defs1" />
  <path
     style="fill:#ffffff;fill-opacity:1;fill-rule:nonzero;stroke:none"
     d="m 155.90093,18.874 h 18.869 V 0 h -18.869 z"
     id="path1482" />
  <path
     style="fill:#ffffff;fill-opacity:1;fill-rule:nonzero;stroke:none"
     d="m 333.33293,18.874 h 16.93 V 0 h -16.93 z"
     id="path1484" />
  <path
     style="fill:#63c99d;fill-opacity:1;fill-rule:nonzero;stroke:none"
     d="m 239.40993,72.457 c -3.443,-0.682 -4.416,-0.687 -5.547,-0.807 -5.744,-0.609 -6.276,0.573 -6.634,2.937 -0.5,3.35 -0.459,5.235 5.828,5.568 4.77,0.255 8.229,2.183 8.229,2.183 2.796,1.385 3.895,1.557 6.036,-0.193 1.188,-0.97 0.735,-0.615 1.521,-1.834 1.44,-2.245 1.17,-3.344 0.31,-4.161 -0.852,-0.823 -1.806,-1.245 -4.467,-2.131 -2.072,-0.692 -5.276,-1.562 -5.276,-1.562"
     id="path1485" />
  <path
     style="fill:none;stroke:#231f20;stroke-width:0.565977;stroke-linecap:butt;stroke-linejoin:miter;stroke-miterlimit:4;stroke-dasharray:none;stroke-opacity:1"
     d="m 239.40993,72.457 c -3.443,-0.682 -4.416,-0.687 -5.547,-0.807 -5.744,-0.609 -6.276,0.573 -6.634,2.937 -0.5,3.35 -0.459,5.235 5.828,5.568 4.77,0.255 8.229,2.183 8.229,2.183 2.796,1.385 3.895,1.557 6.036,-0.193 1.188,-0.97 0.735,-0.615 1.521,-1.834 1.44,-2.245 1.17,-3.344 0.31,-4.161 -0.852,-0.823 -1.806,-1.245 -4.467,-2.131 -2.072,-0.692 -5.276,-1.562 -5.276,-1.562 z"
     id="path1486" />
  <path
     style="fill:#ffffff;fill-opacity:1;fill-rule:nonzero;stroke:none"
     d="m 234.31093,92.671 c -2.244,0.234 -2.656,0.583 -2.62,1.541 0.022,0.646 -0.172,1.241 -0.177,1.626 -0.015,1.296 0.5,3.489 3.568,9.312 0.704,1.317 1.656,3.183 1.995,3.969 0.532,1.244 2.25,-0.469 2.046,-0.969 -0.656,-1.588 -0.962,-2.729 -1.118,-3.328 -0.11,-0.417 -0.396,-1.12 -0.6,-2.776 -0.318,-2.511 -0.124,-4.057 -0.63,-6.115 -0.234,-0.958 0.198,-1.812 -0.51,-2.63 -0.698,-0.834 -1.954,-0.63 -1.954,-0.63"
     id="path1487" />
  <path
     style="fill:none;stroke:#231f20;stroke-width:0.565977;stroke-linecap:butt;stroke-linejoin:miter;stroke-miterlimit:4;stroke-dasharray:none;stroke-opacity:1"
     d="m 234.31093,92.671 c -2.244,0.234 -2.656,0.583 -2.62,1.541 0.022,0.646 -0.172,1.241 -0.177,1.626 -0.015,1.296 0.5,3.489 3.568,9.312 0.704,1.317 1.656,3.183 1.995,3.969 0.532,1.244 2.25,-0.469 2.046,-0.969 -0.656,-1.588 -0.962,-2.729 -1.118,-3.328 -0.11,-0.417 -0.396,-1.12 -0.6,-2.776 -0.318,-2.511 -0.124,-4.057 -0.63,-6.115 -0.234,-0.958 0.198,-1.812 -0.51,-2.63 -0.698,-0.834 -1.954,-0.63 -1.954,-0.63 z"
     id="path1488" />
  <path
     style="fill:#ffffff;fill-opacity:1;fill-rule:nonzero;stroke:#231f20;stroke-width:0.565977;stroke-linecap:round;stroke-linejoin:round;stroke-miterlimit:4;stroke-dasharray:none;stroke-opacity:1"
     d="m 236.19093,94.333 c 0.886,-1.11 -0.082,-3.032 -0.082,-3.376 -0.068,-5.01 -0.199,-5.37 -0.516,-9.176 -0.464,-5.511 -1.62,-9.215 -4.907,-9.882 -2.229,-0.446 -3.703,0.256 -4.427,1.355 -0.797,1.224 -1.109,4.385 1.172,6.161 l 0.588,1.61 c 0.267,1.136 0.396,1.693 0.486,2.261 0.14,0.995 0.358,2.047 0.754,3.963 0.699,3.401 2.552,6.77 2.552,6.77 0.068,0.303 0.24,0.522 0.459,0.683"
     id="path1489" />
  <path
     style="fill:#231f20;fill-opacity:1;fill-rule:nonzero;stroke:none"
     d="m 237.57093,111.457 c -1.228,-0.567 -1.166,-1.558 -0.442,-2.302 0.218,-0.219 0.166,-0.636 0.396,-0.833 0.537,-0.464 2.265,-0.287 2.489,1.197 0.016,0.104 0.371,0.844 0.553,1.433 0.348,1.162 0.504,3.657 -1.302,5.657 -0.86,0.942 -1.255,0.265 -1.031,-0.224 0.728,-1.543 0.495,-1.823 0.531,-2.303 0.156,-1.615 -1.194,-2.625 -1.194,-2.625"
     id="path1490" />
  <path
     style="fill:none;stroke:#231f20;stroke-width:0.332927;stroke-linecap:butt;stroke-linejoin:miter;stroke-miterlimit:4;stroke-dasharray:none;stroke-opacity:1"
     d="m 237.57093,111.457 c -1.228,-0.567 -1.166,-1.558 -0.442,-2.302 0.218,-0.219 0.166,-0.636 0.396,-0.833 0.537,-0.464 2.265,-0.287 2.489,1.197 0.016,0.104 0.371,0.844 0.553,1.433 0.348,1.162 0.504,3.657 -1.302,5.657 -0.86,0.942 -1.255,0.265 -1.031,-0.224 0.728,-1.543 0.495,-1.823 0.531,-2.303 0.156,-1.615 -1.194,-2.625 -1.194,-2.625 z"
     id="path1491" />
  <path
     style="fill:#231f20;fill-opacity:1;fill-rule:nonzero;stroke:none"
     d="m 237.45693,91.317 c -2.162,0.672 -2.49,1.098 -2.26,2.026 0.146,0.63 0.073,1.25 0.146,1.63 0.234,1.275 1.167,3.322 5.323,8.432 0.943,1.152 2.255,2.792 2.735,3.5 0.765,1.119 2.113,-0.906 1.812,-1.354 -0.943,-1.428 -1.479,-2.485 -1.751,-3.042 -0.187,-0.39 -0.604,-1.026 -1.129,-2.604 -0.803,-2.4 -0.923,-3.952 -1.819,-5.875 -0.416,-0.885 -0.156,-1.817 -1.015,-2.479 -0.849,-0.682 -2.042,-0.234 -2.042,-0.234"
     id="path1492" />
  <path
     style="fill:none;stroke:#231f20;stroke-width:0.565977;stroke-linecap:butt;stroke-linejoin:miter;stroke-miterlimit:4;stroke-dasharray:none;stroke-opacity:1"
     d="m 237.45693,91.317 c -2.162,0.672 -2.49,1.098 -2.26,2.026 0.146,0.63 0.073,1.25 0.146,1.63 0.234,1.275 1.167,3.322 5.323,8.432 0.943,1.152 2.255,2.792 2.735,3.5 0.765,1.119 2.113,-0.906 1.812,-1.354 -0.943,-1.428 -1.479,-2.485 -1.751,-3.042 -0.187,-0.39 -0.604,-1.026 -1.129,-2.604 -0.803,-2.4 -0.923,-3.952 -1.819,-5.875 -0.416,-0.885 -0.156,-1.817 -1.015,-2.479 -0.849,-0.682 -2.042,-0.234 -2.042,-0.234 z"
     id="path1493" />
  <path
     style="fill:#231f20;fill-opacity:1;fill-rule:nonzero;stroke:#231f20;stroke-width:0.565977;stroke-linecap:round;stroke-linejoin:round;stroke-miterlimit:4;stroke-dasharray:none;stroke-opacity:1"
     d="m 239.62493,92.582 c 0.65,-1.265 -0.672,-2.963 -0.735,-3.296 -1.057,-4.901 -1.256,-5.229 -2.319,-8.896 -1.53,-5.313 -3.394,-8.713 -6.749,-8.724 -2.271,-0.005 -3.584,0.973 -4.079,2.197 -0.536,1.355 -0.218,4.522 2.366,5.814 l 0.89,1.457 c 0.484,1.063 0.724,1.584 0.922,2.125 0.328,0.943 0.756,1.932 1.521,3.735 1.353,3.197 3.828,6.14 3.828,6.14 0.125,0.276 0.339,0.464 0.583,0.578"
     id="path1494" />
  <path
     style="fill:#63c99d;fill-opacity:1;fill-rule:nonzero;stroke:none"
     d="m 230.08193,71.609 c -2.265,-0.09 -3.615,0.844 -4.151,2.041 -0.593,1.333 -0.396,4.511 2.136,5.896 l 7.531,-2.089 c -1.229,-3.552 -2.869,-5.739 -5.516,-5.848"
     id="path1495" />
  <path
     style="fill:none;stroke:#231f20;stroke-width:0.565977;stroke-linecap:butt;stroke-linejoin:miter;stroke-miterlimit:4;stroke-dasharray:none;stroke-opacity:1"
     d="m 230.08193,71.609 c -2.265,-0.09 -3.615,0.844 -4.151,2.041 -0.593,1.333 -0.396,4.511 2.136,5.896 l 7.531,-2.089 c -1.229,-3.552 -2.869,-5.739 -5.516,-5.848 z"
     id="path1496" />
  <path
     style="fill:#231f20;fill-opacity:1;fill-rule:nonzero;stroke:none"
     d="m 244.34693,109.098 c -1.317,-0.312 -1.446,-1.298 -0.885,-2.167 0.167,-0.26 0.037,-0.656 0.219,-0.896 0.433,-0.562 2.166,-0.734 2.677,0.683 0.037,0.099 0.532,0.755 0.823,1.296 0.578,1.073 1.214,3.485 -0.162,5.803 -0.656,1.098 -1.181,0.51 -1.057,-0.017 0.417,-1.66 0.125,-1.89 0.068,-2.364 -0.161,-1.614 -1.683,-2.338 -1.683,-2.338"
     id="path1497" />
  <path
     style="fill:none;stroke:#231f20;stroke-width:0.332927;stroke-linecap:butt;stroke-linejoin:miter;stroke-miterlimit:4;stroke-dasharray:none;stroke-opacity:1"
     d="m 244.34693,109.098 c -1.317,-0.312 -1.446,-1.298 -0.885,-2.167 0.167,-0.26 0.037,-0.656 0.219,-0.896 0.433,-0.562 2.166,-0.734 2.677,0.683 0.037,0.099 0.532,0.755 0.823,1.296 0.578,1.073 1.214,3.485 -0.162,5.803 -0.656,1.098 -1.181,0.51 -1.057,-0.017 0.417,-1.66 0.125,-1.89 0.068,-2.364 -0.161,-1.614 -1.683,-2.338 -1.683,-2.338 z"
     id="path1498" />
  <path
     style="fill:#ffffff;fill-opacity:1;fill-rule:nonzero;stroke:none"
     d="m 253.10293,85.035 c 0.22,0.11 0,1.24 0.5,1.375 0.52,0.136 0.9,-0.552 2.86,-0.905 h 0.02 c 1.44,-0.215 2.61,-0.975 3.03,-2.158 0.7,-1.952 -0.89,-4.312 -3.55,-5.26 -2.66,-0.953 -5.38,-0.13 -6.08,1.818 -0.68,1.87 0.76,4.114 3.22,5.13"
     id="path1499" />
  <path
     style="fill:none;stroke:#231f20;stroke-width:0.565977;stroke-linecap:butt;stroke-linejoin:miter;stroke-miterlimit:4;stroke-dasharray:none;stroke-opacity:1"
     d="m 253.10293,85.035 c 0.22,0.11 0,1.24 0.5,1.375 0.52,0.136 0.9,-0.552 2.86,-0.905 h 0.02 c 1.44,-0.215 2.61,-0.975 3.03,-2.158 0.7,-1.952 -0.89,-4.312 -3.55,-5.26 -2.66,-0.953 -5.38,-0.13 -6.08,1.818 -0.68,1.87 0.76,4.114 3.22,5.13 z"
     id="path1500" />
  <path
     style="fill:#231f20;fill-opacity:1;fill-rule:nonzero;stroke:none"
     d="m 238.74293,96.967 c -0.186,-0.614 0.61,-2.396 0.658,-4 0.025,-1.088 1.218,-3.562 1.166,-4.64 -0.042,-0.994 0.031,-1.453 1.151,-1.704 0.667,-0.145 2.047,0 2.177,0.496 0.312,1.151 0.182,2.088 -0.182,3.094 -0.422,1.14 -1.823,4.134 -2.131,4.666 -0.776,1.312 -0.677,2.042 -0.848,2.411 -0.319,0.688 -0.667,0.734 -1.152,0.625 -0.937,-0.213 -0.839,-0.948 -0.839,-0.948"
     id="path1501" />
  <path
     style="fill:none;stroke:#231f20;stroke-width:0.565977;stroke-linecap:butt;stroke-linejoin:miter;stroke-miterlimit:4;stroke-dasharray:none;stroke-opacity:1"
     d="m 238.74293,96.967 c -0.186,-0.614 0.61,-2.396 0.658,-4 0.025,-1.088 1.218,-3.562 1.166,-4.64 -0.042,-0.994 0.031,-1.453 1.151,-1.704 0.667,-0.145 2.047,0 2.177,0.496 0.312,1.151 0.182,2.088 -0.182,3.094 -0.422,1.14 -1.823,4.134 -2.131,4.666 -0.776,1.312 -0.677,2.042 -0.848,2.411 -0.319,0.688 -0.667,0.734 -1.152,0.625 -0.937,-0.213 -0.839,-0.948 -0.839,-0.948 z"
     id="path1502" />
  <path
     style="fill:#231f20;fill-opacity:1;fill-rule:nonzero;stroke:none"
     d="m 241.23793,88.254 c -1.203,-0.489 -0.099,-2.197 0.125,-2.692 0.224,-0.496 0.694,-1.98 0.912,-3.183 0.219,-1.208 1.006,-2.614 1.427,-4.906 0.219,-1.203 1.199,-2.23 2.927,-1.839 1.714,0.391 2.136,1.5 1.652,2.917 -0.491,1.416 -1.543,2.542 -2.131,3.932 -0.593,1.391 -1.068,2.864 -1.38,4.036 -0.355,1.334 -1.032,1.866 -1.505,1.928 -1.183,0.167 -2.027,-0.193 -2.027,-0.193"
     id="path1503" />
  <path
     style="fill:none;stroke:#231f20;stroke-width:0.565977;stroke-linecap:butt;stroke-linejoin:miter;stroke-miterlimit:4;stroke-dasharray:none;stroke-opacity:1"
     d="m 241.23793,88.254 c -1.203,-0.489 -0.099,-2.197 0.125,-2.692 0.224,-0.496 0.694,-1.98 0.912,-3.183 0.219,-1.208 1.006,-2.614 1.427,-4.906 0.219,-1.203 1.199,-2.23 2.927,-1.839 1.714,0.391 2.136,1.5 1.652,2.917 -0.491,1.416 -1.543,2.542 -2.131,3.932 -0.593,1.391 -1.068,2.864 -1.38,4.036 -0.355,1.334 -1.032,1.866 -1.505,1.928 -1.183,0.167 -2.027,-0.193 -2.027,-0.193 z"
     id="path1504" />
  <path
     style="fill:#63c99d;fill-opacity:1;fill-rule:nonzero;stroke:none"
     d="m 202.43093,98.259 c -3.354,-1.021 -4.328,-1.125 -5.442,-1.354 -5.656,-1.182 -6.303,-0.058 -6.891,2.261 -0.833,3.287 -0.975,5.167 5.249,6.12 4.724,0.728 7.97,2.989 7.97,2.989 2.641,1.661 3.724,1.937 6.026,0.411 1.276,-0.848 0.791,-0.541 1.692,-1.676 1.662,-2.095 1.5,-3.209 0.73,-4.111 -0.776,-0.9 -1.672,-1.416 -4.24,-2.561 -1.99,-0.896 -5.094,-2.079 -5.094,-2.079"
     id="path1505" />
  <path
     style="fill:none;stroke:#231f20;stroke-width:0.565977;stroke-linecap:butt;stroke-linejoin:miter;stroke-miterlimit:4;stroke-dasharray:none;stroke-opacity:1"
     d="m 202.43093,98.259 c -3.354,-1.021 -4.328,-1.125 -5.442,-1.354 -5.656,-1.182 -6.303,-0.058 -6.891,2.261 -0.833,3.287 -0.975,5.167 5.249,6.12 4.724,0.728 7.97,2.989 7.97,2.989 2.641,1.661 3.724,1.937 6.026,0.411 1.276,-0.848 0.791,-0.541 1.692,-1.676 1.662,-2.095 1.5,-3.209 0.73,-4.111 -0.776,-0.9 -1.672,-1.416 -4.24,-2.561 -1.99,-0.896 -5.094,-2.079 -5.094,-2.079 z"
     id="path1506" />
  <path
     style="fill:#231f20;fill-opacity:1;fill-rule:nonzero;stroke:none"
     d="m 174.64493,98.738 c 0.478,-2.214 0.27,-2.708 -0.656,-2.968 -0.615,-0.177 -1.12,-0.547 -1.49,-0.672 -1.229,-0.412 -3.474,-0.599 -9.958,0.516 -1.464,0.26 -3.536,0.598 -4.391,0.672 -1.355,0.124 -0.245,2.285 0.292,2.244 1.708,-0.125 2.891,-0.073 3.516,-0.036 0.421,0.025 1.181,-0.027 2.817,0.287 2.484,0.478 3.902,1.129 6.015,1.29 0.975,0.079 1.667,0.756 2.663,0.334 1.004,-0.411 1.192,-1.667 1.192,-1.667"
     id="path1507" />
  <path
     style="fill:none;stroke:#231f20;stroke-width:0.565977;stroke-linecap:butt;stroke-linejoin:miter;stroke-miterlimit:4;stroke-dasharray:none;stroke-opacity:1"
     d="m 174.64493,98.738 c 0.478,-2.214 0.27,-2.708 -0.656,-2.968 -0.615,-0.177 -1.12,-0.547 -1.49,-0.672 -1.229,-0.412 -3.474,-0.599 -9.958,0.516 -1.464,0.26 -3.536,0.598 -4.391,0.672 -1.355,0.124 -0.245,2.285 0.292,2.244 1.708,-0.125 2.891,-0.073 3.516,-0.036 0.421,0.025 1.181,-0.027 2.817,0.287 2.484,0.478 3.902,1.129 6.015,1.29 0.975,0.079 1.667,0.756 2.663,0.334 1.004,-0.411 1.192,-1.667 1.192,-1.667 z"
     id="path1508" />
  <path
     style="fill:#231f20;fill-opacity:1;fill-rule:nonzero;stroke:#231f20;stroke-width:0.565977;stroke-linecap:round;stroke-linejoin:round;stroke-miterlimit:4;stroke-dasharray:none;stroke-opacity:1"
     d="m 172.49393,100.01 c 0.781,1.181 2.907,0.864 3.229,0.968 4.791,1.479 5.172,1.469 8.891,2.344 5.385,1.26 9.26,1.301 10.916,-1.615 1.109,-1.984 0.896,-3.604 0.073,-4.63 -0.922,-1.135 -3.828,-2.411 -6.224,-0.791 l -1.713,0.061 c -1.156,-0.099 -1.729,-0.145 -2.297,-0.233 -0.984,-0.172 -2.052,-0.287 -4,-0.505 -3.454,-0.386 -7.23,0.333 -7.23,0.333 -0.301,-0.027 -0.568,0.068 -0.792,0.224"
     id="path1509" />
  <path
     style="fill:#63c99d;fill-opacity:1;fill-rule:nonzero;stroke:none"
     d="m 195.69693,97.343 c -0.875,-1.172 -3.739,-2.557 -6.187,-1.032 l -1.865,7.588 c 3.702,0.672 6.412,0.313 7.802,-1.937 1.182,-1.932 1.036,-3.567 0.25,-4.619"
     id="path1510" />
  <path
     style="fill:none;stroke:#231f20;stroke-width:0.565977;stroke-linecap:butt;stroke-linejoin:miter;stroke-miterlimit:4;stroke-dasharray:none;stroke-opacity:1"
     d="m 195.69693,97.343 c -0.875,-1.172 -3.739,-2.557 -6.187,-1.032 l -1.865,7.588 c 3.702,0.672 6.412,0.313 7.802,-1.937 1.182,-1.932 1.036,-3.567 0.25,-4.619 z"
     id="path1511" />
  <path
     style="fill:#231f20;fill-opacity:1;fill-rule:nonzero;stroke:none"
     d="m 155.18593,96.114 c 0.917,-0.991 1.839,-0.625 2.324,0.291 0.145,0.281 0.557,0.36 0.667,0.636 0.285,0.65 -0.418,2.245 -1.902,1.994 -0.104,-0.016 -0.917,0.094 -1.537,0.088 -1.213,-0.025 -3.629,-0.65 -4.968,-2.989 -0.641,-1.11 0.125,-1.281 0.521,-0.911 1.25,1.176 1.588,1.036 2.031,1.224 1.489,0.646 2.864,-0.333 2.864,-0.333"
     id="path1512" />
  <path
     style="fill:none;stroke:#231f20;stroke-width:0.332927;stroke-linecap:butt;stroke-linejoin:miter;stroke-miterlimit:4;stroke-dasharray:none;stroke-opacity:1"
     d="m 155.18593,96.114 c 0.917,-0.991 1.839,-0.625 2.324,0.291 0.145,0.281 0.557,0.36 0.667,0.636 0.285,0.65 -0.418,2.245 -1.902,1.994 -0.104,-0.016 -0.917,0.094 -1.537,0.088 -1.213,-0.025 -3.629,-0.65 -4.968,-2.989 -0.641,-1.11 0.125,-1.281 0.521,-0.911 1.25,1.176 1.588,1.036 2.031,1.224 1.489,0.646 2.864,-0.333 2.864,-0.333 z"
     id="path1513" />
  <path
     style="fill:#ffffff;fill-opacity:1;fill-rule:nonzero;stroke:none"
     d="m 213.32193,112.988 c 0.151,0.187 -0.532,1.121 -0.136,1.454 0.407,0.348 1.052,-0.109 2.975,0.41 l 0.016,0.011 c 1.39,0.423 2.77,0.24 3.656,-0.651 1.468,-1.464 1.046,-4.276 -0.938,-6.276 -2,-2 -4.808,-2.427 -6.276,-0.969 -1.417,1.402 -1.084,4.047 0.703,6.021"
     id="path1514" />
  <path
     style="fill:none;stroke:#231f20;stroke-width:0.565977;stroke-linecap:butt;stroke-linejoin:miter;stroke-miterlimit:4;stroke-dasharray:none;stroke-opacity:1"
     d="m 213.32193,112.988 c 0.151,0.187 -0.532,1.121 -0.136,1.454 0.407,0.348 1.052,-0.109 2.975,0.41 l 0.016,0.011 c 1.39,0.423 2.77,0.24 3.656,-0.651 1.468,-1.464 1.046,-4.276 -0.938,-6.276 -2,-2 -4.808,-2.427 -6.276,-0.969 -1.417,1.402 -1.084,4.047 0.703,6.021 z"
     id="path1515" />
  <path
     style="fill:#231f20;fill-opacity:1;fill-rule:nonzero;stroke:none"
     d="m 188.25893,107.04 c 0.459,-0.453 2.402,-0.583 3.844,-1.297 0.974,-0.484 3.708,-0.593 4.646,-1.15 0.854,-0.5 1.297,-0.657 2.037,0.224 0.448,0.516 0.963,1.806 0.588,2.15 -0.869,0.819 -1.76,1.142 -2.817,1.287 -1.21,0.167 -4.511,0.339 -5.126,0.312 -1.521,-0.067 -2.12,0.365 -2.521,0.386 -0.76,0.036 -0.963,-0.245 -1.099,-0.729 -0.249,-0.928 0.448,-1.183 0.448,-1.183"
     id="path1516" />
  <path
     style="fill:none;stroke:#231f20;stroke-width:0.565977;stroke-linecap:butt;stroke-linejoin:miter;stroke-miterlimit:4;stroke-dasharray:none;stroke-opacity:1"
     d="m 188.25893,107.04 c 0.459,-0.453 2.402,-0.583 3.844,-1.297 0.974,-0.484 3.708,-0.593 4.646,-1.15 0.854,-0.5 1.297,-0.657 2.037,0.224 0.448,0.516 0.963,1.806 0.588,2.15 -0.869,0.819 -1.76,1.142 -2.817,1.287 -1.21,0.167 -4.511,0.339 -5.126,0.312 -1.521,-0.067 -2.12,0.365 -2.521,0.386 -0.76,0.036 -0.963,-0.245 -1.099,-0.729 -0.249,-0.928 0.448,-1.183 0.448,-1.183 z"
     id="path1517" />
  <path
     style="fill:#231f20;fill-opacity:1;fill-rule:nonzero;stroke:none"
     d="m 197.01393,105.499 c -0.176,-1.281 1.855,-1.182 2.396,-1.24 0.548,-0.052 2.063,-0.385 3.215,-0.797 1.156,-0.411 2.77,-0.432 4.962,-1.208 1.156,-0.412 2.532,-0.079 3.047,1.62 0.521,1.677 -0.224,2.599 -1.697,2.88 -1.47,0.292 -2.97,-0.068 -4.47,0.12 -1.5,0.177 -3.014,0.505 -4.186,0.823 -1.334,0.354 -2.131,0.036 -2.418,-0.345 -0.74,-0.942 -0.849,-1.853 -0.849,-1.853"
     id="path1518" />
  <path
     style="fill:none;stroke:#231f20;stroke-width:0.565977;stroke-linecap:butt;stroke-linejoin:miter;stroke-miterlimit:4;stroke-dasharray:none;stroke-opacity:1"
     d="m 197.01393,105.499 c -0.176,-1.281 1.855,-1.182 2.396,-1.24 0.548,-0.052 2.063,-0.385 3.215,-0.797 1.156,-0.411 2.77,-0.432 4.962,-1.208 1.156,-0.412 2.532,-0.079 3.047,1.62 0.521,1.677 -0.224,2.599 -1.697,2.88 -1.47,0.292 -2.97,-0.068 -4.47,0.12 -1.5,0.177 -3.014,0.505 -4.186,0.823 -1.334,0.354 -2.131,0.036 -2.418,-0.345 -0.74,-0.942 -0.849,-1.853 -0.849,-1.853 z"
     id="path1519" />
  <path
     style="fill:#231f20;fill-opacity:1;fill-rule:nonzero;stroke:none"
     d="m 186.19093,106.405 c 1.104,-0.4 2.328,0.166 2.735,1.276 0.401,1.109 -0.167,2.329 -1.276,2.734 -1.109,0.402 -2.333,-0.172 -2.735,-1.281 -0.401,-1.104 0.167,-2.328 1.276,-2.729"
     id="path1520" />
  <path
     style="fill:#231f20;fill-opacity:1;fill-rule:nonzero;stroke:none"
     d="m 137.35793,108.057 c 0.199,1.161 -0.583,2.26 -1.744,2.457 -1.161,0.193 -2.261,-0.588 -2.459,-1.75 -0.197,-1.161 0.583,-2.259 1.75,-2.458 1.162,-0.192 2.261,0.589 2.453,1.751"
     id="path1521" />
  <path
     style="fill:#63c99d;fill-opacity:1;fill-rule:nonzero;stroke:none"
     d="m 143.15493,125.186 c 1.474,-3.181 1.714,-4.129 2.099,-5.203 1.953,-5.437 0.932,-6.235 -1.287,-7.141 -3.134,-1.28 -4.973,-1.682 -6.786,4.349 -1.375,4.573 -4.067,7.48 -4.067,7.48 -2.011,2.386 -2.437,3.416 -1.245,5.905 0.661,1.386 0.422,0.866 1.422,1.907 1.843,1.943 2.968,1.938 3.974,1.298 0.994,-0.642 1.636,-1.464 3.125,-3.845 1.161,-1.843 2.765,-4.75 2.765,-4.75"
     id="path1522" />
  <path
     style="fill:none;stroke:#231f20;stroke-width:0.565977;stroke-linecap:butt;stroke-linejoin:miter;stroke-miterlimit:4;stroke-dasharray:none;stroke-opacity:1"
     d="m 143.15493,125.186 c 1.474,-3.181 1.714,-4.129 2.099,-5.203 1.953,-5.437 0.932,-6.235 -1.287,-7.141 -3.134,-1.28 -4.973,-1.682 -6.786,4.349 -1.375,4.573 -4.067,7.48 -4.067,7.48 -2.011,2.386 -2.437,3.416 -1.245,5.905 0.661,1.386 0.422,0.866 1.422,1.907 1.843,1.943 2.968,1.938 3.974,1.298 0.994,-0.642 1.636,-1.464 3.125,-3.845 1.161,-1.843 2.765,-4.75 2.765,-4.75 z"
     id="path1523" />
  <path
     style="fill:#231f20;fill-opacity:1;fill-rule:nonzero;stroke:none"
     d="m 136.51893,98.775 c 2.194,-0.557 2.548,-0.964 2.366,-1.906 -0.115,-0.636 -0.006,-1.25 -0.058,-1.631 -0.172,-1.285 -1.005,-3.385 -4.885,-8.697 -0.885,-1.198 -2.109,-2.902 -2.552,-3.636 -0.709,-1.156 -2.156,0.797 -1.88,1.256 0.869,1.478 1.348,2.562 1.593,3.134 0.162,0.391 0.547,1.048 0.995,2.658 0.672,2.432 0.719,3.994 1.516,5.957 0.364,0.912 0.063,1.828 0.885,2.532 0.812,0.724 2.02,0.333 2.02,0.333"
     id="path1524" />
  <path
     style="fill:none;stroke:#231f20;stroke-width:0.565977;stroke-linecap:butt;stroke-linejoin:miter;stroke-miterlimit:4;stroke-dasharray:none;stroke-opacity:1"
     d="m 136.51893,98.775 c 2.194,-0.557 2.548,-0.964 2.366,-1.906 -0.115,-0.636 -0.006,-1.25 -0.058,-1.631 -0.172,-1.285 -1.005,-3.385 -4.885,-8.697 -0.885,-1.198 -2.109,-2.902 -2.552,-3.636 -0.709,-1.156 -2.156,0.797 -1.88,1.256 0.869,1.478 1.348,2.562 1.593,3.134 0.162,0.391 0.547,1.048 0.995,2.658 0.672,2.432 0.719,3.994 1.516,5.957 0.364,0.912 0.063,1.828 0.885,2.532 0.812,0.724 2.02,0.333 2.02,0.333 z"
     id="path1525" />
  <path
     style="fill:#231f20;fill-opacity:1;fill-rule:nonzero;stroke:#231f20;stroke-width:0.565977;stroke-linecap:round;stroke-linejoin:round;stroke-miterlimit:4;stroke-dasharray:none;stroke-opacity:1"
     d="m 134.42593,97.41 c -0.719,1.224 0.516,2.989 0.563,3.323 0.806,4.948 0.984,5.286 1.849,9 1.265,5.386 2.952,8.881 6.296,9.067 2.271,0.115 3.631,-0.79 4.183,-1.989 0.604,-1.328 0.458,-4.5 -2.058,-5.926 l -0.817,-1.506 c -0.428,-1.084 -0.636,-1.615 -0.808,-2.167 -0.281,-0.958 -0.656,-1.964 -1.323,-3.807 -1.192,-3.265 -3.51,-6.328 -3.51,-6.328 -0.11,-0.287 -0.312,-0.479 -0.552,-0.61"
     id="path1526" />
  <path
     style="fill:#63c99d;fill-opacity:1;fill-rule:nonzero;stroke:none"
     d="m 145.29493,111.01 -7.624,1.702 c 1.036,3.616 2.567,5.881 5.203,6.13 2.255,0.198 3.651,-0.656 4.245,-1.828 0.662,-1.307 0.63,-4.484 -1.824,-6.004"
     id="path1527" />
  <path
     style="fill:none;stroke:#231f20;stroke-width:0.565977;stroke-linecap:butt;stroke-linejoin:miter;stroke-miterlimit:4;stroke-dasharray:none;stroke-opacity:1"
     d="m 145.29493,111.01 -7.624,1.702 c 1.036,3.616 2.567,5.881 5.203,6.13 2.255,0.198 3.651,-0.656 4.245,-1.828 0.662,-1.307 0.63,-4.484 -1.824,-6.004 z"
     id="path1528" />
  <path
     style="fill:#231f20;fill-opacity:1;fill-rule:nonzero;stroke:none"
     d="m 130.22893,80.171 c 1.296,0.386 1.374,1.375 0.77,2.214 -0.188,0.249 -0.073,0.656 -0.27,0.88 -0.459,0.541 -2.204,0.62 -2.636,-0.818 -0.031,-0.104 -0.49,-0.781 -0.76,-1.338 -0.516,-1.099 -1.032,-3.543 0.473,-5.782 0.708,-1.062 1.204,-0.453 1.047,0.068 -0.5,1.64 -0.224,1.875 -0.192,2.359 0.082,1.62 1.568,2.417 1.568,2.417"
     id="path1529" />
  <path
     style="fill:none;stroke:#231f20;stroke-width:0.332927;stroke-linecap:butt;stroke-linejoin:miter;stroke-miterlimit:4;stroke-dasharray:none;stroke-opacity:1"
     d="m 130.22893,80.171 c 1.296,0.386 1.374,1.375 0.77,2.214 -0.188,0.249 -0.073,0.656 -0.27,0.88 -0.459,0.541 -2.204,0.62 -2.636,-0.818 -0.031,-0.104 -0.49,-0.781 -0.76,-1.338 -0.516,-1.099 -1.032,-3.543 0.473,-5.782 0.708,-1.062 1.204,-0.453 1.047,0.068 -0.5,1.64 -0.224,1.875 -0.192,2.359 0.082,1.62 1.568,2.417 1.568,2.417 z"
     id="path1530" />
  <path
     style="fill:#231f20;fill-opacity:1;fill-rule:nonzero;stroke:none"
     d="m 92.94793,109.103 c -0.376,1.115 -1.584,1.714 -2.704,1.339 -1.115002,-0.38 -1.714002,-1.59 -1.334002,-2.709 0.376,-1.114 1.590002,-1.714 2.704002,-1.334 1.115,0.376 1.714,1.589 1.334,2.704"
     id="path1531" />
  <path
     style="fill:#63c99d;fill-opacity:1;fill-rule:nonzero;stroke:none"
     d="m 87.248928,133.899 c 3.443002,0.683 4.423002,0.688 5.557002,0.808 5.746,0.604 6.271,-0.573 6.626,-2.943 0.505,-3.354 0.453,-5.234 -5.828,-5.562 -4.771002,-0.255 -8.235002,-2.183 -8.235002,-2.183 -2.792,-1.385 -3.896,-1.557 -6.031,0.199 -1.193,0.968 -0.74,0.615 -1.521,1.833 -1.443,2.249 -1.172,3.344 -0.312,4.161 0.859,0.823 1.807,1.245 4.473,2.131 2.068,0.687 5.271,1.556 5.271,1.556"
     id="path1532" />
  <path
     style="fill:none;stroke:#231f20;stroke-width:0.565977;stroke-linecap:butt;stroke-linejoin:miter;stroke-miterlimit:4;stroke-dasharray:none;stroke-opacity:1"
     d="m 87.248928,133.899 c 3.443002,0.683 4.423002,0.688 5.557002,0.808 5.746,0.604 6.271,-0.573 6.626,-2.943 0.505,-3.354 0.453,-5.234 -5.828,-5.562 -4.771002,-0.255 -8.235002,-2.183 -8.235002,-2.183 -2.792,-1.385 -3.896,-1.557 -6.031,0.199 -1.193,0.968 -0.74,0.615 -1.521,1.833 -1.443,2.249 -1.172,3.344 -0.312,4.161 0.859,0.823 1.807,1.245 4.473,2.131 2.068,0.687 5.271,1.556 5.271,1.556 z"
     id="path1533" />
  <path
     style="fill:#231f20;fill-opacity:1;fill-rule:nonzero;stroke:none"
     d="m 104.90093,115.629 c 1.853,1.297 2.395,1.292 2.989,0.542 0.402,-0.5 0.938,-0.824 1.192,-1.114 0.86,-0.975 1.902,-2.975 3.375,-9.386 0.324,-1.453 0.813,-3.49 1.079,-4.313 0.412,-1.292 -2.016,-1.104 -2.183,-0.593 -0.541,1.625 -1.052,2.697 -1.328,3.254 -0.187,0.38 -0.432,1.1 -1.353,2.49 -1.402,2.105 -2.548,3.157 -3.511,5.048 -0.453,0.869 -1.339,1.243 -1.339,2.328 -0.01,1.088 1.079,1.744 1.079,1.744"
     id="path1534" />
  <path
     style="fill:none;stroke:#231f20;stroke-width:0.565977;stroke-linecap:butt;stroke-linejoin:miter;stroke-miterlimit:4;stroke-dasharray:none;stroke-opacity:1"
     d="m 104.90093,115.629 c 1.853,1.297 2.395,1.292 2.989,0.542 0.402,-0.5 0.938,-0.824 1.192,-1.114 0.86,-0.975 1.902,-2.975 3.375,-9.386 0.324,-1.453 0.813,-3.49 1.079,-4.313 0.412,-1.292 -2.016,-1.104 -2.183,-0.593 -0.541,1.625 -1.052,2.697 -1.328,3.254 -0.187,0.38 -0.432,1.1 -1.353,2.49 -1.402,2.105 -2.548,3.157 -3.511,5.048 -0.453,0.869 -1.339,1.243 -1.339,2.328 -0.01,1.088 1.079,1.744 1.079,1.744 z"
     id="path1535" />
  <path
     style="fill:#231f20;fill-opacity:1;fill-rule:nonzero;stroke:#231f20;stroke-width:0.565977;stroke-linecap:round;stroke-linejoin:round;stroke-miterlimit:4;stroke-dasharray:none;stroke-opacity:1"
     d="m 104.56193,113.15 c -1.396,0.26 -1.922,2.355 -2.146,2.604 -3.214,3.849 -3.348,4.203 -5.594,7.297 -3.245,4.479 -4.781,8.042 -2.729,10.687 1.396,1.797 2.975,2.224 4.245,1.86 1.396,-0.407 3.698,-2.599 3.13,-5.437 l 0.604,-1.599 c 0.537,-1.032 0.802,-1.543 1.105,-2.027 0.541,-0.844 1.057,-1.787 2.015,-3.495 1.688,-3.041 2.485,-6.797 2.485,-6.797 0.14,-0.271 0.156,-0.557 0.099,-0.817"
     id="path1536" />
  <path
     style="fill:#63c99d;fill-opacity:1;fill-rule:nonzero;stroke:none"
     d="m 101.39593,130.275 -6.282,-4.652 c -2.052,3.158 -2.766,5.792 -1.224,7.943 1.323,1.839 2.886,2.333 4.167,2.016 1.416,-0.353 3.801,-2.459 3.339,-5.307"
     id="path1537" />
  <path
     style="fill:none;stroke:#231f20;stroke-width:0.565977;stroke-linecap:butt;stroke-linejoin:miter;stroke-miterlimit:4;stroke-dasharray:none;stroke-opacity:1"
     d="m 101.39593,130.275 -6.282,-4.652 c -2.052,3.158 -2.766,5.792 -1.224,7.943 1.323,1.839 2.886,2.333 4.167,2.016 1.416,-0.353 3.801,-2.459 3.339,-5.307 z"
     id="path1538" />
  <path
     style="fill:#231f20;fill-opacity:1;fill-rule:nonzero;stroke:none"
     d="m 114.83793,98.691 c 0.563,1.235 -0.136,1.943 -1.166,2.032 -0.308,0.031 -0.543,0.375 -0.844,0.375 -0.708,0.011 -1.907,-1.256 -1.104,-2.532 0.057,-0.088 0.27,-0.88 0.514,-1.447 0.491,-1.109 2,-3.1 4.677,-3.428 1.266,-0.161 1.131,0.615 0.636,0.839 -1.568,0.693 -1.568,1.057 -1.911,1.396 -1.172,1.125 -0.802,2.765 -0.802,2.765"
     id="path1539" />
  <path
     style="fill:none;stroke:#231f20;stroke-width:0.332927;stroke-linecap:butt;stroke-linejoin:miter;stroke-miterlimit:4;stroke-dasharray:none;stroke-opacity:1"
     d="m 114.83793,98.691 c 0.563,1.235 -0.136,1.943 -1.166,2.032 -0.308,0.031 -0.543,0.375 -0.844,0.375 -0.708,0.011 -1.907,-1.256 -1.104,-2.532 0.057,-0.088 0.27,-0.88 0.514,-1.447 0.491,-1.109 2,-3.1 4.677,-3.428 1.266,-0.161 1.131,0.615 0.636,0.839 -1.568,0.693 -1.568,1.057 -1.911,1.396 -1.172,1.125 -0.802,2.765 -0.802,2.765 z"
     id="path1540" />
  <path
     style="fill:none;stroke:#231f20;stroke-width:0.399514;stroke-linecap:butt;stroke-linejoin:miter;stroke-miterlimit:4;stroke-dasharray:none;stroke-opacity:1"
     d="m 33.139928,114.103 c 4.125,26.167 38.161,30.714 45.25,29.115"
     id="path1541" />
  <path
     style="fill:#231f20;fill-opacity:1;fill-rule:nonzero;stroke:none"
     d="m 79.561928,142.952 c -0.505,0.329 -1.109,0.838 -1.453,1.302 l 0.125,-1 -0.542,-0.849 c 0.51,0.276 1.276,0.469 1.87,0.547"
     id="path1542" />
  <path
     style="fill:none;stroke:#231f20;stroke-width:0.399514;stroke-linecap:butt;stroke-linejoin:miter;stroke-miterlimit:4;stroke-dasharray:none;stroke-opacity:1"
     d="m 263.79293,66.181 c -15.086,-21.771 -47.722,-11.078 -53.408,-6.558"
     id="path1543" />
  <path
     style="fill:#231f20;fill-opacity:1;fill-rule:nonzero;stroke:none"
     d="m 209.44193,60.374 c 0.312,-0.516 0.64,-1.235 0.744,-1.808 l 0.324,0.959 0.859,0.532 c -0.574,-0.027 -1.35,0.129 -1.927,0.317"
     id="path1544" />
  <path
     style="fill:#ffffff;fill-opacity:1;fill-rule:nonzero;stroke:none"
     d="m 0.33292764,108.478 c 0,0.682 0.557,1.24 1.23899996,1.24 H 339.69293 c 0.68,0 1.24,-0.558 1.24,-1.24 0,-0.688 -0.56,-1.24 -1.24,-1.24 H 1.5719276 c -0.68199996,0 -1.23899996,0.552 -1.23899996,1.24"
     id="path1545" />
  <path
     style="fill:none;stroke:#231f20;stroke-width:0.665856;stroke-linecap:butt;stroke-linejoin:miter;stroke-miterlimit:4;stroke-dasharray:none;stroke-opacity:1"
     d="m 0.33292764,108.478 c 0,0.682 0.557,1.24 1.23899996,1.24 H 339.69293 c 0.68,0 1.24,-0.558 1.24,-1.24 0,-0.688 -0.56,-1.24 -1.24,-1.24 H 1.5719276 c -0.68199996,0 -1.23899996,0.552 -1.23899996,1.24 z"
     id="path1546" />
  <path
     style="fill:#231f20;fill-opacity:1;fill-rule:nonzero;stroke:none"
     d="m 14.925928,104.286 c 0.448,-1.276 1.443,-1.303 2.251,-0.646 0.239,0.193 0.651,0.103 0.869,0.313 0.511,0.489 0.49,2.233 -0.969,2.587 -0.104,0.022 -0.801,0.443 -1.38,0.683 -1.125,0.458 -3.588,0.834 -5.7440004,-0.787 -1.027,-0.765 -0.381,-1.229 0.1240004,-1.046 1.604,0.588 1.865,0.328 2.344,0.322 1.625,0.011 2.505,-1.426 2.505,-1.426"
     id="path1547" />
  <path
     style="fill:none;stroke:#231f20;stroke-width:0.332927;stroke-linecap:butt;stroke-linejoin:miter;stroke-miterlimit:4;stroke-dasharray:none;stroke-opacity:1"
     d="m 14.925928,104.286 c 0.448,-1.276 1.443,-1.303 2.251,-0.646 0.239,0.193 0.651,0.103 0.869,0.313 0.511,0.489 0.49,2.233 -0.969,2.587 -0.104,0.022 -0.801,0.443 -1.38,0.683 -1.125,0.458 -3.588,0.834 -5.7440004,-0.787 -1.027,-0.765 -0.381,-1.229 0.1240004,-1.046 1.604,0.588 1.865,0.328 2.344,0.322 1.625,0.011 2.505,-1.426 2.505,-1.426 z"
     id="path1548" />
  <path
     style="fill:#63c99d;fill-opacity:1;fill-rule:nonzero;stroke:none"
     d="m 56.895928,89.175 c -2.948,1.058 -3.699,0.964 -4.62,0.907 -5.771,-0.339 -5.828,2.505 -4.375,4.995 1.697,2.933 2.249,4.016 7.947,1.338 1.584,-0.744 8.032,-2.812 8.032,-2.812 2.412,-0.428 4.53,-2.13 4.896,-3.541 0.38,-1.491 0.12,-0.933 0.218,-2.365 0.099,-1.375 -0.874,-3.334 -2.073,-3.631 -1.151,-0.285 -2.323,0.896 -4.235,2.387 -1.514,1.176 -5.79,2.722 -5.79,2.722"
     id="path1549" />
  <path
     style="fill:none;stroke:#231f20;stroke-width:0.565977;stroke-linecap:butt;stroke-linejoin:miter;stroke-miterlimit:4;stroke-dasharray:none;stroke-opacity:1"
     d="m 56.895928,89.175 c -2.948,1.058 -3.699,0.964 -4.62,0.907 -5.771,-0.339 -5.828,2.505 -4.375,4.995 1.697,2.933 2.249,4.016 7.947,1.338 1.584,-0.744 8.032,-2.812 8.032,-2.812 2.412,-0.428 4.53,-2.13 4.896,-3.541 0.38,-1.491 0.12,-0.933 0.218,-2.365 0.099,-1.375 -0.874,-3.334 -2.073,-3.631 -1.151,-0.285 -2.323,0.896 -4.235,2.387 -1.514,1.176 -5.79,2.722 -5.79,2.722 z"
     id="path1550" />
  <path
     style="fill:#ffffff;fill-opacity:1;fill-rule:nonzero;stroke:none"
     d="m 76.228928,85.254 c 0.176,-0.167 1.151,0.459 1.463,0.041 0.318,-0.421 -0.178,-1.041 0.224,-2.984 l 0.005,-0.025 c 0.339,-1.412 0.068,-2.777 -0.869,-3.609 -1.558,-1.376 -4.334,-0.782 -6.204,1.328 -1.88,2.118 -2.135,4.948 -0.583,6.322 1.484,1.323 4.099,0.828 5.964,-1.073"
     id="path1551" />
  <path
     style="fill:none;stroke:#231f20;stroke-width:0.565977;stroke-linecap:butt;stroke-linejoin:miter;stroke-miterlimit:4;stroke-dasharray:none;stroke-opacity:1"
     d="m 76.228928,85.254 c 0.176,-0.167 1.151,0.459 1.463,0.041 0.318,-0.421 -0.178,-1.041 0.224,-2.984 l 0.005,-0.025 c 0.339,-1.412 0.068,-2.777 -0.869,-3.609 -1.558,-1.376 -4.334,-0.782 -6.204,1.328 -1.88,2.118 -2.135,4.948 -0.583,6.322 1.484,1.323 4.099,0.828 5.964,-1.073 z"
     id="path1552" />
  <path
     style="fill:#231f20;fill-opacity:1;fill-rule:nonzero;stroke:none"
     d="m 33.571928,99.681 c -0.438,-2.224 -0.823,-2.599 -1.776,-2.469 -0.635,0.078 -1.244,-0.062 -1.635,-0.031 -1.287,0.1 -3.427,0.818 -8.943,4.401 -1.25,0.813 -3.016,1.942 -3.77,2.344 -1.199,0.645 0.672,2.203 1.15,1.953 1.522,-0.792 2.626,-1.208 3.214,-1.422 0.406,-0.14 1.078,-0.495 2.708,-0.848 2.469,-0.538 4.026,-0.495 6.026,-1.183 0.938,-0.312 1.834,0.036 2.583,-0.745 0.761,-0.776 0.443,-2 0.443,-2"
     id="path1553" />
  <path
     style="fill:none;stroke:#231f20;stroke-width:0.565977;stroke-linecap:butt;stroke-linejoin:miter;stroke-miterlimit:4;stroke-dasharray:none;stroke-opacity:1"
     d="m 33.571928,99.681 c -0.438,-2.224 -0.823,-2.599 -1.776,-2.469 -0.635,0.078 -1.244,-0.062 -1.635,-0.031 -1.287,0.1 -3.427,0.818 -8.943,4.401 -1.25,0.813 -3.016,1.942 -3.77,2.344 -1.199,0.645 0.672,2.203 1.15,1.953 1.522,-0.792 2.626,-1.208 3.214,-1.422 0.406,-0.14 1.078,-0.495 2.708,-0.848 2.469,-0.538 4.026,-0.495 6.026,-1.183 0.938,-0.312 1.834,0.036 2.583,-0.745 0.761,-0.776 0.443,-2 0.443,-2 z"
     id="path1554" />
  <path
     style="fill:#231f20;fill-opacity:1;fill-rule:nonzero;stroke:#231f20;stroke-width:0.565977;stroke-linecap:round;stroke-linejoin:round;stroke-miterlimit:4;stroke-dasharray:none;stroke-opacity:1"
     d="m 32.087928,101.697 c 1.182,0.786 3.016,-0.35 3.354,-0.386 4.984,-0.521 5.328,-0.688 9.094,-1.349 5.448,-0.957 9.026,-2.453 9.396,-5.781 0.245,-2.266 -0.594,-3.672 -1.755,-4.286 -1.292,-0.682 -4.469,-0.709 -6.032,1.724 l -1.552,0.734 c -1.104,0.365 -1.645,0.546 -2.203,0.688 -0.974,0.234 -2.005,0.546 -3.876,1.114 -3.322,1.005 -6.509,3.151 -6.509,3.151 -0.297,0.099 -0.5,0.292 -0.641,0.521"
     id="path1555" />
  <path
     style="fill:#63c99d;fill-opacity:1;fill-rule:nonzero;stroke:none"
     d="m 52.311928,90.066 c -1.266,-0.728 -4.443,-0.869 -6.094,1.5 l 1.282,7.704 c 0.604,-0.136 1.156,-0.297 1.681,-0.469 0.136,-0.006 0.267,-0.006 0.381,0.01 0.859,0.136 1.334,-0.349 2.187,-1.188 1.193,-0.801 1.948,-1.833 2.152,-3.208 0.328,-2.244 -0.448,-3.686 -1.589,-4.349"
     id="path1556" />
  <path
     style="fill:none;stroke:#231f20;stroke-width:0.565977;stroke-linecap:butt;stroke-linejoin:miter;stroke-miterlimit:4;stroke-dasharray:none;stroke-opacity:1"
     d="m 52.311928,90.066 c -1.266,-0.728 -4.443,-0.869 -6.094,1.5 l 1.282,7.704 c 0.604,-0.136 1.156,-0.297 1.681,-0.469 0.136,-0.006 0.267,-0.006 0.381,0.01 0.859,0.136 1.334,-0.349 2.187,-1.188 1.193,-0.801 1.948,-1.833 2.152,-3.208 0.328,-2.244 -0.448,-3.686 -1.589,-4.349 z"
     id="path1557" />
  <path
     style="fill:#231f20;fill-opacity:1;fill-rule:nonzero;stroke:none"
     d="m 65.743928,107.488 c -0.386,-0.515 -0.25,-2.458 -0.755,-3.983 -0.339,-1.032 -0.068,-3.762 -0.489,-4.762 -0.38,-0.916 -0.47,-1.374 0.5,-1.989 0.577,-0.364 1.926,-0.697 2.213,-0.281 0.688,0.974 0.891,1.901 0.885,2.969 0,1.218 -0.292,4.515 -0.401,5.115 -0.281,1.5 0.063,2.15 0.032,2.552 -0.073,0.76 -0.381,0.921 -0.881,0.984 -0.952,0.125 -1.104,-0.605 -1.104,-0.605"
     id="path1558" />
  <path
     style="fill:none;stroke:#231f20;stroke-width:0.565977;stroke-linecap:butt;stroke-linejoin:miter;stroke-miterlimit:4;stroke-dasharray:none;stroke-opacity:1"
     d="m 65.743928,107.488 c -0.386,-0.515 -0.25,-2.458 -0.755,-3.983 -0.339,-1.032 -0.068,-3.762 -0.489,-4.762 -0.38,-0.916 -0.47,-1.374 0.5,-1.989 0.577,-0.364 1.926,-0.697 2.213,-0.281 0.688,0.974 0.891,1.901 0.885,2.969 0,1.218 -0.292,4.515 -0.401,5.115 -0.281,1.5 0.063,2.15 0.032,2.552 -0.073,0.76 -0.381,0.921 -0.881,0.984 -0.952,0.125 -1.104,-0.605 -1.104,-0.605 z"
     id="path1559" />
  <path
     style="fill:#231f20;fill-opacity:1;fill-rule:nonzero;stroke:none"
     d="m 65.108928,98.453 c -1.297,-0.054 -0.849,-2.043 -0.808,-2.574 0.043,-0.546 -0.02,-2.104 -0.229,-3.308 -0.208,-1.208 0.052,-2.806 -0.338,-5.093 -0.204,-1.208 0.364,-2.511 2.124,-2.729 1.74,-0.219 2.522,0.677 2.547,2.177 0.027,1.489 -0.583,2.912 -0.661,4.417 -0.078,1.51 -0.015,3.056 0.089,4.266 0.12,1.38 -0.328,2.103 -0.756,2.327 -1.052,0.563 -1.968,0.517 -1.968,0.517"
     id="path1560" />
  <path
     style="fill:none;stroke:#231f20;stroke-width:0.565977;stroke-linecap:butt;stroke-linejoin:miter;stroke-miterlimit:4;stroke-dasharray:none;stroke-opacity:1"
     d="m 65.108928,98.453 c -1.297,-0.054 -0.849,-2.043 -0.808,-2.574 0.043,-0.546 -0.02,-2.104 -0.229,-3.308 -0.208,-1.208 0.052,-2.806 -0.338,-5.093 -0.204,-1.208 0.364,-2.511 2.124,-2.729 1.74,-0.219 2.522,0.677 2.547,2.177 0.027,1.489 -0.583,2.912 -0.661,4.417 -0.078,1.51 -0.015,3.056 0.089,4.266 0.12,1.38 -0.328,2.103 -0.756,2.327 -1.052,0.563 -1.968,0.517 -1.968,0.517 z"
     id="path1561" />
  <path
     style="fill:#231f20;fill-opacity:1;fill-rule:nonzero;stroke:none"
     d="m 69.097928,108.781 c -0.088,1.176 -1.114,2.052 -2.292,1.962 -1.172,-0.088 -2.052,-1.114 -1.962,-2.291 0.093,-1.171 1.118,-2.053 2.29,-1.964 1.178,0.094 2.052,1.121 1.964,2.293"
     id="path1562" />
  <path
     style="fill:#ffffff;fill-opacity:1;fill-rule:nonzero;stroke:none"
     d="m 74.947928,120.333 c -0.172,-0.172 0.416,-1.167 -0.016,-1.464 -0.432,-0.303 -1.031,0.218 -2.995,-0.11 l -0.021,-0.005 c -1.422,-0.287 -2.776,0.036 -3.568,1.01 -1.323,1.599 -0.614,4.355 1.562,6.146 2.188,1.797 5.022,1.937 6.339,0.338 1.265,-1.53 0.672,-4.129 -1.301,-5.915"
     id="path1563" />
  <path
     style="fill:none;stroke:#231f20;stroke-width:0.565977;stroke-linecap:butt;stroke-linejoin:miter;stroke-miterlimit:4;stroke-dasharray:none;stroke-opacity:1"
     d="m 74.947928,120.333 c -0.172,-0.172 0.416,-1.167 -0.016,-1.464 -0.432,-0.303 -1.031,0.218 -2.995,-0.11 l -0.021,-0.005 c -1.422,-0.287 -2.776,0.036 -3.568,1.01 -1.323,1.599 -0.614,4.355 1.562,6.146 2.188,1.797 5.022,1.937 6.339,0.338 1.265,-1.53 0.672,-4.129 -1.301,-5.915 z"
     id="path1564" />
  <path
     style="fill:#231f20;fill-opacity:1;fill-rule:nonzero;stroke:none"
     d="m 91.51993,110.04 c 0.062,0.641 -1.042,2.241 -1.391,3.812 -0.228,1.063 -1.853002,3.267 -2.005002,4.345 -0.146,0.978 -0.296,1.422 -1.447,1.453 -0.683,0.021 -2.011,-0.38 -2.052,-0.891 -0.089,-1.188 0.213,-2.083 0.76,-3 0.625,-1.047 2.557,-3.735 2.963,-4.197 1,-1.147 1.037,-1.881 1.272,-2.21 0.448002,-0.614 0.796002,-0.598 1.254002,-0.4 0.88,0.386 0.646,1.088 0.646,1.088"
     id="path1565" />
  <path
     style="fill:none;stroke:#231f20;stroke-width:0.565977;stroke-linecap:butt;stroke-linejoin:miter;stroke-miterlimit:4;stroke-dasharray:none;stroke-opacity:1"
     d="m 91.51993,110.04 c 0.062,0.641 -1.042,2.241 -1.391,3.812 -0.228,1.063 -1.853002,3.267 -2.005002,4.345 -0.146,0.978 -0.296,1.422 -1.447,1.453 -0.683,0.021 -2.011,-0.38 -2.052,-0.891 -0.089,-1.188 0.213,-2.083 0.76,-3 0.625,-1.047 2.557,-3.735 2.963,-4.197 1,-1.147 1.037,-1.881 1.272,-2.21 0.448002,-0.614 0.796002,-0.598 1.254002,-0.4 0.88,0.386 0.646,1.088 0.646,1.088 z"
     id="path1566" />
  <path
     style="fill:#231f20;fill-opacity:1;fill-rule:nonzero;stroke:none"
     d="m 87.248928,117.833 c 1.115,0.672 -0.239,2.191 -0.525,2.645 -0.303,0.464 -0.99,1.855 -1.391,3.01 -0.401,1.162 -1.391,2.433 -2.156,4.631 -0.401,1.156 -1.521,2.02 -3.172,1.369 -1.636,-0.646 -1.885,-1.807 -1.188,-3.136 0.693,-1.322 1.912,-2.27 2.703,-3.557 0.797,-1.281 1.485,-2.672 1.974,-3.781 0.558,-1.266 1.302,-1.686 1.782,-1.671 1.197,0.009 1.973,0.49 1.973,0.49"
     id="path1567" />
  <path
     style="fill:none;stroke:#231f20;stroke-width:0.565977;stroke-linecap:butt;stroke-linejoin:miter;stroke-miterlimit:4;stroke-dasharray:none;stroke-opacity:1"
     d="m 87.248928,117.833 c 1.115,0.672 -0.239,2.191 -0.525,2.645 -0.303,0.464 -0.99,1.855 -1.391,3.01 -0.401,1.162 -1.391,2.433 -2.156,4.631 -0.401,1.156 -1.521,2.02 -3.172,1.369 -1.636,-0.646 -1.885,-1.807 -1.188,-3.136 0.693,-1.322 1.912,-2.27 2.703,-3.557 0.797,-1.281 1.485,-2.672 1.974,-3.781 0.558,-1.266 1.302,-1.686 1.782,-1.671 1.197,0.009 1.973,0.49 1.973,0.49 z"
     id="path1568" />
  <path
     style="fill:#ffffff;fill-opacity:1;fill-rule:nonzero;stroke:none"
     d="m 127.05693,133.921 c -0.21,0.125 -1.038,-0.683 -1.423,-0.334 -0.4,0.349 -0.036,1.052 -0.823,2.885 l -0.005,0.016 c -0.615,1.318 -0.625,2.709 0.131,3.709 1.244,1.661 4.088,1.63 6.344,-0.058 2.265,-1.697 3.072,-4.421 1.833,-6.082 -1.188,-1.595 -3.855,-1.631 -6.057,-0.136"
     id="path1569" />
  <path
     style="fill:none;stroke:#231f20;stroke-width:0.565977;stroke-linecap:butt;stroke-linejoin:miter;stroke-miterlimit:4;stroke-dasharray:none;stroke-opacity:1"
     d="m 127.05693,133.921 c -0.21,0.125 -1.038,-0.683 -1.423,-0.334 -0.4,0.349 -0.036,1.052 -0.823,2.885 l -0.005,0.016 c -0.615,1.318 -0.625,2.709 0.131,3.709 1.244,1.661 4.088,1.63 6.344,-0.058 2.265,-1.697 3.072,-4.421 1.833,-6.082 -1.188,-1.595 -3.855,-1.631 -6.057,-0.136 z"
     id="path1570" />
  <path
     style="fill:#231f20;fill-opacity:1;fill-rule:nonzero;stroke:none"
     d="m 136.36293,109.973 c 0.36,0.536 0.142,2.469 0.584,4.015 0.302,1.047 -0.084,3.76 0.291,4.782 0.339,0.927 0.417,1.391 -0.583,1.963 -0.593,0.343 -1.953,0.619 -2.224,0.188 -0.645,-1.006 -0.806,-1.938 -0.76,-3.006 0.058,-1.213 0.484,-4.494 0.62,-5.093 0.343,-1.489 0.02,-2.151 0.072,-2.552 0.104,-0.756 0.418,-0.901 0.918,-0.948 0.957,-0.079 1.082,0.651 1.082,0.651"
     id="path1571" />
  <path
     style="fill:none;stroke:#231f20;stroke-width:0.565977;stroke-linecap:butt;stroke-linejoin:miter;stroke-miterlimit:4;stroke-dasharray:none;stroke-opacity:1"
     d="m 136.36293,109.973 c 0.36,0.536 0.142,2.469 0.584,4.015 0.302,1.047 -0.084,3.76 0.291,4.782 0.339,0.927 0.417,1.391 -0.583,1.963 -0.593,0.343 -1.953,0.619 -2.224,0.188 -0.645,-1.006 -0.806,-1.938 -0.76,-3.006 0.058,-1.213 0.484,-4.494 0.62,-5.093 0.343,-1.489 0.02,-2.151 0.072,-2.552 0.104,-0.756 0.418,-0.901 0.918,-0.948 0.957,-0.079 1.082,0.651 1.082,0.651 z"
     id="path1572" />
  <path
     style="fill:#231f20;fill-opacity:1;fill-rule:nonzero;stroke:none"
     d="m 136.30093,118.863 c 1.297,0.063 0.828,2.042 0.786,2.579 -0.046,0.546 0.011,2.104 0.204,3.306 0.198,1.209 -0.073,2.803 0.296,5.099 0.199,1.21 -0.38,2.505 -2.14,2.71 -1.745,0.207 -2.516,-0.694 -2.532,-2.194 -0.02,-1.494 0.604,-2.906 0.694,-4.416 0.088,-1.511 0.041,-3.057 -0.058,-4.266 -0.109,-1.381 0.35,-2.099 0.776,-2.318 1.063,-0.557 1.974,-0.5 1.974,-0.5"
     id="path1573" />
  <path
     style="fill:none;stroke:#231f20;stroke-width:0.565977;stroke-linecap:butt;stroke-linejoin:miter;stroke-miterlimit:4;stroke-dasharray:none;stroke-opacity:1"
     d="m 136.30093,118.863 c 1.297,0.063 0.828,2.042 0.786,2.579 -0.046,0.546 0.011,2.104 0.204,3.306 0.198,1.209 -0.073,2.803 0.296,5.099 0.199,1.21 -0.38,2.505 -2.14,2.71 -1.745,0.207 -2.516,-0.694 -2.532,-2.194 -0.02,-1.494 0.604,-2.906 0.694,-4.416 0.088,-1.511 0.041,-3.057 -0.058,-4.266 -0.109,-1.381 0.35,-2.099 0.776,-2.318 1.063,-0.557 1.974,-0.5 1.974,-0.5 z"
     id="path1574" />
  <path
     style="fill:#63c99d;fill-opacity:1;fill-rule:nonzero;stroke:none"
     d="m 285.62293,92.347 c 2.67,1.642 3.06,2.293 3.6,3.043 3.34,4.719 5.59,2.989 6.63,0.296 1.23,-3.156 1.73,-4.271 -3.92,-7.041 -1.58,-0.771 -7.22,-4.516 -7.22,-4.516 -1.84,-1.615 -4.49,-2.208 -5.82,-1.61 -1.4,0.636 -0.8,0.486 -1.99,1.303 -1.13,0.781 -2.05,2.765 -1.53,3.891 0.5,1.077 2.15,1.249 4.51,1.817 1.85,0.443 5.74,2.817 5.74,2.817"
     id="path1575" />
  <path
     style="fill:none;stroke:#231f20;stroke-width:0.565977;stroke-linecap:butt;stroke-linejoin:miter;stroke-miterlimit:4;stroke-dasharray:none;stroke-opacity:1"
     d="m 285.62293,92.347 c 2.67,1.642 3.06,2.293 3.6,3.043 3.34,4.719 5.59,2.989 6.63,0.296 1.23,-3.156 1.73,-4.271 -3.92,-7.041 -1.58,-0.771 -7.22,-4.516 -7.22,-4.516 -1.84,-1.615 -4.49,-2.208 -5.82,-1.61 -1.4,0.636 -0.8,0.486 -1.99,1.303 -1.13,0.781 -2.05,2.765 -1.53,3.891 0.5,1.077 2.15,1.249 4.51,1.817 1.85,0.443 5.74,2.817 5.74,2.817 z"
     id="path1576" />
  <path
     style="fill:#ffffff;fill-opacity:1;fill-rule:nonzero;stroke:none"
     d="m 276.64293,78.129 c -0.06,-0.239 0.95,-0.786 0.73,-1.266 -0.21,-0.478 -0.99,-0.344 -2.5,-1.63 l -0.03,-0.015 c -1.07,-0.98 -2.4,-1.396 -3.57,-0.975 -1.96,0.699 -2.77,3.423 -1.83,6.079 0.96,2.661 3.32,4.249 5.27,3.552 1.87,-0.667 2.7,-3.197 1.93,-5.745"
     id="path1577" />
  <path
     style="fill:none;stroke:#231f20;stroke-width:0.565977;stroke-linecap:butt;stroke-linejoin:miter;stroke-miterlimit:4;stroke-dasharray:none;stroke-opacity:1"
     d="m 276.64293,78.129 c -0.06,-0.239 0.95,-0.786 0.73,-1.266 -0.21,-0.478 -0.99,-0.344 -2.5,-1.63 l -0.03,-0.015 c -1.07,-0.98 -2.4,-1.396 -3.57,-0.975 -1.96,0.699 -2.77,3.423 -1.83,6.079 0.96,2.661 3.32,4.249 5.27,3.552 1.87,-0.667 2.7,-3.197 1.93,-5.745 z"
     id="path1578" />
  <path
     style="fill:#231f20;fill-opacity:1;fill-rule:nonzero;stroke:none"
     d="m 275.42293,106.181 c -0.29,-0.572 0.17,-2.469 -0.07,-4.058 -0.16,-1.072 0.58,-3.713 0.34,-4.77 -0.22,-0.974 -0.23,-1.438 0.84,-1.875 0.63,-0.266 2.01,-0.359 2.23,0.104 0.5,1.073 0.54,2.021 0.36,3.073 -0.21,1.198 -1.07,4.396 -1.28,4.974 -0.53,1.428 -0.3,2.125 -0.41,2.516 -0.2,0.734 -0.52,0.843 -1.02,0.822 -0.97,-0.046 -0.99,-0.786 -0.99,-0.786"
     id="path1579" />
  <path
     style="fill:none;stroke:#231f20;stroke-width:0.565977;stroke-linecap:butt;stroke-linejoin:miter;stroke-miterlimit:4;stroke-dasharray:none;stroke-opacity:1"
     d="m 275.42293,106.181 c -0.29,-0.572 0.17,-2.469 -0.07,-4.058 -0.16,-1.072 0.58,-3.713 0.34,-4.77 -0.22,-0.974 -0.23,-1.438 0.84,-1.875 0.63,-0.266 2.01,-0.359 2.23,0.104 0.5,1.073 0.54,2.021 0.36,3.073 -0.21,1.198 -1.07,4.396 -1.28,4.974 -0.53,1.428 -0.3,2.125 -0.41,2.516 -0.2,0.734 -0.52,0.843 -1.02,0.822 -0.97,-0.046 -0.99,-0.786 -0.99,-0.786 z"
     id="path1580" />
  <path
     style="fill:#231f20;fill-opacity:1;fill-rule:nonzero;stroke:none"
     d="m 276.34293,97.166 c -1.27,-0.271 -0.49,-2.152 -0.35,-2.672 0.13,-0.532 0.33,-2.073 0.33,-3.297 0.01,-1.23 0.53,-2.75 0.55,-5.078 0,-1.224 0.78,-2.412 2.55,-2.329 1.76,0.089 2.37,1.105 2.14,2.584 -0.23,1.479 -1.07,2.771 -1.4,4.245 -0.34,1.468 -0.55,3.004 -0.65,4.219 -0.12,1.374 -0.69,2.015 -1.14,2.156 -1.14,0.375 -2.03,0.172 -2.03,0.172"
     id="path1581" />
  <path
     style="fill:none;stroke:#231f20;stroke-width:0.565977;stroke-linecap:butt;stroke-linejoin:miter;stroke-miterlimit:4;stroke-dasharray:none;stroke-opacity:1"
     d="m 276.34293,97.166 c -1.27,-0.271 -0.49,-2.152 -0.35,-2.672 0.13,-0.532 0.33,-2.073 0.33,-3.297 0.01,-1.23 0.53,-2.75 0.55,-5.078 0,-1.224 0.78,-2.412 2.55,-2.329 1.76,0.089 2.37,1.105 2.14,2.584 -0.23,1.479 -1.07,2.771 -1.4,4.245 -0.34,1.468 -0.55,3.004 -0.65,4.219 -0.12,1.374 -0.69,2.015 -1.14,2.156 -1.14,0.375 -2.03,0.172 -2.03,0.172 z"
     id="path1582" />
  <path
     style="fill:#231f20;fill-opacity:1;fill-rule:nonzero;stroke:none"
     d="m 310.57293,91.374 c 0.14,2.255 0.47,2.677 1.43,2.683 0.65,0.005 1.23,0.224 1.61,0.244 1.3,0.073 3.52,-0.348 9.46,-3.167 1.35,-0.64 3.24,-1.525 4.06,-1.823 1.26,-0.473 -0.38,-2.265 -0.89,-2.082 -1.61,0.582 -2.77,0.842 -3.37,0.973 -0.42,0.088 -1.14,0.349 -2.81,0.479 -2.51,0.209 -4.05,-0.047 -6.13,0.37 -0.96,0.187 -1.8,-0.281 -2.65,0.396 -0.86,0.667 -0.71,1.927 -0.71,1.927"
     id="path1583" />
  <path
     style="fill:none;stroke:#231f20;stroke-width:0.565977;stroke-linecap:butt;stroke-linejoin:miter;stroke-miterlimit:4;stroke-dasharray:none;stroke-opacity:1"
     d="m 310.57293,91.374 c 0.14,2.255 0.47,2.677 1.43,2.683 0.65,0.005 1.23,0.224 1.61,0.244 1.3,0.073 3.52,-0.348 9.46,-3.167 1.35,-0.64 3.24,-1.525 4.06,-1.823 1.26,-0.473 -0.38,-2.265 -0.89,-2.082 -1.61,0.582 -2.77,0.842 -3.37,0.973 -0.42,0.088 -1.14,0.349 -2.81,0.479 -2.51,0.209 -4.05,-0.047 -6.13,0.37 -0.96,0.187 -1.8,-0.281 -2.65,0.396 -0.86,0.667 -0.71,1.927 -0.71,1.927 z"
     id="path1584" />
  <path
     style="fill:#231f20;fill-opacity:1;fill-rule:nonzero;stroke:#231f20;stroke-width:0.565977;stroke-linecap:round;stroke-linejoin:round;stroke-miterlimit:4;stroke-dasharray:none;stroke-opacity:1"
     d="m 312.31293,89.571 c -1.07,-0.937 -3.03,-0.057 -3.37,-0.072 -5.02,-0.141 -5.38,-0.021 -9.19,0.13 -5.53,0.224 -9.28,1.229 -10.08,4.48 -0.55,2.208 0.09,3.713 1.16,4.478 1.19,0.849 4.33,1.298 6.21,-0.901 l 1.63,-0.526 c 1.14,-0.213 1.71,-0.318 2.28,-0.385 0.99,-0.098 2.06,-0.27 3.98,-0.589 3.44,-0.552 6.88,-2.255 6.88,-2.255 0.31,-0.057 0.53,-0.219 0.7,-0.426"
     id="path1585" />
  <path
     style="fill:#63c99d;fill-opacity:1;fill-rule:nonzero;stroke:#231f20;stroke-width:0.565977;stroke-linecap:butt;stroke-linejoin:miter;stroke-miterlimit:4;stroke-dasharray:none;stroke-opacity:1"
     d="m 296.67293,89.879 c -0.66,0.063 -1.26,0.156 -1.84,0.26 -0.07,-0.01 -0.15,-0.02 -0.22,-0.041 -0.78,-0.229 -1.3,0.12 -2.13,0.744 -1.42,0.631 -2.4,1.579 -2.81,2.996 -0.62,2.186 -0.04,3.719 1,4.525 1.15,0.885 4.28,1.459 6.23,-0.672 z"
     id="path1586" />
  <path
     style="fill:#231f20;fill-opacity:1;fill-rule:nonzero;stroke:none"
     d="m 329.48293,88.915 c -0.62,1.204 -1.6,1.095 -2.32,0.344 -0.21,-0.224 -0.63,-0.197 -0.82,-0.432 -0.44,-0.552 -0.18,-2.276 1.31,-2.432 0.11,-0.01 0.86,-0.338 1.46,-0.496 1.17,-0.301 3.67,-0.342 5.58,1.548 0.92,0.896 0.22,1.266 -0.26,1.015 -1.52,-0.791 -1.8,-0.567 -2.28,-0.629 -1.61,-0.219 -2.67,1.082 -2.67,1.082"
     id="path1587" />
  <path
     style="fill:none;stroke:#231f20;stroke-width:0.332927;stroke-linecap:butt;stroke-linejoin:miter;stroke-miterlimit:4;stroke-dasharray:none;stroke-opacity:1"
     d="m 329.48293,88.915 c -0.62,1.204 -1.6,1.095 -2.32,0.344 -0.21,-0.224 -0.63,-0.197 -0.82,-0.432 -0.44,-0.552 -0.18,-2.276 1.31,-2.432 0.11,-0.01 0.86,-0.338 1.46,-0.496 1.17,-0.301 3.67,-0.342 5.58,1.548 0.92,0.896 0.22,1.266 -0.26,1.015 -1.52,-0.791 -1.8,-0.567 -2.28,-0.629 -1.61,-0.219 -2.67,1.082 -2.67,1.082 z"
     id="path1588" />
  <path
     style="fill:#231f20;fill-opacity:1;fill-rule:nonzero;stroke:none"
     d="m 279.11293,107.712 c 0,1.178 -0.96,2.135 -2.14,2.135 -1.18,0 -2.14,-0.957 -2.14,-2.135 0,-1.177 0.96,-2.135 2.14,-2.135 1.18,0 2.14,0.958 2.14,2.135"
     id="path1589" />
</svg>
