<?xml version="1.0" encoding="UTF-8" standalone="no"?>
<!-- Created with Inkscape (http://www.inkscape.org/) -->

<svg
   version="1.1"
   id="svg1"
   width="325.11328"
   height="39.138546"
   viewBox="0 0 325.11326 39.138545"
   sodipodi:docname="cell.svg"
   xmlns:inkscape="http://www.inkscape.org/namespaces/inkscape"
   xmlns:sodipodi="http://sodipodi.sourceforge.net/DTD/sodipodi-0.dtd"
   xmlns="http://www.w3.org/2000/svg"
   xmlns:svg="http://www.w3.org/2000/svg">
  <sodipodi:namedview
     id="namedview1"
     pagecolor="#ffffff"
     bordercolor="#000000"
     borderopacity="0.25"
     inkscape:showpageshadow="2"
     inkscape:pageopacity="0.0"
     inkscape:pagecheckerboard="0"
     inkscape:deskcolor="#d1d1d1">
    <inkscape:page
       x="2.640474e-07"
       y="2.2522063e-07"
       inkscape:label="1"
       id="page1"
       width="325.11325"
       height="39.138546"
       margin="0"
       bleed="0" />
  </sodipodi:namedview>
  <defs
     id="defs1" />
  <path
     style="fill:#ffffff;fill-opacity:1;fill-rule:nonzero;stroke:none"
     d="m 0.33292797,36.815547 c 0,0.687 0.5521,1.238999 1.24010003,1.238999 H 323.54133 c 0.687,0 1.239,-0.551999 1.239,-1.238999 0,-0.683 -0.552,-1.24 -1.239,-1.24 H 1.573028 c -0.68800003,0 -1.24010003,0.557 -1.24010003,1.24"
     id="path47" />
  <path
     style="fill:none;stroke:#231f20;stroke-width:0.665856;stroke-linecap:butt;stroke-linejoin:miter;stroke-miterlimit:4;stroke-dasharray:none;stroke-opacity:1"
     d="m 0.33292797,36.815547 c 0,0.687 0.5521,1.238999 1.24010003,1.238999 H 323.54133 c 0.687,0 1.239,-0.551999 1.239,-1.238999 0,-0.683 -0.552,-1.24 -1.239,-1.24 H 1.573028 c -0.68800003,0 -1.24010003,0.557 -1.24010003,1.24 z"
     id="path48" />
  <path
     style="fill:#63c99d;fill-opacity:1;fill-rule:nonzero;stroke:none"
     d="m 139.33833,23.367547 c 0.141,3.135 -0.172,3.823 -0.495,4.687 -2.031,5.412 0.667,6.302 3.475,5.652 3.306,-0.756 4.505,-0.964 3.629,-7.199 -0.249,-1.735 -0.317,-8.505 -0.317,-8.505 0.302,-2.432 -0.698,-4.959 -1.938,-5.724 -1.312,-0.802 -0.849,-0.386 -2.193,-0.911 -1.285,-0.495 -3.443,-0.147 -4.077,0.911 -0.615,1.016 0.166,2.485 1.025,4.75 0.677,1.792 0.891,6.339 0.891,6.339"
     id="path49" />
  <path
     style="fill:none;stroke:#231f20;stroke-width:0.565977;stroke-linecap:butt;stroke-linejoin:miter;stroke-miterlimit:4;stroke-dasharray:none;stroke-opacity:1"
     d="m 139.33833,23.367547 c 0.141,3.135 -0.172,3.823 -0.495,4.687 -2.031,5.412 0.667,6.302 3.475,5.652 3.306,-0.756 4.505,-0.964 3.629,-7.199 -0.249,-1.735 -0.317,-8.505 -0.317,-8.505 0.302,-2.432 -0.698,-4.959 -1.938,-5.724 -1.312,-0.802 -0.849,-0.386 -2.193,-0.911 -1.285,-0.495 -3.443,-0.147 -4.077,0.911 -0.615,1.016 0.166,2.485 1.025,4.75 0.677,1.792 0.891,6.339 0.891,6.339 z"
     id="path50" />
  <path
     style="fill:#ffffff;fill-opacity:1;fill-rule:nonzero;stroke:none"
     d="m 144.18233,5.6685473 c 0.021,-0.244 1.156,-0.448 1.104,-0.968 -0.052,-0.521 -0.839,-0.641 -1.864,-2.338 l -0.016,-0.022 c -0.708,-1.265 -1.839,-2.08200004 -3.088,-2.05700004 -2.084,0.047 -3.71,2.38000004 -3.652,5.19300004 0.068,2.834 1.802,5.0779997 3.876,5.0359997 1.989,-0.046 3.566,-2.1819997 3.64,-4.8439997"
     id="path51" />
  <path
     style="fill:none;stroke:#231f20;stroke-width:0.565977;stroke-linecap:butt;stroke-linejoin:miter;stroke-miterlimit:4;stroke-dasharray:none;stroke-opacity:1"
     d="m 144.18233,5.6685473 c 0.021,-0.244 1.156,-0.448 1.104,-0.968 -0.052,-0.521 -0.839,-0.641 -1.864,-2.338 l -0.016,-0.022 c -0.708,-1.265 -1.839,-2.08200004 -3.088,-2.05700004 -2.084,0.047 -3.71,2.38000004 -3.652,5.19300004 0.068,2.834 1.802,5.0779997 3.876,5.0359997 1.989,-0.046 3.566,-2.1819997 3.64,-4.8439997 z"
     id="path52" />
  <path
     style="fill:#231f20;fill-opacity:1;fill-rule:nonzero;stroke:none"
     d="m 178.59333,29.075547 c -0.745,1.125 -1.718,0.907 -2.338,0.079 -0.188,-0.251 -0.604,-0.267 -0.766,-0.522 -0.376,-0.604 0.072,-2.286 1.572,-2.27 0.104,0 0.891,-0.24 1.506,-0.328 1.198,-0.167 3.688,0.072 5.38,2.177 0.802,0.989 0.068,1.28 -0.386,0.979 -1.41,-0.964 -1.724,-0.771 -2.186,-0.886 -1.574,-0.406 -2.782,0.771 -2.782,0.771"
     id="path53" />
  <path
     style="fill:none;stroke:#231f20;stroke-width:0.332927;stroke-linecap:butt;stroke-linejoin:miter;stroke-miterlimit:4;stroke-dasharray:none;stroke-opacity:1"
     d="m 178.59333,29.075547 c -0.745,1.125 -1.718,0.907 -2.338,0.079 -0.188,-0.251 -0.604,-0.267 -0.766,-0.522 -0.376,-0.604 0.072,-2.286 1.572,-2.27 0.104,0 0.891,-0.24 1.506,-0.328 1.198,-0.167 3.688,0.072 5.38,2.177 0.802,0.989 0.068,1.28 -0.386,0.979 -1.41,-0.964 -1.724,-0.771 -2.186,-0.886 -1.574,-0.406 -2.782,0.771 -2.782,0.771 z"
     id="path54" />
  <path
     style="fill:#231f20;fill-opacity:1;fill-rule:nonzero;stroke:none"
     d="m 159.39033,28.966547 c -0.124,2.26 0.161,2.713 1.114,2.822 0.636,0.084 1.193,0.37 1.573,0.432 1.282,0.219 3.527,0.052 9.76,-2.066 1.407,-0.486 3.396,-1.147 4.23,-1.355 1.313,-0.328 -0.115,-2.297 -0.64,-2.172 -1.667,0.401 -2.844,0.531 -3.464,0.588 -0.427,0.043 -1.167,0.219 -2.834,0.161 -2.525,-0.082 -4.025,-0.509 -6.134,-0.333 -0.98,0.073 -1.762,-0.484 -2.683,0.089 -0.932,0.563 -0.922,1.834 -0.922,1.834"
     id="path55" />
  <path
     style="fill:none;stroke:#231f20;stroke-width:0.565977;stroke-linecap:butt;stroke-linejoin:miter;stroke-miterlimit:4;stroke-dasharray:none;stroke-opacity:1"
     d="m 159.39033,28.966547 c -0.124,2.26 0.161,2.713 1.114,2.822 0.636,0.084 1.193,0.37 1.573,0.432 1.282,0.219 3.527,0.052 9.76,-2.066 1.407,-0.486 3.396,-1.147 4.23,-1.355 1.313,-0.328 -0.115,-2.297 -0.64,-2.172 -1.667,0.401 -2.844,0.531 -3.464,0.588 -0.427,0.043 -1.167,0.219 -2.834,0.161 -2.525,-0.082 -4.025,-0.509 -6.134,-0.333 -0.98,0.073 -1.762,-0.484 -2.683,0.089 -0.932,0.563 -0.922,1.834 -0.922,1.834 z"
     id="path56" />
  <path
     style="fill:#231f20;fill-opacity:1;fill-rule:nonzero;stroke:#231f20;stroke-width:0.565977;stroke-linecap:round;stroke-linejoin:round;stroke-miterlimit:4;stroke-dasharray:none;stroke-opacity:1"
     d="m 161.32333,27.372547 c -0.959,-1.048 -3.011,-0.396 -3.349,-0.448 -4.959,-0.718 -5.334,-0.641 -9.142,-0.922 -5.514,-0.402 -9.353,0.166 -10.525,3.302 -0.792,2.135 -0.328,3.703 0.645,4.588 1.09,0.975 4.162,1.776 6.271,-0.197 l 1.683,-0.328 c 1.161,-0.084 1.734,-0.131 2.308,-0.125 1,0.016 2.077,-0.042 4.03,-0.131 3.47,-0.161 7.084,-1.457 7.084,-1.457 0.312,-0.027 0.556,-0.163 0.744,-0.35"
     id="path57" />
  <path
     style="fill:#63c99d;fill-opacity:1;fill-rule:nonzero;stroke:none"
     d="m 144.03633,25.987547 c -0.136,-0.027 -0.256,-0.057 -0.365,-0.1 -0.796,-0.343 -1.369,0.011 -2.4,0.615 -1.355,0.48 -2.349,1.297 -2.881,2.578 -0.87,2.099 -0.468,3.687 0.474,4.61 1.047,1.016 4.088,1.932 6.271,0.041 l 0.651,-7.787 c -0.62,-0.014 -1.198,0.006 -1.75,0.043"
     id="path58" />
  <path
     style="fill:none;stroke:#231f20;stroke-width:0.565977;stroke-linecap:butt;stroke-linejoin:miter;stroke-miterlimit:4;stroke-dasharray:none;stroke-opacity:1"
     d="m 144.03633,25.987547 c -0.136,-0.027 -0.256,-0.057 -0.365,-0.1 -0.796,-0.343 -1.369,0.011 -2.4,0.615 -1.355,0.48 -2.349,1.297 -2.881,2.578 -0.87,2.099 -0.468,3.687 0.474,4.61 1.047,1.016 4.088,1.932 6.271,0.041 l 0.651,-7.787 c -0.62,-0.014 -1.198,0.006 -1.75,0.043 z"
     id="path59" />
  <path
     style="fill:#231f20;fill-opacity:1;fill-rule:nonzero;stroke:none"
     d="m 141.98433,35.455547 c -0.422,-0.484 -0.437,-2.432 -1.057,-3.916 -0.423,-1 -0.36,-3.74 -0.86,-4.709 -0.448,-0.886 -0.572,-1.334 0.349,-2.02 0.547,-0.407 1.864,-0.844 2.188,-0.448 0.755,0.916 1.026,1.828 1.11,2.89 0.093,1.214 0.052,4.526 -0.011,5.135 -0.161,1.511 0.229,2.136 0.229,2.537 -0.01,0.766 -0.308,0.948 -0.797,1.052 -0.943,0.192 -1.151,-0.521 -1.151,-0.521"
     id="path60" />
  <path
     style="fill:none;stroke:#231f20;stroke-width:0.565977;stroke-linecap:butt;stroke-linejoin:miter;stroke-miterlimit:4;stroke-dasharray:none;stroke-opacity:1"
     d="m 141.98433,35.455547 c -0.422,-0.484 -0.437,-2.432 -1.057,-3.916 -0.423,-1 -0.36,-3.74 -0.86,-4.709 -0.448,-0.886 -0.572,-1.334 0.349,-2.02 0.547,-0.407 1.864,-0.844 2.188,-0.448 0.755,0.916 1.026,1.828 1.11,2.89 0.093,1.214 0.052,4.526 -0.011,5.135 -0.161,1.511 0.229,2.136 0.229,2.537 -0.01,0.766 -0.308,0.948 -0.797,1.052 -0.943,0.192 -1.151,-0.521 -1.151,-0.521 z"
     id="path61" />
  <path
     style="fill:#231f20;fill-opacity:1;fill-rule:nonzero;stroke:none"
     d="m 140.65133,25.679547 c -1.292,0.052 -0.995,-1.969 -0.995,-2.5 -0.005,-0.547 -0.188,-2.093 -0.49,-3.276 -0.296,-1.193 -0.162,-2.803 -0.724,-5.057 -0.302,-1.188 0.166,-2.531 1.906,-2.886 1.719,-0.349 2.563,0.484 2.708,1.974 0.142,1.49 -0.358,2.948 -0.317,4.458 0.036,1.511 0.213,3.052 0.412,4.251 0.224,1.359 -0.167,2.12 -0.573,2.375 -1.011,0.64 -1.927,0.661 -1.927,0.661"
     id="path62" />
  <path
     style="fill:none;stroke:#231f20;stroke-width:0.565977;stroke-linecap:butt;stroke-linejoin:miter;stroke-miterlimit:4;stroke-dasharray:none;stroke-opacity:1"
     d="m 140.65133,25.679547 c -1.292,0.052 -0.995,-1.969 -0.995,-2.5 -0.005,-0.547 -0.188,-2.093 -0.49,-3.276 -0.296,-1.193 -0.162,-2.803 -0.724,-5.057 -0.302,-1.188 0.166,-2.531 1.906,-2.886 1.719,-0.349 2.563,0.484 2.708,1.974 0.142,1.49 -0.358,2.948 -0.317,4.458 0.036,1.511 0.213,3.052 0.412,4.251 0.224,1.359 -0.167,2.12 -0.573,2.375 -1.011,0.64 -1.927,0.661 -1.927,0.661 z"
     id="path63" />
  <path
     style="fill:#231f20;fill-opacity:1;fill-rule:nonzero;stroke:none"
     d="m 145.42733,37.007547 c 0,1.176999 -0.959,2.130999 -2.136,2.130999 -1.177,0 -2.129,-0.954 -2.129,-2.130999 0,-1.177 0.952,-2.135 2.129,-2.135 1.177,0 2.136,0.958 2.136,2.135"
     id="path64" />
</svg>
