<?xml version="1.0" encoding="UTF-8" standalone="no"?>
<!-- Created with Inkscape (http://www.inkscape.org/) -->

<svg
   version="1.1"
   id="svg1"
   width="326.12335"
   height="87.829285"
   viewBox="0 0 326.12334 87.829283"
   sodipodi:docname="cell.svg"
   xmlns:inkscape="http://www.inkscape.org/namespaces/inkscape"
   xmlns:sodipodi="http://sodipodi.sourceforge.net/DTD/sodipodi-0.dtd"
   xmlns="http://www.w3.org/2000/svg"
   xmlns:svg="http://www.w3.org/2000/svg">
  <sodipodi:namedview
     id="namedview1"
     pagecolor="#ffffff"
     bordercolor="#000000"
     borderopacity="0.25"
     inkscape:showpageshadow="2"
     inkscape:pageopacity="0.0"
     inkscape:pagecheckerboard="0"
     inkscape:deskcolor="#d1d1d1">
    <inkscape:page
       x="0"
       y="0"
       inkscape:label="1"
       id="page1"
       width="326.12335"
       height="87.829285"
       margin="0"
       bleed="0" />
  </sodipodi:namedview>
  <defs
     id="defs1" />
  <path
     style="fill:#ffffff;fill-opacity:1;fill-rule:nonzero;stroke:none"
     d="m 0.25968384,85.484906 c 0,0.688 0.3389998,1.239999 0.75599976,1.239999 H 325.11368 c 0.416,0 0.75,-0.551999 0.75,-1.239999 0,-0.688 -0.334,-1.24 -0.75,-1.24 H 1.0156836 c -0.41699996,0 -0.75599976,0.552 -0.75599976,1.24"
     id="path232" />
  <path
     style="fill:none;stroke:#231f20;stroke-width:0.519367;stroke-linecap:butt;stroke-linejoin:miter;stroke-miterlimit:4;stroke-dasharray:none;stroke-opacity:1"
     d="m 0.25968384,85.484906 c 0,0.688 0.3389998,1.239999 0.75599976,1.239999 H 325.11368 c 0.416,0 0.75,-0.551999 0.75,-1.239999 0,-0.688 -0.334,-1.24 -0.75,-1.24 H 1.0156836 c -0.41699996,0 -0.75599976,0.552 -0.75599976,1.24 z"
     id="path233" />
  <path
     style="fill:#63c99d;fill-opacity:1;fill-rule:nonzero;stroke:none"
     d="m 69.728684,54.552906 c 0.214,-3.125 0.599,-3.776 1.02,-4.594 2.615,-5.156 0.038,-6.343 -2.827,-6.01 -3.364,0.38 -4.583,0.452 -4.411,6.744 0.057,1.756 -0.631,8.49 -0.631,8.49 -0.573,2.381 0.136,5.01 1.287,5.901 1.208,0.948 0.801,0.484 2.073,1.156 1.224,0.641 3.405,0.532 4.161,-0.452 0.719,-0.939 0.104,-2.491 -0.494,-4.835 -0.47,-1.858 -0.178,-6.4 -0.178,-6.4"
     id="path234" />
  <path
     style="fill:none;stroke:#231f20;stroke-width:0.565977;stroke-linecap:butt;stroke-linejoin:miter;stroke-miterlimit:4;stroke-dasharray:none;stroke-opacity:1"
     d="m 69.728684,54.552906 c 0.214,-3.125 0.599,-3.776 1.02,-4.594 2.615,-5.156 0.038,-6.343 -2.827,-6.01 -3.364,0.38 -4.583,0.452 -4.411,6.744 0.057,1.756 -0.631,8.49 -0.631,8.49 -0.573,2.381 0.136,5.01 1.287,5.901 1.208,0.948 0.801,0.484 2.073,1.156 1.224,0.641 3.405,0.532 4.161,-0.452 0.719,-0.939 0.104,-2.491 -0.494,-4.835 -0.47,-1.858 -0.178,-6.4 -0.178,-6.4 z"
     id="path235" />
  <path
     style="fill:#ffffff;fill-opacity:1;fill-rule:nonzero;stroke:none"
     d="m 67.317684,74.864906 c 0.156,0.188 -0.5,1.136 -0.094,1.464 0.407,0.334 1.042,-0.146 2.973,0.334 l 0.022,0.005 c 1.401,0.391 2.776,0.167 3.636,-0.74 1.437,-1.511 0.937,-4.308 -1.1,-6.251 -2.052,-1.952 -4.869,-2.306 -6.301,-0.806 -1.376,1.432 -0.975,4.068 0.864,5.994"
     id="path236" />
  <path
     style="fill:none;stroke:#231f20;stroke-width:0.565977;stroke-linecap:butt;stroke-linejoin:miter;stroke-miterlimit:4;stroke-dasharray:none;stroke-opacity:1"
     d="m 67.317684,74.864906 c 0.156,0.188 -0.5,1.136 -0.094,1.464 0.407,0.334 1.042,-0.146 2.973,0.334 l 0.022,0.005 c 1.401,0.391 2.776,0.167 3.636,-0.74 1.437,-1.511 0.937,-4.308 -1.1,-6.251 -2.052,-1.952 -4.869,-2.306 -6.301,-0.806 -1.376,1.432 -0.975,4.068 0.864,5.994 z"
     id="path237" />
  <path
     style="fill:#231f20;fill-opacity:1;fill-rule:nonzero;stroke:none"
     d="m 67.109684,84.156906 c -0.391,-0.51 -0.276,-2.458 -0.803,-3.98 -0.353,-1.025 -0.115,-3.76 -0.547,-4.749 -0.39,-0.917 -0.489,-1.369 0.48,-1.995 0.572,-0.374 1.916,-0.724 2.214,-0.308 0.691,0.964 0.901,1.886 0.91,2.954 0.021,1.218 -0.233,4.521 -0.339,5.125 -0.26,1.5 0.095,2.145 0.063,2.552 -0.057,0.76 -0.364,0.921 -0.864,0.995 -0.953,0.13 -1.114,-0.594 -1.114,-0.594"
     id="path238" />
  <path
     style="fill:none;stroke:#231f20;stroke-width:0.565977;stroke-linecap:butt;stroke-linejoin:miter;stroke-miterlimit:4;stroke-dasharray:none;stroke-opacity:1"
     d="m 67.109684,84.156906 c -0.391,-0.51 -0.276,-2.458 -0.803,-3.98 -0.353,-1.025 -0.115,-3.76 -0.547,-4.749 -0.39,-0.917 -0.489,-1.369 0.48,-1.995 0.572,-0.374 1.916,-0.724 2.214,-0.308 0.691,0.964 0.901,1.886 0.91,2.954 0.021,1.218 -0.233,4.521 -0.339,5.125 -0.26,1.5 0.095,2.145 0.063,2.552 -0.057,0.76 -0.364,0.921 -0.864,0.995 -0.953,0.13 -1.114,-0.594 -1.114,-0.594 z"
     id="path239" />
  <path
     style="fill:#231f20;fill-opacity:1;fill-rule:nonzero;stroke:none"
     d="m 66.369684,75.124906 c -1.302,-0.036 -0.87,-2.025 -0.839,-2.561 0.032,-0.548 -0.052,-2.1 -0.271,-3.303 -0.218,-1.208 0.022,-2.802 -0.396,-5.093 -0.218,-1.204 0.328,-2.511 2.09,-2.756 1.738,-0.235 2.53,0.652 2.571,2.152 0.048,1.489 -0.546,2.916 -0.604,4.427 -0.062,1.505 0.016,3.057 0.136,4.265 0.135,1.375 -0.302,2.104 -0.729,2.328 -1.046,0.579 -1.958,0.541 -1.958,0.541"
     id="path240" />
  <path
     style="fill:none;stroke:#231f20;stroke-width:0.565977;stroke-linecap:butt;stroke-linejoin:miter;stroke-miterlimit:4;stroke-dasharray:none;stroke-opacity:1"
     d="m 66.369684,75.124906 c -1.302,-0.036 -0.87,-2.025 -0.839,-2.561 0.032,-0.548 -0.052,-2.1 -0.271,-3.303 -0.218,-1.208 0.022,-2.802 -0.396,-5.093 -0.218,-1.204 0.328,-2.511 2.09,-2.756 1.738,-0.235 2.53,0.652 2.571,2.152 0.048,1.489 -0.546,2.916 -0.604,4.427 -0.062,1.505 0.016,3.057 0.136,4.265 0.135,1.375 -0.302,2.104 -0.729,2.328 -1.046,0.579 -1.958,0.541 -1.958,0.541 z"
     id="path241" />
  <path
     style="fill:#231f20;fill-opacity:1;fill-rule:nonzero;stroke:none"
     d="m 69.442684,28.974906 c 2.202,0.495 2.702,0.287 2.968,-0.635 0.182,-0.614 0.557,-1.114 0.682,-1.485 0.428,-1.224 0.626,-3.468 -0.448,-9.963 -0.249,-1.469 -0.572,-3.537 -0.645,-4.396 -0.109,-1.349 -2.281,-0.261 -2.245,0.276 0.114,1.708 0.057,2.896 0.01,3.515 -0.025,0.428 0.027,1.188 -0.301,2.824 -0.496,2.473 -1.162,3.885 -1.333,5.995 -0.084,0.984 -0.767,1.666 -0.349,2.661 0.406,1.016 1.661,1.208 1.661,1.208"
     id="path242" />
  <path
     style="fill:none;stroke:#231f20;stroke-width:0.565977;stroke-linecap:butt;stroke-linejoin:miter;stroke-miterlimit:4;stroke-dasharray:none;stroke-opacity:1"
     d="m 69.442684,28.974906 c 2.202,0.495 2.702,0.287 2.968,-0.635 0.182,-0.614 0.557,-1.114 0.682,-1.485 0.428,-1.224 0.626,-3.468 -0.448,-9.963 -0.249,-1.469 -0.572,-3.537 -0.645,-4.396 -0.109,-1.349 -2.281,-0.261 -2.245,0.276 0.114,1.708 0.057,2.896 0.01,3.515 -0.025,0.428 0.027,1.188 -0.301,2.824 -0.496,2.473 -1.162,3.885 -1.333,5.995 -0.084,0.984 -0.767,1.666 -0.349,2.661 0.406,1.016 1.661,1.208 1.661,1.208 z"
     id="path243" />
  <path
     style="fill:#231f20;fill-opacity:1;fill-rule:nonzero;stroke:#231f20;stroke-width:0.565977;stroke-linecap:round;stroke-linejoin:round;stroke-miterlimit:4;stroke-dasharray:none;stroke-opacity:1"
     d="m 68.182684,26.813906 c -1.193,0.77 -0.881,2.901 -0.991,3.224 -1.514,4.781 -1.5,5.161 -2.4,8.869 -1.297,5.38 -1.365,9.256 1.542,10.928 1.973,1.129 3.598,0.926 4.63,0.109 1.135,-0.912 2.432,-3.813 0.833,-6.219 l -0.053,-1.714 c 0.105,-1.156 0.152,-1.728 0.251,-2.296 0.177,-0.984 0.297,-2.052 0.53,-3.995 0.407,-3.453 -0.285,-7.229 -0.285,-7.229 0.031,-0.308 -0.063,-0.573 -0.219,-0.792"
     id="path244" />
  <path
     style="fill:#63c99d;fill-opacity:1;fill-rule:nonzero;stroke:none"
     d="m 71.764684,43.854906 -7.577,-1.916 c -0.12,0.645 -0.198,1.249 -0.25,1.833 -0.031,0.072 -0.068,0.145 -0.104,0.208 -0.432,0.683 -0.24,1.276 0.134,2.245 0.215,1.542 0.86,2.744 2.11,3.531 1.928,1.193 3.557,1.057 4.619,0.281 1.172,-0.869 2.579,-3.718 1.068,-6.182"
     id="path245" />
  <path
     style="fill:none;stroke:#231f20;stroke-width:0.565977;stroke-linecap:butt;stroke-linejoin:miter;stroke-miterlimit:4;stroke-dasharray:none;stroke-opacity:1"
     d="m 71.764684,43.854906 -7.577,-1.916 c -0.12,0.645 -0.198,1.249 -0.25,1.833 -0.031,0.072 -0.068,0.145 -0.104,0.208 -0.432,0.683 -0.24,1.276 0.134,2.245 0.215,1.542 0.86,2.744 2.11,3.531 1.928,1.193 3.557,1.057 4.619,0.281 1.172,-0.869 2.579,-3.718 1.068,-6.182 z"
     id="path246" />
  <path
     style="fill:#231f20;fill-opacity:1;fill-rule:nonzero;stroke:none"
     d="m 72.270684,10.121906 c 0.984,0.926 0.609,1.842 -0.307,2.322 -0.276,0.14 -0.36,0.552 -0.641,0.667 -0.651,0.276 -2.24,-0.437 -1.984,-1.917 0.02,-0.104 -0.09,-0.916 -0.068,-1.5419998 0.03,-1.213 0.672,-3.625 3.016,-4.948 1.114,-0.63 1.281,0.14 0.91,0.536 -1.181,1.235 -1.046,1.574 -1.233,2.016 -0.663,1.484 0.307,2.8659998 0.307,2.8659998"
     id="path247" />
  <path
     style="fill:none;stroke:#231f20;stroke-width:0.332927;stroke-linecap:butt;stroke-linejoin:miter;stroke-miterlimit:4;stroke-dasharray:none;stroke-opacity:1"
     d="m 72.270684,10.121906 c 0.984,0.926 0.609,1.842 -0.307,2.322 -0.276,0.14 -0.36,0.552 -0.641,0.667 -0.651,0.276 -2.24,-0.437 -1.984,-1.917 0.02,-0.104 -0.09,-0.916 -0.068,-1.5419998 0.03,-1.213 0.672,-3.625 3.016,-4.948 1.114,-0.63 1.281,0.14 0.91,0.536 -1.181,1.235 -1.046,1.574 -1.233,2.016 -0.663,1.484 0.307,2.8659998 0.307,2.8659998 z"
     id="path248" />
  <path
     style="fill:#231f20;fill-opacity:1;fill-rule:nonzero;stroke:none"
     d="m 71.010684,84.990906 c 0.218,1.156 -0.547,2.269999 -1.704,2.483999 -1.161,0.218 -2.271,-0.547 -2.489,-1.702999 -0.214,-1.156 0.552,-2.271 1.708,-2.489 1.157,-0.215 2.271,0.552 2.485,1.708"
     id="path249" />
  <path
     style="fill:#231f20;fill-opacity:1;fill-rule:nonzero;stroke:none"
     d="m 102.28068,72.796906 c 0.187,-0.702 2.036,-3.374 2.495,-3.962 0.396,-0.532 0.776,-1.626 1.907,-1.386 0.457,0.088 1.057,0.547 1.249,0.802 0.161,0.208 0.047,0.516 -0.219,0.808 -0.448,0.494 -0.77,0.457 -1.682,1.353 0,0 -0.255,0.177 -0.724,0.459 -1.375,0.869 -0.848,0.364 -2.567,2.073 -0.12,0.12 -0.329,0.083 -0.407,0 -0.114,-0.147 -0.052,-0.147 -0.052,-0.147"
     id="path250" />
  <path
     style="fill:none;stroke:#231f20;stroke-width:0.565977;stroke-linecap:round;stroke-linejoin:round;stroke-miterlimit:4;stroke-dasharray:none;stroke-opacity:1"
     d="m 102.28068,72.796906 c 0.187,-0.702 2.036,-3.374 2.495,-3.962 0.396,-0.532 0.776,-1.626 1.907,-1.386 0.457,0.088 1.057,0.547 1.249,0.802 0.161,0.208 0.047,0.516 -0.219,0.808 -0.448,0.494 -0.77,0.457 -1.682,1.353 0,0 -0.255,0.177 -0.724,0.459 -1.375,0.869 -0.848,0.364 -2.567,2.073 -0.12,0.12 -0.329,0.083 -0.407,0 -0.114,-0.147 -0.052,-0.147 -0.052,-0.147 z"
     id="path251" />
  <path
     style="fill:#231f20;fill-opacity:1;fill-rule:nonzero;stroke:none"
     d="m 122.49468,85.307906 c -0.219,1.155999 0.546,2.270999 1.702,2.483999 1.162,0.219 2.276,-0.547 2.491,-1.702999 0.213,-1.161 -0.548,-2.276 -1.709,-2.489 -1.156,-0.219 -2.271,0.547 -2.484,1.708"
     id="path252" />
  <path
     style="fill:#231f20;fill-opacity:1;fill-rule:nonzero;stroke:none"
     d="m 107.87468,68.323906 c 0.598,-0.235 1.526,-1.953 2.76,-2.975 0.844,-0.692 2.068,-3.145 2.953,-3.765 0.813,-0.577 1.131,-0.916 0.636,-1.953 -0.287,-0.615 -1.256,-1.62 -1.724,-1.416 -1.099,0.458 -1.76,1.134 -2.328,2.041 -0.647,1.031 -2.156,3.979 -2.385,4.541 -0.563,1.418 -1.199,1.787 -1.386,2.147 -0.349,0.676 -0.177,0.973 0.214,1.296 0.74,0.609 1.26,0.084 1.26,0.084"
     id="path253" />
  <path
     style="fill:none;stroke:#231f20;stroke-width:0.565977;stroke-linecap:butt;stroke-linejoin:miter;stroke-miterlimit:4;stroke-dasharray:none;stroke-opacity:1"
     d="m 107.87468,68.323906 c 0.598,-0.235 1.526,-1.953 2.76,-2.975 0.844,-0.692 2.068,-3.145 2.953,-3.765 0.813,-0.577 1.131,-0.916 0.636,-1.953 -0.287,-0.615 -1.256,-1.62 -1.724,-1.416 -1.099,0.458 -1.76,1.134 -2.328,2.041 -0.647,1.031 -2.156,3.979 -2.385,4.541 -0.563,1.418 -1.199,1.787 -1.386,2.147 -0.349,0.676 -0.177,0.973 0.214,1.296 0.74,0.609 1.26,0.084 1.26,0.084 z"
     id="path254" />
  <path
     style="fill:#231f20;fill-opacity:1;fill-rule:nonzero;stroke:none"
     d="m 111.67168,60.058906 c -0.328,1.254 1.703,1.4 2.229,1.52 0.536,0.12 2,0.636 3.088,1.188 1.104,0.546 2.699,0.765 4.782,1.801 1.093,0.553 2.505,0.391 3.229,-1.228 0.713,-1.605 0.083,-2.615 -1.344,-3.073 -1.416,-0.464 -2.953,-0.292 -4.416,-0.662 -1.464,-0.365 -2.933,-0.87 -4.057,-1.328 -1.282,-0.516 -2.11,-0.297 -2.443,0.047 -0.849,0.844 -1.068,1.735 -1.068,1.735"
     id="path255" />
  <path
     style="fill:none;stroke:#231f20;stroke-width:0.565977;stroke-linecap:butt;stroke-linejoin:miter;stroke-miterlimit:4;stroke-dasharray:none;stroke-opacity:1"
     d="m 111.67168,60.058906 c -0.328,1.254 1.703,1.4 2.229,1.52 0.536,0.12 2,0.636 3.088,1.188 1.104,0.546 2.699,0.765 4.782,1.801 1.093,0.553 2.505,0.391 3.229,-1.228 0.713,-1.605 0.083,-2.615 -1.344,-3.073 -1.416,-0.464 -2.953,-0.292 -4.416,-0.662 -1.464,-0.365 -2.933,-0.87 -4.057,-1.328 -1.282,-0.516 -2.11,-0.297 -2.443,0.047 -0.849,0.844 -1.068,1.735 -1.068,1.735 z"
     id="path256" />
  <path
     style="fill:none;stroke:#231f20;stroke-width:0.399514;stroke-linecap:butt;stroke-linejoin:miter;stroke-miterlimit:4;stroke-dasharray:none;stroke-opacity:1"
     d="m 110.65568,29.282906 c 18.156,-19.281 28.276,-10.683 25.713,-2.672"
     id="path257" />
  <path
     style="fill:#231f20;fill-opacity:1;fill-rule:nonzero;stroke:none"
     d="m 135.99968,27.761906 c -0.027,-0.604 -0.156,-1.386 -0.385,-1.918 l 0.801,0.615 1.011,-0.036 c -0.495,0.303 -1.052,0.86 -1.427,1.339"
     id="path258" />
  <path
     style="fill:#63c99d;fill-opacity:1;fill-rule:nonzero;stroke:none"
     d="m 125.64468,53.578906 c -0.145,-3.124 0.162,-3.818 0.486,-4.682 2.004,-5.417 -0.694,-6.302 -3.496,-5.646 -3.307,0.765 -4.504,0.98 -3.614,7.208 0.26,1.734 0.348,8.505 0.348,8.505 -0.296,2.433 0.708,4.959 1.954,5.719 1.312,0.797 0.854,0.39 2.198,0.906 1.286,0.495 3.443,0.136 4.072,-0.921 0.615,-1.021 -0.177,-2.491 -1.036,-4.756 -0.682,-1.787 -0.912,-6.333 -0.912,-6.333"
     id="path259" />
  <path
     style="fill:none;stroke:#231f20;stroke-width:0.565977;stroke-linecap:butt;stroke-linejoin:miter;stroke-miterlimit:4;stroke-dasharray:none;stroke-opacity:1"
     d="m 125.64468,53.578906 c -0.145,-3.124 0.162,-3.818 0.486,-4.682 2.004,-5.417 -0.694,-6.302 -3.496,-5.646 -3.307,0.765 -4.504,0.98 -3.614,7.208 0.26,1.734 0.348,8.505 0.348,8.505 -0.296,2.433 0.708,4.959 1.954,5.719 1.312,0.797 0.854,0.39 2.198,0.906 1.286,0.495 3.443,0.136 4.072,-0.921 0.615,-1.021 -0.177,-2.491 -1.036,-4.756 -0.682,-1.787 -0.912,-6.333 -0.912,-6.333 z"
     id="path260" />
  <path
     style="fill:#ffffff;fill-opacity:1;fill-rule:nonzero;stroke:none"
     d="m 124.47868,72.796906 c 0.073,0.23 -0.891,0.86 -0.64,1.319 0.254,0.463 1.02,0.26 2.629,1.432 l 0.016,0.016 c 1.151,0.885 2.505,1.197 3.647,0.687 1.9,-0.85 2.494,-3.631 1.348,-6.203 -1.162,-2.584 -3.64,-3.975 -5.531,-3.131 -1.813,0.814 -2.443,3.402 -1.469,5.88"
     id="path261" />
  <path
     style="fill:none;stroke:#231f20;stroke-width:0.565977;stroke-linecap:butt;stroke-linejoin:miter;stroke-miterlimit:4;stroke-dasharray:none;stroke-opacity:1"
     d="m 124.47868,72.796906 c 0.073,0.23 -0.891,0.86 -0.64,1.319 0.254,0.463 1.02,0.26 2.629,1.432 l 0.016,0.016 c 1.151,0.885 2.505,1.197 3.647,0.687 1.9,-0.85 2.494,-3.631 1.348,-6.203 -1.162,-2.584 -3.64,-3.975 -5.531,-3.131 -1.813,0.814 -2.443,3.402 -1.469,5.88 z"
     id="path262" />
  <path
     style="fill:#231f20;fill-opacity:1;fill-rule:nonzero;stroke:none"
     d="m 122.42068,28.209906 c 2.251,0.229 2.719,-0.032 2.876,-0.979 0.114,-0.631 0.427,-1.172 0.51,-1.548 0.281,-1.271 0.224,-3.52 -1.588,-9.848 -0.418,-1.428 -0.979,-3.448 -1.142,-4.297 -0.265,-1.323 -2.296,0.005 -2.197,0.536 0.308,1.682 0.385,2.865 0.412,3.49 0.02,0.427 0.161,1.171 0.02,2.838 -0.203,2.516 -0.703,3.996 -0.635,6.109 0.031,0.985 -0.568,1.74 -0.042,2.683 0.516,0.958 1.786,1.016 1.786,1.016"
     id="path263" />
  <path
     style="fill:none;stroke:#231f20;stroke-width:0.565977;stroke-linecap:butt;stroke-linejoin:miter;stroke-miterlimit:4;stroke-dasharray:none;stroke-opacity:1"
     d="m 122.42068,28.209906 c 2.251,0.229 2.719,-0.032 2.876,-0.979 0.114,-0.631 0.427,-1.172 0.51,-1.548 0.281,-1.271 0.224,-3.52 -1.588,-9.848 -0.418,-1.428 -0.979,-3.448 -1.142,-4.297 -0.265,-1.323 -2.296,0.005 -2.197,0.536 0.308,1.682 0.385,2.865 0.412,3.49 0.02,0.427 0.161,1.171 0.02,2.838 -0.203,2.516 -0.703,3.996 -0.635,6.109 0.031,0.985 -0.568,1.74 -0.042,2.683 0.516,0.958 1.786,1.016 1.786,1.016 z"
     id="path264" />
  <path
     style="fill:#231f20;fill-opacity:1;fill-rule:nonzero;stroke:#231f20;stroke-width:0.565977;stroke-linecap:round;stroke-linejoin:round;stroke-miterlimit:4;stroke-dasharray:none;stroke-opacity:1"
     d="m 120.92668,26.198906 c -1.094,0.901 -0.547,2.984 -0.615,3.317 -0.957,4.928 -0.901,5.303 -1.369,9.09 -0.672,5.489 -0.292,9.353 2.786,10.677 2.088,0.894 3.678,0.509 4.61,-0.423 1.025,-1.036 1.978,-4.068 0.114,-6.271 l -0.25,-1.697 c -0.026,-1.166 -0.042,-1.734 -0.015,-2.313 0.067,-0.995 0.061,-2.072 0.072,-4.031 0.011,-3.474 -1.109,-7.146 -1.109,-7.146 -0.006,-0.307 -0.135,-0.562 -0.312,-0.766"
     id="path265" />
  <path
     style="fill:#63c99d;fill-opacity:1;fill-rule:nonzero;stroke:none"
     d="m 126.43668,42.719906 -7.745,-1.032 c -0.047,0.652 -0.052,1.261 -0.041,1.849 -0.02,0.074 -0.047,0.151 -0.078,0.214 -0.349,0.729 -0.089,1.297 0.391,2.218 0.391,1.506 1.171,2.626 2.5,3.262 2.052,0.968 3.661,0.645 4.624,-0.251 1.063,-0.995 2.136,-3.989 0.349,-6.26"
     id="path266" />
  <path
     style="fill:none;stroke:#231f20;stroke-width:0.565977;stroke-linecap:butt;stroke-linejoin:miter;stroke-miterlimit:4;stroke-dasharray:none;stroke-opacity:1"
     d="m 126.43668,42.719906 -7.745,-1.032 c -0.047,0.652 -0.052,1.261 -0.041,1.849 -0.02,0.074 -0.047,0.151 -0.078,0.214 -0.349,0.729 -0.089,1.297 0.391,2.218 0.391,1.506 1.171,2.626 2.5,3.262 2.052,0.968 3.661,0.645 4.624,-0.251 1.063,-0.995 2.136,-3.989 0.349,-6.26 z"
     id="path267" />
  <path
     style="fill:#231f20;fill-opacity:1;fill-rule:nonzero;stroke:none"
     d="m 123.07268,9.1519062 c 1.083,0.807 0.818,1.7599998 -0.042,2.3389998 -0.26,0.177 -0.291,0.593 -0.558,0.74 -0.614,0.348 -2.276,-0.183 -2.192,-1.683 0.011,-0.104 -0.188,-0.9009998 -0.245,-1.5209998 -0.109,-1.208 0.251,-3.677 2.428,-5.26 1.036,-0.756 1.291,-0.005 0.968,0.427 -1.036,1.365 -0.859,1.688 -0.995,2.146 -0.484,1.552 0.636,2.812 0.636,2.812"
     id="path268" />
  <path
     style="fill:none;stroke:#231f20;stroke-width:0.332927;stroke-linecap:butt;stroke-linejoin:miter;stroke-miterlimit:4;stroke-dasharray:none;stroke-opacity:1"
     d="m 123.07268,9.1519062 c 1.083,0.807 0.818,1.7599998 -0.042,2.3389998 -0.26,0.177 -0.291,0.593 -0.558,0.74 -0.614,0.348 -2.276,-0.183 -2.192,-1.683 0.011,-0.104 -0.188,-0.9009998 -0.245,-1.5209998 -0.109,-1.208 0.251,-3.677 2.428,-5.26 1.036,-0.756 1.291,-0.005 0.968,0.427 -1.036,1.365 -0.859,1.688 -0.995,2.146 -0.484,1.552 0.636,2.812 0.636,2.812 z"
     id="path269" />
  <path
     style="fill:#231f20;fill-opacity:1;fill-rule:nonzero;stroke:none"
     d="m 123.09868,83.468906 c -0.359,-0.525 -0.151,-2.468 -0.594,-4.01 -0.308,-1.047 0.074,-3.76 -0.308,-4.776 -0.342,-0.932 -0.421,-1.391 0.579,-1.968 0.583,-0.344 1.948,-0.626 2.224,-0.199 0.64,1.005 0.807,1.933 0.765,3 -0.046,1.219 -0.468,4.5 -0.598,5.1 -0.339,1.484 -0.022,2.151 -0.068,2.552 -0.099,0.755 -0.411,0.9 -0.911,0.953 -0.959,0.078 -1.089,-0.652 -1.089,-0.652"
     id="path270" />
  <path
     style="fill:none;stroke:#231f20;stroke-width:0.565977;stroke-linecap:butt;stroke-linejoin:miter;stroke-miterlimit:4;stroke-dasharray:none;stroke-opacity:1"
     d="m 123.09868,83.468906 c -0.359,-0.525 -0.151,-2.468 -0.594,-4.01 -0.308,-1.047 0.074,-3.76 -0.308,-4.776 -0.342,-0.932 -0.421,-1.391 0.579,-1.968 0.583,-0.344 1.948,-0.626 2.224,-0.199 0.64,1.005 0.807,1.933 0.765,3 -0.046,1.219 -0.468,4.5 -0.598,5.1 -0.339,1.484 -0.022,2.151 -0.068,2.552 -0.099,0.755 -0.411,0.9 -0.911,0.953 -0.959,0.078 -1.089,-0.652 -1.089,-0.652 z"
     id="path271" />
  <path
     style="fill:#231f20;fill-opacity:1;fill-rule:nonzero;stroke:none"
     d="m 122.81668,74.411906 c -1.296,-0.099 -0.765,-2.072 -0.708,-2.604 0.063,-0.541 0.058,-2.093 -0.109,-3.307 -0.156,-1.218 0.167,-2.802 -0.136,-5.104 -0.161,-1.214 0.459,-2.496 2.224,-2.652 1.751,-0.145 2.495,0.776 2.464,2.276 -0.031,1.495 -0.693,2.886 -0.828,4.391 -0.136,1.505 -0.136,3.057 -0.079,4.265 0.068,1.382 -0.41,2.095 -0.844,2.292 -1.072,0.527 -1.984,0.443 -1.984,0.443"
     id="path272" />
  <path
     style="fill:none;stroke:#231f20;stroke-width:0.565977;stroke-linecap:butt;stroke-linejoin:miter;stroke-miterlimit:4;stroke-dasharray:none;stroke-opacity:1"
     d="m 122.81668,74.411906 c -1.296,-0.099 -0.765,-2.072 -0.708,-2.604 0.063,-0.541 0.058,-2.093 -0.109,-3.307 -0.156,-1.218 0.167,-2.802 -0.136,-5.104 -0.161,-1.214 0.459,-2.496 2.224,-2.652 1.751,-0.145 2.495,0.776 2.464,2.276 -0.031,1.495 -0.693,2.886 -0.828,4.391 -0.136,1.505 -0.136,3.057 -0.079,4.265 0.068,1.382 -0.41,2.095 -0.844,2.292 -1.072,0.527 -1.984,0.443 -1.984,0.443 z"
     id="path273" />
  <path
     style="fill:#231f20;fill-opacity:1;fill-rule:nonzero;stroke:none"
     d="m 234.70168,84.703906 c 0,1.177 0.959,2.135999 2.136,2.135999 1.178,0 2.135,-0.958999 2.135,-2.135999 0,-1.177 -0.957,-2.136 -2.135,-2.136 -1.177,0 -2.136,0.959 -2.136,2.136"
     id="path274" />
  <path
     style="fill:#231f20;fill-opacity:1;fill-rule:nonzero;stroke:#231f20;stroke-width:0.565977;stroke-linecap:round;stroke-linejoin:round;stroke-miterlimit:4;stroke-dasharray:none;stroke-opacity:1"
     d="m 233.05168,63.443906 c 0,0 -1.318,0.036 -2.36,-0.475 -1.047,-0.52 -1.938,-1.541 -1.938,-1.541 l 1.412,-2.973 4.328,2.046 z"
     id="path275" />
  <path
     style="fill:#231f20;fill-opacity:1;fill-rule:nonzero;stroke:none"
     d="m 237.84868,83.020906 c 0.348,-0.536 0.072,-2.468 0.463,-4.02 0.27,-1.052 -0.198,-3.766 0.156,-4.792 0.313,-0.937 0.37,-1.401 -0.651,-1.942 -0.593,-0.323 -1.959,-0.563 -2.224,-0.12 -0.615,1.026 -0.744,1.953 -0.672,3.021 0.089,1.208 0.62,4.479 0.771,5.077 0.381,1.475 0.084,2.142 0.157,2.547 0.119,0.745 0.427,0.891 0.943,0.917 0.952,0.047 1.057,-0.688 1.057,-0.688"
     id="path276" />
  <path
     style="fill:none;stroke:#231f20;stroke-width:0.565977;stroke-linecap:butt;stroke-linejoin:miter;stroke-miterlimit:4;stroke-dasharray:none;stroke-opacity:1"
     d="m 237.84868,83.020906 c 0.348,-0.536 0.072,-2.468 0.463,-4.02 0.27,-1.052 -0.198,-3.766 0.156,-4.792 0.313,-0.937 0.37,-1.401 -0.651,-1.942 -0.593,-0.323 -1.959,-0.563 -2.224,-0.12 -0.615,1.026 -0.744,1.953 -0.672,3.021 0.089,1.208 0.62,4.479 0.771,5.077 0.381,1.475 0.084,2.142 0.157,2.547 0.119,0.745 0.427,0.891 0.943,0.917 0.952,0.047 1.057,-0.688 1.057,-0.688 z"
     id="path277" />
  <path
     style="fill:#231f20;fill-opacity:1;fill-rule:nonzero;stroke:none"
     d="m 235.95768,74.515906 c -1.292,-0.093 -0.776,-2.061 -0.718,-2.599 0.052,-0.541 0.03,-2.098 -0.136,-3.306 -0.167,-1.219 0.141,-2.808 -0.183,-5.104 -0.161,-1.22 0.437,-2.5 2.213,-2.667 1.746,-0.163 2.496,0.755 2.47,2.26 -0.011,1.495 -0.667,2.885 -0.787,4.396 -0.125,1.505 -0.115,3.052 -0.041,4.265 0.078,1.375 -0.407,2.088 -0.828,2.298 -1.074,0.53 -1.99,0.457 -1.99,0.457"
     id="path278" />
  <path
     style="fill:none;stroke:#231f20;stroke-width:0.565977;stroke-linecap:butt;stroke-linejoin:miter;stroke-miterlimit:4;stroke-dasharray:none;stroke-opacity:1"
     d="m 235.95768,74.515906 c -1.292,-0.093 -0.776,-2.061 -0.718,-2.599 0.052,-0.541 0.03,-2.098 -0.136,-3.306 -0.167,-1.219 0.141,-2.808 -0.183,-5.104 -0.161,-1.22 0.437,-2.5 2.213,-2.667 1.746,-0.163 2.496,0.755 2.47,2.26 -0.011,1.495 -0.667,2.885 -0.787,4.396 -0.125,1.505 -0.115,3.052 -0.041,4.265 0.078,1.375 -0.407,2.088 -0.828,2.298 -1.074,0.53 -1.99,0.457 -1.99,0.457 z"
     id="path279" />
  <path
     style="fill:#231f20;fill-opacity:1;fill-rule:nonzero;stroke:none"
     d="m 232.68168,67.495906 c 0.974,-2.647 0.182,-5.38 -1.766,-6.095 -1.948,-0.708 -4.318,0.86 -5.291,3.511 -0.975,2.652 -0.183,5.38 1.765,6.095 1.948,0.718 4.323,-0.855 5.292,-3.511"
     id="path280" />
  <path
     style="fill:none;stroke:#231f20;stroke-width:0.565977;stroke-linecap:butt;stroke-linejoin:miter;stroke-miterlimit:4;stroke-dasharray:none;stroke-opacity:1"
     d="m 232.68168,67.495906 c 0.974,-2.647 0.182,-5.38 -1.766,-6.095 -1.948,-0.708 -4.318,0.86 -5.291,3.511 -0.975,2.652 -0.183,5.38 1.765,6.095 1.948,0.718 4.323,-0.855 5.292,-3.511 z"
     id="path281" />
  <path
     style="fill:#231f20;fill-opacity:1;fill-rule:nonzero;stroke:none"
     d="m 222.55168,75.823906 c -0.588,-0.271 -1.37,-2.052 -2.531,-3.161 -0.792,-0.746 -1.833,-3.282 -2.677,-3.97 -0.766,-0.629 -1.058,-0.994 -0.49,-1.989 0.334,-0.599 1.364,-1.516 1.828,-1.297 1.052,0.546 1.662,1.276 2.172,2.209 0.562,1.077 1.854,4.124 2.047,4.708 0.457,1.459 1.067,1.869 1.219,2.235 0.306,0.708 0.104,1 -0.308,1.281 -0.782,0.552 -1.26,-0.016 -1.26,-0.016"
     id="path282" />
  <path
     style="fill:none;stroke:#231f20;stroke-width:0.565977;stroke-linecap:butt;stroke-linejoin:miter;stroke-miterlimit:4;stroke-dasharray:none;stroke-opacity:1"
     d="m 222.55168,75.823906 c -0.588,-0.271 -1.37,-2.052 -2.531,-3.161 -0.792,-0.746 -1.833,-3.282 -2.677,-3.97 -0.766,-0.629 -1.058,-0.994 -0.49,-1.989 0.334,-0.599 1.364,-1.516 1.828,-1.297 1.052,0.546 1.662,1.276 2.172,2.209 0.562,1.077 1.854,4.124 2.047,4.708 0.457,1.459 1.067,1.869 1.219,2.235 0.306,0.708 0.104,1 -0.308,1.281 -0.782,0.552 -1.26,-0.016 -1.26,-0.016 z"
     id="path283" />
  <path
     style="fill:#231f20;fill-opacity:1;fill-rule:nonzero;stroke:none"
     d="m 217.26968,67.354906 c -1.062,-0.755 0.422,-2.162 0.746,-2.588 0.333,-0.432 1.134,-1.766 1.624,-2.886 0.494,-1.12 1.594,-2.308 2.532,-4.437 0.5,-1.115 1.682,-1.896 3.276,-1.104 1.573,0.776 1.729,1.952 0.926,3.224 -0.806,1.26 -2.093,2.109 -2.989,3.323 -0.891,1.213 -1.697,2.541 -2.281,3.609 -0.656,1.213 -1.438,1.563 -1.912,1.515 -1.187,-0.11 -1.922,-0.656 -1.922,-0.656"
     id="path284" />
  <path
     style="fill:none;stroke:#231f20;stroke-width:0.565977;stroke-linecap:butt;stroke-linejoin:miter;stroke-miterlimit:4;stroke-dasharray:none;stroke-opacity:1"
     d="m 217.26968,67.354906 c -1.062,-0.755 0.422,-2.162 0.746,-2.588 0.333,-0.432 1.134,-1.766 1.624,-2.886 0.494,-1.12 1.594,-2.308 2.532,-4.437 0.5,-1.115 1.682,-1.896 3.276,-1.104 1.573,0.776 1.729,1.952 0.926,3.224 -0.806,1.26 -2.093,2.109 -2.989,3.323 -0.891,1.213 -1.697,2.541 -2.281,3.609 -0.656,1.213 -1.438,1.563 -1.912,1.515 -1.187,-0.11 -1.922,-0.656 -1.922,-0.656 z"
     id="path285" />
  <path
     style="fill:#231f20;fill-opacity:1;fill-rule:nonzero;stroke:none"
     d="m 226.49968,80.604906 c -0.047,-0.734 -1.36,-3.704 -1.683,-4.37 -0.292,-0.594 -0.453,-1.744 -1.604,-1.728 -0.473,0 -1.14,0.328 -1.385,0.552 -0.194,0.172 -0.151,0.494 0.062,0.838 0.344,0.562 0.656,0.594 1.386,1.64 0,0 0.213,0.219 0.614,0.594 1.183,1.12 0.766,0.516 2.131,2.526 0.088,0.14 0.307,0.146 0.395,0.078 0.141,-0.115 0.084,-0.13 0.084,-0.13"
     id="path286" />
  <path
     style="fill:none;stroke:#231f20;stroke-width:0.565977;stroke-linecap:round;stroke-linejoin:round;stroke-miterlimit:4;stroke-dasharray:none;stroke-opacity:1"
     d="m 226.49968,80.604906 c -0.047,-0.734 -1.36,-3.704 -1.683,-4.37 -0.292,-0.594 -0.453,-1.744 -1.604,-1.728 -0.473,0 -1.14,0.328 -1.385,0.552 -0.194,0.172 -0.151,0.494 0.062,0.838 0.344,0.562 0.656,0.594 1.386,1.64 0,0 0.213,0.219 0.614,0.594 1.183,1.12 0.766,0.516 2.131,2.526 0.088,0.14 0.307,0.146 0.395,0.078 0.141,-0.115 0.084,-0.13 0.084,-0.13 z"
     id="path287" />
  <path
     style="fill:#63c99d;fill-opacity:1;fill-rule:nonzero;stroke:none"
     d="m 281.13968,54.854906 c -0.208,-3.124 -0.594,-3.776 -1.015,-4.599 -2.615,-5.151 -0.037,-6.344 2.823,-6.011 3.369,0.386 4.588,0.459 4.416,6.746 -0.058,1.754 0.63,8.489 0.63,8.489 0.574,2.385 -0.136,5.011 -1.286,5.907 -1.214,0.942 -0.802,0.484 -2.078,1.15 -1.22,0.64 -3.401,0.536 -4.157,-0.448 -0.719,-0.942 -0.104,-2.489 0.491,-4.838 0.473,-1.854 0.176,-6.396 0.176,-6.396"
     id="path288" />
  <path
     style="fill:none;stroke:#231f20;stroke-width:0.565977;stroke-linecap:butt;stroke-linejoin:miter;stroke-miterlimit:4;stroke-dasharray:none;stroke-opacity:1"
     d="m 281.13968,54.854906 c -0.208,-3.124 -0.594,-3.776 -1.015,-4.599 -2.615,-5.151 -0.037,-6.344 2.823,-6.011 3.369,0.386 4.588,0.459 4.416,6.746 -0.058,1.754 0.63,8.489 0.63,8.489 0.574,2.385 -0.136,5.011 -1.286,5.907 -1.214,0.942 -0.802,0.484 -2.078,1.15 -1.22,0.64 -3.401,0.536 -4.157,-0.448 -0.719,-0.942 -0.104,-2.489 0.491,-4.838 0.473,-1.854 0.176,-6.396 0.176,-6.396 z"
     id="path289" />
  <path
     style="fill:#ffffff;fill-opacity:1;fill-rule:nonzero;stroke:none"
     d="m 283.55668,75.167906 c -0.156,0.187 0.5,1.135 0.093,1.457 -0.41,0.334 -1.046,-0.14 -2.978,0.334 l -0.022,0.005 c -1.396,0.391 -2.77,0.167 -3.634,-0.739 -1.434,-1.505 -0.934,-4.302 1.104,-6.25 2.052,-1.954 4.869,-2.307 6.296,-0.807 1.376,1.437 0.98,4.072 -0.859,6"
     id="path290" />
  <path
     style="fill:none;stroke:#231f20;stroke-width:0.565977;stroke-linecap:butt;stroke-linejoin:miter;stroke-miterlimit:4;stroke-dasharray:none;stroke-opacity:1"
     d="m 283.55668,75.167906 c -0.156,0.187 0.5,1.135 0.093,1.457 -0.41,0.334 -1.046,-0.14 -2.978,0.334 l -0.022,0.005 c -1.396,0.391 -2.77,0.167 -3.634,-0.739 -1.434,-1.505 -0.934,-4.302 1.104,-6.25 2.052,-1.954 4.869,-2.307 6.296,-0.807 1.376,1.437 0.98,4.072 -0.859,6 z"
     id="path291" />
  <path
     style="fill:#231f20;fill-opacity:1;fill-rule:nonzero;stroke:none"
     d="m 283.76468,84.454906 c 0.391,-0.511 0.276,-2.454 0.803,-3.975 0.353,-1.025 0.114,-3.76 0.541,-4.755 0.391,-0.912 0.489,-1.37 -0.479,-1.994 -0.568,-0.376 -1.912,-0.724 -2.209,-0.308 -0.692,0.969 -0.905,1.89 -0.916,2.958 -0.016,1.219 0.239,4.516 0.344,5.12 0.26,1.5 -0.095,2.151 -0.063,2.552 0.058,0.76 0.364,0.927 0.859,0.995 0.959,0.129 1.12,-0.593 1.12,-0.593"
     id="path292" />
  <path
     style="fill:none;stroke:#231f20;stroke-width:0.565977;stroke-linecap:butt;stroke-linejoin:miter;stroke-miterlimit:4;stroke-dasharray:none;stroke-opacity:1"
     d="m 283.76468,84.454906 c 0.391,-0.511 0.276,-2.454 0.803,-3.975 0.353,-1.025 0.114,-3.76 0.541,-4.755 0.391,-0.912 0.489,-1.37 -0.479,-1.994 -0.568,-0.376 -1.912,-0.724 -2.209,-0.308 -0.692,0.969 -0.905,1.89 -0.916,2.958 -0.016,1.219 0.239,4.516 0.344,5.12 0.26,1.5 -0.095,2.151 -0.063,2.552 0.058,0.76 0.364,0.927 0.859,0.995 0.959,0.129 1.12,-0.593 1.12,-0.593 z"
     id="path293" />
  <path
     style="fill:#231f20;fill-opacity:1;fill-rule:nonzero;stroke:none"
     d="m 284.50468,75.422906 c 1.296,-0.031 0.869,-2.026 0.839,-2.563 -0.038,-0.547 0.046,-2.099 0.27,-3.296 0.219,-1.215 -0.021,-2.808 0.396,-5.095 0.219,-1.208 -0.333,-2.516 -2.089,-2.754 -1.739,-0.24 -2.531,0.65 -2.572,2.145 -0.048,1.495 0.547,2.923 0.604,4.427 0.063,1.51 -0.016,3.057 -0.136,4.266 -0.135,1.375 0.303,2.11 0.724,2.334 1.052,0.577 1.964,0.536 1.964,0.536"
     id="path294" />
  <path
     style="fill:none;stroke:#231f20;stroke-width:0.565977;stroke-linecap:butt;stroke-linejoin:miter;stroke-miterlimit:4;stroke-dasharray:none;stroke-opacity:1"
     d="m 284.50468,75.422906 c 1.296,-0.031 0.869,-2.026 0.839,-2.563 -0.038,-0.547 0.046,-2.099 0.27,-3.296 0.219,-1.215 -0.021,-2.808 0.396,-5.095 0.219,-1.208 -0.333,-2.516 -2.089,-2.754 -1.739,-0.24 -2.531,0.65 -2.572,2.145 -0.048,1.495 0.547,2.923 0.604,4.427 0.063,1.51 -0.016,3.057 -0.136,4.266 -0.135,1.375 0.303,2.11 0.724,2.334 1.052,0.577 1.964,0.536 1.964,0.536 z"
     id="path295" />
  <path
     style="fill:#231f20;fill-opacity:1;fill-rule:nonzero;stroke:none"
     d="m 281.43168,29.277906 c -2.208,0.489 -2.703,0.281 -2.968,-0.642 -0.183,-0.614 -0.558,-1.114 -0.683,-1.478 -0.427,-1.23 -0.625,-3.47 0.448,-9.964 0.249,-1.474 0.572,-3.542 0.64,-4.396 0.115,-1.354 2.287,-0.26 2.245,0.276 -0.114,1.709 -0.052,2.89 -0.01,3.51 0.03,0.427 -0.022,1.188 0.306,2.823 0.496,2.48 1.163,3.891 1.33,6 0.082,0.98 0.765,1.661 0.348,2.661 -0.4,1.011 -1.656,1.21 -1.656,1.21"
     id="path296" />
  <path
     style="fill:none;stroke:#231f20;stroke-width:0.565977;stroke-linecap:butt;stroke-linejoin:miter;stroke-miterlimit:4;stroke-dasharray:none;stroke-opacity:1"
     d="m 281.43168,29.277906 c -2.208,0.489 -2.703,0.281 -2.968,-0.642 -0.183,-0.614 -0.558,-1.114 -0.683,-1.478 -0.427,-1.23 -0.625,-3.47 0.448,-9.964 0.249,-1.474 0.572,-3.542 0.64,-4.396 0.115,-1.354 2.287,-0.26 2.245,0.276 -0.114,1.709 -0.052,2.89 -0.01,3.51 0.03,0.427 -0.022,1.188 0.306,2.823 0.496,2.48 1.163,3.891 1.33,6 0.082,0.98 0.765,1.661 0.348,2.661 -0.4,1.011 -1.656,1.21 -1.656,1.21 z"
     id="path297" />
  <path
     style="fill:#231f20;fill-opacity:1;fill-rule:nonzero;stroke:#231f20;stroke-width:0.565977;stroke-linecap:round;stroke-linejoin:round;stroke-miterlimit:4;stroke-dasharray:none;stroke-opacity:1"
     d="m 282.68768,27.110906 c 1.192,0.771 0.885,2.905 0.994,3.229 1.51,4.782 1.5,5.156 2.4,8.87 1.298,5.374 1.366,9.254 -1.541,10.921 -1.973,1.136 -3.599,0.933 -4.629,0.109 -1.136,-0.905 -2.434,-3.812 -0.835,-6.219 l 0.053,-1.708 c -0.105,-1.161 -0.157,-1.729 -0.25,-2.297 -0.183,-0.984 -0.302,-2.057 -0.536,-4 -0.402,-3.448 0.286,-7.224 0.286,-7.224 -0.026,-0.306 0.067,-0.572 0.224,-0.796"
     id="path298" />
  <path
     style="fill:#63c99d;fill-opacity:1;fill-rule:nonzero;stroke:none"
     d="m 287.04068,44.276906 c -0.036,-0.062 -0.073,-0.136 -0.104,-0.209 -0.052,-0.583 -0.131,-1.187 -0.255,-1.828 l -7.573,1.912 c -1.511,2.464 -0.104,5.317 1.068,6.188 1.057,0.776 2.692,0.911 4.62,-0.287 1.249,-0.781 1.891,-1.985 2.109,-3.526 0.37,-0.968 0.567,-1.568 0.135,-2.25"
     id="path299" />
  <path
     style="fill:none;stroke:#231f20;stroke-width:0.565977;stroke-linecap:butt;stroke-linejoin:miter;stroke-miterlimit:4;stroke-dasharray:none;stroke-opacity:1"
     d="m 287.04068,44.276906 c -0.036,-0.062 -0.073,-0.136 -0.104,-0.209 -0.052,-0.583 -0.131,-1.187 -0.255,-1.828 l -7.573,1.912 c -1.511,2.464 -0.104,5.317 1.068,6.188 1.057,0.776 2.692,0.911 4.62,-0.287 1.249,-0.781 1.891,-1.985 2.109,-3.526 0.37,-0.968 0.567,-1.568 0.135,-2.25 z"
     id="path300" />
  <path
     style="fill:#231f20;fill-opacity:1;fill-rule:nonzero;stroke:none"
     d="m 278.60368,10.422906 c -0.984,0.927 -0.61,1.844 0.308,2.317 0.276,0.147 0.358,0.558 0.64,0.672 0.65,0.271 2.24,-0.442 1.984,-1.921 -0.02,-0.104 0.084,-0.917 0.068,-1.5409998 -0.031,-1.21 -0.672,-3.62 -3.016,-4.943 -1.115,-0.636 -1.282,0.14 -0.911,0.531 1.181,1.24 1.047,1.578 1.235,2.021 0.656,1.484 -0.308,2.8639998 -0.308,2.8639998"
     id="path301" />
  <path
     style="fill:none;stroke:#231f20;stroke-width:0.332927;stroke-linecap:butt;stroke-linejoin:miter;stroke-miterlimit:4;stroke-dasharray:none;stroke-opacity:1"
     d="m 278.60368,10.422906 c -0.984,0.927 -0.61,1.844 0.308,2.317 0.276,0.147 0.358,0.558 0.64,0.672 0.65,0.271 2.24,-0.442 1.984,-1.921 -0.02,-0.104 0.084,-0.917 0.068,-1.5409998 -0.031,-1.21 -0.672,-3.62 -3.016,-4.943 -1.115,-0.636 -1.282,0.14 -0.911,0.531 1.181,1.24 1.047,1.578 1.235,2.021 0.656,1.484 -0.308,2.8639998 -0.308,2.8639998 z"
     id="path302" />
  <path
     style="fill:#231f20;fill-opacity:1;fill-rule:nonzero;stroke:none"
     d="m 279.86368,85.286906 c -0.219,1.161999 0.542,2.271999 1.704,2.489999 1.156,0.214 2.27,-0.552 2.489,-1.708999 0.213,-1.156 -0.552,-2.271 -1.708,-2.484 -1.161,-0.219 -2.272,0.547 -2.485,1.703"
     id="path303" />
  <path
     style="fill:#231f20;fill-opacity:1;fill-rule:nonzero;stroke:none"
     d="m 170.94268,84.948906 c 0.218,1.156 -0.547,2.265999 -1.703,2.483999 -1.157,0.214 -2.272,-0.546 -2.491,-1.707999 -0.213,-1.157 0.552,-2.27 1.71,-2.485 1.161,-0.213 2.27,0.548 2.484,1.709"
     id="path304" />
  <path
     style="fill:#231f20;fill-opacity:1;fill-rule:nonzero;stroke:none"
     d="m 193.12468,84.948906 c 0.214,1.156 -0.552,2.265999 -1.709,2.483999 -1.161,0.214 -2.271,-0.546 -2.484,-1.707999 -0.219,-1.157 0.547,-2.27 1.703,-2.485 1.157,-0.213 2.272,0.548 2.49,1.709"
     id="path305" />
  <path
     style="fill:#231f20;fill-opacity:1;fill-rule:nonzero;stroke:none"
     d="m 187.26468,74.635906 c -1.281,0.183 -1.202,-1.848 -1.26,-2.391 -0.057,-0.536 -0.406,-2.057 -0.822,-3.202 -0.428,-1.151 -0.464,-2.766 -1.262,-4.954 -0.416,-1.145 -0.098,-2.53 1.595,-3.068 1.672,-0.525 2.604,0.214 2.9,1.678 0.297,1.469 -0.041,2.974 0.157,4.469 0.192,1.5 0.536,3.009 0.854,4.176 0.37,1.333 0.057,2.131 -0.318,2.433 -0.937,0.739 -1.844,0.859 -1.844,0.859"
     id="path306" />
  <path
     style="fill:none;stroke:#231f20;stroke-width:0.565977;stroke-linecap:butt;stroke-linejoin:miter;stroke-miterlimit:4;stroke-dasharray:none;stroke-opacity:1"
     d="m 187.26468,74.635906 c -1.281,0.183 -1.202,-1.848 -1.26,-2.391 -0.057,-0.536 -0.406,-2.057 -0.822,-3.202 -0.428,-1.151 -0.464,-2.766 -1.262,-4.954 -0.416,-1.145 -0.098,-2.53 1.595,-3.068 1.672,-0.525 2.604,0.214 2.9,1.678 0.297,1.469 -0.041,2.974 0.157,4.469 0.192,1.5 0.536,3.009 0.854,4.176 0.37,1.333 0.057,2.131 -0.318,2.433 -0.937,0.739 -1.844,0.859 -1.844,0.859 z"
     id="path307" />
  <path
     style="fill:#231f20;fill-opacity:1;fill-rule:nonzero;stroke:none"
     d="m 191.64468,82.839906 c 0.199,-0.615 -0.588,-2.396 -0.62,-4.011 -0.02,-1.084 -1.192,-3.562 -1.134,-4.646 0.052,-0.995 -0.016,-1.452 -1.136,-1.708 -0.667,-0.156 -2.047,-0.016 -2.182,0.478 -0.318,1.147 -0.193,2.084 0.167,3.095 0.4,1.14 1.785,4.151 2.093,4.683 0.76,1.317 0.656,2.052 0.823,2.416 0.317,0.693 0.661,0.74 1.156,0.636 0.932,-0.21 0.833,-0.943 0.833,-0.943"
     id="path308" />
  <path
     style="fill:none;stroke:#231f20;stroke-width:0.565977;stroke-linecap:butt;stroke-linejoin:miter;stroke-miterlimit:4;stroke-dasharray:none;stroke-opacity:1"
     d="m 191.64468,82.839906 c 0.199,-0.615 -0.588,-2.396 -0.62,-4.011 -0.02,-1.084 -1.192,-3.562 -1.134,-4.646 0.052,-0.995 -0.016,-1.452 -1.136,-1.708 -0.667,-0.156 -2.047,-0.016 -2.182,0.478 -0.318,1.147 -0.193,2.084 0.167,3.095 0.4,1.14 1.785,4.151 2.093,4.683 0.76,1.317 0.656,2.052 0.823,2.416 0.317,0.693 0.661,0.74 1.156,0.636 0.932,-0.21 0.833,-0.943 0.833,-0.943 z"
     id="path309" />
  <path
     style="fill:#231f20;fill-opacity:1;fill-rule:nonzero;stroke:none"
     d="m 172.03068,74.490906 c 1.292,0.046 0.99,-1.97 0.994,-2.511 0,-0.541 0.183,-2.088 0.475,-3.271 0.297,-1.193 0.156,-2.802 0.713,-5.062 0.292,-1.183 -0.172,-2.531 -1.916,-2.88 -1.714,-0.344 -2.562,0.489 -2.698,1.984 -0.135,1.489 0.36,2.948 0.328,4.458 -0.036,1.511 -0.208,3.047 -0.406,4.246 -0.22,1.369 0.176,2.118 0.583,2.38 1.011,0.634 1.927,0.656 1.927,0.656"
     id="path310" />
  <path
     style="fill:none;stroke:#231f20;stroke-width:0.565977;stroke-linecap:butt;stroke-linejoin:miter;stroke-miterlimit:4;stroke-dasharray:none;stroke-opacity:1"
     d="m 172.03068,74.490906 c 1.292,0.046 0.99,-1.97 0.994,-2.511 0,-0.541 0.183,-2.088 0.475,-3.271 0.297,-1.193 0.156,-2.802 0.713,-5.062 0.292,-1.183 -0.172,-2.531 -1.916,-2.88 -1.714,-0.344 -2.562,0.489 -2.698,1.984 -0.135,1.489 0.36,2.948 0.328,4.458 -0.036,1.511 -0.208,3.047 -0.406,4.246 -0.22,1.369 0.176,2.118 0.583,2.38 1.011,0.634 1.927,0.656 1.927,0.656 z"
     id="path311" />
  <path
     style="fill:#231f20;fill-opacity:1;fill-rule:nonzero;stroke:none"
     d="m 168.55668,83.120906 c -0.256,-0.589 0.328,-2.448 0.187,-4.053 -0.099,-1.077 0.797,-3.671 0.625,-4.744 -0.161,-0.98 -0.14,-1.443 0.948,-1.823 0.642,-0.224 2.032,-0.234 2.219,0.244 0.437,1.104 0.417,2.047 0.167,3.095 -0.276,1.176 -1.328,4.323 -1.572,4.88 -0.615,1.396 -0.434,2.104 -0.563,2.495 -0.24,0.718 -0.573,0.806 -1.079,0.749 -0.953,-0.104 -0.932,-0.843 -0.932,-0.843"
     id="path312" />
  <path
     style="fill:none;stroke:#231f20;stroke-width:0.565977;stroke-linecap:butt;stroke-linejoin:miter;stroke-miterlimit:4;stroke-dasharray:none;stroke-opacity:1"
     d="m 168.55668,83.120906 c -0.256,-0.589 0.328,-2.448 0.187,-4.053 -0.099,-1.077 0.797,-3.671 0.625,-4.744 -0.161,-0.98 -0.14,-1.443 0.948,-1.823 0.642,-0.224 2.032,-0.234 2.219,0.244 0.437,1.104 0.417,2.047 0.167,3.095 -0.276,1.176 -1.328,4.323 -1.572,4.88 -0.615,1.396 -0.434,2.104 -0.563,2.495 -0.24,0.718 -0.573,0.806 -1.079,0.749 -0.953,-0.104 -0.932,-0.843 -0.932,-0.843 z"
     id="path313" />
  <path
     style="fill:#231f20;fill-opacity:1;fill-rule:nonzero;stroke:none"
     d="m 175.81168,48.787906 c -3.577,-0.453 -3.047,-2.048 -3.547,-6.095 -0.546,-4.426 -0.645,-9.103 0.246,-12.281 1,-3.546 0.577,-3.848 2.448,-4.265 1.874,-0.416 2.062,0.339 3.041,1.177 1.135,0.968 -0.5,8.14 0.249,12.834 0.355,2.197 2.626,7.234 1.282,7.795 -1.343,0.554 -3.719,0.835 -3.719,0.835"
     id="path314" />
  <path
     style="fill:none;stroke:#231f20;stroke-width:0.565977;stroke-linecap:butt;stroke-linejoin:miter;stroke-miterlimit:4;stroke-dasharray:none;stroke-opacity:1"
     d="m 175.81168,48.787906 c -3.577,-0.453 -3.047,-2.048 -3.547,-6.095 -0.546,-4.426 -0.645,-9.103 0.246,-12.281 1,-3.546 0.577,-3.848 2.448,-4.265 1.874,-0.416 2.062,0.339 3.041,1.177 1.135,0.968 -0.5,8.14 0.249,12.834 0.355,2.197 2.626,7.234 1.282,7.795 -1.343,0.554 -3.719,0.835 -3.719,0.835 z"
     id="path315" />
  <path
     style="fill:#231f20;fill-opacity:1;fill-rule:nonzero;stroke:none"
     d="m 176.05168,28.121906 c -2.251,0.233 -2.901,0.337 -2.765,-2.168 0.03,-0.635 0.254,-2.395 0.166,-2.776 -0.281,-1.266 -0.5,-2.755 1.291,-9.094 0.277,-0.984 0.48,-2.948 0.745,-4.3279998 0.255,-1.333 2.298,-0.005 2.203,0.5219998 -0.301,1.686 -0.129,2.838 -0.156,3.457 -0.02,0.428 -0.187,1.219 0.152,2.849 0.869,4.188 -0.303,5.552 -0.199,6.448 0.308,2.563 1.094,4.694 0.506,5.006 -0.959,0.505 -1.943,0.084 -1.943,0.084"
     id="path316" />
  <path
     style="fill:none;stroke:#231f20;stroke-width:0.565977;stroke-linecap:butt;stroke-linejoin:miter;stroke-miterlimit:4;stroke-dasharray:none;stroke-opacity:1"
     d="m 176.05168,28.121906 c -2.251,0.233 -2.901,0.337 -2.765,-2.168 0.03,-0.635 0.254,-2.395 0.166,-2.776 -0.281,-1.266 -0.5,-2.755 1.291,-9.094 0.277,-0.984 0.48,-2.948 0.745,-4.3279998 0.255,-1.333 2.298,-0.005 2.203,0.5219998 -0.301,1.686 -0.129,2.838 -0.156,3.457 -0.02,0.428 -0.187,1.219 0.152,2.849 0.869,4.188 -0.303,5.552 -0.199,6.448 0.308,2.563 1.094,4.694 0.506,5.006 -0.959,0.505 -1.943,0.084 -1.943,0.084 z"
     id="path317" />
  <path
     style="fill:#231f20;fill-opacity:1;fill-rule:nonzero;stroke:none"
     d="m 182.05668,48.692906 c 3.568,-0.525 3.006,-2.109 3.422,-6.166 0.453,-4.437 0.453,-9.115 -0.506,-12.271 -1.072,-3.525 -0.656,-3.838 -2.536,-4.218 -1.88,-0.375 -2.057,0.38 -3.016,1.24 -1.114,0.994 0.672,8.129 0.022,12.838 -0.308,2.208 -2.475,7.291 -1.115,7.823 1.355,0.525 3.729,0.754 3.729,0.754"
     id="path318" />
  <path
     style="fill:none;stroke:#231f20;stroke-width:0.565977;stroke-linecap:butt;stroke-linejoin:miter;stroke-miterlimit:4;stroke-dasharray:none;stroke-opacity:1"
     d="m 182.05668,48.692906 c 3.568,-0.525 3.006,-2.109 3.422,-6.166 0.453,-4.437 0.453,-9.115 -0.506,-12.271 -1.072,-3.525 -0.656,-3.838 -2.536,-4.218 -1.88,-0.375 -2.057,0.38 -3.016,1.24 -1.114,0.994 0.672,8.129 0.022,12.838 -0.308,2.208 -2.475,7.291 -1.115,7.823 1.355,0.525 3.729,0.754 3.729,0.754 z"
     id="path319" />
  <path
     style="fill:#63c99d;fill-opacity:1;fill-rule:nonzero;stroke:none"
     d="m 185.63068,59.495906 c -0.663,-1.156 -2.043,-6.073 -2.126,-9.323 -0.021,-0.74 1.276,-2.772 0.38,-1.906 l -0.36,-0.011 c -2.733,-1.484 -3.489,-7.281 -3.489,-7.281 0,0 -0.609,-0.422 -1.104,-0.422 -0.495,0.006 -1.099,0.443 -1.099,0.443 0,0 -0.666,5.801 -3.374,7.333 l -0.36,0.015 c -0.911,-0.853 0.417,1.157 0.406,1.901 -0.032,3.251 -1.333,8.188 -1.98,9.355 -0.89,1.599 -3.462,2.131 -2.39,4.005 0,0 0.63,1.844 3.417,1.463 1.005,-0.14 3.224,0.557 3.224,0.557 0,0 1.245,0.527 2.412,0.538 1.036,0.014 2.067,-0.47 2.285,-0.574 0,0 2.21,-0.734 3.219,-0.609 2.792,0.339 3.329,-1.787 3.329,-1.787 1.047,-1.89 -1.474,-2.109 -2.39,-3.697"
     id="path320" />
  <path
     style="fill:none;stroke:#231f20;stroke-width:0.565977;stroke-linecap:round;stroke-linejoin:round;stroke-miterlimit:4;stroke-dasharray:none;stroke-opacity:1"
     d="m 185.63068,59.495906 c -0.663,-1.156 -2.043,-6.073 -2.126,-9.323 -0.021,-0.74 1.276,-2.772 0.38,-1.906 l -0.36,-0.011 c -2.733,-1.484 -3.489,-7.281 -3.489,-7.281 0,0 -0.609,-0.422 -1.104,-0.422 -0.495,0.006 -1.099,0.443 -1.099,0.443 0,0 -0.666,5.801 -3.374,7.333 l -0.36,0.015 c -0.911,-0.853 0.417,1.157 0.406,1.901 -0.032,3.251 -1.333,8.188 -1.98,9.355 -0.89,1.599 -3.462,2.131 -2.39,4.005 0,0 0.63,1.844 3.417,1.463 1.005,-0.14 3.224,0.557 3.224,0.557 0,0 1.245,0.527 2.412,0.538 1.036,0.014 2.067,-0.47 2.285,-0.574 0,0 2.21,-0.734 3.219,-0.609 2.792,0.339 3.329,-1.787 3.329,-1.787 1.047,-1.89 -1.474,-2.109 -2.39,-3.697 z"
     id="path321" />
  <path
     style="fill:#231f20;fill-opacity:1;fill-rule:nonzero;stroke:none"
     d="m 182.91168,71.067906 c -0.021,-2.823 -1.72,-5.104 -3.792,-5.093 -2.079,0.01 -3.745,2.312 -3.729,5.136 0.016,2.822 1.708,5.104 3.786,5.088 2.072,-0.006 3.75,-2.307 3.735,-5.131"
     id="path322" />
  <path
     style="fill:none;stroke:#231f20;stroke-width:0.565977;stroke-linecap:butt;stroke-linejoin:miter;stroke-miterlimit:4;stroke-dasharray:none;stroke-opacity:1"
     d="m 182.91168,71.067906 c -0.021,-2.823 -1.72,-5.104 -3.792,-5.093 -2.079,0.01 -3.745,2.312 -3.729,5.136 0.016,2.822 1.708,5.104 3.786,5.088 2.072,-0.006 3.75,-2.307 3.735,-5.131 z"
     id="path323" />
  <path
     style="fill:#231f20;fill-opacity:1;fill-rule:nonzero;stroke:none"
     d="m 181.40668,28.047906 c 2.26,0.178 2.916,0.26 2.713,-2.234 -0.052,-0.636 -0.323,-2.391 -0.245,-2.771 0.25,-1.276 0.432,-2.776 -1.526,-9.063 -0.308,-0.973 -0.562,-2.932 -0.865,-4.3019998 -0.292,-1.328 -2.296,0.053 -2.187,0.5729998 0.348,1.683 0.208,2.839 0.25,3.459 0.032,0.426 0.218,1.213 -0.079,2.849 -0.755,4.213 0.453,5.547 0.371,6.443 -0.24,2.572 -0.97,4.718 -0.371,5.014 0.969,0.486 1.939,0.032 1.939,0.032"
     id="path324" />
  <path
     style="fill:none;stroke:#231f20;stroke-width:0.565977;stroke-linecap:butt;stroke-linejoin:miter;stroke-miterlimit:4;stroke-dasharray:none;stroke-opacity:1"
     d="m 181.40668,28.047906 c 2.26,0.178 2.916,0.26 2.713,-2.234 -0.052,-0.636 -0.323,-2.391 -0.245,-2.771 0.25,-1.276 0.432,-2.776 -1.526,-9.063 -0.308,-0.973 -0.562,-2.932 -0.865,-4.3019998 -0.292,-1.328 -2.296,0.053 -2.187,0.5729998 0.348,1.683 0.208,2.839 0.25,3.459 0.032,0.426 0.218,1.213 -0.079,2.849 -0.755,4.213 0.453,5.547 0.371,6.443 -0.24,2.572 -0.97,4.718 -0.371,5.014 0.969,0.486 1.939,0.032 1.939,0.032 z"
     id="path325" />
  <path
     style="fill:#63c99d;fill-opacity:1;fill-rule:nonzero;stroke:none"
     d="m 183.86368,49.099906 c 0.209,-0.287 0.849,-1.495 1.016,-1.927 1.073,-2.772 0.959,-6.718 1.219,-7.963 0.26,-1.251 -6.334,-1.142 -6.334,-1.142 l -0.776,1.246 c -0.453,-0.432 -0.188,0 -0.188,0 l -0.946,-1.307 c 0,0 -6.464,-0.204 -6.308,0.791 0.218,1.38 0.333,6.005 1.286,8.266 0.526,1.239 1.302,1.9 1.302,1.9 0,0 3.641,-1.109 5.062,-1.12 1.428,-0.009 4.667,1.256 4.667,1.256"
     id="path326" />
  <path
     style="fill:none;stroke:#231f20;stroke-width:0.565977;stroke-linecap:round;stroke-linejoin:round;stroke-miterlimit:4;stroke-dasharray:none;stroke-opacity:1"
     d="m 183.86368,49.099906 c 0.209,-0.287 0.849,-1.495 1.016,-1.927 1.073,-2.772 0.959,-6.718 1.219,-7.963 0.26,-1.251 -6.334,-1.142 -6.334,-1.142 l -0.776,1.246 c -0.453,-0.432 -0.188,0 -0.188,0 l -0.946,-1.307 c 0,0 -6.464,-0.204 -6.308,0.791 0.218,1.38 0.333,6.005 1.286,8.266 0.526,1.239 1.302,1.9 1.302,1.9 0,0 3.641,-1.109 5.062,-1.12 1.428,-0.009 4.667,1.256 4.667,1.256 z"
     id="path327" />
  <path
     style="fill:none;stroke:#231f20;stroke-width:0.565977;stroke-linecap:round;stroke-linejoin:round;stroke-miterlimit:4;stroke-dasharray:none;stroke-opacity:1"
     d="m 182.09868,39.725906 c -1.318,-1.224 -3.25,-0.251 -3.25,-0.251 -1.729,-0.635 -3.146,0.109 -3.146,0.109"
     id="path328" />
  <path
     style="fill:#231f20;fill-opacity:1;fill-rule:nonzero;stroke:none"
     d="m 182.77068,4.7779062 c 0.292,0.598 -0.912,1.942 -0.938,3.91 0,0.407 -0.198,0.724 -0.333,1.074 -0.557,1.4009998 -1.833,2.3689998 -2.765,-1.35 -0.131,-0.51 0.244,-2.577 0,-3.322 -0.604,-1.766 0.989,-4.67800003 1.494,-4.54200003 1.083,0.287 2.542,4.23000003 2.542,4.23000003"
     id="path329" />
  <path
     style="fill:none;stroke:#231f20;stroke-width:0.644548;stroke-linecap:round;stroke-linejoin:round;stroke-miterlimit:4;stroke-dasharray:none;stroke-opacity:1"
     d="m 182.77068,4.7779062 c 0.292,0.598 -0.912,1.942 -0.938,3.91 0,0.407 -0.198,0.724 -0.333,1.074 -0.557,1.4009998 -1.833,2.3689998 -2.765,-1.35 -0.131,-0.51 0.244,-2.577 0,-3.322 -0.604,-1.766 0.989,-4.67800003 1.494,-4.54200003 1.083,0.287 2.542,4.23000003 2.542,4.23000003 z"
     id="path330" />
  <path
     style="fill:#231f20;fill-opacity:1;fill-rule:nonzero;stroke:none"
     d="m 174.21868,4.5789062 c -0.287,0.599 0.926,1.932 0.964,3.901 0.005,0.407 0.202,0.724 0.342,1.068 0.568,1.4019998 1.85,2.3539998 2.756,-1.365 0.126,-0.515 -0.265,-2.577 -0.021,-3.323 0.589,-1.765 -1.036,-4.67200003 -1.531,-4.53000003 -1.084,0.29 -2.51,4.24900003 -2.51,4.24900003"
     id="path331" />
  <path
     style="fill:none;stroke:#231f20;stroke-width:0.644548;stroke-linecap:round;stroke-linejoin:round;stroke-miterlimit:4;stroke-dasharray:none;stroke-opacity:1"
     d="m 174.21868,4.5789062 c -0.287,0.599 0.926,1.932 0.964,3.901 0.005,0.407 0.202,0.724 0.342,1.068 0.568,1.4019998 1.85,2.3539998 2.756,-1.365 0.126,-0.515 -0.265,-2.577 -0.021,-3.323 0.589,-1.765 -1.036,-4.67200003 -1.531,-4.53000003 -1.084,0.29 -2.51,4.24900003 -2.51,4.24900003 z"
     id="path332" />
  <path
     style="fill:none;stroke:#231f20;stroke-width:0.399514;stroke-linecap:butt;stroke-linejoin:miter;stroke-miterlimit:4;stroke-dasharray:none;stroke-opacity:1"
     d="m 224.22868,23.897906 c 18.161,-19.2819998 28.281,-10.688 25.719,-2.672"
     id="path333" />
  <path
     style="fill:#231f20;fill-opacity:1;fill-rule:nonzero;stroke:none"
     d="m 249.57768,22.375906 c -0.026,-0.609 -0.157,-1.385 -0.386,-1.917 l 0.802,0.615 1.006,-0.036 c -0.495,0.297 -1.047,0.86 -1.422,1.338"
     id="path334" />
  <path
     style="fill:#231f20;fill-opacity:1;fill-rule:nonzero;stroke:none"
     d="m 234.17668,48.036906 c -3.552,-0.598 -2.964,-2.172 -3.297,-6.24 -0.37,-4.442 -0.282,-9.114 0.74,-12.249 1.134,-3.51 0.729,-3.828 2.614,-4.177 1.886,-0.339 2.047,0.427 2.995,1.307 1.093,1.005 -0.833,8.11 -0.271,12.829 0.271,2.213 2.334,7.337 0.968,7.837 -1.364,0.5 -3.749,0.693 -3.749,0.693"
     id="path335" />
  <path
     style="fill:none;stroke:#231f20;stroke-width:0.565977;stroke-linecap:butt;stroke-linejoin:miter;stroke-miterlimit:4;stroke-dasharray:none;stroke-opacity:1"
     d="m 234.17668,48.036906 c -3.552,-0.598 -2.964,-2.172 -3.297,-6.24 -0.37,-4.442 -0.282,-9.114 0.74,-12.249 1.134,-3.51 0.729,-3.828 2.614,-4.177 1.886,-0.339 2.047,0.427 2.995,1.307 1.093,1.005 -0.833,8.11 -0.271,12.829 0.271,2.213 2.334,7.337 0.968,7.837 -1.364,0.5 -3.749,0.693 -3.749,0.693 z"
     id="path336" />
  <path
     style="fill:#231f20;fill-opacity:1;fill-rule:nonzero;stroke:none"
     d="m 235.24868,27.391906 c -2.255,0.146 -2.916,0.224 -2.681,-2.27 0.057,-0.636 0.353,-2.391 0.286,-2.772 -0.234,-1.276 -0.396,-2.776 1.646,-9.036 0.317,-0.974 0.604,-2.927 0.926,-4.2919998 0.308,-1.323 2.292,0.084 2.178,0.604 -0.37,1.6769998 -0.246,2.8329998 -0.298,3.4579998 -0.036,0.423 -0.233,1.203 0.043,2.85 0.697,4.218 -0.527,5.541 -0.459,6.437 0.198,2.568 0.902,4.729 0.298,5.016 -0.975,0.468 -1.939,0.005 -1.939,0.005"
     id="path337" />
  <path
     style="fill:none;stroke:#231f20;stroke-width:0.565977;stroke-linecap:butt;stroke-linejoin:miter;stroke-miterlimit:4;stroke-dasharray:none;stroke-opacity:1"
     d="m 235.24868,27.391906 c -2.255,0.146 -2.916,0.224 -2.681,-2.27 0.057,-0.636 0.353,-2.391 0.286,-2.772 -0.234,-1.276 -0.396,-2.776 1.646,-9.036 0.317,-0.974 0.604,-2.927 0.926,-4.2919998 0.308,-1.323 2.292,0.084 2.178,0.604 -0.37,1.6769998 -0.246,2.8329998 -0.298,3.4579998 -0.036,0.423 -0.233,1.203 0.043,2.85 0.697,4.218 -0.527,5.541 -0.459,6.437 0.198,2.568 0.902,4.729 0.298,5.016 -0.975,0.468 -1.939,0.005 -1.939,0.005 z"
     id="path338" />
  <path
     style="fill:#231f20;fill-opacity:1;fill-rule:nonzero;stroke:none"
     d="m 240.40568,47.922906 c 3.572,-0.511 3.015,-2.104 3.448,-6.156 0.468,-4.427 0.484,-9.109 -0.464,-12.265 -1.052,-3.532 -0.636,-3.85 -2.51,-4.23 -1.88,-0.39 -2.063,0.37 -3.031,1.23 -1.109,0.984 0.645,8.129 -0.027,12.833 -0.312,2.208 -2.494,7.281 -1.15,7.812 1.353,0.536 3.734,0.776 3.734,0.776"
     id="path339" />
  <path
     style="fill:none;stroke:#231f20;stroke-width:0.565977;stroke-linecap:butt;stroke-linejoin:miter;stroke-miterlimit:4;stroke-dasharray:none;stroke-opacity:1"
     d="m 240.40568,47.922906 c 3.572,-0.511 3.015,-2.104 3.448,-6.156 0.468,-4.427 0.484,-9.109 -0.464,-12.265 -1.052,-3.532 -0.636,-3.85 -2.51,-4.23 -1.88,-0.39 -2.063,0.37 -3.031,1.23 -1.109,0.984 0.645,8.129 -0.027,12.833 -0.312,2.208 -2.494,7.281 -1.15,7.812 1.353,0.536 3.734,0.776 3.734,0.776 z"
     id="path340" />
  <path
     style="fill:#231f20;fill-opacity:1;fill-rule:nonzero;stroke:none"
     d="m 239.83768,27.271906 c 2.255,0.187 2.911,0.276 2.724,-2.224 -0.052,-0.63 -0.317,-2.385 -0.24,-2.77 0.256,-1.276 0.448,-2.771 -1.489,-9.063 -0.303,-0.98 -0.557,-2.937 -0.849,-4.3079998 -0.287,-1.328 -2.292,0.043 -2.187,0.568 0.343,1.6769998 0.192,2.8329998 0.233,3.4589998 0.032,0.426 0.219,1.213 -0.088,2.844 -0.776,4.208 0.432,5.546 0.344,6.448 -0.25,2.566 -0.985,4.713 -0.39,5.009 0.973,0.491 1.942,0.037 1.942,0.037"
     id="path341" />
  <path
     style="fill:none;stroke:#231f20;stroke-width:0.565977;stroke-linecap:butt;stroke-linejoin:miter;stroke-miterlimit:4;stroke-dasharray:none;stroke-opacity:1"
     d="m 239.83768,27.271906 c 2.255,0.187 2.911,0.276 2.724,-2.224 -0.052,-0.63 -0.317,-2.385 -0.24,-2.77 0.256,-1.276 0.448,-2.771 -1.489,-9.063 -0.303,-0.98 -0.557,-2.937 -0.849,-4.3079998 -0.287,-1.328 -2.292,0.043 -2.187,0.568 0.343,1.6769998 0.192,2.8329998 0.233,3.4589998 0.032,0.426 0.219,1.213 -0.088,2.844 -0.776,4.208 0.432,5.546 0.344,6.448 -0.25,2.566 -0.985,4.713 -0.39,5.009 0.973,0.491 1.942,0.037 1.942,0.037 z"
     id="path342" />
  <path
     style="fill:#231f20;fill-opacity:1;fill-rule:nonzero;stroke:none"
     d="m 240.68768,5.4639062 c 0.29,0.6 -0.912,1.943 -0.928,3.912 -0.006,0.402 -0.198,0.7299998 -0.334,1.0739998 -0.557,1.405 -1.828,2.369 -2.77,-1.3389998 -0.131,-0.516 0.24,-2.589 -0.006,-3.323 -0.609,-1.766 0.99,-4.688 1.484,-4.548 1.09,0.282 2.554,4.224 2.554,4.224"
     id="path343" />
  <path
     style="fill:none;stroke:#231f20;stroke-width:0.644548;stroke-linecap:round;stroke-linejoin:round;stroke-miterlimit:4;stroke-dasharray:none;stroke-opacity:1"
     d="m 240.68768,5.4639062 c 0.29,0.6 -0.912,1.943 -0.928,3.912 -0.006,0.402 -0.198,0.7299998 -0.334,1.0739998 -0.557,1.405 -1.828,2.369 -2.77,-1.3389998 -0.131,-0.516 0.24,-2.589 -0.006,-3.323 -0.609,-1.766 0.99,-4.688 1.484,-4.548 1.09,0.282 2.554,4.224 2.554,4.224 z"
     id="path344" />
  <path
     style="fill:#231f20;fill-opacity:1;fill-rule:nonzero;stroke:none"
     d="m 234.54568,5.3349062 c -0.328,0.572 0.792,1.989 0.694,3.957 -0.016,0.402 0.161,0.7349998 0.27,1.0899998 0.468,1.437 1.692,2.468 2.844,-1.1779998 0.156,-0.5 -0.094,-2.588 0.203,-3.317 0.708,-1.719 -0.708,-4.735 -1.219,-4.625 -1.093,0.218 -2.792,4.073 -2.792,4.073"
     id="path345" />
  <path
     style="fill:none;stroke:#231f20;stroke-width:0.644548;stroke-linecap:round;stroke-linejoin:round;stroke-miterlimit:4;stroke-dasharray:none;stroke-opacity:1"
     d="m 234.54568,5.3349062 c -0.328,0.572 0.792,1.989 0.694,3.957 -0.016,0.402 0.161,0.7349998 0.27,1.0899998 0.468,1.437 1.692,2.468 2.844,-1.1779998 0.156,-0.5 -0.094,-2.588 0.203,-3.317 0.708,-1.719 -0.708,-4.735 -1.219,-4.625 -1.093,0.218 -2.792,4.073 -2.792,4.073 z"
     id="path346" />
  <path
     style="fill:#63c99d;fill-opacity:1;fill-rule:nonzero;stroke:none"
     d="m 239.86368,39.125906 c -0.463,-0.182 -1.182,0.01 -1.182,0.01 0,0 -2.032,7.271 -5.109,7.713 l -0.339,-0.109 c -0.542,-1.124 -0.078,-0.411 -0.354,0.281 -1.703,5.256 -4.828,6.699 -5.855,7.558 -1.411,1.172 -4,0.74 -3.671,2.88 0,0 -0.078,1.942 2.656,2.589 0.995,0.235 2.807,1.687 2.807,1.687 0.005,-0.042 0.011,-0.083 0.027,-0.124 0.192,-0.516 2.202,0.405 2.202,0.405 1.246,0.491 2.052,0.704 2.23,1.271 0.01,0.037 -0.036,0.073 -0.058,0.11 0,0 2.323,0.11 3.219,0.583 1.527,0.808 2.235,0.251 2.235,0.251 1.656,-1.391 0.901,-3.215 0.62,-5.027 -0.21,-1.317 0.582,-2.083 1.672,-5.145 0.249,-0.704 1.894,-6.439 0.738,-5.954 l -0.328,-0.141 c -2.016,-2.375 -0.63,-8.052 -0.63,-8.052 0,0 -0.416,-0.614 -0.88,-0.786"
     id="path347" />
  <path
     style="fill:none;stroke:#231f20;stroke-width:0.565977;stroke-linecap:round;stroke-linejoin:round;stroke-miterlimit:4;stroke-dasharray:none;stroke-opacity:1"
     d="m 239.86368,39.125906 c -0.463,-0.182 -1.182,0.01 -1.182,0.01 0,0 -2.032,7.271 -5.109,7.713 l -0.339,-0.109 c -0.542,-1.124 -0.078,-0.411 -0.354,0.281 -1.703,5.256 -4.828,6.699 -5.855,7.558 -1.411,1.172 -4,0.74 -3.671,2.88 0,0 -0.078,1.942 2.656,2.589 0.995,0.235 2.807,1.687 2.807,1.687 0.005,-0.042 0.011,-0.083 0.027,-0.124 0.192,-0.516 2.202,0.405 2.202,0.405 1.246,0.491 2.052,0.704 2.23,1.271 0.01,0.037 -0.036,0.073 -0.058,0.11 0,0 2.323,0.11 3.219,0.583 1.527,0.808 2.235,0.251 2.235,0.251 1.656,-1.391 0.901,-3.215 0.62,-5.027 -0.21,-1.317 0.582,-2.083 1.672,-5.145 0.249,-0.704 1.894,-6.439 0.738,-5.954 l -0.328,-0.141 c -2.016,-2.375 -0.63,-8.052 -0.63,-8.052 0,0 -0.416,-0.614 -0.88,-0.786 z"
     id="path348" />
  <path
     style="fill:#63c99d;fill-opacity:1;fill-rule:nonzero;stroke:none"
     d="m 242.23368,48.343906 c 0.214,-0.28 0.864,-1.484 1.036,-1.916 1.099,-2.76 1.022,-6.708 1.292,-7.953 0.271,-1.244 -6.317,-1.197 -6.317,-1.197 l -0.48,1.9 c -0.448,-0.438 -0.989,-0.015 -0.989,-0.015 l -0.448,-1.964 c 0,0 -6.459,-0.265 -6.312,0.735 0.202,1.38 0.281,5.999 1.208,8.275 0.51,1.24 1.286,1.916 1.286,1.916 0,0 3.646,-1.082 5.078,-1.077 1.417,0.005 4.646,1.296 4.646,1.296"
     id="path349" />
  <path
     style="fill:none;stroke:#231f20;stroke-width:0.565977;stroke-linecap:butt;stroke-linejoin:miter;stroke-miterlimit:4;stroke-dasharray:none;stroke-opacity:1"
     d="m 242.23368,48.343906 c 0.214,-0.28 0.864,-1.484 1.036,-1.916 1.099,-2.76 1.022,-6.708 1.292,-7.953 0.271,-1.244 -6.317,-1.197 -6.317,-1.197 l -0.48,1.9 c -0.448,-0.438 -0.989,-0.015 -0.989,-0.015 l -0.448,-1.964 c 0,0 -6.459,-0.265 -6.312,0.735 0.202,1.38 0.281,5.999 1.208,8.275 0.51,1.24 1.286,1.916 1.286,1.916 0,0 3.646,-1.082 5.078,-1.077 1.417,0.005 4.646,1.296 4.646,1.296 z"
     id="path350" />
  <path
     style="fill:none;stroke:#231f20;stroke-width:0.565977;stroke-linecap:round;stroke-linejoin:round;stroke-miterlimit:4;stroke-dasharray:none;stroke-opacity:1"
     d="m 240.74368,39.911906 c -1.318,-1.218 -3.255,-0.249 -3.255,-0.249 -1.724,-0.636 -3.14,0.109 -3.14,0.109"
     id="path351" />
</svg>
