<?xml version="1.0" encoding="UTF-8" standalone="no"?>
<!-- Created with Inkscape (http://www.inkscape.org/) -->

<svg
   version="1.1"
   id="svg1"
   width="348.56491"
   height="110.18056"
   viewBox="0 0 348.5649 110.18057"
   sodipodi:docname="cell.svg"
   xmlns:inkscape="http://www.inkscape.org/namespaces/inkscape"
   xmlns:sodipodi="http://sodipodi.sourceforge.net/DTD/sodipodi-0.dtd"
   xmlns="http://www.w3.org/2000/svg"
   xmlns:svg="http://www.w3.org/2000/svg">
  <sodipodi:namedview
     id="namedview1"
     pagecolor="#ffffff"
     bordercolor="#000000"
     borderopacity="0.25"
     inkscape:showpageshadow="2"
     inkscape:pageopacity="0.0"
     inkscape:pagecheckerboard="0"
     inkscape:deskcolor="#d1d1d1">
    <inkscape:page
       x="0"
       y="0"
       inkscape:label="1"
       id="page1"
       width="348.56491"
       height="110.18057"
       margin="0"
       bleed="0" />
  </sodipodi:namedview>
  <defs
     id="defs1" />
  <path
     style="fill:#ffffff;fill-opacity:1;fill-rule:nonzero;stroke:none"
     d="m 154.19693,18.874 h 18.874 V 0 h -18.874 z"
     id="path515" />
  <path
     style="fill:#ffffff;fill-opacity:1;fill-rule:nonzero;stroke:none"
     d="m 331.63893,18.874 h 16.926 V 0 h -16.926 z"
     id="path517" />
  <path
     style="fill:#63c99d;fill-opacity:1;fill-rule:nonzero;stroke:none"
     d="m 180.64993,84.442 c 3.135,-0.068 3.801,-0.421 4.64,-0.801 5.271,-2.387 6.339,0.249 5.876,3.093 -0.537,3.35 -0.667,4.563 -6.943,4.099 -1.75,-0.135 -8.51,0.24 -8.51,0.24 -2.407,0.459 -4.995,-0.371 -5.839,-1.552 -0.885,-1.256 -0.443,-0.823 -1.052,-2.131 -0.584,-1.249 -0.375,-3.426 0.64,-4.13 0.975,-0.682 2.489,0.005 4.808,0.714 1.833,0.552 6.38,0.468 6.38,0.468"
     id="path518" />
  <path
     style="fill:none;stroke:#231f20;stroke-width:0.565977;stroke-linecap:butt;stroke-linejoin:miter;stroke-miterlimit:4;stroke-dasharray:none;stroke-opacity:1"
     d="m 180.64993,84.442 c 3.135,-0.068 3.801,-0.421 4.64,-0.801 5.271,-2.387 6.339,0.249 5.876,3.093 -0.537,3.35 -0.667,4.563 -6.943,4.099 -1.75,-0.135 -8.51,0.24 -8.51,0.24 -2.407,0.459 -4.995,-0.371 -5.839,-1.552 -0.885,-1.256 -0.443,-0.823 -1.052,-2.131 -0.584,-1.249 -0.375,-3.426 0.64,-4.13 0.975,-0.682 2.489,0.005 4.808,0.714 1.833,0.552 6.38,0.468 6.38,0.468 z"
     id="path519" />
  <path
     style="fill:#ffffff;fill-opacity:1;fill-rule:nonzero;stroke:none"
     d="m 161.57693,87.469 c -0.239,-0.068 -0.828,0.921 -1.292,0.692 -0.474,-0.235 -0.307,-1.011 -1.542,-2.568 l -0.01,-0.02 c -0.938,-1.115 -1.302,-2.459 -0.839,-3.62 0.777,-1.927 3.527,-2.631 6.147,-1.588 2.625,1.057 4.12,3.468 3.349,5.395 -0.74,1.844 -3.297,2.578 -5.813,1.709"
     id="path520" />
  <path
     style="fill:none;stroke:#231f20;stroke-width:0.565977;stroke-linecap:butt;stroke-linejoin:miter;stroke-miterlimit:4;stroke-dasharray:none;stroke-opacity:1"
     d="m 161.57693,87.469 c -0.239,-0.068 -0.828,0.921 -1.292,0.692 -0.474,-0.235 -0.307,-1.011 -1.542,-2.568 l -0.01,-0.02 c -0.938,-1.115 -1.302,-2.459 -0.839,-3.62 0.777,-1.927 3.527,-2.631 6.147,-1.588 2.625,1.057 4.12,3.468 3.349,5.395 -0.74,1.844 -3.297,2.578 -5.813,1.709 z"
     id="path521" />
  <path
     style="fill:#231f20;fill-opacity:1;fill-rule:nonzero;stroke:none"
     d="m 225.01393,84.808 c -0.839,-1.058 -1.791,-0.762 -2.339,0.118 -0.171,0.262 -0.577,0.314 -0.724,0.584 -0.323,0.626 0.267,2.266 1.761,2.131 0.104,-0.011 0.902,0.161 1.526,0.197 1.209,0.068 3.661,-0.374 5.177,-2.609 0.719,-1.052 -0.036,-1.281 -0.464,-0.943 -1.323,1.074 -1.651,0.912 -2.109,1.063 -1.531,0.536 -2.828,-0.541 -2.828,-0.541"
     id="path522" />
  <path
     style="fill:none;stroke:#231f20;stroke-width:0.332927;stroke-linecap:butt;stroke-linejoin:miter;stroke-miterlimit:4;stroke-dasharray:none;stroke-opacity:1"
     d="m 225.01393,84.808 c -0.839,-1.058 -1.791,-0.762 -2.339,0.118 -0.171,0.262 -0.577,0.314 -0.724,0.584 -0.323,0.626 0.267,2.266 1.761,2.131 0.104,-0.011 0.902,0.161 1.526,0.197 1.209,0.068 3.661,-0.374 5.177,-2.609 0.719,-1.052 -0.036,-1.281 -0.464,-0.943 -1.323,1.074 -1.651,0.912 -2.109,1.063 -1.531,0.536 -2.828,-0.541 -2.828,-0.541 z"
     id="path523" />
  <path
     style="fill:#231f20;fill-opacity:1;fill-rule:nonzero;stroke:none"
     d="m 205.87893,86.51 c -0.308,-2.25 -0.062,-2.724 0.88,-2.912 0.631,-0.134 1.162,-0.462 1.531,-0.557 1.261,-0.328 3.51,-0.348 9.896,1.256 1.442,0.364 3.48,0.853 4.328,0.995 1.338,0.218 0.073,2.296 -0.458,2.218 -1.693,-0.26 -2.876,-0.292 -3.5,-0.302 -0.428,-0.006 -1.177,-0.119 -2.833,0.073 -2.511,0.297 -3.975,0.849 -6.095,0.844 -0.978,0.005 -1.713,0.625 -2.677,0.129 -0.973,-0.484 -1.072,-1.744 -1.072,-1.744"
     id="path524" />
  <path
     style="fill:none;stroke:#231f20;stroke-width:0.565977;stroke-linecap:butt;stroke-linejoin:miter;stroke-miterlimit:4;stroke-dasharray:none;stroke-opacity:1"
     d="m 205.87893,86.51 c -0.308,-2.25 -0.062,-2.724 0.88,-2.912 0.631,-0.134 1.162,-0.462 1.531,-0.557 1.261,-0.328 3.51,-0.348 9.896,1.256 1.442,0.364 3.48,0.853 4.328,0.995 1.338,0.218 0.073,2.296 -0.458,2.218 -1.693,-0.26 -2.876,-0.292 -3.5,-0.302 -0.428,-0.006 -1.177,-0.119 -2.833,0.073 -2.511,0.297 -3.975,0.849 -6.095,0.844 -0.978,0.005 -1.713,0.625 -2.677,0.129 -0.973,-0.484 -1.072,-1.744 -1.072,-1.744 z"
     id="path525" />
  <path
     style="fill:#231f20;fill-opacity:1;fill-rule:nonzero;stroke:#231f20;stroke-width:0.565977;stroke-linecap:round;stroke-linejoin:round;stroke-miterlimit:4;stroke-dasharray:none;stroke-opacity:1"
     d="m 207.93693,87.932 c -0.866,1.125 -2.964,0.646 -3.298,0.724 -4.885,1.125 -5.26,1.078 -9.036,1.677 -5.464,0.855 -9.333,0.609 -10.765,-2.421 -0.964,-2.063 -0.631,-3.662 0.271,-4.626 1,-1.062 3.994,-2.12 6.265,-0.322 l 1.703,0.186 c 1.166,-0.014 1.74,-0.014 2.308,-0.061 0.994,-0.1 2.072,-0.131 4.025,-0.209 3.475,-0.124 7.183,0.87 7.183,0.87 0.312,0 0.573,0.115 0.776,0.286"
     id="path526" />
  <path
     style="fill:#63c99d;fill-opacity:1;fill-rule:nonzero;stroke:#231f20;stroke-width:0.565977;stroke-linecap:butt;stroke-linejoin:miter;stroke-miterlimit:4;stroke-dasharray:none;stroke-opacity:1"
     d="m 191.28493,82.937 c -2.334,-1.708 -5.291,-0.541 -6.25,0.557 -0.864,0.995 -1.13,2.615 -0.093,4.631 1.213,2.349 3.891,2.911 7.635,2.52 z"
     id="path527" />
  <path
     style="fill:#231f20;fill-opacity:1;fill-rule:nonzero;stroke:none"
     d="m 178.34193,106.885 c -0.531,-0.359 -1.047,-2.24 -2.025,-3.516 -0.667,-0.859 -1.312,-3.525 -2.036,-4.328 -0.667,-0.739 -0.902,-1.14 -0.188,-2.047 0.421,-0.536 1.588,-1.292 2,-0.994 0.969,0.693 1.464,1.5 1.812,2.51 0.406,1.146 1.213,4.359 1.313,4.964 0.229,1.504 0.771,2.004 0.869,2.395 0.188,0.74 -0.052,0.996 -0.5,1.22 -0.858,0.432 -1.245,-0.204 -1.245,-0.204"
     id="path528" />
  <path
     style="fill:none;stroke:#231f20;stroke-width:0.565977;stroke-linecap:butt;stroke-linejoin:miter;stroke-miterlimit:4;stroke-dasharray:none;stroke-opacity:1"
     d="m 178.34193,106.885 c -0.531,-0.359 -1.047,-2.24 -2.025,-3.516 -0.667,-0.859 -1.312,-3.525 -2.036,-4.328 -0.667,-0.739 -0.902,-1.14 -0.188,-2.047 0.421,-0.536 1.588,-1.292 2,-0.994 0.969,0.693 1.464,1.5 1.812,2.51 0.406,1.146 1.213,4.359 1.313,4.964 0.229,1.504 0.771,2.004 0.869,2.395 0.188,0.74 -0.052,0.996 -0.5,1.22 -0.858,0.432 -1.245,-0.204 -1.245,-0.204 z"
     id="path529" />
  <path
     style="fill:#231f20;fill-opacity:1;fill-rule:nonzero;stroke:none"
     d="m 174.54593,97.776 c -1.24,0.38 -1.469,-1.646 -1.609,-2.162 -0.142,-0.525 -0.714,-1.973 -1.314,-3.041 -0.593,-1.073 -0.874,-2.667 -1.994,-4.699 -0.594,-1.072 -0.49,-2.489 1.1,-3.276 1.572,-0.786 2.604,-0.192 3.124,1.21 0.516,1.405 0.412,2.942 0.838,4.39 0.423,1.452 0.99,2.891 1.49,4 0.568,1.26 0.385,2.094 0.057,2.443 -0.812,0.88 -1.692,1.135 -1.692,1.135"
     id="path530" />
  <path
     style="fill:none;stroke:#231f20;stroke-width:0.565977;stroke-linecap:butt;stroke-linejoin:miter;stroke-miterlimit:4;stroke-dasharray:none;stroke-opacity:1"
     d="m 174.54593,97.776 c -1.24,0.38 -1.469,-1.646 -1.609,-2.162 -0.142,-0.525 -0.714,-1.973 -1.314,-3.041 -0.593,-1.073 -0.874,-2.667 -1.994,-4.699 -0.594,-1.072 -0.49,-2.489 1.1,-3.276 1.572,-0.786 2.604,-0.192 3.124,1.21 0.516,1.405 0.412,2.942 0.838,4.39 0.423,1.452 0.99,2.891 1.49,4 0.568,1.26 0.385,2.094 0.057,2.443 -0.812,0.88 -1.692,1.135 -1.692,1.135 z"
     id="path531" />
  <path
     style="fill:#ffffff;fill-opacity:1;fill-rule:nonzero;stroke:none"
     d="m 0.3329281,108.494 c 0,0.688 0.552,1.245 1.233,1.245 H 337.01893 c 0.683,0 1.24,-0.557 1.24,-1.245 0,-0.683 -0.557,-1.235 -1.24,-1.235 H 1.5659281 c -0.681,0 -1.233,0.552 -1.233,1.235"
     id="path532" />
  <path
     style="fill:none;stroke:#231f20;stroke-width:0.665856;stroke-linecap:butt;stroke-linejoin:miter;stroke-miterlimit:4;stroke-dasharray:none;stroke-opacity:1"
     d="m 0.3329281,108.494 c 0,0.688 0.552,1.245 1.233,1.245 H 337.01893 c 0.683,0 1.24,-0.557 1.24,-1.245 0,-0.683 -0.557,-1.235 -1.24,-1.235 H 1.5659281 c -0.681,0 -1.233,0.552 -1.233,1.235 z"
     id="path533" />
  <path
     style="fill:#231f20;fill-opacity:1;fill-rule:nonzero;stroke:none"
     d="m 182.06593,107.499 c 0.303,1.136 -0.369,2.308 -1.509,2.61 -1.142,0.302 -2.308,-0.38 -2.61,-1.516 -0.302,-1.135 0.375,-2.307 1.515,-2.61 1.136,-0.301 2.303,0.382 2.604,1.516"
     id="path534" />
</svg>
