<?xml version="1.0" encoding="UTF-8" standalone="no"?>
<!-- Created with Inkscape (http://www.inkscape.org/) -->

<svg
   version="1.1"
   id="svg1"
   width="360.46881"
   height="166.89546"
   viewBox="0 0 360.4688 166.89546"
   sodipodi:docname="cell.svg"
   xmlns:inkscape="http://www.inkscape.org/namespaces/inkscape"
   xmlns:sodipodi="http://sodipodi.sourceforge.net/DTD/sodipodi-0.dtd"
   xmlns="http://www.w3.org/2000/svg"
   xmlns:svg="http://www.w3.org/2000/svg">
  <sodipodi:namedview
     id="namedview1"
     pagecolor="#ffffff"
     bordercolor="#000000"
     borderopacity="0.25"
     inkscape:showpageshadow="2"
     inkscape:pageopacity="0.0"
     inkscape:pagecheckerboard="0"
     inkscape:deskcolor="#d1d1d1">
    <inkscape:page
       x="0"
       y="0"
       inkscape:label="1"
       id="page1"
       width="360.46881"
       height="166.89546"
       margin="0"
       bleed="0" />
  </sodipodi:namedview>
  <defs
     id="defs1" />
  <path
     style="fill:#ffffff;fill-opacity:1;fill-rule:nonzero;stroke:none"
     d="m 166.0998,18.875 h 18.875 V 0 h -18.875 z"
     id="path148" />
  <path
     style="fill:#ffffff;fill-opacity:1;fill-rule:nonzero;stroke:none"
     d="M -1.4269758e-8,18.875 H 18.875 V 0 H -1.4269758e-8 Z"
     id="path149" />
  <path
     style="fill:#ffffff;fill-opacity:1;fill-rule:nonzero;stroke:none"
     d="m 343.5418,18.875 h 16.927 V 0 h -16.927 z"
     id="path150" />
  <path
     style="fill:none;stroke:#231f20;stroke-width:0.399514;stroke-linecap:butt;stroke-linejoin:miter;stroke-miterlimit:4;stroke-dasharray:none;stroke-opacity:1"
     d="m 129.4798,113.688 c -16.855,20.437 -48.48,7.046 -53.7666,2.062"
     id="path151" />
  <path
     style="fill:#231f20;fill-opacity:1;fill-rule:nonzero;stroke:none"
     d="m 74.8331,114.926 c 0.5631,0.235 1.3188,0.459 1.8964,0.48 l -0.9016,0.454 -0.4,0.926 c -0.0573,-0.573 -0.324,-1.317 -0.5948,-1.86"
     id="path152" />
  <path
     style="fill:#63c99d;fill-opacity:1;fill-rule:nonzero;stroke:none"
     d="m 86.1928,89.287 c 1.692,2.636 2.35,3.016 3.115,3.53 4.782,3.246 3.099,5.537 0.432,6.631 -3.136,1.292 -4.24,1.812 -7.12,-3.776 -0.807,-1.563 -4.6664,-7.125 -4.6664,-7.125 -1.6511,-1.807 -2.3015,-4.448 -1.7296,-5.787 0.6093,-1.416 0.4692,-0.812 1.2656,-2.015 0.7557,-1.146 2.7194,-2.109 3.8544,-1.614 1.089,0.473 1.298,2.125 1.912,4.468 0.484,1.854 2.937,5.688 2.937,5.688"
     id="path153" />
  <path
     style="fill:none;stroke:#231f20;stroke-width:0.565977;stroke-linecap:butt;stroke-linejoin:miter;stroke-miterlimit:4;stroke-dasharray:none;stroke-opacity:1"
     d="m 86.1928,89.287 c 1.692,2.636 2.35,3.016 3.115,3.53 4.782,3.246 3.099,5.537 0.432,6.631 -3.136,1.292 -4.24,1.812 -7.12,-3.776 -0.807,-1.563 -4.6664,-7.125 -4.6664,-7.125 -1.6511,-1.807 -2.3015,-4.448 -1.7296,-5.787 0.6093,-1.416 0.4692,-0.812 1.2656,-2.015 0.7557,-1.146 2.7194,-2.109 3.8544,-1.614 1.089,0.473 1.298,2.125 1.912,4.468 0.484,1.854 2.937,5.688 2.937,5.688 z"
     id="path154" />
  <path
     style="fill:#231f20;fill-opacity:1;fill-rule:nonzero;stroke:none"
     d="m 97.5058,112.469 c 1.775,-1.407 2.313,-1.437 2.953,-0.724 0.432,0.473 0.984,0.76 1.26,1.036 0.917,0.921 2.078,2.849 3.942,9.161 0.418,1.432 1.027,3.438 1.345,4.235 0.483,1.265 -1.949,1.229 -2.146,0.735 -0.641,-1.59 -1.213,-2.631 -1.521,-3.167 -0.214,-0.376 -0.495,-1.079 -1.511,-2.407 -1.52,-2.016 -2.738,-2.989 -3.807,-4.817 -0.505,-0.849 -1.417,-1.161 -1.478,-2.24 -0.079,-1.088 0.963,-1.812 0.963,-1.812"
     id="path155" />
  <path
     style="fill:none;stroke:#231f20;stroke-width:0.565977;stroke-linecap:butt;stroke-linejoin:miter;stroke-miterlimit:4;stroke-dasharray:none;stroke-opacity:1"
     d="m 97.5058,112.469 c 1.775,-1.407 2.313,-1.437 2.953,-0.724 0.432,0.473 0.984,0.76 1.26,1.036 0.917,0.921 2.078,2.849 3.942,9.161 0.418,1.432 1.027,3.438 1.345,4.235 0.483,1.265 -1.949,1.229 -2.146,0.735 -0.641,-1.59 -1.213,-2.631 -1.521,-3.167 -0.214,-0.376 -0.495,-1.079 -1.511,-2.407 -1.52,-2.016 -2.738,-2.989 -3.807,-4.817 -0.505,-0.849 -1.417,-1.161 -1.478,-2.24 -0.079,-1.088 0.963,-1.812 0.963,-1.812 z"
     id="path156" />
  <path
     style="fill:#231f20;fill-opacity:1;fill-rule:nonzero;stroke:#231f20;stroke-width:0.565977;stroke-linecap:round;stroke-linejoin:round;stroke-miterlimit:4;stroke-dasharray:none;stroke-opacity:1"
     d="m 97.3228,114.964 c -1.411,-0.172 -2.067,-2.224 -2.302,-2.47 -3.448,-3.64 -3.603,-3.989 -6.031,-6.937 -3.51,-4.271 -5.266,-7.729 -3.381,-10.5 1.282,-1.88 2.834,-2.406 4.121,-2.12 1.422,0.323 3.849,2.371 3.458,5.235 l 0.703,1.562 c 0.599,0.995 0.89,1.49 1.229,1.959 0.589,0.807 1.167,1.713 2.224,3.359 1.869,2.932 2.896,6.63 2.896,6.63 0.161,0.266 0.193,0.547 0.151,0.812"
     id="path157" />
  <path
     style="fill:#63c99d;fill-opacity:1;fill-rule:nonzero;stroke:#231f20;stroke-width:0.565977;stroke-linecap:butt;stroke-linejoin:miter;stroke-miterlimit:4;stroke-dasharray:none;stroke-opacity:1"
     d="m 93.1038,98.068 c 0.287,-2.875 -2.224,-4.828 -3.65,-5.099 -1.302,-0.234 -2.829,0.354 -4.036,2.276 -0.787,1.25 -0.839,2.609 -0.361,4.093 0.085,1.031 0.173,1.651 0.861,2.079 0.057,0.036 0.119,0.088 0.177,0.135 0.307,0.505 0.635,1.016 1.03,1.546 z"
     id="path158" />
  <path
     style="fill:#ffffff;fill-opacity:1;fill-rule:nonzero;stroke:none"
     d="m 15.428,104.078 c 0,0.687 0.552,1.239 1.2386,1.239 h 335.4472 c 0.688,0 1.24,-0.552 1.24,-1.239 0,-0.682 -0.552,-1.24 -1.24,-1.24 H 16.6666 c -0.6866,0 -1.2386,0.558 -1.2386,1.24"
     id="path159" />
  <path
     style="fill:none;stroke:#231f20;stroke-width:0.665856;stroke-linecap:butt;stroke-linejoin:miter;stroke-miterlimit:4;stroke-dasharray:none;stroke-opacity:1"
     d="m 15.428,104.078 c 0,0.687 0.552,1.239 1.2386,1.239 h 335.4472 c 0.688,0 1.24,-0.552 1.24,-1.239 0,-0.682 -0.552,-1.24 -1.24,-1.24 H 16.6666 c -0.6866,0 -1.2386,0.558 -1.2386,1.24 z"
     id="path160" />
  <path
     style="fill:#231f20;fill-opacity:1;fill-rule:nonzero;stroke:none"
     d="m 322.0668,87.229 c 0.088,0.73 1.542,3.636 1.907,4.282 0.317,0.582 0.536,1.718 1.687,1.645 0.469,-0.025 1.13,-0.391 1.354,-0.62 0.188,-0.181 0.126,-0.504 -0.098,-0.833 -0.38,-0.552 -0.699,-0.562 -1.475,-1.572 0,0 -0.219,-0.208 -0.645,-0.563 -1.24,-1.063 -0.792,-0.48 -2.251,-2.412 -0.099,-0.135 -0.312,-0.135 -0.395,-0.063 -0.136,0.126 -0.084,0.136 -0.084,0.136"
     id="path161" />
  <path
     style="fill:none;stroke:#231f20;stroke-width:0.565977;stroke-linecap:round;stroke-linejoin:round;stroke-miterlimit:4;stroke-dasharray:none;stroke-opacity:1"
     d="m 322.0668,87.229 c 0.088,0.73 1.542,3.636 1.907,4.282 0.317,0.582 0.536,1.718 1.687,1.645 0.469,-0.025 1.13,-0.391 1.354,-0.62 0.188,-0.181 0.126,-0.504 -0.098,-0.833 -0.38,-0.552 -0.699,-0.562 -1.475,-1.572 0,0 -0.219,-0.208 -0.645,-0.563 -1.24,-1.063 -0.792,-0.48 -2.251,-2.412 -0.099,-0.135 -0.312,-0.135 -0.395,-0.063 -0.136,0.126 -0.084,0.136 -0.084,0.136 z"
     id="path162" />
  <path
     style="fill:#231f20;fill-opacity:1;fill-rule:nonzero;stroke:none"
     d="m 336.7088,145.885 c -2.246,-0.301 -2.724,-0.063 -2.912,0.88 -0.131,0.631 -0.464,1.161 -0.558,1.537 -0.317,1.26 -0.333,3.506 1.276,9.891 0.37,1.443 0.87,3.479 1.006,4.328 0.224,1.339 2.297,0.068 2.213,-0.459 -0.255,-1.697 -0.297,-2.88 -0.301,-3.5 -0.006,-0.432 -0.12,-1.182 0.066,-2.838 0.292,-2.516 0.839,-3.97 0.834,-6.088 0,-0.98 0.625,-1.724 0.125,-2.683 -0.489,-0.975 -1.749,-1.068 -1.749,-1.068"
     id="path163" />
  <path
     style="fill:none;stroke:#231f20;stroke-width:0.565977;stroke-linecap:butt;stroke-linejoin:miter;stroke-miterlimit:4;stroke-dasharray:none;stroke-opacity:1"
     d="m 336.7088,145.885 c -2.246,-0.301 -2.724,-0.063 -2.912,0.88 -0.131,0.631 -0.464,1.161 -0.558,1.537 -0.317,1.26 -0.333,3.506 1.276,9.891 0.37,1.443 0.87,3.479 1.006,4.328 0.224,1.339 2.297,0.068 2.213,-0.459 -0.255,-1.697 -0.297,-2.88 -0.301,-3.5 -0.006,-0.432 -0.12,-1.182 0.066,-2.838 0.292,-2.516 0.839,-3.97 0.834,-6.088 0,-0.98 0.625,-1.724 0.125,-2.683 -0.489,-0.975 -1.749,-1.068 -1.749,-1.068 z"
     id="path164" />
  <path
     style="fill:#63c99d;fill-opacity:1;fill-rule:nonzero;stroke:none"
     d="m 333.8218,119.917 c -0.052,3.135 -0.4,3.801 -0.78,4.64 -2.355,5.281 0.28,6.339 3.124,5.864 3.344,-0.556 4.557,-0.687 4.063,-6.968 -0.14,-1.745 0.208,-8.505 0.208,-8.505 0.453,-2.407 -0.391,-4.99 -1.588,-5.828 -1.251,-0.886 -0.818,-0.443 -2.126,-1.047 -1.254,-0.579 -3.426,-0.365 -4.129,0.656 -0.677,0.973 0.02,2.495 0.733,4.807 0.563,1.829 0.495,6.381 0.495,6.381"
     id="path165" />
  <path
     style="fill:none;stroke:#231f20;stroke-width:0.565977;stroke-linecap:butt;stroke-linejoin:miter;stroke-miterlimit:4;stroke-dasharray:none;stroke-opacity:1"
     d="m 333.8218,119.917 c -0.052,3.135 -0.4,3.801 -0.78,4.64 -2.355,5.281 0.28,6.339 3.124,5.864 3.344,-0.556 4.557,-0.687 4.063,-6.968 -0.14,-1.745 0.208,-8.505 0.208,-8.505 0.453,-2.407 -0.391,-4.99 -1.588,-5.828 -1.251,-0.886 -0.818,-0.443 -2.126,-1.047 -1.254,-0.579 -3.426,-0.365 -4.129,0.656 -0.677,0.973 0.02,2.495 0.733,4.807 0.563,1.829 0.495,6.381 0.495,6.381 z"
     id="path166" />
  <path
     style="fill:#ffffff;fill-opacity:1;fill-rule:nonzero;stroke:none"
     d="m 339.6028,102.645 c 0.063,-0.239 1.215,-0.239 1.251,-0.76 0.036,-0.525 -0.708,-0.776 -1.427,-2.635 l -0.01,-0.016 c -0.475,-1.374 -1.448,-2.374 -2.683,-2.562 -2.057,-0.317 -4.063,1.693 -4.495,4.484 -0.432,2.792 0.886,5.308 2.938,5.625 1.964,0.307 3.896,-1.525 4.426,-4.136"
     id="path167" />
  <path
     style="fill:none;stroke:#231f20;stroke-width:0.565977;stroke-linecap:butt;stroke-linejoin:miter;stroke-miterlimit:4;stroke-dasharray:none;stroke-opacity:1"
     d="m 339.6028,102.645 c 0.063,-0.239 1.215,-0.239 1.251,-0.76 0.036,-0.525 -0.708,-0.776 -1.427,-2.635 l -0.01,-0.016 c -0.475,-1.374 -1.448,-2.374 -2.683,-2.562 -2.057,-0.317 -4.063,1.693 -4.495,4.484 -0.432,2.792 0.886,5.308 2.938,5.625 1.964,0.307 3.896,-1.525 4.426,-4.136 z"
     id="path168" />
  <path
     style="fill:#231f20;fill-opacity:1;fill-rule:nonzero;stroke:none"
     d="m 335.8268,148.193 c 3.912,0.875 2.923,-3.084 3.027,-3.552 1.115,-4.887 1.073,-5.261 1.661,-9.043 0.844,-5.462 0.588,-9.333 -2.442,-10.749 -2.058,-0.969 -3.667,-0.631 -4.626,0.271 -1.057,1 -2.109,4 -0.312,6.265 l 0.198,1.703 c -0.015,1.157 -0.015,1.734 -0.068,2.308 -0.088,1 -0.124,2.073 -0.192,4.03 -0.126,3.47 0.885,7.183 0.885,7.183 -0.016,1.24 1.869,1.584 1.869,1.584"
     id="path169" />
  <path
     style="fill:none;stroke:#231f20;stroke-width:0.565977;stroke-linecap:butt;stroke-linejoin:miter;stroke-miterlimit:4;stroke-dasharray:none;stroke-opacity:1"
     d="m 335.8268,148.193 c 3.912,0.875 2.923,-3.084 3.027,-3.552 1.115,-4.887 1.073,-5.261 1.661,-9.043 0.844,-5.462 0.588,-9.333 -2.442,-10.749 -2.058,-0.969 -3.667,-0.631 -4.626,0.271 -1.057,1 -2.109,4 -0.312,6.265 l 0.198,1.703 c -0.015,1.157 -0.015,1.734 -0.068,2.308 -0.088,1 -0.124,2.073 -0.192,4.03 -0.126,3.47 0.885,7.183 0.885,7.183 -0.016,1.24 1.869,1.584 1.869,1.584 z"
     id="path170" />
  <path
     style="fill:#63c99d;fill-opacity:1;fill-rule:nonzero;stroke:none"
     d="m 340.6028,127.698 c -0.478,-1.48 -1.317,-2.553 -2.686,-3.105 -2.104,-0.853 -3.688,-0.432 -4.599,0.521 -1.005,1.058 -1.896,4.115 0.02,6.271 l 7.792,0.573 c 0.005,-0.656 -0.021,-1.26 -0.068,-1.844 0.016,-0.078 0.037,-0.156 0.068,-0.224 0.303,-0.745 0.005,-1.301 -0.527,-2.192"
     id="path171" />
  <path
     style="fill:none;stroke:#231f20;stroke-width:0.565977;stroke-linecap:butt;stroke-linejoin:miter;stroke-miterlimit:4;stroke-dasharray:none;stroke-opacity:1"
     d="m 340.6028,127.698 c -0.478,-1.48 -1.317,-2.553 -2.686,-3.105 -2.104,-0.853 -3.688,-0.432 -4.599,0.521 -1.005,1.058 -1.896,4.115 0.02,6.271 l 7.792,0.573 c 0.005,-0.656 -0.021,-1.26 -0.068,-1.844 0.016,-0.078 0.037,-0.156 0.068,-0.224 0.303,-0.745 0.005,-1.301 -0.527,-2.192 z"
     id="path172" />
  <path
     style="fill:#231f20;fill-opacity:1;fill-rule:nonzero;stroke:none"
     d="m 326.2968,92.183 c 0.573,0.292 1.297,2.098 2.421,3.249 0.756,0.776 1.709,3.354 2.521,4.073 0.746,0.656 1.022,1.027 0.416,2.005 -0.353,0.578 -1.421,1.468 -1.869,1.219 -1.041,-0.573 -1.625,-1.317 -2.088,-2.281 -0.532,-1.094 -1.709,-4.188 -1.876,-4.781 -0.4,-1.464 -1,-1.902 -1.145,-2.282 -0.271,-0.713 -0.063,-0.989 0.36,-1.265 0.801,-0.521 1.26,0.063 1.26,0.063"
     id="path173" />
  <path
     style="fill:none;stroke:#231f20;stroke-width:0.565977;stroke-linecap:butt;stroke-linejoin:miter;stroke-miterlimit:4;stroke-dasharray:none;stroke-opacity:1"
     d="m 326.2968,92.183 c 0.573,0.292 1.297,2.098 2.421,3.249 0.756,0.776 1.709,3.354 2.521,4.073 0.746,0.656 1.022,1.027 0.416,2.005 -0.353,0.578 -1.421,1.468 -1.869,1.219 -1.041,-0.573 -1.625,-1.317 -2.088,-2.281 -0.532,-1.094 -1.709,-4.188 -1.876,-4.781 -0.4,-1.464 -1,-1.902 -1.145,-2.282 -0.271,-0.713 -0.063,-0.989 0.36,-1.265 0.801,-0.521 1.26,0.063 1.26,0.063 z"
     id="path174" />
  <path
     style="fill:#231f20;fill-opacity:1;fill-rule:nonzero;stroke:none"
     d="m 330.8218,100.032 c 1.188,-0.522 1.647,1.462 1.849,1.962 0.204,0.506 0.943,1.875 1.656,2.871 0.71,0.995 1.178,2.541 2.527,4.437 0.713,0.99 0.776,2.411 -0.713,3.38 -1.47,0.959 -2.563,0.49 -3.24,-0.844 -0.683,-1.333 -0.755,-2.874 -1.35,-4.265 -0.582,-1.391 -1.317,-2.756 -1.937,-3.797 -0.713,-1.187 -0.625,-2.036 -0.339,-2.427 0.704,-0.964 1.547,-1.317 1.547,-1.317"
     id="path175" />
  <path
     style="fill:none;stroke:#231f20;stroke-width:0.565977;stroke-linecap:butt;stroke-linejoin:miter;stroke-miterlimit:4;stroke-dasharray:none;stroke-opacity:1"
     d="m 330.8218,100.032 c 1.188,-0.522 1.647,1.462 1.849,1.962 0.204,0.506 0.943,1.875 1.656,2.871 0.71,0.995 1.178,2.541 2.527,4.437 0.713,0.99 0.776,2.411 -0.713,3.38 -1.47,0.959 -2.563,0.49 -3.24,-0.844 -0.683,-1.333 -0.755,-2.874 -1.35,-4.265 -0.582,-1.391 -1.317,-2.756 -1.937,-3.797 -0.713,-1.187 -0.625,-2.036 -0.339,-2.427 0.704,-0.964 1.547,-1.317 1.547,-1.317 z"
     id="path176" />
  <path
     style="fill:#231f20;fill-opacity:1;fill-rule:nonzero;stroke:none"
     d="m 335.9308,166.234 c -1.077,-0.073 -0.801,-1.297 -0.552,-2.5 0.068,-0.302 0.1,-0.589 0.188,-0.88 0.355,-1.172 1.178,-1.818 3.104,0.474 0.068,0.089 1.896,1.297 2.464,1.546 2.73,1.21 2.964,0.402 2.73,1.21 -0.162,0.536 -0.667,0.536 -1.298,0.525 -0.854,-0.016 -3.858,-0.323 -4.322,-0.344 -0.454,-0.015 -2.314,-0.031 -2.314,-0.031"
     id="path177" />
  <path
     style="fill:none;stroke:#231f20;stroke-width:0.565977;stroke-linecap:butt;stroke-linejoin:miter;stroke-miterlimit:4;stroke-dasharray:none;stroke-opacity:1"
     d="m 335.9308,166.234 c -1.077,-0.073 -0.801,-1.297 -0.552,-2.5 0.068,-0.302 0.1,-0.589 0.188,-0.88 0.355,-1.172 1.178,-1.818 3.104,0.474 0.068,0.089 1.896,1.297 2.464,1.546 2.73,1.21 2.964,0.402 2.73,1.21 -0.162,0.536 -0.667,0.536 -1.298,0.525 -0.854,-0.016 -3.858,-0.323 -4.322,-0.344 -0.454,-0.015 -2.314,-0.031 -2.314,-0.031 z"
     id="path178" />
  <path
     style="fill:#231f20;fill-opacity:1;fill-rule:nonzero;stroke:none"
     d="m 271.0938,37.385 c -1.062,-0.744 -1.906,1.115 -2.193,1.563 -0.303,0.459 -1.287,1.667 -2.183,2.5 -0.89,0.844 -1.645,2.265 -3.338,3.864 -0.891,0.839 -1.224,2.22 0.053,3.453 1.26,1.23 2.421,0.98 3.343,-0.197 0.928,-1.177 1.292,-2.677 2.141,-3.927 0.844,-1.25 1.823,-2.448 2.64,-3.349 0.928,-1.027 1.005,-1.88 0.797,-2.308 -0.5,-1.088 -1.26,-1.599 -1.26,-1.599"
     id="path180" />
  <path
     style="fill:none;stroke:#231f20;stroke-width:0.565977;stroke-linecap:butt;stroke-linejoin:miter;stroke-miterlimit:4;stroke-dasharray:none;stroke-opacity:1"
     d="m 271.0938,37.385 c -1.062,-0.744 -1.906,1.115 -2.193,1.563 -0.303,0.459 -1.287,1.667 -2.183,2.5 -0.89,0.844 -1.645,2.265 -3.338,3.864 -0.891,0.839 -1.224,2.22 0.053,3.453 1.26,1.23 2.421,0.98 3.343,-0.197 0.928,-1.177 1.292,-2.677 2.141,-3.927 0.844,-1.25 1.823,-2.448 2.64,-3.349 0.928,-1.027 1.005,-1.88 0.797,-2.308 -0.5,-1.088 -1.26,-1.599 -1.26,-1.599 z"
     id="path181" />
  <path
     style="fill:#ffffff;fill-opacity:1;fill-rule:nonzero;stroke:none"
     d="m 73.3227,74.073 c -0.0469,-0.24 -1.1923,-0.328 -1.1923,-0.849 0,-0.525 0.7658,-0.724 1.6147,-2.521 l 0.0109,-0.026 c 0.5719,-1.333 1.6094,-2.256 2.864,-2.36 2.0678,-0.172 3.9318,1.98 4.1608,4.792 0.23,2.823 -1.2701,5.235 -3.3384,5.407 -1.9786,0.167 -3.776,-1.803 -4.1197,-4.443"
     id="path182" />
  <path
     style="fill:none;stroke:#231f20;stroke-width:0.565977;stroke-linecap:butt;stroke-linejoin:miter;stroke-miterlimit:4;stroke-dasharray:none;stroke-opacity:1"
     d="m 73.3227,74.073 c -0.0469,-0.24 -1.1923,-0.328 -1.1923,-0.849 0,-0.525 0.7658,-0.724 1.6147,-2.521 l 0.0109,-0.026 c 0.5719,-1.333 1.6094,-2.256 2.864,-2.36 2.0678,-0.172 3.9318,1.98 4.1608,4.792 0.23,2.823 -1.2701,5.235 -3.3384,5.407 -1.9786,0.167 -3.776,-1.803 -4.1197,-4.443 z"
     id="path183" />
  <path
     style="fill:#231f20;fill-opacity:1;fill-rule:nonzero;stroke:none"
     d="m 84.0318,101.593 c 0.291,-0.572 -0.177,-2.468 0.063,-4.057 0.161,-1.072 -0.579,-3.713 -0.334,-4.771 0.219,-0.968 0.229,-1.437 -0.833,-1.874 -0.636,-0.26 -2.021,-0.359 -2.235,0.104 -0.505,1.078 -0.5462,2.021 -0.36,3.073 0.21,1.203 1.063,4.396 1.271,4.973 0.532,1.428 0.303,2.131 0.407,2.521 0.198,0.735 0.532,0.839 1.032,0.818 0.963,-0.047 0.989,-0.787 0.989,-0.787"
     id="path184" />
  <path
     style="fill:none;stroke:#231f20;stroke-width:0.565977;stroke-linecap:butt;stroke-linejoin:miter;stroke-miterlimit:4;stroke-dasharray:none;stroke-opacity:1"
     d="m 84.0318,101.593 c 0.291,-0.572 -0.177,-2.468 0.063,-4.057 0.161,-1.072 -0.579,-3.713 -0.334,-4.771 0.219,-0.968 0.229,-1.437 -0.833,-1.874 -0.636,-0.26 -2.021,-0.359 -2.235,0.104 -0.505,1.078 -0.5462,2.021 -0.36,3.073 0.21,1.203 1.063,4.396 1.271,4.973 0.532,1.428 0.303,2.131 0.407,2.521 0.198,0.735 0.532,0.839 1.032,0.818 0.963,-0.047 0.989,-0.787 0.989,-0.787 z"
     id="path185" />
  <path
     style="fill:#231f20;fill-opacity:1;fill-rule:nonzero;stroke:none"
     d="m 83.1088,92.579 c 1.271,-0.271 0.486,-2.152 0.355,-2.672 -0.136,-0.532 -0.333,-2.074 -0.339,-3.292 -0.005,-1.23 -0.53,-2.755 -0.541,-5.083 -0.005,-1.224 -0.787,-2.407 -2.5575,-2.324 -1.7557,0.084 -2.3703,1.1 -2.1411,2.584 0.2291,1.473 1.0734,2.765 1.4067,4.24 0.3385,1.473 0.5412,3.009 0.6453,4.219 0.1199,1.374 0.6876,2.014 1.1416,2.161 1.134,0.375 2.03,0.167 2.03,0.167"
     id="path186" />
  <path
     style="fill:none;stroke:#231f20;stroke-width:0.565977;stroke-linecap:butt;stroke-linejoin:miter;stroke-miterlimit:4;stroke-dasharray:none;stroke-opacity:1"
     d="m 83.1088,92.579 c 1.271,-0.271 0.486,-2.152 0.355,-2.672 -0.136,-0.532 -0.333,-2.074 -0.339,-3.292 -0.005,-1.23 -0.53,-2.755 -0.541,-5.083 -0.005,-1.224 -0.787,-2.407 -2.5575,-2.324 -1.7557,0.084 -2.3703,1.1 -2.1411,2.584 0.2291,1.473 1.0734,2.765 1.4067,4.24 0.3385,1.473 0.5412,3.009 0.6453,4.219 0.1199,1.374 0.6876,2.014 1.1416,2.161 1.134,0.375 2.03,0.167 2.03,0.167 z"
     id="path187" />
  <path
     style="fill:#231f20;fill-opacity:1;fill-rule:nonzero;stroke:none"
     d="m 108.2758,128.198 c 0.485,-1.261 -0.25,-1.928 -1.287,-1.953 -0.306,-0.011 -0.566,-0.339 -0.864,-0.323 -0.702,0.036 -1.823,1.375 -0.948,2.594 0.063,0.082 0.318,0.858 0.604,1.416 0.558,1.078 2.188,2.964 4.88,3.136 1.271,0.077 1.084,-0.683 0.584,-0.88 -1.604,-0.595 -1.631,-0.959 -1.994,-1.276 -1.235,-1.047 -0.975,-2.714 -0.975,-2.714"
     id="path188" />
  <path
     style="fill:none;stroke:#231f20;stroke-width:0.332927;stroke-linecap:butt;stroke-linejoin:miter;stroke-miterlimit:4;stroke-dasharray:none;stroke-opacity:1"
     d="m 108.2758,128.198 c 0.485,-1.261 -0.25,-1.928 -1.287,-1.953 -0.306,-0.011 -0.566,-0.339 -0.864,-0.323 -0.702,0.036 -1.823,1.375 -0.948,2.594 0.063,0.082 0.318,0.858 0.604,1.416 0.558,1.078 2.188,2.964 4.88,3.136 1.271,0.077 1.084,-0.683 0.584,-0.88 -1.604,-0.595 -1.631,-0.959 -1.994,-1.276 -1.235,-1.047 -0.975,-2.714 -0.975,-2.714 z"
     id="path189" />
  <path
     style="fill:#231f20;fill-opacity:1;fill-rule:nonzero;stroke:none"
     d="m 80.3438,103.13 c 0,1.178 0.958,2.13 2.136,2.13 1.176,0 2.134,-0.952 2.134,-2.13 0,-1.182 -0.958,-2.136 -2.134,-2.136 -1.178,0 -2.136,0.954 -2.136,2.136"
     id="path190" />
  <path
     style="fill:#63c99d;fill-opacity:1;fill-rule:nonzero;stroke:none"
     d="m 44.2654,82.281 c -3.0932,-0.469 -3.812,-0.229 -4.7082,0 -5.5985,1.443 -6.2027,-1.333 -5.2548,-4.057 1.0991,-3.203 1.4376,-4.38 7.5365,-2.849 1.7036,0.433 8.4265,1.214 8.4265,1.214 2.4532,-0.042 4.8651,1.219 5.4907,2.531 0.6614,1.391 0.2958,0.885 0.677,2.281 0.3588,1.328 -0.2198,3.432 -1.3385,3.959 -1.0787,0.505 -2.4589,-0.433 -4.6198,-1.521 -1.7083,-0.86 -6.2094,-1.558 -6.2094,-1.558"
     id="path191" />
  <path
     style="fill:none;stroke:#231f20;stroke-width:0.565977;stroke-linecap:butt;stroke-linejoin:miter;stroke-miterlimit:4;stroke-dasharray:none;stroke-opacity:1"
     d="m 44.2654,82.281 c -3.0932,-0.469 -3.812,-0.229 -4.7082,0 -5.5985,1.443 -6.2027,-1.333 -5.2548,-4.057 1.0991,-3.203 1.4376,-4.38 7.5365,-2.849 1.7036,0.433 8.4265,1.214 8.4265,1.214 2.4532,-0.042 4.8651,1.219 5.4907,2.531 0.6614,1.391 0.2958,0.885 0.677,2.281 0.3588,1.328 -0.2198,3.432 -1.3385,3.959 -1.0787,0.505 -2.4589,-0.433 -4.6198,-1.521 -1.7083,-0.86 -6.2094,-1.558 -6.2094,-1.558 z"
     id="path192" />
  <path
     style="fill:#ffffff;fill-opacity:1;fill-rule:nonzero;stroke:none"
     d="m 60.5681,76.781 c 0.2129,-0.114 -0.0215,-1.24 0.4785,-1.385 0.5053,-0.145 0.912,0.531 2.8761,0.844 l 0.0198,0.005 c 1.4428,0.176 2.6256,0.911 3.0734,2.083 0.7453,1.943 -0.7973,4.333 -3.4317,5.344 -2.6417,1.011 -5.3803,0.251 -6.1256,-1.688 -0.7135,-1.853 0.6719,-4.129 3.1095,-5.203"
     id="path193" />
  <path
     style="fill:none;stroke:#231f20;stroke-width:0.565977;stroke-linecap:butt;stroke-linejoin:miter;stroke-miterlimit:4;stroke-dasharray:none;stroke-opacity:1"
     d="m 60.5681,76.781 c 0.2129,-0.114 -0.0215,-1.24 0.4785,-1.385 0.5053,-0.145 0.912,0.531 2.8761,0.844 l 0.0198,0.005 c 1.4428,0.176 2.6256,0.911 3.0734,2.083 0.7453,1.943 -0.7973,4.333 -3.4317,5.344 -2.6417,1.011 -5.3803,0.251 -6.1256,-1.688 -0.7135,-1.853 0.6719,-4.129 3.1095,-5.203 z"
     id="path194" />
  <path
     style="fill:#231f20;fill-opacity:1;fill-rule:nonzero;stroke:none"
     d="m 57.2399,101.926 c 0.276,-0.577 -0.224,-2.462 -0.0213,-4.052 0.1411,-1.077 -0.6453,-3.707 -0.4215,-4.765 0.2027,-0.973 0.2027,-1.442 -0.8692,-1.858 -0.636,-0.251 -2.0213,-0.324 -2.2292,0.145 -0.4854,1.083 -0.5057,2.031 -0.3025,3.079 0.2343,1.197 1.1463,4.374 1.3651,4.946 0.5614,1.417 0.3426,2.125 0.4573,2.511 0.2093,0.734 0.5479,0.833 1.0468,0.802 0.9584,-0.062 0.9745,-0.808 0.9745,-0.808"
     id="path195" />
  <path
     style="fill:none;stroke:#231f20;stroke-width:0.565977;stroke-linecap:butt;stroke-linejoin:miter;stroke-miterlimit:4;stroke-dasharray:none;stroke-opacity:1"
     d="m 57.2399,101.926 c 0.276,-0.577 -0.224,-2.462 -0.0213,-4.052 0.1411,-1.077 -0.6453,-3.707 -0.4215,-4.765 0.2027,-0.973 0.2027,-1.442 -0.8692,-1.858 -0.636,-0.251 -2.0213,-0.324 -2.2292,0.145 -0.4854,1.083 -0.5057,2.031 -0.3025,3.079 0.2343,1.197 1.1463,4.374 1.3651,4.946 0.5614,1.417 0.3426,2.125 0.4573,2.511 0.2093,0.734 0.5479,0.833 1.0468,0.802 0.9584,-0.062 0.9745,-0.808 0.9745,-0.808 z"
     id="path196" />
  <path
     style="fill:#231f20;fill-opacity:1;fill-rule:nonzero;stroke:none"
     d="m 56.1466,92.937 c 1.26,-0.301 0.4428,-2.161 0.3011,-2.681 -0.1396,-0.527 -0.3744,-2.068 -0.3958,-3.287 -0.0308,-1.229 -0.5881,-2.745 -0.6401,-5.073 -0.0319,-1.219 -0.8333,-2.391 -2.6037,-2.271 -1.7561,0.115 -2.3495,1.146 -2.0895,2.62 0.2562,1.474 1.1255,2.75 1.4854,4.214 0.3641,1.464 0.5984,2.994 0.7281,4.208 0.1412,1.369 0.7198,2 1.1822,2.136 1.1418,0.353 2.0323,0.134 2.0323,0.134"
     id="path197" />
  <path
     style="fill:none;stroke:#231f20;stroke-width:0.565977;stroke-linecap:butt;stroke-linejoin:miter;stroke-miterlimit:4;stroke-dasharray:none;stroke-opacity:1"
     d="m 56.1466,92.937 c 1.26,-0.301 0.4428,-2.161 0.3011,-2.681 -0.1396,-0.527 -0.3744,-2.068 -0.3958,-3.287 -0.0308,-1.229 -0.5881,-2.745 -0.6401,-5.073 -0.0319,-1.219 -0.8333,-2.391 -2.6037,-2.271 -1.7561,0.115 -2.3495,1.146 -2.0895,2.62 0.2562,1.474 1.1255,2.75 1.4854,4.214 0.3641,1.464 0.5984,2.994 0.7281,4.208 0.1412,1.369 0.7198,2 1.1822,2.136 1.1418,0.353 2.0323,0.134 2.0323,0.134 z"
     id="path198" />
  <path
     style="fill:#231f20;fill-opacity:1;fill-rule:nonzero;stroke:none"
     d="m 24.6827,65.552 c -1.3959,1.787 -1.912,1.937 -2.6973,1.396 -0.5376,-0.364 -1.1412,-0.511 -1.4746,-0.713 -1.1041,-0.683 -2.6828,-2.287 -5.9682,-7.99 -0.7402,-1.297 -1.8025,-3.104 -2.2973,-3.808 -0.7652,-1.114 1.6041,-1.65 1.9161,-1.208 0.9948,1.396 1.7921,2.271 2.2186,2.724 0.2923,0.312 0.7344,0.932 2.0267,1.984 1.9531,1.604 3.364,2.271 4.8333,3.792 0.688,0.708 1.6454,0.803 1.9588,1.839 0.3276,1.041 -0.5161,1.984 -0.5161,1.984"
     id="path199" />
  <path
     style="fill:none;stroke:#231f20;stroke-width:0.565977;stroke-linecap:butt;stroke-linejoin:miter;stroke-miterlimit:4;stroke-dasharray:none;stroke-opacity:1"
     d="m 24.6827,65.552 c -1.3959,1.787 -1.912,1.937 -2.6973,1.396 -0.5376,-0.364 -1.1412,-0.511 -1.4746,-0.713 -1.1041,-0.683 -2.6828,-2.287 -5.9682,-7.99 -0.7402,-1.297 -1.8025,-3.104 -2.2973,-3.808 -0.7652,-1.114 1.6041,-1.65 1.9161,-1.208 0.9948,1.396 1.7921,2.271 2.2186,2.724 0.2923,0.312 0.7344,0.932 2.0267,1.984 1.9531,1.604 3.364,2.271 4.8333,3.792 0.688,0.708 1.6454,0.803 1.9588,1.839 0.3276,1.041 -0.5161,1.984 -0.5161,1.984 z"
     id="path200" />
  <path
     style="fill:#231f20;fill-opacity:1;fill-rule:nonzero;stroke:#231f20;stroke-width:0.565977;stroke-linecap:round;stroke-linejoin:round;stroke-miterlimit:4;stroke-dasharray:none;stroke-opacity:1"
     d="m 24.2811,63.088 c 1.412,-0.161 2.5271,1.677 2.8136,1.86 4.2025,2.735 4.4317,3.036 7.4838,5.339 4.4162,3.328 6.9271,6.286 5.7401,9.416 -0.8078,2.13 -2.1933,3 -3.5105,3.026 -1.4588,0.022 -4.3025,-1.401 -4.5894,-4.281 l -1.0412,-1.355 c -0.823,-0.828 -1.2188,-1.238 -1.6563,-1.618 -0.7599,-0.647 -1.5359,-1.391 -2.9426,-2.751 -2.5104,-2.412 -4.3694,-5.765 -4.3694,-5.765 -0.2197,-0.224 -0.3129,-0.484 -0.3333,-0.756"
     id="path201" />
  <path
     style="fill:#63c99d;fill-opacity:1;fill-rule:nonzero;stroke:none"
     d="M 39.8597,75.417 C 39.5321,74.432 39.3024,73.849 38.5373,73.593 38.4691,73.573 38.3963,73.536 38.328,73.5 37.9119,73.084 37.4748,72.667 36.9691,72.24 l -4.6463,6.292 c 0.3959,2.864 3.2916,4.176 4.7505,4.099 1.312,-0.068 2.6667,-1 3.3905,-3.152 0.4735,-1.395 0.2027,-2.734 -0.6041,-4.062"
     id="path202" />
  <path
     style="fill:none;stroke:#231f20;stroke-width:0.565977;stroke-linecap:butt;stroke-linejoin:miter;stroke-miterlimit:4;stroke-dasharray:none;stroke-opacity:1"
     d="M 39.8597,75.417 C 39.5321,74.432 39.3024,73.849 38.5373,73.593 38.4691,73.573 38.3963,73.536 38.328,73.5 37.9119,73.084 37.4748,72.667 36.9691,72.24 l -4.6463,6.292 c 0.3959,2.864 3.2916,4.176 4.7505,4.099 1.312,-0.068 2.6667,-1 3.3905,-3.152 0.4735,-1.395 0.2027,-2.734 -0.6041,-4.062 z"
     id="path203" />
  <path
     style="fill:#231f20;fill-opacity:1;fill-rule:nonzero;stroke:none"
     d="m 10.5374,52.776 c -0.1776,1.339 0.6923,1.813 1.7079,1.599 0.3014,-0.067 0.6306,0.198 0.9161,0.109 0.6776,-0.203 1.453,-1.76 0.3187,-2.739 -0.0838,-0.073 -0.511,-0.766 -0.9171,-1.24 -0.7923,-0.916 -2.8229002,-2.369 -5.4787,-1.912 -1.2562,0.219 -0.9016,0.923 -0.3604,0.991 1.699,0.208 1.8083,0.557 2.2296,0.776 1.4532,0.733 1.5839,2.416 1.5839,2.416"
     id="path204" />
  <path
     style="fill:none;stroke:#231f20;stroke-width:0.332927;stroke-linecap:butt;stroke-linejoin:miter;stroke-miterlimit:4;stroke-dasharray:none;stroke-opacity:1"
     d="m 10.5374,52.776 c -0.1776,1.339 0.6923,1.813 1.7079,1.599 0.3014,-0.067 0.6306,0.198 0.9161,0.109 0.6776,-0.203 1.453,-1.76 0.3187,-2.739 -0.0838,-0.073 -0.511,-0.766 -0.9171,-1.24 -0.7923,-0.916 -2.8229002,-2.369 -5.4787,-1.912 -1.2562,0.219 -0.9016,0.923 -0.3604,0.991 1.699,0.208 1.8083,0.557 2.2296,0.776 1.4532,0.733 1.5839,2.416 1.5839,2.416 z"
     id="path205" />
  <path
     style="fill:#231f20;fill-opacity:1;fill-rule:nonzero;stroke:none"
     d="m 53.5842,103.532 c 0.0197,1.181 0.9891,2.113 2.1719,2.093 1.176,-0.021 2.1145,-0.995 2.0932,-2.172 -0.0214,-1.177 -1,-2.115 -2.1771,-2.093 -1.1776,0.02 -2.1151,0.994 -2.088,2.172"
     id="path206" />
  <path
     style="fill:#63c99d;fill-opacity:1;fill-rule:nonzero;stroke:none"
     d="m 118.7348,77.276 c 3.016,-0.844 3.573,-1.359 4.292,-1.943 4.505,-3.62 6.202,-1.338 6.458,1.532 0.323,3.38 0.5,4.588 -5.693,5.703 -1.729,0.307 -8.183,2.369 -8.183,2.369 -2.213,1.047 -4.926,0.891 -6.041,-0.046 -1.172,-0.995 -0.636,-0.688 -1.552,-1.803 -0.88,-1.056 -1.224,-3.219 -0.417,-4.156 0.777,-0.9 2.417,-0.615 4.838,-0.515 1.912,0.078 6.298,-1.141 6.298,-1.141"
     id="path207" />
  <path
     style="fill:none;stroke:#231f20;stroke-width:0.565977;stroke-linecap:butt;stroke-linejoin:miter;stroke-miterlimit:4;stroke-dasharray:none;stroke-opacity:1"
     d="m 118.7348,77.276 c 3.016,-0.844 3.573,-1.359 4.292,-1.943 4.505,-3.62 6.202,-1.338 6.458,1.532 0.323,3.38 0.5,4.588 -5.693,5.703 -1.729,0.307 -8.183,2.369 -8.183,2.369 -2.213,1.047 -4.926,0.891 -6.041,-0.046 -1.172,-0.995 -0.636,-0.688 -1.552,-1.803 -0.88,-1.056 -1.224,-3.219 -0.417,-4.156 0.777,-0.9 2.417,-0.615 4.838,-0.515 1.912,0.078 6.298,-1.141 6.298,-1.141 z"
     id="path208" />
  <path
     style="fill:#ffffff;fill-opacity:1;fill-rule:nonzero;stroke:none"
     d="m 100.1468,81.975 c -0.235,-0.074 -0.855,0.894 -1.314,0.65 -0.462,-0.245 -0.276,-1.016 -1.462,-2.614 L 97.3548,80 c -0.907,-1.14 -1.235,-2.489 -0.741,-3.64 0.823,-1.907 3.599,-2.543 6.188,-1.423 2.594,1.126 4.026,3.584 3.204,5.49 -0.787,1.824 -3.37,2.485 -5.859,1.548"
     id="path209" />
  <path
     style="fill:none;stroke:#231f20;stroke-width:0.565977;stroke-linecap:butt;stroke-linejoin:miter;stroke-miterlimit:4;stroke-dasharray:none;stroke-opacity:1"
     d="m 100.1468,81.975 c -0.235,-0.074 -0.855,0.894 -1.314,0.65 -0.462,-0.245 -0.276,-1.016 -1.462,-2.614 L 97.3548,80 c -0.907,-1.14 -1.235,-2.489 -0.741,-3.64 0.823,-1.907 3.599,-2.543 6.188,-1.423 2.594,1.126 4.026,3.584 3.204,5.49 -0.787,1.824 -3.37,2.485 -5.859,1.548 z"
     id="path210" />
  <path
     style="fill:#231f20;fill-opacity:1;fill-rule:nonzero;stroke:none"
     d="m 108.3018,102.125 c -0.354,-0.536 -0.083,-2.469 -0.479,-4.027 -0.276,-1.051 0.183,-3.754 -0.167,-4.781 -0.317,-0.942 -0.375,-1.4 0.636,-1.952 0.599,-0.324 1.969,-0.562 2.229,-0.125 0.62,1.016 0.755,1.953 0.678,3.02 -0.085,1.215 -0.6,4.48 -0.751,5.073 -0.38,1.479 -0.077,2.151 -0.146,2.552 -0.114,0.756 -0.431,0.891 -0.937,0.923 -0.958,0.057 -1.063,-0.683 -1.063,-0.683"
     id="path211" />
  <path
     style="fill:none;stroke:#231f20;stroke-width:0.565977;stroke-linecap:butt;stroke-linejoin:miter;stroke-miterlimit:4;stroke-dasharray:none;stroke-opacity:1"
     d="m 108.3018,102.125 c -0.354,-0.536 -0.083,-2.469 -0.479,-4.027 -0.276,-1.051 0.183,-3.754 -0.167,-4.781 -0.317,-0.942 -0.375,-1.4 0.636,-1.952 0.599,-0.324 1.969,-0.562 2.229,-0.125 0.62,1.016 0.755,1.953 0.678,3.02 -0.085,1.215 -0.6,4.48 -0.751,5.073 -0.38,1.479 -0.077,2.151 -0.146,2.552 -0.114,0.756 -0.431,0.891 -0.937,0.923 -0.958,0.057 -1.063,-0.683 -1.063,-0.683 z"
     id="path212" />
  <path
     style="fill:#231f20;fill-opacity:1;fill-rule:nonzero;stroke:none"
     d="m 108.2808,93.068 c -1.286,-0.141 -0.702,-2.089 -0.629,-2.625 0.078,-0.542 0.119,-2.094 -0.005,-3.312 -0.121,-1.219 0.244,-2.792 0.009,-5.104 -0.119,-1.219 0.537,-2.48 2.308,-2.579 1.755,-0.099 2.469,0.849 2.396,2.344 -0.073,1.495 -0.781,2.869 -0.959,4.364 -0.182,1.5 -0.229,3.047 -0.202,4.265 0.025,1.382 -0.475,2.074 -0.918,2.267 -1.088,0.489 -2,0.38 -2,0.38"
     id="path213" />
  <path
     style="fill:none;stroke:#231f20;stroke-width:0.565977;stroke-linecap:butt;stroke-linejoin:miter;stroke-miterlimit:4;stroke-dasharray:none;stroke-opacity:1"
     d="m 108.2808,93.068 c -1.286,-0.141 -0.702,-2.089 -0.629,-2.625 0.078,-0.542 0.119,-2.094 -0.005,-3.312 -0.121,-1.219 0.244,-2.792 0.009,-5.104 -0.119,-1.219 0.537,-2.48 2.308,-2.579 1.755,-0.099 2.469,0.849 2.396,2.344 -0.073,1.495 -0.781,2.869 -0.959,4.364 -0.182,1.5 -0.229,3.047 -0.202,4.265 0.025,1.382 -0.475,2.074 -0.918,2.267 -1.088,0.489 -2,0.38 -2,0.38 z"
     id="path214" />
  <path
     style="fill:#231f20;fill-opacity:1;fill-rule:nonzero;stroke:none"
     d="m 140.3388,65.959 c -1.735,-1.459 -1.875,-1.975 -1.302,-2.751 0.375,-0.515 0.547,-1.12 0.76,-1.443 0.719,-1.082 2.375,-2.609 8.183,-5.708 1.317,-0.692 3.156,-1.692 3.875,-2.166 1.14,-0.73 1.598,1.656 1.15,1.948 -1.432,0.953 -2.328,1.724 -2.796,2.13 -0.324,0.287 -0.953,0.703 -2.053,1.963 -1.667,1.896 -2.38,3.287 -3.947,4.709 -0.729,0.662 -0.854,1.615 -1.901,1.895 -1.052,0.292 -1.969,-0.577 -1.969,-0.577"
     id="path215" />
  <path
     style="fill:none;stroke:#231f20;stroke-width:0.565977;stroke-linecap:butt;stroke-linejoin:miter;stroke-miterlimit:4;stroke-dasharray:none;stroke-opacity:1"
     d="m 140.3388,65.959 c -1.735,-1.459 -1.875,-1.975 -1.302,-2.751 0.375,-0.515 0.547,-1.12 0.76,-1.443 0.719,-1.082 2.375,-2.609 8.183,-5.708 1.317,-0.692 3.156,-1.692 3.875,-2.166 1.14,-0.73 1.598,1.656 1.15,1.948 -1.432,0.953 -2.328,1.724 -2.796,2.13 -0.324,0.287 -0.953,0.703 -2.053,1.963 -1.667,1.896 -2.38,3.287 -3.947,4.709 -0.729,0.662 -0.854,1.615 -1.901,1.895 -1.052,0.292 -1.969,-0.577 -1.969,-0.577 z"
     id="path216" />
  <path
     style="fill:#231f20;fill-opacity:1;fill-rule:nonzero;stroke:#231f20;stroke-width:0.565977;stroke-linecap:round;stroke-linejoin:round;stroke-miterlimit:4;stroke-dasharray:none;stroke-opacity:1"
     d="m 142.8228,65.636 c 0.109,1.411 -1.766,2.468 -1.952,2.749 -2.876,4.11 -3.188,4.328 -5.584,7.308 -3.474,4.302 -6.511,6.714 -9.604,5.427 -2.104,-0.88 -2.927,-2.292 -2.907,-3.615 0.027,-1.453 1.543,-4.249 4.428,-4.437 l 1.391,-1 c 0.853,-0.797 1.276,-1.183 1.67,-1.604 0.667,-0.735 1.444,-1.485 2.85,-2.855 2.489,-2.426 5.906,-4.172 5.906,-4.172 0.224,-0.213 0.495,-0.301 0.76,-0.312"
     id="path217" />
  <path
     style="fill:#63c99d;fill-opacity:1;fill-rule:nonzero;stroke:none"
     d="m 133.2508,78.016 -6.136,-4.849 c -2.87,0.302 -4.282,3.15 -4.25,4.609 0.031,1.317 0.916,2.699 3.036,3.495 1.38,0.516 2.73,0.292 4.084,-0.474 0.995,-0.292 1.583,-0.5 1.864,-1.261 0.027,-0.067 0.063,-0.135 0.099,-0.203 0.432,-0.401 0.865,-0.828 1.303,-1.317"
     id="path218" />
  <path
     style="fill:none;stroke:#231f20;stroke-width:0.565977;stroke-linecap:butt;stroke-linejoin:miter;stroke-miterlimit:4;stroke-dasharray:none;stroke-opacity:1"
     d="m 133.2508,78.016 -6.136,-4.849 c -2.87,0.302 -4.282,3.15 -4.25,4.609 0.031,1.317 0.916,2.699 3.036,3.495 1.38,0.516 2.73,0.292 4.084,-0.474 0.995,-0.292 1.583,-0.5 1.864,-1.261 0.027,-0.067 0.063,-0.135 0.099,-0.203 0.432,-0.401 0.865,-0.828 1.303,-1.317 z"
     id="path219" />
  <path
     style="fill:#231f20;fill-opacity:1;fill-rule:nonzero;stroke:none"
     d="m 153.5788,52.235 c -1.334,-0.219 -1.839,0.64 -1.656,1.65 0.052,0.308 -0.219,0.631 -0.142,0.923 0.178,0.676 1.708,1.504 2.73,0.405 0.073,-0.082 0.781,-0.489 1.265,-0.874 0.943,-0.766 2.469,-2.746 2.095,-5.412 -0.183,-1.266 -0.891,-0.932 -0.986,-0.395 -0.26,1.687 -0.609,1.785 -0.842,2.208 -0.782,1.416 -2.464,1.495 -2.464,1.495"
     id="path220" />
  <path
     style="fill:none;stroke:#231f20;stroke-width:0.332927;stroke-linecap:butt;stroke-linejoin:miter;stroke-miterlimit:4;stroke-dasharray:none;stroke-opacity:1"
     d="m 153.5788,52.235 c -1.334,-0.219 -1.839,0.64 -1.656,1.65 0.052,0.308 -0.219,0.631 -0.142,0.923 0.178,0.676 1.708,1.504 2.73,0.405 0.073,-0.082 0.781,-0.489 1.265,-0.874 0.943,-0.766 2.469,-2.746 2.095,-5.412 -0.183,-1.266 -0.891,-0.932 -0.986,-0.395 -0.26,1.687 -0.609,1.785 -0.842,2.208 -0.782,1.416 -2.464,1.495 -2.464,1.495 z"
     id="path221" />
  <path
     style="fill:#231f20;fill-opacity:1;fill-rule:nonzero;stroke:none"
     d="m 112.1248,103.27 c 0.126,1.172 -0.729,2.219 -1.901,2.344 -1.172,0.12 -2.224,-0.729 -2.344,-1.901 -0.119,-1.172 0.729,-2.219 1.907,-2.344 1.166,-0.119 2.213,0.729 2.338,1.901"
     id="path222" />
  <path
     style="fill:#63c99d;fill-opacity:1;fill-rule:nonzero;stroke:none"
     d="m 176.7508,54.188 c -2.256,-2.693 -2.73,-3.552 -3.38,-4.489 -3.292,-4.746 -2.511,-5.776 -0.604,-7.224 2.692,-2.054 4.374,-2.918 7.681,2.442 2.51,4.062 4.958,6.719 4.958,6.719 1.588,0.979 3.656,3.921 3.64,4.833 -0.03,1.536 -0.077,1.239 -0.77,2.51 -1.276,2.349 -2.479,2.338 -3.61,1.98 -1.129,-0.366 -1.957,-0.984 -4.02,-2.902 -1.594,-1.478 -3.895,-3.869 -3.895,-3.869"
     id="path223" />
  <path
     style="fill:none;stroke:#231f20;stroke-width:0.565977;stroke-linecap:butt;stroke-linejoin:miter;stroke-miterlimit:4;stroke-dasharray:none;stroke-opacity:1"
     d="m 176.7508,54.188 c -2.256,-2.693 -2.73,-3.552 -3.38,-4.489 -3.292,-4.746 -2.511,-5.776 -0.604,-7.224 2.692,-2.054 4.374,-2.918 7.681,2.442 2.51,4.062 4.958,6.719 4.958,6.719 1.588,0.979 3.656,3.921 3.64,4.833 -0.03,1.536 -0.077,1.239 -0.77,2.51 -1.276,2.349 -2.479,2.338 -3.61,1.98 -1.129,-0.366 -1.957,-0.984 -4.02,-2.902 -1.594,-1.478 -3.895,-3.869 -3.895,-3.869 z"
     id="path224" />
  <path
     style="fill:#231f20;fill-opacity:1;fill-rule:nonzero;stroke:none"
     d="m 207.6298,31.869 c -1.177,-0.666 -1.937,-0.025 -2.12,0.991 -0.057,0.301 -0.416,0.515 -0.442,0.812 -0.068,0.697 1.088,2.005 2.421,1.312 0.089,-0.052 0.901,-0.187 1.491,-0.391 1.145,-0.39 3.249,-1.728 3.817,-4.364 0.26,-1.254 -0.527,-1.177 -0.792,-0.708 -0.823,1.5 -1.187,1.474 -1.547,1.782 -1.218,1.072 -2.828,0.566 -2.828,0.566"
     id="path225" />
  <path
     style="fill:none;stroke:#231f20;stroke-width:0.332927;stroke-linecap:butt;stroke-linejoin:miter;stroke-miterlimit:4;stroke-dasharray:none;stroke-opacity:1"
     d="m 207.6298,31.869 c -1.177,-0.666 -1.937,-0.025 -2.12,0.991 -0.057,0.301 -0.416,0.515 -0.442,0.812 -0.068,0.697 1.088,2.005 2.421,1.312 0.089,-0.052 0.901,-0.187 1.491,-0.391 1.145,-0.39 3.249,-1.728 3.817,-4.364 0.26,-1.254 -0.527,-1.177 -0.792,-0.708 -0.823,1.5 -1.187,1.474 -1.547,1.782 -1.218,1.072 -2.828,0.566 -2.828,0.566 z"
     id="path226" />
  <path
     style="fill:#231f20;fill-opacity:1;fill-rule:nonzero;stroke:none"
     d="m 190.4478,39.041 c -0.922,-2.066 -0.828,-2.598 0.026,-3.046 0.558,-0.296 0.99,-0.766 1.318,-0.963 1.12,-0.663 3.265,-1.308 9.849,-1.553 1.489,-0.058 3.588,-0.151 4.437,-0.25 1.35,-0.166 0.714,2.178 0.187,2.25 -1.703,0.229 -2.859,0.521 -3.452,0.688 -0.412,0.12 -1.167,0.224 -2.699,0.869 -2.333,0.975 -3.582,1.917 -5.609,2.505 -0.943,0.276 -1.473,1.079 -2.541,0.88 -1.074,-0.202 -1.516,-1.38 -1.516,-1.38"
     id="path227" />
  <path
     style="fill:none;stroke:#231f20;stroke-width:0.565977;stroke-linecap:butt;stroke-linejoin:miter;stroke-miterlimit:4;stroke-dasharray:none;stroke-opacity:1"
     d="m 190.4478,39.041 c -0.922,-2.066 -0.828,-2.598 0.026,-3.046 0.558,-0.296 0.99,-0.766 1.318,-0.963 1.12,-0.663 3.265,-1.308 9.849,-1.553 1.489,-0.058 3.588,-0.151 4.437,-0.25 1.35,-0.166 0.714,2.178 0.187,2.25 -1.703,0.229 -2.859,0.521 -3.452,0.688 -0.412,0.12 -1.167,0.224 -2.699,0.869 -2.333,0.975 -3.582,1.917 -5.609,2.505 -0.943,0.276 -1.473,1.079 -2.541,0.88 -1.074,-0.202 -1.516,-1.38 -1.516,-1.38 z"
     id="path228" />
  <path
     style="fill:#231f20;fill-opacity:1;fill-rule:nonzero;stroke:none"
     d="m 194.4008,39.547 c -0.579,0.27 -1.385,2.046 -2.563,3.146 -0.786,0.739 -1.849,3.276 -2.692,3.952 -0.776,0.626 -1.068,0.991 -0.51,1.996 0.333,0.594 1.358,1.526 1.817,1.296 1.057,-0.536 1.677,-1.249 2.193,-2.192 0.578,-1.068 1.891,-4.109 2.072,-4.693 0.47,-1.448 1.084,-1.859 1.246,-2.229 0.306,-0.703 0.109,-0.984 -0.298,-1.282 -0.786,-0.552 -1.265,0.006 -1.265,0.006"
     id="path229" />
  <path
     style="fill:none;stroke:#231f20;stroke-width:0.565977;stroke-linecap:butt;stroke-linejoin:miter;stroke-miterlimit:4;stroke-dasharray:none;stroke-opacity:1"
     d="m 194.4008,39.547 c -0.579,0.27 -1.385,2.046 -2.563,3.146 -0.786,0.739 -1.849,3.276 -2.692,3.952 -0.776,0.626 -1.068,0.991 -0.51,1.996 0.333,0.594 1.358,1.526 1.817,1.296 1.057,-0.536 1.677,-1.249 2.193,-2.192 0.578,-1.068 1.891,-4.109 2.072,-4.693 0.47,-1.448 1.084,-1.859 1.246,-2.229 0.306,-0.703 0.109,-0.984 -0.298,-1.282 -0.786,-0.552 -1.265,0.006 -1.265,0.006 z"
     id="path230" />
  <path
     style="fill:#231f20;fill-opacity:1;fill-rule:nonzero;stroke:none"
     d="m 189.9418,47.027 c -1.192,-0.522 -1.661,1.457 -1.858,1.962 -0.204,0.506 -0.954,1.871 -1.667,2.855 -0.719,1 -1.188,2.541 -2.547,4.432 -0.718,0.989 -0.786,2.412 0.698,3.38 1.464,0.964 2.562,0.505 3.245,-0.823 0.687,-1.338 0.765,-2.869 1.364,-4.26 0.593,-1.396 1.328,-2.75 1.953,-3.792 0.719,-1.182 0.631,-2.03 0.355,-2.416 -0.704,-0.974 -1.543,-1.338 -1.543,-1.338"
     id="path231" />
  <path
     style="fill:none;stroke:#231f20;stroke-width:0.565977;stroke-linecap:butt;stroke-linejoin:miter;stroke-miterlimit:4;stroke-dasharray:none;stroke-opacity:1"
     d="m 189.9418,47.027 c -1.192,-0.522 -1.661,1.457 -1.858,1.962 -0.204,0.506 -0.954,1.871 -1.667,2.855 -0.719,1 -1.188,2.541 -2.547,4.432 -0.718,0.989 -0.786,2.412 0.698,3.38 1.464,0.964 2.562,0.505 3.245,-0.823 0.687,-1.338 0.765,-2.869 1.364,-4.26 0.593,-1.396 1.328,-2.75 1.953,-3.792 0.719,-1.182 0.631,-2.03 0.355,-2.416 -0.704,-0.974 -1.543,-1.338 -1.543,-1.338 z"
     id="path232" />
  <path
     style="fill:#231f20;fill-opacity:1;fill-rule:nonzero;stroke:none"
     d="m 198.0518,33.636 c -0.567,0.448 -2.291,3.197 -2.662,3.848 -0.333,0.573 -1.186,1.349 -0.53,2.297 0.265,0.38 0.926,0.755 1.234,0.834 0.25,0.062 0.49,-0.151 0.656,-0.516 0.282,-0.604 0.12,-0.891 0.578,-2.078 0,0 0.068,-0.302 0.157,-0.838 0.255,-1.615 -0.011,-0.932 0.891,-3.183 0.061,-0.161 -0.054,-0.339 -0.167,-0.369 -0.167,-0.052 -0.157,0.005 -0.157,0.005"
     id="path233" />
  <path
     style="fill:none;stroke:#231f20;stroke-width:0.565977;stroke-linecap:round;stroke-linejoin:round;stroke-miterlimit:4;stroke-dasharray:none;stroke-opacity:1"
     d="m 198.0518,33.636 c -0.567,0.448 -2.291,3.197 -2.662,3.848 -0.333,0.573 -1.186,1.349 -0.53,2.297 0.265,0.38 0.926,0.755 1.234,0.834 0.25,0.062 0.49,-0.151 0.656,-0.516 0.282,-0.604 0.12,-0.891 0.578,-2.078 0,0 0.068,-0.302 0.157,-0.838 0.255,-1.615 -0.011,-0.932 0.891,-3.183 0.061,-0.161 -0.054,-0.339 -0.167,-0.369 -0.167,-0.052 -0.157,0.005 -0.157,0.005 z"
     id="path234" />
  <path
     style="fill:#ffffff;fill-opacity:1;fill-rule:nonzero;stroke:none"
     d="m 194.7398,63.141 c 0.104,0.214 1.234,0.01 1.364,0.515 0.136,0.511 -0.552,0.896 -0.922,2.849 l -0.005,0.022 c -0.219,1.437 -0.989,2.593 -2.172,3.009 -1.963,0.683 -4.307,-0.921 -5.244,-3.588 -0.928,-2.667 -0.095,-5.385 1.864,-6.063 1.88,-0.661 4.109,0.782 5.115,3.256"
     id="path235" />
  <path
     style="fill:none;stroke:#231f20;stroke-width:0.565977;stroke-linecap:butt;stroke-linejoin:miter;stroke-miterlimit:4;stroke-dasharray:none;stroke-opacity:1"
     d="m 194.7398,63.141 c 0.104,0.214 1.234,0.01 1.364,0.515 0.136,0.511 -0.552,0.896 -0.922,2.849 l -0.005,0.022 c -0.219,1.437 -0.989,2.593 -2.172,3.009 -1.963,0.683 -4.307,-0.921 -5.244,-3.588 -0.928,-2.667 -0.095,-5.385 1.864,-6.063 1.88,-0.661 4.109,0.782 5.115,3.256 z"
     id="path236" />
  <path
     style="fill:#231f20;fill-opacity:1;fill-rule:nonzero;stroke:none"
     d="m 193.2808,37.041 c 2.136,3.391 -1.927,3.792 -2.333,4.047 -4.224,2.688 -4.604,2.772 -7.959,4.595 -4.858,2.629 -8.598,3.686 -10.946,1.306 -1.6,-1.62 -1.824,-3.238 -1.298,-4.442 0.588,-1.339 3.063,-3.334 5.798,-2.406 l 1.666,-0.381 c 1.088,-0.405 1.635,-0.593 2.161,-0.837 0.9,-0.428 1.906,-0.814 3.724,-1.538 3.224,-1.281 7.062,-1.573 7.062,-1.573 1.162,-0.427 2.125,1.229 2.125,1.229"
     id="path237" />
  <path
     style="fill:none;stroke:#231f20;stroke-width:0.565977;stroke-linecap:butt;stroke-linejoin:miter;stroke-miterlimit:4;stroke-dasharray:none;stroke-opacity:1"
     d="m 193.2808,37.041 c 2.136,3.391 -1.927,3.792 -2.333,4.047 -4.224,2.688 -4.604,2.772 -7.959,4.595 -4.858,2.629 -8.598,3.686 -10.946,1.306 -1.6,-1.62 -1.824,-3.238 -1.298,-4.442 0.588,-1.339 3.063,-3.334 5.798,-2.406 l 1.666,-0.381 c 1.088,-0.405 1.635,-0.593 2.161,-0.837 0.9,-0.428 1.906,-0.814 3.724,-1.538 3.224,-1.281 7.062,-1.573 7.062,-1.573 1.162,-0.427 2.125,1.229 2.125,1.229 z"
     id="path238" />
  <path
     style="fill:#63c99d;fill-opacity:1;fill-rule:nonzero;stroke:#231f20;stroke-width:0.565977;stroke-linecap:butt;stroke-linejoin:miter;stroke-miterlimit:4;stroke-dasharray:none;stroke-opacity:1"
     d="m 176.5368,40.141 c -2.729,-0.928 -5.204,1.067 -5.792,2.406 -0.526,1.204 -0.302,2.822 1.298,4.442 1.858,1.88 4.572,1.615 8.03,0.126 z"
     id="path239" />
  <path
     style="fill:#ffffff;fill-opacity:1;fill-rule:nonzero;stroke:none"
     d="m 243.0098,33.199 c -2.114,0.822 -2.634,0.697 -3.041,-0.172 -0.265,-0.584 -0.713,-1.022 -0.896,-1.366 -0.604,-1.15 -1.151,-3.333 -1.079,-9.916 0.022,-1.489 0.027,-3.584 -0.041,-4.442 -0.093,-1.35 2.224,-0.604 2.265,-0.068 0.147,1.708 0.391,2.864 0.527,3.473 0.088,0.417 0.156,1.172 0.735,2.74 0.864,2.369 1.738,3.667 2.229,5.724 0.228,0.959 1.004,1.527 0.749,2.579 -0.245,1.061 -1.448,1.448 -1.448,1.448"
     id="path240" />
  <path
     style="fill:none;stroke:#231f20;stroke-width:0.565977;stroke-linecap:butt;stroke-linejoin:miter;stroke-miterlimit:4;stroke-dasharray:none;stroke-opacity:1"
     d="m 243.0098,33.199 c -2.114,0.822 -2.634,0.697 -3.041,-0.172 -0.265,-0.584 -0.713,-1.022 -0.896,-1.366 -0.604,-1.15 -1.151,-3.333 -1.079,-9.916 0.022,-1.489 0.027,-3.584 -0.041,-4.442 -0.093,-1.35 2.224,-0.604 2.265,-0.068 0.147,1.708 0.391,2.864 0.527,3.473 0.088,0.417 0.156,1.172 0.735,2.74 0.864,2.369 1.738,3.667 2.229,5.724 0.228,0.959 1.004,1.527 0.749,2.579 -0.245,1.061 -1.448,1.448 -1.448,1.448 z"
     id="path241" />
  <path
     style="fill:#ffffff;fill-opacity:1;fill-rule:nonzero;stroke:#231f20;stroke-width:0.565977;stroke-linecap:round;stroke-linejoin:round;stroke-miterlimit:4;stroke-dasharray:none;stroke-opacity:1"
     d="m 243.9168,30.865 c 1.296,0.578 1.317,2.734 1.473,3.036 2.23,4.495 2.271,4.87 3.73,8.402 2.104,5.114 2.765,8.937 0.15,11.03 -1.781,1.422 -3.416,1.47 -4.561,0.818 -1.267,-0.724 -2.991,-3.396 -1.772,-6.015 l -0.208,-1.704 c -0.287,-1.129 -0.421,-1.681 -0.604,-2.229 -0.328,-0.943 -0.609,-1.984 -1.136,-3.87 -0.932,-3.349 -0.828,-7.188 -0.828,-7.188 -0.072,-0.296 -0.02,-0.577 0.1,-0.817"
     id="path242" />
  <path
     style="fill:#231f20;fill-opacity:1;fill-rule:nonzero;stroke:none"
     d="m 237.3278,15 c -0.834,1.063 -0.323,1.917 0.657,2.245 0.291,0.099 0.443,0.49 0.733,0.563 0.688,0.171 2.147,-0.776 1.672,-2.199 -0.036,-0.104 -0.052,-0.921 -0.161,-1.53 -0.219,-1.194 -1.224,-3.48 -3.744,-4.434 -1.193,-0.452 -1.245,0.334 -0.819,0.667 1.36,1.043 1.276,1.396 1.527,1.808 0.875,1.369 0.135,2.88 0.135,2.88"
     id="path243" />
  <path
     style="fill:none;stroke:#231f20;stroke-width:0.332927;stroke-linecap:butt;stroke-linejoin:miter;stroke-miterlimit:4;stroke-dasharray:none;stroke-opacity:1"
     d="m 237.3278,15 c -0.834,1.063 -0.323,1.917 0.657,2.245 0.291,0.099 0.443,0.49 0.733,0.563 0.688,0.171 2.147,-0.776 1.672,-2.199 -0.036,-0.104 -0.052,-0.921 -0.161,-1.53 -0.219,-1.194 -1.224,-3.48 -3.744,-4.434 -1.193,-0.452 -1.245,0.334 -0.819,0.667 1.36,1.043 1.276,1.396 1.527,1.808 0.875,1.369 0.135,2.88 0.135,2.88 z"
     id="path244" />
  <path
     style="fill:#231f20;fill-opacity:1;fill-rule:nonzero;stroke:none"
     d="m 280.8438,40.708 c -0.588,0.256 -2.448,-0.323 -4.047,-0.176 -1.084,0.099 -3.677,-0.792 -4.751,-0.62 -0.973,0.172 -1.437,0.145 -1.817,-0.943 -0.224,-0.636 -0.24,-2.026 0.235,-2.218 1.098,-0.439 2.052,-0.423 3.093,-0.183 1.183,0.287 4.328,1.317 4.885,1.568 1.396,0.615 2.11,0.432 2.495,0.557 0.724,0.234 0.803,0.578 0.761,1.072 -0.109,0.959 -0.854,0.943 -0.854,0.943"
     id="path245" />
  <path
     style="fill:none;stroke:#231f20;stroke-width:0.565977;stroke-linecap:butt;stroke-linejoin:miter;stroke-miterlimit:4;stroke-dasharray:none;stroke-opacity:1"
     d="m 280.8438,40.708 c -0.588,0.256 -2.448,-0.323 -4.047,-0.176 -1.084,0.099 -3.677,-0.792 -4.751,-0.62 -0.973,0.172 -1.437,0.145 -1.817,-0.943 -0.224,-0.636 -0.24,-2.026 0.235,-2.218 1.098,-0.439 2.052,-0.423 3.093,-0.183 1.183,0.287 4.328,1.317 4.885,1.568 1.396,0.615 2.11,0.432 2.495,0.557 0.724,0.234 0.803,0.578 0.761,1.072 -0.109,0.959 -0.854,0.943 -0.854,0.943 z"
     id="path246" />
  <path
     style="fill:#231f20;fill-opacity:1;fill-rule:nonzero;stroke:none"
     d="m 286.9418,43.396 c -0.733,-0.016 -3.765,-1.177 -4.448,-1.473 -0.604,-0.267 -1.765,-0.371 -1.801,-1.522 -0.021,-0.469 0.281,-1.161 0.484,-1.412 0.167,-0.202 0.495,-0.172 0.839,0.022 0.582,0.317 0.625,0.634 1.713,1.312 0,0 0.229,0.198 0.62,0.589 1.177,1.129 0.552,0.733 2.62,2 0.145,0.088 0.161,0.301 0.099,0.4 -0.115,0.141 -0.126,0.084 -0.126,0.084"
     id="path247" />
  <path
     style="fill:none;stroke:#231f20;stroke-width:0.565977;stroke-linecap:round;stroke-linejoin:round;stroke-miterlimit:4;stroke-dasharray:none;stroke-opacity:1"
     d="m 286.9418,43.396 c -0.733,-0.016 -3.765,-1.177 -4.448,-1.473 -0.604,-0.267 -1.765,-0.371 -1.801,-1.522 -0.021,-0.469 0.281,-1.161 0.484,-1.412 0.167,-0.202 0.495,-0.172 0.839,0.022 0.582,0.317 0.625,0.634 1.713,1.312 0,0 0.229,0.198 0.62,0.589 1.177,1.129 0.552,0.733 2.62,2 0.145,0.088 0.161,0.301 0.099,0.4 -0.115,0.141 -0.126,0.084 -0.126,0.084 z"
     id="path248" />
  <path
     style="fill:#231f20;fill-opacity:1;fill-rule:nonzero;stroke:none"
     d="m 251.2288,26.125 c 0.469,0.558 1.589,3.604 1.813,4.312 0.203,0.631 0.886,1.574 0.042,2.36 -0.339,0.323 -1.058,0.552 -1.38,0.563 -0.262,0.009 -0.454,-0.256 -0.538,-0.641 -0.145,-0.651 0.068,-0.896 -0.134,-2.156 0,0 -0.006,-0.307 0.03,-0.855 0.079,-1.629 0.194,-0.9 -0.213,-3.291 -0.031,-0.166 0.12,-0.318 0.235,-0.333 0.181,-0.011 0.145,0.041 0.145,0.041"
     id="path249" />
  <path
     style="fill:none;stroke:#231f20;stroke-width:0.565977;stroke-linecap:round;stroke-linejoin:round;stroke-miterlimit:4;stroke-dasharray:none;stroke-opacity:1"
     d="m 251.2288,26.125 c 0.469,0.558 1.589,3.604 1.813,4.312 0.203,0.631 0.886,1.574 0.042,2.36 -0.339,0.323 -1.058,0.552 -1.38,0.563 -0.262,0.009 -0.454,-0.256 -0.538,-0.641 -0.145,-0.651 0.068,-0.896 -0.134,-2.156 0,0 -0.006,-0.307 0.03,-0.855 0.079,-1.629 0.194,-0.9 -0.213,-3.291 -0.031,-0.166 0.12,-0.318 0.235,-0.333 0.181,-0.011 0.145,0.041 0.145,0.041 z"
     id="path250" />
  <path
     style="fill:#63c99d;fill-opacity:1;fill-rule:nonzero;stroke:none"
     d="m 255.2558,51.536 c -3.11,0.381 -3.735,0.808 -4.538,1.272 -5,2.895 -6.328,0.385 -6.15,-2.496 0.193,-3.385 0.202,-4.604 6.494,-4.771 1.756,-0.046 8.438,-1.104 8.438,-1.104 2.349,-0.697 5.01,-0.134 5.969,0.959 1.011,1.167 0.525,0.781 1.26,2.016 0.708,1.181 0.719,3.369 -0.219,4.172 -0.901,0.776 -2.478,0.244 -4.854,-0.224 -1.88,-0.365 -6.4,0.176 -6.4,0.176"
     id="path251" />
  <path
     style="fill:none;stroke:#231f20;stroke-width:0.565977;stroke-linecap:butt;stroke-linejoin:miter;stroke-miterlimit:4;stroke-dasharray:none;stroke-opacity:1"
     d="m 255.2558,51.536 c -3.11,0.381 -3.735,0.808 -4.538,1.272 -5,2.895 -6.328,0.385 -6.15,-2.496 0.193,-3.385 0.202,-4.604 6.494,-4.771 1.756,-0.046 8.438,-1.104 8.438,-1.104 2.349,-0.697 5.01,-0.134 5.969,0.959 1.011,1.167 0.525,0.781 1.26,2.016 0.708,1.181 0.719,3.369 -0.219,4.172 -0.901,0.776 -2.478,0.244 -4.854,-0.224 -1.88,-0.365 -6.4,0.176 -6.4,0.176 z"
     id="path252" />
  <path
     style="fill:#ffffff;fill-opacity:1;fill-rule:nonzero;stroke:none"
     d="m 273.8278,45.833 c 0.24,0 0.552,-1.109 1.062,-1.005 0.522,0.099 0.563,0.891 2.162,2.079 l 0.016,0.01 c 1.197,0.823 1.901,2.02 1.76,3.266 -0.234,2.062 -2.703,3.478 -5.51,3.15 -2.808,-0.322 -4.885,-2.26 -4.652,-4.322 0.224,-1.975 2.506,-3.355 5.162,-3.178"
     id="path253" />
  <path
     style="fill:none;stroke:#231f20;stroke-width:0.565977;stroke-linecap:butt;stroke-linejoin:miter;stroke-miterlimit:4;stroke-dasharray:none;stroke-opacity:1"
     d="m 273.8278,45.833 c 0.24,0 0.552,-1.109 1.062,-1.005 0.522,0.099 0.563,0.891 2.162,2.079 l 0.016,0.01 c 1.197,0.823 1.901,2.02 1.76,3.266 -0.234,2.062 -2.703,3.478 -5.51,3.15 -2.808,-0.322 -4.885,-2.26 -4.652,-4.322 0.224,-1.975 2.506,-3.355 5.162,-3.178 z"
     id="path254" />
  <path
     style="fill:#231f20;fill-opacity:1;fill-rule:nonzero;stroke:none"
     d="m 251.3698,33.803 c -0.177,0.618 0.656,2.385 0.734,3.984 0.052,1.088 1.292,3.536 1.261,4.614 -0.027,1 0.052,1.459 1.181,1.683 0.672,0.129 2.052,-0.048 2.172,-0.543 0.287,-1.156 0.136,-2.088 -0.249,-3.082 -0.437,-1.136 -1.907,-4.104 -2.219,-4.631 -0.802,-1.292 -0.718,-2.025 -0.896,-2.391 -0.338,-0.686 -0.682,-0.724 -1.172,-0.604 -0.932,0.23 -0.812,0.97 -0.812,0.97"
     id="path255" />
  <path
     style="fill:none;stroke:#231f20;stroke-width:0.565977;stroke-linecap:butt;stroke-linejoin:miter;stroke-miterlimit:4;stroke-dasharray:none;stroke-opacity:1"
     d="m 251.3698,33.803 c -0.177,0.618 0.656,2.385 0.734,3.984 0.052,1.088 1.292,3.536 1.261,4.614 -0.027,1 0.052,1.459 1.181,1.683 0.672,0.129 2.052,-0.048 2.172,-0.543 0.287,-1.156 0.136,-2.088 -0.249,-3.082 -0.437,-1.136 -1.907,-4.104 -2.219,-4.631 -0.802,-1.292 -0.718,-2.025 -0.896,-2.391 -0.338,-0.686 -0.682,-0.724 -1.172,-0.604 -0.932,0.23 -0.812,0.97 -0.812,0.97 z"
     id="path256" />
  <path
     style="fill:#231f20;fill-opacity:1;fill-rule:nonzero;stroke:none"
     d="m 253.7918,43.099 c -0.672,1.109 1.234,1.828 1.702,2.094 0.475,0.266 1.74,1.176 2.626,2.015 0.901,0.839 2.369,1.5 4.073,3.095 0.891,0.833 2.287,1.082 3.443,-0.267 1.145,-1.337 0.828,-2.484 -0.407,-3.328 -1.235,-0.848 -2.755,-1.119 -4.052,-1.891 -1.301,-0.765 -2.557,-1.666 -3.511,-2.426 -1.082,-0.859 -1.937,-0.88 -2.353,-0.651 -1.057,0.572 -1.521,1.359 -1.521,1.359"
     id="path257" />
  <path
     style="fill:none;stroke:#231f20;stroke-width:0.565977;stroke-linecap:butt;stroke-linejoin:miter;stroke-miterlimit:4;stroke-dasharray:none;stroke-opacity:1"
     d="m 253.7918,43.099 c -0.672,1.109 1.234,1.828 1.702,2.094 0.475,0.266 1.74,1.176 2.626,2.015 0.901,0.839 2.369,1.5 4.073,3.095 0.891,0.833 2.287,1.082 3.443,-0.267 1.145,-1.337 0.828,-2.484 -0.407,-3.328 -1.235,-0.848 -2.755,-1.119 -4.052,-1.891 -1.301,-0.765 -2.557,-1.666 -3.511,-2.426 -1.082,-0.859 -1.937,-0.88 -2.353,-0.651 -1.057,0.572 -1.521,1.359 -1.521,1.359 z"
     id="path258" />
  <path
     style="fill:#231f20;fill-opacity:1;fill-rule:nonzero;stroke:none"
     d="m 240.8898,33.86 c -1.989,1.088 -2.52,1.025 -3.036,0.213 -0.344,-0.541 -0.838,-0.917 -1.068,-1.234 -0.744,-1.058 -1.562,-3.162 -2.333,-9.698 -0.167,-1.48 -0.427,-3.557 -0.604,-4.401 -0.265,-1.328 2.125,-0.885 2.235,-0.36 0.364,1.677 0.754,2.797 0.962,3.38 0.147,0.401 0.308,1.147 1.079,2.625 1.161,2.24 2.197,3.412 2.948,5.391 0.349,0.923 1.192,1.385 1.073,2.464 -0.104,1.083 -1.256,1.62 -1.256,1.62"
     id="path259" />
  <path
     style="fill:none;stroke:#231f20;stroke-width:0.565977;stroke-linecap:butt;stroke-linejoin:miter;stroke-miterlimit:4;stroke-dasharray:none;stroke-opacity:1"
     d="m 240.8898,33.86 c -1.989,1.088 -2.52,1.025 -3.036,0.213 -0.344,-0.541 -0.838,-0.917 -1.068,-1.234 -0.744,-1.058 -1.562,-3.162 -2.333,-9.698 -0.167,-1.48 -0.427,-3.557 -0.604,-4.401 -0.265,-1.328 2.125,-0.885 2.235,-0.36 0.364,1.677 0.754,2.797 0.962,3.38 0.147,0.401 0.308,1.147 1.079,2.625 1.161,2.24 2.197,3.412 2.948,5.391 0.349,0.923 1.192,1.385 1.073,2.464 -0.104,1.083 -1.256,1.62 -1.256,1.62 z"
     id="path260" />
  <path
     style="fill:#231f20;fill-opacity:1;fill-rule:nonzero;stroke:#231f20;stroke-width:0.565977;stroke-linecap:round;stroke-linejoin:round;stroke-miterlimit:4;stroke-dasharray:none;stroke-opacity:1"
     d="m 241.4938,31.432 c 1.36,0.412 1.658,2.543 1.85,2.824 2.781,4.171 2.874,4.536 4.77,7.853 2.746,4.803 3.886,8.511 1.558,10.923 -1.583,1.64 -3.198,1.891 -4.422,1.389 -1.344,-0.552 -3.396,-2.984 -2.521,-5.738 l -0.427,-1.662 c -0.426,-1.084 -0.63,-1.614 -0.88,-2.136 -0.448,-0.896 -0.86,-1.885 -1.62,-3.692 -1.354,-3.204 -1.74,-7.021 -1.74,-7.021 -0.114,-0.287 -0.098,-0.573 -0.01,-0.823"
     id="path261" />
  <path
     style="fill:#63c99d;fill-opacity:1;fill-rule:nonzero;stroke:none"
     d="m 250.9418,48.917 c 0.084,-1.037 0.11,-1.666 -0.5,-2.204 -0.052,-0.046 -0.098,-0.109 -0.15,-0.166 -0.214,-0.547 -0.459,-1.11 -0.755,-1.698 l -6.745,3.954 c -0.766,2.781 1.369,5.134 2.74,5.634 1.238,0.459 2.844,0.131 4.364,-1.552 0.98,-1.098 1.265,-2.432 1.046,-3.968"
     id="path262" />
  <path
     style="fill:none;stroke:#231f20;stroke-width:0.565977;stroke-linecap:butt;stroke-linejoin:miter;stroke-miterlimit:4;stroke-dasharray:none;stroke-opacity:1"
     d="m 250.9418,48.917 c 0.084,-1.037 0.11,-1.666 -0.5,-2.204 -0.052,-0.046 -0.098,-0.109 -0.15,-0.166 -0.214,-0.547 -0.459,-1.11 -0.755,-1.698 l -6.745,3.954 c -0.766,2.781 1.369,5.134 2.74,5.634 1.238,0.459 2.844,0.131 4.364,-1.552 0.98,-1.098 1.265,-2.432 1.046,-3.968 z"
     id="path263" />
  <path
     style="fill:#231f20;fill-opacity:1;fill-rule:nonzero;stroke:none"
     d="m 232.9318,16.536 c -0.692,1.163 -0.078,1.943 0.938,2.141 0.307,0.063 0.5,0.432 0.802,0.468 0.698,0.079 2.026,-1.046 1.374,-2.394 -0.052,-0.1 -0.17,-0.907 -0.353,-1.495 -0.371,-1.163 -1.661,-3.297 -4.281,-3.923 -1.24,-0.297 -1.194,0.49 -0.724,0.766 1.478,0.865 1.442,1.224 1.745,1.6 1.041,1.244 0.499,2.837 0.499,2.837"
     id="path264" />
  <path
     style="fill:none;stroke:#231f20;stroke-width:0.332927;stroke-linecap:butt;stroke-linejoin:miter;stroke-miterlimit:4;stroke-dasharray:none;stroke-opacity:1"
     d="m 232.9318,16.536 c -0.692,1.163 -0.078,1.943 0.938,2.141 0.307,0.063 0.5,0.432 0.802,0.468 0.698,0.079 2.026,-1.046 1.374,-2.394 -0.052,-0.1 -0.17,-0.907 -0.353,-1.495 -0.371,-1.163 -1.661,-3.297 -4.281,-3.923 -1.24,-0.297 -1.194,0.49 -0.724,0.766 1.478,0.865 1.442,1.224 1.745,1.6 1.041,1.244 0.499,2.837 0.499,2.837 z"
     id="path265" />
  <path
     style="fill:#231f20;fill-opacity:1;fill-rule:nonzero;stroke:none"
     d="m 337.1978,61.131 c -0.724,-0.068 -3.876,0.729 -4.584,0.942 -0.64,0.192 -1.792,0.162 -1.973,1.302 -0.074,0.458 0.145,1.182 0.322,1.453 0.136,0.219 0.464,0.235 0.828,0.079 0.62,-0.251 0.698,-0.552 1.86,-1.099 0,0 0.25,-0.172 0.682,-0.511 1.302,-0.989 0.641,-0.672 2.838,-1.682 0.156,-0.068 0.199,-0.282 0.147,-0.38 -0.095,-0.156 -0.12,-0.104 -0.12,-0.104"
     id="path266" />
  <path
     style="fill:none;stroke:#231f20;stroke-width:0.565977;stroke-linecap:round;stroke-linejoin:round;stroke-miterlimit:4;stroke-dasharray:none;stroke-opacity:1"
     d="m 337.1978,61.131 c -0.724,-0.068 -3.876,0.729 -4.584,0.942 -0.64,0.192 -1.792,0.162 -1.973,1.302 -0.074,0.458 0.145,1.182 0.322,1.453 0.136,0.219 0.464,0.235 0.828,0.079 0.62,-0.251 0.698,-0.552 1.86,-1.099 0,0 0.25,-0.172 0.682,-0.511 1.302,-0.989 0.641,-0.672 2.838,-1.682 0.156,-0.068 0.199,-0.282 0.147,-0.38 -0.095,-0.156 -0.12,-0.104 -0.12,-0.104 z"
     id="path267" />
  <path
     style="fill:#231f20;fill-opacity:1;fill-rule:nonzero;stroke:none"
     d="m 277.6198,107.172 c -0.402,-1.287 0.385,-1.902 1.422,-1.86 0.307,0.01 0.583,-0.296 0.886,-0.26 0.697,0.089 1.724,1.494 0.765,2.65 -0.068,0.084 -0.38,0.834 -0.699,1.371 -0.629,1.041 -2.385,2.807 -5.082,2.796 -1.276,-0.004 -1.036,-0.76 -0.522,-0.911 1.642,-0.489 1.694,-0.854 2.074,-1.146 1.306,-0.952 1.156,-2.64 1.156,-2.64"
     id="path268" />
  <path
     style="fill:none;stroke:#231f20;stroke-width:0.332927;stroke-linecap:butt;stroke-linejoin:miter;stroke-miterlimit:4;stroke-dasharray:none;stroke-opacity:1"
     d="m 277.6198,107.172 c -0.402,-1.287 0.385,-1.902 1.422,-1.86 0.307,0.01 0.583,-0.296 0.886,-0.26 0.697,0.089 1.724,1.494 0.765,2.65 -0.068,0.084 -0.38,0.834 -0.699,1.371 -0.629,1.041 -2.385,2.807 -5.082,2.796 -1.276,-0.004 -1.036,-0.76 -0.522,-0.911 1.642,-0.489 1.694,-0.854 2.074,-1.146 1.306,-0.952 1.156,-2.64 1.156,-2.64 z"
     id="path269" />
  <path
     style="fill:#231f20;fill-opacity:1;fill-rule:nonzero;stroke:none"
     d="m 289.8218,92.943 c -1.656,-1.552 -2.192,-1.631 -2.885,-0.968 -0.463,0.432 -1.047,0.67 -1.348,0.926 -0.985,0.844 -2.297,2.667 -4.683,8.797 -0.541,1.395 -1.308,3.343 -1.693,4.114 -0.599,1.22 1.833,1.386 2.073,0.912 0.776,-1.531 1.423,-2.522 1.782,-3.042 0.24,-0.344 0.588,-1.026 1.698,-2.261 1.692,-1.885 2.984,-2.76 4.203,-4.484 0.573,-0.801 1.511,-1.041 1.661,-2.114 0.162,-1.072 -0.808,-1.88 -0.808,-1.88"
     id="path270" />
  <path
     style="fill:none;stroke:#231f20;stroke-width:0.565977;stroke-linecap:butt;stroke-linejoin:miter;stroke-miterlimit:4;stroke-dasharray:none;stroke-opacity:1"
     d="m 289.8218,92.943 c -1.656,-1.552 -2.192,-1.631 -2.885,-0.968 -0.463,0.432 -1.047,0.67 -1.348,0.926 -0.985,0.844 -2.297,2.667 -4.683,8.797 -0.541,1.395 -1.308,3.343 -1.693,4.114 -0.599,1.22 1.833,1.386 2.073,0.912 0.776,-1.531 1.423,-2.522 1.782,-3.042 0.24,-0.344 0.588,-1.026 1.698,-2.261 1.692,-1.885 2.984,-2.76 4.203,-4.484 0.573,-0.801 1.511,-1.041 1.661,-2.114 0.162,-1.072 -0.808,-1.88 -0.808,-1.88 z"
     id="path271" />
  <path
     style="fill:#63c99d;fill-opacity:1;fill-rule:nonzero;stroke:none"
     d="m 303.9888,70.661 c -2.239,2.188 -2.957,2.412 -3.817,2.751 -5.391,2.093 -4.255,4.697 -1.896,6.359 2.766,1.958 3.718,2.718 7.781,-2.094 1.125,-1.338 6.131,-5.901 6.131,-5.901 2.015,-1.391 3.234,-3.828 2.978,-5.26 -0.276,-1.511 -0.281,-0.891 -0.787,-2.24 -0.478,-1.297 -2.175,-2.667 -3.394,-2.437 -1.167,0.224 -1.74,1.781 -2.86,3.937 -0.885,1.688 -4.136,4.885 -4.136,4.885"
     id="path272" />
  <path
     style="fill:none;stroke:#231f20;stroke-width:0.565977;stroke-linecap:butt;stroke-linejoin:miter;stroke-miterlimit:4;stroke-dasharray:none;stroke-opacity:1"
     d="m 303.9888,70.661 c -2.239,2.188 -2.957,2.412 -3.817,2.751 -5.391,2.093 -4.255,4.697 -1.896,6.359 2.766,1.958 3.718,2.718 7.781,-2.094 1.125,-1.338 6.131,-5.901 6.131,-5.901 2.015,-1.391 3.234,-3.828 2.978,-5.26 -0.276,-1.511 -0.281,-0.891 -0.787,-2.24 -0.478,-1.297 -2.175,-2.667 -3.394,-2.437 -1.167,0.224 -1.74,1.781 -2.86,3.937 -0.885,1.688 -4.136,4.885 -4.136,4.885 z"
     id="path273" />
  <path
     style="fill:#ffffff;fill-opacity:1;fill-rule:nonzero;stroke:none"
     d="m 320.1348,59.959 c 0.146,-0.204 1.224,0.202 1.443,-0.271 0.219,-0.48 -0.391,-0.98 -0.407,-2.969 l 0.006,-0.02 c 0.041,-1.454 -0.516,-2.73 -1.604,-3.35 -1.807,-1.026 -4.402,0.135 -5.792,2.588 -1.396,2.464 -1.057,5.282 0.745,6.314 1.729,0.978 4.187,-0.048 5.609,-2.292"
     id="path274" />
  <path
     style="fill:none;stroke:#231f20;stroke-width:0.565977;stroke-linecap:butt;stroke-linejoin:miter;stroke-miterlimit:4;stroke-dasharray:none;stroke-opacity:1"
     d="m 320.1348,59.959 c 0.146,-0.204 1.224,0.202 1.443,-0.271 0.219,-0.48 -0.391,-0.98 -0.407,-2.969 l 0.006,-0.02 c 0.041,-1.454 -0.516,-2.73 -1.604,-3.35 -1.807,-1.026 -4.402,0.135 -5.792,2.588 -1.396,2.464 -1.057,5.282 0.745,6.314 1.729,0.978 4.187,-0.048 5.609,-2.292 z"
     id="path275" />
  <path
     style="fill:#231f20;fill-opacity:1;fill-rule:nonzero;stroke:none"
     d="m 287.7658,94.308 c 2.687,2.984 4.176,-0.813 4.531,-1.136 3.735,-3.339 3.921,-3.672 6.588,-6.407 3.855,-3.962 5.891,-7.265 4.24,-10.181 -1.12,-1.975 -2.62,-2.636 -3.921,-2.459 -1.448,0.203 -4.043,2.042 -3.886,4.927 l -0.829,1.5 c -0.681,0.937 -1.015,1.412 -1.389,1.849 -0.658,0.76 -1.308,1.615 -2.496,3.167 -2.115,2.755 -3.443,6.359 -3.443,6.359 -0.728,1.01 0.605,2.381 0.605,2.381"
     id="path276" />
  <path
     style="fill:none;stroke:#231f20;stroke-width:0.565977;stroke-linecap:butt;stroke-linejoin:miter;stroke-miterlimit:4;stroke-dasharray:none;stroke-opacity:1"
     d="m 287.7658,94.308 c 2.687,2.984 4.176,-0.813 4.531,-1.136 3.735,-3.339 3.921,-3.672 6.588,-6.407 3.855,-3.962 5.891,-7.265 4.24,-10.181 -1.12,-1.975 -2.62,-2.636 -3.921,-2.459 -1.448,0.203 -4.043,2.042 -3.886,4.927 l -0.829,1.5 c -0.681,0.937 -1.015,1.412 -1.389,1.849 -0.658,0.76 -1.308,1.615 -2.496,3.167 -2.115,2.755 -3.443,6.359 -3.443,6.359 -0.728,1.01 0.605,2.381 0.605,2.381 z"
     id="path277" />
  <path
     style="fill:#63c99d;fill-opacity:1;fill-rule:nonzero;stroke:none"
     d="m 302.8598,75.984 c -1.432,-1.765 -3.022,-2.161 -4.276,-1.765 -1.396,0.437 -3.647,2.677 -3.016,5.5 l 6.546,4.265 c 0.323,-0.572 0.595,-1.115 0.834,-1.651 0.052,-0.057 0.109,-0.114 0.166,-0.161 0.631,-0.505 0.642,-1.136 0.604,-2.183 0.292,-1.52 0.074,-2.864 -0.858,-4.005"
     id="path278" />
  <path
     style="fill:none;stroke:#231f20;stroke-width:0.565977;stroke-linecap:butt;stroke-linejoin:miter;stroke-miterlimit:4;stroke-dasharray:none;stroke-opacity:1"
     d="m 302.8598,75.984 c -1.432,-1.765 -3.022,-2.161 -4.276,-1.765 -1.396,0.437 -3.647,2.677 -3.016,5.5 l 6.546,4.265 c 0.323,-0.572 0.595,-1.115 0.834,-1.651 0.052,-0.057 0.109,-0.114 0.166,-0.161 0.631,-0.505 0.642,-1.136 0.604,-2.183 0.292,-1.52 0.074,-2.864 -0.858,-4.005 z"
     id="path279" />
  <path
     style="fill:#231f20;fill-opacity:1;fill-rule:nonzero;stroke:none"
     d="m 331.5508,64.855 c -0.353,0.536 -2.238,1.036 -3.52,2.014 -0.86,0.663 -3.526,1.298 -4.338,2.022 -0.74,0.661 -1.142,0.896 -2.042,0.182 -0.532,-0.428 -1.292,-1.594 -0.99,-2 0.693,-0.969 1.51,-1.464 2.516,-1.813 1.15,-0.395 4.365,-1.197 4.969,-1.291 1.505,-0.224 2.005,-0.766 2.4,-0.86 0.74,-0.186 0.996,0.047 1.215,0.5 0.432,0.86 -0.21,1.246 -0.21,1.246"
     id="path280" />
  <path
     style="fill:none;stroke:#231f20;stroke-width:0.565977;stroke-linecap:butt;stroke-linejoin:miter;stroke-miterlimit:4;stroke-dasharray:none;stroke-opacity:1"
     d="m 331.5508,64.855 c -0.353,0.536 -2.238,1.036 -3.52,2.014 -0.86,0.663 -3.526,1.298 -4.338,2.022 -0.74,0.661 -1.142,0.896 -2.042,0.182 -0.532,-0.428 -1.292,-1.594 -0.99,-2 0.693,-0.969 1.51,-1.464 2.516,-1.813 1.15,-0.395 4.365,-1.197 4.969,-1.291 1.505,-0.224 2.005,-0.766 2.4,-0.86 0.74,-0.186 0.996,0.047 1.215,0.5 0.432,0.86 -0.21,1.246 -0.21,1.246 z"
     id="path281" />
  <path
     style="fill:#231f20;fill-opacity:1;fill-rule:nonzero;stroke:none"
     d="m 323.5778,68.656 c -0.385,1.235 -2.188,0.281 -2.693,0.109 -0.515,-0.181 -2.036,-0.525 -3.255,-0.64 -1.219,-0.109 -2.688,-0.776 -5.005,-1 -1.219,-0.114 -2.328,-0.994 -2.079,-2.76 0.24,-1.74 1.308,-2.256 2.762,-1.89 1.453,0.358 2.661,1.317 4.098,1.785 1.437,0.469 2.948,0.813 4.14,1.027 1.36,0.24 1.943,0.864 2.052,1.333 0.267,1.161 -0.02,2.036 -0.02,2.036"
     id="path282" />
  <path
     style="fill:none;stroke:#231f20;stroke-width:0.565977;stroke-linecap:butt;stroke-linejoin:miter;stroke-miterlimit:4;stroke-dasharray:none;stroke-opacity:1"
     d="m 323.5778,68.656 c -0.385,1.235 -2.188,0.281 -2.693,0.109 -0.515,-0.181 -2.036,-0.525 -3.255,-0.64 -1.219,-0.109 -2.688,-0.776 -5.005,-1 -1.219,-0.114 -2.328,-0.994 -2.079,-2.76 0.24,-1.74 1.308,-2.256 2.762,-1.89 1.453,0.358 2.661,1.317 4.098,1.785 1.437,0.469 2.948,0.813 4.14,1.027 1.36,0.24 1.943,0.864 2.052,1.333 0.267,1.161 -0.02,2.036 -0.02,2.036 z"
     id="path283" />
  <path
     style="fill:none;stroke:#231f20;stroke-width:0.399514;stroke-linecap:butt;stroke-linejoin:miter;stroke-miterlimit:4;stroke-dasharray:none;stroke-opacity:1"
     d="m 246.8278,23.073 c -27.891,25.244 -2.359,44.271 4.516,46.62"
     id="path284" />
  <path
     style="fill:#231f20;fill-opacity:1;fill-rule:nonzero;stroke:none"
     d="m 252.4848,70.084 c -0.605,0.015 -1.385,0.124 -1.923,0.343 l 0.631,-0.786 -0.016,-1.01 c 0.287,0.505 0.839,1.072 1.308,1.453"
     id="path285" />
</svg>
