<?xml version="1.0" encoding="UTF-8" standalone="no"?>
<!-- Created with Inkscape (http://www.inkscape.org/) -->

<svg
   version="1.1"
   id="svg1"
   width="338.21591"
   height="164.98131"
   viewBox="0 0 338.2159 164.98131"
   sodipodi:docname="cell.svg"
   xmlns:inkscape="http://www.inkscape.org/namespaces/inkscape"
   xmlns:sodipodi="http://sodipodi.sourceforge.net/DTD/sodipodi-0.dtd"
   xmlns="http://www.w3.org/2000/svg"
   xmlns:svg="http://www.w3.org/2000/svg">
  <sodipodi:namedview
     id="namedview1"
     pagecolor="#ffffff"
     bordercolor="#000000"
     borderopacity="0.25"
     inkscape:showpageshadow="2"
     inkscape:pageopacity="0.0"
     inkscape:pagecheckerboard="0"
     inkscape:deskcolor="#d1d1d1">
    <inkscape:page
       x="0"
       y="0"
       inkscape:label="1"
       id="page1"
       width="338.21591"
       height="164.98131"
       margin="0"
       bleed="0" />
  </sodipodi:namedview>
  <defs
     id="defs1" />
  <path
     style="fill:#ffffff;fill-opacity:1;fill-rule:nonzero;stroke:none"
     d="m 0.332928,101.58619 c 0,0.688 0.557,1.24 1.24,1.24 H 208.04093 c 0.682,0 1.24,-0.552 1.24,-1.24 0,-0.683 -0.558,-1.24 -1.24,-1.24 H 1.572928 c -0.683,0 -1.24,0.557 -1.24,1.24"
     id="path1370" />
  <path
     style="fill:none;stroke:#231f20;stroke-width:0.665856;stroke-linecap:butt;stroke-linejoin:miter;stroke-miterlimit:4;stroke-dasharray:none;stroke-opacity:1"
     d="m 0.332928,101.58619 c 0,0.688 0.557,1.24 1.24,1.24 H 208.04093 c 0.682,0 1.24,-0.552 1.24,-1.24 0,-0.683 -0.558,-1.24 -1.24,-1.24 H 1.572928 c -0.683,0 -1.24,0.557 -1.24,1.24 z"
     id="path1371" />
  <path
     style="fill:#231f20;fill-opacity:1;fill-rule:nonzero;stroke:none"
     d="m 313.50293,85.315189 c 0.09,0.724 1.54,3.631 1.9,4.276 0.33,0.583 0.54,1.724 1.69,1.651 0.47,-0.026 1.14,-0.396 1.36,-0.62 0.19,-0.182 0.12,-0.51 -0.1,-0.834 -0.38,-0.552 -0.7,-0.562 -1.48,-1.572 0,0 -0.21,-0.213 -0.64,-0.568 -1.24,-1.057 -0.79,-0.474 -2.25,-2.412 -0.1,-0.134 -0.31,-0.129 -0.4,-0.057 -0.13,0.12 -0.08,0.136 -0.08,0.136"
     id="path1372" />
  <path
     style="fill:none;stroke:#231f20;stroke-width:0.565977;stroke-linecap:round;stroke-linejoin:round;stroke-miterlimit:4;stroke-dasharray:none;stroke-opacity:1"
     d="m 313.50293,85.315189 c 0.09,0.724 1.54,3.631 1.9,4.276 0.33,0.583 0.54,1.724 1.69,1.651 0.47,-0.026 1.14,-0.396 1.36,-0.62 0.19,-0.182 0.12,-0.51 -0.1,-0.834 -0.38,-0.552 -0.7,-0.562 -1.48,-1.572 0,0 -0.21,-0.213 -0.64,-0.568 -1.24,-1.057 -0.79,-0.474 -2.25,-2.412 -0.1,-0.134 -0.31,-0.129 -0.4,-0.057 -0.13,0.12 -0.08,0.136 -0.08,0.136 z"
     id="path1373" />
  <path
     style="fill:#231f20;fill-opacity:1;fill-rule:nonzero;stroke:none"
     d="m 328.14293,143.97119 c -2.24,-0.307 -2.72,-0.063 -2.91,0.88 -0.13,0.625 -0.46,1.161 -0.56,1.537 -0.31,1.255 -0.34,3.504 1.28,9.886 0.37,1.448 0.87,3.484 1,4.328 0.23,1.338 2.3,0.072 2.22,-0.459 -0.26,-1.693 -0.3,-2.875 -0.3,-3.5 -0.01,-0.427 -0.12,-1.183 0.06,-2.839 0.3,-2.51 0.84,-3.968 0.84,-6.082 0,-0.986 0.62,-1.724 0.12,-2.683 -0.49,-0.975 -1.75,-1.068 -1.75,-1.068"
     id="path1374" />
  <path
     style="fill:none;stroke:#231f20;stroke-width:0.565977;stroke-linecap:butt;stroke-linejoin:miter;stroke-miterlimit:4;stroke-dasharray:none;stroke-opacity:1"
     d="m 328.14293,143.97119 c -2.24,-0.307 -2.72,-0.063 -2.91,0.88 -0.13,0.625 -0.46,1.161 -0.56,1.537 -0.31,1.255 -0.34,3.504 1.28,9.886 0.37,1.448 0.87,3.484 1,4.328 0.23,1.338 2.3,0.072 2.22,-0.459 -0.26,-1.693 -0.3,-2.875 -0.3,-3.5 -0.01,-0.427 -0.12,-1.183 0.06,-2.839 0.3,-2.51 0.84,-3.968 0.84,-6.082 0,-0.986 0.62,-1.724 0.12,-2.683 -0.49,-0.975 -1.75,-1.068 -1.75,-1.068 z"
     id="path1375" />
  <path
     style="fill:#63c99d;fill-opacity:1;fill-rule:nonzero;stroke:none"
     d="m 325.26293,118.00319 c -0.06,3.135 -0.4,3.796 -0.79,4.64 -2.35,5.276 0.29,6.339 3.13,5.86 3.34,-0.553 4.56,-0.688 4.06,-6.964 -0.14,-1.745 0.21,-8.511 0.21,-8.511 0.45,-2.406 -0.39,-4.989 -1.59,-5.828 -1.25,-0.88 -0.81,-0.437 -2.13,-1.046 -1.25,-0.579 -3.42,-0.36 -4.12,0.661 -0.68,0.973 0.01,2.489 0.73,4.801 0.56,1.83 0.5,6.387 0.5,6.387"
     id="path1376" />
  <path
     style="fill:none;stroke:#231f20;stroke-width:0.565977;stroke-linecap:butt;stroke-linejoin:miter;stroke-miterlimit:4;stroke-dasharray:none;stroke-opacity:1"
     d="m 325.26293,118.00319 c -0.06,3.135 -0.4,3.796 -0.79,4.64 -2.35,5.276 0.29,6.339 3.13,5.86 3.34,-0.553 4.56,-0.688 4.06,-6.964 -0.14,-1.745 0.21,-8.511 0.21,-8.511 0.45,-2.406 -0.39,-4.989 -1.59,-5.828 -1.25,-0.88 -0.81,-0.437 -2.13,-1.046 -1.25,-0.579 -3.42,-0.36 -4.12,0.661 -0.68,0.973 0.01,2.489 0.73,4.801 0.56,1.83 0.5,6.387 0.5,6.387 z"
     id="path1377" />
  <path
     style="fill:#ffffff;fill-opacity:1;fill-rule:nonzero;stroke:none"
     d="m 331.04293,100.73119 c 0.06,-0.239 1.21,-0.244 1.25,-0.760001 0.03,-0.525 -0.71,-0.781 -1.43,-2.635 l -0.01,-0.021 c -0.48,-1.369 -1.45,-2.369 -2.69,-2.557 -2.05,-0.318 -4.06,1.692 -4.49,4.478 -0.43,2.798001 0.89,5.314001 2.94,5.626001 1.96,0.308 3.89,-1.526 4.43,-4.131"
     id="path1378" />
  <path
     style="fill:none;stroke:#231f20;stroke-width:0.565977;stroke-linecap:butt;stroke-linejoin:miter;stroke-miterlimit:4;stroke-dasharray:none;stroke-opacity:1"
     d="m 331.04293,100.73119 c 0.06,-0.239 1.21,-0.244 1.25,-0.760001 0.03,-0.525 -0.71,-0.781 -1.43,-2.635 l -0.01,-0.021 c -0.48,-1.369 -1.45,-2.369 -2.69,-2.557 -2.05,-0.318 -4.06,1.692 -4.49,4.478 -0.43,2.798001 0.89,5.314001 2.94,5.626001 1.96,0.308 3.89,-1.526 4.43,-4.131 z"
     id="path1379" />
  <path
     style="fill:#231f20;fill-opacity:1;fill-rule:nonzero;stroke:none"
     d="m 327.26293,146.27919 c 3.91,0.869 2.92,-3.089 3.03,-3.552 1.11,-4.887 1.07,-5.267 1.66,-9.043 0.84,-5.462 0.58,-9.333 -2.44,-10.754 -2.06,-0.964 -3.67,-0.631 -4.63,0.27 -1.06,1.006 -2.11,4.006 -0.31,6.271 l 0.2,1.699 c -0.02,1.161 -0.02,1.738 -0.07,2.312 -0.09,1 -0.13,2.068 -0.19,4.025 -0.13,3.475 0.88,7.183 0.88,7.183 -0.01,1.245 1.87,1.589 1.87,1.589"
     id="path1380" />
  <path
     style="fill:none;stroke:#231f20;stroke-width:0.565977;stroke-linecap:butt;stroke-linejoin:miter;stroke-miterlimit:4;stroke-dasharray:none;stroke-opacity:1"
     d="m 327.26293,146.27919 c 3.91,0.869 2.92,-3.089 3.03,-3.552 1.11,-4.887 1.07,-5.267 1.66,-9.043 0.84,-5.462 0.58,-9.333 -2.44,-10.754 -2.06,-0.964 -3.67,-0.631 -4.63,0.27 -1.06,1.006 -2.11,4.006 -0.31,6.271 l 0.2,1.699 c -0.02,1.161 -0.02,1.738 -0.07,2.312 -0.09,1 -0.13,2.068 -0.19,4.025 -0.13,3.475 0.88,7.183 0.88,7.183 -0.01,1.245 1.87,1.589 1.87,1.589 z"
     id="path1381" />
  <path
     style="fill:#63c99d;fill-opacity:1;fill-rule:nonzero;stroke:none"
     d="m 332.04293,125.77919 c -0.48,-1.48 -1.33,-2.553 -2.69,-3.105 -2.1,-0.848 -3.69,-0.427 -4.6,0.521 -1,1.063 -1.89,4.115 0.02,6.276 l 7.79,0.568 c 0.01,-0.651 -0.02,-1.256 -0.07,-1.839 0.02,-0.084 0.04,-0.161 0.07,-0.229 0.31,-0.745 0.01,-1.297 -0.52,-2.192"
     id="path1382" />
  <path
     style="fill:none;stroke:#231f20;stroke-width:0.565977;stroke-linecap:butt;stroke-linejoin:miter;stroke-miterlimit:4;stroke-dasharray:none;stroke-opacity:1"
     d="m 332.04293,125.77919 c -0.48,-1.48 -1.33,-2.553 -2.69,-3.105 -2.1,-0.848 -3.69,-0.427 -4.6,0.521 -1,1.063 -1.89,4.115 0.02,6.276 l 7.79,0.568 c 0.01,-0.651 -0.02,-1.256 -0.07,-1.839 0.02,-0.084 0.04,-0.161 0.07,-0.229 0.31,-0.745 0.01,-1.297 -0.52,-2.192 z"
     id="path1383" />
  <path
     style="fill:#231f20;fill-opacity:1;fill-rule:nonzero;stroke:none"
     d="m 317.73293,90.263189 c 0.57,0.296 1.3,2.104 2.42,3.255 0.76,0.776 1.71,3.354 2.52,4.068 0.75,0.656 1.02,1.03 0.42,2.01 -0.35,0.578001 -1.42,1.468001 -1.87,1.219001 -1.04,-0.579 -1.63,-1.323001 -2.09,-2.287001 -0.53,-1.093 -1.71,-4.188 -1.87,-4.776 -0.4,-1.469 -1,-1.901 -1.15,-2.281 -0.27,-0.713 -0.06,-0.995 0.36,-1.271 0.8,-0.521 1.26,0.063 1.26,0.063"
     id="path1384" />
  <path
     style="fill:none;stroke:#231f20;stroke-width:0.565977;stroke-linecap:butt;stroke-linejoin:miter;stroke-miterlimit:4;stroke-dasharray:none;stroke-opacity:1"
     d="m 317.73293,90.263189 c 0.57,0.296 1.3,2.104 2.42,3.255 0.76,0.776 1.71,3.354 2.52,4.068 0.75,0.656 1.02,1.03 0.42,2.01 -0.35,0.578001 -1.42,1.468001 -1.87,1.219001 -1.04,-0.579 -1.63,-1.323001 -2.09,-2.287001 -0.53,-1.093 -1.71,-4.188 -1.87,-4.776 -0.4,-1.469 -1,-1.901 -1.15,-2.281 -0.27,-0.713 -0.06,-0.995 0.36,-1.271 0.8,-0.521 1.26,0.063 1.26,0.063 z"
     id="path1385" />
  <path
     style="fill:#231f20;fill-opacity:1;fill-rule:nonzero;stroke:none"
     d="m 322.26293,98.112189 c 1.18,-0.521 1.64,1.468 1.85,1.968001 0.2,0.506 0.94,1.875 1.65,2.866 0.71,1 1.18,2.546 2.53,4.437 0.71,0.995 0.77,2.411 -0.72,3.38 -1.47,0.959 -2.56,0.489 -3.24,-0.839 -0.68,-1.333 -0.76,-2.874 -1.34,-4.265 -0.59,-1.391 -1.32,-2.756 -1.94,-3.797 -0.72,-1.188 -0.63,-2.042001 -0.34,-2.427001 0.7,-0.964 1.55,-1.323 1.55,-1.323"
     id="path1386" />
  <path
     style="fill:none;stroke:#231f20;stroke-width:0.565977;stroke-linecap:butt;stroke-linejoin:miter;stroke-miterlimit:4;stroke-dasharray:none;stroke-opacity:1"
     d="m 322.26293,98.112189 c 1.18,-0.521 1.64,1.468 1.85,1.968001 0.2,0.506 0.94,1.875 1.65,2.866 0.71,1 1.18,2.546 2.53,4.437 0.71,0.995 0.77,2.411 -0.72,3.38 -1.47,0.959 -2.56,0.489 -3.24,-0.839 -0.68,-1.333 -0.76,-2.874 -1.34,-4.265 -0.59,-1.391 -1.32,-2.756 -1.94,-3.797 -0.72,-1.188 -0.63,-2.042001 -0.34,-2.427001 0.7,-0.964 1.55,-1.323 1.55,-1.323 z"
     id="path1387" />
  <path
     style="fill:#231f20;fill-opacity:1;fill-rule:nonzero;stroke:none"
     d="m 327.37293,164.31519 c -1.08,-0.073 -0.81,-1.297 -0.56,-2.495 0.07,-0.308 0.1,-0.594 0.19,-0.88 0.36,-1.177 1.18,-1.818 3.11,0.474 0.06,0.089 1.89,1.292 2.46,1.546 2.73,1.21 2.96,0.402 2.73,1.21 -0.16,0.53 -0.67,0.536 -1.3,0.525 -0.85,-0.016 -3.86,-0.328 -4.32,-0.349 -0.45,-0.01 -2.31,-0.031 -2.31,-0.031"
     id="path1388" />
  <path
     style="fill:none;stroke:#231f20;stroke-width:0.565977;stroke-linecap:butt;stroke-linejoin:miter;stroke-miterlimit:4;stroke-dasharray:none;stroke-opacity:1"
     d="m 327.37293,164.31519 c -1.08,-0.073 -0.81,-1.297 -0.56,-2.495 0.07,-0.308 0.1,-0.594 0.19,-0.88 0.36,-1.177 1.18,-1.818 3.11,0.474 0.06,0.089 1.89,1.292 2.46,1.546 2.73,1.21 2.96,0.402 2.73,1.21 -0.16,0.53 -0.67,0.536 -1.3,0.525 -0.85,-0.016 -3.86,-0.328 -4.32,-0.349 -0.45,-0.01 -2.31,-0.031 -2.31,-0.031 z"
     id="path1390" />
  <path
     style="fill:#231f20;fill-opacity:1;fill-rule:nonzero;stroke:none"
     d="m 202.17093,87.102189 c -0.474,-0.547 -3.302,-2.162 -3.958,-2.495 -0.594,-0.308 -1.396,-1.136 -2.318,-0.437 -0.374,0.28 -0.724,0.957 -0.786,1.27 -0.052,0.255 0.177,0.49 0.546,0.635 0.626,0.251 0.891,0.084 2.104,0.495 0,0 0.298,0.052 0.844,0.109 1.626,0.193 0.932,-0.041 3.208,0.756 0.163,0.057 0.339,-0.063 0.371,-0.172 0.047,-0.177 -0.011,-0.161 -0.011,-0.161"
     id="path1392" />
  <path
     style="fill:none;stroke:#231f20;stroke-width:0.565977;stroke-linecap:round;stroke-linejoin:round;stroke-miterlimit:4;stroke-dasharray:none;stroke-opacity:1"
     d="m 202.17093,87.102189 c -0.474,-0.547 -3.302,-2.162 -3.958,-2.495 -0.594,-0.308 -1.396,-1.136 -2.318,-0.437 -0.374,0.28 -0.724,0.957 -0.786,1.27 -0.052,0.255 0.177,0.49 0.546,0.635 0.626,0.251 0.891,0.084 2.104,0.495 0,0 0.298,0.052 0.844,0.109 1.626,0.193 0.932,-0.041 3.208,0.756 0.163,0.057 0.339,-0.063 0.371,-0.172 0.047,-0.177 -0.011,-0.161 -0.011,-0.161 z"
     id="path1393" />
  <path
     style="fill:#231f20;fill-opacity:1;fill-rule:nonzero;stroke:none"
     d="m 209.77493,36.398189 c 0.194,1.333 -0.677,1.819 -1.692,1.62 -0.302,-0.057 -0.62,0.204 -0.917,0.125 -0.672,-0.197 -1.473,-1.745 -0.349,-2.745 0.084,-0.061 0.505,-0.765 0.901,-1.244 0.781,-0.928 2.792,-2.401 5.459,-1.98 1.26,0.204 0.906,0.912 0.369,0.985 -1.692,0.23 -1.801,0.583 -2.224,0.807 -1.443,0.745 -1.547,2.432 -1.547,2.432"
     id="path1394" />
  <path
     style="fill:none;stroke:#231f20;stroke-width:0.332927;stroke-linecap:butt;stroke-linejoin:miter;stroke-miterlimit:4;stroke-dasharray:none;stroke-opacity:1"
     d="m 209.77493,36.398189 c 0.194,1.333 -0.677,1.819 -1.692,1.62 -0.302,-0.057 -0.62,0.204 -0.917,0.125 -0.672,-0.197 -1.473,-1.745 -0.349,-2.745 0.084,-0.061 0.505,-0.765 0.901,-1.244 0.781,-0.928 2.792,-2.401 5.459,-1.98 1.26,0.204 0.906,0.912 0.369,0.985 -1.692,0.23 -1.801,0.583 -2.224,0.807 -1.443,0.745 -1.547,2.432 -1.547,2.432 z"
     id="path1395" />
  <path
     style="fill:#231f20;fill-opacity:1;fill-rule:nonzero;stroke:none"
     d="m 195.53093,48.581189 c 1.395,1.786 1.911,1.948 2.698,1.406 0.53,-0.354 1.14,-0.505 1.473,-0.708 1.105,-0.688 2.683,-2.276 5.985,-7.974 0.744,-1.298 1.807,-3.104 2.302,-3.807 0.781,-1.104 -1.594,-1.652 -1.906,-1.219 -1,1.395 -1.797,2.271 -2.229,2.734 -0.292,0.302 -0.735,0.922 -2.027,1.969 -1.962,1.604 -3.369,2.265 -4.844,3.787 -0.686,0.702 -1.645,0.79 -1.962,1.833 -0.328,1.036 0.51,1.979 0.51,1.979"
     id="path1396" />
  <path
     style="fill:none;stroke:#231f20;stroke-width:0.565977;stroke-linecap:butt;stroke-linejoin:miter;stroke-miterlimit:4;stroke-dasharray:none;stroke-opacity:1"
     d="m 195.53093,48.581189 c 1.395,1.786 1.911,1.948 2.698,1.406 0.53,-0.354 1.14,-0.505 1.473,-0.708 1.105,-0.688 2.683,-2.276 5.985,-7.974 0.744,-1.298 1.807,-3.104 2.302,-3.807 0.781,-1.104 -1.594,-1.652 -1.906,-1.219 -1,1.395 -1.797,2.271 -2.229,2.734 -0.292,0.302 -0.735,0.922 -2.027,1.969 -1.962,1.604 -3.369,2.265 -4.844,3.787 -0.686,0.702 -1.645,0.79 -1.962,1.833 -0.328,1.036 0.51,1.979 0.51,1.979 z"
     id="path1397" />
  <path
     style="fill:#63c99d;fill-opacity:1;fill-rule:nonzero;stroke:none"
     d="m 182.53093,70.127189 c 1.244,-2.875 1.823,-3.353 2.495,-3.995 4.192,-3.973 2.156,-5.958 -0.652,-6.604 -3.301,-0.765 -4.468,-1.109 -6.411,4.88 -0.537,1.672 -3.442,7.787 -3.442,7.787 -1.334,2.052 -1.543,4.765 -0.767,5.995 0.829,1.292 0.6,0.718 1.573,1.776 0.938,1.016 3.027,1.646 4.068,0.969 1,-0.647 0.938,-2.303 1.156,-4.724 0.178,-1.896 1.98,-6.084 1.98,-6.084"
     id="path1398" />
  <path
     style="fill:none;stroke:#231f20;stroke-width:0.565977;stroke-linecap:butt;stroke-linejoin:miter;stroke-miterlimit:4;stroke-dasharray:none;stroke-opacity:1"
     d="m 182.53093,70.127189 c 1.244,-2.875 1.823,-3.353 2.495,-3.995 4.192,-3.973 2.156,-5.958 -0.652,-6.604 -3.301,-0.765 -4.468,-1.109 -6.411,4.88 -0.537,1.672 -3.442,7.787 -3.442,7.787 -1.334,2.052 -1.543,4.765 -0.767,5.995 0.829,1.292 0.6,0.718 1.573,1.776 0.938,1.016 3.027,1.646 4.068,0.969 1,-0.647 0.938,-2.303 1.156,-4.724 0.178,-1.896 1.98,-6.084 1.98,-6.084 z"
     id="path1399" />
  <path
     style="fill:#ffffff;fill-opacity:1;fill-rule:nonzero;stroke:none"
     d="m 173.14493,87.788189 c 0.037,0.246 -1.015,0.704 -0.843,1.199 0.176,0.495 0.963,0.427 2.359,1.839 l 0.016,0.02 c 0.989,1.062 2.276,1.589 3.489,1.27 2.005,-0.53 3.052,-3.176 2.328,-5.9 -0.724,-2.734 -2.937,-4.516 -4.943,-3.99 -1.921,0.501 -2.964,2.953 -2.406,5.562"
     id="path1400" />
  <path
     style="fill:none;stroke:#231f20;stroke-width:0.565977;stroke-linecap:butt;stroke-linejoin:miter;stroke-miterlimit:4;stroke-dasharray:none;stroke-opacity:1"
     d="m 173.14493,87.788189 c 0.037,0.246 -1.015,0.704 -0.843,1.199 0.176,0.495 0.963,0.427 2.359,1.839 l 0.016,0.02 c 0.989,1.062 2.276,1.589 3.489,1.27 2.005,-0.53 3.052,-3.176 2.328,-5.9 -0.724,-2.734 -2.937,-4.516 -4.943,-3.99 -1.921,0.501 -2.964,2.953 -2.406,5.562 z"
     id="path1401" />
  <path
     style="fill:#231f20;fill-opacity:1;fill-rule:nonzero;stroke:none"
     d="m 197.76993,47.550189 c -2.192,-3.36 -4.249,0.161 -4.651,0.432 -4.202,2.719 -4.437,3.016 -7.494,5.307 -4.418,3.328 -6.943,6.281 -5.76,9.411 0.806,2.131 2.181,3.011 3.504,3.036 1.458,0.016 4.308,-1.4 4.594,-4.276 l 1.047,-1.353 c 0.823,-0.819 1.224,-1.235 1.656,-1.609 0.771,-0.652 1.547,-1.396 2.959,-2.751 2.51,-2.396 4.374,-5.754 4.374,-5.754 0.88,-0.88 -0.229,-2.443 -0.229,-2.443"
     id="path1402" />
  <path
     style="fill:none;stroke:#231f20;stroke-width:0.565977;stroke-linecap:butt;stroke-linejoin:miter;stroke-miterlimit:4;stroke-dasharray:none;stroke-opacity:1"
     d="m 197.76993,47.550189 c -2.192,-3.36 -4.249,0.161 -4.651,0.432 -4.202,2.719 -4.437,3.016 -7.494,5.307 -4.418,3.328 -6.943,6.281 -5.76,9.411 0.806,2.131 2.181,3.011 3.504,3.036 1.458,0.016 4.308,-1.4 4.594,-4.276 l 1.047,-1.353 c 0.823,-0.819 1.224,-1.235 1.656,-1.609 0.771,-0.652 1.547,-1.396 2.959,-2.751 2.51,-2.396 4.374,-5.754 4.374,-5.754 0.88,-0.88 -0.229,-2.443 -0.229,-2.443 z"
     id="path1403" />
  <path
     style="fill:#63c99d;fill-opacity:1;fill-rule:nonzero;stroke:#231f20;stroke-width:0.565977;stroke-linecap:butt;stroke-linejoin:miter;stroke-miterlimit:4;stroke-dasharray:none;stroke-opacity:1"
     d="m 182.00993,55.545189 c -0.412,0.516 -0.76,1.01 -1.079,1.5 -0.062,0.052 -0.129,0.104 -0.192,0.14 -0.704,0.401 -0.808,1.021 -0.932,2.057 -0.521,1.458 -0.516,2.818 0.228,4.094 1.147,1.963 2.652,2.599 3.959,2.4 1.443,-0.218 4.011,-2.088 3.823,-4.968 z"
     id="path1404" />
  <path
     style="fill:#231f20;fill-opacity:1;fill-rule:nonzero;stroke:none"
     d="m 195.52093,85.872189 c -0.631,0.135 -2.334,-0.808 -3.934,-0.989 -1.077,-0.12 -3.442,-1.521 -4.53,-1.557 -0.99,-0.047 -1.438,-0.152 -1.594,-1.292 -0.084,-0.678 0.178,-2.042 0.678,-2.126 1.17,-0.218 2.098,0 3.066,0.443 1.104,0.511 3.975,2.161 4.475,2.516 1.239,0.885 1.979,0.844 2.328,1.047 0.661,0.38 0.683,0.724 0.525,1.202 -0.29,0.918 -1.014,0.756 -1.014,0.756"
     id="path1405" />
  <path
     style="fill:none;stroke:#231f20;stroke-width:0.565977;stroke-linecap:butt;stroke-linejoin:miter;stroke-miterlimit:4;stroke-dasharray:none;stroke-opacity:1"
     d="m 195.52093,85.872189 c -0.631,0.135 -2.334,-0.808 -3.934,-0.989 -1.077,-0.12 -3.442,-1.521 -4.53,-1.557 -0.99,-0.047 -1.438,-0.152 -1.594,-1.292 -0.084,-0.678 0.178,-2.042 0.678,-2.126 1.17,-0.218 2.098,0 3.066,0.443 1.104,0.511 3.975,2.161 4.475,2.516 1.239,0.885 1.979,0.844 2.328,1.047 0.661,0.38 0.683,0.724 0.525,1.202 -0.29,0.918 -1.014,0.756 -1.014,0.756 z"
     id="path1406" />
  <path
     style="fill:#231f20;fill-opacity:1;fill-rule:nonzero;stroke:none"
     d="m 187.05093,82.654189 c -0.588,1.15 -2.202,-0.095 -2.672,-0.35 -0.473,-0.27 -1.916,-0.864 -3.098,-1.182 -1.183,-0.323 -2.522,-1.23 -4.766,-1.839 -1.177,-0.317 -2.125,-1.38 -1.584,-3.072 0.538,-1.672 1.672,-2 3.047,-1.396 1.371,0.604 2.396,1.755 3.735,2.453 1.338,0.708 2.765,1.302 3.906,1.719 1.302,0.468 1.766,1.183 1.798,1.661 0.061,1.192 -0.366,2.006 -0.366,2.006"
     id="path1407" />
  <path
     style="fill:none;stroke:#231f20;stroke-width:0.565977;stroke-linecap:butt;stroke-linejoin:miter;stroke-miterlimit:4;stroke-dasharray:none;stroke-opacity:1"
     d="m 187.05093,82.654189 c -0.588,1.15 -2.202,-0.095 -2.672,-0.35 -0.473,-0.27 -1.916,-0.864 -3.098,-1.182 -1.183,-0.323 -2.522,-1.23 -4.766,-1.839 -1.177,-0.317 -2.125,-1.38 -1.584,-3.072 0.538,-1.672 1.672,-2 3.047,-1.396 1.371,0.604 2.396,1.755 3.735,2.453 1.338,0.708 2.765,1.302 3.906,1.719 1.302,0.468 1.766,1.183 1.798,1.661 0.061,1.192 -0.366,2.006 -0.366,2.006 z"
     id="path1408" />
  <path
     style="fill:#ffffff;fill-opacity:1;fill-rule:nonzero;stroke:none"
     d="m 297.95293,64.966189 c -1.83,-1.323 -2.37,-1.334 -2.98,-0.594 -0.41,0.495 -0.95,0.807 -1.21,1.099 -0.87,0.959 -1.95,2.932 -3.52,9.317 -0.36,1.454 -0.88,3.491 -1.16,4.298 -0.44,1.286 1.99,1.145 2.17,0.641 0.57,-1.615 1.1,-2.683 1.38,-3.24 0.2,-0.375 0.45,-1.093 1.4,-2.464 1.44,-2.083 2.6,-3.115 3.6,-4.984 0.46,-0.865 1.36,-1.224 1.37,-2.308 0.02,-1.083 -1.05,-1.765 -1.05,-1.765"
     id="path1409" />
  <path
     style="fill:none;stroke:#231f20;stroke-width:0.565977;stroke-linecap:butt;stroke-linejoin:miter;stroke-miterlimit:4;stroke-dasharray:none;stroke-opacity:1"
     d="m 297.95293,64.966189 c -1.83,-1.323 -2.37,-1.334 -2.98,-0.594 -0.41,0.495 -0.95,0.807 -1.21,1.099 -0.87,0.959 -1.95,2.932 -3.52,9.317 -0.36,1.454 -0.88,3.491 -1.16,4.298 -0.44,1.286 1.99,1.145 2.17,0.641 0.57,-1.615 1.1,-2.683 1.38,-3.24 0.2,-0.375 0.45,-1.093 1.4,-2.464 1.44,-2.083 2.6,-3.115 3.6,-4.984 0.46,-0.865 1.36,-1.224 1.37,-2.308 0.02,-1.083 -1.05,-1.765 -1.05,-1.765 z"
     id="path1410" />
  <path
     style="fill:#ffffff;fill-opacity:1;fill-rule:nonzero;stroke:none"
     d="m 296.09293,66.586189 c 3.05,2.62 4.04,-1.344 4.34,-1.708 3.28,-3.787 3.43,-4.136 5.73,-7.199 3.31,-4.421 4.91,-7.952 2.9,-10.634 -1.36,-1.823 -2.94,-2.282 -4.21,-1.932 -1.41,0.385 -3.74,2.536 -3.22,5.38 l -0.63,1.593 c -0.56,1.016 -0.83,1.527 -1.14,2.011 -0.56,0.833 -1.09,1.765 -2.07,3.458 -1.74,3.004 -2.6,6.749 -2.6,6.749 -0.6,1.094 0.9,2.282 0.9,2.282"
     id="path1411" />
  <path
     style="fill:none;stroke:#231f20;stroke-width:0.565977;stroke-linecap:butt;stroke-linejoin:miter;stroke-miterlimit:4;stroke-dasharray:none;stroke-opacity:1"
     d="m 296.09293,66.586189 c 3.05,2.62 4.04,-1.344 4.34,-1.708 3.28,-3.787 3.43,-4.136 5.73,-7.199 3.31,-4.421 4.91,-7.952 2.9,-10.634 -1.36,-1.823 -2.94,-2.282 -4.21,-1.932 -1.41,0.385 -3.74,2.536 -3.22,5.38 l -0.63,1.593 c -0.56,1.016 -0.83,1.527 -1.14,2.011 -0.56,0.833 -1.09,1.765 -2.07,3.458 -1.74,3.004 -2.6,6.749 -2.6,6.749 -0.6,1.094 0.9,2.282 0.9,2.282 z"
     id="path1412" />
  <path
     style="fill:#231f20;fill-opacity:1;fill-rule:nonzero;stroke:none"
     d="m 290.16293,82.174189 c -0.65,-1.187 -0.01,-1.943 1.01,-2.11 0.3,-0.057 0.51,-0.41 0.82,-0.442 0.7,-0.052 1.99,1.12 1.29,2.442 -0.05,0.095 -0.21,0.902 -0.41,1.486 -0.41,1.145 -1.77,3.238 -4.41,3.765 -1.26,0.255 -1.17,-0.527 -0.7,-0.787 1.51,-0.812 1.49,-1.177 1.8,-1.536 1.09,-1.204 0.6,-2.818 0.6,-2.818"
     id="path1413" />
  <path
     style="fill:none;stroke:#231f20;stroke-width:0.332927;stroke-linecap:butt;stroke-linejoin:miter;stroke-miterlimit:4;stroke-dasharray:none;stroke-opacity:1"
     d="m 290.16293,82.174189 c -0.65,-1.187 -0.01,-1.943 1.01,-2.11 0.3,-0.057 0.51,-0.41 0.82,-0.442 0.7,-0.052 1.99,1.12 1.29,2.442 -0.05,0.095 -0.21,0.902 -0.41,1.486 -0.41,1.145 -1.77,3.238 -4.41,3.765 -1.26,0.255 -1.17,-0.527 -0.7,-0.787 1.51,-0.812 1.49,-1.177 1.8,-1.536 1.09,-1.204 0.6,-2.818 0.6,-2.818 z"
     id="path1414" />
  <path
     style="fill:#231f20;fill-opacity:1;fill-rule:nonzero;stroke:none"
     d="m 299.22293,65.758189 c -1.93,-1.178 -2.46,-1.146 -3.02,-0.36 -0.37,0.521 -0.89,0.876 -1.13,1.182 -0.79,1.027 -1.71,3.074 -2.8,9.563 -0.25,1.473 -0.61,3.541 -0.83,4.369 -0.34,1.314 2.08,0.991 2.21,0.475 0.46,-1.656 0.89,-2.761 1.14,-3.333 0.16,-0.396 0.36,-1.131 1.2,-2.568 1.28,-2.183 2.36,-3.298 3.21,-5.24 0.39,-0.9 1.26,-1.323 1.2,-2.406 -0.07,-1.084 -1.18,-1.682 -1.18,-1.682"
     id="path1415" />
  <path
     style="fill:none;stroke:#231f20;stroke-width:0.565977;stroke-linecap:butt;stroke-linejoin:miter;stroke-miterlimit:4;stroke-dasharray:none;stroke-opacity:1"
     d="m 299.22293,65.758189 c -1.93,-1.178 -2.46,-1.146 -3.02,-0.36 -0.37,0.521 -0.89,0.876 -1.13,1.182 -0.79,1.027 -1.71,3.074 -2.8,9.563 -0.25,1.473 -0.61,3.541 -0.83,4.369 -0.34,1.314 2.08,0.991 2.21,0.475 0.46,-1.656 0.89,-2.761 1.14,-3.333 0.16,-0.396 0.36,-1.131 1.2,-2.568 1.28,-2.183 2.36,-3.298 3.21,-5.24 0.39,-0.9 1.26,-1.323 1.2,-2.406 -0.07,-1.084 -1.18,-1.682 -1.18,-1.682 z"
     id="path1416" />
  <path
     style="fill:#63c99d;fill-opacity:1;fill-rule:nonzero;stroke:none"
     d="m 306.79293,40.783189 c -1.17,2.912 -1.74,3.402 -2.39,4.058 -4.09,4.084 -2.01,6.016 0.81,6.589 3.33,0.683 4.5,0.989 6.3,-5.041 0.49,-1.688 3.24,-7.876 3.24,-7.876 1.28,-2.083 1.42,-4.802 0.61,-6.01 -0.86,-1.277 -0.61,-0.704 -1.62,-1.74 -0.96,-0.989 -3.07,-1.562 -4.09,-0.865 -0.98,0.667 -0.88,2.333 -1.04,4.751 -0.12,1.906 -1.82,6.134 -1.82,6.134"
     id="path1417" />
  <path
     style="fill:none;stroke:#231f20;stroke-width:0.565977;stroke-linecap:butt;stroke-linejoin:miter;stroke-miterlimit:4;stroke-dasharray:none;stroke-opacity:1"
     d="m 306.79293,40.783189 c -1.17,2.912 -1.74,3.402 -2.39,4.058 -4.09,4.084 -2.01,6.016 0.81,6.589 3.33,0.683 4.5,0.989 6.3,-5.041 0.49,-1.688 3.24,-7.876 3.24,-7.876 1.28,-2.083 1.42,-4.802 0.61,-6.01 -0.86,-1.277 -0.61,-0.704 -1.62,-1.74 -0.96,-0.989 -3.07,-1.562 -4.09,-0.865 -0.98,0.667 -0.88,2.333 -1.04,4.751 -0.12,1.906 -1.82,6.134 -1.82,6.134 z"
     id="path1418" />
  <path
     style="fill:#ffffff;fill-opacity:1;fill-rule:nonzero;stroke:none"
     d="m 318.38293,26.731189 c 0.14,-0.197 1.21,0.215 1.43,-0.265 0.23,-0.473 -0.38,-0.979 -0.39,-2.968 v -0.016 c 0.05,-1.459 -0.5,-2.735 -1.59,-3.36 -1.8,-1.025 -4.4,0.125 -5.8,2.579 -1.4,2.453 -1.08,5.276 0.73,6.306 1.72,0.986 4.18,-0.03 5.62,-2.276"
     id="path1419" />
  <path
     style="fill:none;stroke:#231f20;stroke-width:0.565977;stroke-linecap:butt;stroke-linejoin:miter;stroke-miterlimit:4;stroke-dasharray:none;stroke-opacity:1"
     d="m 318.38293,26.731189 c 0.14,-0.197 1.21,0.215 1.43,-0.265 0.23,-0.473 -0.38,-0.979 -0.39,-2.968 v -0.016 c 0.05,-1.459 -0.5,-2.735 -1.59,-3.36 -1.8,-1.025 -4.4,0.125 -5.8,2.579 -1.4,2.453 -1.08,5.276 0.73,6.306 1.72,0.986 4.18,-0.03 5.62,-2.276 z"
     id="path1420" />
  <path
     style="fill:#231f20;fill-opacity:1;fill-rule:nonzero;stroke:none"
     d="m 297.49293,67.518189 c 3.23,2.374 3.92,-1.646 4.2,-2.031 2.98,-4.027 3.1,-4.385 5.16,-7.609 2.97,-4.661 4.29,-8.308 2.08,-10.833 -1.49,-1.708 -3.1,-2.047 -4.34,-1.61 -1.37,0.495 -3.54,2.818 -2.8,5.615 l -0.51,1.635 c -0.48,1.057 -0.71,1.584 -0.99,2.089 -0.49,0.88 -0.95,1.843 -1.8,3.609 -1.5,3.129 -2.08,6.927 -2.08,6.927 -0.51,1.136 1.08,2.208 1.08,2.208"
     id="path1421" />
  <path
     style="fill:none;stroke:#231f20;stroke-width:0.565977;stroke-linecap:butt;stroke-linejoin:miter;stroke-miterlimit:4;stroke-dasharray:none;stroke-opacity:1"
     d="m 297.49293,67.518189 c 3.23,2.374 3.92,-1.646 4.2,-2.031 2.98,-4.027 3.1,-4.385 5.16,-7.609 2.97,-4.661 4.29,-8.308 2.08,-10.833 -1.49,-1.708 -3.1,-2.047 -4.34,-1.61 -1.37,0.495 -3.54,2.818 -2.8,5.615 l -0.51,1.635 c -0.48,1.057 -0.71,1.584 -0.99,2.089 -0.49,0.88 -0.95,1.843 -1.8,3.609 -1.5,3.129 -2.08,6.927 -2.08,6.927 -0.51,1.136 1.08,2.208 1.08,2.208 z"
     id="path1422" />
  <path
     style="fill:#63c99d;fill-opacity:1;fill-rule:nonzero;stroke:none"
     d="m 310.20293,50.269189 c -0.02,-1.552 -0.51,-2.823 -1.65,-3.756 -1.76,-1.438 -3.39,-1.506 -4.54,-0.864 -1.28,0.713 -3.03,3.364 -1.84,6 l 7.27,2.849 c 0.21,-0.625 0.36,-1.215 0.48,-1.787 0.05,-0.068 0.09,-0.136 0.13,-0.188 0.52,-0.625 0.4,-1.244 0.15,-2.254"
     id="path1423" />
  <path
     style="fill:none;stroke:#231f20;stroke-width:0.565977;stroke-linecap:butt;stroke-linejoin:miter;stroke-miterlimit:4;stroke-dasharray:none;stroke-opacity:1"
     d="m 310.20293,50.269189 c -0.02,-1.552 -0.51,-2.823 -1.65,-3.756 -1.76,-1.438 -3.39,-1.506 -4.54,-0.864 -1.28,0.713 -3.03,3.364 -1.84,6 l 7.27,2.849 c 0.21,-0.625 0.36,-1.215 0.48,-1.787 0.05,-0.068 0.09,-0.136 0.13,-0.188 0.52,-0.625 0.4,-1.244 0.15,-2.254 z"
     id="path1424" />
  <path
     style="fill:#231f20;fill-opacity:1;fill-rule:nonzero;stroke:none"
     d="m 287.68293,80.648189 c -0.56,-1.229 0.13,-1.937 1.17,-2.026 0.3,-0.036 0.54,-0.375 0.84,-0.38 0.71,0 1.9,1.265 1.1,2.537 -0.05,0.083 -0.27,0.88 -0.52,1.447 -0.49,1.11 -2,3.089 -4.68,3.422 -1.27,0.156 -1.12,-0.62 -0.64,-0.838 1.57,-0.694 1.58,-1.063 1.92,-1.396 1.17,-1.12 0.81,-2.766 0.81,-2.766"
     id="path1425" />
  <path
     style="fill:none;stroke:#231f20;stroke-width:0.332927;stroke-linecap:butt;stroke-linejoin:miter;stroke-miterlimit:4;stroke-dasharray:none;stroke-opacity:1"
     d="m 287.68293,80.648189 c -0.56,-1.229 0.13,-1.937 1.17,-2.026 0.3,-0.036 0.54,-0.375 0.84,-0.38 0.71,0 1.9,1.265 1.1,2.537 -0.05,0.083 -0.27,0.88 -0.52,1.447 -0.49,1.11 -2,3.089 -4.68,3.422 -1.27,0.156 -1.12,-0.62 -0.64,-0.838 1.57,-0.694 1.58,-1.063 1.92,-1.396 1.17,-1.12 0.81,-2.766 0.81,-2.766 z"
     id="path1426" />
  <path
     style="fill:#63c99d;fill-opacity:1;fill-rule:nonzero;stroke:none"
     d="m 44.868928,75.044189 c -3.036,-0.776 -3.604,-1.27 -4.337,-1.838 -4.59,-3.506 -6.23,-1.188 -6.423,1.686 -0.235,3.387 -0.385,4.595 5.833,5.563 1.735,0.272 8.235,2.167 8.235,2.167 2.24,1 4.948,0.776 6.036,-0.187 1.151,-1.027 0.62,-0.704 1.511,-1.833 0.854,-1.09 1.141,-3.256 0.312,-4.172 -0.791,-0.88 -2.427,-0.558 -4.843,-0.396 -1.912,0.125 -6.324,-0.99 -6.324,-0.99"
     id="path1427" />
  <path
     style="fill:none;stroke:#231f20;stroke-width:0.565977;stroke-linecap:butt;stroke-linejoin:miter;stroke-miterlimit:4;stroke-dasharray:none;stroke-opacity:1"
     d="m 44.868928,75.044189 c -3.036,-0.776 -3.604,-1.27 -4.337,-1.838 -4.59,-3.506 -6.23,-1.188 -6.423,1.686 -0.235,3.387 -0.385,4.595 5.833,5.563 1.735,0.272 8.235,2.167 8.235,2.167 2.24,1 4.948,0.776 6.036,-0.187 1.151,-1.027 0.62,-0.704 1.511,-1.833 0.854,-1.09 1.141,-3.256 0.312,-4.172 -0.791,-0.88 -2.427,-0.558 -4.843,-0.396 -1.912,0.125 -6.324,-0.99 -6.324,-0.99 z"
     id="path1428" />
  <path
     style="fill:#ffffff;fill-opacity:1;fill-rule:nonzero;stroke:none"
     d="m 64.400928,81.112189 c 0.213,-0.125 1.025,0.692 1.421,0.354 0.402,-0.344 0.052,-1.052 0.871,-2.864 l 0.004,-0.022 c 0.641,-1.306 0.672,-2.697 -0.067,-3.708 -1.218,-1.688 -4.057,-1.702 -6.344,-0.052 -2.292,1.656 -3.15,4.37 -1.937,6.047 1.161,1.609 3.828,1.697 6.052,0.245"
     id="path1429" />
  <path
     style="fill:none;stroke:#231f20;stroke-width:0.565977;stroke-linecap:butt;stroke-linejoin:miter;stroke-miterlimit:4;stroke-dasharray:none;stroke-opacity:1"
     d="m 64.400928,81.112189 c 0.213,-0.125 1.025,0.692 1.421,0.354 0.402,-0.344 0.052,-1.052 0.871,-2.864 l 0.004,-0.022 c 0.641,-1.306 0.672,-2.697 -0.067,-3.708 -1.218,-1.688 -4.057,-1.702 -6.344,-0.052 -2.292,1.656 -3.15,4.37 -1.937,6.047 1.161,1.609 3.828,1.697 6.052,0.245 z"
     id="path1430" />
  <path
     style="fill:#231f20;fill-opacity:1;fill-rule:nonzero;stroke:none"
     d="m 49.217928,99.700189 c -0.286,-0.573 0.183,-2.469 -0.057,-4.057 -0.161,-1.073 0.579,-3.713 0.333,-4.771 -0.218,-0.969 -0.229,-1.437 0.834,-1.874 0.63,-0.262 2.016,-0.36 2.229,0.104 0.511,1.077 0.547,2.025 0.36,3.072 -0.209,1.204 -1.063,4.401 -1.272,4.974 -0.531,1.427 -0.301,2.131 -0.405,2.522 -0.199,0.733001 -0.532,0.837001 -1.032,0.817001 -0.958,-0.041 -0.99,-0.787001 -0.99,-0.787001"
     id="path1431" />
  <path
     style="fill:none;stroke:#231f20;stroke-width:0.565977;stroke-linecap:butt;stroke-linejoin:miter;stroke-miterlimit:4;stroke-dasharray:none;stroke-opacity:1"
     d="m 49.217928,99.700189 c -0.286,-0.573 0.183,-2.469 -0.057,-4.057 -0.161,-1.073 0.579,-3.713 0.333,-4.771 -0.218,-0.969 -0.229,-1.437 0.834,-1.874 0.63,-0.262 2.016,-0.36 2.229,0.104 0.511,1.077 0.547,2.025 0.36,3.072 -0.209,1.204 -1.063,4.401 -1.272,4.974 -0.531,1.427 -0.301,2.131 -0.405,2.522 -0.199,0.733001 -0.532,0.837001 -1.032,0.817001 -0.958,-0.041 -0.99,-0.787001 -0.99,-0.787001 z"
     id="path1432" />
  <path
     style="fill:#231f20;fill-opacity:1;fill-rule:nonzero;stroke:none"
     d="m 50.144928,90.690189 c -1.271,-0.276 -0.484,-2.156 -0.353,-2.678 0.129,-0.53 0.333,-2.072 0.333,-3.29 0.005,-1.23 0.536,-2.756 0.547,-5.084 0,-1.224 0.781,-2.407 2.552,-2.323 1.76,0.083 2.369,1.099 2.14,2.583 -0.228,1.474 -1.072,2.772 -1.406,4.24 -0.338,1.474 -0.541,3.005 -0.646,4.218 -0.114,1.375 -0.682,2.016 -1.14,2.162 -1.136,0.374 -2.027,0.172 -2.027,0.172"
     id="path1433" />
  <path
     style="fill:none;stroke:#231f20;stroke-width:0.565977;stroke-linecap:butt;stroke-linejoin:miter;stroke-miterlimit:4;stroke-dasharray:none;stroke-opacity:1"
     d="m 50.144928,90.690189 c -1.271,-0.276 -0.484,-2.156 -0.353,-2.678 0.129,-0.53 0.333,-2.072 0.333,-3.29 0.005,-1.23 0.536,-2.756 0.547,-5.084 0,-1.224 0.781,-2.407 2.552,-2.323 1.76,0.083 2.369,1.099 2.14,2.583 -0.228,1.474 -1.072,2.772 -1.406,4.24 -0.338,1.474 -0.541,3.005 -0.646,4.218 -0.114,1.375 -0.682,2.016 -1.14,2.162 -1.136,0.374 -2.027,0.172 -2.027,0.172 z"
     id="path1434" />
  <path
     style="fill:#231f20;fill-opacity:1;fill-rule:nonzero;stroke:none"
     d="m 21.597928,66.174189 c 1.418,-1.76 1.454,-2.296 0.746,-2.943 -0.475,-0.437 -0.756,-0.995 -1.032,-1.271 -0.906,-0.921 -2.834,-2.098 -9.13,-4.01 -1.428,-0.427 -3.428,-1.057 -4.224,-1.38 -1.261,-0.495 -1.245,1.937 -0.745,2.141 1.584,0.656 2.615,1.235 3.151,1.547 0.37,0.213 1.073,0.505 2.396,1.521 2,1.547 2.969,2.765 4.786,3.853 0.844,0.511 1.151,1.423 2.23,1.495 1.089,0.084 1.822,-0.953 1.822,-0.953"
     id="path1435" />
  <path
     style="fill:none;stroke:#231f20;stroke-width:0.565977;stroke-linecap:butt;stroke-linejoin:miter;stroke-miterlimit:4;stroke-dasharray:none;stroke-opacity:1"
     d="m 21.597928,66.174189 c 1.418,-1.76 1.454,-2.296 0.746,-2.943 -0.475,-0.437 -0.756,-0.995 -1.032,-1.271 -0.906,-0.921 -2.834,-2.098 -9.13,-4.01 -1.428,-0.427 -3.428,-1.057 -4.224,-1.38 -1.261,-0.495 -1.245,1.937 -0.745,2.141 1.584,0.656 2.615,1.235 3.151,1.547 0.37,0.213 1.073,0.505 2.396,1.521 2,1.547 2.969,2.765 4.786,3.853 0.844,0.511 1.151,1.423 2.23,1.495 1.089,0.084 1.822,-0.953 1.822,-0.953 z"
     id="path1436" />
  <path
     style="fill:#231f20;fill-opacity:1;fill-rule:nonzero;stroke:#231f20;stroke-width:0.565977;stroke-linecap:round;stroke-linejoin:round;stroke-miterlimit:4;stroke-dasharray:none;stroke-opacity:1"
     d="m 19.097928,66.340189 c 0.162,1.412 2.21,2.084 2.454,2.319 3.609,3.473 3.958,3.635 6.885,6.083 4.245,3.546 7.693,5.328 10.48,3.464 1.885,-1.266 2.421,-2.812 2.145,-4.099 -0.308,-1.428 -2.338,-3.876 -5.202,-3.505 l -1.558,-0.71 c -0.99,-0.613 -1.485,-0.91 -1.948,-1.244 -0.802,-0.598 -1.709,-1.182 -3.349,-2.25 -2.912,-1.895 -6.604,-2.948 -6.604,-2.948 -0.265,-0.162 -0.541,-0.198 -0.808,-0.156"
     id="path1437" />
  <path
     style="fill:#63c99d;fill-opacity:1;fill-rule:nonzero;stroke:none"
     d="m 41.029928,74.383189 c -0.254,-1.437 -2.192,-3.959 -5.066,-3.699 l -5.074,5.943 c 0.522,0.391 1.031,0.729 1.527,1.037 0.052,0.063 0.104,0.124 0.14,0.187 0.421,0.693 1.041,0.781 2.079,0.88 1.478,0.485 2.838,0.443 4.093,-0.333 1.927,-1.192 2.531,-2.719 2.301,-4.015"
     id="path1438" />
  <path
     style="fill:none;stroke:#231f20;stroke-width:0.565977;stroke-linecap:butt;stroke-linejoin:miter;stroke-miterlimit:4;stroke-dasharray:none;stroke-opacity:1"
     d="m 41.029928,74.383189 c -0.254,-1.437 -2.192,-3.959 -5.066,-3.699 l -5.074,5.943 c 0.522,0.391 1.031,0.729 1.527,1.037 0.052,0.063 0.104,0.124 0.14,0.187 0.421,0.693 1.041,0.781 2.079,0.88 1.478,0.485 2.838,0.443 4.093,-0.333 1.927,-1.192 2.531,-2.719 2.301,-4.015 z"
     id="path1439" />
  <path
     style="fill:#231f20;fill-opacity:1;fill-rule:nonzero;stroke:none"
     d="m 5.947928,55.283189 c 1.265,-0.478 1.926,0.267 1.942,1.303 0.011,0.312 0.339,0.568 0.318,0.869 -0.042,0.704 -1.391,1.813 -2.599,0.928 -0.083,-0.068 -0.859,-0.328 -1.411,-0.62 -1.073,-0.562 -2.948,-2.208 -3.1,-4.896 -0.072,-1.281 0.694,-1.088 0.88,-0.578 0.59,1.604 0.954,1.636 1.267,2 1.036,1.245 2.703,0.994 2.703,0.994"
     id="path1440" />
  <path
     style="fill:none;stroke:#231f20;stroke-width:0.332927;stroke-linecap:butt;stroke-linejoin:miter;stroke-miterlimit:4;stroke-dasharray:none;stroke-opacity:1"
     d="m 5.947928,55.283189 c 1.265,-0.478 1.926,0.267 1.942,1.303 0.011,0.312 0.339,0.568 0.318,0.869 -0.042,0.704 -1.391,1.813 -2.599,0.928 -0.083,-0.068 -0.859,-0.328 -1.411,-0.62 -1.073,-0.562 -2.948,-2.208 -3.1,-4.896 -0.072,-1.281 0.694,-1.088 0.88,-0.578 0.59,1.604 0.954,1.636 1.267,2 1.036,1.245 2.703,0.994 2.703,0.994 z"
     id="path1441" />
  <path
     style="fill:#231f20;fill-opacity:1;fill-rule:nonzero;stroke:none"
     d="m 52.905928,101.23619 c 0,1.178 -0.953,2.131 -2.136,2.131 -1.177,0 -2.129,-0.953 -2.129,-2.131 0,-1.181 0.952,-2.134001 2.129,-2.134001 1.183,0 2.136,0.953001 2.136,2.134001"
     id="path1442" />
  <path
     style="fill:#63c99d;fill-opacity:1;fill-rule:nonzero;stroke:none"
     d="m 109.09293,83.700189 c 2.885,1.219 3.376,1.803 4.016,2.47 4.011,4.156 5.978,2.109 6.598,-0.704 0.746,-3.312 1.074,-4.484 -4.926,-6.375 -1.677,-0.527 -7.817,-3.385 -7.817,-3.385 -2.063,-1.318 -4.776,-1.511 -6,-0.719 -1.287002,0.839 -0.719,0.599 -1.766002,1.588 -1.005,0.943 -1.62,3.041 -0.938,4.073 0.657,0.995 2.318002,0.916 4.729002,1.126 1.912,0.161 6.104,1.926 6.104,1.926"
     id="path1443" />
  <path
     style="fill:none;stroke:#231f20;stroke-width:0.565977;stroke-linecap:butt;stroke-linejoin:miter;stroke-miterlimit:4;stroke-dasharray:none;stroke-opacity:1"
     d="m 109.09293,83.700189 c 2.885,1.219 3.376,1.803 4.016,2.47 4.011,4.156 5.978,2.109 6.598,-0.704 0.746,-3.312 1.074,-4.484 -4.926,-6.375 -1.677,-0.527 -7.817,-3.385 -7.817,-3.385 -2.063,-1.318 -4.776,-1.511 -6,-0.719 -1.287002,0.839 -0.719,0.599 -1.766002,1.588 -1.005,0.943 -1.62,3.041 -0.938,4.073 0.657,0.995 2.318002,0.916 4.729002,1.126 1.912,0.161 6.104,1.926 6.104,1.926 z"
     id="path1444" />
  <path
     style="fill:#ffffff;fill-opacity:1;fill-rule:nonzero;stroke:none"
     d="m 95.092928,70.966189 c -0.219,-0.094 -0.067,-1.235 -0.577,-1.344 -0.511,-0.115 -0.871,0.594 -2.808,1.048 l -0.02,0.004 c -1.428,0.281 -2.547,1.1 -2.912,2.302 -0.599,1.99 1.104,4.266 3.808,5.079 2.708,0.817 5.385,-0.136 5.984,-2.125 0.577,-1.896 -0.964,-4.068 -3.475,-4.964"
     id="path1445" />
  <path
     style="fill:none;stroke:#231f20;stroke-width:0.565977;stroke-linecap:butt;stroke-linejoin:miter;stroke-miterlimit:4;stroke-dasharray:none;stroke-opacity:1"
     d="m 95.092928,70.966189 c -0.219,-0.094 -0.067,-1.235 -0.577,-1.344 -0.511,-0.115 -0.871,0.594 -2.808,1.048 l -0.02,0.004 c -1.428,0.281 -2.547,1.1 -2.912,2.302 -0.599,1.99 1.104,4.266 3.808,5.079 2.708,0.817 5.385,-0.136 5.984,-2.125 0.577,-1.896 -0.964,-4.068 -3.475,-4.964 z"
     id="path1446" />
  <path
     style="fill:#231f20;fill-opacity:1;fill-rule:nonzero;stroke:none"
     d="m 100.43693,99.304189 c -0.369,-0.525 -0.172,-2.468 -0.629002,-4.005 -0.308,-1.041 0.046,-3.76 -0.339,-4.776 -0.355,-0.927 -0.428,-1.385 0.561002,-1.968 0.59,-0.349 1.948,-0.641 2.224,-0.215 0.658,0.996 0.824,1.928 0.787,2.996 -0.036,1.219 -0.432,4.5 -0.557,5.099 -0.328,1.489 -0.006,2.151 -0.052,2.557 -0.088,0.755 -0.406,0.906 -0.906,0.954 -0.953,0.093 -1.089,-0.642 -1.089,-0.642"
     id="path1447" />
  <path
     style="fill:none;stroke:#231f20;stroke-width:0.565977;stroke-linecap:butt;stroke-linejoin:miter;stroke-miterlimit:4;stroke-dasharray:none;stroke-opacity:1"
     d="m 100.43693,99.304189 c -0.369,-0.525 -0.172,-2.468 -0.629002,-4.005 -0.308,-1.041 0.046,-3.76 -0.339,-4.776 -0.355,-0.927 -0.428,-1.385 0.561002,-1.968 0.59,-0.349 1.948,-0.641 2.224,-0.215 0.658,0.996 0.824,1.928 0.787,2.996 -0.036,1.219 -0.432,4.5 -0.557,5.099 -0.328,1.489 -0.006,2.151 -0.052,2.557 -0.088,0.755 -0.406,0.906 -0.906,0.954 -0.953,0.093 -1.089,-0.642 -1.089,-0.642 z"
     id="path1448" />
  <path
     style="fill:#231f20;fill-opacity:1;fill-rule:nonzero;stroke:none"
     d="m 100.08793,90.252189 c -1.296002,-0.093 -0.780002,-2.062 -0.728002,-2.598 0.057,-0.542 0.041,-2.099 -0.131,-3.314 -0.167,-1.213 0.145,-2.796 -0.172,-5.104 -0.167,-1.208 0.437,-2.494 2.208002,-2.656 1.745,-0.166 2.5,0.756 2.475,2.256 -0.016,1.495 -0.672,2.891 -0.792,4.395 -0.131,1.505 -0.115,3.052 -0.047,4.267 0.073,1.38 -0.396,2.093 -0.828,2.296 -1.073,0.537 -1.985,0.458 -1.985,0.458"
     id="path1449" />
  <path
     style="fill:none;stroke:#231f20;stroke-width:0.565977;stroke-linecap:butt;stroke-linejoin:miter;stroke-miterlimit:4;stroke-dasharray:none;stroke-opacity:1"
     d="m 100.08793,90.252189 c -1.296002,-0.093 -0.780002,-2.062 -0.728002,-2.598 0.057,-0.542 0.041,-2.099 -0.131,-3.314 -0.167,-1.213 0.145,-2.796 -0.172,-5.104 -0.167,-1.208 0.437,-2.494 2.208002,-2.656 1.745,-0.166 2.5,0.756 2.475,2.256 -0.016,1.495 -0.672,2.891 -0.792,4.395 -0.131,1.505 -0.115,3.052 -0.047,4.267 0.073,1.38 -0.396,2.093 -0.828,2.296 -1.073,0.537 -1.985,0.458 -1.985,0.458 z"
     id="path1450" />
  <path
     style="fill:#231f20;fill-opacity:1;fill-rule:nonzero;stroke:none"
     d="m 134.16593,78.326189 c 0.427,2.224 0.817,2.598 1.771,2.473 0.641,-0.083 1.245,0.063 1.63,0.037 1.298,-0.1 3.432,-0.808 8.964,-4.381 1.25,-0.812 3.015,-1.937 3.78,-2.339 1.194,-0.64 -0.676,-2.202 -1.15,-1.946 -1.52,0.785 -2.635,1.197 -3.219,1.405 -0.407,0.147 -1.077,0.495 -2.713,0.844 -2.47,0.531 -4.027,0.484 -6.031,1.161 -0.933,0.318 -1.829,-0.036 -2.579,0.74 -0.77,0.776 -0.453,2.006 -0.453,2.006"
     id="path1451" />
  <path
     style="fill:none;stroke:#231f20;stroke-width:0.565977;stroke-linecap:butt;stroke-linejoin:miter;stroke-miterlimit:4;stroke-dasharray:none;stroke-opacity:1"
     d="m 134.16593,78.326189 c 0.427,2.224 0.817,2.598 1.771,2.473 0.641,-0.083 1.245,0.063 1.63,0.037 1.298,-0.1 3.432,-0.808 8.964,-4.381 1.25,-0.812 3.015,-1.937 3.78,-2.339 1.194,-0.64 -0.676,-2.202 -1.15,-1.946 -1.52,0.785 -2.635,1.197 -3.219,1.405 -0.407,0.147 -1.077,0.495 -2.713,0.844 -2.47,0.531 -4.027,0.484 -6.031,1.161 -0.933,0.318 -1.829,-0.036 -2.579,0.74 -0.77,0.776 -0.453,2.006 -0.453,2.006 z"
     id="path1452" />
  <path
     style="fill:#231f20;fill-opacity:1;fill-rule:nonzero;stroke:#231f20;stroke-width:0.565977;stroke-linecap:round;stroke-linejoin:round;stroke-miterlimit:4;stroke-dasharray:none;stroke-opacity:1"
     d="m 135.65493,76.315189 c -1.181,-0.787 -3.014,0.339 -3.353,0.369 -4.991,0.516 -5.333,0.678 -9.1,1.328 -5.448,0.948 -9.03,2.434 -9.405,5.762 -0.256,2.265 0.577,3.666 1.744,4.29 1.287,0.683 4.464,0.719 6.032,-1.713 l 1.552,-0.729 c 1.104,-0.359 1.645,-0.542 2.208,-0.682 0.974,-0.224 2.005,-0.537 3.88,-1.104 3.328,-0.996 6.516,-3.136 6.516,-3.136 0.297,-0.093 0.5,-0.286 0.64,-0.516"
     id="path1453" />
  <path
     style="fill:#63c99d;fill-opacity:1;fill-rule:nonzero;stroke:#231f20;stroke-width:0.565977;stroke-linecap:butt;stroke-linejoin:miter;stroke-miterlimit:4;stroke-dasharray:none;stroke-opacity:1"
     d="m 120.18693,78.664189 c -0.641,0.146 -1.229,0.318 -1.786,0.5 -0.079,0 -0.156,0 -0.224,-0.01 -0.803,-0.131 -1.271,0.286 -2.011,1.01 -1.328,0.818 -2.177,1.886 -2.396,3.343 -0.333,2.24 0.438,3.688 1.579,4.349 1.26,0.74 4.432,0.886 6.093,-1.473 z"
     id="path1454" />
  <path
     style="fill:#231f20;fill-opacity:1;fill-rule:nonzero;stroke:none"
     d="m 152.59293,73.419189 c -0.452,1.276 -1.452,1.297 -2.25,0.641 -0.24,-0.193 -0.656,-0.11 -0.869,-0.318 -0.511,-0.49 -0.485,-2.23 0.968,-2.583 0.109,-0.027 0.808,-0.448 1.38,-0.683 1.131,-0.453 3.599,-0.822 5.751,0.803 1.02,0.771 0.38,1.228 -0.126,1.047 -1.609,-0.595 -1.869,-0.328 -2.344,-0.328 -1.629,-0.011 -2.51,1.421 -2.51,1.421"
     id="path1455" />
  <path
     style="fill:none;stroke:#231f20;stroke-width:0.332927;stroke-linecap:butt;stroke-linejoin:miter;stroke-miterlimit:4;stroke-dasharray:none;stroke-opacity:1"
     d="m 152.59293,73.419189 c -0.452,1.276 -1.452,1.297 -2.25,0.641 -0.24,-0.193 -0.656,-0.11 -0.869,-0.318 -0.511,-0.49 -0.485,-2.23 0.968,-2.583 0.109,-0.027 0.808,-0.448 1.38,-0.683 1.131,-0.453 3.599,-0.822 5.751,0.803 1.02,0.771 0.38,1.228 -0.126,1.047 -1.609,-0.595 -1.869,-0.328 -2.344,-0.328 -1.629,-0.011 -2.51,1.421 -2.51,1.421 z"
     id="path1456" />
  <path
     style="fill:#231f20;fill-opacity:1;fill-rule:nonzero;stroke:none"
     d="m 104.30193,100.31019 c 0.167,1.166 -0.646,2.245 -1.813,2.406 -1.167,0.172 -2.249,-0.641 -2.411,-1.808 -0.166002,-1.166001 0.646,-2.249001 1.812,-2.416001 1.167,-0.161 2.246,0.651 2.412,1.818001"
     id="path1457" />
  <path
     style="fill:none;stroke:#231f20;stroke-width:0.399514;stroke-linecap:butt;stroke-linejoin:miter;stroke-miterlimit:4;stroke-dasharray:none;stroke-opacity:1"
     d="m 236.98893,32.753189 c -1.208,-26.4639994 12.005,-27.7459994 15.974,-20.323"
     id="path1458" />
  <path
     style="fill:#231f20;fill-opacity:1;fill-rule:nonzero;stroke:none"
     d="m 253.53293,13.493189 c -0.45,-0.402 -1.1,-0.855 -1.643,-1.058 l 1.003,-0.146 0.67,-0.75 c -0.13,0.563 -0.11,1.354 -0.03,1.954"
     id="path1459" />
  <path
     style="fill:#231f20;fill-opacity:1;fill-rule:nonzero;stroke:none"
     d="m 256.96293,43.622189 c -1.06,0.756 0.4,2.172 0.73,2.604 0.33,0.433 1.11,1.772 1.6,2.891 0.49,1.13 1.58,2.324 2.5,4.458 0.48,1.12 1.67,1.912 3.26,1.131 1.58,-0.76 1.75,-1.943 0.96,-3.213 -0.8,-1.267 -2.08,-2.12 -2.97,-3.344 -0.88,-1.224 -1.67,-2.552 -2.25,-3.626 -0.65,-1.218 -1.42,-1.582 -1.9,-1.541 -1.19,0.104 -1.93,0.64 -1.93,0.64"
     id="path1460" />
  <path
     style="fill:none;stroke:#231f20;stroke-width:0.565977;stroke-linecap:butt;stroke-linejoin:miter;stroke-miterlimit:4;stroke-dasharray:none;stroke-opacity:1"
     d="m 256.96293,43.622189 c -1.06,0.756 0.4,2.172 0.73,2.604 0.33,0.433 1.11,1.772 1.6,2.891 0.49,1.13 1.58,2.324 2.5,4.458 0.48,1.12 1.67,1.912 3.26,1.131 1.58,-0.76 1.75,-1.943 0.96,-3.213 -0.8,-1.267 -2.08,-2.12 -2.97,-3.344 -0.88,-1.224 -1.67,-2.552 -2.25,-3.626 -0.65,-1.218 -1.42,-1.582 -1.9,-1.541 -1.19,0.104 -1.93,0.64 -1.93,0.64 z"
     id="path1461" />
  <path
     style="fill:#231f20;fill-opacity:1;fill-rule:nonzero;stroke:none"
     d="m 264.62293,38.883189 c -0.65,1.12 1.25,1.818 1.73,2.078 0.47,0.265 1.74,1.161 2.64,1.989 0.91,0.829 2.39,1.48 4.1,3.048 0.9,0.828 2.31,1.067 3.44,-0.297 1.13,-1.339 0.8,-2.484 -0.44,-3.323 -1.24,-0.833 -2.76,-1.089 -4.07,-1.844 -1.31,-0.76 -2.57,-1.645 -3.53,-2.396 -1.1,-0.844 -1.95,-0.859 -2.37,-0.631 -1.04,0.584 -1.5,1.376 -1.5,1.376"
     id="path1462" />
  <path
     style="fill:none;stroke:#231f20;stroke-width:0.565977;stroke-linecap:butt;stroke-linejoin:miter;stroke-miterlimit:4;stroke-dasharray:none;stroke-opacity:1"
     d="m 264.62293,38.883189 c -0.65,1.12 1.25,1.818 1.73,2.078 0.47,0.265 1.74,1.161 2.64,1.989 0.91,0.829 2.39,1.48 4.1,3.048 0.9,0.828 2.31,1.067 3.44,-0.297 1.13,-1.339 0.8,-2.484 -0.44,-3.323 -1.24,-0.833 -2.76,-1.089 -4.07,-1.844 -1.31,-0.76 -2.57,-1.645 -3.53,-2.396 -1.1,-0.844 -1.95,-0.859 -2.37,-0.631 -1.04,0.584 -1.5,1.376 -1.5,1.376 z"
     id="path1463" />
  <path
     style="fill:#231f20;fill-opacity:1;fill-rule:nonzero;stroke:none"
     d="m 254.50293,34.659189 c 0.56,0.312 1.22,2.146 2.3,3.334 0.73,0.801 1.59,3.41 2.38,4.156 0.72,0.682 0.99,1.062 0.35,2.025 -0.38,0.563 -1.48,1.412 -1.91,1.152 -1.03,-0.615 -1.58,-1.38 -2.01,-2.36 -0.5,-1.109 -1.56,-4.244 -1.71,-4.839 -0.35,-1.484 -0.93,-1.942 -1.06,-2.322 -0.25,-0.724 -0.03,-0.995 0.4,-1.255 0.82,-0.495 1.26,0.109 1.26,0.109"
     id="path1464" />
  <path
     style="fill:none;stroke:#231f20;stroke-width:0.565977;stroke-linecap:butt;stroke-linejoin:miter;stroke-miterlimit:4;stroke-dasharray:none;stroke-opacity:1"
     d="m 254.50293,34.659189 c 0.56,0.312 1.22,2.146 2.3,3.334 0.73,0.801 1.59,3.41 2.38,4.156 0.72,0.682 0.99,1.062 0.35,2.025 -0.38,0.563 -1.48,1.412 -1.91,1.152 -1.03,-0.615 -1.58,-1.38 -2.01,-2.36 -0.5,-1.109 -1.56,-4.244 -1.71,-4.839 -0.35,-1.484 -0.93,-1.942 -1.06,-2.322 -0.25,-0.724 -0.03,-0.995 0.4,-1.255 0.82,-0.495 1.26,0.109 1.26,0.109 z"
     id="path1465" />
  <path
     style="fill:#231f20;fill-opacity:1;fill-rule:nonzero;stroke:none"
     d="m 257.97293,39.935189 c -3.01,1.979 -3.65,0.422 -6.656,-2.328 -3.287,-3.01 -6.396,-6.5 -7.782,-9.5 -1.546,-3.349 -2.061,-3.302 -0.91,-4.833 1.156,-1.537 1.786,-1.084 3.077,-1.084 1.491,0 4.907,6.521 8.531,9.599 1.69,1.442 6.69,3.802 6.03,5.1 -0.67,1.29 -2.29,3.046 -2.29,3.046"
     id="path1466" />
  <path
     style="fill:none;stroke:#231f20;stroke-width:0.565977;stroke-linecap:butt;stroke-linejoin:miter;stroke-miterlimit:4;stroke-dasharray:none;stroke-opacity:1"
     d="m 257.97293,39.935189 c -3.01,1.979 -3.65,0.422 -6.656,-2.328 -3.287,-3.01 -6.396,-6.5 -7.782,-9.5 -1.546,-3.349 -2.061,-3.302 -0.91,-4.833 1.156,-1.537 1.786,-1.084 3.077,-1.084 1.491,0 4.907,6.521 8.531,9.599 1.69,1.442 6.69,3.802 6.03,5.1 -0.67,1.29 -2.29,3.046 -2.29,3.046 z"
     id="path1467" />
  <path
     style="fill:#231f20;fill-opacity:1;fill-rule:nonzero;stroke:none"
     d="m 244.73893,24.061189 c -1.557,1.645 -1.989,2.14 -3.505,0.156 -0.391,-0.506 -1.365,-1.991 -1.683,-2.224 -1.03,-0.782 -2.172,-1.771 -4.921,-7.756 -0.428,-0.927 -1.547,-2.552 -2.24,-3.771 -0.672,-1.1829994 1.745,-1.4999994 2.011,-1.0359994 0.864,1.4729994 1.744,2.2439994 2.125,2.7289994 0.265,0.339 0.651,1.052 1.963,2.067 3.385,2.625 3.38,4.423 4.042,5.032 1.895,1.755 3.88,2.864 3.635,3.484 -0.401,1.005 -1.427,1.319 -1.427,1.319"
     id="path1468" />
  <path
     style="fill:none;stroke:#231f20;stroke-width:0.565977;stroke-linecap:butt;stroke-linejoin:miter;stroke-miterlimit:4;stroke-dasharray:none;stroke-opacity:1"
     d="m 244.73893,24.061189 c -1.557,1.645 -1.989,2.14 -3.505,0.156 -0.391,-0.506 -1.365,-1.991 -1.683,-2.224 -1.03,-0.782 -2.172,-1.771 -4.921,-7.756 -0.428,-0.927 -1.547,-2.552 -2.24,-3.771 -0.672,-1.1829994 1.745,-1.4999994 2.011,-1.0359994 0.864,1.4729994 1.744,2.2439994 2.125,2.7289994 0.265,0.339 0.651,1.052 1.963,2.067 3.385,2.625 3.38,4.423 4.042,5.032 1.895,1.755 3.88,2.864 3.635,3.484 -0.401,1.005 -1.427,1.319 -1.427,1.319 z"
     id="path1469" />
  <path
     style="fill:#231f20;fill-opacity:1;fill-rule:nonzero;stroke:none"
     d="m 262.79293,35.919189 c 2.38,-2.708 0.93,-3.546 -1.38,-6.912 -2.53,-3.676 -5.55,-7.238 -8.33,-9.03 -3.1,-1.99 -2.98,-2.5 -4.657,-1.568 -1.681,0.928 -1.323,1.62 -1.5,2.896 -0.208,1.478 5.777,5.76 8.327,9.77 1.19,1.886 2.83,7.162 4.21,6.688 1.37,-0.474 3.33,-1.844 3.33,-1.844"
     id="path1470" />
  <path
     style="fill:none;stroke:#231f20;stroke-width:0.565977;stroke-linecap:butt;stroke-linejoin:miter;stroke-miterlimit:4;stroke-dasharray:none;stroke-opacity:1"
     d="m 262.79293,35.919189 c 2.38,-2.708 0.93,-3.546 -1.38,-6.912 -2.53,-3.676 -5.55,-7.238 -8.33,-9.03 -3.1,-1.99 -2.98,-2.5 -4.657,-1.568 -1.681,0.928 -1.323,1.62 -1.5,2.896 -0.208,1.478 5.777,5.76 8.327,9.77 1.19,1.886 2.83,7.162 4.21,6.688 1.37,-0.474 3.33,-1.844 3.33,-1.844 z"
     id="path1471" />
  <path
     style="fill:#63c99d;fill-opacity:1;fill-rule:nonzero;stroke:none"
     d="m 276.47293,43.607189 c -0.4,-2.125 -2.48,-0.698 -4.19,-1.338 -1.25,-0.475 -5.43,-3.396 -7.57,-5.855 -0.48,-0.563 -0.77,-2.953 -0.91,-1.713 l -0.28,0.218 c -3.06,0.588 -7.33,-3.406 -7.33,-3.406 0,0 -0.74,0.057 -1.12,0.37 -0.38,0.323 -0.57,1.042 -0.57,1.042 0,0 3.17,4.906 2.05,7.806 l -0.26,0.246 c -1.25,-0.084 1.05,0.625 1.51,1.202 2.05,2.538 4.17,7.172 4.41,8.491 0.33,1.796 -1.32,3.837 0.71,4.609 0,0 1.65,1.02 3.56,-1.042 0.69,-0.744 2.84,-1.615 2.84,-1.615 0,0 1.3,-0.385 2.21,-1.115 0.81,-0.65 1.3,-1.676 1.4,-1.894 0,0 1.25,-1.97 2.1,-2.516 2.37,-1.511 1.44,-3.49 1.44,-3.49"
     id="path1472" />
  <path
     style="fill:none;stroke:#231f20;stroke-width:0.565977;stroke-linecap:round;stroke-linejoin:round;stroke-miterlimit:4;stroke-dasharray:none;stroke-opacity:1"
     d="m 276.47293,43.607189 c -0.4,-2.125 -2.48,-0.698 -4.19,-1.338 -1.25,-0.475 -5.43,-3.396 -7.57,-5.855 -0.48,-0.563 -0.77,-2.953 -0.91,-1.713 l -0.28,0.218 c -3.06,0.588 -7.33,-3.406 -7.33,-3.406 0,0 -0.74,0.057 -1.12,0.37 -0.38,0.323 -0.57,1.042 -0.57,1.042 0,0 3.17,4.906 2.05,7.806 l -0.26,0.246 c -1.25,-0.084 1.05,0.625 1.51,1.202 2.05,2.538 4.17,7.172 4.41,8.491 0.33,1.796 -1.32,3.837 0.71,4.609 0,0 1.65,1.02 3.56,-1.042 0.69,-0.744 2.84,-1.615 2.84,-1.615 0,0 1.3,-0.385 2.21,-1.115 0.81,-0.65 1.3,-1.676 1.4,-1.894 0,0 1.25,-1.97 2.1,-2.516 2.37,-1.511 1.44,-3.49 1.44,-3.49 z"
     id="path1473" />
  <path
     style="fill:#231f20;fill-opacity:1;fill-rule:nonzero;stroke:none"
     d="m 277.52293,52.935189 c -1.81,-2.172 -4.57,-2.854 -6.16,-1.526 -1.6,1.322 -1.43,4.161 0.38,6.333 1.8,2.172 4.56,2.854 6.16,1.526 1.59,-1.328 1.42,-4.161 -0.38,-6.333"
     id="path1474" />
  <path
     style="fill:none;stroke:#231f20;stroke-width:0.565977;stroke-linecap:butt;stroke-linejoin:miter;stroke-miterlimit:4;stroke-dasharray:none;stroke-opacity:1"
     d="m 277.52293,52.935189 c -1.81,-2.172 -4.57,-2.854 -6.16,-1.526 -1.6,1.322 -1.43,4.161 0.38,6.333 1.8,2.172 4.56,2.854 6.16,1.526 1.59,-1.328 1.42,-4.161 -0.38,-6.333 z"
     id="path1475" />
  <path
     style="fill:#231f20;fill-opacity:1;fill-rule:nonzero;stroke:none"
     d="m 248.93693,20.607189 c 1.838,-1.328 2.39,-1.693 0.625,-3.464 -0.453,-0.448 -1.797,-1.614 -1.984,-1.953 -0.636,-1.129 -1.464,-2.391 -7.027,-5.9159994 -0.864,-0.543 -2.328,-1.871 -3.442,-2.724 -1.079,-0.819 -1.714,1.531 -1.298,1.853 1.355,1.058 1.996,2.0319994 2.428,2.4799994 0.296,0.302 0.954,0.776 1.787,2.219 2.151,3.703 3.932,3.932 4.452,4.672 1.48,2.115 2.319,4.224 2.964,4.067 1.052,-0.266 1.495,-1.234 1.495,-1.234"
     id="path1476" />
  <path
     style="fill:none;stroke:#231f20;stroke-width:0.565977;stroke-linecap:butt;stroke-linejoin:miter;stroke-miterlimit:4;stroke-dasharray:none;stroke-opacity:1"
     d="m 248.93693,20.607189 c 1.838,-1.328 2.39,-1.693 0.625,-3.464 -0.453,-0.448 -1.797,-1.614 -1.984,-1.953 -0.636,-1.129 -1.464,-2.391 -7.027,-5.9159994 -0.864,-0.543 -2.328,-1.871 -3.442,-2.724 -1.079,-0.819 -1.714,1.531 -1.298,1.853 1.355,1.058 1.996,2.0319994 2.428,2.4799994 0.296,0.302 0.954,0.776 1.787,2.219 2.151,3.703 3.932,3.932 4.452,4.672 1.48,2.115 2.319,4.224 2.964,4.067 1.052,-0.266 1.495,-1.234 1.495,-1.234 z"
     id="path1477" />
  <path
     style="fill:#63c99d;fill-opacity:1;fill-rule:nonzero;stroke:none"
     d="m 264.31293,35.351189 c -0.02,-0.348 -0.29,-1.686 -0.44,-2.129 -0.93,-2.819 -3.52,-5.797 -4.11,-6.928 -0.6,-1.129 -5.62,3.141 -5.62,3.141 l 0.19,1.454 c -0.63,-0.043 -0.14,0.118 -0.14,0.118 l -1.57,-0.405 c 0,0 -5.118,3.948 -4.369,4.615 1.048,0.932 4.069,4.432 6.239,5.572 1.19,0.62 2.22,0.641 2.22,0.641 0,0 2.1,-3.167 3.2,-4.084 1.1,-0.911 4.4,-1.995 4.4,-1.995"
     id="path1478" />
  <path
     style="fill:none;stroke:#231f20;stroke-width:0.565977;stroke-linecap:round;stroke-linejoin:round;stroke-miterlimit:4;stroke-dasharray:none;stroke-opacity:1"
     d="m 264.31293,35.351189 c -0.02,-0.348 -0.29,-1.686 -0.44,-2.129 -0.93,-2.819 -3.52,-5.797 -4.11,-6.928 -0.6,-1.129 -5.62,3.141 -5.62,3.141 l 0.19,1.454 c -0.63,-0.043 -0.14,0.118 -0.14,0.118 l -1.57,-0.405 c 0,0 -5.118,3.948 -4.369,4.615 1.048,0.932 4.069,4.432 6.239,5.572 1.19,0.62 2.22,0.641 2.22,0.641 0,0 2.1,-3.167 3.2,-4.084 1.1,-0.911 4.4,-1.995 4.4,-1.995 z"
     id="path1479" />
  <path
     style="fill:none;stroke:#231f20;stroke-width:0.565977;stroke-linecap:round;stroke-linejoin:round;stroke-miterlimit:4;stroke-dasharray:none;stroke-opacity:1"
     d="m 257.00293,29.231189 c -1.8,-0.104 -2.68,1.871 -2.68,1.871 -1.74,0.609 -2.354,2.083 -2.354,2.083"
     id="path1480" />
  <path
     style="fill:#231f20;fill-opacity:1;fill-rule:nonzero;stroke:none"
     d="m 234.91693,1.9871896 c 0.609,0.266 0.561,2.068 1.817,3.583 0.26,0.313 0.317,0.677 0.437,1.032 0.484,1.432 0.136,2.989 -2.973,0.765 -0.439,-0.306 -1.485,-2.125 -2.157,-2.526 -1.599,-0.958 -2.271,-4.21400002 -1.796,-4.43800002 1.009,-0.478 4.672,1.58400002 4.672,1.58400002"
     id="path1481" />
  <path
     style="fill:none;stroke:#231f20;stroke-width:0.644548;stroke-linecap:round;stroke-linejoin:round;stroke-miterlimit:4;stroke-dasharray:none;stroke-opacity:1"
     d="m 234.91693,1.9871896 c 0.609,0.266 0.561,2.068 1.817,3.583 0.26,0.313 0.317,0.677 0.437,1.032 0.484,1.432 0.136,2.989 -2.973,0.765 -0.439,-0.306 -1.485,-2.125 -2.157,-2.526 -1.599,-0.958 -2.271,-4.21400002 -1.796,-4.43800002 1.009,-0.478 4.672,1.58400002 4.672,1.58400002 z"
     id="path1482" />
  <path
     style="fill:#231f20;fill-opacity:1;fill-rule:nonzero;stroke:none"
     d="m 228.05693,7.3511896 c 0.177,0.642 1.964,0.871 3.27,2.339 0.266,0.303 0.62,0.4229994 0.954,0.5929994 1.344,0.699 2.937,0.59 1.208,-2.8279994 -0.244,-0.473 -1.875,-1.79 -2.172,-2.514 -0.703,-1.724 -3.818,-2.88 -4.11,-2.448 -0.629,0.921 0.85,4.858 0.85,4.858"
     id="path1483" />
  <path
     style="fill:none;stroke:#231f20;stroke-width:0.644548;stroke-linecap:round;stroke-linejoin:round;stroke-miterlimit:4;stroke-dasharray:none;stroke-opacity:1"
     d="m 228.05693,7.3511896 c 0.177,0.642 1.964,0.871 3.27,2.339 0.266,0.303 0.62,0.4229994 0.954,0.5929994 1.344,0.699 2.937,0.59 1.208,-2.8279994 -0.244,-0.473 -1.875,-1.79 -2.172,-2.514 -0.703,-1.724 -3.818,-2.88 -4.11,-2.448 -0.629,0.921 0.85,4.858 0.85,4.858 z"
     id="path1484" />
  <path
     style="fill:#231f20;fill-opacity:1;fill-rule:nonzero;stroke:none"
     d="m 332.08293,34.107189 c -0.52,0.37 -2.46,0.151 -4.01,0.599 -1.04,0.297 -3.76,-0.093 -4.78,0.292 -0.92,0.339 -1.39,0.416 -1.96,-0.584 -0.34,-0.588 -0.62,-1.953 -0.19,-2.224 1,-0.64 1.93,-0.807 3,-0.765 1.22,0.052 4.5,0.484 5.1,0.614 1.49,0.339 2.15,0.022 2.55,0.074 0.75,0.093 0.9,0.416 0.95,0.916 0.07,0.953 -0.66,1.078 -0.66,1.078"
     id="path1485" />
  <path
     style="fill:none;stroke:#231f20;stroke-width:0.565977;stroke-linecap:butt;stroke-linejoin:miter;stroke-miterlimit:4;stroke-dasharray:none;stroke-opacity:1"
     d="m 332.08293,34.107189 c -0.52,0.37 -2.46,0.151 -4.01,0.599 -1.04,0.297 -3.76,-0.093 -4.78,0.292 -0.92,0.339 -1.39,0.416 -1.96,-0.584 -0.34,-0.588 -0.62,-1.953 -0.19,-2.224 1,-0.64 1.93,-0.807 3,-0.765 1.22,0.052 4.5,0.484 5.1,0.614 1.49,0.339 2.15,0.022 2.55,0.074 0.75,0.093 0.9,0.416 0.95,0.916 0.07,0.953 -0.66,1.078 -0.66,1.078 z"
     id="path1486" />
  <path
     style="fill:#231f20;fill-opacity:1;fill-rule:nonzero;stroke:none"
     d="m 323.03293,34.378189 c -0.11,1.292 -2.07,0.755 -2.61,0.697 -0.54,-0.062 -2.1,-0.057 -3.3,0.099 -1.22,0.157 -2.81,-0.171 -5.11,0.125 -1.22,0.156 -2.49,-0.458 -2.64,-2.229 -0.14,-1.749 0.78,-2.495 2.27,-2.457 1.5,0.03 2.89,0.697 4.4,0.833 1.5,0.145 3.05,0.145 4.26,0.093 1.38,-0.068 2.09,0.416 2.29,0.85 0.53,1.072 0.44,1.989 0.44,1.989"
     id="path1487" />
  <path
     style="fill:none;stroke:#231f20;stroke-width:0.565977;stroke-linecap:butt;stroke-linejoin:miter;stroke-miterlimit:4;stroke-dasharray:none;stroke-opacity:1"
     d="m 323.03293,34.378189 c -0.11,1.292 -2.07,0.755 -2.61,0.697 -0.54,-0.062 -2.1,-0.057 -3.3,0.099 -1.22,0.157 -2.81,-0.171 -5.11,0.125 -1.22,0.156 -2.49,-0.458 -2.64,-2.229 -0.14,-1.749 0.78,-2.495 2.27,-2.457 1.5,0.03 2.89,0.697 4.4,0.833 1.5,0.145 3.05,0.145 4.26,0.093 1.38,-0.068 2.09,0.416 2.29,0.85 0.53,1.072 0.44,1.989 0.44,1.989 z"
     id="path1488" />
  <path
     style="fill:#231f20;fill-opacity:1;fill-rule:nonzero;stroke:none"
     d="m 337.87293,33.487189 c -0.64,-0.365 -3.84,-0.922 -4.58,-1.01 -0.66,-0.088 -1.7,-0.588 -2.32,0.38 -0.26,0.396 -0.36,1.146 -0.31,1.458 0.03,0.266 0.33,0.402 0.73,0.412 0.67,0.026 0.86,-0.224 2.14,-0.25 0,0 0.3,-0.052 0.84,-0.183 1.58,-0.369 0.86,-0.353 3.27,-0.385 0.17,0 0.29,-0.172 0.29,-0.287 -0.02,-0.176 -0.06,-0.135 -0.06,-0.135"
     id="path1489" />
  <path
     style="fill:none;stroke:#231f20;stroke-width:0.565977;stroke-linecap:round;stroke-linejoin:round;stroke-miterlimit:4;stroke-dasharray:none;stroke-opacity:1"
     d="m 337.87293,33.487189 c -0.64,-0.365 -3.84,-0.922 -4.58,-1.01 -0.66,-0.088 -1.7,-0.588 -2.32,0.38 -0.26,0.396 -0.36,1.146 -0.31,1.458 0.03,0.266 0.33,0.402 0.73,0.412 0.67,0.026 0.86,-0.224 2.14,-0.25 0,0 0.3,-0.052 0.84,-0.183 1.58,-0.369 0.86,-0.353 3.27,-0.385 0.17,0 0.29,-0.172 0.29,-0.287 -0.02,-0.176 -0.06,-0.135 -0.06,-0.135 z"
     id="path1490" />
</svg>
