<?xml version="1.0" encoding="UTF-8" standalone="no"?>
<!-- Created with Inkscape (http://www.inkscape.org/) -->

<svg
   version="1.1"
   id="svg1"
   width="360.46881"
   height="139.04608"
   viewBox="0 0 360.4688 139.04608"
   sodipodi:docname="cell.svg"
   xmlns:inkscape="http://www.inkscape.org/namespaces/inkscape"
   xmlns:sodipodi="http://sodipodi.sourceforge.net/DTD/sodipodi-0.dtd"
   xmlns="http://www.w3.org/2000/svg"
   xmlns:svg="http://www.w3.org/2000/svg">
  <sodipodi:namedview
     id="namedview1"
     pagecolor="#ffffff"
     bordercolor="#000000"
     borderopacity="0.25"
     inkscape:showpageshadow="2"
     inkscape:pageopacity="0.0"
     inkscape:pagecheckerboard="0"
     inkscape:deskcolor="#d1d1d1">
    <inkscape:page
       x="0"
       y="0"
       inkscape:label="1"
       id="page1"
       width="360.46881"
       height="139.04608"
       margin="0"
       bleed="0" />
  </sodipodi:namedview>
  <defs
     id="defs1" />
  <path
     style="fill:#ffffff;fill-opacity:1;fill-rule:nonzero;stroke:none"
     d="M -1.4269758e-8,18.874 H 18.875 V 0 H -1.4269758e-8 Z"
     id="path157" />
  <path
     style="fill:#ffffff;fill-opacity:1;fill-rule:nonzero;stroke:none"
     d="m 343.5418,18.874 h 16.927 V 0 h -16.927 z"
     id="path158" />
  <path
     style="fill:#ffffff;fill-opacity:1;fill-rule:nonzero;stroke:#231f20;stroke-width:0.665856;stroke-linecap:butt;stroke-linejoin:miter;stroke-miterlimit:4;stroke-dasharray:none;stroke-opacity:1"
     d="m 181.4278,48.152 h 1.328 V 16.474 h -1.328 z"
     id="path159" />
  <path
     style="fill:#ffffff;fill-opacity:1;fill-rule:nonzero;stroke:#231f20;stroke-width:0.665856;stroke-linecap:butt;stroke-linejoin:miter;stroke-miterlimit:4;stroke-dasharray:none;stroke-opacity:1"
     d="m 111.9948,48.152 h 1.333 V 16.474 h -1.333 z"
     id="path160" />
  <path
     style="fill:#ffffff;fill-opacity:1;fill-rule:nonzero;stroke:none"
     d="m 108.3958,53.084 c 0,-2.355 1.912,-4.272 4.265,-4.272 2.355,0 4.271,1.917 4.271,4.272 0,2.353 -1.916,4.27 -4.271,4.27 -2.353,0 -4.265,-1.917 -4.265,-4.27 m -1.333,0 c 0,3.088 2.51,5.598 5.598,5.598 3.09,0 5.604,-2.51 5.604,-5.598 0,-3.09 -2.514,-5.606 -5.604,-5.606 -3.088,0 -5.598,2.516 -5.598,5.606"
     id="path161" />
  <path
     style="fill:none;stroke:#231f20;stroke-width:0.665856;stroke-linecap:butt;stroke-linejoin:miter;stroke-miterlimit:4;stroke-dasharray:none;stroke-opacity:1"
     d="m 108.3958,53.084 c 0,-2.355 1.912,-4.272 4.265,-4.272 2.355,0 4.271,1.917 4.271,4.272 0,2.353 -1.916,4.27 -4.271,4.27 -2.353,0 -4.265,-1.917 -4.265,-4.27 z m -1.333,0 c 0,3.088 2.51,5.598 5.598,5.598 3.09,0 5.604,-2.51 5.604,-5.598 0,-3.09 -2.514,-5.606 -5.604,-5.606 -3.088,0 -5.598,2.516 -5.598,5.606 z"
     id="path162" />
  <path
     style="fill:#ffffff;fill-opacity:1;fill-rule:nonzero;stroke:none"
     d="m 177.8228,53.084 c 0,-2.355 1.917,-4.272 4.271,-4.272 2.354,0 4.266,1.917 4.266,4.272 0,2.353 -1.912,4.27 -4.266,4.27 -2.354,0 -4.271,-1.917 -4.271,-4.27 m -1.334,0 c 0,3.088 2.516,5.598 5.605,5.598 3.083,0 5.599,-2.51 5.599,-5.598 0,-3.09 -2.516,-5.606 -5.599,-5.606 -3.089,0 -5.605,2.516 -5.605,5.606"
     id="path163" />
  <path
     style="fill:none;stroke:#231f20;stroke-width:0.665856;stroke-linecap:butt;stroke-linejoin:miter;stroke-miterlimit:4;stroke-dasharray:none;stroke-opacity:1"
     d="m 177.8228,53.084 c 0,-2.355 1.917,-4.272 4.271,-4.272 2.354,0 4.266,1.917 4.266,4.272 0,2.353 -1.912,4.27 -4.266,4.27 -2.354,0 -4.271,-1.917 -4.271,-4.27 z m -1.334,0 c 0,3.088 2.516,5.598 5.605,5.598 3.083,0 5.599,-2.51 5.599,-5.598 0,-3.09 -2.516,-5.606 -5.599,-5.606 -3.089,0 -5.605,2.516 -5.605,5.606 z"
     id="path164" />
  <path
     style="fill:#231f20;fill-opacity:1;fill-rule:nonzero;stroke:none"
     d="m 110.9478,133.193 c -1.036,-0.866 -0.713,-1.808 0.177,-2.339 0.266,-0.156 0.328,-0.568 0.605,-0.704 0.63,-0.312 2.259,0.319 2.083,1.808 -0.016,0.104 0.14,0.911 0.162,1.531 0.036,1.209 -0.475,3.656 -2.74,5.114 -1.079,0.688 -1.287,-0.072 -0.933,-0.484 1.11,-1.302 0.949,-1.636 1.116,-2.078 0.571,-1.52 -0.47,-2.848 -0.47,-2.848"
     id="path165" />
  <path
     style="fill:none;stroke:#231f20;stroke-width:0.332927;stroke-linecap:butt;stroke-linejoin:miter;stroke-miterlimit:4;stroke-dasharray:none;stroke-opacity:1"
     d="m 110.9478,133.193 c -1.036,-0.866 -0.713,-1.808 0.177,-2.339 0.266,-0.156 0.328,-0.568 0.605,-0.704 0.63,-0.312 2.259,0.319 2.083,1.808 -0.016,0.104 0.14,0.911 0.162,1.531 0.036,1.209 -0.475,3.656 -2.74,5.114 -1.079,0.688 -1.287,-0.072 -0.933,-0.484 1.11,-1.302 0.949,-1.636 1.116,-2.078 0.571,-1.52 -0.47,-2.848 -0.47,-2.848 z"
     id="path166" />
  <path
     style="fill:#231f20;fill-opacity:1;fill-rule:nonzero;stroke:none"
     d="m 113.4278,114.603 c -2.229,-0.396 -2.719,-0.172 -2.948,0.762 -0.157,0.613 -0.505,1.14 -0.62,1.514 -0.371,1.24 -0.48,3.486 0.859,9.928 0.307,1.463 0.724,3.515 0.824,4.37 0.161,1.349 2.29,0.166 2.233,-0.366 -0.181,-1.702 -0.177,-2.89 -0.161,-3.509 0.016,-0.428 -0.068,-1.188 0.193,-2.833 0.396,-2.495 1,-3.934 1.083,-6.047 0.041,-0.98 0.693,-1.693 0.245,-2.677 -0.453,-0.99 -1.708,-1.142 -1.708,-1.142"
     id="path167" />
  <path
     style="fill:none;stroke:#231f20;stroke-width:0.565977;stroke-linecap:butt;stroke-linejoin:miter;stroke-miterlimit:4;stroke-dasharray:none;stroke-opacity:1"
     d="m 113.4278,114.603 c -2.229,-0.396 -2.719,-0.172 -2.948,0.762 -0.157,0.613 -0.505,1.14 -0.62,1.514 -0.371,1.24 -0.48,3.486 0.859,9.928 0.307,1.463 0.724,3.515 0.824,4.37 0.161,1.349 2.29,0.166 2.233,-0.366 -0.181,-1.702 -0.177,-2.89 -0.161,-3.509 0.016,-0.428 -0.068,-1.188 0.193,-2.833 0.396,-2.495 1,-3.934 1.083,-6.047 0.041,-0.98 0.693,-1.693 0.245,-2.677 -0.453,-0.99 -1.708,-1.142 -1.708,-1.142 z"
     id="path168" />
  <path
     style="fill:#ca0369;fill-opacity:1;fill-rule:nonzero;stroke:none"
     d="m 111.4748,88.688 c -0.068,3.134 -0.428,3.796 -0.808,4.634 -2.386,5.266 0.24,6.339 3.089,5.88 3.348,-0.541 4.563,-0.666 4.099,-6.942 -0.126,-1.744 0.254,-8.51 0.254,-8.51 0.464,-2.401 -0.364,-4.99 -1.552,-5.838 -1.249,-0.886 -0.817,-0.443 -2.129,-1.058 -1.245,-0.584 -3.417,-0.376 -4.131,0.635 -0.683,0.975 0.011,2.495 0.709,4.813 0.551,1.834 0.469,6.386 0.469,6.386"
     id="path169" />
  <path
     style="fill:none;stroke:#231f20;stroke-width:0.565977;stroke-linecap:butt;stroke-linejoin:miter;stroke-miterlimit:4;stroke-dasharray:none;stroke-opacity:1"
     d="m 111.4748,88.688 c -0.068,3.134 -0.428,3.796 -0.808,4.634 -2.386,5.266 0.24,6.339 3.089,5.88 3.348,-0.541 4.563,-0.666 4.099,-6.942 -0.126,-1.744 0.254,-8.51 0.254,-8.51 0.464,-2.401 -0.364,-4.99 -1.552,-5.838 -1.249,-0.886 -0.817,-0.443 -2.129,-1.058 -1.245,-0.584 -3.417,-0.376 -4.131,0.635 -0.683,0.975 0.011,2.495 0.709,4.813 0.551,1.834 0.469,6.386 0.469,6.386 z"
     id="path170" />
  <path
     style="fill:#ffffff;fill-opacity:1;fill-rule:nonzero;stroke:none"
     d="m 116.8488,70.896 c 0.047,-0.24 1.194,-0.323 1.194,-0.844 0,-0.526 -0.762,-0.73 -1.61,-2.526 l -0.01,-0.021 c -0.574,-1.339 -1.61,-2.26 -2.86,-2.364 -2.068,-0.172 -3.938,1.973 -4.172,4.785 -0.23,2.814 1.256,5.235 3.328,5.407 1.98,0.167 3.776,-1.797 4.13,-4.437"
     id="path171" />
  <path
     style="fill:none;stroke:#231f20;stroke-width:0.565977;stroke-linecap:butt;stroke-linejoin:miter;stroke-miterlimit:4;stroke-dasharray:none;stroke-opacity:1"
     d="m 116.8488,70.896 c 0.047,-0.24 1.194,-0.323 1.194,-0.844 0,-0.526 -0.762,-0.73 -1.61,-2.526 l -0.01,-0.021 c -0.574,-1.339 -1.61,-2.26 -2.86,-2.364 -2.068,-0.172 -3.938,1.973 -4.172,4.785 -0.23,2.814 1.256,5.235 3.328,5.407 1.98,0.167 3.776,-1.797 4.13,-4.437 z"
     id="path172" />
  <path
     style="fill:#231f20;fill-opacity:1;fill-rule:nonzero;stroke:none"
     d="m 112.4478,116.879 c 3.875,1.032 3.052,-2.962 3.177,-3.426 1.323,-4.828 1.292,-5.214 2.042,-8.964 1.073,-5.421 0.985,-9.296 -1.99,-10.844 -2.016,-1.052 -3.63,-0.785 -4.625,0.079 -1.104,0.953 -2.281,3.906 -0.583,6.245 l 0.13,1.702 c -0.067,1.167 -0.088,1.74 -0.166,2.312 -0.136,0.991 -0.214,2.063 -0.365,4.016 -0.271,3.459 0.579,7.208 0.579,7.208 -0.063,1.246 1.801,1.672 1.801,1.672"
     id="path173" />
  <path
     style="fill:none;stroke:#231f20;stroke-width:0.565977;stroke-linecap:butt;stroke-linejoin:miter;stroke-miterlimit:4;stroke-dasharray:none;stroke-opacity:1"
     d="m 112.4478,116.879 c 3.875,1.032 3.052,-2.962 3.177,-3.426 1.323,-4.828 1.292,-5.214 2.042,-8.964 1.073,-5.421 0.985,-9.296 -1.99,-10.844 -2.016,-1.052 -3.63,-0.785 -4.625,0.079 -1.104,0.953 -2.281,3.906 -0.583,6.245 l 0.13,1.702 c -0.067,1.167 -0.088,1.74 -0.166,2.312 -0.136,0.991 -0.214,2.063 -0.365,4.016 -0.271,3.459 0.579,7.208 0.579,7.208 -0.063,1.246 1.801,1.672 1.801,1.672 z"
     id="path174" />
  <path
     style="fill:#ca0369;fill-opacity:1;fill-rule:nonzero;stroke:none"
     d="m 118.0568,96.994 c -0.333,-1.52 -1.068,-2.672 -2.38,-3.353 -2.016,-1.048 -3.63,-0.781 -4.625,0.083 -1.104,0.953 -2.281,3.906 -0.583,6.245 l 7.703,1.312 c 0.073,-0.656 0.099,-1.26 0.109,-1.849 0.027,-0.072 0.052,-0.146 0.084,-0.208 0.38,-0.714 0.14,-1.298 -0.308,-2.23"
     id="path175" />
  <path
     style="fill:none;stroke:#231f20;stroke-width:0.565977;stroke-linecap:butt;stroke-linejoin:miter;stroke-miterlimit:4;stroke-dasharray:none;stroke-opacity:1"
     d="m 118.0568,96.994 c -0.333,-1.52 -1.068,-2.672 -2.38,-3.353 -2.016,-1.048 -3.63,-0.781 -4.625,0.083 -1.104,0.953 -2.281,3.906 -0.583,6.245 l 7.703,1.312 c 0.073,-0.656 0.099,-1.26 0.109,-1.849 0.027,-0.072 0.052,-0.146 0.084,-0.208 0.38,-0.714 0.14,-1.298 -0.308,-2.23 z"
     id="path176" />
  <path
     style="fill:#231f20;fill-opacity:1;fill-rule:nonzero;stroke:none"
     d="m 113.6308,58.817 c 0.369,0.527 0.172,2.464 0.634,4.005 0.314,1.038 -0.041,3.762 0.35,4.771 0.354,0.933 0.428,1.391 -0.563,1.98 -0.588,0.348 -1.943,0.64 -2.224,0.208 -0.651,-0.989 -0.822,-1.921 -0.791,-2.995 0.036,-1.213 0.427,-4.5 0.552,-5.098 0.329,-1.49 0,-2.152 0.047,-2.552 0.088,-0.756 0.401,-0.907 0.907,-0.959 0.952,-0.088 1.088,0.64 1.088,0.64"
     id="path177" />
  <path
     style="fill:none;stroke:#231f20;stroke-width:0.565977;stroke-linecap:butt;stroke-linejoin:miter;stroke-miterlimit:4;stroke-dasharray:none;stroke-opacity:1"
     d="m 113.6308,58.817 c 0.369,0.527 0.172,2.464 0.634,4.005 0.314,1.038 -0.041,3.762 0.35,4.771 0.354,0.933 0.428,1.391 -0.563,1.98 -0.588,0.348 -1.943,0.64 -2.224,0.208 -0.651,-0.989 -0.822,-1.921 -0.791,-2.995 0.036,-1.213 0.427,-4.5 0.552,-5.098 0.329,-1.49 0,-2.152 0.047,-2.552 0.088,-0.756 0.401,-0.907 0.907,-0.959 0.952,-0.088 1.088,0.64 1.088,0.64 z"
     id="path178" />
  <path
     style="fill:#231f20;fill-opacity:1;fill-rule:nonzero;stroke:none"
     d="m 113.9948,67.869 c 1.292,0.089 0.786,2.063 0.729,2.6 -0.052,0.541 -0.036,2.099 0.136,3.307 0.172,1.213 -0.136,2.802 0.187,5.104 0.166,1.209 -0.438,2.494 -2.203,2.661 -1.749,0.167 -2.5,-0.749 -2.484,-2.244 0.016,-1.5 0.666,-2.896 0.792,-4.407 0.119,-1.505 0.104,-3.052 0.036,-4.26 -0.079,-1.385 0.396,-2.094 0.823,-2.308 1.073,-0.53 1.984,-0.453 1.984,-0.453"
     id="path179" />
  <path
     style="fill:none;stroke:#231f20;stroke-width:0.565977;stroke-linecap:butt;stroke-linejoin:miter;stroke-miterlimit:4;stroke-dasharray:none;stroke-opacity:1"
     d="m 113.9948,67.869 c 1.292,0.089 0.786,2.063 0.729,2.6 -0.052,0.541 -0.036,2.099 0.136,3.307 0.172,1.213 -0.136,2.802 0.187,5.104 0.166,1.209 -0.438,2.494 -2.203,2.661 -1.749,0.167 -2.5,-0.749 -2.484,-2.244 0.016,-1.5 0.666,-2.896 0.792,-4.407 0.119,-1.505 0.104,-3.052 0.036,-4.26 -0.079,-1.385 0.396,-2.094 0.823,-2.308 1.073,-0.53 1.984,-0.453 1.984,-0.453 z"
     id="path180" />
  <path
     style="fill:#231f20;fill-opacity:1;fill-rule:nonzero;stroke:none"
     d="m 111.7398,58.808 c -0.645,-0.272 -0.812,-2.579 -0.521,-2.704 0.297,-0.13 0.266,0.641 0.6,0.516 0.333,-0.126 0.276,-0.626 0.504,-0.646 0.25,-0.021 0.229,0.583 0.521,0.5 0.125,-0.032 0.355,-0.584 0.541,-0.537 0.162,0.032 0.35,0.521 0.48,0.557 0.203,0.058 0.282,-0.552 0.458,-0.52 0.453,0.083 -0.239,2.708 -0.452,2.818 -0.319,0.161 -1.09,0.453 -2.131,0.016"
     id="path181" />
  <path
     style="fill:none;stroke:#231f20;stroke-width:0.565977;stroke-linecap:round;stroke-linejoin:round;stroke-miterlimit:4;stroke-dasharray:none;stroke-opacity:1"
     d="m 111.7398,58.808 c -0.645,-0.272 -0.812,-2.579 -0.521,-2.704 0.297,-0.13 0.266,0.641 0.6,0.516 0.333,-0.126 0.276,-0.626 0.504,-0.646 0.25,-0.021 0.229,0.583 0.521,0.5 0.125,-0.032 0.355,-0.584 0.541,-0.537 0.162,0.032 0.35,0.521 0.48,0.557 0.203,0.058 0.282,-0.552 0.458,-0.52 0.453,0.083 -0.239,2.708 -0.452,2.818 -0.319,0.161 -1.09,0.453 -2.131,0.016 z"
     id="path182" />
  <path
     style="fill:#231f20;fill-opacity:1;fill-rule:nonzero;stroke:none"
     d="m 255.8218,90.322 c -1.036,-0.864 -0.713,-1.801 0.178,-2.333 0.265,-0.161 0.328,-0.572 0.604,-0.703 0.625,-0.312 2.256,0.312 2.078,1.803 -0.01,0.109 0.146,0.911 0.162,1.536 0.041,1.208 -0.468,3.651 -2.74,5.109 -1.072,0.692 -1.282,-0.068 -0.932,-0.48 1.109,-1.301 0.953,-1.634 1.12,-2.082 0.573,-1.522 -0.47,-2.85 -0.47,-2.85"
     id="path183" />
  <path
     style="fill:none;stroke:#231f20;stroke-width:0.332927;stroke-linecap:butt;stroke-linejoin:miter;stroke-miterlimit:4;stroke-dasharray:none;stroke-opacity:1"
     d="m 255.8218,90.322 c -1.036,-0.864 -0.713,-1.801 0.178,-2.333 0.265,-0.161 0.328,-0.572 0.604,-0.703 0.625,-0.312 2.256,0.312 2.078,1.803 -0.01,0.109 0.146,0.911 0.162,1.536 0.041,1.208 -0.468,3.651 -2.74,5.109 -1.072,0.692 -1.282,-0.068 -0.932,-0.48 1.109,-1.301 0.953,-1.634 1.12,-2.082 0.573,-1.522 -0.47,-2.85 -0.47,-2.85 z"
     id="path184" />
  <path
     style="fill:#231f20;fill-opacity:1;fill-rule:nonzero;stroke:none"
     d="m 258.3018,71.74 c -2.229,-0.396 -2.718,-0.172 -2.948,0.754 -0.156,0.62 -0.51,1.147 -0.62,1.516 -0.369,1.244 -0.484,3.484 0.86,9.932 0.307,1.464 0.724,3.516 0.823,4.366 0.161,1.348 2.292,0.166 2.235,-0.36 -0.188,-1.703 -0.178,-2.891 -0.163,-3.516 0.011,-0.427 -0.067,-1.182 0.188,-2.828 0.396,-2.5 1.005,-3.932 1.089,-6.047 0.042,-0.979 0.692,-1.692 0.239,-2.677 -0.448,-0.99 -1.703,-1.14 -1.703,-1.14"
     id="path185" />
  <path
     style="fill:none;stroke:#231f20;stroke-width:0.565977;stroke-linecap:butt;stroke-linejoin:miter;stroke-miterlimit:4;stroke-dasharray:none;stroke-opacity:1"
     d="m 258.3018,71.74 c -2.229,-0.396 -2.718,-0.172 -2.948,0.754 -0.156,0.62 -0.51,1.147 -0.62,1.516 -0.369,1.244 -0.484,3.484 0.86,9.932 0.307,1.464 0.724,3.516 0.823,4.366 0.161,1.348 2.292,0.166 2.235,-0.36 -0.188,-1.703 -0.178,-2.891 -0.163,-3.516 0.011,-0.427 -0.067,-1.182 0.188,-2.828 0.396,-2.5 1.005,-3.932 1.089,-6.047 0.042,-0.979 0.692,-1.692 0.239,-2.677 -0.448,-0.99 -1.703,-1.14 -1.703,-1.14 z"
     id="path186" />
  <path
     style="fill:#ca0369;fill-opacity:1;fill-rule:nonzero;stroke:none"
     d="m 256.3488,45.817 c -0.068,3.136 -0.427,3.797 -0.807,4.636 -2.39,5.265 0.239,6.339 3.088,5.88 3.35,-0.536 4.558,-0.661 4.099,-6.943 -0.125,-1.745 0.256,-8.505 0.256,-8.505 0.463,-2.407 -0.365,-4.995 -1.552,-5.839 -1.251,-0.89 -0.819,-0.448 -2.131,-1.062 -1.245,-0.583 -3.422,-0.375 -4.13,0.641 -0.683,0.973 0.005,2.489 0.708,4.812 0.553,1.828 0.469,6.38 0.469,6.38"
     id="path187" />
  <path
     style="fill:none;stroke:#231f20;stroke-width:0.565977;stroke-linecap:butt;stroke-linejoin:miter;stroke-miterlimit:4;stroke-dasharray:none;stroke-opacity:1"
     d="m 256.3488,45.817 c -0.068,3.136 -0.427,3.797 -0.807,4.636 -2.39,5.265 0.239,6.339 3.088,5.88 3.35,-0.536 4.558,-0.661 4.099,-6.943 -0.125,-1.745 0.256,-8.505 0.256,-8.505 0.463,-2.407 -0.365,-4.995 -1.552,-5.839 -1.251,-0.89 -0.819,-0.448 -2.131,-1.062 -1.245,-0.583 -3.422,-0.375 -4.13,0.641 -0.683,0.973 0.005,2.489 0.708,4.812 0.553,1.828 0.469,6.38 0.469,6.38 z"
     id="path188" />
  <path
     style="fill:#ffffff;fill-opacity:1;fill-rule:nonzero;stroke:none"
     d="m 261.7238,28.032 c 0.046,-0.24 1.193,-0.324 1.193,-0.85 0,-0.526 -0.765,-0.724 -1.609,-2.526 l -0.011,-0.015 c -0.573,-1.339 -1.615,-2.267 -2.86,-2.365 -2.072,-0.172 -3.943,1.969 -4.172,4.781 -0.228,2.817 1.256,5.24 3.329,5.407 1.979,0.166 3.776,-1.792 4.13,-4.432"
     id="path189" />
  <path
     style="fill:none;stroke:#231f20;stroke-width:0.565977;stroke-linecap:butt;stroke-linejoin:miter;stroke-miterlimit:4;stroke-dasharray:none;stroke-opacity:1"
     d="m 261.7238,28.032 c 0.046,-0.24 1.193,-0.324 1.193,-0.85 0,-0.526 -0.765,-0.724 -1.609,-2.526 l -0.011,-0.015 c -0.573,-1.339 -1.615,-2.267 -2.86,-2.365 -2.072,-0.172 -3.943,1.969 -4.172,4.781 -0.228,2.817 1.256,5.24 3.329,5.407 1.979,0.166 3.776,-1.792 4.13,-4.432 z"
     id="path190" />
  <path
     style="fill:#231f20;fill-opacity:1;fill-rule:nonzero;stroke:none"
     d="m 257.3218,74.01 c 3.876,1.036 3.054,-2.964 3.178,-3.422 1.322,-4.832 1.292,-5.214 2.037,-8.963 1.077,-5.423 0.984,-9.297 -1.985,-10.849 -2.015,-1.052 -3.63,-0.782 -4.63,0.078 -1.104,0.954 -2.276,3.906 -0.578,6.244 l 0.125,1.71 c -0.063,1.161 -0.084,1.738 -0.161,2.306 -0.136,0.995 -0.214,2.068 -0.366,4.016 -0.27,3.463 0.579,7.214 0.579,7.214 -0.063,1.24 1.801,1.666 1.801,1.666"
     id="path191" />
  <path
     style="fill:none;stroke:#231f20;stroke-width:0.565977;stroke-linecap:butt;stroke-linejoin:miter;stroke-miterlimit:4;stroke-dasharray:none;stroke-opacity:1"
     d="m 257.3218,74.01 c 3.876,1.036 3.054,-2.964 3.178,-3.422 1.322,-4.832 1.292,-5.214 2.037,-8.963 1.077,-5.423 0.984,-9.297 -1.985,-10.849 -2.015,-1.052 -3.63,-0.782 -4.63,0.078 -1.104,0.954 -2.276,3.906 -0.578,6.244 l 0.125,1.71 c -0.063,1.161 -0.084,1.738 -0.161,2.306 -0.136,0.995 -0.214,2.068 -0.366,4.016 -0.27,3.463 0.579,7.214 0.579,7.214 -0.063,1.24 1.801,1.666 1.801,1.666 z"
     id="path192" />
  <path
     style="fill:#ca0369;fill-opacity:1;fill-rule:nonzero;stroke:none"
     d="m 262.9318,54.125 c -0.338,-1.516 -1.072,-2.667 -2.38,-3.349 -2.015,-1.052 -3.63,-0.782 -4.63,0.078 -1.104,0.954 -2.276,3.906 -0.578,6.244 l 7.702,1.314 c 0.074,-0.652 0.1,-1.262 0.106,-1.844 0.03,-0.079 0.057,-0.151 0.088,-0.214 0.38,-0.713 0.136,-1.292 -0.308,-2.229"
     id="path193" />
  <path
     style="fill:none;stroke:#231f20;stroke-width:0.565977;stroke-linecap:butt;stroke-linejoin:miter;stroke-miterlimit:4;stroke-dasharray:none;stroke-opacity:1"
     d="m 262.9318,54.125 c -0.338,-1.516 -1.072,-2.667 -2.38,-3.349 -2.015,-1.052 -3.63,-0.782 -4.63,0.078 -1.104,0.954 -2.276,3.906 -0.578,6.244 l 7.702,1.314 c 0.074,-0.652 0.1,-1.262 0.106,-1.844 0.03,-0.079 0.057,-0.151 0.088,-0.214 0.38,-0.713 0.136,-1.292 -0.308,-2.229 z"
     id="path194" />
  <path
     style="fill:#231f20;fill-opacity:1;fill-rule:nonzero;stroke:none"
     d="m 257.6038,56.812 c -0.38,-0.52 -0.214,-2.458 -0.703,-3.995 -0.333,-1.031 -0.025,-3.76 -0.432,-4.765 -0.369,-0.922 -0.459,-1.38 0.525,-1.984 0.579,-0.36 1.928,-0.672 2.219,-0.251 0.672,0.98 0.855,1.907 0.844,2.98 -0.015,1.213 -0.348,4.511 -0.463,5.109 -0.297,1.495 0.036,2.151 -0.005,2.552 -0.073,0.76 -0.38,0.916 -0.885,0.974 -0.948,0.109 -1.1,-0.62 -1.1,-0.62"
     id="path195" />
  <path
     style="fill:none;stroke:#231f20;stroke-width:0.565977;stroke-linecap:butt;stroke-linejoin:miter;stroke-miterlimit:4;stroke-dasharray:none;stroke-opacity:1"
     d="m 257.6038,56.812 c -0.38,-0.52 -0.214,-2.458 -0.703,-3.995 -0.333,-1.031 -0.025,-3.76 -0.432,-4.765 -0.369,-0.922 -0.459,-1.38 0.525,-1.984 0.579,-0.36 1.928,-0.672 2.219,-0.251 0.672,0.98 0.855,1.907 0.844,2.98 -0.015,1.213 -0.348,4.511 -0.463,5.109 -0.297,1.495 0.036,2.151 -0.005,2.552 -0.073,0.76 -0.38,0.916 -0.885,0.974 -0.948,0.109 -1.1,-0.62 -1.1,-0.62 z"
     id="path196" />
  <path
     style="fill:#231f20;fill-opacity:1;fill-rule:nonzero;stroke:none"
     d="m 257.0778,47.77 c -1.292,-0.068 -0.817,-2.046 -0.776,-2.588 0.047,-0.541 0,-2.093 -0.188,-3.302 -0.192,-1.214 0.084,-2.802 -0.276,-5.099 -0.192,-1.208 0.391,-2.505 2.156,-2.703 1.74,-0.198 2.511,0.708 2.522,2.203 0.005,1.495 -0.62,2.907 -0.714,4.417 -0.098,1.504 -0.052,3.052 0.036,4.266 0.104,1.374 -0.358,2.093 -0.781,2.312 -1.063,0.552 -1.979,0.494 -1.979,0.494"
     id="path197" />
  <path
     style="fill:none;stroke:#231f20;stroke-width:0.565977;stroke-linecap:butt;stroke-linejoin:miter;stroke-miterlimit:4;stroke-dasharray:none;stroke-opacity:1"
     d="m 257.0778,47.77 c -1.292,-0.068 -0.817,-2.046 -0.776,-2.588 0.047,-0.541 0,-2.093 -0.188,-3.302 -0.192,-1.214 0.084,-2.802 -0.276,-5.099 -0.192,-1.208 0.391,-2.505 2.156,-2.703 1.74,-0.198 2.511,0.708 2.522,2.203 0.005,1.495 -0.62,2.907 -0.714,4.417 -0.098,1.504 -0.052,3.052 0.036,4.266 0.104,1.374 -0.358,2.093 -0.781,2.312 -1.063,0.552 -1.979,0.494 -1.979,0.494 z"
     id="path198" />
  <path
     style="fill:#231f20;fill-opacity:1;fill-rule:nonzero;stroke:none"
     d="m 157.8798,113.745 c -1.036,-0.866 -0.708,-1.803 0.177,-2.334 0.266,-0.161 0.334,-0.573 0.604,-0.704 0.631,-0.312 2.262,0.314 2.084,1.803 -0.01,0.109 0.14,0.912 0.162,1.531 0.036,1.213 -0.474,3.657 -2.74,5.114 -1.078,0.694 -1.287,-0.066 -0.932,-0.484 1.109,-1.302 0.948,-1.636 1.12,-2.078 0.568,-1.52 -0.475,-2.848 -0.475,-2.848"
     id="path199" />
  <path
     style="fill:none;stroke:#231f20;stroke-width:0.332927;stroke-linecap:butt;stroke-linejoin:miter;stroke-miterlimit:4;stroke-dasharray:none;stroke-opacity:1"
     d="m 157.8798,113.745 c -1.036,-0.866 -0.708,-1.803 0.177,-2.334 0.266,-0.161 0.334,-0.573 0.604,-0.704 0.631,-0.312 2.262,0.314 2.084,1.803 -0.01,0.109 0.14,0.912 0.162,1.531 0.036,1.213 -0.474,3.657 -2.74,5.114 -1.078,0.694 -1.287,-0.066 -0.932,-0.484 1.109,-1.302 0.948,-1.636 1.12,-2.078 0.568,-1.52 -0.475,-2.848 -0.475,-2.848 z"
     id="path200" />
  <path
     style="fill:#231f20;fill-opacity:1;fill-rule:nonzero;stroke:none"
     d="m 160.3648,95.156 c -2.229,-0.396 -2.718,-0.172 -2.953,0.761 -0.151,0.619 -0.505,1.14 -0.615,1.515 -0.374,1.245 -0.484,3.485 0.859,9.933 0.303,1.457 0.72,3.514 0.824,4.364 0.161,1.349 2.287,0.166 2.229,-0.36 -0.182,-1.708 -0.177,-2.895 -0.157,-3.515 0.011,-0.428 -0.067,-1.188 0.188,-2.833 0.396,-2.495 1,-3.932 1.088,-6.047 0.037,-0.98 0.693,-1.693 0.24,-2.677 -0.453,-0.985 -1.703,-1.141 -1.703,-1.141"
     id="path201" />
  <path
     style="fill:none;stroke:#231f20;stroke-width:0.565977;stroke-linecap:butt;stroke-linejoin:miter;stroke-miterlimit:4;stroke-dasharray:none;stroke-opacity:1"
     d="m 160.3648,95.156 c -2.229,-0.396 -2.718,-0.172 -2.953,0.761 -0.151,0.619 -0.505,1.14 -0.615,1.515 -0.374,1.245 -0.484,3.485 0.859,9.933 0.303,1.457 0.72,3.514 0.824,4.364 0.161,1.349 2.287,0.166 2.229,-0.36 -0.182,-1.708 -0.177,-2.895 -0.157,-3.515 0.011,-0.428 -0.067,-1.188 0.188,-2.833 0.396,-2.495 1,-3.932 1.088,-6.047 0.037,-0.98 0.693,-1.693 0.24,-2.677 -0.453,-0.985 -1.703,-1.141 -1.703,-1.141 z"
     id="path202" />
  <path
     style="fill:#ca0369;fill-opacity:1;fill-rule:nonzero;stroke:none"
     d="m 158.4068,69.24 c -0.068,3.134 -0.427,3.796 -0.808,4.634 -2.386,5.267 0.245,6.339 3.089,5.882 3.349,-0.538 4.563,-0.663 4.104,-6.944 -0.131,-1.744 0.251,-8.51 0.251,-8.51 0.468,-2.401 -0.366,-4.99 -1.554,-5.833 -1.249,-0.891 -0.817,-0.448 -2.129,-1.063 -1.24,-0.584 -3.417,-0.374 -4.125,0.64 -0.683,0.97 0.005,2.49 0.708,4.814 0.552,1.828 0.464,6.38 0.464,6.38"
     id="path203" />
  <path
     style="fill:none;stroke:#231f20;stroke-width:0.565977;stroke-linecap:butt;stroke-linejoin:miter;stroke-miterlimit:4;stroke-dasharray:none;stroke-opacity:1"
     d="m 158.4068,69.24 c -0.068,3.134 -0.427,3.796 -0.808,4.634 -2.386,5.267 0.245,6.339 3.089,5.882 3.349,-0.538 4.563,-0.663 4.104,-6.944 -0.131,-1.744 0.251,-8.51 0.251,-8.51 0.468,-2.401 -0.366,-4.99 -1.554,-5.833 -1.249,-0.891 -0.817,-0.448 -2.129,-1.063 -1.24,-0.584 -3.417,-0.374 -4.125,0.64 -0.683,0.97 0.005,2.49 0.708,4.814 0.552,1.828 0.464,6.38 0.464,6.38 z"
     id="path204" />
  <path
     style="fill:#ffffff;fill-opacity:1;fill-rule:nonzero;stroke:none"
     d="m 163.7808,51.453 c 0.047,-0.24 1.194,-0.328 1.194,-0.849 0,-0.526 -0.762,-0.724 -1.61,-2.526 l -0.005,-0.021 c -0.579,-1.333 -1.615,-2.26 -2.865,-2.364 -2.067,-0.172 -3.938,1.973 -4.167,4.785 -0.233,2.819 1.256,5.235 3.324,5.407 1.979,0.167 3.776,-1.796 4.129,-4.432"
     id="path205" />
  <path
     style="fill:none;stroke:#231f20;stroke-width:0.565977;stroke-linecap:butt;stroke-linejoin:miter;stroke-miterlimit:4;stroke-dasharray:none;stroke-opacity:1"
     d="m 163.7808,51.453 c 0.047,-0.24 1.194,-0.328 1.194,-0.849 0,-0.526 -0.762,-0.724 -1.61,-2.526 l -0.005,-0.021 c -0.579,-1.333 -1.615,-2.26 -2.865,-2.364 -2.067,-0.172 -3.938,1.973 -4.167,4.785 -0.233,2.819 1.256,5.235 3.324,5.407 1.979,0.167 3.776,-1.796 4.129,-4.432 z"
     id="path206" />
  <path
     style="fill:#231f20;fill-opacity:1;fill-rule:nonzero;stroke:none"
     d="m 159.3798,97.432 c 3.876,1.037 3.057,-2.963 3.183,-3.422 1.317,-4.833 1.292,-5.213 2.036,-8.964 1.078,-5.421 0.985,-9.301 -1.99,-10.848 -2.014,-1.053 -3.629,-0.781 -4.624,0.078 -1.105,0.953 -2.281,3.906 -0.584,6.245 l 0.131,1.708 c -0.068,1.161 -0.089,1.735 -0.167,2.307 -0.136,0.996 -0.209,2.062 -0.365,4.016 -0.271,3.464 0.584,7.208 0.584,7.208 -0.068,1.245 1.796,1.672 1.796,1.672"
     id="path207" />
  <path
     style="fill:none;stroke:#231f20;stroke-width:0.565977;stroke-linecap:butt;stroke-linejoin:miter;stroke-miterlimit:4;stroke-dasharray:none;stroke-opacity:1"
     d="m 159.3798,97.432 c 3.876,1.037 3.057,-2.963 3.183,-3.422 1.317,-4.833 1.292,-5.213 2.036,-8.964 1.078,-5.421 0.985,-9.301 -1.99,-10.848 -2.014,-1.053 -3.629,-0.781 -4.624,0.078 -1.105,0.953 -2.281,3.906 -0.584,6.245 l 0.131,1.708 c -0.068,1.161 -0.089,1.735 -0.167,2.307 -0.136,0.996 -0.209,2.062 -0.365,4.016 -0.271,3.464 0.584,7.208 0.584,7.208 -0.068,1.245 1.796,1.672 1.796,1.672 z"
     id="path208" />
  <path
     style="fill:#ca0369;fill-opacity:1;fill-rule:nonzero;stroke:none"
     d="m 164.9948,77.541 c -0.339,-1.515 -1.072,-2.661 -2.386,-3.343 -2.014,-1.053 -3.629,-0.786 -4.624,0.078 -1.105,0.953 -2.281,3.906 -0.584,6.245 l 7.703,1.312 c 0.073,-0.651 0.1,-1.26 0.109,-1.844 0.027,-0.077 0.052,-0.151 0.09,-0.213 0.374,-0.714 0.134,-1.292 -0.308,-2.235"
     id="path209" />
  <path
     style="fill:none;stroke:#231f20;stroke-width:0.565977;stroke-linecap:butt;stroke-linejoin:miter;stroke-miterlimit:4;stroke-dasharray:none;stroke-opacity:1"
     d="m 164.9948,77.541 c -0.339,-1.515 -1.072,-2.661 -2.386,-3.343 -2.014,-1.053 -3.629,-0.786 -4.624,0.078 -1.105,0.953 -2.281,3.906 -0.584,6.245 l 7.703,1.312 c 0.073,-0.651 0.1,-1.26 0.109,-1.844 0.027,-0.077 0.052,-0.151 0.09,-0.213 0.374,-0.714 0.134,-1.292 -0.308,-2.235 z"
     id="path210" />
  <path
     style="fill:#231f20;fill-opacity:1;fill-rule:nonzero;stroke:none"
     d="m 177.0568,56.713 c -0.093,0.641 -1.568,1.912 -2.296,3.349 -0.485,0.964 -2.614,2.703 -3.026,3.703 -0.38,0.917 -0.646,1.303 -1.766,1.047 -0.666,-0.146 -1.849,-0.87 -1.765,-1.375 0.213,-1.172 0.728,-1.963 1.489,-2.719 0.859,-0.853 3.407,-2.973 3.906,-3.317 1.261,-0.86 1.48,-1.568 1.792,-1.823 0.584,-0.489 0.917,-0.385 1.313,-0.073 0.755,0.588 0.353,1.208 0.353,1.208"
     id="path211" />
  <path
     style="fill:none;stroke:#231f20;stroke-width:0.565977;stroke-linecap:butt;stroke-linejoin:miter;stroke-miterlimit:4;stroke-dasharray:none;stroke-opacity:1"
     d="m 177.0568,56.713 c -0.093,0.641 -1.568,1.912 -2.296,3.349 -0.485,0.964 -2.614,2.703 -3.026,3.703 -0.38,0.917 -0.646,1.303 -1.766,1.047 -0.666,-0.146 -1.849,-0.87 -1.765,-1.375 0.213,-1.172 0.728,-1.963 1.489,-2.719 0.859,-0.853 3.407,-2.973 3.906,-3.317 1.261,-0.86 1.48,-1.568 1.792,-1.823 0.584,-0.489 0.917,-0.385 1.313,-0.073 0.755,0.588 0.353,1.208 0.353,1.208 z"
     id="path212" />
  <path
     style="fill:#231f20;fill-opacity:1;fill-rule:nonzero;stroke:none"
     d="m 170.6928,64.65 c -0.432,1.224 -2.193,0.204 -2.698,0.006 -0.51,-0.198 -2.01,-0.594 -3.224,-0.755 -1.214,-0.167 -2.662,-0.88 -4.963,-1.193 -1.213,-0.162 -2.292,-1.088 -1.98,-2.834 0.313,-1.729 1.396,-2.208 2.833,-1.79 1.439,0.416 2.61,1.416 4.032,1.942 1.416,0.52 2.911,0.922 4.094,1.176 1.354,0.298 1.912,0.943 2,1.412 0.224,1.178 -0.094,2.036 -0.094,2.036"
     id="path213" />
  <path
     style="fill:none;stroke:#231f20;stroke-width:0.565977;stroke-linecap:butt;stroke-linejoin:miter;stroke-miterlimit:4;stroke-dasharray:none;stroke-opacity:1"
     d="m 170.6928,64.65 c -0.432,1.224 -2.193,0.204 -2.698,0.006 -0.51,-0.198 -2.01,-0.594 -3.224,-0.755 -1.214,-0.167 -2.662,-0.88 -4.963,-1.193 -1.213,-0.162 -2.292,-1.088 -1.98,-2.834 0.313,-1.729 1.396,-2.208 2.833,-1.79 1.439,0.416 2.61,1.416 4.032,1.942 1.416,0.52 2.911,0.922 4.094,1.176 1.354,0.298 1.912,0.943 2,1.412 0.224,1.178 -0.094,2.036 -0.094,2.036 z"
     id="path214" />
  <path
     style="fill:#231f20;fill-opacity:1;fill-rule:nonzero;stroke:none"
     d="m 210.0938,94.532 c -1.172,-0.688 -1,-1.663 -0.214,-2.334 0.234,-0.198 0.234,-0.614 0.48,-0.797 0.572,-0.407 2.281,-0.063 2.353,1.437 0.005,0.11 0.292,0.88 0.412,1.484 0.24,1.194 0.136,3.683 -1.86,5.495 -0.947,0.86 -1.276,0.147 -1,-0.317 0.881,-1.468 0.667,-1.771 0.761,-2.24 0.312,-1.594 -0.932,-2.728 -0.932,-2.728"
     id="path215" />
  <path
     style="fill:none;stroke:#231f20;stroke-width:0.332927;stroke-linecap:butt;stroke-linejoin:miter;stroke-miterlimit:4;stroke-dasharray:none;stroke-opacity:1"
     d="m 210.0938,94.532 c -1.172,-0.688 -1,-1.663 -0.214,-2.334 0.234,-0.198 0.234,-0.614 0.48,-0.797 0.572,-0.407 2.281,-0.063 2.353,1.437 0.005,0.11 0.292,0.88 0.412,1.484 0.24,1.194 0.136,3.683 -1.86,5.495 -0.947,0.86 -1.276,0.147 -1,-0.317 0.881,-1.468 0.667,-1.771 0.761,-2.24 0.312,-1.594 -0.932,-2.728 -0.932,-2.728 z"
     id="path216" />
  <path
     style="fill:#231f20;fill-opacity:1;fill-rule:nonzero;stroke:none"
     d="m 209.4738,75.792 c -2.265,-0.027 -2.708,0.276 -2.786,1.234 -0.047,0.635 -0.308,1.208 -0.36,1.594 -0.162,1.286 0.1,3.516 2.485,9.65 0.547,1.391 1.291,3.355 1.536,4.172 0.38,1.308 2.287,-0.213 2.14,-0.724 -0.463,-1.65 -0.651,-2.822 -0.733,-3.437 -0.063,-0.427 -0.267,-1.161 -0.282,-2.823 -0.026,-2.526 0.339,-4.046 0.072,-6.146 -0.124,-0.974 0.402,-1.786 -0.202,-2.682 -0.61,-0.896 -1.87,-0.838 -1.87,-0.838"
     id="path217" />
  <path
     style="fill:none;stroke:#231f20;stroke-width:0.565977;stroke-linecap:butt;stroke-linejoin:miter;stroke-miterlimit:4;stroke-dasharray:none;stroke-opacity:1"
     d="m 209.4738,75.792 c -2.265,-0.027 -2.708,0.276 -2.786,1.234 -0.047,0.635 -0.308,1.208 -0.36,1.594 -0.162,1.286 0.1,3.516 2.485,9.65 0.547,1.391 1.291,3.355 1.536,4.172 0.38,1.308 2.287,-0.213 2.14,-0.724 -0.463,-1.65 -0.651,-2.822 -0.733,-3.437 -0.063,-0.427 -0.267,-1.161 -0.282,-2.823 -0.026,-2.526 0.339,-4.046 0.072,-6.146 -0.124,-0.974 0.402,-1.786 -0.202,-2.682 -0.61,-0.896 -1.87,-0.838 -1.87,-0.838 z"
     id="path218" />
  <path
     style="fill:#ca0369;fill-opacity:1;fill-rule:nonzero;stroke:none"
     d="m 206.8278,49.448 c -1.026,2.958 -1.572,3.478 -2.192,4.161 -3.891,4.276 -1.719,6.109 1.134,6.547 3.35,0.516 4.543,0.765 6.032,-5.348 0.416,-1.699 2.859,-8.022 2.859,-8.022 1.177,-2.141 1.183,-4.865 0.313,-6.03 -0.917,-1.23 -0.641,-0.678 -1.704,-1.663 -1.005,-0.937 -3.134,-1.405 -4.124,-0.661 -0.948,0.713 -0.756,2.37 -0.802,4.797 -0.036,1.912 -1.516,6.219 -1.516,6.219"
     id="path219" />
  <path
     style="fill:none;stroke:#231f20;stroke-width:0.565977;stroke-linecap:butt;stroke-linejoin:miter;stroke-miterlimit:4;stroke-dasharray:none;stroke-opacity:1"
     d="m 206.8278,49.448 c -1.026,2.958 -1.572,3.478 -2.192,4.161 -3.891,4.276 -1.719,6.109 1.134,6.547 3.35,0.516 4.543,0.765 6.032,-5.348 0.416,-1.699 2.859,-8.022 2.859,-8.022 1.177,-2.141 1.183,-4.865 0.313,-6.03 -0.917,-1.23 -0.641,-0.678 -1.704,-1.663 -1.005,-0.937 -3.134,-1.405 -4.124,-0.661 -0.948,0.713 -0.756,2.37 -0.802,4.797 -0.036,1.912 -1.516,6.219 -1.516,6.219 z"
     id="path220" />
  <path
     style="fill:#ffffff;fill-opacity:1;fill-rule:nonzero;stroke:none"
     d="m 217.6768,34.469 c 0.12,-0.215 1.24,0.063 1.401,-0.437 0.156,-0.5 -0.505,-0.928 -0.76,-2.902 v -0.021 c -0.136,-1.448 -0.838,-2.645 -2,-3.125 -1.917,-0.802 -4.354,0.666 -5.438,3.27 -1.083,2.611 -0.411,5.371 1.505,6.168 1.833,0.766 4.147,-0.548 5.292,-2.953"
     id="path221" />
  <path
     style="fill:none;stroke:#231f20;stroke-width:0.565977;stroke-linecap:butt;stroke-linejoin:miter;stroke-miterlimit:4;stroke-dasharray:none;stroke-opacity:1"
     d="m 217.6768,34.469 c 0.12,-0.215 1.24,0.063 1.401,-0.437 0.156,-0.5 -0.505,-0.928 -0.76,-2.902 v -0.021 c -0.136,-1.448 -0.838,-2.645 -2,-3.125 -1.917,-0.802 -4.354,0.666 -5.438,3.27 -1.083,2.611 -0.411,5.371 1.505,6.168 1.833,0.766 4.147,-0.548 5.292,-2.953 z"
     id="path222" />
  <path
     style="fill:#231f20;fill-opacity:1;fill-rule:nonzero;stroke:none"
     d="m 208.8798,78.193 c 3.996,0.38 2.526,-3.428 2.573,-3.901 0.505,-4.984 0.412,-5.355 0.527,-9.178 0.172,-5.526 -0.558,-9.333 -3.746,-10.369 -2.161,-0.704 -3.708,-0.172 -4.552,0.839 -0.932,1.124 -1.604,4.233 0.459,6.254 l 0.405,1.662 c 0.126,1.156 0.204,1.734 0.22,2.308 0.031,1 0.13,2.072 0.302,4.02 0.302,3.458 1.76,7.016 1.76,7.016 0.141,1.234 2.052,1.349 2.052,1.349"
     id="path223" />
  <path
     style="fill:none;stroke:#231f20;stroke-width:0.565977;stroke-linecap:butt;stroke-linejoin:miter;stroke-miterlimit:4;stroke-dasharray:none;stroke-opacity:1"
     d="m 208.8798,78.193 c 3.996,0.38 2.526,-3.428 2.573,-3.901 0.505,-4.984 0.412,-5.355 0.527,-9.178 0.172,-5.526 -0.558,-9.333 -3.746,-10.369 -2.161,-0.704 -3.708,-0.172 -4.552,0.839 -0.932,1.124 -1.604,4.233 0.459,6.254 l 0.405,1.662 c 0.126,1.156 0.204,1.734 0.22,2.308 0.031,1 0.13,2.072 0.302,4.02 0.302,3.458 1.76,7.016 1.76,7.016 0.141,1.234 2.052,1.349 2.052,1.349 z"
     id="path224" />
  <path
     style="fill:#ca0369;fill-opacity:1;fill-rule:nonzero;stroke:none"
     d="m 211.6558,59.756 c 0.016,-0.084 0.032,-0.163 0.053,-0.23 0.255,-0.761 -0.079,-1.292 -0.672,-2.146 -0.584,-1.443 -1.5,-2.454 -2.901,-2.906 -2.162,-0.709 -3.708,-0.177 -4.552,0.838 -0.928,1.12 -1.604,4.229 0.458,6.256 l 7.812,0.02 c -0.036,-0.651 -0.109,-1.255 -0.198,-1.832"
     id="path225" />
  <path
     style="fill:none;stroke:#231f20;stroke-width:0.565977;stroke-linecap:butt;stroke-linejoin:miter;stroke-miterlimit:4;stroke-dasharray:none;stroke-opacity:1"
     d="m 211.6558,59.756 c 0.016,-0.084 0.032,-0.163 0.053,-0.23 0.255,-0.761 -0.079,-1.292 -0.672,-2.146 -0.584,-1.443 -1.5,-2.454 -2.901,-2.906 -2.162,-0.709 -3.708,-0.177 -4.552,0.838 -0.928,1.12 -1.604,4.229 0.458,6.256 l 7.812,0.02 c -0.036,-0.651 -0.109,-1.255 -0.198,-1.832 z"
     id="path226" />
  <path
     style="fill:#231f20;fill-opacity:1;fill-rule:nonzero;stroke:none"
     d="m 205.3018,49.953 c -1.136,-0.62 0.146,-2.197 0.422,-2.667 0.27,-0.474 0.901,-1.89 1.25,-3.062 0.354,-1.178 1.287,-2.49 1.954,-4.719 0.353,-1.172 1.437,-2.093 3.114,-1.511 1.656,0.579 1.958,1.724 1.323,3.079 -0.641,1.353 -1.813,2.353 -2.552,3.677 -0.735,1.318 -1.365,2.728 -1.808,3.859 -0.5,1.292 -1.229,1.74 -1.703,1.756 -1.198,0.036 -2,-0.412 -2,-0.412"
     id="path227" />
  <path
     style="fill:none;stroke:#231f20;stroke-width:0.565977;stroke-linecap:butt;stroke-linejoin:miter;stroke-miterlimit:4;stroke-dasharray:none;stroke-opacity:1"
     d="m 205.3018,49.953 c -1.136,-0.62 0.146,-2.197 0.422,-2.667 0.27,-0.474 0.901,-1.89 1.25,-3.062 0.354,-1.178 1.287,-2.49 1.954,-4.719 0.353,-1.172 1.437,-2.093 3.114,-1.511 1.656,0.579 1.958,1.724 1.323,3.079 -0.641,1.353 -1.813,2.353 -2.552,3.677 -0.735,1.318 -1.365,2.728 -1.808,3.859 -0.5,1.292 -1.229,1.74 -1.703,1.756 -1.198,0.036 -2,-0.412 -2,-0.412 z"
     id="path228" />
  <path
     style="fill:#231f20;fill-opacity:1;fill-rule:nonzero;stroke:none"
     d="m 175.7668,54.625 c 0.036,-0.699 2.161,-1.625 2.374,-1.391 0.219,0.235 -0.516,0.464 -0.286,0.74 0.229,0.271 0.677,0.052 0.77,0.26 0.104,0.224 -0.473,0.407 -0.297,0.656 0.073,0.104 0.667,0.142 0.688,0.328 0.021,0.167 -0.375,0.506 -0.369,0.642 0.014,0.213 0.614,0.082 0.645,0.26 0.073,0.458 -2.636,0.672 -2.807,0.505 -0.256,-0.245 -0.786,-0.875 -0.718,-2"
     id="path229" />
  <path
     style="fill:none;stroke:#231f20;stroke-width:0.565977;stroke-linecap:round;stroke-linejoin:round;stroke-miterlimit:4;stroke-dasharray:none;stroke-opacity:1"
     d="m 175.7668,54.625 c 0.036,-0.699 2.161,-1.625 2.374,-1.391 0.219,0.235 -0.516,0.464 -0.286,0.74 0.229,0.271 0.677,0.052 0.77,0.26 0.104,0.224 -0.473,0.407 -0.297,0.656 0.073,0.104 0.667,0.142 0.688,0.328 0.021,0.167 -0.375,0.506 -0.369,0.642 0.014,0.213 0.614,0.082 0.645,0.26 0.073,0.458 -2.636,0.672 -2.807,0.505 -0.256,-0.245 -0.786,-0.875 -0.718,-2 z"
     id="path230" />
  <path
     style="fill:#ffffff;fill-opacity:1;fill-rule:nonzero;stroke:#231f20;stroke-width:0.665856;stroke-linecap:butt;stroke-linejoin:miter;stroke-miterlimit:4;stroke-dasharray:none;stroke-opacity:1"
     d="m 211.9798,48.152 h 1.328 V 16.474 h -1.328 z"
     id="path231" />
  <path
     style="fill:#231f20;fill-opacity:1;fill-rule:nonzero;stroke:none"
     d="m 212.0458,57.032 c -0.618,-0.183 -1.67,-1.819 -2.994,-2.735 -0.891,-0.615 -2.318,-2.959 -3.25,-3.511 -0.86,-0.5 -1.204,-0.812 -0.797,-1.89 0.24,-0.642 1.12,-1.714 1.604,-1.558 1.131,0.37 1.844,0.99 2.491,1.844 0.728,0.974 2.473,3.787 2.749,4.334 0.672,1.369 1.344,1.677 1.557,2.025 0.402,0.647 0.25,0.959 -0.109,1.313 -0.688,0.662 -1.251,0.178 -1.251,0.178"
     id="path232" />
  <path
     style="fill:none;stroke:#231f20;stroke-width:0.565977;stroke-linecap:butt;stroke-linejoin:miter;stroke-miterlimit:4;stroke-dasharray:none;stroke-opacity:1"
     d="m 212.0458,57.032 c -0.618,-0.183 -1.67,-1.819 -2.994,-2.735 -0.891,-0.615 -2.318,-2.959 -3.25,-3.511 -0.86,-0.5 -1.204,-0.812 -0.797,-1.89 0.24,-0.642 1.12,-1.714 1.604,-1.558 1.131,0.37 1.844,0.99 2.491,1.844 0.728,0.974 2.473,3.787 2.749,4.334 0.672,1.369 1.344,1.677 1.557,2.025 0.402,0.647 0.25,0.959 -0.109,1.313 -0.688,0.662 -1.251,0.178 -1.251,0.178 z"
     id="path233" />
  <path
     style="fill:#ffffff;fill-opacity:1;fill-rule:nonzero;stroke:none"
     d="m 208.7808,53.084 c 0,-2.355 1.917,-4.272 4.271,-4.272 2.354,0 4.266,1.917 4.266,4.272 0,2.353 -1.912,4.27 -4.266,4.27 -2.354,0 -4.271,-1.917 -4.271,-4.27 m -1.328,0 c 0,3.088 2.511,5.598 5.599,5.598 3.089,0 5.6,-2.51 5.6,-5.598 0,-3.09 -2.511,-5.606 -5.6,-5.606 -3.088,0 -5.599,2.516 -5.599,5.606"
     id="path234" />
  <path
     style="fill:none;stroke:#231f20;stroke-width:0.665856;stroke-linecap:butt;stroke-linejoin:miter;stroke-miterlimit:4;stroke-dasharray:none;stroke-opacity:1"
     d="m 208.7808,53.084 c 0,-2.355 1.917,-4.272 4.271,-4.272 2.354,0 4.266,1.917 4.266,4.272 0,2.353 -1.912,4.27 -4.266,4.27 -2.354,0 -4.271,-1.917 -4.271,-4.27 z m -1.328,0 c 0,3.088 2.511,5.598 5.599,5.598 3.089,0 5.6,-2.51 5.6,-5.598 0,-3.09 -2.511,-5.606 -5.6,-5.606 -3.088,0 -5.599,2.516 -5.599,5.606 z"
     id="path235" />
  <path
     style="fill:#ffffff;fill-opacity:1;fill-rule:nonzero;stroke:#231f20;stroke-width:0.665856;stroke-linecap:butt;stroke-linejoin:miter;stroke-miterlimit:4;stroke-dasharray:none;stroke-opacity:1"
     d="m 257.8848,48.152 h 1.333 V 16.474 h -1.333 z"
     id="path236" />
  <path
     style="fill:#ffffff;fill-opacity:1;fill-rule:nonzero;stroke:none"
     d="m 254.6928,53.084 c 0,-2.355 1.916,-4.272 4.271,-4.272 2.354,0 4.265,1.917 4.265,4.272 0,2.353 -1.911,4.27 -4.265,4.27 -2.355,0 -4.271,-1.917 -4.271,-4.27 m -1.328,0 c 0,3.088 2.511,5.598 5.599,5.598 3.088,0 5.598,-2.51 5.598,-5.598 0,-3.09 -2.51,-5.606 -5.598,-5.606 -3.088,0 -5.599,2.516 -5.599,5.606"
     id="path237" />
  <path
     style="fill:none;stroke:#231f20;stroke-width:0.665856;stroke-linecap:butt;stroke-linejoin:miter;stroke-miterlimit:4;stroke-dasharray:none;stroke-opacity:1"
     d="m 254.6928,53.084 c 0,-2.355 1.916,-4.272 4.271,-4.272 2.354,0 4.265,1.917 4.265,4.272 0,2.353 -1.911,4.27 -4.265,4.27 -2.355,0 -4.271,-1.917 -4.271,-4.27 z m -1.328,0 c 0,3.088 2.511,5.598 5.599,5.598 3.088,0 5.598,-2.51 5.598,-5.598 0,-3.09 -2.51,-5.606 -5.598,-5.606 -3.088,0 -5.599,2.516 -5.599,5.606 z"
     id="path238" />
  <path
     style="fill:#231f20;fill-opacity:1;fill-rule:nonzero;stroke:none"
     d="m 214.1138,56.218 c 0.688,0.126 1.339,2.35 1.079,2.538 -0.261,0.181 -0.396,-0.574 -0.693,-0.382 -0.302,0.194 -0.14,0.667 -0.359,0.735 -0.24,0.073 -0.344,-0.521 -0.615,-0.38 -0.114,0.063 -0.224,0.645 -0.412,0.64 -0.172,0 -0.453,-0.437 -0.588,-0.448 -0.213,-0.009 -0.161,0.6 -0.338,0.605 -0.464,0.02 -0.339,-2.693 -0.151,-2.844 0.281,-0.224 0.968,-0.672 2.077,-0.464"
     id="path239" />
  <path
     style="fill:none;stroke:#231f20;stroke-width:0.565977;stroke-linecap:round;stroke-linejoin:round;stroke-miterlimit:4;stroke-dasharray:none;stroke-opacity:1"
     d="m 214.1138,56.218 c 0.688,0.126 1.339,2.35 1.079,2.538 -0.261,0.181 -0.396,-0.574 -0.693,-0.382 -0.302,0.194 -0.14,0.667 -0.359,0.735 -0.24,0.073 -0.344,-0.521 -0.615,-0.38 -0.114,0.063 -0.224,0.645 -0.412,0.64 -0.172,0 -0.453,-0.437 -0.588,-0.448 -0.213,-0.009 -0.161,0.6 -0.338,0.605 -0.464,0.02 -0.339,-2.693 -0.151,-2.844 0.281,-0.224 0.968,-0.672 2.077,-0.464 z"
     id="path240" />
  <path
     style="fill:#231f20;fill-opacity:1;fill-rule:nonzero;stroke:none"
     d="m 259.4938,56.792 c 0.647,0.254 0.86,2.562 0.568,2.692 -0.292,0.13 -0.276,-0.635 -0.609,-0.506 -0.328,0.131 -0.265,0.631 -0.489,0.652 -0.251,0.026 -0.24,-0.578 -0.531,-0.489 -0.125,0.036 -0.344,0.588 -0.532,0.547 -0.167,-0.032 -0.359,-0.516 -0.489,-0.552 -0.208,-0.052 -0.271,0.557 -0.448,0.53 -0.459,-0.078 0.192,-2.708 0.401,-2.822 0.317,-0.167 1.083,-0.47 2.129,-0.052"
     id="path241" />
  <path
     style="fill:none;stroke:#231f20;stroke-width:0.565977;stroke-linecap:round;stroke-linejoin:round;stroke-miterlimit:4;stroke-dasharray:none;stroke-opacity:1"
     d="m 259.4938,56.792 c 0.647,0.254 0.86,2.562 0.568,2.692 -0.292,0.13 -0.276,-0.635 -0.609,-0.506 -0.328,0.131 -0.265,0.631 -0.489,0.652 -0.251,0.026 -0.24,-0.578 -0.531,-0.489 -0.125,0.036 -0.344,0.588 -0.532,0.547 -0.167,-0.032 -0.359,-0.516 -0.489,-0.552 -0.208,-0.052 -0.271,0.557 -0.448,0.53 -0.459,-0.078 0.192,-2.708 0.401,-2.822 0.317,-0.167 1.083,-0.47 2.129,-0.052 z"
     id="path242" />
</svg>
