<?xml version="1.0" encoding="UTF-8" standalone="no"?>
<!-- Created with Inkscape (http://www.inkscape.org/) -->

<svg
   version="1.1"
   id="svg1"
   width="358.88013"
   height="168.5405"
   viewBox="0 0 358.88011 168.5405"
   sodipodi:docname="cell.svg"
   xmlns:inkscape="http://www.inkscape.org/namespaces/inkscape"
   xmlns:sodipodi="http://sodipodi.sourceforge.net/DTD/sodipodi-0.dtd"
   xmlns="http://www.w3.org/2000/svg"
   xmlns:svg="http://www.w3.org/2000/svg">
  <sodipodi:namedview
     id="namedview1"
     pagecolor="#ffffff"
     bordercolor="#000000"
     borderopacity="0.25"
     inkscape:showpageshadow="2"
     inkscape:pageopacity="0.0"
     inkscape:pagecheckerboard="0"
     inkscape:deskcolor="#d1d1d1">
    <inkscape:page
       x="0"
       y="0"
       inkscape:label="1"
       id="page1"
       width="358.8801"
       height="168.5405"
       margin="0"
       bleed="0" />
  </sodipodi:namedview>
  <defs
     id="defs1" />
  <path
     style="fill:#ffffff;fill-opacity:1;fill-rule:nonzero;stroke:#231f20;stroke-width:0.665856;stroke-linecap:butt;stroke-linejoin:miter;stroke-miterlimit:4;stroke-dasharray:none;stroke-opacity:1"
     d="m 119.67685,16.4213 -5.376,31.2133 1.313,0.2293 5.375,-31.2186 z"
     id="path594" />
  <path
     style="fill:#ffffff;fill-opacity:1;fill-rule:nonzero;stroke:none"
     d="m 109.91485,51.8905 c 0.402,-2.3226 2.61,-3.8799 4.934,-3.4853 2.317,0.4014 3.88,2.6093 3.484,4.9333 -0.402,2.3174 -2.615,3.88 -4.938,3.484 -2.318,-0.4013 -3.88,-2.6146 -3.48,-4.932 m -1.312,-0.2293 c -0.526,3.0413 1.526,5.948 4.568,6.4733 3.047,0.5214 5.948,-1.5253 6.474,-4.572 0.521,-3.0426 -1.531,-5.9426 -4.572,-6.4693 -3.043,-0.5253 -5.948,1.5267 -6.47,4.568"
     id="path595" />
  <path
     style="fill:none;stroke:#231f20;stroke-width:0.665856;stroke-linecap:butt;stroke-linejoin:miter;stroke-miterlimit:4;stroke-dasharray:none;stroke-opacity:1"
     d="m 109.91485,51.8905 c 0.402,-2.3226 2.61,-3.8799 4.934,-3.4853 2.317,0.4014 3.88,2.6093 3.484,4.9333 -0.402,2.3174 -2.615,3.88 -4.938,3.484 -2.318,-0.4013 -3.88,-2.6146 -3.48,-4.932 z m -1.312,-0.2293 c -0.526,3.0413 1.526,5.948 4.568,6.4733 3.047,0.5214 5.948,-1.5253 6.474,-4.572 0.521,-3.0426 -1.531,-5.9426 -4.572,-6.4693 -3.043,-0.5253 -5.948,1.5267 -6.47,4.568 z"
     id="path596" />
  <path
     style="fill:#ffffff;fill-opacity:1;fill-rule:nonzero;stroke:#231f20;stroke-width:0.665856;stroke-linecap:butt;stroke-linejoin:miter;stroke-miterlimit:4;stroke-dasharray:none;stroke-opacity:1"
     d="m 308.32685,16.4213 -5.375,31.2133 1.312,0.2293 5.37,-31.2186 z"
     id="path597" />
  <path
     style="fill:#ffffff;fill-opacity:1;fill-rule:nonzero;stroke:none"
     d="m 298.56185,51.8905 c 0.401,-2.3226 2.614,-3.8799 4.932,-3.4853 2.322,0.4014 3.885,2.6093 3.484,4.9333 -0.396,2.3174 -2.615,3.88 -4.932,3.484 -2.318,-0.4013 -3.88,-2.6146 -3.484,-4.932 m -1.308,-0.2293 c -0.526,3.0413 1.526,5.948 4.568,6.4733 3.041,0.5214 5.942,-1.5253 6.469,-4.572 0.52,-3.0426 -1.527,-5.9426 -4.568,-6.4693 -3.047,-0.5253 -5.948,1.5267 -6.469,4.568"
     id="path598" />
  <path
     style="fill:none;stroke:#231f20;stroke-width:0.665856;stroke-linecap:butt;stroke-linejoin:miter;stroke-miterlimit:4;stroke-dasharray:none;stroke-opacity:1"
     d="m 298.56185,51.8905 c 0.401,-2.3226 2.614,-3.8799 4.932,-3.4853 2.322,0.4014 3.885,2.6093 3.484,4.9333 -0.396,2.3174 -2.615,3.88 -4.932,3.484 -2.318,-0.4013 -3.88,-2.6146 -3.484,-4.932 z m -1.308,-0.2293 c -0.526,3.0413 1.526,5.948 4.568,6.4733 3.041,0.5214 5.942,-1.5253 6.469,-4.572 0.52,-3.0426 -1.527,-5.9426 -4.568,-6.4693 -3.047,-0.5253 -5.948,1.5267 -6.469,4.568 z"
     id="path599" />
  <path
     style="fill:#ffffff;fill-opacity:1;fill-rule:nonzero;stroke:#231f20;stroke-width:0.665856;stroke-linecap:butt;stroke-linejoin:miter;stroke-miterlimit:4;stroke-dasharray:none;stroke-opacity:1"
     d="m 129.14485,16.4213 10.912,29.7346 1.254,-0.4587 -10.916,-29.7346 z"
     id="path600" />
  <path
     style="fill:#ffffff;fill-opacity:1;fill-rule:nonzero;stroke:none"
     d="m 138.37385,52.0305 c -0.807,-2.2133 0.328,-4.6666 2.536,-5.4786 2.215,-0.8133 4.672,0.328 5.485,2.536 0.807,2.208 -0.328,4.6666 -2.542,5.48 -2.208,0.812 -4.667,-0.3294 -5.479,-2.5374 m -1.245,0.4587 c 1.062,2.896 4.286,4.3907 7.188,3.328 2.896,-1.0627 4.39,-4.292 3.322,-7.188 -1.062,-2.9 -4.286,-4.3906 -7.181,-3.328 -2.901,1.0627 -4.396,4.2867 -3.329,7.188"
     id="path601" />
  <path
     style="fill:none;stroke:#231f20;stroke-width:0.665856;stroke-linecap:butt;stroke-linejoin:miter;stroke-miterlimit:4;stroke-dasharray:none;stroke-opacity:1"
     d="m 138.37385,52.0305 c -0.807,-2.2133 0.328,-4.6666 2.536,-5.4786 2.215,-0.8133 4.672,0.328 5.485,2.536 0.807,2.208 -0.328,4.6666 -2.542,5.48 -2.208,0.812 -4.667,-0.3294 -5.479,-2.5374 z m -1.245,0.4587 c 1.062,2.896 4.286,4.3907 7.188,3.328 2.896,-1.0627 4.39,-4.292 3.322,-7.188 -1.062,-2.9 -4.286,-4.3906 -7.181,-3.328 -2.901,1.0627 -4.396,4.2867 -3.329,7.188 z"
     id="path602" />
  <path
     style="fill:#ffffff;fill-opacity:1;fill-rule:nonzero;stroke:#231f20;stroke-width:0.665856;stroke-linecap:butt;stroke-linejoin:miter;stroke-miterlimit:4;stroke-dasharray:none;stroke-opacity:1"
     d="m 86.431855,16.328 3.145,31.5199 1.324,-0.1347 -3.147,-31.5212 z"
     id="path603" />
  <path
     style="fill:#ffffff;fill-opacity:1;fill-rule:nonzero;stroke:none"
     d="m 89.362855,48.2239 c 2.292,-0.5267 4.59,0.9053 5.115,3.2026 0.527,2.2974 -0.911,4.588 -3.203,5.1147 -2.297,0.5307 -4.593,-0.912 -5.119,-3.208 -0.526,-2.292 0.912,-4.584 3.207,-5.1093 m -0.301,-1.3027 c -3.005,0.6934 -4.89,3.704 -4.204,6.7133 0.694,3.0107 3.704,4.896 6.715,4.2094 3.009,-0.6934 4.889,-3.704 4.202,-6.7147 -0.688,-3.0093 -3.698,-4.8946 -6.713,-4.208"
     id="path604" />
  <path
     style="fill:none;stroke:#231f20;stroke-width:0.665856;stroke-linecap:butt;stroke-linejoin:miter;stroke-miterlimit:4;stroke-dasharray:none;stroke-opacity:1"
     d="m 89.362855,48.2239 c 2.292,-0.5267 4.59,0.9053 5.115,3.2026 0.527,2.2974 -0.911,4.588 -3.203,5.1147 -2.297,0.5307 -4.593,-0.912 -5.119,-3.208 -0.526,-2.292 0.912,-4.584 3.207,-5.1093 z m -0.301,-1.3027 c -3.005,0.6934 -4.89,3.704 -4.204,6.7133 0.694,3.0107 3.704,4.896 6.715,4.2094 3.009,-0.6934 4.889,-3.704 4.202,-6.7147 -0.688,-3.0093 -3.698,-4.8946 -6.713,-4.208 z"
     id="path605" />
  <path
     style="fill:#ca0369;fill-opacity:1;fill-rule:nonzero;stroke:none"
     d="m 311.53485,87.2385 c 2.287,2.663 3.057,3.267 3.871,4.063 4.15,4.032 5.29,3.428 7.03,1.781 2.47,-2.323 3.594,-3.839 -1.145,-7.979 -3.605,-3.141 -5.824,-5.9944 -5.824,-5.9944 -0.708,-1.724 -3.271,-4.2506 -4.171,-4.3799 -1.521,-0.2187 -1.229,-0.12 -2.6,0.3533 -2.525,0.876 -2.718,2.0626 -2.546,3.2346 0.172,1.1774 0.65,2.0934 2.202,4.4374 1.204,1.823 3.183,4.484 3.183,4.484"
     id="path606" />
  <path
     style="fill:none;stroke:#231f20;stroke-width:0.565977;stroke-linecap:butt;stroke-linejoin:miter;stroke-miterlimit:4;stroke-dasharray:none;stroke-opacity:1"
     d="m 311.53485,87.2385 c 2.287,2.663 3.057,3.267 3.871,4.063 4.15,4.032 5.29,3.428 7.03,1.781 2.47,-2.323 3.594,-3.839 -1.145,-7.979 -3.605,-3.141 -5.824,-5.9944 -5.824,-5.9944 -0.708,-1.724 -3.271,-4.2506 -4.171,-4.3799 -1.521,-0.2187 -1.229,-0.12 -2.6,0.3533 -2.525,0.876 -2.718,2.0626 -2.546,3.2346 0.172,1.1774 0.65,2.0934 2.202,4.4374 1.204,1.823 3.183,4.484 3.183,4.484 z"
     id="path607" />
  <path
     style="fill:#231f20;fill-opacity:1;fill-rule:nonzero;stroke:none"
     d="m 10.587855,54.3959 c 0.874,-1.032 1.808,-0.6934 2.333,0.1973 0.156,0.2707 0.563,0.3387 0.699,0.6093 0.301,0.636 -0.339,2.26 -1.828,2.068 -0.106,-0.016 -0.912,0.1347 -1.532,0.1507 -1.214,0.0267 -3.651,-0.5107 -5.088,-2.792 -0.683,-1.0827 0.082,-1.2853 0.494,-0.9267 1.287,1.12 1.626,0.964 2.068,1.1414 1.515,0.5826 2.854,-0.448 2.854,-0.448"
     id="path608" />
  <path
     style="fill:none;stroke:#231f20;stroke-width:0.332927;stroke-linecap:butt;stroke-linejoin:miter;stroke-miterlimit:4;stroke-dasharray:none;stroke-opacity:1"
     d="m 10.587855,54.3959 c 0.874,-1.032 1.808,-0.6934 2.333,0.1973 0.156,0.2707 0.563,0.3387 0.699,0.6093 0.301,0.636 -0.339,2.26 -1.828,2.068 -0.106,-0.016 -0.912,0.1347 -1.532,0.1507 -1.214,0.0267 -3.651,-0.5107 -5.088,-2.792 -0.683,-1.0827 0.082,-1.2853 0.494,-0.9267 1.287,1.12 1.626,0.964 2.068,1.1414 1.515,0.5826 2.854,-0.448 2.854,-0.448 z"
     id="path609" />
  <path
     style="fill:#231f20;fill-opacity:1;fill-rule:nonzero;stroke:none"
     d="m 29.144855,57.0572 c 0.417,-2.2293 0.204,-2.7187 -0.729,-2.9587 -0.615,-0.1613 -1.135,-0.516 -1.506,-0.6306 -1.238,-0.3907 -3.478,-0.52 -9.942,0.7613 -1.463,0.296 -3.52,0.6867 -4.375,0.7813 -1.349,0.1507 -0.187,2.2907 0.344,2.2334 1.703,-0.1667 2.896,-0.1454 3.516,-0.12 0.427,0.016 1.187,-0.0614 2.828,0.2146 2.489,0.416 3.921,1.036 6.036,1.1454 0.98,0.0466 1.688,0.708 2.677,0.2653 0.99,-0.4427 1.151,-1.692 1.151,-1.692"
     id="path610" />
  <path
     style="fill:none;stroke:#231f20;stroke-width:0.565977;stroke-linecap:butt;stroke-linejoin:miter;stroke-miterlimit:4;stroke-dasharray:none;stroke-opacity:1"
     d="m 29.144855,57.0572 c 0.417,-2.2293 0.204,-2.7187 -0.729,-2.9587 -0.615,-0.1613 -1.135,-0.516 -1.506,-0.6306 -1.238,-0.3907 -3.478,-0.52 -9.942,0.7613 -1.463,0.296 -3.52,0.6867 -4.375,0.7813 -1.349,0.1507 -0.187,2.2907 0.344,2.2334 1.703,-0.1667 2.896,-0.1454 3.516,-0.12 0.427,0.016 1.187,-0.0614 2.828,0.2146 2.489,0.416 3.921,1.036 6.036,1.1454 0.98,0.0466 1.688,0.708 2.677,0.2653 0.99,-0.4427 1.151,-1.692 1.151,-1.692 z"
     id="path611" />
  <path
     style="fill:#ca0369;fill-opacity:1;fill-rule:nonzero;stroke:none"
     d="m 55.171855,54.8479 c -3.131,0.0786 -3.808,-0.2547 -4.667,-0.5987 -5.365,-2.1453 -6.319,0.5267 -5.735,3.3547 0.688,3.3226 0.87,4.5253 7.12,3.7813 1.74,-0.204 8.511,-0.1253 8.511,-0.1253 2.421,0.3546 4.973,-0.588 5.76,-1.812 0.839,-1.292 0.412,-0.8387 0.964,-2.1774 0.531,-1.2706 0.224,-3.4373 -0.819,-4.0986 -1.005,-0.6307 -2.489,0.12 -4.776,0.9266 -1.801,0.636 -6.358,0.7494 -6.358,0.7494"
     id="path612" />
  <path
     style="fill:none;stroke:#231f20;stroke-width:0.565977;stroke-linecap:butt;stroke-linejoin:miter;stroke-miterlimit:4;stroke-dasharray:none;stroke-opacity:1"
     d="m 55.171855,54.8479 c -3.131,0.0786 -3.808,-0.2547 -4.667,-0.5987 -5.365,-2.1453 -6.319,0.5267 -5.735,3.3547 0.688,3.3226 0.87,4.5253 7.12,3.7813 1.74,-0.204 8.511,-0.1253 8.511,-0.1253 2.421,0.3546 4.973,-0.588 5.76,-1.812 0.839,-1.292 0.412,-0.8387 0.964,-2.1774 0.531,-1.2706 0.224,-3.4373 -0.819,-4.0986 -1.005,-0.6307 -2.489,0.12 -4.776,0.9266 -1.801,0.636 -6.358,0.7494 -6.358,0.7494 z"
     id="path613" />
  <path
     style="fill:#ffffff;fill-opacity:1;fill-rule:nonzero;stroke:none"
     d="m 73.201855,58.7652 c 0.246,0.016 0.475,1.14 0.995,1.0787 0.521,-0.068 0.62,-0.8494 2.303,-1.9174 l 0.016,-0.0106 c 1.254,-0.7347 2.041,-1.8854 1.989,-3.1347 -0.095,-2.0733 -2.453,-3.6573 -5.271,-3.5373 -2.828,0.1253 -5.042,1.9066 -4.948,3.98 0.083,1.984 2.255,3.5253 4.916,3.5413"
     id="path614" />
  <path
     style="fill:none;stroke:#231f20;stroke-width:0.565977;stroke-linecap:butt;stroke-linejoin:miter;stroke-miterlimit:4;stroke-dasharray:none;stroke-opacity:1"
     d="m 73.201855,58.7652 c 0.246,0.016 0.475,1.14 0.995,1.0787 0.521,-0.068 0.62,-0.8494 2.303,-1.9174 l 0.016,-0.0106 c 1.254,-0.7347 2.041,-1.8854 1.989,-3.1347 -0.095,-2.0733 -2.453,-3.6573 -5.271,-3.5373 -2.828,0.1253 -5.042,1.9066 -4.948,3.98 0.083,1.984 2.255,3.5253 4.916,3.5413 z"
     id="path615" />
  <path
     style="fill:#231f20;fill-opacity:1;fill-rule:nonzero;stroke:none"
     d="m 26.884855,56.0519 c -1.073,3.864 2.932,3.0826 3.396,3.2133 4.817,1.364 5.197,1.3387 8.943,2.12 5.406,1.1293 9.286,1.072 10.864,-1.88 1.073,-2.0053 0.818,-3.6253 -0.036,-4.6307 -0.943,-1.1146 -3.886,-2.3173 -6.235,-0.64 l -1.713,0.1134 c -1.156,-0.0774 -1.735,-0.1094 -2.303,-0.1867 -0.995,-0.1467 -2.061,-0.2347 -4.015,-0.4067 -3.458,-0.2973 -7.213,0.5107 -7.213,0.5107 -1.245,-0.0733 -1.688,1.7867 -1.688,1.7867"
     id="path616" />
  <path
     style="fill:none;stroke:#231f20;stroke-width:0.565977;stroke-linecap:butt;stroke-linejoin:miter;stroke-miterlimit:4;stroke-dasharray:none;stroke-opacity:1"
     d="m 26.884855,56.0519 c -1.073,3.864 2.932,3.0826 3.396,3.2133 4.817,1.364 5.197,1.3387 8.943,2.12 5.406,1.1293 9.286,1.072 10.864,-1.88 1.073,-2.0053 0.818,-3.6253 -0.036,-4.6307 -0.943,-1.1146 -3.886,-2.3173 -6.235,-0.64 l -1.713,0.1134 c -1.156,-0.0774 -1.735,-0.1094 -2.303,-0.1867 -0.995,-0.1467 -2.061,-0.2347 -4.015,-0.4067 -3.458,-0.2973 -7.213,0.5107 -7.213,0.5107 -1.245,-0.0733 -1.688,1.7867 -1.688,1.7867 z"
     id="path617" />
  <path
     style="fill:#ca0369;fill-opacity:1;fill-rule:nonzero;stroke:none"
     d="m 50.051855,54.8745 c -0.938,-1.1146 -3.886,-2.3173 -6.235,-0.64 l -1.391,7.6867 c 0.651,0.0787 1.26,0.1147 1.844,0.1253 0.079,0.0307 0.151,0.0574 0.219,0.0934 0.708,0.38 1.292,0.1466 2.229,-0.292 1.522,-0.3227 2.678,-1.0414 3.37,-2.3427 1.073,-2.0053 0.818,-3.6253 -0.036,-4.6307"
     id="path618" />
  <path
     style="fill:none;stroke:#231f20;stroke-width:0.565977;stroke-linecap:butt;stroke-linejoin:miter;stroke-miterlimit:4;stroke-dasharray:none;stroke-opacity:1"
     d="m 50.051855,54.8745 c -0.938,-1.1146 -3.886,-2.3173 -6.235,-0.64 l -1.391,7.6867 c 0.651,0.0787 1.26,0.1147 1.844,0.1253 0.079,0.0307 0.151,0.0574 0.219,0.0934 0.708,0.38 1.292,0.1466 2.229,-0.292 1.522,-0.3227 2.678,-1.0414 3.37,-2.3427 1.073,-2.0053 0.818,-3.6253 -0.036,-4.6307 z"
     id="path619" />
  <path
     style="fill:#231f20;fill-opacity:1;fill-rule:nonzero;stroke:none"
     d="m 84.785855,54.0519 c -0.48,0.4373 -2.422,0.484 -3.896,1.1346 -0.989,0.4387 -3.734,0.4334 -4.688,0.9427 -0.88,0.4693 -1.322,0.6053 -2.03,-0.3067 -0.423,-0.536 -0.88,-1.844 -0.495,-2.1773 0.905,-0.776 1.807,-1.0627 2.875,-1.1613 1.208,-0.1147 4.521,-0.1454 5.13,-0.088 1.515,0.1293 2.135,-0.276 2.536,-0.276 0.766,-0.0107 0.954,0.2813 1.063,0.776 0.208,0.932 -0.495,1.156 -0.495,1.156"
     id="path620" />
  <path
     style="fill:none;stroke:#231f20;stroke-width:0.565977;stroke-linecap:butt;stroke-linejoin:miter;stroke-miterlimit:4;stroke-dasharray:none;stroke-opacity:1"
     d="m 84.785855,54.0519 c -0.48,0.4373 -2.422,0.484 -3.896,1.1346 -0.989,0.4387 -3.734,0.4334 -4.688,0.9427 -0.88,0.4693 -1.322,0.6053 -2.03,-0.3067 -0.423,-0.536 -0.88,-1.844 -0.495,-2.1773 0.905,-0.776 1.807,-1.0627 2.875,-1.1613 1.208,-0.1147 4.521,-0.1454 5.13,-0.088 1.515,0.1293 2.135,-0.276 2.536,-0.276 0.766,-0.0107 0.954,0.2813 1.063,0.776 0.208,0.932 -0.495,1.156 -0.495,1.156 z"
     id="path621" />
  <path
     style="fill:#231f20;fill-opacity:1;fill-rule:nonzero;stroke:none"
     d="m 75.852855,55.5572 c 0.073,1.2907 -1.947,1.036 -2.489,1.0467 -0.542,0.016 -2.088,0.2293 -3.266,0.5466 -1.182,0.3227 -2.792,0.2187 -5.041,0.828 -1.177,0.3174 -2.532,-0.12 -2.917,-1.8493 -0.386,-1.7133 0.433,-2.5773 1.922,-2.744 1.484,-0.172 2.954,0.296 4.463,0.224 1.511,-0.0627 3.043,-0.2707 4.235,-0.4947 1.36,-0.2506 2.125,0.1294 2.39,0.5254 0.662,1 0.703,1.9173 0.703,1.9173"
     id="path622" />
  <path
     style="fill:none;stroke:#231f20;stroke-width:0.565977;stroke-linecap:butt;stroke-linejoin:miter;stroke-miterlimit:4;stroke-dasharray:none;stroke-opacity:1"
     d="m 75.852855,55.5572 c 0.073,1.2907 -1.947,1.036 -2.489,1.0467 -0.542,0.016 -2.088,0.2293 -3.266,0.5466 -1.182,0.3227 -2.792,0.2187 -5.041,0.828 -1.177,0.3174 -2.532,-0.12 -2.917,-1.8493 -0.386,-1.7133 0.433,-2.5773 1.922,-2.744 1.484,-0.172 2.954,0.296 4.463,0.224 1.511,-0.0627 3.043,-0.2707 4.235,-0.4947 1.36,-0.2506 2.125,0.1294 2.39,0.5254 0.662,1 0.703,1.9173 0.703,1.9173 z"
     id="path623" />
  <path
     style="fill:#231f20;fill-opacity:1;fill-rule:nonzero;stroke:none"
     d="m 84.556855,52.1812 c 0.192,-0.676 2.459,-1.1347 2.62,-0.8587 0.161,0.276 -0.604,0.344 -0.437,0.6614 0.166,0.312 0.65,0.1933 0.697,0.4173 0.057,0.2493 -0.547,0.3013 -0.427,0.5827 0.047,0.1146 0.624,0.276 0.604,0.464 -0.016,0.1666 -0.474,0.416 -0.5,0.5466 -0.026,0.2134 0.583,0.2134 0.577,0.3907 -0.025,0.4627 -2.718,0.0987 -2.853,-0.0987 -0.198,-0.292 -0.584,-1.0213 -0.281,-2.1053"
     id="path624" />
  <path
     style="fill:none;stroke:#231f20;stroke-width:0.565977;stroke-linecap:round;stroke-linejoin:round;stroke-miterlimit:4;stroke-dasharray:none;stroke-opacity:1"
     d="m 84.556855,52.1812 c 0.192,-0.676 2.459,-1.1347 2.62,-0.8587 0.161,0.276 -0.604,0.344 -0.437,0.6614 0.166,0.312 0.65,0.1933 0.697,0.4173 0.057,0.2493 -0.547,0.3013 -0.427,0.5827 0.047,0.1146 0.624,0.276 0.604,0.464 -0.016,0.1666 -0.474,0.416 -0.5,0.5466 -0.026,0.2134 0.583,0.2134 0.577,0.3907 -0.025,0.4627 -2.718,0.0987 -2.853,-0.0987 -0.198,-0.292 -0.584,-1.0213 -0.281,-2.1053 z"
     id="path625" />
  <path
     style="fill:#231f20;fill-opacity:1;fill-rule:nonzero;stroke:none"
     d="m 74.728855,120.6555 c -0.303,-1.317 0.52,-1.865 1.552,-1.75 0.301,0.026 0.604,-0.26 0.901,-0.203 0.692,0.141 1.614,1.625 0.572,2.703 -0.072,0.073 -0.442,0.808 -0.796,1.318 -0.704,0.984 -2.589,2.624 -5.276,2.411 -1.272,-0.093 -0.98,-0.828 -0.453,-0.948 1.672,-0.364 1.749,-0.724 2.151,-0.984 1.374,-0.859 1.349,-2.547 1.349,-2.547"
     id="path626" />
  <path
     style="fill:none;stroke:#231f20;stroke-width:0.332927;stroke-linecap:butt;stroke-linejoin:miter;stroke-miterlimit:4;stroke-dasharray:none;stroke-opacity:1"
     d="m 74.728855,120.6555 c -0.303,-1.317 0.52,-1.865 1.552,-1.75 0.301,0.026 0.604,-0.26 0.901,-0.203 0.692,0.141 1.614,1.625 0.572,2.703 -0.072,0.073 -0.442,0.808 -0.796,1.318 -0.704,0.984 -2.589,2.624 -5.276,2.411 -1.272,-0.093 -0.98,-0.828 -0.453,-0.948 1.672,-0.364 1.749,-0.724 2.151,-0.984 1.374,-0.859 1.349,-2.547 1.349,-2.547 z"
     id="path627" />
  <path
     style="fill:#231f20;fill-opacity:1;fill-rule:nonzero;stroke:none"
     d="m 87.936855,107.3475 c -1.536,-1.661 -2.057,-1.78 -2.808,-1.176 -0.495,0.4 -1.093,0.599 -1.405,0.834 -1.047,0.76 -2.495,2.484 -5.318,8.426 -0.641,1.35 -1.553,3.235 -1.99,3.979 -0.682,1.172 1.724,1.516 2,1.057 0.885,-1.468 1.609,-2.405 2,-2.896 0.266,-0.333 0.661,-0.984 1.865,-2.134 1.817,-1.756 3.172,-2.532 4.515,-4.162 0.625,-0.761 1.578,-0.932 1.813,-1.989 0.234,-1.057 -0.672,-1.939 -0.672,-1.939"
     id="path628" />
  <path
     style="fill:none;stroke:#231f20;stroke-width:0.565977;stroke-linecap:butt;stroke-linejoin:miter;stroke-miterlimit:4;stroke-dasharray:none;stroke-opacity:1"
     d="m 87.936855,107.3475 c -1.536,-1.661 -2.057,-1.78 -2.808,-1.176 -0.495,0.4 -1.093,0.599 -1.405,0.834 -1.047,0.76 -2.495,2.484 -5.318,8.426 -0.641,1.35 -1.553,3.235 -1.99,3.979 -0.682,1.172 1.724,1.516 2,1.057 0.885,-1.468 1.609,-2.405 2,-2.896 0.266,-0.333 0.661,-0.984 1.865,-2.134 1.817,-1.756 3.172,-2.532 4.515,-4.162 0.625,-0.761 1.578,-0.932 1.813,-1.989 0.234,-1.057 -0.672,-1.939 -0.672,-1.939 z"
     id="path629" />
  <path
     style="fill:#ca0369;fill-opacity:1;fill-rule:nonzero;stroke:none"
     d="m 100.74885,85.0515 c -1.514995,2.744 -2.134995,3.167 -2.863995,3.735 -4.552,3.561 -2.719,5.728 0.016,6.64 3.217995,1.079 4.347995,1.527 6.852995,-4.249 0.693,-1.61 4.167,-7.423 4.167,-7.423 1.521,-1.916 1.989,-4.5987 1.328,-5.896 -0.698,-1.364 -0.52,-0.7707 -1.396,-1.9213 -0.834,-1.0934 -2.859,-1.9227 -3.958,-1.3494 -1.052,0.5467 -1.146,2.208 -1.598,4.5893 -0.36,1.8804 -2.548,5.8744 -2.548,5.8744"
     id="path630" />
  <path
     style="fill:none;stroke:#231f20;stroke-width:0.565977;stroke-linecap:butt;stroke-linejoin:miter;stroke-miterlimit:4;stroke-dasharray:none;stroke-opacity:1"
     d="m 100.74885,85.0515 c -1.514995,2.744 -2.134995,3.167 -2.863995,3.735 -4.552,3.561 -2.719,5.728 0.016,6.64 3.217995,1.079 4.347995,1.527 6.852995,-4.249 0.693,-1.61 4.167,-7.423 4.167,-7.423 1.521,-1.916 1.989,-4.5987 1.328,-5.896 -0.698,-1.364 -0.52,-0.7707 -1.396,-1.9213 -0.834,-1.0934 -2.859,-1.9227 -3.958,-1.3494 -1.052,0.5467 -1.146,2.208 -1.598,4.5893 -0.36,1.8804 -2.548,5.8744 -2.548,5.8744 z"
     id="path631" />
  <path
     style="fill:#ffffff;fill-opacity:1;fill-rule:nonzero;stroke:none"
     d="m 113.94185,72.4945 c 0.167,-0.1827 1.183,0.3533 1.459,-0.0893 0.281,-0.4467 -0.262,-1.02 -0.032,-2.9947 l 0.005,-0.02 c 0.219,-1.4373 -0.172,-2.7707 -1.177,-3.5213 -1.667,-1.24 -4.386,-0.4067 -6.068,1.86 -1.687,2.2653 -1.703,5.104 -0.036,6.3426 1.589,1.188 4.156,0.4747 5.849,-1.5773"
     id="path632" />
  <path
     style="fill:none;stroke:#231f20;stroke-width:0.565977;stroke-linecap:butt;stroke-linejoin:miter;stroke-miterlimit:4;stroke-dasharray:none;stroke-opacity:1"
     d="m 113.94185,72.4945 c 0.167,-0.1827 1.183,0.3533 1.459,-0.0893 0.281,-0.4467 -0.262,-1.02 -0.032,-2.9947 l 0.005,-0.02 c 0.219,-1.4373 -0.172,-2.7707 -1.177,-3.5213 -1.667,-1.24 -4.386,-0.4067 -6.068,1.86 -1.687,2.2653 -1.703,5.104 -0.036,6.3426 1.589,1.188 4.156,0.4747 5.849,-1.5773 z"
     id="path633" />
  <path
     style="fill:#231f20;fill-opacity:1;fill-rule:nonzero;stroke:none"
     d="m 85.785855,108.5675 c 2.457,3.167 4.224,-0.516 4.599,-0.808 3.973,-3.052 4.182,-3.374 7.041,-5.906 4.135995,-3.667 6.406995,-6.818 4.974995,-9.843 -0.97,-2.057 -2.422995,-2.819 -3.734995,-2.74 -1.453,0.099 -4.177,1.74 -4.24,4.631 l -0.927,1.437 c -0.756,0.885 -1.12,1.328 -1.526,1.739 -0.708,0.709 -1.416,1.51 -2.719,2.974 -2.306,2.599 -3.896,6.099 -3.896,6.099 -0.806,0.948 0.428,2.417 0.428,2.417"
     id="path634" />
  <path
     style="fill:none;stroke:#231f20;stroke-width:0.565977;stroke-linecap:butt;stroke-linejoin:miter;stroke-miterlimit:4;stroke-dasharray:none;stroke-opacity:1"
     d="m 85.785855,108.5675 c 2.457,3.167 4.224,-0.516 4.599,-0.808 3.973,-3.052 4.182,-3.374 7.041,-5.906 4.135995,-3.667 6.406995,-6.818 4.974995,-9.843 -0.97,-2.057 -2.422995,-2.819 -3.734995,-2.74 -1.453,0.099 -4.177,1.74 -4.24,4.631 l -0.927,1.437 c -0.756,0.885 -1.12,1.328 -1.526,1.739 -0.708,0.709 -1.416,1.51 -2.719,2.974 -2.306,2.599 -3.896,6.099 -3.896,6.099 -0.806,0.948 0.428,2.417 0.428,2.417 z"
     id="path635" />
  <path
     style="fill:#ca0369;fill-opacity:1;fill-rule:nonzero;stroke:none"
     d="m 102.18185,91.3905 c -1.303,-1.86 -2.859995,-2.376 -4.140995,-2.073 -1.422,0.333 -3.834,2.406 -3.411,5.265 l 6.218995,4.735 c 0.369,-0.547 0.676,-1.074 0.952,-1.588 0.062,-0.052 0.12,-0.11 0.177,-0.152 0.667,-0.454 0.719,-1.078 0.761,-2.115 0.4,-1.5 0.286,-2.859 -0.557,-4.072"
     id="path636" />
  <path
     style="fill:none;stroke:#231f20;stroke-width:0.565977;stroke-linecap:butt;stroke-linejoin:miter;stroke-miterlimit:4;stroke-dasharray:none;stroke-opacity:1"
     d="m 102.18185,91.3905 c -1.303,-1.86 -2.859995,-2.376 -4.140995,-2.073 -1.422,0.333 -3.834,2.406 -3.411,5.265 l 6.218995,4.735 c 0.369,-0.547 0.676,-1.074 0.952,-1.588 0.062,-0.052 0.12,-0.11 0.177,-0.152 0.667,-0.454 0.719,-1.078 0.761,-2.115 0.4,-1.5 0.286,-2.859 -0.557,-4.072 z"
     id="path637" />
  <path
     style="fill:#231f20;fill-opacity:1;fill-rule:nonzero;stroke:none"
     d="m 114.02985,58.5932 c 0.167,0.6253 -0.692,2.3693 -0.801,3.9747 -0.068,1.0826 -1.35,3.5146 -1.339,4.5986 0.011,0.9893 -0.079,1.448 -1.213,1.6507 -0.672,0.1253 -2.043,-0.0787 -2.158,-0.5734 -0.27,-1.1613 -0.104,-2.0933 0.303,-3.0826 0.459,-1.1254 1.969,-4.068 2.297,-4.5893 0.823,-1.28 0.75,-2.0147 0.938,-2.3747 0.344,-0.6773 0.692,-0.7133 1.177,-0.5827 0.927,0.2494 0.796,0.9787 0.796,0.9787"
     id="path638" />
  <path
     style="fill:none;stroke:#231f20;stroke-width:0.565977;stroke-linecap:butt;stroke-linejoin:miter;stroke-miterlimit:4;stroke-dasharray:none;stroke-opacity:1"
     d="m 114.02985,58.5932 c 0.167,0.6253 -0.692,2.3693 -0.801,3.9747 -0.068,1.0826 -1.35,3.5146 -1.339,4.5986 0.011,0.9893 -0.079,1.448 -1.213,1.6507 -0.672,0.1253 -2.043,-0.0787 -2.158,-0.5734 -0.27,-1.1613 -0.104,-2.0933 0.303,-3.0826 0.459,-1.1254 1.969,-4.068 2.297,-4.5893 0.823,-1.28 0.75,-2.0147 0.938,-2.3747 0.344,-0.6773 0.692,-0.7133 1.177,-0.5827 0.927,0.2494 0.796,0.9787 0.796,0.9787 z"
     id="path639" />
  <path
     style="fill:#231f20;fill-opacity:1;fill-rule:nonzero;stroke:none"
     d="m 111.21785,67.2078 c 1.183,0.5307 0.016,2.2027 -0.224,2.688 -0.24,0.4894 -0.765,1.952 -1.027,3.1454 -0.265,1.1973 -1.109,2.5786 -1.609,4.8493 -0.265,1.192 -1.276,2.187 -2.995,1.7293 -1.692,-0.4587 -2.077,-1.5787 -1.541,-2.9747 0.536,-1.4013 1.636,-2.4786 2.276,-3.8546 0.641,-1.364 1.167,-2.8227 1.527,-3.9787 0.405,-1.3226 1.098,-1.8226 1.572,-1.8746 1.188,-0.12 2.021,0.2706 2.021,0.2706"
     id="path640" />
  <path
     style="fill:none;stroke:#231f20;stroke-width:0.565977;stroke-linecap:butt;stroke-linejoin:miter;stroke-miterlimit:4;stroke-dasharray:none;stroke-opacity:1"
     d="m 111.21785,67.2078 c 1.183,0.5307 0.016,2.2027 -0.224,2.688 -0.24,0.4894 -0.765,1.952 -1.027,3.1454 -0.265,1.1973 -1.109,2.5786 -1.609,4.8493 -0.265,1.192 -1.276,2.187 -2.995,1.7293 -1.692,-0.4587 -2.077,-1.5787 -1.541,-2.9747 0.536,-1.4013 1.636,-2.4786 2.276,-3.8546 0.641,-1.364 1.167,-2.8227 1.527,-3.9787 0.405,-1.3226 1.098,-1.8226 1.572,-1.8746 1.188,-0.12 2.021,0.2706 2.021,0.2706 z"
     id="path641" />
  <path
     style="fill:#231f20;fill-opacity:1;fill-rule:nonzero;stroke:none"
     d="m 112.24285,58.0985 c -0.588,-0.38 -0.364,-2.6826 -0.052,-2.7546 0.308,-0.0734 0.152,0.676 0.5,0.6093 0.355,-0.068 0.382,-0.568 0.61,-0.548 0.245,0.0213 0.125,0.6147 0.428,0.584 0.124,-0.016 0.448,-0.516 0.624,-0.4427 0.152,0.0627 0.25,0.5774 0.376,0.6347 0.192,0.0947 0.369,-0.4947 0.541,-0.4373 0.437,0.1613 -0.697,2.6306 -0.927,2.6986 -0.338,0.104 -1.146,0.26 -2.1,-0.344"
     id="path642" />
  <path
     style="fill:none;stroke:#231f20;stroke-width:0.565977;stroke-linecap:round;stroke-linejoin:round;stroke-miterlimit:4;stroke-dasharray:none;stroke-opacity:1"
     d="m 112.24285,58.0985 c -0.588,-0.38 -0.364,-2.6826 -0.052,-2.7546 0.308,-0.0734 0.152,0.676 0.5,0.6093 0.355,-0.068 0.382,-0.568 0.61,-0.548 0.245,0.0213 0.125,0.6147 0.428,0.584 0.124,-0.016 0.448,-0.516 0.624,-0.4427 0.152,0.0627 0.25,0.5774 0.376,0.6347 0.192,0.0947 0.369,-0.4947 0.541,-0.4373 0.437,0.1613 -0.697,2.6306 -0.927,2.6986 -0.338,0.104 -1.146,0.26 -2.1,-0.344 z"
     id="path643" />
  <path
     style="fill:#231f20;fill-opacity:1;fill-rule:nonzero;stroke:none"
     d="m 353.68585,73.1452 c -0.14,1.344 -1.099,1.604 -2.036,1.1613 -0.276,-0.1293 -0.656,0.0467 -0.922,-0.104 -0.609,-0.3493 -1.005,-2.052 0.328,-2.74 0.094,-0.0467 0.672,-0.624 1.178,-0.9893 0.984,-0.708 3.295,-1.6614 5.77,-0.5987 1.172,0.5053 0.661,1.104 0.12,1.0467 -1.699,-0.192 -1.885,0.1253 -2.349,0.2453 -1.579,0.3693 -2.089,1.9787 -2.089,1.9787"
     id="path644" />
  <path
     style="fill:none;stroke:#231f20;stroke-width:0.332927;stroke-linecap:butt;stroke-linejoin:miter;stroke-miterlimit:4;stroke-dasharray:none;stroke-opacity:1"
     d="m 353.68585,73.1452 c -0.14,1.344 -1.099,1.604 -2.036,1.1613 -0.276,-0.1293 -0.656,0.0467 -0.922,-0.104 -0.609,-0.3493 -1.005,-2.052 0.328,-2.74 0.094,-0.0467 0.672,-0.624 1.178,-0.9893 0.984,-0.708 3.295,-1.6614 5.77,-0.5987 1.172,0.5053 0.661,1.104 0.12,1.0467 -1.699,-0.192 -1.885,0.1253 -2.349,0.2453 -1.579,0.3693 -2.089,1.9787 -2.089,1.9787 z"
     id="path645" />
  <path
     style="fill:#231f20;fill-opacity:1;fill-rule:nonzero;stroke:none"
     d="m 336.89985,81.5105 c 0.922,2.067 1.38,2.343 2.282,2.015 0.598,-0.219 1.228,-0.219 1.598,-0.339 1.239,-0.385 3.156,-1.552 7.739,-6.276 1.043,-1.072 2.511,-2.5667 3.163,-3.1293 1.02,-0.8907 -1.147,-1.9907 -1.554,-1.6467 -1.306,1.1093 -2.296,1.7667 -2.822,2.104 -0.364,0.2293 -0.943,0.72 -2.454,1.428 -2.285,1.072 -3.812,1.3746 -5.613,2.4893 -0.833,0.516 -1.787,0.3747 -2.355,1.3013 -0.562,0.9284 0.016,2.0534 0.016,2.0534"
     id="path646" />
  <path
     style="fill:none;stroke:#231f20;stroke-width:0.565977;stroke-linecap:butt;stroke-linejoin:miter;stroke-miterlimit:4;stroke-dasharray:none;stroke-opacity:1"
     d="m 336.89985,81.5105 c 0.922,2.067 1.38,2.343 2.282,2.015 0.598,-0.219 1.228,-0.219 1.598,-0.339 1.239,-0.385 3.156,-1.552 7.739,-6.276 1.043,-1.072 2.511,-2.5667 3.163,-3.1293 1.02,-0.8907 -1.147,-1.9907 -1.554,-1.6467 -1.306,1.1093 -2.296,1.7667 -2.822,2.104 -0.364,0.2293 -0.943,0.72 -2.454,1.428 -2.285,1.072 -3.812,1.3746 -5.613,2.4893 -0.833,0.516 -1.787,0.3747 -2.355,1.3013 -0.562,0.9284 0.016,2.0534 0.016,2.0534 z"
     id="path647" />
  <path
     style="fill:#ffffff;fill-opacity:1;fill-rule:nonzero;stroke:none"
     d="m 312.24285,69.0252 c 0,-0.244 1.109,-0.5414 1.011,-1.0574 -0.099,-0.52 -0.886,-0.5666 -2.058,-2.1773 l -0.01,-0.0147 c -0.818,-1.208 -2.01,-1.9173 -3.255,-1.7813 -2.068,0.2187 -3.495,2.6773 -3.192,5.484 0.301,2.808 2.219,4.9013 4.285,4.6773 1.975,-0.208 3.376,-2.4746 3.219,-5.1306"
     id="path648" />
  <path
     style="fill:none;stroke:#231f20;stroke-width:0.565977;stroke-linecap:butt;stroke-linejoin:miter;stroke-miterlimit:4;stroke-dasharray:none;stroke-opacity:1"
     d="m 312.24285,69.0252 c 0,-0.244 1.109,-0.5414 1.011,-1.0574 -0.099,-0.52 -0.886,-0.5666 -2.058,-2.1773 l -0.01,-0.0147 c -0.818,-1.208 -2.01,-1.9173 -3.255,-1.7813 -2.068,0.2187 -3.495,2.6773 -3.192,5.484 0.301,2.808 2.219,4.9013 4.285,4.6773 1.975,-0.208 3.376,-2.4746 3.219,-5.1306 z"
     id="path649" />
  <path
     style="fill:#231f20;fill-opacity:1;fill-rule:nonzero;stroke:none"
     d="m 339.32685,81.0465 c -1.312,-3.792 -4.167,-0.869 -4.615,-0.713 -4.74,1.62 -5.041,1.853 -8.562,3.344 -5.094,2.14 -8.255,4.39 -7.87,7.718 0.26,2.26 1.386,3.448 2.662,3.791 1.406,0.376 4.51,-0.301 5.494,-3.025 l 1.344,-1.058 c 0.995,-0.598 1.484,-0.901 2,-1.156 0.896,-0.448 1.834,-0.985 3.531,-1.953 3.021,-1.713 5.647,-4.521 5.647,-4.521 1.066,-0.64 0.369,-2.427 0.369,-2.427"
     id="path650" />
  <path
     style="fill:none;stroke:#231f20;stroke-width:0.565977;stroke-linecap:butt;stroke-linejoin:miter;stroke-miterlimit:4;stroke-dasharray:none;stroke-opacity:1"
     d="m 339.32685,81.0465 c -1.312,-3.792 -4.167,-0.869 -4.615,-0.713 -4.74,1.62 -5.041,1.853 -8.562,3.344 -5.094,2.14 -8.255,4.39 -7.87,7.718 0.26,2.26 1.386,3.448 2.662,3.791 1.406,0.376 4.51,-0.301 5.494,-3.025 l 1.344,-1.058 c 0.995,-0.598 1.484,-0.901 2,-1.156 0.896,-0.448 1.834,-0.985 3.531,-1.953 3.021,-1.713 5.647,-4.521 5.647,-4.521 1.066,-0.64 0.369,-2.427 0.369,-2.427 z"
     id="path651" />
  <path
     style="fill:#ca0369;fill-opacity:1;fill-rule:nonzero;stroke:#231f20;stroke-width:0.565977;stroke-linecap:butt;stroke-linejoin:miter;stroke-miterlimit:4;stroke-dasharray:none;stroke-opacity:1"
     d="m 322.09185,84.9735 c -2.984,2.292 -4.541,4.541 -3.801,7.078 0.635,2.183 1.943,3.167 3.255,3.292 1.453,0.14 4.401,-1.048 4.916,-3.89 z"
     id="path652" />
  <path
     style="fill:#231f20;fill-opacity:1;fill-rule:nonzero;stroke:none"
     d="m 302.96685,58.4572 c 0.511,0.396 0.885,2.308 1.781,3.6413 0.6,0.9067 1.058,3.6147 1.73,4.4693 0.609,0.78 0.818,1.1974 0.037,2.052 -0.459,0.504 -1.667,1.176 -2.063,0.848 -0.917,-0.7546 -1.354,-1.5986 -1.63,-2.6293 -0.323,-1.172 -0.907,-4.428 -0.964,-5.0373 -0.124,-1.52 -0.63,-2.0573 -0.703,-2.4573 -0.136,-0.7507 0.12,-0.9907 0.588,-1.1774 0.881,-0.3653 1.224,0.2907 1.224,0.2907"
     id="path653" />
  <path
     style="fill:none;stroke:#231f20;stroke-width:0.565977;stroke-linecap:butt;stroke-linejoin:miter;stroke-miterlimit:4;stroke-dasharray:none;stroke-opacity:1"
     d="m 302.96685,58.4572 c 0.511,0.396 0.885,2.308 1.781,3.6413 0.6,0.9067 1.058,3.6147 1.73,4.4693 0.609,0.78 0.818,1.1974 0.037,2.052 -0.459,0.504 -1.667,1.176 -2.063,0.848 -0.917,-0.7546 -1.354,-1.5986 -1.63,-2.6293 -0.323,-1.172 -0.907,-4.428 -0.964,-5.0373 -0.124,-1.52 -0.63,-2.0573 -0.703,-2.4573 -0.136,-0.7507 0.12,-0.9907 0.588,-1.1774 0.881,-0.3653 1.224,0.2907 1.224,0.2907 z"
     id="path654" />
  <path
     style="fill:#231f20;fill-opacity:1;fill-rule:nonzero;stroke:none"
     d="m 305.82685,67.1665 c 1.192,-0.5 1.62,1.4947 1.812,1.9947 0.193,0.5106 0.907,1.896 1.6,2.9013 0.697,1.0093 1.129,2.5667 2.447,4.484 0.693,1.0053 0.729,2.4266 -0.78,3.364 -1.486,0.933 -2.568,0.448 -3.224,-0.9 -0.658,-1.344 -0.699,-2.8867 -1.267,-4.292 -0.557,-1.4013 -1.265,-2.776 -1.869,-3.828 -0.688,-1.204 -0.579,-2.052 -0.292,-2.4333 0.718,-0.952 1.573,-1.2907 1.573,-1.2907"
     id="path655" />
  <path
     style="fill:none;stroke:#231f20;stroke-width:0.565977;stroke-linecap:butt;stroke-linejoin:miter;stroke-miterlimit:4;stroke-dasharray:none;stroke-opacity:1"
     d="m 305.82685,67.1665 c 1.192,-0.5 1.62,1.4947 1.812,1.9947 0.193,0.5106 0.907,1.896 1.6,2.9013 0.697,1.0093 1.129,2.5667 2.447,4.484 0.693,1.0053 0.729,2.4266 -0.78,3.364 -1.486,0.933 -2.568,0.448 -3.224,-0.9 -0.658,-1.344 -0.699,-2.8867 -1.267,-4.292 -0.557,-1.4013 -1.265,-2.776 -1.869,-3.828 -0.688,-1.204 -0.579,-2.052 -0.292,-2.4333 0.718,-0.952 1.573,-1.2907 1.573,-1.2907 z"
     id="path656" />
  <path
     style="fill:#231f20;fill-opacity:1;fill-rule:nonzero;stroke:none"
     d="m 300.88985,58.0985 c -0.584,-0.38 -0.36,-2.6826 -0.052,-2.7546 0.306,-0.0734 0.15,0.676 0.505,0.6093 0.348,-0.068 0.375,-0.568 0.604,-0.548 0.249,0.0213 0.125,0.6147 0.427,0.584 0.125,-0.016 0.448,-0.516 0.625,-0.4427 0.156,0.0627 0.255,0.5774 0.375,0.6347 0.193,0.0947 0.374,-0.4947 0.541,-0.4373 0.437,0.1613 -0.692,2.6306 -0.927,2.6986 -0.338,0.104 -1.145,0.26 -2.098,-0.344"
     id="path657" />
  <path
     style="fill:none;stroke:#231f20;stroke-width:0.565977;stroke-linecap:round;stroke-linejoin:round;stroke-miterlimit:4;stroke-dasharray:none;stroke-opacity:1"
     d="m 300.88985,58.0985 c -0.584,-0.38 -0.36,-2.6826 -0.052,-2.7546 0.306,-0.0734 0.15,0.676 0.505,0.6093 0.348,-0.068 0.375,-0.568 0.604,-0.548 0.249,0.0213 0.125,0.6147 0.427,0.584 0.125,-0.016 0.448,-0.516 0.625,-0.4427 0.156,0.0627 0.255,0.5774 0.375,0.6347 0.193,0.0947 0.374,-0.4947 0.541,-0.4373 0.437,0.1613 -0.692,2.6306 -0.927,2.6986 -0.338,0.104 -1.145,0.26 -2.098,-0.344 z"
     id="path658" />
  <path
     style="fill:none;stroke:#231f20;stroke-width:0.399514;stroke-linecap:butt;stroke-linejoin:miter;stroke-miterlimit:4;stroke-dasharray:none;stroke-opacity:1"
     d="m 62.895855,109.4735 c 1.874,2.401 34.478,12.109 65.477995,9.765 26.412,-2 39.855,-10.973 42.479,-17.307"
     id="path659" />
  <path
     style="fill:#231f20;fill-opacity:1;fill-rule:nonzero;stroke:none"
     d="m 171.31085,100.8225 c -0.02,0.604 0.042,1.391 0.224,1.937 l -0.744,-0.682 -1.005,-0.047 c 0.515,-0.255 1.115,-0.765 1.525,-1.208"
     id="path660" />
  <path
     style="fill:#231f20;fill-opacity:1;fill-rule:nonzero;stroke:none"
     d="m 194.50485,107.8695 c -1.308,0.36 -1.891,-0.443 -1.823,-1.479 0.015,-0.308 -0.281,-0.595 -0.235,-0.891 0.104,-0.698 1.542,-1.682 2.667,-0.688 0.083,0.068 0.828,0.402 1.353,0.735 1.016,0.656 2.74,2.468 2.647,5.167 -0.047,1.276 -0.792,1.01 -0.932,0.489 -0.439,-1.651 -0.803,-1.708 -1.073,-2.104 -0.927,-1.333 -2.604,-1.229 -2.604,-1.229"
     id="path661" />
  <path
     style="fill:none;stroke:#231f20;stroke-width:0.332927;stroke-linecap:butt;stroke-linejoin:miter;stroke-miterlimit:4;stroke-dasharray:none;stroke-opacity:1"
     d="m 194.50485,107.8695 c -1.308,0.36 -1.891,-0.443 -1.823,-1.479 0.015,-0.308 -0.281,-0.595 -0.235,-0.891 0.104,-0.698 1.542,-1.682 2.667,-0.688 0.083,0.068 0.828,0.402 1.353,0.735 1.016,0.656 2.74,2.468 2.647,5.167 -0.047,1.276 -0.792,1.01 -0.932,0.489 -0.439,-1.651 -0.803,-1.708 -1.073,-2.104 -0.927,-1.333 -2.604,-1.229 -2.604,-1.229 z"
     id="path662" />
  <path
     style="fill:#231f20;fill-opacity:1;fill-rule:nonzero;stroke:none"
     d="m 180.62985,95.2495 c -1.595,1.609 -1.693,2.136 -1.057,2.86 0.421,0.478 0.65,1.062 0.894,1.369 0.808,1.011 2.59,2.38 8.652,4.943 1.38,0.578 3.307,1.406 4.063,1.808 1.197,0.634 1.437,-1.787 0.973,-2.043 -1.51,-0.817 -2.478,-1.5 -2.978,-1.864 -0.344,-0.26 -1.016,-0.62 -2.224,-1.776 -1.828,-1.74 -2.662,-3.057 -4.35,-4.328 -0.786,-0.589 -1,-1.537 -2.068,-1.719 -1.073,-0.193 -1.905,0.75 -1.905,0.75"
     id="path663" />
  <path
     style="fill:none;stroke:#231f20;stroke-width:0.565977;stroke-linecap:butt;stroke-linejoin:miter;stroke-miterlimit:4;stroke-dasharray:none;stroke-opacity:1"
     d="m 180.62985,95.2495 c -1.595,1.609 -1.693,2.136 -1.057,2.86 0.421,0.478 0.65,1.062 0.894,1.369 0.808,1.011 2.59,2.38 8.652,4.943 1.38,0.578 3.307,1.406 4.063,1.808 1.197,0.634 1.437,-1.787 0.973,-2.043 -1.51,-0.817 -2.478,-1.5 -2.978,-1.864 -0.344,-0.26 -1.016,-0.62 -2.224,-1.776 -1.828,-1.74 -2.662,-3.057 -4.35,-4.328 -0.786,-0.589 -1,-1.537 -2.068,-1.719 -1.073,-0.193 -1.905,0.75 -1.905,0.75 z"
     id="path664" />
  <path
     style="fill:#ca0369;fill-opacity:1;fill-rule:nonzero;stroke:none"
     d="m 158.13385,81.9675 c 2.496,1.891 2.829,2.574 3.281,3.371 2.866,5.02 5.276,3.525 6.574,0.948 1.526,-3.027 2.14,-4.084 -3.219,-7.3907 -1.489,-0.9227 -6.745,-5.1986 -6.745,-5.1986 -1.672,-1.7867 -4.255,-2.6347 -5.635,-2.1667 -1.453,0.4893 -0.839,0.4013 -2.104,1.104 -1.204,0.6667 -2.313,2.552 -1.907,3.7186 0.391,1.1254 2.022,1.4534 4.312,2.2507 1.808,0.6253 5.443,3.3637 5.443,3.3637"
     id="path665" />
  <path
     style="fill:none;stroke:#231f20;stroke-width:0.565977;stroke-linecap:butt;stroke-linejoin:miter;stroke-miterlimit:4;stroke-dasharray:none;stroke-opacity:1"
     d="m 158.13385,81.9675 c 2.496,1.891 2.829,2.574 3.281,3.371 2.866,5.02 5.276,3.525 6.574,0.948 1.526,-3.027 2.14,-4.084 -3.219,-7.3907 -1.489,-0.9227 -6.745,-5.1986 -6.745,-5.1986 -1.672,-1.7867 -4.255,-2.6347 -5.635,-2.1667 -1.453,0.4893 -0.839,0.4013 -2.104,1.104 -1.204,0.6667 -2.313,2.552 -1.907,3.7186 0.391,1.1254 2.022,1.4534 4.312,2.2507 1.808,0.6253 5.443,3.3637 5.443,3.3637 z"
     id="path666" />
  <path
     style="fill:#ffffff;fill-opacity:1;fill-rule:nonzero;stroke:none"
     d="m 154.23885,66.2238 c 0.015,-0.2453 1.135,-0.5 1.052,-1.016 -0.078,-0.5213 -0.86,-0.604 -1.969,-2.2546 l -0.011,-0.016 c -0.77,-1.2347 -1.937,-1.9947 -3.186,-1.9067 -2.074,0.1414 -3.595,2.5413 -3.402,5.3547 0.192,2.8173 2.031,4.9893 4.104,4.844 1.984,-0.136 3.464,-2.344 3.412,-5.0054"
     id="path667" />
  <path
     style="fill:none;stroke:#231f20;stroke-width:0.565977;stroke-linecap:butt;stroke-linejoin:miter;stroke-miterlimit:4;stroke-dasharray:none;stroke-opacity:1"
     d="m 154.23885,66.2238 c 0.015,-0.2453 1.135,-0.5 1.052,-1.016 -0.078,-0.5213 -0.86,-0.604 -1.969,-2.2546 l -0.011,-0.016 c -0.77,-1.2347 -1.937,-1.9947 -3.186,-1.9067 -2.074,0.1414 -3.595,2.5413 -3.402,5.3547 0.192,2.8173 2.031,4.9893 4.104,4.844 1.984,-0.136 3.464,-2.344 3.412,-5.0054 z"
     id="path668" />
  <path
     style="fill:#231f20;fill-opacity:1;fill-rule:nonzero;stroke:none"
     d="m 181.93685,97.3475 c 3.057,-2.593 -0.694,-4.192 -1.006,-4.557 -3.224,-3.837 -3.552,-4.031 -6.213,-6.78 -3.844,-3.969 -7.084,-6.1 -10.047,-4.537 -2.01,1.057 -2.713,2.541 -2.573,3.849 0.161,1.453 1.921,4.099 4.808,4.031 l 1.479,0.87 c 0.916,0.714 1.374,1.052 1.801,1.443 0.745,0.677 1.579,1.353 3.095,2.588 2.692,2.193 6.26,3.625 6.26,3.625 0.978,0.76 2.396,-0.532 2.396,-0.532"
     id="path669" />
  <path
     style="fill:none;stroke:#231f20;stroke-width:0.565977;stroke-linecap:butt;stroke-linejoin:miter;stroke-miterlimit:4;stroke-dasharray:none;stroke-opacity:1"
     d="m 181.93685,97.3475 c 3.057,-2.593 -0.694,-4.192 -1.006,-4.557 -3.224,-3.837 -3.552,-4.031 -6.213,-6.78 -3.844,-3.969 -7.084,-6.1 -10.047,-4.537 -2.01,1.057 -2.713,2.541 -2.573,3.849 0.161,1.453 1.921,4.099 4.808,4.031 l 1.479,0.87 c 0.916,0.714 1.374,1.052 1.801,1.443 0.745,0.677 1.579,1.353 3.095,2.588 2.692,2.193 6.26,3.625 6.26,3.625 0.978,0.76 2.396,-0.532 2.396,-0.532 z"
     id="path670" />
  <path
     style="fill:#ca0369;fill-opacity:1;fill-rule:nonzero;stroke:none"
     d="m 170.82685,82.7595 c -0.041,-0.068 -0.088,-0.13 -0.12,-0.197 -0.354,-0.724 -0.964,-0.871 -1.989,-1.057 -1.421,-0.62 -2.787,-0.699 -4.104,-0.038 -2.032,1.022 -2.765,2.486 -2.651,3.792 0.13,1.459 1.828,4.146 4.719,4.142 l 5.583,-5.47 c -0.49,-0.442 -0.964,-0.822 -1.438,-1.172"
     id="path671" />
  <path
     style="fill:none;stroke:#231f20;stroke-width:0.565977;stroke-linecap:butt;stroke-linejoin:miter;stroke-miterlimit:4;stroke-dasharray:none;stroke-opacity:1"
     d="m 170.82685,82.7595 c -0.041,-0.068 -0.088,-0.13 -0.12,-0.197 -0.354,-0.724 -0.964,-0.871 -1.989,-1.057 -1.421,-0.62 -2.787,-0.699 -4.104,-0.038 -2.032,1.022 -2.765,2.486 -2.651,3.792 0.13,1.459 1.828,4.146 4.719,4.142 l 5.583,-5.47 c -0.49,-0.442 -0.964,-0.822 -1.438,-1.172 z"
     id="path672" />
  <path
     style="fill:#231f20;fill-opacity:1;fill-rule:nonzero;stroke:none"
     d="m 145.26485,55.6092 c 0.53,0.3693 1.016,2.2493 1.978,3.536 0.652,0.8693 1.262,3.5467 1.975,4.3653 0.651,0.7493 0.88,1.1507 0.151,2.0467 -0.427,0.5306 -1.599,1.2706 -2.011,0.968 -0.957,-0.708 -1.437,-1.52 -1.776,-2.5414 -0.385,-1.1506 -1.156,-4.3693 -1.239,-4.9786 -0.209,-1.5107 -0.74,-2.016 -0.833,-2.412 -0.177,-0.74 0.063,-0.9893 0.515,-1.208 0.865,-0.4173 1.24,0.224 1.24,0.224"
     id="path673" />
  <path
     style="fill:none;stroke:#231f20;stroke-width:0.565977;stroke-linecap:butt;stroke-linejoin:miter;stroke-miterlimit:4;stroke-dasharray:none;stroke-opacity:1"
     d="m 145.26485,55.6092 c 0.53,0.3693 1.016,2.2493 1.978,3.536 0.652,0.8693 1.262,3.5467 1.975,4.3653 0.651,0.7493 0.88,1.1507 0.151,2.0467 -0.427,0.5306 -1.599,1.2706 -2.011,0.968 -0.957,-0.708 -1.437,-1.52 -1.776,-2.5414 -0.385,-1.1506 -1.156,-4.3693 -1.239,-4.9786 -0.209,-1.5107 -0.74,-2.016 -0.833,-2.412 -0.177,-0.74 0.063,-0.9893 0.515,-1.208 0.865,-0.4173 1.24,0.224 1.24,0.224 z"
     id="path674" />
  <path
     style="fill:#231f20;fill-opacity:1;fill-rule:nonzero;stroke:none"
     d="m 148.73385,63.9785 c 1.244,-0.3587 1.443,1.6667 1.577,2.1933 0.136,0.5254 0.688,1.9787 1.266,3.0574 0.578,1.0773 0.838,2.672 1.933,4.724 0.577,1.0826 0.453,2.4946 -1.147,3.2599 -1.582,0.76 -2.609,0.156 -3.104,-1.2546 -0.5,-1.4067 -0.374,-2.948 -0.781,-4.4013 -0.401,-1.4587 -0.948,-2.9067 -1.432,-4.0214 -0.552,-1.2653 -0.349,-2.0986 -0.021,-2.4426 0.824,-0.8694 1.709,-1.1147 1.709,-1.1147"
     id="path675" />
  <path
     style="fill:none;stroke:#231f20;stroke-width:0.565977;stroke-linecap:butt;stroke-linejoin:miter;stroke-miterlimit:4;stroke-dasharray:none;stroke-opacity:1"
     d="m 148.73385,63.9785 c 1.244,-0.3587 1.443,1.6667 1.577,2.1933 0.136,0.5254 0.688,1.9787 1.266,3.0574 0.578,1.0773 0.838,2.672 1.933,4.724 0.577,1.0826 0.453,2.4946 -1.147,3.2599 -1.582,0.76 -2.609,0.156 -3.104,-1.2546 -0.5,-1.4067 -0.374,-2.948 -0.781,-4.4013 -0.401,-1.4587 -0.948,-2.9067 -1.432,-4.0214 -0.552,-1.2653 -0.349,-2.0986 -0.021,-2.4426 0.824,-0.8694 1.709,-1.1147 1.709,-1.1147 z"
     id="path676" />
  <path
     style="fill:#231f20;fill-opacity:1;fill-rule:nonzero;stroke:none"
     d="m 143.49385,56.2492 c -0.703,-0.0307 -1.656,-2.14 -1.421,-2.3587 0.228,-0.2186 0.468,0.5107 0.738,0.276 0.271,-0.2293 0.042,-0.6773 0.251,-0.776 0.229,-0.104 0.416,0.468 0.661,0.2907 0.104,-0.0773 0.135,-0.6707 0.323,-0.692 0.167,-0.0267 0.511,0.3693 0.64,0.3587 0.22,-0.0147 0.073,-0.6134 0.256,-0.6454 0.459,-0.0826 0.708,2.62 0.541,2.7974 -0.24,0.26 -0.864,0.8013 -1.989,0.7493"
     id="path677" />
  <path
     style="fill:none;stroke:#231f20;stroke-width:0.565977;stroke-linecap:round;stroke-linejoin:round;stroke-miterlimit:4;stroke-dasharray:none;stroke-opacity:1"
     d="m 143.49385,56.2492 c -0.703,-0.0307 -1.656,-2.14 -1.421,-2.3587 0.228,-0.2186 0.468,0.5107 0.738,0.276 0.271,-0.2293 0.042,-0.6773 0.251,-0.776 0.229,-0.104 0.416,0.468 0.661,0.2907 0.104,-0.0773 0.135,-0.6707 0.323,-0.692 0.167,-0.0267 0.511,0.3693 0.64,0.3587 0.22,-0.0147 0.073,-0.6134 0.256,-0.6454 0.459,-0.0826 0.708,2.62 0.541,2.7974 -0.24,0.26 -0.864,0.8013 -1.989,0.7493 z"
     id="path678" />
  <path
     style="fill:#231f20;fill-opacity:1;fill-rule:nonzero;stroke:none"
     d="m 217.03485,86.0465 c -1.306,0.355 -1.89,-0.448 -1.812,-1.484 0.016,-0.308 -0.281,-0.595 -0.234,-0.896 0.109,-0.699 1.552,-1.672 2.672,-0.677 0.082,0.073 0.828,0.406 1.349,0.745 1.015,0.667 2.724,2.484 2.624,5.176 -0.052,1.276 -0.796,1.011 -0.932,0.491 -0.432,-1.658 -0.796,-1.72 -1.068,-2.11 -0.916,-1.338 -2.599,-1.245 -2.599,-1.245"
     id="path679" />
  <path
     style="fill:none;stroke:#231f20;stroke-width:0.332927;stroke-linecap:butt;stroke-linejoin:miter;stroke-miterlimit:4;stroke-dasharray:none;stroke-opacity:1"
     d="m 217.03485,86.0465 c -1.306,0.355 -1.89,-0.448 -1.812,-1.484 0.016,-0.308 -0.281,-0.595 -0.234,-0.896 0.109,-0.699 1.552,-1.672 2.672,-0.677 0.082,0.073 0.828,0.406 1.349,0.745 1.015,0.667 2.724,2.484 2.624,5.176 -0.052,1.276 -0.796,1.011 -0.932,0.491 -0.432,-1.658 -0.796,-1.72 -1.068,-2.11 -0.916,-1.338 -2.599,-1.245 -2.599,-1.245 z"
     id="path680" />
  <path
     style="fill:#231f20;fill-opacity:1;fill-rule:nonzero;stroke:none"
     d="m 203.21785,73.3692 c -1.604,1.604 -1.699,2.1306 -1.073,2.8546 0.422,0.4787 0.646,1.068 0.89,1.3747 0.808,1.016 2.584,2.3906 8.636,4.979 1.375,0.589 3.292,1.422 4.052,1.828 1.192,0.636 1.448,-1.786 0.979,-2.042 -1.505,-0.822 -2.473,-1.51 -2.968,-1.88 -0.349,-0.254 -1.016,-0.6197 -2.215,-1.781 -1.822,-1.744 -2.65,-3.068 -4.337,-4.344 -0.776,-0.5933 -0.996,-1.5413 -2.057,-1.7333 -1.068,-0.1934 -1.907,0.744 -1.907,0.744"
     id="path681" />
  <path
     style="fill:none;stroke:#231f20;stroke-width:0.565977;stroke-linecap:butt;stroke-linejoin:miter;stroke-miterlimit:4;stroke-dasharray:none;stroke-opacity:1"
     d="m 203.21785,73.3692 c -1.604,1.604 -1.699,2.1306 -1.073,2.8546 0.422,0.4787 0.646,1.068 0.89,1.3747 0.808,1.016 2.584,2.3906 8.636,4.979 1.375,0.589 3.292,1.422 4.052,1.828 1.192,0.636 1.448,-1.786 0.979,-2.042 -1.505,-0.822 -2.473,-1.51 -2.968,-1.88 -0.349,-0.254 -1.016,-0.6197 -2.215,-1.781 -1.822,-1.744 -2.65,-3.068 -4.337,-4.344 -0.776,-0.5933 -0.996,-1.5413 -2.057,-1.7333 -1.068,-0.1934 -1.907,0.744 -1.907,0.744 z"
     id="path682" />
  <path
     style="fill:#ca0369;fill-opacity:1;fill-rule:nonzero;stroke:none"
     d="m 180.77485,59.9945 c 2.49,1.9067 2.818,2.588 3.271,3.3907 2.839,5.0306 5.255,3.5413 6.568,0.968 1.541,-3.02 2.156,-4.072 -3.188,-7.4053 -1.484,-0.9227 -6.724,-5.224 -6.724,-5.224 -1.661,-1.792 -4.244,-2.652 -5.625,-2.1934 -1.458,0.4894 -0.843,0.4014 -2.11,1.0987 -1.208,0.6627 -2.328,2.5427 -1.921,3.7093 0.38,1.124 2.011,1.468 4.303,2.2707 1.801,0.6293 5.426,3.3853 5.426,3.3853"
     id="path683" />
  <path
     style="fill:none;stroke:#231f20;stroke-width:0.565977;stroke-linecap:butt;stroke-linejoin:miter;stroke-miterlimit:4;stroke-dasharray:none;stroke-opacity:1"
     d="m 180.77485,59.9945 c 2.49,1.9067 2.818,2.588 3.271,3.3907 2.839,5.0306 5.255,3.5413 6.568,0.968 1.541,-3.02 2.156,-4.072 -3.188,-7.4053 -1.484,-0.9227 -6.724,-5.224 -6.724,-5.224 -1.661,-1.792 -4.244,-2.652 -5.625,-2.1934 -1.458,0.4894 -0.843,0.4014 -2.11,1.0987 -1.208,0.6627 -2.328,2.5427 -1.921,3.7093 0.38,1.124 2.011,1.468 4.303,2.2707 1.801,0.6293 5.426,3.3853 5.426,3.3853 z"
     id="path684" />
  <path
     style="fill:#ffffff;fill-opacity:1;fill-rule:nonzero;stroke:none"
     d="m 173.91485,43.9372 c -0.066,-0.2346 0.902,-0.8493 0.652,-1.312 -0.245,-0.464 -1.016,-0.2773 -2.614,-1.464 l -0.016,-0.016 c -1.142,-0.9013 -2.49,-1.2293 -3.64,-0.724 -1.907,0.828 -2.532,3.5987 -1.407,6.1827 1.125,2.5933 3.583,4.0213 5.489,3.192 1.823,-0.7907 2.479,-3.3693 1.536,-5.8587"
     id="path685" />
  <path
     style="fill:none;stroke:#231f20;stroke-width:0.565977;stroke-linecap:butt;stroke-linejoin:miter;stroke-miterlimit:4;stroke-dasharray:none;stroke-opacity:1"
     d="m 173.91485,43.9372 c -0.066,-0.2346 0.902,-0.8493 0.652,-1.312 -0.245,-0.464 -1.016,-0.2773 -2.614,-1.464 l -0.016,-0.016 c -1.142,-0.9013 -2.49,-1.2293 -3.64,-0.724 -1.907,0.828 -2.532,3.5987 -1.407,6.1827 1.125,2.5933 3.583,4.0213 5.489,3.192 1.823,-0.7907 2.479,-3.3693 1.536,-5.8587 z"
     id="path686" />
  <path
     style="fill:#231f20;fill-opacity:1;fill-rule:nonzero;stroke:none"
     d="m 204.51485,75.4732 c 3.072,-2.5827 -0.682,-4.1974 -0.985,-4.5627 -3.213,-3.848 -3.536,-4.0467 -6.187,-6.8013 -3.828,-3.9893 -7.057,-6.1307 -10.032,-4.584 -2.01,1.052 -2.718,2.532 -2.582,3.8386 0.15,1.4534 1.901,4.1094 4.79,4.052 l 1.475,0.876 c 0.912,0.7187 1.369,1.0614 1.797,1.452 0.739,0.6774 1.567,1.36 3.083,2.6 2.683,2.2027 6.24,3.6507 6.24,3.6507 0.984,0.7653 2.401,-0.5213 2.401,-0.5213"
     id="path687" />
  <path
     style="fill:none;stroke:#231f20;stroke-width:0.565977;stroke-linecap:butt;stroke-linejoin:miter;stroke-miterlimit:4;stroke-dasharray:none;stroke-opacity:1"
     d="m 204.51485,75.4732 c 3.072,-2.5827 -0.682,-4.1974 -0.985,-4.5627 -3.213,-3.848 -3.536,-4.0467 -6.187,-6.8013 -3.828,-3.9893 -7.057,-6.1307 -10.032,-4.584 -2.01,1.052 -2.718,2.532 -2.582,3.8386 0.15,1.4534 1.901,4.1094 4.79,4.052 l 1.475,0.876 c 0.912,0.7187 1.369,1.0614 1.797,1.452 0.739,0.6774 1.567,1.36 3.083,2.6 2.683,2.2027 6.24,3.6507 6.24,3.6507 0.984,0.7653 2.401,-0.5213 2.401,-0.5213 z"
     id="path688" />
  <path
     style="fill:#ca0369;fill-opacity:1;fill-rule:nonzero;stroke:none"
     d="m 193.46685,60.8385 c -0.046,-0.0626 -0.088,-0.1306 -0.118,-0.1933 -0.355,-0.7293 -0.964,-0.8747 -1.98,-1.068 -1.427,-0.624 -2.787,-0.708 -4.11,-0.052 -2.036,1.0053 -2.776,2.4693 -2.666,3.7813 0.12,1.4533 1.808,4.1467 4.698,4.156 l 5.61,-5.448 c -0.491,-0.4426 -0.964,-0.8226 -1.434,-1.176"
     id="path689" />
  <path
     style="fill:none;stroke:#231f20;stroke-width:0.565977;stroke-linecap:butt;stroke-linejoin:miter;stroke-miterlimit:4;stroke-dasharray:none;stroke-opacity:1"
     d="m 193.46685,60.8385 c -0.046,-0.0626 -0.088,-0.1306 -0.118,-0.1933 -0.355,-0.7293 -0.964,-0.8747 -1.98,-1.068 -1.427,-0.624 -2.787,-0.708 -4.11,-0.052 -2.036,1.0053 -2.776,2.4693 -2.666,3.7813 0.12,1.4533 1.808,4.1467 4.698,4.156 l 5.61,-5.448 c -0.491,-0.4426 -0.964,-0.8226 -1.434,-1.176 z"
     id="path690" />
  <path
     style="fill:#231f20;fill-opacity:1;fill-rule:nonzero;stroke:none"
     d="m 173.12485,60.0252 c -1.298,-0.0107 -0.918,-2.0107 -0.896,-2.5467 0.02,-0.5413 0.14,-1.156 0.03,-2.3693 -0.073,-0.9013 -0.077,-1.672 -0.244,-2.4173 -0.272,-1.192 0.271,-2.52 2.026,-2.796 1.734,-0.276 2.213,0.328 2.312,1.8226 0.021,0.3747 -0.25,1.4787 -0.271,1.948 -0.072,1.5107 -0.479,2.224 -0.333,3.4267 0.166,1.3747 -0.26,2.1147 -0.676,2.3547 -1.038,0.5933 -1.948,0.5773 -1.948,0.5773"
     id="path691" />
  <path
     style="fill:none;stroke:#231f20;stroke-width:0.565977;stroke-linecap:butt;stroke-linejoin:miter;stroke-miterlimit:4;stroke-dasharray:none;stroke-opacity:1"
     d="m 173.12485,60.0252 c -1.298,-0.0107 -0.918,-2.0107 -0.896,-2.5467 0.02,-0.5413 0.14,-1.156 0.03,-2.3693 -0.073,-0.9013 -0.077,-1.672 -0.244,-2.4173 -0.272,-1.192 0.271,-2.52 2.026,-2.796 1.734,-0.276 2.213,0.328 2.312,1.8226 0.021,0.3747 -0.25,1.4787 -0.271,1.948 -0.072,1.5107 -0.479,2.224 -0.333,3.4267 0.166,1.3747 -0.26,2.1147 -0.676,2.3547 -1.038,0.5933 -1.948,0.5773 -1.948,0.5773 z"
     id="path692" />
  <path
     style="fill:#231f20;fill-opacity:1;fill-rule:nonzero;stroke:none"
     d="m 177.71285,54.1865 c 0.114,0.464 -0.782,1.328 -0.97,2.344 -0.124,0.6827 -1.446,1.8707 -1.5,2.5787 -0.052,0.6507 -0.156,0.9213 -1.218,0.6973 -0.63,-0.1293 -1.891,-0.692 -1.968,-1.052 -0.183,-0.844 0.02,-1.396 0.453,-1.916 0.489,-0.5893 2.057,-2.0373 2.391,-2.2706 0.838,-0.5787 0.806,-1.084 1.005,-1.2614 0.359,-0.3333 0.676,-0.244 1.124,-0.0106 0.844,0.4533 0.683,0.8906 0.683,0.8906"
     id="path693" />
  <path
     style="fill:none;stroke:#231f20;stroke-width:0.447455;stroke-linecap:butt;stroke-linejoin:miter;stroke-miterlimit:4;stroke-dasharray:none;stroke-opacity:1"
     d="m 177.71285,54.1865 c 0.114,0.464 -0.782,1.328 -0.97,2.344 -0.124,0.6827 -1.446,1.8707 -1.5,2.5787 -0.052,0.6507 -0.156,0.9213 -1.218,0.6973 -0.63,-0.1293 -1.891,-0.692 -1.968,-1.052 -0.183,-0.844 0.02,-1.396 0.453,-1.916 0.489,-0.5893 2.057,-2.0373 2.391,-2.2706 0.838,-0.5787 0.806,-1.084 1.005,-1.2614 0.359,-0.3333 0.676,-0.244 1.124,-0.0106 0.844,0.4533 0.683,0.8906 0.683,0.8906 z"
     id="path694" />
  <path
     style="fill:#ffffff;fill-opacity:1;fill-rule:nonzero;stroke:#231f20;stroke-width:0.665856;stroke-linecap:butt;stroke-linejoin:miter;stroke-miterlimit:4;stroke-dasharray:none;stroke-opacity:1"
     d="m 161.22885,16.4213 10.91,29.7346 1.256,-0.4587 -10.917,-29.7346 z"
     id="path695" />
  <path
     style="fill:#ffffff;fill-opacity:1;fill-rule:nonzero;stroke:none"
     d="m 170.46185,52.0305 c -0.812,-2.2133 0.324,-4.6666 2.537,-5.4786 2.208,-0.8133 4.667,0.328 5.479,2.536 0.808,2.208 -0.328,4.6666 -2.536,5.48 -2.208,0.812 -4.667,-0.3294 -5.48,-2.5374 m -1.249,0.4587 c 1.062,2.896 4.286,4.3907 7.188,3.328 2.896,-1.0627 4.39,-4.292 3.328,-7.188 -1.068,-2.9 -4.292,-4.3906 -7.188,-3.328 -2.902,1.0627 -4.391,4.2867 -3.328,7.188"
     id="path696" />
  <path
     style="fill:none;stroke:#231f20;stroke-width:0.665856;stroke-linecap:butt;stroke-linejoin:miter;stroke-miterlimit:4;stroke-dasharray:none;stroke-opacity:1"
     d="m 170.46185,52.0305 c -0.812,-2.2133 0.324,-4.6666 2.537,-5.4786 2.208,-0.8133 4.667,0.328 5.479,2.536 0.808,2.208 -0.328,4.6666 -2.536,5.48 -2.208,0.812 -4.667,-0.3294 -5.48,-2.5374 z m -1.249,0.4587 c 1.062,2.896 4.286,4.3907 7.188,3.328 2.896,-1.0627 4.39,-4.292 3.328,-7.188 -1.068,-2.9 -4.292,-4.3906 -7.188,-3.328 -2.902,1.0627 -4.391,4.2867 -3.328,7.188 z"
     id="path697" />
  <path
     style="fill:#231f20;fill-opacity:1;fill-rule:nonzero;stroke:none"
     d="m 177.44185,53.0572 c 0.661,-0.2293 2.333,1.3693 2.197,1.6613 -0.129,0.292 -0.624,-0.3026 -0.79,0.02 -0.163,0.3134 0.213,0.6414 0.057,0.8134 -0.172,0.1826 -0.557,-0.2814 -0.72,-0.0267 -0.067,0.1093 0.125,0.672 -0.041,0.7667 -0.146,0.0826 -0.61,-0.1574 -0.735,-0.0947 -0.187,0.0947 0.163,0.5987 0.011,0.6933 -0.396,0.244 -1.635,-2.1666 -1.547,-2.396 0.125,-0.328 0.505,-1.0626 1.568,-1.4373"
     id="path698" />
  <path
     style="fill:none;stroke:#231f20;stroke-width:0.565977;stroke-linecap:round;stroke-linejoin:round;stroke-miterlimit:4;stroke-dasharray:none;stroke-opacity:1"
     d="m 177.44185,53.0572 c 0.661,-0.2293 2.333,1.3693 2.197,1.6613 -0.129,0.292 -0.624,-0.3026 -0.79,0.02 -0.163,0.3134 0.213,0.6414 0.057,0.8134 -0.172,0.1826 -0.557,-0.2814 -0.72,-0.0267 -0.067,0.1093 0.125,0.672 -0.041,0.7667 -0.146,0.0826 -0.61,-0.1574 -0.735,-0.0947 -0.187,0.0947 0.163,0.5987 0.011,0.6933 -0.396,0.244 -1.635,-2.1666 -1.547,-2.396 0.125,-0.328 0.505,-1.0626 1.568,-1.4373 z"
     id="path699" />
  <path
     style="fill:#231f20;fill-opacity:1;fill-rule:nonzero;stroke:none"
     d="m 245.48785,32.8333 c 0.355,1.3066 -0.453,1.8853 -1.484,1.8066 -0.308,-0.0146 -0.598,0.276 -0.896,0.2347 -0.693,-0.1093 -1.672,-1.552 -0.666,-2.6773 0.068,-0.0774 0.401,-0.828 0.74,-1.344 0.666,-1.0147 2.484,-2.7187 5.181,-2.6147 1.276,0.048 1.005,0.792 0.485,0.9333 -1.657,0.4214 -1.72,0.7907 -2.109,1.0627 -1.339,0.9107 -1.251,2.5987 -1.251,2.5987"
     id="path700" />
  <path
     style="fill:none;stroke:#231f20;stroke-width:0.332927;stroke-linecap:butt;stroke-linejoin:miter;stroke-miterlimit:4;stroke-dasharray:none;stroke-opacity:1"
     d="m 245.48785,32.8333 c 0.355,1.3066 -0.453,1.8853 -1.484,1.8066 -0.308,-0.0146 -0.598,0.276 -0.896,0.2347 -0.693,-0.1093 -1.672,-1.552 -0.666,-2.6773 0.068,-0.0774 0.401,-0.828 0.74,-1.344 0.666,-1.0147 2.484,-2.7187 5.181,-2.6147 1.276,0.048 1.005,0.792 0.485,0.9333 -1.657,0.4214 -1.72,0.7907 -2.109,1.0627 -1.339,0.9107 -1.251,2.5987 -1.251,2.5987 z"
     id="path701" />
  <path
     style="fill:#231f20;fill-opacity:1;fill-rule:nonzero;stroke:none"
     d="m 232.79485,46.6292 c 1.6,1.6054 2.131,1.704 2.849,1.0734 0.484,-0.416 1.068,-0.64 1.38,-0.8854 1.016,-0.8026 2.391,-2.5786 4.991,-8.6253 0.588,-1.3747 1.427,-3.2906 1.833,-4.052 0.635,-1.192 -1.781,-1.448 -2.037,-0.9786 -0.828,1.5 -1.515,2.464 -1.885,2.9679 -0.255,0.344 -0.626,1.0107 -1.782,2.204 -1.754,1.8227 -3.077,2.6507 -4.358,4.3334 -0.595,0.7813 -1.538,0.9893 -1.735,2.0573 -0.199,1.0667 0.744,1.9053 0.744,1.9053"
     id="path702" />
  <path
     style="fill:none;stroke:#231f20;stroke-width:0.565977;stroke-linecap:butt;stroke-linejoin:miter;stroke-miterlimit:4;stroke-dasharray:none;stroke-opacity:1"
     d="m 232.79485,46.6292 c 1.6,1.6054 2.131,1.704 2.849,1.0734 0.484,-0.416 1.068,-0.64 1.38,-0.8854 1.016,-0.8026 2.391,-2.5786 4.991,-8.6253 0.588,-1.3747 1.427,-3.2906 1.833,-4.052 0.635,-1.192 -1.781,-1.448 -2.037,-0.9786 -0.828,1.5 -1.515,2.464 -1.885,2.9679 -0.255,0.344 -0.626,1.0107 -1.782,2.204 -1.754,1.8227 -3.077,2.6507 -4.358,4.3334 -0.595,0.7813 -1.538,0.9893 -1.735,2.0573 -0.199,1.0667 0.744,1.9053 0.744,1.9053 z"
     id="path703" />
  <path
     style="fill:#ca0369;fill-opacity:1;fill-rule:nonzero;stroke:none"
     d="m 218.99885,52.1665 c 0.339,3.1147 0.074,3.8174 -0.198,4.7027 -1.682,5.532 1.062,6.2506 3.823,5.4267 3.25,-0.9627 4.438,-1.244 3.167,-7.4107 -0.355,-1.7133 -0.849,-8.4746 -0.849,-8.4746 0.145,-2.4374 -1.006,-4.9 -2.292,-5.588 -1.359,-0.7187 -0.87,-0.3334 -2.244,-0.7707 -1.319,-0.4227 -3.443,0.068 -4.016,1.1667 -0.552,1.052 0.323,2.4626 1.323,4.6773 0.786,1.744 1.286,6.2706 1.286,6.2706"
     id="path704" />
  <path
     style="fill:none;stroke:#231f20;stroke-width:0.565977;stroke-linecap:butt;stroke-linejoin:miter;stroke-miterlimit:4;stroke-dasharray:none;stroke-opacity:1"
     d="m 218.99885,52.1665 c 0.339,3.1147 0.074,3.8174 -0.198,4.7027 -1.682,5.532 1.062,6.2506 3.823,5.4267 3.25,-0.9627 4.438,-1.244 3.167,-7.4107 -0.355,-1.7133 -0.849,-8.4746 -0.849,-8.4746 0.145,-2.4374 -1.006,-4.9 -2.292,-5.588 -1.359,-0.7187 -0.87,-0.3334 -2.244,-0.7707 -1.319,-0.4227 -3.443,0.068 -4.016,1.1667 -0.552,1.052 0.323,2.4626 1.323,4.6773 0.786,1.744 1.286,6.2706 1.286,6.2706 z"
     id="path705" />
  <path
     style="fill:#ffffff;fill-opacity:1;fill-rule:nonzero;stroke:none"
     d="m 225.03985,36.0679 c 0.11,-0.22 1.235,0.0147 1.375,-0.496 0.147,-0.5 -0.536,-0.9 -0.869,-2.864 v -0.0213 c -0.194,-1.4427 -0.943,-2.6093 -2.12,-3.0467 -1.943,-0.724 -4.317,0.8334 -5.301,3.48 -0.991,2.6507 -0.21,5.38 1.738,6.104 1.865,0.692 4.125,-0.704 5.177,-3.156"
     id="path706" />
  <path
     style="fill:none;stroke:#231f20;stroke-width:0.565977;stroke-linecap:butt;stroke-linejoin:miter;stroke-miterlimit:4;stroke-dasharray:none;stroke-opacity:1"
     d="m 225.03985,36.0679 c 0.11,-0.22 1.235,0.0147 1.375,-0.496 0.147,-0.5 -0.536,-0.9 -0.869,-2.864 v -0.0213 c -0.194,-1.4427 -0.943,-2.6093 -2.12,-3.0467 -1.943,-0.724 -4.317,0.8334 -5.301,3.48 -0.991,2.6507 -0.21,5.38 1.738,6.104 1.865,0.692 4.125,-0.704 5.177,-3.156 z"
     id="path707" />
  <path
     style="fill:#231f20;fill-opacity:1;fill-rule:nonzero;stroke:none"
     d="m 234.89985,45.3386 c -2.578,-3.0734 -4.198,0.672 -4.562,0.9786 -3.855,3.2027 -4.052,3.5307 -6.814,6.172 -3.994,3.8227 -6.139,7.052 -4.593,10.0213 1.047,2.02 2.521,2.728 3.833,2.5933 1.448,-0.1506 4.11,-1.8906 4.063,-4.7813 l 0.875,-1.4746 c 0.713,-0.9107 1.062,-1.3694 1.453,-1.7907 0.677,-0.74 1.36,-1.5733 2.604,-3.084 2.208,-2.6773 3.661,-6.2386 3.661,-6.2386 0.766,-0.98 -0.52,-2.396 -0.52,-2.396"
     id="path708" />
  <path
     style="fill:none;stroke:#231f20;stroke-width:0.565977;stroke-linecap:butt;stroke-linejoin:miter;stroke-miterlimit:4;stroke-dasharray:none;stroke-opacity:1"
     d="m 234.89985,45.3386 c -2.578,-3.0734 -4.198,0.672 -4.562,0.9786 -3.855,3.2027 -4.052,3.5307 -6.814,6.172 -3.994,3.8227 -6.139,7.052 -4.593,10.0213 1.047,2.02 2.521,2.728 3.833,2.5933 1.448,-0.1506 4.11,-1.8906 4.063,-4.7813 l 0.875,-1.4746 c 0.713,-0.9107 1.062,-1.3694 1.453,-1.7907 0.677,-0.74 1.36,-1.5733 2.604,-3.084 2.208,-2.6773 3.661,-6.2386 3.661,-6.2386 0.766,-0.98 -0.52,-2.396 -0.52,-2.396 z"
     id="path709" />
  <path
     style="fill:#ca0369;fill-opacity:1;fill-rule:nonzero;stroke:#231f20;stroke-width:0.565977;stroke-linecap:butt;stroke-linejoin:miter;stroke-miterlimit:4;stroke-dasharray:none;stroke-opacity:1"
     d="m 221.42585,54.7292 c -0.443,0.4893 -0.828,0.9627 -1.183,1.432 -0.061,0.0413 -0.124,0.088 -0.186,0.1147 -0.73,0.3493 -0.875,0.9626 -1.074,1.9786 -0.625,1.4227 -0.713,2.7867 -0.062,4.1094 1.01,2.0373 2.469,2.7759 3.781,2.6719 1.458,-0.12 4.156,-1.8066 4.161,-4.6919 z"
     id="path710" />
  <path
     style="fill:#231f20;fill-opacity:1;fill-rule:nonzero;stroke:none"
     d="m 216.98285,55.9425 c -0.406,-0.2866 -0.437,-1.412 -0.661,-2.4226 -0.136,-0.6347 -0.281,-3.0987 -0.339,-3.88 -0.046,-0.6613 -0.421,-0.568 0.694,-1.0467 0.65,-0.2813 2.114,0.0787 2.426,0.308 0.719,0.5467 0.588,1.0827 0.542,1.7547 -0.052,0.76 -0.594,2.4946 -0.651,2.912 -0.151,1.1346 -0.005,1.744 -0.063,2.004 -0.104,0.48 -0.188,0.5573 -0.74,0.6466 -1.062,0.1614 -1.208,-0.276 -1.208,-0.276"
     id="path711" />
  <path
     style="fill:none;stroke:#231f20;stroke-width:0.471425;stroke-linecap:butt;stroke-linejoin:miter;stroke-miterlimit:4;stroke-dasharray:none;stroke-opacity:1"
     d="m 216.98285,55.9425 c -0.406,-0.2866 -0.437,-1.412 -0.661,-2.4226 -0.136,-0.6347 -0.281,-3.0987 -0.339,-3.88 -0.046,-0.6613 -0.421,-0.568 0.694,-1.0467 0.65,-0.2813 2.114,0.0787 2.426,0.308 0.719,0.5467 0.588,1.0827 0.542,1.7547 -0.052,0.76 -0.594,2.4946 -0.651,2.912 -0.151,1.1346 -0.005,1.744 -0.063,2.004 -0.104,0.48 -0.188,0.5573 -0.74,0.6466 -1.062,0.1614 -1.208,-0.276 -1.208,-0.276 z"
     id="path712" />
  <path
     style="fill:#231f20;fill-opacity:1;fill-rule:nonzero;stroke:none"
     d="m 216.49385,49.2079 c -1.427,-0.1933 -0.599,-1.344 -0.464,-1.6613 0.131,-0.3227 0.319,-1.276 0.287,-2.0267 -0.026,-0.76 0.521,-1.6973 0.474,-3.1293 -0.026,-0.756 -0.109,-2.6987 2.938,-2.532 1.03,0.0573 2.249,0.48 1.89,1.6253 -0.271,0.8547 -0.157,2.8333 -0.557,3.9067 -0.334,0.9013 -0.995,1.6866 -1.079,2.4373 -0.098,0.8493 -0.724,1.2293 -1.224,1.3173 -1.265,0.2027 -2.265,0.0627 -2.265,0.0627"
     id="path713" />
  <path
     style="fill:none;stroke:#231f20;stroke-width:0.471425;stroke-linecap:butt;stroke-linejoin:miter;stroke-miterlimit:4;stroke-dasharray:none;stroke-opacity:1"
     d="m 216.49385,49.2079 c -1.427,-0.1933 -0.599,-1.344 -0.464,-1.6613 0.131,-0.3227 0.319,-1.276 0.287,-2.0267 -0.026,-0.76 0.521,-1.6973 0.474,-3.1293 -0.026,-0.756 -0.109,-2.6987 2.938,-2.532 1.03,0.0573 2.249,0.48 1.89,1.6253 -0.271,0.8547 -0.157,2.8333 -0.557,3.9067 -0.334,0.9013 -0.995,1.6866 -1.079,2.4373 -0.098,0.8493 -0.724,1.2293 -1.224,1.3173 -1.265,0.2027 -2.265,0.0627 -2.265,0.0627 z"
     id="path714" />
  <path
     style="fill:#ffffff;fill-opacity:1;fill-rule:nonzero;stroke:#231f20;stroke-width:0.665856;stroke-linecap:butt;stroke-linejoin:miter;stroke-miterlimit:4;stroke-dasharray:none;stroke-opacity:1"
     d="m 217.72285,16.3226 0.058,31.6773 1.333,-0.0053 -0.063,-31.672 z"
     id="path715" />
  <path
     style="fill:#ffffff;fill-opacity:1;fill-rule:nonzero;stroke:none"
     d="m 214.18585,52.9425 c 0,-2.3546 1.907,-4.2759 4.261,-4.2759 2.353,-0.0054 4.276,1.9053 4.281,4.2599 0.006,2.3494 -1.912,4.2707 -4.266,4.276 -2.348,0.0054 -4.271,-1.9066 -4.276,-4.26 m -1.333,0 c 0.01,3.088 2.526,5.5934 5.614,5.588 3.089,-0.0053 5.595,-2.52 5.589,-5.6093 -0.005,-3.088 -2.521,-5.5933 -5.609,-5.588 -3.089,0.0054 -5.598,2.52 -5.594,5.6093"
     id="path716" />
  <path
     style="fill:none;stroke:#231f20;stroke-width:0.665856;stroke-linecap:butt;stroke-linejoin:miter;stroke-miterlimit:4;stroke-dasharray:none;stroke-opacity:1"
     d="m 214.18585,52.9425 c 0,-2.3546 1.907,-4.2759 4.261,-4.2759 2.353,-0.0054 4.276,1.9053 4.281,4.2599 0.006,2.3494 -1.912,4.2707 -4.266,4.276 -2.348,0.0054 -4.271,-1.9066 -4.276,-4.26 z m -1.333,0 c 0.01,3.088 2.526,5.5934 5.614,5.588 3.089,-0.0053 5.595,-2.52 5.589,-5.6093 -0.005,-3.088 -2.521,-5.5933 -5.609,-5.588 -3.089,0.0054 -5.598,2.52 -5.594,5.6093 z"
     id="path717" />
  <path
     style="fill:#231f20;fill-opacity:1;fill-rule:nonzero;stroke:none"
     d="m 219.24885,55.9105 c 0.682,0.1667 1.213,2.4174 0.942,2.5894 -0.27,0.172 -0.364,-0.5947 -0.676,-0.4174 -0.308,0.1774 -0.172,0.656 -0.396,0.7134 -0.24,0.0573 -0.313,-0.536 -0.589,-0.4107 -0.12,0.052 -0.26,0.6293 -0.453,0.62 -0.167,-0.0107 -0.427,-0.464 -0.558,-0.4853 -0.213,-0.02 -0.192,0.5946 -0.374,0.5893 -0.468,-0.0107 -0.187,-2.708 0.01,-2.8493 0.287,-0.2134 1,-0.62 2.094,-0.3494"
     id="path718" />
  <path
     style="fill:none;stroke:#231f20;stroke-width:0.565977;stroke-linecap:round;stroke-linejoin:round;stroke-miterlimit:4;stroke-dasharray:none;stroke-opacity:1"
     d="m 219.24885,55.9105 c 0.682,0.1667 1.213,2.4174 0.942,2.5894 -0.27,0.172 -0.364,-0.5947 -0.676,-0.4174 -0.308,0.1774 -0.172,0.656 -0.396,0.7134 -0.24,0.0573 -0.313,-0.536 -0.589,-0.4107 -0.12,0.052 -0.26,0.6293 -0.453,0.62 -0.167,-0.0107 -0.427,-0.464 -0.558,-0.4853 -0.213,-0.02 -0.192,0.5946 -0.374,0.5893 -0.468,-0.0107 -0.187,-2.708 0.01,-2.8493 0.287,-0.2134 1,-0.62 2.094,-0.3494 z"
     id="path719" />
  <path
     style="fill:#ca0369;fill-opacity:1;fill-rule:nonzero;stroke:none"
     d="m 280.90985,44.3226 c -2.547,-2.412 -3.37,-2.9374 -4.266,-3.6454 -4.536,-3.584 -5.609,-2.8653 -7.177,-1.052 -2.213,2.5667 -3.176,4.1867 1.964,7.8227 3.901,2.7546 6.401,5.364 6.401,5.364 0.886,1.6453 3.692,3.896 4.604,3.932 1.531,0.0573 1.235,-0.0054 2.547,-0.62 2.427,-1.1294 2.495,-2.328 2.203,-3.4787 -0.291,-1.1507 -0.864,-2.016 -2.651,-4.188 -1.375,-1.6866 -3.625,-4.1346 -3.625,-4.1346"
     id="path720" />
  <path
     style="fill:none;stroke:#231f20;stroke-width:0.565977;stroke-linecap:butt;stroke-linejoin:miter;stroke-miterlimit:4;stroke-dasharray:none;stroke-opacity:1"
     d="m 280.90985,44.3226 c -2.547,-2.412 -3.37,-2.9374 -4.266,-3.6454 -4.536,-3.584 -5.609,-2.8653 -7.177,-1.052 -2.213,2.5667 -3.176,4.1867 1.964,7.8227 3.901,2.7546 6.401,5.364 6.401,5.364 0.886,1.6453 3.692,3.896 4.604,3.932 1.531,0.0573 1.235,-0.0054 2.547,-0.62 2.427,-1.1294 2.495,-2.328 2.203,-3.4787 -0.291,-1.1507 -0.864,-2.016 -2.651,-4.188 -1.375,-1.6866 -3.625,-4.1346 -3.625,-4.1346 z"
     id="path721" />
  <path
     style="fill:#231f20;fill-opacity:1;fill-rule:nonzero;stroke:none"
     d="m 270.64985,78.5678 c -1.083,-0.8133 -0.807,-1.7667 0.052,-2.344 0.25,-0.172 0.297,-0.584 0.557,-0.74 0.615,-0.3386 2.271,0.1934 2.183,1.6933 -0.006,0.1094 0.192,0.9 0.249,1.52 0.1,1.204 -0.276,3.6724 -2.457,5.2564 -1.038,0.749 -1.287,0 -0.959,-0.434 1.041,-1.358 0.859,-1.681 1,-2.134 0.489,-1.5524 -0.625,-2.8177 -0.625,-2.8177"
     id="path722" />
  <path
     style="fill:none;stroke:#231f20;stroke-width:0.332927;stroke-linecap:butt;stroke-linejoin:miter;stroke-miterlimit:4;stroke-dasharray:none;stroke-opacity:1"
     d="m 270.64985,78.5678 c -1.083,-0.8133 -0.807,-1.7667 0.052,-2.344 0.25,-0.172 0.297,-0.584 0.557,-0.74 0.615,-0.3386 2.271,0.1934 2.183,1.6933 -0.006,0.1094 0.192,0.9 0.249,1.52 0.1,1.204 -0.276,3.6724 -2.457,5.2564 -1.038,0.749 -1.287,0 -0.959,-0.434 1.041,-1.358 0.859,-1.681 1,-2.134 0.489,-1.5524 -0.625,-2.8177 -0.625,-2.8177 z"
     id="path723" />
  <path
     style="fill:#231f20;fill-opacity:1;fill-rule:nonzero;stroke:none"
     d="m 272.10285,59.8745 c -2.251,-0.276 -2.724,-0.0266 -2.901,0.916 -0.126,0.6254 -0.448,1.168 -0.542,1.548 -0.302,1.26 -0.286,3.5053 1.412,9.864 0.386,1.448 0.911,3.4747 1.062,4.3226 0.234,1.328 2.292,0.032 2.209,-0.4893 -0.281,-1.692 -0.333,-2.88 -0.355,-3.5053 -0.01,-0.4267 -0.136,-1.1773 0.036,-2.8333 0.251,-2.5107 0.782,-3.9787 0.751,-6.0934 -0.016,-0.9786 0.599,-1.7346 0.093,-2.6933 -0.505,-0.9573 -1.765,-1.036 -1.765,-1.036"
     id="path724" />
  <path
     style="fill:none;stroke:#231f20;stroke-width:0.565977;stroke-linecap:butt;stroke-linejoin:miter;stroke-miterlimit:4;stroke-dasharray:none;stroke-opacity:1"
     d="m 272.10285,59.8745 c -2.251,-0.276 -2.724,-0.0266 -2.901,0.916 -0.126,0.6254 -0.448,1.168 -0.542,1.548 -0.302,1.26 -0.286,3.5053 1.412,9.864 0.386,1.448 0.911,3.4747 1.062,4.3226 0.234,1.328 2.292,0.032 2.209,-0.4893 -0.281,-1.692 -0.333,-2.88 -0.355,-3.5053 -0.01,-0.4267 -0.136,-1.1773 0.036,-2.8333 0.251,-2.5107 0.782,-3.9787 0.751,-6.0934 -0.016,-0.9786 0.599,-1.7346 0.093,-2.6933 -0.505,-0.9573 -1.765,-1.036 -1.765,-1.036 z"
     id="path725" />
  <path
     style="fill:#ffffff;fill-opacity:1;fill-rule:nonzero;stroke:none"
     d="m 283.01485,62.5879 c 0.036,0.2399 -1.011,0.7186 -0.824,1.2079 0.183,0.4907 0.964,0.4174 2.385,1.8134 l 0.022,0.0106 c 1,1.052 2.292,1.5614 3.5,1.224 2,-0.5573 3.005,-3.2146 2.25,-5.9333 -0.761,-2.724 -3,-4.4733 -5,-3.916 -1.917,0.536 -2.922,2.9947 -2.333,5.5934"
     id="path726" />
  <path
     style="fill:none;stroke:#231f20;stroke-width:0.565977;stroke-linecap:butt;stroke-linejoin:miter;stroke-miterlimit:4;stroke-dasharray:none;stroke-opacity:1"
     d="m 283.01485,62.5879 c 0.036,0.2399 -1.011,0.7186 -0.824,1.2079 0.183,0.4907 0.964,0.4174 2.385,1.8134 l 0.022,0.0106 c 1,1.052 2.292,1.5614 3.5,1.224 2,-0.5573 3.005,-3.2146 2.25,-5.9333 -0.761,-2.724 -3,-4.4733 -5,-3.916 -1.917,0.536 -2.922,2.9947 -2.333,5.5934 z"
     id="path727" />
  <path
     style="fill:#231f20;fill-opacity:1;fill-rule:nonzero;stroke:none"
     d="m 271.24285,62.1919 c 3.933,0.8186 2.891,-3.124 2.991,-3.5934 1.046,-4.9013 1,-5.2813 1.536,-9.0626 0.776,-5.468 0.473,-9.3387 -2.579,-10.7187 -2.072,-0.9426 -3.667,-0.5786 -4.615,0.3334 -1.052,1.0106 -2.061,4.0266 -0.238,6.2653 l 0.218,1.704 c 0,1.156 0.016,1.7333 -0.032,2.312 -0.077,1 -0.098,2.0733 -0.145,4.0253 -0.083,3.4747 0.979,7.172 0.979,7.172 0.005,1.24 1.885,1.5627 1.885,1.5627"
     id="path728" />
  <path
     style="fill:none;stroke:#231f20;stroke-width:0.565977;stroke-linecap:butt;stroke-linejoin:miter;stroke-miterlimit:4;stroke-dasharray:none;stroke-opacity:1"
     d="m 271.24285,62.1919 c 3.933,0.8186 2.891,-3.124 2.991,-3.5934 1.046,-4.9013 1,-5.2813 1.536,-9.0626 0.776,-5.468 0.473,-9.3387 -2.579,-10.7187 -2.072,-0.9426 -3.667,-0.5786 -4.615,0.3334 -1.052,1.0106 -2.061,4.0266 -0.238,6.2653 l 0.218,1.704 c 0,1.156 0.016,1.7333 -0.032,2.312 -0.077,1 -0.098,2.0733 -0.145,4.0253 -0.083,3.4747 0.979,7.172 0.979,7.172 0.005,1.24 1.885,1.5627 1.885,1.5627 z"
     id="path729" />
  <path
     style="fill:#ffffff;fill-opacity:1;fill-rule:nonzero;stroke:#231f20;stroke-width:0.665856;stroke-linecap:butt;stroke-linejoin:miter;stroke-miterlimit:4;stroke-dasharray:none;stroke-opacity:1"
     d="m 259.56685,16.104 0.063,31.6719 h 1.328 l -0.063,-31.6773 z"
     id="path730" />
  <path
     style="fill:#ffffff;fill-opacity:1;fill-rule:nonzero;stroke:none"
     d="m 256.02985,52.7185 c 0,-2.3546 1.906,-4.2706 4.261,-4.2759 2.353,-0.0054 4.276,1.9053 4.281,4.2599 0.004,2.3494 -1.912,4.2707 -4.266,4.276 -2.348,0.0054 -4.271,-1.9066 -4.276,-4.26 m -1.328,0.0054 c 0.005,3.0826 2.521,5.5933 5.609,5.588 3.089,-0.0054 5.599,-2.5254 5.589,-5.6147 -0.005,-3.088 -2.521,-5.5933 -5.609,-5.588 -3.089,0.0054 -5.595,2.5253 -5.589,5.6147"
     id="path731" />
  <path
     style="fill:none;stroke:#231f20;stroke-width:0.665856;stroke-linecap:butt;stroke-linejoin:miter;stroke-miterlimit:4;stroke-dasharray:none;stroke-opacity:1"
     d="m 256.02985,52.7185 c 0,-2.3546 1.906,-4.2706 4.261,-4.2759 2.353,-0.0054 4.276,1.9053 4.281,4.2599 0.004,2.3494 -1.912,4.2707 -4.266,4.276 -2.348,0.0054 -4.271,-1.9066 -4.276,-4.26 z m -1.328,0.0054 c 0.005,3.0826 2.521,5.5933 5.609,5.588 3.089,-0.0054 5.599,-2.5254 5.589,-5.6147 -0.005,-3.088 -2.521,-5.5933 -5.609,-5.588 -3.089,0.0054 -5.595,2.5253 -5.589,5.6147 z"
     id="path732" />
  <path
     style="fill:#231f20;fill-opacity:1;fill-rule:nonzero;stroke:none"
     d="m 265.21185,54.7079 c 0.516,-0.396 2.454,-0.276 3.974,-0.8027 1.026,-0.348 3.761,-0.1093 4.761,-0.536 0.905,-0.3907 1.364,-0.484 1.989,0.484 0.375,0.5733 0.719,1.9173 0.307,2.2147 -0.973,0.6866 -1.891,0.9 -2.963,0.9053 -1.213,0.016 -4.521,-0.244 -5.12,-0.348 -1.5,-0.2613 -2.145,0.0827 -2.552,0.056 -0.76,-0.0613 -0.922,-0.364 -0.994,-0.864 -0.126,-0.9533 0.598,-1.1093 0.598,-1.1093"
     id="path733" />
  <path
     style="fill:none;stroke:#231f20;stroke-width:0.565977;stroke-linecap:butt;stroke-linejoin:miter;stroke-miterlimit:4;stroke-dasharray:none;stroke-opacity:1"
     d="m 265.21185,54.7079 c 0.516,-0.396 2.454,-0.276 3.974,-0.8027 1.026,-0.348 3.761,-0.1093 4.761,-0.536 0.905,-0.3907 1.364,-0.484 1.989,0.484 0.375,0.5733 0.719,1.9173 0.307,2.2147 -0.973,0.6866 -1.891,0.9 -2.963,0.9053 -1.213,0.016 -4.521,-0.244 -5.12,-0.348 -1.5,-0.2613 -2.145,0.0827 -2.552,0.056 -0.76,-0.0613 -0.922,-0.364 -0.994,-0.864 -0.126,-0.9533 0.598,-1.1093 0.598,-1.1093 z"
     id="path734" />
  <path
     style="fill:#231f20;fill-opacity:1;fill-rule:nonzero;stroke:none"
     d="m 273.25385,54.3692 c -0.214,-1.276 1.822,-1.2453 2.36,-1.3173 0.541,-0.0787 2.046,-0.4587 3.181,-0.9067 1.141,-0.4533 2.756,-0.5253 4.923,-1.3693 1.134,-0.4534 2.525,-0.1667 3.104,1.5106 0.568,1.6614 -0.146,2.6094 -1.604,2.9427 -1.459,0.3333 -2.975,0.0307 -4.464,0.2653 -1.49,0.2294 -2.995,0.604 -4.156,0.9587 -1.323,0.4 -2.126,0.104 -2.432,-0.2613 -0.766,-0.916 -0.912,-1.8227 -0.912,-1.8227"
     id="path735" />
  <path
     style="fill:none;stroke:#231f20;stroke-width:0.565977;stroke-linecap:butt;stroke-linejoin:miter;stroke-miterlimit:4;stroke-dasharray:none;stroke-opacity:1"
     d="m 273.25385,54.3692 c -0.214,-1.276 1.822,-1.2453 2.36,-1.3173 0.541,-0.0787 2.046,-0.4587 3.181,-0.9067 1.141,-0.4533 2.756,-0.5253 4.923,-1.3693 1.134,-0.4534 2.525,-0.1667 3.104,1.5106 0.568,1.6614 -0.146,2.6094 -1.604,2.9427 -1.459,0.3333 -2.975,0.0307 -4.464,0.2653 -1.49,0.2294 -2.995,0.604 -4.156,0.9587 -1.323,0.4 -2.126,0.104 -2.432,-0.2613 -0.766,-0.916 -0.912,-1.8227 -0.912,-1.8227 z"
     id="path736" />
  <path
     style="fill:#231f20;fill-opacity:1;fill-rule:nonzero;stroke:none"
     d="m 265.05085,56.6665 c -0.563,0.4107 -2.625,-0.6413 -2.579,-0.9586 0.043,-0.312 0.688,0.104 0.751,-0.2454 0.068,-0.348 -0.385,-0.5573 -0.287,-0.76 0.115,-0.2293 0.62,0.104 0.698,-0.188 0.037,-0.124 -0.307,-0.604 -0.182,-0.744 0.115,-0.12 0.63,-0.0266 0.73,-0.1146 0.156,-0.1454 -0.324,-0.5267 -0.204,-0.6667 0.308,-0.344 2.182,1.6147 2.166,1.8547 -0.025,0.3533 -0.177,1.1613 -1.093,1.8226"
     id="path737" />
  <path
     style="fill:none;stroke:#231f20;stroke-width:0.565977;stroke-linecap:round;stroke-linejoin:round;stroke-miterlimit:4;stroke-dasharray:none;stroke-opacity:1"
     d="m 265.05085,56.6665 c -0.563,0.4107 -2.625,-0.6413 -2.579,-0.9586 0.043,-0.312 0.688,0.104 0.751,-0.2454 0.068,-0.348 -0.385,-0.5573 -0.287,-0.76 0.115,-0.2293 0.62,0.104 0.698,-0.188 0.037,-0.124 -0.307,-0.604 -0.182,-0.744 0.115,-0.12 0.63,-0.0266 0.73,-0.1146 0.156,-0.1454 -0.324,-0.5267 -0.204,-0.6667 0.308,-0.344 2.182,1.6147 2.166,1.8547 -0.025,0.3533 -0.177,1.1613 -1.093,1.8226 z"
     id="path738" />
  <path
     style="fill:#ca0369;fill-opacity:1;fill-rule:nonzero;stroke:none"
     d="m 273.00985,38.6452 c -2.104,-0.8586 -3.688,-0.448 -4.6,0.5 -1.01,1.0574 -1.911,4.104 -0.01,6.2707 l 7.796,0.604 c 0.058,-3.76 -0.738,-6.3747 -3.186,-7.3747"
     id="path739" />
  <path
     style="fill:none;stroke:#231f20;stroke-width:0.565977;stroke-linecap:butt;stroke-linejoin:miter;stroke-miterlimit:4;stroke-dasharray:none;stroke-opacity:1"
     d="m 273.00985,38.6452 c -2.104,-0.8586 -3.688,-0.448 -4.6,0.5 -1.01,1.0574 -1.911,4.104 -0.01,6.2707 l 7.796,0.604 c 0.058,-3.76 -0.738,-6.3747 -3.186,-7.3747 z"
     id="path740" />
  <path
     style="fill:none;stroke:#918f8f;stroke-width:1.33171;stroke-linecap:butt;stroke-linejoin:miter;stroke-miterlimit:4;stroke-dasharray:none;stroke-opacity:1"
     d="M 0.66585499,0 V 168.5405"
     id="path1337" />
</svg>
