<?xml version="1.0" encoding="UTF-8" standalone="no"?>
<!-- Created with Inkscape (http://www.inkscape.org/) -->

<svg
   version="1.1"
   id="svg1"
   width="337.23831"
   height="120.57561"
   viewBox="0 0 337.23829 120.57561"
   sodipodi:docname="cell.svg"
   xmlns:inkscape="http://www.inkscape.org/namespaces/inkscape"
   xmlns:sodipodi="http://sodipodi.sourceforge.net/DTD/sodipodi-0.dtd"
   xmlns="http://www.w3.org/2000/svg"
   xmlns:svg="http://www.w3.org/2000/svg">
  <sodipodi:namedview
     id="namedview1"
     pagecolor="#ffffff"
     bordercolor="#000000"
     borderopacity="0.25"
     inkscape:showpageshadow="2"
     inkscape:pageopacity="0.0"
     inkscape:pagecheckerboard="0"
     inkscape:deskcolor="#d1d1d1">
    <inkscape:page
       x="1.2654534e-07"
       y="8.7796395e-14"
       inkscape:label="1"
       id="page1"
       width="337.23828"
       height="120.57561"
       margin="0"
       bleed="0" />
  </sodipodi:namedview>
  <defs
     id="defs1" />
  <path
     style="fill:#ffffff;fill-opacity:1;fill-rule:nonzero;stroke:#231f20;stroke-width:0.665856;stroke-linecap:butt;stroke-linejoin:miter;stroke-miterlimit:4;stroke-dasharray:none;stroke-opacity:1"
     d="m 100.50858,0.415928 -5.374001,31.213 1.312,0.229 5.369001,-31.213 z"
     id="path459" />
  <path
     style="fill:#ffffff;fill-opacity:1;fill-rule:nonzero;stroke:none"
     d="m 90.747579,35.884928 c 0.396,-2.319 2.609,-3.881 4.928,-3.485 2.323,0.401 3.885,2.614 3.484,4.933 -0.396,2.317 -2.615,3.885 -4.932,3.484 -2.317,-0.401 -3.88,-2.615 -3.48,-4.932 m -1.312,-0.224 c -0.525,3.041 1.527,5.943 4.568,6.468 3.041,0.521 5.943,-1.525 6.468001,-4.572 0.527,-3.043 -1.525001,-5.944 -4.567001,-6.469 -3.048,-0.522 -5.948,1.525 -6.469,4.573"
     id="path460" />
  <path
     style="fill:none;stroke:#231f20;stroke-width:0.665856;stroke-linecap:butt;stroke-linejoin:miter;stroke-miterlimit:4;stroke-dasharray:none;stroke-opacity:1"
     d="m 90.747579,35.884928 c 0.396,-2.319 2.609,-3.881 4.928,-3.485 2.323,0.401 3.885,2.614 3.484,4.933 -0.396,2.317 -2.615,3.885 -4.932,3.484 -2.317,-0.401 -3.88,-2.615 -3.48,-4.932 z m -1.312,-0.224 c -0.525,3.041 1.527,5.943 4.568,6.468 3.041,0.521 5.943,-1.525 6.468001,-4.572 0.527,-3.043 -1.525001,-5.944 -4.567001,-6.469 -3.048,-0.522 -5.948,1.525 -6.469,4.573 z"
     id="path461" />
  <path
     style="fill:#ffffff;fill-opacity:1;fill-rule:nonzero;stroke:#231f20;stroke-width:0.665856;stroke-linecap:butt;stroke-linejoin:miter;stroke-miterlimit:4;stroke-dasharray:none;stroke-opacity:1"
     d="m 75.336579,0.639928 3.151,31.521 1.323,-0.136 -3.146,-31.516 z"
     id="path462" />
  <path
     style="fill:#ffffff;fill-opacity:1;fill-rule:nonzero;stroke:none"
     d="m 79.148579,32.477928 c 2.35,-0.136 4.371,1.672 4.5,4.022 0.131,2.348 -1.672,4.369 -4.02,4.5 -2.349,0.134 -4.37,-1.672 -4.505,-4.022 -0.131,-2.349 1.672,-4.369 4.025,-4.5 m -0.077,-1.328 c -3.084,0.172 -5.448,2.823 -5.276,5.906 0.171,3.084 2.823,5.448 5.905,5.277 3.085,-0.177 5.454,-2.824 5.276,-5.907 -0.172,-3.084 -2.822,-5.453 -5.905,-5.276"
     id="path463" />
  <path
     style="fill:none;stroke:#231f20;stroke-width:0.665856;stroke-linecap:butt;stroke-linejoin:miter;stroke-miterlimit:4;stroke-dasharray:none;stroke-opacity:1"
     d="m 79.148579,32.477928 c 2.35,-0.136 4.371,1.672 4.5,4.022 0.131,2.348 -1.672,4.369 -4.02,4.5 -2.349,0.134 -4.37,-1.672 -4.505,-4.022 -0.131,-2.349 1.672,-4.369 4.025,-4.5 z m -0.077,-1.328 c -3.084,0.172 -5.448,2.823 -5.276,5.906 0.171,3.084 2.823,5.448 5.905,5.277 3.085,-0.177 5.454,-2.824 5.276,-5.907 -0.172,-3.084 -2.822,-5.453 -5.905,-5.276 z"
     id="path464" />
  <path
     style="fill:#ffffff;fill-opacity:1;fill-rule:nonzero;stroke:#231f20;stroke-width:0.665856;stroke-linecap:butt;stroke-linejoin:miter;stroke-miterlimit:4;stroke-dasharray:none;stroke-opacity:1"
     d="m 113.25258,0.639928 -3.145,31.521 -1.323,-0.136 3.146,-31.516 z"
     id="path465" />
  <path
     style="fill:#ffffff;fill-opacity:1;fill-rule:nonzero;stroke:none"
     d="m 112.74358,39.180928 c -1.329,1.948 -3.991,2.448 -5.933,1.125 -1.943,-1.328 -2.448,-3.989 -1.12,-5.937 1.324,-1.943 3.985,-2.443 5.928,-1.12 1.948,1.328 2.448,3.989 1.125,5.932 m -8.157,-5.563 c -1.739,2.552 -1.078,6.048 1.474,7.787 2.547,1.74 6.042,1.079 7.782,-1.473 1.738,-2.547 1.082,-6.042 -1.47,-7.782 -2.552,-1.74 -6.041,-1.078 -7.786,1.468"
     id="path466" />
  <path
     style="fill:none;stroke:#231f20;stroke-width:0.665856;stroke-linecap:butt;stroke-linejoin:miter;stroke-miterlimit:4;stroke-dasharray:none;stroke-opacity:1"
     d="m 112.74358,39.180928 c -1.329,1.948 -3.991,2.448 -5.933,1.125 -1.943,-1.328 -2.448,-3.989 -1.12,-5.937 1.324,-1.943 3.985,-2.443 5.928,-1.12 1.948,1.328 2.448,3.989 1.125,5.932 z m -8.157,-5.563 c -1.739,2.552 -1.078,6.048 1.474,7.787 2.547,1.74 6.042,1.079 7.782,-1.473 1.738,-2.547 1.082,-6.042 -1.47,-7.782 -2.552,-1.74 -6.041,-1.078 -7.786,1.468 z"
     id="path467" />
  <path
     style="fill:#231f20;fill-opacity:1;fill-rule:nonzero;stroke:none"
     d="m 78.476579,114.73793 c 1.188,-0.645 1.058,-1.629 0.287,-2.322 -0.224,-0.208 -0.208,-0.626 -0.448,-0.812 -0.563,-0.428 -2.281,-0.131 -2.401,1.358 -0.01,0.109 -0.317,0.866 -0.463,1.47 -0.276,1.181 -0.256,3.677 1.683,5.551 0.916,0.891 1.27,0.187 1.004,-0.286 -0.828,-1.495 -0.61,-1.792 -0.681,-2.26 -0.262,-1.604 1.019,-2.699 1.019,-2.699"
     id="path468" />
  <path
     style="fill:none;stroke:#231f20;stroke-width:0.332927;stroke-linecap:butt;stroke-linejoin:miter;stroke-miterlimit:4;stroke-dasharray:none;stroke-opacity:1"
     d="m 78.476579,114.73793 c 1.188,-0.645 1.058,-1.629 0.287,-2.322 -0.224,-0.208 -0.208,-0.626 -0.448,-0.812 -0.563,-0.428 -2.281,-0.131 -2.401,1.358 -0.01,0.109 -0.317,0.866 -0.463,1.47 -0.276,1.181 -0.256,3.677 1.683,5.551 0.916,0.891 1.27,0.187 1.004,-0.286 -0.828,-1.495 -0.61,-1.792 -0.681,-2.26 -0.262,-1.604 1.019,-2.699 1.019,-2.699 z"
     id="path469" />
  <path
     style="fill:#231f20;fill-opacity:1;fill-rule:nonzero;stroke:none"
     d="m 79.716579,96.029928 c 2.26,0.052 2.698,0.364 2.741,1.323 0.03,0.636 0.27,1.218 0.306,1.604 0.12,1.297002 -0.213,3.516002 -2.801,9.568002 -0.589,1.374 -1.402,3.308 -1.667,4.12 -0.428,1.292 -2.281,-0.287 -2.12,-0.798 0.52,-1.634 0.744,-2.801 0.848,-3.41 0.074,-0.423 0.303,-1.152 0.376,-2.814 0.104,-2.525 -0.209,-4.052 0.129,-6.140002 0.152,-0.974 -0.348,-1.802 0.293,-2.677 0.636,-0.874 1.895,-0.776 1.895,-0.776"
     id="path470" />
  <path
     style="fill:none;stroke:#231f20;stroke-width:0.565977;stroke-linecap:butt;stroke-linejoin:miter;stroke-miterlimit:4;stroke-dasharray:none;stroke-opacity:1"
     d="m 79.716579,96.029928 c 2.26,0.052 2.698,0.364 2.741,1.323 0.03,0.636 0.27,1.218 0.306,1.604 0.12,1.297002 -0.213,3.516002 -2.801,9.568002 -0.589,1.374 -1.402,3.308 -1.667,4.12 -0.428,1.292 -2.281,-0.287 -2.12,-0.798 0.52,-1.634 0.744,-2.801 0.848,-3.41 0.074,-0.423 0.303,-1.152 0.376,-2.814 0.104,-2.525 -0.209,-4.052 0.129,-6.140002 0.152,-0.974 -0.348,-1.802 0.293,-2.677 0.636,-0.874 1.895,-0.776 1.895,-0.776 z"
     id="path471" />
  <path
     style="fill:#ca0369;fill-opacity:1;fill-rule:nonzero;stroke:none"
     d="m 86.747579,71.003928 c -0.552,3.089 -0.328,3.808 -0.124,4.704 1.301,5.634 -1.489,6.166 -4.188,5.15 -3.177,-1.182 -4.338,-1.546 -2.65,-7.614 0.473,-1.683 1.431,-8.386 1.431,-8.386 0.022,-2.448 1.344,-4.828 2.677,-5.421 1.402,-0.62 0.892,-0.271 2.293,-0.615 1.337,-0.328 3.432,0.307 3.926,1.443 0.474,1.088 -0.5,2.437 -1.645,4.572 -0.907,1.688 -1.72,6.167 -1.72,6.167"
     id="path472" />
  <path
     style="fill:none;stroke:#231f20;stroke-width:0.565977;stroke-linecap:butt;stroke-linejoin:miter;stroke-miterlimit:4;stroke-dasharray:none;stroke-opacity:1"
     d="m 86.747579,71.003928 c -0.552,3.089 -0.328,3.808 -0.124,4.704 1.301,5.634 -1.489,6.166 -4.188,5.15 -3.177,-1.182 -4.338,-1.546 -2.65,-7.614 0.473,-1.683 1.431,-8.386 1.431,-8.386 0.022,-2.448 1.344,-4.828 2.677,-5.421 1.402,-0.62 0.892,-0.271 2.293,-0.615 1.337,-0.328 3.432,0.307 3.926,1.443 0.474,1.088 -0.5,2.437 -1.645,4.572 -0.907,1.688 -1.72,6.167 -1.72,6.167 z"
     id="path473" />
  <path
     style="fill:#ffffff;fill-opacity:1;fill-rule:nonzero;stroke:none"
     d="m 86.023579,52.409928 c 0.027,-0.24 -1.042,-0.672 -0.88,-1.166 0.161,-0.506 0.948,-0.464 2.308,-1.916 l 0.011,-0.016 c 0.957,-1.094 2.228,-1.656 3.448,-1.375 2.025,0.468 3.145,3.083 2.504,5.833 -0.64,2.75 -2.796,4.599 -4.817,4.124 -1.938,-0.448 -3.047,-2.858 -2.574,-5.484"
     id="path474" />
  <path
     style="fill:none;stroke:#231f20;stroke-width:0.565977;stroke-linecap:butt;stroke-linejoin:miter;stroke-miterlimit:4;stroke-dasharray:none;stroke-opacity:1"
     d="m 86.023579,52.409928 c 0.027,-0.24 -1.042,-0.672 -0.88,-1.166 0.161,-0.506 0.948,-0.464 2.308,-1.916 l 0.011,-0.016 c 0.957,-1.094 2.228,-1.656 3.448,-1.375 2.025,0.468 3.145,3.083 2.504,5.833 -0.64,2.75 -2.796,4.599 -4.817,4.124 -1.938,-0.448 -3.047,-2.858 -2.574,-5.484 z"
     id="path475" />
  <path
     style="fill:#231f20;fill-opacity:1;fill-rule:nonzero;stroke:none"
     d="m 80.227579,98.445928 c -4,0.251 -2.412,-3.504 -2.442,-3.978 -0.339,-5 -0.235,-5.37 -0.225,-9.188 0.016,-5.531 0.87,-9.312 4.088,-10.244 2.188,-0.631 3.714,-0.052 4.521,0.989 0.897,1.151 1.464,4.281 -0.66,6.234 l -0.464,1.651 c -0.167,1.151 -0.255,1.719 -0.298,2.292 -0.061,1.005 -0.197,2.068 -0.432,4.011 -0.416,3.448 -1.994,6.953 -1.994,6.953 -0.178,1.233 -2.094,1.28 -2.094,1.28"
     id="path476" />
  <path
     style="fill:none;stroke:#231f20;stroke-width:0.565977;stroke-linecap:butt;stroke-linejoin:miter;stroke-miterlimit:4;stroke-dasharray:none;stroke-opacity:1"
     d="m 80.227579,98.445928 c -4,0.251 -2.412,-3.504 -2.442,-3.978 -0.339,-5 -0.235,-5.37 -0.225,-9.188 0.016,-5.531 0.87,-9.312 4.088,-10.244 2.188,-0.631 3.714,-0.052 4.521,0.989 0.897,1.151 1.464,4.281 -0.66,6.234 l -0.464,1.651 c -0.167,1.151 -0.255,1.719 -0.298,2.292 -0.061,1.005 -0.197,2.068 -0.432,4.011 -0.416,3.448 -1.994,6.953 -1.994,6.953 -0.178,1.233 -2.094,1.28 -2.094,1.28 z"
     id="path477" />
  <path
     style="fill:#ca0369;fill-opacity:1;fill-rule:nonzero;stroke:none"
     d="m 86.169579,76.024928 c -0.802,-1.041 -2.338,-1.625 -4.521,-0.989 -1.415,0.406 -2.358,1.385 -2.989,2.801 -0.625,0.833 -0.979,1.36 -0.749,2.136 0.02,0.068 0.036,0.145 0.047,0.224 -0.11,0.579 -0.199,1.177 -0.262,1.833 l 7.814,0.229 c 2.124,-1.953 1.557,-5.083 0.66,-6.234"
     id="path478" />
  <path
     style="fill:none;stroke:#231f20;stroke-width:0.565977;stroke-linecap:butt;stroke-linejoin:miter;stroke-miterlimit:4;stroke-dasharray:none;stroke-opacity:1"
     d="m 86.169579,76.024928 c -0.802,-1.041 -2.338,-1.625 -4.521,-0.989 -1.415,0.406 -2.358,1.385 -2.989,2.801 -0.625,0.833 -0.979,1.36 -0.749,2.136 0.02,0.068 0.036,0.145 0.047,0.224 -0.11,0.579 -0.199,1.177 -0.262,1.833 l 7.814,0.229 c 2.124,-1.953 1.557,-5.083 0.66,-6.234 z"
     id="path479" />
  <path
     style="fill:#231f20;fill-opacity:1;fill-rule:nonzero;stroke:none"
     d="m 92.779579,41.893928 c -0.516,0.391 -0.917,2.292 -1.828,3.62 -0.615,0.891 -1.115,3.595 -1.792,4.438 -0.62,0.776 -0.833,1.188 -0.073,2.052 0.453,0.51 1.657,1.204 2.052,0.881 0.928,-0.745 1.376,-1.579 1.672,-2.605 0.333,-1.167 0.969,-4.416 1.032,-5.026 0.145,-1.521 0.661,-2.046 0.738,-2.448 0.147,-0.745 -0.109,-0.989 -0.566,-1.188 -0.88,-0.374 -1.235,0.276 -1.235,0.276"
     id="path480" />
  <path
     style="fill:none;stroke:#231f20;stroke-width:0.565977;stroke-linecap:butt;stroke-linejoin:miter;stroke-miterlimit:4;stroke-dasharray:none;stroke-opacity:1"
     d="m 92.779579,41.893928 c -0.516,0.391 -0.917,2.292 -1.828,3.62 -0.615,0.891 -1.115,3.595 -1.792,4.438 -0.62,0.776 -0.833,1.188 -0.073,2.052 0.453,0.51 1.657,1.204 2.052,0.881 0.928,-0.745 1.376,-1.579 1.672,-2.605 0.333,-1.167 0.969,-4.416 1.032,-5.026 0.145,-1.521 0.661,-2.046 0.738,-2.448 0.147,-0.745 -0.109,-0.989 -0.566,-1.188 -0.88,-0.374 -1.235,0.276 -1.235,0.276 z"
     id="path481" />
  <path
     style="fill:#231f20;fill-opacity:1;fill-rule:nonzero;stroke:none"
     d="m 89.659579,50.399928 c -1.255,-0.307 -1.369,1.724 -1.484,2.25 -0.115,0.536 -0.609,2.011 -1.141,3.11 -0.531,1.104 -0.73,2.708 -1.735,4.801 -0.536,1.105 -0.353,2.511 1.281,3.215 1.61,0.692 2.61,0.046 3.048,-1.387 0.443,-1.427 0.255,-2.957 0.599,-4.432 0.344,-1.473 0.828,-2.937 1.265,-4.072 0.495,-1.287 0.26,-2.109 -0.078,-2.443 -0.859,-0.833 -1.755,-1.042 -1.755,-1.042"
     id="path482" />
  <path
     style="fill:none;stroke:#231f20;stroke-width:0.565977;stroke-linecap:butt;stroke-linejoin:miter;stroke-miterlimit:4;stroke-dasharray:none;stroke-opacity:1"
     d="m 89.659579,50.399928 c -1.255,-0.307 -1.369,1.724 -1.484,2.25 -0.115,0.536 -0.609,2.011 -1.141,3.11 -0.531,1.104 -0.73,2.708 -1.735,4.801 -0.536,1.105 -0.353,2.511 1.281,3.215 1.61,0.692 2.61,0.046 3.048,-1.387 0.443,-1.427 0.255,-2.957 0.599,-4.432 0.344,-1.473 0.828,-2.937 1.265,-4.072 0.495,-1.287 0.26,-2.109 -0.078,-2.443 -0.859,-0.833 -1.755,-1.042 -1.755,-1.042 z"
     id="path483" />
  <path
     style="fill:#231f20;fill-opacity:1;fill-rule:nonzero;stroke:none"
     d="m 93.154579,41.748928 c -0.407,-0.573 0.661,-2.625 0.98,-2.579 0.317,0.054 -0.115,0.688 0.239,0.762 0.349,0.068 0.562,-0.386 0.765,-0.287 0.224,0.115 -0.115,0.62 0.182,0.703 0.12,0.032 0.604,-0.312 0.746,-0.178 0.114,0.115 0.014,0.631 0.109,0.73 0.145,0.156 0.525,-0.323 0.661,-0.203 0.35,0.312 -1.625,2.177 -1.865,2.156 -0.353,-0.031 -1.161,-0.187 -1.817,-1.104"
     id="path484" />
  <path
     style="fill:none;stroke:#231f20;stroke-width:0.565977;stroke-linecap:round;stroke-linejoin:round;stroke-miterlimit:4;stroke-dasharray:none;stroke-opacity:1"
     d="m 93.154579,41.748928 c -0.407,-0.573 0.661,-2.625 0.98,-2.579 0.317,0.054 -0.115,0.688 0.239,0.762 0.349,0.068 0.562,-0.386 0.765,-0.287 0.224,0.115 -0.115,0.62 0.182,0.703 0.12,0.032 0.604,-0.312 0.746,-0.178 0.114,0.115 0.014,0.631 0.109,0.73 0.145,0.156 0.525,-0.323 0.661,-0.203 0.35,0.312 -1.625,2.177 -1.865,2.156 -0.353,-0.031 -1.161,-0.187 -1.817,-1.104 z"
     id="path485" />
  <path
     style="fill:#231f20;fill-opacity:1;fill-rule:nonzero;stroke:none"
     d="m 4.9411794,19.936928 c 0.0052,1.353 0.9426,1.697 1.912,1.348 0.2905,-0.104 0.6504,0.104 0.9322,-0.02 0.6344,-0.292 1.1864,-1.948 -0.0786,-2.756 -0.088,-0.057 -0.6094,-0.687 -1.0776,-1.093 -0.912,-0.803 -3.1256,-1.959 -5.69320002,-1.131 -1.2136,0.391 -0.76,1.032 -0.2136,1.027 1.70270002,-0.032 1.86410002,0.301 2.31200002,0.453 1.5426,0.525 1.9068,2.172 1.9068,2.172"
     id="path486" />
  <path
     style="fill:none;stroke:#231f20;stroke-width:0.332927;stroke-linecap:butt;stroke-linejoin:miter;stroke-miterlimit:4;stroke-dasharray:none;stroke-opacity:1"
     d="m 4.9411794,19.936928 c 0.0052,1.353 0.9426,1.697 1.912,1.348 0.2905,-0.104 0.6504,0.104 0.9322,-0.02 0.6344,-0.292 1.1864,-1.948 -0.0786,-2.756 -0.088,-0.057 -0.6094,-0.687 -1.0776,-1.093 -0.912,-0.803 -3.1256,-1.959 -5.69320002,-1.131 -1.2136,0.391 -0.76,1.032 -0.2136,1.027 1.70270002,-0.032 1.86410002,0.301 2.31200002,0.453 1.5426,0.525 1.9068,2.172 1.9068,2.172 z"
     id="path487" />
  <path
     style="fill:#231f20;fill-opacity:1;fill-rule:nonzero;stroke:none"
     d="m 20.873379,29.816928 c -1.1093,1.973 -1.588,2.213 -2.4536,1.796 -0.5772,-0.271 -1.2079,-0.333 -1.5667,-0.479 -1.1933,-0.5 -2.9958,-1.844 -7.1306996,-6.968 -0.9318,-1.162 -2.2547,-2.792 -2.849,-3.412 -0.9374,-0.978 1.3224,-1.869 1.6984,-1.494 1.1975,1.224 2.1239996,1.973 2.6146996,2.353 0.3375,0.267 0.8744,0.808 2.3067,1.652 2.177,1.281 3.6718,1.729 5.3599,3.005 0.7854,0.588 1.7495,0.536 2.2239,1.506 0.4787,0.978 -0.2036,2.041 -0.2036,2.041"
     id="path488" />
  <path
     style="fill:none;stroke:#231f20;stroke-width:0.565977;stroke-linecap:butt;stroke-linejoin:miter;stroke-miterlimit:4;stroke-dasharray:none;stroke-opacity:1"
     d="m 20.873379,29.816928 c -1.1093,1.973 -1.588,2.213 -2.4536,1.796 -0.5772,-0.271 -1.2079,-0.333 -1.5667,-0.479 -1.1933,-0.5 -2.9958,-1.844 -7.1306996,-6.968 -0.9318,-1.162 -2.2547,-2.792 -2.849,-3.412 -0.9374,-0.978 1.3224,-1.869 1.6984,-1.494 1.1975,1.224 2.1239996,1.973 2.6146996,2.353 0.3375,0.267 0.8744,0.808 2.3067,1.652 2.177,1.281 3.6718,1.729 5.3599,3.005 0.7854,0.588 1.7495,0.536 2.2239,1.506 0.4787,0.978 -0.2036,2.041 -0.2036,2.041 z"
     id="path489" />
  <path
     style="fill:#ca0369;fill-opacity:1;fill-rule:nonzero;stroke:none"
     d="m 42.785379,43.445928 c -3.1308,-0.041 -3.8032,0.298 -4.6563,0.652 -5.3437,2.208 -6.3281,-0.458 -5.7719,-3.286 0.652,-3.334 0.8187,-4.536 7.0787,-3.866 1.74,0.188 8.5104,0.032 8.5104,0.032 2.4161,-0.38 4.9786,0.536 5.7812,1.75 0.8494,1.281 0.4161,0.833 0.9844,2.166 0.5412,1.262 0.2598,3.434 -0.776,4.106 -0.9948,0.645 -2.4896,-0.09 -4.7871,-0.871 -1.8063,-0.615 -6.3634,-0.683 -6.3634,-0.683"
     id="path490" />
  <path
     style="fill:none;stroke:#231f20;stroke-width:0.565977;stroke-linecap:butt;stroke-linejoin:miter;stroke-miterlimit:4;stroke-dasharray:none;stroke-opacity:1"
     d="m 42.785379,43.445928 c -3.1308,-0.041 -3.8032,0.298 -4.6563,0.652 -5.3437,2.208 -6.3281,-0.458 -5.7719,-3.286 0.652,-3.334 0.8187,-4.536 7.0787,-3.866 1.74,0.188 8.5104,0.032 8.5104,0.032 2.4161,-0.38 4.9786,0.536 5.7812,1.75 0.8494,1.281 0.4161,0.833 0.9844,2.166 0.5412,1.262 0.2598,3.434 -0.776,4.106 -0.9948,0.645 -2.4896,-0.09 -4.7871,-0.871 -1.8063,-0.615 -6.3634,-0.683 -6.3634,-0.683 z"
     id="path491" />
  <path
     style="fill:#ffffff;fill-opacity:1;fill-rule:nonzero;stroke:none"
     d="m 60.195679,36.399928 c 0.2187,-0.099 0.0735,-1.239 0.5839,-1.344 0.5109,-0.11 0.864,0.594 2.8014,1.053 l 0.0215,0.004 c 1.4265,0.287 2.5463,1.111 2.9009,2.313 0.5991,1.99 -1.1197,4.26 -3.8224,5.068 -2.7041,0.807 -5.3812,-0.152 -5.9744,-2.141 -0.5723,-1.901 0.9798,-4.068 3.4891,-4.953"
     id="path492" />
  <path
     style="fill:none;stroke:#231f20;stroke-width:0.565977;stroke-linecap:butt;stroke-linejoin:miter;stroke-miterlimit:4;stroke-dasharray:none;stroke-opacity:1"
     d="m 60.195679,36.399928 c 0.2187,-0.099 0.0735,-1.239 0.5839,-1.344 0.5109,-0.11 0.864,0.594 2.8014,1.053 l 0.0215,0.004 c 1.4265,0.287 2.5463,1.111 2.9009,2.313 0.5991,1.99 -1.1197,4.26 -3.8224,5.068 -2.7041,0.807 -5.3812,-0.152 -5.9744,-2.141 -0.5723,-1.901 0.9798,-4.068 3.4891,-4.953 z"
     id="path493" />
  <path
     style="fill:#231f20;fill-opacity:1;fill-rule:nonzero;stroke:none"
     d="m 18.498279,29.133928 c 1.6615,-3.65 4.224,-0.478 4.6615,-0.286 4.5735,2.052 4.8495,2.313 8.2188,4.12 4.8745,2.604 7.812,5.141 7.1197,8.417 -0.464,2.224 -1.6973,3.301 -2.9948,3.525 -1.4369,0.251 -4.4692,-0.718 -5.1984,-3.51 l -1.2333,-1.187 c -0.9375,-0.683 -1.3959,-1.037 -1.8907,-1.339 -0.8494,-0.521 -1.729,-1.146 -3.3333,-2.265 -2.8443,-1.985 -5.2041,-5.027 -5.2041,-5.027 -1.0052,-0.734 -0.1454,-2.448 -0.1454,-2.448"
     id="path494" />
  <path
     style="fill:none;stroke:#231f20;stroke-width:0.565977;stroke-linecap:butt;stroke-linejoin:miter;stroke-miterlimit:4;stroke-dasharray:none;stroke-opacity:1"
     d="m 18.498279,29.133928 c 1.6615,-3.65 4.224,-0.478 4.6615,-0.286 4.5735,2.052 4.8495,2.313 8.2188,4.12 4.8745,2.604 7.812,5.141 7.1197,8.417 -0.464,2.224 -1.6973,3.301 -2.9948,3.525 -1.4369,0.251 -4.4692,-0.718 -5.1984,-3.51 l -1.2333,-1.187 c -0.9375,-0.683 -1.3959,-1.037 -1.8907,-1.339 -0.8494,-0.521 -1.729,-1.146 -3.3333,-2.265 -2.8443,-1.985 -5.2041,-5.027 -5.2041,-5.027 -1.0052,-0.734 -0.1454,-2.448 -0.1454,-2.448 z"
     id="path495" />
  <path
     style="fill:#ca0369;fill-opacity:1;fill-rule:nonzero;stroke:none"
     d="m 37.424979,37.425928 c -0.4428,-0.937 -0.7386,-1.5 -1.5251,-1.656 -0.0735,-0.016 -0.1468,-0.042 -0.2188,-0.068 -0.4588,-0.365 -0.9479,-0.729 -1.4947,-1.093 l -3.8813,6.791 c 0.7292,2.792 3.7615,3.761 5.1984,3.516 1.2975,-0.23 2.5308,-1.307 2.9948,-3.531 0.3027,-1.439 -0.1145,-2.735 -1.0733,-3.959"
     id="path496" />
  <path
     style="fill:none;stroke:#231f20;stroke-width:0.565977;stroke-linecap:butt;stroke-linejoin:miter;stroke-miterlimit:4;stroke-dasharray:none;stroke-opacity:1"
     d="m 37.424979,37.425928 c -0.4428,-0.937 -0.7386,-1.5 -1.5251,-1.656 -0.0735,-0.016 -0.1468,-0.042 -0.2188,-0.068 -0.4588,-0.365 -0.9479,-0.729 -1.4947,-1.093 l -3.8813,6.791 c 0.7292,2.792 3.7615,3.761 5.1984,3.516 1.2975,-0.23 2.5308,-1.307 2.9948,-3.531 0.3027,-1.439 -0.1145,-2.735 -1.0733,-3.959 z"
     id="path497" />
  <path
     style="fill:#231f20;fill-opacity:1;fill-rule:nonzero;stroke:none"
     d="m 72.680579,37.055928 c -0.594,-0.255 -2.447,0.338 -4.0516,0.204 -1.0786,-0.094 -3.6718,0.812 -4.7401,0.64 -0.9839,-0.151 -1.4479,-0.13 -1.8172,0.958 -0.224,0.646 -0.224,2.032 0.2495,2.219 1.1094,0.437 2.0521,0.412 3.0932,0.156 1.1772,-0.281 4.3192,-1.343 4.8762,-1.593 1.39,-0.62 2.103,-0.443 2.489,-0.574 0.724,-0.238 0.807,-0.577 0.749,-1.077 -0.109,-0.953 -0.848,-0.933 -0.848,-0.933"
     id="path498" />
  <path
     style="fill:none;stroke:#231f20;stroke-width:0.565977;stroke-linecap:butt;stroke-linejoin:miter;stroke-miterlimit:4;stroke-dasharray:none;stroke-opacity:1"
     d="m 72.680579,37.055928 c -0.594,-0.255 -2.447,0.338 -4.0516,0.204 -1.0786,-0.094 -3.6718,0.812 -4.7401,0.64 -0.9839,-0.151 -1.4479,-0.13 -1.8172,0.958 -0.224,0.646 -0.224,2.032 0.2495,2.219 1.1094,0.437 2.0521,0.412 3.0932,0.156 1.1772,-0.281 4.3192,-1.343 4.8762,-1.593 1.39,-0.62 2.103,-0.443 2.489,-0.574 0.724,-0.238 0.807,-0.577 0.749,-1.077 -0.109,-0.953 -0.848,-0.933 -0.848,-0.933 z"
     id="path499" />
  <path
     style="fill:#231f20;fill-opacity:1;fill-rule:nonzero;stroke:none"
     d="m 63.747679,38.560928 c -0.3588,-1.244 -2.1812,-0.337 -2.6973,-0.176 -0.5162,0.167 -2.0412,0.468 -3.2651,0.552 -1.2188,0.083 -2.7084,0.713 -5.027,0.869 -1.224,0.088 -2.3532,0.943 -2.1506,2.708 0.1932,1.746 1.2495,2.292 2.7078,1.964 1.4641,-0.322 2.6937,-1.25 4.1469,-1.677 1.4478,-0.432 2.9625,-0.74 4.1614,-0.921 1.3692,-0.21 1.9678,-0.819 2.088,-1.282 0.2974,-1.156 0.0359,-2.037 0.0359,-2.037"
     id="path500" />
  <path
     style="fill:none;stroke:#231f20;stroke-width:0.565977;stroke-linecap:butt;stroke-linejoin:miter;stroke-miterlimit:4;stroke-dasharray:none;stroke-opacity:1"
     d="m 63.747679,38.560928 c -0.3588,-1.244 -2.1812,-0.337 -2.6973,-0.176 -0.5162,0.167 -2.0412,0.468 -3.2651,0.552 -1.2188,0.083 -2.7084,0.713 -5.027,0.869 -1.224,0.088 -2.3532,0.943 -2.1506,2.708 0.1932,1.746 1.2495,2.292 2.7078,1.964 1.4641,-0.322 2.6937,-1.25 4.1469,-1.677 1.4478,-0.432 2.9625,-0.74 4.1614,-0.921 1.3692,-0.21 1.9678,-0.819 2.088,-1.282 0.2974,-1.156 0.0359,-2.037 0.0359,-2.037 z"
     id="path501" />
  <path
     style="fill:#231f20;fill-opacity:1;fill-rule:nonzero;stroke:none"
     d="m 73.076579,38.899928 c 0.4,0.573 2.698,0.261 2.76,-0.052 0.057,-0.307 -0.688,-0.126 -0.63,-0.479 0.052,-0.349 0.546,-0.396 0.521,-0.625 -0.032,-0.25 -0.62,-0.099 -0.593,-0.407 0.009,-0.124 0.494,-0.463 0.416,-0.64 -0.074,-0.151 -0.588,-0.229 -0.651,-0.349 -0.099,-0.192 0.484,-0.391 0.416,-0.558 -0.177,-0.432 -2.599,0.792 -2.661,1.027 -0.088,0.339 -0.219,1.156 0.422,2.083"
     id="path502" />
  <path
     style="fill:none;stroke:#231f20;stroke-width:0.565977;stroke-linecap:round;stroke-linejoin:round;stroke-miterlimit:4;stroke-dasharray:none;stroke-opacity:1"
     d="m 73.076579,38.899928 c 0.4,0.573 2.698,0.261 2.76,-0.052 0.057,-0.307 -0.688,-0.126 -0.63,-0.479 0.052,-0.349 0.546,-0.396 0.521,-0.625 -0.032,-0.25 -0.62,-0.099 -0.593,-0.407 0.009,-0.124 0.494,-0.463 0.416,-0.64 -0.074,-0.151 -0.588,-0.229 -0.651,-0.349 -0.099,-0.192 0.484,-0.391 0.416,-0.558 -0.177,-0.432 -2.599,0.792 -2.661,1.027 -0.088,0.339 -0.219,1.156 0.422,2.083 z"
     id="path503" />
  <path
     style="fill:#231f20;fill-opacity:1;fill-rule:nonzero;stroke:none"
     d="m 183.66458,58.811928 c -0.751,-1.126 -1.719,-0.902 -2.344,-0.079 -0.187,0.251 -0.599,0.271 -0.765,0.527 -0.375,0.593 0.073,2.281 1.573,2.265 0.104,0 0.891,0.24 1.504,0.328 1.199,0.172 3.688,-0.077 5.381,-2.172 0.802,-0.995 0.067,-1.287 -0.385,-0.979 -1.412,0.959 -1.724,0.766 -2.188,0.886 -1.573,0.401 -2.776,-0.776 -2.776,-0.776"
     id="path504" />
  <path
     style="fill:none;stroke:#231f20;stroke-width:0.332927;stroke-linecap:butt;stroke-linejoin:miter;stroke-miterlimit:4;stroke-dasharray:none;stroke-opacity:1"
     d="m 183.66458,58.811928 c -0.751,-1.126 -1.719,-0.902 -2.344,-0.079 -0.187,0.251 -0.599,0.271 -0.765,0.527 -0.375,0.593 0.073,2.281 1.573,2.265 0.104,0 0.891,0.24 1.504,0.328 1.199,0.172 3.688,-0.077 5.381,-2.172 0.802,-0.995 0.067,-1.287 -0.385,-0.979 -1.412,0.959 -1.724,0.766 -2.188,0.886 -1.573,0.401 -2.776,-0.776 -2.776,-0.776 z"
     id="path505" />
  <path
     style="fill:#231f20;fill-opacity:1;fill-rule:nonzero;stroke:none"
     d="m 164.91958,59.275928 c -0.156,-2.262 0.12,-2.719 1.068,-2.85 0.631,-0.089 1.193,-0.38 1.573,-0.453 1.276,-0.24 3.52,-0.104 9.781,1.927 1.422,0.458 3.416,1.094 4.255,1.286 1.323,0.308 -0.083,2.298 -0.599,2.183 -1.677,-0.369 -2.864,-0.489 -3.478,-0.536 -0.428,-0.037 -1.172,-0.199 -2.834,-0.115 -2.526,0.119 -4.021,0.562 -6.13,0.422 -0.979,-0.063 -1.755,0.51 -2.688,-0.047 -0.932,-0.557 -0.948,-1.817 -0.948,-1.817"
     id="path506" />
  <path
     style="fill:none;stroke:#231f20;stroke-width:0.565977;stroke-linecap:butt;stroke-linejoin:miter;stroke-miterlimit:4;stroke-dasharray:none;stroke-opacity:1"
     d="m 164.91958,59.275928 c -0.156,-2.262 0.12,-2.719 1.068,-2.85 0.631,-0.089 1.193,-0.38 1.573,-0.453 1.276,-0.24 3.52,-0.104 9.781,1.927 1.422,0.458 3.416,1.094 4.255,1.286 1.323,0.308 -0.083,2.298 -0.599,2.183 -1.677,-0.369 -2.864,-0.489 -3.478,-0.536 -0.428,-0.037 -1.172,-0.199 -2.834,-0.115 -2.526,0.119 -4.021,0.562 -6.13,0.422 -0.979,-0.063 -1.755,0.51 -2.688,-0.047 -0.932,-0.557 -0.948,-1.817 -0.948,-1.817 z"
     id="path507" />
  <path
     style="fill:#ca0369;fill-opacity:1;fill-rule:nonzero;stroke:none"
     d="m 141.04458,51.884928 c 2.886,1.208 3.642,1.151 4.563,1.145 5.781,-0.041 5.692,2.798 4.115,5.208 -1.85,2.844 -2.454,3.896 -8.006,0.932 -1.546,-0.828 -7.88,-3.224 -7.88,-3.224 -2.385,-0.552 -4.417,-2.358 -4.702,-3.785 -0.308,-1.505 -0.079,-0.933 -0.106,-2.381 -0.03,-1.37 1.048,-3.276 2.262,-3.51 1.161,-0.229 2.27,1.015 4.109,2.599 1.448,1.244 5.645,3.016 5.645,3.016"
     id="path508" />
  <path
     style="fill:none;stroke:#231f20;stroke-width:0.565977;stroke-linecap:butt;stroke-linejoin:miter;stroke-miterlimit:4;stroke-dasharray:none;stroke-opacity:1"
     d="m 141.04458,51.884928 c 2.886,1.208 3.642,1.151 4.563,1.145 5.781,-0.041 5.692,2.798 4.115,5.208 -1.85,2.844 -2.454,3.896 -8.006,0.932 -1.546,-0.828 -7.88,-3.224 -7.88,-3.224 -2.385,-0.552 -4.417,-2.358 -4.702,-3.785 -0.308,-1.505 -0.079,-0.933 -0.106,-2.381 -0.03,-1.37 1.048,-3.276 2.262,-3.51 1.161,-0.229 2.27,1.015 4.109,2.599 1.448,1.244 5.645,3.016 5.645,3.016 z"
     id="path509" />
  <path
     style="fill:#ffffff;fill-opacity:1;fill-rule:nonzero;stroke:none"
     d="m 122.82658,48.956928 c -0.235,-0.072 -0.86,0.896 -1.318,0.641 -0.458,-0.25 -0.27,-1.016 -1.442,-2.62 l -0.016,-0.016 c -0.902,-1.145 -1.214,-2.5 -0.703,-3.645 0.839,-1.896 3.615,-2.511 6.192,-1.371 2.584,1.147 3.995,3.611 3.156,5.511 -0.801,1.819 -3.385,2.453 -5.869,1.5"
     id="path510" />
  <path
     style="fill:none;stroke:#231f20;stroke-width:0.565977;stroke-linecap:butt;stroke-linejoin:miter;stroke-miterlimit:4;stroke-dasharray:none;stroke-opacity:1"
     d="m 122.82658,48.956928 c -0.235,-0.072 -0.86,0.896 -1.318,0.641 -0.458,-0.25 -0.27,-1.016 -1.442,-2.62 l -0.016,-0.016 c -0.902,-1.145 -1.214,-2.5 -0.703,-3.645 0.839,-1.896 3.615,-2.511 6.192,-1.371 2.584,1.147 3.995,3.611 3.156,5.511 -0.801,1.819 -3.385,2.453 -5.869,1.5 z"
     id="path511" />
  <path
     style="fill:#231f20;fill-opacity:1;fill-rule:nonzero;stroke:none"
     d="m 167.28458,58.545928 c 0.61,3.963 -3.276,2.719 -3.75,2.791 -4.943,0.787 -5.318,0.719 -9.13,1.057 -5.505,0.491 -9.349,-0.02 -10.568,-3.14 -0.828,-2.12 -0.385,-3.697 0.578,-4.598 1.062,-0.99 4.13,-1.844 6.266,0.098 l 1.687,0.312 c 1.161,0.058 1.735,0.1 2.308,0.084 1.005,-0.026 2.083,0.011 4.036,0.074 3.469,0.104 7.104,1.348 7.104,1.348 1.245,0.073 1.469,1.974 1.469,1.974"
     id="path512" />
  <path
     style="fill:none;stroke:#231f20;stroke-width:0.565977;stroke-linecap:butt;stroke-linejoin:miter;stroke-miterlimit:4;stroke-dasharray:none;stroke-opacity:1"
     d="m 167.28458,58.545928 c 0.61,3.963 -3.276,2.719 -3.75,2.791 -4.943,0.787 -5.318,0.719 -9.13,1.057 -5.505,0.491 -9.349,-0.02 -10.568,-3.14 -0.828,-2.12 -0.385,-3.697 0.578,-4.598 1.062,-0.99 4.13,-1.844 6.266,0.098 l 1.687,0.312 c 1.161,0.058 1.735,0.1 2.308,0.084 1.005,-0.026 2.083,0.011 4.036,0.074 3.469,0.104 7.104,1.348 7.104,1.348 1.245,0.073 1.469,1.974 1.469,1.974 z"
     id="path513" />
  <path
     style="fill:#ca0369;fill-opacity:1;fill-rule:nonzero;stroke:none"
     d="m 151.15958,62.551928 -0.473,-7.798 c -2.142,-1.942 -5.21,-1.088 -6.272,-0.098 -0.963,0.901 -1.406,2.478 -0.578,4.598 0.536,1.37 1.599,2.224 3.074,2.724 0.88,0.542 1.432,0.844 2.176,0.547 0.068,-0.025 0.152,-0.047 0.229,-0.063 0.584,0.052 1.188,0.09 1.844,0.09"
     id="path514" />
  <path
     style="fill:none;stroke:#231f20;stroke-width:0.565977;stroke-linecap:butt;stroke-linejoin:miter;stroke-miterlimit:4;stroke-dasharray:none;stroke-opacity:1"
     d="m 151.15958,62.551928 -0.473,-7.798 c -2.142,-1.942 -5.21,-1.088 -6.272,-0.098 -0.963,0.901 -1.406,2.478 -0.578,4.598 0.536,1.37 1.599,2.224 3.074,2.724 0.88,0.542 1.432,0.844 2.176,0.547 0.068,-0.025 0.152,-0.047 0.229,-0.063 0.584,0.052 1.188,0.09 1.844,0.09 z"
     id="path515" />
  <path
     style="fill:#231f20;fill-opacity:1;fill-rule:nonzero;stroke:none"
     d="m 113.75858,40.347928 c 0.286,0.578 2.078,1.333 3.213,2.48 0.761,0.77 3.319,1.76 4.027,2.588 0.64,0.754 1.01,1.041 2,0.453 0.588,-0.349 1.489,-1.396 1.249,-1.849 -0.557,-1.052 -1.291,-1.646 -2.249,-2.13 -1.084,-0.553 -4.156,-1.781 -4.746,-1.958 -1.462,-0.428 -1.885,-1.027 -2.26,-1.178 -0.708,-0.286 -0.989,-0.084 -1.27,0.334 -0.536,0.792 0.036,1.26 0.036,1.26"
     id="path516" />
  <path
     style="fill:none;stroke:#231f20;stroke-width:0.565977;stroke-linecap:butt;stroke-linejoin:miter;stroke-miterlimit:4;stroke-dasharray:none;stroke-opacity:1"
     d="m 113.75858,40.347928 c 0.286,0.578 2.078,1.333 3.213,2.48 0.761,0.77 3.319,1.76 4.027,2.588 0.64,0.754 1.01,1.041 2,0.453 0.588,-0.349 1.489,-1.396 1.249,-1.849 -0.557,-1.052 -1.291,-1.646 -2.249,-2.13 -1.084,-0.553 -4.156,-1.781 -4.746,-1.958 -1.462,-0.428 -1.885,-1.027 -2.26,-1.178 -0.708,-0.286 -0.989,-0.084 -1.27,0.334 -0.536,0.792 0.036,1.26 0.036,1.26 z"
     id="path517" />
  <path
     style="fill:#231f20;fill-opacity:1;fill-rule:nonzero;stroke:none"
     d="m 121.52858,45.003928 c -0.541,1.177 1.438,1.677 1.934,1.886 0.504,0.208 1.858,0.974 2.842,1.698 0.986,0.734 2.522,1.224 4.391,2.609 0.985,0.724 2.401,0.812 3.396,-0.661 0.98,-1.454 0.532,-2.552 -0.787,-3.256 -1.322,-0.698 -2.858,-0.802 -4.244,-1.416 -1.385,-0.61 -2.734,-1.364 -3.761,-2.006 -1.176,-0.729 -2.025,-0.656 -2.421,-0.38 -0.974,0.688 -1.35,1.526 -1.35,1.526"
     id="path518" />
  <path
     style="fill:none;stroke:#231f20;stroke-width:0.565977;stroke-linecap:butt;stroke-linejoin:miter;stroke-miterlimit:4;stroke-dasharray:none;stroke-opacity:1"
     d="m 121.52858,45.003928 c -0.541,1.177 1.438,1.677 1.934,1.886 0.504,0.208 1.858,0.974 2.842,1.698 0.986,0.734 2.522,1.224 4.391,2.609 0.985,0.724 2.401,0.812 3.396,-0.661 0.98,-1.454 0.532,-2.552 -0.787,-3.256 -1.322,-0.698 -2.858,-0.802 -4.244,-1.416 -1.385,-0.61 -2.734,-1.364 -3.761,-2.006 -1.176,-0.729 -2.025,-0.656 -2.421,-0.38 -0.974,0.688 -1.35,1.526 -1.35,1.526 z"
     id="path519" />
  <path
     style="fill:#231f20;fill-opacity:1;fill-rule:nonzero;stroke:none"
     d="m 114.71158,38.863928 c 0.193,-0.678 -1.5,-2.255 -1.781,-2.104 -0.282,0.145 0.333,0.604 0.026,0.786 -0.308,0.182 -0.657,-0.177 -0.818,-0.01 -0.172,0.182 0.313,0.541 0.062,0.718 -0.104,0.079 -0.677,-0.088 -0.76,0.083 -0.073,0.152 0.188,0.605 0.136,0.724 -0.084,0.199 -0.605,-0.124 -0.688,0.032 -0.224,0.411 2.255,1.516 2.474,1.411 0.324,-0.146 1.032,-0.562 1.349,-1.64"
     id="path520" />
  <path
     style="fill:none;stroke:#231f20;stroke-width:0.565977;stroke-linecap:round;stroke-linejoin:round;stroke-miterlimit:4;stroke-dasharray:none;stroke-opacity:1"
     d="m 114.71158,38.863928 c 0.193,-0.678 -1.5,-2.255 -1.781,-2.104 -0.282,0.145 0.333,0.604 0.026,0.786 -0.308,0.182 -0.657,-0.177 -0.818,-0.01 -0.172,0.182 0.313,0.541 0.062,0.718 -0.104,0.079 -0.677,-0.088 -0.76,0.083 -0.073,0.152 0.188,0.605 0.136,0.724 -0.084,0.199 -0.605,-0.124 -0.688,0.032 -0.224,0.411 2.255,1.516 2.474,1.411 0.324,-0.146 1.032,-0.562 1.349,-1.64 z"
     id="path521" />
  <path
     style="fill:#231f20;fill-opacity:1;fill-rule:nonzero;stroke:none"
     d="m 230.98758,38.289928 c -0.172,-1.338 -1.135,-1.568 -2.063,-1.104 -0.276,0.136 -0.656,-0.03 -0.916,0.126 -0.599,0.364 -0.953,2.077 0.396,2.729 0.099,0.047 0.692,0.609 1.203,0.963 1,0.688 3.338,1.573 5.786,0.448 1.162,-0.531 0.63,-1.119 0.094,-1.047 -1.692,0.235 -1.886,-0.077 -2.354,-0.177 -1.589,-0.343 -2.146,-1.938 -2.146,-1.938"
     id="path522" />
  <path
     style="fill:none;stroke:#231f20;stroke-width:0.332927;stroke-linecap:butt;stroke-linejoin:miter;stroke-miterlimit:4;stroke-dasharray:none;stroke-opacity:1"
     d="m 230.98758,38.289928 c -0.172,-1.338 -1.135,-1.568 -2.063,-1.104 -0.276,0.136 -0.656,-0.03 -0.916,0.126 -0.599,0.364 -0.953,2.077 0.396,2.729 0.099,0.047 0.692,0.609 1.203,0.963 1,0.688 3.338,1.573 5.786,0.448 1.162,-0.531 0.63,-1.119 0.094,-1.047 -1.692,0.235 -1.886,-0.077 -2.354,-0.177 -1.589,-0.343 -2.146,-1.938 -2.146,-1.938 z"
     id="path523" />
  <path
     style="fill:#231f20;fill-opacity:1;fill-rule:nonzero;stroke:none"
     d="m 213.99758,30.368928 c 0.864,-2.093 1.318,-2.385 2.23,-2.079 0.598,0.204 1.234,0.194 1.604,0.298 1.249,0.354 3.197,1.468 7.901,6.078 1.068,1.047 2.572,2.5 3.233,3.047 1.054,0.859 -1.088,2.015 -1.504,1.681 -1.338,-1.072 -2.344,-1.708 -2.876,-2.025 -0.364,-0.219 -0.962,-0.699 -2.489,-1.369 -2.312,-1.011 -3.844,-1.278 -5.677,-2.339 -0.843,-0.5 -1.796,-0.333 -2.386,-1.245 -0.588,-0.912 -0.036,-2.047 -0.036,-2.047"
     id="path524" />
  <path
     style="fill:none;stroke:#231f20;stroke-width:0.565977;stroke-linecap:butt;stroke-linejoin:miter;stroke-miterlimit:4;stroke-dasharray:none;stroke-opacity:1"
     d="m 213.99758,30.368928 c 0.864,-2.093 1.318,-2.385 2.23,-2.079 0.598,0.204 1.234,0.194 1.604,0.298 1.249,0.354 3.197,1.468 7.901,6.078 1.068,1.047 2.572,2.5 3.233,3.047 1.054,0.859 -1.088,2.015 -1.504,1.681 -1.338,-1.072 -2.344,-1.708 -2.876,-2.025 -0.364,-0.219 -0.962,-0.699 -2.489,-1.369 -2.312,-1.011 -3.844,-1.278 -5.677,-2.339 -0.843,-0.5 -1.796,-0.333 -2.386,-1.245 -0.588,-0.912 -0.036,-2.047 -0.036,-2.047 z"
     id="path525" />
  <path
     style="fill:#ca0369;fill-opacity:1;fill-rule:nonzero;stroke:none"
     d="m 189.77958,21.841928 c 2.948,-1.062 3.464,-1.614 4.14,-2.244 4.229,-3.937 6.084,-1.786 6.557,1.058 0.557,3.348 0.823,4.53 -5.276,6.098 -1.697,0.438 -7.984,2.954 -7.984,2.954 -2.131,1.202 -4.849,1.238 -6.027,0.385 -1.244,-0.901 -0.686,-0.636 -1.681,-1.683 -0.953,-0.994 -1.448,-3.125 -0.713,-4.114 0.702,-0.959 2.364,-0.787 4.785,-0.864 1.912,-0.058 6.199,-1.59 6.199,-1.59"
     id="path526" />
  <path
     style="fill:none;stroke:#231f20;stroke-width:0.565977;stroke-linecap:butt;stroke-linejoin:miter;stroke-miterlimit:4;stroke-dasharray:none;stroke-opacity:1"
     d="m 189.77958,21.841928 c 2.948,-1.062 3.464,-1.614 4.14,-2.244 4.229,-3.937 6.084,-1.786 6.557,1.058 0.557,3.348 0.823,4.53 -5.276,6.098 -1.697,0.438 -7.984,2.954 -7.984,2.954 -2.131,1.202 -4.849,1.238 -6.027,0.385 -1.244,-0.901 -0.686,-0.636 -1.681,-1.683 -0.953,-0.994 -1.448,-3.125 -0.713,-4.114 0.702,-0.959 2.364,-0.787 4.785,-0.864 1.912,-0.058 6.199,-1.59 6.199,-1.59 z"
     id="path527" />
  <path
     style="fill:#ffffff;fill-opacity:1;fill-rule:nonzero;stroke:none"
     d="m 170.37758,26.289928 c -0.208,-0.124 -1.046,0.652 -1.437,0.298 -0.38,-0.36 -0.005,-1.052 -0.745,-2.896 l -0.009,-0.022 c -0.584,-1.333 -0.558,-2.724 0.224,-3.708 1.279,-1.629 4.123,-1.53 6.337,0.214 2.218,1.75 2.98,4.49 1.693,6.12 -1.235,1.562 -3.896,1.537 -6.063,-0.006"
     id="path528" />
  <path
     style="fill:none;stroke:#231f20;stroke-width:0.565977;stroke-linecap:butt;stroke-linejoin:miter;stroke-miterlimit:4;stroke-dasharray:none;stroke-opacity:1"
     d="m 170.37758,26.289928 c -0.208,-0.124 -1.046,0.652 -1.437,0.298 -0.38,-0.36 -0.005,-1.052 -0.745,-2.896 l -0.009,-0.022 c -0.584,-1.333 -0.558,-2.724 0.224,-3.708 1.279,-1.629 4.123,-1.53 6.337,0.214 2.218,1.75 2.98,4.49 1.693,6.12 -1.235,1.562 -3.896,1.537 -6.063,-0.006 z"
     id="path529" />
  <path
     style="fill:#231f20;fill-opacity:1;fill-rule:nonzero;stroke:none"
     d="m 216.43558,30.764928 c -1.219,3.823 -4.136,0.973 -4.594,0.833 -4.781,-1.494 -5.089,-1.724 -8.646,-3.114 -5.151,-2.016 -8.37,-4.188 -8.067,-7.522 0.197,-2.265 1.296,-3.478 2.561,-3.858 1.396,-0.412 4.516,0.186 5.568,2.88 l 1.375,1.025 c 1.011,0.573 1.511,0.865 2.032,1.109 0.907,0.418 1.855,0.934 3.579,1.855 3.061,1.64 5.76,4.375 5.76,4.375 1.082,0.614 0.432,2.417 0.432,2.417"
     id="path530" />
  <path
     style="fill:none;stroke:#231f20;stroke-width:0.565977;stroke-linecap:butt;stroke-linejoin:miter;stroke-miterlimit:4;stroke-dasharray:none;stroke-opacity:1"
     d="m 216.43558,30.764928 c -1.219,3.823 -4.136,0.973 -4.594,0.833 -4.781,-1.494 -5.089,-1.724 -8.646,-3.114 -5.151,-2.016 -8.37,-4.188 -8.067,-7.522 0.197,-2.265 1.296,-3.478 2.561,-3.858 1.396,-0.412 4.516,0.186 5.568,2.88 l 1.375,1.025 c 1.011,0.573 1.511,0.865 2.032,1.109 0.907,0.418 1.855,0.934 3.579,1.855 3.061,1.64 5.76,4.375 5.76,4.375 1.082,0.614 0.432,2.417 0.432,2.417 z"
     id="path531" />
  <path
     style="fill:#ca0369;fill-opacity:1;fill-rule:nonzero;stroke:#231f20;stroke-width:0.565977;stroke-linecap:butt;stroke-linejoin:miter;stroke-miterlimit:4;stroke-dasharray:none;stroke-opacity:1"
     d="m 203.25758,19.983928 c -1.046,-2.694 -4.172,-3.292 -5.572,-2.88 -1.261,0.38 -2.36,1.593 -2.557,3.858 -0.131,1.47 0.437,2.704 1.531,3.803 0.552,0.88 0.912,1.401 1.713,1.468 0.073,0.005 0.151,0.021 0.235,0.043 0.494,0.306 1.021,0.609 1.604,0.9 z"
     id="path532" />
  <path
     style="fill:#231f20;fill-opacity:1;fill-rule:nonzero;stroke:none"
     d="m 195.96158,38.956928 c -0.136,-0.635 -1.698,-1.791 -2.521,-3.177 -0.552,-0.932 -2.797,-2.51 -3.281,-3.484 -0.448,-0.891 -0.735,-1.255 -1.839,-0.922 -0.651,0.192 -1.781,0.995 -1.656,1.495 0.287,1.156 0.859,1.907 1.672,2.609 0.921,0.792 3.604,2.73 4.135,3.036 1.313,0.771 1.578,1.459 1.912,1.694 0.614,0.448 0.937,0.317 1.312,-0.016 0.709,-0.646 0.266,-1.235 0.266,-1.235"
     id="path533" />
  <path
     style="fill:none;stroke:#231f20;stroke-width:0.565977;stroke-linecap:butt;stroke-linejoin:miter;stroke-miterlimit:4;stroke-dasharray:none;stroke-opacity:1"
     d="m 195.96158,38.956928 c -0.136,-0.635 -1.698,-1.791 -2.521,-3.177 -0.552,-0.932 -2.797,-2.51 -3.281,-3.484 -0.448,-0.891 -0.735,-1.255 -1.839,-0.922 -0.651,0.192 -1.781,0.995 -1.656,1.495 0.287,1.156 0.859,1.907 1.672,2.609 0.921,0.792 3.604,2.73 4.135,3.036 1.313,0.771 1.578,1.459 1.912,1.694 0.614,0.448 0.937,0.317 1.312,-0.016 0.709,-0.646 0.266,-1.235 0.266,-1.235 z"
     id="path534" />
  <path
     style="fill:#231f20;fill-opacity:1;fill-rule:nonzero;stroke:none"
     d="m 189.53958,32.565928 c 0.808,-1.014 -0.99,-1.973 -1.422,-2.296 -0.437,-0.324 -1.568,-1.39 -2.349,-2.333 -0.776,-0.948 -2.151,-1.792 -3.631,-3.589 -0.781,-0.943 -2.134,-1.364 -3.452,-0.178 -1.308,1.178 -1.141,2.35 -0.021,3.35 1.109,1 2.579,1.464 3.776,2.396 1.192,0.926 2.323,1.984 3.167,2.854 0.969,0.99 1.806,1.124 2.254,0.952 1.115,-0.432 1.678,-1.156 1.678,-1.156"
     id="path535" />
  <path
     style="fill:none;stroke:#231f20;stroke-width:0.565977;stroke-linecap:butt;stroke-linejoin:miter;stroke-miterlimit:4;stroke-dasharray:none;stroke-opacity:1"
     d="m 189.53958,32.565928 c 0.808,-1.014 -0.99,-1.973 -1.422,-2.296 -0.437,-0.324 -1.568,-1.39 -2.349,-2.333 -0.776,-0.948 -2.151,-1.792 -3.631,-3.589 -0.781,-0.943 -2.134,-1.364 -3.452,-0.178 -1.308,1.178 -1.141,2.35 -0.021,3.35 1.109,1 2.579,1.464 3.776,2.396 1.192,0.926 2.323,1.984 3.167,2.854 0.969,0.99 1.806,1.124 2.254,0.952 1.115,-0.432 1.678,-1.156 1.678,-1.156 z"
     id="path536" />
  <path
     style="fill:#ffffff;fill-opacity:1;fill-rule:nonzero;stroke:#231f20;stroke-width:0.665856;stroke-linecap:butt;stroke-linejoin:miter;stroke-miterlimit:4;stroke-dasharray:none;stroke-opacity:1"
     d="m 196.05558,0.394928 0.057,31.677 h -1.333 l -0.052,-31.677 z"
     id="path537" />
  <path
     style="fill:#ffffff;fill-opacity:1;fill-rule:nonzero;stroke:none"
     d="m 199.52858,37.649928 c -0.525,2.296 -2.823,3.735 -5.115,3.208 -2.296,-0.525 -3.733,-2.822 -3.208,-5.114 0.527,-2.298 2.823,-3.735 5.115,-3.208 2.297,0.525 3.735,2.822 3.208,5.114 m -9.619,-2.204 c -0.688,3.011 1.198,6.022 4.208,6.71 3.011,0.692 6.016,-1.199 6.708,-4.21 0.694,-3.004 -1.193,-6.014 -4.202,-6.708 -3.011,-0.692 -6.022,1.194 -6.714,4.208"
     id="path538" />
  <path
     style="fill:none;stroke:#231f20;stroke-width:0.665856;stroke-linecap:butt;stroke-linejoin:miter;stroke-miterlimit:4;stroke-dasharray:none;stroke-opacity:1"
     d="m 199.52858,37.649928 c -0.525,2.296 -2.823,3.735 -5.115,3.208 -2.296,-0.525 -3.733,-2.822 -3.208,-5.114 0.527,-2.298 2.823,-3.735 5.115,-3.208 2.297,0.525 3.735,2.822 3.208,5.114 z m -9.619,-2.204 c -0.688,3.011 1.198,6.022 4.208,6.71 3.011,0.692 6.016,-1.199 6.708,-4.21 0.694,-3.004 -1.193,-6.014 -4.202,-6.708 -3.011,-0.692 -6.022,1.194 -6.714,4.208 z"
     id="path539" />
  <path
     style="fill:#231f20;fill-opacity:1;fill-rule:nonzero;stroke:none"
     d="m 194.26858,39.811928 c -0.615,0.338 -0.541,2.65 -0.235,2.745 0.303,0.099 0.194,-0.667 0.538,-0.579 0.348,0.094 0.338,0.594 0.572,0.588 0.25,-0.005 0.161,-0.604 0.464,-0.552 0.125,0.022 0.412,0.547 0.593,0.486 0.156,-0.058 0.292,-0.558 0.417,-0.61 0.203,-0.078 0.339,0.52 0.511,0.468 0.448,-0.13 -0.521,-2.666 -0.745,-2.754 -0.334,-0.126 -1.126,-0.334 -2.115,0.208"
     id="path540" />
  <path
     style="fill:none;stroke:#231f20;stroke-width:0.565977;stroke-linecap:round;stroke-linejoin:round;stroke-miterlimit:4;stroke-dasharray:none;stroke-opacity:1"
     d="m 194.26858,39.811928 c -0.615,0.338 -0.541,2.65 -0.235,2.745 0.303,0.099 0.194,-0.667 0.538,-0.579 0.348,0.094 0.338,0.594 0.572,0.588 0.25,-0.005 0.161,-0.604 0.464,-0.552 0.125,0.022 0.412,0.547 0.593,0.486 0.156,-0.058 0.292,-0.558 0.417,-0.61 0.203,-0.078 0.339,0.52 0.511,0.468 0.448,-0.13 -0.521,-2.666 -0.745,-2.754 -0.334,-0.126 -1.126,-0.334 -2.115,0.208 z"
     id="path541" />
  <path
     style="fill:#231f20;fill-opacity:1;fill-rule:nonzero;stroke:none"
     d="m 272.46158,44.456928 c 1.078,-0.812 0.802,-1.765 -0.057,-2.344 -0.256,-0.171 -0.303,-0.583 -0.568,-0.733 -0.609,-0.344 -2.276,0.197 -2.172,1.692 0.005,0.109 -0.193,0.906 -0.24,1.521 -0.109,1.208 0.276,3.677 2.464,5.249 1.036,0.746 1.287,0 0.953,-0.432 -1.037,-1.354 -0.86,-1.682 -1.005,-2.134 -0.489,-1.554 0.625,-2.819 0.625,-2.819"
     id="path542" />
  <path
     style="fill:none;stroke:#231f20;stroke-width:0.332927;stroke-linecap:butt;stroke-linejoin:miter;stroke-miterlimit:4;stroke-dasharray:none;stroke-opacity:1"
     d="m 272.46158,44.456928 c 1.078,-0.812 0.802,-1.765 -0.057,-2.344 -0.256,-0.171 -0.303,-0.583 -0.568,-0.733 -0.609,-0.344 -2.276,0.197 -2.172,1.692 0.005,0.109 -0.193,0.906 -0.24,1.521 -0.109,1.208 0.276,3.677 2.464,5.249 1.036,0.746 1.287,0 0.953,-0.432 -1.037,-1.354 -0.86,-1.682 -1.005,-2.134 -0.489,-1.554 0.625,-2.819 0.625,-2.819 z"
     id="path543" />
  <path
     style="fill:#231f20;fill-opacity:1;fill-rule:nonzero;stroke:none"
     d="m 270.96158,25.764928 c 2.25,-0.281 2.728,-0.027 2.906,0.911 0.12,0.625 0.448,1.172 0.537,1.542 0.307,1.266 0.301,3.51 -1.381,9.875 -0.386,1.443 -0.906,3.473 -1.052,4.317 -0.234,1.339 -2.302,0.047 -2.208,-0.478 0.27,-1.694 0.322,-2.88 0.338,-3.5 0.011,-0.428 0.136,-1.183 -0.041,-2.844 -0.256,-2.506 -0.787,-3.97 -0.761,-6.088 0.01,-0.986 -0.599,-1.73 -0.099,-2.688 0.505,-0.964 1.761,-1.047 1.761,-1.047"
     id="path544" />
  <path
     style="fill:none;stroke:#231f20;stroke-width:0.565977;stroke-linecap:butt;stroke-linejoin:miter;stroke-miterlimit:4;stroke-dasharray:none;stroke-opacity:1"
     d="m 270.96158,25.764928 c 2.25,-0.281 2.728,-0.027 2.906,0.911 0.12,0.625 0.448,1.172 0.537,1.542 0.307,1.266 0.301,3.51 -1.381,9.875 -0.386,1.443 -0.906,3.473 -1.052,4.317 -0.234,1.339 -2.302,0.047 -2.208,-0.478 0.27,-1.694 0.322,-2.88 0.338,-3.5 0.011,-0.428 0.136,-1.183 -0.041,-2.844 -0.256,-2.506 -0.787,-3.97 -0.761,-6.088 0.01,-0.986 -0.599,-1.73 -0.099,-2.688 0.505,-0.964 1.761,-1.047 1.761,-1.047 z"
     id="path545" />
  <path
     style="fill:#ca0369;fill-opacity:1;fill-rule:nonzero;stroke:none"
     d="m 263.79558,12.508928 c 2.166,-2.26 2.38,-2.984 2.708,-3.848 2.036,-5.406 4.65,-4.308 6.338,-1.974 1.995,2.75 2.755,3.698 -2.01,7.813 -1.323,1.145 -5.834,6.192 -5.834,6.192 -1.369,2.026 -3.792,3.276 -5.224,3.03 -1.516,-0.254 -0.896,-0.26 -2.254,-0.754 -1.292,-0.468 -2.688,-2.156 -2.475,-3.37 0.208,-1.172 1.771,-1.761 3.907,-2.906 1.686,-0.902 4.844,-4.183 4.844,-4.183"
     id="path546" />
  <path
     style="fill:none;stroke:#231f20;stroke-width:0.565977;stroke-linecap:butt;stroke-linejoin:miter;stroke-miterlimit:4;stroke-dasharray:none;stroke-opacity:1"
     d="m 263.79558,12.508928 c 2.166,-2.26 2.38,-2.984 2.708,-3.848 2.036,-5.406 4.65,-4.308 6.338,-1.974 1.995,2.75 2.755,3.698 -2.01,7.813 -1.323,1.145 -5.834,6.192 -5.834,6.192 -1.369,2.026 -3.792,3.276 -5.224,3.03 -1.516,-0.254 -0.896,-0.26 -2.254,-0.754 -1.292,-0.468 -2.688,-2.156 -2.475,-3.37 0.208,-1.172 1.771,-1.761 3.907,-2.906 1.686,-0.902 4.844,-4.183 4.844,-4.183 z"
     id="path547" />
  <path
     style="fill:#ffffff;fill-opacity:1;fill-rule:nonzero;stroke:none"
     d="m 247.91958,23.800928 c -0.23,-0.079 -0.886,0.86 -1.339,0.593 -0.452,-0.265 -0.233,-1.025 -1.348,-2.672 l -0.016,-0.014 c -0.855,-1.178 -1.12,-2.542 -0.573,-3.667 0.906,-1.871 3.704,-2.38 6.24,-1.147 2.541,1.235 3.869,3.746 2.958,5.615 -0.87,1.792 -3.474,2.339 -5.922,1.292"
     id="path548" />
  <path
     style="fill:none;stroke:#231f20;stroke-width:0.565977;stroke-linecap:butt;stroke-linejoin:miter;stroke-miterlimit:4;stroke-dasharray:none;stroke-opacity:1"
     d="m 247.91958,23.800928 c -0.23,-0.079 -0.886,0.86 -1.339,0.593 -0.452,-0.265 -0.233,-1.025 -1.348,-2.672 l -0.016,-0.014 c -0.855,-1.178 -1.12,-2.542 -0.573,-3.667 0.906,-1.871 3.704,-2.38 6.24,-1.147 2.541,1.235 3.869,3.746 2.958,5.615 -0.87,1.792 -3.474,2.339 -5.922,1.292 z"
     id="path549" />
  <path
     style="fill:#231f20;fill-opacity:1;fill-rule:nonzero;stroke:none"
     d="m 271.82058,28.081928 c -3.921,0.828 -2.891,-3.114 -2.989,-3.588 -1.063,-4.896 -1.016,-5.27 -1.563,-9.057 -0.787,-5.469 -0.489,-9.338 2.557,-10.724 2.074,-0.948 3.667,-0.589 4.62,0.323 1.052,1.011 2.068,4.02 0.25,6.265 l -0.219,1.703 c 0.005,1.157 -0.005,1.734 0.043,2.313 0.082,0.995 0.104,2.072 0.15,4.025 0.083,3.475 -0.958,7.172 -0.958,7.172 0,1.246 -1.891,1.568 -1.891,1.568"
     id="path550" />
  <path
     style="fill:none;stroke:#231f20;stroke-width:0.565977;stroke-linecap:butt;stroke-linejoin:miter;stroke-miterlimit:4;stroke-dasharray:none;stroke-opacity:1"
     d="m 271.82058,28.081928 c -3.921,0.828 -2.891,-3.114 -2.989,-3.588 -1.063,-4.896 -1.016,-5.27 -1.563,-9.057 -0.787,-5.469 -0.489,-9.338 2.557,-10.724 2.074,-0.948 3.667,-0.589 4.62,0.323 1.052,1.011 2.068,4.02 0.25,6.265 l -0.219,1.703 c 0.005,1.157 -0.005,1.734 0.043,2.313 0.082,0.995 0.104,2.072 0.15,4.025 0.083,3.475 -0.958,7.172 -0.958,7.172 0,1.246 -1.891,1.568 -1.891,1.568 z"
     id="path551" />
  <path
     style="fill:#ca0369;fill-opacity:1;fill-rule:nonzero;stroke:none"
     d="m 274.44558,5.035928 c -0.953,-0.912 -2.552,-1.271 -4.62,-0.323 -2.401,1.094 -3.093,3.739 -2.89,7.489 l 7.76,-0.901 c 1.818,-2.245 0.802,-5.254 -0.25,-6.265"
     id="path552" />
  <path
     style="fill:none;stroke:#231f20;stroke-width:0.565977;stroke-linecap:butt;stroke-linejoin:miter;stroke-miterlimit:4;stroke-dasharray:none;stroke-opacity:1"
     d="m 274.44558,5.035928 c -0.953,-0.912 -2.552,-1.271 -4.62,-0.323 -2.401,1.094 -3.093,3.739 -2.89,7.489 l 7.76,-0.901 c 1.818,-2.245 0.802,-5.254 -0.25,-6.265 z"
     id="path553" />
  <path
     style="fill:#231f20;fill-opacity:1;fill-rule:nonzero;stroke:none"
     d="m 262.07658,39.633928 c 0.296,-0.578 -0.163,-2.468 0.093,-4.057 0.167,-1.073 -0.546,-3.719 -0.297,-4.776 0.229,-0.968 0.24,-1.432 -0.823,-1.885 -0.625,-0.266 -2.005,-0.37 -2.229,0.088 -0.516,1.073 -0.557,2.016 -0.385,3.073 0.202,1.203 1.026,4.407 1.234,4.984 0.52,1.433 0.287,2.131 0.391,2.521 0.187,0.74 0.516,0.85 1.02,0.828 0.953,-0.041 0.996,-0.776 0.996,-0.776"
     id="path554" />
  <path
     style="fill:none;stroke:#231f20;stroke-width:0.565977;stroke-linecap:butt;stroke-linejoin:miter;stroke-miterlimit:4;stroke-dasharray:none;stroke-opacity:1"
     d="m 262.07658,39.633928 c 0.296,-0.578 -0.163,-2.468 0.093,-4.057 0.167,-1.073 -0.546,-3.719 -0.297,-4.776 0.229,-0.968 0.24,-1.432 -0.823,-1.885 -0.625,-0.266 -2.005,-0.37 -2.229,0.088 -0.516,1.073 -0.557,2.016 -0.385,3.073 0.202,1.203 1.026,4.407 1.234,4.984 0.52,1.433 0.287,2.131 0.391,2.521 0.187,0.74 0.516,0.85 1.02,0.828 0.953,-0.041 0.996,-0.776 0.996,-0.776 z"
     id="path555" />
  <path
     style="fill:#231f20;fill-opacity:1;fill-rule:nonzero;stroke:none"
     d="m 261.22158,30.612928 c 1.271,-0.265 0.506,-2.151 0.375,-2.676 -0.125,-0.527 -0.312,-2.073 -0.307,-3.292 0.006,-1.229 -0.51,-2.76 -0.5,-5.084 0.006,-1.224 -0.766,-2.416 -2.537,-2.348 -1.755,0.072 -2.38,1.083 -2.161,2.563 0.213,1.478 1.046,2.776 1.37,4.26 0.328,1.473 0.515,3.01 0.61,4.218 0.109,1.38 0.672,2.022 1.124,2.172 1.136,0.38 2.026,0.187 2.026,0.187"
     id="path556" />
  <path
     style="fill:none;stroke:#231f20;stroke-width:0.565977;stroke-linecap:butt;stroke-linejoin:miter;stroke-miterlimit:4;stroke-dasharray:none;stroke-opacity:1"
     d="m 261.22158,30.612928 c 1.271,-0.265 0.506,-2.151 0.375,-2.676 -0.125,-0.527 -0.312,-2.073 -0.307,-3.292 0.006,-1.229 -0.51,-2.76 -0.5,-5.084 0.006,-1.224 -0.766,-2.416 -2.537,-2.348 -1.755,0.072 -2.38,1.083 -2.161,2.563 0.213,1.478 1.046,2.776 1.37,4.26 0.328,1.473 0.515,3.01 0.61,4.218 0.109,1.38 0.672,2.022 1.124,2.172 1.136,0.38 2.026,0.187 2.026,0.187 z"
     id="path557" />
  <path
     style="fill:#ffffff;fill-opacity:1;fill-rule:nonzero;stroke:#231f20;stroke-width:0.665856;stroke-linecap:butt;stroke-linejoin:miter;stroke-miterlimit:4;stroke-dasharray:none;stroke-opacity:1"
     d="m 261.85258,0.394928 0.052,31.677 h -1.328 l -0.057,-31.677 z"
     id="path558" />
  <path
     style="fill:#ffffff;fill-opacity:1;fill-rule:nonzero;stroke:none"
     d="m 265.32058,37.649928 c -0.525,2.296 -2.817,3.735 -5.115,3.208 -2.292,-0.525 -3.734,-2.822 -3.208,-5.114 0.526,-2.298 2.823,-3.735 5.12,-3.208 2.296,0.525 3.73,2.822 3.203,5.114 m -9.615,-2.204 c -0.692,3.011 1.194,6.022 4.204,6.71 3.01,0.692 6.02,-1.199 6.714,-4.21 0.686,-3.004 -1.199,-6.014 -4.21,-6.708 -3.009,-0.692 -6.02,1.194 -6.708,4.208"
     id="path559" />
  <path
     style="fill:none;stroke:#231f20;stroke-width:0.665856;stroke-linecap:butt;stroke-linejoin:miter;stroke-miterlimit:4;stroke-dasharray:none;stroke-opacity:1"
     d="m 265.32058,37.649928 c -0.525,2.296 -2.817,3.735 -5.115,3.208 -2.292,-0.525 -3.734,-2.822 -3.208,-5.114 0.526,-2.298 2.823,-3.735 5.12,-3.208 2.296,0.525 3.73,2.822 3.203,5.114 z m -9.615,-2.204 c -0.692,3.011 1.194,6.022 4.204,6.71 3.01,0.692 6.02,-1.199 6.714,-4.21 0.686,-3.004 -1.199,-6.014 -4.21,-6.708 -3.009,-0.692 -6.02,1.194 -6.708,4.208 z"
     id="path560" />
  <path
     style="fill:#231f20;fill-opacity:1;fill-rule:nonzero;stroke:none"
     d="m 260.06058,39.811928 c -0.615,0.338 -0.541,2.65 -0.235,2.745 0.303,0.099 0.194,-0.667 0.542,-0.579 0.344,0.094 0.333,0.594 0.568,0.588 0.254,-0.005 0.161,-0.604 0.464,-0.552 0.129,0.022 0.416,0.547 0.593,0.486 0.161,-0.058 0.297,-0.558 0.421,-0.61 0.199,-0.078 0.339,0.52 0.506,0.468 0.448,-0.13 -0.515,-2.666 -0.739,-2.754 -0.333,-0.126 -1.131,-0.334 -2.12,0.208"
     id="path561" />
  <path
     style="fill:none;stroke:#231f20;stroke-width:0.565977;stroke-linecap:round;stroke-linejoin:round;stroke-miterlimit:4;stroke-dasharray:none;stroke-opacity:1"
     d="m 260.06058,39.811928 c -0.615,0.338 -0.541,2.65 -0.235,2.745 0.303,0.099 0.194,-0.667 0.542,-0.579 0.344,0.094 0.333,0.594 0.568,0.588 0.254,-0.005 0.161,-0.604 0.464,-0.552 0.129,0.022 0.416,0.547 0.593,0.486 0.161,-0.058 0.297,-0.558 0.421,-0.61 0.199,-0.078 0.339,0.52 0.506,0.468 0.448,-0.13 -0.515,-2.666 -0.739,-2.754 -0.333,-0.126 -1.131,-0.334 -2.12,0.208 z"
     id="path562" />
  <path
     style="fill:none;stroke:#231f20;stroke-width:0.399514;stroke-linecap:butt;stroke-linejoin:miter;stroke-miterlimit:4;stroke-dasharray:none;stroke-opacity:1"
     d="m 34.821179,91.029928 c 1.8694,2.407 34.4786,12.110002 65.474401,9.765002 26.411,-2.000002 39.859,-10.967002 42.479,-17.306002"
     id="path563" />
  <path
     style="fill:#231f20;fill-opacity:1;fill-rule:nonzero;stroke:none"
     d="m 143.23858,82.379928 c -0.027,0.603 0.036,1.39 0.224,1.937 l -0.751,-0.677 -1.005,-0.047 c 0.516,-0.26 1.12,-0.771 1.532,-1.213"
     id="path564" />
  <path
     style="fill:#231f20;fill-opacity:1;fill-rule:nonzero;stroke:none"
     d="m 297.15958,30.857928 c 0.568,1.23 1.552,1.162 2.297,0.438 0.224,-0.214 0.64,-0.172 0.839,-0.402 0.462,-0.525 0.281,-2.265 -1.204,-2.478 -0.11,-0.016 -0.844,-0.375 -1.438,-0.552 -1.161,-0.355 -3.65,-0.495 -5.645,1.317 -0.948,0.86 -0.265,1.261 0.224,1.027 1.541,-0.73 1.823,-0.49 2.296,-0.542 1.615,-0.157 2.631,1.192 2.631,1.192"
     id="path565" />
  <path
     style="fill:none;stroke:#231f20;stroke-width:0.332927;stroke-linecap:butt;stroke-linejoin:miter;stroke-miterlimit:4;stroke-dasharray:none;stroke-opacity:1"
     d="m 297.15958,30.857928 c 0.568,1.23 1.552,1.162 2.297,0.438 0.224,-0.214 0.64,-0.172 0.839,-0.402 0.462,-0.525 0.281,-2.265 -1.204,-2.478 -0.11,-0.016 -0.844,-0.375 -1.438,-0.552 -1.161,-0.355 -3.65,-0.495 -5.645,1.317 -0.948,0.86 -0.265,1.261 0.224,1.027 1.541,-0.73 1.823,-0.49 2.296,-0.542 1.615,-0.157 2.631,1.192 2.631,1.192 z"
     id="path566" />
  <path
     style="fill:#231f20;fill-opacity:1;fill-rule:nonzero;stroke:none"
     d="m 315.88258,33.259928 c -0.197,2.254 -0.541,2.666 -1.5,2.65 -0.636,-0.016 -1.234,0.194 -1.62,0.203 -1.296,0.037 -3.494,-0.437 -9.369,-3.405 -1.333,-0.678 -3.208,-1.61 -4.005,-1.928 -1.26,-0.504 0.432,-2.255 0.927,-2.062 1.598,0.619 2.75,0.916 3.354,1.062 0.416,0.1 1.131,0.376 2.781,0.553 2.515,0.265 4.063,0.056 6.126,0.52 0.952,0.213 1.812,-0.229 2.645,0.459 0.839,0.697 0.661,1.948 0.661,1.948"
     id="path567" />
  <path
     style="fill:none;stroke:#231f20;stroke-width:0.565977;stroke-linecap:butt;stroke-linejoin:miter;stroke-miterlimit:4;stroke-dasharray:none;stroke-opacity:1"
     d="m 315.88258,33.259928 c -0.197,2.254 -0.541,2.666 -1.5,2.65 -0.636,-0.016 -1.234,0.194 -1.62,0.203 -1.296,0.037 -3.494,-0.437 -9.369,-3.405 -1.333,-0.678 -3.208,-1.61 -4.005,-1.928 -1.26,-0.504 0.432,-2.255 0.927,-2.062 1.598,0.619 2.75,0.916 3.354,1.062 0.416,0.1 1.131,0.376 2.781,0.553 2.515,0.265 4.063,0.056 6.126,0.52 0.952,0.213 1.812,-0.229 2.645,0.459 0.839,0.697 0.661,1.948 0.661,1.948 z"
     id="path568" />
  <path
     style="fill:#231f20;fill-opacity:1;fill-rule:nonzero;stroke:none"
     d="m 313.43458,33.612928 c 0.006,-4.009 3.651,-2.176 4.131,-2.181 5.005,-0.022 5.369,0.104 9.181,0.358 5.516,0.366 9.235,1.464 9.964,4.735 0.49,2.219 -0.188,3.708 -1.276,4.448 -1.213,0.817 -4.369,1.188 -6.188,-1.057 l -1.614,-0.568 c -1.135,-0.235 -1.698,-0.37 -2.271,-0.438 -0.995,-0.13 -2.047,-0.333 -3.973,-0.692 -3.412,-0.641 -6.812,-2.433 -6.812,-2.433 -1.22,-0.26 -1.142,-2.172 -1.142,-2.172"
     id="path569" />
  <path
     style="fill:none;stroke:#231f20;stroke-width:0.565977;stroke-linecap:butt;stroke-linejoin:miter;stroke-miterlimit:4;stroke-dasharray:none;stroke-opacity:1"
     d="m 313.43458,33.612928 c 0.006,-4.009 3.651,-2.176 4.131,-2.181 5.005,-0.022 5.369,0.104 9.181,0.358 5.516,0.366 9.235,1.464 9.964,4.735 0.49,2.219 -0.188,3.708 -1.276,4.448 -1.213,0.817 -4.369,1.188 -6.188,-1.057 l -1.614,-0.568 c -1.135,-0.235 -1.698,-0.37 -2.271,-0.438 -0.995,-0.13 -2.047,-0.333 -3.973,-0.692 -3.412,-0.641 -6.812,-2.433 -6.812,-2.433 -1.22,-0.26 -1.142,-2.172 -1.142,-2.172 z"
     id="path570" />
  <path
     style="fill:#ca0369;fill-opacity:1;fill-rule:nonzero;stroke:none"
     d="m 331.33658,26.352928 c 2.114,2.803 2.546,3.677 3.15,4.647 3.058,4.905 2.224,5.894 0.251,7.249 -2.797,1.917 -4.516,2.697 -7.557,-2.817 -2.308,-4.183 -4.62,-6.959 -4.62,-6.959 -1.538,-1.057 -3.459,-4.099 -3.396,-5.011 0.109,-1.53 0.14,-1.229 0.89,-2.462 1.396,-2.287 2.594,-2.22 3.708,-1.803 1.11,0.416 1.907,1.083 3.87,3.099 1.521,1.557 3.704,4.057 3.704,4.057"
     id="path571" />
  <path
     style="fill:none;stroke:#231f20;stroke-width:0.565977;stroke-linecap:butt;stroke-linejoin:miter;stroke-miterlimit:4;stroke-dasharray:none;stroke-opacity:1"
     d="m 331.33658,26.352928 c 2.114,2.803 2.546,3.677 3.15,4.647 3.058,4.905 2.224,5.894 0.251,7.249 -2.797,1.917 -4.516,2.697 -7.557,-2.817 -2.308,-4.183 -4.62,-6.959 -4.62,-6.959 -1.538,-1.057 -3.459,-4.099 -3.396,-5.011 0.109,-1.53 0.14,-1.229 0.89,-2.462 1.396,-2.287 2.594,-2.22 3.708,-1.803 1.11,0.416 1.907,1.083 3.87,3.099 1.521,1.557 3.704,4.057 3.704,4.057 z"
     id="path572" />
  <path
     style="fill:#231f20;fill-opacity:1;fill-rule:nonzero;stroke:none"
     d="m 324.03358,32.436928 c 1.292,-0.104 0.761,-2.073 0.699,-2.609 -0.063,-0.543 -0.058,-2.1 0.098,-3.308 0.156,-1.214 -0.172,-2.798 0.12,-5.104 0.156,-1.214 -0.458,-2.495 -2.229,-2.64 -1.751,-0.147 -2.489,0.781 -2.459,2.276 0.036,1.494 0.703,2.89 0.844,4.394 0.14,1.5 0.14,3.054 0.083,4.262 -0.056,1.385 0.423,2.088 0.855,2.296 1.078,0.516 1.989,0.433 1.989,0.433"
     id="path573" />
  <path
     style="fill:none;stroke:#231f20;stroke-width:0.565977;stroke-linecap:butt;stroke-linejoin:miter;stroke-miterlimit:4;stroke-dasharray:none;stroke-opacity:1"
     d="m 324.03358,32.436928 c 1.292,-0.104 0.761,-2.073 0.699,-2.609 -0.063,-0.543 -0.058,-2.1 0.098,-3.308 0.156,-1.214 -0.172,-2.798 0.12,-5.104 0.156,-1.214 -0.458,-2.495 -2.229,-2.64 -1.751,-0.147 -2.489,0.781 -2.459,2.276 0.036,1.494 0.703,2.89 0.844,4.394 0.14,1.5 0.14,3.054 0.083,4.262 -0.056,1.385 0.423,2.088 0.855,2.296 1.078,0.516 1.989,0.433 1.989,0.433 z"
     id="path574" />
  <path
     style="fill:#231f20;fill-opacity:1;fill-rule:nonzero;stroke:none"
     d="m 323.76858,41.488928 c 0.365,-0.527 0.145,-2.464 0.588,-4.011 0.302,-1.041 -0.078,-3.76 0.297,-4.776 0.344,-0.932 0.417,-1.39 -0.583,-1.969 -0.589,-0.344 -1.948,-0.62 -2.229,-0.187 -0.641,1 -0.797,1.932 -0.756,3.006 0.052,1.208 0.48,4.494 0.615,5.093 0.338,1.484 0.021,2.151 0.073,2.552 0.099,0.755 0.412,0.901 0.916,0.943 0.953,0.084 1.079,-0.651 1.079,-0.651"
     id="path575" />
  <path
     style="fill:none;stroke:#231f20;stroke-width:0.565977;stroke-linecap:butt;stroke-linejoin:miter;stroke-miterlimit:4;stroke-dasharray:none;stroke-opacity:1"
     d="m 323.76858,41.488928 c 0.365,-0.527 0.145,-2.464 0.588,-4.011 0.302,-1.041 -0.078,-3.76 0.297,-4.776 0.344,-0.932 0.417,-1.39 -0.583,-1.969 -0.589,-0.344 -1.948,-0.62 -2.229,-0.187 -0.641,1 -0.797,1.932 -0.756,3.006 0.052,1.208 0.48,4.494 0.615,5.093 0.338,1.484 0.021,2.151 0.073,2.552 0.099,0.755 0.412,0.901 0.916,0.943 0.953,0.084 1.079,-0.651 1.079,-0.651 z"
     id="path576" />
  <path
     style="fill:#ffffff;fill-opacity:1;fill-rule:nonzero;stroke:none"
     d="m 314.26858,17.128928 c -0.151,-0.192 -1.208,0.256 -1.448,-0.208 -0.24,-0.464 0.344,-0.995 0.27,-2.984 v -0.021 c -0.104,-1.448 0.396,-2.745 1.459,-3.412 1.76,-1.099 4.407,-0.052 5.901,2.344 1.495,2.396 1.282,5.229 -0.48,6.328 -1.681,1.057 -4.176,0.136 -5.702,-2.047"
     id="path577" />
  <path
     style="fill:none;stroke:#231f20;stroke-width:0.565977;stroke-linecap:butt;stroke-linejoin:miter;stroke-miterlimit:4;stroke-dasharray:none;stroke-opacity:1"
     d="m 314.26858,17.128928 c -0.151,-0.192 -1.208,0.256 -1.448,-0.208 -0.24,-0.464 0.344,-0.995 0.27,-2.984 v -0.021 c -0.104,-1.448 0.396,-2.745 1.459,-3.412 1.76,-1.099 4.407,-0.052 5.901,2.344 1.495,2.396 1.282,5.229 -0.48,6.328 -1.681,1.057 -4.176,0.136 -5.702,-2.047 z"
     id="path578" />
  <path
     style="fill:#ffffff;fill-opacity:1;fill-rule:nonzero;stroke:none"
     d="m 321.61258,32.009928 h 1.333 v -31.677 h -1.333 z"
     id="path579" />
  <path
     style="fill:none;stroke:#231f20;stroke-width:0.665856;stroke-linecap:butt;stroke-linejoin:miter;stroke-miterlimit:4;stroke-dasharray:none;stroke-opacity:1"
     d="m 321.61758,32.009928 h 1.328 v -31.677 h -1.328 z"
     id="path580" />
  <path
     style="fill:#ffffff;fill-opacity:1;fill-rule:nonzero;stroke:none"
     d="m 321.87258,41.212928 c -2.354,0 -4.266,-1.917 -4.266,-4.267 0,-2.358 1.912,-4.27 4.266,-4.27 2.354,0 4.27,1.912 4.27,4.27 0,2.35 -1.916,4.267 -4.27,4.267 m 0,-9.871 c -3.088,0 -5.599,2.516 -5.599,5.604 0,3.084 2.511,5.6 5.599,5.6 3.089,0 5.598,-2.516 5.598,-5.6 0,-3.088 -2.509,-5.604 -5.598,-5.604"
     id="path581" />
  <path
     style="fill:none;stroke:#231f20;stroke-width:0.665856;stroke-linecap:butt;stroke-linejoin:miter;stroke-miterlimit:4;stroke-dasharray:none;stroke-opacity:1"
     d="m 321.87258,41.212928 c -2.354,0 -4.266,-1.917 -4.266,-4.267 0,-2.358 1.912,-4.27 4.266,-4.27 2.354,0 4.27,1.912 4.27,4.27 0,2.35 -1.916,4.267 -4.27,4.267 z m 0,-9.871 c -3.088,0 -5.599,2.516 -5.599,5.604 0,3.084 2.511,5.6 5.599,5.6 3.089,0 5.598,-2.516 5.598,-5.6 0,-3.088 -2.509,-5.604 -5.598,-5.604 z"
     id="path582" />
  <path
     style="fill:#ffffff;fill-opacity:1;fill-rule:nonzero;stroke:none"
     d="m 315.30458,36.275928 c 0.193,2.254 -0.083,2.724 -1.026,2.864 -0.63,0.098 -1.182,0.401 -1.568,0.478 -1.27,0.256 -3.516,0.158 -9.806,-1.776 -1.428,-0.442 -3.437,-1.046 -4.272,-1.224 -1.328,-0.285 0.048,-2.296 0.568,-2.192 1.677,0.344 2.86,0.443 3.485,0.49 0.421,0.026 1.171,0.172 2.833,0.073 2.52,-0.167 4.01,-0.636 6.119,-0.527 0.98,0.058 1.756,-0.53 2.693,0.011 0.938,0.541 0.974,1.803 0.974,1.803"
     id="path583" />
  <path
     style="fill:none;stroke:#231f20;stroke-width:0.565977;stroke-linecap:round;stroke-linejoin:round;stroke-miterlimit:4;stroke-dasharray:none;stroke-opacity:1"
     d="m 315.30458,36.275928 c 0.193,2.254 -0.083,2.724 -1.026,2.864 -0.63,0.098 -1.182,0.401 -1.568,0.478 -1.27,0.256 -3.516,0.158 -9.806,-1.776 -1.428,-0.442 -3.437,-1.046 -4.272,-1.224 -1.328,-0.285 0.048,-2.296 0.568,-2.192 1.677,0.344 2.86,0.443 3.485,0.49 0.421,0.026 1.171,0.172 2.833,0.073 2.52,-0.167 4.01,-0.636 6.119,-0.527 0.98,0.058 1.756,-0.53 2.693,0.011 0.938,0.541 0.974,1.803 0.974,1.803 z"
     id="path584" />
  <path
     style="fill:#ffffff;fill-opacity:1;fill-rule:nonzero;stroke:#231f20;stroke-width:0.565977;stroke-linecap:round;stroke-linejoin:round;stroke-miterlimit:4;stroke-dasharray:none;stroke-opacity:1"
     d="m 313.49758,34.576928 c 0.989,-0.844 2.844,-0.328 3.161,-0.38 4.932,-0.869 5.307,-0.803 9.11,-1.197 5.5,-0.574 9.354,-0.12 10.62,2.984 0.858,2.104 0.442,3.686 -0.506,4.598 -1.057,1.011 -4.109,1.907 -6.276,0 l -1.688,-0.286 c -1.161,-0.042 -1.738,-0.078 -2.312,-0.047 -1.005,0.041 -2.078,0.016 -4.036,-0.016 -3.469,-0.047 -7.125,-1.244 -7.125,-1.244 -0.344,-0.016 -0.615,-0.172 -0.823,-0.391"
     id="path585" />
  <path
     style="fill:#ca0369;fill-opacity:1;fill-rule:nonzero;stroke:none"
     d="m 336.61758,36.295928 c -0.844,-2.506 -3.396,-3.468 -7.156,-3.651 l 0.104,7.817 c 2.041,2.038 5.14,1.334 6.26,0.391 1.005,-0.849 1.521,-2.401 0.792,-4.557"
     id="path586" />
  <path
     style="fill:none;stroke:#231f20;stroke-width:0.565977;stroke-linecap:butt;stroke-linejoin:miter;stroke-miterlimit:4;stroke-dasharray:none;stroke-opacity:1"
     d="m 336.61758,36.295928 c -0.844,-2.506 -3.396,-3.468 -7.156,-3.651 l 0.104,7.817 c 2.041,2.038 5.14,1.334 6.26,0.391 1.005,-0.849 1.521,-2.401 0.792,-4.557 z"
     id="path587" />
  <path
     style="fill:#231f20;fill-opacity:1;fill-rule:nonzero;stroke:none"
     d="m 321.34158,40.649928 c -0.652,0.26 -0.86,2.568 -0.568,2.698 0.292,0.13 0.276,-0.64 0.609,-0.506 0.334,0.131 0.266,0.626 0.49,0.652 0.256,0.02 0.24,-0.584 0.532,-0.494 0.118,0.041 0.342,0.588 0.53,0.552 0.167,-0.038 0.36,-0.522 0.49,-0.552 0.208,-0.058 0.27,0.557 0.448,0.525 0.458,-0.073 -0.192,-2.708 -0.402,-2.823 -0.317,-0.166 -1.082,-0.469 -2.129,-0.052"
     id="path588" />
  <path
     style="fill:none;stroke:#231f20;stroke-width:0.565977;stroke-linecap:round;stroke-linejoin:round;stroke-miterlimit:4;stroke-dasharray:none;stroke-opacity:1"
     d="m 321.34158,40.649928 c -0.652,0.26 -0.86,2.568 -0.568,2.698 0.292,0.13 0.276,-0.64 0.609,-0.506 0.334,0.131 0.266,0.626 0.49,0.652 0.256,0.02 0.24,-0.584 0.532,-0.494 0.118,0.041 0.342,0.588 0.53,0.552 0.167,-0.038 0.36,-0.522 0.49,-0.552 0.208,-0.058 0.27,0.557 0.448,0.525 0.458,-0.073 -0.192,-2.708 -0.402,-2.823 -0.317,-0.166 -1.082,-0.469 -2.129,-0.052 z"
     id="path589" />
  <path
     style="fill:#231f20;fill-opacity:1;fill-rule:nonzero;stroke:none"
     d="m 296.69558,36.972928 c 0.766,1.109 1.729,0.875 2.338,0.036 0.183,-0.249 0.599,-0.276 0.756,-0.536 0.37,-0.593 -0.104,-2.276 -1.6,-2.24 -0.109,0.005 -0.9,-0.224 -1.509,-0.301 -1.204,-0.152 -3.688,0.129 -5.344,2.254 -0.792,1.006 -0.052,1.282 0.391,0.975 1.401,-0.985 1.718,-0.797 2.177,-0.923 1.563,-0.432 2.791,0.735 2.791,0.735"
     id="path590" />
  <path
     style="fill:none;stroke:#231f20;stroke-width:0.332927;stroke-linecap:butt;stroke-linejoin:miter;stroke-miterlimit:4;stroke-dasharray:none;stroke-opacity:1"
     d="m 296.69558,36.972928 c 0.766,1.109 1.729,0.875 2.338,0.036 0.183,-0.249 0.599,-0.276 0.756,-0.536 0.37,-0.593 -0.104,-2.276 -1.6,-2.24 -0.109,0.005 -0.9,-0.224 -1.509,-0.301 -1.204,-0.152 -3.688,0.129 -5.344,2.254 -0.792,1.006 -0.052,1.282 0.391,0.975 1.401,-0.985 1.718,-0.797 2.177,-0.923 1.563,-0.432 2.791,0.735 2.791,0.735 z"
     id="path591" />
</svg>
