<?xml version="1.0" encoding="UTF-8" standalone="no"?>
<!-- Created with Inkscape (http://www.inkscape.org/) -->

<svg
   version="1.1"
   id="svg1"
   width="360.46881"
   height="166.90953"
   viewBox="0 0 360.4688 166.90953"
   sodipodi:docname="cell.svg"
   xmlns:inkscape="http://www.inkscape.org/namespaces/inkscape"
   xmlns:sodipodi="http://sodipodi.sourceforge.net/DTD/sodipodi-0.dtd"
   xmlns="http://www.w3.org/2000/svg"
   xmlns:svg="http://www.w3.org/2000/svg">
  <sodipodi:namedview
     id="namedview1"
     pagecolor="#ffffff"
     bordercolor="#000000"
     borderopacity="0.25"
     inkscape:showpageshadow="2"
     inkscape:pageopacity="0.0"
     inkscape:pagecheckerboard="0"
     inkscape:deskcolor="#d1d1d1">
    <inkscape:page
       x="0"
       y="0"
       inkscape:label="1"
       id="page1"
       width="360.46881"
       height="166.90953"
       margin="0"
       bleed="0" />
  </sodipodi:namedview>
  <defs
     id="defs1" />
  <path
     style="fill:#ffffff;fill-opacity:1;fill-rule:nonzero;stroke:none"
     d="M -1.4269758e-8,18.874 H 18.875 V 0 H -1.4269758e-8 Z"
     id="path105" />
  <path
     style="fill:#ffffff;fill-opacity:1;fill-rule:nonzero;stroke:none"
     d="m 343.5418,18.874 h 16.927 V 0 h -16.927 z"
     id="path106" />
  <path
     style="fill:#ffffff;fill-opacity:1;fill-rule:nonzero;stroke:#231f20;stroke-width:0.665856;stroke-linecap:butt;stroke-linejoin:miter;stroke-miterlimit:4;stroke-dasharray:none;stroke-opacity:1"
     d="m 51.8654,16.218 -5.376,31.219 1.313,0.224 5.375,-31.213 z"
     id="path107" />
  <path
     style="fill:#ffffff;fill-opacity:1;fill-rule:nonzero;stroke:none"
     d="m 42.104,51.688 c 0.3958,-2.319 2.6093,-3.88 4.9281,-3.48 2.3224,0.401 3.8855,2.609 3.4839,4.933 -0.3959,2.317 -2.6146,3.88 -4.9318,3.479 -2.3188,-0.396 -3.8802,-2.61 -3.4802,-4.932 m -1.312,-0.224 c -0.5266,3.041 1.5266,5.948 4.5677,6.468 3.0417,0.526 5.9484,-1.526 6.4683,-4.567 0.5265,-3.043 -1.5256,-5.948 -4.5667,-6.469 -3.048,-0.527 -5.948,1.526 -6.4693,4.568"
     id="path108" />
  <path
     style="fill:none;stroke:#231f20;stroke-width:0.665856;stroke-linecap:butt;stroke-linejoin:miter;stroke-miterlimit:4;stroke-dasharray:none;stroke-opacity:1"
     d="m 42.104,51.688 c 0.3958,-2.319 2.6093,-3.88 4.9281,-3.48 2.3224,0.401 3.8855,2.609 3.4839,4.933 -0.3959,2.317 -2.6146,3.88 -4.9318,3.479 -2.3188,-0.396 -3.8802,-2.61 -3.4802,-4.932 z m -1.312,-0.224 c -0.5266,3.041 1.5266,5.948 4.5677,6.468 3.0417,0.526 5.9484,-1.526 6.4683,-4.567 0.5265,-3.043 -1.5256,-5.948 -4.5667,-6.469 -3.048,-0.527 -5.948,1.526 -6.4693,4.568 z"
     id="path109" />
  <path
     style="fill:#ca0369;fill-opacity:1;fill-rule:nonzero;stroke:none"
     d="m 34.2759,85.76 c -1.052,2.953 -1.5984,3.469 -2.2239,4.141 -3.9267,4.249 -1.7652,6.093 1.0785,6.557 3.3495,0.542 4.536,0.807 6.0787,-5.297 0.4265,-1.697 2.9213,-7.995 2.9213,-7.995 1.1975,-2.134 1.224,-4.854 0.3693,-6.03 -0.9104,-1.235 -0.6401,-0.678 -1.6917,-1.672 -0.9948,-0.948 -3.1254,-1.438 -4.1202,-0.699 -0.9531,0.709 -0.776,2.365 -0.8386,4.787 -0.0573,1.912 -1.5734,6.208 -1.5734,6.208"
     id="path114" />
  <path
     style="fill:none;stroke:#231f20;stroke-width:0.565977;stroke-linecap:butt;stroke-linejoin:miter;stroke-miterlimit:4;stroke-dasharray:none;stroke-opacity:1"
     d="m 34.2759,85.76 c -1.052,2.953 -1.5984,3.469 -2.2239,4.141 -3.9267,4.249 -1.7652,6.093 1.0785,6.557 3.3495,0.542 4.536,0.807 6.0787,-5.297 0.4265,-1.697 2.9213,-7.995 2.9213,-7.995 1.1975,-2.134 1.224,-4.854 0.3693,-6.03 -0.9104,-1.235 -0.6401,-0.678 -1.6917,-1.672 -0.9948,-0.948 -3.1254,-1.438 -4.1202,-0.699 -0.9531,0.709 -0.776,2.365 -0.8386,4.787 -0.0573,1.912 -1.5734,6.208 -1.5734,6.208 z"
     id="path115" />
  <path
     style="fill:#ffffff;fill-opacity:1;fill-rule:nonzero;stroke:none"
     d="m 46.2452,72.281 c 0.1614,-0.183 1.188,0.344 1.4588,-0.109 0.2708,-0.448 -0.276,-1.016 -0.0735,-2.995 l 0.0052,-0.021 c 0.1923,-1.438 -0.2129,-2.766 -1.2343,-3.5 -1.6828,-1.219 -4.3854,-0.348 -6.036,1.942 -1.6562,2.292 -1.6306,5.131 0.0522,6.344 1.6088,1.167 4.1609,0.418 5.8276,-1.661"
     id="path116" />
  <path
     style="fill:none;stroke:#231f20;stroke-width:0.565977;stroke-linecap:butt;stroke-linejoin:miter;stroke-miterlimit:4;stroke-dasharray:none;stroke-opacity:1"
     d="m 46.2452,72.281 c 0.1614,-0.183 1.188,0.344 1.4588,-0.109 0.2708,-0.448 -0.276,-1.016 -0.0735,-2.995 l 0.0052,-0.021 c 0.1923,-1.438 -0.2129,-2.766 -1.2343,-3.5 -1.6828,-1.219 -4.3854,-0.348 -6.036,1.942 -1.6562,2.292 -1.6306,5.131 0.0522,6.344 1.6088,1.167 4.1609,0.418 5.8276,-1.661 z"
     id="path117" />
  <path
     style="fill:#231f20;fill-opacity:1;fill-rule:nonzero;stroke:none"
     d="m 23.2759,111.369 c 2.9428,2.734 4.0896,-1.182 4.4172,-1.531 3.4322,-3.651 3.5828,-4.005 6,-6.964 3.4896,-4.286 5.2297,-7.754 3.3281,-10.509 -1.2864,-1.876 -2.8385,-2.396 -4.1197,-2.105 -1.4267,0.328 -3.8495,2.385 -3.4428,5.245 l -0.688,1.573 c -0.5984,0.995 -0.8907,1.49 -1.224,1.958 -0.588,0.813 -1.1613,1.719 -2.2077,3.375 -1.8642,2.932 -2.8642,6.64 -2.8642,6.64 -0.6468,1.068 0.8011,2.318 0.8011,2.318"
     id="path118" />
  <path
     style="fill:none;stroke:#231f20;stroke-width:0.565977;stroke-linecap:butt;stroke-linejoin:miter;stroke-miterlimit:4;stroke-dasharray:none;stroke-opacity:1"
     d="m 23.2759,111.369 c 2.9428,2.734 4.0896,-1.182 4.4172,-1.531 3.4322,-3.651 3.5828,-4.005 6,-6.964 3.4896,-4.286 5.2297,-7.754 3.3281,-10.509 -1.2864,-1.876 -2.8385,-2.396 -4.1197,-2.105 -1.4267,0.328 -3.8495,2.385 -3.4428,5.245 l -0.688,1.573 c -0.5984,0.995 -0.8907,1.49 -1.224,1.958 -0.588,0.813 -1.1613,1.719 -2.2077,3.375 -1.8642,2.932 -2.8642,6.64 -2.8642,6.64 -0.6468,1.068 0.8011,2.318 0.8011,2.318 z"
     id="path119" />
  <path
     style="fill:#ca0369;fill-opacity:1;fill-rule:nonzero;stroke:none"
     d="m 36.7187,91.978 c -1.4532,-1.749 -3.0464,-2.129 -4.3011,-1.718 -1.3855,0.458 -3.6095,2.724 -2.9485,5.537 l 6.5938,4.187 c 0.3171,-0.572 0.5786,-1.119 0.813,-1.656 0.0562,-0.063 0.1094,-0.12 0.1666,-0.162 0.624,-0.516 0.624,-1.145 0.5776,-2.188 0.2762,-1.525 0.0412,-2.864 -0.9014,-4"
     id="path120" />
  <path
     style="fill:none;stroke:#231f20;stroke-width:0.565977;stroke-linecap:butt;stroke-linejoin:miter;stroke-miterlimit:4;stroke-dasharray:none;stroke-opacity:1"
     d="m 36.7187,91.978 c -1.4532,-1.749 -3.0464,-2.129 -4.3011,-1.718 -1.3855,0.458 -3.6095,2.724 -2.9485,5.537 l 6.5938,4.187 c 0.3171,-0.572 0.5786,-1.119 0.813,-1.656 0.0562,-0.063 0.1094,-0.12 0.1666,-0.162 0.624,-0.516 0.624,-1.145 0.5776,-2.188 0.2762,-1.525 0.0412,-2.864 -0.9014,-4 z"
     id="path121" />
  <path
     style="fill:#231f20;fill-opacity:1;fill-rule:nonzero;stroke:none"
     d="m 46.1357,58.38 c 0.1724,0.625 -0.6609,2.38 -0.7452,3.985 -0.0516,1.088 -1.3011,3.536 -1.2704,4.619 0.0213,0.99 -0.0629,1.448 -1.1921,1.672 -0.6719,0.13 -2.0427,-0.047 -2.1667,-0.547 -0.2813,-1.151 -0.1308,-2.088 0.2599,-3.088 0.4374,-1.131 1.9109,-4.1 2.2349,-4.62 0.8011,-1.292 0.7187,-2.027 0.8959,-2.385 0.3374,-0.683 0.6812,-0.724 1.1708,-0.599 0.9281,0.233 0.8129,0.963 0.8129,0.963"
     id="path122" />
  <path
     style="fill:none;stroke:#231f20;stroke-width:0.565977;stroke-linecap:butt;stroke-linejoin:miter;stroke-miterlimit:4;stroke-dasharray:none;stroke-opacity:1"
     d="m 46.1357,58.38 c 0.1724,0.625 -0.6609,2.38 -0.7452,3.985 -0.0516,1.088 -1.3011,3.536 -1.2704,4.619 0.0213,0.99 -0.0629,1.448 -1.1921,1.672 -0.6719,0.13 -2.0427,-0.047 -2.1667,-0.547 -0.2813,-1.151 -0.1308,-2.088 0.2599,-3.088 0.4374,-1.131 1.9109,-4.1 2.2349,-4.62 0.8011,-1.292 0.7187,-2.027 0.8959,-2.385 0.3374,-0.683 0.6812,-0.724 1.1708,-0.599 0.9281,0.233 0.8129,0.963 0.8129,0.963 z"
     id="path123" />
  <path
     style="fill:#231f20;fill-opacity:1;fill-rule:nonzero;stroke:none"
     d="m 43.4477,67.032 c 1.188,0.52 0.0417,2.202 -0.1864,2.692 -0.2349,0.494 -0.7401,1.964 -0.9855,3.161 -0.2437,1.204 -1.0666,2.593 -1.5358,4.871 -0.2506,1.197 -1.2505,2.208 -2.9693,1.776 -1.7026,-0.434 -2.1042,-1.554 -1.5828,-2.954 0.5161,-1.406 1.5989,-2.505 2.2188,-3.885 0.6197,-1.376 1.1254,-2.839 1.4692,-4.005 0.3854,-1.328 1.0718,-1.839 1.5469,-1.896 1.1864,-0.136 2.0249,0.24 2.0249,0.24"
     id="path124" />
  <path
     style="fill:none;stroke:#231f20;stroke-width:0.565977;stroke-linecap:butt;stroke-linejoin:miter;stroke-miterlimit:4;stroke-dasharray:none;stroke-opacity:1"
     d="m 43.4477,67.032 c 1.188,0.52 0.0417,2.202 -0.1864,2.692 -0.2349,0.494 -0.7401,1.964 -0.9855,3.161 -0.2437,1.204 -1.0666,2.593 -1.5358,4.871 -0.2506,1.197 -1.2505,2.208 -2.9693,1.776 -1.7026,-0.434 -2.1042,-1.554 -1.5828,-2.954 0.5161,-1.406 1.5989,-2.505 2.2188,-3.885 0.6197,-1.376 1.1254,-2.839 1.4692,-4.005 0.3854,-1.328 1.0718,-1.839 1.5469,-1.896 1.1864,-0.136 2.0249,0.24 2.0249,0.24 z"
     id="path125" />
  <path
     style="fill:#231f20;fill-opacity:1;fill-rule:nonzero;stroke:none"
     d="m 44.4332,57.901 c -0.5891,-0.38 -0.3703,-2.683 -0.0574,-2.756 0.312,-0.072 0.1506,0.677 0.5042,0.611 0.3496,-0.068 0.3761,-0.568 0.6053,-0.548 0.2495,0.021 0.1239,0.609 0.4265,0.584 0.1255,-0.016 0.4479,-0.516 0.6255,-0.443 0.1557,0.063 0.2547,0.577 0.3803,0.635 0.1916,0.089 0.3692,-0.5 0.5358,-0.438 0.4371,0.162 -0.6921,2.626 -0.927,2.699 -0.3386,0.104 -1.1464,0.26 -2.0932,-0.344"
     id="path126" />
  <path
     style="fill:none;stroke:#231f20;stroke-width:0.565977;stroke-linecap:round;stroke-linejoin:round;stroke-miterlimit:4;stroke-dasharray:none;stroke-opacity:1"
     d="m 44.4332,57.901 c -0.5891,-0.38 -0.3703,-2.683 -0.0574,-2.756 0.312,-0.072 0.1506,0.677 0.5042,0.611 0.3496,-0.068 0.3761,-0.568 0.6053,-0.548 0.2495,0.021 0.1239,0.609 0.4265,0.584 0.1255,-0.016 0.4479,-0.516 0.6255,-0.443 0.1557,0.063 0.2547,0.577 0.3803,0.635 0.1916,0.089 0.3692,-0.5 0.5358,-0.438 0.4371,0.162 -0.6921,2.626 -0.927,2.699 -0.3386,0.104 -1.1464,0.26 -2.0932,-0.344 z"
     id="path127" />
  <path
     style="fill:#ffffff;fill-opacity:1;fill-rule:nonzero;stroke:#231f20;stroke-width:0.665856;stroke-linecap:butt;stroke-linejoin:miter;stroke-miterlimit:4;stroke-dasharray:none;stroke-opacity:1"
     d="m 67.9586,16.688 0.0838,31.672 h 1.3334 L 69.2919,16.682 Z"
     id="path128" />
  <path
     style="fill:#ffffff;fill-opacity:1;fill-rule:nonzero;stroke:none"
     d="m 64.4586,53.308 c -0.0109,-2.355 1.9011,-4.276 4.2546,-4.282 2.3548,-0.005 4.2762,1.9 4.2814,4.255 0.0052,2.36 -1.9052,4.276 -4.2599,4.281 -2.3494,0.011 -4.2709,-1.901 -4.2761,-4.254 m -1.3333,0 c 0.0104,3.088 2.5266,5.593 5.6146,5.588 3.088,-0.011 5.5932,-2.527 5.588,-5.615 -0.0093,-3.088 -2.5308,-5.593 -5.6188,-5.588 -3.089,0.009 -5.5948,2.525 -5.5838,5.615"
     id="path129" />
  <path
     style="fill:none;stroke:#231f20;stroke-width:0.665856;stroke-linecap:butt;stroke-linejoin:miter;stroke-miterlimit:4;stroke-dasharray:none;stroke-opacity:1"
     d="m 64.4586,53.308 c -0.0109,-2.355 1.9011,-4.276 4.2546,-4.282 2.3548,-0.005 4.2762,1.9 4.2814,4.255 0.0052,2.36 -1.9052,4.276 -4.2599,4.281 -2.3494,0.011 -4.2709,-1.901 -4.2761,-4.254 z m -1.3333,0 c 0.0104,3.088 2.5266,5.593 5.6146,5.588 3.088,-0.011 5.5932,-2.527 5.588,-5.615 -0.0093,-3.088 -2.5308,-5.593 -5.6188,-5.588 -3.089,0.009 -5.5948,2.525 -5.5838,5.615 z"
     id="path130" />
  <path
     style="fill:#231f20;fill-opacity:1;fill-rule:nonzero;stroke:none"
     d="m 103.6308,43.921 c 0.021,1.355 -0.901,1.72 -1.886,1.387 -0.292,-0.095 -0.645,0.118 -0.922,0.004 -0.651,-0.28 -1.239,-1.927 0.01,-2.755 0.09,-0.063 0.6,-0.703 1.058,-1.125 0.896,-0.812 3.084,-2.02 5.666,-1.244 1.224,0.364 0.782,1.02 0.24,1.02 -1.708,0.005 -1.86,0.344 -2.308,0.51 -1.525,0.552 -1.858,2.203 -1.858,2.203"
     id="path131" />
  <path
     style="fill:none;stroke:#231f20;stroke-width:0.332927;stroke-linecap:butt;stroke-linejoin:miter;stroke-miterlimit:4;stroke-dasharray:none;stroke-opacity:1"
     d="m 103.6308,43.921 c 0.021,1.355 -0.901,1.72 -1.886,1.387 -0.292,-0.095 -0.645,0.118 -0.922,0.004 -0.651,-0.28 -1.239,-1.927 0.01,-2.755 0.09,-0.063 0.6,-0.703 1.058,-1.125 0.896,-0.812 3.084,-2.02 5.666,-1.244 1.224,0.364 0.782,1.02 0.24,1.02 -1.708,0.005 -1.86,0.344 -2.308,0.51 -1.525,0.552 -1.858,2.203 -1.858,2.203 z"
     id="path132" />
  <path
     style="fill:#231f20;fill-opacity:1;fill-rule:nonzero;stroke:none"
     d="m 87.9068,54.136 c 1.15,1.953 1.64,2.176 2.495,1.749 0.573,-0.287 1.197,-0.359 1.557,-0.516 1.183,-0.531 2.959,-1.905 6.973,-7.119 0.912,-1.182 2.204,-2.833 2.781,-3.464 0.923,-1 -1.358,-1.849 -1.723,-1.464 -1.171,1.256 -2.083,2.022 -2.567,2.412 -0.328,0.271 -0.855,0.823 -2.276,1.698 -2.147,1.328 -3.631,1.797 -5.292,3.109 -0.771,0.609 -1.741,0.573 -2.194,1.557 -0.457,0.991 0.246,2.038 0.246,2.038"
     id="path133" />
  <path
     style="fill:none;stroke:#231f20;stroke-width:0.565977;stroke-linecap:butt;stroke-linejoin:miter;stroke-miterlimit:4;stroke-dasharray:none;stroke-opacity:1"
     d="m 87.9068,54.136 c 1.15,1.953 1.64,2.176 2.495,1.749 0.573,-0.287 1.197,-0.359 1.557,-0.516 1.183,-0.531 2.959,-1.905 6.973,-7.119 0.912,-1.182 2.204,-2.833 2.781,-3.464 0.923,-1 -1.358,-1.849 -1.723,-1.464 -1.171,1.256 -2.083,2.022 -2.567,2.412 -0.328,0.271 -0.855,0.823 -2.276,1.698 -2.147,1.328 -3.631,1.797 -5.292,3.109 -0.771,0.609 -1.741,0.573 -2.194,1.557 -0.457,0.991 0.246,2.038 0.246,2.038 z"
     id="path134" />
  <path
     style="fill:#ca0369;fill-opacity:1;fill-rule:nonzero;stroke:none"
     d="m 70.6722,73.224 c 2.0573,-2.364 2.7557,-2.646 3.589,-3.047 5.2026,-2.516 3.8692,-5.027 1.3854,-6.495 -2.9119,-1.729 -3.9228,-2.406 -7.5947,2.708 -1.0147,1.427 -5.6401,6.375 -5.6401,6.375 -1.8907,1.547 -2.9172,4.073 -2.5412,5.48 0.3907,1.484 0.3427,0.864 0.9521,2.172 0.5839,1.249 2.3906,2.484 3.5839,2.156 1.1453,-0.308 1.588,-1.917 2.5358,-4.147 0.7454,-1.76 3.7298,-5.202 3.7298,-5.202"
     id="path135" />
  <path
     style="fill:none;stroke:#231f20;stroke-width:0.565977;stroke-linecap:butt;stroke-linejoin:miter;stroke-miterlimit:4;stroke-dasharray:none;stroke-opacity:1"
     d="m 70.6722,73.224 c 2.0573,-2.364 2.7557,-2.646 3.589,-3.047 5.2026,-2.516 3.8692,-5.027 1.3854,-6.495 -2.9119,-1.729 -3.9228,-2.406 -7.5947,2.708 -1.0147,1.427 -5.6401,6.375 -5.6401,6.375 -1.8907,1.547 -2.9172,4.073 -2.5412,5.48 0.3907,1.484 0.3427,0.864 0.9521,2.172 0.5839,1.249 2.3906,2.484 3.5839,2.156 1.1453,-0.308 1.588,-1.917 2.5358,-4.147 0.7454,-1.76 3.7298,-5.202 3.7298,-5.202 z"
     id="path136" />
  <path
     style="fill:#ffffff;fill-opacity:1;fill-rule:nonzero;stroke:none"
     d="m 55.8799,86.62 c -0.1093,0.213 -1.2385,-0.022 -1.3801,0.484 -0.1453,0.505 0.5323,0.906 0.8599,2.87 v 0.02 c 0.1869,1.443 0.9322,2.62 2.1041,3.058 1.948,0.734 4.3281,-0.818 5.3229,-3.459 0.9943,-2.651 0.224,-5.38 -1.7186,-6.109 -1.859,-0.703 -4.1308,0.688 -5.1882,3.136"
     id="path137" />
  <path
     style="fill:none;stroke:#231f20;stroke-width:0.565977;stroke-linecap:butt;stroke-linejoin:miter;stroke-miterlimit:4;stroke-dasharray:none;stroke-opacity:1"
     d="m 55.8799,86.62 c -0.1093,0.213 -1.2385,-0.022 -1.3801,0.484 -0.1453,0.505 0.5323,0.906 0.8599,2.87 v 0.02 c 0.1869,1.443 0.9322,2.62 2.1041,3.058 1.948,0.734 4.3281,-0.818 5.3229,-3.459 0.9943,-2.651 0.224,-5.38 -1.7186,-6.109 -1.859,-0.703 -4.1308,0.688 -5.1882,3.136 z"
     id="path138" />
  <path
     style="fill:#231f20;fill-opacity:1;fill-rule:nonzero;stroke:none"
     d="m 90.2708,53.406 c -1.739,-3.62 -4.239,-0.39 -4.667,-0.188 -4.531,2.147 -4.802,2.418 -8.1291,4.287 -4.8187,2.708 -7.7041,5.307 -6.9427,8.568 0.5104,2.213 1.7651,3.265 3.0667,3.463 1.4437,0.214 4.4532,-0.812 5.1199,-3.624 l 1.2134,-1.21 c 0.9278,-0.708 1.3758,-1.061 1.8548,-1.38 0.844,-0.541 1.713,-1.177 3.292,-2.333 2.801,-2.047 5.093,-5.129 5.093,-5.129 0.989,-0.762 0.099,-2.454 0.099,-2.454"
     id="path139" />
  <path
     style="fill:none;stroke:#231f20;stroke-width:0.565977;stroke-linecap:butt;stroke-linejoin:miter;stroke-miterlimit:4;stroke-dasharray:none;stroke-opacity:1"
     d="m 90.2708,53.406 c -1.739,-3.62 -4.239,-0.39 -4.667,-0.188 -4.531,2.147 -4.802,2.418 -8.1291,4.287 -4.8187,2.708 -7.7041,5.307 -6.9427,8.568 0.5104,2.213 1.7651,3.265 3.0667,3.463 1.4437,0.214 4.4532,-0.812 5.1199,-3.624 l 1.2134,-1.21 c 0.9278,-0.708 1.3758,-1.061 1.8548,-1.38 0.844,-0.541 1.713,-1.177 3.292,-2.333 2.801,-2.047 5.093,-5.129 5.093,-5.129 0.989,-0.762 0.099,-2.454 0.099,-2.454 z"
     id="path140" />
  <path
     style="fill:#ca0369;fill-opacity:1;fill-rule:nonzero;stroke:#231f20;stroke-width:0.565977;stroke-linecap:butt;stroke-linejoin:miter;stroke-miterlimit:4;stroke-dasharray:none;stroke-opacity:1"
     d="m 74.2091,59.328 c -0.5052,0.417 -0.9479,0.833 -1.3599,1.245 -0.0734,0.036 -0.1453,0.072 -0.2188,0.093 -0.765,0.246 -1,0.834 -1.3333,1.818 -0.8172,1.324 -1.088,2.657 -0.6249,4.057 0.713,2.157 2.0573,3.089 3.3744,3.167 1.4532,0.084 4.36,-1.214 4.772,-4.072 z"
     id="path141" />
  <path
     style="fill:#231f20;fill-opacity:1;fill-rule:nonzero;stroke:none"
     d="m 68.7347,59.177 c 0.2599,0.588 -0.3229,2.448 -0.1828,4.047 0.1,1.084 -0.7907,3.682 -0.6147,4.75 0.1626,0.979 0.1412,1.443 -0.9478,1.823 -0.6453,0.224 -2.0308,0.235 -2.2188,-0.24 -0.4427,-1.104 -0.4213,-2.052 -0.176,-3.093 0.2812,-1.183 1.3229,-4.323 1.5667,-4.886 0.6197,-1.39 0.4333,-2.104 0.5625,-2.489 0.24,-0.724 0.5733,-0.813 1.0733,-0.761 0.9537,0.104 0.9376,0.849 0.9376,0.849"
     id="path142" />
  <path
     style="fill:none;stroke:#231f20;stroke-width:0.565977;stroke-linecap:butt;stroke-linejoin:miter;stroke-miterlimit:4;stroke-dasharray:none;stroke-opacity:1"
     d="m 68.7347,59.177 c 0.2599,0.588 -0.3229,2.448 -0.1828,4.047 0.1,1.084 -0.7907,3.682 -0.6147,4.75 0.1626,0.979 0.1412,1.443 -0.9478,1.823 -0.6453,0.224 -2.0308,0.235 -2.2188,-0.24 -0.4427,-1.104 -0.4213,-2.052 -0.176,-3.093 0.2812,-1.183 1.3229,-4.323 1.5667,-4.886 0.6197,-1.39 0.4333,-2.104 0.5625,-2.489 0.24,-0.724 0.5733,-0.813 1.0733,-0.761 0.9537,0.104 0.9376,0.849 0.9376,0.849 z"
     id="path143" />
  <path
     style="fill:#231f20;fill-opacity:1;fill-rule:nonzero;stroke:none"
     d="m 67.2758,68.12 c 1.2505,0.344 0.3546,2.172 0.1932,2.688 -0.161,0.52 -0.4583,2.052 -0.5318,3.265 -0.0776,1.229 -0.6973,2.719 -0.8478,5.041 -0.0735,1.219 -0.9229,2.355 -2.688,2.167 -1.7453,-0.188 -2.2975,-1.24 -1.9839,-2.703 0.3172,-1.464 1.2344,-2.704 1.661,-4.156 0.4213,-1.448 0.7186,-2.964 0.8962,-4.168 0.1975,-1.369 0.8063,-1.968 1.2652,-2.093 1.1563,-0.301 2.0359,-0.041 2.0359,-0.041"
     id="path144" />
  <path
     style="fill:none;stroke:#231f20;stroke-width:0.565977;stroke-linecap:butt;stroke-linejoin:miter;stroke-miterlimit:4;stroke-dasharray:none;stroke-opacity:1"
     d="m 67.2758,68.12 c 1.2505,0.344 0.3546,2.172 0.1932,2.688 -0.161,0.52 -0.4583,2.052 -0.5318,3.265 -0.0776,1.229 -0.6973,2.719 -0.8478,5.041 -0.0735,1.219 -0.9229,2.355 -2.688,2.167 -1.7453,-0.188 -2.2975,-1.24 -1.9839,-2.703 0.3172,-1.464 1.2344,-2.704 1.661,-4.156 0.4213,-1.448 0.7186,-2.964 0.8962,-4.168 0.1975,-1.369 0.8063,-1.968 1.2652,-2.093 1.1563,-0.301 2.0359,-0.041 2.0359,-0.041 z"
     id="path145" />
  <path
     style="fill:#231f20;fill-opacity:1;fill-rule:nonzero;stroke:none"
     d="m 66.9852,58.932 c -0.6411,-0.291 -0.7401,-2.599 -0.4427,-2.719 0.2964,-0.115 0.2442,0.652 0.5827,0.537 0.3386,-0.114 0.2975,-0.614 0.5267,-0.625 0.2495,-0.016 0.2077,0.588 0.5041,0.516 0.1198,-0.032 0.3703,-0.573 0.5572,-0.527 0.1626,0.042 0.3334,0.536 0.459,0.574 0.2077,0.068 0.2968,-0.543 0.4744,-0.5 0.4573,0.093 -0.3187,2.697 -0.5427,2.796 -0.3172,0.152 -1.0984,0.417 -2.1187,-0.052"
     id="path146" />
  <path
     style="fill:none;stroke:#231f20;stroke-width:0.565977;stroke-linecap:round;stroke-linejoin:round;stroke-miterlimit:4;stroke-dasharray:none;stroke-opacity:1"
     d="m 66.9852,58.932 c -0.6411,-0.291 -0.7401,-2.599 -0.4427,-2.719 0.2964,-0.115 0.2442,0.652 0.5827,0.537 0.3386,-0.114 0.2975,-0.614 0.5267,-0.625 0.2495,-0.016 0.2077,0.588 0.5041,0.516 0.1198,-0.032 0.3703,-0.573 0.5572,-0.527 0.1626,0.042 0.3334,0.536 0.459,0.574 0.2077,0.068 0.2968,-0.543 0.4744,-0.5 0.4573,0.093 -0.3187,2.697 -0.5427,2.796 -0.3172,0.152 -1.0984,0.417 -2.1187,-0.052 z"
     id="path147" />
  <path
     style="fill:#ffffff;fill-opacity:1;fill-rule:nonzero;stroke:#231f20;stroke-width:0.665856;stroke-linecap:butt;stroke-linejoin:miter;stroke-miterlimit:4;stroke-dasharray:none;stroke-opacity:1"
     d="m 138.8958,16.688 0.084,31.672 h 1.333 l -0.084,-31.678 z"
     id="path148" />
  <path
     style="fill:#ffffff;fill-opacity:1;fill-rule:nonzero;stroke:none"
     d="m 135.3958,53.308 c -0.011,-2.355 1.901,-4.276 4.251,-4.282 2.358,-0.005 4.281,1.9 4.285,4.255 0.005,2.36 -1.905,4.276 -4.26,4.281 -2.349,0.011 -4.271,-1.901 -4.276,-4.254 m -1.333,0 c 0.01,3.088 2.526,5.593 5.614,5.588 3.09,-0.011 5.594,-2.527 5.584,-5.615 -0.005,-3.088 -2.526,-5.593 -5.614,-5.588 -3.09,0.009 -5.595,2.525 -5.584,5.615"
     id="path149" />
  <path
     style="fill:none;stroke:#231f20;stroke-width:0.665856;stroke-linecap:butt;stroke-linejoin:miter;stroke-miterlimit:4;stroke-dasharray:none;stroke-opacity:1"
     d="m 135.3958,53.308 c -0.011,-2.355 1.901,-4.276 4.251,-4.282 2.358,-0.005 4.281,1.9 4.285,4.255 0.005,2.36 -1.905,4.276 -4.26,4.281 -2.349,0.011 -4.271,-1.901 -4.276,-4.254 z m -1.333,0 c 0.01,3.088 2.526,5.593 5.614,5.588 3.09,-0.011 5.594,-2.527 5.584,-5.615 -0.005,-3.088 -2.526,-5.593 -5.614,-5.588 -3.09,0.009 -5.595,2.525 -5.584,5.615 z"
     id="path150" />
  <path
     style="fill:#231f20;fill-opacity:1;fill-rule:nonzero;stroke:none"
     d="m 116.4278,29.808 c 1.271,0.452 1.296,1.442 0.645,2.249 -0.193,0.24 -0.114,0.645 -0.317,0.864 -0.491,0.516 -2.24,0.496 -2.584,-0.963 -0.025,-0.104 -0.448,-0.808 -0.687,-1.38 -0.453,-1.12 -0.824,-3.594 0.796,-5.745 0.766,-1.025 1.23,-0.385 1.042,0.125 -0.588,1.604 -0.323,1.864 -0.323,2.344 -0.011,1.619 1.428,2.506 1.428,2.506"
     id="path151" />
  <path
     style="fill:none;stroke:#231f20;stroke-width:0.332927;stroke-linecap:butt;stroke-linejoin:miter;stroke-miterlimit:4;stroke-dasharray:none;stroke-opacity:1"
     d="m 116.4278,29.808 c 1.271,0.452 1.296,1.442 0.645,2.249 -0.193,0.24 -0.114,0.645 -0.317,0.864 -0.491,0.516 -2.24,0.496 -2.584,-0.963 -0.025,-0.104 -0.448,-0.808 -0.687,-1.38 -0.453,-1.12 -0.824,-3.594 0.796,-5.745 0.766,-1.025 1.23,-0.385 1.042,0.125 -0.588,1.604 -0.323,1.864 -0.323,2.344 -0.011,1.619 1.428,2.506 1.428,2.506 z"
     id="path152" />
  <path
     style="fill:#231f20;fill-opacity:1;fill-rule:nonzero;stroke:none"
     d="m 120.5568,48.093 c 2.23,-0.4 2.61,-0.776 2.5,-1.728 -0.072,-0.636 0.084,-1.251 0.058,-1.641 -0.083,-1.292 -0.76,-3.432 -4.255,-9.011 -0.797,-1.26 -1.901,-3.047 -2.292,-3.812 -0.62,-1.203 -2.203,0.64 -1.969,1.115 0.772,1.53 1.172,2.65 1.37,3.244 0.14,0.401 0.479,1.089 0.807,2.718 0.5,2.48 0.428,4.038 1.084,6.048 0.301,0.932 -0.063,1.828 0.703,2.594 0.765,0.77 1.994,0.473 1.994,0.473"
     id="path153" />
  <path
     style="fill:none;stroke:#231f20;stroke-width:0.565977;stroke-linecap:butt;stroke-linejoin:miter;stroke-miterlimit:4;stroke-dasharray:none;stroke-opacity:1"
     d="m 120.5568,48.093 c 2.23,-0.4 2.61,-0.776 2.5,-1.728 -0.072,-0.636 0.084,-1.251 0.058,-1.641 -0.083,-1.292 -0.76,-3.432 -4.255,-9.011 -0.797,-1.26 -1.901,-3.047 -2.292,-3.812 -0.62,-1.203 -2.203,0.64 -1.969,1.115 0.772,1.53 1.172,2.65 1.37,3.244 0.14,0.401 0.479,1.089 0.807,2.718 0.5,2.48 0.428,4.038 1.084,6.048 0.301,0.932 -0.063,1.828 0.703,2.594 0.765,0.77 1.994,0.473 1.994,0.473 z"
     id="path154" />
  <path
     style="fill:#ca0369;fill-opacity:1;fill-rule:nonzero;stroke:none"
     d="m 132.4848,70.88 c -1.5,-2.75 -1.526,-3.506 -1.609,-4.422 -0.563,-5.756 -3.376,-5.369 -5.615,-3.552 -2.63,2.135 -3.62,2.844 -0.089,8.058 0.984,1.453 4.021,7.505 4.021,7.505 0.796,2.312 2.807,4.145 4.26,4.287 1.527,0.145 0.932,-0.027 2.37,-0.147 1.376,-0.115 3.157,-1.38 3.261,-2.615 0.109,-1.182 -1.245,-2.15 -3.011,-3.812 -1.39,-1.313 -3.588,-5.302 -3.588,-5.302"
     id="path155" />
  <path
     style="fill:none;stroke:#231f20;stroke-width:0.565977;stroke-linecap:butt;stroke-linejoin:miter;stroke-miterlimit:4;stroke-dasharray:none;stroke-opacity:1"
     d="m 132.4848,70.88 c -1.5,-2.75 -1.526,-3.506 -1.609,-4.422 -0.563,-5.756 -3.376,-5.369 -5.615,-3.552 -2.63,2.135 -3.62,2.844 -0.089,8.058 0.984,1.453 4.021,7.505 4.021,7.505 0.796,2.312 2.807,4.145 4.26,4.287 1.527,0.145 0.932,-0.027 2.37,-0.147 1.376,-0.115 3.157,-1.38 3.261,-2.615 0.109,-1.182 -1.245,-2.15 -3.011,-3.812 -1.39,-1.313 -3.588,-5.302 -3.588,-5.302 z"
     id="path156" />
  <path
     style="fill:#ffffff;fill-opacity:1;fill-rule:nonzero;stroke:none"
     d="m 139.9278,89.396 c 0.161,0.177 -0.448,1.15 -0.027,1.464 0.427,0.306 1.036,-0.188 2.995,0.186 l 0.016,0.011 c 1.416,0.323 2.781,0.027 3.599,-0.916 1.36,-1.573 0.729,-4.344 -1.402,-6.193 -2.14,-1.85 -4.968,-2.074 -6.328,-0.506 -1.301,1.5 -0.781,4.11 1.147,5.954"
     id="path157" />
  <path
     style="fill:none;stroke:#231f20;stroke-width:0.565977;stroke-linecap:butt;stroke-linejoin:miter;stroke-miterlimit:4;stroke-dasharray:none;stroke-opacity:1"
     d="m 139.9278,89.396 c 0.161,0.177 -0.448,1.15 -0.027,1.464 0.427,0.306 1.036,-0.188 2.995,0.186 l 0.016,0.011 c 1.416,0.323 2.781,0.027 3.599,-0.916 1.36,-1.573 0.729,-4.344 -1.402,-6.193 -2.14,-1.85 -4.968,-2.074 -6.328,-0.506 -1.301,1.5 -0.781,4.11 1.147,5.954 z"
     id="path158" />
  <path
     style="fill:#231f20;fill-opacity:1;fill-rule:nonzero;stroke:none"
     d="m 120.6928,45.625 c -4,0.375 -1.838,3.839 -1.797,4.312 0.443,4.995 0.599,5.344 1.204,9.115 0.875,5.458 2.307,9.062 5.629,9.484 2.256,0.281 3.678,-0.526 4.314,-1.682 0.702,-1.281 0.78,-4.458 -1.626,-6.057 l -0.713,-1.557 c -0.344,-1.115 -0.516,-1.656 -0.652,-2.219 -0.219,-0.985 -0.509,-2.011 -1.052,-3.896 -0.943,-3.339 -3.047,-6.557 -3.047,-6.557 -0.364,-1.194 -2.26,-0.943 -2.26,-0.943"
     id="path159" />
  <path
     style="fill:none;stroke:#231f20;stroke-width:0.565977;stroke-linecap:butt;stroke-linejoin:miter;stroke-miterlimit:4;stroke-dasharray:none;stroke-opacity:1"
     d="m 120.6928,45.625 c -4,0.375 -1.838,3.839 -1.797,4.312 0.443,4.995 0.599,5.344 1.204,9.115 0.875,5.458 2.307,9.062 5.629,9.484 2.256,0.281 3.678,-0.526 4.314,-1.682 0.702,-1.281 0.78,-4.458 -1.626,-6.057 l -0.713,-1.557 c -0.344,-1.115 -0.516,-1.656 -0.652,-2.219 -0.219,-0.985 -0.509,-2.011 -1.052,-3.896 -0.943,-3.339 -3.047,-6.557 -3.047,-6.557 -0.364,-1.194 -2.26,-0.943 -2.26,-0.943 z"
     id="path160" />
  <path
     style="fill:#ca0369;fill-opacity:1;fill-rule:nonzero;stroke:none"
     d="m 128.1928,60.609 -7.516,2.136 c 0.219,0.62 0.454,1.176 0.699,1.708 0.004,0.079 0.015,0.161 0.009,0.235 -0.03,0.806 0.438,1.229 1.246,1.885 0.958,1.224 2.114,1.937 3.588,1.989 2.27,0.079 3.614,-0.86 4.141,-2.068 0.583,-1.333 0.369,-4.51 -2.167,-5.885"
     id="path161" />
  <path
     style="fill:none;stroke:#231f20;stroke-width:0.565977;stroke-linecap:butt;stroke-linejoin:miter;stroke-miterlimit:4;stroke-dasharray:none;stroke-opacity:1"
     d="m 128.1928,60.609 -7.516,2.136 c 0.219,0.62 0.454,1.176 0.699,1.708 0.004,0.079 0.015,0.161 0.009,0.235 -0.03,0.806 0.438,1.229 1.246,1.885 0.958,1.224 2.114,1.937 3.588,1.989 2.27,0.079 3.614,-0.86 4.141,-2.068 0.583,-1.333 0.369,-4.51 -2.167,-5.885 z"
     id="path162" />
  <path
     style="fill:#231f20;fill-opacity:1;fill-rule:nonzero;stroke:none"
     d="m 139.6718,59.177 c 0.26,0.588 -0.323,2.448 -0.183,4.047 0.1,1.084 -0.79,3.682 -0.613,4.75 0.161,0.979 0.14,1.443 -0.948,1.823 -0.647,0.224 -2.032,0.235 -2.219,-0.24 -0.444,-1.104 -0.422,-2.052 -0.177,-3.093 0.281,-1.183 1.323,-4.323 1.568,-4.886 0.613,-1.39 0.432,-2.104 0.556,-2.489 0.24,-0.724 0.579,-0.813 1.079,-0.761 0.953,0.104 0.937,0.849 0.937,0.849"
     id="path163" />
  <path
     style="fill:none;stroke:#231f20;stroke-width:0.565977;stroke-linecap:butt;stroke-linejoin:miter;stroke-miterlimit:4;stroke-dasharray:none;stroke-opacity:1"
     d="m 139.6718,59.177 c 0.26,0.588 -0.323,2.448 -0.183,4.047 0.1,1.084 -0.79,3.682 -0.613,4.75 0.161,0.979 0.14,1.443 -0.948,1.823 -0.647,0.224 -2.032,0.235 -2.219,-0.24 -0.444,-1.104 -0.422,-2.052 -0.177,-3.093 0.281,-1.183 1.323,-4.323 1.568,-4.886 0.613,-1.39 0.432,-2.104 0.556,-2.489 0.24,-0.724 0.579,-0.813 1.079,-0.761 0.953,0.104 0.937,0.849 0.937,0.849 z"
     id="path164" />
  <path
     style="fill:#231f20;fill-opacity:1;fill-rule:nonzero;stroke:none"
     d="m 138.2128,68.12 c 1.251,0.344 0.355,2.172 0.194,2.688 -0.162,0.52 -0.459,2.052 -0.531,3.265 -0.079,1.229 -0.699,2.719 -0.849,5.041 -0.074,1.219 -0.923,2.355 -2.688,2.167 -1.744,-0.188 -2.296,-1.24 -1.984,-2.703 0.317,-1.464 1.234,-2.704 1.661,-4.156 0.421,-1.448 0.719,-2.964 0.896,-4.168 0.197,-1.369 0.807,-1.968 1.265,-2.093 1.156,-0.301 2.036,-0.041 2.036,-0.041"
     id="path165" />
  <path
     style="fill:none;stroke:#231f20;stroke-width:0.565977;stroke-linecap:butt;stroke-linejoin:miter;stroke-miterlimit:4;stroke-dasharray:none;stroke-opacity:1"
     d="m 138.2128,68.12 c 1.251,0.344 0.355,2.172 0.194,2.688 -0.162,0.52 -0.459,2.052 -0.531,3.265 -0.079,1.229 -0.699,2.719 -0.849,5.041 -0.074,1.219 -0.923,2.355 -2.688,2.167 -1.744,-0.188 -2.296,-1.24 -1.984,-2.703 0.317,-1.464 1.234,-2.704 1.661,-4.156 0.421,-1.448 0.719,-2.964 0.896,-4.168 0.197,-1.369 0.807,-1.968 1.265,-2.093 1.156,-0.301 2.036,-0.041 2.036,-0.041 z"
     id="path166" />
  <path
     style="fill:#231f20;fill-opacity:1;fill-rule:nonzero;stroke:none"
     d="m 137.9168,58.932 c -0.636,-0.291 -0.734,-2.599 -0.437,-2.719 0.296,-0.115 0.244,0.652 0.583,0.537 0.338,-0.114 0.297,-0.614 0.526,-0.625 0.25,-0.016 0.208,0.588 0.506,0.516 0.118,-0.032 0.369,-0.573 0.557,-0.527 0.161,0.042 0.333,0.536 0.457,0.574 0.204,0.068 0.298,-0.543 0.475,-0.5 0.459,0.093 -0.319,2.697 -0.541,2.796 -0.319,0.152 -1.1,0.417 -2.126,-0.052"
     id="path167" />
  <path
     style="fill:none;stroke:#231f20;stroke-width:0.565977;stroke-linecap:round;stroke-linejoin:round;stroke-miterlimit:4;stroke-dasharray:none;stroke-opacity:1"
     d="m 137.9168,58.932 c -0.636,-0.291 -0.734,-2.599 -0.437,-2.719 0.296,-0.115 0.244,0.652 0.583,0.537 0.338,-0.114 0.297,-0.614 0.526,-0.625 0.25,-0.016 0.208,0.588 0.506,0.516 0.118,-0.032 0.369,-0.573 0.557,-0.527 0.161,0.042 0.333,0.536 0.457,0.574 0.204,0.068 0.298,-0.543 0.475,-0.5 0.459,0.093 -0.319,2.697 -0.541,2.796 -0.319,0.152 -1.1,0.417 -2.126,-0.052 z"
     id="path168" />
  <path
     style="fill:#ffffff;fill-opacity:1;fill-rule:nonzero;stroke:#231f20;stroke-width:0.665856;stroke-linecap:butt;stroke-linejoin:miter;stroke-miterlimit:4;stroke-dasharray:none;stroke-opacity:1"
     d="m 173.6198,16.688 0.084,31.672 h 1.333 l -0.084,-31.678 z"
     id="path169" />
  <path
     style="fill:#ffffff;fill-opacity:1;fill-rule:nonzero;stroke:none"
     d="m 170.1198,53.308 c -0.011,-2.355 1.901,-4.276 4.251,-4.282 2.358,-0.005 4.276,1.9 4.285,4.255 0.005,2.36 -1.905,4.276 -4.26,4.281 -2.353,0.011 -4.271,-1.901 -4.276,-4.254 m -1.333,0 c 0.01,3.088 2.526,5.593 5.614,5.588 3.088,-0.011 5.594,-2.527 5.584,-5.615 -0.005,-3.088 -2.526,-5.593 -5.614,-5.588 -3.09,0.009 -5.595,2.525 -5.584,5.615"
     id="path170" />
  <path
     style="fill:none;stroke:#231f20;stroke-width:0.665856;stroke-linecap:butt;stroke-linejoin:miter;stroke-miterlimit:4;stroke-dasharray:none;stroke-opacity:1"
     d="m 170.1198,53.308 c -0.011,-2.355 1.901,-4.276 4.251,-4.282 2.358,-0.005 4.276,1.9 4.285,4.255 0.005,2.36 -1.905,4.276 -4.26,4.281 -2.353,0.011 -4.271,-1.901 -4.276,-4.254 z m -1.333,0 c 0.01,3.088 2.526,5.593 5.614,5.588 3.088,-0.011 5.594,-2.527 5.584,-5.615 -0.005,-3.088 -2.526,-5.593 -5.614,-5.588 -3.09,0.009 -5.595,2.525 -5.584,5.615 z"
     id="path171" />
  <path
     style="fill:#231f20;fill-opacity:1;fill-rule:nonzero;stroke:none"
     d="m 142.8278,111.698 c -0.025,-1.355 0.896,-1.724 1.881,-1.396 0.291,0.093 0.646,-0.125 0.922,-0.011 0.65,0.276 1.249,1.916 0.005,2.755 -0.084,0.063 -0.593,0.704 -1.047,1.131 -0.89,0.817 -3.073,2.041 -5.657,1.286 -1.228,-0.36 -0.791,-1.016 -0.249,-1.021 1.708,-0.02 1.86,-0.359 2.306,-0.525 1.522,-0.563 1.839,-2.219 1.839,-2.219"
     id="path172" />
  <path
     style="fill:none;stroke:#231f20;stroke-width:0.332927;stroke-linecap:butt;stroke-linejoin:miter;stroke-miterlimit:4;stroke-dasharray:none;stroke-opacity:1"
     d="m 142.8278,111.698 c -0.025,-1.355 0.896,-1.724 1.881,-1.396 0.291,0.093 0.646,-0.125 0.922,-0.011 0.65,0.276 1.249,1.916 0.005,2.755 -0.084,0.063 -0.593,0.704 -1.047,1.131 -0.89,0.817 -3.073,2.041 -5.657,1.286 -1.228,-0.36 -0.791,-1.016 -0.249,-1.021 1.708,-0.02 1.86,-0.359 2.306,-0.525 1.522,-0.563 1.839,-2.219 1.839,-2.219 z"
     id="path173" />
  <path
     style="fill:#231f20;fill-opacity:1;fill-rule:nonzero;stroke:none"
     d="m 158.4848,101.379 c -1.166,-1.942 -1.652,-2.166 -2.505,-1.734 -0.568,0.297 -1.193,0.371 -1.552,0.526 -1.177,0.542 -2.943,1.927 -6.928,7.167 -0.901,1.188 -2.181,2.855 -2.76,3.484 -0.912,1.011 1.38,1.839 1.735,1.453 1.166,-1.26 2.072,-2.036 2.552,-2.432 0.333,-0.27 0.849,-0.828 2.265,-1.713 2.141,-1.339 3.62,-1.823 5.276,-3.147 0.765,-0.609 1.729,-0.582 2.172,-1.572 0.459,-0.985 -0.255,-2.032 -0.255,-2.032"
     id="path174" />
  <path
     style="fill:none;stroke:#231f20;stroke-width:0.565977;stroke-linecap:butt;stroke-linejoin:miter;stroke-miterlimit:4;stroke-dasharray:none;stroke-opacity:1"
     d="m 158.4848,101.379 c -1.166,-1.942 -1.652,-2.166 -2.505,-1.734 -0.568,0.297 -1.193,0.371 -1.552,0.526 -1.177,0.542 -2.943,1.927 -6.928,7.167 -0.901,1.188 -2.181,2.855 -2.76,3.484 -0.912,1.011 1.38,1.839 1.735,1.453 1.166,-1.26 2.072,-2.036 2.552,-2.432 0.333,-0.27 0.849,-0.828 2.265,-1.713 2.141,-1.339 3.62,-1.823 5.276,-3.147 0.765,-0.609 1.729,-0.582 2.172,-1.572 0.459,-0.985 -0.255,-2.032 -0.255,-2.032 z"
     id="path175" />
  <path
     style="fill:#ca0369;fill-opacity:1;fill-rule:nonzero;stroke:none"
     d="m 175.5948,82.177 c -2.048,2.375 -2.746,2.661 -3.568,3.068 -5.188,2.552 -3.839,5.052 -1.35,6.505 2.927,1.708 3.943,2.38 7.579,-2.761 1.005,-1.432 5.593,-6.411 5.593,-6.411 1.885,-1.562 2.891,-4.089 2.511,-5.494 -0.402,-1.486 -0.35,-0.866 -0.975,-2.167 -0.588,-1.251 -2.4,-2.469 -3.593,-2.136 -1.14,0.317 -1.579,1.927 -2.505,4.167 -0.74,1.765 -3.692,5.229 -3.692,5.229"
     id="path176" />
  <path
     style="fill:none;stroke:#231f20;stroke-width:0.565977;stroke-linecap:butt;stroke-linejoin:miter;stroke-miterlimit:4;stroke-dasharray:none;stroke-opacity:1"
     d="m 175.5948,82.177 c -2.048,2.375 -2.746,2.661 -3.568,3.068 -5.188,2.552 -3.839,5.052 -1.35,6.505 2.927,1.708 3.943,2.38 7.579,-2.761 1.005,-1.432 5.593,-6.411 5.593,-6.411 1.885,-1.562 2.891,-4.089 2.511,-5.494 -0.402,-1.486 -0.35,-0.866 -0.975,-2.167 -0.588,-1.251 -2.4,-2.469 -3.593,-2.136 -1.14,0.317 -1.579,1.927 -2.505,4.167 -0.74,1.765 -3.692,5.229 -3.692,5.229 z"
     id="path177" />
  <path
     style="fill:#ffffff;fill-opacity:1;fill-rule:nonzero;stroke:none"
     d="m 190.2918,68.677 c 0.109,-0.213 1.234,0.011 1.374,-0.489 0.142,-0.511 -0.536,-0.907 -0.874,-2.871 v -0.015 c -0.198,-1.442 -0.954,-2.614 -2.131,-3.048 -1.952,-0.718 -4.317,0.85 -5.296,3.496 -0.975,2.656 -0.188,5.386 1.76,6.099 1.864,0.692 4.125,-0.713 5.167,-3.172"
     id="path178" />
  <path
     style="fill:none;stroke:#231f20;stroke-width:0.565977;stroke-linecap:butt;stroke-linejoin:miter;stroke-miterlimit:4;stroke-dasharray:none;stroke-opacity:1"
     d="m 190.2918,68.677 c 0.109,-0.213 1.234,0.011 1.374,-0.489 0.142,-0.511 -0.536,-0.907 -0.874,-2.871 v -0.015 c -0.198,-1.442 -0.954,-2.614 -2.131,-3.048 -1.952,-0.718 -4.317,0.85 -5.296,3.496 -0.975,2.656 -0.188,5.386 1.76,6.099 1.864,0.692 4.125,-0.713 5.167,-3.172 z"
     id="path179" />
  <path
     style="fill:#231f20;fill-opacity:1;fill-rule:nonzero;stroke:none"
     d="m 156.1308,102.125 c 1.754,3.604 4.234,0.358 4.666,0.156 4.516,-2.172 4.782,-2.448 8.104,-4.344 4.798,-2.739 7.662,-5.353 6.88,-8.615 -0.53,-2.208 -1.786,-3.254 -3.093,-3.437 -1.443,-0.208 -4.448,0.844 -5.093,3.656 l -1.21,1.215 c -0.916,0.718 -1.364,1.072 -1.842,1.394 -0.839,0.552 -1.704,1.188 -3.272,2.36 -2.791,2.063 -5.062,5.162 -5.062,5.162 -0.985,0.765 -0.078,2.453 -0.078,2.453"
     id="path180" />
  <path
     style="fill:none;stroke:#231f20;stroke-width:0.565977;stroke-linecap:butt;stroke-linejoin:miter;stroke-miterlimit:4;stroke-dasharray:none;stroke-opacity:1"
     d="m 156.1308,102.125 c 1.754,3.604 4.234,0.358 4.666,0.156 4.516,-2.172 4.782,-2.448 8.104,-4.344 4.798,-2.739 7.662,-5.353 6.88,-8.615 -0.53,-2.208 -1.786,-3.254 -3.093,-3.437 -1.443,-0.208 -4.448,0.844 -5.093,3.656 l -1.21,1.215 c -0.916,0.718 -1.364,1.072 -1.842,1.394 -0.839,0.552 -1.704,1.188 -3.272,2.36 -2.791,2.063 -5.062,5.162 -5.062,5.162 -0.985,0.765 -0.078,2.453 -0.078,2.453 z"
     id="path181" />
  <path
     style="fill:#ca0369;fill-opacity:1;fill-rule:nonzero;stroke:none"
     d="m 175.6358,88.86 c -0.729,-2.158 -2.079,-3.084 -3.396,-3.147 -1.453,-0.077 -4.349,1.245 -4.74,4.104 l 4.652,6.276 c 0.5,-0.421 0.943,-0.839 1.348,-1.255 0.073,-0.036 0.147,-0.068 0.213,-0.093 0.772,-0.256 0.996,-0.839 1.33,-1.828 0.801,-1.329 1.066,-2.663 0.593,-4.057"
     id="path182" />
  <path
     style="fill:none;stroke:#231f20;stroke-width:0.565977;stroke-linecap:butt;stroke-linejoin:miter;stroke-miterlimit:4;stroke-dasharray:none;stroke-opacity:1"
     d="m 175.6358,88.86 c -0.729,-2.158 -2.079,-3.084 -3.396,-3.147 -1.453,-0.077 -4.349,1.245 -4.74,4.104 l 4.652,6.276 c 0.5,-0.421 0.943,-0.839 1.348,-1.255 0.073,-0.036 0.147,-0.068 0.213,-0.093 0.772,-0.256 0.996,-0.839 1.33,-1.828 0.801,-1.329 1.066,-2.663 0.593,-4.057 z"
     id="path183" />
  <path
     style="fill:#231f20;fill-opacity:1;fill-rule:nonzero;stroke:none"
     d="m 174.7128,58.474 c 0.552,0.338 1.152,2.187 2.194,3.411 0.708,0.823 1.478,3.464 2.245,4.229 0.697,0.708 0.952,1.094 0.281,2.031 -0.396,0.557 -1.521,1.371 -1.948,1.095 -1,-0.647 -1.532,-1.428 -1.933,-2.423 -0.452,-1.124 -1.421,-4.296 -1.547,-4.896 -0.301,-1.489 -0.869,-1.963 -0.984,-2.353 -0.224,-0.73 0,-0.99 0.438,-1.235 0.838,-0.468 1.254,0.141 1.254,0.141"
     id="path184" />
  <path
     style="fill:none;stroke:#231f20;stroke-width:0.565977;stroke-linecap:butt;stroke-linejoin:miter;stroke-miterlimit:4;stroke-dasharray:none;stroke-opacity:1"
     d="m 174.7128,58.474 c 0.552,0.338 1.152,2.187 2.194,3.411 0.708,0.823 1.478,3.464 2.245,4.229 0.697,0.708 0.952,1.094 0.281,2.031 -0.396,0.557 -1.521,1.371 -1.948,1.095 -1,-0.647 -1.532,-1.428 -1.933,-2.423 -0.452,-1.124 -1.421,-4.296 -1.547,-4.896 -0.301,-1.489 -0.869,-1.963 -0.984,-2.353 -0.224,-0.73 0,-0.99 0.438,-1.235 0.838,-0.468 1.254,0.141 1.254,0.141 z"
     id="path185" />
  <path
     style="fill:#231f20;fill-opacity:1;fill-rule:nonzero;stroke:none"
     d="m 178.6988,66.614 c 1.218,-0.437 1.541,1.568 1.713,2.084 0.166,0.515 0.812,1.938 1.453,2.974 0.645,1.041 1.005,2.62 2.229,4.598 0.635,1.038 0.604,2.459 -0.948,3.323 -1.532,0.86 -2.589,0.319 -3.177,-1.057 -0.589,-1.375 -0.557,-2.922 -1.052,-4.348 -0.489,-1.428 -1.13,-2.834 -1.682,-3.918 -0.626,-1.234 -0.479,-2.072 -0.172,-2.442 0.77,-0.916 1.636,-1.214 1.636,-1.214"
     id="path186" />
  <path
     style="fill:none;stroke:#231f20;stroke-width:0.565977;stroke-linecap:butt;stroke-linejoin:miter;stroke-miterlimit:4;stroke-dasharray:none;stroke-opacity:1"
     d="m 178.6988,66.614 c 1.218,-0.437 1.541,1.568 1.713,2.084 0.166,0.515 0.812,1.938 1.453,2.974 0.645,1.041 1.005,2.62 2.229,4.598 0.635,1.038 0.604,2.459 -0.948,3.323 -1.532,0.86 -2.589,0.319 -3.177,-1.057 -0.589,-1.375 -0.557,-2.922 -1.052,-4.348 -0.489,-1.428 -1.13,-2.834 -1.682,-3.918 -0.626,-1.234 -0.479,-2.072 -0.172,-2.442 0.77,-0.916 1.636,-1.214 1.636,-1.214 z"
     id="path187" />
  <path
     style="fill:#231f20;fill-opacity:1;fill-rule:nonzero;stroke:none"
     d="m 172.6408,58.932 c -0.636,-0.291 -0.734,-2.599 -0.437,-2.719 0.296,-0.115 0.244,0.652 0.583,0.537 0.338,-0.114 0.292,-0.614 0.526,-0.625 0.25,-0.016 0.208,0.588 0.506,0.516 0.118,-0.032 0.369,-0.573 0.557,-0.527 0.156,0.042 0.333,0.536 0.457,0.574 0.204,0.068 0.298,-0.543 0.475,-0.5 0.453,0.093 -0.323,2.697 -0.541,2.796 -0.319,0.152 -1.1,0.417 -2.126,-0.052"
     id="path188" />
  <path
     style="fill:none;stroke:#231f20;stroke-width:0.565977;stroke-linecap:round;stroke-linejoin:round;stroke-miterlimit:4;stroke-dasharray:none;stroke-opacity:1"
     d="m 172.6408,58.932 c -0.636,-0.291 -0.734,-2.599 -0.437,-2.719 0.296,-0.115 0.244,0.652 0.583,0.537 0.338,-0.114 0.292,-0.614 0.526,-0.625 0.25,-0.016 0.208,0.588 0.506,0.516 0.118,-0.032 0.369,-0.573 0.557,-0.527 0.156,0.042 0.333,0.536 0.457,0.574 0.204,0.068 0.298,-0.543 0.475,-0.5 0.453,0.093 -0.323,2.697 -0.541,2.796 -0.319,0.152 -1.1,0.417 -2.126,-0.052 z"
     id="path189" />
  <path
     style="fill:#ffffff;fill-opacity:1;fill-rule:nonzero;stroke:#231f20;stroke-width:0.665856;stroke-linecap:butt;stroke-linejoin:miter;stroke-miterlimit:4;stroke-dasharray:none;stroke-opacity:1"
     d="m 201.6138,16.688 0.084,31.672 h 1.334 l -0.084,-31.678 z"
     id="path190" />
  <path
     style="fill:#ffffff;fill-opacity:1;fill-rule:nonzero;stroke:none"
     d="m 198.1138,53.308 c -0.01,-2.355 1.902,-4.276 4.256,-4.282 2.354,-0.005 4.276,1.9 4.282,4.255 0.004,2.36 -1.907,4.276 -4.262,4.281 -2.348,0.011 -4.27,-1.901 -4.276,-4.254 m -1.333,0 c 0.011,3.088 2.527,5.593 5.615,5.588 3.089,-0.011 5.593,-2.527 5.589,-5.615 -0.011,-3.088 -2.532,-5.593 -5.62,-5.588 -3.089,0.009 -5.595,2.525 -5.584,5.615"
     id="path191" />
  <path
     style="fill:none;stroke:#231f20;stroke-width:0.665856;stroke-linecap:butt;stroke-linejoin:miter;stroke-miterlimit:4;stroke-dasharray:none;stroke-opacity:1"
     d="m 198.1138,53.308 c -0.01,-2.355 1.902,-4.276 4.256,-4.282 2.354,-0.005 4.276,1.9 4.282,4.255 0.004,2.36 -1.907,4.276 -4.262,4.281 -2.348,0.011 -4.27,-1.901 -4.276,-4.254 z m -1.333,0 c 0.011,3.088 2.527,5.593 5.615,5.588 3.089,-0.011 5.593,-2.527 5.589,-5.615 -0.011,-3.088 -2.532,-5.593 -5.62,-5.588 -3.089,0.009 -5.595,2.525 -5.584,5.615 z"
     id="path192" />
  <path
     style="fill:#231f20;fill-opacity:1;fill-rule:nonzero;stroke:none"
     d="m 253.8848,86.302 c -0.599,1.214 -1.588,1.12 -2.312,0.375 -0.213,-0.219 -0.631,-0.188 -0.823,-0.417 -0.448,-0.547 -0.224,-2.282 1.266,-2.448 0.104,-0.02 0.854,-0.354 1.453,-0.52 1.167,-0.318 3.667,-0.396 5.609,1.468 0.927,0.885 0.235,1.266 -0.25,1.021 -1.526,-0.771 -1.812,-0.541 -2.286,-0.599 -1.61,-0.198 -2.657,1.12 -2.657,1.12"
     id="path193" />
  <path
     style="fill:none;stroke:#231f20;stroke-width:0.332927;stroke-linecap:butt;stroke-linejoin:miter;stroke-miterlimit:4;stroke-dasharray:none;stroke-opacity:1"
     d="m 253.8848,86.302 c -0.599,1.214 -1.588,1.12 -2.312,0.375 -0.213,-0.219 -0.631,-0.188 -0.823,-0.417 -0.448,-0.547 -0.224,-2.282 1.266,-2.448 0.104,-0.02 0.854,-0.354 1.453,-0.52 1.167,-0.318 3.667,-0.396 5.609,1.468 0.927,0.885 0.235,1.266 -0.25,1.021 -1.526,-0.771 -1.812,-0.541 -2.286,-0.599 -1.61,-0.198 -2.657,1.12 -2.657,1.12 z"
     id="path194" />
  <path
     style="fill:#231f20;fill-opacity:1;fill-rule:nonzero;stroke:none"
     d="m 235.2338,88.24 c 0.142,2.26 0.47,2.686 1.422,2.692 0.646,0 1.234,0.224 1.62,0.25 1.297,0.068 3.5,-0.349 9.458,-3.161 1.344,-0.641 3.246,-1.532 4.052,-1.828 1.271,-0.469 -0.374,-2.261 -0.869,-2.084 -1.615,0.584 -2.776,0.849 -3.385,0.98 -0.418,0.088 -1.136,0.343 -2.798,0.479 -2.521,0.197 -4.057,-0.052 -6.136,0.358 -0.957,0.188 -1.801,-0.281 -2.656,0.391 -0.853,0.667 -0.708,1.923 -0.708,1.923"
     id="path195" />
  <path
     style="fill:none;stroke:#231f20;stroke-width:0.565977;stroke-linecap:butt;stroke-linejoin:miter;stroke-miterlimit:4;stroke-dasharray:none;stroke-opacity:1"
     d="m 235.2338,88.24 c 0.142,2.26 0.47,2.686 1.422,2.692 0.646,0 1.234,0.224 1.62,0.25 1.297,0.068 3.5,-0.349 9.458,-3.161 1.344,-0.641 3.246,-1.532 4.052,-1.828 1.271,-0.469 -0.374,-2.261 -0.869,-2.084 -1.615,0.584 -2.776,0.849 -3.385,0.98 -0.418,0.088 -1.136,0.343 -2.798,0.479 -2.521,0.197 -4.057,-0.052 -6.136,0.358 -0.957,0.188 -1.801,-0.281 -2.656,0.391 -0.853,0.667 -0.708,1.923 -0.708,1.923 z"
     id="path196" />
  <path
     style="fill:#ca0369;fill-opacity:1;fill-rule:nonzero;stroke:none"
     d="m 214.2038,84.974 c 0.686,3.062 0.494,3.791 0.333,4.698 -1.052,5.682 1.755,6.088 4.411,4.964 3.12,-1.328 4.265,-1.746 2.308,-7.73 -0.547,-1.661 -1.803,-8.318 -1.803,-8.318 -0.125,-2.443 -1.557,-4.76 -2.911,-5.291 -1.428,-0.563 -0.901,-0.235 -2.318,-0.516 -1.354,-0.265 -3.411,0.459 -3.859,1.615 -0.428,1.104 0.604,2.412 1.848,4.494 0.975,1.646 1.991,6.084 1.991,6.084"
     id="path197" />
  <path
     style="fill:none;stroke:#231f20;stroke-width:0.565977;stroke-linecap:butt;stroke-linejoin:miter;stroke-miterlimit:4;stroke-dasharray:none;stroke-opacity:1"
     d="m 214.2038,84.974 c 0.686,3.062 0.494,3.791 0.333,4.698 -1.052,5.682 1.755,6.088 4.411,4.964 3.12,-1.328 4.265,-1.746 2.308,-7.73 -0.547,-1.661 -1.803,-8.318 -1.803,-8.318 -0.125,-2.443 -1.557,-4.76 -2.911,-5.291 -1.428,-0.563 -0.901,-0.235 -2.318,-0.516 -1.354,-0.265 -3.411,0.459 -3.859,1.615 -0.428,1.104 0.604,2.412 1.848,4.494 0.975,1.646 1.991,6.084 1.991,6.084 z"
     id="path198" />
  <path
     style="fill:#ffffff;fill-opacity:1;fill-rule:nonzero;stroke:none"
     d="m 215.6198,68.281 c 0.057,-0.235 1.202,-0.287 1.218,-0.807 0.016,-0.526 -0.738,-0.75 -1.536,-2.578 l -0.005,-0.016 c -0.536,-1.348 -1.552,-2.307 -2.797,-2.448 -2.063,-0.23 -3.99,1.86 -4.302,4.661 -0.313,2.813 1.104,5.272 3.167,5.505 1.973,0.219 3.833,-1.681 4.255,-4.317"
     id="path199" />
  <path
     style="fill:none;stroke:#231f20;stroke-width:0.565977;stroke-linecap:butt;stroke-linejoin:miter;stroke-miterlimit:4;stroke-dasharray:none;stroke-opacity:1"
     d="m 215.6198,68.281 c 0.057,-0.235 1.202,-0.287 1.218,-0.807 0.016,-0.526 -0.738,-0.75 -1.536,-2.578 l -0.005,-0.016 c -0.536,-1.348 -1.552,-2.307 -2.797,-2.448 -2.063,-0.23 -3.99,1.86 -4.302,4.661 -0.313,2.813 1.104,5.272 3.167,5.505 1.973,0.219 3.833,-1.681 4.255,-4.317 z"
     id="path200" />
  <path
     style="fill:#231f20;fill-opacity:1;fill-rule:nonzero;stroke:none"
     d="m 237.6658,88.666 c 0.104,-4.01 -3.588,-2.276 -4.068,-2.292 -5.004,-0.15 -5.369,-0.03 -9.186,0.12 -5.527,0.219 -9.276,1.219 -10.084,4.47 -0.547,2.202 0.089,3.713 1.161,4.478 1.188,0.85 4.333,1.298 6.204,-0.901 l 1.629,-0.52 c 1.152,-0.209 1.71,-0.319 2.282,-0.38 1.005,-0.105 2.057,-0.272 3.99,-0.589 3.432,-0.542 6.875,-2.25 6.875,-2.25 1.224,-0.224 1.197,-2.136 1.197,-2.136"
     id="path201" />
  <path
     style="fill:none;stroke:#231f20;stroke-width:0.565977;stroke-linecap:butt;stroke-linejoin:miter;stroke-miterlimit:4;stroke-dasharray:none;stroke-opacity:1"
     d="m 237.6658,88.666 c 0.104,-4.01 -3.588,-2.276 -4.068,-2.292 -5.004,-0.15 -5.369,-0.03 -9.186,0.12 -5.527,0.219 -9.276,1.219 -10.084,4.47 -0.547,2.202 0.089,3.713 1.161,4.478 1.188,0.85 4.333,1.298 6.204,-0.901 l 1.629,-0.52 c 1.152,-0.209 1.71,-0.319 2.282,-0.38 1.005,-0.105 2.057,-0.272 3.99,-0.589 3.432,-0.542 6.875,-2.25 6.875,-2.25 1.224,-0.224 1.197,-2.136 1.197,-2.136 z"
     id="path202" />
  <path
     style="fill:#ca0369;fill-opacity:1;fill-rule:nonzero;stroke:#231f20;stroke-width:0.565977;stroke-linecap:butt;stroke-linejoin:miter;stroke-miterlimit:4;stroke-dasharray:none;stroke-opacity:1"
     d="m 220.6718,86.63 c -0.635,0.14 -1.219,0.307 -1.776,0.49 -0.083,0 -0.162,-0.006 -0.235,-0.016 -0.796,-0.13 -1.271,0.286 -2.02,1.016 -1.323,0.806 -2.172,1.869 -2.396,3.322 -0.349,2.251 0.421,3.694 1.563,4.36 1.254,0.734 4.432,0.9 6.098,-1.458 z"
     id="path203" />
  <path
     style="fill:#231f20;fill-opacity:1;fill-rule:nonzero;stroke:none"
     d="m 202.5978,58.412 c 0.62,0.192 1.642,1.848 2.948,2.786 0.882,0.635 2.262,3.01 3.188,3.572 0.844,0.516 1.188,0.834 0.76,1.907 -0.249,0.635 -1.145,1.692 -1.629,1.525 -1.125,-0.39 -1.828,-1.025 -2.459,-1.89 -0.708,-0.984 -2.406,-3.828 -2.672,-4.38 -0.65,-1.38 -1.312,-1.703 -1.521,-2.052 -0.385,-0.651 -0.233,-0.963 0.136,-1.307 0.697,-0.652 1.249,-0.161 1.249,-0.161"
     id="path204" />
  <path
     style="fill:none;stroke:#231f20;stroke-width:0.565977;stroke-linecap:butt;stroke-linejoin:miter;stroke-miterlimit:4;stroke-dasharray:none;stroke-opacity:1"
     d="m 202.5978,58.412 c 0.62,0.192 1.642,1.848 2.948,2.786 0.882,0.635 2.262,3.01 3.188,3.572 0.844,0.516 1.188,0.834 0.76,1.907 -0.249,0.635 -1.145,1.692 -1.629,1.525 -1.125,-0.39 -1.828,-1.025 -2.459,-1.89 -0.708,-0.984 -2.406,-3.828 -2.672,-4.38 -0.65,-1.38 -1.312,-1.703 -1.521,-2.052 -0.385,-0.651 -0.233,-0.963 0.136,-1.307 0.697,-0.652 1.249,-0.161 1.249,-0.161 z"
     id="path205" />
  <path
     style="fill:#231f20;fill-opacity:1;fill-rule:nonzero;stroke:none"
     d="m 208.4168,65.36 c 1.077,-0.715 1.875,1.156 2.161,1.618 0.282,0.459 1.25,1.683 2.12,2.538 0.88,0.858 1.604,2.301 3.266,3.932 0.869,0.854 1.177,2.24 -0.126,3.453 -1.276,1.197 -2.437,0.927 -3.338,-0.265 -0.902,-1.199 -1.239,-2.704 -2.058,-3.975 -0.822,-1.265 -1.776,-2.479 -2.572,-3.401 -0.906,-1.047 -0.964,-1.9 -0.756,-2.328 0.532,-1.072 1.303,-1.572 1.303,-1.572"
     id="path206" />
  <path
     style="fill:none;stroke:#231f20;stroke-width:0.565977;stroke-linecap:butt;stroke-linejoin:miter;stroke-miterlimit:4;stroke-dasharray:none;stroke-opacity:1"
     d="m 208.4168,65.36 c 1.077,-0.715 1.875,1.156 2.161,1.618 0.282,0.459 1.25,1.683 2.12,2.538 0.88,0.858 1.604,2.301 3.266,3.932 0.869,0.854 1.177,2.24 -0.126,3.453 -1.276,1.197 -2.437,0.927 -3.338,-0.265 -0.902,-1.199 -1.239,-2.704 -2.058,-3.975 -0.822,-1.265 -1.776,-2.479 -2.572,-3.401 -0.906,-1.047 -0.964,-1.9 -0.756,-2.328 0.532,-1.072 1.303,-1.572 1.303,-1.572 z"
     id="path207" />
  <path
     style="fill:#231f20;fill-opacity:1;fill-rule:nonzero;stroke:none"
     d="m 200.6408,58.932 c -0.641,-0.291 -0.74,-2.599 -0.443,-2.719 0.296,-0.115 0.244,0.652 0.583,0.537 0.339,-0.114 0.297,-0.614 0.527,-0.625 0.249,-0.016 0.208,0.588 0.505,0.516 0.119,-0.032 0.369,-0.573 0.557,-0.527 0.162,0.042 0.334,0.536 0.458,0.574 0.209,0.068 0.297,-0.543 0.474,-0.5 0.459,0.093 -0.317,2.697 -0.541,2.796 -0.319,0.152 -1.1,0.417 -2.12,-0.052"
     id="path208" />
  <path
     style="fill:none;stroke:#231f20;stroke-width:0.565977;stroke-linecap:round;stroke-linejoin:round;stroke-miterlimit:4;stroke-dasharray:none;stroke-opacity:1"
     d="m 200.6408,58.932 c -0.641,-0.291 -0.74,-2.599 -0.443,-2.719 0.296,-0.115 0.244,0.652 0.583,0.537 0.339,-0.114 0.297,-0.614 0.527,-0.625 0.249,-0.016 0.208,0.588 0.505,0.516 0.119,-0.032 0.369,-0.573 0.557,-0.527 0.162,0.042 0.334,0.536 0.458,0.574 0.209,0.068 0.297,-0.543 0.474,-0.5 0.459,0.093 -0.317,2.697 -0.541,2.796 -0.319,0.152 -1.1,0.417 -2.12,-0.052 z"
     id="path209" />
  <path
     style="fill:none;stroke:#231f20;stroke-width:2.2639;stroke-linecap:butt;stroke-linejoin:miter;stroke-miterlimit:4;stroke-dasharray:29.574, 29.574, 29.574, 29.574, 29.574, 29.574;stroke-dashoffset:0;stroke-opacity:1"
     d="M 271.5158,18.026 V 75.521"
     id="path210" />
  <path
     style="fill:none;stroke:#231f20;stroke-width:2.2639;stroke-linecap:butt;stroke-linejoin:miter;stroke-miterlimit:4;stroke-dasharray:29.574, 29.574, 29.574, 29.574, 29.574, 29.574;stroke-dashoffset:0;stroke-opacity:1"
     d="m 271.5158,96.401 v 65.801"
     id="path211" />
  <path
     style="fill:#231f20;fill-opacity:1;fill-rule:nonzero;stroke:#231f20;stroke-width:0.565977;stroke-linecap:round;stroke-linejoin:round;stroke-miterlimit:4;stroke-dasharray:none;stroke-opacity:1"
     d="m 314.6188,54.406 c 0,0 1.178,-0.598 2.339,-0.584 1.161,0.022 2.407,0.558 2.407,0.558 v 3.297 h -4.787 z"
     id="path212" />
  <path
     style="fill:#231f20;fill-opacity:1;fill-rule:nonzero;stroke:none"
     d="m 320.1978,71.172 c 3.568,0.494 3.015,2.082 3.463,6.14 0.49,4.433 0.516,9.11 -0.422,12.276 -1.046,3.532 -0.625,3.838 -2.505,4.229 -1.875,0.396 -2.057,-0.364 -3.021,-1.213 -1.119,-0.99 0.614,-8.135 -0.072,-12.839 -0.323,-2.208 -2.522,-7.276 -1.172,-7.812 1.353,-0.536 3.729,-0.781 3.729,-0.781"
     id="path213" />
  <path
     style="fill:none;stroke:#231f20;stroke-width:0.565977;stroke-linecap:butt;stroke-linejoin:miter;stroke-miterlimit:4;stroke-dasharray:none;stroke-opacity:1"
     d="m 320.1978,71.172 c 3.568,0.494 3.015,2.082 3.463,6.14 0.49,4.433 0.516,9.11 -0.422,12.276 -1.046,3.532 -0.625,3.838 -2.505,4.229 -1.875,0.396 -2.057,-0.364 -3.021,-1.213 -1.119,-0.99 0.614,-8.135 -0.072,-12.839 -0.323,-2.208 -2.522,-7.276 -1.172,-7.812 1.353,-0.536 3.729,-0.781 3.729,-0.781 z"
     id="path214" />
  <path
     style="fill:#231f20;fill-opacity:1;fill-rule:nonzero;stroke:none"
     d="m 319.6708,91.833 c 2.251,-0.208 2.907,-0.301 2.74,2.199 -0.046,0.634 -0.292,2.39 -0.213,2.776 0.265,1.27 0.468,2.765 -1.412,9.071 -0.292,0.986 -0.525,2.943 -0.812,4.319 -0.271,1.328 -2.292,-0.027 -2.193,-0.553 0.328,-1.682 0.172,-2.834 0.208,-3.452 0.021,-0.428 0.204,-1.219 -0.114,-2.85 -0.813,-4.202 0.38,-5.546 0.286,-6.442 -0.271,-2.573 -1.026,-4.708 -0.438,-5.016 0.97,-0.495 1.948,-0.052 1.948,-0.052"
     id="path215" />
  <path
     style="fill:none;stroke:#231f20;stroke-width:0.565977;stroke-linecap:butt;stroke-linejoin:miter;stroke-miterlimit:4;stroke-dasharray:none;stroke-opacity:1"
     d="m 319.6708,91.833 c 2.251,-0.208 2.907,-0.301 2.74,2.199 -0.046,0.634 -0.292,2.39 -0.213,2.776 0.265,1.27 0.468,2.765 -1.412,9.071 -0.292,0.986 -0.525,2.943 -0.812,4.319 -0.271,1.328 -2.292,-0.027 -2.193,-0.553 0.328,-1.682 0.172,-2.834 0.208,-3.452 0.021,-0.428 0.204,-1.219 -0.114,-2.85 -0.813,-4.202 0.38,-5.546 0.286,-6.442 -0.271,-2.573 -1.026,-4.708 -0.438,-5.016 0.97,-0.495 1.948,-0.052 1.948,-0.052 z"
     id="path216" />
  <path
     style="fill:#231f20;fill-opacity:1;fill-rule:nonzero;stroke:none"
     d="m 313.9848,71.292 c -3.568,0.5 -3.016,2.088 -3.464,6.14 -0.484,4.433 -0.516,9.109 0.421,12.276 1.052,3.532 0.631,3.844 2.506,4.234 1.879,0.391 2.062,-0.369 3.026,-1.224 1.12,-0.984 -0.62,-8.13 0.068,-12.833 0.323,-2.203 2.52,-7.276 1.171,-7.812 -1.348,-0.537 -3.728,-0.781 -3.728,-0.781"
     id="path217" />
  <path
     style="fill:none;stroke:#231f20;stroke-width:0.565977;stroke-linecap:butt;stroke-linejoin:miter;stroke-miterlimit:4;stroke-dasharray:none;stroke-opacity:1"
     d="m 313.9848,71.292 c -3.568,0.5 -3.016,2.088 -3.464,6.14 -0.484,4.433 -0.516,9.109 0.421,12.276 1.052,3.532 0.631,3.844 2.506,4.234 1.879,0.391 2.062,-0.369 3.026,-1.224 1.12,-0.984 -0.62,-8.13 0.068,-12.833 0.323,-2.203 2.52,-7.276 1.171,-7.812 -1.348,-0.537 -3.728,-0.781 -3.728,-0.781 z"
     id="path218" />
  <path
     style="fill:#ca0369;fill-opacity:1;fill-rule:nonzero;stroke:none"
     d="m 317.0148,79.437 c 0.495,0 1.099,-0.432 1.099,-0.432 0,0 0.708,-5.803 3.432,-7.307 l 0.36,-0.016 c 0.907,0.864 -0.407,-1.156 -0.396,-1.901 0.063,-3.249 1.401,-8.177 2.057,-9.339 0.907,-1.593 3.479,-2.104 2.422,-3.989 0,0 -0.619,-1.844 -3.4,-1.484 -1.011,0.129 -3.224,-0.589 -3.224,-0.589 0.01,0.042 0.02,0.084 0.02,0.12 0,1.256 -1.072,1.969 -2.406,1.989 h 0.072 c -1.338,-0.02 -2.405,-0.796 -2.405,-1.989 0,-0.036 0.009,-0.078 0.015,-0.12 0,0 -2.208,0.718 -3.219,0.589 -2.786,-0.36 -3.338,1.755 -3.338,1.755 -1.062,1.89 1.453,2.125 2.354,3.718 0.662,1.162 1.995,6.09 2.058,9.339 0.016,0.745 -1.298,2.765 -0.391,1.901 l 0.355,0.016 c 2.723,1.504 3.431,7.307 3.431,7.307 0,0 0.61,0.432 1.104,0.432"
     id="path219" />
  <path
     style="fill:none;stroke:#231f20;stroke-width:0.565977;stroke-linecap:butt;stroke-linejoin:miter;stroke-miterlimit:4;stroke-dasharray:none;stroke-opacity:1"
     d="m 317.0148,79.437 c 0.495,0 1.099,-0.432 1.099,-0.432 0,0 0.708,-5.803 3.432,-7.307 l 0.36,-0.016 c 0.907,0.864 -0.407,-1.156 -0.396,-1.901 0.063,-3.249 1.401,-8.177 2.057,-9.339 0.907,-1.593 3.479,-2.104 2.422,-3.989 0,0 -0.619,-1.844 -3.4,-1.484 -1.011,0.129 -3.224,-0.589 -3.224,-0.589 0.01,0.042 0.02,0.084 0.02,0.12 0,1.256 -1.072,1.969 -2.406,1.989 h 0.072 c -1.338,-0.02 -2.405,-0.796 -2.405,-1.989 0,-0.036 0.009,-0.078 0.015,-0.12 0,0 -2.208,0.718 -3.219,0.589 -2.786,-0.36 -3.338,1.755 -3.338,1.755 -1.062,1.89 1.453,2.125 2.354,3.718 0.662,1.162 1.995,6.09 2.058,9.339 0.016,0.745 -1.298,2.765 -0.391,1.901 l 0.355,0.016 c 2.723,1.504 3.431,7.307 3.431,7.307 0,0 0.61,0.432 1.104,0.432 z"
     id="path220" />
  <path
     style="fill:#ffffff;fill-opacity:1;fill-rule:nonzero;stroke:none"
     d="m 313.2758,48.896 c -0.006,2.822 1.671,5.114 3.75,5.12 2.073,0.005 3.76,-2.282 3.765,-5.104 0.006,-2.828 -1.666,-5.12 -3.745,-5.126 -2.077,-0.005 -3.765,2.282 -3.77,5.11"
     id="path221" />
  <path
     style="fill:none;stroke:#231f20;stroke-width:0.565977;stroke-linecap:butt;stroke-linejoin:miter;stroke-miterlimit:4;stroke-dasharray:none;stroke-opacity:1"
     d="m 313.2758,48.896 c -0.006,2.822 1.671,5.114 3.75,5.12 2.073,0.005 3.76,-2.282 3.765,-5.104 0.006,-2.828 -1.666,-5.12 -3.745,-5.126 -2.077,-0.005 -3.765,2.282 -3.77,5.11 z"
     id="path222" />
  <path
     style="fill:#231f20;fill-opacity:1;fill-rule:nonzero;stroke:none"
     d="m 314.4888,91.937 c -2.255,-0.192 -2.911,-0.276 -2.723,2.219 0.047,0.636 0.302,2.39 0.223,2.77 -0.26,1.276 -0.447,2.772 1.469,9.068 0.297,0.98 0.541,2.943 0.833,4.313 0.282,1.328 2.292,-0.037 2.188,-0.562 -0.333,-1.678 -0.188,-2.834 -0.224,-3.454 -0.026,-0.426 -0.213,-1.213 0.094,-2.849 0.792,-4.208 -0.412,-5.546 -0.323,-6.442 0.255,-2.574 1,-4.719 0.407,-5.016 -0.97,-0.49 -1.944,-0.047 -1.944,-0.047"
     id="path223" />
  <path
     style="fill:none;stroke:#231f20;stroke-width:0.565977;stroke-linecap:butt;stroke-linejoin:miter;stroke-miterlimit:4;stroke-dasharray:none;stroke-opacity:1"
     d="m 314.4888,91.937 c -2.255,-0.192 -2.911,-0.276 -2.723,2.219 0.047,0.636 0.302,2.39 0.223,2.77 -0.26,1.276 -0.447,2.772 1.469,9.068 0.297,0.98 0.541,2.943 0.833,4.313 0.282,1.328 2.292,-0.037 2.188,-0.562 -0.333,-1.678 -0.188,-2.834 -0.224,-3.454 -0.026,-0.426 -0.213,-1.213 0.094,-2.849 0.792,-4.208 -0.412,-5.546 -0.323,-6.442 0.255,-2.574 1,-4.719 0.407,-5.016 -0.97,-0.49 -1.944,-0.047 -1.944,-0.047 z"
     id="path224" />
  <path
     style="fill:#231f20;fill-opacity:1;fill-rule:nonzero;stroke:none"
     d="m 298.3598,55.317 c 0.15,-1.281 2.093,-0.676 2.629,-0.593 0.537,0.078 2.095,0.141 3.308,0.032 1.224,-0.111 2.792,0.27 5.109,0.066 1.214,-0.104 2.474,0.563 2.552,2.334 0.079,1.756 -0.88,2.464 -2.369,2.37 -1.495,-0.094 -2.86,-0.813 -4.36,-1.01 -1.5,-0.199 -3.047,-0.262 -4.255,-0.256 -1.385,0.01 -2.073,-0.495 -2.261,-0.938 -0.479,-1.093 -0.353,-2.005 -0.353,-2.005"
     id="path225" />
  <path
     style="fill:none;stroke:#231f20;stroke-width:0.565977;stroke-linecap:butt;stroke-linejoin:miter;stroke-miterlimit:4;stroke-dasharray:none;stroke-opacity:1"
     d="m 298.3598,55.317 c 0.15,-1.281 2.093,-0.676 2.629,-0.593 0.537,0.078 2.095,0.141 3.308,0.032 1.224,-0.111 2.792,0.27 5.109,0.066 1.214,-0.104 2.474,0.563 2.552,2.334 0.079,1.756 -0.88,2.464 -2.369,2.37 -1.495,-0.094 -2.86,-0.813 -4.36,-1.01 -1.5,-0.199 -3.047,-0.262 -4.255,-0.256 -1.385,0.01 -2.073,-0.495 -2.261,-0.938 -0.479,-1.093 -0.353,-2.005 -0.353,-2.005 z"
     id="path226" />
  <path
     style="fill:#231f20;fill-opacity:1;fill-rule:nonzero;stroke:none"
     d="m 289.2968,57.426 c 0.547,0.35 2.469,0.052 4.031,0.439 1.052,0.26 3.756,-0.224 4.786,0.109 0.943,0.312 1.407,0.364 1.943,-0.657 0.323,-0.604 0.541,-1.968 0.104,-2.228 -1.025,-0.605 -1.963,-0.729 -3.031,-0.647 -1.213,0.099 -4.474,0.651 -5.068,0.808 -1.468,0.395 -2.145,0.104 -2.546,0.176 -0.75,0.126 -0.886,0.443 -0.912,0.948 -0.042,0.954 0.693,1.052 0.693,1.052"
     id="path227" />
  <path
     style="fill:none;stroke:#231f20;stroke-width:0.565977;stroke-linecap:butt;stroke-linejoin:miter;stroke-miterlimit:4;stroke-dasharray:none;stroke-opacity:1"
     d="m 289.2968,57.426 c 0.547,0.35 2.469,0.052 4.031,0.439 1.052,0.26 3.756,-0.224 4.786,0.109 0.943,0.312 1.407,0.364 1.943,-0.657 0.323,-0.604 0.541,-1.968 0.104,-2.228 -1.025,-0.605 -1.963,-0.729 -3.031,-0.647 -1.213,0.099 -4.474,0.651 -5.068,0.808 -1.468,0.395 -2.145,0.104 -2.546,0.176 -0.75,0.126 -0.886,0.443 -0.912,0.948 -0.042,0.954 0.693,1.052 0.693,1.052 z"
     id="path228" />
  <path
     style="fill:#231f20;fill-opacity:1;fill-rule:nonzero;stroke:none"
     d="m 336.1928,55.505 c -0.162,-1.287 -2.099,-0.677 -2.636,-0.588 -0.536,0.077 -2.094,0.145 -3.307,0.041 -1.224,-0.104 -2.792,0.282 -5.109,0.083 -1.219,-0.099 -2.47,0.573 -2.543,2.344 -0.072,1.756 0.887,2.459 2.381,2.36 1.49,-0.1 2.854,-0.819 4.354,-1.021 1.5,-0.208 3.042,-0.276 4.256,-0.271 1.385,0.005 2.066,-0.5 2.254,-0.943 0.47,-1.098 0.35,-2.005 0.35,-2.005"
     id="path229" />
  <path
     style="fill:none;stroke:#231f20;stroke-width:0.565977;stroke-linecap:butt;stroke-linejoin:miter;stroke-miterlimit:4;stroke-dasharray:none;stroke-opacity:1"
     d="m 336.1928,55.505 c -0.162,-1.287 -2.099,-0.677 -2.636,-0.588 -0.536,0.077 -2.094,0.145 -3.307,0.041 -1.224,-0.104 -2.792,0.282 -5.109,0.083 -1.219,-0.099 -2.47,0.573 -2.543,2.344 -0.072,1.756 0.887,2.459 2.381,2.36 1.49,-0.1 2.854,-0.819 4.354,-1.021 1.5,-0.208 3.042,-0.276 4.256,-0.271 1.385,0.005 2.066,-0.5 2.254,-0.943 0.47,-1.098 0.35,-2.005 0.35,-2.005 z"
     id="path230" />
  <path
     style="fill:#231f20;fill-opacity:1;fill-rule:nonzero;stroke:none"
     d="m 345.2608,57.584 c -0.548,0.342 -2.47,0.057 -4.032,0.448 -1.052,0.265 -3.755,-0.215 -4.787,0.129 -0.943,0.308 -1.4,0.36 -1.948,-0.656 -0.317,-0.599 -0.547,-1.969 -0.104,-2.229 1.021,-0.61 1.959,-0.735 3.027,-0.651 1.208,0.093 4.478,0.635 5.068,0.792 1.473,0.391 2.15,0.093 2.552,0.161 0.749,0.124 0.885,0.443 0.91,0.948 0.047,0.958 -0.686,1.058 -0.686,1.058"
     id="path231" />
  <path
     style="fill:none;stroke:#231f20;stroke-width:0.565977;stroke-linecap:butt;stroke-linejoin:miter;stroke-miterlimit:4;stroke-dasharray:none;stroke-opacity:1"
     d="m 345.2608,57.584 c -0.548,0.342 -2.47,0.057 -4.032,0.448 -1.052,0.265 -3.755,-0.215 -4.787,0.129 -0.943,0.308 -1.4,0.36 -1.948,-0.656 -0.317,-0.599 -0.547,-1.969 -0.104,-2.229 1.021,-0.61 1.959,-0.735 3.027,-0.651 1.208,0.093 4.478,0.635 5.068,0.792 1.473,0.391 2.15,0.093 2.552,0.161 0.749,0.124 0.885,0.443 0.91,0.948 0.047,0.958 -0.686,1.058 -0.686,1.058 z"
     id="path232" />
  <path
     style="fill:#ca0369;fill-opacity:1;fill-rule:nonzero;stroke:none"
     d="m 312.1458,70.854 c -0.209,0.282 -0.854,1.49 -1.026,1.916 -1.099,2.766 -1.011,6.714 -1.282,7.959 -0.27,1.245 6.323,1.188 6.323,1.188 l 0.474,-1.896 c 0.448,0.432 0.984,0.005 0.984,0.005 l 0.454,1.968 c 0,0 6.464,0.251 6.312,-0.744 -0.203,-1.381 -0.286,-6.01 -1.224,-8.272 -0.51,-1.244 -1.286,-1.916 -1.286,-1.916 0,0 -3.646,1.083 -5.073,1.083 -1.427,0 -4.656,-1.291 -4.656,-1.291"
     id="path233" />
  <path
     style="fill:none;stroke:#231f20;stroke-width:0.565977;stroke-linecap:butt;stroke-linejoin:miter;stroke-miterlimit:4;stroke-dasharray:none;stroke-opacity:1"
     d="m 312.1458,70.854 c -0.209,0.282 -0.854,1.49 -1.026,1.916 -1.099,2.766 -1.011,6.714 -1.282,7.959 -0.27,1.245 6.323,1.188 6.323,1.188 l 0.474,-1.896 c 0.448,0.432 0.984,0.005 0.984,0.005 l 0.454,1.968 c 0,0 6.464,0.251 6.312,-0.744 -0.203,-1.381 -0.286,-6.01 -1.224,-8.272 -0.51,-1.244 -1.286,-1.916 -1.286,-1.916 0,0 -3.646,1.083 -5.073,1.083 -1.427,0 -4.656,-1.291 -4.656,-1.291 z"
     id="path234" />
  <path
     style="fill:#231f20;fill-opacity:1;fill-rule:nonzero;stroke:none"
     d="m 312.7178,114.031 c -0.285,-0.594 0.928,-1.933 0.964,-3.901 0.005,-0.401 0.203,-0.724 0.339,-1.068 0.568,-1.401 1.849,-2.355 2.76,1.364 0.125,0.516 -0.266,2.579 -0.02,3.324 0.588,1.771 -1.027,4.672 -1.527,4.531 -1.083,-0.292 -2.516,-4.25 -2.516,-4.25"
     id="path235" />
  <path
     style="fill:none;stroke:#231f20;stroke-width:0.644548;stroke-linecap:round;stroke-linejoin:round;stroke-miterlimit:4;stroke-dasharray:none;stroke-opacity:1"
     d="m 312.7178,114.031 c -0.285,-0.594 0.928,-1.933 0.964,-3.901 0.005,-0.401 0.203,-0.724 0.339,-1.068 0.568,-1.401 1.849,-2.355 2.76,1.364 0.125,0.516 -0.266,2.579 -0.02,3.324 0.588,1.771 -1.027,4.672 -1.527,4.531 -1.083,-0.292 -2.516,-4.25 -2.516,-4.25 z"
     id="path236" />
  <path
     style="fill:#ffffff;fill-opacity:1;fill-rule:nonzero;stroke:#231f20;stroke-width:0.665856;stroke-linecap:butt;stroke-linejoin:miter;stroke-miterlimit:4;stroke-dasharray:none;stroke-opacity:1"
     d="m 286.7968,48.422 h 1.333 V 16.745 h -1.333 z"
     id="path237" />
  <path
     style="fill:#ffffff;fill-opacity:1;fill-rule:nonzero;stroke:none"
     d="m 287.4638,48.026 c -1.927,0 -3.484,2.588 -3.484,5.782 0,3.192 1.557,5.78 3.484,5.78 1.921,0 3.484,-2.588 3.484,-5.78 0,-3.194 -1.563,-5.782 -3.484,-5.782 m 0,1.302 c 0.874,0 2.15,1.745 2.15,4.48 0,2.728 -1.276,4.478 -2.15,4.478 -0.88,0 -2.151,-1.75 -2.151,-4.478 0,-2.735 1.271,-4.48 2.151,-4.48"
     id="path238" />
  <path
     style="fill:none;stroke:#231f20;stroke-width:0.665856;stroke-linecap:butt;stroke-linejoin:miter;stroke-miterlimit:4;stroke-dasharray:none;stroke-opacity:1"
     d="m 287.4638,48.026 c -1.927,0 -3.484,2.588 -3.484,5.782 0,3.192 1.557,5.78 3.484,5.78 1.921,0 3.484,-2.588 3.484,-5.78 0,-3.194 -1.563,-5.782 -3.484,-5.782 z m 0,1.302 c 0.874,0 2.15,1.745 2.15,4.48 0,2.728 -1.276,4.478 -2.15,4.478 -0.88,0 -2.151,-1.75 -2.151,-4.478 0,-2.735 1.271,-4.48 2.151,-4.48"
     id="path239" />
  <path
     style="fill:#ffffff;fill-opacity:1;fill-rule:nonzero;stroke:#231f20;stroke-width:0.665856;stroke-linecap:butt;stroke-linejoin:miter;stroke-miterlimit:4;stroke-dasharray:none;stroke-opacity:1"
     d="m 346.3428,48.422 h 1.329 V 16.745 h -1.329 z"
     id="path240" />
  <path
     style="fill:#ffffff;fill-opacity:1;fill-rule:nonzero;stroke:none"
     d="m 347.0098,48.026 c -1.927,0 -3.484,2.588 -3.484,5.782 0,3.192 1.557,5.78 3.484,5.78 1.921,0 3.484,-2.588 3.484,-5.78 0,-3.194 -1.563,-5.782 -3.484,-5.782 m 0,1.302 c 0.875,0 2.151,1.745 2.151,4.48 0,2.728 -1.276,4.478 -2.151,4.478 -0.88,0 -2.156,-1.75 -2.156,-4.478 0,-2.735 1.276,-4.48 2.156,-4.48"
     id="path241" />
  <path
     style="fill:none;stroke:#231f20;stroke-width:0.665856;stroke-linecap:butt;stroke-linejoin:miter;stroke-miterlimit:4;stroke-dasharray:none;stroke-opacity:1"
     d="m 347.0098,48.026 c -1.927,0 -3.484,2.588 -3.484,5.782 0,3.192 1.557,5.78 3.484,5.78 1.921,0 3.484,-2.588 3.484,-5.78 0,-3.194 -1.563,-5.782 -3.484,-5.782 z m 0,1.302 c 0.875,0 2.151,1.745 2.151,4.48 0,2.728 -1.276,4.478 -2.151,4.478 -0.88,0 -2.156,-1.75 -2.156,-4.478 0,-2.735 1.276,-4.48 2.156,-4.48"
     id="path242" />
  <path
     style="fill:#ffffff;fill-opacity:1;fill-rule:nonzero;stroke:#231f20;stroke-width:0.665856;stroke-linecap:butt;stroke-linejoin:miter;stroke-miterlimit:4;stroke-dasharray:none;stroke-opacity:1"
     d="m 286.5458,131.135 h 1.334 V 99.458 h -1.334 z"
     id="path243" />
  <path
     style="fill:#ffffff;fill-opacity:1;fill-rule:nonzero;stroke:#231f20;stroke-width:0.665856;stroke-linecap:butt;stroke-linejoin:miter;stroke-miterlimit:4;stroke-dasharray:none;stroke-opacity:1"
     d="m 346.3378,131.135 h 1.333 V 99.458 h -1.333 z"
     id="path244" />
  <path
     style="fill:#231f20;fill-opacity:1;fill-rule:nonzero;stroke:none"
     d="m 321.2548,113.802 c 0.312,-0.589 -0.833,-1.975 -0.781,-3.948 0.011,-0.401 -0.167,-0.729 -0.292,-1.079 -0.5,-1.426 -1.735,-2.442 -2.812,1.23 -0.152,0.51 0.14,2.588 -0.136,3.322 -0.672,1.74 0.808,4.714 1.312,4.599 1.095,-0.239 2.709,-4.124 2.709,-4.124"
     id="path245" />
  <path
     style="fill:none;stroke:#231f20;stroke-width:0.644548;stroke-linecap:round;stroke-linejoin:round;stroke-miterlimit:4;stroke-dasharray:none;stroke-opacity:1"
     d="m 321.2548,113.802 c 0.312,-0.589 -0.833,-1.975 -0.781,-3.948 0.011,-0.401 -0.167,-0.729 -0.292,-1.079 -0.5,-1.426 -1.735,-2.442 -2.812,1.23 -0.152,0.51 0.14,2.588 -0.136,3.322 -0.672,1.74 0.808,4.714 1.312,4.599 1.095,-0.239 2.709,-4.124 2.709,-4.124 z"
     id="path246" />
  <path
     style="fill:#231f20;fill-opacity:1;fill-rule:nonzero;stroke:none"
     d="m 286.4058,55.833 c -0.636,0.292 -0.75,2.599 -0.448,2.719 0.298,0.114 0.251,-0.651 0.584,-0.536 0.338,0.12 0.291,0.62 0.52,0.629 0.251,0.016 0.214,-0.583 0.511,-0.509 0.12,0.03 0.364,0.572 0.552,0.525 0.161,-0.041 0.333,-0.536 0.469,-0.572 0.198,-0.068 0.291,0.541 0.468,0.509 0.454,-0.098 -0.306,-2.702 -0.53,-2.806 -0.319,-0.151 -1.099,-0.423 -2.126,0.041"
     id="path247" />
  <path
     style="fill:none;stroke:#231f20;stroke-width:0.565977;stroke-linecap:round;stroke-linejoin:round;stroke-miterlimit:4;stroke-dasharray:none;stroke-opacity:1"
     d="m 286.4058,55.833 c -0.636,0.292 -0.75,2.599 -0.448,2.719 0.298,0.114 0.251,-0.651 0.584,-0.536 0.338,0.12 0.291,0.62 0.52,0.629 0.251,0.016 0.214,-0.583 0.511,-0.509 0.12,0.03 0.364,0.572 0.552,0.525 0.161,-0.041 0.333,-0.536 0.469,-0.572 0.198,-0.068 0.291,0.541 0.468,0.509 0.454,-0.098 -0.306,-2.702 -0.53,-2.806 -0.319,-0.151 -1.099,-0.423 -2.126,0.041 z"
     id="path248" />
  <path
     style="fill:#231f20;fill-opacity:1;fill-rule:nonzero;stroke:none"
     d="m 345.5728,56.141 c -0.646,0.265 -0.839,2.572 -0.547,2.703 0.292,0.125 0.276,-0.642 0.604,-0.516 0.333,0.13 0.271,0.63 0.5,0.65 0.249,0.022 0.235,-0.577 0.525,-0.494 0.12,0.037 0.35,0.584 0.538,0.548 0.161,-0.038 0.349,-0.527 0.484,-0.558 0.202,-0.057 0.27,0.552 0.448,0.526 0.458,-0.079 -0.208,-2.714 -0.427,-2.823 -0.308,-0.161 -1.079,-0.459 -2.125,-0.036"
     id="path249" />
  <path
     style="fill:none;stroke:#231f20;stroke-width:0.565977;stroke-linecap:round;stroke-linejoin:round;stroke-miterlimit:4;stroke-dasharray:none;stroke-opacity:1"
     d="m 345.5728,56.141 c -0.646,0.265 -0.839,2.572 -0.547,2.703 0.292,0.125 0.276,-0.642 0.604,-0.516 0.333,0.13 0.271,0.63 0.5,0.65 0.249,0.022 0.235,-0.577 0.525,-0.494 0.12,0.037 0.35,0.584 0.538,0.548 0.161,-0.038 0.349,-0.527 0.484,-0.558 0.202,-0.057 0.27,0.552 0.448,0.526 0.458,-0.079 -0.208,-2.714 -0.427,-2.823 -0.308,-0.161 -1.079,-0.459 -2.125,-0.036 z"
     id="path250" />
  <path
     style="fill:#231f20;fill-opacity:1;fill-rule:nonzero;stroke:#231f20;stroke-width:0.565977;stroke-linecap:round;stroke-linejoin:round;stroke-miterlimit:4;stroke-dasharray:none;stroke-opacity:1"
     d="m 314.3698,137.119 c 0,0 1.176,-0.598 2.339,-0.578 1.161,0.021 2.405,0.557 2.405,0.557 v 3.297 h -4.787 z"
     id="path251" />
  <path
     style="fill:#ca0369;fill-opacity:1;fill-rule:nonzero;stroke:none"
     d="m 316.1768,156.578 c 0.494,0 1.098,-0.428 1.098,-0.428 0,0 1.303,-0.229 4.027,-1.739 l 0.353,-0.016 c 0.907,0.864 -0.405,-1.156 -0.394,-1.901 0.061,-3.249 1.4,-8.172 2.057,-9.339 0.905,-1.593 3.479,-2.098 2.421,-3.989 0,0 -0.614,-1.844 -3.401,-1.484 -1.011,0.129 -3.224,-0.584 -3.224,-0.584 0.011,0.037 0.021,0.079 0.021,0.12 0,1.251 -1.073,1.964 -2.406,1.984 h 0.073 c -1.339,-0.02 -2.407,-0.796 -2.407,-1.984 0,-0.041 0.011,-0.083 0.022,-0.12 0,0 -2.213,0.713 -3.224,0.584 -2.787,-0.36 -3.339,1.76 -3.339,1.76 -1.062,1.885 1.454,2.12 2.359,3.713 0.657,1.167 1.996,6.09 2.052,9.339 0.016,0.745 -1.296,2.765 -0.389,1.901 l 0.353,0.016 c 2.724,1.51 2.844,1.739 2.844,1.739 0,0 0.609,0.428 1.104,0.428"
     id="path252" />
  <path
     style="fill:none;stroke:#231f20;stroke-width:0.565977;stroke-linecap:butt;stroke-linejoin:miter;stroke-miterlimit:4;stroke-dasharray:none;stroke-opacity:1"
     d="m 316.1768,156.578 c 0.494,0 1.098,-0.428 1.098,-0.428 0,0 1.303,-0.229 4.027,-1.739 l 0.353,-0.016 c 0.907,0.864 -0.405,-1.156 -0.394,-1.901 0.061,-3.249 1.4,-8.172 2.057,-9.339 0.905,-1.593 3.479,-2.098 2.421,-3.989 0,0 -0.614,-1.844 -3.401,-1.484 -1.011,0.129 -3.224,-0.584 -3.224,-0.584 0.011,0.037 0.021,0.079 0.021,0.12 0,1.251 -1.073,1.964 -2.406,1.984 h 0.073 c -1.339,-0.02 -2.407,-0.796 -2.407,-1.984 0,-0.041 0.011,-0.083 0.022,-0.12 0,0 -2.213,0.713 -3.224,0.584 -2.787,-0.36 -3.339,1.76 -3.339,1.76 -1.062,1.885 1.454,2.12 2.359,3.713 0.657,1.167 1.996,6.09 2.052,9.339 0.016,0.745 -1.296,2.765 -0.389,1.901 l 0.353,0.016 c 2.724,1.51 2.844,1.739 2.844,1.739 0,0 0.609,0.428 1.104,0.428 z"
     id="path253" />
  <path
     style="fill:#ffffff;fill-opacity:1;fill-rule:nonzero;stroke:none"
     d="m 313.0258,131.609 c -0.005,2.822 1.672,5.114 3.749,5.12 2.074,0.005 3.762,-2.282 3.767,-5.104 0.009,-2.823 -1.667,-5.12 -3.745,-5.12 -2.079,-0.006 -3.765,2.281 -3.771,5.104"
     id="path254" />
  <path
     style="fill:none;stroke:#231f20;stroke-width:0.565977;stroke-linecap:butt;stroke-linejoin:miter;stroke-miterlimit:4;stroke-dasharray:none;stroke-opacity:1"
     d="m 313.0258,131.609 c -0.005,2.822 1.672,5.114 3.749,5.12 2.074,0.005 3.762,-2.282 3.767,-5.104 0.009,-2.823 -1.667,-5.12 -3.745,-5.12 -2.079,-0.006 -3.765,2.281 -3.771,5.104 z"
     id="path255" />
  <path
     style="fill:#231f20;fill-opacity:1;fill-rule:nonzero;stroke:none"
     d="m 298.1088,138.035 c 0.152,-1.285 2.095,-0.681 2.631,-0.598 0.536,0.084 2.093,0.141 3.306,0.032 1.224,-0.11 2.792,0.276 5.11,0.072 1.214,-0.11 2.474,0.557 2.553,2.333 0.077,1.751 -0.881,2.459 -2.371,2.365 -1.494,-0.094 -2.858,-0.808 -4.358,-1.01 -1.5,-0.198 -3.048,-0.26 -4.256,-0.255 -1.386,0.015 -2.072,-0.496 -2.26,-0.933 -0.479,-1.099 -0.355,-2.006 -0.355,-2.006"
     id="path256" />
  <path
     style="fill:none;stroke:#231f20;stroke-width:0.565977;stroke-linecap:butt;stroke-linejoin:miter;stroke-miterlimit:4;stroke-dasharray:none;stroke-opacity:1"
     d="m 298.1088,138.035 c 0.152,-1.285 2.095,-0.681 2.631,-0.598 0.536,0.084 2.093,0.141 3.306,0.032 1.224,-0.11 2.792,0.276 5.11,0.072 1.214,-0.11 2.474,0.557 2.553,2.333 0.077,1.751 -0.881,2.459 -2.371,2.365 -1.494,-0.094 -2.858,-0.808 -4.358,-1.01 -1.5,-0.198 -3.048,-0.26 -4.256,-0.255 -1.386,0.015 -2.072,-0.496 -2.26,-0.933 -0.479,-1.099 -0.355,-2.006 -0.355,-2.006 z"
     id="path257" />
  <path
     style="fill:#231f20;fill-opacity:1;fill-rule:nonzero;stroke:none"
     d="m 289.0458,140.145 c 0.548,0.344 2.47,0.048 4.032,0.433 1.052,0.26 3.755,-0.224 4.787,0.115 0.943,0.306 1.405,0.358 1.943,-0.662 0.322,-0.6 0.541,-1.969 0.104,-2.229 -1.027,-0.604 -1.964,-0.729 -3.032,-0.641 -1.214,0.093 -4.474,0.65 -5.067,0.808 -1.469,0.39 -2.147,0.098 -2.548,0.172 -0.749,0.124 -0.885,0.442 -0.911,0.948 -0.041,0.957 0.692,1.056 0.692,1.056"
     id="path258" />
  <path
     style="fill:none;stroke:#231f20;stroke-width:0.565977;stroke-linecap:butt;stroke-linejoin:miter;stroke-miterlimit:4;stroke-dasharray:none;stroke-opacity:1"
     d="m 289.0458,140.145 c 0.548,0.344 2.47,0.048 4.032,0.433 1.052,0.26 3.755,-0.224 4.787,0.115 0.943,0.306 1.405,0.358 1.943,-0.662 0.322,-0.6 0.541,-1.969 0.104,-2.229 -1.027,-0.604 -1.964,-0.729 -3.032,-0.641 -1.214,0.093 -4.474,0.65 -5.067,0.808 -1.469,0.39 -2.147,0.098 -2.548,0.172 -0.749,0.124 -0.885,0.442 -0.911,0.948 -0.041,0.957 0.692,1.056 0.692,1.056 z"
     id="path259" />
  <path
     style="fill:#231f20;fill-opacity:1;fill-rule:nonzero;stroke:none"
     d="m 335.9418,138.218 c -0.156,-1.287 -2.099,-0.672 -2.635,-0.588 -0.537,0.083 -2.089,0.145 -3.308,0.041 -1.224,-0.104 -2.79,0.287 -5.109,0.088 -1.219,-0.104 -2.468,0.568 -2.541,2.339 -0.074,1.756 0.885,2.459 2.38,2.365 1.489,-0.104 2.854,-0.822 4.354,-1.026 1.5,-0.203 3.042,-0.271 4.255,-0.266 1.385,0.006 2.068,-0.505 2.256,-0.942 0.473,-1.104 0.348,-2.011 0.348,-2.011"
     id="path260" />
  <path
     style="fill:none;stroke:#231f20;stroke-width:0.565977;stroke-linecap:butt;stroke-linejoin:miter;stroke-miterlimit:4;stroke-dasharray:none;stroke-opacity:1"
     d="m 335.9418,138.218 c -0.156,-1.287 -2.099,-0.672 -2.635,-0.588 -0.537,0.083 -2.089,0.145 -3.308,0.041 -1.224,-0.104 -2.79,0.287 -5.109,0.088 -1.219,-0.104 -2.468,0.568 -2.541,2.339 -0.074,1.756 0.885,2.459 2.38,2.365 1.489,-0.104 2.854,-0.822 4.354,-1.026 1.5,-0.203 3.042,-0.271 4.255,-0.266 1.385,0.006 2.068,-0.505 2.256,-0.942 0.473,-1.104 0.348,-2.011 0.348,-2.011 z"
     id="path261" />
  <path
     style="fill:#231f20;fill-opacity:1;fill-rule:nonzero;stroke:none"
     d="m 345.0098,140.297 c -0.547,0.348 -2.468,0.062 -4.031,0.448 -1.052,0.265 -3.756,-0.21 -4.786,0.129 -0.943,0.313 -1.402,0.365 -1.948,-0.656 -0.318,-0.599 -0.547,-1.964 -0.104,-2.224 1.02,-0.609 1.958,-0.735 3.025,-0.656 1.213,0.093 4.48,0.636 5.068,0.792 1.475,0.391 2.151,0.093 2.552,0.161 0.751,0.131 0.885,0.443 0.912,0.948 0.047,0.959 -0.688,1.058 -0.688,1.058"
     id="path262" />
  <path
     style="fill:none;stroke:#231f20;stroke-width:0.565977;stroke-linecap:butt;stroke-linejoin:miter;stroke-miterlimit:4;stroke-dasharray:none;stroke-opacity:1"
     d="m 345.0098,140.297 c -0.547,0.348 -2.468,0.062 -4.031,0.448 -1.052,0.265 -3.756,-0.21 -4.786,0.129 -0.943,0.313 -1.402,0.365 -1.948,-0.656 -0.318,-0.599 -0.547,-1.964 -0.104,-2.224 1.02,-0.609 1.958,-0.735 3.025,-0.656 1.213,0.093 4.48,0.636 5.068,0.792 1.475,0.391 2.151,0.093 2.552,0.161 0.751,0.131 0.885,0.443 0.912,0.948 0.047,0.959 -0.688,1.058 -0.688,1.058 z"
     id="path263" />
  <path
     style="fill:#231f20;fill-opacity:1;fill-rule:nonzero;stroke:none"
     d="m 322.0668,151.682 c 0.896,1.183 1.527,5.443 0.068,7.943 -1.458,2.5 -2.813,6.62 -3.942,6.489 -3.918,-0.453 -0.224,-6.76 -1.642,-7.943 -1.312,-1.093 0.204,-7.13 1.662,-7.36 1.453,-0.228 3.854,0.871 3.854,0.871"
     id="path264" />
  <path
     style="fill:none;stroke:#231f20;stroke-width:0.31961;stroke-linecap:butt;stroke-linejoin:miter;stroke-miterlimit:4;stroke-dasharray:none;stroke-opacity:1"
     d="m 322.0668,151.682 c 0.896,1.183 1.527,5.443 0.068,7.943 -1.458,2.5 -2.813,6.62 -3.942,6.489 -3.918,-0.453 -0.224,-6.76 -1.642,-7.943 -1.312,-1.093 0.204,-7.13 1.662,-7.36 1.453,-0.228 3.854,0.871 3.854,0.871 z"
     id="path265" />
  <path
     style="fill:#231f20;fill-opacity:1;fill-rule:nonzero;stroke:none"
     d="m 310.8128,151.499 c -0.907,1.167 -1.641,5.448 -0.276,8.022 1.359,2.568 2.572,6.776 3.681,6.681 3.849,-0.317 0.401,-6.817 1.819,-7.963 1.317,-1.057 -0.006,-7.204 -1.423,-7.484 -1.421,-0.281 -3.801,0.744 -3.801,0.744"
     id="path266" />
  <path
     style="fill:none;stroke:#231f20;stroke-width:0.318279;stroke-linecap:butt;stroke-linejoin:miter;stroke-miterlimit:4;stroke-dasharray:none;stroke-opacity:1"
     d="m 310.8128,151.499 c -0.907,1.167 -1.641,5.448 -0.276,8.022 1.359,2.568 2.572,6.776 3.681,6.681 3.849,-0.317 0.401,-6.817 1.819,-7.963 1.317,-1.057 -0.006,-7.204 -1.423,-7.484 -1.421,-0.281 -3.801,0.744 -3.801,0.744 z"
     id="path267" />
  <path
     style="fill:#ca0369;fill-opacity:1;fill-rule:nonzero;stroke:none"
     d="m 310.3378,152.739 c 0.423,-1.125 3.943,0.63 4.36,1.468 0.421,0.839 0.359,1.475 1.609,1.61 0.848,0.089 1.266,-1.52 1.662,-1.88 3.489,-3.198 3.864,-0.26 4.353,-0.891 0.496,-0.624 -1.489,-3.177 -1.489,-3.177 -3.64,0.354 -8.749,0.073 -8.749,0.073 -1.47,1.188 -1.746,2.797 -1.746,2.797"
     id="path268" />
  <path
     style="fill:none;stroke:#231f20;stroke-width:0.565977;stroke-linecap:round;stroke-linejoin:round;stroke-miterlimit:4;stroke-dasharray:none;stroke-opacity:1"
     d="m 310.3378,152.739 c 0.423,-1.125 3.943,0.63 4.36,1.468 0.421,0.839 0.359,1.475 1.609,1.61 0.848,0.089 1.266,-1.52 1.662,-1.88 3.489,-3.198 3.864,-0.26 4.353,-0.891 0.496,-0.624 -1.489,-3.177 -1.489,-3.177 -3.64,0.354 -8.749,0.073 -8.749,0.073 -1.47,1.188 -1.746,2.797 -1.746,2.797 z"
     id="path269" />
  <path
     style="fill:#ffffff;fill-opacity:1;fill-rule:nonzero;stroke:none"
     d="m 320.6868,160.374 c 0.287,0.6 -0.926,1.937 -0.958,3.907 -0.011,0.401 -0.208,0.718 -0.344,1.068 -0.567,1.396 -1.848,2.353 -2.76,-1.366 -0.126,-0.514 0.265,-2.577 0.021,-3.322 -0.589,-1.771 1.031,-4.678 1.525,-4.531 1.084,0.292 2.516,4.244 2.516,4.244"
     id="path270" />
  <path
     style="fill:none;stroke:#231f20;stroke-width:0.644548;stroke-linecap:round;stroke-linejoin:round;stroke-miterlimit:4;stroke-dasharray:none;stroke-opacity:1"
     d="m 320.6868,160.374 c 0.287,0.6 -0.926,1.937 -0.958,3.907 -0.011,0.401 -0.208,0.718 -0.344,1.068 -0.567,1.396 -1.848,2.353 -2.76,-1.366 -0.126,-0.514 0.265,-2.577 0.021,-3.322 -0.589,-1.771 1.031,-4.678 1.525,-4.531 1.084,0.292 2.516,4.244 2.516,4.244 z"
     id="path271" />
  <path
     style="fill:#ffffff;fill-opacity:1;fill-rule:nonzero;stroke:none"
     d="m 311.9118,160.182 c -0.318,0.588 0.828,1.973 0.776,3.948 -0.011,0.396 0.166,0.729 0.292,1.077 0.5,1.428 1.733,2.443 2.817,-1.229 0.145,-0.509 -0.146,-2.588 0.134,-3.323 0.672,-1.738 -0.806,-4.713 -1.317,-4.598 -1.088,0.24 -2.702,4.125 -2.702,4.125"
     id="path272" />
  <path
     style="fill:none;stroke:#231f20;stroke-width:0.644548;stroke-linecap:round;stroke-linejoin:round;stroke-miterlimit:4;stroke-dasharray:none;stroke-opacity:1"
     d="m 311.9118,160.182 c -0.318,0.588 0.828,1.973 0.776,3.948 -0.011,0.396 0.166,0.729 0.292,1.077 0.5,1.428 1.733,2.443 2.817,-1.229 0.145,-0.509 -0.146,-2.588 0.134,-3.323 0.672,-1.738 -0.806,-4.713 -1.317,-4.598 -1.088,0.24 -2.702,4.125 -2.702,4.125 z"
     id="path273" />
  <path
     style="fill:#ffffff;fill-opacity:1;fill-rule:nonzero;stroke:none"
     d="m 347.0048,130.739 c -1.927,0 -3.484,2.588 -3.484,5.782 0,3.192 1.557,5.781 3.484,5.781 1.922,0 3.484,-2.589 3.484,-5.781 0,-3.194 -1.562,-5.782 -3.484,-5.782 m 0,1.302 c 0.874,0 2.15,1.745 2.15,4.48 0,2.733 -1.276,4.478 -2.15,4.478 -0.88,0 -2.151,-1.745 -2.151,-4.478 0,-2.735 1.271,-4.48 2.151,-4.48"
     id="path274" />
  <path
     style="fill:none;stroke:#231f20;stroke-width:0.665856;stroke-linecap:butt;stroke-linejoin:miter;stroke-miterlimit:4;stroke-dasharray:none;stroke-opacity:1"
     d="m 347.0048,130.739 c -1.927,0 -3.484,2.588 -3.484,5.782 0,3.192 1.557,5.781 3.484,5.781 1.922,0 3.484,-2.589 3.484,-5.781 0,-3.194 -1.562,-5.782 -3.484,-5.782 z m 0,1.302 c 0.874,0 2.15,1.745 2.15,4.48 0,2.733 -1.276,4.478 -2.15,4.478 -0.88,0 -2.151,-1.745 -2.151,-4.478 0,-2.735 1.271,-4.48 2.151,-4.48"
     id="path275" />
  <path
     style="fill:#231f20;fill-opacity:1;fill-rule:nonzero;stroke:none"
     d="m 345.3218,138.859 c -0.645,0.266 -0.837,2.567 -0.547,2.703 0.292,0.12 0.276,-0.645 0.604,-0.521 0.334,0.136 0.272,0.63 0.5,0.652 0.251,0.025 0.235,-0.579 0.527,-0.495 0.12,0.036 0.349,0.588 0.536,0.547 0.161,-0.038 0.349,-0.527 0.485,-0.558 0.203,-0.057 0.271,0.552 0.448,0.526 0.458,-0.078 -0.209,-2.708 -0.428,-2.823 -0.306,-0.156 -1.077,-0.459 -2.125,-0.031"
     id="path276" />
  <path
     style="fill:none;stroke:#231f20;stroke-width:0.565977;stroke-linecap:round;stroke-linejoin:round;stroke-miterlimit:4;stroke-dasharray:none;stroke-opacity:1"
     d="m 345.3218,138.859 c -0.645,0.266 -0.837,2.567 -0.547,2.703 0.292,0.12 0.276,-0.645 0.604,-0.521 0.334,0.136 0.272,0.63 0.5,0.652 0.251,0.025 0.235,-0.579 0.527,-0.495 0.12,0.036 0.349,0.588 0.536,0.547 0.161,-0.038 0.349,-0.527 0.485,-0.558 0.203,-0.057 0.271,0.552 0.448,0.526 0.458,-0.078 -0.209,-2.708 -0.428,-2.823 -0.306,-0.156 -1.077,-0.459 -2.125,-0.031 z"
     id="path277" />
  <path
     style="fill:#ffffff;fill-opacity:1;fill-rule:nonzero;stroke:none"
     d="m 287.2128,130.739 c -1.927,0 -3.484,2.588 -3.484,5.782 0,3.192 1.557,5.781 3.484,5.781 1.923,0 3.485,-2.589 3.485,-5.781 0,-3.194 -1.562,-5.782 -3.485,-5.782 m 0,1.302 c 0.876,0 2.152,1.745 2.152,4.48 0,2.733 -1.276,4.478 -2.152,4.478 -0.88,0 -2.151,-1.745 -2.151,-4.478 0,-2.735 1.271,-4.48 2.151,-4.48"
     id="path278" />
  <path
     style="fill:none;stroke:#231f20;stroke-width:0.665856;stroke-linecap:butt;stroke-linejoin:miter;stroke-miterlimit:4;stroke-dasharray:none;stroke-opacity:1"
     d="m 287.2128,130.739 c -1.927,0 -3.484,2.588 -3.484,5.782 0,3.192 1.557,5.781 3.484,5.781 1.923,0 3.485,-2.589 3.485,-5.781 0,-3.194 -1.562,-5.782 -3.485,-5.782 z m 0,1.302 c 0.876,0 2.152,1.745 2.152,4.48 0,2.733 -1.276,4.478 -2.152,4.478 -0.88,0 -2.151,-1.745 -2.151,-4.478 0,-2.735 1.271,-4.48 2.151,-4.48"
     id="path279" />
  <path
     style="fill:#231f20;fill-opacity:1;fill-rule:nonzero;stroke:none"
     d="m 286.1558,138.546 c -0.635,0.292 -0.75,2.599 -0.447,2.724 0.296,0.109 0.249,-0.651 0.583,-0.536 0.338,0.12 0.292,0.615 0.521,0.625 0.249,0.02 0.213,-0.584 0.509,-0.51 0.12,0.03 0.366,0.573 0.554,0.525 0.161,-0.041 0.333,-0.536 0.468,-0.572 0.198,-0.063 0.292,0.541 0.469,0.509 0.452,-0.093 -0.308,-2.702 -0.532,-2.801 -0.317,-0.151 -1.099,-0.427 -2.125,0.036"
     id="path280" />
  <path
     style="fill:none;stroke:#231f20;stroke-width:0.565977;stroke-linecap:round;stroke-linejoin:round;stroke-miterlimit:4;stroke-dasharray:none;stroke-opacity:1"
     d="m 286.1558,138.546 c -0.635,0.292 -0.75,2.599 -0.447,2.724 0.296,0.109 0.249,-0.651 0.583,-0.536 0.338,0.12 0.292,0.615 0.521,0.625 0.249,0.02 0.213,-0.584 0.509,-0.51 0.12,0.03 0.366,0.573 0.554,0.525 0.161,-0.041 0.333,-0.536 0.468,-0.572 0.198,-0.063 0.292,0.541 0.469,0.509 0.452,-0.093 -0.308,-2.702 -0.532,-2.801 -0.317,-0.151 -1.099,-0.427 -2.125,0.036 z"
     id="path281" />
</svg>
