<?xml version="1.0" encoding="UTF-8" standalone="no"?>
<!-- Created with Inkscape (http://www.inkscape.org/) -->

<svg
   version="1.1"
   id="svg1"
   width="325.55536"
   height="117.00829"
   viewBox="0 0 325.55534 117.0083"
   sodipodi:docname="cell.svg"
   xmlns:inkscape="http://www.inkscape.org/namespaces/inkscape"
   xmlns:sodipodi="http://sodipodi.sourceforge.net/DTD/sodipodi-0.dtd"
   xmlns="http://www.w3.org/2000/svg"
   xmlns:svg="http://www.w3.org/2000/svg">
  <sodipodi:namedview
     id="namedview1"
     pagecolor="#ffffff"
     bordercolor="#000000"
     borderopacity="0.25"
     inkscape:showpageshadow="2"
     inkscape:pageopacity="0.0"
     inkscape:pagecheckerboard="0"
     inkscape:deskcolor="#d1d1d1">
    <inkscape:page
       x="1.3458452e-07"
       y="9.5892083e-15"
       inkscape:label="1"
       id="page1"
       width="325.55533"
       height="117.00829"
       margin="0"
       bleed="0" />
  </sodipodi:namedview>
  <defs
     id="defs1" />
  <path
     style="fill:#ffffff;fill-opacity:1;fill-rule:nonzero;stroke:#231f20;stroke-width:0.665856;stroke-linecap:butt;stroke-linejoin:miter;stroke-miterlimit:4;stroke-dasharray:none;stroke-opacity:1"
     d="m 96.060944,0.38404911 -5.374,31.21399989 1.313,0.224 5.375,-31.21399989 z"
     id="path284" />
  <path
     style="fill:#ffffff;fill-opacity:1;fill-rule:nonzero;stroke:none"
     d="m 86.300944,35.854049 c 0.402,-2.324 2.61,-3.887 4.927,-3.486 2.324,0.402 3.885,2.61 3.485,4.932 -0.396,2.319 -2.609,3.882 -4.933,3.48 -2.317,-0.396 -3.88,-2.609 -3.479,-4.926 m -1.312,-0.23 c -0.526,3.042 1.526,5.948 4.568,6.468 3.047,0.527 5.947,-1.525 6.468,-4.568 0.527,-3.041 -1.525,-5.942 -4.568,-6.468 -3.041,-0.526 -5.948,1.526 -6.468,4.568"
     id="path285" />
  <path
     style="fill:none;stroke:#231f20;stroke-width:0.665856;stroke-linecap:butt;stroke-linejoin:miter;stroke-miterlimit:4;stroke-dasharray:none;stroke-opacity:1"
     d="m 86.300944,35.854049 c 0.402,-2.324 2.61,-3.887 4.927,-3.486 2.324,0.402 3.885,2.61 3.485,4.932 -0.396,2.319 -2.609,3.882 -4.933,3.48 -2.317,-0.396 -3.88,-2.609 -3.479,-4.926 z m -1.312,-0.23 c -0.526,3.042 1.526,5.948 4.568,6.468 3.047,0.527 5.947,-1.525 6.468,-4.568 0.527,-3.041 -1.525,-5.942 -4.568,-6.468 -3.041,-0.526 -5.948,1.526 -6.468,4.568 z"
     id="path286" />
  <path
     style="fill:#ffffff;fill-opacity:1;fill-rule:nonzero;stroke:#231f20;stroke-width:0.665856;stroke-linecap:butt;stroke-linejoin:miter;stroke-miterlimit:4;stroke-dasharray:none;stroke-opacity:1"
     d="m 65.560944,0.60804911 3.153,31.52199989 1.322,-0.136 -3.145,-31.52199989 z"
     id="path287" />
  <path
     style="fill:#ffffff;fill-opacity:1;fill-rule:nonzero;stroke:none"
     d="m 69.374944,32.442049 c 2.348,-0.131 4.369,1.672 4.5,4.026 0.129,2.348 -1.672,4.37 -4.021,4.499 -2.35,0.131 -4.37,-1.671 -4.506,-4.02 -0.129,-2.349 1.672,-4.369 4.027,-4.505 m -0.079,-1.328 c -3.082,0.177 -5.448,2.822 -5.276,5.906 0.172,3.083 2.823,5.452 5.906,5.28 3.083,-0.176 5.449,-2.828 5.277,-5.91 -0.172,-3.084 -2.823,-5.448 -5.907,-5.276"
     id="path288" />
  <path
     style="fill:none;stroke:#231f20;stroke-width:0.665856;stroke-linecap:butt;stroke-linejoin:miter;stroke-miterlimit:4;stroke-dasharray:none;stroke-opacity:1"
     d="m 69.374944,32.442049 c 2.348,-0.131 4.369,1.672 4.5,4.026 0.129,2.348 -1.672,4.37 -4.021,4.499 -2.35,0.131 -4.37,-1.671 -4.506,-4.02 -0.129,-2.349 1.672,-4.369 4.027,-4.505 z m -0.079,-1.328 c -3.082,0.177 -5.448,2.822 -5.276,5.906 0.172,3.083 2.823,5.452 5.906,5.28 3.083,-0.176 5.449,-2.828 5.277,-5.91 -0.172,-3.084 -2.823,-5.448 -5.907,-5.276 z"
     id="path289" />
  <path
     style="fill:#ffffff;fill-opacity:1;fill-rule:nonzero;stroke:#231f20;stroke-width:0.665856;stroke-linecap:butt;stroke-linejoin:miter;stroke-miterlimit:4;stroke-dasharray:none;stroke-opacity:1"
     d="m 118.85294,0.75904911 -3.145,31.52099989 -1.328,-0.136 3.151,-31.51399989 z"
     id="path290" />
  <path
     style="fill:#ffffff;fill-opacity:1;fill-rule:nonzero;stroke:none"
     d="m 118.34294,39.300049 c -1.328,1.948 -3.99,2.448 -5.932,1.126 -1.948,-1.328 -2.448,-3.99 -1.126,-5.938 1.328,-1.942 3.991,-2.442 5.934,-1.12 1.948,1.328 2.448,3.99 1.124,5.932 m -8.156,-5.561 c -1.74,2.552 -1.083,6.047 1.469,7.785 2.552,1.74 6.047,1.079 7.787,-1.473 1.738,-2.547 1.077,-6.041 -1.47,-7.781 -2.557,-1.74 -6.046,-1.079 -7.786,1.469"
     id="path291" />
  <path
     style="fill:none;stroke:#231f20;stroke-width:0.665856;stroke-linecap:butt;stroke-linejoin:miter;stroke-miterlimit:4;stroke-dasharray:none;stroke-opacity:1"
     d="m 118.34294,39.300049 c -1.328,1.948 -3.99,2.448 -5.932,1.126 -1.948,-1.328 -2.448,-3.99 -1.126,-5.938 1.328,-1.942 3.991,-2.442 5.934,-1.12 1.948,1.328 2.448,3.99 1.124,5.932 z m -8.156,-5.561 c -1.74,2.552 -1.083,6.047 1.469,7.785 2.552,1.74 6.047,1.079 7.787,-1.473 1.738,-2.547 1.077,-6.041 -1.47,-7.781 -2.557,-1.74 -6.046,-1.079 -7.786,1.469 z"
     id="path292" />
  <path
     style="fill:#231f20;fill-opacity:1;fill-rule:nonzero;stroke:none"
     d="m 63.295944,111.59205 c 1.328,-0.26 1.495,-1.235 0.975,-2.129 -0.157,-0.267 -0.016,-0.658 -0.188,-0.907 -0.407,-0.579 -2.1361,-0.817 -2.6976,0.573 -0.0426,0.099 -0.5682,0.728 -0.8813,1.266 -0.6187,1.041 -1.3536,3.426 -0.0667,5.796 0.6043,1.125 1.1558,0.562 1.0464,0.032 -0.3437,-1.678 -0.041,-1.891 0.0256,-2.366 0.2348,-1.604 1.7866,-2.265 1.7866,-2.265"
     id="path293" />
  <path
     style="fill:none;stroke:#231f20;stroke-width:0.332927;stroke-linecap:butt;stroke-linejoin:miter;stroke-miterlimit:4;stroke-dasharray:none;stroke-opacity:1"
     d="m 63.295944,111.59205 c 1.328,-0.26 1.495,-1.235 0.975,-2.129 -0.157,-0.267 -0.016,-0.658 -0.188,-0.907 -0.407,-0.579 -2.1361,-0.817 -2.6976,0.573 -0.0426,0.099 -0.5682,0.728 -0.8813,1.266 -0.6187,1.041 -1.3536,3.426 -0.0667,5.796 0.6043,1.125 1.1558,0.562 1.0464,0.032 -0.3437,-1.678 -0.041,-1.891 0.0256,-2.366 0.2348,-1.604 1.7866,-2.265 1.7866,-2.265 z"
     id="path294" />
  <path
     style="fill:#231f20;fill-opacity:1;fill-rule:nonzero;stroke:none"
     d="m 70.098944,94.119049 c 2.145,0.734 2.462,1.161 2.218,2.088 -0.167,0.614 -0.109,1.245 -0.187,1.625 -0.276,1.265 -1.266,3.287001 -5.552,8.281001 -0.974,1.131 -2.329,2.73 -2.829,3.427 -0.797,1.104 -2.0876,-0.959 -1.7808,-1.396 0.9838,-1.4 1.5518,-2.448 1.8388,-3 0.193,-0.38 0.63,-1.005 1.197,-2.572 0.86,-2.376 1.027,-3.923001 1.969,-5.819001 0.438,-0.874 0.214,-1.817 1.083,-2.457 0.87,-0.652 2.043,-0.177 2.043,-0.177"
     id="path295" />
  <path
     style="fill:none;stroke:#231f20;stroke-width:0.565977;stroke-linecap:butt;stroke-linejoin:miter;stroke-miterlimit:4;stroke-dasharray:none;stroke-opacity:1"
     d="m 70.098944,94.119049 c 2.145,0.734 2.462,1.161 2.218,2.088 -0.167,0.614 -0.109,1.245 -0.187,1.625 -0.276,1.265 -1.266,3.287001 -5.552,8.281001 -0.974,1.131 -2.329,2.73 -2.829,3.427 -0.797,1.104 -2.0876,-0.959 -1.7808,-1.396 0.9838,-1.4 1.5518,-2.448 1.8388,-3 0.193,-0.38 0.63,-1.005 1.197,-2.572 0.86,-2.376 1.027,-3.923001 1.969,-5.819001 0.438,-0.874 0.214,-1.817 1.083,-2.457 0.87,-0.652 2.043,-0.177 2.043,-0.177 z"
     id="path296" />
  <path
     style="fill:#ca0369;fill-opacity:1;fill-rule:nonzero;stroke:#231f20;stroke-width:0.565977;stroke-linecap:butt;stroke-linejoin:miter;stroke-miterlimit:4;stroke-dasharray:none;stroke-opacity:1"
     d="m 82.306944,70.972049 c -0.558,3.084 -0.334,3.808 -0.126,4.704 1.298,5.629 -1.489,6.167 -4.191,5.151 -3.178,-1.188 -4.34,-1.547 -2.647,-7.615 0.469,-1.683 1.428,-8.391 1.428,-8.391 0.02,-2.442 1.343,-4.822 2.676,-5.416 1.401,-0.62 0.89,-0.276 2.297,-0.614 1.333,-0.328 3.427,0.301 3.923,1.437 0.473,1.088 -0.5,2.443 -1.647,4.577 -0.901,1.683 -1.713,6.167 -1.713,6.167"
     id="path297" />
  <path
     style="fill:#ffffff;fill-opacity:1;fill-rule:nonzero;stroke:none"
     d="m 81.577944,52.379049 c 0.026,-0.244 -1.036,-0.672 -0.881,-1.172 0.162,-0.5 0.948,-0.459 2.307,-1.911 l 0.016,-0.016 c 0.953,-1.098 2.224,-1.661 3.443,-1.374 2.026,0.467 3.146,3.077 2.51,5.827 -0.64,2.75 -2.797,4.604 -4.823,4.13 -1.936,-0.448 -3.046,-2.864 -2.572,-5.484"
     id="path298" />
  <path
     style="fill:none;stroke:#231f20;stroke-width:0.565977;stroke-linecap:butt;stroke-linejoin:miter;stroke-miterlimit:4;stroke-dasharray:none;stroke-opacity:1"
     d="m 81.577944,52.379049 c 0.026,-0.244 -1.036,-0.672 -0.881,-1.172 0.162,-0.5 0.948,-0.459 2.307,-1.911 l 0.016,-0.016 c 0.953,-1.098 2.224,-1.661 3.443,-1.374 2.026,0.467 3.146,3.077 2.51,5.827 -0.64,2.75 -2.797,4.604 -4.823,4.13 -1.936,-0.448 -3.046,-2.864 -2.572,-5.484 z"
     id="path299" />
  <path
     style="fill:#231f20;fill-opacity:1;fill-rule:nonzero;stroke:none"
     d="m 69.858944,96.581049 c -3.891,-0.962 -1.245,-4.072 -1.131,-4.53 1.183,-4.87 1.391,-5.194 2.548,-8.834 1.676,-5.27 3.629,-8.62 6.979,-8.536 2.271,0.052 3.557,1.067 4.011,2.302 0.51,1.37 0.109,4.521 -2.506,5.75 l -0.937,1.432 c -0.5,1.047 -0.762,1.563 -0.969,2.094 -0.364,0.937 -0.807,1.917 -1.621,3.698 -1.431,3.162 -3.989,6.031 -3.989,6.031 -0.541,1.12 -2.385,0.593 -2.385,0.593"
     id="path300" />
  <path
     style="fill:none;stroke:#231f20;stroke-width:0.565977;stroke-linecap:butt;stroke-linejoin:miter;stroke-miterlimit:4;stroke-dasharray:none;stroke-opacity:1"
     d="m 69.858944,96.581049 c -3.891,-0.962 -1.245,-4.072 -1.131,-4.53 1.183,-4.87 1.391,-5.194 2.548,-8.834 1.676,-5.27 3.629,-8.62 6.979,-8.536 2.271,0.052 3.557,1.067 4.011,2.302 0.51,1.37 0.109,4.521 -2.506,5.75 l -0.937,1.432 c -0.5,1.047 -0.762,1.563 -0.969,2.094 -0.364,0.937 -0.807,1.917 -1.621,3.698 -1.431,3.162 -3.989,6.031 -3.989,6.031 -0.541,1.12 -2.385,0.593 -2.385,0.593 z"
     id="path301" />
  <path
     style="fill:#ca0369;fill-opacity:1;fill-rule:nonzero;stroke:none"
     d="m 82.270944,76.983049 c -0.459,-1.239 -1.745,-2.25 -4.016,-2.302 -1.475,-0.037 -2.672,0.61 -3.698,1.776 -0.843,0.61 -1.338,1 -1.354,1.807 0,0.073 -0.011,0.151 -0.027,0.229 -0.271,0.516 -0.541,1.063 -0.796,1.672 l 7.38,2.568 c 2.62,-1.229 3.016,-4.38 2.511,-5.75"
     id="path302" />
  <path
     style="fill:none;stroke:#231f20;stroke-width:0.565977;stroke-linecap:butt;stroke-linejoin:miter;stroke-miterlimit:4;stroke-dasharray:none;stroke-opacity:1"
     d="m 82.270944,76.983049 c -0.459,-1.239 -1.745,-2.25 -4.016,-2.302 -1.475,-0.037 -2.672,0.61 -3.698,1.776 -0.843,0.61 -1.338,1 -1.354,1.807 0,0.073 -0.011,0.151 -0.027,0.229 -0.271,0.516 -0.541,1.063 -0.796,1.672 l 7.38,2.568 c 2.62,-1.229 3.016,-4.38 2.511,-5.75 z"
     id="path303" />
  <path
     style="fill:#231f20;fill-opacity:1;fill-rule:nonzero;stroke:none"
     d="m 88.332944,41.863049 c -0.516,0.385 -0.917,2.292 -1.829,3.615 -0.613,0.896 -1.109,3.594 -1.791,4.442 -0.62,0.771 -0.833,1.188 -0.068,2.052 0.448,0.511 1.651,1.199 2.047,0.881 0.932,-0.745 1.375,-1.578 1.672,-2.609 0.339,-1.167 0.973,-4.417 1.031,-5.026 0.152,-1.516 0.661,-2.047 0.74,-2.443 0.145,-0.751 -0.104,-0.989 -0.568,-1.188 -0.88,-0.375 -1.234,0.276 -1.234,0.276"
     id="path304" />
  <path
     style="fill:none;stroke:#231f20;stroke-width:0.565977;stroke-linecap:butt;stroke-linejoin:miter;stroke-miterlimit:4;stroke-dasharray:none;stroke-opacity:1"
     d="m 88.332944,41.863049 c -0.516,0.385 -0.917,2.292 -1.829,3.615 -0.613,0.896 -1.109,3.594 -1.791,4.442 -0.62,0.771 -0.833,1.188 -0.068,2.052 0.448,0.511 1.651,1.199 2.047,0.881 0.932,-0.745 1.375,-1.578 1.672,-2.609 0.339,-1.167 0.973,-4.417 1.031,-5.026 0.152,-1.516 0.661,-2.047 0.74,-2.443 0.145,-0.751 -0.104,-0.989 -0.568,-1.188 -0.88,-0.375 -1.234,0.276 -1.234,0.276 z"
     id="path305" />
  <path
     style="fill:#231f20;fill-opacity:1;fill-rule:nonzero;stroke:none"
     d="m 85.218944,50.368049 c -1.262,-0.312 -1.376,1.719 -1.491,2.251 -0.115,0.53 -0.609,2.01 -1.14,3.109 -0.532,1.104 -0.729,2.708 -1.734,4.801 -0.537,1.104 -0.354,2.511 1.281,3.21 1.609,0.692 2.609,0.046 3.046,-1.382 0.443,-1.432 0.256,-2.957 0.599,-4.432 0.344,-1.473 0.829,-2.937 1.267,-4.072 0.5,-1.292 0.265,-2.114 -0.079,-2.442 -0.859,-0.834 -1.749,-1.043 -1.749,-1.043"
     id="path306" />
  <path
     style="fill:none;stroke:#231f20;stroke-width:0.565977;stroke-linecap:butt;stroke-linejoin:miter;stroke-miterlimit:4;stroke-dasharray:none;stroke-opacity:1"
     d="m 85.218944,50.368049 c -1.262,-0.312 -1.376,1.719 -1.491,2.251 -0.115,0.53 -0.609,2.01 -1.14,3.109 -0.532,1.104 -0.729,2.708 -1.734,4.801 -0.537,1.104 -0.354,2.511 1.281,3.21 1.609,0.692 2.609,0.046 3.046,-1.382 0.443,-1.432 0.256,-2.957 0.599,-4.432 0.344,-1.473 0.829,-2.937 1.267,-4.072 0.5,-1.292 0.265,-2.114 -0.079,-2.442 -0.859,-0.834 -1.749,-1.043 -1.749,-1.043 z"
     id="path307" />
  <path
     style="fill:#231f20;fill-opacity:1;fill-rule:nonzero;stroke:none"
     d="m 88.707944,41.718049 c -0.407,-0.574 0.667,-2.626 0.979,-2.579 0.317,0.048 -0.11,0.688 0.239,0.756 0.354,0.072 0.563,-0.385 0.766,-0.281 0.224,0.114 -0.115,0.614 0.183,0.697 0.12,0.037 0.604,-0.307 0.744,-0.172 0.114,0.115 0.021,0.625 0.109,0.729 0.147,0.156 0.532,-0.322 0.667,-0.202 0.343,0.312 -1.63,2.177 -1.87,2.156 -0.349,-0.031 -1.161,-0.188 -1.817,-1.104"
     id="path308" />
  <path
     style="fill:none;stroke:#231f20;stroke-width:0.565977;stroke-linecap:round;stroke-linejoin:round;stroke-miterlimit:4;stroke-dasharray:none;stroke-opacity:1"
     d="m 88.707944,41.718049 c -0.407,-0.574 0.667,-2.626 0.979,-2.579 0.317,0.048 -0.11,0.688 0.239,0.756 0.354,0.072 0.563,-0.385 0.766,-0.281 0.224,0.114 -0.115,0.614 0.183,0.697 0.12,0.037 0.604,-0.307 0.744,-0.172 0.114,0.115 0.021,0.625 0.109,0.729 0.147,0.156 0.532,-0.322 0.667,-0.202 0.343,0.312 -1.63,2.177 -1.87,2.156 -0.349,-0.031 -1.161,-0.188 -1.817,-1.104 z"
     id="path309" />
  <path
     style="fill:#231f20;fill-opacity:1;fill-rule:nonzero;stroke:none"
     d="m 3.8589439,6.7480491 c -0.3906,1.292 0.401,1.891 1.4318,1.844 0.3134,-0.014 0.5948,0.292 0.8964,0.256 0.6984,-0.094 1.7077,-1.516 0.7342,-2.657 -0.0676,-0.083 -0.3853,-0.837 -0.7077,-1.364 -0.6417,-1.031 -2.4172,-2.787 -5.1147,-2.745 -1.27600004,0.016 -1.03220004,0.766 -0.50570004,0.917 1.64010004,0.473 1.69230004,0.839 2.07760004,1.115 1.3188,0.948 1.1881,2.634 1.1881,2.634"
     id="path310" />
  <path
     style="fill:none;stroke:#231f20;stroke-width:0.332927;stroke-linecap:butt;stroke-linejoin:miter;stroke-miterlimit:4;stroke-dasharray:none;stroke-opacity:1"
     d="m 3.8589439,6.7480491 c -0.3906,1.292 0.401,1.891 1.4318,1.844 0.3134,-0.014 0.5948,0.292 0.8964,0.256 0.6984,-0.094 1.7077,-1.516 0.7342,-2.657 -0.0676,-0.083 -0.3853,-0.837 -0.7077,-1.364 -0.6417,-1.031 -2.4172,-2.787 -5.1147,-2.745 -1.27600004,0.016 -1.03220004,0.766 -0.50570004,0.917 1.64010004,0.473 1.69230004,0.839 2.07760004,1.115 1.3188,0.948 1.1881,2.634 1.1881,2.634 z"
     id="path311" />
  <path
     style="fill:#231f20;fill-opacity:1;fill-rule:nonzero;stroke:none"
     d="m 16.202644,20.858049 c -1.636,1.562 -2.1666,1.646 -2.8745,1 -0.4692,-0.432 -1.052,-0.671 -1.3547,-0.916 -1,-0.834 -2.3281001,-2.642 -4.7759001,-8.751 -0.5522,-1.389 -1.3438,-3.3329999 -1.7292,-4.0989999 -0.6094,-1.213 1.812,-1.401 2.0573,-0.932 0.7916,1.522 1.453,2.511 1.8118,3.0159999 0.2454,0.354 0.6,1.026 1.7240001,2.255 1.7094,1.86 3.0052,2.724 4.2506,4.437 0.5786,0.798 1.5161,1.027 1.6828,2.095 0.1718,1.072 -0.7922,1.895 -0.7922,1.895"
     id="path312" />
  <path
     style="fill:none;stroke:#231f20;stroke-width:0.565977;stroke-linecap:butt;stroke-linejoin:miter;stroke-miterlimit:4;stroke-dasharray:none;stroke-opacity:1"
     d="m 16.202644,20.858049 c -1.636,1.562 -2.1666,1.646 -2.8745,1 -0.4692,-0.432 -1.052,-0.671 -1.3547,-0.916 -1,-0.834 -2.3281001,-2.642 -4.7759001,-8.751 -0.5522,-1.389 -1.3438,-3.3329999 -1.7292,-4.0989999 -0.6094,-1.213 1.812,-1.401 2.0573,-0.932 0.7916,1.522 1.453,2.511 1.8118,3.0159999 0.2454,0.354 0.6,1.026 1.7240001,2.255 1.7094,1.86 3.0052,2.724 4.2506,4.437 0.5786,0.798 1.5161,1.027 1.6828,2.095 0.1718,1.072 -0.7922,1.895 -0.7922,1.895 z"
     id="path313" />
  <path
     style="fill:#ca0369;fill-opacity:1;fill-rule:nonzero;stroke:none"
     d="m 33.166644,40.300049 c -2.9796,-0.952 -3.7239,-0.828 -4.6411,-0.738 -5.7548,0.546 -5.9161,-2.292 -4.5573,-4.834 1.5932,-2.994 2.1036,-4.094 7.8959,-1.625 1.6093,0.688 8.1306,2.527 8.1306,2.527 2.4213,0.337 4.6041,1.962 5.0147,3.358 0.4374,1.475 0.1572,0.923 0.3077,2.36 0.1511,1.37 -0.7557,3.359 -1.9421,3.703 -1.1366,0.323 -2.3547,-0.817 -4.323,-2.24 -1.548,-1.115 -5.8854,-2.511 -5.8854,-2.511"
     id="path314" />
  <path
     style="fill:none;stroke:#231f20;stroke-width:0.565977;stroke-linecap:butt;stroke-linejoin:miter;stroke-miterlimit:4;stroke-dasharray:none;stroke-opacity:1"
     d="m 33.166644,40.300049 c -2.9796,-0.952 -3.7239,-0.828 -4.6411,-0.738 -5.7548,0.546 -5.9161,-2.292 -4.5573,-4.834 1.5932,-2.994 2.1036,-4.094 7.8959,-1.625 1.6093,0.688 8.1306,2.527 8.1306,2.527 2.4213,0.337 4.6041,1.962 5.0147,3.358 0.4374,1.475 0.1572,0.923 0.3077,2.36 0.1511,1.37 -0.7557,3.359 -1.9421,3.703 -1.1366,0.323 -2.3547,-0.817 -4.323,-2.24 -1.548,-1.115 -5.8854,-2.511 -5.8854,-2.511 z"
     id="path315" />
  <path
     style="fill:#ffffff;fill-opacity:1;fill-rule:nonzero;stroke:none"
     d="m 50.421244,36.363049 c 0.2188,-0.099 0.0735,-1.233 0.5828,-1.343 0.5105,-0.109 0.8652,0.599 2.8027,1.058 h 0.0213 c 1.4265,0.285 2.5469,1.113 2.9,2.317 0.6,1.984 -1.1187,4.26 -3.8229,5.063 -2.7026,0.812 -5.3796,-0.147 -5.9729,-2.136 -0.5734,-1.907 0.9786,-4.068 3.489,-4.959"
     id="path316" />
  <path
     style="fill:none;stroke:#231f20;stroke-width:0.565977;stroke-linecap:butt;stroke-linejoin:miter;stroke-miterlimit:4;stroke-dasharray:none;stroke-opacity:1"
     d="m 50.421244,36.363049 c 0.2188,-0.099 0.0735,-1.233 0.5828,-1.343 0.5105,-0.109 0.8652,0.599 2.8027,1.058 h 0.0213 c 1.4265,0.285 2.5469,1.113 2.9,2.317 0.6,1.984 -1.1187,4.26 -3.8229,5.063 -2.7026,0.812 -5.3796,-0.147 -5.9729,-2.136 -0.5734,-1.907 0.9786,-4.068 3.489,-4.959 z"
     id="path317" />
  <path
     style="fill:#231f20;fill-opacity:1;fill-rule:nonzero;stroke:none"
     d="m 14.129744,19.510049 c 2.6557,-3.006 4.1823,0.776 4.5411,1.088 3.7761,3.297 3.9641,3.63 6.6573,6.344 3.8958,3.916 5.9625,7.202 4.3426,10.136 -1.0989,1.989 -2.588,2.656 -3.9,2.494 -1.4426,-0.188 -4.0571,-2 -3.9374,-4.881 l -0.8333,-1.5 c -0.6984,-0.927 -1.037,-1.395 -1.412,-1.828 -0.6667,-0.749 -1.3224,-1.599 -2.5318,-3.145 -2.1349,-2.73 -3.5041,-6.323 -3.5041,-6.323 -0.7401,-1 0.5776,-2.385 0.5776,-2.385"
     id="path318" />
  <path
     style="fill:none;stroke:#231f20;stroke-width:0.565977;stroke-linecap:butt;stroke-linejoin:miter;stroke-miterlimit:4;stroke-dasharray:none;stroke-opacity:1"
     d="m 14.129744,19.510049 c 2.6557,-3.006 4.1823,0.776 4.5411,1.088 3.7761,3.297 3.9641,3.63 6.6573,6.344 3.8958,3.916 5.9625,7.202 4.3426,10.136 -1.0989,1.989 -2.588,2.656 -3.9,2.494 -1.4426,-0.188 -4.0571,-2 -3.9374,-4.881 l -0.8333,-1.5 c -0.6984,-0.927 -1.037,-1.395 -1.412,-1.828 -0.6667,-0.749 -1.3224,-1.599 -2.5318,-3.145 -2.1349,-2.73 -3.5041,-6.323 -3.5041,-6.323 -0.7401,-1 0.5776,-2.385 0.5776,-2.385 z"
     id="path319" />
  <path
     style="fill:#ca0369;fill-opacity:1;fill-rule:nonzero;stroke:none"
     d="m 29.806744,32.972049 c -0.1505,-1.025 -0.2708,-1.645 -0.9786,-2.03 -0.0626,-0.031 -0.1255,-0.079 -0.188,-0.131 -0.3334,-0.479 -0.6932,-0.973 -1.1094,-1.479 l -5.6974,5.359 c -0.1197,2.881 2.4948,4.693 3.9374,4.881 1.312,0.162 2.8011,-0.505 3.9,-2.494 0.7147,-1.292 0.6934,-2.652 0.136,-4.106"
     id="path320" />
  <path
     style="fill:none;stroke:#231f20;stroke-width:0.565977;stroke-linecap:butt;stroke-linejoin:miter;stroke-miterlimit:4;stroke-dasharray:none;stroke-opacity:1"
     d="m 29.806744,32.972049 c -0.1505,-1.025 -0.2708,-1.645 -0.9786,-2.03 -0.0626,-0.031 -0.1255,-0.079 -0.188,-0.131 -0.3334,-0.479 -0.6932,-0.973 -1.1094,-1.479 l -5.6974,5.359 c -0.1197,2.881 2.4948,4.693 3.9374,4.881 1.312,0.162 2.8011,-0.505 3.9,-2.494 0.7147,-1.292 0.6934,-2.652 0.136,-4.106 z"
     id="path321" />
  <path
     style="fill:#231f20;fill-opacity:1;fill-rule:nonzero;stroke:none"
     d="m 62.904944,37.020049 c -0.593,-0.256 -2.4477,0.338 -4.0513,0.203 -1.0776,-0.088 -3.6724,0.817 -4.7401,0.645 -0.9839,-0.156 -1.447,-0.129 -1.8172,0.959 -0.2246,0.645 -0.2246,2.031 0.2505,2.219 1.1093,0.437 2.052,0.406 3.0932,0.156 1.1771,-0.287 4.3172,-1.344 4.8745,-1.594 1.3906,-0.625 2.1044,-0.442 2.4894,-0.573 0.724,-0.244 0.808,-0.577 0.751,-1.083 -0.11,-0.948 -0.85,-0.932 -0.85,-0.932"
     id="path322" />
  <path
     style="fill:none;stroke:#231f20;stroke-width:0.565977;stroke-linecap:butt;stroke-linejoin:miter;stroke-miterlimit:4;stroke-dasharray:none;stroke-opacity:1"
     d="m 62.904944,37.020049 c -0.593,-0.256 -2.4477,0.338 -4.0513,0.203 -1.0776,-0.088 -3.6724,0.817 -4.7401,0.645 -0.9839,-0.156 -1.447,-0.129 -1.8172,0.959 -0.2246,0.645 -0.2246,2.031 0.2505,2.219 1.1093,0.437 2.052,0.406 3.0932,0.156 1.1771,-0.287 4.3172,-1.344 4.8745,-1.594 1.3906,-0.625 2.1044,-0.442 2.4894,-0.573 0.724,-0.244 0.808,-0.577 0.751,-1.083 -0.11,-0.948 -0.85,-0.932 -0.85,-0.932 z"
     id="path323" />
  <path
     style="fill:#231f20;fill-opacity:1;fill-rule:nonzero;stroke:none"
     d="m 53.973344,38.530049 c -0.3598,-1.244 -2.1828,-0.343 -2.6973,-0.176 -0.5163,0.166 -2.0428,0.468 -3.2666,0.552 -1.2188,0.082 -2.7079,0.708 -5.0256,0.869 -1.224,0.083 -2.3542,0.943 -2.1506,2.708 0.1923,1.74 1.2495,2.287 2.7084,1.964 1.4624,-0.328 2.6916,-1.251 4.1454,-1.683 1.4478,-0.432 2.9634,-0.734 4.1609,-0.916 1.3708,-0.209 1.9692,-0.818 2.0894,-1.281 0.2959,-1.156 0.036,-2.037 0.036,-2.037"
     id="path324" />
  <path
     style="fill:none;stroke:#231f20;stroke-width:0.565977;stroke-linecap:butt;stroke-linejoin:miter;stroke-miterlimit:4;stroke-dasharray:none;stroke-opacity:1"
     d="m 53.973344,38.530049 c -0.3598,-1.244 -2.1828,-0.343 -2.6973,-0.176 -0.5163,0.166 -2.0428,0.468 -3.2666,0.552 -1.2188,0.082 -2.7079,0.708 -5.0256,0.869 -1.224,0.083 -2.3542,0.943 -2.1506,2.708 0.1923,1.74 1.2495,2.287 2.7084,1.964 1.4624,-0.328 2.6916,-1.251 4.1454,-1.683 1.4478,-0.432 2.9634,-0.734 4.1609,-0.916 1.3708,-0.209 1.9692,-0.818 2.0894,-1.281 0.2959,-1.156 0.036,-2.037 0.036,-2.037 z"
     id="path325" />
  <path
     style="fill:#231f20;fill-opacity:1;fill-rule:nonzero;stroke:none"
     d="m 63.301944,38.863049 c 0.401,0.579 2.698,0.267 2.759,-0.047 0.058,-0.312 -0.686,-0.125 -0.629,-0.478 0.052,-0.355 0.547,-0.396 0.52,-0.626 -0.031,-0.249 -0.619,-0.104 -0.593,-0.406 0.01,-0.13 0.495,-0.468 0.417,-0.646 -0.073,-0.145 -0.589,-0.229 -0.652,-0.349 -0.098,-0.187 0.485,-0.385 0.418,-0.552 -0.178,-0.432 -2.599,0.792 -2.662,1.021 -0.089,0.344 -0.219,1.156 0.422,2.083"
     id="path326" />
  <path
     style="fill:none;stroke:#231f20;stroke-width:0.565977;stroke-linecap:round;stroke-linejoin:round;stroke-miterlimit:4;stroke-dasharray:none;stroke-opacity:1"
     d="m 63.301944,38.863049 c 0.401,0.579 2.698,0.267 2.759,-0.047 0.058,-0.312 -0.686,-0.125 -0.629,-0.478 0.052,-0.355 0.547,-0.396 0.52,-0.626 -0.031,-0.249 -0.619,-0.104 -0.593,-0.406 0.01,-0.13 0.495,-0.468 0.417,-0.646 -0.073,-0.145 -0.589,-0.229 -0.652,-0.349 -0.098,-0.187 0.485,-0.385 0.418,-0.552 -0.178,-0.432 -2.599,0.792 -2.662,1.021 -0.089,0.344 -0.219,1.156 0.422,2.083 z"
     id="path327" />
  <path
     style="fill:#231f20;fill-opacity:1;fill-rule:nonzero;stroke:none"
     d="m 180.37394,59.952049 c -0.874,-1.027 -1.813,-0.693 -2.333,0.203 -0.156,0.265 -0.563,0.338 -0.699,0.609 -0.301,0.636 0.339,2.26 1.834,2.068 0.104,-0.016 0.912,0.131 1.532,0.14 1.208,0.027 3.65,-0.515 5.082,-2.796 0.678,-1.084 -0.088,-1.287 -0.5,-0.923 -1.286,1.12 -1.62,0.964 -2.062,1.142 -1.515,0.582 -2.854,-0.443 -2.854,-0.443"
     id="path328" />
  <path
     style="fill:none;stroke:#231f20;stroke-width:0.332927;stroke-linecap:butt;stroke-linejoin:miter;stroke-miterlimit:4;stroke-dasharray:none;stroke-opacity:1"
     d="m 180.37394,59.952049 c -0.874,-1.027 -1.813,-0.693 -2.333,0.203 -0.156,0.265 -0.563,0.338 -0.699,0.609 -0.301,0.636 0.339,2.26 1.834,2.068 0.104,-0.016 0.912,0.131 1.532,0.14 1.208,0.027 3.65,-0.515 5.082,-2.796 0.678,-1.084 -0.088,-1.287 -0.5,-0.923 -1.286,1.12 -1.62,0.964 -2.062,1.142 -1.515,0.582 -2.854,-0.443 -2.854,-0.443 z"
     id="path329" />
  <path
     style="fill:#231f20;fill-opacity:1;fill-rule:nonzero;stroke:none"
     d="m 161.81694,62.639049 c -0.417,-2.224 -0.204,-2.714 0.724,-2.958 0.615,-0.161 1.14,-0.516 1.511,-0.63 1.238,-0.391 3.478,-0.527 9.937,0.745 1.468,0.291 3.525,0.681 4.375,0.776 1.354,0.145 0.197,2.285 -0.334,2.233 -1.708,-0.166 -2.896,-0.14 -3.516,-0.118 -0.426,0.014 -1.186,-0.058 -2.828,0.224 -2.489,0.421 -3.921,1.036 -6.036,1.15 -0.98,0.052 -1.682,0.708 -2.677,0.271 -0.989,-0.443 -1.156,-1.693 -1.156,-1.693"
     id="path330" />
  <path
     style="fill:none;stroke:#231f20;stroke-width:0.565977;stroke-linecap:butt;stroke-linejoin:miter;stroke-miterlimit:4;stroke-dasharray:none;stroke-opacity:1"
     d="m 161.81694,62.639049 c -0.417,-2.224 -0.204,-2.714 0.724,-2.958 0.615,-0.161 1.14,-0.516 1.511,-0.63 1.238,-0.391 3.478,-0.527 9.937,0.745 1.468,0.291 3.525,0.681 4.375,0.776 1.354,0.145 0.197,2.285 -0.334,2.233 -1.708,-0.166 -2.896,-0.14 -3.516,-0.118 -0.426,0.014 -1.186,-0.058 -2.828,0.224 -2.489,0.421 -3.921,1.036 -6.036,1.15 -0.98,0.052 -1.682,0.708 -2.677,0.271 -0.989,-0.443 -1.156,-1.693 -1.156,-1.693 z"
     id="path331" />
  <path
     style="fill:#ca0369;fill-opacity:1;fill-rule:nonzero;stroke:none"
     d="m 136.62894,59.024049 c 3.094,0.469 3.814,0.229 4.708,-0.004 5.59,-1.448 6.199,1.323 5.262,4.052 -1.099,3.208 -1.432,4.375 -7.543,2.853 -1.697,-0.426 -8.427,-1.208 -8.427,-1.208 -2.442,0.052 -4.853,-1.208 -5.484,-2.521 -0.661,-1.385 -0.297,-0.885 -0.677,-2.281 -0.364,-1.328 0.213,-3.438 1.328,-3.958 1.079,-0.51 2.459,0.427 4.625,1.52 1.708,0.855 6.208,1.547 6.208,1.547"
     id="path332" />
  <path
     style="fill:none;stroke:#231f20;stroke-width:0.565977;stroke-linecap:butt;stroke-linejoin:miter;stroke-miterlimit:4;stroke-dasharray:none;stroke-opacity:1"
     d="m 136.62894,59.024049 c 3.094,0.469 3.814,0.229 4.708,-0.004 5.59,-1.448 6.199,1.323 5.262,4.052 -1.099,3.208 -1.432,4.375 -7.543,2.853 -1.697,-0.426 -8.427,-1.208 -8.427,-1.208 -2.442,0.052 -4.853,-1.208 -5.484,-2.521 -0.661,-1.385 -0.297,-0.885 -0.677,-2.281 -0.364,-1.328 0.213,-3.438 1.328,-3.958 1.079,-0.51 2.459,0.427 4.625,1.52 1.708,0.855 6.208,1.547 6.208,1.547 z"
     id="path333" />
  <path
     style="fill:#ffffff;fill-opacity:1;fill-rule:nonzero;stroke:none"
     d="m 118.24894,60.629049 c -0.245,-0.016 -0.614,1.072 -1.125,0.943 -0.505,-0.131 -0.505,-0.923 -2.036,-2.188 l -0.021,-0.016 c -1.146,-0.891 -1.782,-2.124 -1.572,-3.364 0.353,-2.041 2.894,-3.317 5.676,-2.839 2.786,0.479 4.756,2.526 4.406,4.574 -0.338,1.957 -2.686,3.208 -5.328,2.89"
     id="path334" />
  <path
     style="fill:none;stroke:#231f20;stroke-width:0.565977;stroke-linecap:butt;stroke-linejoin:miter;stroke-miterlimit:4;stroke-dasharray:none;stroke-opacity:1"
     d="m 118.24894,60.629049 c -0.245,-0.016 -0.614,1.072 -1.125,0.943 -0.505,-0.131 -0.505,-0.923 -2.036,-2.188 l -0.021,-0.016 c -1.146,-0.891 -1.782,-2.124 -1.572,-3.364 0.353,-2.041 2.894,-3.317 5.676,-2.839 2.786,0.479 4.756,2.526 4.406,4.574 -0.338,1.957 -2.686,3.208 -5.328,2.89 z"
     id="path335" />
  <path
     style="fill:#231f20;fill-opacity:1;fill-rule:nonzero;stroke:none"
     d="m 164.07694,61.633049 c 1.079,3.866 -2.926,3.084 -3.385,3.215 -4.817,1.375 -5.197,1.353 -8.943,2.14 -5.406,1.136 -9.286,1.089 -10.869,-1.864 -1.073,-2.005 -0.824,-3.625 0.031,-4.631 0.937,-1.114 3.88,-2.322 6.234,-0.65 l 1.714,0.109 c 1.156,-0.079 1.734,-0.109 2.302,-0.188 0.99,-0.145 2.063,-0.24 4.015,-0.411 3.453,-0.308 7.213,0.5 7.213,0.5 1.24,-0.078 1.688,1.78 1.688,1.78"
     id="path336" />
  <path
     style="fill:none;stroke:#231f20;stroke-width:0.565977;stroke-linecap:butt;stroke-linejoin:miter;stroke-miterlimit:4;stroke-dasharray:none;stroke-opacity:1"
     d="m 164.07694,61.633049 c 1.079,3.866 -2.926,3.084 -3.385,3.215 -4.817,1.375 -5.197,1.353 -8.943,2.14 -5.406,1.136 -9.286,1.089 -10.869,-1.864 -1.073,-2.005 -0.824,-3.625 0.031,-4.631 0.937,-1.114 3.88,-2.322 6.234,-0.65 l 1.714,0.109 c 1.156,-0.079 1.734,-0.109 2.302,-0.188 0.99,-0.145 2.063,-0.24 4.015,-0.411 3.453,-0.308 7.213,0.5 7.213,0.5 1.24,-0.078 1.688,1.78 1.688,1.78 z"
     id="path337" />
  <path
     style="fill:#ca0369;fill-opacity:1;fill-rule:nonzero;stroke:none"
     d="m 148.54694,67.529049 -1.402,-7.686 c -2.354,-1.672 -5.297,-0.464 -6.234,0.65 -0.855,1.006 -1.104,2.626 -0.031,4.631 0.697,1.296 1.853,2.02 3.375,2.339 0.942,0.437 1.525,0.672 2.234,0.285 0.063,-0.031 0.14,-0.061 0.214,-0.088 0.588,-0.016 1.192,-0.052 1.844,-0.131"
     id="path338" />
  <path
     style="fill:none;stroke:#231f20;stroke-width:0.565977;stroke-linecap:butt;stroke-linejoin:miter;stroke-miterlimit:4;stroke-dasharray:none;stroke-opacity:1"
     d="m 148.54694,67.529049 -1.402,-7.686 c -2.354,-1.672 -5.297,-0.464 -6.234,0.65 -0.855,1.006 -1.104,2.626 -0.031,4.631 0.697,1.296 1.853,2.02 3.375,2.339 0.942,0.437 1.525,0.672 2.234,0.285 0.063,-0.031 0.14,-0.061 0.214,-0.088 0.588,-0.016 1.192,-0.052 1.844,-0.131 z"
     id="path339" />
  <path
     style="fill:#231f20;fill-opacity:1;fill-rule:nonzero;stroke:none"
     d="m 115.21294,42.775049 c -0.016,0.645 1.23,2.14 1.708,3.683 0.323,1.03 2.135,3.093 2.375,4.15 0.229,0.964 0.423,1.391 1.573,1.323 0.678,-0.036 1.964,-0.552 1.959,-1.063 -0.011,-1.192 -0.391,-2.057 -1.011,-2.926 -0.708,-0.984 -2.87,-3.495 -3.313,-3.922 -1.099,-1.053 -1.197,-1.781 -1.463,-2.094 -0.494,-0.578 -0.838,-0.526 -1.281,-0.287 -0.844,0.453 -0.547,1.136 -0.547,1.136"
     id="path340" />
  <path
     style="fill:none;stroke:#231f20;stroke-width:0.565977;stroke-linecap:butt;stroke-linejoin:miter;stroke-miterlimit:4;stroke-dasharray:none;stroke-opacity:1"
     d="m 115.21294,42.775049 c -0.016,0.645 1.23,2.14 1.708,3.683 0.323,1.03 2.135,3.093 2.375,4.15 0.229,0.964 0.423,1.391 1.573,1.323 0.678,-0.036 1.964,-0.552 1.959,-1.063 -0.011,-1.192 -0.391,-2.057 -1.011,-2.926 -0.708,-0.984 -2.87,-3.495 -3.313,-3.922 -1.099,-1.053 -1.197,-1.781 -1.463,-2.094 -0.494,-0.578 -0.838,-0.526 -1.281,-0.287 -0.844,0.453 -0.547,1.136 -0.547,1.136 z"
     id="path341" />
  <path
     style="fill:#231f20;fill-opacity:1;fill-rule:nonzero;stroke:none"
     d="m 119.96294,50.488049 c -1.026,0.797 0.5,2.151 0.844,2.568 0.349,0.416 1.202,1.719 1.74,2.817 0.536,1.099 1.672,2.246 2.692,4.334 0.537,1.104 1.756,1.828 3.318,0.984 1.542,-0.838 1.651,-2.02 0.802,-3.255 -0.85,-1.229 -2.167,-2.025 -3.115,-3.213 -0.943,-1.178 -1.792,-2.47 -2.411,-3.511 -0.709,-1.192 -1.496,-1.516 -1.969,-1.453 -1.188,0.156 -1.901,0.729 -1.901,0.729"
     id="path342" />
  <path
     style="fill:none;stroke:#231f20;stroke-width:0.565977;stroke-linecap:butt;stroke-linejoin:miter;stroke-miterlimit:4;stroke-dasharray:none;stroke-opacity:1"
     d="m 119.96294,50.488049 c -1.026,0.797 0.5,2.151 0.844,2.568 0.349,0.416 1.202,1.719 1.74,2.817 0.536,1.099 1.672,2.246 2.692,4.334 0.537,1.104 1.756,1.828 3.318,0.984 1.542,-0.838 1.651,-2.02 0.802,-3.255 -0.85,-1.229 -2.167,-2.025 -3.115,-3.213 -0.943,-1.178 -1.792,-2.47 -2.411,-3.511 -0.709,-1.192 -1.496,-1.516 -1.969,-1.453 -1.188,0.156 -1.901,0.729 -1.901,0.729 z"
     id="path343" />
  <path
     style="fill:#231f20;fill-opacity:1;fill-rule:nonzero;stroke:none"
     d="m 116.74394,41.895049 c 0.48,-0.511 -0.292,-2.693 -0.609,-2.688 -0.318,0 0.016,0.693 -0.339,0.713 -0.359,0.022 -0.505,-0.462 -0.724,-0.385 -0.239,0.079 0.027,0.62 -0.276,0.667 -0.125,0.016 -0.557,-0.391 -0.713,-0.282 -0.136,0.104 -0.11,0.626 -0.214,0.71 -0.161,0.134 -0.48,-0.396 -0.625,-0.292 -0.385,0.26 1.303,2.38 1.547,2.396 0.354,0.02 1.177,-0.027 1.953,-0.839"
     id="path344" />
  <path
     style="fill:none;stroke:#231f20;stroke-width:0.565977;stroke-linecap:round;stroke-linejoin:round;stroke-miterlimit:4;stroke-dasharray:none;stroke-opacity:1"
     d="m 116.74394,41.895049 c 0.48,-0.511 -0.292,-2.693 -0.609,-2.688 -0.318,0 0.016,0.693 -0.339,0.713 -0.359,0.022 -0.505,-0.462 -0.724,-0.385 -0.239,0.079 0.027,0.62 -0.276,0.667 -0.125,0.016 -0.557,-0.391 -0.713,-0.282 -0.136,0.104 -0.11,0.626 -0.214,0.71 -0.161,0.134 -0.48,-0.396 -0.625,-0.292 -0.385,0.26 1.303,2.38 1.547,2.396 0.354,0.02 1.177,-0.027 1.953,-0.839 z"
     id="path345" />
  <path
     style="fill:none;stroke:#231f20;stroke-width:0.399514;stroke-linecap:butt;stroke-linejoin:miter;stroke-miterlimit:4;stroke-dasharray:none;stroke-opacity:1"
     d="m 58.322844,85.441049 c -0.5,3.006 1.8532,6.755 2.7651,7.558 6.079,5.396 12.145,5.64 18.579,3.265"
     id="path346" />
  <path
     style="fill:#231f20;fill-opacity:1;fill-rule:nonzero;stroke:none"
     d="m 80.801944,95.848049 c -0.465,0.396 -1,0.973 -1.276,1.484 l -0.006,-1.011 -0.651,-0.776 c 0.542,0.208 1.323,0.303 1.933,0.303"
     id="path347" />
  <path
     style="fill:#ca0369;fill-opacity:1;fill-rule:nonzero;stroke:none"
     d="m 197.02994,46.655049 c 1.224,2.885 1.803,3.369 2.47,4.01 4.161,4.011 2.113,5.979 -0.699,6.604 -3.312,0.735 -4.484,1.068 -6.38,-4.932 -0.527,-1.672 -3.38,-7.813 -3.38,-7.813 -1.319,-2.061 -1.505,-4.776 -0.713,-6 0.833,-1.285 0.593,-0.718 1.582,-1.77 0.943,-1.006 3.042,-1.615 4.079,-0.938 0.989,0.656 0.911,2.323 1.12,4.735 0.161,1.907 1.921,6.104 1.921,6.104"
     id="path348" />
  <path
     style="fill:none;stroke:#231f20;stroke-width:0.565977;stroke-linecap:butt;stroke-linejoin:miter;stroke-miterlimit:4;stroke-dasharray:none;stroke-opacity:1"
     d="m 197.02994,46.655049 c 1.224,2.885 1.803,3.369 2.47,4.01 4.161,4.011 2.113,5.979 -0.699,6.604 -3.312,0.735 -4.484,1.068 -6.38,-4.932 -0.527,-1.672 -3.38,-7.813 -3.38,-7.813 -1.319,-2.061 -1.505,-4.776 -0.713,-6 0.833,-1.285 0.593,-0.718 1.582,-1.77 0.943,-1.006 3.042,-1.615 4.079,-0.938 0.989,0.656 0.911,2.323 1.12,4.735 0.161,1.907 1.921,6.104 1.921,6.104 z"
     id="path349" />
  <path
     style="fill:#231f20;fill-opacity:1;fill-rule:nonzero;stroke:none"
     d="m 190.85294,37.196049 c -1.145,0.516 -1.672,1.834 -1.167,2.939 0.5,1.109 2.156,2.479 3.303,1.957 1.145,-0.52 1.344,-2.734 0.844,-3.838 -0.5,-1.104 -1.839,-1.578 -2.98,-1.058"
     id="path350" />
  <path
     style="fill:none;stroke:#231f20;stroke-width:0.237045;stroke-linecap:butt;stroke-linejoin:miter;stroke-miterlimit:4;stroke-dasharray:none;stroke-opacity:1"
     d="m 190.85294,37.196049 c -1.145,0.516 -1.672,1.834 -1.167,2.939 0.5,1.109 2.156,2.479 3.303,1.957 1.145,-0.52 1.344,-2.734 0.844,-3.838 -0.5,-1.104 -1.839,-1.578 -2.98,-1.058 z"
     id="path351" />
  <path
     style="fill:#231f20;fill-opacity:1;fill-rule:nonzero;stroke:none"
     d="m 213.97294,87.811049 c 0.645,-1.187 -0.005,-1.943 -1.027,-2.104 -0.306,-0.047 -0.514,-0.407 -0.817,-0.427 -0.703,-0.057 -1.984,1.125 -1.276,2.443 0.052,0.098 0.213,0.901 0.427,1.484 0.406,1.141 1.781,3.218 4.428,3.734 1.254,0.25 1.172,-0.53 0.692,-0.786 -1.51,-0.802 -1.49,-1.172 -1.807,-1.522 -1.093,-1.202 -0.62,-2.822 -0.62,-2.822"
     id="path352" />
  <path
     style="fill:none;stroke:#231f20;stroke-width:0.332927;stroke-linecap:butt;stroke-linejoin:miter;stroke-miterlimit:4;stroke-dasharray:none;stroke-opacity:1"
     d="m 213.97294,87.811049 c 0.645,-1.187 -0.005,-1.943 -1.027,-2.104 -0.306,-0.047 -0.514,-0.407 -0.817,-0.427 -0.703,-0.057 -1.984,1.125 -1.276,2.443 0.052,0.098 0.213,0.901 0.427,1.484 0.406,1.141 1.781,3.218 4.428,3.734 1.254,0.25 1.172,-0.53 0.692,-0.786 -1.51,-0.802 -1.49,-1.172 -1.807,-1.522 -1.093,-1.202 -0.62,-2.822 -0.62,-2.822 z"
     id="path353" />
  <path
     style="fill:#231f20;fill-opacity:1;fill-rule:nonzero;stroke:none"
     d="m 204.79594,71.463049 c 1.922,-1.199 2.464,-1.167 3.021,-0.386 0.369,0.515 0.896,0.87 1.135,1.176 0.808,1.016 1.74,3.058 2.876,9.548 0.254,1.468 0.629,3.531 0.848,4.359 0.349,1.312 -2.067,1 -2.203,0.489 -0.464,-1.65 -0.912,-2.749 -1.156,-3.322 -0.167,-0.396 -0.38,-1.131 -1.224,-2.563 -1.287,-2.172 -2.38,-3.281 -3.245,-5.213 -0.402,-0.896 -1.271,-1.318 -1.214,-2.402 0.058,-1.082 1.162,-1.686 1.162,-1.686"
     id="path354" />
  <path
     style="fill:none;stroke:#231f20;stroke-width:0.565977;stroke-linecap:butt;stroke-linejoin:miter;stroke-miterlimit:4;stroke-dasharray:none;stroke-opacity:1"
     d="m 204.79594,71.463049 c 1.922,-1.199 2.464,-1.167 3.021,-0.386 0.369,0.515 0.896,0.87 1.135,1.176 0.808,1.016 1.74,3.058 2.876,9.548 0.254,1.468 0.629,3.531 0.848,4.359 0.349,1.312 -2.067,1 -2.203,0.489 -0.464,-1.65 -0.912,-2.749 -1.156,-3.322 -0.167,-0.396 -0.38,-1.131 -1.224,-2.563 -1.287,-2.172 -2.38,-3.281 -3.245,-5.213 -0.402,-0.896 -1.271,-1.318 -1.214,-2.402 0.058,-1.082 1.162,-1.686 1.162,-1.686 z"
     id="path355" />
  <path
     style="fill:#ffffff;fill-opacity:1;fill-rule:nonzero;stroke:none"
     d="m 186.35294,31.254049 c -0.088,-0.224 -1.229,-0.115 -1.317,-0.63 -0.09,-0.521 0.63,-0.844 1.161,-2.761 l 0.005,-0.02 c 0.344,-1.412 1.219,-2.5 2.427,-2.808 2.016,-0.52 4.213,1.281 4.912,4.021 0.697,2.735 -0.36,5.37 -2.375,5.886 -1.922,0.494 -4.021,-1.14 -4.813,-3.688"
     id="path356" />
  <path
     style="fill:none;stroke:#231f20;stroke-width:0.565977;stroke-linecap:butt;stroke-linejoin:miter;stroke-miterlimit:4;stroke-dasharray:none;stroke-opacity:1"
     d="m 186.35294,31.254049 c -0.088,-0.224 -1.229,-0.115 -1.317,-0.63 -0.09,-0.521 0.63,-0.844 1.161,-2.761 l 0.005,-0.02 c 0.344,-1.412 1.219,-2.5 2.427,-2.808 2.016,-0.52 4.213,1.281 4.912,4.021 0.697,2.735 -0.36,5.37 -2.375,5.886 -1.922,0.494 -4.021,-1.14 -4.813,-3.688 z"
     id="path357" />
  <path
     style="fill:#231f20;fill-opacity:1;fill-rule:nonzero;stroke:none"
     d="m 206.55194,73.207049 c -3.219,2.396 -3.934,-1.62 -4.219,-2.006 -3.016,-4 -3.131,-4.364 -5.209,-7.572 -3.011,-4.641 -4.354,-8.276 -2.167,-10.813 1.485,-1.724 3.084,-2.072 4.328,-1.64 1.381,0.479 3.563,2.791 2.849,5.588 l 0.511,1.636 c 0.489,1.052 0.724,1.577 1.011,2.083 0.489,0.874 0.957,1.838 1.822,3.598 1.526,3.11 2.126,6.912 2.126,6.912 0.52,1.131 -1.052,2.214 -1.052,2.214"
     id="path358" />
  <path
     style="fill:none;stroke:#231f20;stroke-width:0.565977;stroke-linecap:butt;stroke-linejoin:miter;stroke-miterlimit:4;stroke-dasharray:none;stroke-opacity:1"
     d="m 206.55194,73.207049 c -3.219,2.396 -3.934,-1.62 -4.219,-2.006 -3.016,-4 -3.131,-4.364 -5.209,-7.572 -3.011,-4.641 -4.354,-8.276 -2.167,-10.813 1.485,-1.724 3.084,-2.072 4.328,-1.64 1.381,0.479 3.563,2.791 2.849,5.588 l 0.511,1.636 c 0.489,1.052 0.724,1.577 1.011,2.083 0.489,0.874 0.957,1.838 1.822,3.598 1.526,3.11 2.126,6.912 2.126,6.912 0.52,1.131 -1.052,2.214 -1.052,2.214 z"
     id="path359" />
  <path
     style="fill:#ca0369;fill-opacity:1;fill-rule:nonzero;stroke:none"
     d="m 199.28494,51.176049 c -1.244,-0.432 -2.843,-0.084 -4.328,1.64 -0.963,1.115 -1.224,2.459 -0.973,3.995 -0.063,1.032 -0.074,1.657 0.536,2.182 0.057,0.047 0.109,0.104 0.161,0.162 0.224,0.541 0.475,1.098 0.781,1.677 l 6.672,-4.068 c 0.714,-2.797 -1.468,-5.109 -2.849,-5.588"
     id="path360" />
  <path
     style="fill:none;stroke:#231f20;stroke-width:0.565977;stroke-linecap:butt;stroke-linejoin:miter;stroke-miterlimit:4;stroke-dasharray:none;stroke-opacity:1"
     d="m 199.28494,51.176049 c -1.244,-0.432 -2.843,-0.084 -4.328,1.64 -0.963,1.115 -1.224,2.459 -0.973,3.995 -0.063,1.032 -0.074,1.657 0.536,2.182 0.057,0.047 0.109,0.104 0.161,0.162 0.224,0.541 0.475,1.098 0.781,1.677 l 6.672,-4.068 c 0.714,-2.797 -1.468,-5.109 -2.849,-5.588 z"
     id="path361" />
  <path
     style="fill:#ffffff;fill-opacity:1;fill-rule:nonzero;stroke:none"
     d="m 191.87394,32.854049 h 1.334 V 1.3320491 h -1.334 z"
     id="path362" />
  <path
     style="fill:none;stroke:#231f20;stroke-width:0.665856;stroke-linecap:butt;stroke-linejoin:miter;stroke-miterlimit:4;stroke-dasharray:none;stroke-opacity:1"
     d="m 191.87394,32.859049 h 1.334 V 1.3320491 h -1.334 z"
     id="path363" />
  <path
     style="fill:#ffffff;fill-opacity:1;fill-rule:nonzero;stroke:none"
     d="m 188.68094,37.791049 c 0,-2.355 1.912,-4.271 4.265,-4.271 2.355,0 4.272,1.916 4.272,4.271 0,2.353 -1.917,4.271 -4.272,4.271 -2.353,0 -4.265,-1.918 -4.265,-4.271 m -1.333,0 c 0,3.088 2.51,5.599 5.598,5.599 3.09,0 5.6,-2.511 5.6,-5.599 0,-3.089 -2.51,-5.6 -5.6,-5.6 -3.088,0 -5.598,2.511 -5.598,5.6"
     id="path364" />
  <path
     style="fill:none;stroke:#231f20;stroke-width:0.665856;stroke-linecap:butt;stroke-linejoin:miter;stroke-miterlimit:4;stroke-dasharray:none;stroke-opacity:1"
     d="m 188.68094,37.791049 c 0,-2.355 1.912,-4.271 4.265,-4.271 2.355,0 4.272,1.916 4.272,4.271 0,2.353 -1.917,4.271 -4.272,4.271 -2.353,0 -4.265,-1.918 -4.265,-4.271 z m -1.333,0 c 0,3.088 2.51,5.599 5.598,5.599 3.09,0 5.6,-2.511 5.6,-5.599 0,-3.089 -2.51,-5.6 -5.6,-5.6 -3.088,0 -5.598,2.511 -5.598,5.6 z"
     id="path365" />
  <path
     style="fill:#231f20;fill-opacity:1;fill-rule:nonzero;stroke:#231f20;stroke-width:0.332927;stroke-linecap:round;stroke-linejoin:round;stroke-miterlimit:4;stroke-dasharray:none;stroke-opacity:1"
     d="m 190.61294,40.744049 c -0.656,0.234 -0.943,2.531 -0.656,2.671 0.287,0.141 0.297,-0.624 0.625,-0.484 0.328,0.141 0.246,0.636 0.474,0.667 0.25,0.032 0.256,-0.574 0.542,-0.468 0.12,0.041 0.323,0.598 0.515,0.561 0.167,-0.025 0.371,-0.504 0.505,-0.536 0.21,-0.041 0.256,0.568 0.434,0.547 0.457,-0.063 -0.106,-2.714 -0.314,-2.839"
     id="path366" />
  <path
     style="fill:#ca0369;fill-opacity:1;fill-rule:nonzero;stroke:none"
     d="m 270.51994,47.802049 c 0.109,3.134 0.474,3.79 0.865,4.623 2.457,5.23 -0.161,6.339 -3.011,5.918 -3.354,-0.495 -4.568,-0.604 -4.188,-6.886 0.099,-1.745 -0.369,-8.505 -0.369,-8.505 -0.489,-2.396 0.307,-5 1.479,-5.86 1.24,-0.905 0.817,-0.458 2.12,-1.088 1.234,-0.598 3.412,-0.417 4.136,0.588 0.692,0.964 0.02,2.49 -0.647,4.823 -0.525,1.833 -0.385,6.387 -0.385,6.387"
     id="path367" />
  <path
     style="fill:none;stroke:#231f20;stroke-width:0.565977;stroke-linecap:butt;stroke-linejoin:miter;stroke-miterlimit:4;stroke-dasharray:none;stroke-opacity:1"
     d="m 270.51994,47.802049 c 0.109,3.134 0.474,3.79 0.865,4.623 2.457,5.23 -0.161,6.339 -3.011,5.918 -3.354,-0.495 -4.568,-0.604 -4.188,-6.886 0.099,-1.745 -0.369,-8.505 -0.369,-8.505 -0.489,-2.396 0.307,-5 1.479,-5.86 1.24,-0.905 0.817,-0.458 2.12,-1.088 1.234,-0.598 3.412,-0.417 4.136,0.588 0.692,0.964 0.02,2.49 -0.647,4.823 -0.525,1.833 -0.385,6.387 -0.385,6.387 z"
     id="path368" />
  <path
     style="fill:#231f20;fill-opacity:1;fill-rule:nonzero;stroke:none"
     d="m 268.13394,36.754049 c -1.254,0.078 -2.218,1.12 -2.14,2.328 0.067,1.214 1.124,3.089 2.386,3.01 1.254,-0.072 2.233,-2.072 2.161,-3.281 -0.073,-1.208 -1.152,-2.129 -2.407,-2.057"
     id="path369" />
  <path
     style="fill:none;stroke:#231f20;stroke-width:0.237045;stroke-linecap:butt;stroke-linejoin:miter;stroke-miterlimit:4;stroke-dasharray:none;stroke-opacity:1"
     d="m 268.13394,36.754049 c -1.254,0.078 -2.218,1.12 -2.14,2.328 0.067,1.214 1.124,3.089 2.386,3.01 1.254,-0.072 2.233,-2.072 2.161,-3.281 -0.073,-1.208 -1.152,-2.129 -2.407,-2.057 z"
     id="path370" />
  <path
     style="fill:#231f20;fill-opacity:1;fill-rule:nonzero;stroke:none"
     d="m 271.61794,92.296049 c 1.027,-0.881 0.688,-1.813 -0.208,-2.333 -0.265,-0.158 -0.333,-0.568 -0.609,-0.694 -0.635,-0.302 -2.26,0.344 -2.063,1.828 0.016,0.11 -0.125,0.912 -0.14,1.536 -0.026,1.21 0.52,3.647 2.807,5.074 1.079,0.677 1.281,-0.083 0.928,-0.49 -1.125,-1.292 -0.975,-1.625 -1.147,-2.068 -0.593,-1.51 0.432,-2.853 0.432,-2.853"
     id="path371" />
  <path
     style="fill:none;stroke:#231f20;stroke-width:0.332927;stroke-linecap:butt;stroke-linejoin:miter;stroke-miterlimit:4;stroke-dasharray:none;stroke-opacity:1"
     d="m 271.61794,92.296049 c 1.027,-0.881 0.688,-1.813 -0.208,-2.333 -0.265,-0.158 -0.333,-0.568 -0.609,-0.694 -0.635,-0.302 -2.26,0.344 -2.063,1.828 0.016,0.11 -0.125,0.912 -0.14,1.536 -0.026,1.21 0.52,3.647 2.807,5.074 1.079,0.677 1.281,-0.083 0.928,-0.49 -1.125,-1.292 -0.975,-1.625 -1.147,-2.068 -0.593,-1.51 0.432,-2.853 0.432,-2.853 z"
     id="path372" />
  <path
     style="fill:#231f20;fill-opacity:1;fill-rule:nonzero;stroke:none"
     d="m 268.89394,73.744049 c 2.224,-0.428 2.719,-0.209 2.964,0.719 0.156,0.614 0.522,1.134 0.636,1.504 0.391,1.24 0.531,3.48 -0.729,9.944 -0.287,1.462 -0.677,3.525 -0.771,4.374 -0.141,1.354 -2.286,0.198 -2.234,-0.328 0.166,-1.709 0.134,-2.896 0.114,-3.516 -0.016,-0.432 0.052,-1.193 -0.229,-2.828 -0.427,-2.494 -1.047,-3.922 -1.161,-6.036 -0.052,-0.974 -0.714,-1.682 -0.276,-2.672 0.437,-0.994 1.686,-1.161 1.686,-1.161"
     id="path373" />
  <path
     style="fill:none;stroke:#231f20;stroke-width:0.565977;stroke-linecap:butt;stroke-linejoin:miter;stroke-miterlimit:4;stroke-dasharray:none;stroke-opacity:1"
     d="m 268.89394,73.744049 c 2.224,-0.428 2.719,-0.209 2.964,0.719 0.156,0.614 0.522,1.134 0.636,1.504 0.391,1.24 0.531,3.48 -0.729,9.944 -0.287,1.462 -0.677,3.525 -0.771,4.374 -0.141,1.354 -2.286,0.198 -2.234,-0.328 0.166,-1.709 0.134,-2.896 0.114,-3.516 -0.016,-0.432 0.052,-1.193 -0.229,-2.828 -0.427,-2.494 -1.047,-3.922 -1.161,-6.036 -0.052,-0.974 -0.714,-1.682 -0.276,-2.672 0.437,-0.994 1.686,-1.161 1.686,-1.161 z"
     id="path374" />
  <path
     style="fill:#ffffff;fill-opacity:1;fill-rule:nonzero;stroke:none"
     d="m 266.05594,29.603049 c 0,-0.245 -1.104,-0.552 -1.004,-1.068 0.104,-0.515 0.89,-0.563 2.072,-2.161 l 0.016,-0.016 c 0.828,-1.198 2.026,-1.9 3.265,-1.755 2.068,0.24 3.48,2.708 3.152,5.516 -0.324,2.801 -2.261,4.885 -4.324,4.64 -1.973,-0.224 -3.348,-2.5 -3.177,-5.156"
     id="path375" />
  <path
     style="fill:none;stroke:#231f20;stroke-width:0.565977;stroke-linecap:butt;stroke-linejoin:miter;stroke-miterlimit:4;stroke-dasharray:none;stroke-opacity:1"
     d="m 266.05594,29.603049 c 0,-0.245 -1.104,-0.552 -1.004,-1.068 0.104,-0.515 0.89,-0.563 2.072,-2.161 l 0.016,-0.016 c 0.828,-1.198 2.026,-1.9 3.265,-1.755 2.068,0.24 3.48,2.708 3.152,5.516 -0.324,2.801 -2.261,4.885 -4.324,4.64 -1.973,-0.224 -3.348,-2.5 -3.177,-5.156 z"
     id="path376" />
  <path
     style="fill:#231f20;fill-opacity:1;fill-rule:nonzero;stroke:none"
     d="m 269.90494,76.004049 c -3.859,1.083 -3.088,-2.923 -3.224,-3.385 -1.38,-4.814 -1.353,-5.199 -2.145,-8.938 -1.151,-5.406 -1.104,-9.281 1.844,-10.87 2,-1.078 3.62,-0.828 4.629,0.021 1.115,0.937 2.328,3.88 0.661,6.235 l -0.109,1.708 c 0.079,1.161 0.109,1.74 0.199,2.306 0.145,0.996 0.234,2.063 0.416,4.011 0.313,3.453 -0.49,7.219 -0.49,7.219 0.079,1.24 -1.781,1.693 -1.781,1.693"
     id="path377" />
  <path
     style="fill:none;stroke:#231f20;stroke-width:0.565977;stroke-linecap:butt;stroke-linejoin:miter;stroke-miterlimit:4;stroke-dasharray:none;stroke-opacity:1"
     d="m 269.90494,76.004049 c -3.859,1.083 -3.088,-2.923 -3.224,-3.385 -1.38,-4.814 -1.353,-5.199 -2.145,-8.938 -1.151,-5.406 -1.104,-9.281 1.844,-10.87 2,-1.078 3.62,-0.828 4.629,0.021 1.115,0.937 2.328,3.88 0.661,6.235 l -0.109,1.708 c 0.079,1.161 0.109,1.74 0.199,2.306 0.145,0.996 0.234,2.063 0.416,4.011 0.313,3.453 -0.49,7.219 -0.49,7.219 0.079,1.24 -1.781,1.693 -1.781,1.693 z"
     id="path378" />
  <path
     style="fill:#ca0369;fill-opacity:1;fill-rule:nonzero;stroke:none"
     d="m 271.00894,52.827049 c -1.009,-0.844 -2.629,-1.094 -4.629,-0.016 -1.303,0.698 -2.022,1.86 -2.339,3.38 -0.428,0.944 -0.661,1.526 -0.276,2.229 0.031,0.063 0.063,0.141 0.088,0.213 0.016,0.59 0.052,1.194 0.131,1.844 l 7.686,-1.41 c 1.667,-2.355 0.454,-5.298 -0.661,-6.24"
     id="path379" />
  <path
     style="fill:none;stroke:#231f20;stroke-width:0.565977;stroke-linecap:butt;stroke-linejoin:miter;stroke-miterlimit:4;stroke-dasharray:none;stroke-opacity:1"
     d="m 271.00894,52.827049 c -1.009,-0.844 -2.629,-1.094 -4.629,-0.016 -1.303,0.698 -2.022,1.86 -2.339,3.38 -0.428,0.944 -0.661,1.526 -0.276,2.229 0.031,0.063 0.063,0.141 0.088,0.213 0.016,0.59 0.052,1.194 0.131,1.844 l 7.686,-1.41 c 1.667,-2.355 0.454,-5.298 -0.661,-6.24 z"
     id="path380" />
  <path
     style="fill:#ffffff;fill-opacity:1;fill-rule:nonzero;stroke:none"
     d="m 267.25994,32.854049 h 1.333 V 1.3320491 h -1.333 z"
     id="path381" />
  <path
     style="fill:none;stroke:#231f20;stroke-width:0.665856;stroke-linecap:butt;stroke-linejoin:miter;stroke-miterlimit:4;stroke-dasharray:none;stroke-opacity:1"
     d="m 267.25994,32.859049 h 1.333 V 1.3320491 h -1.333 z"
     id="path382" />
  <path
     style="fill:#ffffff;fill-opacity:1;fill-rule:nonzero;stroke:none"
     d="m 264.06594,37.791049 c 0,-2.355 1.918,-4.271 4.271,-4.271 2.355,0 4.267,1.916 4.267,4.271 0,2.353 -1.912,4.271 -4.267,4.271 -2.353,0 -4.271,-1.918 -4.271,-4.271 m -1.333,0 c 0,3.088 2.516,5.599 5.604,5.599 3.084,0 5.6,-2.511 5.6,-5.599 0,-3.089 -2.516,-5.6 -5.6,-5.6 -3.088,0 -5.604,2.511 -5.604,5.6"
     id="path383" />
  <path
     style="fill:none;stroke:#231f20;stroke-width:0.665856;stroke-linecap:butt;stroke-linejoin:miter;stroke-miterlimit:4;stroke-dasharray:none;stroke-opacity:1"
     d="m 264.06594,37.791049 c 0,-2.355 1.918,-4.271 4.271,-4.271 2.355,0 4.267,1.916 4.267,4.271 0,2.353 -1.912,4.271 -4.267,4.271 -2.353,0 -4.271,-1.918 -4.271,-4.271 z m -1.333,0 c 0,3.088 2.516,5.599 5.604,5.599 3.084,0 5.6,-2.511 5.6,-5.599 0,-3.089 -2.516,-5.6 -5.6,-5.6 -3.088,0 -5.604,2.511 -5.604,5.6 z"
     id="path384" />
  <path
     style="fill:#231f20;fill-opacity:1;fill-rule:nonzero;stroke:#231f20;stroke-width:0.332927;stroke-linecap:round;stroke-linejoin:round;stroke-miterlimit:4;stroke-dasharray:none;stroke-opacity:1"
     d="m 267.16994,41.244049 c -0.656,0.239 -0.942,2.531 -0.656,2.671 0.287,0.147 0.298,-0.624 0.626,-0.484 0.328,0.141 0.245,0.636 0.473,0.667 0.251,0.032 0.256,-0.568 0.543,-0.468 0.12,0.041 0.322,0.598 0.514,0.561 0.163,-0.025 0.371,-0.504 0.506,-0.536 0.209,-0.041 0.256,0.568 0.433,0.547 0.457,-0.063 -0.105,-2.714 -0.313,-2.834"
     id="path385" />
  <path
     style="fill:#231f20;fill-opacity:1;fill-rule:nonzero;stroke:none"
     d="m 284.44194,56.691049 c 0.714,1.152 1.687,0.958 2.338,0.152 0.193,-0.235 0.609,-0.246 0.781,-0.495 0.401,-0.579 0.005,-2.287 -1.489,-2.319 -0.11,0 -0.886,-0.265 -1.495,-0.374 -1.192,-0.208 -3.687,-0.047 -5.448,1.994 -0.839,0.964 -0.115,1.276 0.344,0.984 1.448,-0.91 1.755,-0.702 2.219,-0.812 1.584,-0.349 2.75,0.87 2.75,0.87"
     id="path386" />
  <path
     style="fill:none;stroke:#231f20;stroke-width:0.332927;stroke-linecap:butt;stroke-linejoin:miter;stroke-miterlimit:4;stroke-dasharray:none;stroke-opacity:1"
     d="m 284.44194,56.691049 c 0.714,1.152 1.687,0.958 2.338,0.152 0.193,-0.235 0.609,-0.246 0.781,-0.495 0.401,-0.579 0.005,-2.287 -1.489,-2.319 -0.11,0 -0.886,-0.265 -1.495,-0.374 -1.192,-0.208 -3.687,-0.047 -5.448,1.994 -0.839,0.964 -0.115,1.276 0.344,0.984 1.448,-0.91 1.755,-0.702 2.219,-0.812 1.584,-0.349 2.75,0.87 2.75,0.87 z"
     id="path387" />
  <path
     style="fill:#231f20;fill-opacity:1;fill-rule:nonzero;stroke:none"
     d="m 303.19094,56.853049 c 0.084,2.266 -0.208,2.719 -1.166,2.818 -0.631,0.062 -1.198,0.338 -1.583,0.396 -1.287,0.192 -3.521,-0.011 -9.714,-2.251 -1.4,-0.511 -3.375,-1.213 -4.208,-1.432 -1.307,-0.349 0.161,-2.287 0.677,-2.156 1.661,0.421 2.839,0.577 3.453,0.651 0.427,0.046 1.167,0.234 2.828,0.213 2.531,-0.041 4.036,-0.437 6.14,-0.224 0.98,0.099 1.776,-0.448 2.688,0.136 0.917,0.588 0.885,1.849 0.885,1.849"
     id="path388" />
  <path
     style="fill:none;stroke:#231f20;stroke-width:0.565977;stroke-linecap:butt;stroke-linejoin:miter;stroke-miterlimit:4;stroke-dasharray:none;stroke-opacity:1"
     d="m 303.19094,56.853049 c 0.084,2.266 -0.208,2.719 -1.166,2.818 -0.631,0.062 -1.198,0.338 -1.583,0.396 -1.287,0.192 -3.521,-0.011 -9.714,-2.251 -1.4,-0.511 -3.375,-1.213 -4.208,-1.432 -1.307,-0.349 0.161,-2.287 0.677,-2.156 1.661,0.421 2.839,0.577 3.453,0.651 0.427,0.046 1.167,0.234 2.828,0.213 2.531,-0.041 4.036,-0.437 6.14,-0.224 0.98,0.099 1.776,-0.448 2.688,0.136 0.917,0.588 0.885,1.849 0.885,1.849 z"
     id="path389" />
  <path
     style="fill:#ca0369;fill-opacity:1;fill-rule:nonzero;stroke:none"
     d="m 323.16594,50.633049 c 0.067,3.136 0.427,3.798 0.807,4.636 2.385,5.266 -0.24,6.339 -3.088,5.88 -3.35,-0.541 -4.563,-0.666 -4.1,-6.942 0.125,-1.744 -0.255,-8.511 -0.255,-8.511 -0.464,-2.4 0.364,-4.989 1.552,-5.833 1.251,-0.891 0.817,-0.448 2.131,-1.061 1.244,-0.584 3.421,-0.376 4.129,0.634 0.683,0.975 -0.005,2.495 -0.708,4.818 -0.552,1.828 -0.468,6.379 -0.468,6.379"
     id="path390" />
  <path
     style="fill:none;stroke:#231f20;stroke-width:0.565977;stroke-linecap:butt;stroke-linejoin:miter;stroke-miterlimit:4;stroke-dasharray:none;stroke-opacity:1"
     d="m 323.16594,50.633049 c 0.067,3.136 0.427,3.798 0.807,4.636 2.385,5.266 -0.24,6.339 -3.088,5.88 -3.35,-0.541 -4.563,-0.666 -4.1,-6.942 0.125,-1.744 -0.255,-8.511 -0.255,-8.511 -0.464,-2.4 0.364,-4.989 1.552,-5.833 1.251,-0.891 0.817,-0.448 2.131,-1.061 1.244,-0.584 3.421,-0.376 4.129,0.634 0.683,0.975 -0.005,2.495 -0.708,4.818 -0.552,1.828 -0.468,6.379 -0.468,6.379 z"
     id="path391" />
  <path
     style="fill:#ffffff;fill-opacity:1;fill-rule:nonzero;stroke:none"
     d="m 317.78994,32.843049 c -0.047,-0.24 -1.192,-0.319 -1.192,-0.844 0,-0.527 0.76,-0.729 1.609,-2.527 l 0.011,-0.02 c 0.572,-1.333 1.615,-2.261 2.859,-2.365 2.068,-0.172 3.937,1.975 4.172,4.787 0.229,2.817 -1.255,5.234 -3.328,5.406 -1.979,0.167 -3.776,-1.797 -4.131,-4.437"
     id="path392" />
  <path
     style="fill:none;stroke:#231f20;stroke-width:0.565977;stroke-linecap:butt;stroke-linejoin:miter;stroke-miterlimit:4;stroke-dasharray:none;stroke-opacity:1"
     d="m 317.78994,32.843049 c -0.047,-0.24 -1.192,-0.319 -1.192,-0.844 0,-0.527 0.76,-0.729 1.609,-2.527 l 0.011,-0.02 c 0.572,-1.333 1.615,-2.261 2.859,-2.365 2.068,-0.172 3.937,1.975 4.172,4.787 0.229,2.817 -1.255,5.234 -3.328,5.406 -1.979,0.167 -3.776,-1.797 -4.131,-4.437 z"
     id="path393" />
  <path
     style="fill:#231f20;fill-opacity:1;fill-rule:nonzero;stroke:none"
     d="m 300.80594,57.504049 c -0.479,-3.98 3.364,-2.604 3.839,-2.661 4.968,-0.631 5.344,-0.543 9.161,-0.751 5.516,-0.307 9.344,0.333 10.459,3.489 0.754,2.147 0.265,3.71 -0.73,4.574 -1.104,0.958 -4.193,1.702 -6.265,-0.302 l -1.677,-0.37 c -1.156,-0.099 -1.73,-0.162 -2.303,-0.162 -1.005,-0.01 -2.077,-0.082 -4.031,-0.208 -3.464,-0.218 -7.052,-1.589 -7.052,-1.589 -1.245,-0.113 -1.401,-2.02 -1.401,-2.02"
     id="path394" />
  <path
     style="fill:none;stroke:#231f20;stroke-width:0.565977;stroke-linecap:butt;stroke-linejoin:miter;stroke-miterlimit:4;stroke-dasharray:none;stroke-opacity:1"
     d="m 300.80594,57.504049 c -0.479,-3.98 3.364,-2.604 3.839,-2.661 4.968,-0.631 5.344,-0.543 9.161,-0.751 5.516,-0.307 9.344,0.333 10.459,3.489 0.754,2.147 0.265,3.71 -0.73,4.574 -1.104,0.958 -4.193,1.702 -6.265,-0.302 l -1.677,-0.37 c -1.156,-0.099 -1.73,-0.162 -2.303,-0.162 -1.005,-0.01 -2.077,-0.082 -4.031,-0.208 -3.464,-0.218 -7.052,-1.589 -7.052,-1.589 -1.245,-0.113 -1.401,-2.02 -1.401,-2.02 z"
     id="path395" />
  <path
     style="fill:#ca0369;fill-opacity:1;fill-rule:nonzero;stroke:none"
     d="m 324.26494,57.581049 c -0.88,-2.494 -3.454,-3.416 -7.21,-3.541 l 0.215,7.813 c 2.072,2.004 5.161,1.26 6.265,0.302 0.99,-0.864 1.484,-2.427 0.73,-4.574"
     id="path396" />
  <path
     style="fill:none;stroke:#231f20;stroke-width:0.565977;stroke-linecap:butt;stroke-linejoin:miter;stroke-miterlimit:4;stroke-dasharray:none;stroke-opacity:1"
     d="m 324.26494,57.581049 c -0.88,-2.494 -3.454,-3.416 -7.21,-3.541 l 0.215,7.813 c 2.072,2.004 5.161,1.26 6.265,0.302 0.99,-0.864 1.484,-2.427 0.73,-4.574 z"
     id="path397" />
  <path
     style="fill:#231f20;fill-opacity:1;fill-rule:nonzero;stroke:none"
     d="m 313.93694,43.166049 c 0.484,0.297 2.041,-0.162 3.369,0.082 0.885,0.172 3.073,-0.546 3.953,-0.301 0.807,0.229 1.678,0.411 2.031,-0.656 0.213,-0.625 0.412,-2.552 -0.927,-3.235 -0.906,-0.464 -1.349,0.287 -2.224,0.459 -0.989,0.203 -3.63,1.031 -4.109,1.244 -1.177,0.521 -1.76,0.292 -2.088,0.391 -0.605,0.188 -0.688,0.516 -0.663,1.026 0.048,0.954 0.658,0.99 0.658,0.99"
     id="path398" />
  <path
     style="fill:none;stroke:#231f20;stroke-width:0.515372;stroke-linecap:butt;stroke-linejoin:miter;stroke-miterlimit:4;stroke-dasharray:none;stroke-opacity:1"
     d="m 313.93694,43.166049 c 0.484,0.297 2.041,-0.162 3.369,0.082 0.885,0.172 3.073,-0.546 3.953,-0.301 0.807,0.229 1.678,0.411 2.031,-0.656 0.213,-0.625 0.412,-2.552 -0.927,-3.235 -0.906,-0.464 -1.349,0.287 -2.224,0.459 -0.989,0.203 -3.63,1.031 -4.109,1.244 -1.177,0.521 -1.76,0.292 -2.088,0.391 -0.605,0.188 -0.688,0.516 -0.663,1.026 0.048,0.954 0.658,0.99 0.658,0.99 z"
     id="path399" />
  <path
     style="fill:#ffffff;fill-opacity:1;fill-rule:nonzero;stroke:none"
     d="m 312.71794,33.056049 h 1.328 V 1.3730491 h -1.328 z"
     id="path400" />
  <path
     style="fill:none;stroke:#231f20;stroke-width:0.665856;stroke-linecap:butt;stroke-linejoin:miter;stroke-miterlimit:4;stroke-dasharray:none;stroke-opacity:1"
     d="m 312.71794,33.056049 h 1.328 V 1.3790491 h -1.328 z"
     id="path401" />
  <path
     style="fill:#ffffff;fill-opacity:1;fill-rule:nonzero;stroke:none"
     d="m 312.97294,42.259049 c -2.355,0 -4.266,-1.916 -4.266,-4.271 0,-2.354 1.911,-4.265 4.266,-4.265 2.354,0 4.27,1.911 4.27,4.265 0,2.355 -1.916,4.271 -4.27,4.271 m 0,-9.869 c -3.088,0 -5.599,2.51 -5.599,5.598 0,3.09 2.511,5.599 5.599,5.599 3.088,0 5.598,-2.509 5.598,-5.599 0,-3.088 -2.51,-5.598 -5.598,-5.598"
     id="path402" />
  <path
     style="fill:none;stroke:#231f20;stroke-width:0.665856;stroke-linecap:butt;stroke-linejoin:miter;stroke-miterlimit:4;stroke-dasharray:none;stroke-opacity:1"
     d="m 312.97294,42.259049 c -2.355,0 -4.266,-1.916 -4.266,-4.271 0,-2.354 1.911,-4.265 4.266,-4.265 2.354,0 4.27,1.911 4.27,4.265 0,2.355 -1.916,4.271 -4.27,4.271 z m 0,-9.869 c -3.088,0 -5.599,2.51 -5.599,5.598 0,3.09 2.511,5.599 5.599,5.599 3.088,0 5.598,-2.509 5.598,-5.599 0,-3.088 -2.51,-5.598 -5.598,-5.598 z"
     id="path403" />
  <path
     style="fill:#231f20;fill-opacity:1;fill-rule:nonzero;stroke:none"
     d="m 312.40494,41.139049 c -0.698,-0.02 -1.807,2.016 -1.588,2.251 0.213,0.234 0.505,-0.479 0.754,-0.224 0.256,0.249 -0.005,0.677 0.194,0.792 0.224,0.124 0.453,-0.438 0.681,-0.24 0.1,0.084 0.084,0.677 0.272,0.713 0.167,0.037 0.536,-0.333 0.671,-0.312 0.209,0.031 0.026,0.62 0.198,0.661 0.454,0.115 0.902,-2.562 0.75,-2.75 -0.224,-0.276 -0.807,-0.859 -1.932,-0.891"
     id="path404" />
  <path
     style="fill:none;stroke:#231f20;stroke-width:0.565977;stroke-linecap:round;stroke-linejoin:round;stroke-miterlimit:4;stroke-dasharray:none;stroke-opacity:1"
     d="m 312.40494,41.139049 c -0.698,-0.02 -1.807,2.016 -1.588,2.251 0.213,0.234 0.505,-0.479 0.754,-0.224 0.256,0.249 -0.005,0.677 0.194,0.792 0.224,0.124 0.453,-0.438 0.681,-0.24 0.1,0.084 0.084,0.677 0.272,0.713 0.167,0.037 0.536,-0.333 0.671,-0.312 0.209,0.031 0.026,0.62 0.198,0.661 0.454,0.115 0.902,-2.562 0.75,-2.75 -0.224,-0.276 -0.807,-0.859 -1.932,-0.891 z"
     id="path405" />
  <path
     style="fill:none;stroke:#231f20;stroke-width:1.33171;stroke-linecap:butt;stroke-linejoin:bevel;stroke-miterlimit:4;stroke-dasharray:none;stroke-opacity:1"
     d="m 238.04094,33.644049 -2.693,2.428 v 24.4 l -1.755,1.485"
     id="path406" />
  <path
     style="fill:none;stroke:#231f20;stroke-width:1.33171;stroke-linecap:butt;stroke-linejoin:bevel;stroke-miterlimit:4;stroke-dasharray:none;stroke-opacity:1"
     d="m 238.04094,89.624049 -2.693,-2.428 v -24.4 l -1.755,-1.485"
     id="path407" />
</svg>
