<?xml version="1.0" encoding="UTF-8" standalone="no"?>
<!-- Created with Inkscape (http://www.inkscape.org/) -->

<svg
   version="1.1"
   id="svg1"
   width="11.867856"
   height="76.414597"
   viewBox="0 0 11.867856 76.414598"
   sodipodi:docname="cell.svg"
   xmlns:inkscape="http://www.inkscape.org/namespaces/inkscape"
   xmlns:sodipodi="http://sodipodi.sourceforge.net/DTD/sodipodi-0.dtd"
   xmlns="http://www.w3.org/2000/svg"
   xmlns:svg="http://www.w3.org/2000/svg">
  <sodipodi:namedview
     id="namedview1"
     pagecolor="#ffffff"
     bordercolor="#000000"
     borderopacity="0.25"
     inkscape:showpageshadow="2"
     inkscape:pageopacity="0.0"
     inkscape:pagecheckerboard="0"
     inkscape:deskcolor="#d1d1d1">
    <inkscape:page
       x="0"
       y="0"
       inkscape:label="1"
       id="page1"
       width="11.867856"
       height="76.414597"
       margin="0"
       bleed="0" />
  </sodipodi:namedview>
  <defs
     id="defs1" />
  <path
     style="fill:#231f20;fill-opacity:1;fill-rule:nonzero;stroke:none"
     d="m 3.1809246,8.409928 c -1.036,0.8707 -0.708,1.808 0.182,2.3334 0.271,0.1613 0.334,0.5733 0.61,0.704 0.63,0.3066 2.254,-0.324 2.073,-1.8134 -0.011,-0.1093 0.135,-0.9106 0.156,-1.5306 0.036,-1.2133 -0.489,-3.656 -2.76,-5.104 -1.079,-0.688 -1.281,0.072 -0.933,0.484 1.114,1.2973 0.958,1.636 1.13,2.0787 0.579,1.5146 -0.458,2.8479 -0.458,2.8479"
     id="path199" />
  <path
     style="fill:none;stroke:#231f20;stroke-width:0.332927;stroke-linecap:butt;stroke-linejoin:miter;stroke-miterlimit:4;stroke-dasharray:none;stroke-opacity:1"
     d="m 3.1809246,8.409928 c -1.036,0.8707 -0.708,1.808 0.182,2.3334 0.271,0.1613 0.334,0.5733 0.61,0.704 0.63,0.3066 2.254,-0.324 2.073,-1.8134 -0.011,-0.1093 0.135,-0.9106 0.156,-1.5306 0.036,-1.2133 -0.489,-3.656 -2.76,-5.104 -1.079,-0.688 -1.281,0.072 -0.933,0.484 1.114,1.2973 0.958,1.636 1.13,2.0787 0.579,1.5146 -0.458,2.8479 -0.458,2.8479 z"
     id="path200" />
  <path
     style="fill:#231f20;fill-opacity:1;fill-rule:nonzero;stroke:none"
     d="m 5.7329246,26.988628 c -2.224,0.4066 -2.719,0.1826 -2.952,-0.7507 -0.158,-0.6147 -0.511,-1.1347 -0.626,-1.5053 -0.374,-1.244 -0.5,-3.4894 0.823,-9.9373 0.297,-1.4627 0.708,-3.52 0.803,-4.3694 0.156,-1.3493 2.29,-0.1773 2.233,0.3494 -0.176,1.7026 -0.161,2.896 -0.14,3.5146 0.011,0.428 -0.063,1.188 0.197,2.8334 0.407,2.4946 1.016,3.9279 1.11,6.0426 0.046,0.9787 0.698,1.6867 0.256,2.676 -0.448,0.9853 -1.704,1.1467 -1.704,1.1467"
     id="path201" />
  <path
     style="fill:none;stroke:#231f20;stroke-width:0.565977;stroke-linecap:butt;stroke-linejoin:miter;stroke-miterlimit:4;stroke-dasharray:none;stroke-opacity:1"
     d="m 5.7329246,26.988628 c -2.224,0.4066 -2.719,0.1826 -2.952,-0.7507 -0.158,-0.6147 -0.511,-1.1347 -0.626,-1.5053 -0.374,-1.244 -0.5,-3.4894 0.823,-9.9373 0.297,-1.4627 0.708,-3.52 0.803,-4.3694 0.156,-1.3493 2.29,-0.1773 2.233,0.3494 -0.176,1.7026 -0.161,2.896 -0.14,3.5146 0.011,0.428 -0.063,1.188 0.197,2.8334 0.407,2.4946 1.016,3.9279 1.11,6.0426 0.046,0.9787 0.698,1.6867 0.256,2.676 -0.448,0.9853 -1.704,1.1467 -1.704,1.1467 z"
     id="path202" />
  <path
     style="fill:#ca0369;fill-opacity:1;fill-rule:nonzero;stroke:none"
     d="m 3.8789246,52.915228 c -0.078,-3.1347 -0.437,-3.796 -0.822,-4.6347 -2.41199998,-5.256 0.218,-6.3386 3.066,-5.8906 3.35,0.5253 4.5580004,0.6453 4.1260004,6.9266 -0.12,1.7453 0.286,8.5053 0.286,8.5053 0.474,2.4014 -0.349,4.9947 -1.5260004,5.844 -1.25,0.8957 -0.823,0.448 -2.13,1.0667 -1.24,0.589 -3.417,0.391 -4.13,-0.6187 -0.687,-0.9693 0,-2.496 0.693,-4.8186 0.541,-1.828 0.437,-6.38 0.437,-6.38"
     id="path203" />
  <path
     style="fill:none;stroke:#231f20;stroke-width:0.565977;stroke-linecap:butt;stroke-linejoin:miter;stroke-miterlimit:4;stroke-dasharray:none;stroke-opacity:1"
     d="m 3.8789246,52.915228 c -0.078,-3.1347 -0.437,-3.796 -0.822,-4.6347 -2.41199998,-5.256 0.218,-6.3386 3.066,-5.8906 3.35,0.5253 4.5580004,0.6453 4.1260004,6.9266 -0.12,1.7453 0.286,8.5053 0.286,8.5053 0.474,2.4014 -0.349,4.9947 -1.5260004,5.844 -1.25,0.8957 -0.823,0.448 -2.13,1.0667 -1.24,0.589 -3.417,0.391 -4.13,-0.6187 -0.687,-0.9693 0,-2.496 0.693,-4.8186 0.541,-1.828 0.437,-6.38 0.437,-6.38 z"
     id="path204" />
  <path
     style="fill:#ffffff;fill-opacity:1;fill-rule:nonzero;stroke:none"
     d="m 8.1809246,71.149528 c -0.006,0.246 1.1,0.563 0.994,1.079 -0.109,0.509 -0.894,0.552 -2.093,2.135 l -0.011,0.021 c -0.838,1.192 -2.046,1.885 -3.286,1.724 -2.062,-0.256 -3.45199998,-2.735 -3.09899998,-5.537 0.34899998,-2.802 2.30299998,-4.87 4.36499998,-4.61 1.968,0.246 3.328,2.532 3.13,5.188"
     id="path205" />
  <path
     style="fill:none;stroke:#231f20;stroke-width:0.565977;stroke-linecap:butt;stroke-linejoin:miter;stroke-miterlimit:4;stroke-dasharray:none;stroke-opacity:1"
     d="m 8.1809246,71.149528 c -0.006,0.246 1.1,0.563 0.994,1.079 -0.109,0.509 -0.894,0.552 -2.093,2.135 l -0.011,0.021 c -0.838,1.192 -2.046,1.885 -3.286,1.724 -2.062,-0.256 -3.45199998,-2.735 -3.09899998,-5.537 0.34899998,-2.802 2.30299998,-4.87 4.36499998,-4.61 1.968,0.246 3.328,2.532 3.13,5.188 z"
     id="path206" />
  <path
     style="fill:#231f20;fill-opacity:1;fill-rule:nonzero;stroke:none"
     d="m 4.7429246,24.717928 c 3.871,-1.052 3.068,2.9533 3.194,3.4107 1.338,4.828 1.312,5.2093 2.0720004,8.9586 1.1,5.4173 1.021,9.292 -1.9430004,10.8546 -2.015,1.0574 -3.629,0.796 -4.629,-0.0626 -1.11,-0.948 -2.292,-3.9013 -0.604,-6.24 l 0.118,-1.708 c -0.066,-1.1613 -0.093,-1.74 -0.17,-2.308 -0.142,-0.9947 -0.22,-2.0667 -0.382,-4.0146 -0.285,-3.4587 0.552,-7.2134 0.552,-7.2134 -0.072,-1.24 1.792,-1.6773 1.792,-1.6773"
     id="path207" />
  <path
     style="fill:none;stroke:#231f20;stroke-width:0.565977;stroke-linecap:butt;stroke-linejoin:miter;stroke-miterlimit:4;stroke-dasharray:none;stroke-opacity:1"
     d="m 4.7429246,24.717928 c 3.871,-1.052 3.068,2.9533 3.194,3.4107 1.338,4.828 1.312,5.2093 2.0720004,8.9586 1.1,5.4173 1.021,9.292 -1.9430004,10.8546 -2.015,1.0574 -3.629,0.796 -4.629,-0.0626 -1.11,-0.948 -2.292,-3.9013 -0.604,-6.24 l 0.118,-1.708 c -0.066,-1.1613 -0.093,-1.74 -0.17,-2.308 -0.142,-0.9947 -0.22,-2.0667 -0.382,-4.0146 -0.285,-3.4587 0.552,-7.2134 0.552,-7.2134 -0.072,-1.24 1.792,-1.6773 1.792,-1.6773 z"
     id="path208" />
  <path
     style="fill:#ca0369;fill-opacity:1;fill-rule:nonzero;stroke:none"
     d="m 10.732925,42.352528 c -0.031,-0.0626 -0.062,-0.1346 -0.088,-0.2133 -0.011,-0.5827 -0.042,-1.192 -0.115,-1.844 l -7.6970004,1.344 c -1.688,2.344 -0.506,5.292 0.604,6.24 1,0.8586 2.614,1.12 4.629,0.0626 1.308,-0.688 2.0370004,-1.8439 2.3710004,-3.3653 0.432,-0.932 0.672,-1.5146 0.296,-2.224"
     id="path209" />
  <path
     style="fill:none;stroke:#231f20;stroke-width:0.565977;stroke-linecap:butt;stroke-linejoin:miter;stroke-miterlimit:4;stroke-dasharray:none;stroke-opacity:1"
     d="m 10.732925,42.352528 c -0.031,-0.0626 -0.062,-0.1346 -0.088,-0.2133 -0.011,-0.5827 -0.042,-1.192 -0.115,-1.844 l -7.6970004,1.344 c -1.688,2.344 -0.506,5.292 0.604,6.24 1,0.8586 2.614,1.12 4.629,0.0626 1.308,-0.688 2.0370004,-1.8439 2.3710004,-3.3653 0.432,-0.932 0.672,-1.5146 0.296,-2.224 z"
     id="path210" />
  <path
     style="fill:#231f20;fill-opacity:1;fill-rule:nonzero;stroke:none"
     d="m 5.0979246,41.915228 c -0.38,0.5213 -0.208,2.464 -0.693,3.9947 -0.328,1.032 -0.01,3.7613 -0.416,4.7706 -0.366,0.9227 -0.448,1.3813 0.536,1.9853 0.584,0.3534 1.932,0.6614 2.218,0.2387 0.672,-0.984 0.85,-1.9107 0.839,-2.984 -0.021,-1.2133 -0.369,-4.5053 -0.489,-5.104 -0.303,-1.4946 0.03,-2.1506 -0.011,-2.5573 -0.077,-0.7547 -0.385,-0.912 -0.891,-0.9693 -0.948,-0.0987 -1.093,0.6253 -1.093,0.6253"
     id="path211" />
  <path
     style="fill:none;stroke:#231f20;stroke-width:0.565977;stroke-linecap:butt;stroke-linejoin:miter;stroke-miterlimit:4;stroke-dasharray:none;stroke-opacity:1"
     d="m 5.0979246,41.915228 c -0.38,0.5213 -0.208,2.464 -0.693,3.9947 -0.328,1.032 -0.01,3.7613 -0.416,4.7706 -0.366,0.9227 -0.448,1.3813 0.536,1.9853 0.584,0.3534 1.932,0.6614 2.218,0.2387 0.672,-0.984 0.85,-1.9107 0.839,-2.984 -0.021,-1.2133 -0.369,-4.5053 -0.489,-5.104 -0.303,-1.4946 0.03,-2.1506 -0.011,-2.5573 -0.077,-0.7547 -0.385,-0.912 -0.891,-0.9693 -0.948,-0.0987 -1.093,0.6253 -1.093,0.6253 z"
     id="path212" />
  <path
     style="fill:#231f20;fill-opacity:1;fill-rule:nonzero;stroke:none"
     d="m 4.6029246,50.961828 c -1.292,0.0734 -0.808,2.0467 -0.761,2.5894 0.048,0.5413 0.005,2.0986 -0.181,3.3066 -0.188,1.208 0.093,2.7974 -0.256,5.0987 -0.182,1.2093 0.401,2.5 2.166,2.693 1.746,0.192 2.511,-0.7184 2.511,-2.213 0.005,-1.4947 -0.625,-2.9013 -0.724,-4.4173 -0.104,-1.5 -0.068,-3.0467 0.016,-4.26 0.099,-1.38 -0.365,-2.0987 -0.792,-2.312 -1.063,-0.548 -1.979,-0.4854 -1.979,-0.4854"
     id="path213" />
  <path
     style="fill:none;stroke:#231f20;stroke-width:0.565977;stroke-linecap:butt;stroke-linejoin:miter;stroke-miterlimit:4;stroke-dasharray:none;stroke-opacity:1"
     d="m 4.6029246,50.961828 c -1.292,0.0734 -0.808,2.0467 -0.761,2.5894 0.048,0.5413 0.005,2.0986 -0.181,3.3066 -0.188,1.208 0.093,2.7974 -0.256,5.0987 -0.182,1.2093 0.401,2.5 2.166,2.693 1.746,0.192 2.511,-0.7184 2.511,-2.213 0.005,-1.4947 -0.625,-2.9013 -0.724,-4.4173 -0.104,-1.5 -0.068,-3.0467 0.016,-4.26 0.099,-1.38 -0.365,-2.0987 -0.792,-2.312 -1.063,-0.548 -1.979,-0.4854 -1.979,-0.4854 z"
     id="path214" />
  <path
     style="fill:#ffffff;fill-opacity:1;fill-rule:nonzero;stroke:#231f20;stroke-width:0.665856;stroke-linecap:butt;stroke-linejoin:miter;stroke-miterlimit:4;stroke-dasharray:none;stroke-opacity:1"
     d="m 5.6749246,32.009928 h 1.334 v -31.677 h -1.334 z"
     id="path215" />
  <path
     style="fill:#ffffff;fill-opacity:1;fill-rule:nonzero;stroke:none"
     d="m 5.9369246,41.212528 c -2.36,0 -4.271,-1.9173 -4.271,-4.2706 0,-2.3547 1.911,-4.2667 4.271,-4.2667 2.353,0 4.2650004,1.912 4.2650004,4.2667 0,2.3533 -1.9120004,4.2706 -4.2650004,4.2706 m 0,-9.8706 c -3.09,0 -5.60399998,2.5107 -5.60399998,5.6 0,3.088 2.51399998,5.604 5.60399998,5.604 3.082,0 5.5980004,-2.516 5.5980004,-5.604 0,-3.0893 -2.5160004,-5.6 -5.5980004,-5.6"
     id="path216" />
  <path
     style="fill:none;stroke:#231f20;stroke-width:0.665856;stroke-linecap:butt;stroke-linejoin:miter;stroke-miterlimit:4;stroke-dasharray:none;stroke-opacity:1"
     d="m 5.9369246,41.212528 c -2.36,0 -4.271,-1.9173 -4.271,-4.2706 0,-2.3547 1.911,-4.2667 4.271,-4.2667 2.353,0 4.2650004,1.912 4.2650004,4.2667 0,2.3533 -1.9120004,4.2706 -4.2650004,4.2706 z m 0,-9.8706 c -3.09,0 -5.60399998,2.5107 -5.60399998,5.6 0,3.088 2.51399998,5.604 5.60399998,5.604 3.082,0 5.5980004,-2.516 5.5980004,-5.604 0,-3.0893 -2.5160004,-5.6 -5.5980004,-5.6 z"
     id="path217" />
  <path
     style="fill:#231f20;fill-opacity:1;fill-rule:nonzero;stroke:none"
     d="m 6.9829246,41.931228 c 0.651,-0.26 0.85,-2.568 0.558,-2.6987 -0.292,-0.1293 -0.271,0.6414 -0.604,0.5054 -0.334,-0.124 -0.271,-0.624 -0.5,-0.6454 -0.251,-0.0213 -0.235,0.5827 -0.527,0.4947 -0.12,-0.0413 -0.344,-0.588 -0.531,-0.552 -0.166,0.036 -0.354,0.5213 -0.485,0.5573 -0.208,0.052 -0.276,-0.5573 -0.452,-0.5266 -0.459,0.0786 0.203,2.7093 0.416,2.824 0.313,0.1613 1.079,0.4626 2.125,0.0413"
     id="path218" />
  <path
     style="fill:none;stroke:#231f20;stroke-width:0.565977;stroke-linecap:round;stroke-linejoin:round;stroke-miterlimit:4;stroke-dasharray:none;stroke-opacity:1"
     d="m 6.9829246,41.931228 c 0.651,-0.26 0.85,-2.568 0.558,-2.6987 -0.292,-0.1293 -0.271,0.6414 -0.604,0.5054 -0.334,-0.124 -0.271,-0.624 -0.5,-0.6454 -0.251,-0.0213 -0.235,0.5827 -0.527,0.4947 -0.12,-0.0413 -0.344,-0.588 -0.531,-0.552 -0.166,0.036 -0.354,0.5213 -0.485,0.5573 -0.208,0.052 -0.276,-0.5573 -0.452,-0.5266 -0.459,0.0786 0.203,2.7093 0.416,2.824 0.313,0.1613 1.079,0.4626 2.125,0.0413 z"
     id="path219" />
</svg>
