<?xml version="1.0" encoding="UTF-8" standalone="no"?>
<!-- Created with Inkscape (http://www.inkscape.org/) -->

<svg
   version="1.1"
   id="svg1"
   width="270.35535"
   height="95.299568"
   viewBox="0 0 270.35533 95.29957"
   sodipodi:docname="cell.svg"
   xmlns:inkscape="http://www.inkscape.org/namespaces/inkscape"
   xmlns:sodipodi="http://sodipodi.sourceforge.net/DTD/sodipodi-0.dtd"
   xmlns="http://www.w3.org/2000/svg"
   xmlns:svg="http://www.w3.org/2000/svg">
  <sodipodi:namedview
     id="namedview1"
     pagecolor="#ffffff"
     bordercolor="#000000"
     borderopacity="0.25"
     inkscape:showpageshadow="2"
     inkscape:pageopacity="0.0"
     inkscape:pagecheckerboard="0"
     inkscape:deskcolor="#d1d1d1">
    <inkscape:page
       x="2.739543e-07"
       y="2.1788029e-14"
       inkscape:label="1"
       id="page1"
       width="270.35535"
       height="95.299568"
       margin="0"
       bleed="0" />
  </sodipodi:namedview>
  <defs
     id="defs1" />
  <path
     style="fill:#231f20;fill-opacity:1;fill-rule:nonzero;stroke:none"
     d="m 2.1049792,89.654928 c -0.8281,-1.073 -0.3068,-1.917 0.6719,-2.245 0.2974,-0.099 0.448,-0.489 0.7401,-0.557 0.6812,-0.172 2.1401,0.792 1.6505,2.209 -0.036,0.099 -0.0573,0.921 -0.1718,1.531 -0.2188,1.193 -1.2402,3.469 -3.7708,4.406 -1.1975,0.448 -1.2402,-0.344 -0.8079,-0.666 1.3651,-1.038 1.2812,-1.396 1.5427,-1.798 0.8797,-1.36 0.1453,-2.88 0.1453,-2.88"
     id="path49" />
  <path
     style="fill:none;stroke:#231f20;stroke-width:0.332927;stroke-linecap:butt;stroke-linejoin:miter;stroke-miterlimit:4;stroke-dasharray:none;stroke-opacity:1"
     d="m 2.1049792,89.654928 c -0.8281,-1.073 -0.3068,-1.917 0.6719,-2.245 0.2974,-0.099 0.448,-0.489 0.7401,-0.557 0.6812,-0.172 2.1401,0.792 1.6505,2.209 -0.036,0.099 -0.0573,0.921 -0.1718,1.531 -0.2188,1.193 -1.2402,3.469 -3.7708,4.406 -1.1975,0.448 -1.2402,-0.344 -0.8079,-0.666 1.3651,-1.038 1.2812,-1.396 1.5427,-1.798 0.8797,-1.36 0.1453,-2.88 0.1453,-2.88 z"
     id="path50" />
  <path
     style="fill:#231f20;fill-opacity:1;fill-rule:nonzero;stroke:none"
     d="m 8.5060792,72.024928 c -2.0932,-0.859 -2.6198,-0.75 -3.0464,0.114 -0.2818,0.568 -0.74,1.006 -0.9282,1.344 -0.629,1.135 -1.2186,3.303 -1.2801,9.886 -0.0156,1.494 -0.0479,3.588 -0.1308,4.442 -0.1301,1.355 2.1975,0.651 2.2548,0.126 0.188,-1.704 0.4484,-2.866 0.5989,-3.47 0.1052,-0.41 0.188,-1.172 0.7864,-2.724 0.923,-2.353 1.824,-3.629 2.3547,-5.672 0.2495,-0.952 1.0416998,-1.509 0.812,-2.566 -0.2292,-1.063 -1.4213,-1.48 -1.4213,-1.48"
     id="path51" />
  <path
     style="fill:none;stroke:#231f20;stroke-width:0.565977;stroke-linecap:butt;stroke-linejoin:miter;stroke-miterlimit:4;stroke-dasharray:none;stroke-opacity:1"
     d="m 8.5060792,72.024928 c -2.0932,-0.859 -2.6198,-0.75 -3.0464,0.114 -0.2818,0.568 -0.74,1.006 -0.9282,1.344 -0.629,1.135 -1.2186,3.303 -1.2801,9.886 -0.0156,1.494 -0.0479,3.588 -0.1308,4.442 -0.1301,1.355 2.1975,0.651 2.2548,0.126 0.188,-1.704 0.4484,-2.866 0.5989,-3.47 0.1052,-0.41 0.188,-1.172 0.7864,-2.724 0.923,-2.353 1.824,-3.629 2.3547,-5.672 0.2495,-0.952 1.0416998,-1.509 0.812,-2.566 -0.2292,-1.063 -1.4213,-1.48 -1.4213,-1.48 z"
     id="path52" />
  <path
     style="fill:#ca0369;fill-opacity:1;fill-rule:nonzero;stroke:none"
     d="m 12.136779,46.289928 c -0.7344,3.048 -1.2292,3.62 -1.7761,4.355 -3.4639998,4.636 -1.1196998,6.245 1.7599,6.406 3.3802,0.187 4.5938,0.328 5.4844,-5.906 0.2505,-1.73 2.0729,-8.26 2.0729,-8.26 0.9631,-2.245 0.7084,-4.953 -0.2703,-6.032 -1.0322,-1.135 -0.7041,-0.609 -1.8546,-1.489 -1.0882,-0.839 -3.26,-1.099 -4.1719,-0.26 -0.8751,0.801 -0.5256,2.437 -0.3333,4.853 0.1462,1.907 -0.911,6.333 -0.911,6.333"
     id="path53" />
  <path
     style="fill:none;stroke:#231f20;stroke-width:0.565977;stroke-linecap:butt;stroke-linejoin:miter;stroke-miterlimit:4;stroke-dasharray:none;stroke-opacity:1"
     d="m 12.136779,46.289928 c -0.7344,3.048 -1.2292,3.62 -1.7761,4.355 -3.4639998,4.636 -1.1196998,6.245 1.7599,6.406 3.3802,0.187 4.5938,0.328 5.4844,-5.906 0.2505,-1.73 2.0729,-8.26 2.0729,-8.26 0.9631,-2.245 0.7084,-4.953 -0.2703,-6.032 -1.0322,-1.135 -0.7041,-0.609 -1.8546,-1.489 -1.0882,-0.839 -3.26,-1.099 -4.1719,-0.26 -0.8751,0.801 -0.5256,2.437 -0.3333,4.853 0.1462,1.907 -0.911,6.333 -0.911,6.333 z"
     id="path54" />
  <path
     style="fill:#ffffff;fill-opacity:1;fill-rule:nonzero;stroke:none"
     d="m 20.172679,29.363928 c 0.0469,-0.24 1.1921,-0.318 1.1921,-0.844 0.0054,-0.52 -0.7546,-0.73 -1.5932,-2.531 l -0.0109,-0.021 c -0.5625,-1.339 -1.5984,-2.271 -2.8479,-2.375 -2.0682,-0.188 -3.948,1.953 -4.1932,4.765 -0.2453,2.808 1.2291,5.24 3.3026,5.418 1.9786,0.176 3.7854,-1.776 4.1505,-4.412"
     id="path55" />
  <path
     style="fill:none;stroke:#231f20;stroke-width:0.565977;stroke-linecap:butt;stroke-linejoin:miter;stroke-miterlimit:4;stroke-dasharray:none;stroke-opacity:1"
     d="m 20.172679,29.363928 c 0.0469,-0.24 1.1921,-0.318 1.1921,-0.844 0.0054,-0.52 -0.7546,-0.73 -1.5932,-2.531 l -0.0109,-0.021 c -0.5625,-1.339 -1.5984,-2.271 -2.8479,-2.375 -2.0682,-0.188 -3.948,1.953 -4.1932,4.765 -0.2453,2.808 1.2291,5.24 3.3026,5.418 1.9786,0.176 3.7854,-1.776 4.1505,-4.412 z"
     id="path56" />
  <path
     style="fill:#231f20;fill-opacity:1;fill-rule:nonzero;stroke:none"
     d="m 7.0633792,74.034928 c 3.5628998,1.844 3.6144998,-2.24 3.8332998,-2.661 2.3229,-4.437 2.3801,-4.817 3.9068,-8.323 2.2135,-5.062 2.952,-8.87 0.3853,-11.021 -1.7505,-1.459 -3.3812,-1.541 -4.5426,-0.911 -1.2812998,0.698 -3.0614998,3.334 -1.8999998,5.974 l -0.2401,1.697 c -0.312,1.12 -0.4583,1.677 -0.6558,2.219 -0.3442,0.942 -0.6521,1.969 -1.2134,3.844 -1.0054,3.322 -0.9798,7.166 -0.9798,7.166 -0.3281,1.204 1.4063,2.016 1.4063,2.016"
     id="path57" />
  <path
     style="fill:none;stroke:#231f20;stroke-width:0.565977;stroke-linecap:butt;stroke-linejoin:miter;stroke-miterlimit:4;stroke-dasharray:none;stroke-opacity:1"
     d="m 7.0633792,74.034928 c 3.5628998,1.844 3.6144998,-2.24 3.8332998,-2.661 2.3229,-4.437 2.3801,-4.817 3.9068,-8.323 2.2135,-5.062 2.952,-8.87 0.3853,-11.021 -1.7505,-1.459 -3.3812,-1.541 -4.5426,-0.911 -1.2812998,0.698 -3.0614998,3.334 -1.8999998,5.974 l -0.2401,1.697 c -0.312,1.12 -0.4583,1.677 -0.6558,2.219 -0.3442,0.942 -0.6521,1.969 -1.2134,3.844 -1.0054,3.322 -0.9798,7.166 -0.9798,7.166 -0.3281,1.204 1.4063,2.016 1.4063,2.016 z"
     id="path58" />
  <path
     style="fill:#ca0369;fill-opacity:1;fill-rule:nonzero;stroke:none"
     d="m 16.792979,55.816928 c 0,-1.558 -0.475,-2.839 -1.6094,-3.787 -1.7453,-1.459 -3.376,-1.541 -4.5374,-0.911 -1.2812998,0.698 -3.0614998,3.334 -1.9051998,5.974 l 7.2493998,2.932 c 0.2078,-0.626 0.3651,-1.208 0.5,-1.782 0.0411,-0.068 0.0839,-0.129 0.1302,-0.186 0.5162,-0.615 0.4068,-1.235 0.1724,-2.24"
     id="path59" />
  <path
     style="fill:none;stroke:#231f20;stroke-width:0.565977;stroke-linecap:butt;stroke-linejoin:miter;stroke-miterlimit:4;stroke-dasharray:none;stroke-opacity:1"
     d="m 16.792979,55.816928 c 0,-1.558 -0.475,-2.839 -1.6094,-3.787 -1.7453,-1.459 -3.376,-1.541 -4.5374,-0.911 -1.2812998,0.698 -3.0614998,3.334 -1.9051998,5.974 l 7.2493998,2.932 c 0.2078,-0.626 0.3651,-1.208 0.5,-1.782 0.0411,-0.068 0.0839,-0.129 0.1302,-0.186 0.5162,-0.615 0.4068,-1.235 0.1724,-2.24 z"
     id="path60" />
  <path
     style="fill:#ffffff;fill-opacity:1;fill-rule:nonzero;stroke:#231f20;stroke-width:0.665856;stroke-linecap:butt;stroke-linejoin:miter;stroke-miterlimit:4;stroke-dasharray:none;stroke-opacity:1"
     d="m 15.022179,32.103928 h 1.3333 v -31.678 h -1.3333 z"
     id="path61" />
  <path
     style="fill:#231f20;fill-opacity:1;fill-rule:nonzero;stroke:none"
     d="m 58.693679,85.785928 c 0.015,-1.349 0.947,-1.693 1.922,-1.339 0.292,0.11 0.65,-0.105 0.921,0.026 0.641,0.292 1.188,1.953 -0.077,2.756 -0.095,0.061 -0.62,0.681 -1.084,1.093 -0.916,0.797 -3.135,1.943 -5.692,1.104 -1.219,-0.396 -0.762,-1.036 -0.224,-1.027 1.708,0.038 1.874,-0.296 2.327,-0.448 1.537,-0.514 1.907,-2.165 1.907,-2.165"
     id="path62" />
  <path
     style="fill:none;stroke:#231f20;stroke-width:0.332927;stroke-linecap:butt;stroke-linejoin:miter;stroke-miterlimit:4;stroke-dasharray:none;stroke-opacity:1"
     d="m 58.693679,85.785928 c 0.015,-1.349 0.947,-1.693 1.922,-1.339 0.292,0.11 0.65,-0.105 0.921,0.026 0.641,0.292 1.188,1.953 -0.077,2.756 -0.095,0.061 -0.62,0.681 -1.084,1.093 -0.916,0.797 -3.135,1.943 -5.692,1.104 -1.219,-0.396 -0.762,-1.036 -0.224,-1.027 1.708,0.038 1.874,-0.296 2.327,-0.448 1.537,-0.514 1.907,-2.165 1.907,-2.165 z"
     id="path63" />
  <path
     style="fill:#231f20;fill-opacity:1;fill-rule:nonzero;stroke:none"
     d="m 74.667679,75.966928 c -1.104,-1.978 -1.584,-2.213 -2.454,-1.806 -0.577,0.27 -1.202,0.328 -1.562,0.478 -1.203,0.495 -3.011,1.823 -7.156,6.938 -0.943,1.161 -2.271,2.781 -2.864,3.401 -0.943,0.973 1.317,1.88 1.686,1.495 1.21,-1.214 2.136,-1.959 2.626,-2.339 0.338,-0.26 0.874,-0.801 2.317,-1.645 2.183,-1.271 3.677,-1.708 5.371,-2.975 0.785,-0.593 1.749,-0.536 2.229,-1.505 0.479,-0.979 -0.193,-2.042 -0.193,-2.042"
     id="path64" />
  <path
     style="fill:none;stroke:#231f20;stroke-width:0.565977;stroke-linecap:butt;stroke-linejoin:miter;stroke-miterlimit:4;stroke-dasharray:none;stroke-opacity:1"
     d="m 74.667679,75.966928 c -1.104,-1.978 -1.584,-2.213 -2.454,-1.806 -0.577,0.27 -1.202,0.328 -1.562,0.478 -1.203,0.495 -3.011,1.823 -7.156,6.938 -0.943,1.161 -2.271,2.781 -2.864,3.401 -0.943,0.973 1.317,1.88 1.686,1.495 1.21,-1.214 2.136,-1.959 2.626,-2.339 0.338,-0.26 0.874,-0.801 2.317,-1.645 2.183,-1.271 3.677,-1.708 5.371,-2.975 0.785,-0.593 1.749,-0.536 2.229,-1.505 0.479,-0.979 -0.193,-2.042 -0.193,-2.042 z"
     id="path65" />
  <path
     style="fill:#ca0369;fill-opacity:1;fill-rule:nonzero;stroke:none"
     d="m 92.917679,57.508928 c -2.177,2.25 -2.89,2.496 -3.74,2.849 -5.328,2.245 -4.13,4.817 -1.724,6.417 2.823,1.875 3.792,2.61 7.719,-2.313 1.093,-1.369 5.968001,-6.072 5.968001,-6.072 1.969,-1.448 3.12,-3.912 2.824,-5.339 -0.313,-1.5 -0.297,-0.88 -0.839,-2.224 -0.521,-1.27 -2.261,-2.598 -3.464001,-2.338 -1.166,0.254 -1.692,1.833 -2.749,4.016 -0.839,1.718 -3.995,5.004 -3.995,5.004"
     id="path66" />
  <path
     style="fill:none;stroke:#231f20;stroke-width:0.565977;stroke-linecap:butt;stroke-linejoin:miter;stroke-miterlimit:4;stroke-dasharray:none;stroke-opacity:1"
     d="m 92.917679,57.508928 c -2.177,2.25 -2.89,2.496 -3.74,2.849 -5.328,2.245 -4.13,4.817 -1.724,6.417 2.823,1.875 3.792,2.61 7.719,-2.313 1.093,-1.369 5.968001,-6.072 5.968001,-6.072 1.969,-1.448 3.12,-3.912 2.824,-5.339 -0.313,-1.5 -0.297,-0.88 -0.839,-2.224 -0.521,-1.27 -2.261,-2.598 -3.464001,-2.338 -1.166,0.254 -1.692,1.833 -2.749,4.016 -0.839,1.718 -3.995,5.004 -3.995,5.004 z"
     id="path67" />
  <path
     style="fill:#ffffff;fill-opacity:1;fill-rule:nonzero;stroke:none"
     d="m 108.12068,46.753928 c 0.167,-0.183 1.197,0.323 1.464,-0.125 0.265,-0.448 -0.287,-1.011 -0.1,-2.989 l 0.005,-0.022 c 0.188,-1.442 -0.229,-2.765 -1.249,-3.494 -1.693,-1.203 -4.396,-0.318 -6.032,1.985 -1.635,2.301 -1.593,5.14 0.099,6.348 1.614,1.152 4.166,0.385 5.813,-1.703"
     id="path68" />
  <path
     style="fill:none;stroke:#231f20;stroke-width:0.565977;stroke-linecap:butt;stroke-linejoin:miter;stroke-miterlimit:4;stroke-dasharray:none;stroke-opacity:1"
     d="m 108.12068,46.753928 c 0.167,-0.183 1.197,0.323 1.464,-0.125 0.265,-0.448 -0.287,-1.011 -0.1,-2.989 l 0.005,-0.022 c 0.188,-1.442 -0.229,-2.765 -1.249,-3.494 -1.693,-1.203 -4.396,-0.318 -6.032,1.985 -1.635,2.301 -1.593,5.14 0.099,6.348 1.614,1.152 4.166,0.385 5.813,-1.703 z"
     id="path69" />
  <path
     style="fill:#231f20;fill-opacity:1;fill-rule:nonzero;stroke:none"
     d="m 72.287679,76.638928 c 1.645,3.662 4.224,0.495 4.656,0.308 4.584,-2.037 4.86,-2.297 8.234,-4.089 4.886,-2.588 7.834,-5.115 7.156,-8.396 -0.464,-2.229 -1.688,-3.307 -2.984,-3.536 -1.437,-0.255 -4.474,0.703 -5.209,3.495 l -1.244,1.177 c -0.937,0.687 -1.401,1.031 -1.891,1.333 -0.86,0.526 -1.734,1.135 -3.349,2.255 -2.849,1.98 -5.219,5.005 -5.219,5.005 -1.005,0.735 -0.15,2.448 -0.15,2.448"
     id="path70" />
  <path
     style="fill:none;stroke:#231f20;stroke-width:0.565977;stroke-linecap:butt;stroke-linejoin:miter;stroke-miterlimit:4;stroke-dasharray:none;stroke-opacity:1"
     d="m 72.287679,76.638928 c 1.645,3.662 4.224,0.495 4.656,0.308 4.584,-2.037 4.86,-2.297 8.234,-4.089 4.886,-2.588 7.834,-5.115 7.156,-8.396 -0.464,-2.229 -1.688,-3.307 -2.984,-3.536 -1.437,-0.255 -4.474,0.703 -5.209,3.495 l -1.244,1.177 c -0.937,0.687 -1.401,1.031 -1.891,1.333 -0.86,0.526 -1.734,1.135 -3.349,2.255 -2.849,1.98 -5.219,5.005 -5.219,5.005 -1.005,0.735 -0.15,2.448 -0.15,2.448 z"
     id="path71" />
  <path
     style="fill:#ca0369;fill-opacity:1;fill-rule:nonzero;stroke:none"
     d="m 92.333679,64.461928 c -0.464,-2.229 -1.688,-3.307 -2.984,-3.536 -1.437,-0.255 -4.474,0.703 -5.209,3.495 l 3.849,6.802 c 0.547,-0.36 1.038,-0.724 1.5,-1.089 0.074,-0.025 0.151,-0.052 0.219,-0.063 0.792,-0.156 1.084,-0.713 1.532,-1.645 0.963,-1.219 1.391,-2.516 1.093,-3.964"
     id="path72" />
  <path
     style="fill:none;stroke:#231f20;stroke-width:0.565977;stroke-linecap:butt;stroke-linejoin:miter;stroke-miterlimit:4;stroke-dasharray:none;stroke-opacity:1"
     d="m 92.333679,64.461928 c -0.464,-2.229 -1.688,-3.307 -2.984,-3.536 -1.437,-0.255 -4.474,0.703 -5.209,3.495 l 3.849,6.802 c 0.547,-0.36 1.038,-0.724 1.5,-1.089 0.074,-0.025 0.151,-0.052 0.219,-0.063 0.792,-0.156 1.084,-0.713 1.532,-1.645 0.963,-1.219 1.391,-2.516 1.093,-3.964 z"
     id="path73" />
  <path
     style="fill:#231f20;fill-opacity:1;fill-rule:nonzero;stroke:none"
     d="m 82.197679,41.540928 c 0.636,-0.073 2.24,1.031 3.814,1.364 1.062,0.224 3.281,1.839 4.358,1.991 0.986,0.129 1.423,0.28 1.464,1.437 0.022,0.676 -0.369,2.005 -0.88,2.052 -1.188,0.093 -2.084,-0.204 -3.01,-0.746 -1.047,-0.614 -3.74,-2.535 -4.208,-2.937 -1.151,-0.994 -1.886,-1.026 -2.219,-1.265 -0.625,-0.437 -0.604,-0.787 -0.407,-1.251 0.38,-0.874 1.088,-0.645 1.088,-0.645"
     id="path74" />
  <path
     style="fill:none;stroke:#231f20;stroke-width:0.565977;stroke-linecap:butt;stroke-linejoin:miter;stroke-miterlimit:4;stroke-dasharray:none;stroke-opacity:1"
     d="m 82.197679,41.540928 c 0.636,-0.073 2.24,1.031 3.814,1.364 1.062,0.224 3.281,1.839 4.358,1.991 0.986,0.129 1.423,0.28 1.464,1.437 0.022,0.676 -0.369,2.005 -0.88,2.052 -1.188,0.093 -2.084,-0.204 -3.01,-0.746 -1.047,-0.614 -3.74,-2.535 -4.208,-2.937 -1.151,-0.994 -1.886,-1.026 -2.219,-1.265 -0.625,-0.437 -0.604,-0.787 -0.407,-1.251 0.38,-0.874 1.088,-0.645 1.088,-0.645 z"
     id="path75" />
  <path
     style="fill:#231f20;fill-opacity:1;fill-rule:nonzero;stroke:none"
     d="m 90.312679,45.561928 c 0.699,-1.089 2.183,0.302 2.631,0.61 0.448,0.306 1.822,1.035 2.964,1.467 1.15,0.432 2.39,1.464 4.566001,2.287 1.147,0.432 1.98,1.583 1.282,3.213 -0.687,1.61 -1.859001,1.828 -3.167001,1.099 -1.301,-0.739 -2.219,-1.973 -3.484,-2.807 -1.26,-0.828 -2.625,-1.562 -3.719,-2.078 -1.249,-0.599 -1.645,-1.354 -1.625,-1.828 0.047,-1.197 0.552,-1.963 0.552,-1.963"
     id="path76" />
  <path
     style="fill:none;stroke:#231f20;stroke-width:0.565977;stroke-linecap:butt;stroke-linejoin:miter;stroke-miterlimit:4;stroke-dasharray:none;stroke-opacity:1"
     d="m 90.312679,45.561928 c 0.699,-1.089 2.183,0.302 2.631,0.61 0.448,0.306 1.822,1.035 2.964,1.467 1.15,0.432 2.39,1.464 4.566001,2.287 1.147,0.432 1.98,1.583 1.282,3.213 -0.687,1.61 -1.859001,1.828 -3.167001,1.099 -1.301,-0.739 -2.219,-1.973 -3.484,-2.807 -1.26,-0.828 -2.625,-1.562 -3.719,-2.078 -1.249,-0.599 -1.645,-1.354 -1.625,-1.828 0.047,-1.197 0.552,-1.963 0.552,-1.963 z"
     id="path77" />
  <path
     style="fill:#ffffff;fill-opacity:1;fill-rule:nonzero;stroke:#231f20;stroke-width:0.665856;stroke-linecap:butt;stroke-linejoin:miter;stroke-miterlimit:4;stroke-dasharray:none;stroke-opacity:1"
     d="m 80.407679,32.004928 h 1.333 v -31.672 h -1.333 z"
     id="path78" />
  <path
     style="fill:#ffffff;fill-opacity:1;fill-rule:nonzero;stroke:none"
     d="m 77.213679,36.941928 c 0,-2.354 1.918,-4.27 4.271,-4.27 2.355,0 4.265,1.916 4.265,4.27 0,2.354 -1.91,4.271 -4.265,4.271 -2.353,0 -4.271,-1.917 -4.271,-4.271 m -1.333,0 c 0,3.088 2.516,5.599 5.604,5.599 3.084,0 5.599,-2.511 5.599,-5.599 0,-3.089 -2.515,-5.604 -5.599,-5.604 -3.088,0 -5.604,2.515 -5.604,5.604"
     id="path79" />
  <path
     style="fill:none;stroke:#231f20;stroke-width:0.665856;stroke-linecap:butt;stroke-linejoin:miter;stroke-miterlimit:4;stroke-dasharray:none;stroke-opacity:1"
     d="m 77.213679,36.941928 c 0,-2.354 1.918,-4.27 4.271,-4.27 2.355,0 4.265,1.916 4.265,4.27 0,2.354 -1.91,4.271 -4.265,4.271 -2.353,0 -4.271,-1.917 -4.271,-4.271 z m -1.333,0 c 0,3.088 2.516,5.599 5.604,5.599 3.084,0 5.599,-2.511 5.599,-5.599 0,-3.089 -2.515,-5.604 -5.599,-5.604 -3.088,0 -5.604,2.515 -5.604,5.604 z"
     id="path80" />
  <path
     style="fill:#231f20;fill-opacity:1;fill-rule:nonzero;stroke:none"
     d="m 81.068679,42.947928 c -0.647,-0.272 -0.813,-2.579 -0.521,-2.704 0.286,-0.124 0.265,0.641 0.598,0.516 0.334,-0.126 0.271,-0.626 0.506,-0.64 0.25,-0.022 0.224,0.582 0.516,0.498 0.125,-0.036 0.354,-0.588 0.541,-0.546 0.161,0.042 0.349,0.532 0.48,0.568 0.208,0.057 0.281,-0.558 0.457,-0.52 0.459,0.077 -0.233,2.702 -0.448,2.812 -0.322,0.161 -1.093,0.448 -2.129,0.016"
     id="path81" />
  <path
     style="fill:none;stroke:#231f20;stroke-width:0.565977;stroke-linecap:round;stroke-linejoin:round;stroke-miterlimit:4;stroke-dasharray:none;stroke-opacity:1"
     d="m 81.068679,42.947928 c -0.647,-0.272 -0.813,-2.579 -0.521,-2.704 0.286,-0.124 0.265,0.641 0.598,0.516 0.334,-0.126 0.271,-0.626 0.506,-0.64 0.25,-0.022 0.224,0.582 0.516,0.498 0.125,-0.036 0.354,-0.588 0.541,-0.546 0.161,0.042 0.349,0.532 0.48,0.568 0.208,0.057 0.281,-0.558 0.457,-0.52 0.459,0.077 -0.233,2.702 -0.448,2.812 -0.322,0.161 -1.093,0.448 -2.129,0.016 z"
     id="path82" />
  <path
     style="fill:#231f20;fill-opacity:1;fill-rule:nonzero;stroke:none"
     d="m 124.13668,68.674928 c 0.5,-1.254 1.489,-1.244 2.276,-0.566 0.233,0.202 0.64,0.134 0.853,0.353 0.49,0.5 0.407,2.245 -1.057,2.543 -0.109,0.025 -0.823,0.421 -1.405,0.634 -1.142,0.423 -3.62,0.703 -5.715,-0.994 -0.995,-0.803 -0.339,-1.24 0.163,-1.036 1.582,0.645 1.853,0.39 2.333,0.41 1.613,0.068 2.552,-1.344 2.552,-1.344"
     id="path83" />
  <path
     style="fill:none;stroke:#231f20;stroke-width:0.332927;stroke-linecap:butt;stroke-linejoin:miter;stroke-miterlimit:4;stroke-dasharray:none;stroke-opacity:1"
     d="m 124.13668,68.674928 c 0.5,-1.254 1.489,-1.244 2.276,-0.566 0.233,0.202 0.64,0.134 0.853,0.353 0.49,0.5 0.407,2.245 -1.057,2.543 -0.109,0.025 -0.823,0.421 -1.405,0.634 -1.142,0.423 -3.62,0.703 -5.715,-0.994 -0.995,-0.803 -0.339,-1.24 0.163,-1.036 1.582,0.645 1.853,0.39 2.333,0.41 1.613,0.068 2.552,-1.344 2.552,-1.344 z"
     id="path84" />
  <path
     style="fill:#231f20;fill-opacity:1;fill-rule:nonzero;stroke:none"
     d="m 142.56268,65.196928 c -0.328,-2.24 -0.693,-2.631 -1.645,-2.563 -0.641,0.047 -1.245,-0.125 -1.636,-0.109 -1.297,0.037 -3.458,0.63 -9.156,3.932 -1.292,0.75 -3.114,1.786 -3.89,2.152 -1.224,0.572 0.557,2.224 1.041,2 1.563,-0.704 2.693,-1.068 3.292,-1.246 0.405,-0.125 1.099,-0.437 2.744,-0.713 2.495,-0.407 4.052,-0.281 6.084,-0.864 0.942,-0.272 1.822,0.124 2.62,-0.611 0.796,-0.744 0.546,-1.978 0.546,-1.978"
     id="path85" />
  <path
     style="fill:none;stroke:#231f20;stroke-width:0.565977;stroke-linecap:butt;stroke-linejoin:miter;stroke-miterlimit:4;stroke-dasharray:none;stroke-opacity:1"
     d="m 142.56268,65.196928 c -0.328,-2.24 -0.693,-2.631 -1.645,-2.563 -0.641,0.047 -1.245,-0.125 -1.636,-0.109 -1.297,0.037 -3.458,0.63 -9.156,3.932 -1.292,0.75 -3.114,1.786 -3.89,2.152 -1.224,0.572 0.557,2.224 1.041,2 1.563,-0.704 2.693,-1.068 3.292,-1.246 0.405,-0.125 1.099,-0.437 2.744,-0.713 2.495,-0.407 4.052,-0.281 6.084,-0.864 0.942,-0.272 1.822,0.124 2.62,-0.611 0.796,-0.744 0.546,-1.978 0.546,-1.978 z"
     id="path86" />
  <path
     style="fill:#ca0369;fill-opacity:1;fill-rule:nonzero;stroke:none"
     d="m 166.19368,54.461928 c -2.833,1.328 -3.589,1.303 -4.511,1.333 -5.776,0.194 -5.573,3.027 -3.896,5.376 1.963,2.76 2.61,3.791 8.036,0.594 1.511,-0.891 7.746,-3.547 7.746,-3.547 2.353,-0.647 4.306,-2.543 4.536,-3.975 0.245,-1.514 0.041,-0.932 0.01,-2.385 -0.032,-1.369 -1.182,-3.229 -2.406,-3.416 -1.178,-0.177 -2.23,1.115 -3.995,2.771 -1.396,1.306 -5.52,3.249 -5.52,3.249"
     id="path87" />
  <path
     style="fill:none;stroke:#231f20;stroke-width:0.565977;stroke-linecap:butt;stroke-linejoin:miter;stroke-miterlimit:4;stroke-dasharray:none;stroke-opacity:1"
     d="m 166.19368,54.461928 c -2.833,1.328 -3.589,1.303 -4.511,1.333 -5.776,0.194 -5.573,3.027 -3.896,5.376 1.963,2.76 2.61,3.791 8.036,0.594 1.511,-0.891 7.746,-3.547 7.746,-3.547 2.353,-0.647 4.306,-2.543 4.536,-3.975 0.245,-1.514 0.041,-0.932 0.01,-2.385 -0.032,-1.369 -1.182,-3.229 -2.406,-3.416 -1.178,-0.177 -2.23,1.115 -3.995,2.771 -1.396,1.306 -5.52,3.249 -5.52,3.249 z"
     id="path88" />
  <path
     style="fill:#ffffff;fill-opacity:1;fill-rule:nonzero;stroke:none"
     d="m 184.23468,49.837928 c 0.224,-0.109 1,0.733 1.411,0.405 0.407,-0.322 0.095,-1.046 0.975,-2.828 l 0.016,-0.016 c 0.686,-1.279 0.765,-2.666 0.072,-3.707 -1.151,-1.73 -3.99,-1.87 -6.339,-0.302 -2.348,1.572 -3.323,4.239 -2.172,5.963 1.1,1.656 3.751,1.849 6.037,0.485"
     id="path89" />
  <path
     style="fill:none;stroke:#231f20;stroke-width:0.565977;stroke-linecap:butt;stroke-linejoin:miter;stroke-miterlimit:4;stroke-dasharray:none;stroke-opacity:1"
     d="m 184.23468,49.837928 c 0.224,-0.109 1,0.733 1.411,0.405 0.407,-0.322 0.095,-1.046 0.975,-2.828 l 0.016,-0.016 c 0.686,-1.279 0.765,-2.666 0.072,-3.707 -1.151,-1.73 -3.99,-1.87 -6.339,-0.302 -2.348,1.572 -3.323,4.239 -2.172,5.963 1.1,1.656 3.751,1.849 6.037,0.485 z"
     id="path90" />
  <path
     style="fill:#231f20;fill-opacity:1;fill-rule:nonzero;stroke:none"
     d="m 140.09868,64.977928 c 0.23,4.005 3.766,1.969 4.246,1.948 5,-0.26 5.358,-0.417 9.15,-0.88 5.484,-0.683 9.136,-1.984 9.678,-5.292 0.364,-2.249 -0.402,-3.697 -1.532,-4.369 -1.255,-0.751 -4.427,-0.938 -6.11,1.405 l -1.582,0.657 c -1.12,0.302 -1.678,0.468 -2.246,0.572 -0.984,0.183 -2.025,0.443 -3.926,0.912 -3.37,0.834 -6.662,2.812 -6.662,2.812 -1.202,0.334 -1.016,2.235 -1.016,2.235"
     id="path91" />
  <path
     style="fill:none;stroke:#231f20;stroke-width:0.565977;stroke-linecap:butt;stroke-linejoin:miter;stroke-miterlimit:4;stroke-dasharray:none;stroke-opacity:1"
     d="m 140.09868,64.977928 c 0.23,4.005 3.766,1.969 4.246,1.948 5,-0.26 5.358,-0.417 9.15,-0.88 5.484,-0.683 9.136,-1.984 9.678,-5.292 0.364,-2.249 -0.402,-3.697 -1.532,-4.369 -1.255,-0.751 -4.427,-0.938 -6.11,1.405 l -1.582,0.657 c -1.12,0.302 -1.678,0.468 -2.246,0.572 -0.984,0.183 -2.025,0.443 -3.926,0.912 -3.37,0.834 -6.662,2.812 -6.662,2.812 -1.202,0.334 -1.016,2.235 -1.016,2.235 z"
     id="path92" />
  <path
     style="fill:#ca0369;fill-opacity:1;fill-rule:nonzero;stroke:none"
     d="m 161.64068,56.384928 c -1.25,-0.751 -4.427,-0.938 -6.11,1.405 l 1.167,7.724 c 0.647,-0.135 1.229,-0.296 1.792,-0.473 0.079,0 0.156,0.005 0.229,0.016 0.792,0.134 1.266,-0.276 2.016,-0.991 1.339,-0.796 2.198,-1.859 2.438,-3.312 0.364,-2.249 -0.402,-3.697 -1.532,-4.369"
     id="path93" />
  <path
     style="fill:none;stroke:#231f20;stroke-width:0.565977;stroke-linecap:butt;stroke-linejoin:miter;stroke-miterlimit:4;stroke-dasharray:none;stroke-opacity:1"
     d="m 161.64068,56.384928 c -1.25,-0.751 -4.427,-0.938 -6.11,1.405 l 1.167,7.724 c 0.647,-0.135 1.229,-0.296 1.792,-0.473 0.079,0 0.156,0.005 0.229,0.016 0.792,0.134 1.266,-0.276 2.016,-0.991 1.339,-0.796 2.198,-1.859 2.438,-3.312 0.364,-2.249 -0.402,-3.697 -1.532,-4.369 z"
     id="path94" />
  <path
     style="fill:#231f20;fill-opacity:1;fill-rule:nonzero;stroke:none"
     d="m 157.07868,41.540928 c 0.635,-0.073 2.239,1.031 3.812,1.364 1.063,0.224 3.282,1.839 4.36,1.991 0.984,0.129 1.422,0.28 1.463,1.437 0.021,0.676 -0.369,2.005 -0.885,2.052 -1.183,0.093 -2.079,-0.204 -3.006,-0.746 -1.046,-0.614 -3.744,-2.535 -4.208,-2.937 -1.15,-0.994 -1.885,-1.026 -2.218,-1.265 -0.626,-0.437 -0.604,-0.787 -0.407,-1.251 0.38,-0.874 1.089,-0.645 1.089,-0.645"
     id="path95" />
  <path
     style="fill:none;stroke:#231f20;stroke-width:0.565977;stroke-linecap:butt;stroke-linejoin:miter;stroke-miterlimit:4;stroke-dasharray:none;stroke-opacity:1"
     d="m 157.07868,41.540928 c 0.635,-0.073 2.239,1.031 3.812,1.364 1.063,0.224 3.282,1.839 4.36,1.991 0.984,0.129 1.422,0.28 1.463,1.437 0.021,0.676 -0.369,2.005 -0.885,2.052 -1.183,0.093 -2.079,-0.204 -3.006,-0.746 -1.046,-0.614 -3.744,-2.535 -4.208,-2.937 -1.15,-0.994 -1.885,-1.026 -2.218,-1.265 -0.626,-0.437 -0.604,-0.787 -0.407,-1.251 0.38,-0.874 1.089,-0.645 1.089,-0.645 z"
     id="path96" />
  <path
     style="fill:#231f20;fill-opacity:1;fill-rule:nonzero;stroke:none"
     d="m 165.19368,45.561928 c 0.697,-1.089 2.181,0.302 2.629,0.61 0.448,0.306 1.823,1.035 2.964,1.467 1.151,0.432 2.391,1.464 4.568,2.287 1.146,0.432 1.979,1.583 1.282,3.213 -0.688,1.61 -1.86,1.828 -3.167,1.099 -1.308,-0.739 -2.219,-1.973 -3.485,-2.807 -1.26,-0.828 -2.624,-1.562 -3.719,-2.078 -1.249,-0.599 -1.645,-1.354 -1.625,-1.828 0.048,-1.197 0.553,-1.963 0.553,-1.963"
     id="path97" />
  <path
     style="fill:none;stroke:#231f20;stroke-width:0.565977;stroke-linecap:butt;stroke-linejoin:miter;stroke-miterlimit:4;stroke-dasharray:none;stroke-opacity:1"
     d="m 165.19368,45.561928 c 0.697,-1.089 2.181,0.302 2.629,0.61 0.448,0.306 1.823,1.035 2.964,1.467 1.151,0.432 2.391,1.464 4.568,2.287 1.146,0.432 1.979,1.583 1.282,3.213 -0.688,1.61 -1.86,1.828 -3.167,1.099 -1.308,-0.739 -2.219,-1.973 -3.485,-2.807 -1.26,-0.828 -2.624,-1.562 -3.719,-2.078 -1.249,-0.599 -1.645,-1.354 -1.625,-1.828 0.048,-1.197 0.553,-1.963 0.553,-1.963 z"
     id="path98" />
  <path
     style="fill:#ffffff;fill-opacity:1;fill-rule:nonzero;stroke:#231f20;stroke-width:0.665856;stroke-linecap:butt;stroke-linejoin:miter;stroke-miterlimit:4;stroke-dasharray:none;stroke-opacity:1"
     d="m 155.28668,32.004928 h 1.334 v -31.672 h -1.334 z"
     id="path99" />
  <path
     style="fill:#ffffff;fill-opacity:1;fill-rule:nonzero;stroke:none"
     d="m 152.09368,36.941928 c 0,-2.354 1.917,-4.27 4.267,-4.27 2.358,0 4.27,1.916 4.27,4.27 0,2.354 -1.912,4.271 -4.27,4.271 -2.35,0 -4.267,-1.917 -4.267,-4.271 m -1.333,0 c 0,3.088 2.516,5.599 5.6,5.599 3.088,0 5.604,-2.511 5.604,-5.599 0,-3.089 -2.516,-5.604 -5.604,-5.604 -3.084,0 -5.6,2.515 -5.6,5.604"
     id="path100" />
  <path
     style="fill:none;stroke:#231f20;stroke-width:0.665856;stroke-linecap:butt;stroke-linejoin:miter;stroke-miterlimit:4;stroke-dasharray:none;stroke-opacity:1"
     d="m 152.09368,36.941928 c 0,-2.354 1.917,-4.27 4.267,-4.27 2.358,0 4.27,1.916 4.27,4.27 0,2.354 -1.912,4.271 -4.27,4.271 -2.35,0 -4.267,-1.917 -4.267,-4.271 z m -1.333,0 c 0,3.088 2.516,5.599 5.6,5.599 3.088,0 5.604,-2.511 5.604,-5.599 0,-3.089 -2.516,-5.604 -5.604,-5.604 -3.084,0 -5.6,2.515 -5.6,5.604 z"
     id="path101" />
  <path
     style="fill:#231f20;fill-opacity:1;fill-rule:nonzero;stroke:none"
     d="m 155.94868,42.947928 c -0.646,-0.272 -0.812,-2.579 -0.522,-2.704 0.287,-0.124 0.267,0.641 0.6,0.516 0.334,-0.126 0.271,-0.626 0.504,-0.64 0.251,-0.022 0.224,0.582 0.516,0.498 0.126,-0.036 0.355,-0.588 0.542,-0.546 0.161,0.042 0.349,0.532 0.48,0.568 0.208,0.057 0.281,-0.558 0.458,-0.52 0.458,0.077 -0.234,2.702 -0.448,2.812 -0.324,0.161 -1.094,0.448 -2.13,0.016"
     id="path102" />
  <path
     style="fill:none;stroke:#231f20;stroke-width:0.565977;stroke-linecap:round;stroke-linejoin:round;stroke-miterlimit:4;stroke-dasharray:none;stroke-opacity:1"
     d="m 155.94868,42.947928 c -0.646,-0.272 -0.812,-2.579 -0.522,-2.704 0.287,-0.124 0.267,0.641 0.6,0.516 0.334,-0.126 0.271,-0.626 0.504,-0.64 0.251,-0.022 0.224,0.582 0.516,0.498 0.126,-0.036 0.355,-0.588 0.542,-0.546 0.161,0.042 0.349,0.532 0.48,0.568 0.208,0.057 0.281,-0.558 0.458,-0.52 0.458,0.077 -0.234,2.702 -0.448,2.812 -0.324,0.161 -1.094,0.448 -2.13,0.016 z"
     id="path103" />
  <path
     style="fill:#231f20;fill-opacity:1;fill-rule:nonzero;stroke:none"
     d="m 202.65668,50.628928 c 0.89,-1.011 1.817,-0.667 2.328,0.24 0.152,0.27 0.562,0.344 0.688,0.62 0.292,0.64 -0.375,2.249 -1.855,2.036 -0.109,-0.016 -0.916,0.12 -1.536,0.125 -1.213,0.011 -3.645,-0.563 -5.041,-2.869 -0.667,-1.09 0.098,-1.282 0.5,-0.918 1.276,1.136 1.614,0.99 2.057,1.172 1.5,0.61 2.859,-0.406 2.859,-0.406"
     id="path104" />
  <path
     style="fill:none;stroke:#231f20;stroke-width:0.332927;stroke-linecap:butt;stroke-linejoin:miter;stroke-miterlimit:4;stroke-dasharray:none;stroke-opacity:1"
     d="m 202.65668,50.628928 c 0.89,-1.011 1.817,-0.667 2.328,0.24 0.152,0.27 0.562,0.344 0.688,0.62 0.292,0.64 -0.375,2.249 -1.855,2.036 -0.109,-0.016 -0.916,0.12 -1.536,0.125 -1.213,0.011 -3.645,-0.563 -5.041,-2.869 -0.667,-1.09 0.098,-1.282 0.5,-0.918 1.276,1.136 1.614,0.99 2.057,1.172 1.5,0.61 2.859,-0.406 2.859,-0.406 z"
     id="path105" />
  <path
     style="fill:#231f20;fill-opacity:1;fill-rule:nonzero;stroke:none"
     d="m 221.17268,53.581928 c 0.453,-2.219 0.24,-2.713 -0.683,-2.968 -0.62,-0.172 -1.129,-0.537 -1.5,-0.657 -1.235,-0.406 -3.468,-0.572 -9.948,0.609 -1.468,0.267 -3.536,0.631 -4.385,0.715 -1.354,0.124 -0.23,2.281 0.302,2.233 1.708,-0.135 2.896,-0.099 3.52,-0.067 0.423,0.02 1.183,-0.032 2.824,0.26 2.484,0.459 3.906,1.104 6.015,1.24 0.98,0.062 1.677,0.734 2.672,0.312 1,-0.432 1.183,-1.677 1.183,-1.677"
     id="path106" />
  <path
     style="fill:none;stroke:#231f20;stroke-width:0.565977;stroke-linecap:butt;stroke-linejoin:miter;stroke-miterlimit:4;stroke-dasharray:none;stroke-opacity:1"
     d="m 221.17268,53.581928 c 0.453,-2.219 0.24,-2.713 -0.683,-2.968 -0.62,-0.172 -1.129,-0.537 -1.5,-0.657 -1.235,-0.406 -3.468,-0.572 -9.948,0.609 -1.468,0.267 -3.536,0.631 -4.385,0.715 -1.354,0.124 -0.23,2.281 0.302,2.233 1.708,-0.135 2.896,-0.099 3.52,-0.067 0.423,0.02 1.183,-0.032 2.824,0.26 2.484,0.459 3.906,1.104 6.015,1.24 0.98,0.062 1.677,0.734 2.672,0.312 1,-0.432 1.183,-1.677 1.183,-1.677 z"
     id="path107" />
  <path
     style="fill:#ca0369;fill-opacity:1;fill-rule:nonzero;stroke:none"
     d="m 247.04168,51.456928 c -3.115,0.292 -3.817,0.016 -4.692,-0.271 -5.505,-1.765 -6.267,0.969 -5.489,3.745 0.921,3.266 1.181,4.454 7.364,3.276 1.724,-0.333 8.489,-0.724 8.489,-0.724 2.432,0.188 4.912,-0.937 5.615,-2.208 0.74,-1.344 0.349,-0.865 0.812,-2.24 0.438,-1.302 -0.02,-3.437 -1.11,-4.03 -1.046,-0.568 -2.473,0.296 -4.697,1.254 -1.755,0.766 -6.292,1.198 -6.292,1.198"
     id="path108" />
  <path
     style="fill:none;stroke:#231f20;stroke-width:0.565977;stroke-linecap:butt;stroke-linejoin:miter;stroke-miterlimit:4;stroke-dasharray:none;stroke-opacity:1"
     d="m 247.04168,51.456928 c -3.115,0.292 -3.817,0.016 -4.692,-0.271 -5.505,-1.765 -6.267,0.969 -5.489,3.745 0.921,3.266 1.181,4.454 7.364,3.276 1.724,-0.333 8.489,-0.724 8.489,-0.724 2.432,0.188 4.912,-0.937 5.615,-2.208 0.74,-1.344 0.349,-0.865 0.812,-2.24 0.438,-1.302 -0.02,-3.437 -1.11,-4.03 -1.046,-0.568 -2.473,0.296 -4.697,1.254 -1.755,0.766 -6.292,1.198 -6.292,1.198 z"
     id="path109" />
  <path
     style="fill:#ffffff;fill-opacity:1;fill-rule:nonzero;stroke:none"
     d="m 265.58468,53.201928 c 0.249,-0.031 0.692,1.021 1.192,0.855 0.494,-0.167 0.442,-0.954 1.874,-2.328 l 0.016,-0.016 c 1.083,-0.975 1.625,-2.251 1.323,-3.47 -0.5,-2.014 -3.125,-3.098 -5.864,-2.415 -2.745,0.681 -4.557,2.863 -4.057,4.879 0.473,1.922 2.905,3.006 5.516,2.495"
     id="path110" />
  <path
     style="fill:none;stroke:#231f20;stroke-width:0.565977;stroke-linecap:butt;stroke-linejoin:miter;stroke-miterlimit:4;stroke-dasharray:none;stroke-opacity:1"
     d="m 265.58468,53.201928 c 0.249,-0.031 0.692,1.021 1.192,0.855 0.494,-0.167 0.442,-0.954 1.874,-2.328 l 0.016,-0.016 c 1.083,-0.975 1.625,-2.251 1.323,-3.47 -0.5,-2.014 -3.125,-3.098 -5.864,-2.415 -2.745,0.681 -4.557,2.863 -4.057,4.879 0.473,1.922 2.905,3.006 5.516,2.495 z"
     id="path111" />
  <path
     style="fill:#231f20;fill-opacity:1;fill-rule:nonzero;stroke:none"
     d="m 218.92668,52.540928 c -1.134,3.854 2.886,3.13 3.339,3.265 4.797,1.443 5.183,1.423 8.907,2.26 5.396,1.219 9.276,1.219 10.901,-1.708 1.099,-1.995 0.875,-3.615 0.036,-4.629 -0.927,-1.131 -3.849,-2.376 -6.229,-0.74 l -1.708,0.082 c -1.162,-0.093 -1.74,-0.124 -2.308,-0.218 -0.99,-0.162 -2.058,-0.266 -4.004,-0.468 -3.454,-0.355 -7.224,0.401 -7.224,0.401 -1.24,-0.1 -1.71,1.755 -1.71,1.755"
     id="path112" />
  <path
     style="fill:none;stroke:#231f20;stroke-width:0.565977;stroke-linecap:butt;stroke-linejoin:miter;stroke-miterlimit:4;stroke-dasharray:none;stroke-opacity:1"
     d="m 218.92668,52.540928 c -1.134,3.854 2.886,3.13 3.339,3.265 4.797,1.443 5.183,1.423 8.907,2.26 5.396,1.219 9.276,1.219 10.901,-1.708 1.099,-1.995 0.875,-3.615 0.036,-4.629 -0.927,-1.131 -3.849,-2.376 -6.229,-0.74 l -1.708,0.082 c -1.162,-0.093 -1.74,-0.124 -2.308,-0.218 -0.99,-0.162 -2.058,-0.266 -4.004,-0.468 -3.454,-0.355 -7.224,0.401 -7.224,0.401 -1.24,-0.1 -1.71,1.755 -1.71,1.755 z"
     id="path113" />
  <path
     style="fill:#ca0369;fill-opacity:1;fill-rule:nonzero;stroke:none"
     d="m 242.10968,51.728928 c -0.927,-1.131 -3.849,-2.376 -6.229,-0.74 l -1.511,7.666 c 0.657,0.088 1.261,0.131 1.849,0.156 0.074,0.027 0.146,0.058 0.208,0.094 0.699,0.396 1.287,0.166 2.235,-0.25 1.527,-0.302 2.699,-1.005 3.412,-2.297 1.099,-1.995 0.875,-3.615 0.036,-4.629"
     id="path114" />
  <path
     style="fill:none;stroke:#231f20;stroke-width:0.565977;stroke-linecap:butt;stroke-linejoin:miter;stroke-miterlimit:4;stroke-dasharray:none;stroke-opacity:1"
     d="m 242.10968,51.728928 c -0.927,-1.131 -3.849,-2.376 -6.229,-0.74 l -1.511,7.666 c 0.657,0.088 1.261,0.131 1.849,0.156 0.074,0.027 0.146,0.058 0.208,0.094 0.699,0.396 1.287,0.166 2.235,-0.25 1.527,-0.302 2.699,-1.005 3.412,-2.297 1.099,-1.995 0.875,-3.615 0.036,-4.629 z"
     id="path115" />
  <path
     style="fill:#231f20;fill-opacity:1;fill-rule:nonzero;stroke:none"
     d="m 238.35468,41.540928 c 0.635,-0.073 2.239,1.031 3.812,1.364 1.063,0.224 3.282,1.839 4.36,1.991 0.984,0.129 1.422,0.28 1.463,1.437 0.021,0.676 -0.369,2.005 -0.88,2.052 -1.188,0.093 -2.083,-0.204 -3.011,-0.746 -1.046,-0.614 -3.738,-2.535 -4.208,-2.937 -1.15,-0.994 -1.885,-1.026 -2.218,-1.265 -0.626,-0.437 -0.604,-0.787 -0.407,-1.251 0.38,-0.874 1.089,-0.645 1.089,-0.645"
     id="path116" />
  <path
     style="fill:none;stroke:#231f20;stroke-width:0.565977;stroke-linecap:butt;stroke-linejoin:miter;stroke-miterlimit:4;stroke-dasharray:none;stroke-opacity:1"
     d="m 238.35468,41.540928 c 0.635,-0.073 2.239,1.031 3.812,1.364 1.063,0.224 3.282,1.839 4.36,1.991 0.984,0.129 1.422,0.28 1.463,1.437 0.021,0.676 -0.369,2.005 -0.88,2.052 -1.188,0.093 -2.083,-0.204 -3.011,-0.746 -1.046,-0.614 -3.738,-2.535 -4.208,-2.937 -1.15,-0.994 -1.885,-1.026 -2.218,-1.265 -0.626,-0.437 -0.604,-0.787 -0.407,-1.251 0.38,-0.874 1.089,-0.645 1.089,-0.645 z"
     id="path117" />
  <path
     style="fill:#231f20;fill-opacity:1;fill-rule:nonzero;stroke:none"
     d="m 246.46968,45.561928 c 0.697,-1.089 2.181,0.302 2.629,0.61 0.448,0.306 1.823,1.035 2.964,1.467 1.151,0.432 2.391,1.464 4.568,2.287 1.146,0.432 1.979,1.583 1.287,3.213 -0.693,1.61 -1.865,1.828 -3.172,1.099 -1.303,-0.739 -2.219,-1.973 -3.485,-2.807 -1.26,-0.828 -2.624,-1.562 -3.719,-2.078 -1.249,-0.599 -1.645,-1.354 -1.624,-1.828 0.047,-1.197 0.552,-1.963 0.552,-1.963"
     id="path118" />
  <path
     style="fill:none;stroke:#231f20;stroke-width:0.565977;stroke-linecap:butt;stroke-linejoin:miter;stroke-miterlimit:4;stroke-dasharray:none;stroke-opacity:1"
     d="m 246.46968,45.561928 c 0.697,-1.089 2.181,0.302 2.629,0.61 0.448,0.306 1.823,1.035 2.964,1.467 1.151,0.432 2.391,1.464 4.568,2.287 1.146,0.432 1.979,1.583 1.287,3.213 -0.693,1.61 -1.865,1.828 -3.172,1.099 -1.303,-0.739 -2.219,-1.973 -3.485,-2.807 -1.26,-0.828 -2.624,-1.562 -3.719,-2.078 -1.249,-0.599 -1.645,-1.354 -1.624,-1.828 0.047,-1.197 0.552,-1.963 0.552,-1.963 z"
     id="path119" />
  <path
     style="fill:#ffffff;fill-opacity:1;fill-rule:nonzero;stroke:#231f20;stroke-width:0.665856;stroke-linecap:butt;stroke-linejoin:miter;stroke-miterlimit:4;stroke-dasharray:none;stroke-opacity:1"
     d="m 236.56268,32.004928 h 1.334 v -31.672 h -1.334 z"
     id="path120" />
  <path
     style="fill:#ffffff;fill-opacity:1;fill-rule:nonzero;stroke:none"
     d="m 233.36968,36.941928 c 0,-2.354 1.917,-4.27 4.271,-4.27 2.354,0 4.266,1.916 4.266,4.27 0,2.354 -1.912,4.271 -4.266,4.271 -2.354,0 -4.271,-1.917 -4.271,-4.271 m -1.328,0 c 0,3.088 2.511,5.599 5.599,5.599 3.084,0 5.6,-2.511 5.6,-5.599 0,-3.089 -2.516,-5.604 -5.6,-5.604 -3.088,0 -5.599,2.515 -5.599,5.604"
     id="path121" />
  <path
     style="fill:none;stroke:#231f20;stroke-width:0.665856;stroke-linecap:butt;stroke-linejoin:miter;stroke-miterlimit:4;stroke-dasharray:none;stroke-opacity:1"
     d="m 233.36968,36.941928 c 0,-2.354 1.917,-4.27 4.271,-4.27 2.354,0 4.266,1.916 4.266,4.27 0,2.354 -1.912,4.271 -4.266,4.271 -2.354,0 -4.271,-1.917 -4.271,-4.271 z m -1.328,0 c 0,3.088 2.511,5.599 5.599,5.599 3.084,0 5.6,-2.511 5.6,-5.599 0,-3.089 -2.516,-5.604 -5.6,-5.604 -3.088,0 -5.599,2.515 -5.599,5.604 z"
     id="path122" />
  <path
     style="fill:#231f20;fill-opacity:1;fill-rule:nonzero;stroke:none"
     d="m 237.22468,42.947928 c -0.646,-0.272 -0.812,-2.579 -0.522,-2.704 0.287,-0.124 0.267,0.641 0.6,0.516 0.334,-0.126 0.271,-0.626 0.504,-0.64 0.251,-0.022 0.224,0.582 0.516,0.498 0.126,-0.036 0.36,-0.588 0.542,-0.546 0.162,0.042 0.349,0.532 0.48,0.568 0.208,0.057 0.281,-0.558 0.458,-0.52 0.463,0.077 -0.234,2.702 -0.448,2.812 -0.324,0.161 -1.089,0.448 -2.13,0.016"
     id="path123" />
  <path
     style="fill:none;stroke:#231f20;stroke-width:0.565977;stroke-linecap:round;stroke-linejoin:round;stroke-miterlimit:4;stroke-dasharray:none;stroke-opacity:1"
     d="m 237.22468,42.947928 c -0.646,-0.272 -0.812,-2.579 -0.522,-2.704 0.287,-0.124 0.267,0.641 0.6,0.516 0.334,-0.126 0.271,-0.626 0.504,-0.64 0.251,-0.022 0.224,0.582 0.516,0.498 0.126,-0.036 0.36,-0.588 0.542,-0.546 0.162,0.042 0.349,0.532 0.48,0.568 0.208,0.057 0.281,-0.558 0.458,-0.52 0.463,0.077 -0.234,2.702 -0.448,2.812 -0.324,0.161 -1.089,0.448 -2.13,0.016 z"
     id="path124" />
  <path
     style="fill:#231f20;fill-opacity:1;fill-rule:nonzero;stroke:none"
     d="m 15.531479,42.368928 c -1.2547,-0.063 -2.2239,-1.093 -2.1613,-2.307 0.0572,-1.214 1.1,-3.094 2.3546,-3.032 1.2547,0.063 2.2547,2.052 2.1932,3.26 -0.0625,1.215 -1.1308,2.147 -2.3865,2.079"
     id="path125" />
  <path
     style="fill:none;stroke:#231f20;stroke-width:0.237045;stroke-linecap:butt;stroke-linejoin:miter;stroke-miterlimit:4;stroke-dasharray:none;stroke-opacity:1"
     d="m 15.531479,42.368928 c -1.2547,-0.063 -2.2239,-1.093 -2.1613,-2.307 0.0572,-1.214 1.1,-3.094 2.3546,-3.032 1.2547,0.063 2.2547,2.052 2.1932,3.26 -0.0625,1.215 -1.1308,2.147 -2.3865,2.079 z"
     id="path126" />
  <path
     style="fill:#ffffff;fill-opacity:1;fill-rule:nonzero;stroke:none"
     d="m 11.828979,37.035928 c 0,-2.355 1.9172,-4.266 4.2702,-4.266 2.3547,0 4.271,1.911 4.271,4.266 0,2.354 -1.9163,4.27 -4.271,4.27 -2.353,0 -4.2702,-1.916 -4.2702,-4.27 m -1.3334,0 c 0,3.088 2.5156,5.604 5.6036,5.604 3.0896,0 5.599,-2.516 5.599,-5.604 0,-3.088 -2.5094,-5.599 -5.599,-5.599 -3.088,0 -5.6036,2.511 -5.6036,5.599"
     id="path127" />
  <path
     style="fill:none;stroke:#231f20;stroke-width:0.665856;stroke-linecap:butt;stroke-linejoin:miter;stroke-miterlimit:4;stroke-dasharray:none;stroke-opacity:1"
     d="m 11.828979,37.035928 c 0,-2.355 1.9172,-4.266 4.2702,-4.266 2.3547,0 4.271,1.911 4.271,4.266 0,2.354 -1.9163,4.27 -4.271,4.27 -2.353,0 -4.2702,-1.916 -4.2702,-4.27 z m -1.3334,0 c 0,3.088 2.5156,5.604 5.6036,5.604 3.0896,0 5.599,-2.516 5.599,-5.604 0,-3.088 -2.5094,-5.599 -5.599,-5.599 -3.088,0 -5.6036,2.511 -5.6036,5.599 z"
     id="path128" />
  <path
     style="fill:#231f20;fill-opacity:1;fill-rule:nonzero;stroke:#231f20;stroke-width:0.332927;stroke-linecap:round;stroke-linejoin:round;stroke-miterlimit:4;stroke-dasharray:none;stroke-opacity:1"
     d="m 16.719579,41.180928 c 0.6452,0.261 0.8495,2.563 0.5572,2.693 -0.2921,0.135 -0.276,-0.636 -0.6041,-0.505 -0.3333,0.131 -0.2703,0.625 -0.5,0.645 -0.2505,0.027 -0.2344,-0.577 -0.5265,-0.489 -0.1188,0.037 -0.3427,0.589 -0.536,0.547 -0.1615,-0.036 -0.3547,-0.52 -0.4787,-0.552 -0.2145,-0.058 -0.276,0.552 -0.4536,0.526 -0.4583,-0.078 0.1975,-2.708 0.4109,-2.822"
     id="path129" />
</svg>
