<?xml version="1.0" encoding="UTF-8" standalone="no"?>
<!-- Created with Inkscape (http://www.inkscape.org/) -->

<svg
   version="1.1"
   id="svg1"
   width="209.98146"
   height="106.48685"
   viewBox="0 0 209.98145 106.48684"
   sodipodi:docname="cell.svg"
   xmlns:inkscape="http://www.inkscape.org/namespaces/inkscape"
   xmlns:sodipodi="http://sodipodi.sourceforge.net/DTD/sodipodi-0.dtd"
   xmlns="http://www.w3.org/2000/svg"
   xmlns:svg="http://www.w3.org/2000/svg">
  <sodipodi:namedview
     id="namedview1"
     pagecolor="#ffffff"
     bordercolor="#000000"
     borderopacity="0.25"
     inkscape:showpageshadow="2"
     inkscape:pageopacity="0.0"
     inkscape:pagecheckerboard="0"
     inkscape:deskcolor="#d1d1d1">
    <inkscape:page
       x="0"
       y="0"
       inkscape:label="1"
       id="page1"
       width="209.98145"
       height="106.48684"
       margin="0"
       bleed="0" />
  </sodipodi:namedview>
  <defs
     id="defs1" />
  <path
     style="fill:#ffffff;fill-opacity:1;fill-rule:nonzero;stroke:#231f20;stroke-width:0.665856;stroke-linecap:butt;stroke-linejoin:miter;stroke-miterlimit:4;stroke-dasharray:none;stroke-opacity:1"
     d="m 20.560064,0.33793034 0.057,31.67099966 h 1.334 l -0.063,-31.67499966 z"
     id="path132" />
  <path
     style="fill:#ffffff;fill-opacity:1;fill-rule:nonzero;stroke:none"
     d="m 17.022064,36.95193 c 0,-2.353 1.907,-4.271 4.262,-4.276 2.353,-0.005 4.276,1.907 4.281,4.261 0.005,2.354 -1.912,4.271 -4.266,4.276 -2.348,0.006 -4.271,-1.906 -4.277,-4.261 m -1.333,0.005 c 0.011,3.084 2.527,5.595 5.615,5.59 3.089,-0.006 5.595,-2.522 5.589,-5.61 -0.005,-3.094 -2.521,-5.6 -5.609,-5.594 -3.09,0.005 -5.599,2.526 -5.595,5.614"
     id="path133" />
  <path
     style="fill:none;stroke:#231f20;stroke-width:0.665856;stroke-linecap:butt;stroke-linejoin:miter;stroke-miterlimit:4;stroke-dasharray:none;stroke-opacity:1"
     d="m 17.022064,36.95193 c 0,-2.353 1.907,-4.271 4.262,-4.276 2.353,-0.005 4.276,1.907 4.281,4.261 0.005,2.354 -1.912,4.271 -4.266,4.276 -2.348,0.006 -4.271,-1.906 -4.277,-4.261 z m -1.333,0.005 c 0.011,3.084 2.527,5.595 5.615,5.59 3.089,-0.006 5.595,-2.522 5.589,-5.61 -0.005,-3.094 -2.521,-5.6 -5.609,-5.594 -3.09,0.005 -5.599,2.526 -5.595,5.614 z"
     id="path134" />
  <path
     style="fill:#231f20;fill-opacity:1;fill-rule:nonzero;stroke:none"
     d="m 20.044064,42.25993 c -0.407,-0.568 0.667,-2.625 0.978,-2.573 0.319,0.046 -0.109,0.682 0.241,0.75 0.348,0.072 0.557,-0.38 0.765,-0.276 0.224,0.115 -0.11,0.615 0.177,0.698 0.125,0.036 0.61,-0.302 0.751,-0.178 0.114,0.12 0.014,0.631 0.109,0.73 0.146,0.156 0.525,-0.312 0.662,-0.192 0.343,0.306 -1.626,2.172 -1.871,2.145 -0.354,-0.027 -1.162,-0.188 -1.812,-1.104"
     id="path135" />
  <path
     style="fill:none;stroke:#231f20;stroke-width:0.565977;stroke-linecap:round;stroke-linejoin:round;stroke-miterlimit:4;stroke-dasharray:none;stroke-opacity:1"
     d="m 20.044064,42.25993 c -0.407,-0.568 0.667,-2.625 0.978,-2.573 0.319,0.046 -0.109,0.682 0.241,0.75 0.348,0.072 0.557,-0.38 0.765,-0.276 0.224,0.115 -0.11,0.615 0.177,0.698 0.125,0.036 0.61,-0.302 0.751,-0.178 0.114,0.12 0.014,0.631 0.109,0.73 0.146,0.156 0.525,-0.312 0.662,-0.192 0.343,0.306 -1.626,2.172 -1.871,2.145 -0.354,-0.027 -1.162,-0.188 -1.812,-1.104 z"
     id="path136" />
  <path
     style="fill:#ca0369;fill-opacity:1;fill-rule:nonzero;stroke:none"
     d="m 1.9866644,56.19693 c -0.0574,3.131 -0.411,3.798 -0.787,4.636 -2.3641,5.276 0.2656,6.339 3.1151,5.864 3.3433,-0.552 4.5513,-0.677 4.0673,-6.958 -0.136,-1.744 0.219,-8.511 0.219,-8.511 0.459,-2.4 -0.38,-4.989 -1.573,-5.823 -1.255,-0.89 -0.8226,-0.448 -2.1346,-1.057 -1.2454,-0.577 -3.423,-0.359 -4.12559999,0.656 -0.6776,0.975 0.0161,2.491 0.72919999,4.808 0.5573,1.828 0.4896,6.385 0.4896,6.385"
     id="path137" />
  <path
     style="fill:none;stroke:#231f20;stroke-width:0.565977;stroke-linecap:butt;stroke-linejoin:miter;stroke-miterlimit:4;stroke-dasharray:none;stroke-opacity:1"
     d="m 1.9866644,56.19693 c -0.0574,3.131 -0.411,3.798 -0.787,4.636 -2.3641,5.276 0.2656,6.339 3.1151,5.864 3.3433,-0.552 4.5513,-0.677 4.0673,-6.958 -0.136,-1.744 0.219,-8.511 0.219,-8.511 0.459,-2.4 -0.38,-4.989 -1.573,-5.823 -1.255,-0.89 -0.8226,-0.448 -2.1346,-1.057 -1.2454,-0.577 -3.423,-0.359 -4.12559999,0.656 -0.6776,0.975 0.0161,2.491 0.72919999,4.808 0.5573,1.828 0.4896,6.385 0.4896,6.385 z"
     id="path138" />
  <path
     style="fill:#231f20;fill-opacity:1;fill-rule:nonzero;stroke:none"
     d="m 5.9038644,100.60893 c -1.1256,-0.745 -0.912,-1.709 -0.0839,-2.338 0.2401,-0.183 0.2703,-0.6 0.5156,-0.766 0.5989,-0.37 2.2815,0.067 2.2705,1.567 0.005,0.109 0.25,0.885 0.339,1.505 0.172,1.194 -0.068,3.683 -2.1559,5.385 -0.9905,0.803 -1.2812,0.074 -0.9853,-0.379 0.9588,-1.411 0.7614,-1.73 0.8812,-2.192 0.4,-1.574 -0.7812,-2.782 -0.7812,-2.782"
     id="path139" />
  <path
     style="fill:none;stroke:#231f20;stroke-width:0.332927;stroke-linecap:butt;stroke-linejoin:miter;stroke-miterlimit:4;stroke-dasharray:none;stroke-opacity:1"
     d="m 5.9038644,100.60893 c -1.1256,-0.745 -0.912,-1.709 -0.0839,-2.338 0.2401,-0.183 0.2703,-0.6 0.5156,-0.766 0.5989,-0.37 2.2815,0.067 2.2705,1.567 0.005,0.109 0.25,0.885 0.339,1.505 0.172,1.194 -0.068,3.683 -2.1559,5.385 -0.9905,0.803 -1.2812,0.074 -0.9853,-0.379 0.9588,-1.411 0.7614,-1.73 0.8812,-2.192 0.4,-1.574 -0.7812,-2.782 -0.7812,-2.782 z"
     id="path140" />
  <path
     style="fill:#231f20;fill-opacity:1;fill-rule:nonzero;stroke:none"
     d="m 6.3038644,81.87393 c -2.2651,-0.15 -2.724,0.126 -2.848,1.074 -0.0838,0.629 -0.376,1.192 -0.4479,1.577 -0.2297,1.277 -0.0948,3.522 1.9625,9.771 0.4692,1.417 1.1042,3.412 1.3026,4.256 0.312,1.312 2.292,-0.095 2.178,-0.615 -0.376,-1.672 -0.5,-2.854 -0.552,-3.48 -0.033,-0.421 -0.199,-1.161 -0.126,-2.828 0.109,-2.525 0.557,-4.02 0.407,-6.129 -0.069,-0.975 0.5,-1.761 -0.063,-2.688 -0.552,-0.932 -1.8132,-0.938 -1.8132,-0.938"
     id="path141" />
  <path
     style="fill:none;stroke:#231f20;stroke-width:0.565977;stroke-linecap:butt;stroke-linejoin:miter;stroke-miterlimit:4;stroke-dasharray:none;stroke-opacity:1"
     d="m 6.3038644,81.87393 c -2.2651,-0.15 -2.724,0.126 -2.848,1.074 -0.0838,0.629 -0.376,1.192 -0.4479,1.577 -0.2297,1.277 -0.0948,3.522 1.9625,9.771 0.4692,1.417 1.1042,3.412 1.3026,4.256 0.312,1.312 2.292,-0.095 2.178,-0.615 -0.376,-1.672 -0.5,-2.854 -0.552,-3.48 -0.033,-0.421 -0.199,-1.161 -0.126,-2.828 0.109,-2.525 0.557,-4.02 0.407,-6.129 -0.069,-0.975 0.5,-1.761 -0.063,-2.688 -0.552,-0.932 -1.8132,-0.938 -1.8132,-0.938 z"
     id="path142" />
  <path
     style="fill:#ffffff;fill-opacity:1;fill-rule:nonzero;stroke:none"
     d="m 8.1110644,37.94293 c -0.041,-0.246 1.011,-0.71 0.834,-1.204 -0.172,-0.49 -0.958,-0.422 -2.3652,-1.839 l -0.0146,-0.015 c -0.9896,-1.062 -2.2761,-1.584 -3.4906,-1.261 -2.0042,0.532 -3.04159999,3.172 -2.31779999,5.901 0.72979999,2.735 2.94279999,4.511 4.94859999,3.98 1.9166,-0.51 2.9586,-2.958 2.4056,-5.562"
     id="path143" />
  <path
     style="fill:none;stroke:#231f20;stroke-width:0.565977;stroke-linecap:butt;stroke-linejoin:miter;stroke-miterlimit:4;stroke-dasharray:none;stroke-opacity:1"
     d="m 8.1110644,37.94293 c -0.041,-0.246 1.011,-0.71 0.834,-1.204 -0.172,-0.49 -0.958,-0.422 -2.3652,-1.839 l -0.0146,-0.015 c -0.9896,-1.062 -2.2761,-1.584 -3.4906,-1.261 -2.0042,0.532 -3.04159999,3.172 -2.31779999,5.901 0.72979999,2.735 2.94279999,4.511 4.94859999,3.98 1.9166,-0.51 2.9586,-2.958 2.4056,-5.562 z"
     id="path144" />
  <path
     style="fill:#231f20;fill-opacity:1;fill-rule:nonzero;stroke:none"
     d="m 5.5756644,84.23293 c 3.9734,0.6 2.7084,-3.276 2.7804,-3.754 0.772,-4.954 0.698,-5.328 1.026,-9.136 0.47,-5.504 -0.057,-9.348 -3.1766,-10.558 -2.1204,-0.822 -3.6975,-0.369 -4.5882,0.6 -0.99479999,1.067 -1.83899999,4.13 0.1095,6.26 l 0.312,1.692 c 0.0728,1.158 0.1197,1.73 0.0984,2.308 -0.0093,1.006 0.0213,2.074 0.0896,4.031 0.1088,3.469 1.3796,7.105 1.3796,7.105 0.0683,1.234 1.9693,1.452 1.9693,1.452"
     id="path145" />
  <path
     style="fill:none;stroke:#231f20;stroke-width:0.565977;stroke-linecap:butt;stroke-linejoin:miter;stroke-miterlimit:4;stroke-dasharray:none;stroke-opacity:1"
     d="m 5.5756644,84.23293 c 3.9734,0.6 2.7084,-3.276 2.7804,-3.754 0.772,-4.954 0.698,-5.328 1.026,-9.136 0.47,-5.504 -0.057,-9.348 -3.1766,-10.558 -2.1204,-0.822 -3.6975,-0.369 -4.5882,0.6 -0.99479999,1.067 -1.83899999,4.13 0.1095,6.26 l 0.312,1.692 c 0.0728,1.158 0.1197,1.73 0.0984,2.308 -0.0093,1.006 0.0213,2.074 0.0896,4.031 0.1088,3.469 1.3796,7.105 1.3796,7.105 0.0683,1.234 1.9693,1.452 1.9693,1.452 z"
     id="path146" />
  <path
     style="fill:#231f20;fill-opacity:1;fill-rule:nonzero;stroke:none"
     d="m 21.492064,43.01493 c -0.126,0.63 -1.662,1.818 -2.464,3.218 -0.541,0.939 -2.755,2.558 -3.224,3.532 -0.438,0.896 -0.714,1.271 -1.823,0.948 -0.661,-0.182 -1.801,-0.969 -1.682,-1.458 0.271,-1.162 0.823,-1.927 1.624,-2.64 0.907,-0.808 3.564,-2.787 4.09,-3.11 1.302,-0.786 1.557,-1.474 1.886,-1.72 0.609,-0.457 0.931,-0.337 1.312,0 0.718,0.631 0.281,1.23 0.281,1.23"
     id="path147" />
  <path
     style="fill:none;stroke:#231f20;stroke-width:0.565977;stroke-linecap:butt;stroke-linejoin:miter;stroke-miterlimit:4;stroke-dasharray:none;stroke-opacity:1"
     d="m 21.492064,43.01493 c -0.126,0.63 -1.662,1.818 -2.464,3.218 -0.541,0.939 -2.755,2.558 -3.224,3.532 -0.438,0.896 -0.714,1.271 -1.823,0.948 -0.661,-0.182 -1.801,-0.969 -1.682,-1.458 0.271,-1.162 0.823,-1.927 1.624,-2.64 0.907,-0.808 3.564,-2.787 4.09,-3.11 1.302,-0.786 1.557,-1.474 1.886,-1.72 0.609,-0.457 0.931,-0.337 1.312,0 0.718,0.631 0.281,1.23 0.281,1.23 z"
     id="path148" />
  <path
     style="fill:#231f20;fill-opacity:1;fill-rule:nonzero;stroke:none"
     d="m 15.794064,49.87493 c -0.255,1.265 -2.146,0.51 -2.666,0.385 -0.532,-0.12 -2.079,-0.308 -3.3029996,-0.287 -1.229,0.011 -2.76,-0.494 -5.0838,-0.478 -1.2229,0.01 -2.4213,-0.751 -2.3588,-2.527 0.0624,-1.755 1.0682,-2.38 2.552,-2.172 1.4787,0.208 2.7816,1.032 4.2596,1.344 1.4749996,0.323 3.0109996,0.505 4.2289996,0.593 1.376,0.1 2.017,0.662 2.173,1.115 0.391,1.125 0.198,2.027 0.198,2.027"
     id="path149" />
  <path
     style="fill:none;stroke:#231f20;stroke-width:0.565977;stroke-linecap:butt;stroke-linejoin:miter;stroke-miterlimit:4;stroke-dasharray:none;stroke-opacity:1"
     d="m 15.794064,49.87493 c -0.255,1.265 -2.146,0.51 -2.666,0.385 -0.532,-0.12 -2.079,-0.308 -3.3029996,-0.287 -1.229,0.011 -2.76,-0.494 -5.0838,-0.478 -1.2229,0.01 -2.4213,-0.751 -2.3588,-2.527 0.0624,-1.755 1.0682,-2.38 2.552,-2.172 1.4787,0.208 2.7816,1.032 4.2596,1.344 1.4749996,0.323 3.0109996,0.505 4.2289996,0.593 1.376,0.1 2.017,0.662 2.173,1.115 0.391,1.125 0.198,2.027 0.198,2.027 z"
     id="path150" />
  <path
     style="fill:#ca0369;fill-opacity:1;fill-rule:nonzero;stroke:none"
     d="m 6.0131644,60.61893 c -2.152,-0.734 -3.7041,-0.228 -4.5625,0.766 -0.95359999,1.11 -1.68279999,4.203 0.3438,6.26 l 7.8116,0.162 c -0.15,-3.755 -1.088,-6.323 -3.5929,-7.188"
     id="path151" />
  <path
     style="fill:none;stroke:#231f20;stroke-width:0.565977;stroke-linecap:butt;stroke-linejoin:miter;stroke-miterlimit:4;stroke-dasharray:none;stroke-opacity:1"
     d="m 6.0131644,60.61893 c -2.152,-0.734 -3.7041,-0.228 -4.5625,0.766 -0.95359999,1.11 -1.68279999,4.203 0.3438,6.26 l 7.8116,0.162 c -0.15,-3.755 -1.088,-6.323 -3.5929,-7.188 z"
     id="path152" />
  <path
     style="fill:#ffffff;fill-opacity:1;fill-rule:nonzero;stroke:#231f20;stroke-width:0.665856;stroke-linecap:butt;stroke-linejoin:miter;stroke-miterlimit:4;stroke-dasharray:none;stroke-opacity:1"
     d="m 77.628064,0.33793034 0.057,31.67099966 h 1.333 l -0.062,-31.67499966 z"
     id="path153" />
  <path
     style="fill:#ffffff;fill-opacity:1;fill-rule:nonzero;stroke:none"
     d="m 74.090064,36.95193 c 0,-2.353 1.907,-4.271 4.262,-4.276 2.353,-0.005 4.276,1.907 4.28,4.261 0.005,2.354 -1.911,4.271 -4.266,4.276 -2.348,0.006 -4.27,-1.906 -4.276,-4.261 m -1.333,0.005 c 0.011,3.084 2.527,5.595 5.615,5.59 3.089,-0.006 5.593,-2.522 5.589,-5.61 -0.005,-3.094 -2.521,-5.6 -5.615,-5.594 -3.084,0.005 -5.594,2.526 -5.589,5.614"
     id="path154" />
  <path
     style="fill:none;stroke:#231f20;stroke-width:0.665856;stroke-linecap:butt;stroke-linejoin:miter;stroke-miterlimit:4;stroke-dasharray:none;stroke-opacity:1"
     d="m 74.090064,36.95193 c 0,-2.353 1.907,-4.271 4.262,-4.276 2.353,-0.005 4.276,1.907 4.28,4.261 0.005,2.354 -1.911,4.271 -4.266,4.276 -2.348,0.006 -4.27,-1.906 -4.276,-4.261 z m -1.333,0.005 c 0.011,3.084 2.527,5.595 5.615,5.59 3.089,-0.006 5.593,-2.522 5.589,-5.61 -0.005,-3.094 -2.521,-5.6 -5.615,-5.594 -3.084,0.005 -5.594,2.526 -5.589,5.614 z"
     id="path155" />
  <path
     style="fill:#231f20;fill-opacity:1;fill-rule:nonzero;stroke:none"
     d="m 77.112064,42.25993 c -0.407,-0.568 0.666,-2.625 0.978,-2.573 0.318,0.046 -0.109,0.682 0.24,0.75 0.35,0.072 0.558,-0.38 0.766,-0.276 0.224,0.115 -0.11,0.615 0.177,0.698 0.125,0.036 0.609,-0.302 0.749,-0.178 0.115,0.12 0.016,0.631 0.11,0.73 0.146,0.156 0.526,-0.312 0.662,-0.192 0.343,0.306 -1.625,2.172 -1.87,2.145 -0.354,-0.027 -1.162,-0.188 -1.812,-1.104"
     id="path156" />
  <path
     style="fill:none;stroke:#231f20;stroke-width:0.565977;stroke-linecap:round;stroke-linejoin:round;stroke-miterlimit:4;stroke-dasharray:none;stroke-opacity:1"
     d="m 77.112064,42.25993 c -0.407,-0.568 0.666,-2.625 0.978,-2.573 0.318,0.046 -0.109,0.682 0.24,0.75 0.35,0.072 0.558,-0.38 0.766,-0.276 0.224,0.115 -0.11,0.615 0.177,0.698 0.125,0.036 0.609,-0.302 0.749,-0.178 0.115,0.12 0.016,0.631 0.11,0.73 0.146,0.156 0.526,-0.312 0.662,-0.192 0.343,0.306 -1.625,2.172 -1.87,2.145 -0.354,-0.027 -1.162,-0.188 -1.812,-1.104 z"
     id="path157" />
  <path
     style="fill:#ca0369;fill-opacity:1;fill-rule:nonzero;stroke:none"
     d="m 66.101064,46.42693 c -0.109,3.13 -0.473,3.792 -0.869,4.625 -2.454,5.233 0.161,6.339 3.014,5.916 3.36,-0.495 4.568,-0.604 4.188,-6.891 -0.104,-1.744 0.364,-8.505 0.364,-8.505 0.496,-2.391 -0.296,-4.995 -1.473,-5.848 -1.24,-0.912 -0.812,-0.459 -2.12,-1.089 -1.235,-0.604 -3.416,-0.422 -4.135,0.584 -0.693,0.962 -0.026,2.489 0.646,4.822 0.53,1.834 0.385,6.386 0.385,6.386"
     id="path158" />
  <path
     style="fill:none;stroke:#231f20;stroke-width:0.565977;stroke-linecap:butt;stroke-linejoin:miter;stroke-miterlimit:4;stroke-dasharray:none;stroke-opacity:1"
     d="m 66.101064,46.42693 c -0.109,3.13 -0.473,3.792 -0.869,4.625 -2.454,5.233 0.161,6.339 3.014,5.916 3.36,-0.495 4.568,-0.604 4.188,-6.891 -0.104,-1.744 0.364,-8.505 0.364,-8.505 0.496,-2.391 -0.296,-4.995 -1.473,-5.848 -1.24,-0.912 -0.812,-0.459 -2.12,-1.089 -1.235,-0.604 -3.416,-0.422 -4.135,0.584 -0.693,0.962 -0.026,2.489 0.646,4.822 0.53,1.834 0.385,6.386 0.385,6.386 z"
     id="path159" />
  <path
     style="fill:#231f20;fill-opacity:1;fill-rule:nonzero;stroke:none"
     d="m 69.268064,90.90493 c -1.115,-0.765 -0.88,-1.724 -0.042,-2.344 0.244,-0.181 0.276,-0.593 0.526,-0.754 0.604,-0.364 2.281,0.103 2.245,1.603 0.005,0.11 0.235,0.886 0.312,1.511 0.152,1.193 -0.129,3.677 -2.244,5.344 -1.005,0.792 -1.287,0.052 -0.98,-0.391 0.985,-1.401 0.792,-1.718 0.917,-2.177 0.427,-1.568 -0.734,-2.792 -0.734,-2.792"
     id="path160" />
  <path
     style="fill:none;stroke:#231f20;stroke-width:0.332927;stroke-linecap:butt;stroke-linejoin:miter;stroke-miterlimit:4;stroke-dasharray:none;stroke-opacity:1"
     d="m 69.268064,90.90493 c -1.115,-0.765 -0.88,-1.724 -0.042,-2.344 0.244,-0.181 0.276,-0.593 0.526,-0.754 0.604,-0.364 2.281,0.103 2.245,1.603 0.005,0.11 0.235,0.886 0.312,1.511 0.152,1.193 -0.129,3.677 -2.244,5.344 -1.005,0.792 -1.287,0.052 -0.98,-0.391 0.985,-1.401 0.792,-1.718 0.917,-2.177 0.427,-1.568 -0.734,-2.792 -0.734,-2.792 z"
     id="path161" />
  <path
     style="fill:#231f20;fill-opacity:1;fill-rule:nonzero;stroke:none"
     d="m 69.981064,72.17193 c -2.26,-0.188 -2.724,0.083 -2.859,1.031 -0.104,0.63 -0.401,1.182 -0.48,1.568 -0.254,1.27 -0.15,3.514 1.798,9.801 0.442,1.428 1.046,3.432 1.229,4.276 0.292,1.319 2.292,-0.057 2.187,-0.577 -0.343,-1.678 -0.448,-2.861 -0.49,-3.486 -0.025,-0.426 -0.181,-1.166 -0.077,-2.833 0.156,-2.52 0.624,-4.009 0.509,-6.119 -0.052,-0.98 0.532,-1.756 -0.014,-2.688 -0.542,-0.942 -1.803,-0.973 -1.803,-0.973"
     id="path162" />
  <path
     style="fill:none;stroke:#231f20;stroke-width:0.565977;stroke-linecap:butt;stroke-linejoin:miter;stroke-miterlimit:4;stroke-dasharray:none;stroke-opacity:1"
     d="m 69.981064,72.17193 c -2.26,-0.188 -2.724,0.083 -2.859,1.031 -0.104,0.63 -0.401,1.182 -0.48,1.568 -0.254,1.27 -0.15,3.514 1.798,9.801 0.442,1.428 1.046,3.432 1.229,4.276 0.292,1.319 2.292,-0.057 2.187,-0.577 -0.343,-1.678 -0.448,-2.861 -0.49,-3.486 -0.025,-0.426 -0.181,-1.166 -0.077,-2.833 0.156,-2.52 0.624,-4.009 0.509,-6.119 -0.052,-0.98 0.532,-1.756 -0.014,-2.688 -0.542,-0.942 -1.803,-0.973 -1.803,-0.973 z"
     id="path163" />
  <path
     style="fill:#ffffff;fill-opacity:1;fill-rule:nonzero;stroke:none"
     d="m 72.528064,28.27593 c -0.031,-0.24 1.026,-0.688 0.86,-1.183 -0.167,-0.494 -0.954,-0.442 -2.334,-1.88 l -0.021,-0.016 c -0.968,-1.078 -2.244,-1.62 -3.463,-1.317 -2.016,0.495 -3.1,3.12 -2.417,5.864 0.683,2.74 2.865,4.557 4.88,4.057 1.928,-0.478 3.011,-2.906 2.495,-5.525"
     id="path164" />
  <path
     style="fill:none;stroke:#231f20;stroke-width:0.565977;stroke-linecap:butt;stroke-linejoin:miter;stroke-miterlimit:4;stroke-dasharray:none;stroke-opacity:1"
     d="m 72.528064,28.27593 c -0.031,-0.24 1.026,-0.688 0.86,-1.183 -0.167,-0.494 -0.954,-0.442 -2.334,-1.88 l -0.021,-0.016 c -0.968,-1.078 -2.244,-1.62 -3.463,-1.317 -2.016,0.495 -3.1,3.12 -2.417,5.864 0.683,2.74 2.865,4.557 4.88,4.057 1.928,-0.478 3.011,-2.906 2.495,-5.525 z"
     id="path165" />
  <path
     style="fill:#231f20;fill-opacity:1;fill-rule:nonzero;stroke:none"
     d="m 69.216064,74.51993 c 3.958,0.667 2.765,-3.229 2.844,-3.708 0.853,-4.937 0.786,-5.312 1.182,-9.115 0.556,-5.5 0.099,-9.349 -3,-10.609 -2.11,-0.86 -3.693,-0.432 -4.6,0.521 -1.01,1.047 -1.905,4.099 0.006,6.266 l 0.286,1.692 c 0.047,1.157 0.084,1.734 0.058,2.313 -0.031,1 -0.011,2.072 0.021,4.031 0.052,3.469 1.255,7.125 1.255,7.125 0.052,1.24 1.948,1.484 1.948,1.484"
     id="path166" />
  <path
     style="fill:none;stroke:#231f20;stroke-width:0.565977;stroke-linecap:butt;stroke-linejoin:miter;stroke-miterlimit:4;stroke-dasharray:none;stroke-opacity:1"
     d="m 69.216064,74.51993 c 3.958,0.667 2.765,-3.229 2.844,-3.708 0.853,-4.937 0.786,-5.312 1.182,-9.115 0.556,-5.5 0.099,-9.349 -3,-10.609 -2.11,-0.86 -3.693,-0.432 -4.6,0.521 -1.01,1.047 -1.905,4.099 0.006,6.266 l 0.286,1.692 c 0.047,1.157 0.084,1.734 0.058,2.313 -0.031,1 -0.011,2.072 0.021,4.031 0.052,3.469 1.255,7.125 1.255,7.125 0.052,1.24 1.948,1.484 1.948,1.484 z"
     id="path167" />
  <path
     style="fill:#231f20;fill-opacity:1;fill-rule:nonzero;stroke:none"
     d="m 77.940064,43.54693 c -0.37,0.53 -2.251,1.005 -3.542,1.968 -0.876,0.646 -3.552,1.245 -4.376,1.953 -0.749,0.647 -1.156,0.88 -2.041,0.147 -0.536,-0.434 -1.271,-1.611 -0.963,-2.016 0.714,-0.954 1.52,-1.432 2.542,-1.766 1.156,-0.385 4.38,-1.141 4.989,-1.224 1.505,-0.198 2.021,-0.729 2.416,-0.824 0.74,-0.176 0.991,0.063 1.204,0.522 0.411,0.869 -0.229,1.24 -0.229,1.24"
     id="path168" />
  <path
     style="fill:none;stroke:#231f20;stroke-width:0.565977;stroke-linecap:butt;stroke-linejoin:miter;stroke-miterlimit:4;stroke-dasharray:none;stroke-opacity:1"
     d="m 77.940064,43.54693 c -0.37,0.53 -2.251,1.005 -3.542,1.968 -0.876,0.646 -3.552,1.245 -4.376,1.953 -0.749,0.647 -1.156,0.88 -2.041,0.147 -0.536,-0.434 -1.271,-1.611 -0.963,-2.016 0.714,-0.954 1.52,-1.432 2.542,-1.766 1.156,-0.385 4.38,-1.141 4.989,-1.224 1.505,-0.198 2.021,-0.729 2.416,-0.824 0.74,-0.176 0.991,0.063 1.204,0.522 0.411,0.869 -0.229,1.24 -0.229,1.24 z"
     id="path169" />
  <path
     style="fill:#231f20;fill-opacity:1;fill-rule:nonzero;stroke:none"
     d="m 66.945064,48.58293 c -1.281,-0.151 -0.688,-2.099 -0.609,-2.631 0.077,-0.536 0.125,-2.093 0.005,-3.312 -0.115,-1.219 0.255,-2.792 0.041,-5.104 -0.114,-1.219 0.536,-2.479 2.312,-2.568 1.756,-0.088 2.464,0.86 2.386,2.355 -0.083,1.494 -0.791,2.864 -0.979,4.364 -0.188,1.494 -0.245,3.041 -0.224,4.261 0.016,1.38 -0.489,2.067 -0.921,2.265 -1.095,0.479 -2.011,0.37 -2.011,0.37"
     id="path170" />
  <path
     style="fill:none;stroke:#231f20;stroke-width:0.565977;stroke-linecap:butt;stroke-linejoin:miter;stroke-miterlimit:4;stroke-dasharray:none;stroke-opacity:1"
     d="m 66.945064,48.58293 c -1.281,-0.151 -0.688,-2.099 -0.609,-2.631 0.077,-0.536 0.125,-2.093 0.005,-3.312 -0.115,-1.219 0.255,-2.792 0.041,-5.104 -0.114,-1.219 0.536,-2.479 2.312,-2.568 1.756,-0.088 2.464,0.86 2.386,2.355 -0.083,1.494 -0.791,2.864 -0.979,4.364 -0.188,1.494 -0.245,3.041 -0.224,4.261 0.016,1.38 -0.489,2.067 -0.921,2.265 -1.095,0.479 -2.011,0.37 -2.011,0.37 z"
     id="path171" />
  <path
     style="fill:#ca0369;fill-opacity:1;fill-rule:nonzero;stroke:none"
     d="m 70.054064,50.92093 c -2.141,-0.776 -3.702,-0.297 -4.578,0.688 -0.968,1.094 -1.75,4.172 0.24,6.266 l 7.806,0.292 c -0.088,-3.756 -0.984,-6.339 -3.468,-7.246"
     id="path172" />
  <path
     style="fill:none;stroke:#231f20;stroke-width:0.565977;stroke-linecap:butt;stroke-linejoin:miter;stroke-miterlimit:4;stroke-dasharray:none;stroke-opacity:1"
     d="m 70.054064,50.92093 c -2.141,-0.776 -3.702,-0.297 -4.578,0.688 -0.968,1.094 -1.75,4.172 0.24,6.266 l 7.806,0.292 c -0.088,-3.756 -0.984,-6.339 -3.468,-7.246 z"
     id="path173" />
  <path
     style="fill:#ffffff;fill-opacity:1;fill-rule:nonzero;stroke:#231f20;stroke-width:0.665856;stroke-linecap:butt;stroke-linejoin:miter;stroke-miterlimit:4;stroke-dasharray:none;stroke-opacity:1"
     d="m 126.81906,0.33793034 0.058,31.67099966 h 1.333 l -0.063,-31.67499966 z"
     id="path174" />
  <path
     style="fill:#ffffff;fill-opacity:1;fill-rule:nonzero;stroke:none"
     d="m 123.28306,36.95193 c 0,-2.353 1.906,-4.271 4.26,-4.276 2.355,-0.005 4.276,1.907 4.282,4.261 0.005,2.354 -1.912,4.271 -4.266,4.276 -2.349,0.006 -4.27,-1.906 -4.276,-4.261 m -1.328,0.005 c 0.006,3.084 2.52,5.595 5.61,5.59 3.088,-0.006 5.598,-2.522 5.588,-5.61 -0.006,-3.094 -2.522,-5.6 -5.61,-5.594 -3.088,0.005 -5.593,2.526 -5.588,5.614"
     id="path175" />
  <path
     style="fill:none;stroke:#231f20;stroke-width:0.665856;stroke-linecap:butt;stroke-linejoin:miter;stroke-miterlimit:4;stroke-dasharray:none;stroke-opacity:1"
     d="m 123.28306,36.95193 c 0,-2.353 1.906,-4.271 4.26,-4.276 2.355,-0.005 4.276,1.907 4.282,4.261 0.005,2.354 -1.912,4.271 -4.266,4.276 -2.349,0.006 -4.27,-1.906 -4.276,-4.261 z m -1.328,0.005 c 0.006,3.084 2.52,5.595 5.61,5.59 3.088,-0.006 5.598,-2.522 5.588,-5.61 -0.006,-3.094 -2.522,-5.6 -5.61,-5.594 -3.088,0.005 -5.593,2.526 -5.588,5.614 z"
     id="path176" />
  <path
     style="fill:#231f20;fill-opacity:1;fill-rule:nonzero;stroke:none"
     d="m 126.30306,42.25993 c -0.405,-0.568 0.667,-2.625 0.986,-2.573 0.312,0.046 -0.115,0.682 0.233,0.75 0.355,0.072 0.557,-0.38 0.767,-0.276 0.224,0.115 -0.11,0.615 0.176,0.698 0.125,0.036 0.609,-0.302 0.75,-0.178 0.115,0.12 0.022,0.631 0.11,0.73 0.145,0.156 0.526,-0.312 0.666,-0.192 0.344,0.306 -1.63,2.172 -1.874,2.145 -0.35,-0.027 -1.162,-0.188 -1.814,-1.104"
     id="path177" />
  <path
     style="fill:none;stroke:#231f20;stroke-width:0.565977;stroke-linecap:round;stroke-linejoin:round;stroke-miterlimit:4;stroke-dasharray:none;stroke-opacity:1"
     d="m 126.30306,42.25993 c -0.405,-0.568 0.667,-2.625 0.986,-2.573 0.312,0.046 -0.115,0.682 0.233,0.75 0.355,0.072 0.557,-0.38 0.767,-0.276 0.224,0.115 -0.11,0.615 0.176,0.698 0.125,0.036 0.609,-0.302 0.75,-0.178 0.115,0.12 0.022,0.631 0.11,0.73 0.145,0.156 0.526,-0.312 0.666,-0.192 0.344,0.306 -1.63,2.172 -1.874,2.145 -0.35,-0.027 -1.162,-0.188 -1.814,-1.104 z"
     id="path178" />
  <path
     style="fill:#ca0369;fill-opacity:1;fill-rule:nonzero;stroke:none"
     d="m 129.29406,44.68693 c -2.876,1.229 -3.631,1.182 -4.553,1.182 -5.776,0.006 -5.667,2.844 -4.067,5.246 1.875,2.828 2.489,3.874 8.015,0.858 1.537,-0.844 7.849,-3.292 7.849,-3.292 2.38,-0.572 4.396,-2.4 4.667,-3.828 0.297,-1.51 0.068,-0.932 0.084,-2.38 0.02,-1.374 -1.074,-3.27 -2.287,-3.494 -1.167,-0.219 -2.265,1.036 -4.089,2.636 -1.438,1.265 -5.619,3.072 -5.619,3.072"
     id="path179" />
  <path
     style="fill:none;stroke:#231f20;stroke-width:0.565977;stroke-linecap:butt;stroke-linejoin:miter;stroke-miterlimit:4;stroke-dasharray:none;stroke-opacity:1"
     d="m 129.29406,44.68693 c -2.876,1.229 -3.631,1.182 -4.553,1.182 -5.776,0.006 -5.667,2.844 -4.067,5.246 1.875,2.828 2.489,3.874 8.015,0.858 1.537,-0.844 7.849,-3.292 7.849,-3.292 2.38,-0.572 4.396,-2.4 4.667,-3.828 0.297,-1.51 0.068,-0.932 0.084,-2.38 0.02,-1.374 -1.074,-3.27 -2.287,-3.494 -1.167,-0.219 -2.265,1.036 -4.089,2.636 -1.438,1.265 -5.619,3.072 -5.619,3.072 z"
     id="path180" />
  <path
     style="fill:#231f20;fill-opacity:1;fill-rule:nonzero;stroke:none"
     d="m 90.398064,66.48393 c 0.219,-1.333 1.187,-1.532 2.104,-1.032 0.266,0.141 0.656,-0.009 0.906,0.152 0.584,0.396 0.881,2.109 -0.495,2.719 -0.093,0.046 -0.703,0.582 -1.233,0.916 -1.022,0.652 -3.382,1.448 -5.792,0.25 -1.147,-0.578 -0.594,-1.146 -0.063,-1.052 1.688,0.296 1.891,-0.016 2.36,-0.1 1.604,-0.28 2.213,-1.853 2.213,-1.853"
     id="path181" />
  <path
     style="fill:none;stroke:#231f20;stroke-width:0.332927;stroke-linecap:butt;stroke-linejoin:miter;stroke-miterlimit:4;stroke-dasharray:none;stroke-opacity:1"
     d="m 90.398064,66.48393 c 0.219,-1.333 1.187,-1.532 2.104,-1.032 0.266,0.141 0.656,-0.009 0.906,0.152 0.584,0.396 0.881,2.109 -0.495,2.719 -0.093,0.046 -0.703,0.582 -1.233,0.916 -1.022,0.652 -3.382,1.448 -5.792,0.25 -1.147,-0.578 -0.594,-1.146 -0.063,-1.052 1.688,0.296 1.891,-0.016 2.36,-0.1 1.604,-0.28 2.213,-1.853 2.213,-1.853 z"
     id="path182" />
  <path
     style="fill:#231f20;fill-opacity:1;fill-rule:nonzero;stroke:none"
     d="m 107.65306,59.15593 c -0.792,-2.125 -1.235,-2.432 -2.145,-2.152 -0.62,0.177 -1.246,0.141 -1.626,0.235 -1.26,0.313 -3.245,1.365 -8.103996,5.802 -1.104,1.011 -2.661,2.407 -3.349,2.932 -1.068,0.828 1.032,2.052 1.453,1.735 1.375,-1.027 2.402,-1.625 2.948,-1.927 0.375,-0.209 0.979,-0.662 2.531,-1.276 2.348996,-0.938 3.895996,-1.146 5.755996,-2.146 0.859,-0.464 1.812,-0.266 2.426,-1.162 0.62,-0.885 0.11,-2.041 0.11,-2.041"
     id="path183" />
  <path
     style="fill:none;stroke:#231f20;stroke-width:0.565977;stroke-linecap:butt;stroke-linejoin:miter;stroke-miterlimit:4;stroke-dasharray:none;stroke-opacity:1"
     d="m 107.65306,59.15593 c -0.792,-2.125 -1.235,-2.432 -2.145,-2.152 -0.62,0.177 -1.246,0.141 -1.626,0.235 -1.26,0.313 -3.245,1.365 -8.103996,5.802 -1.104,1.011 -2.661,2.407 -3.349,2.932 -1.068,0.828 1.032,2.052 1.453,1.735 1.375,-1.027 2.402,-1.625 2.948,-1.927 0.375,-0.209 0.979,-0.662 2.531,-1.276 2.348996,-0.938 3.895996,-1.146 5.755996,-2.146 0.859,-0.464 1.812,-0.266 2.426,-1.162 0.62,-0.885 0.11,-2.041 0.11,-2.041 z"
     id="path184" />
  <path
     style="fill:#ffffff;fill-opacity:1;fill-rule:nonzero;stroke:none"
     d="m 148.45506,42.77593 c 0.208,-0.136 1.063,0.635 1.438,0.271 0.38,-0.366 -0.006,-1.052 0.708,-2.912 l 0.005,-0.026 c 0.568,-1.333 0.516,-2.724 -0.281,-3.698 -1.307,-1.61 -4.14,-1.468 -6.334,0.313 -2.193,1.785 -2.906,4.531 -1.598,6.14 1.254,1.541 3.916,1.489 6.062,-0.088"
     id="path185" />
  <path
     style="fill:none;stroke:#231f20;stroke-width:0.565977;stroke-linecap:butt;stroke-linejoin:miter;stroke-miterlimit:4;stroke-dasharray:none;stroke-opacity:1"
     d="m 148.45506,42.77593 c 0.208,-0.136 1.063,0.635 1.438,0.271 0.38,-0.366 -0.006,-1.052 0.708,-2.912 l 0.005,-0.026 c 0.568,-1.333 0.516,-2.724 -0.281,-3.698 -1.307,-1.61 -4.14,-1.468 -6.334,0.313 -2.193,1.785 -2.906,4.531 -1.598,6.14 1.254,1.541 3.916,1.489 6.062,-0.088 z"
     id="path186" />
  <path
     style="fill:#231f20;fill-opacity:1;fill-rule:nonzero;stroke:none"
     d="m 105.20506,59.46293 c 1.079,3.865 4.098,1.125 4.562,0.994 4.834,-1.333 5.146,-1.552 8.751,-2.812 5.213,-1.833 8.5,-3.89 8.323,-7.234 -0.12,-2.271 -1.178,-3.52 -2.428,-3.938 -1.38,-0.469 -4.52,0.027 -5.667,2.678 l -1.411,0.973 c -1.026,0.543 -1.532,0.819 -2.068,1.043 -0.916,0.394 -1.88,0.869 -3.636,1.728 -3.118,1.526 -5.915,4.172 -5.915,4.172 -1.099,0.578 -0.511,2.396 -0.511,2.396"
     id="path187" />
  <path
     style="fill:none;stroke:#231f20;stroke-width:0.565977;stroke-linecap:butt;stroke-linejoin:miter;stroke-miterlimit:4;stroke-dasharray:none;stroke-opacity:1"
     d="m 105.20506,59.46293 c 1.079,3.865 4.098,1.125 4.562,0.994 4.834,-1.333 5.146,-1.552 8.751,-2.812 5.213,-1.833 8.5,-3.89 8.323,-7.234 -0.12,-2.271 -1.178,-3.52 -2.428,-3.938 -1.38,-0.469 -4.52,0.027 -5.667,2.678 l -1.411,0.973 c -1.026,0.543 -1.532,0.819 -2.068,1.043 -0.916,0.394 -1.88,0.869 -3.636,1.728 -3.118,1.526 -5.915,4.172 -5.915,4.172 -1.099,0.578 -0.511,2.396 -0.511,2.396 z"
     id="path188" />
  <path
     style="fill:#231f20;fill-opacity:1;fill-rule:nonzero;stroke:none"
     d="m 127.18506,40.78093 c 0.104,-0.636 1.604,-1.87 2.353,-3.297 0.516,-0.959 2.677,-2.641 3.12,-3.636 0.401,-0.905 0.667,-1.287 1.781,-1.005 0.672,0.161 1.839,0.912 1.735,1.412 -0.235,1.166 -0.767,1.948 -1.543,2.682 -0.88,0.844 -3.473,2.906 -3.984,3.239 -1.276,0.828 -1.51,1.527 -1.833,1.781 -0.593,0.475 -0.921,0.366 -1.312,0.043 -0.74,-0.605 -0.317,-1.219 -0.317,-1.219"
     id="path189" />
  <path
     style="fill:none;stroke:#231f20;stroke-width:0.565977;stroke-linecap:butt;stroke-linejoin:miter;stroke-miterlimit:4;stroke-dasharray:none;stroke-opacity:1"
     d="m 127.18506,40.78093 c 0.104,-0.636 1.604,-1.87 2.353,-3.297 0.516,-0.959 2.677,-2.641 3.12,-3.636 0.401,-0.905 0.667,-1.287 1.781,-1.005 0.672,0.161 1.839,0.912 1.735,1.412 -0.235,1.166 -0.767,1.948 -1.543,2.682 -0.88,0.844 -3.473,2.906 -3.984,3.239 -1.276,0.828 -1.51,1.527 -1.833,1.781 -0.593,0.475 -0.921,0.366 -1.312,0.043 -0.74,-0.605 -0.317,-1.219 -0.317,-1.219 z"
     id="path190" />
  <path
     style="fill:#231f20;fill-opacity:1;fill-rule:nonzero;stroke:none"
     d="m 134.96106,31.52493 c 1.224,-0.416 1.52,1.604 1.681,2.115 0.156,0.521 0.781,1.948 1.407,2.995 0.63,1.057 0.969,2.636 2.15,4.63 0.626,1.058 0.574,2.474 -0.994,3.318 -1.547,0.828 -2.594,0.27 -3.162,-1.115 -0.562,-1.385 -0.51,-2.927 -0.978,-4.359 -0.47,-1.433 -1.084,-2.854 -1.626,-3.948 -0.604,-1.24 -0.442,-2.078 -0.13,-2.442 0.781,-0.902 1.652,-1.194 1.652,-1.194"
     id="path191" />
  <path
     style="fill:none;stroke:#231f20;stroke-width:0.565977;stroke-linecap:butt;stroke-linejoin:miter;stroke-miterlimit:4;stroke-dasharray:none;stroke-opacity:1"
     d="m 134.96106,31.52493 c 1.224,-0.416 1.52,1.604 1.681,2.115 0.156,0.521 0.781,1.948 1.407,2.995 0.63,1.057 0.969,2.636 2.15,4.63 0.626,1.058 0.574,2.474 -0.994,3.318 -1.547,0.828 -2.594,0.27 -3.162,-1.115 -0.562,-1.385 -0.51,-2.927 -0.978,-4.359 -0.47,-1.433 -1.084,-2.854 -1.626,-3.948 -0.604,-1.24 -0.442,-2.078 -0.13,-2.442 0.781,-0.902 1.652,-1.194 1.652,-1.194 z"
     id="path192" />
  <path
     style="fill:#ca0369;fill-opacity:1;fill-rule:nonzero;stroke:none"
     d="m 124.34106,46.32293 c -1.402,-0.412 -4.522,0.192 -5.563,2.885 l 3.052,7.192 c 3.364,-1.681 5.323,-3.593 5.083,-6.228 -0.208,-2.267 -1.312,-3.48 -2.572,-3.849"
     id="path193" />
  <path
     style="fill:none;stroke:#231f20;stroke-width:0.565977;stroke-linecap:butt;stroke-linejoin:miter;stroke-miterlimit:4;stroke-dasharray:none;stroke-opacity:1"
     d="m 124.34106,46.32293 c -1.402,-0.412 -4.522,0.192 -5.563,2.885 l 3.052,7.192 c 3.364,-1.681 5.323,-3.593 5.083,-6.228 -0.208,-2.267 -1.312,-3.48 -2.572,-3.849 z"
     id="path194" />
  <path
     style="fill:#ffffff;fill-opacity:1;fill-rule:nonzero;stroke:#231f20;stroke-width:0.665856;stroke-linecap:butt;stroke-linejoin:miter;stroke-miterlimit:4;stroke-dasharray:none;stroke-opacity:1"
     d="m 187.42906,0.33793034 0.062,31.67099966 h 1.328 l -0.062,-31.67499966 z"
     id="path195" />
  <path
     style="fill:#ffffff;fill-opacity:1;fill-rule:nonzero;stroke:none"
     d="m 183.89306,36.95193 c 0,-2.353 1.91,-4.271 4.26,-4.276 2.354,-0.005 4.276,1.907 4.281,4.261 0.005,2.354 -1.912,4.271 -4.265,4.276 -2.35,0.006 -4.271,-1.906 -4.276,-4.261 m -1.328,0.005 c 0.005,3.084 2.525,5.595 5.609,5.59 3.088,-0.006 5.599,-2.522 5.593,-5.61 -0.005,-3.094 -2.525,-5.6 -5.614,-5.594 -3.088,0.005 -5.594,2.526 -5.588,5.614"
     id="path196" />
  <path
     style="fill:none;stroke:#231f20;stroke-width:0.665856;stroke-linecap:butt;stroke-linejoin:miter;stroke-miterlimit:4;stroke-dasharray:none;stroke-opacity:1"
     d="m 183.89306,36.95193 c 0,-2.353 1.91,-4.271 4.26,-4.276 2.354,-0.005 4.276,1.907 4.281,4.261 0.005,2.354 -1.912,4.271 -4.265,4.276 -2.35,0.006 -4.271,-1.906 -4.276,-4.261 z m -1.328,0.005 c 0.005,3.084 2.525,5.595 5.609,5.59 3.088,-0.006 5.599,-2.522 5.593,-5.61 -0.005,-3.094 -2.525,-5.6 -5.614,-5.594 -3.088,0.005 -5.594,2.526 -5.588,5.614 z"
     id="path197" />
  <path
     style="fill:#231f20;fill-opacity:1;fill-rule:nonzero;stroke:none"
     d="m 186.91306,42.25993 c -0.4,-0.568 0.666,-2.625 0.985,-2.573 0.312,0.046 -0.115,0.682 0.233,0.75 0.355,0.072 0.563,-0.38 0.767,-0.276 0.229,0.115 -0.109,0.615 0.181,0.698 0.126,0.036 0.61,-0.302 0.746,-0.178 0.114,0.12 0.021,0.631 0.109,0.73 0.145,0.156 0.527,-0.312 0.667,-0.192 0.344,0.306 -1.631,2.172 -1.87,2.145 -0.354,-0.027 -1.166,-0.188 -1.818,-1.104"
     id="path198" />
  <path
     style="fill:none;stroke:#231f20;stroke-width:0.565977;stroke-linecap:round;stroke-linejoin:round;stroke-miterlimit:4;stroke-dasharray:none;stroke-opacity:1"
     d="m 186.91306,42.25993 c -0.4,-0.568 0.666,-2.625 0.985,-2.573 0.312,0.046 -0.115,0.682 0.233,0.75 0.355,0.072 0.563,-0.38 0.767,-0.276 0.229,0.115 -0.109,0.615 0.181,0.698 0.126,0.036 0.61,-0.302 0.746,-0.178 0.114,0.12 0.021,0.631 0.109,0.73 0.145,0.156 0.527,-0.312 0.667,-0.192 0.344,0.306 -1.631,2.172 -1.87,2.145 -0.354,-0.027 -1.166,-0.188 -1.818,-1.104 z"
     id="path199" />
  <path
     style="fill:#ca0369;fill-opacity:1;fill-rule:nonzero;stroke:none"
     d="m 186.95006,61.51493 c -3.125,0.209 -3.819,-0.088 -4.688,-0.396 -5.453,-1.906 -6.292,0.808 -5.583,3.6 0.834,3.29 1.062,4.484 7.282,3.468 1.728,-0.282 8.494,-0.5 8.494,-0.5 2.432,0.25 4.943,-0.802 5.672,-2.058 0.782,-1.328 0.38,-0.858 0.87,-2.218 0.473,-1.292 0.073,-3.443 -1,-4.058 -1.027,-0.593 -2.479,0.23 -4.73,1.136 -1.776,0.708 -6.317,1.026 -6.317,1.026"
     id="path200" />
  <path
     style="fill:none;stroke:#231f20;stroke-width:0.565977;stroke-linecap:butt;stroke-linejoin:miter;stroke-miterlimit:4;stroke-dasharray:none;stroke-opacity:1"
     d="m 186.95006,61.51493 c -3.125,0.209 -3.819,-0.088 -4.688,-0.396 -5.453,-1.906 -6.292,0.808 -5.583,3.6 0.834,3.29 1.062,4.484 7.282,3.468 1.728,-0.282 8.494,-0.5 8.494,-0.5 2.432,0.25 4.943,-0.802 5.672,-2.058 0.782,-1.328 0.38,-0.858 0.87,-2.218 0.473,-1.292 0.073,-3.443 -1,-4.058 -1.027,-0.593 -2.479,0.23 -4.73,1.136 -1.776,0.708 -6.317,1.026 -6.317,1.026 z"
     id="path201" />
  <path
     style="fill:#231f20;fill-opacity:1;fill-rule:nonzero;stroke:none"
     d="m 143.02206,69.17193 c 0.647,-1.183 1.625,-1.053 2.324,-0.277 0.208,0.224 0.624,0.209 0.812,0.448 0.417,0.562 0.125,2.276 -1.369,2.396 -0.11,0.016 -0.86,0.318 -1.475,0.458 -1.172,0.276 -3.672,0.246 -5.547,-1.688 -0.885,-0.921 -0.182,-1.276 0.292,-1.014 1.495,0.838 1.792,0.614 2.26,0.692 1.604,0.265 2.703,-1.015 2.703,-1.015"
     id="path202" />
  <path
     style="fill:none;stroke:#231f20;stroke-width:0.332927;stroke-linecap:butt;stroke-linejoin:miter;stroke-miterlimit:4;stroke-dasharray:none;stroke-opacity:1"
     d="m 143.02206,69.17193 c 0.647,-1.183 1.625,-1.053 2.324,-0.277 0.208,0.224 0.624,0.209 0.812,0.448 0.417,0.562 0.125,2.276 -1.369,2.396 -0.11,0.016 -0.86,0.318 -1.475,0.458 -1.172,0.276 -3.672,0.246 -5.547,-1.688 -0.885,-0.921 -0.182,-1.276 0.292,-1.014 1.495,0.838 1.792,0.614 2.26,0.692 1.604,0.265 2.703,-1.015 2.703,-1.015 z"
     id="path203" />
  <path
     style="fill:#231f20;fill-opacity:1;fill-rule:nonzero;stroke:none"
     d="m 161.73106,67.98893 c -0.042,-2.27 -0.354,-2.708 -1.313,-2.75 -0.64,-0.031 -1.219,-0.276 -1.609,-0.312 -1.291,-0.126 -3.511,0.208 -9.567,2.781 -1.381,0.583 -3.313,1.391 -4.131,1.656 -1.286,0.421 0.287,2.276 0.792,2.115 1.635,-0.511 2.802,-0.735 3.422,-0.839 0.421,-0.068 1.14,-0.297 2.812,-0.359 2.521,-0.105 4.052,0.214 6.141,-0.12 0.964,-0.146 1.792,0.348 2.672,-0.286 0.88,-0.631 0.781,-1.886 0.781,-1.886"
     id="path204" />
  <path
     style="fill:none;stroke:#231f20;stroke-width:0.565977;stroke-linecap:butt;stroke-linejoin:miter;stroke-miterlimit:4;stroke-dasharray:none;stroke-opacity:1"
     d="m 161.73106,67.98893 c -0.042,-2.27 -0.354,-2.708 -1.313,-2.75 -0.64,-0.031 -1.219,-0.276 -1.609,-0.312 -1.291,-0.126 -3.511,0.208 -9.567,2.781 -1.381,0.583 -3.313,1.391 -4.131,1.656 -1.286,0.421 0.287,2.276 0.792,2.115 1.635,-0.511 2.802,-0.735 3.422,-0.839 0.421,-0.068 1.14,-0.297 2.812,-0.359 2.521,-0.105 4.052,0.214 6.141,-0.12 0.964,-0.146 1.792,0.348 2.672,-0.286 0.88,-0.631 0.781,-1.886 0.781,-1.886 z"
     id="path205" />
  <path
     style="fill:#ffffff;fill-opacity:1;fill-rule:nonzero;stroke:none"
     d="m 205.65806,66.07193 c 0.24,-0.057 0.792,0.953 1.265,0.729 0.48,-0.213 0.344,-0.989 1.631,-2.505 l 0.016,-0.025 c 0.979,-1.068 1.385,-2.396 0.963,-3.579 -0.698,-1.953 -3.422,-2.765 -6.078,-1.812 -2.661,0.959 -4.245,3.312 -3.546,5.271 0.67,1.864 3.197,2.697 5.749,1.921"
     id="path206" />
  <path
     style="fill:none;stroke:#231f20;stroke-width:0.565977;stroke-linecap:butt;stroke-linejoin:miter;stroke-miterlimit:4;stroke-dasharray:none;stroke-opacity:1"
     d="m 205.65806,66.07193 c 0.24,-0.057 0.792,0.953 1.265,0.729 0.48,-0.213 0.344,-0.989 1.631,-2.505 l 0.016,-0.025 c 0.979,-1.068 1.385,-2.396 0.963,-3.579 -0.698,-1.953 -3.422,-2.765 -6.078,-1.812 -2.661,0.959 -4.245,3.312 -3.546,5.271 0.67,1.864 3.197,2.697 5.749,1.921 z"
     id="path207" />
  <path
     style="fill:#231f20;fill-opacity:1;fill-rule:nonzero;stroke:none"
     d="m 159.31906,67.45693 c -0.265,4.011 3.495,2.428 3.975,2.459 5,0.349 5.369,0.245 9.187,0.251 5.532,0 9.313,-0.85 10.256,-4.063 0.634,-2.177 0.057,-3.713 -0.986,-4.521 -1.145,-0.896 -4.276,-1.479 -6.233,0.641 l -1.657,0.457 c -1.146,0.167 -1.714,0.256 -2.296,0.292 -0.995,0.068 -2.063,0.199 -4.006,0.427 -3.448,0.401 -6.964,1.975 -6.964,1.975 -1.224,0.177 -1.276,2.082 -1.276,2.082"
     id="path208" />
  <path
     style="fill:none;stroke:#231f20;stroke-width:0.565977;stroke-linecap:butt;stroke-linejoin:miter;stroke-miterlimit:4;stroke-dasharray:none;stroke-opacity:1"
     d="m 159.31906,67.45693 c -0.265,4.011 3.495,2.428 3.975,2.459 5,0.349 5.369,0.245 9.187,0.251 5.532,0 9.313,-0.85 10.256,-4.063 0.634,-2.177 0.057,-3.713 -0.986,-4.521 -1.145,-0.896 -4.276,-1.479 -6.233,0.641 l -1.657,0.457 c -1.146,0.167 -1.714,0.256 -2.296,0.292 -0.995,0.068 -2.063,0.199 -4.006,0.427 -3.448,0.401 -6.964,1.975 -6.964,1.975 -1.224,0.177 -1.276,2.082 -1.276,2.082 z"
     id="path209" />
  <path
     style="fill:#231f20;fill-opacity:1;fill-rule:nonzero;stroke:none"
     d="m 189.12206,42.35893 c 0.552,0.333 1.145,2.182 2.192,3.406 0.704,0.834 1.48,3.463 2.235,4.235 0.697,0.708 0.953,1.099 0.281,2.031 -0.396,0.562 -1.521,1.369 -1.948,1.093 -1,-0.651 -1.531,-1.427 -1.932,-2.421 -0.453,-1.131 -1.417,-4.298 -1.543,-4.902 -0.301,-1.489 -0.858,-1.968 -0.978,-2.353 -0.224,-0.729 0,-0.996 0.442,-1.24 0.834,-0.464 1.251,0.151 1.251,0.151"
     id="path210" />
  <path
     style="fill:none;stroke:#231f20;stroke-width:0.565977;stroke-linecap:butt;stroke-linejoin:miter;stroke-miterlimit:4;stroke-dasharray:none;stroke-opacity:1"
     d="m 189.12206,42.35893 c 0.552,0.333 1.145,2.182 2.192,3.406 0.704,0.834 1.48,3.463 2.235,4.235 0.697,0.708 0.953,1.099 0.281,2.031 -0.396,0.562 -1.521,1.369 -1.948,1.093 -1,-0.651 -1.531,-1.427 -1.932,-2.421 -0.453,-1.131 -1.417,-4.298 -1.543,-4.902 -0.301,-1.489 -0.858,-1.968 -0.978,-2.353 -0.224,-0.729 0,-0.996 0.442,-1.24 0.834,-0.464 1.251,0.151 1.251,0.151 z"
     id="path211" />
  <path
     style="fill:#231f20;fill-opacity:1;fill-rule:nonzero;stroke:none"
     d="m 192.99106,50.13493 c 1.255,-0.323 1.396,1.713 1.516,2.234 0.12,0.531 0.63,2.006 1.178,3.094 0.546,1.098 0.765,2.704 1.79,4.786 0.543,1.099 0.38,2.506 -1.244,3.224 -1.609,0.714 -2.609,0.079 -3.073,-1.349 -0.453,-1.421 -0.281,-2.952 -0.64,-4.421 -0.36,-1.47 -0.86,-2.927 -1.319,-4.058 -0.505,-1.286 -0.281,-2.109 0.058,-2.448 0.844,-0.838 1.734,-1.062 1.734,-1.062"
     id="path212" />
  <path
     style="fill:none;stroke:#231f20;stroke-width:0.565977;stroke-linecap:butt;stroke-linejoin:miter;stroke-miterlimit:4;stroke-dasharray:none;stroke-opacity:1"
     d="m 192.99106,50.13493 c 1.255,-0.323 1.396,1.713 1.516,2.234 0.12,0.531 0.63,2.006 1.178,3.094 0.546,1.098 0.765,2.704 1.79,4.786 0.543,1.099 0.38,2.506 -1.244,3.224 -1.609,0.714 -2.609,0.079 -3.073,-1.349 -0.453,-1.421 -0.281,-2.952 -0.64,-4.421 -0.36,-1.47 -0.86,-2.927 -1.319,-4.058 -0.505,-1.286 -0.281,-2.109 0.058,-2.448 0.844,-0.838 1.734,-1.062 1.734,-1.062 z"
     id="path213" />
  <path
     style="fill:#ca0369;fill-opacity:1;fill-rule:nonzero;stroke:none"
     d="m 181.73106,61.41593 c -1.182,-0.855 -4.328,-1.317 -6.209,0.875 l 0.5,7.802 c 3.729,-0.474 6.209,-1.625 6.855,-4.193 0.557,-2.203 -0.079,-3.713 -1.146,-4.484"
     id="path214" />
  <path
     style="fill:none;stroke:#231f20;stroke-width:0.565977;stroke-linecap:butt;stroke-linejoin:miter;stroke-miterlimit:4;stroke-dasharray:none;stroke-opacity:1"
     d="m 181.73106,61.41593 c -1.182,-0.855 -4.328,-1.317 -6.209,0.875 l 0.5,7.802 c 3.729,-0.474 6.209,-1.625 6.855,-4.193 0.557,-2.203 -0.079,-3.713 -1.146,-4.484 z"
     id="path215" />
</svg>
