<?xml version="1.0" encoding="UTF-8" standalone="no"?>
<!-- Created with Inkscape (http://www.inkscape.org/) -->

<svg
   version="1.1"
   id="svg1"
   width="347.78574"
   height="138.86981"
   viewBox="0 0 347.78572 138.86982"
   sodipodi:docname="cell.svg"
   xmlns:inkscape="http://www.inkscape.org/namespaces/inkscape"
   xmlns:sodipodi="http://sodipodi.sourceforge.net/DTD/sodipodi-0.dtd"
   xmlns="http://www.w3.org/2000/svg"
   xmlns:svg="http://www.w3.org/2000/svg">
  <sodipodi:namedview
     id="namedview1"
     pagecolor="#ffffff"
     bordercolor="#000000"
     borderopacity="0.25"
     inkscape:showpageshadow="2"
     inkscape:pageopacity="0.0"
     inkscape:pagecheckerboard="0"
     inkscape:deskcolor="#d1d1d1">
    <inkscape:page
       x="0"
       y="0"
       inkscape:label="1"
       id="page1"
       width="347.78571"
       height="138.86983"
       margin="0"
       bleed="0" />
  </sodipodi:namedview>
  <defs
     id="defs1" />
  <path
     style="fill:#231f20;fill-opacity:1;fill-rule:nonzero;stroke:none"
     d="m 117.5428,27.016 c 1.208,0.615 1.098,1.599 0.353,2.317 -0.224,0.215 -0.197,0.626 -0.432,0.819 -0.541,0.448 -2.276,0.203 -2.432,-1.292 -0.016,-0.109 -0.344,-0.855 -0.5,-1.453 -0.313,-1.172 -0.36,-3.672 1.52,-5.599 0.896,-0.917 1.271,-0.219 1.021,0.26 -0.792,1.521 -0.562,1.813 -0.625,2.281 -0.219,1.61 1.095,2.667 1.095,2.667"
     id="path164" />
  <path
     style="fill:none;stroke:#231f20;stroke-width:0.332927;stroke-linecap:butt;stroke-linejoin:miter;stroke-miterlimit:4;stroke-dasharray:none;stroke-opacity:1"
     d="m 117.5428,27.016 c 1.208,0.615 1.098,1.599 0.353,2.317 -0.224,0.215 -0.197,0.626 -0.432,0.819 -0.541,0.448 -2.276,0.203 -2.432,-1.292 -0.016,-0.109 -0.344,-0.855 -0.5,-1.453 -0.313,-1.172 -0.36,-3.672 1.52,-5.599 0.896,-0.917 1.271,-0.219 1.021,0.26 -0.792,1.521 -0.562,1.813 -0.625,2.281 -0.219,1.61 1.095,2.667 1.095,2.667 z"
     id="path165" />
  <path
     style="fill:#231f20;fill-opacity:1;fill-rule:nonzero;stroke:none"
     d="m 119.2918,45.688 c 2.26,-0.115 2.688,-0.443 2.703,-1.401 0.01,-0.635 0.24,-1.224 0.266,-1.615 0.083,-1.296 -0.313,-3.505 -3.068,-9.484 -0.62,-1.359 -1.489,-3.265 -1.776,-4.073 -0.464,-1.276 -2.27,0.349 -2.094,0.854 0.557,1.62 0.818,2.782 0.938,3.386 0.088,0.421 0.334,1.145 0.452,2.808 0.172,2.514 -0.093,4.052 0.298,6.129 0.177,0.964 -0.298,1.808 0.365,2.667 0.661,0.86 1.916,0.729 1.916,0.729"
     id="path166" />
  <path
     style="fill:none;stroke:#231f20;stroke-width:0.565977;stroke-linecap:butt;stroke-linejoin:miter;stroke-miterlimit:4;stroke-dasharray:none;stroke-opacity:1"
     d="m 119.2918,45.688 c 2.26,-0.115 2.688,-0.443 2.703,-1.401 0.01,-0.635 0.24,-1.224 0.266,-1.615 0.083,-1.296 -0.313,-3.505 -3.068,-9.484 -0.62,-1.359 -1.489,-3.265 -1.776,-4.073 -0.464,-1.276 -2.27,0.349 -2.094,0.854 0.557,1.62 0.818,2.782 0.938,3.386 0.088,0.421 0.334,1.145 0.452,2.808 0.172,2.514 -0.093,4.052 0.298,6.129 0.177,0.964 -0.298,1.808 0.365,2.667 0.661,0.86 1.916,0.729 1.916,0.729 z"
     id="path167" />
  <path
     style="fill:#ca0369;fill-opacity:1;fill-rule:nonzero;stroke:none"
     d="m 127.0048,70.505 c -0.634,-3.067 -0.432,-3.796 -0.249,-4.697 1.145,-5.667 -1.661,-6.12 -4.328,-5.036 -3.147,1.271 -4.297,1.666 -2.443,7.686 0.515,1.667 1.662,8.35 1.662,8.35 0.082,2.442 1.473,4.781 2.817,5.338 1.421,0.588 0.901,0.25 2.317,0.552 1.344,0.292 3.418,-0.396 3.88,-1.546 0.448,-1.1 -0.566,-2.428 -1.77,-4.532 -0.948,-1.656 -1.886,-6.115 -1.886,-6.115"
     id="path168" />
  <path
     style="fill:none;stroke:#231f20;stroke-width:0.565977;stroke-linecap:butt;stroke-linejoin:miter;stroke-miterlimit:4;stroke-dasharray:none;stroke-opacity:1"
     d="m 127.0048,70.505 c -0.634,-3.067 -0.432,-3.796 -0.249,-4.697 1.145,-5.667 -1.661,-6.12 -4.328,-5.036 -3.147,1.271 -4.297,1.666 -2.443,7.686 0.515,1.667 1.662,8.35 1.662,8.35 0.082,2.442 1.473,4.781 2.817,5.338 1.421,0.588 0.901,0.25 2.317,0.552 1.344,0.292 3.418,-0.396 3.88,-1.546 0.448,-1.1 -0.566,-2.428 -1.77,-4.532 -0.948,-1.656 -1.886,-6.115 -1.886,-6.115 z"
     id="path169" />
  <path
     style="fill:#ffffff;fill-opacity:1;fill-rule:nonzero;stroke:none"
     d="m 125.7558,89.048 c 0.011,0.244 -1.089,0.582 -0.969,1.093 0.114,0.511 0.901,0.536 2.13,2.099 l 0.015,0.021 c 0.86,1.172 2.073,1.839 3.319,1.661 2.057,-0.297 3.396,-2.808 2.989,-5.598 -0.407,-2.798 -2.396,-4.824 -4.453,-4.522 -1.968,0.282 -3.282,2.594 -3.031,5.246"
     id="path170" />
  <path
     style="fill:none;stroke:#231f20;stroke-width:0.565977;stroke-linecap:butt;stroke-linejoin:miter;stroke-miterlimit:4;stroke-dasharray:none;stroke-opacity:1"
     d="m 125.7558,89.048 c 0.011,0.244 -1.089,0.582 -0.969,1.093 0.114,0.511 0.901,0.536 2.13,2.099 l 0.015,0.021 c 0.86,1.172 2.073,1.839 3.319,1.661 2.057,-0.297 3.396,-2.808 2.989,-5.598 -0.407,-2.798 -2.396,-4.824 -4.453,-4.522 -1.968,0.282 -3.282,2.594 -3.031,5.246 z"
     id="path171" />
  <path
     style="fill:#231f20;fill-opacity:1;fill-rule:nonzero;stroke:none"
     d="m 119.7398,43.256 c -4.011,-0.147 -2.312,3.568 -2.333,4.047 -0.203,5.005 -0.088,5.369 0.026,9.193 0.162,5.52 1.119,9.28 4.364,10.124 2.203,0.568 3.714,-0.052 4.495,-1.115 0.86,-1.181 1.344,-4.317 -0.833,-6.218 l -0.511,-1.635 c -0.192,-1.147 -0.301,-1.713 -0.353,-2.287 -0.095,-1 -0.256,-2.062 -0.548,-3.994 -0.51,-3.432 -2.182,-6.896 -2.182,-6.896 -0.213,-1.224 -2.125,-1.219 -2.125,-1.219"
     id="path172" />
  <path
     style="fill:none;stroke:#231f20;stroke-width:0.565977;stroke-linecap:butt;stroke-linejoin:miter;stroke-miterlimit:4;stroke-dasharray:none;stroke-opacity:1"
     d="m 119.7398,43.256 c -4.011,-0.147 -2.312,3.568 -2.333,4.047 -0.203,5.005 -0.088,5.369 0.026,9.193 0.162,5.52 1.119,9.28 4.364,10.124 2.203,0.568 3.714,-0.052 4.495,-1.115 0.86,-1.181 1.344,-4.317 -0.833,-6.218 l -0.511,-1.635 c -0.192,-1.147 -0.301,-1.713 -0.353,-2.287 -0.095,-1 -0.256,-2.062 -0.548,-3.994 -0.51,-3.432 -2.182,-6.896 -2.182,-6.896 -0.213,-1.224 -2.125,-1.219 -2.125,-1.219 z"
     id="path173" />
  <path
     style="fill:#ca0369;fill-opacity:1;fill-rule:nonzero;stroke:none"
     d="m 125.4588,59.287 -7.803,0.448 c 0.079,0.65 0.183,1.25 0.308,1.822 -0.011,0.084 -0.021,0.162 -0.036,0.23 -0.209,0.775 0.161,1.286 0.801,2.103 0.672,1.402 1.642,2.355 3.068,2.73 2.203,0.568 3.714,-0.052 4.495,-1.115 0.86,-1.181 1.344,-4.317 -0.833,-6.218"
     id="path174" />
  <path
     style="fill:none;stroke:#231f20;stroke-width:0.565977;stroke-linecap:butt;stroke-linejoin:miter;stroke-miterlimit:4;stroke-dasharray:none;stroke-opacity:1"
     d="m 125.4588,59.287 -7.803,0.448 c 0.079,0.65 0.183,1.25 0.308,1.822 -0.011,0.084 -0.021,0.162 -0.036,0.23 -0.209,0.775 0.161,1.286 0.801,2.103 0.672,1.402 1.642,2.355 3.068,2.73 2.203,0.568 3.714,-0.052 4.495,-1.115 0.86,-1.181 1.344,-4.317 -0.833,-6.218 z"
     id="path175" />
  <path
     style="fill:#ffffff;fill-opacity:1;fill-rule:nonzero;stroke:none"
     d="M 0,18.875 H 18.875 V 0 H 0 Z"
     id="path176" />
  <path
     style="fill:#231f20;fill-opacity:1;fill-rule:nonzero;stroke:#231f20;stroke-width:0.565977;stroke-linecap:round;stroke-linejoin:round;stroke-miterlimit:4;stroke-dasharray:none;stroke-opacity:1"
     d="m 311.5778,54.136 c 0,0 1.178,-0.599 2.339,-0.583 1.166,0.026 2.405,0.556 2.405,0.556 v 3.298 h -4.78 z"
     id="path180" />
  <path
     style="fill:#231f20;fill-opacity:1;fill-rule:nonzero;stroke:none"
     d="m 317.1548,70.901 c 3.568,0.495 3.022,2.084 3.464,6.141 0.49,4.432 0.522,9.11 -0.416,12.276 -1.052,3.531 -0.63,3.839 -2.51,4.23 -1.875,0.394 -2.058,-0.366 -3.022,-1.215 -1.12,-0.989 0.615,-8.135 -0.073,-12.837 -0.323,-2.204 -2.52,-7.276 -1.17,-7.814 1.353,-0.536 3.727,-0.781 3.727,-0.781"
     id="path181" />
  <path
     style="fill:none;stroke:#231f20;stroke-width:0.565977;stroke-linecap:butt;stroke-linejoin:miter;stroke-miterlimit:4;stroke-dasharray:none;stroke-opacity:1"
     d="m 317.1548,70.901 c 3.568,0.495 3.022,2.084 3.464,6.141 0.49,4.432 0.522,9.11 -0.416,12.276 -1.052,3.531 -0.63,3.839 -2.51,4.23 -1.875,0.394 -2.058,-0.366 -3.022,-1.215 -1.12,-0.989 0.615,-8.135 -0.073,-12.837 -0.323,-2.204 -2.52,-7.276 -1.17,-7.814 1.353,-0.536 3.727,-0.781 3.727,-0.781 z"
     id="path182" />
  <path
     style="fill:#231f20;fill-opacity:1;fill-rule:nonzero;stroke:none"
     d="m 316.6298,91.562 c 2.255,-0.208 2.912,-0.301 2.74,2.199 -0.043,0.635 -0.292,2.396 -0.209,2.776 0.266,1.271 0.464,2.765 -1.416,9.077 -0.292,0.98 -0.527,2.943 -0.808,4.314 -0.276,1.333 -2.296,-0.027 -2.192,-0.547 0.322,-1.688 0.166,-2.839 0.202,-3.459 0.027,-0.426 0.204,-1.218 -0.109,-2.849 -0.812,-4.203 0.375,-5.547 0.287,-6.443 -0.271,-2.573 -1.031,-4.708 -0.438,-5.016 0.968,-0.494 1.943,-0.052 1.943,-0.052"
     id="path183" />
  <path
     style="fill:none;stroke:#231f20;stroke-width:0.565977;stroke-linecap:butt;stroke-linejoin:miter;stroke-miterlimit:4;stroke-dasharray:none;stroke-opacity:1"
     d="m 316.6298,91.562 c 2.255,-0.208 2.912,-0.301 2.74,2.199 -0.043,0.635 -0.292,2.396 -0.209,2.776 0.266,1.271 0.464,2.765 -1.416,9.077 -0.292,0.98 -0.527,2.943 -0.808,4.314 -0.276,1.333 -2.296,-0.027 -2.192,-0.547 0.322,-1.688 0.166,-2.839 0.202,-3.459 0.027,-0.426 0.204,-1.218 -0.109,-2.849 -0.812,-4.203 0.375,-5.547 0.287,-6.443 -0.271,-2.573 -1.031,-4.708 -0.438,-5.016 0.968,-0.494 1.943,-0.052 1.943,-0.052 z"
     id="path184" />
  <path
     style="fill:#231f20;fill-opacity:1;fill-rule:nonzero;stroke:none"
     d="m 310.9478,71.021 c -3.572,0.5 -3.02,2.088 -3.463,6.141 -0.491,4.432 -0.521,9.11 0.416,12.276 1.052,3.531 0.631,3.843 2.511,4.234 1.874,0.39 2.057,-0.37 3.021,-1.219 1.118,-0.984 -0.615,-8.135 0.067,-12.839 0.322,-2.202 2.526,-7.276 1.171,-7.812 -1.349,-0.536 -3.723,-0.781 -3.723,-0.781"
     id="path185" />
  <path
     style="fill:none;stroke:#231f20;stroke-width:0.565977;stroke-linecap:butt;stroke-linejoin:miter;stroke-miterlimit:4;stroke-dasharray:none;stroke-opacity:1"
     d="m 310.9478,71.021 c -3.572,0.5 -3.02,2.088 -3.463,6.141 -0.491,4.432 -0.521,9.11 0.416,12.276 1.052,3.531 0.631,3.843 2.511,4.234 1.874,0.39 2.057,-0.37 3.021,-1.219 1.118,-0.984 -0.615,-8.135 0.067,-12.839 0.322,-2.202 2.526,-7.276 1.171,-7.812 -1.349,-0.536 -3.723,-0.781 -3.723,-0.781 z"
     id="path186" />
  <path
     style="fill:#ca0369;fill-opacity:1;fill-rule:nonzero;stroke:none"
     d="m 313.9738,79.166 c 0.495,0 1.104,-0.432 1.104,-0.432 0,0 0.708,-5.801 3.432,-7.306 l 0.36,-0.016 c 0.905,0.864 -0.412,-1.156 -0.396,-1.902 0.057,-3.249 1.396,-8.177 2.057,-9.338 0.902,-1.593 3.474,-2.104 2.416,-3.989 0,0 -0.614,-1.844 -3.401,-1.484 -1.009,0.13 -3.224,-0.59 -3.224,-0.59 0.011,0.043 0.021,0.084 0.021,0.12 0,1.256 -1.068,1.97 -2.406,1.991 h 0.073 c -1.333,-0.021 -2.406,-0.797 -2.406,-1.991 0,-0.036 0.01,-0.077 0.021,-0.12 0,0 -2.213,0.72 -3.219,0.59 -2.792,-0.36 -3.344,1.754 -3.344,1.754 -1.062,1.891 1.459,2.126 2.36,3.719 0.656,1.161 1.995,6.089 2.052,9.338 0.015,0.746 -1.297,2.766 -0.39,1.902 l 0.353,0.016 c 2.724,1.505 3.439,7.306 3.439,7.306 0,0 0.604,0.432 1.098,0.432"
     id="path187" />
  <path
     style="fill:none;stroke:#231f20;stroke-width:0.565977;stroke-linecap:butt;stroke-linejoin:miter;stroke-miterlimit:4;stroke-dasharray:none;stroke-opacity:1"
     d="m 313.9738,79.166 c 0.495,0 1.104,-0.432 1.104,-0.432 0,0 0.708,-5.801 3.432,-7.306 l 0.36,-0.016 c 0.905,0.864 -0.412,-1.156 -0.396,-1.902 0.057,-3.249 1.396,-8.177 2.057,-9.338 0.902,-1.593 3.474,-2.104 2.416,-3.989 0,0 -0.614,-1.844 -3.401,-1.484 -1.009,0.13 -3.224,-0.59 -3.224,-0.59 0.011,0.043 0.021,0.084 0.021,0.12 0,1.256 -1.068,1.97 -2.406,1.991 h 0.073 c -1.333,-0.021 -2.406,-0.797 -2.406,-1.991 0,-0.036 0.01,-0.077 0.021,-0.12 0,0 -2.213,0.72 -3.219,0.59 -2.792,-0.36 -3.344,1.754 -3.344,1.754 -1.062,1.891 1.459,2.126 2.36,3.719 0.656,1.161 1.995,6.089 2.052,9.338 0.015,0.746 -1.297,2.766 -0.39,1.902 l 0.353,0.016 c 2.724,1.505 3.439,7.306 3.439,7.306 0,0 0.604,0.432 1.098,0.432 z"
     id="path188" />
  <path
     style="fill:#ffffff;fill-opacity:1;fill-rule:nonzero;stroke:none"
     d="m 310.2338,48.625 c -0.005,2.823 1.672,5.115 3.751,5.12 2.072,0.006 3.765,-2.281 3.77,-5.104 0.006,-2.828 -1.672,-5.12 -3.75,-5.125 -2.073,-0.005 -3.765,2.281 -3.771,5.109"
     id="path189" />
  <path
     style="fill:none;stroke:#231f20;stroke-width:0.565977;stroke-linecap:butt;stroke-linejoin:miter;stroke-miterlimit:4;stroke-dasharray:none;stroke-opacity:1"
     d="m 310.2338,48.625 c -0.005,2.823 1.672,5.115 3.751,5.12 2.072,0.006 3.765,-2.281 3.77,-5.104 0.006,-2.828 -1.672,-5.12 -3.75,-5.125 -2.073,-0.005 -3.765,2.281 -3.771,5.109 z"
     id="path190" />
  <path
     style="fill:#231f20;fill-opacity:1;fill-rule:nonzero;stroke:none"
     d="m 311.4478,91.666 c -2.25,-0.192 -2.906,-0.276 -2.724,2.22 0.046,0.635 0.308,2.39 0.229,2.771 -0.26,1.276 -0.453,2.771 1.464,9.072 0.296,0.98 0.541,2.937 0.833,4.308 0.282,1.328 2.292,-0.037 2.187,-0.557 -0.333,-1.683 -0.181,-2.839 -0.224,-3.459 -0.025,-0.427 -0.208,-1.213 0.095,-2.849 0.791,-4.208 -0.407,-5.547 -0.319,-6.443 0.256,-2.572 1,-4.719 0.407,-5.015 -0.968,-0.49 -1.948,-0.048 -1.948,-0.048"
     id="path191" />
  <path
     style="fill:none;stroke:#231f20;stroke-width:0.565977;stroke-linecap:butt;stroke-linejoin:miter;stroke-miterlimit:4;stroke-dasharray:none;stroke-opacity:1"
     d="m 311.4478,91.666 c -2.25,-0.192 -2.906,-0.276 -2.724,2.22 0.046,0.635 0.308,2.39 0.229,2.771 -0.26,1.276 -0.453,2.771 1.464,9.072 0.296,0.98 0.541,2.937 0.833,4.308 0.282,1.328 2.292,-0.037 2.187,-0.557 -0.333,-1.683 -0.181,-2.839 -0.224,-3.459 -0.025,-0.427 -0.208,-1.213 0.095,-2.849 0.791,-4.208 -0.407,-5.547 -0.319,-6.443 0.256,-2.572 1,-4.719 0.407,-5.015 -0.968,-0.49 -1.948,-0.048 -1.948,-0.048 z"
     id="path192" />
  <path
     style="fill:#231f20;fill-opacity:1;fill-rule:nonzero;stroke:none"
     d="m 295.3178,55.048 c 0.156,-1.281 2.099,-0.677 2.635,-0.595 0.536,0.084 2.089,0.142 3.308,0.032 1.224,-0.109 2.785,0.271 5.104,0.068 1.219,-0.105 2.473,0.562 2.552,2.334 0.077,1.754 -0.88,2.462 -2.371,2.369 -1.494,-0.093 -2.858,-0.813 -4.358,-1.011 -1.5,-0.197 -3.047,-0.26 -4.256,-0.254 -1.386,0.014 -2.067,-0.495 -2.26,-0.934 -0.474,-1.098 -0.354,-2.009 -0.354,-2.009"
     id="path193" />
  <path
     style="fill:none;stroke:#231f20;stroke-width:0.565977;stroke-linecap:butt;stroke-linejoin:miter;stroke-miterlimit:4;stroke-dasharray:none;stroke-opacity:1"
     d="m 295.3178,55.048 c 0.156,-1.281 2.099,-0.677 2.635,-0.595 0.536,0.084 2.089,0.142 3.308,0.032 1.224,-0.109 2.785,0.271 5.104,0.068 1.219,-0.105 2.473,0.562 2.552,2.334 0.077,1.754 -0.88,2.462 -2.371,2.369 -1.494,-0.093 -2.858,-0.813 -4.358,-1.011 -1.5,-0.197 -3.047,-0.26 -4.256,-0.254 -1.386,0.014 -2.067,-0.495 -2.26,-0.934 -0.474,-1.098 -0.354,-2.009 -0.354,-2.009 z"
     id="path194" />
  <path
     style="fill:#231f20;fill-opacity:1;fill-rule:nonzero;stroke:none"
     d="m 286.2608,57.157 c 0.541,0.348 2.463,0.052 4.025,0.438 1.058,0.26 3.76,-0.224 4.787,0.114 0.948,0.307 1.412,0.359 1.943,-0.661 0.322,-0.605 0.546,-1.969 0.104,-2.229 -1.02,-0.604 -1.959,-0.73 -3.026,-0.647 -1.214,0.1 -4.48,0.652 -5.068,0.808 -1.474,0.396 -2.15,0.104 -2.552,0.177 -0.75,0.124 -0.885,0.443 -0.906,0.948 -0.047,0.952 0.693,1.052 0.693,1.052"
     id="path195" />
  <path
     style="fill:none;stroke:#231f20;stroke-width:0.565977;stroke-linecap:butt;stroke-linejoin:miter;stroke-miterlimit:4;stroke-dasharray:none;stroke-opacity:1"
     d="m 286.2608,57.157 c 0.541,0.348 2.463,0.052 4.025,0.438 1.058,0.26 3.76,-0.224 4.787,0.114 0.948,0.307 1.412,0.359 1.943,-0.661 0.322,-0.605 0.546,-1.969 0.104,-2.229 -1.02,-0.604 -1.959,-0.73 -3.026,-0.647 -1.214,0.1 -4.48,0.652 -5.068,0.808 -1.474,0.396 -2.15,0.104 -2.552,0.177 -0.75,0.124 -0.885,0.443 -0.906,0.948 -0.047,0.952 0.693,1.052 0.693,1.052 z"
     id="path196" />
  <path
     style="fill:#231f20;fill-opacity:1;fill-rule:nonzero;stroke:none"
     d="m 333.1508,55.235 c -0.157,-1.287 -2.1,-0.672 -2.636,-0.588 -0.53,0.082 -2.088,0.145 -3.306,0.041 -1.22,-0.104 -2.787,0.281 -5.11,0.084 -1.214,-0.1 -2.469,0.572 -2.542,2.343 -0.072,1.756 0.885,2.458 2.38,2.36 1.496,-0.099 2.854,-0.818 4.354,-1.022 1.5,-0.202 3.042,-0.27 4.255,-0.265 1.385,0.005 2.068,-0.505 2.256,-0.948 0.473,-1.099 0.349,-2.005 0.349,-2.005"
     id="path197" />
  <path
     style="fill:none;stroke:#231f20;stroke-width:0.565977;stroke-linecap:butt;stroke-linejoin:miter;stroke-miterlimit:4;stroke-dasharray:none;stroke-opacity:1"
     d="m 333.1508,55.235 c -0.157,-1.287 -2.1,-0.672 -2.636,-0.588 -0.53,0.082 -2.088,0.145 -3.306,0.041 -1.22,-0.104 -2.787,0.281 -5.11,0.084 -1.214,-0.1 -2.469,0.572 -2.542,2.343 -0.072,1.756 0.885,2.458 2.38,2.36 1.496,-0.099 2.854,-0.818 4.354,-1.022 1.5,-0.202 3.042,-0.27 4.255,-0.265 1.385,0.005 2.068,-0.505 2.256,-0.948 0.473,-1.099 0.349,-2.005 0.349,-2.005 z"
     id="path198" />
  <path
     style="fill:#231f20;fill-opacity:1;fill-rule:nonzero;stroke:none"
     d="m 342.2228,57.313 c -0.546,0.344 -2.473,0.058 -4.036,0.448 -1.052,0.266 -3.754,-0.213 -4.781,0.13 -0.948,0.308 -1.407,0.36 -1.948,-0.656 -0.323,-0.599 -0.552,-1.968 -0.109,-2.23 1.021,-0.609 1.958,-0.733 3.026,-0.65 1.214,0.093 4.479,0.636 5.072,0.792 1.47,0.39 2.147,0.093 2.547,0.161 0.756,0.125 0.885,0.443 0.912,0.948 0.047,0.959 -0.683,1.057 -0.683,1.057"
     id="path199" />
  <path
     style="fill:none;stroke:#231f20;stroke-width:0.565977;stroke-linecap:butt;stroke-linejoin:miter;stroke-miterlimit:4;stroke-dasharray:none;stroke-opacity:1"
     d="m 342.2228,57.313 c -0.546,0.344 -2.473,0.058 -4.036,0.448 -1.052,0.266 -3.754,-0.213 -4.781,0.13 -0.948,0.308 -1.407,0.36 -1.948,-0.656 -0.323,-0.599 -0.552,-1.968 -0.109,-2.23 1.021,-0.609 1.958,-0.733 3.026,-0.65 1.214,0.093 4.479,0.636 5.072,0.792 1.47,0.39 2.147,0.093 2.547,0.161 0.756,0.125 0.885,0.443 0.912,0.948 0.047,0.959 -0.683,1.057 -0.683,1.057 z"
     id="path200" />
  <path
     style="fill:#ca0369;fill-opacity:1;fill-rule:nonzero;stroke:none"
     d="m 309.1088,70.584 c -0.208,0.281 -0.859,1.489 -1.031,1.921 -1.093,2.761 -1.005,6.709 -1.276,7.953 -0.276,1.246 6.318,1.188 6.318,1.188 l 0.474,-1.896 c 0.452,0.432 0.989,0.011 0.989,0.011 l 0.454,1.963 c 0,0 6.457,0.25 6.306,-0.744 -0.202,-1.38 -0.286,-6.011 -1.224,-8.271 -0.51,-1.245 -1.286,-1.917 -1.286,-1.917 0,0 -3.646,1.084 -5.072,1.084 -1.423,0 -4.652,-1.292 -4.652,-1.292"
     id="path201" />
  <path
     style="fill:none;stroke:#231f20;stroke-width:0.565977;stroke-linecap:butt;stroke-linejoin:miter;stroke-miterlimit:4;stroke-dasharray:none;stroke-opacity:1"
     d="m 309.1088,70.584 c -0.208,0.281 -0.859,1.489 -1.031,1.921 -1.093,2.761 -1.005,6.709 -1.276,7.953 -0.276,1.246 6.318,1.188 6.318,1.188 l 0.474,-1.896 c 0.452,0.432 0.989,0.011 0.989,0.011 l 0.454,1.963 c 0,0 6.457,0.25 6.306,-0.744 -0.202,-1.38 -0.286,-6.011 -1.224,-8.271 -0.51,-1.245 -1.286,-1.917 -1.286,-1.917 0,0 -3.646,1.084 -5.072,1.084 -1.423,0 -4.652,-1.292 -4.652,-1.292 z"
     id="path202" />
  <path
     style="fill:#231f20;fill-opacity:1;fill-rule:nonzero;stroke:none"
     d="m 309.6768,113.766 c -0.287,-0.6 0.927,-1.937 0.964,-3.906 0.005,-0.402 0.203,-0.724 0.344,-1.068 0.561,-1.402 1.848,-2.354 2.754,1.365 0.131,0.515 -0.265,2.577 -0.021,3.323 0.589,1.765 -1.025,4.672 -1.525,4.53 -1.079,-0.292 -2.516,-4.244 -2.516,-4.244"
     id="path203" />
  <path
     style="fill:none;stroke:#231f20;stroke-width:0.644548;stroke-linecap:round;stroke-linejoin:round;stroke-miterlimit:4;stroke-dasharray:none;stroke-opacity:1"
     d="m 309.6768,113.766 c -0.287,-0.6 0.927,-1.937 0.964,-3.906 0.005,-0.402 0.203,-0.724 0.344,-1.068 0.561,-1.402 1.848,-2.354 2.754,1.365 0.131,0.515 -0.265,2.577 -0.021,3.323 0.589,1.765 -1.025,4.672 -1.525,4.53 -1.079,-0.292 -2.516,-4.244 -2.516,-4.244 z"
     id="path204" />
  <path
     style="fill:#231f20;fill-opacity:1;fill-rule:nonzero;stroke:none"
     d="m 318.2128,113.532 c 0.313,-0.59 -0.834,-1.975 -0.776,-3.943 0.01,-0.407 -0.172,-0.735 -0.291,-1.084 -0.505,-1.427 -1.74,-2.437 -2.819,1.229 -0.15,0.511 0.147,2.595 -0.134,3.323 -0.672,1.74 0.806,4.719 1.317,4.6 1.088,-0.24 2.703,-4.125 2.703,-4.125"
     id="path205" />
  <path
     style="fill:none;stroke:#231f20;stroke-width:0.644548;stroke-linecap:round;stroke-linejoin:round;stroke-miterlimit:4;stroke-dasharray:none;stroke-opacity:1"
     d="m 318.2128,113.532 c 0.313,-0.59 -0.834,-1.975 -0.776,-3.943 0.01,-0.407 -0.172,-0.735 -0.291,-1.084 -0.505,-1.427 -1.74,-2.437 -2.819,1.229 -0.15,0.511 0.147,2.595 -0.134,3.323 -0.672,1.74 0.806,4.719 1.317,4.6 1.088,-0.24 2.703,-4.125 2.703,-4.125 z"
     id="path206" />
  <path
     style="fill:#ffffff;fill-opacity:1;fill-rule:nonzero;stroke:#231f20;stroke-width:0.665856;stroke-linecap:butt;stroke-linejoin:miter;stroke-miterlimit:4;stroke-dasharray:none;stroke-opacity:1"
     d="m 283.7558,48.152 h 1.333 V 16.474 h -1.333 z"
     id="path207" />
  <path
     style="fill:#ffffff;fill-opacity:1;fill-rule:nonzero;stroke:#231f20;stroke-width:0.665856;stroke-linecap:butt;stroke-linejoin:miter;stroke-miterlimit:4;stroke-dasharray:none;stroke-opacity:1"
     d="m 343.3018,48.152 h 1.333 V 16.474 h -1.333 z"
     id="path208" />
  <path
     style="fill:#ffffff;fill-opacity:1;fill-rule:nonzero;stroke:none"
     d="m 284.4218,47.22 c -1.922,0 -3.485,2.588 -3.485,5.78 0,3.193 1.563,5.781 3.485,5.781 1.927,0 3.484,-2.588 3.484,-5.781 0,-3.192 -1.557,-5.78 -3.484,-5.78 m 0,1.301 c 0.88,0 2.151,1.746 2.151,4.479 0,2.735 -1.271,4.48 -2.151,4.48 -0.876,0 -2.152,-1.745 -2.152,-4.48 0,-2.733 1.276,-4.479 2.152,-4.479"
     id="path209" />
  <path
     style="fill:none;stroke:#231f20;stroke-width:0.665856;stroke-linecap:butt;stroke-linejoin:miter;stroke-miterlimit:4;stroke-dasharray:none;stroke-opacity:1"
     d="m 284.4218,47.22 c -1.922,0 -3.485,2.588 -3.485,5.78 0,3.193 1.563,5.781 3.485,5.781 1.927,0 3.484,-2.588 3.484,-5.781 0,-3.192 -1.557,-5.78 -3.484,-5.78 z m 0,1.301 c 0.88,0 2.151,1.746 2.151,4.479 0,2.735 -1.271,4.48 -2.151,4.48 -0.876,0 -2.152,-1.745 -2.152,-4.48 0,-2.733 1.276,-4.479 2.152,-4.479"
     id="path210" />
  <path
     style="fill:#ffffff;fill-opacity:1;fill-rule:nonzero;stroke:none"
     d="m 343.9688,47.22 c -1.923,0 -3.484,2.588 -3.484,5.78 0,3.193 1.561,5.781 3.484,5.781 1.926,0 3.484,-2.588 3.484,-5.781 0,-3.192 -1.558,-5.78 -3.484,-5.78 m 0,1.301 c 0.88,0 2.15,1.746 2.15,4.479 0,2.735 -1.27,4.48 -2.15,4.48 -0.875,0 -2.151,-1.745 -2.151,-4.48 0,-2.733 1.276,-4.479 2.151,-4.479"
     id="path211" />
  <path
     style="fill:none;stroke:#231f20;stroke-width:0.665856;stroke-linecap:butt;stroke-linejoin:miter;stroke-miterlimit:4;stroke-dasharray:none;stroke-opacity:1"
     d="m 343.9688,47.22 c -1.923,0 -3.484,2.588 -3.484,5.78 0,3.193 1.561,5.781 3.484,5.781 1.926,0 3.484,-2.588 3.484,-5.781 0,-3.192 -1.558,-5.78 -3.484,-5.78 z m 0,1.301 c 0.88,0 2.15,1.746 2.15,4.479 0,2.735 -1.27,4.48 -2.15,4.48 -0.875,0 -2.151,-1.745 -2.151,-4.48 0,-2.733 1.276,-4.479 2.151,-4.479"
     id="path212" />
  <path
     style="fill:#231f20;fill-opacity:1;fill-rule:nonzero;stroke:none"
     d="m 283.3648,55.563 c -0.636,0.292 -0.745,2.6 -0.448,2.718 0.296,0.115 0.249,-0.65 0.588,-0.536 0.333,0.12 0.287,0.62 0.521,0.631 0.244,0.015 0.208,-0.584 0.506,-0.511 0.124,0.031 0.369,0.574 0.557,0.526 0.161,-0.042 0.333,-0.536 0.463,-0.572 0.198,-0.068 0.292,0.541 0.469,0.51 0.453,-0.1 -0.308,-2.704 -0.527,-2.808 -0.317,-0.145 -1.098,-0.421 -2.129,0.042"
     id="path213" />
  <path
     style="fill:none;stroke:#231f20;stroke-width:0.565977;stroke-linecap:round;stroke-linejoin:round;stroke-miterlimit:4;stroke-dasharray:none;stroke-opacity:1"
     d="m 283.3648,55.563 c -0.636,0.292 -0.745,2.6 -0.448,2.718 0.296,0.115 0.249,-0.65 0.588,-0.536 0.333,0.12 0.287,0.62 0.521,0.631 0.244,0.015 0.208,-0.584 0.506,-0.511 0.124,0.031 0.369,0.574 0.557,0.526 0.161,-0.042 0.333,-0.536 0.463,-0.572 0.198,-0.068 0.292,0.541 0.469,0.51 0.453,-0.1 -0.308,-2.704 -0.527,-2.808 -0.317,-0.145 -1.098,-0.421 -2.129,0.042 z"
     id="path214" />
  <path
     style="fill:#231f20;fill-opacity:1;fill-rule:nonzero;stroke:none"
     d="m 342.5308,55.876 c -0.641,0.26 -0.838,2.567 -0.542,2.697 0.292,0.126 0.272,-0.64 0.6,-0.516 0.338,0.131 0.27,0.631 0.505,0.652 0.244,0.02 0.228,-0.578 0.52,-0.494 0.125,0.036 0.349,0.582 0.537,0.546 0.167,-0.037 0.354,-0.526 0.484,-0.557 0.203,-0.057 0.276,0.552 0.454,0.525 0.457,-0.077 -0.214,-2.713 -0.428,-2.822 -0.312,-0.162 -1.083,-0.459 -2.13,-0.031"
     id="path215" />
  <path
     style="fill:none;stroke:#231f20;stroke-width:0.565977;stroke-linecap:round;stroke-linejoin:round;stroke-miterlimit:4;stroke-dasharray:none;stroke-opacity:1"
     d="m 342.5308,55.876 c -0.641,0.26 -0.838,2.567 -0.542,2.697 0.292,0.126 0.272,-0.64 0.6,-0.516 0.338,0.131 0.27,0.631 0.505,0.652 0.244,0.02 0.228,-0.578 0.52,-0.494 0.125,0.036 0.349,0.582 0.537,0.546 0.167,-0.037 0.354,-0.526 0.484,-0.557 0.203,-0.057 0.276,0.552 0.454,0.525 0.457,-0.077 -0.214,-2.713 -0.428,-2.822 -0.312,-0.162 -1.083,-0.459 -2.13,-0.031 z"
     id="path216" />
  <path
     style="fill:#ca0369;fill-opacity:1;fill-rule:nonzero;stroke:none"
     d="m 254.3958,62.985 c -0.099,3.135 -0.464,3.796 -0.859,4.629 -2.437,5.24 0.181,6.339 3.031,5.912 3.354,-0.505 4.568,-0.614 4.172,-6.901 -0.11,-1.744 0.344,-8.505 0.344,-8.505 0.489,-2.396 -0.318,-4.995 -1.495,-5.853 -1.24,-0.902 -0.813,-0.454 -2.115,-1.079 -1.24,-0.599 -3.417,-0.412 -4.141,0.593 -0.687,0.964 -0.015,2.491 0.661,4.824 0.532,1.834 0.402,6.38 0.402,6.38"
     id="path217" />
  <path
     style="fill:none;stroke:#231f20;stroke-width:0.565977;stroke-linecap:butt;stroke-linejoin:miter;stroke-miterlimit:4;stroke-dasharray:none;stroke-opacity:1"
     d="m 254.3958,62.985 c -0.099,3.135 -0.464,3.796 -0.859,4.629 -2.437,5.24 0.181,6.339 3.031,5.912 3.354,-0.505 4.568,-0.614 4.172,-6.901 -0.11,-1.744 0.344,-8.505 0.344,-8.505 0.489,-2.396 -0.318,-4.995 -1.495,-5.853 -1.24,-0.902 -0.813,-0.454 -2.115,-1.079 -1.24,-0.599 -3.417,-0.412 -4.141,0.593 -0.687,0.964 -0.015,2.491 0.661,4.824 0.532,1.834 0.402,6.38 0.402,6.38 z"
     id="path218" />
  <path
     style="fill:#231f20;fill-opacity:1;fill-rule:nonzero;stroke:none"
     d="m 256.9168,51.901 c 1.255,0.074 2.213,1.115 2.14,2.328 -0.072,1.214 -1.129,3.084 -2.385,3.006 -1.255,-0.072 -2.235,-2.068 -2.162,-3.276 0.068,-1.214 1.151,-2.135 2.407,-2.058"
     id="path219" />
  <path
     style="fill:none;stroke:#231f20;stroke-width:0.237045;stroke-linecap:butt;stroke-linejoin:miter;stroke-miterlimit:4;stroke-dasharray:none;stroke-opacity:1"
     d="m 256.9168,51.901 c 1.255,0.074 2.213,1.115 2.14,2.328 -0.072,1.214 -1.129,3.084 -2.385,3.006 -1.255,-0.072 -2.235,-2.068 -2.162,-3.276 0.068,-1.214 1.151,-2.135 2.407,-2.058 z"
     id="path220" />
  <path
     style="fill:#231f20;fill-opacity:1;fill-rule:nonzero;stroke:none"
     d="m 253.4118,107.485 c -1.032,-0.876 -0.699,-1.813 0.197,-2.333 0.271,-0.156 0.339,-0.568 0.609,-0.694 0.636,-0.306 2.256,0.339 2.068,1.823 -0.016,0.104 0.126,0.912 0.142,1.537 0.03,1.208 -0.506,3.646 -2.787,5.078 -1.084,0.682 -1.281,-0.078 -0.932,-0.49 1.119,-1.292 0.968,-1.63 1.14,-2.068 0.588,-1.514 -0.437,-2.853 -0.437,-2.853"
     id="path221" />
  <path
     style="fill:none;stroke:#231f20;stroke-width:0.332927;stroke-linecap:butt;stroke-linejoin:miter;stroke-miterlimit:4;stroke-dasharray:none;stroke-opacity:1"
     d="m 253.4118,107.485 c -1.032,-0.876 -0.699,-1.813 0.197,-2.333 0.271,-0.156 0.339,-0.568 0.609,-0.694 0.636,-0.306 2.256,0.339 2.068,1.823 -0.016,0.104 0.126,0.912 0.142,1.537 0.03,1.208 -0.506,3.646 -2.787,5.078 -1.084,0.682 -1.281,-0.078 -0.932,-0.49 1.119,-1.292 0.968,-1.63 1.14,-2.068 0.588,-1.514 -0.437,-2.853 -0.437,-2.853 z"
     id="path222" />
  <path
     style="fill:#231f20;fill-opacity:1;fill-rule:nonzero;stroke:none"
     d="m 256.0838,88.928 c -2.224,-0.423 -2.719,-0.204 -2.959,0.729 -0.156,0.609 -0.516,1.129 -0.631,1.5 -0.39,1.244 -0.525,3.484 0.756,9.943 0.287,1.468 0.682,3.525 0.776,4.374 0.146,1.355 2.292,0.192 2.235,-0.338 -0.167,-1.703 -0.147,-2.891 -0.12,-3.511 0.011,-0.432 -0.057,-1.192 0.219,-2.833 0.421,-2.49 1.041,-3.922 1.145,-6.031 0.052,-0.985 0.713,-1.688 0.271,-2.677 -0.443,-0.99 -1.692,-1.156 -1.692,-1.156"
     id="path223" />
  <path
     style="fill:none;stroke:#231f20;stroke-width:0.565977;stroke-linecap:butt;stroke-linejoin:miter;stroke-miterlimit:4;stroke-dasharray:none;stroke-opacity:1"
     d="m 256.0838,88.928 c -2.224,-0.423 -2.719,-0.204 -2.959,0.729 -0.156,0.609 -0.516,1.129 -0.631,1.5 -0.39,1.244 -0.525,3.484 0.756,9.943 0.287,1.468 0.682,3.525 0.776,4.374 0.146,1.355 2.292,0.192 2.235,-0.338 -0.167,-1.703 -0.147,-2.891 -0.12,-3.511 0.011,-0.432 -0.057,-1.192 0.219,-2.833 0.421,-2.49 1.041,-3.922 1.145,-6.031 0.052,-0.985 0.713,-1.688 0.271,-2.677 -0.443,-0.99 -1.692,-1.156 -1.692,-1.156 z"
     id="path224" />
  <path
     style="fill:#ffffff;fill-opacity:1;fill-rule:nonzero;stroke:none"
     d="m 260.9638,44.975 c 0.021,-0.246 1.145,-0.459 1.093,-0.975 -0.063,-0.525 -0.844,-0.64 -1.885,-2.333 l -0.011,-0.015 c -0.724,-1.267 -1.859,-2.068 -3.104,-2.032 -2.083,0.063 -3.697,2.407 -3.609,5.229 0.084,2.818 1.833,5.058 3.912,4.995 1.984,-0.057 3.552,-2.208 3.604,-4.869"
     id="path225" />
  <path
     style="fill:none;stroke:#231f20;stroke-width:0.565977;stroke-linecap:butt;stroke-linejoin:miter;stroke-miterlimit:4;stroke-dasharray:none;stroke-opacity:1"
     d="m 260.9638,44.975 c 0.021,-0.246 1.145,-0.459 1.093,-0.975 -0.063,-0.525 -0.844,-0.64 -1.885,-2.333 l -0.011,-0.015 c -0.724,-1.267 -1.859,-2.068 -3.104,-2.032 -2.083,0.063 -3.697,2.407 -3.609,5.229 0.084,2.818 1.833,5.058 3.912,4.995 1.984,-0.057 3.552,-2.208 3.604,-4.869 z"
     id="path226" />
  <path
     style="fill:#231f20;fill-opacity:1;fill-rule:nonzero;stroke:none"
     d="m 255.0778,91.188 c 3.864,1.078 3.083,-2.927 3.214,-3.391 1.369,-4.817 1.349,-5.203 2.13,-8.943 1.135,-5.412 1.078,-9.286 -1.876,-10.869 -2.004,-1.068 -3.618,-0.819 -4.629,0.031 -1.109,0.942 -2.319,3.89 -0.641,6.24 l 0.109,1.708 c -0.072,1.161 -0.109,1.74 -0.187,2.308 -0.146,0.994 -0.234,2.061 -0.406,4.009 -0.307,3.459 0.505,7.219 0.505,7.219 -0.079,1.24 1.781,1.688 1.781,1.688"
     id="path227" />
  <path
     style="fill:none;stroke:#231f20;stroke-width:0.565977;stroke-linecap:butt;stroke-linejoin:miter;stroke-miterlimit:4;stroke-dasharray:none;stroke-opacity:1"
     d="m 255.0778,91.188 c 3.864,1.078 3.083,-2.927 3.214,-3.391 1.369,-4.817 1.349,-5.203 2.13,-8.943 1.135,-5.412 1.078,-9.286 -1.876,-10.869 -2.004,-1.068 -3.618,-0.819 -4.629,0.031 -1.109,0.942 -2.319,3.89 -0.641,6.24 l 0.109,1.708 c -0.072,1.161 -0.109,1.74 -0.187,2.308 -0.146,0.994 -0.234,2.061 -0.406,4.009 -0.307,3.459 0.505,7.219 0.505,7.219 -0.079,1.24 1.781,1.688 1.781,1.688 z"
     id="path228" />
  <path
     style="fill:#ca0369;fill-opacity:1;fill-rule:nonzero;stroke:none"
     d="m 260.8958,71.365 c -0.323,-1.527 -1.042,-2.683 -2.35,-3.38 -2.004,-1.068 -3.618,-0.819 -4.629,0.031 -1.109,0.942 -2.319,3.885 -0.647,6.24 l 7.694,1.396 c 0.078,-0.656 0.114,-1.262 0.125,-1.85 0.031,-0.073 0.057,-0.145 0.093,-0.208 0.38,-0.708 0.146,-1.292 -0.286,-2.229"
     id="path229" />
  <path
     style="fill:none;stroke:#231f20;stroke-width:0.565977;stroke-linecap:butt;stroke-linejoin:miter;stroke-miterlimit:4;stroke-dasharray:none;stroke-opacity:1"
     d="m 260.8958,71.365 c -0.323,-1.527 -1.042,-2.683 -2.35,-3.38 -2.004,-1.068 -3.618,-0.819 -4.629,0.031 -1.109,0.942 -2.319,3.885 -0.647,6.24 l 7.694,1.396 c 0.078,-0.656 0.114,-1.262 0.125,-1.85 0.031,-0.073 0.057,-0.145 0.093,-0.208 0.38,-0.708 0.146,-1.292 -0.286,-2.229 z"
     id="path230" />
  <path
     style="fill:#ffffff;fill-opacity:1;fill-rule:nonzero;stroke:#231f20;stroke-width:0.665856;stroke-linecap:butt;stroke-linejoin:miter;stroke-miterlimit:4;stroke-dasharray:none;stroke-opacity:1"
     d="m 256.4528,48.001 h 1.333 V 16.475 h -1.333 z"
     id="path231" />
  <path
     style="fill:#ffffff;fill-opacity:1;fill-rule:nonzero;stroke:#231f20;stroke-width:0.665856;stroke-linecap:butt;stroke-linejoin:miter;stroke-miterlimit:4;stroke-dasharray:none;stroke-opacity:1"
     d="m 222.6138,48.001 h 1.329 V 16.475 h -1.329 z"
     id="path232" />
  <path
     style="fill:#ffffff;fill-opacity:1;fill-rule:nonzero;stroke:none"
     d="m 256.7128,57.204 c -2.353,0 -4.271,-1.912 -4.271,-4.265 0,-2.355 1.918,-4.272 4.271,-4.272 2.355,0 4.267,1.917 4.267,4.272 0,2.353 -1.912,4.265 -4.267,4.265 m 0,-9.871 c -3.088,0 -5.599,2.516 -5.599,5.606 0,3.082 2.511,5.598 5.599,5.598 3.084,0 5.6,-2.516 5.6,-5.598 0,-3.09 -2.516,-5.606 -5.6,-5.606"
     id="path233" />
  <path
     style="fill:none;stroke:#231f20;stroke-width:0.665856;stroke-linecap:butt;stroke-linejoin:miter;stroke-miterlimit:4;stroke-dasharray:none;stroke-opacity:1"
     d="m 256.7128,57.204 c -2.353,0 -4.271,-1.912 -4.271,-4.265 0,-2.355 1.918,-4.272 4.271,-4.272 2.355,0 4.267,1.917 4.267,4.272 0,2.353 -1.912,4.265 -4.267,4.265 z m 0,-9.871 c -3.088,0 -5.599,2.516 -5.599,5.606 0,3.082 2.511,5.598 5.599,5.598 3.084,0 5.6,-2.516 5.6,-5.598 0,-3.09 -2.516,-5.606 -5.6,-5.606 z"
     id="path234" />
  <path
     style="fill:#231f20;fill-opacity:1;fill-rule:nonzero;stroke:#231f20;stroke-width:0.332927;stroke-linecap:round;stroke-linejoin:round;stroke-miterlimit:4;stroke-dasharray:none;stroke-opacity:1"
     d="m 257.8758,56.385 c 0.656,0.24 0.942,2.538 0.656,2.678 -0.287,0.141 -0.298,-0.63 -0.626,-0.484 -0.328,0.14 -0.24,0.636 -0.469,0.666 -0.249,0.031 -0.255,-0.573 -0.541,-0.473 -0.126,0.041 -0.328,0.599 -0.516,0.567 -0.167,-0.031 -0.375,-0.506 -0.504,-0.536 -0.21,-0.047 -0.256,0.568 -0.434,0.541 -0.462,-0.057 0.1,-2.713 0.308,-2.833"
     id="path235" />
  <path
     style="fill:#ffffff;fill-opacity:1;fill-rule:nonzero;stroke:#231f20;stroke-width:0.665856;stroke-linecap:butt;stroke-linejoin:miter;stroke-miterlimit:4;stroke-dasharray:none;stroke-opacity:1"
     d="m 20.9854,47.969 h 1.3281 V 16.297 h -1.3281 z"
     id="path236" />
  <path
     style="fill:#ffffff;fill-opacity:1;fill-rule:nonzero;stroke:none"
     d="m 17.38,52.907 c 0,-2.354 1.9172,-4.271 4.2667,-4.271 2.3589,0 4.2709,1.917 4.2709,4.271 0,2.354 -1.912,4.27 -4.2709,4.27 -2.3495,0 -4.2667,-1.916 -4.2667,-4.27 m -1.3333,0 c 0,3.089 2.5163,5.598 5.6,5.598 3.0881,0 5.6042,-2.509 5.6042,-5.598 0,-3.088 -2.5161,-5.599 -5.6042,-5.599 -3.0837,0 -5.6,2.511 -5.6,5.599"
     id="path237" />
  <path
     style="fill:none;stroke:#231f20;stroke-width:0.665856;stroke-linecap:butt;stroke-linejoin:miter;stroke-miterlimit:4;stroke-dasharray:none;stroke-opacity:1"
     d="m 17.38,52.907 c 0,-2.354 1.9172,-4.271 4.2667,-4.271 2.3589,0 4.2709,1.917 4.2709,4.271 0,2.354 -1.912,4.27 -4.2709,4.27 -2.3495,0 -4.2667,-1.916 -4.2667,-4.27 z m -1.3333,0 c 0,3.089 2.5163,5.598 5.6,5.598 3.0881,0 5.6042,-2.509 5.6042,-5.598 0,-3.088 -2.5161,-5.599 -5.6042,-5.599 -3.0837,0 -5.6,2.511 -5.6,5.599 z"
     id="path238" />
  <path
     style="fill:#231f20;fill-opacity:1;fill-rule:nonzero;stroke:none"
     d="m 19.9322,133.016 c -1.0359,-0.87 -0.7083,-1.807 0.177,-2.339 0.2667,-0.161 0.3334,-0.568 0.6042,-0.703 0.6308,-0.308 2.2614,0.318 2.0838,1.807 -0.0104,0.109 0.1402,0.912 0.1615,1.532 0.036,1.213 -0.4733,3.656 -2.74,5.115 -1.072,0.686 -1.2865,-0.074 -0.9319,-0.486 1.1095,-1.301 0.948,-1.634 1.1199,-2.082 0.5681,-1.516 -0.4745,-2.844 -0.4745,-2.844"
     id="path239" />
  <path
     style="fill:none;stroke:#231f20;stroke-width:0.332927;stroke-linecap:butt;stroke-linejoin:miter;stroke-miterlimit:4;stroke-dasharray:none;stroke-opacity:1"
     d="m 19.9322,133.016 c -1.0359,-0.87 -0.7083,-1.807 0.177,-2.339 0.2667,-0.161 0.3334,-0.568 0.6042,-0.703 0.6308,-0.308 2.2614,0.318 2.0838,1.807 -0.0104,0.109 0.1402,0.912 0.1615,1.532 0.036,1.213 -0.4733,3.656 -2.74,5.115 -1.072,0.686 -1.2865,-0.074 -0.9319,-0.486 1.1095,-1.301 0.948,-1.634 1.1199,-2.082 0.5681,-1.516 -0.4745,-2.844 -0.4745,-2.844 z"
     id="path240" />
  <path
     style="fill:#231f20;fill-opacity:1;fill-rule:nonzero;stroke:none"
     d="m 22.4176,114.428 c -2.2297,-0.396 -2.7188,-0.172 -2.9537,0.754 -0.1505,0.62 -0.5052,1.147 -0.6145,1.516 -0.3746,1.25 -0.4839,3.484 0.8598,9.932 0.3016,1.464 0.7188,3.522 0.823,4.37 0.1609,1.349 2.2865,0.166 2.2292,-0.364 -0.1828,-1.703 -0.1719,-2.891 -0.1574,-3.511 0.0104,-0.432 -0.0666,-1.187 0.188,-2.833 0.3959,-2.495 1,-3.932 1.088,-6.047 0.0428,-0.979 0.6934,-1.692 0.2402,-2.677 -0.4536,-0.984 -1.7026,-1.14 -1.7026,-1.14"
     id="path241" />
  <path
     style="fill:none;stroke:#231f20;stroke-width:0.565977;stroke-linecap:butt;stroke-linejoin:miter;stroke-miterlimit:4;stroke-dasharray:none;stroke-opacity:1"
     d="m 22.4176,114.428 c -2.2297,-0.396 -2.7188,-0.172 -2.9537,0.754 -0.1505,0.62 -0.5052,1.147 -0.6145,1.516 -0.3746,1.25 -0.4839,3.484 0.8598,9.932 0.3016,1.464 0.7188,3.522 0.823,4.37 0.1609,1.349 2.2865,0.166 2.2292,-0.364 -0.1828,-1.703 -0.1719,-2.891 -0.1574,-3.511 0.0104,-0.432 -0.0666,-1.187 0.188,-2.833 0.3959,-2.495 1,-3.932 1.088,-6.047 0.0428,-0.979 0.6934,-1.692 0.2402,-2.677 -0.4536,-0.984 -1.7026,-1.14 -1.7026,-1.14 z"
     id="path242" />
  <path
     style="fill:#ca0369;fill-opacity:1;fill-rule:nonzero;stroke:none"
     d="m 20.4587,88.51 c -0.0681,3.131 -0.4265,3.798 -0.8067,4.636 -2.3865,5.266 0.2443,6.339 3.0932,5.88 3.3495,-0.536 4.5572,-0.661 4.099,-6.942 -0.1308,-1.746 0.2505,-8.511 0.2505,-8.511 0.4682,-2.401 -0.3651,-4.989 -1.548,-5.839 -1.2547,-0.885 -0.8228,-0.442 -2.1291,-1.057 -1.2453,-0.583 -3.4229,-0.375 -4.1308,0.636 -0.6828,0.973 0.0052,2.495 0.7079,4.812 0.552,1.833 0.464,6.385 0.464,6.385"
     id="path243" />
  <path
     style="fill:none;stroke:#231f20;stroke-width:0.565977;stroke-linecap:butt;stroke-linejoin:miter;stroke-miterlimit:4;stroke-dasharray:none;stroke-opacity:1"
     d="m 20.4587,88.51 c -0.0681,3.131 -0.4265,3.798 -0.8067,4.636 -2.3865,5.266 0.2443,6.339 3.0932,5.88 3.3495,-0.536 4.5572,-0.661 4.099,-6.942 -0.1308,-1.746 0.2505,-8.511 0.2505,-8.511 0.4682,-2.401 -0.3651,-4.989 -1.548,-5.839 -1.2547,-0.885 -0.8228,-0.442 -2.1291,-1.057 -1.2453,-0.583 -3.4229,-0.375 -4.1308,0.636 -0.6828,0.973 0.0052,2.495 0.7079,4.812 0.552,1.833 0.464,6.385 0.464,6.385 z"
     id="path244" />
  <path
     style="fill:#ffffff;fill-opacity:1;fill-rule:nonzero;stroke:none"
     d="m 25.8332,70.718 c 0.0468,-0.233 1.1932,-0.322 1.1932,-0.842 0,-0.527 -0.7609,-0.73 -1.6088,-2.527 l -0.0057,-0.02 C 24.8332,65.99 23.7972,65.068 22.5467,64.964 20.48,64.792 18.6092,66.938 18.38,69.75 c -0.2333,2.818 1.2558,5.235 3.324,5.407 1.9839,0.161 3.7814,-1.797 4.1292,-4.439"
     id="path245" />
  <path
     style="fill:none;stroke:#231f20;stroke-width:0.565977;stroke-linecap:butt;stroke-linejoin:miter;stroke-miterlimit:4;stroke-dasharray:none;stroke-opacity:1"
     d="m 25.8332,70.718 c 0.0468,-0.233 1.1932,-0.322 1.1932,-0.842 0,-0.527 -0.7609,-0.73 -1.6088,-2.527 l -0.0057,-0.02 C 24.8332,65.99 23.7972,65.068 22.5467,64.964 20.48,64.792 18.6092,66.938 18.38,69.75 c -0.2333,2.818 1.2558,5.235 3.324,5.407 1.9839,0.161 3.7814,-1.797 4.1292,-4.439 z"
     id="path246" />
  <path
     style="fill:#231f20;fill-opacity:1;fill-rule:nonzero;stroke:none"
     d="m 21.4374,116.698 c 3.876,1.036 3.0521,-2.964 3.177,-3.417 1.3178,-4.839 1.2923,-5.219 2.0376,-8.968 1.0776,-5.417 0.9837,-9.297 -1.9854,-10.844 -2.0199,-1.052 -3.6344,-0.781 -4.6292,0.079 -1.1052,0.952 -2.2812,3.905 -0.5787,6.244 l 0.1256,1.704 c -0.0631,1.166 -0.0896,1.738 -0.1667,2.312 -0.1308,0.994 -0.2084,2.062 -0.3656,4.016 -0.2709,3.457 0.5838,7.208 0.5838,7.208 -0.0676,1.24 1.8016,1.666 1.8016,1.666"
     id="path247" />
  <path
     style="fill:none;stroke:#231f20;stroke-width:0.565977;stroke-linecap:butt;stroke-linejoin:miter;stroke-miterlimit:4;stroke-dasharray:none;stroke-opacity:1"
     d="m 21.4374,116.698 c 3.876,1.036 3.0521,-2.964 3.177,-3.417 1.3178,-4.839 1.2923,-5.219 2.0376,-8.968 1.0776,-5.417 0.9837,-9.297 -1.9854,-10.844 -2.0199,-1.052 -3.6344,-0.781 -4.6292,0.079 -1.1052,0.952 -2.2812,3.905 -0.5787,6.244 l 0.1256,1.704 c -0.0631,1.166 -0.0896,1.738 -0.1667,2.312 -0.1308,0.994 -0.2084,2.062 -0.3656,4.016 -0.2709,3.457 0.5838,7.208 0.5838,7.208 -0.0676,1.24 1.8016,1.666 1.8016,1.666 z"
     id="path248" />
  <path
     style="fill:#ca0369;fill-opacity:1;fill-rule:nonzero;stroke:none"
     d="m 27.0467,96.813 c -0.3375,-1.516 -1.0719,-2.661 -2.3801,-3.344 -2.0199,-1.052 -3.6344,-0.781 -4.6292,0.079 -1.1052,0.952 -2.2812,3.905 -0.5787,6.244 l 7.6974,1.313 c 0.0735,-0.657 0.1,-1.261 0.1094,-1.849 0.0265,-0.074 0.0573,-0.147 0.089,-0.214 0.3751,-0.709 0.135,-1.292 -0.3078,-2.229"
     id="path249" />
  <path
     style="fill:none;stroke:#231f20;stroke-width:0.565977;stroke-linecap:butt;stroke-linejoin:miter;stroke-miterlimit:4;stroke-dasharray:none;stroke-opacity:1"
     d="m 27.0467,96.813 c -0.3375,-1.516 -1.0719,-2.661 -2.3801,-3.344 -2.0199,-1.052 -3.6344,-0.781 -4.6292,0.079 -1.1052,0.952 -2.2812,3.905 -0.5787,6.244 l 7.6974,1.313 c 0.0735,-0.657 0.1,-1.261 0.1094,-1.849 0.0265,-0.074 0.0573,-0.147 0.089,-0.214 0.3751,-0.709 0.135,-1.292 -0.3078,-2.229 z"
     id="path250" />
  <path
     style="fill:#231f20;fill-opacity:1;fill-rule:nonzero;stroke:none"
     d="m 22.6144,58.641 c 0.371,0.526 0.1724,2.464 0.6366,4.005 0.312,1.036 -0.0418,3.76 0.3478,4.771 0.3547,0.932 0.4334,1.391 -0.5614,1.979 -0.5839,0.349 -1.9375,0.641 -2.224,0.209 -0.652,-0.991 -0.8239,-1.923 -0.7922,-2.996 0.036,-1.208 0.4266,-4.5 0.5574,-5.098 0.3229,-1.49 0,-2.151 0.0468,-2.552 0.088,-0.755 0.401,-0.907 0.901,-0.959 0.9536,-0.088 1.088,0.641 1.088,0.641"
     id="path251" />
  <path
     style="fill:none;stroke:#231f20;stroke-width:0.565977;stroke-linecap:butt;stroke-linejoin:miter;stroke-miterlimit:4;stroke-dasharray:none;stroke-opacity:1"
     d="m 22.6144,58.641 c 0.371,0.526 0.1724,2.464 0.6366,4.005 0.312,1.036 -0.0418,3.76 0.3478,4.771 0.3547,0.932 0.4334,1.391 -0.5614,1.979 -0.5839,0.349 -1.9375,0.641 -2.224,0.209 -0.652,-0.991 -0.8239,-1.923 -0.7922,-2.996 0.036,-1.208 0.4266,-4.5 0.5574,-5.098 0.3229,-1.49 0,-2.151 0.0468,-2.552 0.088,-0.755 0.401,-0.907 0.901,-0.959 0.9536,-0.088 1.088,0.641 1.088,0.641 z"
     id="path252" />
  <path
     style="fill:#231f20;fill-opacity:1;fill-rule:nonzero;stroke:none"
     d="m 22.9854,67.693 c 1.2905,0.088 0.7812,2.063 0.728,2.599 -0.0572,0.541 -0.0359,2.098 0.1308,3.308 0.1718,1.213 -0.1308,2.796 0.188,5.104 0.1666,1.208 -0.4334,2.494 -2.2042,2.666 -1.7437,0.167 -2.5,-0.756 -2.4786,-2.25 0.0161,-1.5 0.6666,-2.896 0.7864,-4.406 0.1256,-1.505 0.1094,-3.052 0.0365,-4.261 -0.0776,-1.385 0.3959,-2.093 0.8224,-2.307 1.0735,-0.532 1.9907,-0.453 1.9907,-0.453"
     id="path253" />
  <path
     style="fill:none;stroke:#231f20;stroke-width:0.565977;stroke-linecap:butt;stroke-linejoin:miter;stroke-miterlimit:4;stroke-dasharray:none;stroke-opacity:1"
     d="m 22.9854,67.693 c 1.2905,0.088 0.7812,2.063 0.728,2.599 -0.0572,0.541 -0.0359,2.098 0.1308,3.308 0.1718,1.213 -0.1308,2.796 0.188,5.104 0.1666,1.208 -0.4334,2.494 -2.2042,2.666 -1.7437,0.167 -2.5,-0.756 -2.4786,-2.25 0.0161,-1.5 0.6666,-2.896 0.7864,-4.406 0.1256,-1.505 0.1094,-3.052 0.0365,-4.261 -0.0776,-1.385 0.3959,-2.093 0.8224,-2.307 1.0735,-0.532 1.9907,-0.453 1.9907,-0.453 z"
     id="path254" />
  <path
     style="fill:#231f20;fill-opacity:1;fill-rule:nonzero;stroke:none"
     d="m 20.7296,58.631 c -0.6453,-0.271 -0.812,-2.583 -0.5204,-2.703 0.2907,-0.125 0.2656,0.64 0.599,0.515 0.3333,-0.124 0.2761,-0.624 0.5052,-0.64 0.2496,-0.027 0.224,0.578 0.5146,0.494 0.1255,-0.03 0.3547,-0.582 0.5427,-0.536 0.1615,0.036 0.348,0.52 0.4787,0.563 0.2078,0.057 0.2812,-0.552 0.4588,-0.521 0.4584,0.078 -0.24,2.702 -0.4536,2.812 -0.3172,0.161 -1.088,0.453 -2.125,0.016"
     id="path255" />
  <path
     style="fill:none;stroke:#231f20;stroke-width:0.565977;stroke-linecap:round;stroke-linejoin:round;stroke-miterlimit:4;stroke-dasharray:none;stroke-opacity:1"
     d="m 20.7296,58.631 c -0.6453,-0.271 -0.812,-2.583 -0.5204,-2.703 0.2907,-0.125 0.2656,0.64 0.599,0.515 0.3333,-0.124 0.2761,-0.624 0.5052,-0.64 0.2496,-0.027 0.224,0.578 0.5146,0.494 0.1255,-0.03 0.3547,-0.582 0.5427,-0.536 0.1615,0.036 0.348,0.52 0.4787,0.563 0.2078,0.057 0.2812,-0.552 0.4588,-0.521 0.4584,0.078 -0.24,2.702 -0.4536,2.812 -0.3172,0.161 -1.088,0.453 -2.125,0.016 z"
     id="path256" />
  <path
     style="fill:#ffffff;fill-opacity:1;fill-rule:nonzero;stroke:#231f20;stroke-width:0.665856;stroke-linecap:butt;stroke-linejoin:miter;stroke-miterlimit:4;stroke-dasharray:none;stroke-opacity:1"
     d="m 126.8908,47.969 h 1.328 V 16.297 h -1.328 z"
     id="path257" />
  <path
     style="fill:#ffffff;fill-opacity:1;fill-rule:nonzero;stroke:none"
     d="m 123.2868,52.907 c 0,-2.354 1.917,-4.271 4.27,-4.271 2.355,0 4.266,1.917 4.266,4.271 0,2.354 -1.911,4.27 -4.266,4.27 -2.353,0 -4.27,-1.916 -4.27,-4.27 m -1.334,0 c 0,3.089 2.516,5.598 5.604,5.598 3.084,0 5.599,-2.509 5.599,-5.598 0,-3.088 -2.515,-5.599 -5.599,-5.599 -3.088,0 -5.604,2.511 -5.604,5.599"
     id="path258" />
  <path
     style="fill:none;stroke:#231f20;stroke-width:0.665856;stroke-linecap:butt;stroke-linejoin:miter;stroke-miterlimit:4;stroke-dasharray:none;stroke-opacity:1"
     d="m 123.2868,52.907 c 0,-2.354 1.917,-4.271 4.27,-4.271 2.355,0 4.266,1.917 4.266,4.271 0,2.354 -1.911,4.27 -4.266,4.27 -2.353,0 -4.27,-1.916 -4.27,-4.27 z m -1.334,0 c 0,3.089 2.516,5.598 5.604,5.598 3.084,0 5.599,-2.509 5.599,-5.598 0,-3.088 -2.515,-5.599 -5.599,-5.599 -3.088,0 -5.604,2.511 -5.604,5.599 z"
     id="path259" />
  <path
     style="fill:#231f20;fill-opacity:1;fill-rule:nonzero;stroke:none"
     d="m 128.5208,58.641 c 0.37,0.526 0.172,2.464 0.635,4.005 0.313,1.036 -0.041,3.76 0.349,4.771 0.355,0.932 0.432,1.391 -0.562,1.979 -0.583,0.349 -1.938,0.641 -2.224,0.209 -0.651,-0.991 -0.823,-1.923 -0.791,-2.996 0.036,-1.208 0.427,-4.5 0.557,-5.098 0.323,-1.49 0,-2.151 0.047,-2.552 0.088,-0.755 0.4,-0.907 0.901,-0.959 0.952,-0.088 1.088,0.641 1.088,0.641"
     id="path260" />
  <path
     style="fill:none;stroke:#231f20;stroke-width:0.565977;stroke-linecap:butt;stroke-linejoin:miter;stroke-miterlimit:4;stroke-dasharray:none;stroke-opacity:1"
     d="m 128.5208,58.641 c 0.37,0.526 0.172,2.464 0.635,4.005 0.313,1.036 -0.041,3.76 0.349,4.771 0.355,0.932 0.432,1.391 -0.562,1.979 -0.583,0.349 -1.938,0.641 -2.224,0.209 -0.651,-0.991 -0.823,-1.923 -0.791,-2.996 0.036,-1.208 0.427,-4.5 0.557,-5.098 0.323,-1.49 0,-2.151 0.047,-2.552 0.088,-0.755 0.4,-0.907 0.901,-0.959 0.952,-0.088 1.088,0.641 1.088,0.641 z"
     id="path261" />
  <path
     style="fill:#231f20;fill-opacity:1;fill-rule:nonzero;stroke:none"
     d="m 128.8908,67.693 c 1.292,0.088 0.781,2.063 0.729,2.599 -0.057,0.541 -0.036,2.098 0.131,3.308 0.172,1.213 -0.131,2.796 0.186,5.104 0.167,1.208 -0.432,2.494 -2.202,2.666 -1.746,0.167 -2.5,-0.756 -2.479,-2.25 0.015,-1.5 0.667,-2.896 0.787,-4.406 0.124,-1.505 0.109,-3.052 0.036,-4.261 -0.079,-1.385 0.396,-2.093 0.822,-2.307 1.074,-0.532 1.99,-0.453 1.99,-0.453"
     id="path262" />
  <path
     style="fill:none;stroke:#231f20;stroke-width:0.565977;stroke-linecap:butt;stroke-linejoin:miter;stroke-miterlimit:4;stroke-dasharray:none;stroke-opacity:1"
     d="m 128.8908,67.693 c 1.292,0.088 0.781,2.063 0.729,2.599 -0.057,0.541 -0.036,2.098 0.131,3.308 0.172,1.213 -0.131,2.796 0.186,5.104 0.167,1.208 -0.432,2.494 -2.202,2.666 -1.746,0.167 -2.5,-0.756 -2.479,-2.25 0.015,-1.5 0.667,-2.896 0.787,-4.406 0.124,-1.505 0.109,-3.052 0.036,-4.261 -0.079,-1.385 0.396,-2.093 0.822,-2.307 1.074,-0.532 1.99,-0.453 1.99,-0.453 z"
     id="path263" />
  <path
     style="fill:#231f20;fill-opacity:1;fill-rule:nonzero;stroke:none"
     d="m 126.6358,58.631 c -0.647,-0.271 -0.813,-2.583 -0.521,-2.703 0.292,-0.125 0.265,0.64 0.598,0.515 0.334,-0.124 0.276,-0.624 0.506,-0.64 0.25,-0.027 0.224,0.578 0.516,0.494 0.125,-0.03 0.354,-0.582 0.541,-0.536 0.161,0.036 0.349,0.52 0.48,0.563 0.208,0.057 0.281,-0.552 0.457,-0.521 0.459,0.078 -0.238,2.702 -0.452,2.812 -0.318,0.161 -1.089,0.453 -2.125,0.016"
     id="path264" />
  <path
     style="fill:none;stroke:#231f20;stroke-width:0.565977;stroke-linecap:round;stroke-linejoin:round;stroke-miterlimit:4;stroke-dasharray:none;stroke-opacity:1"
     d="m 126.6358,58.631 c -0.647,-0.271 -0.813,-2.583 -0.521,-2.703 0.292,-0.125 0.265,0.64 0.598,0.515 0.334,-0.124 0.276,-0.624 0.506,-0.64 0.25,-0.027 0.224,0.578 0.516,0.494 0.125,-0.03 0.354,-0.582 0.541,-0.536 0.161,0.036 0.349,0.52 0.48,0.563 0.208,0.057 0.281,-0.552 0.457,-0.521 0.459,0.078 -0.238,2.702 -0.452,2.812 -0.318,0.161 -1.089,0.453 -2.125,0.016 z"
     id="path265" />
  <path
     style="fill:#231f20;fill-opacity:1;fill-rule:nonzero;stroke:none"
     d="m 143.9478,57.667 c 0.959,-0.952 1.865,-0.536 2.308,0.396 0.135,0.276 0.536,0.38 0.645,0.666 0.251,0.656 -0.525,2.219 -1.989,1.907 -0.109,-0.027 -0.923,0.057 -1.541,0.016 -1.21,-0.073 -3.595,-0.808 -4.839,-3.204 -0.589,-1.129 0.192,-1.271 0.572,-0.88 1.193,1.224 1.537,1.099 1.964,1.308 1.464,0.708 2.88,-0.209 2.88,-0.209"
     id="path266" />
  <path
     style="fill:none;stroke:#231f20;stroke-width:0.332927;stroke-linecap:butt;stroke-linejoin:miter;stroke-miterlimit:4;stroke-dasharray:none;stroke-opacity:1"
     d="m 143.9478,57.667 c 0.959,-0.952 1.865,-0.536 2.308,0.396 0.135,0.276 0.536,0.38 0.645,0.666 0.251,0.656 -0.525,2.219 -1.989,1.907 -0.109,-0.027 -0.923,0.057 -1.541,0.016 -1.21,-0.073 -3.595,-0.808 -4.839,-3.204 -0.589,-1.129 0.192,-1.271 0.572,-0.88 1.193,1.224 1.537,1.099 1.964,1.308 1.464,0.708 2.88,-0.209 2.88,-0.209 z"
     id="path267" />
  <path
     style="fill:#231f20;fill-opacity:1;fill-rule:nonzero;stroke:none"
     d="m 162.2238,61.865 c 0.599,-2.188 0.423,-2.693 -0.479,-3.01 -0.604,-0.208 -1.089,-0.61 -1.453,-0.75 -1.203,-0.49 -3.421,-0.808 -9.969,-0.068 -1.484,0.167 -3.567,0.391 -4.422,0.416 -1.358,0.032 -0.38,2.262 0.151,2.251 1.715,-0.021 2.896,0.093 3.511,0.172 0.426,0.052 1.193,0.041 2.808,0.453 2.442,0.619 3.822,1.353 5.916,1.64 0.974,0.131 1.625,0.844 2.645,0.484 1.021,-0.353 1.292,-1.588 1.292,-1.588"
     id="path268" />
  <path
     style="fill:none;stroke:#231f20;stroke-width:0.565977;stroke-linecap:butt;stroke-linejoin:miter;stroke-miterlimit:4;stroke-dasharray:none;stroke-opacity:1"
     d="m 162.2238,61.865 c 0.599,-2.188 0.423,-2.693 -0.479,-3.01 -0.604,-0.208 -1.089,-0.61 -1.453,-0.75 -1.203,-0.49 -3.421,-0.808 -9.969,-0.068 -1.484,0.167 -3.567,0.391 -4.422,0.416 -1.358,0.032 -0.38,2.262 0.151,2.251 1.715,-0.021 2.896,0.093 3.511,0.172 0.426,0.052 1.193,0.041 2.808,0.453 2.442,0.619 3.822,1.353 5.916,1.64 0.974,0.131 1.625,0.844 2.645,0.484 1.021,-0.353 1.292,-1.588 1.292,-1.588 z"
     id="path269" />
  <path
     style="fill:#ca0369;fill-opacity:1;fill-rule:nonzero;stroke:none"
     d="m 187.2918,60.792 c -3.11,0.385 -3.818,0.125 -4.703,-0.129 -5.552,-1.611 -6.24,1.15 -5.376,3.899 1.011,3.235 1.308,4.418 7.464,3.063 1.703,-0.38 8.453,-0.973 8.453,-0.973 2.443,0.12 4.891,-1.079 5.558,-2.371 0.697,-1.364 0.317,-0.875 0.74,-2.26 0.394,-1.317 -0.12,-3.437 -1.224,-3.994 -1.058,-0.536 -2.464,0.358 -4.662,1.39 -1.729,0.807 -6.25,1.375 -6.25,1.375"
     id="path270" />
  <path
     style="fill:none;stroke:#231f20;stroke-width:0.565977;stroke-linecap:butt;stroke-linejoin:miter;stroke-miterlimit:4;stroke-dasharray:none;stroke-opacity:1"
     d="m 187.2918,60.792 c -3.11,0.385 -3.818,0.125 -4.703,-0.129 -5.552,-1.611 -6.24,1.15 -5.376,3.899 1.011,3.235 1.308,4.418 7.464,3.063 1.703,-0.38 8.453,-0.973 8.453,-0.973 2.443,0.12 4.891,-1.079 5.558,-2.371 0.697,-1.364 0.317,-0.875 0.74,-2.26 0.394,-1.317 -0.12,-3.437 -1.224,-3.994 -1.058,-0.536 -2.464,0.358 -4.662,1.39 -1.729,0.807 -6.25,1.375 -6.25,1.375 z"
     id="path271" />
  <path
     style="fill:#ffffff;fill-opacity:1;fill-rule:nonzero;stroke:none"
     d="m 205.6718,63.557 c 0.24,0.016 0.489,1.136 1.005,1.063 0.521,-0.078 0.609,-0.859 2.271,-1.958 l 0.016,-0.01 c 1.245,-0.761 2.005,-1.917 1.926,-3.172 -0.124,-2.073 -2.514,-3.609 -5.328,-3.437 -2.822,0.172 -5.005,1.994 -4.874,4.066 0.12,1.986 2.317,3.48 4.984,3.448"
     id="path272" />
  <path
     style="fill:none;stroke:#231f20;stroke-width:0.565977;stroke-linecap:butt;stroke-linejoin:miter;stroke-miterlimit:4;stroke-dasharray:none;stroke-opacity:1"
     d="m 205.6718,63.557 c 0.24,0.016 0.489,1.136 1.005,1.063 0.521,-0.078 0.609,-0.859 2.271,-1.958 l 0.016,-0.01 c 1.245,-0.761 2.005,-1.917 1.926,-3.172 -0.124,-2.073 -2.514,-3.609 -5.328,-3.437 -2.822,0.172 -5.005,1.994 -4.874,4.066 0.12,1.986 2.317,3.48 4.984,3.448 z"
     id="path273" />
  <path
     style="fill:#231f20;fill-opacity:1;fill-rule:nonzero;stroke:none"
     d="m 160.0518,60.677 c -1.391,3.761 2.667,3.313 3.115,3.485 4.688,1.76 5.073,1.766 8.734,2.859 5.298,1.573 9.167,1.844 10.984,-0.973 1.229,-1.912 1.115,-3.543 0.349,-4.615 -0.849,-1.188 -3.677,-2.63 -6.161,-1.157 l -1.713,-0.031 c -1.151,-0.172 -1.719,-0.249 -2.287,-0.38 -0.973,-0.224 -2.03,-0.401 -3.958,-0.734 -3.422,-0.588 -7.235,-0.088 -7.235,-0.088 -1.228,-0.183 -1.828,1.634 -1.828,1.634"
     id="path274" />
  <path
     style="fill:none;stroke:#231f20;stroke-width:0.565977;stroke-linecap:butt;stroke-linejoin:miter;stroke-miterlimit:4;stroke-dasharray:none;stroke-opacity:1"
     d="m 160.0518,60.677 c -1.391,3.761 2.667,3.313 3.115,3.485 4.688,1.76 5.073,1.766 8.734,2.859 5.298,1.573 9.167,1.844 10.984,-0.973 1.229,-1.912 1.115,-3.543 0.349,-4.615 -0.849,-1.188 -3.677,-2.63 -6.161,-1.157 l -1.713,-0.031 c -1.151,-0.172 -1.719,-0.249 -2.287,-0.38 -0.973,-0.224 -2.03,-0.401 -3.958,-0.734 -3.422,-0.588 -7.235,-0.088 -7.235,-0.088 -1.228,-0.183 -1.828,1.634 -1.828,1.634 z"
     id="path275" />
  <path
     style="fill:#ca0369;fill-opacity:1;fill-rule:nonzero;stroke:none"
     d="m 177.0728,60.276 -2.026,7.548 c 0.646,0.129 1.25,0.213 1.833,0.276 0.073,0.036 0.141,0.066 0.204,0.109 0.677,0.443 1.276,0.249 2.249,-0.104 1.543,-0.193 2.751,-0.819 3.552,-2.057 1.229,-1.912 1.115,-3.543 0.349,-4.615 -0.849,-1.188 -3.677,-2.63 -6.161,-1.157"
     id="path276" />
  <path
     style="fill:none;stroke:#231f20;stroke-width:0.565977;stroke-linecap:butt;stroke-linejoin:miter;stroke-miterlimit:4;stroke-dasharray:none;stroke-opacity:1"
     d="m 177.0728,60.276 -2.026,7.548 c 0.646,0.129 1.25,0.213 1.833,0.276 0.073,0.036 0.141,0.066 0.204,0.109 0.677,0.443 1.276,0.249 2.249,-0.104 1.543,-0.193 2.751,-0.819 3.552,-2.057 1.229,-1.912 1.115,-3.543 0.349,-4.615 -0.849,-1.188 -3.677,-2.63 -6.161,-1.157 z"
     id="path277" />
  <path
     style="fill:#ffffff;fill-opacity:1;fill-rule:nonzero;stroke:#231f20;stroke-width:0.665856;stroke-linecap:butt;stroke-linejoin:miter;stroke-miterlimit:4;stroke-dasharray:none;stroke-opacity:1"
     d="m 173.2758,47.969 h 1.333 V 16.297 h -1.333 z"
     id="path278" />
  <path
     style="fill:#ffffff;fill-opacity:1;fill-rule:nonzero;stroke:none"
     d="m 169.6718,52.907 c 0,-2.354 1.917,-4.271 4.271,-4.271 2.354,0 4.27,1.917 4.27,4.271 0,2.354 -1.916,4.27 -4.27,4.27 -2.354,0 -4.271,-1.916 -4.271,-4.27 m -1.328,0 c 0,3.089 2.511,5.598 5.599,5.598 3.089,0 5.6,-2.509 5.6,-5.598 0,-3.088 -2.511,-5.599 -5.6,-5.599 -3.088,0 -5.599,2.511 -5.599,5.599"
     id="path279" />
  <path
     style="fill:none;stroke:#231f20;stroke-width:0.665856;stroke-linecap:butt;stroke-linejoin:miter;stroke-miterlimit:4;stroke-dasharray:none;stroke-opacity:1"
     d="m 169.6718,52.907 c 0,-2.354 1.917,-4.271 4.271,-4.271 2.354,0 4.27,1.917 4.27,4.271 0,2.354 -1.916,4.27 -4.27,4.27 -2.354,0 -4.271,-1.916 -4.271,-4.27 z m -1.328,0 c 0,3.089 2.511,5.598 5.599,5.598 3.089,0 5.6,-2.509 5.6,-5.598 0,-3.088 -2.511,-5.599 -5.6,-5.599 -3.088,0 -5.599,2.511 -5.599,5.599 z"
     id="path280" />
  <path
     style="fill:#231f20;fill-opacity:1;fill-rule:nonzero;stroke:none"
     d="m 176.6718,56.652 c 0.589,-0.267 2.453,0.296 4.052,0.135 1.078,-0.11 3.688,0.756 4.756,0.562 0.978,-0.172 1.442,-0.156 1.833,0.927 0.229,0.641 0.26,2.027 -0.213,2.224 -1.1,0.453 -2.048,0.443 -3.09,0.209 -1.188,-0.266 -4.343,-1.27 -4.906,-1.51 -1.4,-0.604 -2.109,-0.407 -2.5,-0.532 -0.719,-0.228 -0.812,-0.567 -0.765,-1.072 0.093,-0.948 0.833,-0.943 0.833,-0.943"
     id="path281" />
  <path
     style="fill:none;stroke:#231f20;stroke-width:0.565977;stroke-linecap:butt;stroke-linejoin:miter;stroke-miterlimit:4;stroke-dasharray:none;stroke-opacity:1"
     d="m 176.6718,56.652 c 0.589,-0.267 2.453,0.296 4.052,0.135 1.078,-0.11 3.688,0.756 4.756,0.562 0.978,-0.172 1.442,-0.156 1.833,0.927 0.229,0.641 0.26,2.027 -0.213,2.224 -1.1,0.453 -2.048,0.443 -3.09,0.209 -1.188,-0.266 -4.343,-1.27 -4.906,-1.51 -1.4,-0.604 -2.109,-0.407 -2.5,-0.532 -0.719,-0.228 -0.812,-0.567 -0.765,-1.072 0.093,-0.948 0.833,-0.943 0.833,-0.943 z"
     id="path282" />
  <path
     style="fill:#231f20;fill-opacity:1;fill-rule:nonzero;stroke:none"
     d="m 185.6298,58.005 c 0.334,-1.249 2.172,-0.374 2.692,-0.218 0.522,0.156 2.054,0.433 3.272,0.494 1.224,0.063 2.724,0.662 5.047,0.787 1.219,0.063 2.369,0.901 2.197,2.667 -0.166,1.745 -1.213,2.313 -2.682,2.01 -1.463,-0.303 -2.714,-1.203 -4.171,-1.609 -1.453,-0.407 -2.975,-0.688 -4.177,-0.849 -1.371,-0.182 -1.98,-0.782 -2.104,-1.244 -0.324,-1.152 -0.074,-2.038 -0.074,-2.038"
     id="path283" />
  <path
     style="fill:none;stroke:#231f20;stroke-width:0.565977;stroke-linecap:butt;stroke-linejoin:miter;stroke-miterlimit:4;stroke-dasharray:none;stroke-opacity:1"
     d="m 185.6298,58.005 c 0.334,-1.249 2.172,-0.374 2.692,-0.218 0.522,0.156 2.054,0.433 3.272,0.494 1.224,0.063 2.724,0.662 5.047,0.787 1.219,0.063 2.369,0.901 2.197,2.667 -0.166,1.745 -1.213,2.313 -2.682,2.01 -1.463,-0.303 -2.714,-1.203 -4.171,-1.609 -1.453,-0.407 -2.975,-0.688 -4.177,-0.849 -1.371,-0.182 -1.98,-0.782 -2.104,-1.244 -0.324,-1.152 -0.074,-2.038 -0.074,-2.038 z"
     id="path284" />
  <path
     style="fill:#231f20;fill-opacity:1;fill-rule:nonzero;stroke:none"
     d="m 175.9068,58.355 c -0.667,0.213 -2.303,-1.422 -2.162,-1.708 0.14,-0.287 0.62,0.312 0.792,0 0.172,-0.314 -0.198,-0.651 -0.037,-0.818 0.172,-0.177 0.552,0.296 0.719,0.042 0.068,-0.11 -0.115,-0.672 0.057,-0.766 0.147,-0.078 0.604,0.171 0.729,0.115 0.194,-0.089 -0.145,-0.6 0.006,-0.693 0.406,-0.235 1.588,2.202 1.494,2.426 -0.134,0.328 -0.525,1.052 -1.598,1.402"
     id="path285" />
  <path
     style="fill:none;stroke:#231f20;stroke-width:0.565977;stroke-linecap:round;stroke-linejoin:round;stroke-miterlimit:4;stroke-dasharray:none;stroke-opacity:1"
     d="m 175.9068,58.355 c -0.667,0.213 -2.303,-1.422 -2.162,-1.708 0.14,-0.287 0.62,0.312 0.792,0 0.172,-0.314 -0.198,-0.651 -0.037,-0.818 0.172,-0.177 0.552,0.296 0.719,0.042 0.068,-0.11 -0.115,-0.672 0.057,-0.766 0.147,-0.078 0.604,0.171 0.729,0.115 0.194,-0.089 -0.145,-0.6 0.006,-0.693 0.406,-0.235 1.588,2.202 1.494,2.426 -0.134,0.328 -0.525,1.052 -1.598,1.402 z"
     id="path286" />
  <path
     style="fill:#231f20;fill-opacity:1;fill-rule:nonzero;stroke:none"
     d="m 102.4998,61.319 c -0.479,1.259 -1.468,1.265 -2.265,0.604 -0.235,-0.204 -0.64,-0.126 -0.859,-0.339 -0.496,-0.495 -0.448,-2.24 1.015,-2.568 0.109,-0.02 0.818,-0.432 1.396,-0.651 1.131,-0.442 3.609,-0.765 5.724,0.902 1.01,0.781 0.365,1.229 -0.14,1.03 -1.595,-0.614 -1.86,-0.354 -2.339,-0.364 -1.614,-0.042 -2.532,1.386 -2.532,1.386"
     id="path287" />
  <path
     style="fill:none;stroke:#231f20;stroke-width:0.332927;stroke-linecap:butt;stroke-linejoin:miter;stroke-miterlimit:4;stroke-dasharray:none;stroke-opacity:1"
     d="m 102.4998,61.319 c -0.479,1.259 -1.468,1.265 -2.265,0.604 -0.235,-0.204 -0.64,-0.126 -0.859,-0.339 -0.496,-0.495 -0.448,-2.24 1.015,-2.568 0.109,-0.02 0.818,-0.432 1.396,-0.651 1.131,-0.442 3.609,-0.765 5.724,0.902 1.01,0.781 0.365,1.229 -0.14,1.03 -1.595,-0.614 -1.86,-0.354 -2.339,-0.364 -1.614,-0.042 -2.532,1.386 -2.532,1.386 z"
     id="path288" />
  <path
     style="fill:#231f20;fill-opacity:1;fill-rule:nonzero;stroke:none"
     d="m 84.1358,65.105 c 0.364,2.239 0.74,2.619 1.692,2.531 0.636,-0.058 1.245,0.104 1.636,0.082 1.297,-0.052 3.448,-0.686 9.093,-4.082 1.271,-0.771 3.079,-1.844 3.85,-2.219 1.213,-0.593 -0.599,-2.213 -1.079,-1.984 -1.547,0.734 -2.672,1.115 -3.271,1.307 -0.401,0.131 -1.093,0.453 -2.734,0.756 -2.49,0.447 -4.042,0.353 -6.062,0.968 -0.938,0.286 -1.828,-0.094 -2.609,0.656 -0.781,0.756 -0.516,1.985 -0.516,1.985"
     id="path289" />
  <path
     style="fill:none;stroke:#231f20;stroke-width:0.565977;stroke-linecap:butt;stroke-linejoin:miter;stroke-miterlimit:4;stroke-dasharray:none;stroke-opacity:1"
     d="m 84.1358,65.105 c 0.364,2.239 0.74,2.619 1.692,2.531 0.636,-0.058 1.245,0.104 1.636,0.082 1.297,-0.052 3.448,-0.686 9.093,-4.082 1.271,-0.771 3.079,-1.844 3.85,-2.219 1.213,-0.593 -0.599,-2.213 -1.079,-1.984 -1.547,0.734 -2.672,1.115 -3.271,1.307 -0.401,0.131 -1.093,0.453 -2.734,0.756 -2.49,0.447 -4.042,0.353 -6.062,0.968 -0.938,0.286 -1.828,-0.094 -2.609,0.656 -0.781,0.756 -0.516,1.985 -0.516,1.985 z"
     id="path290" />
  <path
     style="fill:#ca0369;fill-opacity:1;fill-rule:nonzero;stroke:none"
     d="m 59.9586,75.157 c 3,-0.885 3.7453,-0.74 4.6557,-0.636 5.7453,0.688 5.9699,-2.14 4.6724,-4.719 -1.5255,-3.03 -2.0109,-4.145 -7.8536,-1.806 -1.625,0.65 -8.1931,2.328 -8.1931,2.328 -2.4214,0.285 -4.6454,1.864 -5.0934,3.244 -0.464,1.458 -0.1776,0.917 -0.3656,2.354 -0.177,1.359 0.6776,3.37 1.8547,3.74 1.1401,0.359 2.3751,-0.761 4.375,-2.125 1.5787,-1.084 5.9479,-2.38 5.9479,-2.38"
     id="path291" />
  <path
     style="fill:none;stroke:#231f20;stroke-width:0.565977;stroke-linecap:butt;stroke-linejoin:miter;stroke-miterlimit:4;stroke-dasharray:none;stroke-opacity:1"
     d="m 59.9586,75.157 c 3,-0.885 3.7453,-0.74 4.6557,-0.636 5.7453,0.688 5.9699,-2.14 4.6724,-4.719 -1.5255,-3.03 -2.0109,-4.145 -7.8536,-1.806 -1.625,0.65 -8.1931,2.328 -8.1931,2.328 -2.4214,0.285 -4.6454,1.864 -5.0934,3.244 -0.464,1.458 -0.1776,0.917 -0.3656,2.354 -0.177,1.359 0.6776,3.37 1.8547,3.74 1.1401,0.359 2.3751,-0.761 4.375,-2.125 1.5787,-1.084 5.9479,-2.38 5.9479,-2.38 z"
     id="path292" />
  <path
     style="fill:#ffffff;fill-opacity:1;fill-rule:nonzero;stroke:none"
     d="m 40.3905,78.672 c -0.1772,0.172 -1.1666,-0.396 -1.4625,0.032 -0.2923,0.432 0.224,1.025 -0.0891,2.994 l -0.0109,0.02 c -0.2708,1.428 0.0625,2.772 1.0375,3.563 1.6145,1.308 4.3693,0.589 6.1401,-1.609 1.7754,-2.198 1.912,-5.031 0.2968,-6.339 -1.5411,-1.249 -4.1359,-0.645 -5.9119,1.339"
     id="path293" />
  <path
     style="fill:none;stroke:#231f20;stroke-width:0.565977;stroke-linecap:butt;stroke-linejoin:miter;stroke-miterlimit:4;stroke-dasharray:none;stroke-opacity:1"
     d="m 40.3905,78.672 c -0.1772,0.172 -1.1666,-0.396 -1.4625,0.032 -0.2923,0.432 0.224,1.025 -0.0891,2.994 l -0.0109,0.02 c -0.2708,1.428 0.0625,2.772 1.0375,3.563 1.6145,1.308 4.3693,0.589 6.1401,-1.609 1.7754,-2.198 1.912,-5.031 0.2968,-6.339 -1.5411,-1.249 -4.1359,-0.645 -5.9119,1.339 z"
     id="path294" />
  <path
     style="fill:#231f20;fill-opacity:1;fill-rule:nonzero;stroke:none"
     d="m 86.6038,65.281 c -0.302,-4.005 -3.802,-1.905 -4.276,-1.875 -4.9947,0.35 -5.3531,0.506 -9.1348,1.036 -5.4692,0.772 -9.1036,2.142 -9.5891,5.454 -0.3229,2.256 0.459,3.688 1.6052,4.344 1.2656,0.729 4.4428,0.86 6.0828,-1.511 l 1.5787,-0.687 c 1.1146,-0.318 1.6666,-0.489 2.2292,-0.604 0.9844,-0.198 2.0145,-0.48 3.9109,-0.98 3.3601,-0.885 6.6141,-2.926 6.6141,-2.926 1.194,-0.35 0.979,-2.251 0.979,-2.251"
     id="path295" />
  <path
     style="fill:none;stroke:#231f20;stroke-width:0.565977;stroke-linecap:butt;stroke-linejoin:miter;stroke-miterlimit:4;stroke-dasharray:none;stroke-opacity:1"
     d="m 86.6038,65.281 c -0.302,-4.005 -3.802,-1.905 -4.276,-1.875 -4.9947,0.35 -5.3531,0.506 -9.1348,1.036 -5.4692,0.772 -9.1036,2.142 -9.5891,5.454 -0.3229,2.256 0.459,3.688 1.6052,4.344 1.2656,0.729 4.4428,0.86 6.0828,-1.511 l 1.5787,-0.687 c 1.1146,-0.318 1.6666,-0.489 2.2292,-0.604 0.9844,-0.198 2.0145,-0.48 3.9109,-0.98 3.3601,-0.885 6.6141,-2.926 6.6141,-2.926 1.194,-0.35 0.979,-2.251 0.979,-2.251 z"
     id="path296" />
  <path
     style="fill:#ca0369;fill-opacity:1;fill-rule:nonzero;stroke:#231f20;stroke-width:0.565977;stroke-linecap:butt;stroke-linejoin:miter;stroke-miterlimit:4;stroke-dasharray:none;stroke-opacity:1"
     d="m 69.9946,65.026 c -0.6402,0.146 -1.224,0.323 -1.7814,0.506 -0.0776,0 -0.1561,0 -0.228,-0.011 -0.7974,-0.125 -1.2614,0.297 -1.9999,1.021 -1.324,0.823 -2.1667,1.896 -2.3814,3.354 -0.3229,2.256 0.459,3.688 1.6052,4.344 1.2656,0.729 4.4428,0.86 6.0828,-1.511 z"
     id="path297" />
  <path
     style="fill:#ffffff;fill-opacity:1;fill-rule:nonzero;stroke:#231f20;stroke-width:0.665856;stroke-linecap:butt;stroke-linejoin:miter;stroke-miterlimit:4;stroke-dasharray:none;stroke-opacity:1"
     d="m 64.3654,48.543 h 1.3333 V 16.871 h -1.3333 z"
     id="path298" />
  <path
     style="fill:#ffffff;fill-opacity:1;fill-rule:nonzero;stroke:none"
     d="m 61.1722,53.48 c 0,-2.355 1.912,-4.271 4.2651,-4.271 2.3546,0 4.2718,1.916 4.2718,4.271 0,2.353 -1.9172,4.265 -4.2718,4.265 -2.3531,0 -4.2651,-1.912 -4.2651,-4.265 m -1.3333,0 c 0,3.088 2.5104,5.599 5.5984,5.599 3.089,0 5.5999,-2.511 5.5999,-5.599 0,-3.089 -2.5109,-5.604 -5.5999,-5.604 -3.088,0 -5.5984,2.515 -5.5984,5.604"
     id="path299" />
  <path
     style="fill:none;stroke:#231f20;stroke-width:0.665856;stroke-linecap:butt;stroke-linejoin:miter;stroke-miterlimit:4;stroke-dasharray:none;stroke-opacity:1"
     d="m 61.1722,53.48 c 0,-2.355 1.912,-4.271 4.2651,-4.271 2.3546,0 4.2718,1.916 4.2718,4.271 0,2.353 -1.9172,4.265 -4.2718,4.265 -2.3531,0 -4.2651,-1.912 -4.2651,-4.265 z m -1.3333,0 c 0,3.088 2.5104,5.599 5.5984,5.599 3.089,0 5.5999,-2.511 5.5999,-5.599 0,-3.089 -2.5109,-5.604 -5.5999,-5.604 -3.088,0 -5.5984,2.515 -5.5984,5.604 z"
     id="path300" />
  <path
     style="fill:#231f20;fill-opacity:1;fill-rule:nonzero;stroke:none"
     d="m 62.0055,58.412 c -0.4161,-0.563 0.6146,-2.631 0.9318,-2.588 0.3136,0.036 -0.0984,0.687 0.2505,0.749 0.3495,0.058 0.5573,-0.396 0.7599,-0.297 0.2297,0.115 -0.0984,0.62 0.1937,0.699 0.124,0.03 0.6037,-0.323 0.7439,-0.194 0.1202,0.115 0.0265,0.631 0.1254,0.73 0.1454,0.156 0.5214,-0.334 0.6558,-0.214 0.3598,0.303 -1.5823,2.203 -1.8224,2.194 -0.3588,-0.027 -1.1667,-0.172 -1.8386,-1.079"
     id="path301" />
  <path
     style="fill:none;stroke:#231f20;stroke-width:0.565977;stroke-linecap:round;stroke-linejoin:round;stroke-miterlimit:4;stroke-dasharray:none;stroke-opacity:1"
     d="m 62.0055,58.412 c -0.4161,-0.563 0.6146,-2.631 0.9318,-2.588 0.3136,0.036 -0.0984,0.687 0.2505,0.749 0.3495,0.058 0.5573,-0.396 0.7599,-0.297 0.2297,0.115 -0.0984,0.62 0.1937,0.699 0.124,0.03 0.6037,-0.323 0.7439,-0.194 0.1202,0.115 0.0265,0.631 0.1254,0.73 0.1454,0.156 0.5214,-0.334 0.6558,-0.214 0.3598,0.303 -1.5823,2.203 -1.8224,2.194 -0.3588,-0.027 -1.1667,-0.172 -1.8386,-1.079 z"
     id="path302" />
  <path
     style="fill:#ca0369;fill-opacity:1;fill-rule:nonzero;stroke:none"
     d="m 226.3378,63.188 c -2.129,2.308 -2.833,2.568 -3.677,2.948 -5.271,2.364 -4.009,4.912 -1.567,6.448 2.864,1.812 3.854,2.521 7.667,-2.495 1.057,-1.391 5.817,-6.208 5.817,-6.208 1.938,-1.5 3.026,-3.99 2.698,-5.406 -0.348,-1.5 -0.323,-0.88 -0.9,-2.208 -0.548,-1.262 -2.314,-2.543 -3.522,-2.256 -1.15,0.281 -1.641,1.88 -2.65,4.084 -0.792,1.734 -3.866,5.093 -3.866,5.093"
     id="path303" />
  <path
     style="fill:none;stroke:#231f20;stroke-width:0.565977;stroke-linecap:butt;stroke-linejoin:miter;stroke-miterlimit:4;stroke-dasharray:none;stroke-opacity:1"
     d="m 226.3378,63.188 c -2.129,2.308 -2.833,2.568 -3.677,2.948 -5.271,2.364 -4.009,4.912 -1.567,6.448 2.864,1.812 3.854,2.521 7.667,-2.495 1.057,-1.391 5.817,-6.208 5.817,-6.208 1.938,-1.5 3.026,-3.99 2.698,-5.406 -0.348,-1.5 -0.323,-0.88 -0.9,-2.208 -0.548,-1.262 -2.314,-2.543 -3.522,-2.256 -1.15,0.281 -1.641,1.88 -2.65,4.084 -0.792,1.734 -3.866,5.093 -3.866,5.093 z"
     id="path304" />
  <path
     style="fill:#231f20;fill-opacity:1;fill-rule:nonzero;stroke:none"
     d="m 191.4998,89.729 c 0.098,-1.348 1.052,-1.629 2,-1.224 0.286,0.131 0.656,-0.063 0.922,0.084 0.624,0.333 1.067,2.02 -0.24,2.744 -0.098,0.057 -0.661,0.647 -1.156,1.027 -0.953,0.74 -3.24,1.749 -5.745,0.765 -1.187,-0.468 -0.697,-1.077 -0.156,-1.036 1.703,0.135 1.885,-0.188 2.339,-0.313 1.573,-0.416 2.036,-2.047 2.036,-2.047"
     id="path305" />
  <path
     style="fill:none;stroke:#231f20;stroke-width:0.332927;stroke-linecap:butt;stroke-linejoin:miter;stroke-miterlimit:4;stroke-dasharray:none;stroke-opacity:1"
     d="m 191.4998,89.729 c 0.098,-1.348 1.052,-1.629 2,-1.224 0.286,0.131 0.656,-0.063 0.922,0.084 0.624,0.333 1.067,2.02 -0.24,2.744 -0.098,0.057 -0.661,0.647 -1.156,1.027 -0.953,0.74 -3.24,1.749 -5.745,0.765 -1.187,-0.468 -0.697,-1.077 -0.156,-1.036 1.703,0.135 1.885,-0.188 2.339,-0.313 1.573,-0.416 2.036,-2.047 2.036,-2.047 z"
     id="path306" />
  <path
     style="fill:#231f20;fill-opacity:1;fill-rule:nonzero;stroke:none"
     d="m 208.0368,80.886 c -0.98,-2.042 -1.448,-2.308 -2.339,-1.953 -0.589,0.239 -1.224,0.26 -1.589,0.38 -1.229,0.427 -3.115,1.645 -7.557,6.505 -1.01,1.104 -2.432,2.64 -3.063,3.219 -1.004,0.921 1.204,1.959 1.595,1.599 1.276,-1.14 2.244,-1.828 2.76,-2.178 0.354,-0.244 0.926,-0.749 2.406,-1.505 2.26,-1.135 3.776,-1.484 5.542,-2.651 0.822,-0.541 1.781,-0.426 2.317,-1.369 0.532,-0.943 -0.072,-2.047 -0.072,-2.047"
     id="path307" />
  <path
     style="fill:none;stroke:#231f20;stroke-width:0.565977;stroke-linecap:butt;stroke-linejoin:miter;stroke-miterlimit:4;stroke-dasharray:none;stroke-opacity:1"
     d="m 208.0368,80.886 c -0.98,-2.042 -1.448,-2.308 -2.339,-1.953 -0.589,0.239 -1.224,0.26 -1.589,0.38 -1.229,0.427 -3.115,1.645 -7.557,6.505 -1.01,1.104 -2.432,2.64 -3.063,3.219 -1.004,0.921 1.204,1.959 1.595,1.599 1.276,-1.14 2.244,-1.828 2.76,-2.178 0.354,-0.244 0.926,-0.749 2.406,-1.505 2.26,-1.135 3.776,-1.484 5.542,-2.651 0.822,-0.541 1.781,-0.426 2.317,-1.369 0.532,-0.943 -0.072,-2.047 -0.072,-2.047 z"
     id="path308" />
  <path
     style="fill:#ffffff;fill-opacity:1;fill-rule:nonzero;stroke:none"
     d="m 241.8848,52.761 c 0.172,-0.172 1.167,0.406 1.464,-0.021 0.292,-0.437 -0.219,-1.031 0.099,-3 l 0.005,-0.016 c 0.276,-1.427 -0.057,-2.781 -1.031,-3.567 -1.609,-1.313 -4.365,-0.594 -6.141,1.599 -1.781,2.192 -1.916,5.025 -0.307,6.339 1.542,1.249 4.13,0.65 5.911,-1.334"
     id="path309" />
  <path
     style="fill:none;stroke:#231f20;stroke-width:0.565977;stroke-linecap:butt;stroke-linejoin:miter;stroke-miterlimit:4;stroke-dasharray:none;stroke-opacity:1"
     d="m 241.8848,52.761 c 0.172,-0.172 1.167,0.406 1.464,-0.021 0.292,-0.437 -0.219,-1.031 0.099,-3 l 0.005,-0.016 c 0.276,-1.427 -0.057,-2.781 -1.031,-3.567 -1.609,-1.313 -4.365,-0.594 -6.141,1.599 -1.781,2.192 -1.916,5.025 -0.307,6.339 1.542,1.249 4.13,0.65 5.911,-1.334 z"
     id="path310" />
  <path
     style="fill:#231f20;fill-opacity:1;fill-rule:nonzero;stroke:none"
     d="m 205.6198,81.417 c 1.422,3.749 4.188,0.745 4.636,0.579 4.692,-1.751 4.989,-2 8.462,-3.59 5.032,-2.286 8.12,-4.63 7.647,-7.948 -0.328,-2.249 -1.489,-3.401 -2.771,-3.708 -1.417,-0.338 -4.505,0.438 -5.406,3.178 l -1.312,1.104 c -0.98,0.625 -1.459,0.942 -1.97,1.213 -0.885,0.473 -1.797,1.036 -3.473,2.052 -2.964,1.803 -5.511,4.688 -5.511,4.688 -1.042,0.672 -0.302,2.432 -0.302,2.432"
     id="path311" />
  <path
     style="fill:none;stroke:#231f20;stroke-width:0.565977;stroke-linecap:butt;stroke-linejoin:miter;stroke-miterlimit:4;stroke-dasharray:none;stroke-opacity:1"
     d="m 205.6198,81.417 c 1.422,3.749 4.188,0.745 4.636,0.579 4.692,-1.751 4.989,-2 8.462,-3.59 5.032,-2.286 8.12,-4.63 7.647,-7.948 -0.328,-2.249 -1.489,-3.401 -2.771,-3.708 -1.417,-0.338 -4.505,0.438 -5.406,3.178 l -1.312,1.104 c -0.98,0.625 -1.459,0.942 -1.97,1.213 -0.885,0.473 -1.797,1.036 -3.473,2.052 -2.964,1.803 -5.511,4.688 -5.511,4.688 -1.042,0.672 -0.302,2.432 -0.302,2.432 z"
     id="path312" />
  <path
     style="fill:#ca0369;fill-opacity:1;fill-rule:nonzero;stroke:none"
     d="m 226.3648,70.458 c -0.328,-2.249 -1.489,-3.401 -2.771,-3.708 -1.422,-0.338 -4.505,0.438 -5.406,3.178 l 3.437,7.02 c 0.568,-0.323 1.079,-0.656 1.557,-0.995 0.079,-0.02 0.156,-0.041 0.224,-0.052 0.798,-0.109 1.126,-0.645 1.631,-1.547 1.036,-1.161 1.536,-2.432 1.328,-3.896"
     id="path313" />
  <path
     style="fill:none;stroke:#231f20;stroke-width:0.565977;stroke-linecap:butt;stroke-linejoin:miter;stroke-miterlimit:4;stroke-dasharray:none;stroke-opacity:1"
     d="m 226.3648,70.458 c -0.328,-2.249 -1.489,-3.401 -2.771,-3.708 -1.422,-0.338 -4.505,0.438 -5.406,3.178 l 3.437,7.02 c 0.568,-0.323 1.079,-0.656 1.557,-0.995 0.079,-0.02 0.156,-0.041 0.224,-0.052 0.798,-0.109 1.126,-0.645 1.631,-1.547 1.036,-1.161 1.536,-2.432 1.328,-3.896 z"
     id="path314" />
  <path
     style="fill:#231f20;fill-opacity:1;fill-rule:nonzero;stroke:none"
     d="m 223.8178,59.453 c 0.572,0.256 2.427,-0.39 4.004,-0.27 1.068,0.078 3.663,-0.907 4.715,-0.74 0.963,0.146 1.421,0.125 1.839,-1.031 0.238,-0.677 0.306,-2.136 -0.163,-2.328 -1.072,-0.443 -2.004,-0.401 -3.047,-0.125 -1.177,0.317 -4.322,1.474 -4.885,1.745 -1.401,0.672 -2.093,0.489 -2.484,0.635 -0.719,0.261 -0.817,0.614 -0.781,1.146 0.068,0.995 0.802,0.968 0.802,0.968"
     id="path315" />
  <path
     style="fill:none;stroke:#231f20;stroke-width:0.576631;stroke-linecap:butt;stroke-linejoin:miter;stroke-miterlimit:4;stroke-dasharray:none;stroke-opacity:1"
     d="m 223.8178,59.453 c 0.572,0.256 2.427,-0.39 4.004,-0.27 1.068,0.078 3.663,-0.907 4.715,-0.74 0.963,0.146 1.421,0.125 1.839,-1.031 0.238,-0.677 0.306,-2.136 -0.163,-2.328 -1.072,-0.443 -2.004,-0.401 -3.047,-0.125 -1.177,0.317 -4.322,1.474 -4.885,1.745 -1.401,0.672 -2.093,0.489 -2.484,0.635 -0.719,0.261 -0.817,0.614 -0.781,1.146 0.068,0.995 0.802,0.968 0.802,0.968 z"
     id="path316" />
  <path
     style="fill:#231f20;fill-opacity:1;fill-rule:nonzero;stroke:none"
     d="m 228.0318,58.573 c 0.046,1.36 1.15,0.746 1.453,0.662 0.301,-0.083 1.176,-0.126 1.853,-0.006 0.678,0.131 1.563,-0.254 2.855,-0.014 0.672,0.129 1.396,-0.563 1.489,-2.443 0.099,-1.849 -0.412,-2.609 -1.249,-2.521 -0.839,0.082 -1.62,0.822 -2.464,1.021 -0.844,0.187 -1.708,0.239 -2.385,0.219 -0.771,-0.027 -1.172,0.505 -1.292,0.962 -0.298,1.156 -0.26,2.12 -0.26,2.12"
     id="path317" />
  <path
     style="fill:none;stroke:#231f20;stroke-width:0.43547;stroke-linecap:butt;stroke-linejoin:miter;stroke-miterlimit:4;stroke-dasharray:none;stroke-opacity:1"
     d="m 228.0318,58.573 c 0.046,1.36 1.15,0.746 1.453,0.662 0.301,-0.083 1.176,-0.126 1.853,-0.006 0.678,0.131 1.563,-0.254 2.855,-0.014 0.672,0.129 1.396,-0.563 1.489,-2.443 0.099,-1.849 -0.412,-2.609 -1.249,-2.521 -0.839,0.082 -1.62,0.822 -2.464,1.021 -0.844,0.187 -1.708,0.239 -2.385,0.219 -0.771,-0.027 -1.172,0.505 -1.292,0.962 -0.298,1.156 -0.26,2.12 -0.26,2.12 z"
     id="path318" />
  <path
     style="fill:#ffffff;fill-opacity:1;fill-rule:nonzero;stroke:none"
     d="m 225.3758,57.641 c -2.188,0.88 -4.678,-0.182 -5.558,-2.365 -0.881,-2.181 0.176,-4.671 2.359,-5.552 2.183,-0.885 4.672,0.177 5.552,2.36 0.885,2.183 -0.172,4.677 -2.353,5.557 m -3.694,-9.156 c -2.864,1.156 -4.254,4.427 -3.098,7.291 1.15,2.865 4.421,4.256 7.286,3.1 2.864,-1.157 4.25,-4.428 3.099,-7.292 -1.156,-2.86 -4.427,-4.251 -7.287,-3.099"
     id="path319" />
  <path
     style="fill:none;stroke:#231f20;stroke-width:0.665856;stroke-linecap:butt;stroke-linejoin:miter;stroke-miterlimit:4;stroke-dasharray:none;stroke-opacity:1"
     d="m 225.3758,57.641 c -2.188,0.88 -4.678,-0.182 -5.558,-2.365 -0.881,-2.181 0.176,-4.671 2.359,-5.552 2.183,-0.885 4.672,0.177 5.552,2.36 0.885,2.183 -0.172,4.677 -2.353,5.557 z m -3.694,-9.156 c -2.864,1.156 -4.254,4.427 -3.098,7.291 1.15,2.865 4.421,4.256 7.286,3.1 2.864,-1.157 4.25,-4.428 3.099,-7.292 -1.156,-2.86 -4.427,-4.251 -7.287,-3.099 z"
     id="path320" />
  <path
     style="fill:#231f20;fill-opacity:1;fill-rule:nonzero;stroke:none"
     d="m 63.9014,60.125 c -0.0109,0.642 -1.312,2.084 -1.8548,3.604 -0.3588,1.021 -2.2495,3.005 -2.5359,4.057 -0.2598,0.959 -0.4682,1.376 -1.6202,1.266 -0.6772,-0.067 -1.9428,-0.63 -1.9158,-1.14 0.0574,-1.188 0.4678,-2.042 1.1292,-2.886 0.7454,-0.964 3,-3.379 3.459,-3.791 1.1358,-1.011 1.265,-1.739 1.5462,-2.031 0.5162,-0.563 0.8599,-0.5 1.2923,-0.24 0.8172,0.489 0.5,1.161 0.5,1.161"
     id="path321" />
  <path
     style="fill:none;stroke:#231f20;stroke-width:0.565977;stroke-linecap:butt;stroke-linejoin:miter;stroke-miterlimit:4;stroke-dasharray:none;stroke-opacity:1"
     d="m 63.9014,60.125 c -0.0109,0.642 -1.312,2.084 -1.8548,3.604 -0.3588,1.021 -2.2495,3.005 -2.5359,4.057 -0.2598,0.959 -0.4682,1.376 -1.6202,1.266 -0.6772,-0.067 -1.9428,-0.63 -1.9158,-1.14 0.0574,-1.188 0.4678,-2.042 1.1292,-2.886 0.7454,-0.964 3,-3.379 3.459,-3.791 1.1358,-1.011 1.265,-1.739 1.5462,-2.031 0.5162,-0.563 0.8599,-0.5 1.2923,-0.24 0.8172,0.489 0.5,1.161 0.5,1.161 z"
     id="path322" />
  <path
     style="fill:#231f20;fill-opacity:1;fill-rule:nonzero;stroke:none"
     d="m 58.8545,67.646 c 0.9896,0.834 -0.5839,2.12 -0.9479,2.526 -0.3641,0.401 -1.2652,1.672 -1.8437,2.75 -0.5776,1.078 -1.7606,2.178 -2.8641,4.224 -0.5787,1.083 -1.823,1.76 -3.3547,0.854 -1.5052,-0.895 -1.5683,-2.083 -0.6719,-3.282 0.9011,-1.197 2.2506,-1.942 3.2396,-3.088 0.9844,-1.14 1.8853,-2.401 2.5468,-3.416 0.7505,-1.162 1.5521,-1.458 2.0267,-1.376 1.176,0.21 1.8692,0.808 1.8692,0.808"
     id="path323" />
  <path
     style="fill:none;stroke:#231f20;stroke-width:0.565977;stroke-linecap:butt;stroke-linejoin:miter;stroke-miterlimit:4;stroke-dasharray:none;stroke-opacity:1"
     d="m 58.8545,67.646 c 0.9896,0.834 -0.5839,2.12 -0.9479,2.526 -0.3641,0.401 -1.2652,1.672 -1.8437,2.75 -0.5776,1.078 -1.7606,2.178 -2.8641,4.224 -0.5787,1.083 -1.823,1.76 -3.3547,0.854 -1.5052,-0.895 -1.5683,-2.083 -0.6719,-3.282 0.9011,-1.197 2.2506,-1.942 3.2396,-3.088 0.9844,-1.14 1.8853,-2.401 2.5468,-3.416 0.7505,-1.162 1.5521,-1.458 2.0267,-1.376 1.176,0.21 1.8692,0.808 1.8692,0.808 z"
     id="path324" />
  <path
     style="fill:#231f20;fill-opacity:1;fill-rule:nonzero;stroke:none"
     d="m 225.3648,56.881 c 0.692,0.058 1.572,2.198 1.333,2.411 -0.24,0.204 -0.453,-0.531 -0.729,-0.307 -0.281,0.224 -0.068,0.672 -0.281,0.766 -0.235,0.098 -0.396,-0.484 -0.646,-0.318 -0.11,0.078 -0.157,0.667 -0.349,0.687 -0.167,0.016 -0.495,-0.396 -0.631,-0.385 -0.213,0.005 -0.098,0.609 -0.27,0.636 -0.464,0.062 -0.615,-2.652 -0.448,-2.818 0.254,-0.25 0.896,-0.766 2.021,-0.672"
     id="path325" />
  <path
     style="fill:none;stroke:#231f20;stroke-width:0.565977;stroke-linecap:round;stroke-linejoin:round;stroke-miterlimit:4;stroke-dasharray:none;stroke-opacity:1"
     d="m 225.3648,56.881 c 0.692,0.058 1.572,2.198 1.333,2.411 -0.24,0.204 -0.453,-0.531 -0.729,-0.307 -0.281,0.224 -0.068,0.672 -0.281,0.766 -0.235,0.098 -0.396,-0.484 -0.646,-0.318 -0.11,0.078 -0.157,0.667 -0.349,0.687 -0.167,0.016 -0.495,-0.396 -0.631,-0.385 -0.213,0.005 -0.098,0.609 -0.27,0.636 -0.464,0.062 -0.615,-2.652 -0.448,-2.818 0.254,-0.25 0.896,-0.766 2.021,-0.672 z"
     id="path326" />
  <path
     style="fill:#231f20;fill-opacity:1;fill-rule:nonzero;stroke:none"
     d="m 36.0056,112.98 c -0.1511,0.588 -0.2604,1.369 -0.1975,1.948 l -0.5842,-0.828 -0.973,-0.262 c 0.5624,-0.14 1.2547,-0.509 1.7547,-0.858"
     id="path328" />
</svg>
