<?xml version="1.0" encoding="UTF-8" standalone="no"?>
<!-- Created with Inkscape (http://www.inkscape.org/) -->

<svg
   version="1.1"
   id="svg1"
   width="360.46878"
   height="97.997948"
   viewBox="0 0 360.46877 97.997948"
   sodipodi:docname="cell.svg"
   xmlns:inkscape="http://www.inkscape.org/namespaces/inkscape"
   xmlns:sodipodi="http://sodipodi.sourceforge.net/DTD/sodipodi-0.dtd"
   xmlns="http://www.w3.org/2000/svg"
   xmlns:svg="http://www.w3.org/2000/svg">
  <sodipodi:namedview
     id="namedview1"
     pagecolor="#ffffff"
     bordercolor="#000000"
     borderopacity="0.25"
     inkscape:showpageshadow="2"
     inkscape:pageopacity="0.0"
     inkscape:pagecheckerboard="0"
     inkscape:deskcolor="#d1d1d1">
    <inkscape:page
       x="0"
       y="0"
       inkscape:label="1"
       id="page1"
       width="360.46878"
       height="97.997948"
       margin="0"
       bleed="0" />
  </sodipodi:namedview>
  <defs
     id="defs1" />
  <path
     style="fill:#ffffff;fill-opacity:1;fill-rule:nonzero;stroke:none"
     d="M 0,18.875 H 18.875 V 0 H 0 Z"
     id="path260" />
  <path
     style="fill:#ffffff;fill-opacity:1;fill-rule:nonzero;stroke:none"
     d="m 343.5418,18.875 h 16.927 V 0 h -16.927 z"
     id="path261" />
  <path
     style="fill:#231f20;fill-opacity:1;fill-rule:nonzero;stroke:none"
     d="m 22.4535,87.853 c -0.8281,-1.066 -0.312,-1.916 0.6719,-2.244 0.2922,-0.1 0.4428,-0.485 0.7401,-0.557 0.6812,-0.167 2.1401,0.791 1.6505,2.208 -0.036,0.104 -0.0625,0.921 -0.1718,1.531 -0.224,1.193 -1.2443,3.469 -3.7708,4.406 -1.1975,0.448 -1.2402,-0.338 -0.8068,-0.666 1.3588,-1.036 1.276,-1.396 1.5358,-1.798 0.8855,-1.358 0.1511,-2.88 0.1511,-2.88"
     id="path262" />
  <path
     style="fill:none;stroke:#231f20;stroke-width:0.332927;stroke-linecap:butt;stroke-linejoin:miter;stroke-miterlimit:4;stroke-dasharray:none;stroke-opacity:1"
     d="m 22.4535,87.853 c -0.8281,-1.066 -0.312,-1.916 0.6719,-2.244 0.2922,-0.1 0.4428,-0.485 0.7401,-0.557 0.6812,-0.167 2.1401,0.791 1.6505,2.208 -0.036,0.104 -0.0625,0.921 -0.1718,1.531 -0.224,1.193 -1.2443,3.469 -3.7708,4.406 -1.1975,0.448 -1.2402,-0.338 -0.8068,-0.666 1.3588,-1.036 1.276,-1.396 1.5358,-1.798 0.8855,-1.358 0.1511,-2.88 0.1511,-2.88 z"
     id="path263" />
  <path
     style="fill:#231f20;fill-opacity:1;fill-rule:nonzero;stroke:none"
     d="m 28.8493,70.229 c -2.0879,-0.865 -2.6145,-0.75 -3.0411,0.11 -0.2818,0.572 -0.74,1.005 -0.9282,1.342 -0.629,1.142 -1.2186,3.303 -1.2853,9.891 -0.0104,1.495 -0.048,3.589 -0.1308,4.443 -0.1307,1.349 2.2027,0.652 2.26,0.12 0.1828,-1.703 0.4484,-2.859 0.5948,-3.463 0.1041,-0.417 0.1869,-1.177 0.7905,-2.724 0.9229,-2.36 1.8188,-3.631 2.3547,-5.677 0.2494,-0.948 1.0417,-1.506 0.8068,-2.563 -0.2282,-1.063 -1.4214,-1.479 -1.4214,-1.479"
     id="path264" />
  <path
     style="fill:none;stroke:#231f20;stroke-width:0.565977;stroke-linecap:butt;stroke-linejoin:miter;stroke-miterlimit:4;stroke-dasharray:none;stroke-opacity:1"
     d="m 28.8493,70.229 c -2.0879,-0.865 -2.6145,-0.75 -3.0411,0.11 -0.2818,0.572 -0.74,1.005 -0.9282,1.342 -0.629,1.142 -1.2186,3.303 -1.2853,9.891 -0.0104,1.495 -0.048,3.589 -0.1308,4.443 -0.1307,1.349 2.2027,0.652 2.26,0.12 0.1828,-1.703 0.4484,-2.859 0.5948,-3.463 0.1041,-0.417 0.1869,-1.177 0.7905,-2.724 0.9229,-2.36 1.8188,-3.631 2.3547,-5.677 0.2494,-0.948 1.0417,-1.506 0.8068,-2.563 -0.2282,-1.063 -1.4214,-1.479 -1.4214,-1.479 z"
     id="path265" />
  <path
     style="fill:#ca0369;fill-opacity:1;fill-rule:nonzero;stroke:none"
     d="m 32.4853,44.489 c -0.7401,3.047 -1.2344,3.62 -1.7813,4.359 -3.4588,4.631 -1.1197,6.24 1.7599,6.401 3.3854,0.194 4.5933,0.328 5.4896,-5.905 0.2505,-1.729 2.0677,-8.256 2.0677,-8.256 0.9682,-2.245 0.7084,-4.959 -0.2651,-6.031 -1.0374,-1.136 -0.7094,-0.614 -1.8598,-1.494 -1.0882,-0.834 -3.2606,-1.095 -4.1667,-0.262 -0.8751,0.808 -0.5256,2.438 -0.3391,4.855 0.152,1.907 -0.9052,6.333 -0.9052,6.333"
     id="path266" />
  <path
     style="fill:none;stroke:#231f20;stroke-width:0.565977;stroke-linecap:butt;stroke-linejoin:miter;stroke-miterlimit:4;stroke-dasharray:none;stroke-opacity:1"
     d="m 32.4853,44.489 c -0.7401,3.047 -1.2344,3.62 -1.7813,4.359 -3.4588,4.631 -1.1197,6.24 1.7599,6.401 3.3854,0.194 4.5933,0.328 5.4896,-5.905 0.2505,-1.729 2.0677,-8.256 2.0677,-8.256 0.9682,-2.245 0.7084,-4.959 -0.2651,-6.031 -1.0374,-1.136 -0.7094,-0.614 -1.8598,-1.494 -1.0882,-0.834 -3.2606,-1.095 -4.1667,-0.262 -0.8751,0.808 -0.5256,2.438 -0.3391,4.855 0.152,1.907 -0.9052,6.333 -0.9052,6.333 z"
     id="path267" />
  <path
     style="fill:#ffffff;fill-opacity:1;fill-rule:nonzero;stroke:none"
     d="m 40.516,27.563 c 0.0521,-0.24 1.1932,-0.319 1.1973,-0.839 0,-0.526 -0.7599,-0.734 -1.5989,-2.537 l -0.0052,-0.02 c -0.5667,-1.339 -1.6036,-2.267 -2.8479,-2.376 -2.0682,-0.181 -3.948,1.953 -4.1932,4.767 -0.2453,2.811 1.2291,5.238 3.2974,5.421 1.9786,0.177 3.7865,-1.782 4.1505,-4.416"
     id="path268" />
  <path
     style="fill:none;stroke:#231f20;stroke-width:0.565977;stroke-linecap:butt;stroke-linejoin:miter;stroke-miterlimit:4;stroke-dasharray:none;stroke-opacity:1"
     d="m 40.516,27.563 c 0.0521,-0.24 1.1932,-0.319 1.1973,-0.839 0,-0.526 -0.7599,-0.734 -1.5989,-2.537 l -0.0052,-0.02 c -0.5667,-1.339 -1.6036,-2.267 -2.8479,-2.376 -2.0682,-0.181 -3.948,1.953 -4.1932,4.767 -0.2453,2.811 1.2291,5.238 3.2974,5.421 1.9786,0.177 3.7865,-1.782 4.1505,-4.416 z"
     id="path269" />
  <path
     style="fill:#231f20;fill-opacity:1;fill-rule:nonzero;stroke:none"
     d="m 27.4067,72.239 c 3.5624,1.838 3.6197,-2.244 3.8385,-2.662 2.3229,-4.442 2.3749,-4.817 3.9015,-8.322 2.2188,-5.068 2.9532,-8.875 0.3854,-11.022 -1.7453,-1.457 -3.3801,-1.541 -4.5426,-0.916 -1.2803,0.698 -3.0574,3.334 -1.9,5.979 l -0.2402,1.693 c -0.312,1.12 -0.453,1.683 -0.6562,2.224 -0.3438,0.938 -0.6464,1.968 -1.2131,3.844 -1,3.323 -0.9744,7.167 -0.9744,7.167 -0.3281,1.197 1.4011,2.015 1.4011,2.015"
     id="path270" />
  <path
     style="fill:none;stroke:#231f20;stroke-width:0.565977;stroke-linecap:butt;stroke-linejoin:miter;stroke-miterlimit:4;stroke-dasharray:none;stroke-opacity:1"
     d="m 27.4067,72.239 c 3.5624,1.838 3.6197,-2.244 3.8385,-2.662 2.3229,-4.442 2.3749,-4.817 3.9015,-8.322 2.2188,-5.068 2.9532,-8.875 0.3854,-11.022 -1.7453,-1.457 -3.3801,-1.541 -4.5426,-0.916 -1.2803,0.698 -3.0574,3.334 -1.9,5.979 l -0.2402,1.693 c -0.312,1.12 -0.453,1.683 -0.6562,2.224 -0.3438,0.938 -0.6464,1.968 -1.2131,3.844 -1,3.323 -0.9744,7.167 -0.9744,7.167 -0.3281,1.197 1.4011,2.015 1.4011,2.015 z"
     id="path271" />
  <path
     style="fill:#ca0369;fill-opacity:1;fill-rule:nonzero;stroke:none"
     d="m 37.1415,54.015 c -0.0058,-1.558 -0.475,-2.839 -1.6094,-3.782 -1.7453,-1.457 -3.3801,-1.541 -4.5374,-0.916 -1.2855,0.698 -3.0626,3.334 -1.9052,5.979 l 7.2437,2.928 c 0.2093,-0.62 0.3708,-1.209 0.5,-1.776 0.0427,-0.068 0.0844,-0.136 0.1307,-0.188 0.5214,-0.62 0.4068,-1.235 0.1776,-2.245"
     id="path272" />
  <path
     style="fill:none;stroke:#231f20;stroke-width:0.565977;stroke-linecap:butt;stroke-linejoin:miter;stroke-miterlimit:4;stroke-dasharray:none;stroke-opacity:1"
     d="m 37.1415,54.015 c -0.0058,-1.558 -0.475,-2.839 -1.6094,-3.782 -1.7453,-1.457 -3.3801,-1.541 -4.5374,-0.916 -1.2855,0.698 -3.0626,3.334 -1.9052,5.979 l 7.2437,2.928 c 0.2093,-0.62 0.3708,-1.209 0.5,-1.776 0.0427,-0.068 0.0844,-0.136 0.1307,-0.188 0.5214,-0.62 0.4068,-1.235 0.1776,-2.245 z"
     id="path273" />
  <path
     style="fill:#231f20;fill-opacity:1;fill-rule:nonzero;stroke:none"
     d="m 31.3597,55.5 c -0.2598,-0.589 0.3178,-2.453 0.1667,-4.052 -0.1036,-1.079 0.776,-3.683 0.5937,-4.745 -0.1614,-0.984 -0.151,-1.448 0.9428,-1.828 0.6411,-0.23 2.0266,-0.251 2.2182,0.224 0.4485,1.104 0.4322,2.052 0.1937,3.093 -0.276,1.183 -1.3083,4.328 -1.552,4.896 -0.6041,1.396 -0.4229,2.104 -0.5469,2.489 -0.2344,0.724 -0.5678,0.814 -1.0735,0.762 -0.9531,-0.1 -0.9427,-0.839 -0.9427,-0.839"
     id="path274" />
  <path
     style="fill:none;stroke:#231f20;stroke-width:0.565977;stroke-linecap:butt;stroke-linejoin:miter;stroke-miterlimit:4;stroke-dasharray:none;stroke-opacity:1"
     d="m 31.3597,55.5 c -0.2598,-0.589 0.3178,-2.453 0.1667,-4.052 -0.1036,-1.079 0.776,-3.683 0.5937,-4.745 -0.1614,-0.984 -0.151,-1.448 0.9428,-1.828 0.6411,-0.23 2.0266,-0.251 2.2182,0.224 0.4485,1.104 0.4322,2.052 0.1937,3.093 -0.276,1.183 -1.3083,4.328 -1.552,4.896 -0.6041,1.396 -0.4229,2.104 -0.5469,2.489 -0.2344,0.724 -0.5678,0.814 -1.0735,0.762 -0.9531,-0.1 -0.9427,-0.839 -0.9427,-0.839 z"
     id="path275" />
  <path
     style="fill:#231f20;fill-opacity:1;fill-rule:nonzero;stroke:none"
     d="m 32.7811,46.552 c -1.249,-0.344 -0.3635,-2.177 -0.2026,-2.693 0.1563,-0.52 0.4479,-2.052 0.5214,-3.271 0.0666,-1.224 0.676,-2.713 0.8177,-5.036 0.0719,-1.224 0.9156,-2.365 2.6812,-2.183 1.7453,0.178 2.3079,1.23 1.9959,2.694 -0.3136,1.462 -1.224,2.708 -1.6412,4.166 -0.4162,1.448 -0.7083,2.968 -0.875,4.171 -0.1985,1.371 -0.7974,1.975 -1.2598,2.095 -1.1574,0.306 -2.0376,0.057 -2.0376,0.057"
     id="path276" />
  <path
     style="fill:none;stroke:#231f20;stroke-width:0.565977;stroke-linecap:butt;stroke-linejoin:miter;stroke-miterlimit:4;stroke-dasharray:none;stroke-opacity:1"
     d="m 32.7811,46.552 c -1.249,-0.344 -0.3635,-2.177 -0.2026,-2.693 0.1563,-0.52 0.4479,-2.052 0.5214,-3.271 0.0666,-1.224 0.676,-2.713 0.8177,-5.036 0.0719,-1.224 0.9156,-2.365 2.6812,-2.183 1.7453,0.178 2.3079,1.23 1.9959,2.694 -0.3136,1.462 -1.224,2.708 -1.6412,4.166 -0.4162,1.448 -0.7083,2.968 -0.875,4.171 -0.1985,1.371 -0.7974,1.975 -1.2598,2.095 -1.1574,0.306 -2.0376,0.057 -2.0376,0.057 z"
     id="path277" />
  <path
     style="fill:#ffffff;fill-opacity:1;fill-rule:nonzero;stroke:none"
     d="m 28.4119,52.921 c 0,-2.354 1.9161,-4.265 4.2708,-4.265 2.3546,0 4.2708,1.911 4.2708,4.265 0,2.36 -1.9162,4.271 -4.2708,4.271 -2.3547,0 -4.2708,-1.911 -4.2708,-4.271 m -1.3334,0 c 0,3.09 2.5162,5.604 5.6042,5.604 3.088,0 5.5984,-2.514 5.5984,-5.604 0,-3.082 -2.5104,-5.598 -5.5984,-5.598 -3.088,0 -5.6042,2.516 -5.6042,5.598"
     id="path279" />
  <path
     style="fill:none;stroke:#231f20;stroke-width:0.665856;stroke-linecap:butt;stroke-linejoin:miter;stroke-miterlimit:4;stroke-dasharray:none;stroke-opacity:1"
     d="m 28.4119,52.921 c 0,-2.354 1.9161,-4.265 4.2708,-4.265 2.3546,0 4.2708,1.911 4.2708,4.265 0,2.36 -1.9162,4.271 -4.2708,4.271 -2.3547,0 -4.2708,-1.911 -4.2708,-4.271 z m -1.3334,0 c 0,3.09 2.5162,5.604 5.6042,5.604 3.088,0 5.5984,-2.514 5.5984,-5.604 0,-3.082 -2.5104,-5.598 -5.5984,-5.598 -3.088,0 -5.6042,2.516 -5.6042,5.598 z"
     id="path280" />
  <path
     style="fill:#231f20;fill-opacity:1;fill-rule:nonzero;stroke:none"
     d="m 33.2092,55.88 c 0.5828,0.396 0.2907,2.692 -0.0213,2.755 -0.312,0.068 -0.1307,-0.682 -0.4839,-0.624 -0.3547,0.056 -0.3907,0.556 -0.6197,0.53 -0.2511,-0.032 -0.1095,-0.614 -0.412,-0.593 -0.1298,0.009 -0.4631,0.505 -0.6402,0.427 -0.1521,-0.074 -0.2349,-0.584 -0.3546,-0.646 -0.1922,-0.1 -0.3855,0.484 -0.5522,0.416 -0.4322,-0.166 0.7652,-2.604 0.9948,-2.666 0.3438,-0.099 1.1558,-0.23 2.0891,0.401"
     id="path281" />
  <path
     style="fill:none;stroke:#231f20;stroke-width:0.565977;stroke-linecap:round;stroke-linejoin:round;stroke-miterlimit:4;stroke-dasharray:none;stroke-opacity:1"
     d="m 33.2092,55.88 c 0.5828,0.396 0.2907,2.692 -0.0213,2.755 -0.312,0.068 -0.1307,-0.682 -0.4839,-0.624 -0.3547,0.056 -0.3907,0.556 -0.6197,0.53 -0.2511,-0.032 -0.1095,-0.614 -0.412,-0.593 -0.1298,0.009 -0.4631,0.505 -0.6402,0.427 -0.1521,-0.074 -0.2349,-0.584 -0.3546,-0.646 -0.1922,-0.1 -0.3855,0.484 -0.5522,0.416 -0.4322,-0.166 0.7652,-2.604 0.9948,-2.666 0.3438,-0.099 1.1558,-0.23 2.0891,0.401 z"
     id="path282" />
  <path
     style="fill:#231f20;fill-opacity:1;fill-rule:nonzero;stroke:none"
     d="m 324.8538,87.853 c -0.828,-1.066 -0.312,-1.916 0.672,-2.244 0.292,-0.1 0.443,-0.485 0.739,-0.557 0.682,-0.167 2.141,0.791 1.652,2.208 -0.038,0.104 -0.063,0.921 -0.172,1.531 -0.224,1.193 -1.246,3.469 -3.771,4.406 -1.199,0.448 -1.24,-0.338 -0.808,-0.666 1.36,-1.036 1.276,-1.396 1.537,-1.798 0.886,-1.358 0.151,-2.88 0.151,-2.88"
     id="path283" />
  <path
     style="fill:none;stroke:#231f20;stroke-width:0.332927;stroke-linecap:butt;stroke-linejoin:miter;stroke-miterlimit:4;stroke-dasharray:none;stroke-opacity:1"
     d="m 324.8538,87.853 c -0.828,-1.066 -0.312,-1.916 0.672,-2.244 0.292,-0.1 0.443,-0.485 0.739,-0.557 0.682,-0.167 2.141,0.791 1.652,2.208 -0.038,0.104 -0.063,0.921 -0.172,1.531 -0.224,1.193 -1.246,3.469 -3.771,4.406 -1.199,0.448 -1.24,-0.338 -0.808,-0.666 1.36,-1.036 1.276,-1.396 1.537,-1.798 0.886,-1.358 0.151,-2.88 0.151,-2.88 z"
     id="path284" />
  <path
     style="fill:#231f20;fill-opacity:1;fill-rule:nonzero;stroke:none"
     d="m 331.2548,70.229 c -2.094,-0.865 -2.62,-0.75 -3.046,0.11 -0.282,0.572 -0.74,1.005 -0.928,1.342 -0.63,1.142 -1.219,3.303 -1.287,9.891 -0.009,1.495 -0.047,3.589 -0.129,4.443 -0.131,1.349 2.202,0.652 2.26,0.12 0.182,-1.703 0.448,-2.859 0.593,-3.463 0.104,-0.417 0.188,-1.177 0.792,-2.724 0.923,-2.36 1.817,-3.631 2.355,-5.677 0.249,-0.948 1.041,-1.506 0.806,-2.563 -0.229,-1.063 -1.416,-1.479 -1.416,-1.479"
     id="path285" />
  <path
     style="fill:none;stroke:#231f20;stroke-width:0.565977;stroke-linecap:butt;stroke-linejoin:miter;stroke-miterlimit:4;stroke-dasharray:none;stroke-opacity:1"
     d="m 331.2548,70.229 c -2.094,-0.865 -2.62,-0.75 -3.046,0.11 -0.282,0.572 -0.74,1.005 -0.928,1.342 -0.63,1.142 -1.219,3.303 -1.287,9.891 -0.009,1.495 -0.047,3.589 -0.129,4.443 -0.131,1.349 2.202,0.652 2.26,0.12 0.182,-1.703 0.448,-2.859 0.593,-3.463 0.104,-0.417 0.188,-1.177 0.792,-2.724 0.923,-2.36 1.817,-3.631 2.355,-5.677 0.249,-0.948 1.041,-1.506 0.806,-2.563 -0.229,-1.063 -1.416,-1.479 -1.416,-1.479 z"
     id="path286" />
  <path
     style="fill:#ca0369;fill-opacity:1;fill-rule:nonzero;stroke:none"
     d="m 334.8848,44.489 c -0.739,3.047 -1.234,3.62 -1.782,4.359 -3.457,4.631 -1.118,6.24 1.762,6.401 3.385,0.194 4.593,0.328 5.489,-5.905 0.249,-1.729 2.068,-8.256 2.068,-8.256 0.968,-2.245 0.708,-4.959 -0.267,-6.031 -1.036,-1.136 -0.708,-0.614 -1.858,-1.494 -1.088,-0.834 -3.26,-1.095 -4.167,-0.262 -0.875,0.808 -0.527,2.438 -0.333,4.855 0.14,1.907 -0.912,6.333 -0.912,6.333"
     id="path287" />
  <path
     style="fill:none;stroke:#231f20;stroke-width:0.565977;stroke-linecap:butt;stroke-linejoin:miter;stroke-miterlimit:4;stroke-dasharray:none;stroke-opacity:1"
     d="m 334.8848,44.489 c -0.739,3.047 -1.234,3.62 -1.782,4.359 -3.457,4.631 -1.118,6.24 1.762,6.401 3.385,0.194 4.593,0.328 5.489,-5.905 0.249,-1.729 2.068,-8.256 2.068,-8.256 0.968,-2.245 0.708,-4.959 -0.267,-6.031 -1.036,-1.136 -0.708,-0.614 -1.858,-1.494 -1.088,-0.834 -3.26,-1.095 -4.167,-0.262 -0.875,0.808 -0.527,2.438 -0.333,4.855 0.14,1.907 -0.912,6.333 -0.912,6.333 z"
     id="path288" />
  <path
     style="fill:#ffffff;fill-opacity:1;fill-rule:nonzero;stroke:none"
     d="m 342.9168,27.563 c 0.052,-0.24 1.192,-0.319 1.197,-0.839 0,-0.526 -0.755,-0.734 -1.599,-2.537 l -0.005,-0.02 c -0.568,-1.339 -1.604,-2.267 -2.849,-2.376 -2.067,-0.181 -3.948,1.953 -4.192,4.767 -0.246,2.811 1.229,5.238 3.297,5.421 1.979,0.177 3.791,-1.782 4.151,-4.416"
     id="path289" />
  <path
     style="fill:none;stroke:#231f20;stroke-width:0.565977;stroke-linecap:butt;stroke-linejoin:miter;stroke-miterlimit:4;stroke-dasharray:none;stroke-opacity:1"
     d="m 342.9168,27.563 c 0.052,-0.24 1.192,-0.319 1.197,-0.839 0,-0.526 -0.755,-0.734 -1.599,-2.537 l -0.005,-0.02 c -0.568,-1.339 -1.604,-2.267 -2.849,-2.376 -2.067,-0.181 -3.948,1.953 -4.192,4.767 -0.246,2.811 1.229,5.238 3.297,5.421 1.979,0.177 3.791,-1.782 4.151,-4.416 z"
     id="path290" />
  <path
     style="fill:#231f20;fill-opacity:1;fill-rule:nonzero;stroke:none"
     d="m 329.8068,72.239 c 3.568,1.838 3.62,-2.244 3.839,-2.662 2.323,-4.442 2.375,-4.817 3.905,-8.322 2.215,-5.068 2.948,-8.875 0.38,-11.022 -1.744,-1.457 -3.38,-1.541 -4.541,-0.916 -1.276,0.698 -3.057,3.334 -1.901,5.979 l -0.239,1.693 c -0.313,1.12 -0.453,1.683 -0.656,2.224 -0.344,0.938 -0.647,1.968 -1.209,3.844 -1.006,3.323 -0.979,7.167 -0.979,7.167 -0.328,1.197 1.401,2.015 1.401,2.015"
     id="path291" />
  <path
     style="fill:none;stroke:#231f20;stroke-width:0.565977;stroke-linecap:butt;stroke-linejoin:miter;stroke-miterlimit:4;stroke-dasharray:none;stroke-opacity:1"
     d="m 329.8068,72.239 c 3.568,1.838 3.62,-2.244 3.839,-2.662 2.323,-4.442 2.375,-4.817 3.905,-8.322 2.215,-5.068 2.948,-8.875 0.38,-11.022 -1.744,-1.457 -3.38,-1.541 -4.541,-0.916 -1.276,0.698 -3.057,3.334 -1.901,5.979 l -0.239,1.693 c -0.313,1.12 -0.453,1.683 -0.656,2.224 -0.344,0.938 -0.647,1.968 -1.209,3.844 -1.006,3.323 -0.979,7.167 -0.979,7.167 -0.328,1.197 1.401,2.015 1.401,2.015 z"
     id="path292" />
  <path
     style="fill:#ca0369;fill-opacity:1;fill-rule:nonzero;stroke:none"
     d="m 339.5418,54.02 c -0.005,-1.563 -0.475,-2.844 -1.611,-3.787 -1.744,-1.457 -3.38,-1.541 -4.536,-0.916 -1.286,0.698 -3.062,3.334 -1.906,5.979 l 7.245,2.933 c 0.208,-0.625 0.369,-1.214 0.5,-1.786 0.047,-0.068 0.084,-0.131 0.131,-0.188 0.52,-0.615 0.41,-1.23 0.177,-2.235"
     id="path293" />
  <path
     style="fill:none;stroke:#231f20;stroke-width:0.565977;stroke-linecap:butt;stroke-linejoin:miter;stroke-miterlimit:4;stroke-dasharray:none;stroke-opacity:1"
     d="m 339.5418,54.02 c -0.005,-1.563 -0.475,-2.844 -1.611,-3.787 -1.744,-1.457 -3.38,-1.541 -4.536,-0.916 -1.286,0.698 -3.062,3.334 -1.906,5.979 l 7.245,2.933 c 0.208,-0.625 0.369,-1.214 0.5,-1.786 0.047,-0.068 0.084,-0.131 0.131,-0.188 0.52,-0.615 0.41,-1.23 0.177,-2.235 z"
     id="path294" />
  <path
     style="fill:#231f20;fill-opacity:1;fill-rule:nonzero;stroke:none"
     d="m 333.7608,55.5 c -0.256,-0.589 0.317,-2.453 0.166,-4.052 -0.1,-1.079 0.776,-3.683 0.594,-4.745 -0.162,-0.984 -0.151,-1.448 0.942,-1.828 0.64,-0.23 2.026,-0.251 2.219,0.224 0.448,1.104 0.432,2.052 0.193,3.093 -0.277,1.183 -1.308,4.328 -1.553,4.896 -0.604,1.396 -0.421,2.104 -0.547,2.489 -0.233,0.724 -0.566,0.814 -1.072,0.762 -0.953,-0.1 -0.942,-0.839 -0.942,-0.839"
     id="path295" />
  <path
     style="fill:none;stroke:#231f20;stroke-width:0.565977;stroke-linecap:butt;stroke-linejoin:miter;stroke-miterlimit:4;stroke-dasharray:none;stroke-opacity:1"
     d="m 333.7608,55.5 c -0.256,-0.589 0.317,-2.453 0.166,-4.052 -0.1,-1.079 0.776,-3.683 0.594,-4.745 -0.162,-0.984 -0.151,-1.448 0.942,-1.828 0.64,-0.23 2.026,-0.251 2.219,0.224 0.448,1.104 0.432,2.052 0.193,3.093 -0.277,1.183 -1.308,4.328 -1.553,4.896 -0.604,1.396 -0.421,2.104 -0.547,2.489 -0.233,0.724 -0.566,0.814 -1.072,0.762 -0.953,-0.1 -0.942,-0.839 -0.942,-0.839 z"
     id="path296" />
  <path
     style="fill:#231f20;fill-opacity:1;fill-rule:nonzero;stroke:none"
     d="m 335.1818,46.552 c -1.251,-0.344 -0.364,-2.177 -0.203,-2.693 0.162,-0.52 0.448,-2.052 0.52,-3.271 0.068,-1.224 0.678,-2.713 0.819,-5.036 0.072,-1.224 0.916,-2.365 2.687,-2.183 1.74,0.178 2.302,1.23 1.989,2.694 -0.312,1.462 -1.224,2.708 -1.64,4.166 -0.417,1.448 -0.708,2.968 -0.875,4.171 -0.198,1.371 -0.797,1.975 -1.261,2.095 -1.156,0.306 -2.036,0.057 -2.036,0.057"
     id="path297" />
  <path
     style="fill:none;stroke:#231f20;stroke-width:0.565977;stroke-linecap:butt;stroke-linejoin:miter;stroke-miterlimit:4;stroke-dasharray:none;stroke-opacity:1"
     d="m 335.1818,46.552 c -1.251,-0.344 -0.364,-2.177 -0.203,-2.693 0.162,-0.52 0.448,-2.052 0.52,-3.271 0.068,-1.224 0.678,-2.713 0.819,-5.036 0.072,-1.224 0.916,-2.365 2.687,-2.183 1.74,0.178 2.302,1.23 1.989,2.694 -0.312,1.462 -1.224,2.708 -1.64,4.166 -0.417,1.448 -0.708,2.968 -0.875,4.171 -0.198,1.371 -0.797,1.975 -1.261,2.095 -1.156,0.306 -2.036,0.057 -2.036,0.057 z"
     id="path298" />
  <path
     style="fill:#ffffff;fill-opacity:1;fill-rule:nonzero;stroke:none"
     d="m 330.8128,52.921 c 0,-2.354 1.916,-4.265 4.27,-4.265 2.354,0 4.271,1.911 4.271,4.265 0,2.36 -1.917,4.271 -4.271,4.271 -2.354,0 -4.27,-1.911 -4.27,-4.271 m -1.328,0 c 0,3.09 2.509,5.604 5.598,5.604 3.088,0 5.599,-2.514 5.599,-5.604 0,-3.082 -2.511,-5.598 -5.599,-5.598 -3.089,0 -5.598,2.516 -5.598,5.598"
     id="path300" />
  <path
     style="fill:none;stroke:#231f20;stroke-width:0.665856;stroke-linecap:butt;stroke-linejoin:miter;stroke-miterlimit:4;stroke-dasharray:none;stroke-opacity:1"
     d="m 330.8128,52.921 c 0,-2.354 1.916,-4.265 4.27,-4.265 2.354,0 4.271,1.911 4.271,4.265 0,2.36 -1.917,4.271 -4.271,4.271 -2.354,0 -4.27,-1.911 -4.27,-4.271 z m -1.328,0 c 0,3.09 2.509,5.604 5.598,5.604 3.088,0 5.599,-2.514 5.599,-5.604 0,-3.082 -2.511,-5.598 -5.599,-5.598 -3.089,0 -5.598,2.516 -5.598,5.598 z"
     id="path301" />
  <path
     style="fill:#231f20;fill-opacity:1;fill-rule:nonzero;stroke:none"
     d="m 335.6138,55.88 c 0.579,0.396 0.287,2.692 -0.025,2.755 -0.314,0.068 -0.131,-0.682 -0.486,-0.624 -0.353,0.056 -0.39,0.556 -0.618,0.53 -0.251,-0.032 -0.11,-0.614 -0.412,-0.593 -0.131,0.009 -0.459,0.505 -0.636,0.427 -0.156,-0.074 -0.239,-0.584 -0.359,-0.646 -0.193,-0.1 -0.385,0.484 -0.552,0.416 -0.432,-0.166 0.765,-2.604 0.995,-2.666 0.344,-0.099 1.156,-0.23 2.093,0.401"
     id="path302" />
  <path
     style="fill:none;stroke:#231f20;stroke-width:0.565977;stroke-linecap:round;stroke-linejoin:round;stroke-miterlimit:4;stroke-dasharray:none;stroke-opacity:1"
     d="m 335.6138,55.88 c 0.579,0.396 0.287,2.692 -0.025,2.755 -0.314,0.068 -0.131,-0.682 -0.486,-0.624 -0.353,0.056 -0.39,0.556 -0.618,0.53 -0.251,-0.032 -0.11,-0.614 -0.412,-0.593 -0.131,0.009 -0.459,0.505 -0.636,0.427 -0.156,-0.074 -0.239,-0.584 -0.359,-0.646 -0.193,-0.1 -0.385,0.484 -0.552,0.416 -0.432,-0.166 0.765,-2.604 0.995,-2.666 0.344,-0.099 1.156,-0.23 2.093,0.401 z"
     id="path303" />
  <path
     style="fill:#231f20;fill-opacity:1;fill-rule:nonzero;stroke:none"
     d="m 49.5946,67.932 c 0.2854,-1.323 1.2651,-1.469 2.1454,-0.927 0.2656,0.162 0.6614,0.031 0.9066,0.208 0.5667,0.416 0.7652,2.151 -0.6358,2.683 -0.099,0.041 -0.7402,0.547 -1.2812,0.853 -1.0522,0.599 -3.459,1.276 -5.7975,-0.057 -1.1135,-0.629 -0.5307,-1.167 -0.0041,-1.047 1.6666,0.375 1.8853,0.084 2.3588,0.022 1.6146,-0.194 2.3078,-1.735 2.3078,-1.735"
     id="path304" />
  <path
     style="fill:none;stroke:#231f20;stroke-width:0.332927;stroke-linecap:butt;stroke-linejoin:miter;stroke-miterlimit:4;stroke-dasharray:none;stroke-opacity:1"
     d="m 49.5946,67.932 c 0.2854,-1.323 1.2651,-1.469 2.1454,-0.927 0.2656,0.162 0.6614,0.031 0.9066,0.208 0.5667,0.416 0.7652,2.151 -0.6358,2.683 -0.099,0.041 -0.7402,0.547 -1.2812,0.853 -1.0522,0.599 -3.459,1.276 -5.7975,-0.057 -1.1135,-0.629 -0.5307,-1.167 -0.0041,-1.047 1.6666,0.375 1.8853,0.084 2.3588,0.022 1.6146,-0.194 2.3078,-1.735 2.3078,-1.735 z"
     id="path305" />
  <path
     style="fill:#231f20;fill-opacity:1;fill-rule:nonzero;stroke:none"
     d="m 67.2132,61.509 c -0.6869,-2.161 -1.1134,-2.489 -2.0467,-2.26 -0.6199,0.151 -1.249,0.079 -1.624,0.151 -1.2771,0.251 -3.313,1.193 -8.4011,5.371 -1.152,0.948 -2.776,2.27 -3.4853,2.754 -1.1188,0.766 0.912,2.104 1.3547,1.808 1.4223,-0.953 2.4786,-1.494 3.0358,-1.77 0.3865,-0.183 1.0215,-0.61 2.6,-1.147 2.3959,-0.807 3.948,-0.937 5.8589,-1.839 0.885,-0.421 1.8224,-0.172 2.4839,-1.03 0.6625,-0.855 0.2238,-2.038 0.2238,-2.038"
     id="path306" />
  <path
     style="fill:none;stroke:#231f20;stroke-width:0.565977;stroke-linecap:butt;stroke-linejoin:miter;stroke-miterlimit:4;stroke-dasharray:none;stroke-opacity:1"
     d="m 67.2132,61.509 c -0.6869,-2.161 -1.1134,-2.489 -2.0467,-2.26 -0.6199,0.151 -1.249,0.079 -1.624,0.151 -1.2771,0.251 -3.313,1.193 -8.4011,5.371 -1.152,0.948 -2.776,2.27 -3.4853,2.754 -1.1188,0.766 0.912,2.104 1.3547,1.808 1.4223,-0.953 2.4786,-1.494 3.0358,-1.77 0.3865,-0.183 1.0215,-0.61 2.6,-1.147 2.3959,-0.807 3.948,-0.937 5.8589,-1.839 0.885,-0.421 1.8224,-0.172 2.4839,-1.03 0.6625,-0.855 0.2238,-2.038 0.2238,-2.038 z"
     id="path307" />
  <path
     style="fill:#ca0369;fill-opacity:1;fill-rule:nonzero;stroke:none"
     d="m 90.2348,49.077 c -3.022,0.828 -3.76,0.672 -4.672,0.547 -5.724,-0.791 -6.0057,2.032 -4.761,4.636 1.474,3.057 1.933,4.183 7.823,1.953 1.636,-0.614 8.23,-2.172 8.23,-2.172 2.437,-0.24 4.682,-1.77 5.156,-3.15 0.5,-1.454 0.193,-0.912 0.412,-2.344 0.202,-1.36 -0.615,-3.386 -1.787,-3.776 -1.13,-0.38 -2.385,0.713 -4.417,2.046 -1.594,1.052 -5.984,2.26 -5.984,2.26"
     id="path308" />
  <path
     style="fill:none;stroke:#231f20;stroke-width:0.565977;stroke-linecap:butt;stroke-linejoin:miter;stroke-miterlimit:4;stroke-dasharray:none;stroke-opacity:1"
     d="m 90.2348,49.077 c -3.022,0.828 -3.76,0.672 -4.672,0.547 -5.724,-0.791 -6.0057,2.032 -4.761,4.636 1.474,3.057 1.933,4.183 7.823,1.953 1.636,-0.614 8.23,-2.172 8.23,-2.172 2.437,-0.24 4.682,-1.77 5.156,-3.15 0.5,-1.454 0.193,-0.912 0.412,-2.344 0.202,-1.36 -0.615,-3.386 -1.787,-3.776 -1.13,-0.38 -2.385,0.713 -4.417,2.046 -1.594,1.052 -5.984,2.26 -5.984,2.26 z"
     id="path309" />
  <path
     style="fill:#ffffff;fill-opacity:1;fill-rule:nonzero;stroke:none"
     d="m 108.8798,46.509 c 0.215,-0.104 0.98,0.751 1.396,0.428 0.412,-0.317 0.115,-1.041 1.021,-2.813 l 0.016,-0.015 c 0.708,-1.27 0.812,-2.656 0.13,-3.709 -1.124,-1.749 -3.958,-1.921 -6.334,-0.395 -2.374,1.531 -3.39,4.182 -2.265,5.927 1.079,1.672 3.724,1.907 6.036,0.577"
     id="path310" />
  <path
     style="fill:none;stroke:#231f20;stroke-width:0.565977;stroke-linecap:butt;stroke-linejoin:miter;stroke-miterlimit:4;stroke-dasharray:none;stroke-opacity:1"
     d="m 108.8798,46.509 c 0.215,-0.104 0.98,0.751 1.396,0.428 0.412,-0.317 0.115,-1.041 1.021,-2.813 l 0.016,-0.015 c 0.708,-1.27 0.812,-2.656 0.13,-3.709 -1.124,-1.749 -3.958,-1.921 -6.334,-0.395 -2.374,1.531 -3.39,4.182 -2.265,5.927 1.079,1.672 3.724,1.907 6.036,0.577 z"
     id="path311" />
  <path
     style="fill:#231f20;fill-opacity:1;fill-rule:nonzero;stroke:none"
     d="m 64.7451,61.692 c 0.875,3.917 4.0359,1.333 4.5057,1.229 4.8958,-1.073 5.2182,-1.276 8.8848,-2.349 5.3012,-1.561 8.6922,-3.443 8.6872,-6.791 -0.004,-2.276 -0.99,-3.584 -2.219,-4.068 -1.353,-0.532 -4.5144,-0.204 -5.7958,2.386 l -1.4536,0.906 c -1.0625,0.479 -1.5838,0.728 -2.1249,0.922 -0.9428,0.344 -1.9272,0.77 -3.7297,1.541 -3.1866,1.365 -6.1145,3.86 -6.1145,3.86 -1.1292,0.515 -0.6402,2.364 -0.6402,2.364"
     id="path312" />
  <path
     style="fill:none;stroke:#231f20;stroke-width:0.565977;stroke-linecap:butt;stroke-linejoin:miter;stroke-miterlimit:4;stroke-dasharray:none;stroke-opacity:1"
     d="m 64.7451,61.692 c 0.875,3.917 4.0359,1.333 4.5057,1.229 4.8958,-1.073 5.2182,-1.276 8.8848,-2.349 5.3012,-1.561 8.6922,-3.443 8.6872,-6.791 -0.004,-2.276 -0.99,-3.584 -2.219,-4.068 -1.353,-0.532 -4.5144,-0.204 -5.7958,2.386 l -1.4536,0.906 c -1.0625,0.479 -1.5838,0.728 -2.1249,0.922 -0.9428,0.344 -1.9272,0.77 -3.7297,1.541 -3.1866,1.365 -6.1145,3.86 -6.1145,3.86 -1.1292,0.515 -0.6402,2.364 -0.6402,2.364 z"
     id="path313" />
  <path
     style="fill:#ca0369;fill-opacity:1;fill-rule:nonzero;stroke:none"
     d="m 86.8228,53.781 c -0.004,-2.276 -0.99,-3.584 -2.219,-4.068 -1.359,-0.532 -4.5144,-0.204 -5.7958,2.386 l 2.4048,7.432 c 0.61,-0.24 1.163,-0.495 1.683,-0.76 0.079,-0.011 0.161,-0.022 0.235,-0.022 0.801,0 1.202,-0.484 1.823,-1.301 1.193,-1.005 1.869,-2.188 1.869,-3.667"
     id="path314" />
  <path
     style="fill:none;stroke:#231f20;stroke-width:0.565977;stroke-linecap:butt;stroke-linejoin:miter;stroke-miterlimit:4;stroke-dasharray:none;stroke-opacity:1"
     d="m 86.8228,53.781 c -0.004,-2.276 -0.99,-3.584 -2.219,-4.068 -1.359,-0.532 -4.5144,-0.204 -5.7958,2.386 l 2.4048,7.432 c 0.61,-0.24 1.163,-0.495 1.683,-0.76 0.079,-0.011 0.161,-0.022 0.235,-0.022 0.801,0 1.202,-0.484 1.823,-1.301 1.193,-1.005 1.869,-2.188 1.869,-3.667 z"
     id="path315" />
  <path
     style="fill:#231f20;fill-opacity:1;fill-rule:nonzero;stroke:none"
     d="m 82.5838,55.791 c 0.068,-0.635 1.495,-1.968 2.161,-3.432 0.443,-0.984 2.5,-2.807 2.875,-3.818 0.349,-0.937 0.589,-1.333 1.724,-1.125 0.667,0.125 1.88,0.797 1.812,1.303 -0.161,1.181 -0.645,1.989 -1.375,2.776 -0.827,0.89 -3.286,3.109 -3.775,3.478 -1.219,0.907 -1.411,1.62 -1.714,1.891 -0.562,0.511 -0.896,0.423 -1.307,0.125 -0.776,-0.557 -0.401,-1.198 -0.401,-1.198"
     id="path316" />
  <path
     style="fill:none;stroke:#231f20;stroke-width:0.565977;stroke-linecap:butt;stroke-linejoin:miter;stroke-miterlimit:4;stroke-dasharray:none;stroke-opacity:1"
     d="m 82.5838,55.791 c 0.068,-0.635 1.495,-1.968 2.161,-3.432 0.443,-0.984 2.5,-2.807 2.875,-3.818 0.349,-0.937 0.589,-1.333 1.724,-1.125 0.667,0.125 1.88,0.797 1.812,1.303 -0.161,1.181 -0.645,1.989 -1.375,2.776 -0.827,0.89 -3.286,3.109 -3.775,3.478 -1.219,0.907 -1.411,1.62 -1.714,1.891 -0.562,0.511 -0.896,0.423 -1.307,0.125 -0.776,-0.557 -0.401,-1.198 -0.401,-1.198 z"
     id="path317" />
  <path
     style="fill:#231f20;fill-opacity:1;fill-rule:nonzero;stroke:none"
     d="m 88.0948,48.072 c -0.063,-1.291 1.952,-1.02 2.495,-1.025 0.546,-0.011 2.088,-0.214 3.27,-0.527 1.187,-0.307 2.796,-0.192 5.047,-0.781 1.183,-0.312 2.53,0.141 2.906,1.876 0.37,1.713 -0.453,2.572 -1.942,2.729 -1.491,0.156 -2.953,-0.324 -4.469,-0.267 -1.506,0.052 -3.042,0.251 -4.235,0.464 -1.365,0.24 -2.124,-0.145 -2.38,-0.546 -0.662,-1 -0.692,-1.923 -0.692,-1.923"
     id="path318" />
  <path
     style="fill:none;stroke:#231f20;stroke-width:0.565977;stroke-linecap:butt;stroke-linejoin:miter;stroke-miterlimit:4;stroke-dasharray:none;stroke-opacity:1"
     d="m 88.0948,48.072 c -0.063,-1.291 1.952,-1.02 2.495,-1.025 0.546,-0.011 2.088,-0.214 3.27,-0.527 1.187,-0.307 2.796,-0.192 5.047,-0.781 1.183,-0.312 2.53,0.141 2.906,1.876 0.37,1.713 -0.453,2.572 -1.942,2.729 -1.491,0.156 -2.953,-0.324 -4.469,-0.267 -1.506,0.052 -3.042,0.251 -4.235,0.464 -1.365,0.24 -2.124,-0.145 -2.38,-0.546 -0.662,-1 -0.692,-1.923 -0.692,-1.923 z"
     id="path319" />
  <path
     style="fill:#ffffff;fill-opacity:1;fill-rule:nonzero;stroke:#231f20;stroke-width:0.665856;stroke-linecap:butt;stroke-linejoin:miter;stroke-miterlimit:4;stroke-dasharray:none;stroke-opacity:1"
     d="m 81.2448,16.776 -0.089,31.672 1.334,0.005 0.089,-31.677 z"
     id="path320" />
  <path
     style="fill:#ffffff;fill-opacity:1;fill-rule:nonzero;stroke:none"
     d="m 77.9476,53.375 c 0.011,-2.355 1.9282,-4.26 4.2822,-4.255 2.354,0.004 4.265,1.927 4.255,4.28 -0.005,2.355 -1.928,4.261 -4.276,4.256 -2.3544,-0.005 -4.2664,-1.927 -4.2612,-4.281 m -1.3276,0 c -0.0109,3.082 2.4943,5.604 5.5838,5.614 3.088,0.011 5.604,-2.5 5.615,-5.584 0.009,-3.088 -2.496,-5.609 -5.584,-5.618 -3.0882,-0.006 -5.6096,2.5 -5.6148,5.588"
     id="path321" />
  <path
     style="fill:none;stroke:#231f20;stroke-width:0.665856;stroke-linecap:butt;stroke-linejoin:miter;stroke-miterlimit:4;stroke-dasharray:none;stroke-opacity:1"
     d="m 77.9476,53.375 c 0.011,-2.355 1.9282,-4.26 4.2822,-4.255 2.354,0.004 4.265,1.927 4.255,4.28 -0.005,2.355 -1.928,4.261 -4.276,4.256 -2.3544,-0.005 -4.2664,-1.927 -4.2612,-4.281 z m -1.3276,0 c -0.0109,3.082 2.4943,5.604 5.5838,5.614 3.088,0.011 5.604,-2.5 5.615,-5.584 0.009,-3.088 -2.496,-5.609 -5.584,-5.618 -3.0882,-0.006 -5.6096,2.5 -5.6148,5.588 z"
     id="path322" />
  <path
     style="fill:#231f20;fill-opacity:1;fill-rule:nonzero;stroke:none"
     d="m 84.7448,57.063 c 0.651,0.244 0.891,2.546 0.604,2.681 -0.286,0.141 -0.286,-0.635 -0.614,-0.495 -0.328,0.131 -0.255,0.631 -0.484,0.656 -0.251,0.027 -0.245,-0.577 -0.538,-0.489 -0.118,0.047 -0.333,0.599 -0.52,0.563 -0.167,-0.031 -0.365,-0.516 -0.494,-0.552 -0.214,-0.047 -0.271,0.568 -0.443,0.536 -0.464,-0.063 0.151,-2.708 0.358,-2.828 0.318,-0.167 1.074,-0.479 2.131,-0.072"
     id="path323" />
  <path
     style="fill:none;stroke:#231f20;stroke-width:0.565977;stroke-linecap:round;stroke-linejoin:round;stroke-miterlimit:4;stroke-dasharray:none;stroke-opacity:1"
     d="m 84.7448,57.063 c 0.651,0.244 0.891,2.546 0.604,2.681 -0.286,0.141 -0.286,-0.635 -0.614,-0.495 -0.328,0.131 -0.255,0.631 -0.484,0.656 -0.251,0.027 -0.245,-0.577 -0.538,-0.489 -0.118,0.047 -0.333,0.599 -0.52,0.563 -0.167,-0.031 -0.365,-0.516 -0.494,-0.552 -0.214,-0.047 -0.271,0.568 -0.443,0.536 -0.464,-0.063 0.151,-2.708 0.358,-2.828 0.318,-0.167 1.074,-0.479 2.131,-0.072 z"
     id="path324" />
  <path
     style="fill:#231f20;fill-opacity:1;fill-rule:nonzero;stroke:none"
     d="m 133.3278,33.739 c 1.303,-0.38 1.901,0.412 1.844,1.448 -0.016,0.308 0.292,0.589 0.251,0.89 -0.095,0.699 -1.522,1.704 -2.662,0.73 -0.078,-0.074 -0.833,-0.391 -1.36,-0.714 -1.03,-0.645 -2.776,-2.432 -2.724,-5.125 0.022,-1.276 0.771,-1.025 0.918,-0.511 0.468,1.647 0.833,1.704 1.109,2.09 0.943,1.322 2.624,1.192 2.624,1.192"
     id="path325" />
  <path
     style="fill:none;stroke:#231f20;stroke-width:0.332927;stroke-linecap:butt;stroke-linejoin:miter;stroke-miterlimit:4;stroke-dasharray:none;stroke-opacity:1"
     d="m 133.3278,33.739 c 1.303,-0.38 1.901,0.412 1.844,1.448 -0.016,0.308 0.292,0.589 0.251,0.89 -0.095,0.699 -1.522,1.704 -2.662,0.73 -0.078,-0.074 -0.833,-0.391 -1.36,-0.714 -1.03,-0.645 -2.776,-2.432 -2.724,-5.125 0.022,-1.276 0.771,-1.025 0.918,-0.511 0.468,1.647 0.833,1.704 1.109,2.09 0.943,1.322 2.624,1.192 2.624,1.192 z"
     id="path326" />
  <path
     style="fill:#231f20;fill-opacity:1;fill-rule:nonzero;stroke:none"
     d="m 147.3958,46.145 c 1.568,-1.636 1.651,-2.166 1.011,-2.874 -0.427,-0.475 -0.667,-1.063 -0.912,-1.36 -0.828,-1 -2.63,-2.339 -8.734,-4.807 -1.385,-0.563 -3.324,-1.355 -4.084,-1.745 -1.213,-0.62 -1.416,1.808 -0.942,2.052 1.516,0.792 2.5,1.469 3.01,1.822 0.344,0.251 1.022,0.606 2.244,1.735 1.855,1.719 2.715,3.021 4.418,4.265 0.792,0.579 1.026,1.522 2.093,1.688 1.068,0.178 1.896,-0.776 1.896,-0.776"
     id="path327" />
  <path
     style="fill:none;stroke:#231f20;stroke-width:0.565977;stroke-linecap:butt;stroke-linejoin:miter;stroke-miterlimit:4;stroke-dasharray:none;stroke-opacity:1"
     d="m 147.3958,46.145 c 1.568,-1.636 1.651,-2.166 1.011,-2.874 -0.427,-0.475 -0.667,-1.063 -0.912,-1.36 -0.828,-1 -2.63,-2.339 -8.734,-4.807 -1.385,-0.563 -3.324,-1.355 -4.084,-1.745 -1.213,-0.62 -1.416,1.808 -0.942,2.052 1.516,0.792 2.5,1.469 3.01,1.822 0.344,0.251 1.022,0.606 2.244,1.735 1.855,1.719 2.715,3.021 4.418,4.265 0.792,0.579 1.026,1.522 2.093,1.688 1.068,0.178 1.896,-0.776 1.896,-0.776 z"
     id="path328" />
  <path
     style="fill:#ca0369;fill-opacity:1;fill-rule:nonzero;stroke:none"
     d="m 169.3228,60.421 c -2.171,-2.26 -2.386,-2.978 -2.714,-3.844 -2.041,-5.405 -4.656,-4.301 -6.344,-1.962 -1.984,2.749 -2.749,3.697 2.022,7.801 1.322,1.147 5.844,6.193 5.844,6.193 1.374,2.026 3.797,3.266 5.229,3.02 1.516,-0.26 0.896,-0.265 2.255,-0.76 1.292,-0.469 2.682,-2.156 2.464,-3.374 -0.203,-1.172 -1.771,-1.756 -3.907,-2.896 -1.687,-0.902 -4.849,-4.178 -4.849,-4.178"
     id="path329" />
  <path
     style="fill:none;stroke:#231f20;stroke-width:0.565977;stroke-linecap:butt;stroke-linejoin:miter;stroke-miterlimit:4;stroke-dasharray:none;stroke-opacity:1"
     d="m 169.3228,60.421 c -2.171,-2.26 -2.386,-2.978 -2.714,-3.844 -2.041,-5.405 -4.656,-4.301 -6.344,-1.962 -1.984,2.749 -2.749,3.697 2.022,7.801 1.322,1.147 5.844,6.193 5.844,6.193 1.374,2.026 3.797,3.266 5.229,3.02 1.516,-0.26 0.896,-0.265 2.255,-0.76 1.292,-0.469 2.682,-2.156 2.464,-3.374 -0.203,-1.172 -1.771,-1.756 -3.907,-2.896 -1.687,-0.902 -4.849,-4.178 -4.849,-4.178 z"
     id="path330" />
  <path
     style="fill:#ffffff;fill-opacity:1;fill-rule:nonzero;stroke:none"
     d="m 180.4938,75.567 c 0.199,0.141 -0.186,1.22 0.292,1.433 0.475,0.213 0.97,-0.401 2.959,-0.448 l 0.021,0.005 c 1.452,0.015 2.723,-0.562 3.318,-1.657 1,-1.823 -0.204,-4.4 -2.683,-5.755 -2.473,-1.354 -5.292,-0.973 -6.286,0.85 -0.954,1.738 0.109,4.177 2.379,5.572"
     id="path331" />
  <path
     style="fill:none;stroke:#231f20;stroke-width:0.565977;stroke-linecap:butt;stroke-linejoin:miter;stroke-miterlimit:4;stroke-dasharray:none;stroke-opacity:1"
     d="m 180.4938,75.567 c 0.199,0.141 -0.186,1.22 0.292,1.433 0.475,0.213 0.97,-0.401 2.959,-0.448 l 0.021,0.005 c 1.452,0.015 2.723,-0.562 3.318,-1.657 1,-1.823 -0.204,-4.4 -2.683,-5.755 -2.473,-1.354 -5.292,-0.973 -6.286,0.85 -0.954,1.738 0.109,4.177 2.379,5.572 z"
     id="path332" />
  <path
     style="fill:#231f20;fill-opacity:1;fill-rule:nonzero;stroke:none"
     d="m 146.0518,44.063 c -3.015,2.645 0.761,4.186 1.079,4.546 3.281,3.787 3.614,3.974 6.312,6.678 3.906,3.91 7.182,5.989 10.12,4.385 1.994,-1.095 2.672,-2.584 2.51,-3.891 -0.182,-1.448 -1.978,-4.068 -4.864,-3.958 l -1.49,-0.839 c -0.932,-0.703 -1.396,-1.041 -1.828,-1.421 -0.75,-0.667 -1.599,-1.33 -3.14,-2.538 -2.724,-2.15 -6.308,-3.53 -6.308,-3.53 -1,-0.746 -2.391,0.568 -2.391,0.568"
     id="path333" />
  <path
     style="fill:none;stroke:#231f20;stroke-width:0.565977;stroke-linecap:butt;stroke-linejoin:miter;stroke-miterlimit:4;stroke-dasharray:none;stroke-opacity:1"
     d="m 146.0518,44.063 c -3.015,2.645 0.761,4.186 1.079,4.546 3.281,3.787 3.614,3.974 6.312,6.678 3.906,3.91 7.182,5.989 10.12,4.385 1.994,-1.095 2.672,-2.584 2.51,-3.891 -0.182,-1.448 -1.978,-4.068 -4.864,-3.958 l -1.49,-0.839 c -0.932,-0.703 -1.396,-1.041 -1.828,-1.421 -0.75,-0.667 -1.599,-1.33 -3.14,-2.538 -2.724,-2.15 -6.308,-3.53 -6.308,-3.53 -1,-0.746 -2.391,0.568 -2.391,0.568 z"
     id="path334" />
  <path
     style="fill:#ca0369;fill-opacity:1;fill-rule:nonzero;stroke:none"
     d="m 166.0728,55.781 c -0.182,-1.448 -1.978,-4.068 -4.864,-3.958 l -5.381,5.672 c 0.505,0.421 0.995,0.781 1.475,1.114 0.046,0.068 0.093,0.13 0.13,0.192 0.38,0.708 0.995,0.828 2.015,0.986 1.453,0.566 2.817,0.593 4.115,-0.115 1.994,-1.089 2.672,-2.584 2.51,-3.891"
     id="path335" />
  <path
     style="fill:none;stroke:#231f20;stroke-width:0.565977;stroke-linecap:butt;stroke-linejoin:miter;stroke-miterlimit:4;stroke-dasharray:none;stroke-opacity:1"
     d="m 166.0728,55.781 c -0.182,-1.448 -1.978,-4.068 -4.864,-3.958 l -5.381,5.672 c 0.505,0.421 0.995,0.781 1.475,1.114 0.046,0.068 0.093,0.13 0.13,0.192 0.38,0.708 0.995,0.828 2.015,0.986 1.453,0.566 2.817,0.593 4.115,-0.115 1.994,-1.089 2.672,-2.584 2.51,-3.891 z"
     id="path336" />
  <path
     style="fill:#231f20;fill-opacity:1;fill-rule:nonzero;stroke:none"
     d="m 159.7668,56.911 c 0.593,-0.25 2.442,0.37 4.052,0.256 1.077,-0.079 3.661,0.853 4.728,0.697 0.985,-0.14 1.448,-0.12 1.808,0.979 0.213,0.646 0.202,2.032 -0.276,2.214 -1.11,0.422 -2.058,0.386 -3.094,0.124 -1.182,-0.301 -4.302,-1.4 -4.86,-1.656 -1.385,-0.64 -2.098,-0.468 -2.478,-0.598 -0.719,-0.25 -0.803,-0.588 -0.74,-1.094 0.12,-0.948 0.86,-0.922 0.86,-0.922"
     id="path337" />
  <path
     style="fill:none;stroke:#231f20;stroke-width:0.565977;stroke-linecap:butt;stroke-linejoin:miter;stroke-miterlimit:4;stroke-dasharray:none;stroke-opacity:1"
     d="m 159.7668,56.911 c 0.593,-0.25 2.442,0.37 4.052,0.256 1.077,-0.079 3.661,0.853 4.728,0.697 0.985,-0.14 1.448,-0.12 1.808,0.979 0.213,0.646 0.202,2.032 -0.276,2.214 -1.11,0.422 -2.058,0.386 -3.094,0.124 -1.182,-0.301 -4.302,-1.4 -4.86,-1.656 -1.385,-0.64 -2.098,-0.468 -2.478,-0.598 -0.719,-0.25 -0.803,-0.588 -0.74,-1.094 0.12,-0.948 0.86,-0.922 0.86,-0.922 z"
     id="path338" />
  <path
     style="fill:#231f20;fill-opacity:1;fill-rule:nonzero;stroke:none"
     d="m 169.1828,58.063 c 1.104,-0.678 1.828,1.228 2.093,1.697 0.271,0.473 1.188,1.735 2.027,2.62 0.838,0.896 1.51,2.364 3.098,4.063 0.839,0.89 1.088,2.286 -0.254,3.442 -1.328,1.146 -2.48,0.834 -3.328,-0.401 -0.85,-1.229 -1.126,-2.745 -1.902,-4.047 -0.765,-1.302 -1.672,-2.552 -2.432,-3.5 -0.865,-1.084 -0.886,-1.937 -0.662,-2.354 0.568,-1.052 1.36,-1.52 1.36,-1.52"
     id="path339" />
  <path
     style="fill:none;stroke:#231f20;stroke-width:0.565977;stroke-linecap:butt;stroke-linejoin:miter;stroke-miterlimit:4;stroke-dasharray:none;stroke-opacity:1"
     d="m 169.1828,58.063 c 1.104,-0.678 1.828,1.228 2.093,1.697 0.271,0.473 1.188,1.735 2.027,2.62 0.838,0.896 1.51,2.364 3.098,4.063 0.839,0.89 1.088,2.286 -0.254,3.442 -1.328,1.146 -2.48,0.834 -3.328,-0.401 -0.85,-1.229 -1.126,-2.745 -1.902,-4.047 -0.765,-1.302 -1.672,-2.552 -2.432,-3.5 -0.865,-1.084 -0.886,-1.937 -0.662,-2.354 0.568,-1.052 1.36,-1.52 1.36,-1.52 z"
     id="path340" />
  <path
     style="fill:#ffffff;fill-opacity:1;fill-rule:nonzero;stroke:#231f20;stroke-width:0.665856;stroke-linecap:butt;stroke-linejoin:miter;stroke-miterlimit:4;stroke-dasharray:none;stroke-opacity:1"
     d="m 154.0888,16.771 -0.089,31.677 1.333,0.005 0.09,-31.677 z"
     id="path341" />
  <path
     style="fill:#ffffff;fill-opacity:1;fill-rule:nonzero;stroke:none"
     d="m 150.7918,53.375 c 0.005,-2.355 1.927,-4.266 4.281,-4.255 2.355,0.004 4.266,1.927 4.255,4.28 -0.005,2.355 -1.921,4.261 -4.276,4.256 -2.353,-0.005 -4.265,-1.927 -4.26,-4.281 m -1.333,-0.006 c -0.006,3.088 2.5,5.61 5.588,5.62 3.084,0.006 5.605,-2.5 5.614,-5.589 0.011,-3.088 -2.494,-5.604 -5.582,-5.613 -3.09,-0.011 -5.61,2.494 -5.62,5.582"
     id="path342" />
  <path
     style="fill:none;stroke:#231f20;stroke-width:0.665856;stroke-linecap:butt;stroke-linejoin:miter;stroke-miterlimit:4;stroke-dasharray:none;stroke-opacity:1"
     d="m 150.7918,53.375 c 0.005,-2.355 1.927,-4.266 4.281,-4.255 2.355,0.004 4.266,1.927 4.255,4.28 -0.005,2.355 -1.921,4.261 -4.276,4.256 -2.353,-0.005 -4.265,-1.927 -4.26,-4.281 z m -1.333,-0.006 c -0.006,3.088 2.5,5.61 5.588,5.62 3.084,0.006 5.605,-2.5 5.614,-5.589 0.011,-3.088 -2.494,-5.604 -5.582,-5.613 -3.09,-0.011 -5.61,2.494 -5.62,5.582 z"
     id="path343" />
  <path
     style="fill:#231f20;fill-opacity:1;fill-rule:nonzero;stroke:none"
     d="m 158.3328,59.301 c -0.666,0.194 -2.244,-1.505 -2.093,-1.786 0.151,-0.282 0.615,0.338 0.792,0.032 0.181,-0.308 -0.172,-0.656 -0.005,-0.818 0.182,-0.166 0.541,0.318 0.718,0.067 0.074,-0.104 -0.089,-0.676 0.083,-0.76 0.152,-0.073 0.605,0.193 0.724,0.145 0.199,-0.088 -0.119,-0.614 0.037,-0.697 0.406,-0.224 1.5,2.26 1.406,2.484 -0.151,0.323 -0.572,1.027 -1.662,1.333"
     id="path344" />
  <path
     style="fill:none;stroke:#231f20;stroke-width:0.565977;stroke-linecap:round;stroke-linejoin:round;stroke-miterlimit:4;stroke-dasharray:none;stroke-opacity:1"
     d="m 158.3328,59.301 c -0.666,0.194 -2.244,-1.505 -2.093,-1.786 0.151,-0.282 0.615,0.338 0.792,0.032 0.181,-0.308 -0.172,-0.656 -0.005,-0.818 0.182,-0.166 0.541,0.318 0.718,0.067 0.074,-0.104 -0.089,-0.676 0.083,-0.76 0.152,-0.073 0.605,0.193 0.724,0.145 0.199,-0.088 -0.119,-0.614 0.037,-0.697 0.406,-0.224 1.5,2.26 1.406,2.484 -0.151,0.323 -0.572,1.027 -1.662,1.333 z"
     id="path345" />
  <path
     style="fill:#231f20;fill-opacity:1;fill-rule:nonzero;stroke:none"
     d="m 305.5318,92.4 c -1.303,-0.38 -1.371,-1.369 -0.766,-2.213 0.176,-0.25 0.072,-0.651 0.271,-0.88 0.452,-0.542 2.197,-0.615 2.629,0.822 0.032,0.104 0.495,0.782 0.756,1.344 0.52,1.094 1.026,3.542 -0.48,5.776 -0.708,1.063 -1.202,0.448 -1.046,-0.068 0.5,-1.64 0.224,-1.88 0.198,-2.353 -0.078,-1.62 -1.562,-2.428 -1.562,-2.428"
     id="path346" />
  <path
     style="fill:none;stroke:#231f20;stroke-width:0.332927;stroke-linecap:butt;stroke-linejoin:miter;stroke-miterlimit:4;stroke-dasharray:none;stroke-opacity:1"
     d="m 305.5318,92.4 c -1.303,-0.38 -1.371,-1.369 -0.766,-2.213 0.176,-0.25 0.072,-0.651 0.271,-0.88 0.452,-0.542 2.197,-0.615 2.629,0.822 0.032,0.104 0.495,0.782 0.756,1.344 0.52,1.094 1.026,3.542 -0.48,5.776 -0.708,1.063 -1.202,0.448 -1.046,-0.068 0.5,-1.64 0.224,-1.88 0.198,-2.353 -0.078,-1.62 -1.562,-2.428 -1.562,-2.428 z"
     id="path347" />
  <path
     style="fill:#231f20;fill-opacity:1;fill-rule:nonzero;stroke:none"
     d="m 300.4058,74.364 c -2.202,0.527 -2.562,0.923 -2.406,1.869 0.104,0.631 -0.011,1.251 0.037,1.636 0.156,1.287 0.943,3.391 4.744,8.771 0.865,1.213 2.057,2.932 2.495,3.677 0.688,1.172 2.166,-0.76 1.901,-1.218 -0.849,-1.495 -1.312,-2.59 -1.541,-3.162 -0.162,-0.401 -0.536,-1.062 -0.954,-2.672 -0.636,-2.448 -0.65,-4.01 -1.412,-5.984 -0.353,-0.912 -0.041,-1.828 -0.848,-2.552 -0.808,-0.724 -2.016,-0.365 -2.016,-0.365"
     id="path348" />
  <path
     style="fill:none;stroke:#231f20;stroke-width:0.565977;stroke-linecap:butt;stroke-linejoin:miter;stroke-miterlimit:4;stroke-dasharray:none;stroke-opacity:1"
     d="m 300.4058,74.364 c -2.202,0.527 -2.562,0.923 -2.406,1.869 0.104,0.631 -0.011,1.251 0.037,1.636 0.156,1.287 0.943,3.391 4.744,8.771 0.865,1.213 2.057,2.932 2.495,3.677 0.688,1.172 2.166,-0.76 1.901,-1.218 -0.849,-1.495 -1.312,-2.59 -1.541,-3.162 -0.162,-0.401 -0.536,-1.062 -0.954,-2.672 -0.636,-2.448 -0.65,-4.01 -1.412,-5.984 -0.353,-0.912 -0.041,-1.828 -0.848,-2.552 -0.808,-0.724 -2.016,-0.365 -2.016,-0.365 z"
     id="path349" />
  <path
     style="fill:#ca0369;fill-opacity:1;fill-rule:nonzero;stroke:none"
     d="m 293.5978,49.255 c -1.025,2.958 -1.572,3.478 -2.192,4.161 -3.885,4.276 -1.718,6.104 1.136,6.541 3.354,0.522 4.542,0.772 6.031,-5.348 0.416,-1.698 2.86,-8.016 2.86,-8.016 1.176,-2.14 1.181,-4.864 0.312,-6.03 -0.917,-1.23 -0.645,-0.678 -1.699,-1.663 -1.009,-0.937 -3.14,-1.411 -4.129,-0.661 -0.948,0.714 -0.756,2.37 -0.803,4.797 -0.036,1.912 -1.516,6.219 -1.516,6.219"
     id="path350" />
  <path
     style="fill:none;stroke:#231f20;stroke-width:0.565977;stroke-linecap:butt;stroke-linejoin:miter;stroke-miterlimit:4;stroke-dasharray:none;stroke-opacity:1"
     d="m 293.5978,49.255 c -1.025,2.958 -1.572,3.478 -2.192,4.161 -3.885,4.276 -1.718,6.104 1.136,6.541 3.354,0.522 4.542,0.772 6.031,-5.348 0.416,-1.698 2.86,-8.016 2.86,-8.016 1.176,-2.14 1.181,-4.864 0.312,-6.03 -0.917,-1.23 -0.645,-0.678 -1.699,-1.663 -1.009,-0.937 -3.14,-1.411 -4.129,-0.661 -0.948,0.714 -0.756,2.37 -0.803,4.797 -0.036,1.912 -1.516,6.219 -1.516,6.219 z"
     id="path351" />
  <path
     style="fill:#ffffff;fill-opacity:1;fill-rule:nonzero;stroke:none"
     d="m 304.4478,34.276 c 0.12,-0.213 1.234,0.057 1.396,-0.443 0.161,-0.494 -0.5,-0.922 -0.755,-2.896 v -0.021 c -0.141,-1.448 -0.844,-2.645 -2,-3.129 -1.917,-0.797 -4.355,0.666 -5.437,3.276 -1.084,2.609 -0.412,5.369 1.504,6.166 1.833,0.766 4.146,-0.548 5.292,-2.953"
     id="path352" />
  <path
     style="fill:none;stroke:#231f20;stroke-width:0.565977;stroke-linecap:butt;stroke-linejoin:miter;stroke-miterlimit:4;stroke-dasharray:none;stroke-opacity:1"
     d="m 304.4478,34.276 c 0.12,-0.213 1.234,0.057 1.396,-0.443 0.161,-0.494 -0.5,-0.922 -0.755,-2.896 v -0.021 c -0.141,-1.448 -0.844,-2.645 -2,-3.129 -1.917,-0.797 -4.355,0.666 -5.437,3.276 -1.084,2.609 -0.412,5.369 1.504,6.166 1.833,0.766 4.146,-0.548 5.292,-2.953 z"
     id="path353" />
  <path
     style="fill:#231f20;fill-opacity:1;fill-rule:nonzero;stroke:none"
     d="m 300.4118,76.839 c 3.964,-0.59 1.62,-3.934 1.552,-4.407 -0.714,-4.959 -0.891,-5.297 -1.703,-9.032 -1.167,-5.4 -2.797,-8.921 -6.141,-9.161 -2.266,-0.162 -3.64,0.729 -4.214,1.917 -0.63,1.312 -0.53,4.495 1.959,5.959 l 0.796,1.514 c 0.401,1.095 0.609,1.631 0.767,2.183 0.27,0.964 0.629,1.979 1.265,3.833 1.129,3.276 3.401,6.38 3.401,6.38 0.438,1.162 2.318,0.814 2.318,0.814"
     id="path354" />
  <path
     style="fill:none;stroke:#231f20;stroke-width:0.565977;stroke-linecap:butt;stroke-linejoin:miter;stroke-miterlimit:4;stroke-dasharray:none;stroke-opacity:1"
     d="m 300.4118,76.839 c 3.964,-0.59 1.62,-3.934 1.552,-4.407 -0.714,-4.959 -0.891,-5.297 -1.703,-9.032 -1.167,-5.4 -2.797,-8.921 -6.141,-9.161 -2.266,-0.162 -3.64,0.729 -4.214,1.917 -0.63,1.312 -0.53,4.495 1.959,5.959 l 0.796,1.514 c 0.401,1.095 0.609,1.631 0.767,2.183 0.27,0.964 0.629,1.979 1.265,3.833 1.129,3.276 3.401,6.38 3.401,6.38 0.438,1.162 2.318,0.814 2.318,0.814 z"
     id="path355" />
  <path
     style="fill:#ca0369;fill-opacity:1;fill-rule:nonzero;stroke:none"
     d="m 298.6518,58.271 c -0.006,-0.079 -0.006,-0.156 0,-0.23 0.061,-0.797 -0.391,-1.234 -1.172,-1.921 -0.912,-1.256 -2.047,-2.016 -3.516,-2.12 -2.271,-0.161 -3.646,0.729 -4.219,1.916 -0.631,1.313 -0.532,4.489 1.959,5.953 l 7.588,-1.858 c -0.198,-0.631 -0.412,-1.199 -0.64,-1.74"
     id="path356" />
  <path
     style="fill:none;stroke:#231f20;stroke-width:0.565977;stroke-linecap:butt;stroke-linejoin:miter;stroke-miterlimit:4;stroke-dasharray:none;stroke-opacity:1"
     d="m 298.6518,58.271 c -0.006,-0.079 -0.006,-0.156 0,-0.23 0.061,-0.797 -0.391,-1.234 -1.172,-1.921 -0.912,-1.256 -2.047,-2.016 -3.516,-2.12 -2.271,-0.161 -3.646,0.729 -4.219,1.916 -0.631,1.313 -0.532,4.489 1.959,5.953 l 7.588,-1.858 c -0.198,-0.631 -0.412,-1.199 -0.64,-1.74 z"
     id="path357" />
  <path
     style="fill:#231f20;fill-opacity:1;fill-rule:nonzero;stroke:none"
     d="m 292.0728,49.76 c -1.136,-0.62 0.145,-2.203 0.421,-2.672 0.272,-0.468 0.902,-1.891 1.251,-3.063 0.355,-1.172 1.287,-2.489 1.953,-4.718 0.348,-1.172 1.432,-2.088 3.115,-1.506 1.656,0.574 1.957,1.724 1.323,3.079 -0.642,1.353 -1.814,2.353 -2.552,3.677 -0.735,1.318 -1.371,2.73 -1.803,3.859 -0.505,1.287 -1.235,1.74 -1.708,1.756 -1.197,0.036 -2,-0.412 -2,-0.412"
     id="path358" />
  <path
     style="fill:none;stroke:#231f20;stroke-width:0.565977;stroke-linecap:butt;stroke-linejoin:miter;stroke-miterlimit:4;stroke-dasharray:none;stroke-opacity:1"
     d="m 292.0728,49.76 c -1.136,-0.62 0.145,-2.203 0.421,-2.672 0.272,-0.468 0.902,-1.891 1.251,-3.063 0.355,-1.172 1.287,-2.489 1.953,-4.718 0.348,-1.172 1.432,-2.088 3.115,-1.506 1.656,0.574 1.957,1.724 1.323,3.079 -0.642,1.353 -1.814,2.353 -2.552,3.677 -0.735,1.318 -1.371,2.73 -1.803,3.859 -0.505,1.287 -1.235,1.74 -1.708,1.756 -1.197,0.036 -2,-0.412 -2,-0.412 z"
     id="path359" />
  <path
     style="fill:#ffffff;fill-opacity:1;fill-rule:nonzero;stroke:none"
     d="m 298.7448,47.953 h 1.333 V 16.276 h -1.333 z"
     id="path360" />
  <path
     style="fill:#231f20;fill-opacity:1;fill-rule:nonzero;stroke:none"
     d="m 298.8178,56.839 c -0.62,-0.183 -1.672,-1.819 -2.996,-2.735 -0.894,-0.615 -2.317,-2.964 -3.254,-3.511 -0.855,-0.505 -1.198,-0.817 -0.792,-1.89 0.24,-0.64 1.114,-1.714 1.604,-1.558 1.13,0.37 1.844,0.99 2.49,1.844 0.728,0.974 2.474,3.787 2.75,4.334 0.677,1.369 1.344,1.677 1.557,2.025 0.401,0.641 0.256,0.959 -0.109,1.308 -0.688,0.667 -1.25,0.183 -1.25,0.183"
     id="path362" />
  <path
     style="fill:none;stroke:#231f20;stroke-width:0.565977;stroke-linecap:butt;stroke-linejoin:miter;stroke-miterlimit:4;stroke-dasharray:none;stroke-opacity:1"
     d="m 298.8178,56.839 c -0.62,-0.183 -1.672,-1.819 -2.996,-2.735 -0.894,-0.615 -2.317,-2.964 -3.254,-3.511 -0.855,-0.505 -1.198,-0.817 -0.792,-1.89 0.24,-0.64 1.114,-1.714 1.604,-1.558 1.13,0.37 1.844,0.99 2.49,1.844 0.728,0.974 2.474,3.787 2.75,4.334 0.677,1.369 1.344,1.677 1.557,2.025 0.401,0.641 0.256,0.959 -0.109,1.308 -0.688,0.667 -1.25,0.183 -1.25,0.183 z"
     id="path363" />
  <path
     style="fill:#ffffff;fill-opacity:1;fill-rule:nonzero;stroke:none"
     d="m 295.5518,52.885 c 0,-2.354 1.917,-4.265 4.27,-4.265 2.355,0 4.272,1.911 4.272,4.265 0,2.359 -1.917,4.271 -4.272,4.271 -2.353,0 -4.27,-1.912 -4.27,-4.271 m -1.334,0 c 0,3.088 2.516,5.604 5.604,5.604 3.09,0 5.6,-2.516 5.6,-5.604 0,-3.084 -2.51,-5.598 -5.6,-5.598 -3.088,0 -5.604,2.514 -5.604,5.598"
     id="path364" />
  <path
     style="fill:none;stroke:#231f20;stroke-width:0.665856;stroke-linecap:butt;stroke-linejoin:miter;stroke-miterlimit:4;stroke-dasharray:none;stroke-opacity:1"
     d="m 295.5518,52.885 c 0,-2.354 1.917,-4.265 4.27,-4.265 2.355,0 4.272,1.911 4.272,4.265 0,2.359 -1.917,4.271 -4.272,4.271 -2.353,0 -4.27,-1.912 -4.27,-4.271 z m -1.334,0 c 0,3.088 2.516,5.604 5.604,5.604 3.09,0 5.6,-2.516 5.6,-5.604 0,-3.084 -2.51,-5.598 -5.6,-5.598 -3.088,0 -5.604,2.514 -5.604,5.598 z"
     id="path365" />
  <path
     style="fill:#231f20;fill-opacity:1;fill-rule:nonzero;stroke:none"
     d="m 300.8848,56.025 c 0.688,0.126 1.339,2.35 1.079,2.532 -0.26,0.187 -0.396,-0.573 -0.694,-0.381 -0.301,0.199 -0.14,0.672 -0.358,0.74 -0.24,0.073 -0.344,-0.525 -0.615,-0.38 -0.115,0.057 -0.224,0.64 -0.412,0.64 -0.172,0 -0.452,-0.437 -0.588,-0.447 -0.213,-0.01 -0.161,0.599 -0.339,0.604 -0.464,0.015 -0.338,-2.693 -0.15,-2.849 0.276,-0.219 0.968,-0.667 2.077,-0.459"
     id="path366" />
  <path
     style="fill:none;stroke:#231f20;stroke-width:0.565977;stroke-linecap:round;stroke-linejoin:round;stroke-miterlimit:4;stroke-dasharray:none;stroke-opacity:1"
     d="m 300.8848,56.025 c 0.688,0.126 1.339,2.35 1.079,2.532 -0.26,0.187 -0.396,-0.573 -0.694,-0.381 -0.301,0.199 -0.14,0.672 -0.358,0.74 -0.24,0.073 -0.344,-0.525 -0.615,-0.38 -0.115,0.057 -0.224,0.64 -0.412,0.64 -0.172,0 -0.452,-0.437 -0.588,-0.447 -0.213,-0.01 -0.161,0.599 -0.339,0.604 -0.464,0.015 -0.338,-2.693 -0.15,-2.849 0.276,-0.219 0.968,-0.667 2.077,-0.459 z"
     id="path367" />
  <path
     style="fill:#ca0369;fill-opacity:1;fill-rule:nonzero;stroke:none"
     d="m 222.8648,72.692 c 3.468,0.537 4.443,0.5 5.577,0.573 5.771,0.37 6.251,-0.833 6.506,-3.213 0.36,-3.375 0.234,-5.256 -6.063,-5.319 -4.776,-0.046 -8.323,-0.77 -8.323,-0.77 -1.661,-0.848 -5.244,-1.104 -6.016,-0.615 -1.296,0.824 -1.014,0.709 -1.744,1.953 -1.354,2.314 -0.729,3.339 0.167,4.12 0.896,0.782 1.859,1.162 4.563,1.938 2.093,0.598 5.333,1.333 5.333,1.333"
     id="path368" />
  <path
     style="fill:none;stroke:#231f20;stroke-width:0.565977;stroke-linecap:butt;stroke-linejoin:miter;stroke-miterlimit:4;stroke-dasharray:none;stroke-opacity:1"
     d="m 222.8648,72.692 c 3.468,0.537 4.443,0.5 5.577,0.573 5.771,0.37 6.251,-0.833 6.506,-3.213 0.36,-3.375 0.234,-5.256 -6.063,-5.319 -4.776,-0.046 -8.323,-0.77 -8.323,-0.77 -1.661,-0.848 -5.244,-1.104 -6.016,-0.615 -1.296,0.824 -1.014,0.709 -1.744,1.953 -1.354,2.314 -0.729,3.339 0.167,4.12 0.896,0.782 1.859,1.162 4.563,1.938 2.093,0.598 5.333,1.333 5.333,1.333 z"
     id="path369" />
  <path
     style="fill:#231f20;fill-opacity:1;fill-rule:nonzero;stroke:none"
     d="m 266.4578,58.583 c -0.426,1.281 -1.416,1.317 -2.234,0.682 -0.244,-0.182 -0.656,-0.098 -0.875,-0.302 -0.521,-0.479 -0.531,-2.219 0.921,-2.599 0.106,-0.031 0.798,-0.464 1.366,-0.708 1.114,-0.475 3.577,-0.891 5.76,0.692 1.037,0.751 0.401,1.224 -0.11,1.048 -1.62,-0.563 -1.869,-0.292 -2.349,-0.281 -1.619,0.014 -2.479,1.468 -2.479,1.468"
     id="path370" />
  <path
     style="fill:none;stroke:#231f20;stroke-width:0.332927;stroke-linecap:butt;stroke-linejoin:miter;stroke-miterlimit:4;stroke-dasharray:none;stroke-opacity:1"
     d="m 266.4578,58.583 c -0.426,1.281 -1.416,1.317 -2.234,0.682 -0.244,-0.182 -0.656,-0.098 -0.875,-0.302 -0.521,-0.479 -0.531,-2.219 0.921,-2.599 0.106,-0.031 0.798,-0.464 1.366,-0.708 1.114,-0.475 3.577,-0.891 5.76,0.692 1.037,0.751 0.401,1.224 -0.11,1.048 -1.62,-0.563 -1.869,-0.292 -2.349,-0.281 -1.619,0.014 -2.479,1.468 -2.479,1.468 z"
     id="path371" />
  <path
     style="fill:#231f20;fill-opacity:1;fill-rule:nonzero;stroke:none"
     d="m 248.2498,63.031 c 0.438,2.224 0.823,2.593 1.776,2.474 0.63,-0.078 1.244,0.058 1.635,0.026 1.292,-0.104 3.423,-0.818 8.937,-4.411 1.251,-0.819 3.011,-1.953 3.772,-2.36 1.192,-0.64 -0.682,-2.193 -1.157,-1.948 -1.515,0.792 -2.624,1.213 -3.213,1.427 -0.402,0.146 -1.072,0.5 -2.703,0.854 -2.469,0.542 -4.027,0.5 -6.027,1.188 -0.932,0.323 -1.833,-0.032 -2.582,0.75 -0.756,0.781 -0.438,2 -0.438,2"
     id="path372" />
  <path
     style="fill:none;stroke:#231f20;stroke-width:0.565977;stroke-linecap:butt;stroke-linejoin:miter;stroke-miterlimit:4;stroke-dasharray:none;stroke-opacity:1"
     d="m 248.2498,63.031 c 0.438,2.224 0.823,2.593 1.776,2.474 0.63,-0.078 1.244,0.058 1.635,0.026 1.292,-0.104 3.423,-0.818 8.937,-4.411 1.251,-0.819 3.011,-1.953 3.772,-2.36 1.192,-0.64 -0.682,-2.193 -1.157,-1.948 -1.515,0.792 -2.624,1.213 -3.213,1.427 -0.402,0.146 -1.072,0.5 -2.703,0.854 -2.469,0.542 -4.027,0.5 -6.027,1.188 -0.932,0.323 -1.833,-0.032 -2.582,0.75 -0.756,0.781 -0.438,2 -0.438,2 z"
     id="path373" />
  <path
     style="fill:#ffffff;fill-opacity:1;fill-rule:nonzero;stroke:none"
     d="m 210.7918,59.099 c -0.162,-0.183 0.453,-1.151 0.036,-1.464 -0.422,-0.312 -1.042,0.177 -2.99,-0.214 l -0.02,-0.005 c -1.417,-0.328 -2.776,-0.047 -3.605,0.896 -1.369,1.557 -0.765,4.333 1.36,6.197 2.125,1.86 4.953,2.111 6.328,0.548 1.308,-1.49 0.808,-4.104 -1.109,-5.958"
     id="path374" />
  <path
     style="fill:none;stroke:#231f20;stroke-width:0.565977;stroke-linecap:butt;stroke-linejoin:miter;stroke-miterlimit:4;stroke-dasharray:none;stroke-opacity:1"
     d="m 210.7918,59.099 c -0.162,-0.183 0.453,-1.151 0.036,-1.464 -0.422,-0.312 -1.042,0.177 -2.99,-0.214 l -0.02,-0.005 c -1.417,-0.328 -2.776,-0.047 -3.605,0.896 -1.369,1.557 -0.765,4.333 1.36,6.197 2.125,1.86 4.953,2.111 6.328,0.548 1.308,-1.49 0.808,-4.104 -1.109,-5.958 z"
     id="path375" />
  <path
     style="fill:#231f20;fill-opacity:1;fill-rule:nonzero;stroke:none"
     d="m 250.7128,63.124 c -0.437,-3.989 -3.864,-1.771 -4.343,-1.719 -4.98,0.532 -5.324,0.694 -9.089,1.366 -5.443,0.968 -9.016,2.468 -9.38,5.801 -0.245,2.256 0.593,3.667 1.755,4.276 1.297,0.683 4.469,0.699 6.032,-1.728 l 1.546,-0.74 c 1.099,-0.365 1.646,-0.557 2.203,-0.688 0.98,-0.239 2.005,-0.552 3.876,-1.125 3.323,-1 6.505,-3.162 6.505,-3.162 1.182,-0.39 0.895,-2.281 0.895,-2.281"
     id="path376" />
  <path
     style="fill:none;stroke:#231f20;stroke-width:0.565977;stroke-linecap:butt;stroke-linejoin:miter;stroke-miterlimit:4;stroke-dasharray:none;stroke-opacity:1"
     d="m 250.7128,63.124 c -0.437,-3.989 -3.864,-1.771 -4.343,-1.719 -4.98,0.532 -5.324,0.694 -9.089,1.366 -5.443,0.968 -9.016,2.468 -9.38,5.801 -0.245,2.256 0.593,3.667 1.755,4.276 1.297,0.683 4.469,0.699 6.032,-1.728 l 1.546,-0.74 c 1.099,-0.365 1.646,-0.557 2.203,-0.688 0.98,-0.239 2.005,-0.552 3.876,-1.125 3.323,-1 6.505,-3.162 6.505,-3.162 1.182,-0.39 0.895,-2.281 0.895,-2.281 z"
     id="path377" />
  <path
     style="fill:#231f20;fill-opacity:1;fill-rule:nonzero;stroke:none"
     d="m 226.9318,57.943 c 0.297,0.572 -0.146,2.468 0.114,4.057 0.178,1.067 -0.52,3.724 -0.27,4.776 0.234,0.963 0.25,1.432 -0.807,1.885 -0.631,0.271 -2.011,0.386 -2.229,-0.073 -0.527,-1.073 -0.579,-2.016 -0.402,-3.073 0.188,-1.198 1,-4.411 1.204,-4.99 0.51,-1.432 0.276,-2.129 0.375,-2.52 0.187,-0.74 0.516,-0.854 1.015,-0.833 0.958,0.031 1,0.771 1,0.771"
     id="path378" />
  <path
     style="fill:none;stroke:#231f20;stroke-width:0.565977;stroke-linecap:butt;stroke-linejoin:miter;stroke-miterlimit:4;stroke-dasharray:none;stroke-opacity:1"
     d="m 226.9318,57.943 c 0.297,0.572 -0.146,2.468 0.114,4.057 0.178,1.067 -0.52,3.724 -0.27,4.776 0.234,0.963 0.25,1.432 -0.807,1.885 -0.631,0.271 -2.011,0.386 -2.229,-0.073 -0.527,-1.073 -0.579,-2.016 -0.402,-3.073 0.188,-1.198 1,-4.411 1.204,-4.99 0.51,-1.432 0.276,-2.129 0.375,-2.52 0.187,-0.74 0.516,-0.854 1.015,-0.833 0.958,0.031 1,0.771 1,0.771 z"
     id="path379" />
  <path
     style="fill:#231f20;fill-opacity:1;fill-rule:nonzero;stroke:none"
     d="m 226.8178,68.161 c -0.068,1.292 -2.048,0.823 -2.584,0.787 -0.546,-0.048 -2.104,0.009 -3.302,0.203 -1.219,0.197 -2.802,-0.074 -5.099,0.297 -1.213,0.197 -2.511,-0.376 -2.713,-2.141 -0.208,-1.744 0.693,-2.516 2.193,-2.536 1.495,-0.011 2.911,0.609 4.416,0.697 1.511,0.089 3.057,0.041 4.265,-0.057 1.382,-0.11 2.1,0.349 2.324,0.77 0.547,1.063 0.5,1.98 0.5,1.98"
     id="path380" />
  <path
     style="fill:none;stroke:#231f20;stroke-width:0.565977;stroke-linecap:butt;stroke-linejoin:miter;stroke-miterlimit:4;stroke-dasharray:none;stroke-opacity:1"
     d="m 226.8178,68.161 c -0.068,1.292 -2.048,0.823 -2.584,0.787 -0.546,-0.048 -2.104,0.009 -3.302,0.203 -1.219,0.197 -2.802,-0.074 -5.099,0.297 -1.213,0.197 -2.511,-0.376 -2.713,-2.141 -0.208,-1.744 0.693,-2.516 2.193,-2.536 1.495,-0.011 2.911,0.609 4.416,0.697 1.511,0.089 3.057,0.041 4.265,-0.057 1.382,-0.11 2.1,0.349 2.324,0.77 0.547,1.063 0.5,1.98 0.5,1.98 z"
     id="path381" />
  <path
     style="fill:#ffffff;fill-opacity:1;fill-rule:nonzero;stroke:none"
     d="m 223.7698,52.875 c 0,-2.355 1.907,-4.271 4.262,-4.276 2.353,-0.006 4.276,1.906 4.281,4.26 0.005,2.354 -1.912,4.27 -4.267,4.276 -2.348,0.005 -4.27,-1.906 -4.276,-4.26 m -1.328,0.005 c 0.006,3.083 2.522,5.593 5.61,5.588 3.089,-0.005 5.594,-2.52 5.589,-5.609 -0.005,-3.094 -2.521,-5.594 -5.609,-5.588 -3.09,0.005 -5.599,2.52 -5.59,5.609"
     id="path383" />
  <path
     style="fill:none;stroke:#231f20;stroke-width:0.665856;stroke-linecap:butt;stroke-linejoin:miter;stroke-miterlimit:4;stroke-dasharray:none;stroke-opacity:1"
     d="m 223.7698,52.875 c 0,-2.355 1.907,-4.271 4.262,-4.276 2.353,-0.006 4.276,1.906 4.281,4.26 0.005,2.354 -1.912,4.27 -4.267,4.276 -2.348,0.005 -4.27,-1.906 -4.276,-4.26 z m -1.328,0.005 c 0.006,3.083 2.522,5.593 5.61,5.588 3.089,-0.005 5.594,-2.52 5.589,-5.609 -0.005,-3.094 -2.521,-5.594 -5.609,-5.588 -3.09,0.005 -5.599,2.52 -5.59,5.609 z"
     id="path384" />
  <path
     style="fill:#231f20;fill-opacity:1;fill-rule:nonzero;stroke:none"
     d="m 224.6718,57.848 c -0.536,-0.448 -0.026,-2.703 0.286,-2.739 0.318,-0.037 0.074,0.692 0.427,0.667 0.355,-0.021 0.443,-0.511 0.667,-0.464 0.245,0.052 0.048,0.62 0.354,0.625 0.126,0.006 0.511,-0.453 0.678,-0.36 0.14,0.084 0.177,0.604 0.292,0.678 0.176,0.114 0.426,-0.448 0.588,-0.364 0.416,0.213 -1.016,2.52 -1.255,2.557 -0.344,0.067 -1.167,0.119 -2.037,-0.6"
     id="path385" />
  <path
     style="fill:none;stroke:#231f20;stroke-width:0.565977;stroke-linecap:round;stroke-linejoin:round;stroke-miterlimit:4;stroke-dasharray:none;stroke-opacity:1"
     d="m 224.6718,57.848 c -0.536,-0.448 -0.026,-2.703 0.286,-2.739 0.318,-0.037 0.074,0.692 0.427,0.667 0.355,-0.021 0.443,-0.511 0.667,-0.464 0.245,0.052 0.048,0.62 0.354,0.625 0.126,0.006 0.511,-0.453 0.678,-0.36 0.14,0.084 0.177,0.604 0.292,0.678 0.176,0.114 0.426,-0.448 0.588,-0.364 0.416,0.213 -1.016,2.52 -1.255,2.557 -0.344,0.067 -1.167,0.119 -2.037,-0.6 z"
     id="path386" />
  <path
     style="fill:#ca0369;fill-opacity:1;fill-rule:nonzero;stroke:#231f20;stroke-width:0.565977;stroke-linecap:butt;stroke-linejoin:miter;stroke-miterlimit:4;stroke-dasharray:none;stroke-opacity:1"
     d="m 233.2858,63.391 c -3.464,1.462 -5.536,3.244 -5.468,5.89 0.062,2.276 1.083,3.558 2.323,4.006 1.369,0.5 4.525,0.093 5.739,-2.532 z"
     id="path387" />
  <path
     style="fill:none;stroke:#231f20;stroke-width:0.399514;stroke-linecap:butt;stroke-linejoin:miter;stroke-miterlimit:4;stroke-dasharray:none;stroke-opacity:1"
     d="m 96.0898,16.891 c 25.999,5.072 29.311,39.26 27.457,46.276"
     id="path388" />
  <path
     style="fill:#231f20;fill-opacity:1;fill-rule:nonzero;stroke:none"
     d="m 123.2398,64.333 c -0.057,-0.604 -0.224,-1.376 -0.484,-1.896 l 0.833,0.578 1.006,-0.094 c -0.48,0.328 -1.006,0.918 -1.355,1.412"
     id="path389" />
  <path
     style="fill:none;stroke:#231f20;stroke-width:0.399514;stroke-linecap:butt;stroke-linejoin:miter;stroke-miterlimit:4;stroke-dasharray:none;stroke-opacity:1"
     d="m 203.3648,87.839 c -16.011,-21.1 4.291,-48.803 10.348,-52.803"
     id="path390" />
  <path
     style="fill:#231f20;fill-opacity:1;fill-rule:nonzero;stroke:none"
     d="m 214.7178,34.375 c -0.358,0.484 -0.749,1.172 -0.9,1.729 l -0.234,-0.98 -0.814,-0.604 c 0.574,0.079 1.36,-0.011 1.948,-0.145"
     id="path391" />
</svg>
