<?xml version="1.0" encoding="UTF-8" standalone="no"?>
<!-- Created with Inkscape (http://www.inkscape.org/) -->

<svg
   version="1.1"
   id="svg1"
   width="360.46698"
   height="103.00805"
   viewBox="0 0 360.46697 103.00805"
   sodipodi:docname="cell.svg"
   xmlns:inkscape="http://www.inkscape.org/namespaces/inkscape"
   xmlns:sodipodi="http://sodipodi.sourceforge.net/DTD/sodipodi-0.dtd"
   xmlns="http://www.w3.org/2000/svg"
   xmlns:svg="http://www.w3.org/2000/svg">
  <sodipodi:namedview
     id="namedview1"
     pagecolor="#ffffff"
     bordercolor="#000000"
     borderopacity="0.25"
     inkscape:showpageshadow="2"
     inkscape:pageopacity="0.0"
     inkscape:pagecheckerboard="0"
     inkscape:deskcolor="#d1d1d1">
    <inkscape:page
       x="0"
       y="0"
       inkscape:label="1"
       id="page1"
       width="360.46698"
       height="103.00805"
       margin="0"
       bleed="0" />
  </sodipodi:namedview>
  <defs
     id="defs1" />
  <path
     style="fill:#ffffff;fill-opacity:1;fill-rule:nonzero;stroke:none"
     d="M 0,18.875 H 18.875 V 0 H 0 Z"
     id="path504" />
  <path
     style="fill:#ffffff;fill-opacity:1;fill-rule:nonzero;stroke:none"
     d="m 343.541,18.875 h 16.926 V 0 h -16.926 z"
     id="path505" />
  <path
     style="fill:#231f20;fill-opacity:1;fill-rule:nonzero;stroke:none"
     d="m 20.698,95.287 c -0.828,-1.074 -0.312,-1.918 0.672,-2.246 0.292,-0.098 0.448,-0.489 0.74,-0.557 0.682,-0.172 2.14,0.792 1.65,2.208 -0.036,0.099 -0.057,0.923 -0.172,1.527 -0.218,1.197 -1.244,3.473 -3.77,4.41 -1.198,0.448 -1.24,-0.342 -0.807,-0.666 1.359,-1.036 1.276,-1.4 1.536,-1.796 0.885,-1.366 0.151,-2.88 0.151,-2.88"
     id="path506" />
  <path
     style="fill:none;stroke:#231f20;stroke-width:0.332927;stroke-linecap:butt;stroke-linejoin:miter;stroke-miterlimit:4;stroke-dasharray:none;stroke-opacity:1"
     d="m 20.698,95.287 c -0.828,-1.074 -0.312,-1.918 0.672,-2.246 0.292,-0.098 0.448,-0.489 0.74,-0.557 0.682,-0.172 2.14,0.792 1.65,2.208 -0.036,0.099 -0.057,0.923 -0.172,1.527 -0.218,1.197 -1.244,3.473 -3.77,4.41 -1.198,0.448 -1.24,-0.342 -0.807,-0.666 1.359,-1.036 1.276,-1.4 1.536,-1.796 0.885,-1.366 0.151,-2.88 0.151,-2.88 z"
     id="path507" />
  <path
     style="fill:#231f20;fill-opacity:1;fill-rule:nonzero;stroke:none"
     d="m 27.099,77.656 c -2.093,-0.86 -2.62,-0.751 -3.047,0.115 -0.281,0.568 -0.74,1.005 -0.926,1.344 -0.631,1.134 -1.219,3.301 -1.282,9.885 -0.016,1.495 -0.048,3.588 -0.13,4.443 -0.136,1.353 2.197,0.65 2.254,0.124 0.183,-1.703 0.448,-2.864 0.595,-3.468 0.104,-0.418 0.187,-1.172 0.791,-2.724 0.922,-2.355 1.818,-3.631 2.354,-5.672 0.251,-0.954 1.042,-1.511 0.808,-2.568 -0.224,-1.063 -1.417,-1.479 -1.417,-1.479"
     id="path508" />
  <path
     style="fill:none;stroke:#231f20;stroke-width:0.565977;stroke-linecap:butt;stroke-linejoin:miter;stroke-miterlimit:4;stroke-dasharray:none;stroke-opacity:1"
     d="m 27.099,77.656 c -2.093,-0.86 -2.62,-0.751 -3.047,0.115 -0.281,0.568 -0.74,1.005 -0.926,1.344 -0.631,1.134 -1.219,3.301 -1.282,9.885 -0.016,1.495 -0.048,3.588 -0.13,4.443 -0.136,1.353 2.197,0.65 2.254,0.124 0.183,-1.703 0.448,-2.864 0.595,-3.468 0.104,-0.418 0.187,-1.172 0.791,-2.724 0.922,-2.355 1.818,-3.631 2.354,-5.672 0.251,-0.954 1.042,-1.511 0.808,-2.568 -0.224,-1.063 -1.417,-1.479 -1.417,-1.479 z"
     id="path509" />
  <path
     style="fill:#ca0369;fill-opacity:1;fill-rule:nonzero;stroke:none"
     d="m 30.73,51.921 c -0.74,3.047 -1.23,3.62 -1.782,4.355 -3.458,4.629 -1.12,6.244 1.76,6.405 3.386,0.188 4.594,0.324 5.49,-5.905 0.25,-1.735 2.068,-8.261 2.068,-8.261 0.969,-2.244 0.708,-4.952 -0.266,-6.031 -1.032,-1.136 -0.708,-0.609 -1.854,-1.489 -1.094,-0.839 -3.266,-1.099 -4.172,-0.262 -0.875,0.803 -0.526,2.434 -0.334,4.855 0.147,1.901 -0.91,6.333 -0.91,6.333"
     id="path510" />
  <path
     style="fill:none;stroke:#231f20;stroke-width:0.565977;stroke-linecap:butt;stroke-linejoin:miter;stroke-miterlimit:4;stroke-dasharray:none;stroke-opacity:1"
     d="m 30.73,51.921 c -0.74,3.047 -1.23,3.62 -1.782,4.355 -3.458,4.629 -1.12,6.244 1.76,6.405 3.386,0.188 4.594,0.324 5.49,-5.905 0.25,-1.735 2.068,-8.261 2.068,-8.261 0.969,-2.244 0.708,-4.952 -0.266,-6.031 -1.032,-1.136 -0.708,-0.609 -1.854,-1.489 -1.094,-0.839 -3.266,-1.099 -4.172,-0.262 -0.875,0.803 -0.526,2.434 -0.334,4.855 0.147,1.901 -0.91,6.333 -0.91,6.333 z"
     id="path511" />
  <path
     style="fill:#ffffff;fill-opacity:1;fill-rule:nonzero;stroke:none"
     d="m 38.766,34.995 c 0.046,-0.24 1.193,-0.323 1.193,-0.844 0.005,-0.527 -0.756,-0.73 -1.6,-2.531 l -0.005,-0.021 c -0.567,-1.339 -1.604,-2.271 -2.848,-2.375 -2.068,-0.188 -3.948,1.948 -4.194,4.76 -0.244,2.812 1.23,5.245 3.303,5.421 1.979,0.178 3.781,-1.776 4.151,-4.41"
     id="path512" />
  <path
     style="fill:none;stroke:#231f20;stroke-width:0.565977;stroke-linecap:butt;stroke-linejoin:miter;stroke-miterlimit:4;stroke-dasharray:none;stroke-opacity:1"
     d="m 38.766,34.995 c 0.046,-0.24 1.193,-0.323 1.193,-0.844 0.005,-0.527 -0.756,-0.73 -1.6,-2.531 l -0.005,-0.021 c -0.567,-1.339 -1.604,-2.271 -2.848,-2.375 -2.068,-0.188 -3.948,1.948 -4.194,4.76 -0.244,2.812 1.23,5.245 3.303,5.421 1.979,0.178 3.781,-1.776 4.151,-4.41 z"
     id="path513" />
  <path
     style="fill:#231f20;fill-opacity:1;fill-rule:nonzero;stroke:none"
     d="m 25.651,79.667 c 3.568,1.842 3.62,-2.24 3.839,-2.662 2.322,-4.438 2.374,-4.818 3.906,-8.324 2.214,-5.061 2.954,-8.869 0.38,-11.02 -1.745,-1.458 -3.38,-1.541 -4.536,-0.912 -1.286,0.694 -3.062,3.328 -1.906,5.975 l -0.24,1.697 c -0.312,1.12 -0.454,1.678 -0.656,2.219 -0.344,0.943 -0.646,1.969 -1.208,3.844 -1.006,3.323 -0.98,7.167 -0.98,7.167 -0.328,1.202 1.401,2.016 1.401,2.016"
     id="path514" />
  <path
     style="fill:none;stroke:#231f20;stroke-width:0.565977;stroke-linecap:butt;stroke-linejoin:miter;stroke-miterlimit:4;stroke-dasharray:none;stroke-opacity:1"
     d="m 25.651,79.667 c 3.568,1.842 3.62,-2.24 3.839,-2.662 2.322,-4.438 2.374,-4.818 3.906,-8.324 2.214,-5.061 2.954,-8.869 0.38,-11.02 -1.745,-1.458 -3.38,-1.541 -4.536,-0.912 -1.286,0.694 -3.062,3.328 -1.906,5.975 l -0.24,1.697 c -0.312,1.12 -0.454,1.678 -0.656,2.219 -0.344,0.943 -0.646,1.969 -1.208,3.844 -1.006,3.323 -0.98,7.167 -0.98,7.167 -0.328,1.202 1.401,2.016 1.401,2.016 z"
     id="path515" />
  <path
     style="fill:#ca0369;fill-opacity:1;fill-rule:nonzero;stroke:none"
     d="m 35.386,61.448 c -0.006,-1.563 -0.475,-2.839 -1.61,-3.787 -1.745,-1.458 -3.38,-1.541 -4.536,-0.912 -1.281,0.699 -3.062,3.334 -1.906,5.975 l 7.244,2.932 c 0.209,-0.625 0.37,-1.213 0.5,-1.781 0.042,-0.068 0.089,-0.136 0.13,-0.188 0.522,-0.615 0.412,-1.234 0.178,-2.239"
     id="path516" />
  <path
     style="fill:none;stroke:#231f20;stroke-width:0.565977;stroke-linecap:butt;stroke-linejoin:miter;stroke-miterlimit:4;stroke-dasharray:none;stroke-opacity:1"
     d="m 35.386,61.448 c -0.006,-1.563 -0.475,-2.839 -1.61,-3.787 -1.745,-1.458 -3.38,-1.541 -4.536,-0.912 -1.281,0.699 -3.062,3.334 -1.906,5.975 l 7.244,2.932 c 0.209,-0.625 0.37,-1.213 0.5,-1.781 0.042,-0.068 0.089,-0.136 0.13,-0.188 0.522,-0.615 0.412,-1.234 0.178,-2.239 z"
     id="path517" />
  <path
     style="fill:#231f20;fill-opacity:1;fill-rule:nonzero;stroke:none"
     d="m 29.604,62.932 c -0.254,-0.593 0.318,-2.453 0.167,-4.057 -0.104,-1.079 0.776,-3.678 0.593,-4.746 -0.161,-0.984 -0.145,-1.448 0.943,-1.828 0.641,-0.229 2.027,-0.244 2.219,0.23 0.448,1.104 0.433,2.046 0.193,3.093 -0.276,1.177 -1.308,4.329 -1.547,4.891 -0.609,1.396 -0.422,2.109 -0.552,2.496 -0.234,0.722 -0.568,0.812 -1.073,0.76 -0.948,-0.099 -0.943,-0.839 -0.943,-0.839"
     id="path518" />
  <path
     style="fill:none;stroke:#231f20;stroke-width:0.565977;stroke-linecap:butt;stroke-linejoin:miter;stroke-miterlimit:4;stroke-dasharray:none;stroke-opacity:1"
     d="m 29.604,62.932 c -0.254,-0.593 0.318,-2.453 0.167,-4.057 -0.104,-1.079 0.776,-3.678 0.593,-4.746 -0.161,-0.984 -0.145,-1.448 0.943,-1.828 0.641,-0.229 2.027,-0.244 2.219,0.23 0.448,1.104 0.433,2.046 0.193,3.093 -0.276,1.177 -1.308,4.329 -1.547,4.891 -0.609,1.396 -0.422,2.109 -0.552,2.496 -0.234,0.722 -0.568,0.812 -1.073,0.76 -0.948,-0.099 -0.943,-0.839 -0.943,-0.839 z"
     id="path519" />
  <path
     style="fill:#231f20;fill-opacity:1;fill-rule:nonzero;stroke:none"
     d="m 31.026,53.979 c -1.25,-0.339 -0.364,-2.172 -0.203,-2.688 0.161,-0.52 0.448,-2.052 0.521,-3.271 0.067,-1.224 0.682,-2.719 0.818,-5.041 0.073,-1.219 0.916,-2.359 2.688,-2.178 1.744,0.178 2.301,1.23 1.989,2.694 -0.313,1.462 -1.224,2.702 -1.641,4.161 -0.416,1.448 -0.703,2.968 -0.875,4.172 -0.193,1.369 -0.797,1.973 -1.26,2.093 -1.156,0.312 -2.037,0.058 -2.037,0.058"
     id="path520" />
  <path
     style="fill:none;stroke:#231f20;stroke-width:0.565977;stroke-linecap:butt;stroke-linejoin:miter;stroke-miterlimit:4;stroke-dasharray:none;stroke-opacity:1"
     d="m 31.026,53.979 c -1.25,-0.339 -0.364,-2.172 -0.203,-2.688 0.161,-0.52 0.448,-2.052 0.521,-3.271 0.067,-1.224 0.682,-2.719 0.818,-5.041 0.073,-1.219 0.916,-2.359 2.688,-2.178 1.744,0.178 2.301,1.23 1.989,2.694 -0.313,1.462 -1.224,2.702 -1.641,4.161 -0.416,1.448 -0.703,2.968 -0.875,4.172 -0.193,1.369 -0.797,1.973 -1.26,2.093 -1.156,0.312 -2.037,0.058 -2.037,0.058 z"
     id="path521" />
  <path
     style="fill:#ffffff;fill-opacity:1;fill-rule:nonzero;stroke:#231f20;stroke-width:0.665856;stroke-linecap:butt;stroke-linejoin:miter;stroke-miterlimit:4;stroke-dasharray:none;stroke-opacity:1"
     d="m 29.854,55.416 h 1.328 V 17.083 h -1.328 z"
     id="path522" />
  <path
     style="fill:#ffffff;fill-opacity:1;fill-rule:nonzero;stroke:none"
     d="m 26.656,60.353 c 0,-2.353 1.918,-4.27 4.271,-4.27 2.355,0 4.271,1.917 4.271,4.27 0,2.355 -1.916,4.267 -4.271,4.267 -2.353,0 -4.271,-1.912 -4.271,-4.267 m -1.328,0 c 0,3.09 2.511,5.6 5.599,5.6 3.089,0 5.604,-2.51 5.604,-5.6 0,-3.088 -2.515,-5.604 -5.604,-5.604 -3.088,0 -5.599,2.516 -5.599,5.604"
     id="path523" />
  <path
     style="fill:none;stroke:#231f20;stroke-width:0.665856;stroke-linecap:butt;stroke-linejoin:miter;stroke-miterlimit:4;stroke-dasharray:none;stroke-opacity:1"
     d="m 26.656,60.353 c 0,-2.353 1.918,-4.27 4.271,-4.27 2.355,0 4.271,1.917 4.271,4.27 0,2.355 -1.916,4.267 -4.271,4.267 -2.353,0 -4.271,-1.912 -4.271,-4.267 z m -1.328,0 c 0,3.09 2.511,5.6 5.599,5.6 3.089,0 5.604,-2.51 5.604,-5.6 0,-3.088 -2.515,-5.604 -5.604,-5.604 -3.088,0 -5.599,2.516 -5.599,5.604 z"
     id="path524" />
  <path
     style="fill:#231f20;fill-opacity:1;fill-rule:nonzero;stroke:none"
     d="m 31.454,63.312 c 0.582,0.391 0.29,2.688 -0.022,2.751 -0.312,0.066 -0.13,-0.678 -0.484,-0.62 -0.354,0.057 -0.39,0.557 -0.62,0.525 -0.25,-0.025 -0.109,-0.615 -0.412,-0.588 -0.129,0.011 -0.462,0.5 -0.64,0.421 -0.15,-0.068 -0.234,-0.582 -0.354,-0.645 -0.192,-0.093 -0.386,0.489 -0.552,0.421 -0.432,-0.172 0.765,-2.604 0.994,-2.672 0.344,-0.093 1.156,-0.228 2.09,0.407"
     id="path525" />
  <path
     style="fill:none;stroke:#231f20;stroke-width:0.565977;stroke-linecap:round;stroke-linejoin:round;stroke-miterlimit:4;stroke-dasharray:none;stroke-opacity:1"
     d="m 31.454,63.312 c 0.582,0.391 0.29,2.688 -0.022,2.751 -0.312,0.066 -0.13,-0.678 -0.484,-0.62 -0.354,0.057 -0.39,0.557 -0.62,0.525 -0.25,-0.025 -0.109,-0.615 -0.412,-0.588 -0.129,0.011 -0.462,0.5 -0.64,0.421 -0.15,-0.068 -0.234,-0.582 -0.354,-0.645 -0.192,-0.093 -0.386,0.489 -0.552,0.421 -0.432,-0.172 0.765,-2.604 0.994,-2.672 0.344,-0.093 1.156,-0.228 2.09,0.407 z"
     id="path526" />
  <path
     style="fill:#231f20;fill-opacity:1;fill-rule:nonzero;stroke:none"
     d="m 324.369,95.287 c -0.828,-1.074 -0.312,-1.918 0.672,-2.246 0.297,-0.098 0.443,-0.489 0.74,-0.557 0.681,-0.172 2.14,0.792 1.651,2.208 -0.036,0.099 -0.058,0.923 -0.172,1.527 -0.219,1.197 -1.244,3.473 -3.771,4.41 -1.197,0.448 -1.24,-0.342 -0.807,-0.666 1.359,-1.036 1.276,-1.4 1.536,-1.796 0.886,-1.366 0.151,-2.88 0.151,-2.88"
     id="path527" />
  <path
     style="fill:none;stroke:#231f20;stroke-width:0.332927;stroke-linecap:butt;stroke-linejoin:miter;stroke-miterlimit:4;stroke-dasharray:none;stroke-opacity:1"
     d="m 324.369,95.287 c -0.828,-1.074 -0.312,-1.918 0.672,-2.246 0.297,-0.098 0.443,-0.489 0.74,-0.557 0.681,-0.172 2.14,0.792 1.651,2.208 -0.036,0.099 -0.058,0.923 -0.172,1.527 -0.219,1.197 -1.244,3.473 -3.771,4.41 -1.197,0.448 -1.24,-0.342 -0.807,-0.666 1.359,-1.036 1.276,-1.4 1.536,-1.796 0.886,-1.366 0.151,-2.88 0.151,-2.88 z"
     id="path528" />
  <path
     style="fill:#231f20;fill-opacity:1;fill-rule:nonzero;stroke:none"
     d="m 330.77,77.656 c -2.093,-0.86 -2.62,-0.751 -3.046,0.115 -0.282,0.568 -0.74,1.005 -0.928,1.344 -0.63,1.134 -1.219,3.301 -1.28,9.885 -0.016,1.495 -0.048,3.588 -0.136,4.443 -0.131,1.353 2.202,0.65 2.26,0.124 0.182,-1.703 0.448,-2.864 0.594,-3.468 0.104,-0.418 0.187,-1.172 0.791,-2.724 0.923,-2.355 1.819,-3.631 2.355,-5.672 0.25,-0.954 1.041,-1.511 0.806,-2.568 -0.222,-1.063 -1.416,-1.479 -1.416,-1.479"
     id="path529" />
  <path
     style="fill:none;stroke:#231f20;stroke-width:0.565977;stroke-linecap:butt;stroke-linejoin:miter;stroke-miterlimit:4;stroke-dasharray:none;stroke-opacity:1"
     d="m 330.77,77.656 c -2.093,-0.86 -2.62,-0.751 -3.046,0.115 -0.282,0.568 -0.74,1.005 -0.928,1.344 -0.63,1.134 -1.219,3.301 -1.28,9.885 -0.016,1.495 -0.048,3.588 -0.136,4.443 -0.131,1.353 2.202,0.65 2.26,0.124 0.182,-1.703 0.448,-2.864 0.594,-3.468 0.104,-0.418 0.187,-1.172 0.791,-2.724 0.923,-2.355 1.819,-3.631 2.355,-5.672 0.25,-0.954 1.041,-1.511 0.806,-2.568 -0.222,-1.063 -1.416,-1.479 -1.416,-1.479 z"
     id="path530" />
  <path
     style="fill:#ca0369;fill-opacity:1;fill-rule:nonzero;stroke:none"
     d="m 334.401,51.921 c -0.74,3.047 -1.229,3.62 -1.781,4.355 -3.459,4.629 -1.12,6.244 1.76,6.405 3.385,0.188 4.593,0.324 5.489,-5.905 0.251,-1.735 2.073,-8.261 2.073,-8.261 0.964,-2.244 0.703,-4.952 -0.27,-6.031 -1.032,-1.136 -0.708,-0.609 -1.855,-1.489 -1.093,-0.839 -3.265,-1.099 -4.172,-0.262 -0.875,0.803 -0.525,2.434 -0.333,4.855 0.146,1.901 -0.911,6.333 -0.911,6.333"
     id="path531" />
  <path
     style="fill:none;stroke:#231f20;stroke-width:0.565977;stroke-linecap:butt;stroke-linejoin:miter;stroke-miterlimit:4;stroke-dasharray:none;stroke-opacity:1"
     d="m 334.401,51.921 c -0.74,3.047 -1.229,3.62 -1.781,4.355 -3.459,4.629 -1.12,6.244 1.76,6.405 3.385,0.188 4.593,0.324 5.489,-5.905 0.251,-1.735 2.073,-8.261 2.073,-8.261 0.964,-2.244 0.703,-4.952 -0.27,-6.031 -1.032,-1.136 -0.708,-0.609 -1.855,-1.489 -1.093,-0.839 -3.265,-1.099 -4.172,-0.262 -0.875,0.803 -0.525,2.434 -0.333,4.855 0.146,1.901 -0.911,6.333 -0.911,6.333 z"
     id="path532" />
  <path
     style="fill:#ffffff;fill-opacity:1;fill-rule:nonzero;stroke:none"
     d="m 342.437,34.995 c 0.047,-0.24 1.193,-0.323 1.193,-0.844 0.004,-0.527 -0.756,-0.73 -1.594,-2.531 l -0.011,-0.021 c -0.567,-1.339 -1.604,-2.271 -2.848,-2.375 -2.068,-0.188 -3.948,1.948 -4.193,4.76 -0.244,2.812 1.229,5.245 3.302,5.421 1.974,0.178 3.787,-1.776 4.151,-4.41"
     id="path533" />
  <path
     style="fill:none;stroke:#231f20;stroke-width:0.565977;stroke-linecap:butt;stroke-linejoin:miter;stroke-miterlimit:4;stroke-dasharray:none;stroke-opacity:1"
     d="m 342.437,34.995 c 0.047,-0.24 1.193,-0.323 1.193,-0.844 0.004,-0.527 -0.756,-0.73 -1.594,-2.531 l -0.011,-0.021 c -0.567,-1.339 -1.604,-2.271 -2.848,-2.375 -2.068,-0.188 -3.948,1.948 -4.193,4.76 -0.244,2.812 1.229,5.245 3.302,5.421 1.974,0.178 3.787,-1.776 4.151,-4.41 z"
     id="path534" />
  <path
     style="fill:#231f20;fill-opacity:1;fill-rule:nonzero;stroke:none"
     d="m 329.328,79.667 c 3.562,1.842 3.614,-2.24 3.833,-2.662 2.323,-4.438 2.38,-4.818 3.907,-8.324 2.213,-5.061 2.948,-8.869 0.38,-11.02 -1.746,-1.458 -3.375,-1.541 -4.538,-0.912 -1.28,0.694 -3.061,3.328 -1.905,5.975 l -0.24,1.697 c -0.312,1.12 -0.453,1.678 -0.656,2.219 -0.344,0.943 -0.647,1.969 -1.208,3.844 -1.005,3.323 -0.98,7.167 -0.98,7.167 -0.328,1.202 1.407,2.016 1.407,2.016"
     id="path535" />
  <path
     style="fill:none;stroke:#231f20;stroke-width:0.565977;stroke-linecap:butt;stroke-linejoin:miter;stroke-miterlimit:4;stroke-dasharray:none;stroke-opacity:1"
     d="m 329.328,79.667 c 3.562,1.842 3.614,-2.24 3.833,-2.662 2.323,-4.438 2.38,-4.818 3.907,-8.324 2.213,-5.061 2.948,-8.869 0.38,-11.02 -1.746,-1.458 -3.375,-1.541 -4.538,-0.912 -1.28,0.694 -3.061,3.328 -1.905,5.975 l -0.24,1.697 c -0.312,1.12 -0.453,1.678 -0.656,2.219 -0.344,0.943 -0.647,1.969 -1.208,3.844 -1.005,3.323 -0.98,7.167 -0.98,7.167 -0.328,1.202 1.407,2.016 1.407,2.016 z"
     id="path536" />
  <path
     style="fill:#ca0369;fill-opacity:1;fill-rule:nonzero;stroke:none"
     d="m 339.057,61.448 c -0.005,-1.557 -0.475,-2.839 -1.609,-3.787 -1.746,-1.458 -3.38,-1.541 -4.538,-0.912 -1.28,0.699 -3.061,3.334 -1.905,5.975 l 7.249,2.932 c 0.208,-0.625 0.366,-1.213 0.495,-1.787 0.047,-0.062 0.089,-0.13 0.131,-0.182 0.521,-0.615 0.412,-1.234 0.177,-2.239"
     id="path537" />
  <path
     style="fill:none;stroke:#231f20;stroke-width:0.565977;stroke-linecap:butt;stroke-linejoin:miter;stroke-miterlimit:4;stroke-dasharray:none;stroke-opacity:1"
     d="m 339.057,61.448 c -0.005,-1.557 -0.475,-2.839 -1.609,-3.787 -1.746,-1.458 -3.38,-1.541 -4.538,-0.912 -1.28,0.699 -3.061,3.334 -1.905,5.975 l 7.249,2.932 c 0.208,-0.625 0.366,-1.213 0.495,-1.787 0.047,-0.062 0.089,-0.13 0.131,-0.182 0.521,-0.615 0.412,-1.234 0.177,-2.239 z"
     id="path538" />
  <path
     style="fill:#231f20;fill-opacity:1;fill-rule:nonzero;stroke:none"
     d="m 333.281,62.932 c -0.261,-0.593 0.312,-2.453 0.161,-4.057 -0.098,-1.079 0.776,-3.678 0.594,-4.746 -0.162,-0.984 -0.151,-1.448 0.942,-1.828 0.642,-0.229 2.027,-0.244 2.219,0.23 0.448,1.104 0.433,2.046 0.193,3.093 -0.276,1.177 -1.308,4.329 -1.546,4.891 -0.61,1.396 -0.423,2.109 -0.552,2.496 -0.235,0.722 -0.568,0.812 -1.074,0.76 -0.948,-0.099 -0.937,-0.839 -0.937,-0.839"
     id="path539" />
  <path
     style="fill:none;stroke:#231f20;stroke-width:0.565977;stroke-linecap:butt;stroke-linejoin:miter;stroke-miterlimit:4;stroke-dasharray:none;stroke-opacity:1"
     d="m 333.281,62.932 c -0.261,-0.593 0.312,-2.453 0.161,-4.057 -0.098,-1.079 0.776,-3.678 0.594,-4.746 -0.162,-0.984 -0.151,-1.448 0.942,-1.828 0.642,-0.229 2.027,-0.244 2.219,0.23 0.448,1.104 0.433,2.046 0.193,3.093 -0.276,1.177 -1.308,4.329 -1.546,4.891 -0.61,1.396 -0.423,2.109 -0.552,2.496 -0.235,0.722 -0.568,0.812 -1.074,0.76 -0.948,-0.099 -0.937,-0.839 -0.937,-0.839 z"
     id="path540" />
  <path
     style="fill:#231f20;fill-opacity:1;fill-rule:nonzero;stroke:none"
     d="m 334.697,53.979 c -1.249,-0.339 -0.359,-2.172 -0.203,-2.688 0.162,-0.52 0.448,-2.052 0.522,-3.271 0.066,-1.224 0.681,-2.719 0.817,-5.041 0.073,-1.219 0.916,-2.359 2.687,-2.178 1.745,0.178 2.302,1.23 1.99,2.694 -0.313,1.462 -1.224,2.702 -1.641,4.161 -0.416,1.448 -0.703,2.968 -0.875,4.172 -0.193,1.369 -0.797,1.973 -1.26,2.093 -1.157,0.312 -2.037,0.058 -2.037,0.058"
     id="path541" />
  <path
     style="fill:none;stroke:#231f20;stroke-width:0.565977;stroke-linecap:butt;stroke-linejoin:miter;stroke-miterlimit:4;stroke-dasharray:none;stroke-opacity:1"
     d="m 334.697,53.979 c -1.249,-0.339 -0.359,-2.172 -0.203,-2.688 0.162,-0.52 0.448,-2.052 0.522,-3.271 0.066,-1.224 0.681,-2.719 0.817,-5.041 0.073,-1.219 0.916,-2.359 2.687,-2.178 1.745,0.178 2.302,1.23 1.99,2.694 -0.313,1.462 -1.224,2.702 -1.641,4.161 -0.416,1.448 -0.703,2.968 -0.875,4.172 -0.193,1.369 -0.797,1.973 -1.26,2.093 -1.157,0.312 -2.037,0.058 -2.037,0.058 z"
     id="path542" />
  <path
     style="fill:#ffffff;fill-opacity:1;fill-rule:nonzero;stroke:none"
     d="m 333.52,55.416 h 1.333 V 17.083 h -1.333 z"
     id="path543" />
  <path
     style="fill:none;stroke:#231f20;stroke-width:0.665856;stroke-linecap:butt;stroke-linejoin:miter;stroke-miterlimit:4;stroke-dasharray:none;stroke-opacity:1"
     d="m 333.525,55.416 h 1.328 V 17.083 h -1.328 z"
     id="path544" />
  <path
     style="fill:#ffffff;fill-opacity:1;fill-rule:nonzero;stroke:none"
     d="m 330.328,60.353 c 0,-2.353 1.916,-4.27 4.27,-4.27 2.355,0 4.271,1.917 4.271,4.27 0,2.355 -1.916,4.267 -4.271,4.267 -2.354,0 -4.27,-1.912 -4.27,-4.267 m -1.328,0 c 0,3.09 2.51,5.6 5.598,5.6 3.088,0 5.599,-2.51 5.599,-5.6 0,-3.088 -2.511,-5.604 -5.599,-5.604 -3.088,0 -5.598,2.516 -5.598,5.604"
     id="path545" />
  <path
     style="fill:none;stroke:#231f20;stroke-width:0.665856;stroke-linecap:butt;stroke-linejoin:miter;stroke-miterlimit:4;stroke-dasharray:none;stroke-opacity:1"
     d="m 330.328,60.353 c 0,-2.353 1.916,-4.27 4.27,-4.27 2.355,0 4.271,1.917 4.271,4.27 0,2.355 -1.916,4.267 -4.271,4.267 -2.354,0 -4.27,-1.912 -4.27,-4.267 z m -1.328,0 c 0,3.09 2.51,5.6 5.598,5.6 3.088,0 5.599,-2.51 5.599,-5.6 0,-3.088 -2.511,-5.604 -5.599,-5.604 -3.088,0 -5.598,2.516 -5.598,5.604 z"
     id="path546" />
  <path
     style="fill:#231f20;fill-opacity:1;fill-rule:nonzero;stroke:none"
     d="m 335.129,63.312 c 0.579,0.391 0.287,2.688 -0.025,2.751 -0.312,0.066 -0.131,-0.678 -0.484,-0.62 -0.35,0.057 -0.391,0.557 -0.62,0.525 -0.251,-0.025 -0.11,-0.615 -0.412,-0.588 -0.126,0.011 -0.459,0.5 -0.635,0.421 -0.157,-0.068 -0.24,-0.582 -0.36,-0.645 -0.192,-0.093 -0.385,0.489 -0.552,0.421 -0.432,-0.172 0.765,-2.604 0.995,-2.672 0.344,-0.093 1.156,-0.228 2.093,0.407"
     id="path547" />
  <path
     style="fill:none;stroke:#231f20;stroke-width:0.565977;stroke-linecap:round;stroke-linejoin:round;stroke-miterlimit:4;stroke-dasharray:none;stroke-opacity:1"
     d="m 335.129,63.312 c 0.579,0.391 0.287,2.688 -0.025,2.751 -0.312,0.066 -0.131,-0.678 -0.484,-0.62 -0.35,0.057 -0.391,0.557 -0.62,0.525 -0.251,-0.025 -0.11,-0.615 -0.412,-0.588 -0.126,0.011 -0.459,0.5 -0.635,0.421 -0.157,-0.068 -0.24,-0.582 -0.36,-0.645 -0.192,-0.093 -0.385,0.489 -0.552,0.421 -0.432,-0.172 0.765,-2.604 0.995,-2.672 0.344,-0.093 1.156,-0.228 2.093,0.407 z"
     id="path548" />
  <path
     style="fill:#231f20;fill-opacity:1;fill-rule:nonzero;stroke:none"
     d="m 113.708,82.047 c -1.088,0.796 -1.921,0.254 -2.224,-0.735 -0.093,-0.297 -0.473,-0.459 -0.536,-0.749 -0.156,-0.688 0.844,-2.126 2.244,-1.595 0.105,0.043 0.923,0.084 1.532,0.213 1.183,0.251 3.437,1.334 4.307,3.886 0.412,1.209 -0.375,1.224 -0.692,0.786 -1,-1.385 -1.36,-1.312 -1.756,-1.582 -1.339,-0.923 -2.875,-0.224 -2.875,-0.224"
     id="path549" />
  <path
     style="fill:none;stroke:#231f20;stroke-width:0.332927;stroke-linecap:butt;stroke-linejoin:miter;stroke-miterlimit:4;stroke-dasharray:none;stroke-opacity:1"
     d="m 113.708,82.047 c -1.088,0.796 -1.921,0.254 -2.224,-0.735 -0.093,-0.297 -0.473,-0.459 -0.536,-0.749 -0.156,-0.688 0.844,-2.126 2.244,-1.595 0.105,0.043 0.923,0.084 1.532,0.213 1.183,0.251 3.437,1.334 4.307,3.886 0.412,1.209 -0.375,1.224 -0.692,0.786 -1,-1.385 -1.36,-1.312 -1.756,-1.582 -1.339,-0.923 -2.875,-0.224 -2.875,-0.224 z"
     id="path550" />
  <path
     style="fill:#231f20;fill-opacity:1;fill-rule:nonzero;stroke:none"
     d="m 96.255,75.181 c -0.916,2.068 -0.812,2.6 0.032,3.048 0.562,0.296 0.989,0.76 1.322,0.963 1.12,0.656 3.266,1.303 9.85,1.541 1.489,0.058 3.582,0.147 4.437,0.251 1.348,0.167 0.708,-2.183 0.181,-2.255 -1.697,-0.229 -2.848,-0.521 -3.446,-0.688 -0.418,-0.114 -1.172,-0.218 -2.704,-0.865 -2.328,-0.979 -3.578,-1.911 -5.61,-2.499 -0.942,-0.272 -1.478,-1.078 -2.541,-0.876 -1.068,0.199 -1.521,1.38 -1.521,1.38"
     id="path551" />
  <path
     style="fill:none;stroke:#231f20;stroke-width:0.565977;stroke-linecap:butt;stroke-linejoin:miter;stroke-miterlimit:4;stroke-dasharray:none;stroke-opacity:1"
     d="m 96.255,75.181 c -0.916,2.068 -0.812,2.6 0.032,3.048 0.562,0.296 0.989,0.76 1.322,0.963 1.12,0.656 3.266,1.303 9.85,1.541 1.489,0.058 3.582,0.147 4.437,0.251 1.348,0.167 0.708,-2.183 0.181,-2.255 -1.697,-0.229 -2.848,-0.521 -3.446,-0.688 -0.418,-0.114 -1.172,-0.218 -2.704,-0.865 -2.328,-0.979 -3.578,-1.911 -5.61,-2.499 -0.942,-0.272 -1.478,-1.078 -2.541,-0.876 -1.068,0.199 -1.521,1.38 -1.521,1.38 z"
     id="path552" />
  <path
     style="fill:#ca0369;fill-opacity:1;fill-rule:nonzero;stroke:none"
     d="m 71.026,67.167 c 2.308,2.114 2.573,2.822 2.953,3.661 2.385,5.265 4.928,4 6.459,1.557 1.802,-2.876 2.505,-3.865 -2.516,-7.661 -1.396,-1.057 -6.235,-5.803 -6.235,-5.803 -1.495,-1.932 -3.995,-3.016 -5.411,-2.682 -1.494,0.354 -0.874,0.324 -2.198,0.901 -1.26,0.557 -2.536,2.328 -2.244,3.532 0.281,1.151 1.874,1.635 4.088,2.64 1.74,0.787 5.104,3.855 5.104,3.855"
     id="path553" />
  <path
     style="fill:none;stroke:#231f20;stroke-width:0.565977;stroke-linecap:butt;stroke-linejoin:miter;stroke-miterlimit:4;stroke-dasharray:none;stroke-opacity:1"
     d="m 71.026,67.167 c 2.308,2.114 2.573,2.822 2.953,3.661 2.385,5.265 4.928,4 6.459,1.557 1.802,-2.876 2.505,-3.865 -2.516,-7.661 -1.396,-1.057 -6.235,-5.803 -6.235,-5.803 -1.495,-1.932 -3.995,-3.016 -5.411,-2.682 -1.494,0.354 -0.874,0.324 -2.198,0.901 -1.26,0.557 -2.536,2.328 -2.244,3.532 0.281,1.151 1.874,1.635 4.088,2.64 1.74,0.787 5.104,3.855 5.104,3.855 z"
     id="path554" />
  <path
     style="fill:#ffffff;fill-opacity:1;fill-rule:nonzero;stroke:none"
     d="m 61.578,51.265 c -0.146,-0.193 0.548,-1.109 0.152,-1.453 -0.396,-0.349 -1.052,0.093 -2.964,-0.459 l -0.022,-0.005 c -1.38,-0.448 -2.76,-0.276 -3.661,0.595 -1.495,1.442 -1.115,4.26 0.849,6.286 1.964,2.031 4.766,2.51 6.26,1.062 1.428,-1.38 1.142,-4.02 -0.614,-6.026"
     id="path555" />
  <path
     style="fill:none;stroke:#231f20;stroke-width:0.565977;stroke-linecap:butt;stroke-linejoin:miter;stroke-miterlimit:4;stroke-dasharray:none;stroke-opacity:1"
     d="m 61.578,51.265 c -0.146,-0.193 0.548,-1.109 0.152,-1.453 -0.396,-0.349 -1.052,0.093 -2.964,-0.459 l -0.022,-0.005 c -1.38,-0.448 -2.76,-0.276 -3.661,0.595 -1.495,1.442 -1.115,4.26 0.849,6.286 1.964,2.031 4.766,2.51 6.26,1.062 1.428,-1.38 1.142,-4.02 -0.614,-6.026 z"
     id="path556" />
  <path
     style="fill:#231f20;fill-opacity:1;fill-rule:nonzero;stroke:none"
     d="m 98.229,76.681 c 1.932,-3.514 -2.146,-3.676 -2.562,-3.91 -4.375,-2.438 -4.751,-2.5 -8.214,-4.126 -5.005,-2.344 -8.791,-3.182 -11.005,-0.666 -1.505,1.702 -1.636,3.333 -1.037,4.51 0.663,1.298 3.251,3.146 5.928,2.058 l 1.687,0.286 c 1.109,0.339 1.666,0.5 2.198,0.714 0.932,0.369 1.959,0.702 3.817,1.317 3.292,1.089 7.136,1.161 7.136,1.161 1.192,0.36 2.052,-1.344 2.052,-1.344"
     id="path557" />
  <path
     style="fill:none;stroke:#231f20;stroke-width:0.565977;stroke-linecap:butt;stroke-linejoin:miter;stroke-miterlimit:4;stroke-dasharray:none;stroke-opacity:1"
     d="m 98.229,76.681 c 1.932,-3.514 -2.146,-3.676 -2.562,-3.91 -4.375,-2.438 -4.751,-2.5 -8.214,-4.126 -5.005,-2.344 -8.791,-3.182 -11.005,-0.666 -1.505,1.702 -1.636,3.333 -1.037,4.51 0.663,1.298 3.251,3.146 5.928,2.058 l 1.687,0.286 c 1.109,0.339 1.666,0.5 2.198,0.714 0.932,0.369 1.959,0.702 3.817,1.317 3.292,1.089 7.136,1.161 7.136,1.161 1.192,0.36 2.052,-1.344 2.052,-1.344 z"
     id="path558" />
  <path
     style="fill:#ca0369;fill-opacity:1;fill-rule:nonzero;stroke:none"
     d="m 82.402,66.817 c -0.068,-0.041 -0.131,-0.088 -0.183,-0.136 -0.604,-0.536 -1.224,-0.437 -2.24,-0.233 -1.557,-0.037 -2.844,0.4 -3.823,1.505 -1.505,1.708 -1.63,3.338 -1.03,4.515 0.661,1.297 3.244,3.147 5.921,2.057 l 3.12,-7.161 C 83.552,67.14 82.968,66.968 82.402,66.817"
     id="path559" />
  <path
     style="fill:none;stroke:#231f20;stroke-width:0.565977;stroke-linecap:butt;stroke-linejoin:miter;stroke-miterlimit:4;stroke-dasharray:none;stroke-opacity:1"
     d="m 82.402,66.817 c -0.068,-0.041 -0.131,-0.088 -0.183,-0.136 -0.604,-0.536 -1.224,-0.437 -2.24,-0.233 -1.557,-0.037 -2.844,0.4 -3.823,1.505 -1.505,1.708 -1.63,3.338 -1.03,4.515 0.661,1.297 3.244,3.147 5.921,2.057 l 3.12,-7.161 C 83.552,67.14 82.968,66.968 82.402,66.817 Z"
     id="path560" />
  <path
     style="fill:#231f20;fill-opacity:1;fill-rule:nonzero;stroke:none"
     d="M 70.886,68.765 C 69.864,69.567 68.922,67.76 68.604,67.323 68.282,66.885 67.23,65.744 66.287,64.957 65.35,64.172 64.511,62.791 62.73,61.296 c -0.938,-0.787 -1.35,-2.145 -0.152,-3.453 1.188,-1.296 2.365,-1.119 3.349,0 0.989,1.125 1.448,2.594 2.371,3.797 0.916,1.203 1.957,2.339 2.828,3.193 0.978,0.974 1.104,1.818 0.932,2.266 -0.443,1.104 -1.172,1.666 -1.172,1.666"
     id="path561" />
  <path
     style="fill:none;stroke:#231f20;stroke-width:0.565977;stroke-linecap:butt;stroke-linejoin:miter;stroke-miterlimit:4;stroke-dasharray:none;stroke-opacity:1"
     d="M 70.886,68.765 C 69.864,69.567 68.922,67.76 68.604,67.323 68.282,66.885 67.23,65.744 66.287,64.957 65.35,64.172 64.511,62.791 62.73,61.296 c -0.938,-0.787 -1.35,-2.145 -0.152,-3.453 1.188,-1.296 2.365,-1.119 3.349,0 0.989,1.125 1.448,2.594 2.371,3.797 0.916,1.203 1.957,2.339 2.828,3.193 0.978,0.974 1.104,1.818 0.932,2.266 -0.443,1.104 -1.172,1.666 -1.172,1.666 z"
     id="path562" />
  <path
     style="fill:#ffffff;fill-opacity:1;fill-rule:nonzero;stroke:#231f20;stroke-width:0.665856;stroke-linecap:butt;stroke-linejoin:miter;stroke-miterlimit:4;stroke-dasharray:none;stroke-opacity:1"
     d="m 79.678,55.385 h 1.328 V 17.052 h -1.328 z"
     id="path563" />
  <path
     style="fill:#231f20;fill-opacity:1;fill-rule:nonzero;stroke:none"
     d="m 80.058,65.38 c -0.412,0.5 -2.328,0.817 -3.694,1.672 -0.921,0.572 -3.64,0.948 -4.514,1.588 -0.803,0.589 -1.224,0.781 -2.054,-0.02 -0.494,-0.475 -1.129,-1.704 -0.79,-2.089 0.786,-0.891 1.64,-1.302 2.677,-1.552 1.187,-0.287 4.457,-0.776 5.067,-0.807 1.526,-0.084 2.073,-0.568 2.48,-0.625 0.749,-0.115 0.978,0.14 1.161,0.62 0.339,0.89 -0.333,1.213 -0.333,1.213"
     id="path564" />
  <path
     style="fill:none;stroke:#231f20;stroke-width:0.565977;stroke-linecap:butt;stroke-linejoin:miter;stroke-miterlimit:4;stroke-dasharray:none;stroke-opacity:1"
     d="m 80.058,65.38 c -0.412,0.5 -2.328,0.817 -3.694,1.672 -0.921,0.572 -3.64,0.948 -4.514,1.588 -0.803,0.589 -1.224,0.781 -2.054,-0.02 -0.494,-0.475 -1.129,-1.704 -0.79,-2.089 0.786,-0.891 1.64,-1.302 2.677,-1.552 1.187,-0.287 4.457,-0.776 5.067,-0.807 1.526,-0.084 2.073,-0.568 2.48,-0.625 0.749,-0.115 0.978,0.14 1.161,0.62 0.339,0.89 -0.333,1.213 -0.333,1.213 z"
     id="path565" />
  <path
     style="fill:#ffffff;fill-opacity:1;fill-rule:nonzero;stroke:none"
     d="m 76.479,60.317 c 0,-2.354 1.917,-4.27 4.271,-4.27 2.354,0 4.27,1.916 4.27,4.27 0,2.355 -1.916,4.271 -4.27,4.271 -2.354,0 -4.271,-1.916 -4.271,-4.271 m -1.328,0 c 0,3.088 2.511,5.599 5.599,5.599 3.089,0 5.604,-2.511 5.604,-5.599 0,-3.088 -2.515,-5.598 -5.604,-5.598 -3.088,0 -5.599,2.51 -5.599,5.598"
     id="path566" />
  <path
     style="fill:none;stroke:#231f20;stroke-width:0.665856;stroke-linecap:butt;stroke-linejoin:miter;stroke-miterlimit:4;stroke-dasharray:none;stroke-opacity:1"
     d="m 76.479,60.317 c 0,-2.354 1.917,-4.27 4.271,-4.27 2.354,0 4.27,1.916 4.27,4.27 0,2.355 -1.916,4.271 -4.27,4.271 -2.354,0 -4.271,-1.916 -4.271,-4.271 z m -1.328,0 c 0,3.088 2.511,5.599 5.599,5.599 3.089,0 5.604,-2.511 5.604,-5.599 0,-3.088 -2.515,-5.598 -5.604,-5.598 -3.088,0 -5.599,2.51 -5.599,5.598 z"
     id="path567" />
  <path
     style="fill:#231f20;fill-opacity:1;fill-rule:nonzero;stroke:none"
     d="m 81.812,63.453 c 0.688,0.124 1.339,2.348 1.079,2.536 -0.26,0.183 -0.396,-0.573 -0.693,-0.38 -0.302,0.192 -0.14,0.667 -0.359,0.735 -0.24,0.072 -0.344,-0.521 -0.615,-0.381 -0.109,0.062 -0.224,0.646 -0.412,0.641 -0.172,0 -0.453,-0.437 -0.588,-0.448 -0.213,-0.011 -0.161,0.599 -0.338,0.609 -0.464,0.011 -0.339,-2.698 -0.151,-2.849 0.276,-0.224 0.968,-0.667 2.077,-0.463"
     id="path568" />
  <path
     style="fill:none;stroke:#231f20;stroke-width:0.565977;stroke-linecap:round;stroke-linejoin:round;stroke-miterlimit:4;stroke-dasharray:none;stroke-opacity:1"
     d="m 81.812,63.453 c 0.688,0.124 1.339,2.348 1.079,2.536 -0.26,0.183 -0.396,-0.573 -0.693,-0.38 -0.302,0.192 -0.14,0.667 -0.359,0.735 -0.24,0.072 -0.344,-0.521 -0.615,-0.381 -0.109,0.062 -0.224,0.646 -0.412,0.641 -0.172,0 -0.453,-0.437 -0.588,-0.448 -0.213,-0.011 -0.161,0.599 -0.338,0.609 -0.464,0.011 -0.339,-2.698 -0.151,-2.849 0.276,-0.224 0.968,-0.667 2.077,-0.463 z"
     id="path569" />
  <path
     style="fill:#231f20;fill-opacity:1;fill-rule:nonzero;stroke:none"
     d="m 169.24,22.124 c 0.651,1.188 0.004,1.943 -1.021,2.115 -0.303,0.052 -0.511,0.412 -0.812,0.439 -0.699,0.056 -1.996,-1.12 -1.282,-2.439 0.047,-0.099 0.192,-0.905 0.406,-1.489 0.401,-1.14 1.766,-3.235 4.406,-3.766 1.255,-0.26 1.172,0.526 0.694,0.787 -1.506,0.812 -1.48,1.177 -1.803,1.531 -1.079,1.208 -0.588,2.822 -0.588,2.822"
     id="path570" />
  <path
     style="fill:none;stroke:#231f20;stroke-width:0.332927;stroke-linecap:butt;stroke-linejoin:miter;stroke-miterlimit:4;stroke-dasharray:none;stroke-opacity:1"
     d="m 169.24,22.124 c 0.651,1.188 0.004,1.943 -1.021,2.115 -0.303,0.052 -0.511,0.412 -0.812,0.439 -0.699,0.056 -1.996,-1.12 -1.282,-2.439 0.047,-0.099 0.192,-0.905 0.406,-1.489 0.401,-1.14 1.766,-3.235 4.406,-3.766 1.255,-0.26 1.172,0.526 0.694,0.787 -1.506,0.812 -1.48,1.177 -1.803,1.531 -1.079,1.208 -0.588,2.822 -0.588,2.822 z"
     id="path571" />
  <path
     style="fill:#231f20;fill-opacity:1;fill-rule:nonzero;stroke:none"
     d="m 160.183,38.541 c 1.932,1.178 2.468,1.146 3.02,0.364 0.365,-0.514 0.88,-0.88 1.12,-1.181 0.802,-1.027 1.718,-3.073 2.806,-9.568 0.246,-1.469 0.606,-3.536 0.824,-4.365 0.339,-1.317 -2.078,-0.989 -2.213,-0.479 -0.448,1.656 -0.891,2.76 -1.131,3.334 -0.161,0.396 -0.365,1.13 -1.202,2.567 -1.272,2.183 -2.36,3.302 -3.204,5.24 -0.396,0.895 -1.26,1.328 -1.198,2.406 0.063,1.084 1.178,1.682 1.178,1.682"
     id="path572" />
  <path
     style="fill:none;stroke:#231f20;stroke-width:0.565977;stroke-linecap:butt;stroke-linejoin:miter;stroke-miterlimit:4;stroke-dasharray:none;stroke-opacity:1"
     d="m 160.183,38.541 c 1.932,1.178 2.468,1.146 3.02,0.364 0.365,-0.514 0.88,-0.88 1.12,-1.181 0.802,-1.027 1.718,-3.073 2.806,-9.568 0.246,-1.469 0.606,-3.536 0.824,-4.365 0.339,-1.317 -2.078,-0.989 -2.213,-0.479 -0.448,1.656 -0.891,2.76 -1.131,3.334 -0.161,0.396 -0.365,1.13 -1.202,2.567 -1.272,2.183 -2.36,3.302 -3.204,5.24 -0.396,0.895 -1.26,1.328 -1.198,2.406 0.063,1.084 1.178,1.682 1.178,1.682 z"
     id="path573" />
  <path
     style="fill:#ca0369;fill-opacity:1;fill-rule:nonzero;stroke:none"
     d="m 153.297,63.385 c 1.067,-2.942 1.624,-3.458 2.25,-4.136 3.942,-4.218 1.797,-6.077 -1.047,-6.557 -3.344,-0.557 -4.532,-0.828 -6.104,5.265 -0.443,1.694 -2.964,7.986 -2.964,7.986 -1.208,2.124 -1.249,4.848 -0.396,6.025 0.901,1.24 0.636,0.683 1.677,1.683 0.995,0.953 3.12,1.453 4.12,0.718 0.954,-0.702 0.792,-2.358 0.87,-4.786 0.057,-1.911 1.594,-6.198 1.594,-6.198"
     id="path574" />
  <path
     style="fill:none;stroke:#231f20;stroke-width:0.565977;stroke-linecap:butt;stroke-linejoin:miter;stroke-miterlimit:4;stroke-dasharray:none;stroke-opacity:1"
     d="m 153.297,63.385 c 1.067,-2.942 1.624,-3.458 2.25,-4.136 3.942,-4.218 1.797,-6.077 -1.047,-6.557 -3.344,-0.557 -4.532,-0.828 -6.104,5.265 -0.443,1.694 -2.964,7.986 -2.964,7.986 -1.208,2.124 -1.249,4.848 -0.396,6.025 0.901,1.24 0.636,0.683 1.677,1.683 0.995,0.953 3.12,1.453 4.12,0.718 0.954,-0.702 0.792,-2.358 0.87,-4.786 0.057,-1.911 1.594,-6.198 1.594,-6.198 z"
     id="path575" />
  <path
     style="fill:#ffffff;fill-opacity:1;fill-rule:nonzero;stroke:none"
     d="m 144.479,80.333 c 0,0.239 -1.11,0.547 -1.006,1.063 0.1,0.509 0.891,0.561 2.074,2.167 l 0.005,0.014 c 0.823,1.199 2.021,1.907 3.265,1.767 2.063,-0.229 3.484,-2.693 3.167,-5.501 -0.317,-2.807 -2.244,-4.895 -4.312,-4.662 -1.975,0.224 -3.36,2.491 -3.193,5.152"
     id="path576" />
  <path
     style="fill:none;stroke:#231f20;stroke-width:0.565977;stroke-linecap:butt;stroke-linejoin:miter;stroke-miterlimit:4;stroke-dasharray:none;stroke-opacity:1"
     d="m 144.479,80.333 c 0,0.239 -1.11,0.547 -1.006,1.063 0.1,0.509 0.891,0.561 2.074,2.167 l 0.005,0.014 c 0.823,1.199 2.021,1.907 3.265,1.767 2.063,-0.229 3.484,-2.693 3.167,-5.501 -0.317,-2.807 -2.244,-4.895 -4.312,-4.662 -1.975,0.224 -3.36,2.491 -3.193,5.152 z"
     id="path577" />
  <path
     style="fill:#231f20;fill-opacity:1;fill-rule:nonzero;stroke:none"
     d="m 161.916,36.781 c -3.239,-2.376 -3.916,1.651 -4.203,2.036 -2.984,4.022 -3.093,4.386 -5.15,7.61 -2.975,4.656 -4.298,8.302 -2.09,10.828 1.495,1.708 3.095,2.046 4.339,1.604 1.375,-0.484 3.541,-2.812 2.808,-5.604 l 0.5,-1.64 c 0.484,-1.058 0.713,-1.59 0.995,-2.09 0.484,-0.874 0.948,-1.848 1.796,-3.609 1.505,-3.125 2.078,-6.927 2.078,-6.927 0.506,-1.13 -1.073,-2.208 -1.073,-2.208"
     id="path578" />
  <path
     style="fill:none;stroke:#231f20;stroke-width:0.565977;stroke-linecap:butt;stroke-linejoin:miter;stroke-miterlimit:4;stroke-dasharray:none;stroke-opacity:1"
     d="m 161.916,36.781 c -3.239,-2.376 -3.916,1.651 -4.203,2.036 -2.984,4.022 -3.093,4.386 -5.15,7.61 -2.975,4.656 -4.298,8.302 -2.09,10.828 1.495,1.708 3.095,2.046 4.339,1.604 1.375,-0.484 3.541,-2.812 2.808,-5.604 l 0.5,-1.64 c 0.484,-1.058 0.713,-1.59 0.995,-2.09 0.484,-0.874 0.948,-1.848 1.796,-3.609 1.505,-3.125 2.078,-6.927 2.078,-6.927 0.506,-1.13 -1.073,-2.208 -1.073,-2.208 z"
     id="path579" />
  <path
     style="fill:#ca0369;fill-opacity:1;fill-rule:nonzero;stroke:none"
     d="m 157.563,53.536 -6.699,-4.021 c -0.301,0.584 -0.552,1.141 -0.771,1.682 -0.052,0.063 -0.104,0.12 -0.161,0.167 -0.604,0.527 -0.593,1.151 -0.521,2.188 -0.234,1.536 0.032,2.875 1.005,3.989 1.495,1.708 3.095,2.047 4.339,1.604 1.374,-0.484 3.542,-2.812 2.808,-5.609"
     id="path580" />
  <path
     style="fill:none;stroke:#231f20;stroke-width:0.565977;stroke-linecap:butt;stroke-linejoin:miter;stroke-miterlimit:4;stroke-dasharray:none;stroke-opacity:1"
     d="m 157.563,53.536 -6.699,-4.021 c -0.301,0.584 -0.552,1.141 -0.771,1.682 -0.052,0.063 -0.104,0.12 -0.161,0.167 -0.604,0.527 -0.593,1.151 -0.521,2.188 -0.234,1.536 0.032,2.875 1.005,3.989 1.495,1.708 3.095,2.047 4.339,1.604 1.374,-0.484 3.542,-2.812 2.808,-5.609 z"
     id="path581" />
  <path
     style="fill:#231f20;fill-opacity:1;fill-rule:nonzero;stroke:none"
     d="m 153.979,60.963 c 1.146,0.609 -0.115,2.204 -0.391,2.677 -0.265,0.475 -0.875,1.901 -1.208,3.073 -0.339,1.183 -1.255,2.506 -1.896,4.744 -0.339,1.178 -1.407,2.11 -3.093,1.548 -1.667,-0.557 -1.984,-1.698 -1.366,-3.062 0.626,-1.366 1.782,-2.376 2.506,-3.71 0.724,-1.322 1.333,-2.744 1.761,-3.88 0.489,-1.296 1.208,-1.754 1.687,-1.776 1.193,-0.046 2,0.386 2,0.386"
     id="path582" />
  <path
     style="fill:none;stroke:#231f20;stroke-width:0.565977;stroke-linecap:butt;stroke-linejoin:miter;stroke-miterlimit:4;stroke-dasharray:none;stroke-opacity:1"
     d="m 153.979,60.963 c 1.146,0.609 -0.115,2.204 -0.391,2.677 -0.265,0.475 -0.875,1.901 -1.208,3.073 -0.339,1.183 -1.255,2.506 -1.896,4.744 -0.339,1.178 -1.407,2.11 -3.093,1.548 -1.667,-0.557 -1.984,-1.698 -1.366,-3.062 0.626,-1.366 1.782,-2.376 2.506,-3.71 0.724,-1.322 1.333,-2.744 1.761,-3.88 0.489,-1.296 1.208,-1.754 1.687,-1.776 1.193,-0.046 2,0.386 2,0.386 z"
     id="path583" />
  <path
     style="fill:#ffffff;fill-opacity:1;fill-rule:nonzero;stroke:#231f20;stroke-width:0.665856;stroke-linecap:butt;stroke-linejoin:miter;stroke-miterlimit:4;stroke-dasharray:none;stroke-opacity:1"
     d="m 140.735,55.385 h 1.333 V 17.052 h -1.333 z"
     id="path584" />
  <path
     style="fill:#ffffff;fill-opacity:1;fill-rule:nonzero;stroke:none"
     d="m 137.541,60.317 c 0,-2.354 1.918,-4.27 4.271,-4.27 2.355,0 4.271,1.916 4.271,4.27 0,2.355 -1.916,4.271 -4.271,4.271 -2.353,0 -4.271,-1.916 -4.271,-4.271 m -1.333,0 c 0,3.088 2.516,5.599 5.604,5.599 3.089,0 5.599,-2.511 5.599,-5.599 0,-3.088 -2.51,-5.598 -5.599,-5.598 -3.088,0 -5.604,2.51 -5.604,5.598"
     id="path585" />
  <path
     style="fill:none;stroke:#231f20;stroke-width:0.665856;stroke-linecap:butt;stroke-linejoin:miter;stroke-miterlimit:4;stroke-dasharray:none;stroke-opacity:1"
     d="m 137.541,60.317 c 0,-2.354 1.918,-4.27 4.271,-4.27 2.355,0 4.271,1.916 4.271,4.27 0,2.355 -1.916,4.271 -4.271,4.271 -2.353,0 -4.271,-1.916 -4.271,-4.271 z m -1.333,0 c 0,3.088 2.516,5.599 5.604,5.599 3.089,0 5.599,-2.511 5.599,-5.599 0,-3.088 -2.51,-5.598 -5.599,-5.598 -3.088,0 -5.604,2.51 -5.604,5.598 z"
     id="path586" />
  <path
     style="fill:#231f20;fill-opacity:1;fill-rule:nonzero;stroke:none"
     d="m 143.292,66.567 c -0.672,0.177 -2.215,-1.552 -2.057,-1.834 0.156,-0.276 0.604,0.355 0.79,0.054 0.188,-0.308 -0.161,-0.667 0.006,-0.819 0.188,-0.172 0.537,0.323 0.718,0.079 0.079,-0.104 -0.072,-0.678 0.1,-0.76 0.156,-0.068 0.599,0.208 0.724,0.156 0.198,-0.079 -0.114,-0.61 0.047,-0.694 0.411,-0.208 1.457,2.298 1.353,2.516 -0.156,0.318 -0.588,1.011 -1.681,1.302"
     id="path587" />
  <path
     style="fill:none;stroke:#231f20;stroke-width:0.565977;stroke-linecap:round;stroke-linejoin:round;stroke-miterlimit:4;stroke-dasharray:none;stroke-opacity:1"
     d="m 143.292,66.567 c -0.672,0.177 -2.215,-1.552 -2.057,-1.834 0.156,-0.276 0.604,0.355 0.79,0.054 0.188,-0.308 -0.161,-0.667 0.006,-0.819 0.188,-0.172 0.537,0.323 0.718,0.079 0.079,-0.104 -0.072,-0.678 0.1,-0.76 0.156,-0.068 0.599,0.208 0.724,0.156 0.198,-0.079 -0.114,-0.61 0.047,-0.694 0.411,-0.208 1.457,2.298 1.353,2.516 -0.156,0.318 -0.588,1.011 -1.681,1.302 z"
     id="path588" />
  <path
     style="fill:#231f20;fill-opacity:1;fill-rule:nonzero;stroke:none"
     d="m 143.396,64.541 c 0.38,-0.516 2.276,-0.953 3.588,-1.885 0.88,-0.631 3.573,-1.172 4.407,-1.865 0.765,-0.635 1.177,-0.854 2.046,-0.104 0.522,0.442 1.235,1.63 0.922,2.037 -0.728,0.937 -1.558,1.396 -2.578,1.713 -1.166,0.354 -4.401,1.047 -5.016,1.115 -1.51,0.172 -2.03,0.692 -2.432,0.776 -0.74,0.161 -0.984,-0.084 -1.193,-0.547 -0.391,-0.876 0.256,-1.24 0.256,-1.24"
     id="path589" />
  <path
     style="fill:none;stroke:#231f20;stroke-width:0.565977;stroke-linecap:butt;stroke-linejoin:miter;stroke-miterlimit:4;stroke-dasharray:none;stroke-opacity:1"
     d="m 143.396,64.541 c 0.38,-0.516 2.276,-0.953 3.588,-1.885 0.88,-0.631 3.573,-1.172 4.407,-1.865 0.765,-0.635 1.177,-0.854 2.046,-0.104 0.522,0.442 1.235,1.63 0.922,2.037 -0.728,0.937 -1.558,1.396 -2.578,1.713 -1.166,0.354 -4.401,1.047 -5.016,1.115 -1.51,0.172 -2.03,0.692 -2.432,0.776 -0.74,0.161 -0.984,-0.084 -1.193,-0.547 -0.391,-0.876 0.256,-1.24 0.256,-1.24 z"
     id="path590" />
  <path
     style="fill:#231f20;fill-opacity:1;fill-rule:nonzero;stroke:none"
     d="m 253.604,87.067 c 0.088,-1.348 1.046,-1.635 2,-1.228 0.281,0.118 0.65,-0.068 0.916,0.072 0.625,0.333 1.078,2.021 -0.234,2.75 -0.094,0.052 -0.656,0.651 -1.146,1.031 -0.954,0.745 -3.234,1.765 -5.744,0.787 -1.194,-0.464 -0.699,-1.079 -0.156,-1.042 1.702,0.135 1.88,-0.188 2.342,-0.313 1.558,-0.432 2.022,-2.057 2.022,-2.057"
     id="path591" />
  <path
     style="fill:none;stroke:#231f20;stroke-width:0.332927;stroke-linecap:butt;stroke-linejoin:miter;stroke-miterlimit:4;stroke-dasharray:none;stroke-opacity:1"
     d="m 253.604,87.067 c 0.088,-1.348 1.046,-1.635 2,-1.228 0.281,0.118 0.65,-0.068 0.916,0.072 0.625,0.333 1.078,2.021 -0.234,2.75 -0.094,0.052 -0.656,0.651 -1.146,1.031 -0.954,0.745 -3.234,1.765 -5.744,0.787 -1.194,-0.464 -0.699,-1.079 -0.156,-1.042 1.702,0.135 1.88,-0.188 2.342,-0.313 1.558,-0.432 2.022,-2.057 2.022,-2.057 z"
     id="path592" />
  <path
     style="fill:#231f20;fill-opacity:1;fill-rule:nonzero;stroke:none"
     d="m 270.104,78.151 c -0.995,-2.031 -1.459,-2.298 -2.35,-1.938 -0.588,0.24 -1.218,0.26 -1.582,0.391 -1.23,0.427 -3.11,1.656 -7.532,6.531 -1.006,1.104 -2.422,2.646 -3.052,3.229 -0.995,0.923 1.208,1.953 1.604,1.593 1.27,-1.15 2.24,-1.842 2.745,-2.192 0.355,-0.245 0.927,-0.75 2.407,-1.51 2.249,-1.146 3.77,-1.5 5.525,-2.678 0.817,-0.536 1.781,-0.432 2.313,-1.374 0.531,-0.943 -0.078,-2.052 -0.078,-2.052"
     id="path593" />
  <path
     style="fill:none;stroke:#231f20;stroke-width:0.565977;stroke-linecap:butt;stroke-linejoin:miter;stroke-miterlimit:4;stroke-dasharray:none;stroke-opacity:1"
     d="m 270.104,78.151 c -0.995,-2.031 -1.459,-2.298 -2.35,-1.938 -0.588,0.24 -1.218,0.26 -1.582,0.391 -1.23,0.427 -3.11,1.656 -7.532,6.531 -1.006,1.104 -2.422,2.646 -3.052,3.229 -0.995,0.923 1.208,1.953 1.604,1.593 1.27,-1.15 2.24,-1.842 2.745,-2.192 0.355,-0.245 0.927,-0.75 2.407,-1.51 2.249,-1.146 3.77,-1.5 5.525,-2.678 0.817,-0.536 1.781,-0.432 2.313,-1.374 0.531,-0.943 -0.078,-2.052 -0.078,-2.052 z"
     id="path594" />
  <path
     style="fill:#ca0369;fill-opacity:1;fill-rule:nonzero;stroke:none"
     d="m 289.322,60.968 c -2.489,1.901 -3.24,2.032 -4.13,2.261 -5.599,1.422 -4.796,4.151 -2.662,6.088 2.511,2.276 3.366,3.146 7.98,-1.136 1.286,-1.186 6.807,-5.114 6.807,-5.114 2.167,-1.135 3.677,-3.4 3.593,-4.854 -0.088,-1.532 -0.166,-0.917 -0.5,-2.322 -0.322,-1.339 -1.848,-2.912 -3.077,-2.834 -1.188,0.078 -1.943,1.563 -3.323,3.563 -1.084,1.572 -4.688,4.348 -4.688,4.348"
     id="path595" />
  <path
     style="fill:none;stroke:#231f20;stroke-width:0.565977;stroke-linecap:butt;stroke-linejoin:miter;stroke-miterlimit:4;stroke-dasharray:none;stroke-opacity:1"
     d="m 289.322,60.968 c -2.489,1.901 -3.24,2.032 -4.13,2.261 -5.599,1.422 -4.796,4.151 -2.662,6.088 2.511,2.276 3.366,3.146 7.98,-1.136 1.286,-1.186 6.807,-5.114 6.807,-5.114 2.167,-1.135 3.677,-3.4 3.593,-4.854 -0.088,-1.532 -0.166,-0.917 -0.5,-2.322 -0.322,-1.339 -1.848,-2.912 -3.077,-2.834 -1.188,0.078 -1.943,1.563 -3.323,3.563 -1.084,1.572 -4.688,4.348 -4.688,4.348 z"
     id="path596" />
  <path
     style="fill:#ffffff;fill-opacity:1;fill-rule:nonzero;stroke:none"
     d="m 305.625,53.572 c 0.129,-0.203 1.228,0.141 1.416,-0.348 0.199,-0.491 -0.437,-0.953 -0.568,-2.943 V 50.26 c -0.041,-1.453 -0.667,-2.697 -1.791,-3.249 -1.86,-0.918 -4.385,0.385 -5.636,2.921 -1.25,2.531 -0.754,5.328 1.11,6.249 1.781,0.882 4.172,-0.281 5.469,-2.609"
     id="path597" />
  <path
     style="fill:none;stroke:#231f20;stroke-width:0.565977;stroke-linecap:butt;stroke-linejoin:miter;stroke-miterlimit:4;stroke-dasharray:none;stroke-opacity:1"
     d="m 305.625,53.572 c 0.129,-0.203 1.228,0.141 1.416,-0.348 0.199,-0.491 -0.437,-0.953 -0.568,-2.943 V 50.26 c -0.041,-1.453 -0.667,-2.697 -1.791,-3.249 -1.86,-0.918 -4.385,0.385 -5.636,2.921 -1.25,2.531 -0.754,5.328 1.11,6.249 1.781,0.882 4.172,-0.281 5.469,-2.609 z"
     id="path598" />
  <path
     style="fill:#231f20;fill-opacity:1;fill-rule:nonzero;stroke:none"
     d="m 267.686,78.692 c 1.443,3.751 4.194,0.735 4.642,0.563 4.682,-1.771 4.973,-2.016 8.448,-3.62 5.02,-2.312 8.104,-4.662 7.609,-7.979 -0.333,-2.251 -1.5,-3.401 -2.787,-3.699 -1.416,-0.333 -4.5,0.454 -5.39,3.199 l -1.307,1.109 c -0.98,0.631 -1.459,0.954 -1.964,1.219 -0.88,0.479 -1.797,1.041 -3.464,2.068 -2.953,1.817 -5.495,4.708 -5.495,4.708 -1.041,0.677 -0.292,2.432 -0.292,2.432"
     id="path599" />
  <path
     style="fill:none;stroke:#231f20;stroke-width:0.565977;stroke-linecap:butt;stroke-linejoin:miter;stroke-miterlimit:4;stroke-dasharray:none;stroke-opacity:1"
     d="m 267.686,78.692 c 1.443,3.751 4.194,0.735 4.642,0.563 4.682,-1.771 4.973,-2.016 8.448,-3.62 5.02,-2.312 8.104,-4.662 7.609,-7.979 -0.333,-2.251 -1.5,-3.401 -2.787,-3.699 -1.416,-0.333 -4.5,0.454 -5.39,3.199 l -1.307,1.109 c -0.98,0.631 -1.459,0.954 -1.964,1.219 -0.88,0.479 -1.797,1.041 -3.464,2.068 -2.953,1.817 -5.495,4.708 -5.495,4.708 -1.041,0.677 -0.292,2.432 -0.292,2.432 z"
     id="path600" />
  <path
     style="fill:#ca0369;fill-opacity:1;fill-rule:nonzero;stroke:none"
     d="m 288.582,67.448 c -0.333,-2.251 -1.494,-3.401 -2.781,-3.699 -1.416,-0.333 -4.5,0.454 -5.391,3.199 l 3.464,7.005 c 0.568,-0.329 1.079,-0.662 1.558,-1 0.073,-0.021 0.15,-0.042 0.224,-0.053 0.792,-0.113 1.12,-0.651 1.614,-1.552 1.036,-1.167 1.531,-2.437 1.312,-3.9"
     id="path601" />
  <path
     style="fill:none;stroke:#231f20;stroke-width:0.565977;stroke-linecap:butt;stroke-linejoin:miter;stroke-miterlimit:4;stroke-dasharray:none;stroke-opacity:1"
     d="m 288.582,67.448 c -0.333,-2.251 -1.494,-3.401 -2.781,-3.699 -1.416,-0.333 -4.5,0.454 -5.391,3.199 l 3.464,7.005 c 0.568,-0.329 1.079,-0.662 1.558,-1 0.073,-0.021 0.15,-0.042 0.224,-0.053 0.792,-0.113 1.12,-0.651 1.614,-1.552 1.036,-1.167 1.531,-2.437 1.312,-3.9 z"
     id="path602" />
  <path
     style="fill:#231f20;fill-opacity:1;fill-rule:nonzero;stroke:none"
     d="m 289.568,65.843 c -0.959,-0.864 0.656,-2.104 1.036,-2.499 0.374,-0.391 1.317,-1.625 1.926,-2.683 0.62,-1.062 1.834,-2.12 3,-4.13 0.615,-1.063 1.886,-1.703 3.38,-0.744 1.48,0.946 1.506,2.134 0.574,3.301 -0.943,1.167 -2.312,1.869 -3.339,2.979 -1.025,1.109 -1.968,2.338 -2.656,3.333 -0.792,1.136 -1.609,1.407 -2.073,1.308 -1.167,-0.245 -1.848,-0.865 -1.848,-0.865"
     id="path603" />
  <path
     style="fill:none;stroke:#231f20;stroke-width:0.565977;stroke-linecap:butt;stroke-linejoin:miter;stroke-miterlimit:4;stroke-dasharray:none;stroke-opacity:1"
     d="m 289.568,65.843 c -0.959,-0.864 0.656,-2.104 1.036,-2.499 0.374,-0.391 1.317,-1.625 1.926,-2.683 0.62,-1.062 1.834,-2.12 3,-4.13 0.615,-1.063 1.886,-1.703 3.38,-0.744 1.48,0.946 1.506,2.134 0.574,3.301 -0.943,1.167 -2.312,1.869 -3.339,2.979 -1.025,1.109 -1.968,2.338 -2.656,3.333 -0.792,1.136 -1.609,1.407 -2.073,1.308 -1.167,-0.245 -1.848,-0.865 -1.848,-0.865 z"
     id="path604" />
  <path
     style="fill:#231f20;fill-opacity:1;fill-rule:nonzero;stroke:none"
     d="m 300.692,65.801 c -0.531,0.366 -2.463,0.156 -4.01,0.61 -1.037,0.313 -3.756,-0.063 -4.776,0.322 -0.928,0.35 -1.386,0.423 -1.969,-0.572 -0.344,-0.589 -0.631,-1.942 -0.203,-2.224 1,-0.646 1.932,-0.813 3,-0.776 1.214,0.042 4.5,0.448 5.099,0.583 1.489,0.333 2.151,0.011 2.552,0.063 0.755,0.093 0.907,0.406 0.953,0.912 0.088,0.948 -0.646,1.082 -0.646,1.082"
     id="path605" />
  <path
     style="fill:none;stroke:#231f20;stroke-width:0.565977;stroke-linecap:butt;stroke-linejoin:miter;stroke-miterlimit:4;stroke-dasharray:none;stroke-opacity:1"
     d="m 300.692,65.801 c -0.531,0.366 -2.463,0.156 -4.01,0.61 -1.037,0.313 -3.756,-0.063 -4.776,0.322 -0.928,0.35 -1.386,0.423 -1.969,-0.572 -0.344,-0.589 -0.631,-1.942 -0.203,-2.224 1,-0.646 1.932,-0.813 3,-0.776 1.214,0.042 4.5,0.448 5.099,0.583 1.489,0.333 2.151,0.011 2.552,0.063 0.755,0.093 0.907,0.406 0.953,0.912 0.088,0.948 -0.646,1.082 -0.646,1.082 z"
     id="path606" />
  <path
     style="fill:#231f20;fill-opacity:1;fill-rule:nonzero;stroke:none"
     d="m 214.921,13.724 c 1.35,0.146 1.59,1.115 1.142,2.047 -0.131,0.276 0.041,0.656 -0.115,0.916 -0.355,0.609 -2.057,0.991 -2.729,-0.353 -0.052,-0.095 -0.626,-0.683 -0.984,-1.188 -0.704,-0.99 -1.626,-3.307 -0.538,-5.776 0.511,-1.167 1.104,-0.651 1.043,-0.115 -0.204,1.699 0.109,1.891 0.219,2.36 0.358,1.577 1.962,2.109 1.962,2.109"
     id="path607" />
  <path
     style="fill:none;stroke:#231f20;stroke-width:0.332927;stroke-linecap:butt;stroke-linejoin:miter;stroke-miterlimit:4;stroke-dasharray:none;stroke-opacity:1"
     d="m 214.921,13.724 c 1.35,0.146 1.59,1.115 1.142,2.047 -0.131,0.276 0.041,0.656 -0.115,0.916 -0.355,0.609 -2.057,0.991 -2.729,-0.353 -0.052,-0.095 -0.626,-0.683 -0.984,-1.188 -0.704,-0.99 -1.626,-3.307 -0.538,-5.776 0.511,-1.167 1.104,-0.651 1.043,-0.115 -0.204,1.699 0.109,1.891 0.219,2.36 0.358,1.577 1.962,2.109 1.962,2.109 z"
     id="path608" />
  <path
     style="fill:#ca0369;fill-opacity:1;fill-rule:nonzero;stroke:none"
     d="m 239.458,50.531 c -1.792,-2.574 -1.89,-3.318 -2.078,-4.219 -1.183,-5.661 -3.938,-4.973 -5.97,-2.927 -2.38,2.411 -3.285,3.224 0.792,8.026 1.131,1.333 4.818,7.021 4.818,7.021 1.037,2.208 3.24,3.812 4.693,3.797 1.536,-0.021 0.927,-0.125 2.344,-0.401 1.349,-0.265 2.984,-1.719 2.963,-2.953 -0.026,-1.188 -1.479,-2.011 -3.416,-3.475 -1.527,-1.145 -4.146,-4.869 -4.146,-4.869"
     id="path611" />
  <path
     style="fill:none;stroke:#231f20;stroke-width:0.565977;stroke-linecap:butt;stroke-linejoin:miter;stroke-miterlimit:4;stroke-dasharray:none;stroke-opacity:1"
     d="m 239.458,50.531 c -1.792,-2.574 -1.89,-3.318 -2.078,-4.219 -1.183,-5.661 -3.938,-4.973 -5.97,-2.927 -2.38,2.411 -3.285,3.224 0.792,8.026 1.131,1.333 4.818,7.021 4.818,7.021 1.037,2.208 3.24,3.812 4.693,3.797 1.536,-0.021 0.927,-0.125 2.344,-0.401 1.349,-0.265 2.984,-1.719 2.963,-2.953 -0.026,-1.188 -1.479,-2.011 -3.416,-3.475 -1.527,-1.145 -4.146,-4.869 -4.146,-4.869 z"
     id="path612" />
  <path
     style="fill:#ffffff;fill-opacity:1;fill-rule:nonzero;stroke:none"
     d="m 248.229,67.5 c 0.203,0.14 -0.188,1.224 0.291,1.432 0.48,0.213 0.974,-0.401 2.964,-0.443 h 0.021 c 1.453,0.026 2.719,-0.552 3.323,-1.65 0.994,-1.819 -0.198,-4.396 -2.672,-5.751 -2.479,-1.364 -5.292,-0.984 -6.298,0.833 -0.952,1.74 0.106,4.178 2.371,5.579"
     id="path613" />
  <path
     style="fill:none;stroke:#231f20;stroke-width:0.565977;stroke-linecap:butt;stroke-linejoin:miter;stroke-miterlimit:4;stroke-dasharray:none;stroke-opacity:1"
     d="m 248.229,67.5 c 0.203,0.14 -0.188,1.224 0.291,1.432 0.48,0.213 0.974,-0.401 2.964,-0.443 h 0.021 c 1.453,0.026 2.719,-0.552 3.323,-1.65 0.994,-1.819 -0.198,-4.396 -2.672,-5.751 -2.479,-1.364 -5.292,-0.984 -6.298,0.833 -0.952,1.74 0.106,4.178 2.371,5.579 z"
     id="path614" />
  <path
     style="fill:#231f20;fill-opacity:1;fill-rule:nonzero;stroke:none"
     d="m 222.682,28.151 c -3.807,1.281 -0.912,4.161 -0.761,4.614 1.568,4.755 1.797,5.058 3.251,8.599 2.098,5.115 4.312,8.292 7.65,7.943 2.255,-0.235 3.459,-1.354 3.812,-2.62 0.391,-1.406 -0.26,-4.52 -2.962,-5.526 l -1.052,-1.354 c -0.59,-1.006 -0.886,-1.495 -1.136,-2.016 -0.438,-0.9 -0.964,-1.843 -1.916,-3.552 -1.688,-3.031 -4.464,-5.687 -4.464,-5.687 -0.636,-1.068 -2.422,-0.401 -2.422,-0.401"
     id="path615" />
  <path
     style="fill:none;stroke:#231f20;stroke-width:0.565977;stroke-linecap:butt;stroke-linejoin:miter;stroke-miterlimit:4;stroke-dasharray:none;stroke-opacity:1"
     d="m 222.682,28.151 c -3.807,1.281 -0.912,4.161 -0.761,4.614 1.568,4.755 1.797,5.058 3.251,8.599 2.098,5.115 4.312,8.292 7.65,7.943 2.255,-0.235 3.459,-1.354 3.812,-2.62 0.391,-1.406 -0.26,-4.52 -2.962,-5.526 l -1.052,-1.354 c -0.59,-1.006 -0.886,-1.495 -1.136,-2.016 -0.438,-0.9 -0.964,-1.843 -1.916,-3.552 -1.688,-3.031 -4.464,-5.687 -4.464,-5.687 -0.636,-1.068 -2.422,-0.401 -2.422,-0.401 z"
     id="path616" />
  <path
     style="fill:#ca0369;fill-opacity:1;fill-rule:nonzero;stroke:none"
     d="m 233.869,41.369 -7.145,3.162 c 0.301,0.584 0.614,1.104 0.932,1.598 0.016,0.079 0.036,0.158 0.041,0.224 0.084,0.798 0.604,1.152 1.485,1.688 1.119,1.079 2.37,1.631 3.838,1.474 2.261,-0.234 3.458,-1.348 3.818,-2.619 0.386,-1.407 -0.261,-4.516 -2.969,-5.527"
     id="path617" />
  <path
     style="fill:none;stroke:#231f20;stroke-width:0.565977;stroke-linecap:butt;stroke-linejoin:miter;stroke-miterlimit:4;stroke-dasharray:none;stroke-opacity:1"
     d="m 233.869,41.369 -7.145,3.162 c 0.301,0.584 0.614,1.104 0.932,1.598 0.016,0.079 0.036,0.158 0.041,0.224 0.084,0.798 0.604,1.152 1.485,1.688 1.119,1.079 2.37,1.631 3.838,1.474 2.261,-0.234 3.458,-1.348 3.818,-2.619 0.386,-1.407 -0.261,-4.516 -2.969,-5.527 z"
     id="path618" />
  <path
     style="fill:#231f20;fill-opacity:1;fill-rule:nonzero;stroke:none"
     d="m 233.068,52.515 c 0.708,-1.083 2.181,0.313 2.629,0.625 0.448,0.313 1.813,1.047 2.953,1.484 1.146,0.443 2.386,1.475 4.558,2.313 1.141,0.443 1.974,1.588 1.26,3.219 -0.703,1.609 -1.87,1.823 -3.167,1.083 -1.307,-0.744 -2.213,-1.984 -3.468,-2.823 -1.256,-0.839 -2.62,-1.577 -3.713,-2.104 -1.246,-0.599 -1.636,-1.359 -1.615,-1.839 0.057,-1.192 0.563,-1.958 0.563,-1.958"
     id="path619" />
  <path
     style="fill:none;stroke:#231f20;stroke-width:0.565977;stroke-linecap:butt;stroke-linejoin:miter;stroke-miterlimit:4;stroke-dasharray:none;stroke-opacity:1"
     d="m 233.068,52.515 c 0.708,-1.083 2.181,0.313 2.629,0.625 0.448,0.313 1.813,1.047 2.953,1.484 1.146,0.443 2.386,1.475 4.558,2.313 1.141,0.443 1.974,1.588 1.26,3.219 -0.703,1.609 -1.87,1.823 -3.167,1.083 -1.307,-0.744 -2.213,-1.984 -3.468,-2.823 -1.256,-0.839 -2.62,-1.577 -3.713,-2.104 -1.246,-0.599 -1.636,-1.359 -1.615,-1.839 0.057,-1.192 0.563,-1.958 0.563,-1.958 z"
     id="path620" />
  <path
     style="fill:#ffffff;fill-opacity:1;fill-rule:nonzero;stroke:none"
     d="m 234.744,55.385 h 1.333 V 17.052 h -1.333 z"
     id="path621" />
  <path
     style="fill:none;stroke:#231f20;stroke-width:0.665856;stroke-linecap:butt;stroke-linejoin:miter;stroke-miterlimit:4;stroke-dasharray:none;stroke-opacity:1"
     d="m 234.749,55.385 h 1.328 V 17.052 h -1.328 z"
     id="path622" />
  <path
     style="fill:#231f20;fill-opacity:1;fill-rule:nonzero;stroke:none"
     d="m 235.686,63.375 c -0.484,-0.422 -0.749,-2.35 -1.561,-3.74 -0.548,-0.938 -0.844,-3.667 -1.464,-4.558 -0.563,-0.817 -0.745,-1.244 0.083,-2.046 0.485,-0.479 1.734,-1.083 2.109,-0.735 0.865,0.813 1.251,1.677 1.475,2.719 0.249,1.193 0.65,4.48 0.666,5.094 0.036,1.52 0.506,2.083 0.552,2.49 0.094,0.754 -0.172,0.978 -0.65,1.145 -0.907,0.313 -1.21,-0.369 -1.21,-0.369"
     id="path623" />
  <path
     style="fill:none;stroke:#231f20;stroke-width:0.565977;stroke-linecap:butt;stroke-linejoin:miter;stroke-miterlimit:4;stroke-dasharray:none;stroke-opacity:1"
     d="m 235.686,63.375 c -0.484,-0.422 -0.749,-2.35 -1.561,-3.74 -0.548,-0.938 -0.844,-3.667 -1.464,-4.558 -0.563,-0.817 -0.745,-1.244 0.083,-2.046 0.485,-0.479 1.734,-1.083 2.109,-0.735 0.865,0.813 1.251,1.677 1.475,2.719 0.249,1.193 0.65,4.48 0.666,5.094 0.036,1.52 0.506,2.083 0.552,2.49 0.094,0.754 -0.172,0.978 -0.65,1.145 -0.907,0.313 -1.21,-0.369 -1.21,-0.369 z"
     id="path624" />
  <path
     style="fill:#ffffff;fill-opacity:1;fill-rule:nonzero;stroke:#231f20;stroke-width:0.665856;stroke-linecap:butt;stroke-linejoin:miter;stroke-miterlimit:4;stroke-dasharray:none;stroke-opacity:1"
     d="m 298.202,55.385 h 1.334 V 17.052 h -1.334 z"
     id="path625" />
  <path
     style="fill:#ffffff;fill-opacity:1;fill-rule:nonzero;stroke:none"
     d="m 295.01,60.317 c 0,-2.354 1.916,-4.27 4.266,-4.27 2.354,0 4.27,1.916 4.27,4.27 0,2.355 -1.916,4.271 -4.27,4.271 -2.35,0 -4.266,-1.916 -4.266,-4.271 m -1.333,0 c 0,3.088 2.515,5.599 5.599,5.599 3.093,0 5.604,-2.511 5.604,-5.599 0,-3.088 -2.511,-5.598 -5.604,-5.598 -3.084,0 -5.599,2.51 -5.599,5.598"
     id="path626" />
  <path
     style="fill:none;stroke:#231f20;stroke-width:0.665856;stroke-linecap:butt;stroke-linejoin:miter;stroke-miterlimit:4;stroke-dasharray:none;stroke-opacity:1"
     d="m 295.01,60.317 c 0,-2.354 1.916,-4.27 4.266,-4.27 2.354,0 4.27,1.916 4.27,4.27 0,2.355 -1.916,4.271 -4.27,4.271 -2.35,0 -4.266,-1.916 -4.266,-4.271 z m -1.333,0 c 0,3.088 2.515,5.599 5.599,5.599 3.093,0 5.604,-2.511 5.604,-5.599 0,-3.088 -2.511,-5.598 -5.604,-5.598 -3.084,0 -5.599,2.51 -5.599,5.598 z"
     id="path627" />
  <path
     style="fill:#231f20;fill-opacity:1;fill-rule:nonzero;stroke:none"
     d="m 301.718,64.151 c 0.688,0.136 1.312,2.364 1.052,2.546 -0.26,0.183 -0.39,-0.577 -0.688,-0.39 -0.306,0.193 -0.15,0.672 -0.369,0.734 -0.24,0.074 -0.339,-0.526 -0.609,-0.385 -0.115,0.057 -0.23,0.64 -0.422,0.635 -0.166,0 -0.448,-0.448 -0.578,-0.452 -0.219,-0.016 -0.167,0.598 -0.35,0.598 -0.462,0.011 -0.301,-2.704 -0.114,-2.849 0.276,-0.219 0.974,-0.656 2.078,-0.437"
     id="path628" />
  <path
     style="fill:none;stroke:#231f20;stroke-width:0.565977;stroke-linecap:round;stroke-linejoin:round;stroke-miterlimit:4;stroke-dasharray:none;stroke-opacity:1"
     d="m 301.718,64.151 c 0.688,0.136 1.312,2.364 1.052,2.546 -0.26,0.183 -0.39,-0.577 -0.688,-0.39 -0.306,0.193 -0.15,0.672 -0.369,0.734 -0.24,0.074 -0.339,-0.526 -0.609,-0.385 -0.115,0.057 -0.23,0.64 -0.422,0.635 -0.166,0 -0.448,-0.448 -0.578,-0.452 -0.219,-0.016 -0.167,0.598 -0.35,0.598 -0.462,0.011 -0.301,-2.704 -0.114,-2.849 0.276,-0.219 0.974,-0.656 2.078,-0.437 z"
     id="path629" />
  <path
     style="fill:none;stroke:#231f20;stroke-width:0.399514;stroke-linecap:butt;stroke-linejoin:miter;stroke-miterlimit:4;stroke-dasharray:none;stroke-opacity:1"
     d="m 265.51,55.093 c -9.401,24.771 17.906,45.604 24.848,47.724"
     id="path630" />
  <path
     style="fill:#ffffff;fill-opacity:1;fill-rule:nonzero;stroke:none"
     d="m 231.552,60.317 c 0,-2.354 1.916,-4.27 4.27,-4.27 2.355,0 4.271,1.916 4.271,4.27 0,2.355 -1.916,4.271 -4.271,4.271 -2.354,0 -4.27,-1.916 -4.27,-4.271 m -1.328,0 c 0,3.088 2.51,5.599 5.598,5.599 3.088,0 5.604,-2.511 5.604,-5.599 0,-3.088 -2.516,-5.598 -5.604,-5.598 -3.088,0 -5.598,2.51 -5.598,5.598"
     id="path632" />
  <path
     style="fill:none;stroke:#231f20;stroke-width:0.665856;stroke-linecap:butt;stroke-linejoin:miter;stroke-miterlimit:4;stroke-dasharray:none;stroke-opacity:1"
     d="m 231.552,60.317 c 0,-2.354 1.916,-4.27 4.27,-4.27 2.355,0 4.271,1.916 4.271,4.27 0,2.355 -1.916,4.271 -4.271,4.271 -2.354,0 -4.27,-1.916 -4.27,-4.271 z m -1.328,0 c 0,3.088 2.51,5.599 5.598,5.599 3.088,0 5.604,-2.511 5.604,-5.599 0,-3.088 -2.516,-5.598 -5.604,-5.598 -3.088,0 -5.598,2.51 -5.598,5.598 z"
     id="path633" />
  <path
     style="fill:#231f20;fill-opacity:1;fill-rule:nonzero;stroke:none"
     d="m 237.776,63.344 c 0.697,0.067 1.536,2.223 1.297,2.432 -0.245,0.203 -0.448,-0.537 -0.724,-0.319 -0.287,0.22 -0.084,0.678 -0.297,0.762 -0.235,0.093 -0.391,-0.49 -0.642,-0.323 -0.109,0.067 -0.166,0.656 -0.358,0.676 -0.167,0.016 -0.49,-0.4 -0.626,-0.396 -0.213,0.005 -0.104,0.611 -0.286,0.631 -0.458,0.052 -0.563,-2.662 -0.391,-2.828 0.256,-0.246 0.907,-0.746 2.027,-0.635"
     id="path634" />
  <path
     style="fill:none;stroke:#231f20;stroke-width:0.565977;stroke-linecap:round;stroke-linejoin:round;stroke-miterlimit:4;stroke-dasharray:none;stroke-opacity:1"
     d="m 237.776,63.344 c 0.697,0.067 1.536,2.223 1.297,2.432 -0.245,0.203 -0.448,-0.537 -0.724,-0.319 -0.287,0.22 -0.084,0.678 -0.297,0.762 -0.235,0.093 -0.391,-0.49 -0.642,-0.323 -0.109,0.067 -0.166,0.656 -0.358,0.676 -0.167,0.016 -0.49,-0.4 -0.626,-0.396 -0.213,0.005 -0.104,0.611 -0.286,0.631 -0.458,0.052 -0.563,-2.662 -0.391,-2.828 0.256,-0.246 0.907,-0.746 2.027,-0.635 z"
     id="path635" />
</svg>
