<?xml version="1.0" encoding="UTF-8" standalone="no"?>
<!-- Created with Inkscape (http://www.inkscape.org/) -->

<svg
   version="1.1"
   id="svg1"
   width="334.83932"
   height="124.646"
   viewBox="0 0 334.83931 124.64599"
   sodipodi:docname="cell.svg"
   xmlns:inkscape="http://www.inkscape.org/namespaces/inkscape"
   xmlns:sodipodi="http://sodipodi.sourceforge.net/DTD/sodipodi-0.dtd"
   xmlns="http://www.w3.org/2000/svg"
   xmlns:svg="http://www.w3.org/2000/svg">
  <sodipodi:namedview
     id="namedview1"
     pagecolor="#ffffff"
     bordercolor="#000000"
     borderopacity="0.25"
     inkscape:showpageshadow="2"
     inkscape:pageopacity="0.0"
     inkscape:pagecheckerboard="0"
     inkscape:deskcolor="#d1d1d1">
    <inkscape:page
       x="1.8908639e-07"
       y="1.671566e-13"
       inkscape:label="1"
       id="page1"
       width="334.83932"
       height="124.646"
       margin="0"
       bleed="0" />
  </sodipodi:namedview>
  <defs
     id="defs1" />
  <path
     style="fill:#ffffff;fill-opacity:1;fill-rule:nonzero;stroke:none"
     d="m 317.61533,18.875 h 17.224 V 0 h -17.224 z"
     id="path1033" />
  <path
     style="fill:#ffffff;fill-opacity:1;fill-rule:nonzero;stroke:#231f20;stroke-width:0.665856;stroke-linecap:butt;stroke-linejoin:miter;stroke-miterlimit:4;stroke-dasharray:none;stroke-opacity:1"
     d="m 94.772325,16.324 -3.787,30.807 1.303,0.297 3.786,-30.803 z"
     id="path1034" />
  <path
     style="fill:#ffffff;fill-opacity:1;fill-rule:nonzero;stroke:none"
     d="m 86.370325,51.131 c 0.527,-2.292 2.823,-3.73 5.115,-3.203 2.292,0.525 3.735,2.823 3.208,5.115 -0.525,2.296 -2.823,3.733 -5.119,3.208 -2.292,-0.527 -3.729,-2.823 -3.204,-5.12 m -1.296,-0.298 c -0.693,3.011 1.198,6.027 4.208,6.715 3.006,0.692 6.02,-1.199 6.708,-4.209 0.688,-3.01 -1.197,-6.015 -4.208,-6.708 -3.01,-0.687 -6.021,1.193 -6.708,4.202"
     id="path1035" />
  <path
     style="fill:none;stroke:#231f20;stroke-width:0.665856;stroke-linecap:butt;stroke-linejoin:miter;stroke-miterlimit:4;stroke-dasharray:none;stroke-opacity:1"
     d="m 86.370325,51.131 c 0.527,-2.292 2.823,-3.73 5.115,-3.203 2.292,0.525 3.735,2.823 3.208,5.115 -0.525,2.296 -2.823,3.733 -5.119,3.208 -2.292,-0.527 -3.729,-2.823 -3.204,-5.12 z m -1.296,-0.298 c -0.693,3.011 1.198,6.027 4.208,6.715 3.006,0.692 6.02,-1.199 6.708,-4.209 0.688,-3.01 -1.197,-6.015 -4.208,-6.708 -3.01,-0.687 -6.021,1.193 -6.708,4.202 z"
     id="path1036" />
  <path
     style="fill:#ca0369;fill-opacity:1;fill-rule:nonzero;stroke:none"
     d="m 193.22533,48.751 c -3.303,1.172 -4.271,1.317 -5.375,1.598 -5.6,1.432 -6.292,0.344 -6.991,-1.953 -0.978,-3.244 -1.202,-5.115 4.97,-6.348 4.693,-0.933 8.036,-2.297 8.036,-2.297 1.474,-1.151 4.948,-2.063 5.797,-1.724 1.427,0.568 1.131,0.505 2.079,1.598 1.76,2.016 1.333,3.142 0.598,4.074 -0.734,0.932 -1.604,1.489 -4.12,2.749 -1.948,0.985 -4.994,2.303 -4.994,2.303"
     id="path1037" />
  <path
     style="fill:none;stroke:#231f20;stroke-width:0.565977;stroke-linecap:butt;stroke-linejoin:miter;stroke-miterlimit:4;stroke-dasharray:none;stroke-opacity:1"
     d="m 193.22533,48.751 c -3.303,1.172 -4.271,1.317 -5.375,1.598 -5.6,1.432 -6.292,0.344 -6.991,-1.953 -0.978,-3.244 -1.202,-5.115 4.97,-6.348 4.693,-0.933 8.036,-2.297 8.036,-2.297 1.474,-1.151 4.948,-2.063 5.797,-1.724 1.427,0.568 1.131,0.505 2.079,1.598 1.76,2.016 1.333,3.142 0.598,4.074 -0.734,0.932 -1.604,1.489 -4.12,2.749 -1.948,0.985 -4.994,2.303 -4.994,2.303 z"
     id="path1038" />
  <path
     style="fill:none;stroke:#231f20;stroke-width:0.399514;stroke-linecap:butt;stroke-linejoin:miter;stroke-miterlimit:4;stroke-dasharray:none;stroke-opacity:1"
     d="m 5.9442254,82.234 c 3.14,26.303 12.6826996,39.344 19.1253996,41.694"
     id="path1039" />
  <path
     style="fill:#231f20;fill-opacity:1;fill-rule:nonzero;stroke:none"
     d="m 26.204025,124.338 c -0.6036,0.006 -1.3907,0.1 -1.9265,0.308 l 0.6453,-0.776 v -1.005 c 0.2812,0.5 0.8187,1.083 1.2812,1.473"
     id="path1040" />
  <path
     style="fill:#231f20;fill-opacity:1;fill-rule:nonzero;stroke:none"
     d="m 136.96533,30.079 c -1.219,0.593 -1.136,1.584 -0.407,2.312 0.224,0.224 0.188,0.63 0.411,0.829 0.543,0.457 2.272,0.244 2.464,-1.24 0.016,-0.104 0.36,-0.849 0.536,-1.443 0.329,-1.172 0.428,-3.666 -1.416,-5.63 -0.869,-0.932 -1.26,-0.244 -1.021,0.24 0.766,1.536 0.526,1.817 0.573,2.292 0.188,1.609 -1.14,2.64 -1.14,2.64"
     id="path1041" />
  <path
     style="fill:none;stroke:#231f20;stroke-width:0.332927;stroke-linecap:butt;stroke-linejoin:miter;stroke-miterlimit:4;stroke-dasharray:none;stroke-opacity:1"
     d="m 136.96533,30.079 c -1.219,0.593 -1.136,1.584 -0.407,2.312 0.224,0.224 0.188,0.63 0.411,0.829 0.543,0.457 2.272,0.244 2.464,-1.24 0.016,-0.104 0.36,-0.849 0.536,-1.443 0.329,-1.172 0.428,-3.666 -1.416,-5.63 -0.869,-0.932 -1.26,-0.244 -1.021,0.24 0.766,1.536 0.526,1.817 0.573,2.292 0.188,1.609 -1.14,2.64 -1.14,2.64 z"
     id="path1042" />
  <path
     style="fill:#231f20;fill-opacity:1;fill-rule:nonzero;stroke:none"
     d="m 134.82433,48.715 c -2.25,-0.158 -2.672,-0.495 -2.672,-1.454 0.005,-0.641 -0.208,-1.229 -0.23,-1.62 -0.046,-1.297 0.38,-3.5 3.262,-9.421 0.656,-1.344 1.557,-3.235 1.864,-4.032 0.478,-1.271 2.254,0.401 2.073,0.891 -0.599,1.609 -0.875,2.76 -1.011,3.369 -0.088,0.417 -0.354,1.136 -0.505,2.792 -0.229,2.516 0.011,4.063 -0.421,6.131 -0.21,0.953 0.249,1.812 -0.428,2.656 -0.676,0.849 -1.932,0.688 -1.932,0.688"
     id="path1043" />
  <path
     style="fill:none;stroke:#231f20;stroke-width:0.565977;stroke-linecap:butt;stroke-linejoin:miter;stroke-miterlimit:4;stroke-dasharray:none;stroke-opacity:1"
     d="m 134.82433,48.715 c -2.25,-0.158 -2.672,-0.495 -2.672,-1.454 0.005,-0.641 -0.208,-1.229 -0.23,-1.62 -0.046,-1.297 0.38,-3.5 3.262,-9.421 0.656,-1.344 1.557,-3.235 1.864,-4.032 0.478,-1.271 2.254,0.401 2.073,0.891 -0.599,1.609 -0.875,2.76 -1.011,3.369 -0.088,0.417 -0.354,1.136 -0.505,2.792 -0.229,2.516 0.011,4.063 -0.421,6.131 -0.21,0.953 0.249,1.812 -0.428,2.656 -0.676,0.849 -1.932,0.688 -1.932,0.688 z"
     id="path1044" />
  <path
     style="fill:#ca0369;fill-opacity:1;fill-rule:nonzero;stroke:none"
     d="m 111.87633,60.573 c 1.532,-2.734 1.557,-3.489 1.65,-4.401 0.611,-5.755 3.418,-5.348 5.642,-3.505 2.609,2.157 3.593,2.876 0.021,8.057 -0.996,1.438 -4.089,7.469 -4.089,7.469 -0.812,2.307 -2.839,4.12 -4.296,4.249 -1.527,0.131 -0.928,-0.036 -2.366,-0.165 -1.369,-0.131 -3.145,-1.412 -3.245,-2.641 -0.099,-1.188 1.272,-2.146 3.053,-3.792 1.4,-1.302 3.63,-5.271 3.63,-5.271"
     id="path1045" />
  <path
     style="fill:none;stroke:#231f20;stroke-width:0.565977;stroke-linecap:butt;stroke-linejoin:miter;stroke-miterlimit:4;stroke-dasharray:none;stroke-opacity:1"
     d="m 111.87633,60.573 c 1.532,-2.734 1.557,-3.489 1.65,-4.401 0.611,-5.755 3.418,-5.348 5.642,-3.505 2.609,2.157 3.593,2.876 0.021,8.057 -0.996,1.438 -4.089,7.469 -4.089,7.469 -0.812,2.307 -2.839,4.12 -4.296,4.249 -1.527,0.131 -0.928,-0.036 -2.366,-0.165 -1.369,-0.131 -3.145,-1.412 -3.245,-2.641 -0.099,-1.188 1.272,-2.146 3.053,-3.792 1.4,-1.302 3.63,-5.271 3.63,-5.271 z"
     id="path1046" />
  <path
     style="fill:#ffffff;fill-opacity:1;fill-rule:nonzero;stroke:none"
     d="m 108.76133,78.672 c -0.052,0.234 0.932,0.813 0.704,1.281 -0.229,0.475 -1,0.324 -2.552,1.563 l -0.016,0.016 c -1.104,0.948 -2.443,1.322 -3.609,0.869 -1.938,-0.755 -2.672,-3.5 -1.652,-6.129 1.037,-2.636 3.433,-4.152 5.37,-3.402 1.85,0.73 2.604,3.276 1.755,5.802"
     id="path1047" />
  <path
     style="fill:none;stroke:#231f20;stroke-width:0.565977;stroke-linecap:butt;stroke-linejoin:miter;stroke-miterlimit:4;stroke-dasharray:none;stroke-opacity:1"
     d="m 108.76133,78.672 c -0.052,0.234 0.932,0.813 0.704,1.281 -0.229,0.475 -1,0.324 -2.552,1.563 l -0.016,0.016 c -1.104,0.948 -2.443,1.322 -3.609,0.869 -1.938,-0.755 -2.672,-3.5 -1.652,-6.129 1.037,-2.636 3.433,-4.152 5.37,-3.402 1.85,0.73 2.604,3.276 1.755,5.802 z"
     id="path1048" />
  <path
     style="fill:#231f20;fill-opacity:1;fill-rule:nonzero;stroke:none"
     d="m 135.90233,45.792 c 2.296,3.287 -1.734,3.875 -2.13,4.152 -4.094,2.889 -4.459,2.989 -7.73,4.973 -4.729,2.859 -8.406,4.094 -10.869,1.828 -1.672,-1.541 -1.98,-3.15 -1.505,-4.38 0.525,-1.36 2.896,-3.474 5.672,-2.666 l 1.645,-0.47 c 1.073,-0.457 1.604,-0.672 2.115,-0.937 0.89,-0.463 1.869,-0.905 3.646,-1.713 3.162,-1.438 6.979,-1.912 6.979,-1.912 1.14,-0.484 2.177,1.125 2.177,1.125"
     id="path1049" />
  <path
     style="fill:none;stroke:#231f20;stroke-width:0.565977;stroke-linecap:butt;stroke-linejoin:miter;stroke-miterlimit:4;stroke-dasharray:none;stroke-opacity:1"
     d="m 135.90233,45.792 c 2.296,3.287 -1.734,3.875 -2.13,4.152 -4.094,2.889 -4.459,2.989 -7.73,4.973 -4.729,2.859 -8.406,4.094 -10.869,1.828 -1.672,-1.541 -1.98,-3.15 -1.505,-4.38 0.525,-1.36 2.896,-3.474 5.672,-2.666 l 1.645,-0.47 c 1.073,-0.457 1.604,-0.672 2.115,-0.937 0.89,-0.463 1.869,-0.905 3.646,-1.713 3.162,-1.438 6.979,-1.912 6.979,-1.912 1.14,-0.484 2.177,1.125 2.177,1.125 z"
     id="path1050" />
  <path
     style="fill:#231f20;fill-opacity:1;fill-rule:nonzero;stroke:none"
     d="m 92.474325,58.423 c 0.292,0.577 2.09,1.317 3.23,2.458 0.766,0.76 3.333,1.739 4.042,2.561 0.651005,0.751 1.015005,1.038 2.004005,0.444 0.584,-0.354 1.48,-1.412 1.24,-1.865 -0.568,-1.041 -1.306,-1.63 -2.265,-2.109 -1.084005,-0.541 -4.167005,-1.755 -4.760005,-1.927 -1.459,-0.417 -1.891,-1.016 -2.267,-1.166 -0.708,-0.276 -0.989,-0.074 -1.27,0.344 -0.531,0.796 0.046,1.26 0.046,1.26"
     id="path1051" />
  <path
     style="fill:none;stroke:#231f20;stroke-width:0.565977;stroke-linecap:butt;stroke-linejoin:miter;stroke-miterlimit:4;stroke-dasharray:none;stroke-opacity:1"
     d="m 92.474325,58.423 c 0.292,0.577 2.09,1.317 3.23,2.458 0.766,0.76 3.333,1.739 4.042,2.561 0.651005,0.751 1.015005,1.038 2.004005,0.444 0.584,-0.354 1.48,-1.412 1.24,-1.865 -0.568,-1.041 -1.306,-1.63 -2.265,-2.109 -1.084005,-0.541 -4.167005,-1.755 -4.760005,-1.927 -1.459,-0.417 -1.891,-1.016 -2.267,-1.166 -0.708,-0.276 -0.989,-0.074 -1.27,0.344 -0.531,0.796 0.046,1.26 0.046,1.26 z"
     id="path1052" />
  <path
     style="fill:#231f20;fill-opacity:1;fill-rule:nonzero;stroke:none"
     d="m 100.10533,62.714 c -0.828005,0.995 0.943,1.995 1.369,2.328 0.428,0.334 1.543,1.427 2.292,2.386 0.76,0.962 2.115,1.838 3.558,3.666 0.76,0.959 2.098,1.416 3.442,0.255 1.334,-1.145 1.194,-2.323 0.099,-3.349 -1.088,-1.02 -2.547,-1.52 -3.719,-2.479 -1.172,-0.953 -2.281,-2.031 -3.109,-2.921 -0.943,-1.016 -1.781,-1.161 -2.229,-1 -1.119,0.4 -1.703,1.114 -1.703,1.114"
     id="path1053" />
  <path
     style="fill:none;stroke:#231f20;stroke-width:0.565977;stroke-linecap:butt;stroke-linejoin:miter;stroke-miterlimit:4;stroke-dasharray:none;stroke-opacity:1"
     d="m 100.10533,62.714 c -0.828005,0.995 0.943,1.995 1.369,2.328 0.428,0.334 1.543,1.427 2.292,2.386 0.76,0.962 2.115,1.838 3.558,3.666 0.76,0.959 2.098,1.416 3.442,0.255 1.334,-1.145 1.194,-2.323 0.099,-3.349 -1.088,-1.02 -2.547,-1.52 -3.719,-2.479 -1.172,-0.953 -2.281,-2.031 -3.109,-2.921 -0.943,-1.016 -1.781,-1.161 -2.229,-1 -1.119,0.4 -1.703,1.114 -1.703,1.114 z"
     id="path1054" />
  <path
     style="fill:#231f20;fill-opacity:1;fill-rule:nonzero;stroke:none"
     d="m 92.058325,57.953 c -0.688,-0.124 -1.338,-2.348 -1.078,-2.53 0.261,-0.183 0.396,0.568 0.698,0.374 0.296,-0.192 0.135,-0.661 0.354,-0.729 0.24,-0.077 0.344,0.521 0.614,0.375 0.115,-0.056 0.224,-0.646 0.418,-0.64 0.166,0 0.448,0.437 0.582,0.448 0.214,0.016 0.162,-0.599 0.339,-0.604 0.469,-0.016 0.339,2.692 0.152,2.844 -0.277,0.224 -0.969,0.672 -2.079,0.462"
     id="path1055" />
  <path
     style="fill:none;stroke:#231f20;stroke-width:0.565977;stroke-linecap:round;stroke-linejoin:round;stroke-miterlimit:4;stroke-dasharray:none;stroke-opacity:1"
     d="m 92.058325,57.953 c -0.688,-0.124 -1.338,-2.348 -1.078,-2.53 0.261,-0.183 0.396,0.568 0.698,0.374 0.296,-0.192 0.135,-0.661 0.354,-0.729 0.24,-0.077 0.344,0.521 0.614,0.375 0.115,-0.056 0.224,-0.646 0.418,-0.64 0.166,0 0.448,0.437 0.582,0.448 0.214,0.016 0.162,-0.599 0.339,-0.604 0.469,-0.016 0.339,2.692 0.152,2.844 -0.277,0.224 -0.969,0.672 -2.079,0.462 z"
     id="path1056" />
  <path
     style="fill:#ca0369;fill-opacity:1;fill-rule:nonzero;stroke:#231f20;stroke-width:0.565977;stroke-linecap:butt;stroke-linejoin:miter;stroke-miterlimit:4;stroke-dasharray:none;stroke-opacity:1"
     d="m 119.48533,49.683 c -2.781,-0.771 -5.129,1.37 -5.64,2.745 -0.448,1.235 -0.136,2.839 1.557,4.359 1.974,1.766 4.672,1.333 8.026,-0.364 z"
     id="path1057" />
  <path
     style="fill:#231f20;fill-opacity:1;fill-rule:nonzero;stroke:none"
     d="m 172.57433,36.704 c 1.124,0.749 1.932,0.177 2.192,-0.817 0.084,-0.303 0.448,-0.486 0.505,-0.778 0.12,-0.697 -0.932,-2.082 -2.312,-1.494 -0.1,0.037 -0.917,0.114 -1.516,0.266 -1.172,0.307 -3.374,1.479 -4.141,4.063 -0.364,1.223 0.428,1.219 0.724,0.765 0.939,-1.437 1.303,-1.376 1.688,-1.652 1.292,-0.978 2.86,-0.353 2.86,-0.353"
     id="path1058" />
  <path
     style="fill:none;stroke:#231f20;stroke-width:0.332927;stroke-linecap:butt;stroke-linejoin:miter;stroke-miterlimit:4;stroke-dasharray:none;stroke-opacity:1"
     d="m 172.57433,36.704 c 1.124,0.749 1.932,0.177 2.192,-0.817 0.084,-0.303 0.448,-0.486 0.505,-0.778 0.12,-0.697 -0.932,-2.082 -2.312,-1.494 -0.1,0.037 -0.917,0.114 -1.516,0.266 -1.172,0.307 -3.374,1.479 -4.141,4.063 -0.364,1.223 0.428,1.219 0.724,0.765 0.939,-1.437 1.303,-1.376 1.688,-1.652 1.292,-0.978 2.86,-0.353 2.86,-0.353 z"
     id="path1059" />
  <path
     style="fill:#231f20;fill-opacity:1;fill-rule:nonzero;stroke:none"
     d="m 189.72533,29.131 c 1,2.026 0.926,2.557 0.098,3.041 -0.552,0.319 -0.958,0.803 -1.286,1.016 -1.088,0.703 -3.208,1.443 -9.771,1.948 -1.495,0.12 -3.577,0.292 -4.421,0.432 -1.339,0.224 -0.798,-2.151 -0.282,-2.239 1.692,-0.302 2.828,-0.641 3.422,-0.833 0.401,-0.136 1.15,-0.267 2.661,-0.975 2.287,-1.073 3.5,-2.062 5.5,-2.734 0.928,-0.307 1.437,-1.135 2.505,-0.974 1.079,0.156 1.574,1.318 1.574,1.318"
     id="path1060" />
  <path
     style="fill:none;stroke:#231f20;stroke-width:0.565977;stroke-linecap:butt;stroke-linejoin:miter;stroke-miterlimit:4;stroke-dasharray:none;stroke-opacity:1"
     d="m 189.72533,29.131 c 1,2.026 0.926,2.557 0.098,3.041 -0.552,0.319 -0.958,0.803 -1.286,1.016 -1.088,0.703 -3.208,1.443 -9.771,1.948 -1.495,0.12 -3.577,0.292 -4.421,0.432 -1.339,0.224 -0.798,-2.151 -0.282,-2.239 1.692,-0.302 2.828,-0.641 3.422,-0.833 0.401,-0.136 1.15,-0.267 2.661,-0.975 2.287,-1.073 3.5,-2.062 5.5,-2.734 0.928,-0.307 1.437,-1.135 2.505,-0.974 1.079,0.156 1.574,1.318 1.574,1.318 z"
     id="path1061" />
  <path
     style="fill:#ffffff;fill-opacity:1;fill-rule:nonzero;stroke:none"
     d="m 202.49033,33.485 c 0.052,-0.234 -0.948,-0.797 -0.729,-1.27 0.218,-0.48 1,-0.339 2.526,-1.61 l 0.011,-0.016 c 1.088,-0.969 2.421,-1.369 3.593,-0.937 1.954,0.719 2.74,3.453 1.766,6.099 -0.984,2.65 -3.35,4.218 -5.302,3.5 -1.865,-0.694 -2.666,-3.224 -1.865,-5.766"
     id="path1062" />
  <path
     style="fill:none;stroke:#231f20;stroke-width:0.565977;stroke-linecap:butt;stroke-linejoin:miter;stroke-miterlimit:4;stroke-dasharray:none;stroke-opacity:1"
     d="m 202.49033,33.485 c 0.052,-0.234 -0.948,-0.797 -0.729,-1.27 0.218,-0.48 1,-0.339 2.526,-1.61 l 0.011,-0.016 c 1.088,-0.969 2.421,-1.369 3.593,-0.937 1.954,0.719 2.74,3.453 1.766,6.099 -0.984,2.65 -3.35,4.218 -5.302,3.5 -1.865,-0.694 -2.666,-3.224 -1.865,-5.766 z"
     id="path1063" />
  <path
     style="fill:#231f20;fill-opacity:1;fill-rule:nonzero;stroke:none"
     d="m 188.55833,27.781 c 4.011,0.194 2,3.746 1.973,4.23 -0.224,5.005 -0.364,5.354 -0.801,9.156 -0.641,5.49 -1.917,9.157 -5.219,9.714 -2.24,0.38 -3.704,-0.365 -4.38,-1.49 -0.756,-1.25 -0.969,-4.422 1.364,-6.119 l 0.642,-1.595 c 0.296,-1.12 0.452,-1.672 0.556,-2.244 0.177,-0.985 0.428,-2.032 0.881,-3.933 0.796,-3.38 2.76,-6.687 2.76,-6.687 0.317,-1.198 2.224,-1.032 2.224,-1.032"
     id="path1064" />
  <path
     style="fill:none;stroke:#231f20;stroke-width:0.565977;stroke-linecap:butt;stroke-linejoin:miter;stroke-miterlimit:4;stroke-dasharray:none;stroke-opacity:1"
     d="m 188.55833,27.781 c 4.011,0.194 2,3.746 1.973,4.23 -0.224,5.005 -0.364,5.354 -0.801,9.156 -0.641,5.49 -1.917,9.157 -5.219,9.714 -2.24,0.38 -3.704,-0.365 -4.38,-1.49 -0.756,-1.25 -0.969,-4.422 1.364,-6.119 l 0.642,-1.595 c 0.296,-1.12 0.452,-1.672 0.556,-2.244 0.177,-0.985 0.428,-2.032 0.881,-3.933 0.796,-3.38 2.76,-6.687 2.76,-6.687 0.317,-1.198 2.224,-1.032 2.224,-1.032 z"
     id="path1065" />
  <path
     style="fill:#231f20;fill-opacity:1;fill-rule:nonzero;stroke:none"
     d="m 188.16233,56.865 c 0.599,-0.25 1.469,-1.989 2.688,-3.041 0.817,-0.709 1.979,-3.193 2.853,-3.844 0.798,-0.593 1.11,-0.932 0.59,-1.964 -0.308,-0.609 -1.298,-1.583 -1.767,-1.375 -1.083,0.49 -1.723,1.183 -2.276,2.099 -0.615,1.047 -2.057,4.032 -2.265,4.609 -0.52,1.427 -1.156,1.814 -1.334,2.178 -0.328,0.688 -0.145,0.978 0.251,1.292 0.755,0.582 1.26,0.046 1.26,0.046"
     id="path1066" />
  <path
     style="fill:none;stroke:#231f20;stroke-width:0.565977;stroke-linecap:butt;stroke-linejoin:miter;stroke-miterlimit:4;stroke-dasharray:none;stroke-opacity:1"
     d="m 188.16233,56.865 c 0.599,-0.25 1.469,-1.989 2.688,-3.041 0.817,-0.709 1.979,-3.193 2.853,-3.844 0.798,-0.593 1.11,-0.932 0.59,-1.964 -0.308,-0.609 -1.298,-1.583 -1.767,-1.375 -1.083,0.49 -1.723,1.183 -2.276,2.099 -0.615,1.047 -2.057,4.032 -2.265,4.609 -0.52,1.427 -1.156,1.814 -1.334,2.178 -0.328,0.688 -0.145,0.978 0.251,1.292 0.755,0.582 1.26,0.046 1.26,0.046 z"
     id="path1067" />
  <path
     style="fill:#231f20;fill-opacity:1;fill-rule:nonzero;stroke:none"
     d="m 193.00133,49.573 c 0.937,0.896 2.062,-0.801 2.426,-1.197 0.366,-0.401 1.538,-1.432 2.547,-2.109 1.016,-0.688 1.991,-1.975 3.917,-3.276 1.016,-0.688 1.574,-1.991 0.511,-3.418 -1.043,-1.41 -2.229,-1.353 -3.328,-0.349 -1.105,1.016 -1.709,2.439 -2.751,3.532 -1.036,1.099 -2.192,2.125 -3.145,2.885 -1.079,0.859 -1.287,1.688 -1.156,2.151 0.317,1.147 0.979,1.781 0.979,1.781"
     id="path1068" />
  <path
     style="fill:none;stroke:#231f20;stroke-width:0.565977;stroke-linecap:butt;stroke-linejoin:miter;stroke-miterlimit:4;stroke-dasharray:none;stroke-opacity:1"
     d="m 193.00133,49.573 c 0.937,0.896 2.062,-0.801 2.426,-1.197 0.366,-0.401 1.538,-1.432 2.547,-2.109 1.016,-0.688 1.991,-1.975 3.917,-3.276 1.016,-0.688 1.574,-1.991 0.511,-3.418 -1.043,-1.41 -2.229,-1.353 -3.328,-0.349 -1.105,1.016 -1.709,2.439 -2.751,3.532 -1.036,1.099 -2.192,2.125 -3.145,2.885 -1.079,0.859 -1.287,1.688 -1.156,2.151 0.317,1.147 0.979,1.781 0.979,1.781 z"
     id="path1069" />
  <path
     style="fill:#ca0369;fill-opacity:1;fill-rule:nonzero;stroke:#231f20;stroke-width:0.565977;stroke-linecap:butt;stroke-linejoin:miter;stroke-miterlimit:4;stroke-dasharray:none;stroke-opacity:1"
     d="m 181.57433,43.147 c -2.313,1.724 -2.063,4.896 -1.287,6.14 0.703,1.114 2.162,1.844 4.402,1.437 2.604,-0.473 3.916,-2.88 4.629,-6.561 z"
     id="path1070" />
  <path
     style="fill:#231f20;fill-opacity:1;fill-rule:nonzero;stroke:none"
     d="m 5.4655254,115.854 c 1.1505,0.714 1.9375,0.104 2.1615,-0.906 0.0666,-0.302 0.4369,-0.495 0.4734,-0.791 0.0984,-0.699 -1.0109,-2.052 -2.3698,-1.412 -0.0984,0.047 -0.9063,0.156 -1.5052,0.328 -1.1615,0.344 -3.31719998,1.604 -3.98389998,4.213 -0.3186,1.24 0.4683,1.199 0.7495,0.735 0.88549998,-1.464 1.25049998,-1.416 1.62499998,-1.713 1.2604,-1.027 2.8495,-0.454 2.8495,-0.454"
     id="path1071" />
  <path
     style="fill:none;stroke:#231f20;stroke-width:0.332927;stroke-linecap:butt;stroke-linejoin:miter;stroke-miterlimit:4;stroke-dasharray:none;stroke-opacity:1"
     d="m 5.4655254,115.854 c 1.1505,0.714 1.9375,0.104 2.1615,-0.906 0.0666,-0.302 0.4369,-0.495 0.4734,-0.791 0.0984,-0.699 -1.0109,-2.052 -2.3698,-1.412 -0.0984,0.047 -0.9063,0.156 -1.5052,0.328 -1.1615,0.344 -3.31719998,1.604 -3.98389998,4.213 -0.3186,1.24 0.4683,1.199 0.7495,0.735 0.88549998,-1.464 1.25049998,-1.416 1.62499998,-1.713 1.2604,-1.027 2.8495,-0.454 2.8495,-0.454 z"
     id="path1072" />
  <path
     style="fill:#231f20;fill-opacity:1;fill-rule:nonzero;stroke:none"
     d="m 22.318525,107.636 c 1.0787,1.989 1.0214,2.526 0.2136,3.041 -0.5412,0.333 -0.9213,0.839 -1.2437,1.063 -1.0631,0.745 -3.1563,1.557 -9.6937,2.317 -1.4839,0.172 -3.5624996,0.423 -4.4051996,0.595 -1.3292,0.27 -0.8813,-2.12 -0.36,-2.23 1.6771,-0.365 2.7975,-0.75 3.3854996,-0.958 0.401,-0.151 1.1453,-0.312 2.6249,-1.078 2.2443,-1.162 3.4162,-2.188 5.3964,-2.938 0.9156,-0.343 1.3906,-1.187 2.4625,-1.072 1.0787,0.12 1.6197,1.26 1.6197,1.26"
     id="path1073" />
  <path
     style="fill:none;stroke:#231f20;stroke-width:0.565977;stroke-linecap:butt;stroke-linejoin:miter;stroke-miterlimit:4;stroke-dasharray:none;stroke-opacity:1"
     d="m 22.318525,107.636 c 1.0787,1.989 1.0214,2.526 0.2136,3.041 -0.5412,0.333 -0.9213,0.839 -1.2437,1.063 -1.0631,0.745 -3.1563,1.557 -9.6937,2.317 -1.4839,0.172 -3.5624996,0.423 -4.4051996,0.595 -1.3292,0.27 -0.8813,-2.12 -0.36,-2.23 1.6771,-0.365 2.7975,-0.75 3.3854996,-0.958 0.401,-0.151 1.1453,-0.312 2.6249,-1.078 2.2443,-1.162 3.4162,-2.188 5.3964,-2.938 0.9156,-0.343 1.3906,-1.187 2.4625,-1.072 1.0787,0.12 1.6197,1.26 1.6197,1.26 z"
     id="path1074" />
  <path
     style="fill:#ca0369;fill-opacity:1;fill-rule:nonzero;stroke:none"
     d="m 45.532125,96.224 c -1.5412,2.734 -1.5719,3.485 -1.6719,4.401 -0.6349,5.745 -3.4428,5.328 -5.6562,3.475 -2.6036,-2.167 -3.5823,-2.896 0.0213,-8.058 1,-1.437 4.1202,-7.448 4.1202,-7.448 0.8276,-2.308 2.8642,-4.104 4.3172,-4.229 1.5267,-0.125 0.9319,0.036 2.3694,0.177 1.3708,0.135 3.1358,1.427 3.2292,2.662 0.0842,1.182 -1.2762,2.134 -3.0678,3.776 -1.4109,1.286 -3.6614,5.244 -3.6614,5.244"
     id="path1075" />
  <path
     style="fill:none;stroke:#231f20;stroke-width:0.565977;stroke-linecap:butt;stroke-linejoin:miter;stroke-miterlimit:4;stroke-dasharray:none;stroke-opacity:1"
     d="m 45.532125,96.224 c -1.5412,2.734 -1.5719,3.485 -1.6719,4.401 -0.6349,5.745 -3.4428,5.328 -5.6562,3.475 -2.6036,-2.167 -3.5823,-2.896 0.0213,-8.058 1,-1.437 4.1202,-7.448 4.1202,-7.448 0.8276,-2.308 2.8642,-4.104 4.3172,-4.229 1.5267,-0.125 0.9319,0.036 2.3694,0.177 1.3708,0.135 3.1358,1.427 3.2292,2.662 0.0842,1.182 -1.2762,2.134 -3.0678,3.776 -1.4109,1.286 -3.6614,5.244 -3.6614,5.244 z"
     id="path1076" />
  <path
     style="fill:#ffffff;fill-opacity:1;fill-rule:nonzero;stroke:none"
     d="m 49.996125,78.188 c 0.0838,-0.23 -0.8588,-0.886 -0.5932,-1.339 0.265,-0.453 1.0198,-0.235 2.677,-1.349 l 0.0095,-0.015 c 1.1776,-0.855 2.5427,-1.115 3.6719,-0.568 1.866,0.907 2.376,3.703 1.136,6.245 -1.235,2.536 -3.7455,3.859 -5.6147,2.947 -1.7865,-0.869 -2.3276,-3.473 -1.2865,-5.921"
     id="path1077" />
  <path
     style="fill:none;stroke:#231f20;stroke-width:0.565977;stroke-linecap:butt;stroke-linejoin:miter;stroke-miterlimit:4;stroke-dasharray:none;stroke-opacity:1"
     d="m 49.996125,78.188 c 0.0838,-0.23 -0.8588,-0.886 -0.5932,-1.339 0.265,-0.453 1.0198,-0.235 2.677,-1.349 l 0.0095,-0.015 c 1.1776,-0.855 2.5427,-1.115 3.6719,-0.568 1.866,0.907 2.376,3.703 1.136,6.245 -1.235,2.536 -3.7455,3.859 -5.6147,2.947 -1.7865,-0.869 -2.3276,-3.473 -1.2865,-5.921 z"
     id="path1078" />
  <path
     style="fill:#231f20;fill-opacity:1;fill-rule:nonzero;stroke:none"
     d="m 20.474825,109.281 c -2.2077,-3.348 1.8437,-3.833 2.2453,-4.093 4.1667,-2.782 4.5412,-2.875 7.864,-4.76 4.8027,-2.74 8.5105,-3.871 10.9224,-1.538 1.6308,1.579 1.8854,3.199 1.3802,4.412 -0.5573,1.35 -2.9895,3.396 -5.7453,2.527 l -1.6562,0.416 c -1.0823,0.427 -1.625,0.631 -2.1396,0.885 -0.9015,0.443 -1.8906,0.85 -3.699,1.61 -3.1973,1.349 -7.0249,1.724 -7.0249,1.724 -1.151,0.458 -2.1469,-1.183 -2.1469,-1.183"
     id="path1079" />
  <path
     style="fill:none;stroke:#231f20;stroke-width:0.565977;stroke-linecap:butt;stroke-linejoin:miter;stroke-miterlimit:4;stroke-dasharray:none;stroke-opacity:1"
     d="m 20.474825,109.281 c -2.2077,-3.348 1.8437,-3.833 2.2453,-4.093 4.1667,-2.782 4.5412,-2.875 7.864,-4.76 4.8027,-2.74 8.5105,-3.871 10.9224,-1.538 1.6308,1.579 1.8854,3.199 1.3802,4.412 -0.5573,1.35 -2.9895,3.396 -5.7453,2.527 l -1.6562,0.416 c -1.0823,0.427 -1.625,0.631 -2.1396,0.885 -0.9015,0.443 -1.8906,0.85 -3.699,1.61 -3.1973,1.349 -7.0249,1.724 -7.0249,1.724 -1.151,0.458 -2.1469,-1.183 -2.1469,-1.183 z"
     id="path1080" />
  <path
     style="fill:#ca0369;fill-opacity:1;fill-rule:nonzero;stroke:none"
     d="m 41.506525,98.89 c -1.0624,-1.03 -2.3848,-1.364 -3.9317,-1.208 -1.0318,-0.125 -1.6574,-0.166 -2.2146,0.412 -0.0469,0.052 -0.1094,0.104 -0.1708,0.151 -0.5573,0.193 -1.1256,0.417 -1.724,0.688 l 3.676,6.891 c 2.7558,0.874 5.188,-1.172 5.7453,-2.522 0.5052,-1.213 0.2506,-2.833 -1.3802,-4.412"
     id="path1081" />
  <path
     style="fill:none;stroke:#231f20;stroke-width:0.565977;stroke-linecap:butt;stroke-linejoin:miter;stroke-miterlimit:4;stroke-dasharray:none;stroke-opacity:1"
     d="m 41.506525,98.89 c -1.0624,-1.03 -2.3848,-1.364 -3.9317,-1.208 -1.0318,-0.125 -1.6574,-0.166 -2.2146,0.412 -0.0469,0.052 -0.1094,0.104 -0.1708,0.151 -0.5573,0.193 -1.1256,0.417 -1.724,0.688 l 3.676,6.891 c 2.7558,0.874 5.188,-1.172 5.7453,-2.522 0.5052,-1.213 0.2506,-2.833 -1.3802,-4.412 z"
     id="path1082" />
  <path
     style="fill:#231f20;fill-opacity:1;fill-rule:nonzero;stroke:none"
     d="m 58.933325,69.442 c -0.588,0.267 -1.411,2.027 -2.594,3.12 -0.796,0.735 -1.8843,3.256 -2.739,3.928 -0.7761,0.615 -1.0734,0.968 -0.5204,1.984 0.323,0.599 1.3375,1.542 1.8016,1.318 1.0678,-0.52 1.6878,-1.235 2.2078,-2.172 0.59,-1.063 1.933,-4.088 2.126,-4.667 0.483,-1.448 1.103,-1.848 1.265,-2.224 0.313,-0.692 0.12,-0.979 -0.287,-1.281 -0.771,-0.562 -1.26,-0.006 -1.26,-0.006"
     id="path1083" />
  <path
     style="fill:none;stroke:#231f20;stroke-width:0.565977;stroke-linecap:butt;stroke-linejoin:miter;stroke-miterlimit:4;stroke-dasharray:none;stroke-opacity:1"
     d="m 58.933325,69.442 c -0.588,0.267 -1.411,2.027 -2.594,3.12 -0.796,0.735 -1.8843,3.256 -2.739,3.928 -0.7761,0.615 -1.0734,0.968 -0.5204,1.984 0.323,0.599 1.3375,1.542 1.8016,1.318 1.0678,-0.52 1.6878,-1.235 2.2078,-2.172 0.59,-1.063 1.933,-4.088 2.126,-4.667 0.483,-1.448 1.103,-1.848 1.265,-2.224 0.313,-0.692 0.12,-0.979 -0.287,-1.281 -0.771,-0.562 -1.26,-0.006 -1.26,-0.006 z"
     id="path1084" />
  <path
     style="fill:#231f20;fill-opacity:1;fill-rule:nonzero;stroke:none"
     d="m 53.990925,77.037 c -1.1511,-0.579 -1.7239,1.375 -1.9536,1.864 -0.2292,0.495 -1.036,1.823 -1.8011,2.776 -0.7656,0.953 -1.3135,2.475 -2.7656,4.292 -0.7667,0.959 -0.9011,2.375 0.5307,3.417 1.4161,1.036 2.536,0.63 3.287,-0.666 0.749,-1.298 0.9011,-2.83 1.5678,-4.188 0.6666,-1.36 1.4681,-2.683 2.1452,-3.688 0.771,-1.146 0.729,-2 0.469,-2.402 -0.6518,-1 -1.4794,-1.405 -1.4794,-1.405"
     id="path1085" />
  <path
     style="fill:none;stroke:#231f20;stroke-width:0.565977;stroke-linecap:butt;stroke-linejoin:miter;stroke-miterlimit:4;stroke-dasharray:none;stroke-opacity:1"
     d="m 53.990925,77.037 c -1.1511,-0.579 -1.7239,1.375 -1.9536,1.864 -0.2292,0.495 -1.036,1.823 -1.8011,2.776 -0.7656,0.953 -1.3135,2.475 -2.7656,4.292 -0.7667,0.959 -0.9011,2.375 0.5307,3.417 1.4161,1.036 2.536,0.63 3.287,-0.666 0.749,-1.298 0.9011,-2.83 1.5678,-4.188 0.6666,-1.36 1.4681,-2.683 2.1452,-3.688 0.771,-1.146 0.729,-2 0.469,-2.402 -0.6518,-1 -1.4794,-1.405 -1.4794,-1.405 z"
     id="path1086" />
  <path
     style="fill:#ffffff;fill-opacity:1;fill-rule:nonzero;stroke:none"
     d="m 56.063325,66.849 c 0,-2.353 1.917,-4.271 4.271,-4.271 2.355,0 4.271,1.918 4.271,4.271 0,2.355 -1.916,4.271 -4.271,4.271 -2.354,0 -4.271,-1.916 -4.271,-4.271 m -1.3271,0 c 0,3.089 2.5101,5.599 5.5981,5.599 3.088,0 5.599,-2.51 5.599,-5.599 0,-3.088 -2.511,-5.598 -5.599,-5.598 -3.088,0 -5.5981,2.51 -5.5981,5.598"
     id="path1087" />
  <path
     style="fill:none;stroke:#231f20;stroke-width:0.665856;stroke-linecap:butt;stroke-linejoin:miter;stroke-miterlimit:4;stroke-dasharray:none;stroke-opacity:1"
     d="m 56.063325,66.849 c 0,-2.353 1.917,-4.271 4.271,-4.271 2.355,0 4.271,1.918 4.271,4.271 0,2.355 -1.916,4.271 -4.271,4.271 -2.354,0 -4.271,-1.916 -4.271,-4.271 z m -1.3271,0 c 0,3.089 2.5101,5.599 5.5981,5.599 3.088,0 5.599,-2.51 5.599,-5.599 0,-3.088 -2.511,-5.598 -5.599,-5.598 -3.088,0 -5.5981,2.51 -5.5981,5.598 z"
     id="path1088" />
  <path
     style="fill:#ffffff;fill-opacity:1;fill-rule:nonzero;stroke:#231f20;stroke-width:0.665856;stroke-linecap:butt;stroke-linejoin:miter;stroke-miterlimit:4;stroke-dasharray:none;stroke-opacity:1"
     d="m 59.668325,61.917 h 1.333 V 16.324 h -1.333 z"
     id="path1089" />
  <path
     style="fill:#231f20;fill-opacity:1;fill-rule:nonzero;stroke:none"
     d="m 61.303325,69.693 c 0.636,0.292 0.734,2.599 0.438,2.719 -0.297,0.114 -0.245,-0.651 -0.584,-0.536 -0.339,0.114 -0.292,0.614 -0.521,0.624 -0.25,0.016 -0.214,-0.588 -0.504,-0.51 -0.131,0.026 -0.376,0.567 -0.558,0.52 -0.166,-0.041 -0.333,-0.536 -0.464,-0.572 -0.202,-0.068 -0.297,0.542 -0.474,0.504 -0.452,-0.098 0.324,-2.697 0.543,-2.801 0.322,-0.151 1.098,-0.417 2.124,0.052"
     id="path1090" />
  <path
     style="fill:none;stroke:#231f20;stroke-width:0.565977;stroke-linecap:round;stroke-linejoin:round;stroke-miterlimit:4;stroke-dasharray:none;stroke-opacity:1"
     d="m 61.303325,69.693 c 0.636,0.292 0.734,2.599 0.438,2.719 -0.297,0.114 -0.245,-0.651 -0.584,-0.536 -0.339,0.114 -0.292,0.614 -0.521,0.624 -0.25,0.016 -0.214,-0.588 -0.504,-0.51 -0.131,0.026 -0.376,0.567 -0.558,0.52 -0.166,-0.041 -0.333,-0.536 -0.464,-0.572 -0.202,-0.068 -0.297,0.542 -0.474,0.504 -0.452,-0.098 0.324,-2.697 0.543,-2.801 0.322,-0.151 1.098,-0.417 2.124,0.052 z"
     id="path1091" />
  <path
     style="fill:#231f20;fill-opacity:1;fill-rule:nonzero;stroke:none"
     d="m 246.61533,100.053 c 1.151,0.713 1.932,0.104 2.156,-0.907 0.068,-0.302 0.438,-0.494 0.479,-0.792 0.1,-0.697 -1.009,-2.046 -2.375,-1.41 -0.093,0.046 -0.901,0.156 -1.5,0.328 -1.161,0.342 -3.322,1.609 -3.984,4.213 -0.322,1.239 0.468,1.197 0.75,0.735 0.885,-1.464 1.25,-1.418 1.62,-1.715 1.261,-1.025 2.854,-0.452 2.854,-0.452"
     id="path1092" />
  <path
     style="fill:none;stroke:#231f20;stroke-width:0.332927;stroke-linecap:butt;stroke-linejoin:miter;stroke-miterlimit:4;stroke-dasharray:none;stroke-opacity:1"
     d="m 246.61533,100.053 c 1.151,0.713 1.932,0.104 2.156,-0.907 0.068,-0.302 0.438,-0.494 0.479,-0.792 0.1,-0.697 -1.009,-2.046 -2.375,-1.41 -0.093,0.046 -0.901,0.156 -1.5,0.328 -1.161,0.342 -3.322,1.609 -3.984,4.213 -0.322,1.239 0.468,1.197 0.75,0.735 0.885,-1.464 1.25,-1.418 1.62,-1.715 1.261,-1.025 2.854,-0.452 2.854,-0.452 z"
     id="path1093" />
  <path
     style="fill:#231f20;fill-opacity:1;fill-rule:nonzero;stroke:none"
     d="m 263.47033,91.833 c 1.077,1.991 1.02,2.527 0.208,3.043 -0.537,0.338 -0.923,0.838 -1.24,1.062 -1.063,0.744 -3.156,1.558 -9.697,2.318 -1.486,0.172 -3.563,0.421 -4.402,0.593 -1.333,0.271 -0.88,-2.12 -0.365,-2.229 1.677,-0.37 2.803,-0.75 3.385,-0.958 0.407,-0.152 1.147,-0.313 2.626,-1.078 2.245,-1.162 3.417,-2.188 5.396,-2.938 0.921,-0.344 1.39,-1.188 2.464,-1.073 1.082,0.12 1.625,1.26 1.625,1.26"
     id="path1094" />
  <path
     style="fill:none;stroke:#231f20;stroke-width:0.565977;stroke-linecap:butt;stroke-linejoin:miter;stroke-miterlimit:4;stroke-dasharray:none;stroke-opacity:1"
     d="m 263.47033,91.833 c 1.077,1.991 1.02,2.527 0.208,3.043 -0.537,0.338 -0.923,0.838 -1.24,1.062 -1.063,0.744 -3.156,1.558 -9.697,2.318 -1.486,0.172 -3.563,0.421 -4.402,0.593 -1.333,0.271 -0.88,-2.12 -0.365,-2.229 1.677,-0.37 2.803,-0.75 3.385,-0.958 0.407,-0.152 1.147,-0.313 2.626,-1.078 2.245,-1.162 3.417,-2.188 5.396,-2.938 0.921,-0.344 1.39,-1.188 2.464,-1.073 1.082,0.12 1.625,1.26 1.625,1.26 z"
     id="path1095" />
  <path
     style="fill:#ca0369;fill-opacity:1;fill-rule:nonzero;stroke:none"
     d="m 286.67833,80.422 c -1.541,2.735 -1.568,3.484 -1.672,4.402 -0.631,5.744 -3.443,5.328 -5.656,3.478 -2.604,-2.172 -3.584,-2.901 0.02,-8.062 1,-1.438 4.125,-7.448 4.125,-7.448 0.828,-2.302 2.864,-4.104 4.312,-4.224 1.532,-0.13 0.939,0.032 2.376,0.177 1.364,0.131 3.129,1.421 3.224,2.656 0.088,1.183 -1.276,2.136 -3.068,3.776 -1.407,1.292 -3.661,5.245 -3.661,5.245"
     id="path1096" />
  <path
     style="fill:none;stroke:#231f20;stroke-width:0.565977;stroke-linecap:butt;stroke-linejoin:miter;stroke-miterlimit:4;stroke-dasharray:none;stroke-opacity:1"
     d="m 286.67833,80.422 c -1.541,2.735 -1.568,3.484 -1.672,4.402 -0.631,5.744 -3.443,5.328 -5.656,3.478 -2.604,-2.172 -3.584,-2.901 0.02,-8.062 1,-1.438 4.125,-7.448 4.125,-7.448 0.828,-2.302 2.864,-4.104 4.312,-4.224 1.532,-0.13 0.939,0.032 2.376,0.177 1.364,0.131 3.129,1.421 3.224,2.656 0.088,1.183 -1.276,2.136 -3.068,3.776 -1.407,1.292 -3.661,5.245 -3.661,5.245 z"
     id="path1097" />
  <path
     style="fill:#ffffff;fill-opacity:1;fill-rule:nonzero;stroke:none"
     d="m 291.14033,62.386 c 0.084,-0.229 -0.858,-0.886 -0.588,-1.338 0.266,-0.453 1.022,-0.235 2.672,-1.349 l 0.016,-0.011 c 1.176,-0.859 2.542,-1.12 3.667,-0.573 1.869,0.906 2.375,3.703 1.14,6.245 -1.235,2.536 -3.749,3.86 -5.62,2.948 -1.787,-0.87 -2.328,-3.47 -1.287,-5.922"
     id="path1098" />
  <path
     style="fill:none;stroke:#231f20;stroke-width:0.565977;stroke-linecap:butt;stroke-linejoin:miter;stroke-miterlimit:4;stroke-dasharray:none;stroke-opacity:1"
     d="m 291.14033,62.386 c 0.084,-0.229 -0.858,-0.886 -0.588,-1.338 0.266,-0.453 1.022,-0.235 2.672,-1.349 l 0.016,-0.011 c 1.176,-0.859 2.542,-1.12 3.667,-0.573 1.869,0.906 2.375,3.703 1.14,6.245 -1.235,2.536 -3.749,3.86 -5.62,2.948 -1.787,-0.87 -2.328,-3.47 -1.287,-5.922 z"
     id="path1099" />
  <path
     style="fill:#231f20;fill-opacity:1;fill-rule:nonzero;stroke:none"
     d="m 261.62133,93.48 c -2.208,-3.35 1.844,-3.834 2.244,-4.094 4.166,-2.781 4.542,-2.87 7.865,-4.761 4.801,-2.735 8.511,-3.869 10.921,-1.536 1.631,1.583 1.891,3.197 1.386,4.411 -0.563,1.349 -2.995,3.396 -5.744,2.526 l -1.662,0.416 c -1.078,0.428 -1.62,0.631 -2.136,0.887 -0.906,0.443 -1.896,0.848 -3.697,1.615 -3.204,1.342 -7.027,1.718 -7.027,1.718 -1.156,0.452 -2.15,-1.182 -2.15,-1.182"
     id="path1100" />
  <path
     style="fill:none;stroke:#231f20;stroke-width:0.565977;stroke-linecap:butt;stroke-linejoin:miter;stroke-miterlimit:4;stroke-dasharray:none;stroke-opacity:1"
     d="m 261.62133,93.48 c -2.208,-3.35 1.844,-3.834 2.244,-4.094 4.166,-2.781 4.542,-2.87 7.865,-4.761 4.801,-2.735 8.511,-3.869 10.921,-1.536 1.631,1.583 1.891,3.197 1.386,4.411 -0.563,1.349 -2.995,3.396 -5.744,2.526 l -1.662,0.416 c -1.078,0.428 -1.62,0.631 -2.136,0.887 -0.906,0.443 -1.896,0.848 -3.697,1.615 -3.204,1.342 -7.027,1.718 -7.027,1.718 -1.156,0.452 -2.15,-1.182 -2.15,-1.182 z"
     id="path1101" />
  <path
     style="fill:#ca0369;fill-opacity:1;fill-rule:nonzero;stroke:none"
     d="m 282.65133,83.089 c -1.062,-1.027 -2.385,-1.365 -3.932,-1.203 -1.03,-0.125 -1.656,-0.172 -2.208,0.411 -0.052,0.047 -0.114,0.099 -0.177,0.145 -0.552,0.194 -1.12,0.418 -1.719,0.688 l 3.678,6.896 c 2.749,0.87 5.181,-1.177 5.744,-2.526 0.5,-1.214 0.245,-2.828 -1.386,-4.411"
     id="path1102" />
  <path
     style="fill:none;stroke:#231f20;stroke-width:0.565977;stroke-linecap:butt;stroke-linejoin:miter;stroke-miterlimit:4;stroke-dasharray:none;stroke-opacity:1"
     d="m 282.65133,83.089 c -1.062,-1.027 -2.385,-1.365 -3.932,-1.203 -1.03,-0.125 -1.656,-0.172 -2.208,0.411 -0.052,0.047 -0.114,0.099 -0.177,0.145 -0.552,0.194 -1.12,0.418 -1.719,0.688 l 3.678,6.896 c 2.749,0.87 5.181,-1.177 5.744,-2.526 0.5,-1.214 0.245,-2.828 -1.386,-4.411 z"
     id="path1103" />
  <path
     style="fill:#231f20;fill-opacity:1;fill-rule:nonzero;stroke:none"
     d="m 300.07933,53.641 c -0.589,0.266 -1.407,2.031 -2.589,3.12 -0.802,0.735 -1.891,3.255 -2.74,3.927 -0.782,0.615 -1.078,0.975 -0.526,1.984 0.323,0.6 1.339,1.542 1.802,1.318 1.068,-0.521 1.693,-1.234 2.214,-2.171 0.588,-1.063 1.927,-4.084 2.119,-4.667 0.491,-1.448 1.105,-1.849 1.267,-2.219 0.312,-0.698 0.12,-0.985 -0.287,-1.286 -0.771,-0.563 -1.26,-0.006 -1.26,-0.006"
     id="path1104" />
  <path
     style="fill:none;stroke:#231f20;stroke-width:0.565977;stroke-linecap:butt;stroke-linejoin:miter;stroke-miterlimit:4;stroke-dasharray:none;stroke-opacity:1"
     d="m 300.07933,53.641 c -0.589,0.266 -1.407,2.031 -2.589,3.12 -0.802,0.735 -1.891,3.255 -2.74,3.927 -0.782,0.615 -1.078,0.975 -0.526,1.984 0.323,0.6 1.339,1.542 1.802,1.318 1.068,-0.521 1.693,-1.234 2.214,-2.171 0.588,-1.063 1.927,-4.084 2.119,-4.667 0.491,-1.448 1.105,-1.849 1.267,-2.219 0.312,-0.698 0.12,-0.985 -0.287,-1.286 -0.771,-0.563 -1.26,-0.006 -1.26,-0.006 z"
     id="path1105" />
  <path
     style="fill:#231f20;fill-opacity:1;fill-rule:nonzero;stroke:none"
     d="m 295.14033,61.235 c -1.156,-0.578 -1.728,1.375 -1.957,1.865 -0.229,0.494 -1.037,1.822 -1.803,2.776 -0.765,0.957 -1.312,2.478 -2.76,4.29 -0.765,0.959 -0.906,2.376 0.531,3.418 1.412,1.036 2.532,0.63 3.281,-0.667 0.751,-1.297 0.907,-2.828 1.574,-4.188 0.661,-1.359 1.464,-2.676 2.14,-3.687 0.77,-1.146 0.729,-2 0.469,-2.401 -0.651,-1 -1.475,-1.406 -1.475,-1.406"
     id="path1106" />
  <path
     style="fill:none;stroke:#231f20;stroke-width:0.565977;stroke-linecap:butt;stroke-linejoin:miter;stroke-miterlimit:4;stroke-dasharray:none;stroke-opacity:1"
     d="m 295.14033,61.235 c -1.156,-0.578 -1.728,1.375 -1.957,1.865 -0.229,0.494 -1.037,1.822 -1.803,2.776 -0.765,0.957 -1.312,2.478 -2.76,4.29 -0.765,0.959 -0.906,2.376 0.531,3.418 1.412,1.036 2.532,0.63 3.281,-0.667 0.751,-1.297 0.907,-2.828 1.574,-4.188 0.661,-1.359 1.464,-2.676 2.14,-3.687 0.77,-1.146 0.729,-2 0.469,-2.401 -0.651,-1 -1.475,-1.406 -1.475,-1.406 z"
     id="path1107" />
  <path
     style="fill:#ffffff;fill-opacity:1;fill-rule:nonzero;stroke:none"
     d="m 297.21433,51.048 c 0,-2.355 1.917,-4.267 4.27,-4.267 2.355,0 4.266,1.912 4.266,4.267 0,2.353 -1.911,4.271 -4.266,4.271 -2.353,0 -4.27,-1.918 -4.27,-4.271 m -1.334,0 c 0,3.088 2.516,5.604 5.604,5.604 3.084,0 5.599,-2.516 5.599,-5.604 0,-3.089 -2.515,-5.6 -5.599,-5.6 -3.088,0 -5.604,2.511 -5.604,5.6"
     id="path1108" />
  <path
     style="fill:none;stroke:#231f20;stroke-width:0.665856;stroke-linecap:butt;stroke-linejoin:miter;stroke-miterlimit:4;stroke-dasharray:none;stroke-opacity:1"
     d="m 297.21433,51.048 c 0,-2.355 1.917,-4.267 4.27,-4.267 2.355,0 4.266,1.912 4.266,4.267 0,2.353 -1.911,4.271 -4.266,4.271 -2.353,0 -4.27,-1.918 -4.27,-4.271 z m -1.334,0 c 0,3.088 2.516,5.604 5.604,5.604 3.084,0 5.599,-2.516 5.599,-5.604 0,-3.089 -2.515,-5.6 -5.599,-5.6 -3.088,0 -5.604,2.511 -5.604,5.6 z"
     id="path1109" />
  <path
     style="fill:#ffffff;fill-opacity:1;fill-rule:nonzero;stroke:#231f20;stroke-width:0.665856;stroke-linecap:butt;stroke-linejoin:miter;stroke-miterlimit:4;stroke-dasharray:none;stroke-opacity:1"
     d="m 300.81833,46.116 h 1.328 V 16.324 h -1.328 z"
     id="path1110" />
  <path
     style="fill:#231f20;fill-opacity:1;fill-rule:nonzero;stroke:none"
     d="m 302.44833,53.891 c 0.64,0.292 0.735,2.605 0.438,2.72 -0.298,0.113 -0.246,-0.652 -0.584,-0.538 -0.338,0.115 -0.291,0.615 -0.52,0.626 -0.251,0.016 -0.208,-0.59 -0.506,-0.511 -0.125,0.027 -0.369,0.568 -0.557,0.521 -0.161,-0.042 -0.333,-0.537 -0.464,-0.573 -0.203,-0.068 -0.296,0.541 -0.473,0.505 -0.454,-0.098 0.322,-2.697 0.541,-2.802 0.323,-0.151 1.099,-0.416 2.125,0.052"
     id="path1111" />
  <path
     style="fill:none;stroke:#231f20;stroke-width:0.565977;stroke-linecap:round;stroke-linejoin:round;stroke-miterlimit:4;stroke-dasharray:none;stroke-opacity:1"
     d="m 302.44833,53.891 c 0.64,0.292 0.735,2.605 0.438,2.72 -0.298,0.113 -0.246,-0.652 -0.584,-0.538 -0.338,0.115 -0.291,0.615 -0.52,0.626 -0.251,0.016 -0.208,-0.59 -0.506,-0.511 -0.125,0.027 -0.369,0.568 -0.557,0.521 -0.161,-0.042 -0.333,-0.537 -0.464,-0.573 -0.203,-0.068 -0.296,0.541 -0.473,0.505 -0.454,-0.098 0.322,-2.697 0.541,-2.802 0.323,-0.151 1.099,-0.416 2.125,0.052 z"
     id="path1112" />
  <path
     style="fill:#ffffff;fill-opacity:1;fill-rule:nonzero;stroke:#231f20;stroke-width:0.665856;stroke-linecap:butt;stroke-linejoin:miter;stroke-miterlimit:4;stroke-dasharray:none;stroke-opacity:1"
     d="m 192.51133,16.464 -5.88,30.751 1.302,0.296 5.88,-30.75 z"
     id="path1113" />
  <path
     style="fill:#ffffff;fill-opacity:1;fill-rule:nonzero;stroke:none"
     d="m 182.01133,51.22 c 0.531,-2.297 2.823,-3.735 5.12,-3.209 2.291,0.526 3.728,2.822 3.203,5.12 -0.527,2.292 -2.817,3.729 -5.115,3.202 -2.292,-0.525 -3.734,-2.817 -3.208,-5.113 m -1.292,-0.303 c -0.693,3.016 1.194,6.027 4.203,6.714 3.011,0.693 6.021,-1.192 6.709,-4.203 0.692,-3.011 -1.193,-6.021 -4.204,-6.713 -3.01,-0.688 -6.02,1.197 -6.708,4.202"
     id="path1114" />
  <path
     style="fill:none;stroke:#231f20;stroke-width:0.665856;stroke-linecap:butt;stroke-linejoin:miter;stroke-miterlimit:4;stroke-dasharray:none;stroke-opacity:1"
     d="m 182.01133,51.22 c 0.531,-2.297 2.823,-3.735 5.12,-3.209 2.291,0.526 3.728,2.822 3.203,5.12 -0.527,2.292 -2.817,3.729 -5.115,3.202 -2.292,-0.525 -3.734,-2.817 -3.208,-5.113 z m -1.292,-0.303 c -0.693,3.016 1.194,6.027 4.203,6.714 3.011,0.693 6.021,-1.192 6.709,-4.203 0.692,-3.011 -1.193,-6.021 -4.204,-6.713 -3.01,-0.688 -6.02,1.197 -6.708,4.202 z"
     id="path1115" />
  <path
     style="fill:#231f20;fill-opacity:1;fill-rule:nonzero;stroke:none"
     d="m 187.79333,56.6 c 0.5,0.484 -0.162,2.703 -0.486,2.713 -0.317,0.011 -0.014,-0.693 -0.374,-0.698 -0.354,0 -0.479,0.485 -0.698,0.422 -0.245,-0.073 0,-0.625 -0.308,-0.656 -0.124,-0.01 -0.541,0.416 -0.702,0.312 -0.136,-0.093 -0.136,-0.614 -0.246,-0.697 -0.172,-0.125 -0.457,0.416 -0.614,0.323 -0.4,-0.24 1.193,-2.438 1.433,-2.464 0.353,-0.036 1.176,-0.036 1.995,0.745"
     id="path1116" />
  <path
     style="fill:none;stroke:#231f20;stroke-width:0.565977;stroke-linecap:round;stroke-linejoin:round;stroke-miterlimit:4;stroke-dasharray:none;stroke-opacity:1"
     d="m 187.79333,56.6 c 0.5,0.484 -0.162,2.703 -0.486,2.713 -0.317,0.011 -0.014,-0.693 -0.374,-0.698 -0.354,0 -0.479,0.485 -0.698,0.422 -0.245,-0.073 0,-0.625 -0.308,-0.656 -0.124,-0.01 -0.541,0.416 -0.702,0.312 -0.136,-0.093 -0.136,-0.614 -0.246,-0.697 -0.172,-0.125 -0.457,0.416 -0.614,0.323 -0.4,-0.24 1.193,-2.438 1.433,-2.464 0.353,-0.036 1.176,-0.036 1.995,0.745 z"
     id="path1117" />
  <path
     style="fill:#ca0369;fill-opacity:1;fill-rule:nonzero;stroke:none"
     d="m 234.58333,61.319 c 1.47,-3.188 2.038,-3.98 2.61,-4.97 2.876,-5.01 4.141,-4.744 6.272,-3.64 3.009,1.563 4.504,2.703 1.077,7.99 -2.599,4.01 -3.953,7.358 -3.953,7.358 -0.208,1.855 -1.979,4.985 -2.812,5.355 -1.402,0.625 -1.146,0.458 -2.594,0.374 -2.672,-0.15 -3.177,-1.233 -3.338,-2.416 -0.156,-1.172 0.057,-2.188 0.905,-4.87 0.652,-2.078 1.833,-5.181 1.833,-5.181"
     id="path1118" />
  <path
     style="fill:none;stroke:#231f20;stroke-width:0.565977;stroke-linecap:butt;stroke-linejoin:miter;stroke-miterlimit:4;stroke-dasharray:none;stroke-opacity:1"
     d="m 234.58333,61.319 c 1.47,-3.188 2.038,-3.98 2.61,-4.97 2.876,-5.01 4.141,-4.744 6.272,-3.64 3.009,1.563 4.504,2.703 1.077,7.99 -2.599,4.01 -3.953,7.358 -3.953,7.358 -0.208,1.855 -1.979,4.985 -2.812,5.355 -1.402,0.625 -1.146,0.458 -2.594,0.374 -2.672,-0.15 -3.177,-1.233 -3.338,-2.416 -0.156,-1.172 0.057,-2.188 0.905,-4.87 0.652,-2.078 1.833,-5.181 1.833,-5.181 z"
     id="path1119" />
  <path
     style="fill:#231f20;fill-opacity:1;fill-rule:nonzero;stroke:none"
     d="m 259.03133,54 c -1.322,0.272 -1.484,1.251 -0.957,2.136 0.156,0.271 0.02,0.661 0.192,0.907 0.407,0.572 2.136,0.801 2.693,-0.595 0.042,-0.093 0.563,-0.728 0.875,-1.26 0.609,-1.052 1.328,-3.443 0.031,-5.807 -0.615,-1.12 -1.167,-0.548 -1.052,-0.021 0.36,1.677 0.057,1.891 -0.02,2.36 -0.214,1.609 -1.762,2.28 -1.762,2.28"
     id="path1120" />
  <path
     style="fill:none;stroke:#231f20;stroke-width:0.332927;stroke-linecap:butt;stroke-linejoin:miter;stroke-miterlimit:4;stroke-dasharray:none;stroke-opacity:1"
     d="m 259.03133,54 c -1.322,0.272 -1.484,1.251 -0.957,2.136 0.156,0.271 0.02,0.661 0.192,0.907 0.407,0.572 2.136,0.801 2.693,-0.595 0.042,-0.093 0.563,-0.728 0.875,-1.26 0.609,-1.052 1.328,-3.443 0.031,-5.807 -0.615,-1.12 -1.167,-0.548 -1.052,-0.021 0.36,1.677 0.057,1.891 -0.02,2.36 -0.214,1.609 -1.762,2.28 -1.762,2.28 z"
     id="path1121" />
  <path
     style="fill:#231f20;fill-opacity:1;fill-rule:nonzero;stroke:none"
     d="m 252.34533,71.521 c -2.152,-0.719 -2.475,-1.145 -2.235,-2.079 0.161,-0.613 0.104,-1.238 0.183,-1.624 0.27,-1.265 1.238,-3.297 5.494,-8.313 0.968,-1.14 2.312,-2.749 2.802,-3.448 0.786,-1.104 2.094,0.954 1.797,1.382 -0.984,1.41 -1.536,2.457 -1.823,3.009 -0.188,0.385 -0.62,1.016 -1.182,2.584 -0.844,2.38 -0.995,3.932 -1.927,5.833 -0.437,0.875 -0.204,1.817 -1.073,2.464 -0.864,0.656 -2.036,0.192 -2.036,0.192"
     id="path1122" />
  <path
     style="fill:none;stroke:#231f20;stroke-width:0.565977;stroke-linecap:butt;stroke-linejoin:miter;stroke-miterlimit:4;stroke-dasharray:none;stroke-opacity:1"
     d="m 252.34533,71.521 c -2.152,-0.719 -2.475,-1.145 -2.235,-2.079 0.161,-0.613 0.104,-1.238 0.183,-1.624 0.27,-1.265 1.238,-3.297 5.494,-8.313 0.968,-1.14 2.312,-2.749 2.802,-3.448 0.786,-1.104 2.094,0.954 1.797,1.382 -0.984,1.41 -1.536,2.457 -1.823,3.009 -0.188,0.385 -0.62,1.016 -1.182,2.584 -0.844,2.38 -0.995,3.932 -1.927,5.833 -0.437,0.875 -0.204,1.817 -1.073,2.464 -0.864,0.656 -2.036,0.192 -2.036,0.192 z"
     id="path1123" />
  <path
     style="fill:#ffffff;fill-opacity:1;fill-rule:nonzero;stroke:none"
     d="m 240.07933,78.958 c 0.067,0.23 1.214,0.266 1.234,0.787 0.026,0.527 -0.724,0.76 -1.49,2.599 l -0.005,0.021 c -0.516,1.359 -1.511,2.333 -2.755,2.495 -2.062,0.265 -4.021,-1.792 -4.385,-4.594 -0.355,-2.808 1.015,-5.286 3.077,-5.557 1.975,-0.251 3.86,1.624 4.324,4.249"
     id="path1124" />
  <path
     style="fill:none;stroke:#231f20;stroke-width:0.565977;stroke-linecap:butt;stroke-linejoin:miter;stroke-miterlimit:4;stroke-dasharray:none;stroke-opacity:1"
     d="m 240.07933,78.958 c 0.067,0.23 1.214,0.266 1.234,0.787 0.026,0.527 -0.724,0.76 -1.49,2.599 l -0.005,0.021 c -0.516,1.359 -1.511,2.333 -2.755,2.495 -2.062,0.265 -4.021,-1.792 -4.385,-4.594 -0.355,-2.808 1.015,-5.286 3.077,-5.557 1.975,-0.251 3.86,1.624 4.324,4.249 z"
     id="path1125" />
  <path
     style="fill:#231f20;fill-opacity:1;fill-rule:nonzero;stroke:none"
     d="m 254.12133,71.641 c -2.959,2.708 -4.074,-1.219 -4.396,-1.573 -3.402,-3.682 -3.547,-4.031 -5.938,-7.015 -3.453,-4.318 -5.156,-7.808 -3.229,-10.548 1.307,-1.858 2.864,-2.369 4.14,-2.062 1.423,0.344 3.824,2.422 3.391,5.277 l 0.677,1.577 c 0.589,1 0.875,1.5 1.203,1.975 0.573,0.823 1.146,1.733 2.177,3.39 1.833,2.948 2.803,6.671 2.803,6.671 0.63,1.068 -0.828,2.308 -0.828,2.308"
     id="path1126" />
  <path
     style="fill:none;stroke:#231f20;stroke-width:0.565977;stroke-linecap:butt;stroke-linejoin:miter;stroke-miterlimit:4;stroke-dasharray:none;stroke-opacity:1"
     d="m 254.12133,71.641 c -2.959,2.708 -4.074,-1.219 -4.396,-1.573 -3.402,-3.682 -3.547,-4.031 -5.938,-7.015 -3.453,-4.318 -5.156,-7.808 -3.229,-10.548 1.307,-1.858 2.864,-2.369 4.14,-2.062 1.423,0.344 3.824,2.422 3.391,5.277 l 0.677,1.577 c 0.589,1 0.875,1.5 1.203,1.975 0.573,0.823 1.146,1.733 2.177,3.39 1.833,2.948 2.803,6.671 2.803,6.671 0.63,1.068 -0.828,2.308 -0.828,2.308 z"
     id="path1127" />
  <path
     style="fill:#231f20;fill-opacity:1;fill-rule:nonzero;stroke:none"
     d="m 242.25533,61.729 c -1.009,-0.806 -1.973,0.991 -2.296,1.423 -0.328,0.432 -1.396,1.568 -2.333,2.344 -0.953,0.781 -1.797,2.15 -3.595,3.629 -0.942,0.781 -1.369,2.136 -0.181,3.453 1.172,1.308 2.348,1.136 3.348,0.027 1,-1.115 1.469,-2.584 2.401,-3.776 0.927,-1.188 1.984,-2.319 2.855,-3.167 0.995,-0.964 1.125,-1.808 0.953,-2.25 -0.428,-1.115 -1.152,-1.683 -1.152,-1.683"
     id="path1128" />
  <path
     style="fill:none;stroke:#231f20;stroke-width:0.565977;stroke-linecap:butt;stroke-linejoin:miter;stroke-miterlimit:4;stroke-dasharray:none;stroke-opacity:1"
     d="m 242.25533,61.729 c -1.009,-0.806 -1.973,0.991 -2.296,1.423 -0.328,0.432 -1.396,1.568 -2.333,2.344 -0.953,0.781 -1.797,2.15 -3.595,3.629 -0.942,0.781 -1.369,2.136 -0.181,3.453 1.172,1.308 2.348,1.136 3.348,0.027 1,-1.115 1.469,-2.584 2.401,-3.776 0.927,-1.188 1.984,-2.319 2.855,-3.167 0.995,-0.964 1.125,-1.808 0.953,-2.25 -0.428,-1.115 -1.152,-1.683 -1.152,-1.683 z"
     id="path1129" />
  <path
     style="fill:#ca0369;fill-opacity:1;fill-rule:nonzero;stroke:none"
     d="m 244.53733,49.881 c -1.287,-0.286 -2.828,0.239 -4.12,2.11 -1.49,2.186 -0.714,4.812 1.406,7.91 l 6.172,-4.781 c 0.402,-2.859 -2.03,-4.916 -3.458,-5.239"
     id="path1130" />
  <path
     style="fill:none;stroke:#231f20;stroke-width:0.565977;stroke-linecap:butt;stroke-linejoin:miter;stroke-miterlimit:4;stroke-dasharray:none;stroke-opacity:1"
     d="m 244.53733,49.881 c -1.287,-0.286 -2.828,0.239 -4.12,2.11 -1.49,2.186 -0.714,4.812 1.406,7.91 l 6.172,-4.781 c 0.402,-2.859 -2.03,-4.916 -3.458,-5.239 z"
     id="path1131" />
  <path
     style="fill:#231f20;fill-opacity:1;fill-rule:nonzero;stroke:none"
     d="m 247.99033,54.849 c -0.625,0.188 -1.677,1.823 -3,2.74 -0.891,0.615 -2.307,2.968 -3.244,3.516 -0.855,0.506 -1.204,0.812 -0.792,1.891 0.239,0.645 1.115,1.713 1.604,1.557 1.131,-0.371 1.844,-0.991 2.484,-1.849 0.729,-0.975 2.48,-3.787 2.745,-4.339 0.672,-1.365 1.344,-1.677 1.558,-2.026 0.401,-0.646 0.249,-0.958 -0.11,-1.307 -0.693,-0.667 -1.245,-0.183 -1.245,-0.183"
     id="path1132" />
  <path
     style="fill:none;stroke:#231f20;stroke-width:0.565977;stroke-linecap:butt;stroke-linejoin:miter;stroke-miterlimit:4;stroke-dasharray:none;stroke-opacity:1"
     d="m 247.99033,54.849 c -0.625,0.188 -1.677,1.823 -3,2.74 -0.891,0.615 -2.307,2.968 -3.244,3.516 -0.855,0.506 -1.204,0.812 -0.792,1.891 0.239,0.645 1.115,1.713 1.604,1.557 1.131,-0.371 1.844,-0.991 2.484,-1.849 0.729,-0.975 2.48,-3.787 2.745,-4.339 0.672,-1.365 1.344,-1.677 1.558,-2.026 0.401,-0.646 0.249,-0.958 -0.11,-1.307 -0.693,-0.667 -1.245,-0.183 -1.245,-0.183 z"
     id="path1133" />
  <path
     style="fill:#ffffff;fill-opacity:1;fill-rule:nonzero;stroke:#231f20;stroke-width:0.665856;stroke-linecap:butt;stroke-linejoin:miter;stroke-miterlimit:4;stroke-dasharray:none;stroke-opacity:1"
     d="m 247.87533,16.324 -0.134,30.224 1.328,0.129 0.129,-30.224 z"
     id="path1134" />
  <path
     style="fill:#ffffff;fill-opacity:1;fill-rule:nonzero;stroke:none"
     d="m 244.19833,50.959 c 0.235,-2.339 2.324,-4.058 4.667,-3.834 2.344,0.23 4.062,2.323 3.833,4.667 -0.224,2.339 -2.317,4.063 -4.661,3.833 -2.344,-0.229 -4.063,-2.322 -3.839,-4.666 m -1.317,-0.13 c -0.302,3.072 1.953,5.823 5.032,6.119 3.066,0.303 5.812,-1.952 6.113,-5.025 0.297,-3.079 -1.952,-5.818 -5.031,-6.12 -3.073,-0.303 -5.817,1.953 -6.114,5.026"
     id="path1135" />
  <path
     style="fill:none;stroke:#231f20;stroke-width:0.665856;stroke-linecap:butt;stroke-linejoin:miter;stroke-miterlimit:4;stroke-dasharray:none;stroke-opacity:1"
     d="m 244.19833,50.959 c 0.235,-2.339 2.324,-4.058 4.667,-3.834 2.344,0.23 4.062,2.323 3.833,4.667 -0.224,2.339 -2.317,4.063 -4.661,3.833 -2.344,-0.229 -4.063,-2.322 -3.839,-4.666 z m -1.317,-0.13 c -0.302,3.072 1.953,5.823 5.032,6.119 3.066,0.303 5.812,-1.952 6.113,-5.025 0.297,-3.079 -1.952,-5.818 -5.031,-6.12 -3.073,-0.303 -5.817,1.953 -6.114,5.026 z"
     id="path1136" />
  <path
     style="fill:#231f20;fill-opacity:1;fill-rule:nonzero;stroke:none"
     d="m 249.41733,55.152 c 0.589,0.369 0.396,2.677 0.089,2.755 -0.313,0.073 -0.161,-0.678 -0.516,-0.604 -0.344,0.073 -0.364,0.568 -0.593,0.552 -0.251,-0.016 -0.131,-0.61 -0.438,-0.574 -0.125,0.016 -0.442,0.516 -0.62,0.448 -0.156,-0.062 -0.26,-0.572 -0.385,-0.634 -0.193,-0.084 -0.365,0.505 -0.537,0.448 -0.438,-0.156 0.666,-2.636 0.896,-2.71 0.338,-0.109 1.141,-0.276 2.104,0.319"
     id="path1137" />
  <path
     style="fill:none;stroke:#231f20;stroke-width:0.565977;stroke-linecap:round;stroke-linejoin:round;stroke-miterlimit:4;stroke-dasharray:none;stroke-opacity:1"
     d="m 249.41733,55.152 c 0.589,0.369 0.396,2.677 0.089,2.755 -0.313,0.073 -0.161,-0.678 -0.516,-0.604 -0.344,0.073 -0.364,0.568 -0.593,0.552 -0.251,-0.016 -0.131,-0.61 -0.438,-0.574 -0.125,0.016 -0.442,0.516 -0.62,0.448 -0.156,-0.062 -0.26,-0.572 -0.385,-0.634 -0.193,-0.084 -0.365,0.505 -0.537,0.448 -0.438,-0.156 0.666,-2.636 0.896,-2.71 0.338,-0.109 1.141,-0.276 2.104,0.319 z"
     id="path1138" />
</svg>
