<?xml version="1.0" encoding="UTF-8" standalone="no"?>
<!-- Created with Inkscape (http://www.inkscape.org/) -->

<svg
   version="1.1"
   id="svg1"
   width="360.46802"
   height="112.60782"
   viewBox="0 0 360.468 112.60782"
   sodipodi:docname="cell.svg"
   xmlns:inkscape="http://www.inkscape.org/namespaces/inkscape"
   xmlns:sodipodi="http://sodipodi.sourceforge.net/DTD/sodipodi-0.dtd"
   xmlns="http://www.w3.org/2000/svg"
   xmlns:svg="http://www.w3.org/2000/svg">
  <sodipodi:namedview
     id="namedview1"
     pagecolor="#ffffff"
     bordercolor="#000000"
     borderopacity="0.25"
     inkscape:showpageshadow="2"
     inkscape:pageopacity="0.0"
     inkscape:pagecheckerboard="0"
     inkscape:deskcolor="#d1d1d1">
    <inkscape:page
       x="0"
       y="0"
       inkscape:label="1"
       id="page1"
       width="360.46799"
       height="112.60782"
       margin="0"
       bleed="0" />
  </sodipodi:namedview>
  <defs
     id="defs1" />
  <path
     style="fill:#ffffff;fill-opacity:1;fill-rule:nonzero;stroke:none"
     d="M 0,9.437 H 18.875 V 0 H 0 Z"
     id="path618" />
  <path
     style="fill:#ffffff;fill-opacity:1;fill-rule:nonzero;stroke:none"
     d="m 343.541,9.437 h 16.927 V 0 h -16.927 z"
     id="path619" />
  <path
     style="fill:#231f20;fill-opacity:1;fill-rule:nonzero;stroke:none"
     d="m 329.489,10.15 c 1.073,0.828 0.781,1.776 -0.088,2.339 -0.261,0.172 -0.308,0.577 -0.579,0.729 -0.614,0.334 -2.27,-0.234 -2.145,-1.729 0.005,-0.109 -0.177,-0.907 -0.219,-1.527 -0.089,-1.208 0.334,-3.672 2.547,-5.213 1.047,-0.729 1.287,0.027 0.948,0.453 -1.057,1.344 -0.885,1.667 -1.041,2.12 -0.511,1.536 0.577,2.828 0.577,2.828"
     id="path620" />
  <path
     style="fill:none;stroke:#231f20;stroke-width:0.332927;stroke-linecap:butt;stroke-linejoin:miter;stroke-miterlimit:4;stroke-dasharray:none;stroke-opacity:1"
     d="m 329.489,10.15 c 1.073,0.828 0.781,1.776 -0.088,2.339 -0.261,0.172 -0.308,0.577 -0.579,0.729 -0.614,0.334 -2.27,-0.234 -2.145,-1.729 0.005,-0.109 -0.177,-0.907 -0.219,-1.527 -0.089,-1.208 0.334,-3.672 2.547,-5.213 1.047,-0.729 1.287,0.027 0.948,0.453 -1.057,1.344 -0.885,1.667 -1.041,2.12 -0.511,1.536 0.577,2.828 0.577,2.828 z"
     id="path621" />
  <path
     style="fill:#231f20;fill-opacity:1;fill-rule:nonzero;stroke:none"
     d="m 327.708,28.817 c 2.245,0.306 2.724,0.068 2.917,-0.87 0.129,-0.625 0.463,-1.161 0.563,-1.537 0.328,-1.254 0.353,-3.5 -1.235,-9.89 -0.355,-1.448 -0.849,-3.49 -0.984,-4.334 -0.209,-1.344 -2.292,-0.082 -2.215,0.443 0.246,1.699 0.282,2.885 0.292,3.505 0,0.432 0.11,1.188 -0.082,2.839 -0.303,2.505 -0.855,3.969 -0.86,6.084 -0.006,0.978 -0.631,1.718 -0.146,2.681 0.495,0.969 1.75,1.079 1.75,1.079"
     id="path622" />
  <path
     style="fill:none;stroke:#231f20;stroke-width:0.565977;stroke-linecap:butt;stroke-linejoin:miter;stroke-miterlimit:4;stroke-dasharray:none;stroke-opacity:1"
     d="m 327.708,28.817 c 2.245,0.306 2.724,0.068 2.917,-0.87 0.129,-0.625 0.463,-1.161 0.563,-1.537 0.328,-1.254 0.353,-3.5 -1.235,-9.89 -0.355,-1.448 -0.849,-3.49 -0.984,-4.334 -0.209,-1.344 -2.292,-0.082 -2.215,0.443 0.246,1.699 0.282,2.885 0.292,3.505 0,0.432 0.11,1.188 -0.082,2.839 -0.303,2.505 -0.855,3.969 -0.86,6.084 -0.006,0.978 -0.631,1.718 -0.146,2.681 0.495,0.969 1.75,1.079 1.75,1.079 z"
     id="path623" />
  <path
     style="fill:#ca0369;fill-opacity:1;fill-rule:nonzero;stroke:none"
     d="m 330.63,54.645 c -0.046,-3.136 0.287,-3.812 0.635,-4.667 2.188,-5.349 -0.479,-6.323 -3.307,-5.755 -3.328,0.662 -4.532,0.834 -3.838,7.088 0.192,1.74 0.062,8.511 0.062,8.511 -0.37,2.421 0.558,4.973 1.771,5.776 1.287,0.844 0.839,0.416 2.167,0.979 1.27,0.537 3.437,0.25 4.109,-0.791 0.645,-0.996 -0.104,-2.491 -0.891,-4.781 -0.62,-1.808 -0.708,-6.36 -0.708,-6.36"
     id="path624" />
  <path
     style="fill:none;stroke:#231f20;stroke-width:0.565977;stroke-linecap:butt;stroke-linejoin:miter;stroke-miterlimit:4;stroke-dasharray:none;stroke-opacity:1"
     d="m 330.63,54.645 c -0.046,-3.136 0.287,-3.812 0.635,-4.667 2.188,-5.349 -0.479,-6.323 -3.307,-5.755 -3.328,0.662 -4.532,0.834 -3.838,7.088 0.192,1.74 0.062,8.511 0.062,8.511 -0.37,2.421 0.558,4.973 1.771,5.776 1.287,0.844 0.839,0.416 2.167,0.979 1.27,0.537 3.437,0.25 4.109,-0.791 0.645,-0.996 -0.104,-2.491 -0.891,-4.781 -0.62,-1.808 -0.708,-6.36 -0.708,-6.36 z"
     id="path625" />
  <path
     style="fill:#ffffff;fill-opacity:1;fill-rule:nonzero;stroke:none"
     d="m 325.926,71.29 c -0.036,0.24 -1.177,0.365 -1.161,0.891 0.021,0.521 0.792,0.693 1.704,2.464 l 0.009,0.016 c 0.626,1.317 1.699,2.197 2.948,2.254 2.074,0.095 3.86,-2.114 3.99,-4.932 0.125,-2.828 -1.452,-5.188 -3.526,-5.281 -1.984,-0.088 -3.708,1.937 -3.964,4.588"
     id="path626" />
  <path
     style="fill:none;stroke:#231f20;stroke-width:0.565977;stroke-linecap:butt;stroke-linejoin:miter;stroke-miterlimit:4;stroke-dasharray:none;stroke-opacity:1"
     d="m 325.926,71.29 c -0.036,0.24 -1.177,0.365 -1.161,0.891 0.021,0.521 0.792,0.693 1.704,2.464 l 0.009,0.016 c 0.626,1.317 1.699,2.197 2.948,2.254 2.074,0.095 3.86,-2.114 3.99,-4.932 0.125,-2.828 -1.452,-5.188 -3.526,-5.281 -1.984,-0.088 -3.708,1.937 -3.964,4.588 z"
     id="path627" />
  <path
     style="fill:#231f20;fill-opacity:1;fill-rule:nonzero;stroke:none"
     d="m 328.604,26.509 c -3.911,-0.889 -2.943,3.073 -3.047,3.537 -1.141,4.88 -1.099,5.26 -1.703,9.036 -0.876,5.459 -0.636,9.328 2.391,10.765 2.052,0.975 3.656,0.647 4.619,-0.249 1.073,-1 2.13,-3.995 0.349,-6.265 l -0.192,-1.704 c 0.02,-1.162 0.02,-1.739 0.077,-2.312 0.099,-0.995 0.136,-2.068 0.214,-4.027 0.141,-3.468 -0.848,-7.181 -0.848,-7.181 0.014,-1.246 -1.86,-1.6 -1.86,-1.6"
     id="path628" />
  <path
     style="fill:none;stroke:#231f20;stroke-width:0.565977;stroke-linecap:butt;stroke-linejoin:miter;stroke-miterlimit:4;stroke-dasharray:none;stroke-opacity:1"
     d="m 328.604,26.509 c -3.911,-0.889 -2.943,3.073 -3.047,3.537 -1.141,4.88 -1.099,5.26 -1.703,9.036 -0.876,5.459 -0.636,9.328 2.391,10.765 2.052,0.975 3.656,0.647 4.619,-0.249 1.073,-1 2.13,-3.995 0.349,-6.265 l -0.192,-1.704 c 0.02,-1.162 0.02,-1.739 0.077,-2.312 0.099,-0.995 0.136,-2.068 0.214,-4.027 0.141,-3.468 -0.848,-7.181 -0.848,-7.181 0.014,-1.246 -1.86,-1.6 -1.86,-1.6 z"
     id="path629" />
  <path
     style="fill:#ca0369;fill-opacity:1;fill-rule:nonzero;stroke:none"
     d="m 331.213,43.333 -7.744,-1.027 c -0.048,0.656 -0.053,1.265 -0.043,1.849 -0.02,0.078 -0.046,0.151 -0.077,0.219 -0.349,0.724 -0.084,1.297 0.391,2.213 0.396,1.506 1.172,2.626 2.505,3.26 2.057,0.975 3.656,0.647 4.619,-0.254 1.073,-0.995 2.13,-3.99 0.349,-6.26"
     id="path630" />
  <path
     style="fill:none;stroke:#231f20;stroke-width:0.565977;stroke-linecap:butt;stroke-linejoin:miter;stroke-miterlimit:4;stroke-dasharray:none;stroke-opacity:1"
     d="m 331.213,43.333 -7.744,-1.027 c -0.048,0.656 -0.053,1.265 -0.043,1.849 -0.02,0.078 -0.046,0.151 -0.077,0.219 -0.349,0.724 -0.084,1.297 0.391,2.213 0.396,1.506 1.172,2.626 2.505,3.26 2.057,0.975 3.656,0.647 4.619,-0.254 1.073,-0.995 2.13,-3.99 0.349,-6.26 z"
     id="path631" />
  <path
     style="fill:#231f20;fill-opacity:1;fill-rule:nonzero;stroke:none"
     d="m 328.193,84.869 c -0.376,-0.526 -0.193,-2.459 -0.663,-4 -0.317,-1.036 0.022,-3.76 -0.374,-4.771 -0.359,-0.927 -0.443,-1.385 0.552,-1.979 0.578,-0.354 1.932,-0.652 2.218,-0.224 0.662,0.99 0.834,1.916 0.808,2.99 -0.026,1.213 -0.401,4.505 -0.521,5.104 -0.317,1.489 0.011,2.15 -0.031,2.557 -0.084,0.749 -0.396,0.907 -0.901,0.959 -0.953,0.093 -1.088,-0.636 -1.088,-0.636"
     id="path632" />
  <path
     style="fill:none;stroke:#231f20;stroke-width:0.565977;stroke-linecap:butt;stroke-linejoin:miter;stroke-miterlimit:4;stroke-dasharray:none;stroke-opacity:1"
     d="m 328.193,84.869 c -0.376,-0.526 -0.193,-2.459 -0.663,-4 -0.317,-1.036 0.022,-3.76 -0.374,-4.771 -0.359,-0.927 -0.443,-1.385 0.552,-1.979 0.578,-0.354 1.932,-0.652 2.218,-0.224 0.662,0.99 0.834,1.916 0.808,2.99 -0.026,1.213 -0.401,4.505 -0.521,5.104 -0.317,1.489 0.011,2.15 -0.031,2.557 -0.084,0.749 -0.396,0.907 -0.901,0.959 -0.953,0.093 -1.088,-0.636 -1.088,-0.636 z"
     id="path633" />
  <path
     style="fill:#231f20;fill-opacity:1;fill-rule:nonzero;stroke:none"
     d="m 327.77,75.822 c -1.292,-0.084 -0.797,-2.057 -0.744,-2.593 0.052,-0.543 0.02,-2.1 -0.152,-3.314 -0.181,-1.208 0.115,-2.796 -0.218,-5.098 -0.178,-1.208 0.422,-2.5 2.188,-2.678 1.744,-0.177 2.505,0.735 2.494,2.235 -0.01,1.495 -0.65,2.896 -0.76,4.407 -0.12,1.509 -0.094,3.052 -0.016,4.265 0.083,1.38 -0.38,2.093 -0.808,2.307 -1.066,0.537 -1.984,0.469 -1.984,0.469"
     id="path634" />
  <path
     style="fill:none;stroke:#231f20;stroke-width:0.565977;stroke-linecap:butt;stroke-linejoin:miter;stroke-miterlimit:4;stroke-dasharray:none;stroke-opacity:1"
     d="m 327.77,75.822 c -1.292,-0.084 -0.797,-2.057 -0.744,-2.593 0.052,-0.543 0.02,-2.1 -0.152,-3.314 -0.181,-1.208 0.115,-2.796 -0.218,-5.098 -0.178,-1.208 0.422,-2.5 2.188,-2.678 1.744,-0.177 2.505,0.735 2.494,2.235 -0.01,1.495 -0.65,2.896 -0.76,4.407 -0.12,1.509 -0.094,3.052 -0.016,4.265 0.083,1.38 -0.38,2.093 -0.808,2.307 -1.066,0.537 -1.984,0.469 -1.984,0.469 z"
     id="path635" />
  <path
     style="fill:#ffffff;fill-opacity:1;fill-rule:nonzero;stroke:none"
     d="m 327.958,76.285 h 1.334 V 7.306 h -1.334 z"
     id="path636" />
  <path
     style="fill:none;stroke:#231f20;stroke-width:0.665856;stroke-linecap:butt;stroke-linejoin:miter;stroke-miterlimit:4;stroke-dasharray:none;stroke-opacity:1"
     d="m 327.958,76.279 h 1.334 V 7.307 h -1.334 z"
     id="path637" />
  <path
     style="fill:#ffffff;fill-opacity:1;fill-rule:nonzero;stroke:none"
     d="m 324.765,81.218 c 0,-2.355 1.917,-4.271 4.271,-4.271 2.354,0 4.266,1.916 4.266,4.271 0,2.353 -1.912,4.271 -4.266,4.271 -2.354,0 -4.271,-1.918 -4.271,-4.271 m -1.333,0 c 0,3.088 2.516,5.599 5.604,5.599 3.084,0 5.6,-2.511 5.6,-5.599 0,-3.089 -2.516,-5.599 -5.6,-5.599 -3.088,0 -5.604,2.51 -5.604,5.599"
     id="path638" />
  <path
     style="fill:none;stroke:#231f20;stroke-width:0.665856;stroke-linecap:butt;stroke-linejoin:miter;stroke-miterlimit:4;stroke-dasharray:none;stroke-opacity:1"
     d="m 324.765,81.218 c 0,-2.355 1.917,-4.271 4.271,-4.271 2.354,0 4.266,1.916 4.266,4.271 0,2.353 -1.912,4.271 -4.266,4.271 -2.354,0 -4.271,-1.918 -4.271,-4.271 z m -1.333,0 c 0,3.088 2.516,5.599 5.604,5.599 3.084,0 5.6,-2.511 5.6,-5.599 0,-3.089 -2.516,-5.599 -5.6,-5.599 -3.088,0 -5.604,2.51 -5.604,5.599 z"
     id="path639" />
  <path
     style="fill:#231f20;fill-opacity:1;fill-rule:nonzero;stroke:none"
     d="m 330.078,84.869 c 0.646,0.265 0.828,2.578 0.536,2.702 -0.292,0.126 -0.27,-0.64 -0.604,-0.509 -0.333,0.124 -0.27,0.619 -0.5,0.64 -0.25,0.027 -0.229,-0.583 -0.521,-0.495 -0.125,0.036 -0.349,0.583 -0.541,0.547 -0.162,-0.036 -0.35,-0.525 -0.479,-0.563 -0.204,-0.057 -0.276,0.552 -0.453,0.527 -0.459,-0.084 0.224,-2.713 0.437,-2.819 0.312,-0.166 1.083,-0.457 2.125,-0.03"
     id="path640" />
  <path
     style="fill:none;stroke:#231f20;stroke-width:0.565977;stroke-linecap:round;stroke-linejoin:round;stroke-miterlimit:4;stroke-dasharray:none;stroke-opacity:1"
     d="m 330.078,84.869 c 0.646,0.265 0.828,2.578 0.536,2.702 -0.292,0.126 -0.27,-0.64 -0.604,-0.509 -0.333,0.124 -0.27,0.619 -0.5,0.64 -0.25,0.027 -0.229,-0.583 -0.521,-0.495 -0.125,0.036 -0.349,0.583 -0.541,0.547 -0.162,-0.036 -0.35,-0.525 -0.479,-0.563 -0.204,-0.057 -0.276,0.552 -0.453,0.527 -0.459,-0.084 0.224,-2.713 0.437,-2.819 0.312,-0.166 1.083,-0.457 2.125,-0.03 z"
     id="path641" />
  <path
     style="fill:#231f20;fill-opacity:1;fill-rule:nonzero;stroke:none"
     d="m 28.214,109.057 c 0.401,-1.293 1.396,-1.35 2.224,-0.73 0.25,0.182 0.65,0.088 0.88,0.287 0.526,0.462 0.573,2.208 -0.87,2.615 -0.109,0.03 -0.792,0.478 -1.354,0.733 -1.104,0.5 -3.563,0.964 -5.776,-0.577 -1.047,-0.73 -0.422,-1.21 0.094,-1.042 1.624,0.526 1.875,0.25 2.348,0.233 1.626,-0.052 2.454,-1.519 2.454,-1.519"
     id="path642" />
  <path
     style="fill:none;stroke:#231f20;stroke-width:0.332927;stroke-linecap:butt;stroke-linejoin:miter;stroke-miterlimit:4;stroke-dasharray:none;stroke-opacity:1"
     d="m 28.214,109.057 c 0.401,-1.293 1.396,-1.35 2.224,-0.73 0.25,0.182 0.65,0.088 0.88,0.287 0.526,0.462 0.573,2.208 -0.87,2.615 -0.109,0.03 -0.792,0.478 -1.354,0.733 -1.104,0.5 -3.563,0.964 -5.776,-0.577 -1.047,-0.73 -0.422,-1.21 0.094,-1.042 1.624,0.526 1.875,0.25 2.348,0.233 1.626,-0.052 2.454,-1.519 2.454,-1.519 z"
     id="path643" />
  <path
     style="fill:#231f20;fill-opacity:1;fill-rule:nonzero;stroke:none"
     d="m 46.334,104.238 c -0.484,-2.208 -0.88,-2.578 -1.828,-2.432 -0.631,0.093 -1.251,-0.036 -1.636,0.005 -1.291,0.131 -3.406,0.886 -8.843,4.594 -1.24,0.838 -2.98,2.01 -3.724,2.428 -1.183,0.666 0.719,2.181 1.187,1.926 1.505,-0.823 2.609,-1.271 3.188,-1.495 0.401,-0.15 1.068,-0.516 2.686,-0.906 2.454,-0.588 4.016,-0.577 6.006,-1.307 0.917,-0.339 1.828,-0.011 2.562,-0.803 0.74,-0.791 0.402,-2.01 0.402,-2.01"
     id="path644" />
  <path
     style="fill:none;stroke:#231f20;stroke-width:0.565977;stroke-linecap:butt;stroke-linejoin:miter;stroke-miterlimit:4;stroke-dasharray:none;stroke-opacity:1"
     d="m 46.334,104.238 c -0.484,-2.208 -0.88,-2.578 -1.828,-2.432 -0.631,0.093 -1.251,-0.036 -1.636,0.005 -1.291,0.131 -3.406,0.886 -8.843,4.594 -1.24,0.838 -2.98,2.01 -3.724,2.428 -1.183,0.666 0.719,2.181 1.187,1.926 1.505,-0.823 2.609,-1.271 3.188,-1.495 0.401,-0.15 1.068,-0.516 2.686,-0.906 2.454,-0.588 4.016,-0.577 6.006,-1.307 0.917,-0.339 1.828,-0.011 2.562,-0.803 0.74,-0.791 0.402,-2.01 0.402,-2.01 z"
     id="path645" />
  <path
     style="fill:#ca0369;fill-opacity:1;fill-rule:nonzero;stroke:none"
     d="m 69.536,92.519 c -2.921,1.136 -3.672,1.058 -4.593,1.032 -5.776,-0.198 -5.76,2.646 -4.249,5.099 1.776,2.891 2.353,3.959 7.984,1.131 1.562,-0.782 7.953,-3.016 7.953,-3.016 2.4,-0.49 4.473,-2.246 4.801,-3.667 0.344,-1.495 0.104,-0.927 0.167,-2.375 0.063,-1.37 -0.963,-3.302 -2.172,-3.573 -1.156,-0.255 -2.296,0.964 -4.172,2.5 -1.479,1.208 -5.719,2.869 -5.719,2.869"
     id="path646" />
  <path
     style="fill:none;stroke:#231f20;stroke-width:0.565977;stroke-linecap:butt;stroke-linejoin:miter;stroke-miterlimit:4;stroke-dasharray:none;stroke-opacity:1"
     d="m 69.536,92.519 c -2.921,1.136 -3.672,1.058 -4.593,1.032 -5.776,-0.198 -5.76,2.646 -4.249,5.099 1.776,2.891 2.353,3.959 7.984,1.131 1.562,-0.782 7.953,-3.016 7.953,-3.016 2.4,-0.49 4.473,-2.246 4.801,-3.667 0.344,-1.495 0.104,-0.927 0.167,-2.375 0.063,-1.37 -0.963,-3.302 -2.172,-3.573 -1.156,-0.255 -2.296,0.964 -4.172,2.5 -1.479,1.208 -5.719,2.869 -5.719,2.869 z"
     id="path647" />
  <path
     style="fill:#ffffff;fill-opacity:1;fill-rule:nonzero;stroke:none"
     d="m 86.782,91.145 c 0.234,-0.042 0.749,0.978 1.234,0.781 0.484,-0.203 0.38,-0.979 1.719,-2.459 l 0.014,-0.01 c 1.016,-1.042 1.475,-2.354 1.09,-3.547 -0.631,-1.979 -3.323,-2.885 -6.016,-2.025 -2.687,0.864 -4.359,3.166 -3.724,5.14 0.609,1.89 3.104,2.808 5.683,2.12"
     id="path648" />
  <path
     style="fill:none;stroke:#231f20;stroke-width:0.565977;stroke-linecap:butt;stroke-linejoin:miter;stroke-miterlimit:4;stroke-dasharray:none;stroke-opacity:1"
     d="m 86.782,91.145 c 0.234,-0.042 0.749,0.978 1.234,0.781 0.484,-0.203 0.38,-0.979 1.719,-2.459 l 0.014,-0.01 c 1.016,-1.042 1.475,-2.354 1.09,-3.547 -0.631,-1.979 -3.323,-2.885 -6.016,-2.025 -2.687,0.864 -4.359,3.166 -3.724,5.14 0.609,1.89 3.104,2.808 5.683,2.12 z"
     id="path649" />
  <path
     style="fill:#231f20;fill-opacity:1;fill-rule:nonzero;stroke:none"
     d="m 43.86,104.202 c 0.526,3.973 3.906,1.688 4.375,1.631 4.973,-0.631 5.317,-0.803 9.068,-1.547 5.421,-1.079 8.963,-2.646 9.26,-5.985 0.197,-2.266 -0.667,-3.651 -1.844,-4.244 -1.303,-0.658 -4.479,-0.61 -5.989,1.848 l -1.532,0.772 c -1.099,0.385 -1.635,0.582 -2.192,0.728 -0.97,0.261 -1.99,0.6 -3.85,1.204 -3.301,1.072 -6.442,3.29 -6.442,3.29 -1.172,0.418 -0.854,2.303 -0.854,2.303"
     id="path650" />
  <path
     style="fill:none;stroke:#231f20;stroke-width:0.565977;stroke-linecap:butt;stroke-linejoin:miter;stroke-miterlimit:4;stroke-dasharray:none;stroke-opacity:1"
     d="m 43.86,104.202 c 0.526,3.973 3.906,1.688 4.375,1.631 4.973,-0.631 5.317,-0.803 9.068,-1.547 5.421,-1.079 8.963,-2.646 9.26,-5.985 0.197,-2.266 -0.667,-3.651 -1.844,-4.244 -1.303,-0.658 -4.479,-0.61 -5.989,1.848 l -1.532,0.772 c -1.099,0.385 -1.635,0.582 -2.192,0.728 -0.97,0.261 -1.99,0.6 -3.85,1.204 -3.301,1.072 -6.442,3.29 -6.442,3.29 -1.172,0.418 -0.854,2.303 -0.854,2.303 z"
     id="path651" />
  <path
     style="fill:#ca0369;fill-opacity:1;fill-rule:nonzero;stroke:none"
     d="m 64.719,94.057 c -1.303,-0.658 -4.479,-0.61 -5.989,1.848 l 1.729,7.619 c 0.629,-0.181 1.203,-0.384 1.744,-0.603 0.084,-0.006 0.161,-0.006 0.235,0 0.802,0.073 1.245,-0.37 1.948,-1.14 1.27,-0.896 2.046,-2.011 2.177,-3.48 0.197,-2.266 -0.667,-3.651 -1.844,-4.244"
     id="path652" />
  <path
     style="fill:none;stroke:#231f20;stroke-width:0.565977;stroke-linecap:butt;stroke-linejoin:miter;stroke-miterlimit:4;stroke-dasharray:none;stroke-opacity:1"
     d="m 64.719,94.057 c -1.303,-0.658 -4.479,-0.61 -5.989,1.848 l 1.729,7.619 c 0.629,-0.181 1.203,-0.384 1.744,-0.603 0.084,-0.006 0.161,-0.006 0.235,0 0.802,0.073 1.245,-0.37 1.948,-1.14 1.27,-0.896 2.046,-2.011 2.177,-3.48 0.197,-2.266 -0.667,-3.651 -1.844,-4.244 z"
     id="path653" />
  <path
     style="fill:#231f20;fill-opacity:1;fill-rule:nonzero;stroke:none"
     d="m 98.729,84.306 c -0.365,0.532 -2.245,1.032 -3.526,2.011 -0.859,0.656 -3.531,1.286 -4.339,2.01 -0.744,0.656 -1.151,0.891 -2.052,0.167 -0.525,-0.423 -1.281,-1.589 -0.984,-2 0.703,-0.964 1.516,-1.448 2.527,-1.803 1.15,-0.39 4.358,-1.186 4.968,-1.281 1.505,-0.219 2.01,-0.76 2.406,-0.853 0.735,-0.183 0.99,0.057 1.214,0.505 0.421,0.859 -0.214,1.244 -0.214,1.244"
     id="path654" />
  <path
     style="fill:none;stroke:#231f20;stroke-width:0.565977;stroke-linecap:butt;stroke-linejoin:miter;stroke-miterlimit:4;stroke-dasharray:none;stroke-opacity:1"
     d="m 98.729,84.306 c -0.365,0.532 -2.245,1.032 -3.526,2.011 -0.859,0.656 -3.531,1.286 -4.339,2.01 -0.744,0.656 -1.151,0.891 -2.052,0.167 -0.525,-0.423 -1.281,-1.589 -0.984,-2 0.703,-0.964 1.516,-1.448 2.527,-1.803 1.15,-0.39 4.358,-1.186 4.968,-1.281 1.505,-0.219 2.01,-0.76 2.406,-0.853 0.735,-0.183 0.99,0.057 1.214,0.505 0.421,0.859 -0.214,1.244 -0.214,1.244 z"
     id="path655" />
  <path
     style="fill:#231f20;fill-opacity:1;fill-rule:nonzero;stroke:none"
     d="m 90.385,87.847 c 0.375,1.235 -1.645,1.459 -2.172,1.595 -0.525,0.14 -1.973,0.713 -3.046,1.296 -1.079,0.584 -2.667,0.86 -4.713,1.974 -1.068,0.583 -2.484,0.474 -3.266,-1.119 -0.772,-1.579 -0.182,-2.604 1.224,-3.115 1.406,-0.511 2.943,-0.401 4.4,-0.817 1.454,-0.418 2.891,-0.98 4,-1.47 1.267,-0.562 2.1,-0.369 2.448,-0.046 0.876,0.817 1.125,1.702 1.125,1.702"
     id="path656" />
  <path
     style="fill:none;stroke:#231f20;stroke-width:0.565977;stroke-linecap:butt;stroke-linejoin:miter;stroke-miterlimit:4;stroke-dasharray:none;stroke-opacity:1"
     d="m 90.385,87.847 c 0.375,1.235 -1.645,1.459 -2.172,1.595 -0.525,0.14 -1.973,0.713 -3.046,1.296 -1.079,0.584 -2.667,0.86 -4.713,1.974 -1.068,0.583 -2.484,0.474 -3.266,-1.119 -0.772,-1.579 -0.182,-2.604 1.224,-3.115 1.406,-0.511 2.943,-0.401 4.4,-0.817 1.454,-0.418 2.891,-0.98 4,-1.47 1.267,-0.562 2.1,-0.369 2.448,-0.046 0.876,0.817 1.125,1.702 1.125,1.702 z"
     id="path657" />
  <path
     style="fill:#ffffff;fill-opacity:1;fill-rule:nonzero;stroke:#231f20;stroke-width:0.665856;stroke-linecap:butt;stroke-linejoin:miter;stroke-miterlimit:4;stroke-dasharray:none;stroke-opacity:1"
     d="M 80.271,7.385 95.88,74.577 97.177,74.275 81.568,7.082 Z"
     id="path658" />
  <path
     style="fill:#ffffff;fill-opacity:1;fill-rule:nonzero;stroke:none"
     d="m 93.885,80.109 c -0.53,-2.298 0.902,-4.595 3.194,-5.126 2.29,-0.53 4.593,0.896 5.124,3.192 0.532,2.292 -0.9,4.59 -3.192,5.12 -2.292,0.538 -4.59,-0.896 -5.126,-3.186 m -1.297,0.296 c 0.699,3.01 3.715,4.89 6.724,4.188 3.011,-0.698 4.885,-3.714 4.188,-6.719 -0.697,-3.011 -3.713,-4.891 -6.724,-4.188 -3.005,0.699 -4.885,3.713 -4.188,6.719"
     id="path659" />
  <path
     style="fill:none;stroke:#231f20;stroke-width:0.665856;stroke-linecap:butt;stroke-linejoin:miter;stroke-miterlimit:4;stroke-dasharray:none;stroke-opacity:1"
     d="m 93.885,80.109 c -0.53,-2.298 0.902,-4.595 3.194,-5.126 2.29,-0.53 4.593,0.896 5.124,3.192 0.532,2.292 -0.9,4.59 -3.192,5.12 -2.292,0.538 -4.59,-0.896 -5.126,-3.186 z m -1.297,0.296 c 0.699,3.01 3.715,4.89 6.724,4.188 3.011,-0.698 4.885,-3.714 4.188,-6.719 -0.697,-3.011 -3.713,-4.891 -6.724,-4.188 -3.005,0.699 -4.885,3.713 -4.188,6.719 z"
     id="path660" />
  <path
     style="fill:#231f20;fill-opacity:1;fill-rule:nonzero;stroke:none"
     d="m 99.891,82.462 c 0.688,0.109 1.385,2.319 1.13,2.511 -0.256,0.188 -0.406,-0.563 -0.704,-0.364 -0.296,0.197 -0.12,0.666 -0.344,0.738 -0.233,0.084 -0.353,-0.514 -0.613,-0.364 -0.115,0.063 -0.215,0.651 -0.407,0.656 -0.166,0 -0.458,-0.432 -0.593,-0.437 -0.215,-0.011 -0.147,0.599 -0.329,0.615 -0.463,0.021 -0.391,-2.694 -0.208,-2.85 0.27,-0.229 0.953,-0.692 2.068,-0.505"
     id="path661" />
  <path
     style="fill:none;stroke:#231f20;stroke-width:0.565977;stroke-linecap:round;stroke-linejoin:round;stroke-miterlimit:4;stroke-dasharray:none;stroke-opacity:1"
     d="m 99.891,82.462 c 0.688,0.109 1.385,2.319 1.13,2.511 -0.256,0.188 -0.406,-0.563 -0.704,-0.364 -0.296,0.197 -0.12,0.666 -0.344,0.738 -0.233,0.084 -0.353,-0.514 -0.613,-0.364 -0.115,0.063 -0.215,0.651 -0.407,0.656 -0.166,0 -0.458,-0.432 -0.593,-0.437 -0.215,-0.011 -0.147,0.599 -0.329,0.615 -0.463,0.021 -0.391,-2.694 -0.208,-2.85 0.27,-0.229 0.953,-0.692 2.068,-0.505 z"
     id="path662" />
  <path
     style="fill:none;stroke:#231f20;stroke-width:0.399514;stroke-linecap:butt;stroke-linejoin:miter;stroke-miterlimit:4;stroke-dasharray:none;stroke-opacity:1"
     d="m 78.11,102.562 c 23.463,12.29 47.417,-12.329 50.354,-18.969"
     id="path663" />
  <path
     style="fill:#231f20;fill-opacity:1;fill-rule:nonzero;stroke:none"
     d="m 128.948,82.489 c -0.036,0.609 0.011,1.396 0.183,1.948 l -0.73,-0.699 -1.01,-0.067 c 0.526,-0.245 1.136,-0.745 1.557,-1.182"
     id="path664" />
  <path
     style="fill:#ffffff;fill-opacity:1;fill-rule:nonzero;stroke:#231f20;stroke-width:0.665856;stroke-linecap:butt;stroke-linejoin:miter;stroke-miterlimit:4;stroke-dasharray:none;stroke-opacity:1"
     d="m 198.792,7.473 -0.063,66.354 1.334,-0.005 0.062,-66.349 z"
     id="path665" />
  <path
     style="fill:#ffffff;fill-opacity:1;fill-rule:nonzero;stroke:none"
     d="m 195.136,78.77 c 0,-2.355 1.905,-4.271 4.26,-4.276 2.353,-0.005 4.276,1.905 4.281,4.26 0,2.355 -1.912,4.276 -4.265,4.276 -2.355,0.005 -4.272,-1.907 -4.276,-4.26 m -1.333,0 c 0.004,3.088 2.525,5.593 5.613,5.593 3.089,-0.01 5.595,-2.525 5.589,-5.614 -0.005,-3.083 -2.521,-5.594 -5.609,-5.588 -3.089,0.005 -5.599,2.52 -5.593,5.609"
     id="path666" />
  <path
     style="fill:none;stroke:#231f20;stroke-width:0.665856;stroke-linecap:butt;stroke-linejoin:miter;stroke-miterlimit:4;stroke-dasharray:none;stroke-opacity:1"
     d="m 195.136,78.77 c 0,-2.355 1.905,-4.271 4.26,-4.276 2.353,-0.005 4.276,1.905 4.281,4.26 0,2.355 -1.912,4.276 -4.265,4.276 -2.355,0.005 -4.272,-1.907 -4.276,-4.26 z m -1.333,0 c 0.004,3.088 2.525,5.593 5.613,5.593 3.089,-0.01 5.595,-2.525 5.589,-5.614 -0.005,-3.083 -2.521,-5.594 -5.609,-5.588 -3.089,0.005 -5.599,2.52 -5.593,5.609 z"
     id="path667" />
  <path
     style="fill:#231f20;fill-opacity:1;fill-rule:nonzero;stroke:none"
     d="m 241.672,54.577 c 0.505,1.256 -0.224,1.928 -1.256,1.98 -0.307,0.014 -0.556,0.348 -0.859,0.338 -0.708,-0.026 -1.849,-1.344 -0.995,-2.573 0.058,-0.089 0.307,-0.869 0.578,-1.427 0.537,-1.089 2.141,-3.005 4.829,-3.224 1.276,-0.105 1.099,0.667 0.599,0.864 -1.595,0.631 -1.615,0.995 -1.975,1.312 -1.219,1.074 -0.921,2.73 -0.921,2.73"
     id="path668" />
  <path
     style="fill:none;stroke:#231f20;stroke-width:0.332927;stroke-linecap:butt;stroke-linejoin:miter;stroke-miterlimit:4;stroke-dasharray:none;stroke-opacity:1"
     d="m 241.672,54.577 c 0.505,1.256 -0.224,1.928 -1.256,1.98 -0.307,0.014 -0.556,0.348 -0.859,0.338 -0.708,-0.026 -1.849,-1.344 -0.995,-2.573 0.058,-0.089 0.307,-0.869 0.578,-1.427 0.537,-1.089 2.141,-3.005 4.829,-3.224 1.276,-0.105 1.099,0.667 0.599,0.864 -1.595,0.631 -1.615,0.995 -1.975,1.312 -1.219,1.074 -0.921,2.73 -0.921,2.73 z"
     id="path669" />
  <path
     style="fill:#231f20;fill-opacity:1;fill-rule:nonzero;stroke:none"
     d="m 230.734,69.811 c 1.782,1.402 2.318,1.432 2.963,0.719 0.423,-0.473 0.985,-0.765 1.256,-1.041 0.916,-0.927 2.068,-2.855 3.911,-9.167 0.422,-1.437 1.021,-3.443 1.333,-4.245 0.496,-1.266 -1.943,-1.224 -2.14,-0.73 -0.636,1.59 -1.203,2.636 -1.516,3.178 -0.213,0.37 -0.495,1.078 -1.5,2.406 -1.52,2.022 -2.729,3 -3.801,4.823 -0.495,0.849 -1.412,1.167 -1.475,2.251 -0.063,1.082 0.969,1.806 0.969,1.806"
     id="path670" />
  <path
     style="fill:none;stroke:#231f20;stroke-width:0.565977;stroke-linecap:butt;stroke-linejoin:miter;stroke-miterlimit:4;stroke-dasharray:none;stroke-opacity:1"
     d="m 230.734,69.811 c 1.782,1.402 2.318,1.432 2.963,0.719 0.423,-0.473 0.985,-0.765 1.256,-1.041 0.916,-0.927 2.068,-2.855 3.911,-9.167 0.422,-1.437 1.021,-3.443 1.333,-4.245 0.496,-1.266 -1.943,-1.224 -2.14,-0.73 -0.636,1.59 -1.203,2.636 -1.516,3.178 -0.213,0.37 -0.495,1.078 -1.5,2.406 -1.52,2.022 -2.729,3 -3.801,4.823 -0.495,0.849 -1.412,1.167 -1.475,2.251 -0.063,1.082 0.969,1.806 0.969,1.806 z"
     id="path671" />
  <path
     style="fill:#ca0369;fill-opacity:1;fill-rule:nonzero;stroke:none"
     d="m 218.693,93.442 c 2.047,-2.371 2.744,-2.652 3.572,-3.063 5.193,-2.537 3.849,-5.041 1.36,-6.494 -2.923,-1.724 -3.937,-2.396 -7.584,2.734 -1.01,1.432 -5.609,6.4 -5.609,6.4 -1.891,1.558 -2.901,4.084 -2.525,5.49 0.4,1.48 0.348,0.865 0.968,2.172 0.589,1.24 2.396,2.469 3.594,2.141 1.14,-0.317 1.578,-1.927 2.51,-4.162 0.745,-1.765 3.714,-5.218 3.714,-5.218"
     id="path672" />
  <path
     style="fill:none;stroke:#231f20;stroke-width:0.565977;stroke-linecap:butt;stroke-linejoin:miter;stroke-miterlimit:4;stroke-dasharray:none;stroke-opacity:1"
     d="m 218.693,93.442 c 2.047,-2.371 2.744,-2.652 3.572,-3.063 5.193,-2.537 3.849,-5.041 1.36,-6.494 -2.923,-1.724 -3.937,-2.396 -7.584,2.734 -1.01,1.432 -5.609,6.4 -5.609,6.4 -1.891,1.558 -2.901,4.084 -2.525,5.49 0.4,1.48 0.348,0.865 0.968,2.172 0.589,1.24 2.396,2.469 3.594,2.141 1.14,-0.317 1.578,-1.927 2.51,-4.162 0.745,-1.765 3.714,-5.218 3.714,-5.218 z"
     id="path673" />
  <path
     style="fill:#ffffff;fill-opacity:1;fill-rule:nonzero;stroke:none"
     d="m 203.891,105.519 c -0.12,0.214 -1.235,-0.083 -1.407,0.417 -0.167,0.495 0.485,0.933 0.709,2.911 v 0.016 c 0.114,1.454 0.796,2.667 1.943,3.167 1.905,0.833 4.364,-0.594 5.495,-3.178 1.129,-2.588 0.505,-5.358 -1.396,-6.192 -1.823,-0.802 -4.156,0.474 -5.344,2.859"
     id="path674" />
  <path
     style="fill:none;stroke:#231f20;stroke-width:0.565977;stroke-linecap:butt;stroke-linejoin:miter;stroke-miterlimit:4;stroke-dasharray:none;stroke-opacity:1"
     d="m 203.891,105.519 c -0.12,0.214 -1.235,-0.083 -1.407,0.417 -0.167,0.495 0.485,0.933 0.709,2.911 v 0.016 c 0.114,1.454 0.796,2.667 1.943,3.167 1.905,0.833 4.364,-0.594 5.495,-3.178 1.129,-2.588 0.505,-5.358 -1.396,-6.192 -1.823,-0.802 -4.156,0.474 -5.344,2.859 z"
     id="path675" />
  <path
     style="fill:#231f20;fill-opacity:1;fill-rule:nonzero;stroke:none"
     d="m 232.672,68.27 c -2.932,-2.74 -4.094,1.177 -4.418,1.525 -3.437,3.642 -3.593,3.991 -6.014,6.948 -3.5,4.276 -5.245,7.746 -3.355,10.506 1.287,1.874 2.839,2.401 4.125,2.109 1.422,-0.323 3.85,-2.375 3.448,-5.239 l 0.692,-1.562 c 0.604,-1 0.891,-1.495 1.224,-1.959 0.59,-0.817 1.167,-1.724 2.219,-3.375 1.865,-2.928 2.88,-6.636 2.88,-6.636 0.647,-1.062 -0.801,-2.317 -0.801,-2.317"
     id="path676" />
  <path
     style="fill:none;stroke:#231f20;stroke-width:0.565977;stroke-linecap:butt;stroke-linejoin:miter;stroke-miterlimit:4;stroke-dasharray:none;stroke-opacity:1"
     d="m 232.672,68.27 c -2.932,-2.74 -4.094,1.177 -4.418,1.525 -3.437,3.642 -3.593,3.991 -6.014,6.948 -3.5,4.276 -5.245,7.746 -3.355,10.506 1.287,1.874 2.839,2.401 4.125,2.109 1.422,-0.323 3.85,-2.375 3.448,-5.239 l 0.692,-1.562 c 0.604,-1 0.891,-1.495 1.224,-1.959 0.59,-0.817 1.167,-1.724 2.219,-3.375 1.865,-2.928 2.88,-6.636 2.88,-6.636 0.647,-1.062 -0.801,-2.317 -0.801,-2.317 z"
     id="path677" />
  <path
     style="fill:#ca0369;fill-opacity:1;fill-rule:nonzero;stroke:none"
     d="m 226.15,83.478 -6.89,-3.688 c -0.276,0.6 -0.495,1.163 -0.687,1.719 -0.052,0.062 -0.1,0.125 -0.152,0.172 -0.582,0.557 -0.536,1.182 -0.416,2.214 -0.161,1.547 0.172,2.87 1.198,3.932 1.583,1.635 3.198,1.891 4.417,1.391 1.349,-0.557 3.401,-2.985 2.53,-5.74"
     id="path678" />
  <path
     style="fill:none;stroke:#231f20;stroke-width:0.565977;stroke-linecap:butt;stroke-linejoin:miter;stroke-miterlimit:4;stroke-dasharray:none;stroke-opacity:1"
     d="m 226.15,83.478 -6.89,-3.688 c -0.276,0.6 -0.495,1.163 -0.687,1.719 -0.052,0.062 -0.1,0.125 -0.152,0.172 -0.582,0.557 -0.536,1.182 -0.416,2.214 -0.161,1.547 0.172,2.87 1.198,3.932 1.583,1.635 3.198,1.891 4.417,1.391 1.349,-0.557 3.401,-2.985 2.53,-5.74 z"
     id="path679" />
  <path
     style="fill:#231f20;fill-opacity:1;fill-rule:nonzero;stroke:none"
     d="m 200.183,83.609 c 0.614,0.202 1.62,1.869 2.91,2.828 0.871,0.645 2.219,3.041 3.142,3.614 0.833,0.531 1.172,0.854 0.729,1.922 -0.261,0.63 -1.172,1.672 -1.652,1.5 -1.119,-0.402 -1.817,-1.047 -2.427,-1.922 -0.702,-0.994 -2.354,-3.865 -2.614,-4.422 -0.631,-1.386 -1.287,-1.719 -1.49,-2.072 -0.38,-0.658 -0.224,-0.97 0.151,-1.303 0.708,-0.645 1.251,-0.145 1.251,-0.145"
     id="path680" />
  <path
     style="fill:none;stroke:#231f20;stroke-width:0.565977;stroke-linecap:butt;stroke-linejoin:miter;stroke-miterlimit:4;stroke-dasharray:none;stroke-opacity:1"
     d="m 200.183,83.609 c 0.614,0.202 1.62,1.869 2.91,2.828 0.871,0.645 2.219,3.041 3.142,3.614 0.833,0.531 1.172,0.854 0.729,1.922 -0.261,0.63 -1.172,1.672 -1.652,1.5 -1.119,-0.402 -1.817,-1.047 -2.427,-1.922 -0.702,-0.994 -2.354,-3.865 -2.614,-4.422 -0.631,-1.386 -1.287,-1.719 -1.49,-2.072 -0.38,-0.658 -0.224,-0.97 0.151,-1.303 0.708,-0.645 1.251,-0.145 1.251,-0.145 z"
     id="path681" />
  <path
     style="fill:#231f20;fill-opacity:1;fill-rule:nonzero;stroke:none"
     d="m 205.901,90.639 c 1.088,-0.702 1.859,1.183 2.135,1.647 0.281,0.468 1.229,1.703 2.089,2.572 0.864,0.865 1.568,2.317 3.203,3.975 0.865,0.869 1.145,2.26 -0.167,3.453 -1.301,1.181 -2.453,0.895 -3.333,-0.319 -0.885,-1.208 -1.203,-2.713 -2.005,-3.994 -0.802,-1.282 -1.74,-2.511 -2.52,-3.443 -0.891,-1.057 -0.939,-1.911 -0.719,-2.333 0.536,-1.068 1.317,-1.558 1.317,-1.558"
     id="path682" />
  <path
     style="fill:none;stroke:#231f20;stroke-width:0.565977;stroke-linecap:butt;stroke-linejoin:miter;stroke-miterlimit:4;stroke-dasharray:none;stroke-opacity:1"
     d="m 205.901,90.639 c 1.088,-0.702 1.859,1.183 2.135,1.647 0.281,0.468 1.229,1.703 2.089,2.572 0.864,0.865 1.568,2.317 3.203,3.975 0.865,0.869 1.145,2.26 -0.167,3.453 -1.301,1.181 -2.453,0.895 -3.333,-0.319 -0.885,-1.208 -1.203,-2.713 -2.005,-3.994 -0.802,-1.282 -1.74,-2.511 -2.52,-3.443 -0.891,-1.057 -0.939,-1.911 -0.719,-2.333 0.536,-1.068 1.317,-1.558 1.317,-1.558 z"
     id="path683" />
  <path
     style="fill:#231f20;fill-opacity:1;fill-rule:nonzero;stroke:none"
     d="m 197.713,83.895 c -0.484,-0.5 0.251,-2.693 0.568,-2.698 0.318,0 -0.005,0.698 0.355,0.708 0.353,0.016 0.495,-0.468 0.713,-0.396 0.235,0.078 -0.016,0.625 0.282,0.662 0.129,0.015 0.557,-0.401 0.713,-0.292 0.135,0.099 0.115,0.62 0.224,0.708 0.167,0.131 0.473,-0.401 0.625,-0.306 0.391,0.254 -1.272,2.405 -1.51,2.421 -0.35,0.027 -1.178,-0.005 -1.97,-0.807"
     id="path684" />
  <path
     style="fill:none;stroke:#231f20;stroke-width:0.565977;stroke-linecap:round;stroke-linejoin:round;stroke-miterlimit:4;stroke-dasharray:none;stroke-opacity:1"
     d="m 197.713,83.895 c -0.484,-0.5 0.251,-2.693 0.568,-2.698 0.318,0 -0.005,0.698 0.355,0.708 0.353,0.016 0.495,-0.468 0.713,-0.396 0.235,0.078 -0.016,0.625 0.282,0.662 0.129,0.015 0.557,-0.401 0.713,-0.292 0.135,0.099 0.115,0.62 0.224,0.708 0.167,0.131 0.473,-0.401 0.625,-0.306 0.391,0.254 -1.272,2.405 -1.51,2.421 -0.35,0.027 -1.178,-0.005 -1.97,-0.807 z"
     id="path685" />
  <path
     style="fill:#ffffff;fill-opacity:1;fill-rule:nonzero;stroke:#231f20;stroke-width:0.665856;stroke-linecap:butt;stroke-linejoin:miter;stroke-miterlimit:4;stroke-dasharray:none;stroke-opacity:1"
     d="m 269.421,7.473 -0.061,66.354 1.333,-0.005 0.061,-66.349 z"
     id="path686" />
  <path
     style="fill:#ffffff;fill-opacity:1;fill-rule:nonzero;stroke:none"
     d="m 265.765,78.77 c -0.005,-2.355 1.907,-4.271 4.261,-4.276 2.354,-0.005 4.276,1.905 4.276,4.26 0.004,2.355 -1.906,4.276 -4.261,4.276 -2.353,0.005 -4.271,-1.907 -4.276,-4.26 m -1.333,0 c 0.005,3.088 2.526,5.593 5.609,5.593 3.089,-0.01 5.599,-2.525 5.595,-5.614 -0.006,-3.083 -2.527,-5.594 -5.61,-5.588 -3.089,0.005 -5.6,2.52 -5.594,5.609"
     id="path687" />
  <path
     style="fill:none;stroke:#231f20;stroke-width:0.665856;stroke-linecap:butt;stroke-linejoin:miter;stroke-miterlimit:4;stroke-dasharray:none;stroke-opacity:1"
     d="m 265.765,78.77 c -0.005,-2.355 1.907,-4.271 4.261,-4.276 2.354,-0.005 4.276,1.905 4.276,4.26 0.004,2.355 -1.906,4.276 -4.261,4.276 -2.353,0.005 -4.271,-1.907 -4.276,-4.26 z m -1.333,0 c 0.005,3.088 2.526,5.593 5.609,5.593 3.089,-0.01 5.599,-2.525 5.595,-5.614 -0.006,-3.083 -2.527,-5.594 -5.61,-5.588 -3.089,0.005 -5.6,2.52 -5.594,5.609 z"
     id="path688" />
  <path
     style="fill:#231f20;fill-opacity:1;fill-rule:nonzero;stroke:none"
     d="m 293.505,25.005 c 1.073,0.817 0.787,1.77 -0.079,2.338 -0.26,0.171 -0.306,0.583 -0.572,0.728 -0.625,0.334 -2.276,-0.218 -2.161,-1.718 0.009,-0.104 -0.177,-0.9 -0.224,-1.52 -0.089,-1.209 0.317,-3.677 2.525,-5.224 1.042,-0.735 1.282,0.015 0.954,0.437 -1.058,1.354 -0.886,1.678 -1.031,2.13 -0.511,1.548 0.588,2.829 0.588,2.829"
     id="path689" />
  <path
     style="fill:none;stroke:#231f20;stroke-width:0.332927;stroke-linecap:butt;stroke-linejoin:miter;stroke-miterlimit:4;stroke-dasharray:none;stroke-opacity:1"
     d="m 293.505,25.005 c 1.073,0.817 0.787,1.77 -0.079,2.338 -0.26,0.171 -0.306,0.583 -0.572,0.728 -0.625,0.334 -2.276,-0.218 -2.161,-1.718 0.009,-0.104 -0.177,-0.9 -0.224,-1.52 -0.089,-1.209 0.317,-3.677 2.525,-5.224 1.042,-0.735 1.282,0.015 0.954,0.437 -1.058,1.354 -0.886,1.678 -1.031,2.13 -0.511,1.548 0.588,2.829 0.588,2.829 z"
     id="path690" />
  <path
     style="fill:#231f20;fill-opacity:1;fill-rule:nonzero;stroke:none"
     d="m 291.806,43.677 c 2.246,0.301 2.72,0.056 2.912,-0.887 0.131,-0.624 0.464,-1.156 0.563,-1.536 0.312,-1.255 0.328,-3.5 -1.281,-9.88 -0.37,-1.453 -0.864,-3.484 -1.006,-4.333 -0.218,-1.339 -2.297,-0.074 -2.213,0.458 0.255,1.692 0.297,2.88 0.307,3.506 0,0.421 0.12,1.176 -0.078,2.833 -0.286,2.509 -0.833,3.968 -0.828,6.088 0.006,0.979 -0.625,1.719 -0.125,2.683 0.489,0.968 1.749,1.068 1.749,1.068"
     id="path691" />
  <path
     style="fill:none;stroke:#231f20;stroke-width:0.565977;stroke-linecap:butt;stroke-linejoin:miter;stroke-miterlimit:4;stroke-dasharray:none;stroke-opacity:1"
     d="m 291.806,43.677 c 2.246,0.301 2.72,0.056 2.912,-0.887 0.131,-0.624 0.464,-1.156 0.563,-1.536 0.312,-1.255 0.328,-3.5 -1.281,-9.88 -0.37,-1.453 -0.864,-3.484 -1.006,-4.333 -0.218,-1.339 -2.297,-0.074 -2.213,0.458 0.255,1.692 0.297,2.88 0.307,3.506 0,0.421 0.12,1.176 -0.078,2.833 -0.286,2.509 -0.833,3.968 -0.828,6.088 0.006,0.979 -0.625,1.719 -0.125,2.683 0.489,0.968 1.749,1.068 1.749,1.068 z"
     id="path692" />
  <path
     style="fill:#ca0369;fill-opacity:1;fill-rule:nonzero;stroke:none"
     d="m 293.412,70.15 c 0.561,-3.079 1.025,-3.683 1.525,-4.453 3.193,-4.823 0.76,-6.298 -2.125,-6.287 -3.386,0 -4.604,-0.067 -5.14,6.204 -0.151,1.744 -1.594,8.364 -1.594,8.364 -0.838,2.303 -0.428,4.989 0.61,6.011 1.093,1.073 0.744,0.568 1.937,1.38 1.14,0.77 3.317,0.912 4.177,0.021 0.828,-0.855 0.391,-2.459 0.058,-4.86 -0.256,-1.896 0.552,-6.38 0.552,-6.38"
     id="path693" />
  <path
     style="fill:none;stroke:#231f20;stroke-width:0.565977;stroke-linecap:butt;stroke-linejoin:miter;stroke-miterlimit:4;stroke-dasharray:none;stroke-opacity:1"
     d="m 293.412,70.15 c 0.561,-3.079 1.025,-3.683 1.525,-4.453 3.193,-4.823 0.76,-6.298 -2.125,-6.287 -3.386,0 -4.604,-0.067 -5.14,6.204 -0.151,1.744 -1.594,8.364 -1.594,8.364 -0.838,2.303 -0.428,4.989 0.61,6.011 1.093,1.073 0.744,0.568 1.937,1.38 1.14,0.77 3.317,0.912 4.177,0.021 0.828,-0.855 0.391,-2.459 0.058,-4.86 -0.256,-1.896 0.552,-6.38 0.552,-6.38 z"
     id="path694" />
  <path
     style="fill:#ffffff;fill-opacity:1;fill-rule:nonzero;stroke:none"
     d="m 287.749,88.442 c 0.032,0.244 -1.031,0.677 -0.869,1.177 0.166,0.5 0.948,0.452 2.313,1.9 l 0.015,0.016 c 0.958,1.094 2.234,1.651 3.453,1.364 2.021,-0.484 3.131,-3.098 2.479,-5.842 -0.651,-2.751 -2.818,-4.59 -4.838,-4.11 -1.938,0.452 -3.037,2.88 -2.553,5.495"
     id="path695" />
  <path
     style="fill:none;stroke:#231f20;stroke-width:0.565977;stroke-linecap:butt;stroke-linejoin:miter;stroke-miterlimit:4;stroke-dasharray:none;stroke-opacity:1"
     d="m 287.749,88.442 c 0.032,0.244 -1.031,0.677 -0.869,1.177 0.166,0.5 0.948,0.452 2.313,1.9 l 0.015,0.016 c 0.958,1.094 2.234,1.651 3.453,1.364 2.021,-0.484 3.131,-3.098 2.479,-5.842 -0.651,-2.751 -2.818,-4.59 -4.838,-4.11 -1.938,0.452 -3.037,2.88 -2.553,5.495 z"
     id="path696" />
  <path
     style="fill:#231f20;fill-opacity:1;fill-rule:nonzero;stroke:none"
     d="m 292.688,41.363 c -3.912,-0.869 -2.923,3.09 -3.027,3.558 -1.115,4.88 -1.073,5.26 -1.661,9.041 -0.85,5.459 -0.588,9.328 2.442,10.751 2.058,0.968 3.662,0.63 4.62,-0.271 1.063,-1 2.11,-4 0.318,-6.267 l -0.198,-1.697 c 0.011,-1.167 0.011,-1.74 0.063,-2.312 0.093,-1 0.129,-2.073 0.197,-4.032 0.126,-3.468 -0.885,-7.177 -0.885,-7.177 0.016,-1.244 -1.869,-1.594 -1.869,-1.594"
     id="path697" />
  <path
     style="fill:none;stroke:#231f20;stroke-width:0.565977;stroke-linecap:butt;stroke-linejoin:miter;stroke-miterlimit:4;stroke-dasharray:none;stroke-opacity:1"
     d="m 292.688,41.363 c -3.912,-0.869 -2.923,3.09 -3.027,3.558 -1.115,4.88 -1.073,5.26 -1.661,9.041 -0.85,5.459 -0.588,9.328 2.442,10.751 2.058,0.968 3.662,0.63 4.62,-0.271 1.063,-1 2.11,-4 0.318,-6.267 l -0.198,-1.697 c 0.011,-1.167 0.011,-1.74 0.063,-2.312 0.093,-1 0.129,-2.073 0.197,-4.032 0.126,-3.468 -0.885,-7.177 -0.885,-7.177 0.016,-1.244 -1.869,-1.594 -1.869,-1.594 z"
     id="path698" />
  <path
     style="fill:#ca0369;fill-opacity:1;fill-rule:nonzero;stroke:none"
     d="m 294.786,57.781 -7.808,0.317 c 0.068,0.651 0.167,1.255 0.282,1.828 -0.015,0.079 -0.026,0.156 -0.047,0.229 -0.219,0.776 0.141,1.292 0.771,2.115 0.641,1.416 1.6,2.385 3.021,2.781 2.192,0.604 3.713,0.011 4.511,-1.041 0.88,-1.163 1.416,-4.297 -0.73,-6.229"
     id="path699" />
  <path
     style="fill:none;stroke:#231f20;stroke-width:0.565977;stroke-linecap:butt;stroke-linejoin:miter;stroke-miterlimit:4;stroke-dasharray:none;stroke-opacity:1"
     d="m 294.786,57.781 -7.808,0.317 c 0.068,0.651 0.167,1.255 0.282,1.828 -0.015,0.079 -0.026,0.156 -0.047,0.229 -0.219,0.776 0.141,1.292 0.771,2.115 0.641,1.416 1.6,2.385 3.021,2.781 2.192,0.604 3.713,0.011 4.511,-1.041 0.88,-1.163 1.416,-4.297 -0.73,-6.229 z"
     id="path700" />
  <path
     style="fill:#231f20;fill-opacity:1;fill-rule:nonzero;stroke:none"
     d="m 270.978,82.171 c 0.459,-0.453 2.402,-0.584 3.85,-1.292 0.974,-0.48 3.718,-0.584 4.645,-1.136 0.86,-0.5 1.303,-0.65 2.043,0.23 0.442,0.521 0.953,1.808 0.582,2.156 -0.874,0.813 -1.765,1.13 -2.822,1.276 -1.203,0.166 -4.511,0.324 -5.126,0.297 -1.52,-0.073 -2.12,0.36 -2.525,0.375 -0.761,0.042 -0.959,-0.244 -1.095,-0.73 -0.244,-0.926 0.448,-1.176 0.448,-1.176"
     id="path701" />
  <path
     style="fill:none;stroke:#231f20;stroke-width:0.565977;stroke-linecap:butt;stroke-linejoin:miter;stroke-miterlimit:4;stroke-dasharray:none;stroke-opacity:1"
     d="m 270.978,82.171 c 0.459,-0.453 2.402,-0.584 3.85,-1.292 0.974,-0.48 3.718,-0.584 4.645,-1.136 0.86,-0.5 1.303,-0.65 2.043,0.23 0.442,0.521 0.953,1.808 0.582,2.156 -0.874,0.813 -1.765,1.13 -2.822,1.276 -1.203,0.166 -4.511,0.324 -5.126,0.297 -1.52,-0.073 -2.12,0.36 -2.525,0.375 -0.761,0.042 -0.959,-0.244 -1.095,-0.73 -0.244,-0.926 0.448,-1.176 0.448,-1.176 z"
     id="path702" />
  <path
     style="fill:#231f20;fill-opacity:1;fill-rule:nonzero;stroke:none"
     d="m 279.849,80.306 c -0.131,-1.287 1.9,-1.109 2.437,-1.145 0.552,-0.038 2.078,-0.314 3.244,-0.683 1.167,-0.364 2.782,-0.328 5.006,-1.025 1.161,-0.366 2.532,0.014 2.99,1.728 0.452,1.698 -0.329,2.594 -1.808,2.824 -1.478,0.228 -2.964,-0.178 -4.473,-0.048 -1.505,0.125 -3.027,0.39 -4.209,0.662 -1.348,0.307 -2.13,-0.042 -2.406,-0.428 -0.704,-0.968 -0.781,-1.885 -0.781,-1.885"
     id="path703" />
  <path
     style="fill:none;stroke:#231f20;stroke-width:0.565977;stroke-linecap:butt;stroke-linejoin:miter;stroke-miterlimit:4;stroke-dasharray:none;stroke-opacity:1"
     d="m 279.849,80.306 c -0.131,-1.287 1.9,-1.109 2.437,-1.145 0.552,-0.038 2.078,-0.314 3.244,-0.683 1.167,-0.364 2.782,-0.328 5.006,-1.025 1.161,-0.366 2.532,0.014 2.99,1.728 0.452,1.698 -0.329,2.594 -1.808,2.824 -1.478,0.228 -2.964,-0.178 -4.473,-0.048 -1.505,0.125 -3.027,0.39 -4.209,0.662 -1.348,0.307 -2.13,-0.042 -2.406,-0.428 -0.704,-0.968 -0.781,-1.885 -0.781,-1.885 z"
     id="path704" />
  <path
     style="fill:#231f20;fill-opacity:1;fill-rule:nonzero;stroke:none"
     d="m 271.026,82.655 c 0.495,0.495 -0.22,2.692 -0.537,2.703 -0.317,0 -0.005,-0.697 -0.359,-0.708 -0.36,-0.011 -0.49,0.473 -0.714,0.407 -0.239,-0.079 0.01,-0.626 -0.291,-0.662 -0.125,-0.016 -0.547,0.406 -0.709,0.296 -0.135,-0.093 -0.119,-0.62 -0.223,-0.702 -0.172,-0.131 -0.475,0.406 -0.625,0.312 -0.391,-0.25 1.244,-2.416 1.484,-2.438 0.354,-0.025 1.177,-0.01 1.974,0.792"
     id="path705" />
  <path
     style="fill:none;stroke:#231f20;stroke-width:0.565977;stroke-linecap:round;stroke-linejoin:round;stroke-miterlimit:4;stroke-dasharray:none;stroke-opacity:1"
     d="m 271.026,82.655 c 0.495,0.495 -0.22,2.692 -0.537,2.703 -0.317,0 -0.005,-0.697 -0.359,-0.708 -0.36,-0.011 -0.49,0.473 -0.714,0.407 -0.239,-0.079 0.01,-0.626 -0.291,-0.662 -0.125,-0.016 -0.547,0.406 -0.709,0.296 -0.135,-0.093 -0.119,-0.62 -0.223,-0.702 -0.172,-0.131 -0.475,0.406 -0.625,0.312 -0.391,-0.25 1.244,-2.416 1.484,-2.438 0.354,-0.025 1.177,-0.01 1.974,0.792 z"
     id="path706" />
  <path
     style="fill:#ffffff;fill-opacity:1;fill-rule:nonzero;stroke:#231f20;stroke-width:0.665856;stroke-linecap:butt;stroke-linejoin:miter;stroke-miterlimit:4;stroke-dasharray:none;stroke-opacity:1"
     d="m 116.505,7.369 -7.084,30.874 1.303,0.298 7.079,-30.869 z"
     id="path707" />
  <path
     style="fill:#ffffff;fill-opacity:1;fill-rule:nonzero;stroke:none"
     d="m 104.807,42.249 c 0.526,-2.296 2.824,-3.735 5.114,-3.208 2.298,0.525 3.735,2.822 3.21,5.12 -0.527,2.292 -2.824,3.729 -5.12,3.202 -2.292,-0.525 -3.73,-2.817 -3.204,-5.114 m -1.296,-0.302 c -0.694,3.015 1.197,6.026 4.208,6.714 3.005,0.692 6.021,-1.194 6.708,-4.204 0.688,-3.01 -1.198,-6.02 -4.208,-6.708 -3.011,-0.692 -6.022,1.193 -6.708,4.198"
     id="path708" />
  <path
     style="fill:none;stroke:#231f20;stroke-width:0.665856;stroke-linecap:butt;stroke-linejoin:miter;stroke-miterlimit:4;stroke-dasharray:none;stroke-opacity:1"
     d="m 104.807,42.249 c 0.526,-2.296 2.824,-3.735 5.114,-3.208 2.298,0.525 3.735,2.822 3.21,5.12 -0.527,2.292 -2.824,3.729 -5.12,3.202 -2.292,-0.525 -3.73,-2.817 -3.204,-5.114 z m -1.296,-0.302 c -0.694,3.015 1.197,6.026 4.208,6.714 3.005,0.692 6.021,-1.194 6.708,-4.204 0.688,-3.01 -1.198,-6.02 -4.208,-6.708 -3.011,-0.692 -6.022,1.193 -6.708,4.198 z"
     id="path709" />
  <path
     style="fill:#231f20;fill-opacity:1;fill-rule:nonzero;stroke:none"
     d="m 175.307,79.082 c -0.906,1 -1.828,0.641 -2.328,-0.26 -0.151,-0.281 -0.552,-0.36 -0.676,-0.636 -0.287,-0.645 0.4,-2.244 1.88,-2.011 0.109,0.016 0.916,-0.109 1.536,-0.104 1.213,0.006 3.641,0.615 5.005,2.939 0.651,1.093 -0.12,1.28 -0.516,0.911 -1.26,-1.162 -1.599,-1.011 -2.041,-1.192 -1.495,-0.631 -2.86,0.353 -2.86,0.353"
     id="path710" />
  <path
     style="fill:none;stroke:#231f20;stroke-width:0.332927;stroke-linecap:butt;stroke-linejoin:miter;stroke-miterlimit:4;stroke-dasharray:none;stroke-opacity:1"
     d="m 175.307,79.082 c -0.906,1 -1.828,0.641 -2.328,-0.26 -0.151,-0.281 -0.552,-0.36 -0.676,-0.636 -0.287,-0.645 0.4,-2.244 1.88,-2.011 0.109,0.016 0.916,-0.109 1.536,-0.104 1.213,0.006 3.641,0.615 5.005,2.939 0.651,1.093 -0.12,1.28 -0.516,0.911 -1.26,-1.162 -1.599,-1.011 -2.041,-1.192 -1.495,-0.631 -2.86,0.353 -2.86,0.353 z"
     id="path711" />
  <path
     style="fill:#231f20;fill-opacity:1;fill-rule:nonzero;stroke:none"
     d="m 156.828,75.885 c -0.484,2.213 -0.281,2.713 0.641,2.978 0.614,0.178 1.124,0.547 1.495,0.678 1.224,0.416 3.463,0.614 9.953,-0.479 1.474,-0.251 3.542,-0.584 4.4,-0.652 1.344,-0.109 0.251,-2.281 -0.276,-2.244 -1.713,0.12 -2.901,0.067 -3.514,0.025 -0.428,-0.036 -1.194,0.016 -2.824,-0.301 -2.484,-0.491 -3.891,-1.152 -6,-1.319 -0.979,-0.077 -1.672,-0.76 -2.672,-0.342 -1.004,0.41 -1.203,1.656 -1.203,1.656"
     id="path712" />
  <path
     style="fill:none;stroke:#231f20;stroke-width:0.565977;stroke-linecap:butt;stroke-linejoin:miter;stroke-miterlimit:4;stroke-dasharray:none;stroke-opacity:1"
     d="m 156.828,75.885 c -0.484,2.213 -0.281,2.713 0.641,2.978 0.614,0.178 1.124,0.547 1.495,0.678 1.224,0.416 3.463,0.614 9.953,-0.479 1.474,-0.251 3.542,-0.584 4.4,-0.652 1.344,-0.109 0.251,-2.281 -0.276,-2.244 -1.713,0.12 -2.901,0.067 -3.514,0.025 -0.428,-0.036 -1.194,0.016 -2.824,-0.301 -2.484,-0.491 -3.891,-1.152 -6,-1.319 -0.979,-0.077 -1.672,-0.76 -2.672,-0.342 -1.004,0.41 -1.203,1.656 -1.203,1.656 z"
     id="path713" />
  <path
     style="fill:#ca0369;fill-opacity:1;fill-rule:nonzero;stroke:none"
     d="m 130.807,72.311 c 2.614,1.73 2.99,2.386 3.49,3.151 3.176,4.833 5.49,3.183 6.62,0.532 1.334,-3.115 1.875,-4.213 -3.682,-7.172 -1.542,-0.823 -7.058,-4.76 -7.058,-4.76 -1.781,-1.677 -4.412,-2.355 -5.765,-1.808 -1.417,0.588 -0.813,0.459 -2.027,1.24 -1.161,0.739 -2.15,2.687 -1.672,3.828 0.459,1.099 2.11,1.328 4.448,1.968 1.844,0.516 5.646,3.021 5.646,3.021"
     id="path714" />
  <path
     style="fill:none;stroke:#231f20;stroke-width:0.565977;stroke-linecap:butt;stroke-linejoin:miter;stroke-miterlimit:4;stroke-dasharray:none;stroke-opacity:1"
     d="m 130.807,72.311 c 2.614,1.73 2.99,2.386 3.49,3.151 3.176,4.833 5.49,3.183 6.62,0.532 1.334,-3.115 1.875,-4.213 -3.682,-7.172 -1.542,-0.823 -7.058,-4.76 -7.058,-4.76 -1.781,-1.677 -4.412,-2.355 -5.765,-1.808 -1.417,0.588 -0.813,0.459 -2.027,1.24 -1.161,0.739 -2.15,2.687 -1.672,3.828 0.459,1.099 2.11,1.328 4.448,1.968 1.844,0.516 5.646,3.021 5.646,3.021 z"
     id="path715" />
  <path
     style="fill:#ffffff;fill-opacity:1;fill-rule:nonzero;stroke:none"
     d="m 124.703,56.858 c -0.031,-0.239 1.016,-0.713 0.833,-1.197 -0.176,-0.5 -0.963,-0.428 -2.375,-1.828 l -0.016,-0.016 c -0.994,-1.058 -2.285,-1.574 -3.5,-1.24 -2,0.546 -3.014,3.204 -2.276,5.922 0.751,2.73 2.975,4.49 4.98,3.943 1.922,-0.527 2.938,-2.98 2.354,-5.584"
     id="path716" />
  <path
     style="fill:none;stroke:#231f20;stroke-width:0.565977;stroke-linecap:butt;stroke-linejoin:miter;stroke-miterlimit:4;stroke-dasharray:none;stroke-opacity:1"
     d="m 124.703,56.858 c -0.031,-0.239 1.016,-0.713 0.833,-1.197 -0.176,-0.5 -0.963,-0.428 -2.375,-1.828 l -0.016,-0.016 c -0.994,-1.058 -2.285,-1.574 -3.5,-1.24 -2,0.546 -3.014,3.204 -2.276,5.922 0.751,2.73 2.975,4.49 4.98,3.943 1.922,-0.527 2.938,-2.98 2.354,-5.584 z"
     id="path717" />
  <path
     style="fill:#231f20;fill-opacity:1;fill-rule:nonzero;stroke:none"
     d="m 159.063,76.953 c 1.188,-3.834 -2.839,-3.163 -3.298,-3.308 -4.781,-1.506 -5.161,-1.49 -8.874,-2.386 -5.38,-1.281 -9.26,-1.344 -10.918,1.568 -1.129,1.974 -0.932,3.604 -0.104,4.63 0.912,1.136 3.819,2.428 6.219,0.818 l 1.709,-0.057 c 1.162,0.109 1.73,0.151 2.302,0.249 0.989,0.167 2.057,0.298 3.994,0.522 3.448,0.406 7.23,-0.303 7.23,-0.303 1.24,0.115 1.74,-1.733 1.74,-1.733"
     id="path718" />
  <path
     style="fill:none;stroke:#231f20;stroke-width:0.565977;stroke-linecap:butt;stroke-linejoin:miter;stroke-miterlimit:4;stroke-dasharray:none;stroke-opacity:1"
     d="m 159.063,76.953 c 1.188,-3.834 -2.839,-3.163 -3.298,-3.308 -4.781,-1.506 -5.161,-1.49 -8.874,-2.386 -5.38,-1.281 -9.26,-1.344 -10.918,1.568 -1.129,1.974 -0.932,3.604 -0.104,4.63 0.912,1.136 3.819,2.428 6.219,0.818 l 1.709,-0.057 c 1.162,0.109 1.73,0.151 2.302,0.249 0.989,0.167 2.057,0.298 3.994,0.522 3.448,0.406 7.23,-0.303 7.23,-0.303 1.24,0.115 1.74,-1.733 1.74,-1.733 z"
     id="path719" />
  <path
     style="fill:#231f20;fill-opacity:1;fill-rule:nonzero;stroke:none"
     d="m 113.036,47.713 c 0.557,0.328 1.177,2.172 2.24,3.38 0.713,0.817 1.527,3.437 2.303,4.197 0.702,0.699 0.968,1.079 0.312,2.027 -0.396,0.562 -1.506,1.39 -1.938,1.12 -1.005,-0.631 -1.546,-1.407 -1.964,-2.396 -0.473,-1.12 -1.484,-4.271 -1.614,-4.875 -0.323,-1.485 -0.896,-1.948 -1.02,-2.333 -0.235,-0.73 -0.011,-0.995 0.426,-1.251 0.828,-0.473 1.255,0.131 1.255,0.131"
     id="path720" />
  <path
     style="fill:none;stroke:#231f20;stroke-width:0.565977;stroke-linecap:butt;stroke-linejoin:miter;stroke-miterlimit:4;stroke-dasharray:none;stroke-opacity:1"
     d="m 113.036,47.713 c 0.557,0.328 1.177,2.172 2.24,3.38 0.713,0.817 1.527,3.437 2.303,4.197 0.702,0.699 0.968,1.079 0.312,2.027 -0.396,0.562 -1.506,1.39 -1.938,1.12 -1.005,-0.631 -1.546,-1.407 -1.964,-2.396 -0.473,-1.12 -1.484,-4.271 -1.614,-4.875 -0.323,-1.485 -0.896,-1.948 -1.02,-2.333 -0.235,-0.73 -0.011,-0.995 0.426,-1.251 0.828,-0.473 1.255,0.131 1.255,0.131 z"
     id="path721" />
  <path
     style="fill:#231f20;fill-opacity:1;fill-rule:nonzero;stroke:none"
     d="m 116.828,55.598 c 1.047,-0.76 1.927,1.079 2.235,1.521 0.306,0.447 1.322,1.63 2.229,2.443 0.916,0.817 1.703,2.224 3.432,3.781 0.912,0.823 1.281,2.187 0.036,3.458 -1.229,1.256 -2.396,1.037 -3.348,-0.12 -0.953,-1.156 -1.355,-2.64 -2.235,-3.87 -0.874,-1.234 -1.88,-2.406 -2.718,-3.292 -0.948,-1.005 -1.047,-1.848 -0.855,-2.29 0.475,-1.095 1.224,-1.631 1.224,-1.631"
     id="path722" />
  <path
     style="fill:none;stroke:#231f20;stroke-width:0.565977;stroke-linecap:butt;stroke-linejoin:miter;stroke-miterlimit:4;stroke-dasharray:none;stroke-opacity:1"
     d="m 116.828,55.598 c 1.047,-0.76 1.927,1.079 2.235,1.521 0.306,0.447 1.322,1.63 2.229,2.443 0.916,0.817 1.703,2.224 3.432,3.781 0.912,0.823 1.281,2.187 0.036,3.458 -1.229,1.256 -2.396,1.037 -3.348,-0.12 -0.953,-1.156 -1.355,-2.64 -2.235,-3.87 -0.874,-1.234 -1.88,-2.406 -2.718,-3.292 -0.948,-1.005 -1.047,-1.848 -0.855,-2.29 0.475,-1.095 1.224,-1.631 1.224,-1.631 z"
     id="path723" />
  <path
     style="fill:#231f20;fill-opacity:1;fill-rule:nonzero;stroke:none"
     d="m 111.093,48.781 c -0.686,0.129 -2.109,-1.704 -1.932,-1.97 0.178,-0.265 0.579,0.386 0.787,0.099 0.208,-0.291 -0.115,-0.672 0.068,-0.812 0.192,-0.161 0.505,0.359 0.708,0.131 0.083,-0.1 -0.027,-0.688 0.151,-0.756 0.156,-0.058 0.578,0.245 0.709,0.208 0.203,-0.067 -0.068,-0.619 0.093,-0.692 0.432,-0.183 1.302,2.39 1.178,2.598 -0.172,0.312 -0.652,0.979 -1.762,1.194"
     id="path724" />
  <path
     style="fill:none;stroke:#231f20;stroke-width:0.565977;stroke-linecap:round;stroke-linejoin:round;stroke-miterlimit:4;stroke-dasharray:none;stroke-opacity:1"
     d="m 111.093,48.781 c -0.686,0.129 -2.109,-1.704 -1.932,-1.97 0.178,-0.265 0.579,0.386 0.787,0.099 0.208,-0.291 -0.115,-0.672 0.068,-0.812 0.192,-0.161 0.505,0.359 0.708,0.131 0.083,-0.1 -0.027,-0.688 0.151,-0.756 0.156,-0.058 0.578,0.245 0.709,0.208 0.203,-0.067 -0.068,-0.619 0.093,-0.692 0.432,-0.183 1.302,2.39 1.178,2.598 -0.172,0.312 -0.652,0.979 -1.762,1.194 z"
     id="path725" />
  <path
     style="fill:#ca0369;fill-opacity:1;fill-rule:nonzero;stroke:none"
     d="m 136.177,72.718 c -1.15,1.963 -0.964,3.588 -0.156,4.625 0.9,1.151 3.791,2.479 6.208,0.9 l 1.703,-7.62 c -3.708,-0.598 -6.411,-0.192 -7.755,2.095"
     id="path726" />
  <path
     style="fill:none;stroke:#231f20;stroke-width:0.565977;stroke-linecap:butt;stroke-linejoin:miter;stroke-miterlimit:4;stroke-dasharray:none;stroke-opacity:1"
     d="m 136.177,72.718 c -1.15,1.963 -0.964,3.588 -0.156,4.625 0.9,1.151 3.791,2.479 6.208,0.9 l 1.703,-7.62 c -3.708,-0.598 -6.411,-0.192 -7.755,2.095 z"
     id="path727" />
</svg>
