<?xml version="1.0" encoding="UTF-8" standalone="no"?>
<!-- Created with Inkscape (http://www.inkscape.org/) -->

<svg
   version="1.1"
   id="svg1"
   width="360.46881"
   height="80.690811"
   viewBox="0 0 360.4688 80.69081"
   sodipodi:docname="cell.svg"
   xmlns:inkscape="http://www.inkscape.org/namespaces/inkscape"
   xmlns:sodipodi="http://sodipodi.sourceforge.net/DTD/sodipodi-0.dtd"
   xmlns="http://www.w3.org/2000/svg"
   xmlns:svg="http://www.w3.org/2000/svg">
  <sodipodi:namedview
     id="namedview1"
     pagecolor="#ffffff"
     bordercolor="#000000"
     borderopacity="0.25"
     inkscape:showpageshadow="2"
     inkscape:pageopacity="0.0"
     inkscape:pagecheckerboard="0"
     inkscape:deskcolor="#d1d1d1">
    <inkscape:page
       x="0"
       y="0"
       inkscape:label="1"
       id="page1"
       width="360.46881"
       height="80.690811"
       margin="0"
       bleed="0" />
  </sodipodi:namedview>
  <defs
     id="defs1" />
  <path
     style="fill:#ffffff;fill-opacity:1;fill-rule:nonzero;stroke:none"
     d="M -1.4269758e-8,19.206928 H 18.875 v -18.875 H -1.4269758e-8 Z"
     id="path45" />
  <path
     style="fill:#ffffff;fill-opacity:1;fill-rule:nonzero;stroke:none"
     d="m 343.5418,19.206928 h 16.927 v -18.875 h -16.927 z"
     id="path46" />
  <path
     style="fill:#231f20;fill-opacity:1;fill-rule:nonzero;stroke:none"
     d="m 173.7348,76.968928 c -0.359,-0.536 -0.12,-2.47 -0.552,-4.022 -0.292,-1.041 0.125,-3.754 -0.24,-4.776 -0.339,-0.937 -0.406,-1.396 0.604,-1.958 0.594,-0.338 1.953,-0.604 2.229,-0.171 0.625,1.009 0.776,1.947 0.724,3.009 -0.063,1.215 -0.52,4.495 -0.667,5.095 -0.353,1.479 -0.041,2.145 -0.104,2.547 -0.104,0.749 -0.416,0.901 -0.921,0.937 -0.953,0.073 -1.073,-0.661 -1.073,-0.661"
     id="path47" />
  <path
     style="fill:none;stroke:#231f20;stroke-width:0.565977;stroke-linecap:butt;stroke-linejoin:miter;stroke-miterlimit:4;stroke-dasharray:none;stroke-opacity:1"
     d="m 173.7348,76.968928 c -0.359,-0.536 -0.12,-2.47 -0.552,-4.022 -0.292,-1.041 0.125,-3.754 -0.24,-4.776 -0.339,-0.937 -0.406,-1.396 0.604,-1.958 0.594,-0.338 1.953,-0.604 2.229,-0.171 0.625,1.009 0.776,1.947 0.724,3.009 -0.063,1.215 -0.52,4.495 -0.667,5.095 -0.353,1.479 -0.041,2.145 -0.104,2.547 -0.104,0.749 -0.416,0.901 -0.921,0.937 -0.953,0.073 -1.073,-0.661 -1.073,-0.661 z"
     id="path48" />
  <path
     style="fill:#231f20;fill-opacity:1;fill-rule:nonzero;stroke:none"
     d="m 167.8848,17.285928 c 1.262,0.495 1.246,1.489 0.568,2.276 -0.197,0.235 -0.13,0.641 -0.349,0.855 -0.5,0.494 -2.244,0.416 -2.547,-1.052 -0.025,-0.104 -0.421,-0.823 -0.634,-1.407 -0.423,-1.135 -0.71,-3.62 0.984,-5.713 0.797,-0.995 1.24,-0.339 1.036,0.161 -0.64,1.588 -0.386,1.855 -0.406,2.333 -0.062,1.62 1.348,2.547 1.348,2.547"
     id="path49" />
  <path
     style="fill:none;stroke:#231f20;stroke-width:0.332927;stroke-linecap:butt;stroke-linejoin:miter;stroke-miterlimit:4;stroke-dasharray:none;stroke-opacity:1"
     d="m 167.8848,17.285928 c 1.262,0.495 1.246,1.489 0.568,2.276 -0.197,0.235 -0.13,0.641 -0.349,0.855 -0.5,0.494 -2.244,0.416 -2.547,-1.052 -0.025,-0.104 -0.421,-0.823 -0.634,-1.407 -0.423,-1.135 -0.71,-3.62 0.984,-5.713 0.797,-0.995 1.24,-0.339 1.036,0.161 -0.64,1.588 -0.386,1.855 -0.406,2.333 -0.062,1.62 1.348,2.547 1.348,2.547 z"
     id="path50" />
  <path
     style="fill:#231f20;fill-opacity:1;fill-rule:nonzero;stroke:none"
     d="m 171.4068,35.708928 c 2.24,-0.334 2.63,-0.699 2.552,-1.652 -0.047,-0.635 0.12,-1.244 0.114,-1.635 -0.041,-1.297 -0.645,-3.459 -3.958,-9.147 -0.75,-1.29 -1.792,-3.109 -2.156,-3.885 -0.579,-1.229 -2.23,0.563 -2.006,1.047 0.714,1.562 1.079,2.688 1.26,3.281 0.126,0.412 0.439,1.105 0.715,2.751 0.416,2.489 0.296,4.046 0.885,6.077 0.266,0.944 -0.125,1.824 0.615,2.62 0.739,0.792 1.979,0.543 1.979,0.543"
     id="path51" />
  <path
     style="fill:none;stroke:#231f20;stroke-width:0.565977;stroke-linecap:butt;stroke-linejoin:miter;stroke-miterlimit:4;stroke-dasharray:none;stroke-opacity:1"
     d="m 171.4068,35.708928 c 2.24,-0.334 2.63,-0.699 2.552,-1.652 -0.047,-0.635 0.12,-1.244 0.114,-1.635 -0.041,-1.297 -0.645,-3.459 -3.958,-9.147 -0.75,-1.29 -1.792,-3.109 -2.156,-3.885 -0.579,-1.229 -2.23,0.563 -2.006,1.047 0.714,1.562 1.079,2.688 1.26,3.281 0.126,0.412 0.439,1.105 0.715,2.751 0.416,2.489 0.296,4.046 0.885,6.077 0.266,0.944 -0.125,1.824 0.615,2.62 0.739,0.792 1.979,0.543 1.979,0.543 z"
     id="path52" />
  <path
     style="fill:#ca0369;fill-opacity:1;fill-rule:nonzero;stroke:none"
     d="m 182.6558,58.582928 c -1.406,-2.802 -1.4,-3.552 -1.458,-4.469 -0.349,-5.771 -3.182,-5.489 -5.479,-3.755 -2.708,2.047 -3.719,2.719 -0.375,8.058 0.927,1.478 3.76,7.634 3.76,7.634 0.709,2.339 2.657,4.24 4.1,4.434 1.52,0.202 0.937,0.009 2.38,-0.058 1.369,-0.068 3.197,-1.27 3.353,-2.494 0.141,-1.183 -1.171,-2.204 -2.88,-3.928 -1.344,-1.359 -3.401,-5.422 -3.401,-5.422"
     id="path53" />
  <path
     style="fill:none;stroke:#231f20;stroke-width:0.565977;stroke-linecap:butt;stroke-linejoin:miter;stroke-miterlimit:4;stroke-dasharray:none;stroke-opacity:1"
     d="m 182.6558,58.582928 c -1.406,-2.802 -1.4,-3.552 -1.458,-4.469 -0.349,-5.771 -3.182,-5.489 -5.479,-3.755 -2.708,2.047 -3.719,2.719 -0.375,8.058 0.927,1.478 3.76,7.634 3.76,7.634 0.709,2.339 2.657,4.24 4.1,4.434 1.52,0.202 0.937,0.009 2.38,-0.058 1.369,-0.068 3.197,-1.27 3.353,-2.494 0.141,-1.183 -1.171,-2.204 -2.88,-3.928 -1.344,-1.359 -3.401,-5.422 -3.401,-5.422 z"
     id="path54" />
  <path
     style="fill:#ffffff;fill-opacity:1;fill-rule:nonzero;stroke:none"
     d="m 190.6658,76.998928 c 0.21,0.115 -0.052,1.235 0.448,1.386 0.5,0.161 0.923,-0.51 2.896,-0.782 h 0.022 c 1.442,-0.145 2.64,-0.858 3.109,-2.02 0.781,-1.922 -0.704,-4.344 -3.319,-5.412 -2.618,-1.062 -5.369,-0.364 -6.156,1.558 -0.749,1.838 0.584,4.141 3,5.27"
     id="path55" />
  <path
     style="fill:none;stroke:#231f20;stroke-width:0.565977;stroke-linecap:butt;stroke-linejoin:miter;stroke-miterlimit:4;stroke-dasharray:none;stroke-opacity:1"
     d="m 190.6658,76.998928 c 0.21,0.115 -0.052,1.235 0.448,1.386 0.5,0.161 0.923,-0.51 2.896,-0.782 h 0.022 c 1.442,-0.145 2.64,-0.858 3.109,-2.02 0.781,-1.922 -0.704,-4.344 -3.319,-5.412 -2.618,-1.062 -5.369,-0.364 -6.156,1.558 -0.749,1.838 0.584,4.141 3,5.27 z"
     id="path56" />
  <path
     style="fill:#231f20;fill-opacity:1;fill-rule:nonzero;stroke:none"
     d="m 171.6148,33.238928 c -4.011,0.246 -1.963,3.776 -1.938,4.255 0.282,5.005 0.423,5.349 0.902,9.152 0.692,5.479 2,9.124 5.312,9.661 2.24,0.359 3.688,-0.406 4.365,-1.537 0.744,-1.255 0.932,-4.427 -1.423,-6.104 l -0.661,-1.583 c -0.301,-1.125 -0.463,-1.677 -0.573,-2.24 -0.187,-0.989 -0.447,-2.03 -0.922,-3.926 -0.838,-3.371 -2.822,-6.662 -2.822,-6.662 -0.339,-1.193 -2.24,-1.016 -2.24,-1.016"
     id="path57" />
  <path
     style="fill:none;stroke:#231f20;stroke-width:0.565977;stroke-linecap:butt;stroke-linejoin:miter;stroke-miterlimit:4;stroke-dasharray:none;stroke-opacity:1"
     d="m 171.6148,33.238928 c -4.011,0.246 -1.963,3.776 -1.938,4.255 0.282,5.005 0.423,5.349 0.902,9.152 0.692,5.479 2,9.124 5.312,9.661 2.24,0.359 3.688,-0.406 4.365,-1.537 0.744,-1.255 0.932,-4.427 -1.423,-6.104 l -0.661,-1.583 c -0.301,-1.125 -0.463,-1.677 -0.573,-2.24 -0.187,-0.989 -0.447,-2.03 -0.922,-3.926 -0.838,-3.371 -2.822,-6.662 -2.822,-6.662 -0.339,-1.193 -2.24,-1.016 -2.24,-1.016 z"
     id="path58" />
  <path
     style="fill:#ca0369;fill-opacity:1;fill-rule:nonzero;stroke:none"
     d="m 178.9748,48.916928 -7.724,1.186 c 0.14,0.642 0.301,1.23 0.478,1.787 0,0.079 -0.005,0.161 -0.016,0.229 -0.129,0.792 0.282,1.266 0.996,2.016 0.802,1.334 1.864,2.192 3.318,2.422 2.249,0.365 3.692,-0.4 4.363,-1.531 0.746,-1.256 0.932,-4.432 -1.415,-6.109"
     id="path59" />
  <path
     style="fill:none;stroke:#231f20;stroke-width:0.565977;stroke-linecap:butt;stroke-linejoin:miter;stroke-miterlimit:4;stroke-dasharray:none;stroke-opacity:1"
     d="m 178.9748,48.916928 -7.724,1.186 c 0.14,0.642 0.301,1.23 0.478,1.787 0,0.079 -0.005,0.161 -0.016,0.229 -0.129,0.792 0.282,1.266 0.996,2.016 0.802,1.334 1.864,2.192 3.318,2.422 2.249,0.365 3.692,-0.4 4.363,-1.531 0.746,-1.256 0.932,-4.432 -1.415,-6.109 z"
     id="path60" />
  <path
     style="fill:#231f20;fill-opacity:1;fill-rule:nonzero;stroke:none"
     d="m 172.9478,66.629928 c 0.073,-1.292 2.052,-0.807 2.595,-0.76 0.541,0.047 2.093,0.005 3.301,-0.183 1.208,-0.188 2.797,0.094 5.104,-0.26 1.208,-0.182 2.5,0.4 2.693,2.167 0.192,1.744 -0.713,2.509 -2.208,2.515 -1.505,0.005 -2.907,-0.624 -4.417,-0.73 -1.505,-0.098 -3.052,-0.061 -4.265,0.027 -1.38,0.093 -2.099,-0.369 -2.318,-0.792 -0.542,-1.068 -0.485,-1.984 -0.485,-1.984"
     id="path61" />
  <path
     style="fill:none;stroke:#231f20;stroke-width:0.565977;stroke-linecap:butt;stroke-linejoin:miter;stroke-miterlimit:4;stroke-dasharray:none;stroke-opacity:1"
     d="m 172.9478,66.629928 c 0.073,-1.292 2.052,-0.807 2.595,-0.76 0.541,0.047 2.093,0.005 3.301,-0.183 1.208,-0.188 2.797,0.094 5.104,-0.26 1.208,-0.182 2.5,0.4 2.693,2.167 0.192,1.744 -0.713,2.509 -2.208,2.515 -1.505,0.005 -2.907,-0.624 -4.417,-0.73 -1.505,-0.098 -3.052,-0.061 -4.265,0.027 -1.38,0.093 -2.099,-0.369 -2.318,-0.792 -0.542,-1.068 -0.485,-1.984 -0.485,-1.984 z"
     id="path62" />
  <path
     style="fill:#ffffff;fill-opacity:1;fill-rule:nonzero;stroke:#231f20;stroke-width:0.665856;stroke-linecap:butt;stroke-linejoin:miter;stroke-miterlimit:4;stroke-dasharray:none;stroke-opacity:1"
     d="m 175.3128,68.848928 h 1.328 v -68.516 h -1.328 z"
     id="path63" />
  <path
     style="fill:#ffffff;fill-opacity:1;fill-rule:nonzero;stroke:none"
     d="m 172.1148,73.780928 c 0,-2.354 1.917,-4.266 4.27,-4.266 2.355,0 4.271,1.912 4.271,4.266 0,2.354 -1.916,4.27 -4.271,4.27 -2.353,0 -4.27,-1.916 -4.27,-4.27 m -1.328,0 c 0,3.089 2.51,5.604 5.598,5.604 3.09,0 5.6,-2.515 5.6,-5.604 0,-3.083 -2.51,-5.599 -5.6,-5.599 -3.088,0 -5.598,2.516 -5.598,5.599"
     id="path65" />
  <path
     style="fill:none;stroke:#231f20;stroke-width:0.665856;stroke-linecap:butt;stroke-linejoin:miter;stroke-miterlimit:4;stroke-dasharray:none;stroke-opacity:1"
     d="m 172.1148,73.780928 c 0,-2.354 1.917,-4.266 4.27,-4.266 2.355,0 4.271,1.912 4.271,4.266 0,2.354 -1.916,4.27 -4.271,4.27 -2.353,0 -4.27,-1.916 -4.27,-4.27 z m -1.328,0 c 0,3.089 2.51,5.604 5.598,5.604 3.09,0 5.6,-2.515 5.6,-5.604 0,-3.083 -2.51,-5.599 -5.6,-5.599 -3.088,0 -5.598,2.516 -5.598,5.599 z"
     id="path66" />
  <path
     style="fill:#231f20;fill-opacity:1;fill-rule:nonzero;stroke:none"
     d="m 175.7608,77.473928 c 0.656,0.244 0.916,2.541 0.624,2.683 -0.285,0.134 -0.29,-0.636 -0.614,-0.496 -0.334,0.136 -0.255,0.63 -0.484,0.661 -0.244,0.032 -0.25,-0.572 -0.536,-0.484 -0.12,0.047 -0.334,0.599 -0.522,0.568 -0.161,-0.031 -0.369,-0.516 -0.5,-0.547 -0.208,-0.046 -0.26,0.563 -0.437,0.536 -0.459,-0.062 0.136,-2.713 0.344,-2.828 0.312,-0.172 1.068,-0.489 2.125,-0.093"
     id="path67" />
  <path
     style="fill:none;stroke:#231f20;stroke-width:0.565977;stroke-linecap:round;stroke-linejoin:round;stroke-miterlimit:4;stroke-dasharray:none;stroke-opacity:1"
     d="m 175.7608,77.473928 c 0.656,0.244 0.916,2.541 0.624,2.683 -0.285,0.134 -0.29,-0.636 -0.614,-0.496 -0.334,0.136 -0.255,0.63 -0.484,0.661 -0.244,0.032 -0.25,-0.572 -0.536,-0.484 -0.12,0.047 -0.334,0.599 -0.522,0.568 -0.161,-0.031 -0.369,-0.516 -0.5,-0.547 -0.208,-0.046 -0.26,0.563 -0.437,0.536 -0.459,-0.062 0.136,-2.713 0.344,-2.828 0.312,-0.172 1.068,-0.489 2.125,-0.093 z"
     id="path68" />
</svg>
