<?xml version="1.0" encoding="UTF-8" standalone="no"?>
<!-- Created with Inkscape (http://www.inkscape.org/) -->

<svg
   version="1.1"
   id="svg1"
   width="290.97446"
   height="93.444191"
   viewBox="0 0 290.97444 93.444191"
   sodipodi:docname="cell.svg"
   xmlns:inkscape="http://www.inkscape.org/namespaces/inkscape"
   xmlns:sodipodi="http://sodipodi.sourceforge.net/DTD/sodipodi-0.dtd"
   xmlns="http://www.w3.org/2000/svg"
   xmlns:svg="http://www.w3.org/2000/svg">
  <sodipodi:namedview
     id="namedview1"
     pagecolor="#ffffff"
     bordercolor="#000000"
     borderopacity="0.25"
     inkscape:showpageshadow="2"
     inkscape:pageopacity="0.0"
     inkscape:pagecheckerboard="0"
     inkscape:deskcolor="#d1d1d1">
    <inkscape:page
       x="0"
       y="0"
       inkscape:label="1"
       id="page1"
       width="290.97443"
       height="93.444191"
       margin="0"
       bleed="0" />
  </sodipodi:namedview>
  <defs
     id="defs1" />
  <path
     style="fill:#231f20;fill-opacity:1;fill-rule:nonzero;stroke:none"
     d="m 1.7000468,85.210698 c -0.90659998,-1 -0.4588,-1.885 0.5,-2.287 0.2814,-0.125 0.4011,-0.521 0.6934,-0.62 0.6666,-0.218 2.1921,0.626 1.8118,2.079 -0.0265,0.104 0.0162,0.921 -0.0462,1.541 -0.1308,1.203 -0.9751,3.552 -3.423,4.687 -1.15569998,0.537 -1.25979998,-0.249 -0.85319998,-0.609 1.27619998,-1.14 1.16669998,-1.49 1.39589998,-1.906 0.776,-1.428 -0.0787,-2.885 -0.0787,-2.885"
     id="path244" />
  <path
     style="fill:none;stroke:#231f20;stroke-width:0.332927;stroke-linecap:butt;stroke-linejoin:miter;stroke-miterlimit:4;stroke-dasharray:none;stroke-opacity:1"
     d="m 1.7000468,85.210698 c -0.90659998,-1 -0.4588,-1.885 0.5,-2.287 0.2814,-0.125 0.4011,-0.521 0.6934,-0.62 0.6666,-0.218 2.1921,0.626 1.8118,2.079 -0.0265,0.104 0.0162,0.921 -0.0462,1.541 -0.1308,1.203 -0.9751,3.552 -3.423,4.687 -1.15569998,0.537 -1.25979998,-0.249 -0.85319998,-0.609 1.27619998,-1.14 1.16669998,-1.49 1.39589998,-1.906 0.776,-1.428 -0.0787,-2.885 -0.0787,-2.885 z"
     id="path245" />
  <path
     style="fill:#231f20;fill-opacity:1;fill-rule:nonzero;stroke:none"
     d="m 6.7161468,67.142698 c -2.1561,-0.699 -2.6723,-0.541 -3.027,0.344 -0.2385,0.593 -0.6609,1.063 -0.8224,1.416 -0.5411,1.177 -0.9588,3.385 -0.5109,9.953 0.0989,1.489 0.2297,3.584 0.2136,4.438 -0.0256,1.36 2.2453,0.484 2.2614,-0.047 0.052,-1.714 0.2239,-2.891 0.3224,-3.505 0.0735,-0.422 0.099,-1.188 0.5776,-2.776 0.7344,-2.416 1.5317,-3.76 1.9068,-5.839 0.1771,-0.968 0.9224,-1.583 0.6093,-2.62 -0.3125,-1.041 -1.5308,-1.364 -1.5308,-1.364"
     id="path246" />
  <path
     style="fill:none;stroke:#231f20;stroke-width:0.565977;stroke-linecap:butt;stroke-linejoin:miter;stroke-miterlimit:4;stroke-dasharray:none;stroke-opacity:1"
     d="m 6.7161468,67.142698 c -2.1561,-0.699 -2.6723,-0.541 -3.027,0.344 -0.2385,0.593 -0.6609,1.063 -0.8224,1.416 -0.5411,1.177 -0.9588,3.385 -0.5109,9.953 0.0989,1.489 0.2297,3.584 0.2136,4.438 -0.0256,1.36 2.2453,0.484 2.2614,-0.047 0.052,-1.714 0.2239,-2.891 0.3224,-3.505 0.0735,-0.422 0.099,-1.188 0.5776,-2.776 0.7344,-2.416 1.5317,-3.76 1.9068,-5.839 0.1771,-0.968 0.9224,-1.583 0.6093,-2.62 -0.3125,-1.041 -1.5308,-1.364 -1.5308,-1.364 z"
     id="path247" />
  <path
     style="fill:#231f20;fill-opacity:1;fill-rule:nonzero;stroke:none"
     d="m 5.4292468,69.257698 c 3.6975,1.557 3.4323,-2.516 3.6203,-2.954 1.9729002,-4.604 1.9942002,-4.989 3.2490002,-8.598 1.8135,-5.219 2.2562,-9.074 -0.4729,-11.016 -1.8547002,-1.318 -3.4896002,-1.276 -4.5989002,-0.563 -1.224,0.797 -2.7923,3.563 -1.4333,6.109 l -0.1095,1.708 c -0.2239,1.142 -0.3224,1.71 -0.4787,2.267 -0.2708,0.963 -0.4948,2.015 -0.9118,3.927 -0.7439,3.39 -0.4163,7.218 -0.4163,7.218 -0.2343,1.224 1.5521,1.902 1.5521,1.902"
     id="path248" />
  <path
     style="fill:none;stroke:#231f20;stroke-width:0.565977;stroke-linecap:butt;stroke-linejoin:miter;stroke-miterlimit:4;stroke-dasharray:none;stroke-opacity:1"
     d="m 5.4292468,69.257698 c 3.6975,1.557 3.4323,-2.516 3.6203,-2.954 1.9729002,-4.604 1.9942002,-4.989 3.2490002,-8.598 1.8135,-5.219 2.2562,-9.074 -0.4729,-11.016 -1.8547002,-1.318 -3.4896002,-1.276 -4.5989002,-0.563 -1.224,0.797 -2.7923,3.563 -1.4333,6.109 l -0.1095,1.708 c -0.2239,1.142 -0.3224,1.71 -0.4787,2.267 -0.2708,0.963 -0.4948,2.015 -0.9118,3.927 -0.7439,3.39 -0.4163,7.218 -0.4163,7.218 -0.2343,1.224 1.5521,1.902 1.5521,1.902 z"
     id="path249" />
  <path
     style="fill:#231f20;fill-opacity:1;fill-rule:nonzero;stroke:none"
     d="m 6.7412468,85.960698 c -1.036,-0.865 -0.713,-1.802 0.1776,-2.334 0.2651,-0.161 0.3281,-0.568 0.6036,-0.703 0.6308,-0.313 2.2615,0.312 2.0844,1.802 -0.0161,0.109 0.1401,0.917 0.1609,1.537 0.0366,1.208 -0.4744,3.656 -2.7453,5.109 -1.0718,0.692 -1.2812,-0.073 -0.9265,-0.485 1.1041,-1.301 0.9478,-1.635 1.1145,-2.077 0.5735,-1.522 -0.4692,-2.849 -0.4692,-2.849"
     id="path250" />
  <path
     style="fill:none;stroke:#231f20;stroke-width:0.332927;stroke-linecap:butt;stroke-linejoin:miter;stroke-miterlimit:4;stroke-dasharray:none;stroke-opacity:1"
     d="m 6.7412468,85.960698 c -1.036,-0.865 -0.713,-1.802 0.1776,-2.334 0.2651,-0.161 0.3281,-0.568 0.6036,-0.703 0.6308,-0.313 2.2615,0.312 2.0844,1.802 -0.0161,0.109 0.1401,0.917 0.1609,1.537 0.0366,1.208 -0.4744,3.656 -2.7453,5.109 -1.0718,0.692 -1.2812,-0.073 -0.9265,-0.485 1.1041,-1.301 0.9478,-1.635 1.1145,-2.077 0.5735,-1.522 -0.4692,-2.849 -0.4692,-2.849 z"
     id="path251" />
  <path
     style="fill:#231f20;fill-opacity:1;fill-rule:nonzero;stroke:none"
     d="m 9.2213468,67.371698 c -2.229,-0.39 -2.7134,-0.172 -2.9478,0.76 -0.1521,0.62 -0.5057,1.146 -0.6203,1.516 -0.3693,1.244 -0.4838,3.484 0.864,9.932 0.3027,1.459 0.7188,3.516 0.8188,4.364 0.1615,1.35 2.2907,0.167 2.2333,-0.358 -0.1813,-1.703 -0.176,-2.896 -0.1614,-3.517 0.0161,-0.426 -0.0678,-1.186 0.1932,-2.827 0.3964,-2.495 1.0000002,-3.932 1.0880002,-6.047 0.0376,-0.984 0.688,-1.693 0.2401,-2.677 -0.4531,-0.99 -1.7079002,-1.146 -1.7079002,-1.146"
     id="path252" />
  <path
     style="fill:none;stroke:#231f20;stroke-width:0.565977;stroke-linecap:butt;stroke-linejoin:miter;stroke-miterlimit:4;stroke-dasharray:none;stroke-opacity:1"
     d="m 9.2213468,67.371698 c -2.229,-0.39 -2.7134,-0.172 -2.9478,0.76 -0.1521,0.62 -0.5057,1.146 -0.6203,1.516 -0.3693,1.244 -0.4838,3.484 0.864,9.932 0.3027,1.459 0.7188,3.516 0.8188,4.364 0.1615,1.35 2.2907,0.167 2.2333,-0.358 -0.1813,-1.703 -0.176,-2.896 -0.1614,-3.517 0.0161,-0.426 -0.0678,-1.186 0.1932,-2.827 0.3964,-2.495 1.0000002,-3.932 1.0880002,-6.047 0.0376,-0.984 0.688,-1.693 0.2401,-2.677 -0.4531,-0.99 -1.7079002,-1.146 -1.7079002,-1.146 z"
     id="path253" />
  <path
     style="fill:#ca0369;fill-opacity:1;fill-rule:nonzero;stroke:none"
     d="m 7.2677468,41.454698 c -0.0677,3.136 -0.4265,3.797 -0.8077,4.636 -2.3854,5.265 0.24,6.339 3.0895,5.88 3.3480002,-0.536 4.5625002,-0.661 4.0985002,-6.943 -0.1256,-1.745 0.2547,-8.505 0.2547,-8.505 0.464,-2.407 -0.3642,-4.995 -1.5522,-5.839 -1.2494,-0.89 -0.8172,-0.448 -2.1292,-1.062 -1.2452002,-0.583 -3.4228002,-0.375 -4.1306002,0.641 -0.6828,0.968 0.0104,2.489 0.7078,4.812 0.552,1.828 0.4692,6.38 0.4692,6.38"
     id="path254" />
  <path
     style="fill:none;stroke:#231f20;stroke-width:0.565977;stroke-linecap:butt;stroke-linejoin:miter;stroke-miterlimit:4;stroke-dasharray:none;stroke-opacity:1"
     d="m 7.2677468,41.454698 c -0.0677,3.136 -0.4265,3.797 -0.8077,4.636 -2.3854,5.265 0.24,6.339 3.0895,5.88 3.3480002,-0.536 4.5625002,-0.661 4.0985002,-6.943 -0.1256,-1.745 0.2547,-8.505 0.2547,-8.505 0.464,-2.407 -0.3642,-4.995 -1.5522,-5.839 -1.2494,-0.89 -0.8172,-0.448 -2.1292,-1.062 -1.2452002,-0.583 -3.4228002,-0.375 -4.1306002,0.641 -0.6828,0.968 0.0104,2.489 0.7078,4.812 0.552,1.828 0.4692,6.38 0.4692,6.38 z"
     id="path255" />
  <path
     style="fill:#ffffff;fill-opacity:1;fill-rule:nonzero;stroke:none"
     d="m 12.642847,23.667698 c 0.0463,-0.238 1.1932,-0.322 1.1932,-0.848 0,-0.526 -0.7615,-0.724 -1.6093,-2.526 l -0.0106,-0.02 c -0.5733,-1.334 -1.6093,-2.262 -2.8604002,-2.36 -2.0677,-0.172 -3.9369,1.969 -4.1718,4.781 -0.2292,2.817 1.2614,5.24 3.3281,5.412 1.9803002,0.161 3.7760002,-1.803 4.1308002,-4.439"
     id="path256" />
  <path
     style="fill:none;stroke:#231f20;stroke-width:0.565977;stroke-linecap:butt;stroke-linejoin:miter;stroke-miterlimit:4;stroke-dasharray:none;stroke-opacity:1"
     d="m 12.642847,23.667698 c 0.0463,-0.238 1.1932,-0.322 1.1932,-0.848 0,-0.526 -0.7615,-0.724 -1.6093,-2.526 l -0.0106,-0.02 c -0.5733,-1.334 -1.6093,-2.262 -2.8604002,-2.36 -2.0677,-0.172 -3.9369,1.969 -4.1718,4.781 -0.2292,2.817 1.2614,5.24 3.3281,5.412 1.9803002,0.161 3.7760002,-1.803 4.1308002,-4.439 z"
     id="path257" />
  <path
     style="fill:#231f20;fill-opacity:1;fill-rule:nonzero;stroke:none"
     d="m 8.2412468,69.647698 c 3.8760002,1.036 3.0521002,-2.964 3.1776002,-3.422 1.3224,-4.834 1.2916,-5.214 2.0359,-8.963 1.0838,-5.423 0.9906,-9.297 -1.9838,-10.849 -2.0162002,-1.052 -3.6297002,-0.782 -4.6256002,0.078 -1.1041,0.952 -2.2811,3.906 -0.5828,6.244 l 0.1255,1.708 c -0.0624,1.163 -0.0837,1.74 -0.1613,2.308 -0.136,0.995 -0.2147,2.063 -0.3652,4.016 -0.2708,3.463 0.5786,7.208 0.5786,7.208 -0.063,1.244 1.8011,1.672 1.8011,1.672"
     id="path258" />
  <path
     style="fill:none;stroke:#231f20;stroke-width:0.565977;stroke-linecap:butt;stroke-linejoin:miter;stroke-miterlimit:4;stroke-dasharray:none;stroke-opacity:1"
     d="m 8.2412468,69.647698 c 3.8760002,1.036 3.0521002,-2.964 3.1776002,-3.422 1.3224,-4.834 1.2916,-5.214 2.0359,-8.963 1.0838,-5.423 0.9906,-9.297 -1.9838,-10.849 -2.0162002,-1.052 -3.6297002,-0.782 -4.6256002,0.078 -1.1041,0.952 -2.2811,3.906 -0.5828,6.244 l 0.1255,1.708 c -0.0624,1.163 -0.0837,1.74 -0.1613,2.308 -0.136,0.995 -0.2147,2.063 -0.3652,4.016 -0.2708,3.463 0.5786,7.208 0.5786,7.208 -0.063,1.244 1.8011,1.672 1.8011,1.672 z"
     id="path259" />
  <path
     style="fill:#ca0369;fill-opacity:1;fill-rule:nonzero;stroke:none"
     d="m 13.850547,49.762698 c -0.3333,-1.521 -1.0666,-2.667 -2.3796,-3.349 -2.0162002,-1.047 -3.6297002,-0.782 -4.6256002,0.078 -1.1041,0.952 -2.2811,3.906 -0.5828,6.244 l 7.7027002,1.318 c 0.0733,-0.656 0.0989,-1.266 0.1093,-1.848 0.0266,-0.079 0.0522,-0.152 0.0896,-0.214 0.3744,-0.714 0.1292,-1.292 -0.3136,-2.229"
     id="path260" />
  <path
     style="fill:none;stroke:#231f20;stroke-width:0.565977;stroke-linecap:butt;stroke-linejoin:miter;stroke-miterlimit:4;stroke-dasharray:none;stroke-opacity:1"
     d="m 13.850547,49.762698 c -0.3333,-1.521 -1.0666,-2.667 -2.3796,-3.349 -2.0162002,-1.047 -3.6297002,-0.782 -4.6256002,0.078 -1.1041,0.952 -2.2811,3.906 -0.5828,6.244 l 7.7027002,1.318 c 0.0733,-0.656 0.0989,-1.266 0.1093,-1.848 0.0266,-0.079 0.0522,-0.152 0.0896,-0.214 0.3744,-0.714 0.1292,-1.292 -0.3136,-2.229 z"
     id="path261" />
  <path
     style="fill:#231f20;fill-opacity:1;fill-rule:nonzero;stroke:none"
     d="m 8.5281468,52.449698 c -0.3801,-0.52 -0.2186,-2.458 -0.7082,-3.995 -0.3276,-1.031 -0.0266,-3.76 -0.4319,-4.765 -0.3708,-0.922 -0.4588,-1.38 0.5256,-1.984 0.5787,-0.36 1.9276,-0.678 2.2183002,-0.256 0.6724,0.985 0.8604,1.912 0.8494,2.985 -0.0213,1.213 -0.3494,4.509 -0.4693,5.109 -0.2959,1.495 0.0375,2.151 0,2.552 -0.0776,0.76 -0.3853,0.916 -0.8907002,0.974 -0.9478,0.104 -1.0932,-0.62 -1.0932,-0.62"
     id="path262" />
  <path
     style="fill:none;stroke:#231f20;stroke-width:0.565977;stroke-linecap:butt;stroke-linejoin:miter;stroke-miterlimit:4;stroke-dasharray:none;stroke-opacity:1"
     d="m 8.5281468,52.449698 c -0.3801,-0.52 -0.2186,-2.458 -0.7082,-3.995 -0.3276,-1.031 -0.0266,-3.76 -0.4319,-4.765 -0.3708,-0.922 -0.4588,-1.38 0.5256,-1.984 0.5787,-0.36 1.9276,-0.678 2.2183002,-0.256 0.6724,0.985 0.8604,1.912 0.8494,2.985 -0.0213,1.213 -0.3494,4.509 -0.4693,5.109 -0.2959,1.495 0.0375,2.151 0,2.552 -0.0776,0.76 -0.3853,0.916 -0.8907002,0.974 -0.9478,0.104 -1.0932,-0.62 -1.0932,-0.62 z"
     id="path263" />
  <path
     style="fill:#231f20;fill-opacity:1;fill-rule:nonzero;stroke:none"
     d="m 7.9975468,43.407698 c -1.2923,-0.068 -0.8188,-2.052 -0.7708,-2.588 0.041,-0.542 -0.0054,-2.1 -0.1934,-3.308 -0.1921,-1.208 0.0839,-2.796 -0.276,-5.093 -0.188,-1.208 0.3907,-2.505 2.1563,-2.703 1.7453002,-0.198 2.5104002,0.703 2.5208002,2.203 0.0057,1.495 -0.6145,2.907 -0.7131,4.416 -0.0946,1.505 -0.052,3.052 0.036,4.261 0.1042,1.38 -0.3546,2.099 -0.7812002,2.323 -1.0625,0.547 -1.9786,0.489 -1.9786,0.489"
     id="path264" />
  <path
     style="fill:none;stroke:#231f20;stroke-width:0.565977;stroke-linecap:butt;stroke-linejoin:miter;stroke-miterlimit:4;stroke-dasharray:none;stroke-opacity:1"
     d="m 7.9975468,43.407698 c -1.2923,-0.068 -0.8188,-2.052 -0.7708,-2.588 0.041,-0.542 -0.0054,-2.1 -0.1934,-3.308 -0.1921,-1.208 0.0839,-2.796 -0.276,-5.093 -0.188,-1.208 0.3907,-2.505 2.1563,-2.703 1.7453002,-0.198 2.5104002,0.703 2.5208002,2.203 0.0057,1.495 -0.6145,2.907 -0.7131,4.416 -0.0946,1.505 -0.052,3.052 0.036,4.261 0.1042,1.38 -0.3546,2.099 -0.7812002,2.323 -1.0625,0.547 -1.9786,0.489 -1.9786,0.489 z"
     id="path265" />
  <path
     style="fill:#ffffff;fill-opacity:1;fill-rule:nonzero;stroke:#231f20;stroke-width:0.665856;stroke-linecap:butt;stroke-linejoin:miter;stroke-miterlimit:4;stroke-dasharray:none;stroke-opacity:1"
     d="M 8.8095468,43.782698 H 10.137647 V 1.4546976 H 8.8095468 Z"
     id="path266" />
  <path
     style="fill:#ffffff;fill-opacity:1;fill-rule:nonzero;stroke:none"
     d="m 5.6120468,48.719698 c 0,-2.353 1.9161,-4.27 4.2708,-4.27 2.3532002,0 4.2704002,1.917 4.2704002,4.27 0,2.355 -1.9172,4.267 -4.2704002,4.267 -2.3547,0 -4.2708,-1.912 -4.2708,-4.267 m -1.3281,0 c 0,3.09 2.5094,5.6 5.5989,5.6 3.0881002,0 5.5985002,-2.51 5.5985002,-5.6 0,-3.088 -2.5104,-5.604 -5.5985002,-5.604 -3.0895,0 -5.5989,2.516 -5.5989,5.604"
     id="path267" />
  <path
     style="fill:none;stroke:#231f20;stroke-width:0.665856;stroke-linecap:butt;stroke-linejoin:miter;stroke-miterlimit:4;stroke-dasharray:none;stroke-opacity:1"
     d="m 5.6120468,48.719698 c 0,-2.353 1.9161,-4.27 4.2708,-4.27 2.3532002,0 4.2704002,1.917 4.2704002,4.27 0,2.355 -1.9172,4.267 -4.2704002,4.267 -2.3547,0 -4.2708,-1.912 -4.2708,-4.267 z m -1.3281,0 c 0,3.09 2.5094,5.6 5.5989,5.6 3.0881002,0 5.5985002,-2.51 5.5985002,-5.6 0,-3.088 -2.5104,-5.604 -5.5985002,-5.604 -3.0895,0 -5.5989,2.516 -5.5989,5.604 z"
     id="path268" />
  <path
     style="fill:#231f20;fill-opacity:1;fill-rule:nonzero;stroke:none"
     d="m 10.413647,52.429698 c 0.6505,0.254 0.8599,2.562 0.5677,2.692 -0.2922,0.13 -0.2761,-0.635 -0.6094,-0.506 -0.3282,0.131 -0.2599,0.626 -0.4891002,0.652 -0.2509,0.026 -0.24,-0.578 -0.5323,-0.49 -0.1197,0.037 -0.3437,0.589 -0.5306,0.548 -0.161,-0.032 -0.3547,-0.516 -0.4891,-0.548 -0.2041,-0.058 -0.2708,0.553 -0.448,0.526 -0.4588,-0.078 0.1917,-2.713 0.4052,-2.822 0.3131,-0.167 1.0787,-0.47 2.1256002,-0.052"
     id="path269" />
  <path
     style="fill:none;stroke:#231f20;stroke-width:0.565977;stroke-linecap:round;stroke-linejoin:round;stroke-miterlimit:4;stroke-dasharray:none;stroke-opacity:1"
     d="m 10.413647,52.429698 c 0.6505,0.254 0.8599,2.562 0.5677,2.692 -0.2922,0.13 -0.2761,-0.635 -0.6094,-0.506 -0.3282,0.131 -0.2599,0.626 -0.4891002,0.652 -0.2509,0.026 -0.24,-0.578 -0.5323,-0.49 -0.1197,0.037 -0.3437,0.589 -0.5306,0.548 -0.161,-0.032 -0.3547,-0.516 -0.4891,-0.548 -0.2041,-0.058 -0.2708,0.553 -0.448,0.526 -0.4588,-0.078 0.1917,-2.713 0.4052,-2.822 0.3131,-0.167 1.0787,-0.47 2.1256002,-0.052 z"
     id="path270" />
  <path
     style="fill:#ca0369;fill-opacity:1;fill-rule:nonzero;stroke:none"
     d="m 78.283547,37.309698 c -3.318,-1.136 -4.286,-1.271 -5.396,-1.542 -5.614,-1.376 -6.297,-0.276 -6.964,2.02 -0.947,3.256 -1.156,5.131 5.031,6.303 4.693,0.885 8.052,2.219 8.052,2.219 1.491,1.13 4.975,2.01 5.819,1.661 1.421,-0.584 1.125,-0.516 2.062,-1.615 1.739,-2.041 1.302,-3.156 0.558,-4.082 -0.74,-0.928 -1.626,-1.475 -4.147,-2.71 -1.959,-0.962 -5.015,-2.254 -5.015,-2.254"
     id="path271" />
  <path
     style="fill:none;stroke:#231f20;stroke-width:0.565977;stroke-linecap:butt;stroke-linejoin:miter;stroke-miterlimit:4;stroke-dasharray:none;stroke-opacity:1"
     d="m 78.283547,37.309698 c -3.318,-1.136 -4.286,-1.271 -5.396,-1.542 -5.614,-1.376 -6.297,-0.276 -6.964,2.02 -0.947,3.256 -1.156,5.131 5.031,6.303 4.693,0.885 8.052,2.219 8.052,2.219 1.491,1.13 4.975,2.01 5.819,1.661 1.421,-0.584 1.125,-0.516 2.062,-1.615 1.739,-2.041 1.302,-3.156 0.558,-4.082 -0.74,-0.928 -1.626,-1.475 -4.147,-2.71 -1.959,-0.962 -5.015,-2.254 -5.015,-2.254 z"
     id="path272" />
  <path
     style="fill:#231f20;fill-opacity:1;fill-rule:nonzero;stroke:none"
     d="m 58.606547,74.110698 c -0.849,-1.052 -0.349,-1.905 0.629,-2.249 0.293,-0.104 0.434,-0.495 0.73,-0.574 0.677,-0.181 2.152,0.751 1.688,2.178 -0.032,0.104 -0.042,0.921 -0.142,1.532 -0.192,1.197 -1.176,3.489 -3.686,4.478 -1.188,0.468 -1.245,-0.322 -0.819,-0.661 1.339,-1.058 1.251,-1.412 1.505,-1.817 0.86,-1.376 0.095,-2.887 0.095,-2.887"
     id="path273" />
  <path
     style="fill:none;stroke:#231f20;stroke-width:0.332927;stroke-linecap:butt;stroke-linejoin:miter;stroke-miterlimit:4;stroke-dasharray:none;stroke-opacity:1"
     d="m 58.606547,74.110698 c -0.849,-1.052 -0.349,-1.905 0.629,-2.249 0.293,-0.104 0.434,-0.495 0.73,-0.574 0.677,-0.181 2.152,0.751 1.688,2.178 -0.032,0.104 -0.042,0.921 -0.142,1.532 -0.192,1.197 -1.176,3.489 -3.686,4.478 -1.188,0.468 -1.245,-0.322 -0.819,-0.661 1.339,-1.058 1.251,-1.412 1.505,-1.817 0.86,-1.376 0.095,-2.887 0.095,-2.887 z"
     id="path274" />
  <path
     style="fill:#231f20;fill-opacity:1;fill-rule:nonzero;stroke:none"
     d="m 64.669547,56.377698 c -2.11,-0.828 -2.631,-0.704 -3.043,0.166 -0.265,0.572 -0.719,1.015 -0.9,1.359 -0.609,1.147 -1.157,3.328 -1.1,9.907 0.016,1.5 0.021,3.593 -0.046,4.448 -0.104,1.349 2.213,0.609 2.261,0.077 0.156,-1.703 0.394,-2.869 0.53,-3.473 0.099,-0.418 0.167,-1.178 0.74,-2.74 0.875,-2.37 1.75,-3.662 2.25,-5.714 0.229,-0.958 1.01,-1.525 0.76,-2.578 -0.25,-1.056 -1.452,-1.452 -1.452,-1.452"
     id="path275" />
  <path
     style="fill:none;stroke:#231f20;stroke-width:0.565977;stroke-linecap:butt;stroke-linejoin:miter;stroke-miterlimit:4;stroke-dasharray:none;stroke-opacity:1"
     d="m 64.669547,56.377698 c -2.11,-0.828 -2.631,-0.704 -3.043,0.166 -0.265,0.572 -0.719,1.015 -0.9,1.359 -0.609,1.147 -1.157,3.328 -1.1,9.907 0.016,1.5 0.021,3.593 -0.046,4.448 -0.104,1.349 2.213,0.609 2.261,0.077 0.156,-1.703 0.394,-2.869 0.53,-3.473 0.099,-0.418 0.167,-1.178 0.74,-2.74 0.875,-2.37 1.75,-3.662 2.25,-5.714 0.229,-0.958 1.01,-1.525 0.76,-2.578 -0.25,-1.056 -1.452,-1.452 -1.452,-1.452 z"
     id="path276" />
  <path
     style="fill:#231f20;fill-opacity:1;fill-rule:nonzero;stroke:none"
     d="m 63.262547,58.413698 c 3.599,1.77 3.573,-2.312 3.792,-2.74 2.233,-4.479 2.285,-4.859 3.744,-8.391 2.12,-5.104 2.782,-8.927 0.177,-11.025 -1.776,-1.428 -3.412,-1.48 -4.557,-0.828 -1.265,0.718 -3,3.39 -1.792,6.01 l -0.203,1.703 c -0.297,1.12 -0.426,1.683 -0.614,2.229 -0.328,0.943 -0.61,1.984 -1.14,3.87 -0.943,3.338 -0.844,7.182 -0.844,7.182 -0.308,1.203 1.437,1.99 1.437,1.99"
     id="path277" />
  <path
     style="fill:none;stroke:#231f20;stroke-width:0.565977;stroke-linecap:butt;stroke-linejoin:miter;stroke-miterlimit:4;stroke-dasharray:none;stroke-opacity:1"
     d="m 63.262547,58.413698 c 3.599,1.77 3.573,-2.312 3.792,-2.74 2.233,-4.479 2.285,-4.859 3.744,-8.391 2.12,-5.104 2.782,-8.927 0.177,-11.025 -1.776,-1.428 -3.412,-1.48 -4.557,-0.828 -1.265,0.718 -3,3.39 -1.792,6.01 l -0.203,1.703 c -0.297,1.12 -0.426,1.683 -0.614,2.229 -0.328,0.943 -0.61,1.984 -1.14,3.87 -0.943,3.338 -0.844,7.182 -0.844,7.182 -0.308,1.203 1.437,1.99 1.437,1.99 z"
     id="path278" />
  <path
     style="fill:#231f20;fill-opacity:1;fill-rule:nonzero;stroke:none"
     d="m 66.549547,75.465698 c -1.063,-0.839 -0.766,-1.782 0.109,-2.334 0.26,-0.166 0.317,-0.582 0.583,-0.724 0.62,-0.328 2.27,0.256 2.135,1.746 -0.01,0.109 0.162,0.91 0.204,1.53 0.073,1.208 -0.375,3.661 -2.599,5.183 -1.058,0.724 -1.287,-0.037 -0.943,-0.459 1.068,-1.328 0.901,-1.656 1.062,-2.109 0.526,-1.531 -0.551,-2.833 -0.551,-2.833"
     id="path279" />
  <path
     style="fill:none;stroke:#231f20;stroke-width:0.332927;stroke-linecap:butt;stroke-linejoin:miter;stroke-miterlimit:4;stroke-dasharray:none;stroke-opacity:1"
     d="m 66.549547,75.465698 c -1.063,-0.839 -0.766,-1.782 0.109,-2.334 0.26,-0.166 0.317,-0.582 0.583,-0.724 0.62,-0.328 2.27,0.256 2.135,1.746 -0.01,0.109 0.162,0.91 0.204,1.53 0.073,1.208 -0.375,3.661 -2.599,5.183 -1.058,0.724 -1.287,-0.037 -0.943,-0.459 1.068,-1.328 0.901,-1.656 1.062,-2.109 0.526,-1.531 -0.551,-2.833 -0.551,-2.833 z"
     id="path280" />
  <path
     style="fill:#231f20;fill-opacity:1;fill-rule:nonzero;stroke:none"
     d="m 68.511547,56.825698 c -2.238,-0.334 -2.724,-0.1 -2.926,0.838 -0.135,0.619 -0.474,1.151 -0.579,1.531 -0.333,1.249 -0.385,3.495 1.136,9.901 0.344,1.454 0.817,3.495 0.943,4.344 0.198,1.338 2.291,0.099 2.224,-0.428 -0.235,-1.692 -0.255,-2.88 -0.26,-3.505 0.005,-0.421 -0.099,-1.181 0.114,-2.833 0.323,-2.506 0.891,-3.958 0.922,-6.072 0.01,-0.98 0.641,-1.715 0.166,-2.683 -0.478,-0.979 -1.74,-1.093 -1.74,-1.093"
     id="path281" />
  <path
     style="fill:none;stroke:#231f20;stroke-width:0.565977;stroke-linecap:butt;stroke-linejoin:miter;stroke-miterlimit:4;stroke-dasharray:none;stroke-opacity:1"
     d="m 68.511547,56.825698 c -2.238,-0.334 -2.724,-0.1 -2.926,0.838 -0.135,0.619 -0.474,1.151 -0.579,1.531 -0.333,1.249 -0.385,3.495 1.136,9.901 0.344,1.454 0.817,3.495 0.943,4.344 0.198,1.338 2.291,0.099 2.224,-0.428 -0.235,-1.692 -0.255,-2.88 -0.26,-3.505 0.005,-0.421 -0.099,-1.181 0.114,-2.833 0.323,-2.506 0.891,-3.958 0.922,-6.072 0.01,-0.98 0.641,-1.715 0.166,-2.683 -0.478,-0.979 -1.74,-1.093 -1.74,-1.093 z"
     id="path282" />
  <path
     style="fill:#ffffff;fill-opacity:1;fill-rule:nonzero;stroke:none"
     d="m 92.757547,50.189698 c 0.234,0.062 0.249,1.208 0.776,1.245 0.521,0.031 0.77,-0.719 2.62,-1.453 l 0.016,-0.006 c 1.369,-0.489 2.358,-1.474 2.541,-2.708 0.296,-2.057 -1.729,-4.052 -4.521,-4.458 -2.792,-0.407 -5.302,0.926 -5.599,2.984 -0.292,1.969 1.557,3.88 4.167,4.396"
     id="path283" />
  <path
     style="fill:none;stroke:#231f20;stroke-width:0.565977;stroke-linecap:butt;stroke-linejoin:miter;stroke-miterlimit:4;stroke-dasharray:none;stroke-opacity:1"
     d="m 92.757547,50.189698 c 0.234,0.062 0.249,1.208 0.776,1.245 0.521,0.031 0.77,-0.719 2.62,-1.453 l 0.016,-0.006 c 1.369,-0.489 2.358,-1.474 2.541,-2.708 0.296,-2.057 -1.729,-4.052 -4.521,-4.458 -2.792,-0.407 -5.302,0.926 -5.599,2.984 -0.292,1.969 1.557,3.88 4.167,4.396 z"
     id="path284" />
  <path
     style="fill:#231f20;fill-opacity:1;fill-rule:nonzero;stroke:none"
     d="m 67.595547,59.121698 c 3.902,0.928 2.968,-3.047 3.083,-3.511 1.183,-4.864 1.147,-5.249 1.787,-9.015 0.932,-5.448 0.729,-9.322 -2.282,-10.786 -2.046,-0.995 -3.65,-0.683 -4.624,0.202 -1.078,0.986 -2.172,3.975 -0.412,6.262 l 0.178,1.702 c -0.032,1.162 -0.038,1.74 -0.099,2.312 -0.109,0.995 -0.157,2.068 -0.25,4.027 -0.178,3.463 0.776,7.187 0.776,7.187 -0.031,1.245 1.843,1.62 1.843,1.62"
     id="path285" />
  <path
     style="fill:none;stroke:#231f20;stroke-width:0.565977;stroke-linecap:butt;stroke-linejoin:miter;stroke-miterlimit:4;stroke-dasharray:none;stroke-opacity:1"
     d="m 67.595547,59.121698 c 3.902,0.928 2.968,-3.047 3.083,-3.511 1.183,-4.864 1.147,-5.249 1.787,-9.015 0.932,-5.448 0.729,-9.322 -2.282,-10.786 -2.046,-0.995 -3.65,-0.683 -4.624,0.202 -1.078,0.986 -2.172,3.975 -0.412,6.262 l 0.178,1.702 c -0.032,1.162 -0.038,1.74 -0.099,2.312 -0.109,0.995 -0.157,2.068 -0.25,4.027 -0.178,3.463 0.776,7.187 0.776,7.187 -0.031,1.245 1.843,1.62 1.843,1.62 z"
     id="path286" />
  <path
     style="fill:#ca0369;fill-opacity:1;fill-rule:nonzero;stroke:none"
     d="m 70.183547,35.809698 c -2.046,-0.995 -3.65,-0.683 -4.624,0.202 -1.073,0.986 -2.172,3.975 -0.412,6.262 l 7.74,1.098 c 0.301,-3.75 -0.324,-6.406 -2.704,-7.562"
     id="path287" />
  <path
     style="fill:none;stroke:#231f20;stroke-width:0.565977;stroke-linecap:butt;stroke-linejoin:miter;stroke-miterlimit:4;stroke-dasharray:none;stroke-opacity:1"
     d="m 70.183547,35.809698 c -2.046,-0.995 -3.65,-0.683 -4.624,0.202 -1.073,0.986 -2.172,3.975 -0.412,6.262 l 7.74,1.098 c 0.301,-3.75 -0.324,-6.406 -2.704,-7.562 z"
     id="path288" />
  <path
     style="fill:#231f20;fill-opacity:1;fill-rule:nonzero;stroke:none"
     d="m 76.230547,51.667698 c -0.385,-0.514 -0.255,-2.457 -0.765,-3.978 -0.348,-1.026 -0.089,-3.76 -0.511,-4.76 -0.385,-0.918 -0.479,-1.371 0.496,-1.995 0.572,-0.371 1.916,-0.704 2.213,-0.287 0.687,0.968 0.891,1.896 0.896,2.968 0,1.214 -0.276,4.511 -0.385,5.115 -0.272,1.5 0.072,2.152 0.036,2.552 -0.063,0.761 -0.365,0.923 -0.871,0.985 -0.946,0.124 -1.109,-0.6 -1.109,-0.6"
     id="path289" />
  <path
     style="fill:none;stroke:#231f20;stroke-width:0.565977;stroke-linecap:butt;stroke-linejoin:miter;stroke-miterlimit:4;stroke-dasharray:none;stroke-opacity:1"
     d="m 76.230547,51.667698 c -0.385,-0.514 -0.255,-2.457 -0.765,-3.978 -0.348,-1.026 -0.089,-3.76 -0.511,-4.76 -0.385,-0.918 -0.479,-1.371 0.496,-1.995 0.572,-0.371 1.916,-0.704 2.213,-0.287 0.687,0.968 0.891,1.896 0.896,2.968 0,1.214 -0.276,4.511 -0.385,5.115 -0.272,1.5 0.072,2.152 0.036,2.552 -0.063,0.761 -0.365,0.923 -0.871,0.985 -0.946,0.124 -1.109,-0.6 -1.109,-0.6 z"
     id="path290" />
  <path
     style="fill:#231f20;fill-opacity:1;fill-rule:nonzero;stroke:none"
     d="m 74.913547,41.194698 c 0.229,-1.271 2.136,-0.552 2.667,-0.437 0.526,0.114 2.078,0.265 3.302,0.229 1.224,-0.043 2.765,0.437 5.093,0.369 1.219,-0.03 2.432,0.708 2.407,2.484 -0.027,1.751 -1.021,2.402 -2.505,2.219 -1.484,-0.181 -2.808,-0.979 -4.292,-1.265 -1.484,-0.287 -3.022,-0.443 -4.235,-0.506 -1.38,-0.068 -2.036,-0.62 -2.197,-1.068 -0.412,-1.124 -0.24,-2.025 -0.24,-2.025"
     id="path291" />
  <path
     style="fill:none;stroke:#231f20;stroke-width:0.565977;stroke-linecap:butt;stroke-linejoin:miter;stroke-miterlimit:4;stroke-dasharray:none;stroke-opacity:1"
     d="m 74.913547,41.194698 c 0.229,-1.271 2.136,-0.552 2.667,-0.437 0.526,0.114 2.078,0.265 3.302,0.229 1.224,-0.043 2.765,0.437 5.093,0.369 1.219,-0.03 2.432,0.708 2.407,2.484 -0.027,1.751 -1.021,2.402 -2.505,2.219 -1.484,-0.181 -2.808,-0.979 -4.292,-1.265 -1.484,-0.287 -3.022,-0.443 -4.235,-0.506 -1.38,-0.068 -2.036,-0.62 -2.197,-1.068 -0.412,-1.124 -0.24,-2.025 -0.24,-2.025 z"
     id="path292" />
  <path
     style="fill:#ffffff;fill-opacity:1;fill-rule:nonzero;stroke:#231f20;stroke-width:0.665856;stroke-linecap:butt;stroke-linejoin:miter;stroke-miterlimit:4;stroke-dasharray:none;stroke-opacity:1"
     d="m 77.095547,43.610698 h 1.334 V 1.2776976 h -1.334 z"
     id="path293" />
  <path
     style="fill:#ffffff;fill-opacity:1;fill-rule:nonzero;stroke:none"
     d="m 73.902547,48.543698 c 0,-2.354 1.917,-4.266 4.272,-4.266 2.353,0 4.265,1.912 4.265,4.266 0,2.354 -1.912,4.271 -4.265,4.271 -2.355,0 -4.272,-1.917 -4.272,-4.271 m -1.328,0 c 0,3.088 2.511,5.604 5.6,5.604 3.088,0 5.599,-2.516 5.599,-5.604 0,-3.089 -2.511,-5.6 -5.599,-5.6 -3.089,0 -5.6,2.511 -5.6,5.6"
     id="path294" />
  <path
     style="fill:none;stroke:#231f20;stroke-width:0.665856;stroke-linecap:butt;stroke-linejoin:miter;stroke-miterlimit:4;stroke-dasharray:none;stroke-opacity:1"
     d="m 73.902547,48.543698 c 0,-2.354 1.917,-4.266 4.272,-4.266 2.353,0 4.265,1.912 4.265,4.266 0,2.354 -1.912,4.271 -4.265,4.271 -2.355,0 -4.272,-1.917 -4.272,-4.271 z m -1.328,0 c 0,3.088 2.511,5.604 5.6,5.604 3.088,0 5.599,-2.516 5.599,-5.604 0,-3.089 -2.511,-5.6 -5.599,-5.6 -3.089,0 -5.6,2.511 -5.6,5.6 z"
     id="path295" />
  <path
     style="fill:#231f20;fill-opacity:1;fill-rule:nonzero;stroke:none"
     d="m 78.538547,51.470698 c 0.645,0.271 0.817,2.579 0.525,2.703 -0.29,0.13 -0.265,-0.64 -0.598,-0.51 -0.334,0.119 -0.277,0.619 -0.506,0.64 -0.244,0.022 -0.229,-0.584 -0.514,-0.5 -0.126,0.036 -0.355,0.583 -0.543,0.542 -0.167,-0.036 -0.348,-0.52 -0.479,-0.558 -0.208,-0.057 -0.281,0.552 -0.458,0.522 -0.458,-0.084 0.229,-2.703 0.442,-2.818 0.319,-0.161 1.09,-0.453 2.131,-0.021"
     id="path296" />
  <path
     style="fill:none;stroke:#231f20;stroke-width:0.565977;stroke-linecap:round;stroke-linejoin:round;stroke-miterlimit:4;stroke-dasharray:none;stroke-opacity:1"
     d="m 78.538547,51.470698 c 0.645,0.271 0.817,2.579 0.525,2.703 -0.29,0.13 -0.265,-0.64 -0.598,-0.51 -0.334,0.119 -0.277,0.619 -0.506,0.64 -0.244,0.022 -0.229,-0.584 -0.514,-0.5 -0.126,0.036 -0.355,0.583 -0.543,0.542 -0.167,-0.036 -0.348,-0.52 -0.479,-0.558 -0.208,-0.057 -0.281,0.552 -0.458,0.522 -0.458,-0.084 0.229,-2.703 0.442,-2.818 0.319,-0.161 1.09,-0.453 2.131,-0.021 z"
     id="path297" />
  <path
     style="fill:#ca0369;fill-opacity:1;fill-rule:nonzero;stroke:none"
     d="m 172.55955,34.501698 c -0.22,-3.504 -0.464,-4.448 -0.641,-5.578 -0.875,-5.713 -2.151,-5.922 -4.531,-5.661 -3.371,0.369 -5.183,0.9 -3.896,7.063 0.979,4.672 1.031,8.29 1.031,8.29 -0.474,1.803 0.052,5.366 0.693,6.011 1.083,1.089 0.911,0.839 2.287,1.287 2.546,0.822 3.41,-0.011 3.984,-1.047 0.573,-1.041 0.74,-2.068 0.916,-4.875 0.136,-2.172 0.157,-5.49 0.157,-5.49"
     id="path298" />
  <path
     style="fill:none;stroke:#231f20;stroke-width:0.565977;stroke-linecap:butt;stroke-linejoin:miter;stroke-miterlimit:4;stroke-dasharray:none;stroke-opacity:1"
     d="m 172.55955,34.501698 c -0.22,-3.504 -0.464,-4.448 -0.641,-5.578 -0.875,-5.713 -2.151,-5.922 -4.531,-5.661 -3.371,0.369 -5.183,0.9 -3.896,7.063 0.979,4.672 1.031,8.29 1.031,8.29 -0.474,1.803 0.052,5.366 0.693,6.011 1.083,1.089 0.911,0.839 2.287,1.287 2.546,0.822 3.41,-0.011 3.984,-1.047 0.573,-1.041 0.74,-2.068 0.916,-4.875 0.136,-2.172 0.157,-5.49 0.157,-5.49 z"
     id="path299" />
  <path
     style="fill:#231f20;fill-opacity:1;fill-rule:nonzero;stroke:none"
     d="m 132.65355,14.626698 c 1.088,-0.797 1.921,-0.26 2.224,0.729 0.088,0.298 0.473,0.459 0.541,0.755 0.151,0.688 -0.849,2.12 -2.249,1.595 -0.106,-0.042 -0.923,-0.09 -1.527,-0.214 -1.188,-0.25 -3.437,-1.333 -4.307,-3.881 -0.417,-1.208 0.375,-1.228 0.692,-0.791 1,1.391 1.36,1.312 1.751,1.588 1.339,0.918 2.875,0.219 2.875,0.219"
     id="path300" />
  <path
     style="fill:none;stroke:#231f20;stroke-width:0.332927;stroke-linecap:butt;stroke-linejoin:miter;stroke-miterlimit:4;stroke-dasharray:none;stroke-opacity:1"
     d="m 132.65355,14.626698 c 1.088,-0.797 1.921,-0.26 2.224,0.729 0.088,0.298 0.473,0.459 0.541,0.755 0.151,0.688 -0.849,2.12 -2.249,1.595 -0.106,-0.042 -0.923,-0.09 -1.527,-0.214 -1.188,-0.25 -3.437,-1.333 -4.307,-3.881 -0.417,-1.208 0.375,-1.228 0.692,-0.791 1,1.391 1.36,1.312 1.751,1.588 1.339,0.918 2.875,0.219 2.875,0.219 z"
     id="path301" />
  <path
     style="fill:#231f20;fill-opacity:1;fill-rule:nonzero;stroke:none"
     d="m 150.10655,21.481698 c 0.916,-2.068 0.817,-2.599 -0.032,-3.047 -0.563,-0.297 -0.99,-0.761 -1.323,-0.964 -1.12,-0.656 -3.27,-1.303 -9.849,-1.536 -1.495,-0.057 -3.583,-0.141 -4.437,-0.251 -1.344,-0.161 -0.703,2.188 -0.178,2.256 1.699,0.228 2.844,0.526 3.443,0.687 0.412,0.115 1.172,0.219 2.709,0.865 2.328,0.979 3.578,1.906 5.604,2.5 0.943,0.271 1.484,1.078 2.541,0.87 1.074,-0.198 1.522,-1.38 1.522,-1.38"
     id="path302" />
  <path
     style="fill:none;stroke:#231f20;stroke-width:0.565977;stroke-linecap:butt;stroke-linejoin:miter;stroke-miterlimit:4;stroke-dasharray:none;stroke-opacity:1"
     d="m 150.10655,21.481698 c 0.916,-2.068 0.817,-2.599 -0.032,-3.047 -0.563,-0.297 -0.99,-0.761 -1.323,-0.964 -1.12,-0.656 -3.27,-1.303 -9.849,-1.536 -1.495,-0.057 -3.583,-0.141 -4.437,-0.251 -1.344,-0.161 -0.703,2.188 -0.178,2.256 1.699,0.228 2.844,0.526 3.443,0.687 0.412,0.115 1.172,0.219 2.709,0.865 2.328,0.979 3.578,1.906 5.604,2.5 0.943,0.271 1.484,1.078 2.541,0.87 1.074,-0.198 1.522,-1.38 1.522,-1.38 z"
     id="path303" />
  <path
     style="fill:#231f20;fill-opacity:1;fill-rule:nonzero;stroke:none"
     d="m 148.13155,19.986698 c -1.932,3.515 2.147,3.672 2.563,3.905 4.374,2.439 4.756,2.5 8.218,4.115 5.006,2.349 8.798,3.188 11.006,0.672 1.5,-1.703 1.63,-3.339 1.032,-4.511 -0.663,-1.301 -3.251,-3.15 -5.923,-2.061 l -1.692,-0.281 c -1.109,-0.344 -1.663,-0.5 -2.204,-0.715 -0.927,-0.369 -1.953,-0.697 -3.812,-1.312 -3.292,-1.093 -7.136,-1.161 -7.136,-1.161 -1.192,-0.364 -2.052,1.349 -2.052,1.349"
     id="path304" />
  <path
     style="fill:none;stroke:#231f20;stroke-width:0.565977;stroke-linecap:butt;stroke-linejoin:miter;stroke-miterlimit:4;stroke-dasharray:none;stroke-opacity:1"
     d="m 148.13155,19.986698 c -1.932,3.515 2.147,3.672 2.563,3.905 4.374,2.439 4.756,2.5 8.218,4.115 5.006,2.349 8.798,3.188 11.006,0.672 1.5,-1.703 1.63,-3.339 1.032,-4.511 -0.663,-1.301 -3.251,-3.15 -5.923,-2.061 l -1.692,-0.281 c -1.109,-0.344 -1.663,-0.5 -2.204,-0.715 -0.927,-0.369 -1.953,-0.697 -3.812,-1.312 -3.292,-1.093 -7.136,-1.161 -7.136,-1.161 -1.192,-0.364 -2.052,1.349 -2.052,1.349 z"
     id="path305" />
  <path
     style="fill:#231f20;fill-opacity:1;fill-rule:nonzero;stroke:none"
     d="m 130.74155,28.079698 c 0.718,-1.145 1.693,-0.953 2.338,-0.14 0.194,0.239 0.61,0.25 0.782,0.5 0.39,0.583 -0.011,2.28 -1.506,2.307 -0.114,0.005 -0.89,0.265 -1.494,0.369 -1.198,0.204 -3.687,0.027 -5.438,-2.02 -0.833,-0.969 -0.104,-1.281 0.355,-0.989 1.437,0.921 1.744,0.719 2.213,0.828 1.578,0.359 2.75,-0.855 2.75,-0.855"
     id="path306" />
  <path
     style="fill:none;stroke:#231f20;stroke-width:0.332927;stroke-linecap:butt;stroke-linejoin:miter;stroke-miterlimit:4;stroke-dasharray:none;stroke-opacity:1"
     d="m 130.74155,28.079698 c 0.718,-1.145 1.693,-0.953 2.338,-0.14 0.194,0.239 0.61,0.25 0.782,0.5 0.39,0.583 -0.011,2.28 -1.506,2.307 -0.114,0.005 -0.89,0.265 -1.494,0.369 -1.198,0.204 -3.687,0.027 -5.438,-2.02 -0.833,-0.969 -0.104,-1.281 0.355,-0.989 1.437,0.921 1.744,0.719 2.213,0.828 1.578,0.359 2.75,-0.855 2.75,-0.855 z"
     id="path307" />
  <path
     style="fill:#231f20;fill-opacity:1;fill-rule:nonzero;stroke:none"
     d="m 149.49155,28.011698 c 0.088,-2.26 -0.199,-2.718 -1.152,-2.817 -0.635,-0.068 -1.197,-0.349 -1.583,-0.407 -1.286,-0.202 -3.521,-0.005 -9.723,2.199 -1.407,0.5 -3.386,1.192 -4.214,1.405 -1.312,0.35 0.151,2.292 0.662,2.167 1.666,-0.411 2.838,-0.567 3.458,-0.635 0.427,-0.046 1.167,-0.229 2.834,-0.198 2.525,0.052 4.03,0.458 6.134,0.256 0.975,-0.095 1.771,0.458 2.683,-0.126 0.921,-0.578 0.901,-1.844 0.901,-1.844"
     id="path308" />
  <path
     style="fill:none;stroke:#231f20;stroke-width:0.565977;stroke-linecap:butt;stroke-linejoin:miter;stroke-miterlimit:4;stroke-dasharray:none;stroke-opacity:1"
     d="m 149.49155,28.011698 c 0.088,-2.26 -0.199,-2.718 -1.152,-2.817 -0.635,-0.068 -1.197,-0.349 -1.583,-0.407 -1.286,-0.202 -3.521,-0.005 -9.723,2.199 -1.407,0.5 -3.386,1.192 -4.214,1.405 -1.312,0.35 0.151,2.292 0.662,2.167 1.666,-0.411 2.838,-0.567 3.458,-0.635 0.427,-0.046 1.167,-0.229 2.834,-0.198 2.525,0.052 4.03,0.458 6.134,0.256 0.975,-0.095 1.771,0.458 2.683,-0.126 0.921,-0.578 0.901,-1.844 0.901,-1.844 z"
     id="path309" />
  <path
     style="fill:#ffffff;fill-opacity:1;fill-rule:nonzero;stroke:none"
     d="m 166.20455,52.798698 c 0.031,0.245 -1.026,0.697 -0.854,1.193 0.172,0.5 0.958,0.443 2.344,1.864 l 0.016,0.016 c 0.973,1.078 2.26,1.615 3.468,1.307 2.016,-0.511 3.089,-3.145 2.39,-5.88 -0.692,-2.74 -2.885,-4.541 -4.9,-4.031 -1.928,0.49 -2.99,2.927 -2.464,5.531"
     id="path310" />
  <path
     style="fill:none;stroke:#231f20;stroke-width:0.565977;stroke-linecap:butt;stroke-linejoin:miter;stroke-miterlimit:4;stroke-dasharray:none;stroke-opacity:1"
     d="m 166.20455,52.798698 c 0.031,0.245 -1.026,0.697 -0.854,1.193 0.172,0.5 0.958,0.443 2.344,1.864 l 0.016,0.016 c 0.973,1.078 2.26,1.615 3.468,1.307 2.016,-0.511 3.089,-3.145 2.39,-5.88 -0.692,-2.74 -2.885,-4.541 -4.9,-4.031 -1.928,0.49 -2.99,2.927 -2.464,5.531 z"
     id="path311" />
  <path
     style="fill:#231f20;fill-opacity:1;fill-rule:nonzero;stroke:none"
     d="m 147.10655,27.350698 c -0.5,3.98 3.353,2.62 3.822,2.683 4.968,0.65 5.344,0.573 9.156,0.796 5.522,0.338 9.355,-0.286 10.479,-3.438 0.767,-2.14 0.281,-3.702 -0.708,-4.572 -1.093,-0.964 -4.183,-1.729 -6.265,0.271 l -1.678,0.359 c -1.156,0.094 -1.729,0.152 -2.306,0.152 -1,0 -2.074,0.072 -4.027,0.186 -3.463,0.199 -7.068,1.552 -7.068,1.552 -1.239,0.1 -1.405,2.011 -1.405,2.011"
     id="path312" />
  <path
     style="fill:none;stroke:#231f20;stroke-width:0.565977;stroke-linecap:butt;stroke-linejoin:miter;stroke-miterlimit:4;stroke-dasharray:none;stroke-opacity:1"
     d="m 147.10655,27.350698 c -0.5,3.98 3.353,2.62 3.822,2.683 4.968,0.65 5.344,0.573 9.156,0.796 5.522,0.338 9.355,-0.286 10.479,-3.438 0.767,-2.14 0.281,-3.702 -0.708,-4.572 -1.093,-0.964 -4.183,-1.729 -6.265,0.271 l -1.678,0.359 c -1.156,0.094 -1.729,0.152 -2.306,0.152 -1,0 -2.074,0.072 -4.027,0.186 -3.463,0.199 -7.068,1.552 -7.068,1.552 -1.239,0.1 -1.405,2.011 -1.405,2.011 z"
     id="path313" />
  <path
     style="fill:#ca0369;fill-opacity:1;fill-rule:nonzero;stroke:none"
     d="m 169.85555,22.819698 c -1.093,-0.964 -4.183,-1.724 -6.265,0.271 l -0.251,7.812 c 3.761,-0.109 6.333,-1.016 7.224,-3.511 0.767,-2.134 0.281,-3.702 -0.708,-4.572"
     id="path314" />
  <path
     style="fill:none;stroke:#231f20;stroke-width:0.565977;stroke-linecap:butt;stroke-linejoin:miter;stroke-miterlimit:4;stroke-dasharray:none;stroke-opacity:1"
     d="m 169.85555,22.819698 c -1.093,-0.964 -4.183,-1.724 -6.265,0.271 l -0.251,7.812 c 3.761,-0.109 6.333,-1.016 7.224,-3.511 0.767,-2.134 0.281,-3.702 -0.708,-4.572 z"
     id="path315" />
  <path
     style="fill:#231f20;fill-opacity:1;fill-rule:nonzero;stroke:none"
     d="m 159.74055,51.667698 c -0.39,-0.514 -0.254,-2.457 -0.77,-3.978 -0.35,-1.026 -0.088,-3.76 -0.506,-4.76 -0.385,-0.918 -0.478,-1.371 0.49,-1.995 0.573,-0.371 1.922,-0.704 2.22,-0.287 0.681,0.968 0.885,1.896 0.889,2.968 0.005,1.214 -0.276,4.511 -0.385,5.115 -0.271,1.5 0.078,2.152 0.042,2.552 -0.062,0.761 -0.37,0.923 -0.87,0.985 -0.948,0.124 -1.11,-0.6 -1.11,-0.6"
     id="path316" />
  <path
     style="fill:none;stroke:#231f20;stroke-width:0.565977;stroke-linecap:butt;stroke-linejoin:miter;stroke-miterlimit:4;stroke-dasharray:none;stroke-opacity:1"
     d="m 159.74055,51.667698 c -0.39,-0.514 -0.254,-2.457 -0.77,-3.978 -0.35,-1.026 -0.088,-3.76 -0.506,-4.76 -0.385,-0.918 -0.478,-1.371 0.49,-1.995 0.573,-0.371 1.922,-0.704 2.22,-0.287 0.681,0.968 0.885,1.896 0.889,2.968 0.005,1.214 -0.276,4.511 -0.385,5.115 -0.271,1.5 0.078,2.152 0.042,2.552 -0.062,0.761 -0.37,0.923 -0.87,0.985 -0.948,0.124 -1.11,-0.6 -1.11,-0.6 z"
     id="path317" />
  <path
     style="fill:#231f20;fill-opacity:1;fill-rule:nonzero;stroke:none"
     d="m 158.42355,41.194698 c 0.229,-1.271 2.136,-0.552 2.661,-0.437 0.532,0.114 2.084,0.265 3.303,0.229 1.224,-0.043 2.771,0.437 5.093,0.369 1.224,-0.03 2.432,0.708 2.412,2.484 -0.026,1.751 -1.026,2.402 -2.51,2.219 -1.486,-0.181 -2.803,-0.979 -4.292,-1.265 -1.479,-0.287 -3.022,-0.443 -4.235,-0.506 -1.38,-0.068 -2.036,-0.62 -2.197,-1.068 -0.412,-1.124 -0.235,-2.025 -0.235,-2.025"
     id="path318" />
  <path
     style="fill:none;stroke:#231f20;stroke-width:0.565977;stroke-linecap:butt;stroke-linejoin:miter;stroke-miterlimit:4;stroke-dasharray:none;stroke-opacity:1"
     d="m 158.42355,41.194698 c 0.229,-1.271 2.136,-0.552 2.661,-0.437 0.532,0.114 2.084,0.265 3.303,0.229 1.224,-0.043 2.771,0.437 5.093,0.369 1.224,-0.03 2.432,0.708 2.412,2.484 -0.026,1.751 -1.026,2.402 -2.51,2.219 -1.486,-0.181 -2.803,-0.979 -4.292,-1.265 -1.479,-0.287 -3.022,-0.443 -4.235,-0.506 -1.38,-0.068 -2.036,-0.62 -2.197,-1.068 -0.412,-1.124 -0.235,-2.025 -0.235,-2.025 z"
     id="path319" />
  <path
     style="fill:#ffffff;fill-opacity:1;fill-rule:nonzero;stroke:#231f20;stroke-width:0.665856;stroke-linecap:butt;stroke-linejoin:miter;stroke-miterlimit:4;stroke-dasharray:none;stroke-opacity:1"
     d="m 160.60655,43.610698 h 1.333 V 1.2776976 h -1.333 z"
     id="path320" />
  <path
     style="fill:#ffffff;fill-opacity:1;fill-rule:nonzero;stroke:none"
     d="m 157.41255,48.543698 c 0,-2.354 1.912,-4.266 4.271,-4.266 2.355,0 4.267,1.912 4.267,4.266 0,2.354 -1.912,4.271 -4.267,4.271 -2.359,0 -4.271,-1.917 -4.271,-4.271 m -1.333,0 c 0,3.088 2.516,5.604 5.604,5.604 3.084,0 5.6,-2.516 5.6,-5.604 0,-3.089 -2.516,-5.6 -5.6,-5.6 -3.088,0 -5.604,2.511 -5.604,5.6"
     id="path321" />
  <path
     style="fill:none;stroke:#231f20;stroke-width:0.665856;stroke-linecap:butt;stroke-linejoin:miter;stroke-miterlimit:4;stroke-dasharray:none;stroke-opacity:1"
     d="m 157.41255,48.543698 c 0,-2.354 1.912,-4.266 4.271,-4.266 2.355,0 4.267,1.912 4.267,4.266 0,2.354 -1.912,4.271 -4.267,4.271 -2.359,0 -4.271,-1.917 -4.271,-4.271 z m -1.333,0 c 0,3.088 2.516,5.604 5.604,5.604 3.084,0 5.6,-2.516 5.6,-5.604 0,-3.089 -2.516,-5.6 -5.6,-5.6 -3.088,0 -5.604,2.511 -5.604,5.6 z"
     id="path322" />
  <path
     style="fill:#231f20;fill-opacity:1;fill-rule:nonzero;stroke:none"
     d="m 162.04855,51.470698 c 0.64,0.271 0.818,2.579 0.526,2.703 -0.291,0.13 -0.266,-0.64 -0.599,-0.51 -0.339,0.119 -0.276,0.619 -0.505,0.64 -0.25,0.022 -0.23,-0.584 -0.516,-0.5 -0.13,0.036 -0.359,0.583 -0.547,0.542 -0.161,-0.036 -0.348,-0.52 -0.479,-0.558 -0.202,-0.057 -0.281,0.552 -0.458,0.522 -0.454,-0.084 0.234,-2.703 0.448,-2.818 0.317,-0.161 1.088,-0.453 2.13,-0.021"
     id="path323" />
  <path
     style="fill:none;stroke:#231f20;stroke-width:0.565977;stroke-linecap:round;stroke-linejoin:round;stroke-miterlimit:4;stroke-dasharray:none;stroke-opacity:1"
     d="m 162.04855,51.470698 c 0.64,0.271 0.818,2.579 0.526,2.703 -0.291,0.13 -0.266,-0.64 -0.599,-0.51 -0.339,0.119 -0.276,0.619 -0.505,0.64 -0.25,0.022 -0.23,-0.584 -0.516,-0.5 -0.13,0.036 -0.359,0.583 -0.547,0.542 -0.161,-0.036 -0.348,-0.52 -0.479,-0.558 -0.202,-0.057 -0.281,0.552 -0.458,0.522 -0.454,-0.084 0.234,-2.703 0.448,-2.818 0.317,-0.161 1.088,-0.453 2.13,-0.021 z"
     id="path324" />
  <path
     style="fill:#ca0369;fill-opacity:1;fill-rule:nonzero;stroke:none"
     d="m 247.90255,34.501698 c -0.219,-3.504 -0.468,-4.448 -0.64,-5.578 -0.88,-5.713 -2.156,-5.922 -4.532,-5.661 -3.375,0.369 -5.182,0.9 -3.895,7.063 0.979,4.672 1.031,8.29 1.031,8.29 -0.474,1.803 0.052,5.366 0.693,6.011 1.083,1.089 0.905,0.839 2.285,1.287 2.548,0.822 3.412,-0.011 3.986,-1.047 0.566,-1.041 0.733,-2.068 0.91,-4.875 0.142,-2.172 0.162,-5.49 0.162,-5.49"
     id="path325" />
  <path
     style="fill:none;stroke:#231f20;stroke-width:0.565977;stroke-linecap:butt;stroke-linejoin:miter;stroke-miterlimit:4;stroke-dasharray:none;stroke-opacity:1"
     d="m 247.90255,34.501698 c -0.219,-3.504 -0.468,-4.448 -0.64,-5.578 -0.88,-5.713 -2.156,-5.922 -4.532,-5.661 -3.375,0.369 -5.182,0.9 -3.895,7.063 0.979,4.672 1.031,8.29 1.031,8.29 -0.474,1.803 0.052,5.366 0.693,6.011 1.083,1.089 0.905,0.839 2.285,1.287 2.548,0.822 3.412,-0.011 3.986,-1.047 0.566,-1.041 0.733,-2.068 0.91,-4.875 0.142,-2.172 0.162,-5.49 0.162,-5.49 z"
     id="path326" />
  <path
     style="fill:#231f20;fill-opacity:1;fill-rule:nonzero;stroke:none"
     d="m 206.74655,17.219698 c 1.026,-0.88 1.896,-0.41 2.27,0.558 0.115,0.286 0.511,0.422 0.595,0.709 0.208,0.672 -0.683,2.177 -2.12,1.76 -0.104,-0.031 -0.928,-0.016 -1.537,-0.093 -1.198,-0.162 -3.526,-1.074 -4.594,-3.547 -0.5,-1.172 0.282,-1.256 0.636,-0.839 1.104,1.307 1.454,1.208 1.864,1.448 1.407,0.818 2.886,0.004 2.886,0.004"
     id="path327" />
  <path
     style="fill:none;stroke:#231f20;stroke-width:0.332927;stroke-linecap:butt;stroke-linejoin:miter;stroke-miterlimit:4;stroke-dasharray:none;stroke-opacity:1"
     d="m 206.74655,17.219698 c 1.026,-0.88 1.896,-0.41 2.27,0.558 0.115,0.286 0.511,0.422 0.595,0.709 0.208,0.672 -0.683,2.177 -2.12,1.76 -0.104,-0.031 -0.928,-0.016 -1.537,-0.093 -1.198,-0.162 -3.526,-1.074 -4.594,-3.547 -0.5,-1.172 0.282,-1.256 0.636,-0.839 1.104,1.307 1.454,1.208 1.864,1.448 1.407,0.818 2.886,0.004 2.886,0.004 z"
     id="path328" />
  <path
     style="fill:#231f20;fill-opacity:1;fill-rule:nonzero;stroke:none"
     d="m 224.66855,22.725698 c 0.755,-2.13 0.619,-2.651 -0.266,-3.031 -0.578,-0.255 -1.042,-0.688 -1.386,-0.86 -1.172,-0.572 -3.358,-1.052 -9.942,-0.791 -1.49,0.063 -3.583,0.135 -4.438,0.094 -1.353,-0.063 -0.541,2.229 -0.01,2.26 1.709,0.098 2.881,0.308 3.49,0.422 0.416,0.083 1.176,0.13 2.76,0.656 2.396,0.802 3.714,1.635 5.782,2.068 0.958,0.198 1.557,0.958 2.598,0.676 1.052,-0.28 1.412,-1.494 1.412,-1.494"
     id="path329" />
  <path
     style="fill:none;stroke:#231f20;stroke-width:0.565977;stroke-linecap:butt;stroke-linejoin:miter;stroke-miterlimit:4;stroke-dasharray:none;stroke-opacity:1"
     d="m 224.66855,22.725698 c 0.755,-2.13 0.619,-2.651 -0.266,-3.031 -0.578,-0.255 -1.042,-0.688 -1.386,-0.86 -1.172,-0.572 -3.358,-1.052 -9.942,-0.791 -1.49,0.063 -3.583,0.135 -4.438,0.094 -1.353,-0.063 -0.541,2.229 -0.01,2.26 1.709,0.098 2.881,0.308 3.49,0.422 0.416,0.083 1.176,0.13 2.76,0.656 2.396,0.802 3.714,1.635 5.782,2.068 0.958,0.198 1.557,0.958 2.598,0.676 1.052,-0.28 1.412,-1.494 1.412,-1.494 z"
     id="path330" />
  <path
     style="fill:#231f20;fill-opacity:1;fill-rule:nonzero;stroke:none"
     d="m 222.58455,21.386698 c -1.656,3.652 2.422,3.496 2.855,3.699 4.547,2.098 4.932,2.134 8.505,3.484 5.167,1.964 9.015,2.505 11.026,-0.167 1.369,-1.817 1.369,-3.453 0.688,-4.577 -0.762,-1.246 -3.484,-2.896 -6.068,-1.606 l -1.708,-0.156 c -1.131,-0.254 -1.694,-0.369 -2.246,-0.541 -0.958,-0.297 -2,-0.547 -3.901,-1.021 -3.364,-0.838 -7.208,-0.615 -7.208,-0.615 -1.213,-0.271 -1.943,1.5 -1.943,1.5"
     id="path331" />
  <path
     style="fill:none;stroke:#231f20;stroke-width:0.565977;stroke-linecap:butt;stroke-linejoin:miter;stroke-miterlimit:4;stroke-dasharray:none;stroke-opacity:1"
     d="m 222.58455,21.386698 c -1.656,3.652 2.422,3.496 2.855,3.699 4.547,2.098 4.932,2.134 8.505,3.484 5.167,1.964 9.015,2.505 11.026,-0.167 1.369,-1.817 1.369,-3.453 0.688,-4.577 -0.762,-1.246 -3.484,-2.896 -6.068,-1.606 l -1.708,-0.156 c -1.131,-0.254 -1.694,-0.369 -2.246,-0.541 -0.958,-0.297 -2,-0.547 -3.901,-1.021 -3.364,-0.838 -7.208,-0.615 -7.208,-0.615 -1.213,-0.271 -1.943,1.5 -1.943,1.5 z"
     id="path332" />
  <path
     style="fill:#231f20;fill-opacity:1;fill-rule:nonzero;stroke:none"
     d="m 213.30855,3.8296976 c 1.298,-0.389 1.902,0.391 1.86,1.423 -0.016,0.312 0.291,0.593 0.255,0.89 -0.084,0.703 -1.505,1.719 -2.651,0.76 -0.084,-0.073 -0.838,-0.385 -1.365,-0.708 -1.036,-0.63 -2.801,-2.396 -2.776,-5.093 0.011,-1.27599994 0.761,-1.03699994 0.917,-0.51099994 0.479,1.63999994 0.844,1.68699994 1.124,2.07399994 0.954,1.312 2.636,1.165 2.636,1.165"
     id="path333" />
  <path
     style="fill:none;stroke:#231f20;stroke-width:0.332927;stroke-linecap:butt;stroke-linejoin:miter;stroke-miterlimit:4;stroke-dasharray:none;stroke-opacity:1"
     d="m 213.30855,3.8296976 c 1.298,-0.389 1.902,0.391 1.86,1.423 -0.016,0.312 0.291,0.593 0.255,0.89 -0.084,0.703 -1.505,1.719 -2.651,0.76 -0.084,-0.073 -0.838,-0.385 -1.365,-0.708 -1.036,-0.63 -2.801,-2.396 -2.776,-5.093 0.011,-1.27599994 0.761,-1.03699994 0.917,-0.51099994 0.479,1.63999994 0.844,1.68699994 1.124,2.07399994 0.954,1.312 2.636,1.165 2.636,1.165 z"
     id="path334" />
  <path
     style="fill:#231f20;fill-opacity:1;fill-rule:nonzero;stroke:none"
     d="m 227.49655,16.090698 c 1.552,-1.647 1.635,-2.177 0.979,-2.885 -0.427,-0.464 -0.677,-1.047 -0.927,-1.344 -0.833,-0.995 -2.652,-2.3170004 -8.776,-4.7240004 -1.39,-0.547 -3.333,-1.323 -4.104,-1.708 -1.214,-0.6 -1.39,1.823 -0.917,2.067 1.521,0.781 2.511,1.438 3.021,1.792 0.348,0.245 1.031,0.594 2.266,1.7130004 1.869,1.698 2.74,2.99 4.458,4.218 0.796,0.568 1.042,1.511 2.11,1.672 1.072,0.162 1.89,-0.801 1.89,-0.801"
     id="path335" />
  <path
     style="fill:none;stroke:#231f20;stroke-width:0.565977;stroke-linecap:butt;stroke-linejoin:miter;stroke-miterlimit:4;stroke-dasharray:none;stroke-opacity:1"
     d="m 227.49655,16.090698 c 1.552,-1.647 1.635,-2.177 0.979,-2.885 -0.427,-0.464 -0.677,-1.047 -0.927,-1.344 -0.833,-0.995 -2.652,-2.3170004 -8.776,-4.7240004 -1.39,-0.547 -3.333,-1.323 -4.104,-1.708 -1.214,-0.6 -1.39,1.823 -0.917,2.067 1.521,0.781 2.511,1.438 3.021,1.792 0.348,0.245 1.031,0.594 2.266,1.7130004 1.869,1.698 2.74,2.99 4.458,4.218 0.796,0.568 1.042,1.511 2.11,1.672 1.072,0.162 1.89,-0.801 1.89,-0.801 z"
     id="path336" />
  <path
     style="fill:#ffffff;fill-opacity:1;fill-rule:nonzero;stroke:none"
     d="m 241.54355,52.798698 c 0.036,0.245 -1.021,0.697 -0.849,1.193 0.172,0.5 0.953,0.443 2.338,1.864 l 0.022,0.016 c 0.973,1.078 2.254,1.615 3.468,1.307 2.016,-0.511 3.084,-3.145 2.39,-5.88 -0.692,-2.74 -2.89,-4.541 -4.901,-4.031 -1.927,0.49 -2.989,2.927 -2.468,5.531"
     id="path337" />
  <path
     style="fill:none;stroke:#231f20;stroke-width:0.565977;stroke-linecap:butt;stroke-linejoin:miter;stroke-miterlimit:4;stroke-dasharray:none;stroke-opacity:1"
     d="m 241.54355,52.798698 c 0.036,0.245 -1.021,0.697 -0.849,1.193 0.172,0.5 0.953,0.443 2.338,1.864 l 0.022,0.016 c 0.973,1.078 2.254,1.615 3.468,1.307 2.016,-0.511 3.084,-3.145 2.39,-5.88 -0.692,-2.74 -2.89,-4.541 -4.901,-4.031 -1.927,0.49 -2.989,2.927 -2.468,5.531 z"
     id="path338" />
  <path
     style="fill:#231f20;fill-opacity:1;fill-rule:nonzero;stroke:none"
     d="m 226.13155,14.022698 c -2.989,2.677 0.803,4.177 1.12,4.536 3.317,3.751 3.656,3.937 6.385,6.615 3.938,3.876 7.235,5.922 10.156,4.286 1.986,-1.109 2.647,-2.604 2.47,-3.91 -0.194,-1.448 -2.016,-4.054 -4.902,-3.912 l -1.5,-0.828 c -0.932,-0.694 -1.406,-1.027 -1.838,-1.402 -0.76,-0.661 -1.61,-1.312 -3.162,-2.505 -2.744,-2.125 -6.349,-3.468 -6.349,-3.468 -1,-0.74 -2.38,0.588 -2.38,0.588"
     id="path339" />
  <path
     style="fill:none;stroke:#231f20;stroke-width:0.565977;stroke-linecap:butt;stroke-linejoin:miter;stroke-miterlimit:4;stroke-dasharray:none;stroke-opacity:1"
     d="m 226.13155,14.022698 c -2.989,2.677 0.803,4.177 1.12,4.536 3.317,3.751 3.656,3.937 6.385,6.615 3.938,3.876 7.235,5.922 10.156,4.286 1.986,-1.109 2.647,-2.604 2.47,-3.91 -0.194,-1.448 -2.016,-4.054 -4.902,-3.912 l -1.5,-0.828 c -0.932,-0.694 -1.406,-1.027 -1.838,-1.402 -0.76,-0.661 -1.61,-1.312 -3.162,-2.505 -2.744,-2.125 -6.349,-3.468 -6.349,-3.468 -1,-0.74 -2.38,0.588 -2.38,0.588 z"
     id="path340" />
  <path
     style="fill:#ca0369;fill-opacity:1;fill-rule:nonzero;stroke:none"
     d="m 246.26755,25.549698 c -0.199,-1.448 -2.027,-4.054 -4.907,-3.912 l -5.322,5.724 c 2.912,2.385 5.448,3.39 7.754,2.098 1.986,-1.109 2.647,-2.609 2.475,-3.91"
     id="path341" />
  <path
     style="fill:none;stroke:#231f20;stroke-width:0.565977;stroke-linecap:butt;stroke-linejoin:miter;stroke-miterlimit:4;stroke-dasharray:none;stroke-opacity:1"
     d="m 246.26755,25.549698 c -0.199,-1.448 -2.027,-4.054 -4.907,-3.912 l -5.322,5.724 c 2.912,2.385 5.448,3.39 7.754,2.098 1.986,-1.109 2.647,-2.609 2.475,-3.91 z"
     id="path342" />
  <path
     style="fill:#231f20;fill-opacity:1;fill-rule:nonzero;stroke:none"
     d="m 235.07955,51.667698 c -0.385,-0.514 -0.249,-2.457 -0.765,-3.978 -0.35,-1.026 -0.088,-3.76 -0.511,-4.76 -0.385,-0.918 -0.479,-1.371 0.495,-1.995 0.573,-0.371 1.917,-0.704 2.218,-0.287 0.683,0.968 0.886,1.896 0.891,2.968 0,1.214 -0.276,4.511 -0.385,5.115 -0.271,1.5 0.078,2.152 0.037,2.552 -0.063,0.761 -0.365,0.923 -0.865,0.985 -0.954,0.124 -1.115,-0.6 -1.115,-0.6"
     id="path343" />
  <path
     style="fill:none;stroke:#231f20;stroke-width:0.565977;stroke-linecap:butt;stroke-linejoin:miter;stroke-miterlimit:4;stroke-dasharray:none;stroke-opacity:1"
     d="m 235.07955,51.667698 c -0.385,-0.514 -0.249,-2.457 -0.765,-3.978 -0.35,-1.026 -0.088,-3.76 -0.511,-4.76 -0.385,-0.918 -0.479,-1.371 0.495,-1.995 0.573,-0.371 1.917,-0.704 2.218,-0.287 0.683,0.968 0.886,1.896 0.891,2.968 0,1.214 -0.276,4.511 -0.385,5.115 -0.271,1.5 0.078,2.152 0.037,2.552 -0.063,0.761 -0.365,0.923 -0.865,0.985 -0.954,0.124 -1.115,-0.6 -1.115,-0.6 z"
     id="path344" />
  <path
     style="fill:#231f20;fill-opacity:1;fill-rule:nonzero;stroke:none"
     d="m 233.76255,41.194698 c 0.229,-1.271 2.134,-0.552 2.666,-0.437 0.531,0.114 2.079,0.265 3.302,0.229 1.224,-0.043 2.766,0.437 5.094,0.369 1.219,-0.03 2.432,0.708 2.406,2.484 -0.026,1.751 -1.02,2.402 -2.504,2.219 -1.486,-0.181 -2.808,-0.979 -4.292,-1.265 -1.48,-0.287 -3.022,-0.443 -4.235,-0.506 -1.38,-0.068 -2.036,-0.62 -2.197,-1.068 -0.412,-1.124 -0.24,-2.025 -0.24,-2.025"
     id="path345" />
  <path
     style="fill:none;stroke:#231f20;stroke-width:0.565977;stroke-linecap:butt;stroke-linejoin:miter;stroke-miterlimit:4;stroke-dasharray:none;stroke-opacity:1"
     d="m 233.76255,41.194698 c 0.229,-1.271 2.134,-0.552 2.666,-0.437 0.531,0.114 2.079,0.265 3.302,0.229 1.224,-0.043 2.766,0.437 5.094,0.369 1.219,-0.03 2.432,0.708 2.406,2.484 -0.026,1.751 -1.02,2.402 -2.504,2.219 -1.486,-0.181 -2.808,-0.979 -4.292,-1.265 -1.48,-0.287 -3.022,-0.443 -4.235,-0.506 -1.38,-0.068 -2.036,-0.62 -2.197,-1.068 -0.412,-1.124 -0.24,-2.025 -0.24,-2.025 z"
     id="path346" />
  <path
     style="fill:#ffffff;fill-opacity:1;fill-rule:nonzero;stroke:#231f20;stroke-width:0.665856;stroke-linecap:butt;stroke-linejoin:miter;stroke-miterlimit:4;stroke-dasharray:none;stroke-opacity:1"
     d="m 235.95055,43.610698 h 1.328 V 1.2776976 h -1.328 z"
     id="path347" />
  <path
     style="fill:#ffffff;fill-opacity:1;fill-rule:nonzero;stroke:none"
     d="m 232.75155,48.543698 c 0,-2.354 1.917,-4.266 4.271,-4.266 2.354,0 4.27,1.912 4.27,4.266 0,2.354 -1.916,4.271 -4.27,4.271 -2.354,0 -4.271,-1.917 -4.271,-4.271 m -1.328,0 c 0,3.088 2.511,5.604 5.599,5.604 3.089,0 5.598,-2.516 5.598,-5.604 0,-3.089 -2.509,-5.6 -5.598,-5.6 -3.088,0 -5.599,2.511 -5.599,5.6"
     id="path348" />
  <path
     style="fill:none;stroke:#231f20;stroke-width:0.665856;stroke-linecap:butt;stroke-linejoin:miter;stroke-miterlimit:4;stroke-dasharray:none;stroke-opacity:1"
     d="m 232.75155,48.543698 c 0,-2.354 1.917,-4.266 4.271,-4.266 2.354,0 4.27,1.912 4.27,4.266 0,2.354 -1.916,4.271 -4.27,4.271 -2.354,0 -4.271,-1.917 -4.271,-4.271 z m -1.328,0 c 0,3.088 2.511,5.604 5.599,5.604 3.089,0 5.598,-2.516 5.598,-5.604 0,-3.089 -2.509,-5.6 -5.598,-5.6 -3.088,0 -5.599,2.511 -5.599,5.6 z"
     id="path349" />
  <path
     style="fill:#231f20;fill-opacity:1;fill-rule:nonzero;stroke:none"
     d="m 237.38755,51.470698 c 0.645,0.271 0.823,2.579 0.531,2.703 -0.298,0.13 -0.271,-0.64 -0.604,-0.51 -0.334,0.119 -0.271,0.619 -0.5,0.64 -0.251,0.022 -0.23,-0.584 -0.522,-0.5 -0.124,0.036 -0.353,0.583 -0.541,0.542 -0.167,-0.036 -0.349,-0.52 -0.479,-0.558 -0.209,-0.057 -0.281,0.552 -0.458,0.522 -0.459,-0.084 0.234,-2.703 0.442,-2.818 0.323,-0.161 1.088,-0.453 2.131,-0.021"
     id="path350" />
  <path
     style="fill:none;stroke:#231f20;stroke-width:0.565977;stroke-linecap:round;stroke-linejoin:round;stroke-miterlimit:4;stroke-dasharray:none;stroke-opacity:1"
     d="m 237.38755,51.470698 c 0.645,0.271 0.823,2.579 0.531,2.703 -0.298,0.13 -0.271,-0.64 -0.604,-0.51 -0.334,0.119 -0.271,0.619 -0.5,0.64 -0.251,0.022 -0.23,-0.584 -0.522,-0.5 -0.124,0.036 -0.353,0.583 -0.541,0.542 -0.167,-0.036 -0.349,-0.52 -0.479,-0.558 -0.209,-0.057 -0.281,0.552 -0.458,0.522 -0.459,-0.084 0.234,-2.703 0.442,-2.818 0.323,-0.161 1.088,-0.453 2.131,-0.021 z"
     id="path351" />
  <path
     style="fill:#231f20;fill-opacity:1;fill-rule:nonzero;stroke:none"
     d="m 285.50155,15.553698 c 1.067,0.829 0.776,1.777 -0.089,2.338 -0.26,0.172 -0.312,0.584 -0.577,0.73 -0.62,0.333 -2.272,-0.235 -2.152,-1.724 0.01,-0.115 -0.172,-0.911 -0.219,-1.526 -0.083,-1.213 0.339,-3.672 2.547,-5.213 1.048,-0.7340004 1.286,0.02 0.953,0.448 -1.063,1.343 -0.891,1.671 -1.041,2.119 -0.516,1.542 0.578,2.828 0.578,2.828"
     id="path352" />
  <path
     style="fill:none;stroke:#231f20;stroke-width:0.332927;stroke-linecap:butt;stroke-linejoin:miter;stroke-miterlimit:4;stroke-dasharray:none;stroke-opacity:1"
     d="m 285.50155,15.553698 c 1.067,0.829 0.776,1.777 -0.089,2.338 -0.26,0.172 -0.312,0.584 -0.577,0.73 -0.62,0.333 -2.272,-0.235 -2.152,-1.724 0.01,-0.115 -0.172,-0.911 -0.219,-1.526 -0.083,-1.213 0.339,-3.672 2.547,-5.213 1.048,-0.7340004 1.286,0.02 0.953,0.448 -1.063,1.343 -0.891,1.671 -1.041,2.119 -0.516,1.542 0.578,2.828 0.578,2.828 z"
     id="path353" />
  <path
     style="fill:#231f20;fill-opacity:1;fill-rule:nonzero;stroke:none"
     d="m 283.71555,34.219698 c 2.244,0.314 2.724,0.068 2.921,-0.869 0.131,-0.625 0.464,-1.156 0.563,-1.531 0.322,-1.261 0.349,-3.505 -1.235,-9.896 -0.359,-1.448 -0.848,-3.489 -0.984,-4.333 -0.213,-1.339 -2.292,-0.084 -2.219,0.448 0.25,1.692 0.287,2.885 0.292,3.505 0.006,0.427 0.115,1.182 -0.084,2.834 -0.301,2.509 -0.853,3.968 -0.858,6.082 -0.006,0.98 -0.631,1.719 -0.142,2.688 0.49,0.968 1.746,1.072 1.746,1.072"
     id="path354" />
  <path
     style="fill:none;stroke:#231f20;stroke-width:0.565977;stroke-linecap:butt;stroke-linejoin:miter;stroke-miterlimit:4;stroke-dasharray:none;stroke-opacity:1"
     d="m 283.71555,34.219698 c 2.244,0.314 2.724,0.068 2.921,-0.869 0.131,-0.625 0.464,-1.156 0.563,-1.531 0.322,-1.261 0.349,-3.505 -1.235,-9.896 -0.359,-1.448 -0.848,-3.489 -0.984,-4.333 -0.213,-1.339 -2.292,-0.084 -2.219,0.448 0.25,1.692 0.287,2.885 0.292,3.505 0.006,0.427 0.115,1.182 -0.084,2.834 -0.301,2.509 -0.853,3.968 -0.858,6.082 -0.006,0.98 -0.631,1.719 -0.142,2.688 0.49,0.968 1.746,1.072 1.746,1.072 z"
     id="path355" />
  <path
     style="fill:#ca0369;fill-opacity:1;fill-rule:nonzero;stroke:none"
     d="m 286.64155,60.049698 c -0.052,-3.131 0.282,-3.814 0.631,-4.663 2.192,-5.353 -0.48,-6.323 -3.308,-5.76 -3.323,0.661 -4.525,0.833 -3.833,7.093 0.193,1.735 0.062,8.511 0.062,8.511 -0.374,2.417 0.552,4.975 1.771,5.776 1.281,0.839 0.833,0.412 2.167,0.98 1.265,0.531 3.432,0.244 4.104,-0.797 0.646,-0.995 -0.104,-2.49 -0.891,-4.782 -0.619,-1.806 -0.703,-6.358 -0.703,-6.358"
     id="path356" />
  <path
     style="fill:none;stroke:#231f20;stroke-width:0.565977;stroke-linecap:butt;stroke-linejoin:miter;stroke-miterlimit:4;stroke-dasharray:none;stroke-opacity:1"
     d="m 286.64155,60.049698 c -0.052,-3.131 0.282,-3.814 0.631,-4.663 2.192,-5.353 -0.48,-6.323 -3.308,-5.76 -3.323,0.661 -4.525,0.833 -3.833,7.093 0.193,1.735 0.062,8.511 0.062,8.511 -0.374,2.417 0.552,4.975 1.771,5.776 1.281,0.839 0.833,0.412 2.167,0.98 1.265,0.531 3.432,0.244 4.104,-0.797 0.646,-0.995 -0.104,-2.49 -0.891,-4.782 -0.619,-1.806 -0.703,-6.358 -0.703,-6.358 z"
     id="path357" />
  <path
     style="fill:#ffffff;fill-opacity:1;fill-rule:nonzero;stroke:none"
     d="m 281.93355,76.694698 c -0.037,0.24 -1.177,0.364 -1.156,0.891 0.02,0.525 0.786,0.697 1.703,2.464 l 0.011,0.019 c 0.62,1.314 1.692,2.199 2.948,2.257 2.072,0.093 3.858,-2.12 3.984,-4.939 0.125,-2.828 -1.454,-5.187 -3.527,-5.28 -1.984,-0.089 -3.708,1.937 -3.963,4.588"
     id="path358" />
  <path
     style="fill:none;stroke:#231f20;stroke-width:0.565977;stroke-linecap:butt;stroke-linejoin:miter;stroke-miterlimit:4;stroke-dasharray:none;stroke-opacity:1"
     d="m 281.93355,76.694698 c -0.037,0.24 -1.177,0.364 -1.156,0.891 0.02,0.525 0.786,0.697 1.703,2.464 l 0.011,0.019 c 0.62,1.314 1.692,2.199 2.948,2.257 2.072,0.093 3.858,-2.12 3.984,-4.939 0.125,-2.828 -1.454,-5.187 -3.527,-5.28 -1.984,-0.089 -3.708,1.937 -3.963,4.588 z"
     id="path359" />
  <path
     style="fill:#231f20;fill-opacity:1;fill-rule:nonzero;stroke:none"
     d="m 284.61155,31.913698 c -3.912,-0.891 -2.943,3.078 -3.048,3.541 -1.14,4.876 -1.099,5.256 -1.698,9.032 -0.874,5.457 -0.639,9.328 2.386,10.765 2.057,0.974 3.661,0.646 4.625,-0.25 1.068,-0.995 2.129,-3.995 0.349,-6.26 l -0.193,-1.708 c 0.021,-1.156 0.021,-1.735 0.079,-2.308 0.093,-1 0.129,-2.072 0.213,-4.031 0.14,-3.464 -0.855,-7.183 -0.855,-7.183 0.022,-1.238 -1.858,-1.598 -1.858,-1.598"
     id="path360" />
  <path
     style="fill:none;stroke:#231f20;stroke-width:0.565977;stroke-linecap:butt;stroke-linejoin:miter;stroke-miterlimit:4;stroke-dasharray:none;stroke-opacity:1"
     d="m 284.61155,31.913698 c -3.912,-0.891 -2.943,3.078 -3.048,3.541 -1.14,4.876 -1.099,5.256 -1.698,9.032 -0.874,5.457 -0.639,9.328 2.386,10.765 2.057,0.974 3.661,0.646 4.625,-0.25 1.068,-0.995 2.129,-3.995 0.349,-6.26 l -0.193,-1.708 c 0.021,-1.156 0.021,-1.735 0.079,-2.308 0.093,-1 0.129,-2.072 0.213,-4.031 0.14,-3.464 -0.855,-7.183 -0.855,-7.183 0.022,-1.238 -1.858,-1.598 -1.858,-1.598 z"
     id="path361" />
  <path
     style="fill:#ca0369;fill-opacity:1;fill-rule:nonzero;stroke:none"
     d="m 287.22555,48.741698 -7.75,-1.031 c -0.047,0.661 -0.052,1.265 -0.041,1.853 -0.022,0.074 -0.047,0.152 -0.079,0.214 -0.349,0.729 -0.083,1.297 0.396,2.22 0.39,1.504 1.172,2.624 2.5,3.254 2.057,0.974 3.661,0.646 4.625,-0.25 1.068,-0.995 2.129,-3.99 0.349,-6.26"
     id="path362" />
  <path
     style="fill:none;stroke:#231f20;stroke-width:0.565977;stroke-linecap:butt;stroke-linejoin:miter;stroke-miterlimit:4;stroke-dasharray:none;stroke-opacity:1"
     d="m 287.22555,48.741698 -7.75,-1.031 c -0.047,0.661 -0.052,1.265 -0.041,1.853 -0.022,0.074 -0.047,0.152 -0.079,0.214 -0.349,0.729 -0.083,1.297 0.396,2.22 0.39,1.504 1.172,2.624 2.5,3.254 2.057,0.974 3.661,0.646 4.625,-0.25 1.068,-0.995 2.129,-3.99 0.349,-6.26 z"
     id="path363" />
  <path
     style="fill:#231f20;fill-opacity:1;fill-rule:nonzero;stroke:none"
     d="m 284.19955,90.277698 c -0.375,-0.531 -0.188,-2.463 -0.656,-4.004 -0.323,-1.032 0.016,-3.762 -0.38,-4.772 -0.36,-0.927 -0.438,-1.386 0.552,-1.979 0.577,-0.355 1.937,-0.651 2.224,-0.224 0.656,0.989 0.828,1.921 0.806,2.989 -0.03,1.214 -0.401,4.506 -0.525,5.104 -0.319,1.491 0.009,2.158 -0.032,2.558 -0.083,0.756 -0.396,0.906 -0.901,0.958 -0.948,0.099 -1.088,-0.63 -1.088,-0.63"
     id="path364" />
  <path
     style="fill:none;stroke:#231f20;stroke-width:0.565977;stroke-linecap:butt;stroke-linejoin:miter;stroke-miterlimit:4;stroke-dasharray:none;stroke-opacity:1"
     d="m 284.19955,90.277698 c -0.375,-0.531 -0.188,-2.463 -0.656,-4.004 -0.323,-1.032 0.016,-3.762 -0.38,-4.772 -0.36,-0.927 -0.438,-1.386 0.552,-1.979 0.577,-0.355 1.937,-0.651 2.224,-0.224 0.656,0.989 0.828,1.921 0.806,2.989 -0.03,1.214 -0.401,4.506 -0.525,5.104 -0.319,1.491 0.009,2.158 -0.032,2.558 -0.083,0.756 -0.396,0.906 -0.901,0.958 -0.948,0.099 -1.088,-0.63 -1.088,-0.63 z"
     id="path365" />
  <path
     style="fill:#231f20;fill-opacity:1;fill-rule:nonzero;stroke:none"
     d="m 283.77755,81.225698 c -1.292,-0.083 -0.797,-2.058 -0.745,-2.594 0.052,-0.541 0.027,-2.093 -0.151,-3.306 -0.177,-1.215 0.12,-2.798 -0.213,-5.106 -0.177,-1.208 0.421,-2.5 2.187,-2.676 1.745,-0.177 2.505,0.739 2.494,2.234 -0.01,1.5 -0.65,2.896 -0.765,4.412 -0.115,1.505 -0.088,3.052 -0.016,4.26 0.089,1.38 -0.38,2.094 -0.807,2.313 -1.068,0.536 -1.984,0.463 -1.984,0.463"
     id="path366" />
  <path
     style="fill:none;stroke:#231f20;stroke-width:0.565977;stroke-linecap:butt;stroke-linejoin:miter;stroke-miterlimit:4;stroke-dasharray:none;stroke-opacity:1"
     d="m 283.77755,81.225698 c -1.292,-0.083 -0.797,-2.058 -0.745,-2.594 0.052,-0.541 0.027,-2.093 -0.151,-3.306 -0.177,-1.215 0.12,-2.798 -0.213,-5.106 -0.177,-1.208 0.421,-2.5 2.187,-2.676 1.745,-0.177 2.505,0.739 2.494,2.234 -0.01,1.5 -0.65,2.896 -0.765,4.412 -0.115,1.505 -0.088,3.052 -0.016,4.26 0.089,1.38 -0.38,2.094 -0.807,2.313 -1.068,0.536 -1.984,0.463 -1.984,0.463 z"
     id="path367" />
  <path
     style="fill:#ffffff;fill-opacity:1;fill-rule:nonzero;stroke:#231f20;stroke-width:0.665856;stroke-linecap:butt;stroke-linejoin:miter;stroke-miterlimit:4;stroke-dasharray:none;stroke-opacity:1"
     d="m 283.96455,81.689698 h 1.333 V 0.72569766 h -1.333 z"
     id="path368" />
  <path
     style="fill:#ffffff;fill-opacity:1;fill-rule:nonzero;stroke:none"
     d="m 280.77255,86.621698 c 0,-2.354 1.916,-4.266 4.271,-4.266 2.353,0 4.27,1.912 4.27,4.266 0,2.354 -1.917,4.27 -4.27,4.27 -2.355,0 -4.271,-1.916 -4.271,-4.27 m -1.328,0 c 0,3.089 2.509,5.604 5.599,5.604 3.088,0 5.598,-2.515 5.598,-5.604 0,-3.083 -2.51,-5.599 -5.598,-5.599 -3.09,0 -5.599,2.516 -5.599,5.599"
     id="path369" />
  <path
     style="fill:none;stroke:#231f20;stroke-width:0.665856;stroke-linecap:butt;stroke-linejoin:miter;stroke-miterlimit:4;stroke-dasharray:none;stroke-opacity:1"
     d="m 280.77255,86.621698 c 0,-2.354 1.916,-4.266 4.271,-4.266 2.353,0 4.27,1.912 4.27,4.266 0,2.354 -1.917,4.27 -4.27,4.27 -2.355,0 -4.271,-1.916 -4.271,-4.27 z m -1.328,0 c 0,3.089 2.509,5.604 5.599,5.604 3.088,0 5.598,-2.515 5.598,-5.604 0,-3.083 -2.51,-5.599 -5.598,-5.599 -3.09,0 -5.599,2.516 -5.599,5.599 z"
     id="path370" />
  <path
     style="fill:#231f20;fill-opacity:1;fill-rule:nonzero;stroke:none"
     d="m 286.08455,90.277698 c 0.645,0.266 0.828,2.573 0.536,2.698 -0.285,0.131 -0.271,-0.641 -0.604,-0.51 -0.333,0.125 -0.265,0.625 -0.495,0.645 -0.249,0.021 -0.234,-0.583 -0.52,-0.5 -0.125,0.037 -0.354,0.584 -0.542,0.548 -0.167,-0.038 -0.348,-0.527 -0.484,-0.557 -0.203,-0.058 -0.276,0.552 -0.454,0.519 -0.458,-0.082 0.224,-2.707 0.438,-2.817 0.313,-0.161 1.084,-0.459 2.125,-0.026"
     id="path371" />
  <path
     style="fill:none;stroke:#231f20;stroke-width:0.565977;stroke-linecap:round;stroke-linejoin:round;stroke-miterlimit:4;stroke-dasharray:none;stroke-opacity:1"
     d="m 286.08455,90.277698 c 0.645,0.266 0.828,2.573 0.536,2.698 -0.285,0.131 -0.271,-0.641 -0.604,-0.51 -0.333,0.125 -0.265,0.625 -0.495,0.645 -0.249,0.021 -0.234,-0.583 -0.52,-0.5 -0.125,0.037 -0.354,0.584 -0.542,0.548 -0.167,-0.038 -0.348,-0.527 -0.484,-0.557 -0.203,-0.058 -0.276,0.552 -0.454,0.519 -0.458,-0.082 0.224,-2.707 0.438,-2.817 0.313,-0.161 1.084,-0.459 2.125,-0.026 z"
     id="path372" />
</svg>
