<?xml version="1.0" encoding="UTF-8" standalone="no"?>
<!-- Created with Inkscape (http://www.inkscape.org/) -->

<svg
   version="1.1"
   id="svg1"
   width="324.8999"
   height="109.45859"
   viewBox="0 0 324.89989 109.45859"
   sodipodi:docname="cell.svg"
   xmlns:inkscape="http://www.inkscape.org/namespaces/inkscape"
   xmlns:sodipodi="http://sodipodi.sourceforge.net/DTD/sodipodi-0.dtd"
   xmlns="http://www.w3.org/2000/svg"
   xmlns:svg="http://www.w3.org/2000/svg">
  <sodipodi:namedview
     id="namedview1"
     pagecolor="#ffffff"
     bordercolor="#000000"
     borderopacity="0.25"
     inkscape:showpageshadow="2"
     inkscape:pageopacity="0.0"
     inkscape:pagecheckerboard="0"
     inkscape:deskcolor="#d1d1d1">
    <inkscape:page
       x="0"
       y="9.4966081e-15"
       inkscape:label="1"
       id="page1"
       width="324.8999"
       height="109.45859"
       margin="0"
       bleed="0" />
  </sodipodi:namedview>
  <defs
     id="defs1" />
  <path
     style="fill:#ca0369;fill-opacity:1;fill-rule:nonzero;stroke:none"
     d="m 273.978,36.3803 c -0.219,-3.4999 -0.468,-4.4479 -0.64,-5.5786 -0.88,-5.7133 -2.156,-5.9213 -4.532,-5.6613 -3.375,0.376 -5.182,0.9013 -3.896,7.0626 0.98,4.6773 1.032,8.292 1.032,8.292 -0.475,1.8067 0.052,5.364 0.692,6.0107 1.084,1.0879 0.906,0.8386 2.286,1.2866 2.547,0.8227 3.412,-0.0107 3.986,-1.048 0.572,-1.0413 0.733,-2.0666 0.91,-4.8746 0.142,-2.172 0.162,-5.4894 0.162,-5.4894"
     id="path630" />
  <path
     style="fill:none;stroke:#231f20;stroke-width:0.565977;stroke-linecap:butt;stroke-linejoin:miter;stroke-miterlimit:4;stroke-dasharray:none;stroke-opacity:1"
     d="m 273.978,36.3803 c -0.219,-3.4999 -0.468,-4.4479 -0.64,-5.5786 -0.88,-5.7133 -2.156,-5.9213 -4.532,-5.6613 -3.375,0.376 -5.182,0.9013 -3.896,7.0626 0.98,4.6773 1.032,8.292 1.032,8.292 -0.475,1.8067 0.052,5.364 0.692,6.0107 1.084,1.0879 0.906,0.8386 2.286,1.2866 2.547,0.8227 3.412,-0.0107 3.986,-1.048 0.572,-1.0413 0.733,-2.0666 0.91,-4.8746 0.142,-2.172 0.162,-5.4894 0.162,-5.4894 z"
     id="path631" />
  <path
     style="fill:#231f20;fill-opacity:1;fill-rule:nonzero;stroke:none"
     d="m 232.822,19.0991 c 1.026,-0.88 1.896,-0.4067 2.27,0.5573 0.115,0.2867 0.511,0.4213 0.599,0.708 0.204,0.6773 -0.687,2.1826 -2.124,1.7613 -0.105,-0.032 -0.928,-0.016 -1.537,-0.0947 -1.198,-0.1613 -3.526,-1.068 -4.588,-3.5413 -0.506,-1.1773 0.276,-1.2546 0.63,-0.844 1.104,1.3134 1.452,1.208 1.864,1.448 1.407,0.8174 2.886,0.0054 2.886,0.0054"
     id="path632" />
  <path
     style="fill:none;stroke:#231f20;stroke-width:0.332927;stroke-linecap:butt;stroke-linejoin:miter;stroke-miterlimit:4;stroke-dasharray:none;stroke-opacity:1"
     d="m 232.822,19.0991 c 1.026,-0.88 1.896,-0.4067 2.27,0.5573 0.115,0.2867 0.511,0.4213 0.599,0.708 0.204,0.6773 -0.687,2.1826 -2.124,1.7613 -0.105,-0.032 -0.928,-0.016 -1.537,-0.0947 -1.198,-0.1613 -3.526,-1.068 -4.588,-3.5413 -0.506,-1.1773 0.276,-1.2546 0.63,-0.844 1.104,1.3134 1.452,1.208 1.864,1.448 1.407,0.8174 2.886,0.0054 2.886,0.0054 z"
     id="path633" />
  <path
     style="fill:#231f20;fill-opacity:1;fill-rule:nonzero;stroke:none"
     d="m 250.743,24.6097 c 0.756,-2.136 0.62,-2.656 -0.265,-3.036 -0.578,-0.2507 -1.042,-0.688 -1.386,-0.86 -1.172,-0.5733 -3.358,-1.052 -9.942,-0.7866 -1.49,0.0573 -3.583,0.1306 -4.438,0.0893 -1.354,-0.0627 -0.541,2.228 -0.01,2.26 1.708,0.104 2.88,0.3066 3.489,0.4213 0.417,0.0893 1.177,0.1307 2.761,0.656 2.396,0.8027 3.714,1.636 5.782,2.068 0.957,0.1987 1.557,0.964 2.598,0.6773 1.052,-0.2813 1.411,-1.4893 1.411,-1.4893"
     id="path634" />
  <path
     style="fill:none;stroke:#231f20;stroke-width:0.565977;stroke-linecap:butt;stroke-linejoin:miter;stroke-miterlimit:4;stroke-dasharray:none;stroke-opacity:1"
     d="m 250.743,24.6097 c 0.756,-2.136 0.62,-2.656 -0.265,-3.036 -0.578,-0.2507 -1.042,-0.688 -1.386,-0.86 -1.172,-0.5733 -3.358,-1.052 -9.942,-0.7866 -1.49,0.0573 -3.583,0.1306 -4.438,0.0893 -1.354,-0.0627 -0.541,2.228 -0.01,2.26 1.708,0.104 2.88,0.3066 3.489,0.4213 0.417,0.0893 1.177,0.1307 2.761,0.656 2.396,0.8027 3.714,1.636 5.782,2.068 0.957,0.1987 1.557,0.964 2.598,0.6773 1.052,-0.2813 1.411,-1.4893 1.411,-1.4893 z"
     id="path635" />
  <path
     style="fill:#231f20;fill-opacity:1;fill-rule:nonzero;stroke:none"
     d="m 248.66,23.2657 c -1.656,3.6507 2.422,3.5 2.855,3.6973 4.547,2.1 4.932,2.136 8.504,3.4854 5.167,1.9626 9.016,2.5053 11.027,-0.1667 1.369,-1.8173 1.369,-3.4533 0.688,-4.5787 -0.762,-1.244 -3.48,-2.896 -6.068,-1.604 l -1.708,-0.1506 c -1.131,-0.2614 -1.694,-0.3747 -2.246,-0.5467 -0.958,-0.2973 -2,-0.548 -3.901,-1.016 -3.364,-0.8387 -7.208,-0.62 -7.208,-0.62 -1.213,-0.2707 -1.943,1.5 -1.943,1.5"
     id="path636" />
  <path
     style="fill:none;stroke:#231f20;stroke-width:0.565977;stroke-linecap:butt;stroke-linejoin:miter;stroke-miterlimit:4;stroke-dasharray:none;stroke-opacity:1"
     d="m 248.66,23.2657 c -1.656,3.6507 2.422,3.5 2.855,3.6973 4.547,2.1 4.932,2.136 8.504,3.4854 5.167,1.9626 9.016,2.5053 11.027,-0.1667 1.369,-1.8173 1.369,-3.4533 0.688,-4.5787 -0.762,-1.244 -3.48,-2.896 -6.068,-1.604 l -1.708,-0.1506 c -1.131,-0.2614 -1.694,-0.3747 -2.246,-0.5467 -0.958,-0.2973 -2,-0.548 -3.901,-1.016 -3.364,-0.8387 -7.208,-0.62 -7.208,-0.62 -1.213,-0.2707 -1.943,1.5 -1.943,1.5 z"
     id="path637" />
  <path
     style="fill:#231f20;fill-opacity:1;fill-rule:nonzero;stroke:none"
     d="m 239.384,5.7084 c 1.298,-0.3906 1.902,0.3907 1.859,1.4227 -0.015,0.312 0.292,0.5933 0.256,0.8946 -0.084,0.6987 -1.505,1.7187 -2.651,0.756 -0.084,-0.0733 -0.838,-0.3853 -1.365,-0.708 -1.036,-0.6253 -2.801,-2.3959 -2.776,-5.0946 0.011,-1.276 0.76,-1.0307 0.917,-0.5107 0.479,1.6414 0.843,1.688 1.124,2.0787 0.954,1.3067 2.636,1.1613 2.636,1.1613"
     id="path638" />
  <path
     style="fill:none;stroke:#231f20;stroke-width:0.332927;stroke-linecap:butt;stroke-linejoin:miter;stroke-miterlimit:4;stroke-dasharray:none;stroke-opacity:1"
     d="m 239.384,5.7084 c 1.298,-0.3906 1.902,0.3907 1.859,1.4227 -0.015,0.312 0.292,0.5933 0.256,0.8946 -0.084,0.6987 -1.505,1.7187 -2.651,0.756 -0.084,-0.0733 -0.838,-0.3853 -1.365,-0.708 -1.036,-0.6253 -2.801,-2.3959 -2.776,-5.0946 0.011,-1.276 0.76,-1.0307 0.917,-0.5107 0.479,1.6414 0.843,1.688 1.124,2.0787 0.954,1.3067 2.636,1.1613 2.636,1.1613 z"
     id="path639" />
  <path
     style="fill:#231f20;fill-opacity:1;fill-rule:nonzero;stroke:none"
     d="m 253.572,17.9684 c 1.552,-1.6453 1.635,-2.176 0.979,-2.8853 -0.427,-0.4627 -0.677,-1.0467 -0.927,-1.3427 -0.833,-0.996 -2.652,-2.3133 -8.776,-4.724 -1.39,-0.548 -3.333,-1.324 -4.105,-1.7093 -1.213,-0.5987 -1.391,1.824 -0.916,2.068 1.521,0.7813 2.511,1.4373 3.021,1.792 0.348,0.244 1.031,0.5933 2.266,1.7133 1.869,1.6973 2.738,2.9893 4.458,4.224 0.802,0.5627 1.042,1.5053 2.11,1.6667 1.072,0.1613 1.89,-0.8027 1.89,-0.8027"
     id="path640" />
  <path
     style="fill:none;stroke:#231f20;stroke-width:0.565977;stroke-linecap:butt;stroke-linejoin:miter;stroke-miterlimit:4;stroke-dasharray:none;stroke-opacity:1"
     d="m 253.572,17.9684 c 1.552,-1.6453 1.635,-2.176 0.979,-2.8853 -0.427,-0.4627 -0.677,-1.0467 -0.927,-1.3427 -0.833,-0.996 -2.652,-2.3133 -8.776,-4.724 -1.39,-0.548 -3.333,-1.324 -4.105,-1.7093 -1.213,-0.5987 -1.391,1.824 -0.916,2.068 1.521,0.7813 2.511,1.4373 3.021,1.792 0.348,0.244 1.031,0.5933 2.266,1.7133 1.869,1.6973 2.738,2.9893 4.458,4.224 0.802,0.5627 1.042,1.5053 2.11,1.6667 1.072,0.1613 1.89,-0.8027 1.89,-0.8027 z"
     id="path641" />
  <path
     style="fill:#ffffff;fill-opacity:1;fill-rule:nonzero;stroke:none"
     d="m 267.619,54.683 c 0.036,0.2386 -1.021,0.692 -0.849,1.1866 0.172,0.5 0.953,0.4427 2.344,1.8654 l 0.014,0.0146 c 0.975,1.0787 2.256,1.62 3.47,1.3134 2.016,-0.516 3.084,-3.152 2.39,-5.8854 -0.692,-2.74 -2.89,-4.5426 -4.901,-4.032 -1.927,0.4894 -2.989,2.928 -2.468,5.5374"
     id="path642" />
  <path
     style="fill:none;stroke:#231f20;stroke-width:0.565977;stroke-linecap:butt;stroke-linejoin:miter;stroke-miterlimit:4;stroke-dasharray:none;stroke-opacity:1"
     d="m 267.619,54.683 c 0.036,0.2386 -1.021,0.692 -0.849,1.1866 0.172,0.5 0.953,0.4427 2.344,1.8654 l 0.014,0.0146 c 0.975,1.0787 2.256,1.62 3.47,1.3134 2.016,-0.516 3.084,-3.152 2.39,-5.8854 -0.692,-2.74 -2.89,-4.5426 -4.901,-4.032 -1.927,0.4894 -2.989,2.928 -2.468,5.5374 z"
     id="path643" />
  <path
     style="fill:#231f20;fill-opacity:1;fill-rule:nonzero;stroke:none"
     d="m 252.207,15.9017 c -2.989,2.676 0.803,4.176 1.12,4.536 3.317,3.7547 3.656,3.9373 6.385,6.6147 3.938,3.8746 7.235,5.9213 10.156,4.2866 1.984,-1.1093 2.647,-2.604 2.475,-3.912 -0.199,-1.448 -2.021,-4.052 -4.907,-3.9106 l -1.5,-0.8294 c -0.932,-0.692 -1.406,-1.0253 -1.838,-1.4 -0.76,-0.6613 -1.61,-1.3079 -3.162,-2.5053 -2.745,-2.1253 -6.349,-3.4693 -6.349,-3.4693 -1,-0.7387 -2.38,0.5893 -2.38,0.5893"
     id="path644" />
  <path
     style="fill:none;stroke:#231f20;stroke-width:0.565977;stroke-linecap:butt;stroke-linejoin:miter;stroke-miterlimit:4;stroke-dasharray:none;stroke-opacity:1"
     d="m 252.207,15.9017 c -2.989,2.676 0.803,4.176 1.12,4.536 3.317,3.7547 3.656,3.9373 6.385,6.6147 3.938,3.8746 7.235,5.9213 10.156,4.2866 1.984,-1.1093 2.647,-2.604 2.475,-3.912 -0.199,-1.448 -2.021,-4.052 -4.907,-3.9106 l -1.5,-0.8294 c -0.932,-0.692 -1.406,-1.0253 -1.838,-1.4 -0.76,-0.6613 -1.61,-1.3079 -3.162,-2.5053 -2.745,-2.1253 -6.349,-3.4693 -6.349,-3.4693 -1,-0.7387 -2.38,0.5893 -2.38,0.5893 z"
     id="path645" />
  <path
     style="fill:#ca0369;fill-opacity:1;fill-rule:nonzero;stroke:none"
     d="m 272.343,27.427 c -0.199,-1.448 -2.027,-4.052 -4.907,-3.9106 l -5.322,5.724 c 2.91,2.3853 5.448,3.3946 7.754,2.0986 1.984,-1.1093 2.647,-2.604 2.475,-3.912"
     id="path646" />
  <path
     style="fill:none;stroke:#231f20;stroke-width:0.565977;stroke-linecap:butt;stroke-linejoin:miter;stroke-miterlimit:4;stroke-dasharray:none;stroke-opacity:1"
     d="m 272.343,27.427 c -0.199,-1.448 -2.027,-4.052 -4.907,-3.9106 l -5.322,5.724 c 2.91,2.3853 5.448,3.3946 7.754,2.0986 1.984,-1.1093 2.647,-2.604 2.475,-3.912 z"
     id="path647" />
  <path
     style="fill:#ca0369;fill-opacity:1;fill-rule:nonzero;stroke:none"
     d="m 198.89,37.4483 c -0.219,-3.5 -0.464,-4.4479 -0.641,-5.5733 -0.875,-5.7133 -2.151,-5.9213 -4.531,-5.6613 -3.369,0.3693 -5.183,0.9013 -3.896,7.0627 0.979,4.6719 1.031,8.2919 1.031,8.2919 -0.474,1.8014 0.053,5.3587 0.693,6.0093 1.084,1.0894 0.912,0.8387 2.287,1.2814 2.546,0.828 3.41,-0.0054 3.984,-1.0467 0.573,-1.036 0.74,-2.0626 0.917,-4.8693 0.135,-2.172 0.156,-5.4947 0.156,-5.4947"
     id="path648" />
  <path
     style="fill:none;stroke:#231f20;stroke-width:0.565977;stroke-linecap:butt;stroke-linejoin:miter;stroke-miterlimit:4;stroke-dasharray:none;stroke-opacity:1"
     d="m 198.89,37.4483 c -0.219,-3.5 -0.464,-4.4479 -0.641,-5.5733 -0.875,-5.7133 -2.151,-5.9213 -4.531,-5.6613 -3.369,0.3693 -5.183,0.9013 -3.896,7.0627 0.979,4.6719 1.031,8.2919 1.031,8.2919 -0.474,1.8014 0.053,5.3587 0.693,6.0093 1.084,1.0894 0.912,0.8387 2.287,1.2814 2.546,0.828 3.41,-0.0054 3.984,-1.0467 0.573,-1.036 0.74,-2.0626 0.917,-4.8693 0.135,-2.172 0.156,-5.4947 0.156,-5.4947 z"
     id="path649" />
  <path
     style="fill:#231f20;fill-opacity:1;fill-rule:nonzero;stroke:none"
     d="m 158.983,17.5777 c 1.09,-0.8013 1.923,-0.26 2.224,0.7294 0.09,0.2973 0.475,0.4586 0.542,0.756 0.152,0.6866 -0.848,2.1199 -2.25,1.5933 -0.104,-0.0414 -0.922,-0.088 -1.526,-0.2133 -1.187,-0.2507 -3.438,-1.3334 -4.307,-3.8854 -0.417,-1.204 0.375,-1.2293 0.692,-0.7866 1,1.3906 1.36,1.312 1.751,1.588 1.338,0.9173 2.874,0.2186 2.874,0.2186"
     id="path650" />
  <path
     style="fill:none;stroke:#231f20;stroke-width:0.332927;stroke-linecap:butt;stroke-linejoin:miter;stroke-miterlimit:4;stroke-dasharray:none;stroke-opacity:1"
     d="m 158.983,17.5777 c 1.09,-0.8013 1.923,-0.26 2.224,0.7294 0.09,0.2973 0.475,0.4586 0.542,0.756 0.152,0.6866 -0.848,2.1199 -2.25,1.5933 -0.104,-0.0414 -0.922,-0.088 -1.526,-0.2133 -1.187,-0.2507 -3.438,-1.3334 -4.307,-3.8854 -0.417,-1.204 0.375,-1.2293 0.692,-0.7866 1,1.3906 1.36,1.312 1.751,1.588 1.338,0.9173 2.874,0.2186 2.874,0.2186 z"
     id="path651" />
  <path
     style="fill:#231f20;fill-opacity:1;fill-rule:nonzero;stroke:none"
     d="m 176.437,24.4324 c 0.916,-2.068 0.817,-2.5987 -0.031,-3.0467 -0.563,-0.2973 -0.991,-0.7653 -1.324,-0.964 -1.119,-0.656 -3.271,-1.3013 -9.848,-1.536 -1.495,-0.0573 -3.584,-0.1413 -4.439,-0.2506 -1.342,-0.1614 -0.702,2.1879 -0.176,2.2559 1.698,0.2294 2.843,0.5254 3.443,0.6867 0.411,0.1147 1.172,0.2147 2.708,0.86 2.328,0.984 3.579,1.912 5.604,2.5053 0.943,0.2707 1.484,1.0774 2.541,0.8694 1.074,-0.1974 1.522,-1.38 1.522,-1.38"
     id="path652" />
  <path
     style="fill:none;stroke:#231f20;stroke-width:0.565977;stroke-linecap:butt;stroke-linejoin:miter;stroke-miterlimit:4;stroke-dasharray:none;stroke-opacity:1"
     d="m 176.437,24.4324 c 0.916,-2.068 0.817,-2.5987 -0.031,-3.0467 -0.563,-0.2973 -0.991,-0.7653 -1.324,-0.964 -1.119,-0.656 -3.271,-1.3013 -9.848,-1.536 -1.495,-0.0573 -3.584,-0.1413 -4.439,-0.2506 -1.342,-0.1614 -0.702,2.1879 -0.176,2.2559 1.698,0.2294 2.843,0.5254 3.443,0.6867 0.411,0.1147 1.172,0.2147 2.708,0.86 2.328,0.984 3.579,1.912 5.604,2.5053 0.943,0.2707 1.484,1.0774 2.541,0.8694 1.074,-0.1974 1.522,-1.38 1.522,-1.38 z"
     id="path653" />
  <path
     style="fill:#231f20;fill-opacity:1;fill-rule:nonzero;stroke:none"
     d="m 174.462,22.9377 c -1.932,3.516 2.147,3.672 2.563,3.9067 4.376,2.432 4.756,2.5 8.218,4.1146 5.006,2.348 8.798,3.1813 11.006,0.6707 1.5,-1.708 1.63,-3.3373 1.032,-4.5093 -0.662,-1.3027 -3.251,-3.152 -5.923,-2.0627 l -1.692,-0.2813 c -1.109,-0.344 -1.667,-0.5 -2.204,-0.7134 -0.932,-0.3706 -1.952,-0.6986 -3.812,-1.3133 -3.292,-1.0933 -7.135,-1.1613 -7.135,-1.1613 -1.193,-0.364 -2.053,1.3493 -2.053,1.3493"
     id="path654" />
  <path
     style="fill:none;stroke:#231f20;stroke-width:0.565977;stroke-linecap:butt;stroke-linejoin:miter;stroke-miterlimit:4;stroke-dasharray:none;stroke-opacity:1"
     d="m 174.462,22.9377 c -1.932,3.516 2.147,3.672 2.563,3.9067 4.376,2.432 4.756,2.5 8.218,4.1146 5.006,2.348 8.798,3.1813 11.006,0.6707 1.5,-1.708 1.63,-3.3373 1.032,-4.5093 -0.662,-1.3027 -3.251,-3.152 -5.923,-2.0627 l -1.692,-0.2813 c -1.109,-0.344 -1.667,-0.5 -2.204,-0.7134 -0.932,-0.3706 -1.952,-0.6986 -3.812,-1.3133 -3.292,-1.0933 -7.135,-1.1613 -7.135,-1.1613 -1.193,-0.364 -2.053,1.3493 -2.053,1.3493 z"
     id="path655" />
  <path
     style="fill:#231f20;fill-opacity:1;fill-rule:nonzero;stroke:none"
     d="m 157.073,31.031 c 0.718,-1.1453 1.692,-0.9533 2.337,-0.1453 0.193,0.2453 0.609,0.2547 0.781,0.5053 0.391,0.5827 -0.009,2.2814 -1.505,2.3067 -0.113,0 -0.891,0.2653 -1.495,0.3706 -1.197,0.2027 -3.686,0.0254 -5.437,-2.0213 -0.833,-0.9693 -0.104,-1.2813 0.355,-0.9893 1.437,0.9213 1.744,0.7187 2.213,0.828 1.579,0.3587 2.751,-0.8547 2.751,-0.8547"
     id="path656" />
  <path
     style="fill:none;stroke:#231f20;stroke-width:0.332927;stroke-linecap:butt;stroke-linejoin:miter;stroke-miterlimit:4;stroke-dasharray:none;stroke-opacity:1"
     d="m 157.073,31.031 c 0.718,-1.1453 1.692,-0.9533 2.337,-0.1453 0.193,0.2453 0.609,0.2547 0.781,0.5053 0.391,0.5827 -0.009,2.2814 -1.505,2.3067 -0.113,0 -0.891,0.2653 -1.495,0.3706 -1.197,0.2027 -3.686,0.0254 -5.437,-2.0213 -0.833,-0.9693 -0.104,-1.2813 0.355,-0.9893 1.437,0.9213 1.744,0.7187 2.213,0.828 1.579,0.3587 2.751,-0.8547 2.751,-0.8547 z"
     id="path657" />
  <path
     style="fill:#231f20;fill-opacity:1;fill-rule:nonzero;stroke:none"
     d="m 175.822,30.963 c 0.088,-2.26 -0.197,-2.7186 -1.151,-2.8173 -0.636,-0.068 -1.198,-0.348 -1.584,-0.4053 -1.286,-0.204 -3.52,-0.0054 -9.724,2.1973 -1.405,0.5 -3.385,1.1933 -4.213,1.4067 -1.312,0.3426 0.151,2.2906 0.661,2.1613 1.667,-0.412 2.839,-0.5627 3.459,-0.6307 0.427,-0.0466 1.167,-0.2293 2.833,-0.1973 2.527,0.052 4.031,0.4573 6.136,0.2547 0.974,-0.0934 1.771,0.4586 2.682,-0.1254 0.922,-0.5773 0.901,-1.844 0.901,-1.844"
     id="path658" />
  <path
     style="fill:none;stroke:#231f20;stroke-width:0.565977;stroke-linecap:butt;stroke-linejoin:miter;stroke-miterlimit:4;stroke-dasharray:none;stroke-opacity:1"
     d="m 175.822,30.963 c 0.088,-2.26 -0.197,-2.7186 -1.151,-2.8173 -0.636,-0.068 -1.198,-0.348 -1.584,-0.4053 -1.286,-0.204 -3.52,-0.0054 -9.724,2.1973 -1.405,0.5 -3.385,1.1933 -4.213,1.4067 -1.312,0.3426 0.151,2.2906 0.661,2.1613 1.667,-0.412 2.839,-0.5627 3.459,-0.6307 0.427,-0.0466 1.167,-0.2293 2.833,-0.1973 2.527,0.052 4.031,0.4573 6.136,0.2547 0.974,-0.0934 1.771,0.4586 2.682,-0.1254 0.922,-0.5773 0.901,-1.844 0.901,-1.844 z"
     id="path659" />
  <path
     style="fill:#ffffff;fill-opacity:1;fill-rule:nonzero;stroke:none"
     d="m 192.535,55.7496 c 0.032,0.2454 -1.025,0.6987 -0.853,1.1934 0.171,0.5 0.957,0.4426 2.343,1.864 l 0.016,0.016 c 0.974,1.0786 2.26,1.6146 3.469,1.308 2.015,-0.5107 3.088,-3.1467 2.391,-5.8814 -0.694,-2.7386 -2.886,-4.5466 -4.902,-4.0306 -1.926,0.484 -2.989,2.9213 -2.464,5.5306"
     id="path660" />
  <path
     style="fill:none;stroke:#231f20;stroke-width:0.565977;stroke-linecap:butt;stroke-linejoin:miter;stroke-miterlimit:4;stroke-dasharray:none;stroke-opacity:1"
     d="m 192.535,55.7496 c 0.032,0.2454 -1.025,0.6987 -0.853,1.1934 0.171,0.5 0.957,0.4426 2.343,1.864 l 0.016,0.016 c 0.974,1.0786 2.26,1.6146 3.469,1.308 2.015,-0.5107 3.088,-3.1467 2.391,-5.8814 -0.694,-2.7386 -2.886,-4.5466 -4.902,-4.0306 -1.926,0.484 -2.989,2.9213 -2.464,5.5306 z"
     id="path661" />
  <path
     style="fill:#231f20;fill-opacity:1;fill-rule:nonzero;stroke:none"
     d="m 173.437,30.2964 c -0.5,3.9853 3.349,2.6253 3.822,2.688 4.97,0.6506 5.344,0.5733 9.156,0.7973 5.522,0.3386 9.355,-0.2867 10.48,-3.4373 0.766,-2.1414 0.282,-3.704 -0.709,-4.5734 -1.093,-0.964 -4.181,-1.7293 -6.265,0.2707 l -1.678,0.36 c -1.156,0.0933 -1.728,0.1453 -2.306,0.1507 -1,0 -2.074,0.0733 -4.027,0.188 -3.463,0.1973 -7.067,1.552 -7.067,1.552 -1.24,0.0986 -1.406,2.004 -1.406,2.004"
     id="path662" />
  <path
     style="fill:none;stroke:#231f20;stroke-width:0.565977;stroke-linecap:butt;stroke-linejoin:miter;stroke-miterlimit:4;stroke-dasharray:none;stroke-opacity:1"
     d="m 173.437,30.2964 c -0.5,3.9853 3.349,2.6253 3.822,2.688 4.97,0.6506 5.344,0.5733 9.156,0.7973 5.522,0.3386 9.355,-0.2867 10.48,-3.4373 0.766,-2.1414 0.282,-3.704 -0.709,-4.5734 -1.093,-0.964 -4.181,-1.7293 -6.265,0.2707 l -1.678,0.36 c -1.156,0.0933 -1.728,0.1453 -2.306,0.1507 -1,0 -2.074,0.0733 -4.027,0.188 -3.463,0.1973 -7.067,1.552 -7.067,1.552 -1.24,0.0986 -1.406,2.004 -1.406,2.004 z"
     id="path663" />
  <path
     style="fill:#ca0369;fill-opacity:1;fill-rule:nonzero;stroke:none"
     d="m 197.223,25.7764 c -1.094,-0.964 -4.182,-1.724 -6.265,0.2706 l -0.256,7.812 c 3.76,-0.1093 6.333,-1.0146 7.229,-3.5093 0.766,-2.136 0.282,-3.704 -0.708,-4.5733"
     id="path664" />
  <path
     style="fill:none;stroke:#231f20;stroke-width:0.565977;stroke-linecap:butt;stroke-linejoin:miter;stroke-miterlimit:4;stroke-dasharray:none;stroke-opacity:1"
     d="m 197.223,25.7764 c -1.094,-0.964 -4.182,-1.724 -6.265,0.2706 l -0.256,7.812 c 3.76,-0.1093 6.333,-1.0146 7.229,-3.5093 0.766,-2.136 0.282,-3.704 -0.708,-4.5733 z"
     id="path665" />
  <path
     style="fill:#ca0369;fill-opacity:1;fill-rule:nonzero;stroke:none"
     d="m 107.03,42.1923 c -3.317,-1.1346 -4.291,-1.2706 -5.4,-1.5413 -5.615,-1.3747 -6.292,-0.276 -6.959,2.0267 -0.953,3.2493 -1.156,5.1239 5.031,6.2959 4.693,0.8854 8.052,2.2187 8.052,2.2187 1.485,1.1307 4.975,2.0107 5.819,1.6613 1.421,-0.5826 1.124,-0.5146 2.061,-1.6133 1.74,-2.0427 1.303,-3.1573 0.557,-4.084 -0.738,-0.9266 -1.624,-1.4733 -4.15,-2.708 -1.954,-0.964 -5.011,-2.256 -5.011,-2.256"
     id="path666" />
  <path
     style="fill:none;stroke:#231f20;stroke-width:0.565977;stroke-linecap:butt;stroke-linejoin:miter;stroke-miterlimit:4;stroke-dasharray:none;stroke-opacity:1"
     d="m 107.03,42.1923 c -3.317,-1.1346 -4.291,-1.2706 -5.4,-1.5413 -5.615,-1.3747 -6.292,-0.276 -6.959,2.0267 -0.953,3.2493 -1.156,5.1239 5.031,6.2959 4.693,0.8854 8.052,2.2187 8.052,2.2187 1.485,1.1307 4.975,2.0107 5.819,1.6613 1.421,-0.5826 1.124,-0.5146 2.061,-1.6133 1.74,-2.0427 1.303,-3.1573 0.557,-4.084 -0.738,-0.9266 -1.624,-1.4733 -4.15,-2.708 -1.954,-0.964 -5.011,-2.256 -5.011,-2.256 z"
     id="path667" />
  <path
     style="fill:#231f20;fill-opacity:1;fill-rule:nonzero;stroke:none"
     d="m 87.353,79.0006 c -0.848,-1.058 -0.348,-1.9124 0.625,-2.2564 0.292,-0.104 0.437,-0.4946 0.729,-0.572 0.683,-0.1826 2.156,0.7494 1.694,2.1774 -0.032,0.104 -0.043,0.921 -0.142,1.531 -0.197,1.197 -1.182,3.489 -3.686,4.478 -1.188,0.47 -1.245,-0.322 -0.819,-0.661 1.339,-1.057 1.251,-1.411 1.505,-1.817 0.86,-1.375 0.094,-2.88 0.094,-2.88"
     id="path668" />
  <path
     style="fill:none;stroke:#231f20;stroke-width:0.332927;stroke-linecap:butt;stroke-linejoin:miter;stroke-miterlimit:4;stroke-dasharray:none;stroke-opacity:1"
     d="m 87.353,79.0006 c -0.848,-1.058 -0.348,-1.9124 0.625,-2.2564 0.292,-0.104 0.437,-0.4946 0.729,-0.572 0.683,-0.1826 2.156,0.7494 1.694,2.1774 -0.032,0.104 -0.043,0.921 -0.142,1.531 -0.197,1.197 -1.182,3.489 -3.686,4.478 -1.188,0.47 -1.245,-0.322 -0.819,-0.661 1.339,-1.057 1.251,-1.411 1.505,-1.817 0.86,-1.375 0.094,-2.88 0.094,-2.88 z"
     id="path669" />
  <path
     style="fill:#231f20;fill-opacity:1;fill-rule:nonzero;stroke:none"
     d="m 93.415,61.2603 c -2.109,-0.828 -2.629,-0.7027 -3.041,0.1666 -0.271,0.5734 -0.719,1.016 -0.901,1.36 -0.61,1.1507 -1.156,3.328 -1.099,9.9107 0.016,1.4946 0.021,3.5893 -0.047,4.4426 -0.104,1.3544 2.214,0.6094 2.26,0.0787 0.156,-1.7027 0.396,-2.8653 0.532,-3.4746 0.099,-0.416 0.162,-1.176 0.739,-2.7387 0.876,-2.3707 1.751,-3.6613 2.251,-5.7133 0.229,-0.9534 1.005,-1.5267 0.754,-2.5787 -0.244,-1.0573 -1.448,-1.4533 -1.448,-1.4533"
     id="path670" />
  <path
     style="fill:none;stroke:#231f20;stroke-width:0.565977;stroke-linecap:butt;stroke-linejoin:miter;stroke-miterlimit:4;stroke-dasharray:none;stroke-opacity:1"
     d="m 93.415,61.2603 c -2.109,-0.828 -2.629,-0.7027 -3.041,0.1666 -0.271,0.5734 -0.719,1.016 -0.901,1.36 -0.61,1.1507 -1.156,3.328 -1.099,9.9107 0.016,1.4946 0.021,3.5893 -0.047,4.4426 -0.104,1.3544 2.214,0.6094 2.26,0.0787 0.156,-1.7027 0.396,-2.8653 0.532,-3.4746 0.099,-0.416 0.162,-1.176 0.739,-2.7387 0.876,-2.3707 1.751,-3.6613 2.251,-5.7133 0.229,-0.9534 1.005,-1.5267 0.754,-2.5787 -0.244,-1.0573 -1.448,-1.4533 -1.448,-1.4533 z"
     id="path671" />
  <path
     style="fill:#231f20;fill-opacity:1;fill-rule:nonzero;stroke:none"
     d="m 92.01,63.2963 c 3.599,1.772 3.572,-2.312 3.785,-2.7387 2.24,-4.48 2.287,-4.86 3.751,-8.3906 2.12,-5.104 2.781,-8.9267 0.172,-11.0267 -1.771,-1.4266 -3.407,-1.4786 -4.552,-0.828 -1.265,0.724 -3,3.3907 -1.792,6.0107 l -0.208,1.7026 c -0.292,1.12 -0.423,1.6827 -0.609,2.2294 -0.328,0.948 -0.615,1.9853 -1.142,3.8706 -0.942,3.3387 -0.842,7.1813 -0.842,7.1813 -0.308,1.204 1.437,1.9894 1.437,1.9894"
     id="path672" />
  <path
     style="fill:none;stroke:#231f20;stroke-width:0.565977;stroke-linecap:butt;stroke-linejoin:miter;stroke-miterlimit:4;stroke-dasharray:none;stroke-opacity:1"
     d="m 92.01,63.2963 c 3.599,1.772 3.572,-2.312 3.785,-2.7387 2.24,-4.48 2.287,-4.86 3.751,-8.3906 2.12,-5.104 2.781,-8.9267 0.172,-11.0267 -1.771,-1.4266 -3.407,-1.4786 -4.552,-0.828 -1.265,0.724 -3,3.3907 -1.792,6.0107 l -0.208,1.7026 c -0.292,1.12 -0.423,1.6827 -0.609,2.2294 -0.328,0.948 -0.615,1.9853 -1.142,3.8706 -0.942,3.3387 -0.842,7.1813 -0.842,7.1813 -0.308,1.204 1.437,1.9894 1.437,1.9894 z"
     id="path673" />
  <path
     style="fill:#231f20;fill-opacity:1;fill-rule:nonzero;stroke:none"
     d="m 95.297,80.3496 c -1.063,-0.839 -0.767,-1.776 0.109,-2.333 0.26,-0.167 0.312,-0.5844 0.583,-0.7244 0.62,-0.3293 2.27,0.2547 2.136,1.7494 -0.011,0.109 0.161,0.907 0.197,1.527 0.079,1.208 -0.369,3.666 -2.593,5.181 -1.058,0.724 -1.287,-0.036 -0.948,-0.457 1.072,-1.33 0.905,-1.658 1.062,-2.11 0.531,-1.532 -0.546,-2.833 -0.546,-2.833"
     id="path674" />
  <path
     style="fill:none;stroke:#231f20;stroke-width:0.332927;stroke-linecap:butt;stroke-linejoin:miter;stroke-miterlimit:4;stroke-dasharray:none;stroke-opacity:1"
     d="m 95.297,80.3496 c -1.063,-0.839 -0.767,-1.776 0.109,-2.333 0.26,-0.167 0.312,-0.5844 0.583,-0.7244 0.62,-0.3293 2.27,0.2547 2.136,1.7494 -0.011,0.109 0.161,0.907 0.197,1.527 0.079,1.208 -0.369,3.666 -2.593,5.181 -1.058,0.724 -1.287,-0.036 -0.948,-0.457 1.072,-1.33 0.905,-1.658 1.062,-2.11 0.531,-1.532 -0.546,-2.833 -0.546,-2.833 z"
     id="path675" />
  <path
     style="fill:#231f20;fill-opacity:1;fill-rule:nonzero;stroke:none"
     d="m 97.259,61.7083 c -2.24,-0.3334 -2.724,-0.0987 -2.926,0.8386 -0.136,0.62 -0.475,1.156 -0.579,1.5307 -0.339,1.256 -0.385,3.496 1.136,9.9013 0.344,1.4533 0.817,3.4947 0.943,4.3437 0.197,1.344 2.292,0.099 2.218,-0.426 -0.229,-1.6937 -0.25,-2.8804 -0.256,-3.5057 0.006,-0.4227 -0.098,-1.1826 0.115,-2.8333 0.324,-2.5053 0.891,-3.9587 0.923,-6.0733 0.01,-0.9787 0.64,-1.7134 0.161,-2.6827 -0.479,-0.9733 -1.735,-1.0933 -1.735,-1.0933"
     id="path676" />
  <path
     style="fill:none;stroke:#231f20;stroke-width:0.565977;stroke-linecap:butt;stroke-linejoin:miter;stroke-miterlimit:4;stroke-dasharray:none;stroke-opacity:1"
     d="m 97.259,61.7083 c -2.24,-0.3334 -2.724,-0.0987 -2.926,0.8386 -0.136,0.62 -0.475,1.156 -0.579,1.5307 -0.339,1.256 -0.385,3.496 1.136,9.9013 0.344,1.4533 0.817,3.4947 0.943,4.3437 0.197,1.344 2.292,0.099 2.218,-0.426 -0.229,-1.6937 -0.25,-2.8804 -0.256,-3.5057 0.006,-0.4227 -0.098,-1.1826 0.115,-2.8333 0.324,-2.5053 0.891,-3.9587 0.923,-6.0733 0.01,-0.9787 0.64,-1.7134 0.161,-2.6827 -0.479,-0.9733 -1.735,-1.0933 -1.735,-1.0933 z"
     id="path677" />
  <path
     style="fill:#ffffff;fill-opacity:1;fill-rule:nonzero;stroke:none"
     d="m 121.505,55.0736 c 0.234,0.0614 0.249,1.208 0.77,1.244 0.526,0.032 0.771,-0.7133 2.62,-1.4533 l 0.02,-0.0053 c 1.371,-0.4894 2.36,-1.4734 2.538,-2.708 0.301,-2.0574 -1.724,-4.052 -4.516,-4.4587 -2.798,-0.4053 -5.303,0.9333 -5.599,2.9853 -0.292,1.968 1.552,3.88 4.167,4.396"
     id="path678" />
  <path
     style="fill:none;stroke:#231f20;stroke-width:0.565977;stroke-linecap:butt;stroke-linejoin:miter;stroke-miterlimit:4;stroke-dasharray:none;stroke-opacity:1"
     d="m 121.505,55.0736 c 0.234,0.0614 0.249,1.208 0.77,1.244 0.526,0.032 0.771,-0.7133 2.62,-1.4533 l 0.02,-0.0053 c 1.371,-0.4894 2.36,-1.4734 2.538,-2.708 0.301,-2.0574 -1.724,-4.052 -4.516,-4.4587 -2.798,-0.4053 -5.303,0.9333 -5.599,2.9853 -0.292,1.968 1.552,3.88 4.167,4.396 z"
     id="path679" />
  <path
     style="fill:#231f20;fill-opacity:1;fill-rule:nonzero;stroke:none"
     d="m 96.343,64.0056 c 3.9,0.9267 2.968,-3.0467 3.083,-3.5106 1.183,-4.8654 1.147,-5.2454 1.787,-9.016 0.932,-5.448 0.724,-9.3227 -2.287,-10.7867 -2.041,-0.9946 -3.645,-0.6813 -4.62,0.204 -1.077,0.984 -2.172,3.9734 -0.411,6.26 l 0.178,1.7027 c -0.038,1.1613 -0.043,1.74 -0.1,2.3133 -0.11,0.9947 -0.156,2.072 -0.255,4.0253 -0.177,3.464 0.776,7.188 0.776,7.188 -0.027,1.244 1.849,1.62 1.849,1.62"
     id="path680" />
  <path
     style="fill:none;stroke:#231f20;stroke-width:0.565977;stroke-linecap:butt;stroke-linejoin:miter;stroke-miterlimit:4;stroke-dasharray:none;stroke-opacity:1"
     d="m 96.343,64.0056 c 3.9,0.9267 2.968,-3.0467 3.083,-3.5106 1.183,-4.8654 1.147,-5.2454 1.787,-9.016 0.932,-5.448 0.724,-9.3227 -2.287,-10.7867 -2.041,-0.9946 -3.645,-0.6813 -4.62,0.204 -1.077,0.984 -2.172,3.9734 -0.411,6.26 l 0.178,1.7027 c -0.038,1.1613 -0.043,1.74 -0.1,2.3133 -0.11,0.9947 -0.156,2.072 -0.255,4.0253 -0.177,3.464 0.776,7.188 0.776,7.188 -0.027,1.244 1.849,1.62 1.849,1.62 z"
     id="path681" />
  <path
     style="fill:#ca0369;fill-opacity:1;fill-rule:nonzero;stroke:none"
     d="m 98.926,40.6923 c -2.041,-0.9946 -3.645,-0.6813 -4.62,0.204 -1.077,0.984 -2.172,3.9734 -0.411,6.26 l 7.735,1.0987 c 0.307,-3.7493 -0.324,-6.4053 -2.704,-7.5627"
     id="path682" />
  <path
     style="fill:none;stroke:#231f20;stroke-width:0.565977;stroke-linecap:butt;stroke-linejoin:miter;stroke-miterlimit:4;stroke-dasharray:none;stroke-opacity:1"
     d="m 98.926,40.6923 c -2.041,-0.9946 -3.645,-0.6813 -4.62,0.204 -1.077,0.984 -2.172,3.9734 -0.411,6.26 l 7.735,1.0987 c 0.307,-3.7493 -0.324,-6.4053 -2.704,-7.5627 z"
     id="path683" />
  <path
     style="fill:#ffffff;fill-opacity:1;fill-rule:nonzero;stroke:none"
     d="M 0,18.8751 H 18.869 V 0 H 0 Z"
     id="path684" />
  <path
     style="fill:#231f20;fill-opacity:1;fill-rule:nonzero;stroke:none"
     d="m 35.625,101.2296 c -0.907,-1.005 -0.459,-1.891 0.5,-2.292 0.281,-0.125 0.4,-0.521 0.692,-0.615 0.667,-0.218 2.193,0.626 1.813,2.074 -0.026,0.109 0.015,0.921 -0.048,1.541 -0.129,1.208 -0.973,3.557 -3.421,4.688 -1.156,0.536 -1.26,-0.251 -0.855,-0.605 1.276,-1.14 1.167,-1.495 1.396,-1.911 0.776,-1.427 -0.077,-2.88 -0.077,-2.88"
     id="path688" />
  <path
     style="fill:none;stroke:#231f20;stroke-width:0.332927;stroke-linecap:butt;stroke-linejoin:miter;stroke-miterlimit:4;stroke-dasharray:none;stroke-opacity:1"
     d="m 35.625,101.2296 c -0.907,-1.005 -0.459,-1.891 0.5,-2.292 0.281,-0.125 0.4,-0.521 0.692,-0.615 0.667,-0.218 2.193,0.626 1.813,2.074 -0.026,0.109 0.015,0.921 -0.048,1.541 -0.129,1.208 -0.973,3.557 -3.421,4.688 -1.156,0.536 -1.26,-0.251 -0.855,-0.605 1.276,-1.14 1.167,-1.495 1.396,-1.911 0.776,-1.427 -0.077,-2.88 -0.077,-2.88 z"
     id="path689" />
  <path
     style="fill:#231f20;fill-opacity:1;fill-rule:nonzero;stroke:none"
     d="m 40.64,83.1566 c -2.156,-0.698 -2.672,-0.542 -3.026,0.344 -0.24,0.593 -0.661,1.068 -0.822,1.416 -0.543,1.182 -0.959,3.385 -0.511,9.958 0.099,1.49 0.229,3.579 0.213,4.438 -0.026,1.36 2.246,0.48 2.26,-0.052 0.052,-1.714 0.224,-2.891 0.323,-3.506 0.073,-0.421 0.1,-1.181 0.579,-2.776 0.734,-2.416 1.53,-3.76 1.906,-5.838 0.178,-0.963 0.922,-1.583 0.61,-2.62 -0.314,-1.042 -1.532,-1.364 -1.532,-1.364"
     id="path690" />
  <path
     style="fill:none;stroke:#231f20;stroke-width:0.565977;stroke-linecap:butt;stroke-linejoin:miter;stroke-miterlimit:4;stroke-dasharray:none;stroke-opacity:1"
     d="m 40.64,83.1566 c -2.156,-0.698 -2.672,-0.542 -3.026,0.344 -0.24,0.593 -0.661,1.068 -0.822,1.416 -0.543,1.182 -0.959,3.385 -0.511,9.958 0.099,1.49 0.229,3.579 0.213,4.438 -0.026,1.36 2.246,0.48 2.26,-0.052 0.052,-1.714 0.224,-2.891 0.323,-3.506 0.073,-0.421 0.1,-1.181 0.579,-2.776 0.734,-2.416 1.53,-3.76 1.906,-5.838 0.178,-0.963 0.922,-1.583 0.61,-2.62 -0.314,-1.042 -1.532,-1.364 -1.532,-1.364 z"
     id="path691" />
  <path
     style="fill:#231f20;fill-opacity:1;fill-rule:nonzero;stroke:none"
     d="m 39.353,85.2706 c 3.699,1.558 3.433,-2.516 3.62,-2.953 1.975,-4.604 1.995,-4.984 3.251,-8.5987 1.812,-5.2186 2.254,-9.0733 -0.475,-11.016 -1.853,-1.3173 -3.489,-1.276 -4.599,-0.5573 -1.224,0.792 -2.792,3.5573 -1.432,6.104 l -0.109,1.7093 c -0.224,1.14 -0.323,1.708 -0.48,2.2654 -0.271,0.9626 -0.495,2.0159 -0.911,3.9266 -0.745,3.3907 -0.417,7.2187 -0.417,7.2187 -0.233,1.224 1.552,1.901 1.552,1.901"
     id="path692" />
  <path
     style="fill:none;stroke:#231f20;stroke-width:0.565977;stroke-linecap:butt;stroke-linejoin:miter;stroke-miterlimit:4;stroke-dasharray:none;stroke-opacity:1"
     d="m 39.353,85.2706 c 3.699,1.558 3.433,-2.516 3.62,-2.953 1.975,-4.604 1.995,-4.984 3.251,-8.5987 1.812,-5.2186 2.254,-9.0733 -0.475,-11.016 -1.853,-1.3173 -3.489,-1.276 -4.599,-0.5573 -1.224,0.792 -2.792,3.5573 -1.432,6.104 l -0.109,1.7093 c -0.224,1.14 -0.323,1.708 -0.48,2.2654 -0.271,0.9626 -0.495,2.0159 -0.911,3.9266 -0.745,3.3907 -0.417,7.2187 -0.417,7.2187 -0.233,1.224 1.552,1.901 1.552,1.901 z"
     id="path693" />
  <path
     style="fill:#231f20;fill-opacity:1;fill-rule:nonzero;stroke:none"
     d="m 40.666,101.9736 c -1.036,-0.864 -0.713,-1.801 0.178,-2.333 0.265,-0.162 0.328,-0.567 0.604,-0.703 0.629,-0.308 2.26,0.317 2.082,1.807 -0.014,0.109 0.142,0.912 0.162,1.532 0.037,1.213 -0.474,3.656 -2.744,5.114 -1.074,0.687 -1.282,-0.073 -0.928,-0.484 1.105,-1.302 0.948,-1.636 1.114,-2.084 0.574,-1.516 -0.468,-2.849 -0.468,-2.849"
     id="path694" />
  <path
     style="fill:none;stroke:#231f20;stroke-width:0.332927;stroke-linecap:butt;stroke-linejoin:miter;stroke-miterlimit:4;stroke-dasharray:none;stroke-opacity:1"
     d="m 40.666,101.9736 c -1.036,-0.864 -0.713,-1.801 0.178,-2.333 0.265,-0.162 0.328,-0.567 0.604,-0.703 0.629,-0.308 2.26,0.317 2.082,1.807 -0.014,0.109 0.142,0.912 0.162,1.532 0.037,1.213 -0.474,3.656 -2.744,5.114 -1.074,0.687 -1.282,-0.073 -0.928,-0.484 1.105,-1.302 0.948,-1.636 1.114,-2.084 0.574,-1.516 -0.468,-2.849 -0.468,-2.849 z"
     id="path695" />
  <path
     style="fill:#231f20;fill-opacity:1;fill-rule:nonzero;stroke:none"
     d="m 43.145,83.3906 c -2.229,-0.396 -2.719,-0.172 -2.948,0.755 -0.151,0.62 -0.505,1.147 -0.62,1.516 -0.369,1.245 -0.484,3.484 0.865,9.932 0.302,1.464 0.719,3.516 0.818,4.365 0.161,1.354 2.292,0.172 2.234,-0.36 -0.182,-1.702 -0.177,-2.89 -0.161,-3.516 0.016,-0.426 -0.068,-1.181 0.192,-2.828 0.396,-2.494 1,-3.932 1.089,-6.046 0.036,-0.979 0.687,-1.692 0.239,-2.678 -0.452,-0.989 -1.708,-1.14 -1.708,-1.14"
     id="path696" />
  <path
     style="fill:none;stroke:#231f20;stroke-width:0.565977;stroke-linecap:butt;stroke-linejoin:miter;stroke-miterlimit:4;stroke-dasharray:none;stroke-opacity:1"
     d="m 43.145,83.3906 c -2.229,-0.396 -2.719,-0.172 -2.948,0.755 -0.151,0.62 -0.505,1.147 -0.62,1.516 -0.369,1.245 -0.484,3.484 0.865,9.932 0.302,1.464 0.719,3.516 0.818,4.365 0.161,1.354 2.292,0.172 2.234,-0.36 -0.182,-1.702 -0.177,-2.89 -0.161,-3.516 0.016,-0.426 -0.068,-1.181 0.192,-2.828 0.396,-2.494 1,-3.932 1.089,-6.046 0.036,-0.979 0.687,-1.692 0.239,-2.678 -0.452,-0.989 -1.708,-1.14 -1.708,-1.14 z"
     id="path697" />
  <path
     style="fill:#ca0369;fill-opacity:1;fill-rule:nonzero;stroke:none"
     d="m 41.192,57.4683 c -0.067,3.136 -0.427,3.8026 -0.807,4.636 -2.385,5.2653 0.24,6.3386 3.088,5.88 3.349,-0.536 4.563,-0.6614 4.1,-6.9427 -0.125,-1.7453 0.255,-8.5053 0.255,-8.5053 0.464,-2.4013 -0.366,-4.9947 -1.552,-5.8386 -1.251,-0.8907 -0.818,-0.448 -2.131,-1.0574 -1.244,-0.5826 -3.421,-0.38 -4.129,0.636 -0.683,0.9733 0.009,2.4893 0.708,4.812 0.552,1.828 0.468,6.38 0.468,6.38"
     id="path698" />
  <path
     style="fill:none;stroke:#231f20;stroke-width:0.565977;stroke-linecap:butt;stroke-linejoin:miter;stroke-miterlimit:4;stroke-dasharray:none;stroke-opacity:1"
     d="m 41.192,57.4683 c -0.067,3.136 -0.427,3.8026 -0.807,4.636 -2.385,5.2653 0.24,6.3386 3.088,5.88 3.349,-0.536 4.563,-0.6614 4.1,-6.9427 -0.125,-1.7453 0.255,-8.5053 0.255,-8.5053 0.464,-2.4013 -0.366,-4.9947 -1.552,-5.8386 -1.251,-0.8907 -0.818,-0.448 -2.131,-1.0574 -1.244,-0.5826 -3.421,-0.38 -4.129,0.636 -0.683,0.9733 0.009,2.4893 0.708,4.812 0.552,1.828 0.468,6.38 0.468,6.38 z"
     id="path699" />
  <path
     style="fill:#ffffff;fill-opacity:1;fill-rule:nonzero;stroke:none"
     d="m 46.568,39.683 c 0.046,-0.24 1.192,-0.324 1.192,-0.8493 0,-0.5214 -0.76,-0.724 -1.61,-2.5267 l -0.01,-0.0147 c -0.572,-1.3386 -1.61,-2.2613 -2.859,-2.3653 -2.068,-0.172 -3.937,1.9693 -4.172,4.7813 -0.229,2.8174 1.26,5.24 3.328,5.412 1.979,0.1614 3.776,-1.7973 4.131,-4.4373"
     id="path700" />
  <path
     style="fill:none;stroke:#231f20;stroke-width:0.565977;stroke-linecap:butt;stroke-linejoin:miter;stroke-miterlimit:4;stroke-dasharray:none;stroke-opacity:1"
     d="m 46.568,39.683 c 0.046,-0.24 1.192,-0.324 1.192,-0.8493 0,-0.5214 -0.76,-0.724 -1.61,-2.5267 l -0.01,-0.0147 c -0.572,-1.3386 -1.61,-2.2613 -2.859,-2.3653 -2.068,-0.172 -3.937,1.9693 -4.172,4.7813 -0.229,2.8174 1.26,5.24 3.328,5.412 1.979,0.1614 3.776,-1.7973 4.131,-4.4373 z"
     id="path701" />
  <path
     style="fill:#231f20;fill-opacity:1;fill-rule:nonzero;stroke:none"
     d="m 42.166,85.6616 c 3.875,1.036 3.052,-2.964 3.178,-3.421 1.322,-4.8337 1.29,-5.215 2.036,-8.9643 1.082,-5.4227 0.989,-9.2974 -1.984,-10.8494 -2.016,-1.0466 -3.631,-0.7813 -4.626,0.0787 -1.104,0.9533 -2.281,3.9107 -0.584,6.244 l 0.126,1.7093 c -0.063,1.1614 -0.083,1.7387 -0.162,2.3067 -0.134,0.9947 -0.213,2.068 -0.364,4.016 -0.27,3.463 0.578,7.213 0.578,7.213 -0.063,1.24 1.802,1.667 1.802,1.667"
     id="path702" />
  <path
     style="fill:none;stroke:#231f20;stroke-width:0.565977;stroke-linecap:butt;stroke-linejoin:miter;stroke-miterlimit:4;stroke-dasharray:none;stroke-opacity:1"
     d="m 42.166,85.6616 c 3.875,1.036 3.052,-2.964 3.178,-3.421 1.322,-4.8337 1.29,-5.215 2.036,-8.9643 1.082,-5.4227 0.989,-9.2974 -1.984,-10.8494 -2.016,-1.0466 -3.631,-0.7813 -4.626,0.0787 -1.104,0.9533 -2.281,3.9107 -0.584,6.244 l 0.126,1.7093 c -0.063,1.1614 -0.083,1.7387 -0.162,2.3067 -0.134,0.9947 -0.213,2.068 -0.364,4.016 -0.27,3.463 0.578,7.213 0.578,7.213 -0.063,1.24 1.802,1.667 1.802,1.667 z"
     id="path703" />
  <path
     style="fill:#ca0369;fill-opacity:1;fill-rule:nonzero;stroke:none"
     d="m 47.776,65.7763 c -0.334,-1.516 -1.068,-2.6667 -2.38,-3.3494 -2.016,-1.0466 -3.631,-0.7813 -4.626,0.0787 -1.104,0.9533 -2.281,3.9107 -0.584,6.244 l 7.704,1.3187 c 0.074,-0.6574 0.099,-1.2614 0.11,-1.8494 0.025,-0.0786 0.052,-0.1506 0.088,-0.2133 0.374,-0.7093 0.13,-1.292 -0.312,-2.2293"
     id="path704" />
  <path
     style="fill:none;stroke:#231f20;stroke-width:0.565977;stroke-linecap:butt;stroke-linejoin:miter;stroke-miterlimit:4;stroke-dasharray:none;stroke-opacity:1"
     d="m 47.776,65.7763 c -0.334,-1.516 -1.068,-2.6667 -2.38,-3.3494 -2.016,-1.0466 -3.631,-0.7813 -4.626,0.0787 -1.104,0.9533 -2.281,3.9107 -0.584,6.244 l 7.704,1.3187 c 0.074,-0.6574 0.099,-1.2614 0.11,-1.8494 0.025,-0.0786 0.052,-0.1506 0.088,-0.2133 0.374,-0.7093 0.13,-1.292 -0.312,-2.2293 z"
     id="path705" />
  <path
     style="fill:#ffffff;fill-opacity:1;fill-rule:nonzero;stroke:#231f20;stroke-width:0.665856;stroke-linecap:butt;stroke-linejoin:miter;stroke-miterlimit:4;stroke-dasharray:none;stroke-opacity:1"
     d="m 42.734,59.8016 h 1.328 v -42.328 h -1.328 z"
     id="path706" />
  <path
     style="fill:#ffffff;fill-opacity:1;fill-rule:nonzero;stroke:none"
     d="m 39.536,64.7349 c 0,-2.3546 1.917,-4.2706 4.27,-4.2706 2.355,0 4.271,1.916 4.271,4.2706 0,2.3534 -1.916,4.2707 -4.271,4.2707 -2.353,0 -4.27,-1.9173 -4.27,-4.2707 m -1.328,0 c 0,3.088 2.51,5.5987 5.598,5.5987 3.09,0 5.6,-2.5107 5.6,-5.5987 0,-3.0893 -2.51,-5.5999 -5.6,-5.5999 -3.088,0 -5.598,2.5106 -5.598,5.5999"
     id="path707" />
  <path
     style="fill:none;stroke:#231f20;stroke-width:0.665856;stroke-linecap:butt;stroke-linejoin:miter;stroke-miterlimit:4;stroke-dasharray:none;stroke-opacity:1"
     d="m 39.536,64.7349 c 0,-2.3546 1.917,-4.2706 4.27,-4.2706 2.355,0 4.271,1.916 4.271,4.2706 0,2.3534 -1.916,4.2707 -4.271,4.2707 -2.353,0 -4.27,-1.9173 -4.27,-4.2707 z m -1.328,0 c 0,3.088 2.51,5.5987 5.598,5.5987 3.09,0 5.6,-2.5107 5.6,-5.5987 0,-3.0893 -2.51,-5.5999 -5.6,-5.5999 -3.088,0 -5.598,2.5106 -5.598,5.5999 z"
     id="path708" />
  <path
     style="fill:#231f20;fill-opacity:1;fill-rule:nonzero;stroke:none"
     d="m 42.448,68.4643 c -0.375,-0.5214 -0.214,-2.4587 -0.704,-3.9907 -0.328,-1.036 -0.026,-3.7653 -0.432,-4.7706 -0.37,-0.9214 -0.459,-1.38 0.526,-1.984 0.578,-0.36 1.927,-0.672 2.219,-0.2507 0.672,0.98 0.859,1.912 0.844,2.98 -0.016,1.2133 -0.349,4.5106 -0.464,5.1093 -0.297,1.4947 0.036,2.1507 -0.005,2.5573 -0.074,0.7547 -0.38,0.9107 -0.886,0.9734 -0.948,0.104 -1.098,-0.624 -1.098,-0.624"
     id="path709" />
  <path
     style="fill:none;stroke:#231f20;stroke-width:0.565977;stroke-linecap:butt;stroke-linejoin:miter;stroke-miterlimit:4;stroke-dasharray:none;stroke-opacity:1"
     d="m 42.448,68.4643 c -0.375,-0.5214 -0.214,-2.4587 -0.704,-3.9907 -0.328,-1.036 -0.026,-3.7653 -0.432,-4.7706 -0.37,-0.9214 -0.459,-1.38 0.526,-1.984 0.578,-0.36 1.927,-0.672 2.219,-0.2507 0.672,0.98 0.859,1.912 0.844,2.98 -0.016,1.2133 -0.349,4.5106 -0.464,5.1093 -0.297,1.4947 0.036,2.1507 -0.005,2.5573 -0.074,0.7547 -0.38,0.9107 -0.886,0.9734 -0.948,0.104 -1.098,-0.624 -1.098,-0.624 z"
     id="path710" />
  <path
     style="fill:#231f20;fill-opacity:1;fill-rule:nonzero;stroke:none"
     d="m 41.921,59.4216 c -1.291,-0.068 -0.817,-2.0466 -0.771,-2.588 0.042,-0.5413 -0.005,-2.0933 -0.192,-3.3026 -0.193,-1.2134 0.083,-2.8014 -0.276,-5.0987 -0.193,-1.208 0.391,-2.5053 2.156,-2.7026 1.739,-0.1987 2.511,0.708 2.52,2.2026 0.006,1.5 -0.614,2.9067 -0.713,4.4173 -0.093,1.504 -0.052,3.052 0.037,4.2654 0.104,1.38 -0.354,2.0986 -0.781,2.3173 -1.063,0.5467 -1.98,0.4893 -1.98,0.4893"
     id="path711" />
  <path
     style="fill:none;stroke:#231f20;stroke-width:0.565977;stroke-linecap:butt;stroke-linejoin:miter;stroke-miterlimit:4;stroke-dasharray:none;stroke-opacity:1"
     d="m 41.921,59.4216 c -1.291,-0.068 -0.817,-2.0466 -0.771,-2.588 0.042,-0.5413 -0.005,-2.0933 -0.192,-3.3026 -0.193,-1.2134 0.083,-2.8014 -0.276,-5.0987 -0.193,-1.208 0.391,-2.5053 2.156,-2.7026 1.739,-0.1987 2.511,0.708 2.52,2.2026 0.006,1.5 -0.614,2.9067 -0.713,4.4173 -0.093,1.504 -0.052,3.052 0.037,4.2654 0.104,1.38 -0.354,2.0986 -0.781,2.3173 -1.063,0.5467 -1.98,0.4893 -1.98,0.4893 z"
     id="path712" />
  <path
     style="fill:#231f20;fill-opacity:1;fill-rule:nonzero;stroke:none"
     d="m 44.338,68.4429 c 0.651,0.26 0.859,2.568 0.568,2.692 -0.292,0.136 -0.276,-0.6346 -0.609,-0.5053 -0.329,0.136 -0.267,0.6253 -0.491,0.652 -0.249,0.0253 -0.238,-0.5787 -0.53,-0.4893 -0.126,0.036 -0.344,0.588 -0.532,0.552 -0.162,-0.0374 -0.359,-0.5214 -0.49,-0.552 -0.202,-0.0574 -0.27,0.5573 -0.448,0.5253 -0.457,-0.0733 0.194,-2.708 0.402,-2.8227 0.317,-0.1666 1.084,-0.4693 2.13,-0.052"
     id="path713" />
  <path
     style="fill:none;stroke:#231f20;stroke-width:0.565977;stroke-linecap:round;stroke-linejoin:round;stroke-miterlimit:4;stroke-dasharray:none;stroke-opacity:1"
     d="m 44.338,68.4429 c 0.651,0.26 0.859,2.568 0.568,2.692 -0.292,0.136 -0.276,-0.6346 -0.609,-0.5053 -0.329,0.136 -0.267,0.6253 -0.491,0.652 -0.249,0.0253 -0.238,-0.5787 -0.53,-0.4893 -0.126,0.036 -0.344,0.588 -0.532,0.552 -0.162,-0.0374 -0.359,-0.5214 -0.49,-0.552 -0.202,-0.0574 -0.27,0.5573 -0.448,0.5253 -0.457,-0.0733 0.194,-2.708 0.402,-2.8227 0.317,-0.1666 1.084,-0.4693 2.13,-0.052 z"
     id="path714" />
  <path
     style="fill:#231f20;fill-opacity:1;fill-rule:nonzero;stroke:none"
     d="m 111.546,68.4643 c -0.38,-0.5214 -0.219,-2.4587 -0.703,-3.9907 -0.333,-1.036 -0.032,-3.7653 -0.437,-4.7706 -0.371,-0.9214 -0.453,-1.38 0.525,-1.984 0.579,-0.36 1.927,-0.672 2.219,-0.2507 0.672,0.98 0.86,1.912 0.849,2.98 -0.016,1.2133 -0.349,4.5106 -0.469,5.1093 -0.291,1.4947 0.043,2.1507 0,2.5573 -0.072,0.7547 -0.385,0.9107 -0.885,0.9734 -0.954,0.104 -1.099,-0.624 -1.099,-0.624"
     id="path715" />
  <path
     style="fill:none;stroke:#231f20;stroke-width:0.565977;stroke-linecap:butt;stroke-linejoin:miter;stroke-miterlimit:4;stroke-dasharray:none;stroke-opacity:1"
     d="m 111.546,68.4643 c -0.38,-0.5214 -0.219,-2.4587 -0.703,-3.9907 -0.333,-1.036 -0.032,-3.7653 -0.437,-4.7706 -0.371,-0.9214 -0.453,-1.38 0.525,-1.984 0.579,-0.36 1.927,-0.672 2.219,-0.2507 0.672,0.98 0.86,1.912 0.849,2.98 -0.016,1.2133 -0.349,4.5106 -0.469,5.1093 -0.291,1.4947 0.043,2.1507 0,2.5573 -0.072,0.7547 -0.385,0.9107 -0.885,0.9734 -0.954,0.104 -1.099,-0.624 -1.099,-0.624 z"
     id="path716" />
  <path
     style="fill:#231f20;fill-opacity:1;fill-rule:nonzero;stroke:none"
     d="m 111.015,59.4216 c -1.292,-0.068 -0.818,-2.0466 -0.772,-2.588 0.048,-0.5413 0,-2.0933 -0.192,-3.3026 -0.193,-1.2134 0.083,-2.8014 -0.276,-5.0987 -0.188,-1.208 0.391,-2.5053 2.156,-2.7026 1.746,-0.1987 2.516,0.708 2.522,2.2026 0.009,1.5 -0.615,2.9067 -0.71,4.4173 -0.098,1.504 -0.057,3.052 0.038,4.2654 0.098,1.38 -0.36,2.0986 -0.787,2.3173 -1.063,0.5467 -1.979,0.4893 -1.979,0.4893"
     id="path717" />
  <path
     style="fill:none;stroke:#231f20;stroke-width:0.565977;stroke-linecap:butt;stroke-linejoin:miter;stroke-miterlimit:4;stroke-dasharray:none;stroke-opacity:1"
     d="m 111.015,59.4216 c -1.292,-0.068 -0.818,-2.0466 -0.772,-2.588 0.048,-0.5413 0,-2.0933 -0.192,-3.3026 -0.193,-1.2134 0.083,-2.8014 -0.276,-5.0987 -0.188,-1.208 0.391,-2.5053 2.156,-2.7026 1.746,-0.1987 2.516,0.708 2.522,2.2026 0.009,1.5 -0.615,2.9067 -0.71,4.4173 -0.098,1.504 -0.057,3.052 0.038,4.2654 0.098,1.38 -0.36,2.0986 -0.787,2.3173 -1.063,0.5467 -1.979,0.4893 -1.979,0.4893 z"
     id="path718" />
  <path
     style="fill:#231f20;fill-opacity:1;fill-rule:nonzero;stroke:none"
     d="m 193.978,67.3856 c -0.38,-0.5213 -0.219,-2.4587 -0.703,-3.9947 -0.333,-1.032 -0.032,-3.7613 -0.437,-4.7653 -0.371,-0.9226 -0.453,-1.3813 0.525,-1.9906 0.579,-0.3534 1.928,-0.672 2.219,-0.2494 0.672,0.984 0.86,1.9107 0.849,2.984 -0.016,1.2133 -0.349,4.5053 -0.468,5.1093 -0.292,1.4894 0.042,2.1507 0,2.552 -0.073,0.7614 -0.386,0.912 -0.886,0.9747 -0.952,0.104 -1.099,-0.62 -1.099,-0.62"
     id="path719" />
  <path
     style="fill:none;stroke:#231f20;stroke-width:0.565977;stroke-linecap:butt;stroke-linejoin:miter;stroke-miterlimit:4;stroke-dasharray:none;stroke-opacity:1"
     d="m 193.978,67.3856 c -0.38,-0.5213 -0.219,-2.4587 -0.703,-3.9947 -0.333,-1.032 -0.032,-3.7613 -0.437,-4.7653 -0.371,-0.9226 -0.453,-1.3813 0.525,-1.9906 0.579,-0.3534 1.928,-0.672 2.219,-0.2494 0.672,0.984 0.86,1.9107 0.849,2.984 -0.016,1.2133 -0.349,4.5053 -0.468,5.1093 -0.292,1.4894 0.042,2.1507 0,2.552 -0.073,0.7614 -0.386,0.912 -0.886,0.9747 -0.952,0.104 -1.099,-0.62 -1.099,-0.62 z"
     id="path720" />
  <path
     style="fill:#231f20;fill-opacity:1;fill-rule:nonzero;stroke:none"
     d="m 193.447,58.339 c -1.292,-0.068 -0.817,-2.0467 -0.77,-2.584 0.046,-0.5467 0,-2.0987 -0.194,-3.3067 -0.192,-1.208 0.084,-2.8027 -0.276,-5.0987 -0.188,-1.2093 0.391,-2.5053 2.156,-2.7039 1.746,-0.1974 2.516,0.708 2.522,2.204 0.01,1.4999 -0.615,2.9053 -0.714,4.4159 -0.094,1.5107 -0.052,3.0574 0.036,4.2654 0.104,1.38 -0.354,2.0986 -0.781,2.3186 -1.063,0.552 -1.979,0.4894 -1.979,0.4894"
     id="path721" />
  <path
     style="fill:none;stroke:#231f20;stroke-width:0.565977;stroke-linecap:butt;stroke-linejoin:miter;stroke-miterlimit:4;stroke-dasharray:none;stroke-opacity:1"
     d="m 193.447,58.339 c -1.292,-0.068 -0.817,-2.0467 -0.77,-2.584 0.046,-0.5467 0,-2.0987 -0.194,-3.3067 -0.192,-1.208 0.084,-2.8027 -0.276,-5.0987 -0.188,-1.2093 0.391,-2.5053 2.156,-2.7039 1.746,-0.1974 2.516,0.708 2.522,2.204 0.01,1.4999 -0.615,2.9053 -0.714,4.4159 -0.094,1.5107 -0.052,3.0574 0.036,4.2654 0.104,1.38 -0.354,2.0986 -0.781,2.3186 -1.063,0.552 -1.979,0.4894 -1.979,0.4894 z"
     id="path722" />
  <path
     style="fill:#231f20;fill-opacity:1;fill-rule:nonzero;stroke:none"
     d="m 269.728,67.3856 c -0.38,-0.5213 -0.213,-2.4587 -0.704,-3.9947 -0.333,-1.032 -0.03,-3.7613 -0.432,-4.7653 -0.374,-0.9226 -0.458,-1.3813 0.527,-1.9906 0.577,-0.3534 1.927,-0.672 2.219,-0.2494 0.672,0.984 0.853,1.9107 0.844,2.984 -0.016,1.2133 -0.35,4.5053 -0.464,5.1093 -0.298,1.4894 0.036,2.1507 -0.006,2.552 -0.073,0.7614 -0.38,0.912 -0.885,0.9747 -0.948,0.104 -1.099,-0.62 -1.099,-0.62"
     id="path723" />
  <path
     style="fill:none;stroke:#231f20;stroke-width:0.565977;stroke-linecap:butt;stroke-linejoin:miter;stroke-miterlimit:4;stroke-dasharray:none;stroke-opacity:1"
     d="m 269.728,67.3856 c -0.38,-0.5213 -0.213,-2.4587 -0.704,-3.9947 -0.333,-1.032 -0.03,-3.7613 -0.432,-4.7653 -0.374,-0.9226 -0.458,-1.3813 0.527,-1.9906 0.577,-0.3534 1.927,-0.672 2.219,-0.2494 0.672,0.984 0.853,1.9107 0.844,2.984 -0.016,1.2133 -0.35,4.5053 -0.464,5.1093 -0.298,1.4894 0.036,2.1507 -0.006,2.552 -0.073,0.7614 -0.38,0.912 -0.885,0.9747 -0.948,0.104 -1.099,-0.62 -1.099,-0.62 z"
     id="path724" />
  <path
     style="fill:#231f20;fill-opacity:1;fill-rule:nonzero;stroke:none"
     d="m 269.202,58.339 c -1.292,-0.068 -0.818,-2.0467 -0.776,-2.584 0.046,-0.5467 0,-2.0987 -0.192,-3.3067 -0.188,-1.208 0.088,-2.8027 -0.276,-5.0987 -0.188,-1.2093 0.39,-2.5053 2.161,-2.7039 1.739,-0.1974 2.511,0.708 2.515,2.204 0.01,1.4999 -0.615,2.9053 -0.708,4.4159 -0.099,1.5107 -0.058,3.0574 0.037,4.2654 0.104,1.38 -0.36,2.0986 -0.781,2.3186 -1.063,0.552 -1.98,0.4894 -1.98,0.4894"
     id="path725" />
  <path
     style="fill:none;stroke:#231f20;stroke-width:0.565977;stroke-linecap:butt;stroke-linejoin:miter;stroke-miterlimit:4;stroke-dasharray:none;stroke-opacity:1"
     d="m 269.202,58.339 c -1.292,-0.068 -0.818,-2.0467 -0.776,-2.584 0.046,-0.5467 0,-2.0987 -0.192,-3.3067 -0.188,-1.208 0.088,-2.8027 -0.276,-5.0987 -0.188,-1.2093 0.39,-2.5053 2.161,-2.7039 1.739,-0.1974 2.511,0.708 2.515,2.204 0.01,1.4999 -0.615,2.9053 -0.708,4.4159 -0.099,1.5107 -0.058,3.0574 0.037,4.2654 0.104,1.38 -0.36,2.0986 -0.781,2.3186 -1.063,0.552 -1.98,0.4894 -1.98,0.4894 z"
     id="path726" />
  <path
     style="fill:#ffffff;fill-opacity:1;fill-rule:nonzero;stroke:#231f20;stroke-width:0.665856;stroke-linecap:butt;stroke-linejoin:miter;stroke-miterlimit:4;stroke-dasharray:none;stroke-opacity:1"
     d="m 111.019,59.6243 h 1.334 v -42.328 h -1.334 z"
     id="path727" />
  <path
     style="fill:#ffffff;fill-opacity:1;fill-rule:nonzero;stroke:none"
     d="m 107.827,64.5629 c 0,-2.3546 1.916,-4.2706 4.271,-4.2706 2.355,0 4.265,1.916 4.265,4.2706 0,2.3534 -1.91,4.2654 -4.265,4.2654 -2.355,0 -4.271,-1.912 -4.271,-4.2654 m -1.328,0 c 0,3.0827 2.511,5.5987 5.599,5.5987 3.088,0 5.599,-2.516 5.599,-5.5987 0,-3.0893 -2.511,-5.6039 -5.599,-5.6039 -3.088,0 -5.599,2.5146 -5.599,5.6039"
     id="path728" />
  <path
     style="fill:none;stroke:#231f20;stroke-width:0.665856;stroke-linecap:butt;stroke-linejoin:miter;stroke-miterlimit:4;stroke-dasharray:none;stroke-opacity:1"
     d="m 107.827,64.5629 c 0,-2.3546 1.916,-4.2706 4.271,-4.2706 2.355,0 4.265,1.916 4.265,4.2706 0,2.3534 -1.91,4.2654 -4.265,4.2654 -2.355,0 -4.271,-1.912 -4.271,-4.2654 z m -1.328,0 c 0,3.0827 2.511,5.5987 5.599,5.5987 3.088,0 5.599,-2.516 5.599,-5.5987 0,-3.0893 -2.511,-5.6039 -5.599,-5.6039 -3.088,0 -5.599,2.5146 -5.599,5.6039 z"
     id="path729" />
  <path
     style="fill:#ffffff;fill-opacity:1;fill-rule:nonzero;stroke:#231f20;stroke-width:0.665856;stroke-linecap:butt;stroke-linejoin:miter;stroke-miterlimit:4;stroke-dasharray:none;stroke-opacity:1"
     d="m 194.53,59.6243 h 1.333 v -42.328 h -1.333 z"
     id="path730" />
  <path
     style="fill:#ffffff;fill-opacity:1;fill-rule:nonzero;stroke:none"
     d="m 191.338,64.5629 c 0,-2.3546 1.911,-4.2706 4.265,-4.2706 2.36,0 4.271,1.916 4.271,4.2706 0,2.3534 -1.911,4.2654 -4.271,4.2654 -2.354,0 -4.265,-1.912 -4.265,-4.2654 m -1.333,0 c 0,3.0827 2.514,5.5987 5.598,5.5987 3.088,0 5.604,-2.516 5.604,-5.5987 0,-3.0893 -2.516,-5.6039 -5.604,-5.6039 -3.084,0 -5.598,2.5146 -5.598,5.6039"
     id="path731" />
  <path
     style="fill:none;stroke:#231f20;stroke-width:0.665856;stroke-linecap:butt;stroke-linejoin:miter;stroke-miterlimit:4;stroke-dasharray:none;stroke-opacity:1"
     d="m 191.338,64.5629 c 0,-2.3546 1.911,-4.2706 4.265,-4.2706 2.36,0 4.271,1.916 4.271,4.2706 0,2.3534 -1.911,4.2654 -4.271,4.2654 -2.354,0 -4.265,-1.912 -4.265,-4.2654 z m -1.333,0 c 0,3.0827 2.514,5.5987 5.598,5.5987 3.088,0 5.604,-2.516 5.604,-5.5987 0,-3.0893 -2.516,-5.6039 -5.604,-5.6039 -3.084,0 -5.598,2.5146 -5.598,5.6039 z"
     id="path732" />
  <path
     style="fill:#231f20;fill-opacity:1;fill-rule:nonzero;stroke:none"
     d="m 195.973,67.4843 c 0.641,0.2706 0.818,2.5786 0.526,2.708 -0.292,0.1253 -0.27,-0.6454 -0.598,-0.5147 -0.339,0.124 -0.276,0.6187 -0.506,0.64 -0.25,0.0213 -0.229,-0.5827 -0.521,-0.4947 -0.125,0.0307 -0.355,0.584 -0.541,0.536 -0.162,-0.0306 -0.35,-0.52 -0.48,-0.5573 -0.203,-0.0573 -0.28,0.552 -0.458,0.5213 -0.453,-0.0826 0.235,-2.7026 0.448,-2.812 0.318,-0.1613 1.088,-0.4586 2.13,-0.0266"
     id="path733" />
  <path
     style="fill:none;stroke:#231f20;stroke-width:0.565977;stroke-linecap:round;stroke-linejoin:round;stroke-miterlimit:4;stroke-dasharray:none;stroke-opacity:1"
     d="m 195.973,67.4843 c 0.641,0.2706 0.818,2.5786 0.526,2.708 -0.292,0.1253 -0.27,-0.6454 -0.598,-0.5147 -0.339,0.124 -0.276,0.6187 -0.506,0.64 -0.25,0.0213 -0.229,-0.5827 -0.521,-0.4947 -0.125,0.0307 -0.355,0.584 -0.541,0.536 -0.162,-0.0306 -0.35,-0.52 -0.48,-0.5573 -0.203,-0.0573 -0.28,0.552 -0.458,0.5213 -0.453,-0.0826 0.235,-2.7026 0.448,-2.812 0.318,-0.1613 1.088,-0.4586 2.13,-0.0266 z"
     id="path734" />
  <path
     style="fill:#ffffff;fill-opacity:1;fill-rule:nonzero;stroke:none"
     d="m 269.868,59.6243 h 1.334 v -42.328 h -1.334 z"
     id="path735" />
  <path
     style="fill:none;stroke:#231f20;stroke-width:0.665856;stroke-linecap:butt;stroke-linejoin:miter;stroke-miterlimit:4;stroke-dasharray:none;stroke-opacity:1"
     d="m 269.874,59.6243 h 1.328 v -42.328 h -1.328 z"
     id="path736" />
  <path
     style="fill:#ffffff;fill-opacity:1;fill-rule:nonzero;stroke:none"
     d="m 266.676,64.5629 c 0,-2.3546 1.916,-4.2706 4.271,-4.2706 2.353,0 4.271,1.916 4.271,4.2706 0,2.3534 -1.918,4.2654 -4.271,4.2654 -2.355,0 -4.271,-1.912 -4.271,-4.2654 m -1.328,0 c 0,3.0827 2.51,5.5987 5.599,5.5987 3.088,0 5.599,-2.516 5.599,-5.5987 0,-3.0893 -2.511,-5.6039 -5.599,-5.6039 -3.089,0 -5.599,2.5146 -5.599,5.6039"
     id="path737" />
  <path
     style="fill:none;stroke:#231f20;stroke-width:0.665856;stroke-linecap:butt;stroke-linejoin:miter;stroke-miterlimit:4;stroke-dasharray:none;stroke-opacity:1"
     d="m 266.676,64.5629 c 0,-2.3546 1.916,-4.2706 4.271,-4.2706 2.353,0 4.271,1.916 4.271,4.2706 0,2.3534 -1.918,4.2654 -4.271,4.2654 -2.355,0 -4.271,-1.912 -4.271,-4.2654 z m -1.328,0 c 0,3.0827 2.51,5.5987 5.599,5.5987 3.088,0 5.599,-2.516 5.599,-5.5987 0,-3.0893 -2.511,-5.6039 -5.599,-5.6039 -3.089,0 -5.599,2.5146 -5.599,5.6039 z"
     id="path738" />
  <path
     style="fill:#231f20;fill-opacity:1;fill-rule:nonzero;stroke:none"
     d="m 271.311,67.4843 c 0.647,0.2706 0.823,2.5786 0.532,2.708 -0.297,0.1253 -0.271,-0.6454 -0.604,-0.5147 -0.333,0.124 -0.272,0.6187 -0.5,0.64 -0.251,0.0213 -0.229,-0.5827 -0.521,-0.4947 -0.126,0.0307 -0.355,0.584 -0.542,0.536 -0.166,-0.0306 -0.349,-0.52 -0.48,-0.5573 -0.208,-0.0573 -0.281,0.552 -0.457,0.5213 -0.459,-0.0826 0.233,-2.7026 0.443,-2.812 0.322,-0.1613 1.088,-0.4586 2.129,-0.0266"
     id="path739" />
  <path
     style="fill:none;stroke:#231f20;stroke-width:0.565977;stroke-linecap:round;stroke-linejoin:round;stroke-miterlimit:4;stroke-dasharray:none;stroke-opacity:1"
     d="m 271.311,67.4843 c 0.647,0.2706 0.823,2.5786 0.532,2.708 -0.297,0.1253 -0.271,-0.6454 -0.604,-0.5147 -0.333,0.124 -0.272,0.6187 -0.5,0.64 -0.251,0.0213 -0.229,-0.5827 -0.521,-0.4947 -0.126,0.0307 -0.355,0.584 -0.542,0.536 -0.166,-0.0306 -0.349,-0.52 -0.48,-0.5573 -0.208,-0.0573 -0.281,0.552 -0.457,0.5213 -0.459,-0.0826 0.233,-2.7026 0.443,-2.812 0.322,-0.1613 1.088,-0.4586 2.129,-0.0266 z"
     id="path740" />
  <path
     style="fill:#231f20;fill-opacity:1;fill-rule:nonzero;stroke:none"
     d="m 319.426,31.5684 c 1.068,0.828 0.776,1.7813 -0.088,2.3426 -0.262,0.1667 -0.314,0.5787 -0.579,0.724 -0.62,0.3333 -2.271,-0.228 -2.151,-1.724 0.011,-0.1093 -0.172,-0.9053 -0.218,-1.5253 -0.084,-1.208 0.338,-3.672 2.546,-5.2133 1.047,-0.7294 1.287,0.0253 0.954,0.448 -1.063,1.3426 -0.891,1.672 -1.042,2.12 -0.516,1.5413 0.578,2.828 0.578,2.828"
     id="path741" />
  <path
     style="fill:none;stroke:#231f20;stroke-width:0.332927;stroke-linecap:butt;stroke-linejoin:miter;stroke-miterlimit:4;stroke-dasharray:none;stroke-opacity:1"
     d="m 319.426,31.5684 c 1.068,0.828 0.776,1.7813 -0.088,2.3426 -0.262,0.1667 -0.314,0.5787 -0.579,0.724 -0.62,0.3333 -2.271,-0.228 -2.151,-1.724 0.011,-0.1093 -0.172,-0.9053 -0.218,-1.5253 -0.084,-1.208 0.338,-3.672 2.546,-5.2133 1.047,-0.7294 1.287,0.0253 0.954,0.448 -1.063,1.3426 -0.891,1.672 -1.042,2.12 -0.516,1.5413 0.578,2.828 0.578,2.828 z"
     id="path742" />
  <path
     style="fill:#231f20;fill-opacity:1;fill-rule:nonzero;stroke:none"
     d="m 317.639,50.235 c 2.245,0.312 2.724,0.072 2.923,-0.8654 0.129,-0.6253 0.462,-1.1613 0.562,-1.536 0.323,-1.2599 0.348,-3.4999 -1.234,-9.8906 -0.36,-1.4533 -0.85,-3.4893 -0.984,-4.3386 -0.215,-1.3387 -2.292,-0.0787 -2.22,0.4479 0.25,1.6974 0.286,2.8854 0.292,3.5054 0.005,0.4266 0.114,1.1826 -0.083,2.8333 -0.303,2.5107 -0.855,3.968 -0.86,6.0827 -0.005,0.9853 -0.629,1.7186 -0.14,2.6879 0.489,0.9694 1.744,1.0734 1.744,1.0734"
     id="path743" />
  <path
     style="fill:none;stroke:#231f20;stroke-width:0.565977;stroke-linecap:butt;stroke-linejoin:miter;stroke-miterlimit:4;stroke-dasharray:none;stroke-opacity:1"
     d="m 317.639,50.235 c 2.245,0.312 2.724,0.072 2.923,-0.8654 0.129,-0.6253 0.462,-1.1613 0.562,-1.536 0.323,-1.2599 0.348,-3.4999 -1.234,-9.8906 -0.36,-1.4533 -0.85,-3.4893 -0.984,-4.3386 -0.215,-1.3387 -2.292,-0.0787 -2.22,0.4479 0.25,1.6974 0.286,2.8854 0.292,3.5054 0.005,0.4266 0.114,1.1826 -0.083,2.8333 -0.303,2.5107 -0.855,3.968 -0.86,6.0827 -0.005,0.9853 -0.629,1.7186 -0.14,2.6879 0.489,0.9694 1.744,1.0734 1.744,1.0734 z"
     id="path744" />
  <path
     style="fill:#ca0369;fill-opacity:1;fill-rule:nonzero;stroke:none"
     d="m 320.567,76.0629 c -0.052,-3.1306 0.281,-3.808 0.629,-4.6613 2.194,-5.3547 -0.478,-6.324 -3.306,-5.756 -3.323,0.6613 -4.527,0.828 -3.834,7.0893 0.192,1.7387 0.063,8.5097 0.063,8.5097 -0.376,2.417 0.552,4.974 1.771,5.776 1.281,0.838 0.833,0.417 2.166,0.98 1.266,0.536 3.432,0.244 4.104,-0.792 0.646,-1 -0.104,-2.49 -0.89,-4.787 -0.62,-1.801 -0.703,-6.3587 -0.703,-6.3587"
     id="path745" />
  <path
     style="fill:none;stroke:#231f20;stroke-width:0.565977;stroke-linecap:butt;stroke-linejoin:miter;stroke-miterlimit:4;stroke-dasharray:none;stroke-opacity:1"
     d="m 320.567,76.0629 c -0.052,-3.1306 0.281,-3.808 0.629,-4.6613 2.194,-5.3547 -0.478,-6.324 -3.306,-5.756 -3.323,0.6613 -4.527,0.828 -3.834,7.0893 0.192,1.7387 0.063,8.5097 0.063,8.5097 -0.376,2.417 0.552,4.974 1.771,5.776 1.281,0.838 0.833,0.417 2.166,0.98 1.266,0.536 3.432,0.244 4.104,-0.792 0.646,-1 -0.104,-2.49 -0.89,-4.787 -0.62,-1.801 -0.703,-6.3587 -0.703,-6.3587 z"
     id="path746" />
  <path
     style="fill:#ffffff;fill-opacity:1;fill-rule:nonzero;stroke:none"
     d="m 315.858,92.7086 c -0.036,0.24 -1.176,0.369 -1.156,0.89 0.021,0.527 0.786,0.698 1.704,2.47 l 0.009,0.014 c 0.62,1.314 1.693,2.199 2.948,2.256 2.073,0.094 3.86,-2.12 3.985,-4.937 0.124,-2.824 -1.453,-5.188 -3.526,-5.281 -1.984,-0.09 -3.708,1.937 -3.964,4.588"
     id="path747" />
  <path
     style="fill:none;stroke:#231f20;stroke-width:0.565977;stroke-linecap:butt;stroke-linejoin:miter;stroke-miterlimit:4;stroke-dasharray:none;stroke-opacity:1"
     d="m 315.858,92.7086 c -0.036,0.24 -1.176,0.369 -1.156,0.89 0.021,0.527 0.786,0.698 1.704,2.47 l 0.009,0.014 c 0.62,1.314 1.693,2.199 2.948,2.256 2.073,0.094 3.86,-2.12 3.985,-4.937 0.124,-2.824 -1.453,-5.188 -3.526,-5.281 -1.984,-0.09 -3.708,1.937 -3.964,4.588 z"
     id="path748" />
  <path
     style="fill:#231f20;fill-opacity:1;fill-rule:nonzero;stroke:none"
     d="m 318.535,47.927 c -3.911,-0.8907 -2.943,3.0786 -3.047,3.5413 -1.14,4.8813 -1.098,5.2613 -1.702,9.032 -0.876,5.4586 -0.636,9.3333 2.39,10.7653 2.058,0.9747 3.662,0.6507 4.624,-0.2493 1.068,-0.996 2.131,-3.9907 0.35,-6.2614 l -0.192,-1.7026 c 0.02,-1.1614 0.02,-1.74 0.077,-2.312 0.093,-1 0.131,-2.0733 0.213,-4.0267 0.142,-3.4693 -0.853,-7.188 -0.853,-7.188 0.02,-1.2386 -1.86,-1.5986 -1.86,-1.5986"
     id="path749" />
  <path
     style="fill:none;stroke:#231f20;stroke-width:0.565977;stroke-linecap:butt;stroke-linejoin:miter;stroke-miterlimit:4;stroke-dasharray:none;stroke-opacity:1"
     d="m 318.535,47.927 c -3.911,-0.8907 -2.943,3.0786 -3.047,3.5413 -1.14,4.8813 -1.098,5.2613 -1.702,9.032 -0.876,5.4586 -0.636,9.3333 2.39,10.7653 2.058,0.9747 3.662,0.6507 4.624,-0.2493 1.068,-0.996 2.131,-3.9907 0.35,-6.2614 l -0.192,-1.7026 c 0.02,-1.1614 0.02,-1.74 0.077,-2.312 0.093,-1 0.131,-2.0733 0.213,-4.0267 0.142,-3.4693 -0.853,-7.188 -0.853,-7.188 0.02,-1.2386 -1.86,-1.5986 -1.86,-1.5986 z"
     id="path750" />
  <path
     style="fill:#ca0369;fill-opacity:1;fill-rule:nonzero;stroke:none"
     d="m 321.15,64.7549 -7.75,-1.0253 c -0.048,0.656 -0.052,1.26 -0.042,1.848 -0.02,0.0787 -0.047,0.152 -0.078,0.22 -0.349,0.7227 -0.084,1.296 0.391,2.2187 0.396,1.5 1.177,2.6186 2.505,3.2493 2.058,0.9747 3.662,0.6507 4.624,-0.2493 1.068,-0.996 2.131,-3.9907 0.35,-6.2614"
     id="path751" />
  <path
     style="fill:none;stroke:#231f20;stroke-width:0.565977;stroke-linecap:butt;stroke-linejoin:miter;stroke-miterlimit:4;stroke-dasharray:none;stroke-opacity:1"
     d="m 321.15,64.7549 -7.75,-1.0253 c -0.048,0.656 -0.052,1.26 -0.042,1.848 -0.02,0.0787 -0.047,0.152 -0.078,0.22 -0.349,0.7227 -0.084,1.296 0.391,2.2187 0.396,1.5 1.177,2.6186 2.505,3.2493 2.058,0.9747 3.662,0.6507 4.624,-0.2493 1.068,-0.996 2.131,-3.9907 0.35,-6.2614 z"
     id="path752" />
  <path
     style="fill:#231f20;fill-opacity:1;fill-rule:nonzero;stroke:none"
     d="m 318.124,106.2926 c -0.376,-0.527 -0.188,-2.464 -0.657,-4 -0.323,-1.038 0.016,-3.767 -0.38,-4.776 -0.359,-0.928 -0.437,-1.386 0.552,-1.975 0.579,-0.355 1.937,-0.656 2.224,-0.229 0.656,0.989 0.828,1.922 0.808,2.994 -0.032,1.21 -0.401,4.506 -0.527,5.1 -0.317,1.49 0.011,2.156 -0.03,2.556 -0.084,0.756 -0.396,0.912 -0.902,0.964 -0.948,0.094 -1.088,-0.634 -1.088,-0.634"
     id="path753" />
  <path
     style="fill:none;stroke:#231f20;stroke-width:0.565977;stroke-linecap:butt;stroke-linejoin:miter;stroke-miterlimit:4;stroke-dasharray:none;stroke-opacity:1"
     d="m 318.124,106.2926 c -0.376,-0.527 -0.188,-2.464 -0.657,-4 -0.323,-1.038 0.016,-3.767 -0.38,-4.776 -0.359,-0.928 -0.437,-1.386 0.552,-1.975 0.579,-0.355 1.937,-0.656 2.224,-0.229 0.656,0.989 0.828,1.922 0.808,2.994 -0.032,1.21 -0.401,4.506 -0.527,5.1 -0.317,1.49 0.011,2.156 -0.03,2.556 -0.084,0.756 -0.396,0.912 -0.902,0.964 -0.948,0.094 -1.088,-0.634 -1.088,-0.634 z"
     id="path754" />
  <path
     style="fill:#231f20;fill-opacity:1;fill-rule:nonzero;stroke:none"
     d="m 317.702,97.2406 c -1.292,-0.079 -0.796,-2.058 -0.744,-2.595 0.052,-0.541 0.025,-2.093 -0.152,-3.307 -0.176,-1.213 0.12,-2.797 -0.214,-5.104 -0.177,-1.209 0.423,-2.5 2.188,-2.672 1.744,-0.177 2.506,0.734 2.495,2.23 -0.011,1.5 -0.651,2.9 -0.765,4.41 -0.115,1.506 -0.09,3.052 -0.016,4.262 0.088,1.385 -0.38,2.093 -0.808,2.312 -1.067,0.536 -1.984,0.464 -1.984,0.464"
     id="path755" />
  <path
     style="fill:none;stroke:#231f20;stroke-width:0.565977;stroke-linecap:butt;stroke-linejoin:miter;stroke-miterlimit:4;stroke-dasharray:none;stroke-opacity:1"
     d="m 317.702,97.2406 c -1.292,-0.079 -0.796,-2.058 -0.744,-2.595 0.052,-0.541 0.025,-2.093 -0.152,-3.307 -0.176,-1.213 0.12,-2.797 -0.214,-5.104 -0.177,-1.209 0.423,-2.5 2.188,-2.672 1.744,-0.177 2.506,0.734 2.495,2.23 -0.011,1.5 -0.651,2.9 -0.765,4.41 -0.115,1.506 -0.09,3.052 -0.016,4.262 0.088,1.385 -0.38,2.093 -0.808,2.312 -1.067,0.536 -1.984,0.464 -1.984,0.464 z"
     id="path756" />
  <path
     style="fill:#ffffff;fill-opacity:1;fill-rule:nonzero;stroke:#231f20;stroke-width:0.665856;stroke-linecap:butt;stroke-linejoin:miter;stroke-miterlimit:4;stroke-dasharray:none;stroke-opacity:1"
     d="m 317.89,97.7046 h 1.333 V 16.7404 h -1.333 z"
     id="path757" />
  <path
     style="fill:#ffffff;fill-opacity:1;fill-rule:nonzero;stroke:none"
     d="m 314.696,102.6346 c 0,-2.353 1.918,-4.265 4.271,-4.265 2.355,0 4.272,1.912 4.272,4.265 0,2.36 -1.917,4.272 -4.272,4.272 -2.353,0 -4.271,-1.912 -4.271,-4.272 m -1.333,0 c 0,3.095 2.516,5.606 5.604,5.606 3.089,0 5.6,-2.511 5.6,-5.606 0,-3.082 -2.511,-5.598 -5.6,-5.598 -3.088,0 -5.604,2.516 -5.604,5.598"
     id="path758" />
  <path
     style="fill:none;stroke:#231f20;stroke-width:0.665856;stroke-linecap:butt;stroke-linejoin:miter;stroke-miterlimit:4;stroke-dasharray:none;stroke-opacity:1"
     d="m 314.696,102.6346 c 0,-2.353 1.918,-4.265 4.271,-4.265 2.355,0 4.272,1.912 4.272,4.265 0,2.36 -1.917,4.272 -4.272,4.272 -2.353,0 -4.271,-1.912 -4.271,-4.272 z m -1.333,0 c 0,3.095 2.516,5.606 5.604,5.606 3.089,0 5.6,-2.511 5.6,-5.606 0,-3.082 -2.511,-5.598 -5.6,-5.598 -3.088,0 -5.604,2.516 -5.604,5.598 z"
     id="path759" />
  <path
     style="fill:#231f20;fill-opacity:1;fill-rule:nonzero;stroke:none"
     d="m 320.01,106.2926 c 0.645,0.265 0.828,2.572 0.536,2.702 -0.292,0.126 -0.271,-0.641 -0.604,-0.516 -0.334,0.131 -0.271,0.626 -0.5,0.647 -0.246,0.02 -0.23,-0.584 -0.516,-0.496 -0.126,0.032 -0.354,0.584 -0.542,0.543 -0.166,-0.032 -0.354,-0.522 -0.484,-0.558 -0.204,-0.057 -0.276,0.552 -0.453,0.52 -0.459,-0.077 0.224,-2.708 0.437,-2.817 0.312,-0.161 1.083,-0.459 2.126,-0.025"
     id="path760" />
  <path
     style="fill:none;stroke:#231f20;stroke-width:0.565977;stroke-linecap:round;stroke-linejoin:round;stroke-miterlimit:4;stroke-dasharray:none;stroke-opacity:1"
     d="m 320.01,106.2926 c 0.645,0.265 0.828,2.572 0.536,2.702 -0.292,0.126 -0.271,-0.641 -0.604,-0.516 -0.334,0.131 -0.271,0.626 -0.5,0.647 -0.246,0.02 -0.23,-0.584 -0.516,-0.496 -0.126,0.032 -0.354,0.584 -0.542,0.543 -0.166,-0.032 -0.354,-0.522 -0.484,-0.558 -0.204,-0.057 -0.276,0.552 -0.453,0.52 -0.459,-0.077 0.224,-2.708 0.437,-2.817 0.312,-0.161 1.083,-0.459 2.126,-0.025 z"
     id="path761" />
  <path
     style="fill:#231f20;fill-opacity:1;fill-rule:nonzero;stroke:none"
     d="m 113.431,68.4429 c 0.651,0.26 0.86,2.568 0.568,2.692 -0.286,0.136 -0.276,-0.6346 -0.604,-0.5053 -0.333,0.136 -0.266,0.6253 -0.494,0.652 -0.251,0.0253 -0.24,-0.5787 -0.527,-0.4893 -0.125,0.036 -0.344,0.588 -0.536,0.552 -0.161,-0.0374 -0.355,-0.5214 -0.485,-0.552 -0.208,-0.0574 -0.276,0.5573 -0.447,0.5253 -0.464,-0.0733 0.187,-2.708 0.4,-2.8227 0.313,-0.1666 1.079,-0.4693 2.125,-0.052"
     id="path762" />
  <path
     style="fill:none;stroke:#231f20;stroke-width:0.565977;stroke-linecap:round;stroke-linejoin:round;stroke-miterlimit:4;stroke-dasharray:none;stroke-opacity:1"
     d="m 113.431,68.4429 c 0.651,0.26 0.86,2.568 0.568,2.692 -0.286,0.136 -0.276,-0.6346 -0.604,-0.5053 -0.333,0.136 -0.266,0.6253 -0.494,0.652 -0.251,0.0253 -0.24,-0.5787 -0.527,-0.4893 -0.125,0.036 -0.344,0.588 -0.536,0.552 -0.161,-0.0374 -0.355,-0.5214 -0.485,-0.552 -0.208,-0.0574 -0.276,0.5573 -0.447,0.5253 -0.464,-0.0733 0.187,-2.708 0.4,-2.8227 0.313,-0.1666 1.079,-0.4693 2.125,-0.052 z"
     id="path763" />
</svg>
