<?xml version="1.0" encoding="UTF-8" standalone="no"?>
<!-- Created with Inkscape (http://www.inkscape.org/) -->

<svg
   version="1.1"
   id="svg1"
   width="120.83533"
   height="87.842903"
   viewBox="0 0 120.83533 87.842903"
   sodipodi:docname="cell.svg"
   xmlns:inkscape="http://www.inkscape.org/namespaces/inkscape"
   xmlns:sodipodi="http://sodipodi.sourceforge.net/DTD/sodipodi-0.dtd"
   xmlns="http://www.w3.org/2000/svg"
   xmlns:svg="http://www.w3.org/2000/svg">
  <sodipodi:namedview
     id="namedview1"
     pagecolor="#ffffff"
     bordercolor="#000000"
     borderopacity="0.25"
     inkscape:showpageshadow="2"
     inkscape:pageopacity="0.0"
     inkscape:pagecheckerboard="0"
     inkscape:deskcolor="#d1d1d1">
    <inkscape:page
       x="0"
       y="0"
       inkscape:label="1"
       id="page1"
       width="120.83533"
       height="87.842903"
       margin="0"
       bleed="0" />
  </sodipodi:namedview>
  <defs
     id="defs1" />
  <path
     style="fill:#231f20;fill-opacity:1;fill-rule:nonzero;stroke:none"
     d="m 115.3614,9.952928 c 1.068,0.828 0.776,1.781 -0.088,2.338 -0.262,0.172 -0.314,0.583 -0.579,0.73 -0.62,0.333 -2.271,-0.23 -2.151,-1.724 0.011,-0.11 -0.172,-0.907 -0.218,-1.527 -0.084,-1.208 0.338,-3.672 2.546,-5.213 1.052,-0.729 1.287,0.027 0.954,0.448 -1.063,1.344 -0.891,1.672 -1.042,2.125 -0.516,1.536 0.578,2.823 0.578,2.823"
     id="path261" />
  <path
     style="fill:none;stroke:#231f20;stroke-width:0.332927;stroke-linecap:butt;stroke-linejoin:miter;stroke-miterlimit:4;stroke-dasharray:none;stroke-opacity:1"
     d="m 115.3614,9.952928 c 1.068,0.828 0.776,1.781 -0.088,2.338 -0.262,0.172 -0.314,0.583 -0.579,0.73 -0.62,0.333 -2.271,-0.23 -2.151,-1.724 0.011,-0.11 -0.172,-0.907 -0.218,-1.527 -0.084,-1.208 0.338,-3.672 2.546,-5.213 1.052,-0.729 1.287,0.027 0.954,0.448 -1.063,1.344 -0.891,1.672 -1.042,2.125 -0.516,1.536 0.578,2.823 0.578,2.823 z"
     id="path262" />
  <path
     style="fill:#231f20;fill-opacity:1;fill-rule:nonzero;stroke:none"
     d="m 113.5744,28.624928 c 2.245,0.306 2.724,0.068 2.923,-0.87 0.129,-0.625 0.462,-1.162 0.562,-1.537 0.323,-1.26 0.348,-3.505 -1.234,-9.891 -0.36,-1.453 -0.85,-3.489 -0.984,-4.333 -0.215,-1.344 -2.292,-0.088 -2.22,0.443 0.25,1.693 0.286,2.885 0.292,3.505 0.005,0.428 0.114,1.183 -0.083,2.833 -0.303,2.511 -0.855,3.975 -0.86,6.09 -0.005,0.978 -0.625,1.718 -0.14,2.681 0.489,0.969 1.744,1.079 1.744,1.079"
     id="path263" />
  <path
     style="fill:none;stroke:#231f20;stroke-width:0.565977;stroke-linecap:butt;stroke-linejoin:miter;stroke-miterlimit:4;stroke-dasharray:none;stroke-opacity:1"
     d="m 113.5744,28.624928 c 2.245,0.306 2.724,0.068 2.923,-0.87 0.129,-0.625 0.462,-1.162 0.562,-1.537 0.323,-1.26 0.348,-3.505 -1.234,-9.891 -0.36,-1.453 -0.85,-3.489 -0.984,-4.333 -0.215,-1.344 -2.292,-0.088 -2.22,0.443 0.25,1.693 0.286,2.885 0.292,3.505 0.005,0.428 0.114,1.183 -0.083,2.833 -0.303,2.511 -0.855,3.975 -0.86,6.09 -0.005,0.978 -0.625,1.718 -0.14,2.681 0.489,0.969 1.744,1.079 1.744,1.079 z"
     id="path264" />
  <path
     style="fill:#ca0369;fill-opacity:1;fill-rule:nonzero;stroke:none"
     d="m 116.5024,54.446928 c -0.052,-3.13 0.281,-3.806 0.629,-4.661 2.194,-5.349 -0.478,-6.323 -3.306,-5.755 -3.323,0.662 -4.527,0.828 -3.834,7.088 0.192,1.74 0.063,8.511 0.063,8.511 -0.376,2.416 0.552,4.973 1.771,5.776 1.281,0.839 0.833,0.416 2.166,0.979 1.266,0.537 3.432,0.245 4.104,-0.792 0.646,-1 -0.104,-2.49 -0.89,-4.78 -0.62,-1.808 -0.703,-6.366 -0.703,-6.366"
     id="path265" />
  <path
     style="fill:none;stroke:#231f20;stroke-width:0.565977;stroke-linecap:butt;stroke-linejoin:miter;stroke-miterlimit:4;stroke-dasharray:none;stroke-opacity:1"
     d="m 116.5024,54.446928 c -0.052,-3.13 0.281,-3.806 0.629,-4.661 2.194,-5.349 -0.478,-6.323 -3.306,-5.755 -3.323,0.662 -4.527,0.828 -3.834,7.088 0.192,1.74 0.063,8.511 0.063,8.511 -0.376,2.416 0.552,4.973 1.771,5.776 1.281,0.839 0.833,0.416 2.166,0.979 1.266,0.537 3.432,0.245 4.104,-0.792 0.646,-1 -0.104,-2.49 -0.89,-4.78 -0.62,-1.808 -0.703,-6.366 -0.703,-6.366 z"
     id="path266" />
  <path
     style="fill:#ffffff;fill-opacity:1;fill-rule:nonzero;stroke:none"
     d="m 111.7934,71.093928 c -0.036,0.239 -1.176,0.369 -1.156,0.895 0.021,0.521 0.786,0.693 1.704,2.464 l 0.009,0.016 c 0.62,1.317 1.693,2.197 2.948,2.254 2.073,0.094 3.86,-2.114 3.985,-4.937 0.124,-2.823 -1.453,-5.188 -3.526,-5.281 -1.984,-0.088 -3.708,1.937 -3.964,4.589"
     id="path267" />
  <path
     style="fill:none;stroke:#231f20;stroke-width:0.565977;stroke-linecap:butt;stroke-linejoin:miter;stroke-miterlimit:4;stroke-dasharray:none;stroke-opacity:1"
     d="m 111.7934,71.093928 c -0.036,0.239 -1.176,0.369 -1.156,0.895 0.021,0.521 0.786,0.693 1.704,2.464 l 0.009,0.016 c 0.62,1.317 1.693,2.197 2.948,2.254 2.073,0.094 3.86,-2.114 3.985,-4.937 0.124,-2.823 -1.453,-5.188 -3.526,-5.281 -1.984,-0.088 -3.708,1.937 -3.964,4.589 z"
     id="path268" />
  <path
     style="fill:#231f20;fill-opacity:1;fill-rule:nonzero;stroke:none"
     d="m 114.4704,26.316928 c -3.911,-0.895 -2.937,3.073 -3.047,3.537 -1.14,4.88 -1.098,5.255 -1.697,9.031 -0.876,5.464 -0.641,9.333 2.391,10.765 2.052,0.975 3.656,0.652 4.618,-0.249 1.068,-0.995 2.131,-3.99 0.35,-6.26 l -0.192,-1.704 c 0.02,-1.162 0.02,-1.739 0.077,-2.312 0.095,-1 0.131,-2.074 0.213,-4.027 0.142,-3.468 -0.853,-7.181 -0.853,-7.181 0.02,-1.246 -1.86,-1.6 -1.86,-1.6"
     id="path269" />
  <path
     style="fill:none;stroke:#231f20;stroke-width:0.565977;stroke-linecap:butt;stroke-linejoin:miter;stroke-miterlimit:4;stroke-dasharray:none;stroke-opacity:1"
     d="m 114.4704,26.316928 c -3.911,-0.895 -2.937,3.073 -3.047,3.537 -1.14,4.88 -1.098,5.255 -1.697,9.031 -0.876,5.464 -0.641,9.333 2.391,10.765 2.052,0.975 3.656,0.652 4.618,-0.249 1.068,-0.995 2.131,-3.99 0.35,-6.26 l -0.192,-1.704 c 0.02,-1.162 0.02,-1.739 0.077,-2.312 0.095,-1 0.131,-2.074 0.213,-4.027 0.142,-3.468 -0.853,-7.181 -0.853,-7.181 0.02,-1.246 -1.86,-1.6 -1.86,-1.6 z"
     id="path270" />
  <path
     style="fill:#ca0369;fill-opacity:1;fill-rule:nonzero;stroke:none"
     d="m 117.0854,43.140928 -7.75,-1.027 c -0.048,0.656 -0.052,1.265 -0.042,1.849 -0.02,0.078 -0.047,0.151 -0.078,0.219 -0.349,0.724 -0.084,1.292 0.396,2.213 0.391,1.506 1.172,2.626 2.506,3.255 2.052,0.98 3.656,0.652 4.618,-0.249 1.068,-0.995 2.131,-3.99 0.35,-6.26"
     id="path271" />
  <path
     style="fill:none;stroke:#231f20;stroke-width:0.565977;stroke-linecap:butt;stroke-linejoin:miter;stroke-miterlimit:4;stroke-dasharray:none;stroke-opacity:1"
     d="m 117.0854,43.140928 -7.75,-1.027 c -0.048,0.656 -0.052,1.265 -0.042,1.849 -0.02,0.078 -0.047,0.151 -0.078,0.219 -0.349,0.724 -0.084,1.292 0.396,2.213 0.391,1.506 1.172,2.626 2.506,3.255 2.052,0.98 3.656,0.652 4.618,-0.249 1.068,-0.995 2.131,-3.99 0.35,-6.26 z"
     id="path272" />
  <path
     style="fill:#231f20;fill-opacity:1;fill-rule:nonzero;stroke:none"
     d="m 114.0594,84.676928 c -0.376,-0.527 -0.188,-2.459 -0.657,-4 -0.323,-1.036 0.016,-3.76 -0.38,-4.771 -0.359,-0.927 -0.437,-1.385 0.552,-1.98 0.579,-0.353 1.937,-0.651 2.224,-0.228 0.657,0.989 0.828,1.921 0.808,2.995 -0.032,1.213 -0.401,4.505 -0.527,5.103 -0.317,1.49 0.011,2.151 -0.03,2.553 -0.084,0.754 -0.396,0.91 -0.902,0.964 -0.948,0.093 -1.088,-0.636 -1.088,-0.636"
     id="path273" />
  <path
     style="fill:none;stroke:#231f20;stroke-width:0.565977;stroke-linecap:butt;stroke-linejoin:miter;stroke-miterlimit:4;stroke-dasharray:none;stroke-opacity:1"
     d="m 114.0594,84.676928 c -0.376,-0.527 -0.188,-2.459 -0.657,-4 -0.323,-1.036 0.016,-3.76 -0.38,-4.771 -0.359,-0.927 -0.437,-1.385 0.552,-1.98 0.579,-0.353 1.937,-0.651 2.224,-0.228 0.657,0.989 0.828,1.921 0.808,2.995 -0.032,1.213 -0.401,4.505 -0.527,5.103 -0.317,1.49 0.011,2.151 -0.03,2.553 -0.084,0.754 -0.396,0.91 -0.902,0.964 -0.948,0.093 -1.088,-0.636 -1.088,-0.636 z"
     id="path274" />
  <path
     style="fill:#231f20;fill-opacity:1;fill-rule:nonzero;stroke:none"
     d="m 113.6374,75.629928 c -1.292,-0.084 -0.796,-2.057 -0.744,-2.599 0.052,-0.537 0.025,-2.094 -0.152,-3.308 -0.176,-1.213 0.12,-2.797 -0.214,-5.098 -0.177,-1.208 0.423,-2.5 2.188,-2.678 1.744,-0.177 2.506,0.735 2.495,2.23 -0.011,1.5 -0.651,2.901 -0.765,4.412 -0.115,1.509 -0.09,3.052 -0.016,4.26 0.088,1.385 -0.38,2.098 -0.808,2.312 -1.067,0.537 -1.984,0.469 -1.984,0.469"
     id="path275" />
  <path
     style="fill:none;stroke:#231f20;stroke-width:0.565977;stroke-linecap:butt;stroke-linejoin:miter;stroke-miterlimit:4;stroke-dasharray:none;stroke-opacity:1"
     d="m 113.6374,75.629928 c -1.292,-0.084 -0.796,-2.057 -0.744,-2.599 0.052,-0.537 0.025,-2.094 -0.152,-3.308 -0.176,-1.213 0.12,-2.797 -0.214,-5.098 -0.177,-1.208 0.423,-2.5 2.188,-2.678 1.744,-0.177 2.506,0.735 2.495,2.23 -0.011,1.5 -0.651,2.901 -0.765,4.412 -0.115,1.509 -0.09,3.052 -0.016,4.26 0.088,1.385 -0.38,2.098 -0.808,2.312 -1.067,0.537 -1.984,0.469 -1.984,0.469 z"
     id="path276" />
  <path
     style="fill:#ffffff;fill-opacity:1;fill-rule:nonzero;stroke:#231f20;stroke-width:0.665856;stroke-linecap:butt;stroke-linejoin:miter;stroke-miterlimit:4;stroke-dasharray:none;stroke-opacity:1"
     d="m 113.8254,76.088928 h 1.333 v -75.636 h -1.333 z"
     id="path277" />
  <path
     style="fill:#ffffff;fill-opacity:1;fill-rule:nonzero;stroke:none"
     d="m 110.6314,81.019928 c 0,-2.354 1.918,-4.265 4.271,-4.265 2.355,0 4.272,1.911 4.272,4.265 0,2.359 -1.917,4.271 -4.272,4.271 -2.353,0 -4.271,-1.912 -4.271,-4.271 m -1.328,0 c 0,3.094 2.511,5.605 5.599,5.605 3.089,0 5.6,-2.511 5.6,-5.605 0,-3.083 -2.511,-5.598 -5.6,-5.598 -3.088,0 -5.599,2.515 -5.599,5.598"
     id="path278" />
  <path
     style="fill:none;stroke:#231f20;stroke-width:0.665856;stroke-linecap:butt;stroke-linejoin:miter;stroke-miterlimit:4;stroke-dasharray:none;stroke-opacity:1"
     d="m 110.6314,81.019928 c 0,-2.354 1.918,-4.265 4.271,-4.265 2.355,0 4.272,1.911 4.272,4.265 0,2.359 -1.917,4.271 -4.272,4.271 -2.353,0 -4.271,-1.912 -4.271,-4.271 z m -1.328,0 c 0,3.094 2.511,5.605 5.599,5.605 3.089,0 5.6,-2.511 5.6,-5.605 0,-3.083 -2.511,-5.598 -5.6,-5.598 -3.088,0 -5.599,2.515 -5.599,5.598 z"
     id="path279" />
  <path
     style="fill:#231f20;fill-opacity:1;fill-rule:nonzero;stroke:none"
     d="m 115.9454,84.676928 c 0.645,0.265 0.828,2.578 0.536,2.702 -0.287,0.126 -0.271,-0.64 -0.604,-0.514 -0.328,0.129 -0.266,0.624 -0.495,0.645 -0.251,0.027 -0.235,-0.584 -0.521,-0.495 -0.126,0.036 -0.354,0.583 -0.542,0.542 -0.166,-0.031 -0.349,-0.52 -0.484,-0.558 -0.204,-0.057 -0.276,0.552 -0.453,0.527 -0.459,-0.084 0.224,-2.713 0.437,-2.823 0.312,-0.162 1.083,-0.459 2.126,-0.026"
     id="path280" />
  <path
     style="fill:none;stroke:#231f20;stroke-width:0.565977;stroke-linecap:round;stroke-linejoin:round;stroke-miterlimit:4;stroke-dasharray:none;stroke-opacity:1"
     d="m 115.9454,84.676928 c 0.645,0.265 0.828,2.578 0.536,2.702 -0.287,0.126 -0.271,-0.64 -0.604,-0.514 -0.328,0.129 -0.266,0.624 -0.495,0.645 -0.251,0.027 -0.235,-0.584 -0.521,-0.495 -0.126,0.036 -0.354,0.583 -0.542,0.542 -0.166,-0.031 -0.349,-0.52 -0.484,-0.558 -0.204,-0.057 -0.276,0.552 -0.453,0.527 -0.459,-0.084 0.224,-2.713 0.437,-2.823 0.312,-0.162 1.083,-0.459 2.126,-0.026 z"
     id="path281" />
  <path
     style="fill:#231f20;fill-opacity:1;fill-rule:nonzero;stroke:none"
     d="m 5.5693983,17.056928 c 1.105,-0.776 1.928,-0.219 2.209,0.776 0.083,0.302 0.463,0.469 0.52,0.765 0.136,0.688 -0.89,2.105 -2.281,1.543 -0.104,-0.038 -0.916,-0.1 -1.525,-0.24 -1.178,-0.276 -3.407,-1.407 -4.21899996,-3.975 -0.391,-1.213 0.396,-1.223 0.703,-0.776 0.96899996,1.407 1.33299996,1.344 1.71799996,1.625 1.318,0.943 2.875,0.282 2.875,0.282"
     id="path282" />
  <path
     style="fill:none;stroke:#231f20;stroke-width:0.332927;stroke-linecap:butt;stroke-linejoin:miter;stroke-miterlimit:4;stroke-dasharray:none;stroke-opacity:1"
     d="m 5.5693983,17.056928 c 1.105,-0.776 1.928,-0.219 2.209,0.776 0.083,0.302 0.463,0.469 0.52,0.765 0.136,0.688 -0.89,2.105 -2.281,1.543 -0.104,-0.038 -0.916,-0.1 -1.525,-0.24 -1.178,-0.276 -3.407,-1.407 -4.21899996,-3.975 -0.391,-1.213 0.396,-1.223 0.703,-0.776 0.96899996,1.407 1.33299996,1.344 1.71799996,1.625 1.318,0.943 2.875,0.282 2.875,0.282 z"
     id="path283" />
  <path
     style="fill:#231f20;fill-opacity:1;fill-rule:nonzero;stroke:none"
     d="m 22.872398,24.280928 c 0.958,-2.052 0.869,-2.578 0.03,-3.042 -0.557,-0.313 -0.968,-0.792 -1.296,-0.989 -1.104,-0.688 -3.24,-1.376 -9.813,-1.756 -1.495,-0.083 -3.5879997,-0.219 -4.4319997,-0.339 -1.344,-0.192 -0.76,2.167 -0.229,2.246 1.688,0.265 2.838,0.588 3.4329997,0.765 0.405,0.12 1.161,0.24 2.681,0.917 2.314,1.031 3.543,1.99 5.558,2.62 0.937,0.291 1.458,1.11 2.526,0.932 1.068,-0.188 1.542,-1.354 1.542,-1.354"
     id="path284" />
  <path
     style="fill:none;stroke:#231f20;stroke-width:0.565977;stroke-linecap:butt;stroke-linejoin:miter;stroke-miterlimit:4;stroke-dasharray:none;stroke-opacity:1"
     d="m 22.872398,24.280928 c 0.958,-2.052 0.869,-2.578 0.03,-3.042 -0.557,-0.313 -0.968,-0.792 -1.296,-0.989 -1.104,-0.688 -3.24,-1.376 -9.813,-1.756 -1.495,-0.083 -3.5879997,-0.219 -4.4319997,-0.339 -1.344,-0.192 -0.76,2.167 -0.229,2.246 1.688,0.265 2.838,0.588 3.4329997,0.765 0.405,0.12 1.161,0.24 2.681,0.917 2.314,1.031 3.543,1.99 5.558,2.62 0.937,0.291 1.458,1.11 2.526,0.932 1.068,-0.188 1.542,-1.354 1.542,-1.354 z"
     id="path285" />
  <path
     style="fill:#ca0369;fill-opacity:1;fill-rule:nonzero;stroke:none"
     d="m 48.528398,28.306928 c -3.104,-0.453 -3.719,-0.885 -4.506,-1.37 -4.932,-3.015 -6.317,-0.536 -6.218,2.349 0.13,3.385 0.098,4.604 6.396,4.917 1.75,0.083 8.417,1.291 8.417,1.291 2.323,0.756 4.995,0.251 5.979,-0.823 1.036,-1.13 0.541,-0.76 1.312,-1.989 0.729,-1.156 0.792,-3.349 -0.13,-4.172 -0.88,-0.797 -2.469,-0.297 -4.86,0.115 -1.88,0.322 -6.39,-0.318 -6.39,-0.318"
     id="path286" />
  <path
     style="fill:none;stroke:#231f20;stroke-width:0.565977;stroke-linecap:butt;stroke-linejoin:miter;stroke-miterlimit:4;stroke-dasharray:none;stroke-opacity:1"
     d="m 48.528398,28.306928 c -3.104,-0.453 -3.719,-0.885 -4.506,-1.37 -4.932,-3.015 -6.317,-0.536 -6.218,2.349 0.13,3.385 0.098,4.604 6.396,4.917 1.75,0.083 8.417,1.291 8.417,1.291 2.323,0.756 4.995,0.251 5.979,-0.823 1.036,-1.13 0.541,-0.76 1.312,-1.989 0.729,-1.156 0.792,-3.349 -0.13,-4.172 -0.88,-0.797 -2.469,-0.297 -4.86,0.115 -1.88,0.322 -6.39,-0.318 -6.39,-0.318 z"
     id="path287" />
  <path
     style="fill:#ffffff;fill-opacity:1;fill-rule:nonzero;stroke:none"
     d="m 67.350398,33.478928 c 0.246,-0.021 0.631,1.062 1.136,0.927 0.506,-0.141 0.5,-0.927 2.011,-2.224 l 0.015,-0.005 c 1.136,-0.912 1.756,-2.156 1.526,-3.386 -0.38,-2.041 -2.937,-3.281 -5.718,-2.76 -2.776,0.52 -4.719,2.594 -4.334,4.635 0.359,1.953 2.73,3.172 5.364,2.813"
     id="path288" />
  <path
     style="fill:none;stroke:#231f20;stroke-width:0.565977;stroke-linecap:butt;stroke-linejoin:miter;stroke-miterlimit:4;stroke-dasharray:none;stroke-opacity:1"
     d="m 67.350398,33.478928 c 0.246,-0.021 0.631,1.062 1.136,0.927 0.506,-0.141 0.5,-0.927 2.011,-2.224 l 0.015,-0.005 c 1.136,-0.912 1.756,-2.156 1.526,-3.386 -0.38,-2.041 -2.937,-3.281 -5.718,-2.76 -2.776,0.52 -4.719,2.594 -4.334,4.635 0.359,1.953 2.73,3.172 5.364,2.813 z"
     id="path289" />
  <path
     style="fill:#231f20;fill-opacity:1;fill-rule:nonzero;stroke:none"
     d="m 20.934398,22.744928 c -2.01,3.473 2.068,3.718 2.474,3.958 4.328,2.531 4.704,2.604 8.136,4.291 4.953,2.453 8.729,3.371 10.994,0.907 1.542,-1.678 1.698,-3.308 1.126,-4.495 -0.636,-1.312 -3.183,-3.213 -5.88,-2.183 l -1.683,-0.317 c -1.109,-0.365 -1.656,-0.536 -2.193,-0.76 -0.922,-0.385 -1.938,-0.74 -3.782,-1.396 -3.276,-1.157 -7.118,-1.313 -7.118,-1.313 -1.178,-0.386 -2.074,1.308 -2.074,1.308"
     id="path290" />
  <path
     style="fill:none;stroke:#231f20;stroke-width:0.565977;stroke-linecap:butt;stroke-linejoin:miter;stroke-miterlimit:4;stroke-dasharray:none;stroke-opacity:1"
     d="m 20.934398,22.744928 c -2.01,3.473 2.068,3.718 2.474,3.958 4.328,2.531 4.704,2.604 8.136,4.291 4.953,2.453 8.729,3.371 10.994,0.907 1.542,-1.678 1.698,-3.308 1.126,-4.495 -0.636,-1.312 -3.183,-3.213 -5.88,-2.183 l -1.683,-0.317 c -1.109,-0.365 -1.656,-0.536 -2.193,-0.76 -0.922,-0.385 -1.938,-0.74 -3.782,-1.396 -3.276,-1.157 -7.118,-1.313 -7.118,-1.313 -1.178,-0.386 -2.074,1.308 -2.074,1.308 z"
     id="path291" />
  <path
     style="fill:#ca0369;fill-opacity:1;fill-rule:nonzero;stroke:none"
     d="m 43.664398,27.405928 c -0.636,-1.312 -3.188,-3.213 -5.88,-2.183 l -3.276,7.099 c 0.618,0.24 1.197,0.423 1.765,0.584 0.063,0.047 0.125,0.088 0.177,0.135 0.588,0.552 1.208,0.469 2.224,0.286 1.558,0.068 2.859,-0.344 3.859,-1.426 1.547,-1.678 1.703,-3.308 1.131,-4.495"
     id="path292" />
  <path
     style="fill:none;stroke:#231f20;stroke-width:0.565977;stroke-linecap:butt;stroke-linejoin:miter;stroke-miterlimit:4;stroke-dasharray:none;stroke-opacity:1"
     d="m 43.664398,27.405928 c -0.636,-1.312 -3.188,-3.213 -5.88,-2.183 l -3.276,7.099 c 0.618,0.24 1.197,0.423 1.765,0.584 0.063,0.047 0.125,0.088 0.177,0.135 0.588,0.552 1.208,0.469 2.224,0.286 1.558,0.068 2.859,-0.344 3.859,-1.426 1.547,-1.678 1.703,-3.308 1.131,-4.495 z"
     id="path293" />
  <path
     style="fill:#231f20;fill-opacity:1;fill-rule:nonzero;stroke:none"
     d="m 49.538398,49.446928 c -0.136,-0.63 0.798,-2.338 0.964,-3.937 0.115,-1.079 1.49,-3.453 1.52,-4.541 0.032,-0.99 0.142,-1.443 1.282,-1.604 0.677,-0.095 2.037,0.161 2.136,0.661 0.218,1.167 0.01,2.093 -0.428,3.068 -0.5,1.109 -2.13,3.989 -2.479,4.495 -0.875,1.244 -0.833,1.978 -1.036,2.333 -0.371,0.667 -0.713,0.687 -1.199,0.536 -0.91,-0.287 -0.76,-1.011 -0.76,-1.011"
     id="path294" />
  <path
     style="fill:none;stroke:#231f20;stroke-width:0.565977;stroke-linecap:butt;stroke-linejoin:miter;stroke-miterlimit:4;stroke-dasharray:none;stroke-opacity:1"
     d="m 49.538398,49.446928 c -0.136,-0.63 0.798,-2.338 0.964,-3.937 0.115,-1.079 1.49,-3.453 1.52,-4.541 0.032,-0.99 0.142,-1.443 1.282,-1.604 0.677,-0.095 2.037,0.161 2.136,0.661 0.218,1.167 0.01,2.093 -0.428,3.068 -0.5,1.109 -2.13,3.989 -2.479,4.495 -0.875,1.244 -0.833,1.978 -1.036,2.333 -0.371,0.667 -0.713,0.687 -1.199,0.536 -0.91,-0.287 -0.76,-1.011 -0.76,-1.011 z"
     id="path295" />
  <path
     style="fill:#231f20;fill-opacity:1;fill-rule:nonzero;stroke:none"
     d="m 52.700398,40.952928 c -1.162,-0.579 0.073,-2.203 0.333,-2.678 0.255,-0.473 0.839,-1.921 1.151,-3.104 0.313,-1.182 1.204,-2.525 1.797,-4.776 0.312,-1.188 1.369,-2.136 3.068,-1.609 1.672,0.521 2.011,1.661 1.416,3.031 -0.593,1.376 -1.729,2.417 -2.427,3.761 -0.697,1.339 -1.281,2.771 -1.682,3.916 -0.463,1.303 -1.178,1.776 -1.646,1.808 -1.198,0.072 -2.01,-0.349 -2.01,-0.349"
     id="path296" />
  <path
     style="fill:none;stroke:#231f20;stroke-width:0.565977;stroke-linecap:butt;stroke-linejoin:miter;stroke-miterlimit:4;stroke-dasharray:none;stroke-opacity:1"
     d="m 52.700398,40.952928 c -1.162,-0.579 0.073,-2.203 0.333,-2.678 0.255,-0.473 0.839,-1.921 1.151,-3.104 0.313,-1.182 1.204,-2.525 1.797,-4.776 0.312,-1.188 1.369,-2.136 3.068,-1.609 1.672,0.521 2.011,1.661 1.416,3.031 -0.593,1.376 -1.729,2.417 -2.427,3.761 -0.697,1.339 -1.281,2.771 -1.682,3.916 -0.463,1.303 -1.178,1.776 -1.646,1.808 -1.198,0.072 -2.01,-0.349 -2.01,-0.349 z"
     id="path297" />
  <path
     style="fill:#ffffff;fill-opacity:1;fill-rule:nonzero;stroke:#231f20;stroke-width:0.665856;stroke-linecap:butt;stroke-linejoin:miter;stroke-miterlimit:4;stroke-dasharray:none;stroke-opacity:1"
     d="m 48.512398,41.332928 h 1.328 v -41 h -1.328 z"
     id="path298" />
  <path
     style="fill:#ffffff;fill-opacity:1;fill-rule:nonzero;stroke:none"
     d="m 45.314398,46.269928 c 0,-2.353 1.918,-4.271 4.271,-4.271 2.355,0 4.271,1.918 4.271,4.271 0,2.355 -1.916,4.267 -4.271,4.267 -2.353,0 -4.271,-1.912 -4.271,-4.267 m -1.328,0 c 0,3.084 2.511,5.6 5.599,5.6 3.089,0 5.604,-2.516 5.604,-5.6 0,-3.093 -2.515,-5.604 -5.604,-5.604 -3.088,0 -5.599,2.511 -5.599,5.604"
     id="path299" />
  <path
     style="fill:none;stroke:#231f20;stroke-width:0.665856;stroke-linecap:butt;stroke-linejoin:miter;stroke-miterlimit:4;stroke-dasharray:none;stroke-opacity:1"
     d="m 45.314398,46.269928 c 0,-2.353 1.918,-4.271 4.271,-4.271 2.355,0 4.271,1.918 4.271,4.271 0,2.355 -1.916,4.267 -4.271,4.267 -2.353,0 -4.271,-1.912 -4.271,-4.267 z m -1.328,0 c 0,3.084 2.511,5.6 5.599,5.6 3.089,0 5.604,-2.516 5.604,-5.6 0,-3.093 -2.515,-5.604 -5.604,-5.604 -3.088,0 -5.599,2.511 -5.599,5.604 z"
     id="path300" />
  <path
     style="fill:#231f20;fill-opacity:1;fill-rule:nonzero;stroke:none"
     d="m 51.398398,49.702928 c 0.63,0.307 0.687,2.619 0.386,2.728 -0.298,0.115 -0.235,-0.656 -0.574,-0.541 -0.338,0.104 -0.302,0.604 -0.532,0.615 -0.254,0.005 -0.197,-0.594 -0.494,-0.526 -0.124,0.026 -0.386,0.567 -0.567,0.515 -0.167,-0.047 -0.324,-0.547 -0.453,-0.588 -0.199,-0.068 -0.303,0.541 -0.48,0.495 -0.458,-0.099 0.37,-2.688 0.589,-2.787 0.323,-0.145 1.109,-0.396 2.125,0.089"
     id="path301" />
  <path
     style="fill:none;stroke:#231f20;stroke-width:0.565977;stroke-linecap:round;stroke-linejoin:round;stroke-miterlimit:4;stroke-dasharray:none;stroke-opacity:1"
     d="m 51.398398,49.702928 c 0.63,0.307 0.687,2.619 0.386,2.728 -0.298,0.115 -0.235,-0.656 -0.574,-0.541 -0.338,0.104 -0.302,0.604 -0.532,0.615 -0.254,0.005 -0.197,-0.594 -0.494,-0.526 -0.124,0.026 -0.386,0.567 -0.567,0.515 -0.167,-0.047 -0.324,-0.547 -0.453,-0.588 -0.199,-0.068 -0.303,0.541 -0.48,0.495 -0.458,-0.099 0.37,-2.688 0.589,-2.787 0.323,-0.145 1.109,-0.396 2.125,0.089 z"
     id="path302" />
</svg>
