<?xml version="1.0" encoding="UTF-8" standalone="no"?>
<!-- Created with Inkscape (http://www.inkscape.org/) -->

<svg
   version="1.1"
   id="svg1"
   width="339.33862"
   height="169.56506"
   viewBox="0 0 339.33861 169.56506"
   sodipodi:docname="cell.svg"
   xmlns:inkscape="http://www.inkscape.org/namespaces/inkscape"
   xmlns:sodipodi="http://sodipodi.sourceforge.net/DTD/sodipodi-0.dtd"
   xmlns="http://www.w3.org/2000/svg"
   xmlns:svg="http://www.w3.org/2000/svg">
  <sodipodi:namedview
     id="namedview1"
     pagecolor="#ffffff"
     bordercolor="#000000"
     borderopacity="0.25"
     inkscape:showpageshadow="2"
     inkscape:pageopacity="0.0"
     inkscape:pagecheckerboard="0"
     inkscape:deskcolor="#d1d1d1">
    <inkscape:page
       x="0"
       y="0"
       inkscape:label="1"
       id="page1"
       width="339.33862"
       height="169.56506"
       margin="0"
       bleed="0" />
  </sodipodi:namedview>
  <defs
     id="defs1" />
  <path
     style="fill:#ffffff;fill-opacity:1;fill-rule:nonzero;stroke:none"
     d="M 0,18.874 H 18.875 V 0 H 0 Z"
     id="path211" />
  <path
     style="fill:#ffffff;fill-opacity:1;fill-rule:nonzero;stroke:#231f20;stroke-width:0.665856;stroke-linecap:butt;stroke-linejoin:miter;stroke-miterlimit:4;stroke-dasharray:none;stroke-opacity:1"
     d="m 29.7613,47.526 h 1.3334 V 15.855 h -1.3334 z"
     id="path213" />
  <path
     style="fill:#ffffff;fill-opacity:1;fill-rule:nonzero;stroke:none"
     d="m 26.1562,52.464 c 0,-2.355 1.9171,-4.271 4.2718,-4.271 2.3531,0 4.2651,1.916 4.2651,4.271 0,2.353 -1.912,4.265 -4.2651,4.265 -2.3547,0 -4.2718,-1.912 -4.2718,-4.265 m -1.3282,0 c 0,3.088 2.5109,5.598 5.6,5.598 3.088,0 5.5984,-2.51 5.5984,-5.598 0,-3.09 -2.5104,-5.599 -5.5984,-5.599 -3.0891,0 -5.6,2.509 -5.6,5.599"
     id="path214" />
  <path
     style="fill:none;stroke:#231f20;stroke-width:0.665856;stroke-linecap:butt;stroke-linejoin:miter;stroke-miterlimit:4;stroke-dasharray:none;stroke-opacity:1"
     d="m 26.1562,52.464 c 0,-2.355 1.9171,-4.271 4.2718,-4.271 2.3531,0 4.2651,1.916 4.2651,4.271 0,2.353 -1.912,4.265 -4.2651,4.265 -2.3547,0 -4.2718,-1.912 -4.2718,-4.265 z m -1.3282,0 c 0,3.088 2.5109,5.598 5.6,5.598 3.088,0 5.5984,-2.51 5.5984,-5.598 0,-3.09 -2.5104,-5.599 -5.5984,-5.599 -3.0891,0 -5.6,2.509 -5.6,5.599 z"
     id="path215" />
  <path
     style="fill:#ffffff;fill-opacity:1;fill-rule:nonzero;stroke:#231f20;stroke-width:0.665856;stroke-linecap:butt;stroke-linejoin:miter;stroke-miterlimit:4;stroke-dasharray:none;stroke-opacity:1"
     d="m 187.8328,15.584 -5.38,31.213 1.317,0.229 5.371,-31.214 z"
     id="path216" />
  <path
     style="fill:#ffffff;fill-opacity:1;fill-rule:nonzero;stroke:none"
     d="m 178.0678,51.052 c 0.401,-2.323 2.609,-3.88 4.932,-3.484 2.322,0.401 3.885,2.614 3.485,4.932 -0.396,2.317 -2.609,3.885 -4.933,3.484 -2.317,-0.4 -3.88,-2.615 -3.484,-4.932 m -1.312,-0.23 c -0.521,3.047 1.525,5.948 4.572,6.475 3.042,0.52 5.948,-1.527 6.469,-4.568 0.525,-3.047 -1.527,-5.948 -4.568,-6.475 -3.046,-0.52 -5.948,1.527 -6.473,4.568"
     id="path217" />
  <path
     style="fill:none;stroke:#231f20;stroke-width:0.665856;stroke-linecap:butt;stroke-linejoin:miter;stroke-miterlimit:4;stroke-dasharray:none;stroke-opacity:1"
     d="m 178.0678,51.052 c 0.401,-2.323 2.609,-3.88 4.932,-3.484 2.322,0.401 3.885,2.614 3.485,4.932 -0.396,2.317 -2.609,3.885 -4.933,3.484 -2.317,-0.4 -3.88,-2.615 -3.484,-4.932 z m -1.312,-0.23 c -0.521,3.047 1.525,5.948 4.572,6.475 3.042,0.52 5.948,-1.527 6.469,-4.568 0.525,-3.047 -1.527,-5.948 -4.568,-6.475 -3.046,-0.52 -5.948,1.527 -6.473,4.568 z"
     id="path218" />
  <path
     style="fill:#ffffff;fill-opacity:1;fill-rule:nonzero;stroke:#231f20;stroke-width:0.665856;stroke-linecap:butt;stroke-linejoin:miter;stroke-miterlimit:4;stroke-dasharray:none;stroke-opacity:1"
     d="m 286.7968,17.208 -5.375,31.214 1.312,0.223 5.37,-31.213 z"
     id="path219" />
  <path
     style="fill:#ffffff;fill-opacity:1;fill-rule:nonzero;stroke:none"
     d="m 277.0368,52.672 c 0.396,-2.318 2.609,-3.88 4.927,-3.479 2.322,0.4 3.885,2.609 3.484,4.932 -0.396,2.317 -2.61,3.88 -4.932,3.479 -2.318,-0.396 -3.88,-2.61 -3.479,-4.932 m -1.313,-0.224 c -0.526,3.041 1.526,5.948 4.568,6.469 3.041,0.525 5.942,-1.527 6.469,-4.568 0.525,-3.041 -1.527,-5.948 -4.568,-6.469 -3.041,-0.526 -5.948,1.526 -6.469,4.568"
     id="path220" />
  <path
     style="fill:none;stroke:#231f20;stroke-width:0.665856;stroke-linecap:butt;stroke-linejoin:miter;stroke-miterlimit:4;stroke-dasharray:none;stroke-opacity:1"
     d="m 277.0368,52.672 c 0.396,-2.318 2.609,-3.88 4.927,-3.479 2.322,0.4 3.885,2.609 3.484,4.932 -0.396,2.317 -2.61,3.88 -4.932,3.479 -2.318,-0.396 -3.88,-2.61 -3.479,-4.932 z m -1.313,-0.224 c -0.526,3.041 1.526,5.948 4.568,6.469 3.041,0.525 5.942,-1.527 6.469,-4.568 0.525,-3.041 -1.527,-5.948 -4.568,-6.469 -3.041,-0.526 -5.948,1.526 -6.469,4.568 z"
     id="path221" />
  <path
     style="fill:#ffffff;fill-opacity:1;fill-rule:nonzero;stroke:#231f20;stroke-width:0.665856;stroke-linecap:butt;stroke-linejoin:miter;stroke-miterlimit:4;stroke-dasharray:none;stroke-opacity:1"
     d="m 107.9228,17.208 -5.376,31.214 1.318,0.223 5.37,-31.213 z"
     id="path222" />
  <path
     style="fill:#ffffff;fill-opacity:1;fill-rule:nonzero;stroke:none"
     d="m 98.1608,52.672 c 0.402,-2.318 2.61,-3.88 4.934,-3.479 2.317,0.4 3.88,2.609 3.484,4.932 -0.402,2.317 -2.615,3.88 -4.932,3.479 -2.324,-0.396 -3.886,-2.61 -3.486,-4.932 m -1.312,-0.224 c -0.521,3.041 1.527,5.948 4.569,6.469 3.046,0.525 5.947,-1.527 6.473,-4.568 0.521,-3.041 -1.531,-5.948 -4.572,-6.469 -3.043,-0.526 -5.943,1.526 -6.47,4.568"
     id="path223" />
  <path
     style="fill:none;stroke:#231f20;stroke-width:0.665856;stroke-linecap:butt;stroke-linejoin:miter;stroke-miterlimit:4;stroke-dasharray:none;stroke-opacity:1"
     d="m 98.1608,52.672 c 0.402,-2.318 2.61,-3.88 4.934,-3.479 2.317,0.4 3.88,2.609 3.484,4.932 -0.402,2.317 -2.615,3.88 -4.932,3.479 -2.324,-0.396 -3.886,-2.61 -3.486,-4.932 z m -1.312,-0.224 c -0.521,3.041 1.527,5.948 4.569,6.469 3.046,0.525 5.947,-1.527 6.473,-4.568 0.521,-3.041 -1.531,-5.948 -4.572,-6.469 -3.043,-0.526 -5.943,1.526 -6.47,4.568 z"
     id="path224" />
  <path
     style="fill:#231f20;fill-opacity:1;fill-rule:nonzero;stroke:none"
     d="m 28.7133,132.573 c -1.041,-0.871 -0.7134,-1.808 0.1772,-2.339 0.2615,-0.156 0.3282,-0.568 0.599,-0.699 0.6306,-0.312 2.2614,0.314 2.0838,1.803 -0.0104,0.109 0.14,0.912 0.1615,1.531 0.0411,1.214 -0.4693,3.657 -2.7401,5.114 -1.0719,0.688 -1.2814,-0.072 -0.9318,-0.484 1.1094,-1.301 0.9531,-1.634 1.1198,-2.082 0.5734,-1.516 -0.4694,-2.844 -0.4694,-2.844"
     id="path225" />
  <path
     style="fill:none;stroke:#231f20;stroke-width:0.332927;stroke-linecap:butt;stroke-linejoin:miter;stroke-miterlimit:4;stroke-dasharray:none;stroke-opacity:1"
     d="m 28.7133,132.573 c -1.041,-0.871 -0.7134,-1.808 0.1772,-2.339 0.2615,-0.156 0.3282,-0.568 0.599,-0.699 0.6306,-0.312 2.2614,0.314 2.0838,1.803 -0.0104,0.109 0.14,0.912 0.1615,1.531 0.0411,1.214 -0.4693,3.657 -2.7401,5.114 -1.0719,0.688 -1.2814,-0.072 -0.9318,-0.484 1.1094,-1.301 0.9531,-1.634 1.1198,-2.082 0.5734,-1.516 -0.4694,-2.844 -0.4694,-2.844 z"
     id="path226" />
  <path
     style="fill:#231f20;fill-opacity:1;fill-rule:nonzero;stroke:none"
     d="m 31.1931,113.983 c -2.2292,-0.396 -2.7183,-0.172 -2.9479,0.762 -0.1557,0.614 -0.5104,1.14 -0.6199,1.509 -0.3692,1.245 -0.4838,3.485 0.86,9.933 0.3067,1.463 0.7187,3.52 0.8228,4.37 0.161,1.344 2.2866,0.166 2.2292,-0.364 -0.1828,-1.704 -0.1718,-2.891 -0.1573,-3.511 0.0105,-0.432 -0.0667,-1.188 0.1933,-2.833 0.3906,-2.495 1,-3.932 1.0828,-6.047 0.037,-0.98 0.6932,-1.693 0.2402,-2.677 -0.4486,-0.984 -1.7032,-1.142 -1.7032,-1.142"
     id="path227" />
  <path
     style="fill:none;stroke:#231f20;stroke-width:0.565977;stroke-linecap:butt;stroke-linejoin:miter;stroke-miterlimit:4;stroke-dasharray:none;stroke-opacity:1"
     d="m 31.1931,113.983 c -2.2292,-0.396 -2.7183,-0.172 -2.9479,0.762 -0.1557,0.614 -0.5104,1.14 -0.6199,1.509 -0.3692,1.245 -0.4838,3.485 0.86,9.933 0.3067,1.463 0.7187,3.52 0.8228,4.37 0.161,1.344 2.2866,0.166 2.2292,-0.364 -0.1828,-1.704 -0.1718,-2.891 -0.1573,-3.511 0.0105,-0.432 -0.0667,-1.188 0.1933,-2.833 0.3906,-2.495 1,-3.932 1.0828,-6.047 0.037,-0.98 0.6932,-1.693 0.2402,-2.677 -0.4486,-0.984 -1.7032,-1.142 -1.7032,-1.142 z"
     id="path228" />
  <path
     style="fill:#ca0369;fill-opacity:1;fill-rule:nonzero;stroke:none"
     d="m 29.24,88.068 c -0.0677,3.134 -0.4319,3.797 -0.812,4.634 -2.3854,5.267 0.2443,6.334 3.0932,5.882 3.3443,-0.543 4.5573,-0.667 4.0989,-6.943 -0.1306,-1.745 0.2558,-8.511 0.2558,-8.511 0.463,-2.401 -0.3703,-4.994 -1.5531,-5.838 -1.2495,-0.886 -0.8229,-0.443 -2.1297,-1.058 -1.2454,-0.584 -3.4224,-0.374 -4.1302,0.635 -0.6829,0.975 0.0052,2.496 0.7078,4.813 0.5521,1.834 0.4693,6.386 0.4693,6.386"
     id="path229" />
  <path
     style="fill:none;stroke:#231f20;stroke-width:0.565977;stroke-linecap:butt;stroke-linejoin:miter;stroke-miterlimit:4;stroke-dasharray:none;stroke-opacity:1"
     d="m 29.24,88.068 c -0.0677,3.134 -0.4319,3.797 -0.812,4.634 -2.3854,5.267 0.2443,6.334 3.0932,5.882 3.3443,-0.543 4.5573,-0.667 4.0989,-6.943 -0.1306,-1.745 0.2558,-8.511 0.2558,-8.511 0.463,-2.401 -0.3703,-4.994 -1.5531,-5.838 -1.2495,-0.886 -0.8229,-0.443 -2.1297,-1.058 -1.2454,-0.584 -3.4224,-0.374 -4.1302,0.635 -0.6829,0.975 0.0052,2.496 0.7078,4.813 0.5521,1.834 0.4693,6.386 0.4693,6.386 z"
     id="path230" />
  <path
     style="fill:#ffffff;fill-opacity:1;fill-rule:nonzero;stroke:none"
     d="m 34.6092,70.276 c 0.0469,-0.24 1.1989,-0.323 1.1989,-0.85 0,-0.52 -0.7656,-0.724 -1.615,-2.52 l -0.0052,-0.021 c -0.5735,-1.339 -1.6146,-2.26 -2.8651,-2.364 -2.0667,-0.172 -3.9375,1.973 -4.1667,4.787 -0.2333,2.812 1.2558,5.233 3.3239,5.405 1.9839,0.161 3.7761,-1.796 4.1292,-4.437"
     id="path231" />
  <path
     style="fill:none;stroke:#231f20;stroke-width:0.565977;stroke-linecap:butt;stroke-linejoin:miter;stroke-miterlimit:4;stroke-dasharray:none;stroke-opacity:1"
     d="m 34.6092,70.276 c 0.0469,-0.24 1.1989,-0.323 1.1989,-0.85 0,-0.52 -0.7656,-0.724 -1.615,-2.52 l -0.0052,-0.021 c -0.5735,-1.339 -1.6146,-2.26 -2.8651,-2.364 -2.0667,-0.172 -3.9375,1.973 -4.1667,4.787 -0.2333,2.812 1.2558,5.233 3.3239,5.405 1.9839,0.161 3.7761,-1.796 4.1292,-4.437 z"
     id="path232" />
  <path
     style="fill:#231f20;fill-opacity:1;fill-rule:nonzero;stroke:none"
     d="m 30.2133,116.254 c 3.8762,1.037 3.0522,-2.957 3.1772,-3.416 1.3187,-4.839 1.2922,-5.219 2.0375,-8.969 1.0776,-5.421 0.9896,-9.296 -1.9855,-10.848 -2.0145,-1.047 -3.6292,-0.781 -4.6292,0.083 -1.1041,0.953 -2.2759,3.906 -0.5785,6.24 l 0.1249,1.707 c -0.0625,1.162 -0.089,1.74 -0.1609,2.314 -0.1359,0.989 -0.2135,2.061 -0.3708,4.014 -0.2651,3.459 0.5839,7.208 0.5839,7.208 -0.0678,1.24 1.8014,1.667 1.8014,1.667"
     id="path233" />
  <path
     style="fill:none;stroke:#231f20;stroke-width:0.565977;stroke-linecap:butt;stroke-linejoin:miter;stroke-miterlimit:4;stroke-dasharray:none;stroke-opacity:1"
     d="m 30.2133,116.254 c 3.8762,1.037 3.0522,-2.957 3.1772,-3.416 1.3187,-4.839 1.2922,-5.219 2.0375,-8.969 1.0776,-5.421 0.9896,-9.296 -1.9855,-10.848 -2.0145,-1.047 -3.6292,-0.781 -4.6292,0.083 -1.1041,0.953 -2.2759,3.906 -0.5785,6.24 l 0.1249,1.707 c -0.0625,1.162 -0.089,1.74 -0.1609,2.314 -0.1359,0.989 -0.2135,2.061 -0.3708,4.014 -0.2651,3.459 0.5839,7.208 0.5839,7.208 -0.0678,1.24 1.8014,1.667 1.8014,1.667 z"
     id="path234" />
  <path
     style="fill:#ca0369;fill-opacity:1;fill-rule:nonzero;stroke:none"
     d="m 35.8228,96.369 c -0.3375,-1.515 -1.0719,-2.667 -2.3803,-3.348 -2.0145,-1.047 -3.6292,-0.781 -4.6292,0.077 -1.1041,0.959 -2.2759,3.912 -0.5785,6.246 l 7.7025,1.317 c 0.0683,-0.656 0.1,-1.26 0.1052,-1.849 0.0308,-0.072 0.0574,-0.151 0.088,-0.214 0.3803,-0.708 0.135,-1.29 -0.3077,-2.229"
     id="path235" />
  <path
     style="fill:none;stroke:#231f20;stroke-width:0.565977;stroke-linecap:butt;stroke-linejoin:miter;stroke-miterlimit:4;stroke-dasharray:none;stroke-opacity:1"
     d="m 35.8228,96.369 c -0.3375,-1.515 -1.0719,-2.667 -2.3803,-3.348 -2.0145,-1.047 -3.6292,-0.781 -4.6292,0.077 -1.1041,0.959 -2.2759,3.912 -0.5785,6.246 l 7.7025,1.317 c 0.0683,-0.656 0.1,-1.26 0.1052,-1.849 0.0308,-0.072 0.0574,-0.151 0.088,-0.214 0.3803,-0.708 0.135,-1.29 -0.3077,-2.229 z"
     id="path236" />
  <path
     style="fill:#231f20;fill-opacity:1;fill-rule:nonzero;stroke:none"
     d="m 31.3905,58.198 c 0.3708,0.526 0.1724,2.463 0.6359,4.004 0.3125,1.038 -0.0369,3.762 0.3495,4.772 0.3537,0.927 0.4322,1.391 -0.5626,1.979 -0.5837,0.349 -1.9374,0.64 -2.2186,0.208 -0.6574,-0.989 -0.824,-1.921 -0.7975,-2.995 0.0417,-1.213 0.4267,-4.5 0.5573,-5.098 0.323,-1.49 0,-2.151 0.047,-2.558 0.088,-0.75 0.4009,-0.901 0.9009,-0.953 0.9537,-0.088 1.0881,0.641 1.0881,0.641"
     id="path237" />
  <path
     style="fill:none;stroke:#231f20;stroke-width:0.565977;stroke-linecap:butt;stroke-linejoin:miter;stroke-miterlimit:4;stroke-dasharray:none;stroke-opacity:1"
     d="m 31.3905,58.198 c 0.3708,0.526 0.1724,2.463 0.6359,4.004 0.3125,1.038 -0.0369,3.762 0.3495,4.772 0.3537,0.927 0.4322,1.391 -0.5626,1.979 -0.5837,0.349 -1.9374,0.64 -2.2186,0.208 -0.6574,-0.989 -0.824,-1.921 -0.7975,-2.995 0.0417,-1.213 0.4267,-4.5 0.5573,-5.098 0.323,-1.49 0,-2.151 0.047,-2.558 0.088,-0.75 0.4009,-0.901 0.9009,-0.953 0.9537,-0.088 1.0881,0.641 1.0881,0.641 z"
     id="path238" />
  <path
     style="fill:#231f20;fill-opacity:1;fill-rule:nonzero;stroke:none"
     d="m 31.7613,67.245 c 1.2907,0.093 0.7812,2.067 0.7282,2.604 -0.0563,0.541 -0.036,2.093 0.1306,3.307 0.1719,1.213 -0.1306,2.797 0.188,5.104 0.1667,1.209 -0.4322,2.496 -2.2041,2.661 -1.7443,0.168 -2.5,-0.749 -2.4787,-2.244 0.0162,-1.5 0.6667,-2.896 0.7866,-4.407 0.1254,-1.505 0.1093,-3.052 0.0416,-4.26 -0.0776,-1.385 0.3906,-2.093 0.8224,-2.308 1.0682,-0.53 1.9854,-0.457 1.9854,-0.457"
     id="path239" />
  <path
     style="fill:none;stroke:#231f20;stroke-width:0.565977;stroke-linecap:butt;stroke-linejoin:miter;stroke-miterlimit:4;stroke-dasharray:none;stroke-opacity:1"
     d="m 31.7613,67.245 c 1.2907,0.093 0.7812,2.067 0.7282,2.604 -0.0563,0.541 -0.036,2.093 0.1306,3.307 0.1719,1.213 -0.1306,2.797 0.188,5.104 0.1667,1.209 -0.4322,2.496 -2.2041,2.661 -1.7443,0.168 -2.5,-0.749 -2.4787,-2.244 0.0162,-1.5 0.6667,-2.896 0.7866,-4.407 0.1254,-1.505 0.1093,-3.052 0.0416,-4.26 -0.0776,-1.385 0.3906,-2.093 0.8224,-2.308 1.0682,-0.53 1.9854,-0.457 1.9854,-0.457 z"
     id="path240" />
  <path
     style="fill:#231f20;fill-opacity:1;fill-rule:nonzero;stroke:none"
     d="m 29.5056,58.188 c -0.6459,-0.271 -0.8125,-2.584 -0.5203,-2.71 0.2906,-0.124 0.2656,0.647 0.599,0.516 0.3333,-0.12 0.2754,-0.62 0.5052,-0.64 0.2494,-0.021 0.2238,0.583 0.5197,0.5 0.1204,-0.032 0.3547,-0.584 0.5375,-0.542 0.1666,0.037 0.348,0.526 0.4786,0.562 0.2079,0.058 0.2866,-0.552 0.459,-0.52 0.4582,0.083 -0.2402,2.708 -0.4538,2.818 -0.3172,0.156 -1.0838,0.448 -2.1249,0.016"
     id="path241" />
  <path
     style="fill:none;stroke:#231f20;stroke-width:0.565977;stroke-linecap:round;stroke-linejoin:round;stroke-miterlimit:4;stroke-dasharray:none;stroke-opacity:1"
     d="m 29.5056,58.188 c -0.6459,-0.271 -0.8125,-2.584 -0.5203,-2.71 0.2906,-0.124 0.2656,0.647 0.599,0.516 0.3333,-0.12 0.2754,-0.62 0.5052,-0.64 0.2494,-0.021 0.2238,0.583 0.5197,0.5 0.1204,-0.032 0.3547,-0.584 0.5375,-0.542 0.1666,0.037 0.348,0.526 0.4786,0.562 0.2079,0.058 0.2866,-0.552 0.459,-0.52 0.4582,0.083 -0.2402,2.708 -0.4538,2.818 -0.3172,0.156 -1.0838,0.448 -2.1249,0.016 z"
     id="path242" />
  <path
     style="fill:#231f20;fill-opacity:1;fill-rule:nonzero;stroke:none"
     d="m 137.3488,95.89 c -0.526,-1.249 0.198,-1.932 1.235,-1.994 0.301,-0.022 0.552,-0.355 0.853,-0.35 0.704,0.022 1.866,1.323 1.022,2.568 -0.058,0.084 -0.292,0.87 -0.563,1.427 -0.52,1.095 -2.099,3.032 -4.787,3.281 -1.27,0.12 -1.104,-0.656 -0.604,-0.858 1.584,-0.647 1.599,-1.016 1.948,-1.334 1.208,-1.084 0.896,-2.74 0.896,-2.74"
     id="path243" />
  <path
     style="fill:none;stroke:#231f20;stroke-width:0.332927;stroke-linecap:butt;stroke-linejoin:miter;stroke-miterlimit:4;stroke-dasharray:none;stroke-opacity:1"
     d="m 137.3488,95.89 c -0.526,-1.249 0.198,-1.932 1.235,-1.994 0.301,-0.022 0.552,-0.355 0.853,-0.35 0.704,0.022 1.866,1.323 1.022,2.568 -0.058,0.084 -0.292,0.87 -0.563,1.427 -0.52,1.095 -2.099,3.032 -4.787,3.281 -1.27,0.12 -1.104,-0.656 -0.604,-0.858 1.584,-0.647 1.599,-1.016 1.948,-1.334 1.208,-1.084 0.896,-2.74 0.896,-2.74 z"
     id="path244" />
  <path
     style="fill:#231f20;fill-opacity:1;fill-rule:nonzero;stroke:none"
     d="m 148.0998,80.526 c -1.797,-1.381 -2.329,-1.406 -2.964,-0.682 -0.423,0.478 -0.975,0.776 -1.245,1.057 -0.902,0.932 -2.036,2.875 -3.807,9.213 -0.401,1.443 -0.98,3.454 -1.281,4.255 -0.475,1.276 1.958,1.204 2.15,0.704 0.62,-1.595 1.172,-2.641 1.475,-3.188 0.208,-0.375 0.484,-1.088 1.473,-2.427 1.5,-2.036 2.698,-3.032 3.746,-4.87 0.489,-0.854 1.396,-1.182 1.442,-2.266 0.058,-1.082 -0.989,-1.796 -0.989,-1.796"
     id="path245" />
  <path
     style="fill:none;stroke:#231f20;stroke-width:0.565977;stroke-linecap:butt;stroke-linejoin:miter;stroke-miterlimit:4;stroke-dasharray:none;stroke-opacity:1"
     d="m 148.0998,80.526 c -1.797,-1.381 -2.329,-1.406 -2.964,-0.682 -0.423,0.478 -0.975,0.776 -1.245,1.057 -0.902,0.932 -2.036,2.875 -3.807,9.213 -0.401,1.443 -0.98,3.454 -1.281,4.255 -0.475,1.276 1.958,1.204 2.15,0.704 0.62,-1.595 1.172,-2.641 1.475,-3.188 0.208,-0.375 0.484,-1.088 1.473,-2.427 1.5,-2.036 2.698,-3.032 3.746,-4.87 0.489,-0.854 1.396,-1.182 1.442,-2.266 0.058,-1.082 -0.989,-1.796 -0.989,-1.796 z"
     id="path246" />
  <path
     style="fill:#ca0369;fill-opacity:1;fill-rule:nonzero;stroke:none"
     d="m 156.9318,56.374 c -1.025,2.959 -1.567,3.486 -2.187,4.167 -3.88,4.287 -1.702,6.109 1.146,6.543 3.354,0.509 4.546,0.765 6.026,-5.355 0.411,-1.708 2.844,-8.027 2.844,-8.027 1.176,-2.145 1.176,-4.869 0.307,-6.03 -0.921,-1.23 -0.645,-0.678 -1.703,-1.656 -1.01,-0.938 -3.146,-1.407 -4.13,-0.662 -0.943,0.719 -0.755,2.375 -0.792,4.796 -0.036,1.912 -1.511,6.224 -1.511,6.224"
     id="path247" />
  <path
     style="fill:none;stroke:#231f20;stroke-width:0.565977;stroke-linecap:butt;stroke-linejoin:miter;stroke-miterlimit:4;stroke-dasharray:none;stroke-opacity:1"
     d="m 156.9318,56.374 c -1.025,2.959 -1.567,3.486 -2.187,4.167 -3.88,4.287 -1.702,6.109 1.146,6.543 3.354,0.509 4.546,0.765 6.026,-5.355 0.411,-1.708 2.844,-8.027 2.844,-8.027 1.176,-2.145 1.176,-4.869 0.307,-6.03 -0.921,-1.23 -0.645,-0.678 -1.703,-1.656 -1.01,-0.938 -3.146,-1.407 -4.13,-0.662 -0.943,0.719 -0.755,2.375 -0.792,4.796 -0.036,1.912 -1.511,6.224 -1.511,6.224 z"
     id="path248" />
  <path
     style="fill:#ffffff;fill-opacity:1;fill-rule:nonzero;stroke:none"
     d="m 167.7918,41.75 c 0.136,-0.204 1.229,0.151 1.427,-0.333 0.198,-0.485 -0.432,-0.959 -0.542,-2.943 v -0.026 c -0.025,-1.448 -0.64,-2.698 -1.76,-3.266 -1.854,-0.937 -4.385,0.344 -5.661,2.859 -1.281,2.521 -0.813,5.328 1.041,6.267 1.771,0.9 4.178,-0.24 5.495,-2.558"
     id="path249" />
  <path
     style="fill:none;stroke:#231f20;stroke-width:0.565977;stroke-linecap:butt;stroke-linejoin:miter;stroke-miterlimit:4;stroke-dasharray:none;stroke-opacity:1"
     d="m 167.7918,41.75 c 0.136,-0.204 1.229,0.151 1.427,-0.333 0.198,-0.485 -0.432,-0.959 -0.542,-2.943 v -0.026 c -0.025,-1.448 -0.64,-2.698 -1.76,-3.266 -1.854,-0.937 -4.385,0.344 -5.661,2.859 -1.281,2.521 -0.813,5.328 1.041,6.267 1.771,0.9 4.178,-0.24 5.495,-2.558 z"
     id="path250" />
  <path
     style="fill:#231f20;fill-opacity:1;fill-rule:nonzero;stroke:none"
     d="m 146.1878,82.089 c 2.964,2.708 4.073,-1.22 4.396,-1.573 3.396,-3.688 3.547,-4.038 5.932,-7.022 3.448,-4.317 5.151,-7.801 3.229,-10.546 -1.308,-1.859 -2.869,-2.364 -4.15,-2.058 -1.418,0.339 -3.819,2.422 -3.386,5.282 l -0.672,1.573 c -0.589,1 -0.876,1.5 -1.204,1.973 -0.577,0.818 -1.14,1.73 -2.177,3.396 -1.828,2.948 -2.796,6.667 -2.796,6.667 -0.636,1.073 0.828,2.308 0.828,2.308"
     id="path251" />
  <path
     style="fill:none;stroke:#231f20;stroke-width:0.565977;stroke-linecap:butt;stroke-linejoin:miter;stroke-miterlimit:4;stroke-dasharray:none;stroke-opacity:1"
     d="m 146.1878,82.089 c 2.964,2.708 4.073,-1.22 4.396,-1.573 3.396,-3.688 3.547,-4.038 5.932,-7.022 3.448,-4.317 5.151,-7.801 3.229,-10.546 -1.308,-1.859 -2.869,-2.364 -4.15,-2.058 -1.418,0.339 -3.819,2.422 -3.386,5.282 l -0.672,1.573 c -0.589,1 -0.876,1.5 -1.204,1.973 -0.577,0.818 -1.14,1.73 -2.177,3.396 -1.828,2.948 -2.796,6.667 -2.796,6.667 -0.636,1.073 0.828,2.308 0.828,2.308 z"
     id="path252" />
  <path
     style="fill:#ca0369;fill-opacity:1;fill-rule:nonzero;stroke:none"
     d="m 160.6608,66.292 c 0.147,-1.547 -0.202,-2.866 -1.244,-3.912 -1.594,-1.62 -3.213,-1.859 -4.428,-1.344 -1.342,0.573 -3.364,3.026 -2.462,5.772 l 6.932,3.604 c 0.265,-0.6 0.478,-1.167 0.666,-1.719 0.052,-0.068 0.099,-0.131 0.151,-0.183 0.579,-0.562 0.527,-1.188 0.385,-2.218"
     id="path253" />
  <path
     style="fill:none;stroke:#231f20;stroke-width:0.565977;stroke-linecap:butt;stroke-linejoin:miter;stroke-miterlimit:4;stroke-dasharray:none;stroke-opacity:1"
     d="m 160.6608,66.292 c 0.147,-1.547 -0.202,-2.866 -1.244,-3.912 -1.594,-1.62 -3.213,-1.859 -4.428,-1.344 -1.342,0.573 -3.364,3.026 -2.462,5.772 l 6.932,3.604 c 0.265,-0.6 0.478,-1.167 0.666,-1.719 0.052,-0.068 0.099,-0.131 0.151,-0.183 0.579,-0.562 0.527,-1.188 0.385,-2.218 z"
     id="path254" />
  <path
     style="fill:#231f20;fill-opacity:1;fill-rule:nonzero;stroke:none"
     d="m 179.8908,56.912 c -0.63,0.134 -2.339,-0.798 -3.943,-0.964 -1.077,-0.115 -3.453,-1.49 -4.536,-1.522 -0.989,-0.03 -1.448,-0.14 -1.604,-1.281 -0.099,-0.676 0.156,-2.041 0.661,-2.135 1.172,-0.218 2.094,-0.016 3.068,0.427 1.104,0.505 3.99,2.136 4.495,2.48 1.244,0.875 1.979,0.833 2.333,1.031 0.661,0.374 0.681,0.718 0.536,1.202 -0.287,0.918 -1.01,0.762 -1.01,0.762"
     id="path255" />
  <path
     style="fill:none;stroke:#231f20;stroke-width:0.565977;stroke-linecap:butt;stroke-linejoin:miter;stroke-miterlimit:4;stroke-dasharray:none;stroke-opacity:1"
     d="m 179.8908,56.912 c -0.63,0.134 -2.339,-0.798 -3.943,-0.964 -1.077,-0.115 -3.453,-1.49 -4.536,-1.522 -0.989,-0.03 -1.448,-0.14 -1.604,-1.281 -0.099,-0.676 0.156,-2.041 0.661,-2.135 1.172,-0.218 2.094,-0.016 3.068,0.427 1.104,0.505 3.99,2.136 4.495,2.48 1.244,0.875 1.979,0.833 2.333,1.031 0.661,0.374 0.681,0.718 0.536,1.202 -0.287,0.918 -1.01,0.762 -1.01,0.762 z"
     id="path256" />
  <path
     style="fill:#231f20;fill-opacity:1;fill-rule:nonzero;stroke:none"
     d="m 171.3958,53.75 c -0.583,1.162 -2.203,-0.078 -2.677,-0.328 -0.479,-0.266 -1.922,-0.849 -3.104,-1.157 -1.182,-0.312 -2.526,-1.208 -4.776,-1.801 -1.183,-0.314 -2.135,-1.366 -1.61,-3.063 0.522,-1.677 1.662,-2.011 3.036,-1.417 1.376,0.594 2.412,1.729 3.756,2.428 1.339,0.692 2.771,1.276 3.916,1.681 1.308,0.464 1.776,1.172 1.808,1.652 0.074,1.192 -0.349,2.005 -0.349,2.005"
     id="path257" />
  <path
     style="fill:none;stroke:#231f20;stroke-width:0.565977;stroke-linecap:butt;stroke-linejoin:miter;stroke-miterlimit:4;stroke-dasharray:none;stroke-opacity:1"
     d="m 171.3958,53.75 c -0.583,1.162 -2.203,-0.078 -2.677,-0.328 -0.479,-0.266 -1.922,-0.849 -3.104,-1.157 -1.182,-0.312 -2.526,-1.208 -4.776,-1.801 -1.183,-0.314 -2.135,-1.366 -1.61,-3.063 0.522,-1.677 1.662,-2.011 3.036,-1.417 1.376,0.594 2.412,1.729 3.756,2.428 1.339,0.692 2.771,1.276 3.916,1.681 1.308,0.464 1.776,1.172 1.808,1.652 0.074,1.192 -0.349,2.005 -0.349,2.005 z"
     id="path258" />
  <path
     style="fill:#231f20;fill-opacity:1;fill-rule:nonzero;stroke:none"
     d="m 180.1718,56.921 c -0.489,-0.499 0.245,-2.692 0.568,-2.697 0.317,0 -0.006,0.697 0.349,0.708 0.359,0.016 0.495,-0.468 0.713,-0.396 0.24,0.078 -0.01,0.625 0.287,0.662 0.124,0.015 0.552,-0.401 0.708,-0.292 0.14,0.099 0.12,0.62 0.229,0.708 0.167,0.131 0.468,-0.401 0.62,-0.306 0.391,0.254 -1.266,2.405 -1.505,2.421 -0.355,0.027 -1.177,-0.005 -1.969,-0.808"
     id="path259" />
  <path
     style="fill:none;stroke:#231f20;stroke-width:0.565977;stroke-linecap:round;stroke-linejoin:round;stroke-miterlimit:4;stroke-dasharray:none;stroke-opacity:1"
     d="m 180.1718,56.921 c -0.489,-0.499 0.245,-2.692 0.568,-2.697 0.317,0 -0.006,0.697 0.349,0.708 0.359,0.016 0.495,-0.468 0.713,-0.396 0.24,0.078 -0.01,0.625 0.287,0.662 0.124,0.015 0.552,-0.401 0.708,-0.292 0.14,0.099 0.12,0.62 0.229,0.708 0.167,0.131 0.468,-0.401 0.62,-0.306 0.391,0.254 -1.266,2.405 -1.505,2.421 -0.355,0.027 -1.177,-0.005 -1.969,-0.808 z"
     id="path260" />
  <path
     style="fill:#231f20;fill-opacity:1;fill-rule:nonzero;stroke:none"
     d="m 211.8128,110.453 c -0.303,-1.323 0.52,-1.87 1.552,-1.755 0.307,0.031 0.604,-0.256 0.9,-0.199 0.693,0.142 1.615,1.62 0.573,2.699 -0.072,0.077 -0.437,0.812 -0.796,1.317 -0.704,0.99 -2.589,2.626 -5.276,2.416 -1.272,-0.098 -0.98,-0.833 -0.453,-0.948 1.672,-0.369 1.749,-0.729 2.151,-0.984 1.374,-0.858 1.349,-2.546 1.349,-2.546"
     id="path261" />
  <path
     style="fill:none;stroke:#231f20;stroke-width:0.332927;stroke-linecap:butt;stroke-linejoin:miter;stroke-miterlimit:4;stroke-dasharray:none;stroke-opacity:1"
     d="m 211.8128,110.453 c -0.303,-1.323 0.52,-1.87 1.552,-1.755 0.307,0.031 0.604,-0.256 0.9,-0.199 0.693,0.142 1.615,1.62 0.573,2.699 -0.072,0.077 -0.437,0.812 -0.796,1.317 -0.704,0.99 -2.589,2.626 -5.276,2.416 -1.272,-0.098 -0.98,-0.833 -0.453,-0.948 1.672,-0.369 1.749,-0.729 2.151,-0.984 1.374,-0.858 1.349,-2.546 1.349,-2.546 z"
     id="path262" />
  <path
     style="fill:#231f20;fill-opacity:1;fill-rule:nonzero;stroke:none"
     d="m 225.0208,97.145 c -1.536,-1.667 -2.057,-1.78 -2.808,-1.181 -0.495,0.401 -1.093,0.604 -1.405,0.833 -1.047,0.765 -2.495,2.484 -5.319,8.432 -0.64,1.349 -1.552,3.234 -1.989,3.973 -0.682,1.172 1.729,1.516 2,1.063 0.885,-1.468 1.609,-2.406 2,-2.896 0.266,-0.334 0.661,-0.99 1.86,-2.14 1.828,-1.751 3.177,-2.527 4.52,-4.162 0.625,-0.756 1.578,-0.926 1.813,-1.983 0.239,-1.058 -0.672,-1.939 -0.672,-1.939"
     id="path263" />
  <path
     style="fill:none;stroke:#231f20;stroke-width:0.565977;stroke-linecap:butt;stroke-linejoin:miter;stroke-miterlimit:4;stroke-dasharray:none;stroke-opacity:1"
     d="m 225.0208,97.145 c -1.536,-1.667 -2.057,-1.78 -2.808,-1.181 -0.495,0.401 -1.093,0.604 -1.405,0.833 -1.047,0.765 -2.495,2.484 -5.319,8.432 -0.64,1.349 -1.552,3.234 -1.989,3.973 -0.682,1.172 1.729,1.516 2,1.063 0.885,-1.468 1.609,-2.406 2,-2.896 0.266,-0.334 0.661,-0.99 1.86,-2.14 1.828,-1.751 3.177,-2.527 4.52,-4.162 0.625,-0.756 1.578,-0.926 1.813,-1.983 0.239,-1.058 -0.672,-1.939 -0.672,-1.939 z"
     id="path264" />
  <path
     style="fill:#ca0369;fill-opacity:1;fill-rule:nonzero;stroke:none"
     d="m 237.8328,74.844 c -1.515,2.744 -2.135,3.172 -2.864,3.74 -4.552,3.557 -2.719,5.728 0.016,6.64 3.213,1.073 4.348,1.526 6.853,-4.25 0.688,-1.609 4.167,-7.428 4.167,-7.428 1.521,-1.91 1.989,-4.593 1.328,-5.89 -0.697,-1.37 -0.52,-0.776 -1.396,-1.922 -0.837,-1.098 -2.859,-1.922 -3.957,-1.349 -1.052,0.541 -1.152,2.208 -1.6,4.589 -0.359,1.875 -2.547,5.87 -2.547,5.87"
     id="path265" />
  <path
     style="fill:none;stroke:#231f20;stroke-width:0.565977;stroke-linecap:butt;stroke-linejoin:miter;stroke-miterlimit:4;stroke-dasharray:none;stroke-opacity:1"
     d="m 237.8328,74.844 c -1.515,2.744 -2.135,3.172 -2.864,3.74 -4.552,3.557 -2.719,5.728 0.016,6.64 3.213,1.073 4.348,1.526 6.853,-4.25 0.688,-1.609 4.167,-7.428 4.167,-7.428 1.521,-1.91 1.989,-4.593 1.328,-5.89 -0.697,-1.37 -0.52,-0.776 -1.396,-1.922 -0.837,-1.098 -2.859,-1.922 -3.957,-1.349 -1.052,0.541 -1.152,2.208 -1.6,4.589 -0.359,1.875 -2.547,5.87 -2.547,5.87 z"
     id="path266" />
  <path
     style="fill:#ffffff;fill-opacity:1;fill-rule:nonzero;stroke:none"
     d="m 251.0258,62.286 c 0.167,-0.177 1.183,0.359 1.459,-0.084 0.281,-0.446 -0.261,-1.02 -0.032,-3 l 0.005,-0.014 c 0.219,-1.443 -0.172,-2.776 -1.177,-3.522 -1.667,-1.24 -4.385,-0.412 -6.068,1.855 -1.687,2.265 -1.703,5.109 -0.036,6.348 1.593,1.188 4.156,0.475 5.849,-1.583"
     id="path267" />
  <path
     style="fill:none;stroke:#231f20;stroke-width:0.565977;stroke-linecap:butt;stroke-linejoin:miter;stroke-miterlimit:4;stroke-dasharray:none;stroke-opacity:1"
     d="m 251.0258,62.286 c 0.167,-0.177 1.183,0.359 1.459,-0.084 0.281,-0.446 -0.261,-1.02 -0.032,-3 l 0.005,-0.014 c 0.219,-1.443 -0.172,-2.776 -1.177,-3.522 -1.667,-1.24 -4.385,-0.412 -6.068,1.855 -1.687,2.265 -1.703,5.109 -0.036,6.348 1.593,1.188 4.156,0.475 5.849,-1.583 z"
     id="path268" />
  <path
     style="fill:#231f20;fill-opacity:1;fill-rule:nonzero;stroke:none"
     d="m 222.8698,98.36 c 2.458,3.171 4.224,-0.511 4.599,-0.803 3.973,-3.057 4.183,-3.375 7.041,-5.912 4.136,-3.667 6.407,-6.812 4.975,-9.843 -0.969,-2.052 -2.423,-2.818 -3.735,-2.734 -1.458,0.093 -4.177,1.734 -4.234,4.63 l -0.932,1.432 c -0.751,0.886 -1.12,1.334 -1.527,1.739 -0.708,0.709 -1.416,1.516 -2.719,2.98 -2.306,2.593 -3.896,6.093 -3.896,6.093 -0.806,0.948 0.428,2.418 0.428,2.418"
     id="path269" />
  <path
     style="fill:none;stroke:#231f20;stroke-width:0.565977;stroke-linecap:butt;stroke-linejoin:miter;stroke-miterlimit:4;stroke-dasharray:none;stroke-opacity:1"
     d="m 222.8698,98.36 c 2.458,3.171 4.224,-0.511 4.599,-0.803 3.973,-3.057 4.183,-3.375 7.041,-5.912 4.136,-3.667 6.407,-6.812 4.975,-9.843 -0.969,-2.052 -2.423,-2.818 -3.735,-2.734 -1.458,0.093 -4.177,1.734 -4.234,4.63 l -0.932,1.432 c -0.751,0.886 -1.12,1.334 -1.527,1.739 -0.708,0.709 -1.416,1.516 -2.719,2.98 -2.306,2.593 -3.896,6.093 -3.896,6.093 -0.806,0.948 0.428,2.418 0.428,2.418 z"
     id="path270" />
  <path
     style="fill:#ca0369;fill-opacity:1;fill-rule:nonzero;stroke:none"
     d="m 239.2648,81.188 c -1.301,-1.866 -2.859,-2.376 -4.14,-2.079 -1.416,0.339 -3.833,2.412 -3.407,5.271 l 6.219,4.729 c 0.365,-0.547 0.672,-1.073 0.948,-1.588 0.063,-0.052 0.12,-0.104 0.177,-0.147 0.667,-0.457 0.719,-1.082 0.76,-2.12 0.407,-1.498 0.287,-2.858 -0.557,-4.066"
     id="path271" />
  <path
     style="fill:none;stroke:#231f20;stroke-width:0.565977;stroke-linecap:butt;stroke-linejoin:miter;stroke-miterlimit:4;stroke-dasharray:none;stroke-opacity:1"
     d="m 239.2648,81.188 c -1.301,-1.866 -2.859,-2.376 -4.14,-2.079 -1.416,0.339 -3.833,2.412 -3.407,5.271 l 6.219,4.729 c 0.365,-0.547 0.672,-1.073 0.948,-1.588 0.063,-0.052 0.12,-0.104 0.177,-0.147 0.667,-0.457 0.719,-1.082 0.76,-2.12 0.407,-1.498 0.287,-2.858 -0.557,-4.066 z"
     id="path272" />
  <path
     style="fill:#231f20;fill-opacity:1;fill-rule:nonzero;stroke:none"
     d="m 262.1608,59.084 c -0.307,0.566 -2.135,1.244 -3.312,2.338 -0.803,0.739 -3.396,1.619 -4.136,2.416 -0.676,0.724 -1.057,1 -2.02,0.364 -0.573,-0.369 -1.432,-1.457 -1.167,-1.9 0.599,-1.026 1.364,-1.589 2.339,-2.026 1.104,-0.506 4.224,-1.604 4.817,-1.755 1.479,-0.365 1.932,-0.948 2.318,-1.084 0.713,-0.255 0.989,-0.036 1.256,0.391 0.5,0.817 -0.095,1.256 -0.095,1.256"
     id="path273" />
  <path
     style="fill:none;stroke:#231f20;stroke-width:0.565977;stroke-linecap:butt;stroke-linejoin:miter;stroke-miterlimit:4;stroke-dasharray:none;stroke-opacity:1"
     d="m 262.1608,59.084 c -0.307,0.566 -2.135,1.244 -3.312,2.338 -0.803,0.739 -3.396,1.619 -4.136,2.416 -0.676,0.724 -1.057,1 -2.02,0.364 -0.573,-0.369 -1.432,-1.457 -1.167,-1.9 0.599,-1.026 1.364,-1.589 2.339,-2.026 1.104,-0.506 4.224,-1.604 4.817,-1.755 1.479,-0.365 1.932,-0.948 2.318,-1.084 0.713,-0.255 0.989,-0.036 1.256,0.391 0.5,0.817 -0.095,1.256 -0.095,1.256 z"
     id="path274" />
  <path
     style="fill:#231f20;fill-opacity:1;fill-rule:nonzero;stroke:none"
     d="m 254.1978,63.406 c 0.49,1.198 -1.505,1.61 -2.01,1.796 -0.516,0.194 -1.902,0.896 -2.912,1.579 -1.015,0.693 -2.572,1.115 -4.5,2.417 -1.015,0.687 -2.432,0.714 -3.364,-0.802 -0.918,-1.495 -0.427,-2.574 0.926,-3.219 1.35,-0.645 2.891,-0.677 4.303,-1.235 1.401,-0.552 2.781,-1.244 3.844,-1.844 1.203,-0.676 2.052,-0.566 2.427,-0.276 0.948,0.73 1.286,1.584 1.286,1.584"
     id="path275" />
  <path
     style="fill:none;stroke:#231f20;stroke-width:0.565977;stroke-linecap:butt;stroke-linejoin:miter;stroke-miterlimit:4;stroke-dasharray:none;stroke-opacity:1"
     d="m 254.1978,63.406 c 0.49,1.198 -1.505,1.61 -2.01,1.796 -0.516,0.194 -1.902,0.896 -2.912,1.579 -1.015,0.693 -2.572,1.115 -4.5,2.417 -1.015,0.687 -2.432,0.714 -3.364,-0.802 -0.918,-1.495 -0.427,-2.574 0.926,-3.219 1.35,-0.645 2.891,-0.677 4.303,-1.235 1.401,-0.552 2.781,-1.244 3.844,-1.844 1.203,-0.676 2.052,-0.566 2.427,-0.276 0.948,0.73 1.286,1.584 1.286,1.584 z"
     id="path276" />
  <path
     style="fill:#231f20;fill-opacity:1;fill-rule:nonzero;stroke:none"
     d="m 62.9747,121.442 c -0.3025,-1.317 0.5199,-1.869 1.5516,-1.755 0.3068,0.031 0.6042,-0.256 0.9016,-0.198 0.6922,0.141 1.6145,1.62 0.5719,2.704 -0.0719,0.072 -0.4427,0.806 -0.7959,1.317 -0.7041,0.984 -2.5896,2.625 -5.276,2.411 -1.2718,-0.099 -0.9802,-0.828 -0.4532,-0.947 1.6719,-0.365 1.7491,-0.724 2.1506,-0.985 1.3745,-0.859 1.3494,-2.547 1.3494,-2.547"
     id="path277" />
  <path
     style="fill:none;stroke:#231f20;stroke-width:0.332927;stroke-linecap:butt;stroke-linejoin:miter;stroke-miterlimit:4;stroke-dasharray:none;stroke-opacity:1"
     d="m 62.9747,121.442 c -0.3025,-1.317 0.5199,-1.869 1.5516,-1.755 0.3068,0.031 0.6042,-0.256 0.9016,-0.198 0.6922,0.141 1.6145,1.62 0.5719,2.704 -0.0719,0.072 -0.4427,0.806 -0.7959,1.317 -0.7041,0.984 -2.5896,2.625 -5.276,2.411 -1.2718,-0.099 -0.9802,-0.828 -0.4532,-0.947 1.6719,-0.365 1.7491,-0.724 2.1506,-0.985 1.3745,-0.859 1.3494,-2.547 1.3494,-2.547 z"
     id="path278" />
  <path
     style="fill:#231f20;fill-opacity:1;fill-rule:nonzero;stroke:none"
     d="m 76.1826,108.135 c -1.536,-1.666 -2.0574,-1.781 -2.8068,-1.177 -0.4959,0.401 -1.0948,0.599 -1.4068,0.828 -1.0463,0.765 -2.4943,2.484 -5.3171,8.432 -0.6412,1.349 -1.5521,3.235 -1.9854,3.98 -0.6866,1.171 1.7188,1.515 1.9948,1.056 0.8853,-1.468 1.6093,-2.405 1.9999,-2.895 0.2667,-0.333 0.6615,-0.985 1.8651,-2.141 1.8177,-1.749 3.1724,-2.525 4.5161,-4.156 0.624,-0.76 1.5776,-0.932 1.812,-1.989 0.235,-1.058 -0.6718,-1.938 -0.6718,-1.938"
     id="path279" />
  <path
     style="fill:none;stroke:#231f20;stroke-width:0.565977;stroke-linecap:butt;stroke-linejoin:miter;stroke-miterlimit:4;stroke-dasharray:none;stroke-opacity:1"
     d="m 76.1826,108.135 c -1.536,-1.666 -2.0574,-1.781 -2.8068,-1.177 -0.4959,0.401 -1.0948,0.599 -1.4068,0.828 -1.0463,0.765 -2.4943,2.484 -5.3171,8.432 -0.6412,1.349 -1.5521,3.235 -1.9854,3.98 -0.6866,1.171 1.7188,1.515 1.9948,1.056 0.8853,-1.468 1.6093,-2.405 1.9999,-2.895 0.2667,-0.333 0.6615,-0.985 1.8651,-2.141 1.8177,-1.749 3.1724,-2.525 4.5161,-4.156 0.624,-0.76 1.5776,-0.932 1.812,-1.989 0.235,-1.058 -0.6718,-1.938 -0.6718,-1.938 z"
     id="path280" />
  <path
     style="fill:#ca0369;fill-opacity:1;fill-rule:nonzero;stroke:none"
     d="m 88.9948,85.838 c -1.51,2.746 -2.135,3.167 -2.859,3.735 -4.557,3.563 -2.724,5.729 0.011,6.64 3.219,1.079 4.348,1.527 6.853,-4.249 0.693,-1.61 4.167,-7.428 4.167,-7.428 1.521,-1.911 1.989,-4.594 1.328,-5.891 -0.698,-1.369 -0.52,-0.771 -1.395,-1.921 -0.834,-1.094 -2.86,-1.922 -3.958,-1.35 -1.052,0.543 -1.147,2.21 -1.599,4.59 -0.36,1.88 -2.548,5.874 -2.548,5.874"
     id="path281" />
  <path
     style="fill:none;stroke:#231f20;stroke-width:0.565977;stroke-linecap:butt;stroke-linejoin:miter;stroke-miterlimit:4;stroke-dasharray:none;stroke-opacity:1"
     d="m 88.9948,85.838 c -1.51,2.746 -2.135,3.167 -2.859,3.735 -4.557,3.563 -2.724,5.729 0.011,6.64 3.219,1.079 4.348,1.527 6.853,-4.249 0.693,-1.61 4.167,-7.428 4.167,-7.428 1.521,-1.911 1.989,-4.594 1.328,-5.891 -0.698,-1.369 -0.52,-0.771 -1.395,-1.921 -0.834,-1.094 -2.86,-1.922 -3.958,-1.35 -1.052,0.543 -1.147,2.21 -1.599,4.59 -0.36,1.88 -2.548,5.874 -2.548,5.874 z"
     id="path282" />
  <path
     style="fill:#ffffff;fill-opacity:1;fill-rule:nonzero;stroke:none"
     d="m 102.1878,73.276 c 0.167,-0.178 1.183,0.36 1.459,-0.083 0.281,-0.448 -0.262,-1.021 -0.033,-2.995 l 0.006,-0.021 c 0.219,-1.437 -0.172,-2.776 -1.177,-3.521 -1.667,-1.239 -4.386,-0.406 -6.067,1.854 -1.688,2.266 -1.704,5.11 -0.037,6.35 1.593,1.186 4.156,0.473 5.849,-1.584"
     id="path283" />
  <path
     style="fill:none;stroke:#231f20;stroke-width:0.565977;stroke-linecap:butt;stroke-linejoin:miter;stroke-miterlimit:4;stroke-dasharray:none;stroke-opacity:1"
     d="m 102.1878,73.276 c 0.167,-0.178 1.183,0.36 1.459,-0.083 0.281,-0.448 -0.262,-1.021 -0.033,-2.995 l 0.006,-0.021 c 0.219,-1.437 -0.172,-2.776 -1.177,-3.521 -1.667,-1.239 -4.386,-0.406 -6.067,1.854 -1.688,2.266 -1.704,5.11 -0.037,6.35 1.593,1.186 4.156,0.473 5.849,-1.584 z"
     id="path284" />
  <path
     style="fill:#231f20;fill-opacity:1;fill-rule:nonzero;stroke:none"
     d="m 74.032,109.349 c 2.4574,3.172 4.224,-0.511 4.5984,-0.803 3.9734,-3.052 4.1824,-3.375 7.0414,-5.911 4.136,-3.666 6.407,-6.813 4.975,-9.838 -0.969,-2.057 -2.423,-2.823 -3.735,-2.74 -1.453,0.099 -4.177,1.74 -4.24,4.631 l -0.927,1.437 c -0.75,0.885 -1.12,1.328 -1.526,1.735 -0.7081,0.713 -1.4165,1.514 -2.719,2.978 -2.3068,2.593 -3.8959,6.093 -3.8959,6.093 -0.8016,0.948 0.4281,2.418 0.4281,2.418"
     id="path285" />
  <path
     style="fill:none;stroke:#231f20;stroke-width:0.565977;stroke-linecap:butt;stroke-linejoin:miter;stroke-miterlimit:4;stroke-dasharray:none;stroke-opacity:1"
     d="m 74.032,109.349 c 2.4574,3.172 4.224,-0.511 4.5984,-0.803 3.9734,-3.052 4.1824,-3.375 7.0414,-5.911 4.136,-3.666 6.407,-6.813 4.975,-9.838 -0.969,-2.057 -2.423,-2.823 -3.735,-2.74 -1.453,0.099 -4.177,1.74 -4.24,4.631 l -0.927,1.437 c -0.75,0.885 -1.12,1.328 -1.526,1.735 -0.7081,0.713 -1.4165,1.514 -2.719,2.978 -2.3068,2.593 -3.8959,6.093 -3.8959,6.093 -0.8016,0.948 0.4281,2.418 0.4281,2.418 z"
     id="path286" />
  <path
     style="fill:#ca0369;fill-opacity:1;fill-rule:nonzero;stroke:none"
     d="m 90.4278,92.177 c -1.303,-1.865 -2.86,-2.375 -4.136,-2.073 -1.426,0.333 -3.838,2.406 -3.416,5.265 l 6.224,4.735 c 0.364,-0.547 0.671,-1.072 0.947,-1.588 0.062,-0.058 0.12,-0.11 0.177,-0.151 0.667,-0.453 0.719,-1.084 0.761,-2.115 0.406,-1.505 0.286,-2.865 -0.557,-4.073"
     id="path287" />
  <path
     style="fill:none;stroke:#231f20;stroke-width:0.565977;stroke-linecap:butt;stroke-linejoin:miter;stroke-miterlimit:4;stroke-dasharray:none;stroke-opacity:1"
     d="m 90.4278,92.177 c -1.303,-1.865 -2.86,-2.375 -4.136,-2.073 -1.426,0.333 -3.838,2.406 -3.416,5.265 l 6.224,4.735 c 0.364,-0.547 0.671,-1.072 0.947,-1.588 0.062,-0.058 0.12,-0.11 0.177,-0.151 0.667,-0.453 0.719,-1.084 0.761,-2.115 0.406,-1.505 0.286,-2.865 -0.557,-4.073 z"
     id="path288" />
  <path
     style="fill:#231f20;fill-opacity:1;fill-rule:nonzero;stroke:none"
     d="m 102.2758,59.38 c 0.167,0.62 -0.692,2.37 -0.796,3.974 -0.073,1.083 -1.355,3.511 -1.338,4.599 0.005,0.989 -0.085,1.448 -1.219,1.651 -0.672,0.125 -2.043,-0.078 -2.156,-0.572 -0.272,-1.163 -0.106,-2.095 0.301,-3.084 0.458,-1.126 1.969,-4.074 2.298,-4.588 0.822,-1.282 0.748,-2.016 0.936,-2.376 0.345,-0.682 0.693,-0.714 1.178,-0.583 0.927,0.244 0.796,0.979 0.796,0.979"
     id="path289" />
  <path
     style="fill:none;stroke:#231f20;stroke-width:0.565977;stroke-linecap:butt;stroke-linejoin:miter;stroke-miterlimit:4;stroke-dasharray:none;stroke-opacity:1"
     d="m 102.2758,59.38 c 0.167,0.62 -0.692,2.37 -0.796,3.974 -0.073,1.083 -1.355,3.511 -1.338,4.599 0.005,0.989 -0.085,1.448 -1.219,1.651 -0.672,0.125 -2.043,-0.078 -2.156,-0.572 -0.272,-1.163 -0.106,-2.095 0.301,-3.084 0.458,-1.126 1.969,-4.074 2.298,-4.588 0.822,-1.282 0.748,-2.016 0.936,-2.376 0.345,-0.682 0.693,-0.714 1.178,-0.583 0.927,0.244 0.796,0.979 0.796,0.979 z"
     id="path290" />
  <path
     style="fill:#231f20;fill-opacity:1;fill-rule:nonzero;stroke:none"
     d="m 99.4638,67.989 c 1.183,0.537 0.016,2.204 -0.224,2.693 -0.24,0.49 -0.765,1.954 -1.027,3.146 -0.265,1.198 -1.104,2.573 -1.609,4.844 -0.265,1.197 -1.276,2.193 -2.995,1.729 -1.691,-0.453 -2.077,-1.573 -1.541,-2.975 0.541,-1.394 1.636,-2.473 2.276,-3.848 0.641,-1.365 1.167,-2.822 1.527,-3.985 0.405,-1.317 1.098,-1.823 1.572,-1.869 1.193,-0.126 2.021,0.265 2.021,0.265"
     id="path291" />
  <path
     style="fill:none;stroke:#231f20;stroke-width:0.565977;stroke-linecap:butt;stroke-linejoin:miter;stroke-miterlimit:4;stroke-dasharray:none;stroke-opacity:1"
     d="m 99.4638,67.989 c 1.183,0.537 0.016,2.204 -0.224,2.693 -0.24,0.49 -0.765,1.954 -1.027,3.146 -0.265,1.198 -1.104,2.573 -1.609,4.844 -0.265,1.197 -1.276,2.193 -2.995,1.729 -1.691,-0.453 -2.077,-1.573 -1.541,-2.975 0.541,-1.394 1.636,-2.473 2.276,-3.848 0.641,-1.365 1.167,-2.822 1.527,-3.985 0.405,-1.317 1.098,-1.823 1.572,-1.869 1.193,-0.126 2.021,0.265 2.021,0.265 z"
     id="path292" />
  <path
     style="fill:#231f20;fill-opacity:1;fill-rule:nonzero;stroke:none"
     d="m 100.2648,58.541 c -0.489,-0.495 0.246,-2.687 0.568,-2.692 0.314,-0.005 -0.005,0.692 0.35,0.708 0.36,0.011 0.494,-0.468 0.713,-0.396 0.24,0.073 -0.016,0.62 0.287,0.661 0.13,0.016 0.552,-0.405 0.708,-0.29 0.135,0.098 0.12,0.618 0.223,0.702 0.167,0.131 0.475,-0.401 0.626,-0.302 0.391,0.25 -1.265,2.401 -1.51,2.417 -0.35,0.025 -1.173,0 -1.965,-0.808"
     id="path293" />
  <path
     style="fill:none;stroke:#231f20;stroke-width:0.565977;stroke-linecap:round;stroke-linejoin:round;stroke-miterlimit:4;stroke-dasharray:none;stroke-opacity:1"
     d="m 100.2648,58.541 c -0.489,-0.495 0.246,-2.687 0.568,-2.692 0.314,-0.005 -0.005,0.692 0.35,0.708 0.36,0.011 0.494,-0.468 0.713,-0.396 0.24,0.073 -0.016,0.62 0.287,0.661 0.13,0.016 0.552,-0.405 0.708,-0.29 0.135,0.098 0.12,0.618 0.223,0.702 0.167,0.131 0.475,-0.401 0.626,-0.302 0.391,0.25 -1.265,2.401 -1.51,2.417 -0.35,0.025 -1.173,0 -1.965,-0.808 z"
     id="path294" />
  <path
     style="fill:#231f20;fill-opacity:1;fill-rule:nonzero;stroke:none"
     d="m 285.6818,167.073 c -1.026,-0.334 -0.464,-1.454 0.074,-2.558 0.134,-0.281 0.238,-0.546 0.39,-0.808 0.63,-1.057 1.583,-1.484 2.896,1.21 0.052,0.104 1.526,1.713 2.015,2.098 2.36,1.828 2.787,1.104 2.36,1.828 -0.281,0.484 -0.776,0.364 -1.38,0.198 -0.828,-0.219 -3.672,-1.25 -4.115,-1.38 -0.433,-0.126 -2.24,-0.588 -2.24,-0.588"
     id="path295" />
  <path
     style="fill:none;stroke:#231f20;stroke-width:0.565977;stroke-linecap:butt;stroke-linejoin:miter;stroke-miterlimit:4;stroke-dasharray:none;stroke-opacity:1"
     d="m 285.6818,167.073 c -1.026,-0.334 -0.464,-1.454 0.074,-2.558 0.134,-0.281 0.238,-0.546 0.39,-0.808 0.63,-1.057 1.583,-1.484 2.896,1.21 0.052,0.104 1.526,1.713 2.015,2.098 2.36,1.828 2.787,1.104 2.36,1.828 -0.281,0.484 -0.776,0.364 -1.38,0.198 -0.828,-0.219 -3.672,-1.25 -4.115,-1.38 -0.433,-0.126 -2.24,-0.588 -2.24,-0.588 z"
     id="path296" />
  <path
     style="fill:#231f20;fill-opacity:1;fill-rule:nonzero;stroke:none"
     d="m 292.2698,148.322 c -2.057,-0.948 -2.582,-0.859 -3.046,-0.015 -0.307,0.558 -0.782,0.979 -0.984,1.307 -0.672,1.109 -1.35,3.251 -1.688,9.823 -0.078,1.494 -0.198,3.584 -0.312,4.437 -0.188,1.344 2.172,0.74 2.249,0.215 0.256,-1.699 0.563,-2.844 0.74,-3.439 0.12,-0.411 0.235,-1.167 0.901,-2.692 1.016,-2.313 1.964,-3.547 2.583,-5.573 0.292,-0.932 1.105,-1.459 0.917,-2.526 -0.188,-1.068 -1.36,-1.537 -1.36,-1.537"
     id="path298" />
  <path
     style="fill:none;stroke:#231f20;stroke-width:0.565977;stroke-linecap:butt;stroke-linejoin:miter;stroke-miterlimit:4;stroke-dasharray:none;stroke-opacity:1"
     d="m 292.2698,148.322 c -2.057,-0.948 -2.582,-0.859 -3.046,-0.015 -0.307,0.558 -0.782,0.979 -0.984,1.307 -0.672,1.109 -1.35,3.251 -1.688,9.823 -0.078,1.494 -0.198,3.584 -0.312,4.437 -0.188,1.344 2.172,0.74 2.249,0.215 0.256,-1.699 0.563,-2.844 0.74,-3.439 0.12,-0.411 0.235,-1.167 0.901,-2.692 1.016,-2.313 1.964,-3.547 2.583,-5.573 0.292,-0.932 1.105,-1.459 0.917,-2.526 -0.188,-1.068 -1.36,-1.537 -1.36,-1.537 z"
     id="path299" />
  <path
     style="fill:#ca0369;fill-opacity:1;fill-rule:nonzero;stroke:none"
     d="m 279.2088,125.901 c -0.349,3.114 -0.767,3.744 -1.22,4.541 -2.848,5.032 -0.328,6.339 2.553,6.136 3.38,-0.24 4.599,-0.256 4.703,-6.547 0.025,-1.75 1.011,-8.453 1.011,-8.453 0.676,-2.355 0.082,-5.005 -1.022,-5.953 -1.166,-1 -0.781,-0.516 -2.025,-1.246 -1.193,-0.692 -3.376,-0.681 -4.172,0.266 -0.767,0.906 -0.219,2.48 0.271,4.854 0.39,1.875 -0.099,6.402 -0.099,6.402"
     id="path300" />
  <path
     style="fill:none;stroke:#231f20;stroke-width:0.565977;stroke-linecap:butt;stroke-linejoin:miter;stroke-miterlimit:4;stroke-dasharray:none;stroke-opacity:1"
     d="m 279.2088,125.901 c -0.349,3.114 -0.767,3.744 -1.22,4.541 -2.848,5.032 -0.328,6.339 2.553,6.136 3.38,-0.24 4.599,-0.256 4.703,-6.547 0.025,-1.75 1.011,-8.453 1.011,-8.453 0.676,-2.355 0.082,-5.005 -1.022,-5.953 -1.166,-1 -0.781,-0.516 -2.025,-1.246 -1.193,-0.692 -3.376,-0.681 -4.172,0.266 -0.767,0.906 -0.219,2.48 0.271,4.854 0.39,1.875 -0.099,6.402 -0.099,6.402 z"
     id="path301" />
  <path
     style="fill:#231f20;fill-opacity:1;fill-rule:nonzero;stroke:none"
     d="m 301.4938,118.827 c -0.557,0.328 -2.473,-0.016 -4.041,0.328 -1.057,0.235 -3.749,-0.317 -4.787,-0.01 -0.953,0.286 -1.416,0.329 -1.926,-0.703 -0.307,-0.609 -0.495,-1.984 -0.047,-2.235 1.041,-0.577 1.979,-0.676 3.047,-0.566 1.202,0.129 4.453,0.765 5.041,0.937 1.464,0.437 2.147,0.161 2.547,0.233 0.745,0.152 0.876,0.47 0.885,0.975 0.016,0.959 -0.719,1.041 -0.719,1.041"
     id="path302" />
  <path
     style="fill:none;stroke:#231f20;stroke-width:0.565977;stroke-linecap:butt;stroke-linejoin:miter;stroke-miterlimit:4;stroke-dasharray:none;stroke-opacity:1"
     d="m 301.4938,118.827 c -0.557,0.328 -2.473,-0.016 -4.041,0.328 -1.057,0.235 -3.749,-0.317 -4.787,-0.01 -0.953,0.286 -1.416,0.329 -1.926,-0.703 -0.307,-0.609 -0.495,-1.984 -0.047,-2.235 1.041,-0.577 1.979,-0.676 3.047,-0.566 1.202,0.129 4.453,0.765 5.041,0.937 1.464,0.437 2.147,0.161 2.547,0.233 0.745,0.152 0.876,0.47 0.885,0.975 0.016,0.959 -0.719,1.041 -0.719,1.041 z"
     id="path303" />
  <path
     style="fill:#231f20;fill-opacity:1;fill-rule:nonzero;stroke:none"
     d="m 292.4368,118.515 c -0.187,1.282 -2.115,0.626 -2.645,0.531 -0.536,-0.093 -2.088,-0.192 -3.307,-0.115 -1.224,0.079 -2.781,-0.344 -5.105,-0.197 -1.219,0.077 -2.452,-0.62 -2.49,-2.396 -0.036,-1.751 0.938,-2.437 2.428,-2.307 1.49,0.13 2.834,0.886 4.328,1.119 1.495,0.235 3.036,0.333 4.255,0.355 1.38,0.026 2.052,0.552 2.235,0.994 0.448,1.11 0.301,2.016 0.301,2.016"
     id="path304" />
  <path
     style="fill:none;stroke:#231f20;stroke-width:0.565977;stroke-linecap:butt;stroke-linejoin:miter;stroke-miterlimit:4;stroke-dasharray:none;stroke-opacity:1"
     d="m 292.4368,118.515 c -0.187,1.282 -2.115,0.626 -2.645,0.531 -0.536,-0.093 -2.088,-0.192 -3.307,-0.115 -1.224,0.079 -2.781,-0.344 -5.105,-0.197 -1.219,0.077 -2.452,-0.62 -2.49,-2.396 -0.036,-1.751 0.938,-2.437 2.428,-2.307 1.49,0.13 2.834,0.886 4.328,1.119 1.495,0.235 3.036,0.333 4.255,0.355 1.38,0.026 2.052,0.552 2.235,0.994 0.448,1.11 0.301,2.016 0.301,2.016 z"
     id="path305" />
  <path
     style="fill:#231f20;fill-opacity:1;fill-rule:nonzero;stroke:none"
     d="m 308.4368,119.155 c -0.692,0.219 -3.937,0.084 -4.681,0.027 -0.662,-0.052 -1.787,0.219 -2.199,-0.865 -0.161,-0.438 -0.099,-1.187 0.011,-1.49 0.088,-0.244 0.406,-0.322 0.797,-0.254 0.661,0.12 0.801,0.405 2.047,0.702 0,0 0.281,0.115 0.781,0.35 1.473,0.697 0.755,0.53 3.12,1.057 0.167,0.041 0.249,0.235 0.213,0.349 -0.052,0.171 -0.089,0.124 -0.089,0.124"
     id="path306" />
  <path
     style="fill:none;stroke:#231f20;stroke-width:0.565977;stroke-linecap:round;stroke-linejoin:round;stroke-miterlimit:4;stroke-dasharray:none;stroke-opacity:1"
     d="m 308.4368,119.155 c -0.692,0.219 -3.937,0.084 -4.681,0.027 -0.662,-0.052 -1.787,0.219 -2.199,-0.865 -0.161,-0.438 -0.099,-1.187 0.011,-1.49 0.088,-0.244 0.406,-0.322 0.797,-0.254 0.661,0.12 0.801,0.405 2.047,0.702 0,0 0.281,0.115 0.781,0.35 1.473,0.697 0.755,0.53 3.12,1.057 0.167,0.041 0.249,0.235 0.213,0.349 -0.052,0.171 -0.089,0.124 -0.089,0.124 z"
     id="path307" />
  <path
     style="fill:#231f20;fill-opacity:1;fill-rule:nonzero;stroke:none"
     d="m 268.1718,54.734 c -0.724,-0.036 -3.834,0.922 -4.531,1.172 -0.631,0.219 -1.787,0.25 -1.901,1.402 -0.047,0.462 0.202,1.17 0.39,1.437 0.14,0.213 0.474,0.203 0.834,0.036 0.604,-0.281 0.672,-0.593 1.797,-1.197 0,0 0.244,-0.183 0.661,-0.543 1.244,-1.052 0.604,-0.703 2.75,-1.823 0.15,-0.077 0.182,-0.292 0.12,-0.39 -0.099,-0.146 -0.12,-0.094 -0.12,-0.094"
     id="path308" />
  <path
     style="fill:none;stroke:#231f20;stroke-width:0.565977;stroke-linecap:round;stroke-linejoin:round;stroke-miterlimit:4;stroke-dasharray:none;stroke-opacity:1"
     d="m 268.1718,54.734 c -0.724,-0.036 -3.834,0.922 -4.531,1.172 -0.631,0.219 -1.787,0.25 -1.901,1.402 -0.047,0.462 0.202,1.17 0.39,1.437 0.14,0.213 0.474,0.203 0.834,0.036 0.604,-0.281 0.672,-0.593 1.797,-1.197 0,0 0.244,-0.183 0.661,-0.543 1.244,-1.052 0.604,-0.703 2.75,-1.823 0.15,-0.077 0.182,-0.292 0.12,-0.39 -0.099,-0.146 -0.12,-0.094 -0.12,-0.094 z"
     id="path309" />
  <path
     style="fill:#ffffff;fill-opacity:1;fill-rule:nonzero;stroke:none"
     d="m 286.1458,108.661 c 0.067,-0.235 1.219,-0.214 1.266,-0.735 0.046,-0.525 -0.694,-0.791 -1.38,-2.661 l -0.006,-0.02 c -0.453,-1.38 -1.401,-2.396 -2.636,-2.61 -2.046,-0.354 -4.098,1.615 -4.577,4.396 -0.485,2.78 0.776,5.323 2.823,5.676 1.958,0.344 3.926,-1.448 4.51,-4.046"
     id="path310" />
  <path
     style="fill:none;stroke:#231f20;stroke-width:0.565977;stroke-linecap:butt;stroke-linejoin:miter;stroke-miterlimit:4;stroke-dasharray:none;stroke-opacity:1"
     d="m 286.1458,108.661 c 0.067,-0.235 1.219,-0.214 1.266,-0.735 0.046,-0.525 -0.694,-0.791 -1.38,-2.661 l -0.006,-0.02 c -0.453,-1.38 -1.401,-2.396 -2.636,-2.61 -2.046,-0.354 -4.098,1.615 -4.577,4.396 -0.485,2.78 0.776,5.323 2.823,5.676 1.958,0.344 3.926,-1.448 4.51,-4.046 z"
     id="path311" />
  <path
     style="fill:#231f20;fill-opacity:1;fill-rule:nonzero;stroke:none"
     d="m 291.2088,150.693 c 3.755,-1.412 0.76,-4.188 0.593,-4.631 -1.734,-4.703 -1.98,-4.995 -3.557,-8.479 -2.276,-5.037 -4.609,-8.136 -7.923,-7.666 -2.254,0.317 -3.41,1.473 -3.718,2.754 -0.343,1.418 0.422,4.506 3.157,5.418 l 1.099,1.317 c 0.62,0.984 0.937,1.463 1.208,1.968 0.469,0.891 1.032,1.808 2.041,3.48 1.792,2.973 4.667,5.531 4.667,5.531 0.666,1.046 2.433,0.308 2.433,0.308"
     id="path312" />
  <path
     style="fill:none;stroke:#231f20;stroke-width:0.565977;stroke-linecap:butt;stroke-linejoin:miter;stroke-miterlimit:4;stroke-dasharray:none;stroke-opacity:1"
     d="m 291.2088,150.693 c 3.755,-1.412 0.76,-4.188 0.593,-4.631 -1.734,-4.703 -1.98,-4.995 -3.557,-8.479 -2.276,-5.037 -4.609,-8.136 -7.923,-7.666 -2.254,0.317 -3.41,1.473 -3.718,2.754 -0.343,1.418 0.422,4.506 3.157,5.418 l 1.099,1.317 c 0.62,0.984 0.937,1.463 1.208,1.968 0.469,0.891 1.032,1.808 2.041,3.48 1.792,2.973 4.667,5.531 4.667,5.531 0.666,1.046 2.433,0.308 2.433,0.308 z"
     id="path313" />
  <path
     style="fill:#ca0369;fill-opacity:1;fill-rule:nonzero;stroke:none"
     d="m 285.8018,133.114 c -0.021,-0.079 -0.036,-0.156 -0.052,-0.224 -0.104,-0.801 -0.641,-1.131 -1.541,-1.636 -1.163,-1.036 -2.428,-1.547 -3.887,-1.337 -2.254,0.317 -3.41,1.473 -3.718,2.754 -0.343,1.418 0.417,4.506 3.157,5.418 l 7.031,-3.412 c -0.323,-0.574 -0.651,-1.084 -0.99,-1.563"
     id="path314" />
  <path
     style="fill:none;stroke:#231f20;stroke-width:0.565977;stroke-linecap:butt;stroke-linejoin:miter;stroke-miterlimit:4;stroke-dasharray:none;stroke-opacity:1"
     d="m 285.8018,133.114 c -0.021,-0.079 -0.036,-0.156 -0.052,-0.224 -0.104,-0.801 -0.641,-1.131 -1.541,-1.636 -1.163,-1.036 -2.428,-1.547 -3.887,-1.337 -2.254,0.317 -3.41,1.473 -3.718,2.754 -0.343,1.418 0.417,4.506 3.157,5.418 l 7.031,-3.412 c -0.323,-0.574 -0.651,-1.084 -0.99,-1.563 z"
     id="path315" />
  <path
     style="fill:#231f20;fill-opacity:1;fill-rule:nonzero;stroke:none"
     d="m 331.0618,168.983 c -1.077,-0.057 -0.817,-1.281 -0.583,-2.484 0.063,-0.306 0.094,-0.593 0.176,-0.885 0.339,-1.177 1.158,-1.833 3.111,0.437 0.072,0.084 1.911,1.271 2.479,1.516 2.744,1.172 2.968,0.364 2.744,1.172 -0.151,0.536 -0.656,0.547 -1.286,0.542 -0.854,0 -3.865,-0.276 -4.328,-0.287 -0.453,-0.016 -2.313,-0.011 -2.313,-0.011"
     id="path316" />
  <path
     style="fill:none;stroke:#231f20;stroke-width:0.565977;stroke-linecap:butt;stroke-linejoin:miter;stroke-miterlimit:4;stroke-dasharray:none;stroke-opacity:1"
     d="m 331.0618,168.983 c -1.077,-0.057 -0.817,-1.281 -0.583,-2.484 0.063,-0.306 0.094,-0.593 0.176,-0.885 0.339,-1.177 1.158,-1.833 3.111,0.437 0.072,0.084 1.911,1.271 2.479,1.516 2.744,1.172 2.968,0.364 2.744,1.172 -0.151,0.536 -0.656,0.547 -1.286,0.542 -0.854,0 -3.865,-0.276 -4.328,-0.287 -0.453,-0.016 -2.313,-0.011 -2.313,-0.011 z"
     id="path317" />
  <path
     style="fill:#231f20;fill-opacity:1;fill-rule:nonzero;stroke:none"
     d="m 332.6708,149.182 c -2.234,-0.396 -2.718,-0.172 -2.953,0.76 -0.151,0.615 -0.505,1.141 -0.615,1.511 -0.374,1.245 -0.484,3.484 0.86,9.932 0.302,1.464 0.719,3.516 0.823,4.37 0.161,1.343 2.287,0.162 2.229,-0.365 -0.182,-1.703 -0.177,-2.891 -0.156,-3.516 0.011,-0.427 -0.068,-1.181 0.187,-2.828 0.396,-2.495 1,-3.932 1.089,-6.047 0.036,-0.978 0.687,-1.692 0.24,-2.677 -0.448,-0.989 -1.704,-1.14 -1.704,-1.14"
     id="path319" />
  <path
     style="fill:none;stroke:#231f20;stroke-width:0.565977;stroke-linecap:butt;stroke-linejoin:miter;stroke-miterlimit:4;stroke-dasharray:none;stroke-opacity:1"
     d="m 332.6708,149.182 c -2.234,-0.396 -2.718,-0.172 -2.953,0.76 -0.151,0.615 -0.505,1.141 -0.615,1.511 -0.374,1.245 -0.484,3.484 0.86,9.932 0.302,1.464 0.719,3.516 0.823,4.37 0.161,1.343 2.287,0.162 2.229,-0.365 -0.182,-1.703 -0.177,-2.891 -0.156,-3.516 0.011,-0.427 -0.068,-1.181 0.187,-2.828 0.396,-2.495 1,-3.932 1.089,-6.047 0.036,-0.978 0.687,-1.692 0.24,-2.677 -0.448,-0.989 -1.704,-1.14 -1.704,-1.14 z"
     id="path320" />
  <path
     style="fill:#ca0369;fill-opacity:1;fill-rule:nonzero;stroke:none"
     d="m 330.7128,123.265 c -0.067,3.13 -0.427,3.797 -0.807,4.63 -2.385,5.266 0.245,6.339 3.088,5.88 3.349,-0.536 4.563,-0.661 4.1,-6.937 -0.125,-1.745 0.255,-8.511 0.255,-8.511 0.469,-2.401 -0.364,-4.994 -1.552,-5.838 -1.246,-0.891 -0.818,-0.443 -2.126,-1.058 -1.244,-0.588 -3.421,-0.38 -4.129,0.636 -0.683,0.974 0.004,2.495 0.703,4.812 0.557,1.834 0.468,6.386 0.468,6.386"
     id="path321" />
  <path
     style="fill:none;stroke:#231f20;stroke-width:0.565977;stroke-linecap:butt;stroke-linejoin:miter;stroke-miterlimit:4;stroke-dasharray:none;stroke-opacity:1"
     d="m 330.7128,123.265 c -0.067,3.13 -0.427,3.797 -0.807,4.63 -2.385,5.266 0.245,6.339 3.088,5.88 3.349,-0.536 4.563,-0.661 4.1,-6.937 -0.125,-1.745 0.255,-8.511 0.255,-8.511 0.469,-2.401 -0.364,-4.994 -1.552,-5.838 -1.246,-0.891 -0.818,-0.443 -2.126,-1.058 -1.244,-0.588 -3.421,-0.38 -4.129,0.636 -0.683,0.974 0.004,2.495 0.703,4.812 0.557,1.834 0.468,6.386 0.468,6.386 z"
     id="path322" />
  <path
     style="fill:#ffffff;fill-opacity:1;fill-rule:nonzero;stroke:none"
     d="m 336.0888,105.474 c 0.046,-0.24 1.192,-0.324 1.192,-0.844 0,-0.527 -0.76,-0.729 -1.61,-2.527 l -0.005,-0.02 c -0.577,-1.338 -1.615,-2.261 -2.864,-2.365 -2.068,-0.172 -3.937,1.975 -4.167,4.787 -0.234,2.812 1.255,5.234 3.323,5.406 1.984,0.162 3.776,-1.797 4.131,-4.437"
     id="path323" />
  <path
     style="fill:none;stroke:#231f20;stroke-width:0.565977;stroke-linecap:butt;stroke-linejoin:miter;stroke-miterlimit:4;stroke-dasharray:none;stroke-opacity:1"
     d="m 336.0888,105.474 c 0.046,-0.24 1.192,-0.324 1.192,-0.844 0,-0.527 -0.76,-0.729 -1.61,-2.527 l -0.005,-0.02 c -0.577,-1.338 -1.615,-2.261 -2.864,-2.365 -2.068,-0.172 -3.937,1.975 -4.167,4.787 -0.234,2.812 1.255,5.234 3.323,5.406 1.984,0.162 3.776,-1.797 4.131,-4.437 z"
     id="path324" />
  <path
     style="fill:#231f20;fill-opacity:1;fill-rule:nonzero;stroke:none"
     d="m 331.6868,151.453 c 3.875,1.036 3.058,-2.959 3.183,-3.422 1.317,-4.833 1.291,-5.214 2.036,-8.964 1.079,-5.422 0.984,-9.297 -1.984,-10.849 -2.021,-1.047 -3.636,-0.781 -4.631,0.079 -1.104,0.957 -2.276,3.91 -0.578,6.244 l 0.125,1.709 c -0.068,1.161 -0.088,1.739 -0.167,2.307 -0.129,0.994 -0.208,2.068 -0.364,4.021 -0.27,3.457 0.583,7.208 0.583,7.208 -0.068,1.24 1.797,1.667 1.797,1.667"
     id="path325" />
  <path
     style="fill:none;stroke:#231f20;stroke-width:0.565977;stroke-linecap:butt;stroke-linejoin:miter;stroke-miterlimit:4;stroke-dasharray:none;stroke-opacity:1"
     d="m 331.6868,151.453 c 3.875,1.036 3.058,-2.959 3.183,-3.422 1.317,-4.833 1.291,-5.214 2.036,-8.964 1.079,-5.422 0.984,-9.297 -1.984,-10.849 -2.021,-1.047 -3.636,-0.781 -4.631,0.079 -1.104,0.957 -2.276,3.91 -0.578,6.244 l 0.125,1.709 c -0.068,1.161 -0.088,1.739 -0.167,2.307 -0.129,0.994 -0.208,2.068 -0.364,4.021 -0.27,3.457 0.583,7.208 0.583,7.208 -0.068,1.24 1.797,1.667 1.797,1.667 z"
     id="path326" />
  <path
     style="fill:#ca0369;fill-opacity:1;fill-rule:nonzero;stroke:none"
     d="m 337.2968,131.567 c -0.339,-1.521 -1.068,-2.666 -2.375,-3.349 -2.021,-1.047 -3.636,-0.781 -4.631,0.079 -1.104,0.957 -2.276,3.91 -0.578,6.244 l 7.698,1.318 c 0.074,-0.657 0.099,-1.266 0.11,-1.849 0.025,-0.079 0.052,-0.151 0.088,-0.213 0.376,-0.714 0.136,-1.292 -0.312,-2.23"
     id="path327" />
  <path
     style="fill:none;stroke:#231f20;stroke-width:0.565977;stroke-linecap:butt;stroke-linejoin:miter;stroke-miterlimit:4;stroke-dasharray:none;stroke-opacity:1"
     d="m 337.2968,131.567 c -0.339,-1.521 -1.068,-2.666 -2.375,-3.349 -2.021,-1.047 -3.636,-0.781 -4.631,0.079 -1.104,0.957 -2.276,3.91 -0.578,6.244 l 7.698,1.318 c 0.074,-0.657 0.099,-1.266 0.11,-1.849 0.025,-0.079 0.052,-0.151 0.088,-0.213 0.376,-0.714 0.136,-1.292 -0.312,-2.23 z"
     id="path328" />
  <path
     style="fill:#231f20;fill-opacity:1;fill-rule:nonzero;stroke:none"
     d="m 333.1708,93.713 c 0.386,0.516 0.23,2.459 0.724,3.989 0.334,1.032 0.042,3.761 0.454,4.761 0.369,0.922 0.458,1.38 -0.522,1.99 -0.577,0.358 -1.926,0.682 -2.218,0.26 -0.678,-0.979 -0.864,-1.906 -0.854,-2.979 0.006,-1.213 0.328,-4.505 0.443,-5.109 0.291,-1.495 -0.047,-2.151 -0.005,-2.552 0.068,-0.761 0.38,-0.917 0.88,-0.98 0.948,-0.109 1.098,0.62 1.098,0.62"
     id="path329" />
  <path
     style="fill:none;stroke:#231f20;stroke-width:0.565977;stroke-linecap:butt;stroke-linejoin:miter;stroke-miterlimit:4;stroke-dasharray:none;stroke-opacity:1"
     d="m 333.1708,93.713 c 0.386,0.516 0.23,2.459 0.724,3.989 0.334,1.032 0.042,3.761 0.454,4.761 0.369,0.922 0.458,1.38 -0.522,1.99 -0.577,0.358 -1.926,0.682 -2.218,0.26 -0.678,-0.979 -0.864,-1.906 -0.854,-2.979 0.006,-1.213 0.328,-4.505 0.443,-5.109 0.291,-1.495 -0.047,-2.151 -0.005,-2.552 0.068,-0.761 0.38,-0.917 0.88,-0.98 0.948,-0.109 1.098,0.62 1.098,0.62 z"
     id="path330" />
  <path
     style="fill:#231f20;fill-opacity:1;fill-rule:nonzero;stroke:none"
     d="m 333.7338,102.75 c 1.297,0.061 0.828,2.047 0.787,2.583 -0.042,0.546 0.01,2.098 0.202,3.308 0.199,1.208 -0.072,2.801 0.292,5.098 0.198,1.208 -0.374,2.506 -2.14,2.708 -1.745,0.203 -2.516,-0.697 -2.532,-2.193 -0.016,-1.499 0.604,-2.911 0.694,-4.421 0.093,-1.506 0.046,-3.052 -0.048,-4.26 -0.11,-1.38 0.349,-2.104 0.772,-2.323 1.057,-0.552 1.973,-0.5 1.973,-0.5"
     id="path331" />
  <path
     style="fill:none;stroke:#231f20;stroke-width:0.565977;stroke-linecap:butt;stroke-linejoin:miter;stroke-miterlimit:4;stroke-dasharray:none;stroke-opacity:1"
     d="m 333.7338,102.75 c 1.297,0.061 0.828,2.047 0.787,2.583 -0.042,0.546 0.01,2.098 0.202,3.308 0.199,1.208 -0.072,2.801 0.292,5.098 0.198,1.208 -0.374,2.506 -2.14,2.708 -1.745,0.203 -2.516,-0.697 -2.532,-2.193 -0.016,-1.499 0.604,-2.911 0.694,-4.421 0.093,-1.506 0.046,-3.052 -0.048,-4.26 -0.11,-1.38 0.349,-2.104 0.772,-2.323 1.057,-0.552 1.973,-0.5 1.973,-0.5 z"
     id="path332" />
  <path
     style="fill:#231f20;fill-opacity:1;fill-rule:nonzero;stroke:none"
     d="m 332.8328,86.765 c 0.286,0.667 0.469,3.912 0.48,4.657 0.009,0.667 0.385,1.76 -0.652,2.271 -0.416,0.203 -1.172,0.213 -1.484,0.135 -0.25,-0.063 -0.359,-0.375 -0.328,-0.771 0.057,-0.667 0.328,-0.839 0.505,-2.099 0,0 0.083,-0.297 0.271,-0.813 0.552,-1.531 0.453,-0.807 0.754,-3.208 0.022,-0.172 0.21,-0.271 0.324,-0.249 0.172,0.041 0.13,0.077 0.13,0.077"
     id="path333" />
  <path
     style="fill:none;stroke:#231f20;stroke-width:0.565977;stroke-linecap:round;stroke-linejoin:round;stroke-miterlimit:4;stroke-dasharray:none;stroke-opacity:1"
     d="m 332.8328,86.765 c 0.286,0.667 0.469,3.912 0.48,4.657 0.009,0.667 0.385,1.76 -0.652,2.271 -0.416,0.203 -1.172,0.213 -1.484,0.135 -0.25,-0.063 -0.359,-0.375 -0.328,-0.771 0.057,-0.667 0.328,-0.839 0.505,-2.099 0,0 0.083,-0.297 0.271,-0.813 0.552,-1.531 0.453,-0.807 0.754,-3.208 0.022,-0.172 0.21,-0.271 0.324,-0.249 0.172,0.041 0.13,0.077 0.13,0.077 z"
     id="path334" />
</svg>
