<?xml version="1.0" encoding="UTF-8" standalone="no"?>
<!-- Created with Inkscape (http://www.inkscape.org/) -->

<svg
   version="1.1"
   id="svg1"
   width="20.254"
   height="26.170855"
   viewBox="0 0 20.253999 26.170854"
   sodipodi:docname="cell.svg"
   xmlns:inkscape="http://www.inkscape.org/namespaces/inkscape"
   xmlns:sodipodi="http://sodipodi.sourceforge.net/DTD/sodipodi-0.dtd"
   xmlns="http://www.w3.org/2000/svg"
   xmlns:svg="http://www.w3.org/2000/svg">
  <sodipodi:namedview
     id="namedview1"
     pagecolor="#ffffff"
     bordercolor="#000000"
     borderopacity="0.25"
     inkscape:showpageshadow="2"
     inkscape:pageopacity="0.0"
     inkscape:pagecheckerboard="0"
     inkscape:deskcolor="#d1d1d1">
    <inkscape:page
       x="8.0000355e-08"
       y="1.9797167e-06"
       inkscape:label="1"
       id="page1"
       width="20.254"
       height="26.170855"
       margin="0"
       bleed="0" />
  </sodipodi:namedview>
  <defs
     id="defs1" />
  <path
     style="fill:none;stroke:#231f20;stroke-width:1.33171;stroke-linecap:round;stroke-linejoin:miter;stroke-miterlimit:4;stroke-dasharray:none;stroke-opacity:1"
     d="M 18.364,0.66585786 V 19.384858"
     id="path902" />
  <path
     style="fill:#231f20;fill-opacity:1;fill-rule:nonzero;stroke:none"
     d="m 18.301,26.170858 c 1.079,0 1.953,-0.876 1.953,-1.953 0,-1.079 -0.874,-1.953 -1.953,-1.953 -1.077,0 -1.953,0.874 -1.953,1.953 0,1.077 0.876,1.953 1.953,1.953"
     id="path903" />
  <path
     style="fill:#231f20;fill-opacity:1;fill-rule:nonzero;stroke:none"
     d="m 1.8169999,21.868858 c 0,0.756 -0.328,1.161 -0.91200001,1.161 -0.577,0 -0.90500000024092,-0.405 -0.90500000024092,-1.161 V 5.7748579 c 0,-0.505 0.40000000024092,-0.885 0.90500000024092,-0.912 H 7.3059999 c 0.584,0 0.964,0.38 0.964,0.839 0,0.453 -0.38,0.833 -0.964,0.833 h -5.489 v 6.5270001 h 4.859 c 0.584,0 0.964,0.38 0.964,0.839 0,0.452 -0.38,0.833 -0.964,0.833 h -4.859 z"
     id="path904" />
</svg>
