<?xml version="1.0" encoding="UTF-8" standalone="no"?>
<!-- Created with Inkscape (http://www.inkscape.org/) -->

<svg
   version="1.1"
   id="svg1"
   width="44.56641"
   height="25.831709"
   viewBox="0 0 44.566408 25.831708"
   sodipodi:docname="cell.svg"
   xmlns:inkscape="http://www.inkscape.org/namespaces/inkscape"
   xmlns:sodipodi="http://sodipodi.sourceforge.net/DTD/sodipodi-0.dtd"
   xmlns="http://www.w3.org/2000/svg"
   xmlns:svg="http://www.w3.org/2000/svg">
  <sodipodi:namedview
     id="namedview1"
     pagecolor="#ffffff"
     bordercolor="#000000"
     borderopacity="0.25"
     inkscape:showpageshadow="2"
     inkscape:pageopacity="0.0"
     inkscape:pagecheckerboard="0"
     inkscape:deskcolor="#d1d1d1">
    <inkscape:page
       x="0"
       y="0"
       inkscape:label="1"
       id="page1"
       width="44.566406"
       height="25.831709"
       margin="0"
       bleed="0" />
  </sodipodi:namedview>
  <defs
     id="defs1" />
  <path
     style="fill:none;stroke:#231f20;stroke-width:1.33171;stroke-linecap:round;stroke-linejoin:round;stroke-miterlimit:4;stroke-dasharray:none;stroke-opacity:1"
     d="m 16.681955,9.2498578 c 4.6667,0.457 6.9375,0.457 8.5306,0.301 1.6615,-0.167 3.4282,-1.135 4.1308,-2.192 0.8224,-1.224 0.9744,-3.437 -0.2761,-4.292 -2.3385,-1.583 -6.9322,0.74 -5.8801,5.079 1.6307,6.6970002 10.4478,5.2650002 10.4478,5.2650002"
     id="path1240" />
  <path
     style="fill:none;stroke:#231f20;stroke-width:1.33171;stroke-linecap:round;stroke-linejoin:miter;stroke-miterlimit:4;stroke-dasharray:none;stroke-opacity:1"
     d="M 19.488655,6.7698578 H 0.66585505"
     id="path1241" />
  <path
     style="fill:none;stroke:#231f20;stroke-width:1.33171;stroke-linecap:round;stroke-linejoin:miter;stroke-miterlimit:4;stroke-dasharray:none;stroke-opacity:1"
     d="M 4.941855,13.249858 V 0.6658578"
     id="path1242" />
  <path
     style="fill:none;stroke:#231f20;stroke-width:1.33171;stroke-linecap:round;stroke-linejoin:round;stroke-miterlimit:4;stroke-dasharray:none;stroke-opacity:1"
     d="m 34.124555,1.7068578 5.2812,8.9960002 4.4948,-8.7970002"
     id="path1243" />
  <path
     style="fill:#231f20;fill-opacity:1;fill-rule:nonzero;stroke:none"
     d="m 16.864755,25.170858 c 0.4948,0 0.776,-0.464 0.776,-1.093 0,-0.584 -0.2708,-1.084 -0.776,-1.084 -0.5,0 -0.7871,0.49 -0.7871,1.094 0,0.615 0.2923,1.083 0.7819,1.083 z m -0.0323,0.584 c -0.9532,0 -1.5198,-0.724 -1.5198,-1.647 0,-0.968 0.624,-1.686 1.5718,-1.686 0.9896,0 1.5323,0.738 1.5323,1.629 0,1.063 -0.6359,1.704 -1.5785,1.704 z"
     id="path1244" />
  <path
     style="fill:#231f20;fill-opacity:1;fill-rule:nonzero;stroke:none"
     d="m 19.624655,22.467858 v 1.859 c 0,0.557 0.2188,0.839 0.588,0.839 0.3813,0 0.5948,-0.266 0.5948,-0.839 v -1.859 h 0.7292 v 1.812 c 0,0.995 -0.5052,1.475 -1.3495,1.475 -0.812,0 -1.2865,-0.459 -1.2865,-1.485 v -1.802 z"
     id="path1245" />
  <path
     style="fill:none;stroke:#231f20;stroke-width:1.33171;stroke-linecap:round;stroke-linejoin:round;stroke-miterlimit:4;stroke-dasharray:none;stroke-opacity:1"
     d="m 25.260555,20.973858 h 9.588 v 4.192"
     id="path1246" />
</svg>
