<?xml version="1.0" encoding="UTF-8" standalone="no"?>
<!-- Created with Inkscape (http://www.inkscape.org/) -->

<svg
   version="1.1"
   id="svg1"
   width="33.820377"
   height="27.36138"
   viewBox="0 0 33.820376 27.361379"
   sodipodi:docname="cell.svg"
   xmlns:inkscape="http://www.inkscape.org/namespaces/inkscape"
   xmlns:sodipodi="http://sodipodi.sourceforge.net/DTD/sodipodi-0.dtd"
   xmlns="http://www.w3.org/2000/svg"
   xmlns:svg="http://www.w3.org/2000/svg">
  <sodipodi:namedview
     id="namedview1"
     pagecolor="#ffffff"
     bordercolor="#000000"
     borderopacity="0.25"
     inkscape:showpageshadow="2"
     inkscape:pageopacity="0.0"
     inkscape:pagecheckerboard="0"
     inkscape:deskcolor="#d1d1d1">
    <inkscape:page
       x="0"
       y="0"
       inkscape:label="1"
       id="page1"
       width="33.820377"
       height="27.36138"
       margin="0"
       bleed="0" />
  </sodipodi:namedview>
  <defs
     id="defs1" />
  <path
     style="fill:none;stroke:#231f20;stroke-width:1.33038;stroke-linecap:round;stroke-linejoin:round;stroke-miterlimit:4;stroke-dasharray:none;stroke-opacity:1"
     d="M 0.66519029,0.66519045 V 26.52919"
     id="path757" />
  <path
     style="fill:none;stroke:#231f20;stroke-width:1.33038;stroke-linecap:round;stroke-linejoin:round;stroke-miterlimit:4;stroke-dasharray:none;stroke-opacity:1"
     d="m 7.8111903,17.22219 c 0,1.964 -1.588,3.547 -3.547,3.547 -1.959,0 -3.55200001,-1.583 -3.55200001,-3.547 0,-1.964 1.59300001,-3.546 3.55200001,-3.546 1.959,0 3.547,1.582 3.547,3.546 z"
     id="path758" />
  <path
     style="fill:none;stroke:#231f20;stroke-width:1.33038;stroke-linecap:round;stroke-linejoin:round;stroke-miterlimit:4;stroke-dasharray:none;stroke-opacity:1"
     d="m 33.15519,26.42019 -15.312,-13.192 v 13.468"
     id="path759" />
  <path
     style="fill:none;stroke:#231f20;stroke-width:1.33038;stroke-linecap:round;stroke-linejoin:round;stroke-miterlimit:4;stroke-dasharray:none;stroke-opacity:1"
     d="m 21.18119,9.7011904 c 0,1.9589996 -1.589,3.5469996 -3.546,3.5469996 -1.959,0 -3.548,-1.588 -3.548,-3.5469996 0,-1.963 1.589,-3.552 3.548,-3.552 1.957,0 3.546,1.589 3.546,3.552 z"
     id="path760" />
</svg>
