<?xml version="1.0" encoding="UTF-8" standalone="no"?>
<!-- Created with Inkscape (http://www.inkscape.org/) -->

<svg
   version="1.1"
   id="svg1"
   width="30.126701"
   height="29.358709"
   viewBox="0 0 30.1267 29.358709"
   sodipodi:docname="cell.svg"
   xmlns:inkscape="http://www.inkscape.org/namespaces/inkscape"
   xmlns:sodipodi="http://sodipodi.sourceforge.net/DTD/sodipodi-0.dtd"
   xmlns="http://www.w3.org/2000/svg"
   xmlns:svg="http://www.w3.org/2000/svg">
  <sodipodi:namedview
     id="namedview1"
     pagecolor="#ffffff"
     bordercolor="#000000"
     borderopacity="0.25"
     inkscape:showpageshadow="2"
     inkscape:pageopacity="0.0"
     inkscape:pagecheckerboard="0"
     inkscape:deskcolor="#d1d1d1">
    <inkscape:page
       x="7.8648313e-08"
       y="2.5184828e-08"
       inkscape:label="1"
       id="page1"
       width="30.126699"
       height="29.358709"
       margin="0"
       bleed="0" />
  </sodipodi:namedview>
  <defs
     id="defs1" />
  <path
     style="fill:none;stroke:#231f20;stroke-width:1.33171;stroke-linecap:round;stroke-linejoin:round;stroke-miterlimit:4;stroke-dasharray:none;stroke-opacity:1"
     d="m 0.66585505,14.348855 c 5.68639985,0.484 8.44779985,0.459 10.38529995,0.24 2.0198,-0.224 4.1557,-1.428 5.0053,-2.724 0.9785,-1.495 1.1291,-4.1990004 -0.4011,-5.2150004 -2.8709,-1.905 -8.4375001,0.996 -7.0896001,6.2560004 2.0839001,8.131 12.7921001,6.271 12.7921001,6.271"
     id="path912" />
  <path
     style="fill:none;stroke:#231f20;stroke-width:1.33171;stroke-linecap:round;stroke-linejoin:round;stroke-miterlimit:4;stroke-dasharray:none;stroke-opacity:1"
     d="m 19.946955,27.873855 5.7656,-2.552"
     id="path913" />
  <path
     style="fill:none;stroke:#231f20;stroke-width:1.33171;stroke-linecap:round;stroke-linejoin:round;stroke-miterlimit:4;stroke-dasharray:none;stroke-opacity:1"
     d="m 27.415255,0.66585455 c -4.4787,1.93800005 -5.9214,7.87100005 -2.8016,11.73000045 1.0256,1.281 2.8896,1.921 4.2546,1.068 1.2975,-0.818 0.2495,-2.803 -1.1041,-3.203 -1.1197,-0.3330004 -2.2505,0.025 -3.0573,0.952 -1.3744,1.589 -1.6302,3.719 -1.6504,5.495"
     id="path914" />
  <path
     style="fill:none;stroke:#231f20;stroke-width:1.33171;stroke-linecap:round;stroke-linejoin:round;stroke-miterlimit:4;stroke-dasharray:none;stroke-opacity:1"
     d="m 24.352155,12.051855 c -1.2385,1.77 -2.0301,6.021 -0.0052,9.646 0.8027,1.427 2.8907,1.916 4.2563,1.062 1.2958,-0.812 0.2437,-2.802 -1.1042,-3.203 -1.1198,-0.328 -2.2505,0.027 -3.0573,0.959 -1.376,1.588 -2.2453,4.458 -1.3599,8.177"
     id="path915" />
</svg>
