<?xml version="1.0" encoding="UTF-8" standalone="no"?>
<!-- Created with Inkscape (http://www.inkscape.org/) -->

<svg
   version="1.1"
   id="svg1"
   width="42.49831"
   height="28.419855"
   viewBox="0 0 42.498307 28.419855"
   sodipodi:docname="cell.svg"
   xmlns:inkscape="http://www.inkscape.org/namespaces/inkscape"
   xmlns:sodipodi="http://sodipodi.sourceforge.net/DTD/sodipodi-0.dtd"
   xmlns="http://www.w3.org/2000/svg"
   xmlns:svg="http://www.w3.org/2000/svg">
  <sodipodi:namedview
     id="namedview1"
     pagecolor="#ffffff"
     bordercolor="#000000"
     borderopacity="0.25"
     inkscape:showpageshadow="2"
     inkscape:pageopacity="0.0"
     inkscape:pagecheckerboard="0"
     inkscape:deskcolor="#d1d1d1">
    <inkscape:page
       x="0"
       y="0"
       inkscape:label="1"
       id="page1"
       width="42.498306"
       height="28.419855"
       margin="0"
       bleed="0" />
  </sodipodi:namedview>
  <defs
     id="defs1" />
  <path
     style="fill:#231f20;fill-opacity:1;fill-rule:nonzero;stroke:none"
     d="m 12.140255,28.419856 c 0.8745,0 1.5828,-0.702 1.5828,-1.578 0,-0.87 -0.7083,-1.583 -1.5828,-1.583 -0.8708,0 -1.5787,0.713 -1.5787,1.583 0,0.876 0.7079,1.578 1.5787,1.578"
     id="path1678" />
  <path
     style="fill:none;stroke:#231f20;stroke-width:1.33171;stroke-linecap:round;stroke-linejoin:round;stroke-miterlimit:4;stroke-dasharray:none;stroke-opacity:1"
     d="M 12.165855,0.6658559 V 23.966856"
     id="path1679" />
  <path
     style="fill:none;stroke:#231f20;stroke-width:1.33171;stroke-linecap:round;stroke-linejoin:round;stroke-miterlimit:4;stroke-dasharray:none;stroke-opacity:1"
     d="m 18.582855,17.018856 c 0,1.765 -1.428,3.199 -3.1932,3.199 -1.7656,0 -3.1973,-1.434 -3.1973,-3.199 0,-1.765 1.4317,-3.197 3.1973,-3.197 1.7652,0 3.1932,1.432 3.1932,3.197 z"
     id="path1680" />
  <path
     style="fill:#231f20;fill-opacity:1;fill-rule:nonzero;stroke:none"
     d="m 35.389655,28.419856 c 0.8693,0 1.5839,-0.702 1.5839,-1.578 0,-0.87 -0.7146,-1.583 -1.5839,-1.583 -0.8749,0 -1.5828,0.713 -1.5828,1.583 0,0.876 0.7079,1.578 1.5828,1.578"
     id="path1681" />
  <path
     style="fill:none;stroke:#231f20;stroke-width:1.33171;stroke-linecap:round;stroke-linejoin:round;stroke-miterlimit:4;stroke-dasharray:none;stroke-opacity:1"
     d="M 35.410955,0.6658559 V 23.966856"
     id="path1682" />
  <path
     style="fill:none;stroke:#231f20;stroke-width:1.33171;stroke-linecap:round;stroke-linejoin:round;stroke-miterlimit:4;stroke-dasharray:none;stroke-opacity:1"
     d="m 41.832455,17.018856 c 0,1.765 -1.4324,3.199 -3.1975,3.199 -1.7656,0 -3.1989,-1.434 -3.1989,-3.199 0,-1.765 1.4333,-3.197 3.1989,-3.197 1.7651,0 3.1975,1.432 3.1975,3.197 z"
     id="path1683" />
  <path
     style="fill:none;stroke:#231f20;stroke-width:1.33171;stroke-linecap:round;stroke-linejoin:round;stroke-miterlimit:4;stroke-dasharray:none;stroke-opacity:1"
     d="m 30.358955,14.821856 c 0,2.41 -1.9589,4.369 -4.3708,4.369 -2.4105,0 -4.3693,-1.959 -4.3693,-4.369 0,-2.412 1.9588,-4.371 4.3693,-4.371 2.4119,0 4.3708,1.959 4.3708,4.371 z"
     id="path1684" />
  <path
     style="fill:none;stroke:#231f20;stroke-width:1.33171;stroke-linecap:round;stroke-linejoin:round;stroke-miterlimit:4;stroke-dasharray:none;stroke-opacity:1"
     d="m 9.4053554,14.821856 c 0,2.41 -1.9531004,4.369 -4.3703004,4.369 -2.4109,0 -4.36919999,-1.959 -4.36919999,-4.369 0,-2.412 1.95829999,-4.371 4.36919999,-4.371 2.4172,0 4.3703004,1.959 4.3703004,4.371 z"
     id="path1685" />
  <path
     style="fill:none;stroke:#231f20;stroke-width:1.33171;stroke-linecap:round;stroke-linejoin:round;stroke-miterlimit:4;stroke-dasharray:none;stroke-opacity:1"
     d="m 25.588255,19.493856 -3.86,5.79"
     id="path1686" />
  <path
     style="fill:none;stroke:#231f20;stroke-width:1.33171;stroke-linecap:round;stroke-linejoin:round;stroke-miterlimit:4;stroke-dasharray:none;stroke-opacity:1"
     d="m 26.134955,19.493856 3.8584,5.79"
     id="path1687" />
  <path
     style="fill:#231f20;fill-opacity:1;fill-rule:nonzero;stroke:none"
     d="m 19.744355,6.1228559 c 0.4428,0 0.6975,-0.416 0.6975,-0.989 0,-0.52 -0.2443,-0.968 -0.6975,-0.968 -0.4536,0 -0.7093,0.442 -0.7093,0.984 0,0.546 0.2666,0.973 0.7036,0.973 z m -0.0323,0.521 c -0.853,0 -1.364,-0.65 -1.364,-1.478 0,-0.871 0.5572,-1.522 1.411,-1.522 0.8958,0 1.3864,0.672 1.3864,1.47 0,0.957 -0.5787,1.53 -1.4282,1.53 z"
     id="path1688" />
  <path
     style="fill:#231f20;fill-opacity:1;fill-rule:nonzero;stroke:none"
     d="m 22.228255,3.6908559 v 1.672 c 0,0.5 0.1974,0.755 0.5266,0.755 0.3479,0 0.5359,-0.239 0.5359,-0.755 v -1.672 h 0.6563 v 1.631 c 0,0.901 -0.4536,1.322 -1.2136,1.322 -0.7343,0 -1.1615,-0.406 -1.1615,-1.328 v -1.625 z"
     id="path1689" />
</svg>
