<?xml version="1.0" encoding="UTF-8" standalone="no"?>
<!-- Created with Inkscape (http://www.inkscape.org/) -->

<svg
   version="1.1"
   id="svg1"
   width="39.566998"
   height="20.823761"
   viewBox="0 0 39.566996 20.823762"
   sodipodi:docname="cell.svg"
   xmlns:inkscape="http://www.inkscape.org/namespaces/inkscape"
   xmlns:sodipodi="http://sodipodi.sourceforge.net/DTD/sodipodi-0.dtd"
   xmlns="http://www.w3.org/2000/svg"
   xmlns:svg="http://www.w3.org/2000/svg">
  <sodipodi:namedview
     id="namedview1"
     pagecolor="#ffffff"
     bordercolor="#000000"
     borderopacity="0.25"
     inkscape:showpageshadow="2"
     inkscape:pageopacity="0.0"
     inkscape:pagecheckerboard="0"
     inkscape:deskcolor="#d1d1d1">
    <inkscape:page
       x="0"
       y="0"
       inkscape:label="1"
       id="page1"
       width="39.566998"
       height="20.823763"
       margin="0"
       bleed="0" />
  </sodipodi:namedview>
  <defs
     id="defs1" />
  <path
     style="fill:none;stroke:#231f20;stroke-width:1.33171;stroke-linecap:round;stroke-linejoin:round;stroke-miterlimit:4;stroke-dasharray:none;stroke-opacity:1"
     d="m 8.3069999,20.157905 c 0,0 12.1300001,-11.8180034 7.5260001,-17.1620034 -5.516,-6.395 -13.1929999,2.402 -13.1929999,2.402"
     id="path844" />
  <path
     style="fill:#231f20;fill-opacity:1;fill-rule:nonzero;stroke:none"
     d="M 9.4981426e-8,8.4239016 C 0.71300009,6.5379016 1.3530001,3.9859016 1.3530001,2.0539016 l 1.631,2.948 3.1399998,1.218 c -1.9109998,0.262 -4.3529998,1.24 -6.123999805018573,2.204"
     id="path845" />
  <path
     style="fill:#231f20;fill-opacity:1;fill-rule:nonzero;stroke:none"
     d="m 37.547,8.6059016 c 0,-1.755 -1.151,-3.063 -2.724,-3.063 -1.828,0 -3.303,1.719 -4.522,3.063 1.251,1.204003 2.563,2.9890034 4.459,2.9890034 1.573,0 2.787,-1.375 2.787,-2.9890034 m -8.527,-1.448 c 1.636,-1.75 3.333,-3.64 5.964,-3.64 2.692,0 4.583,2.093 4.583,5.088 0,2.6820034 -2.052,5.0210034 -4.87,5.0210034 -2.374,0 -4.14,-2 -5.677,-3.615 -1.635,1.719 -3.333,3.615 -5.963,3.615 -2.693,0 -4.589,-2.099 -4.589,-5.0210034 0,-2.75 2.052,-5.088 4.844,-5.088 1.281,0 2.38,0.562 3.36,1.338 l -1.308,1.448 c -0.609,-0.453 -1.287,-0.761 -2.052,-0.761 -1.604,0 -2.823,1.412 -2.823,3.063 0,1.7180034 1.156,2.9890034 2.76,2.9890034 1.792,0 3.271,-1.6510004 4.49,-2.9890034 z"
     id="path846" />
</svg>
