<?xml version="1.0" encoding="UTF-8" standalone="no"?>
<!-- Created with Inkscape (http://www.inkscape.org/) -->

<svg
   version="1.1"
   id="svg1"
   width="41.920864"
   height="29.788311"
   viewBox="0 0 41.920863 29.788311"
   sodipodi:docname="cell.svg"
   xmlns:inkscape="http://www.inkscape.org/namespaces/inkscape"
   xmlns:sodipodi="http://sodipodi.sourceforge.net/DTD/sodipodi-0.dtd"
   xmlns="http://www.w3.org/2000/svg"
   xmlns:svg="http://www.w3.org/2000/svg">
  <sodipodi:namedview
     id="namedview1"
     pagecolor="#ffffff"
     bordercolor="#000000"
     borderopacity="0.25"
     inkscape:showpageshadow="2"
     inkscape:pageopacity="0.0"
     inkscape:pagecheckerboard="0"
     inkscape:deskcolor="#d1d1d1">
    <inkscape:page
       x="0"
       y="0"
       inkscape:label="1"
       id="page1"
       width="41.920864"
       height="29.788311"
       margin="0"
       bleed="0" />
  </sodipodi:namedview>
  <defs
     id="defs1" />
  <path
     style="fill:none;stroke:#231f20;stroke-width:1.33171;stroke-linecap:round;stroke-linejoin:round;stroke-miterlimit:4;stroke-dasharray:none;stroke-opacity:1"
     d="m 41.25501,3.2808525 c -4.64,2.853 -6.74,4.443 -8.098,5.708 -1.428,1.3170005 -2.386,3.4590005 -2.298,4.9260005 0.099,1.709 1.516,3.871 3.266,3.776 3.286,-0.166 5.906,-5.552 1.885,-8.8220005 -6.208,-5.057 -13.369,2.4530005 -13.369,2.4530005"
     id="path1279" />
  <path
     style="fill:none;stroke:#231f20;stroke-width:1.33171;stroke-linecap:round;stroke-linejoin:round;stroke-miterlimit:4;stroke-dasharray:none;stroke-opacity:1"
     d="M 5.5470098,13.660853 V 5.0568525 c 0,-2.423 1.963,-4.391 4.391,-4.391 2.4270002,0 4.3910002,1.968 4.3910002,4.391 v 8.8010005"
     id="path1280" />
  <path
     style="fill:#231f20;fill-opacity:1;fill-rule:nonzero;stroke:none"
     d="m 8.7550098,18.914853 c 0.454,0 0.714,-0.426 0.714,-1.005 0,-0.536 -0.255,-0.995 -0.714,-0.995 -0.464,0 -0.724,0.454 -0.724,1.006 0,0.563 0.266,0.994 0.719,0.994 z m -0.03,0.538 c -0.882,0 -1.402,-0.667 -1.402,-1.511 0,-0.891 0.572,-1.557 1.448,-1.557 0.911,0 1.4110002,0.682 1.4110002,1.505 0,0.973 -0.5880002,1.563 -1.4570002,1.563 z"
     id="path1281" />
  <path
     style="fill:#231f20;fill-opacity:1;fill-rule:nonzero;stroke:none"
     d="m 11.29701,16.431853 v 1.707 c 0,0.516 0.198,0.771 0.537,0.771 0.353,0 0.547,-0.244 0.547,-0.771 v -1.707 h 0.672 v 1.666 c 0,0.916 -0.464,1.355 -1.24,1.355 -0.751,0 -1.188,-0.423 -1.188,-1.366 v -1.655 z"
     id="path1282" />
  <path
     style="fill:none;stroke:#231f20;stroke-width:1.33171;stroke-linecap:round;stroke-linejoin:round;stroke-miterlimit:4;stroke-dasharray:none;stroke-opacity:1"
     d="m 20.45801,23.748853 c -3.489,-2.484 -7.52,-0.282 -9.755,1.578 -4.7860002,3.974 -9.4320002,4.583 -9.97400023,2.949 -0.542,-1.637 2.53700003,-3.642 2.53700003,-3.642"
     id="path1283" />
  <path
     style="fill:#231f20;fill-opacity:1;fill-rule:nonzero;stroke:none"
     d="m 23.73401,26.081853 c -1.948,-0.525 -4.552,-0.91 -6.473,-0.724 l 2.77,-1.91 0.902,-3.246 c 0.453,1.875 1.666,4.208 2.801,5.88"
     id="path1284" />
  <path
     style="fill:none;stroke:#231f20;stroke-width:1.33171;stroke-linecap:round;stroke-linejoin:round;stroke-miterlimit:4;stroke-dasharray:none;stroke-opacity:1"
     d="m 35.06201,23.409853 c -0.864,-0.448 -1.921,-0.109 -2.369,0.751 -0.558,1.073 -0.135,2.401 0.942,2.959 1.344,0.697 3,0.17 3.699,-1.178 0.869,-1.677 0.213,-3.751 -1.469,-4.62 -2.104,-1.088 -4.692,-0.271 -5.782,1.839 h -4.197"
     id="path1285" />
</svg>
