<?xml version="1.0" encoding="UTF-8" standalone="no"?>
<!-- Created with Inkscape (http://www.inkscape.org/) -->

<svg
   version="1.1"
   id="svg1"
   width="44.108727"
   height="32.940712"
   viewBox="0 0 44.108725 32.940712"
   sodipodi:docname="cell.svg"
   xmlns:inkscape="http://www.inkscape.org/namespaces/inkscape"
   xmlns:sodipodi="http://sodipodi.sourceforge.net/DTD/sodipodi-0.dtd"
   xmlns="http://www.w3.org/2000/svg"
   xmlns:svg="http://www.w3.org/2000/svg">
  <sodipodi:namedview
     id="namedview1"
     pagecolor="#ffffff"
     bordercolor="#000000"
     borderopacity="0.25"
     inkscape:showpageshadow="2"
     inkscape:pageopacity="0.0"
     inkscape:pagecheckerboard="0"
     inkscape:deskcolor="#d1d1d1">
    <inkscape:page
       x="0"
       y="0"
       inkscape:label="1"
       id="page1"
       width="44.108727"
       height="32.940712"
       margin="0"
       bleed="0" />
  </sodipodi:namedview>
  <defs
     id="defs1" />
  <path
     style="fill:#231f20;fill-opacity:1;fill-rule:nonzero;stroke:none"
     d="m 36.911155,27.550855 c -0.287,-1.324 0.5521,-1.865 1.577,-1.729 0.3084,0.036 0.6095,-0.246 0.9068,-0.188 0.688,0.15 1.588,1.645 0.5265,2.713 -0.0734,0.073 -0.4478,0.803 -0.8186,1.303 -0.7131,0.978 -2.624,2.588 -5.312,2.333 -1.2704,-0.12 -0.9641,-0.849 -0.4319,-0.959 1.6762,-0.338 1.76,-0.697 2.1667,-0.948 1.3855,-0.838 1.3855,-2.525 1.3855,-2.525"
     id="path226" />
  <path
     style="fill:none;stroke:#231f20;stroke-width:0.332927;stroke-linecap:butt;stroke-linejoin:miter;stroke-miterlimit:4;stroke-dasharray:none;stroke-opacity:1"
     d="m 36.911155,27.550855 c -0.287,-1.324 0.5521,-1.865 1.577,-1.729 0.3084,0.036 0.6095,-0.246 0.9068,-0.188 0.688,0.15 1.588,1.645 0.5265,2.713 -0.0734,0.073 -0.4478,0.803 -0.8186,1.303 -0.7131,0.978 -2.624,2.588 -5.312,2.333 -1.2704,-0.12 -0.9641,-0.849 -0.4319,-0.959 1.6762,-0.338 1.76,-0.697 2.1667,-0.948 1.3855,-0.838 1.3855,-2.525 1.3855,-2.525 z"
     id="path227" />
  <path
     style="fill:none;stroke:#231f20;stroke-width:1.33171;stroke-linecap:round;stroke-linejoin:round;stroke-miterlimit:4;stroke-dasharray:none;stroke-opacity:1"
     d="m 27.618955,7.8308548 c -3.8906,1.688 -5.1505,6.8440002 -2.4318,10.2040002 0.8958,1.109 2.5146,1.672 3.6974,0.927 1.1302,-0.708 0.2183,-2.438 -0.9589,-2.787 -0.9733,-0.291 -1.9572,0.021 -2.6561,0.833 -1.1975,1.38 -1.4215,3.23 -1.4428,4.776"
     id="path1748" />
  <path
     style="fill:none;stroke:#231f20;stroke-width:1.33171;stroke-linecap:round;stroke-linejoin:round;stroke-miterlimit:4;stroke-dasharray:none;stroke-opacity:1"
     d="m 24.957555,17.731855 c -1.0787,1.543 -1.7652,5.24 -0.0052,8.391 0.6973,1.24 2.5161,1.667 3.7025,0.928 1.1308,-0.715 0.2136,-2.439 -0.9625,-2.787 -0.9744,-0.292 -1.9588,0.015 -2.6572,0.828 -1.1975,1.386 -1.9521,3.88 -1.1871,7.115"
     id="path1749" />
  <path
     style="fill:none;stroke:#231f20;stroke-width:1.33171;stroke-linecap:round;stroke-linejoin:round;stroke-miterlimit:4;stroke-dasharray:none;stroke-opacity:1"
     d="m 41.665755,7.8308548 c -3.8962,1.688 -5.151,6.8440002 -2.4375,10.2040002 0.8959,1.109 2.5162,1.672 3.6974,0.927 1.1308,-0.708 0.2198,-2.438 -0.9572,-2.787 -0.9751,-0.291 -1.959,0.021 -2.6574,0.833 -1.1973,1.38 -1.4213,3.23 -1.4374,4.776"
     id="path1750" />
  <path
     style="fill:none;stroke:#231f20;stroke-width:1.33171;stroke-linecap:round;stroke-linejoin:round;stroke-miterlimit:4;stroke-dasharray:none;stroke-opacity:1"
     d="m 39.004255,17.731855 c -1.0786,1.543 -1.7707,5.24 -0.0052,8.391 0.6932,1.24 2.5104,1.667 3.6986,0.928 1.129,-0.715 0.2134,-2.439 -0.959,-2.787 -0.9744,-0.292 -1.9582,0.015 -2.6609,0.828 -1.1932,1.386 -1.9536,3.88 -1.1828,7.115"
     id="path1751" />
  <path
     style="fill:none;stroke:#231f20;stroke-width:1.33171;stroke-linecap:round;stroke-linejoin:round;stroke-miterlimit:4;stroke-dasharray:none;stroke-opacity:1"
     d="m 20.233555,32.274855 6.9161,-2.387"
     id="path1752" />
  <path
     style="fill:#231f20;fill-opacity:1;fill-rule:nonzero;stroke:none"
     d="m 17.264355,3.5598548 c 0.4536,0 0.7135,-0.426 0.7135,-1.009 0,-0.537 -0.2547,-0.996 -0.7135,-0.996 -0.4625,0 -0.724,0.453 -0.724,1.005 0,0.563 0.2667,1 0.7187,1 z m -0.0308,0.532 c -0.8797,0 -1.4011,-0.666 -1.4011,-1.51 0,-0.891 0.573,-1.558 1.448,-1.558 0.9119,0 1.4119,0.683 1.4119,1.506 0,0.978 -0.5895,1.562 -1.4588,1.562 z"
     id="path1753" />
  <path
     style="fill:#231f20;fill-opacity:1;fill-rule:nonzero;stroke:none"
     d="m 19.807055,1.0708548 v 1.708 c 0,0.516 0.1973,0.772 0.5358,0.772 0.3548,0 0.547,-0.24 0.547,-0.772 v -1.708 h 0.6718 v 1.667 c 0,0.917 -0.464,1.354 -1.2401,1.354 -0.7495,0 -1.1812,-0.422 -1.1812,-1.365 v -1.656 z"
     id="path1754" />
  <path
     style="fill:#231f20;fill-opacity:1;fill-rule:nonzero;stroke:none"
     d="m 31.530955,12.502855 c 0.452,0 0.7135,-0.427 0.7135,-1.009 0,-0.532 -0.2511,-0.991 -0.7135,-0.991 -0.4641,0 -0.724,0.448 -0.724,1.005 0,0.558 0.2708,0.995 0.7187,0.995 z m -0.0318,0.532 c -0.875,0 -1.3963,-0.661 -1.3963,-1.505 0,-0.896 0.5733,-1.5580002 1.4427,-1.5580002 0.912,0 1.412,0.6830002 1.412,1.5000002 0,0.979 -0.5839,1.563 -1.4532,1.563 z"
     id="path1755" />
  <path
     style="fill:#231f20;fill-opacity:1;fill-rule:nonzero;stroke:none"
     d="m 34.072055,10.018855 v 1.708 c 0,0.516 0.1975,0.771 0.5417,0.771 0.3495,0 0.5463,-0.244 0.5463,-0.771 v -1.708 h 0.6667 v 1.667 c 0,0.917 -0.4624,1.354 -1.2386,1.354 -0.7453,0 -1.1828,-0.422 -1.1828,-1.365 v -1.656 z"
     id="path1756" />
  <path
     style="fill:none;stroke:#231f20;stroke-width:1.33171;stroke-linecap:round;stroke-linejoin:round;stroke-miterlimit:4;stroke-dasharray:none;stroke-opacity:1"
     d="M 12.936255,0.70685481 9.9163549,6.3108548 6.7753551,0.66585481"
     id="path1757" />
  <path
     style="fill:none;stroke:#231f20;stroke-width:1.33171;stroke-linecap:round;stroke-linejoin:round;stroke-miterlimit:4;stroke-dasharray:none;stroke-opacity:1"
     d="m 20.895055,23.893855 c -5.323,-1.162 -7.8334,-1.968 -9.5307,-2.714 -1.7865001,-0.776 -3.3958001,-2.473 -3.7973999,-3.89 -0.4692,-1.651 0.1509998,-4.151 1.8384998,-4.646 3.1562001,-0.926 7.4068001,3.292 4.6922001,7.703 -4.1922001,6.823 -13.4317999,2.104 -13.4317999,2.104"
     id="path1758" />
  <path
     style="fill:none;stroke:#231f20;stroke-width:1.33171;stroke-linecap:round;stroke-linejoin:round;stroke-miterlimit:4;stroke-dasharray:none;stroke-opacity:1"
     d="m 24.217955,2.5458548 h 8.7396 v 3.957"
     id="path1759" />
</svg>
