<?xml version="1.0" encoding="UTF-8" standalone="no"?>
<!-- Created with Inkscape (http://www.inkscape.org/) -->

<svg
   version="1.1"
   id="svg1"
   width="349.26382"
   height="90.150208"
   viewBox="0 0 349.26381 90.150209"
   sodipodi:docname="cell.svg"
   xmlns:inkscape="http://www.inkscape.org/namespaces/inkscape"
   xmlns:sodipodi="http://sodipodi.sourceforge.net/DTD/sodipodi-0.dtd"
   xmlns="http://www.w3.org/2000/svg"
   xmlns:svg="http://www.w3.org/2000/svg">
  <sodipodi:namedview
     id="namedview1"
     pagecolor="#ffffff"
     bordercolor="#000000"
     borderopacity="0.25"
     inkscape:showpageshadow="2"
     inkscape:pageopacity="0.0"
     inkscape:pagecheckerboard="0"
     inkscape:deskcolor="#d1d1d1">
    <inkscape:page
       x="6.4935422e-15"
       y="2.5031565e-07"
       inkscape:label="1"
       id="page1"
       width="349.26382"
       height="90.150208"
       margin="0"
       bleed="0" />
  </sodipodi:namedview>
  <defs
     id="defs1" />
  <path
     style="fill:#231f20;fill-opacity:1;fill-rule:nonzero;stroke:none"
     d="m 79.921928,79.422042 c -0.51,-1.249 0.214,-1.926 1.25,-1.973 0.312,-0.016 0.557,-0.349 0.865,-0.344 0.703,0.032 1.848,1.344 0.989,2.579 -0.057,0.088 -0.302,0.869 -0.573,1.426 -0.536,1.084 -2.136,3.005 -4.822,3.224 -1.271,0.109 -1.099,-0.661 -0.599,-0.864 1.593,-0.625 1.609,-0.996 1.968,-1.313 1.218,-1.072 0.922,-2.735 0.922,-2.735"
     id="path203" />
  <path
     style="fill:none;stroke:#231f20;stroke-width:0.332927;stroke-linecap:butt;stroke-linejoin:miter;stroke-miterlimit:4;stroke-dasharray:none;stroke-opacity:1"
     d="m 79.921928,79.422042 c -0.51,-1.249 0.214,-1.926 1.25,-1.973 0.312,-0.016 0.557,-0.349 0.865,-0.344 0.703,0.032 1.848,1.344 0.989,2.579 -0.057,0.088 -0.302,0.869 -0.573,1.426 -0.536,1.084 -2.136,3.005 -4.822,3.224 -1.271,0.109 -1.099,-0.661 -0.599,-0.864 1.593,-0.625 1.609,-0.996 1.968,-1.313 1.218,-1.072 0.922,-2.735 0.922,-2.735 z"
     id="path204" />
  <path
     style="fill:#ffffff;fill-opacity:1;fill-rule:nonzero;stroke:none"
     d="m 90.812928,63.605042 c -1.808,-1.375 -2.339,-1.396 -2.969,-0.672 -0.422,0.485 -0.974,0.787 -1.24,1.063 -0.9,0.932 -2.026,2.89 -3.776,9.234 -0.391,1.432 -0.958,3.454 -1.26,4.26 -0.464,1.271 1.969,1.194 2.156,0.688 0.609,-1.598 1.161,-2.646 1.464,-3.193 0.202,-0.375 0.473,-1.088 1.462,-2.432 1.486,-2.041 2.683,-3.041 3.72,-4.885 0.49,-0.855 1.391,-1.188 1.438,-2.271 0.057,-1.084 -0.995,-1.792 -0.995,-1.792"
     id="path205" />
  <path
     style="fill:none;stroke:#231f20;stroke-width:0.565977;stroke-linecap:butt;stroke-linejoin:miter;stroke-miterlimit:4;stroke-dasharray:none;stroke-opacity:1"
     d="m 90.812928,63.605042 c -1.808,-1.375 -2.339,-1.396 -2.969,-0.672 -0.422,0.485 -0.974,0.787 -1.24,1.063 -0.9,0.932 -2.026,2.89 -3.776,9.234 -0.391,1.432 -0.958,3.454 -1.26,4.26 -0.464,1.271 1.969,1.194 2.156,0.688 0.609,-1.598 1.161,-2.646 1.464,-3.193 0.202,-0.375 0.473,-1.088 1.462,-2.432 1.486,-2.041 2.683,-3.041 3.72,-4.885 0.49,-0.855 1.391,-1.188 1.438,-2.271 0.057,-1.084 -0.995,-1.792 -0.995,-1.792 z"
     id="path206" />
  <path
     style="fill:#ffffff;fill-opacity:1;fill-rule:nonzero;stroke:#231f20;stroke-width:0.565977;stroke-linecap:round;stroke-linejoin:round;stroke-miterlimit:4;stroke-dasharray:none;stroke-opacity:1"
     d="m 91.040928,66.094042 c 1.407,-0.197 2.021,-2.26 2.251,-2.51 3.38,-3.703 3.53,-4.052 5.901,-7.047 3.436992,-4.333 5.123992,-7.828 3.191992,-10.563 -1.317,-1.853 -2.879992,-2.353 -4.155992,-2.041 -1.416,0.349 -3.812,2.443 -3.369,5.297 l -0.672,1.574 c -0.584,1.009 -0.866,1.504 -1.188,1.978 -0.578,0.823 -1.14,1.746 -2.162,3.407 -1.817,2.963 -2.776,6.681 -2.776,6.681 -0.156,0.267 -0.182,0.548 -0.136,0.814"
     id="path207" />
  <path
     style="fill:#231f20;fill-opacity:1;fill-rule:nonzero;stroke:none"
     d="m 98.739928,84.277042 c -1.084,-0.807 -0.814,-1.76 0.046,-2.339 0.26,-0.177 0.298,-0.588 0.563,-0.74 0.615,-0.343 2.275992,0.193 2.182992,1.688 -0.006,0.109 0.192,0.907 0.249,1.527 0.104,1.202 -0.265,3.672 -2.452992,5.254 -1.031,0.746 -1.282,0 -0.958,-0.432 1.036,-1.36 0.859,-1.682 1,-2.146 0.484,-1.547 -0.63,-2.812 -0.63,-2.812"
     id="path208" />
  <path
     style="fill:none;stroke:#231f20;stroke-width:0.332927;stroke-linecap:butt;stroke-linejoin:miter;stroke-miterlimit:4;stroke-dasharray:none;stroke-opacity:1"
     d="m 98.739928,84.277042 c -1.084,-0.807 -0.814,-1.76 0.046,-2.339 0.26,-0.177 0.298,-0.588 0.563,-0.74 0.615,-0.343 2.275992,0.193 2.182992,1.688 -0.006,0.109 0.192,0.907 0.249,1.527 0.104,1.202 -0.265,3.672 -2.452992,5.254 -1.031,0.746 -1.282,0 -0.958,-0.432 1.036,-1.36 0.859,-1.682 1,-2.146 0.484,-1.547 -0.63,-2.812 -0.63,-2.812 z"
     id="path209" />
  <path
     style="fill:#63c99d;fill-opacity:1;fill-rule:nonzero;stroke:none"
     d="m 96.707928,39.720042 c 0.136,3.13 -0.176,3.817 -0.5,4.682 -2.026,5.411 0.672,6.307 3.48,5.656 3.300992,-0.754 4.504992,-0.969 3.628992,-7.197 -0.249,-1.735 -0.317,-8.505 -0.317,-8.505 0.302,-2.434 -0.698,-4.959 -1.938,-5.724 -1.311992,-0.803 -0.854,-0.391 -2.191992,-0.912 -1.286,-0.5 -3.442,-0.151 -4.084,0.912 -0.609,1.014 0.172,2.484 1.031,4.749 0.672,1.792 0.891,6.339 0.891,6.339"
     id="path210" />
  <path
     style="fill:none;stroke:#231f20;stroke-width:0.565977;stroke-linecap:butt;stroke-linejoin:miter;stroke-miterlimit:4;stroke-dasharray:none;stroke-opacity:1"
     d="m 96.707928,39.720042 c 0.136,3.13 -0.176,3.817 -0.5,4.682 -2.026,5.411 0.672,6.307 3.48,5.656 3.300992,-0.754 4.504992,-0.969 3.628992,-7.197 -0.249,-1.735 -0.317,-8.505 -0.317,-8.505 0.302,-2.434 -0.698,-4.959 -1.938,-5.724 -1.311992,-0.803 -0.854,-0.391 -2.191992,-0.912 -1.286,-0.5 -3.442,-0.151 -4.084,0.912 -0.609,1.014 0.172,2.484 1.031,4.749 0.672,1.792 0.891,6.339 0.891,6.339 z"
     id="path211" />
  <path
     style="fill:#ffffff;fill-opacity:1;fill-rule:nonzero;stroke:none"
     d="m 101.55192,21.761042 c 0.021,-0.244 1.156,-0.448 1.098,-0.968 -0.052,-0.5267 -0.837,-0.6413 -1.864,-2.344 l -0.01,-0.016 c -0.714,-1.2707 -1.838992,-2.0827 -3.093992,-2.0573 -2.078,0.0466 -3.708,2.376 -3.65,5.1933 0.066,2.828 1.806,5.077 3.88,5.036 1.984,-0.047 3.567992,-2.183 3.639992,-4.844"
     id="path212" />
  <path
     style="fill:none;stroke:#231f20;stroke-width:0.565977;stroke-linecap:butt;stroke-linejoin:miter;stroke-miterlimit:4;stroke-dasharray:none;stroke-opacity:1"
     d="m 101.55192,21.761042 c 0.021,-0.244 1.156,-0.448 1.098,-0.968 -0.052,-0.5267 -0.837,-0.6413 -1.864,-2.344 l -0.01,-0.016 c -0.714,-1.2707 -1.838992,-2.0827 -3.093992,-2.0573 -2.078,0.0466 -3.708,2.376 -3.65,5.1933 0.066,2.828 1.806,5.077 3.88,5.036 1.984,-0.047 3.567992,-2.183 3.639992,-4.844 z"
     id="path213" />
  <path
     style="fill:#231f20;fill-opacity:1;fill-rule:nonzero;stroke:none"
     d="m 99.853928,65.100042 c -2.256,-0.235 -2.724,0.026 -2.88,0.969 -0.114,0.635 -0.433,1.172 -0.516,1.552 -0.286,1.265 -0.234,3.516 1.563,9.849 0.407,1.432 0.963,3.452 1.125,4.296 0.26,1.328 2.301992,0.005 2.202992,-0.525 -0.308,-1.683 -0.38,-2.865 -0.407,-3.489 -0.016,-0.428 -0.156,-1.172 -0.01,-2.839 0.214,-2.516 0.718,-3.991 0.652,-6.105 -0.027,-0.99 0.572,-1.739 0.046,-2.687 -0.51,-0.959 -1.775992,-1.021 -1.775992,-1.021"
     id="path214" />
  <path
     style="fill:none;stroke:#231f20;stroke-width:0.565977;stroke-linecap:butt;stroke-linejoin:miter;stroke-miterlimit:4;stroke-dasharray:none;stroke-opacity:1"
     d="m 99.853928,65.100042 c -2.256,-0.235 -2.724,0.026 -2.88,0.969 -0.114,0.635 -0.433,1.172 -0.516,1.552 -0.286,1.265 -0.234,3.516 1.563,9.849 0.407,1.432 0.963,3.452 1.125,4.296 0.26,1.328 2.301992,0.005 2.202992,-0.525 -0.308,-1.683 -0.38,-2.865 -0.407,-3.489 -0.016,-0.428 -0.156,-1.172 -0.01,-2.839 0.214,-2.516 0.718,-3.991 0.652,-6.105 -0.027,-0.99 0.572,-1.739 0.046,-2.687 -0.51,-0.959 -1.775992,-1.021 -1.775992,-1.021 z"
     id="path215" />
  <path
     style="fill:#231f20;fill-opacity:1;fill-rule:nonzero;stroke:#231f20;stroke-width:0.565977;stroke-linecap:round;stroke-linejoin:round;stroke-miterlimit:4;stroke-dasharray:none;stroke-opacity:1"
     d="m 101.33792,67.116042 c 1.099,-0.896 0.558,-2.984 0.626,-3.318 0.973,-4.917 0.916,-5.297 1.396,-9.084 0.692,-5.484 0.322,-9.349 -2.751,-10.682 -2.087992,-0.906 -3.676992,-0.52 -4.614992,0.406 -1.025,1.036 -1.989,4.063 -0.129,6.276 l 0.239,1.694 c 0.026,1.166 0.042,1.738 0.01,2.306 -0.068,1.006 -0.073,2.079 -0.082,4.038 -0.022,3.473 1.088,7.15 1.088,7.15 0.005,0.312 0.13,0.563 0.308,0.766"
     id="path216" />
  <path
     style="fill:#63c99d;fill-opacity:1;fill-rule:nonzero;stroke:none"
     d="m 103.25592,47.137042 c -0.412,-1.381 -1.172,-2.412 -2.428,-3.011 -2.046992,-0.98 -3.655992,-0.661 -4.623992,0.235 -1.068,0.989 -2.147,3.984 -0.371,6.26 l 7.744992,1.057 c 0.047,-0.62 0.058,-1.193 0.047,-1.745 0.031,-0.135 0.073,-0.26 0.12,-0.359 0.385,-0.786 0.063,-1.38 -0.489,-2.437"
     id="path217" />
  <path
     style="fill:none;stroke:#231f20;stroke-width:0.565977;stroke-linecap:butt;stroke-linejoin:miter;stroke-miterlimit:4;stroke-dasharray:none;stroke-opacity:1"
     d="m 103.25592,47.137042 c -0.412,-1.381 -1.172,-2.412 -2.428,-3.011 -2.046992,-0.98 -3.655992,-0.661 -4.623992,0.235 -1.068,0.989 -2.147,3.984 -0.371,6.26 l 7.744992,1.057 c 0.047,-0.62 0.058,-1.193 0.047,-1.745 0.031,-0.135 0.073,-0.26 0.12,-0.359 0.385,-0.786 0.063,-1.38 -0.489,-2.437 z"
     id="path218" />
  <path
     style="fill:#231f20;fill-opacity:1;fill-rule:nonzero;stroke:none"
     d="m 99.348928,50.766042 c -0.423,-0.484 -0.437,-2.432 -1.057,-3.91 -0.422,-1.006 -0.36,-3.746 -0.855,-4.715 -0.453,-0.885 -0.577,-1.333 0.344,-2.02 0.547,-0.412 1.865,-0.844 2.188,-0.448 0.759992,0.916 1.030992,1.823 1.108992,2.891 0.094,1.213 0.052,4.525 -0.005,5.13 -0.167,1.515 0.229,2.14 0.224,2.547 -0.011,0.76 -0.308,0.943 -0.797,1.047 -0.942992,0.192 -1.150992,-0.522 -1.150992,-0.522"
     id="path219" />
  <path
     style="fill:none;stroke:#231f20;stroke-width:0.565977;stroke-linecap:butt;stroke-linejoin:miter;stroke-miterlimit:4;stroke-dasharray:none;stroke-opacity:1"
     d="m 99.348928,50.766042 c -0.423,-0.484 -0.437,-2.432 -1.057,-3.91 -0.422,-1.006 -0.36,-3.746 -0.855,-4.715 -0.453,-0.885 -0.577,-1.333 0.344,-2.02 0.547,-0.412 1.865,-0.844 2.188,-0.448 0.759992,0.916 1.030992,1.823 1.108992,2.891 0.094,1.213 0.052,4.525 -0.005,5.13 -0.167,1.515 0.229,2.14 0.224,2.547 -0.011,0.76 -0.308,0.943 -0.797,1.047 -0.942992,0.192 -1.150992,-0.522 -1.150992,-0.522 z"
     id="path220" />
  <path
     style="fill:#231f20;fill-opacity:1;fill-rule:nonzero;stroke:none"
     d="m 98.020928,41.804042 c -1.297,0.052 -1,-1.97 -1,-2.5 0,-0.548 -0.188,-2.095 -0.484,-3.276 -0.303,-1.194 -0.167,-2.803 -0.729,-5.058 -0.298,-1.188 0.166,-2.532 1.905,-2.885 1.724,-0.349 2.567992,0.484 2.708992,1.973 0.146,1.49 -0.354,2.948 -0.318,4.459 0.037,1.511 0.213,3.052 0.417,4.249 0.224,1.36 -0.167,2.12 -0.572992,2.375 -1.011,0.641 -1.927,0.663 -1.927,0.663"
     id="path221" />
  <path
     style="fill:none;stroke:#231f20;stroke-width:0.565977;stroke-linecap:butt;stroke-linejoin:miter;stroke-miterlimit:4;stroke-dasharray:none;stroke-opacity:1"
     d="m 98.020928,41.804042 c -1.297,0.052 -1,-1.97 -1,-2.5 0,-0.548 -0.188,-2.095 -0.484,-3.276 -0.303,-1.194 -0.167,-2.803 -0.729,-5.058 -0.298,-1.188 0.166,-2.532 1.905,-2.885 1.724,-0.349 2.567992,0.484 2.708992,1.973 0.146,1.49 -0.354,2.948 -0.318,4.459 0.037,1.511 0.213,3.052 0.417,4.249 0.224,1.36 -0.167,2.12 -0.572992,2.375 -1.011,0.641 -1.927,0.663 -1.927,0.663 z"
     id="path222" />
  <path
     style="fill:#ffffff;fill-opacity:1;fill-rule:nonzero;stroke:none"
     d="m 0.332928,52.001042 c 0,0.683 0.558,1.24 1.24,1.24 H 347.68692 c 0.687,0 1.244,-0.557 1.244,-1.24 0,-0.688 -0.557,-1.24 -1.244,-1.24 H 1.572928 c -0.682,0 -1.24,0.552 -1.24,1.24"
     id="path223" />
  <path
     style="fill:none;stroke:#231f20;stroke-width:0.665856;stroke-linecap:butt;stroke-linejoin:miter;stroke-miterlimit:4;stroke-dasharray:none;stroke-opacity:1"
     d="m 0.332928,52.001042 c 0,0.683 0.558,1.24 1.24,1.24 H 347.68692 c 0.687,0 1.244,-0.557 1.244,-1.24 0,-0.688 -0.557,-1.24 -1.244,-1.24 H 1.572928 c -0.682,0 -1.24,0.552 -1.24,1.24 z"
     id="path224" />
  <path
     style="fill:#63c99d;fill-opacity:1;fill-rule:nonzero;stroke:none"
     d="m 235.72892,34.657042 c 3.021,0.849 3.578,1.365 4.297,1.943 4.505,3.62 6.197,1.344 6.457,-1.531 0.324,-3.375 0.5,-4.579 -5.692,-5.704 -1.729,-0.307 -8.182,-2.364 -8.182,-2.364 -2.214,-1.052 -4.927,-0.896 -6.042,0.041 -1.172,0.995 -0.636,0.688 -1.552,1.798 -0.874,1.062 -1.218,3.224 -0.417,4.161 0.776,0.907 2.417,0.615 4.839,0.516 1.912,-0.079 6.292,1.14 6.292,1.14"
     id="path225" />
  <path
     style="fill:none;stroke:#231f20;stroke-width:0.565977;stroke-linecap:butt;stroke-linejoin:miter;stroke-miterlimit:4;stroke-dasharray:none;stroke-opacity:1"
     d="m 235.72892,34.657042 c 3.021,0.849 3.578,1.365 4.297,1.943 4.505,3.62 6.197,1.344 6.457,-1.531 0.324,-3.375 0.5,-4.579 -5.692,-5.704 -1.729,-0.307 -8.182,-2.364 -8.182,-2.364 -2.214,-1.052 -4.927,-0.896 -6.042,0.041 -1.172,0.995 -0.636,0.688 -1.552,1.798 -0.874,1.062 -1.218,3.224 -0.417,4.161 0.776,0.907 2.417,0.615 4.839,0.516 1.912,-0.079 6.292,1.14 6.292,1.14 z"
     id="path226" />
  <path
     style="fill:#ffffff;fill-opacity:1;fill-rule:nonzero;stroke:none"
     d="m 222.18192,22.298342 c -0.193,-0.152 0.224,-1.2187 -0.245,-1.448 -0.474,-0.2293 -0.99,0.3747 -2.974,0.364 l -0.026,-0.0053 c -1.448,-0.0627 -2.734,0.4746 -3.37,1.5573 -1.052,1.7867 0.074,4.4017 2.506,5.8277 2.448,1.434 5.27,1.131 6.322,-0.656 1.006,-1.713 0.016,-4.1864 -2.213,-5.6397"
     id="path227" />
  <path
     style="fill:none;stroke:#231f20;stroke-width:0.565977;stroke-linecap:butt;stroke-linejoin:miter;stroke-miterlimit:4;stroke-dasharray:none;stroke-opacity:1"
     d="m 222.18192,22.298342 c -0.193,-0.152 0.224,-1.2187 -0.245,-1.448 -0.474,-0.2293 -0.99,0.3747 -2.974,0.364 l -0.026,-0.0053 c -1.448,-0.0627 -2.734,0.4746 -3.37,1.5573 -1.052,1.7867 0.074,4.4017 2.506,5.8277 2.448,1.434 5.27,1.131 6.322,-0.656 1.006,-1.713 0.016,-4.1864 -2.213,-5.6397 z"
     id="path228" />
  <path
     style="fill:#231f20;fill-opacity:1;fill-rule:nonzero;stroke:none"
     d="m 225.50992,50.834042 c -0.369,-0.526 -0.177,-2.469 -0.636,-4.01 -0.312,-1.036 0.048,-3.76 -0.343,-4.771 -0.354,-0.927 -0.433,-1.385 0.563,-1.973 0.583,-0.35 1.943,-0.642 2.223,-0.215 0.652,0.996 0.824,1.928 0.786,2.996 -0.03,1.219 -0.426,4.504 -0.552,5.104 -0.328,1.484 0,2.145 -0.052,2.552 -0.082,0.755 -0.401,0.905 -0.901,0.957 -0.957,0.09 -1.088,-0.64 -1.088,-0.64"
     id="path229" />
  <path
     style="fill:none;stroke:#231f20;stroke-width:0.565977;stroke-linecap:butt;stroke-linejoin:miter;stroke-miterlimit:4;stroke-dasharray:none;stroke-opacity:1"
     d="m 225.50992,50.834042 c -0.369,-0.526 -0.177,-2.469 -0.636,-4.01 -0.312,-1.036 0.048,-3.76 -0.343,-4.771 -0.354,-0.927 -0.433,-1.385 0.563,-1.973 0.583,-0.35 1.943,-0.642 2.223,-0.215 0.652,0.996 0.824,1.928 0.786,2.996 -0.03,1.219 -0.426,4.504 -0.552,5.104 -0.328,1.484 0,2.145 -0.052,2.552 -0.082,0.755 -0.401,0.905 -0.901,0.957 -0.957,0.09 -1.088,-0.64 -1.088,-0.64 z"
     id="path230" />
  <path
     style="fill:#231f20;fill-opacity:1;fill-rule:nonzero;stroke:none"
     d="m 225.14592,41.777042 c -1.292,-0.088 -0.781,-2.063 -0.724,-2.593 0.052,-0.543 0.036,-2.099 -0.136,-3.314 -0.167,-1.213 0.141,-2.796 -0.177,-5.104 -0.172,-1.208 0.432,-2.494 2.204,-2.661 1.749,-0.167 2.5,0.756 2.478,2.256 -0.016,1.489 -0.666,2.889 -0.786,4.395 -0.131,1.505 -0.115,3.052 -0.047,4.272 0.079,1.374 -0.391,2.088 -0.828,2.296 -1.068,0.532 -1.984,0.453 -1.984,0.453"
     id="path231" />
  <path
     style="fill:none;stroke:#231f20;stroke-width:0.565977;stroke-linecap:butt;stroke-linejoin:miter;stroke-miterlimit:4;stroke-dasharray:none;stroke-opacity:1"
     d="m 225.14592,41.777042 c -1.292,-0.088 -0.781,-2.063 -0.724,-2.593 0.052,-0.543 0.036,-2.099 -0.136,-3.314 -0.167,-1.213 0.141,-2.796 -0.177,-5.104 -0.172,-1.208 0.432,-2.494 2.204,-2.661 1.749,-0.167 2.5,0.756 2.478,2.256 -0.016,1.489 -0.666,2.889 -0.786,4.395 -0.131,1.505 -0.115,3.052 -0.047,4.272 0.079,1.374 -0.391,2.088 -0.828,2.296 -1.068,0.532 -1.984,0.453 -1.984,0.453 z"
     id="path232" />
  <path
     style="fill:#231f20;fill-opacity:1;fill-rule:nonzero;stroke:none"
     d="m 260.82192,39.632042 c -0.932,2.062 -0.833,2.588 0.016,3.041 0.568,0.307 0.979,0.771 1.312,0.968 1.109,0.672 3.267,1.329 9.844,1.615 1.485,0.057 3.579,0.162 4.433,0.276 1.338,0.166 0.723,-2.187 0.192,-2.26 -1.697,-0.235 -2.844,-0.536 -3.442,-0.708 -0.412,-0.115 -1.167,-0.219 -2.698,-0.88 -2.324,-0.99 -3.568,-1.938 -5.6,-2.538 -0.942,-0.281 -1.468,-1.088 -2.53,-0.885 -1.074,0.188 -1.527,1.371 -1.527,1.371"
     id="path233" />
  <path
     style="fill:none;stroke:#231f20;stroke-width:0.565977;stroke-linecap:butt;stroke-linejoin:miter;stroke-miterlimit:4;stroke-dasharray:none;stroke-opacity:1"
     d="m 260.82192,39.632042 c -0.932,2.062 -0.833,2.588 0.016,3.041 0.568,0.307 0.979,0.771 1.312,0.968 1.109,0.672 3.267,1.329 9.844,1.615 1.485,0.057 3.579,0.162 4.433,0.276 1.338,0.166 0.723,-2.187 0.192,-2.26 -1.697,-0.235 -2.844,-0.536 -3.442,-0.708 -0.412,-0.115 -1.167,-0.219 -2.698,-0.88 -2.324,-0.99 -3.568,-1.938 -5.6,-2.538 -0.942,-0.281 -1.468,-1.088 -2.53,-0.885 -1.074,0.188 -1.527,1.371 -1.527,1.371 z"
     id="path234" />
  <path
     style="fill:#231f20;fill-opacity:1;fill-rule:nonzero;stroke:#231f20;stroke-width:0.565977;stroke-linecap:round;stroke-linejoin:round;stroke-miterlimit:4;stroke-dasharray:none;stroke-opacity:1"
     d="m 263.20292,38.850042 c -0.51,-1.322 -2.662,-1.464 -2.953,-1.636 -4.365,-2.462 -4.74,-2.53 -8.193,-4.172 -4.99,-2.38 -8.776,-3.238 -11.006,-0.738 -1.514,1.697 -1.645,3.328 -1.057,4.504 0.656,1.308 3.229,3.172 5.912,2.094 l 1.687,0.302 c 1.114,0.344 1.662,0.51 2.198,0.718 0.927,0.382 1.948,0.719 3.802,1.344 3.292,1.11 7.13,1.208 7.13,1.208 0.298,0.095 0.579,0.058 0.823,-0.052"
     id="path235" />
  <path
     style="fill:#63c99d;fill-opacity:1;fill-rule:nonzero;stroke:#231f20;stroke-width:0.565977;stroke-linecap:butt;stroke-linejoin:miter;stroke-miterlimit:4;stroke-dasharray:none;stroke-opacity:1"
     d="m 249.21792,31.829042 c -0.609,-0.249 -1.181,-0.453 -1.744,-0.625 -0.063,-0.047 -0.125,-0.094 -0.177,-0.14 -0.579,-0.568 -1.203,-0.5 -2.23,-0.334 -1.552,-0.104 -2.86,0.276 -3.88,1.339 -1.573,1.64 -1.776,3.265 -1.229,4.463 0.609,1.329 3.109,3.292 5.828,2.318 z"
     id="path236" />
  <path
     style="fill:#231f20;fill-opacity:1;fill-rule:nonzero;stroke:none"
     d="m 278.69292,46.277042 c -1.11,0.776 -1.928,0.224 -2.21,-0.776 -0.082,-0.297 -0.462,-0.469 -0.52,-0.76 -0.13,-0.699 0.896,-2.104 2.287,-1.547 0.099,0.036 0.916,0.099 1.52,0.239 1.183,0.281 3.407,1.412 4.224,3.98 0.385,1.213 -0.401,1.219 -0.708,0.776 -0.969,-1.412 -1.333,-1.349 -1.724,-1.625 -1.317,-0.948 -2.869,-0.287 -2.869,-0.287"
     id="path237" />
  <path
     style="fill:none;stroke:#231f20;stroke-width:0.332927;stroke-linecap:butt;stroke-linejoin:miter;stroke-miterlimit:4;stroke-dasharray:none;stroke-opacity:1"
     d="m 278.69292,46.277042 c -1.11,0.776 -1.928,0.224 -2.21,-0.776 -0.082,-0.297 -0.462,-0.469 -0.52,-0.76 -0.13,-0.699 0.896,-2.104 2.287,-1.547 0.099,0.036 0.916,0.099 1.52,0.239 1.183,0.281 3.407,1.412 4.224,3.98 0.385,1.213 -0.401,1.219 -0.708,0.776 -0.969,-1.412 -1.333,-1.349 -1.724,-1.625 -1.317,-0.948 -2.869,-0.287 -2.869,-0.287 z"
     id="path238" />
  <path
     style="fill:#231f20;fill-opacity:1;fill-rule:nonzero;stroke:none"
     d="m 229.37392,51.829042 c 0.167,1.167 -0.645,2.251 -1.812,2.417 -1.167,0.167 -2.245,-0.646 -2.412,-1.813 -0.167,-1.167 0.647,-2.244 1.808,-2.411 1.167,-0.166 2.249,0.64 2.416,1.807"
     id="path239" />
  <path
     style="fill:#231f20;fill-opacity:1;fill-rule:nonzero;stroke:none"
     d="m 102.79192,51.798042 c 0,1.176 -0.954,2.135 -2.131,2.135 -1.176992,0 -2.134992,-0.959 -2.134992,-2.135 0,-1.177 0.958,-2.136 2.134992,-2.136 1.177,0 2.131,0.959 2.131,2.136"
     id="path240" />
  <path
     style="fill:#ffffff;fill-opacity:1;fill-rule:nonzero;stroke:none"
     d="m 181.60392,16.870342 c 1.36,1.808 1.87,1.9747 2.677,1.448 0.536,-0.3533 1.141,-0.4893 1.48,-0.6813 1.119,-0.6627 2.733,-2.2293 6.135,-7.8653005 0.77,-1.2814 1.865,-3.0627 2.374,-3.7547 0.792,-1.1 -1.566,-1.688 -1.885,-1.2506 -1.025,1.3746 -1.844,2.2293 -2.276,2.6719 -0.301,0.308 -0.755,0.9174 -2.068,1.948 -1.984,1.5574005 -3.411,2.1974005 -4.911,3.6880005 -0.702,0.6974 -1.661,0.7707 -1.994,1.796 -0.355,1.0374 0.468,2 0.468,2"
     id="path241" />
  <path
     style="fill:none;stroke:#231f20;stroke-width:0.565977;stroke-linecap:butt;stroke-linejoin:miter;stroke-miterlimit:4;stroke-dasharray:none;stroke-opacity:1"
     d="m 181.60392,16.870342 c 1.36,1.808 1.87,1.9747 2.677,1.448 0.536,-0.3533 1.141,-0.4893 1.48,-0.6813 1.119,-0.6627 2.733,-2.2293 6.135,-7.8653005 0.77,-1.2814 1.865,-3.0627 2.374,-3.7547 0.792,-1.1 -1.566,-1.688 -1.885,-1.2506 -1.025,1.3746 -1.844,2.2293 -2.276,2.6719 -0.301,0.308 -0.755,0.9174 -2.068,1.948 -1.984,1.5574005 -3.411,2.1974005 -4.911,3.6880005 -0.702,0.6974 -1.661,0.7707 -1.994,1.796 -0.355,1.0374 0.468,2 0.468,2 z"
     id="path242" />
  <path
     style="fill:#ffffff;fill-opacity:1;fill-rule:nonzero;stroke:#231f20;stroke-width:0.565977;stroke-linecap:round;stroke-linejoin:round;stroke-miterlimit:4;stroke-dasharray:none;stroke-opacity:1"
     d="m 182.06192,14.407742 c -1.412,-0.1934 -2.562,1.6293 -2.854,1.8013 -4.26,2.652 -4.495,2.948 -7.594,5.1826 -4.484,3.2404 -7.057,6.1404 -5.937,9.2974 0.765,2.145 2.131,3.047 3.453,3.099 1.454,0.046 4.328,-1.314 4.667,-4.188 l 1.077,-1.334 c 0.834,-0.806 1.246,-1.208 1.688,-1.577 0.771,-0.631 1.563,-1.365 3,-2.6934 2.558,-2.3546 4.49,-5.6719 4.49,-5.6719 0.218,-0.2134 0.322,-0.4787 0.344,-0.744"
     id="path243" />
  <path
     style="fill:#231f20;fill-opacity:1;fill-rule:nonzero;stroke:none"
     d="m 196.01592,4.3864415 c 0.15,1.344 -0.735,1.8026 -1.74,1.5626 -0.302,-0.068 -0.635,0.188 -0.922,0.0934 -0.672,-0.2187 -1.417,-1.792 -0.26,-2.7494 0.083,-0.068 0.531,-0.756 0.943,-1.2133 0.812,-0.9013 2.869,-2.31869997 5.515,-1.80269997 1.256,0.2507 0.88,0.94269997 0.344,0.99999997 -1.703,0.172 -1.818,0.5214 -2.25,0.7294 -1.464,0.7026 -1.63,2.38 -1.63,2.38"
     id="path244" />
  <path
     style="fill:none;stroke:#231f20;stroke-width:0.332927;stroke-linecap:butt;stroke-linejoin:miter;stroke-miterlimit:4;stroke-dasharray:none;stroke-opacity:1"
     d="m 196.01592,4.3864415 c 0.15,1.344 -0.735,1.8026 -1.74,1.5626 -0.302,-0.068 -0.635,0.188 -0.922,0.0934 -0.672,-0.2187 -1.417,-1.792 -0.26,-2.7494 0.083,-0.068 0.531,-0.756 0.943,-1.2133 0.812,-0.9013 2.869,-2.31869997 5.515,-1.80269997 1.256,0.2507 0.88,0.94269997 0.344,0.99999997 -1.703,0.172 -1.818,0.5214 -2.25,0.7294 -1.464,0.7026 -1.63,2.38 -1.63,2.38 z"
     id="path245" />
  <path
     style="fill:#63c99d;fill-opacity:1;fill-rule:nonzero;stroke:none"
     d="m 161.20792,32.184042 c 3.13,-0.011 3.808,0.338 4.662,0.697 5.318,2.26 6.328,-0.396 5.796,-3.229 -0.614,-3.339 -0.77,-4.547 -7.036,-3.938 -1.745,0.172 -8.516,-0.052 -8.516,-0.052 -2.41,-0.406 -4.978,0.479 -5.801,1.688 -0.855,1.282 -0.423,0.834 -1,2.156 -0.557,1.26 -0.297,3.427 0.728,4.115 0.991,0.656 2.496,-0.068 4.797,-0.823 1.818,-0.594 6.37,-0.614 6.37,-0.614"
     id="path246" />
  <path
     style="fill:none;stroke:#231f20;stroke-width:0.565977;stroke-linecap:butt;stroke-linejoin:miter;stroke-miterlimit:4;stroke-dasharray:none;stroke-opacity:1"
     d="m 161.20792,32.184042 c 3.13,-0.011 3.808,0.338 4.662,0.697 5.318,2.26 6.328,-0.396 5.796,-3.229 -0.614,-3.339 -0.77,-4.547 -7.036,-3.938 -1.745,0.172 -8.516,-0.052 -8.516,-0.052 -2.41,-0.406 -4.978,0.479 -5.801,1.688 -0.855,1.282 -0.423,0.834 -1,2.156 -0.557,1.26 -0.297,3.427 0.728,4.115 0.991,0.656 2.496,-0.068 4.797,-0.823 1.818,-0.594 6.37,-0.614 6.37,-0.614 z"
     id="path247" />
  <path
     style="fill:#ffffff;fill-opacity:1;fill-rule:nonzero;stroke:none"
     d="m 145.90092,24.324042 c -0.193,-0.14 0.208,-1.219 -0.265,-1.4377 -0.48,-0.224 -0.986,0.3853 -2.97,0.4067 h -0.02 c -1.458,-0.0427 -2.729,0.5106 -3.349,1.604 -1.027,1.807 0.14,4.401 2.599,5.792 2.469,1.391 5.286,1.047 6.312,-0.761 0.974,-1.724 -0.052,-4.182 -2.307,-5.604"
     id="path248" />
  <path
     style="fill:none;stroke:#231f20;stroke-width:0.565977;stroke-linecap:butt;stroke-linejoin:miter;stroke-miterlimit:4;stroke-dasharray:none;stroke-opacity:1"
     d="m 145.90092,24.324042 c -0.193,-0.14 0.208,-1.219 -0.265,-1.4377 -0.48,-0.224 -0.986,0.3853 -2.97,0.4067 h -0.02 c -1.458,-0.0427 -2.729,0.5106 -3.349,1.604 -1.027,1.807 0.14,4.401 2.599,5.792 2.469,1.391 5.286,1.047 6.312,-0.761 0.974,-1.724 -0.052,-4.182 -2.307,-5.604 z"
     id="path249" />
  <path
     style="fill:#231f20;fill-opacity:1;fill-rule:nonzero;stroke:none"
     d="m 150.92192,50.793042 c -0.349,-0.537 -0.084,-2.475 -0.48,-4.027 -0.276,-1.057 0.183,-3.76 -0.166,-4.786 -0.318,-0.943 -0.375,-1.4 0.636,-1.948 0.598,-0.328 1.968,-0.567 2.229,-0.13 0.62,1.015 0.755,1.954 0.676,3.02 -0.083,1.215 -0.599,4.486 -0.749,5.079 -0.375,1.473 -0.079,2.151 -0.142,2.547 -0.118,0.756 -0.437,0.896 -0.942,0.926 -0.958,0.054 -1.062,-0.681 -1.062,-0.681"
     id="path250" />
  <path
     style="fill:none;stroke:#231f20;stroke-width:0.565977;stroke-linecap:butt;stroke-linejoin:miter;stroke-miterlimit:4;stroke-dasharray:none;stroke-opacity:1"
     d="m 150.92192,50.793042 c -0.349,-0.537 -0.084,-2.475 -0.48,-4.027 -0.276,-1.057 0.183,-3.76 -0.166,-4.786 -0.318,-0.943 -0.375,-1.4 0.636,-1.948 0.598,-0.328 1.968,-0.567 2.229,-0.13 0.62,1.015 0.755,1.954 0.676,3.02 -0.083,1.215 -0.599,4.486 -0.749,5.079 -0.375,1.473 -0.079,2.151 -0.142,2.547 -0.118,0.756 -0.437,0.896 -0.942,0.926 -0.958,0.054 -1.062,-0.681 -1.062,-0.681 z"
     id="path251" />
  <path
     style="fill:#231f20;fill-opacity:1;fill-rule:nonzero;stroke:none"
     d="m 150.90592,41.730042 c -1.292,-0.141 -0.708,-2.089 -0.63,-2.625 0.073,-0.536 0.12,-2.093 -0.011,-3.312 -0.119,-1.219 0.245,-2.792 0.016,-5.104 -0.125,-1.219 0.532,-2.48 2.303,-2.579 1.754,-0.098 2.473,0.85 2.396,2.344 -0.074,1.495 -0.782,2.87 -0.959,4.37 -0.183,1.494 -0.229,3.041 -0.204,4.261 0.027,1.38 -0.473,2.072 -0.911,2.265 -1.093,0.49 -2,0.38 -2,0.38"
     id="path252" />
  <path
     style="fill:none;stroke:#231f20;stroke-width:0.565977;stroke-linecap:butt;stroke-linejoin:miter;stroke-miterlimit:4;stroke-dasharray:none;stroke-opacity:1"
     d="m 150.90592,41.730042 c -1.292,-0.141 -0.708,-2.089 -0.63,-2.625 0.073,-0.536 0.12,-2.093 -0.011,-3.312 -0.119,-1.219 0.245,-2.792 0.016,-5.104 -0.125,-1.219 0.532,-2.48 2.303,-2.579 1.754,-0.098 2.473,0.85 2.396,2.344 -0.074,1.495 -0.782,2.87 -0.959,4.37 -0.183,1.494 -0.229,3.041 -0.204,4.261 0.027,1.38 -0.473,2.072 -0.911,2.265 -1.093,0.49 -2,0.38 -2,0.38 z"
     id="path253" />
  <path
     style="fill:#231f20;fill-opacity:1;fill-rule:nonzero;stroke:none"
     d="m 183.05692,18.547742 c 1.115,1.9693 1.599,2.1986 2.469,1.7759 0.572,-0.2759 1.198,-0.3333 1.552,-0.4839 1.198,-0.5107 2.995,-1.8654 7.094,-7.0214 0.922,-1.1666 2.24,-2.796 2.833,-3.4160005 0.927,-0.9893 -1.339,-1.8706 -1.713,-1.4853 -1.194,1.2347 -2.11,1.98 -2.599,2.3653005 -0.333,0.2654 -0.86,0.812 -2.297,1.6667 -2.167,1.292 -3.662,1.7453 -5.344,3.0307 -0.787,0.6 -1.744,0.548 -2.208,1.5266 -0.479,0.9787 0.213,2.0414 0.213,2.0414"
     id="path254" />
  <path
     style="fill:none;stroke:#231f20;stroke-width:0.565977;stroke-linecap:butt;stroke-linejoin:miter;stroke-miterlimit:4;stroke-dasharray:none;stroke-opacity:1"
     d="m 183.05692,18.547742 c 1.115,1.9693 1.599,2.1986 2.469,1.7759 0.572,-0.2759 1.198,-0.3333 1.552,-0.4839 1.198,-0.5107 2.995,-1.8654 7.094,-7.0214 0.922,-1.1666 2.24,-2.796 2.833,-3.4160005 0.927,-0.9893 -1.339,-1.8706 -1.713,-1.4853 -1.194,1.2347 -2.11,1.98 -2.599,2.3653005 -0.333,0.2654 -0.86,0.812 -2.297,1.6667 -2.167,1.292 -3.662,1.7453 -5.344,3.0307 -0.787,0.6 -1.744,0.548 -2.208,1.5266 -0.479,0.9787 0.213,2.0414 0.213,2.0414 z"
     id="path255" />
  <path
     style="fill:#231f20;fill-opacity:1;fill-rule:nonzero;stroke:#231f20;stroke-width:0.565977;stroke-linecap:round;stroke-linejoin:round;stroke-miterlimit:4;stroke-dasharray:none;stroke-opacity:1"
     d="m 183.82192,16.162342 c -1.369,-0.364 -2.749,1.292 -3.057,1.4267 -4.561,2.0787 -4.839,2.344 -8.192,4.1666 -4.865,2.6414 -7.787,5.1884 -7.079,8.4644 0.486,2.224 1.724,3.292 3.027,3.51 1.437,0.24 4.459,-0.745 5.167,-3.552 l 1.234,-1.188 c 0.938,-0.697 1.391,-1.041 1.88,-1.349 0.844,-0.525 1.719,-1.156 3.318,-2.285 2.838,-2.011 5.177,-5.0524 5.177,-5.0524 0.244,-0.1879 0.385,-0.4386 0.443,-0.6986"
     id="path256" />
  <path
     style="fill:#63c99d;fill-opacity:1;fill-rule:nonzero;stroke:#231f20;stroke-width:0.565977;stroke-linecap:butt;stroke-linejoin:miter;stroke-miterlimit:4;stroke-dasharray:none;stroke-opacity:1"
     d="m 169.91692,23.334342 c -0.563,0.344 -1.063,0.6933 -1.532,1.0467 -0.072,0.027 -0.151,0.047 -0.219,0.057 -0.796,0.142 -1.109,0.683 -1.582,1.61 -0.995,1.193 -1.459,2.48 -1.199,3.932 0.401,2.229 1.595,3.349 2.885,3.614 1.434,0.298 4.491,-0.577 5.303,-3.348 z"
     id="path257" />
  <path
     style="fill:#231f20;fill-opacity:1;fill-rule:nonzero;stroke:none"
     d="m 198.94192,8.0117415 c -0.02,1.3493 -0.958,1.6866 -1.921,1.3226 -0.292,-0.104 -0.656,0.104 -0.932,-0.0266 -0.636,-0.296 -1.172,-1.952 0.099,-2.7547 0.088,-0.0573 0.62,-0.6826 1.088,-1.088 0.922,-0.7866 3.141,-1.928 5.698,-1.0786 1.214,0.4066 0.755,1.0466 0.214,1.032 -1.708,-0.0427 -1.871,0.28 -2.323,0.4373 -1.543,0.5147 -1.923,2.156 -1.923,2.156"
     id="path258" />
  <path
     style="fill:none;stroke:#231f20;stroke-width:0.332927;stroke-linecap:butt;stroke-linejoin:miter;stroke-miterlimit:4;stroke-dasharray:none;stroke-opacity:1"
     d="m 198.94192,8.0117415 c -0.02,1.3493 -0.958,1.6866 -1.921,1.3226 -0.292,-0.104 -0.656,0.104 -0.932,-0.0266 -0.636,-0.296 -1.172,-1.952 0.099,-2.7547 0.088,-0.0573 0.62,-0.6826 1.088,-1.088 0.922,-0.7866 3.141,-1.928 5.698,-1.0786 1.214,0.4066 0.755,1.0466 0.214,1.032 -1.708,-0.0427 -1.871,0.28 -2.323,0.4373 -1.543,0.5147 -1.923,2.156 -1.923,2.156 z"
     id="path259" />
  <path
     style="fill:#231f20;fill-opacity:1;fill-rule:nonzero;stroke:none"
     d="m 154.74492,51.938042 c 0.125,1.167 -0.729,2.219 -1.896,2.339 -1.177,0.125 -2.224,-0.724 -2.349,-1.901 -0.12,-1.167 0.729,-2.219 1.906,-2.344 1.167,-0.119 2.219,0.729 2.339,1.906"
     id="path260" />
</svg>
