<?xml version="1.0" encoding="UTF-8" standalone="no"?>
<!-- Created with Inkscape (http://www.inkscape.org/) -->

<svg
   version="1.1"
   id="svg1"
   width="360.46698"
   height="141.92105"
   viewBox="0 0 360.46697 141.92105"
   sodipodi:docname="cell.svg"
   xmlns:inkscape="http://www.inkscape.org/namespaces/inkscape"
   xmlns:sodipodi="http://sodipodi.sourceforge.net/DTD/sodipodi-0.dtd"
   xmlns="http://www.w3.org/2000/svg"
   xmlns:svg="http://www.w3.org/2000/svg">
  <sodipodi:namedview
     id="namedview1"
     pagecolor="#ffffff"
     bordercolor="#000000"
     borderopacity="0.25"
     inkscape:showpageshadow="2"
     inkscape:pageopacity="0.0"
     inkscape:pagecheckerboard="0"
     inkscape:deskcolor="#d1d1d1">
    <inkscape:page
       x="0"
       y="0"
       inkscape:label="1"
       id="page1"
       width="360.46698"
       height="141.92105"
       margin="0"
       bleed="0" />
  </sodipodi:namedview>
  <defs
     id="defs1" />
  <path
     style="fill:#ffffff;fill-opacity:1;fill-rule:nonzero;stroke:none"
     d="m 166.1,18.874 h 18.875 V 0 H 166.1 Z"
     id="path942" />
  <path
     style="fill:#ffffff;fill-opacity:1;fill-rule:nonzero;stroke:none"
     d="M 0,18.874 H 18.875 V 0 H 0 Z"
     id="path943" />
  <path
     style="fill:#ffffff;fill-opacity:1;fill-rule:nonzero;stroke:none"
     d="m 343.537,18.874 h 16.93 V 0 h -16.93 z"
     id="path944" />
  <path
     style="fill:#231f20;fill-opacity:1;fill-rule:nonzero;stroke:none"
     d="m 221.767,108.718 c 0,1.183 0.952,2.136 2.129,2.136 1.177,0 2.136,-0.953 2.136,-2.136 0,-1.177 -0.959,-2.131 -2.136,-2.131 -1.177,0 -2.129,0.954 -2.129,2.131"
     id="path945" />
  <path
     style="fill:#231f20;fill-opacity:1;fill-rule:nonzero;stroke:none"
     d="m 105.907,128.573 c -0.364,0.484 -0.76,1.172 -0.916,1.724 l -0.229,-0.986 -0.808,-0.609 c 0.573,0.084 1.36,0 1.953,-0.129"
     id="path947" />
  <path
     style="fill:#63c99d;fill-opacity:1;fill-rule:nonzero;stroke:none"
     d="m 109.276,94.021 c 1.491,2.749 2.115,3.181 2.839,3.76 4.521,3.593 2.677,5.75 -0.067,6.636 -3.22,1.057 -4.36,1.494 -6.818,-4.292 -0.687,-1.62 -4.12,-7.459 -4.12,-7.459 -1.51,-1.926 -1.963,-4.609 -1.291,-5.906 0.713,-1.359 0.531,-0.771 1.411,-1.911 0.844,-1.089 2.876,-1.901 3.969,-1.317 1.052,0.552 1.135,2.218 1.568,4.598 0.348,1.886 2.509,5.891 2.509,5.891"
     id="path948" />
  <path
     style="fill:none;stroke:#231f20;stroke-width:0.565977;stroke-linecap:butt;stroke-linejoin:miter;stroke-miterlimit:4;stroke-dasharray:none;stroke-opacity:1"
     d="m 109.276,94.021 c 1.491,2.749 2.115,3.181 2.839,3.76 4.521,3.593 2.677,5.75 -0.067,6.636 -3.22,1.057 -4.36,1.494 -6.818,-4.292 -0.687,-1.62 -4.12,-7.459 -4.12,-7.459 -1.51,-1.926 -1.963,-4.609 -1.291,-5.906 0.713,-1.359 0.531,-0.771 1.411,-1.911 0.844,-1.089 2.876,-1.901 3.969,-1.317 1.052,0.552 1.135,2.218 1.568,4.598 0.348,1.886 2.509,5.891 2.509,5.891 z"
     id="path949" />
  <path
     style="fill:#ffffff;fill-opacity:1;fill-rule:nonzero;stroke:none"
     d="m 97.382,79.104 c -0.1,-0.219 -1.235,-0.031 -1.36,-0.542 -0.126,-0.51 0.573,-0.88 0.973,-2.828 L 97,75.708 c 0.246,-1.432 1.038,-2.578 2.224,-2.968 1.98,-0.656 4.292,0.994 5.183,3.672 0.885,2.686 0,5.385 -1.968,6.041 -1.887,0.625 -4.1,-0.86 -5.057,-3.349"
     id="path950" />
  <path
     style="fill:none;stroke:#231f20;stroke-width:0.565977;stroke-linecap:butt;stroke-linejoin:miter;stroke-miterlimit:4;stroke-dasharray:none;stroke-opacity:1"
     d="m 97.382,79.104 c -0.1,-0.219 -1.235,-0.031 -1.36,-0.542 -0.126,-0.51 0.573,-0.88 0.973,-2.828 L 97,75.708 c 0.246,-1.432 1.038,-2.578 2.224,-2.968 1.98,-0.656 4.292,0.994 5.183,3.672 0.885,2.686 0,5.385 -1.968,6.041 -1.887,0.625 -4.1,-0.86 -5.057,-3.349 z"
     id="path951" />
  <path
     style="fill:#231f20;fill-opacity:1;fill-rule:nonzero;stroke:none"
     d="m 116.735,118.775 c 2.027,-1.005 2.557,-0.921 3.037,-0.088 0.323,0.558 0.807,0.948 1.015,1.276 0.708,1.088 1.437,3.224 1.948,9.782 0.109,1.484 0.287,3.572 0.432,4.426 0.209,1.334 -2.161,0.798 -2.255,0.266 -0.292,-1.687 -0.636,-2.823 -0.822,-3.411 -0.131,-0.412 -0.262,-1.161 -0.98,-2.672 -1.067,-2.287 -2.052,-3.495 -2.724,-5.505 -0.312,-0.932 -1.135,-1.432 -0.974,-2.5 0.151,-1.079 1.323,-1.574 1.323,-1.574"
     id="path952" />
  <path
     style="fill:none;stroke:#231f20;stroke-width:0.565977;stroke-linecap:butt;stroke-linejoin:miter;stroke-miterlimit:4;stroke-dasharray:none;stroke-opacity:1"
     d="m 116.735,118.775 c 2.027,-1.005 2.557,-0.921 3.037,-0.088 0.323,0.558 0.807,0.948 1.015,1.276 0.708,1.088 1.437,3.224 1.948,9.782 0.109,1.484 0.287,3.572 0.432,4.426 0.209,1.334 -2.161,0.798 -2.255,0.266 -0.292,-1.687 -0.636,-2.823 -0.822,-3.411 -0.131,-0.412 -0.262,-1.161 -0.98,-2.672 -1.067,-2.287 -2.052,-3.495 -2.724,-5.505 -0.312,-0.932 -1.135,-1.432 -0.974,-2.5 0.151,-1.079 1.323,-1.574 1.323,-1.574 z"
     id="path953" />
  <path
     style="fill:#231f20;fill-opacity:1;fill-rule:nonzero;stroke:#231f20;stroke-width:0.565977;stroke-linecap:round;stroke-linejoin:round;stroke-miterlimit:4;stroke-dasharray:none;stroke-opacity:1"
     d="m 116.032,121.182 c -1.338,-0.464 -1.552,-2.609 -1.74,-2.896 -2.609,-4.276 -2.688,-4.651 -4.448,-8.041 -2.552,-4.907 -3.541,-8.658 -1.12,-10.975 1.647,-1.572 3.271,-1.76 4.47,-1.213 1.322,0.609 3.276,3.12 2.297,5.838 l 0.359,1.672 c 0.38,1.104 0.562,1.646 0.797,2.178 0.405,0.905 0.781,1.916 1.468,3.749 1.224,3.256 1.453,7.089 1.453,7.089 0.104,0.291 0.079,0.572 -0.02,0.823"
     id="path954" />
  <path
     style="fill:#63c99d;fill-opacity:1;fill-rule:nonzero;stroke:none"
     d="m 112.918,98.032 c -1.219,-0.506 -2.839,-0.246 -4.423,1.38 -1.025,1.057 -1.359,2.379 -1.203,3.931 -0.13,1.026 -0.177,1.651 0.407,2.208 0.052,0.052 0.104,0.115 0.151,0.178 0.193,0.557 0.412,1.12 0.682,1.718 l 6.902,-3.672 c 0.874,-2.754 -1.172,-5.187 -2.516,-5.743"
     id="path955" />
  <path
     style="fill:none;stroke:#231f20;stroke-width:0.565977;stroke-linecap:butt;stroke-linejoin:miter;stroke-miterlimit:4;stroke-dasharray:none;stroke-opacity:1"
     d="m 112.918,98.032 c -1.219,-0.506 -2.839,-0.246 -4.423,1.38 -1.025,1.057 -1.359,2.379 -1.203,3.931 -0.13,1.026 -0.177,1.651 0.407,2.208 0.052,0.052 0.104,0.115 0.151,0.178 0.193,0.557 0.412,1.12 0.682,1.718 l 6.902,-3.672 c 0.874,-2.754 -1.172,-5.187 -2.516,-5.743 z"
     id="path956" />
  <path
     style="fill:#231f20;fill-opacity:1;fill-rule:nonzero;stroke:none"
     d="m 123.991,136.406 c 0.739,-1.131 0.151,-1.932 -0.855,-2.177 -0.302,-0.074 -0.484,-0.454 -0.776,-0.5 -0.698,-0.104 -2.073,0.969 -1.469,2.344 0.043,0.093 0.131,0.905 0.292,1.51 0.323,1.167 1.527,3.354 4.12,4.088 1.229,0.339 1.208,-0.448 0.754,-0.745 -1.442,-0.916 -1.395,-1.276 -1.681,-1.661 -0.99,-1.287 -0.385,-2.859 -0.385,-2.859"
     id="path957" />
  <path
     style="fill:none;stroke:#231f20;stroke-width:0.332927;stroke-linecap:butt;stroke-linejoin:miter;stroke-miterlimit:4;stroke-dasharray:none;stroke-opacity:1"
     d="m 123.991,136.406 c 0.739,-1.131 0.151,-1.932 -0.855,-2.177 -0.302,-0.074 -0.484,-0.454 -0.776,-0.5 -0.698,-0.104 -2.073,0.969 -1.469,2.344 0.043,0.093 0.131,0.905 0.292,1.51 0.323,1.167 1.527,3.354 4.12,4.088 1.229,0.339 1.208,-0.448 0.754,-0.745 -1.442,-0.916 -1.395,-1.276 -1.681,-1.661 -0.99,-1.287 -0.385,-2.859 -0.385,-2.859 z"
     id="path958" />
  <path
     style="fill:#231f20;fill-opacity:1;fill-rule:nonzero;stroke:none"
     d="m 144.715,108.718 c 0,1.183 0.952,2.136 2.134,2.136 1.178,0 2.131,-0.953 2.131,-2.136 0,-1.177 -0.953,-2.131 -2.131,-2.131 -1.182,0 -2.134,0.954 -2.134,2.131"
     id="path959" />
  <path
     style="fill:#231f20;fill-opacity:1;fill-rule:nonzero;stroke:none"
     d="m 148.157,107.442 c 0.447,-0.459 0.562,-2.407 1.255,-3.855 0.473,-0.978 0.547,-3.722 1.093,-4.661 0.495,-0.858 0.642,-1.301 -0.244,-2.036 -0.526,-0.437 -1.822,-0.937 -2.166,-0.557 -0.798,0.875 -1.115,1.771 -1.251,2.828 -0.156,1.208 -0.281,4.516 -0.249,5.125 0.088,1.521 -0.339,2.125 -0.355,2.531 -0.031,0.761 0.255,0.958 0.74,1.089 0.932,0.239 1.177,-0.464 1.177,-0.464"
     id="path960" />
  <path
     style="fill:none;stroke:#231f20;stroke-width:0.565977;stroke-linecap:butt;stroke-linejoin:miter;stroke-miterlimit:4;stroke-dasharray:none;stroke-opacity:1"
     d="m 148.157,107.442 c 0.447,-0.459 0.562,-2.407 1.255,-3.855 0.473,-0.978 0.547,-3.722 1.093,-4.661 0.495,-0.858 0.642,-1.301 -0.244,-2.036 -0.526,-0.437 -1.822,-0.937 -2.166,-0.557 -0.798,0.875 -1.115,1.771 -1.251,2.828 -0.156,1.208 -0.281,4.516 -0.249,5.125 0.088,1.521 -0.339,2.125 -0.355,2.531 -0.031,0.761 0.255,0.958 0.74,1.089 0.932,0.239 1.177,-0.464 1.177,-0.464 z"
     id="path961" />
  <path
     style="fill:#231f20;fill-opacity:1;fill-rule:nonzero;stroke:none"
     d="m 149.937,98.562 c 1.292,0.115 1.095,-1.917 1.126,-2.453 0.032,-0.547 0.292,-2.077 0.656,-3.244 0.354,-1.177 0.302,-2.787 0.98,-5.016 0.353,-1.172 -0.042,-2.532 -1.762,-2.975 -1.702,-0.437 -2.588,0.35 -2.801,1.834 -0.224,1.48 0.203,2.964 0.088,4.469 -0.109,1.505 -0.369,3.031 -0.629,4.219 -0.292,1.354 0.062,2.13 0.453,2.401 0.973,0.697 1.889,0.765 1.889,0.765"
     id="path962" />
  <path
     style="fill:none;stroke:#231f20;stroke-width:0.565977;stroke-linecap:butt;stroke-linejoin:miter;stroke-miterlimit:4;stroke-dasharray:none;stroke-opacity:1"
     d="m 149.937,98.562 c 1.292,0.115 1.095,-1.917 1.126,-2.453 0.032,-0.547 0.292,-2.077 0.656,-3.244 0.354,-1.177 0.302,-2.787 0.98,-5.016 0.353,-1.172 -0.042,-2.532 -1.762,-2.975 -1.702,-0.437 -2.588,0.35 -2.801,1.834 -0.224,1.48 0.203,2.964 0.088,4.469 -0.109,1.505 -0.369,3.031 -0.629,4.219 -0.292,1.354 0.062,2.13 0.453,2.401 0.973,0.697 1.889,0.765 1.889,0.765 z"
     id="path963" />
  <path
     style="fill:#ffffff;fill-opacity:1;fill-rule:nonzero;stroke:none"
     d="m 11.194,108.666 c 0,0.688 0.552,1.24 1.24,1.24 h 338.113 c 0.69,0 1.24,-0.552 1.24,-1.24 0,-0.688 -0.55,-1.24 -1.24,-1.24 H 12.434 c -0.688,0 -1.24,0.552 -1.24,1.24"
     id="path964" />
  <path
     style="fill:none;stroke:#231f20;stroke-width:0.665856;stroke-linecap:butt;stroke-linejoin:miter;stroke-miterlimit:4;stroke-dasharray:none;stroke-opacity:1"
     d="m 11.194,108.666 c 0,0.688 0.552,1.24 1.24,1.24 h 338.113 c 0.69,0 1.24,-0.552 1.24,-1.24 0,-0.688 -0.55,-1.24 -1.24,-1.24 H 12.434 c -0.688,0 -1.24,0.552 -1.24,1.24 z"
     id="path965" />
  <path
     style="fill:#231f20;fill-opacity:1;fill-rule:nonzero;stroke:#231f20;stroke-width:0.565977;stroke-linecap:round;stroke-linejoin:round;stroke-miterlimit:4;stroke-dasharray:none;stroke-opacity:1"
     d="m 220.36,82.474 c 0,0 -0.651,-1.146 -0.688,-2.308 -0.031,-1.166 0.453,-2.432 0.453,-2.432 l 3.292,-0.146 0.219,4.781 z"
     id="path966" />
  <path
     style="fill:#231f20;fill-opacity:1;fill-rule:nonzero;stroke:none"
     d="m 234.495,76.24 c -1.14,-3.418 0.526,-3.631 3.964,-5.834 3.75,-2.417 7.922,-4.526 11.166,-5.094 3.631,-0.64 3.719,-1.151 4.912,0.349 1.187,1.511 0.583,2.011 0.255,3.256 -0.38,1.443 -7.557,3.072 -11.459,5.781 -1.828,1.271 -5.385,5.5 -6.468,4.531 -1.084,-0.969 -2.37,-2.989 -2.37,-2.989"
     id="path967" />
  <path
     style="fill:none;stroke:#231f20;stroke-width:0.565977;stroke-linecap:butt;stroke-linejoin:miter;stroke-miterlimit:4;stroke-dasharray:none;stroke-opacity:1"
     d="m 234.495,76.24 c -1.14,-3.418 0.526,-3.631 3.964,-5.834 3.75,-2.417 7.922,-4.526 11.166,-5.094 3.631,-0.64 3.719,-1.151 4.912,0.349 1.187,1.511 0.583,2.011 0.255,3.256 -0.38,1.443 -7.557,3.072 -11.459,5.781 -1.828,1.271 -5.385,5.5 -6.468,4.531 -1.084,-0.969 -2.37,-2.989 -2.37,-2.989 z"
     id="path968" />
  <path
     style="fill:#231f20;fill-opacity:1;fill-rule:nonzero;stroke:none"
     d="m 253.229,67.505 c -1.186,-1.927 -1.562,-2.469 0.751,-3.432 0.588,-0.251 2.276,-0.813 2.577,-1.047 1.022,-0.808 2.271,-1.657 8.76,-2.786 1.01,-0.172 2.86,-0.839 4.22,-1.194 1.31,-0.348 1,2.068 0.48,2.208 -1.65,0.454 -2.61,1.111 -3.18,1.36 -0.39,0.162 -1.18,0.355 -2.5,1.37 -3.4,2.594 -5.14,2.136 -5.898,2.614 -2.178,1.38 -3.756,3.016 -4.292,2.615 -0.876,-0.635 -0.918,-1.708 -0.918,-1.708"
     id="path969" />
  <path
     style="fill:none;stroke:#231f20;stroke-width:0.565977;stroke-linecap:butt;stroke-linejoin:miter;stroke-miterlimit:4;stroke-dasharray:none;stroke-opacity:1"
     d="m 253.229,67.505 c -1.186,-1.927 -1.562,-2.469 0.751,-3.432 0.588,-0.251 2.276,-0.813 2.577,-1.047 1.022,-0.808 2.271,-1.657 8.76,-2.786 1.01,-0.172 2.86,-0.839 4.22,-1.194 1.31,-0.348 1,2.068 0.48,2.208 -1.65,0.454 -2.61,1.111 -3.18,1.36 -0.39,0.162 -1.18,0.355 -2.5,1.37 -3.4,2.594 -5.14,2.136 -5.898,2.614 -2.178,1.38 -3.756,3.016 -4.292,2.615 -0.876,-0.635 -0.918,-1.708 -0.918,-1.708 z"
     id="path970" />
  <path
     style="fill:#231f20;fill-opacity:1;fill-rule:nonzero;stroke:none"
     d="m 237.521,81.688 c 2.12,2.916 3.266,1.677 7.047,0.161 4.136,-1.667 8.276,-3.849 10.62,-6.167 2.625,-2.589 3.104,-2.365 2.557,-4.198 -0.541,-1.843 -1.292,-1.646 -2.505,-2.104 -1.396,-0.515 -6.88,4.385 -11.349,6 -2.094,0.761 -7.604,1.208 -7.443,2.652 0.167,1.442 1.073,3.656 1.073,3.656"
     id="path971" />
  <path
     style="fill:none;stroke:#231f20;stroke-width:0.565977;stroke-linecap:butt;stroke-linejoin:miter;stroke-miterlimit:4;stroke-dasharray:none;stroke-opacity:1"
     d="m 237.521,81.688 c 2.12,2.916 3.266,1.677 7.047,0.161 4.136,-1.667 8.276,-3.849 10.62,-6.167 2.625,-2.589 3.104,-2.365 2.557,-4.198 -0.541,-1.843 -1.292,-1.646 -2.505,-2.104 -1.396,-0.515 -6.88,4.385 -11.349,6 -2.094,0.761 -7.604,1.208 -7.443,2.652 0.167,1.442 1.073,3.656 1.073,3.656 z"
     id="path972" />
  <path
     style="fill:#231f20;fill-opacity:1;fill-rule:nonzero;stroke:none"
     d="m 255.485,71.505 c 0.896,2.079 1.124,2.697 3.244,1.36 0.538,-0.344 1.958,-1.401 2.338,-1.511 1.25,-0.37 2.66,-0.906 7.3,-5.568 0.73,-0.724 2.34,-1.865 3.41,-2.77 1.04,-0.871 -1.12,-2.006 -1.53,-1.667 -1.32,1.093 -2.41,1.5 -2.94,1.828 -0.36,0.229 -0.97,0.765 -2.56,1.26 -4.08,1.287 -4.7,2.98 -5.52,3.323 -2.388,0.99 -4.632,1.344 -4.618,2.01 0.027,1.084 0.876,1.735 0.876,1.735"
     id="path973" />
  <path
     style="fill:none;stroke:#231f20;stroke-width:0.565977;stroke-linecap:butt;stroke-linejoin:miter;stroke-miterlimit:4;stroke-dasharray:none;stroke-opacity:1"
     d="m 255.485,71.505 c 0.896,2.079 1.124,2.697 3.244,1.36 0.538,-0.344 1.958,-1.401 2.338,-1.511 1.25,-0.37 2.66,-0.906 7.3,-5.568 0.73,-0.724 2.34,-1.865 3.41,-2.77 1.04,-0.871 -1.12,-2.006 -1.53,-1.667 -1.32,1.093 -2.41,1.5 -2.94,1.828 -0.36,0.229 -0.97,0.765 -2.56,1.26 -4.08,1.287 -4.7,2.98 -5.52,3.323 -2.388,0.99 -4.632,1.344 -4.618,2.01 0.027,1.084 0.876,1.735 0.876,1.735 z"
     id="path974" />
  <path
     style="fill:#231f20;fill-opacity:1;fill-rule:nonzero;stroke:none"
     d="m 275.147,62.026 c -0.39,0.536 -2.14,0.104 -3.89,1.015 -0.36,0.183 -0.74,0.161 -1.11,0.204 -1.5,0.172 -2.94,-0.505 -0.11,-3.073 0.4,-0.355 2.4,-1 2.93,-1.563 1.28,-1.364 4.61,-1.323 4.72,-0.823 0.26,1.094 -2.54,4.24 -2.54,4.24"
     id="path975" />
  <path
     style="fill:none;stroke:#231f20;stroke-width:0.644548;stroke-linecap:round;stroke-linejoin:round;stroke-miterlimit:4;stroke-dasharray:none;stroke-opacity:1"
     d="m 275.147,62.026 c -0.39,0.536 -2.14,0.104 -3.89,1.015 -0.36,0.183 -0.74,0.161 -1.11,0.204 -1.5,0.172 -2.94,-0.505 -0.11,-3.073 0.4,-0.355 2.4,-1 2.93,-1.563 1.28,-1.364 4.61,-1.323 4.72,-0.823 0.26,1.094 -2.54,4.24 -2.54,4.24 z"
     id="path976" />
  <path
     style="fill:#231f20;fill-opacity:1;fill-rule:nonzero;stroke:none"
     d="m 272.377,56.536 c -0.66,-0.02 -1.38,1.636 -3.17,2.469 -0.36,0.177 -0.57,0.484 -0.83,0.751 -1.05,1.093 -1.39,2.65 2.37,1.957 0.52,-0.093 2.25,-1.291 3.02,-1.375 1.86,-0.177 3.85,-2.849 3.52,-3.245 -0.71,-0.864 -4.91,-0.557 -4.91,-0.557"
     id="path977" />
  <path
     style="fill:none;stroke:#231f20;stroke-width:0.644548;stroke-linecap:round;stroke-linejoin:round;stroke-miterlimit:4;stroke-dasharray:none;stroke-opacity:1"
     d="m 272.377,56.536 c -0.66,-0.02 -1.38,1.636 -3.17,2.469 -0.36,0.177 -0.57,0.484 -0.83,0.751 -1.05,1.093 -1.39,2.65 2.37,1.957 0.52,-0.093 2.25,-1.291 3.02,-1.375 1.86,-0.177 3.85,-2.849 3.52,-3.245 -0.71,-0.864 -4.91,-0.557 -4.91,-0.557 z"
     id="path978" />
  <path
     style="fill:#63c99d;fill-opacity:1;fill-rule:nonzero;stroke:none"
     d="m 245.037,77.084 c -0.062,-0.496 -0.573,-1.038 -0.573,-1.038 0,0 -7.364,1.62 -9.203,-0.89 l -0.062,-0.354 c 0.738,-1.005 0.322,-0.266 -0.412,-0.188 -5.443,0.964 -8.187,-1.114 -9.422,-1.62 -1.698,-0.692 -2.526,-3.182 -4.265,-1.89 0,0 -1.756,0.844 -1.043,3.557 0.262,0.984 -0.172,3.271 -0.172,3.271 0.038,-0.015 0.079,-0.026 0.12,-0.031 1.24,-0.161 2.084,0.812 2.271,2.135 l -0.005,-0.078 c 0.146,1.334 -0.484,2.49 -1.667,2.64 -0.041,0.006 -0.077,0.006 -0.124,0 0,0 0.989,2.104 0.995,3.12 0,1.724 0.792,0.866 0.792,0.866 2.004,0.812 3.296,0.509 4.76,-0.59 1.073,-0.801 2.114,-0.462 5.333,-0.937 0.74,-0.109 6.577,-1.349 5.604,-2.136 l -0.027,-0.359 c 1.147,-2.89 6.808,-4.333 6.808,-4.333 0,0 0.355,-0.656 0.292,-1.145"
     id="path979" />
  <path
     style="fill:none;stroke:#231f20;stroke-width:0.565977;stroke-linecap:round;stroke-linejoin:round;stroke-miterlimit:4;stroke-dasharray:none;stroke-opacity:1"
     d="m 245.037,77.084 c -0.062,-0.496 -0.573,-1.038 -0.573,-1.038 0,0 -7.364,1.62 -9.203,-0.89 l -0.062,-0.354 c 0.738,-1.005 0.322,-0.266 -0.412,-0.188 -5.443,0.964 -8.187,-1.114 -9.422,-1.62 -1.698,-0.692 -2.526,-3.182 -4.265,-1.89 0,0 -1.756,0.844 -1.043,3.557 0.262,0.984 -0.172,3.271 -0.172,3.271 0.038,-0.015 0.079,-0.026 0.12,-0.031 1.24,-0.161 2.084,0.812 2.271,2.135 l -0.005,-0.078 c 0.146,1.334 -0.484,2.49 -1.667,2.64 -0.041,0.006 -0.077,0.006 -0.124,0 0,0 0.989,2.104 0.995,3.12 0,1.724 0.792,0.866 0.792,0.866 2.004,0.812 3.296,0.509 4.76,-0.59 1.073,-0.801 2.114,-0.462 5.333,-0.937 0.74,-0.109 6.577,-1.349 5.604,-2.136 l -0.027,-0.359 c 1.147,-2.89 6.808,-4.333 6.808,-4.333 0,0 0.355,-0.656 0.292,-1.145 z"
     id="path980" />
  <path
     style="fill:#63c99d;fill-opacity:1;fill-rule:nonzero;stroke:none"
     d="m 238,83.505 c 0.349,0.052 1.719,0.063 2.183,0.016 2.948,-0.328 6.396,-2.245 7.625,-2.589 1.229,-0.348 -1.907,-6.146 -1.907,-6.146 l -1.896,0.468 c 0.172,-0.598 -0.457,-0.88 -0.457,-0.88 l 1.531,-1.317 c 0,0 -2.798,-5.828 -3.61,-5.229 -1.125,0.822 -5.177,3.062 -6.745,4.948 -0.853,1.036 -1.088,2.032 -1.088,2.032 0,0 2.661,2.718 3.333,3.978 0.662,1.26 1.031,4.719 1.031,4.719"
     id="path981" />
  <path
     style="fill:none;stroke:#231f20;stroke-width:0.565977;stroke-linecap:butt;stroke-linejoin:miter;stroke-miterlimit:4;stroke-dasharray:none;stroke-opacity:1"
     d="m 238,83.505 c 0.349,0.052 1.719,0.063 2.183,0.016 2.948,-0.328 6.396,-2.245 7.625,-2.589 1.229,-0.348 -1.907,-6.146 -1.907,-6.146 l -1.896,0.468 c 0.172,-0.598 -0.457,-0.88 -0.457,-0.88 l 1.531,-1.317 c 0,0 -2.798,-5.828 -3.61,-5.229 -1.125,0.822 -5.177,3.062 -6.745,4.948 -0.853,1.036 -1.088,2.032 -1.088,2.032 0,0 2.661,2.718 3.333,3.978 0.662,1.26 1.031,4.719 1.031,4.719 z"
     id="path982" />
  <path
     style="fill:#231f20;fill-opacity:1;fill-rule:nonzero;stroke:none"
     d="m 224.912,107.041 c 0.349,-0.542 0.073,-2.474 0.464,-4.026 0.265,-1.052 -0.199,-3.765 0.151,-4.786 0.312,-0.943 0.369,-1.407 -0.646,-1.948 -0.6,-0.323 -1.958,-0.563 -2.229,-0.12 -0.615,1.027 -0.745,1.953 -0.672,3.021 0.088,1.208 0.62,4.479 0.776,5.077 0.38,1.475 0.083,2.142 0.151,2.548 0.125,0.744 0.432,0.891 0.942,0.922 0.959,0.041 1.063,-0.688 1.063,-0.688"
     id="path983" />
  <path
     style="fill:none;stroke:#231f20;stroke-width:0.565977;stroke-linecap:butt;stroke-linejoin:miter;stroke-miterlimit:4;stroke-dasharray:none;stroke-opacity:1"
     d="m 224.912,107.041 c 0.349,-0.542 0.073,-2.474 0.464,-4.026 0.265,-1.052 -0.199,-3.765 0.151,-4.786 0.312,-0.943 0.369,-1.407 -0.646,-1.948 -0.6,-0.323 -1.958,-0.563 -2.229,-0.12 -0.615,1.027 -0.745,1.953 -0.672,3.021 0.088,1.208 0.62,4.479 0.776,5.077 0.38,1.475 0.083,2.142 0.151,2.548 0.125,0.744 0.432,0.891 0.942,0.922 0.959,0.041 1.063,-0.688 1.063,-0.688 z"
     id="path984" />
  <path
     style="fill:#231f20;fill-opacity:1;fill-rule:nonzero;stroke:none"
     d="m 223.021,98.532 c -1.297,-0.09 -0.781,-2.063 -0.724,-2.6 0.058,-0.536 0.036,-2.099 -0.13,-3.307 -0.172,-1.213 0.141,-2.803 -0.182,-5.104 -0.166,-1.219 0.438,-2.5 2.208,-2.661 1.75,-0.167 2.495,0.749 2.474,2.249 -0.015,1.5 -0.672,2.891 -0.791,4.401 -0.125,1.506 -0.109,3.052 -0.043,4.266 0.079,1.374 -0.4,2.089 -0.828,2.302 -1.072,0.526 -1.984,0.454 -1.984,0.454"
     id="path985" />
  <path
     style="fill:none;stroke:#231f20;stroke-width:0.565977;stroke-linecap:butt;stroke-linejoin:miter;stroke-miterlimit:4;stroke-dasharray:none;stroke-opacity:1"
     d="m 223.021,98.532 c -1.297,-0.09 -0.781,-2.063 -0.724,-2.6 0.058,-0.536 0.036,-2.099 -0.13,-3.307 -0.172,-1.213 0.141,-2.803 -0.182,-5.104 -0.166,-1.219 0.438,-2.5 2.208,-2.661 1.75,-0.167 2.495,0.749 2.474,2.249 -0.015,1.5 -0.672,2.891 -0.791,4.401 -0.125,1.506 -0.109,3.052 -0.043,4.266 0.079,1.374 -0.4,2.089 -0.828,2.302 -1.072,0.526 -1.984,0.454 -1.984,0.454 z"
     id="path986" />
  <path
     style="fill:#231f20;fill-opacity:1;fill-rule:nonzero;stroke:none"
     d="m 237.865,81.166 c -0.604,-0.24 -1.489,-1.968 -2.713,-3.016 -0.833,-0.697 -2.016,-3.172 -2.896,-3.806 -0.808,-0.588 -1.115,-0.932 -0.604,-1.959 0.301,-0.62 1.276,-1.593 1.749,-1.396 1.084,0.48 1.74,1.172 2.298,2.084 0.625,1.036 2.088,4.005 2.312,4.577 0.541,1.428 1.172,1.803 1.344,2.162 0.349,0.688 0.166,0.99 -0.23,1.292 -0.754,0.598 -1.26,0.062 -1.26,0.062"
     id="path987" />
  <path
     style="fill:none;stroke:#231f20;stroke-width:0.565977;stroke-linecap:butt;stroke-linejoin:miter;stroke-miterlimit:4;stroke-dasharray:none;stroke-opacity:1"
     d="m 237.865,81.166 c -0.604,-0.24 -1.489,-1.968 -2.713,-3.016 -0.833,-0.697 -2.016,-3.172 -2.896,-3.806 -0.808,-0.588 -1.115,-0.932 -0.604,-1.959 0.301,-0.62 1.276,-1.593 1.749,-1.396 1.084,0.48 1.74,1.172 2.298,2.084 0.625,1.036 2.088,4.005 2.312,4.577 0.541,1.428 1.172,1.803 1.344,2.162 0.349,0.688 0.166,0.99 -0.23,1.292 -0.754,0.598 -1.26,0.062 -1.26,0.062 z"
     id="path988" />
  <path
     style="fill:#231f20;fill-opacity:1;fill-rule:nonzero;stroke:none"
     d="m 233.761,73.426 c -0.032,1.303 -2.026,0.866 -2.562,0.834 -0.547,-0.031 -2.099,0.052 -3.303,0.272 -1.203,0.224 -2.801,-0.022 -5.093,0.394 -1.203,0.21 -2.511,-0.328 -2.751,-2.093 -0.239,-1.74 0.647,-2.525 2.152,-2.573 1.495,-0.042 2.916,0.548 4.427,0.605 1.505,0.061 3.052,-0.016 4.26,-0.131 1.376,-0.13 2.109,0.312 2.333,0.73 0.573,1.046 0.537,1.962 0.537,1.962"
     id="path989" />
  <path
     style="fill:none;stroke:#231f20;stroke-width:0.565977;stroke-linecap:butt;stroke-linejoin:miter;stroke-miterlimit:4;stroke-dasharray:none;stroke-opacity:1"
     d="m 233.761,73.426 c -0.032,1.303 -2.026,0.866 -2.562,0.834 -0.547,-0.031 -2.099,0.052 -3.303,0.272 -1.203,0.224 -2.801,-0.022 -5.093,0.394 -1.203,0.21 -2.511,-0.328 -2.751,-2.093 -0.239,-1.74 0.647,-2.525 2.152,-2.573 1.495,-0.042 2.916,0.548 4.427,0.605 1.505,0.061 3.052,-0.016 4.26,-0.131 1.376,-0.13 2.109,0.312 2.333,0.73 0.573,1.046 0.537,1.962 0.537,1.962 z"
     id="path990" />
  <path
     style="fill:#231f20;fill-opacity:1;fill-rule:nonzero;stroke:none"
     d="m 242.079,85.713 c -0.088,-0.729 -1.568,-3.624 -1.927,-4.265 -0.328,-0.583 -0.552,-1.719 -1.704,-1.64 -0.468,0.03 -1.124,0.4 -1.353,0.634 -0.183,0.178 -0.12,0.5 0.109,0.828 0.38,0.547 0.692,0.558 1.484,1.563 0,0 0.224,0.208 0.645,0.563 1.246,1.046 0.798,0.469 2.271,2.396 0.095,0.129 0.313,0.129 0.396,0.052 0.136,-0.12 0.079,-0.131 0.079,-0.131"
     id="path991" />
  <path
     style="fill:none;stroke:#231f20;stroke-width:0.565977;stroke-linecap:round;stroke-linejoin:round;stroke-miterlimit:4;stroke-dasharray:none;stroke-opacity:1"
     d="m 242.079,85.713 c -0.088,-0.729 -1.568,-3.624 -1.927,-4.265 -0.328,-0.583 -0.552,-1.719 -1.704,-1.64 -0.468,0.03 -1.124,0.4 -1.353,0.634 -0.183,0.178 -0.12,0.5 0.109,0.828 0.38,0.547 0.692,0.558 1.484,1.563 0,0 0.224,0.208 0.645,0.563 1.246,1.046 0.798,0.469 2.271,2.396 0.095,0.129 0.313,0.129 0.396,0.052 0.136,-0.12 0.079,-0.131 0.079,-0.131 z"
     id="path992" />
  <path
     style="fill:#ffffff;fill-opacity:1;fill-rule:nonzero;stroke:none"
     d="m 214.657,82.057 c 2.438,1.427 5.266,1.131 6.312,-0.661 1.047,-1.792 -0.073,-4.402 -2.51,-5.828 -2.438,-1.427 -5.271,-1.136 -6.312,0.661 -1.052,1.787 0.072,4.401 2.51,5.828"
     id="path993" />
  <path
     style="fill:none;stroke:#231f20;stroke-width:0.565977;stroke-linecap:butt;stroke-linejoin:miter;stroke-miterlimit:4;stroke-dasharray:none;stroke-opacity:1"
     d="m 214.657,82.057 c 2.438,1.427 5.266,1.131 6.312,-0.661 1.047,-1.792 -0.073,-4.402 -2.51,-5.828 -2.438,-1.427 -5.271,-1.136 -6.312,0.661 -1.052,1.787 0.072,4.401 2.51,5.828 z"
     id="path994" />
  <path
     style="fill:#63c99d;fill-opacity:1;fill-rule:nonzero;stroke:none"
     d="m 299.207,87.994 c 3.13,-0.202 3.82,0.095 4.69,0.402 5.46,1.916 6.3,-0.798 5.59,-3.588 -0.83,-3.292 -1.06,-4.491 -7.27,-3.486 -1.73,0.282 -8.5,0.49 -8.5,0.49 -2.44,-0.25 -4.95,0.797 -5.69,2.053 -0.77,1.328 -0.37,0.859 -0.86,2.213 -0.47,1.291 -0.08,3.443 0.99,4.063 1.04,0.593 2.48,-0.224 4.73,-1.125 1.78,-0.714 6.32,-1.022 6.32,-1.022"
     id="path995" />
  <path
     style="fill:none;stroke:#231f20;stroke-width:0.565977;stroke-linecap:butt;stroke-linejoin:miter;stroke-miterlimit:4;stroke-dasharray:none;stroke-opacity:1"
     d="m 299.207,87.994 c 3.13,-0.202 3.82,0.095 4.69,0.402 5.46,1.916 6.3,-0.798 5.59,-3.588 -0.83,-3.292 -1.06,-4.491 -7.27,-3.486 -1.73,0.282 -8.5,0.49 -8.5,0.49 -2.44,-0.25 -4.95,0.797 -5.69,2.053 -0.77,1.328 -0.37,0.859 -0.86,2.213 -0.47,1.291 -0.08,3.443 0.99,4.063 1.04,0.593 2.48,-0.224 4.73,-1.125 1.78,-0.714 6.32,-1.022 6.32,-1.022 z"
     id="path996" />
  <path
     style="fill:#ffffff;fill-opacity:1;fill-rule:nonzero;stroke:none"
     d="m 283.787,79.912 c -0.18,-0.162 0.33,-1.199 -0.12,-1.464 -0.45,-0.266 -1.01,0.297 -3,0.12 h -0.02 c -1.44,-0.178 -2.76,0.249 -3.48,1.276 -1.19,1.702 -0.28,4.396 2.03,6.016 2.32,1.618 5.16,1.546 6.35,-0.152 1.14,-1.624 0.35,-4.167 -1.76,-5.796"
     id="path997" />
  <path
     style="fill:none;stroke:#231f20;stroke-width:0.565977;stroke-linecap:butt;stroke-linejoin:miter;stroke-miterlimit:4;stroke-dasharray:none;stroke-opacity:1"
     d="m 283.787,79.912 c -0.18,-0.162 0.33,-1.199 -0.12,-1.464 -0.45,-0.266 -1.01,0.297 -3,0.12 h -0.02 c -1.44,-0.178 -2.76,0.249 -3.48,1.276 -1.19,1.702 -0.28,4.396 2.03,6.016 2.32,1.618 5.16,1.546 6.35,-0.152 1.14,-1.624 0.35,-4.167 -1.76,-5.796 z"
     id="path998" />
  <path
     style="fill:#231f20;fill-opacity:1;fill-rule:nonzero;stroke:none"
     d="m 286.697,107.083 c -0.29,-0.573 0.18,-2.469 -0.06,-4.057 -0.16,-1.073 0.58,-3.714 0.33,-4.772 -0.22,-0.973 -0.23,-1.437 0.84,-1.874 0.63,-0.266 2.01,-0.359 2.22,0.104 0.52,1.073 0.55,2.021 0.37,3.073 -0.21,1.198 -1.06,4.396 -1.27,4.974 -0.54,1.422 -0.31,2.124 -0.41,2.515 -0.2,0.74 -0.53,0.844 -1.03,0.823 -0.96,-0.047 -0.99,-0.786 -0.99,-0.786"
     id="path999" />
  <path
     style="fill:none;stroke:#231f20;stroke-width:0.565977;stroke-linecap:butt;stroke-linejoin:miter;stroke-miterlimit:4;stroke-dasharray:none;stroke-opacity:1"
     d="m 286.697,107.083 c -0.29,-0.573 0.18,-2.469 -0.06,-4.057 -0.16,-1.073 0.58,-3.714 0.33,-4.772 -0.22,-0.973 -0.23,-1.437 0.84,-1.874 0.63,-0.266 2.01,-0.359 2.22,0.104 0.52,1.073 0.55,2.021 0.37,3.073 -0.21,1.198 -1.06,4.396 -1.27,4.974 -0.54,1.422 -0.31,2.124 -0.41,2.515 -0.2,0.74 -0.53,0.844 -1.03,0.823 -0.96,-0.047 -0.99,-0.786 -0.99,-0.786 z"
     id="path1000" />
  <path
     style="fill:#231f20;fill-opacity:1;fill-rule:nonzero;stroke:none"
     d="m 287.617,98.068 c -1.27,-0.271 -0.48,-2.151 -0.35,-2.672 0.13,-0.531 0.33,-2.074 0.33,-3.298 0.01,-1.224 0.54,-2.749 0.55,-5.077 0,-1.224 0.79,-2.407 2.56,-2.323 1.75,0.083 2.37,1.099 2.13,2.578 -0.22,1.48 -1.07,2.77 -1.4,4.245 -0.34,1.468 -0.55,3.005 -0.65,4.219 -0.12,1.374 -0.68,2.016 -1.14,2.156 -1.14,0.374 -2.03,0.172 -2.03,0.172"
     id="path1001" />
  <path
     style="fill:none;stroke:#231f20;stroke-width:0.565977;stroke-linecap:butt;stroke-linejoin:miter;stroke-miterlimit:4;stroke-dasharray:none;stroke-opacity:1"
     d="m 287.617,98.068 c -1.27,-0.271 -0.48,-2.151 -0.35,-2.672 0.13,-0.531 0.33,-2.074 0.33,-3.298 0.01,-1.224 0.54,-2.749 0.55,-5.077 0,-1.224 0.79,-2.407 2.56,-2.323 1.75,0.083 2.37,1.099 2.13,2.578 -0.22,1.48 -1.07,2.77 -1.4,4.245 -0.34,1.468 -0.55,3.005 -0.65,4.219 -0.12,1.374 -0.68,2.016 -1.14,2.156 -1.14,0.374 -2.03,0.172 -2.03,0.172 z"
     id="path1002" />
  <path
     style="fill:#231f20;fill-opacity:1;fill-rule:nonzero;stroke:none"
     d="m 323.877,80.432 c 0.31,2.24 0.68,2.636 1.63,2.562 0.64,-0.041 1.24,0.131 1.63,0.12 1.3,-0.025 3.47,-0.62 9.19,-3.89 1.29,-0.746 3.11,-1.771 3.89,-2.131 1.23,-0.577 -0.55,-2.233 -1.04,-2.009 -1.56,0.708 -2.69,1.057 -3.29,1.233 -0.41,0.12 -1.1,0.439 -2.75,0.699 -2.49,0.401 -4.05,0.265 -6.09,0.838 -0.94,0.266 -1.82,-0.136 -2.61,0.599 -0.81,0.735 -0.56,1.979 -0.56,1.979"
     id="path1003" />
  <path
     style="fill:none;stroke:#231f20;stroke-width:0.565977;stroke-linecap:butt;stroke-linejoin:miter;stroke-miterlimit:4;stroke-dasharray:none;stroke-opacity:1"
     d="m 323.877,80.432 c 0.31,2.24 0.68,2.636 1.63,2.562 0.64,-0.041 1.24,0.131 1.63,0.12 1.3,-0.025 3.47,-0.62 9.19,-3.89 1.29,-0.746 3.11,-1.771 3.89,-2.131 1.23,-0.577 -0.55,-2.233 -1.04,-2.009 -1.56,0.708 -2.69,1.057 -3.29,1.233 -0.41,0.12 -1.1,0.439 -2.75,0.699 -2.49,0.401 -4.05,0.265 -6.09,0.838 -0.94,0.266 -1.82,-0.136 -2.61,0.599 -0.81,0.735 -0.56,1.979 -0.56,1.979 z"
     id="path1004" />
  <path
     style="fill:#231f20;fill-opacity:1;fill-rule:nonzero;stroke:#231f20;stroke-width:0.565977;stroke-linecap:round;stroke-linejoin:round;stroke-miterlimit:4;stroke-dasharray:none;stroke-opacity:1"
     d="m 325.477,78.5 c -1.14,-0.85 -3.03,0.182 -3.38,0.193 -5,0.244 -5.35,0.391 -9.14,0.843 -5.5,0.657 -9.15,1.942 -9.71,5.245 -0.37,2.245 0.38,3.697 1.51,4.38 1.25,0.751 4.42,0.953 6.12,-1.385 l 1.58,-0.646 c 1.13,-0.308 1.68,-0.458 2.25,-0.562 0.98,-0.178 2.02,-0.438 3.93,-0.896 3.37,-0.823 6.68,-2.787 6.68,-2.787 0.29,-0.077 0.51,-0.26 0.66,-0.479"
     id="path1005" />
  <path
     style="fill:#63c99d;fill-opacity:1;fill-rule:nonzero;stroke:#231f20;stroke-width:0.565977;stroke-linecap:butt;stroke-linejoin:miter;stroke-miterlimit:4;stroke-dasharray:none;stroke-opacity:1"
     d="m 309.897,80.026 c -0.65,0.11 -1.24,0.25 -1.8,0.4 -0.08,-0.004 -0.16,-0.009 -0.23,-0.025 -0.79,-0.167 -1.28,0.224 -2.06,0.907 -1.37,0.738 -2.28,1.765 -2.57,3.208 -0.46,2.224 0.24,3.708 1.34,4.432 1.22,0.797 4.38,1.12 6.17,-1.156 z"
     id="path1006" />
  <path
     style="fill:#231f20;fill-opacity:1;fill-rule:nonzero;stroke:none"
     d="m 342.547,76.516 c -0.53,1.249 -1.52,1.218 -2.29,0.52 -0.23,-0.208 -0.64,-0.146 -0.85,-0.364 -0.48,-0.516 -0.36,-2.255 1.11,-2.531 0.11,-0.016 0.83,-0.401 1.42,-0.605 1.14,-0.391 3.63,-0.624 5.69,1.109 0.98,0.824 0.31,1.245 -0.18,1.037 -1.58,-0.677 -1.85,-0.432 -2.33,-0.453 -1.62,-0.099 -2.57,1.287 -2.57,1.287"
     id="path1007" />
  <path
     style="fill:none;stroke:#231f20;stroke-width:0.332927;stroke-linecap:butt;stroke-linejoin:miter;stroke-miterlimit:4;stroke-dasharray:none;stroke-opacity:1"
     d="m 342.547,76.516 c -0.53,1.249 -1.52,1.218 -2.29,0.52 -0.23,-0.208 -0.64,-0.146 -0.85,-0.364 -0.48,-0.516 -0.36,-2.255 1.11,-2.531 0.11,-0.016 0.83,-0.401 1.42,-0.605 1.14,-0.391 3.63,-0.624 5.69,1.109 0.98,0.824 0.31,1.245 -0.18,1.037 -1.58,-0.677 -1.85,-0.432 -2.33,-0.453 -1.62,-0.099 -2.57,1.287 -2.57,1.287 z"
     id="path1008" />
  <path
     style="fill:#231f20;fill-opacity:1;fill-rule:nonzero;stroke:none"
     d="m 290.377,108.614 c 0,1.177 -0.95,2.136 -2.13,2.136 -1.17,0 -2.13,-0.959 -2.13,-2.136 0,-1.177 0.96,-2.136 2.13,-2.136 1.18,0 2.13,0.959 2.13,2.136"
     id="path1009" />
  <path
     style="fill:#231f20;fill-opacity:1;fill-rule:nonzero;stroke:none"
     d="m 107,107.046 c 0.292,-0.572 -0.176,-2.463 0.058,-4.052 0.161,-1.077 -0.572,-3.718 -0.334,-4.776 0.219,-0.968 0.23,-1.437 -0.833,-1.874 -0.629,-0.266 -2.02,-0.36 -2.233,0.104 -0.511,1.078 -0.548,2.021 -0.36,3.073 0.208,1.197 1.062,4.396 1.27,4.973 0.532,1.427 0.308,2.131 0.412,2.516 0.192,0.74 0.526,0.844 1.031,0.823 0.959,-0.047 0.989,-0.787 0.989,-0.787"
     id="path1010" />
  <path
     style="fill:none;stroke:#231f20;stroke-width:0.565977;stroke-linecap:butt;stroke-linejoin:miter;stroke-miterlimit:4;stroke-dasharray:none;stroke-opacity:1"
     d="m 107,107.046 c 0.292,-0.572 -0.176,-2.463 0.058,-4.052 0.161,-1.077 -0.572,-3.718 -0.334,-4.776 0.219,-0.968 0.23,-1.437 -0.833,-1.874 -0.629,-0.266 -2.02,-0.36 -2.233,0.104 -0.511,1.078 -0.548,2.021 -0.36,3.073 0.208,1.197 1.062,4.396 1.27,4.973 0.532,1.427 0.308,2.131 0.412,2.516 0.192,0.74 0.526,0.844 1.031,0.823 0.959,-0.047 0.989,-0.787 0.989,-0.787 z"
     id="path1011" />
  <path
     style="fill:#231f20;fill-opacity:1;fill-rule:nonzero;stroke:none"
     d="m 106.074,98.032 c 1.27,-0.272 0.484,-2.152 0.354,-2.672 -0.136,-0.532 -0.333,-2.074 -0.333,-3.292 -0.005,-1.23 -0.537,-2.756 -0.547,-5.084 -0.005,-1.224 -0.786,-2.406 -2.557,-2.323 -1.761,0.084 -2.376,1.099 -2.141,2.579 0.224,1.478 1.073,2.77 1.406,4.244 0.339,1.474 0.542,3.005 0.646,4.218 0.114,1.376 0.682,2.016 1.146,2.163 1.135,0.369 2.026,0.167 2.026,0.167"
     id="path1012" />
  <path
     style="fill:none;stroke:#231f20;stroke-width:0.565977;stroke-linecap:butt;stroke-linejoin:miter;stroke-miterlimit:4;stroke-dasharray:none;stroke-opacity:1"
     d="m 106.074,98.032 c 1.27,-0.272 0.484,-2.152 0.354,-2.672 -0.136,-0.532 -0.333,-2.074 -0.333,-3.292 -0.005,-1.23 -0.537,-2.756 -0.547,-5.084 -0.005,-1.224 -0.786,-2.406 -2.557,-2.323 -1.761,0.084 -2.376,1.099 -2.141,2.579 0.224,1.478 1.073,2.77 1.406,4.244 0.339,1.474 0.542,3.005 0.646,4.218 0.114,1.376 0.682,2.016 1.146,2.163 1.135,0.369 2.026,0.167 2.026,0.167 z"
     id="path1013" />
  <path
     style="fill:#231f20;fill-opacity:1;fill-rule:nonzero;stroke:none"
     d="m 103.308,108.578 c 0,1.181 0.959,2.135 2.135,2.135 1.183,0 2.136,-0.954 2.136,-2.135 0,-1.177 -0.953,-2.131 -2.136,-2.131 -1.176,0 -2.135,0.954 -2.135,2.131"
     id="path1014" />
  <path
     style="fill:#63c99d;fill-opacity:1;fill-rule:nonzero;stroke:none"
     d="m 52.224,88.041 c -3.093,-0.473 -3.817,-0.233 -4.713,0 -5.593,1.443 -6.197,-1.333 -5.249,-4.057 1.098,-3.208 1.432,-4.38 7.536,-2.848 1.702,0.432 8.426,1.213 8.426,1.213 2.454,-0.041 4.86,1.213 5.491,2.531 0.656,1.385 0.296,0.885 0.671,2.276 0.365,1.328 -0.214,3.437 -1.334,3.964 -1.077,0.5 -2.457,-0.438 -4.618,-1.527 -1.715,-0.859 -6.21,-1.552 -6.21,-1.552"
     id="path1015" />
  <path
     style="fill:none;stroke:#231f20;stroke-width:0.565977;stroke-linecap:butt;stroke-linejoin:miter;stroke-miterlimit:4;stroke-dasharray:none;stroke-opacity:1"
     d="m 52.224,88.041 c -3.093,-0.473 -3.817,-0.233 -4.713,0 -5.593,1.443 -6.197,-1.333 -5.249,-4.057 1.098,-3.208 1.432,-4.38 7.536,-2.848 1.702,0.432 8.426,1.213 8.426,1.213 2.454,-0.041 4.86,1.213 5.491,2.531 0.656,1.385 0.296,0.885 0.671,2.276 0.365,1.328 -0.214,3.437 -1.334,3.964 -1.077,0.5 -2.457,-0.438 -4.618,-1.527 -1.715,-0.859 -6.21,-1.552 -6.21,-1.552 z"
     id="path1016" />
  <path
     style="fill:#ffffff;fill-opacity:1;fill-rule:nonzero;stroke:none"
     d="m 68.527,82.541 c 0.213,-0.115 -0.021,-1.239 0.479,-1.385 0.505,-0.151 0.912,0.532 2.876,0.844 h 0.02 c 1.442,0.177 2.625,0.917 3.073,2.089 0.74,1.937 -0.797,4.333 -3.432,5.337 -2.641,1.011 -5.381,0.251 -6.125,-1.686 -0.714,-1.85 0.672,-4.131 3.109,-5.199"
     id="path1017" />
  <path
     style="fill:none;stroke:#231f20;stroke-width:0.565977;stroke-linecap:butt;stroke-linejoin:miter;stroke-miterlimit:4;stroke-dasharray:none;stroke-opacity:1"
     d="m 68.527,82.541 c 0.213,-0.115 -0.021,-1.239 0.479,-1.385 0.505,-0.151 0.912,0.532 2.876,0.844 h 0.02 c 1.442,0.177 2.625,0.917 3.073,2.089 0.74,1.937 -0.797,4.333 -3.432,5.337 -2.641,1.011 -5.381,0.251 -6.125,-1.686 -0.714,-1.85 0.672,-4.131 3.109,-5.199 z"
     id="path1018" />
  <path
     style="fill:#231f20;fill-opacity:1;fill-rule:nonzero;stroke:none"
     d="m 65.194,107.687 c 0.281,-0.578 -0.224,-2.464 -0.016,-4.057 0.141,-1.079 -0.646,-3.704 -0.422,-4.765 0.198,-0.975 0.203,-1.439 -0.87,-1.86 -0.635,-0.249 -2.02,-0.317 -2.228,0.145 -0.491,1.09 -0.506,2.038 -0.303,3.084 0.229,1.192 1.145,4.375 1.364,4.948 0.557,1.416 0.344,2.12 0.459,2.511 0.208,0.733 0.541,0.828 1.041,0.801 0.964,-0.063 0.975,-0.807 0.975,-0.807"
     id="path1019" />
  <path
     style="fill:none;stroke:#231f20;stroke-width:0.565977;stroke-linecap:butt;stroke-linejoin:miter;stroke-miterlimit:4;stroke-dasharray:none;stroke-opacity:1"
     d="m 65.194,107.687 c 0.281,-0.578 -0.224,-2.464 -0.016,-4.057 0.141,-1.079 -0.646,-3.704 -0.422,-4.765 0.198,-0.975 0.203,-1.439 -0.87,-1.86 -0.635,-0.249 -2.02,-0.317 -2.228,0.145 -0.491,1.09 -0.506,2.038 -0.303,3.084 0.229,1.192 1.145,4.375 1.364,4.948 0.557,1.416 0.344,2.12 0.459,2.511 0.208,0.733 0.541,0.828 1.041,0.801 0.964,-0.063 0.975,-0.807 0.975,-0.807 z"
     id="path1020" />
  <path
     style="fill:#231f20;fill-opacity:1;fill-rule:nonzero;stroke:none"
     d="m 64.1,98.693 c 1.266,-0.297 0.448,-2.161 0.307,-2.683 -0.145,-0.526 -0.375,-2.062 -0.401,-3.286 -0.026,-1.23 -0.583,-2.74 -0.635,-5.068 -0.032,-1.224 -0.833,-2.391 -2.604,-2.276 -1.756,0.12 -2.349,1.146 -2.089,2.62 0.256,1.478 1.125,2.75 1.484,4.218 0.365,1.464 0.6,2.995 0.724,4.204 0.146,1.375 0.724,2.004 1.182,2.135 1.147,0.36 2.032,0.136 2.032,0.136"
     id="path1021" />
  <path
     style="fill:none;stroke:#231f20;stroke-width:0.565977;stroke-linecap:butt;stroke-linejoin:miter;stroke-miterlimit:4;stroke-dasharray:none;stroke-opacity:1"
     d="m 64.1,98.693 c 1.266,-0.297 0.448,-2.161 0.307,-2.683 -0.145,-0.526 -0.375,-2.062 -0.401,-3.286 -0.026,-1.23 -0.583,-2.74 -0.635,-5.068 -0.032,-1.224 -0.833,-2.391 -2.604,-2.276 -1.756,0.12 -2.349,1.146 -2.089,2.62 0.256,1.478 1.125,2.75 1.484,4.218 0.365,1.464 0.6,2.995 0.724,4.204 0.146,1.375 0.724,2.004 1.182,2.135 1.147,0.36 2.032,0.136 2.032,0.136 z"
     id="path1022" />
  <path
     style="fill:#231f20;fill-opacity:1;fill-rule:nonzero;stroke:none"
     d="M 32.642,71.312 C 31.246,73.098 30.73,73.25 29.938,72.708 29.407,72.344 28.803,72.198 28.47,71.994 27.366,71.312 25.787,69.708 22.5,64 c -0.744,-1.292 -1.801,-3.099 -2.296,-3.802 -0.765,-1.114 1.604,-1.652 1.916,-1.214 0.99,1.401 1.792,2.27 2.214,2.724 0.297,0.313 0.734,0.933 2.032,1.99 1.948,1.599 3.358,2.271 4.833,3.791 0.683,0.709 1.645,0.803 1.959,1.839 0.328,1.037 -0.516,1.984 -0.516,1.984"
     id="path1023" />
  <path
     style="fill:none;stroke:#231f20;stroke-width:0.565977;stroke-linecap:butt;stroke-linejoin:miter;stroke-miterlimit:4;stroke-dasharray:none;stroke-opacity:1"
     d="M 32.642,71.312 C 31.246,73.098 30.73,73.25 29.938,72.708 29.407,72.344 28.803,72.198 28.47,71.994 27.366,71.312 25.787,69.708 22.5,64 c -0.744,-1.292 -1.801,-3.099 -2.296,-3.802 -0.765,-1.114 1.604,-1.652 1.916,-1.214 0.99,1.401 1.792,2.27 2.214,2.724 0.297,0.313 0.734,0.933 2.032,1.99 1.948,1.599 3.358,2.271 4.833,3.791 0.683,0.709 1.645,0.803 1.959,1.839 0.328,1.037 -0.516,1.984 -0.516,1.984 z"
     id="path1024" />
  <path
     style="fill:#231f20;fill-opacity:1;fill-rule:nonzero;stroke:#231f20;stroke-width:0.565977;stroke-linecap:round;stroke-linejoin:round;stroke-miterlimit:4;stroke-dasharray:none;stroke-opacity:1"
     d="m 32.235,68.844 c 1.412,-0.162 2.532,1.682 2.817,1.858 4.204,2.74 4.434,3.043 7.486,5.339 4.41,3.333 6.926,6.292 5.738,9.423 -0.806,2.129 -2.192,3 -3.509,3.02 -1.459,0.021 -4.303,-1.4 -4.589,-4.276 L 39.136,82.849 C 38.314,82.026 37.918,81.614 37.48,81.234 36.719,80.588 35.943,79.838 34.532,78.478 32.027,76.073 30.167,72.713 30.167,72.713 29.948,72.494 29.85,72.229 29.834,71.964"
     id="path1025" />
  <path
     style="fill:#63c99d;fill-opacity:1;fill-rule:nonzero;stroke:none"
     d="M 47.814,81.172 C 47.491,80.188 47.262,79.609 46.491,79.354 46.428,79.328 46.355,79.297 46.282,79.26 45.871,78.844 45.428,78.422 44.923,78 l -4.641,6.292 c 0.396,2.858 3.292,4.177 4.745,4.098 1.317,-0.073 2.667,-1 3.396,-3.15 0.468,-1.396 0.203,-2.735 -0.609,-4.068"
     id="path1026" />
  <path
     style="fill:none;stroke:#231f20;stroke-width:0.565977;stroke-linecap:butt;stroke-linejoin:miter;stroke-miterlimit:4;stroke-dasharray:none;stroke-opacity:1"
     d="M 47.814,81.172 C 47.491,80.188 47.262,79.609 46.491,79.354 46.428,79.328 46.355,79.297 46.282,79.26 45.871,78.844 45.428,78.422 44.923,78 l -4.641,6.292 c 0.396,2.858 3.292,4.177 4.745,4.098 1.317,-0.073 2.667,-1 3.396,-3.15 0.468,-1.396 0.203,-2.735 -0.609,-4.068 z"
     id="path1027" />
  <path
     style="fill:#231f20;fill-opacity:1;fill-rule:nonzero;stroke:none"
     d="m 18.495,58.536 c -0.176,1.338 0.693,1.813 1.704,1.594 0.307,-0.062 0.635,0.203 0.921,0.115 0.672,-0.204 1.454,-1.761 0.319,-2.745 -0.084,-0.068 -0.511,-0.766 -0.917,-1.235 -0.798,-0.916 -2.823,-2.375 -5.479,-1.911 -1.256,0.219 -0.901,0.922 -0.365,0.99 1.704,0.208 1.813,0.557 2.234,0.776 1.448,0.734 1.583,2.416 1.583,2.416"
     id="path1028" />
  <path
     style="fill:none;stroke:#231f20;stroke-width:0.332927;stroke-linecap:butt;stroke-linejoin:miter;stroke-miterlimit:4;stroke-dasharray:none;stroke-opacity:1"
     d="m 18.495,58.536 c -0.176,1.338 0.693,1.813 1.704,1.594 0.307,-0.062 0.635,0.203 0.921,0.115 0.672,-0.204 1.454,-1.761 0.319,-2.745 -0.084,-0.068 -0.511,-0.766 -0.917,-1.235 -0.798,-0.916 -2.823,-2.375 -5.479,-1.911 -1.256,0.219 -0.901,0.922 -0.365,0.99 1.704,0.208 1.813,0.557 2.234,0.776 1.448,0.734 1.583,2.416 1.583,2.416 z"
     id="path1029" />
  <path
     style="fill:#231f20;fill-opacity:1;fill-rule:nonzero;stroke:none"
     d="m 61.538,109.291 c 0.025,1.178 0.994,2.115 2.172,2.094 1.181,-0.026 2.118,-1 2.098,-2.178 -0.026,-1.176 -1,-2.114 -2.177,-2.088 -1.177,0.022 -2.115,0.99 -2.093,2.172"
     id="path1030" />
  <path
     style="fill:#63c99d;fill-opacity:1;fill-rule:nonzero;stroke:none"
     d="m 159.803,87.808 c 3.082,0.561 3.812,0.342 4.708,0.14 5.641,-1.287 6.161,1.505 5.141,4.202 -1.193,3.172 -1.563,4.339 -7.62,2.631 -1.688,-0.479 -8.391,-1.453 -8.391,-1.453 -2.448,-0.026 -4.822,-1.354 -5.406,-2.687 -0.626,-1.407 -0.276,-0.896 -0.615,-2.297 -0.323,-1.339 0.317,-3.427 1.448,-3.922 1.093,-0.469 2.443,0.504 4.573,1.656 1.687,0.906 6.162,1.73 6.162,1.73"
     id="path1031" />
  <path
     style="fill:none;stroke:#231f20;stroke-width:0.565977;stroke-linecap:butt;stroke-linejoin:miter;stroke-miterlimit:4;stroke-dasharray:none;stroke-opacity:1"
     d="m 159.803,87.808 c 3.082,0.561 3.812,0.342 4.708,0.14 5.641,-1.287 6.161,1.505 5.141,4.202 -1.193,3.172 -1.563,4.339 -7.62,2.631 -1.688,-0.479 -8.391,-1.453 -8.391,-1.453 -2.448,-0.026 -4.822,-1.354 -5.406,-2.687 -0.626,-1.407 -0.276,-0.896 -0.615,-2.297 -0.323,-1.339 0.317,-3.427 1.448,-3.922 1.093,-0.469 2.443,0.504 4.573,1.656 1.687,0.906 6.162,1.73 6.162,1.73 z"
     id="path1032" />
  <path
     style="fill:#ffffff;fill-opacity:1;fill-rule:nonzero;stroke:none"
     d="m 139.928,86.308 c -0.199,-0.142 -1.084,0.588 -1.448,0.213 -0.371,-0.38 0.052,-1.052 -0.579,-2.937 l -0.01,-0.022 c -0.51,-1.364 -0.4,-2.75 0.433,-3.688 1.375,-1.557 4.208,-1.296 6.317,0.574 2.12,1.88 2.714,4.661 1.334,6.213 -1.314,1.489 -3.97,1.313 -6.047,-0.353"
     id="path1033" />
  <path
     style="fill:none;stroke:#231f20;stroke-width:0.565977;stroke-linecap:butt;stroke-linejoin:miter;stroke-miterlimit:4;stroke-dasharray:none;stroke-opacity:1"
     d="m 139.928,86.308 c -0.199,-0.142 -1.084,0.588 -1.448,0.213 -0.371,-0.38 0.052,-1.052 -0.579,-2.937 l -0.01,-0.022 c -0.51,-1.364 -0.4,-2.75 0.433,-3.688 1.375,-1.557 4.208,-1.296 6.317,0.574 2.12,1.88 2.714,4.661 1.334,6.213 -1.314,1.489 -3.97,1.313 -6.047,-0.353 z"
     id="path1034" />
  <path
     style="fill:#231f20;fill-opacity:1;fill-rule:nonzero;stroke:none"
     d="m 154.475,107.187 c 0.286,-0.573 -0.183,-2.469 0.057,-4.057 0.161,-1.073 -0.579,-3.713 -0.333,-4.77 0.218,-0.975 0.229,-1.439 -0.834,-1.876 -0.63,-0.266 -2.016,-0.359 -2.234,0.104 -0.506,1.073 -0.542,2.021 -0.359,3.073 0.208,1.198 1.061,4.396 1.271,4.974 0.53,1.422 0.306,2.124 0.41,2.52 0.194,0.735 0.527,0.839 1.032,0.819 0.958,-0.043 0.99,-0.787 0.99,-0.787"
     id="path1035" />
  <path
     style="fill:none;stroke:#231f20;stroke-width:0.565977;stroke-linecap:butt;stroke-linejoin:miter;stroke-miterlimit:4;stroke-dasharray:none;stroke-opacity:1"
     d="m 154.475,107.187 c 0.286,-0.573 -0.183,-2.469 0.057,-4.057 0.161,-1.073 -0.579,-3.713 -0.333,-4.77 0.218,-0.975 0.229,-1.439 -0.834,-1.876 -0.63,-0.266 -2.016,-0.359 -2.234,0.104 -0.506,1.073 -0.542,2.021 -0.359,3.073 0.208,1.198 1.061,4.396 1.271,4.974 0.53,1.422 0.306,2.124 0.41,2.52 0.194,0.735 0.527,0.839 1.032,0.819 0.958,-0.043 0.99,-0.787 0.99,-0.787 z"
     id="path1036" />
  <path
     style="fill:#231f20;fill-opacity:1;fill-rule:nonzero;stroke:none"
     d="m 153.548,98.172 c 1.271,-0.271 0.484,-2.151 0.353,-2.672 -0.134,-0.531 -0.333,-2.074 -0.333,-3.298 -0.005,-1.224 -0.536,-2.749 -0.547,-5.077 -0.005,-1.224 -0.786,-2.407 -2.557,-2.323 -1.755,0.083 -2.369,1.099 -2.14,2.578 0.228,1.48 1.072,2.77 1.405,4.245 0.339,1.468 0.542,3.005 0.647,4.219 0.119,1.374 0.687,2.016 1.145,2.156 1.136,0.38 2.027,0.172 2.027,0.172"
     id="path1037" />
  <path
     style="fill:none;stroke:#231f20;stroke-width:0.565977;stroke-linecap:butt;stroke-linejoin:miter;stroke-miterlimit:4;stroke-dasharray:none;stroke-opacity:1"
     d="m 153.548,98.172 c 1.271,-0.271 0.484,-2.151 0.353,-2.672 -0.134,-0.531 -0.333,-2.074 -0.333,-3.298 -0.005,-1.224 -0.536,-2.749 -0.547,-5.077 -0.005,-1.224 -0.786,-2.407 -2.557,-2.323 -1.755,0.083 -2.369,1.099 -2.14,2.578 0.228,1.48 1.072,2.77 1.405,4.245 0.339,1.468 0.542,3.005 0.647,4.219 0.119,1.374 0.687,2.016 1.145,2.156 1.136,0.38 2.027,0.172 2.027,0.172 z"
     id="path1038" />
  <path
     style="fill:#231f20;fill-opacity:1;fill-rule:nonzero;stroke:none"
     d="m 184.469,95.354 c 0.188,-2.25 0.526,-2.666 1.49,-2.652 0.641,0.011 1.229,-0.202 1.614,-0.208 1.303,-0.046 3.5,0.423 9.396,3.366 1.328,0.672 3.203,1.593 4.011,1.91 1.249,0.506 -0.432,2.256 -0.932,2.063 -1.6,-0.615 -2.745,-0.901 -3.349,-1.047 -0.423,-0.098 -1.131,-0.369 -2.792,-0.536 -2.511,-0.261 -4.058,-0.042 -6.126,-0.505 -0.957,-0.209 -1.812,0.244 -2.645,-0.448 -0.844,-0.688 -0.667,-1.943 -0.667,-1.943"
     id="path1039" />
  <path
     style="fill:none;stroke:#231f20;stroke-width:0.565977;stroke-linecap:butt;stroke-linejoin:miter;stroke-miterlimit:4;stroke-dasharray:none;stroke-opacity:1"
     d="m 184.469,95.354 c 0.188,-2.25 0.526,-2.666 1.49,-2.652 0.641,0.011 1.229,-0.202 1.614,-0.208 1.303,-0.046 3.5,0.423 9.396,3.366 1.328,0.672 3.203,1.593 4.011,1.91 1.249,0.506 -0.432,2.256 -0.932,2.063 -1.6,-0.615 -2.745,-0.901 -3.349,-1.047 -0.423,-0.098 -1.131,-0.369 -2.792,-0.536 -2.511,-0.261 -4.058,-0.042 -6.126,-0.505 -0.957,-0.209 -1.812,0.244 -2.645,-0.448 -0.844,-0.688 -0.667,-1.943 -0.667,-1.943 z"
     id="path1040" />
  <path
     style="fill:#231f20;fill-opacity:1;fill-rule:nonzero;stroke:#231f20;stroke-width:0.565977;stroke-linecap:round;stroke-linejoin:round;stroke-miterlimit:4;stroke-dasharray:none;stroke-opacity:1"
     d="m 186.172,97.193 c -1.088,0.916 -3.036,-0.011 -3.38,0 -5.011,0.031 -5.369,-0.089 -9.188,-0.324 -5.515,-0.343 -9.239,-1.427 -9.979,-4.697 -0.5,-2.219 0.178,-3.708 1.26,-4.454 1.21,-0.817 4.36,-1.202 6.188,1.038 l 1.62,0.556 c 1.14,0.24 1.698,0.36 2.271,0.438 0.989,0.119 2.052,0.318 3.973,0.667 3.423,0.629 6.83,2.405 6.83,2.405 0.301,0.068 0.525,0.23 0.692,0.443"
     id="path1041" />
  <path
     style="fill:#63c99d;fill-opacity:1;fill-rule:nonzero;stroke:#231f20;stroke-width:0.565977;stroke-linecap:butt;stroke-linejoin:miter;stroke-miterlimit:4;stroke-dasharray:none;stroke-opacity:1"
     d="m 170.937,88.745 c -1.9,-2.172 -5.041,-1.667 -6.213,-0.803 -1.063,0.782 -1.676,2.308 -1.099,4.5 0.38,1.423 1.339,2.391 2.746,3.052 0.822,0.647 1.333,1.006 2.114,0.792 0.067,-0.016 0.146,-0.026 0.224,-0.036 0.572,0.124 1.176,0.228 1.828,0.302 z"
     id="path1042" />
  <path
     style="fill:#231f20;fill-opacity:1;fill-rule:nonzero;stroke:none"
     d="m 203.324,98.213 c -0.595,-1.213 -1.584,-1.129 -2.308,-0.391 -0.219,0.219 -0.635,0.183 -0.828,0.418 -0.453,0.541 -0.24,2.27 1.251,2.458 0.104,0.015 0.848,0.353 1.442,0.525 1.171,0.323 3.667,0.422 5.624,-1.426 0.928,-0.876 0.24,-1.261 -0.244,-1.027 -1.532,0.766 -1.813,0.532 -2.292,0.584 -1.609,0.187 -2.645,-1.141 -2.645,-1.141"
     id="path1043" />
  <path
     style="fill:none;stroke:#231f20;stroke-width:0.332927;stroke-linecap:butt;stroke-linejoin:miter;stroke-miterlimit:4;stroke-dasharray:none;stroke-opacity:1"
     d="m 203.324,98.213 c -0.595,-1.213 -1.584,-1.129 -2.308,-0.391 -0.219,0.219 -0.635,0.183 -0.828,0.418 -0.453,0.541 -0.24,2.27 1.251,2.458 0.104,0.015 0.848,0.353 1.442,0.525 1.171,0.323 3.667,0.422 5.624,-1.426 0.928,-0.876 0.24,-1.261 -0.244,-1.027 -1.532,0.766 -1.813,0.532 -2.292,0.584 -1.609,0.187 -2.645,-1.141 -2.645,-1.141 z"
     id="path1044" />
  <path
     style="fill:#231f20;fill-opacity:1;fill-rule:nonzero;stroke:none"
     d="m 150.787,108.718 c 0,1.183 0.953,2.136 2.13,2.136 1.183,0 2.135,-0.953 2.135,-2.136 0,-1.177 -0.952,-2.131 -2.135,-2.131 -1.177,0 -2.13,0.954 -2.13,2.131"
     id="path1045" />
  <path
     style="fill:none;stroke:#231f20;stroke-width:0.399514;stroke-linecap:butt;stroke-linejoin:miter;stroke-miterlimit:4;stroke-dasharray:none;stroke-opacity:1"
     d="m 185.511,102.822 c 19.166,-18.286 10.505,-28.348 2.516,-25.729"
     id="path1046" />
  <path
     style="fill:#231f20;fill-opacity:1;fill-rule:nonzero;stroke:none"
     d="m 186.876,77.469 c 0.473,-0.376 1.036,-0.937 1.328,-1.433 l -0.027,1.01 0.62,0.792 c -0.53,-0.224 -1.312,-0.349 -1.921,-0.369"
     id="path1047" />
</svg>
