<?xml version="1.0" encoding="UTF-8" standalone="no"?>
<!-- Created with Inkscape (http://www.inkscape.org/) -->

<svg
   version="1.1"
   id="svg1"
   width="349.25806"
   height="121.18098"
   viewBox="0 0 349.25804 121.18098"
   sodipodi:docname="cell.svg"
   xmlns:inkscape="http://www.inkscape.org/namespaces/inkscape"
   xmlns:sodipodi="http://sodipodi.sourceforge.net/DTD/sodipodi-0.dtd"
   xmlns="http://www.w3.org/2000/svg"
   xmlns:svg="http://www.w3.org/2000/svg">
  <sodipodi:namedview
     id="namedview1"
     pagecolor="#ffffff"
     bordercolor="#000000"
     borderopacity="0.25"
     inkscape:showpageshadow="2"
     inkscape:pageopacity="0.0"
     inkscape:pagecheckerboard="0"
     inkscape:deskcolor="#d1d1d1">
    <inkscape:page
       x="0"
       y="0"
       inkscape:label="1"
       id="page1"
       width="349.25803"
       height="121.18098"
       margin="0"
       bleed="0" />
  </sodipodi:namedview>
  <defs
     id="defs1" />
  <path
     style="fill:none;stroke:#231f20;stroke-width:0.399514;stroke-linecap:butt;stroke-linejoin:miter;stroke-miterlimit:4;stroke-dasharray:none;stroke-opacity:1"
     d="M 111.78113,92.282651 C 98.297128,115.08565 64.978128,106.76265 58.983828,102.65765"
     id="path187" />
  <path
     style="fill:#231f20;fill-opacity:1;fill-rule:nonzero;stroke:none"
     d="m 57.989028,101.97665 c 0.5891,0.15 1.3692,0.254 1.9427,0.181 l -0.8177,0.589 -0.2558,0.979 c -0.1452,-0.557 -0.5202,-1.255 -0.8692,-1.749"
     id="path188" />
  <path
     style="fill:#63c99d;fill-opacity:1;fill-rule:nonzero;stroke:none"
     d="m 79.098128,72.834651 c 0.182,3.131 -0.12,3.823 -0.432,4.694 -1.953,5.437 0.755,6.296 3.557,5.609 3.292,-0.803 4.49,-1.032 3.526,-7.245 -0.271,-1.739 -0.427,-8.506 -0.427,-8.506 0.265,-2.437 -0.765,-4.953 -2.016,-5.697 -1.322,-0.781 -0.859,-0.375 -2.208,-0.88 -1.292,-0.485 -3.442,-0.104 -4.068,0.963 -0.598,1.026 0.209,2.485 1.09,4.74 0.702,1.781 0.978,6.322 0.978,6.322"
     id="path189" />
  <path
     style="fill:none;stroke:#231f20;stroke-width:0.565977;stroke-linecap:butt;stroke-linejoin:miter;stroke-miterlimit:4;stroke-dasharray:none;stroke-opacity:1"
     d="m 79.098128,72.834651 c 0.182,3.131 -0.12,3.823 -0.432,4.694 -1.953,5.437 0.755,6.296 3.557,5.609 3.292,-0.803 4.49,-1.032 3.526,-7.245 -0.271,-1.739 -0.427,-8.506 -0.427,-8.506 0.265,-2.437 -0.765,-4.953 -2.016,-5.697 -1.322,-0.781 -0.859,-0.375 -2.208,-0.88 -1.292,-0.485 -3.442,-0.104 -4.068,0.963 -0.598,1.026 0.209,2.485 1.09,4.74 0.702,1.781 0.978,6.322 0.978,6.322 z"
     id="path190" />
  <path
     style="fill:#231f20;fill-opacity:1;fill-rule:nonzero;stroke:none"
     d="m 87.125128,97.616651 c -2.24,0.365 -2.621,0.734 -2.527,1.693 0.058,0.64 -0.104,1.238999 -0.083,1.628999 0.058,1.298 0.693,3.459 4.088,9.095 0.777,1.276 1.844,3.072 2.219,3.853 0.604,1.21 2.219,-0.609 1.989,-1.093 -0.738,-1.541 -1.12,-2.667 -1.312,-3.255 -0.13,-0.412 -0.458,-1.1 -0.755,-2.74 -0.453,-2.484 -0.354,-4.041 -0.979,-6.062 -0.281,-0.942999 0.098,-1.827999 -0.651,-2.603999 -0.751,-0.792 -1.989,-0.516 -1.989,-0.516"
     id="path191" />
  <path
     style="fill:none;stroke:#231f20;stroke-width:0.565977;stroke-linecap:butt;stroke-linejoin:miter;stroke-miterlimit:4;stroke-dasharray:none;stroke-opacity:1"
     d="m 87.125128,97.616651 c -2.24,0.365 -2.621,0.734 -2.527,1.693 0.058,0.64 -0.104,1.238999 -0.083,1.628999 0.058,1.298 0.693,3.459 4.088,9.095 0.777,1.276 1.844,3.072 2.219,3.853 0.604,1.21 2.219,-0.609 1.989,-1.093 -0.738,-1.541 -1.12,-2.667 -1.312,-3.255 -0.13,-0.412 -0.458,-1.1 -0.755,-2.74 -0.453,-2.484 -0.354,-4.041 -0.979,-6.062 -0.281,-0.942999 0.098,-1.827999 -0.651,-2.603999 -0.751,-0.792 -1.989,-0.516 -1.989,-0.516 z"
     id="path192" />
  <path
     style="fill:#231f20;fill-opacity:1;fill-rule:nonzero;stroke:#231f20;stroke-width:0.565977;stroke-linecap:round;stroke-linejoin:round;stroke-miterlimit:4;stroke-dasharray:none;stroke-opacity:1"
     d="m 89.087128,99.168651 c 0.824,-1.156 -0.249,-3.026 -0.265,-3.364 -0.359,-5 -0.511,-5.35 -1.042,-9.131 -0.776,-5.473 -2.146,-9.109 -5.463,-9.583 -2.249,-0.328 -3.687,0.463 -4.344,1.599 -0.724,1.271 -0.853,4.448 1.521,6.088 l 0.683,1.573 c 0.327,1.12 0.494,1.667 0.609,2.23 0.198,0.978 0.479,2.016 0.979,3.91 0.896,3.36 2.932,6.615 2.932,6.615 0.089,0.297 0.276,0.511 0.5,0.657"
     id="path193" />
  <path
     style="fill:#63c99d;fill-opacity:1;fill-rule:nonzero;stroke:none"
     d="m 86.780128,81.834651 c 0,-0.077 0.006,-0.161 0.021,-0.229 0.146,-0.785 -0.25,-1.271 -0.947,-2.031 -0.772,-1.354 -1.819,-2.24 -3.272,-2.505 -2.228,-0.407 -3.697,0.328 -4.4,1.443 -0.767,1.234 -1.021,4.406 1.291,6.136 l 7.75,-1.016 c -0.125,-0.646 -0.276,-1.235 -0.443,-1.798"
     id="path194" />
  <path
     style="fill:none;stroke:#231f20;stroke-width:0.565977;stroke-linecap:butt;stroke-linejoin:miter;stroke-miterlimit:4;stroke-dasharray:none;stroke-opacity:1"
     d="m 86.780128,81.834651 c 0,-0.077 0.006,-0.161 0.021,-0.229 0.146,-0.785 -0.25,-1.271 -0.947,-2.031 -0.772,-1.354 -1.819,-2.24 -3.272,-2.505 -2.228,-0.407 -3.697,0.328 -4.4,1.443 -0.767,1.234 -1.021,4.406 1.291,6.136 l 7.75,-1.016 c -0.125,-0.646 -0.276,-1.235 -0.443,-1.798 z"
     id="path195" />
  <path
     style="fill:#63c99d;fill-opacity:1;fill-rule:nonzero;stroke:none"
     d="m 136.70713,69.090651 c -2.016,2.396 -2.708,2.692 -3.536,3.11 -5.156,2.609 -3.781,5.093 -1.27,6.514 2.942,1.683 3.968,2.339 7.546,-2.833 0.995,-1.452 5.531,-6.479 5.531,-6.479 1.871,-1.582 2.849,-4.12 2.453,-5.521 -0.421,-1.479 -0.364,-0.864 -1,-2.156 -0.604,-1.239 -2.432,-2.443 -3.62,-2.093 -1.14,0.328 -1.557,1.942 -2.462,4.192 -0.719,1.776 -3.642,5.266 -3.642,5.266"
     id="path196" />
  <path
     style="fill:none;stroke:#231f20;stroke-width:0.565977;stroke-linecap:butt;stroke-linejoin:miter;stroke-miterlimit:4;stroke-dasharray:none;stroke-opacity:1"
     d="m 136.70713,69.090651 c -2.016,2.396 -2.708,2.692 -3.536,3.11 -5.156,2.609 -3.781,5.093 -1.27,6.514 2.942,1.683 3.968,2.339 7.546,-2.833 0.995,-1.452 5.531,-6.479 5.531,-6.479 1.871,-1.582 2.849,-4.12 2.453,-5.521 -0.421,-1.479 -0.364,-0.864 -1,-2.156 -0.604,-1.239 -2.432,-2.443 -3.62,-2.093 -1.14,0.328 -1.557,1.942 -2.462,4.192 -0.719,1.776 -3.642,5.266 -3.642,5.266 z"
     id="path197" />
  <path
     style="fill:#ffffff;fill-opacity:1;fill-rule:nonzero;stroke:none"
     d="m 149.82213,55.538651 c 0.099,-0.218 1.235,-0.037 1.36,-0.542 0.124,-0.515 -0.573,-0.886 -0.975,-2.834 l -0.005,-0.02 c -0.244,-1.437 -1.036,-2.578 -2.224,-2.974 -1.979,-0.651 -4.291,0.994 -5.181,3.672 -0.886,2.688 0,5.39 1.968,6.046 1.885,0.62 4.098,-0.864 5.057,-3.348"
     id="path198" />
  <path
     style="fill:none;stroke:#231f20;stroke-width:0.565977;stroke-linecap:butt;stroke-linejoin:miter;stroke-miterlimit:4;stroke-dasharray:none;stroke-opacity:1"
     d="m 149.82213,55.538651 c 0.099,-0.218 1.235,-0.037 1.36,-0.542 0.124,-0.515 -0.573,-0.886 -0.975,-2.834 l -0.005,-0.02 c -0.244,-1.437 -1.036,-2.578 -2.224,-2.974 -1.979,-0.651 -4.291,0.994 -5.181,3.672 -0.886,2.688 0,5.39 1.968,6.046 1.885,0.62 4.098,-0.864 5.057,-3.348 z"
     id="path199" />
  <path
     style="fill:#231f20;fill-opacity:1;fill-rule:nonzero;stroke:none"
     d="m 124.42113,91.834651 c -1.787,-1.39 -2.323,-1.416 -2.958,-0.697 -0.428,0.479 -0.98,0.765 -1.256,1.047 -0.906,0.921 -2.052,2.864 -3.874,9.192999 -0.407,1.427 -1,3.437 -1.312,4.244 -0.475,1.26 1.957,1.213 2.15,0.713 0.63,-1.598 1.192,-2.64 1.5,-3.177 0.208,-0.375 0.484,-1.083 1.49,-2.416 1.51,-2.026999 2.718,-3.015999 3.776,-4.848999 0.494,-0.848 1.406,-1.167 1.458,-2.25 0.072,-1.089 -0.974,-1.808 -0.974,-1.808"
     id="path200" />
  <path
     style="fill:none;stroke:#231f20;stroke-width:0.565977;stroke-linecap:butt;stroke-linejoin:miter;stroke-miterlimit:4;stroke-dasharray:none;stroke-opacity:1"
     d="m 124.42113,91.834651 c -1.787,-1.39 -2.323,-1.416 -2.958,-0.697 -0.428,0.479 -0.98,0.765 -1.256,1.047 -0.906,0.921 -2.052,2.864 -3.874,9.192999 -0.407,1.427 -1,3.437 -1.312,4.244 -0.475,1.26 1.957,1.213 2.15,0.713 0.63,-1.598 1.192,-2.64 1.5,-3.177 0.208,-0.375 0.484,-1.083 1.49,-2.416 1.51,-2.026999 2.718,-3.015999 3.776,-4.848999 0.494,-0.848 1.406,-1.167 1.458,-2.25 0.072,-1.089 -0.974,-1.808 -0.974,-1.808 z"
     id="path201" />
  <path
     style="fill:#231f20;fill-opacity:1;fill-rule:nonzero;stroke:#231f20;stroke-width:0.565977;stroke-linecap:round;stroke-linejoin:round;stroke-miterlimit:4;stroke-dasharray:none;stroke-opacity:1"
     d="m 124.61913,94.329651 c 1.411,-0.181 2.052,-2.239 2.287,-2.484 3.421,-3.661 3.572,-4.016 5.979,-6.979 3.484,-4.297 5.213,-7.77 3.306,-10.526 -1.296,-1.87 -2.848,-2.386 -4.134,-2.088 -1.423,0.333 -3.839,2.396 -3.423,5.254 l -0.692,1.568 c -0.593,1.006 -0.88,1.5 -1.213,1.97 -0.584,0.812 -1.156,1.722 -2.199,3.38 -1.848,2.942 -2.848,6.65 -2.848,6.65 -0.161,0.266 -0.188,0.542 -0.141,0.807"
     id="path202" />
  <path
     style="fill:#63c99d;fill-opacity:1;fill-rule:nonzero;stroke:none"
     d="m 136.38513,74.522651 c -1.224,-1.912 -2.755,-2.489 -4.052,-2.245 -1.432,0.281 -3.927,2.256 -3.62,5.125 l 6.021,4.984 c 0.385,-0.525 0.713,-1.041 1.015,-1.541 0.057,-0.052 0.12,-0.104 0.182,-0.14 0.683,-0.433 0.76,-1.052 0.844,-2.084 0.47,-1.489 0.407,-2.849 -0.39,-4.099"
     id="path203" />
  <path
     style="fill:none;stroke:#231f20;stroke-width:0.565977;stroke-linecap:butt;stroke-linejoin:miter;stroke-miterlimit:4;stroke-dasharray:none;stroke-opacity:1"
     d="m 136.38513,74.522651 c -1.224,-1.912 -2.755,-2.489 -4.052,-2.245 -1.432,0.281 -3.927,2.256 -3.62,5.125 l 6.021,4.984 c 0.385,-0.525 0.713,-1.041 1.015,-1.541 0.057,-0.052 0.12,-0.104 0.182,-0.14 0.683,-0.433 0.76,-1.052 0.844,-2.084 0.47,-1.489 0.407,-2.849 -0.39,-4.099 z"
     id="path204" />
  <path
     style="fill:#231f20;fill-opacity:1;fill-rule:nonzero;stroke:none"
     d="m 113.76513,107.64865 c -0.495,-1.262 0.24,-1.928 1.27,-1.97 0.308,-0.005 0.563,-0.338 0.866,-0.328 0.702,0.036 1.833,1.364 0.968,2.588 -0.068,0.084 -0.318,0.866 -0.594,1.423 -0.552,1.077 -2.172,2.979 -4.854,3.177 -1.276,0.083 -1.099,-0.682 -0.594,-0.881 1.599,-0.609 1.626,-0.973 1.984,-1.291 1.23,-1.057 0.954,-2.718 0.954,-2.718"
     id="path205" />
  <path
     style="fill:none;stroke:#231f20;stroke-width:0.332927;stroke-linecap:butt;stroke-linejoin:miter;stroke-miterlimit:4;stroke-dasharray:none;stroke-opacity:1"
     d="m 113.76513,107.64865 c -0.495,-1.262 0.24,-1.928 1.27,-1.97 0.308,-0.005 0.563,-0.338 0.866,-0.328 0.702,0.036 1.833,1.364 0.968,2.588 -0.068,0.084 -0.318,0.866 -0.594,1.423 -0.552,1.077 -2.172,2.979 -4.854,3.177 -1.276,0.083 -1.099,-0.682 -0.594,-0.881 1.599,-0.609 1.626,-0.973 1.984,-1.291 1.23,-1.057 0.954,-2.718 0.954,-2.718 z"
     id="path206" />
  <path
     style="fill:#ffffff;fill-opacity:1;fill-rule:nonzero;stroke:none"
     d="m 0.33292783,85.096651 c 0,0.686 0.5521,1.244 1.24009997,1.244 H 347.68713 c 0.681,0 1.238,-0.558 1.238,-1.244 0,-0.683 -0.557,-1.235 -1.238,-1.235 H 1.5730278 c -0.68799997,0 -1.24009997,0.552 -1.24009997,1.235"
     id="path207" />
  <path
     style="fill:none;stroke:#231f20;stroke-width:0.665856;stroke-linecap:butt;stroke-linejoin:miter;stroke-miterlimit:4;stroke-dasharray:none;stroke-opacity:1"
     d="m 0.33292783,85.096651 c 0,0.686 0.5521,1.244 1.24009997,1.244 H 347.68713 c 0.681,0 1.238,-0.558 1.238,-1.244 0,-0.683 -0.557,-1.235 -1.238,-1.235 H 1.5730278 c -0.68799997,0 -1.24009997,0.552 -1.24009997,1.235 z"
     id="path208" />
  <path
     style="fill:#231f20;fill-opacity:1;fill-rule:nonzero;stroke:none"
     d="m 300.72813,74.632651 c -1.286,0.188 -1.204,-1.85 -1.261,-2.386 -0.057,-0.541 -0.405,-2.057 -0.828,-3.208 -0.421,-1.146 -0.457,-2.761 -1.255,-4.948 -0.417,-1.146 -0.098,-2.532 1.594,-3.068 1.672,-0.532 2.604,0.208 2.896,1.678 0.302,1.462 -0.042,2.968 0.156,4.468 0.198,1.5 0.537,3.01 0.86,4.177 0.369,1.333 0.057,2.131 -0.318,2.427 -0.938,0.74 -1.844,0.86 -1.844,0.86"
     id="path209" />
  <path
     style="fill:none;stroke:#231f20;stroke-width:0.565977;stroke-linecap:butt;stroke-linejoin:miter;stroke-miterlimit:4;stroke-dasharray:none;stroke-opacity:1"
     d="m 300.72813,74.632651 c -1.286,0.188 -1.204,-1.85 -1.261,-2.386 -0.057,-0.541 -0.405,-2.057 -0.828,-3.208 -0.421,-1.146 -0.457,-2.761 -1.255,-4.948 -0.417,-1.146 -0.098,-2.532 1.594,-3.068 1.672,-0.532 2.604,0.208 2.896,1.678 0.302,1.462 -0.042,2.968 0.156,4.468 0.198,1.5 0.537,3.01 0.86,4.177 0.369,1.333 0.057,2.131 -0.318,2.427 -0.938,0.74 -1.844,0.86 -1.844,0.86 z"
     id="path210" />
  <path
     style="fill:#231f20;fill-opacity:1;fill-rule:nonzero;stroke:none"
     d="m 305.10813,82.834651 c 0.192,-0.614 -0.588,-2.396 -0.62,-4.005 -0.021,-1.083 -1.192,-3.567 -1.134,-4.651 0.052,-0.989 -0.016,-1.453 -1.142,-1.708 -0.661,-0.15 -2.041,-0.016 -2.182,0.479 -0.312,1.147 -0.192,2.089 0.166,3.095 0.407,1.145 1.792,4.156 2.095,4.686 0.765,1.318 0.656,2.047 0.828,2.418 0.317,0.692 0.656,0.738 1.151,0.629 0.937,-0.208 0.838,-0.943 0.838,-0.943"
     id="path211" />
  <path
     style="fill:none;stroke:#231f20;stroke-width:0.565977;stroke-linecap:butt;stroke-linejoin:miter;stroke-miterlimit:4;stroke-dasharray:none;stroke-opacity:1"
     d="m 305.10813,82.834651 c 0.192,-0.614 -0.588,-2.396 -0.62,-4.005 -0.021,-1.083 -1.192,-3.567 -1.134,-4.651 0.052,-0.989 -0.016,-1.453 -1.142,-1.708 -0.661,-0.15 -2.041,-0.016 -2.182,0.479 -0.312,1.147 -0.192,2.089 0.166,3.095 0.407,1.145 1.792,4.156 2.095,4.686 0.765,1.318 0.656,2.047 0.828,2.418 0.317,0.692 0.656,0.738 1.151,0.629 0.937,-0.208 0.838,-0.943 0.838,-0.943 z"
     id="path212" />
  <path
     style="fill:#231f20;fill-opacity:1;fill-rule:nonzero;stroke:none"
     d="m 285.48813,74.490651 c 1.298,0.043 0.995,-1.968 1,-2.509 0,-0.543 0.183,-2.089 0.475,-3.276 0.296,-1.188 0.156,-2.797 0.713,-5.057 0.291,-1.188 -0.172,-2.532 -1.917,-2.882 -1.713,-0.342 -2.563,0.491 -2.697,1.98 -0.136,1.495 0.358,2.948 0.328,4.463 -0.036,1.511 -0.208,3.048 -0.407,4.245 -0.219,1.366 0.177,2.12 0.584,2.38 1.011,0.631 1.921,0.656 1.921,0.656"
     id="path213" />
  <path
     style="fill:none;stroke:#231f20;stroke-width:0.565977;stroke-linecap:butt;stroke-linejoin:miter;stroke-miterlimit:4;stroke-dasharray:none;stroke-opacity:1"
     d="m 285.48813,74.490651 c 1.298,0.043 0.995,-1.968 1,-2.509 0,-0.543 0.183,-2.089 0.475,-3.276 0.296,-1.188 0.156,-2.797 0.713,-5.057 0.291,-1.188 -0.172,-2.532 -1.917,-2.882 -1.713,-0.342 -2.563,0.491 -2.697,1.98 -0.136,1.495 0.358,2.948 0.328,4.463 -0.036,1.511 -0.208,3.048 -0.407,4.245 -0.219,1.366 0.177,2.12 0.584,2.38 1.011,0.631 1.921,0.656 1.921,0.656 z"
     id="path214" />
  <path
     style="fill:#231f20;fill-opacity:1;fill-rule:nonzero;stroke:none"
     d="m 282.02013,83.116651 c -0.261,-0.588 0.328,-2.448 0.187,-4.052 -0.099,-1.078 0.797,-3.672 0.62,-4.74 -0.156,-0.984 -0.136,-1.448 0.953,-1.823 0.64,-0.224 2.031,-0.235 2.219,0.24 0.437,1.109 0.416,2.052 0.167,3.093 -0.276,1.183 -1.328,4.323 -1.574,4.886 -0.62,1.39 -0.432,2.104 -0.562,2.489 -0.239,0.724 -0.578,0.808 -1.078,0.756 -0.953,-0.104 -0.932,-0.849 -0.932,-0.849"
     id="path215" />
  <path
     style="fill:none;stroke:#231f20;stroke-width:0.565977;stroke-linecap:butt;stroke-linejoin:miter;stroke-miterlimit:4;stroke-dasharray:none;stroke-opacity:1"
     d="m 282.02013,83.116651 c -0.261,-0.588 0.328,-2.448 0.187,-4.052 -0.099,-1.078 0.797,-3.672 0.62,-4.74 -0.156,-0.984 -0.136,-1.448 0.953,-1.823 0.64,-0.224 2.031,-0.235 2.219,0.24 0.437,1.109 0.416,2.052 0.167,3.093 -0.276,1.183 -1.328,4.323 -1.574,4.886 -0.62,1.39 -0.432,2.104 -0.562,2.489 -0.239,0.724 -0.578,0.808 -1.078,0.756 -0.953,-0.104 -0.932,-0.849 -0.932,-0.849 z"
     id="path216" />
  <path
     style="fill:#231f20;fill-opacity:1;fill-rule:nonzero;stroke:none"
     d="m 91.759128,115.85665 c -1.338,-0.208 -1.546,-1.178 -1.057,-2.09 0.147,-0.27 -0.011,-0.661 0.152,-0.91 0.38,-0.594 2.099,-0.902 2.724,0.464 0.042,0.098 0.588,0.708 0.926,1.222 0.657,1.022 1.485,3.376 0.302,5.798 -0.561,1.146 -1.129,0.598 -1.052,0.068 0.276,-1.688 -0.025,-1.891 -0.12,-2.364 -0.296,-1.59 -1.875,-2.188 -1.875,-2.188"
     id="path217" />
  <path
     style="fill:none;stroke:#231f20;stroke-width:0.332927;stroke-linecap:butt;stroke-linejoin:miter;stroke-miterlimit:4;stroke-dasharray:none;stroke-opacity:1"
     d="m 91.759128,115.85665 c -1.338,-0.208 -1.546,-1.178 -1.057,-2.09 0.147,-0.27 -0.011,-0.661 0.152,-0.91 0.38,-0.594 2.099,-0.902 2.724,0.464 0.042,0.098 0.588,0.708 0.926,1.222 0.657,1.022 1.485,3.376 0.302,5.798 -0.561,1.146 -1.129,0.598 -1.052,0.068 0.276,-1.688 -0.025,-1.891 -0.12,-2.364 -0.296,-1.59 -1.875,-2.188 -1.875,-2.188 z"
     id="path218" />
  <path
     style="fill:#ffffff;fill-opacity:1;fill-rule:nonzero;stroke:none"
     d="m 84.568128,56.006651 c 0.088,-0.229 1.233,-0.098 1.333,-0.609 0.103,-0.516 -0.615,-0.859 -1.11,-2.781 l -0.005,-0.026 c -0.308,-1.417 -1.156,-2.521 -2.365,-2.86 -2,-0.557 -4.234,1.203 -4.995,3.918 -0.755,2.729 0.261,5.385 2.256,5.942 1.91,0.536 4.047,-1.057 4.886,-3.584"
     id="path219" />
  <path
     style="fill:none;stroke:#231f20;stroke-width:0.565977;stroke-linecap:butt;stroke-linejoin:miter;stroke-miterlimit:4;stroke-dasharray:none;stroke-opacity:1"
     d="m 84.568128,56.006651 c 0.088,-0.229 1.233,-0.098 1.333,-0.609 0.103,-0.516 -0.615,-0.859 -1.11,-2.781 l -0.005,-0.026 c -0.308,-1.417 -1.156,-2.521 -2.365,-2.86 -2,-0.557 -4.234,1.203 -4.995,3.918 -0.755,2.729 0.261,5.385 2.256,5.942 1.91,0.536 4.047,-1.057 4.886,-3.584 z"
     id="path220" />
  <path
     style="fill:#231f20;fill-opacity:1;fill-rule:nonzero;stroke:none"
     d="m 76.280128,83.522651 c -0.286,-0.573 0.183,-2.469 -0.057,-4.057 -0.161,-1.073 0.578,-3.713 0.334,-4.771 -0.219,-0.969 -0.23,-1.437 0.833,-1.874 0.631,-0.267 2.016,-0.36 2.235,0.104 0.505,1.077 0.541,2.02 0.359,3.072 -0.209,1.198 -1.069,4.396 -1.271,4.974 -0.536,1.422 -0.307,2.126 -0.412,2.516 -0.198,0.739 -0.531,0.843 -1.031,0.823 -0.959,-0.047 -0.99,-0.787 -0.99,-0.787"
     id="path221" />
  <path
     style="fill:none;stroke:#231f20;stroke-width:0.565977;stroke-linecap:butt;stroke-linejoin:miter;stroke-miterlimit:4;stroke-dasharray:none;stroke-opacity:1"
     d="m 76.280128,83.522651 c -0.286,-0.573 0.183,-2.469 -0.057,-4.057 -0.161,-1.073 0.578,-3.713 0.334,-4.771 -0.219,-0.969 -0.23,-1.437 0.833,-1.874 0.631,-0.267 2.016,-0.36 2.235,0.104 0.505,1.077 0.541,2.02 0.359,3.072 -0.209,1.198 -1.069,4.396 -1.271,4.974 -0.536,1.422 -0.307,2.126 -0.412,2.516 -0.198,0.739 -0.531,0.843 -1.031,0.823 -0.959,-0.047 -0.99,-0.787 -0.99,-0.787 z"
     id="path222" />
  <path
     style="fill:#231f20;fill-opacity:1;fill-rule:nonzero;stroke:none"
     d="m 77.208128,74.506651 c -1.271,-0.27 -0.485,-2.15 -0.354,-2.672 0.135,-0.53 0.333,-2.072 0.333,-3.296 0.004,-1.224 0.536,-2.75 0.547,-5.078 0,-1.224 0.787,-2.412 2.557,-2.328 1.755,0.088 2.37,1.104 2.135,2.582 -0.224,1.48 -1.068,2.772 -1.401,4.246 -0.338,1.469 -0.547,3.005 -0.645,4.218 -0.121,1.375 -0.689,2.016 -1.146,2.156 -1.136,0.376 -2.026,0.172 -2.026,0.172"
     id="path223" />
  <path
     style="fill:none;stroke:#231f20;stroke-width:0.565977;stroke-linecap:butt;stroke-linejoin:miter;stroke-miterlimit:4;stroke-dasharray:none;stroke-opacity:1"
     d="m 77.208128,74.506651 c -1.271,-0.27 -0.485,-2.15 -0.354,-2.672 0.135,-0.53 0.333,-2.072 0.333,-3.296 0.004,-1.224 0.536,-2.75 0.547,-5.078 0,-1.224 0.787,-2.412 2.557,-2.328 1.755,0.088 2.37,1.104 2.135,2.582 -0.224,1.48 -1.068,2.772 -1.401,4.246 -0.338,1.469 -0.547,3.005 -0.645,4.218 -0.121,1.375 -0.689,2.016 -1.146,2.156 -1.136,0.376 -2.026,0.172 -2.026,0.172 z"
     id="path224" />
  <path
     style="fill:#231f20;fill-opacity:1;fill-rule:nonzero;stroke:none"
     d="m 79.968128,85.053651 c 0,1.177 -0.953,2.136 -2.135,2.136 -1.177,0 -2.131,-0.959 -2.131,-2.136 0,-1.177 0.954,-2.135 2.131,-2.135 1.182,0 2.135,0.958 2.135,2.135"
     id="path225" />
  <path
     style="fill:#63c99d;fill-opacity:1;fill-rule:nonzero;stroke:none"
     d="m 198.32713,57.481651 c -2.844,-1.319 -3.312,-1.912 -3.927,-2.6 -3.876,-4.285 -5.906,-2.307 -6.625,0.491 -0.849,3.281 -1.213,4.442 4.719,6.53 1.656,0.579 7.697,3.636 7.697,3.636 2.021,1.391 4.724,1.667 5.975,0.916 1.312,-0.792 0.74,-0.573 1.822,-1.525 1.032,-0.917 1.714,-2.991 1.068,-4.043 -0.62,-1.014 -2.286,-0.994 -4.693,-1.276 -1.9,-0.229 -6.036,-2.129 -6.036,-2.129"
     id="path226" />
  <path
     style="fill:none;stroke:#231f20;stroke-width:0.565977;stroke-linecap:butt;stroke-linejoin:miter;stroke-miterlimit:4;stroke-dasharray:none;stroke-opacity:1"
     d="m 198.32713,57.481651 c -2.844,-1.319 -3.312,-1.912 -3.927,-2.6 -3.876,-4.285 -5.906,-2.307 -6.625,0.491 -0.849,3.281 -1.213,4.442 4.719,6.53 1.656,0.579 7.697,3.636 7.697,3.636 2.021,1.391 4.724,1.667 5.975,0.916 1.312,-0.792 0.74,-0.573 1.822,-1.525 1.032,-0.917 1.714,-2.991 1.068,-4.043 -0.62,-1.014 -2.286,-0.994 -4.693,-1.276 -1.9,-0.229 -6.036,-2.129 -6.036,-2.129 z"
     id="path227" />
  <path
     style="fill:#ffffff;fill-opacity:1;fill-rule:nonzero;stroke:none"
     d="m 216.68213,65.209651 c 0.213,-0.119 1.025,0.693 1.421,0.36 0.401,-0.344 0.052,-1.052 0.869,-2.869 l 0.006,-0.022 c 0.641,-1.301 0.672,-2.697 -0.067,-3.708 -1.22,-1.688 -4.063,-1.704 -6.344,-0.052 -2.292,1.662 -3.152,4.37 -1.937,6.047 1.161,1.615 3.822,1.697 6.052,0.244"
     id="path228" />
  <path
     style="fill:none;stroke:#231f20;stroke-width:0.565977;stroke-linecap:butt;stroke-linejoin:miter;stroke-miterlimit:4;stroke-dasharray:none;stroke-opacity:1"
     d="m 216.68213,65.209651 c 0.213,-0.119 1.025,0.693 1.421,0.36 0.401,-0.344 0.052,-1.052 0.869,-2.869 l 0.006,-0.022 c 0.641,-1.301 0.672,-2.697 -0.067,-3.708 -1.22,-1.688 -4.063,-1.704 -6.344,-0.052 -2.292,1.662 -3.152,4.37 -1.937,6.047 1.161,1.615 3.822,1.697 6.052,0.244 z"
     id="path229" />
  <path
     style="fill:#231f20;fill-opacity:1;fill-rule:nonzero;stroke:none"
     d="m 201.49913,83.798651 c -0.292,-0.573 0.177,-2.464 -0.057,-4.052 -0.162,-1.078 0.573,-3.718 0.333,-4.776 -0.219,-0.969 -0.229,-1.432 0.833,-1.874 0.631,-0.262 2.016,-0.36 2.23,0.104 0.51,1.077 0.546,2.025 0.358,3.077 -0.208,1.199 -1.062,4.396 -1.27,4.969 -0.531,1.427 -0.302,2.131 -0.406,2.52 -0.198,0.735 -0.532,0.839 -1.032,0.824 -0.964,-0.048 -0.989,-0.792 -0.989,-0.792"
     id="path230" />
  <path
     style="fill:none;stroke:#231f20;stroke-width:0.565977;stroke-linecap:butt;stroke-linejoin:miter;stroke-miterlimit:4;stroke-dasharray:none;stroke-opacity:1"
     d="m 201.49913,83.798651 c -0.292,-0.573 0.177,-2.464 -0.057,-4.052 -0.162,-1.078 0.573,-3.718 0.333,-4.776 -0.219,-0.969 -0.229,-1.432 0.833,-1.874 0.631,-0.262 2.016,-0.36 2.23,0.104 0.51,1.077 0.546,2.025 0.358,3.077 -0.208,1.199 -1.062,4.396 -1.27,4.969 -0.531,1.427 -0.302,2.131 -0.406,2.52 -0.198,0.735 -0.532,0.839 -1.032,0.824 -0.964,-0.048 -0.989,-0.792 -0.989,-0.792 z"
     id="path231" />
  <path
     style="fill:#231f20;fill-opacity:1;fill-rule:nonzero;stroke:none"
     d="m 202.42013,74.788651 c -1.265,-0.276 -0.478,-2.156 -0.348,-2.678 0.13,-0.525 0.334,-2.066 0.334,-3.29 0.004,-1.23 0.536,-2.756 0.546,-5.084 0,-1.219 0.782,-2.407 2.552,-2.323 1.76,0.083 2.37,1.104 2.14,2.583 -0.229,1.48 -1.072,2.77 -1.405,4.24 -0.339,1.474 -0.543,3.01 -0.647,4.218 -0.12,1.375 -0.681,2.016 -1.14,2.162 -1.136,0.374 -2.032,0.172 -2.032,0.172"
     id="path232" />
  <path
     style="fill:none;stroke:#231f20;stroke-width:0.565977;stroke-linecap:butt;stroke-linejoin:miter;stroke-miterlimit:4;stroke-dasharray:none;stroke-opacity:1"
     d="m 202.42013,74.788651 c -1.265,-0.276 -0.478,-2.156 -0.348,-2.678 0.13,-0.525 0.334,-2.066 0.334,-3.29 0.004,-1.23 0.536,-2.756 0.546,-5.084 0,-1.219 0.782,-2.407 2.552,-2.323 1.76,0.083 2.37,1.104 2.14,2.583 -0.229,1.48 -1.072,2.77 -1.405,4.24 -0.339,1.474 -0.543,3.01 -0.647,4.218 -0.12,1.375 -0.681,2.016 -1.14,2.162 -1.136,0.374 -2.032,0.172 -2.032,0.172 z"
     id="path233" />
  <path
     style="fill:#231f20;fill-opacity:1;fill-rule:nonzero;stroke:none"
     d="m 174.34813,48.590651 c 1.25,-1.89 1.234,-2.428 0.468,-3.005 -0.51,-0.391 -0.844,-0.917 -1.14,-1.167 -0.994,-0.833 -3.015,-1.828 -9.458,-3.152 -1.459,-0.29 -3.511,-0.728 -4.333,-0.973 -1.303,-0.38 -1.063,2.036 -0.547,2.193 1.635,0.504 2.719,0.99 3.287,1.25 0.385,0.182 1.114,0.401 2.52,1.297 2.136,1.348 3.213,2.473 5.12,3.391 0.885,0.426 1.276,1.306 2.36,1.276 1.087,-0.011 1.723,-1.11 1.723,-1.11"
     id="path234" />
  <path
     style="fill:none;stroke:#231f20;stroke-width:0.565977;stroke-linecap:butt;stroke-linejoin:miter;stroke-miterlimit:4;stroke-dasharray:none;stroke-opacity:1"
     d="m 174.34813,48.590651 c 1.25,-1.89 1.234,-2.428 0.468,-3.005 -0.51,-0.391 -0.844,-0.917 -1.14,-1.167 -0.994,-0.833 -3.015,-1.828 -9.458,-3.152 -1.459,-0.29 -3.511,-0.728 -4.333,-0.973 -1.303,-0.38 -1.063,2.036 -0.547,2.193 1.635,0.504 2.719,0.99 3.287,1.25 0.385,0.182 1.114,0.401 2.52,1.297 2.136,1.348 3.213,2.473 5.12,3.391 0.885,0.426 1.276,1.306 2.36,1.276 1.087,-0.011 1.723,-1.11 1.723,-1.11 z"
     id="path235" />
  <path
     style="fill:#231f20;fill-opacity:1;fill-rule:nonzero;stroke:#231f20;stroke-width:0.565977;stroke-linecap:round;stroke-linejoin:round;stroke-miterlimit:4;stroke-dasharray:none;stroke-opacity:1"
     d="m 171.87413,48.986651 c 0.297,1.391 2.39,1.864 2.656,2.083 3.917,3.125 4.281,3.251 7.422,5.417 4.552,3.14 8.151,4.594 10.75,2.479 1.761,-1.437 2.156,-3.027 1.761,-4.287 -0.443,-1.39 -2.688,-3.634 -5.505,-3 l -1.62,-0.568 c -1.042,-0.514 -1.558,-0.765 -2.052,-1.057 -0.855,-0.52 -1.814,-1.015 -3.543,-1.932 -3.077,-1.615 -6.848,-2.323 -6.848,-2.323 -0.276,-0.136 -0.557,-0.145 -0.819,-0.078"
     id="path236" />
  <path
     style="fill:#63c99d;fill-opacity:1;fill-rule:nonzero;stroke:none"
     d="m 194.45813,54.960651 c -0.391,-1.407 -2.552,-3.74 -5.391,-3.208 l -4.5,6.385 c 0.557,0.344 1.093,0.629 1.615,0.891 0.057,0.057 0.114,0.114 0.156,0.172 0.484,0.65 1.114,0.676 2.15,0.681 1.516,0.349 2.87,0.177 4.047,-0.708 1.808,-1.369 2.265,-2.943 1.923,-4.213"
     id="path237" />
  <path
     style="fill:none;stroke:#231f20;stroke-width:0.565977;stroke-linecap:butt;stroke-linejoin:miter;stroke-miterlimit:4;stroke-dasharray:none;stroke-opacity:1"
     d="m 194.45813,54.960651 c -0.391,-1.407 -2.552,-3.74 -5.391,-3.208 l -4.5,6.385 c 0.557,0.344 1.093,0.629 1.615,0.891 0.057,0.057 0.114,0.114 0.156,0.172 0.484,0.65 1.114,0.676 2.15,0.681 1.516,0.349 2.87,0.177 4.047,-0.708 1.808,-1.369 2.265,-2.943 1.923,-4.213 z"
     id="path238" />
  <path
     style="fill:#231f20;fill-opacity:1;fill-rule:nonzero;stroke:none"
     d="m 157.76513,39.189651 c 1.213,-0.589 1.937,0.088 2.052,1.12 0.037,0.307 0.39,0.536 0.401,0.839 0.021,0.702 -1.219,1.932 -2.505,1.161 -0.094,-0.057 -0.891,-0.245 -1.464,-0.485 -1.119,-0.458 -3.146,-1.927 -3.542,-4.593 -0.186,-1.26 0.59,-1.14 0.823,-0.656 0.735,1.552 1.1,1.546 1.443,1.874 1.152,1.151 2.792,0.74 2.792,0.74"
     id="path239" />
  <path
     style="fill:none;stroke:#231f20;stroke-width:0.332927;stroke-linecap:butt;stroke-linejoin:miter;stroke-miterlimit:4;stroke-dasharray:none;stroke-opacity:1"
     d="m 157.76513,39.189651 c 1.213,-0.589 1.937,0.088 2.052,1.12 0.037,0.307 0.39,0.536 0.401,0.839 0.021,0.702 -1.219,1.932 -2.505,1.161 -0.094,-0.057 -0.891,-0.245 -1.464,-0.485 -1.119,-0.458 -3.146,-1.927 -3.542,-4.593 -0.186,-1.26 0.59,-1.14 0.823,-0.656 0.735,1.552 1.1,1.546 1.443,1.874 1.152,1.151 2.792,0.74 2.792,0.74 z"
     id="path240" />
  <path
     style="fill:#231f20;fill-opacity:1;fill-rule:nonzero;stroke:none"
     d="m 205.18713,85.334651 c 0,1.178 -0.959,2.131 -2.136,2.131 -1.177,0 -2.131,-0.953 -2.131,-2.131 0,-1.177 0.954,-2.134 2.131,-2.134 1.177,0 2.136,0.957 2.136,2.134"
     id="path241" />
  <path
     style="fill:#63c99d;fill-opacity:1;fill-rule:nonzero;stroke:none"
     d="m 234.15513,54.512651 c 0.208,-3.131 0.599,-3.782 1.016,-4.599 2.62,-5.156 0.036,-6.344 -2.823,-6.011 -3.37,0.38 -4.589,0.454 -4.417,6.746 0.057,1.754 -0.631,8.489 -0.631,8.489 -0.572,2.38 0.136,5.005 1.287,5.907 1.213,0.942 0.803,0.478 2.079,1.15 1.224,0.64 3.401,0.531 4.156,-0.448 0.724,-0.942 0.104,-2.494 -0.49,-4.838 -0.474,-1.86 -0.177,-6.396 -0.177,-6.396"
     id="path242" />
  <path
     style="fill:none;stroke:#231f20;stroke-width:0.565977;stroke-linecap:butt;stroke-linejoin:miter;stroke-miterlimit:4;stroke-dasharray:none;stroke-opacity:1"
     d="m 234.15513,54.512651 c 0.208,-3.131 0.599,-3.782 1.016,-4.599 2.62,-5.156 0.036,-6.344 -2.823,-6.011 -3.37,0.38 -4.589,0.454 -4.417,6.746 0.057,1.754 -0.631,8.489 -0.631,8.489 -0.572,2.38 0.136,5.005 1.287,5.907 1.213,0.942 0.803,0.478 2.079,1.15 1.224,0.64 3.401,0.531 4.156,-0.448 0.724,-0.942 0.104,-2.494 -0.49,-4.838 -0.474,-1.86 -0.177,-6.396 -0.177,-6.396 z"
     id="path243" />
  <path
     style="fill:#ffffff;fill-opacity:1;fill-rule:nonzero;stroke:none"
     d="m 231.73913,74.820651 c 0.156,0.186 -0.5,1.134 -0.095,1.462 0.412,0.334 1.047,-0.145 2.98,0.334 l 0.02,0.005 c 1.396,0.391 2.771,0.167 3.636,-0.745 1.438,-1.504 0.938,-4.302 -1.104,-6.25 -2.046,-1.948 -4.87,-2.302 -6.297,-0.802 -1.375,1.433 -0.979,4.068 0.86,5.996"
     id="path244" />
  <path
     style="fill:none;stroke:#231f20;stroke-width:0.565977;stroke-linecap:butt;stroke-linejoin:miter;stroke-miterlimit:4;stroke-dasharray:none;stroke-opacity:1"
     d="m 231.73913,74.820651 c 0.156,0.186 -0.5,1.134 -0.095,1.462 0.412,0.334 1.047,-0.145 2.98,0.334 l 0.02,0.005 c 1.396,0.391 2.771,0.167 3.636,-0.745 1.438,-1.504 0.938,-4.302 -1.104,-6.25 -2.046,-1.948 -4.87,-2.302 -6.297,-0.802 -1.375,1.433 -0.979,4.068 0.86,5.996 z"
     id="path245" />
  <path
     style="fill:#231f20;fill-opacity:1;fill-rule:nonzero;stroke:none"
     d="m 231.53013,84.110651 c -0.391,-0.51 -0.276,-2.457 -0.796,-3.973 -0.36,-1.032 -0.115,-3.765 -0.547,-4.756 -0.391,-0.916 -0.491,-1.369 0.479,-1.995 0.568,-0.374 1.912,-0.724 2.208,-0.306 0.698,0.964 0.906,1.885 0.917,2.953 0.015,1.219 -0.24,4.52 -0.339,5.124 -0.265,1.496 0.088,2.147 0.058,2.553 -0.058,0.76 -0.366,0.922 -0.86,0.99 -0.954,0.134 -1.12,-0.59 -1.12,-0.59"
     id="path246" />
  <path
     style="fill:none;stroke:#231f20;stroke-width:0.565977;stroke-linecap:butt;stroke-linejoin:miter;stroke-miterlimit:4;stroke-dasharray:none;stroke-opacity:1"
     d="m 231.53013,84.110651 c -0.391,-0.51 -0.276,-2.457 -0.796,-3.973 -0.36,-1.032 -0.115,-3.765 -0.547,-4.756 -0.391,-0.916 -0.491,-1.369 0.479,-1.995 0.568,-0.374 1.912,-0.724 2.208,-0.306 0.698,0.964 0.906,1.885 0.917,2.953 0.015,1.219 -0.24,4.52 -0.339,5.124 -0.265,1.496 0.088,2.147 0.058,2.553 -0.058,0.76 -0.366,0.922 -0.86,0.99 -0.954,0.134 -1.12,-0.59 -1.12,-0.59 z"
     id="path247" />
  <path
     style="fill:#231f20;fill-opacity:1;fill-rule:nonzero;stroke:none"
     d="m 230.79113,75.080651 c -1.297,-0.036 -0.871,-2.027 -0.839,-2.563 0.036,-0.547 -0.046,-2.099 -0.27,-3.303 -0.219,-1.208 0.02,-2.801 -0.396,-5.093 -0.219,-1.203 0.333,-2.511 2.088,-2.755 1.745,-0.234 2.532,0.651 2.578,2.151 0.042,1.489 -0.546,2.916 -0.609,4.427 -0.063,1.505 0.015,3.057 0.14,4.265 0.136,1.376 -0.307,2.105 -0.729,2.329 -1.047,0.578 -1.963,0.542 -1.963,0.542"
     id="path248" />
  <path
     style="fill:none;stroke:#231f20;stroke-width:0.565977;stroke-linecap:butt;stroke-linejoin:miter;stroke-miterlimit:4;stroke-dasharray:none;stroke-opacity:1"
     d="m 230.79113,75.080651 c -1.297,-0.036 -0.871,-2.027 -0.839,-2.563 0.036,-0.547 -0.046,-2.099 -0.27,-3.303 -0.219,-1.208 0.02,-2.801 -0.396,-5.093 -0.219,-1.203 0.333,-2.511 2.088,-2.755 1.745,-0.234 2.532,0.651 2.578,2.151 0.042,1.489 -0.546,2.916 -0.609,4.427 -0.063,1.505 0.015,3.057 0.14,4.265 0.136,1.376 -0.307,2.105 -0.729,2.329 -1.047,0.578 -1.963,0.542 -1.963,0.542 z"
     id="path249" />
  <path
     style="fill:#231f20;fill-opacity:1;fill-rule:nonzero;stroke:none"
     d="m 233.86313,28.933651 c 2.209,0.491 2.704,0.282 2.969,-0.64 0.183,-0.614 0.558,-1.114 0.683,-1.484 0.427,-1.224 0.629,-3.469 -0.448,-9.964 -0.251,-1.468 -0.573,-3.536 -0.641,-4.396 -0.11,-1.349 -2.282,-0.26 -2.244,0.276 0.114,1.708 0.052,2.896 0.009,3.516 -0.025,0.427 0.021,1.188 -0.307,2.818 -0.494,2.48 -1.161,3.89 -1.328,6 -0.084,0.985 -0.765,1.661 -0.349,2.661 0.401,1.011 1.656,1.213 1.656,1.213"
     id="path250" />
  <path
     style="fill:none;stroke:#231f20;stroke-width:0.565977;stroke-linecap:butt;stroke-linejoin:miter;stroke-miterlimit:4;stroke-dasharray:none;stroke-opacity:1"
     d="m 233.86313,28.933651 c 2.209,0.491 2.704,0.282 2.969,-0.64 0.183,-0.614 0.558,-1.114 0.683,-1.484 0.427,-1.224 0.629,-3.469 -0.448,-9.964 -0.251,-1.468 -0.573,-3.536 -0.641,-4.396 -0.11,-1.349 -2.282,-0.26 -2.244,0.276 0.114,1.708 0.052,2.896 0.009,3.516 -0.025,0.427 0.021,1.188 -0.307,2.818 -0.494,2.48 -1.161,3.89 -1.328,6 -0.084,0.985 -0.765,1.661 -0.349,2.661 0.401,1.011 1.656,1.213 1.656,1.213 z"
     id="path251" />
  <path
     style="fill:#231f20;fill-opacity:1;fill-rule:nonzero;stroke:#231f20;stroke-width:0.565977;stroke-linecap:round;stroke-linejoin:round;stroke-miterlimit:4;stroke-dasharray:none;stroke-opacity:1"
     d="m 232.60813,26.767651 c -1.193,0.772 -0.885,2.901 -0.994,3.224 -1.511,4.781 -1.5,5.162 -2.402,8.87 -1.297,5.38 -1.364,9.255 1.542,10.927 1.974,1.13 3.6,0.926 4.63,0.109 1.14,-0.911 2.438,-3.812 0.834,-6.219 l -0.052,-1.708 c 0.104,-1.166 0.156,-1.734 0.249,-2.302 0.183,-0.984 0.303,-2.052 0.537,-3.995 0.402,-3.453 -0.286,-7.229 -0.286,-7.229 0.025,-0.307 -0.068,-0.572 -0.224,-0.791"
     id="path252" />
  <path
     style="fill:#63c99d;fill-opacity:1;fill-rule:nonzero;stroke:none"
     d="m 236.19113,43.809651 -7.577,-1.917 c -0.12,0.646 -0.199,1.25 -0.251,1.833 -0.036,0.073 -0.067,0.147 -0.109,0.208 -0.432,0.683 -0.234,1.276 0.136,2.245 0.218,1.542 0.858,2.746 2.109,3.527 1.927,1.203 3.563,1.067 4.62,0.285 1.172,-0.869 2.583,-3.718 1.072,-6.181"
     id="path253" />
  <path
     style="fill:none;stroke:#231f20;stroke-width:0.565977;stroke-linecap:butt;stroke-linejoin:miter;stroke-miterlimit:4;stroke-dasharray:none;stroke-opacity:1"
     d="m 236.19113,43.809651 -7.577,-1.917 c -0.12,0.646 -0.199,1.25 -0.251,1.833 -0.036,0.073 -0.067,0.147 -0.109,0.208 -0.432,0.683 -0.234,1.276 0.136,2.245 0.218,1.542 0.858,2.746 2.109,3.527 1.927,1.203 3.563,1.067 4.62,0.285 1.172,-0.869 2.583,-3.718 1.072,-6.181 z"
     id="path254" />
  <path
     style="fill:#231f20;fill-opacity:1;fill-rule:nonzero;stroke:none"
     d="m 236.69113,10.075651 c 0.991,0.926 0.615,1.844 -0.301,2.322 -0.282,0.146 -0.366,0.552 -0.642,0.667 -0.65,0.276 -2.244,-0.437 -1.984,-1.916 0.016,-0.109 -0.088,-0.917 -0.073,-1.5430002 0.032,-1.213 0.672,-3.624 3.016,-4.948 1.115,-0.629 1.281,0.142 0.912,0.532 -1.183,1.24 -1.047,1.578 -1.235,2.02 -0.656,1.486 0.307,2.8660002 0.307,2.8660002"
     id="path255" />
  <path
     style="fill:none;stroke:#231f20;stroke-width:0.332927;stroke-linecap:butt;stroke-linejoin:miter;stroke-miterlimit:4;stroke-dasharray:none;stroke-opacity:1"
     d="m 236.69113,10.075651 c 0.991,0.926 0.615,1.844 -0.301,2.322 -0.282,0.146 -0.366,0.552 -0.642,0.667 -0.65,0.276 -2.244,-0.437 -1.984,-1.916 0.016,-0.109 -0.088,-0.917 -0.073,-1.5430002 0.032,-1.213 0.672,-3.624 3.016,-4.948 1.115,-0.629 1.281,0.142 0.912,0.532 -1.183,1.24 -1.047,1.578 -1.235,2.02 -0.656,1.486 0.307,2.8660002 0.307,2.8660002 z"
     id="path256" />
  <path
     style="fill:#231f20;fill-opacity:1;fill-rule:nonzero;stroke:none"
     d="m 235.43613,84.944651 c 0.214,1.156 -0.546,2.27 -1.708,2.485 -1.156,0.219 -2.27,-0.548 -2.484,-1.704 -0.22,-1.156 0.547,-2.276 1.703,-2.489 1.161,-0.214 2.276,0.552 2.489,1.708"
     id="path257" />
  <path
     style="fill:#63c99d;fill-opacity:1;fill-rule:nonzero;stroke:none"
     d="m 327.46713,54.512651 c -0.208,-3.131 -0.599,-3.782 -1.015,-4.599 -2.62,-5.156 -0.043,-6.344 2.823,-6.011 3.369,0.38 4.588,0.454 4.416,6.746 -0.058,1.754 0.63,8.489 0.63,8.489 0.574,2.38 -0.134,5.005 -1.286,5.907 -1.214,0.942 -0.802,0.478 -2.078,1.15 -1.224,0.64 -3.401,0.531 -4.157,-0.448 -0.724,-0.942 -0.104,-2.494 0.491,-4.838 0.473,-1.86 0.176,-6.396 0.176,-6.396"
     id="path258" />
  <path
     style="fill:none;stroke:#231f20;stroke-width:0.565977;stroke-linecap:butt;stroke-linejoin:miter;stroke-miterlimit:4;stroke-dasharray:none;stroke-opacity:1"
     d="m 327.46713,54.512651 c -0.208,-3.131 -0.599,-3.782 -1.015,-4.599 -2.62,-5.156 -0.043,-6.344 2.823,-6.011 3.369,0.38 4.588,0.454 4.416,6.746 -0.058,1.754 0.63,8.489 0.63,8.489 0.574,2.38 -0.134,5.005 -1.286,5.907 -1.214,0.942 -0.802,0.478 -2.078,1.15 -1.224,0.64 -3.401,0.531 -4.157,-0.448 -0.724,-0.942 -0.104,-2.494 0.491,-4.838 0.473,-1.86 0.176,-6.396 0.176,-6.396 z"
     id="path259" />
  <path
     style="fill:#ffffff;fill-opacity:1;fill-rule:nonzero;stroke:none"
     d="m 329.88413,74.820651 c -0.156,0.186 0.5,1.134 0.093,1.462 -0.41,0.334 -1.046,-0.145 -2.978,0.334 l -0.022,0.005 c -1.396,0.391 -2.77,0.167 -3.634,-0.745 -1.438,-1.504 -0.938,-4.302 1.104,-6.25 2.046,-1.948 4.869,-2.302 6.296,-0.802 1.376,1.433 0.974,4.068 -0.859,5.996"
     id="path260" />
  <path
     style="fill:none;stroke:#231f20;stroke-width:0.565977;stroke-linecap:butt;stroke-linejoin:miter;stroke-miterlimit:4;stroke-dasharray:none;stroke-opacity:1"
     d="m 329.88413,74.820651 c -0.156,0.186 0.5,1.134 0.093,1.462 -0.41,0.334 -1.046,-0.145 -2.978,0.334 l -0.022,0.005 c -1.396,0.391 -2.77,0.167 -3.634,-0.745 -1.438,-1.504 -0.938,-4.302 1.104,-6.25 2.046,-1.948 4.869,-2.302 6.296,-0.802 1.376,1.433 0.974,4.068 -0.859,5.996 z"
     id="path261" />
  <path
     style="fill:#231f20;fill-opacity:1;fill-rule:nonzero;stroke:none"
     d="m 330.09213,84.110651 c 0.391,-0.51 0.276,-2.457 0.797,-3.973 0.359,-1.032 0.115,-3.765 0.547,-4.756 0.391,-0.916 0.489,-1.369 -0.479,-1.995 -0.568,-0.374 -1.912,-0.724 -2.209,-0.306 -0.697,0.964 -0.905,1.885 -0.916,2.953 -0.016,1.219 0.24,4.52 0.339,5.124 0.265,1.496 -0.09,2.147 -0.058,2.553 0.058,0.76 0.364,0.922 0.859,0.99 0.953,0.134 1.12,-0.59 1.12,-0.59"
     id="path262" />
  <path
     style="fill:none;stroke:#231f20;stroke-width:0.565977;stroke-linecap:butt;stroke-linejoin:miter;stroke-miterlimit:4;stroke-dasharray:none;stroke-opacity:1"
     d="m 330.09213,84.110651 c 0.391,-0.51 0.276,-2.457 0.797,-3.973 0.359,-1.032 0.115,-3.765 0.547,-4.756 0.391,-0.916 0.489,-1.369 -0.479,-1.995 -0.568,-0.374 -1.912,-0.724 -2.209,-0.306 -0.697,0.964 -0.905,1.885 -0.916,2.953 -0.016,1.219 0.24,4.52 0.339,5.124 0.265,1.496 -0.09,2.147 -0.058,2.553 0.058,0.76 0.364,0.922 0.859,0.99 0.953,0.134 1.12,-0.59 1.12,-0.59 z"
     id="path263" />
  <path
     style="fill:#231f20;fill-opacity:1;fill-rule:nonzero;stroke:none"
     d="m 330.83213,75.080651 c 1.297,-0.036 0.869,-2.027 0.833,-2.563 -0.032,-0.547 0.052,-2.099 0.276,-3.303 0.219,-1.208 -0.021,-2.801 0.396,-5.093 0.219,-1.203 -0.333,-2.511 -2.089,-2.755 -1.744,-0.234 -2.531,0.651 -2.577,2.151 -0.047,1.489 0.546,2.916 0.609,4.427 0.063,1.505 -0.021,3.057 -0.141,4.265 -0.135,1.376 0.308,2.105 0.729,2.329 1.047,0.578 1.964,0.542 1.964,0.542"
     id="path264" />
  <path
     style="fill:none;stroke:#231f20;stroke-width:0.565977;stroke-linecap:butt;stroke-linejoin:miter;stroke-miterlimit:4;stroke-dasharray:none;stroke-opacity:1"
     d="m 330.83213,75.080651 c 1.297,-0.036 0.869,-2.027 0.833,-2.563 -0.032,-0.547 0.052,-2.099 0.276,-3.303 0.219,-1.208 -0.021,-2.801 0.396,-5.093 0.219,-1.203 -0.333,-2.511 -2.089,-2.755 -1.744,-0.234 -2.531,0.651 -2.577,2.151 -0.047,1.489 0.546,2.916 0.609,4.427 0.063,1.505 -0.021,3.057 -0.141,4.265 -0.135,1.376 0.308,2.105 0.729,2.329 1.047,0.578 1.964,0.542 1.964,0.542 z"
     id="path265" />
  <path
     style="fill:#231f20;fill-opacity:1;fill-rule:nonzero;stroke:none"
     d="m 327.75913,28.933651 c -2.208,0.491 -2.703,0.282 -2.968,-0.64 -0.183,-0.614 -0.558,-1.114 -0.683,-1.484 -0.427,-1.224 -0.631,-3.469 0.448,-9.964 0.249,-1.468 0.573,-3.536 0.64,-4.396 0.109,-1.349 2.281,-0.26 2.245,0.276 -0.114,1.708 -0.052,2.896 -0.01,3.516 0.026,0.427 -0.022,1.188 0.308,2.818 0.494,2.48 1.156,3.89 1.328,6 0.082,0.985 0.765,1.661 0.348,2.661 -0.4,1.011 -1.656,1.213 -1.656,1.213"
     id="path266" />
  <path
     style="fill:none;stroke:#231f20;stroke-width:0.565977;stroke-linecap:butt;stroke-linejoin:miter;stroke-miterlimit:4;stroke-dasharray:none;stroke-opacity:1"
     d="m 327.75913,28.933651 c -2.208,0.491 -2.703,0.282 -2.968,-0.64 -0.183,-0.614 -0.558,-1.114 -0.683,-1.484 -0.427,-1.224 -0.631,-3.469 0.448,-9.964 0.249,-1.468 0.573,-3.536 0.64,-4.396 0.109,-1.349 2.281,-0.26 2.245,0.276 -0.114,1.708 -0.052,2.896 -0.01,3.516 0.026,0.427 -0.022,1.188 0.308,2.818 0.494,2.48 1.156,3.89 1.328,6 0.082,0.985 0.765,1.661 0.348,2.661 -0.4,1.011 -1.656,1.213 -1.656,1.213 z"
     id="path267" />
  <path
     style="fill:#231f20;fill-opacity:1;fill-rule:nonzero;stroke:#231f20;stroke-width:0.565977;stroke-linecap:round;stroke-linejoin:round;stroke-miterlimit:4;stroke-dasharray:none;stroke-opacity:1"
     d="m 329.01513,26.767651 c 1.192,0.772 0.885,2.901 0.994,3.224 1.511,4.781 1.5,5.162 2.4,8.87 1.298,5.38 1.366,9.255 -1.541,10.927 -1.973,1.13 -3.599,0.926 -4.629,0.109 -1.142,-0.911 -2.439,-3.812 -0.834,-6.219 l 0.052,-1.708 c -0.104,-1.166 -0.157,-1.734 -0.25,-2.302 -0.183,-0.984 -0.302,-2.052 -0.536,-3.995 -0.402,-3.453 0.286,-7.229 0.286,-7.229 -0.026,-0.307 0.067,-0.572 0.219,-0.791"
     id="path268" />
  <path
     style="fill:#63c99d;fill-opacity:1;fill-rule:nonzero;stroke:none"
     d="m 333.36813,43.933651 c -0.041,-0.061 -0.072,-0.135 -0.109,-0.208 -0.052,-0.583 -0.13,-1.187 -0.25,-1.833 l -7.578,1.917 c -1.511,2.463 -0.104,5.312 1.068,6.181 1.062,0.776 2.697,0.912 4.625,-0.285 1.249,-0.781 1.891,-1.985 2.109,-3.527 0.37,-0.969 0.567,-1.562 0.135,-2.245"
     id="path269" />
  <path
     style="fill:none;stroke:#231f20;stroke-width:0.565977;stroke-linecap:butt;stroke-linejoin:miter;stroke-miterlimit:4;stroke-dasharray:none;stroke-opacity:1"
     d="m 333.36813,43.933651 c -0.041,-0.061 -0.072,-0.135 -0.109,-0.208 -0.052,-0.583 -0.13,-1.187 -0.25,-1.833 l -7.578,1.917 c -1.511,2.463 -0.104,5.312 1.068,6.181 1.062,0.776 2.697,0.912 4.625,-0.285 1.249,-0.781 1.891,-1.985 2.109,-3.527 0.37,-0.969 0.567,-1.562 0.135,-2.245 z"
     id="path270" />
  <path
     style="fill:#231f20;fill-opacity:1;fill-rule:nonzero;stroke:none"
     d="m 324.93113,10.075651 c -0.99,0.926 -0.615,1.844 0.302,2.322 0.282,0.146 0.364,0.552 0.64,0.667 0.651,0.276 2.246,-0.437 1.984,-1.916 -0.02,-0.109 0.09,-0.917 0.074,-1.5430002 -0.031,-1.213 -0.672,-3.624 -3.02,-4.948 -1.111,-0.629 -1.278,0.142 -0.907,0.532 1.183,1.24 1.047,1.578 1.235,2.02 0.656,1.486 -0.308,2.8660002 -0.308,2.8660002"
     id="path271" />
  <path
     style="fill:none;stroke:#231f20;stroke-width:0.332927;stroke-linecap:butt;stroke-linejoin:miter;stroke-miterlimit:4;stroke-dasharray:none;stroke-opacity:1"
     d="m 324.93113,10.075651 c -0.99,0.926 -0.615,1.844 0.302,2.322 0.282,0.146 0.364,0.552 0.64,0.667 0.651,0.276 2.246,-0.437 1.984,-1.916 -0.02,-0.109 0.09,-0.917 0.074,-1.5430002 -0.031,-1.213 -0.672,-3.624 -3.02,-4.948 -1.111,-0.629 -1.278,0.142 -0.907,0.532 1.183,1.24 1.047,1.578 1.235,2.02 0.656,1.486 -0.308,2.8660002 -0.308,2.8660002 z"
     id="path272" />
  <path
     style="fill:#231f20;fill-opacity:1;fill-rule:nonzero;stroke:none"
     d="m 326.18713,84.944651 c -0.215,1.156 0.546,2.27 1.708,2.485 1.156,0.219 2.27,-0.548 2.484,-1.704 0.218,-1.156 -0.547,-2.276 -1.703,-2.489 -1.161,-0.214 -2.276,0.552 -2.489,1.708"
     id="path273" />
  <path
     style="fill:#231f20;fill-opacity:1;fill-rule:nonzero;stroke:none"
     d="m 284.40613,84.944651 c 0.218,1.156 -0.548,2.27 -1.704,2.485 -1.162,0.219 -2.271,-0.548 -2.49,-1.704 -0.213,-1.156 0.547,-2.276 1.708,-2.489 1.156,-0.214 2.271,0.552 2.486,1.708"
     id="path274" />
  <path
     style="fill:#231f20;fill-opacity:1;fill-rule:nonzero;stroke:none"
     d="m 306.58213,84.944651 c 0.218,1.156 -0.547,2.27 -1.703,2.485 -1.161,0.219 -2.271,-0.548 -2.489,-1.704 -0.214,-1.156 0.552,-2.276 1.708,-2.489 1.156,-0.214 2.27,0.552 2.484,1.708"
     id="path275" />
  <path
     style="fill:#63c99d;fill-opacity:1;fill-rule:nonzero;stroke:none"
     d="m 24.119828,64.424651 c 3.1292,-0.199 3.8224,0.098 4.6917,0.405 5.4588,1.912 6.2973,-0.801 5.5844,-3.593 -0.8229,-3.292 -1.0579,-4.49 -7.2656,-3.484 -1.7344,0.286 -8.5,0.494 -8.5,0.494 -2.4386,-0.256 -4.948,0.798 -5.6829,2.052 -0.776,1.323 -0.3744,0.859 -0.8703,2.214 -0.4682,1.292 -0.0776,3.442 0.9959,4.057 1.0307,0.593 2.4787,-0.224 4.7281,-1.12 1.7771,-0.713 6.3187,-1.025 6.3187,-1.025"
     id="path276" />
  <path
     style="fill:none;stroke:#231f20;stroke-width:0.565977;stroke-linecap:butt;stroke-linejoin:miter;stroke-miterlimit:4;stroke-dasharray:none;stroke-opacity:1"
     d="m 24.119828,64.424651 c 3.1292,-0.199 3.8224,0.098 4.6917,0.405 5.4588,1.912 6.2973,-0.801 5.5844,-3.593 -0.8229,-3.292 -1.0579,-4.49 -7.2656,-3.484 -1.7344,0.286 -8.5,0.494 -8.5,0.494 -2.4386,-0.256 -4.948,0.798 -5.6829,2.052 -0.776,1.323 -0.3744,0.859 -0.8703,2.214 -0.4682,1.292 -0.0776,3.442 0.9959,4.057 1.0307,0.593 2.4787,-0.224 4.7281,-1.12 1.7771,-0.713 6.3187,-1.025 6.3187,-1.025 z"
     id="path277" />
  <path
     style="fill:#ffffff;fill-opacity:1;fill-rule:nonzero;stroke:none"
     d="m 8.7079276,56.340651 c -0.1829,-0.162 0.3224,-1.192 -0.1297,-1.459 -0.4532,-0.271 -1.0104,0.297 -2.9906,0.12 l -0.025,-0.005 c -1.4376,-0.176 -2.7655998,0.256 -3.4801998,1.276 -1.19219997,1.704 -0.2812,4.396 2.0264998,6.016 2.3172,1.62 5.1614,1.552 6.3494004,-0.146 1.1402,-1.625 0.3532,-4.172 -1.7504004,-5.802"
     id="path278" />
  <path
     style="fill:none;stroke:#231f20;stroke-width:0.565977;stroke-linecap:butt;stroke-linejoin:miter;stroke-miterlimit:4;stroke-dasharray:none;stroke-opacity:1"
     d="m 8.7079276,56.340651 c -0.1829,-0.162 0.3224,-1.192 -0.1297,-1.459 -0.4532,-0.271 -1.0104,0.297 -2.9906,0.12 l -0.025,-0.005 c -1.4376,-0.176 -2.7655998,0.256 -3.4801998,1.276 -1.19219997,1.704 -0.2812,4.396 2.0264998,6.016 2.3172,1.62 5.1614,1.552 6.3494004,-0.146 1.1402,-1.625 0.3532,-4.172 -1.7504004,-5.802 z"
     id="path279" />
  <path
     style="fill:#231f20;fill-opacity:1;fill-rule:nonzero;stroke:none"
     d="m 11.608928,83.512651 c -0.2916,-0.574 0.1776,-2.468 -0.0572,-4.058 -0.1615,-1.073 0.5733,-3.713 0.3333,-4.77 -0.2188,-0.97 -0.2292,-1.438 0.8333,-1.875 0.6307,-0.261 2.0162,-0.36 2.2291,0.104 0.5109,1.077 0.5469,2.02 0.3589,3.073 -0.2078,1.198 -1.0614,4.395 -1.2708,4.974 -0.5308,1.421 -0.301,2.125 -0.4052,2.521 -0.1985,0.733 -0.5318,0.839 -1.0318,0.817 -0.9588,-0.041 -0.9896,-0.786 -0.9896,-0.786"
     id="path280" />
  <path
     style="fill:none;stroke:#231f20;stroke-width:0.565977;stroke-linecap:butt;stroke-linejoin:miter;stroke-miterlimit:4;stroke-dasharray:none;stroke-opacity:1"
     d="m 11.608928,83.512651 c -0.2916,-0.574 0.1776,-2.468 -0.0572,-4.058 -0.1615,-1.073 0.5733,-3.713 0.3333,-4.77 -0.2188,-0.97 -0.2292,-1.438 0.8333,-1.875 0.6307,-0.261 2.0162,-0.36 2.2291,0.104 0.5109,1.077 0.5469,2.02 0.3589,3.073 -0.2078,1.198 -1.0614,4.395 -1.2708,4.974 -0.5308,1.421 -0.301,2.125 -0.4052,2.521 -0.1985,0.733 -0.5318,0.839 -1.0318,0.817 -0.9588,-0.041 -0.9896,-0.786 -0.9896,-0.786 z"
     id="path281" />
  <path
     style="fill:#231f20;fill-opacity:1;fill-rule:nonzero;stroke:none"
     d="m 12.535528,74.496651 c -1.2704,-0.271 -0.4838,-2.151 -0.3532,-2.672 0.1292,-0.531 0.3334,-2.072 0.3334,-3.291 0.0052,-1.229 0.536,-2.756 0.5469,-5.084 0,-1.224 0.7812,-2.405 2.5515,-2.323 1.7605,0.083 2.3698,1.099 2.1401,2.584 -0.2292,1.474 -1.0719,2.766 -1.4052,4.239 -0.3385,1.475 -0.5427,3.005 -0.6468,4.219 -0.1199,1.374 -0.6865,2.016 -1.1396,2.161 -1.1365,0.376 -2.0271,0.167 -2.0271,0.167"
     id="path282" />
  <path
     style="fill:none;stroke:#231f20;stroke-width:0.565977;stroke-linecap:butt;stroke-linejoin:miter;stroke-miterlimit:4;stroke-dasharray:none;stroke-opacity:1"
     d="m 12.535528,74.496651 c -1.2704,-0.271 -0.4838,-2.151 -0.3532,-2.672 0.1292,-0.531 0.3334,-2.072 0.3334,-3.291 0.0052,-1.229 0.536,-2.756 0.5469,-5.084 0,-1.224 0.7812,-2.405 2.5515,-2.323 1.7605,0.083 2.3698,1.099 2.1401,2.584 -0.2292,1.474 -1.0719,2.766 -1.4052,4.239 -0.3385,1.475 -0.5427,3.005 -0.6468,4.219 -0.1199,1.374 -0.6865,2.016 -1.1396,2.161 -1.1365,0.376 -2.0271,0.167 -2.0271,0.167 z"
     id="path283" />
  <path
     style="fill:#231f20;fill-opacity:1;fill-rule:nonzero;stroke:none"
     d="m 48.791628,56.861651 c 0.312,2.244 0.6761,2.635 1.6344,2.563 0.6417,-0.043 1.2401,0.134 1.6256,0.124 1.3025,-0.031 3.4733,-0.624 9.1879,-3.891 1.2854,-0.744 3.1146,-1.776 3.8948,-2.135 1.2239,-0.573 -0.5521,-2.234 -1.0417,-2.01 -1.5624,0.708 -2.6916,1.057 -3.2864,1.24 -0.4104,0.12 -1.1093,0.432 -2.7546,0.692 -2.4948,0.401 -4.047,0.266 -6.0839,0.844 -0.9521,0.26 -1.8281,-0.14 -2.6188,0.598 -0.8077,0.73 -0.5573,1.975 -0.5573,1.975"
     id="path284" />
  <path
     style="fill:none;stroke:#231f20;stroke-width:0.565977;stroke-linecap:butt;stroke-linejoin:miter;stroke-miterlimit:4;stroke-dasharray:none;stroke-opacity:1"
     d="m 48.791628,56.861651 c 0.312,2.244 0.6761,2.635 1.6344,2.563 0.6417,-0.043 1.2401,0.134 1.6256,0.124 1.3025,-0.031 3.4733,-0.624 9.1879,-3.891 1.2854,-0.744 3.1146,-1.776 3.8948,-2.135 1.2239,-0.573 -0.5521,-2.234 -1.0417,-2.01 -1.5624,0.708 -2.6916,1.057 -3.2864,1.24 -0.4104,0.12 -1.1093,0.432 -2.7546,0.692 -2.4948,0.401 -4.047,0.266 -6.0839,0.844 -0.9521,0.26 -1.8281,-0.14 -2.6188,0.598 -0.8077,0.73 -0.5573,1.975 -0.5573,1.975 z"
     id="path285" />
  <path
     style="fill:#231f20;fill-opacity:1;fill-rule:nonzero;stroke:#231f20;stroke-width:0.565977;stroke-linecap:round;stroke-linejoin:round;stroke-miterlimit:4;stroke-dasharray:none;stroke-opacity:1"
     d="m 50.384928,54.933651 c -1.136,-0.853 -3.0308,0.177 -3.3693,0.188 -5.0052,0.251 -5.3599,0.396 -9.152,0.844 -5.489,0.656 -9.1505,1.943 -9.7026,5.249 -0.3746,2.24 0.3854,3.694 1.5104,4.376 1.2494,0.75 4.4213,0.952 6.115,-1.385 l 1.5881,-0.647 c 1.125,-0.301 1.6771,-0.453 2.2452,-0.562 0.9787,-0.176 2.0251,-0.432 3.9267,-0.896 3.3796,-0.818 6.6828,-2.78 6.6828,-2.78 0.2957,-0.084 0.5145,-0.262 0.6666,-0.486"
     id="path286" />
  <path
     style="fill:#63c99d;fill-opacity:1;fill-rule:nonzero;stroke:#231f20;stroke-width:0.565977;stroke-linecap:butt;stroke-linejoin:miter;stroke-miterlimit:4;stroke-dasharray:none;stroke-opacity:1"
     d="m 34.811528,56.454651 c -0.6454,0.11 -1.2385,0.251 -1.8068,0.402 -0.0787,-0.006 -0.1557,-0.011 -0.224,-0.027 -0.7916,-0.167 -1.2812,0.224 -2.0624,0.912 -1.3693,0.74 -2.2761,1.76 -2.5735,3.203 -0.4478,2.224 0.2454,3.709 1.3443,4.433 1.224,0.796 4.3854,1.119 6.1666,-1.157 z"
     id="path287" />
  <path
     style="fill:#231f20;fill-opacity:1;fill-rule:nonzero;stroke:none"
     d="m 67.453028,52.944651 c -0.5213,1.25 -1.5161,1.218 -2.2817,0.521 -0.2292,-0.203 -0.6464,-0.141 -0.849,-0.365 -0.4844,-0.515 -0.3641,-2.255 1.1094,-2.526 0.1037,-0.021 0.8276,-0.401 1.4172,-0.604 1.1453,-0.396 3.6292,-0.63 5.6922,1.104 0.9744,0.823 0.313,1.25 -0.187,1.036 -1.5735,-0.677 -1.8438,-0.432 -2.3187,-0.453 -1.6251,-0.099 -2.5824,1.287 -2.5824,1.287"
     id="path288" />
  <path
     style="fill:none;stroke:#231f20;stroke-width:0.332927;stroke-linecap:butt;stroke-linejoin:miter;stroke-miterlimit:4;stroke-dasharray:none;stroke-opacity:1"
     d="m 67.453028,52.944651 c -0.5213,1.25 -1.5161,1.218 -2.2817,0.521 -0.2292,-0.203 -0.6464,-0.141 -0.849,-0.365 -0.4844,-0.515 -0.3641,-2.255 1.1094,-2.526 0.1037,-0.021 0.8276,-0.401 1.4172,-0.604 1.1453,-0.396 3.6292,-0.63 5.6922,1.104 0.9744,0.823 0.313,1.25 -0.187,1.036 -1.5735,-0.677 -1.8438,-0.432 -2.3187,-0.453 -1.6251,-0.099 -2.5824,1.287 -2.5824,1.287 z"
     id="path289" />
  <path
     style="fill:#231f20;fill-opacity:1;fill-rule:nonzero;stroke:none"
     d="m 15.297028,85.044651 c 0,1.181 -0.9589,2.134 -2.136,2.134 -1.1771,0 -2.1307,-0.953 -2.1307,-2.134 0,-1.178 0.9536,-2.131 2.1307,-2.131 1.1771,0 2.136,0.953 2.136,2.131"
     id="path290" />
  <path
     style="fill:#231f20;fill-opacity:1;fill-rule:nonzero;stroke:none"
     d="m 140.20213,83.476651 c -0.291,-0.574 0.177,-2.464 -0.057,-4.052 -0.162,-1.079 0.573,-3.719 0.333,-4.776 -0.219,-0.97 -0.229,-1.434 0.833,-1.876 0.631,-0.26 2.022,-0.359 2.235,0.104 0.511,1.078 0.547,2.021 0.36,3.078 -0.209,1.199 -1.063,4.391 -1.272,4.97 -0.531,1.426 -0.307,2.129 -0.411,2.52 -0.193,0.734 -0.526,0.838 -1.032,0.822 -0.957,-0.046 -0.989,-0.79 -0.989,-0.79"
     id="path291" />
  <path
     style="fill:none;stroke:#231f20;stroke-width:0.565977;stroke-linecap:butt;stroke-linejoin:miter;stroke-miterlimit:4;stroke-dasharray:none;stroke-opacity:1"
     d="m 140.20213,83.476651 c -0.291,-0.574 0.177,-2.464 -0.057,-4.052 -0.162,-1.079 0.573,-3.719 0.333,-4.776 -0.219,-0.97 -0.229,-1.434 0.833,-1.876 0.631,-0.26 2.022,-0.359 2.235,0.104 0.511,1.078 0.547,2.021 0.36,3.078 -0.209,1.199 -1.063,4.391 -1.272,4.97 -0.531,1.426 -0.307,2.129 -0.411,2.52 -0.193,0.734 -0.526,0.838 -1.032,0.822 -0.957,-0.046 -0.989,-0.79 -0.989,-0.79 z"
     id="path292" />
  <path
     style="fill:#231f20;fill-opacity:1;fill-rule:nonzero;stroke:none"
     d="m 141.13013,74.460651 c -1.272,-0.271 -0.485,-2.151 -0.355,-2.672 0.136,-0.526 0.334,-2.074 0.334,-3.292 0.005,-1.23 0.536,-2.755 0.546,-5.083 0.006,-1.219 0.787,-2.407 2.558,-2.323 1.76,0.083 2.374,1.099 2.141,2.583 -0.224,1.48 -1.073,2.765 -1.407,4.24 -0.338,1.473 -0.541,3.011 -0.646,4.219 -0.114,1.38 -0.682,2.021 -1.146,2.161 -1.134,0.375 -2.025,0.167 -2.025,0.167"
     id="path293" />
  <path
     style="fill:none;stroke:#231f20;stroke-width:0.565977;stroke-linecap:butt;stroke-linejoin:miter;stroke-miterlimit:4;stroke-dasharray:none;stroke-opacity:1"
     d="m 141.13013,74.460651 c -1.272,-0.271 -0.485,-2.151 -0.355,-2.672 0.136,-0.526 0.334,-2.074 0.334,-3.292 0.005,-1.23 0.536,-2.755 0.546,-5.083 0.006,-1.219 0.787,-2.407 2.558,-2.323 1.76,0.083 2.374,1.099 2.141,2.583 -0.224,1.48 -1.073,2.765 -1.407,4.24 -0.338,1.473 -0.541,3.011 -0.646,4.219 -0.114,1.38 -0.682,2.021 -1.146,2.161 -1.134,0.375 -2.025,0.167 -2.025,0.167 z"
     id="path294" />
  <path
     style="fill:#231f20;fill-opacity:1;fill-rule:nonzero;stroke:none"
     d="m 143.89513,85.012651 c 0,1.177 -0.958,2.136 -2.136,2.136 -1.181,0 -2.134,-0.959 -2.134,-2.136 0,-1.178 0.953,-2.136 2.134,-2.136 1.178,0 2.136,0.958 2.136,2.136"
     id="path295" />
  <path
     style="fill:#231f20;fill-opacity:1;fill-rule:nonzero;stroke:none"
     d="m 289.27513,48.782651 c -3.579,-0.448 -3.047,-2.041 -3.547,-6.093 -0.552,-4.422 -0.646,-9.098 0.244,-12.276 1,-3.552 0.574,-3.854 2.448,-4.265 1.876,-0.423 2.063,0.333 3.043,1.172 1.135,0.973 -0.5,8.14 0.249,12.833 0.355,2.203 2.62,7.239 1.282,7.796 -1.344,0.557 -3.719,0.833 -3.719,0.833"
     id="path296" />
  <path
     style="fill:none;stroke:#231f20;stroke-width:0.565977;stroke-linecap:butt;stroke-linejoin:miter;stroke-miterlimit:4;stroke-dasharray:none;stroke-opacity:1"
     d="m 289.27513,48.782651 c -3.579,-0.448 -3.047,-2.041 -3.547,-6.093 -0.552,-4.422 -0.646,-9.098 0.244,-12.276 1,-3.552 0.574,-3.854 2.448,-4.265 1.876,-0.423 2.063,0.333 3.043,1.172 1.135,0.973 -0.5,8.14 0.249,12.833 0.355,2.203 2.62,7.239 1.282,7.796 -1.344,0.557 -3.719,0.833 -3.719,0.833 z"
     id="path297" />
  <path
     style="fill:#231f20;fill-opacity:1;fill-rule:nonzero;stroke:none"
     d="m 289.51513,28.116651 c -2.251,0.24 -2.907,0.339 -2.772,-2.161 0.037,-0.635 0.256,-2.396 0.172,-2.776 -0.285,-1.266 -0.5,-2.76 1.287,-9.099 0.281,-0.98 0.485,-2.943 0.75,-4.3230002 0.255,-1.333 2.296,-0.01 2.203,0.5150002 -0.301,1.688 -0.135,2.844 -0.161,3.464 -0.016,0.427 -0.183,1.213 0.156,2.844 0.87,4.192 -0.307,5.557 -0.198,6.448 0.302,2.568 1.094,4.697 0.506,5.011 -0.959,0.504 -1.943,0.077 -1.943,0.077"
     id="path298" />
  <path
     style="fill:none;stroke:#231f20;stroke-width:0.565977;stroke-linecap:butt;stroke-linejoin:miter;stroke-miterlimit:4;stroke-dasharray:none;stroke-opacity:1"
     d="m 289.51513,28.116651 c -2.251,0.24 -2.907,0.339 -2.772,-2.161 0.037,-0.635 0.256,-2.396 0.172,-2.776 -0.285,-1.266 -0.5,-2.76 1.287,-9.099 0.281,-0.98 0.485,-2.943 0.75,-4.3230002 0.255,-1.333 2.296,-0.01 2.203,0.5150002 -0.301,1.688 -0.135,2.844 -0.161,3.464 -0.016,0.427 -0.183,1.213 0.156,2.844 0.87,4.192 -0.307,5.557 -0.198,6.448 0.302,2.568 1.094,4.697 0.506,5.011 -0.959,0.504 -1.943,0.077 -1.943,0.077 z"
     id="path299" />
  <path
     style="fill:#231f20;fill-opacity:1;fill-rule:nonzero;stroke:none"
     d="m 295.52013,48.689651 c 3.567,-0.521 3.004,-2.104 3.422,-6.167 0.453,-4.431 0.453,-9.109 -0.506,-12.27 -1.073,-3.527 -0.656,-3.833 -2.536,-4.213 -1.88,-0.382 -2.057,0.38 -3.016,1.238 -1.114,0.995 0.672,8.131 0.016,12.839 -0.302,2.204 -2.469,7.292 -1.114,7.817 1.358,0.532 3.734,0.756 3.734,0.756"
     id="path300" />
  <path
     style="fill:none;stroke:#231f20;stroke-width:0.565977;stroke-linecap:butt;stroke-linejoin:miter;stroke-miterlimit:4;stroke-dasharray:none;stroke-opacity:1"
     d="m 295.52013,48.689651 c 3.567,-0.521 3.004,-2.104 3.422,-6.167 0.453,-4.431 0.453,-9.109 -0.506,-12.27 -1.073,-3.527 -0.656,-3.833 -2.536,-4.213 -1.88,-0.382 -2.057,0.38 -3.016,1.238 -1.114,0.995 0.672,8.131 0.016,12.839 -0.302,2.204 -2.469,7.292 -1.114,7.817 1.358,0.532 3.734,0.756 3.734,0.756 z"
     id="path301" />
  <path
     style="fill:#63c99d;fill-opacity:1;fill-rule:nonzero;stroke:none"
     d="m 299.09213,59.496651 c -0.666,-1.156 -2.041,-6.072 -2.129,-9.323 -0.016,-0.744 1.281,-2.776 0.38,-1.907 l -0.355,-0.009 c -2.734,-1.485 -3.489,-7.281 -3.489,-7.281 0,0 -0.609,-0.428 -1.104,-0.423 -0.495,0.005 -1.099,0.437 -1.099,0.437 0,0 -0.666,5.808 -3.376,7.334 l -0.358,0.021 c -0.918,-0.859 0.416,1.156 0.405,1.896 -0.031,3.255 -1.333,8.188 -1.979,9.355 -0.896,1.604 -3.464,2.129 -2.39,4.009 0,0 0.63,1.839 3.412,1.459 1.01,-0.135 3.229,0.562 3.229,0.562 0,0 1.244,0.527 2.411,0.536 1.026,0.011 2.057,-0.462 2.286,-0.572 0,0 2.208,-0.734 3.219,-0.609 2.787,0.339 3.328,-1.787 3.328,-1.787 1.041,-1.896 -1.473,-2.114 -2.391,-3.698"
     id="path302" />
  <path
     style="fill:none;stroke:#231f20;stroke-width:0.565977;stroke-linecap:round;stroke-linejoin:round;stroke-miterlimit:4;stroke-dasharray:none;stroke-opacity:1"
     d="m 299.09213,59.496651 c -0.666,-1.156 -2.041,-6.072 -2.129,-9.323 -0.016,-0.744 1.281,-2.776 0.38,-1.907 l -0.355,-0.009 c -2.734,-1.485 -3.489,-7.281 -3.489,-7.281 0,0 -0.609,-0.428 -1.104,-0.423 -0.495,0.005 -1.099,0.437 -1.099,0.437 0,0 -0.666,5.808 -3.376,7.334 l -0.358,0.021 c -0.918,-0.859 0.416,1.156 0.405,1.896 -0.031,3.255 -1.333,8.188 -1.979,9.355 -0.896,1.604 -3.464,2.129 -2.39,4.009 0,0 0.63,1.839 3.412,1.459 1.01,-0.135 3.229,0.562 3.229,0.562 0,0 1.244,0.527 2.411,0.536 1.026,0.011 2.057,-0.462 2.286,-0.572 0,0 2.208,-0.734 3.219,-0.609 2.787,0.339 3.328,-1.787 3.328,-1.787 1.041,-1.896 -1.473,-2.114 -2.391,-3.698 z"
     id="path303" />
  <path
     style="fill:#231f20;fill-opacity:1;fill-rule:nonzero;stroke:none"
     d="m 296.36813,71.064651 c -0.014,-2.823 -1.713,-5.099 -3.786,-5.088 -2.078,0.01 -3.744,2.306 -3.728,5.134 0.009,2.823 1.708,5.104 3.785,5.09 2.073,-0.011 3.745,-2.314 3.729,-5.136"
     id="path304" />
  <path
     style="fill:none;stroke:#231f20;stroke-width:0.565977;stroke-linecap:butt;stroke-linejoin:miter;stroke-miterlimit:4;stroke-dasharray:none;stroke-opacity:1"
     d="m 296.36813,71.064651 c -0.014,-2.823 -1.713,-5.099 -3.786,-5.088 -2.078,0.01 -3.744,2.306 -3.728,5.134 0.009,2.823 1.708,5.104 3.785,5.09 2.073,-0.011 3.745,-2.314 3.729,-5.136 z"
     id="path305" />
  <path
     style="fill:#231f20;fill-opacity:1;fill-rule:nonzero;stroke:none"
     d="m 294.86813,28.048651 c 2.262,0.177 2.918,0.256 2.714,-2.233 -0.052,-0.636 -0.323,-2.391 -0.244,-2.776 0.249,-1.272 0.432,-2.772 -1.527,-9.058 -0.307,-0.974 -0.567,-2.933 -0.864,-4.3020002 -0.292,-1.328 -2.297,0.052 -2.188,0.5730002 0.349,1.677 0.204,2.833 0.251,3.459 0.025,0.426 0.218,1.213 -0.079,2.848 -0.76,4.213 0.453,5.541 0.369,6.442 -0.238,2.568 -0.968,4.719 -0.369,5.016 0.969,0.484 1.937,0.031 1.937,0.031"
     id="path306" />
  <path
     style="fill:none;stroke:#231f20;stroke-width:0.565977;stroke-linecap:butt;stroke-linejoin:miter;stroke-miterlimit:4;stroke-dasharray:none;stroke-opacity:1"
     d="m 294.86813,28.048651 c 2.262,0.177 2.918,0.256 2.714,-2.233 -0.052,-0.636 -0.323,-2.391 -0.244,-2.776 0.249,-1.272 0.432,-2.772 -1.527,-9.058 -0.307,-0.974 -0.567,-2.933 -0.864,-4.3020002 -0.292,-1.328 -2.297,0.052 -2.188,0.5730002 0.349,1.677 0.204,2.833 0.251,3.459 0.025,0.426 0.218,1.213 -0.079,2.848 -0.76,4.213 0.453,5.541 0.369,6.442 -0.238,2.568 -0.968,4.719 -0.369,5.016 0.969,0.484 1.937,0.031 1.937,0.031 z"
     id="path307" />
  <path
     style="fill:#63c99d;fill-opacity:1;fill-rule:nonzero;stroke:none"
     d="m 297.32713,49.096651 c 0.203,-0.282 0.844,-1.491 1.016,-1.928 1.072,-2.766 0.953,-6.714 1.219,-7.963 0.26,-1.25 -6.334,-1.136 -6.334,-1.136 l -0.776,1.24 c -0.458,-0.428 -0.188,0.006 -0.188,0.006 l -0.953,-1.308 c 0,0 -6.457,-0.208 -6.301,0.792 0.213,1.379 0.333,6.005 1.286,8.259 0.52,1.24 1.302,1.907 1.302,1.907 0,0 3.636,-1.109 5.062,-1.12 1.427,-0.011 4.667,1.251 4.667,1.251"
     id="path308" />
  <path
     style="fill:none;stroke:#231f20;stroke-width:0.565977;stroke-linecap:round;stroke-linejoin:round;stroke-miterlimit:4;stroke-dasharray:none;stroke-opacity:1"
     d="m 297.32713,49.096651 c 0.203,-0.282 0.844,-1.491 1.016,-1.928 1.072,-2.766 0.953,-6.714 1.219,-7.963 0.26,-1.25 -6.334,-1.136 -6.334,-1.136 l -0.776,1.24 c -0.458,-0.428 -0.188,0.006 -0.188,0.006 l -0.953,-1.308 c 0,0 -6.457,-0.208 -6.301,0.792 0.213,1.379 0.333,6.005 1.286,8.259 0.52,1.24 1.302,1.907 1.302,1.907 0,0 3.636,-1.109 5.062,-1.12 1.427,-0.011 4.667,1.251 4.667,1.251 z"
     id="path309" />
  <path
     style="fill:none;stroke:#231f20;stroke-width:0.565977;stroke-linecap:round;stroke-linejoin:round;stroke-miterlimit:4;stroke-dasharray:none;stroke-opacity:1"
     d="m 295.56213,39.720651 c -1.318,-1.219 -3.256,-0.249 -3.256,-0.249 -1.724,-0.636 -3.14,0.109 -3.14,0.109"
     id="path310" />
  <path
     style="fill:#231f20;fill-opacity:1;fill-rule:nonzero;stroke:none"
     d="m 296.22813,4.7776508 c 0.296,0.6 -0.912,1.943 -0.932,3.912 -0.005,0.402 -0.198,0.724 -0.333,1.068 -0.557,1.4060002 -1.833,2.3700002 -2.767,-1.344 -0.129,-0.516 0.246,-2.578 -0.005,-3.322 -0.599,-1.767 0.996,-4.68300006 1.496,-4.54300006 1.088,0.287 2.541,4.22900006 2.541,4.22900006"
     id="path311" />
  <path
     style="fill:none;stroke:#231f20;stroke-width:0.644548;stroke-linecap:round;stroke-linejoin:round;stroke-miterlimit:4;stroke-dasharray:none;stroke-opacity:1"
     d="m 296.22813,4.7776508 c 0.296,0.6 -0.912,1.943 -0.932,3.912 -0.005,0.402 -0.198,0.724 -0.333,1.068 -0.557,1.4060002 -1.833,2.3700002 -2.767,-1.344 -0.129,-0.516 0.246,-2.578 -0.005,-3.322 -0.599,-1.767 0.996,-4.68300006 1.496,-4.54300006 1.088,0.287 2.541,4.22900006 2.541,4.22900006 z"
     id="path312" />
  <path
     style="fill:#231f20;fill-opacity:1;fill-rule:nonzero;stroke:none"
     d="m 287.67613,4.5756508 c -0.286,0.604 0.927,1.937 0.968,3.906 0.006,0.4 0.199,0.724 0.339,1.067 0.568,1.4010002 1.855,2.3550002 2.756,-1.364 0.124,-0.516 -0.267,-2.579 -0.021,-3.323 0.588,-1.77 -1.031,-4.67200006 -1.531,-4.53200006 -1.079,0.292 -2.511,4.24600006 -2.511,4.24600006"
     id="path313" />
  <path
     style="fill:none;stroke:#231f20;stroke-width:0.644548;stroke-linecap:round;stroke-linejoin:round;stroke-miterlimit:4;stroke-dasharray:none;stroke-opacity:1"
     d="m 287.67613,4.5756508 c -0.286,0.604 0.927,1.937 0.968,3.906 0.006,0.4 0.199,0.724 0.339,1.067 0.568,1.4010002 1.855,2.3550002 2.756,-1.364 0.124,-0.516 -0.267,-2.579 -0.021,-3.323 0.588,-1.77 -1.031,-4.67200006 -1.531,-4.53200006 -1.079,0.292 -2.511,4.24600006 -2.511,4.24600006 z"
     id="path314" />
  <path
     style="fill:none;stroke:#231f20;stroke-width:0.399514;stroke-linecap:butt;stroke-linejoin:miter;stroke-miterlimit:4;stroke-dasharray:none;stroke-opacity:1"
     d="m 307.22313,20.225651 c -22.229,-14.4050002 -30.011,-3.645 -25.604,3.522"
     id="path315" />
  <path
     style="fill:#231f20;fill-opacity:1;fill-rule:nonzero;stroke:none"
     d="m 282.24813,24.777651 c -0.478,-0.374 -1.15,-0.786 -1.702,-0.957 l 0.984,-0.209 0.63,-0.787 c -0.093,0.568 -0.03,1.36 0.088,1.953"
     id="path316" />
  <path
     style="fill:none;stroke:#231f20;stroke-width:2.2639;stroke-linecap:butt;stroke-linejoin:miter;stroke-miterlimit:4;stroke-dasharray:29.574, 29.574, 29.574, 29.574, 29.574, 29.574;stroke-dashoffset:0;stroke-opacity:1"
     d="M 262.05613,6.2836508 V 37.637651"
     id="path317" />
  <path
     style="fill:none;stroke:#231f20;stroke-width:2.2639;stroke-linecap:butt;stroke-linejoin:miter;stroke-miterlimit:4;stroke-dasharray:29.574, 29.574, 29.574, 29.574, 29.574, 29.574;stroke-dashoffset:0;stroke-opacity:1"
     d="m 262.05613,57.184651 v 31.358"
     id="path318" />
</svg>
