<?xml version="1.0" encoding="UTF-8" standalone="no"?>
<!-- Created with Inkscape (http://www.inkscape.org/) -->

<svg
   version="1.1"
   id="svg1"
   width="349.25793"
   height="123.08002"
   viewBox="0 0 349.25792 123.08002"
   sodipodi:docname="cell.svg"
   xmlns:inkscape="http://www.inkscape.org/namespaces/inkscape"
   xmlns:sodipodi="http://sodipodi.sourceforge.net/DTD/sodipodi-0.dtd"
   xmlns="http://www.w3.org/2000/svg"
   xmlns:svg="http://www.w3.org/2000/svg">
  <sodipodi:namedview
     id="namedview1"
     pagecolor="#ffffff"
     bordercolor="#000000"
     borderopacity="0.25"
     inkscape:showpageshadow="2"
     inkscape:pageopacity="0.0"
     inkscape:pagecheckerboard="0"
     inkscape:deskcolor="#d1d1d1">
    <inkscape:page
       x="0"
       y="0"
       inkscape:label="1"
       id="page1"
       width="349.25793"
       height="123.08002"
       margin="0"
       bleed="0" />
  </sodipodi:namedview>
  <defs
     id="defs1" />
  <path
     style="fill:#231f20;fill-opacity:1;fill-rule:nonzero;stroke:none"
     d="m 309.92003,89.224184 c -0.213,1.161 0.548,2.27 1.709,2.489 1.156,0.213 2.271,-0.547 2.484,-1.709 0.219,-1.157 -0.546,-2.271 -1.702,-2.485 -1.163,-0.213 -2.276,0.547 -2.491,1.705"
     id="path215" />
  <path
     style="fill:none;stroke:#231f20;stroke-width:0.399514;stroke-linecap:butt;stroke-linejoin:miter;stroke-miterlimit:4;stroke-dasharray:none;stroke-opacity:1"
     d="m 80.609028,16.390184 c 25.640002,-6.6619996 43.396002,22.734 44.750002,29.875"
     id="path216" />
  <path
     style="fill:#231f20;fill-opacity:1;fill-rule:nonzero;stroke:none"
     d="m 125.58703,47.448184 c -0.312,-0.522 -0.796,-1.142 -1.254,-1.5 l 1,0.161 0.869,-0.516 c -0.291,0.5 -0.515,1.26 -0.615,1.855"
     id="path217" />
  <path
     style="fill:none;stroke:#231f20;stroke-width:0.399514;stroke-linecap:butt;stroke-linejoin:miter;stroke-miterlimit:4;stroke-dasharray:none;stroke-opacity:1"
     d="m 177.37403,100.51918 c -24.807,-9.300996 -22.421,-43.556996 -19.427,-50.176996"
     id="path218" />
  <path
     style="fill:#231f20;fill-opacity:1;fill-rule:nonzero;stroke:none"
     d="m 158.44703,49.244184 c -0.041,0.604 -0.005,1.39 0.162,1.948 l -0.724,-0.703 -1.011,-0.084 c 0.527,-0.239 1.147,-0.735 1.573,-1.161"
     id="path219" />
  <path
     style="fill:#63c99d;fill-opacity:1;fill-rule:nonzero;stroke:none"
     d="m 130.38503,75.181184 c 1.494,2.75 2.114,3.183 2.838,3.756 4.527,3.599 2.678,5.749 -0.062,6.64 -3.224,1.058 -4.364,1.495 -6.823,-4.296 -0.683,-1.62 -4.115,-7.459 -4.115,-7.459 -1.516,-1.928 -1.964,-4.609 -1.297,-5.901 0.719,-1.364 0.532,-0.771 1.417,-1.912 0.844,-1.088 2.87,-1.9 3.968,-1.323 1.052,0.558 1.136,2.224 1.568,4.604 0.344,1.886 2.506,5.891 2.506,5.891"
     id="path220" />
  <path
     style="fill:none;stroke:#231f20;stroke-width:0.565977;stroke-linecap:butt;stroke-linejoin:miter;stroke-miterlimit:4;stroke-dasharray:none;stroke-opacity:1"
     d="m 130.38503,75.181184 c 1.494,2.75 2.114,3.183 2.838,3.756 4.527,3.599 2.678,5.749 -0.062,6.64 -3.224,1.058 -4.364,1.495 -6.823,-4.296 -0.683,-1.62 -4.115,-7.459 -4.115,-7.459 -1.516,-1.928 -1.964,-4.609 -1.297,-5.901 0.719,-1.364 0.532,-0.771 1.417,-1.912 0.844,-1.088 2.87,-1.9 3.968,-1.323 1.052,0.558 1.136,2.224 1.568,4.604 0.344,1.886 2.506,5.891 2.506,5.891 z"
     id="path221" />
  <path
     style="fill:#ffffff;fill-opacity:1;fill-rule:nonzero;stroke:none"
     d="m 118.49403,60.265184 c -0.104,-0.219 -1.24,-0.037 -1.359,-0.541 -0.13,-0.511 0.572,-0.886 0.974,-2.834 v -0.021 c 0.245,-1.432 1.036,-2.579 2.229,-2.975 1.973,-0.65 4.287,0.996 5.177,3.672 0.886,2.694 0.006,5.391 -1.964,6.048 -1.89,0.624 -4.098,-0.86 -5.057,-3.349"
     id="path222" />
  <path
     style="fill:none;stroke:#231f20;stroke-width:0.565977;stroke-linecap:butt;stroke-linejoin:miter;stroke-miterlimit:4;stroke-dasharray:none;stroke-opacity:1"
     d="m 118.49403,60.265184 c -0.104,-0.219 -1.24,-0.037 -1.359,-0.541 -0.13,-0.511 0.572,-0.886 0.974,-2.834 v -0.021 c 0.245,-1.432 1.036,-2.579 2.229,-2.975 1.973,-0.65 4.287,0.996 5.177,3.672 0.886,2.694 0.006,5.391 -1.964,6.048 -1.89,0.624 -4.098,-0.86 -5.057,-3.349 z"
     id="path223" />
  <path
     style="fill:#231f20;fill-opacity:1;fill-rule:nonzero;stroke:none"
     d="m 137.84303,99.937184 c 2.026,-1.006 2.558,-0.923 3.036,-0.09 0.323,0.552996 0.808,0.947996 1.016,1.276996 0.708,1.089 1.438,3.223 1.948,9.781 0.115,1.485 0.287,3.573 0.432,4.423 0.214,1.333 -2.156,0.796 -2.249,0.27 -0.292,-1.688 -0.641,-2.822 -0.829,-3.412 -0.13,-0.41 -0.26,-1.161 -0.974,-2.672 -1.073,-2.286 -2.052,-3.5 -2.724,-5.505 -0.317,-0.932 -1.14,-1.432 -0.973,-2.5 0.145,-1.083 1.317,-1.571996 1.317,-1.571996"
     id="path224" />
  <path
     style="fill:none;stroke:#231f20;stroke-width:0.565977;stroke-linecap:butt;stroke-linejoin:miter;stroke-miterlimit:4;stroke-dasharray:none;stroke-opacity:1"
     d="m 137.84303,99.937184 c 2.026,-1.006 2.558,-0.923 3.036,-0.09 0.323,0.552996 0.808,0.947996 1.016,1.276996 0.708,1.089 1.438,3.223 1.948,9.781 0.115,1.485 0.287,3.573 0.432,4.423 0.214,1.333 -2.156,0.796 -2.249,0.27 -0.292,-1.688 -0.641,-2.822 -0.829,-3.412 -0.13,-0.41 -0.26,-1.161 -0.974,-2.672 -1.073,-2.286 -2.052,-3.5 -2.724,-5.505 -0.317,-0.932 -1.14,-1.432 -0.973,-2.5 0.145,-1.083 1.317,-1.571996 1.317,-1.571996 z"
     id="path225" />
  <path
     style="fill:#231f20;fill-opacity:1;fill-rule:nonzero;stroke:#231f20;stroke-width:0.565977;stroke-linecap:round;stroke-linejoin:round;stroke-miterlimit:4;stroke-dasharray:none;stroke-opacity:1"
     d="m 137.14503,102.33718 c -1.343,-0.463 -1.558,-2.603996 -1.739,-2.889996 -2.609,-4.276 -2.693,-4.652 -4.448,-8.047 -2.552,-4.906 -3.541,-8.657 -1.12,-10.969 1.645,-1.573 3.271,-1.765 4.468,-1.213 1.324,0.61 3.276,3.119 2.297,5.839 l 0.355,1.671 c 0.385,1.105 0.568,1.646 0.796,2.172 0.412,0.912 0.787,1.922 1.475,3.755 1.218,3.25 1.453,7.088 1.453,7.088 0.099,0.291996 0.072,0.573996 -0.027,0.817996"
     id="path226" />
  <path
     style="fill:#63c99d;fill-opacity:1;fill-rule:nonzero;stroke:none"
     d="m 134.02603,79.186184 c -1.22,-0.5 -2.833,-0.244 -4.417,1.386 -1.031,1.057 -1.364,2.38 -1.208,3.928 -0.126,1.03 -0.172,1.65 0.41,2.213 0.052,0.052 0.1,0.115 0.152,0.177 0.192,0.552 0.411,1.119 0.682,1.719 l 6.896,-3.678 c 0.88,-2.75 -1.167,-5.182 -2.515,-5.745"
     id="path227" />
  <path
     style="fill:none;stroke:#231f20;stroke-width:0.565977;stroke-linecap:butt;stroke-linejoin:miter;stroke-miterlimit:4;stroke-dasharray:none;stroke-opacity:1"
     d="m 134.02603,79.186184 c -1.22,-0.5 -2.833,-0.244 -4.417,1.386 -1.031,1.057 -1.364,2.38 -1.208,3.928 -0.126,1.03 -0.172,1.65 0.41,2.213 0.052,0.052 0.1,0.115 0.152,0.177 0.192,0.552 0.411,1.119 0.682,1.719 l 6.896,-3.678 c 0.88,-2.75 -1.167,-5.182 -2.515,-5.745 z"
     id="path228" />
  <path
     style="fill:#231f20;fill-opacity:1;fill-rule:nonzero;stroke:none"
     d="m 145.09803,117.56618 c 0.74,-1.129 0.151,-1.932 -0.849,-2.176 -0.302,-0.078 -0.484,-0.453 -0.78,-0.5 -0.699,-0.109 -2.068,0.968 -1.47,2.338 0.047,0.1 0.136,0.912 0.298,1.515 0.322,1.167 1.52,3.355 4.114,4.085 1.228,0.343 1.214,-0.443 0.76,-0.74 -1.442,-0.917 -1.396,-1.276 -1.688,-1.662 -0.984,-1.286 -0.385,-2.86 -0.385,-2.86"
     id="path229" />
  <path
     style="fill:none;stroke:#231f20;stroke-width:0.332927;stroke-linecap:butt;stroke-linejoin:miter;stroke-miterlimit:4;stroke-dasharray:none;stroke-opacity:1"
     d="m 145.09803,117.56618 c 0.74,-1.129 0.151,-1.932 -0.849,-2.176 -0.302,-0.078 -0.484,-0.453 -0.78,-0.5 -0.699,-0.109 -2.068,0.968 -1.47,2.338 0.047,0.1 0.136,0.912 0.298,1.515 0.322,1.167 1.52,3.355 4.114,4.085 1.228,0.343 1.214,-0.443 0.76,-0.74 -1.442,-0.917 -1.396,-1.276 -1.688,-1.662 -0.984,-1.286 -0.385,-2.86 -0.385,-2.86 z"
     id="path230" />
  <path
     style="fill:#ffffff;fill-opacity:1;fill-rule:nonzero;stroke:none"
     d="m 0.33292777,89.738184 c 0,0.688 0.5574,1.24 1.24020003,1.24 H 347.68703 c 0.686,0 1.238,-0.552 1.238,-1.24 0,-0.686 -0.552,-1.238 -1.238,-1.238 H 1.5731278 c -0.68280003,0 -1.24020003,0.552 -1.24020003,1.238"
     id="path231" />
  <path
     style="fill:none;stroke:#231f20;stroke-width:0.665856;stroke-linecap:butt;stroke-linejoin:miter;stroke-miterlimit:4;stroke-dasharray:none;stroke-opacity:1"
     d="m 0.33292777,89.738184 c 0,0.688 0.5574,1.24 1.24020003,1.24 H 347.68703 c 0.686,0 1.238,-0.552 1.238,-1.24 0,-0.686 -0.552,-1.238 -1.238,-1.238 H 1.5731278 c -0.68280003,0 -1.24020003,0.552 -1.24020003,1.238 z"
     id="path232" />
  <path
     style="fill:#231f20;fill-opacity:1;fill-rule:nonzero;stroke:none"
     d="m 313.82703,88.390184 c 0.39,-0.51 0.276,-2.453 0.797,-3.974 0.359,-1.026 0.115,-3.761 0.547,-4.755 0.39,-0.912 0.489,-1.371 -0.479,-1.995 -0.568,-0.37 -1.912,-0.718 -2.209,-0.308 -0.698,0.97 -0.906,1.891 -0.916,2.959 -0.016,1.219 0.238,4.516 0.338,5.125 0.266,1.495 -0.089,2.146 -0.057,2.547 0.057,0.76 0.364,0.927 0.859,0.994 0.953,0.135 1.12,-0.593 1.12,-0.593"
     id="path233" />
  <path
     style="fill:none;stroke:#231f20;stroke-width:0.565977;stroke-linecap:butt;stroke-linejoin:miter;stroke-miterlimit:4;stroke-dasharray:none;stroke-opacity:1"
     d="m 313.82703,88.390184 c 0.39,-0.51 0.276,-2.453 0.797,-3.974 0.359,-1.026 0.115,-3.761 0.547,-4.755 0.39,-0.912 0.489,-1.371 -0.479,-1.995 -0.568,-0.37 -1.912,-0.718 -2.209,-0.308 -0.698,0.97 -0.906,1.891 -0.916,2.959 -0.016,1.219 0.238,4.516 0.338,5.125 0.266,1.495 -0.089,2.146 -0.057,2.547 0.057,0.76 0.364,0.927 0.859,0.994 0.953,0.135 1.12,-0.593 1.12,-0.593 z"
     id="path234" />
  <path
     style="fill:#231f20;fill-opacity:1;fill-rule:nonzero;stroke:none"
     d="m 314.56703,79.358184 c 1.296,-0.03 0.869,-2.025 0.838,-2.562 -0.037,-0.547 0.047,-2.099 0.271,-3.296 0.219,-1.215 -0.021,-2.808 0.396,-5.095 0.219,-1.203 -0.333,-2.515 -2.089,-2.755 -1.744,-0.24 -2.531,0.651 -2.572,2.146 -0.048,1.494 0.541,2.922 0.604,4.428 0.062,1.509 -0.016,3.057 -0.142,4.265 -0.134,1.375 0.308,2.109 0.73,2.333 1.046,0.578 1.964,0.536 1.964,0.536"
     id="path235" />
  <path
     style="fill:none;stroke:#231f20;stroke-width:0.565977;stroke-linecap:butt;stroke-linejoin:miter;stroke-miterlimit:4;stroke-dasharray:none;stroke-opacity:1"
     d="m 314.56703,79.358184 c 1.296,-0.03 0.869,-2.025 0.838,-2.562 -0.037,-0.547 0.047,-2.099 0.271,-3.296 0.219,-1.215 -0.021,-2.808 0.396,-5.095 0.219,-1.203 -0.333,-2.515 -2.089,-2.755 -1.744,-0.24 -2.531,0.651 -2.572,2.146 -0.048,1.494 0.541,2.922 0.604,4.428 0.062,1.509 -0.016,3.057 -0.142,4.265 -0.134,1.375 0.308,2.109 0.73,2.333 1.046,0.578 1.964,0.536 1.964,0.536 z"
     id="path236" />
  <path
     style="fill:#63c99d;fill-opacity:1;fill-rule:nonzero;stroke:none"
     d="m 88.421028,59.614184 c 2.276,-2.152 2.531,-2.865 2.896,-3.714 2.313,-5.296 4.87,-4.062 6.433,-1.646 1.853,2.839 2.572002,3.828 -2.391,7.698 -1.39,1.073 -6.141,5.89 -6.141,5.89 -1.473,1.964 -3.954,3.084 -5.375,2.767 -1.5,-0.328 -0.885,-0.308 -2.213,-0.865 -1.271,-0.536 -2.573,-2.287 -2.297,-3.495 0.265,-1.156 1.849,-1.667 4.041,-2.703 1.73,-0.813 5.047,-3.932 5.047,-3.932"
     id="path237" />
  <path
     style="fill:none;stroke:#231f20;stroke-width:0.565977;stroke-linecap:butt;stroke-linejoin:miter;stroke-miterlimit:4;stroke-dasharray:none;stroke-opacity:1"
     d="m 88.421028,59.614184 c 2.276,-2.152 2.531,-2.865 2.896,-3.714 2.313,-5.296 4.87,-4.062 6.433,-1.646 1.853,2.839 2.572002,3.828 -2.391,7.698 -1.39,1.073 -6.141,5.89 -6.141,5.89 -1.473,1.964 -3.954,3.084 -5.375,2.767 -1.5,-0.328 -0.885,-0.308 -2.213,-0.865 -1.271,-0.536 -2.573,-2.287 -2.297,-3.495 0.265,-1.156 1.849,-1.667 4.041,-2.703 1.73,-0.813 5.047,-3.932 5.047,-3.932 z"
     id="path238" />
  <path
     style="fill:#ffffff;fill-opacity:1;fill-rule:nonzero;stroke:none"
     d="m 73.478128,72.776184 c -0.2385,-0.048 -0.7495,0.989 -1.2333,0.796 -0.4907,-0.203 -0.3855,-0.984 -1.735,-2.443 l -0.0156,-0.02 c -1.0213,-1.037 -1.4896,-2.344 -1.1145,-3.537 0.6197,-1.984 3.3077,-2.906 6.0003,-2.067 2.698,0.843 4.374,3.14 3.76,5.119 -0.594,1.896 -3.088,2.824 -5.6619,2.152"
     id="path239" />
  <path
     style="fill:none;stroke:#231f20;stroke-width:0.565977;stroke-linecap:butt;stroke-linejoin:miter;stroke-miterlimit:4;stroke-dasharray:none;stroke-opacity:1"
     d="m 73.478128,72.776184 c -0.2385,-0.048 -0.7495,0.989 -1.2333,0.796 -0.4907,-0.203 -0.3855,-0.984 -1.735,-2.443 l -0.0156,-0.02 c -1.0213,-1.037 -1.4896,-2.344 -1.1145,-3.537 0.6197,-1.984 3.3077,-2.906 6.0003,-2.067 2.698,0.843 4.374,3.14 3.76,5.119 -0.594,1.896 -3.088,2.824 -5.6619,2.152 z"
     id="path240" />
  <path
     style="fill:#231f20;fill-opacity:1;fill-rule:nonzero;stroke:none"
     d="m 84.573028,88.066184 c 0.364,-0.53 0.156,-2.468 0.603,-4.009 0.307,-1.043 -0.067,-3.761 0.318,-4.776 0.349,-0.933 0.422,-1.391 -0.573,-1.969 -0.588,-0.344 -1.948,-0.631 -2.224,-0.198 -0.651,0.995 -0.812,1.927 -0.771,3 0.043,1.214 0.454,4.495 0.59,5.093 0.333,1.49 0.01,2.151 0.062,2.553 0.093,0.754 0.405,0.906 0.905,0.953 0.959,0.082 1.09,-0.647 1.09,-0.647"
     id="path241" />
  <path
     style="fill:none;stroke:#231f20;stroke-width:0.565977;stroke-linecap:butt;stroke-linejoin:miter;stroke-miterlimit:4;stroke-dasharray:none;stroke-opacity:1"
     d="m 84.573028,88.066184 c 0.364,-0.53 0.156,-2.468 0.603,-4.009 0.307,-1.043 -0.067,-3.761 0.318,-4.776 0.349,-0.933 0.422,-1.391 -0.573,-1.969 -0.588,-0.344 -1.948,-0.631 -2.224,-0.198 -0.651,0.995 -0.812,1.927 -0.771,3 0.043,1.214 0.454,4.495 0.59,5.093 0.333,1.49 0.01,2.151 0.062,2.553 0.093,0.754 0.405,0.906 0.905,0.953 0.959,0.082 1.09,-0.647 1.09,-0.647 z"
     id="path242" />
  <path
     style="fill:#231f20;fill-opacity:1;fill-rule:nonzero;stroke:none"
     d="m 84.874028,79.009184 c 1.297,-0.099 0.771,-2.067 0.713,-2.599 -0.061,-0.541 -0.052,-2.098 0.11,-3.312 0.162,-1.218 -0.156,-2.797 0.152,-5.104 0.161,-1.213 -0.454,-2.494 -2.219,-2.652 -1.75,-0.156 -2.495,0.772 -2.469,2.272 0.026,1.49 0.688,2.886 0.817,4.39 0.136,1.505 0.131,3.053 0.074,4.272 -0.074,1.374 0.406,2.088 0.838,2.29 1.073,0.527 1.984,0.443 1.984,0.443"
     id="path243" />
  <path
     style="fill:none;stroke:#231f20;stroke-width:0.565977;stroke-linecap:butt;stroke-linejoin:miter;stroke-miterlimit:4;stroke-dasharray:none;stroke-opacity:1"
     d="m 84.874028,79.009184 c 1.297,-0.099 0.771,-2.067 0.713,-2.599 -0.061,-0.541 -0.052,-2.098 0.11,-3.312 0.162,-1.218 -0.156,-2.797 0.152,-5.104 0.161,-1.213 -0.454,-2.494 -2.219,-2.652 -1.75,-0.156 -2.495,0.772 -2.469,2.272 0.026,1.49 0.688,2.886 0.817,4.39 0.136,1.505 0.131,3.053 0.074,4.272 -0.074,1.374 0.406,2.088 0.838,2.29 1.073,0.527 1.984,0.443 1.984,0.443 z"
     id="path244" />
  <path
     style="fill:#231f20;fill-opacity:1;fill-rule:nonzero;stroke:none"
     d="m 108.32703,43.561184 c -1.786,-1.395 -1.942,-1.911 -1.401,-2.697 0.36,-0.536 0.505,-1.14 0.709,-1.474 0.676,-1.109 2.276,-2.688 7.968,-5.996 1.292,-0.738 3.094,-1.806 3.798,-2.306 1.109,-0.771 1.656,1.604 1.218,1.912 -1.396,1 -2.27,1.796 -2.718,2.228 -0.314,0.292 -0.932,0.74 -1.98,2.032 -1.599,1.953 -2.26,3.369 -3.782,4.844 -0.702,0.686 -0.79,1.645 -1.828,1.962 -1.036,0.334 -1.984,-0.505 -1.984,-0.505"
     id="path245" />
  <path
     style="fill:none;stroke:#231f20;stroke-width:0.565977;stroke-linecap:butt;stroke-linejoin:miter;stroke-miterlimit:4;stroke-dasharray:none;stroke-opacity:1"
     d="m 108.32703,43.561184 c -1.786,-1.395 -1.942,-1.911 -1.401,-2.697 0.36,-0.536 0.505,-1.14 0.709,-1.474 0.676,-1.109 2.276,-2.688 7.968,-5.996 1.292,-0.738 3.094,-1.806 3.798,-2.306 1.109,-0.771 1.656,1.604 1.218,1.912 -1.396,1 -2.27,1.796 -2.718,2.228 -0.314,0.292 -0.932,0.74 -1.98,2.032 -1.599,1.953 -2.26,3.369 -3.782,4.844 -0.702,0.686 -0.79,1.645 -1.828,1.962 -1.036,0.334 -1.984,-0.505 -1.984,-0.505 z"
     id="path246" />
  <path
     style="fill:#231f20;fill-opacity:1;fill-rule:nonzero;stroke:#231f20;stroke-width:0.565977;stroke-linecap:round;stroke-linejoin:round;stroke-miterlimit:4;stroke-dasharray:none;stroke-opacity:1"
     d="m 110.79703,43.145184 c 0.161,1.412 -1.678,2.531 -1.855,2.823 -2.724,4.208 -3.021,4.442 -5.312,7.494 -3.319,4.428 -6.267002,6.948 -9.401002,5.766 -2.131,-0.802 -3.011,-2.182 -3.036,-3.5 -0.022,-1.458 1.389,-4.307 4.27,-4.599 l 1.348,-1.047 c 0.828,-0.822 1.24,-1.224 1.615,-1.661 0.642,-0.765 1.391,-1.536 2.740002,-2.953 2.407,-2.516 5.755,-4.38 5.755,-4.38 0.218,-0.219 0.48,-0.318 0.75,-0.334"
     id="path247" />
  <path
     style="fill:#63c99d;fill-opacity:1;fill-rule:nonzero;stroke:none"
     d="m 101.67603,55.858184 -6.296002,-4.625 c -2.864,0.401 -4.167,3.303 -4.088,4.761 0.071,1.312 1.01,2.662 3.16,3.38 1.402,0.468 2.741,0.198 4.063,-0.614 0.984,-0.334 1.568002,-0.563 1.818002,-1.334 0.021,-0.068 0.057,-0.136 0.093,-0.208 0.417,-0.412 0.833,-0.854 1.25,-1.36"
     id="path248" />
  <path
     style="fill:none;stroke:#231f20;stroke-width:0.565977;stroke-linecap:butt;stroke-linejoin:miter;stroke-miterlimit:4;stroke-dasharray:none;stroke-opacity:1"
     d="m 101.67603,55.858184 -6.296002,-4.625 c -2.864,0.401 -4.167,3.303 -4.088,4.761 0.071,1.312 1.01,2.662 3.16,3.38 1.402,0.468 2.741,0.198 4.063,-0.614 0.984,-0.334 1.568002,-0.563 1.818002,-1.334 0.021,-0.068 0.057,-0.136 0.093,-0.208 0.417,-0.412 0.833,-0.854 1.25,-1.36 z"
     id="path249" />
  <path
     style="fill:#231f20;fill-opacity:1;fill-rule:nonzero;stroke:none"
     d="m 121.06203,29.374184 c -1.344,-0.172 -1.813,0.703 -1.593,1.714 0.061,0.302 -0.199,0.63 -0.11,0.916 0.203,0.677 1.766,1.448 2.744,0.313 0.063,-0.084 0.76,-0.521 1.23,-0.927 0.916,-0.792 2.369,-2.829 1.901,-5.48 -0.224,-1.26 -0.928,-0.896 -0.989,-0.358 -0.204,1.697 -0.552,1.806 -0.776,2.233 -0.724,1.453 -2.407,1.589 -2.407,1.589"
     id="path250" />
  <path
     style="fill:none;stroke:#231f20;stroke-width:0.332927;stroke-linecap:butt;stroke-linejoin:miter;stroke-miterlimit:4;stroke-dasharray:none;stroke-opacity:1"
     d="m 121.06203,29.374184 c -1.344,-0.172 -1.813,0.703 -1.593,1.714 0.061,0.302 -0.199,0.63 -0.11,0.916 0.203,0.677 1.766,1.448 2.744,0.313 0.063,-0.084 0.76,-0.521 1.23,-0.927 0.916,-0.792 2.369,-2.829 1.901,-5.48 -0.224,-1.26 -0.928,-0.896 -0.989,-0.358 -0.204,1.697 -0.552,1.806 -0.776,2.233 -0.724,1.453 -2.407,1.589 -2.407,1.589 z"
     id="path251" />
  <path
     style="fill:#231f20;fill-opacity:1;fill-rule:nonzero;stroke:none"
     d="m 80.713028,89.088184 c -0.161,1.166 0.656,2.245 1.822,2.401 1.167,0.161 2.246,-0.656 2.407,-1.823 0.156,-1.166 -0.661,-2.245 -1.828,-2.406 -1.167,-0.156 -2.245,0.661 -2.401,1.828"
     id="path252" />
  <path
     style="fill:#63c99d;fill-opacity:1;fill-rule:nonzero;stroke:none"
     d="m 50.447328,58.790184 c -0.2129,-3.124 -0.5984,-3.776 -1.0213,-4.598 -2.6145,-5.151 -0.0359,-6.344 2.8281,-6.011 3.3708,0.385 4.5839,0.459 4.412,6.745 -0.0521,1.755 0.636,8.49 0.636,8.49 0.5719,2.385 -0.136,5.01 -1.2865,5.906 -1.2135,0.943 -0.8025,0.484 -2.0787,1.151 -1.2238,0.641 -3.4068,0.536 -4.1562,-0.448 -0.7239,-0.943 -0.1042,-2.489 0.4896,-4.839 0.4745,-1.853 0.177,-6.396 0.177,-6.396"
     id="path253" />
  <path
     style="fill:none;stroke:#231f20;stroke-width:0.565977;stroke-linecap:butt;stroke-linejoin:miter;stroke-miterlimit:4;stroke-dasharray:none;stroke-opacity:1"
     d="m 50.447328,58.790184 c -0.2129,-3.124 -0.5984,-3.776 -1.0213,-4.598 -2.6145,-5.151 -0.0359,-6.344 2.8281,-6.011 3.3708,0.385 4.5839,0.459 4.412,6.745 -0.0521,1.755 0.636,8.49 0.636,8.49 0.5719,2.385 -0.136,5.01 -1.2865,5.906 -1.2135,0.943 -0.8025,0.484 -2.0787,1.151 -1.2238,0.641 -3.4068,0.536 -4.1562,-0.448 -0.7239,-0.943 -0.1042,-2.489 0.4896,-4.839 0.4745,-1.853 0.177,-6.396 0.177,-6.396 z"
     id="path254" />
  <path
     style="fill:#ffffff;fill-opacity:1;fill-rule:nonzero;stroke:none"
     d="m 52.863528,79.104184 c -0.1562,0.186 0.5,1.134 0.089,1.457 -0.4061,0.333 -1.041,-0.14 -2.9744,0.333 l -0.0198,0.006 c -1.3963,0.39 -2.776,0.166 -3.6359,-0.739 -1.4374,-1.506 -0.9374,-4.303 1.0984,-6.251 2.0521,-1.953 4.876,-2.306 6.3027,-0.806 1.3744,1.437 0.9733,4.072 -0.86,6"
     id="path255" />
  <path
     style="fill:none;stroke:#231f20;stroke-width:0.565977;stroke-linecap:butt;stroke-linejoin:miter;stroke-miterlimit:4;stroke-dasharray:none;stroke-opacity:1"
     d="m 52.863528,79.104184 c -0.1562,0.186 0.5,1.134 0.089,1.457 -0.4061,0.333 -1.041,-0.14 -2.9744,0.333 l -0.0198,0.006 c -1.3963,0.39 -2.776,0.166 -3.6359,-0.739 -1.4374,-1.506 -0.9374,-4.303 1.0984,-6.251 2.0521,-1.953 4.876,-2.306 6.3027,-0.806 1.3744,1.437 0.9733,4.072 -0.86,6 z"
     id="path256" />
  <path
     style="fill:#231f20;fill-opacity:1;fill-rule:nonzero;stroke:none"
     d="m 53.072928,88.390184 c 0.3854,-0.51 0.276,-2.453 0.7959,-3.974 0.3547,-1.026 0.1145,-3.761 0.5479,-4.755 0.3896,-0.912 0.4896,-1.371 -0.4798,-1.995 -0.5681,-0.37 -1.9109,-0.718 -2.2082,-0.308 -0.6986,0.97 -0.9063,1.891 -0.9172,2.959 -0.0147,1.219 0.2401,4.516 0.3385,5.125 0.2667,1.495 -0.088,2.146 -0.0573,2.547 0.0573,0.76 0.3656,0.927 0.8598,0.994 0.9538,0.135 1.1204,-0.593 1.1204,-0.593"
     id="path257" />
  <path
     style="fill:none;stroke:#231f20;stroke-width:0.565977;stroke-linecap:butt;stroke-linejoin:miter;stroke-miterlimit:4;stroke-dasharray:none;stroke-opacity:1"
     d="m 53.072928,88.390184 c 0.3854,-0.51 0.276,-2.453 0.7959,-3.974 0.3547,-1.026 0.1145,-3.761 0.5479,-4.755 0.3896,-0.912 0.4896,-1.371 -0.4798,-1.995 -0.5681,-0.37 -1.9109,-0.718 -2.2082,-0.308 -0.6986,0.97 -0.9063,1.891 -0.9172,2.959 -0.0147,1.219 0.2401,4.516 0.3385,5.125 0.2667,1.495 -0.088,2.146 -0.0573,2.547 0.0573,0.76 0.3656,0.927 0.8598,0.994 0.9538,0.135 1.1204,-0.593 1.1204,-0.593 z"
     id="path258" />
  <path
     style="fill:#231f20;fill-opacity:1;fill-rule:nonzero;stroke:none"
     d="m 53.811528,79.358184 c 1.2973,-0.03 0.865,-2.025 0.8333,-2.562 -0.0308,-0.547 0.052,-2.099 0.276,-3.296 0.2188,-1.215 -0.0197,-2.808 0.3907,-5.095 0.224,-1.203 -0.3282,-2.515 -2.0828,-2.755 -1.7454,-0.24 -2.5319,0.651 -2.5787,2.146 -0.0464,1.494 0.5468,2.922 0.6093,4.428 0.0574,1.509 -0.0197,3.057 -0.1401,4.265 -0.1359,1.375 0.3068,2.109 0.7297,2.333 1.0464,0.578 1.9626,0.536 1.9626,0.536"
     id="path259" />
  <path
     style="fill:none;stroke:#231f20;stroke-width:0.565977;stroke-linecap:butt;stroke-linejoin:miter;stroke-miterlimit:4;stroke-dasharray:none;stroke-opacity:1"
     d="m 53.811528,79.358184 c 1.2973,-0.03 0.865,-2.025 0.8333,-2.562 -0.0308,-0.547 0.052,-2.099 0.276,-3.296 0.2188,-1.215 -0.0197,-2.808 0.3907,-5.095 0.224,-1.203 -0.3282,-2.515 -2.0828,-2.755 -1.7454,-0.24 -2.5319,0.651 -2.5787,2.146 -0.0464,1.494 0.5468,2.922 0.6093,4.428 0.0574,1.509 -0.0197,3.057 -0.1401,4.265 -0.1359,1.375 0.3068,2.109 0.7297,2.333 1.0464,0.578 1.9626,0.536 1.9626,0.536 z"
     id="path260" />
  <path
     style="fill:#231f20;fill-opacity:1;fill-rule:nonzero;stroke:none"
     d="m 50.739628,33.213184 c -2.2095,0.489 -2.7095,0.287 -2.9693,-0.636 -0.1828,-0.62 -0.5572,-1.12 -0.6828,-1.484 -0.4265,-1.229 -0.6292,-3.469 0.448,-9.964 0.2504,-1.468 0.5733,-3.541 0.641,-4.396 0.1094,-1.348 2.2818,-0.26 2.2443,0.276 -0.1145,1.709 -0.052,2.891 -0.0093,3.516 0.0254,0.423 -0.0266,1.183 0.3068,2.817 0.489,2.48 1.1557,3.891 1.3281,6 0.0837,0.98 0.7651,1.662 0.3489,2.662 -0.401,1.01 -1.6557,1.209 -1.6557,1.209"
     id="path261" />
  <path
     style="fill:none;stroke:#231f20;stroke-width:0.565977;stroke-linecap:butt;stroke-linejoin:miter;stroke-miterlimit:4;stroke-dasharray:none;stroke-opacity:1"
     d="m 50.739628,33.213184 c -2.2095,0.489 -2.7095,0.287 -2.9693,-0.636 -0.1828,-0.62 -0.5572,-1.12 -0.6828,-1.484 -0.4265,-1.229 -0.6292,-3.469 0.448,-9.964 0.2504,-1.468 0.5733,-3.541 0.641,-4.396 0.1094,-1.348 2.2818,-0.26 2.2443,0.276 -0.1145,1.709 -0.052,2.891 -0.0093,3.516 0.0254,0.423 -0.0266,1.183 0.3068,2.817 0.489,2.48 1.1557,3.891 1.3281,6 0.0837,0.98 0.7651,1.662 0.3489,2.662 -0.401,1.01 -1.6557,1.209 -1.6557,1.209 z"
     id="path262" />
  <path
     style="fill:#231f20;fill-opacity:1;fill-rule:nonzero;stroke:#231f20;stroke-width:0.565977;stroke-linecap:round;stroke-linejoin:round;stroke-miterlimit:4;stroke-dasharray:none;stroke-opacity:1"
     d="m 51.994328,31.046184 c 1.1932,0.771 0.8854,2.906 0.989,3.23 1.5162,4.781 1.5058,5.161 2.4016,8.869 1.2974,5.375 1.3692,9.255 -1.536,10.927 -1.9749,1.13 -3.6,0.928 -4.6306,0.109 -1.1402,-0.911 -2.4376,-3.817 -0.8334,-6.224 l 0.052,-1.708 c -0.1041,-1.161 -0.1562,-1.729 -0.2494,-2.297 -0.1828,-0.984 -0.3026,-2.052 -0.5375,-4 -0.4052,-3.447 0.2869,-7.224 0.2869,-7.224 -0.0306,-0.307 0.0678,-0.572 0.2188,-0.796"
     id="path263" />
  <path
     style="fill:#63c99d;fill-opacity:1;fill-rule:nonzero;stroke:none"
     d="m 56.343228,48.213184 c -0.0369,-0.063 -0.0677,-0.131 -0.1036,-0.209 -0.0521,-0.583 -0.1308,-1.182 -0.2505,-1.828 l -7.5776,1.912 c -1.5104,2.464 -0.1052,5.317 1.0666,6.188 1.0626,0.776 2.6984,0.91 4.6255,-0.287 1.2505,-0.781 1.8907,-1.985 2.1095,-3.527 0.3692,-0.968 0.5676,-1.568 0.1301,-2.249"
     id="path264" />
  <path
     style="fill:none;stroke:#231f20;stroke-width:0.565977;stroke-linecap:butt;stroke-linejoin:miter;stroke-miterlimit:4;stroke-dasharray:none;stroke-opacity:1"
     d="m 56.343228,48.213184 c -0.0369,-0.063 -0.0677,-0.131 -0.1036,-0.209 -0.0521,-0.583 -0.1308,-1.182 -0.2505,-1.828 l -7.5776,1.912 c -1.5104,2.464 -0.1052,5.317 1.0666,6.188 1.0626,0.776 2.6984,0.91 4.6255,-0.287 1.2505,-0.781 1.8907,-1.985 2.1095,-3.527 0.3692,-0.968 0.5676,-1.568 0.1301,-2.249 z"
     id="path265" />
  <path
     style="fill:#231f20;fill-opacity:1;fill-rule:nonzero;stroke:none"
     d="m 47.906328,14.358184 c -0.9855,0.927 -0.6095,1.844 0.3068,2.318 0.276,0.146 0.365,0.557 0.641,0.672 0.6506,0.276 2.2438,-0.443 1.9839,-1.922 -0.0213,-0.104 0.088,-0.917 0.0735,-1.536 -0.0318,-1.214 -0.6719,-3.625 -3.0214,-4.9479996 -1.1094,-0.63 -1.2761,0.14 -0.9067,0.531 1.1827,1.2399996 1.0467,1.5789996 1.2349,2.0209996 0.6557,1.484 -0.312,2.864 -0.312,2.864"
     id="path266" />
  <path
     style="fill:none;stroke:#231f20;stroke-width:0.332927;stroke-linecap:butt;stroke-linejoin:miter;stroke-miterlimit:4;stroke-dasharray:none;stroke-opacity:1"
     d="m 47.906328,14.358184 c -0.9855,0.927 -0.6095,1.844 0.3068,2.318 0.276,0.146 0.365,0.557 0.641,0.672 0.6506,0.276 2.2438,-0.443 1.9839,-1.922 -0.0213,-0.104 0.088,-0.917 0.0735,-1.536 -0.0318,-1.214 -0.6719,-3.625 -3.0214,-4.9479996 -1.1094,-0.63 -1.2761,0.14 -0.9067,0.531 1.1827,1.2399996 1.0467,1.5789996 1.2349,2.0209996 0.6557,1.484 -0.312,2.864 -0.312,2.864 z"
     id="path267" />
  <path
     style="fill:#231f20;fill-opacity:1;fill-rule:nonzero;stroke:none"
     d="m 49.166128,89.224184 c -0.2136,1.161 0.547,2.27 1.7079,2.489 1.1561,0.213 2.2708,-0.547 2.4853,-1.709 0.2188,-1.157 -0.5478,-2.271 -1.7093,-2.485 -1.1557,-0.213 -2.2703,0.547 -2.4839,1.705"
     id="path268" />
  <path
     style="fill:#63c99d;fill-opacity:1;fill-rule:nonzero;stroke:none"
     d="m 311.20103,58.790184 c -0.208,-3.124 -0.598,-3.776 -1.014,-4.598 -2.615,-5.151 -0.038,-6.344 2.822,-6.011 3.37,0.385 4.588,0.459 4.416,6.745 -0.057,1.755 0.631,8.49 0.631,8.49 0.573,2.385 -0.136,5.01 -1.287,5.906 -1.213,0.943 -0.801,0.484 -2.077,1.151 -1.224,0.641 -3.401,0.536 -4.157,-0.448 -0.724,-0.943 -0.104,-2.489 0.49,-4.839 0.474,-1.853 0.176,-6.396 0.176,-6.396"
     id="path269" />
  <path
     style="fill:none;stroke:#231f20;stroke-width:0.565977;stroke-linecap:butt;stroke-linejoin:miter;stroke-miterlimit:4;stroke-dasharray:none;stroke-opacity:1"
     d="m 311.20103,58.790184 c -0.208,-3.124 -0.598,-3.776 -1.014,-4.598 -2.615,-5.151 -0.038,-6.344 2.822,-6.011 3.37,0.385 4.588,0.459 4.416,6.745 -0.057,1.755 0.631,8.49 0.631,8.49 0.573,2.385 -0.136,5.01 -1.287,5.906 -1.213,0.943 -0.801,0.484 -2.077,1.151 -1.224,0.641 -3.401,0.536 -4.157,-0.448 -0.724,-0.943 -0.104,-2.489 0.49,-4.839 0.474,-1.853 0.176,-6.396 0.176,-6.396 z"
     id="path270" />
  <path
     style="fill:#ffffff;fill-opacity:1;fill-rule:nonzero;stroke:none"
     d="m 313.61903,79.104184 c -0.156,0.186 0.5,1.134 0.093,1.457 -0.411,0.333 -1.047,-0.14 -2.979,0.333 l -0.021,0.006 c -1.396,0.39 -2.771,0.166 -3.634,-0.739 -1.439,-1.506 -0.934,-4.303 1.103,-6.251 2.047,-1.953 4.87,-2.306 6.296,-0.806 1.376,1.437 0.98,4.072 -0.858,6"
     id="path271" />
  <path
     style="fill:none;stroke:#231f20;stroke-width:0.565977;stroke-linecap:butt;stroke-linejoin:miter;stroke-miterlimit:4;stroke-dasharray:none;stroke-opacity:1"
     d="m 313.61903,79.104184 c -0.156,0.186 0.5,1.134 0.093,1.457 -0.411,0.333 -1.047,-0.14 -2.979,0.333 l -0.021,0.006 c -1.396,0.39 -2.771,0.166 -3.634,-0.739 -1.439,-1.506 -0.934,-4.303 1.103,-6.251 2.047,-1.953 4.87,-2.306 6.296,-0.806 1.376,1.437 0.98,4.072 -0.858,6 z"
     id="path272" />
  <path
     style="fill:#231f20;fill-opacity:1;fill-rule:nonzero;stroke:none"
     d="m 318.22303,87.926184 c 0.265,-0.584 -0.271,-2.458 -0.094,-4.052 0.119,-1.084 -0.718,-3.698 -0.51,-4.76 0.177,-0.979 0.172,-1.444 -0.912,-1.844 -0.635,-0.24 -2.02,-0.281 -2.224,0.192 -0.463,1.095 -0.468,2.038 -0.239,3.084 0.249,1.192 1.224,4.354 1.452,4.922 0.589,1.406 0.391,2.114 0.505,2.5 0.224,0.729 0.558,0.817 1.063,0.786 0.959,-0.084 0.959,-0.828 0.959,-0.828"
     id="path273" />
  <path
     style="fill:none;stroke:#231f20;stroke-width:0.565977;stroke-linecap:butt;stroke-linejoin:miter;stroke-miterlimit:4;stroke-dasharray:none;stroke-opacity:1"
     d="m 318.22303,87.926184 c 0.265,-0.584 -0.271,-2.458 -0.094,-4.052 0.119,-1.084 -0.718,-3.698 -0.51,-4.76 0.177,-0.979 0.172,-1.444 -0.912,-1.844 -0.635,-0.24 -2.02,-0.281 -2.224,0.192 -0.463,1.095 -0.468,2.038 -0.239,3.084 0.249,1.192 1.224,4.354 1.452,4.922 0.589,1.406 0.391,2.114 0.505,2.5 0.224,0.729 0.558,0.817 1.063,0.786 0.959,-0.084 0.959,-0.828 0.959,-0.828 z"
     id="path274" />
  <path
     style="fill:#231f20;fill-opacity:1;fill-rule:nonzero;stroke:none"
     d="m 316.95703,78.952184 c 1.26,-0.317 0.402,-2.167 0.255,-2.682 -0.156,-0.527 -0.411,-2.062 -0.459,-3.281 -0.052,-1.224 -0.64,-2.729 -0.738,-5.057 -0.047,-1.219 -0.876,-2.375 -2.642,-2.224 -1.749,0.15 -2.328,1.186 -2.041,2.661 0.287,1.464 1.177,2.724 1.568,4.183 0.391,1.457 0.656,2.989 0.801,4.191 0.172,1.371 0.762,1.99 1.224,2.115 1.152,0.334 2.032,0.094 2.032,0.094"
     id="path275" />
  <path
     style="fill:none;stroke:#231f20;stroke-width:0.565977;stroke-linecap:butt;stroke-linejoin:miter;stroke-miterlimit:4;stroke-dasharray:none;stroke-opacity:1"
     d="m 316.95703,78.952184 c 1.26,-0.317 0.402,-2.167 0.255,-2.682 -0.156,-0.527 -0.411,-2.062 -0.459,-3.281 -0.052,-1.224 -0.64,-2.729 -0.738,-5.057 -0.047,-1.219 -0.876,-2.375 -2.642,-2.224 -1.749,0.15 -2.328,1.186 -2.041,2.661 0.287,1.464 1.177,2.724 1.568,4.183 0.391,1.457 0.656,2.989 0.801,4.191 0.172,1.371 0.762,1.99 1.224,2.115 1.152,0.334 2.032,0.094 2.032,0.094 z"
     id="path276" />
  <path
     style="fill:#231f20;fill-opacity:1;fill-rule:nonzero;stroke:none"
     d="m 314.59703,89.598184 c 0.042,1.178 1.032,2.094 2.208,2.052 1.178,-0.046 2.1,-1.036 2.054,-2.213 -0.043,-1.178 -1.032,-2.095 -2.215,-2.052 -1.176,0.046 -2.093,1.036 -2.047,2.213"
     id="path277" />
  <path
     style="fill:#231f20;fill-opacity:1;fill-rule:nonzero;stroke:none"
     d="m 311.49303,33.213184 c -2.208,0.489 -2.702,0.287 -2.968,-0.636 -0.182,-0.62 -0.557,-1.12 -0.682,-1.484 -0.427,-1.229 -0.631,-3.469 0.448,-9.964 0.249,-1.468 0.572,-3.541 0.64,-4.396 0.109,-1.348 2.286,-0.26 2.245,0.276 -0.115,1.709 -0.052,2.891 -0.011,3.516 0.027,0.423 -0.021,1.183 0.307,2.817 0.496,2.48 1.163,3.891 1.329,6 0.083,0.98 0.766,1.662 0.348,2.662 -0.4,1.01 -1.656,1.209 -1.656,1.209"
     id="path278" />
  <path
     style="fill:none;stroke:#231f20;stroke-width:0.565977;stroke-linecap:butt;stroke-linejoin:miter;stroke-miterlimit:4;stroke-dasharray:none;stroke-opacity:1"
     d="m 311.49303,33.213184 c -2.208,0.489 -2.702,0.287 -2.968,-0.636 -0.182,-0.62 -0.557,-1.12 -0.682,-1.484 -0.427,-1.229 -0.631,-3.469 0.448,-9.964 0.249,-1.468 0.572,-3.541 0.64,-4.396 0.109,-1.348 2.286,-0.26 2.245,0.276 -0.115,1.709 -0.052,2.891 -0.011,3.516 0.027,0.423 -0.021,1.183 0.307,2.817 0.496,2.48 1.163,3.891 1.329,6 0.083,0.98 0.766,1.662 0.348,2.662 -0.4,1.01 -1.656,1.209 -1.656,1.209 z"
     id="path279" />
  <path
     style="fill:#231f20;fill-opacity:1;fill-rule:nonzero;stroke:#231f20;stroke-width:0.565977;stroke-linecap:round;stroke-linejoin:round;stroke-miterlimit:4;stroke-dasharray:none;stroke-opacity:1"
     d="m 312.74903,31.046184 c 1.192,0.771 0.886,2.906 0.995,3.23 1.509,4.781 1.5,5.161 2.4,8.869 1.297,5.375 1.365,9.255 -1.541,10.927 -1.974,1.13 -3.599,0.928 -4.631,0.109 -1.14,-0.911 -2.437,-3.817 -0.833,-6.224 l 0.053,-1.708 c -0.105,-1.161 -0.157,-1.729 -0.251,-2.297 -0.182,-0.984 -0.302,-2.052 -0.536,-4 -0.401,-3.447 0.287,-7.224 0.287,-7.224 -0.027,-0.307 0.067,-0.572 0.223,-0.796"
     id="path280" />
  <path
     style="fill:#63c99d;fill-opacity:1;fill-rule:nonzero;stroke:none"
     d="m 317.10303,48.213184 c -0.036,-0.063 -0.074,-0.131 -0.11,-0.209 -0.052,-0.583 -0.13,-1.182 -0.249,-1.828 l -7.573,1.912 c -1.516,2.464 -0.104,5.317 1.068,6.188 1.057,0.776 2.692,0.91 4.62,-0.287 1.249,-0.781 1.89,-1.985 2.109,-3.527 0.369,-0.968 0.567,-1.568 0.135,-2.249"
     id="path281" />
  <path
     style="fill:none;stroke:#231f20;stroke-width:0.565977;stroke-linecap:butt;stroke-linejoin:miter;stroke-miterlimit:4;stroke-dasharray:none;stroke-opacity:1"
     d="m 317.10303,48.213184 c -0.036,-0.063 -0.074,-0.131 -0.11,-0.209 -0.052,-0.583 -0.13,-1.182 -0.249,-1.828 l -7.573,1.912 c -1.516,2.464 -0.104,5.317 1.068,6.188 1.057,0.776 2.692,0.91 4.62,-0.287 1.249,-0.781 1.89,-1.985 2.109,-3.527 0.369,-0.968 0.567,-1.568 0.135,-2.249 z"
     id="path282" />
  <path
     style="fill:#231f20;fill-opacity:1;fill-rule:nonzero;stroke:none"
     d="m 308.66503,14.358184 c -0.989,0.927 -0.614,1.844 0.303,2.318 0.28,0.146 0.364,0.557 0.64,0.672 0.651,0.276 2.245,-0.443 1.984,-1.922 -0.015,-0.104 0.089,-0.917 0.073,-1.536 -0.03,-1.214 -0.672,-3.625 -3.016,-4.9479996 -1.114,-0.63 -1.281,0.14 -0.91,0.531 1.181,1.2399996 1.046,1.5789996 1.233,2.0209996 0.657,1.484 -0.307,2.864 -0.307,2.864"
     id="path283" />
  <path
     style="fill:none;stroke:#231f20;stroke-width:0.332927;stroke-linecap:butt;stroke-linejoin:miter;stroke-miterlimit:4;stroke-dasharray:none;stroke-opacity:1"
     d="m 308.66503,14.358184 c -0.989,0.927 -0.614,1.844 0.303,2.318 0.28,0.146 0.364,0.557 0.64,0.672 0.651,0.276 2.245,-0.443 1.984,-1.922 -0.015,-0.104 0.089,-0.917 0.073,-1.536 -0.03,-1.214 -0.672,-3.625 -3.016,-4.9479996 -1.114,-0.63 -1.281,0.14 -0.91,0.531 1.181,1.2399996 1.046,1.5789996 1.233,2.0209996 0.657,1.484 -0.307,2.864 -0.307,2.864 z"
     id="path284" />
  <path
     style="fill:#63c99d;fill-opacity:1;fill-rule:nonzero;stroke:none"
     d="m 191.96303,69.978184 c -3.131,0.23 -3.781,0.62 -4.6,1.047 -5.14,2.645 -6.348,0.068 -6.025,-2.797 0.364,-3.37 0.432,-4.588 6.724,-4.447 1.754,0.047 8.489,-0.677 8.489,-0.677 2.385,-0.59 5.016,0.109 5.917,1.254 0.952,1.208 0.484,0.803 1.162,2.074 0.645,1.213 0.552,3.401 -0.428,4.156 -0.943,0.729 -2.49,0.12 -4.839,-0.464 -1.859,-0.458 -6.4,-0.146 -6.4,-0.146"
     id="path285" />
  <path
     style="fill:none;stroke:#231f20;stroke-width:0.565977;stroke-linecap:butt;stroke-linejoin:miter;stroke-miterlimit:4;stroke-dasharray:none;stroke-opacity:1"
     d="m 191.96303,69.978184 c -3.131,0.23 -3.781,0.62 -4.6,1.047 -5.14,2.645 -6.348,0.068 -6.025,-2.797 0.364,-3.37 0.432,-4.588 6.724,-4.447 1.754,0.047 8.489,-0.677 8.489,-0.677 2.385,-0.59 5.016,0.109 5.917,1.254 0.952,1.208 0.484,0.803 1.162,2.074 0.645,1.213 0.552,3.401 -0.428,4.156 -0.943,0.729 -2.49,0.12 -4.839,-0.464 -1.859,-0.458 -6.4,-0.146 -6.4,-0.146 z"
     id="path286" />
  <path
     style="fill:#ffffff;fill-opacity:1;fill-rule:nonzero;stroke:none"
     d="m 207.09803,60.728184 c 0.182,-0.162 -0.323,-1.198 0.125,-1.458 0.453,-0.27 1.011,0.296 2.995,0.12 l 0.021,-0.005 c 1.443,-0.177 2.765,0.249 3.484,1.276 1.192,1.708 0.281,4.4 -2.027,6.015 -2.322,1.62 -5.161,1.552 -6.353,-0.146 -1.147,-1.625 -0.355,-4.172 1.755,-5.802"
     id="path287" />
  <path
     style="fill:none;stroke:#231f20;stroke-width:0.565977;stroke-linecap:butt;stroke-linejoin:miter;stroke-miterlimit:4;stroke-dasharray:none;stroke-opacity:1"
     d="m 207.09803,60.728184 c 0.182,-0.162 -0.323,-1.198 0.125,-1.458 0.453,-0.27 1.011,0.296 2.995,0.12 l 0.021,-0.005 c 1.443,-0.177 2.765,0.249 3.484,1.276 1.192,1.708 0.281,4.4 -2.027,6.015 -2.322,1.62 -5.161,1.552 -6.353,-0.146 -1.147,-1.625 -0.355,-4.172 1.755,-5.802 z"
     id="path288" />
  <path
     style="fill:#231f20;fill-opacity:1;fill-rule:nonzero;stroke:none"
     d="m 202.28003,88.233184 c 0.35,-0.541 0.068,-2.468 0.459,-4.026 0.26,-1.057 -0.213,-3.755 0.129,-4.786 0.314,-0.943 0.366,-1.407 -0.65,-1.948 -0.599,-0.323 -1.97,-0.552 -2.23,-0.109 -0.609,1.021 -0.74,1.958 -0.656,3.021 0.088,1.213 0.631,4.484 0.782,5.077 0.39,1.469 0.098,2.147 0.161,2.547 0.125,0.75 0.448,0.885 0.948,0.917 0.959,0.047 1.057,-0.693 1.057,-0.693"
     id="path289" />
  <path
     style="fill:none;stroke:#231f20;stroke-width:0.565977;stroke-linecap:butt;stroke-linejoin:miter;stroke-miterlimit:4;stroke-dasharray:none;stroke-opacity:1"
     d="m 202.28003,88.233184 c 0.35,-0.541 0.068,-2.468 0.459,-4.026 0.26,-1.057 -0.213,-3.755 0.129,-4.786 0.314,-0.943 0.366,-1.407 -0.65,-1.948 -0.599,-0.323 -1.97,-0.552 -2.23,-0.109 -0.609,1.021 -0.74,1.958 -0.656,3.021 0.088,1.213 0.631,4.484 0.782,5.077 0.39,1.469 0.098,2.147 0.161,2.547 0.125,0.75 0.448,0.885 0.948,0.917 0.959,0.047 1.057,-0.693 1.057,-0.693 z"
     id="path290" />
  <path
     style="fill:#231f20;fill-opacity:1;fill-rule:nonzero;stroke:none"
     d="m 202.23903,79.172184 c 1.291,-0.147 0.692,-2.095 0.609,-2.626 -0.078,-0.537 -0.13,-2.094 -0.01,-3.308 0.114,-1.224 -0.266,-2.79 -0.052,-5.109 0.114,-1.219 -0.547,-2.473 -2.318,-2.563 -1.756,-0.088 -2.469,0.866 -2.381,2.36 0.084,1.495 0.797,2.859 0.985,4.359 0.198,1.5 0.25,3.048 0.234,4.261 -0.015,1.385 0.49,2.072 0.928,2.26 1.093,0.484 2.005,0.366 2.005,0.366"
     id="path291" />
  <path
     style="fill:none;stroke:#231f20;stroke-width:0.565977;stroke-linecap:butt;stroke-linejoin:miter;stroke-miterlimit:4;stroke-dasharray:none;stroke-opacity:1"
     d="m 202.23903,79.172184 c 1.291,-0.147 0.692,-2.095 0.609,-2.626 -0.078,-0.537 -0.13,-2.094 -0.01,-3.308 0.114,-1.224 -0.266,-2.79 -0.052,-5.109 0.114,-1.219 -0.547,-2.473 -2.318,-2.563 -1.756,-0.088 -2.469,0.866 -2.381,2.36 0.084,1.495 0.797,2.859 0.985,4.359 0.198,1.5 0.25,3.048 0.234,4.261 -0.015,1.385 0.49,2.072 0.928,2.26 1.093,0.484 2.005,0.366 2.005,0.366 z"
     id="path292" />
  <path
     style="fill:#231f20;fill-opacity:1;fill-rule:nonzero;stroke:none"
     d="m 166.47303,65.874184 c 0,2.266 -0.307,2.703 -1.26,2.76 -0.646,0.047 -1.214,0.303 -1.599,0.35 -1.292,0.145 -3.527,-0.142 -9.631,-2.599 -1.38,-0.557 -3.333,-1.324 -4.156,-1.579 -1.292,-0.396 0.246,-2.286 0.76,-2.13 1.642,0.485 2.814,0.677 3.428,0.772 0.422,0.066 1.151,0.28 2.823,0.312 2.521,0.052 4.041,-0.292 6.14,0 0.975,0.13 1.787,-0.391 2.672,0.234 0.901,0.615 0.823,1.88 0.823,1.88"
     id="path293" />
  <path
     style="fill:none;stroke:#231f20;stroke-width:0.565977;stroke-linecap:butt;stroke-linejoin:miter;stroke-miterlimit:4;stroke-dasharray:none;stroke-opacity:1"
     d="m 166.47303,65.874184 c 0,2.266 -0.307,2.703 -1.26,2.76 -0.646,0.047 -1.214,0.303 -1.599,0.35 -1.292,0.145 -3.527,-0.142 -9.631,-2.599 -1.38,-0.557 -3.333,-1.324 -4.156,-1.579 -1.292,-0.396 0.246,-2.286 0.76,-2.13 1.642,0.485 2.814,0.677 3.428,0.772 0.422,0.066 1.151,0.28 2.823,0.312 2.521,0.052 4.041,-0.292 6.14,0 0.975,0.13 1.787,-0.391 2.672,0.234 0.901,0.615 0.823,1.88 0.823,1.88 z"
     id="path294" />
  <path
     style="fill:#231f20;fill-opacity:1;fill-rule:nonzero;stroke:#231f20;stroke-width:0.565977;stroke-linecap:round;stroke-linejoin:round;stroke-miterlimit:4;stroke-dasharray:none;stroke-opacity:1"
     d="m 164.63503,64.181184 c 1.01,-1 3.026,-0.239 3.364,-0.271 4.995,-0.448 5.36,-0.349 9.177,-0.426 5.536,-0.104 9.339,0.672 10.339,3.864 0.677,2.177 0.124,3.718 -0.891,4.546 -1.141,0.918 -4.256,1.554 -6.256,-0.53 l -1.661,-0.422 c -1.156,-0.146 -1.729,-0.224 -2.301,-0.25 -1,-0.042 -2.068,-0.151 -4.016,-0.35 -3.459,-0.348 -7,-1.837 -7,-1.837 -0.303,-0.037 -0.541,-0.188 -0.724,-0.387"
     id="path295" />
  <path
     style="fill:#63c99d;fill-opacity:1;fill-rule:nonzero;stroke:none"
     d="m 187.48803,67.088184 c -0.489,-1.391 -1.525,-2.282 -2.984,-2.828 -0.869,-0.568 -1.406,-0.891 -2.166,-0.615 -0.068,0.025 -0.142,0.041 -0.219,0.057 -0.584,-0.073 -1.193,-0.13 -1.849,-0.15 l 0.229,7.812 c 2.079,2.005 5.167,1.25 6.271,0.297 0.989,-0.871 1.474,-2.437 0.718,-4.573"
     id="path296" />
  <path
     style="fill:none;stroke:#231f20;stroke-width:0.565977;stroke-linecap:butt;stroke-linejoin:miter;stroke-miterlimit:4;stroke-dasharray:none;stroke-opacity:1"
     d="m 187.48803,67.088184 c -0.489,-1.391 -1.525,-2.282 -2.984,-2.828 -0.869,-0.568 -1.406,-0.891 -2.166,-0.615 -0.068,0.025 -0.142,0.041 -0.219,0.057 -0.584,-0.073 -1.193,-0.13 -1.849,-0.15 l 0.229,7.812 c 2.079,2.005 5.167,1.25 6.271,0.297 0.989,-0.871 1.474,-2.437 0.718,-4.573 z"
     id="path297" />
  <path
     style="fill:#231f20;fill-opacity:1;fill-rule:nonzero;stroke:none"
     d="m 147.45303,64.557184 c 0.692,1.167 1.672,1 2.333,0.203 0.197,-0.24 0.62,-0.23 0.792,-0.479 0.405,-0.579 0.052,-2.287 -1.443,-2.355 -0.109,0 -0.876,-0.281 -1.49,-0.401 -1.187,-0.235 -3.687,-0.125 -5.484,1.875 -0.855,0.948 -0.14,1.281 0.322,1.005 1.47,-0.891 1.766,-0.681 2.24,-0.771 1.594,-0.317 2.73,0.923 2.73,0.923"
     id="path298" />
  <path
     style="fill:none;stroke:#231f20;stroke-width:0.332927;stroke-linecap:butt;stroke-linejoin:miter;stroke-miterlimit:4;stroke-dasharray:none;stroke-opacity:1"
     d="m 147.45303,64.557184 c 0.692,1.167 1.672,1 2.333,0.203 0.197,-0.24 0.62,-0.23 0.792,-0.479 0.405,-0.579 0.052,-2.287 -1.443,-2.355 -0.109,0 -0.876,-0.281 -1.49,-0.401 -1.187,-0.235 -3.687,-0.125 -5.484,1.875 -0.855,0.948 -0.14,1.281 0.322,1.005 1.47,-0.891 1.766,-0.681 2.24,-0.771 1.594,-0.317 2.73,0.923 2.73,0.923 z"
     id="path299" />
  <path
     style="fill:#231f20;fill-opacity:1;fill-rule:nonzero;stroke:none"
     d="m 198.46303,89.405184 c -0.115,1.172 0.744,2.213 1.916,2.328 1.172,0.114 2.219,-0.744 2.333,-1.916 0.115,-1.172 -0.744,-2.213 -1.916,-2.328 -1.172,-0.115 -2.218,0.744 -2.333,1.916"
     id="path300" />
  <path
     style="fill:#63c99d;fill-opacity:1;fill-rule:nonzero;stroke:none"
     d="m 231.36303,39.098184 c -1.416,-2.792 -2.025,-3.24 -2.739,-3.833 -4.422,-3.719 -2.516,-5.823 0.25,-6.636 3.25,-0.968 4.401,-1.375 6.698,4.48 0.64,1.635 3.911,7.567 3.911,7.567 1.459,1.969 1.828,4.661 1.125,5.938 -0.745,1.338 -0.546,0.755 -1.464,1.87 -0.869,1.068 -2.921,1.822 -4,1.213 -1.03,-0.583 -1.066,-2.249 -1.442,-4.64 -0.291,-1.891 -2.339,-5.959 -2.339,-5.959"
     id="path301" />
  <path
     style="fill:none;stroke:#231f20;stroke-width:0.565977;stroke-linecap:butt;stroke-linejoin:miter;stroke-miterlimit:4;stroke-dasharray:none;stroke-opacity:1"
     d="m 231.36303,39.098184 c -1.416,-2.792 -2.025,-3.24 -2.739,-3.833 -4.422,-3.719 -2.516,-5.823 0.25,-6.636 3.25,-0.968 4.401,-1.375 6.698,4.48 0.64,1.635 3.911,7.567 3.911,7.567 1.459,1.969 1.828,4.661 1.125,5.938 -0.745,1.338 -0.546,0.755 -1.464,1.87 -0.869,1.068 -2.921,1.822 -4,1.213 -1.03,-0.583 -1.066,-2.249 -1.442,-4.64 -0.291,-1.891 -2.339,-5.959 -2.339,-5.959 z"
     id="path302" />
  <path
     style="fill:#ffffff;fill-opacity:1;fill-rule:nonzero;stroke:none"
     d="m 244.02603,54.364184 c 0.057,0.24 1.208,0.276 1.228,0.797 0.026,0.525 -0.734,0.755 -1.504,2.588 l -0.006,0.021 c -0.521,1.354 -1.516,2.323 -2.761,2.479 -2.063,0.256 -4.015,-1.807 -4.364,-4.604 -0.349,-2.807 1.041,-5.287 3.099,-5.541 1.969,-0.251 3.849,1.64 4.308,4.26"
     id="path303" />
  <path
     style="fill:none;stroke:#231f20;stroke-width:0.565977;stroke-linecap:butt;stroke-linejoin:miter;stroke-miterlimit:4;stroke-dasharray:none;stroke-opacity:1"
     d="m 244.02603,54.364184 c 0.057,0.24 1.208,0.276 1.228,0.797 0.026,0.525 -0.734,0.755 -1.504,2.588 l -0.006,0.021 c -0.521,1.354 -1.516,2.323 -2.761,2.479 -2.063,0.256 -4.015,-1.807 -4.364,-4.604 -0.349,-2.807 1.041,-5.287 3.099,-5.541 1.969,-0.251 3.849,1.64 4.308,4.26 z"
     id="path304" />
  <path
     style="fill:#231f20;fill-opacity:1;fill-rule:nonzero;stroke:none"
     d="m 234.87403,26.473184 c -0.339,0.547 -0.026,2.475 -0.386,4.041 -0.249,1.058 0.271,3.751 -0.057,4.782 -0.296,0.948 -0.344,1.412 0.683,1.937 0.609,0.313 1.978,0.521 2.229,0.079 0.593,-1.031 0.708,-1.975 0.609,-3.036 -0.109,-1.215 -0.704,-4.47 -0.865,-5.063 -0.416,-1.464 -0.129,-2.147 -0.203,-2.543 -0.14,-0.749 -0.458,-0.88 -0.958,-0.9 -0.963,-0.032 -1.052,0.703 -1.052,0.703"
     id="path305" />
  <path
     style="fill:none;stroke:#231f20;stroke-width:0.565977;stroke-linecap:butt;stroke-linejoin:miter;stroke-miterlimit:4;stroke-dasharray:none;stroke-opacity:1"
     d="m 234.87403,26.473184 c -0.339,0.547 -0.026,2.475 -0.386,4.041 -0.249,1.058 0.271,3.751 -0.057,4.782 -0.296,0.948 -0.344,1.412 0.683,1.937 0.609,0.313 1.978,0.521 2.229,0.079 0.593,-1.031 0.708,-1.975 0.609,-3.036 -0.109,-1.215 -0.704,-4.47 -0.865,-5.063 -0.416,-1.464 -0.129,-2.147 -0.203,-2.543 -0.14,-0.749 -0.458,-0.88 -0.958,-0.9 -0.963,-0.032 -1.052,0.703 -1.052,0.703 z"
     id="path306" />
  <path
     style="fill:#231f20;fill-opacity:1;fill-rule:nonzero;stroke:none"
     d="m 235.06703,35.536184 c -1.287,0.166 -0.656,2.104 -0.568,2.63 0.088,0.542 0.161,2.099 0.063,3.318 -0.09,1.224 0.312,2.781 0.134,5.104 -0.093,1.218 0.584,2.464 2.36,2.526 1.755,0.058 2.454,-0.906 2.339,-2.401 -0.104,-1.489 -0.844,-2.849 -1.057,-4.344 -0.214,-1.495 -0.298,-3.041 -0.303,-4.255 -0.005,-1.386 -0.52,-2.068 -0.963,-2.245 -1.1,-0.469 -2.005,-0.333 -2.005,-0.333"
     id="path307" />
  <path
     style="fill:none;stroke:#231f20;stroke-width:0.565977;stroke-linecap:butt;stroke-linejoin:miter;stroke-miterlimit:4;stroke-dasharray:none;stroke-opacity:1"
     d="m 235.06703,35.536184 c -1.287,0.166 -0.656,2.104 -0.568,2.63 0.088,0.542 0.161,2.099 0.063,3.318 -0.09,1.224 0.312,2.781 0.134,5.104 -0.093,1.218 0.584,2.464 2.36,2.526 1.755,0.058 2.454,-0.906 2.339,-2.401 -0.104,-1.489 -0.844,-2.849 -1.057,-4.344 -0.214,-1.495 -0.298,-3.041 -0.303,-4.255 -0.005,-1.386 -0.52,-2.068 -0.963,-2.245 -1.1,-0.469 -2.005,-0.333 -2.005,-0.333 z"
     id="path308" />
  <path
     style="fill:#231f20;fill-opacity:1;fill-rule:nonzero;stroke:none"
     d="m 217.63903,17.686184 c -1.447,1.74 -1.963,1.88 -2.733,1.314 -0.527,-0.376 -1.126,-0.548 -1.448,-0.762 -1.09,-0.708 -2.62,-2.358 -5.746,-8.15 -0.702,-1.3179996 -1.713,-3.1509996 -2.186,-3.8689996 -0.74,-1.136 1.65,-1.604 1.946,-1.158 0.954,1.423 1.724,2.324 2.142,2.787 0.281,0.319 0.708,0.953 1.973,2.042 1.901,1.6619996 3.292,2.3639996 4.719,3.9319996 0.672,0.724 1.625,0.844 1.912,1.891 0.297,1.047 -0.579,1.973 -0.579,1.973"
     id="path309" />
  <path
     style="fill:none;stroke:#231f20;stroke-width:0.565977;stroke-linecap:butt;stroke-linejoin:miter;stroke-miterlimit:4;stroke-dasharray:none;stroke-opacity:1"
     d="m 217.63903,17.686184 c -1.447,1.74 -1.963,1.88 -2.733,1.314 -0.527,-0.376 -1.126,-0.548 -1.448,-0.762 -1.09,-0.708 -2.62,-2.358 -5.746,-8.15 -0.702,-1.3179996 -1.713,-3.1509996 -2.186,-3.8689996 -0.74,-1.136 1.65,-1.604 1.946,-1.158 0.954,1.423 1.724,2.324 2.142,2.787 0.281,0.319 0.708,0.953 1.973,2.042 1.901,1.6619996 3.292,2.3639996 4.719,3.9319996 0.672,0.724 1.625,0.844 1.912,1.891 0.297,1.047 -0.579,1.973 -0.579,1.973 z"
     id="path310" />
  <path
     style="fill:#231f20;fill-opacity:1;fill-rule:nonzero;stroke:#231f20;stroke-width:0.565977;stroke-linecap:round;stroke-linejoin:round;stroke-miterlimit:4;stroke-dasharray:none;stroke-opacity:1"
     d="m 217.31103,15.208184 c 1.417,-0.126 2.48,1.749 2.761,1.937 4.12,2.855 4.344,3.167 7.328,5.547 4.318,3.458 6.739,6.484 5.468,9.584 -0.869,2.104 -2.281,2.932 -3.598,2.921 -1.454,-0.025 -4.255,-1.531 -4.459,-4.412 l -1.009,-1.385 c -0.798,-0.848 -1.183,-1.271 -1.606,-1.662 -0.744,-0.666 -1.494,-1.442 -2.864,-2.833 -2.437,-2.479 -4.202,-5.896 -4.202,-5.896 -0.215,-0.224 -0.298,-0.489 -0.314,-0.76"
     id="path311" />
  <path
     style="fill:#63c99d;fill-opacity:1;fill-rule:nonzero;stroke:none"
     d="m 232.53003,27.978184 c -0.302,-0.994 -0.51,-1.588 -1.271,-1.864 -0.067,-0.021 -0.135,-0.057 -0.203,-0.094 -0.401,-0.432 -0.833,-0.864 -1.322,-1.296 l -4.823,6.145 c 0.312,2.875 3.172,4.271 4.624,4.24 1.319,-0.037 2.693,-0.928 3.485,-3.057 0.51,-1.382 0.282,-2.724 -0.49,-4.074"
     id="path312" />
  <path
     style="fill:none;stroke:#231f20;stroke-width:0.565977;stroke-linecap:butt;stroke-linejoin:miter;stroke-miterlimit:4;stroke-dasharray:none;stroke-opacity:1"
     d="m 232.53003,27.978184 c -0.302,-0.994 -0.51,-1.588 -1.271,-1.864 -0.067,-0.021 -0.135,-0.057 -0.203,-0.094 -0.401,-0.432 -0.833,-0.864 -1.322,-1.296 l -4.823,6.145 c 0.312,2.875 3.172,4.271 4.624,4.24 1.319,-0.037 2.693,-0.928 3.485,-3.057 0.51,-1.382 0.282,-2.724 -0.49,-4.074 z"
     id="path313" />
  <path
     style="fill:#231f20;fill-opacity:1;fill-rule:nonzero;stroke:none"
     d="m 203.85903,4.5051844 c -0.215,1.338 0.645,1.832 1.667,1.646 0.306,-0.052 0.624,0.218 0.916,0.14 0.677,-0.187 1.5,-1.724 0.39,-2.734 -0.078,-0.068 -0.489,-0.776 -0.885,-1.261 -0.765,-0.937 -2.751,-2.45299996 -5.417,-2.06799996 -1.271,0.183 -0.927,0.89599996 -0.391,0.97999996 1.693,0.255 1.792,0.604 2.209,0.839 1.432,0.776 1.511,2.458 1.511,2.458"
     id="path314" />
  <path
     style="fill:none;stroke:#231f20;stroke-width:0.332927;stroke-linecap:butt;stroke-linejoin:miter;stroke-miterlimit:4;stroke-dasharray:none;stroke-opacity:1"
     d="m 203.85903,4.5051844 c -0.215,1.338 0.645,1.832 1.667,1.646 0.306,-0.052 0.624,0.218 0.916,0.14 0.677,-0.187 1.5,-1.724 0.39,-2.734 -0.078,-0.068 -0.489,-0.776 -0.885,-1.261 -0.765,-0.937 -2.751,-2.45299996 -5.417,-2.06799996 -1.271,0.183 -0.927,0.89599996 -0.391,0.97999996 1.693,0.255 1.792,0.604 2.209,0.839 1.432,0.776 1.511,2.458 1.511,2.458 z"
     id="path315" />
  <path
     style="fill:#231f20;fill-opacity:1;fill-rule:nonzero;stroke:none"
     d="m 124.66603,88.546184 c 0.385,-0.516 0.24,-2.458 0.74,-3.985 0.339,-1.031 0.057,-3.76 0.473,-4.76 0.38,-0.921 0.47,-1.38 -0.51,-1.989 -0.572,-0.364 -1.927,-0.694 -2.219,-0.276 -0.681,0.978 -0.875,1.901 -0.869,2.973 0.005,1.215 0.312,4.51 0.421,5.115 0.281,1.494 -0.057,2.152 -0.02,2.552 0.068,0.761 0.38,0.917 0.875,0.979 0.958,0.115 1.109,-0.609 1.109,-0.609"
     id="path316" />
  <path
     style="fill:none;stroke:#231f20;stroke-width:0.565977;stroke-linecap:butt;stroke-linejoin:miter;stroke-miterlimit:4;stroke-dasharray:none;stroke-opacity:1"
     d="m 124.66603,88.546184 c 0.385,-0.516 0.24,-2.458 0.74,-3.985 0.339,-1.031 0.057,-3.76 0.473,-4.76 0.38,-0.921 0.47,-1.38 -0.51,-1.989 -0.572,-0.364 -1.927,-0.694 -2.219,-0.276 -0.681,0.978 -0.875,1.901 -0.869,2.973 0.005,1.215 0.312,4.51 0.421,5.115 0.281,1.494 -0.057,2.152 -0.02,2.552 0.068,0.761 0.38,0.917 0.875,0.979 0.958,0.115 1.109,-0.609 1.109,-0.609 z"
     id="path317" />
  <path
     style="fill:#231f20;fill-opacity:1;fill-rule:nonzero;stroke:none"
     d="m 125.27003,79.505184 c 1.297,-0.053 0.839,-2.037 0.797,-2.574 -0.041,-0.546 0.016,-2.098 0.219,-3.302 0.203,-1.213 -0.063,-2.807 0.317,-5.104 0.203,-1.203 -0.369,-2.505 -2.134,-2.719 -1.746,-0.213 -2.522,0.688 -2.543,2.183 -0.025,1.5 0.595,2.911 0.677,4.421 0.084,1.511 0.032,3.058 -0.073,4.266 -0.113,1.376 0.339,2.105 0.767,2.324 1.057,0.557 1.973,0.505 1.973,0.505"
     id="path318" />
  <path
     style="fill:none;stroke:#231f20;stroke-width:0.565977;stroke-linecap:butt;stroke-linejoin:miter;stroke-miterlimit:4;stroke-dasharray:none;stroke-opacity:1"
     d="m 125.27003,79.505184 c 1.297,-0.053 0.839,-2.037 0.797,-2.574 -0.041,-0.546 0.016,-2.098 0.219,-3.302 0.203,-1.213 -0.063,-2.807 0.317,-5.104 0.203,-1.203 -0.369,-2.505 -2.134,-2.719 -1.746,-0.213 -2.522,0.688 -2.543,2.183 -0.025,1.5 0.595,2.911 0.677,4.421 0.084,1.511 0.032,3.058 -0.073,4.266 -0.113,1.376 0.339,2.105 0.767,2.324 1.057,0.557 1.973,0.505 1.973,0.505 z"
     id="path319" />
  <path
     style="fill:#231f20;fill-opacity:1;fill-rule:nonzero;stroke:none"
     d="m 120.77503,89.442184 c -0.197,1.162 0.584,2.26 1.746,2.458 1.161,0.198 2.265,-0.583 2.462,-1.745 0.199,-1.155 -0.582,-2.261 -1.749,-2.458 -1.161,-0.197 -2.265,0.584 -2.459,1.745"
     id="path320" />
  <path
     style="fill:#231f20;fill-opacity:1;fill-rule:nonzero;stroke:none"
     d="m 235.75903,19.208184 c -0.4,0.614 -1.14,3.776 -1.276,4.505 -0.124,0.651 -0.687,1.672 0.245,2.344 0.38,0.28 1.12,0.421 1.443,0.391 0.26,-0.022 0.416,-0.314 0.453,-0.704 0.063,-0.662 -0.177,-0.88 -0.13,-2.156 0,0 -0.036,-0.303 -0.14,-0.839 -0.271,-1.609 -0.298,-0.875 -0.188,-3.297 0.01,-0.171 -0.156,-0.302 -0.271,-0.302 -0.177,0.011 -0.136,0.058 -0.136,0.058"
     id="path321" />
  <path
     style="fill:none;stroke:#231f20;stroke-width:0.565977;stroke-linecap:round;stroke-linejoin:round;stroke-miterlimit:4;stroke-dasharray:none;stroke-opacity:1"
     d="m 235.75903,19.208184 c -0.4,0.614 -1.14,3.776 -1.276,4.505 -0.124,0.651 -0.687,1.672 0.245,2.344 0.38,0.28 1.12,0.421 1.443,0.391 0.26,-0.022 0.416,-0.314 0.453,-0.704 0.063,-0.662 -0.177,-0.88 -0.13,-2.156 0,0 -0.036,-0.303 -0.14,-0.839 -0.271,-1.609 -0.298,-0.875 -0.188,-3.297 0.01,-0.171 -0.156,-0.302 -0.271,-0.302 -0.177,0.011 -0.136,0.058 -0.136,0.058 z"
     id="path322" />
  <path
     style="fill:#63c99d;fill-opacity:1;fill-rule:nonzero;stroke:none"
     d="m 277.28603,39.098184 c -1.423,-2.792 -2.032,-3.24 -2.74,-3.833 -4.427,-3.719 -2.516,-5.823 0.25,-6.636 3.244,-0.968 4.396,-1.375 6.698,4.48 0.641,1.635 3.906,7.567 3.906,7.567 1.459,1.969 1.834,4.661 1.13,5.938 -0.75,1.338 -0.552,0.755 -1.463,1.87 -0.875,1.068 -2.928,1.822 -4,1.213 -1.037,-0.583 -1.073,-2.249 -1.443,-4.64 -0.292,-1.891 -2.338,-5.959 -2.338,-5.959"
     id="path323" />
  <path
     style="fill:none;stroke:#231f20;stroke-width:0.565977;stroke-linecap:butt;stroke-linejoin:miter;stroke-miterlimit:4;stroke-dasharray:none;stroke-opacity:1"
     d="m 277.28603,39.098184 c -1.423,-2.792 -2.032,-3.24 -2.74,-3.833 -4.427,-3.719 -2.516,-5.823 0.25,-6.636 3.244,-0.968 4.396,-1.375 6.698,4.48 0.641,1.635 3.906,7.567 3.906,7.567 1.459,1.969 1.834,4.661 1.13,5.938 -0.75,1.338 -0.552,0.755 -1.463,1.87 -0.875,1.068 -2.928,1.822 -4,1.213 -1.037,-0.583 -1.073,-2.249 -1.443,-4.64 -0.292,-1.891 -2.338,-5.959 -2.338,-5.959 z"
     id="path324" />
  <path
     style="fill:#ffffff;fill-opacity:1;fill-rule:nonzero;stroke:none"
     d="m 286.21803,56.484184 c -0.063,0.24 0.942,0.801 0.724,1.27 -0.219,0.479 -1,0.339 -2.531,1.61 l -0.011,0.016 c -1.084,0.962 -2.417,1.369 -3.594,0.932 -1.947,-0.724 -2.734,-3.454 -1.76,-6.094 0.984,-2.657 3.36,-4.214 5.308,-3.494 1.864,0.681 2.661,3.224 1.864,5.76"
     id="path325" />
  <path
     style="fill:none;stroke:#231f20;stroke-width:0.565977;stroke-linecap:butt;stroke-linejoin:miter;stroke-miterlimit:4;stroke-dasharray:none;stroke-opacity:1"
     d="m 286.21803,56.484184 c -0.063,0.24 0.942,0.801 0.724,1.27 -0.219,0.479 -1,0.339 -2.531,1.61 l -0.011,0.016 c -1.084,0.962 -2.417,1.369 -3.594,0.932 -1.947,-0.724 -2.734,-3.454 -1.76,-6.094 0.984,-2.657 3.36,-4.214 5.308,-3.494 1.864,0.681 2.661,3.224 1.864,5.76 z"
     id="path326" />
  <path
     style="fill:#231f20;fill-opacity:1;fill-rule:nonzero;stroke:none"
     d="m 287.91103,67.228184 c 0.265,-0.583 -0.281,-2.458 -0.12,-4.052 0.115,-1.083 -0.74,-3.687 -0.543,-4.75 0.172,-0.984 0.163,-1.448 -0.921,-1.838 -0.64,-0.235 -2.025,-0.271 -2.219,0.202 -0.458,1.095 -0.458,2.043 -0.224,3.084 0.26,1.187 1.255,4.35 1.49,4.916 0.594,1.402 0.401,2.11 0.521,2.495 0.229,0.729 0.563,0.819 1.063,0.776 0.957,-0.088 0.953,-0.833 0.953,-0.833"
     id="path327" />
  <path
     style="fill:none;stroke:#231f20;stroke-width:0.565977;stroke-linecap:butt;stroke-linejoin:miter;stroke-miterlimit:4;stroke-dasharray:none;stroke-opacity:1"
     d="m 287.91103,67.228184 c 0.265,-0.583 -0.281,-2.458 -0.12,-4.052 0.115,-1.083 -0.74,-3.687 -0.543,-4.75 0.172,-0.984 0.163,-1.448 -0.921,-1.838 -0.64,-0.235 -2.025,-0.271 -2.219,0.202 -0.458,1.095 -0.458,2.043 -0.224,3.084 0.26,1.187 1.255,4.35 1.49,4.916 0.594,1.402 0.401,2.11 0.521,2.495 0.229,0.729 0.563,0.819 1.063,0.776 0.957,-0.088 0.953,-0.833 0.953,-0.833 z"
     id="path328" />
  <path
     style="fill:#231f20;fill-opacity:1;fill-rule:nonzero;stroke:none"
     d="m 286.58703,58.265184 c 1.256,-0.328 0.391,-2.172 0.24,-2.683 -0.161,-0.525 -0.432,-2.057 -0.484,-3.281 -0.063,-1.224 -0.656,-2.724 -0.771,-5.052 -0.057,-1.219 -0.89,-2.369 -2.657,-2.208 -1.749,0.167 -2.317,1.208 -2.02,2.677 0.292,1.463 1.192,2.719 1.593,4.176 0.402,1.454 0.672,2.98 0.828,4.188 0.183,1.37 0.776,1.979 1.24,2.099 1.151,0.328 2.031,0.084 2.031,0.084"
     id="path329" />
  <path
     style="fill:none;stroke:#231f20;stroke-width:0.565977;stroke-linecap:butt;stroke-linejoin:miter;stroke-miterlimit:4;stroke-dasharray:none;stroke-opacity:1"
     d="m 286.58703,58.265184 c 1.256,-0.328 0.391,-2.172 0.24,-2.683 -0.161,-0.525 -0.432,-2.057 -0.484,-3.281 -0.063,-1.224 -0.656,-2.724 -0.771,-5.052 -0.057,-1.219 -0.89,-2.369 -2.657,-2.208 -1.749,0.167 -2.317,1.208 -2.02,2.677 0.292,1.463 1.192,2.719 1.593,4.176 0.402,1.454 0.672,2.98 0.828,4.188 0.183,1.37 0.776,1.979 1.24,2.099 1.151,0.328 2.031,0.084 2.031,0.084 z"
     id="path330" />
  <path
     style="fill:#231f20;fill-opacity:1;fill-rule:nonzero;stroke:none"
     d="m 263.56203,17.686184 c -1.448,1.74 -1.964,1.88 -2.74,1.314 -0.52,-0.376 -1.12,-0.548 -1.448,-0.762 -1.088,-0.708 -2.615,-2.358 -5.739,-8.15 -0.704,-1.3179996 -1.715,-3.1509996 -2.188,-3.8689996 -0.735,-1.136 1.651,-1.604 1.948,-1.158 0.953,1.423 1.724,2.324 2.14,2.787 0.281,0.319 0.709,0.953 1.969,2.042 1.907,1.6619996 3.298,2.3639996 4.724,3.9319996 0.667,0.724 1.62,0.844 1.907,1.891 0.296,1.047 -0.573,1.973 -0.573,1.973"
     id="path331" />
  <path
     style="fill:none;stroke:#231f20;stroke-width:0.565977;stroke-linecap:butt;stroke-linejoin:miter;stroke-miterlimit:4;stroke-dasharray:none;stroke-opacity:1"
     d="m 263.56203,17.686184 c -1.448,1.74 -1.964,1.88 -2.74,1.314 -0.52,-0.376 -1.12,-0.548 -1.448,-0.762 -1.088,-0.708 -2.615,-2.358 -5.739,-8.15 -0.704,-1.3179996 -1.715,-3.1509996 -2.188,-3.8689996 -0.735,-1.136 1.651,-1.604 1.948,-1.158 0.953,1.423 1.724,2.324 2.14,2.787 0.281,0.319 0.709,0.953 1.969,2.042 1.907,1.6619996 3.298,2.3639996 4.724,3.9319996 0.667,0.724 1.62,0.844 1.907,1.891 0.296,1.047 -0.573,1.973 -0.573,1.973 z"
     id="path332" />
  <path
     style="fill:#231f20;fill-opacity:1;fill-rule:nonzero;stroke:#231f20;stroke-width:0.565977;stroke-linecap:round;stroke-linejoin:round;stroke-miterlimit:4;stroke-dasharray:none;stroke-opacity:1"
     d="m 263.22803,15.208184 c 1.416,-0.126 2.484,1.749 2.76,1.937 4.126,2.855 4.344,3.167 7.334,5.547 4.313,3.458 6.74,6.484 5.464,9.584 -0.871,2.104 -2.276,2.932 -3.594,2.921 -1.458,-0.025 -4.261,-1.531 -4.464,-4.412 l -1.005,-1.385 c -0.797,-0.848 -1.183,-1.271 -1.604,-1.662 -0.745,-0.666 -1.5,-1.442 -2.871,-2.833 -2.432,-2.479 -4.197,-5.896 -4.197,-5.896 -0.213,-0.224 -0.301,-0.489 -0.312,-0.76"
     id="path333" />
  <path
     style="fill:#63c99d;fill-opacity:1;fill-rule:nonzero;stroke:none"
     d="m 278.45203,27.978184 c -0.302,-0.994 -0.516,-1.588 -1.276,-1.864 -0.062,-0.021 -0.136,-0.057 -0.204,-0.094 -0.4,-0.432 -0.828,-0.864 -1.322,-1.296 l -4.818,6.145 c 0.312,2.875 3.167,4.271 4.626,4.24 1.317,-0.037 2.692,-0.928 3.484,-3.057 0.505,-1.382 0.276,-2.724 -0.49,-4.074"
     id="path334" />
  <path
     style="fill:none;stroke:#231f20;stroke-width:0.565977;stroke-linecap:butt;stroke-linejoin:miter;stroke-miterlimit:4;stroke-dasharray:none;stroke-opacity:1"
     d="m 278.45203,27.978184 c -0.302,-0.994 -0.516,-1.588 -1.276,-1.864 -0.062,-0.021 -0.136,-0.057 -0.204,-0.094 -0.4,-0.432 -0.828,-0.864 -1.322,-1.296 l -4.818,6.145 c 0.312,2.875 3.167,4.271 4.626,4.24 1.317,-0.037 2.692,-0.928 3.484,-3.057 0.505,-1.382 0.276,-2.724 -0.49,-4.074 z"
     id="path335" />
  <path
     style="fill:#231f20;fill-opacity:1;fill-rule:nonzero;stroke:none"
     d="m 249.78603,4.5051844 c -0.219,1.338 0.64,1.832 1.661,1.646 0.307,-0.052 0.625,0.218 0.916,0.14 0.677,-0.187 1.5,-1.724 0.391,-2.734 -0.078,-0.068 -0.49,-0.776 -0.88,-1.261 -0.766,-0.937 -2.755,-2.45299996 -5.416,-2.06799996 -1.271,0.183 -0.928,0.89599996 -0.396,0.97999996 1.692,0.255 1.797,0.604 2.213,0.839 1.427,0.776 1.511,2.458 1.511,2.458"
     id="path336" />
  <path
     style="fill:none;stroke:#231f20;stroke-width:0.332927;stroke-linecap:butt;stroke-linejoin:miter;stroke-miterlimit:4;stroke-dasharray:none;stroke-opacity:1"
     d="m 249.78603,4.5051844 c -0.219,1.338 0.64,1.832 1.661,1.646 0.307,-0.052 0.625,0.218 0.916,0.14 0.677,-0.187 1.5,-1.724 0.391,-2.734 -0.078,-0.068 -0.49,-0.776 -0.88,-1.261 -0.766,-0.937 -2.755,-2.45299996 -5.416,-2.06799996 -1.271,0.183 -0.928,0.89599996 -0.396,0.97999996 1.692,0.255 1.797,0.604 2.213,0.839 1.427,0.776 1.511,2.458 1.511,2.458 z"
     id="path337" />
  <path
     style="fill:#231f20;fill-opacity:1;fill-rule:nonzero;stroke:none"
     d="m 287.94703,74.552184 c 0.317,-0.662 0.661,-3.891 0.697,-4.631 0.048,-0.661 0.475,-1.745 -0.536,-2.297 -0.412,-0.23 -1.161,-0.276 -1.473,-0.203 -0.261,0.052 -0.381,0.36 -0.365,0.751 0.021,0.666 0.286,0.853 0.396,2.124 0,0 0.073,0.297 0.245,0.818 0.468,1.562 0.405,0.828 0.599,3.244 0.016,0.172 0.192,0.276 0.306,0.266 0.178,-0.031 0.131,-0.072 0.131,-0.072"
     id="path338" />
  <path
     style="fill:none;stroke:#231f20;stroke-width:0.565977;stroke-linecap:round;stroke-linejoin:round;stroke-miterlimit:4;stroke-dasharray:none;stroke-opacity:1"
     d="m 287.94703,74.552184 c 0.317,-0.662 0.661,-3.891 0.697,-4.631 0.048,-0.661 0.475,-1.745 -0.536,-2.297 -0.412,-0.23 -1.161,-0.276 -1.473,-0.203 -0.261,0.052 -0.381,0.36 -0.365,0.751 0.021,0.666 0.286,0.853 0.396,2.124 0,0 0.073,0.297 0.245,0.818 0.468,1.562 0.405,0.828 0.599,3.244 0.016,0.172 0.192,0.276 0.306,0.266 0.178,-0.031 0.131,-0.072 0.131,-0.072 z"
     id="path339" />
</svg>
