<?xml version="1.0" encoding="UTF-8" standalone="no"?>
<!-- Created with Inkscape (http://www.inkscape.org/) -->

<svg
   version="1.1"
   id="svg1"
   width="360.46698"
   height="112.38528"
   viewBox="0 0 360.46697 112.38528"
   sodipodi:docname="cell.svg"
   xmlns:inkscape="http://www.inkscape.org/namespaces/inkscape"
   xmlns:sodipodi="http://sodipodi.sourceforge.net/DTD/sodipodi-0.dtd"
   xmlns="http://www.w3.org/2000/svg"
   xmlns:svg="http://www.w3.org/2000/svg">
  <sodipodi:namedview
     id="namedview1"
     pagecolor="#ffffff"
     bordercolor="#000000"
     borderopacity="0.25"
     inkscape:showpageshadow="2"
     inkscape:pageopacity="0.0"
     inkscape:pagecheckerboard="0"
     inkscape:deskcolor="#d1d1d1">
    <inkscape:page
       x="0"
       y="0"
       inkscape:label="1"
       id="page1"
       width="360.46698"
       height="112.38528"
       margin="0"
       bleed="0" />
  </sodipodi:namedview>
  <defs
     id="defs1" />
  <path
     style="fill:#ffffff;fill-opacity:1;fill-rule:nonzero;stroke:none"
     d="m 166.1,18.874 h 18.875 V 0 H 166.1 Z"
     id="path647" />
  <path
     style="fill:#ffffff;fill-opacity:1;fill-rule:nonzero;stroke:none"
     d="M 0,18.874 H 18.875 V 0 H 0 Z"
     id="path648" />
  <path
     style="fill:#ffffff;fill-opacity:1;fill-rule:nonzero;stroke:none"
     d="m 343.537,18.874 h 16.93 V 0 h -16.93 z"
     id="path649" />
  <path
     style="fill:#231f20;fill-opacity:1;fill-rule:nonzero;stroke:none"
     d="m 153.657,108.161 c 0.047,1.172 -0.87,2.166 -2.048,2.213 -1.176,0.043 -2.166,-0.875 -2.213,-2.052 -0.047,-1.177 0.871,-2.172 2.047,-2.213 1.177,-0.047 2.172,0.869 2.214,2.052"
     id="path650" />
  <path
     style="fill:none;stroke:#231f20;stroke-width:0.399514;stroke-linecap:butt;stroke-linejoin:miter;stroke-miterlimit:4;stroke-dasharray:none;stroke-opacity:1"
     d="M 41.058,77.792 C 41.662,51.308 74.787,42.26 82.027,42.906"
     id="path651" />
  <path
     style="fill:#231f20;fill-opacity:1;fill-rule:nonzero;stroke:none"
     d="m 83.23,43.016 c -0.583,0.156 -1.318,0.453 -1.787,0.792 L 81.871,42.89 81.61,41.917 c 0.401,0.416 1.073,0.839 1.62,1.099"
     id="path652" />
  <path
     style="fill:none;stroke:#231f20;stroke-width:0.399514;stroke-linecap:butt;stroke-linejoin:miter;stroke-miterlimit:4;stroke-dasharray:none;stroke-opacity:1"
     d="m 305.867,53.145 c 25.26,7.98 24.68,42.313 22.04,49.084"
     id="path653" />
  <path
     style="fill:#231f20;fill-opacity:1;fill-rule:nonzero;stroke:none"
     d="m 327.477,103.354 c 0.01,-0.609 -0.07,-1.396 -0.27,-1.937 l 0.76,0.666 1.01,0.02 c -0.51,0.271 -1.1,0.798 -1.5,1.251"
     id="path654" />
  <path
     style="fill:#ffffff;fill-opacity:1;fill-rule:nonzero;stroke:none"
     d="m 6.246,108.551 c 0,0.688 0.552,1.24 1.24,1.24 h 346.111 c 0.68,0 1.24,-0.552 1.24,-1.24 0,-0.686 -0.56,-1.24 -1.24,-1.24 H 7.486 c -0.688,0 -1.24,0.554 -1.24,1.24"
     id="path655" />
  <path
     style="fill:none;stroke:#231f20;stroke-width:0.665856;stroke-linecap:butt;stroke-linejoin:miter;stroke-miterlimit:4;stroke-dasharray:none;stroke-opacity:1"
     d="m 6.246,108.551 c 0,0.688 0.552,1.24 1.24,1.24 h 346.111 c 0.68,0 1.24,-0.552 1.24,-1.24 0,-0.686 -0.56,-1.24 -1.24,-1.24 H 7.486 c -0.688,0 -1.24,0.554 -1.24,1.24 z"
     id="path656" />
  <path
     style="fill:#231f20;fill-opacity:1;fill-rule:nonzero;stroke:none"
     d="m 193.964,108.374 c 0.021,1.183 0.989,2.12 2.167,2.1 1.182,-0.016 2.12,-0.985 2.098,-2.167 -0.014,-1.177 -0.984,-2.114 -2.166,-2.094 -1.178,0.016 -2.12,0.985 -2.099,2.161"
     id="path657" />
  <path
     style="fill:#231f20;fill-opacity:1;fill-rule:nonzero;stroke:none"
     d="m 149.917,106.765 c -0.313,-0.563 0.083,-2.468 -0.213,-4.047 -0.204,-1.068 0.432,-3.74 0.145,-4.786 -0.249,-0.958 -0.281,-1.422 0.766,-1.9 0.62,-0.287 2,-0.439 2.229,0.014 0.552,1.058 0.625,2 0.48,3.058 -0.163,1.207 -0.896,4.437 -1.079,5.021 -0.478,1.448 -0.224,2.134 -0.312,2.53 -0.166,0.746 -0.494,0.86 -1,0.86 -0.958,-0.005 -1.016,-0.75 -1.016,-0.75"
     id="path658" />
  <path
     style="fill:none;stroke:#231f20;stroke-width:0.565977;stroke-linecap:butt;stroke-linejoin:miter;stroke-miterlimit:4;stroke-dasharray:none;stroke-opacity:1"
     d="m 149.917,106.765 c -0.313,-0.563 0.083,-2.468 -0.213,-4.047 -0.204,-1.068 0.432,-3.74 0.145,-4.786 -0.249,-0.958 -0.281,-1.422 0.766,-1.9 0.62,-0.287 2,-0.439 2.229,0.014 0.552,1.058 0.625,2 0.48,3.058 -0.163,1.207 -0.896,4.437 -1.079,5.021 -0.478,1.448 -0.224,2.134 -0.312,2.53 -0.166,0.746 -0.494,0.86 -1,0.86 -0.958,-0.005 -1.016,-0.75 -1.016,-0.75 z"
     id="path659" />
  <path
     style="fill:#231f20;fill-opacity:1;fill-rule:nonzero;stroke:none"
     d="m 150.495,97.724 c -1.28,-0.224 -0.567,-2.131 -0.458,-2.656 0.115,-0.536 0.255,-2.09 0.214,-3.308 -0.042,-1.224 0.426,-2.771 0.349,-5.094 -0.043,-1.224 0.692,-2.437 2.463,-2.421 1.761,0.015 2.412,1.009 2.234,2.5 -0.166,1.479 -0.964,2.807 -1.24,4.291 -0.281,1.485 -0.426,3.026 -0.484,4.24 -0.062,1.374 -0.609,2.041 -1.057,2.198 -1.12,0.422 -2.021,0.25 -2.021,0.25"
     id="path660" />
  <path
     style="fill:none;stroke:#231f20;stroke-width:0.565977;stroke-linecap:butt;stroke-linejoin:miter;stroke-miterlimit:4;stroke-dasharray:none;stroke-opacity:1"
     d="m 150.495,97.724 c -1.28,-0.224 -0.567,-2.131 -0.458,-2.656 0.115,-0.536 0.255,-2.09 0.214,-3.308 -0.042,-1.224 0.426,-2.771 0.349,-5.094 -0.043,-1.224 0.692,-2.437 2.463,-2.421 1.761,0.015 2.412,1.009 2.234,2.5 -0.166,1.479 -0.964,2.807 -1.24,4.291 -0.281,1.485 -0.426,3.026 -0.484,4.24 -0.062,1.374 -0.609,2.041 -1.057,2.198 -1.12,0.422 -2.021,0.25 -2.021,0.25 z"
     id="path661" />
  <path
     style="fill:#63c99d;fill-opacity:1;fill-rule:nonzero;stroke:none"
     d="m 156.808,77.86 c 0.667,-3.063 1.14,-3.647 1.677,-4.402 3.339,-4.718 0.958,-6.27 -1.922,-6.354 -3.391,-0.115 -4.604,-0.214 -5.348,6.032 -0.199,1.744 -1.855,8.306 -1.855,8.306 -0.917,2.276 -0.593,4.975 0.412,6.032 1.061,1.11 0.723,0.594 1.889,1.443 1.115,0.807 3.287,1.015 4.178,0.156 0.849,-0.823 0.464,-2.448 0.218,-4.86 -0.197,-1.901 0.751,-6.353 0.751,-6.353"
     id="path662" />
  <path
     style="fill:none;stroke:#231f20;stroke-width:0.565977;stroke-linecap:butt;stroke-linejoin:miter;stroke-miterlimit:4;stroke-dasharray:none;stroke-opacity:1"
     d="m 156.808,77.86 c 0.667,-3.063 1.14,-3.647 1.677,-4.402 3.339,-4.718 0.958,-6.27 -1.922,-6.354 -3.391,-0.115 -4.604,-0.214 -5.348,6.032 -0.199,1.744 -1.855,8.306 -1.855,8.306 -0.917,2.276 -0.593,4.975 0.412,6.032 1.061,1.11 0.723,0.594 1.889,1.443 1.115,0.807 3.287,1.015 4.178,0.156 0.849,-0.823 0.464,-2.448 0.218,-4.86 -0.197,-1.901 0.751,-6.353 0.751,-6.353 z"
     id="path663" />
  <path
     style="fill:#ffffff;fill-opacity:1;fill-rule:nonzero;stroke:none"
     d="m 151.469,97.604 c 0.131,0.208 -0.656,1.052 -0.302,1.432 0.36,0.39 1.052,0.016 2.896,0.766 l 0.021,0.006 c 1.328,0.587 2.719,0.566 3.703,-0.204 1.641,-1.282 1.552,-4.126 -0.183,-6.344 -1.744,-2.228 -4.484,-2.99 -6.113,-1.714 -1.568,1.224 -1.558,3.886 -0.022,6.058"
     id="path664" />
  <path
     style="fill:none;stroke:#231f20;stroke-width:0.565977;stroke-linecap:butt;stroke-linejoin:miter;stroke-miterlimit:4;stroke-dasharray:none;stroke-opacity:1"
     d="m 151.469,97.604 c 0.131,0.208 -0.656,1.052 -0.302,1.432 0.36,0.39 1.052,0.016 2.896,0.766 l 0.021,0.006 c 1.328,0.587 2.719,0.566 3.703,-0.204 1.641,-1.282 1.552,-4.126 -0.183,-6.344 -1.744,-2.228 -4.484,-2.99 -6.113,-1.714 -1.568,1.224 -1.558,3.886 -0.022,6.058 z"
     id="path665" />
  <path
     style="fill:#ffffff;fill-opacity:1;fill-rule:nonzero;stroke:none"
     d="m 158.412,52.218 c 2.188,0.579 2.693,0.391 2.989,-0.52 0.208,-0.609 0.599,-1.094 0.74,-1.453 0.474,-1.213 0.76,-3.448 -0.062,-9.98 -0.194,-1.473 -0.438,-3.557 -0.475,-4.416 -0.056,-1.355 -2.271,-0.349 -2.255,0.192 0.052,1.715 -0.052,2.891 -0.12,3.511 -0.046,0.426 -0.025,1.188 -0.416,2.808 -0.589,2.452 -1.308,3.838 -1.562,5.942 -0.12,0.979 -0.828,1.63 -0.448,2.646 0.358,1.026 1.609,1.27 1.609,1.27"
     id="path666" />
  <path
     style="fill:none;stroke:#231f20;stroke-width:0.565977;stroke-linecap:butt;stroke-linejoin:miter;stroke-miterlimit:4;stroke-dasharray:none;stroke-opacity:1"
     d="m 158.412,52.218 c 2.188,0.579 2.693,0.391 2.989,-0.52 0.208,-0.609 0.599,-1.094 0.74,-1.453 0.474,-1.213 0.76,-3.448 -0.062,-9.98 -0.194,-1.473 -0.438,-3.557 -0.475,-4.416 -0.056,-1.355 -2.271,-0.349 -2.255,0.192 0.052,1.715 -0.052,2.891 -0.12,3.511 -0.046,0.426 -0.025,1.188 -0.416,2.808 -0.589,2.452 -1.308,3.838 -1.562,5.942 -0.12,0.979 -0.828,1.63 -0.448,2.646 0.358,1.026 1.609,1.27 1.609,1.27 z"
     id="path667" />
  <path
     style="fill:#ffffff;fill-opacity:1;fill-rule:nonzero;stroke:#231f20;stroke-width:0.565977;stroke-linecap:round;stroke-linejoin:round;stroke-miterlimit:4;stroke-dasharray:none;stroke-opacity:1"
     d="m 157.24,50.005 c -1.219,0.729 -0.995,2.869 -1.12,3.188 -1.692,4.719 -1.697,5.099 -2.739,8.771 -1.5,5.322 -1.72,9.197 1.119,10.978 1.928,1.203 3.557,1.063 4.625,0.287 1.172,-0.869 2.579,-3.719 1.068,-6.183 l 0.016,-1.708 c 0.151,-1.161 0.219,-1.729 0.339,-2.292 0.219,-0.973 0.38,-2.036 0.687,-3.968 0.537,-3.437 -0.006,-7.234 -0.006,-7.234 0.042,-0.312 -0.046,-0.579 -0.192,-0.803"
     id="path668" />
  <path
     style="fill:#231f20;fill-opacity:1;fill-rule:nonzero;stroke:none"
     d="m 161.964,33.489 c 0.953,0.964 0.541,1.865 -0.396,2.308 -0.281,0.129 -0.38,0.536 -0.661,0.64 -0.662,0.251 -2.224,-0.525 -1.912,-1.995 0.026,-0.104 -0.052,-0.916 -0.01,-1.541 0.078,-1.208 0.812,-3.593 3.208,-4.823 1.135,-0.589 1.271,0.187 0.886,0.563 -1.23,1.192 -1.104,1.536 -1.312,1.973 -0.715,1.459 0.197,2.875 0.197,2.875"
     id="path669" />
  <path
     style="fill:none;stroke:#231f20;stroke-width:0.332927;stroke-linecap:butt;stroke-linejoin:miter;stroke-miterlimit:4;stroke-dasharray:none;stroke-opacity:1"
     d="m 161.964,33.489 c 0.953,0.964 0.541,1.865 -0.396,2.308 -0.281,0.129 -0.38,0.536 -0.661,0.64 -0.662,0.251 -2.224,-0.525 -1.912,-1.995 0.026,-0.104 -0.052,-0.916 -0.01,-1.541 0.078,-1.208 0.812,-3.593 3.208,-4.823 1.135,-0.589 1.271,0.187 0.886,0.563 -1.23,1.192 -1.104,1.536 -1.312,1.973 -0.715,1.459 0.197,2.875 0.197,2.875 z"
     id="path670" />
  <path
     style="fill:#231f20;fill-opacity:1;fill-rule:nonzero;stroke:none"
     d="m 160.235,52.51 c 2.114,0.807 2.636,0.678 3.032,-0.198 0.27,-0.583 0.713,-1.02 0.89,-1.37 0.599,-1.15 1.124,-3.338 1,-9.921 -0.032,-1.489 -0.052,-3.589 0.004,-4.443 0.084,-1.354 -2.218,-0.589 -2.26,-0.052 -0.134,1.703 -0.364,2.87 -0.5,3.479 -0.088,0.417 -0.15,1.172 -0.713,2.745 -0.849,2.38 -1.708,3.682 -2.188,5.739 -0.224,0.959 -1,1.537 -0.728,2.584 0.249,1.063 1.463,1.437 1.463,1.437"
     id="path671" />
  <path
     style="fill:none;stroke:#231f20;stroke-width:0.565977;stroke-linecap:butt;stroke-linejoin:miter;stroke-miterlimit:4;stroke-dasharray:none;stroke-opacity:1"
     d="m 160.235,52.51 c 2.114,0.807 2.636,0.678 3.032,-0.198 0.27,-0.583 0.713,-1.02 0.89,-1.37 0.599,-1.15 1.124,-3.338 1,-9.921 -0.032,-1.489 -0.052,-3.589 0.004,-4.443 0.084,-1.354 -2.218,-0.589 -2.26,-0.052 -0.134,1.703 -0.364,2.87 -0.5,3.479 -0.088,0.417 -0.15,1.172 -0.713,2.745 -0.849,2.38 -1.708,3.682 -2.188,5.739 -0.224,0.959 -1,1.537 -0.728,2.584 0.249,1.063 1.463,1.437 1.463,1.437 z"
     id="path672" />
  <path
     style="fill:#231f20;fill-opacity:1;fill-rule:nonzero;stroke:#231f20;stroke-width:0.565977;stroke-linecap:round;stroke-linejoin:round;stroke-miterlimit:4;stroke-dasharray:none;stroke-opacity:1"
     d="m 159.308,50.188 c -1.292,0.588 -1.297,2.744 -1.453,3.046 -2.188,4.511 -2.235,4.886 -3.662,8.427 -2.068,5.136 -2.693,8.959 -0.062,11.037 1.792,1.406 3.426,1.438 4.568,0.78 1.26,-0.738 2.962,-3.421 1.724,-6.036 l 0.197,-1.697 c 0.271,-1.136 0.407,-1.693 0.584,-2.235 0.317,-0.953 0.593,-1.989 1.109,-3.88 0.902,-3.36 0.766,-7.193 0.766,-7.193 0.073,-0.301 0.016,-0.577 -0.104,-0.817"
     id="path673" />
  <path
     style="fill:#63c99d;fill-opacity:1;fill-rule:nonzero;stroke:none"
     d="m 160.376,67.568 -7.219,-2.995 c -0.214,0.62 -0.376,1.208 -0.516,1.776 -0.041,0.068 -0.084,0.135 -0.13,0.192 -0.531,0.609 -0.422,1.229 -0.198,2.24 -0.005,1.557 0.454,2.839 1.578,3.797 1.734,1.463 3.37,1.567 4.532,0.954 1.286,-0.688 3.088,-3.308 1.953,-5.964"
     id="path674" />
  <path
     style="fill:none;stroke:#231f20;stroke-width:0.565977;stroke-linecap:butt;stroke-linejoin:miter;stroke-miterlimit:4;stroke-dasharray:none;stroke-opacity:1"
     d="m 160.376,67.568 -7.219,-2.995 c -0.214,0.62 -0.376,1.208 -0.516,1.776 -0.041,0.068 -0.084,0.135 -0.13,0.192 -0.531,0.609 -0.422,1.229 -0.198,2.24 -0.005,1.557 0.454,2.839 1.578,3.797 1.734,1.463 3.37,1.567 4.532,0.954 1.286,-0.688 3.088,-3.308 1.953,-5.964 z"
     id="path675" />
  <path
     style="fill:#231f20;fill-opacity:1;fill-rule:nonzero;stroke:none"
     d="m 165.772,34.265 c 0.843,1.063 0.337,1.917 -0.641,2.251 -0.298,0.104 -0.438,0.5 -0.73,0.573 -0.682,0.176 -2.15,-0.761 -1.686,-2.188 0.036,-0.104 0.052,-0.923 0.156,-1.536 0.208,-1.193 1.192,-3.485 3.702,-4.453 1.194,-0.464 1.246,0.322 0.823,0.656 -1.348,1.052 -1.26,1.41 -1.515,1.817 -0.865,1.375 -0.109,2.88 -0.109,2.88"
     id="path676" />
  <path
     style="fill:none;stroke:#231f20;stroke-width:0.332927;stroke-linecap:butt;stroke-linejoin:miter;stroke-miterlimit:4;stroke-dasharray:none;stroke-opacity:1"
     d="m 165.772,34.265 c 0.843,1.063 0.337,1.917 -0.641,2.251 -0.298,0.104 -0.438,0.5 -0.73,0.573 -0.682,0.176 -2.15,-0.761 -1.686,-2.188 0.036,-0.104 0.052,-0.923 0.156,-1.536 0.208,-1.193 1.192,-3.485 3.702,-4.453 1.194,-0.464 1.246,0.322 0.823,0.656 -1.348,1.052 -1.26,1.41 -1.515,1.817 -0.865,1.375 -0.109,2.88 -0.109,2.88 z"
     id="path677" />
  <path
     style="fill:#63c99d;fill-opacity:1;fill-rule:nonzero;stroke:none"
     d="m 116.574,77.286 c 0.213,-3.125 0.598,-3.776 1.021,-4.598 2.615,-5.152 0.036,-6.339 -2.828,-6.006 -3.371,0.38 -4.584,0.454 -4.412,6.744 0.052,1.756 -0.636,8.491 -0.636,8.491 -0.572,2.38 0.136,5.004 1.287,5.9 1.213,0.948 0.802,0.485 2.078,1.152 1.224,0.64 3.407,0.536 4.156,-0.448 0.724,-0.937 0.11,-2.489 -0.489,-4.839 -0.475,-1.854 -0.177,-6.396 -0.177,-6.396"
     id="path678" />
  <path
     style="fill:none;stroke:#231f20;stroke-width:0.565977;stroke-linecap:butt;stroke-linejoin:miter;stroke-miterlimit:4;stroke-dasharray:none;stroke-opacity:1"
     d="m 116.574,77.286 c 0.213,-3.125 0.598,-3.776 1.021,-4.598 2.615,-5.152 0.036,-6.339 -2.828,-6.006 -3.371,0.38 -4.584,0.454 -4.412,6.744 0.052,1.756 -0.636,8.491 -0.636,8.491 -0.572,2.38 0.136,5.004 1.287,5.9 1.213,0.948 0.802,0.485 2.078,1.152 1.224,0.64 3.407,0.536 4.156,-0.448 0.724,-0.937 0.11,-2.489 -0.489,-4.839 -0.475,-1.854 -0.177,-6.396 -0.177,-6.396 z"
     id="path679" />
  <path
     style="fill:#ffffff;fill-opacity:1;fill-rule:nonzero;stroke:none"
     d="m 114.158,97.598 c 0.156,0.188 -0.5,1.136 -0.09,1.464 0.407,0.334 1.042,-0.145 2.975,0.334 l 0.02,0.005 c 1.396,0.391 2.776,0.167 3.636,-0.745 1.437,-1.506 0.937,-4.302 -1.099,-6.25 -2.052,-1.948 -4.876,-2.302 -6.302,-0.808 -1.375,1.438 -0.974,4.074 0.86,6"
     id="path680" />
  <path
     style="fill:none;stroke:#231f20;stroke-width:0.565977;stroke-linecap:butt;stroke-linejoin:miter;stroke-miterlimit:4;stroke-dasharray:none;stroke-opacity:1"
     d="m 114.158,97.598 c 0.156,0.188 -0.5,1.136 -0.09,1.464 0.407,0.334 1.042,-0.145 2.975,0.334 l 0.02,0.005 c 1.396,0.391 2.776,0.167 3.636,-0.745 1.437,-1.506 0.937,-4.302 -1.099,-6.25 -2.052,-1.948 -4.876,-2.302 -6.302,-0.808 -1.375,1.438 -0.974,4.074 0.86,6 z"
     id="path681" />
  <path
     style="fill:#231f20;fill-opacity:1;fill-rule:nonzero;stroke:none"
     d="m 113.948,106.89 c -0.385,-0.511 -0.276,-2.459 -0.796,-3.979 -0.354,-1.026 -0.114,-3.761 -0.548,-4.75 -0.389,-0.916 -0.489,-1.369 0.48,-2 0.568,-0.369 1.911,-0.719 2.208,-0.301 0.699,0.962 0.907,1.885 0.918,2.952 0.014,1.22 -0.24,4.521 -0.339,5.125 -0.267,1.5 0.088,2.146 0.057,2.546 -0.057,0.762 -0.365,0.928 -0.86,1 -0.953,0.131 -1.12,-0.593 -1.12,-0.593"
     id="path682" />
  <path
     style="fill:none;stroke:#231f20;stroke-width:0.565977;stroke-linecap:butt;stroke-linejoin:miter;stroke-miterlimit:4;stroke-dasharray:none;stroke-opacity:1"
     d="m 113.948,106.89 c -0.385,-0.511 -0.276,-2.459 -0.796,-3.979 -0.354,-1.026 -0.114,-3.761 -0.548,-4.75 -0.389,-0.916 -0.489,-1.369 0.48,-2 0.568,-0.369 1.911,-0.719 2.208,-0.301 0.699,0.962 0.907,1.885 0.918,2.952 0.014,1.22 -0.24,4.521 -0.339,5.125 -0.267,1.5 0.088,2.146 0.057,2.546 -0.057,0.762 -0.365,0.928 -0.86,1 -0.953,0.131 -1.12,-0.593 -1.12,-0.593 z"
     id="path683" />
  <path
     style="fill:#231f20;fill-opacity:1;fill-rule:nonzero;stroke:none"
     d="m 113.21,97.86 c -1.298,-0.038 -0.866,-2.027 -0.834,-2.563 0.031,-0.547 -0.052,-2.099 -0.276,-3.303 -0.218,-1.208 0.02,-2.806 -0.39,-5.093 -0.224,-1.203 0.328,-2.511 2.088,-2.756 1.74,-0.233 2.526,0.652 2.573,2.152 0.047,1.489 -0.547,2.916 -0.609,4.427 -0.058,1.505 0.02,3.057 0.14,4.265 0.136,1.376 -0.307,2.104 -0.73,2.328 -1.046,0.579 -1.962,0.543 -1.962,0.543"
     id="path684" />
  <path
     style="fill:none;stroke:#231f20;stroke-width:0.565977;stroke-linecap:butt;stroke-linejoin:miter;stroke-miterlimit:4;stroke-dasharray:none;stroke-opacity:1"
     d="m 113.21,97.86 c -1.298,-0.038 -0.866,-2.027 -0.834,-2.563 0.031,-0.547 -0.052,-2.099 -0.276,-3.303 -0.218,-1.208 0.02,-2.806 -0.39,-5.093 -0.224,-1.203 0.328,-2.511 2.088,-2.756 1.74,-0.233 2.526,0.652 2.573,2.152 0.047,1.489 -0.547,2.916 -0.609,4.427 -0.058,1.505 0.02,3.057 0.14,4.265 0.136,1.376 -0.307,2.104 -0.73,2.328 -1.046,0.579 -1.962,0.543 -1.962,0.543 z"
     id="path685" />
  <path
     style="fill:#231f20;fill-opacity:1;fill-rule:nonzero;stroke:none"
     d="m 116.282,51.708 c 2.209,0.494 2.709,0.286 2.969,-0.635 0.188,-0.615 0.557,-1.115 0.683,-1.485 0.426,-1.223 0.629,-3.468 -0.448,-9.963 -0.251,-1.469 -0.574,-3.541 -0.642,-4.396 -0.109,-1.349 -2.281,-0.26 -2.244,0.276 0.115,1.708 0.052,2.896 0.01,3.516 -0.026,0.427 0.026,1.181 -0.307,2.823 -0.489,2.473 -1.156,3.885 -1.328,5.994 -0.084,0.979 -0.765,1.662 -0.349,2.662 0.401,1.01 1.656,1.208 1.656,1.208"
     id="path686" />
  <path
     style="fill:none;stroke:#231f20;stroke-width:0.565977;stroke-linecap:butt;stroke-linejoin:miter;stroke-miterlimit:4;stroke-dasharray:none;stroke-opacity:1"
     d="m 116.282,51.708 c 2.209,0.494 2.709,0.286 2.969,-0.635 0.188,-0.615 0.557,-1.115 0.683,-1.485 0.426,-1.223 0.629,-3.468 -0.448,-9.963 -0.251,-1.469 -0.574,-3.541 -0.642,-4.396 -0.109,-1.349 -2.281,-0.26 -2.244,0.276 0.115,1.708 0.052,2.896 0.01,3.516 -0.026,0.427 0.026,1.181 -0.307,2.823 -0.489,2.473 -1.156,3.885 -1.328,5.994 -0.084,0.979 -0.765,1.662 -0.349,2.662 0.401,1.01 1.656,1.208 1.656,1.208 z"
     id="path687" />
  <path
     style="fill:#231f20;fill-opacity:1;fill-rule:nonzero;stroke:#231f20;stroke-width:0.565977;stroke-linecap:round;stroke-linejoin:round;stroke-miterlimit:4;stroke-dasharray:none;stroke-opacity:1"
     d="m 115.027,49.546 c -1.193,0.771 -0.885,2.902 -0.989,3.224 -1.516,4.782 -1.506,5.162 -2.402,8.871 -1.297,5.38 -1.365,9.255 1.536,10.927 1.975,1.13 3.6,0.926 4.631,0.109 1.14,-0.912 2.437,-3.812 0.833,-6.219 l -0.052,-1.713 c 0.104,-1.161 0.156,-1.729 0.25,-2.297 0.182,-0.984 0.302,-2.052 0.537,-3.995 0.405,-3.453 -0.287,-7.229 -0.287,-7.229 0.031,-0.307 -0.068,-0.574 -0.218,-0.792"
     id="path688" />
  <path
     style="fill:#63c99d;fill-opacity:1;fill-rule:nonzero;stroke:none"
     d="m 118.61,66.588 -7.578,-1.916 c -0.12,0.645 -0.198,1.249 -0.25,1.833 -0.036,0.073 -0.067,0.145 -0.104,0.208 -0.432,0.683 -0.239,1.276 0.13,2.245 0.219,1.542 0.859,2.744 2.11,3.526 1.926,1.198 3.562,1.062 4.625,0.286 1.172,-0.869 2.577,-3.718 1.067,-6.182"
     id="path689" />
  <path
     style="fill:none;stroke:#231f20;stroke-width:0.565977;stroke-linecap:butt;stroke-linejoin:miter;stroke-miterlimit:4;stroke-dasharray:none;stroke-opacity:1"
     d="m 118.61,66.588 -7.578,-1.916 c -0.12,0.645 -0.198,1.249 -0.25,1.833 -0.036,0.073 -0.067,0.145 -0.104,0.208 -0.432,0.683 -0.239,1.276 0.13,2.245 0.219,1.542 0.859,2.744 2.11,3.526 1.926,1.198 3.562,1.062 4.625,0.286 1.172,-0.869 2.577,-3.718 1.067,-6.182 z"
     id="path690" />
  <path
     style="fill:#231f20;fill-opacity:1;fill-rule:nonzero;stroke:none"
     d="m 119.115,32.854 c 0.985,0.927 0.609,1.844 -0.307,2.323 -0.276,0.14 -0.36,0.552 -0.641,0.667 -0.651,0.276 -2.239,-0.438 -1.984,-1.923 0.021,-0.099 -0.088,-0.911 -0.073,-1.536 0.032,-1.213 0.672,-3.625 3.021,-4.948 1.109,-0.629 1.276,0.141 0.907,0.532 -1.183,1.239 -1.047,1.577 -1.235,2.02 -0.656,1.485 0.312,2.865 0.312,2.865"
     id="path691" />
  <path
     style="fill:none;stroke:#231f20;stroke-width:0.332927;stroke-linecap:butt;stroke-linejoin:miter;stroke-miterlimit:4;stroke-dasharray:none;stroke-opacity:1"
     d="m 119.115,32.854 c 0.985,0.927 0.609,1.844 -0.307,2.323 -0.276,0.14 -0.36,0.552 -0.641,0.667 -0.651,0.276 -2.239,-0.438 -1.984,-1.923 0.021,-0.099 -0.088,-0.911 -0.073,-1.536 0.032,-1.213 0.672,-3.625 3.021,-4.948 1.109,-0.629 1.276,0.141 0.907,0.532 -1.183,1.239 -1.047,1.577 -1.235,2.02 -0.656,1.485 0.312,2.865 0.312,2.865 z"
     id="path692" />
  <path
     style="fill:#231f20;fill-opacity:1;fill-rule:nonzero;stroke:none"
     d="m 117.855,107.723 c 0.213,1.156 -0.547,2.271 -1.708,2.484 -1.156,0.215 -2.271,-0.546 -2.485,-1.702 -0.219,-1.162 0.548,-2.271 1.709,-2.49 1.156,-0.213 2.271,0.547 2.484,1.708"
     id="path693" />
  <path
     style="fill:#63c99d;fill-opacity:1;fill-rule:nonzero;stroke:none"
     d="m 68.558,80.084 c -2.843,-1.319 -3.312,-1.912 -3.927,-2.6 -3.875,-4.286 -5.907,-2.307 -6.625,0.485 -0.848,3.281 -1.214,4.448 4.718,6.536 1.658,0.579 7.699,3.636 7.699,3.636 2.02,1.391 4.724,1.667 5.973,0.911 1.314,-0.792 0.74,-0.574 1.823,-1.526 1.032,-0.912 1.715,-2.985 1.068,-4.042 -0.62,-1.01 -2.287,-0.99 -4.692,-1.276 -1.901,-0.224 -6.037,-2.124 -6.037,-2.124"
     id="path694" />
  <path
     style="fill:none;stroke:#231f20;stroke-width:0.565977;stroke-linecap:butt;stroke-linejoin:miter;stroke-miterlimit:4;stroke-dasharray:none;stroke-opacity:1"
     d="m 68.558,80.084 c -2.843,-1.319 -3.312,-1.912 -3.927,-2.6 -3.875,-4.286 -5.907,-2.307 -6.625,0.485 -0.848,3.281 -1.214,4.448 4.718,6.536 1.658,0.579 7.699,3.636 7.699,3.636 2.02,1.391 4.724,1.667 5.973,0.911 1.314,-0.792 0.74,-0.574 1.823,-1.526 1.032,-0.912 1.715,-2.985 1.068,-4.042 -0.62,-1.01 -2.287,-0.99 -4.692,-1.276 -1.901,-0.224 -6.037,-2.124 -6.037,-2.124 z"
     id="path695" />
  <path
     style="fill:#ffffff;fill-opacity:1;fill-rule:nonzero;stroke:none"
     d="m 86.912,87.812 c 0.214,-0.119 1.026,0.693 1.422,0.354 0.401,-0.338 0.052,-1.052 0.87,-2.864 l 0.006,-0.021 c 0.64,-1.307 0.672,-2.697 -0.068,-3.708 -1.219,-1.688 -4.058,-1.704 -6.344,-0.052 -2.292,1.661 -3.151,4.369 -1.938,6.047 1.162,1.614 3.823,1.697 6.052,0.244"
     id="path696" />
  <path
     style="fill:none;stroke:#231f20;stroke-width:0.565977;stroke-linecap:butt;stroke-linejoin:miter;stroke-miterlimit:4;stroke-dasharray:none;stroke-opacity:1"
     d="m 86.912,87.812 c 0.214,-0.119 1.026,0.693 1.422,0.354 0.401,-0.338 0.052,-1.052 0.87,-2.864 l 0.006,-0.021 c 0.64,-1.307 0.672,-2.697 -0.068,-3.708 -1.219,-1.688 -4.058,-1.704 -6.344,-0.052 -2.292,1.661 -3.151,4.369 -1.938,6.047 1.162,1.614 3.823,1.697 6.052,0.244 z"
     id="path697" />
  <path
     style="fill:#231f20;fill-opacity:1;fill-rule:nonzero;stroke:none"
     d="m 71.73,106.401 c -0.291,-0.574 0.177,-2.47 -0.058,-4.058 -0.161,-1.073 0.574,-3.713 0.334,-4.77 -0.219,-0.969 -0.23,-1.437 0.833,-1.875 0.631,-0.261 2.016,-0.36 2.229,0.104 0.506,1.078 0.547,2.026 0.36,3.072 -0.209,1.199 -1.062,4.401 -1.27,4.975 -0.532,1.426 -0.303,2.129 -0.407,2.52 -0.199,0.734 -0.532,0.838 -1.032,0.818 -0.957,-0.042 -0.989,-0.786 -0.989,-0.786"
     id="path698" />
  <path
     style="fill:none;stroke:#231f20;stroke-width:0.565977;stroke-linecap:butt;stroke-linejoin:miter;stroke-miterlimit:4;stroke-dasharray:none;stroke-opacity:1"
     d="m 71.73,106.401 c -0.291,-0.574 0.177,-2.47 -0.058,-4.058 -0.161,-1.073 0.574,-3.713 0.334,-4.77 -0.219,-0.969 -0.23,-1.437 0.833,-1.875 0.631,-0.261 2.016,-0.36 2.229,0.104 0.506,1.078 0.547,2.026 0.36,3.072 -0.209,1.199 -1.062,4.401 -1.27,4.975 -0.532,1.426 -0.303,2.129 -0.407,2.52 -0.199,0.734 -0.532,0.838 -1.032,0.818 -0.957,-0.042 -0.989,-0.786 -0.989,-0.786 z"
     id="path699" />
  <path
     style="fill:#231f20;fill-opacity:1;fill-rule:nonzero;stroke:none"
     d="m 72.658,97.39 c -1.272,-0.276 -0.486,-2.156 -0.355,-2.677 0.131,-0.531 0.333,-2.072 0.333,-3.291 0.006,-1.229 0.536,-2.756 0.547,-5.084 0,-1.224 0.781,-2.406 2.552,-2.322 1.76,0.082 2.371,1.098 2.141,2.577 -0.229,1.48 -1.073,2.776 -1.406,4.245 -0.339,1.474 -0.542,3.006 -0.646,4.219 -0.12,1.375 -0.688,2.016 -1.141,2.161 -1.135,0.375 -2.025,0.172 -2.025,0.172"
     id="path700" />
  <path
     style="fill:none;stroke:#231f20;stroke-width:0.565977;stroke-linecap:butt;stroke-linejoin:miter;stroke-miterlimit:4;stroke-dasharray:none;stroke-opacity:1"
     d="m 72.658,97.39 c -1.272,-0.276 -0.486,-2.156 -0.355,-2.677 0.131,-0.531 0.333,-2.072 0.333,-3.291 0.006,-1.229 0.536,-2.756 0.547,-5.084 0,-1.224 0.781,-2.406 2.552,-2.322 1.76,0.082 2.371,1.098 2.141,2.577 -0.229,1.48 -1.073,2.776 -1.406,4.245 -0.339,1.474 -0.542,3.006 -0.646,4.219 -0.12,1.375 -0.688,2.016 -1.141,2.161 -1.135,0.375 -2.025,0.172 -2.025,0.172 z"
     id="path701" />
  <path
     style="fill:#231f20;fill-opacity:1;fill-rule:nonzero;stroke:none"
     d="m 44.579,71.193 c 1.249,-1.891 1.235,-2.428 0.473,-3.005 -0.514,-0.391 -0.848,-0.918 -1.145,-1.167 -0.989,-0.839 -3.011,-1.828 -9.453,-3.152 -1.463,-0.291 -3.516,-0.728 -4.339,-0.979 -1.296,-0.374 -1.057,2.042 -0.541,2.199 1.636,0.504 2.713,0.984 3.281,1.249 0.385,0.178 1.115,0.402 2.521,1.298 2.135,1.348 3.214,2.473 5.124,3.39 0.886,0.427 1.276,1.307 2.36,1.276 1.083,-0.01 1.719,-1.109 1.719,-1.109"
     id="path702" />
  <path
     style="fill:none;stroke:#231f20;stroke-width:0.565977;stroke-linecap:butt;stroke-linejoin:miter;stroke-miterlimit:4;stroke-dasharray:none;stroke-opacity:1"
     d="m 44.579,71.193 c 1.249,-1.891 1.235,-2.428 0.473,-3.005 -0.514,-0.391 -0.848,-0.918 -1.145,-1.167 -0.989,-0.839 -3.011,-1.828 -9.453,-3.152 -1.463,-0.291 -3.516,-0.728 -4.339,-0.979 -1.296,-0.374 -1.057,2.042 -0.541,2.199 1.636,0.504 2.713,0.984 3.281,1.249 0.385,0.178 1.115,0.402 2.521,1.298 2.135,1.348 3.214,2.473 5.124,3.39 0.886,0.427 1.276,1.307 2.36,1.276 1.083,-0.01 1.719,-1.109 1.719,-1.109 z"
     id="path703" />
  <path
     style="fill:#231f20;fill-opacity:1;fill-rule:nonzero;stroke:#231f20;stroke-width:0.565977;stroke-linecap:round;stroke-linejoin:round;stroke-miterlimit:4;stroke-dasharray:none;stroke-opacity:1"
     d="m 42.11,71.588 c 0.292,1.386 2.39,1.865 2.652,2.078 3.921,3.131 4.281,3.255 7.421,5.423 4.552,3.14 8.151,4.593 10.751,2.473 1.76,-1.432 2.156,-3.021 1.76,-4.281 -0.443,-1.391 -2.688,-3.64 -5.506,-3.005 L 57.574,73.713 C 56.527,73.198 56.011,72.948 55.516,72.65 54.662,72.13 53.71,71.636 51.975,70.724 48.896,69.109 45.126,68.396 45.126,68.396 44.85,68.265 44.568,68.254 44.308,68.322"
     id="path704" />
  <path
     style="fill:#63c99d;fill-opacity:1;fill-rule:nonzero;stroke:none"
     d="m 64.683,77.562 c -0.385,-1.406 -2.541,-3.74 -5.385,-3.208 l -4.5,6.386 c 0.557,0.344 1.093,0.629 1.62,0.89 0.057,0.058 0.109,0.115 0.15,0.172 0.484,0.646 1.115,0.676 2.151,0.682 1.516,0.344 2.871,0.177 4.048,-0.708 1.807,-1.37 2.265,-2.943 1.916,-4.214"
     id="path705" />
  <path
     style="fill:none;stroke:#231f20;stroke-width:0.565977;stroke-linecap:butt;stroke-linejoin:miter;stroke-miterlimit:4;stroke-dasharray:none;stroke-opacity:1"
     d="m 64.683,77.562 c -0.385,-1.406 -2.541,-3.74 -5.385,-3.208 l -4.5,6.386 c 0.557,0.344 1.093,0.629 1.62,0.89 0.057,0.058 0.109,0.115 0.15,0.172 0.484,0.646 1.115,0.676 2.151,0.682 1.516,0.344 2.871,0.177 4.048,-0.708 1.807,-1.37 2.265,-2.943 1.916,-4.214 z"
     id="path706" />
  <path
     style="fill:#231f20;fill-opacity:1;fill-rule:nonzero;stroke:none"
     d="m 27.995,61.792 c 1.22,-0.59 1.943,0.088 2.057,1.12 0.032,0.306 0.387,0.53 0.396,0.833 0.022,0.708 -1.213,1.937 -2.505,1.167 -0.088,-0.058 -0.885,-0.251 -1.463,-0.486 -1.12,-0.462 -3.141,-1.926 -3.542,-4.593 -0.187,-1.26 0.594,-1.14 0.824,-0.656 0.733,1.547 1.104,1.541 1.448,1.875 1.15,1.146 2.785,0.74 2.785,0.74"
     id="path707" />
  <path
     style="fill:none;stroke:#231f20;stroke-width:0.332927;stroke-linecap:butt;stroke-linejoin:miter;stroke-miterlimit:4;stroke-dasharray:none;stroke-opacity:1"
     d="m 27.995,61.792 c 1.22,-0.59 1.943,0.088 2.057,1.12 0.032,0.306 0.387,0.53 0.396,0.833 0.022,0.708 -1.213,1.937 -2.505,1.167 -0.088,-0.058 -0.885,-0.251 -1.463,-0.486 -1.12,-0.462 -3.141,-1.926 -3.542,-4.593 -0.187,-1.26 0.594,-1.14 0.824,-0.656 0.733,1.547 1.104,1.541 1.448,1.875 1.15,1.146 2.785,0.74 2.785,0.74 z"
     id="path708" />
  <path
     style="fill:#231f20;fill-opacity:1;fill-rule:nonzero;stroke:none"
     d="m 75.418,107.937 c 0,1.177 -0.954,2.13 -2.136,2.13 -1.176,0 -2.13,-0.953 -2.13,-2.13 0,-1.182 0.954,-2.135 2.13,-2.135 1.182,0 2.136,0.953 2.136,2.135"
     id="path709" />
  <path
     style="fill:#63c99d;fill-opacity:1;fill-rule:nonzero;stroke:none"
     d="m 290.217,89.948 c 3.04,0.745 3.62,1.24 4.35,1.792 4.63,3.468 6.25,1.129 6.41,-1.751 0.2,-3.38 0.34,-4.593 -5.89,-5.5 -1.74,-0.249 -8.25,-2.088 -8.25,-2.088 -2.25,-0.975 -4.96,-0.729 -6.05,0.249 -1.13,1.032 -0.6,0.704 -1.48,1.85 -0.84,1.088 -1.11,3.26 -0.28,4.172 0.81,0.874 2.44,0.53 4.85,0.349 1.91,-0.147 6.34,0.927 6.34,0.927"
     id="path710" />
  <path
     style="fill:none;stroke:#231f20;stroke-width:0.565977;stroke-linecap:butt;stroke-linejoin:miter;stroke-miterlimit:4;stroke-dasharray:none;stroke-opacity:1"
     d="m 290.217,89.948 c 3.04,0.745 3.62,1.24 4.35,1.792 4.63,3.468 6.25,1.129 6.41,-1.751 0.2,-3.38 0.34,-4.593 -5.89,-5.5 -1.74,-0.249 -8.25,-2.088 -8.25,-2.088 -2.25,-0.975 -4.96,-0.729 -6.05,0.249 -1.13,1.032 -0.6,0.704 -1.48,1.85 -0.84,1.088 -1.11,3.26 -0.28,4.172 0.81,0.874 2.44,0.53 4.85,0.349 1.91,-0.147 6.34,0.927 6.34,0.927 z"
     id="path711" />
  <path
     style="fill:#ffffff;fill-opacity:1;fill-rule:nonzero;stroke:none"
     d="m 277.407,76.932 c -0.19,-0.151 0.27,-1.203 -0.19,-1.448 -0.46,-0.25 -1,0.333 -2.98,0.234 l -0.02,-0.005 c -1.46,-0.12 -2.76,0.36 -3.44,1.412 -1.13,1.749 -0.11,4.407 2.27,5.932 2.38,1.531 5.21,1.349 6.33,-0.396 1.08,-1.667 0.2,-4.177 -1.97,-5.729"
     id="path712" />
  <path
     style="fill:none;stroke:#231f20;stroke-width:0.565977;stroke-linecap:butt;stroke-linejoin:miter;stroke-miterlimit:4;stroke-dasharray:none;stroke-opacity:1"
     d="m 277.407,76.932 c -0.19,-0.151 0.27,-1.203 -0.19,-1.448 -0.46,-0.25 -1,0.333 -2.98,0.234 l -0.02,-0.005 c -1.46,-0.12 -2.76,0.36 -3.44,1.412 -1.13,1.749 -0.11,4.407 2.27,5.932 2.38,1.531 5.21,1.349 6.33,-0.396 1.08,-1.667 0.2,-4.177 -1.97,-5.729 z"
     id="path713" />
  <path
     style="fill:#231f20;fill-opacity:1;fill-rule:nonzero;stroke:none"
     d="m 282.787,106.917 c -0.41,-0.5 -0.35,-2.448 -0.92,-3.954 -0.38,-1.016 -0.22,-3.75 -0.68,-4.734 -0.42,-0.901 -0.53,-1.355 0.42,-2.011 0.56,-0.39 1.89,-0.776 2.2,-0.369 0.72,0.948 0.96,1.864 1,2.932 0.05,1.213 -0.1,4.521 -0.19,5.125 -0.22,1.511 0.15,2.145 0.13,2.552 -0.03,0.76 -0.34,0.932 -0.83,1.02 -0.94,0.157 -1.13,-0.561 -1.13,-0.561"
     id="path714" />
  <path
     style="fill:none;stroke:#231f20;stroke-width:0.565977;stroke-linecap:butt;stroke-linejoin:miter;stroke-miterlimit:4;stroke-dasharray:none;stroke-opacity:1"
     d="m 282.787,106.917 c -0.41,-0.5 -0.35,-2.448 -0.92,-3.954 -0.38,-1.016 -0.22,-3.75 -0.68,-4.734 -0.42,-0.901 -0.53,-1.355 0.42,-2.011 0.56,-0.39 1.89,-0.776 2.2,-0.369 0.72,0.948 0.96,1.864 1,2.932 0.05,1.213 -0.1,4.521 -0.19,5.125 -0.22,1.511 0.15,2.145 0.13,2.552 -0.03,0.76 -0.34,0.932 -0.83,1.02 -0.94,0.157 -1.13,-0.561 -1.13,-0.561 z"
     id="path715" />
  <path
     style="fill:#231f20;fill-opacity:1;fill-rule:nonzero;stroke:none"
     d="m 281.777,97.912 c -1.3,0 -0.92,-2 -0.91,-2.538 0.02,-0.546 -0.11,-2.098 -0.37,-3.29 -0.25,-1.204 -0.05,-2.803 -0.54,-5.079 -0.25,-1.197 0.26,-2.521 2.01,-2.812 1.73,-0.292 2.55,0.572 2.64,2.067 0.09,1.49 -0.47,2.933 -0.48,4.442 -0.02,1.511 0.11,3.054 0.26,4.262 0.18,1.369 -0.24,2.114 -0.66,2.353 -1.03,0.609 -1.95,0.595 -1.95,0.595"
     id="path716" />
  <path
     style="fill:none;stroke:#231f20;stroke-width:0.565977;stroke-linecap:butt;stroke-linejoin:miter;stroke-miterlimit:4;stroke-dasharray:none;stroke-opacity:1"
     d="m 281.777,97.912 c -1.3,0 -0.92,-2 -0.91,-2.538 0.02,-0.546 -0.11,-2.098 -0.37,-3.29 -0.25,-1.204 -0.05,-2.803 -0.54,-5.079 -0.25,-1.197 0.26,-2.521 2.01,-2.812 1.73,-0.292 2.55,0.572 2.64,2.067 0.09,1.49 -0.47,2.933 -0.48,4.442 -0.02,1.511 0.11,3.054 0.26,4.262 0.18,1.369 -0.24,2.114 -0.66,2.353 -1.03,0.609 -1.95,0.595 -1.95,0.595 z"
     id="path717" />
  <path
     style="fill:#231f20;fill-opacity:1;fill-rule:nonzero;stroke:none"
     d="m 316.387,87.182 c -0.07,2.266 0.22,2.714 1.17,2.807 0.64,0.063 1.2,0.339 1.59,0.396 1.28,0.193 3.52,-0.02 9.71,-2.271 1.4,-0.51 3.37,-1.213 4.21,-1.432 1.3,-0.36 -0.17,-2.297 -0.69,-2.156 -1.66,0.427 -2.83,0.578 -3.45,0.656 -0.43,0.047 -1.16,0.24 -2.83,0.214 -2.53,-0.031 -4.03,-0.427 -6.14,-0.208 -0.98,0.098 -1.77,-0.443 -2.68,0.145 -0.92,0.584 -0.89,1.849 -0.89,1.849"
     id="path718" />
  <path
     style="fill:none;stroke:#231f20;stroke-width:0.565977;stroke-linecap:butt;stroke-linejoin:miter;stroke-miterlimit:4;stroke-dasharray:none;stroke-opacity:1"
     d="m 316.387,87.182 c -0.07,2.266 0.22,2.714 1.17,2.807 0.64,0.063 1.2,0.339 1.59,0.396 1.28,0.193 3.52,-0.02 9.71,-2.271 1.4,-0.51 3.37,-1.213 4.21,-1.432 1.3,-0.36 -0.17,-2.297 -0.69,-2.156 -1.66,0.427 -2.83,0.578 -3.45,0.656 -0.43,0.047 -1.16,0.24 -2.83,0.214 -2.53,-0.031 -4.03,-0.427 -6.14,-0.208 -0.98,0.098 -1.77,-0.443 -2.68,0.145 -0.92,0.584 -0.89,1.849 -0.89,1.849 z"
     id="path719" />
  <path
     style="fill:#231f20;fill-opacity:1;fill-rule:nonzero;stroke:#231f20;stroke-width:0.565977;stroke-linecap:round;stroke-linejoin:round;stroke-miterlimit:4;stroke-dasharray:none;stroke-opacity:1"
     d="m 318.287,85.557 c -0.97,-1.036 -3.02,-0.344 -3.35,-0.391 -4.98,-0.609 -5.35,-0.525 -9.16,-0.729 -5.53,-0.292 -9.35,0.355 -10.46,3.516 -0.75,2.145 -0.25,3.703 0.74,4.568 1.1,0.953 4.19,1.697 6.27,-0.323 l 1.67,-0.365 c 1.16,-0.104 1.73,-0.161 2.31,-0.172 1,-0.005 2.07,-0.077 4.02,-0.208 3.46,-0.229 7.05,-1.604 7.05,-1.604 0.32,-0.027 0.56,-0.167 0.75,-0.36"
     id="path720" />
  <path
     style="fill:#63c99d;fill-opacity:1;fill-rule:nonzero;stroke:none"
     d="m 300.837,84.484 c -0.08,-0.015 -0.15,-0.036 -0.22,-0.062 -0.75,-0.297 -1.3,0 -2.19,0.542 -1.47,0.494 -2.54,1.348 -3.08,2.724 -0.83,2.109 -0.39,3.692 0.57,4.593 1.07,0.995 4.13,1.849 6.27,-0.083 l 0.5,-7.802 c -0.66,0 -1.27,0.036 -1.85,0.088"
     id="path721" />
  <path
     style="fill:none;stroke:#231f20;stroke-width:0.565977;stroke-linecap:butt;stroke-linejoin:miter;stroke-miterlimit:4;stroke-dasharray:none;stroke-opacity:1"
     d="m 300.837,84.484 c -0.08,-0.015 -0.15,-0.036 -0.22,-0.062 -0.75,-0.297 -1.3,0 -2.19,0.542 -1.47,0.494 -2.54,1.348 -3.08,2.724 -0.83,2.109 -0.39,3.692 0.57,4.593 1.07,0.995 4.13,1.849 6.27,-0.083 l 0.5,-7.802 c -0.66,0 -1.27,0.036 -1.85,0.088 z"
     id="path722" />
  <path
     style="fill:#231f20;fill-opacity:1;fill-rule:nonzero;stroke:none"
     d="m 335.447,86.51 c -0.73,1.135 -1.7,0.938 -2.34,0.126 -0.2,-0.246 -0.61,-0.256 -0.77,-0.511 -0.39,-0.589 0.02,-2.281 1.52,-2.303 0.1,0 0.88,-0.254 1.49,-0.353 1.2,-0.188 3.69,0 5.43,2.063 0.82,0.978 0.09,1.28 -0.36,0.989 -1.44,-0.933 -1.75,-0.735 -2.21,-0.839 -1.58,-0.374 -2.76,0.828 -2.76,0.828"
     id="path723" />
  <path
     style="fill:none;stroke:#231f20;stroke-width:0.332927;stroke-linecap:butt;stroke-linejoin:miter;stroke-miterlimit:4;stroke-dasharray:none;stroke-opacity:1"
     d="m 335.447,86.51 c -0.73,1.135 -1.7,0.938 -2.34,0.126 -0.2,-0.246 -0.61,-0.256 -0.77,-0.511 -0.39,-0.589 0.02,-2.281 1.52,-2.303 0.1,0 0.88,-0.254 1.49,-0.353 1.2,-0.188 3.69,0 5.43,2.063 0.82,0.978 0.09,1.28 -0.36,0.989 -1.44,-0.933 -1.75,-0.735 -2.21,-0.839 -1.58,-0.374 -2.76,0.828 -2.76,0.828 z"
     id="path724" />
  <path
     style="fill:#231f20;fill-opacity:1;fill-rule:nonzero;stroke:none"
     d="m 286.717,107.635 c 0.25,1.151 -0.49,2.286 -1.64,2.536 -1.15,0.251 -2.29,-0.478 -2.53,-1.63 -0.26,-1.156 0.48,-2.287 1.63,-2.542 1.15,-0.244 2.29,0.484 2.54,1.636"
     id="path725" />
  <path
     style="fill:none;stroke:#231f20;stroke-width:0.399514;stroke-linecap:butt;stroke-linejoin:miter;stroke-miterlimit:4;stroke-dasharray:none;stroke-opacity:1"
     d="M 146.948,61.765 C 160.297,38.89 172.095,44.989 171.396,53.369"
     id="path726" />
  <path
     style="fill:#231f20;fill-opacity:1;fill-rule:nonzero;stroke:none"
     d="m 171.292,54.573 c -0.161,-0.584 -0.459,-1.313 -0.801,-1.781 l 0.916,0.421 0.974,-0.265 c -0.412,0.406 -0.829,1.078 -1.089,1.625"
     id="path727" />
  <path
     style="fill:#231f20;fill-opacity:1;fill-rule:nonzero;stroke:#231f20;stroke-width:0.565977;stroke-linecap:round;stroke-linejoin:round;stroke-miterlimit:4;stroke-dasharray:none;stroke-opacity:1"
     d="m 192.901,81.844 c 0,0 -0.546,-1.199 -0.478,-2.36 0.068,-1.162 0.656,-2.38 0.656,-2.38 l 3.297,0.141 -0.204,4.781 z"
     id="path728" />
  <path
     style="fill:#231f20;fill-opacity:1;fill-rule:nonzero;stroke:none"
     d="m 208.089,77.641 c -0.541,-3.563 1.135,-3.491 4.902,-5.079 4.104,-1.74 8.572,-3.114 11.869,-3.12 3.688,-0.016 3.864,-0.5 4.781,1.183 0.911,1.687 0.235,2.077 -0.302,3.249 -0.62,1.35 -7.968,1.74 -12.271,3.751 -2.025,0.943 -6.249,4.5 -7.151,3.364 -0.901,-1.14 -1.828,-3.348 -1.828,-3.348"
     id="path729" />
  <path
     style="fill:none;stroke:#231f20;stroke-width:0.565977;stroke-linecap:butt;stroke-linejoin:miter;stroke-miterlimit:4;stroke-dasharray:none;stroke-opacity:1"
     d="m 208.089,77.641 c -0.541,-3.563 1.135,-3.491 4.902,-5.079 4.104,-1.74 8.572,-3.114 11.869,-3.12 3.688,-0.016 3.864,-0.5 4.781,1.183 0.911,1.687 0.235,2.077 -0.302,3.249 -0.62,1.35 -7.968,1.74 -12.271,3.751 -2.025,0.943 -6.249,4.5 -7.151,3.364 -0.901,-1.14 -1.828,-3.348 -1.828,-3.348 z"
     id="path730" />
  <path
     style="fill:#231f20;fill-opacity:1;fill-rule:nonzero;stroke:none"
     d="m 228.037,72.218 c -0.844,-2.098 -1.12,-2.697 1.323,-3.254 0.62,-0.147 2.38,-0.412 2.719,-0.595 1.14,-0.624 2.521,-1.244 9.098,-1.255 1.032,-0.005 2.97,-0.344 4.371,-0.464 1.348,-0.118 0.635,2.21 0.104,2.262 -1.709,0.172 -2.771,0.65 -3.376,0.796 -0.416,0.094 -1.219,0.152 -2.692,0.922 -3.803,1.984 -5.432,1.235 -6.26,1.578 -2.381,0.99 -4.215,2.333 -4.672,1.849 -0.756,-0.776 -0.615,-1.839 -0.615,-1.839"
     id="path731" />
  <path
     style="fill:none;stroke:#231f20;stroke-width:0.565977;stroke-linecap:butt;stroke-linejoin:miter;stroke-miterlimit:4;stroke-dasharray:none;stroke-opacity:1"
     d="m 228.037,72.218 c -0.844,-2.098 -1.12,-2.697 1.323,-3.254 0.62,-0.147 2.38,-0.412 2.719,-0.595 1.14,-0.624 2.521,-1.244 9.098,-1.255 1.032,-0.005 2.97,-0.344 4.371,-0.464 1.348,-0.118 0.635,2.21 0.104,2.262 -1.709,0.172 -2.771,0.65 -3.376,0.796 -0.416,0.094 -1.219,0.152 -2.692,0.922 -3.803,1.984 -5.432,1.235 -6.26,1.578 -2.381,0.99 -4.215,2.333 -4.672,1.849 -0.756,-0.776 -0.615,-1.839 -0.615,-1.839 z"
     id="path732" />
  <path
     style="fill:#231f20;fill-opacity:1;fill-rule:nonzero;stroke:none"
     d="m 210.147,83.526 c 1.593,3.23 2.937,2.203 6.916,1.348 4.36,-0.932 8.813,-2.38 11.516,-4.265 3.025,-2.104 3.458,-1.801 3.234,-3.703 -0.218,-1.906 -0.994,-1.844 -2.114,-2.5 -1.282,-0.745 -7.527,3.151 -12.204,3.984 -2.192,0.391 -7.692,-0.104 -7.78,1.344 -0.084,1.454 0.432,3.792 0.432,3.792"
     id="path733" />
  <path
     style="fill:none;stroke:#231f20;stroke-width:0.565977;stroke-linecap:butt;stroke-linejoin:miter;stroke-miterlimit:4;stroke-dasharray:none;stroke-opacity:1"
     d="m 210.147,83.526 c 1.593,3.23 2.937,2.203 6.916,1.348 4.36,-0.932 8.813,-2.38 11.516,-4.265 3.025,-2.104 3.458,-1.801 3.234,-3.703 -0.218,-1.906 -0.994,-1.844 -2.114,-2.5 -1.282,-0.745 -7.527,3.151 -12.204,3.984 -2.192,0.391 -7.692,-0.104 -7.78,1.344 -0.084,1.454 0.432,3.792 0.432,3.792 z"
     id="path734" />
  <path
     style="fill:#231f20;fill-opacity:1;fill-rule:nonzero;stroke:none"
     d="m 229.584,76.541 c 0.521,2.199 0.645,2.849 2.964,1.891 0.588,-0.244 2.167,-1.042 2.557,-1.088 1.291,-0.156 2.771,-0.443 8.146,-4.246 0.833,-0.588 2.614,-1.442 3.828,-2.15 1.172,-0.688 -0.755,-2.167 -1.219,-1.902 -1.489,0.85 -2.636,1.068 -3.213,1.298 -0.396,0.166 -1.084,0.588 -2.735,0.806 -4.24,0.579 -5.136,2.142 -6.016,2.339 -2.515,0.568 -4.791,0.532 -4.885,1.193 -0.156,1.078 0.573,1.859 0.573,1.859"
     id="path735" />
  <path
     style="fill:none;stroke:#231f20;stroke-width:0.565977;stroke-linecap:butt;stroke-linejoin:miter;stroke-miterlimit:4;stroke-dasharray:none;stroke-opacity:1"
     d="m 229.584,76.541 c 0.521,2.199 0.645,2.849 2.964,1.891 0.588,-0.244 2.167,-1.042 2.557,-1.088 1.291,-0.156 2.771,-0.443 8.146,-4.246 0.833,-0.588 2.614,-1.442 3.828,-2.15 1.172,-0.688 -0.755,-2.167 -1.219,-1.902 -1.489,0.85 -2.636,1.068 -3.213,1.298 -0.396,0.166 -1.084,0.588 -2.735,0.806 -4.24,0.579 -5.136,2.142 -6.016,2.339 -2.515,0.568 -4.791,0.532 -4.885,1.193 -0.156,1.078 0.573,1.859 0.573,1.859 z"
     id="path736" />
  <path
     style="fill:#231f20;fill-opacity:1;fill-rule:nonzero;stroke:none"
     d="m 250.568,70.541 c -0.479,0.464 -2.129,-0.26 -4.005,0.339 -0.386,0.12 -0.755,0.037 -1.124,0.016 -1.506,-0.088 -2.819,-0.995 0.405,-3.047 0.453,-0.281 2.532,-0.579 3.156,-1.041 1.491,-1.126 4.761,-0.522 4.787,-0.006 0.073,1.119 -3.219,3.739 -3.219,3.739"
     id="path737" />
  <path
     style="fill:none;stroke:#231f20;stroke-width:0.644548;stroke-linecap:round;stroke-linejoin:round;stroke-miterlimit:4;stroke-dasharray:none;stroke-opacity:1"
     d="m 250.568,70.541 c -0.479,0.464 -2.129,-0.26 -4.005,0.339 -0.386,0.12 -0.755,0.037 -1.124,0.016 -1.506,-0.088 -2.819,-0.995 0.405,-3.047 0.453,-0.281 2.532,-0.579 3.156,-1.041 1.491,-1.126 4.761,-0.522 4.787,-0.006 0.073,1.119 -3.219,3.739 -3.219,3.739 z"
     id="path738" />
  <path
     style="fill:#231f20;fill-opacity:1;fill-rule:nonzero;stroke:none"
     d="m 248.776,64.666 c -0.651,-0.134 -1.645,1.37 -3.547,1.891 -0.385,0.115 -0.645,0.38 -0.948,0.599 -1.218,0.896 -1.817,2.376 2.006,2.333 0.526,-0.005 2.432,-0.896 3.213,-0.844 1.855,0.141 4.276,-2.151 4.016,-2.599 -0.552,-0.973 -4.74,-1.38 -4.74,-1.38"
     id="path739" />
  <path
     style="fill:none;stroke:#231f20;stroke-width:0.644548;stroke-linecap:round;stroke-linejoin:round;stroke-miterlimit:4;stroke-dasharray:none;stroke-opacity:1"
     d="m 248.776,64.666 c -0.651,-0.134 -1.645,1.37 -3.547,1.891 -0.385,0.115 -0.645,0.38 -0.948,0.599 -1.218,0.896 -1.817,2.376 2.006,2.333 0.526,-0.005 2.432,-0.896 3.213,-0.844 1.855,0.141 4.276,-2.151 4.016,-2.599 -0.552,-0.973 -4.74,-1.38 -4.74,-1.38 z"
     id="path740" />
  <path
     style="fill:#63c99d;fill-opacity:1;fill-rule:nonzero;stroke:none"
     d="m 218.333,80.265 c 0.027,-0.5 -0.385,-1.124 -0.385,-1.124 0,0 -7.536,0.343 -8.921,-2.443 v -0.354 c 0.901,-0.87 0.364,-0.208 -0.375,-0.255 -5.527,0.025 -7.876,-2.496 -9.005,-3.199 -1.558,-0.973 -1.954,-3.573 -3.886,-2.588 0,0 -1.87,0.531 -1.63,3.328 0.088,1.015 -0.724,3.192 -0.724,3.192 0.041,-0.01 0.078,-0.01 0.12,-0.01 1.249,0.053 1.916,1.152 1.88,2.49 v -0.073 c -0.079,1.333 -0.896,2.364 -2.083,2.312 -0.043,0 -0.084,-0.009 -0.125,-0.02 0,0 0.62,2.239 0.448,3.244 -0.292,1.699 0.634,0.985 0.634,0.985 1.839,1.146 3.162,1.067 4.792,0.234 1.194,-0.61 2.167,-0.099 5.418,-0.02 0.744,0.02 6.708,-0.208 5.88,-1.152 l 0.036,-0.359 c 1.625,-2.651 7.448,-3.109 7.448,-3.109 0,0 0.458,-0.588 0.478,-1.079"
     id="path741" />
  <path
     style="fill:none;stroke:#231f20;stroke-width:0.565977;stroke-linecap:round;stroke-linejoin:round;stroke-miterlimit:4;stroke-dasharray:none;stroke-opacity:1"
     d="m 218.333,80.265 c 0.027,-0.5 -0.385,-1.124 -0.385,-1.124 0,0 -7.536,0.343 -8.921,-2.443 v -0.354 c 0.901,-0.87 0.364,-0.208 -0.375,-0.255 -5.527,0.025 -7.876,-2.496 -9.005,-3.199 -1.558,-0.973 -1.954,-3.573 -3.886,-2.588 0,0 -1.87,0.531 -1.63,3.328 0.088,1.015 -0.724,3.192 -0.724,3.192 0.041,-0.01 0.078,-0.01 0.12,-0.01 1.249,0.053 1.916,1.152 1.88,2.49 v -0.073 c -0.079,1.333 -0.896,2.364 -2.083,2.312 -0.043,0 -0.084,-0.009 -0.125,-0.02 0,0 0.62,2.239 0.448,3.244 -0.292,1.699 0.634,0.985 0.634,0.985 1.839,1.146 3.162,1.067 4.792,0.234 1.194,-0.61 2.167,-0.099 5.418,-0.02 0.744,0.02 6.708,-0.208 5.88,-1.152 l 0.036,-0.359 c 1.625,-2.651 7.448,-3.109 7.448,-3.109 0,0 0.458,-0.588 0.478,-1.079 z"
     id="path742" />
  <path
     style="fill:#63c99d;fill-opacity:1;fill-rule:nonzero;stroke:none"
     d="m 210.313,85.39 c 0.334,0.12 1.678,0.36 2.14,0.386 2.97,0.182 6.694,-1.12 7.964,-1.25 1.266,-0.136 -0.838,-6.376 -0.838,-6.376 l -1.954,0.136 c 0.276,-0.562 -0.297,-0.948 -0.297,-0.948 l 1.729,-1.036 c 0,0 -1.765,-6.218 -2.666,-5.766 -1.244,0.62 -5.619,2.136 -7.49,3.729 -1.016,0.876 -1.416,1.819 -1.416,1.819 0,0 2.167,3.129 2.61,4.489 0.437,1.348 0.218,4.817 0.218,4.817"
     id="path743" />
  <path
     style="fill:none;stroke:#231f20;stroke-width:0.565977;stroke-linecap:butt;stroke-linejoin:miter;stroke-miterlimit:4;stroke-dasharray:none;stroke-opacity:1"
     d="m 210.313,85.39 c 0.334,0.12 1.678,0.36 2.14,0.386 2.97,0.182 6.694,-1.12 7.964,-1.25 1.266,-0.136 -0.838,-6.376 -0.838,-6.376 l -1.954,0.136 c 0.276,-0.562 -0.297,-0.948 -0.297,-0.948 l 1.729,-1.036 c 0,0 -1.765,-6.218 -2.666,-5.766 -1.244,0.62 -5.619,2.136 -7.49,3.729 -1.016,0.876 -1.416,1.819 -1.416,1.819 0,0 2.167,3.129 2.61,4.489 0.437,1.348 0.218,4.817 0.218,4.817 z"
     id="path744" />
  <path
     style="fill:#231f20;fill-opacity:1;fill-rule:nonzero;stroke:none"
     d="m 197.084,106.645 c 0.339,-0.547 0.031,-2.468 0.401,-4.026 0.25,-1.057 -0.256,-3.765 0.078,-4.791 0.297,-0.948 0.349,-1.411 -0.678,-1.938 -0.604,-0.312 -1.968,-0.53 -2.228,-0.082 -0.6,1.036 -0.714,1.962 -0.625,3.03 0.109,1.208 0.687,4.469 0.853,5.063 0.402,1.468 0.115,2.14 0.194,2.546 0.136,0.746 0.442,0.88 0.958,0.902 0.954,0.036 1.047,-0.704 1.047,-0.704"
     id="path745" />
  <path
     style="fill:none;stroke:#231f20;stroke-width:0.565977;stroke-linecap:butt;stroke-linejoin:miter;stroke-miterlimit:4;stroke-dasharray:none;stroke-opacity:1"
     d="m 197.084,106.645 c 0.339,-0.547 0.031,-2.468 0.401,-4.026 0.25,-1.057 -0.256,-3.765 0.078,-4.791 0.297,-0.948 0.349,-1.411 -0.678,-1.938 -0.604,-0.312 -1.968,-0.53 -2.228,-0.082 -0.6,1.036 -0.714,1.962 -0.625,3.03 0.109,1.208 0.687,4.469 0.853,5.063 0.402,1.468 0.115,2.14 0.194,2.546 0.136,0.746 0.442,0.88 0.958,0.902 0.954,0.036 1.047,-0.704 1.047,-0.704 z"
     id="path746" />
  <path
     style="fill:#231f20;fill-opacity:1;fill-rule:nonzero;stroke:none"
     d="m 195.063,98.172 c -1.291,-0.074 -0.807,-2.052 -0.76,-2.588 0.041,-0.543 0,-2.106 -0.188,-3.308 -0.187,-1.208 0.1,-2.807 -0.26,-5.099 -0.183,-1.213 0.401,-2.505 2.172,-2.699 1.745,-0.192 2.505,0.715 2.505,2.22 0.011,1.495 -0.625,2.9 -0.724,4.411 -0.099,1.505 -0.063,3.047 0.025,4.26 0.1,1.376 -0.369,2.1 -0.79,2.313 -1.068,0.547 -1.98,0.49 -1.98,0.49"
     id="path747" />
  <path
     style="fill:none;stroke:#231f20;stroke-width:0.565977;stroke-linecap:butt;stroke-linejoin:miter;stroke-miterlimit:4;stroke-dasharray:none;stroke-opacity:1"
     d="m 195.063,98.172 c -1.291,-0.074 -0.807,-2.052 -0.76,-2.588 0.041,-0.543 0,-2.106 -0.188,-3.308 -0.187,-1.208 0.1,-2.807 -0.26,-5.099 -0.183,-1.213 0.401,-2.505 2.172,-2.699 1.745,-0.192 2.505,0.715 2.505,2.22 0.011,1.495 -0.625,2.9 -0.724,4.411 -0.099,1.505 -0.063,3.047 0.025,4.26 0.1,1.376 -0.369,2.1 -0.79,2.313 -1.068,0.547 -1.98,0.49 -1.98,0.49 z"
     id="path748" />
  <path
     style="fill:#ffffff;fill-opacity:1;fill-rule:nonzero;stroke:none"
     d="m 186.391,79.978 c 2.141,1.839 4.98,2.054 6.333,0.475 1.349,-1.573 0.704,-4.344 -1.432,-6.183 -2.151,-1.844 -4.984,-2.057 -6.333,-0.478 -1.355,1.573 -0.714,4.349 1.432,6.186"
     id="path749" />
  <path
     style="fill:none;stroke:#231f20;stroke-width:0.565977;stroke-linecap:butt;stroke-linejoin:miter;stroke-miterlimit:4;stroke-dasharray:none;stroke-opacity:1"
     d="m 186.391,79.978 c 2.141,1.839 4.98,2.054 6.333,0.475 1.349,-1.573 0.704,-4.344 -1.432,-6.183 -2.151,-1.844 -4.984,-2.057 -6.333,-0.478 -1.355,1.573 -0.714,4.349 1.432,6.186 z"
     id="path750" />
  <path
     style="fill:#231f20;fill-opacity:1;fill-rule:nonzero;stroke:none"
     d="m 210.772,85.964 c 0.135,-0.626 -0.824,-2.319 -1.016,-3.918 -0.12,-1.077 -1.532,-3.432 -1.573,-4.52 -0.047,-0.994 -0.162,-1.442 -1.307,-1.578 -0.677,-0.094 -2.027,0.182 -2.131,0.682 -0.193,1.172 0.022,2.099 0.47,3.068 0.525,1.094 2.192,3.952 2.546,4.458 0.891,1.234 0.859,1.969 1.058,2.313 0.385,0.667 0.738,0.681 1.208,0.52 0.91,-0.296 0.745,-1.025 0.745,-1.025"
     id="path751" />
  <path
     style="fill:none;stroke:#231f20;stroke-width:0.565977;stroke-linecap:butt;stroke-linejoin:miter;stroke-miterlimit:4;stroke-dasharray:none;stroke-opacity:1"
     d="m 210.772,85.964 c 0.135,-0.626 -0.824,-2.319 -1.016,-3.918 -0.12,-1.077 -1.532,-3.432 -1.573,-4.52 -0.047,-0.994 -0.162,-1.442 -1.307,-1.578 -0.677,-0.094 -2.027,0.182 -2.131,0.682 -0.193,1.172 0.022,2.099 0.47,3.068 0.525,1.094 2.192,3.952 2.546,4.458 0.891,1.234 0.859,1.969 1.058,2.313 0.385,0.667 0.738,0.681 1.208,0.52 0.91,-0.296 0.745,-1.025 0.745,-1.025 z"
     id="path752" />
  <path
     style="fill:#231f20;fill-opacity:1;fill-rule:nonzero;stroke:none"
     d="m 206.652,77.093 c 0.656,-1.124 -1.271,-1.796 -1.74,-2.052 -0.484,-0.26 -1.765,-1.14 -2.672,-1.957 -0.912,-0.824 -2.401,-1.454 -4.131,-3.006 -0.916,-0.813 -2.312,-1.037 -3.442,0.339 -1.115,1.359 -0.776,2.495 0.485,3.323 1.249,0.812 2.771,1.057 4.088,1.796 1.312,0.745 2.588,1.614 3.557,2.349 1.104,0.839 1.964,0.839 2.375,0.599 1.037,-0.588 1.48,-1.391 1.48,-1.391"
     id="path753" />
  <path
     style="fill:none;stroke:#231f20;stroke-width:0.565977;stroke-linecap:butt;stroke-linejoin:miter;stroke-miterlimit:4;stroke-dasharray:none;stroke-opacity:1"
     d="m 206.652,77.093 c 0.656,-1.124 -1.271,-1.796 -1.74,-2.052 -0.484,-0.26 -1.765,-1.14 -2.672,-1.957 -0.912,-0.824 -2.401,-1.454 -4.131,-3.006 -0.916,-0.813 -2.312,-1.037 -3.442,0.339 -1.115,1.359 -0.776,2.495 0.485,3.323 1.249,0.812 2.771,1.057 4.088,1.796 1.312,0.745 2.588,1.614 3.557,2.349 1.104,0.839 1.964,0.839 2.375,0.599 1.037,-0.588 1.48,-1.391 1.48,-1.391 z"
     id="path754" />
  <path
     style="fill:#231f20;fill-opacity:1;fill-rule:nonzero;stroke:none"
     d="m 212.24,91.994 c -0.563,-0.478 -2.156,-3.306 -2.495,-3.962 -0.302,-0.595 -1.13,-1.407 -0.426,-2.324 0.285,-0.375 0.952,-0.719 1.276,-0.782 0.249,-0.052 0.484,0.178 0.629,0.552 0.245,0.615 0.084,0.887 0.485,2.1 0,0 0.052,0.302 0.11,0.848 0.186,1.615 -0.047,0.923 0.744,3.215 0.057,0.156 -0.063,0.333 -0.172,0.364 -0.176,0.041 -0.151,-0.011 -0.151,-0.011"
     id="path755" />
  <path
     style="fill:none;stroke:#231f20;stroke-width:0.565977;stroke-linecap:round;stroke-linejoin:round;stroke-miterlimit:4;stroke-dasharray:none;stroke-opacity:1"
     d="m 212.24,91.994 c -0.563,-0.478 -2.156,-3.306 -2.495,-3.962 -0.302,-0.595 -1.13,-1.407 -0.426,-2.324 0.285,-0.375 0.952,-0.719 1.276,-0.782 0.249,-0.052 0.484,0.178 0.629,0.552 0.245,0.615 0.084,0.887 0.485,2.1 0,0 0.052,0.302 0.11,0.848 0.186,1.615 -0.047,0.923 0.744,3.215 0.057,0.156 -0.063,0.333 -0.172,0.364 -0.176,0.041 -0.151,-0.011 -0.151,-0.011 z"
     id="path756" />
  <path
     style="fill:#231f20;fill-opacity:1;fill-rule:nonzero;stroke:none"
     d="m 158.24,105.494 c -0.5,-0.405 -0.844,-2.328 -1.703,-3.683 -0.584,-0.916 -0.98,-3.629 -1.625,-4.499 -0.599,-0.796 -0.792,-1.219 0,-2.052 0.473,-0.495 1.697,-1.14 2.083,-0.807 0.896,0.776 1.318,1.631 1.573,2.661 0.297,1.183 0.808,4.453 0.855,5.068 0.088,1.516 0.582,2.068 0.645,2.468 0.12,0.751 -0.14,0.985 -0.609,1.161 -0.896,0.35 -1.219,-0.317 -1.219,-0.317"
     id="path757" />
  <path
     style="fill:none;stroke:#231f20;stroke-width:0.565977;stroke-linecap:butt;stroke-linejoin:miter;stroke-miterlimit:4;stroke-dasharray:none;stroke-opacity:1"
     d="m 158.24,105.494 c -0.5,-0.405 -0.844,-2.328 -1.703,-3.683 -0.584,-0.916 -0.98,-3.629 -1.625,-4.499 -0.599,-0.796 -0.792,-1.219 0,-2.052 0.473,-0.495 1.697,-1.14 2.083,-0.807 0.896,0.776 1.318,1.631 1.573,2.661 0.297,1.183 0.808,4.453 0.855,5.068 0.088,1.516 0.582,2.068 0.645,2.468 0.12,0.751 -0.14,0.985 -0.609,1.161 -0.896,0.35 -1.219,-0.317 -1.219,-0.317 z"
     id="path758" />
  <path
     style="fill:#231f20;fill-opacity:1;fill-rule:nonzero;stroke:none"
     d="m 155.428,96.88 c -1.271,0.265 -1.313,-1.771 -1.407,-2.296 -0.093,-0.543 -0.536,-2.038 -1.03,-3.152 -0.491,-1.124 -0.626,-2.734 -1.558,-4.864 -0.496,-1.12 -0.261,-2.522 1.395,-3.162 1.641,-0.636 2.615,0.047 3,1.495 0.396,1.437 0.141,2.964 0.439,4.448 0.285,1.479 0.718,2.968 1.114,4.12 0.452,1.301 0.192,2.119 -0.166,2.432 -0.887,0.807 -1.787,0.979 -1.787,0.979"
     id="path759" />
  <path
     style="fill:none;stroke:#231f20;stroke-width:0.565977;stroke-linecap:butt;stroke-linejoin:miter;stroke-miterlimit:4;stroke-dasharray:none;stroke-opacity:1"
     d="m 155.428,96.88 c -1.271,0.265 -1.313,-1.771 -1.407,-2.296 -0.093,-0.543 -0.536,-2.038 -1.03,-3.152 -0.491,-1.124 -0.626,-2.734 -1.558,-4.864 -0.496,-1.12 -0.261,-2.522 1.395,-3.162 1.641,-0.636 2.615,0.047 3,1.495 0.396,1.437 0.141,2.964 0.439,4.448 0.285,1.479 0.718,2.968 1.114,4.12 0.452,1.301 0.192,2.119 -0.166,2.432 -0.887,0.807 -1.787,0.979 -1.787,0.979 z"
     id="path760" />
  <path
     style="fill:#231f20;fill-opacity:1;fill-rule:nonzero;stroke:none"
     d="m 161.469,112.062 c -0.578,-0.448 -2.322,-3.183 -2.688,-3.833 -0.338,-0.568 -1.197,-1.35 -0.546,-2.292 0.265,-0.391 0.922,-0.766 1.234,-0.844 0.25,-0.062 0.495,0.161 0.662,0.51 0.276,0.61 0.12,0.891 0.588,2.084 0,0 0.062,0.296 0.146,0.839 0.271,1.604 0.006,0.921 0.911,3.176 0.063,0.157 -0.052,0.333 -0.161,0.371 -0.172,0.046 -0.146,-0.011 -0.146,-0.011"
     id="path761" />
  <path
     style="fill:none;stroke:#231f20;stroke-width:0.565977;stroke-linecap:round;stroke-linejoin:round;stroke-miterlimit:4;stroke-dasharray:none;stroke-opacity:1"
     d="m 161.469,112.062 c -0.578,-0.448 -2.322,-3.183 -2.688,-3.833 -0.338,-0.568 -1.197,-1.35 -0.546,-2.292 0.265,-0.391 0.922,-0.766 1.234,-0.844 0.25,-0.062 0.495,0.161 0.662,0.51 0.276,0.61 0.12,0.891 0.588,2.084 0,0 0.062,0.296 0.146,0.839 0.271,1.604 0.006,0.921 0.911,3.176 0.063,0.157 -0.052,0.333 -0.161,0.371 -0.172,0.046 -0.146,-0.011 -0.146,-0.011 z"
     id="path762" />
</svg>
