<?xml version="1.0" encoding="UTF-8" standalone="no"?>
<!-- Created with Inkscape (http://www.inkscape.org/) -->

<svg
   version="1.1"
   id="svg1"
   width="349.26382"
   height="97.03035"
   viewBox="0 0 349.26381 97.030352"
   sodipodi:docname="cell.svg"
   xmlns:inkscape="http://www.inkscape.org/namespaces/inkscape"
   xmlns:sodipodi="http://sodipodi.sourceforge.net/DTD/sodipodi-0.dtd"
   xmlns="http://www.w3.org/2000/svg"
   xmlns:svg="http://www.w3.org/2000/svg">
  <sodipodi:namedview
     id="namedview1"
     pagecolor="#ffffff"
     bordercolor="#000000"
     borderopacity="0.25"
     inkscape:showpageshadow="2"
     inkscape:pageopacity="0.0"
     inkscape:pagecheckerboard="0"
     inkscape:deskcolor="#d1d1d1">
    <inkscape:page
       x="0"
       y="0"
       inkscape:label="1"
       id="page1"
       width="349.26382"
       height="97.03035"
       margin="0"
       bleed="0" />
  </sodipodi:namedview>
  <defs
     id="defs1" />
  <path
     style="fill:#231f20;fill-opacity:1;fill-rule:nonzero;stroke:none"
     d="m 197.94692,71.784966 c -0.318,-1.314 -1.302,-1.439 -2.177,-0.866 -0.255,0.167 -0.651,0.042 -0.891,0.224 -0.557,0.437 -0.713,2.172 0.708,2.672 0.094,0.036 0.751,0.527 1.303,0.817 1.068,0.569 3.484,1.188 5.796,-0.213 1.089,-0.656 0.5,-1.182 -0.031,-1.052 -1.656,0.427 -1.88,0.141 -2.36,0.088 -1.614,-0.151 -2.348,-1.67 -2.348,-1.67"
     id="path384" />
  <path
     style="fill:none;stroke:#231f20;stroke-width:0.332927;stroke-linecap:butt;stroke-linejoin:miter;stroke-miterlimit:4;stroke-dasharray:none;stroke-opacity:1"
     d="m 197.94692,71.784966 c -0.318,-1.314 -1.302,-1.439 -2.177,-0.866 -0.255,0.167 -0.651,0.042 -0.891,0.224 -0.557,0.437 -0.713,2.172 0.708,2.672 0.094,0.036 0.751,0.527 1.303,0.817 1.068,0.569 3.484,1.188 5.796,-0.213 1.089,-0.656 0.5,-1.182 -0.031,-1.052 -1.656,0.427 -1.88,0.141 -2.36,0.088 -1.614,-0.151 -2.348,-1.67 -2.348,-1.67 z"
     id="path385" />
  <path
     style="fill:#63c99d;fill-opacity:1;fill-rule:nonzero;stroke:none"
     d="m 159.08692,50.866966 c 2.344,2.079 3.074,2.276 3.948,2.574 5.475,1.844 4.47,4.5 2.188,6.265 -2.672,2.088 -3.594,2.885 -7.87,-1.729 -1.187,-1.292 -6.391,-5.621 -6.391,-5.621 -2.077,-1.295 -3.405,-3.666001 -3.213,-5.119001 0.204,-1.515 0.234,-0.9 0.677,-2.271 0.427,-1.312 2.057,-2.765 3.281,-2.588 1.172,0.167 1.812,1.697 3.031,3.797 0.964,1.651 4.349,4.692001 4.349,4.692001"
     id="path386" />
  <path
     style="fill:none;stroke:#231f20;stroke-width:0.565977;stroke-linecap:butt;stroke-linejoin:miter;stroke-miterlimit:4;stroke-dasharray:none;stroke-opacity:1"
     d="m 159.08692,50.866966 c 2.344,2.079 3.074,2.276 3.948,2.574 5.475,1.844 4.47,4.5 2.188,6.265 -2.672,2.088 -3.594,2.885 -7.87,-1.729 -1.187,-1.292 -6.391,-5.621 -6.391,-5.621 -2.077,-1.295 -3.405,-3.666001 -3.213,-5.119001 0.204,-1.515 0.234,-0.9 0.677,-2.271 0.427,-1.312 2.057,-2.765 3.281,-2.588 1.172,0.167 1.812,1.697 3.031,3.797 0.964,1.651 4.349,4.692001 4.349,4.692001 z"
     id="path387" />
  <path
     style="fill:#231f20;fill-opacity:1;fill-rule:nonzero;stroke:none"
     d="m 179.85292,65.345966 c 0.657,-2.167 1.078,-2.495 2.01,-2.276 0.626,0.141 1.246,0.062 1.631,0.131 1.271,0.229 3.328,1.15 8.464,5.27 1.161,0.932 2.807,2.23 3.52,2.708 1.125,0.756 -0.891,2.125 -1.339,1.824 -1.437,-0.938 -2.494,-1.464 -3.057,-1.729 -0.385,-0.183 -1.025,-0.604 -2.609,-1.115 -2.406,-0.781 -3.958,-0.891 -5.88,-1.775 -0.902,-0.407 -1.823,-0.147 -2.495,-1 -0.683,-0.845 -0.245,-2.038 -0.245,-2.038"
     id="path388" />
  <path
     style="fill:none;stroke:#231f20;stroke-width:0.565977;stroke-linecap:butt;stroke-linejoin:miter;stroke-miterlimit:4;stroke-dasharray:none;stroke-opacity:1"
     d="m 179.85292,65.345966 c 0.657,-2.167 1.078,-2.495 2.01,-2.276 0.626,0.141 1.246,0.062 1.631,0.131 1.271,0.229 3.328,1.15 8.464,5.27 1.161,0.932 2.807,2.23 3.52,2.708 1.125,0.756 -0.891,2.125 -1.339,1.824 -1.437,-0.938 -2.494,-1.464 -3.057,-1.729 -0.385,-0.183 -1.025,-0.604 -2.609,-1.115 -2.406,-0.781 -3.958,-0.891 -5.88,-1.775 -0.902,-0.407 -1.823,-0.147 -2.495,-1 -0.683,-0.845 -0.245,-2.038 -0.245,-2.038 z"
     id="path389" />
  <path
     style="fill:#231f20;fill-opacity:1;fill-rule:nonzero;stroke:#231f20;stroke-width:0.565977;stroke-linecap:round;stroke-linejoin:round;stroke-miterlimit:4;stroke-dasharray:none;stroke-opacity:1"
     d="m 181.12892,67.502966 c -1.255,0.662 -2.968,-0.647 -3.302,-0.714 -4.906,-1.015 -5.229,-1.219 -8.901,-2.25 -5.328,-1.5 -8.74,-3.338 -8.776,-6.688 -0.016,-2.276 0.953,-3.593 2.172,-4.093 1.349,-0.547 4.511,-0.255 5.828,2.317 l 1.469,0.886 c 1.058,0.474 1.583,0.709 2.119,0.906 0.953,0.328 1.943,0.74 3.751,1.489 3.202,1.334 6.161,3.787 6.161,3.787 0.281,0.131 0.469,0.339 0.584,0.579"
     id="path390" />
  <path
     style="fill:#63c99d;fill-opacity:1;fill-rule:nonzero;stroke:#231f20;stroke-width:0.565977;stroke-linecap:butt;stroke-linejoin:miter;stroke-miterlimit:4;stroke-dasharray:none;stroke-opacity:1"
     d="m 168.07692,56.012966 c -1.406,-2.521 -4.578,-2.693 -5.911,-2.094 -1.193,0.547 -2.115,1.901 -2.011,4.172 0.068,1.391 0.719,2.495 1.834,3.407 0.76,0.916 1.177,1.448 2.046,1.396 0.115,-0.005 0.24,0.009 0.375,0.025 0.505,0.224 1.043,0.443 1.631,0.642 z"
     id="path391" />
  <path
     style="fill:#ffffff;fill-opacity:1;fill-rule:nonzero;stroke:none"
     d="m 142.29092,40.648965 c -0.12,-0.214 -1.24,0.057 -1.401,-0.438 -0.167,-0.505 0.511,-0.926 0.76,-2.896 l 0.005,-0.021 c 0.14,-1.448 0.844,-2.651 2,-3.129 1.922,-0.798 4.35,0.681 5.432,3.281 1.084,2.615 0.396,5.364 -1.516,6.172 -1.833,0.76 -4.145,-0.563 -5.28,-2.969"
     id="path392" />
  <path
     style="fill:none;stroke:#231f20;stroke-width:0.565977;stroke-linecap:butt;stroke-linejoin:miter;stroke-miterlimit:4;stroke-dasharray:none;stroke-opacity:1"
     d="m 142.29092,40.648965 c -0.12,-0.214 -1.24,0.057 -1.401,-0.438 -0.167,-0.505 0.511,-0.926 0.76,-2.896 l 0.005,-0.021 c 0.14,-1.448 0.844,-2.651 2,-3.129 1.922,-0.798 4.35,0.681 5.432,3.281 1.084,2.615 0.396,5.364 -1.516,6.172 -1.833,0.76 -4.145,-0.563 -5.28,-2.969 z"
     id="path393" />
  <path
     style="fill:#231f20;fill-opacity:1;fill-rule:nonzero;stroke:none"
     d="m 80.785928,92.194966 c 1.353,0.037 1.729,-0.88 1.411,-1.869 -0.094,-0.292 0.13,-0.647 0.016,-0.923 -0.276,-0.65 -1.912,-1.254 -2.76,-0.02 -0.063,0.088 -0.709,0.588 -1.136,1.042 -0.828,0.885 -2.063,3.057 -1.317,5.65 0.348,1.224 1.01,0.792 1.02,0.251 0.026,-1.708 0.36,-1.855 0.537,-2.298 0.572,-1.52 2.229,-1.833 2.229,-1.833"
     id="path394" />
  <path
     style="fill:none;stroke:#231f20;stroke-width:0.332927;stroke-linecap:butt;stroke-linejoin:miter;stroke-miterlimit:4;stroke-dasharray:none;stroke-opacity:1"
     d="m 80.785928,92.194966 c 1.353,0.037 1.729,-0.88 1.411,-1.869 -0.094,-0.292 0.13,-0.647 0.016,-0.923 -0.276,-0.65 -1.912,-1.254 -2.76,-0.02 -0.063,0.088 -0.709,0.588 -1.136,1.042 -0.828,0.885 -2.063,3.057 -1.317,5.65 0.348,1.224 1.01,0.792 1.02,0.251 0.026,-1.708 0.36,-1.855 0.537,-2.298 0.572,-1.52 2.229,-1.833 2.229,-1.833 z"
     id="path395" />
  <path
     style="fill:#63c99d;fill-opacity:1;fill-rule:nonzero;stroke:none"
     d="m 105.45792,54.798966 c -0.005,3.136 0.333,3.808 0.692,4.656 2.251,5.33 -0.407,6.334 -3.24,5.798 -3.332992,-0.621 -4.540992,-0.776 -3.920992,-7.042 0.177,-1.745 -0.036,-8.510001 -0.036,-8.510001 -0.402,-2.422 0.489,-4.985 1.696992,-5.802 1.276,-0.854 0.839,-0.422 2.156,-1 1.265,-0.548 3.432,-0.292 4.115,0.744 0.65,0.99 -0.068,2.484 -0.834,4.787 -0.598,1.817 -0.629,6.369001 -0.629,6.369001"
     id="path396" />
  <path
     style="fill:none;stroke:#231f20;stroke-width:0.565977;stroke-linecap:butt;stroke-linejoin:miter;stroke-miterlimit:4;stroke-dasharray:none;stroke-opacity:1"
     d="m 105.45792,54.798966 c -0.005,3.136 0.333,3.808 0.692,4.656 2.251,5.33 -0.407,6.334 -3.24,5.798 -3.332992,-0.621 -4.540992,-0.776 -3.920992,-7.042 0.177,-1.745 -0.036,-8.510001 -0.036,-8.510001 -0.402,-2.422 0.489,-4.985 1.696992,-5.802 1.276,-0.854 0.839,-0.422 2.156,-1 1.265,-0.548 3.432,-0.292 4.115,0.744 0.65,0.99 -0.068,2.484 -0.834,4.787 -0.598,1.817 -0.629,6.369001 -0.629,6.369001 z"
     id="path397" />
  <path
     style="fill:#231f20;fill-opacity:1;fill-rule:nonzero;stroke:none"
     d="m 91.753928,76.434966 c 1.917,1.197 2.125,1.692 1.667,2.531 -0.296,0.568 -0.386,1.193 -0.552,1.542 -0.558,1.171 -1.99,2.906 -7.312,6.781 -1.204,0.876 -2.891,2.119 -3.538,2.688 -1.025,0.885 -1.811,-1.422 -1.41,-1.776 1.286,-1.136 2.072,-2.022 2.473,-2.495 0.281,-0.323 0.855,-0.828 1.767,-2.224 1.385,-2.115 1.894,-3.583 3.254,-5.208 0.631,-0.756 0.62,-1.719 1.62,-2.147 1,-0.432 2.031,0.308 2.031,0.308"
     id="path398" />
  <path
     style="fill:none;stroke:#231f20;stroke-width:0.565977;stroke-linecap:butt;stroke-linejoin:miter;stroke-miterlimit:4;stroke-dasharray:none;stroke-opacity:1"
     d="m 91.753928,76.434966 c 1.917,1.197 2.125,1.692 1.667,2.531 -0.296,0.568 -0.386,1.193 -0.552,1.542 -0.558,1.171 -1.99,2.906 -7.312,6.781 -1.204,0.876 -2.891,2.119 -3.538,2.688 -1.025,0.885 -1.811,-1.422 -1.41,-1.776 1.286,-1.136 2.072,-2.022 2.473,-2.495 0.281,-0.323 0.855,-0.828 1.767,-2.224 1.385,-2.115 1.894,-3.583 3.254,-5.208 0.631,-0.756 0.62,-1.719 1.62,-2.147 1,-0.432 2.031,0.308 2.031,0.308 z"
     id="path399" />
  <path
     style="fill:#231f20;fill-opacity:1;fill-rule:nonzero;stroke:#231f20;stroke-width:0.565977;stroke-linecap:round;stroke-linejoin:round;stroke-miterlimit:4;stroke-dasharray:none;stroke-opacity:1"
     d="m 89.337928,77.095966 c -0.308,-1.385 1.405,-2.693 1.557,-2.994 2.271,-4.475 2.547,-4.735 4.51,-8.006 2.849,-4.75 5.520992,-7.562 8.760992,-6.712 2.203,0.582 3.219,1.863 3.38,3.171 0.172,1.448 -0.943,4.422 -3.771,5.02 l -1.24,1.183 c -0.734,0.896 -1.104,1.344 -1.426,1.808 -0.568,0.832 -1.229992,1.681 -2.427992,3.228 -2.13,2.74 -5.271,4.948 -5.271,4.948 -0.197,0.24 -0.452,0.365 -0.713,0.412"
     id="path400" />
  <path
     style="fill:#63c99d;fill-opacity:1;fill-rule:nonzero;stroke:none"
     d="m 107.43092,62.361966 c -0.213,-1.297 -1.276,-2.542 -3.494,-3.036 -1.36,-0.303 -2.594,0.036 -3.771,0.869 -1.083992,0.495 -1.703992,0.76 -1.884992,1.615 -0.027,0.109 -0.074,0.229 -0.126,0.355 -0.354,0.431 -0.697,0.89 -1.046,1.405 l 6.743992,3.948 c 2.802,-0.698 3.802,-3.714 3.578,-5.156"
     id="path401" />
  <path
     style="fill:none;stroke:#231f20;stroke-width:0.565977;stroke-linecap:butt;stroke-linejoin:miter;stroke-miterlimit:4;stroke-dasharray:none;stroke-opacity:1"
     d="m 107.43092,62.361966 c -0.213,-1.297 -1.276,-2.542 -3.494,-3.036 -1.36,-0.303 -2.594,0.036 -3.771,0.869 -1.083992,0.495 -1.703992,0.76 -1.884992,1.615 -0.027,0.109 -0.074,0.229 -0.126,0.355 -0.354,0.431 -0.697,0.89 -1.046,1.405 l 6.743992,3.948 c 2.802,-0.698 3.802,-3.714 3.578,-5.156 z"
     id="path402" />
  <path
     style="fill:#ffffff;fill-opacity:1;fill-rule:nonzero;stroke:none"
     d="m 99.362928,36.715965 c -0.036,-0.239 -1.181,-0.385 -1.156,-0.906 0.027,-0.525 0.807,-0.683 1.74,-2.437 l 0.015,-0.016 c 0.640992,-1.307 1.723992,-2.182 2.974992,-2.219 2.077,-0.063 3.833,2.177 3.921,4.989 0.084,2.834 -1.536,5.167 -3.609,5.235 -1.984,0.063 -3.677992,-1.995 -3.885992,-4.646"
     id="path403" />
  <path
     style="fill:none;stroke:#231f20;stroke-width:0.565977;stroke-linecap:butt;stroke-linejoin:miter;stroke-miterlimit:4;stroke-dasharray:none;stroke-opacity:1"
     d="m 99.362928,36.715965 c -0.036,-0.239 -1.181,-0.385 -1.156,-0.906 0.027,-0.525 0.807,-0.683 1.74,-2.437 l 0.015,-0.016 c 0.640992,-1.307 1.723992,-2.182 2.974992,-2.219 2.077,-0.063 3.833,2.177 3.921,4.989 0.084,2.834 -1.536,5.167 -3.609,5.235 -1.984,0.063 -3.677992,-1.995 -3.885992,-4.646 z"
     id="path404" />
  <path
     style="fill:#ffffff;fill-opacity:1;fill-rule:nonzero;stroke:none"
     d="m 58.347928,43.074965 c 0.245,-0.005 0.521,-1.124 1.032,-1.036 0.521,0.083 0.593,0.875 2.224,2.006 l 0.016,0.016 c 1.224,0.79 1.962,1.968 1.858,3.218 -0.177,2.067 -2.604,3.547001 -5.41,3.312 -2.824,-0.245 -4.954,-2.12 -4.782,-4.188 0.167,-1.973 2.4,-3.421 5.062,-3.328"
     id="path405" />
  <path
     style="fill:none;stroke:#231f20;stroke-width:0.565977;stroke-linecap:butt;stroke-linejoin:miter;stroke-miterlimit:4;stroke-dasharray:none;stroke-opacity:1"
     d="m 58.347928,43.074965 c 0.245,-0.005 0.521,-1.124 1.032,-1.036 0.521,0.083 0.593,0.875 2.224,2.006 l 0.016,0.016 c 1.224,0.79 1.962,1.968 1.858,3.218 -0.177,2.067 -2.604,3.547001 -5.41,3.312 -2.824,-0.245 -4.954,-2.12 -4.782,-4.188 0.167,-1.973 2.4,-3.421 5.062,-3.328 z"
     id="path406" />
  <path
     style="fill:none;stroke:#231f20;stroke-width:0.399514;stroke-linecap:butt;stroke-linejoin:miter;stroke-miterlimit:4;stroke-dasharray:none;stroke-opacity:1"
     d="m 113.45292,78.407966 c 16.853,20.438 48.478,7.047 53.765,2.069"
     id="path407" />
  <path
     style="fill:#231f20;fill-opacity:1;fill-rule:nonzero;stroke:none"
     d="m 168.09292,79.648966 c -0.266,0.541 -0.531,1.286 -0.588,1.859 l -0.402,-0.928 -0.901,-0.453 c 0.579,-0.02 1.333,-0.244 1.891,-0.478"
     id="path408" />
  <path
     style="fill:#ffffff;fill-opacity:1;fill-rule:nonzero;stroke:none"
     d="m 0.332928,49.845965 c 0,0.688 0.557,1.240001 1.239,1.240001 H 347.69092 c 0.682,0 1.24,-0.552001 1.24,-1.240001 0,-0.681 -0.558,-1.239 -1.24,-1.239 H 1.571928 c -0.682,0 -1.239,0.558 -1.239,1.239"
     id="path409" />
  <path
     style="fill:none;stroke:#231f20;stroke-width:0.665856;stroke-linecap:butt;stroke-linejoin:miter;stroke-miterlimit:4;stroke-dasharray:none;stroke-opacity:1"
     d="m 0.332928,49.845965 c 0,0.688 0.557,1.240001 1.239,1.240001 H 347.69092 c 0.682,0 1.24,-0.552001 1.24,-1.240001 0,-0.681 -0.558,-1.239 -1.24,-1.239 H 1.571928 c -0.682,0 -1.239,0.558 -1.239,1.239 z"
     id="path410" />
  <path
     style="fill:#231f20;fill-opacity:1;fill-rule:nonzero;stroke:none"
     d="m 15.597928,5.1749651 c -0.557,1.234 0.146,1.938 1.183,2.02 0.307,0.027 0.541,0.366 0.848,0.371 0.704,-0.005 1.891,-1.277 1.079,-2.543 -0.058,-0.088 -0.271,-0.874 -0.526,-1.448 -0.501,-1.104 -2.026,-3.07699995 -4.704,-3.38999995 -1.27,-0.146 -1.125,0.63 -0.629,0.84899995 1.572,0.677 1.572,1.047 1.921,1.38 1.183,1.109 0.828,2.761 0.828,2.761"
     id="path411" />
  <path
     style="fill:none;stroke:#231f20;stroke-width:0.332927;stroke-linecap:butt;stroke-linejoin:miter;stroke-miterlimit:4;stroke-dasharray:none;stroke-opacity:1"
     d="m 15.597928,5.1749651 c -0.557,1.234 0.146,1.938 1.183,2.02 0.307,0.027 0.541,0.366 0.848,0.371 0.704,-0.005 1.891,-1.277 1.079,-2.543 -0.058,-0.088 -0.271,-0.874 -0.526,-1.448 -0.501,-1.104 -2.026,-3.07699995 -4.704,-3.38999995 -1.27,-0.146 -1.125,0.63 -0.629,0.84899995 1.572,0.677 1.572,1.047 1.921,1.38 1.183,1.109 0.828,2.761 0.828,2.761 z"
     id="path412" />
  <path
     style="fill:#63c99d;fill-opacity:1;fill-rule:nonzero;stroke:none"
     d="m 40.217928,42.836965 c -2.724,-1.552 -3.474,-1.595 -4.39,-1.699 -5.746,-0.672 -5.308,-3.479 -3.443,-5.677 2.183,-2.594 2.916,-3.567 8.063,0.057 1.426,1.016 7.416,4.172 7.416,4.172 2.302,0.844 4.094,2.885 4.208,4.339 0.114,1.532 -0.042,0.937 -0.192,2.365 -0.146,1.374 -1.438,3.129 -2.672,3.213 -1.188,0.083 -2.131,-1.287 -3.755,-3.084 -1.287,-1.421 -5.235,-3.686 -5.235,-3.686"
     id="path413" />
  <path
     style="fill:none;stroke:#231f20;stroke-width:0.565977;stroke-linecap:butt;stroke-linejoin:miter;stroke-miterlimit:4;stroke-dasharray:none;stroke-opacity:1"
     d="m 40.217928,42.836965 c -2.724,-1.552 -3.474,-1.595 -4.39,-1.699 -5.746,-0.672 -5.308,-3.479 -3.443,-5.677 2.183,-2.594 2.916,-3.567 8.063,0.057 1.426,1.016 7.416,4.172 7.416,4.172 2.302,0.844 4.094,2.885 4.208,4.339 0.114,1.532 -0.042,0.937 -0.192,2.365 -0.146,1.374 -1.438,3.129 -2.672,3.213 -1.188,0.083 -2.131,-1.287 -3.755,-3.084 -1.287,-1.421 -5.235,-3.686 -5.235,-3.686 z"
     id="path414" />
  <path
     style="fill:#231f20;fill-opacity:1;fill-rule:nonzero;stroke:none"
     d="m 25.931928,21.361965 c -1.855,1.313 -2.391,1.313 -2.99,0.568 -0.406,-0.5 -0.942,-0.817 -1.204,-1.104 -0.864,-0.964 -1.921,-2.953 -3.446,-9.36 -0.344,-1.448 -0.844,-3.4839999 -1.12,-4.2959999 -0.418,-1.292 2.01,-1.125 2.181,-0.62 0.552,1.625 1.073,2.687 1.349,3.244 0.194,0.3809999 0.438,1.1049999 1.375,2.4849999 1.417,2.094 2.579,3.13 3.557,5.01 0.454,0.87 1.35,1.234 1.355,2.318 0.016,1.088 -1.057,1.755 -1.057,1.755"
     id="path415" />
  <path
     style="fill:none;stroke:#231f20;stroke-width:0.565977;stroke-linecap:butt;stroke-linejoin:miter;stroke-miterlimit:4;stroke-dasharray:none;stroke-opacity:1"
     d="m 25.931928,21.361965 c -1.855,1.313 -2.391,1.313 -2.99,0.568 -0.406,-0.5 -0.942,-0.817 -1.204,-1.104 -0.864,-0.964 -1.921,-2.953 -3.446,-9.36 -0.344,-1.448 -0.844,-3.4839999 -1.12,-4.2959999 -0.418,-1.292 2.01,-1.125 2.181,-0.62 0.552,1.625 1.073,2.687 1.349,3.244 0.194,0.3809999 0.438,1.1049999 1.375,2.4849999 1.417,2.094 2.579,3.13 3.557,5.01 0.454,0.87 1.35,1.234 1.355,2.318 0.016,1.088 -1.057,1.755 -1.057,1.755 z"
     id="path416" />
  <path
     style="fill:#231f20;fill-opacity:1;fill-rule:nonzero;stroke:#231f20;stroke-width:0.565977;stroke-linecap:round;stroke-linejoin:round;stroke-miterlimit:4;stroke-dasharray:none;stroke-opacity:1"
     d="m 26.243928,18.882965 c 1.401,0.244 1.942,2.334 2.161,2.588 3.256,3.818 3.391,4.172 5.663,7.246 3.28,4.453 4.842,8.005 2.817,10.666 -1.38,1.807 -2.959,2.255 -4.229,1.896 -1.402,-0.396 -3.719,-2.568 -3.183,-5.406 l -0.615,-1.599 c -0.546,-1.032 -0.812,-1.537 -1.12,-2.021 -0.546,-0.839 -1.072,-1.776 -2.041,-3.474 -1.713,-3.026 -2.541,-6.776 -2.541,-6.776 -0.146,-0.276 -0.156,-0.552 -0.104,-0.818"
     id="path417" />
  <path
     style="fill:#63c99d;fill-opacity:1;fill-rule:nonzero;stroke:none"
     d="m 37.676928,35.382965 c -0.037,-1.193 -0.048,-1.87 -0.767,-2.365 -0.088,-0.063 -0.181,-0.151 -0.276,-0.249 -0.265,-0.49 -0.552,-0.99 -0.896,-1.511 l -6.238,4.708 c -0.438,2.855 1.958,4.937 3.374,5.281 1.282,0.308 2.844,-0.202 4.151,-2.051 0.803,-1.141 0.964,-2.411 0.652,-3.813"
     id="path418" />
  <path
     style="fill:none;stroke:#231f20;stroke-width:0.565977;stroke-linecap:butt;stroke-linejoin:miter;stroke-miterlimit:4;stroke-dasharray:none;stroke-opacity:1"
     d="m 37.676928,35.382965 c -0.037,-1.193 -0.048,-1.87 -0.767,-2.365 -0.088,-0.063 -0.181,-0.151 -0.276,-0.249 -0.265,-0.49 -0.552,-0.99 -0.896,-1.511 l -6.238,4.708 c -0.438,2.855 1.958,4.937 3.374,5.281 1.282,0.308 2.844,-0.202 4.151,-2.051 0.803,-1.141 0.964,-2.411 0.652,-3.813 z"
     id="path419" />
  <path
     style="fill:#231f20;fill-opacity:1;fill-rule:nonzero;stroke:none"
     d="m 34.051928,50.626965 c 0.353,0.532001 2.234,1.052001 3.5,2.043001 0.858,0.667 3.52,1.322 4.328,2.052 0.734,0.667 1.134,0.905 2.041,0.197 0.537,-0.421 1.297,-1.577 1.005,-1.994 -0.692,-0.97 -1.494,-1.47 -2.505,-1.829 -1.145,-0.406 -4.349,-1.229001 -4.959,-1.328001 -1.5,-0.239 -2,-0.781 -2.39,-0.885 -0.739,-0.187 -0.995,0.052 -1.219,0.495 -0.437,0.859 0.199,1.249 0.199,1.249"
     id="path420" />
  <path
     style="fill:none;stroke:#231f20;stroke-width:0.565977;stroke-linecap:butt;stroke-linejoin:miter;stroke-miterlimit:4;stroke-dasharray:none;stroke-opacity:1"
     d="m 34.051928,50.626965 c 0.353,0.532001 2.234,1.052001 3.5,2.043001 0.858,0.667 3.52,1.322 4.328,2.052 0.734,0.667 1.134,0.905 2.041,0.197 0.537,-0.421 1.297,-1.577 1.005,-1.994 -0.692,-0.97 -1.494,-1.47 -2.505,-1.829 -1.145,-0.406 -4.349,-1.229001 -4.959,-1.328001 -1.5,-0.239 -2,-0.781 -2.39,-0.885 -0.739,-0.187 -0.995,0.052 -1.219,0.495 -0.437,0.859 0.199,1.249 0.199,1.249 z"
     id="path421" />
  <path
     style="fill:#231f20;fill-opacity:1;fill-rule:nonzero;stroke:none"
     d="m 42.795928,54.877966 c 1.021,0.807 1.969,-1 2.286,-1.432 0.323,-0.443 1.38,-1.579 2.319,-2.366 0.943,-0.786001 1.781,-2.166001 3.561,-3.661001 0.943,-0.781 1.355,-2.14 0.158,-3.448 -1.183,-1.301 -2.36,-1.12 -3.35,0 -0.994,1.12 -1.448,2.595 -2.369,3.792 -0.917,1.198 -1.964,2.339 -2.833,3.188001 -0.986,0.974 -1.115,1.817 -0.939,2.26 0.443,1.115 1.167,1.667 1.167,1.667"
     id="path422" />
  <path
     style="fill:none;stroke:#231f20;stroke-width:0.565977;stroke-linecap:butt;stroke-linejoin:miter;stroke-miterlimit:4;stroke-dasharray:none;stroke-opacity:1"
     d="m 42.795928,54.877966 c 1.021,0.807 1.969,-1 2.286,-1.432 0.323,-0.443 1.38,-1.579 2.319,-2.366 0.943,-0.786001 1.781,-2.166001 3.561,-3.661001 0.943,-0.781 1.355,-2.14 0.158,-3.448 -1.183,-1.301 -2.36,-1.12 -3.35,0 -0.994,1.12 -1.448,2.595 -2.369,3.792 -0.917,1.198 -1.964,2.339 -2.833,3.188001 -0.986,0.974 -1.115,1.817 -0.939,2.26 0.443,1.115 1.167,1.667 1.167,1.667 z"
     id="path423" />
  <path
     style="fill:#231f20;fill-opacity:1;fill-rule:nonzero;stroke:none"
     d="m 84.644928,50.533965 c 0.546,0.339001 2.474,0.036 4.036,0.412001 1.053,0.255 3.75,-0.25 4.781,0.083 0.948,0.302 1.412,0.354 1.943,-0.667001 0.318,-0.604 0.532,-1.973 0.089,-2.229 -1.027,-0.599 -1.964,-0.719 -3.032,-0.63 -1.208,0.104 -4.473,0.676 -5.067,0.839 -1.464,0.405 -2.141,0.113 -2.542,0.181 -0.75,0.136 -0.88,0.459 -0.906,0.959 -0.042,0.959 0.698,1.052 0.698,1.052"
     id="path424" />
  <path
     style="fill:none;stroke:#231f20;stroke-width:0.565977;stroke-linecap:butt;stroke-linejoin:miter;stroke-miterlimit:4;stroke-dasharray:none;stroke-opacity:1"
     d="m 84.644928,50.533965 c 0.546,0.339001 2.474,0.036 4.036,0.412001 1.053,0.255 3.75,-0.25 4.781,0.083 0.948,0.302 1.412,0.354 1.943,-0.667001 0.318,-0.604 0.532,-1.973 0.089,-2.229 -1.027,-0.599 -1.964,-0.719 -3.032,-0.63 -1.208,0.104 -4.473,0.676 -5.067,0.839 -1.464,0.405 -2.141,0.113 -2.542,0.181 -0.75,0.136 -0.88,0.459 -0.906,0.959 -0.042,0.959 0.698,1.052 0.698,1.052 z"
     id="path425" />
  <path
     style="fill:#231f20;fill-opacity:1;fill-rule:nonzero;stroke:none"
     d="m 93.576928,50.429965 c 0.37,1.245001 2.188,0.312001 2.693,0.14 0.521,-0.172 2.041,-0.495 3.26,-0.588 1.223992,-0.104 2.703992,-0.745 5.020992,-0.938 1.219,-0.098 2.344,-0.969 2.12,-2.729 -0.218,-1.745 -1.281,-2.281 -2.74,-1.932 -1.458,0.344 -2.677,1.282 -4.119992,1.735 -1.442,0.448 -2.958,0.776 -4.156,0.968 -1.364,0.224 -1.958,0.839 -2.068,1.303 -0.286,1.166 -0.01,2.041 -0.01,2.041"
     id="path426" />
  <path
     style="fill:none;stroke:#231f20;stroke-width:0.565977;stroke-linecap:butt;stroke-linejoin:miter;stroke-miterlimit:4;stroke-dasharray:none;stroke-opacity:1"
     d="m 93.576928,50.429965 c 0.37,1.245001 2.188,0.312001 2.693,0.14 0.521,-0.172 2.041,-0.495 3.26,-0.588 1.223992,-0.104 2.703992,-0.745 5.020992,-0.938 1.219,-0.098 2.344,-0.969 2.12,-2.729 -0.218,-1.745 -1.281,-2.281 -2.74,-1.932 -1.458,0.344 -2.677,1.282 -4.119992,1.735 -1.442,0.448 -2.958,0.776 -4.156,0.968 -1.364,0.224 -1.958,0.839 -2.068,1.303 -0.286,1.166 -0.01,2.041 -0.01,2.041 z"
     id="path427" />
  <path
     style="fill:#231f20;fill-opacity:1;fill-rule:nonzero;stroke:none"
     d="m 132.63392,50.533965 c 0.543,0.339001 2.469,0.036 4.037,0.412001 1.052,0.255 3.75,-0.25 4.782,0.083 0.948,0.302 1.41,0.354 1.942,-0.667001 0.318,-0.604 0.526,-1.973 0.088,-2.229 -1.025,-0.599 -1.968,-0.719 -3.03,-0.63 -1.215,0.104 -4.475,0.676 -5.068,0.839 -1.464,0.405 -2.147,0.113 -2.542,0.181 -0.75,0.136 -0.881,0.459 -0.906,0.959 -0.042,0.959 0.697,1.052 0.697,1.052"
     id="path428" />
  <path
     style="fill:none;stroke:#231f20;stroke-width:0.565977;stroke-linecap:butt;stroke-linejoin:miter;stroke-miterlimit:4;stroke-dasharray:none;stroke-opacity:1"
     d="m 132.63392,50.533965 c 0.543,0.339001 2.469,0.036 4.037,0.412001 1.052,0.255 3.75,-0.25 4.782,0.083 0.948,0.302 1.41,0.354 1.942,-0.667001 0.318,-0.604 0.526,-1.973 0.088,-2.229 -1.025,-0.599 -1.968,-0.719 -3.03,-0.63 -1.215,0.104 -4.475,0.676 -5.068,0.839 -1.464,0.405 -2.147,0.113 -2.542,0.181 -0.75,0.136 -0.881,0.459 -0.906,0.959 -0.042,0.959 0.697,1.052 0.697,1.052 z"
     id="path429" />
  <path
     style="fill:#231f20;fill-opacity:1;fill-rule:nonzero;stroke:none"
     d="m 141.56692,50.429965 c 0.37,1.245001 2.187,0.312001 2.692,0.14 0.522,-0.172 2.036,-0.495 3.256,-0.588 1.223,-0.104 2.708,-0.745 5.02,-0.938 1.219,-0.098 2.344,-0.969 2.12,-2.729 -0.218,-1.745 -1.281,-2.281 -2.74,-1.932 -1.453,0.344 -2.677,1.282 -4.114,1.735 -1.443,0.448 -2.958,0.776 -4.156,0.968 -1.364,0.224 -1.959,0.839 -2.068,1.303 -0.286,1.166 -0.01,2.041 -0.01,2.041"
     id="path430" />
  <path
     style="fill:none;stroke:#231f20;stroke-width:0.565977;stroke-linecap:butt;stroke-linejoin:miter;stroke-miterlimit:4;stroke-dasharray:none;stroke-opacity:1"
     d="m 141.56692,50.429965 c 0.37,1.245001 2.187,0.312001 2.692,0.14 0.522,-0.172 2.036,-0.495 3.256,-0.588 1.223,-0.104 2.708,-0.745 5.02,-0.938 1.219,-0.098 2.344,-0.969 2.12,-2.729 -0.218,-1.745 -1.281,-2.281 -2.74,-1.932 -1.453,0.344 -2.677,1.282 -4.114,1.735 -1.443,0.448 -2.958,0.776 -4.156,0.968 -1.364,0.224 -1.959,0.839 -2.068,1.303 -0.286,1.166 -0.01,2.041 -0.01,2.041 z"
     id="path431" />
  <path
     style="fill:#63c99d;fill-opacity:1;fill-rule:nonzero;stroke:none"
     d="m 290.22792,27.038965 c 3.13,-0.193 3.782,-0.578 4.604,-0.989 5.167,-2.589 6.344,-0.005 5.995,2.853 -0.401,3.371 -0.48,4.584 -6.771,4.376 -1.756,-0.062 -8.494,0.588 -8.494,0.588 -2.386,0.563 -5.006,-0.161 -5.896,-1.312 -0.938,-1.218 -0.48,-0.808 -1.142,-2.089 -0.629,-1.224 -0.51,-3.401 0.47,-4.151 0.948,-0.718 2.494,-0.093 4.838,0.516 1.854,0.479 6.396,0.208 6.396,0.208"
     id="path432" />
  <path
     style="fill:none;stroke:#231f20;stroke-width:0.565977;stroke-linecap:butt;stroke-linejoin:miter;stroke-miterlimit:4;stroke-dasharray:none;stroke-opacity:1"
     d="m 290.22792,27.038965 c 3.13,-0.193 3.782,-0.578 4.604,-0.989 5.167,-2.589 6.344,-0.005 5.995,2.853 -0.401,3.371 -0.48,4.584 -6.771,4.376 -1.756,-0.062 -8.494,0.588 -8.494,0.588 -2.386,0.563 -5.006,-0.161 -5.896,-1.312 -0.938,-1.218 -0.48,-0.808 -1.142,-2.089 -0.629,-1.224 -0.51,-3.401 0.47,-4.151 0.948,-0.718 2.494,-0.093 4.838,0.516 1.854,0.479 6.396,0.208 6.396,0.208 z"
     id="path433" />
  <path
     style="fill:#ffffff;fill-opacity:1;fill-rule:nonzero;stroke:none"
     d="m 270.67092,30.845965 c -0.235,-0.077 -0.871,0.881 -1.324,0.625 -0.463,-0.254 -0.26,-1.02 -1.416,-2.64 l -0.011,-0.016 c -0.885,-1.156 -1.186,-2.51 -0.666,-3.656 0.865,-1.885 3.65,-2.464 6.213,-1.292 2.573,1.178 3.953,3.662 3.095,5.552 -0.824,1.808 -3.418,2.418 -5.891,1.427"
     id="path434" />
  <path
     style="fill:none;stroke:#231f20;stroke-width:0.565977;stroke-linecap:butt;stroke-linejoin:miter;stroke-miterlimit:4;stroke-dasharray:none;stroke-opacity:1"
     d="m 270.67092,30.845965 c -0.235,-0.077 -0.871,0.881 -1.324,0.625 -0.463,-0.254 -0.26,-1.02 -1.416,-2.64 l -0.011,-0.016 c -0.885,-1.156 -1.186,-2.51 -0.666,-3.656 0.865,-1.885 3.65,-2.464 6.213,-1.292 2.573,1.178 3.953,3.662 3.095,5.552 -0.824,1.808 -3.418,2.418 -5.891,1.427 z"
     id="path435" />
  <path
     style="fill:#231f20;fill-opacity:1;fill-rule:nonzero;stroke:none"
     d="m 285.14992,48.361965 c 0.286,-0.573 -0.183,-2.463 0.057,-4.052 0.161,-1.073 -0.579,-3.719 -0.333,-4.776 0.218,-0.968 0.229,-1.432 -0.834,-1.875 -0.636,-0.261 -2.016,-0.36 -2.234,0.104 -0.506,1.079 -0.547,2.026 -0.359,3.079 0.208,1.197 1.063,4.395 1.271,4.973 0.53,1.422 0.301,2.126 0.406,2.516 0.198,0.734 0.531,0.844 1.031,0.823 0.964,-0.047 0.995,-0.792 0.995,-0.792"
     id="path436" />
  <path
     style="fill:none;stroke:#231f20;stroke-width:0.565977;stroke-linecap:butt;stroke-linejoin:miter;stroke-miterlimit:4;stroke-dasharray:none;stroke-opacity:1"
     d="m 285.14992,48.361965 c 0.286,-0.573 -0.183,-2.463 0.057,-4.052 0.161,-1.073 -0.579,-3.719 -0.333,-4.776 0.218,-0.968 0.229,-1.432 -0.834,-1.875 -0.636,-0.261 -2.016,-0.36 -2.234,0.104 -0.506,1.079 -0.547,2.026 -0.359,3.079 0.208,1.197 1.063,4.395 1.271,4.973 0.53,1.422 0.301,2.126 0.406,2.516 0.198,0.734 0.531,0.844 1.031,0.823 0.964,-0.047 0.995,-0.792 0.995,-0.792 z"
     id="path437" />
  <path
     style="fill:#231f20;fill-opacity:1;fill-rule:nonzero;stroke:none"
     d="m 284.22292,39.350965 c 1.271,-0.271 0.484,-2.15 0.353,-2.672 -0.134,-0.53 -0.333,-2.072 -0.338,-3.296 -0.004,-1.229 -0.531,-2.75 -0.542,-5.078 -0.005,-1.224 -0.786,-2.411 -2.557,-2.328 -1.755,0.088 -2.369,1.104 -2.14,2.584 0.229,1.478 1.072,2.77 1.405,4.244 0.339,1.469 0.543,3.005 0.647,4.218 0.12,1.375 0.687,2.016 1.14,2.156 1.136,0.376 2.032,0.172 2.032,0.172"
     id="path438" />
  <path
     style="fill:none;stroke:#231f20;stroke-width:0.565977;stroke-linecap:butt;stroke-linejoin:miter;stroke-miterlimit:4;stroke-dasharray:none;stroke-opacity:1"
     d="m 284.22292,39.350965 c 1.271,-0.271 0.484,-2.15 0.353,-2.672 -0.134,-0.53 -0.333,-2.072 -0.338,-3.296 -0.004,-1.229 -0.531,-2.75 -0.542,-5.078 -0.005,-1.224 -0.786,-2.411 -2.557,-2.328 -1.755,0.088 -2.369,1.104 -2.14,2.584 0.229,1.478 1.072,2.77 1.405,4.244 0.339,1.469 0.543,3.005 0.647,4.218 0.12,1.375 0.687,2.016 1.14,2.156 1.136,0.376 2.032,0.172 2.032,0.172 z"
     id="path439" />
  <path
     style="fill:#231f20;fill-opacity:1;fill-rule:nonzero;stroke:none"
     d="m 315.98292,28.481965 c -0.359,-2.235 -0.125,-2.719 0.812,-2.927 0.625,-0.146 1.147,-0.49 1.521,-0.594 1.246,-0.354 3.5,-0.422 9.918,1.032 1.452,0.333 3.5,0.781 4.353,0.896 1.339,0.192 0.125,2.296 -0.405,2.229 -1.704,-0.219 -2.887,-0.224 -3.511,-0.219 -0.428,0 -1.183,-0.1 -2.839,0.14 -2.5,0.35 -3.942,0.932 -6.057,0.974 -0.989,0.026 -1.708,0.666 -2.677,0.198 -0.99,-0.469 -1.115,-1.729 -1.115,-1.729"
     id="path440" />
  <path
     style="fill:none;stroke:#231f20;stroke-width:0.565977;stroke-linecap:butt;stroke-linejoin:miter;stroke-miterlimit:4;stroke-dasharray:none;stroke-opacity:1"
     d="m 315.98292,28.481965 c -0.359,-2.235 -0.125,-2.719 0.812,-2.927 0.625,-0.146 1.147,-0.49 1.521,-0.594 1.246,-0.354 3.5,-0.422 9.918,1.032 1.452,0.333 3.5,0.781 4.353,0.896 1.339,0.192 0.125,2.296 -0.405,2.229 -1.704,-0.219 -2.887,-0.224 -3.511,-0.219 -0.428,0 -1.183,-0.1 -2.839,0.14 -2.5,0.35 -3.942,0.932 -6.057,0.974 -0.989,0.026 -1.708,0.666 -2.677,0.198 -0.99,-0.469 -1.115,-1.729 -1.115,-1.729 z"
     id="path441" />
  <path
     style="fill:#231f20;fill-opacity:1;fill-rule:nonzero;stroke:#231f20;stroke-width:0.565977;stroke-linecap:round;stroke-linejoin:round;stroke-miterlimit:4;stroke-dasharray:none;stroke-opacity:1"
     d="m 318.07092,29.861965 c -0.837,1.147 -2.952,0.713 -3.276,0.803 -4.859,1.234 -5.239,1.197 -9,1.88 -5.443,0.978 -9.317,0.817 -10.812,-2.178 -1.016,-2.036 -0.719,-3.645 0.161,-4.63 0.975,-1.083 3.948,-2.208 6.256,-0.463 l 1.703,0.151 c 1.167,-0.042 1.735,-0.058 2.307,-0.12 0.994,-0.12 2.068,-0.183 4.021,-0.296 3.473,-0.21 7.203,0.708 7.203,0.708 0.313,-0.011 0.568,0.093 0.781,0.265"
     id="path442" />
  <path
     style="fill:#63c99d;fill-opacity:1;fill-rule:nonzero;stroke:none"
     d="m 302.73792,32.970965 -1.474,-7.677 c -2.369,-1.656 -5.297,-0.416 -6.229,0.704 -0.844,1.011 -1.073,2.64 0.011,4.629 0.708,1.292 1.874,2.006 3.396,2.314 0.948,0.426 1.536,0.656 2.238,0.265 0.063,-0.036 0.136,-0.063 0.21,-0.093 0.588,-0.022 1.197,-0.058 1.848,-0.142"
     id="path443" />
  <path
     style="fill:none;stroke:#231f20;stroke-width:0.565977;stroke-linecap:butt;stroke-linejoin:miter;stroke-miterlimit:4;stroke-dasharray:none;stroke-opacity:1"
     d="m 302.73792,32.970965 -1.474,-7.677 c -2.369,-1.656 -5.297,-0.416 -6.229,0.704 -0.844,1.011 -1.073,2.64 0.011,4.629 0.708,1.292 1.874,2.006 3.396,2.314 0.948,0.426 1.536,0.656 2.238,0.265 0.063,-0.036 0.136,-0.063 0.21,-0.093 0.588,-0.022 1.197,-0.058 1.848,-0.142 z"
     id="path444" />
  <path
     style="fill:#231f20;fill-opacity:1;fill-rule:nonzero;stroke:none"
     d="m 334.97192,26.757965 c -0.864,-1.036 -1.806,-0.713 -2.338,0.172 -0.156,0.265 -0.572,0.328 -0.703,0.599 -0.307,0.636 0.312,2.265 1.803,2.093 0.109,-0.015 0.905,0.141 1.53,0.163 1.214,0.041 3.662,-0.459 5.12,-2.724 0.692,-1.074 -0.068,-1.282 -0.48,-0.939 -1.306,1.111 -1.634,0.948 -2.088,1.115 -1.521,0.568 -2.844,-0.479 -2.844,-0.479"
     id="path445" />
  <path
     style="fill:none;stroke:#231f20;stroke-width:0.332927;stroke-linecap:butt;stroke-linejoin:miter;stroke-miterlimit:4;stroke-dasharray:none;stroke-opacity:1"
     d="m 334.97192,26.757965 c -0.864,-1.036 -1.806,-0.713 -2.338,0.172 -0.156,0.265 -0.572,0.328 -0.703,0.599 -0.307,0.636 0.312,2.265 1.803,2.093 0.109,-0.015 0.905,0.141 1.53,0.163 1.214,0.041 3.662,-0.459 5.12,-2.724 0.692,-1.074 -0.068,-1.282 -0.48,-0.939 -1.306,1.111 -1.634,0.948 -2.088,1.115 -1.521,0.568 -2.844,-0.479 -2.844,-0.479 z"
     id="path446" />
  <path
     style="fill:#231f20;fill-opacity:1;fill-rule:nonzero;stroke:none"
     d="m 281.45792,49.898965 c 0,1.176001 0.957,2.135001 2.14,2.135001 1.177,0 2.13,-0.959 2.13,-2.135001 0,-1.177 -0.953,-2.136 -2.13,-2.136 -1.183,0 -2.14,0.959 -2.14,2.136"
     id="path447" />
  <path
     style="fill:#63c99d;fill-opacity:1;fill-rule:nonzero;stroke:none"
     d="m 213.35792,29.090965 c 3.13,-0.192 3.781,-0.578 4.604,-0.994 5.172,-2.588 6.344,-0.006 5.996,2.854 -0.402,3.37 -0.486,4.588 -6.772,4.38 -1.755,-0.063 -8.495,0.588 -8.495,0.588 -2.385,0.563 -5.005,-0.161 -5.896,-1.317 -0.937,-1.219 -0.478,-0.803 -1.14,-2.084 -0.63,-1.224 -0.51,-3.405 0.47,-4.156 0.952,-0.719 2.494,-0.093 4.837,0.516 1.855,0.479 6.396,0.213 6.396,0.213"
     id="path448" />
  <path
     style="fill:none;stroke:#231f20;stroke-width:0.565977;stroke-linecap:butt;stroke-linejoin:miter;stroke-miterlimit:4;stroke-dasharray:none;stroke-opacity:1"
     d="m 213.35792,29.090965 c 3.13,-0.192 3.781,-0.578 4.604,-0.994 5.172,-2.588 6.344,-0.006 5.996,2.854 -0.402,3.37 -0.486,4.588 -6.772,4.38 -1.755,-0.063 -8.495,0.588 -8.495,0.588 -2.385,0.563 -5.005,-0.161 -5.896,-1.317 -0.937,-1.219 -0.478,-0.803 -1.14,-2.084 -0.63,-1.224 -0.51,-3.405 0.47,-4.156 0.952,-0.719 2.494,-0.093 4.837,0.516 1.855,0.479 6.396,0.213 6.396,0.213 z"
     id="path449" />
  <path
     style="fill:#ffffff;fill-opacity:1;fill-rule:nonzero;stroke:none"
     d="m 193.80092,32.893965 c -0.234,-0.079 -0.87,0.885 -1.323,0.629 -0.464,-0.26 -0.26,-1.025 -1.416,-2.64 l -0.011,-0.021 c -0.885,-1.151 -1.188,-2.511 -0.666,-3.651 0.864,-1.89 3.65,-2.469 6.213,-1.297 2.573,1.183 3.953,3.667 3.088,5.552 -0.817,1.808 -3.411,2.417 -5.885,1.428"
     id="path450" />
  <path
     style="fill:none;stroke:#231f20;stroke-width:0.565977;stroke-linecap:butt;stroke-linejoin:miter;stroke-miterlimit:4;stroke-dasharray:none;stroke-opacity:1"
     d="m 193.80092,32.893965 c -0.234,-0.079 -0.87,0.885 -1.323,0.629 -0.464,-0.26 -0.26,-1.025 -1.416,-2.64 l -0.011,-0.021 c -0.885,-1.151 -1.188,-2.511 -0.666,-3.651 0.864,-1.89 3.65,-2.469 6.213,-1.297 2.573,1.183 3.953,3.667 3.088,5.552 -0.817,1.808 -3.411,2.417 -5.885,1.428 z"
     id="path451" />
  <path
     style="fill:#231f20;fill-opacity:1;fill-rule:nonzero;stroke:none"
     d="m 200.96692,49.517965 c 0.604,-0.229 1.532,-1.943 2.782,-2.952 0.844,-0.683 2.078,-3.136 2.974,-3.751 0.812,-0.568 1.135,-0.906 0.646,-1.948 -0.287,-0.62 -1.244,-1.625 -1.714,-1.426 -1.104,0.453 -1.77,1.125 -2.344,2.025 -0.656,1.026 -2.182,3.964 -2.416,4.532 -0.568,1.411 -1.209,1.776 -1.396,2.135 -0.349,0.677 -0.177,0.974 0.208,1.302 0.74,0.609 1.26,0.083 1.26,0.083"
     id="path452" />
  <path
     style="fill:none;stroke:#231f20;stroke-width:0.565977;stroke-linecap:butt;stroke-linejoin:miter;stroke-miterlimit:4;stroke-dasharray:none;stroke-opacity:1"
     d="m 200.96692,49.517965 c 0.604,-0.229 1.532,-1.943 2.782,-2.952 0.844,-0.683 2.078,-3.136 2.974,-3.751 0.812,-0.568 1.135,-0.906 0.646,-1.948 -0.287,-0.62 -1.244,-1.625 -1.714,-1.426 -1.104,0.453 -1.77,1.125 -2.344,2.025 -0.656,1.026 -2.182,3.964 -2.416,4.532 -0.568,1.411 -1.209,1.776 -1.396,2.135 -0.349,0.677 -0.177,0.974 0.208,1.302 0.74,0.609 1.26,0.083 1.26,0.083 z"
     id="path453" />
  <path
     style="fill:#231f20;fill-opacity:1;fill-rule:nonzero;stroke:none"
     d="m 207.35292,41.397965 c 1.272,-0.271 0.48,-2.151 0.354,-2.671 -0.136,-0.531 -0.333,-2.073 -0.338,-3.292 -0.006,-1.229 -0.531,-2.756 -0.542,-5.084 -0.005,-1.224 -0.786,-2.405 -2.557,-2.322 -1.755,0.084 -2.369,1.098 -2.141,2.578 0.229,1.479 1.073,2.771 1.406,4.244 0.339,1.475 0.542,3.006 0.647,4.219 0.119,1.376 0.687,2.016 1.14,2.163 1.136,0.374 2.031,0.165 2.031,0.165"
     id="path454" />
  <path
     style="fill:none;stroke:#231f20;stroke-width:0.565977;stroke-linecap:butt;stroke-linejoin:miter;stroke-miterlimit:4;stroke-dasharray:none;stroke-opacity:1"
     d="m 207.35292,41.397965 c 1.272,-0.271 0.48,-2.151 0.354,-2.671 -0.136,-0.531 -0.333,-2.073 -0.338,-3.292 -0.006,-1.229 -0.531,-2.756 -0.542,-5.084 -0.005,-1.224 -0.786,-2.405 -2.557,-2.322 -1.755,0.084 -2.369,1.098 -2.141,2.578 0.229,1.479 1.073,2.771 1.406,4.244 0.339,1.475 0.542,3.006 0.647,4.219 0.119,1.376 0.687,2.016 1.14,2.163 1.136,0.374 2.031,0.165 2.031,0.165 z"
     id="path455" />
  <path
     style="fill:#231f20;fill-opacity:1;fill-rule:nonzero;stroke:none"
     d="m 238.43592,25.945965 c -0.937,-2.063 -0.844,-2.589 0,-3.043 0.568,-0.306 0.974,-0.776 1.312,-0.973 1.11,-0.677 3.256,-1.344 9.834,-1.656 1.489,-0.063 3.584,-0.177 4.432,-0.292 1.338,-0.172 0.734,2.177 0.198,2.255 -1.693,0.24 -2.838,0.552 -3.432,0.724 -0.412,0.114 -1.166,0.224 -2.698,0.89 -2.318,1.006 -3.558,1.954 -5.583,2.558 -0.943,0.286 -1.469,1.1 -2.532,0.901 -1.072,-0.183 -1.531,-1.364 -1.531,-1.364"
     id="path456" />
  <path
     style="fill:none;stroke:#231f20;stroke-width:0.565977;stroke-linecap:butt;stroke-linejoin:miter;stroke-miterlimit:4;stroke-dasharray:none;stroke-opacity:1"
     d="m 238.43592,25.945965 c -0.937,-2.063 -0.844,-2.589 0,-3.043 0.568,-0.306 0.974,-0.776 1.312,-0.973 1.11,-0.677 3.256,-1.344 9.834,-1.656 1.489,-0.063 3.584,-0.177 4.432,-0.292 1.338,-0.172 0.734,2.177 0.198,2.255 -1.693,0.24 -2.838,0.552 -3.432,0.724 -0.412,0.114 -1.166,0.224 -2.698,0.89 -2.318,1.006 -3.558,1.954 -5.583,2.558 -0.943,0.286 -1.469,1.1 -2.532,0.901 -1.072,-0.183 -1.531,-1.364 -1.531,-1.364 z"
     id="path457" />
  <path
     style="fill:#231f20;fill-opacity:1;fill-rule:nonzero;stroke:#231f20;stroke-width:0.565977;stroke-linecap:round;stroke-linejoin:round;stroke-miterlimit:4;stroke-dasharray:none;stroke-opacity:1"
     d="m 240.81592,26.716965 c -0.505,1.328 -2.65,1.473 -2.942,1.65 -4.355,2.479 -4.73,2.547 -8.172,4.203 -4.984,2.401 -8.766,3.276 -11,0.787 -1.526,-1.687 -1.662,-3.318 -1.083,-4.506 0.656,-1.301 3.219,-3.176 5.905,-2.114 l 1.683,-0.307 c 1.115,-0.349 1.661,-0.516 2.197,-0.729 0.923,-0.38 1.943,-0.73 3.798,-1.359 3.286,-1.125 7.125,-1.24 7.125,-1.24 0.297,-0.093 0.573,-0.057 0.823,0.047"
     id="path458" />
  <path
     style="fill:#63c99d;fill-opacity:1;fill-rule:nonzero;stroke:none"
     d="m 226.86792,33.798965 -3.468,-7.005 c -2.72,-0.963 -5.214,1.011 -5.813,2.339 -0.541,1.204 -0.333,2.828 1.245,4.458 1.026,1.058 2.339,1.432 3.891,1.323 1.025,0.161 1.651,0.224 2.224,-0.339 0.052,-0.052 0.115,-0.098 0.177,-0.145 0.562,-0.177 1.135,-0.38 1.744,-0.631"
     id="path459" />
  <path
     style="fill:none;stroke:#231f20;stroke-width:0.565977;stroke-linecap:butt;stroke-linejoin:miter;stroke-miterlimit:4;stroke-dasharray:none;stroke-opacity:1"
     d="m 226.86792,33.798965 -3.468,-7.005 c -2.72,-0.963 -5.214,1.011 -5.813,2.339 -0.541,1.204 -0.333,2.828 1.245,4.458 1.026,1.058 2.339,1.432 3.891,1.323 1.025,0.161 1.651,0.224 2.224,-0.339 0.052,-0.052 0.115,-0.098 0.177,-0.145 0.562,-0.177 1.135,-0.38 1.744,-0.631 z"
     id="path460" />
  <path
     style="fill:#231f20;fill-opacity:1;fill-rule:nonzero;stroke:none"
     d="m 256.27992,19.221965 c -1.109,-0.771 -1.933,-0.209 -2.204,0.787 -0.082,0.296 -0.462,0.468 -0.52,0.765 -0.13,0.692 0.902,2.099 2.292,1.536 0.099,-0.041 0.916,-0.109 1.515,-0.249 1.183,-0.287 3.407,-1.423 4.213,-3.991 0.382,-1.219 -0.405,-1.224 -0.713,-0.776 -0.963,1.412 -1.328,1.349 -1.719,1.625 -1.312,0.954 -2.864,0.303 -2.864,0.303"
     id="path461" />
  <path
     style="fill:none;stroke:#231f20;stroke-width:0.332927;stroke-linecap:butt;stroke-linejoin:miter;stroke-miterlimit:4;stroke-dasharray:none;stroke-opacity:1"
     d="m 256.27992,19.221965 c -1.109,-0.771 -1.933,-0.209 -2.204,0.787 -0.082,0.296 -0.462,0.468 -0.52,0.765 -0.13,0.692 0.902,2.099 2.292,1.536 0.099,-0.041 0.916,-0.109 1.515,-0.249 1.183,-0.287 3.407,-1.423 4.213,-3.991 0.382,-1.219 -0.405,-1.224 -0.713,-0.776 -0.963,1.412 -1.328,1.349 -1.719,1.625 -1.312,0.954 -2.864,0.303 -2.864,0.303 z"
     id="path462" />
  <path
     style="fill:#231f20;fill-opacity:1;fill-rule:nonzero;stroke:none"
     d="m 197.21292,48.164965 c -0.798,0.869 -0.735,2.218 0.134,3.014001 0.871,0.792 2.22,0.729 3.016,-0.135 0.792,-0.869001 0.735,-2.218001 -0.14,-3.015001 -0.87,-0.792 -2.218,-0.735 -3.01,0.136"
     id="path463" />
  <path
     style="fill:#231f20;fill-opacity:1;fill-rule:nonzero;stroke:none"
     d="m 33.952928,47.028965 c -1.136,-0.307 -2.308,0.369 -2.615,1.505 -0.308,1.136 0.364,2.308001 1.5,2.615001 1.14,0.306 2.312,-0.364 2.62,-1.500001 0.307,-1.136 -0.365,-2.307 -1.505,-2.62"
     id="path464" />
  <path
     style="fill:#231f20;fill-opacity:1;fill-rule:nonzero;stroke:none"
     d="m 83.070928,47.298965 c -1.166,0.188 -1.952,1.287 -1.765,2.448 0.193,1.161001 1.292,1.954001 2.453,1.761001 1.162,-0.188 1.954,-1.281001 1.76,-2.447001 -0.186,-1.162 -1.285,-1.948 -2.448,-1.762"
     id="path465" />
  <path
     style="fill:#231f20;fill-opacity:1;fill-rule:nonzero;stroke:none"
     d="m 131.06192,47.298965 c -1.167,0.188 -1.953,1.287 -1.767,2.448 0.194,1.161001 1.292,1.954001 2.454,1.761001 1.161,-0.188 1.953,-1.281001 1.761,-2.447001 -0.188,-1.162 -1.287,-1.948 -2.448,-1.762"
     id="path466" />
</svg>
