<?xml version="1.0" encoding="UTF-8" standalone="no"?>
<!-- Created with Inkscape (http://www.inkscape.org/) -->

<svg
   version="1.1"
   id="svg1"
   width="564.73749"
   height="100.4444"
   viewBox="0 0 564.73746 100.4444"
   sodipodi:docname="cell.svg"
   xmlns:inkscape="http://www.inkscape.org/namespaces/inkscape"
   xmlns:sodipodi="http://sodipodi.sourceforge.net/DTD/sodipodi-0.dtd"
   xmlns="http://www.w3.org/2000/svg"
   xmlns:svg="http://www.w3.org/2000/svg">
  <sodipodi:namedview
     id="namedview1"
     pagecolor="#ffffff"
     bordercolor="#000000"
     borderopacity="0.25"
     inkscape:showpageshadow="2"
     inkscape:pageopacity="0.0"
     inkscape:pagecheckerboard="0"
     inkscape:deskcolor="#d1d1d1">
    <inkscape:page
       x="0"
       y="0"
       inkscape:label="1"
       id="page1"
       width="564.73749"
       height="100.4444"
       margin="0"
       bleed="0" />
  </sodipodi:namedview>
  <defs
     id="defs1" />
  <path
     style="fill:none;stroke:#231f20;stroke-width:0.399514;stroke-linecap:butt;stroke-linejoin:miter;stroke-miterlimit:4;stroke-dasharray:none;stroke-opacity:1"
     d="m 503.48956,46.021302 c 0,26.489 32.911,36.286 40.165,35.806"
     id="path256" />
  <path
     style="fill:#231f20;fill-opacity:1;fill-rule:nonzero;stroke:none"
     d="m 544.85456,81.745302 c -0.55,0.249 -1.23,0.65 -1.642,1.062 l 0.281,-0.969 -0.405,-0.927 c 0.457,0.348 1.176,0.662 1.766,0.834"
     id="path257" />
  <path
     style="fill:#63c99d;fill-opacity:1;fill-rule:nonzero;stroke:none"
     d="m 99.515563,56.270302 c 1.083997,2.932 1.641997,3.448 2.275997,4.12 3.97,4.208 1.828,6.074 -1.01,6.563 -3.343997,0.588 -4.530997,0.859 -6.139997,-5.224 -0.448,-1.697 -3.011,-7.964 -3.011,-7.964 -1.224,-2.124 -1.287,-4.848 -0.437,-6.025 0.901,-1.251 0.63,-0.694 1.666,-1.699 0.99,-0.957 3.115,-1.468 4.12,-0.744 0.963,0.708 0.802,2.364 0.896,4.787 0.072,1.91 1.64,6.186 1.64,6.186"
     id="path258" />
  <path
     style="fill:none;stroke:#231f20;stroke-width:0.565977;stroke-linecap:butt;stroke-linejoin:miter;stroke-miterlimit:4;stroke-dasharray:none;stroke-opacity:1"
     d="m 99.515563,56.270302 c 1.083997,2.932 1.641997,3.448 2.275997,4.12 3.97,4.208 1.828,6.074 -1.01,6.563 -3.343997,0.588 -4.530997,0.859 -6.139997,-5.224 -0.448,-1.697 -3.011,-7.964 -3.011,-7.964 -1.224,-2.124 -1.287,-4.848 -0.437,-6.025 0.901,-1.251 0.63,-0.694 1.666,-1.699 0.99,-0.957 3.115,-1.468 4.12,-0.744 0.963,0.708 0.802,2.364 0.896,4.787 0.072,1.91 1.64,6.186 1.64,6.186 z"
     id="path259" />
  <path
     style="fill:#231f20;fill-opacity:1;fill-rule:nonzero;stroke:none"
     d="m 110.07356,79.937302 c 1.745,-1.443 2.276,-1.484 2.937,-0.781 0.443,0.469 1,0.745 1.281,1.015 0.938,0.896 2.131,2.803 4.12,9.079 0.448,1.421 1.094,3.416 1.427,4.208 0.516,1.249 -1.916,1.265 -2.129,0.771 -0.672,-1.574 -1.262,-2.604 -1.579,-3.131 -0.224,-0.369 -0.521,-1.072 -1.557,-2.375 -1.563,-1.989 -2.798,-2.942 -3.912,-4.745 -0.515,-0.837 -1.432,-1.129 -1.515,-2.213 -0.104,-1.083 0.927,-1.828 0.927,-1.828"
     id="path260" />
  <path
     style="fill:none;stroke:#231f20;stroke-width:0.565977;stroke-linecap:butt;stroke-linejoin:miter;stroke-miterlimit:4;stroke-dasharray:none;stroke-opacity:1"
     d="m 110.07356,79.937302 c 1.745,-1.443 2.276,-1.484 2.937,-0.781 0.443,0.469 1,0.745 1.281,1.015 0.938,0.896 2.131,2.803 4.12,9.079 0.448,1.421 1.094,3.416 1.427,4.208 0.516,1.249 -1.916,1.265 -2.129,0.771 -0.672,-1.574 -1.262,-2.604 -1.579,-3.131 -0.224,-0.369 -0.521,-1.072 -1.557,-2.375 -1.563,-1.989 -2.798,-2.942 -3.912,-4.745 -0.515,-0.837 -1.432,-1.129 -1.515,-2.213 -0.104,-1.083 0.927,-1.828 0.927,-1.828 z"
     id="path261" />
  <path
     style="fill:#231f20;fill-opacity:1;fill-rule:nonzero;stroke:#231f20;stroke-width:0.565977;stroke-linecap:round;stroke-linejoin:round;stroke-miterlimit:4;stroke-dasharray:none;stroke-opacity:1"
     d="m 109.93756,82.437302 c -1.411,-0.151 -2.104,-2.187 -2.354,-2.422 -3.516,-3.573 -3.677,-3.922 -6.161,-6.817 -3.598997,-4.198 -5.416997,-7.63 -3.588997,-10.433 1.245,-1.905 2.780997,-2.463 4.072997,-2.197 1.427,0.292 3.901,2.292 3.568,5.161 l 0.729,1.547 c 0.624,0.984 0.922,1.474 1.266,1.937 0.609,0.792 1.208,1.688 2.292,3.313 1.926,2.895 3.03,6.572 3.03,6.572 0.167,0.262 0.203,0.543 0.167,0.808"
     id="path262" />
  <path
     style="fill:#63c99d;fill-opacity:1;fill-rule:nonzero;stroke:#231f20;stroke-width:0.565977;stroke-linecap:butt;stroke-linejoin:miter;stroke-miterlimit:4;stroke-dasharray:none;stroke-opacity:1"
     d="m 105.38556,65.620302 c 0.229,-2.875 -2.318,-4.776 -3.755,-5.016 -1.303,-0.214 -2.816997,0.406 -3.988997,2.349 -0.762,1.271 -0.787,2.636 -0.276,4.109 0.109,1.026 0.208,1.64 0.901,2.052 0.056,0.036 0.124,0.088 0.187,0.142 0.313,0.494 0.656,0.994 1.052,1.514 z"
     id="path263" />
  <path
     style="fill:#231f20;fill-opacity:1;fill-rule:nonzero;stroke:none"
     d="m 121.15156,95.447302 c 0.463,-1.27 -0.292,-1.916 -1.324,-1.921 -0.312,-0.011 -0.572,-0.333 -0.874,-0.313 -0.703,0.052 -1.792,1.417 -0.896,2.614 0.068,0.084 0.338,0.855 0.63,1.407 0.583,1.063 2.25,2.915998 4.943,3.040998 1.271,0.052 1.073,-0.707998 0.568,-0.895998 -1.62,-0.562 -1.652,-0.926 -2.021,-1.238 -1.255,-1.022 -1.026,-2.694 -1.026,-2.694"
     id="path264" />
  <path
     style="fill:none;stroke:#231f20;stroke-width:0.332927;stroke-linecap:butt;stroke-linejoin:miter;stroke-miterlimit:4;stroke-dasharray:none;stroke-opacity:1"
     d="m 121.15156,95.447302 c 0.463,-1.27 -0.292,-1.916 -1.324,-1.921 -0.312,-0.011 -0.572,-0.333 -0.874,-0.313 -0.703,0.052 -1.792,1.417 -0.896,2.614 0.068,0.084 0.338,0.855 0.63,1.407 0.583,1.063 2.25,2.915998 4.943,3.040998 1.271,0.052 1.073,-0.707998 0.568,-0.895998 -1.62,-0.562 -1.652,-0.926 -2.021,-1.238 -1.255,-1.022 -1.026,-2.694 -1.026,-2.694 z"
     id="path265" />
  <path
     style="fill:#ffffff;fill-opacity:1;fill-rule:nonzero;stroke:none"
     d="m 89.266563,38.984302 c -0.084,-0.23 -1.224,-0.151 -1.303,-0.667 -0.078,-0.525 0.651,-0.823 1.235,-2.728 l 0.005,-0.021 c 0.375,-1.407 1.271,-2.475 2.495,-2.756 2.025,-0.463 4.177,1.39 4.812,4.141 0.631,2.76 -0.5,5.364 -2.521,5.833 -1.938,0.448 -4,-1.234 -4.723,-3.802"
     id="path266" />
  <path
     style="fill:none;stroke:#231f20;stroke-width:0.565977;stroke-linecap:butt;stroke-linejoin:miter;stroke-miterlimit:4;stroke-dasharray:none;stroke-opacity:1"
     d="m 89.266563,38.984302 c -0.084,-0.23 -1.224,-0.151 -1.303,-0.667 -0.078,-0.525 0.651,-0.823 1.235,-2.728 l 0.005,-0.021 c 0.375,-1.407 1.271,-2.475 2.495,-2.756 2.025,-0.463 4.177,1.39 4.812,4.141 0.631,2.76 -0.5,5.364 -2.521,5.833 -1.938,0.448 -4,-1.234 -4.723,-3.802 z"
     id="path267" />
  <path
     style="fill:none;stroke:#231f20;stroke-width:0.399514;stroke-linecap:butt;stroke-linejoin:miter;stroke-miterlimit:4;stroke-dasharray:none;stroke-opacity:1"
     d="m 38.453563,84.713302 c 16.854,20.431998 48.48,7.041 53.765,2.062"
     id="path268" />
  <path
     style="fill:#231f20;fill-opacity:1;fill-rule:nonzero;stroke:none"
     d="m 93.094563,85.947302 c -0.267,0.542 -0.532,1.287 -0.589,1.86 l -0.402,-0.928 -0.9,-0.453 c 0.578,-0.02 1.334,-0.244 1.891,-0.479"
     id="path269" />
  <path
     style="fill:#231f20;fill-opacity:1;fill-rule:nonzero;stroke:none"
     d="m 4.8655649,31.781302 c -0.021,1.355 0.901,1.719 1.885,1.391 0.296,-0.094 0.646,0.125 0.927,0.005 0.645,-0.281 1.235,-1.921 -0.011,-2.76 -0.088,-0.057 -0.598,-0.699 -1.057,-1.125 -0.891,-0.818 -3.072,-2.027 -5.66100003,-1.256 -1.219,0.365 -0.782,1.016 -0.239,1.021 1.71300003,0.011 1.85900003,0.344 2.30700003,0.516 1.521,0.557 1.849,2.208 1.849,2.208"
     id="path270" />
  <path
     style="fill:none;stroke:#231f20;stroke-width:0.332927;stroke-linecap:butt;stroke-linejoin:miter;stroke-miterlimit:4;stroke-dasharray:none;stroke-opacity:1"
     d="m 4.8655649,31.781302 c -0.021,1.355 0.901,1.719 1.885,1.391 0.296,-0.094 0.646,0.125 0.927,0.005 0.645,-0.281 1.235,-1.921 -0.011,-2.76 -0.088,-0.057 -0.598,-0.699 -1.057,-1.125 -0.891,-0.818 -3.072,-2.027 -5.66100003,-1.256 -1.219,0.365 -0.782,1.016 -0.239,1.021 1.71300003,0.011 1.85900003,0.344 2.30700003,0.516 1.521,0.557 1.849,2.208 1.849,2.208 z"
     id="path271" />
  <path
     style="fill:#63c99d;fill-opacity:1;fill-rule:nonzero;stroke:none"
     d="m 42.849563,53.401302 c -2.974,0.989 -3.511,1.525 -4.203,2.135 -4.333,3.829 -6.136,1.62 -6.521,-1.234 -0.473998,-3.36 -0.702998,-4.552 5.432,-5.958 1.709,-0.38 8.057,-2.73 8.057,-2.73 2.167,-1.15 4.885,-1.12 6.041,-0.229 1.215,0.943 0.667,0.656 1.631,1.724 0.927,1.027 1.365,3.161 0.604,4.141 -0.729,0.932 -2.38,0.719 -4.801,0.728 -1.918,0.006 -6.24,1.423 -6.24,1.423"
     id="path272" />
  <path
     style="fill:none;stroke:#231f20;stroke-width:0.565977;stroke-linecap:butt;stroke-linejoin:miter;stroke-miterlimit:4;stroke-dasharray:none;stroke-opacity:1"
     d="m 42.849563,53.401302 c -2.974,0.989 -3.511,1.525 -4.203,2.135 -4.333,3.829 -6.136,1.62 -6.521,-1.234 -0.473998,-3.36 -0.702998,-4.552 5.432,-5.958 1.709,-0.38 8.057,-2.73 8.057,-2.73 2.167,-1.15 4.885,-1.12 6.041,-0.229 1.215,0.943 0.667,0.656 1.631,1.724 0.927,1.027 1.365,3.161 0.604,4.141 -0.729,0.932 -2.38,0.719 -4.801,0.728 -1.918,0.006 -6.24,1.423 -6.24,1.423 z"
     id="path273" />
  <path
     style="fill:#231f20;fill-opacity:1;fill-rule:nonzero;stroke:none"
     d="m 20.745565,42.578302 c -1.178,1.932 -1.667,2.146 -2.516,1.698 -0.568,-0.292 -1.192,-0.375 -1.542,-0.536 -1.177,-0.542 -2.932,-1.959 -6.8630001,-7.24 -0.887,-1.192 -2.152,-2.87 -2.72,-3.511 -0.895,-1.015 1.401,-1.823 1.756,-1.427 1.1500001,1.276 2.0460001,2.052 2.5190001,2.448 0.334,0.276 0.839,0.844 2.246,1.74 2.13,1.364 3.604,1.859 5.24,3.203 0.765,0.615 1.729,0.599 2.161,1.593 0.448,0.995 -0.281,2.032 -0.281,2.032"
     id="path274" />
  <path
     style="fill:none;stroke:#231f20;stroke-width:0.565977;stroke-linecap:butt;stroke-linejoin:miter;stroke-miterlimit:4;stroke-dasharray:none;stroke-opacity:1"
     d="m 20.745565,42.578302 c -1.178,1.932 -1.667,2.146 -2.516,1.698 -0.568,-0.292 -1.192,-0.375 -1.542,-0.536 -1.177,-0.542 -2.932,-1.959 -6.8630001,-7.24 -0.887,-1.192 -2.152,-2.87 -2.72,-3.511 -0.895,-1.015 1.401,-1.823 1.756,-1.427 1.1500001,1.276 2.0460001,2.052 2.5190001,2.448 0.334,0.276 0.839,0.844 2.246,1.74 2.13,1.364 3.604,1.859 5.24,3.203 0.765,0.615 1.729,0.599 2.161,1.593 0.448,0.995 -0.281,2.032 -0.281,2.032 z"
     id="path275" />
  <path
     style="fill:#231f20;fill-opacity:1;fill-rule:nonzero;stroke:#231f20;stroke-width:0.565977;stroke-linecap:round;stroke-linejoin:round;stroke-miterlimit:4;stroke-dasharray:none;stroke-opacity:1"
     d="m 20.057565,40.172302 c 1.385,-0.323 2.709,1.374 3.016,1.526 4.489,2.219 4.754,2.495 8.052,4.427 4.775998,2.792 7.613998,5.432 6.801998,8.683 -0.557,2.202 -1.828,3.238 -3.13,3.41 -1.448,0.188 -4.437998,-0.89 -5.062998,-3.708 l -1.192,-1.229 c -0.907,-0.729 -1.355,-1.088 -1.829,-1.412 -0.834,-0.557 -1.692,-1.208 -3.25,-2.391 -2.765,-2.098 -5.01,-5.218 -5.01,-5.218 -0.24,-0.192 -0.364,-0.448 -0.416,-0.708"
     id="path276" />
  <path
     style="fill:#63c99d;fill-opacity:1;fill-rule:nonzero;stroke:none"
     d="m 37.073563,50.817302 c -0.506,-1.077 -0.776,-1.697 -1.631,-1.869 -0.115,-0.022 -0.233,-0.068 -0.359,-0.12 -0.437,-0.35 -0.896,-0.692 -1.417,-1.031 l -3.874998,6.787 c 0.724,2.79 3.750998,3.765 5.193998,3.52 1.296,-0.224 2.525,-1.307 3,-3.526 0.285,-1.365 -0.068,-2.594 -0.912,-3.761"
     id="path277" />
  <path
     style="fill:none;stroke:#231f20;stroke-width:0.565977;stroke-linecap:butt;stroke-linejoin:miter;stroke-miterlimit:4;stroke-dasharray:none;stroke-opacity:1"
     d="m 37.073563,50.817302 c -0.506,-1.077 -0.776,-1.697 -1.631,-1.869 -0.115,-0.022 -0.233,-0.068 -0.359,-0.12 -0.437,-0.35 -0.896,-0.692 -1.417,-1.031 l -3.874998,6.787 c 0.724,2.79 3.750998,3.765 5.193998,3.52 1.296,-0.224 2.525,-1.307 3,-3.526 0.285,-1.365 -0.068,-2.594 -0.912,-3.761 z"
     id="path278" />
  <path
     style="fill:#231f20;fill-opacity:1;fill-rule:nonzero;stroke:none"
     d="m 190.31256,36.865302 c -0.682,-1.172 -1.657,-1.011 -2.333,-0.215 -0.199,0.23 -0.615,0.224 -0.792,0.47 -0.407,0.573 -0.063,2.286 1.432,2.358 0.109,0.011 0.875,0.292 1.484,0.418 1.188,0.24 3.683,0.145 5.5,-1.844 0.855,-0.943 0.141,-1.282 -0.323,-1.006 -1.468,0.876 -1.77,0.667 -2.238,0.756 -1.595,0.307 -2.73,-0.937 -2.73,-0.937"
     id="path279" />
  <path
     style="fill:none;stroke:#231f20;stroke-width:0.332927;stroke-linecap:butt;stroke-linejoin:miter;stroke-miterlimit:4;stroke-dasharray:none;stroke-opacity:1"
     d="m 190.31256,36.865302 c -0.682,-1.172 -1.657,-1.011 -2.333,-0.215 -0.199,0.23 -0.615,0.224 -0.792,0.47 -0.407,0.573 -0.063,2.286 1.432,2.358 0.109,0.011 0.875,0.292 1.484,0.418 1.188,0.24 3.683,0.145 5.5,-1.844 0.855,-0.943 0.141,-1.282 -0.323,-1.006 -1.468,0.876 -1.77,0.667 -2.238,0.756 -1.595,0.307 -2.73,-0.937 -2.73,-0.937 z"
     id="path280" />
  <path
     style="fill:#63c99d;fill-opacity:1;fill-rule:nonzero;stroke:none"
     d="m 145.15656,34.344302 c 2.947,-1.063 3.468,-1.604 4.146,-2.23 4.249,-3.921 6.098,-1.76 6.552,1.084 0.552,3.343 0.812,4.531 -5.292,6.078 -1.703,0.422 -7.995,2.917 -7.995,2.917 -2.134,1.192 -4.854,1.224 -6.036,0.359 -1.229,-0.907 -0.677,-0.64 -1.666,-1.683 -0.948,-1.004 -1.443,-3.129 -0.699,-4.124 0.709,-0.948 2.365,-0.776 4.787,-0.839 1.912,-0.052 6.203,-1.562 6.203,-1.562"
     id="path281" />
  <path
     style="fill:none;stroke:#231f20;stroke-width:0.565977;stroke-linecap:butt;stroke-linejoin:miter;stroke-miterlimit:4;stroke-dasharray:none;stroke-opacity:1"
     d="m 145.15656,34.344302 c 2.947,-1.063 3.468,-1.604 4.146,-2.23 4.249,-3.921 6.098,-1.76 6.552,1.084 0.552,3.343 0.812,4.531 -5.292,6.078 -1.703,0.422 -7.995,2.917 -7.995,2.917 -2.134,1.192 -4.854,1.224 -6.036,0.359 -1.229,-0.907 -0.677,-0.64 -1.666,-1.683 -0.948,-1.004 -1.443,-3.129 -0.699,-4.124 0.709,-0.948 2.365,-0.776 4.787,-0.839 1.912,-0.052 6.203,-1.562 6.203,-1.562 z"
     id="path282" />
  <path
     style="fill:#231f20;fill-opacity:1;fill-rule:nonzero;stroke:none"
     d="m 171.13556,35.822302 c 0.016,-2.26 0.328,-2.697 1.281,-2.749 0.64,-0.047 1.214,-0.297 1.599,-0.339 1.292,-0.145 3.516,0.162 9.615,2.651 1.374,0.568 3.322,1.344 4.145,1.599 1.287,0.406 -0.255,2.292 -0.771,2.13 -1.64,-0.494 -2.806,-0.697 -3.421,-0.792 -0.423,-0.066 -1.151,-0.29 -2.817,-0.333 -2.527,-0.067 -4.054,0.276 -6.147,-0.031 -0.973,-0.136 -1.792,0.375 -2.672,-0.25 -0.896,-0.62 -0.812,-1.886 -0.812,-1.886"
     id="path283" />
  <path
     style="fill:none;stroke:#231f20;stroke-width:0.565977;stroke-linecap:butt;stroke-linejoin:miter;stroke-miterlimit:4;stroke-dasharray:none;stroke-opacity:1"
     d="m 171.13556,35.822302 c 0.016,-2.26 0.328,-2.697 1.281,-2.749 0.64,-0.047 1.214,-0.297 1.599,-0.339 1.292,-0.145 3.516,0.162 9.615,2.651 1.374,0.568 3.322,1.344 4.145,1.599 1.287,0.406 -0.255,2.292 -0.771,2.13 -1.64,-0.494 -2.806,-0.697 -3.421,-0.792 -0.423,-0.066 -1.151,-0.29 -2.817,-0.333 -2.527,-0.067 -4.054,0.276 -6.147,-0.031 -0.973,-0.136 -1.792,0.375 -2.672,-0.25 -0.896,-0.62 -0.812,-1.886 -0.812,-1.886 z"
     id="path284" />
  <path
     style="fill:#231f20;fill-opacity:1;fill-rule:nonzero;stroke:#231f20;stroke-width:0.565977;stroke-linecap:round;stroke-linejoin:round;stroke-miterlimit:4;stroke-dasharray:none;stroke-opacity:1"
     d="m 172.96856,37.526302 c -1.016,0.995 -3.026,0.219 -3.36,0.25 -5,0.417 -5.369,0.317 -9.181,0.369 -5.532,0.073 -9.328,-0.719 -10.308,-3.927 -0.661,-2.177 -0.104,-3.713 0.917,-4.536 1.146,-0.906 4.255,-1.526 6.244,0.568 l 1.662,0.432 c 1.152,0.151 1.724,0.235 2.292,0.266 1.005,0.046 2.073,0.161 4.016,0.364 3.453,0.37 6.984,1.89 6.984,1.89 0.308,0.038 0.541,0.188 0.724,0.387"
     id="path285" />
  <path
     style="fill:#63c99d;fill-opacity:1;fill-rule:nonzero;stroke:none"
     d="m 157.37956,38.021302 -0.187,-7.813 c -2.057,-2.015 -5.146,-1.282 -6.256,-0.334 -0.994,0.866 -1.494,2.423 -0.749,4.574 0.459,1.317 1.401,2.188 2.735,2.75 0.984,0.662 1.53,1.047 2.348,0.755 0.109,-0.036 0.24,-0.063 0.37,-0.079 0.552,0.068 1.126,0.126 1.739,0.147"
     id="path286" />
  <path
     style="fill:none;stroke:#231f20;stroke-width:0.565977;stroke-linecap:butt;stroke-linejoin:miter;stroke-miterlimit:4;stroke-dasharray:none;stroke-opacity:1"
     d="m 157.37956,38.021302 -0.187,-7.813 c -2.057,-2.015 -5.146,-1.282 -6.256,-0.334 -0.994,0.866 -1.494,2.423 -0.749,4.574 0.459,1.317 1.401,2.188 2.735,2.75 0.984,0.662 1.53,1.047 2.348,0.755 0.109,-0.036 0.24,-0.063 0.37,-0.079 0.552,0.068 1.126,0.126 1.739,0.147 z"
     id="path287" />
  <path
     style="fill:#ffffff;fill-opacity:1;fill-rule:nonzero;stroke:none"
     d="m 128.13556,44.182302 c -0.245,0.006 -0.546,1.115 -1.057,1.02 -0.527,-0.098 -0.568,-0.89 -2.177,-2.061 l -0.016,-0.011 c -1.203,-0.818 -1.922,-2.01 -1.786,-3.256 0.223,-2.066 2.682,-3.494 5.484,-3.197 2.812,0.307 4.902,2.229 4.683,4.292 -0.215,1.973 -2.475,3.369 -5.131,3.213"
     id="path288" />
  <path
     style="fill:none;stroke:#231f20;stroke-width:0.565977;stroke-linecap:butt;stroke-linejoin:miter;stroke-miterlimit:4;stroke-dasharray:none;stroke-opacity:1"
     d="m 128.13556,44.182302 c -0.245,0.006 -0.546,1.115 -1.057,1.02 -0.527,-0.098 -0.568,-0.89 -2.177,-2.061 l -0.016,-0.011 c -1.203,-0.818 -1.922,-2.01 -1.786,-3.256 0.223,-2.066 2.682,-3.494 5.484,-3.197 2.812,0.307 4.902,2.229 4.683,4.292 -0.215,1.973 -2.475,3.369 -5.131,3.213 z"
     id="path289" />
  <path
     style="fill:#ffffff;fill-opacity:1;fill-rule:nonzero;stroke:none"
     d="m 3.2095649,51.880302 c 0,0.688 0.557,1.24 1.239,1.24 H 274.45856 c 0.682,0 1.24,-0.552 1.24,-1.24 0,-0.687 -0.558,-1.239 -1.24,-1.239 H 4.4485649 c -0.682,0 -1.239,0.552 -1.239,1.239"
     id="path290" />
  <path
     style="fill:none;stroke:#231f20;stroke-width:0.665856;stroke-linecap:butt;stroke-linejoin:miter;stroke-miterlimit:4;stroke-dasharray:none;stroke-opacity:1"
     d="m 3.2095649,51.880302 c 0,0.688 0.557,1.24 1.239,1.24 H 274.45856 c 0.682,0 1.24,-0.552 1.24,-1.24 0,-0.687 -0.558,-1.239 -1.24,-1.239 H 4.4485649 c -0.682,0 -1.239,0.552 -1.239,1.239 z"
     id="path291" />
  <path
     style="fill:#ffffff;fill-opacity:1;fill-rule:nonzero;stroke:none"
     d="m 313.19256,51.880302 c 0,0.688 0.552,1.24 1.24,1.24 h 99.333 c 0.681,0 1.239,-0.552 1.239,-1.24 0,-0.687 -0.558,-1.239 -1.239,-1.239 h -99.333 c -0.688,0 -1.24,0.552 -1.24,1.239"
     id="path292" />
  <path
     style="fill:none;stroke:#231f20;stroke-width:0.665856;stroke-linecap:butt;stroke-linejoin:miter;stroke-miterlimit:4;stroke-dasharray:none;stroke-opacity:1"
     d="m 313.19256,51.880302 c 0,0.688 0.552,1.24 1.24,1.24 h 99.333 c 0.681,0 1.239,-0.552 1.239,-1.24 0,-0.687 -0.558,-1.239 -1.239,-1.239 h -99.333 c -0.688,0 -1.24,0.552 -1.24,1.239 z"
     id="path293" />
  <path
     style="fill:#ffffff;fill-opacity:1;fill-rule:nonzero;stroke:none"
     d="m 458.36956,51.880302 c 0,0.688 0.552,1.24 1.239,1.24 h 103.556 c 0.68,0 1.24,-0.552 1.24,-1.24 0,-0.687 -0.56,-1.239 -1.24,-1.239 h -103.556 c -0.687,0 -1.239,0.552 -1.239,1.239"
     id="path294" />
  <path
     style="fill:none;stroke:#231f20;stroke-width:0.665856;stroke-linecap:butt;stroke-linejoin:miter;stroke-miterlimit:4;stroke-dasharray:none;stroke-opacity:1"
     d="m 458.36956,51.880302 c 0,0.688 0.552,1.24 1.239,1.24 h 103.556 c 0.68,0 1.24,-0.552 1.24,-1.24 0,-0.687 -0.56,-1.239 -1.24,-1.239 h -103.556 c -0.687,0 -1.239,0.552 -1.239,1.239 z"
     id="path295" />
  <path
     style="fill:#ffffff;fill-opacity:1;fill-rule:nonzero;stroke:none"
     d="m 56.067563,40.994302 c 0.162,-0.182 -0.468,-1.145 -0.057,-1.462 0.423,-0.324 1.047,0.17 2.984,-0.251 l 0.027,-0.005 c 1.406,-0.354 2.77,-0.094 3.614,0.833 1.396,1.547 0.818,4.328 -1.265,6.219 -2.104,1.901 -4.928,2.177 -6.324,0.641 -1.333,-1.469 -0.864,-4.095 1.021,-5.975"
     id="path296" />
  <path
     style="fill:none;stroke:#231f20;stroke-width:0.565977;stroke-linecap:butt;stroke-linejoin:miter;stroke-miterlimit:4;stroke-dasharray:none;stroke-opacity:1"
     d="m 56.067563,40.994302 c 0.162,-0.182 -0.468,-1.145 -0.057,-1.462 0.423,-0.324 1.047,0.17 2.984,-0.251 l 0.027,-0.005 c 1.406,-0.354 2.77,-0.094 3.614,0.833 1.396,1.547 0.818,4.328 -1.265,6.219 -2.104,1.901 -4.928,2.177 -6.324,0.641 -1.333,-1.469 -0.864,-4.095 1.021,-5.975 z"
     id="path297" />
  <path
     style="fill:#63c99d;fill-opacity:1;fill-rule:nonzero;stroke:none"
     d="m 536.02556,30.145302 c -3,0.896 -3.745,0.761 -4.667,0.657 -5.74,-0.652 -5.953,2.182 -4.641,4.75 1.537,3.021 2.032,4.136 7.865,1.77 1.626,-0.666 8.178,-2.38 8.178,-2.38 2.434,-0.297 4.654,-1.88 5.084,-3.27 0.46,-1.464 0.18,-0.918 0.36,-2.35 0.16,-1.369 -0.7,-3.374 -1.88,-3.733 -1.13,-0.349 -2.37,0.771 -4.362,2.151 -1.578,1.088 -5.937,2.405 -5.937,2.405"
     id="path298" />
  <path
     style="fill:none;stroke:#231f20;stroke-width:0.565977;stroke-linecap:butt;stroke-linejoin:miter;stroke-miterlimit:4;stroke-dasharray:none;stroke-opacity:1"
     d="m 536.02556,30.145302 c -3,0.896 -3.745,0.761 -4.667,0.657 -5.74,-0.652 -5.953,2.182 -4.641,4.75 1.537,3.021 2.032,4.136 7.865,1.77 1.626,-0.666 8.178,-2.38 8.178,-2.38 2.434,-0.297 4.654,-1.88 5.084,-3.27 0.46,-1.464 0.18,-0.918 0.36,-2.35 0.16,-1.369 -0.7,-3.374 -1.88,-3.733 -1.13,-0.349 -2.37,0.771 -4.362,2.151 -1.578,1.088 -5.937,2.405 -5.937,2.405 z"
     id="path299" />
  <path
     style="fill:#ffffff;fill-opacity:1;fill-rule:nonzero;stroke:none"
     d="m 554.91456,23.776302 c 0.07,-0.235 1.22,-0.1564 1.29,-0.6777 0.08,-0.52 -0.66,-0.8173 -1.24,-2.7187 l -0.01,-0.0253 c -0.39,-1.396 -1.28,-2.464 -2.51,-2.7346 -2.03,-0.4534 -4.17,1.416 -4.79,4.1666 -0.62,2.7597 0.53,5.3637 2.55,5.8177 1.95,0.437 4,-1.26 4.71,-3.828"
     id="path300" />
  <path
     style="fill:none;stroke:#231f20;stroke-width:0.565977;stroke-linecap:butt;stroke-linejoin:miter;stroke-miterlimit:4;stroke-dasharray:none;stroke-opacity:1"
     d="m 554.91456,23.776302 c 0.07,-0.235 1.22,-0.1564 1.29,-0.6777 0.08,-0.52 -0.66,-0.8173 -1.24,-2.7187 l -0.01,-0.0253 c -0.39,-1.396 -1.28,-2.464 -2.51,-2.7346 -2.03,-0.4534 -4.17,1.416 -4.79,4.1666 -0.62,2.7597 0.53,5.3637 2.55,5.8177 1.95,0.437 4,-1.26 4.71,-3.828 z"
     id="path301" />
  <path
     style="fill:#231f20;fill-opacity:1;fill-rule:nonzero;stroke:none"
     d="m 541.11856,50.224302 c -0.292,-0.574 0.178,-2.464 -0.057,-4.058 -0.167,-1.073 0.573,-3.713 0.328,-4.77 -0.213,-0.97 -0.229,-1.438 0.833,-1.875 0.631,-0.261 2.022,-0.36 2.232,0.104 0.51,1.077 0.54,2.02 0.36,3.073 -0.21,1.203 -1.06,4.395 -1.269,4.974 -0.531,1.426 -0.307,2.13 -0.411,2.521 -0.193,0.733 -0.526,0.839 -1.026,0.817 -0.963,-0.046 -0.99,-0.786 -0.99,-0.786"
     id="path302" />
  <path
     style="fill:none;stroke:#231f20;stroke-width:0.565977;stroke-linecap:butt;stroke-linejoin:miter;stroke-miterlimit:4;stroke-dasharray:none;stroke-opacity:1"
     d="m 541.11856,50.224302 c -0.292,-0.574 0.178,-2.464 -0.057,-4.058 -0.167,-1.073 0.573,-3.713 0.328,-4.77 -0.213,-0.97 -0.229,-1.438 0.833,-1.875 0.631,-0.261 2.022,-0.36 2.232,0.104 0.51,1.077 0.54,2.02 0.36,3.073 -0.21,1.203 -1.06,4.395 -1.269,4.974 -0.531,1.426 -0.307,2.13 -0.411,2.521 -0.193,0.733 -0.526,0.839 -1.026,0.817 -0.963,-0.046 -0.99,-0.786 -0.99,-0.786 z"
     id="path303" />
  <path
     style="fill:#231f20;fill-opacity:1;fill-rule:nonzero;stroke:none"
     d="m 542.04156,41.208302 c -1.272,-0.271 -0.48,-2.151 -0.349,-2.672 0.13,-0.531 0.328,-2.072 0.333,-3.291 0.005,-1.229 0.531,-2.756 0.541,-5.084 0.006,-1.224 0.787,-2.407 2.558,-2.323 1.76,0.084 2.37,1.099 2.14,2.583 -0.23,1.475 -1.07,2.767 -1.41,4.24 -0.33,1.475 -0.54,3.011 -0.64,4.219 -0.12,1.376 -0.69,2.016 -1.15,2.161 -1.132,0.376 -2.023,0.167 -2.023,0.167"
     id="path304" />
  <path
     style="fill:none;stroke:#231f20;stroke-width:0.565977;stroke-linecap:butt;stroke-linejoin:miter;stroke-miterlimit:4;stroke-dasharray:none;stroke-opacity:1"
     d="m 542.04156,41.208302 c -1.272,-0.271 -0.48,-2.151 -0.349,-2.672 0.13,-0.531 0.328,-2.072 0.333,-3.291 0.005,-1.229 0.531,-2.756 0.541,-5.084 0.006,-1.224 0.787,-2.407 2.558,-2.323 1.76,0.084 2.37,1.099 2.14,2.583 -0.23,1.475 -1.07,2.767 -1.41,4.24 -0.33,1.475 -0.54,3.011 -0.64,4.219 -0.12,1.376 -0.69,2.016 -1.15,2.161 -1.132,0.376 -2.023,0.167 -2.023,0.167 z"
     id="path305" />
  <path
     style="fill:#231f20;fill-opacity:1;fill-rule:nonzero;stroke:none"
     d="m 512.16056,39.365302 c -0.312,-2.24 -0.682,-2.636 -1.635,-2.563 -0.641,0.047 -1.24,-0.13 -1.631,-0.12 -1.296,0.031 -3.468,0.63 -9.177,3.907 -1.291,0.744 -3.115,1.776 -3.895,2.14 -1.224,0.579 0.552,2.229 1.047,2.005 1.557,-0.702 2.687,-1.062 3.287,-1.24 0.41,-0.12 1.098,-0.437 2.749,-0.702 2.495,-0.402 4.047,-0.271 6.088,-0.85 0.948,-0.265 1.819,0.136 2.615,-0.604 0.802,-0.729 0.552,-1.973 0.552,-1.973"
     id="path306" />
  <path
     style="fill:none;stroke:#231f20;stroke-width:0.565977;stroke-linecap:butt;stroke-linejoin:miter;stroke-miterlimit:4;stroke-dasharray:none;stroke-opacity:1"
     d="m 512.16056,39.365302 c -0.312,-2.24 -0.682,-2.636 -1.635,-2.563 -0.641,0.047 -1.24,-0.13 -1.631,-0.12 -1.296,0.031 -3.468,0.63 -9.177,3.907 -1.291,0.744 -3.115,1.776 -3.895,2.14 -1.224,0.579 0.552,2.229 1.047,2.005 1.557,-0.702 2.687,-1.062 3.287,-1.24 0.41,-0.12 1.098,-0.437 2.749,-0.702 2.495,-0.402 4.047,-0.271 6.088,-0.85 0.948,-0.265 1.819,0.136 2.615,-0.604 0.802,-0.729 0.552,-1.973 0.552,-1.973 z"
     id="path307" />
  <path
     style="fill:#231f20;fill-opacity:1;fill-rule:nonzero;stroke:#231f20;stroke-width:0.565977;stroke-linecap:round;stroke-linejoin:round;stroke-miterlimit:4;stroke-dasharray:none;stroke-opacity:1"
     d="m 510.57256,41.297302 c 1.136,0.848 3.026,-0.188 3.369,-0.199 5.005,-0.254 5.36,-0.4 9.147,-0.853 5.494,-0.661 9.156,-1.959 9.702,-5.267 0.375,-2.244 -0.385,-3.692 -1.51,-4.374 -1.255,-0.75 -4.432,-0.948 -6.124,1.396 l -1.584,0.65 c -1.126,0.303 -1.678,0.459 -2.246,0.563 -0.984,0.177 -2.03,0.437 -3.932,0.901 -3.374,0.828 -6.672,2.798 -6.672,2.798 -0.296,0.077 -0.514,0.26 -0.666,0.478"
     id="path308" />
  <path
     style="fill:#63c99d;fill-opacity:1;fill-rule:nonzero;stroke:none"
     d="m 531.45756,30.817302 c -1.229,-0.796 -4.391,-1.115 -6.172,1.167 l 0.855,7.766 c 0.65,-0.109 1.238,-0.25 1.806,-0.406 0.079,0.005 0.156,0.016 0.23,0.025 0.797,0.167 1.281,-0.224 2.068,-0.911 1.358,-0.745 2.265,-1.765 2.562,-3.208 0.448,-2.224 -0.25,-3.709 -1.349,-4.433"
     id="path309" />
  <path
     style="fill:none;stroke:#231f20;stroke-width:0.565977;stroke-linecap:butt;stroke-linejoin:miter;stroke-miterlimit:4;stroke-dasharray:none;stroke-opacity:1"
     d="m 531.45756,30.817302 c -1.229,-0.796 -4.391,-1.115 -6.172,1.167 l 0.855,7.766 c 0.65,-0.109 1.238,-0.25 1.806,-0.406 0.079,0.005 0.156,0.016 0.23,0.025 0.797,0.167 1.281,-0.224 2.068,-0.911 1.358,-0.745 2.265,-1.765 2.562,-3.208 0.448,-2.224 -0.25,-3.709 -1.349,-4.433 z"
     id="path310" />
  <path
     style="fill:#231f20;fill-opacity:1;fill-rule:nonzero;stroke:none"
     d="m 493.49856,43.308302 c 0.522,-1.251 1.522,-1.22 2.287,-0.527 0.229,0.208 0.647,0.145 0.849,0.364 0.484,0.516 0.375,2.256 -1.104,2.532 -0.109,0.021 -0.833,0.407 -1.417,0.604 -1.145,0.396 -3.635,0.641 -5.697,-1.088 -0.98,-0.828 -0.314,-1.251 0.182,-1.043 1.572,0.678 1.843,0.428 2.323,0.448 1.624,0.1 2.577,-1.29 2.577,-1.29"
     id="path311" />
  <path
     style="fill:none;stroke:#231f20;stroke-width:0.332927;stroke-linecap:butt;stroke-linejoin:miter;stroke-miterlimit:4;stroke-dasharray:none;stroke-opacity:1"
     d="m 493.49856,43.308302 c 0.522,-1.251 1.522,-1.22 2.287,-0.527 0.229,0.208 0.647,0.145 0.849,0.364 0.484,0.516 0.375,2.256 -1.104,2.532 -0.109,0.021 -0.833,0.407 -1.417,0.604 -1.145,0.396 -3.635,0.641 -5.697,-1.088 -0.98,-0.828 -0.314,-1.251 0.182,-1.043 1.572,0.678 1.843,0.428 2.323,0.448 1.624,0.1 2.577,-1.29 2.577,-1.29 z"
     id="path312" />
  <path
     style="fill:#231f20;fill-opacity:1;fill-rule:nonzero;stroke:none"
     d="m 544.80456,51.760302 c 0,1.177 -0.96,2.13 -2.134,2.13 -1.177,0 -2.134,-0.953 -2.134,-2.13 0,-1.182 0.957,-2.135 2.134,-2.135 1.174,0 2.134,0.953 2.134,2.135"
     id="path313" />
  <path
     style="fill:#231f20;fill-opacity:1;fill-rule:nonzero;stroke:none"
     d="m 75.406563,52.052302 c 0.579,0.281 2.464,-0.224 4.057,-0.016 1.079,0.141 3.708,-0.646 4.766,-0.422 0.974,0.203 1.437,0.203 1.86,-0.869 0.249,-0.636 0.322,-2.021 -0.147,-2.229 -1.088,-0.49 -2.025,-0.506 -3.077,-0.308 -1.199,0.229 -4.375,1.146 -4.948,1.37 -1.418,0.558 -2.126,0.339 -2.511,0.454 -0.735,0.208 -0.833,0.541 -0.807,1.041 0.067,0.963 0.807,0.979 0.807,0.979"
     id="path314" />
  <path
     style="fill:none;stroke:#231f20;stroke-width:0.565977;stroke-linecap:butt;stroke-linejoin:miter;stroke-miterlimit:4;stroke-dasharray:none;stroke-opacity:1"
     d="m 75.406563,52.052302 c 0.579,0.281 2.464,-0.224 4.057,-0.016 1.079,0.141 3.708,-0.646 4.766,-0.422 0.974,0.203 1.437,0.203 1.86,-0.869 0.249,-0.636 0.322,-2.021 -0.147,-2.229 -1.088,-0.49 -2.025,-0.506 -3.077,-0.308 -1.199,0.229 -4.375,1.146 -4.948,1.37 -1.418,0.558 -2.126,0.339 -2.511,0.454 -0.735,0.208 -0.833,0.541 -0.807,1.041 0.067,0.963 0.807,0.979 0.807,0.979 z"
     id="path315" />
  <path
     style="fill:#231f20;fill-opacity:1;fill-rule:nonzero;stroke:none"
     d="m 84.406563,50.958302 c 0.292,1.271 2.156,0.448 2.672,0.307 0.531,-0.14 2.073,-0.375 3.292,-0.396 1.229,-0.031 2.744,-0.583 5.067,-0.635 1.224,-0.026 2.396,-0.828 2.281,-2.604 -0.119,-1.756 -1.145,-2.349 -2.624,-2.094 -1.469,0.256 -2.745,1.125 -4.215,1.485 -1.462,0.364 -2.994,0.599 -4.208,0.729 -1.374,0.14 -2,0.714 -2.134,1.176 -0.355,1.147 -0.131,2.032 -0.131,2.032"
     id="path316" />
  <path
     style="fill:none;stroke:#231f20;stroke-width:0.565977;stroke-linecap:butt;stroke-linejoin:miter;stroke-miterlimit:4;stroke-dasharray:none;stroke-opacity:1"
     d="m 84.406563,50.958302 c 0.292,1.271 2.156,0.448 2.672,0.307 0.531,-0.14 2.073,-0.375 3.292,-0.396 1.229,-0.031 2.744,-0.583 5.067,-0.635 1.224,-0.026 2.396,-0.828 2.281,-2.604 -0.119,-1.756 -1.145,-2.349 -2.624,-2.094 -1.469,0.256 -2.745,1.125 -4.215,1.485 -1.462,0.364 -2.994,0.599 -4.208,0.729 -1.374,0.14 -2,0.714 -2.134,1.176 -0.355,1.147 -0.131,2.032 -0.131,2.032 z"
     id="path317" />
  <path
     style="fill:#231f20;fill-opacity:1;fill-rule:nonzero;stroke:none"
     d="m 73.807563,48.390302 c -1.177,0.022 -2.114,0.995 -2.094,2.172 0.021,1.178 0.996,2.12 2.166,2.094 1.183,-0.02 2.12,-0.995 2.1,-2.172 -0.026,-1.176 -0.994,-2.119 -2.172,-2.094"
     id="path318" />
  <path
     style="fill:#63c99d;fill-opacity:1;fill-rule:nonzero;stroke:none"
     d="m 369.97956,57.136302 c -1.672,2.645 -2.324,3.036 -3.084,3.562 -4.76,3.286 -3.058,5.558 -0.38,6.624 3.145,1.271 4.254,1.787 7.093,-3.828 0.792,-1.572 4.604,-7.166 4.604,-7.166 1.636,-1.823 2.267,-4.468 1.683,-5.802 -0.626,-1.412 -0.474,-0.808 -1.282,-2.005 -0.77,-1.147 -2.738,-2.084 -3.869,-1.584 -1.089,0.489 -1.281,2.141 -1.869,4.489 -0.475,1.86 -2.896,5.71 -2.896,5.71"
     id="path319" />
  <path
     style="fill:none;stroke:#231f20;stroke-width:0.565977;stroke-linecap:butt;stroke-linejoin:miter;stroke-miterlimit:4;stroke-dasharray:none;stroke-opacity:1"
     d="m 369.97956,57.136302 c -1.672,2.645 -2.324,3.036 -3.084,3.562 -4.76,3.286 -3.058,5.558 -0.38,6.624 3.145,1.271 4.254,1.787 7.093,-3.828 0.792,-1.572 4.604,-7.166 4.604,-7.166 1.636,-1.823 2.267,-4.468 1.683,-5.802 -0.626,-1.412 -0.474,-0.808 -1.282,-2.005 -0.77,-1.147 -2.738,-2.084 -3.869,-1.584 -1.089,0.489 -1.281,2.141 -1.869,4.489 -0.475,1.86 -2.896,5.71 -2.896,5.71 z"
     id="path320" />
  <path
     style="fill:#231f20;fill-opacity:1;fill-rule:nonzero;stroke:none"
     d="m 352.90056,76.041302 c -1.104,-1.973 -1.583,-2.208 -2.453,-1.796 -0.583,0.276 -1.203,0.333 -1.558,0.484 -1.202,0.5 -3.01,1.844 -7.134,6.969 -0.932,1.161 -2.262,2.785 -2.86,3.405 -0.927,0.98 1.333,1.875 1.708,1.495 1.198,-1.229 2.12,-1.973 2.614,-2.348 0.334,-0.267 0.866,-0.813 2.308,-1.652 2.172,-1.287 3.672,-1.729 5.359,-3.005 0.787,-0.588 1.751,-0.536 2.219,-1.509 0.49,-0.975 -0.203,-2.043 -0.203,-2.043"
     id="path321" />
  <path
     style="fill:none;stroke:#231f20;stroke-width:0.565977;stroke-linecap:butt;stroke-linejoin:miter;stroke-miterlimit:4;stroke-dasharray:none;stroke-opacity:1"
     d="m 352.90056,76.041302 c -1.104,-1.973 -1.583,-2.208 -2.453,-1.796 -0.583,0.276 -1.203,0.333 -1.558,0.484 -1.202,0.5 -3.01,1.844 -7.134,6.969 -0.932,1.161 -2.262,2.785 -2.86,3.405 -0.927,0.98 1.333,1.875 1.708,1.495 1.198,-1.229 2.12,-1.973 2.614,-2.348 0.334,-0.267 0.866,-0.813 2.308,-1.652 2.172,-1.287 3.672,-1.729 5.359,-3.005 0.787,-0.588 1.751,-0.536 2.219,-1.509 0.49,-0.975 -0.203,-2.043 -0.203,-2.043 z"
     id="path322" />
  <path
     style="fill:#231f20;fill-opacity:1;fill-rule:nonzero;stroke:#231f20;stroke-width:0.565977;stroke-linecap:round;stroke-linejoin:round;stroke-miterlimit:4;stroke-dasharray:none;stroke-opacity:1"
     d="m 352.12456,78.421302 c 1.365,0.371 2.755,-1.276 3.068,-1.405 4.568,-2.052 4.849,-2.318 8.213,-4.12 4.88,-2.61 7.812,-5.146 7.131,-8.422 -0.469,-2.224 -1.699,-3.302 -3.005,-3.526 -1.432,-0.246 -4.464,0.718 -5.194,3.516 l -1.238,1.177 c -0.943,0.697 -1.396,1.041 -1.887,1.348 -0.853,0.521 -1.733,1.141 -3.337,2.261 -2.839,1.995 -5.199,5.026 -5.199,5.026 -0.249,0.182 -0.391,0.426 -0.448,0.693"
     id="path323" />
  <path
     style="fill:#63c99d;fill-opacity:1;fill-rule:nonzero;stroke:none"
     d="m 370.64556,64.718302 c -0.385,-2.234 -1.578,-3.358 -2.865,-3.634 -1.432,-0.298 -4.495,0.552 -5.323,3.312 l 3.615,6.932 c 0.563,-0.339 1.063,-0.683 1.536,-1.031 0.073,-0.027 0.152,-0.052 0.219,-0.063 0.797,-0.13 1.114,-0.666 1.584,-1.584 1.01,-1.192 1.484,-2.473 1.234,-3.932"
     id="path324" />
  <path
     style="fill:none;stroke:#231f20;stroke-width:0.565977;stroke-linecap:butt;stroke-linejoin:miter;stroke-miterlimit:4;stroke-dasharray:none;stroke-opacity:1"
     d="m 370.64556,64.718302 c -0.385,-2.234 -1.578,-3.358 -2.865,-3.634 -1.432,-0.298 -4.495,0.552 -5.323,3.312 l 3.615,6.932 c 0.563,-0.339 1.063,-0.683 1.536,-1.031 0.073,-0.027 0.152,-0.052 0.219,-0.063 0.797,-0.13 1.114,-0.666 1.584,-1.584 1.01,-1.192 1.484,-2.473 1.234,-3.932 z"
     id="path325" />
  <path
     style="fill:#231f20;fill-opacity:1;fill-rule:nonzero;stroke:none"
     d="m 336.95256,86.483302 c 0.032,-1.353 0.969,-1.681 1.932,-1.317 0.292,0.109 0.657,-0.099 0.928,0.032 0.64,0.301 1.161,1.968 -0.115,2.76 -0.089,0.057 -0.625,0.677 -1.098,1.083 -0.923,0.776 -3.152,1.906 -5.704,1.042 -1.203,-0.417 -0.744,-1.052 -0.203,-1.037 1.708,0.057 1.869,-0.265 2.328,-0.427 1.536,-0.5 1.932,-2.136 1.932,-2.136"
     id="path326" />
  <path
     style="fill:none;stroke:#231f20;stroke-width:0.332927;stroke-linecap:butt;stroke-linejoin:miter;stroke-miterlimit:4;stroke-dasharray:none;stroke-opacity:1"
     d="m 336.95256,86.483302 c 0.032,-1.353 0.969,-1.681 1.932,-1.317 0.292,0.109 0.657,-0.099 0.928,0.032 0.64,0.301 1.161,1.968 -0.115,2.76 -0.089,0.057 -0.625,0.677 -1.098,1.083 -0.923,0.776 -3.152,1.906 -5.704,1.042 -1.203,-0.417 -0.744,-1.052 -0.203,-1.037 1.708,0.057 1.869,-0.265 2.328,-0.427 1.536,-0.5 1.932,-2.136 1.932,-2.136 z"
     id="path327" />
  <path
     style="fill:#231f20;fill-opacity:1;fill-rule:nonzero;stroke:none"
     d="m 363.11356,23.598602 c -0.614,0.0997 -0.817,1.4377 -2.213,2.3497 -0.281,0.188 -0.391,0.458 -0.557,0.697 -0.651,0.975 -0.542,2.188 2.698,1.053 0.443,-0.157 1.682,-1.329 2.375,-1.521 1.629,-0.443 2.719,-2.74 2.307,-2.9787 -0.88,-0.5267 -4.61,0.4 -4.61,0.4"
     id="path328" />
  <path
     style="fill:none;stroke:#231f20;stroke-width:0.546001;stroke-linecap:round;stroke-linejoin:round;stroke-miterlimit:4;stroke-dasharray:none;stroke-opacity:1"
     d="m 363.11356,23.598602 c -0.614,0.0997 -0.817,1.4377 -2.213,2.3497 -0.281,0.188 -0.391,0.458 -0.557,0.697 -0.651,0.975 -0.542,2.188 2.698,1.053 0.443,-0.157 1.682,-1.329 2.375,-1.521 1.629,-0.443 2.719,-2.74 2.307,-2.9787 -0.88,-0.5267 -4.61,0.4 -4.61,0.4 z"
     id="path329" />
  <path
     style="fill:#ffffff;fill-opacity:1;fill-rule:nonzero;stroke:none"
     d="m 353.32756,26.240302 c 0.037,-0.599 -1.042,-0.516 0.829,-0.938 2.072,-0.474 6.984,-0.433 7.885,0.151 0.895,0.588 0.698,0.803 0.386,1.583 -0.314,0.781 -4.724,2.032 -5.204,2.698 -0.474,0.678 -2.708,-0.073 -3.255,-0.469 -0.547,-0.396 -0.641,-3.025 -0.641,-3.025"
     id="path330" />
  <path
     style="fill:none;stroke:#231f20;stroke-width:0.565977;stroke-linecap:butt;stroke-linejoin:miter;stroke-miterlimit:4;stroke-dasharray:none;stroke-opacity:1"
     d="m 353.32756,26.240302 c 0.037,-0.599 -1.042,-0.516 0.829,-0.938 2.072,-0.474 6.984,-0.433 7.885,0.151 0.895,0.588 0.698,0.803 0.386,1.583 -0.314,0.781 -4.724,2.032 -5.204,2.698 -0.474,0.678 -2.708,-0.073 -3.255,-0.469 -0.547,-0.396 -0.641,-3.025 -0.641,-3.025 z"
     id="path331" />
  <path
     style="fill:#ffffff;fill-opacity:1;fill-rule:nonzero;stroke:#231f20;stroke-width:0.565977;stroke-linecap:round;stroke-linejoin:round;stroke-miterlimit:4;stroke-dasharray:none;stroke-opacity:1"
     d="m 354.19756,28.656302 c -0.016,0.318 -0.037,0.532 -0.037,0.532 -1.411,1.312 -11.468,4.765 -12.839,4.281 -1.369,-0.475 -2.014,-5.292 -1.186,-6.245 0.822,-0.948 3.306,-1.864 3.306,-1.864 1.491,-0.246 9.954,0.312 9.954,0.312 0.172,0.078 0.308,0.213 0.417,0.39"
     id="path332" />
  <path
     style="fill:#63c99d;fill-opacity:1;fill-rule:nonzero;stroke:none"
     d="m 343.45256,20.546602 c -2.927,1.9427 -3.62,2.6307 -4.516,3.3437 -4.504,3.615 -4.052,4.823 -2.629,6.755 2.005,2.735 3.369,4.043 8.057,-0.151 3.563,-3.186 6.661,-5.041 6.661,-5.041 1.807,-0.495 4.626,-2.724 4.864,-3.5987 0.402,-1.4853 0.276,-1.2133 -0.025,-2.6306 -0.563,-2.6094 -1.713,-2.9427 -2.901,-2.9214 -1.188,0.0254 -2.156,0.3907 -4.672,1.64 -1.954,0.9694 -4.839,2.604 -4.839,2.604"
     id="path333" />
  <path
     style="fill:none;stroke:#231f20;stroke-width:0.565977;stroke-linecap:butt;stroke-linejoin:miter;stroke-miterlimit:4;stroke-dasharray:none;stroke-opacity:1"
     d="m 343.45256,20.546602 c -2.927,1.9427 -3.62,2.6307 -4.516,3.3437 -4.504,3.615 -4.052,4.823 -2.629,6.755 2.005,2.735 3.369,4.043 8.057,-0.151 3.563,-3.186 6.661,-5.041 6.661,-5.041 1.807,-0.495 4.626,-2.724 4.864,-3.5987 0.402,-1.4853 0.276,-1.2133 -0.025,-2.6306 -0.563,-2.6094 -1.713,-2.9427 -2.901,-2.9214 -1.188,0.0254 -2.156,0.3907 -4.672,1.64 -1.954,0.9694 -4.839,2.604 -4.839,2.604 z"
     id="path334" />
  <path
     style="fill:#ffffff;fill-opacity:1;fill-rule:nonzero;stroke:none"
     d="m 362.36956,17.828002 c 0.234,-0.0734 0.843,0.912 1.307,0.6666 0.469,-0.2386 0.292,-1.016 1.495,-2.588 l 0.01,-0.0213 c 0.927,-1.1253 1.271,-2.4733 0.787,-3.6293 -0.808,-1.912 -3.568,-2.5787002 -6.167,-1.4907 -2.614,1.0893 -4.068,3.532 -3.27,5.4427 0.765,1.8333 3.338,2.5266 5.838,1.62"
     id="path335" />
  <path
     style="fill:none;stroke:#231f20;stroke-width:0.565977;stroke-linecap:butt;stroke-linejoin:miter;stroke-miterlimit:4;stroke-dasharray:none;stroke-opacity:1"
     d="m 362.36956,17.828002 c 0.234,-0.0734 0.843,0.912 1.307,0.6666 0.469,-0.2386 0.292,-1.016 1.495,-2.588 l 0.01,-0.0213 c 0.927,-1.1253 1.271,-2.4733 0.787,-3.6293 -0.808,-1.912 -3.568,-2.5787002 -6.167,-1.4907 -2.614,1.0893 -4.068,3.532 -3.27,5.4427 0.765,1.8333 3.338,2.5266 5.838,1.62 z"
     id="path336" />
  <path
     style="fill:#231f20;fill-opacity:1;fill-rule:nonzero;stroke:none"
     d="m 360.26056,36.046302 c -0.631,-0.104 -1.896,-1.593 -3.319,-2.333 -0.968,-0.495 -2.672,-2.64 -3.676,-3.068 -0.912,-0.389 -1.297,-0.656 -1.032,-1.776 0.156,-0.661 0.896,-1.837 1.396,-1.739 1.167,0.219 1.959,0.739 2.703,1.506 0.849,0.874 2.937,3.437 3.281,3.948 0.839,1.27 1.547,1.494 1.808,1.806 0.474,0.594 0.364,0.918 0.058,1.312 -0.604,0.756 -1.219,0.344 -1.219,0.344"
     id="path337" />
  <path
     style="fill:none;stroke:#231f20;stroke-width:0.565977;stroke-linecap:butt;stroke-linejoin:miter;stroke-miterlimit:4;stroke-dasharray:none;stroke-opacity:1"
     d="m 360.26056,36.046302 c -0.631,-0.104 -1.896,-1.593 -3.319,-2.333 -0.968,-0.495 -2.672,-2.64 -3.676,-3.068 -0.912,-0.389 -1.297,-0.656 -1.032,-1.776 0.156,-0.661 0.896,-1.837 1.396,-1.739 1.167,0.219 1.959,0.739 2.703,1.506 0.849,0.874 2.937,3.437 3.281,3.948 0.839,1.27 1.547,1.494 1.808,1.806 0.474,0.594 0.364,0.918 0.058,1.312 -0.604,0.756 -1.219,0.344 -1.219,0.344 z"
     id="path338" />
  <path
     style="fill:#231f20;fill-opacity:1;fill-rule:nonzero;stroke:none"
     d="m 353.40056,30.589302 c -1.292,0.135 -1.131,-1.896 -1.161,-2.433 -0.042,-0.547 -0.328,-2.072 -0.703,-3.239 -0.376,-1.167 -0.349,-2.7814 -1.052,-4.9947 -0.381,-1.1626 0,-2.5373 1.708,-3.0053 1.692,-0.4587 2.593,0.3173 2.839,1.796 0.238,1.4746 -0.167,2.964 -0.027,4.4693 0.131,1.5057 0.412,3.0257 0.688,4.2137 0.312,1.344 -0.027,2.125 -0.412,2.401 -0.973,0.713 -1.88,0.792 -1.88,0.792"
     id="path339" />
  <path
     style="fill:none;stroke:#231f20;stroke-width:0.565977;stroke-linecap:butt;stroke-linejoin:miter;stroke-miterlimit:4;stroke-dasharray:none;stroke-opacity:1"
     d="m 353.40056,30.589302 c -1.292,0.135 -1.131,-1.896 -1.161,-2.433 -0.042,-0.547 -0.328,-2.072 -0.703,-3.239 -0.376,-1.167 -0.349,-2.7814 -1.052,-4.9947 -0.381,-1.1626 0,-2.5373 1.708,-3.0053 1.692,-0.4587 2.593,0.3173 2.839,1.796 0.238,1.4746 -0.167,2.964 -0.027,4.4693 0.131,1.5057 0.412,3.0257 0.688,4.2137 0.312,1.344 -0.027,2.125 -0.412,2.401 -0.973,0.713 -1.88,0.792 -1.88,0.792 z"
     id="path340" />
  <path
     style="fill:#231f20;fill-opacity:1;fill-rule:nonzero;stroke:none"
     d="m 366.90556,37.828302 c -0.473,-0.558 -3.276,-2.198 -3.937,-2.542 -0.584,-0.312 -1.391,-1.141 -2.313,-0.448 -0.38,0.276 -0.728,0.943 -0.791,1.26 -0.057,0.256 0.172,0.491 0.531,0.636 0.62,0.26 0.896,0.094 2.098,0.511 0,0 0.308,0.057 0.85,0.115 1.614,0.213 0.926,-0.027 3.202,0.79 0.163,0.058 0.334,-0.057 0.371,-0.172 0.041,-0.176 -0.011,-0.15 -0.011,-0.15"
     id="path341" />
  <path
     style="fill:none;stroke:#231f20;stroke-width:0.565977;stroke-linecap:round;stroke-linejoin:round;stroke-miterlimit:4;stroke-dasharray:none;stroke-opacity:1"
     d="m 366.90556,37.828302 c -0.473,-0.558 -3.276,-2.198 -3.937,-2.542 -0.584,-0.312 -1.391,-1.141 -2.313,-0.448 -0.38,0.276 -0.728,0.943 -0.791,1.26 -0.057,0.256 0.172,0.491 0.531,0.636 0.62,0.26 0.896,0.094 2.098,0.511 0,0 0.308,0.057 0.85,0.115 1.614,0.213 0.926,-0.027 3.202,0.79 0.163,0.058 0.334,-0.057 0.371,-0.172 0.041,-0.176 -0.011,-0.15 -0.011,-0.15 z"
     id="path342" />
  <path
     style="fill:#231f20;fill-opacity:1;fill-rule:nonzero;stroke:none"
     d="m 361.05156,42.926302 c -0.667,-0.072 -0.64,-1.514 -2.015,-2.426 -0.281,-0.188 -0.349,-0.468 -0.491,-0.719 -0.536,-1.027 -0.186,-2.355 3.215,-1.317 0.468,0.145 1.624,1.338 2.359,1.505 1.74,0.38 2.505,2.817 2,3.104 -1.083,0.625 -5.068,-0.147 -5.068,-0.147"
     id="path343" />
  <path
     style="fill:none;stroke:#231f20;stroke-width:0.599269;stroke-linecap:round;stroke-linejoin:round;stroke-miterlimit:4;stroke-dasharray:none;stroke-opacity:1"
     d="m 361.05156,42.926302 c -0.667,-0.072 -0.64,-1.514 -2.015,-2.426 -0.281,-0.188 -0.349,-0.468 -0.491,-0.719 -0.536,-1.027 -0.186,-2.355 3.215,-1.317 0.468,0.145 1.624,1.338 2.359,1.505 1.74,0.38 2.505,2.817 2,3.104 -1.083,0.625 -5.068,-0.147 -5.068,-0.147 z"
     id="path344" />
  <path
     style="fill:#231f20;fill-opacity:1;fill-rule:nonzero;stroke:none"
     d="m 346.81756,27.360302 c 1.282,0.785 7.354,6.718 7.354,6.718 0.51,1.099 -1.708,3.167 -1.708,3.167 -1.927,0.077 -11.808,-3.849 -12.536,-5.1 -0.73,-1.26 1.916,-5.333 3.156,-5.52 1.244,-0.188 3.734,0.735 3.734,0.735"
     id="path345" />
  <path
     style="fill:none;stroke:#231f20;stroke-width:0.565977;stroke-linecap:butt;stroke-linejoin:miter;stroke-miterlimit:4;stroke-dasharray:none;stroke-opacity:1"
     d="m 346.81756,27.360302 c 1.282,0.785 7.354,6.718 7.354,6.718 0.51,1.099 -1.708,3.167 -1.708,3.167 -1.927,0.077 -11.808,-3.849 -12.536,-5.1 -0.73,-1.26 1.916,-5.333 3.156,-5.52 1.244,-0.188 3.734,0.735 3.734,0.735 z"
     id="path346" />
  <path
     style="fill:#231f20;fill-opacity:1;fill-rule:nonzero;stroke:none"
     d="m 353.74456,34.464302 c 0.416,-0.432 -0.453,-1.074 1.244,-0.178 1.876,0.995 5.579,4.224 5.881,5.255 0.302,1.032 0.01,1.063 -0.729,1.453 -0.751,0.391 -4.912,-1.536 -5.713,-1.338 -0.792,0.204 -2.011,-1.823 -2.167,-2.474 -0.152,-0.656 1.484,-2.718 1.484,-2.718"
     id="path347" />
  <path
     style="fill:none;stroke:#231f20;stroke-width:0.565977;stroke-linecap:butt;stroke-linejoin:miter;stroke-miterlimit:4;stroke-dasharray:none;stroke-opacity:1"
     d="m 353.74456,34.464302 c 0.416,-0.432 -0.453,-1.074 1.244,-0.178 1.876,0.995 5.579,4.224 5.881,5.255 0.302,1.032 0.01,1.063 -0.729,1.453 -0.751,0.391 -4.912,-1.536 -5.713,-1.338 -0.792,0.204 -2.011,-1.823 -2.167,-2.474 -0.152,-0.656 1.484,-2.718 1.484,-2.718 z"
     id="path348" />
  <path
     style="fill:#63c99d;fill-opacity:1;fill-rule:nonzero;stroke:none"
     d="m 337.72356,25.641302 c -1.818,1.353 -2.287,2.927 -1.954,4.197 0.387,1.407 1.678,3.588 5.272,3.459 l 4.646,-6.573 c -3.198,-1.995 -5.844,-2.667 -7.964,-1.083"
     id="path349" />
  <path
     style="fill:none;stroke:#231f20;stroke-width:0.565977;stroke-linecap:butt;stroke-linejoin:miter;stroke-miterlimit:4;stroke-dasharray:none;stroke-opacity:1"
     d="m 337.72356,25.641302 c -1.818,1.353 -2.287,2.927 -1.954,4.197 0.387,1.407 1.678,3.588 5.272,3.459 l 4.646,-6.573 c -3.198,-1.995 -5.844,-2.667 -7.964,-1.083 z"
     id="path350" />
  <path
     style="fill:#ffffff;fill-opacity:1;fill-rule:nonzero;stroke:none"
     d="m 381.98856,41.865302 c 0.079,-0.224 1.224,-0.147 1.303,-0.663 0.078,-0.525 -0.651,-0.828 -1.235,-2.733 l -0.005,-0.021 c -0.375,-1.402 -1.271,-2.474 -2.495,-2.755 -2.025,-0.464 -4.177,1.395 -4.812,4.14 -0.636,2.76 0.5,5.365 2.516,5.833 1.937,0.448 4,-1.234 4.728,-3.801"
     id="path351" />
  <path
     style="fill:none;stroke:#231f20;stroke-width:0.565977;stroke-linecap:butt;stroke-linejoin:miter;stroke-miterlimit:4;stroke-dasharray:none;stroke-opacity:1"
     d="m 381.98856,41.865302 c 0.079,-0.224 1.224,-0.147 1.303,-0.663 0.078,-0.525 -0.651,-0.828 -1.235,-2.733 l -0.005,-0.021 c -0.375,-1.402 -1.271,-2.474 -2.495,-2.755 -2.025,-0.464 -4.177,1.395 -4.812,4.14 -0.636,2.76 0.5,5.365 2.516,5.833 1.937,0.448 4,-1.234 4.728,-3.801 z"
     id="path352" />
  <path
     style="fill:#231f20;fill-opacity:1;fill-rule:nonzero;stroke:none"
     d="m 396.46856,53.385302 c -0.579,0.276 -2.469,-0.224 -4.057,-0.016 -1.079,0.141 -3.708,-0.64 -4.766,-0.421 -0.974,0.197 -1.442,0.202 -1.86,-0.87 -0.254,-0.636 -0.322,-2.021 0.147,-2.229 1.083,-0.489 2.025,-0.511 3.077,-0.303 1.199,0.23 4.375,1.142 4.948,1.36 1.418,0.558 2.126,0.344 2.511,0.454 0.729,0.213 0.833,0.546 0.801,1.046 -0.061,0.959 -0.801,0.979 -0.801,0.979"
     id="path353" />
  <path
     style="fill:none;stroke:#231f20;stroke-width:0.565977;stroke-linecap:butt;stroke-linejoin:miter;stroke-miterlimit:4;stroke-dasharray:none;stroke-opacity:1"
     d="m 396.46856,53.385302 c -0.579,0.276 -2.469,-0.224 -4.057,-0.016 -1.079,0.141 -3.708,-0.64 -4.766,-0.421 -0.974,0.197 -1.442,0.202 -1.86,-0.87 -0.254,-0.636 -0.322,-2.021 0.147,-2.229 1.083,-0.489 2.025,-0.511 3.077,-0.303 1.199,0.23 4.375,1.142 4.948,1.36 1.418,0.558 2.126,0.344 2.511,0.454 0.729,0.213 0.833,0.546 0.801,1.046 -0.061,0.959 -0.801,0.979 -0.801,0.979 z"
     id="path354" />
  <path
     style="fill:#231f20;fill-opacity:1;fill-rule:nonzero;stroke:none"
     d="m 387.46856,52.292302 c -0.292,1.265 -2.156,0.448 -2.677,0.306 -0.531,-0.14 -2.068,-0.374 -3.287,-0.396 -1.229,-0.025 -2.744,-0.582 -5.072,-0.634 -1.22,-0.032 -2.391,-0.834 -2.276,-2.604 0.113,-1.756 1.14,-2.355 2.619,-2.095 1.474,0.256 2.75,1.125 4.218,1.485 1.464,0.364 2.995,0.599 4.21,0.724 1.369,0.14 2,0.719 2.134,1.182 0.355,1.146 0.131,2.032 0.131,2.032"
     id="path355" />
  <path
     style="fill:none;stroke:#231f20;stroke-width:0.565977;stroke-linecap:butt;stroke-linejoin:miter;stroke-miterlimit:4;stroke-dasharray:none;stroke-opacity:1"
     d="m 387.46856,52.292302 c -0.292,1.265 -2.156,0.448 -2.677,0.306 -0.531,-0.14 -2.068,-0.374 -3.287,-0.396 -1.229,-0.025 -2.744,-0.582 -5.072,-0.634 -1.22,-0.032 -2.391,-0.834 -2.276,-2.604 0.113,-1.756 1.14,-2.355 2.619,-2.095 1.474,0.256 2.75,1.125 4.218,1.485 1.464,0.364 2.995,0.599 4.21,0.724 1.369,0.14 2,0.719 2.134,1.182 0.355,1.146 0.131,2.032 0.131,2.032 z"
     id="path356" />
  <path
     style="fill:#231f20;fill-opacity:1;fill-rule:nonzero;stroke:none"
     d="m 398.06756,49.724302 c 1.177,0.021 2.114,0.989 2.093,2.172 -0.02,1.177 -0.995,2.12 -2.172,2.098 -1.176,-0.02 -2.113,-1 -2.093,-2.177 0.021,-1.176 0.989,-2.115 2.172,-2.093"
     id="path357" />
  <path
     style="fill:#231f20;fill-opacity:1;fill-rule:nonzero;stroke:#231f20;stroke-width:0.565977;stroke-linecap:round;stroke-linejoin:round;stroke-miterlimit:4;stroke-dasharray:none;stroke-opacity:1"
     d="m 204.16056,8.0320018 c 0,0 -0.593,1.176 -0.582,2.3373002 0.016,1.1667 0.552,2.412 0.552,2.412 l 3.292,0.0107 0.02,-4.7867002 z"
     id="path358" />
  <path
     style="fill:#231f20;fill-opacity:1;fill-rule:nonzero;stroke:none"
     d="m 221.82756,12.541302 c -1.244,3.3853 0.417,3.6467 3.781,5.9587 3.672,2.5319 7.776,4.7759 11.006,5.4423 3.609,0.751 3.677,1.266 4.917,-0.202 1.235,-1.4644 0.645,-1.9857 0.359,-3.2404 -0.334,-1.4533 -7.458,-3.3066 -11.271,-6.1399 -1.792,-1.328 -5.219,-5.6667002 -6.328,-4.7294002 -1.115,0.9320002 -2.464,2.9107002 -2.464,2.9107002"
     id="path359" />
  <path
     style="fill:none;stroke:#231f20;stroke-width:0.565977;stroke-linecap:butt;stroke-linejoin:miter;stroke-miterlimit:4;stroke-dasharray:none;stroke-opacity:1"
     d="m 221.82756,12.541302 c -1.244,3.3853 0.417,3.6467 3.781,5.9587 3.672,2.5319 7.776,4.7759 11.006,5.4423 3.609,0.751 3.677,1.266 4.917,-0.202 1.235,-1.4644 0.645,-1.9857 0.359,-3.2404 -0.334,-1.4533 -7.458,-3.3066 -11.271,-6.1399 -1.792,-1.328 -5.219,-5.6667002 -6.328,-4.7294002 -1.115,0.9320002 -2.464,2.9107002 -2.464,2.9107002 z"
     id="path360" />
  <path
     style="fill:#231f20;fill-opacity:1;fill-rule:nonzero;stroke:none"
     d="m 240.28056,21.859902 c -1.244,1.8854 -1.634,2.4214 0.642,3.4574 0.582,0.261 2.249,0.876 2.546,1.125 0.995,0.839 2.219,1.724 8.667,3.058 1,0.208 2.839,0.926 4.183,1.328 1.301,0.385 1.066,-2.036 0.557,-2.198 -1.641,-0.505 -2.584,-1.193 -3.152,-1.453 -0.38,-0.177 -1.161,-0.396 -2.453,-1.448 -3.318,-2.7027 -5.067,-2.2974 -5.812,-2.8027 -2.131,-1.448 -3.662,-3.1347 -4.208,-2.744 -0.891,0.6093 -0.97,1.6773 -0.97,1.6773"
     id="path361" />
  <path
     style="fill:none;stroke:#231f20;stroke-width:0.565977;stroke-linecap:butt;stroke-linejoin:miter;stroke-miterlimit:4;stroke-dasharray:none;stroke-opacity:1"
     d="m 240.28056,21.859902 c -1.244,1.8854 -1.634,2.4214 0.642,3.4574 0.582,0.261 2.249,0.876 2.546,1.125 0.995,0.839 2.219,1.724 8.667,3.058 1,0.208 2.839,0.926 4.183,1.328 1.301,0.385 1.066,-2.036 0.557,-2.198 -1.641,-0.505 -2.584,-1.193 -3.152,-1.453 -0.38,-0.177 -1.161,-0.396 -2.453,-1.448 -3.318,-2.7027 -5.067,-2.2974 -5.812,-2.8027 -2.131,-1.448 -3.662,-3.1347 -4.208,-2.744 -0.891,0.6093 -0.97,1.6773 -0.97,1.6773 z"
     id="path362" />
  <path
     style="fill:#231f20;fill-opacity:1;fill-rule:nonzero;stroke:none"
     d="m 221.98856,9.6720018 c 0.835,-3.516 2.371,-2.812 6.444,-2.8747 4.452,-0.068 9.119,0.3387 12.176,1.568 3.423,1.3693 3.771,0.9787 3.98,2.8853002 0.219,1.9054 -0.552,2.02 -1.494,2.9054 -1.084,1.016 -8.043,-1.38 -12.787,-1.14 -2.224,0.1146 -7.475,1.8333 -7.885,0.4426 -0.407,-1.396 -0.434,-3.7866002 -0.434,-3.7866002"
     id="path363" />
  <path
     style="fill:none;stroke:#231f20;stroke-width:0.565977;stroke-linecap:butt;stroke-linejoin:miter;stroke-miterlimit:4;stroke-dasharray:none;stroke-opacity:1"
     d="m 221.98856,9.6720018 c 0.835,-3.516 2.371,-2.812 6.444,-2.8747 4.452,-0.068 9.119,0.3387 12.176,1.568 3.423,1.3693 3.771,0.9787 3.98,2.8853002 0.219,1.9054 -0.552,2.02 -1.494,2.9054 -1.084,1.016 -8.043,-1.38 -12.787,-1.14 -2.224,0.1146 -7.475,1.8333 -7.885,0.4426 -0.407,-1.396 -0.434,-3.7866002 -0.434,-3.7866002 z"
     id="path364" />
  <path
     style="fill:#231f20;fill-opacity:1;fill-rule:nonzero;stroke:none"
     d="m 242.49956,12.104002 c 0.021,-2.2600002 -0.009,-2.9214002 2.464,-2.5107002 0.625,0.1093 2.349,0.5320002 2.74,0.4853002 1.291,-0.1360002 2.801,-0.1933002 8.891,2.312 0.942,0.3854 2.869,0.812 4.213,1.2347 1.296,0.4013 -0.251,2.2813 -0.761,2.1253 -1.646,-0.4946 -2.807,-0.448 -3.427,-0.548 -0.421,-0.072 -1.187,-0.328 -2.844,-0.1706 -4.26,0.3893 -5.479,-0.928 -6.385,-0.9227 -2.578,0.0107 -4.787,0.5573 -5.026,-0.068 -0.396,-1.0093 0.135,-1.9373 0.135,-1.9373"
     id="path365" />
  <path
     style="fill:none;stroke:#231f20;stroke-width:0.565977;stroke-linecap:butt;stroke-linejoin:miter;stroke-miterlimit:4;stroke-dasharray:none;stroke-opacity:1"
     d="m 242.49956,12.104002 c 0.021,-2.2600002 -0.009,-2.9214002 2.464,-2.5107002 0.625,0.1093 2.349,0.5320002 2.74,0.4853002 1.291,-0.1360002 2.801,-0.1933002 8.891,2.312 0.942,0.3854 2.869,0.812 4.213,1.2347 1.296,0.4013 -0.251,2.2813 -0.761,2.1253 -1.646,-0.4946 -2.807,-0.448 -3.427,-0.548 -0.421,-0.072 -1.187,-0.328 -2.844,-0.1706 -4.26,0.3893 -5.479,-0.928 -6.385,-0.9227 -2.578,0.0107 -4.787,0.5573 -5.026,-0.068 -0.396,-1.0093 0.135,-1.9373 0.135,-1.9373 z"
     id="path366" />
  <path
     style="fill:#231f20;fill-opacity:1;fill-rule:nonzero;stroke:none"
     d="m 264.29656,13.234602 c -0.568,-0.3493 -2.016,0.7294 -3.978,0.568 -0.402,-0.0266 -0.746,0.1294 -1.1,0.2387 -1.448,0.4227 -2.52,1.6093 1.084,2.8813 0.505,0.1707 2.598,-0.0053 3.306,0.3014 1.71,0.7653 4.762,-0.5627 4.667,-1.068 -0.181,-1.1094 -3.979,-2.9214 -3.979,-2.9214"
     id="path367" />
  <path
     style="fill:none;stroke:#231f20;stroke-width:0.644548;stroke-linecap:round;stroke-linejoin:round;stroke-miterlimit:4;stroke-dasharray:none;stroke-opacity:1"
     d="m 264.29656,13.234602 c -0.568,-0.3493 -2.016,0.7294 -3.978,0.568 -0.402,-0.0266 -0.746,0.1294 -1.1,0.2387 -1.448,0.4227 -2.52,1.6093 1.084,2.8813 0.505,0.1707 2.598,-0.0053 3.306,0.3014 1.71,0.7653 4.762,-0.5627 4.667,-1.068 -0.181,-1.1094 -3.979,-2.9214 -3.979,-2.9214 z"
     id="path368" />
  <path
     style="fill:#231f20;fill-opacity:1;fill-rule:nonzero;stroke:none"
     d="m 259.08356,33.417302 c -0.661,0 -1.339,-1.672 -3.095,-2.563 -0.358,-0.188 -0.552,-0.5 -0.812,-0.776 -1.01,-1.125 -1.301,-2.693 2.438,-1.88 0.51,0.11 2.198,1.359 2.98,1.468 1.842,0.24 3.754,2.964 3.405,3.355 -0.729,0.839 -4.916,0.396 -4.916,0.396"
     id="path369" />
  <path
     style="fill:none;stroke:#231f20;stroke-width:0.644548;stroke-linecap:round;stroke-linejoin:round;stroke-miterlimit:4;stroke-dasharray:none;stroke-opacity:1"
     d="m 259.08356,33.417302 c -0.661,0 -1.339,-1.672 -3.095,-2.563 -0.358,-0.188 -0.552,-0.5 -0.812,-0.776 -1.01,-1.125 -1.301,-2.693 2.438,-1.88 0.51,0.11 2.198,1.359 2.98,1.468 1.842,0.24 3.754,2.964 3.405,3.355 -0.729,0.839 -4.916,0.396 -4.916,0.396 z"
     id="path370" />
  <path
     style="fill:#63c99d;fill-opacity:1;fill-rule:nonzero;stroke:none"
     d="m 229.04656,12.385302 c -0.042,0.4947 -0.526,1.0627 -0.526,1.0627 0,0 -7.432,-1.3067 -9.161,1.276 l -0.047,0.3546 c 0.782,0.9734 0.334,0.2494 -0.406,0.2027 -5.474,-0.7347 -8.131,1.4587 -9.344,2.016 -1.667,0.7653 -2.396,3.2866 -4.183,2.068 0,0 -1.785,-0.772 -1.192,-3.516 0.219,-0.9947 -0.308,-3.26 -0.308,-3.26 0.043,0.0147 0.079,0.0253 0.12,0.0307 1.251,0.104 2.052,-0.896 2.183,-2.2294 l -0.006,0.0787 c 0.094,-1.3387002 -0.582,-2.4693002 -1.77,-2.5680002 -0.047,-0.0053 -0.084,0 -0.126,0.0053 0,0 0.902,-2.1466 0.86,-3.1613 -0.068,-1.7186 0.755,-0.8906 0.755,-0.8906 1.975,-0.9014 3.271,-0.652 4.781,0.38 1.104,0.7546 2.136,0.3746 5.37,0.7186 0.74,0.0787 6.625,1.068 5.688,1.896 l -0.011,0.3587 c 1.265,2.8440002 6.985,4.0426002 6.985,4.0426002 0,0 0.38,0.6454 0.338,1.1347"
     id="path371" />
  <path
     style="fill:none;stroke:#231f20;stroke-width:0.565977;stroke-linecap:round;stroke-linejoin:round;stroke-miterlimit:4;stroke-dasharray:none;stroke-opacity:1"
     d="m 229.04656,12.385302 c -0.042,0.4947 -0.526,1.0627 -0.526,1.0627 0,0 -7.432,-1.3067 -9.161,1.276 l -0.047,0.3546 c 0.782,0.9734 0.334,0.2494 -0.406,0.2027 -5.474,-0.7347 -8.131,1.4587 -9.344,2.016 -1.667,0.7653 -2.396,3.2866 -4.183,2.068 0,0 -1.785,-0.772 -1.192,-3.516 0.219,-0.9947 -0.308,-3.26 -0.308,-3.26 0.043,0.0147 0.079,0.0253 0.12,0.0307 1.251,0.104 2.052,-0.896 2.183,-2.2294 l -0.006,0.0787 c 0.094,-1.3387002 -0.582,-2.4693002 -1.77,-2.5680002 -0.047,-0.0053 -0.084,0 -0.126,0.0053 0,0 0.902,-2.1466 0.86,-3.1613 -0.068,-1.7186 0.755,-0.8906 0.755,-0.8906 1.975,-0.9014 3.271,-0.652 4.781,0.38 1.104,0.7546 2.136,0.3746 5.37,0.7186 0.74,0.0787 6.625,1.068 5.688,1.896 l -0.011,0.3587 c 1.265,2.8440002 6.985,4.0426002 6.985,4.0426002 0,0 0.38,0.6454 0.338,1.1347 z"
     id="path372" />
  <path
     style="fill:#63c99d;fill-opacity:1;fill-rule:nonzero;stroke:none"
     d="m 221.75056,6.2653018 c 0.322,-0.1346 1.645,-0.4786 2.104,-0.5466 2.942,-0.4067 6.76,0.604 8.03,0.6359 1.276,0.036 -0.338,6.4267002 -0.338,6.4267002 l -1.958,0.0107 c 0.318,0.5413 -0.224,0.9626 -0.224,0.9626 l 1.807,0.9067 c 0,0 -1.287,6.3333 -2.219,5.948 -1.292,-0.5214 -5.765,-1.6973 -7.754,-3.14 -1.079,-0.792 -1.552,-1.704 -1.552,-1.704 0,0 1.916,-3.2813 2.254,-4.672 0.334,-1.3853002 -0.15,-4.8280002 -0.15,-4.8280002"
     id="path373" />
  <path
     style="fill:none;stroke:#231f20;stroke-width:0.565977;stroke-linecap:butt;stroke-linejoin:miter;stroke-miterlimit:4;stroke-dasharray:none;stroke-opacity:1"
     d="m 221.75056,6.2653018 c 0.322,-0.1346 1.645,-0.4786 2.104,-0.5466 2.942,-0.4067 6.76,0.604 8.03,0.6359 1.276,0.036 -0.338,6.4267002 -0.338,6.4267002 l -1.958,0.0107 c 0.318,0.5413 -0.224,0.9626 -0.224,0.9626 l 1.807,0.9067 c 0,0 -1.287,6.3333 -2.219,5.948 -1.292,-0.5214 -5.765,-1.6973 -7.754,-3.14 -1.079,-0.792 -1.552,-1.704 -1.552,-1.704 0,0 1.916,-3.2813 2.254,-4.672 0.334,-1.3853002 -0.15,-4.8280002 -0.15,-4.8280002 z"
     id="path374" />
  <path
     style="fill:#ffffff;fill-opacity:1;fill-rule:nonzero;stroke:none"
     d="m 199.01056,5.9587018 c 2.813,-0.156 5.198,1.3959 5.317,3.4679 0.109,2.0680002 -2.077,3.8814002 -4.895,4.0427002 -2.824,0.1613 -5.209,-1.3907 -5.318,-3.464 -0.12,-2.0733002 2.073,-3.8906002 4.896,-4.0466002"
     id="path375" />
  <path
     style="fill:none;stroke:#231f20;stroke-width:0.565977;stroke-linecap:butt;stroke-linejoin:miter;stroke-miterlimit:4;stroke-dasharray:none;stroke-opacity:1"
     d="m 199.01056,5.9587018 c 2.813,-0.156 5.198,1.3959 5.317,3.4679 0.109,2.0680002 -2.077,3.8814002 -4.895,4.0427002 -2.824,0.1613 -5.209,-1.3907 -5.318,-3.464 -0.12,-2.0733002 2.073,-3.8906002 4.896,-4.0466002 z"
     id="path376" />
  <path
     style="fill:none;stroke:#231f20;stroke-width:0.399514;stroke-linecap:butt;stroke-linejoin:miter;stroke-miterlimit:4;stroke-dasharray:none;stroke-opacity:1"
     d="m 239.92756,26.922302 c 17.577,-19.8183002 8.109,-29.1250002 0.359,-25.8543002"
     id="path377" />
  <path
     style="fill:#231f20;fill-opacity:1;fill-rule:nonzero;stroke:none"
     d="m 239.17656,1.5360018 c 0.438,-0.4107 0.948,-1.02000004 1.199,-1.5360000447373 l 0.057,1.0107000447373 0.687,0.74 c -0.552,-0.1827 -1.339,-0.24 -1.943,-0.2147"
     id="path378" />
  <path
     style="fill:#231f20;fill-opacity:1;fill-rule:nonzero;stroke:none"
     d="m 207.45256,37.437302 c -0.224,-0.604 0.47,-2.421 0.423,-4.031 -0.043,-1.084 1.004,-3.625 0.885,-4.698 -0.105,-0.995 -0.057,-1.452 1.052,-1.766 0.656,-0.192 2.036,-0.12 2.208,0.366 0.364,1.124 0.292,2.072 -0.005,3.098 -0.355,1.162 -1.579,4.239 -1.855,4.787 -0.697,1.353 -0.552,2.083 -0.702,2.443 -0.276,0.724 -0.626,0.785 -1.12,0.697 -0.943,-0.151 -0.886,-0.896 -0.886,-0.896"
     id="path379" />
  <path
     style="fill:none;stroke:#231f20;stroke-width:0.565977;stroke-linecap:butt;stroke-linejoin:miter;stroke-miterlimit:4;stroke-dasharray:none;stroke-opacity:1"
     d="m 207.45256,37.437302 c -0.224,-0.604 0.47,-2.421 0.423,-4.031 -0.043,-1.084 1.004,-3.625 0.885,-4.698 -0.105,-0.995 -0.057,-1.452 1.052,-1.766 0.656,-0.192 2.036,-0.12 2.208,0.366 0.364,1.124 0.292,2.072 -0.005,3.098 -0.355,1.162 -1.579,4.239 -1.855,4.787 -0.697,1.353 -0.552,2.083 -0.702,2.443 -0.276,0.724 -0.626,0.785 -1.12,0.697 -0.943,-0.151 -0.886,-0.896 -0.886,-0.896 z"
     id="path380" />
  <path
     style="fill:#231f20;fill-opacity:1;fill-rule:nonzero;stroke:none"
     d="m 209.88456,29.182302 c -1.208,0.484 -1.588,-1.521 -1.77,-2.021 -0.187,-0.516 -0.88,-1.911 -1.558,-2.927 -0.672,-1.021 -1.082,-2.5837 -2.364,-4.5264 -0.672,-1.0199 -0.693,-2.4373 0.834,-3.3533 1.505,-0.9066 2.582,-0.4066 3.218,0.9627 0.626,1.3547 0.64,2.896 1.188,4.308 0.536,1.4066 1.214,2.796 1.796,3.864 0.667,1.209 0.547,2.057 0.251,2.433 -0.735,0.943 -1.595,1.26 -1.595,1.26"
     id="path381" />
  <path
     style="fill:none;stroke:#231f20;stroke-width:0.565977;stroke-linecap:butt;stroke-linejoin:miter;stroke-miterlimit:4;stroke-dasharray:none;stroke-opacity:1"
     d="m 209.88456,29.182302 c -1.208,0.484 -1.588,-1.521 -1.77,-2.021 -0.187,-0.516 -0.88,-1.911 -1.558,-2.927 -0.672,-1.021 -1.082,-2.5837 -2.364,-4.5264 -0.672,-1.0199 -0.693,-2.4373 0.834,-3.3533 1.505,-0.9066 2.582,-0.4066 3.218,0.9627 0.626,1.3547 0.64,2.896 1.188,4.308 0.536,1.4066 1.214,2.796 1.796,3.864 0.667,1.209 0.547,2.057 0.251,2.433 -0.735,0.943 -1.595,1.26 -1.595,1.26 z"
     id="path382" />
  <path
     style="fill:#231f20;fill-opacity:1;fill-rule:nonzero;stroke:none"
     d="m 206.90056,43.614302 c 0.49,-0.557 1.642,-3.588 1.875,-4.292 0.213,-0.629 0.912,-1.557 0.073,-2.358 -0.333,-0.334 -1.046,-0.568 -1.374,-0.584 -0.256,-0.011 -0.448,0.245 -0.538,0.641 -0.156,0.645 0.048,0.891 -0.17,2.151 0,0 -0.006,0.302 0.02,0.849 0.052,1.624 0.182,0.905 -0.26,3.291 -0.036,0.162 0.109,0.324 0.224,0.338 0.182,0.011 0.15,-0.036 0.15,-0.036"
     id="path383" />
  <path
     style="fill:none;stroke:#231f20;stroke-width:0.565977;stroke-linecap:round;stroke-linejoin:round;stroke-miterlimit:4;stroke-dasharray:none;stroke-opacity:1"
     d="m 206.90056,43.614302 c 0.49,-0.557 1.642,-3.588 1.875,-4.292 0.213,-0.629 0.912,-1.557 0.073,-2.358 -0.333,-0.334 -1.046,-0.568 -1.374,-0.584 -0.256,-0.011 -0.448,0.245 -0.538,0.641 -0.156,0.645 0.048,0.891 -0.17,2.151 0,0 -0.006,0.302 0.02,0.849 0.052,1.624 0.182,0.905 -0.26,3.291 -0.036,0.162 0.109,0.324 0.224,0.338 0.182,0.011 0.15,-0.036 0.15,-0.036 z"
     id="path384" />
  <path
     style="fill:#231f20;fill-opacity:1;fill-rule:nonzero;stroke:none"
     d="m 219.67656,17.661302 c -0.51,-0.3907 -0.88,-2.3013 -1.77,-3.64 -0.604,-0.9013 -1.058,-3.6093 -1.73,-4.4640002 -0.609,-0.7867 -0.812,-1.2027 -0.036,-2.052 0.459,-0.5107 1.667,-1.172 2.072,-0.8547 0.902,0.7614 1.339,1.6054 1.631,2.636 0.308,1.1720002 0.896,4.4267002 0.948,5.0414002 0.125,1.5213 0.625,2.0626 0.699,2.448 0.14,0.756 -0.12,1 -0.584,1.1826 -0.886,0.3694 -1.23,-0.2973 -1.23,-0.2973"
     id="path385" />
  <path
     style="fill:none;stroke:#231f20;stroke-width:0.565977;stroke-linecap:butt;stroke-linejoin:miter;stroke-miterlimit:4;stroke-dasharray:none;stroke-opacity:1"
     d="m 219.67656,17.661302 c -0.51,-0.3907 -0.88,-2.3013 -1.77,-3.64 -0.604,-0.9013 -1.058,-3.6093 -1.73,-4.4640002 -0.609,-0.7867 -0.812,-1.2027 -0.036,-2.052 0.459,-0.5107 1.667,-1.172 2.072,-0.8547 0.902,0.7614 1.339,1.6054 1.631,2.636 0.308,1.1720002 0.896,4.4267002 0.948,5.0414002 0.125,1.5213 0.625,2.0626 0.699,2.448 0.14,0.756 -0.12,1 -0.584,1.1826 -0.886,0.3694 -1.23,-0.2973 -1.23,-0.2973 z"
     id="path386" />
  <path
     style="fill:#231f20;fill-opacity:1;fill-rule:nonzero;stroke:none"
     d="m 217.78656,8.9533018 c -0.464,1.2133002 -2.198,0.1347 -2.692,-0.068 -0.506,-0.2133 -2,-0.6453 -3.204,-0.844 -1.214,-0.1867 -2.64,-0.948 -4.938,-1.3173 -1.202,-0.2027 -2.26,-1.1453 -1.901,-2.8907 0.355,-1.7186 1.453,-2.172 2.885,-1.7133 1.423,0.4587 2.568,1.4893 3.98,2.0467 1.396,0.5573 2.88,1 4.063,1.292 1.339,0.3333 1.88,0.9946 1.953,1.4639 0.198,1.176 -0.146,2.0307 -0.146,2.0307"
     id="path387" />
  <path
     style="fill:none;stroke:#231f20;stroke-width:0.565977;stroke-linecap:butt;stroke-linejoin:miter;stroke-miterlimit:4;stroke-dasharray:none;stroke-opacity:1"
     d="m 217.78656,8.9533018 c -0.464,1.2133002 -2.198,0.1347 -2.692,-0.068 -0.506,-0.2133 -2,-0.6453 -3.204,-0.844 -1.214,-0.1867 -2.64,-0.948 -4.938,-1.3173 -1.202,-0.2027 -2.26,-1.1453 -1.901,-2.8907 0.355,-1.7186 1.453,-2.172 2.885,-1.7133 1.423,0.4587 2.568,1.4893 3.98,2.0467 1.396,0.5573 2.88,1 4.063,1.292 1.339,0.3333 1.88,0.9946 1.953,1.4639 0.198,1.176 -0.146,2.0307 -0.146,2.0307 z"
     id="path388" />
  <path
     style="fill:#231f20;fill-opacity:1;fill-rule:nonzero;stroke:none"
     d="m 222.46856,23.202602 c 0.115,-0.728 -0.505,-3.916 -0.672,-4.6346 -0.156,-0.6454 -0.052,-1.8027 -1.182,-2.0467 -0.463,-0.1 -1.192,0.0773 -1.479,0.2333 -0.224,0.1254 -0.251,0.448 -0.12,0.8294 0.213,0.6293 0.511,0.728 0.995,1.9106 0,0 0.15,0.26 0.464,0.7187 0.901,1.3546 0.634,0.672 1.514,2.928 0.058,0.156 0.267,0.2133 0.371,0.1666 0.156,-0.0786 0.109,-0.1053 0.109,-0.1053"
     id="path389" />
  <path
     style="fill:none;stroke:#231f20;stroke-width:0.565977;stroke-linecap:round;stroke-linejoin:round;stroke-miterlimit:4;stroke-dasharray:none;stroke-opacity:1"
     d="m 222.46856,23.202602 c 0.115,-0.728 -0.505,-3.916 -0.672,-4.6346 -0.156,-0.6454 -0.052,-1.8027 -1.182,-2.0467 -0.463,-0.1 -1.192,0.0773 -1.479,0.2333 -0.224,0.1254 -0.251,0.448 -0.12,0.8294 0.213,0.6293 0.511,0.728 0.995,1.9106 0,0 0.15,0.26 0.464,0.7187 0.901,1.3546 0.634,0.672 1.514,2.928 0.058,0.156 0.267,0.2133 0.371,0.1666 0.156,-0.0786 0.109,-0.1053 0.109,-0.1053 z"
     id="path390" />
  <path
     style="fill:none;stroke:#231f20;stroke-width:2.2639;stroke-linecap:butt;stroke-linejoin:miter;stroke-miterlimit:4;stroke-dasharray:29.574, 29.574, 29.574, 29.574, 29.574, 29.574;stroke-dashoffset:0;stroke-opacity:1"
     d="m 436.18656,13.234602 v 31.3547"
     id="path391" />
  <path
     style="fill:none;stroke:#231f20;stroke-width:2.2639;stroke-linecap:butt;stroke-linejoin:miter;stroke-miterlimit:4;stroke-dasharray:29.574, 29.574, 29.574, 29.574, 29.574, 29.574;stroke-dashoffset:0;stroke-opacity:1"
     d="m 436.18656,64.136302 v 31.353"
     id="path392" />
  <path
     style="fill:#231f20;fill-opacity:1;fill-rule:nonzero;stroke:none"
     d="m 32.422563,53.161302 c 0.541,0.339 2.468,0.032 4.031,0.412 1.052,0.249 3.756,-0.251 4.781,0.083 0.948,0.302 1.412,0.349 1.943,-0.667 0.317,-0.609 0.532,-1.979 0.089,-2.235 -1.027,-0.598 -1.964,-0.718 -3.032,-0.624 -1.208,0.104 -4.468,0.672 -5.063,0.834 -1.462,0.405 -2.145,0.12 -2.546,0.186 -0.749998,0.136 -0.879998,0.459 -0.906998,0.959 -0.036,0.953 0.703998,1.052 0.703998,1.052"
     id="path393" />
  <path
     style="fill:none;stroke:#231f20;stroke-width:0.565977;stroke-linecap:butt;stroke-linejoin:miter;stroke-miterlimit:4;stroke-dasharray:none;stroke-opacity:1"
     d="m 32.422563,53.161302 c 0.541,0.339 2.468,0.032 4.031,0.412 1.052,0.249 3.756,-0.251 4.781,0.083 0.948,0.302 1.412,0.349 1.943,-0.667 0.317,-0.609 0.532,-1.979 0.089,-2.235 -1.027,-0.598 -1.964,-0.718 -3.032,-0.624 -1.208,0.104 -4.468,0.672 -5.063,0.834 -1.462,0.405 -2.145,0.12 -2.546,0.186 -0.749998,0.136 -0.879998,0.459 -0.906998,0.959 -0.036,0.953 0.703998,1.052 0.703998,1.052 z"
     id="path394" />
  <path
     style="fill:#231f20;fill-opacity:1;fill-rule:nonzero;stroke:none"
     d="m 41.349563,53.052302 c 0.369,1.245 2.188,0.317 2.693,0.146 0.52,-0.177 2.041,-0.496 3.26,-0.594 1.224,-0.099 2.703,-0.744 5.02,-0.938 1.22,-0.093 2.344,-0.968 2.12,-2.729 -0.219,-1.744 -1.281,-2.276 -2.739,-1.927 -1.453,0.339 -2.677,1.282 -4.12,1.73 -1.442,0.448 -2.958,0.776 -4.156,0.973 -1.365,0.224 -1.958,0.839 -2.068,1.303 -0.281,1.166 -0.01,2.036 -0.01,2.036"
     id="path395" />
  <path
     style="fill:none;stroke:#231f20;stroke-width:0.565977;stroke-linecap:butt;stroke-linejoin:miter;stroke-miterlimit:4;stroke-dasharray:none;stroke-opacity:1"
     d="m 41.349563,53.052302 c 0.369,1.245 2.188,0.317 2.693,0.146 0.52,-0.177 2.041,-0.496 3.26,-0.594 1.224,-0.099 2.703,-0.744 5.02,-0.938 1.22,-0.093 2.344,-0.968 2.12,-2.729 -0.219,-1.744 -1.281,-2.276 -2.739,-1.927 -1.453,0.339 -2.677,1.282 -4.12,1.73 -1.442,0.448 -2.958,0.776 -4.156,0.973 -1.365,0.224 -1.958,0.839 -2.068,1.303 -0.281,1.166 -0.01,2.036 -0.01,2.036 z"
     id="path396" />
  <path
     style="fill:#231f20;fill-opacity:1;fill-rule:nonzero;stroke:none"
     d="m 30.843565,49.926302 c -1.166,0.188 -1.948,1.282 -1.76,2.448 0.187,1.162 1.287,1.954 2.448,1.762 1.166998,-0.188 1.953998,-1.287 1.765998,-2.448 -0.194,-1.162 -1.291998,-1.954 -2.453998,-1.762"
     id="path397" />
  <path
     style="fill:#231f20;fill-opacity:1;fill-rule:nonzero;stroke:none"
     d="m 122.63556,51.922302 c 0.594,0.239 2.443,-0.386 4.042,-0.281 1.084,0.067 3.656,-0.887 4.729,-0.735 0.984,0.135 1.453,0.11 1.803,-0.984 0.213,-0.657 0.181,-2.042 -0.292,-2.214 -1.115,-0.416 -2.063,-0.375 -3.094,-0.104 -1.177,0.308 -4.292,1.428 -4.854,1.688 -1.37,0.65 -2.09,0.484 -2.475,0.62 -0.713,0.26 -0.785,0.593 -0.724,1.093 0.12,0.953 0.865,0.917 0.865,0.917"
     id="path398" />
  <path
     style="fill:none;stroke:#231f20;stroke-width:0.565977;stroke-linecap:butt;stroke-linejoin:miter;stroke-miterlimit:4;stroke-dasharray:none;stroke-opacity:1"
     d="m 122.63556,51.922302 c 0.594,0.239 2.443,-0.386 4.042,-0.281 1.084,0.067 3.656,-0.887 4.729,-0.735 0.984,0.135 1.453,0.11 1.803,-0.984 0.213,-0.657 0.181,-2.042 -0.292,-2.214 -1.115,-0.416 -2.063,-0.375 -3.094,-0.104 -1.177,0.308 -4.292,1.428 -4.854,1.688 -1.37,0.65 -2.09,0.484 -2.475,0.62 -0.713,0.26 -0.785,0.593 -0.724,1.093 0.12,0.953 0.865,0.917 0.865,0.917 z"
     id="path399" />
  <path
     style="fill:#231f20;fill-opacity:1;fill-rule:nonzero;stroke:none"
     d="m 132.51056,50.120302 c 1.183,0.541 1.683,-1.432 1.891,-1.927 0.208,-0.505 0.969,-1.86 1.702,-2.839 0.735,-0.985 1.224,-2.526 2.61,-4.39 0.734,-0.98 0.818,-2.396 -0.651,-3.386 -1.453,-0.994 -2.552,-0.546 -3.255,0.776 -0.704,1.318 -0.802,2.854 -1.417,4.235 -0.615,1.38 -1.369,2.733 -2.015,3.76 -0.729,1.177 -0.666,2.025 -0.386,2.416 0.688,0.985 1.521,1.355 1.521,1.355"
     id="path400" />
  <path
     style="fill:none;stroke:#231f20;stroke-width:0.565977;stroke-linecap:butt;stroke-linejoin:miter;stroke-miterlimit:4;stroke-dasharray:none;stroke-opacity:1"
     d="m 132.51056,50.120302 c 1.183,0.541 1.683,-1.432 1.891,-1.927 0.208,-0.505 0.969,-1.86 1.702,-2.839 0.735,-0.985 1.224,-2.526 2.61,-4.39 0.734,-0.98 0.818,-2.396 -0.651,-3.386 -1.453,-0.994 -2.552,-0.546 -3.255,0.776 -0.704,1.318 -0.802,2.854 -1.417,4.235 -0.615,1.38 -1.369,2.733 -2.015,3.76 -0.729,1.177 -0.666,2.025 -0.386,2.416 0.688,0.985 1.521,1.355 1.521,1.355 z"
     id="path401" />
  <path
     style="fill:#231f20;fill-opacity:1;fill-rule:nonzero;stroke:none"
     d="m 120.53156,49.005302 c -1.114,0.385 -1.704,1.599 -1.318,2.713 0.39,1.11 1.6,1.703 2.714,1.318 1.115,-0.386 1.708,-1.599 1.318,-2.714 -0.386,-1.114 -1.599,-1.702 -2.714,-1.317"
     id="path402" />
</svg>
