<?xml version="1.0" encoding="UTF-8" standalone="no"?>
<!-- Created with Inkscape (http://www.inkscape.org/) -->

<svg
   version="1.1"
   id="svg1"
   width="360.46698"
   height="99.357094"
   viewBox="0 0 360.46697 99.357094"
   sodipodi:docname="cell.svg"
   xmlns:inkscape="http://www.inkscape.org/namespaces/inkscape"
   xmlns:sodipodi="http://sodipodi.sourceforge.net/DTD/sodipodi-0.dtd"
   xmlns="http://www.w3.org/2000/svg"
   xmlns:svg="http://www.w3.org/2000/svg">
  <sodipodi:namedview
     id="namedview1"
     pagecolor="#ffffff"
     bordercolor="#000000"
     borderopacity="0.25"
     inkscape:showpageshadow="2"
     inkscape:pageopacity="0.0"
     inkscape:pagecheckerboard="0"
     inkscape:deskcolor="#d1d1d1">
    <inkscape:page
       x="0"
       y="0"
       inkscape:label="1"
       id="page1"
       width="360.46698"
       height="99.357094"
       margin="0"
       bleed="0" />
  </sodipodi:namedview>
  <defs
     id="defs1" />
  <path
     style="fill:#ffffff;fill-opacity:1;fill-rule:nonzero;stroke:none"
     d="m 0,99.357094 h 18.875 v -4.719 H 0 Z"
     id="path469" />
  <path
     style="fill:#ffffff;fill-opacity:1;fill-rule:nonzero;stroke:none"
     d="m 343.541,99.357094 h 16.926 v -4.719 h -16.926 z"
     id="path470" />
  <path
     style="fill:#231f20;fill-opacity:1;fill-rule:nonzero;stroke:none"
     d="m 152.964,23.597094 c 1.323,1.844 1.828,2.02 2.64,1.511 0.547,-0.334 1.161,-0.459 1.495,-0.647 1.136,-0.629 2.786,-2.167 6.322,-7.719 0.798,-1.254 1.938,-3.016 2.464,-3.692 0.818,-1.078 -1.526,-1.718 -1.854,-1.297 -1.058,1.349 -1.896,2.188 -2.339,2.625 -0.312,0.296 -0.776,0.896 -2.119,1.891 -2.021,1.515 -3.458,2.12 -4.996,3.572 -0.713,0.677 -1.676,0.729 -2.036,1.751 -0.374,1.02 0.423,2.005 0.423,2.005"
     id="path471" />
  <path
     style="fill:none;stroke:#231f20;stroke-width:0.565977;stroke-linecap:butt;stroke-linejoin:miter;stroke-miterlimit:4;stroke-dasharray:none;stroke-opacity:1"
     d="m 152.964,23.597094 c 1.323,1.844 1.828,2.02 2.64,1.511 0.547,-0.334 1.161,-0.459 1.495,-0.647 1.136,-0.629 2.786,-2.167 6.322,-7.719 0.798,-1.254 1.938,-3.016 2.464,-3.692 0.818,-1.078 -1.526,-1.718 -1.854,-1.297 -1.058,1.349 -1.896,2.188 -2.339,2.625 -0.312,0.296 -0.776,0.896 -2.119,1.891 -2.021,1.515 -3.458,2.12 -4.996,3.572 -0.713,0.677 -1.676,0.729 -2.036,1.751 -0.374,1.02 0.423,2.005 0.423,2.005 z"
     id="path472" />
  <path
     style="fill:#231f20;fill-opacity:1;fill-rule:nonzero;stroke:#231f20;stroke-width:0.565977;stroke-linecap:round;stroke-linejoin:round;stroke-miterlimit:4;stroke-dasharray:none;stroke-opacity:1"
     d="m 153.479,21.149094 c -1.402,-0.224 -2.599,1.568 -2.896,1.735 -4.318,2.546 -4.567,2.838 -7.714,5 -4.557,3.129 -7.197,5.968 -6.15,9.156 0.713,2.161 2.057,3.093 3.369,3.172 1.459,0.082 4.36,-1.21 4.776,-4.068 l 1.104,-1.312 c 0.855,-0.787 1.272,-1.183 1.724,-1.538 0.792,-0.614 1.595,-1.328 3.063,-2.62 2.609,-2.296 4.62,-5.566 4.62,-5.566 0.229,-0.21 0.338,-0.47 0.369,-0.74"
     id="path473" />
  <path
     style="fill:#231f20;fill-opacity:1;fill-rule:nonzero;stroke:none"
     d="m 167.672,11.461094 c 0.115,1.349 -0.781,1.781 -1.781,1.521 -0.303,-0.078 -0.636,0.172 -0.923,0.068 -0.667,-0.229 -1.369,-1.824 -0.192,-2.756 0.083,-0.062 0.547,-0.7384002 0.973,-1.1917002 0.834,-0.88 2.923,-2.2453 5.552,-1.6667 1.251,0.276 0.855,0.9627 0.319,1.0054 -1.704,0.1293 -1.828,0.4786 -2.267,0.6813 -1.478,0.6613 -1.681,2.3387002 -1.681,2.3387002"
     id="path474" />
  <path
     style="fill:none;stroke:#231f20;stroke-width:0.332927;stroke-linecap:butt;stroke-linejoin:miter;stroke-miterlimit:4;stroke-dasharray:none;stroke-opacity:1"
     d="m 167.672,11.461094 c 0.115,1.349 -0.781,1.781 -1.781,1.521 -0.303,-0.078 -0.636,0.172 -0.923,0.068 -0.667,-0.229 -1.369,-1.824 -0.192,-2.756 0.083,-0.062 0.547,-0.7384002 0.973,-1.1917002 0.834,-0.88 2.923,-2.2453 5.552,-1.6667 1.251,0.276 0.855,0.9627 0.319,1.0054 -1.704,0.1293 -1.828,0.4786 -2.267,0.6813 -1.478,0.6613 -1.681,2.3387002 -1.681,2.3387002 z"
     id="path475" />
  <path
     style="fill:#63c99d;fill-opacity:1;fill-rule:nonzero;stroke:none"
     d="m 268.15,18.398094 c 2.188,2.246 2.412,2.97 2.746,3.828 2.082,5.391 4.692,4.267 6.353,1.912 1.969,-2.765 2.724,-3.713 -2.072,-7.786 -1.339,-1.135 -5.891,-6.146 -5.891,-6.146 -1.39,-2.0157002 -3.818,-3.2397002 -5.256,-2.9837002 -1.51,0.276 -0.896,0.276 -2.244,0.78 -1.292,0.48 -2.666,2.1773002 -2.442,3.3907002 0.218,1.167 1.781,1.745 3.926,2.865 1.698,0.891 4.88,4.14 4.88,4.14"
     id="path476" />
  <path
     style="fill:none;stroke:#231f20;stroke-width:0.565977;stroke-linecap:butt;stroke-linejoin:miter;stroke-miterlimit:4;stroke-dasharray:none;stroke-opacity:1"
     d="m 268.15,18.398094 c 2.188,2.246 2.412,2.97 2.746,3.828 2.082,5.391 4.692,4.267 6.353,1.912 1.969,-2.765 2.724,-3.713 -2.072,-7.786 -1.339,-1.135 -5.891,-6.146 -5.891,-6.146 -1.39,-2.0157002 -3.818,-3.2397002 -5.256,-2.9837002 -1.51,0.276 -0.896,0.276 -2.244,0.78 -1.292,0.48 -2.666,2.1773002 -2.442,3.3907002 0.218,1.167 1.781,1.745 3.926,2.865 1.698,0.891 4.88,4.14 4.88,4.14 z"
     id="path477" />
  <path
     style="fill:#ffffff;fill-opacity:1;fill-rule:nonzero;stroke:none"
     d="m 259.01,2.2117938 c -0.161,-0.188 0.479,-1.1414 0.072,-1.46400002 -0.416,-0.3227 -1.041,0.156 -2.984,-0.292 l -0.021,-0.0054 c -1.4,-0.3746 -2.771,-0.1293 -3.624,0.79200002 -1.412,1.5214 -0.88,4.3134 1.187,6.2347 2.073,1.9213 4.896,2.24 6.313,0.724 1.348,-1.4587 0.916,-4.084 -0.943,-5.9893"
     id="path478" />
  <path
     style="fill:none;stroke:#231f20;stroke-width:0.565977;stroke-linecap:butt;stroke-linejoin:miter;stroke-miterlimit:4;stroke-dasharray:none;stroke-opacity:1"
     d="m 259.01,2.2117938 c -0.161,-0.188 0.479,-1.1414 0.072,-1.46400002 -0.416,-0.3227 -1.041,0.156 -2.984,-0.292 l -0.021,-0.0054 c -1.4,-0.3746 -2.771,-0.1293 -3.624,0.79200002 -1.412,1.5214 -0.88,4.3134 1.187,6.2347 2.073,1.9213 4.896,2.24 6.313,0.724 1.348,-1.4587 0.916,-4.084 -0.943,-5.9893 z"
     id="path479" />
  <path
     style="fill:#231f20;fill-opacity:1;fill-rule:nonzero;stroke:none"
     d="m 291.921,15.138094 c 0.609,2.183 1.027,2.522 1.964,2.318 0.631,-0.124 1.249,-0.036 1.631,-0.104 1.28,-0.198 3.358,-1.083 8.566,-5.104 1.178,-0.912 2.844,-2.1777 3.574,-2.6404002 1.136,-0.7346 -0.855,-2.136 -1.307,-1.8493 -1.453,0.9107 -2.527,1.416 -3.089,1.672 -0.391,0.1773 -1.036,0.5827002 -2.63,1.0627002 -2.417,0.739 -3.974,0.817 -5.917,1.667 -0.901,0.39 -1.828,0.109 -2.511,0.953 -0.697,0.828 -0.281,2.025 -0.281,2.025"
     id="path480" />
  <path
     style="fill:none;stroke:#231f20;stroke-width:0.565977;stroke-linecap:butt;stroke-linejoin:miter;stroke-miterlimit:4;stroke-dasharray:none;stroke-opacity:1"
     d="m 291.921,15.138094 c 0.609,2.183 1.027,2.522 1.964,2.318 0.631,-0.124 1.249,-0.036 1.631,-0.104 1.28,-0.198 3.358,-1.083 8.566,-5.104 1.178,-0.912 2.844,-2.1777 3.574,-2.6404002 1.136,-0.7346 -0.855,-2.136 -1.307,-1.8493 -1.453,0.9107 -2.527,1.416 -3.089,1.672 -0.391,0.1773 -1.036,0.5827002 -2.63,1.0627002 -2.417,0.739 -3.974,0.817 -5.917,1.667 -0.901,0.39 -1.828,0.109 -2.511,0.953 -0.697,0.828 -0.281,2.025 -0.281,2.025 z"
     id="path481" />
  <path
     style="fill:#231f20;fill-opacity:1;fill-rule:nonzero;stroke:#231f20;stroke-width:0.565977;stroke-linecap:round;stroke-linejoin:round;stroke-miterlimit:4;stroke-dasharray:none;stroke-opacity:1"
     d="m 293.24,13.008094 c -1.251,-0.687 -2.98,0.594 -3.319,0.652 -4.927,0.926 -5.255,1.114 -8.953,2.082 -5.348,1.396 -8.796,3.172 -8.895,6.522 -0.063,2.276 0.885,3.604 2.093,4.129 1.339,0.573 4.511,0.344 5.875,-2.208 l 1.479,-0.853 c 1.073,-0.454 1.6,-0.678 2.146,-0.866 0.954,-0.306 1.948,-0.702 3.771,-1.416 3.235,-1.276 6.24,-3.672 6.24,-3.672 0.287,-0.12 0.473,-0.328 0.593,-0.568"
     id="path482" />
  <path
     style="fill:#63c99d;fill-opacity:1;fill-rule:nonzero;stroke:#231f20;stroke-width:0.565977;stroke-linecap:butt;stroke-linejoin:miter;stroke-miterlimit:4;stroke-dasharray:none;stroke-opacity:1"
     d="m 278.016,16.644094 c -3.59,1.13 -5.819,2.718 -5.991,5.354 -0.151,2.266 0.745,3.64 1.933,4.208 1.318,0.626 4.5,0.511 5.952,-1.984 z"
     id="path483" />
  <path
     style="fill:#231f20;fill-opacity:1;fill-rule:nonzero;stroke:none"
     d="m 309.874,8.7223938 c -0.349,1.3013002 -1.338,1.4107002 -2.192,0.8227 -0.256,-0.172 -0.662,-0.052 -0.89,-0.2454 -0.548,-0.448 -0.672,-2.1826 0.754,-2.656 0.099,-0.032 0.766,-0.5106 1.318,-0.7919 1.084,-0.5467 3.516,-1.12 5.792,0.3173 1.078,0.6826 0.478,1.1933 -0.042,1.0573 -1.65,-0.4573 -1.88,-0.176 -2.365,-0.1347 -1.615,0.1254 -2.375,1.6307 -2.375,1.6307"
     id="path484" />
  <path
     style="fill:none;stroke:#231f20;stroke-width:0.332927;stroke-linecap:butt;stroke-linejoin:miter;stroke-miterlimit:4;stroke-dasharray:none;stroke-opacity:1"
     d="m 309.874,8.7223938 c -0.349,1.3013002 -1.338,1.4107002 -2.192,0.8227 -0.256,-0.172 -0.662,-0.052 -0.89,-0.2454 -0.548,-0.448 -0.672,-2.1826 0.754,-2.656 0.099,-0.032 0.766,-0.5106 1.318,-0.7919 1.084,-0.5467 3.516,-1.12 5.792,0.3173 1.078,0.6826 0.478,1.1933 -0.042,1.0573 -1.65,-0.4573 -1.88,-0.176 -2.365,-0.1347 -1.615,0.1254 -2.375,1.6307 -2.375,1.6307 z"
     id="path485" />
  <path
     style="fill:#ffffff;fill-opacity:1;fill-rule:nonzero;stroke:none"
     d="m 7.516,14.592094 c 0,0.686 0.558,1.24 1.239,1.24 h 345.624 c 0.688,0 1.24,-0.554 1.24,-1.24 0,-0.683 -0.552,-1.24 -1.24,-1.24 H 8.755 c -0.681,0 -1.239,0.557 -1.239,1.24"
     id="path486" />
  <path
     style="fill:none;stroke:#231f20;stroke-width:0.665856;stroke-linecap:butt;stroke-linejoin:miter;stroke-miterlimit:4;stroke-dasharray:none;stroke-opacity:1"
     d="m 7.516,14.592094 c 0,0.686 0.558,1.24 1.239,1.24 h 345.624 c 0.688,0 1.24,-0.554 1.24,-1.24 0,-0.683 -0.552,-1.24 -1.24,-1.24 H 8.755 c -0.681,0 -1.239,0.557 -1.239,1.24 z"
     id="path487" />
  <path
     style="fill:#63c99d;fill-opacity:1;fill-rule:nonzero;stroke:none"
     d="m 133.104,37.420094 c 3.131,0.12 3.792,0.489 4.625,0.885 5.224,2.469 6.339,-0.145 5.922,-3 -0.479,-3.355 -0.588,-4.568 -6.87,-4.213 -1.75,0.104 -8.5,-0.391 -8.5,-0.391 -2.401,-0.505 -5.005,0.287 -5.87,1.459 -0.906,1.238 -0.458,0.812 -1.088,2.114 -0.604,1.234 -0.432,3.416 0.568,4.135 0.962,0.699 2.494,0.037 4.822,-0.629 1.839,-0.522 6.391,-0.36 6.391,-0.36"
     id="path488" />
  <path
     style="fill:none;stroke:#231f20;stroke-width:0.565977;stroke-linecap:butt;stroke-linejoin:miter;stroke-miterlimit:4;stroke-dasharray:none;stroke-opacity:1"
     d="m 133.104,37.420094 c 3.131,0.12 3.792,0.489 4.625,0.885 5.224,2.469 6.339,-0.145 5.922,-3 -0.479,-3.355 -0.588,-4.568 -6.87,-4.213 -1.75,0.104 -8.5,-0.391 -8.5,-0.391 -2.401,-0.505 -5.005,0.287 -5.87,1.459 -0.906,1.238 -0.458,0.812 -1.088,2.114 -0.604,1.234 -0.432,3.416 0.568,4.135 0.962,0.699 2.494,0.037 4.822,-0.629 1.839,-0.522 6.391,-0.36 6.391,-0.36 z"
     id="path489" />
  <path
     style="fill:#ffffff;fill-opacity:1;fill-rule:nonzero;stroke:none"
     d="m 112.729,35.592094 c -0.182,0.166 -1.146,-0.464 -1.464,-0.047 -0.317,0.416 0.172,1.036 -0.245,2.984 l -0.004,0.021 c -0.349,1.411 -0.089,2.776 0.843,3.615 1.552,1.385 4.333,0.807 6.218,-1.287 1.891,-2.104 2.163,-4.933 0.62,-6.322 -1.473,-1.33 -4.093,-0.855 -5.968,1.036"
     id="path490" />
  <path
     style="fill:none;stroke:#231f20;stroke-width:0.565977;stroke-linecap:butt;stroke-linejoin:miter;stroke-miterlimit:4;stroke-dasharray:none;stroke-opacity:1"
     d="m 112.729,35.592094 c -0.182,0.166 -1.146,-0.464 -1.464,-0.047 -0.317,0.416 0.172,1.036 -0.245,2.984 l -0.004,0.021 c -0.349,1.411 -0.089,2.776 0.843,3.615 1.552,1.385 4.333,0.807 6.218,-1.287 1.891,-2.104 2.163,-4.933 0.62,-6.322 -1.473,-1.33 -4.093,-0.855 -5.968,1.036 z"
     id="path491" />
  <path
     style="fill:#231f20;fill-opacity:1;fill-rule:nonzero;stroke:none"
     d="m 116.213,15.493094 c 0.547,0.328 1.156,2.181 2.203,3.405 0.709,0.819 1.485,3.454 2.256,4.219 0.697,0.704 0.953,1.095 0.287,2.032 -0.391,0.557 -1.516,1.375 -1.943,1.093 -1,-0.64 -1.537,-1.421 -1.939,-2.41 -0.462,-1.126 -1.437,-4.292 -1.566,-4.887 -0.303,-1.495 -0.871,-1.968 -0.991,-2.353 -0.223,-0.73 0,-0.995 0.439,-1.246 0.837,-0.468 1.254,0.147 1.254,0.147"
     id="path492" />
  <path
     style="fill:none;stroke:#231f20;stroke-width:0.565977;stroke-linecap:butt;stroke-linejoin:miter;stroke-miterlimit:4;stroke-dasharray:none;stroke-opacity:1"
     d="m 116.213,15.493094 c 0.547,0.328 1.156,2.181 2.203,3.405 0.709,0.819 1.485,3.454 2.256,4.219 0.697,0.704 0.953,1.095 0.287,2.032 -0.391,0.557 -1.516,1.375 -1.943,1.093 -1,-0.64 -1.537,-1.421 -1.939,-2.41 -0.462,-1.126 -1.437,-4.292 -1.566,-4.887 -0.303,-1.495 -0.871,-1.968 -0.991,-2.353 -0.223,-0.73 0,-0.995 0.439,-1.246 0.837,-0.468 1.254,0.147 1.254,0.147 z"
     id="path493" />
  <path
     style="fill:#231f20;fill-opacity:1;fill-rule:nonzero;stroke:none"
     d="m 120.219,23.617094 c 1.218,-0.443 1.552,1.568 1.718,2.079 0.167,0.521 0.818,1.932 1.464,2.969 0.651,1.041 1.01,2.613 2.239,4.593 0.647,1.036 0.615,2.459 -0.932,3.328 -1.531,0.86 -2.588,0.323 -3.183,-1.052 -0.593,-1.374 -0.561,-2.917 -1.062,-4.338 -0.495,-1.432 -1.135,-2.839 -1.692,-3.918 -0.636,-1.233 -0.49,-2.077 -0.183,-2.437 0.765,-0.921 1.631,-1.224 1.631,-1.224"
     id="path494" />
  <path
     style="fill:none;stroke:#231f20;stroke-width:0.565977;stroke-linecap:butt;stroke-linejoin:miter;stroke-miterlimit:4;stroke-dasharray:none;stroke-opacity:1"
     d="m 120.219,23.617094 c 1.218,-0.443 1.552,1.568 1.718,2.079 0.167,0.521 0.818,1.932 1.464,2.969 0.651,1.041 1.01,2.613 2.239,4.593 0.647,1.036 0.615,2.459 -0.932,3.328 -1.531,0.86 -2.588,0.323 -3.183,-1.052 -0.593,-1.374 -0.561,-2.917 -1.062,-4.338 -0.495,-1.432 -1.135,-2.839 -1.692,-3.918 -0.636,-1.233 -0.49,-2.077 -0.183,-2.437 0.765,-0.921 1.631,-1.224 1.631,-1.224 z"
     id="path495" />
  <path
     style="fill:#63c99d;fill-opacity:1;fill-rule:nonzero;stroke:#231f20;stroke-width:0.565977;stroke-linecap:butt;stroke-linejoin:miter;stroke-miterlimit:4;stroke-dasharray:none;stroke-opacity:1"
     d="m 140.396,29.737094 c -2.985,2.281 -4.543,4.527 -3.813,7.068 0.63,2.183 1.937,3.172 3.25,3.303 1.448,0.134 4.402,-1.048 4.922,-3.891 z"
     id="path496" />
  <path
     style="fill:#231f20;fill-opacity:1;fill-rule:nonzero;stroke:none"
     d="m 112.276,16.149094 c -0.625,-1 -0.323,-2.313 0.672,-2.943 1,-0.625 2.317,-0.322 2.943,0.678 0.625,1 0.322,2.312 -0.678,2.942 -0.994,0.62 -2.312,0.318 -2.937,-0.677"
     id="path497" />
  <path
     style="fill:#63c99d;fill-opacity:1;fill-rule:nonzero;stroke:none"
     d="m 230.098,29.196094 c 2.23,-2.203 2.948,-2.432 3.808,-2.776 5.375,-2.126 4.234,-4.724 1.864,-6.37 -2.781,-1.942 -3.74,-2.693 -7.77,2.13 -1.126,1.354 -6.104,5.942 -6.104,5.942 -2.005,1.407 -3.209,3.844 -2.943,5.276 0.287,1.511 0.282,0.891 0.796,2.24 0.491,1.287 2.193,2.651 3.407,2.412 1.166,-0.224 1.734,-1.786 2.833,-3.942 0.88,-1.704 4.109,-4.912 4.109,-4.912"
     id="path498" />
  <path
     style="fill:none;stroke:#231f20;stroke-width:0.565977;stroke-linecap:butt;stroke-linejoin:miter;stroke-miterlimit:4;stroke-dasharray:none;stroke-opacity:1"
     d="m 230.098,29.196094 c 2.23,-2.203 2.948,-2.432 3.808,-2.776 5.375,-2.126 4.234,-4.724 1.864,-6.37 -2.781,-1.942 -3.74,-2.693 -7.77,2.13 -1.126,1.354 -6.104,5.942 -6.104,5.942 -2.005,1.407 -3.209,3.844 -2.943,5.276 0.287,1.511 0.282,0.891 0.796,2.24 0.491,1.287 2.193,2.651 3.407,2.412 1.166,-0.224 1.734,-1.786 2.833,-3.942 0.88,-1.704 4.109,-4.912 4.109,-4.912 z"
     id="path499" />
  <path
     style="fill:#ffffff;fill-opacity:1;fill-rule:nonzero;stroke:none"
     d="m 216.307,43.612094 c -0.006,0.245 -1.124,0.521 -1.036,1.032 0.082,0.521 0.874,0.588 2.005,2.224 l 0.016,0.021 c 0.785,1.219 1.968,1.957 3.213,1.848 2.072,-0.177 3.552,-2.604 3.317,-5.411 -0.245,-2.818 -2.125,-4.953 -4.191,-4.781 -1.98,0.172 -3.423,2.405 -3.324,5.067"
     id="path500" />
  <path
     style="fill:none;stroke:#231f20;stroke-width:0.565977;stroke-linecap:butt;stroke-linejoin:miter;stroke-miterlimit:4;stroke-dasharray:none;stroke-opacity:1"
     d="m 216.307,43.612094 c -0.006,0.245 -1.124,0.521 -1.036,1.032 0.082,0.521 0.874,0.588 2.005,2.224 l 0.016,0.021 c 0.785,1.219 1.968,1.957 3.213,1.848 2.072,-0.177 3.552,-2.604 3.317,-5.411 -0.245,-2.818 -2.125,-4.953 -4.191,-4.781 -1.98,0.172 -3.423,2.405 -3.324,5.067 z"
     id="path501" />
  <path
     style="fill:#231f20;fill-opacity:1;fill-rule:nonzero;stroke:none"
     d="m 213.771,15.092094 c 0.552,0.328 1.156,2.182 2.202,3.406 0.714,0.823 1.49,3.452 2.256,4.219 0.703,0.703 0.954,1.093 0.291,2.031 -0.395,0.557 -1.515,1.369 -1.947,1.093 -1,-0.64 -1.537,-1.421 -1.938,-2.411 -0.458,-1.125 -1.438,-4.292 -1.562,-4.89 -0.308,-1.484 -0.876,-1.964 -0.996,-2.35 -0.224,-0.729 0,-0.994 0.439,-1.24 0.837,-0.473 1.255,0.142 1.255,0.142"
     id="path502" />
  <path
     style="fill:none;stroke:#231f20;stroke-width:0.565977;stroke-linecap:butt;stroke-linejoin:miter;stroke-miterlimit:4;stroke-dasharray:none;stroke-opacity:1"
     d="m 213.771,15.092094 c 0.552,0.328 1.156,2.182 2.202,3.406 0.714,0.823 1.49,3.452 2.256,4.219 0.703,0.703 0.954,1.093 0.291,2.031 -0.395,0.557 -1.515,1.369 -1.947,1.093 -1,-0.64 -1.537,-1.421 -1.938,-2.411 -0.458,-1.125 -1.438,-4.292 -1.562,-4.89 -0.308,-1.484 -0.876,-1.964 -0.996,-2.35 -0.224,-0.729 0,-0.994 0.439,-1.24 0.837,-0.473 1.255,0.142 1.255,0.142 z"
     id="path503" />
  <path
     style="fill:#231f20;fill-opacity:1;fill-rule:nonzero;stroke:none"
     d="m 217.776,23.217094 c 1.224,-0.443 1.552,1.567 1.719,2.077 0.172,0.522 0.817,1.932 1.469,2.97 0.645,1.046 1.004,2.614 2.238,4.593 0.647,1.036 0.61,2.459 -0.937,3.323 -1.531,0.865 -2.588,0.328 -3.182,-1.047 -0.588,-1.375 -0.563,-2.916 -1.063,-4.339 -0.495,-1.426 -1.135,-2.838 -1.692,-3.921 -0.631,-1.229 -0.489,-2.068 -0.177,-2.432 0.76,-0.923 1.625,-1.224 1.625,-1.224"
     id="path504" />
  <path
     style="fill:none;stroke:#231f20;stroke-width:0.565977;stroke-linecap:butt;stroke-linejoin:miter;stroke-miterlimit:4;stroke-dasharray:none;stroke-opacity:1"
     d="m 217.776,23.217094 c 1.224,-0.443 1.552,1.567 1.719,2.077 0.172,0.522 0.817,1.932 1.469,2.97 0.645,1.046 1.004,2.614 2.238,4.593 0.647,1.036 0.61,2.459 -0.937,3.323 -1.531,0.865 -2.588,0.328 -3.182,-1.047 -0.588,-1.375 -0.563,-2.916 -1.063,-4.339 -0.495,-1.426 -1.135,-2.838 -1.692,-3.921 -0.631,-1.229 -0.489,-2.068 -0.177,-2.432 0.76,-0.923 1.625,-1.224 1.625,-1.224 z"
     id="path505" />
  <path
     style="fill:#231f20;fill-opacity:1;fill-rule:nonzero;stroke:none"
     d="m 216.719,26.040094 c -0.208,-2.256 -0.552,-2.667 -1.516,-2.636 -0.64,0.01 -1.23,-0.187 -1.62,-0.192 -1.296,-0.038 -3.495,0.457 -9.348,3.462 -1.324,0.683 -3.199,1.626 -3.995,1.948 -1.251,0.522 0.452,2.256 0.947,2.058 1.594,-0.635 2.74,-0.938 3.344,-1.083 0.417,-0.099 1.125,-0.385 2.781,-0.568 2.511,-0.287 4.057,-0.079 6.12,-0.563 0.959,-0.224 1.812,0.224 2.641,-0.478 0.838,-0.699 0.646,-1.948 0.646,-1.948"
     id="path506" />
  <path
     style="fill:none;stroke:#231f20;stroke-width:0.565977;stroke-linecap:butt;stroke-linejoin:miter;stroke-miterlimit:4;stroke-dasharray:none;stroke-opacity:1"
     d="m 216.719,26.040094 c -0.208,-2.256 -0.552,-2.667 -1.516,-2.636 -0.64,0.01 -1.23,-0.187 -1.62,-0.192 -1.296,-0.038 -3.495,0.457 -9.348,3.462 -1.324,0.683 -3.199,1.626 -3.995,1.948 -1.251,0.522 0.452,2.256 0.947,2.058 1.594,-0.635 2.74,-0.938 3.344,-1.083 0.417,-0.099 1.125,-0.385 2.781,-0.568 2.511,-0.287 4.057,-0.079 6.12,-0.563 0.959,-0.224 1.812,0.224 2.641,-0.478 0.838,-0.699 0.646,-1.948 0.646,-1.948 z"
     id="path507" />
  <path
     style="fill:#231f20;fill-opacity:1;fill-rule:nonzero;stroke:#231f20;stroke-width:0.565977;stroke-linecap:round;stroke-linejoin:round;stroke-miterlimit:4;stroke-dasharray:none;stroke-opacity:1"
     d="m 215.036,27.893094 c 1.099,0.901 3.037,-0.041 3.375,-0.031 5.015,-0.021 5.375,-0.15 9.187,-0.426 5.511,-0.402 9.224,-1.516 9.932,-4.792 0.475,-2.23 -0.213,-3.708 -1.306,-4.443 -1.219,-0.812 -4.375,-1.156 -6.178,1.099 l -1.614,0.573 c -1.135,0.249 -1.698,0.38 -2.266,0.459 -0.989,0.129 -2.046,0.337 -3.969,0.713 -3.41,0.667 -6.796,2.473 -6.796,2.473 -0.308,0.068 -0.532,0.24 -0.688,0.454"
     id="path508" />
  <path
     style="fill:#63c99d;fill-opacity:1;fill-rule:nonzero;stroke:none"
     d="m 236.39,18.425094 c -1.182,-0.86 -4.328,-1.323 -6.213,0.864 l 0.484,7.797 c 3.735,-0.458 6.219,-1.614 6.869,-4.177 0.558,-2.197 -0.072,-3.713 -1.14,-4.484"
     id="path509" />
  <path
     style="fill:none;stroke:#231f20;stroke-width:0.565977;stroke-linecap:butt;stroke-linejoin:miter;stroke-miterlimit:4;stroke-dasharray:none;stroke-opacity:1"
     d="m 236.39,18.425094 c -1.182,-0.86 -4.328,-1.323 -6.213,0.864 l 0.484,7.797 c 3.735,-0.458 6.219,-1.614 6.869,-4.177 0.558,-2.197 -0.072,-3.713 -1.14,-4.484 z"
     id="path510" />
  <path
     style="fill:#231f20;fill-opacity:1;fill-rule:nonzero;stroke:none"
     d="m 197.896,29.092094 c 0.583,-1.224 1.572,-1.142 2.307,-0.418 0.218,0.219 0.636,0.178 0.828,0.407 0.458,0.536 0.266,2.265 -1.224,2.479 -0.104,0.005 -0.843,0.36 -1.438,0.537 -1.166,0.339 -3.661,0.459 -5.634,-1.371 -0.943,-0.864 -0.256,-1.254 0.229,-1.025 1.541,0.749 1.817,0.511 2.296,0.557 1.615,0.178 2.636,-1.166 2.636,-1.166"
     id="path511" />
  <path
     style="fill:none;stroke:#231f20;stroke-width:0.332927;stroke-linecap:butt;stroke-linejoin:miter;stroke-miterlimit:4;stroke-dasharray:none;stroke-opacity:1"
     d="m 197.896,29.092094 c 0.583,-1.224 1.572,-1.142 2.307,-0.418 0.218,0.219 0.636,0.178 0.828,0.407 0.458,0.536 0.266,2.265 -1.224,2.479 -0.104,0.005 -0.843,0.36 -1.438,0.537 -1.166,0.339 -3.661,0.459 -5.634,-1.371 -0.943,-0.864 -0.256,-1.254 0.229,-1.025 1.541,0.749 1.817,0.511 2.296,0.557 1.615,0.178 2.636,-1.166 2.636,-1.166 z"
     id="path512" />
  <path
     style="fill:#231f20;fill-opacity:1;fill-rule:nonzero;stroke:none"
     d="m 209.833,15.748094 c -0.625,-0.995 -0.322,-2.312 0.678,-2.943 0.994,-0.625 2.312,-0.323 2.937,0.677 0.625,1 0.323,2.312 -0.672,2.943 -1,0.625 -2.317,0.323 -2.943,-0.677"
     id="path513" />
  <path
     style="fill:#231f20;fill-opacity:1;fill-rule:nonzero;stroke:none"
     d="m 260.036,21.644094 c -1.271,-0.255 -0.516,-2.146 -0.391,-2.667 0.125,-0.531 0.308,-2.079 0.287,-3.303 -0.016,-1.224 0.494,-2.76 0.469,-5.088 -0.011,-1.2184002 0.749,-2.4170002 2.525,-2.3597002 1.756,0.0627 2.386,1.068 2.172,2.5537002 -0.202,1.478 -1.03,2.785 -1.344,4.26 -0.312,1.478 -0.494,3.016 -0.582,4.229 -0.099,1.375 -0.656,2.025 -1.11,2.177 -1.13,0.39 -2.026,0.198 -2.026,0.198"
     id="path514" />
  <path
     style="fill:none;stroke:#231f20;stroke-width:0.565977;stroke-linecap:butt;stroke-linejoin:miter;stroke-miterlimit:4;stroke-dasharray:none;stroke-opacity:1"
     d="m 260.036,21.644094 c -1.271,-0.255 -0.516,-2.146 -0.391,-2.667 0.125,-0.531 0.308,-2.079 0.287,-3.303 -0.016,-1.224 0.494,-2.76 0.469,-5.088 -0.011,-1.2184002 0.749,-2.4170002 2.525,-2.3597002 1.756,0.0627 2.386,1.068 2.172,2.5537002 -0.202,1.478 -1.03,2.785 -1.344,4.26 -0.312,1.478 -0.494,3.016 -0.582,4.229 -0.099,1.375 -0.656,2.025 -1.11,2.177 -1.13,0.39 -2.026,0.198 -2.026,0.198 z"
     id="path515" />
  <path
     style="fill:#231f20;fill-opacity:1;fill-rule:nonzero;stroke:none"
     d="m 269.229,16.982094 c -0.229,0.599 -1.948,1.52 -2.975,2.755 -0.686,0.844 -3.145,2.063 -3.765,2.948 -0.579,0.813 -0.916,1.131 -1.953,0.636 -0.62,-0.292 -1.615,-1.261 -1.416,-1.724 0.457,-1.099 1.134,-1.761 2.041,-2.328 1.036,-0.647 3.979,-2.152 4.552,-2.38 1.412,-0.557 1.781,-1.199 2.14,-1.387 0.683,-0.342 0.98,-0.166 1.303,0.22 0.609,0.744 0.073,1.26 0.073,1.26"
     id="path516" />
  <path
     style="fill:none;stroke:#231f20;stroke-width:0.565977;stroke-linecap:butt;stroke-linejoin:miter;stroke-miterlimit:4;stroke-dasharray:none;stroke-opacity:1"
     d="m 269.229,16.982094 c -0.229,0.599 -1.948,1.52 -2.975,2.755 -0.686,0.844 -3.145,2.063 -3.765,2.948 -0.579,0.813 -0.916,1.131 -1.953,0.636 -0.62,-0.292 -1.615,-1.261 -1.416,-1.724 0.457,-1.099 1.134,-1.761 2.041,-2.328 1.036,-0.647 3.979,-2.152 4.552,-2.38 1.412,-0.557 1.781,-1.199 2.14,-1.387 0.683,-0.342 0.98,-0.166 1.303,0.22 0.609,0.744 0.073,1.26 0.073,1.26 z"
     id="path517" />
  <path
     style="fill:#231f20;fill-opacity:1;fill-rule:nonzero;stroke:none"
     d="m 267.906,13.217094 c 0.875,-0.792 2.223,-0.715 3.01,0.161 0.792,0.875 0.718,2.224 -0.156,3.011 -0.875,0.785 -2.224,0.719 -3.016,-0.157 -0.786,-0.88 -0.714,-2.224 0.162,-3.015"
     id="path518" />
  <path
     style="fill:#231f20;fill-opacity:1;fill-rule:nonzero;stroke:none"
     d="m 41.386,13.278094 c 0.598,-1.014 1.906,-1.348 2.921,-0.749 1.016,0.599 1.349,1.907 0.751,2.921 -0.599,1.011 -1.907,1.35 -2.923,0.751 -1.015,-0.604 -1.348,-1.907 -0.749,-2.923"
     id="path519" />
  <path
     style="fill:#231f20;fill-opacity:1;fill-rule:nonzero;stroke:none"
     d="m 94.02,63.982094 c -1.301,0.364 -1.895,-0.426 -1.823,-1.469 0.022,-0.307 -0.286,-0.593 -0.238,-0.891 0.109,-0.697 1.546,-1.686 2.672,-0.692 0.082,0.068 0.828,0.402 1.353,0.735 1.021,0.656 2.745,2.457 2.656,5.156 -0.041,1.276 -0.787,1.014 -0.927,0.494 -0.442,-1.65 -0.806,-1.707 -1.082,-2.103 -0.923,-1.334 -2.611,-1.23 -2.611,-1.23"
     id="path520" />
  <path
     style="fill:none;stroke:#231f20;stroke-width:0.332927;stroke-linecap:butt;stroke-linejoin:miter;stroke-miterlimit:4;stroke-dasharray:none;stroke-opacity:1"
     d="m 94.02,63.982094 c -1.301,0.364 -1.895,-0.426 -1.823,-1.469 0.022,-0.307 -0.286,-0.593 -0.238,-0.891 0.109,-0.697 1.546,-1.686 2.672,-0.692 0.082,0.068 0.828,0.402 1.353,0.735 1.021,0.656 2.745,2.457 2.656,5.156 -0.041,1.276 -0.787,1.014 -0.927,0.494 -0.442,-1.65 -0.806,-1.707 -1.082,-2.103 -0.923,-1.334 -2.611,-1.23 -2.611,-1.23 z"
     id="path521" />
  <path
     style="fill:#63c99d;fill-opacity:1;fill-rule:nonzero;stroke:none"
     d="m 58.407,40.502094 c 2.64,1.672 3.031,2.319 3.557,3.079 3.286,4.755 5.562,3.052 6.63,0.375 1.265,-3.146 1.776,-4.25 -3.839,-7.088 -1.568,-0.787 -7.167,-4.599 -7.167,-4.599 -1.817,-1.636 -4.468,-2.261 -5.806,-1.677 -1.402,0.62 -0.803,0.478 -1.995,1.281 -1.147,0.771 -2.089,2.744 -1.584,3.869 0.484,1.084 2.136,1.282 4.484,1.87 1.86,0.469 5.72,2.89 5.72,2.89"
     id="path522" />
  <path
     style="fill:none;stroke:#231f20;stroke-width:0.565977;stroke-linecap:butt;stroke-linejoin:miter;stroke-miterlimit:4;stroke-dasharray:none;stroke-opacity:1"
     d="m 58.407,40.502094 c 2.64,1.672 3.031,2.319 3.557,3.079 3.286,4.755 5.562,3.052 6.63,0.375 1.265,-3.146 1.776,-4.25 -3.839,-7.088 -1.568,-0.787 -7.167,-4.599 -7.167,-4.599 -1.817,-1.636 -4.468,-2.261 -5.806,-1.677 -1.402,0.62 -0.803,0.478 -1.995,1.281 -1.147,0.771 -2.089,2.744 -1.584,3.869 0.484,1.084 2.136,1.282 4.484,1.87 1.86,0.469 5.72,2.89 5.72,2.89 z"
     id="path523" />
  <path
     style="fill:#ffffff;fill-opacity:1;fill-rule:nonzero;stroke:none"
     d="m 43.068,27.925094 c -0.245,-0.016 -0.469,-1.145 -0.99,-1.084 -0.526,0.063 -0.624,0.849 -2.307,1.907 l -0.016,0.01 c -1.26,0.735 -2.057,1.875 -2.005,3.131 0.084,2.072 2.437,3.667 5.256,3.557 2.828,-0.11 5.046,-1.89 4.962,-3.958 -0.072,-1.986 -2.233,-3.532 -4.9,-3.563"
     id="path524" />
  <path
     style="fill:none;stroke:#231f20;stroke-width:0.565977;stroke-linecap:butt;stroke-linejoin:miter;stroke-miterlimit:4;stroke-dasharray:none;stroke-opacity:1"
     d="m 43.068,27.925094 c -0.245,-0.016 -0.469,-1.145 -0.99,-1.084 -0.526,0.063 -0.624,0.849 -2.307,1.907 l -0.016,0.01 c -1.26,0.735 -2.057,1.875 -2.005,3.131 0.084,2.072 2.437,3.667 5.256,3.557 2.828,-0.11 5.046,-1.89 4.962,-3.958 -0.072,-1.986 -2.233,-3.532 -4.9,-3.563 z"
     id="path525" />
  <path
     style="fill:#231f20;fill-opacity:1;fill-rule:nonzero;stroke:none"
     d="m 79.542,51.362094 c -1.568,1.64 -1.646,2.167 -1,2.87 0.432,0.48 0.666,1.057 0.917,1.36 0.823,0.994 2.635,2.338 8.738,4.797 1.38,0.552 3.319,1.348 4.084,1.739 1.214,0.609 1.416,-1.818 0.938,-2.068 -1.522,-0.786 -2.5,-1.452 -3.011,-1.812 -0.349,-0.25 -1.025,-0.594 -2.244,-1.73 -1.865,-1.713 -2.72,-3.016 -4.438,-4.254 -0.791,-0.584 -1.015,-1.516 -2.094,-1.683 -1.068,-0.183 -1.89,0.781 -1.89,0.781"
     id="path526" />
  <path
     style="fill:none;stroke:#231f20;stroke-width:0.565977;stroke-linecap:butt;stroke-linejoin:miter;stroke-miterlimit:4;stroke-dasharray:none;stroke-opacity:1"
     d="m 79.542,51.362094 c -1.568,1.64 -1.646,2.167 -1,2.87 0.432,0.48 0.666,1.057 0.917,1.36 0.823,0.994 2.635,2.338 8.738,4.797 1.38,0.552 3.319,1.348 4.084,1.739 1.214,0.609 1.416,-1.818 0.938,-2.068 -1.522,-0.786 -2.5,-1.452 -3.011,-1.812 -0.349,-0.25 -1.025,-0.594 -2.244,-1.73 -1.865,-1.713 -2.72,-3.016 -4.438,-4.254 -0.791,-0.584 -1.015,-1.516 -2.094,-1.683 -1.068,-0.183 -1.89,0.781 -1.89,0.781 z"
     id="path527" />
  <path
     style="fill:#231f20;fill-opacity:1;fill-rule:nonzero;stroke:#231f20;stroke-width:0.565977;stroke-linecap:round;stroke-linejoin:round;stroke-miterlimit:4;stroke-dasharray:none;stroke-opacity:1"
     d="m 83.558,52.696094 c -0.084,-1.418 -2.095,-2.194 -2.328,-2.443 -3.423,-3.661 -3.762,-3.833 -6.558,-6.437 -4.057,-3.76 -7.401,-5.719 -10.281,-4 -1.953,1.161 -2.568,2.682 -2.365,3.978 0.24,1.438 2.136,3.99 5.021,3.771 l 1.516,0.792 c 0.963,0.661 1.432,0.984 1.88,1.344 0.771,0.635 1.645,1.271 3.224,2.421 2.812,2.043 6.448,3.292 6.448,3.292 0.249,0.178 0.525,0.219 0.796,0.194"
     id="path528" />
  <path
     style="fill:#63c99d;fill-opacity:1;fill-rule:nonzero;stroke:none"
     d="m 70.943,40.810094 c -0.089,-0.104 -0.167,-0.208 -0.224,-0.308 -0.412,-0.77 -1.079,-0.853 -2.265,-1.025 -1.36,-0.475 -2.642,-0.453 -3.86,0.213 -1.984,1.094 -2.667,2.584 -2.506,3.891 0.178,1.453 1.98,4.068 4.866,3.959 l 5.38,-5.672 c -0.475,-0.396 -0.938,-0.74 -1.391,-1.058"
     id="path529" />
  <path
     style="fill:none;stroke:#231f20;stroke-width:0.565977;stroke-linecap:butt;stroke-linejoin:miter;stroke-miterlimit:4;stroke-dasharray:none;stroke-opacity:1"
     d="m 70.943,40.810094 c -0.089,-0.104 -0.167,-0.208 -0.224,-0.308 -0.412,-0.77 -1.079,-0.853 -2.265,-1.025 -1.36,-0.475 -2.642,-0.453 -3.86,0.213 -1.984,1.094 -2.667,2.584 -2.506,3.891 0.178,1.453 1.98,4.068 4.866,3.959 l 5.38,-5.672 c -0.475,-0.396 -0.938,-0.74 -1.391,-1.058 z"
     id="path530" />
  <path
     style="fill:#231f20;fill-opacity:1;fill-rule:nonzero;stroke:none"
     d="m 44.214,14.289094 c 0.541,0.339 1.12,2.204 2.14,3.443 0.693,0.833 1.428,3.474 2.177,4.261 0.693,0.719 0.937,1.109 0.256,2.036 -0.407,0.547 -1.543,1.344 -1.964,1.063 -0.989,-0.662 -1.516,-1.454 -1.896,-2.448 -0.443,-1.142 -1.359,-4.318 -1.479,-4.922 -0.276,-1.496 -0.833,-1.98 -0.948,-2.365 -0.208,-0.735 0.02,-0.995 0.459,-1.235 0.843,-0.457 1.255,0.167 1.255,0.167"
     id="path531" />
  <path
     style="fill:none;stroke:#231f20;stroke-width:0.565977;stroke-linecap:butt;stroke-linejoin:miter;stroke-miterlimit:4;stroke-dasharray:none;stroke-opacity:1"
     d="m 44.214,14.289094 c 0.541,0.339 1.12,2.204 2.14,3.443 0.693,0.833 1.428,3.474 2.177,4.261 0.693,0.719 0.937,1.109 0.256,2.036 -0.407,0.547 -1.543,1.344 -1.964,1.063 -0.989,-0.662 -1.516,-1.454 -1.896,-2.448 -0.443,-1.142 -1.359,-4.318 -1.479,-4.922 -0.276,-1.496 -0.833,-1.98 -0.948,-2.365 -0.208,-0.735 0.02,-0.995 0.459,-1.235 0.843,-0.457 1.255,0.167 1.255,0.167 z"
     id="path532" />
  <path
     style="fill:#231f20;fill-opacity:1;fill-rule:nonzero;stroke:none"
     d="m 48.074,22.482094 c 1.224,-0.422 1.525,1.599 1.681,2.11 0.156,0.525 0.781,1.948 1.412,2.994 0.629,1.058 0.963,2.64 2.151,4.636 0.63,1.047 0.573,2.468 -0.99,3.307 -1.546,0.839 -2.598,0.281 -3.161,-1.109 -0.568,-1.38 -0.511,-2.922 -0.984,-4.36 -0.475,-1.438 -1.084,-2.854 -1.625,-3.943 -0.61,-1.239 -0.454,-2.083 -0.136,-2.443 0.781,-0.905 1.652,-1.192 1.652,-1.192"
     id="path533" />
  <path
     style="fill:none;stroke:#231f20;stroke-width:0.565977;stroke-linecap:butt;stroke-linejoin:miter;stroke-miterlimit:4;stroke-dasharray:none;stroke-opacity:1"
     d="m 48.074,22.482094 c 1.224,-0.422 1.525,1.599 1.681,2.11 0.156,0.525 0.781,1.948 1.412,2.994 0.629,1.058 0.963,2.64 2.151,4.636 0.63,1.047 0.573,2.468 -0.99,3.307 -1.546,0.839 -2.598,0.281 -3.161,-1.109 -0.568,-1.38 -0.511,-2.922 -0.984,-4.36 -0.475,-1.438 -1.084,-2.854 -1.625,-3.943 -0.61,-1.239 -0.454,-2.083 -0.136,-2.443 0.781,-0.905 1.652,-1.192 1.652,-1.192 z"
     id="path534" />
</svg>
