<?xml version="1.0" encoding="UTF-8" standalone="no"?>
<!-- Created with Inkscape (http://www.inkscape.org/) -->

<svg
   version="1.1"
   id="svg1"
   width="349.26358"
   height="111.2634"
   viewBox="0 0 349.26356 111.2634"
   sodipodi:docname="cell.svg"
   xmlns:inkscape="http://www.inkscape.org/namespaces/inkscape"
   xmlns:sodipodi="http://sodipodi.sourceforge.net/DTD/sodipodi-0.dtd"
   xmlns="http://www.w3.org/2000/svg"
   xmlns:svg="http://www.w3.org/2000/svg">
  <sodipodi:namedview
     id="namedview1"
     pagecolor="#ffffff"
     bordercolor="#000000"
     borderopacity="0.25"
     inkscape:showpageshadow="2"
     inkscape:pageopacity="0.0"
     inkscape:pagecheckerboard="0"
     inkscape:deskcolor="#d1d1d1">
    <inkscape:page
       x="0"
       y="0"
       inkscape:label="1"
       id="page1"
       width="349.26355"
       height="111.2634"
       margin="0"
       bleed="0" />
  </sodipodi:namedview>
  <defs
     id="defs1" />
  <path
     style="fill:#231f20;fill-opacity:1;fill-rule:nonzero;stroke:none"
     d="m 341.04563,63.009988 c 0.468,-1.27 -0.276,-1.928 -1.314,-1.942 -0.312,0 -0.572,-0.334 -0.874,-0.308 -0.703,0.052 -1.807,1.401 -0.907,2.609 0.063,0.084 0.333,0.855 0.62,1.407 0.568,1.073 2.229,2.937 4.923,3.068 1.27,0.066 1.072,-0.699 0.566,-0.886 -1.609,-0.568 -1.634,-0.938 -2.004,-1.25 -1.256,-1.026 -1.01,-2.698 -1.01,-2.698"
     id="path137" />
  <path
     style="fill:none;stroke:#231f20;stroke-width:0.332927;stroke-linecap:butt;stroke-linejoin:miter;stroke-miterlimit:4;stroke-dasharray:none;stroke-opacity:1"
     d="m 341.04563,63.009988 c 0.468,-1.27 -0.276,-1.928 -1.314,-1.942 -0.312,0 -0.572,-0.334 -0.874,-0.308 -0.703,0.052 -1.807,1.401 -0.907,2.609 0.063,0.084 0.333,0.855 0.62,1.407 0.568,1.073 2.229,2.937 4.923,3.068 1.27,0.066 1.072,-0.699 0.566,-0.886 -1.609,-0.568 -1.634,-0.938 -2.004,-1.25 -1.256,-1.026 -1.01,-2.698 -1.01,-2.698 z"
     id="path138" />
  <path
     style="fill:#63c99d;fill-opacity:1;fill-rule:nonzero;stroke:none"
     d="m 320.56563,25.581988 c 1.448,2.771 2.062,3.219 2.776,3.803 4.469,3.661 2.589,5.792 -0.167,6.635 -3.244,1 -4.385,1.422 -6.755,-4.406 -0.656,-1.63 -3.989,-7.521 -3.989,-7.521 -1.485,-1.948 -1.885,-4.64 -1.199,-5.921 0.73,-1.349 0.543,-0.761 1.438,-1.885 0.87,-1.079 2.906,-1.855 3.99,-1.267 1.042,0.579 1.104,2.24 1.495,4.63 0.317,1.891 2.411,5.932 2.411,5.932"
     id="path139" />
  <path
     style="fill:none;stroke:#231f20;stroke-width:0.565977;stroke-linecap:butt;stroke-linejoin:miter;stroke-miterlimit:4;stroke-dasharray:none;stroke-opacity:1"
     d="m 320.56563,25.581988 c 1.448,2.771 2.062,3.219 2.776,3.803 4.469,3.661 2.589,5.792 -0.167,6.635 -3.244,1 -4.385,1.422 -6.755,-4.406 -0.656,-1.63 -3.989,-7.521 -3.989,-7.521 -1.485,-1.948 -1.885,-4.64 -1.199,-5.921 0.73,-1.349 0.543,-0.761 1.438,-1.885 0.87,-1.079 2.906,-1.855 3.99,-1.267 1.042,0.579 1.104,2.24 1.495,4.63 0.317,1.891 2.411,5.932 2.411,5.932 z"
     id="path140" />
  <path
     style="fill:#ffffff;fill-opacity:1;fill-rule:nonzero;stroke:none"
     d="m 309.28963,9.2649877 c 0.01,-0.245 -1.104,-0.562 -1,-1.073 0.104,-0.515 0.901,-0.557 2.089,-2.145 l 0.015,-0.016 c 0.833,-1.192 2.037,-1.891 3.281,-1.739 2.063,0.249 3.453,2.733 3.12,5.525 -0.348,2.8180003 -2.301,4.8800003 -4.359,4.6260003 -1.974,-0.235 -3.338,-2.522 -3.146,-5.1780003"
     id="path141" />
  <path
     style="fill:none;stroke:#231f20;stroke-width:0.565977;stroke-linecap:butt;stroke-linejoin:miter;stroke-miterlimit:4;stroke-dasharray:none;stroke-opacity:1"
     d="m 309.28963,9.2649877 c 0.01,-0.245 -1.104,-0.562 -1,-1.073 0.104,-0.515 0.901,-0.557 2.089,-2.145 l 0.015,-0.016 c 0.833,-1.192 2.037,-1.891 3.281,-1.739 2.063,0.249 3.453,2.733 3.12,5.525 -0.348,2.8180003 -2.301,4.8800003 -4.359,4.6260003 -1.974,-0.235 -3.338,-2.522 -3.146,-5.1780003 z"
     id="path142" />
  <path
     style="fill:#231f20;fill-opacity:1;fill-rule:nonzero;stroke:none"
     d="m 329.65463,47.540988 c 1.765,-1.427 2.296,-1.464 2.943,-0.765 0.437,0.473 1,0.754 1.276,1.025 0.926,0.901 2.12,2.819 4.062,9.109 0.443,1.423 1.078,3.418 1.4,4.21 0.511,1.26 -1.926,1.265 -2.134,0.765 -0.662,-1.584 -1.246,-2.609 -1.563,-3.145 -0.213,-0.371 -0.511,-1.074 -1.536,-2.387 -1.557,-1.995 -2.781,-2.952 -3.876,-4.765 -0.52,-0.839 -1.432,-1.14 -1.509,-2.23 -0.09,-1.077 0.937,-1.817 0.937,-1.817"
     id="path143" />
  <path
     style="fill:none;stroke:#231f20;stroke-width:0.565977;stroke-linecap:butt;stroke-linejoin:miter;stroke-miterlimit:4;stroke-dasharray:none;stroke-opacity:1"
     d="m 329.65463,47.540988 c 1.765,-1.427 2.296,-1.464 2.943,-0.765 0.437,0.473 1,0.754 1.276,1.025 0.926,0.901 2.12,2.819 4.062,9.109 0.443,1.423 1.078,3.418 1.4,4.21 0.511,1.26 -1.926,1.265 -2.134,0.765 -0.662,-1.584 -1.246,-2.609 -1.563,-3.145 -0.213,-0.371 -0.511,-1.074 -1.536,-2.387 -1.557,-1.995 -2.781,-2.952 -3.876,-4.765 -0.52,-0.839 -1.432,-1.14 -1.509,-2.23 -0.09,-1.077 0.937,-1.817 0.937,-1.817 z"
     id="path144" />
  <path
     style="fill:#231f20;fill-opacity:1;fill-rule:nonzero;stroke:#231f20;stroke-width:0.565977;stroke-linecap:round;stroke-linejoin:round;stroke-miterlimit:4;stroke-dasharray:none;stroke-opacity:1"
     d="m 330.65463,51.649988 c -1.407,-0.202 -2.016,-2.265 -2.245,-2.52 -3.364,-3.709 -3.516,-4.062 -5.875,-7.062 -3.421,-4.35 -5.093,-7.85 -3.145,-10.574 1.322,-1.849 2.885,-2.344 4.161,-2.03 1.416,0.358 3.801,2.452 3.348,5.312 l 0.667,1.577 c 0.573,1.011 0.854,1.511 1.182,1.985 0.568,0.818 1.126,1.739 2.146,3.411 1.802,2.964 2.75,6.693 2.75,6.693 0.156,0.266 0.178,0.547 0.131,0.812"
     id="path145" />
  <path
     style="fill:#63c99d;fill-opacity:1;fill-rule:nonzero;stroke:none"
     d="m 323.33163,29.509988 c -1.292,-0.27 -2.829,0.282 -4.084,2.176 -0.765,1.163 -0.885,2.434 -0.525,3.83 0.072,1.192 0.099,1.864 0.833,2.338 0.094,0.067 0.192,0.156 0.286,0.25 0.281,0.478 0.584,0.969 0.942,1.473 l 6.095,-4.895 c 0.348,-2.865 -2.115,-4.881 -3.547,-5.172"
     id="path146" />
  <path
     style="fill:none;stroke:#231f20;stroke-width:0.565977;stroke-linecap:butt;stroke-linejoin:miter;stroke-miterlimit:4;stroke-dasharray:none;stroke-opacity:1"
     d="m 323.33163,29.509988 c -1.292,-0.27 -2.829,0.282 -4.084,2.176 -0.765,1.163 -0.885,2.434 -0.525,3.83 0.072,1.192 0.099,1.864 0.833,2.338 0.094,0.067 0.192,0.156 0.286,0.25 0.281,0.478 0.584,0.969 0.942,1.473 l 6.095,-4.895 c 0.348,-2.865 -2.115,-4.881 -3.547,-5.172 z"
     id="path147" />
  <path
     style="fill:#231f20;fill-opacity:1;fill-rule:nonzero;stroke:none"
     d="m 315.58163,29.597988 c 1.297,-0.021 0.896,-2.021 0.865,-2.552 -0.027,-0.546 0.083,-2.104 0.317,-3.297 0.235,-1.203 0.016,-2.807 0.463,-5.088 0.235,-1.197 -0.296,-2.516 -2.052,-2.781 -1.739,-0.265 -2.541,0.615 -2.599,2.115 -0.068,1.489 0.506,2.921 0.542,4.431 0.048,1.511 -0.052,3.058 -0.192,4.266 -0.151,1.37 0.276,2.109 0.697,2.338 1.043,0.595 1.959,0.568 1.959,0.568"
     id="path148" />
  <path
     style="fill:none;stroke:#231f20;stroke-width:0.565977;stroke-linecap:butt;stroke-linejoin:miter;stroke-miterlimit:4;stroke-dasharray:none;stroke-opacity:1"
     d="m 315.58163,29.597988 c 1.297,-0.021 0.896,-2.021 0.865,-2.552 -0.027,-0.546 0.083,-2.104 0.317,-3.297 0.235,-1.203 0.016,-2.807 0.463,-5.088 0.235,-1.197 -0.296,-2.516 -2.052,-2.781 -1.739,-0.265 -2.541,0.615 -2.599,2.115 -0.068,1.489 0.506,2.921 0.542,4.431 0.048,1.511 -0.052,3.058 -0.192,4.266 -0.151,1.37 0.276,2.109 0.697,2.338 1.043,0.595 1.959,0.568 1.959,0.568 z"
     id="path149" />
  <path
     style="fill:#231f20;fill-opacity:1;fill-rule:nonzero;stroke:none"
     d="m 314.30563,38.217988 c 0.417,-0.484 0.417,-2.437 1.03,-3.926 0.412,-1 0.334,-3.746 0.83,-4.71 0.442,-0.89 0.557,-1.338 -0.371,-2.02 -0.547,-0.401 -1.864,-0.833 -2.183,-0.432 -0.754,0.922 -1.014,1.828 -1.093,2.895 -0.083,1.215 -0.02,4.527 0.041,5.136 0.178,1.511 -0.213,2.14 -0.208,2.536 0.016,0.767 0.318,0.948 0.803,1.047 0.943,0.193 1.151,-0.526 1.151,-0.526"
     id="path150" />
  <path
     style="fill:none;stroke:#231f20;stroke-width:0.565977;stroke-linecap:butt;stroke-linejoin:miter;stroke-miterlimit:4;stroke-dasharray:none;stroke-opacity:1"
     d="m 314.30563,38.217988 c 0.417,-0.484 0.417,-2.437 1.03,-3.926 0.412,-1 0.334,-3.746 0.83,-4.71 0.442,-0.89 0.557,-1.338 -0.371,-2.02 -0.547,-0.401 -1.864,-0.833 -2.183,-0.432 -0.754,0.922 -1.014,1.828 -1.093,2.895 -0.083,1.215 -0.02,4.527 0.041,5.136 0.178,1.511 -0.213,2.14 -0.208,2.536 0.016,0.767 0.318,0.948 0.803,1.047 0.943,0.193 1.151,-0.526 1.151,-0.526 z"
     id="path151" />
  <path
     style="fill:#231f20;fill-opacity:1;fill-rule:nonzero;stroke:none"
     d="m 311.79463,41.181988 c 0.839,0.834 2.188,0.828 3.021,-0.005 0.834,-0.833 0.828,-2.183 0,-3.016 -0.838,-0.833 -2.188,-0.833 -3.026,0 -0.834,0.839 -0.828,2.188 0.005,3.021"
     id="path152" />
  <path
     style="fill:#231f20;fill-opacity:1;fill-rule:nonzero;stroke:none"
     d="m 309.19563,63.581988 c 0.115,-1.348 -0.776,-1.781 -1.781,-1.514 -0.301,0.082 -0.64,-0.167 -0.926,-0.068 -0.662,0.24 -1.366,1.833 -0.172,2.754 0.082,0.068 0.546,0.74 0.973,1.194 0.838,0.88 2.933,2.229 5.562,1.634 1.251,-0.281 0.855,-0.962 0.314,-1.005 -1.704,-0.119 -1.83,-0.468 -2.267,-0.661 -1.484,-0.662 -1.703,-2.334 -1.703,-2.334"
     id="path153" />
  <path
     style="fill:none;stroke:#231f20;stroke-width:0.332927;stroke-linecap:butt;stroke-linejoin:miter;stroke-miterlimit:4;stroke-dasharray:none;stroke-opacity:1"
     d="m 309.19563,63.581988 c 0.115,-1.348 -0.776,-1.781 -1.781,-1.514 -0.301,0.082 -0.64,-0.167 -0.926,-0.068 -0.662,0.24 -1.366,1.833 -0.172,2.754 0.082,0.068 0.546,0.74 0.973,1.194 0.838,0.88 2.933,2.229 5.562,1.634 1.251,-0.281 0.855,-0.962 0.314,-1.005 -1.704,-0.119 -1.83,-0.468 -2.267,-0.661 -1.484,-0.662 -1.703,-2.334 -1.703,-2.334 z"
     id="path154" />
  <path
     style="fill:#63c99d;fill-opacity:1;fill-rule:nonzero;stroke:none"
     d="m 279.42563,33.024988 c 2.14,2.281 2.853,2.548 3.697,2.917 5.287,2.328 4.047,4.886 1.62,6.438 -2.853,1.833 -3.844,2.552 -7.686,-2.432 -1.068,-1.391 -5.866,-6.172 -5.866,-6.172 -1.953,-1.479 -3.062,-3.964 -2.74,-5.386 0.339,-1.494 0.314,-0.88 0.876,-2.202 0.542,-1.272 2.302,-2.568 3.506,-2.287 1.156,0.276 1.661,1.859 2.681,4.057 0.808,1.734 3.912,5.067 3.912,5.067"
     id="path155" />
  <path
     style="fill:none;stroke:#231f20;stroke-width:0.565977;stroke-linecap:butt;stroke-linejoin:miter;stroke-miterlimit:4;stroke-dasharray:none;stroke-opacity:1"
     d="m 279.42563,33.024988 c 2.14,2.281 2.853,2.548 3.697,2.917 5.287,2.328 4.047,4.886 1.62,6.438 -2.853,1.833 -3.844,2.552 -7.686,-2.432 -1.068,-1.391 -5.866,-6.172 -5.866,-6.172 -1.953,-1.479 -3.062,-3.964 -2.74,-5.386 0.339,-1.494 0.314,-0.88 0.876,-2.202 0.542,-1.272 2.302,-2.568 3.506,-2.287 1.156,0.276 1.661,1.859 2.681,4.057 0.808,1.734 3.912,5.067 3.912,5.067 z"
     id="path156" />
  <path
     style="fill:#ffffff;fill-opacity:1;fill-rule:nonzero;stroke:none"
     d="m 264.18563,20.332988 c -0.057,-0.24 -1.213,-0.245 -1.249,-0.765 -0.038,-0.527 0.718,-0.776 1.437,-2.625 l 0.005,-0.022 c 0.49,-1.369 1.458,-2.369 2.698,-2.557 2.057,-0.312 4.057,1.709 4.484,4.491 0.422,2.801 -0.906,5.311 -2.952,5.623 -1.964,0.303 -3.891,-1.53 -4.423,-4.145"
     id="path157" />
  <path
     style="fill:none;stroke:#231f20;stroke-width:0.565977;stroke-linecap:butt;stroke-linejoin:miter;stroke-miterlimit:4;stroke-dasharray:none;stroke-opacity:1"
     d="m 264.18563,20.332988 c -0.057,-0.24 -1.213,-0.245 -1.249,-0.765 -0.038,-0.527 0.718,-0.776 1.437,-2.625 l 0.005,-0.022 c 0.49,-1.369 1.458,-2.369 2.698,-2.557 2.057,-0.312 4.057,1.709 4.484,4.491 0.422,2.801 -0.906,5.311 -2.952,5.623 -1.964,0.303 -3.891,-1.53 -4.423,-4.145 z"
     id="path158" />
  <path
     style="fill:#231f20;fill-opacity:1;fill-rule:nonzero;stroke:none"
     d="m 294.08163,51.739988 c 1.312,-1.85 1.812,-2.027 2.625,-1.527 0.552,0.333 1.167,0.459 1.506,0.645 1.134,0.62 2.79,2.147 6.358,7.683 0.803,1.251 1.954,3.005 2.48,3.683 0.823,1.077 -1.521,1.729 -1.854,1.306 -1.058,-1.348 -1.896,-2.177 -2.35,-2.609 -0.306,-0.296 -0.776,-0.896 -2.124,-1.885 -2.026,-1.506 -3.469,-2.104 -5.01,-3.552 -0.724,-0.667 -1.683,-0.719 -2.047,-1.74 -0.381,-1.015 0.416,-2.004 0.416,-2.004"
     id="path159" />
  <path
     style="fill:none;stroke:#231f20;stroke-width:0.565977;stroke-linecap:butt;stroke-linejoin:miter;stroke-miterlimit:4;stroke-dasharray:none;stroke-opacity:1"
     d="m 294.08163,51.739988 c 1.312,-1.85 1.812,-2.027 2.625,-1.527 0.552,0.333 1.167,0.459 1.506,0.645 1.134,0.62 2.79,2.147 6.358,7.683 0.803,1.251 1.954,3.005 2.48,3.683 0.823,1.077 -1.521,1.729 -1.854,1.306 -1.058,-1.348 -1.896,-2.177 -2.35,-2.609 -0.306,-0.296 -0.776,-0.896 -2.124,-1.885 -2.026,-1.506 -3.469,-2.104 -5.01,-3.552 -0.724,-0.667 -1.683,-0.719 -2.047,-1.74 -0.381,-1.015 0.416,-2.004 0.416,-2.004 z"
     id="path160" />
  <path
     style="fill:#231f20;fill-opacity:1;fill-rule:nonzero;stroke:#231f20;stroke-width:0.565977;stroke-linecap:round;stroke-linejoin:round;stroke-miterlimit:4;stroke-dasharray:none;stroke-opacity:1"
     d="m 296.14463,55.431988 c -1.412,0.182 -2.552,-1.646 -2.839,-1.828 -4.24,-2.672 -4.473,-2.97 -7.557,-5.224 -4.459,-3.276 -7.011,-6.192 -5.87,-9.344 0.776,-2.135 2.156,-3.031 3.468,-3.072 1.459,-0.038 4.319,1.342 4.652,4.218 l 1.062,1.339 c 0.829,0.823 1.234,1.228 1.672,1.593 0.77,0.64 1.552,1.375 2.985,2.714 2.531,2.374 4.443,5.708 4.443,5.708 0.224,0.213 0.322,0.48 0.342,0.75"
     id="path161" />
  <path
     style="fill:#63c99d;fill-opacity:1;fill-rule:nonzero;stroke:none"
     d="m 283.14963,36.061988 c -1.317,0.088 -2.651,1.036 -3.355,3.198 -0.421,1.322 -0.197,2.584 0.522,3.828 0.39,1.13 0.598,1.77 1.432,2.032 0.109,0.036 0.224,0.098 0.344,0.161 0.401,0.385 0.822,0.776 1.301,1.167 l 4.557,-6.35 c -0.437,-2.854 -3.342,-4.134 -4.801,-4.036"
     id="path162" />
  <path
     style="fill:none;stroke:#231f20;stroke-width:0.565977;stroke-linecap:butt;stroke-linejoin:miter;stroke-miterlimit:4;stroke-dasharray:none;stroke-opacity:1"
     d="m 283.14963,36.061988 c -1.317,0.088 -2.651,1.036 -3.355,3.198 -0.421,1.322 -0.197,2.584 0.522,3.828 0.39,1.13 0.598,1.77 1.432,2.032 0.109,0.036 0.224,0.098 0.344,0.161 0.401,0.385 0.822,0.776 1.301,1.167 l 4.557,-6.35 c -0.437,-2.854 -3.342,-4.134 -4.801,-4.036 z"
     id="path163" />
  <path
     style="fill:#231f20;fill-opacity:1;fill-rule:nonzero;stroke:none"
     d="m 264.24263,35.420988 c 0.954,0.885 2.042,-0.839 2.396,-1.239 0.36,-0.417 1.506,-1.464 2.506,-2.166 1.005,-0.704 1.958,-2.011 3.854,-3.35 1,-0.702 1.526,-2.026 0.443,-3.432 -1.073,-1.39 -2.261,-1.308 -3.339,-0.27 -1.084,1.025 -1.661,2.457 -2.672,3.577 -1.016,1.125 -2.161,2.172 -3.094,2.948 -1.058,0.88 -1.26,1.713 -1.114,2.167 0.343,1.15 1.02,1.765 1.02,1.765"
     id="path164" />
  <path
     style="fill:none;stroke:#231f20;stroke-width:0.565977;stroke-linecap:butt;stroke-linejoin:miter;stroke-miterlimit:4;stroke-dasharray:none;stroke-opacity:1"
     d="m 264.24263,35.420988 c 0.954,0.885 2.042,-0.839 2.396,-1.239 0.36,-0.417 1.506,-1.464 2.506,-2.166 1.005,-0.704 1.958,-2.011 3.854,-3.35 1,-0.702 1.526,-2.026 0.443,-3.432 -1.073,-1.39 -2.261,-1.308 -3.339,-0.27 -1.084,1.025 -1.661,2.457 -2.672,3.577 -1.016,1.125 -2.161,2.172 -3.094,2.948 -1.058,0.88 -1.26,1.713 -1.114,2.167 0.343,1.15 1.02,1.765 1.02,1.765 z"
     id="path165" />
  <path
     style="fill:#231f20;fill-opacity:1;fill-rule:nonzero;stroke:none"
     d="m 225.54563,37.332988 c -1.152,-0.245 -2.281,0.495 -2.521,1.645 -0.244,1.156 0.494,2.287 1.65,2.527 1.152,0.239 2.282,-0.5 2.527,-1.651 0.24,-1.152 -0.505,-2.281 -1.656,-2.521"
     id="path166" />
  <path
     style="fill:#231f20;fill-opacity:1;fill-rule:nonzero;stroke:none"
     d="m 265.00263,98.264988 c -0.27,-1.323 -1.249,-1.484 -2.14,-0.948 -0.265,0.161 -0.661,0.021 -0.906,0.193 -0.572,0.422 -0.791,2.146 0.604,2.698002 0.105,0.036 0.74,0.552 1.272,0.865 1.052,0.609 3.446,1.323 5.801,0.009 1.12,-0.618 0.547,-1.166002 0.016,-1.057 -1.667,0.371 -1.885,0.073 -2.36,0 -1.615,-0.208002 -2.287,-1.760002 -2.287,-1.760002"
     id="path167" />
  <path
     style="fill:none;stroke:#231f20;stroke-width:0.332927;stroke-linecap:butt;stroke-linejoin:miter;stroke-miterlimit:4;stroke-dasharray:none;stroke-opacity:1"
     d="m 265.00263,98.264988 c -0.27,-1.323 -1.249,-1.484 -2.14,-0.948 -0.265,0.161 -0.661,0.021 -0.906,0.193 -0.572,0.422 -0.791,2.146 0.604,2.698002 0.105,0.036 0.74,0.552 1.272,0.865 1.052,0.609 3.446,1.323 5.801,0.009 1.12,-0.618 0.547,-1.166002 0.016,-1.057 -1.667,0.371 -1.885,0.073 -2.36,0 -1.615,-0.208002 -2.287,-1.760002 -2.287,-1.760002 z"
     id="path168" />
  <path
     style="fill:#63c99d;fill-opacity:1;fill-rule:nonzero;stroke:none"
     d="m 239.81063,66.551988 c 1.38,2.806 1.984,3.265 2.683,3.869 4.375,3.776 2.443,5.855 -0.333,6.631 -3.267,0.921 -4.418,1.312 -6.642,-4.574 -0.62,-1.64 -3.801,-7.62 -3.801,-7.62 -1.433,-1.984 -1.772,-4.681 -1.048,-5.948 0.767,-1.328 0.563,-0.749 1.485,-1.848 0.891,-1.057 2.954,-1.786 4.02,-1.161 1.027,0.599 1.043,2.26 1.376,4.661 0.271,1.896 2.26,5.99 2.26,5.99"
     id="path169" />
  <path
     style="fill:none;stroke:#231f20;stroke-width:0.565977;stroke-linecap:butt;stroke-linejoin:miter;stroke-miterlimit:4;stroke-dasharray:none;stroke-opacity:1"
     d="m 239.81063,66.551988 c 1.38,2.806 1.984,3.265 2.683,3.869 4.375,3.776 2.443,5.855 -0.333,6.631 -3.267,0.921 -4.418,1.312 -6.642,-4.574 -0.62,-1.64 -3.801,-7.62 -3.801,-7.62 -1.433,-1.984 -1.772,-4.681 -1.048,-5.948 0.767,-1.328 0.563,-0.749 1.485,-1.848 0.891,-1.057 2.954,-1.786 4.02,-1.161 1.027,0.599 1.043,2.26 1.376,4.661 0.271,1.896 2.26,5.99 2.26,5.99 z"
     id="path170" />
  <path
     style="fill:#ffffff;fill-opacity:1;fill-rule:nonzero;stroke:none"
     d="m 228.66963,50.275988 c -0.015,-0.246 -1.145,-0.475 -1.083,-0.995 0.068,-0.527 0.86,-0.625 1.922,-2.303 l 0.01,-0.014 c 0.74,-1.251 1.891,-2.043 3.142,-1.986 2.077,0.095 3.65,2.459 3.525,5.276 -0.125,2.828 -1.916,5.038 -3.984,4.943 -1.989,-0.083 -3.521,-2.26 -3.532,-4.921"
     id="path171" />
  <path
     style="fill:none;stroke:#231f20;stroke-width:0.565977;stroke-linecap:butt;stroke-linejoin:miter;stroke-miterlimit:4;stroke-dasharray:none;stroke-opacity:1"
     d="m 228.66963,50.275988 c -0.015,-0.246 -1.145,-0.475 -1.083,-0.995 0.068,-0.527 0.86,-0.625 1.922,-2.303 l 0.01,-0.014 c 0.74,-1.251 1.891,-2.043 3.142,-1.986 2.077,0.095 3.65,2.459 3.525,5.276 -0.125,2.828 -1.916,5.038 -3.984,4.943 -1.989,-0.083 -3.521,-2.26 -3.532,-4.921 z"
     id="path172" />
  <path
     style="fill:#231f20;fill-opacity:1;fill-rule:nonzero;stroke:none"
     d="m 247.16563,91.149988 c 0.739,-2.14 1.167,-2.458 2.088,-2.197 0.625,0.167 1.249,0.109 1.625,0.192 1.271,0.271 3.287,1.276 8.266,5.584 1.125,0.979 2.718,2.339 3.416,2.844 1.089,0.796 -0.974,2.083 -1.411,1.771 -1.401,-0.995 -2.437,-1.563 -2.995,-1.844 -0.38,-0.199 -0.994,-0.642 -2.562,-1.214 -2.37,-0.87 -3.923,-1.042 -5.808,-2 -0.886,-0.437 -1.818,-0.213 -2.458,-1.094 -0.646,-0.864 -0.161,-2.042 -0.161,-2.042"
     id="path173" />
  <path
     style="fill:none;stroke:#231f20;stroke-width:0.565977;stroke-linecap:butt;stroke-linejoin:miter;stroke-miterlimit:4;stroke-dasharray:none;stroke-opacity:1"
     d="m 247.16563,91.149988 c 0.739,-2.14 1.167,-2.458 2.088,-2.197 0.625,0.167 1.249,0.109 1.625,0.192 1.271,0.271 3.287,1.276 8.266,5.584 1.125,0.979 2.718,2.339 3.416,2.844 1.089,0.796 -0.974,2.083 -1.411,1.771 -1.401,-0.995 -2.437,-1.563 -2.995,-1.844 -0.38,-0.199 -0.994,-0.642 -2.562,-1.214 -2.37,-0.87 -3.923,-1.042 -5.808,-2 -0.886,-0.437 -1.818,-0.213 -2.458,-1.094 -0.646,-0.864 -0.161,-2.042 -0.161,-2.042 z"
     id="path174" />
  <path
     style="fill:#231f20;fill-opacity:1;fill-rule:nonzero;stroke:#231f20;stroke-width:0.565977;stroke-linecap:round;stroke-linejoin:round;stroke-miterlimit:4;stroke-dasharray:none;stroke-opacity:1"
     d="m 247.11363,93.092988 c -1.371,-0.375 -1.72,-2.5 -1.917,-2.776 -2.886,-4.099 -2.99,-4.468 -4.959,-7.74 -2.859,-4.733 -4.088,-8.411 -1.823,-10.88 1.542,-1.667 3.151,-1.963 4.38,-1.495 1.36,0.527 3.47,2.902 2.667,5.678 l 0.469,1.645 c 0.448,1.079 0.667,1.609 0.927,2.115 0.469,0.885 0.912,1.876 1.713,3.657 1.428,3.167 1.902,6.979 1.902,6.979 0.125,0.286 0.114,0.568 0.03,0.822"
     id="path175" />
  <path
     style="fill:#63c99d;fill-opacity:1;fill-rule:nonzero;stroke:none"
     d="m 242.57663,70.212988 c -1.25,-0.427 -2.85,-0.063 -4.323,1.661 -0.907,1.058 -1.183,2.314 -0.995,3.74 -0.073,1.192 -0.13,1.859 0.536,2.416 0.09,0.079 0.172,0.178 0.256,0.282 0.219,0.51 0.458,1.037 0.755,1.584 l 6.645,-4.104 c 0.704,-2.808 -1.494,-5.106 -2.874,-5.579"
     id="path176" />
  <path
     style="fill:none;stroke:#231f20;stroke-width:0.565977;stroke-linecap:butt;stroke-linejoin:miter;stroke-miterlimit:4;stroke-dasharray:none;stroke-opacity:1"
     d="m 242.57663,70.212988 c -1.25,-0.427 -2.85,-0.063 -4.323,1.661 -0.907,1.058 -1.183,2.314 -0.995,3.74 -0.073,1.192 -0.13,1.859 0.536,2.416 0.09,0.079 0.172,0.178 0.256,0.282 0.219,0.51 0.458,1.037 0.755,1.584 l 6.645,-4.104 c 0.704,-2.808 -1.494,-5.106 -2.874,-5.579 z"
     id="path177" />
  <path
     style="fill:#231f20;fill-opacity:1;fill-rule:nonzero;stroke:none"
     d="m 224.08163,40.504988 c -0.115,0.629 0.875,2.312 1.099,3.905 0.152,1.074 1.604,3.402 1.672,4.48 0.068,0.995 0.188,1.443 1.333,1.563 0.683,0.068 2.032,-0.229 2.109,-0.735 0.178,-1.172 -0.052,-2.093 -0.525,-3.046 -0.543,-1.095 -2.271,-3.918 -2.636,-4.412 -0.911,-1.214 -0.896,-1.948 -1.104,-2.296 -0.401,-0.652 -0.751,-0.658 -1.224,-0.491 -0.907,0.313 -0.724,1.032 -0.724,1.032"
     id="path178" />
  <path
     style="fill:none;stroke:#231f20;stroke-width:0.565977;stroke-linecap:butt;stroke-linejoin:miter;stroke-miterlimit:4;stroke-dasharray:none;stroke-opacity:1"
     d="m 224.08163,40.504988 c -0.115,0.629 0.875,2.312 1.099,3.905 0.152,1.074 1.604,3.402 1.672,4.48 0.068,0.995 0.188,1.443 1.333,1.563 0.683,0.068 2.032,-0.229 2.109,-0.735 0.178,-1.172 -0.052,-2.093 -0.525,-3.046 -0.543,-1.095 -2.271,-3.918 -2.636,-4.412 -0.911,-1.214 -0.896,-1.948 -1.104,-2.296 -0.401,-0.652 -0.751,-0.658 -1.224,-0.491 -0.907,0.313 -0.724,1.032 -0.724,1.032 z"
     id="path179" />
  <path
     style="fill:#231f20;fill-opacity:1;fill-rule:nonzero;stroke:none"
     d="m 227.52963,48.884988 c -1.14,0.62 0.145,2.203 0.421,2.661 0.276,0.474 0.912,1.896 1.262,3.063 0.353,1.177 1.286,2.495 1.962,4.719 0.35,1.172 1.434,2.088 3.11,1.505 1.661,-0.584 1.958,-1.729 1.318,-3.084 -0.636,-1.353 -1.813,-2.348 -2.552,-3.672 -0.745,-1.312 -1.376,-2.724 -1.818,-3.859 -0.51,-1.286 -1.234,-1.74 -1.708,-1.745 -1.198,-0.036 -1.995,0.412 -1.995,0.412"
     id="path180" />
  <path
     style="fill:none;stroke:#231f20;stroke-width:0.565977;stroke-linecap:butt;stroke-linejoin:miter;stroke-miterlimit:4;stroke-dasharray:none;stroke-opacity:1"
     d="m 227.52963,48.884988 c -1.14,0.62 0.145,2.203 0.421,2.661 0.276,0.474 0.912,1.896 1.262,3.063 0.353,1.177 1.286,2.495 1.962,4.719 0.35,1.172 1.434,2.088 3.11,1.505 1.661,-0.584 1.958,-1.729 1.318,-3.084 -0.636,-1.353 -1.813,-2.348 -2.552,-3.672 -0.745,-1.312 -1.376,-2.724 -1.818,-3.859 -0.51,-1.286 -1.234,-1.74 -1.708,-1.745 -1.198,-0.036 -1.995,0.412 -1.995,0.412 z"
     id="path181" />
  <path
     style="fill:#231f20;fill-opacity:1;fill-rule:nonzero;stroke:none"
     d="m 212.00263,37.827988 c -0.828,-0.844 -2.176,-0.85 -3.014,-0.022 -0.839,0.824 -0.85,2.178 -0.016,3.016 0.822,0.839 2.172,0.85 3.016,0.022 0.833,-0.828 0.844,-2.178 0.014,-3.016"
     id="path182" />
  <path
     style="fill:#231f20;fill-opacity:1;fill-rule:nonzero;stroke:none"
     d="m 209.66963,106.52499 c 0.333,-1.307 -0.473,-1.885 -1.504,-1.791 -0.313,0.031 -0.605,-0.27 -0.901,-0.218 -0.694,0.118 -1.652,1.582 -0.636,2.686 0.073,0.079 0.417,0.818 0.761,1.334 0.676,1.01 2.52,2.698 5.208,2.552 1.276,-0.068 1.005,-0.807 0.479,-0.943 -1.662,-0.401 -1.724,-0.76 -2.126,-1.031 -1.353,-0.901 -1.281,-2.589 -1.281,-2.589"
     id="path183" />
  <path
     style="fill:none;stroke:#231f20;stroke-width:0.332927;stroke-linecap:butt;stroke-linejoin:miter;stroke-miterlimit:4;stroke-dasharray:none;stroke-opacity:1"
     d="m 209.66963,106.52499 c 0.333,-1.307 -0.473,-1.885 -1.504,-1.791 -0.313,0.031 -0.605,-0.27 -0.901,-0.218 -0.694,0.118 -1.652,1.582 -0.636,2.686 0.073,0.079 0.417,0.818 0.761,1.334 0.676,1.01 2.52,2.698 5.208,2.552 1.276,-0.068 1.005,-0.807 0.479,-0.943 -1.662,-0.401 -1.724,-0.76 -2.126,-1.031 -1.353,-0.901 -1.281,-2.589 -1.281,-2.589 z"
     id="path184" />
  <path
     style="fill:#63c99d;fill-opacity:1;fill-rule:nonzero;stroke:none"
     d="m 208.85763,69.764988 c 0.057,3.131 0.412,3.797 0.787,4.641 2.358,5.276 -0.276,6.338 -3.12,5.864 -3.344,-0.552 -4.552,-0.688 -4.068,-6.958 0.141,-1.75 -0.208,-8.511 -0.208,-8.511 -0.454,-2.411 0.39,-5 1.578,-5.837 1.26,-0.882 0.828,-0.439 2.13,-1.043 1.261,-0.577 3.433,-0.359 4.136,0.656 0.672,0.975 -0.022,2.491 -0.735,4.808 -0.563,1.833 -0.5,6.38 -0.5,6.38"
     id="path185" />
  <path
     style="fill:none;stroke:#231f20;stroke-width:0.565977;stroke-linecap:butt;stroke-linejoin:miter;stroke-miterlimit:4;stroke-dasharray:none;stroke-opacity:1"
     d="m 208.85763,69.764988 c 0.057,3.131 0.412,3.797 0.787,4.641 2.358,5.276 -0.276,6.338 -3.12,5.864 -3.344,-0.552 -4.552,-0.688 -4.068,-6.958 0.141,-1.75 -0.208,-8.511 -0.208,-8.511 -0.454,-2.411 0.39,-5 1.578,-5.837 1.26,-0.882 0.828,-0.439 2.13,-1.043 1.261,-0.577 3.433,-0.359 4.136,0.656 0.672,0.975 -0.022,2.491 -0.735,4.808 -0.563,1.833 -0.5,6.38 -0.5,6.38 z"
     id="path186" />
  <path
     style="fill:#ffffff;fill-opacity:1;fill-rule:nonzero;stroke:none"
     d="m 202.40963,54.228988 c -0.151,-0.193 -1.208,0.26 -1.453,-0.199 -0.244,-0.468 0.349,-1.005 0.27,-2.984 v -0.021 c -0.104,-1.452 0.391,-2.755 1.448,-3.421 1.767,-1.104 4.407,-0.058 5.907,2.328 1.505,2.401 1.292,5.234 -0.464,6.338 -1.681,1.058 -4.181,0.14 -5.708,-2.041"
     id="path187" />
  <path
     style="fill:none;stroke:#231f20;stroke-width:0.565977;stroke-linecap:butt;stroke-linejoin:miter;stroke-miterlimit:4;stroke-dasharray:none;stroke-opacity:1"
     d="m 202.40963,54.228988 c -0.151,-0.193 -1.208,0.26 -1.453,-0.199 -0.244,-0.468 0.349,-1.005 0.27,-2.984 v -0.021 c -0.104,-1.452 0.391,-2.755 1.448,-3.421 1.767,-1.104 4.407,-0.058 5.907,2.328 1.505,2.401 1.292,5.234 -0.464,6.338 -1.681,1.058 -4.181,0.14 -5.708,-2.041 z"
     id="path188" />
  <path
     style="fill:#231f20;fill-opacity:1;fill-rule:nonzero;stroke:none"
     d="m 196.75363,92.311988 c 1.604,-1.599 2.131,-1.692 2.844,-1.063 0.489,0.423 1.072,0.647 1.38,0.891 1.016,0.802 2.396,2.584 4.973,8.636002 0.584,1.374 1.423,3.297 1.83,4.052 0.629,1.202 -1.792,1.448 -2.048,0.978 -0.818,-1.505 -1.506,-2.473 -1.88,-2.968 -0.25,-0.344 -0.615,-1.016 -1.771,-2.218 -1.749,-1.823002 -3.073,-2.652002 -4.349,-4.339002 -0.599,-0.781 -1.536,-0.989 -1.724,-2.063 -0.203,-1.062 0.745,-1.906 0.745,-1.906"
     id="path189" />
  <path
     style="fill:none;stroke:#231f20;stroke-width:0.565977;stroke-linecap:butt;stroke-linejoin:miter;stroke-miterlimit:4;stroke-dasharray:none;stroke-opacity:1"
     d="m 196.75363,92.311988 c 1.604,-1.599 2.131,-1.692 2.844,-1.063 0.489,0.423 1.072,0.647 1.38,0.891 1.016,0.802 2.396,2.584 4.973,8.636002 0.584,1.374 1.423,3.297 1.83,4.052 0.629,1.202 -1.792,1.448 -2.048,0.978 -0.818,-1.505 -1.506,-2.473 -1.88,-2.968 -0.25,-0.344 -0.615,-1.016 -1.771,-2.218 -1.749,-1.823002 -3.073,-2.652002 -4.349,-4.339002 -0.599,-0.781 -1.536,-0.989 -1.724,-2.063 -0.203,-1.062 0.745,-1.906 0.745,-1.906 z"
     id="path190" />
  <path
     style="fill:#231f20;fill-opacity:1;fill-rule:nonzero;stroke:#231f20;stroke-width:0.565977;stroke-linecap:round;stroke-linejoin:round;stroke-miterlimit:4;stroke-dasharray:none;stroke-opacity:1"
     d="m 195.94563,93.988988 c -0.593,-1.292 0.813,-2.921 0.901,-3.249 1.292,-4.844 1.506,-5.158 2.746,-8.772 1.797,-5.234 3.828,-8.536 7.177,-8.38 2.271,0.104 3.525,1.152 3.957,2.396 0.47,1.38 0,4.526 -2.645,5.693 l -0.959,1.411 c -0.536,1.037 -0.801,1.546 -1.025,2.073 -0.38,0.921 -0.855,1.896 -1.704,3.656 -1.509,3.125 -4.124,5.943 -4.124,5.943 -0.141,0.276 -0.365,0.448 -0.615,0.546"
     id="path191" />
  <path
     style="fill:#63c99d;fill-opacity:1;fill-rule:nonzero;stroke:none"
     d="m 206.52963,73.572988 c -1.391,-0.011 -2.531,0.577 -3.511,1.64 -0.958,0.708 -1.505,1.093 -1.505,1.964 -0.005,0.115 -0.025,0.244 -0.052,0.375 -0.249,0.494 -0.5,1.021 -0.729,1.593 l 7.417,2.464 c 2.599,-1.26 2.953,-4.421 2.427,-5.787 -0.474,-1.229 -1.782,-2.218 -4.047,-2.249"
     id="path192" />
  <path
     style="fill:none;stroke:#231f20;stroke-width:0.565977;stroke-linecap:butt;stroke-linejoin:miter;stroke-miterlimit:4;stroke-dasharray:none;stroke-opacity:1"
     d="m 206.52963,73.572988 c -1.391,-0.011 -2.531,0.577 -3.511,1.64 -0.958,0.708 -1.505,1.093 -1.505,1.964 -0.005,0.115 -0.025,0.244 -0.052,0.375 -0.249,0.494 -0.5,1.021 -0.729,1.593 l 7.417,2.464 c 2.599,-1.26 2.953,-4.421 2.427,-5.787 -0.474,-1.229 -1.782,-2.218 -4.047,-2.249 z"
     id="path193" />
  <path
     style="fill:#231f20;fill-opacity:1;fill-rule:nonzero;stroke:none"
     d="m 209.02963,39.660988 c -0.443,0.464 -0.552,2.412 -1.249,3.86 -0.47,0.979 -0.543,3.723 -1.084,4.661 -0.49,0.864 -0.64,1.307 0.249,2.036 0.527,0.438 1.824,0.932 2.163,0.558 0.796,-0.88 1.114,-1.776 1.249,-2.828 0.151,-1.214 0.276,-4.522 0.24,-5.136 -0.089,-1.515 0.333,-2.12 0.348,-2.52 0.032,-0.767 -0.255,-0.964 -0.744,-1.095 -0.927,-0.239 -1.172,0.464 -1.172,0.464"
     id="path194" />
  <path
     style="fill:none;stroke:#231f20;stroke-width:0.565977;stroke-linecap:butt;stroke-linejoin:miter;stroke-miterlimit:4;stroke-dasharray:none;stroke-opacity:1"
     d="m 209.02963,39.660988 c -0.443,0.464 -0.552,2.412 -1.249,3.86 -0.47,0.979 -0.543,3.723 -1.084,4.661 -0.49,0.864 -0.64,1.307 0.249,2.036 0.527,0.438 1.824,0.932 2.163,0.558 0.796,-0.88 1.114,-1.776 1.249,-2.828 0.151,-1.214 0.276,-4.522 0.24,-5.136 -0.089,-1.515 0.333,-2.12 0.348,-2.52 0.032,-0.767 -0.255,-0.964 -0.744,-1.095 -0.927,-0.239 -1.172,0.464 -1.172,0.464 z"
     id="path195" />
  <path
     style="fill:#231f20;fill-opacity:1;fill-rule:nonzero;stroke:none"
     d="m 207.26463,48.545988 c -1.292,-0.109 -1.095,1.922 -1.12,2.459 -0.031,0.541 -0.292,2.077 -0.646,3.244 -0.354,1.177 -0.302,2.792 -0.974,5.016 -0.355,1.172 0.046,2.532 1.765,2.975 1.699,0.432 2.584,-0.36 2.797,-1.839 0.219,-1.48 -0.208,-2.964 -0.098,-4.469 0.114,-1.511 0.364,-3.036 0.624,-4.224 0.286,-1.355 -0.062,-2.131 -0.458,-2.402 -0.974,-0.686 -1.89,-0.76 -1.89,-0.76"
     id="path196" />
  <path
     style="fill:none;stroke:#231f20;stroke-width:0.565977;stroke-linecap:butt;stroke-linejoin:miter;stroke-miterlimit:4;stroke-dasharray:none;stroke-opacity:1"
     d="m 207.26463,48.545988 c -1.292,-0.109 -1.095,1.922 -1.12,2.459 -0.031,0.541 -0.292,2.077 -0.646,3.244 -0.354,1.177 -0.302,2.792 -0.974,5.016 -0.355,1.172 0.046,2.532 1.765,2.975 1.699,0.432 2.584,-0.36 2.797,-1.839 0.219,-1.48 -0.208,-2.964 -0.098,-4.469 0.114,-1.511 0.364,-3.036 0.624,-4.224 0.286,-1.355 -0.062,-2.131 -0.458,-2.402 -0.974,-0.686 -1.89,-0.76 -1.89,-0.76 z"
     id="path197" />
  <path
     style="fill:#231f20;fill-opacity:1;fill-rule:nonzero;stroke:none"
     d="m 9.749028,10.056988 c -0.9215,0.984 -0.4839,1.88 0.4692,2.292 0.2813,0.124 0.3948,0.52 0.6813,0.619 0.6667,0.224 2.2041,-0.593 1.8443,-2.052 -0.0256,-0.099 0.0213,-0.9160003 -0.0308,-1.5360003 -0.1146,-1.208 -0.9323,-3.568 -3.3656,-4.735 -1.1506,-0.546 -1.2599,0.235 -0.8642,0.604 1.2658,1.152 1.1511,1.5 1.3699,1.923 0.7599,1.437 -0.1041,2.8850003 -0.1041,2.8850003"
     id="path198" />
  <path
     style="fill:none;stroke:#231f20;stroke-width:0.332927;stroke-linecap:butt;stroke-linejoin:miter;stroke-miterlimit:4;stroke-dasharray:none;stroke-opacity:1"
     d="m 9.749028,10.056988 c -0.9215,0.984 -0.4839,1.88 0.4692,2.292 0.2813,0.124 0.3948,0.52 0.6813,0.619 0.6667,0.224 2.2041,-0.593 1.8443,-2.052 -0.0256,-0.099 0.0213,-0.9160003 -0.0308,-1.5360003 -0.1146,-1.208 -0.9323,-3.568 -3.3656,-4.735 -1.1506,-0.546 -1.2599,0.235 -0.8642,0.604 1.2658,1.152 1.1511,1.5 1.3699,1.923 0.7599,1.437 -0.1041,2.8850003 -0.1041,2.8850003 z"
     id="path199" />
  <path
     style="fill:#231f20;fill-opacity:1;fill-rule:nonzero;stroke:none"
     d="m 14.535428,28.176988 c -2.1667,0.677 -2.6771,0.509 -3.0156,-0.38 -0.235,-0.589 -0.6511,-1.063 -0.8068,-1.423 -0.5214,-1.186 -0.9178,-3.396 -0.3964,-9.958 0.1256,-1.489 0.2818,-3.577 0.2761,-4.437 -0.0156,-1.359 2.2443,-0.454 2.2547,0.073 0.0322,1.724 0.188,2.896 0.2812,3.516 0.0682,0.416 0.0844,1.181 0.5469,2.776 0.7041,2.437 1.4853,3.786 1.8333,5.869 0.1667,0.969 0.9068,1.588 0.5735,2.625 -0.3172,1.036 -1.5469,1.339 -1.5469,1.339"
     id="path200" />
  <path
     style="fill:none;stroke:#231f20;stroke-width:0.565977;stroke-linecap:butt;stroke-linejoin:miter;stroke-miterlimit:4;stroke-dasharray:none;stroke-opacity:1"
     d="m 14.535428,28.176988 c -2.1667,0.677 -2.6771,0.509 -3.0156,-0.38 -0.235,-0.589 -0.6511,-1.063 -0.8068,-1.423 -0.5214,-1.186 -0.9178,-3.396 -0.3964,-9.958 0.1256,-1.489 0.2818,-3.577 0.2761,-4.437 -0.0156,-1.359 2.2443,-0.454 2.2547,0.073 0.0322,1.724 0.188,2.896 0.2812,3.516 0.0682,0.416 0.0844,1.181 0.5469,2.776 0.7041,2.437 1.4853,3.786 1.8333,5.869 0.1667,0.969 0.9068,1.588 0.5735,2.625 -0.3172,1.036 -1.5469,1.339 -1.5469,1.339 z"
     id="path201" />
  <path
     style="fill:#63c99d;fill-opacity:1;fill-rule:nonzero;stroke:none"
     d="m 21.077128,53.499988 c -2.1724,-2.26 -2.8855,-2.511 -3.7349,-2.875 -5.3172,-2.267 -4.0984,-4.833 -1.6923,-6.417 2.8281,-1.87 3.8016,-2.594 7.7136,2.338 1.0838,1.38 5.9374,6.094 5.9374,6.094 1.9694,1.458 3.1095,3.933 2.8079,5.36 -0.324,1.494 -0.3079,0.88 -0.8547,2.213 -0.5266,1.276 -2.2652,2.593 -3.4734,2.323 -1.1574,-0.255 -1.6771,-1.834 -2.7344,-4.026 -0.8282,-1.718 -3.9692,-5.01 -3.9692,-5.01"
     id="path202" />
  <path
     style="fill:none;stroke:#231f20;stroke-width:0.565977;stroke-linecap:butt;stroke-linejoin:miter;stroke-miterlimit:4;stroke-dasharray:none;stroke-opacity:1"
     d="m 21.077128,53.499988 c -2.1724,-2.26 -2.8855,-2.511 -3.7349,-2.875 -5.3172,-2.267 -4.0984,-4.833 -1.6923,-6.417 2.8281,-1.87 3.8016,-2.594 7.7136,2.338 1.0838,1.38 5.9374,6.094 5.9374,6.094 1.9694,1.458 3.1095,3.933 2.8079,5.36 -0.324,1.494 -0.3079,0.88 -0.8547,2.213 -0.5266,1.276 -2.2652,2.593 -3.4734,2.323 -1.1574,-0.255 -1.6771,-1.834 -2.7344,-4.026 -0.8282,-1.718 -3.9692,-5.01 -3.9692,-5.01 z"
     id="path203" />
  <path
     style="fill:#ffffff;fill-opacity:1;fill-rule:nonzero;stroke:none"
     d="m 37.827428,63.275988 c 0.1923,0.156 1.1344,-0.495 1.4626,-0.088 0.3281,0.405 -0.1402,1.046 0.3281,2.973 l 0.0104,0.021 c 0.3855,1.4 0.1563,2.776 -0.7547,3.64 -1.5052,1.427 -4.3025,0.927 -6.2453,-1.114 -1.9421,-2.052 -2.301,-4.87 -0.801,-6.302 1.4376,-1.37 4.0719,-0.974 5.9999,0.87"
     id="path204" />
  <path
     style="fill:none;stroke:#231f20;stroke-width:0.565977;stroke-linecap:butt;stroke-linejoin:miter;stroke-miterlimit:4;stroke-dasharray:none;stroke-opacity:1"
     d="m 37.827428,63.275988 c 0.1923,0.156 1.1344,-0.495 1.4626,-0.088 0.3281,0.405 -0.1402,1.046 0.3281,2.973 l 0.0104,0.021 c 0.3855,1.4 0.1563,2.776 -0.7547,3.64 -1.5052,1.427 -4.3025,0.927 -6.2453,-1.114 -1.9421,-2.052 -2.301,-4.87 -0.801,-6.302 1.4376,-1.37 4.0719,-0.974 5.9999,0.87 z"
     id="path205" />
  <path
     style="fill:#231f20;fill-opacity:1;fill-rule:nonzero;stroke:none"
     d="m 13.279628,26.051988 c 3.7146,-1.516 3.4068,2.552 3.5839,3 1.9068,4.63 1.9317,5.01 3.1453,8.63 1.7453,5.244 2.1411,9.11 -0.6146,11.015 -1.8692,1.292 -3.5042,1.235 -4.6042,0.511 -1.2129,-0.818 -2.7494,-3.604 -1.353,-6.135 l -0.0896,-1.715 c -0.2079,-1.134 -0.3011,-1.702 -0.4479,-2.26 -0.26,-0.973 -0.4735,-2.025 -0.8693,-3.942 -0.7027,-3.402 -0.3282,-7.219 -0.3282,-7.219 -0.2188,-1.229 1.5776,-1.885 1.5776,-1.885"
     id="path206" />
  <path
     style="fill:none;stroke:#231f20;stroke-width:0.565977;stroke-linecap:butt;stroke-linejoin:miter;stroke-miterlimit:4;stroke-dasharray:none;stroke-opacity:1"
     d="m 13.279628,26.051988 c 3.7146,-1.516 3.4068,2.552 3.5839,3 1.9068,4.63 1.9317,5.01 3.1453,8.63 1.7453,5.244 2.1411,9.11 -0.6146,11.015 -1.8692,1.292 -3.5042,1.235 -4.6042,0.511 -1.2129,-0.818 -2.7494,-3.604 -1.353,-6.135 l -0.0896,-1.715 c -0.2079,-1.134 -0.3011,-1.702 -0.4479,-2.26 -0.26,-0.973 -0.4735,-2.025 -0.8693,-3.942 -0.7027,-3.402 -0.3282,-7.219 -0.3282,-7.219 -0.2188,-1.229 1.5776,-1.885 1.5776,-1.885 z"
     id="path207" />
  <path
     style="fill:#63c99d;fill-opacity:1;fill-rule:nonzero;stroke:none"
     d="m 21.816528,43.660988 c -0.0317,-0.063 -0.0572,-0.14 -0.0837,-0.219 0.0213,-0.584 0.0161,-1.193 -0.0256,-1.849 l -7.7505,0.989 c -1.7959,2.272 -0.7437,5.267 0.3188,6.267 0.9625,0.9 2.5615,1.233 4.624,0.276 1.328,-0.625 2.1093,-1.74 2.5109,-3.24 0.4837,-0.917 0.7557,-1.489 0.4061,-2.224"
     id="path208" />
  <path
     style="fill:none;stroke:#231f20;stroke-width:0.565977;stroke-linecap:butt;stroke-linejoin:miter;stroke-miterlimit:4;stroke-dasharray:none;stroke-opacity:1"
     d="m 21.816528,43.660988 c -0.0317,-0.063 -0.0572,-0.14 -0.0837,-0.219 0.0213,-0.584 0.0161,-1.193 -0.0256,-1.849 l -7.7505,0.989 c -1.7959,2.272 -0.7437,5.267 0.3188,6.267 0.9625,0.9 2.5615,1.233 4.624,0.276 1.328,-0.625 2.1093,-1.74 2.5109,-3.24 0.4837,-0.917 0.7557,-1.489 0.4061,-2.224 z"
     id="path209" />
  <path
     style="fill:#231f20;fill-opacity:1;fill-rule:nonzero;stroke:none"
     d="m 35.300928,40.540988 c -0.5416,0.355 -1.0776,2.224 -2.0828,3.484 -0.6828,0.844 -1.376,3.505 -2.1093,4.297 -0.6771,0.73 -0.9224,1.12 -0.224,2.036 0.4104,0.543 1.5625,1.324 1.9787,1.032 0.9838,-0.672 1.4895,-1.48 1.8598,-2.48 0.4265,-1.14 1.2907,-4.333 1.3948,-4.937 0.2557,-1.505 0.8079,-1.995 0.912,-2.385 0.1973,-0.734 -0.0307,-0.99 -0.4787,-1.224 -0.8494,-0.443 -1.2505,0.177 -1.2505,0.177"
     id="path210" />
  <path
     style="fill:none;stroke:#231f20;stroke-width:0.565977;stroke-linecap:butt;stroke-linejoin:miter;stroke-miterlimit:4;stroke-dasharray:none;stroke-opacity:1"
     d="m 35.300928,40.540988 c -0.5416,0.355 -1.0776,2.224 -2.0828,3.484 -0.6828,0.844 -1.376,3.505 -2.1093,4.297 -0.6771,0.73 -0.9224,1.12 -0.224,2.036 0.4104,0.543 1.5625,1.324 1.9787,1.032 0.9838,-0.672 1.4895,-1.48 1.8598,-2.48 0.4265,-1.14 1.2907,-4.333 1.3948,-4.937 0.2557,-1.505 0.8079,-1.995 0.912,-2.385 0.1973,-0.734 -0.0307,-0.99 -0.4787,-1.224 -0.8494,-0.443 -1.2505,0.177 -1.2505,0.177 z"
     id="path211" />
  <path
     style="fill:#231f20;fill-opacity:1;fill-rule:nonzero;stroke:none"
     d="m 31.649928,48.493988 c -1.2452,-0.369 -1.4531,1.656 -1.5932,2.178 -0.1359,0.525 -0.7036,1.978 -1.2812,3.052 -0.5891,1.077 -0.8547,2.672 -1.9642,4.718 -0.5838,1.074 -0.4692,2.49 1.1308,3.266 1.5776,0.77 2.6042,0.172 3.1146,-1.24 0.5094,-1.406 0.3854,-2.947 0.8016,-4.395 0.412,-1.453 0.9692,-2.901 1.453,-4.011 0.5625,-1.265 0.3642,-2.094 0.036,-2.442 -0.812,-0.876 -1.6974,-1.126 -1.6974,-1.126"
     id="path212" />
  <path
     style="fill:none;stroke:#231f20;stroke-width:0.565977;stroke-linecap:butt;stroke-linejoin:miter;stroke-miterlimit:4;stroke-dasharray:none;stroke-opacity:1"
     d="m 31.649928,48.493988 c -1.2452,-0.369 -1.4531,1.656 -1.5932,2.178 -0.1359,0.525 -0.7036,1.978 -1.2812,3.052 -0.5891,1.077 -0.8547,2.672 -1.9642,4.718 -0.5838,1.074 -0.4692,2.49 1.1308,3.266 1.5776,0.77 2.6042,0.172 3.1146,-1.24 0.5094,-1.406 0.3854,-2.947 0.8016,-4.395 0.412,-1.453 0.9692,-2.901 1.453,-4.011 0.5625,-1.265 0.3642,-2.094 0.036,-2.442 -0.812,-0.876 -1.6974,-1.126 -1.6974,-1.126 z"
     id="path213" />
  <path
     style="fill:#231f20;fill-opacity:1;fill-rule:nonzero;stroke:none"
     d="m 35.103628,40.603988 c 0.5572,1.036 1.853,1.416 2.8905,0.86 1.036,-0.558 1.4163,-1.855 0.8532,-2.891 -0.5573,-1.032 -1.8532,-1.423 -2.8907,-0.86 -1.0306,0.563 -1.4213,1.855 -0.853,2.891"
     id="path214" />
  <path
     style="fill:#63c99d;fill-opacity:1;fill-rule:nonzero;stroke:none"
     d="m 98.472628,59.415988 c -2.396,2.021 -2.688,2.714 -3.104,3.542 -2.604,5.162 -5.089,3.786 -6.516,1.276 -1.682,-2.937 -2.344,-3.964 2.828,-7.548 1.448,-0.994 6.469,-5.536 6.469,-5.536 1.578,-1.869 4.115002,-2.853 5.520002,-2.453 1.48,0.417 0.866,0.36 2.158,0.995 1.233,0.605 2.442,2.428 2.098,3.614 -0.333,1.142 -1.943,1.558 -4.193,2.464 -1.771,0.719 -5.260002,3.646 -5.260002,3.646"
     id="path215" />
  <path
     style="fill:none;stroke:#231f20;stroke-width:0.565977;stroke-linecap:butt;stroke-linejoin:miter;stroke-miterlimit:4;stroke-dasharray:none;stroke-opacity:1"
     d="m 98.472628,59.415988 c -2.396,2.021 -2.688,2.714 -3.104,3.542 -2.604,5.162 -5.089,3.786 -6.516,1.276 -1.682,-2.937 -2.344,-3.964 2.828,-7.548 1.448,-0.994 6.469,-5.536 6.469,-5.536 1.578,-1.869 4.115002,-2.853 5.520002,-2.453 1.48,0.417 0.866,0.36 2.158,0.995 1.233,0.605 2.442,2.428 2.098,3.614 -0.333,1.142 -1.943,1.558 -4.193,2.464 -1.771,0.719 -5.260002,3.646 -5.260002,3.646 z"
     id="path216" />
  <path
     style="fill:#ffffff;fill-opacity:1;fill-rule:nonzero;stroke:none"
     d="m 109.15563,44.540988 c 0.177,-0.167 -0.375,-1.177 0.062,-1.459 0.438,-0.29 1.02,0.246 2.995,-0.025 l 0.02,-0.005 c 1.433,-0.251 2.771,0.12 3.537,1.109 1.276,1.651 0.49,4.38 -1.734,6.104 -2.246,1.729 -5.084,1.792 -6.355,0.156 -1.219,-1.572 -0.552,-4.151 1.475,-5.88"
     id="path217" />
  <path
     style="fill:none;stroke:#231f20;stroke-width:0.565977;stroke-linecap:butt;stroke-linejoin:miter;stroke-miterlimit:4;stroke-dasharray:none;stroke-opacity:1"
     d="m 109.15563,44.540988 c 0.177,-0.167 -0.375,-1.177 0.062,-1.459 0.438,-0.29 1.02,0.246 2.995,-0.025 l 0.02,-0.005 c 1.433,-0.251 2.771,0.12 3.537,1.109 1.276,1.651 0.49,4.38 -1.734,6.104 -2.246,1.729 -5.084,1.792 -6.355,0.156 -1.219,-1.572 -0.552,-4.151 1.475,-5.88 z"
     id="path218" />
  <path
     style="fill:#231f20;fill-opacity:1;fill-rule:nonzero;stroke:none"
     d="m 85.904628,41.879988 c 0.282,0.578 2.073,1.349 3.194,2.5 0.754,0.781 3.301,1.797 3.994,2.63 0.64,0.76 1.006,1.052 2,0.474 0.588,-0.35 1.506,-1.391 1.271,-1.844 -0.552,-1.052 -1.282,-1.656 -2.23,-2.146 -1.082,-0.562 -4.145,-1.817 -4.729,-2 -1.453,-0.437 -1.875,-1.046 -2.249,-1.202 -0.708,-0.287 -0.99,-0.09 -1.276,0.322 -0.547,0.792 0.025,1.266 0.025,1.266"
     id="path219" />
  <path
     style="fill:none;stroke:#231f20;stroke-width:0.565977;stroke-linecap:butt;stroke-linejoin:miter;stroke-miterlimit:4;stroke-dasharray:none;stroke-opacity:1"
     d="m 85.904628,41.879988 c 0.282,0.578 2.073,1.349 3.194,2.5 0.754,0.781 3.301,1.797 3.994,2.63 0.64,0.76 1.006,1.052 2,0.474 0.588,-0.35 1.506,-1.391 1.271,-1.844 -0.552,-1.052 -1.282,-1.656 -2.23,-2.146 -1.082,-0.562 -4.145,-1.817 -4.729,-2 -1.453,-0.437 -1.875,-1.046 -2.249,-1.202 -0.708,-0.287 -0.99,-0.09 -1.276,0.322 -0.547,0.792 0.025,1.266 0.025,1.266 z"
     id="path220" />
  <path
     style="fill:#231f20;fill-opacity:1;fill-rule:nonzero;stroke:none"
     d="m 93.639628,46.603988 c -0.552,1.177 1.417,1.688 1.912,1.901 0.5,0.213 1.848,0.984 2.822,1.729 0.984,0.739 2.511002,1.239 4.375002,2.646 0.975,0.734 2.385,0.833 3.396,-0.631 0.995,-1.448 0.557,-2.552 -0.76,-3.265 -1.313,-0.714 -2.855,-0.823 -4.229,-1.454 -1.375002,-0.62 -2.719002,-1.385 -3.745002,-2.036 -1.167,-0.74 -2.021,-0.677 -2.411,-0.401 -0.986,0.677 -1.36,1.511 -1.36,1.511"
     id="path221" />
  <path
     style="fill:none;stroke:#231f20;stroke-width:0.565977;stroke-linecap:butt;stroke-linejoin:miter;stroke-miterlimit:4;stroke-dasharray:none;stroke-opacity:1"
     d="m 93.639628,46.603988 c -0.552,1.177 1.417,1.688 1.912,1.901 0.5,0.213 1.848,0.984 2.822,1.729 0.984,0.739 2.511002,1.239 4.375002,2.646 0.975,0.734 2.385,0.833 3.396,-0.631 0.995,-1.448 0.557,-2.552 -0.76,-3.265 -1.313,-0.714 -2.855,-0.823 -4.229,-1.454 -1.375002,-0.62 -2.719002,-1.385 -3.745002,-2.036 -1.167,-0.74 -2.021,-0.677 -2.411,-0.401 -0.986,0.677 -1.36,1.511 -1.36,1.511 z"
     id="path222" />
  <path
     style="fill:#231f20;fill-opacity:1;fill-rule:nonzero;stroke:none"
     d="m 96.545628,45.805988 c -2.229,-0.41 -2.604,-0.796 -2.489,-1.749 0.072,-0.636 -0.079,-1.245 -0.048,-1.631 0.084,-1.296 0.776,-3.442 4.292,-9 0.803,-1.254 1.912002,-3.036 2.308002,-3.796 0.624,-1.198 2.203,0.651 1.957,1.124 -0.776,1.532 -1.176,2.647 -1.379,3.235 -0.135,0.407 -0.485,1.084 -0.818,2.719 -0.511002,2.474 -0.443002,4.032 -1.109002,6.041 -0.308,0.933 0.057,1.828 -0.719,2.584 -0.765,0.776 -1.995,0.473 -1.995,0.473"
     id="path223" />
  <path
     style="fill:none;stroke:#231f20;stroke-width:0.565977;stroke-linecap:butt;stroke-linejoin:miter;stroke-miterlimit:4;stroke-dasharray:none;stroke-opacity:1"
     d="m 96.545628,45.805988 c -2.229,-0.41 -2.604,-0.796 -2.489,-1.749 0.072,-0.636 -0.079,-1.245 -0.048,-1.631 0.084,-1.296 0.776,-3.442 4.292,-9 0.803,-1.254 1.912002,-3.036 2.308002,-3.796 0.624,-1.198 2.203,0.651 1.957,1.124 -0.776,1.532 -1.176,2.647 -1.379,3.235 -0.135,0.407 -0.485,1.084 -0.818,2.719 -0.511002,2.474 -0.443002,4.032 -1.109002,6.041 -0.308,0.933 0.057,1.828 -0.719,2.584 -0.765,0.776 -1.995,0.473 -1.995,0.473 z"
     id="path224" />
  <path
     style="fill:#231f20;fill-opacity:1;fill-rule:nonzero;stroke:#231f20;stroke-width:0.565977;stroke-linecap:round;stroke-linejoin:round;stroke-miterlimit:4;stroke-dasharray:none;stroke-opacity:1"
     d="m 98.540628,44.296988 c 0.801,1.176 -0.313,3.02 -0.339,3.359 -0.474,4.989 -0.63,5.338 -1.25,9.109 -0.9,5.453 -2.348,9.052 -5.676,9.459 -2.256,0.27 -3.672,-0.547 -4.308,-1.703 -0.692,-1.281 -0.755,-4.464 1.661,-6.057 l 0.713,-1.554 c 0.355,-1.109 0.527,-1.656 0.662,-2.213 0.22,-0.973 0.521,-2.011 1.068,-3.891 0.975,-3.333 3.078,-6.541 3.078,-6.541 0.094,-0.297 0.287,-0.505 0.516,-0.645"
     id="path225" />
  <path
     style="fill:#63c99d;fill-opacity:1;fill-rule:nonzero;stroke:#231f20;stroke-width:0.565977;stroke-linecap:butt;stroke-linejoin:miter;stroke-miterlimit:4;stroke-dasharray:none;stroke-opacity:1"
     d="m 88.603628,58.597988 c -2.355,1.678 -2.167,4.855 -1.428,6.104 0.677,1.136 2.125,1.902 4.365,1.547 2.609,-0.416 3.984,-2.785 4.787,-6.463 z"
     id="path226" />
  <path
     style="fill:#231f20;fill-opacity:1;fill-rule:nonzero;stroke:none"
     d="m 101.28463,27.337988 c -1.271,0.468 -1.281,1.459 -0.619,2.255 0.198,0.24 0.115,0.651 0.328,0.865 0.489,0.506 2.234,0.468 2.572,-0.994 0.022,-0.106 0.438,-0.808 0.667,-1.387 0.448,-1.129 0.792,-3.604 -0.848,-5.739 -0.781,-1.016 -1.235,-0.365 -1.048,0.14 0.609,1.599 0.35,1.86 0.35,2.339 0.026,1.625 -1.402,2.521 -1.402,2.521"
     id="path227" />
  <path
     style="fill:none;stroke:#231f20;stroke-width:0.332927;stroke-linecap:butt;stroke-linejoin:miter;stroke-miterlimit:4;stroke-dasharray:none;stroke-opacity:1"
     d="m 101.28463,27.337988 c -1.271,0.468 -1.281,1.459 -0.619,2.255 0.198,0.24 0.115,0.651 0.328,0.865 0.489,0.506 2.234,0.468 2.572,-0.994 0.022,-0.106 0.438,-0.808 0.667,-1.387 0.448,-1.129 0.792,-3.604 -0.848,-5.739 -0.781,-1.016 -1.235,-0.365 -1.048,0.14 0.609,1.599 0.35,1.86 0.35,2.339 0.026,1.625 -1.402,2.521 -1.402,2.521 z"
     id="path228" />
  <path
     style="fill:#231f20;fill-opacity:1;fill-rule:nonzero;stroke:none"
     d="m 86.915628,38.015988 c -0.938,-0.715 -2.276,-0.532 -2.99,0.405 -0.713,0.937 -0.532,2.276 0.407,2.989 0.938,0.715 2.276,0.532 2.99,-0.405 0.713,-0.937 0.53,-2.276 -0.407,-2.989"
     id="path229" />
  <path
     style="fill:#231f20;fill-opacity:1;fill-rule:nonzero;stroke:none"
     d="m 127.19163,40.275988 c 0.426,1.281 1.421,1.322 2.24,0.692 0.244,-0.187 0.645,-0.099 0.874,-0.302 0.516,-0.478 0.536,-2.224 -0.916,-2.604 -0.105,-0.026 -0.797,-0.464 -1.365,-0.713 -1.12,-0.48 -3.577,-0.901 -5.765,0.681 -1.036,0.751 -0.402,1.219 0.109,1.043 1.62,-0.557 1.869,-0.287 2.349,-0.276 1.619,0.025 2.474,1.479 2.474,1.479"
     id="path230" />
  <path
     style="fill:none;stroke:#231f20;stroke-width:0.332927;stroke-linecap:butt;stroke-linejoin:miter;stroke-miterlimit:4;stroke-dasharray:none;stroke-opacity:1"
     d="m 127.19163,40.275988 c 0.426,1.281 1.421,1.322 2.24,0.692 0.244,-0.187 0.645,-0.099 0.874,-0.302 0.516,-0.478 0.536,-2.224 -0.916,-2.604 -0.105,-0.026 -0.797,-0.464 -1.365,-0.713 -1.12,-0.48 -3.577,-0.901 -5.765,0.681 -1.036,0.751 -0.402,1.219 0.109,1.043 1.62,-0.557 1.869,-0.287 2.349,-0.276 1.619,0.025 2.474,1.479 2.474,1.479 z"
     id="path231" />
  <path
     style="fill:#231f20;fill-opacity:1;fill-rule:nonzero;stroke:none"
     d="m 145.39363,44.769988 c -0.448,2.224 -0.833,2.599 -1.781,2.464 -0.635,-0.084 -1.249,0.063 -1.635,0.031 -1.297,-0.115 -3.421,-0.828 -8.926,-4.443 -1.251,-0.817 -3.011,-1.958 -3.767,-2.364 -1.192,-0.641 0.683,-2.193 1.157,-1.942 1.515,0.796 2.619,1.218 3.214,1.432 0.401,0.145 1.077,0.5 2.702,0.858 2.47,0.552 4.022,0.511 6.022,1.21 0.932,0.322 1.833,-0.027 2.577,0.754 0.756,0.776 0.437,2 0.437,2"
     id="path232" />
  <path
     style="fill:none;stroke:#231f20;stroke-width:0.565977;stroke-linecap:butt;stroke-linejoin:miter;stroke-miterlimit:4;stroke-dasharray:none;stroke-opacity:1"
     d="m 145.39363,44.769988 c -0.448,2.224 -0.833,2.599 -1.781,2.464 -0.635,-0.084 -1.249,0.063 -1.635,0.031 -1.297,-0.115 -3.421,-0.828 -8.926,-4.443 -1.251,-0.817 -3.011,-1.958 -3.767,-2.364 -1.192,-0.641 0.683,-2.193 1.157,-1.942 1.515,0.796 2.619,1.218 3.214,1.432 0.401,0.145 1.077,0.5 2.702,0.858 2.47,0.552 4.022,0.511 6.022,1.21 0.932,0.322 1.833,-0.027 2.577,0.754 0.756,0.776 0.437,2 0.437,2 z"
     id="path233" />
  <path
     style="fill:#63c99d;fill-opacity:1;fill-rule:nonzero;stroke:none"
     d="m 170.74363,51.811988 c -3.052,0.709 -3.626,1.193 -4.375,1.734 -4.667,3.412 -6.255,1.052 -6.38,-1.822 -0.161,-3.391 -0.281,-4.599 5.957,-5.432 1.74,-0.224 8.272,-1.98 8.272,-1.98 2.265,-0.948 4.963,-0.662 6.036,0.322 1.125,1.048 0.604,0.715 1.469,1.871 0.828,1.099 1.067,3.276 0.223,4.172 -0.817,0.864 -2.443,0.505 -4.853,0.287 -1.907,-0.167 -6.349,0.848 -6.349,0.848"
     id="path234" />
  <path
     style="fill:none;stroke:#231f20;stroke-width:0.565977;stroke-linecap:butt;stroke-linejoin:miter;stroke-miterlimit:4;stroke-dasharray:none;stroke-opacity:1"
     d="m 170.74363,51.811988 c -3.052,0.709 -3.626,1.193 -4.375,1.734 -4.667,3.412 -6.255,1.052 -6.38,-1.822 -0.161,-3.391 -0.281,-4.599 5.957,-5.432 1.74,-0.224 8.272,-1.98 8.272,-1.98 2.265,-0.948 4.963,-0.662 6.036,0.322 1.125,1.048 0.604,0.715 1.469,1.871 0.828,1.099 1.067,3.276 0.223,4.172 -0.817,0.864 -2.443,0.505 -4.853,0.287 -1.907,-0.167 -6.349,0.848 -6.349,0.848 z"
     id="path235" />
  <path
     style="fill:#ffffff;fill-opacity:1;fill-rule:nonzero;stroke:none"
     d="m 184.19063,41.597988 c 0.199,-0.156 -0.26,-1.208 0.208,-1.453 0.464,-0.239 0.991,0.344 2.98,0.265 h 0.015 c 1.459,-0.109 2.756,0.387 3.417,1.454 1.11,1.756 0.068,4.396 -2.317,5.901 -2.401,1.505 -5.235,1.297 -6.333,-0.464 -1.068,-1.681 -0.147,-4.181 2.03,-5.703"
     id="path236" />
  <path
     style="fill:none;stroke:#231f20;stroke-width:0.565977;stroke-linecap:butt;stroke-linejoin:miter;stroke-miterlimit:4;stroke-dasharray:none;stroke-opacity:1"
     d="m 184.19063,41.597988 c 0.199,-0.156 -0.26,-1.208 0.208,-1.453 0.464,-0.239 0.991,0.344 2.98,0.265 h 0.015 c 1.459,-0.109 2.756,0.387 3.417,1.454 1.11,1.756 0.068,4.396 -2.317,5.901 -2.401,1.505 -5.235,1.297 -6.333,-0.464 -1.068,-1.681 -0.147,-4.181 2.03,-5.703 z"
     id="path237" />
  <path
     style="fill:#231f20;fill-opacity:1;fill-rule:nonzero;stroke:none"
     d="m 142.92563,44.848988 c 0.448,-3.98 3.87,-1.756 4.35,-1.699 4.978,0.547 5.322,0.708 9.082,1.386 5.443,0.985 9.016,2.489 9.37,5.822 0.234,2.262 -0.604,3.667 -1.771,4.282 -1.291,0.672 -4.468,0.682 -6.025,-1.75 l -1.542,-0.745 c -1.1,-0.369 -1.641,-0.557 -2.204,-0.697 -0.973,-0.235 -2.005,-0.552 -3.874,-1.126 -3.318,-1.016 -6.495,-3.182 -6.495,-3.182 -1.177,-0.391 -0.891,-2.291 -0.891,-2.291"
     id="path238" />
  <path
     style="fill:none;stroke:#231f20;stroke-width:0.565977;stroke-linecap:butt;stroke-linejoin:miter;stroke-miterlimit:4;stroke-dasharray:none;stroke-opacity:1"
     d="m 142.92563,44.848988 c 0.448,-3.98 3.87,-1.756 4.35,-1.699 4.978,0.547 5.322,0.708 9.082,1.386 5.443,0.985 9.016,2.489 9.37,5.822 0.234,2.262 -0.604,3.667 -1.771,4.282 -1.291,0.672 -4.468,0.682 -6.025,-1.75 l -1.542,-0.745 c -1.1,-0.369 -1.641,-0.557 -2.204,-0.697 -0.973,-0.235 -2.005,-0.552 -3.874,-1.126 -3.318,-1.016 -6.495,-3.182 -6.495,-3.182 -1.177,-0.391 -0.891,-2.291 -0.891,-2.291 z"
     id="path239" />
  <path
     style="fill:#63c99d;fill-opacity:1;fill-rule:nonzero;stroke:none"
     d="m 164.22363,47.233988 c -0.574,-0.86 -0.944,-1.37 -1.751,-1.412 -0.073,-0.005 -0.151,-0.021 -0.235,-0.036 -0.5,-0.297 -1.041,-0.589 -1.634,-0.865 l -2.85,7.281 c 1.126,2.662 4.26,3.172 5.651,2.719 1.251,-0.411 2.308,-1.651 2.453,-3.921 0.094,-1.47 -0.51,-2.694 -1.634,-3.766"
     id="path240" />
  <path
     style="fill:none;stroke:#231f20;stroke-width:0.565977;stroke-linecap:butt;stroke-linejoin:miter;stroke-miterlimit:4;stroke-dasharray:none;stroke-opacity:1"
     d="m 164.22363,47.233988 c -0.574,-0.86 -0.944,-1.37 -1.751,-1.412 -0.073,-0.005 -0.151,-0.021 -0.235,-0.036 -0.5,-0.297 -1.041,-0.589 -1.634,-0.865 l -2.85,7.281 c 1.126,2.662 4.26,3.172 5.651,2.719 1.251,-0.411 2.308,-1.651 2.453,-3.921 0.094,-1.47 -0.51,-2.694 -1.634,-3.766 z"
     id="path241" />
  <path
     style="fill:#231f20;fill-opacity:1;fill-rule:nonzero;stroke:none"
     d="m 200.88463,41.004988 c 1.066,-0.5 1.53,-1.761 1.041,-2.833 -0.495,-1.068 -1.765,-1.538 -2.833,-1.042 -1.068,0.495 -1.532,1.76 -1.042,2.834 0.495,1.066 1.76,1.53 2.834,1.041"
     id="path242" />
  <path
     style="fill:#231f20;fill-opacity:1;fill-rule:nonzero;stroke:none"
     d="m 197.78463,38.925988 c -0.63,-0.098 -2.282,0.938 -3.864,1.214 -1.074,0.182 -3.355,1.709 -4.432,1.808 -0.99,0.098 -1.438,0.234 -1.522,1.385 -0.052,0.672 0.292,2.016 0.798,2.083 1.181,0.146 2.093,-0.119 3.036,-0.619 1.073,-0.573 3.844,-2.391 4.322,-2.772 1.188,-0.948 1.923,-0.952 2.262,-1.176 0.64,-0.412 0.634,-0.767 0.457,-1.229 -0.339,-0.902 -1.057,-0.694 -1.057,-0.694"
     id="path243" />
  <path
     style="fill:none;stroke:#231f20;stroke-width:0.565977;stroke-linecap:butt;stroke-linejoin:miter;stroke-miterlimit:4;stroke-dasharray:none;stroke-opacity:1"
     d="m 197.78463,38.925988 c -0.63,-0.098 -2.282,0.938 -3.864,1.214 -1.074,0.182 -3.355,1.709 -4.432,1.808 -0.99,0.098 -1.438,0.234 -1.522,1.385 -0.052,0.672 0.292,2.016 0.798,2.083 1.181,0.146 2.093,-0.119 3.036,-0.619 1.073,-0.573 3.844,-2.391 4.322,-2.772 1.188,-0.948 1.923,-0.952 2.262,-1.176 0.64,-0.412 0.634,-0.767 0.457,-1.229 -0.339,-0.902 -1.057,-0.694 -1.057,-0.694 z"
     id="path244" />
  <path
     style="fill:#231f20;fill-opacity:1;fill-rule:nonzero;stroke:none"
     d="m 189.51363,42.624988 c -0.651,-1.12 -2.192,0.219 -2.651,0.505 -0.458,0.291 -1.864,0.963 -3.021,1.348 -1.161,0.391 -2.443,1.371 -4.656,2.11 -1.156,0.385 -2.041,1.494 -1.401,3.156 0.63,1.636 1.786,1.901 3.12,1.22 1.328,-0.678 2.292,-1.887 3.589,-2.663 1.296,-0.785 2.687,-1.457 3.801,-1.937 1.271,-0.542 1.699,-1.287 1.699,-1.76 -0.005,-1.198 -0.48,-1.979 -0.48,-1.979"
     id="path245" />
  <path
     style="fill:none;stroke:#231f20;stroke-width:0.565977;stroke-linecap:butt;stroke-linejoin:miter;stroke-miterlimit:4;stroke-dasharray:none;stroke-opacity:1"
     d="m 189.51363,42.624988 c -0.651,-1.12 -2.192,0.219 -2.651,0.505 -0.458,0.291 -1.864,0.963 -3.021,1.348 -1.161,0.391 -2.443,1.371 -4.656,2.11 -1.156,0.385 -2.041,1.494 -1.401,3.156 0.63,1.636 1.786,1.901 3.12,1.22 1.328,-0.678 2.292,-1.887 3.589,-2.663 1.296,-0.785 2.687,-1.457 3.801,-1.937 1.271,-0.542 1.699,-1.287 1.699,-1.76 -0.005,-1.198 -0.48,-1.979 -0.48,-1.979 z"
     id="path246" />
  <path
     style="fill:#ffffff;fill-opacity:1;fill-rule:nonzero;stroke:none"
     d="m 0.3329282,39.791988 c 0,0.686 0.5572,1.238 1.2385,1.238 H 347.69063 c 0.683,0 1.24,-0.552 1.24,-1.238 0,-0.683 -0.557,-1.24 -1.24,-1.24 H 1.5714282 c -0.6813,0 -1.2385,0.557 -1.2385,1.24"
     id="path253" />
  <path
     style="fill:none;stroke:#231f20;stroke-width:0.665856;stroke-linecap:butt;stroke-linejoin:miter;stroke-miterlimit:4;stroke-dasharray:none;stroke-opacity:1"
     d="m 0.3329282,39.791988 c 0,0.686 0.5572,1.238 1.2385,1.238 H 347.69063 c 0.683,0 1.24,-0.552 1.24,-1.238 0,-0.683 -0.557,-1.24 -1.24,-1.24 H 1.5714282 c -0.6813,0 -1.2385,0.557 -1.2385,1.24 z"
     id="path254" />
  <path
     style="fill:#63c99d;fill-opacity:1;fill-rule:nonzero;stroke:none"
     d="m 66.582228,25.441988 c -1.2923,2.855 -1.26,3.615 -1.2814,4.536 -0.1306,5.776 -2.964,5.604 -5.3281,3.954 -2.7864,-1.927 -3.8281,-2.574 -0.6973,-8.026 0.8801,-1.526 3.4573,-7.781 3.4573,-7.781 0.6255,-2.37 2.4905,-4.349 3.9333,-4.6 1.5094,-0.249 0.9323,-0.041 2.3744,-0.025 1.3751,0.016 3.2443,1.14 3.4484,2.364 0.1866,1.172 -1.0894,2.24 -2.7186,4.026 -1.2975,1.416 -3.188,5.552 -3.188,5.552"
     id="path255" />
  <path
     style="fill:none;stroke:#231f20;stroke-width:0.565977;stroke-linecap:butt;stroke-linejoin:miter;stroke-miterlimit:4;stroke-dasharray:none;stroke-opacity:1"
     d="m 66.582228,25.441988 c -1.2923,2.855 -1.26,3.615 -1.2814,4.536 -0.1306,5.776 -2.964,5.604 -5.3281,3.954 -2.7864,-1.927 -3.8281,-2.574 -0.6973,-8.026 0.8801,-1.526 3.4573,-7.781 3.4573,-7.781 0.6255,-2.37 2.4905,-4.349 3.9333,-4.6 1.5094,-0.249 0.9323,-0.041 2.3744,-0.025 1.3751,0.016 3.2443,1.14 3.4484,2.364 0.1866,1.172 -1.0894,2.24 -2.7186,4.026 -1.2975,1.416 -3.188,5.552 -3.188,5.552 z"
     id="path256" />
  <path
     style="fill:#ffffff;fill-opacity:1;fill-rule:nonzero;stroke:none"
     d="m 68.254028,6.5929877 c 0.099,-0.218 -0.7865,-0.953 -0.4838,-1.38 0.301,-0.432 1.041,-0.15 2.776,-1.13 l 0.0145,-0.01 c 1.2401,-0.761 2.6199,-0.922 3.7039,-0.281 1.787,1.057 2.077,3.88 0.64,6.3170003 -1.4371,2.432 -4.0574,3.547 -5.8439,2.49 -1.7077,-1.006 -2.0468,-3.6460003 -0.8067,-6.0060003"
     id="path257" />
  <path
     style="fill:none;stroke:#231f20;stroke-width:0.565977;stroke-linecap:butt;stroke-linejoin:miter;stroke-miterlimit:4;stroke-dasharray:none;stroke-opacity:1"
     d="m 68.254028,6.5929877 c 0.099,-0.218 -0.7865,-0.953 -0.4838,-1.38 0.301,-0.432 1.041,-0.15 2.776,-1.13 l 0.0145,-0.01 c 1.2401,-0.761 2.6199,-0.922 3.7039,-0.281 1.787,1.057 2.077,3.88 0.64,6.3170003 -1.4371,2.432 -4.0574,3.547 -5.8439,2.49 -1.7077,-1.006 -2.0468,-3.6460003 -0.8067,-6.0060003 z"
     id="path258" />
  <path
     style="fill:#231f20;fill-opacity:1;fill-rule:nonzero;stroke:none"
     d="m 66.008728,38.015988 c 0.4692,-0.434 0.7041,-2.371 1.4907,-3.772 0.5306,-0.947 0.7801,-3.682 1.3801,-4.583 0.5464,-0.828 0.724,-1.26 -0.1203,-2.047 -0.4942,-0.474 -1.7557,-1.052 -2.1198,-0.698 -0.8547,0.828 -1.2239,1.698 -1.4214,2.75 -0.2349,1.192 -0.5734,4.49 -0.5786,5.099 -0.011,1.521 -0.4692,2.099 -0.5052,2.5 -0.0828,0.76 0.1932,0.975 0.6666,1.136 0.9172,0.296 1.2079,-0.385 1.2079,-0.385"
     id="path259" />
  <path
     style="fill:none;stroke:#231f20;stroke-width:0.565977;stroke-linecap:butt;stroke-linejoin:miter;stroke-miterlimit:4;stroke-dasharray:none;stroke-opacity:1"
     d="m 66.008728,38.015988 c 0.4692,-0.434 0.7041,-2.371 1.4907,-3.772 0.5306,-0.947 0.7801,-3.682 1.3801,-4.583 0.5464,-0.828 0.724,-1.26 -0.1203,-2.047 -0.4942,-0.474 -1.7557,-1.052 -2.1198,-0.698 -0.8547,0.828 -1.2239,1.698 -1.4214,2.75 -0.2349,1.192 -0.5734,4.49 -0.5786,5.099 -0.011,1.521 -0.4692,2.099 -0.5052,2.5 -0.0828,0.76 0.1932,0.975 0.6666,1.136 0.9172,0.296 1.2079,-0.385 1.2079,-0.385 z"
     id="path260" />
  <path
     style="fill:#231f20;fill-opacity:1;fill-rule:nonzero;stroke:none"
     d="m 68.336828,29.259988 c 1.2812,0.193 1.2146,-1.844 1.276,-2.375 0.0678,-0.541 0.4224,-2.063 0.8599,-3.203 0.4267,-1.152 0.4735,-2.766 1.2865,-4.942 0.4323,-1.147 0.1203,-2.532 -1.5677,-3.079 -1.6719,-0.546 -2.6041,0.194 -2.912,1.656 -0.3177,1.459 0.0156,2.969 -0.1921,4.464 -0.2079,1.495 -0.5574,3.005 -0.8907,4.172 -0.3803,1.328 -0.0735,2.129 0.3027,2.427 0.9322,0.75 1.8374,0.88 1.8374,0.88"
     id="path261" />
  <path
     style="fill:none;stroke:#231f20;stroke-width:0.565977;stroke-linecap:butt;stroke-linejoin:miter;stroke-miterlimit:4;stroke-dasharray:none;stroke-opacity:1"
     d="m 68.336828,29.259988 c 1.2812,0.193 1.2146,-1.844 1.276,-2.375 0.0678,-0.541 0.4224,-2.063 0.8599,-3.203 0.4267,-1.152 0.4735,-2.766 1.2865,-4.942 0.4323,-1.147 0.1203,-2.532 -1.5677,-3.079 -1.6719,-0.546 -2.6041,0.194 -2.912,1.656 -0.3177,1.459 0.0156,2.969 -0.1921,4.464 -0.2079,1.495 -0.5574,3.005 -0.8907,4.172 -0.3803,1.328 -0.0735,2.129 0.3027,2.427 0.9322,0.75 1.8374,0.88 1.8374,0.88 z"
     id="path262" />
  <path
     style="fill:#231f20;fill-opacity:1;fill-rule:nonzero;stroke:none"
     d="m 49.612928,17.884988 c -1.4735,1.724 -1.9896,1.859 -2.7599,1.282 -0.5161,-0.386 -1.115,-0.558 -1.4374,-0.776 -1.0787,-0.724 -2.5882,-2.396 -5.635,-8.23 -0.6932,-1.3220003 -1.677,-3.1720003 -2.1412,-3.8960003 -0.7238,-1.14 1.6719,-1.582 1.959,-1.13 0.9421,1.438 1.7025,2.344 2.1088,2.813 0.2817,0.323 0.6922,0.963 1.9426,2.0680003 1.8855,1.681 3.2658,2.405 4.6776,3.989 0.6505,0.739 1.6095,0.87 1.8797,1.916 0.287,1.052 -0.5942,1.964 -0.5942,1.964"
     id="path263" />
  <path
     style="fill:none;stroke:#231f20;stroke-width:0.565977;stroke-linecap:butt;stroke-linejoin:miter;stroke-miterlimit:4;stroke-dasharray:none;stroke-opacity:1"
     d="m 49.612928,17.884988 c -1.4735,1.724 -1.9896,1.859 -2.7599,1.282 -0.5161,-0.386 -1.115,-0.558 -1.4374,-0.776 -1.0787,-0.724 -2.5882,-2.396 -5.635,-8.23 -0.6932,-1.3220003 -1.677,-3.1720003 -2.1412,-3.8960003 -0.7238,-1.14 1.6719,-1.582 1.959,-1.13 0.9421,1.438 1.7025,2.344 2.1088,2.813 0.2817,0.323 0.6922,0.963 1.9426,2.0680003 1.8855,1.681 3.2658,2.405 4.6776,3.989 0.6505,0.739 1.6095,0.87 1.8797,1.916 0.287,1.052 -0.5942,1.964 -0.5942,1.964 z"
     id="path264" />
  <path
     style="fill:#231f20;fill-opacity:1;fill-rule:nonzero;stroke:#231f20;stroke-width:0.565977;stroke-linecap:round;stroke-linejoin:round;stroke-miterlimit:4;stroke-dasharray:none;stroke-opacity:1"
     d="m 49.306128,15.406988 c 1.4172,-0.106 2.4589,1.781 2.7401,1.968 4.0823,2.906 4.3011,3.218 7.2599,5.641 4.2709,3.514 6.6557,6.572 5.3437,9.65 -0.8958,2.094 -2.313,2.907 -3.6359,2.875 -1.4573,-0.041 -4.2333,-1.573 -4.4052,-4.464 l -0.9854,-1.4 c -0.7864,-0.86 -1.1667,-1.281 -1.588,-1.683 -0.7344,-0.677 -1.4787,-1.453 -2.8282,-2.869 -2.4062,-2.511 -4.1249,-5.942 -4.1249,-5.942 -0.2136,-0.224 -0.2974,-0.496 -0.3068,-0.762"
     id="path265" />
  <path
     style="fill:#63c99d;fill-opacity:1;fill-rule:nonzero;stroke:#231f20;stroke-width:0.565977;stroke-linecap:butt;stroke-linejoin:miter;stroke-miterlimit:4;stroke-dasharray:none;stroke-opacity:1"
     d="m 61.608728,25.072988 c 0.4839,0.443 0.9109,0.88 1.3068,1.317 0.0676,0.036 0.1359,0.074 0.2025,0.099 0.7615,0.287 0.959,0.869 1.2454,1.864 0.7546,1.365 0.9693,2.715 0.4374,4.095 -0.812,2.114 -2.1973,2.989 -3.5161,3.01 -1.4625,0.015 -4.2958,-1.417 -4.5718,-4.292 z"
     id="path266" />
  <path
     style="fill:#231f20;fill-opacity:1;fill-rule:nonzero;stroke:none"
     d="m 35.999428,4.5359877 c -0.2344,1.328 0.6187,1.839 1.64,1.667 0.3068,-0.052 0.6256,0.224 0.912,0.146 0.6866,-0.177 1.5256,-1.698 0.4318,-2.724 -0.0786,-0.078 -0.4796,-0.786 -0.8692,-1.272 -0.7558,-0.952 -2.7199,-2.48900001 -5.3907,-2.13400001 -1.2718,0.166 -0.9385,0.88000001 -0.4068,0.96900001 1.6923,0.276 1.7819,0.635 2.1975,0.869 1.4229,0.792 1.4854,2.479 1.4854,2.479"
     id="path267" />
  <path
     style="fill:none;stroke:#231f20;stroke-width:0.332927;stroke-linecap:butt;stroke-linejoin:miter;stroke-miterlimit:4;stroke-dasharray:none;stroke-opacity:1"
     d="m 35.999428,4.5359877 c -0.2344,1.328 0.6187,1.839 1.64,1.667 0.3068,-0.052 0.6256,0.224 0.912,0.146 0.6866,-0.177 1.5256,-1.698 0.4318,-2.724 -0.0786,-0.078 -0.4796,-0.786 -0.8692,-1.272 -0.7558,-0.952 -2.7199,-2.48900001 -5.3907,-2.13400001 -1.2718,0.166 -0.9385,0.88000001 -0.4068,0.96900001 1.6923,0.276 1.7819,0.635 2.1975,0.869 1.4229,0.792 1.4854,2.479 1.4854,2.479 z"
     id="path268" />
  <path
     style="fill:#231f20;fill-opacity:1;fill-rule:nonzero;stroke:none"
     d="m 62.013928,38.139988 c -0.4156,1.104 0.1416,2.333 1.2401,2.75 1.099,0.422 2.3334,-0.136 2.7547,-1.234 0.4172,-1.104 -0.1401,-2.334 -1.2437,-2.755 -1.099,-0.412 -2.3334,0.14 -2.7511,1.239"
     id="path269" />
  <path
     style="fill:#231f20;fill-opacity:1;fill-rule:nonzero;stroke:none"
     d="m 256.06563,39.373988 c 0.636,0.068 2.245,-1.036 3.819,-1.374 1.057,-0.224 3.276,-1.839 4.348,-1.99 0.985,-0.136 1.422,-0.292 1.464,-1.437 0.016,-0.683 -0.375,-2.016 -0.886,-2.052 -1.182,-0.095 -2.084,0.203 -3,0.744 -1.052,0.615 -3.745,2.541 -4.213,2.943 -1.141,1 -1.885,1.032 -2.208,1.265 -0.62,0.443 -0.605,0.792 -0.407,1.251 0.375,0.885 1.083,0.65 1.083,0.65"
     id="path270" />
  <path
     style="fill:none;stroke:#231f20;stroke-width:0.565977;stroke-linecap:butt;stroke-linejoin:miter;stroke-miterlimit:4;stroke-dasharray:none;stroke-opacity:1"
     d="m 256.06563,39.373988 c 0.636,0.068 2.245,-1.036 3.819,-1.374 1.057,-0.224 3.276,-1.839 4.348,-1.99 0.985,-0.136 1.422,-0.292 1.464,-1.437 0.016,-0.683 -0.375,-2.016 -0.886,-2.052 -1.182,-0.095 -2.084,0.203 -3,0.744 -1.052,0.615 -3.745,2.541 -4.213,2.943 -1.141,1 -1.885,1.032 -2.208,1.265 -0.62,0.443 -0.605,0.792 -0.407,1.251 0.375,0.885 1.083,0.65 1.083,0.65 z"
     id="path271" />
  <path
     style="fill:#231f20;fill-opacity:1;fill-rule:nonzero;stroke:none"
     d="m 252.20663,38.983988 c -0.218,1.161 0.547,2.27 1.708,2.484 1.156,0.214 2.271,-0.552 2.479,-1.708 0.219,-1.156 -0.547,-2.271 -1.708,-2.49 -1.156,-0.208 -2.265,0.558 -2.479,1.714"
     id="path272" />
</svg>
