<?xml version="1.0" encoding="UTF-8" standalone="no"?>
<!-- Created with Inkscape (http://www.inkscape.org/) -->

<svg
   version="1.1"
   id="svg1"
   width="360.46698"
   height="153.29085"
   viewBox="0 0 360.46697 153.29084"
   sodipodi:docname="cell.svg"
   xmlns:inkscape="http://www.inkscape.org/namespaces/inkscape"
   xmlns:sodipodi="http://sodipodi.sourceforge.net/DTD/sodipodi-0.dtd"
   xmlns="http://www.w3.org/2000/svg"
   xmlns:svg="http://www.w3.org/2000/svg">
  <sodipodi:namedview
     id="namedview1"
     pagecolor="#ffffff"
     bordercolor="#000000"
     borderopacity="0.25"
     inkscape:showpageshadow="2"
     inkscape:pageopacity="0.0"
     inkscape:pagecheckerboard="0"
     inkscape:deskcolor="#d1d1d1">
    <inkscape:page
       x="1.7388821e-14"
       y="1.2058524e-13"
       inkscape:label="1"
       id="page1"
       width="360.46698"
       height="153.29085"
       margin="0"
       bleed="0" />
  </sodipodi:namedview>
  <defs
     id="defs1" />
  <path
     style="fill:#ffffff;fill-opacity:1;fill-rule:nonzero;stroke:none"
     d="m 166.099,18.874 h 18.874 V 0 h -18.874 z"
     id="path479" />
  <path
     style="fill:#ffffff;fill-opacity:1;fill-rule:nonzero;stroke:none"
     d="M 0,18.874 H 18.875 V 0 H 0 Z"
     id="path480" />
  <path
     style="fill:#ffffff;fill-opacity:1;fill-rule:nonzero;stroke:none"
     d="m 343.541,18.874 h 16.926 V 0 h -16.926 z"
     id="path481" />
  <path
     style="fill:#231f20;fill-opacity:1;fill-rule:nonzero;stroke:#231f20;stroke-width:0.565977;stroke-linecap:round;stroke-linejoin:round;stroke-miterlimit:4;stroke-dasharray:none;stroke-opacity:1"
     d="m 240.385,47.645 c 0,0 -0.391,1.261 -0.177,2.407 0.224,1.141 0.964,2.276 0.964,2.276 l 3.244,-0.563 -0.818,-4.719 z"
     id="path482" />
  <path
     style="fill:#231f20;fill-opacity:1;fill-rule:nonzero;stroke:none"
     d="m 256.468,50.77 c 2.193,2.86 3.308,1.599 7.048,-0.014 4.098,-1.762 8.181,-4.043 10.478,-6.418 2.552,-2.656 3.031,-2.442 2.443,-4.27 -0.588,-1.828 -1.333,-1.604 -2.552,-2.027 -1.412,-0.489 -6.771,4.547 -11.203,6.267 -2.073,0.806 -7.568,1.394 -7.37,2.837 0.193,1.439 1.156,3.625 1.156,3.625"
     id="path483" />
  <path
     style="fill:none;stroke:#231f20;stroke-width:0.565977;stroke-linecap:butt;stroke-linejoin:miter;stroke-miterlimit:4;stroke-dasharray:none;stroke-opacity:1"
     d="m 256.468,50.77 c 2.193,2.86 3.308,1.599 7.048,-0.014 4.098,-1.762 8.181,-4.043 10.478,-6.418 2.552,-2.656 3.031,-2.442 2.443,-4.27 -0.588,-1.828 -1.333,-1.604 -2.552,-2.027 -1.412,-0.489 -6.771,4.547 -11.203,6.267 -2.073,0.806 -7.568,1.394 -7.37,2.837 0.193,1.439 1.156,3.625 1.156,3.625 z"
     id="path484" />
  <path
     style="fill:#231f20;fill-opacity:1;fill-rule:nonzero;stroke:none"
     d="m 274.182,40.125 c 0.932,2.063 1.176,2.677 3.266,1.297 0.53,-0.354 1.937,-1.438 2.306,-1.553 1.24,-0.395 2.636,-0.957 7.199,-5.708 0.713,-0.735 2.301,-1.907 3.353,-2.828 1.022,-0.896 -1.15,-1.989 -1.557,-1.64 -1.301,1.115 -2.385,1.547 -2.905,1.885 -0.36,0.234 -0.954,0.776 -2.532,1.307 -4.058,1.365 -4.646,3.068 -5.468,3.427 -2.366,1.032 -4.6,1.433 -4.574,2.1 0.047,1.077 0.912,1.713 0.912,1.713"
     id="path485" />
  <path
     style="fill:none;stroke:#231f20;stroke-width:0.565977;stroke-linecap:butt;stroke-linejoin:miter;stroke-miterlimit:4;stroke-dasharray:none;stroke-opacity:1"
     d="m 274.182,40.125 c 0.932,2.063 1.176,2.677 3.266,1.297 0.53,-0.354 1.937,-1.438 2.306,-1.553 1.24,-0.395 2.636,-0.957 7.199,-5.708 0.713,-0.735 2.301,-1.907 3.353,-2.828 1.022,-0.896 -1.15,-1.989 -1.557,-1.64 -1.301,1.115 -2.385,1.547 -2.905,1.885 -0.36,0.234 -0.954,0.776 -2.532,1.307 -4.058,1.365 -4.646,3.068 -5.468,3.427 -2.366,1.032 -4.6,1.433 -4.574,2.1 0.047,1.077 0.912,1.713 0.912,1.713 z"
     id="path486" />
  <path
     style="fill:#231f20;fill-opacity:1;fill-rule:nonzero;stroke:none"
     d="m 253.853,46.338 c -1.421,-3.312 0.22,-3.666 3.459,-6.15 3.537,-2.714 7.516,-5.172 10.708,-6.006 3.568,-0.937 3.61,-1.453 4.922,-0.052 1.307,1.402 0.75,1.954 0.526,3.214 -0.26,1.473 -7.271,3.692 -10.938,6.724 -1.718,1.416 -4.916,5.921 -6.072,5.046 -1.161,-0.874 -2.605,-2.776 -2.605,-2.776"
     id="path487" />
  <path
     style="fill:none;stroke:#231f20;stroke-width:0.565977;stroke-linecap:butt;stroke-linejoin:miter;stroke-miterlimit:4;stroke-dasharray:none;stroke-opacity:1"
     d="m 253.853,46.338 c -1.421,-3.312 0.22,-3.666 3.459,-6.15 3.537,-2.714 7.516,-5.172 10.708,-6.006 3.568,-0.937 3.61,-1.453 4.922,-0.052 1.307,1.402 0.75,1.954 0.526,3.214 -0.26,1.473 -7.271,3.692 -10.938,6.724 -1.718,1.416 -4.916,5.921 -6.072,5.046 -1.161,-0.874 -2.605,-2.776 -2.605,-2.776 z"
     id="path488" />
  <path
     style="fill:#231f20;fill-opacity:1;fill-rule:nonzero;stroke:none"
     d="m 271.77,36.057 c -1.333,-1.828 -1.745,-2.344 0.479,-3.479 0.568,-0.292 2.204,-0.98 2.491,-1.25 0.952,-0.88 2.129,-1.818 8.514,-3.448 0.99,-0.255 2.792,-1.058 4.12,-1.52 1.282,-0.448 1.156,1.984 0.656,2.161 -1.609,0.588 -2.525,1.312 -3.072,1.604 -0.385,0.197 -1.152,0.448 -2.39,1.557 -3.188,2.854 -4.954,2.52 -5.678,3.068 -2.062,1.552 -3.51,3.302 -4.078,2.948 -0.916,-0.573 -1.042,-1.641 -1.042,-1.641"
     id="path489" />
  <path
     style="fill:none;stroke:#231f20;stroke-width:0.565977;stroke-linecap:butt;stroke-linejoin:miter;stroke-miterlimit:4;stroke-dasharray:none;stroke-opacity:1"
     d="m 271.77,36.057 c -1.333,-1.828 -1.745,-2.344 0.479,-3.479 0.568,-0.292 2.204,-0.98 2.491,-1.25 0.952,-0.88 2.129,-1.818 8.514,-3.448 0.99,-0.255 2.792,-1.058 4.12,-1.52 1.282,-0.448 1.156,1.984 0.656,2.161 -1.609,0.588 -2.525,1.312 -3.072,1.604 -0.385,0.197 -1.152,0.448 -2.39,1.557 -3.188,2.854 -4.954,2.52 -5.678,3.068 -2.062,1.552 -3.51,3.302 -4.078,2.948 -0.916,-0.573 -1.042,-1.641 -1.042,-1.641 z"
     id="path490" />
  <path
     style="fill:#231f20;fill-opacity:1;fill-rule:nonzero;stroke:none"
     d="m 288.645,23.625 c -0.667,0.063 -1.177,1.792 -2.844,2.844 -0.343,0.213 -0.509,0.552 -0.733,0.848 -0.902,1.209 -1.052,2.803 2.593,1.652 0.511,-0.161 2.068,-1.568 2.833,-1.745 1.818,-0.412 3.459,-3.303 3.083,-3.656 -0.812,-0.771 -4.932,0.057 -4.932,0.057"
     id="path491" />
  <path
     style="fill:none;stroke:#231f20;stroke-width:0.644548;stroke-linecap:round;stroke-linejoin:round;stroke-miterlimit:4;stroke-dasharray:none;stroke-opacity:1"
     d="m 288.645,23.625 c -0.667,0.063 -1.177,1.792 -2.844,2.844 -0.343,0.213 -0.509,0.552 -0.733,0.848 -0.902,1.209 -1.052,2.803 2.593,1.652 0.511,-0.161 2.068,-1.568 2.833,-1.745 1.818,-0.412 3.459,-3.303 3.083,-3.656 -0.812,-0.771 -4.932,0.057 -4.932,0.057 z"
     id="path492" />
  <path
     style="fill:#231f20;fill-opacity:1;fill-rule:nonzero;stroke:none"
     d="m 293.197,30.74 c -0.375,0.552 -2.135,0.177 -3.853,1.14 -0.35,0.198 -0.724,0.193 -1.1,0.245 -1.495,0.213 -2.958,-0.407 -0.208,-3.068 0.374,-0.369 2.36,-1.073 2.874,-1.661 1.23,-1.402 4.552,-1.47 4.688,-0.97 0.292,1.084 -2.401,4.314 -2.401,4.314"
     id="path493" />
  <path
     style="fill:none;stroke:#231f20;stroke-width:0.644548;stroke-linecap:round;stroke-linejoin:round;stroke-miterlimit:4;stroke-dasharray:none;stroke-opacity:1"
     d="m 293.197,30.74 c -0.375,0.552 -2.135,0.177 -3.853,1.14 -0.35,0.198 -0.724,0.193 -1.1,0.245 -1.495,0.213 -2.958,-0.407 -0.208,-3.068 0.374,-0.369 2.36,-1.073 2.874,-1.661 1.23,-1.402 4.552,-1.47 4.688,-0.97 0.292,1.084 -2.401,4.314 -2.401,4.314 z"
     id="path494" />
  <path
     style="fill:#63c99d;fill-opacity:1;fill-rule:nonzero;stroke:none"
     d="m 265.385,45.245 c -0.093,-0.489 -0.636,-1 -0.636,-1 0,0 -7.244,2.12 -9.255,-0.256 l -0.084,-0.348 c 0.678,-1.057 0.308,-0.287 -0.421,-0.157 -5.364,1.333 -8.24,-0.552 -9.505,-0.974 -1.744,-0.573 -3.187,-2.442 -4.386,-1.593 0,0 -1.5,0.385 -1.636,3.192 -0.061,1.151 0.887,3.708 0.887,3.708 0.041,-0.02 0.077,-0.041 0.113,-0.047 1.235,-0.238 2.147,0.667 2.423,1.98 l -0.016,-0.078 c 0.24,1.317 -1.14,1.906 -2.312,2.136 -0.041,0.009 -0.235,1.156 -0.276,1.15 0,0 -0.24,2.818 0.62,3.807 0.375,0.437 1.249,0.647 1.249,0.647 2.052,0.677 4.49,-0.844 5.88,-2.043 1.011,-0.875 2.079,-0.609 5.251,-1.307 0.729,-0.15 6.473,-1.786 5.453,-2.51 l -0.052,-0.354 c 0.943,-2.969 6.495,-4.786 6.495,-4.786 0,0 0.301,-0.683 0.208,-1.167"
     id="path495" />
  <path
     style="fill:none;stroke:#231f20;stroke-width:0.565977;stroke-linecap:round;stroke-linejoin:round;stroke-miterlimit:4;stroke-dasharray:none;stroke-opacity:1"
     d="m 265.385,45.245 c -0.093,-0.489 -0.636,-1 -0.636,-1 0,0 -7.244,2.12 -9.255,-0.256 l -0.084,-0.348 c 0.678,-1.057 0.308,-0.287 -0.421,-0.157 -5.364,1.333 -8.24,-0.552 -9.505,-0.974 -1.744,-0.573 -3.187,-2.442 -4.386,-1.593 0,0 -1.5,0.385 -1.636,3.192 -0.061,1.151 0.887,3.708 0.887,3.708 0.041,-0.02 0.077,-0.041 0.113,-0.047 1.235,-0.238 2.147,0.667 2.423,1.98 l -0.016,-0.078 c 0.24,1.317 -1.14,1.906 -2.312,2.136 -0.041,0.009 -0.235,1.156 -0.276,1.15 0,0 -0.24,2.818 0.62,3.807 0.375,0.437 1.249,0.647 1.249,0.647 2.052,0.677 4.49,-0.844 5.88,-2.043 1.011,-0.875 2.079,-0.609 5.251,-1.307 0.729,-0.15 6.473,-1.786 5.453,-2.51 l -0.052,-0.354 c 0.943,-2.969 6.495,-4.786 6.495,-4.786 0,0 0.301,-0.683 0.208,-1.167 z"
     id="path496" />
  <path
     style="fill:#ffffff;fill-opacity:1;fill-rule:nonzero;stroke:none"
     d="m 236.853,46.541 c -2.681,-0.885 -5.391,-0.009 -6.036,1.964 -0.651,1.969 0.995,4.292 3.672,5.177 2.688,0.886 5.385,0.016 6.036,-1.964 0.657,-1.968 -0.989,-4.286 -3.672,-5.177"
     id="path497" />
  <path
     style="fill:none;stroke:#231f20;stroke-width:0.565977;stroke-linecap:butt;stroke-linejoin:miter;stroke-miterlimit:4;stroke-dasharray:none;stroke-opacity:1"
     d="m 236.853,46.541 c -2.681,-0.885 -5.391,-0.009 -6.036,1.964 -0.651,1.969 0.995,4.292 3.672,5.177 2.688,0.886 5.385,0.016 6.036,-1.964 0.657,-1.968 -0.989,-4.286 -3.672,-5.177 z"
     id="path498" />
  <path
     style="fill:#231f20;fill-opacity:1;fill-rule:nonzero;stroke:none"
     d="m 253.796,40.828 c -0.239,-1.266 -2.14,-0.536 -2.662,-0.416 -0.536,0.12 -2.082,0.281 -3.301,0.254 -1.229,-0.03 -2.771,0.464 -5.093,0.418 -1.224,-0.032 -2.428,0.718 -2.387,2.5 0.037,1.749 1.043,2.39 2.527,2.197 1.478,-0.188 2.792,-1 4.276,-1.303 1.478,-0.296 3.021,-0.462 4.229,-0.536 1.385,-0.082 2.036,-0.634 2.188,-1.088 0.405,-1.125 0.223,-2.026 0.223,-2.026"
     id="path499" />
  <path
     style="fill:none;stroke:#231f20;stroke-width:0.565977;stroke-linecap:butt;stroke-linejoin:miter;stroke-miterlimit:4;stroke-dasharray:none;stroke-opacity:1"
     d="m 253.796,40.828 c -0.239,-1.266 -2.14,-0.536 -2.662,-0.416 -0.536,0.12 -2.082,0.281 -3.301,0.254 -1.229,-0.03 -2.771,0.464 -5.093,0.418 -1.224,-0.032 -2.428,0.718 -2.387,2.5 0.037,1.749 1.043,2.39 2.527,2.197 1.478,-0.188 2.792,-1 4.276,-1.303 1.478,-0.296 3.021,-0.462 4.229,-0.536 1.385,-0.082 2.036,-0.634 2.188,-1.088 0.405,-1.125 0.223,-2.026 0.223,-2.026 z"
     id="path500" />
  <path
     style="fill:#63c99d;fill-opacity:1;fill-rule:nonzero;stroke:none"
     d="m 257.406,52.656 c 0.348,0.057 1.714,0.1 2.176,0.057 2.959,-0.255 6.454,-2.099 7.688,-2.411 1.24,-0.313 -1.765,-6.188 -1.765,-6.188 l -1.912,0.422 c 0.188,-0.594 -0.432,-0.88 -0.432,-0.88 l 1.557,-1.291 c 0,0 -2.666,-5.887 -3.489,-5.308 -1.147,0.808 -5.251,2.948 -6.855,4.797 -0.88,1.015 -1.13,2.006 -1.13,2.006 0,0 2.594,2.781 3.234,4.052 0.636,1.276 0.928,4.744 0.928,4.744"
     id="path501" />
  <path
     style="fill:none;stroke:#231f20;stroke-width:0.565977;stroke-linecap:round;stroke-linejoin:round;stroke-miterlimit:4;stroke-dasharray:none;stroke-opacity:1"
     d="m 257.406,52.656 c 0.348,0.057 1.714,0.1 2.176,0.057 2.959,-0.255 6.454,-2.099 7.688,-2.411 1.24,-0.313 -1.765,-6.188 -1.765,-6.188 l -1.912,0.422 c 0.188,-0.594 -0.432,-0.88 -0.432,-0.88 l 1.557,-1.291 c 0,0 -2.666,-5.887 -3.489,-5.308 -1.147,0.808 -5.251,2.948 -6.855,4.797 -0.88,1.015 -1.13,2.006 -1.13,2.006 0,0 2.594,2.781 3.234,4.052 0.636,1.276 0.928,4.744 0.928,4.744 z"
     id="path502" />
  <path
     style="fill:#231f20;fill-opacity:1;fill-rule:nonzero;stroke:none"
     d="m 259.166,76.625 c -0.729,-0.079 -3.646,-1.516 -4.292,-1.885 -0.582,-0.308 -1.729,-0.527 -1.65,-1.683 0.016,-0.459 0.385,-1.12 0.604,-1.349 0.182,-0.187 0.5,-0.124 0.828,0.1 0.557,0.369 0.573,0.697 1.588,1.462 0,0 0.214,0.224 0.562,0.642 1.068,1.233 0.486,0.79 2.428,2.244 0.135,0.098 0.135,0.302 0.063,0.396 -0.125,0.136 -0.131,0.073 -0.131,0.073"
     id="path503" />
  <path
     style="fill:none;stroke:#231f20;stroke-width:0.565977;stroke-linecap:round;stroke-linejoin:round;stroke-miterlimit:4;stroke-dasharray:none;stroke-opacity:1"
     d="m 259.166,76.625 c -0.729,-0.079 -3.646,-1.516 -4.292,-1.885 -0.582,-0.308 -1.729,-0.527 -1.65,-1.683 0.016,-0.459 0.385,-1.12 0.604,-1.349 0.182,-0.187 0.5,-0.124 0.828,0.1 0.557,0.369 0.573,0.697 1.588,1.462 0,0 0.214,0.224 0.562,0.642 1.068,1.233 0.486,0.79 2.428,2.244 0.135,0.098 0.135,0.302 0.063,0.396 -0.125,0.136 -0.131,0.073 -0.131,0.073 z"
     id="path504" />
  <path
     style="fill:#231f20;fill-opacity:1;fill-rule:nonzero;stroke:none"
     d="m 267.734,48.65 c -0.718,0.136 -3.922,-0.41 -4.652,-0.577 -0.645,-0.131 -1.801,-0.011 -2.057,-1.141 -0.115,-0.448 0.048,-1.187 0.193,-1.468 0.12,-0.23 0.443,-0.266 0.823,-0.147 0.641,0.199 0.745,0.511 1.943,0.959 0,0 0.265,0.146 0.718,0.448 1.375,0.88 0.688,0.625 2.964,1.458 0.162,0.052 0.219,0.255 0.178,0.364 -0.084,0.167 -0.11,0.104 -0.11,0.104"
     id="path505" />
  <path
     style="fill:none;stroke:#231f20;stroke-width:0.565977;stroke-linecap:round;stroke-linejoin:round;stroke-miterlimit:4;stroke-dasharray:none;stroke-opacity:1"
     d="m 267.734,48.65 c -0.718,0.136 -3.922,-0.41 -4.652,-0.577 -0.645,-0.131 -1.801,-0.011 -2.057,-1.141 -0.115,-0.448 0.048,-1.187 0.193,-1.468 0.12,-0.23 0.443,-0.266 0.823,-0.147 0.641,0.199 0.745,0.511 1.943,0.959 0,0 0.265,0.146 0.718,0.448 1.375,0.88 0.688,0.625 2.964,1.458 0.162,0.052 0.219,0.255 0.178,0.364 -0.084,0.167 -0.11,0.104 -0.11,0.104 z"
     id="path506" />
  <path
     style="fill:#231f20;fill-opacity:1;fill-rule:nonzero;stroke:none"
     d="m 254.254,71.969 c -0.229,-0.595 -1.932,-1.547 -2.942,-2.792 -0.682,-0.849 -3.126,-2.093 -3.73,-2.989 -0.572,-0.814 -0.905,-1.136 -1.952,-0.662 -0.614,0.286 -1.625,1.239 -1.433,1.714 0.448,1.098 1.115,1.77 2.016,2.348 1.027,0.662 3.953,2.198 4.521,2.438 1.411,0.572 1.771,1.214 2.124,1.406 0.678,0.354 0.98,0.172 1.308,-0.203 0.615,-0.735 0.088,-1.26 0.088,-1.26"
     id="path507" />
  <path
     style="fill:none;stroke:#231f20;stroke-width:0.565977;stroke-linecap:butt;stroke-linejoin:miter;stroke-miterlimit:4;stroke-dasharray:none;stroke-opacity:1"
     d="m 254.254,71.969 c -0.229,-0.595 -1.932,-1.547 -2.942,-2.792 -0.682,-0.849 -3.126,-2.093 -3.73,-2.989 -0.572,-0.814 -0.905,-1.136 -1.952,-0.662 -0.614,0.286 -1.625,1.239 -1.433,1.714 0.448,1.098 1.115,1.77 2.016,2.348 1.027,0.662 3.953,2.198 4.521,2.438 1.411,0.572 1.771,1.214 2.124,1.406 0.678,0.354 0.98,0.172 1.308,-0.203 0.615,-0.735 0.088,-1.26 0.088,-1.26 z"
     id="path508" />
  <path
     style="fill:#231f20;fill-opacity:1;fill-rule:nonzero;stroke:none"
     d="m 247.177,68.156 c 1.255,-0.348 0.348,-2.178 0.187,-2.692 -0.172,-0.516 -0.468,-2.042 -0.542,-3.266 -0.082,-1.224 -0.708,-2.709 -0.858,-5.032 -0.084,-1.218 -0.934,-2.358 -2.699,-2.161 -1.749,0.193 -2.301,1.249 -1.973,2.708 0.322,1.464 1.238,2.699 1.672,4.147 0.426,1.448 0.728,2.973 0.9,4.166 0.209,1.37 0.813,1.974 1.281,2.088 1.152,0.308 2.032,0.042 2.032,0.042"
     id="path509" />
  <path
     style="fill:none;stroke:#231f20;stroke-width:0.565977;stroke-linecap:butt;stroke-linejoin:miter;stroke-miterlimit:4;stroke-dasharray:none;stroke-opacity:1"
     d="m 247.177,68.156 c 1.255,-0.348 0.348,-2.178 0.187,-2.692 -0.172,-0.516 -0.468,-2.042 -0.542,-3.266 -0.082,-1.224 -0.708,-2.709 -0.858,-5.032 -0.084,-1.218 -0.934,-2.358 -2.699,-2.161 -1.749,0.193 -2.301,1.249 -1.973,2.708 0.322,1.464 1.238,2.699 1.672,4.147 0.426,1.448 0.728,2.973 0.9,4.166 0.209,1.37 0.813,1.974 1.281,2.088 1.152,0.308 2.032,0.042 2.032,0.042 z"
     id="path510" />
  <path
     style="fill:#63c99d;fill-opacity:1;fill-rule:nonzero;stroke:none"
     d="m 179.916,73.052 c 2.937,1.098 3.448,1.656 4.115,2.297 4.182,3.989 6.062,1.864 6.568,-0.98 0.604,-3.333 0.88,-4.52 -5.192,-6.167 -1.694,-0.452 -7.948,-3.052 -7.948,-3.052 -2.115,-1.233 -4.834,-1.306 -6.022,-0.462 -1.254,0.885 -0.697,0.624 -1.702,1.661 -0.964,0.979 -1.491,3.099 -0.767,4.104 0.693,0.964 2.355,0.823 4.772,0.921 1.911,0.084 6.176,1.678 6.176,1.678"
     id="path511" />
  <path
     style="fill:none;stroke:#231f20;stroke-width:0.565977;stroke-linecap:butt;stroke-linejoin:miter;stroke-miterlimit:4;stroke-dasharray:none;stroke-opacity:1"
     d="m 179.916,73.052 c 2.937,1.098 3.448,1.656 4.115,2.297 4.182,3.989 6.062,1.864 6.568,-0.98 0.604,-3.333 0.88,-4.52 -5.192,-6.167 -1.694,-0.452 -7.948,-3.052 -7.948,-3.052 -2.115,-1.233 -4.834,-1.306 -6.022,-0.462 -1.254,0.885 -0.697,0.624 -1.702,1.661 -0.964,0.979 -1.491,3.099 -0.767,4.104 0.693,0.964 2.355,0.823 4.772,0.921 1.911,0.084 6.176,1.678 6.176,1.678 z"
     id="path512" />
  <path
     style="fill:#ffffff;fill-opacity:1;fill-rule:nonzero;stroke:none"
     d="m 167.927,59.937 c -0.156,-0.187 0.494,-1.135 0.089,-1.463 -0.412,-0.329 -1.043,0.151 -2.98,-0.318 l -0.02,-0.006 c -1.401,-0.385 -2.772,-0.156 -3.631,0.756 -1.426,1.516 -0.917,4.307 1.126,6.25 2.062,1.937 4.88,2.281 6.306,0.776 1.366,-1.443 0.959,-4.072 -0.89,-5.995"
     id="path513" />
  <path
     style="fill:none;stroke:#231f20;stroke-width:0.565977;stroke-linecap:butt;stroke-linejoin:miter;stroke-miterlimit:4;stroke-dasharray:none;stroke-opacity:1"
     d="m 167.927,59.937 c -0.156,-0.187 0.494,-1.135 0.089,-1.463 -0.412,-0.329 -1.043,0.151 -2.98,-0.318 l -0.02,-0.006 c -1.401,-0.385 -2.772,-0.156 -3.631,0.756 -1.426,1.516 -0.917,4.307 1.126,6.25 2.062,1.937 4.88,2.281 6.306,0.776 1.366,-1.443 0.959,-4.072 -0.89,-5.995 z"
     id="path514" />
  <path
     style="fill:#ffffff;fill-opacity:1;fill-rule:nonzero;stroke:none"
     d="m 202.172,62.86 c 1.031,2.02 1.5,2.276 2.385,1.896 0.588,-0.251 1.214,-0.287 1.578,-0.423 1.218,-0.448 3.078,-1.719 7.406,-6.672 0.979,-1.129 2.37,-2.697 2.99,-3.292 0.969,-0.943 -1.255,-1.927 -1.64,-1.557 -1.246,1.177 -2.204,1.881 -2.704,2.245 -0.354,0.245 -0.906,0.771 -2.38,1.552 -2.224,1.193 -3.739,1.573 -5.474,2.781 -0.808,0.558 -1.77,0.464 -2.276,1.422 -0.526,0.958 0.115,2.048 0.115,2.048"
     id="path515" />
  <path
     style="fill:none;stroke:#231f20;stroke-width:0.565977;stroke-linecap:butt;stroke-linejoin:miter;stroke-miterlimit:4;stroke-dasharray:none;stroke-opacity:1"
     d="m 202.172,62.86 c 1.031,2.02 1.5,2.276 2.385,1.896 0.588,-0.251 1.214,-0.287 1.578,-0.423 1.218,-0.448 3.078,-1.719 7.406,-6.672 0.979,-1.129 2.37,-2.697 2.99,-3.292 0.969,-0.943 -1.255,-1.927 -1.64,-1.557 -1.246,1.177 -2.204,1.881 -2.704,2.245 -0.354,0.245 -0.906,0.771 -2.38,1.552 -2.224,1.193 -3.739,1.573 -5.474,2.781 -0.808,0.558 -1.77,0.464 -2.276,1.422 -0.526,0.958 0.115,2.048 0.115,2.048 z"
     id="path516" />
  <path
     style="fill:#ffffff;fill-opacity:1;fill-rule:nonzero;stroke:#231f20;stroke-width:0.565977;stroke-linecap:round;stroke-linejoin:round;stroke-miterlimit:4;stroke-dasharray:none;stroke-opacity:1"
     d="m 203.052,60.516 c -1.355,-0.427 -2.803,1.161 -3.125,1.281 -4.651,1.875 -4.943,2.124 -8.375,3.787 -4.975,2.416 -8.011,4.828 -7.459,8.129 0.38,2.245 1.568,3.371 2.86,3.647 1.427,0.301 4.49,-0.548 5.334,-3.308 l 1.286,-1.131 c 0.963,-0.651 1.432,-0.979 1.932,-1.265 0.875,-0.484 1.776,-1.068 3.427,-2.124 2.921,-1.882 5.401,-4.814 5.401,-4.814 0.255,-0.177 0.402,-0.416 0.468,-0.677"
     id="path517" />
  <path
     style="fill:#231f20;fill-opacity:1;fill-rule:nonzero;stroke:none"
     d="m 218.531,53.068 c -0.083,1.349 -1.031,1.645 -1.984,1.24 -0.287,-0.126 -0.656,0.066 -0.922,-0.068 -0.625,-0.334 -1.084,-2.011 0.224,-2.756 0.094,-0.052 0.646,-0.646 1.135,-1.031 0.959,-0.751 3.229,-1.781 5.745,-0.817 1.192,0.457 0.703,1.077 0.167,1.046 -1.71,-0.13 -1.88,0.192 -2.344,0.328 -1.563,0.432 -2.021,2.058 -2.021,2.058"
     id="path518" />
  <path
     style="fill:none;stroke:#231f20;stroke-width:0.332927;stroke-linecap:butt;stroke-linejoin:miter;stroke-miterlimit:4;stroke-dasharray:none;stroke-opacity:1"
     d="m 218.531,53.068 c -0.083,1.349 -1.031,1.645 -1.984,1.24 -0.287,-0.126 -0.656,0.066 -0.922,-0.068 -0.625,-0.334 -1.084,-2.011 0.224,-2.756 0.094,-0.052 0.646,-0.646 1.135,-1.031 0.959,-0.751 3.229,-1.781 5.745,-0.817 1.192,0.457 0.703,1.077 0.167,1.046 -1.71,-0.13 -1.88,0.192 -2.344,0.328 -1.563,0.432 -2.021,2.058 -2.021,2.058 z"
     id="path519" />
  <path
     style="fill:#231f20;fill-opacity:1;fill-rule:nonzero;stroke:none"
     d="m 203.172,64.365 c 0.817,2.113 1.26,2.416 2.177,2.124 0.615,-0.187 1.234,-0.156 1.615,-0.255 1.255,-0.322 3.233,-1.401 8.047,-5.89 1.082,-1.016 2.629,-2.438 3.306,-2.964 1.063,-0.844 -1.052,-2.047 -1.473,-1.719 -1.36,1.047 -2.381,1.647 -2.923,1.959 -0.369,0.208 -0.973,0.672 -2.52,1.301 -2.333,0.964 -3.881,1.188 -5.729,2.215 -0.865,0.473 -1.808,0.281 -2.412,1.181 -0.615,0.896 -0.088,2.048 -0.088,2.048"
     id="path520" />
  <path
     style="fill:none;stroke:#231f20;stroke-width:0.565977;stroke-linecap:butt;stroke-linejoin:miter;stroke-miterlimit:4;stroke-dasharray:none;stroke-opacity:1"
     d="m 203.172,64.365 c 0.817,2.113 1.26,2.416 2.177,2.124 0.615,-0.187 1.234,-0.156 1.615,-0.255 1.255,-0.322 3.233,-1.401 8.047,-5.89 1.082,-1.016 2.629,-2.438 3.306,-2.964 1.063,-0.844 -1.052,-2.047 -1.473,-1.719 -1.36,1.047 -2.381,1.647 -2.923,1.959 -0.369,0.208 -0.973,0.672 -2.52,1.301 -2.333,0.964 -3.881,1.188 -5.729,2.215 -0.865,0.473 -1.808,0.281 -2.412,1.181 -0.615,0.896 -0.088,2.048 -0.088,2.048 z"
     id="path521" />
  <path
     style="fill:#231f20;fill-opacity:1;fill-rule:nonzero;stroke:#231f20;stroke-width:0.565977;stroke-linecap:round;stroke-linejoin:round;stroke-miterlimit:4;stroke-dasharray:none;stroke-opacity:1"
     d="m 204.281,62.12 c -1.302,-0.563 -2.906,0.874 -3.24,0.964 -4.817,1.385 -5.13,1.604 -8.718,2.91 -5.194,1.896 -8.459,3.984 -8.24,7.328 0.146,2.271 1.218,3.511 2.469,3.923 1.391,0.443 4.525,-0.089 5.645,-2.756 l 1.391,-0.989 c 1.027,-0.552 1.532,-0.823 2.057,-1.058 0.918,-0.401 1.875,-0.89 3.62,-1.77 3.099,-1.579 5.864,-4.24 5.864,-4.24 0.272,-0.151 0.444,-0.37 0.538,-0.624"
     id="path522" />
  <path
     style="fill:#231f20;fill-opacity:1;fill-rule:nonzero;stroke:none"
     d="m 220.442,56.286 c -0.224,1.334 -1.198,1.531 -2.103,1.031 -0.271,-0.151 -0.662,0 -0.912,-0.161 -0.583,-0.396 -0.87,-2.115 0.505,-2.719 0.093,-0.041 0.708,-0.577 1.235,-0.911 1.025,-0.646 3.395,-1.442 5.797,-0.224 1.14,0.572 0.588,1.14 0.056,1.052 -1.687,-0.302 -1.891,0.006 -2.364,0.088 -1.599,0.271 -2.214,1.844 -2.214,1.844"
     id="path523" />
  <path
     style="fill:none;stroke:#231f20;stroke-width:0.332927;stroke-linecap:butt;stroke-linejoin:miter;stroke-miterlimit:4;stroke-dasharray:none;stroke-opacity:1"
     d="m 220.442,56.286 c -0.224,1.334 -1.198,1.531 -2.103,1.031 -0.271,-0.151 -0.662,0 -0.912,-0.161 -0.583,-0.396 -0.87,-2.115 0.505,-2.719 0.093,-0.041 0.708,-0.577 1.235,-0.911 1.025,-0.646 3.395,-1.442 5.797,-0.224 1.14,0.572 0.588,1.14 0.056,1.052 -1.687,-0.302 -1.891,0.006 -2.364,0.088 -1.599,0.271 -2.214,1.844 -2.214,1.844 z"
     id="path524" />
  <path
     style="fill:#63c99d;fill-opacity:1;fill-rule:nonzero;stroke:#231f20;stroke-width:0.565977;stroke-linecap:butt;stroke-linejoin:miter;stroke-miterlimit:4;stroke-dasharray:none;stroke-opacity:1"
     d="m 189.468,67.172 c -3.463,1.469 -5.531,3.254 -5.457,5.896 0.066,2.265 1.082,3.557 2.322,4.005 1.37,0.5 4.526,0.088 5.735,-2.537 z"
     id="path525" />
  <path
     style="fill:#63c99d;fill-opacity:1;fill-rule:nonzero;stroke:none"
     d="m 142.353,113.385 c 2.751,1.494 3.183,2.12 3.756,2.844 3.588,4.53 5.744,2.688 6.635,-0.052 1.063,-3.224 1.505,-4.36 -4.281,-6.828 -1.619,-0.688 -7.452,-4.126 -7.452,-4.126 -1.923,-1.521 -4.604,-1.969 -5.896,-1.297 -1.366,0.704 -0.776,0.527 -1.918,1.407 -1.088,0.838 -1.905,2.869 -1.328,3.964 0.558,1.046 2.214,1.134 4.599,1.572 1.881,0.349 5.885,2.516 5.885,2.516"
     id="path526" />
  <path
     style="fill:none;stroke:#231f20;stroke-width:0.565977;stroke-linecap:butt;stroke-linejoin:miter;stroke-miterlimit:4;stroke-dasharray:none;stroke-opacity:1"
     d="m 142.353,113.385 c 2.751,1.494 3.183,2.12 3.756,2.844 3.588,4.53 5.744,2.688 6.635,-0.052 1.063,-3.224 1.505,-4.36 -4.281,-6.828 -1.619,-0.688 -7.452,-4.126 -7.452,-4.126 -1.923,-1.521 -4.604,-1.969 -5.896,-1.297 -1.366,0.704 -0.776,0.527 -1.918,1.407 -1.088,0.838 -1.905,2.869 -1.328,3.964 0.558,1.046 2.214,1.134 4.599,1.572 1.881,0.349 5.885,2.516 5.885,2.516 z"
     id="path527" />
  <path
     style="fill:#ffffff;fill-opacity:1;fill-rule:nonzero;stroke:none"
     d="m 124.568,104.338 c -0.235,0.068 -0.824,-0.921 -1.287,-0.693 -0.474,0.229 -0.313,1.005 -1.552,2.562 l -0.01,0.022 c -0.943,1.104 -1.308,2.448 -0.844,3.609 0.77,1.932 3.516,2.645 6.136,1.615 2.629,-1.052 4.129,-3.464 3.369,-5.391 -0.735,-1.849 -3.292,-2.584 -5.812,-1.724"
     id="path528" />
  <path
     style="fill:none;stroke:#231f20;stroke-width:0.565977;stroke-linecap:butt;stroke-linejoin:miter;stroke-miterlimit:4;stroke-dasharray:none;stroke-opacity:1"
     d="m 124.568,104.338 c -0.235,0.068 -0.824,-0.921 -1.287,-0.693 -0.474,0.229 -0.313,1.005 -1.552,2.562 l -0.01,0.022 c -0.943,1.104 -1.308,2.448 -0.844,3.609 0.77,1.932 3.516,2.645 6.136,1.615 2.629,-1.052 4.129,-3.464 3.369,-5.391 -0.735,-1.849 -3.292,-2.584 -5.812,-1.724 z"
     id="path529" />
  <path
     style="fill:#231f20;fill-opacity:1;fill-rule:nonzero;stroke:none"
     d="m 141.511,99.661 c 2.104,-0.849 2.396,-1.301 2.088,-2.208 -0.198,-0.615 -0.172,-1.235 -0.282,-1.609 -0.344,-1.251 -1.448,-3.214 -6.016,-7.959 -1.036,-1.063 -2.478,-2.588 -3.014,-3.255 -0.86,-1.046 -2.032,1.083 -1.699,1.5 1.068,1.344 1.688,2.354 2.005,2.891 0.214,0.369 0.688,0.963 1.344,2.5 0.995,2.317 1.246,3.859 2.303,5.692 0.489,0.855 0.312,1.803 1.223,2.391 0.906,0.603 2.048,0.057 2.048,0.057"
     id="path530" />
  <path
     style="fill:none;stroke:#231f20;stroke-width:0.565977;stroke-linecap:butt;stroke-linejoin:miter;stroke-miterlimit:4;stroke-dasharray:none;stroke-opacity:1"
     d="m 141.511,99.661 c 2.104,-0.849 2.396,-1.301 2.088,-2.208 -0.198,-0.615 -0.172,-1.235 -0.282,-1.609 -0.344,-1.251 -1.448,-3.214 -6.016,-7.959 -1.036,-1.063 -2.478,-2.588 -3.014,-3.255 -0.86,-1.046 -2.032,1.083 -1.699,1.5 1.068,1.344 1.688,2.354 2.005,2.891 0.214,0.369 0.688,0.963 1.344,2.5 0.995,2.317 1.246,3.859 2.303,5.692 0.489,0.855 0.312,1.803 1.223,2.391 0.906,0.603 2.048,0.057 2.048,0.057 z"
     id="path531" />
  <path
     style="fill:#231f20;fill-opacity:1;fill-rule:nonzero;stroke:#231f20;stroke-width:0.565977;stroke-linecap:round;stroke-linejoin:round;stroke-miterlimit:4;stroke-dasharray:none;stroke-opacity:1"
     d="m 139.249,98.588 c -0.541,1.313 0.918,2.89 1.011,3.219 1.464,4.796 1.688,5.104 3.052,8.671 1.98,5.167 4.12,8.396 7.464,8.125 2.265,-0.181 3.484,-1.27 3.875,-2.53 0.422,-1.396 -0.156,-4.522 -2.839,-5.599 l -1.016,-1.376 c -0.567,-1.015 -0.848,-1.52 -1.093,-2.041 -0.406,-0.912 -0.916,-1.859 -1.823,-3.594 -1.625,-3.073 -4.333,-5.791 -4.333,-5.791 -0.151,-0.271 -0.38,-0.438 -0.636,-0.531"
     id="path532" />
  <path
     style="fill:#63c99d;fill-opacity:1;fill-rule:nonzero;stroke:none"
     d="m 151.859,110.598 -7.328,2.719 c 1.521,3.438 3.344,5.48 5.985,5.365 2.265,-0.099 3.536,-1.141 3.968,-2.385 0.475,-1.38 0.016,-4.527 -2.625,-5.699"
     id="path533" />
  <path
     style="fill:none;stroke:#231f20;stroke-width:0.565977;stroke-linecap:butt;stroke-linejoin:miter;stroke-miterlimit:4;stroke-dasharray:none;stroke-opacity:1"
     d="m 151.859,110.598 -7.328,2.719 c 1.521,3.438 3.344,5.48 5.985,5.365 2.265,-0.099 3.536,-1.141 3.968,-2.385 0.475,-1.38 0.016,-4.527 -2.625,-5.699 z"
     id="path534" />
  <path
     style="fill:#231f20;fill-opacity:1;fill-rule:nonzero;stroke:none"
     d="m 133.156,82.521 c 1.339,0.203 1.552,1.177 1.063,2.088 -0.146,0.271 0.016,0.661 -0.146,0.912 -0.386,0.593 -2.094,0.905 -2.724,-0.459 -0.042,-0.098 -0.589,-0.702 -0.933,-1.224 -0.661,-1.016 -1.495,-3.369 -0.317,-5.786 0.562,-1.151 1.136,-0.61 1.052,-0.078 -0.276,1.692 0.032,1.891 0.13,2.364 0.296,1.594 1.875,2.183 1.875,2.183"
     id="path535" />
  <path
     style="fill:none;stroke:#231f20;stroke-width:0.332927;stroke-linecap:butt;stroke-linejoin:miter;stroke-miterlimit:4;stroke-dasharray:none;stroke-opacity:1"
     d="m 133.156,82.521 c 1.339,0.203 1.552,1.177 1.063,2.088 -0.146,0.271 0.016,0.661 -0.146,0.912 -0.386,0.593 -2.094,0.905 -2.724,-0.459 -0.042,-0.098 -0.589,-0.702 -0.933,-1.224 -0.661,-1.016 -1.495,-3.369 -0.317,-5.786 0.562,-1.151 1.136,-0.61 1.052,-0.078 -0.276,1.692 0.032,1.891 0.13,2.364 0.296,1.594 1.875,2.183 1.875,2.183 z"
     id="path536" />
  <path
     style="fill:none;stroke:#231f20;stroke-width:0.399514;stroke-linecap:butt;stroke-linejoin:miter;stroke-miterlimit:4;stroke-dasharray:none;stroke-opacity:1"
     d="m 100.787,135.718 c 20.593,16.661 48.91,-2.765 53.098,-8.703"
     id="path537" />
  <path
     style="fill:#231f20;fill-opacity:1;fill-rule:nonzero;stroke:none"
     d="m 154.577,126.031 c -0.156,0.583 -0.265,1.364 -0.208,1.938 l -0.577,-0.828 -0.975,-0.262 c 0.563,-0.14 1.26,-0.51 1.76,-0.848"
     id="path538" />
  <path
     style="fill:#ffffff;fill-opacity:1;fill-rule:nonzero;stroke:none"
     d="m 8.214,84.812 c 0,0.688 0.552,1.245 1.24,1.245 h 342.119 c 0.681,0 1.239,-0.557 1.239,-1.245 0,-0.682 -0.558,-1.239 -1.239,-1.239 H 9.454 c -0.688,0 -1.24,0.557 -1.24,1.239"
     id="path539" />
  <path
     style="fill:none;stroke:#231f20;stroke-width:0.665856;stroke-linecap:butt;stroke-linejoin:miter;stroke-miterlimit:4;stroke-dasharray:none;stroke-opacity:1"
     d="m 8.214,84.812 c 0,0.688 0.552,1.245 1.24,1.245 h 342.119 c 0.681,0 1.239,-0.557 1.239,-1.245 0,-0.682 -0.558,-1.239 -1.239,-1.239 H 9.454 c -0.688,0 -1.24,0.557 -1.24,1.239 z"
     id="path540" />
  <path
     style="fill:#231f20;fill-opacity:1;fill-rule:nonzero;stroke:none"
     d="m 60.219,83.604 c 0.599,-1.016 1.911,-1.35 2.921,-0.75 1.016,0.599 1.35,1.906 0.751,2.922 -0.599,1.01 -1.907,1.349 -2.923,0.75 -1.014,-0.605 -1.348,-1.906 -0.749,-2.922"
     id="path541" />
  <path
     style="fill:#231f20;fill-opacity:1;fill-rule:nonzero;stroke:none"
     d="m 112.853,134.307 c -1.301,0.364 -1.894,-0.428 -1.822,-1.469 0.021,-0.307 -0.282,-0.593 -0.239,-0.891 0.109,-0.697 1.547,-1.688 2.671,-0.693 0.084,0.068 0.829,0.401 1.354,0.735 1.022,0.656 2.746,2.464 2.656,5.156 -0.041,1.277 -0.786,1.016 -0.926,0.496 -0.443,-1.652 -0.807,-1.71 -1.079,-2.106 -0.927,-1.333 -2.615,-1.228 -2.615,-1.228"
     id="path542" />
  <path
     style="fill:none;stroke:#231f20;stroke-width:0.332927;stroke-linecap:butt;stroke-linejoin:miter;stroke-miterlimit:4;stroke-dasharray:none;stroke-opacity:1"
     d="m 112.853,134.307 c -1.301,0.364 -1.894,-0.428 -1.822,-1.469 0.021,-0.307 -0.282,-0.593 -0.239,-0.891 0.109,-0.697 1.547,-1.688 2.671,-0.693 0.084,0.068 0.829,0.401 1.354,0.735 1.022,0.656 2.746,2.464 2.656,5.156 -0.041,1.277 -0.786,1.016 -0.926,0.496 -0.443,-1.652 -0.807,-1.71 -1.079,-2.106 -0.927,-1.333 -2.615,-1.228 -2.615,-1.228 z"
     id="path543" />
  <path
     style="fill:#63c99d;fill-opacity:1;fill-rule:nonzero;stroke:none"
     d="m 77.24,110.822 c 2.64,1.677 3.031,2.323 3.556,3.084 3.287,4.755 5.563,3.052 6.631,0.375 1.265,-3.146 1.776,-4.25 -3.839,-7.088 -1.568,-0.787 -7.166,-4.595 -7.166,-4.595 -1.818,-1.64 -4.468,-2.26 -5.807,-1.677 -1.401,0.61 -0.803,0.474 -1.995,1.277 -1.146,0.771 -2.089,2.744 -1.584,3.869 0.484,1.088 2.136,1.282 4.49,1.87 1.854,0.469 5.714,2.885 5.714,2.885"
     id="path544" />
  <path
     style="fill:none;stroke:#231f20;stroke-width:0.565977;stroke-linecap:butt;stroke-linejoin:miter;stroke-miterlimit:4;stroke-dasharray:none;stroke-opacity:1"
     d="m 77.24,110.822 c 2.64,1.677 3.031,2.323 3.556,3.084 3.287,4.755 5.563,3.052 6.631,0.375 1.265,-3.146 1.776,-4.25 -3.839,-7.088 -1.568,-0.787 -7.166,-4.595 -7.166,-4.595 -1.818,-1.64 -4.468,-2.26 -5.807,-1.677 -1.401,0.61 -0.803,0.474 -1.995,1.277 -1.146,0.771 -2.089,2.744 -1.584,3.869 0.484,1.088 2.136,1.282 4.49,1.87 1.854,0.469 5.714,2.885 5.714,2.885 z"
     id="path545" />
  <path
     style="fill:#ffffff;fill-opacity:1;fill-rule:nonzero;stroke:none"
     d="m 61.902,98.25 c -0.246,-0.01 -0.47,-1.146 -0.986,-1.084 -0.525,0.063 -0.629,0.85 -2.312,1.907 l -0.016,0.011 c -1.26,0.733 -2.052,1.874 -2.005,3.129 0.084,2.078 2.437,3.666 5.256,3.557 2.833,-0.109 5.047,-1.891 4.963,-3.959 -0.072,-1.983 -2.234,-3.535 -4.9,-3.561"
     id="path546" />
  <path
     style="fill:none;stroke:#231f20;stroke-width:0.565977;stroke-linecap:butt;stroke-linejoin:miter;stroke-miterlimit:4;stroke-dasharray:none;stroke-opacity:1"
     d="m 61.902,98.25 c -0.246,-0.01 -0.47,-1.146 -0.986,-1.084 -0.525,0.063 -0.629,0.85 -2.312,1.907 l -0.016,0.011 c -1.26,0.733 -2.052,1.874 -2.005,3.129 0.084,2.078 2.437,3.666 5.256,3.557 2.833,-0.109 5.047,-1.891 4.963,-3.959 -0.072,-1.983 -2.234,-3.535 -4.9,-3.561 z"
     id="path547" />
  <path
     style="fill:#231f20;fill-opacity:1;fill-rule:nonzero;stroke:none"
     d="m 98.375,121.693 c -1.568,1.634 -1.646,2.166 -1,2.864 0.432,0.478 0.666,1.057 0.917,1.36 0.823,0.994 2.635,2.337 8.739,4.796 1.38,0.552 3.318,1.349 4.084,1.74 1.213,0.609 1.416,-1.818 0.937,-2.063 -1.521,-0.792 -2.5,-1.459 -3.011,-1.817 -0.344,-0.251 -1.025,-0.595 -2.245,-1.73 -1.864,-1.713 -2.719,-3.01 -4.437,-4.256 -0.791,-0.582 -1.015,-1.514 -2.094,-1.681 -1.068,-0.183 -1.89,0.787 -1.89,0.787"
     id="path548" />
  <path
     style="fill:none;stroke:#231f20;stroke-width:0.565977;stroke-linecap:butt;stroke-linejoin:miter;stroke-miterlimit:4;stroke-dasharray:none;stroke-opacity:1"
     d="m 98.375,121.693 c -1.568,1.634 -1.646,2.166 -1,2.864 0.432,0.478 0.666,1.057 0.917,1.36 0.823,0.994 2.635,2.337 8.739,4.796 1.38,0.552 3.318,1.349 4.084,1.74 1.213,0.609 1.416,-1.818 0.937,-2.063 -1.521,-0.792 -2.5,-1.459 -3.011,-1.817 -0.344,-0.251 -1.025,-0.595 -2.245,-1.73 -1.864,-1.713 -2.719,-3.01 -4.437,-4.256 -0.791,-0.582 -1.015,-1.514 -2.094,-1.681 -1.068,-0.183 -1.89,0.787 -1.89,0.787 z"
     id="path549" />
  <path
     style="fill:#231f20;fill-opacity:1;fill-rule:nonzero;stroke:#231f20;stroke-width:0.565977;stroke-linecap:round;stroke-linejoin:round;stroke-miterlimit:4;stroke-dasharray:none;stroke-opacity:1"
     d="m 102.391,123.021 c -0.084,-1.418 -2.094,-2.194 -2.328,-2.443 -3.423,-3.661 -3.762,-3.833 -6.558,-6.437 -4.052,-3.762 -7.401,-5.719 -10.281,-4 -1.948,1.166 -2.568,2.681 -2.365,3.978 0.24,1.438 2.136,3.99 5.021,3.771 l 1.516,0.792 c 0.963,0.661 1.432,0.984 1.88,1.349 0.771,0.63 1.645,1.266 3.229,2.416 2.807,2.042 6.443,3.292 6.443,3.292 0.249,0.178 0.531,0.224 0.796,0.192"
     id="path550" />
  <path
     style="fill:#63c99d;fill-opacity:1;fill-rule:nonzero;stroke:none"
     d="m 89.776,111.135 c -0.089,-0.104 -0.167,-0.209 -0.224,-0.308 -0.412,-0.77 -1.079,-0.849 -2.265,-1.025 -1.36,-0.469 -2.641,-0.453 -3.855,0.213 -1.989,1.094 -2.672,2.583 -2.51,3.891 0.177,1.453 1.98,4.072 4.87,3.959 l 5.375,-5.672 c -0.475,-0.396 -0.932,-0.74 -1.391,-1.058"
     id="path551" />
  <path
     style="fill:none;stroke:#231f20;stroke-width:0.565977;stroke-linecap:butt;stroke-linejoin:miter;stroke-miterlimit:4;stroke-dasharray:none;stroke-opacity:1"
     d="m 89.776,111.135 c -0.089,-0.104 -0.167,-0.209 -0.224,-0.308 -0.412,-0.77 -1.079,-0.849 -2.265,-1.025 -1.36,-0.469 -2.641,-0.453 -3.855,0.213 -1.989,1.094 -2.672,2.583 -2.51,3.891 0.177,1.453 1.98,4.072 4.87,3.959 l 5.375,-5.672 c -0.475,-0.396 -0.932,-0.74 -1.391,-1.058 z"
     id="path552" />
  <path
     style="fill:#231f20;fill-opacity:1;fill-rule:nonzero;stroke:none"
     d="m 63.047,84.614 c 0.541,0.339 1.12,2.203 2.14,3.443 0.693,0.833 1.428,3.479 2.177,4.26 0.694,0.719 0.938,1.109 0.256,2.037 -0.406,0.547 -1.542,1.344 -1.964,1.058 -0.989,-0.656 -1.516,-1.448 -1.896,-2.443 -0.442,-1.136 -1.358,-4.319 -1.478,-4.923 -0.276,-1.494 -0.834,-1.978 -0.948,-2.364 -0.208,-0.734 0.02,-0.994 0.458,-1.234 0.843,-0.459 1.255,0.166 1.255,0.166"
     id="path553" />
  <path
     style="fill:none;stroke:#231f20;stroke-width:0.565977;stroke-linecap:butt;stroke-linejoin:miter;stroke-miterlimit:4;stroke-dasharray:none;stroke-opacity:1"
     d="m 63.047,84.614 c 0.541,0.339 1.12,2.203 2.14,3.443 0.693,0.833 1.428,3.479 2.177,4.26 0.694,0.719 0.938,1.109 0.256,2.037 -0.406,0.547 -1.542,1.344 -1.964,1.058 -0.989,-0.656 -1.516,-1.448 -1.896,-2.443 -0.442,-1.136 -1.358,-4.319 -1.478,-4.923 -0.276,-1.494 -0.834,-1.978 -0.948,-2.364 -0.208,-0.734 0.02,-0.994 0.458,-1.234 0.843,-0.459 1.255,0.166 1.255,0.166 z"
     id="path554" />
  <path
     style="fill:#231f20;fill-opacity:1;fill-rule:nonzero;stroke:none"
     d="m 66.907,92.808 c 1.228,-0.418 1.525,1.598 1.681,2.109 0.156,0.525 0.782,1.948 1.412,2.995 0.631,1.057 0.964,2.634 2.151,4.634 0.631,1.047 0.573,2.469 -0.989,3.308 -1.547,0.839 -2.599,0.281 -3.162,-1.104 -0.568,-1.385 -0.51,-2.928 -0.984,-4.36 -0.469,-1.442 -1.084,-2.858 -1.625,-3.948 -0.609,-1.24 -0.453,-2.082 -0.136,-2.442 0.781,-0.907 1.652,-1.192 1.652,-1.192"
     id="path555" />
  <path
     style="fill:none;stroke:#231f20;stroke-width:0.565977;stroke-linecap:butt;stroke-linejoin:miter;stroke-miterlimit:4;stroke-dasharray:none;stroke-opacity:1"
     d="m 66.907,92.808 c 1.228,-0.418 1.525,1.598 1.681,2.109 0.156,0.525 0.782,1.948 1.412,2.995 0.631,1.057 0.964,2.634 2.151,4.634 0.631,1.047 0.573,2.469 -0.989,3.308 -1.547,0.839 -2.599,0.281 -3.162,-1.104 -0.568,-1.385 -0.51,-2.928 -0.984,-4.36 -0.469,-1.442 -1.084,-2.858 -1.625,-3.948 -0.609,-1.24 -0.453,-2.082 -0.136,-2.442 0.781,-0.907 1.652,-1.192 1.652,-1.192 z"
     id="path556" />
  <path
     style="fill:#63c99d;fill-opacity:1;fill-rule:nonzero;stroke:none"
     d="m 16.178,110.698 c -1.782,2.572 -2.448,2.937 -3.23,3.427 -4.89,3.077 -3.286,5.421 -0.661,6.604 3.093,1.401 4.172,1.964 7.249,-3.527 0.855,-1.536 4.902,-6.963 4.902,-6.963 1.713,-1.75 2.448,-4.37 1.921,-5.724 -0.552,-1.432 -0.437,-0.828 -1.192,-2.057 -0.719,-1.172 -2.647,-2.204 -3.797,-1.745 -1.104,0.437 -1.37,2.078 -2.058,4.401 -0.552,1.833 -3.134,5.584 -3.134,5.584"
     id="path557" />
  <path
     style="fill:none;stroke:#231f20;stroke-width:0.565977;stroke-linecap:butt;stroke-linejoin:miter;stroke-miterlimit:4;stroke-dasharray:none;stroke-opacity:1"
     d="m 16.178,110.698 c -1.782,2.572 -2.448,2.937 -3.23,3.427 -4.89,3.077 -3.286,5.421 -0.661,6.604 3.093,1.401 4.172,1.964 7.249,-3.527 0.855,-1.536 4.902,-6.963 4.902,-6.963 1.713,-1.75 2.448,-4.37 1.921,-5.724 -0.552,-1.432 -0.437,-0.828 -1.192,-2.057 -0.719,-1.172 -2.647,-2.204 -3.797,-1.745 -1.104,0.437 -1.37,2.078 -2.058,4.401 -0.552,1.833 -3.134,5.584 -3.134,5.584 z"
     id="path558" />
  <path
     style="fill:#ffffff;fill-opacity:1;fill-rule:nonzero;stroke:none"
     d="M 28.678,94.505 C 28.635,94.26 29.683,93.786 29.5,93.297 29.323,92.802 28.536,92.88 27.12,91.484 l -0.016,-0.015 c -1,-1.057 -2.297,-1.563 -3.5,-1.229 -2.005,0.557 -3.016,3.213 -2.26,5.932 0.755,2.724 2.995,4.473 4.995,3.921 1.916,-0.531 2.921,-2.995 2.339,-5.588"
     id="path559" />
  <path
     style="fill:none;stroke:#231f20;stroke-width:0.565977;stroke-linecap:butt;stroke-linejoin:miter;stroke-miterlimit:4;stroke-dasharray:none;stroke-opacity:1"
     d="M 28.678,94.505 C 28.635,94.26 29.683,93.786 29.5,93.297 29.323,92.802 28.536,92.88 27.12,91.484 l -0.016,-0.015 c -1,-1.057 -2.297,-1.563 -3.5,-1.229 -2.005,0.557 -3.016,3.213 -2.26,5.932 0.755,2.724 2.995,4.473 4.995,3.921 1.916,-0.531 2.921,-2.995 2.339,-5.588 z"
     id="path560" />
  <path
     style="fill:#231f20;fill-opacity:1;fill-rule:nonzero;stroke:none"
     d="m 35.312,86.756 c 0.038,0.64 -1.145,2.192 -1.557,3.744 -0.281,1.052 -2.011,3.182 -2.208,4.245 -0.183,0.979 -0.36,1.411 -1.511,1.391 -0.682,-0.011 -1.989,-0.475 -2.005,-0.986 -0.036,-1.186 0.308,-2.072 0.896,-2.962 0.667,-1.016 2.724,-3.615 3.147,-4.058 1.052,-1.094 1.124,-1.833 1.374,-2.152 0.474,-0.593 0.823,-0.556 1.271,-0.337 0.864,0.421 0.593,1.115 0.593,1.115"
     id="path561" />
  <path
     style="fill:none;stroke:#231f20;stroke-width:0.565977;stroke-linecap:butt;stroke-linejoin:miter;stroke-miterlimit:4;stroke-dasharray:none;stroke-opacity:1"
     d="m 35.312,86.756 c 0.038,0.64 -1.145,2.192 -1.557,3.744 -0.281,1.052 -2.011,3.182 -2.208,4.245 -0.183,0.979 -0.36,1.411 -1.511,1.391 -0.682,-0.011 -1.989,-0.475 -2.005,-0.986 -0.036,-1.186 0.308,-2.072 0.896,-2.962 0.667,-1.016 2.724,-3.615 3.147,-4.058 1.052,-1.094 1.124,-1.833 1.374,-2.152 0.474,-0.593 0.823,-0.556 1.271,-0.337 0.864,0.421 0.593,1.115 0.593,1.115 z"
     id="path562" />
  <path
     style="fill:#231f20;fill-opacity:1;fill-rule:nonzero;stroke:none"
     d="m 30.88,94.656 c 1.058,0.756 -0.417,2.166 -0.74,2.594 -0.333,0.432 -1.129,1.766 -1.62,2.891 -0.494,1.118 -1.588,2.312 -2.52,4.442 -0.489,1.119 -1.682,1.895 -3.27,1.115 -1.579,-0.777 -1.735,-1.953 -0.938,-3.22 0.796,-1.265 2.088,-2.113 2.979,-3.333 0.896,-1.219 1.697,-2.541 2.271,-3.613 0.656,-1.215 1.432,-1.574 1.912,-1.527 1.186,0.109 1.926,0.651 1.926,0.651"
     id="path563" />
  <path
     style="fill:none;stroke:#231f20;stroke-width:0.565977;stroke-linecap:butt;stroke-linejoin:miter;stroke-miterlimit:4;stroke-dasharray:none;stroke-opacity:1"
     d="m 30.88,94.656 c 1.058,0.756 -0.417,2.166 -0.74,2.594 -0.333,0.432 -1.129,1.766 -1.62,2.891 -0.494,1.118 -1.588,2.312 -2.52,4.442 -0.489,1.119 -1.682,1.895 -3.27,1.115 -1.579,-0.777 -1.735,-1.953 -0.938,-3.22 0.796,-1.265 2.088,-2.113 2.979,-3.333 0.896,-1.219 1.697,-2.541 2.271,-3.613 0.656,-1.215 1.432,-1.574 1.912,-1.527 1.186,0.109 1.926,0.651 1.926,0.651 z"
     id="path564" />
  <path
     style="fill:#231f20;fill-opacity:1;fill-rule:nonzero;stroke:none"
     d="m 27.568,127.947 c -1.578,1.62 -1.666,2.146 -1.026,2.86 0.426,0.479 0.656,1.062 0.901,1.364 0.817,1.011 2.615,2.364 8.697,4.886 1.376,0.557 3.308,1.38 4.068,1.776 1.203,0.614 1.427,-1.807 0.954,-2.052 -1.516,-0.807 -2.484,-1.484 -2.99,-1.85 -0.349,-0.249 -1.021,-0.604 -2.234,-1.749 -1.844,-1.729 -2.688,-3.041 -4.391,-4.303 -0.787,-0.582 -1.005,-1.525 -2.073,-1.697 -1.072,-0.193 -1.906,0.765 -1.906,0.765"
     id="path565" />
  <path
     style="fill:none;stroke:#231f20;stroke-width:0.565977;stroke-linecap:butt;stroke-linejoin:miter;stroke-miterlimit:4;stroke-dasharray:none;stroke-opacity:1"
     d="m 27.568,127.947 c -1.578,1.62 -1.666,2.146 -1.026,2.86 0.426,0.479 0.656,1.062 0.901,1.364 0.817,1.011 2.615,2.364 8.697,4.886 1.376,0.557 3.308,1.38 4.068,1.776 1.203,0.614 1.427,-1.807 0.954,-2.052 -1.516,-0.807 -2.484,-1.484 -2.99,-1.85 -0.349,-0.249 -1.021,-0.604 -2.234,-1.749 -1.844,-1.729 -2.688,-3.041 -4.391,-4.303 -0.787,-0.582 -1.005,-1.525 -2.073,-1.697 -1.072,-0.193 -1.906,0.765 -1.906,0.765 z"
     id="path566" />
  <path
     style="fill:#231f20;fill-opacity:1;fill-rule:nonzero;stroke:#231f20;stroke-width:0.565977;stroke-linecap:round;stroke-linejoin:round;stroke-miterlimit:4;stroke-dasharray:none;stroke-opacity:1"
     d="m 30.074,128.031 c -0.027,-1.422 -2,-2.292 -2.215,-2.553 -3.26,-3.807 -3.588,-4 -6.265,-6.723 -3.88,-3.944 -7.135,-6.053 -10.088,-4.464 -2.006,1.078 -2.688,2.563 -2.542,3.875 0.171,1.448 1.952,4.079 4.838,3.989 l 1.485,0.86 c 0.927,0.703 1.385,1.047 1.817,1.427 0.74,0.672 1.583,1.344 3.115,2.563 2.713,2.172 6.287,3.578 6.287,3.578 0.244,0.192 0.52,0.25 0.786,0.234"
     id="path567" />
  <path
     style="fill:#63c99d;fill-opacity:1;fill-rule:nonzero;stroke:none"
     d="m 11.708,114.114 c -2.036,1.005 -2.781,2.464 -2.682,3.776 0.114,1.453 1.797,4.156 4.682,4.172 l 5.631,-5.421 c -2.771,-2.543 -5.256,-3.688 -7.631,-2.527"
     id="path568" />
  <path
     style="fill:none;stroke:#231f20;stroke-width:0.565977;stroke-linecap:butt;stroke-linejoin:miter;stroke-miterlimit:4;stroke-dasharray:none;stroke-opacity:1"
     d="m 11.708,114.114 c -2.036,1.005 -2.781,2.464 -2.682,3.776 0.114,1.453 1.797,4.156 4.682,4.172 l 5.631,-5.421 c -2.771,-2.543 -5.256,-3.688 -7.631,-2.527 z"
     id="path569" />
  <path
     style="fill:#231f20;fill-opacity:1;fill-rule:nonzero;stroke:none"
     d="m 42.083,140.311 c -1.307,0.35 -1.891,-0.452 -1.807,-1.484 0.022,-0.312 -0.281,-0.598 -0.234,-0.896 0.114,-0.697 1.562,-1.672 2.682,-0.672 0.078,0.074 0.823,0.412 1.344,0.751 1.015,0.667 2.724,2.489 2.61,5.183 -0.052,1.276 -0.798,1.009 -0.934,0.484 -0.426,-1.656 -0.79,-1.719 -1.061,-2.115 -0.912,-1.339 -2.6,-1.251 -2.6,-1.251"
     id="path570" />
  <path
     style="fill:none;stroke:#231f20;stroke-width:0.332927;stroke-linecap:butt;stroke-linejoin:miter;stroke-miterlimit:4;stroke-dasharray:none;stroke-opacity:1"
     d="m 42.083,140.311 c -1.307,0.35 -1.891,-0.452 -1.807,-1.484 0.022,-0.312 -0.281,-0.598 -0.234,-0.896 0.114,-0.697 1.562,-1.672 2.682,-0.672 0.078,0.074 0.823,0.412 1.344,0.751 1.015,0.667 2.724,2.489 2.61,5.183 -0.052,1.276 -0.798,1.009 -0.934,0.484 -0.426,-1.656 -0.79,-1.719 -1.061,-2.115 -0.912,-1.339 -2.6,-1.251 -2.6,-1.251 z"
     id="path571" />
  <path
     style="fill:#231f20;fill-opacity:1;fill-rule:nonzero;stroke:none"
     d="m 32.542,83.88 c 0.469,-1.078 1.729,-1.578 2.808,-1.104 1.077,0.469 1.577,1.724 1.109,2.802 -0.469,1.083 -1.724,1.578 -2.808,1.11 -1.077,-0.47 -1.577,-1.724 -1.109,-2.808"
     id="path572" />
  <path
     style="fill:#231f20;fill-opacity:1;fill-rule:nonzero;stroke:none"
     d="m 134.787,86.141 c 0.385,0.509 0.244,2.457 0.749,3.984 0.349,1.031 0.073,3.76 0.495,4.76 0.38,0.917 0.469,1.375 -0.5,1.989 -0.578,0.366 -1.927,0.699 -2.219,0.282 -0.681,-0.974 -0.885,-1.902 -0.88,-2.968 0,-1.219 0.292,-4.516 0.401,-5.12 0.282,-1.495 -0.068,-2.147 -0.026,-2.552 0.068,-0.756 0.376,-0.918 0.87,-0.98 0.954,-0.124 1.11,0.605 1.11,0.605"
     id="path573" />
  <path
     style="fill:none;stroke:#231f20;stroke-width:0.565977;stroke-linecap:butt;stroke-linejoin:miter;stroke-miterlimit:4;stroke-dasharray:none;stroke-opacity:1"
     d="m 134.787,86.141 c 0.385,0.509 0.244,2.457 0.749,3.984 0.349,1.031 0.073,3.76 0.495,4.76 0.38,0.917 0.469,1.375 -0.5,1.989 -0.578,0.366 -1.927,0.699 -2.219,0.282 -0.681,-0.974 -0.885,-1.902 -0.88,-2.968 0,-1.219 0.292,-4.516 0.401,-5.12 0.282,-1.495 -0.068,-2.147 -0.026,-2.552 0.068,-0.756 0.376,-0.918 0.87,-0.98 0.954,-0.124 1.11,0.605 1.11,0.605 z"
     id="path574" />
  <path
     style="fill:#231f20;fill-opacity:1;fill-rule:nonzero;stroke:none"
     d="m 135.421,95.177 c 1.298,0.052 0.844,2.041 0.808,2.573 -0.042,0.547 0.026,2.099 0.234,3.307 0.204,1.208 -0.056,2.802 0.333,5.098 0.209,1.204 -0.359,2.506 -2.119,2.724 -1.745,0.219 -2.526,-0.677 -2.552,-2.172 -0.026,-1.5 0.583,-2.916 0.662,-4.421 0.077,-1.511 0.014,-3.057 -0.09,-4.27 -0.12,-1.375 0.328,-2.104 0.756,-2.318 1.052,-0.568 1.968,-0.521 1.968,-0.521"
     id="path575" />
  <path
     style="fill:none;stroke:#231f20;stroke-width:0.565977;stroke-linecap:butt;stroke-linejoin:miter;stroke-miterlimit:4;stroke-dasharray:none;stroke-opacity:1"
     d="m 135.421,95.177 c 1.298,0.052 0.844,2.041 0.808,2.573 -0.042,0.547 0.026,2.099 0.234,3.307 0.204,1.208 -0.056,2.802 0.333,5.098 0.209,1.204 -0.359,2.506 -2.119,2.724 -1.745,0.219 -2.526,-0.677 -2.552,-2.172 -0.026,-1.5 0.583,-2.916 0.662,-4.421 0.077,-1.511 0.014,-3.057 -0.09,-4.27 -0.12,-1.375 0.328,-2.104 0.756,-2.318 1.052,-0.568 1.968,-0.521 1.968,-0.521 z"
     id="path576" />
  <path
     style="fill:#231f20;fill-opacity:1;fill-rule:nonzero;stroke:none"
     d="m 130.896,85.26 c -0.204,-1.162 0.572,-2.266 1.735,-2.468 1.161,-0.199 2.265,0.577 2.462,1.734 0.204,1.162 -0.573,2.266 -1.729,2.468 -1.167,0.204 -2.271,-0.572 -2.468,-1.734"
     id="path577" />
  <path
     style="fill:#231f20;fill-opacity:1;fill-rule:nonzero;stroke:none"
     d="m 172.719,80.021 c -1.282,0.172 -1.178,-1.865 -1.23,-2.401 -0.057,-0.542 -0.38,-2.063 -0.797,-3.214 -0.405,-1.156 -0.421,-2.77 -1.197,-4.964 -0.402,-1.156 -0.074,-2.536 1.63,-3.052 1.676,-0.51 2.599,0.24 2.88,1.708 0.287,1.47 -0.078,2.97 0.104,4.47 0.178,1.5 0.5,3.016 0.812,4.192 0.355,1.333 0.038,2.125 -0.344,2.417 -0.946,0.735 -1.858,0.844 -1.858,0.844"
     id="path578" />
  <path
     style="fill:none;stroke:#231f20;stroke-width:0.565977;stroke-linecap:butt;stroke-linejoin:miter;stroke-miterlimit:4;stroke-dasharray:none;stroke-opacity:1"
     d="m 172.719,80.021 c -1.282,0.172 -1.178,-1.865 -1.23,-2.401 -0.057,-0.542 -0.38,-2.063 -0.797,-3.214 -0.405,-1.156 -0.421,-2.77 -1.197,-4.964 -0.402,-1.156 -0.074,-2.536 1.63,-3.052 1.676,-0.51 2.599,0.24 2.88,1.708 0.287,1.47 -0.078,2.97 0.104,4.47 0.178,1.5 0.5,3.016 0.812,4.192 0.355,1.333 0.038,2.125 -0.344,2.417 -0.946,0.735 -1.858,0.844 -1.858,0.844 z"
     id="path579" />
  <path
     style="fill:#231f20;fill-opacity:1;fill-rule:nonzero;stroke:none"
     d="m 180.921,85.661 c -0.64,-0.025 -2.068,-1.353 -3.572,-1.921 -1.021,-0.38 -2.964,-2.314 -4.005,-2.61 -0.953,-0.286 -1.371,-0.5 -1.235,-1.641 0.074,-0.681 0.667,-1.937 1.172,-1.901 1.192,0.084 2.036,0.51 2.864,1.177 0.948,0.771 3.328,3.073 3.724,3.537 0.99,1.156 1.714,1.296 2.006,1.578 0.546,0.532 0.478,0.87 0.213,1.302 -0.505,0.818 -1.167,0.479 -1.167,0.479"
     id="path580" />
  <path
     style="fill:none;stroke:#231f20;stroke-width:0.565977;stroke-linecap:butt;stroke-linejoin:miter;stroke-miterlimit:4;stroke-dasharray:none;stroke-opacity:1"
     d="m 180.921,85.661 c -0.64,-0.025 -2.068,-1.353 -3.572,-1.921 -1.021,-0.38 -2.964,-2.314 -4.005,-2.61 -0.953,-0.286 -1.371,-0.5 -1.235,-1.641 0.074,-0.681 0.667,-1.937 1.172,-1.901 1.192,0.084 2.036,0.51 2.864,1.177 0.948,0.771 3.328,3.073 3.724,3.537 0.99,1.156 1.714,1.296 2.006,1.578 0.546,0.532 0.478,0.87 0.213,1.302 -0.505,0.818 -1.167,0.479 -1.167,0.479 z"
     id="path581" />
  <path
     style="fill:#231f20;fill-opacity:1;fill-rule:nonzero;stroke:none"
     d="m 184.052,83.188 c 1.031,0.572 1.401,1.874 0.828,2.901 -0.573,1.031 -1.869,1.4 -2.901,0.828 -1.031,-0.573 -1.402,-1.871 -0.828,-2.901 0.578,-1.027 1.874,-1.402 2.901,-0.828"
     id="path582" />
  <path
     style="fill:#231f20;fill-opacity:1;fill-rule:nonzero;stroke:none"
     d="m 262.224,45.297 c -0.303,-0.563 -2.131,-1.256 -3.303,-2.355 -0.792,-0.744 -3.38,-1.645 -4.109,-2.448 -0.672,-0.729 -1.052,-1.005 -2.016,-0.385 -0.572,0.369 -1.438,1.453 -1.187,1.896 0.599,1.031 1.355,1.599 2.323,2.047 1.104,0.51 4.218,1.636 4.812,1.786 1.474,0.375 1.922,0.964 2.302,1.104 0.719,0.256 0.995,0.042 1.26,-0.38 0.511,-0.817 -0.082,-1.265 -0.082,-1.265"
     id="path583" />
  <path
     style="fill:none;stroke:#231f20;stroke-width:0.565977;stroke-linecap:butt;stroke-linejoin:miter;stroke-miterlimit:4;stroke-dasharray:none;stroke-opacity:1"
     d="m 262.224,45.297 c -0.303,-0.563 -2.131,-1.256 -3.303,-2.355 -0.792,-0.744 -3.38,-1.645 -4.109,-2.448 -0.672,-0.729 -1.052,-1.005 -2.016,-0.385 -0.572,0.369 -1.438,1.453 -1.187,1.896 0.599,1.031 1.355,1.599 2.323,2.047 1.104,0.51 4.218,1.636 4.812,1.786 1.474,0.375 1.922,0.964 2.302,1.104 0.719,0.256 0.995,0.042 1.26,-0.38 0.511,-0.817 -0.082,-1.265 -0.082,-1.265 z"
     id="path584" />
  <path
     style="fill:#63c99d;fill-opacity:1;fill-rule:nonzero;stroke:none"
     d="m 307.01,59.474 c 3.104,-0.433 3.724,-0.865 4.52,-1.344 4.948,-2.974 6.323,-0.489 6.194,2.391 -0.142,3.391 -0.131,4.609 -6.418,4.885 -1.754,0.068 -8.421,1.235 -8.421,1.235 -2.339,0.739 -5.005,0.219 -5.979,-0.865 -1.032,-1.14 -0.542,-0.76 -1.297,-1.99 -0.724,-1.172 -0.776,-3.354 0.151,-4.177 0.89,-0.787 2.474,-0.281 4.86,0.141 1.885,0.343 6.39,-0.276 6.39,-0.276"
     id="path585" />
  <path
     style="fill:none;stroke:#231f20;stroke-width:0.565977;stroke-linecap:butt;stroke-linejoin:miter;stroke-miterlimit:4;stroke-dasharray:none;stroke-opacity:1"
     d="m 307.01,59.474 c 3.104,-0.433 3.724,-0.865 4.52,-1.344 4.948,-2.974 6.323,-0.489 6.194,2.391 -0.142,3.391 -0.131,4.609 -6.418,4.885 -1.754,0.068 -8.421,1.235 -8.421,1.235 -2.339,0.739 -5.005,0.219 -5.979,-0.865 -1.032,-1.14 -0.542,-0.76 -1.297,-1.99 -0.724,-1.172 -0.776,-3.354 0.151,-4.177 0.89,-0.787 2.474,-0.281 4.86,0.141 1.885,0.343 6.39,-0.276 6.39,-0.276 z"
     id="path586" />
  <path
     style="fill:#ffffff;fill-opacity:1;fill-rule:nonzero;stroke:none"
     d="m 286.926,63.328 c -0.197,-0.14 -1.093,0.578 -1.453,0.198 -0.359,-0.385 0.068,-1.052 -0.541,-2.942 l -0.011,-0.022 c -0.484,-1.369 -0.359,-2.754 0.48,-3.682 1.4,-1.536 4.229,-1.239 6.317,0.656 2.088,1.901 2.646,4.693 1.25,6.229 -1.334,1.469 -3.99,1.256 -6.042,-0.437"
     id="path587" />
  <path
     style="fill:none;stroke:#231f20;stroke-width:0.565977;stroke-linecap:butt;stroke-linejoin:miter;stroke-miterlimit:4;stroke-dasharray:none;stroke-opacity:1"
     d="m 286.926,63.328 c -0.197,-0.14 -1.093,0.578 -1.453,0.198 -0.359,-0.385 0.068,-1.052 -0.541,-2.942 l -0.011,-0.022 c -0.484,-1.369 -0.359,-2.754 0.48,-3.682 1.4,-1.536 4.229,-1.239 6.317,0.656 2.088,1.901 2.646,4.693 1.25,6.229 -1.334,1.469 -3.99,1.256 -6.042,-0.437 z"
     id="path588" />
  <path
     style="fill:#231f20;fill-opacity:1;fill-rule:nonzero;stroke:none"
     d="m 299.948,83.494 c 0.349,-0.536 0.093,-2.468 0.505,-4.025 0.287,-1.047 -0.156,-3.756 0.203,-4.776 0.322,-0.943 0.39,-1.407 -0.62,-1.959 -0.594,-0.333 -1.963,-0.584 -2.23,-0.146 -0.624,1.016 -0.765,1.948 -0.697,3.016 0.073,1.213 0.563,4.489 0.708,5.089 0.369,1.473 0.068,2.14 0.125,2.547 0.115,0.749 0.432,0.896 0.932,0.926 0.959,0.063 1.074,-0.672 1.074,-0.672"
     id="path589" />
  <path
     style="fill:none;stroke:#231f20;stroke-width:0.565977;stroke-linecap:butt;stroke-linejoin:miter;stroke-miterlimit:4;stroke-dasharray:none;stroke-opacity:1"
     d="m 299.948,83.494 c 0.349,-0.536 0.093,-2.468 0.505,-4.025 0.287,-1.047 -0.156,-3.756 0.203,-4.776 0.322,-0.943 0.39,-1.407 -0.62,-1.959 -0.594,-0.333 -1.963,-0.584 -2.23,-0.146 -0.624,1.016 -0.765,1.948 -0.697,3.016 0.073,1.213 0.563,4.489 0.708,5.089 0.369,1.473 0.068,2.14 0.125,2.547 0.115,0.749 0.432,0.896 0.932,0.926 0.959,0.063 1.074,-0.672 1.074,-0.672 z"
     id="path590" />
  <path
     style="fill:#231f20;fill-opacity:1;fill-rule:nonzero;stroke:none"
     d="m 300.03,74.432 c 1.292,-0.13 0.719,-2.083 0.647,-2.615 -0.073,-0.541 -0.1,-2.099 0.036,-3.312 0.131,-1.219 -0.224,-2.797 0.021,-5.109 0.135,-1.214 -0.51,-2.479 -2.281,-2.594 -1.756,-0.109 -2.475,0.828 -2.412,2.328 0.063,1.495 0.755,2.87 0.927,4.375 0.172,1.5 0.204,3.047 0.172,4.26 -0.036,1.38 0.458,2.084 0.896,2.271 1.089,0.5 1.994,0.396 1.994,0.396"
     id="path591" />
  <path
     style="fill:none;stroke:#231f20;stroke-width:0.565977;stroke-linecap:butt;stroke-linejoin:miter;stroke-miterlimit:4;stroke-dasharray:none;stroke-opacity:1"
     d="m 300.03,74.432 c 1.292,-0.13 0.719,-2.083 0.647,-2.615 -0.073,-0.541 -0.1,-2.099 0.036,-3.312 0.131,-1.219 -0.224,-2.797 0.021,-5.109 0.135,-1.214 -0.51,-2.479 -2.281,-2.594 -1.756,-0.109 -2.475,0.828 -2.412,2.328 0.063,1.495 0.755,2.87 0.927,4.375 0.172,1.5 0.204,3.047 0.172,4.26 -0.036,1.38 0.458,2.084 0.896,2.271 1.089,0.5 1.994,0.396 1.994,0.396 z"
     id="path592" />
  <path
     style="fill:#231f20;fill-opacity:1;fill-rule:nonzero;stroke:none"
     d="m 331.129,53.25 c -1.213,-1.912 -1.192,-2.448 -0.416,-3.01 0.521,-0.38 0.864,-0.902 1.167,-1.147 1.005,-0.817 3.046,-1.771 9.516,-2.973 1.468,-0.266 3.525,-0.662 4.353,-0.896 1.308,-0.355 1.021,2.062 0.505,2.208 -1.645,0.474 -2.734,0.933 -3.306,1.188 -0.391,0.172 -1.126,0.38 -2.547,1.245 -2.161,1.312 -3.261,2.416 -5.188,3.296 -0.896,0.412 -1.303,1.281 -2.38,1.235 -1.093,-0.031 -1.704,-1.146 -1.704,-1.146"
     id="path593" />
  <path
     style="fill:none;stroke:#231f20;stroke-width:0.565977;stroke-linecap:butt;stroke-linejoin:miter;stroke-miterlimit:4;stroke-dasharray:none;stroke-opacity:1"
     d="m 331.129,53.25 c -1.213,-1.912 -1.192,-2.448 -0.416,-3.01 0.521,-0.38 0.864,-0.902 1.167,-1.147 1.005,-0.817 3.046,-1.771 9.516,-2.973 1.468,-0.266 3.525,-0.662 4.353,-0.896 1.308,-0.355 1.021,2.062 0.505,2.208 -1.645,0.474 -2.734,0.933 -3.306,1.188 -0.391,0.172 -1.126,0.38 -2.547,1.245 -2.161,1.312 -3.261,2.416 -5.188,3.296 -0.896,0.412 -1.303,1.281 -2.38,1.235 -1.093,-0.031 -1.704,-1.146 -1.704,-1.146 z"
     id="path594" />
  <path
     style="fill:#231f20;fill-opacity:1;fill-rule:nonzero;stroke:#231f20;stroke-width:0.565977;stroke-linecap:round;stroke-linejoin:round;stroke-miterlimit:4;stroke-dasharray:none;stroke-opacity:1"
     d="m 333.593,53.693 c -0.317,1.385 -2.427,1.823 -2.692,2.031 -3.98,3.052 -4.344,3.172 -7.527,5.281 -4.614,3.052 -8.234,4.437 -10.797,2.271 -1.733,-1.468 -2.099,-3.063 -1.681,-4.312 0.473,-1.38 2.76,-3.59 5.566,-2.902 l 1.626,-0.536 c 1.052,-0.494 1.573,-0.734 2.073,-1.016 0.864,-0.505 1.828,-0.984 3.579,-1.865 3.104,-1.556 6.89,-2.197 6.89,-2.197 0.28,-0.126 0.562,-0.131 0.823,-0.058"
     id="path595" />
  <path
     style="fill:#63c99d;fill-opacity:1;fill-rule:nonzero;stroke:none"
     d="m 320.734,62.604 -4.385,-6.468 c -2.829,-0.584 -5.032,1.708 -5.448,3.109 -0.371,1.265 0.057,2.844 1.843,4.244 1.157,0.912 2.505,1.104 4.026,0.787 1.042,0.016 1.672,0 2.167,-0.646 0.047,-0.052 0.104,-0.109 0.161,-0.166 0.527,-0.251 1.068,-0.527 1.636,-0.86"
     id="path596" />
  <path
     style="fill:none;stroke:#231f20;stroke-width:0.565977;stroke-linecap:butt;stroke-linejoin:miter;stroke-miterlimit:4;stroke-dasharray:none;stroke-opacity:1"
     d="m 320.734,62.604 -4.385,-6.468 c -2.829,-0.584 -5.032,1.708 -5.448,3.109 -0.371,1.265 0.057,2.844 1.843,4.244 1.157,0.912 2.505,1.104 4.026,0.787 1.042,0.016 1.672,0 2.167,-0.646 0.047,-0.052 0.104,-0.109 0.161,-0.166 0.527,-0.251 1.068,-0.527 1.636,-0.86 z"
     id="path597" />
  <path
     style="fill:#231f20;fill-opacity:1;fill-rule:nonzero;stroke:none"
     d="m 347.89,44.166 c -1.204,-0.614 -1.942,0.047 -2.078,1.079 -0.042,0.307 -0.396,0.525 -0.411,0.828 -0.037,0.703 1.181,1.953 2.484,1.208 0.093,-0.052 0.891,-0.229 1.468,-0.453 1.131,-0.443 3.177,-1.87 3.625,-4.526 0.214,-1.261 -0.568,-1.157 -0.812,-0.672 -0.756,1.531 -1.125,1.52 -1.474,1.848 -1.172,1.12 -2.802,0.688 -2.802,0.688"
     id="path598" />
  <path
     style="fill:none;stroke:#231f20;stroke-width:0.332927;stroke-linecap:butt;stroke-linejoin:miter;stroke-miterlimit:4;stroke-dasharray:none;stroke-opacity:1"
     d="m 347.89,44.166 c -1.204,-0.614 -1.942,0.047 -2.078,1.079 -0.042,0.307 -0.396,0.525 -0.411,0.828 -0.037,0.703 1.181,1.953 2.484,1.208 0.093,-0.052 0.891,-0.229 1.468,-0.453 1.131,-0.443 3.177,-1.87 3.625,-4.526 0.214,-1.261 -0.568,-1.157 -0.812,-0.672 -0.756,1.531 -1.125,1.52 -1.474,1.848 -1.172,1.12 -2.802,0.688 -2.802,0.688 z"
     id="path599" />
  <path
     style="fill:#231f20;fill-opacity:1;fill-rule:nonzero;stroke:none"
     d="m 296.114,84.609 c -0.13,1.172 0.708,2.229 1.88,2.36 1.172,0.129 2.23,-0.715 2.359,-1.885 0.131,-1.172 -0.713,-2.224 -1.885,-2.355 -1.167,-0.136 -2.224,0.708 -2.354,1.88"
     id="path600" />
  <path
     style="fill:none;stroke:#231f20;stroke-width:1.33171;stroke-linecap:round;stroke-linejoin:round;stroke-miterlimit:4;stroke-dasharray:none;stroke-opacity:1"
     d="m 299.686,134.562 c -5.962,1.484 -7.885,6.031 -3.728,8.995 1.364,0.974 3.848,1.469 5.662,0.812 1.729,-0.624 0.333,-2.146 -1.47,-2.458 -1.489,-0.25 -2.994,0.026 -4.068,0.734 -1.833,1.22 -2.172,2.849 -2.202,4.214 -0.052,2.25 1.978,5.624 6.921,5.766"
     id="path1084" />
</svg>
