<?xml version="1.0" encoding="UTF-8" standalone="no"?>
<!-- Created with Inkscape (http://www.inkscape.org/) -->

<svg
   version="1.1"
   id="svg1"
   width="340.17459"
   height="144.43893"
   viewBox="0 0 340.17458 144.43893"
   sodipodi:docname="cell.svg"
   xmlns:inkscape="http://www.inkscape.org/namespaces/inkscape"
   xmlns:sodipodi="http://sodipodi.sourceforge.net/DTD/sodipodi-0.dtd"
   xmlns="http://www.w3.org/2000/svg"
   xmlns:svg="http://www.w3.org/2000/svg">
  <sodipodi:namedview
     id="namedview1"
     pagecolor="#ffffff"
     bordercolor="#000000"
     borderopacity="0.25"
     inkscape:showpageshadow="2"
     inkscape:pageopacity="0.0"
     inkscape:pagecheckerboard="0"
     inkscape:deskcolor="#d1d1d1">
    <inkscape:page
       x="0"
       y="0"
       inkscape:label="1"
       id="page1"
       width="340.17459"
       height="144.43893"
       margin="0"
       bleed="0" />
  </sodipodi:namedview>
  <defs
     id="defs1" />
  <path
     style="fill:#63c99d;fill-opacity:1;fill-rule:nonzero;stroke:none"
     d="m 50.274776,107.62101 c 2.823,1.355 3.287,1.954 3.891,2.647 3.822,4.338 5.88,2.38 6.629,-0.401 0.891,-3.271 1.272,-4.432 -4.635,-6.594 -1.65,-0.6 -7.656,-3.729004 -7.656,-3.729004 -2,-1.412 -4.704,-1.724 -5.958,-0.989 -1.328,0.776 -0.746,0.572 -1.839,1.504004 -1.047,0.901 -1.755,2.969 -1.12,4.032 0.604,1.016 2.276,1.016 4.677,1.333 1.896,0.244 6.011,2.197 6.011,2.197"
     id="path446" />
  <path
     style="fill:none;stroke:#231f20;stroke-width:0.565977;stroke-linecap:butt;stroke-linejoin:miter;stroke-miterlimit:4;stroke-dasharray:none;stroke-opacity:1"
     d="m 50.274776,107.62101 c 2.823,1.355 3.287,1.954 3.891,2.647 3.822,4.338 5.88,2.38 6.629,-0.401 0.891,-3.271 1.272,-4.432 -4.635,-6.594 -1.65,-0.6 -7.656,-3.729004 -7.656,-3.729004 -2,-1.412 -4.704,-1.724 -5.958,-0.989 -1.328,0.776 -0.746,0.572 -1.839,1.504004 -1.047,0.901 -1.755,2.969 -1.12,4.032 0.604,1.016 2.276,1.016 4.677,1.333 1.896,0.244 6.011,2.197 6.011,2.197 z"
     id="path447" />
  <path
     style="fill:#231f20;fill-opacity:1;fill-rule:nonzero;stroke:none"
     d="m 70.675776,95.856006 c 1.438,1.76 1.947,1.912 2.724,1.349 0.525,-0.37 1.135,-0.532 1.463,-0.74 1.089,-0.692 2.646,-2.328 5.828,-8.082 0.724,-1.303 1.756,-3.136 2.234,-3.844 0.751,-1.131 -1.63,-1.626 -1.937,-1.183 -0.964,1.417 -1.751,2.303 -2.172,2.765 -0.287,0.314 -0.713,0.943 -1.989,2.016 -1.928,1.636 -3.323,2.328 -4.765,3.88 -0.678,0.714 -1.631,0.823 -1.934,1.866 -0.301,1.041 0.548,1.973 0.548,1.973"
     id="path448" />
  <path
     style="fill:none;stroke:#231f20;stroke-width:0.565977;stroke-linecap:butt;stroke-linejoin:miter;stroke-miterlimit:4;stroke-dasharray:none;stroke-opacity:1"
     d="m 70.675776,95.856006 c 1.438,1.76 1.947,1.912 2.724,1.349 0.525,-0.37 1.135,-0.532 1.463,-0.74 1.089,-0.692 2.646,-2.328 5.828,-8.082 0.724,-1.303 1.756,-3.136 2.234,-3.844 0.751,-1.131 -1.63,-1.626 -1.937,-1.183 -0.964,1.417 -1.751,2.303 -2.172,2.765 -0.287,0.314 -0.713,0.943 -1.989,2.016 -1.928,1.636 -3.323,2.328 -4.765,3.88 -0.678,0.714 -1.631,0.823 -1.934,1.866 -0.301,1.041 0.548,1.973 0.548,1.973 z"
     id="path449" />
  <path
     style="fill:#231f20;fill-opacity:1;fill-rule:nonzero;stroke:#231f20;stroke-width:0.565977;stroke-linecap:round;stroke-linejoin:round;stroke-miterlimit:4;stroke-dasharray:none;stroke-opacity:1"
     d="m 71.039776,93.383006 c -1.412,-0.142 -2.494,1.728 -2.776,1.91 -4.161,2.803 -4.385,3.115 -7.396,5.464004 -4.358,3.407 -6.817,6.407 -5.582,9.516 0.848,2.115 2.244,2.963 3.561,2.963 1.459,-0.006 4.281,-1.474 4.521,-4.353 l 1.022,-1.376 c 0.801,-0.843 1.192,-1.266 1.62,-1.646 0.754,-0.661 1.52,-1.421 2.9,-2.802 2.458,-2.452 4.27,-5.838004 4.27,-5.838004 0.215,-0.229 0.303,-0.49 0.319,-0.761"
     id="path450" />
  <path
     style="fill:#63c99d;fill-opacity:1;fill-rule:nonzero;stroke:#231f20;stroke-width:0.565977;stroke-linecap:butt;stroke-linejoin:miter;stroke-miterlimit:4;stroke-dasharray:none;stroke-opacity:1"
     d="m 58.575776,102.75701 c -0.468,0.407 -0.88,0.807 -1.27,1.208 -0.115,0.068 -0.23,0.131 -0.339,0.167 -0.823,0.287 -1.011,0.927 -1.359,2.063 -0.688,1.27 -0.874,2.541 -0.406,3.86 0.765,2.134 2.125,3.041 3.442,3.093 1.464,0.052 4.334,-1.318 4.678,-4.183 z"
     id="path451" />
  <path
     style="fill:#231f20;fill-opacity:1;fill-rule:nonzero;stroke:none"
     d="m 84.982776,83.044006 c 0.202,1.333 -0.667,1.823 -1.683,1.624 -0.307,-0.056 -0.629,0.209 -0.916,0.125 -0.683,-0.186 -1.485,-1.734 -0.36,-2.734 0.079,-0.072 0.5,-0.771 0.891,-1.255 0.781,-0.921 2.786,-2.416 5.448,-2 1.26,0.197 0.912,0.907 0.374,0.984 -1.692,0.229 -1.796,0.584 -2.218,0.813 -1.443,0.755 -1.536,2.443 -1.536,2.443"
     id="path452" />
  <path
     style="fill:none;stroke:#231f20;stroke-width:0.332927;stroke-linecap:butt;stroke-linejoin:miter;stroke-miterlimit:4;stroke-dasharray:none;stroke-opacity:1"
     d="m 84.982776,83.044006 c 0.202,1.333 -0.667,1.823 -1.683,1.624 -0.307,-0.056 -0.629,0.209 -0.916,0.125 -0.683,-0.186 -1.485,-1.734 -0.36,-2.734 0.079,-0.072 0.5,-0.771 0.891,-1.255 0.781,-0.921 2.786,-2.416 5.448,-2 1.26,0.197 0.912,0.907 0.374,0.984 -1.692,0.229 -1.796,0.584 -2.218,0.813 -1.443,0.755 -1.536,2.443 -1.536,2.443 z"
     id="path453" />
  <path
     style="fill:#ffffff;fill-opacity:1;fill-rule:nonzero;stroke:none"
     d="m 38.274776,94.444006 c -0.152,-0.197 0.547,-1.113 0.161,-1.457 -0.396,-0.355 -1.057,0.093 -2.964,-0.464 l -0.02,-0.011 c -1.381,-0.448 -2.766,-0.287 -3.666,0.579 -1.5,1.442 -1.126,4.26 0.822,6.297 1.963,2.041004 4.76,2.520004 6.26,1.083004 1.438,-1.375004 1.156,-4.016004 -0.593,-6.027004"
     id="path454" />
  <path
     style="fill:none;stroke:#231f20;stroke-width:0.565977;stroke-linecap:butt;stroke-linejoin:miter;stroke-miterlimit:4;stroke-dasharray:none;stroke-opacity:1"
     d="m 38.274776,94.444006 c -0.152,-0.197 0.547,-1.113 0.161,-1.457 -0.396,-0.355 -1.057,0.093 -2.964,-0.464 l -0.02,-0.011 c -1.381,-0.448 -2.766,-0.287 -3.666,0.579 -1.5,1.442 -1.126,4.26 0.822,6.297 1.963,2.041004 4.76,2.520004 6.26,1.083004 1.438,-1.375004 1.156,-4.016004 -0.593,-6.027004 z"
     id="path455" />
  <path
     style="fill:#231f20;fill-opacity:1;fill-rule:nonzero;stroke:none"
     d="m 35.779776,82.497006 c 0.536,0.354 1.052,2.234 2.042,3.5 0.666,0.859 1.322,3.52 2.052,4.323 0.666,0.739 0.901,1.135 0.193,2.041 -0.423,0.536 -1.579,1.303 -1.996,1.006 -0.968,-0.694 -1.463,-1.5 -1.823,-2.5 -0.405,-1.151 -1.229,-4.36 -1.333,-4.959 -0.235,-1.505 -0.776,-2.005 -0.88,-2.396 -0.188,-0.739 0.052,-0.995 0.495,-1.219 0.86,-0.437 1.25,0.204 1.25,0.204"
     id="path456" />
  <path
     style="fill:none;stroke:#231f20;stroke-width:0.565977;stroke-linecap:butt;stroke-linejoin:miter;stroke-miterlimit:4;stroke-dasharray:none;stroke-opacity:1"
     d="m 35.779776,82.497006 c 0.536,0.354 1.052,2.234 2.042,3.5 0.666,0.859 1.322,3.52 2.052,4.323 0.666,0.739 0.901,1.135 0.193,2.041 -0.423,0.536 -1.579,1.303 -1.996,1.006 -0.968,-0.694 -1.463,-1.5 -1.823,-2.5 -0.405,-1.151 -1.229,-4.36 -1.333,-4.959 -0.235,-1.505 -0.776,-2.005 -0.88,-2.396 -0.188,-0.739 0.052,-0.995 0.495,-1.219 0.86,-0.437 1.25,0.204 1.25,0.204 z"
     id="path457" />
  <path
     style="fill:#231f20;fill-opacity:1;fill-rule:nonzero;stroke:none"
     d="m 39.399776,90.799006 c 1.239,-0.386 1.479,1.641 1.619,2.156 0.141,0.532 0.724,1.974 1.324,3.037 0.593,1.072 0.885,2.661 2.015,4.692004 0.598,1.068 0.5,2.484 -1.088,3.281 -1.568,0.787 -2.599,0.203 -3.126,-1.202 -0.525,-1.396 -0.426,-2.938004 -0.858,-4.386004 -0.428,-1.448 -1,-2.885 -1.506,-3.994 -0.573,-1.256 -0.396,-2.09 -0.068,-2.438 0.807,-0.886 1.688,-1.146 1.688,-1.146"
     id="path458" />
  <path
     style="fill:none;stroke:#231f20;stroke-width:0.565977;stroke-linecap:butt;stroke-linejoin:miter;stroke-miterlimit:4;stroke-dasharray:none;stroke-opacity:1"
     d="m 39.399776,90.799006 c 1.239,-0.386 1.479,1.641 1.619,2.156 0.141,0.532 0.724,1.974 1.324,3.037 0.593,1.072 0.885,2.661 2.015,4.692004 0.598,1.068 0.5,2.484 -1.088,3.281 -1.568,0.787 -2.599,0.203 -3.126,-1.202 -0.525,-1.396 -0.426,-2.938004 -0.858,-4.386004 -0.428,-1.448 -1,-2.885 -1.506,-3.994 -0.573,-1.256 -0.396,-2.09 -0.068,-2.438 0.807,-0.886 1.688,-1.146 1.688,-1.146 z"
     id="path459" />
  <path
     style="fill:#63c99d;fill-opacity:1;fill-rule:nonzero;stroke:none"
     d="m 312.85177,49.730706 c 0.104,-3.1294 0.469,-3.796 0.854,-4.6294 2.443,-5.24 -0.182,-6.3386 -3.03,-5.9066 -3.35,0.5 -4.568,0.6146 -4.172,6.896 0.114,1.7493 -0.339,8.5053 -0.339,8.5053 -0.489,2.401 0.317,5 1.495,5.859 1.244,0.896 0.812,0.453 2.114,1.073 1.244,0.599 3.422,0.417 4.14,-0.593 0.688,-0.964 0.022,-2.491 -0.661,-4.819 -0.536,-1.8334 -0.401,-6.3853 -0.401,-6.3853"
     id="path460" />
  <path
     style="fill:none;stroke:#231f20;stroke-width:0.565977;stroke-linecap:butt;stroke-linejoin:miter;stroke-miterlimit:4;stroke-dasharray:none;stroke-opacity:1"
     d="m 312.85177,49.730706 c 0.104,-3.1294 0.469,-3.796 0.854,-4.6294 2.443,-5.24 -0.182,-6.3386 -3.03,-5.9066 -3.35,0.5 -4.568,0.6146 -4.172,6.896 0.114,1.7493 -0.339,8.5053 -0.339,8.5053 -0.489,2.401 0.317,5 1.495,5.859 1.244,0.896 0.812,0.453 2.114,1.073 1.244,0.599 3.422,0.417 4.14,-0.593 0.688,-0.964 0.022,-2.491 -0.661,-4.819 -0.536,-1.8334 -0.401,-6.3853 -0.401,-6.3853 z"
     id="path461" />
  <path
     style="fill:#ffffff;fill-opacity:1;fill-rule:nonzero;stroke:none"
     d="m 306.47177,66.757006 c -0.094,0.23 -1.24,0.094 -1.334,0.61 -0.104,0.516 0.615,0.854 1.104,2.781 l 0.011,0.02 c 0.317,1.417 1.161,2.527 2.369,2.86 2.006,0.552 4.235,-1.208 4.991,-3.921 0.749,-2.73 -0.267,-5.382 -2.261,-5.939 -1.916,-0.531 -4.047,1.063 -4.88,3.589"
     id="path462" />
  <path
     style="fill:none;stroke:#231f20;stroke-width:0.565977;stroke-linecap:butt;stroke-linejoin:miter;stroke-miterlimit:4;stroke-dasharray:none;stroke-opacity:1"
     d="m 306.47177,66.757006 c -0.094,0.23 -1.24,0.094 -1.334,0.61 -0.104,0.516 0.615,0.854 1.104,2.781 l 0.011,0.02 c 0.317,1.417 1.161,2.527 2.369,2.86 2.006,0.552 4.235,-1.208 4.991,-3.921 0.749,-2.73 -0.267,-5.382 -2.261,-5.939 -1.916,-0.531 -4.047,1.063 -4.88,3.589 z"
     id="path463" />
  <path
     style="fill:#231f20;fill-opacity:1;fill-rule:nonzero;stroke:none"
     d="m 273.88377,39.585306 c 0.874,-1.0306 1.812,-0.6973 2.328,0.1974 0.161,0.2666 0.573,0.3333 0.708,0.6053 0.297,0.64 -0.344,2.26 -1.834,2.072 -0.098,-0.0107 -0.906,0.1307 -1.525,0.1467 -1.215,0.0253 -3.657,-0.5 -5.089,-2.7814 -0.683,-1.084 0.078,-1.2813 0.494,-0.9333 1.287,1.12 1.615,0.9693 2.068,1.136 1.511,0.584 2.85,-0.4427 2.85,-0.4427"
     id="path464" />
  <path
     style="fill:none;stroke:#231f20;stroke-width:0.332927;stroke-linecap:butt;stroke-linejoin:miter;stroke-miterlimit:4;stroke-dasharray:none;stroke-opacity:1"
     d="m 273.88377,39.585306 c 0.874,-1.0306 1.812,-0.6973 2.328,0.1974 0.161,0.2666 0.573,0.3333 0.708,0.6053 0.297,0.64 -0.344,2.26 -1.834,2.072 -0.098,-0.0107 -0.906,0.1307 -1.525,0.1467 -1.215,0.0253 -3.657,-0.5 -5.089,-2.7814 -0.683,-1.084 0.078,-1.2813 0.494,-0.9333 1.287,1.12 1.615,0.9693 2.068,1.136 1.511,0.584 2.85,-0.4427 2.85,-0.4427 z"
     id="path465" />
  <path
     style="fill:#231f20;fill-opacity:1;fill-rule:nonzero;stroke:none"
     d="m 292.94577,41.929306 c 0.386,-2.2346 0.156,-2.7186 -0.776,-2.9373 -0.63,-0.1573 -1.146,-0.5 -1.516,-0.6093 -1.24,-0.3654 -3.494,-0.464 -9.926,0.916 -1.459,0.3173 -3.511,0.7453 -4.366,0.8493 -1.338,0.1773 -0.15,2.3013 0.386,2.2347 1.698,-0.204 2.885,-0.1934 3.505,-0.1774 0.427,0.0054 1.183,-0.084 2.833,0.1667 2.5,0.3747 3.938,0.9787 6.058,1.0467 0.984,0.036 1.693,0.6826 2.672,0.224 0.989,-0.4534 1.13,-1.7134 1.13,-1.7134"
     id="path466" />
  <path
     style="fill:none;stroke:#231f20;stroke-width:0.565977;stroke-linecap:butt;stroke-linejoin:miter;stroke-miterlimit:4;stroke-dasharray:none;stroke-opacity:1"
     d="m 292.94577,41.929306 c 0.386,-2.2346 0.156,-2.7186 -0.776,-2.9373 -0.63,-0.1573 -1.146,-0.5 -1.516,-0.6093 -1.24,-0.3654 -3.494,-0.464 -9.926,0.916 -1.459,0.3173 -3.511,0.7453 -4.366,0.8493 -1.338,0.1773 -0.15,2.3013 0.386,2.2347 1.698,-0.204 2.885,-0.1934 3.505,-0.1774 0.427,0.0054 1.183,-0.084 2.833,0.1667 2.5,0.3747 3.938,0.9787 6.058,1.0467 0.984,0.036 1.693,0.6826 2.672,0.224 0.989,-0.4534 1.13,-1.7134 1.13,-1.7134 z"
     id="path467" />
  <path
     style="fill:#231f20;fill-opacity:1;fill-rule:nonzero;stroke:#231f20;stroke-width:0.565977;stroke-linecap:round;stroke-linejoin:round;stroke-miterlimit:4;stroke-dasharray:none;stroke-opacity:1"
     d="m 290.84177,43.282706 c 0.828,1.1573 2.943,0.7453 3.271,0.8386 4.843,1.2867 5.224,1.256 8.973,1.98 5.432,1.036 9.314,0.9214 10.839,-2.0573 1.041,-2.0267 0.76,-3.6413 -0.104,-4.6307 -0.969,-1.0933 -3.927,-2.2493 -6.256,-0.536 l -1.708,0.1347 c -1.161,-0.0573 -1.739,-0.0773 -2.307,-0.1453 -0.989,-0.1307 -2.068,-0.2027 -4.016,-0.344 -3.464,-0.24 -7.208,0.6253 -7.208,0.6253 -0.308,-0.0107 -0.573,0.0987 -0.781,0.26"
     id="path468" />
  <path
     style="fill:#63c99d;fill-opacity:1;fill-rule:nonzero;stroke:none"
     d="m 313.88377,39.626706 c -0.923,-1.1347 -3.839,-2.4013 -6.23,-0.7707 l -1.552,7.656 c 3.73,0.516 6.422,0.0467 7.714,-2.2547 1.109,-1.984 0.896,-3.6093 0.068,-4.6306"
     id="path469" />
  <path
     style="fill:none;stroke:#231f20;stroke-width:0.565977;stroke-linecap:butt;stroke-linejoin:miter;stroke-miterlimit:4;stroke-dasharray:none;stroke-opacity:1"
     d="m 313.88377,39.626706 c -0.923,-1.1347 -3.839,-2.4013 -6.23,-0.7707 l -1.552,7.656 c 3.73,0.516 6.422,0.0467 7.714,-2.2547 1.109,-1.984 0.896,-3.6093 0.068,-4.6306 z"
     id="path470" />
  <path
     style="fill:#231f20;fill-opacity:1;fill-rule:nonzero;stroke:none"
     d="m 309.61777,80.929006 c -0.376,-0.521 -0.214,-2.464 -0.704,-3.994 -0.333,-1.032 -0.025,-3.762 -0.437,-4.767 -0.369,-0.921 -0.453,-1.375 0.527,-1.984 0.582,-0.359 1.932,-0.672 2.218,-0.249 0.672,0.978 0.864,1.91 0.848,2.973 -0.014,1.219 -0.348,4.511 -0.462,5.115 -0.298,1.489 0.036,2.15 0,2.552 -0.079,0.76 -0.391,0.917 -0.886,0.974 -0.958,0.11 -1.104,-0.62 -1.104,-0.62"
     id="path471" />
  <path
     style="fill:none;stroke:#231f20;stroke-width:0.565977;stroke-linecap:butt;stroke-linejoin:miter;stroke-miterlimit:4;stroke-dasharray:none;stroke-opacity:1"
     d="m 309.61777,80.929006 c -0.376,-0.521 -0.214,-2.464 -0.704,-3.994 -0.333,-1.032 -0.025,-3.762 -0.437,-4.767 -0.369,-0.921 -0.453,-1.375 0.527,-1.984 0.582,-0.359 1.932,-0.672 2.218,-0.249 0.672,0.978 0.864,1.91 0.848,2.973 -0.014,1.219 -0.348,4.511 -0.462,5.115 -0.298,1.489 0.036,2.15 0,2.552 -0.079,0.76 -0.391,0.917 -0.886,0.974 -0.958,0.11 -1.104,-0.62 -1.104,-0.62 z"
     id="path472" />
  <path
     style="fill:#231f20;fill-opacity:1;fill-rule:nonzero;stroke:none"
     d="m 309.16477,71.075006 c -1.297,-0.068 -0.823,-2.047 -0.776,-2.583 0.047,-0.543 0,-2.1 -0.199,-3.308 -0.186,-1.213 0.09,-2.801 -0.27,-5.099 -0.192,-1.208 0.385,-2.505 2.15,-2.702 1.746,-0.199 2.516,0.708 2.522,2.208 0.01,1.494 -0.615,2.906 -0.708,4.406 -0.095,1.51 -0.058,3.058 0.036,4.276 0.104,1.375 -0.355,2.099 -0.782,2.312 -1.062,0.547 -1.973,0.49 -1.973,0.49"
     id="path473" />
  <path
     style="fill:none;stroke:#231f20;stroke-width:0.565977;stroke-linecap:butt;stroke-linejoin:miter;stroke-miterlimit:4;stroke-dasharray:none;stroke-opacity:1"
     d="m 309.16477,71.075006 c -1.297,-0.068 -0.823,-2.047 -0.776,-2.583 0.047,-0.543 0,-2.1 -0.199,-3.308 -0.186,-1.213 0.09,-2.801 -0.27,-5.099 -0.192,-1.208 0.385,-2.505 2.15,-2.702 1.746,-0.199 2.516,0.708 2.522,2.208 0.01,1.494 -0.615,2.906 -0.708,4.406 -0.095,1.51 -0.058,3.058 0.036,4.276 0.104,1.375 -0.355,2.099 -0.782,2.312 -1.062,0.547 -1.973,0.49 -1.973,0.49 z"
     id="path474" />
  <path
     style="fill:#63c99d;fill-opacity:1;fill-rule:nonzero;stroke:none"
     d="m 6.7697758,95.159006 c -1.642,2.672 -2.2819998,3.066 -3.0319998,3.598 -4.71400003,3.354004 -2.97900003,5.604004 -0.286,6.635004 3.1619998,1.224 4.2759998,1.724 7.036,-3.932 0.766,-1.577004 4.5,-7.224004 4.5,-7.224004 1.61,-1.844 2.198,-4.5 1.599,-5.828 -0.635,-1.401 -0.489,-0.796 -1.307,-1.979 -0.786,-1.136 -2.77,-2.057 -3.89,-1.532 -1.079,0.495 -1.251,2.152 -1.8140002,4.511 -0.437,1.865 -2.806,5.751 -2.806,5.751"
     id="path475" />
  <path
     style="fill:none;stroke:#231f20;stroke-width:0.565977;stroke-linecap:butt;stroke-linejoin:miter;stroke-miterlimit:4;stroke-dasharray:none;stroke-opacity:1"
     d="m 6.7697758,95.159006 c -1.642,2.672 -2.2819998,3.066 -3.0319998,3.598 -4.71400003,3.354004 -2.97900003,5.604004 -0.286,6.635004 3.1619998,1.224 4.2759998,1.724 7.036,-3.932 0.766,-1.577004 4.5,-7.224004 4.5,-7.224004 1.61,-1.844 2.198,-4.5 1.599,-5.828 -0.635,-1.401 -0.489,-0.796 -1.307,-1.979 -0.786,-1.136 -2.77,-2.057 -3.89,-1.532 -1.079,0.495 -1.251,2.152 -1.8140002,4.511 -0.437,1.865 -2.806,5.751 -2.806,5.751 z"
     id="path476" />
  <path
     style="fill:#231f20;fill-opacity:1;fill-rule:nonzero;stroke:none"
     d="m 16.362776,116.66801 c -1.896,1.245 -2.099,1.74 -1.62,2.573 0.313,0.563 0.412,1.177 0.584,1.527 0.577,1.156 2.047,2.874 7.443,6.634 1.218,0.855 2.937,2.068 3.588,2.62 1.042,0.86 1.786,-1.453 1.376,-1.801 -1.308,-1.111 -2.106,-1.98 -2.527,-2.448 -0.281,-0.319 -0.864,-0.808 -1.803,-2.188 -1.426,-2.088 -1.968,-3.547 -3.364,-5.145 -0.64,-0.746 -0.65,-1.704 -1.656,-2.11 -1.005,-0.412 -2.021,0.338 -2.021,0.338"
     id="path477" />
  <path
     style="fill:none;stroke:#231f20;stroke-width:0.565977;stroke-linecap:butt;stroke-linejoin:miter;stroke-miterlimit:4;stroke-dasharray:none;stroke-opacity:1"
     d="m 16.362776,116.66801 c -1.896,1.245 -2.099,1.74 -1.62,2.573 0.313,0.563 0.412,1.177 0.584,1.527 0.577,1.156 2.047,2.874 7.443,6.634 1.218,0.855 2.937,2.068 3.588,2.62 1.042,0.86 1.786,-1.453 1.376,-1.801 -1.308,-1.111 -2.106,-1.98 -2.527,-2.448 -0.281,-0.319 -0.864,-0.808 -1.803,-2.188 -1.426,-2.088 -1.968,-3.547 -3.364,-5.145 -0.64,-0.746 -0.65,-1.704 -1.656,-2.11 -1.005,-0.412 -2.021,0.338 -2.021,0.338 z"
     id="path478" />
  <path
     style="fill:#231f20;fill-opacity:1;fill-rule:nonzero;stroke:#231f20;stroke-width:0.565977;stroke-linecap:round;stroke-linejoin:round;stroke-miterlimit:4;stroke-dasharray:none;stroke-opacity:1"
     d="m 18.789776,117.28801 c 0.281,-1.396 -1.463,-2.662 -1.619,-2.963 -2.355,-4.422 -2.641,-4.682 -4.667,-7.917 -2.9380002,-4.687 -5.6660002,-7.443004 -8.89,-6.541004 -2.188,0.630004 -3.17800003,1.932004 -3.31900003,3.244004 -0.14,1.448 1.03200003,4.406 3.87100003,4.938 l 1.2599998,1.162 c 0.754,0.885 1.136,1.317 1.469,1.781 0.583,0.817 1.26,1.661 2.489,3.176 2.1870002,2.704 5.3640002,4.849 5.3640002,4.849 0.204,0.24 0.459,0.355 0.73,0.396"
     id="path479" />
  <path
     style="fill:#63c99d;fill-opacity:1;fill-rule:nonzero;stroke:none"
     d="m 9.6797758,102.53301 c -0.057,-0.12 -0.104,-0.245 -0.129,-0.354 -0.199,-0.848 -0.823,-1.099 -1.917,-1.567 -1.192,-0.813004 -2.438,-1.131004 -3.7909998,-0.803004 -2.204,0.542004 -3.24500003,1.803004 -3.43300003,3.110004 -0.203,1.442 0.86500003,4.442 3.67700003,5.078 l 6.661,-4.078 c -0.353,-0.506 -0.708,-0.959 -1.0680002,-1.386"
     id="path480" />
  <path
     style="fill:none;stroke:#231f20;stroke-width:0.565977;stroke-linecap:butt;stroke-linejoin:miter;stroke-miterlimit:4;stroke-dasharray:none;stroke-opacity:1"
     d="m 9.6797758,102.53301 c -0.057,-0.12 -0.104,-0.245 -0.129,-0.354 -0.199,-0.848 -0.823,-1.099 -1.917,-1.567 -1.192,-0.813004 -2.438,-1.131004 -3.7909998,-0.803004 -2.204,0.542004 -3.24500003,1.803004 -3.43300003,3.110004 -0.203,1.442 0.86500003,4.442 3.67700003,5.078 l 6.661,-4.078 c -0.353,-0.506 -0.708,-0.959 -1.0680002,-1.386 z"
     id="path481" />
  <path
     style="fill:#231f20;fill-opacity:1;fill-rule:nonzero;stroke:none"
     d="m 27.633776,132.22101 c -1.348,0.061 -1.744,-0.849 -1.448,-1.839 0.094,-0.302 -0.14,-0.646 -0.026,-0.928 0.255,-0.656 1.88,-1.29 2.755,-0.072 0.068,0.083 0.719,0.572 1.156,1.015 0.839,0.871 2.12,3.021 1.428,5.625 -0.328,1.235 -0.995,0.812 -1.016,0.276 -0.057,-1.713 -0.396,-1.849 -0.584,-2.297 -0.599,-1.509 -2.265,-1.78 -2.265,-1.78"
     id="path482" />
  <path
     style="fill:none;stroke:#231f20;stroke-width:0.332927;stroke-linecap:butt;stroke-linejoin:miter;stroke-miterlimit:4;stroke-dasharray:none;stroke-opacity:1"
     d="m 27.633776,132.22101 c -1.348,0.061 -1.744,-0.849 -1.448,-1.839 0.094,-0.302 -0.14,-0.646 -0.026,-0.928 0.255,-0.656 1.88,-1.29 2.755,-0.072 0.068,0.083 0.719,0.572 1.156,1.015 0.839,0.871 2.12,3.021 1.428,5.625 -0.328,1.235 -0.995,0.812 -1.016,0.276 -0.057,-1.713 -0.396,-1.849 -0.584,-2.297 -0.599,-1.509 -2.265,-1.78 -2.265,-1.78 z"
     id="path483" />
  <path
     style="fill:#ffffff;fill-opacity:1;fill-rule:nonzero;stroke:none"
     d="m 21.118776,84.585006 c 0.208,-0.13 1.047,0.662 1.437,0.307 0.386,-0.353 0.01,-1.057 0.766,-2.891 l 0.005,-0.02 c 0.593,-1.328 0.577,-2.724 -0.193,-3.708 -1.282,-1.641 -4.12,-1.562 -6.344,0.167 -2.239,1.739 -3,4.473 -1.728,6.115 1.218,1.566 3.88,1.561 6.057,0.03"
     id="path484" />
  <path
     style="fill:none;stroke:#231f20;stroke-width:0.565977;stroke-linecap:butt;stroke-linejoin:miter;stroke-miterlimit:4;stroke-dasharray:none;stroke-opacity:1"
     d="m 21.118776,84.585006 c 0.208,-0.13 1.047,0.662 1.437,0.307 0.386,-0.353 0.01,-1.057 0.766,-2.891 l 0.005,-0.02 c 0.593,-1.328 0.577,-2.724 -0.193,-3.708 -1.282,-1.641 -4.12,-1.562 -6.344,0.167 -2.239,1.739 -3,4.473 -1.728,6.115 1.218,1.566 3.88,1.561 6.057,0.03 z"
     id="path485" />
  <path
     style="fill:#231f20;fill-opacity:1;fill-rule:nonzero;stroke:none"
     d="m 33.258776,83.340006 c -0.407,0.495 -2.328,0.819 -3.693,1.667 -0.922,0.578 -3.64,0.953 -4.51,1.594 -0.808,0.588 -1.224,0.782 -2.052,-0.016 -0.49,-0.478 -1.13,-1.708 -0.797,-2.088 0.792,-0.896 1.645,-1.308 2.677,-1.557 1.187,-0.287 4.463,-0.772 5.072,-0.813 1.516,-0.078 2.074,-0.568 2.47,-0.626 0.754,-0.113 0.984,0.152 1.166,0.62 0.344,0.896 -0.333,1.219 -0.333,1.219"
     id="path486" />
  <path
     style="fill:none;stroke:#231f20;stroke-width:0.565977;stroke-linecap:butt;stroke-linejoin:miter;stroke-miterlimit:4;stroke-dasharray:none;stroke-opacity:1"
     d="m 33.258776,83.340006 c -0.407,0.495 -2.328,0.819 -3.693,1.667 -0.922,0.578 -3.64,0.953 -4.51,1.594 -0.808,0.588 -1.224,0.782 -2.052,-0.016 -0.49,-0.478 -1.13,-1.708 -0.797,-2.088 0.792,-0.896 1.645,-1.308 2.677,-1.557 1.187,-0.287 4.463,-0.772 5.072,-0.813 1.516,-0.078 2.074,-0.568 2.47,-0.626 0.754,-0.113 0.984,0.152 1.166,0.62 0.344,0.896 -0.333,1.219 -0.333,1.219 z"
     id="path487" />
  <path
     style="fill:#231f20;fill-opacity:1;fill-rule:nonzero;stroke:none"
     d="m 24.627776,86.080006 c 0.256,1.271 -1.785,1.303 -2.312,1.385 -0.541,0.09 -2.036,0.522 -3.156,1.006 -1.13,0.484 -2.74,0.604 -4.874,1.521 -1.126,0.484 -2.527,0.244 -3.152,-1.417 -0.624,-1.646 0.062,-2.61 1.516,-2.99 1.442,-0.38 2.969,-0.12 4.453,-0.401 1.479,-0.276 2.973,-0.692 4.125,-1.083 1.312,-0.437 2.119,-0.177 2.432,0.187 0.802,0.891 0.968,1.792 0.968,1.792"
     id="path488" />
  <path
     style="fill:none;stroke:#231f20;stroke-width:0.565977;stroke-linecap:butt;stroke-linejoin:miter;stroke-miterlimit:4;stroke-dasharray:none;stroke-opacity:1"
     d="m 24.627776,86.080006 c 0.256,1.271 -1.785,1.303 -2.312,1.385 -0.541,0.09 -2.036,0.522 -3.156,1.006 -1.13,0.484 -2.74,0.604 -4.874,1.521 -1.126,0.484 -2.527,0.244 -3.152,-1.417 -0.624,-1.646 0.062,-2.61 1.516,-2.99 1.442,-0.38 2.969,-0.12 4.453,-0.401 1.479,-0.276 2.973,-0.692 4.125,-1.083 1.312,-0.437 2.119,-0.177 2.432,0.187 0.802,0.891 0.968,1.792 0.968,1.792 z"
     id="path489" />
  <path
     style="fill:#ffffff;fill-opacity:1;fill-rule:nonzero;stroke:none"
     d="m 34.342776,82.444006 c -0.688,0 -1.245,0.553 -1.245,1.24 v 59.141004 c 0,0.687 0.557,1.239 1.245,1.239 0.681,0 1.239,-0.552 1.239,-1.239 V 83.684006 c 0,-0.687 -0.558,-1.24 -1.239,-1.24"
     id="path490" />
  <path
     style="fill:none;stroke:#231f20;stroke-width:0.665856;stroke-linecap:butt;stroke-linejoin:miter;stroke-miterlimit:4;stroke-dasharray:none;stroke-opacity:1"
     d="m 34.342776,82.444006 c -0.688,0 -1.245,0.553 -1.245,1.24 v 59.141004 c 0,0.687 0.557,1.239 1.245,1.239 0.681,0 1.239,-0.552 1.239,-1.239 V 83.684006 c 0,-0.687 -0.558,-1.24 -1.239,-1.24 z"
     id="path492" />
  <path
     style="fill:#63c99d;fill-opacity:1;fill-rule:nonzero;stroke:none"
     d="m 212.35177,69.408006 c 1.292,2.855 1.266,3.604 1.286,4.521 0.147,5.787 2.98,5.61 5.339,3.954 2.781,-1.938 3.817,-2.584 0.677,-8.032 -0.874,-1.52 -3.474,-7.776 -3.474,-7.776 -0.624,-2.364 -2.5,-4.339 -3.938,-4.583 -1.509,-0.256 -0.932,-0.043 -2.369,-0.027 -1.38,0.022 -3.255,1.151 -3.442,2.37 -0.194,1.166 1.082,2.245 2.729,4.021 1.292,1.417 3.192,5.552 3.192,5.552"
     id="path494" />
  <path
     style="fill:none;stroke:#231f20;stroke-width:0.565977;stroke-linecap:butt;stroke-linejoin:miter;stroke-miterlimit:4;stroke-dasharray:none;stroke-opacity:1"
     d="m 212.35177,69.408006 c 1.292,2.855 1.266,3.604 1.286,4.521 0.147,5.787 2.98,5.61 5.339,3.954 2.781,-1.938 3.817,-2.584 0.677,-8.032 -0.874,-1.52 -3.474,-7.776 -3.474,-7.776 -0.624,-2.364 -2.5,-4.339 -3.938,-4.583 -1.509,-0.256 -0.932,-0.043 -2.369,-0.027 -1.38,0.022 -3.255,1.151 -3.442,2.37 -0.194,1.166 1.082,2.245 2.729,4.021 1.292,1.417 3.192,5.552 3.192,5.552 z"
     id="path495" />
  <path
     style="fill:#231f20;fill-opacity:1;fill-rule:nonzero;stroke:none"
     d="m 221.38377,58.517006 c 2.109,0.844 2.629,0.719 3.03,-0.145 0.282,-0.579 0.735,-1.011 0.918,-1.36 0.614,-1.135 1.181,-3.3174 1.166,-9.9013 -0.005,-1.484 0.006,-3.588 0.083,-4.4374 0.109,-1.348 -2.213,-0.6293 -2.265,-0.088 -0.156,1.7027 -0.412,2.8587 -0.552,3.4694 -0.099,0.416 -0.167,1.1706 -0.76,2.7333 -0.891,2.3653 -1.776,3.6466 -2.282,5.704 -0.245,0.948 -1.026,1.509 -0.781,2.567 0.239,1.062 1.443,1.458 1.443,1.458"
     id="path496" />
  <path
     style="fill:none;stroke:#231f20;stroke-width:0.565977;stroke-linecap:butt;stroke-linejoin:miter;stroke-miterlimit:4;stroke-dasharray:none;stroke-opacity:1"
     d="m 221.38377,58.517006 c 2.109,0.844 2.629,0.719 3.03,-0.145 0.282,-0.579 0.735,-1.011 0.918,-1.36 0.614,-1.135 1.181,-3.3174 1.166,-9.9013 -0.005,-1.484 0.006,-3.588 0.083,-4.4374 0.109,-1.348 -2.213,-0.6293 -2.265,-0.088 -0.156,1.7027 -0.412,2.8587 -0.552,3.4694 -0.099,0.416 -0.167,1.1706 -0.76,2.7333 -0.891,2.3653 -1.776,3.6466 -2.282,5.704 -0.245,0.948 -1.026,1.509 -0.781,2.567 0.239,1.062 1.443,1.458 1.443,1.458 z"
     id="path497" />
  <path
     style="fill:#231f20;fill-opacity:1;fill-rule:nonzero;stroke:#231f20;stroke-width:0.565977;stroke-linecap:round;stroke-linejoin:round;stroke-miterlimit:4;stroke-dasharray:none;stroke-opacity:1"
     d="m 220.49277,56.179006 c -1.303,0.568 -1.333,2.718 -1.495,3.021 -2.265,4.468 -2.318,4.855 -3.808,8.369 -2.156,5.095 -2.844,8.912 -0.254,11.032 1.77,1.432 3.406,1.495 4.557,0.859 1.276,-0.719 3.02,-3.375 1.828,-6.005 l 0.229,-1.698 c 0.292,-1.125 0.427,-1.688 0.615,-2.224 0.339,-0.948 0.64,-1.984 1.172,-3.865 0.957,-3.337 0.895,-7.176 0.895,-7.176 0.073,-0.297 0.021,-0.573 -0.094,-0.819"
     id="path498" />
  <path
     style="fill:#63c99d;fill-opacity:1;fill-rule:nonzero;stroke:none"
     d="m 221.32077,73.549006 -7.161,-3.114 c -1.287,3.536 -1.391,6.27 0.593,8.014 1.713,1.496 3.339,1.62 4.521,1.027 1.296,-0.661 3.14,-3.255 2.047,-5.927"
     id="path499" />
  <path
     style="fill:none;stroke:#231f20;stroke-width:0.565977;stroke-linecap:butt;stroke-linejoin:miter;stroke-miterlimit:4;stroke-dasharray:none;stroke-opacity:1"
     d="m 221.32077,73.549006 -7.161,-3.114 c -1.287,3.536 -1.391,6.27 0.593,8.014 1.713,1.496 3.339,1.62 4.521,1.027 1.296,-0.661 3.14,-3.255 2.047,-5.927 z"
     id="path500" />
  <path
     style="fill:#231f20;fill-opacity:1;fill-rule:nonzero;stroke:none"
     d="m 227.64877,40.366706 c 0.823,1.0733 0.307,1.916 -0.677,2.24 -0.296,0.0986 -0.448,0.484 -0.74,0.5573 -0.687,0.1613 -2.14,-0.7973 -1.646,-2.2187 0.032,-0.1 0.063,-0.9173 0.172,-1.5266 0.235,-1.188 1.255,-3.4693 3.782,-4.4013 1.202,-0.4427 1.24,0.3493 0.812,0.672 -1.37,1.032 -1.286,1.3906 -1.542,1.7973 -0.896,1.364 -0.161,2.88 -0.161,2.88"
     id="path501" />
  <path
     style="fill:none;stroke:#231f20;stroke-width:0.332927;stroke-linecap:butt;stroke-linejoin:miter;stroke-miterlimit:4;stroke-dasharray:none;stroke-opacity:1"
     d="m 227.64877,40.366706 c 0.823,1.0733 0.307,1.916 -0.677,2.24 -0.296,0.0986 -0.448,0.484 -0.74,0.5573 -0.687,0.1613 -2.14,-0.7973 -1.646,-2.2187 0.032,-0.1 0.063,-0.9173 0.172,-1.5266 0.235,-1.188 1.255,-3.4693 3.782,-4.4013 1.202,-0.4427 1.24,0.3493 0.812,0.672 -1.37,1.032 -1.286,1.3906 -1.542,1.7973 -0.896,1.364 -0.161,2.88 -0.161,2.88 z"
     id="path502" />
  <path
     style="fill:#ffffff;fill-opacity:1;fill-rule:nonzero;stroke:none"
     d="m 210.62177,51.814606 c -0.009,-0.2453 1.095,-0.5786 0.98,-1.0893 -0.114,-0.5146 -0.906,-0.5413 -2.125,-2.1093 l -0.011,-0.0147 c -0.858,-1.172 -2.072,-1.8546 -3.311,-1.6826 -2.058,0.292 -3.407,2.792 -3.022,5.5826 0.396,2.8077 2.38,4.8337 4.437,4.5477 1.97,-0.272 3.292,-2.5837 3.052,-5.2344"
     id="path503" />
  <path
     style="fill:none;stroke:#231f20;stroke-width:0.565977;stroke-linecap:butt;stroke-linejoin:miter;stroke-miterlimit:4;stroke-dasharray:none;stroke-opacity:1"
     d="m 210.62177,51.814606 c -0.009,-0.2453 1.095,-0.5786 0.98,-1.0893 -0.114,-0.5146 -0.906,-0.5413 -2.125,-2.1093 l -0.011,-0.0147 c -0.858,-1.172 -2.072,-1.8546 -3.311,-1.6826 -2.058,0.292 -3.407,2.792 -3.022,5.5826 0.396,2.8077 2.38,4.8337 4.437,4.5477 1.97,-0.272 3.292,-2.5837 3.052,-5.2344 z"
     id="path504" />
  <path
     style="fill:#231f20;fill-opacity:1;fill-rule:nonzero;stroke:none"
     d="m 209.35177,81.481006 c -0.37,-0.526 -0.187,-2.464 -0.651,-4 -0.323,-1.041 0.016,-3.765 -0.375,-4.77 -0.365,-0.928 -0.442,-1.386 0.547,-1.98 0.583,-0.348 1.943,-0.651 2.224,-0.23 0.656,0.996 0.833,1.928 0.807,2.991 -0.031,1.219 -0.406,4.509 -0.526,5.104 -0.317,1.489 0.011,2.156 -0.032,2.552 -0.082,0.76 -0.4,0.916 -0.9,0.968 -0.953,0.1 -1.094,-0.635 -1.094,-0.635"
     id="path505" />
  <path
     style="fill:none;stroke:#231f20;stroke-width:0.565977;stroke-linecap:butt;stroke-linejoin:miter;stroke-miterlimit:4;stroke-dasharray:none;stroke-opacity:1"
     d="m 209.35177,81.481006 c -0.37,-0.526 -0.187,-2.464 -0.651,-4 -0.323,-1.041 0.016,-3.765 -0.375,-4.77 -0.365,-0.928 -0.442,-1.386 0.547,-1.98 0.583,-0.348 1.943,-0.651 2.224,-0.23 0.656,0.996 0.833,1.928 0.807,2.991 -0.031,1.219 -0.406,4.509 -0.526,5.104 -0.317,1.489 0.011,2.156 -0.032,2.552 -0.082,0.76 -0.4,0.916 -0.9,0.968 -0.953,0.1 -1.094,-0.635 -1.094,-0.635 z"
     id="path506" />
  <path
     style="fill:#231f20;fill-opacity:1;fill-rule:nonzero;stroke:none"
     d="m 208.94077,72.429006 c -1.297,-0.084 -0.797,-2.057 -0.745,-2.589 0.057,-0.547 0.026,-2.099 -0.156,-3.307 -0.172,-1.218 0.125,-2.808 -0.208,-5.109 -0.178,-1.208 0.416,-2.5 2.186,-2.672 1.746,-0.177 2.5,0.74 2.495,2.235 -0.009,1.494 -0.651,2.901 -0.765,4.405 -0.12,1.5 -0.099,3.052 -0.02,4.267 0.088,1.38 -0.376,2.093 -0.808,2.301 -1.074,0.541 -1.979,0.469 -1.979,0.469"
     id="path507" />
  <path
     style="fill:none;stroke:#231f20;stroke-width:0.565977;stroke-linecap:butt;stroke-linejoin:miter;stroke-miterlimit:4;stroke-dasharray:none;stroke-opacity:1"
     d="m 208.94077,72.429006 c -1.297,-0.084 -0.797,-2.057 -0.745,-2.589 0.057,-0.547 0.026,-2.099 -0.156,-3.307 -0.172,-1.218 0.125,-2.808 -0.208,-5.109 -0.178,-1.208 0.416,-2.5 2.186,-2.672 1.746,-0.177 2.5,0.74 2.495,2.235 -0.009,1.494 -0.651,2.901 -0.765,4.405 -0.12,1.5 -0.099,3.052 -0.02,4.267 0.088,1.38 -0.376,2.093 -0.808,2.301 -1.074,0.541 -1.979,0.469 -1.979,0.469 z"
     id="path508" />
  <path
     style="fill:#63c99d;fill-opacity:1;fill-rule:nonzero;stroke:none"
     d="m 126.67977,105.17901 c 3.131,0.177 3.781,0.552 4.609,0.958 5.183,2.563 6.344,-0.036 5.975,-2.89 -0.421,-3.364004 -0.516,-4.583004 -6.797,-4.328004 -1.76,0.073 -8.5,-0.531 -8.5,-0.531 -2.391,-0.548 -5.011,0.197 -5.891,1.359 -0.927,1.224004 -0.468,0.808004 -1.12,2.088004 -0.624,1.229 -0.495,3.417 0.496,4.152 0.952,0.713 2.495,0.077 4.833,-0.552 1.848,-0.49 6.395,-0.256 6.395,-0.256"
     id="path509" />
  <path
     style="fill:none;stroke:#231f20;stroke-width:0.565977;stroke-linecap:butt;stroke-linejoin:miter;stroke-miterlimit:4;stroke-dasharray:none;stroke-opacity:1"
     d="m 126.67977,105.17901 c 3.131,0.177 3.781,0.552 4.609,0.958 5.183,2.563 6.344,-0.036 5.975,-2.89 -0.421,-3.364004 -0.516,-4.583004 -6.797,-4.328004 -1.76,0.073 -8.5,-0.531 -8.5,-0.531 -2.391,-0.548 -5.011,0.197 -5.891,1.359 -0.927,1.224004 -0.468,0.808004 -1.12,2.088004 -0.624,1.229 -0.495,3.417 0.496,4.152 0.952,0.713 2.495,0.077 4.833,-0.552 1.848,-0.49 6.395,-0.256 6.395,-0.256 z"
     id="path510" />
  <path
     style="fill:#231f20;fill-opacity:1;fill-rule:nonzero;stroke:none"
     d="m 119.13877,94.001006 c 1.448,-1.744 1.494,-2.276 0.797,-2.926 -0.469,-0.448 -0.74,-1.011 -1.011,-1.292 -0.89,-0.938 -2.797,-2.14 -9.062,-4.156 -1.416,-0.454 -3.416,-1.115 -4.198,-1.443 -1.256,-0.52 -1.286,1.912 -0.786,2.125 1.577,0.672 2.593,1.271 3.134,1.599 0.366,0.219 1.058,0.511 2.366,1.557 1.973,1.579 2.921,2.814 4.724,3.927 0.833,0.527 1.125,1.439 2.208,1.532 1.084,0.099 1.828,-0.923 1.828,-0.923"
     id="path511" />
  <path
     style="fill:none;stroke:#231f20;stroke-width:0.565977;stroke-linecap:butt;stroke-linejoin:miter;stroke-miterlimit:4;stroke-dasharray:none;stroke-opacity:1"
     d="m 119.13877,94.001006 c 1.448,-1.744 1.494,-2.276 0.797,-2.926 -0.469,-0.448 -0.74,-1.011 -1.011,-1.292 -0.89,-0.938 -2.797,-2.14 -9.062,-4.156 -1.416,-0.454 -3.416,-1.115 -4.198,-1.443 -1.256,-0.52 -1.286,1.912 -0.786,2.125 1.577,0.672 2.593,1.271 3.134,1.599 0.366,0.219 1.058,0.511 2.366,1.557 1.973,1.579 2.921,2.814 4.724,3.927 0.833,0.527 1.125,1.439 2.208,1.532 1.084,0.099 1.828,-0.923 1.828,-0.923 z"
     id="path512" />
  <path
     style="fill:#231f20;fill-opacity:1;fill-rule:nonzero;stroke:#231f20;stroke-width:0.565977;stroke-linecap:round;stroke-linejoin:round;stroke-miterlimit:4;stroke-dasharray:none;stroke-opacity:1"
     d="m 116.63877,94.127006 c 0.141,1.417 2.182,2.114 2.417,2.354 3.557,3.536004 3.9,3.698004 6.791,6.198004 4.188,3.614 7.605,5.448 10.417,3.636 1.912,-1.24 2.473,-2.782 2.219,-4.074 -0.287,-1.426 -2.282,-3.910004 -5.151,-3.588004 l -1.543,-0.734 c -0.984,-0.626 -1.473,-0.927 -1.926,-1.271 -0.802,-0.609 -1.692,-1.219 -3.318,-2.303 -2.88,-1.937 -6.552,-3.062 -6.552,-3.062 -0.265,-0.162 -0.541,-0.198 -0.808,-0.162"
     id="path513" />
  <path
     style="fill:#63c99d;fill-opacity:1;fill-rule:nonzero;stroke:none"
     d="m 138.43077,102.46001 c -0.23,-1.443 -2.131,-3.995004 -5.006,-3.776004 l -5.172,5.855004 c 2.975,2.317 5.542,3.254 7.814,1.901 1.942,-1.167 2.566,-2.672 2.364,-3.98"
     id="path514" />
  <path
     style="fill:none;stroke:#231f20;stroke-width:0.565977;stroke-linecap:butt;stroke-linejoin:miter;stroke-miterlimit:4;stroke-dasharray:none;stroke-opacity:1"
     d="m 138.43077,102.46001 c -0.23,-1.443 -2.131,-3.995004 -5.006,-3.776004 l -5.172,5.855004 c 2.975,2.317 5.542,3.254 7.814,1.901 1.942,-1.167 2.566,-2.672 2.364,-3.98 z"
     id="path515" />
  <path
     style="fill:#231f20;fill-opacity:1;fill-rule:nonzero;stroke:none"
     d="m 103.79977,82.455006 c 1.267,-0.454 1.912,0.302 1.923,1.333 -0.006,0.313 0.322,0.573 0.301,0.876 -0.063,0.708 -1.421,1.791 -2.62,0.885 -0.083,-0.068 -0.853,-0.344 -1.405,-0.636 -1.052,-0.582 -2.911996,-2.265 -3.015996,-4.953 -0.052,-1.276 0.713,-1.072 0.89,-0.563 0.557996,1.62 0.921996,1.647 1.234996,2.022 1.015,1.265 2.692,1.036 2.692,1.036"
     id="path516" />
  <path
     style="fill:none;stroke:#231f20;stroke-width:0.332927;stroke-linecap:butt;stroke-linejoin:miter;stroke-miterlimit:4;stroke-dasharray:none;stroke-opacity:1"
     d="m 103.79977,82.455006 c 1.267,-0.454 1.912,0.302 1.923,1.333 -0.006,0.313 0.322,0.573 0.301,0.876 -0.063,0.708 -1.421,1.791 -2.62,0.885 -0.083,-0.068 -0.853,-0.344 -1.405,-0.636 -1.052,-0.582 -2.911996,-2.265 -3.015996,-4.953 -0.052,-1.276 0.713,-1.072 0.89,-0.563 0.557996,1.62 0.921996,1.647 1.234996,2.022 1.015,1.265 2.692,1.036 2.692,1.036 z"
     id="path517" />
  <path
     style="fill:#ffffff;fill-opacity:1;fill-rule:nonzero;stroke:none"
     d="m 110.49277,97.820006 c -0.193,-0.152 0.25,-1.219 -0.213,-1.453 -0.475,-0.24 -1,0.358 -2.985,0.297 h -0.02 c -1.448,-0.084 -2.751,0.416 -3.407,1.484 -1.079,1.771 -0.011,4.407004 2.385,5.880004 2.418,1.484 5.246,1.24 6.334,-0.527 1.046,-1.692 0.104,-4.181004 -2.094,-5.681004"
     id="path518" />
  <path
     style="fill:none;stroke:#231f20;stroke-width:0.565977;stroke-linecap:butt;stroke-linejoin:miter;stroke-miterlimit:4;stroke-dasharray:none;stroke-opacity:1"
     d="m 110.49277,97.820006 c -0.193,-0.152 0.25,-1.219 -0.213,-1.453 -0.475,-0.24 -1,0.358 -2.985,0.297 h -0.02 c -1.448,-0.084 -2.751,0.416 -3.407,1.484 -1.079,1.771 -0.011,4.407004 2.385,5.880004 2.418,1.484 5.246,1.24 6.334,-0.527 1.046,-1.692 0.104,-4.181004 -2.094,-5.681004 z"
     id="path519" />
  <path
     style="fill:#231f20;fill-opacity:1;fill-rule:nonzero;stroke:none"
     d="m 115.22277,82.673006 c 0.437,0.47 0.505,2.418 1.166,3.886 0.454,0.99 0.463,3.729 0.984,4.682 0.479,0.875 0.615,1.318 -0.292,2.027 -0.53,0.427 -1.838,0.9 -2.172,0.515 -0.781,-0.9 -1.072,-1.802 -1.186,-2.859 -0.126,-1.213 -0.178,-4.521 -0.136,-5.131 0.125,-1.514 -0.287,-2.134 -0.292,-2.536 -0.015,-0.765 0.276,-0.953 0.766,-1.073 0.932,-0.219 1.162,0.489 1.162,0.489"
     id="path520" />
  <path
     style="fill:none;stroke:#231f20;stroke-width:0.565977;stroke-linecap:butt;stroke-linejoin:miter;stroke-miterlimit:4;stroke-dasharray:none;stroke-opacity:1"
     d="m 115.22277,82.673006 c 0.437,0.47 0.505,2.418 1.166,3.886 0.454,0.99 0.463,3.729 0.984,4.682 0.479,0.875 0.615,1.318 -0.292,2.027 -0.53,0.427 -1.838,0.9 -2.172,0.515 -0.781,-0.9 -1.072,-1.802 -1.186,-2.859 -0.126,-1.213 -0.178,-4.521 -0.136,-5.131 0.125,-1.514 -0.287,-2.134 -0.292,-2.536 -0.015,-0.765 0.276,-0.953 0.766,-1.073 0.932,-0.219 1.162,0.489 1.162,0.489 z"
     id="path521" />
  <path
     style="fill:#231f20;fill-opacity:1;fill-rule:nonzero;stroke:none"
     d="m 116.79977,91.596006 c 1.297,-0.084 1.057,1.937 1.073,2.468 0.016,0.552 0.24,2.095 0.579,3.267 0.328,1.181 0.233,2.796004 0.859,5.036004 0.333,1.177 -0.088,2.53 -1.823,2.932 -1.708,0.401 -2.579,-0.411 -2.76,-1.902 -0.183,-1.473 0.271,-2.953 0.192,-4.457004 -0.077,-1.505 -0.297,-3.043 -0.531,-4.235 -0.261,-1.36 0.104,-2.13 0.51,-2.39 0.99,-0.672 1.901,-0.719 1.901,-0.719"
     id="path522" />
  <path
     style="fill:none;stroke:#231f20;stroke-width:0.565977;stroke-linecap:butt;stroke-linejoin:miter;stroke-miterlimit:4;stroke-dasharray:none;stroke-opacity:1"
     d="m 116.79977,91.596006 c 1.297,-0.084 1.057,1.937 1.073,2.468 0.016,0.552 0.24,2.095 0.579,3.267 0.328,1.181 0.233,2.796004 0.859,5.036004 0.333,1.177 -0.088,2.53 -1.823,2.932 -1.708,0.401 -2.579,-0.411 -2.76,-1.902 -0.183,-1.473 0.271,-2.953 0.192,-4.457004 -0.077,-1.505 -0.297,-3.043 -0.531,-4.235 -0.261,-1.36 0.104,-2.13 0.51,-2.39 0.99,-0.672 1.901,-0.719 1.901,-0.719 z"
     id="path523" />
  <path
     style="fill:#ffffff;fill-opacity:1;fill-rule:nonzero;stroke:none"
     d="m 114.09677,82.487006 c -0.688,0 -1.245,0.552 -1.245,1.234 v 59.140004 c 0,0.688 0.557,1.245 1.245,1.245 0.683,0 1.235,-0.557 1.235,-1.245 V 83.721006 c 0,-0.682 -0.552,-1.234 -1.235,-1.234"
     id="path524" />
  <path
     style="fill:none;stroke:#231f20;stroke-width:0.665856;stroke-linecap:butt;stroke-linejoin:miter;stroke-miterlimit:4;stroke-dasharray:none;stroke-opacity:1"
     d="m 114.09677,82.487006 c -0.688,0 -1.245,0.552 -1.245,1.234 v 59.140004 c 0,0.688 0.557,1.245 1.245,1.245 0.683,0 1.235,-0.557 1.235,-1.245 V 83.721006 c 0,-0.682 -0.552,-1.234 -1.235,-1.234 z"
     id="path526" />
  <path
     style="fill:#63c99d;fill-opacity:1;fill-rule:nonzero;stroke:none"
     d="m 164.88377,108.00101 c 2.323,2.106 2.599,2.808 2.984,3.641 2.427,5.25 4.959,3.959 6.469,1.5 1.786,-2.885 2.474,-3.885 -2.573,-7.635 -1.412,-1.047 -6.281,-5.750004 -6.281,-5.750004 -1.516,-1.922 -4.022,-2.989 -5.432,-2.641 -1.49,0.371 -0.875,0.333 -2.188,0.923 -1.26,0.562 -2.531,2.349004 -2.219,3.541004 0.292,1.151 1.891,1.625 4.104,2.609 1.751,0.776 5.136,3.812 5.136,3.812"
     id="path528" />
  <path
     style="fill:none;stroke:#231f20;stroke-width:0.565977;stroke-linecap:butt;stroke-linejoin:miter;stroke-miterlimit:4;stroke-dasharray:none;stroke-opacity:1"
     d="m 164.88377,108.00101 c 2.323,2.106 2.599,2.808 2.984,3.641 2.427,5.25 4.959,3.959 6.469,1.5 1.786,-2.885 2.474,-3.885 -2.573,-7.635 -1.412,-1.047 -6.281,-5.750004 -6.281,-5.750004 -1.516,-1.922 -4.022,-2.989 -5.432,-2.641 -1.49,0.371 -0.875,0.333 -2.188,0.923 -1.26,0.562 -2.531,2.349004 -2.219,3.541004 0.292,1.151 1.891,1.625 4.104,2.609 1.751,0.776 5.136,3.812 5.136,3.812 z"
     id="path529" />
  <path
     style="fill:#231f20;fill-opacity:1;fill-rule:nonzero;stroke:none"
     d="m 166.03977,94.569006 c 2.224,-0.448 2.588,-0.833 2.453,-1.781 -0.078,-0.64 0.063,-1.244 0.026,-1.635 -0.104,-1.292 -0.828,-3.428 -4.443,-8.928 -0.817,-1.244 -1.957,-3.009 -2.359,-3.76 -0.646,-1.192 -2.198,0.683 -1.948,1.162 0.807,1.516 1.219,2.62 1.438,3.208 0.145,0.401 0.505,1.068 0.864,2.704 0.548,2.462 0.505,4.025 1.209,6.02 0.317,0.933 -0.027,1.829 0.755,2.578 0.781,0.755 2.005,0.432 2.005,0.432"
     id="path530" />
  <path
     style="fill:none;stroke:#231f20;stroke-width:0.565977;stroke-linecap:butt;stroke-linejoin:miter;stroke-miterlimit:4;stroke-dasharray:none;stroke-opacity:1"
     d="m 166.03977,94.569006 c 2.224,-0.448 2.588,-0.833 2.453,-1.781 -0.078,-0.64 0.063,-1.244 0.026,-1.635 -0.104,-1.292 -0.828,-3.428 -4.443,-8.928 -0.817,-1.244 -1.957,-3.009 -2.359,-3.76 -0.646,-1.192 -2.198,0.683 -1.948,1.162 0.807,1.516 1.219,2.62 1.438,3.208 0.145,0.401 0.505,1.068 0.864,2.704 0.548,2.462 0.505,4.025 1.209,6.02 0.317,0.933 -0.027,1.829 0.755,2.578 0.781,0.755 2.005,0.432 2.005,0.432 z"
     id="path531" />
  <path
     style="fill:#231f20;fill-opacity:1;fill-rule:nonzero;stroke:#231f20;stroke-width:0.565977;stroke-linecap:round;stroke-linejoin:round;stroke-miterlimit:4;stroke-dasharray:none;stroke-opacity:1"
     d="m 164.01277,93.096006 c -0.776,1.192 0.371,3.015 0.402,3.348 0.546,4.985004 0.713,5.329004 1.39,9.089004 0.984,5.443 2.495,9.016 5.823,9.369 2.267,0.235 3.672,-0.609 4.287,-1.776 0.672,-1.292 0.682,-4.473 -1.755,-6.025 l -0.74,-1.542 c -0.369,-1.099 -0.563,-1.64 -0.703,-2.198 -0.234,-0.973 -0.546,-2.01 -1.13,-3.874004 -1.026,-3.319 -3.178,-6.495 -3.178,-6.495 -0.104,-0.297 -0.296,-0.5 -0.525,-0.636"
     id="path532" />
  <path
     style="fill:#63c99d;fill-opacity:1;fill-rule:nonzero;stroke:none"
     d="m 174.21677,107.18401 -7.708,1.313 c 0.859,3.667 2.271,6.009 4.886,6.38 2.249,0.312 3.681,-0.464 4.348,-1.609 0.724,-1.267 0.844,-4.448 -1.526,-6.084"
     id="path533" />
  <path
     style="fill:none;stroke:#231f20;stroke-width:0.565977;stroke-linecap:butt;stroke-linejoin:miter;stroke-miterlimit:4;stroke-dasharray:none;stroke-opacity:1"
     d="m 174.21677,107.18401 -7.708,1.313 c 0.859,3.667 2.271,6.009 4.886,6.38 2.249,0.312 3.681,-0.464 4.348,-1.609 0.724,-1.267 0.844,-4.448 -1.526,-6.084 z"
     id="path534" />
  <path
     style="fill:#231f20;fill-opacity:1;fill-rule:nonzero;stroke:none"
     d="m 161.35177,75.949006 c 1.271,0.443 1.303,1.434 0.657,2.246 -0.198,0.24 -0.11,0.645 -0.313,0.869 -0.489,0.516 -2.229,0.5 -2.593,-0.953 -0.027,-0.104 -0.448,-0.802 -0.694,-1.38 -0.453,-1.115 -0.844,-3.588 0.762,-5.75 0.765,-1.026 1.229,-0.385 1.046,0.12 -0.584,1.615 -0.313,1.864 -0.308,2.348 -0.005,1.631 1.443,2.5 1.443,2.5"
     id="path535" />
  <path
     style="fill:none;stroke:#231f20;stroke-width:0.332927;stroke-linecap:butt;stroke-linejoin:miter;stroke-miterlimit:4;stroke-dasharray:none;stroke-opacity:1"
     d="m 161.35177,75.949006 c 1.271,0.443 1.303,1.434 0.657,2.246 -0.198,0.24 -0.11,0.645 -0.313,0.869 -0.489,0.516 -2.229,0.5 -2.593,-0.953 -0.027,-0.104 -0.448,-0.802 -0.694,-1.38 -0.453,-1.115 -0.844,-3.588 0.762,-5.75 0.765,-1.026 1.229,-0.385 1.046,0.12 -0.584,1.615 -0.313,1.864 -0.308,2.348 -0.005,1.631 1.443,2.5 1.443,2.5 z"
     id="path536" />
  <path
     style="fill:#ffffff;fill-opacity:1;fill-rule:nonzero;stroke:none"
     d="m 156.91477,92.111006 c -0.058,-0.244 0.953,-0.791 0.745,-1.271 -0.219,-0.479 -1.005,-0.343 -2.511,-1.64 l -0.016,-0.011 c -1.072,-0.978 -2.4,-1.401 -3.582,-0.984 -1.954,0.703 -2.776,3.422 -1.839,6.078 0.953,2.672 3.307,4.256 5.265,3.562 1.87,-0.661 2.699,-3.186 1.938,-5.734"
     id="path537" />
  <path
     style="fill:none;stroke:#231f20;stroke-width:0.565977;stroke-linecap:butt;stroke-linejoin:miter;stroke-miterlimit:4;stroke-dasharray:none;stroke-opacity:1"
     d="m 156.91477,92.111006 c -0.058,-0.244 0.953,-0.791 0.745,-1.271 -0.219,-0.479 -1.005,-0.343 -2.511,-1.64 l -0.016,-0.011 c -1.072,-0.978 -2.4,-1.401 -3.582,-0.984 -1.954,0.703 -2.776,3.422 -1.839,6.078 0.953,2.672 3.307,4.256 5.265,3.562 1.87,-0.661 2.699,-3.186 1.938,-5.734 z"
     id="path538" />
  <path
     style="fill:#231f20;fill-opacity:1;fill-rule:nonzero;stroke:none"
     d="m 170.10277,83.299006 c 0.052,0.636 -1.126,2.193 -1.527,3.75 -0.276,1.052 -1.984,3.198 -2.176,4.266 -0.177,0.973 -0.349,1.41 -1.501,1.39 -0.687,-0.005 -1.995,-0.453 -2.015,-0.964 -0.041,-1.186 0.296,-2.077 0.869,-2.968 0.667,-1.026 2.703,-3.63 3.12,-4.078 1.047,-1.104 1.115,-1.844 1.364,-2.156 0.47,-0.604 0.819,-0.574 1.272,-0.355 0.864,0.412 0.594,1.115 0.594,1.115"
     id="path539" />
  <path
     style="fill:none;stroke:#231f20;stroke-width:0.565977;stroke-linecap:butt;stroke-linejoin:miter;stroke-miterlimit:4;stroke-dasharray:none;stroke-opacity:1"
     d="m 170.10277,83.299006 c 0.052,0.636 -1.126,2.193 -1.527,3.75 -0.276,1.052 -1.984,3.198 -2.176,4.266 -0.177,0.973 -0.349,1.41 -1.501,1.39 -0.687,-0.005 -1.995,-0.453 -2.015,-0.964 -0.041,-1.186 0.296,-2.077 0.869,-2.968 0.667,-1.026 2.703,-3.63 3.12,-4.078 1.047,-1.104 1.115,-1.844 1.364,-2.156 0.47,-0.604 0.819,-0.574 1.272,-0.355 0.864,0.412 0.594,1.115 0.594,1.115 z"
     id="path540" />
  <path
     style="fill:#231f20;fill-opacity:1;fill-rule:nonzero;stroke:none"
     d="m 165.72777,91.225006 c 1.061,0.751 -0.396,2.172 -0.719,2.6 -0.333,0.438 -1.12,1.776 -1.6,2.9 -0.484,1.126 -1.566,2.324 -2.489,4.459004 -0.479,1.125 -1.661,1.912 -3.26,1.141 -1.584,-0.761 -1.751,-1.937 -0.959,-3.214004 0.792,-1.266 2.068,-2.13 2.954,-3.354 0.885,-1.218 1.677,-2.552 2.244,-3.625 0.652,-1.219 1.417,-1.588 1.896,-1.541 1.198,0.098 1.933,0.634 1.933,0.634"
     id="path541" />
  <path
     style="fill:none;stroke:#231f20;stroke-width:0.565977;stroke-linecap:butt;stroke-linejoin:miter;stroke-miterlimit:4;stroke-dasharray:none;stroke-opacity:1"
     d="m 165.72777,91.225006 c 1.061,0.751 -0.396,2.172 -0.719,2.6 -0.333,0.438 -1.12,1.776 -1.6,2.9 -0.484,1.126 -1.566,2.324 -2.489,4.459004 -0.479,1.125 -1.661,1.912 -3.26,1.141 -1.584,-0.761 -1.751,-1.937 -0.959,-3.214004 0.792,-1.266 2.068,-2.13 2.954,-3.354 0.885,-1.218 1.677,-2.552 2.244,-3.625 0.652,-1.219 1.417,-1.588 1.896,-1.541 1.198,0.098 1.933,0.634 1.933,0.634 z"
     id="path542" />
  <path
     style="fill:#ffffff;fill-opacity:1;fill-rule:nonzero;stroke:none"
     d="m 169.89877,82.487006 c -0.687,0 -1.239,0.552 -1.239,1.234 v 59.140004 c 0,0.688 0.552,1.245 1.239,1.245 0.682,0 1.24,-0.557 1.24,-1.245 V 83.721006 c 0,-0.682 -0.558,-1.234 -1.24,-1.234"
     id="path543" />
  <path
     style="fill:none;stroke:#231f20;stroke-width:0.665856;stroke-linecap:butt;stroke-linejoin:miter;stroke-miterlimit:4;stroke-dasharray:none;stroke-opacity:1"
     d="m 169.89877,82.487006 c -0.687,0 -1.239,0.552 -1.239,1.234 v 59.140004 c 0,0.688 0.552,1.245 1.239,1.245 0.682,0 1.24,-0.557 1.24,-1.245 V 83.721006 c 0,-0.682 -0.558,-1.234 -1.24,-1.234 z"
     id="path545" />
  <path
     style="fill:#63c99d;fill-opacity:1;fill-rule:nonzero;stroke:none"
     d="m 256.09677,55.283006 c -2.896,-1.1924 -3.391,-1.7604 -4.041,-2.4164 -4.063,-4.1146 -6.006,-2.0413 -6.59,0.776 -0.702,3.3174 -1.014,4.4944 5.006,6.3174 1.677,0.511 7.854,3.287 7.854,3.287 2.078,1.292 4.796,1.453 6.011,0.641 1.276,-0.849 0.708,-0.605 1.739,-1.605 0.994,-0.952 1.589,-3.067 0.89,-4.088 -0.661,-0.979 -2.328,-0.886 -4.738,-1.058 -1.912,-0.14 -6.131,-1.854 -6.131,-1.854"
     id="path547" />
  <path
     style="fill:none;stroke:#231f20;stroke-width:0.565977;stroke-linecap:butt;stroke-linejoin:miter;stroke-miterlimit:4;stroke-dasharray:none;stroke-opacity:1"
     d="m 256.09677,55.283006 c -2.896,-1.1924 -3.391,-1.7604 -4.041,-2.4164 -4.063,-4.1146 -6.006,-2.0413 -6.59,0.776 -0.702,3.3174 -1.014,4.4944 5.006,6.3174 1.677,0.511 7.854,3.287 7.854,3.287 2.078,1.292 4.796,1.453 6.011,0.641 1.276,-0.849 0.708,-0.605 1.739,-1.605 0.994,-0.952 1.589,-3.067 0.89,-4.088 -0.661,-0.979 -2.328,-0.886 -4.738,-1.058 -1.912,-0.14 -6.131,-1.854 -6.131,-1.854 z"
     id="path548" />
  <path
     style="fill:#231f20;fill-opacity:1;fill-rule:nonzero;stroke:none"
     d="m 259.56077,68.315006 c -1.943,1.172 -2.157,1.661 -1.709,2.51 0.292,0.567 0.365,1.192 0.526,1.547 0.536,1.177 1.943,2.937 7.203,6.896 1.193,0.891 2.865,2.167 3.495,2.733 1.016,0.907 1.838,-1.38 1.437,-1.749 -1.265,-1.151 -2.031,-2.052 -2.437,-2.531 -0.271,-0.329 -0.834,-0.833 -1.724,-2.256 -1.354,-2.13 -1.839,-3.614 -3.176,-5.254 -0.615,-0.771 -0.595,-1.724 -1.584,-2.167 -0.995,-0.448 -2.031,0.271 -2.031,0.271"
     id="path549" />
  <path
     style="fill:none;stroke:#231f20;stroke-width:0.565977;stroke-linecap:butt;stroke-linejoin:miter;stroke-miterlimit:4;stroke-dasharray:none;stroke-opacity:1"
     d="m 259.56077,68.315006 c -1.943,1.172 -2.157,1.661 -1.709,2.51 0.292,0.567 0.365,1.192 0.526,1.547 0.536,1.177 1.943,2.937 7.203,6.896 1.193,0.891 2.865,2.167 3.495,2.733 1.016,0.907 1.838,-1.38 1.437,-1.749 -1.265,-1.151 -2.031,-2.052 -2.437,-2.531 -0.271,-0.329 -0.834,-0.833 -1.724,-2.256 -1.354,-2.13 -1.839,-3.614 -3.176,-5.254 -0.615,-0.771 -0.595,-1.724 -1.584,-2.167 -0.995,-0.448 -2.031,0.271 -2.031,0.271 z"
     id="path550" />
  <path
     style="fill:#231f20;fill-opacity:1;fill-rule:nonzero;stroke:#231f20;stroke-width:0.565977;stroke-linecap:round;stroke-linejoin:round;stroke-miterlimit:4;stroke-dasharray:none;stroke-opacity:1"
     d="m 261.96577,69.012006 c 0.328,-1.38 -1.369,-2.708 -1.514,-3.015 -2.204,-4.505 -2.475,-4.772 -4.386,-8.084 -2.772,-4.781 -5.401,-7.6343 -8.652,-6.8437 -2.213,0.5467 -3.249,1.8187 -3.432,3.1253 -0.193,1.4424 0.875,4.4424 3.694,5.0784 l 1.218,1.198 c 0.724,0.912 1.088,1.354 1.4,1.828 0.558,0.844 1.204,1.708 2.382,3.265 2.088,2.776 5.192,5.037 5.192,5.037 0.188,0.239 0.442,0.37 0.702,0.416"
     id="path551" />
  <path
     style="fill:#63c99d;fill-opacity:1;fill-rule:nonzero;stroke:none"
     d="m 247.64377,51.017306 c -2.224,0.4693 -3.302,1.6827 -3.542,2.984 -0.256,1.4387 0.708,4.4747 3.495,5.2097 l 6.803,-3.839 c -2.048,-3.1614 -4.168,-4.8907 -6.756,-4.3547"
     id="path552" />
  <path
     style="fill:none;stroke:#231f20;stroke-width:0.565977;stroke-linecap:butt;stroke-linejoin:miter;stroke-miterlimit:4;stroke-dasharray:none;stroke-opacity:1"
     d="m 247.64377,51.017306 c -2.224,0.4693 -3.302,1.6827 -3.542,2.984 -0.256,1.4387 0.708,4.4747 3.495,5.2097 l 6.803,-3.839 c -2.048,-3.1614 -4.168,-4.8907 -6.756,-4.3547 z"
     id="path553" />
  <path
     style="fill:#231f20;fill-opacity:1;fill-rule:nonzero;stroke:none"
     d="m 270.27377,84.252006 c -1.349,0.011 -1.713,-0.912 -1.38,-1.891 0.104,-0.297 -0.114,-0.65 0,-0.926 0.291,-0.652 1.927,-1.23 2.76,0.02 0.063,0.089 0.698,0.604 1.12,1.062 0.807,0.896 2.011,3.09 1.23,5.667 -0.371,1.224 -1.022,0.776 -1.027,0.24 0.005,-1.713 -0.333,-1.86 -0.5,-2.313 -0.552,-1.531 -2.203,-1.859 -2.203,-1.859"
     id="path554" />
  <path
     style="fill:none;stroke:#231f20;stroke-width:0.332927;stroke-linecap:butt;stroke-linejoin:miter;stroke-miterlimit:4;stroke-dasharray:none;stroke-opacity:1"
     d="m 270.27377,84.252006 c -1.349,0.011 -1.713,-0.912 -1.38,-1.891 0.104,-0.297 -0.114,-0.65 0,-0.926 0.291,-0.652 1.927,-1.23 2.76,0.02 0.063,0.089 0.698,0.604 1.12,1.062 0.807,0.896 2.011,3.09 1.23,5.667 -0.371,1.224 -1.022,0.776 -1.027,0.24 0.005,-1.713 -0.333,-1.86 -0.5,-2.313 -0.552,-1.531 -2.203,-1.859 -2.203,-1.859 z"
     id="path555" />
  <path
     style="fill:#ffffff;fill-opacity:1;fill-rule:nonzero;stroke:none"
     d="m 268.97677,67.539006 c 0.136,0.208 -0.631,1.068 -0.271,1.448 0.364,0.38 1.063,-0.016 2.916,0.692 l 0.016,0.005 c 1.344,0.557 2.74,0.511 3.704,-0.287 1.604,-1.317 1.458,-4.156 -0.324,-6.338 -1.796,-2.192 -4.552,-2.886 -6.161,-1.572 -1.536,1.254 -1.463,3.916 0.12,6.052"
     id="path556" />
  <path
     style="fill:none;stroke:#231f20;stroke-width:0.565977;stroke-linecap:butt;stroke-linejoin:miter;stroke-miterlimit:4;stroke-dasharray:none;stroke-opacity:1"
     d="m 268.97677,67.539006 c 0.136,0.208 -0.631,1.068 -0.271,1.448 0.364,0.38 1.063,-0.016 2.916,0.692 l 0.016,0.005 c 1.344,0.557 2.74,0.511 3.704,-0.287 1.604,-1.317 1.458,-4.156 -0.324,-6.338 -1.796,-2.192 -4.552,-2.886 -6.161,-1.572 -1.536,1.254 -1.463,3.916 0.12,6.052 z"
     id="path557" />
  <path
     style="fill:#231f20;fill-opacity:1;fill-rule:nonzero;stroke:none"
     d="m 259.54977,80.299006 c -0.261,-0.583 0.318,-2.448 0.172,-4.052 -0.104,-1.079 0.782,-3.678 0.599,-4.746 -0.161,-0.984 -0.145,-1.446 0.943,-1.822 0.645,-0.23 2.03,-0.244 2.218,0.229 0.443,1.104 0.427,2.052 0.188,3.089 -0.276,1.187 -1.318,4.334 -1.552,4.891 -0.614,1.391 -0.428,2.113 -0.553,2.495 -0.239,0.724 -0.577,0.812 -1.077,0.76 -0.954,-0.094 -0.938,-0.844 -0.938,-0.844"
     id="path558" />
  <path
     style="fill:none;stroke:#231f20;stroke-width:0.565977;stroke-linecap:butt;stroke-linejoin:miter;stroke-miterlimit:4;stroke-dasharray:none;stroke-opacity:1"
     d="m 259.54977,80.299006 c -0.261,-0.583 0.318,-2.448 0.172,-4.052 -0.104,-1.079 0.782,-3.678 0.599,-4.746 -0.161,-0.984 -0.145,-1.446 0.943,-1.822 0.645,-0.23 2.03,-0.244 2.218,0.229 0.443,1.104 0.427,2.052 0.188,3.089 -0.276,1.187 -1.318,4.334 -1.552,4.891 -0.614,1.391 -0.428,2.113 -0.553,2.495 -0.239,0.724 -0.577,0.812 -1.077,0.76 -0.954,-0.094 -0.938,-0.844 -0.938,-0.844 z"
     id="path559" />
  <path
     style="fill:#231f20;fill-opacity:1;fill-rule:nonzero;stroke:none"
     d="m 260.97677,71.351006 c -1.244,-0.339 -0.359,-2.172 -0.197,-2.683 0.161,-0.525 0.452,-2.056 0.52,-3.271 0.078,-1.229 0.693,-2.718 0.838,-5.041 0.068,-1.224 0.912,-2.359 2.683,-2.177 1.744,0.182 2.297,1.234 1.984,2.704 -0.312,1.452 -1.224,2.697 -1.645,4.15 -0.418,1.448 -0.714,2.968 -0.88,4.172 -0.199,1.37 -0.798,1.979 -1.267,2.094 -1.156,0.308 -2.036,0.052 -2.036,0.052"
     id="path560" />
  <path
     style="fill:none;stroke:#231f20;stroke-width:0.565977;stroke-linecap:butt;stroke-linejoin:miter;stroke-miterlimit:4;stroke-dasharray:none;stroke-opacity:1"
     d="m 260.97677,71.351006 c -1.244,-0.339 -0.359,-2.172 -0.197,-2.683 0.161,-0.525 0.452,-2.056 0.52,-3.271 0.078,-1.229 0.693,-2.718 0.838,-5.041 0.068,-1.224 0.912,-2.359 2.683,-2.177 1.744,0.182 2.297,1.234 1.984,2.704 -0.312,1.452 -1.224,2.697 -1.645,4.15 -0.418,1.448 -0.714,2.968 -0.88,4.172 -0.199,1.37 -0.798,1.979 -1.267,2.094 -1.156,0.308 -2.036,0.052 -2.036,0.052 z"
     id="path561" />
  <path
     style="fill:#ffffff;fill-opacity:1;fill-rule:nonzero;stroke:none"
     d="m 260.70077,82.487006 c -0.688,0 -1.24,0.552 -1.24,1.234 v 59.140004 c 0,0.688 0.552,1.245 1.24,1.245 0.683,0 1.24,-0.557 1.24,-1.245 V 83.721006 c 0,-0.682 -0.557,-1.234 -1.24,-1.234"
     id="path562" />
  <path
     style="fill:none;stroke:#231f20;stroke-width:0.665856;stroke-linecap:butt;stroke-linejoin:miter;stroke-miterlimit:4;stroke-dasharray:none;stroke-opacity:1"
     d="m 260.70077,82.487006 c -0.688,0 -1.24,0.552 -1.24,1.234 v 59.140004 c 0,0.688 0.552,1.245 1.24,1.245 0.683,0 1.24,-0.557 1.24,-1.245 V 83.721006 c 0,-0.682 -0.557,-1.234 -1.24,-1.234 z"
     id="path564" />
  <path
     style="fill:#ffffff;fill-opacity:1;fill-rule:nonzero;stroke:none"
     d="m 210.15977,82.487006 c -0.688,0 -1.246,0.552 -1.246,1.234 v 59.140004 c 0,0.688 0.558,1.245 1.246,1.245 0.682,0 1.24,-0.557 1.24,-1.245 V 83.721006 c 0,-0.682 -0.558,-1.234 -1.24,-1.234"
     id="path566" />
  <path
     style="fill:none;stroke:#231f20;stroke-width:0.665856;stroke-linecap:butt;stroke-linejoin:miter;stroke-miterlimit:4;stroke-dasharray:none;stroke-opacity:1"
     d="m 210.15977,82.487006 c -0.688,0 -1.246,0.552 -1.246,1.234 v 59.140004 c 0,0.688 0.558,1.245 1.246,1.245 0.682,0 1.24,-0.557 1.24,-1.245 V 83.721006 c 0,-0.682 -0.558,-1.234 -1.24,-1.234 z"
     id="path568" />
  <path
     style="fill:#ffffff;fill-opacity:1;fill-rule:nonzero;stroke:none"
     d="m 310.35677,82.487006 c -0.687,0 -1.239,0.552 -1.239,1.234 v 59.140004 c 0,0.688 0.552,1.245 1.239,1.245 0.688,0 1.24,-0.557 1.24,-1.245 V 83.721006 c 0,-0.682 -0.552,-1.234 -1.24,-1.234"
     id="path570" />
  <path
     style="fill:none;stroke:#231f20;stroke-width:0.665856;stroke-linecap:butt;stroke-linejoin:miter;stroke-miterlimit:4;stroke-dasharray:none;stroke-opacity:1"
     d="m 310.35677,82.487006 c -0.687,0 -1.239,0.552 -1.239,1.234 v 59.140004 c 0,0.688 0.552,1.245 1.239,1.245 0.688,0 1.24,-0.557 1.24,-1.245 V 83.721006 c 0,-0.682 -0.552,-1.234 -1.24,-1.234 z"
     id="path572" />
  <path
     style="fill:#ffffff;fill-opacity:1;fill-rule:nonzero;stroke:none"
     d="m 333.71177,81.960006 c -0.688,0 -1.24,0.552 -1.24,1.235 v 59.145004 c 0,0.682 0.552,1.24 1.24,1.24 0.682,0 1.24,-0.558 1.24,-1.24 V 83.195006 c 0,-0.683 -0.558,-1.235 -1.24,-1.235"
     id="path574" />
  <path
     style="fill:none;stroke:#231f20;stroke-width:0.665856;stroke-linecap:butt;stroke-linejoin:miter;stroke-miterlimit:4;stroke-dasharray:none;stroke-opacity:1"
     d="m 333.71177,81.960006 c -0.688,0 -1.24,0.552 -1.24,1.235 v 59.145004 c 0,0.682 0.552,1.24 1.24,1.24 0.682,0 1.24,-0.558 1.24,-1.24 V 83.195006 c 0,-0.683 -0.558,-1.235 -1.24,-1.235 z"
     id="path576" />
  <path
     style="fill:#63c99d;fill-opacity:1;fill-rule:nonzero;stroke:none"
     d="m 334.94577,50.257306 c 0.208,-3.1306 0.599,-3.776 1.015,-4.5986 2.62,-5.152 0.043,-6.344 -2.823,-6.0107 -3.369,0.3853 -4.582,0.4587 -4.41,6.744 0.052,1.756 -0.636,8.491 -0.636,8.491 -0.574,2.385 0.136,5.009 1.286,5.905 1.214,0.943 0.802,0.485 2.078,1.152 1.224,0.64 3.406,0.536 4.157,-0.448 0.724,-0.943 0.104,-2.491 -0.491,-4.839 -0.468,-1.854 -0.176,-6.3957 -0.176,-6.3957"
     id="path578" />
  <path
     style="fill:none;stroke:#231f20;stroke-width:0.565977;stroke-linecap:butt;stroke-linejoin:miter;stroke-miterlimit:4;stroke-dasharray:none;stroke-opacity:1"
     d="m 334.94577,50.257306 c 0.208,-3.1306 0.599,-3.776 1.015,-4.5986 2.62,-5.152 0.043,-6.344 -2.823,-6.0107 -3.369,0.3853 -4.582,0.4587 -4.41,6.744 0.052,1.756 -0.636,8.491 -0.636,8.491 -0.574,2.385 0.136,5.009 1.286,5.905 1.214,0.943 0.802,0.485 2.078,1.152 1.224,0.64 3.406,0.536 4.157,-0.448 0.724,-0.943 0.104,-2.491 -0.491,-4.839 -0.468,-1.854 -0.176,-6.3957 -0.176,-6.3957 z"
     id="path579" />
  <path
     style="fill:#ffffff;fill-opacity:1;fill-rule:nonzero;stroke:none"
     d="m 332.52877,70.569006 c 0.161,0.188 -0.5,1.131 -0.088,1.459 0.405,0.333 1.041,-0.14 2.973,0.333 l 0.022,0.006 c 1.401,0.39 2.77,0.166 3.634,-0.74 1.439,-1.506 0.939,-4.302 -1.104,-6.25 -2.046,-1.953 -4.864,-2.308 -6.296,-0.808 -1.376,1.438 -0.974,4.074 0.859,6"
     id="path580" />
  <path
     style="fill:none;stroke:#231f20;stroke-width:0.565977;stroke-linecap:butt;stroke-linejoin:miter;stroke-miterlimit:4;stroke-dasharray:none;stroke-opacity:1"
     d="m 332.52877,70.569006 c 0.161,0.188 -0.5,1.131 -0.088,1.459 0.405,0.333 1.041,-0.14 2.973,0.333 l 0.022,0.006 c 1.401,0.39 2.77,0.166 3.634,-0.74 1.439,-1.506 0.939,-4.302 -1.104,-6.25 -2.046,-1.953 -4.864,-2.308 -6.296,-0.808 -1.376,1.438 -0.974,4.074 0.859,6 z"
     id="path581" />
  <path
     style="fill:#231f20;fill-opacity:1;fill-rule:nonzero;stroke:none"
     d="m 332.32077,79.856006 c -0.385,-0.511 -0.276,-2.459 -0.797,-3.973 -0.354,-1.032 -0.115,-3.762 -0.547,-4.756 -0.391,-0.911 -0.489,-1.37 0.479,-1.995 0.568,-0.375 1.912,-0.724 2.209,-0.307 0.697,0.968 0.905,1.891 0.916,2.958 0.016,1.218 -0.239,4.516 -0.339,5.12 -0.265,1.5 0.09,2.146 0.058,2.552 -0.058,0.761 -0.364,0.922 -0.859,0.994 -0.953,0.131 -1.12,-0.593 -1.12,-0.593"
     id="path582" />
  <path
     style="fill:none;stroke:#231f20;stroke-width:0.565977;stroke-linecap:butt;stroke-linejoin:miter;stroke-miterlimit:4;stroke-dasharray:none;stroke-opacity:1"
     d="m 332.32077,79.856006 c -0.385,-0.511 -0.276,-2.459 -0.797,-3.973 -0.354,-1.032 -0.115,-3.762 -0.547,-4.756 -0.391,-0.911 -0.489,-1.37 0.479,-1.995 0.568,-0.375 1.912,-0.724 2.209,-0.307 0.697,0.968 0.905,1.891 0.916,2.958 0.016,1.218 -0.239,4.516 -0.339,5.12 -0.265,1.5 0.09,2.146 0.058,2.552 -0.058,0.761 -0.364,0.922 -0.859,0.994 -0.953,0.131 -1.12,-0.593 -1.12,-0.593 z"
     id="path583" />
  <path
     style="fill:#231f20;fill-opacity:1;fill-rule:nonzero;stroke:none"
     d="m 331.58077,70.825006 c -1.296,-0.032 -0.864,-2.026 -0.833,-2.562 0.032,-0.547 -0.052,-2.099 -0.276,-3.303 -0.219,-1.208 0.021,-2.801 -0.391,-5.093 -0.224,-1.203 0.328,-2.511 2.089,-2.751 1.739,-0.239 2.526,0.647 2.572,2.147 0.047,1.494 -0.546,2.921 -0.609,4.426 -0.057,1.511 0.021,3.058 0.141,4.266 0.135,1.376 -0.308,2.109 -0.729,2.333 -1.047,0.573 -1.964,0.537 -1.964,0.537"
     id="path584" />
  <path
     style="fill:none;stroke:#231f20;stroke-width:0.565977;stroke-linecap:butt;stroke-linejoin:miter;stroke-miterlimit:4;stroke-dasharray:none;stroke-opacity:1"
     d="m 331.58077,70.825006 c -1.296,-0.032 -0.864,-2.026 -0.833,-2.562 0.032,-0.547 -0.052,-2.099 -0.276,-3.303 -0.219,-1.208 0.021,-2.801 -0.391,-5.093 -0.224,-1.203 0.328,-2.511 2.089,-2.751 1.739,-0.239 2.526,0.647 2.572,2.147 0.047,1.494 -0.546,2.921 -0.609,4.426 -0.057,1.511 0.021,3.058 0.141,4.266 0.135,1.376 -0.308,2.109 -0.729,2.333 -1.047,0.573 -1.964,0.537 -1.964,0.537 z"
     id="path585" />
  <path
     style="fill:#231f20;fill-opacity:1;fill-rule:nonzero;stroke:none"
     d="m 334.65377,24.678706 c 2.208,0.4893 2.703,0.2813 2.968,-0.64 0.183,-0.6146 0.558,-1.1146 0.683,-1.48 0.428,-1.228 0.631,-3.468 -0.448,-9.9626 -0.244,-1.4747 -0.572,-3.5412996 -0.64,-4.3959996 -0.109,-1.3547 -2.281,-0.26 -2.245,0.276 0.114,1.7079996 0.052,2.8905996 0.01,3.5105996 -0.026,0.4267 0.027,1.1867 -0.306,2.8227 -0.491,2.4733 -1.158,3.8907 -1.33,6 -0.082,0.9787 -0.765,1.6613 -0.348,2.6613 0.406,1.0107 1.656,1.208 1.656,1.208"
     id="path586" />
  <path
     style="fill:none;stroke:#231f20;stroke-width:0.565977;stroke-linecap:butt;stroke-linejoin:miter;stroke-miterlimit:4;stroke-dasharray:none;stroke-opacity:1"
     d="m 334.65377,24.678706 c 2.208,0.4893 2.703,0.2813 2.968,-0.64 0.183,-0.6146 0.558,-1.1146 0.683,-1.48 0.428,-1.228 0.631,-3.468 -0.448,-9.9626 -0.244,-1.4747 -0.572,-3.5412996 -0.64,-4.3959996 -0.109,-1.3547 -2.281,-0.26 -2.245,0.276 0.114,1.7079996 0.052,2.8905996 0.01,3.5105996 -0.026,0.4267 0.027,1.1867 -0.306,2.8227 -0.491,2.4733 -1.158,3.8907 -1.33,6 -0.082,0.9787 -0.765,1.6613 -0.348,2.6613 0.406,1.0107 1.656,1.208 1.656,1.208 z"
     id="path587" />
  <path
     style="fill:#231f20;fill-opacity:1;fill-rule:nonzero;stroke:#231f20;stroke-width:0.565977;stroke-linecap:round;stroke-linejoin:round;stroke-miterlimit:4;stroke-dasharray:none;stroke-opacity:1"
     d="m 333.39977,22.512106 c -1.194,0.7706 -0.887,2.9066 -0.991,3.2293 -1.515,4.776 -1.5,5.156 -2.4,8.8653 -1.297,5.38 -1.365,9.26 1.536,10.9266 1.973,1.1347 3.599,0.932 4.631,0.1094 1.14,-0.9067 2.437,-3.812 0.833,-6.2187 l -0.053,-1.708 c 0.11,-1.1613 0.157,-1.7293 0.25,-2.2973 0.183,-0.9893 0.303,-2.0573 0.536,-4 0.407,-3.448 -0.286,-7.2293 -0.286,-7.2293 0.026,-0.3067 -0.062,-0.568 -0.219,-0.792"
     id="path588" />
  <path
     style="fill:#63c99d;fill-opacity:1;fill-rule:nonzero;stroke:none"
     d="m 336.98177,39.554706 -7.578,-1.912 c -0.119,0.64 -0.198,1.2453 -0.25,1.828 -0.032,0.0733 -0.068,0.1453 -0.109,0.208 -0.427,0.6826 -0.235,1.2813 0.14,2.2506 0.215,1.536 0.855,2.7387 2.109,3.5254 1.928,1.1986 3.558,1.0626 4.62,0.2813 1.172,-0.8693 2.579,-3.7187 1.068,-6.1813"
     id="path589" />
  <path
     style="fill:none;stroke:#231f20;stroke-width:0.565977;stroke-linecap:butt;stroke-linejoin:miter;stroke-miterlimit:4;stroke-dasharray:none;stroke-opacity:1"
     d="m 336.98177,39.554706 -7.578,-1.912 c -0.119,0.64 -0.198,1.2453 -0.25,1.828 -0.032,0.0733 -0.068,0.1453 -0.109,0.208 -0.427,0.6826 -0.235,1.2813 0.14,2.2506 0.215,1.536 0.855,2.7387 2.109,3.5254 1.928,1.1986 3.558,1.0626 4.62,0.2813 1.172,-0.8693 2.579,-3.7187 1.068,-6.1813 z"
     id="path590" />
  <path
     style="fill:#231f20;fill-opacity:1;fill-rule:nonzero;stroke:none"
     d="m 337.48177,5.8254064 c 0.99,0.9214 0.615,1.8427 -0.302,2.3174 -0.282,0.1453 -0.359,0.552 -0.64,0.6666 -0.651,0.276 -2.24,-0.4373 -1.984,-1.9173 0.02,-0.104 -0.09,-0.916 -0.074,-1.5413 0.031,-1.2134 0.678,-3.62 3.022,-4.94269996 1.109,-0.6347 1.276,0.136 0.905,0.532 -1.181,1.23869996 -1.047,1.57729996 -1.233,2.01469996 -0.658,1.4893 0.306,2.8706 0.306,2.8706"
     id="path591" />
  <path
     style="fill:none;stroke:#231f20;stroke-width:0.332927;stroke-linecap:butt;stroke-linejoin:miter;stroke-miterlimit:4;stroke-dasharray:none;stroke-opacity:1"
     d="m 337.48177,5.8254064 c 0.99,0.9214 0.615,1.8427 -0.302,2.3174 -0.282,0.1453 -0.359,0.552 -0.64,0.6666 -0.651,0.276 -2.24,-0.4373 -1.984,-1.9173 0.02,-0.104 -0.09,-0.916 -0.074,-1.5413 0.031,-1.2134 0.678,-3.62 3.022,-4.94269996 1.109,-0.6347 1.276,0.136 0.905,0.532 -1.181,1.23869996 -1.047,1.57729996 -1.233,2.01469996 -0.658,1.4893 0.306,2.8706 0.306,2.8706 z"
     id="path592" />
  <path
     style="fill:#231f20;fill-opacity:1;fill-rule:nonzero;stroke:none"
     d="m 336.22777,80.689006 c 0.213,1.156 -0.548,2.271 -1.71,2.49 -1.156,0.213 -2.27,-0.552 -2.484,-1.708 -0.218,-1.156 0.547,-2.271 1.703,-2.484 1.161,-0.219 2.276,0.546 2.491,1.702"
     id="path593" />
  <path
     style="fill:#231f20;fill-opacity:1;fill-rule:nonzero;stroke:none"
     d="m 32.185776,82.397006 c -0.307,-1.14 0.365,-2.312 1.505,-2.62 1.136,-0.301 2.308,0.371 2.615,1.506 0.308,1.136 -0.37,2.308 -1.506,2.614 -1.134,0.308 -2.312,-0.364 -2.614,-1.5"
     id="path594" />
  <path
     style="fill:none;stroke:#231f20;stroke-width:0.399514;stroke-linecap:butt;stroke-linejoin:miter;stroke-miterlimit:4;stroke-dasharray:none;stroke-opacity:1"
     d="m 73.086776,121.98101 c 7.874,-7.88 8.188,-21.625 8.188,-21.625 -5.099,8.953 -13.287,10.5 -13.287,10.5"
     id="path595" />
  <path
     style="fill:#231f20;fill-opacity:1;fill-rule:nonzero;stroke:none"
     d="m 66.805776,111.08001 c 0.516,-0.312 1.141,-0.797 1.5,-1.249 l -0.162,0.999 0.516,0.864 c -0.5,-0.292 -1.26,-0.51 -1.854,-0.614"
     id="path596" />
  <path
     style="fill:#231f20;fill-opacity:1;fill-rule:nonzero;stroke:none"
     d="m 33.727776,79.773006 c 1.162,-0.188 2.26,0.604 2.448,1.766 0.187,1.161 -0.605,2.26 -1.766,2.448 -1.162,0.186 -2.26,-0.604 -2.443,-1.766 -0.187,-1.162 0.599,-2.261 1.761,-2.448"
     id="path597" />
  <path
     style="fill:#231f20;fill-opacity:1;fill-rule:nonzero;stroke:none"
     d="m 212.67977,82.851006 c -0.119,1.177 -1.167,2.026 -2.338,1.912 -1.177,-0.12 -2.026,-1.167 -1.912,-2.339 0.126,-1.172 1.167,-2.027 2.344,-1.907 1.167,0.12 2.026,1.167 1.906,2.334"
     id="path598" />
  <path
     style="fill:#231f20;fill-opacity:1;fill-rule:nonzero;stroke:none"
     d="m 312.90877,82.777006 c -0.104,1.178 -1.135,2.043 -2.312,1.939 -1.172,-0.104 -2.036,-1.141 -1.932,-2.313 0.104,-1.172 1.135,-2.042 2.312,-1.938 1.172,0.11 2.041,1.142 1.932,2.312"
     id="path599" />
  <path
     style="fill:#231f20;fill-opacity:1;fill-rule:nonzero;stroke:none"
     d="m 111.75277,81.736006 c -0.036,-1.177 0.896,-2.156 2.074,-2.192 1.177,-0.027 2.161,0.9 2.186,2.077 0.038,1.178 -0.89,2.156 -2.072,2.188 -1.172,0.036 -2.156,-0.89 -2.188,-2.073"
     id="path600" />
  <path
     style="fill:#231f20;fill-opacity:1;fill-rule:nonzero;stroke:none"
     d="m 167.99277,80.388006 c 0.708,-0.939 2.052,-1.12 2.99,-0.407 0.932,0.719 1.114,2.058 0.401,2.99 -0.713,0.937 -2.052,1.12 -2.989,0.401 -0.939,-0.708 -1.12,-2.047 -0.402,-2.984"
     id="path601" />
  <path
     style="fill:#231f20;fill-opacity:1;fill-rule:nonzero;stroke:none"
     d="m 262.51777,82.320006 c -0.348,1.124 -1.552,1.749 -2.672,1.391 -1.124,-0.355 -1.744,-1.552 -1.39,-2.678 0.349,-1.12 1.548,-1.74 2.677,-1.385 1.12,0.349 1.745,1.547 1.385,2.672"
     id="path602" />
</svg>
