<?xml version="1.0" encoding="UTF-8" standalone="no"?>
<!-- Created with Inkscape (http://www.inkscape.org/) -->

<svg
   version="1.1"
   id="svg1"
   width="345.25687"
   height="108.69683"
   viewBox="0 0 345.25685 108.69683"
   sodipodi:docname="cell.svg"
   xmlns:inkscape="http://www.inkscape.org/namespaces/inkscape"
   xmlns:sodipodi="http://sodipodi.sourceforge.net/DTD/sodipodi-0.dtd"
   xmlns="http://www.w3.org/2000/svg"
   xmlns:svg="http://www.w3.org/2000/svg">
  <sodipodi:namedview
     id="namedview1"
     pagecolor="#ffffff"
     bordercolor="#000000"
     borderopacity="0.25"
     inkscape:showpageshadow="2"
     inkscape:pageopacity="0.0"
     inkscape:pagecheckerboard="0"
     inkscape:deskcolor="#d1d1d1">
    <inkscape:page
       x="9.4384445e-10"
       y="3.1957705e-07"
       inkscape:label="1"
       id="page1"
       width="345.25684"
       height="108.69683"
       margin="0"
       bleed="0" />
  </sodipodi:namedview>
  <defs
     id="defs1" />
  <path
     style="fill:#63c99d;fill-opacity:1;fill-rule:nonzero;stroke:none"
     d="m 164.22793,72.984671 c 2.391,-2.025 3.124,-2.208 4.004,-2.478 5.522,-1.714 4.568,-4.396 2.339,-6.214 -2.624,-2.15 -3.531,-2.969 -7.916,1.547 -1.219,1.26 -6.527,5.469 -6.527,5.469 -2.104,1.244 -3.489,3.588 -3.333,5.036 0.172,1.526 0.219,0.912 0.625,2.287 0.396,1.328 2,2.812 3.224,2.672 1.178,-0.141 1.86,-1.661 3.12,-3.729 1.006,-1.631 4.464,-4.59 4.464,-4.59"
     id="path1267" />
  <path
     style="fill:none;stroke:#231f20;stroke-width:0.565977;stroke-linecap:butt;stroke-linejoin:miter;stroke-miterlimit:4;stroke-dasharray:none;stroke-opacity:1"
     d="m 164.22793,72.984671 c 2.391,-2.025 3.124,-2.208 4.004,-2.478 5.522,-1.714 4.568,-4.396 2.339,-6.214 -2.624,-2.15 -3.531,-2.969 -7.916,1.547 -1.219,1.26 -6.527,5.469 -6.527,5.469 -2.104,1.244 -3.489,3.588 -3.333,5.036 0.172,1.526 0.219,0.912 0.625,2.287 0.396,1.328 2,2.812 3.224,2.672 1.178,-0.141 1.86,-1.661 3.12,-3.729 1.006,-1.631 4.464,-4.59 4.464,-4.59 z"
     id="path1268" />
  <path
     style="fill:#231f20;fill-opacity:1;fill-rule:nonzero;stroke:none"
     d="m 179.06593,31.828669 c 0.781,1.104 0.234,1.927 -0.766,2.214 -0.301,0.084 -0.468,0.469 -0.76,0.526 -0.693,0.135 -2.109,-0.885 -1.557,-2.281 0.041,-0.099 0.099,-0.912 0.235,-1.521 0.276,-1.182 1.39,-3.416 3.957,-4.239 1.22,-0.396 1.224,0.391 0.781,0.703 -1.41,0.969 -1.337,1.333 -1.614,1.729 -0.943,1.323 -0.276,2.869 -0.276,2.869"
     id="path1269" />
  <path
     style="fill:none;stroke:#231f20;stroke-width:0.332927;stroke-linecap:butt;stroke-linejoin:miter;stroke-miterlimit:4;stroke-dasharray:none;stroke-opacity:1"
     d="m 179.06593,31.828669 c 0.781,1.104 0.234,1.927 -0.766,2.214 -0.301,0.084 -0.468,0.469 -0.76,0.526 -0.693,0.135 -2.109,-0.885 -1.557,-2.281 0.041,-0.099 0.099,-0.912 0.235,-1.521 0.276,-1.182 1.39,-3.416 3.957,-4.239 1.22,-0.396 1.224,0.391 0.781,0.703 -1.41,0.969 -1.337,1.333 -1.614,1.729 -0.943,1.323 -0.276,2.869 -0.276,2.869 z"
     id="path1270" />
  <path
     style="fill:#231f20;fill-opacity:1;fill-rule:nonzero;stroke:none"
     d="m 172.07593,49.719669 c 2.074,0.923 2.595,0.817 3.038,-0.025 0.306,-0.568 0.77,-0.991 0.968,-1.324 0.661,-1.11 1.313,-3.266 1.568,-9.843 0.057,-1.491 0.145,-3.584 0.254,-4.433 0.162,-1.348 -2.186,-0.719 -2.26,-0.187 -0.224,1.703 -0.526,2.848 -0.688,3.448 -0.118,0.405 -0.218,1.167 -0.869,2.697 -0.984,2.334 -1.921,3.579 -2.511,5.61 -0.281,0.948 -1.082,1.474 -0.88,2.541 0.194,1.068 1.38,1.516 1.38,1.516"
     id="path1271" />
  <path
     style="fill:none;stroke:#231f20;stroke-width:0.565977;stroke-linecap:butt;stroke-linejoin:miter;stroke-miterlimit:4;stroke-dasharray:none;stroke-opacity:1"
     d="m 172.07593,49.719669 c 2.074,0.923 2.595,0.817 3.038,-0.025 0.306,-0.568 0.77,-0.991 0.968,-1.324 0.661,-1.11 1.313,-3.266 1.568,-9.843 0.057,-1.491 0.145,-3.584 0.254,-4.433 0.162,-1.348 -2.186,-0.719 -2.26,-0.187 -0.224,1.703 -0.526,2.848 -0.688,3.448 -0.118,0.405 -0.218,1.167 -0.869,2.697 -0.984,2.334 -1.921,3.579 -2.511,5.61 -0.281,0.948 -1.082,1.474 -0.88,2.541 0.194,1.068 1.38,1.516 1.38,1.516 z"
     id="path1272" />
  <path
     style="fill:#231f20;fill-opacity:1;fill-rule:nonzero;stroke:#231f20;stroke-width:0.565977;stroke-linecap:round;stroke-linejoin:round;stroke-miterlimit:4;stroke-dasharray:none;stroke-opacity:1"
     d="m 171.97793,45.490669 c -1.307,0.562 -1.364,2.713 -1.522,3.016 -2.285,4.453 -2.338,4.833 -3.837,8.349 -2.177,5.083002 -2.887,8.896002 -0.303,11.020002 1.755,1.448 3.396,1.516 4.552,0.885 1.271,-0.713 3.031,-3.358 1.855,-6 l 0.229,-1.692 c 0.296,-1.13 0.443,-1.682 0.63,-2.224 0.338,-0.942 0.641,-1.974002 1.188,-3.854002 0.973,-3.334 0.921,-7.178 0.921,-7.178 0.084,-0.296 0.032,-0.572 -0.083,-0.812"
     id="path1273" />
  <path
     style="fill:#63c99d;fill-opacity:1;fill-rule:nonzero;stroke:none"
     d="m 172.72293,62.860671 -7.152,-3.152 c -1.301,3.532 -1.416,6.267 0.563,8.022 1.698,1.5 3.328,1.64 4.51,1.041 1.308,-0.651 3.162,-3.235 2.079,-5.911"
     id="path1274" />
  <path
     style="fill:none;stroke:#231f20;stroke-width:0.565977;stroke-linecap:butt;stroke-linejoin:miter;stroke-miterlimit:4;stroke-dasharray:none;stroke-opacity:1"
     d="m 172.72293,62.860671 -7.152,-3.152 c -1.301,3.532 -1.416,6.267 0.563,8.022 1.698,1.5 3.328,1.64 4.51,1.041 1.308,-0.651 3.162,-3.235 2.079,-5.911 z"
     id="path1275" />
  <path
     style="fill:#ffffff;fill-opacity:1;fill-rule:nonzero;stroke:none"
     d="m 147.64993,83.870671 c -0.084,0.229 -1.235,0.1 -1.328,0.614 -0.099,0.522 0.625,0.855 1.129,2.776 l 0.005,0.022 c 0.328,1.417 1.172,2.516 2.386,2.844 2.005,0.541 4.229,-1.235 4.964,-3.954 0.74,-2.734 -0.298,-5.38 -2.298,-5.921 -1.916,-0.521 -4.036,1.083 -4.858,3.619"
     id="path1276" />
  <path
     style="fill:none;stroke:#231f20;stroke-width:0.565977;stroke-linecap:butt;stroke-linejoin:miter;stroke-miterlimit:4;stroke-dasharray:none;stroke-opacity:1"
     d="m 147.64993,83.870671 c -0.084,0.229 -1.235,0.1 -1.328,0.614 -0.099,0.522 0.625,0.855 1.129,2.776 l 0.005,0.022 c 0.328,1.417 1.172,2.516 2.386,2.844 2.005,0.541 4.229,-1.235 4.964,-3.954 0.74,-2.734 -0.298,-5.38 -2.298,-5.921 -1.916,-0.521 -4.036,1.083 -4.858,3.619 z"
     id="path1277" />
  <path
     style="fill:#231f20;fill-opacity:1;fill-rule:nonzero;stroke:none"
     d="m 152.46693,66.990671 c 1.229,-0.422 1.527,1.594 1.683,2.104 0.156,0.526 0.781,1.953 1.412,3 0.624,1.052 0.962,2.636 2.15,4.63 0.63,1.052 0.574,2.47 -0.989,3.312 -1.548,0.834 -2.6,0.276 -3.161,-1.109 -0.568,-1.38 -0.511,-2.921 -0.986,-4.359 -0.468,-1.437 -1.082,-2.86 -1.624,-3.948 -0.61,-1.24 -0.453,-2.078 -0.136,-2.437 0.782,-0.907 1.651,-1.193 1.651,-1.193"
     id="path1278" />
  <path
     style="fill:none;stroke:#231f20;stroke-width:0.565977;stroke-linecap:butt;stroke-linejoin:miter;stroke-miterlimit:4;stroke-dasharray:none;stroke-opacity:1"
     d="m 152.46693,66.990671 c 1.229,-0.422 1.527,1.594 1.683,2.104 0.156,0.526 0.781,1.953 1.412,3 0.624,1.052 0.962,2.636 2.15,4.63 0.63,1.052 0.574,2.47 -0.989,3.312 -1.548,0.834 -2.6,0.276 -3.161,-1.109 -0.568,-1.38 -0.511,-2.921 -0.986,-4.359 -0.468,-1.437 -1.082,-2.86 -1.624,-3.948 -0.61,-1.24 -0.453,-2.078 -0.136,-2.437 0.782,-0.907 1.651,-1.193 1.651,-1.193 z"
     id="path1279" />
  <path
     style="fill:#231f20;fill-opacity:1;fill-rule:nonzero;stroke:none"
     d="m 148.60793,58.792671 c 0.542,0.339 1.12,2.203 2.14,3.443 0.694,0.839 1.427,3.479 2.178,4.26 0.693,0.719 0.937,1.115 0.254,2.037 -0.405,0.552 -1.541,1.348 -1.962,1.062 -0.995,-0.662 -1.516,-1.452 -1.896,-2.448 -0.443,-1.135 -1.36,-4.312 -1.48,-4.916 -0.276,-1.495 -0.834,-1.979 -0.947,-2.37 -0.209,-0.729 0.02,-0.99 0.457,-1.234 0.844,-0.459 1.256,0.166 1.256,0.166"
     id="path1280" />
  <path
     style="fill:none;stroke:#231f20;stroke-width:0.565977;stroke-linecap:butt;stroke-linejoin:miter;stroke-miterlimit:4;stroke-dasharray:none;stroke-opacity:1"
     d="m 148.60793,58.792671 c 0.542,0.339 1.12,2.203 2.14,3.443 0.694,0.839 1.427,3.479 2.178,4.26 0.693,0.719 0.937,1.115 0.254,2.037 -0.405,0.552 -1.541,1.348 -1.962,1.062 -0.995,-0.662 -1.516,-1.452 -1.896,-2.448 -0.443,-1.135 -1.36,-4.312 -1.48,-4.916 -0.276,-1.495 -0.834,-1.979 -0.947,-2.37 -0.209,-0.729 0.02,-0.99 0.457,-1.234 0.844,-0.459 1.256,0.166 1.256,0.166 z"
     id="path1281" />
  <path
     style="fill:none;stroke:#231f20;stroke-width:0.399514;stroke-linecap:butt;stroke-linejoin:miter;stroke-miterlimit:4;stroke-dasharray:none;stroke-opacity:1"
     d="m 240.77493,26.823669 c 2.369,-26.38500014 -10.781,-28.2440001 -15.073,-21.0050001"
     id="path1282" />
  <path
     style="fill:#231f20;fill-opacity:1;fill-rule:nonzero;stroke:none"
     d="m 225.08693,6.8556689 c 0.109,-0.594 0.161,-1.38 0.052,-1.953 l 0.645,0.781 0.996,0.192 c -0.552,0.178 -1.218,0.6 -1.693,0.98"
     id="path1283" />
  <path
     style="fill:#ffffff;fill-opacity:1;fill-rule:nonzero;stroke:none"
     d="m 0.33292799,57.646671 c 0,0.688 0.552,1.24 1.23800001,1.24 H 343.68393 c 0.69,0 1.24,-0.552 1.24,-1.24 0,-0.682002 -0.55,-1.239002 -1.24,-1.239002 H 1.570928 c -0.68600001,0 -1.23800001,0.557 -1.23800001,1.239002"
     id="path1284" />
  <path
     style="fill:none;stroke:#231f20;stroke-width:0.665856;stroke-linecap:butt;stroke-linejoin:miter;stroke-miterlimit:4;stroke-dasharray:none;stroke-opacity:1"
     d="m 0.33292799,57.646671 c 0,0.688 0.552,1.24 1.23800001,1.24 H 343.68393 c 0.69,0 1.24,-0.552 1.24,-1.24 0,-0.682002 -0.55,-1.239002 -1.24,-1.239002 H 1.570928 c -0.68600001,0 -1.23800001,0.557 -1.23800001,1.239002 z"
     id="path1285" />
  <path
     style="fill:#231f20;fill-opacity:1;fill-rule:nonzero;stroke:#231f20;stroke-width:0.565977;stroke-linecap:round;stroke-linejoin:round;stroke-miterlimit:4;stroke-dasharray:none;stroke-opacity:1"
     d="m 205.58193,24.730669 c 0,0 -0.391,1.26 -0.178,2.406 0.224,1.14 0.964,2.271 0.964,2.271 l 3.246,-0.563 -0.819,-4.713 z"
     id="path1286" />
  <path
     style="fill:#231f20;fill-opacity:1;fill-rule:nonzero;stroke:none"
     d="m 221.66593,27.855669 c 2.197,2.859 3.306,1.599 7.052,-0.016 4.098,-1.765 8.181,-4.041 10.473,-6.417 2.552,-2.656 3.032,-2.447 2.443,-4.271 -0.588,-1.828 -1.334,-1.609 -2.552,-2.031 -1.407,-0.484 -6.771,4.552 -11.203,6.271 -2.073,0.803 -7.568,1.396 -7.371,2.833 0.199,1.443 1.158,3.631 1.158,3.631"
     id="path1287" />
  <path
     style="fill:none;stroke:#231f20;stroke-width:0.565977;stroke-linecap:butt;stroke-linejoin:miter;stroke-miterlimit:4;stroke-dasharray:none;stroke-opacity:1"
     d="m 221.66593,27.855669 c 2.197,2.859 3.306,1.599 7.052,-0.016 4.098,-1.765 8.181,-4.041 10.473,-6.417 2.552,-2.656 3.032,-2.447 2.443,-4.271 -0.588,-1.828 -1.334,-1.609 -2.552,-2.031 -1.407,-0.484 -6.771,4.552 -11.203,6.271 -2.073,0.803 -7.568,1.396 -7.371,2.833 0.199,1.443 1.158,3.631 1.158,3.631 z"
     id="path1288" />
  <path
     style="fill:#231f20;fill-opacity:1;fill-rule:nonzero;stroke:none"
     d="m 239.38393,17.203669 c 0.927,2.063 1.172,2.683 3.26,1.303 0.536,-0.355 1.938,-1.438 2.308,-1.552 1.239,-0.396 2.635,-0.959 7.202,-5.708 0.71,-0.74 2.3,-1.9120001 3.35,-2.8330001 1.03,-0.891 -1.15,-1.986 -1.56,-1.642 -1.3,1.12 -2.38,1.552 -2.9,1.891 -0.36,0.229 -0.96,0.776 -2.536,1.308 -4.057,1.3590001 -4.645,3.0620001 -5.468,3.4260001 -2.365,1.031 -4.598,1.427 -4.573,2.099 0.047,1.079 0.917,1.708 0.917,1.708"
     id="path1289" />
  <path
     style="fill:none;stroke:#231f20;stroke-width:0.565977;stroke-linecap:butt;stroke-linejoin:miter;stroke-miterlimit:4;stroke-dasharray:none;stroke-opacity:1"
     d="m 239.38393,17.203669 c 0.927,2.063 1.172,2.683 3.26,1.303 0.536,-0.355 1.938,-1.438 2.308,-1.552 1.239,-0.396 2.635,-0.959 7.202,-5.708 0.71,-0.74 2.3,-1.9120001 3.35,-2.8330001 1.03,-0.891 -1.15,-1.986 -1.56,-1.642 -1.3,1.12 -2.38,1.552 -2.9,1.891 -0.36,0.229 -0.96,0.776 -2.536,1.308 -4.057,1.3590001 -4.645,3.0620001 -5.468,3.4260001 -2.365,1.031 -4.598,1.427 -4.573,2.099 0.047,1.079 0.917,1.708 0.917,1.708 z"
     id="path1290" />
  <path
     style="fill:#231f20;fill-opacity:1;fill-rule:nonzero;stroke:none"
     d="m 219.05093,23.418669 c -1.423,-3.314 0.224,-3.663 3.463,-6.147 3.532,-2.719 7.51,-5.172 10.709,-6.005 3.561,-0.937 3.609,-1.4570001 4.916,-0.052 1.308,1.401 0.756,1.953 0.527,3.213 -0.262,1.475 -7.271,3.693 -10.938,6.719 -1.714,1.417 -4.917,5.928 -6.073,5.053 -1.161,-0.876 -2.604,-2.781 -2.604,-2.781"
     id="path1291" />
  <path
     style="fill:none;stroke:#231f20;stroke-width:0.565977;stroke-linecap:butt;stroke-linejoin:miter;stroke-miterlimit:4;stroke-dasharray:none;stroke-opacity:1"
     d="m 219.05093,23.418669 c -1.423,-3.314 0.224,-3.663 3.463,-6.147 3.532,-2.719 7.51,-5.172 10.709,-6.005 3.561,-0.937 3.609,-1.4570001 4.916,-0.052 1.308,1.401 0.756,1.953 0.527,3.213 -0.262,1.475 -7.271,3.693 -10.938,6.719 -1.714,1.417 -4.917,5.928 -6.073,5.053 -1.161,-0.876 -2.604,-2.781 -2.604,-2.781 z"
     id="path1292" />
  <path
     style="fill:#231f20;fill-opacity:1;fill-rule:nonzero;stroke:none"
     d="m 236.97193,13.142669 c -1.338,-1.833 -1.749,-2.344 0.475,-3.4850001 0.567,-0.287 2.208,-0.979 2.495,-1.244 0.953,-0.88 2.124,-1.819 8.509,-3.448 0.991,-0.256 2.793,-1.058 4.123,-1.522 1.28,-0.453 1.15,1.984 0.65,2.162 -1.61,0.589 -2.52,1.313 -3.07,1.598 -0.38,0.204 -1.15,0.454 -2.39,1.563 -3.188,2.8550001 -4.953,2.5210001 -5.677,3.0630001 -2.063,1.557 -3.505,3.302 -4.079,2.953 -0.916,-0.574 -1.036,-1.64 -1.036,-1.64"
     id="path1293" />
  <path
     style="fill:none;stroke:#231f20;stroke-width:0.565977;stroke-linecap:butt;stroke-linejoin:miter;stroke-miterlimit:4;stroke-dasharray:none;stroke-opacity:1"
     d="m 236.97193,13.142669 c -1.338,-1.833 -1.749,-2.344 0.475,-3.4850001 0.567,-0.287 2.208,-0.979 2.495,-1.244 0.953,-0.88 2.124,-1.819 8.509,-3.448 0.991,-0.256 2.793,-1.058 4.123,-1.522 1.28,-0.453 1.15,1.984 0.65,2.162 -1.61,0.589 -2.52,1.313 -3.07,1.598 -0.38,0.204 -1.15,0.454 -2.39,1.563 -3.188,2.8550001 -4.953,2.5210001 -5.677,3.0630001 -2.063,1.557 -3.505,3.302 -4.079,2.953 -0.916,-0.574 -1.036,-1.64 -1.036,-1.64 z"
     id="path1294" />
  <path
     style="fill:#231f20;fill-opacity:1;fill-rule:nonzero;stroke:none"
     d="m 253.84393,0.70366886 c -0.67,0.063 -1.18,1.79800004 -2.84,2.84400004 -0.35,0.219 -0.52,0.558 -0.74,0.85 -0.901,1.208 -1.052,2.802 2.59,1.656 0.51,-0.162 2.07,-1.568 2.84,-1.744 1.81,-0.418 3.46,-3.303 3.08,-3.65800004 -0.81,-0.77 -4.93,0.052 -4.93,0.052"
     id="path1295" />
  <path
     style="fill:none;stroke:#231f20;stroke-width:0.644548;stroke-linecap:round;stroke-linejoin:round;stroke-miterlimit:4;stroke-dasharray:none;stroke-opacity:1"
     d="m 253.84393,0.70366886 c -0.67,0.063 -1.18,1.79800004 -2.84,2.84400004 -0.35,0.219 -0.52,0.558 -0.74,0.85 -0.901,1.208 -1.052,2.802 2.59,1.656 0.51,-0.162 2.07,-1.568 2.84,-1.744 1.81,-0.418 3.46,-3.303 3.08,-3.65800004 -0.81,-0.77 -4.93,0.052 -4.93,0.052 z"
     id="path1296" />
  <path
     style="fill:#231f20;fill-opacity:1;fill-rule:nonzero;stroke:none"
     d="m 258.39393,7.8236689 c -0.37,0.552 -2.14,0.172 -3.85,1.142 -0.35,0.197 -0.73,0.186 -1.1,0.244 -1.49,0.213 -2.96,-0.411 -0.21,-3.067 0.38,-0.371 2.36,-1.079 2.88,-1.663 1.22,-1.4 4.55,-1.468 4.68,-0.968 0.29,1.079 -2.4,4.312 -2.4,4.312"
     id="path1297" />
  <path
     style="fill:none;stroke:#231f20;stroke-width:0.644548;stroke-linecap:round;stroke-linejoin:round;stroke-miterlimit:4;stroke-dasharray:none;stroke-opacity:1"
     d="m 258.39393,7.8236689 c -0.37,0.552 -2.14,0.172 -3.85,1.142 -0.35,0.197 -0.73,0.186 -1.1,0.244 -1.49,0.213 -2.96,-0.411 -0.21,-3.067 0.38,-0.371 2.36,-1.079 2.88,-1.663 1.22,-1.4 4.55,-1.468 4.68,-0.968 0.29,1.079 -2.4,4.312 -2.4,4.312 z"
     id="path1298" />
  <path
     style="fill:#63c99d;fill-opacity:1;fill-rule:nonzero;stroke:none"
     d="m 230.58193,22.328669 c -0.094,-0.489 -0.635,-1 -0.635,-1 0,0 -7.245,2.12 -9.256,-0.254 l -0.083,-0.35 c 0.678,-1.057 0.307,-0.286 -0.422,-0.156 -5.364,1.334 -8.239,-0.557 -9.506,-0.974 -1.744,-0.572 -3.186,-2.443 -4.385,-1.599 0,0 -1.5,0.391 -1.635,3.199 -0.057,1.145 0.886,3.702 0.886,3.702 0.041,-0.016 0.077,-0.036 0.114,-0.041 1.235,-0.245 2.146,0.667 2.422,1.973 l -0.016,-0.073 c 0.24,1.313 -1.14,1.901 -2.307,2.131 -0.047,0.01 -0.235,1.161 -0.281,1.156 0,0 -0.235,2.813 0.62,3.808 0.374,0.432 1.249,0.645 1.249,0.645 2.057,0.677 4.495,-0.849 5.881,-2.047 1.015,-0.874 2.078,-0.604 5.25,-1.302 0.729,-0.156 6.474,-1.791 5.453,-2.51 l -0.052,-0.354 c 0.943,-2.97 6.495,-4.787 6.495,-4.787 0,0 0.306,-0.683 0.208,-1.167"
     id="path1299" />
  <path
     style="fill:none;stroke:#231f20;stroke-width:0.565977;stroke-linecap:round;stroke-linejoin:round;stroke-miterlimit:4;stroke-dasharray:none;stroke-opacity:1"
     d="m 230.58193,22.328669 c -0.094,-0.489 -0.635,-1 -0.635,-1 0,0 -7.245,2.12 -9.256,-0.254 l -0.083,-0.35 c 0.678,-1.057 0.307,-0.286 -0.422,-0.156 -5.364,1.334 -8.239,-0.557 -9.506,-0.974 -1.744,-0.572 -3.186,-2.443 -4.385,-1.599 0,0 -1.5,0.391 -1.635,3.199 -0.057,1.145 0.886,3.702 0.886,3.702 0.041,-0.016 0.077,-0.036 0.114,-0.041 1.235,-0.245 2.146,0.667 2.422,1.973 l -0.016,-0.073 c 0.24,1.313 -1.14,1.901 -2.307,2.131 -0.047,0.01 -0.235,1.161 -0.281,1.156 0,0 -0.235,2.813 0.62,3.808 0.374,0.432 1.249,0.645 1.249,0.645 2.057,0.677 4.495,-0.849 5.881,-2.047 1.015,-0.874 2.078,-0.604 5.25,-1.302 0.729,-0.156 6.474,-1.791 5.453,-2.51 l -0.052,-0.354 c 0.943,-2.97 6.495,-4.787 6.495,-4.787 0,0 0.306,-0.683 0.208,-1.167 z"
     id="path1300" />
  <path
     style="fill:#ffffff;fill-opacity:1;fill-rule:nonzero;stroke:none"
     d="m 202.05093,23.620669 c -2.683,-0.885 -5.391,-0.005 -6.037,1.964 -0.651,1.974 0.994,4.291 3.672,5.182 2.688,0.885 5.385,0.016 6.037,-1.963 0.656,-1.975 -0.991,-4.292 -3.672,-5.183"
     id="path1301" />
  <path
     style="fill:none;stroke:#231f20;stroke-width:0.565977;stroke-linecap:butt;stroke-linejoin:miter;stroke-miterlimit:4;stroke-dasharray:none;stroke-opacity:1"
     d="m 202.05093,23.620669 c -2.683,-0.885 -5.391,-0.005 -6.037,1.964 -0.651,1.974 0.994,4.291 3.672,5.182 2.688,0.885 5.385,0.016 6.037,-1.963 0.656,-1.975 -0.991,-4.292 -3.672,-5.183 z"
     id="path1302" />
  <path
     style="fill:#231f20;fill-opacity:1;fill-rule:nonzero;stroke:none"
     d="m 218.99393,17.912669 c -0.24,-1.27 -2.142,-0.537 -2.662,-0.417 -0.532,0.115 -2.084,0.276 -3.302,0.251 -1.23,-0.027 -2.771,0.462 -5.094,0.416 -1.218,-0.026 -2.428,0.724 -2.385,2.5 0.041,1.756 1.041,2.396 2.525,2.204 1.48,-0.194 2.798,-1.006 4.276,-1.303 1.48,-0.303 3.022,-0.464 4.235,-0.541 1.38,-0.084 2.032,-0.631 2.188,-1.084 0.4,-1.13 0.219,-2.026 0.219,-2.026"
     id="path1303" />
  <path
     style="fill:none;stroke:#231f20;stroke-width:0.565977;stroke-linecap:butt;stroke-linejoin:miter;stroke-miterlimit:4;stroke-dasharray:none;stroke-opacity:1"
     d="m 218.99393,17.912669 c -0.24,-1.27 -2.142,-0.537 -2.662,-0.417 -0.532,0.115 -2.084,0.276 -3.302,0.251 -1.23,-0.027 -2.771,0.462 -5.094,0.416 -1.218,-0.026 -2.428,0.724 -2.385,2.5 0.041,1.756 1.041,2.396 2.525,2.204 1.48,-0.194 2.798,-1.006 4.276,-1.303 1.48,-0.303 3.022,-0.464 4.235,-0.541 1.38,-0.084 2.032,-0.631 2.188,-1.084 0.4,-1.13 0.219,-2.026 0.219,-2.026 z"
     id="path1304" />
  <path
     style="fill:#63c99d;fill-opacity:1;fill-rule:nonzero;stroke:none"
     d="m 222.60293,29.735669 c 0.349,0.063 1.713,0.099 2.177,0.063 2.958,-0.256 6.452,-2.099 7.687,-2.412 1.24,-0.318 -1.765,-6.187 -1.765,-6.187 l -1.912,0.421 c 0.188,-0.598 -0.432,-0.885 -0.432,-0.885 l 1.557,-1.287 c 0,0 -2.661,-5.885 -3.489,-5.306 -1.146,0.801 -5.251,2.942 -6.85,4.796 -0.885,1.016 -1.134,2.005 -1.134,2.005 0,0 2.593,2.776 3.233,4.052 0.636,1.276 0.928,4.74 0.928,4.74"
     id="path1305" />
  <path
     style="fill:none;stroke:#231f20;stroke-width:0.565977;stroke-linecap:round;stroke-linejoin:round;stroke-miterlimit:4;stroke-dasharray:none;stroke-opacity:1"
     d="m 222.60293,29.735669 c 0.349,0.063 1.713,0.099 2.177,0.063 2.958,-0.256 6.452,-2.099 7.687,-2.412 1.24,-0.318 -1.765,-6.187 -1.765,-6.187 l -1.912,0.421 c 0.188,-0.598 -0.432,-0.885 -0.432,-0.885 l 1.557,-1.287 c 0,0 -2.661,-5.885 -3.489,-5.306 -1.146,0.801 -5.251,2.942 -6.85,4.796 -0.885,1.016 -1.134,2.005 -1.134,2.005 0,0 2.593,2.776 3.233,4.052 0.636,1.276 0.928,4.74 0.928,4.74 z"
     id="path1306" />
  <path
     style="fill:#231f20;fill-opacity:1;fill-rule:nonzero;stroke:none"
     d="m 224.36293,53.708669 c -0.729,-0.077 -3.645,-1.514 -4.292,-1.885 -0.583,-0.312 -1.724,-0.525 -1.651,-1.681 0.016,-0.459 0.386,-1.12 0.604,-1.35 0.183,-0.193 0.506,-0.13 0.834,0.094 0.552,0.374 0.568,0.698 1.589,1.469 0,0 0.213,0.219 0.557,0.64 1.067,1.235 0.484,0.792 2.427,2.245 0.135,0.094 0.135,0.302 0.063,0.391 -0.126,0.14 -0.131,0.077 -0.131,0.077"
     id="path1307" />
  <path
     style="fill:none;stroke:#231f20;stroke-width:0.565977;stroke-linecap:round;stroke-linejoin:round;stroke-miterlimit:4;stroke-dasharray:none;stroke-opacity:1"
     d="m 224.36293,53.708669 c -0.729,-0.077 -3.645,-1.514 -4.292,-1.885 -0.583,-0.312 -1.724,-0.525 -1.651,-1.681 0.016,-0.459 0.386,-1.12 0.604,-1.35 0.183,-0.193 0.506,-0.13 0.834,0.094 0.552,0.374 0.568,0.698 1.589,1.469 0,0 0.213,0.219 0.557,0.64 1.067,1.235 0.484,0.792 2.427,2.245 0.135,0.094 0.135,0.302 0.063,0.391 -0.126,0.14 -0.131,0.077 -0.131,0.077 z"
     id="path1308" />
  <path
     style="fill:#231f20;fill-opacity:1;fill-rule:nonzero;stroke:none"
     d="m 232.93593,25.735669 c -0.724,0.135 -3.928,-0.412 -4.65,-0.579 -0.652,-0.134 -1.808,-0.01 -2.063,-1.145 -0.115,-0.443 0.047,-1.183 0.192,-1.469 0.12,-0.23 0.443,-0.26 0.823,-0.14 0.641,0.197 0.745,0.505 1.942,0.953 0,0 0.267,0.151 0.719,0.453 1.376,0.88 0.688,0.624 2.964,1.458 0.161,0.052 0.219,0.256 0.177,0.36 -0.084,0.166 -0.104,0.109 -0.104,0.109"
     id="path1309" />
  <path
     style="fill:none;stroke:#231f20;stroke-width:0.565977;stroke-linecap:round;stroke-linejoin:round;stroke-miterlimit:4;stroke-dasharray:none;stroke-opacity:1"
     d="m 232.93593,25.735669 c -0.724,0.135 -3.928,-0.412 -4.65,-0.579 -0.652,-0.134 -1.808,-0.01 -2.063,-1.145 -0.115,-0.443 0.047,-1.183 0.192,-1.469 0.12,-0.23 0.443,-0.26 0.823,-0.14 0.641,0.197 0.745,0.505 1.942,0.953 0,0 0.267,0.151 0.719,0.453 1.376,0.88 0.688,0.624 2.964,1.458 0.161,0.052 0.219,0.256 0.177,0.36 -0.084,0.166 -0.104,0.109 -0.104,0.109 z"
     id="path1310" />
  <path
     style="fill:#231f20;fill-opacity:1;fill-rule:nonzero;stroke:none"
     d="m 219.45093,49.052669 c -0.223,-0.593 -1.932,-1.546 -2.943,-2.792 -0.681,-0.848 -3.118,-2.093 -3.728,-2.989 -0.573,-0.817 -0.906,-1.14 -1.948,-0.661 -0.614,0.286 -1.63,1.24 -1.437,1.708 0.447,1.104 1.113,1.77 2.02,2.349 1.021,0.661 3.948,2.203 4.516,2.437 1.411,0.579 1.771,1.219 2.125,1.407 0.676,0.355 0.979,0.177 1.307,-0.199 0.615,-0.733 0.088,-1.26 0.088,-1.26"
     id="path1311" />
  <path
     style="fill:none;stroke:#231f20;stroke-width:0.565977;stroke-linecap:butt;stroke-linejoin:miter;stroke-miterlimit:4;stroke-dasharray:none;stroke-opacity:1"
     d="m 219.45093,49.052669 c -0.223,-0.593 -1.932,-1.546 -2.943,-2.792 -0.681,-0.848 -3.118,-2.093 -3.728,-2.989 -0.573,-0.817 -0.906,-1.14 -1.948,-0.661 -0.614,0.286 -1.63,1.24 -1.437,1.708 0.447,1.104 1.113,1.77 2.02,2.349 1.021,0.661 3.948,2.203 4.516,2.437 1.411,0.579 1.771,1.219 2.125,1.407 0.676,0.355 0.979,0.177 1.307,-0.199 0.615,-0.733 0.088,-1.26 0.088,-1.26 z"
     id="path1312" />
  <path
     style="fill:#231f20;fill-opacity:1;fill-rule:nonzero;stroke:none"
     d="m 212.37393,45.240669 c 1.254,-0.349 0.349,-2.177 0.188,-2.693 -0.172,-0.52 -0.47,-2.047 -0.543,-3.265 -0.083,-1.224 -0.703,-2.714 -0.859,-5.031 -0.078,-1.224 -0.932,-2.36 -2.698,-2.163 -1.744,0.188 -2.296,1.246 -1.968,2.71 0.317,1.458 1.234,2.697 1.666,4.145 0.427,1.448 0.73,2.969 0.902,4.167 0.208,1.369 0.812,1.974 1.28,2.084 1.152,0.306 2.032,0.046 2.032,0.046"
     id="path1313" />
  <path
     style="fill:none;stroke:#231f20;stroke-width:0.565977;stroke-linecap:butt;stroke-linejoin:miter;stroke-miterlimit:4;stroke-dasharray:none;stroke-opacity:1"
     d="m 212.37393,45.240669 c 1.254,-0.349 0.349,-2.177 0.188,-2.693 -0.172,-0.52 -0.47,-2.047 -0.543,-3.265 -0.083,-1.224 -0.703,-2.714 -0.859,-5.031 -0.078,-1.224 -0.932,-2.36 -2.698,-2.163 -1.744,0.188 -2.296,1.246 -1.968,2.71 0.317,1.458 1.234,2.697 1.666,4.145 0.427,1.448 0.73,2.969 0.902,4.167 0.208,1.369 0.812,1.974 1.28,2.084 1.152,0.306 2.032,0.046 2.032,0.046 z"
     id="path1314" />
  <path
     style="fill:#231f20;fill-opacity:1;fill-rule:nonzero;stroke:none"
     d="m 227.41993,22.380669 c -0.302,-0.562 -2.13,-1.254 -3.302,-2.353 -0.786,-0.751 -3.38,-1.647 -4.11,-2.448 -0.67,-0.735 -1.046,-1.005 -2.014,-0.385 -0.574,0.369 -1.438,1.448 -1.183,1.89 0.593,1.036 1.355,1.604 2.317,2.052 1.11,0.51 4.219,1.635 4.814,1.787 1.473,0.375 1.921,0.963 2.301,1.099 0.719,0.26 0.995,0.046 1.265,-0.38 0.506,-0.814 -0.088,-1.262 -0.088,-1.262"
     id="path1315" />
  <path
     style="fill:none;stroke:#231f20;stroke-width:0.565977;stroke-linecap:butt;stroke-linejoin:miter;stroke-miterlimit:4;stroke-dasharray:none;stroke-opacity:1"
     d="m 227.41993,22.380669 c -0.302,-0.562 -2.13,-1.254 -3.302,-2.353 -0.786,-0.751 -3.38,-1.647 -4.11,-2.448 -0.67,-0.735 -1.046,-1.005 -2.014,-0.385 -0.574,0.369 -1.438,1.448 -1.183,1.89 0.593,1.036 1.355,1.604 2.317,2.052 1.11,0.51 4.219,1.635 4.814,1.787 1.473,0.375 1.921,0.963 2.301,1.099 0.719,0.26 0.995,0.046 1.265,-0.38 0.506,-0.814 -0.088,-1.262 -0.088,-1.262 z"
     id="path1316" />
  <path
     style="fill:#63c99d;fill-opacity:1;fill-rule:nonzero;stroke:none"
     d="m 279.86393,31.714669 c 3.11,-0.432 3.73,-0.864 4.52,-1.344 4.95,-2.974 6.32,-0.49 6.2,2.39 -0.15,3.391 -0.13,4.606 -6.42,4.882 -1.75,0.072 -8.43,1.238 -8.43,1.238 -2.33,0.74 -5,0.219 -5.98,-0.864 -1.02,-1.146 -0.53,-0.765 -1.29,-1.989 -0.72,-1.172 -0.77,-3.36 0.15,-4.177 0.89,-0.792 2.48,-0.287 4.86,0.14 1.88,0.344 6.39,-0.276 6.39,-0.276"
     id="path1317" />
  <path
     style="fill:none;stroke:#231f20;stroke-width:0.565977;stroke-linecap:butt;stroke-linejoin:miter;stroke-miterlimit:4;stroke-dasharray:none;stroke-opacity:1"
     d="m 279.86393,31.714669 c 3.11,-0.432 3.73,-0.864 4.52,-1.344 4.95,-2.974 6.32,-0.49 6.2,2.39 -0.15,3.391 -0.13,4.606 -6.42,4.882 -1.75,0.072 -8.43,1.238 -8.43,1.238 -2.33,0.74 -5,0.219 -5.98,-0.864 -1.02,-1.146 -0.53,-0.765 -1.29,-1.989 -0.72,-1.172 -0.77,-3.36 0.15,-4.177 0.89,-0.792 2.48,-0.287 4.86,0.14 1.88,0.344 6.39,-0.276 6.39,-0.276 z"
     id="path1318" />
  <path
     style="fill:#ffffff;fill-opacity:1;fill-rule:nonzero;stroke:none"
     d="m 259.78393,35.568669 c -0.2,-0.141 -1.1,0.578 -1.45,0.198 -0.36,-0.386 0.06,-1.052 -0.54,-2.943 l -0.01,-0.025 c -0.49,-1.366 -0.37,-2.751 0.47,-3.678 1.41,-1.536 4.23,-1.24 6.32,0.656 2.09,1.902 2.65,4.694 1.25,6.224 -1.33,1.475 -3.99,1.26 -6.04,-0.432"
     id="path1319" />
  <path
     style="fill:none;stroke:#231f20;stroke-width:0.565977;stroke-linecap:butt;stroke-linejoin:miter;stroke-miterlimit:4;stroke-dasharray:none;stroke-opacity:1"
     d="m 259.78393,35.568669 c -0.2,-0.141 -1.1,0.578 -1.45,0.198 -0.36,-0.386 0.06,-1.052 -0.54,-2.943 l -0.01,-0.025 c -0.49,-1.366 -0.37,-2.751 0.47,-3.678 1.41,-1.536 4.23,-1.24 6.32,0.656 2.09,1.902 2.65,4.694 1.25,6.224 -1.33,1.475 -3.99,1.26 -6.04,-0.432 z"
     id="path1320" />
  <path
     style="fill:#231f20;fill-opacity:1;fill-rule:nonzero;stroke:none"
     d="m 272.80393,55.735669 c 0.35,-0.536 0.09,-2.475 0.51,-4.027 0.28,-1.046 -0.16,-3.754 0.2,-4.776 0.32,-0.942 0.38,-1.405 -0.62,-1.957 -0.6,-0.333 -1.96,-0.584 -2.23,-0.147 -0.62,1.016 -0.77,1.948 -0.7,3.016 0.08,1.214 0.57,4.484 0.71,5.083 0.37,1.475 0.07,2.147 0.13,2.552 0.11,0.751 0.43,0.891 0.92,0.928 0.97,0.063 1.08,-0.672 1.08,-0.672"
     id="path1321" />
  <path
     style="fill:none;stroke:#231f20;stroke-width:0.565977;stroke-linecap:butt;stroke-linejoin:miter;stroke-miterlimit:4;stroke-dasharray:none;stroke-opacity:1"
     d="m 272.80393,55.735669 c 0.35,-0.536 0.09,-2.475 0.51,-4.027 0.28,-1.046 -0.16,-3.754 0.2,-4.776 0.32,-0.942 0.38,-1.405 -0.62,-1.957 -0.6,-0.333 -1.96,-0.584 -2.23,-0.147 -0.62,1.016 -0.77,1.948 -0.7,3.016 0.08,1.214 0.57,4.484 0.71,5.083 0.37,1.475 0.07,2.147 0.13,2.552 0.11,0.751 0.43,0.891 0.92,0.928 0.97,0.063 1.08,-0.672 1.08,-0.672 z"
     id="path1322" />
  <path
     style="fill:#231f20;fill-opacity:1;fill-rule:nonzero;stroke:none"
     d="m 272.89393,46.672669 c 1.29,-0.13 0.71,-2.082 0.64,-2.614 -0.07,-0.547 -0.1,-2.099 0.04,-3.312 0.12,-1.224 -0.23,-2.798 0.02,-5.11 0.13,-1.214 -0.51,-2.485 -2.28,-2.594 -1.76,-0.115 -2.48,0.828 -2.42,2.328 0.07,1.496 0.76,2.87 0.93,4.37 0.17,1.506 0.21,3.047 0.17,4.266 -0.04,1.38 0.46,2.078 0.9,2.27 1.08,0.5 2,0.396 2,0.396"
     id="path1323" />
  <path
     style="fill:none;stroke:#231f20;stroke-width:0.565977;stroke-linecap:butt;stroke-linejoin:miter;stroke-miterlimit:4;stroke-dasharray:none;stroke-opacity:1"
     d="m 272.89393,46.672669 c 1.29,-0.13 0.71,-2.082 0.64,-2.614 -0.07,-0.547 -0.1,-2.099 0.04,-3.312 0.12,-1.224 -0.23,-2.798 0.02,-5.11 0.13,-1.214 -0.51,-2.485 -2.28,-2.594 -1.76,-0.115 -2.48,0.828 -2.42,2.328 0.07,1.496 0.76,2.87 0.93,4.37 0.17,1.506 0.21,3.047 0.17,4.266 -0.04,1.38 0.46,2.078 0.9,2.27 1.08,0.5 2,0.396 2,0.396 z"
     id="path1324" />
  <path
     style="fill:#231f20;fill-opacity:1;fill-rule:nonzero;stroke:none"
     d="m 303.98393,25.490669 c -1.21,-1.911 -1.19,-2.448 -0.41,-3.011 0.51,-0.385 0.86,-0.9 1.16,-1.145 1.01,-0.818 3.05,-1.771 9.52,-2.974 1.46,-0.266 3.53,-0.666 4.35,-0.896 1.31,-0.354 1.02,2.063 0.51,2.208 -1.65,0.474 -2.74,0.932 -3.31,1.183 -0.39,0.172 -1.12,0.385 -2.55,1.249 -2.16,1.314 -3.26,2.418 -5.18,3.298 -0.9,0.41 -1.3,1.281 -2.39,1.234 -1.09,-0.037 -1.7,-1.146 -1.7,-1.146"
     id="path1325" />
  <path
     style="fill:none;stroke:#231f20;stroke-width:0.565977;stroke-linecap:butt;stroke-linejoin:miter;stroke-miterlimit:4;stroke-dasharray:none;stroke-opacity:1"
     d="m 303.98393,25.490669 c -1.21,-1.911 -1.19,-2.448 -0.41,-3.011 0.51,-0.385 0.86,-0.9 1.16,-1.145 1.01,-0.818 3.05,-1.771 9.52,-2.974 1.46,-0.266 3.53,-0.666 4.35,-0.896 1.31,-0.354 1.02,2.063 0.51,2.208 -1.65,0.474 -2.74,0.932 -3.31,1.183 -0.39,0.172 -1.12,0.385 -2.55,1.249 -2.16,1.314 -3.26,2.418 -5.18,3.298 -0.9,0.41 -1.3,1.281 -2.39,1.234 -1.09,-0.037 -1.7,-1.146 -1.7,-1.146 z"
     id="path1326" />
  <path
     style="fill:#231f20;fill-opacity:1;fill-rule:nonzero;stroke:#231f20;stroke-width:0.565977;stroke-linecap:round;stroke-linejoin:round;stroke-miterlimit:4;stroke-dasharray:none;stroke-opacity:1"
     d="m 306.44393,25.932669 c -0.31,1.38 -2.42,1.823 -2.69,2.032 -3.98,3.052 -4.34,3.172 -7.52,5.282 -4.62,3.052 -8.24,4.432 -10.8,2.27 -1.73,-1.469 -2.1,-3.068 -1.68,-4.313 0.47,-1.38 2.75,-3.588 5.56,-2.9 l 1.63,-0.537 c 1.05,-0.495 1.57,-0.734 2.07,-1.015 0.87,-0.505 1.83,-0.985 3.58,-1.865 3.11,-1.563 6.89,-2.198 6.89,-2.198 0.29,-0.13 0.57,-0.136 0.83,-0.062"
     id="path1327" />
  <path
     style="fill:#63c99d;fill-opacity:1;fill-rule:nonzero;stroke:none"
     d="m 293.58393,34.839669 -4.38,-6.464 c -2.83,-0.583 -5.03,1.709 -5.45,3.109 -0.36,1.267 0.06,2.844 1.85,4.246 1.15,0.912 2.5,1.104 4.02,0.786 1.05,0.016 1.68,-0.005 2.17,-0.646 0.04,-0.058 0.1,-0.115 0.16,-0.167 0.53,-0.249 1.07,-0.531 1.63,-0.864"
     id="path1328" />
  <path
     style="fill:none;stroke:#231f20;stroke-width:0.565977;stroke-linecap:butt;stroke-linejoin:miter;stroke-miterlimit:4;stroke-dasharray:none;stroke-opacity:1"
     d="m 293.58393,34.839669 -4.38,-6.464 c -2.83,-0.583 -5.03,1.709 -5.45,3.109 -0.36,1.267 0.06,2.844 1.85,4.246 1.15,0.912 2.5,1.104 4.02,0.786 1.05,0.016 1.68,-0.005 2.17,-0.646 0.04,-0.058 0.1,-0.115 0.16,-0.167 0.53,-0.249 1.07,-0.531 1.63,-0.864 z"
     id="path1329" />
  <path
     style="fill:#231f20;fill-opacity:1;fill-rule:nonzero;stroke:none"
     d="m 320.74393,16.407669 c -1.2,-0.615 -1.94,0.047 -2.07,1.077 -0.05,0.308 -0.4,0.527 -0.42,0.828 -0.03,0.704 1.18,1.954 2.48,1.21 0.1,-0.052 0.89,-0.23 1.48,-0.454 1.13,-0.442 3.18,-1.869 3.62,-4.526 0.22,-1.26 -0.56,-1.156 -0.81,-0.672 -0.76,1.532 -1.13,1.521 -1.48,1.844 -1.17,1.125 -2.8,0.693 -2.8,0.693"
     id="path1330" />
  <path
     style="fill:none;stroke:#231f20;stroke-width:0.332927;stroke-linecap:butt;stroke-linejoin:miter;stroke-miterlimit:4;stroke-dasharray:none;stroke-opacity:1"
     d="m 320.74393,16.407669 c -1.2,-0.615 -1.94,0.047 -2.07,1.077 -0.05,0.308 -0.4,0.527 -0.42,0.828 -0.03,0.704 1.18,1.954 2.48,1.21 0.1,-0.052 0.89,-0.23 1.48,-0.454 1.13,-0.442 3.18,-1.869 3.62,-4.526 0.22,-1.26 -0.56,-1.156 -0.81,-0.672 -0.76,1.532 -1.13,1.521 -1.48,1.844 -1.17,1.125 -2.8,0.693 -2.8,0.693 z"
     id="path1331" />
  <path
     style="fill:#231f20;fill-opacity:1;fill-rule:nonzero;stroke:none"
     d="m 268.97393,56.850669 c -0.14,1.172002 0.71,2.224002 1.88,2.353002 1.17,0.131 2.22,-0.713 2.36,-1.88 0.13,-1.172002 -0.72,-2.224002 -1.89,-2.359002 -1.17,-0.13 -2.22,0.714 -2.35,1.886"
     id="path1332" />
  <path
     style="fill:none;stroke:#231f20;stroke-width:0.399514;stroke-linecap:butt;stroke-linejoin:miter;stroke-miterlimit:4;stroke-dasharray:none;stroke-opacity:1"
     d="m 38.732928,41.256669 c -7.338,58.380002 67.390002,83.067001 125.433002,56.714002"
     id="path1333" />
  <path
     style="fill:#231f20;fill-opacity:1;fill-rule:nonzero;stroke:none"
     d="m 165.26393,97.470671 c -0.426,0.426 -0.922,1.046 -1.161,1.572 l -0.079,-1.01 -0.708,-0.724 c 0.558,0.167 1.344,0.203 1.948,0.162"
     id="path1334" />
  <path
     style="fill:#63c99d;fill-opacity:1;fill-rule:nonzero;stroke:none"
     d="m 67.737928,31.334669 c -3.036,-0.776 -3.604,-1.271 -4.339,-1.839 -4.588,-3.511 -6.228,-1.187 -6.421,1.688 -0.235,3.385 -0.385,4.593 5.833,5.563 1.735,0.27 8.23,2.166 8.23,2.166 2.245,1 4.953,0.776 6.041,-0.188 1.151,-1.025 0.62,-0.702 1.511,-1.833 0.849,-1.088 1.14,-3.255 0.312,-4.172 -0.791,-0.88 -2.427,-0.557 -4.843,-0.396 -1.912,0.125 -6.324,-0.989 -6.324,-0.989"
     id="path1335" />
  <path
     style="fill:none;stroke:#231f20;stroke-width:0.565977;stroke-linecap:butt;stroke-linejoin:miter;stroke-miterlimit:4;stroke-dasharray:none;stroke-opacity:1"
     d="m 67.737928,31.334669 c -3.036,-0.776 -3.604,-1.271 -4.339,-1.839 -4.588,-3.511 -6.228,-1.187 -6.421,1.688 -0.235,3.385 -0.385,4.593 5.833,5.563 1.735,0.27 8.23,2.166 8.23,2.166 2.245,1 4.953,0.776 6.041,-0.188 1.151,-1.025 0.62,-0.702 1.511,-1.833 0.849,-1.088 1.14,-3.255 0.312,-4.172 -0.791,-0.88 -2.427,-0.557 -4.843,-0.396 -1.912,0.125 -6.324,-0.989 -6.324,-0.989 z"
     id="path1336" />
  <path
     style="fill:#ffffff;fill-opacity:1;fill-rule:nonzero;stroke:none"
     d="m 87.269928,37.402669 c 0.213,-0.126 1.025,0.692 1.421,0.353 0.402,-0.343 0.052,-1.052 0.871,-2.864 l 0.009,-0.021 c 0.636,-1.307 0.667,-2.698 -0.066,-3.708 -1.224,-1.687 -4.068,-1.703 -6.35,-0.052 -2.292,1.656 -3.15,4.369 -1.937,6.046 1.161,1.61 3.828,1.699 6.052,0.246"
     id="path1337" />
  <path
     style="fill:none;stroke:#231f20;stroke-width:0.565977;stroke-linecap:butt;stroke-linejoin:miter;stroke-miterlimit:4;stroke-dasharray:none;stroke-opacity:1"
     d="m 87.269928,37.402669 c 0.213,-0.126 1.025,0.692 1.421,0.353 0.402,-0.343 0.052,-1.052 0.871,-2.864 l 0.009,-0.021 c 0.636,-1.307 0.667,-2.698 -0.066,-3.708 -1.224,-1.687 -4.068,-1.703 -6.35,-0.052 -2.292,1.656 -3.15,4.369 -1.937,6.046 1.161,1.61 3.828,1.699 6.052,0.246 z"
     id="path1338" />
  <path
     style="fill:#231f20;fill-opacity:1;fill-rule:nonzero;stroke:none"
     d="m 72.086928,55.990669 c -0.286,-0.572 0.183,-2.468 -0.057,-4.058 -0.161,-1.072 0.579,-3.713 0.333,-4.77 -0.218,-0.968 -0.229,-1.438 0.834,-1.875 0.63,-0.26 2.016,-0.36 2.229,0.104 0.511,1.079 0.547,2.021 0.359,3.073 -0.208,1.203 -1.062,4.396 -1.271,4.974 -0.531,1.428 -0.301,2.13 -0.405,2.521 -0.199,0.735 -0.532,0.839 -1.032,0.817 -0.963,-0.041 -0.99,-0.786 -0.99,-0.786"
     id="path1339" />
  <path
     style="fill:none;stroke:#231f20;stroke-width:0.565977;stroke-linecap:butt;stroke-linejoin:miter;stroke-miterlimit:4;stroke-dasharray:none;stroke-opacity:1"
     d="m 72.086928,55.990669 c -0.286,-0.572 0.183,-2.468 -0.057,-4.058 -0.161,-1.072 0.579,-3.713 0.333,-4.77 -0.218,-0.968 -0.229,-1.438 0.834,-1.875 0.63,-0.26 2.016,-0.36 2.229,0.104 0.511,1.079 0.547,2.021 0.359,3.073 -0.208,1.203 -1.062,4.396 -1.271,4.974 -0.531,1.428 -0.301,2.13 -0.405,2.521 -0.199,0.735 -0.532,0.839 -1.032,0.817 -0.963,-0.041 -0.99,-0.786 -0.99,-0.786 z"
     id="path1340" />
  <path
     style="fill:#231f20;fill-opacity:1;fill-rule:nonzero;stroke:none"
     d="m 73.008928,46.975669 c -1.266,-0.272 -0.479,-2.152 -0.348,-2.672 0.129,-0.532 0.333,-2.073 0.333,-3.292 0.005,-1.229 0.536,-2.755 0.547,-5.084 0,-1.224 0.781,-2.405 2.557,-2.323 1.755,0.084 2.364,1.099 2.135,2.584 -0.228,1.474 -1.072,2.766 -1.406,4.239 -0.338,1.475 -0.541,3.005 -0.646,4.219 -0.115,1.376 -0.682,2.016 -1.14,2.162 -1.136,0.375 -2.032,0.167 -2.032,0.167"
     id="path1341" />
  <path
     style="fill:none;stroke:#231f20;stroke-width:0.565977;stroke-linecap:butt;stroke-linejoin:miter;stroke-miterlimit:4;stroke-dasharray:none;stroke-opacity:1"
     d="m 73.008928,46.975669 c -1.266,-0.272 -0.479,-2.152 -0.348,-2.672 0.129,-0.532 0.333,-2.073 0.333,-3.292 0.005,-1.229 0.536,-2.755 0.547,-5.084 0,-1.224 0.781,-2.405 2.557,-2.323 1.755,0.084 2.364,1.099 2.135,2.584 -0.228,1.474 -1.072,2.766 -1.406,4.239 -0.338,1.475 -0.541,3.005 -0.646,4.219 -0.115,1.376 -0.682,2.016 -1.14,2.162 -1.136,0.375 -2.032,0.167 -2.032,0.167 z"
     id="path1342" />
  <path
     style="fill:#231f20;fill-opacity:1;fill-rule:nonzero;stroke:none"
     d="m 44.466928,22.464669 c 1.418,-1.761 1.454,-2.297 0.74,-2.942 -0.469,-0.438 -0.75,-0.995 -1.026,-1.271 -0.911,-0.923 -2.834,-2.1 -9.13,-4.016 -1.422,-0.427 -3.428,-1.052 -4.224,-1.375 -1.261,-0.494 -1.245,1.938 -0.75,2.14 1.589,0.656 2.62,1.235 3.156,1.547 0.37,0.213 1.073,0.505 2.396,1.521 2,1.542 2.969,2.766 4.781,3.855 0.849,0.509 1.156,1.421 2.235,1.495 1.088,0.082 1.822,-0.954 1.822,-0.954"
     id="path1343" />
  <path
     style="fill:none;stroke:#231f20;stroke-width:0.565977;stroke-linecap:butt;stroke-linejoin:miter;stroke-miterlimit:4;stroke-dasharray:none;stroke-opacity:1"
     d="m 44.466928,22.464669 c 1.418,-1.761 1.454,-2.297 0.74,-2.942 -0.469,-0.438 -0.75,-0.995 -1.026,-1.271 -0.911,-0.923 -2.834,-2.1 -9.13,-4.016 -1.422,-0.427 -3.428,-1.052 -4.224,-1.375 -1.261,-0.494 -1.245,1.938 -0.75,2.14 1.589,0.656 2.62,1.235 3.156,1.547 0.37,0.213 1.073,0.505 2.396,1.521 2,1.542 2.969,2.766 4.781,3.855 0.849,0.509 1.156,1.421 2.235,1.495 1.088,0.082 1.822,-0.954 1.822,-0.954 z"
     id="path1344" />
  <path
     style="fill:#231f20;fill-opacity:1;fill-rule:nonzero;stroke:#231f20;stroke-width:0.565977;stroke-linecap:round;stroke-linejoin:round;stroke-miterlimit:4;stroke-dasharray:none;stroke-opacity:1"
     d="m 41.966928,22.631669 c 0.162,1.411 2.208,2.077 2.454,2.317 3.609,3.479 3.958,3.636 6.89,6.084 4.24,3.552 7.688,5.328 10.474,3.463 1.886,-1.265 2.422,-2.812 2.146,-4.099 -0.308,-1.426 -2.338,-3.874 -5.202,-3.505 l -1.558,-0.713 c -0.996,-0.61 -1.48,-0.907 -1.948,-1.24 -0.802,-0.599 -1.709,-1.183 -3.349,-2.25 -2.912,-1.896 -6.604,-2.953 -6.604,-2.953 -0.265,-0.156 -0.547,-0.193 -0.808,-0.151"
     id="path1345" />
  <path
     style="fill:#63c99d;fill-opacity:1;fill-rule:nonzero;stroke:none"
     d="m 63.898928,30.672669 c -0.254,-1.437 -2.192,-3.964 -5.066,-3.697 l -5.079,5.943 c 0.527,0.394 1.031,0.728 1.532,1.036 0.052,0.062 0.104,0.125 0.14,0.188 0.421,0.692 1.041,0.781 2.079,0.88 1.478,0.484 2.837,0.442 4.093,-0.334 1.927,-1.193 2.525,-2.718 2.301,-4.016"
     id="path1346" />
  <path
     style="fill:none;stroke:#231f20;stroke-width:0.565977;stroke-linecap:butt;stroke-linejoin:miter;stroke-miterlimit:4;stroke-dasharray:none;stroke-opacity:1"
     d="m 63.898928,30.672669 c -0.254,-1.437 -2.192,-3.964 -5.066,-3.697 l -5.079,5.943 c 0.527,0.394 1.031,0.728 1.532,1.036 0.052,0.062 0.104,0.125 0.14,0.188 0.421,0.692 1.041,0.781 2.079,0.88 1.478,0.484 2.837,0.442 4.093,-0.334 1.927,-1.193 2.525,-2.718 2.301,-4.016 z"
     id="path1347" />
  <path
     style="fill:#231f20;fill-opacity:1;fill-rule:nonzero;stroke:none"
     d="m 28.816928,11.574669 c 1.265,-0.48 1.926,0.265 1.942,1.301 0.011,0.313 0.339,0.568 0.318,0.871 -0.042,0.702 -1.391,1.812 -2.599,0.926 -0.088,-0.068 -0.859,-0.328 -1.412,-0.62 -1.072,-0.562 -2.952,-2.207 -3.099,-4.8950001 -0.072,-1.282 0.694,-1.088 0.88,-0.578 0.59,1.6040001 0.948,1.6350001 1.262,2.0000001 1.041,1.244 2.708,0.995 2.708,0.995"
     id="path1348" />
  <path
     style="fill:none;stroke:#231f20;stroke-width:0.332927;stroke-linecap:butt;stroke-linejoin:miter;stroke-miterlimit:4;stroke-dasharray:none;stroke-opacity:1"
     d="m 28.816928,11.574669 c 1.265,-0.48 1.926,0.265 1.942,1.301 0.011,0.313 0.339,0.568 0.318,0.871 -0.042,0.702 -1.391,1.812 -2.599,0.926 -0.088,-0.068 -0.859,-0.328 -1.412,-0.62 -1.072,-0.562 -2.952,-2.207 -3.099,-4.8950001 -0.072,-1.282 0.694,-1.088 0.88,-0.578 0.59,1.6040001 0.948,1.6350001 1.262,2.0000001 1.041,1.244 2.708,0.995 2.708,0.995 z"
     id="path1349" />
  <path
     style="fill:#231f20;fill-opacity:1;fill-rule:nonzero;stroke:none"
     d="m 75.774928,57.527671 c 0,1.176 -0.958,2.129 -2.136,2.129 -1.177,0 -2.13,-0.953 -2.13,-2.129 0,-1.183002 0.953,-2.136002 2.13,-2.136002 1.178,0 2.136,0.953 2.136,2.136002"
     id="path1350" />
  <path
     style="fill:#63c99d;fill-opacity:1;fill-rule:nonzero;stroke:none"
     d="m 112.08193,86.902671 c 2.751,1.494 3.183,2.12 3.756,2.844 3.588,4.53 5.744,2.686 6.634,-0.052 1.063,-3.224 1.506,-4.36 -4.281,-6.828 -1.62,-0.688 -7.448,-4.126 -7.448,-4.126 -1.926,-1.521 -4.609,-1.969 -5.905,-1.297 -1.36,0.703 -0.772,0.527 -1.912,1.407 -1.088,0.838 -1.907,2.869 -1.328,3.962 0.557,1.054 2.213,1.136 4.599,1.574 1.88,0.349 5.885,2.516 5.885,2.516"
     id="path1351" />
  <path
     style="fill:none;stroke:#231f20;stroke-width:0.565977;stroke-linecap:butt;stroke-linejoin:miter;stroke-miterlimit:4;stroke-dasharray:none;stroke-opacity:1"
     d="m 112.08193,86.902671 c 2.751,1.494 3.183,2.12 3.756,2.844 3.588,4.53 5.744,2.686 6.634,-0.052 1.063,-3.224 1.506,-4.36 -4.281,-6.828 -1.62,-0.688 -7.448,-4.126 -7.448,-4.126 -1.926,-1.521 -4.609,-1.969 -5.905,-1.297 -1.36,0.703 -0.772,0.527 -1.912,1.407 -1.088,0.838 -1.907,2.869 -1.328,3.962 0.557,1.054 2.213,1.136 4.599,1.574 1.88,0.349 5.885,2.516 5.885,2.516 z"
     id="path1352" />
  <path
     style="fill:#ffffff;fill-opacity:1;fill-rule:nonzero;stroke:none"
     d="m 94.294928,77.855671 c -0.233,0.068 -0.822,-0.923 -1.286,-0.693 -0.474,0.229 -0.312,1.005 -1.547,2.562 l -0.015,0.022 c -0.942,1.104 -1.313,2.448 -0.844,3.609 0.771,1.932 3.515,2.645 6.135,1.615 2.631003,-1.052 4.131002,-3.464 3.365002,-5.391 -0.728999,-1.849 -3.286002,-2.584 -5.808002,-1.724"
     id="path1353" />
  <path
     style="fill:none;stroke:#231f20;stroke-width:0.565977;stroke-linecap:butt;stroke-linejoin:miter;stroke-miterlimit:4;stroke-dasharray:none;stroke-opacity:1"
     d="m 94.294928,77.855671 c -0.233,0.068 -0.822,-0.923 -1.286,-0.693 -0.474,0.229 -0.312,1.005 -1.547,2.562 l -0.015,0.022 c -0.942,1.104 -1.313,2.448 -0.844,3.609 0.771,1.932 3.515,2.645 6.135,1.615 2.631003,-1.052 4.131002,-3.464 3.365002,-5.391 -0.728999,-1.849 -3.286002,-2.584 -5.808002,-1.724 z"
     id="path1354" />
  <path
     style="fill:#231f20;fill-opacity:1;fill-rule:nonzero;stroke:none"
     d="m 111.23793,73.178671 c 2.1,-0.85 2.391,-1.298 2.089,-2.208 -0.198,-0.61 -0.172,-1.235 -0.281,-1.61 -0.344,-1.25 -1.453,-3.214 -6.016,-7.958 -1.036,-1.063 -2.479,-2.59 -3.016,-3.256 -0.859,-1.047002 -2.031,1.084 -1.697,1.5 1.068,1.344 1.688,2.354 2.005,2.89 0.213,0.371 0.687,0.964 1.344,2.5 0.995,2.319 1.244,3.86 2.301,5.694 0.49,0.854 0.314,1.802 1.224,2.39 0.907,0.604 2.047,0.058 2.047,0.058"
     id="path1355" />
  <path
     style="fill:none;stroke:#231f20;stroke-width:0.565977;stroke-linecap:butt;stroke-linejoin:miter;stroke-miterlimit:4;stroke-dasharray:none;stroke-opacity:1"
     d="m 111.23793,73.178671 c 2.1,-0.85 2.391,-1.298 2.089,-2.208 -0.198,-0.61 -0.172,-1.235 -0.281,-1.61 -0.344,-1.25 -1.453,-3.214 -6.016,-7.958 -1.036,-1.063 -2.479,-2.59 -3.016,-3.256 -0.859,-1.047002 -2.031,1.084 -1.697,1.5 1.068,1.344 1.688,2.354 2.005,2.89 0.213,0.371 0.687,0.964 1.344,2.5 0.995,2.319 1.244,3.86 2.301,5.694 0.49,0.854 0.314,1.802 1.224,2.39 0.907,0.604 2.047,0.058 2.047,0.058 z"
     id="path1356" />
  <path
     style="fill:#231f20;fill-opacity:1;fill-rule:nonzero;stroke:#231f20;stroke-width:0.565977;stroke-linecap:round;stroke-linejoin:round;stroke-miterlimit:4;stroke-dasharray:none;stroke-opacity:1"
     d="m 108.97793,72.104671 c -0.541,1.314 0.917,2.891 1.011,3.224 1.462,4.792 1.686,5.099 3.052,8.667 1.978,5.167 4.119,8.396 7.463,8.125 2.266,-0.182 3.484,-1.27 3.875,-2.53 0.421,-1.396 -0.156,-4.522 -2.839,-5.595 l -1.016,-1.38 c -0.568,-1.016 -0.849,-1.516 -1.093,-2.041 -0.407,-0.907 -0.917,-1.86 -1.823,-3.59 -1.625,-3.077 -4.333,-5.796 -4.333,-5.796 -0.152,-0.27 -0.385,-0.437 -0.636,-0.526"
     id="path1357" />
  <path
     style="fill:#63c99d;fill-opacity:1;fill-rule:nonzero;stroke:none"
     d="m 121.58693,84.115671 -7.328,2.719 c 1.526,3.442 3.349,5.478 5.984,5.365 2.265,-0.1 3.537,-1.141 3.969,-2.387 0.474,-1.38 0.016,-4.525 -2.625,-5.697"
     id="path1358" />
  <path
     style="fill:none;stroke:#231f20;stroke-width:0.565977;stroke-linecap:butt;stroke-linejoin:miter;stroke-miterlimit:4;stroke-dasharray:none;stroke-opacity:1"
     d="m 121.58693,84.115671 -7.328,2.719 c 1.526,3.442 3.349,5.478 5.984,5.365 2.265,-0.1 3.537,-1.141 3.969,-2.387 0.474,-1.38 0.016,-4.525 -2.625,-5.697 z"
     id="path1359" />
  <path
     style="fill:#231f20;fill-opacity:1;fill-rule:nonzero;stroke:none"
     d="m 102.88493,56.042669 c 1.338,0.198 1.552,1.172 1.062,2.084002 -0.146,0.27 0.015,0.661 -0.146,0.91 -0.386,0.595 -2.094,0.907 -2.724,-0.457 -0.042,-0.1 -0.588,-0.704 -0.932,-1.224 -0.661999,-1.016002 -1.495002,-3.371002 -0.317999,-5.787002 0.557999,-1.156 1.134999,-0.609 1.051999,-0.078 -0.276,1.693 0.031,1.89 0.126,2.365 0.301,1.593 1.88,2.187 1.88,2.187"
     id="path1360" />
  <path
     style="fill:none;stroke:#231f20;stroke-width:0.332927;stroke-linecap:butt;stroke-linejoin:miter;stroke-miterlimit:4;stroke-dasharray:none;stroke-opacity:1"
     d="m 102.88493,56.042669 c 1.338,0.198 1.552,1.172 1.062,2.084002 -0.146,0.27 0.015,0.661 -0.146,0.91 -0.386,0.595 -2.094,0.907 -2.724,-0.457 -0.042,-0.1 -0.588,-0.704 -0.932,-1.224 -0.661999,-1.016002 -1.495002,-3.371002 -0.317999,-5.787002 0.557999,-1.156 1.134999,-0.609 1.051999,-0.078 -0.276,1.693 0.031,1.89 0.126,2.365 0.301,1.593 1.88,2.187 1.88,2.187 z"
     id="path1361" />
  <path
     style="fill:#231f20;fill-opacity:1;fill-rule:nonzero;stroke:none"
     d="m 101.43093,57.875671 c -0.202,-1.161002 0.574,-2.265002 1.735,-2.468002 1.161,-0.199 2.265,0.577 2.468,1.739 0.204,1.157002 -0.572,2.261002 -1.735,2.464002 -1.161,0.202 -2.27,-0.574 -2.468,-1.735"
     id="path1362" />
  <path
     style="fill:#231f20;fill-opacity:1;fill-rule:nonzero;stroke:none"
     d="m 104.51393,59.656671 c 0.385,0.516 0.245,2.459 0.751,3.986 0.349,1.03 0.073,3.76 0.494,4.76 0.38,0.916 0.47,1.374 -0.5,1.989 -0.578,0.364 -1.926,0.697 -2.213,0.281 -0.688,-0.973 -0.891,-1.901 -0.885,-2.969 0,-1.213 0.29,-4.515 0.401,-5.119 0.28,-1.496 -0.068,-2.146 -0.027,-2.548 0.063,-0.76 0.37,-0.921 0.87,-0.984 0.953,-0.125 1.109,0.604 1.109,0.604"
     id="path1363" />
  <path
     style="fill:none;stroke:#231f20;stroke-width:0.565977;stroke-linecap:butt;stroke-linejoin:miter;stroke-miterlimit:4;stroke-dasharray:none;stroke-opacity:1"
     d="m 104.51393,59.656671 c 0.385,0.516 0.245,2.459 0.751,3.986 0.349,1.03 0.073,3.76 0.494,4.76 0.38,0.916 0.47,1.374 -0.5,1.989 -0.578,0.364 -1.926,0.697 -2.213,0.281 -0.688,-0.973 -0.891,-1.901 -0.885,-2.969 0,-1.213 0.29,-4.515 0.401,-5.119 0.28,-1.496 -0.068,-2.146 -0.027,-2.548 0.063,-0.76 0.37,-0.921 0.87,-0.984 0.953,-0.125 1.109,0.604 1.109,0.604 z"
     id="path1364" />
  <path
     style="fill:#231f20;fill-opacity:1;fill-rule:nonzero;stroke:none"
     d="m 105.14993,68.694671 c 1.297,0.052 0.844,2.041 0.807,2.577 -0.042,0.541 0.026,2.099 0.234,3.303 0.204,1.208 -0.057,2.801 0.334,5.098 0.208,1.203 -0.359,2.506 -2.126,2.724 -1.738,0.219 -2.52,-0.677 -2.546,-2.172 -0.026,-1.5 0.584,-2.916 0.661,-4.421 0.079,-1.511 0.016,-3.057 -0.088,-4.271 -0.12,-1.376 0.328,-2.105 0.755,-2.318 1.052,-0.568 1.969,-0.52 1.969,-0.52"
     id="path1365" />
  <path
     style="fill:none;stroke:#231f20;stroke-width:0.565977;stroke-linecap:butt;stroke-linejoin:miter;stroke-miterlimit:4;stroke-dasharray:none;stroke-opacity:1"
     d="m 105.14993,68.694671 c 1.297,0.052 0.844,2.041 0.807,2.577 -0.042,0.541 0.026,2.099 0.234,3.303 0.204,1.208 -0.057,2.801 0.334,5.098 0.208,1.203 -0.359,2.506 -2.126,2.724 -1.738,0.219 -2.52,-0.677 -2.546,-2.172 -0.026,-1.5 0.584,-2.916 0.661,-4.421 0.079,-1.511 0.016,-3.057 -0.088,-4.271 -0.12,-1.376 0.328,-2.105 0.755,-2.318 1.052,-0.568 1.969,-0.52 1.969,-0.52 z"
     id="path1366" />
  <path
     style="fill:#231f20;fill-opacity:1;fill-rule:nonzero;stroke:none"
     d="m 145.13393,55.803669 c 0.598,-1.016 1.906,-1.349 2.922,-0.751 1.015,0.599 1.348,1.912 0.744,2.923002 -0.593,1.015 -1.905,1.348 -2.916,0.749 -1.016,-0.598 -1.349,-1.906002 -0.75,-2.921002"
     id="path1367" />
</svg>
