<?xml version="1.0" encoding="UTF-8" standalone="no"?>
<!-- Created with Inkscape (http://www.inkscape.org/) -->

<svg
   version="1.1"
   id="svg1"
   width="349.86432"
   height="127.45239"
   viewBox="0 0 349.8643 127.45239"
   sodipodi:docname="cell.svg"
   xmlns:inkscape="http://www.inkscape.org/namespaces/inkscape"
   xmlns:sodipodi="http://sodipodi.sourceforge.net/DTD/sodipodi-0.dtd"
   xmlns="http://www.w3.org/2000/svg"
   xmlns:svg="http://www.w3.org/2000/svg">
  <sodipodi:namedview
     id="namedview1"
     pagecolor="#ffffff"
     bordercolor="#000000"
     borderopacity="0.25"
     inkscape:showpageshadow="2"
     inkscape:pageopacity="0.0"
     inkscape:pagecheckerboard="0"
     inkscape:deskcolor="#d1d1d1">
    <inkscape:page
       x="1.1703947e-07"
       y="0"
       inkscape:label="1"
       id="page1"
       width="349.86432"
       height="127.45239"
       margin="0"
       bleed="0" />
  </sodipodi:namedview>
  <defs
     id="defs1" />
  <path
     style="fill:#ffffff;fill-opacity:1;fill-rule:nonzero;stroke:none"
     d="m 155.49533,18.874 h 18.875 V 0 h -18.875 z"
     id="path22" />
  <path
     style="fill:#ffffff;fill-opacity:1;fill-rule:nonzero;stroke:none"
     d="m 332.93733,18.874 h 16.927 V 0 h -16.927 z"
     id="path24" />
  <path
     style="fill:#231f20;fill-opacity:1;fill-rule:nonzero;stroke:none"
     d="m 170.80133,51.62 c 1.099,0.792 0.844,1.749 -0.01,2.344 -0.255,0.177 -0.287,0.593 -0.547,0.744 -0.615,0.349 -2.281,-0.156 -2.208,-1.656 0.006,-0.11 -0.204,-0.902 -0.27,-1.516 -0.126,-1.208 0.208,-3.682 2.369,-5.296 1.021,-0.766 1.281,-0.022 0.969,0.416 -1.016,1.376 -0.839,1.698 -0.969,2.161 -0.47,1.552 0.666,2.803 0.666,2.803"
     id="path25" />
  <path
     style="fill:none;stroke:#231f20;stroke-width:0.332927;stroke-linecap:butt;stroke-linejoin:miter;stroke-miterlimit:4;stroke-dasharray:none;stroke-opacity:1"
     d="m 170.80133,51.62 c 1.099,0.792 0.844,1.749 -0.01,2.344 -0.255,0.177 -0.287,0.593 -0.547,0.744 -0.615,0.349 -2.281,-0.156 -2.208,-1.656 0.006,-0.11 -0.204,-0.902 -0.27,-1.516 -0.126,-1.208 0.208,-3.682 2.369,-5.296 1.021,-0.766 1.281,-0.022 0.969,0.416 -1.016,1.376 -0.839,1.698 -0.969,2.161 -0.47,1.552 0.666,2.803 0.666,2.803 z"
     id="path26" />
  <path
     style="fill:#63c99d;fill-opacity:1;fill-rule:nonzero;stroke:none"
     d="m 173.50433,96.141 c -0.187,-3.125 0.115,-3.819 0.428,-4.688 1.948,-5.443 -0.767,-6.297 -3.563,-5.604 -3.291,0.807 -4.489,1.036 -3.521,7.249 0.271,1.735 0.443,8.505 0.443,8.505 -0.265,2.432 0.771,4.948 2.027,5.694 1.317,0.781 0.853,0.374 2.202,0.88 1.297,0.473 3.448,0.093 4.068,-0.975 0.599,-1.025 -0.208,-2.484 -1.099,-4.733 -0.704,-1.782 -0.985,-6.328 -0.985,-6.328"
     id="path27" />
  <path
     style="fill:none;stroke:#231f20;stroke-width:0.565977;stroke-linecap:butt;stroke-linejoin:miter;stroke-miterlimit:4;stroke-dasharray:none;stroke-opacity:1"
     d="m 173.50433,96.141 c -0.187,-3.125 0.115,-3.819 0.428,-4.688 1.948,-5.443 -0.767,-6.297 -3.563,-5.604 -3.291,0.807 -4.489,1.036 -3.521,7.249 0.271,1.735 0.443,8.505 0.443,8.505 -0.265,2.432 0.771,4.948 2.027,5.694 1.317,0.781 0.853,0.374 2.202,0.88 1.297,0.473 3.448,0.093 4.068,-0.975 0.599,-1.025 -0.208,-2.484 -1.099,-4.733 -0.704,-1.782 -0.985,-6.328 -0.985,-6.328 z"
     id="path28" />
  <path
     style="fill:#ffffff;fill-opacity:1;fill-rule:nonzero;stroke:none"
     d="m 171.83233,115.797 c 0.109,0.218 -0.76,0.973 -0.452,1.396 0.317,0.421 1.052,0.118 2.801,1.057 l 0.022,0.009 c 1.26,0.724 2.65,0.844 3.708,0.178 1.765,-1.11 1.969,-3.943 0.473,-6.328 -1.504,-2.402 -4.151,-3.438 -5.905,-2.334 -1.688,1.052 -1.948,3.699 -0.647,6.022"
     id="path29" />
  <path
     style="fill:none;stroke:#231f20;stroke-width:0.565977;stroke-linecap:butt;stroke-linejoin:miter;stroke-miterlimit:4;stroke-dasharray:none;stroke-opacity:1"
     d="m 171.83233,115.797 c 0.109,0.218 -0.76,0.973 -0.452,1.396 0.317,0.421 1.052,0.118 2.801,1.057 l 0.022,0.009 c 1.26,0.724 2.65,0.844 3.708,0.178 1.765,-1.11 1.969,-3.943 0.473,-6.328 -1.504,-2.402 -4.151,-3.438 -5.905,-2.334 -1.688,1.052 -1.948,3.699 -0.647,6.022 z"
     id="path30" />
  <path
     style="fill:#231f20;fill-opacity:1;fill-rule:nonzero;stroke:none"
     d="m 169.97933,70.812 c 2.254,0.198 2.724,-0.062 2.864,-1.015 0.104,-0.631 0.412,-1.177 0.489,-1.557 0.272,-1.266 0.183,-3.522 -1.708,-9.823 -0.427,-1.428 -1.016,-3.443 -1.187,-4.281 -0.281,-1.324 -2.302,0.03 -2.198,0.557 0.339,1.681 0.421,2.864 0.459,3.484 0.025,0.427 0.177,1.172 0.057,2.839 -0.177,2.52 -0.661,4.005 -0.563,6.12 0.042,0.984 -0.546,1.744 -0.01,2.681 0.532,0.948 1.797,0.995 1.797,0.995"
     id="path31" />
  <path
     style="fill:none;stroke:#231f20;stroke-width:0.565977;stroke-linecap:butt;stroke-linejoin:miter;stroke-miterlimit:4;stroke-dasharray:none;stroke-opacity:1"
     d="m 169.97933,70.812 c 2.254,0.198 2.724,-0.062 2.864,-1.015 0.104,-0.631 0.412,-1.177 0.489,-1.557 0.272,-1.266 0.183,-3.522 -1.708,-9.823 -0.427,-1.428 -1.016,-3.443 -1.187,-4.281 -0.281,-1.324 -2.302,0.03 -2.198,0.557 0.339,1.681 0.421,2.864 0.459,3.484 0.025,0.427 0.177,1.172 0.057,2.839 -0.177,2.52 -0.661,4.005 -0.563,6.12 0.042,0.984 -0.546,1.744 -0.01,2.681 0.532,0.948 1.797,0.995 1.797,0.995 z"
     id="path32" />
  <path
     style="fill:#231f20;fill-opacity:1;fill-rule:nonzero;stroke:#231f20;stroke-width:0.565977;stroke-linecap:round;stroke-linejoin:round;stroke-miterlimit:4;stroke-dasharray:none;stroke-opacity:1"
     d="m 168.46333,68.817 c -1.088,0.917 -0.516,2.995 -0.579,3.324 -0.894,4.937 -0.837,5.312 -1.254,9.109 -0.61,5.495 -0.183,9.354 2.906,10.64 2.099,0.875 3.687,0.464 4.604,-0.473 1.016,-1.052 1.932,-4.095 0.041,-6.276 l -0.265,-1.693 c -0.041,-1.167 -0.068,-1.735 -0.041,-2.307 0.046,-1.005 0.036,-2.084 0.02,-4.037 -0.036,-3.474 -1.198,-7.135 -1.198,-7.135 -0.01,-0.308 -0.141,-0.557 -0.317,-0.756"
     id="path33" />
  <path
     style="fill:#63c99d;fill-opacity:1;fill-rule:nonzero;stroke:none"
     d="m 174.21333,85.229 -7.755,-0.937 c -0.042,0.614 -0.042,1.186 -0.026,1.74 -0.032,0.134 -0.068,0.26 -0.114,0.364 -0.371,0.792 -0.038,1.374 0.525,2.421 0.428,1.376 1.208,2.396 2.475,2.98 2.062,0.948 3.666,0.604 4.619,-0.303 1.056,-1.005 2.083,-4.016 0.276,-6.265"
     id="path34" />
  <path
     style="fill:none;stroke:#231f20;stroke-width:0.565977;stroke-linecap:butt;stroke-linejoin:miter;stroke-miterlimit:4;stroke-dasharray:none;stroke-opacity:1"
     d="m 174.21333,85.229 -7.755,-0.937 c -0.042,0.614 -0.042,1.186 -0.026,1.74 -0.032,0.134 -0.068,0.26 -0.114,0.364 -0.371,0.792 -0.038,1.374 0.525,2.421 0.428,1.376 1.208,2.396 2.475,2.98 2.062,0.948 3.666,0.604 4.619,-0.303 1.056,-1.005 2.083,-4.016 0.276,-6.265 z"
     id="path35" />
  <path
     style="fill:#ffffff;fill-opacity:1;fill-rule:nonzero;stroke:none"
     d="m 0.33292759,109.109 c 0,0.682 0.5521,1.24 1.24010001,1.24 H 338.35333 c 0.688,0 1.24,-0.558 1.24,-1.24 0,-0.687 -0.552,-1.24 -1.24,-1.24 H 1.5730276 c -0.68800001,0 -1.24010001,0.553 -1.24010001,1.24"
     id="path36" />
  <path
     style="fill:none;stroke:#231f20;stroke-width:0.665856;stroke-linecap:butt;stroke-linejoin:miter;stroke-miterlimit:4;stroke-dasharray:none;stroke-opacity:1"
     d="m 0.33292759,109.109 c 0,0.682 0.5521,1.24 1.24010001,1.24 H 338.35333 c 0.688,0 1.24,-0.558 1.24,-1.24 0,-0.687 -0.552,-1.24 -1.24,-1.24 H 1.5730276 c -0.68800001,0 -1.24010001,0.553 -1.24010001,1.24 z"
     id="path37" />
  <path
     style="fill:#231f20;fill-opacity:1;fill-rule:nonzero;stroke:none"
     d="m 157.58333,108.031 c -0.041,-0.636 1.14,-2.193 1.547,-3.75 0.276,-1.047 1.994,-3.188 2.188,-4.249 0.181,-0.98 0.358,-1.412 1.51,-1.396 0.676,0.005 1.99,0.462 2.004,0.973 0.043,1.193 -0.296,2.078 -0.88,2.969 -0.666,1.02 -2.713,3.624 -3.129,4.067 -1.052,1.1 -1.12,1.838 -1.371,2.152 -0.473,0.604 -0.817,0.568 -1.27,0.348 -0.864,-0.422 -0.599,-1.114 -0.599,-1.114"
     id="path38" />
  <path
     style="fill:none;stroke:#231f20;stroke-width:0.565977;stroke-linecap:butt;stroke-linejoin:miter;stroke-miterlimit:4;stroke-dasharray:none;stroke-opacity:1"
     d="m 157.58333,108.031 c -0.041,-0.636 1.14,-2.193 1.547,-3.75 0.276,-1.047 1.994,-3.188 2.188,-4.249 0.181,-0.98 0.358,-1.412 1.51,-1.396 0.676,0.005 1.99,0.462 2.004,0.973 0.043,1.193 -0.296,2.078 -0.88,2.969 -0.666,1.02 -2.713,3.624 -3.129,4.067 -1.052,1.1 -1.12,1.838 -1.371,2.152 -0.473,0.604 -0.817,0.568 -1.27,0.348 -0.864,-0.422 -0.599,-1.114 -0.599,-1.114 z"
     id="path39" />
  <path
     style="fill:#231f20;fill-opacity:1;fill-rule:nonzero;stroke:none"
     d="m 162.53633,99.26 c 0.651,-1.124 2.198,0.209 2.651,0.496 0.464,0.29 1.869,0.957 3.031,1.337 1.162,0.385 2.453,1.36 4.657,2.089 1.161,0.385 2.052,1.489 1.421,3.151 -0.625,1.641 -1.781,1.912 -3.12,1.234 -1.333,-0.672 -2.296,-1.874 -3.593,-2.65 -1.297,-0.776 -2.693,-1.448 -3.812,-1.923 -1.272,-0.536 -1.709,-1.271 -1.704,-1.749 0,-1.199 0.469,-1.985 0.469,-1.985"
     id="path40" />
  <path
     style="fill:none;stroke:#231f20;stroke-width:0.565977;stroke-linecap:butt;stroke-linejoin:miter;stroke-miterlimit:4;stroke-dasharray:none;stroke-opacity:1"
     d="m 162.53633,99.26 c 0.651,-1.124 2.198,0.209 2.651,0.496 0.464,0.29 1.869,0.957 3.031,1.337 1.162,0.385 2.453,1.36 4.657,2.089 1.161,0.385 2.052,1.489 1.421,3.151 -0.625,1.641 -1.781,1.912 -3.12,1.234 -1.333,-0.672 -2.296,-1.874 -3.593,-2.65 -1.297,-0.776 -2.693,-1.448 -3.812,-1.923 -1.272,-0.536 -1.709,-1.271 -1.704,-1.749 0,-1.199 0.469,-1.985 0.469,-1.985 z"
     id="path41" />
  <path
     style="fill:none;stroke:#231f20;stroke-width:0.998783;stroke-linecap:butt;stroke-linejoin:miter;stroke-miterlimit:4;stroke-dasharray:none;stroke-opacity:1"
     d="m 178.79133,124.338 c 0,1.443 -1.172,2.615 -2.615,2.615 -1.443,0 -2.615,-1.172 -2.615,-2.615 0,-1.443 1.172,-2.615 2.615,-2.615 1.443,0 2.615,1.172 2.615,2.615 z"
     id="path42" />
  <path
     style="fill:#231f20;fill-opacity:1;fill-rule:nonzero;stroke:none"
     d="m 157.45233,106.489 c 1.156,-0.239 2.282,0.51 2.522,1.666 0.229,1.152 -0.516,2.282 -1.667,2.516 -1.156,0.23 -2.281,-0.51 -2.516,-1.666 -0.235,-1.156 0.511,-2.282 1.661,-2.516"
     id="path43" />
</svg>
