<?xml version="1.0" encoding="UTF-8" standalone="no"?>
<!-- Created with Inkscape (http://www.inkscape.org/) -->

<svg
   version="1.1"
   id="svg1"
   width="346.59488"
   height="112.08819"
   viewBox="0 0 346.59486 112.08819"
   sodipodi:docname="cell.svg"
   xmlns:inkscape="http://www.inkscape.org/namespaces/inkscape"
   xmlns:sodipodi="http://sodipodi.sourceforge.net/DTD/sodipodi-0.dtd"
   xmlns="http://www.w3.org/2000/svg"
   xmlns:svg="http://www.w3.org/2000/svg">
  <sodipodi:namedview
     id="namedview1"
     pagecolor="#ffffff"
     bordercolor="#000000"
     borderopacity="0.25"
     inkscape:showpageshadow="2"
     inkscape:pageopacity="0.0"
     inkscape:pagecheckerboard="0"
     inkscape:deskcolor="#d1d1d1">
    <inkscape:page
       x="0"
       y="0"
       inkscape:label="1"
       id="page1"
       width="346.59485"
       height="112.08819"
       margin="0"
       bleed="0" />
  </sodipodi:namedview>
  <defs
     id="defs1" />
  <path
     style="fill:#63c99d;fill-opacity:1;fill-rule:nonzero;stroke:none"
     d="m 103.68193,56.028689 c -2.657,-1.657 -3.052,-2.3077 -3.579,-3.0624 -3.317002,-4.7346 -5.578002,-3.0159 -6.630002,-0.3333 -1.244,3.1507 -1.755,4.2597 3.881,7.0627 1.572,0.78 7.192002,4.556 7.192002,4.556 1.833,1.625 4.484,2.235 5.812,1.641 1.401,-0.625 0.803,-0.478 1.996,-1.292 1.14,-0.776 2.067,-2.754 1.561,-3.88 -0.494,-1.082 -2.15,-1.265 -4.505,-1.844 -1.853,-0.457 -5.728,-2.848 -5.728,-2.848"
     id="path31" />
  <path
     style="fill:none;stroke:#231f20;stroke-width:0.565977;stroke-linecap:butt;stroke-linejoin:miter;stroke-miterlimit:4;stroke-dasharray:none;stroke-opacity:1"
     d="m 103.68193,56.028689 c -2.657,-1.657 -3.052,-2.3077 -3.579,-3.0624 -3.317002,-4.7346 -5.578002,-3.0159 -6.630002,-0.3333 -1.244,3.1507 -1.755,4.2597 3.881,7.0627 1.572,0.78 7.192002,4.556 7.192002,4.556 1.833,1.625 4.484,2.235 5.812,1.641 1.401,-0.625 0.803,-0.478 1.996,-1.292 1.14,-0.776 2.067,-2.754 1.561,-3.88 -0.494,-1.082 -2.15,-1.265 -4.505,-1.844 -1.853,-0.457 -5.728,-2.848 -5.728,-2.848 z"
     id="path32" />
  <path
     style="fill:#231f20;fill-opacity:1;fill-rule:nonzero;stroke:none"
     d="m 94.296928,71.267689 c -2.24,-0.344 -2.72,-0.104 -2.923,0.833 -0.14,0.626 -0.479,1.151 -0.577,1.527 -0.344,1.255 -0.396,3.505 1.109,9.911 0.348,1.448 0.807,3.49 0.932,4.344 0.203,1.333 2.296,0.104 2.224,-0.427 -0.235,-1.699 -0.245,-2.88 -0.245,-3.505 0,-0.427 -0.104,-1.183 0.12,-2.839 0.322,-2.5 0.896,-3.953 0.921,-6.073 0.021,-0.979 0.652,-1.708 0.177,-2.676 -0.473,-0.98 -1.738,-1.095 -1.738,-1.095"
     id="path33" />
  <path
     style="fill:none;stroke:#231f20;stroke-width:0.565977;stroke-linecap:butt;stroke-linejoin:miter;stroke-miterlimit:4;stroke-dasharray:none;stroke-opacity:1"
     d="m 94.296928,71.267689 c -2.24,-0.344 -2.72,-0.104 -2.923,0.833 -0.14,0.626 -0.479,1.151 -0.577,1.527 -0.344,1.255 -0.396,3.505 1.109,9.911 0.348,1.448 0.807,3.49 0.932,4.344 0.203,1.333 2.296,0.104 2.224,-0.427 -0.235,-1.699 -0.245,-2.88 -0.245,-3.505 0,-0.427 -0.104,-1.183 0.12,-2.839 0.322,-2.5 0.896,-3.953 0.921,-6.073 0.021,-0.979 0.652,-1.708 0.177,-2.676 -0.473,-0.98 -1.738,-1.095 -1.738,-1.095 z"
     id="path34" />
  <path
     style="fill:#231f20;fill-opacity:1;fill-rule:nonzero;stroke:#231f20;stroke-width:0.565977;stroke-linecap:round;stroke-linejoin:round;stroke-miterlimit:4;stroke-dasharray:none;stroke-opacity:1"
     d="m 95.690928,73.346689 c 1.142,-0.855 0.694,-2.959 0.776,-3.287 1.194,-4.869 1.158,-5.251 1.803,-9.016 0.943,-5.448 0.751,-9.3227 -2.26,-10.792 -2.047,-1 -3.652,-0.6867 -4.631,0.1987 -1.073,0.9839 -2.172,3.9639 -0.412,6.2603 l 0.167,1.698 c -0.031,1.167 -0.041,1.739 -0.099,2.312 -0.114,0.995 -0.166,2.074 -0.265,4.027 -0.177,3.468 0.765,7.192 0.765,7.192 -0.01,0.312 0.099,0.568 0.271,0.776"
     id="path35" />
  <path
     style="fill:#63c99d;fill-opacity:1;fill-rule:nonzero;stroke:none"
     d="m 98.608928,53.690289 c -0.318,-1.5213 -1.036,-2.6773 -2.339,-3.3759 -2,-1.0667 -3.625,-0.8227 -4.631,0.0213 -1.114,0.948 -2.322,3.8853 -0.65,6.24 l 7.688,1.411 c 0.077,-0.656 0.109,-1.26 0.124,-1.848 0.032,-0.079 0.057,-0.152 0.094,-0.215 0.386,-0.708 0.151,-1.291 -0.286,-2.2334"
     id="path36" />
  <path
     style="fill:none;stroke:#231f20;stroke-width:0.565977;stroke-linecap:butt;stroke-linejoin:miter;stroke-miterlimit:4;stroke-dasharray:none;stroke-opacity:1"
     d="m 98.608928,53.690289 c -0.318,-1.5213 -1.036,-2.6773 -2.339,-3.3759 -2,-1.0667 -3.625,-0.8227 -4.631,0.0213 -1.114,0.948 -2.322,3.8853 -0.65,6.24 l 7.688,1.411 c 0.077,-0.656 0.109,-1.26 0.124,-1.848 0.032,-0.079 0.057,-0.152 0.094,-0.215 0.386,-0.708 0.151,-1.291 -0.286,-2.2334 z"
     id="path37" />
  <path
     style="fill:#231f20;fill-opacity:1;fill-rule:nonzero;stroke:none"
     d="m 92.728928,90.267689 c -1.047,-0.859 -0.73,-1.801 0.15,-2.333 0.266,-0.162 0.328,-0.578 0.594,-0.714 0.63,-0.312 2.27,0.292 2.109,1.787 -0.015,0.104 0.147,0.907 0.172,1.525 0.052,1.215 -0.427,3.667 -2.677,5.147 -1.067,0.697 -1.286,-0.057 -0.943,-0.475 1.095,-1.317 0.939,-1.645 1.095,-2.098 0.552,-1.526 -0.5,-2.839 -0.5,-2.839"
     id="path38" />
  <path
     style="fill:none;stroke:#231f20;stroke-width:0.332927;stroke-linecap:butt;stroke-linejoin:miter;stroke-miterlimit:4;stroke-dasharray:none;stroke-opacity:1"
     d="m 92.728928,90.267689 c -1.047,-0.859 -0.73,-1.801 0.15,-2.333 0.266,-0.162 0.328,-0.578 0.594,-0.714 0.63,-0.312 2.27,0.292 2.109,1.787 -0.015,0.104 0.147,0.907 0.172,1.525 0.052,1.215 -0.427,3.667 -2.677,5.147 -1.067,0.697 -1.286,-0.057 -0.943,-0.475 1.095,-1.317 0.939,-1.645 1.095,-2.098 0.552,-1.526 -0.5,-2.839 -0.5,-2.839 z"
     id="path39" />
  <path
     style="fill:#63c99d;fill-opacity:1;fill-rule:nonzero;stroke:none"
     d="m 26.436928,67.772689 c -3.131,-0.192 -3.787,-0.577 -4.604,-0.989 -5.172,-2.593 -6.344,-0.005 -6,2.849 0.401,3.37 0.484,4.588 6.77,4.38 1.755,-0.062 8.495,0.588 8.495,0.588 2.385,0.563 5.011,-0.161 5.901,-1.317 0.932,-1.219 0.474,-0.803 1.14,-2.084 0.631,-1.224 0.511,-3.405 -0.473,-4.156 -0.948,-0.719 -2.489,-0.093 -4.833,0.516 -1.855,0.479 -6.396,0.213 -6.396,0.213"
     id="path40" />
  <path
     style="fill:none;stroke:#231f20;stroke-width:0.565977;stroke-linecap:butt;stroke-linejoin:miter;stroke-miterlimit:4;stroke-dasharray:none;stroke-opacity:1"
     d="m 26.436928,67.772689 c -3.131,-0.192 -3.787,-0.577 -4.604,-0.989 -5.172,-2.593 -6.344,-0.005 -6,2.849 0.401,3.37 0.484,4.588 6.77,4.38 1.755,-0.062 8.495,0.588 8.495,0.588 2.385,0.563 5.011,-0.161 5.901,-1.317 0.932,-1.219 0.474,-0.803 1.14,-2.084 0.631,-1.224 0.511,-3.405 -0.473,-4.156 -0.948,-0.719 -2.489,-0.093 -4.833,0.516 -1.855,0.479 -6.396,0.213 -6.396,0.213 z"
     id="path41" />
  <path
     style="fill:#231f20;fill-opacity:1;fill-rule:nonzero;stroke:none"
     d="m 17.509928,87.455689 c -2.204,-0.516 -2.704,-0.317 -2.98,0.599 -0.192,0.614 -0.572,1.109 -0.703,1.474 -0.442,1.224 -0.672,3.463 0.312,9.974 0.23,1.473001 0.527,3.541001 0.584,4.406001 0.094,1.343 2.282,0.287 2.25,-0.25 -0.094,-1.714 -0.015,-2.896 0.032,-3.516 0.036,-0.422001 -0.006,-1.182001 0.349,-2.818001 0.525,-2.462 1.213,-3.869 1.411,-5.978 0.098,-0.98 0.786,-1.651 0.385,-2.651 -0.391,-1.021 -1.64,-1.24 -1.64,-1.24"
     id="path42" />
  <path
     style="fill:none;stroke:#231f20;stroke-width:0.565977;stroke-linecap:butt;stroke-linejoin:miter;stroke-miterlimit:4;stroke-dasharray:none;stroke-opacity:1"
     d="m 17.509928,87.455689 c -2.204,-0.516 -2.704,-0.317 -2.98,0.599 -0.192,0.614 -0.572,1.109 -0.703,1.474 -0.442,1.224 -0.672,3.463 0.312,9.974 0.23,1.473001 0.527,3.541001 0.584,4.406001 0.094,1.343 2.282,0.287 2.25,-0.25 -0.094,-1.714 -0.015,-2.896 0.032,-3.516 0.036,-0.422001 -0.006,-1.182001 0.349,-2.818001 0.525,-2.462 1.213,-3.869 1.411,-5.978 0.098,-0.98 0.786,-1.651 0.385,-2.651 -0.391,-1.021 -1.64,-1.24 -1.64,-1.24 z"
     id="path43" />
  <path
     style="fill:#231f20;fill-opacity:1;fill-rule:nonzero;stroke:#231f20;stroke-width:0.565977;stroke-linecap:round;stroke-linejoin:round;stroke-miterlimit:4;stroke-dasharray:none;stroke-opacity:1"
     d="m 18.733928,89.642689 c 1.203,-0.755 0.927,-2.895 1.041,-3.214 1.579,-4.754 1.568,-5.14 2.522,-8.838 1.369,-5.359 1.489,-9.234 -1.391,-10.943 -1.959,-1.161 -3.584,-0.979 -4.631,-0.172 -1.15,0.896 -2.489,3.776 -0.917,6.204 l 0.032,1.713 c -0.125,1.156 -0.183,1.73 -0.287,2.292 -0.193,0.984 -0.333,2.052 -0.588,3.99 -0.453,3.448 0.187,7.234 0.187,7.234 -0.036,0.307 0.057,0.578 0.208,0.796"
     id="path44" />
  <path
     style="fill:#63c99d;fill-opacity:1;fill-rule:nonzero;stroke:none"
     d="m 23.217928,70.283689 c -0.193,-1.541 -0.823,-2.751 -2.063,-3.552 -1.906,-1.224 -3.541,-1.109 -4.614,-0.344 -1.187,0.849 -2.631,3.683 -1.151,6.161 l 7.547,2.022 c 0.13,-0.647 0.213,-1.251 0.276,-1.834 0.036,-0.073 0.073,-0.141 0.109,-0.204 0.443,-0.67 0.255,-1.276 -0.104,-2.249"
     id="path45" />
  <path
     style="fill:none;stroke:#231f20;stroke-width:0.565977;stroke-linecap:butt;stroke-linejoin:miter;stroke-miterlimit:4;stroke-dasharray:none;stroke-opacity:1"
     d="m 23.217928,70.283689 c -0.193,-1.541 -0.823,-2.751 -2.063,-3.552 -1.906,-1.224 -3.541,-1.109 -4.614,-0.344 -1.187,0.849 -2.631,3.683 -1.151,6.161 l 7.547,2.022 c 0.13,-0.647 0.213,-1.251 0.276,-1.834 0.036,-0.073 0.073,-0.141 0.109,-0.204 0.443,-0.67 0.255,-1.276 -0.104,-2.249 z"
     id="path46" />
  <path
     style="fill:#231f20;fill-opacity:1;fill-rule:nonzero;stroke:none"
     d="m 14.420928,106.27269 c -0.974,-0.937 -0.583,-1.853 0.338,-2.312 0.276,-0.141 0.371,-0.546 0.651,-0.661 0.652,-0.267 2.235,0.468 1.959,1.943 -0.026,0.109 0.068,0.916 0.052,1.541 -0.052,1.213 -0.724,3.62 -3.088,4.912 -1.12,0.609 -1.276,-0.163 -0.902,-0.548 1.199,-1.229 1.063,-1.563 1.26,-2.005 0.678,-1.474 -0.27,-2.87 -0.27,-2.87"
     id="path47" />
  <path
     style="fill:none;stroke:#231f20;stroke-width:0.332927;stroke-linecap:butt;stroke-linejoin:miter;stroke-miterlimit:4;stroke-dasharray:none;stroke-opacity:1"
     d="m 14.420928,106.27269 c -0.974,-0.937 -0.583,-1.853 0.338,-2.312 0.276,-0.141 0.371,-0.546 0.651,-0.661 0.652,-0.267 2.235,0.468 1.959,1.943 -0.026,0.109 0.068,0.916 0.052,1.541 -0.052,1.213 -0.724,3.62 -3.088,4.912 -1.12,0.609 -1.276,-0.163 -0.902,-0.548 1.199,-1.229 1.063,-1.563 1.26,-2.005 0.678,-1.474 -0.27,-2.87 -0.27,-2.87 z"
     id="path48" />
  <path
     style="fill:#ffffff;fill-opacity:1;fill-rule:nonzero;stroke:none"
     d="m 0.332928,82.668689 c 0,0.688 0.557,1.24 1.244,1.24 H 345.02193 c 0.68,0 1.24,-0.552 1.24,-1.24 0,-0.682 -0.56,-1.24 -1.24,-1.24 H 1.576928 c -0.687,0 -1.244,0.558 -1.244,1.24"
     id="path49" />
  <path
     style="fill:none;stroke:#231f20;stroke-width:0.665856;stroke-linecap:butt;stroke-linejoin:miter;stroke-miterlimit:4;stroke-dasharray:none;stroke-opacity:1"
     d="m 0.332928,82.668689 c 0,0.688 0.557,1.24 1.244,1.24 H 345.02193 c 0.68,0 1.24,-0.552 1.24,-1.24 0,-0.682 -0.56,-1.24 -1.24,-1.24 H 1.576928 c -0.687,0 -1.244,0.558 -1.244,1.24 z"
     id="path50" />
  <path
     style="fill:#63c99d;fill-opacity:1;fill-rule:nonzero;stroke:none"
     d="m 147.10793,52.054289 c 0.208,-3.1253 0.599,-3.7759 1.016,-4.5986 2.619,-5.1507 0.042,-6.344 -2.824,-6.0107 -3.369,0.3854 -4.582,0.4587 -4.41,6.7454 0.057,1.7546 -0.636,8.4893 -0.636,8.4893 -0.572,2.385 0.136,5.011 1.286,5.905 1.214,0.944 0.803,0.486 2.079,1.152 1.224,0.64 3.405,0.536 4.156,-0.448 0.724,-0.942 0.104,-2.489 -0.489,-4.838 -0.47,-1.855 -0.178,-6.3964 -0.178,-6.3964"
     id="path51" />
  <path
     style="fill:none;stroke:#231f20;stroke-width:0.565977;stroke-linecap:butt;stroke-linejoin:miter;stroke-miterlimit:4;stroke-dasharray:none;stroke-opacity:1"
     d="m 147.10793,52.054289 c 0.208,-3.1253 0.599,-3.7759 1.016,-4.5986 2.619,-5.1507 0.042,-6.344 -2.824,-6.0107 -3.369,0.3854 -4.582,0.4587 -4.41,6.7454 0.057,1.7546 -0.636,8.4893 -0.636,8.4893 -0.572,2.385 0.136,5.011 1.286,5.905 1.214,0.944 0.803,0.486 2.079,1.152 1.224,0.64 3.405,0.536 4.156,-0.448 0.724,-0.942 0.104,-2.489 -0.489,-4.838 -0.47,-1.855 -0.178,-6.3964 -0.178,-6.3964 z"
     id="path52" />
  <path
     style="fill:#ffffff;fill-opacity:1;fill-rule:nonzero;stroke:none"
     d="m 144.69093,72.366689 c 0.161,0.188 -0.5,1.136 -0.088,1.458 0.407,0.334 1.041,-0.14 2.973,0.334 l 0.022,0.005 c 1.401,0.391 2.77,0.167 3.636,-0.74 1.437,-1.505 0.937,-4.301 -1.104,-6.249 -2.048,-1.954 -4.866,-2.308 -6.298,-0.808 -1.374,1.438 -0.974,4.073 0.859,6"
     id="path53" />
  <path
     style="fill:none;stroke:#231f20;stroke-width:0.565977;stroke-linecap:butt;stroke-linejoin:miter;stroke-miterlimit:4;stroke-dasharray:none;stroke-opacity:1"
     d="m 144.69093,72.366689 c 0.161,0.188 -0.5,1.136 -0.088,1.458 0.407,0.334 1.041,-0.14 2.973,0.334 l 0.022,0.005 c 1.401,0.391 2.77,0.167 3.636,-0.74 1.437,-1.505 0.937,-4.301 -1.104,-6.249 -2.048,-1.954 -4.866,-2.308 -6.298,-0.808 -1.374,1.438 -0.974,4.073 0.859,6 z"
     id="path54" />
  <path
     style="fill:#231f20;fill-opacity:1;fill-rule:nonzero;stroke:none"
     d="m 144.48293,81.652689 c -0.385,-0.51 -0.276,-2.453 -0.796,-3.973 -0.355,-1.027 -0.115,-3.761 -0.548,-4.756 -0.391,-0.911 -0.489,-1.369 0.48,-1.995 0.567,-0.374 1.911,-0.724 2.208,-0.306 0.697,0.968 0.907,1.89 0.916,2.958 0.016,1.219 -0.239,4.515 -0.337,5.119 -0.267,1.5 0.088,2.152 0.057,2.552 -0.057,0.761 -0.365,0.928 -0.86,0.996 -0.953,0.135 -1.12,-0.595 -1.12,-0.595"
     id="path55" />
  <path
     style="fill:none;stroke:#231f20;stroke-width:0.565977;stroke-linecap:butt;stroke-linejoin:miter;stroke-miterlimit:4;stroke-dasharray:none;stroke-opacity:1"
     d="m 144.48293,81.652689 c -0.385,-0.51 -0.276,-2.453 -0.796,-3.973 -0.355,-1.027 -0.115,-3.761 -0.548,-4.756 -0.391,-0.911 -0.489,-1.369 0.48,-1.995 0.567,-0.374 1.911,-0.724 2.208,-0.306 0.697,0.968 0.907,1.89 0.916,2.958 0.016,1.219 -0.239,4.515 -0.337,5.119 -0.267,1.5 0.088,2.152 0.057,2.552 -0.057,0.761 -0.365,0.928 -0.86,0.996 -0.953,0.135 -1.12,-0.595 -1.12,-0.595 z"
     id="path56" />
  <path
     style="fill:#231f20;fill-opacity:1;fill-rule:nonzero;stroke:none"
     d="m 143.74293,72.622689 c -1.296,-0.032 -0.864,-2.027 -0.833,-2.563 0.032,-0.547 -0.052,-2.099 -0.276,-3.297 -0.219,-1.214 0.021,-2.807 -0.391,-5.094 -0.223,-1.208 0.329,-2.516 2.089,-2.754 1.74,-0.24 2.526,0.65 2.574,2.145 0.046,1.495 -0.548,2.921 -0.61,4.427 -0.057,1.51 0.02,3.057 0.14,4.266 0.136,1.375 -0.306,2.11 -0.729,2.334 -1.047,0.577 -1.964,0.536 -1.964,0.536"
     id="path57" />
  <path
     style="fill:none;stroke:#231f20;stroke-width:0.565977;stroke-linecap:butt;stroke-linejoin:miter;stroke-miterlimit:4;stroke-dasharray:none;stroke-opacity:1"
     d="m 143.74293,72.622689 c -1.296,-0.032 -0.864,-2.027 -0.833,-2.563 0.032,-0.547 -0.052,-2.099 -0.276,-3.297 -0.219,-1.214 0.021,-2.807 -0.391,-5.094 -0.223,-1.208 0.329,-2.516 2.089,-2.754 1.74,-0.24 2.526,0.65 2.574,2.145 0.046,1.495 -0.548,2.921 -0.61,4.427 -0.057,1.51 0.02,3.057 0.14,4.266 0.136,1.375 -0.306,2.11 -0.729,2.334 -1.047,0.577 -1.964,0.536 -1.964,0.536 z"
     id="path58" />
  <path
     style="fill:#231f20;fill-opacity:1;fill-rule:nonzero;stroke:none"
     d="m 146.81593,26.475689 c 2.208,0.4907 2.703,0.2814 2.97,-0.64 0.181,-0.6146 0.557,-1.1146 0.681,-1.4786 0.428,-1.2293 0.631,-3.4693 -0.447,-9.964 -0.245,-1.4693 -0.573,-3.5413 -0.641,-4.3960003 -0.109,-1.3493 -2.281,-0.26 -2.245,0.2760003 0.114,1.708 0.057,2.8907 0.01,3.5107 -0.025,0.4266 0.027,1.188 -0.306,2.8226 -0.49,2.48 -1.156,3.8907 -1.328,6 -0.084,0.9787 -0.767,1.6613 -0.35,2.6613 0.407,1.0107 1.656,1.208 1.656,1.208"
     id="path59" />
  <path
     style="fill:none;stroke:#231f20;stroke-width:0.565977;stroke-linecap:butt;stroke-linejoin:miter;stroke-miterlimit:4;stroke-dasharray:none;stroke-opacity:1"
     d="m 146.81593,26.475689 c 2.208,0.4907 2.703,0.2814 2.97,-0.64 0.181,-0.6146 0.557,-1.1146 0.681,-1.4786 0.428,-1.2293 0.631,-3.4693 -0.447,-9.964 -0.245,-1.4693 -0.573,-3.5413 -0.641,-4.3960003 -0.109,-1.3493 -2.281,-0.26 -2.245,0.2760003 0.114,1.708 0.057,2.8907 0.01,3.5107 -0.025,0.4266 0.027,1.188 -0.306,2.8226 -0.49,2.48 -1.156,3.8907 -1.328,6 -0.084,0.9787 -0.767,1.6613 -0.35,2.6613 0.407,1.0107 1.656,1.208 1.656,1.208 z"
     id="path60" />
  <path
     style="fill:#231f20;fill-opacity:1;fill-rule:nonzero;stroke:#231f20;stroke-width:0.565977;stroke-linecap:round;stroke-linejoin:round;stroke-miterlimit:4;stroke-dasharray:none;stroke-opacity:1"
     d="m 145.56193,24.309089 c -1.194,0.772 -0.886,2.9066 -0.99,3.2293 -1.516,4.7813 -1.5,5.1613 -2.401,8.8707 -1.297,5.3746 -1.365,9.2546 1.536,10.9266 1.975,1.1307 3.599,0.9267 4.631,0.1093 1.14,-0.912 2.437,-3.8173 0.833,-6.224 l -0.052,-1.708 c 0.109,-1.1613 0.156,-1.7293 0.249,-2.2973 0.183,-0.984 0.303,-2.0573 0.538,-3.9946 0.405,-3.4534 -0.287,-7.2294 -0.287,-7.2294 0.025,-0.3066 -0.063,-0.572 -0.219,-0.796"
     id="path61" />
  <path
     style="fill:#63c99d;fill-opacity:1;fill-rule:nonzero;stroke:none"
     d="m 149.14393,41.351689 -7.577,-1.912 c -0.12,0.6467 -0.199,1.2453 -0.251,1.828 -0.03,0.0733 -0.068,0.1467 -0.109,0.208 -0.432,0.6827 -0.235,1.2813 0.136,2.2507 0.219,1.5413 0.859,2.7453 2.115,3.5253 1.926,1.1987 3.557,1.0627 4.618,0.2867 1.172,-0.8694 2.579,-3.724 1.068,-6.1867"
     id="path62" />
  <path
     style="fill:none;stroke:#231f20;stroke-width:0.565977;stroke-linecap:butt;stroke-linejoin:miter;stroke-miterlimit:4;stroke-dasharray:none;stroke-opacity:1"
     d="m 149.14393,41.351689 -7.577,-1.912 c -0.12,0.6467 -0.199,1.2453 -0.251,1.828 -0.03,0.0733 -0.068,0.1467 -0.109,0.208 -0.432,0.6827 -0.235,1.2813 0.136,2.2507 0.219,1.5413 0.859,2.7453 2.115,3.5253 1.926,1.1987 3.557,1.0627 4.618,0.2867 1.172,-0.8694 2.579,-3.724 1.068,-6.1867 z"
     id="path63" />
  <path
     style="fill:#231f20;fill-opacity:1;fill-rule:nonzero;stroke:none"
     d="m 149.64993,7.6224887 c 0.984,0.9266 0.609,1.844 -0.307,2.3173 -0.276,0.1467003 -0.36,0.5573003 -0.641,0.6720003 -0.651,0.276 -2.239,-0.4427 -1.984,-1.9213003 0.021,-0.1054 -0.088,-0.9174 -0.074,-1.5427 0.032,-1.208 0.678,-3.6187 3.022,-4.9427 1.109,-0.6346 1.276,0.1414 0.906,0.532 -1.182,1.2387 -1.048,1.5774 -1.234,2.02 -0.656,1.4854 0.312,2.8654 0.312,2.8654"
     id="path64" />
  <path
     style="fill:none;stroke:#231f20;stroke-width:0.332927;stroke-linecap:butt;stroke-linejoin:miter;stroke-miterlimit:4;stroke-dasharray:none;stroke-opacity:1"
     d="m 149.64993,7.6224887 c 0.984,0.9266 0.609,1.844 -0.307,2.3173 -0.276,0.1467003 -0.36,0.5573003 -0.641,0.6720003 -0.651,0.276 -2.239,-0.4427 -1.984,-1.9213003 0.021,-0.1054 -0.088,-0.9174 -0.074,-1.5427 0.032,-1.208 0.678,-3.6187 3.022,-4.9427 1.109,-0.6346 1.276,0.1414 0.906,0.532 -1.182,1.2387 -1.048,1.5774 -1.234,2.02 -0.656,1.4854 0.312,2.8654 0.312,2.8654 z"
     id="path65" />
  <path
     style="fill:#231f20;fill-opacity:1;fill-rule:nonzero;stroke:none"
     d="m 148.38993,82.486689 c 0.213,1.161 -0.547,2.27 -1.708,2.489 -1.158,0.215 -2.272,-0.552 -2.486,-1.708 -0.218,-1.156 0.547,-2.271 1.704,-2.484 1.162,-0.213 2.276,0.547 2.49,1.703"
     id="path66" />
  <path
     style="fill:#63c99d;fill-opacity:1;fill-rule:nonzero;stroke:none"
     d="m 334.88193,52.054289 c 0.21,-3.1253 0.6,-3.7759 1.01,-4.5986 2.62,-5.1507 0.04,-6.344 -2.82,-6.0107 -3.37,0.3854 -4.58,0.4587 -4.41,6.7454 0.06,1.7546 -0.64,8.4893 -0.64,8.4893 -0.57,2.385 0.14,5.011 1.29,5.905 1.21,0.944 0.8,0.486 2.08,1.152 1.22,0.64 3.4,0.536 4.15,-0.448 0.73,-0.942 0.11,-2.489 -0.49,-4.838 -0.47,-1.855 -0.17,-6.3964 -0.17,-6.3964"
     id="path67" />
  <path
     style="fill:none;stroke:#231f20;stroke-width:0.565977;stroke-linecap:butt;stroke-linejoin:miter;stroke-miterlimit:4;stroke-dasharray:none;stroke-opacity:1"
     d="m 334.88193,52.054289 c 0.21,-3.1253 0.6,-3.7759 1.01,-4.5986 2.62,-5.1507 0.04,-6.344 -2.82,-6.0107 -3.37,0.3854 -4.58,0.4587 -4.41,6.7454 0.06,1.7546 -0.64,8.4893 -0.64,8.4893 -0.57,2.385 0.14,5.011 1.29,5.905 1.21,0.944 0.8,0.486 2.08,1.152 1.22,0.64 3.4,0.536 4.15,-0.448 0.73,-0.942 0.11,-2.489 -0.49,-4.838 -0.47,-1.855 -0.17,-6.3964 -0.17,-6.3964 z"
     id="path68" />
  <path
     style="fill:#ffffff;fill-opacity:1;fill-rule:nonzero;stroke:none"
     d="m 332.46193,72.366689 c 0.16,0.188 -0.5,1.136 -0.09,1.458 0.41,0.334 1.04,-0.14 2.98,0.334 l 0.02,0.005 c 1.4,0.391 2.77,0.167 3.63,-0.74 1.44,-1.505 0.94,-4.301 -1.1,-6.249 -2.05,-1.954 -4.87,-2.308 -6.3,-0.808 -1.37,1.438 -0.97,4.073 0.86,6"
     id="path69" />
  <path
     style="fill:none;stroke:#231f20;stroke-width:0.565977;stroke-linecap:butt;stroke-linejoin:miter;stroke-miterlimit:4;stroke-dasharray:none;stroke-opacity:1"
     d="m 332.46193,72.366689 c 0.16,0.188 -0.5,1.136 -0.09,1.458 0.41,0.334 1.04,-0.14 2.98,0.334 l 0.02,0.005 c 1.4,0.391 2.77,0.167 3.63,-0.74 1.44,-1.505 0.94,-4.301 -1.1,-6.249 -2.05,-1.954 -4.87,-2.308 -6.3,-0.808 -1.37,1.438 -0.97,4.073 0.86,6 z"
     id="path70" />
  <path
     style="fill:#231f20;fill-opacity:1;fill-rule:nonzero;stroke:none"
     d="m 332.25193,81.652689 c -0.38,-0.51 -0.27,-2.453 -0.79,-3.973 -0.36,-1.027 -0.12,-3.761 -0.55,-4.756 -0.39,-0.911 -0.49,-1.369 0.48,-1.995 0.57,-0.374 1.91,-0.724 2.21,-0.306 0.69,0.968 0.9,1.89 0.91,2.958 0.02,1.219 -0.24,4.515 -0.34,5.119 -0.26,1.5 0.09,2.152 0.06,2.552 -0.06,0.761 -0.36,0.928 -0.86,0.996 -0.95,0.135 -1.12,-0.595 -1.12,-0.595"
     id="path71" />
  <path
     style="fill:none;stroke:#231f20;stroke-width:0.565977;stroke-linecap:butt;stroke-linejoin:miter;stroke-miterlimit:4;stroke-dasharray:none;stroke-opacity:1"
     d="m 332.25193,81.652689 c -0.38,-0.51 -0.27,-2.453 -0.79,-3.973 -0.36,-1.027 -0.12,-3.761 -0.55,-4.756 -0.39,-0.911 -0.49,-1.369 0.48,-1.995 0.57,-0.374 1.91,-0.724 2.21,-0.306 0.69,0.968 0.9,1.89 0.91,2.958 0.02,1.219 -0.24,4.515 -0.34,5.119 -0.26,1.5 0.09,2.152 0.06,2.552 -0.06,0.761 -0.36,0.928 -0.86,0.996 -0.95,0.135 -1.12,-0.595 -1.12,-0.595 z"
     id="path72" />
  <path
     style="fill:#231f20;fill-opacity:1;fill-rule:nonzero;stroke:none"
     d="m 331.51193,72.622689 c -1.29,-0.032 -0.86,-2.027 -0.83,-2.563 0.03,-0.547 -0.05,-2.099 -0.28,-3.297 -0.22,-1.214 0.02,-2.807 -0.39,-5.094 -0.22,-1.208 0.33,-2.516 2.09,-2.754 1.74,-0.24 2.53,0.65 2.57,2.145 0.05,1.495 -0.54,2.921 -0.61,4.427 -0.05,1.51 0.02,3.057 0.14,4.266 0.14,1.375 -0.3,2.11 -0.72,2.334 -1.05,0.577 -1.97,0.536 -1.97,0.536"
     id="path73" />
  <path
     style="fill:none;stroke:#231f20;stroke-width:0.565977;stroke-linecap:butt;stroke-linejoin:miter;stroke-miterlimit:4;stroke-dasharray:none;stroke-opacity:1"
     d="m 331.51193,72.622689 c -1.29,-0.032 -0.86,-2.027 -0.83,-2.563 0.03,-0.547 -0.05,-2.099 -0.28,-3.297 -0.22,-1.214 0.02,-2.807 -0.39,-5.094 -0.22,-1.208 0.33,-2.516 2.09,-2.754 1.74,-0.24 2.53,0.65 2.57,2.145 0.05,1.495 -0.54,2.921 -0.61,4.427 -0.05,1.51 0.02,3.057 0.14,4.266 0.14,1.375 -0.3,2.11 -0.72,2.334 -1.05,0.577 -1.97,0.536 -1.97,0.536 z"
     id="path74" />
  <path
     style="fill:#231f20;fill-opacity:1;fill-rule:nonzero;stroke:none"
     d="m 334.58193,26.475689 c 2.21,0.4907 2.71,0.2814 2.97,-0.64 0.19,-0.6146 0.56,-1.1146 0.69,-1.4786 0.42,-1.2293 0.63,-3.4693 -0.45,-9.964 -0.25,-1.4693 -0.57,-3.5413 -0.64,-4.3960003 -0.11,-1.3493 -2.28,-0.26 -2.25,0.2760003 0.12,1.708 0.06,2.8907 0.01,3.5107 -0.02,0.4266 0.03,1.188 -0.3,2.8226 -0.49,2.48 -1.16,3.8907 -1.33,6 -0.09,0.9787 -0.77,1.6613 -0.35,2.6613 0.41,1.0107 1.65,1.208 1.65,1.208"
     id="path75" />
  <path
     style="fill:none;stroke:#231f20;stroke-width:0.565977;stroke-linecap:butt;stroke-linejoin:miter;stroke-miterlimit:4;stroke-dasharray:none;stroke-opacity:1"
     d="m 334.58193,26.475689 c 2.21,0.4907 2.71,0.2814 2.97,-0.64 0.19,-0.6146 0.56,-1.1146 0.69,-1.4786 0.42,-1.2293 0.63,-3.4693 -0.45,-9.964 -0.25,-1.4693 -0.57,-3.5413 -0.64,-4.3960003 -0.11,-1.3493 -2.28,-0.26 -2.25,0.2760003 0.12,1.708 0.06,2.8907 0.01,3.5107 -0.02,0.4266 0.03,1.188 -0.3,2.8226 -0.49,2.48 -1.16,3.8907 -1.33,6 -0.09,0.9787 -0.77,1.6613 -0.35,2.6613 0.41,1.0107 1.65,1.208 1.65,1.208 z"
     id="path76" />
  <path
     style="fill:#231f20;fill-opacity:1;fill-rule:nonzero;stroke:#231f20;stroke-width:0.565977;stroke-linecap:round;stroke-linejoin:round;stroke-miterlimit:4;stroke-dasharray:none;stroke-opacity:1"
     d="m 333.33193,24.309089 c -1.19,0.772 -0.89,2.9066 -0.99,3.2293 -1.52,4.7813 -1.5,5.1613 -2.4,8.8707 -1.3,5.3746 -1.37,9.2546 1.54,10.9266 1.98,1.1307 3.59,0.9267 4.63,0.1093 1.14,-0.912 2.43,-3.8173 0.83,-6.224 l -0.05,-1.708 c 0.11,-1.1613 0.15,-1.7293 0.25,-2.2973 0.18,-0.984 0.3,-2.0573 0.53,-3.9946 0.41,-3.4534 -0.28,-7.2294 -0.28,-7.2294 0.02,-0.3066 -0.07,-0.572 -0.22,-0.796"
     id="path77" />
  <path
     style="fill:#63c99d;fill-opacity:1;fill-rule:nonzero;stroke:none"
     d="m 336.91193,41.351689 -7.57,-1.912 c -0.12,0.6467 -0.2,1.2453 -0.26,1.828 -0.03,0.0733 -0.06,0.1467 -0.1,0.208 -0.43,0.6827 -0.24,1.2813 0.14,2.2507 0.21,1.5413 0.85,2.7453 2.11,3.5253 1.92,1.1987 3.55,1.0627 4.62,0.2867 1.17,-0.8694 2.57,-3.724 1.06,-6.1867"
     id="path78" />
  <path
     style="fill:none;stroke:#231f20;stroke-width:0.565977;stroke-linecap:butt;stroke-linejoin:miter;stroke-miterlimit:4;stroke-dasharray:none;stroke-opacity:1"
     d="m 336.91193,41.351689 -7.57,-1.912 c -0.12,0.6467 -0.2,1.2453 -0.26,1.828 -0.03,0.0733 -0.06,0.1467 -0.1,0.208 -0.43,0.6827 -0.24,1.2813 0.14,2.2507 0.21,1.5413 0.85,2.7453 2.11,3.5253 1.92,1.1987 3.55,1.0627 4.62,0.2867 1.17,-0.8694 2.57,-3.724 1.06,-6.1867 z"
     id="path79" />
  <path
     style="fill:#231f20;fill-opacity:1;fill-rule:nonzero;stroke:none"
     d="m 337.42193,7.6224887 c 0.98,0.9266 0.61,1.844 -0.31,2.3173 -0.27,0.1467003 -0.36,0.5573003 -0.64,0.6720003 -0.65,0.276 -2.24,-0.4427 -1.98,-1.9213003 0.02,-0.1054 -0.09,-0.9174 -0.08,-1.5427 0.03,-1.208 0.68,-3.6187 3.02,-4.9427 1.11,-0.6346 1.28,0.1414 0.91,0.532 -1.18,1.2387 -1.04,1.5774 -1.23,2.02 -0.66,1.4854 0.31,2.8654 0.31,2.8654"
     id="path80" />
  <path
     style="fill:none;stroke:#231f20;stroke-width:0.332927;stroke-linecap:butt;stroke-linejoin:miter;stroke-miterlimit:4;stroke-dasharray:none;stroke-opacity:1"
     d="m 337.42193,7.6224887 c 0.98,0.9266 0.61,1.844 -0.31,2.3173 -0.27,0.1467003 -0.36,0.5573003 -0.64,0.6720003 -0.65,0.276 -2.24,-0.4427 -1.98,-1.9213003 0.02,-0.1054 -0.09,-0.9174 -0.08,-1.5427 0.03,-1.208 0.68,-3.6187 3.02,-4.9427 1.11,-0.6346 1.28,0.1414 0.91,0.532 -1.18,1.2387 -1.04,1.5774 -1.23,2.02 -0.66,1.4854 0.31,2.8654 0.31,2.8654 z"
     id="path81" />
  <path
     style="fill:#231f20;fill-opacity:1;fill-rule:nonzero;stroke:none"
     d="m 336.16193,82.486689 c 0.21,1.161 -0.55,2.27 -1.71,2.489 -1.16,0.215 -2.27,-0.552 -2.49,-1.708 -0.21,-1.156 0.55,-2.271 1.71,-2.484 1.16,-0.213 2.27,0.547 2.49,1.703"
     id="path82" />
  <path
     style="fill:#63c99d;fill-opacity:1;fill-rule:nonzero;stroke:none"
     d="m 300.00193,51.304989 c 0.22,-3.1253 0.6,-3.776 1.02,-4.6 2.62,-5.1506 0.04,-6.3386 -2.83,-6.0053 -3.37,0.3813 -4.58,0.4533 -4.41,6.7453 0.06,1.7547 -0.63,8.4897 -0.63,8.4897 -0.57,2.38 0.13,5.01 1.28,5.901 1.22,0.948 0.81,0.484 2.08,1.156 1.23,0.641 3.41,0.532 4.16,-0.453 0.72,-0.938 0.11,-2.49 -0.49,-4.839 -0.47,-1.853 -0.18,-6.3947 -0.18,-6.3947"
     id="path83" />
  <path
     style="fill:none;stroke:#231f20;stroke-width:0.565977;stroke-linecap:butt;stroke-linejoin:miter;stroke-miterlimit:4;stroke-dasharray:none;stroke-opacity:1"
     d="m 300.00193,51.304989 c 0.22,-3.1253 0.6,-3.776 1.02,-4.6 2.62,-5.1506 0.04,-6.3386 -2.83,-6.0053 -3.37,0.3813 -4.58,0.4533 -4.41,6.7453 0.06,1.7547 -0.63,8.4897 -0.63,8.4897 -0.57,2.38 0.13,5.01 1.28,5.901 1.22,0.948 0.81,0.484 2.08,1.156 1.23,0.641 3.41,0.532 4.16,-0.453 0.72,-0.938 0.11,-2.49 -0.49,-4.839 -0.47,-1.853 -0.18,-6.3947 -0.18,-6.3947 z"
     id="path84" />
  <path
     style="fill:#ffffff;fill-opacity:1;fill-rule:nonzero;stroke:none"
     d="m 297.58193,71.616689 c 0.17,0.188 -0.5,1.136 -0.08,1.464 0.4,0.334 1.04,-0.146 2.97,0.334 l 0.02,0.005 c 1.4,0.389 2.78,0.165 3.64,-0.745 1.43,-1.506 0.93,-4.303 -1.1,-6.251 -2.05,-1.948 -4.87,-2.301 -6.3,-0.801 -1.38,1.432 -0.98,4.068 0.85,5.994"
     id="path85" />
  <path
     style="fill:none;stroke:#231f20;stroke-width:0.565977;stroke-linecap:butt;stroke-linejoin:miter;stroke-miterlimit:4;stroke-dasharray:none;stroke-opacity:1"
     d="m 297.58193,71.616689 c 0.17,0.188 -0.5,1.136 -0.08,1.464 0.4,0.334 1.04,-0.146 2.97,0.334 l 0.02,0.005 c 1.4,0.389 2.78,0.165 3.64,-0.745 1.43,-1.506 0.93,-4.303 -1.1,-6.251 -2.05,-1.948 -4.87,-2.301 -6.3,-0.801 -1.38,1.432 -0.98,4.068 0.85,5.994 z"
     id="path86" />
  <path
     style="fill:#231f20;fill-opacity:1;fill-rule:nonzero;stroke:none"
     d="m 297.38193,80.903689 c -0.39,-0.511 -0.28,-2.453 -0.8,-3.975 -0.35,-1.025 -0.12,-3.76 -0.55,-4.749 -0.39,-0.917 -0.49,-1.371 0.48,-1.995 0.57,-0.376 1.92,-0.724 2.22,-0.313 0.69,0.969 0.9,1.891 0.91,2.959 0.01,1.218 -0.24,4.521 -0.34,5.125 -0.27,1.5 0.09,2.145 0.06,2.547 -0.06,0.76 -0.36,0.926 -0.86,1 -0.96,0.13 -1.12,-0.599 -1.12,-0.599"
     id="path87" />
  <path
     style="fill:none;stroke:#231f20;stroke-width:0.565977;stroke-linecap:butt;stroke-linejoin:miter;stroke-miterlimit:4;stroke-dasharray:none;stroke-opacity:1"
     d="m 297.38193,80.903689 c -0.39,-0.511 -0.28,-2.453 -0.8,-3.975 -0.35,-1.025 -0.12,-3.76 -0.55,-4.749 -0.39,-0.917 -0.49,-1.371 0.48,-1.995 0.57,-0.376 1.92,-0.724 2.22,-0.313 0.69,0.969 0.9,1.891 0.91,2.959 0.01,1.218 -0.24,4.521 -0.34,5.125 -0.27,1.5 0.09,2.145 0.06,2.547 -0.06,0.76 -0.36,0.926 -0.86,1 -0.96,0.13 -1.12,-0.599 -1.12,-0.599 z"
     id="path88" />
  <path
     style="fill:#231f20;fill-opacity:1;fill-rule:nonzero;stroke:none"
     d="m 296.64193,71.876689 c -1.3,-0.036 -0.87,-2.025 -0.84,-2.562 0.04,-0.547 -0.05,-2.099 -0.27,-3.302 -0.22,-1.208 0.02,-2.802 -0.39,-5.094 -0.23,-1.203 0.32,-2.51 2.09,-2.755 1.73,-0.235 2.52,0.651 2.57,2.151 0.05,1.49 -0.55,2.917 -0.61,4.428 -0.06,1.505 0.02,3.052 0.14,4.265 0.13,1.369 -0.31,2.104 -0.73,2.328 -1.05,0.579 -1.96,0.541 -1.96,0.541"
     id="path89" />
  <path
     style="fill:none;stroke:#231f20;stroke-width:0.565977;stroke-linecap:butt;stroke-linejoin:miter;stroke-miterlimit:4;stroke-dasharray:none;stroke-opacity:1"
     d="m 296.64193,71.876689 c -1.3,-0.036 -0.87,-2.025 -0.84,-2.562 0.04,-0.547 -0.05,-2.099 -0.27,-3.302 -0.22,-1.208 0.02,-2.802 -0.39,-5.094 -0.23,-1.203 0.32,-2.51 2.09,-2.755 1.73,-0.235 2.52,0.651 2.57,2.151 0.05,1.49 -0.55,2.917 -0.61,4.428 -0.06,1.505 0.02,3.052 0.14,4.265 0.13,1.369 -0.31,2.104 -0.73,2.328 -1.05,0.579 -1.96,0.541 -1.96,0.541 z"
     id="path90" />
  <path
     style="fill:#ffffff;fill-opacity:1;fill-rule:nonzero;stroke:none"
     d="m 298.93193,24.862389 c 2.24,0.3427 2.72,0.0987 2.93,-0.8387 0.14,-0.6253 0.48,-1.1466 0.57,-1.5213 0.35,-1.26 0.39,-3.5053 -1.12,-9.9173 -0.35,-1.4467 -0.81,-3.4893003 -0.94,-4.3373003 -0.2,-1.3387 -2.3,-0.1053 -2.22,0.4267 0.23,1.6973003 0.25,2.8799003 0.25,3.5053003 0,0.4266 0.1,1.1826 -0.12,2.8333 -0.32,2.5053 -0.89,3.9627 -0.91,6.0773 -0.02,0.9854 -0.65,1.7094 -0.17,2.6774 0.47,0.9853 1.73,1.0946 1.73,1.0946"
     id="path91" />
  <path
     style="fill:none;stroke:#231f20;stroke-width:0.565977;stroke-linecap:butt;stroke-linejoin:miter;stroke-miterlimit:4;stroke-dasharray:none;stroke-opacity:1"
     d="m 298.93193,24.862389 c 2.24,0.3427 2.72,0.0987 2.93,-0.8387 0.14,-0.6253 0.48,-1.1466 0.57,-1.5213 0.35,-1.26 0.39,-3.5053 -1.12,-9.9173 -0.35,-1.4467 -0.81,-3.4893003 -0.94,-4.3373003 -0.2,-1.3387 -2.3,-0.1053 -2.22,0.4267 0.23,1.6973003 0.25,2.8799003 0.25,3.5053003 0,0.4266 0.1,1.1826 -0.12,2.8333 -0.32,2.5053 -0.89,3.9627 -0.91,6.0773 -0.02,0.9854 -0.65,1.7094 -0.17,2.6774 0.47,0.9853 1.73,1.0946 1.73,1.0946 z"
     id="path92" />
  <path
     style="fill:#ffffff;fill-opacity:1;fill-rule:nonzero;stroke:#231f20;stroke-width:0.565977;stroke-linecap:round;stroke-linejoin:round;stroke-miterlimit:4;stroke-dasharray:none;stroke-opacity:1"
     d="m 297.53193,22.789089 c -1.13,0.8493 -0.68,2.9586 -0.76,3.2866 -1.19,4.8694 -1.15,5.2494 -1.79,9.0107 -0.94,5.4573 -0.74,9.328 2.27,10.796 2.05,0.9946 3.65,0.6826 4.63,-0.2027 1.08,-0.9893 2.17,-3.9747 0.41,-6.2653 l -0.17,-1.704 c 0.03,-1.1613 0.04,-1.7347 0.1,-2.3067 0.1,-0.9946 0.15,-2.068 0.26,-4.0266 0.16,-3.468 -0.79,-7.1867 -0.79,-7.1867 0.01,-0.3133 -0.09,-0.568 -0.27,-0.7813"
     id="path93" />
  <path
     style="fill:#231f20;fill-opacity:1;fill-rule:nonzero;stroke:none"
     d="m 300.48193,5.8570887 c 1.04,0.8587 0.73,1.8014 -0.16,2.3387 -0.26,0.1613 -0.31,0.5773 -0.59,0.708 -0.62,0.3173 -2.26,-0.2867 -2.11,-1.776 0.02,-0.1093 -0.14,-0.9067 -0.17,-1.532 -0.05,-1.2133 0.43,-3.6613 2.67,-5.14 1.07,-0.708 1.29,0.052 0.94,0.468 -1.09,1.3133 -0.93,1.6413 -1.09,2.0947 -0.55,1.5306 0.51,2.8386 0.51,2.8386"
     id="path94" />
  <path
     style="fill:none;stroke:#231f20;stroke-width:0.332927;stroke-linecap:butt;stroke-linejoin:miter;stroke-miterlimit:4;stroke-dasharray:none;stroke-opacity:1"
     d="m 300.48193,5.8570887 c 1.04,0.8587 0.73,1.8014 -0.16,2.3387 -0.26,0.1613 -0.31,0.5773 -0.59,0.708 -0.62,0.3173 -2.26,-0.2867 -2.11,-1.776 0.02,-0.1093 -0.14,-0.9067 -0.17,-1.532 -0.05,-1.2133 0.43,-3.6613 2.67,-5.14 1.07,-0.708 1.29,0.052 0.94,0.468 -1.09,1.3133 -0.93,1.6413 -1.09,2.0947 -0.55,1.5306 0.51,2.8386 0.51,2.8386 z"
     id="path95" />
  <path
     style="fill:#231f20;fill-opacity:1;fill-rule:nonzero;stroke:none"
     d="m 281.66193,40.871689 c 0.53,-2.1973 0.34,-2.6973 -0.58,-2.984 -0.62,-0.1973 -1.1,-0.5787 -1.46,-0.7133 -1.23,-0.4533 -3.46,-0.6987 -9.98,0.24 -1.47,0.2186 -3.55,0.5 -4.41,0.5466 -1.35,0.088 -0.31,2.2814 0.23,2.2547 1.71,-0.0827 2.9,0.0053 3.52,0.0627 0.42,0.036 1.18,0 2.81,0.364 2.47,0.5426 3.86,1.24 5.97,1.4533 0.98,0.104 1.64,0.8027 2.65,0.4067 1.02,-0.38 1.25,-1.6307 1.25,-1.6307"
     id="path96" />
  <path
     style="fill:none;stroke:#231f20;stroke-width:0.565977;stroke-linecap:butt;stroke-linejoin:miter;stroke-miterlimit:4;stroke-dasharray:none;stroke-opacity:1"
     d="m 281.66193,40.871689 c 0.53,-2.1973 0.34,-2.6973 -0.58,-2.984 -0.62,-0.1973 -1.1,-0.5787 -1.46,-0.7133 -1.23,-0.4533 -3.46,-0.6987 -9.98,0.24 -1.47,0.2186 -3.55,0.5 -4.41,0.5466 -1.35,0.088 -0.31,2.2814 0.23,2.2547 1.71,-0.0827 2.9,0.0053 3.52,0.0627 0.42,0.036 1.18,0 2.81,0.364 2.47,0.5426 3.86,1.24 5.97,1.4533 0.98,0.104 1.64,0.8027 2.65,0.4067 1.02,-0.38 1.25,-1.6307 1.25,-1.6307 z"
     id="path97" />
  <path
     style="fill:#231f20;fill-opacity:1;fill-rule:nonzero;stroke:#231f20;stroke-width:0.565977;stroke-linecap:round;stroke-linejoin:round;stroke-miterlimit:4;stroke-dasharray:none;stroke-opacity:1"
     d="m 279.46193,42.080989 c 0.75,1.208 2.89,0.948 3.21,1.0574 4.75,1.6146 5.13,1.6093 8.82,2.588 5.35,1.412 9.23,1.5573 10.95,-1.3067 1.18,-1.9533 1.01,-3.584 0.21,-4.6307 -0.89,-1.156 -3.76,-2.516 -6.2,-0.964 l -1.71,0.016 c -1.16,-0.1306 -1.73,-0.1933 -2.29,-0.2973 -0.99,-0.2027 -2.05,-0.344 -3.99,-0.62 -3.44,-0.4787 -7.23,0.136 -7.23,0.136 -0.31,-0.036 -0.58,0.052 -0.8,0.2027"
     id="path98" />
  <path
     style="fill:#63c99d;fill-opacity:1;fill-rule:nonzero;stroke:none"
     d="m 302.74193,40.054389 c -0.85,-1.188 -3.67,-2.656 -6.16,-1.1974 l -2.08,7.536 c 3.69,0.7707 6.41,0.4894 7.86,-1.724 1.24,-1.9013 1.13,-3.536 0.38,-4.6146"
     id="path99" />
  <path
     style="fill:none;stroke:#231f20;stroke-width:0.565977;stroke-linecap:butt;stroke-linejoin:miter;stroke-miterlimit:4;stroke-dasharray:none;stroke-opacity:1"
     d="m 302.74193,40.054389 c -0.85,-1.188 -3.67,-2.656 -6.16,-1.1974 l -2.08,7.536 c 3.69,0.7707 6.41,0.4894 7.86,-1.724 1.24,-1.9013 1.13,-3.536 0.38,-4.6146 z"
     id="path100" />
  <path
     style="fill:#231f20;fill-opacity:1;fill-rule:nonzero;stroke:none"
     d="m 262.86193,37.647689 c 0.95,-0.968 1.86,-0.572 2.31,0.3547 0.14,0.276 0.56,0.3693 0.66,0.6506 0.27,0.656 -0.48,2.2294 -1.96,1.9427 -0.1,-0.02 -0.91,0.0733 -1.54,0.0427 -1.21,-0.0574 -3.6,-0.7507 -4.88,-3.12 -0.61,-1.1307 0.17,-1.2813 0.55,-0.9013 1.21,1.2079 1.55,1.0786 1.99,1.2759 1.47,0.688 2.87,-0.2453 2.87,-0.2453"
     id="path101" />
  <path
     style="fill:none;stroke:#231f20;stroke-width:0.332927;stroke-linecap:butt;stroke-linejoin:miter;stroke-miterlimit:4;stroke-dasharray:none;stroke-opacity:1"
     d="m 262.86193,37.647689 c 0.95,-0.968 1.86,-0.572 2.31,0.3547 0.14,0.276 0.56,0.3693 0.66,0.6506 0.27,0.656 -0.48,2.2294 -1.96,1.9427 -0.1,-0.02 -0.91,0.0733 -1.54,0.0427 -1.21,-0.0574 -3.6,-0.7507 -4.88,-3.12 -0.61,-1.1307 0.17,-1.2813 0.55,-0.9013 1.21,1.2079 1.55,1.0786 1.99,1.2759 1.47,0.688 2.87,-0.2453 2.87,-0.2453 z"
     id="path102" />
  <path
     style="fill:#231f20;fill-opacity:1;fill-rule:nonzero;stroke:none"
     d="m 281.66193,40.871689 c 0.53,-2.1973 0.34,-2.6973 -0.58,-2.984 -0.62,-0.1973 -1.1,-0.5787 -1.46,-0.7133 -1.23,-0.4533 -3.46,-0.6987 -9.98,0.24 -1.47,0.2186 -3.55,0.5 -4.41,0.5466 -1.35,0.088 -0.31,2.2814 0.23,2.2547 1.71,-0.0827 2.9,0.0053 3.52,0.0627 0.42,0.036 1.18,0 2.81,0.364 2.47,0.5426 3.86,1.24 5.97,1.4533 0.98,0.104 1.64,0.8027 2.65,0.4067 1.02,-0.38 1.25,-1.6307 1.25,-1.6307"
     id="path103" />
  <path
     style="fill:none;stroke:#231f20;stroke-width:0.565977;stroke-linecap:butt;stroke-linejoin:miter;stroke-miterlimit:4;stroke-dasharray:none;stroke-opacity:1"
     d="m 281.66193,40.871689 c 0.53,-2.1973 0.34,-2.6973 -0.58,-2.984 -0.62,-0.1973 -1.1,-0.5787 -1.46,-0.7133 -1.23,-0.4533 -3.46,-0.6987 -9.98,0.24 -1.47,0.2186 -3.55,0.5 -4.41,0.5466 -1.35,0.088 -0.31,2.2814 0.23,2.2547 1.71,-0.0827 2.9,0.0053 3.52,0.0627 0.42,0.036 1.18,0 2.81,0.364 2.47,0.5426 3.86,1.24 5.97,1.4533 0.98,0.104 1.64,0.8027 2.65,0.4067 1.02,-0.38 1.25,-1.6307 1.25,-1.6307 z"
     id="path104" />
  <path
     style="fill:#231f20;fill-opacity:1;fill-rule:nonzero;stroke:#231f20;stroke-width:0.565977;stroke-linecap:round;stroke-linejoin:round;stroke-miterlimit:4;stroke-dasharray:none;stroke-opacity:1"
     d="m 279.46193,42.080989 c 0.75,1.208 2.89,0.948 3.21,1.0574 4.75,1.6146 5.13,1.6093 8.82,2.588 5.35,1.412 9.23,1.5573 10.95,-1.3067 1.18,-1.9533 1.01,-3.584 0.21,-4.6307 -0.89,-1.156 -3.76,-2.516 -6.2,-0.964 l -1.71,0.016 c -1.16,-0.1306 -1.73,-0.1933 -2.29,-0.2973 -0.99,-0.2027 -2.05,-0.344 -3.99,-0.62 -3.44,-0.4787 -7.23,0.136 -7.23,0.136 -0.31,-0.036 -0.58,0.052 -0.8,0.2027"
     id="path105" />
  <path
     style="fill:#63c99d;fill-opacity:1;fill-rule:nonzero;stroke:none"
     d="m 302.74193,40.054389 c -0.85,-1.188 -3.67,-2.656 -6.16,-1.1974 l -2.08,7.536 c 3.69,0.7707 6.41,0.4894 7.86,-1.724 1.24,-1.9013 1.13,-3.536 0.38,-4.6146"
     id="path106" />
  <path
     style="fill:none;stroke:#231f20;stroke-width:0.565977;stroke-linecap:butt;stroke-linejoin:miter;stroke-miterlimit:4;stroke-dasharray:none;stroke-opacity:1"
     d="m 302.74193,40.054389 c -0.85,-1.188 -3.67,-2.656 -6.16,-1.1974 l -2.08,7.536 c 3.69,0.7707 6.41,0.4894 7.86,-1.724 1.24,-1.9013 1.13,-3.536 0.38,-4.6146 z"
     id="path107" />
  <path
     style="fill:#231f20;fill-opacity:1;fill-rule:nonzero;stroke:none"
     d="m 262.86193,37.647689 c 0.95,-0.968 1.86,-0.572 2.31,0.3547 0.14,0.276 0.56,0.3693 0.66,0.6506 0.27,0.656 -0.48,2.2294 -1.96,1.9427 -0.1,-0.02 -0.91,0.0733 -1.54,0.0427 -1.21,-0.0574 -3.6,-0.7507 -4.88,-3.12 -0.61,-1.1307 0.17,-1.2813 0.55,-0.9013 1.21,1.2079 1.55,1.0786 1.99,1.2759 1.47,0.688 2.87,-0.2453 2.87,-0.2453"
     id="path108" />
  <path
     style="fill:none;stroke:#231f20;stroke-width:0.332927;stroke-linecap:butt;stroke-linejoin:miter;stroke-miterlimit:4;stroke-dasharray:none;stroke-opacity:1"
     d="m 262.86193,37.647689 c 0.95,-0.968 1.86,-0.572 2.31,0.3547 0.14,0.276 0.56,0.3693 0.66,0.6506 0.27,0.656 -0.48,2.2294 -1.96,1.9427 -0.1,-0.02 -0.91,0.0733 -1.54,0.0427 -1.21,-0.0574 -3.6,-0.7507 -4.88,-3.12 -0.61,-1.1307 0.17,-1.2813 0.55,-0.9013 1.21,1.2079 1.55,1.0786 1.99,1.2759 1.47,0.688 2.87,-0.2453 2.87,-0.2453 z"
     id="path109" />
  <path
     style="fill:#231f20;fill-opacity:1;fill-rule:nonzero;stroke:none"
     d="m 301.28193,81.742689 c 0.22,1.156 -0.54,2.27 -1.71,2.484 -1.15,0.213 -2.27,-0.547 -2.48,-1.708 -0.22,-1.156 0.55,-2.267 1.71,-2.486 1.16,-0.213 2.27,0.548 2.48,1.71"
     id="path110" />
  <path
     style="fill:#63c99d;fill-opacity:1;fill-rule:nonzero;stroke:none"
     d="m 240.63393,52.783689 c -1.818,-2.552 -1.932,-3.3027 -2.124,-4.2027 -1.246,-5.6466 -3.991,-4.9333 -5.995,-2.86 -2.365,2.4267 -3.261,3.2547 0.853,8.016 1.162,1.3227 4.891,6.9677 4.891,6.9677 1.068,2.204 3.276,3.792 4.735,3.756 1.536,-0.041 0.926,-0.136 2.333,-0.428 1.355,-0.276 2.973,-1.738 2.937,-2.978 -0.036,-1.188 -1.494,-1.995 -3.442,-3.432 -1.542,-1.142 -4.188,-4.839 -4.188,-4.839"
     id="path111" />
  <path
     style="fill:none;stroke:#231f20;stroke-width:0.565977;stroke-linecap:butt;stroke-linejoin:miter;stroke-miterlimit:4;stroke-dasharray:none;stroke-opacity:1"
     d="m 240.63393,52.783689 c -1.818,-2.552 -1.932,-3.3027 -2.124,-4.2027 -1.246,-5.6466 -3.991,-4.9333 -5.995,-2.86 -2.365,2.4267 -3.261,3.2547 0.853,8.016 1.162,1.3227 4.891,6.9677 4.891,6.9677 1.068,2.204 3.276,3.792 4.735,3.756 1.536,-0.041 0.926,-0.136 2.333,-0.428 1.355,-0.276 2.973,-1.738 2.937,-2.978 -0.036,-1.188 -1.494,-1.995 -3.442,-3.432 -1.542,-1.142 -4.188,-4.839 -4.188,-4.839 z"
     id="path112" />
  <path
     style="fill:#ffffff;fill-opacity:1;fill-rule:nonzero;stroke:none"
     d="m 244.95193,72.726689 c 0.162,0.188 -0.5,1.136 -0.089,1.464 0.407,0.333 1.043,-0.147 2.975,0.333 l 0.02,0.005 c 1.401,0.39 2.772,0.167 3.636,-0.74 1.438,-1.51 0.938,-4.302 -1.104,-6.25 -2.047,-1.954 -4.866,-2.307 -6.298,-0.807 -1.374,1.432 -0.973,4.068 0.86,5.995"
     id="path113" />
  <path
     style="fill:none;stroke:#231f20;stroke-width:0.565977;stroke-linecap:butt;stroke-linejoin:miter;stroke-miterlimit:4;stroke-dasharray:none;stroke-opacity:1"
     d="m 244.95193,72.726689 c 0.162,0.188 -0.5,1.136 -0.089,1.464 0.407,0.333 1.043,-0.147 2.975,0.333 l 0.02,0.005 c 1.401,0.39 2.772,0.167 3.636,-0.74 1.438,-1.51 0.938,-4.302 -1.104,-6.25 -2.047,-1.954 -4.866,-2.307 -6.298,-0.807 -1.374,1.432 -0.973,4.068 0.86,5.995 z"
     id="path114" />
  <path
     style="fill:#231f20;fill-opacity:1;fill-rule:nonzero;stroke:none"
     d="m 237.46693,80.632689 c -0.171,-0.609 0.641,-2.385 0.709,-3.99 0.042,-1.088 1.26,-3.547 1.219,-4.624 -0.032,-0.995 0.047,-1.454 1.172,-1.688 0.667,-0.14 2.047,0.026 2.172,0.521 0.296,1.156 0.156,2.088 -0.224,3.088 -0.428,1.141 -1.865,4.12 -2.183,4.645 -0.792,1.298 -0.698,2.032 -0.874,2.396 -0.328,0.688 -0.678,0.73 -1.162,0.615 -0.938,-0.224 -0.829,-0.963 -0.829,-0.963"
     id="path115" />
  <path
     style="fill:none;stroke:#231f20;stroke-width:0.565977;stroke-linecap:butt;stroke-linejoin:miter;stroke-miterlimit:4;stroke-dasharray:none;stroke-opacity:1"
     d="m 237.46693,80.632689 c -0.171,-0.609 0.641,-2.385 0.709,-3.99 0.042,-1.088 1.26,-3.547 1.219,-4.624 -0.032,-0.995 0.047,-1.454 1.172,-1.688 0.667,-0.14 2.047,0.026 2.172,0.521 0.296,1.156 0.156,2.088 -0.224,3.088 -0.428,1.141 -1.865,4.12 -2.183,4.645 -0.792,1.298 -0.698,2.032 -0.874,2.396 -0.328,0.688 -0.678,0.73 -1.162,0.615 -0.938,-0.224 -0.829,-0.963 -0.829,-0.963 z"
     id="path116" />
  <path
     style="fill:#231f20;fill-opacity:1;fill-rule:nonzero;stroke:none"
     d="m 240.07193,71.955689 c -1.198,-0.505 -0.073,-2.203 0.151,-2.693 0.229,-0.495 0.719,-1.968 0.948,-3.172 0.235,-1.208 1.041,-2.604 1.489,-4.886 0.23,-1.202 1.219,-2.218 2.943,-1.806 1.708,0.416 2.12,1.525 1.62,2.937 -0.505,1.407 -1.573,2.521 -2.177,3.907 -0.61,1.38 -1.099,2.853 -1.427,4.02 -0.371,1.328 -1.052,1.849 -1.527,1.906 -1.186,0.156 -2.02,-0.213 -2.02,-0.213"
     id="path117" />
  <path
     style="fill:none;stroke:#231f20;stroke-width:0.565977;stroke-linecap:butt;stroke-linejoin:miter;stroke-miterlimit:4;stroke-dasharray:none;stroke-opacity:1"
     d="m 240.07193,71.955689 c -1.198,-0.505 -0.073,-2.203 0.151,-2.693 0.229,-0.495 0.719,-1.968 0.948,-3.172 0.235,-1.208 1.041,-2.604 1.489,-4.886 0.23,-1.202 1.219,-2.218 2.943,-1.806 1.708,0.416 2.12,1.525 1.62,2.937 -0.505,1.407 -1.573,2.521 -2.177,3.907 -0.61,1.38 -1.099,2.853 -1.427,4.02 -0.371,1.328 -1.052,1.849 -1.527,1.906 -1.186,0.156 -2.02,-0.213 -2.02,-0.213 z"
     id="path118" />
  <path
     style="fill:#231f20;fill-opacity:1;fill-rule:nonzero;stroke:none"
     d="m 216.56193,46.966389 c 0.317,-2.24 0.072,-2.7187 -0.86,-2.912 -0.63,-0.136 -1.156,-0.4734 -1.536,-0.568 -1.256,-0.3334 -3.506,-0.3587 -9.902,1.204 -1.442,0.3586 -3.484,0.8426 -4.333,0.9786 -1.333,0.2134 -0.083,2.2974 0.448,2.2134 1.693,-0.24 2.88,-0.276 3.5,-0.276 0.432,-0.0054 1.183,-0.1147 2.839,0.0893 2.505,0.3013 3.964,0.8587 6.078,0.8693 0.984,0.0107 1.719,0.6347 2.682,0.1454 0.98,-0.4787 1.084,-1.744 1.084,-1.744"
     id="path119" />
  <path
     style="fill:none;stroke:#231f20;stroke-width:0.565977;stroke-linecap:butt;stroke-linejoin:miter;stroke-miterlimit:4;stroke-dasharray:none;stroke-opacity:1"
     d="m 216.56193,46.966389 c 0.317,-2.24 0.072,-2.7187 -0.86,-2.912 -0.63,-0.136 -1.156,-0.4734 -1.536,-0.568 -1.256,-0.3334 -3.506,-0.3587 -9.902,1.204 -1.442,0.3586 -3.484,0.8426 -4.333,0.9786 -1.333,0.2134 -0.083,2.2974 0.448,2.2134 1.693,-0.24 2.88,-0.276 3.5,-0.276 0.432,-0.0054 1.183,-0.1147 2.839,0.0893 2.505,0.3013 3.964,0.8587 6.078,0.8693 0.984,0.0107 1.719,0.6347 2.682,0.1454 0.98,-0.4787 1.084,-1.744 1.084,-1.744 z"
     id="path120" />
  <path
     style="fill:#231f20;fill-opacity:1;fill-rule:nonzero;stroke:#231f20;stroke-width:0.565977;stroke-linecap:round;stroke-linejoin:round;stroke-miterlimit:4;stroke-dasharray:none;stroke-opacity:1"
     d="m 214.49893,48.382389 c 0.859,1.1306 2.959,0.6613 3.292,0.7453 4.88,1.14 5.26,1.0987 9.025,1.7133 5.464,0.8853 9.334,0.6613 10.776,-2.3653 0.98,-2.056 0.651,-3.6613 -0.244,-4.624 -0.994,-1.068 -3.985,-2.1413 -6.266,-0.3547 l -1.703,0.1774 c -1.161,-0.016 -1.735,-0.0214 -2.307,-0.0734 -1,-0.104 -2.073,-0.14 -4.026,-0.2293 -3.47,-0.14 -7.188,0.8387 -7.188,0.8387 -0.307,-0.0054 -0.562,0.104 -0.776,0.276"
     id="path121" />
  <path
     style="fill:#231f20;fill-opacity:1;fill-rule:nonzero;stroke:none"
     d="m 197.54593,45.580989 c 0.849,-1.052 1.786,-0.7506 2.333,0.1294 0.167,0.2653 0.579,0.3186 0.713,0.5893 0.328,0.624 -0.265,2.2653 -1.76,2.124 -0.104,-0.0147 -0.906,0.1573 -1.532,0.188 -1.213,0.0573 -3.661,-0.396 -5.161,-2.636 -0.713,-1.0613 0.047,-1.2853 0.464,-0.9427 1.323,1.0787 1.651,0.9227 2.104,1.0734 1.532,0.5413 2.839,-0.5254 2.839,-0.5254"
     id="path122" />
  <path
     style="fill:none;stroke:#231f20;stroke-width:0.332927;stroke-linecap:butt;stroke-linejoin:miter;stroke-miterlimit:4;stroke-dasharray:none;stroke-opacity:1"
     d="m 197.54593,45.580989 c 0.849,-1.052 1.786,-0.7506 2.333,0.1294 0.167,0.2653 0.579,0.3186 0.713,0.5893 0.328,0.624 -0.265,2.2653 -1.76,2.124 -0.104,-0.0147 -0.906,0.1573 -1.532,0.188 -1.213,0.0573 -3.661,-0.396 -5.161,-2.636 -0.713,-1.0613 0.047,-1.2853 0.464,-0.9427 1.323,1.0787 1.651,0.9227 2.104,1.0734 1.532,0.5413 2.839,-0.5254 2.839,-0.5254 z"
     id="path123" />
  <path
     style="fill:#231f20;fill-opacity:1;fill-rule:nonzero;stroke:none"
     d="m 219.82193,56.324689 c -0.974,-2.0357 -1.448,-2.301 -2.334,-1.9424 -0.598,0.2404 -1.218,0.2504 -1.588,0.3804 -1.229,0.422 -3.114,1.646 -7.562,6.5 -1.006,1.1 -2.432,2.636 -3.068,3.218 -0.99,0.918 1.208,1.959 1.604,1.595 1.276,-1.147 2.24,-1.828 2.76,-2.177 0.354,-0.24 0.917,-0.751 2.412,-1.5 2.25,-1.142 3.77,-1.484 5.536,-2.651 0.824,-0.543 1.781,-0.428 2.313,-1.371 0.547,-0.942 -0.073,-2.052 -0.073,-2.052"
     id="path124" />
  <path
     style="fill:none;stroke:#231f20;stroke-width:0.565977;stroke-linecap:butt;stroke-linejoin:miter;stroke-miterlimit:4;stroke-dasharray:none;stroke-opacity:1"
     d="m 219.82193,56.324689 c -0.974,-2.0357 -1.448,-2.301 -2.334,-1.9424 -0.598,0.2404 -1.218,0.2504 -1.588,0.3804 -1.229,0.422 -3.114,1.646 -7.562,6.5 -1.006,1.1 -2.432,2.636 -3.068,3.218 -0.99,0.918 1.208,1.959 1.604,1.595 1.276,-1.147 2.24,-1.828 2.76,-2.177 0.354,-0.24 0.917,-0.751 2.412,-1.5 2.25,-1.142 3.77,-1.484 5.536,-2.651 0.824,-0.543 1.781,-0.428 2.313,-1.371 0.547,-0.942 -0.073,-2.052 -0.073,-2.052 z"
     id="path125" />
  <path
     style="fill:#231f20;fill-opacity:1;fill-rule:nonzero;stroke:#231f20;stroke-width:0.565977;stroke-linecap:round;stroke-linejoin:round;stroke-miterlimit:4;stroke-dasharray:none;stroke-opacity:1"
     d="m 218.89493,58.652689 c 1.339,0.459 2.828,-1.098 3.145,-1.213 4.699,-1.755 4.99,-2 8.47,-3.5827 5.03,-2.292 8.124,-4.636 7.645,-7.948 -0.328,-2.256 -1.489,-3.4066 -2.771,-3.7133 -1.417,-0.3333 -4.505,0.4373 -5.406,3.1813 l -1.318,1.0947 c -0.973,0.6347 -1.458,0.948 -1.964,1.2187 -0.885,0.468 -1.801,1.0306 -3.473,2.052 -2.969,1.8066 -5.511,4.6813 -5.511,4.6813 -0.26,0.167 -0.412,0.401 -0.489,0.663"
     id="path126" />
  <path
     style="fill:#63c99d;fill-opacity:1;fill-rule:nonzero;stroke:none"
     d="m 238.24793,46.158389 c -0.249,-2.2547 -1.358,-3.4587 -2.629,-3.812 -1.407,-0.3854 -4.516,0.2653 -5.521,2.9733 l 3.166,7.1413 c 3.339,-1.7347 5.26,-3.672 4.984,-6.3026"
     id="path127" />
  <path
     style="fill:none;stroke:#231f20;stroke-width:0.565977;stroke-linecap:butt;stroke-linejoin:miter;stroke-miterlimit:4;stroke-dasharray:none;stroke-opacity:1"
     d="m 238.24793,46.158389 c -0.249,-2.2547 -1.358,-3.4587 -2.629,-3.812 -1.407,-0.3854 -4.516,0.2653 -5.521,2.9733 l 3.166,7.1413 c 3.339,-1.7347 5.26,-3.672 4.984,-6.3026 z"
     id="path128" />
  <path
     style="fill:#231f20;fill-opacity:1;fill-rule:nonzero;stroke:none"
     d="m 203.23893,65.736689 c 0.119,-1.349 1.072,-1.62 2.015,-1.193 0.281,0.131 0.656,-0.057 0.922,0.095 0.615,0.337 1.031,2.03 -0.286,2.744 -0.094,0.046 -0.667,0.63 -1.172,1.005 -0.97,0.724 -3.266,1.703 -5.755,0.677 -1.183,-0.484 -0.677,-1.093 -0.136,-1.046 1.703,0.166 1.88,-0.147 2.344,-0.271 1.577,-0.401 2.068,-2.011 2.068,-2.011"
     id="path129" />
  <path
     style="fill:none;stroke:#231f20;stroke-width:0.332927;stroke-linecap:butt;stroke-linejoin:miter;stroke-miterlimit:4;stroke-dasharray:none;stroke-opacity:1"
     d="m 203.23893,65.736689 c 0.119,-1.349 1.072,-1.62 2.015,-1.193 0.281,0.131 0.656,-0.057 0.922,0.095 0.615,0.337 1.031,2.03 -0.286,2.744 -0.094,0.046 -0.667,0.63 -1.172,1.005 -0.97,0.724 -3.266,1.703 -5.755,0.677 -1.183,-0.484 -0.677,-1.093 -0.136,-1.046 1.703,0.166 1.88,-0.147 2.344,-0.271 1.577,-0.401 2.068,-2.011 2.068,-2.011 z"
     id="path130" />
  <path
     style="fill:#231f20;fill-opacity:1;fill-rule:nonzero;stroke:none"
     d="m 219.82193,56.324689 c -0.974,-2.0357 -1.448,-2.301 -2.334,-1.9424 -0.598,0.2404 -1.218,0.2504 -1.588,0.3804 -1.229,0.422 -3.114,1.646 -7.562,6.5 -1.006,1.1 -2.432,2.636 -3.068,3.218 -0.99,0.918 1.208,1.959 1.604,1.595 1.276,-1.147 2.24,-1.828 2.76,-2.177 0.354,-0.24 0.917,-0.751 2.412,-1.5 2.25,-1.142 3.77,-1.484 5.536,-2.651 0.824,-0.543 1.781,-0.428 2.313,-1.371 0.547,-0.942 -0.073,-2.052 -0.073,-2.052"
     id="path131" />
  <path
     style="fill:none;stroke:#231f20;stroke-width:0.565977;stroke-linecap:butt;stroke-linejoin:miter;stroke-miterlimit:4;stroke-dasharray:none;stroke-opacity:1"
     d="m 219.82193,56.324689 c -0.974,-2.0357 -1.448,-2.301 -2.334,-1.9424 -0.598,0.2404 -1.218,0.2504 -1.588,0.3804 -1.229,0.422 -3.114,1.646 -7.562,6.5 -1.006,1.1 -2.432,2.636 -3.068,3.218 -0.99,0.918 1.208,1.959 1.604,1.595 1.276,-1.147 2.24,-1.828 2.76,-2.177 0.354,-0.24 0.917,-0.751 2.412,-1.5 2.25,-1.142 3.77,-1.484 5.536,-2.651 0.824,-0.543 1.781,-0.428 2.313,-1.371 0.547,-0.942 -0.073,-2.052 -0.073,-2.052 z"
     id="path132" />
  <path
     style="fill:#231f20;fill-opacity:1;fill-rule:nonzero;stroke:#231f20;stroke-width:0.565977;stroke-linecap:round;stroke-linejoin:round;stroke-miterlimit:4;stroke-dasharray:none;stroke-opacity:1"
     d="m 218.89493,58.652689 c 1.339,0.459 2.828,-1.098 3.145,-1.213 4.699,-1.755 4.99,-2 8.47,-3.5827 5.03,-2.292 8.124,-4.636 7.645,-7.948 -0.328,-2.256 -1.489,-3.4066 -2.771,-3.7133 -1.417,-0.3333 -4.505,0.4373 -5.406,3.1813 l -1.318,1.0947 c -0.973,0.6347 -1.458,0.948 -1.964,1.2187 -0.885,0.468 -1.801,1.0306 -3.473,2.052 -2.969,1.8066 -5.511,4.6813 -5.511,4.6813 -0.26,0.167 -0.412,0.401 -0.489,0.663"
     id="path133" />
  <path
     style="fill:#63c99d;fill-opacity:1;fill-rule:nonzero;stroke:none"
     d="m 238.24793,46.158389 c -0.249,-2.2547 -1.358,-3.4587 -2.629,-3.812 -1.407,-0.3854 -4.516,0.2653 -5.521,2.9733 l 3.166,7.1413 c 3.339,-1.7347 5.26,-3.672 4.984,-6.3026"
     id="path134" />
  <path
     style="fill:none;stroke:#231f20;stroke-width:0.565977;stroke-linecap:butt;stroke-linejoin:miter;stroke-miterlimit:4;stroke-dasharray:none;stroke-opacity:1"
     d="m 238.24793,46.158389 c -0.249,-2.2547 -1.358,-3.4587 -2.629,-3.812 -1.407,-0.3854 -4.516,0.2653 -5.521,2.9733 l 3.166,7.1413 c 3.339,-1.7347 5.26,-3.672 4.984,-6.3026 z"
     id="path135" />
  <path
     style="fill:#231f20;fill-opacity:1;fill-rule:nonzero;stroke:none"
     d="m 203.23893,65.736689 c 0.119,-1.349 1.072,-1.62 2.015,-1.193 0.281,0.131 0.656,-0.057 0.922,0.095 0.615,0.337 1.031,2.03 -0.286,2.744 -0.094,0.046 -0.667,0.63 -1.172,1.005 -0.97,0.724 -3.266,1.703 -5.755,0.677 -1.183,-0.484 -0.677,-1.093 -0.136,-1.046 1.703,0.166 1.88,-0.147 2.344,-0.271 1.577,-0.401 2.068,-2.011 2.068,-2.011"
     id="path136" />
  <path
     style="fill:none;stroke:#231f20;stroke-width:0.332927;stroke-linecap:butt;stroke-linejoin:miter;stroke-miterlimit:4;stroke-dasharray:none;stroke-opacity:1"
     d="m 203.23893,65.736689 c 0.119,-1.349 1.072,-1.62 2.015,-1.193 0.281,0.131 0.656,-0.057 0.922,0.095 0.615,0.337 1.031,2.03 -0.286,2.744 -0.094,0.046 -0.667,0.63 -1.172,1.005 -0.97,0.724 -3.266,1.703 -5.755,0.677 -1.183,-0.484 -0.677,-1.093 -0.136,-1.046 1.703,0.166 1.88,-0.147 2.344,-0.271 1.577,-0.401 2.068,-2.011 2.068,-2.011 z"
     id="path137" />
  <path
     style="fill:#231f20;fill-opacity:1;fill-rule:nonzero;stroke:none"
     d="m 240.79993,82.835689 c -0.218,1.156 -1.333,1.917 -2.494,1.693 -1.151,-0.22 -1.911,-1.338 -1.692,-2.496 0.218,-1.156 1.338,-1.91 2.494,-1.692 1.156,0.219 1.916,1.339 1.692,2.495"
     id="path138" />
  <path
     style="fill:#ffffff;fill-opacity:1;fill-rule:nonzero;stroke:none"
     d="m 119.08693,68.668689 c 0.24,0.042 0.344,1.188 0.865,1.178 0.531,-0.006 0.714,-0.776 2.5,-1.651 l 0.02,-0.005 c 1.328,-0.6 2.235,-1.652 2.319,-2.902 0.14,-2.073 -2.037,-3.906 -4.849,-4.093 -2.823,-0.188 -5.219,1.348 -5.36,3.416 -0.135,1.984 1.86,3.751 4.505,4.057"
     id="path139" />
  <path
     style="fill:none;stroke:#231f20;stroke-width:0.565977;stroke-linecap:butt;stroke-linejoin:miter;stroke-miterlimit:4;stroke-dasharray:none;stroke-opacity:1"
     d="m 119.08693,68.668689 c 0.24,0.042 0.344,1.188 0.865,1.178 0.531,-0.006 0.714,-0.776 2.5,-1.651 l 0.02,-0.005 c 1.328,-0.6 2.235,-1.652 2.319,-2.902 0.14,-2.073 -2.037,-3.906 -4.849,-4.093 -2.823,-0.188 -5.219,1.348 -5.36,3.416 -0.135,1.984 1.86,3.751 4.505,4.057 z"
     id="path140" />
  <path
     style="fill:#231f20;fill-opacity:1;fill-rule:nonzero;stroke:none"
     d="m 107.10893,81.668689 c -0.484,-0.421 -0.766,-2.354 -1.584,-3.74 -0.552,-0.932 -0.864,-3.656 -1.484,-4.541 -0.568,-0.817 -0.755,-1.245 0.068,-2.052 0.484,-0.484 1.729,-1.093 2.104,-0.745 0.874,0.808 1.265,1.666 1.489,2.709 0.261,1.192 0.672,4.479 0.693,5.088 0.047,1.521 0.52,2.088 0.572,2.489 0.095,0.756 -0.17,0.98 -0.645,1.147 -0.912,0.323 -1.213,-0.355 -1.213,-0.355"
     id="path141" />
  <path
     style="fill:none;stroke:#231f20;stroke-width:0.565977;stroke-linecap:butt;stroke-linejoin:miter;stroke-miterlimit:4;stroke-dasharray:none;stroke-opacity:1"
     d="m 107.10893,81.668689 c -0.484,-0.421 -0.766,-2.354 -1.584,-3.74 -0.552,-0.932 -0.864,-3.656 -1.484,-4.541 -0.568,-0.817 -0.755,-1.245 0.068,-2.052 0.484,-0.484 1.729,-1.093 2.104,-0.745 0.874,0.808 1.265,1.666 1.489,2.709 0.261,1.192 0.672,4.479 0.693,5.088 0.047,1.521 0.52,2.088 0.572,2.489 0.095,0.756 -0.17,0.98 -0.645,1.147 -0.912,0.323 -1.213,-0.355 -1.213,-0.355 z"
     id="path142" />
  <path
     style="fill:#231f20;fill-opacity:1;fill-rule:nonzero;stroke:none"
     d="m 103.93693,71.835689 c -1.094,-0.693 0.297,-2.183 0.598,-2.625 0.308,-0.454 1.032,-1.828 1.459,-2.974 0.432,-1.15 1.453,-2.396 2.271,-4.578 0.426,-1.146 1.573,-1.984 3.208,-1.292 1.62,0.688 1.838,1.854 1.109,3.166 -0.729,1.303 -1.968,2.224 -2.791,3.491 -0.828,1.26 -1.552,2.629 -2.068,3.729 -0.593,1.25 -1.344,1.656 -1.822,1.63 -1.199,-0.042 -1.964,-0.547 -1.964,-0.547"
     id="path143" />
  <path
     style="fill:none;stroke:#231f20;stroke-width:0.565977;stroke-linecap:butt;stroke-linejoin:miter;stroke-miterlimit:4;stroke-dasharray:none;stroke-opacity:1"
     d="m 103.93693,71.835689 c -1.094,-0.693 0.297,-2.183 0.598,-2.625 0.308,-0.454 1.032,-1.828 1.459,-2.974 0.432,-1.15 1.453,-2.396 2.271,-4.578 0.426,-1.146 1.573,-1.984 3.208,-1.292 1.62,0.688 1.838,1.854 1.109,3.166 -0.729,1.303 -1.968,2.224 -2.791,3.491 -0.828,1.26 -1.552,2.629 -2.068,3.729 -0.593,1.25 -1.344,1.656 -1.822,1.63 -1.199,-0.042 -1.964,-0.547 -1.964,-0.547 z"
     id="path144" />
  <path
     style="fill:#231f20;fill-opacity:1;fill-rule:nonzero;stroke:none"
     d="m 111.10293,81.699689 c 0.443,1.095 -0.088,2.339 -1.177,2.781 -1.088,0.443 -2.339,-0.082 -2.781,-1.172 -0.443,-1.093 0.084,-2.337 1.177,-2.78 1.088,-0.442 2.339,0.083 2.781,1.171"
     id="path145" />
  <path
     style="fill:#ffffff;fill-opacity:1;fill-rule:nonzero;stroke:none"
     d="m 45.988928,71.575689 c 0.234,-0.073 0.869,0.885 1.328,0.629 0.464,-0.26 0.256,-1.025 1.412,-2.64 l 0.014,-0.021 c 0.882,-1.151 1.188,-2.511 0.663,-3.651 -0.86,-1.89 -3.647,-2.469 -6.215,-1.297 -2.572,1.183 -3.948,3.667 -3.088,5.557 0.823,1.808 3.416,2.412 5.886,1.423"
     id="path146" />
  <path
     style="fill:none;stroke:#231f20;stroke-width:0.565977;stroke-linecap:butt;stroke-linejoin:miter;stroke-miterlimit:4;stroke-dasharray:none;stroke-opacity:1"
     d="m 45.988928,71.575689 c 0.234,-0.073 0.869,0.885 1.328,0.629 0.464,-0.26 0.256,-1.025 1.412,-2.64 l 0.014,-0.021 c 0.882,-1.151 1.188,-2.511 0.663,-3.651 -0.86,-1.89 -3.647,-2.469 -6.215,-1.297 -2.572,1.183 -3.948,3.667 -3.088,5.557 0.823,1.808 3.416,2.412 5.886,1.423 z"
     id="path147" />
  <path
     style="fill:#231f20;fill-opacity:1;fill-rule:nonzero;stroke:none"
     d="m 25.504928,81.518689 c -0.428,-0.48 -0.459,-2.432 -1.09,-3.907 -0.432,-1 -0.39,-3.745 -0.896,-4.703 -0.457,-0.88 -0.588,-1.328 0.334,-2.026 0.542,-0.411 1.854,-0.859 2.182,-0.468 0.766,0.91 1.042,1.817 1.131,2.885 0.104,1.213 0.093,4.52 0.036,5.129 -0.156,1.516 0.245,2.136 0.245,2.543 0,0.76 -0.297,0.947 -0.786,1.057 -0.943,0.198 -1.156,-0.51 -1.156,-0.51"
     id="path148" />
  <path
     style="fill:none;stroke:#231f20;stroke-width:0.565977;stroke-linecap:butt;stroke-linejoin:miter;stroke-miterlimit:4;stroke-dasharray:none;stroke-opacity:1"
     d="m 25.504928,81.518689 c -0.428,-0.48 -0.459,-2.432 -1.09,-3.907 -0.432,-1 -0.39,-3.745 -0.896,-4.703 -0.457,-0.88 -0.588,-1.328 0.334,-2.026 0.542,-0.411 1.854,-0.859 2.182,-0.468 0.766,0.91 1.042,1.817 1.131,2.885 0.104,1.213 0.093,4.52 0.036,5.129 -0.156,1.516 0.245,2.136 0.245,2.543 0,0.76 -0.297,0.947 -0.786,1.057 -0.943,0.198 -1.156,-0.51 -1.156,-0.51 z"
     id="path149" />
  <path
     style="fill:#231f20;fill-opacity:1;fill-rule:nonzero;stroke:none"
     d="m 24.124928,70.762689 c -0.262,-1.276 1.781,-1.307 2.306,-1.396 0.542,-0.088 2.036,-0.52 3.156,-1.01 1.126,-0.485 2.735,-0.609 4.876,-1.532 1.119,-0.484 2.52,-0.244 3.151,1.418 0.625,1.64 -0.063,2.609 -1.511,2.989 -1.448,0.385 -2.969,0.125 -4.453,0.411 -1.484,0.276 -2.968,0.704 -4.125,1.094 -1.307,0.443 -2.119,0.178 -2.432,-0.182 -0.802,-0.896 -0.968,-1.792 -0.968,-1.792"
     id="path150" />
  <path
     style="fill:none;stroke:#231f20;stroke-width:0.565977;stroke-linecap:butt;stroke-linejoin:miter;stroke-miterlimit:4;stroke-dasharray:none;stroke-opacity:1"
     d="m 24.124928,70.762689 c -0.262,-1.276 1.781,-1.307 2.306,-1.396 0.542,-0.088 2.036,-0.52 3.156,-1.01 1.126,-0.485 2.735,-0.609 4.876,-1.532 1.119,-0.484 2.52,-0.244 3.151,1.418 0.625,1.64 -0.063,2.609 -1.511,2.989 -1.448,0.385 -2.969,0.125 -4.453,0.411 -1.484,0.276 -2.968,0.704 -4.125,1.094 -1.307,0.443 -2.119,0.178 -2.432,-0.182 -0.802,-0.896 -0.968,-1.792 -0.968,-1.792 z"
     id="path151" />
  <path
     style="fill:#231f20;fill-opacity:1;fill-rule:nonzero;stroke:none"
     d="m 29.457928,82.064689 c 0.301,1.135 -0.381,2.302 -1.521,2.604 -1.14,0.298 -2.307,-0.38 -2.604,-1.521 -0.303,-1.14 0.38,-2.307 1.516,-2.604 1.145,-0.301 2.306,0.38 2.609,1.521"
     id="path152" />
  <path
     style="fill:none;stroke:#231f20;stroke-width:2.2639;stroke-linecap:butt;stroke-linejoin:miter;stroke-miterlimit:4;stroke-dasharray:29.574, 29.574, 29.574, 29.574, 29.574, 29.574;stroke-dashoffset:0;stroke-opacity:1"
     d="m 174.68193,22.138389 v 31.3533"
     id="path153" />
  <path
     style="fill:none;stroke:#231f20;stroke-width:2.2639;stroke-linecap:butt;stroke-linejoin:miter;stroke-miterlimit:4;stroke-dasharray:29.574, 29.574, 29.574, 29.574, 29.574, 29.574;stroke-dashoffset:0;stroke-opacity:1"
     d="M 174.68193,73.043689 V 104.39869"
     id="path154" />
</svg>
