<?xml version="1.0" encoding="UTF-8" standalone="no"?>
<!-- Created with Inkscape (http://www.inkscape.org/) -->

<svg
   version="1.1"
   id="svg1"
   width="342.59656"
   height="38.736832"
   viewBox="0 0 342.59654 38.736832"
   sodipodi:docname="cell.svg"
   xmlns:inkscape="http://www.inkscape.org/namespaces/inkscape"
   xmlns:sodipodi="http://sodipodi.sourceforge.net/DTD/sodipodi-0.dtd"
   xmlns="http://www.w3.org/2000/svg"
   xmlns:svg="http://www.w3.org/2000/svg">
  <sodipodi:namedview
     id="namedview1"
     pagecolor="#ffffff"
     bordercolor="#000000"
     borderopacity="0.25"
     inkscape:showpageshadow="2"
     inkscape:pageopacity="0.0"
     inkscape:pagecheckerboard="0"
     inkscape:deskcolor="#d1d1d1">
    <inkscape:page
       x="0"
       y="0"
       inkscape:label="1"
       id="page1"
       width="342.59653"
       height="38.736832"
       margin="0"
       bleed="0" />
  </sodipodi:namedview>
  <defs
     id="defs1" />
  <path
     style="fill:#231f20;fill-opacity:1;fill-rule:nonzero;stroke:none"
     d="m 203.15463,35.049833 c -0.422,-0.48 -0.437,-2.433 -1.057,-3.917 -0.423,-1 -0.36,-3.744 -0.855,-4.708 -0.453,-0.885 -0.577,-1.333 0.35,-2.021 0.541,-0.411 1.86,-0.844 2.188,-0.448 0.754,0.917 1.025,1.822 1.104,2.89 0.093,1.214 0.052,4.522 -0.006,5.136 -0.166,1.511 0.23,2.135 0.224,2.542 -0.01,0.76 -0.308,0.942 -0.797,1.046 -0.943,0.194 -1.151,-0.52 -1.151,-0.52"
     id="path158" />
  <path
     style="fill:none;stroke:#231f20;stroke-width:0.565977;stroke-linecap:butt;stroke-linejoin:miter;stroke-miterlimit:4;stroke-dasharray:none;stroke-opacity:1"
     d="m 203.15463,35.049833 c -0.422,-0.48 -0.437,-2.433 -1.057,-3.917 -0.423,-1 -0.36,-3.744 -0.855,-4.708 -0.453,-0.885 -0.577,-1.333 0.35,-2.021 0.541,-0.411 1.86,-0.844 2.188,-0.448 0.754,0.917 1.025,1.822 1.104,2.89 0.093,1.214 0.052,4.522 -0.006,5.136 -0.166,1.511 0.23,2.135 0.224,2.542 -0.01,0.76 -0.308,0.942 -0.797,1.046 -0.943,0.194 -1.151,-0.52 -1.151,-0.52 z"
     id="path159" />
  <path
     style="fill:#231f20;fill-opacity:1;fill-rule:nonzero;stroke:none"
     d="m 201.82663,25.273833 c -1.297,0.052 -1,-1.969 -1,-2.5 0,-0.548 -0.188,-2.094 -0.489,-3.276 -0.297,-1.193 -0.157,-2.802 -0.72,-5.057 -0.301,-1.188 0.163,-2.532 1.901,-2.887 1.724,-0.348 2.568,0.486 2.71,1.975 0.14,1.489 -0.355,2.948 -0.319,4.459 0.037,1.51 0.219,3.046 0.417,4.249 0.224,1.36 -0.166,2.12 -0.573,2.375 -1.011,0.641 -1.927,0.662 -1.927,0.662"
     id="path160" />
  <path
     style="fill:none;stroke:#231f20;stroke-width:0.565977;stroke-linecap:butt;stroke-linejoin:miter;stroke-miterlimit:4;stroke-dasharray:none;stroke-opacity:1"
     d="m 201.82663,25.273833 c -1.297,0.052 -1,-1.969 -1,-2.5 0,-0.548 -0.188,-2.094 -0.489,-3.276 -0.297,-1.193 -0.157,-2.802 -0.72,-5.057 -0.301,-1.188 0.163,-2.532 1.901,-2.887 1.724,-0.348 2.568,0.486 2.71,1.975 0.14,1.489 -0.355,2.948 -0.319,4.459 0.037,1.51 0.219,3.046 0.417,4.249 0.224,1.36 -0.166,2.12 -0.573,2.375 -1.011,0.641 -1.927,0.662 -1.927,0.662 z"
     id="path161" />
  <path
     style="fill:#231f20;fill-opacity:1;fill-rule:nonzero;stroke:none"
     d="m 204.60263,18.716833 c -1.125,3.421 0.542,3.629 3.984,5.817 3.76,2.402 7.938,4.495 11.194,5.052 3.634,0.62 3.724,1.136 4.905,-0.374 1.183,-1.516 0.584,-2.011 0.245,-3.256 -0.39,-1.438 -7.573,-3.042 -11.484,-5.735 -1.833,-1.265 -5.412,-5.473 -6.49,-4.504 -1.078,0.973 -2.354,3 -2.354,3"
     id="path162" />
  <path
     style="fill:none;stroke:#231f20;stroke-width:0.565977;stroke-linecap:butt;stroke-linejoin:miter;stroke-miterlimit:4;stroke-dasharray:none;stroke-opacity:1"
     d="m 204.60263,18.716833 c -1.125,3.421 0.542,3.629 3.984,5.817 3.76,2.402 7.938,4.495 11.194,5.052 3.634,0.62 3.724,1.136 4.905,-0.374 1.183,-1.516 0.584,-2.011 0.245,-3.256 -0.39,-1.438 -7.573,-3.042 -11.484,-5.735 -1.833,-1.265 -5.412,-5.473 -6.49,-4.504 -1.078,0.973 -2.354,3 -2.354,3 z"
     id="path163" />
  <path
     style="fill:#231f20;fill-opacity:1;fill-rule:nonzero;stroke:none"
     d="m 223.37363,27.377833 c -1.183,1.927 -1.552,2.474 0.765,3.427 0.59,0.245 2.271,0.797 2.579,1.036 1.02,0.803 2.276,1.641 8.765,2.745 1.011,0.172 2.875,0.828 4.23,1.183 1.317,0.343 0.994,-2.073 0.478,-2.215 -1.65,-0.446 -2.62,-1.098 -3.192,-1.342 -0.396,-0.167 -1.177,-0.35 -2.505,-1.355 -3.412,-2.588 -5.147,-2.115 -5.907,-2.593 -2.188,-1.376 -3.776,-3.006 -4.306,-2.61 -0.871,0.651 -0.907,1.724 -0.907,1.724"
     id="path164" />
  <path
     style="fill:none;stroke:#231f20;stroke-width:0.565977;stroke-linecap:butt;stroke-linejoin:miter;stroke-miterlimit:4;stroke-dasharray:none;stroke-opacity:1"
     d="m 223.37363,27.377833 c -1.183,1.927 -1.552,2.474 0.765,3.427 0.59,0.245 2.271,0.797 2.579,1.036 1.02,0.803 2.276,1.641 8.765,2.745 1.011,0.172 2.875,0.828 4.23,1.183 1.317,0.343 0.994,-2.073 0.478,-2.215 -1.65,-0.446 -2.62,-1.098 -3.192,-1.342 -0.396,-0.167 -1.177,-0.35 -2.505,-1.355 -3.412,-2.588 -5.147,-2.115 -5.907,-2.593 -2.188,-1.376 -3.776,-3.006 -4.306,-2.61 -0.871,0.651 -0.907,1.724 -0.907,1.724 z"
     id="path165" />
  <path
     style="fill:#231f20;fill-opacity:1;fill-rule:nonzero;stroke:none"
     d="m 206.80563,14.059833 c 1.937,-3.042 3.151,-1.88 7.027,-0.599 4.233,1.401 8.5,3.313 10.989,5.48 2.781,2.421 3.235,2.167 2.812,4.036 -0.427,1.875 -1.192,1.724 -2.364,2.244 -1.365,0.615 -7.141,-3.937 -11.708,-5.265 -2.136,-0.624 -7.663,-0.73 -7.589,-2.182 0.073,-1.453 0.833,-3.714 0.833,-3.714"
     id="path166" />
  <path
     style="fill:none;stroke:#231f20;stroke-width:0.565977;stroke-linecap:butt;stroke-linejoin:miter;stroke-miterlimit:4;stroke-dasharray:none;stroke-opacity:1"
     d="m 206.80563,14.059833 c 1.937,-3.042 3.151,-1.88 7.027,-0.599 4.233,1.401 8.5,3.313 10.989,5.48 2.781,2.421 3.235,2.167 2.812,4.036 -0.427,1.875 -1.192,1.724 -2.364,2.244 -1.365,0.615 -7.141,-3.937 -11.708,-5.265 -2.136,-0.624 -7.663,-0.73 -7.589,-2.182 0.073,-1.453 0.833,-3.714 0.833,-3.714 z"
     id="path167" />
  <path
     style="fill:#231f20;fill-opacity:1;fill-rule:nonzero;stroke:none"
     d="m 225.37863,23.096833 c 0.76,-2.136 0.959,-2.765 3.151,-1.557 0.557,0.301 2.047,1.265 2.427,1.353 1.266,0.292 2.709,0.74 7.641,5.1 0.765,0.676 2.448,1.713 3.573,2.552 1.094,0.801 -0.99,2.067 -1.417,1.755 -1.391,-1 -2.5,-1.35 -3.052,-1.64 -0.375,-0.204 -1.016,-0.694 -2.631,-1.095 -4.156,-1.031 -4.874,-2.677 -5.729,-2.973 -2.443,-0.834 -4.703,-1.047 -4.728,-1.708 -0.048,-1.09 0.765,-1.787 0.765,-1.787"
     id="path168" />
  <path
     style="fill:none;stroke:#231f20;stroke-width:0.565977;stroke-linecap:butt;stroke-linejoin:miter;stroke-miterlimit:4;stroke-dasharray:none;stroke-opacity:1"
     d="m 225.37863,23.096833 c 0.76,-2.136 0.959,-2.765 3.151,-1.557 0.557,0.301 2.047,1.265 2.427,1.353 1.266,0.292 2.709,0.74 7.641,5.1 0.765,0.676 2.448,1.713 3.573,2.552 1.094,0.801 -0.99,2.067 -1.417,1.755 -1.391,-1 -2.5,-1.35 -3.052,-1.64 -0.375,-0.204 -1.016,-0.694 -2.631,-1.095 -4.156,-1.031 -4.874,-2.677 -5.729,-2.973 -2.443,-0.834 -4.703,-1.047 -4.728,-1.708 -0.048,-1.09 0.765,-1.787 0.765,-1.787 z"
     id="path169" />
  <path
     style="fill:#231f20;fill-opacity:1;fill-rule:nonzero;stroke:none"
     d="m 245.14963,30.055833 c -0.421,-0.516 -2.141,0.036 -3.948,-0.751 -0.369,-0.161 -0.745,-0.109 -1.115,-0.131 -1.51,-0.066 -2.912,0.704 0.094,3.074 0.417,0.333 2.453,0.833 3.032,1.364 1.369,1.272 4.677,1.005 4.76,0.49 0.182,-1.104 -2.823,-4.046 -2.823,-4.046"
     id="path170" />
  <path
     style="fill:none;stroke:#231f20;stroke-width:0.644548;stroke-linecap:round;stroke-linejoin:round;stroke-miterlimit:4;stroke-dasharray:none;stroke-opacity:1"
     d="m 245.14963,30.055833 c -0.421,-0.516 -2.141,0.036 -3.948,-0.751 -0.369,-0.161 -0.745,-0.109 -1.115,-0.131 -1.51,-0.066 -2.912,0.704 0.094,3.074 0.417,0.333 2.453,0.833 3.032,1.364 1.369,1.272 4.677,1.005 4.76,0.49 0.182,-1.104 -2.823,-4.046 -2.823,-4.046 z"
     id="path171" />
  <path
     style="fill:#231f20;fill-opacity:1;fill-rule:nonzero;stroke:none"
     d="m 241.82663,37.825832 c -0.666,0 -1.349,-1.671999 -3.109,-2.547999 -0.365,-0.181 -0.568,-0.494 -0.819,-0.77 -1.02,-1.115 -1.328,-2.682 2.418,-1.9 0.516,0.109 2.213,1.348 2.989,1.448 1.849,0.228 3.776,2.936999 3.432,3.327999 -0.724,0.848 -4.911,0.442 -4.911,0.442"
     id="path172" />
  <path
     style="fill:none;stroke:#231f20;stroke-width:0.644548;stroke-linecap:round;stroke-linejoin:round;stroke-miterlimit:4;stroke-dasharray:none;stroke-opacity:1"
     d="m 241.82663,37.825832 c -0.666,0 -1.349,-1.671999 -3.109,-2.547999 -0.365,-0.181 -0.568,-0.494 -0.819,-0.77 -1.02,-1.115 -1.328,-2.682 2.418,-1.9 0.516,0.109 2.213,1.348 2.989,1.448 1.849,0.228 3.776,2.936999 3.432,3.327999 -0.724,0.848 -4.911,0.442 -4.911,0.442 z"
     id="path173" />
  <path
     style="fill:none;stroke:#231f20;stroke-width:0.399514;stroke-linecap:butt;stroke-linejoin:miter;stroke-miterlimit:4;stroke-dasharray:none;stroke-opacity:1"
     d="m 58.551528,29.783833 c -24.5682,-9.906 -20.2349,-22.458 -11.839,-22.979"
     id="path174" />
  <path
     style="fill:#231f20;fill-opacity:1;fill-rule:nonzero;stroke:none"
     d="m 47.920928,6.725833 c -0.5574,0.246 -1.235,0.652 -1.6454,1.058 l 0.2812,-0.974 -0.4016,-0.922 c 0.459,0.349 1.183,0.666 1.7658,0.838"
     id="path175" />
  <path
     style="fill:none;stroke:#231f20;stroke-width:0.399514;stroke-linecap:butt;stroke-linejoin:miter;stroke-miterlimit:4;stroke-dasharray:none;stroke-opacity:1"
     d="m 137.20163,18.575833 c 25.558,-6.974 20.927,6.401 11.828,5.208"
     id="path176" />
  <path
     style="fill:#231f20;fill-opacity:1;fill-rule:nonzero;stroke:none"
     d="m 147.83263,23.621833 c 0.588,-0.134 1.333,-0.396 1.817,-0.718 l -0.464,0.901 0.214,0.984 c -0.38,-0.432 -1.031,-0.88 -1.567,-1.167"
     id="path177" />
  <path
     style="fill:#231f20;fill-opacity:1;fill-rule:nonzero;stroke:none"
     d="m 206.45263,7.517833 c 0.161,-2.817 -1.391,-5.208 -3.464,-5.322 -2.074,-0.115 -3.886,2.073 -4.047,4.89 -0.161,2.823 1.38,5.203 3.457,5.323 2.079,0.12 3.886,-2.073 4.054,-4.891"
     id="path178" />
  <path
     style="fill:none;stroke:#231f20;stroke-width:0.565977;stroke-linecap:butt;stroke-linejoin:miter;stroke-miterlimit:4;stroke-dasharray:none;stroke-opacity:1"
     d="m 206.45263,7.517833 c 0.161,-2.817 -1.391,-5.208 -3.464,-5.322 -2.074,-0.115 -3.886,2.073 -4.047,4.89 -0.161,2.823 1.38,5.203 3.457,5.323 2.079,0.12 3.886,-2.073 4.054,-4.891 z"
     id="path179" />
  <path
     style="fill:#63c99d;fill-opacity:1;fill-rule:nonzero;stroke:none"
     d="m 208.87863,20.372833 c -2.401,1.14 -5.625,-0.62 -7.204,-3.937 -1.577,-3.319 -0.916,-6.934 1.486,-8.079 2.401,-1.14 5.625,0.625 7.202,3.943 1.579,3.322 0.918,6.932 -1.484,8.073"
     id="path180" />
  <path
     style="fill:none;stroke:#231f20;stroke-width:0.565977;stroke-linecap:butt;stroke-linejoin:miter;stroke-miterlimit:4;stroke-dasharray:none;stroke-opacity:1"
     d="m 208.87863,20.372833 c -2.401,1.14 -5.625,-0.62 -7.204,-3.937 -1.577,-3.319 -0.916,-6.934 1.486,-8.079 2.401,-1.14 5.625,0.625 7.202,3.943 1.579,3.322 0.918,6.932 -1.484,8.073 z"
     id="path181" />
  <path
     style="fill:#63c99d;fill-opacity:1;fill-rule:nonzero;stroke:none"
     d="m 203.94163,19.523833 c 0.063,0.276 0.541,1.89 0.703,2.193 1.068,1.891 2.906,3.552 3.74,3.875 2.5,0.978 3.896,-5.042 3.896,-5.042 l -0.33,-1.105 c 0.486,-0.239 0.095,-0.161 0.095,-0.161 l 1.249,-0.354 c 0,0 4.506,-3.36 2.522,-5.297 -0.694,-0.672 -3.755,-1.355 -5.563,-1.328 -0.989,0.011 -2.547,0.563 -2.547,0.563 0,0 -1.828,1.13 -2.552,2.358 -0.724,1.23 -1.213,4.298 -1.213,4.298"
     id="path182" />
  <path
     style="fill:none;stroke:#231f20;stroke-width:0.565977;stroke-linecap:butt;stroke-linejoin:miter;stroke-miterlimit:4;stroke-dasharray:none;stroke-opacity:1"
     d="m 203.94163,19.523833 c 0.063,0.276 0.541,1.89 0.703,2.193 1.068,1.891 2.906,3.552 3.74,3.875 2.5,0.978 3.896,-5.042 3.896,-5.042 l -0.33,-1.105 c 0.486,-0.239 0.095,-0.161 0.095,-0.161 l 1.249,-0.354 c 0,0 4.506,-3.36 2.522,-5.297 -0.694,-0.672 -3.755,-1.355 -5.563,-1.328 -0.989,0.011 -2.547,0.563 -2.547,0.563 0,0 -1.828,1.13 -2.552,2.358 -0.724,1.23 -1.213,4.298 -1.213,4.298 z"
     id="path183" />
  <path
     style="fill:none;stroke:#231f20;stroke-width:0.467431;stroke-linecap:round;stroke-linejoin:round;stroke-miterlimit:4;stroke-dasharray:none;stroke-opacity:1"
     d="m 210.11863,21.976833 c 1.39,-0.708 1.812,-2.713 1.812,-2.713 1.25,-1.256 1.542,-2.74 1.542,-2.74"
     id="path184" />
  <path
     style="fill:#231f20;fill-opacity:1;fill-rule:nonzero;stroke:none"
     d="m 230.29463,0.47183296 c -0.104,0.72400004 -1.614,3.59800004 -1.994,4.24000004 -0.334,0.572 -0.572,1.708 -1.719,1.614 -0.468,-0.042 -1.12,-0.422 -1.349,-0.657 -0.176,-0.181 -0.104,-0.509 0.125,-0.828 0.38,-0.536 0.704,-0.541 1.505,-1.536 0,0 0.23,-0.213 0.656,-0.557 1.262,-1.031 0.808,-0.464 2.298,-2.35900004 0.104,-0.136 0.317,-0.125 0.406,-0.053 0.13,0.125 0.072,0.136 0.072,0.136"
     id="path185" />
  <path
     style="fill:none;stroke:#231f20;stroke-width:0.565977;stroke-linecap:round;stroke-linejoin:round;stroke-miterlimit:4;stroke-dasharray:none;stroke-opacity:1"
     d="m 230.29463,0.47183296 c -0.104,0.72400004 -1.614,3.59800004 -1.994,4.24000004 -0.334,0.572 -0.572,1.708 -1.719,1.614 -0.468,-0.042 -1.12,-0.422 -1.349,-0.657 -0.176,-0.181 -0.104,-0.509 0.125,-0.828 0.38,-0.536 0.704,-0.541 1.505,-1.536 0,0 0.23,-0.213 0.656,-0.557 1.262,-1.031 0.808,-0.464 2.298,-2.35900004 0.104,-0.136 0.317,-0.125 0.406,-0.053 0.13,0.125 0.072,0.136 0.072,0.136 z"
     id="path186" />
  <path
     style="fill:#231f20;fill-opacity:1;fill-rule:nonzero;stroke:none"
     d="m 226.63363,6.315833 c -0.229,0.604 -1.932,1.53 -2.943,2.786 -0.682,0.848 -3.129,2.099 -3.744,2.995 -0.562,0.812 -0.901,1.135 -1.942,0.656 -0.615,-0.292 -1.626,-1.24 -1.434,-1.719 0.448,-1.093 1.12,-1.765 2.022,-2.344 1.021,-0.661 3.958,-2.192 4.516,-2.432 1.416,-0.573 1.776,-1.218 2.134,-1.406 0.672,-0.354 0.975,-0.183 1.298,0.204 0.62,0.738 0.093,1.26 0.093,1.26"
     id="path187" />
  <path
     style="fill:none;stroke:#231f20;stroke-width:0.565977;stroke-linecap:butt;stroke-linejoin:miter;stroke-miterlimit:4;stroke-dasharray:none;stroke-opacity:1"
     d="m 226.63363,6.315833 c -0.229,0.604 -1.932,1.53 -2.943,2.786 -0.682,0.848 -3.129,2.099 -3.744,2.995 -0.562,0.812 -0.901,1.135 -1.942,0.656 -0.615,-0.292 -1.626,-1.24 -1.434,-1.719 0.448,-1.093 1.12,-1.765 2.022,-2.344 1.021,-0.661 3.958,-2.192 4.516,-2.432 1.416,-0.573 1.776,-1.218 2.134,-1.406 0.672,-0.354 0.975,-0.183 1.298,0.204 0.62,0.738 0.093,1.26 0.093,1.26 z"
     id="path188" />
  <path
     style="fill:#231f20;fill-opacity:1;fill-rule:nonzero;stroke:none"
     d="m 218.64463,12.705833 c -0.23,1.271 -2.136,0.558 -2.662,0.443 -0.536,-0.115 -2.084,-0.261 -3.302,-0.219 -1.228,0.042 -2.771,-0.432 -5.099,-0.36 -1.224,0.042 -2.432,-0.692 -2.411,-2.473 0.015,-1.756 1.01,-2.401 2.5,-2.224 1.484,0.172 2.807,0.973 4.291,1.249 1.485,0.282 3.027,0.432 4.235,0.495 1.385,0.063 2.041,0.615 2.208,1.063 0.412,1.12 0.24,2.026 0.24,2.026"
     id="path189" />
  <path
     style="fill:none;stroke:#231f20;stroke-width:0.565977;stroke-linecap:butt;stroke-linejoin:miter;stroke-miterlimit:4;stroke-dasharray:none;stroke-opacity:1"
     d="m 218.64463,12.705833 c -0.23,1.271 -2.136,0.558 -2.662,0.443 -0.536,-0.115 -2.084,-0.261 -3.302,-0.219 -1.228,0.042 -2.771,-0.432 -5.099,-0.36 -1.224,0.042 -2.432,-0.692 -2.411,-2.473 0.015,-1.756 1.01,-2.401 2.5,-2.224 1.484,0.172 2.807,0.973 4.291,1.249 1.485,0.282 3.027,0.432 4.235,0.495 1.385,0.063 2.041,0.615 2.208,1.063 0.412,1.12 0.24,2.026 0.24,2.026 z"
     id="path190" />
  <path
     style="fill:#63c99d;fill-opacity:1;fill-rule:nonzero;stroke:none"
     d="m 115.58163,20.247833 c 2.136,2.297 2.344,3.021 2.656,3.89 1.959,5.438 4.59,4.37 6.314,2.058 2.025,-2.719 2.806,-3.656 -1.896,-7.834 -1.318,-1.161 -5.756,-6.281 -5.756,-6.281 -1.343,-2.047 -3.739,-3.323 -5.182,-3.104 -1.516,0.24 -0.901,0.255 -2.261,0.729 -1.301,0.454 -2.719,2.115 -2.52,3.334 0.192,1.172 1.739,1.781 3.864,2.958 1.672,0.927 4.781,4.25 4.781,4.25"
     id="path191" />
  <path
     style="fill:none;stroke:#231f20;stroke-width:0.565977;stroke-linecap:butt;stroke-linejoin:miter;stroke-miterlimit:4;stroke-dasharray:none;stroke-opacity:1"
     d="m 115.58163,20.247833 c 2.136,2.297 2.344,3.021 2.656,3.89 1.959,5.438 4.59,4.37 6.314,2.058 2.025,-2.719 2.806,-3.656 -1.896,-7.834 -1.318,-1.161 -5.756,-6.281 -5.756,-6.281 -1.343,-2.047 -3.739,-3.323 -5.182,-3.104 -1.516,0.24 -0.901,0.255 -2.261,0.729 -1.301,0.454 -2.719,2.115 -2.52,3.334 0.192,1.172 1.739,1.781 3.864,2.958 1.672,0.927 4.781,4.25 4.781,4.25 z"
     id="path192" />
  <path
     style="fill:#ffffff;fill-opacity:1;fill-rule:nonzero;stroke:none"
     d="m 108.11963,3.664833 c -0.095,-0.224 0.806,-0.939 0.52,-1.371 -0.298,-0.437 -1.042,-0.172 -2.75,-1.192 l -0.016,-0.01 c -1.224,-0.78200004 -2.609,-0.97500004 -3.698,-0.36000004 -1.812,1.02100004 -2.156,3.83800004 -0.78,6.29700004 1.39,2.469 3.978,3.636 5.785,2.625 1.735,-0.974 2.131,-3.604 0.939,-5.989"
     id="path193" />
  <path
     style="fill:none;stroke:#231f20;stroke-width:0.565977;stroke-linecap:butt;stroke-linejoin:miter;stroke-miterlimit:4;stroke-dasharray:none;stroke-opacity:1"
     d="m 108.11963,3.664833 c -0.095,-0.224 0.806,-0.939 0.52,-1.371 -0.298,-0.437 -1.042,-0.172 -2.75,-1.192 l -0.016,-0.01 c -1.224,-0.78200004 -2.609,-0.97500004 -3.698,-0.36000004 -1.812,1.02100004 -2.156,3.83800004 -0.78,6.29700004 1.39,2.469 3.978,3.636 5.785,2.625 1.735,-0.974 2.131,-3.604 0.939,-5.989 z"
     id="path194" />
  <path
     style="fill:#231f20;fill-opacity:1;fill-rule:nonzero;stroke:none"
     d="m 158.12863,31.659833 c -1,0.91 -1.885,0.462 -2.287,-0.495 -0.124,-0.287 -0.52,-0.401 -0.618,-0.688 -0.219,-0.677 0.624,-2.203 2.077,-1.823 0.099,0.026 0.917,-0.016 1.537,0.047 1.208,0.131 3.558,0.964 4.692,3.411 0.536,1.157 -0.245,1.261 -0.609,0.86 -1.135,-1.276 -1.484,-1.172 -1.912,-1.391 -1.421,-0.776 -2.88,0.079 -2.88,0.079"
     id="path195" />
  <path
     style="fill:none;stroke:#231f20;stroke-width:0.332927;stroke-linecap:butt;stroke-linejoin:miter;stroke-miterlimit:4;stroke-dasharray:none;stroke-opacity:1"
     d="m 158.12863,31.659833 c -1,0.91 -1.885,0.462 -2.287,-0.495 -0.124,-0.287 -0.52,-0.401 -0.618,-0.688 -0.219,-0.677 0.624,-2.203 2.077,-1.823 0.099,0.026 0.917,-0.016 1.537,0.047 1.208,0.131 3.558,0.964 4.692,3.411 0.536,1.157 -0.245,1.261 -0.609,0.86 -1.135,-1.276 -1.484,-1.172 -1.912,-1.391 -1.421,-0.776 -2.88,0.079 -2.88,0.079 z"
     id="path196" />
  <path
     style="fill:#231f20;fill-opacity:1;fill-rule:nonzero;stroke:none"
     d="m 139.51963,26.903833 c -0.667,2.166 -0.5,2.677 0.401,3.01 0.599,0.235 1.068,0.646 1.421,0.803 1.188,0.52 3.407,0.9 9.97,0.348 1.478,-0.129 3.573,-0.287 4.432,-0.287 1.354,-0.004 0.442,-2.254 -0.099,-2.265 -1.713,-0.015 -2.885,-0.172 -3.5,-0.265 -0.421,-0.063 -1.183,-0.068 -2.787,-0.526 -2.432,-0.693 -3.786,-1.474 -5.874,-1.813 -0.97,-0.161 -1.594,-0.896 -2.62,-0.563 -1.042,0.323 -1.344,1.558 -1.344,1.558"
     id="path197" />
  <path
     style="fill:none;stroke:#231f20;stroke-width:0.565977;stroke-linecap:butt;stroke-linejoin:miter;stroke-miterlimit:4;stroke-dasharray:none;stroke-opacity:1"
     d="m 139.51963,26.903833 c -0.667,2.166 -0.5,2.677 0.401,3.01 0.599,0.235 1.068,0.646 1.421,0.803 1.188,0.52 3.407,0.9 9.97,0.348 1.478,-0.129 3.573,-0.287 4.432,-0.287 1.354,-0.004 0.442,-2.254 -0.099,-2.265 -1.713,-0.015 -2.885,-0.172 -3.5,-0.265 -0.421,-0.063 -1.183,-0.068 -2.787,-0.526 -2.432,-0.693 -3.786,-1.474 -5.874,-1.813 -0.97,-0.161 -1.594,-0.896 -2.62,-0.563 -1.042,0.323 -1.344,1.558 -1.344,1.558 z"
     id="path198" />
  <path
     style="fill:#231f20;fill-opacity:1;fill-rule:nonzero;stroke:#231f20;stroke-width:0.565977;stroke-linecap:round;stroke-linejoin:round;stroke-miterlimit:4;stroke-dasharray:none;stroke-opacity:1"
     d="m 141.78063,25.825833 c -0.672,-1.25 -2.824,-1.109 -3.136,-1.245 -4.64,-1.896 -5.021,-1.912 -8.651,-3.109 -5.256,-1.724 -9.114,-2.099 -11.016,0.656 -1.286,1.88 -1.208,3.516 -0.478,4.609 0.817,1.213 3.604,2.735 6.129,1.328 l 1.713,0.089 c 1.147,0.198 1.715,0.291 2.267,0.432 0.968,0.26 2.031,0.464 3.943,0.855 3.41,0.681 7.229,0.296 7.229,0.296 0.307,0.052 0.583,-0.02 0.812,-0.161"
     id="path199" />
  <path
     style="fill:#63c99d;fill-opacity:1;fill-rule:nonzero;stroke:none"
     d="m 119.11363,21.935833 c -1.349,1.822 -1.344,3.462 -0.652,4.582 0.771,1.24 3.5,2.866 6.074,1.558 l 2.521,-7.402 c -3.636,-0.984 -6.365,-0.864 -7.943,1.262"
     id="path200" />
  <path
     style="fill:none;stroke:#231f20;stroke-width:0.565977;stroke-linecap:butt;stroke-linejoin:miter;stroke-miterlimit:4;stroke-dasharray:none;stroke-opacity:1"
     d="m 119.11363,21.935833 c -1.349,1.822 -1.344,3.462 -0.652,4.582 0.771,1.24 3.5,2.866 6.074,1.558 l 2.521,-7.402 c -3.636,-0.984 -6.365,-0.864 -7.943,1.262 z"
     id="path201" />
  <path
     style="fill:#231f20;fill-opacity:1;fill-rule:nonzero;stroke:none"
     d="m 112.59263,34.569833 c -0.417,-0.484 -0.432,-2.432 -1.052,-3.91 -0.421,-1.006 -0.36,-3.751 -0.855,-4.715 -0.453,-0.885 -0.577,-1.333 0.344,-2.02 0.547,-0.412 1.866,-0.844 2.188,-0.448 0.76,0.916 1.026,1.823 1.11,2.891 0.093,1.213 0.052,4.52 -0.006,5.13 -0.166,1.515 0.23,2.14 0.224,2.542 -0.01,0.765 -0.308,0.948 -0.797,1.052 -0.943,0.192 -1.156,-0.522 -1.156,-0.522"
     id="path202" />
  <path
     style="fill:none;stroke:#231f20;stroke-width:0.565977;stroke-linecap:butt;stroke-linejoin:miter;stroke-miterlimit:4;stroke-dasharray:none;stroke-opacity:1"
     d="m 112.59263,34.569833 c -0.417,-0.484 -0.432,-2.432 -1.052,-3.91 -0.421,-1.006 -0.36,-3.751 -0.855,-4.715 -0.453,-0.885 -0.577,-1.333 0.344,-2.02 0.547,-0.412 1.866,-0.844 2.188,-0.448 0.76,0.916 1.026,1.823 1.11,2.891 0.093,1.213 0.052,4.52 -0.006,5.13 -0.166,1.515 0.23,2.14 0.224,2.542 -0.01,0.765 -0.308,0.948 -0.797,1.052 -0.943,0.192 -1.156,-0.522 -1.156,-0.522 z"
     id="path203" />
  <path
     style="fill:#231f20;fill-opacity:1;fill-rule:nonzero;stroke:none"
     d="m 111.26963,24.793833 c -1.297,0.052 -1,-1.968 -1.005,-2.5 0,-0.552 -0.183,-2.093 -0.484,-3.276 -0.297,-1.192 -0.163,-2.801 -0.724,-5.057 -0.297,-1.187 0.167,-2.531 1.905,-2.885 1.724,-0.35 2.568,0.484 2.71,1.974 0.14,1.49 -0.36,2.948 -0.319,4.458 0.037,1.51 0.213,3.046 0.417,4.25 0.224,1.359 -0.166,2.12 -0.578,2.375 -1.006,0.641 -1.922,0.661 -1.922,0.661"
     id="path204" />
  <path
     style="fill:none;stroke:#231f20;stroke-width:0.565977;stroke-linecap:butt;stroke-linejoin:miter;stroke-miterlimit:4;stroke-dasharray:none;stroke-opacity:1"
     d="m 111.26963,24.793833 c -1.297,0.052 -1,-1.968 -1.005,-2.5 0,-0.552 -0.183,-2.093 -0.484,-3.276 -0.297,-1.192 -0.163,-2.801 -0.724,-5.057 -0.297,-1.187 0.167,-2.531 1.905,-2.885 1.724,-0.35 2.568,0.484 2.71,1.974 0.14,1.49 -0.36,2.948 -0.319,4.458 0.037,1.51 0.213,3.046 0.417,4.25 0.224,1.359 -0.166,2.12 -0.578,2.375 -1.006,0.641 -1.922,0.661 -1.922,0.661 z"
     id="path205" />
  <path
     style="fill:#ffffff;fill-opacity:1;fill-rule:nonzero;stroke:none"
     d="m 0.3329277,36.392833 c 0,0.687999 0.5573,1.239999 1.2386,1.239999 H 341.02363 c 0.683,0 1.24,-0.552 1.24,-1.239999 0,-0.687 -0.557,-1.239 -1.24,-1.239 H 1.5715277 c -0.6813,0 -1.2386,0.552 -1.2386,1.239"
     id="path206" />
  <path
     style="fill:none;stroke:#231f20;stroke-width:0.665856;stroke-linecap:butt;stroke-linejoin:miter;stroke-miterlimit:4;stroke-dasharray:none;stroke-opacity:1"
     d="m 0.3329277,36.392833 c 0,0.687999 0.5573,1.239999 1.2386,1.239999 H 341.02363 c 0.683,0 1.24,-0.552 1.24,-1.239999 0,-0.687 -0.557,-1.239 -1.24,-1.239 H 1.5715277 c -0.6813,0 -1.2386,0.552 -1.2386,1.239 z"
     id="path207" />
  <path
     style="fill:#231f20;fill-opacity:1;fill-rule:nonzero;stroke:none"
     d="m 16.030328,18.091833 c 0.7598,-1.115 1.7292,-0.886 2.3385,-0.047 0.1828,0.244 0.6041,0.271 0.7651,0.525 0.3656,0.599 -0.0984,2.282 -1.5984,2.251 -0.1094,0 -0.8959,0.229 -1.5104,0.312 -1.2032,0.151 -3.6828,-0.115 -5.3536,-2.235 -0.7923003,-1 -0.0532,-1.281 0.3947,-0.978 1.3958,0.984 1.7146,0.797 2.1772,0.916 1.5681,0.422 2.7869,-0.744 2.7869,-0.744"
     id="path208" />
  <path
     style="fill:none;stroke:#231f20;stroke-width:0.332927;stroke-linecap:butt;stroke-linejoin:miter;stroke-miterlimit:4;stroke-dasharray:none;stroke-opacity:1"
     d="m 16.030328,18.091833 c 0.7598,-1.115 1.7292,-0.886 2.3385,-0.047 0.1828,0.244 0.6041,0.271 0.7651,0.525 0.3656,0.599 -0.0984,2.282 -1.5984,2.251 -0.1094,0 -0.8959,0.229 -1.5104,0.312 -1.2032,0.151 -3.6828,-0.115 -5.3536,-2.235 -0.7923003,-1 -0.0532,-1.281 0.3947,-0.978 1.3958,0.984 1.7146,0.797 2.1772,0.916 1.5681,0.422 2.7869,-0.744 2.7869,-0.744 z"
     id="path209" />
  <path
     style="fill:#63c99d;fill-opacity:1;fill-rule:nonzero;stroke:none"
     d="m 60.472828,14.220833 c -3.1254,0.267 -3.8229,-0.015 -4.6973,-0.301 -5.4948,-1.803 -6.2761,0.926 -5.5109,3.708 0.8963,3.27 1.1511,4.464 7.339,3.328 1.7239,-0.318 8.4891,-0.667 8.4891,-0.667 2.4375,0.204 4.9269,-0.9 5.6359,-2.172 0.749,-1.343 0.354,-0.864 0.817,-2.224 0.454,-1.307 0.011,-3.448 -1.073,-4.041 -1.041,-0.574 -2.4784,0.27 -4.708,1.224 -1.7599,0.745 -6.2918,1.145 -6.2918,1.145"
     id="path210" />
  <path
     style="fill:none;stroke:#231f20;stroke-width:0.565977;stroke-linecap:butt;stroke-linejoin:miter;stroke-miterlimit:4;stroke-dasharray:none;stroke-opacity:1"
     d="m 60.472828,14.220833 c -3.1254,0.267 -3.8229,-0.015 -4.6973,-0.301 -5.4948,-1.803 -6.2761,0.926 -5.5109,3.708 0.8963,3.27 1.1511,4.464 7.339,3.328 1.7239,-0.318 8.4891,-0.667 8.4891,-0.667 2.4375,0.204 4.9269,-0.9 5.6359,-2.172 0.749,-1.343 0.354,-0.864 0.817,-2.224 0.454,-1.307 0.011,-3.448 -1.073,-4.041 -1.041,-0.574 -2.4784,0.27 -4.708,1.224 -1.7599,0.745 -6.2918,1.145 -6.2918,1.145 z"
     id="path211" />
  <path
     style="fill:#ffffff;fill-opacity:1;fill-rule:nonzero;stroke:none"
     d="m 80.160628,15.377833 c 0.218,-0.114 1,0.739 1.411,0.416 0.412,-0.328 0.094,-1.057 0.98,-2.828 l 0.01,-0.025 c 0.687,-1.276 0.776,-2.667 0.083,-3.709 -1.156,-1.73 -3.99,-1.864 -6.338,-0.307 -2.359,1.568 -3.329,4.24 -2.183,5.968 1.1,1.657 3.75,1.849 6.037,0.485"
     id="path212" />
  <path
     style="fill:none;stroke:#231f20;stroke-width:0.565977;stroke-linecap:butt;stroke-linejoin:miter;stroke-miterlimit:4;stroke-dasharray:none;stroke-opacity:1"
     d="m 80.160628,15.377833 c 0.218,-0.114 1,0.739 1.411,0.416 0.412,-0.328 0.094,-1.057 0.98,-2.828 l 0.01,-0.025 c 0.687,-1.276 0.776,-2.667 0.083,-3.709 -1.156,-1.73 -3.99,-1.864 -6.338,-0.307 -2.359,1.568 -3.329,4.24 -2.183,5.968 1.1,1.657 3.75,1.849 6.037,0.485 z"
     id="path213" />
  <path
     style="fill:#231f20;fill-opacity:1;fill-rule:nonzero;stroke:none"
     d="m 35.232828,18.413833 c 0.1464,-2.26 -0.1291,-2.724 -1.0828,-2.844 -0.6359,-0.082 -1.188,-0.374 -1.5734,-0.448 -1.2704,-0.234 -3.5198,-0.088 -9.7703,1.97 -1.4162,0.462 -3.411,1.104 -4.2495,1.297 -1.3187,0.323 0.0932,2.307 0.6147,2.181 1.676,-0.374 2.8478,-0.494 3.4733,-0.546 0.4267,-0.031 1.1667,-0.203 2.8333,-0.131 2.5267,0.115 4.0162,0.552 6.1308,0.401 0.9787,-0.068 1.7599,0.5 2.6812,-0.062 0.9333,-0.552 0.9427,-1.818 0.9427,-1.818"
     id="path214" />
  <path
     style="fill:none;stroke:#231f20;stroke-width:0.565977;stroke-linecap:butt;stroke-linejoin:miter;stroke-miterlimit:4;stroke-dasharray:none;stroke-opacity:1"
     d="m 35.232828,18.413833 c 0.1464,-2.26 -0.1291,-2.724 -1.0828,-2.844 -0.6359,-0.082 -1.188,-0.374 -1.5734,-0.448 -1.2704,-0.234 -3.5198,-0.088 -9.7703,1.97 -1.4162,0.462 -3.411,1.104 -4.2495,1.297 -1.3187,0.323 0.0932,2.307 0.6147,2.181 1.676,-0.374 2.8478,-0.494 3.4733,-0.546 0.4267,-0.031 1.1667,-0.203 2.8333,-0.131 2.5267,0.115 4.0162,0.552 6.1308,0.401 0.9787,-0.068 1.7599,0.5 2.6812,-0.062 0.9333,-0.552 0.9427,-1.818 0.9427,-1.818 z"
     id="path215" />
  <path
     style="fill:#231f20;fill-opacity:1;fill-rule:nonzero;stroke:#231f20;stroke-width:0.565977;stroke-linecap:round;stroke-linejoin:round;stroke-miterlimit:4;stroke-dasharray:none;stroke-opacity:1"
     d="m 33.284928,19.981833 c 0.9437,1.063 3.0052,0.432 3.3385,0.484 4.9532,0.776 5.3282,0.699 9.136,1.022 5.5161,0.468 9.3599,-0.063 10.5681,-3.188 0.812,-2.12 0.3641,-3.698 -0.5989,-4.588 -1.0787,-0.99 -4.1411,-1.824 -6.2719,0.12 l -1.6921,0.312 c -1.1557,0.077 -1.7292,0.114 -2.3027,0.104 -1,-0.027 -2.0828,0.016 -4.0358,0.084 -3.4745,0.124 -7.1043,1.385 -7.1043,1.385 -0.3077,0.02 -0.5572,0.151 -0.7504,0.339"
     id="path216" />
  <path
     style="fill:#63c99d;fill-opacity:1;fill-rule:nonzero;stroke:none"
     d="m 55.811428,13.913833 c -1.0307,-1.03 -4.0681,-1.978 -6.2708,-0.114 l -0.7344,7.781 c 0.6199,0.021 1.1932,0.005 1.7453,-0.027 0.1344,0.032 0.2599,0.063 0.3694,0.111 0.7916,0.348 1.3692,0 2.4118,-0.595 1.359,-0.462 2.359,-1.27 2.9053,-2.546 0.8906,-2.088 0.511,-3.683 -0.4266,-4.61"
     id="path217" />
  <path
     style="fill:none;stroke:#231f20;stroke-width:0.565977;stroke-linecap:butt;stroke-linejoin:miter;stroke-miterlimit:4;stroke-dasharray:none;stroke-opacity:1"
     d="m 55.811428,13.913833 c -1.0307,-1.03 -4.0681,-1.978 -6.2708,-0.114 l -0.7344,7.781 c 0.6199,0.021 1.1932,0.005 1.7453,-0.027 0.1344,0.032 0.2599,0.063 0.3694,0.111 0.7916,0.348 1.3692,0 2.4118,-0.595 1.359,-0.462 2.359,-1.27 2.9053,-2.546 0.8906,-2.088 0.511,-3.683 -0.4266,-4.61 z"
     id="path218" />
  <path
     style="fill:#231f20;fill-opacity:1;fill-rule:nonzero;stroke:none"
     d="m 63.614028,34.340833 c -0.2093,-0.604 0.5052,-2.416 0.4787,-4.025 -0.0161,-1.09 1.0624,-3.604 0.964,-4.688 -0.0896,-0.99 -0.0375,-1.454 1.0771,-1.744 0.6562,-0.178 2.0417,-0.09 2.1937,0.394 0.3641,1.136 0.2704,2.079 -0.0468,3.095 -0.3651,1.167 -1.636,4.224 -1.9224,4.76 -0.7136,1.344 -0.5828,2.073 -0.7401,2.448 -0.2907,0.703 -0.635,0.76 -1.1298,0.672 -0.9426,-0.167 -0.8744,-0.912 -0.8744,-0.912"
     id="path219" />
  <path
     style="fill:none;stroke:#231f20;stroke-width:0.565977;stroke-linecap:butt;stroke-linejoin:miter;stroke-miterlimit:4;stroke-dasharray:none;stroke-opacity:1"
     d="m 63.614028,34.340833 c -0.2093,-0.604 0.5052,-2.416 0.4787,-4.025 -0.0161,-1.09 1.0624,-3.604 0.964,-4.688 -0.0896,-0.99 -0.0375,-1.454 1.0771,-1.744 0.6562,-0.178 2.0417,-0.09 2.1937,0.394 0.3641,1.136 0.2704,2.079 -0.0468,3.095 -0.3651,1.167 -1.636,4.224 -1.9224,4.76 -0.7136,1.344 -0.5828,2.073 -0.7401,2.448 -0.2907,0.703 -0.635,0.76 -1.1298,0.672 -0.9426,-0.167 -0.8744,-0.912 -0.8744,-0.912 z"
     id="path220" />
  <path
     style="fill:#231f20;fill-opacity:1;fill-rule:nonzero;stroke:none"
     d="m 65.723428,25.533833 c -1.2187,-0.437 -0.1932,-2.202 0.0052,-2.698 0.2026,-0.51 0.6041,-2.01 0.7708,-3.219 0.1666,-1.219 0.8906,-2.661 1.213,-4.963 0.1615,-1.213 1.0938,-2.286 2.8392,-1.969 1.729,0.317 2.203,1.407 1.781,2.844 -0.423,1.432 -1.433,2.599 -1.959,4.016 -0.531,1.416 -0.9366,2.911 -1.1981,4.099 -0.3016,1.349 -0.9469,1.906 -1.4161,1.989 -1.1771,0.219 -2.036,-0.099 -2.036,-0.099"
     id="path221" />
  <path
     style="fill:none;stroke:#231f20;stroke-width:0.565977;stroke-linecap:butt;stroke-linejoin:miter;stroke-miterlimit:4;stroke-dasharray:none;stroke-opacity:1"
     d="m 65.723428,25.533833 c -1.2187,-0.437 -0.1932,-2.202 0.0052,-2.698 0.2026,-0.51 0.6041,-2.01 0.7708,-3.219 0.1666,-1.219 0.8906,-2.661 1.213,-4.963 0.1615,-1.213 1.0938,-2.286 2.8392,-1.969 1.729,0.317 2.203,1.407 1.781,2.844 -0.423,1.432 -1.433,2.599 -1.959,4.016 -0.531,1.416 -0.9366,2.911 -1.1981,4.099 -0.3016,1.349 -0.9469,1.906 -1.4161,1.989 -1.1771,0.219 -2.036,-0.099 -2.036,-0.099 z"
     id="path222" />
  <path
     style="fill:#231f20;fill-opacity:1;fill-rule:nonzero;stroke:none"
     d="m 273.96663,32.580833 c 0.432,-1.281 1.423,-1.323 2.24,-0.683 0.246,0.194 0.651,0.1 0.88,0.303 0.516,0.479 0.522,2.224 -0.932,2.599 -0.104,0.032 -0.797,0.464 -1.365,0.708 -1.119,0.48 -3.577,0.896 -5.76,-0.687 -1.036,-0.756 -0.401,-1.224 0.109,-1.052 1.615,0.563 1.866,0.296 2.35,0.287 1.625,-0.016 2.478,-1.475 2.478,-1.475"
     id="path223" />
  <path
     style="fill:none;stroke:#231f20;stroke-width:0.332927;stroke-linecap:butt;stroke-linejoin:miter;stroke-miterlimit:4;stroke-dasharray:none;stroke-opacity:1"
     d="m 273.96663,32.580833 c 0.432,-1.281 1.423,-1.323 2.24,-0.683 0.246,0.194 0.651,0.1 0.88,0.303 0.516,0.479 0.522,2.224 -0.932,2.599 -0.104,0.032 -0.797,0.464 -1.365,0.708 -1.119,0.48 -3.577,0.896 -5.76,-0.687 -1.036,-0.756 -0.401,-1.224 0.109,-1.052 1.615,0.563 1.866,0.296 2.35,0.287 1.625,-0.016 2.478,-1.475 2.478,-1.475 z"
     id="path224" />
  <path
     style="fill:#63c99d;fill-opacity:1;fill-rule:nonzero;stroke:none"
     d="m 315.68563,16.783833 c -2.932,1.104 -3.682,1.026 -4.604,0.985 -5.776,-0.24 -5.787,2.599 -4.296,5.063 1.749,2.905 2.322,3.984 7.968,1.213 1.573,-0.776 7.989,-2.948 7.989,-2.948 2.401,-0.469 4.5,-2.209 4.833,-3.625 0.36,-1.495 0.11,-0.927 0.188,-2.364 0.074,-1.382 -0.932,-3.319 -2.136,-3.595 -1.156,-0.271 -2.312,0.932 -4.197,2.453 -1.495,1.199 -5.745,2.818 -5.745,2.818"
     id="path225" />
  <path
     style="fill:none;stroke:#231f20;stroke-width:0.565977;stroke-linecap:butt;stroke-linejoin:miter;stroke-miterlimit:4;stroke-dasharray:none;stroke-opacity:1"
     d="m 315.68563,16.783833 c -2.932,1.104 -3.682,1.026 -4.604,0.985 -5.776,-0.24 -5.787,2.599 -4.296,5.063 1.749,2.905 2.322,3.984 7.968,1.213 1.573,-0.776 7.989,-2.948 7.989,-2.948 2.401,-0.469 4.5,-2.209 4.833,-3.625 0.36,-1.495 0.11,-0.927 0.188,-2.364 0.074,-1.382 -0.932,-3.319 -2.136,-3.595 -1.156,-0.271 -2.312,0.932 -4.197,2.453 -1.495,1.199 -5.745,2.818 -5.745,2.818 z"
     id="path226" />
  <path
     style="fill:#ffffff;fill-opacity:1;fill-rule:nonzero;stroke:none"
     d="m 335.53463,13.413833 c 0.167,-0.182 1.177,0.391 1.464,-0.046 0.291,-0.438 -0.235,-1.027 0.063,-2.99 v -0.026 c 0.26,-1.427 -0.09,-2.776 -1.068,-3.552 -1.631,-1.292 -4.371,-0.542 -6.126,1.666 -1.754,2.219 -1.854,5.058 -0.229,6.35 1.557,1.234 4.141,0.598 5.896,-1.402"
     id="path227" />
  <path
     style="fill:none;stroke:#231f20;stroke-width:0.565977;stroke-linecap:butt;stroke-linejoin:miter;stroke-miterlimit:4;stroke-dasharray:none;stroke-opacity:1"
     d="m 335.53463,13.413833 c 0.167,-0.182 1.177,0.391 1.464,-0.046 0.291,-0.438 -0.235,-1.027 0.063,-2.99 v -0.026 c 0.26,-1.427 -0.09,-2.776 -1.068,-3.552 -1.631,-1.292 -4.371,-0.542 -6.126,1.666 -1.754,2.219 -1.854,5.058 -0.229,6.35 1.557,1.234 4.141,0.598 5.896,-1.402 z"
     id="path228" />
  <path
     style="fill:#231f20;fill-opacity:1;fill-rule:nonzero;stroke:none"
     d="m 292.54063,27.673833 c -0.479,-2.218 -0.87,-2.582 -1.818,-2.442 -0.636,0.094 -1.25,-0.036 -1.636,0 -1.292,0.12 -3.416,0.865 -8.869,4.546 -1.24,0.834 -2.985,1.991 -3.74,2.407 -1.183,0.661 0.719,2.188 1.188,1.932 1.509,-0.817 2.609,-1.249 3.192,-1.473 0.401,-0.151 1.068,-0.516 2.693,-0.891 2.458,-0.584 4.015,-0.563 6.006,-1.281 0.926,-0.334 1.833,0.005 2.566,-0.792 0.751,-0.787 0.418,-2.006 0.418,-2.006"
     id="path229" />
  <path
     style="fill:none;stroke:#231f20;stroke-width:0.565977;stroke-linecap:butt;stroke-linejoin:miter;stroke-miterlimit:4;stroke-dasharray:none;stroke-opacity:1"
     d="m 292.54063,27.673833 c -0.479,-2.218 -0.87,-2.582 -1.818,-2.442 -0.636,0.094 -1.25,-0.036 -1.636,0 -1.292,0.12 -3.416,0.865 -8.869,4.546 -1.24,0.834 -2.985,1.991 -3.74,2.407 -1.183,0.661 0.719,2.188 1.188,1.932 1.509,-0.817 2.609,-1.249 3.192,-1.473 0.401,-0.151 1.068,-0.516 2.693,-0.891 2.458,-0.584 4.015,-0.563 6.006,-1.281 0.926,-0.334 1.833,0.005 2.566,-0.792 0.751,-0.787 0.418,-2.006 0.418,-2.006 z"
     id="path230" />
  <path
     style="fill:#231f20;fill-opacity:1;fill-rule:nonzero;stroke:#231f20;stroke-width:0.565977;stroke-linecap:round;stroke-linejoin:round;stroke-miterlimit:4;stroke-dasharray:none;stroke-opacity:1"
     d="m 291.08663,29.711833 c 1.194,0.765 3.011,-0.396 3.344,-0.438 4.979,-0.605 5.323,-0.776 9.073,-1.5 5.432,-1.052 8.984,-2.605 9.302,-5.938 0.208,-2.26 -0.651,-3.662 -1.828,-4.255 -1.303,-0.661 -4.479,-0.631 -6,1.823 l -1.542,0.761 c -1.094,0.38 -1.635,0.572 -2.187,0.719 -0.974,0.249 -2,0.582 -3.859,1.176 -3.308,1.068 -6.464,3.266 -6.464,3.266 -0.292,0.104 -0.495,0.296 -0.631,0.531"
     id="path231" />
  <path
     style="fill:#63c99d;fill-opacity:1;fill-rule:nonzero;stroke:none"
     d="m 311.11863,17.747833 c -1.277,-0.708 -4.453,-0.798 -6.068,1.598 l 1.405,7.688 c 0.606,-0.15 1.152,-0.317 1.678,-0.5 0.136,-0.005 0.265,-0.01 0.38,0.006 0.86,0.12 1.324,-0.371 2.161,-1.224 1.183,-0.818 1.923,-1.866 2.105,-3.246 0.291,-2.249 -0.51,-3.677 -1.661,-4.322"
     id="path232" />
  <path
     style="fill:none;stroke:#231f20;stroke-width:0.565977;stroke-linecap:butt;stroke-linejoin:miter;stroke-miterlimit:4;stroke-dasharray:none;stroke-opacity:1"
     d="m 311.11863,17.747833 c -1.277,-0.708 -4.453,-0.798 -6.068,1.598 l 1.405,7.688 c 0.606,-0.15 1.152,-0.317 1.678,-0.5 0.136,-0.005 0.265,-0.01 0.38,0.006 0.86,0.12 1.324,-0.371 2.161,-1.224 1.183,-0.818 1.923,-1.866 2.105,-3.246 0.291,-2.249 -0.51,-3.677 -1.661,-4.322 z"
     id="path233" />
  <path
     style="fill:#231f20;fill-opacity:1;fill-rule:nonzero;stroke:none"
     d="m 318.47763,34.340833 c -0.214,-0.604 0.5,-2.416 0.478,-4.025 -0.014,-1.09 1.063,-3.604 0.964,-4.688 -0.088,-0.99 -0.036,-1.454 1.074,-1.744 0.661,-0.178 2.041,-0.09 2.197,0.394 0.36,1.136 0.271,2.079 -0.047,3.095 -0.369,1.167 -1.64,4.224 -1.921,4.76 -0.719,1.344 -0.589,2.073 -0.74,2.448 -0.297,0.703 -0.636,0.76 -1.131,0.672 -0.948,-0.167 -0.874,-0.912 -0.874,-0.912"
     id="path234" />
  <path
     style="fill:none;stroke:#231f20;stroke-width:0.565977;stroke-linecap:butt;stroke-linejoin:miter;stroke-miterlimit:4;stroke-dasharray:none;stroke-opacity:1"
     d="m 318.47763,34.340833 c -0.214,-0.604 0.5,-2.416 0.478,-4.025 -0.014,-1.09 1.063,-3.604 0.964,-4.688 -0.088,-0.99 -0.036,-1.454 1.074,-1.744 0.661,-0.178 2.041,-0.09 2.197,0.394 0.36,1.136 0.271,2.079 -0.047,3.095 -0.369,1.167 -1.64,4.224 -1.921,4.76 -0.719,1.344 -0.589,2.073 -0.74,2.448 -0.297,0.703 -0.636,0.76 -1.131,0.672 -0.948,-0.167 -0.874,-0.912 -0.874,-0.912 z"
     id="path235" />
  <path
     style="fill:#231f20;fill-opacity:1;fill-rule:nonzero;stroke:none"
     d="m 320.58663,25.533833 c -1.219,-0.437 -0.192,-2.202 0.005,-2.698 0.203,-0.51 0.604,-2.01 0.771,-3.219 0.167,-1.219 0.891,-2.661 1.208,-4.963 0.167,-1.213 1.1,-2.286 2.844,-1.969 1.729,0.317 2.203,1.407 1.776,2.844 -0.416,1.432 -1.427,2.599 -1.953,4.016 -0.531,1.416 -0.938,2.911 -1.198,4.099 -0.302,1.349 -0.948,1.906 -1.417,1.989 -1.176,0.219 -2.036,-0.099 -2.036,-0.099"
     id="path236" />
  <path
     style="fill:none;stroke:#231f20;stroke-width:0.565977;stroke-linecap:butt;stroke-linejoin:miter;stroke-miterlimit:4;stroke-dasharray:none;stroke-opacity:1"
     d="m 320.58663,25.533833 c -1.219,-0.437 -0.192,-2.202 0.005,-2.698 0.203,-0.51 0.604,-2.01 0.771,-3.219 0.167,-1.219 0.891,-2.661 1.208,-4.963 0.167,-1.213 1.1,-2.286 2.844,-1.969 1.729,0.317 2.203,1.407 1.776,2.844 -0.416,1.432 -1.427,2.599 -1.953,4.016 -0.531,1.416 -0.938,2.911 -1.198,4.099 -0.302,1.349 -0.948,1.906 -1.417,1.989 -1.176,0.219 -2.036,-0.099 -2.036,-0.099 z"
     id="path237" />
  <path
     style="fill:#231f20;fill-opacity:1;fill-rule:nonzero;stroke:none"
     d="m 206.59763,36.601833 c 0,1.175999 -0.953,2.134999 -2.131,2.134999 -1.177,0 -2.129,-0.959 -2.129,-2.134999 0,-1.177 0.952,-2.136 2.129,-2.136 1.178,0 2.131,0.959 2.131,2.136"
     id="path238" />
  <path
     style="fill:#231f20;fill-opacity:1;fill-rule:nonzero;stroke:none"
     d="m 66.426028,36.585833 c -0.4376,1.087999 -1.6828,1.619999 -2.7709,1.182999 -1.0932,-0.443 -1.6249,-1.682999 -1.188,-2.775999 0.4376,-1.095 1.6828,-1.62 2.7761,-1.183 1.0948,0.438 1.6203,1.683 1.1828,2.776"
     id="path239" />
  <path
     style="fill:#231f20;fill-opacity:1;fill-rule:nonzero;stroke:none"
     d="m 321.28963,36.585833 c -0.438,1.087999 -1.682,1.619999 -2.776,1.182999 -1.088,-0.443 -1.624,-1.682999 -1.182,-2.775999 0.438,-1.095 1.682,-1.62 2.776,-1.183 1.088,0.438 1.62,1.683 1.182,2.776"
     id="path240" />
  <path
     style="fill:#231f20;fill-opacity:1;fill-rule:nonzero;stroke:none"
     d="m 116.04063,36.121833 c 0,1.177999 -0.953,2.135999 -2.136,2.135999 -1.176,0 -2.129,-0.958 -2.129,-2.135999 0,-1.177 0.953,-2.134 2.129,-2.134 1.183,0 2.136,0.957 2.136,2.134"
     id="path241" />
</svg>
