<?xml version="1.0" encoding="UTF-8" standalone="no"?>
<!-- Created with Inkscape (http://www.inkscape.org/) -->

<svg
   version="1.1"
   id="svg1"
   width="83.717857"
   height="60.20639"
   viewBox="0 0 83.717855 60.206389"
   sodipodi:docname="cell.svg"
   xmlns:inkscape="http://www.inkscape.org/namespaces/inkscape"
   xmlns:sodipodi="http://sodipodi.sourceforge.net/DTD/sodipodi-0.dtd"
   xmlns="http://www.w3.org/2000/svg"
   xmlns:svg="http://www.w3.org/2000/svg">
  <sodipodi:namedview
     id="namedview1"
     pagecolor="#ffffff"
     bordercolor="#000000"
     borderopacity="0.25"
     inkscape:showpageshadow="2"
     inkscape:pageopacity="0.0"
     inkscape:pagecheckerboard="0"
     inkscape:deskcolor="#d1d1d1">
    <inkscape:page
       x="0"
       y="0"
       inkscape:label="1"
       id="page1"
       width="83.717857"
       height="60.20639"
       margin="0"
       bleed="0" />
  </sodipodi:namedview>
  <defs
     id="defs1" />
  <path
     style="fill:#63c99d;fill-opacity:1;fill-rule:nonzero;stroke:none"
     d="m 42.650921,33.186391 c 2.906,-1.177 3.656,-1.109 4.578,-1.094 5.782,0.1 5.719,-2.744 4.167,-5.172 -1.819,-2.859 -2.423,-3.922 -8,-1.01 -1.552,0.818 -7.907,3.151 -7.907,3.151 -2.396,0.531 -4.442,2.317 -4.745,3.745 -0.317,1.5 -0.083,0.927 -0.124,2.37 -0.037,1.38 1.015,3.292 2.224,3.541 1.161,0.24 2.287,-1 4.135,-2.563 1.458,-1.234 5.672,-2.968 5.672,-2.968"
     id="path496" />
  <path
     style="fill:none;stroke:#231f20;stroke-width:0.565977;stroke-linecap:butt;stroke-linejoin:miter;stroke-miterlimit:4;stroke-dasharray:none;stroke-opacity:1"
     d="m 42.650921,33.186391 c 2.906,-1.177 3.656,-1.109 4.578,-1.094 5.782,0.1 5.719,-2.744 4.167,-5.172 -1.819,-2.859 -2.423,-3.922 -8,-1.01 -1.552,0.818 -7.907,3.151 -7.907,3.151 -2.396,0.531 -4.442,2.317 -4.745,3.745 -0.317,1.5 -0.083,0.927 -0.124,2.37 -0.037,1.38 1.015,3.292 2.224,3.541 1.161,0.24 2.287,-1 4.135,-2.563 1.458,-1.234 5.672,-2.968 5.672,-2.968 z"
     id="path497" />
  <path
     style="fill:#ffffff;fill-opacity:1;fill-rule:nonzero;stroke:none"
     d="m 24.499921,34.285391 c -0.245,0.011 -0.589,-1.093 -1.099,-0.975 -0.51,0.115 -0.532,0.912 -2.089,2.142 l -0.016,0.021 c -1.165,0.864 -1.832,2.088 -1.651,3.328 0.314,2.052 2.828,3.375 5.615,2.963 2.797,-0.422 4.808,-2.432 4.505,-4.484 -0.292,-1.964 -2.614,-3.266 -5.265,-2.995"
     id="path498" />
  <path
     style="fill:none;stroke:#231f20;stroke-width:0.565977;stroke-linecap:butt;stroke-linejoin:miter;stroke-miterlimit:4;stroke-dasharray:none;stroke-opacity:1"
     d="m 24.499921,34.285391 c -0.245,0.011 -0.589,-1.093 -1.099,-0.975 -0.51,0.115 -0.532,0.912 -2.089,2.142 l -0.016,0.021 c -1.165,0.864 -1.832,2.088 -1.651,3.328 0.314,2.052 2.828,3.375 5.615,2.963 2.797,-0.422 4.808,-2.432 4.505,-4.484 -0.292,-1.964 -2.614,-3.266 -5.265,-2.995 z"
     id="path499" />
  <path
     style="fill:#231f20;fill-opacity:1;fill-rule:nonzero;stroke:none"
     d="m 12.458921,27.045391 c 0.822,-1.068 1.776,-0.787 2.333,0.084 0.176,0.26 0.588,0.307 0.733,0.567 0.334,0.63 -0.224,2.277 -1.724,2.162 -0.104,-0.005 -0.9,0.176 -1.52,0.224 -1.208,0.088 -3.672,-0.324 -5.218,-2.532 -0.735,-1.041 0.014,-1.281 0.448,-0.953 1.342,1.057 1.666,0.891 2.124,1.037 1.537,0.51 2.824,-0.589 2.824,-0.589"
     id="path500" />
  <path
     style="fill:none;stroke:#231f20;stroke-width:0.332927;stroke-linecap:butt;stroke-linejoin:miter;stroke-miterlimit:4;stroke-dasharray:none;stroke-opacity:1"
     d="m 12.458921,27.045391 c 0.822,-1.068 1.776,-0.787 2.333,0.084 0.176,0.26 0.588,0.307 0.733,0.567 0.334,0.63 -0.224,2.277 -1.724,2.162 -0.104,-0.005 -0.9,0.176 -1.52,0.224 -1.208,0.088 -3.672,-0.324 -5.218,-2.532 -0.735,-1.041 0.014,-1.281 0.448,-0.953 1.342,1.057 1.666,0.891 2.124,1.037 1.537,0.51 2.824,-0.589 2.824,-0.589 z"
     id="path501" />
  <path
     style="fill:#231f20;fill-opacity:1;fill-rule:nonzero;stroke:none"
     d="m 31.614921,28.452391 c 0.27,-2.251 0.02,-2.724 -0.923,-2.896 -0.635,-0.126 -1.167,-0.448 -1.547,-0.536 -1.254,-0.308 -3.516,-0.292 -9.869,1.405 -1.437,0.391 -3.469,0.917 -4.313,1.063 -1.334,0.245 -0.042,2.308 0.49,2.213 1.692,-0.285 2.875,-0.333 3.495,-0.353 0.427,-0.011 1.177,-0.142 2.839,0.03 2.514,0.256 3.984,0.787 6.098,0.751 0.984,-0.011 1.73,0.593 2.683,0.088 0.968,-0.5 1.047,-1.765 1.047,-1.765"
     id="path502" />
  <path
     style="fill:none;stroke:#231f20;stroke-width:0.565977;stroke-linecap:butt;stroke-linejoin:miter;stroke-miterlimit:4;stroke-dasharray:none;stroke-opacity:1"
     d="m 31.614921,28.452391 c 0.27,-2.251 0.02,-2.724 -0.923,-2.896 -0.635,-0.126 -1.167,-0.448 -1.547,-0.536 -1.254,-0.308 -3.516,-0.292 -9.869,1.405 -1.437,0.391 -3.469,0.917 -4.313,1.063 -1.334,0.245 -0.042,2.308 0.49,2.213 1.692,-0.285 2.875,-0.333 3.495,-0.353 0.427,-0.011 1.177,-0.142 2.839,0.03 2.514,0.256 3.984,0.787 6.098,0.751 0.984,-0.011 1.73,0.593 2.683,0.088 0.968,-0.5 1.047,-1.765 1.047,-1.765 z"
     id="path503" />
  <path
     style="fill:#231f20;fill-opacity:1;fill-rule:nonzero;stroke:#231f20;stroke-width:0.565977;stroke-linecap:round;stroke-linejoin:round;stroke-miterlimit:4;stroke-dasharray:none;stroke-opacity:1"
     d="m 29.576921,29.905391 c 0.882,1.115 2.975,0.599 3.308,0.677 4.902,1.052 5.282,0.995 9.058,1.536 5.484,0.771 9.344,0.464 10.729,-2.588 0.937,-2.073 0.572,-3.672 -0.339,-4.62 -1.016,-1.046 -4.026,-2.057 -6.27,-0.229 l -1.699,0.219 c -1.167,0.005 -1.739,0.01 -2.312,-0.032 -0.995,-0.083 -2.073,-0.099 -4.027,-0.146 -3.473,-0.068 -7.166,0.984 -7.166,0.984 -0.312,0.006 -0.567,0.12 -0.771,0.303"
     id="path504" />
  <path
     style="fill:#63c99d;fill-opacity:1;fill-rule:nonzero;stroke:none"
     d="m 52.410921,25.118391 c -0.974,-1.089 -3.952,-2.202 -6.26,-0.464 l -1.172,7.724 c 3.75,0.334 6.417,-0.265 7.594,-2.629 1.01,-2.037 0.719,-3.652 -0.162,-4.631"
     id="path505" />
  <path
     style="fill:none;stroke:#231f20;stroke-width:0.565977;stroke-linecap:butt;stroke-linejoin:miter;stroke-miterlimit:4;stroke-dasharray:none;stroke-opacity:1"
     d="m 52.410921,25.118391 c -0.974,-1.089 -3.952,-2.202 -6.26,-0.464 l -1.172,7.724 c 3.75,0.334 6.417,-0.265 7.594,-2.629 1.01,-2.037 0.719,-3.652 -0.162,-4.631 z"
     id="path506" />
  <path
     style="fill:#231f20;fill-opacity:1;fill-rule:nonzero;stroke:none"
     d="m 34.660921,56.525391 c -0.421,-0.485 -0.437,-2.433 -1.057,-3.917 -0.421,-1 -0.36,-3.744 -0.855,-4.708 -0.453,-0.886 -0.577,-1.334 0.35,-2.027 0.541,-0.405 1.86,-0.839 2.188,-0.443 0.754,0.918 1.025,1.823 1.104,2.886 0.093,1.218 0.052,4.526 -0.006,5.136 -0.166,1.516 0.23,2.134 0.224,2.541 -0.01,0.765 -0.308,0.948 -0.797,1.052 -0.943,0.193 -1.151,-0.52 -1.151,-0.52"
     id="path507" />
  <path
     style="fill:none;stroke:#231f20;stroke-width:0.565977;stroke-linecap:butt;stroke-linejoin:miter;stroke-miterlimit:4;stroke-dasharray:none;stroke-opacity:1"
     d="m 34.660921,56.525391 c -0.421,-0.485 -0.437,-2.433 -1.057,-3.917 -0.421,-1 -0.36,-3.744 -0.855,-4.708 -0.453,-0.886 -0.577,-1.334 0.35,-2.027 0.541,-0.405 1.86,-0.839 2.188,-0.443 0.754,0.918 1.025,1.823 1.104,2.886 0.093,1.218 0.052,4.526 -0.006,5.136 -0.166,1.516 0.23,2.134 0.224,2.541 -0.01,0.765 -0.308,0.948 -0.797,1.052 -0.943,0.193 -1.151,-0.52 -1.151,-0.52 z"
     id="path508" />
  <path
     style="fill:#231f20;fill-opacity:1;fill-rule:nonzero;stroke:none"
     d="m 33.332921,46.749391 c -1.297,0.052 -1,-1.969 -1,-2.505 0,-0.548 -0.188,-2.09 -0.489,-3.271 -0.297,-1.199 -0.157,-2.803 -0.719,-5.063 -0.302,-1.182 0.162,-2.526 1.9,-2.881 1.724,-0.348 2.568,0.485 2.71,1.975 0.14,1.489 -0.355,2.948 -0.319,4.458 0.037,1.511 0.219,3.047 0.417,4.25 0.224,1.36 -0.166,2.12 -0.573,2.37 -1.011,0.646 -1.927,0.667 -1.927,0.667"
     id="path509" />
  <path
     style="fill:none;stroke:#231f20;stroke-width:0.565977;stroke-linecap:butt;stroke-linejoin:miter;stroke-miterlimit:4;stroke-dasharray:none;stroke-opacity:1"
     d="m 33.332921,46.749391 c -1.297,0.052 -1,-1.969 -1,-2.505 0,-0.548 -0.188,-2.09 -0.489,-3.271 -0.297,-1.199 -0.157,-2.803 -0.719,-5.063 -0.302,-1.182 0.162,-2.526 1.9,-2.881 1.724,-0.348 2.568,0.485 2.71,1.975 0.14,1.489 -0.355,2.948 -0.319,4.458 0.037,1.511 0.219,3.047 0.417,4.25 0.224,1.36 -0.166,2.12 -0.573,2.37 -1.011,0.646 -1.927,0.667 -1.927,0.667 z"
     id="path510" />
  <path
     style="fill:#ffffff;fill-opacity:1;fill-rule:nonzero;stroke:none"
     d="m 0.33292102,58.149391 c 0,0.687999 0.552,1.244999 1.23999998,1.244999 h 80.572 c 0.688,0 1.24,-0.557 1.24,-1.244999 0,-0.681 -0.552,-1.233 -1.24,-1.233 h -80.572 c -0.68799998,0 -1.23999998,0.552 -1.23999998,1.233"
     id="path511" />
  <path
     style="fill:none;stroke:#231f20;stroke-width:0.665856;stroke-linecap:butt;stroke-linejoin:miter;stroke-miterlimit:4;stroke-dasharray:none;stroke-opacity:1"
     d="m 0.33292102,58.149391 c 0,0.687999 0.552,1.244999 1.23999998,1.244999 h 80.572 c 0.688,0 1.24,-0.557 1.24,-1.244999 0,-0.681 -0.552,-1.233 -1.24,-1.233 h -80.572 c -0.68799998,0 -1.23999998,0.552 -1.23999998,1.233 z"
     id="path512" />
  <path
     style="fill:none;stroke:#231f20;stroke-width:0.998783;stroke-linecap:butt;stroke-linejoin:miter;stroke-miterlimit:4;stroke-dasharray:none;stroke-opacity:1"
     d="m 38.540921,3.1083911 c 0,1.448 -1.172,2.615 -2.614,2.615 -1.443,0 -2.615,-1.167 -2.615,-2.615 0,-1.443 1.172,-2.60900003 2.615,-2.60900003 1.442,0 2.614,1.16600003 2.614,2.60900003 z"
     id="path513" />
  <path
     style="fill:#231f20;fill-opacity:1;fill-rule:nonzero;stroke:none"
     d="m 38.103921,58.077391 c 0,1.175999 -0.953,2.128999 -2.131,2.128999 -1.176,0 -2.134,-0.953 -2.134,-2.128999 0,-1.177 0.958,-2.136 2.134,-2.136 1.178,0 2.131,0.959 2.131,2.136"
     id="path514" />
</svg>
