<?xml version="1.0" encoding="UTF-8" standalone="no"?>
<!-- Created with Inkscape (http://www.inkscape.org/) -->

<svg
   version="1.1"
   id="svg1"
   width="348.11084"
   height="148.92824"
   viewBox="0 0 348.11083 148.92824"
   sodipodi:docname="cell.svg"
   xmlns:inkscape="http://www.inkscape.org/namespaces/inkscape"
   xmlns:sodipodi="http://sodipodi.sourceforge.net/DTD/sodipodi-0.dtd"
   xmlns="http://www.w3.org/2000/svg"
   xmlns:svg="http://www.w3.org/2000/svg">
  <sodipodi:namedview
     id="namedview1"
     pagecolor="#ffffff"
     bordercolor="#000000"
     borderopacity="0.25"
     inkscape:showpageshadow="2"
     inkscape:pageopacity="0.0"
     inkscape:pagecheckerboard="0"
     inkscape:deskcolor="#d1d1d1">
    <inkscape:page
       x="0"
       y="0"
       inkscape:label="1"
       id="page1"
       width="348.11084"
       height="148.92824"
       margin="0"
       bleed="0" />
  </sodipodi:namedview>
  <defs
     id="defs1" />
  <path
     style="fill:#231f20;fill-opacity:1;fill-rule:nonzero;stroke:none"
     d="m 103.89493,118.64178 c -1.084,-0.807 -0.817,-1.76 0.047,-2.339 0.26,-0.172 0.297,-0.588 0.557,-0.74 0.62,-0.337 2.276,0.194 2.188,1.688 -0.01,0.11 0.187,0.907 0.244,1.527 0.104,1.203 -0.265,3.672 -2.448,5.255 -1.036,0.75 -1.286,0 -0.962,-0.432 1.036,-1.36 0.858,-1.683 1.005,-2.142 0.484,-1.552 -0.631,-2.817 -0.631,-2.817"
     id="path988" />
  <path
     style="fill:none;stroke:#231f20;stroke-width:0.332927;stroke-linecap:butt;stroke-linejoin:miter;stroke-miterlimit:4;stroke-dasharray:none;stroke-opacity:1"
     d="m 103.89493,118.64178 c -1.084,-0.807 -0.817,-1.76 0.047,-2.339 0.26,-0.172 0.297,-0.588 0.557,-0.74 0.62,-0.337 2.276,0.194 2.188,1.688 -0.01,0.11 0.187,0.907 0.244,1.527 0.104,1.203 -0.265,3.672 -2.448,5.255 -1.036,0.75 -1.286,0 -0.962,-0.432 1.036,-1.36 0.858,-1.683 1.005,-2.142 0.484,-1.552 -0.631,-2.817 -0.631,-2.817 z"
     id="path989" />
  <path
     style="fill:#63c99d;fill-opacity:1;fill-rule:nonzero;stroke:none"
     d="m 101.85893,74.084779 c 0.14,3.131 -0.172,3.817 -0.496,4.683 -2.024999,5.41 0.672,6.306 3.475,5.656 3.307,-0.755 4.505,-0.964 3.635,-7.198 -0.255,-1.734 -0.323,-8.505 -0.323,-8.505 0.303,-2.433 -0.697,-4.959 -1.937,-5.724 -1.307,-0.803 -0.85,-0.391 -2.187,-0.912 -1.292,-0.5 -3.448,-0.151 -4.083999,0.912 -0.615,1.015 0.166999,2.484 1.026999,4.749 0.676,1.792 0.89,6.339 0.89,6.339"
     id="path990" />
  <path
     style="fill:none;stroke:#231f20;stroke-width:0.565977;stroke-linecap:butt;stroke-linejoin:miter;stroke-miterlimit:4;stroke-dasharray:none;stroke-opacity:1"
     d="m 101.85893,74.084779 c 0.14,3.131 -0.172,3.817 -0.496,4.683 -2.024999,5.41 0.672,6.306 3.475,5.656 3.307,-0.755 4.505,-0.964 3.635,-7.198 -0.255,-1.734 -0.323,-8.505 -0.323,-8.505 0.303,-2.433 -0.697,-4.959 -1.937,-5.724 -1.307,-0.803 -0.85,-0.391 -2.187,-0.912 -1.292,-0.5 -3.448,-0.151 -4.083999,0.912 -0.615,1.015 0.166999,2.484 1.026999,4.749 0.676,1.792 0.89,6.339 0.89,6.339 z"
     id="path991" />
  <path
     style="fill:#ffffff;fill-opacity:1;fill-rule:nonzero;stroke:none"
     d="m 106.70193,56.126079 c 0.021,-0.244 1.157,-0.448 1.104,-0.968 -0.052,-0.5266 -0.837,-0.6413 -1.864,-2.344 l -0.016,-0.016 c -0.708,-1.2706 -1.839,-2.0826 -3.088,-2.0573 -2.079,0.0467 -3.707999,2.38 -3.650999,5.1933 0.067,2.8333 1.806999,5.0777 3.879999,5.0357 1.984,-0.046 3.568,-2.1824 3.635,-4.8437"
     id="path992" />
  <path
     style="fill:none;stroke:#231f20;stroke-width:0.565977;stroke-linecap:butt;stroke-linejoin:miter;stroke-miterlimit:4;stroke-dasharray:none;stroke-opacity:1"
     d="m 106.70193,56.126079 c 0.021,-0.244 1.157,-0.448 1.104,-0.968 -0.052,-0.5266 -0.837,-0.6413 -1.864,-2.344 l -0.016,-0.016 c -0.708,-1.2706 -1.839,-2.0826 -3.088,-2.0573 -2.079,0.0467 -3.707999,2.38 -3.650999,5.1933 0.067,2.8333 1.806999,5.0777 3.879999,5.0357 1.984,-0.046 3.568,-2.1824 3.635,-4.8437 z"
     id="path993" />
  <path
     style="fill:#231f20;fill-opacity:1;fill-rule:nonzero;stroke:none"
     d="m 105.00493,99.469779 c -2.251,-0.24 -2.724,0.022 -2.88,0.964001 -0.11,0.635 -0.428,1.172 -0.511,1.558 -0.287,1.26 -0.235,3.516 1.557,9.844 0.411,1.432 0.968,3.451 1.131,4.301 0.26,1.328 2.296,0 2.197,-0.526 -0.306,-1.687 -0.374,-2.87 -0.406,-3.494 -0.015,-0.428 -0.151,-1.172 -0.006,-2.839 0.215,-2.516 0.719,-3.99 0.652,-6.104 -0.026,-0.985 0.572,-1.74 0.047,-2.688 -0.516,-0.958001 -1.781,-1.016001 -1.781,-1.016001"
     id="path994" />
  <path
     style="fill:none;stroke:#231f20;stroke-width:0.565977;stroke-linecap:butt;stroke-linejoin:miter;stroke-miterlimit:4;stroke-dasharray:none;stroke-opacity:1"
     d="m 105.00493,99.469779 c -2.251,-0.24 -2.724,0.022 -2.88,0.964001 -0.11,0.635 -0.428,1.172 -0.511,1.558 -0.287,1.26 -0.235,3.516 1.557,9.844 0.411,1.432 0.968,3.451 1.131,4.301 0.26,1.328 2.296,0 2.197,-0.526 -0.306,-1.687 -0.374,-2.87 -0.406,-3.494 -0.015,-0.428 -0.151,-1.172 -0.006,-2.839 0.215,-2.516 0.719,-3.99 0.652,-6.104 -0.026,-0.985 0.572,-1.74 0.047,-2.688 -0.516,-0.958001 -1.781,-1.016001 -1.781,-1.016001 z"
     id="path995" />
  <path
     style="fill:#231f20;fill-opacity:1;fill-rule:nonzero;stroke:#231f20;stroke-width:0.565977;stroke-linecap:round;stroke-linejoin:round;stroke-miterlimit:4;stroke-dasharray:none;stroke-opacity:1"
     d="m 106.49393,101.48078 c 1.099,-0.896 0.557,-2.984001 0.625,-3.317001 0.974,-4.918 0.916,-5.292 1.396,-9.084 0.687,-5.484 0.323,-9.348 -2.75,-10.682 -2.088,-0.906 -3.682,-0.521 -4.615,0.406 -1.031,1.037 -1.988999,4.062 -0.135,6.276 l 0.244,1.693 c 0.027,1.167 0.043,1.739 0.011,2.307 -0.068,1.005 -0.073,2.084 -0.083,4.037 -0.021,3.473 1.088,7.151001 1.088,7.151001 0.006,0.312 0.131,0.562 0.307,0.765"
     id="path996" />
  <path
     style="fill:#63c99d;fill-opacity:1;fill-rule:nonzero;stroke:none"
     d="m 108.40593,81.496779 c -0.412,-1.376 -1.172,-2.407 -2.423,-3.005 -2.046,-0.975 -3.656,-0.656 -4.624,0.234 -1.073,0.995 -2.145999,3.984 -0.37,6.266 l 7.745,1.052 c 0.041,-0.615 0.052,-1.188 0.041,-1.74 0.036,-0.135 0.074,-0.26 0.126,-0.364 0.38,-0.787 0.057,-1.38 -0.495,-2.443"
     id="path997" />
  <path
     style="fill:none;stroke:#231f20;stroke-width:0.565977;stroke-linecap:butt;stroke-linejoin:miter;stroke-miterlimit:4;stroke-dasharray:none;stroke-opacity:1"
     d="m 108.40593,81.496779 c -0.412,-1.376 -1.172,-2.407 -2.423,-3.005 -2.046,-0.975 -3.656,-0.656 -4.624,0.234 -1.073,0.995 -2.145999,3.984 -0.37,6.266 l 7.745,1.052 c 0.041,-0.615 0.052,-1.188 0.041,-1.74 0.036,-0.135 0.074,-0.26 0.126,-0.364 0.38,-0.787 0.057,-1.38 -0.495,-2.443 z"
     id="path998" />
  <path
     style="fill:#231f20;fill-opacity:1;fill-rule:nonzero;stroke:none"
     d="m 104.49893,85.131779 c -0.416,-0.479 -0.432,-2.432 -1.052,-3.911 -0.421,-1.005 -0.36,-3.745 -0.854,-4.709 -0.454,-0.891 -0.578,-1.338 0.344,-2.026 0.546,-0.412 1.865,-0.844 2.188,-0.448 0.754,0.916 1.025,1.828 1.109,2.891 0.093,1.213 0.052,4.525 -0.011,5.136 -0.161,1.509 0.23,2.135 0.23,2.541 -0.011,0.76 -0.308,0.943 -0.798,1.047 -0.942,0.192 -1.156,-0.521 -1.156,-0.521"
     id="path999" />
  <path
     style="fill:none;stroke:#231f20;stroke-width:0.565977;stroke-linecap:butt;stroke-linejoin:miter;stroke-miterlimit:4;stroke-dasharray:none;stroke-opacity:1"
     d="m 104.49893,85.131779 c -0.416,-0.479 -0.432,-2.432 -1.052,-3.911 -0.421,-1.005 -0.36,-3.745 -0.854,-4.709 -0.454,-0.891 -0.578,-1.338 0.344,-2.026 0.546,-0.412 1.865,-0.844 2.188,-0.448 0.754,0.916 1.025,1.828 1.109,2.891 0.093,1.213 0.052,4.525 -0.011,5.136 -0.161,1.509 0.23,2.135 0.23,2.541 -0.011,0.76 -0.308,0.943 -0.798,1.047 -0.942,0.192 -1.156,-0.521 -1.156,-0.521 z"
     id="path1000" />
  <path
     style="fill:#231f20;fill-opacity:1;fill-rule:nonzero;stroke:none"
     d="m 103.17693,76.173779 c -1.298,0.047 -1,-1.969 -1.006,-2.505 0,-0.548 -0.182,-2.095 -0.484,-3.276 -0.297,-1.193 -0.161,-2.803 -0.724,-5.057 -0.297,-1.188 0.167,-2.532 1.906,-2.886 1.718,-0.349 2.562,0.484 2.709,1.979 0.14,1.484 -0.36,2.943 -0.319,4.453 0.038,1.511 0.214,3.052 0.412,4.25 0.224,1.365 -0.166,2.125 -0.573,2.376 -1.011,0.64 -1.921,0.666 -1.921,0.666"
     id="path1001" />
  <path
     style="fill:none;stroke:#231f20;stroke-width:0.565977;stroke-linecap:butt;stroke-linejoin:miter;stroke-miterlimit:4;stroke-dasharray:none;stroke-opacity:1"
     d="m 103.17693,76.173779 c -1.298,0.047 -1,-1.969 -1.006,-2.505 0,-0.548 -0.182,-2.095 -0.484,-3.276 -0.297,-1.193 -0.161,-2.803 -0.724,-5.057 -0.297,-1.188 0.167,-2.532 1.906,-2.886 1.718,-0.349 2.562,0.484 2.709,1.979 0.14,1.484 -0.36,2.943 -0.319,4.453 0.038,1.511 0.214,3.052 0.412,4.25 0.224,1.365 -0.166,2.125 -0.573,2.376 -1.011,0.64 -1.921,0.666 -1.921,0.666 z"
     id="path1002" />
  <path
     style="fill:#ffffff;fill-opacity:1;fill-rule:nonzero;stroke:none"
     d="m 0.33292797,86.111779 c 0,0.686 0.557,1.244 1.24000003,1.244 H 346.54793 c 0.68,0 1.23,-0.558 1.23,-1.244 0,-0.683 -0.55,-1.24 -1.23,-1.24 H 1.572928 c -0.68300003,0 -1.24000003,0.557 -1.24000003,1.24"
     id="path1003" />
  <path
     style="fill:none;stroke:#231f20;stroke-width:0.665856;stroke-linecap:butt;stroke-linejoin:miter;stroke-miterlimit:4;stroke-dasharray:none;stroke-opacity:1"
     d="m 0.33292797,86.111779 c 0,0.686 0.557,1.244 1.24000003,1.244 H 346.54793 c 0.68,0 1.23,-0.558 1.23,-1.244 0,-0.683 -0.55,-1.24 -1.23,-1.24 H 1.572928 c -0.68300003,0 -1.24000003,0.557 -1.24000003,1.24 z"
     id="path1004" />
  <path
     style="fill:#231f20;fill-opacity:1;fill-rule:nonzero;stroke:none"
     d="m 316.47793,69.261779 c 0.09,0.73 1.54,3.635 1.91,4.282 0.31,0.582 0.53,1.718 1.68,1.645 0.47,-0.02 1.13,-0.391 1.36,-0.62 0.19,-0.181 0.12,-0.504 -0.1,-0.833 -0.38,-0.552 -0.69,-0.558 -1.47,-1.572 0,0 -0.22,-0.21 -0.65,-0.563 -1.24,-1.057 -0.79,-0.48 -2.25,-2.412 -0.1,-0.135 -0.31,-0.129 -0.4,-0.063 -0.13,0.126 -0.08,0.136 -0.08,0.136"
     id="path1005" />
  <path
     style="fill:none;stroke:#231f20;stroke-width:0.565977;stroke-linecap:round;stroke-linejoin:round;stroke-miterlimit:4;stroke-dasharray:none;stroke-opacity:1"
     d="m 316.47793,69.261779 c 0.09,0.73 1.54,3.635 1.91,4.282 0.31,0.582 0.53,1.718 1.68,1.645 0.47,-0.02 1.13,-0.391 1.36,-0.62 0.19,-0.181 0.12,-0.504 -0.1,-0.833 -0.38,-0.552 -0.69,-0.558 -1.47,-1.572 0,0 -0.22,-0.21 -0.65,-0.563 -1.24,-1.057 -0.79,-0.48 -2.25,-2.412 -0.1,-0.135 -0.31,-0.129 -0.4,-0.063 -0.13,0.126 -0.08,0.136 -0.08,0.136 z"
     id="path1006" />
  <path
     style="fill:#231f20;fill-opacity:1;fill-rule:nonzero;stroke:none"
     d="m 331.11793,127.91778 c -2.24,-0.301 -2.72,-0.063 -2.91,0.88 -0.13,0.631 -0.46,1.161 -0.56,1.543 -0.32,1.254 -0.33,3.504 1.28,9.885 0.37,1.443 0.87,3.479 1,4.328 0.23,1.339 2.31,0.067 2.22,-0.459 -0.25,-1.693 -0.29,-2.874 -0.31,-3.5 0,-0.432 -0.12,-1.182 0.07,-2.838 0.29,-2.516 0.84,-3.97 0.84,-6.088 0,-0.98 0.62,-1.719 0.12,-2.678 -0.49,-0.974 -1.75,-1.073 -1.75,-1.073"
     id="path1007" />
  <path
     style="fill:none;stroke:#231f20;stroke-width:0.565977;stroke-linecap:butt;stroke-linejoin:miter;stroke-miterlimit:4;stroke-dasharray:none;stroke-opacity:1"
     d="m 331.11793,127.91778 c -2.24,-0.301 -2.72,-0.063 -2.91,0.88 -0.13,0.631 -0.46,1.161 -0.56,1.543 -0.32,1.254 -0.33,3.504 1.28,9.885 0.37,1.443 0.87,3.479 1,4.328 0.23,1.339 2.31,0.067 2.22,-0.459 -0.25,-1.693 -0.29,-2.874 -0.31,-3.5 0,-0.432 -0.12,-1.182 0.07,-2.838 0.29,-2.516 0.84,-3.97 0.84,-6.088 0,-0.98 0.62,-1.719 0.12,-2.678 -0.49,-0.974 -1.75,-1.073 -1.75,-1.073 z"
     id="path1008" />
  <path
     style="fill:#63c99d;fill-opacity:1;fill-rule:nonzero;stroke:none"
     d="m 328.23793,101.94978 c -0.05,3.135 -0.41,3.802 -0.79,4.64 -2.35,5.282 0.29,6.339 3.13,5.864 3.34,-0.552 4.56,-0.686 4.07,-6.968 -0.14,-1.745 0.21,-8.505001 0.21,-8.505001 0.44,-2.407 -0.4,-4.989 -1.59,-5.828 -1.26,-0.885 -0.83,-0.437 -2.13,-1.047 -1.25,-0.578 -3.43,-0.36 -4.13,0.656 -0.68,0.974 0.02,2.495 0.73,4.807 0.56,1.829 0.5,6.381001 0.5,6.381001"
     id="path1009" />
  <path
     style="fill:none;stroke:#231f20;stroke-width:0.565977;stroke-linecap:butt;stroke-linejoin:miter;stroke-miterlimit:4;stroke-dasharray:none;stroke-opacity:1"
     d="m 328.23793,101.94978 c -0.05,3.135 -0.41,3.802 -0.79,4.64 -2.35,5.282 0.29,6.339 3.13,5.864 3.34,-0.552 4.56,-0.686 4.07,-6.968 -0.14,-1.745 0.21,-8.505001 0.21,-8.505001 0.44,-2.407 -0.4,-4.989 -1.59,-5.828 -1.26,-0.885 -0.83,-0.437 -2.13,-1.047 -1.25,-0.578 -3.43,-0.36 -4.13,0.656 -0.68,0.974 0.02,2.495 0.73,4.807 0.56,1.829 0.5,6.381001 0.5,6.381001 z"
     id="path1010" />
  <path
     style="fill:#ffffff;fill-opacity:1;fill-rule:nonzero;stroke:none"
     d="m 334.01793,84.677779 c 0.06,-0.233 1.21,-0.238 1.25,-0.76 0.03,-0.525 -0.71,-0.776 -1.43,-2.63 l -0.01,-0.02 c -0.47,-1.375 -1.45,-2.371 -2.68,-2.563 -2.06,-0.317 -4.07,1.693 -4.5,4.484 -0.43,2.797 0.89,5.308 2.94,5.625 1.96,0.307 3.89,-1.526 4.43,-4.136"
     id="path1011" />
  <path
     style="fill:none;stroke:#231f20;stroke-width:0.565977;stroke-linecap:butt;stroke-linejoin:miter;stroke-miterlimit:4;stroke-dasharray:none;stroke-opacity:1"
     d="m 334.01793,84.677779 c 0.06,-0.233 1.21,-0.238 1.25,-0.76 0.03,-0.525 -0.71,-0.776 -1.43,-2.63 l -0.01,-0.02 c -0.47,-1.375 -1.45,-2.371 -2.68,-2.563 -2.06,-0.317 -4.07,1.693 -4.5,4.484 -0.43,2.797 0.89,5.308 2.94,5.625 1.96,0.307 3.89,-1.526 4.43,-4.136 z"
     id="path1012" />
  <path
     style="fill:#231f20;fill-opacity:1;fill-rule:nonzero;stroke:none"
     d="m 330.23793,130.22578 c 3.92,0.875 2.92,-3.084 3.03,-3.552 1.11,-4.887 1.07,-5.261 1.66,-9.037 0.85,-5.463 0.59,-9.339 -2.45,-10.755 -2.05,-0.969 -3.66,-0.63 -4.62,0.271 -1.06,1 -2.1,4 -0.31,6.271 l 0.2,1.697 c -0.02,1.162 -0.01,1.74 -0.07,2.308 -0.09,1.005 -0.13,2.073 -0.2,4.03 -0.12,3.475 0.89,7.183 0.89,7.183 -0.01,1.24 1.87,1.584 1.87,1.584"
     id="path1013" />
  <path
     style="fill:none;stroke:#231f20;stroke-width:0.565977;stroke-linecap:butt;stroke-linejoin:miter;stroke-miterlimit:4;stroke-dasharray:none;stroke-opacity:1"
     d="m 330.23793,130.22578 c 3.92,0.875 2.92,-3.084 3.03,-3.552 1.11,-4.887 1.07,-5.261 1.66,-9.037 0.85,-5.463 0.59,-9.339 -2.45,-10.755 -2.05,-0.969 -3.66,-0.63 -4.62,0.271 -1.06,1 -2.1,4 -0.31,6.271 l 0.2,1.697 c -0.02,1.162 -0.01,1.74 -0.07,2.308 -0.09,1.005 -0.13,2.073 -0.2,4.03 -0.12,3.475 0.89,7.183 0.89,7.183 -0.01,1.24 1.87,1.584 1.87,1.584 z"
     id="path1014" />
  <path
     style="fill:#63c99d;fill-opacity:1;fill-rule:nonzero;stroke:none"
     d="m 335.01793,109.73178 c -0.48,-1.48 -1.32,-2.554 -2.69,-3.106 -2.11,-0.848 -3.69,-0.432 -4.6,0.522 -1.01,1.057 -1.9,4.114 0.02,6.27 l 7.79,0.574 c 0.01,-0.651 -0.02,-1.26 -0.07,-1.844 0.03,-0.079 0.05,-0.156 0.07,-0.224 0.31,-0.746 0.01,-1.298 -0.52,-2.192"
     id="path1015" />
  <path
     style="fill:none;stroke:#231f20;stroke-width:0.565977;stroke-linecap:butt;stroke-linejoin:miter;stroke-miterlimit:4;stroke-dasharray:none;stroke-opacity:1"
     d="m 335.01793,109.73178 c -0.48,-1.48 -1.32,-2.554 -2.69,-3.106 -2.11,-0.848 -3.69,-0.432 -4.6,0.522 -1.01,1.057 -1.9,4.114 0.02,6.27 l 7.79,0.574 c 0.01,-0.651 -0.02,-1.26 -0.07,-1.844 0.03,-0.079 0.05,-0.156 0.07,-0.224 0.31,-0.746 0.01,-1.298 -0.52,-2.192 z"
     id="path1016" />
  <path
     style="fill:#231f20;fill-opacity:1;fill-rule:nonzero;stroke:none"
     d="m 320.70793,74.215779 c 0.57,0.292 1.3,2.098 2.42,3.249 0.76,0.776 1.71,3.355 2.52,4.073 0.75,0.656 1.03,1.026 0.42,2.006 -0.36,0.577 -1.42,1.468 -1.87,1.218 -1.04,-0.573 -1.62,-1.317 -2.08,-2.281 -0.54,-1.093 -1.72,-4.188 -1.88,-4.781 -0.41,-1.464 -1,-1.902 -1.15,-2.282 -0.27,-0.708 -0.06,-0.989 0.36,-1.265 0.8,-0.521 1.26,0.063 1.26,0.063"
     id="path1017" />
  <path
     style="fill:none;stroke:#231f20;stroke-width:0.565977;stroke-linecap:butt;stroke-linejoin:miter;stroke-miterlimit:4;stroke-dasharray:none;stroke-opacity:1"
     d="m 320.70793,74.215779 c 0.57,0.292 1.3,2.098 2.42,3.249 0.76,0.776 1.71,3.355 2.52,4.073 0.75,0.656 1.03,1.026 0.42,2.006 -0.36,0.577 -1.42,1.468 -1.87,1.218 -1.04,-0.573 -1.62,-1.317 -2.08,-2.281 -0.54,-1.093 -1.72,-4.188 -1.88,-4.781 -0.41,-1.464 -1,-1.902 -1.15,-2.282 -0.27,-0.708 -0.06,-0.989 0.36,-1.265 0.8,-0.521 1.26,0.063 1.26,0.063 z"
     id="path1018" />
  <path
     style="fill:#231f20;fill-opacity:1;fill-rule:nonzero;stroke:none"
     d="m 325.23793,82.064779 c 1.18,-0.521 1.64,1.463 1.84,1.963 0.21,0.505 0.95,1.88 1.66,2.869 0.71,0.996 1.18,2.543 2.53,4.439 0.71,0.989 0.77,2.41 -0.72,3.38 -1.47,0.958 -2.56,0.489 -3.24,-0.844 -0.68,-1.334 -0.75,-2.875 -1.34,-4.266 -0.59,-1.39 -1.32,-2.756 -1.94,-3.797 -0.72,-1.188 -0.62,-2.036 -0.34,-2.421 0.7,-0.97 1.55,-1.323 1.55,-1.323"
     id="path1019" />
  <path
     style="fill:none;stroke:#231f20;stroke-width:0.565977;stroke-linecap:butt;stroke-linejoin:miter;stroke-miterlimit:4;stroke-dasharray:none;stroke-opacity:1"
     d="m 325.23793,82.064779 c 1.18,-0.521 1.64,1.463 1.84,1.963 0.21,0.505 0.95,1.88 1.66,2.869 0.71,0.996 1.18,2.543 2.53,4.439 0.71,0.989 0.77,2.41 -0.72,3.38 -1.47,0.958 -2.56,0.489 -3.24,-0.844 -0.68,-1.334 -0.75,-2.875 -1.34,-4.266 -0.59,-1.39 -1.32,-2.756 -1.94,-3.797 -0.72,-1.188 -0.62,-2.036 -0.34,-2.421 0.7,-0.97 1.55,-1.323 1.55,-1.323 z"
     id="path1020" />
  <path
     style="fill:#231f20;fill-opacity:1;fill-rule:nonzero;stroke:none"
     d="m 330.34793,148.26678 c -1.08,-0.073 -0.81,-1.297 -0.55,-2.494 0.06,-0.308 0.1,-0.595 0.18,-0.88 0.35,-1.178 1.18,-1.819 3.1,0.473 0.08,0.084 1.9,1.292 2.47,1.541 2.73,1.21 2.96,0.402 2.73,1.21 -0.16,0.536 -0.67,0.536 -1.3,0.525 -0.85,-0.016 -3.86,-0.323 -4.32,-0.344 -0.45,-0.015 -2.31,-0.031 -2.31,-0.031"
     id="path1021" />
  <path
     style="fill:none;stroke:#231f20;stroke-width:0.565977;stroke-linecap:butt;stroke-linejoin:miter;stroke-miterlimit:4;stroke-dasharray:none;stroke-opacity:1"
     d="m 330.34793,148.26678 c -1.08,-0.073 -0.81,-1.297 -0.55,-2.494 0.06,-0.308 0.1,-0.595 0.18,-0.88 0.35,-1.178 1.18,-1.819 3.1,0.473 0.08,0.084 1.9,1.292 2.47,1.541 2.73,1.21 2.96,0.402 2.73,1.21 -0.16,0.536 -0.67,0.536 -1.3,0.525 -0.85,-0.016 -3.86,-0.323 -4.32,-0.344 -0.45,-0.015 -2.31,-0.031 -2.31,-0.031 z"
     id="path1023" />
  <path
     style="fill:#231f20;fill-opacity:1;fill-rule:nonzero;stroke:none"
     d="m 210.30593,46.120779 c 0.448,0.5787 3.182,2.3333 3.818,2.7093 0.578,0.3387 1.339,1.2027 2.296,0.5574 0.386,-0.256 0.772,-0.912 0.85,-1.2294 0.068,-0.2453 -0.151,-0.4946 -0.511,-0.6613 -0.604,-0.2813 -0.88,-0.1307 -2.072,-0.604 0,0 -0.292,-0.068 -0.839,-0.152 -1.609,-0.2867 -0.928,-0.0093 -3.161,-0.932 -0.157,-0.068 -0.344,0.0467 -0.381,0.1507 -0.052,0.1773 0,0.1613 0,0.1613"
     id="path1025" />
  <path
     style="fill:none;stroke:#231f20;stroke-width:0.565977;stroke-linecap:round;stroke-linejoin:round;stroke-miterlimit:4;stroke-dasharray:none;stroke-opacity:1"
     d="m 210.30593,46.120779 c 0.448,0.5787 3.182,2.3333 3.818,2.7093 0.578,0.3387 1.339,1.2027 2.296,0.5574 0.386,-0.256 0.772,-0.912 0.85,-1.2294 0.068,-0.2453 -0.151,-0.4946 -0.511,-0.6613 -0.604,-0.2813 -0.88,-0.1307 -2.072,-0.604 0,0 -0.292,-0.068 -0.839,-0.152 -1.609,-0.2867 -0.928,-0.0093 -3.161,-0.932 -0.157,-0.068 -0.344,0.0467 -0.381,0.1507 -0.052,0.1773 0,0.1613 0,0.1613 z"
     id="path1026" />
  <path
     style="fill:#231f20;fill-opacity:1;fill-rule:nonzero;stroke:none"
     d="m 223.49893,5.866179 c 1.151,0.7027 0.973,1.6827 0.167,2.3387 -0.24,0.1933 -0.24,0.6093 -0.49,0.7813 -0.584,0.396 -2.281,0.0214 -2.333,-1.484 0,-0.104 -0.265,-0.876 -0.38,-1.4906 -0.215,-1.192 -0.068,-3.6814 1.957,-5.45730005 0.964,-0.844 1.282,-0.12 1,0.3426 -0.905,1.44800005 -0.702,1.75600005 -0.801,2.22400005 -0.344,1.584 0.88,2.7453 0.88,2.7453"
     id="path1027" />
  <path
     style="fill:none;stroke:#231f20;stroke-width:0.332927;stroke-linecap:butt;stroke-linejoin:miter;stroke-miterlimit:4;stroke-dasharray:none;stroke-opacity:1"
     d="m 223.49893,5.866179 c 1.151,0.7027 0.973,1.6827 0.167,2.3387 -0.24,0.1933 -0.24,0.6093 -0.49,0.7813 -0.584,0.396 -2.281,0.0214 -2.333,-1.484 0,-0.104 -0.265,-0.876 -0.38,-1.4906 -0.215,-1.192 -0.068,-3.6814 1.957,-5.45730005 0.964,-0.844 1.282,-0.12 1,0.3426 -0.905,1.44800005 -0.702,1.75600005 -0.801,2.22400005 -0.344,1.584 0.88,2.7453 0.88,2.7453 z"
     id="path1028" />
  <path
     style="fill:#231f20;fill-opacity:1;fill-rule:nonzero;stroke:none"
     d="m 223.77493,24.611479 c 2.265,0.0627 2.719,-0.2293 2.803,-1.1826 0.061,-0.6307 0.337,-1.1987 0.394,-1.588 0.178,-1.2867 -0.036,-3.516 -2.312,-9.6933 -0.516,-1.4014 -1.234,-3.3747 -1.453,-4.2027 -0.353,-1.308 -2.292,0.172 -2.156,0.6813 0.432,1.6667 0.599,2.8387 0.677,3.464 0.047,0.4174 0.24,1.156 0.224,2.8227 -0.021,2.532 -0.412,4.0373 -0.182,6.1413 0.104,0.9733 -0.443,1.776 0.156,2.6813 0.589,0.912 1.849,0.876 1.849,0.876"
     id="path1029" />
  <path
     style="fill:none;stroke:#231f20;stroke-width:0.565977;stroke-linecap:butt;stroke-linejoin:miter;stroke-miterlimit:4;stroke-dasharray:none;stroke-opacity:1"
     d="m 223.77493,24.611479 c 2.265,0.0627 2.719,-0.2293 2.803,-1.1826 0.061,-0.6307 0.337,-1.1987 0.394,-1.588 0.178,-1.2867 -0.036,-3.516 -2.312,-9.6933 -0.516,-1.4014 -1.234,-3.3747 -1.453,-4.2027 -0.353,-1.308 -2.292,0.172 -2.156,0.6813 0.432,1.6667 0.599,2.8387 0.677,3.464 0.047,0.4174 0.24,1.156 0.224,2.8227 -0.021,2.532 -0.412,4.0373 -0.182,6.1413 0.104,0.9733 -0.443,1.776 0.156,2.6813 0.589,0.912 1.849,0.876 1.849,0.876 z"
     id="path1030" />
  <path
     style="fill:#63c99d;fill-opacity:1;fill-rule:nonzero;stroke:none"
     d="m 232.04593,48.376779 c -1.416,-2.7973 -1.416,-3.552 -1.479,-4.4693 -0.38,-5.7707 -3.208,-5.4733 -5.495,-3.724 -2.704,2.052 -3.709,2.7346 -0.344,8.052 0.943,1.48 3.792,7.6199 3.792,7.6199 0.724,2.3387 2.676,4.2344 4.124,4.4224 1.522,0.187 0.934,0 2.371,-0.073 1.38,-0.079 3.197,-1.2867 3.344,-2.516 0.14,-1.1774 -1.177,-2.1867 -2.896,-3.9053 -1.349,-1.3547 -3.417,-5.4067 -3.417,-5.4067"
     id="path1031" />
  <path
     style="fill:none;stroke:#231f20;stroke-width:0.565977;stroke-linecap:butt;stroke-linejoin:miter;stroke-miterlimit:4;stroke-dasharray:none;stroke-opacity:1"
     d="m 232.04593,48.376779 c -1.416,-2.7973 -1.416,-3.552 -1.479,-4.4693 -0.38,-5.7707 -3.208,-5.4733 -5.495,-3.724 -2.704,2.052 -3.709,2.7346 -0.344,8.052 0.943,1.48 3.792,7.6199 3.792,7.6199 0.724,2.3387 2.676,4.2344 4.124,4.4224 1.522,0.187 0.934,0 2.371,-0.073 1.38,-0.079 3.197,-1.2867 3.344,-2.516 0.14,-1.1774 -1.177,-2.1867 -2.896,-3.9053 -1.349,-1.3547 -3.417,-5.4067 -3.417,-5.4067 z"
     id="path1032" />
  <path
     style="fill:#ffffff;fill-opacity:1;fill-rule:nonzero;stroke:none"
     d="m 239.63493,66.876779 c 0.213,0.131 -0.105,1.235 0.385,1.416 0.49,0.177 0.943,-0.468 2.922,-0.645 l 0.026,0.005 c 1.448,-0.084 2.676,-0.74 3.203,-1.875 0.875,-1.885 -0.489,-4.376 -3.047,-5.562 -2.568,-1.1884 -5.349,-0.626 -6.229,1.254 -0.839,1.803 0.38,4.167 2.74,5.407"
     id="path1033" />
  <path
     style="fill:none;stroke:#231f20;stroke-width:0.565977;stroke-linecap:butt;stroke-linejoin:miter;stroke-miterlimit:4;stroke-dasharray:none;stroke-opacity:1"
     d="m 239.63493,66.876779 c 0.213,0.131 -0.105,1.235 0.385,1.416 0.49,0.177 0.943,-0.468 2.922,-0.645 l 0.026,0.005 c 1.448,-0.084 2.676,-0.74 3.203,-1.875 0.875,-1.885 -0.489,-4.376 -3.047,-5.562 -2.568,-1.1884 -5.349,-0.626 -6.229,1.254 -0.839,1.803 0.38,4.167 2.74,5.407 z"
     id="path1034" />
  <path
     style="fill:#231f20;fill-opacity:1;fill-rule:nonzero;stroke:none"
     d="m 224.41093,22.226179 c -3.985,-0.4587 -2.589,3.3693 -2.641,3.8533 -0.588,4.9747 -0.511,5.344 -0.698,9.1613 -0.27,5.5214 0.391,9.3493 3.558,10.4373 2.15,0.74 3.708,0.24 4.572,-0.7546 0.948,-1.1094 1.672,-4.2027 -0.348,-6.2653 l -0.382,-1.672 c -0.104,-1.156 -0.166,-1.7294 -0.176,-2.308 -0.01,-1 -0.089,-2.072 -0.224,-4.0254 -0.245,-3.4639 -1.636,-7.0413 -1.636,-7.0413 -0.114,-1.24 -2.025,-1.3853 -2.025,-1.3853"
     id="path1035" />
  <path
     style="fill:none;stroke:#231f20;stroke-width:0.565977;stroke-linecap:butt;stroke-linejoin:miter;stroke-miterlimit:4;stroke-dasharray:none;stroke-opacity:1"
     d="m 224.41093,22.226179 c -3.985,-0.4587 -2.589,3.3693 -2.641,3.8533 -0.588,4.9747 -0.511,5.344 -0.698,9.1613 -0.27,5.5214 0.391,9.3493 3.558,10.4373 2.15,0.74 3.708,0.24 4.572,-0.7546 0.948,-1.1094 1.672,-4.2027 -0.348,-6.2653 l -0.382,-1.672 c -0.104,-1.156 -0.166,-1.7294 -0.176,-2.308 -0.01,-1 -0.089,-2.072 -0.224,-4.0254 -0.245,-3.4639 -1.636,-7.0413 -1.636,-7.0413 -0.114,-1.24 -2.025,-1.3853 -2.025,-1.3853 z"
     id="path1036" />
  <path
     style="fill:#63c99d;fill-opacity:1;fill-rule:nonzero;stroke:none"
     d="m 228.22293,38.324779 -7.735,1.1347 c 0.136,0.6467 0.298,1.2293 0.475,1.792 -0.005,0.0787 -0.011,0.1613 -0.021,0.2293 -0.14,0.8027 0.27,1.2813 0.989,2.036 0.787,1.3333 1.839,2.1933 3.292,2.4373 2.245,0.3707 3.697,-0.38 4.38,-1.5093 0.756,-1.2507 0.959,-4.4226 -1.38,-6.12"
     id="path1037" />
  <path
     style="fill:none;stroke:#231f20;stroke-width:0.565977;stroke-linecap:butt;stroke-linejoin:miter;stroke-miterlimit:4;stroke-dasharray:none;stroke-opacity:1"
     d="m 228.22293,38.324779 -7.735,1.1347 c 0.136,0.6467 0.298,1.2293 0.475,1.792 -0.005,0.0787 -0.011,0.1613 -0.021,0.2293 -0.14,0.8027 0.27,1.2813 0.989,2.036 0.787,1.3333 1.839,2.1933 3.292,2.4373 2.245,0.3707 3.697,-0.38 4.38,-1.5093 0.756,-1.2507 0.959,-4.4226 -1.38,-6.12 z"
     id="path1038" />
  <path
     style="fill:#231f20;fill-opacity:1;fill-rule:nonzero;stroke:none"
     d="m 216.88393,47.710079 c 0.636,-0.0986 2.287,0.932 3.875,1.2027 1.068,0.1773 3.355,1.6987 4.437,1.7973 0.986,0.0987 1.428,0.2294 1.522,1.3747 0.052,0.6773 -0.287,2.0267 -0.792,2.0893 -1.182,0.1507 -2.094,-0.1146 -3.036,-0.6106 -1.074,-0.572 -3.85,-2.3747 -4.334,-2.7547 -1.188,-0.948 -1.926,-0.948 -2.265,-1.172 -0.641,-0.4107 -0.641,-0.76 -0.459,-1.2293 0.339,-0.9 1.052,-0.6974 1.052,-0.6974"
     id="path1039" />
  <path
     style="fill:none;stroke:#231f20;stroke-width:0.565977;stroke-linecap:butt;stroke-linejoin:miter;stroke-miterlimit:4;stroke-dasharray:none;stroke-opacity:1"
     d="m 216.88393,47.710079 c 0.636,-0.0986 2.287,0.932 3.875,1.2027 1.068,0.1773 3.355,1.6987 4.437,1.7973 0.986,0.0987 1.428,0.2294 1.522,1.3747 0.052,0.6773 -0.287,2.0267 -0.792,2.0893 -1.182,0.1507 -2.094,-0.1146 -3.036,-0.6106 -1.074,-0.572 -3.85,-2.3747 -4.334,-2.7547 -1.188,-0.948 -1.926,-0.948 -2.265,-1.172 -0.641,-0.4107 -0.641,-0.76 -0.459,-1.2293 0.339,-0.9 1.052,-0.6974 1.052,-0.6974 z"
     id="path1040" />
  <path
     style="fill:#231f20;fill-opacity:1;fill-rule:nonzero;stroke:none"
     d="m 225.16593,51.382079 c 0.65,-1.12 2.193,0.2134 2.65,0.4947 0.464,0.292 1.871,0.964 3.032,1.344 1.162,0.3853 2.448,1.3587 4.662,2.088 1.156,0.3853 2.041,1.4946 1.41,3.156 -0.624,1.641 -1.776,1.912 -3.114,1.229 -1.334,-0.6717 -2.302,-1.8744 -3.599,-2.6504 -1.296,-0.776 -2.692,-1.4426 -3.807,-1.9226 -1.276,-0.536 -1.704,-1.276 -1.704,-1.7547 0,-1.1973 0.47,-1.984 0.47,-1.984"
     id="path1041" />
  <path
     style="fill:none;stroke:#231f20;stroke-width:0.565977;stroke-linecap:butt;stroke-linejoin:miter;stroke-miterlimit:4;stroke-dasharray:none;stroke-opacity:1"
     d="m 225.16593,51.382079 c 0.65,-1.12 2.193,0.2134 2.65,0.4947 0.464,0.292 1.871,0.964 3.032,1.344 1.162,0.3853 2.448,1.3587 4.662,2.088 1.156,0.3853 2.041,1.4946 1.41,3.156 -0.624,1.641 -1.776,1.912 -3.114,1.229 -1.334,-0.6717 -2.302,-1.8744 -3.599,-2.6504 -1.296,-0.776 -2.692,-1.4426 -3.807,-1.9226 -1.276,-0.536 -1.704,-1.276 -1.704,-1.7547 0,-1.1973 0.47,-1.984 0.47,-1.984 z"
     id="path1042" />
  <path
     style="fill:#231f20;fill-opacity:1;fill-rule:nonzero;stroke:none"
     d="m 267.90793,124.54278 c -0.65,-1.188 -0.01,-1.942 1.01,-2.114 0.3,-0.052 0.51,-0.412 0.82,-0.438 0.7,-0.052 1.99,1.115 1.29,2.443 -0.06,0.093 -0.21,0.901 -0.41,1.484 -0.41,1.147 -1.77,3.235 -4.41,3.765 -1.26,0.256 -1.17,-0.53 -0.7,-0.786 1.51,-0.812 1.49,-1.176 1.8,-1.536 1.09,-1.208 0.6,-2.818 0.6,-2.818"
     id="path1043" />
  <path
     style="fill:none;stroke:#231f20;stroke-width:0.332927;stroke-linecap:butt;stroke-linejoin:miter;stroke-miterlimit:4;stroke-dasharray:none;stroke-opacity:1"
     d="m 267.90793,124.54278 c -0.65,-1.188 -0.01,-1.942 1.01,-2.114 0.3,-0.052 0.51,-0.412 0.82,-0.438 0.7,-0.052 1.99,1.115 1.29,2.443 -0.06,0.093 -0.21,0.901 -0.41,1.484 -0.41,1.147 -1.77,3.235 -4.41,3.765 -1.26,0.256 -1.17,-0.53 -0.7,-0.786 1.51,-0.812 1.49,-1.176 1.8,-1.536 1.09,-1.208 0.6,-2.818 0.6,-2.818 z"
     id="path1044" />
  <path
     style="fill:#231f20;fill-opacity:1;fill-rule:nonzero;stroke:none"
     d="m 276.96793,108.12578 c -1.93,-1.181 -2.46,-1.15 -3.02,-0.364 -0.37,0.522 -0.89,0.88 -1.13,1.183 -0.79,1.025 -1.72,3.072 -2.8,9.566 -0.25,1.475 -0.61,3.538 -0.83,4.371 -0.33,1.312 2.08,0.984 2.21,0.473 0.46,-1.661 0.89,-2.76 1.14,-3.338 0.16,-0.391 0.36,-1.124 1.2,-2.563 1.28,-2.187 2.36,-3.301 3.21,-5.238 0.39,-0.902 1.26,-1.323 1.2,-2.407 -0.06,-1.088 -1.18,-1.683 -1.18,-1.683"
     id="path1045" />
  <path
     style="fill:none;stroke:#231f20;stroke-width:0.565977;stroke-linecap:butt;stroke-linejoin:miter;stroke-miterlimit:4;stroke-dasharray:none;stroke-opacity:1"
     d="m 276.96793,108.12578 c -1.93,-1.181 -2.46,-1.15 -3.02,-0.364 -0.37,0.522 -0.89,0.88 -1.13,1.183 -0.79,1.025 -1.72,3.072 -2.8,9.566 -0.25,1.475 -0.61,3.538 -0.83,4.371 -0.33,1.312 2.08,0.984 2.21,0.473 0.46,-1.661 0.89,-2.76 1.14,-3.338 0.16,-0.391 0.36,-1.124 1.2,-2.563 1.28,-2.187 2.36,-3.301 3.21,-5.238 0.39,-0.902 1.26,-1.323 1.2,-2.407 -0.06,-1.088 -1.18,-1.683 -1.18,-1.683 z"
     id="path1046" />
  <path
     style="fill:#63c99d;fill-opacity:1;fill-rule:nonzero;stroke:none"
     d="m 284.53793,83.152779 c -1.17,2.907 -1.74,3.401 -2.39,4.052 -4.09,4.088 -2.01,6.021 0.81,6.588 3.33,0.683 4.5,0.995 6.3,-5.041 0.49,-1.683 3.24,-7.87 3.24,-7.87 1.28,-2.084 1.42,-4.802 0.6,-6.01 -0.85,-1.276 -0.6,-0.703 -1.62,-1.74 -0.95,-0.99 -3.06,-1.563 -4.08,-0.864 -0.98,0.666 -0.88,2.328 -1.04,4.749 -0.13,1.907 -1.82,6.136 -1.82,6.136"
     id="path1047" />
  <path
     style="fill:none;stroke:#231f20;stroke-width:0.565977;stroke-linecap:butt;stroke-linejoin:miter;stroke-miterlimit:4;stroke-dasharray:none;stroke-opacity:1"
     d="m 284.53793,83.152779 c -1.17,2.907 -1.74,3.401 -2.39,4.052 -4.09,4.088 -2.01,6.021 0.81,6.588 3.33,0.683 4.5,0.995 6.3,-5.041 0.49,-1.683 3.24,-7.87 3.24,-7.87 1.28,-2.084 1.42,-4.802 0.6,-6.01 -0.85,-1.276 -0.6,-0.703 -1.62,-1.74 -0.95,-0.99 -3.06,-1.563 -4.08,-0.864 -0.98,0.666 -0.88,2.328 -1.04,4.749 -0.13,1.907 -1.82,6.136 -1.82,6.136 z"
     id="path1048" />
  <path
     style="fill:#ffffff;fill-opacity:1;fill-rule:nonzero;stroke:none"
     d="m 296.12793,69.095779 c 0.14,-0.199 1.21,0.213 1.43,-0.26 0.23,-0.475 -0.38,-0.98 -0.39,-2.97 v -0.021 c 0.04,-1.457 -0.5,-2.733 -1.59,-3.353 -1.8,-1.032 -4.4,0.125 -5.8,2.573 -1.4,2.452 -1.08,5.276 0.73,6.307 1.72,0.989 4.18,-0.027 5.62,-2.276"
     id="path1049" />
  <path
     style="fill:none;stroke:#231f20;stroke-width:0.565977;stroke-linecap:butt;stroke-linejoin:miter;stroke-miterlimit:4;stroke-dasharray:none;stroke-opacity:1"
     d="m 296.12793,69.095779 c 0.14,-0.199 1.21,0.213 1.43,-0.26 0.23,-0.475 -0.38,-0.98 -0.39,-2.97 v -0.021 c 0.04,-1.457 -0.5,-2.733 -1.59,-3.353 -1.8,-1.032 -4.4,0.125 -5.8,2.573 -1.4,2.452 -1.08,5.276 0.73,6.307 1.72,0.989 4.18,-0.027 5.62,-2.276 z"
     id="path1050" />
  <path
     style="fill:#231f20;fill-opacity:1;fill-rule:nonzero;stroke:none"
     d="m 275.23793,109.88778 c 3.23,2.374 3.92,-1.647 4.2,-2.038 2.98,-4.02 3.1,-4.385 5.15,-7.609 2.98,-4.656001 4.3,-8.307001 2.09,-10.828001 -1.49,-1.708 -3.1,-2.047 -4.34,-1.609 -1.37,0.489 -3.54,2.813 -2.8,5.614 l -0.51,1.636 c -0.48,1.052 -0.71,1.583 -0.99,2.088 -0.48,0.875 -0.95,1.844 -1.8,3.604001 -1.5,3.131 -2.08,6.932 -2.08,6.932 -0.51,1.131 1.08,2.21 1.08,2.21"
     id="path1051" />
  <path
     style="fill:none;stroke:#231f20;stroke-width:0.565977;stroke-linecap:butt;stroke-linejoin:miter;stroke-miterlimit:4;stroke-dasharray:none;stroke-opacity:1"
     d="m 275.23793,109.88778 c 3.23,2.374 3.92,-1.647 4.2,-2.038 2.98,-4.02 3.1,-4.385 5.15,-7.609 2.98,-4.656001 4.3,-8.307001 2.09,-10.828001 -1.49,-1.708 -3.1,-2.047 -4.34,-1.609 -1.37,0.489 -3.54,2.813 -2.8,5.614 l -0.51,1.636 c -0.48,1.052 -0.71,1.583 -0.99,2.088 -0.48,0.875 -0.95,1.844 -1.8,3.604001 -1.5,3.131 -2.08,6.932 -2.08,6.932 -0.51,1.131 1.08,2.21 1.08,2.21 z"
     id="path1052" />
  <path
     style="fill:#63c99d;fill-opacity:1;fill-rule:nonzero;stroke:none"
     d="m 287.94793,92.636779 c -0.02,-1.552 -0.51,-2.828 -1.65,-3.755 -1.76,-1.437 -3.39,-1.505 -4.54,-0.865 -1.28,0.709 -3.03,3.365 -1.84,5.995 l 7.27,2.854 c 0.21,-0.625 0.36,-1.218 0.49,-1.792 0.03,-0.066 0.08,-0.129 0.12,-0.186 0.52,-0.62 0.4,-1.24 0.15,-2.251"
     id="path1053" />
  <path
     style="fill:none;stroke:#231f20;stroke-width:0.565977;stroke-linecap:butt;stroke-linejoin:miter;stroke-miterlimit:4;stroke-dasharray:none;stroke-opacity:1"
     d="m 287.94793,92.636779 c -0.02,-1.552 -0.51,-2.828 -1.65,-3.755 -1.76,-1.437 -3.39,-1.505 -4.54,-0.865 -1.28,0.709 -3.03,3.365 -1.84,5.995 l 7.27,2.854 c 0.21,-0.625 0.36,-1.218 0.49,-1.792 0.03,-0.066 0.08,-0.129 0.12,-0.186 0.52,-0.62 0.4,-1.24 0.15,-2.251 z"
     id="path1054" />
  <path
     style="fill:#231f20;fill-opacity:1;fill-rule:nonzero;stroke:none"
     d="m 282.14793,56.475379 c 0.56,0.3174 1.2,2.1614 2.27,3.3604 0.72,0.817 1.54,3.437 2.32,4.186 0.71,0.694 0.98,1.079 0.32,2.027 -0.38,0.563 -1.49,1.401 -1.92,1.129 -1.01,-0.624 -1.56,-1.394 -1.98,-2.38 -0.48,-1.12 -1.51,-4.265 -1.65,-4.858 -0.33,-1.4897 -0.91,-1.9484 -1.03,-2.3337 -0.24,-0.724 -0.02,-0.9947 0.42,-1.256 0.82,-0.4787 1.25,0.1253 1.25,0.1253"
     id="path1055" />
  <path
     style="fill:none;stroke:#231f20;stroke-width:0.565977;stroke-linecap:butt;stroke-linejoin:miter;stroke-miterlimit:4;stroke-dasharray:none;stroke-opacity:1"
     d="m 282.14793,56.475379 c 0.56,0.3174 1.2,2.1614 2.27,3.3604 0.72,0.817 1.54,3.437 2.32,4.186 0.71,0.694 0.98,1.079 0.32,2.027 -0.38,0.563 -1.49,1.401 -1.92,1.129 -1.01,-0.624 -1.56,-1.394 -1.98,-2.38 -0.48,-1.12 -1.51,-4.265 -1.65,-4.858 -0.33,-1.4897 -0.91,-1.9484 -1.03,-2.3337 -0.24,-0.724 -0.02,-0.9947 0.42,-1.256 0.82,-0.4787 1.25,0.1253 1.25,0.1253 z"
     id="path1056" />
  <path
     style="fill:#231f20;fill-opacity:1;fill-rule:nonzero;stroke:none"
     d="m 286.29793,64.532779 c 1.21,-0.464 1.58,1.536 1.75,2.047 0.18,0.516 0.85,1.922 1.52,2.942 0.67,1.032 1.05,2.599 2.31,4.558 0.67,1.026 0.66,2.448 -0.87,3.338 -1.52,0.886 -2.59,0.37 -3.2,-0.994 -0.62,-1.359 -0.61,-2.902 -1.14,-4.323 -0.52,-1.417 -1.19,-2.813 -1.76,-3.885 -0.65,-1.219 -0.52,-2.063 -0.22,-2.438 0.75,-0.933 1.61,-1.245 1.61,-1.245"
     id="path1057" />
  <path
     style="fill:none;stroke:#231f20;stroke-width:0.565977;stroke-linecap:butt;stroke-linejoin:miter;stroke-miterlimit:4;stroke-dasharray:none;stroke-opacity:1"
     d="m 286.29793,64.532779 c 1.21,-0.464 1.58,1.536 1.75,2.047 0.18,0.516 0.85,1.922 1.52,2.942 0.67,1.032 1.05,2.599 2.31,4.558 0.67,1.026 0.66,2.448 -0.87,3.338 -1.52,0.886 -2.59,0.37 -3.2,-0.994 -0.62,-1.359 -0.61,-2.902 -1.14,-4.323 -0.52,-1.417 -1.19,-2.813 -1.76,-3.885 -0.65,-1.219 -0.52,-2.063 -0.22,-2.438 0.75,-0.933 1.61,-1.245 1.61,-1.245 z"
     id="path1058" />
  <path
     style="fill:#231f20;fill-opacity:1;fill-rule:nonzero;stroke:none"
     d="m 279.09793,51.532779 c -0.06,0.724 0.82,3.8546 1.06,4.5573 0.2,0.636 0.2,1.7867 1.35,1.9373 0.46,0.0627 1.18,-0.1773 1.44,-0.3533 0.23,-0.1467 0.22,-0.4747 0.06,-0.8387 -0.26,-0.6093 -0.57,-0.6773 -1.15,-1.8239 0,0 -0.18,-0.244 -0.53,-0.676 -1.01,-1.276 -0.68,-0.62 -1.75,-2.7867 -0.07,-0.156 -0.29,-0.1933 -0.38,-0.136 -0.16,0.0947 -0.1,0.12 -0.1,0.12"
     id="path1059" />
  <path
     style="fill:none;stroke:#231f20;stroke-width:0.565977;stroke-linecap:round;stroke-linejoin:round;stroke-miterlimit:4;stroke-dasharray:none;stroke-opacity:1"
     d="m 279.09793,51.532779 c -0.06,0.724 0.82,3.8546 1.06,4.5573 0.2,0.636 0.2,1.7867 1.35,1.9373 0.46,0.0627 1.18,-0.1773 1.44,-0.3533 0.23,-0.1467 0.22,-0.4747 0.06,-0.8387 -0.26,-0.6093 -0.57,-0.6773 -1.15,-1.8239 0,0 -0.18,-0.244 -0.53,-0.676 -1.01,-1.276 -0.68,-0.62 -1.75,-2.7867 -0.07,-0.156 -0.29,-0.1933 -0.38,-0.136 -0.16,0.0947 -0.1,0.12 -0.1,0.12 z"
     id="path1060" />
  <path
     style="fill:#231f20;fill-opacity:1;fill-rule:nonzero;stroke:none"
     d="m 107.94693,86.163779 c 0,1.181 -0.953,2.134 -2.13,2.134 -1.182,0 -2.135,-0.953 -2.135,-2.134 0,-1.178 0.953,-2.131 2.135,-2.131 1.177,0 2.13,0.953 2.13,2.131"
     id="path1061" />
  <path
     style="fill:#63c99d;fill-opacity:1;fill-rule:nonzero;stroke:none"
     d="m 52.514928,60.220779 c -3.037,-0.776 -3.604,-1.276 -4.338,-1.8387 -4.59,-3.5106 -6.23,-1.188 -6.423,1.6867 -0.233,3.381 -0.385,4.589 5.833,5.563 1.735,0.265 8.235,2.166 8.235,2.166 2.24,0.995 4.948,0.776 6.037,-0.192 1.151,-1.021 0.619,-0.698 1.51,-1.833 0.849,-1.084 1.141,-3.251 0.313,-4.167 -0.792,-0.885 -2.428,-0.557 -4.844,-0.401 -1.912,0.131 -6.323,-0.984 -6.323,-0.984"
     id="path1062" />
  <path
     style="fill:none;stroke:#231f20;stroke-width:0.565977;stroke-linecap:butt;stroke-linejoin:miter;stroke-miterlimit:4;stroke-dasharray:none;stroke-opacity:1"
     d="m 52.514928,60.220779 c -3.037,-0.776 -3.604,-1.276 -4.338,-1.8387 -4.59,-3.5106 -6.23,-1.188 -6.423,1.6867 -0.233,3.381 -0.385,4.589 5.833,5.563 1.735,0.265 8.235,2.166 8.235,2.166 2.24,0.995 4.948,0.776 6.037,-0.192 1.151,-1.021 0.619,-0.698 1.51,-1.833 0.849,-1.084 1.141,-3.251 0.313,-4.167 -0.792,-0.885 -2.428,-0.557 -4.844,-0.401 -1.912,0.131 -6.323,-0.984 -6.323,-0.984 z"
     id="path1063" />
  <path
     style="fill:#ffffff;fill-opacity:1;fill-rule:nonzero;stroke:none"
     d="m 72.045928,66.287779 c 0.213,-0.124 1.027,0.693 1.423,0.354 0.4,-0.344 0.052,-1.052 0.869,-2.864 l 0.005,-0.021 c 0.64,-1.307 0.672,-2.697 -0.068,-3.713 -1.218,-1.683 -4.062,-1.703 -6.344,-0.052 -2.292,1.661 -3.15,4.374 -1.937,6.052 1.161,1.609 3.823,1.697 6.052,0.244"
     id="path1064" />
  <path
     style="fill:none;stroke:#231f20;stroke-width:0.565977;stroke-linecap:butt;stroke-linejoin:miter;stroke-miterlimit:4;stroke-dasharray:none;stroke-opacity:1"
     d="m 72.045928,66.287779 c 0.213,-0.124 1.027,0.693 1.423,0.354 0.4,-0.344 0.052,-1.052 0.869,-2.864 l 0.005,-0.021 c 0.64,-1.307 0.672,-2.697 -0.068,-3.713 -1.218,-1.683 -4.062,-1.703 -6.344,-0.052 -2.292,1.661 -3.15,4.374 -1.937,6.052 1.161,1.609 3.823,1.697 6.052,0.244 z"
     id="path1065" />
  <path
     style="fill:#231f20;fill-opacity:1;fill-rule:nonzero;stroke:none"
     d="m 56.862928,84.876779 c -0.29,-0.573 0.178,-2.469 -0.057,-4.057 -0.161,-1.074 0.573,-3.714 0.333,-4.771 -0.218,-0.969 -0.228,-1.437 0.834,-1.875 0.63,-0.266 2.016,-0.36 2.229,0.104 0.511,1.078 0.548,2.02 0.36,3.072 -0.208,1.199 -1.063,4.396 -1.271,4.975 -0.532,1.421 -0.302,2.125 -0.406,2.52 -0.198,0.735 -0.531,0.839 -1.031,0.819 -0.959,-0.047 -0.991,-0.787 -0.991,-0.787"
     id="path1066" />
  <path
     style="fill:none;stroke:#231f20;stroke-width:0.565977;stroke-linecap:butt;stroke-linejoin:miter;stroke-miterlimit:4;stroke-dasharray:none;stroke-opacity:1"
     d="m 56.862928,84.876779 c -0.29,-0.573 0.178,-2.469 -0.057,-4.057 -0.161,-1.074 0.573,-3.714 0.333,-4.771 -0.218,-0.969 -0.228,-1.437 0.834,-1.875 0.63,-0.266 2.016,-0.36 2.229,0.104 0.511,1.078 0.548,2.02 0.36,3.072 -0.208,1.199 -1.063,4.396 -1.271,4.975 -0.532,1.421 -0.302,2.125 -0.406,2.52 -0.198,0.735 -0.531,0.839 -1.031,0.819 -0.959,-0.047 -0.991,-0.787 -0.991,-0.787 z"
     id="path1067" />
  <path
     style="fill:#231f20;fill-opacity:1;fill-rule:nonzero;stroke:none"
     d="m 57.785928,75.860779 c -1.265,-0.271 -0.48,-2.151 -0.349,-2.672 0.13,-0.531 0.333,-2.072 0.333,-3.296 0.005,-1.224 0.536,-2.751 0.547,-5.079 0,-1.224 0.781,-2.406 2.552,-2.322 1.761,0.082 2.37,1.098 2.141,2.577 -0.229,1.48 -1.073,2.772 -1.407,4.245 -0.338,1.47 -0.541,3.006 -0.645,4.219 -0.115,1.375 -0.683,2.016 -1.141,2.156 -1.135,0.376 -2.031,0.172 -2.031,0.172"
     id="path1068" />
  <path
     style="fill:none;stroke:#231f20;stroke-width:0.565977;stroke-linecap:butt;stroke-linejoin:miter;stroke-miterlimit:4;stroke-dasharray:none;stroke-opacity:1"
     d="m 57.785928,75.860779 c -1.265,-0.271 -0.48,-2.151 -0.349,-2.672 0.13,-0.531 0.333,-2.072 0.333,-3.296 0.005,-1.224 0.536,-2.751 0.547,-5.079 0,-1.224 0.781,-2.406 2.552,-2.322 1.761,0.082 2.37,1.098 2.141,2.577 -0.229,1.48 -1.073,2.772 -1.407,4.245 -0.338,1.47 -0.541,3.006 -0.645,4.219 -0.115,1.375 -0.683,2.016 -1.141,2.156 -1.135,0.376 -2.031,0.172 -2.031,0.172 z"
     id="path1069" />
  <path
     style="fill:#231f20;fill-opacity:1;fill-rule:nonzero;stroke:none"
     d="m 29.244928,51.350079 c 1.416,-1.76 1.452,-2.296 0.744,-2.948 -0.474,-0.4373 -0.755,-0.9946 -1.031,-1.2653 -0.907,-0.9213 -2.833,-2.0987 -9.131,-4.016 -1.426,-0.4267 -3.426,-1.052 -4.224,-1.3746 -1.26,-0.4947 -1.244,1.9319 -0.749,2.1359 1.583,0.656 2.619,1.2347 3.156,1.552 0.369,0.2134 1.073,0.5 2.396,1.52 2,1.5427 2.968,2.7614 4.787,3.8494 0.842,0.5106 1.145,1.4226 2.228,1.4946 1.089,0.0894 1.824,-0.948 1.824,-0.948"
     id="path1070" />
  <path
     style="fill:none;stroke:#231f20;stroke-width:0.565977;stroke-linecap:butt;stroke-linejoin:miter;stroke-miterlimit:4;stroke-dasharray:none;stroke-opacity:1"
     d="m 29.244928,51.350079 c 1.416,-1.76 1.452,-2.296 0.744,-2.948 -0.474,-0.4373 -0.755,-0.9946 -1.031,-1.2653 -0.907,-0.9213 -2.833,-2.0987 -9.131,-4.016 -1.426,-0.4267 -3.426,-1.052 -4.224,-1.3746 -1.26,-0.4947 -1.244,1.9319 -0.749,2.1359 1.583,0.656 2.619,1.2347 3.156,1.552 0.369,0.2134 1.073,0.5 2.396,1.52 2,1.5427 2.968,2.7614 4.787,3.8494 0.842,0.5106 1.145,1.4226 2.228,1.4946 1.089,0.0894 1.824,-0.948 1.824,-0.948 z"
     id="path1071" />
  <path
     style="fill:#231f20;fill-opacity:1;fill-rule:nonzero;stroke:#231f20;stroke-width:0.565977;stroke-linecap:round;stroke-linejoin:round;stroke-miterlimit:4;stroke-dasharray:none;stroke-opacity:1"
     d="m 26.744928,51.516779 c 0.161,1.412 2.208,2.0787 2.448,2.3187 3.613,3.4733 3.962,3.6346 6.89,6.0823 4.244,3.547 7.692,5.328 10.479,3.459 1.885,-1.265 2.421,-2.813 2.145,-4.099 -0.306,-1.4224 -2.338,-3.8704 -5.202,-3.4997 l -1.558,-0.7133 c -0.994,-0.6107 -1.484,-0.9067 -1.948,-1.2453 -0.802,-0.5934 -1.708,-1.1774 -3.349,-2.2507 -2.911,-1.8947 -6.604,-2.948 -6.604,-2.948 -0.265,-0.1613 -0.541,-0.192 -0.807,-0.1507"
     id="path1072" />
  <path
     style="fill:#63c99d;fill-opacity:1;fill-rule:nonzero;stroke:none"
     d="m 48.676928,59.559779 c -0.26,-1.439 -2.194,-3.9644 -5.068,-3.699 l -5.074,5.943 c 0.522,0.39 1.027,0.729 1.527,1.037 0.052,0.061 0.099,0.124 0.14,0.181 0.423,0.694 1.043,0.782 2.079,0.88 1.478,0.491 2.838,0.443 4.093,-0.328 1.928,-1.197 2.532,-2.718 2.303,-4.014"
     id="path1073" />
  <path
     style="fill:none;stroke:#231f20;stroke-width:0.565977;stroke-linecap:butt;stroke-linejoin:miter;stroke-miterlimit:4;stroke-dasharray:none;stroke-opacity:1"
     d="m 48.676928,59.559779 c -0.26,-1.439 -2.194,-3.9644 -5.068,-3.699 l -5.074,5.943 c 0.522,0.39 1.027,0.729 1.527,1.037 0.052,0.061 0.099,0.124 0.14,0.181 0.423,0.694 1.043,0.782 2.079,0.88 1.478,0.491 2.838,0.443 4.093,-0.328 1.928,-1.197 2.532,-2.718 2.303,-4.014 z"
     id="path1074" />
  <path
     style="fill:#231f20;fill-opacity:1;fill-rule:nonzero;stroke:none"
     d="m 13.592928,40.454179 c 1.266,-0.4734 1.928,0.2666 1.942,1.308 0.011,0.3066 0.339,0.5679 0.319,0.8639 -0.043,0.7094 -1.391,1.8187 -2.6,0.928 -0.088,-0.0626 -0.859,-0.328 -1.411,-0.6146 -1.073,-0.5627 -2.953,-2.208 -3.098,-4.9013 -0.074,-1.276 0.692,-1.084 0.88,-0.5787 0.588,1.6093 0.948,1.636 1.26,2 1.041,1.2453 2.708,0.9947 2.708,0.9947"
     id="path1075" />
  <path
     style="fill:none;stroke:#231f20;stroke-width:0.332927;stroke-linecap:butt;stroke-linejoin:miter;stroke-miterlimit:4;stroke-dasharray:none;stroke-opacity:1"
     d="m 13.592928,40.454179 c 1.266,-0.4734 1.928,0.2666 1.942,1.308 0.011,0.3066 0.339,0.5679 0.319,0.8639 -0.043,0.7094 -1.391,1.8187 -2.6,0.928 -0.088,-0.0626 -0.859,-0.328 -1.411,-0.6146 -1.073,-0.5627 -2.953,-2.208 -3.098,-4.9013 -0.074,-1.276 0.692,-1.084 0.88,-0.5787 0.588,1.6093 0.948,1.636 1.26,2 1.041,1.2453 2.708,0.9947 2.708,0.9947 z"
     id="path1076" />
  <path
     style="fill:#231f20;fill-opacity:1;fill-rule:nonzero;stroke:none"
     d="m 60.550928,86.407779 c 0,1.182 -0.958,2.136 -2.134,2.136 -1.178,0 -2.131,-0.954 -2.131,-2.136 0,-1.178 0.953,-2.13 2.131,-2.13 1.176,0 2.134,0.952 2.134,2.13"
     id="path1077" />
  <path
     style="fill:#63c99d;fill-opacity:1;fill-rule:nonzero;stroke:none"
     d="m 146.23393,61.283779 c 2.734,-1.532 3.494,-1.558 4.41,-1.658 5.746,-0.6144 5.339,-3.4264 3.495,-5.6397 -2.156,-2.62 -2.88,-3.5986 -8.056,-0.0266 -1.444,1.0053 -7.464,4.0999 -7.464,4.0999 -2.308,0.8174 -4.125,2.8424 -4.256,4.2964 -0.124,1.532 0.037,0.937 0.172,2.37 0.131,1.37 1.412,3.146 2.641,3.239 1.187,0.095 2.151,-1.271 3.792,-3.047 1.302,-1.406 5.266,-3.634 5.266,-3.634"
     id="path1078" />
  <path
     style="fill:none;stroke:#231f20;stroke-width:0.565977;stroke-linecap:butt;stroke-linejoin:miter;stroke-miterlimit:4;stroke-dasharray:none;stroke-opacity:1"
     d="m 146.23393,61.283779 c 2.734,-1.532 3.494,-1.558 4.41,-1.658 5.746,-0.6144 5.339,-3.4264 3.495,-5.6397 -2.156,-2.62 -2.88,-3.5986 -8.056,-0.0266 -1.444,1.0053 -7.464,4.0999 -7.464,4.0999 -2.308,0.8174 -4.125,2.8424 -4.256,4.2964 -0.124,1.532 0.037,0.937 0.172,2.37 0.131,1.37 1.412,3.146 2.641,3.239 1.187,0.095 2.151,-1.271 3.792,-3.047 1.302,-1.406 5.266,-3.634 5.266,-3.634 z"
     id="path1079" />
  <path
     style="fill:#ffffff;fill-opacity:1;fill-rule:nonzero;stroke:none"
     d="m 127.59193,64.521779 c -0.213,0.115 -1.02,-0.702 -1.416,-0.369 -0.406,0.339 -0.062,1.057 -0.896,2.859 l -0.01,0.021 c -0.651,1.303 -0.698,2.688 0.032,3.713 1.202,1.694 4.041,1.746 6.342,0.115 2.308,-1.64 3.199,-4.339 2,-6.036 -1.145,-1.62 -3.806,-1.735 -6.052,-0.303"
     id="path1080" />
  <path
     style="fill:none;stroke:#231f20;stroke-width:0.565977;stroke-linecap:butt;stroke-linejoin:miter;stroke-miterlimit:4;stroke-dasharray:none;stroke-opacity:1"
     d="m 127.59193,64.521779 c -0.213,0.115 -1.02,-0.702 -1.416,-0.369 -0.406,0.339 -0.062,1.057 -0.896,2.859 l -0.01,0.021 c -0.651,1.303 -0.698,2.688 0.032,3.713 1.202,1.694 4.041,1.746 6.342,0.115 2.308,-1.64 3.199,-4.339 2,-6.036 -1.145,-1.62 -3.806,-1.735 -6.052,-0.303 z"
     id="path1081" />
  <path
     style="fill:#231f20;fill-opacity:1;fill-rule:nonzero;stroke:none"
     d="m 132.87393,84.100779 c -0.282,-0.579 0.224,-2.464 0.016,-4.057 -0.14,-1.079 0.645,-3.703 0.421,-4.766 -0.197,-0.974 -0.197,-1.442 0.871,-1.86 0.634,-0.249 2.025,-0.322 2.229,0.146 0.489,1.084 0.509,2.032 0.301,3.078 -0.229,1.199 -1.14,4.38 -1.364,4.948 -0.557,1.418 -0.344,2.126 -0.453,2.516 -0.208,0.735 -0.547,0.834 -1.047,0.796 -0.958,-0.057 -0.974,-0.801 -0.974,-0.801"
     id="path1082" />
  <path
     style="fill:none;stroke:#231f20;stroke-width:0.565977;stroke-linecap:butt;stroke-linejoin:miter;stroke-miterlimit:4;stroke-dasharray:none;stroke-opacity:1"
     d="m 132.87393,84.100779 c -0.282,-0.579 0.224,-2.464 0.016,-4.057 -0.14,-1.079 0.645,-3.703 0.421,-4.766 -0.197,-0.974 -0.197,-1.442 0.871,-1.86 0.634,-0.249 2.025,-0.322 2.229,0.146 0.489,1.084 0.509,2.032 0.301,3.078 -0.229,1.199 -1.14,4.38 -1.364,4.948 -0.557,1.418 -0.344,2.126 -0.453,2.516 -0.208,0.735 -0.547,0.834 -1.047,0.796 -0.958,-0.057 -0.974,-0.801 -0.974,-0.801 z"
     id="path1083" />
  <path
     style="fill:#231f20;fill-opacity:1;fill-rule:nonzero;stroke:none"
     d="m 133.96793,75.105779 c -1.266,-0.297 -0.442,-2.161 -0.302,-2.682 0.14,-0.527 0.374,-2.068 0.396,-3.287 0.03,-1.229 0.582,-2.744 0.64,-5.068 0.026,-1.224 0.828,-2.395 2.604,-2.276 1.75,0.115 2.349,1.147 2.084,2.62 -0.251,1.475 -1.12,2.751 -1.479,4.213 -0.365,1.47 -0.6,3 -0.729,4.21 -0.142,1.369 -0.724,2 -1.183,2.134 -1.14,0.355 -2.031,0.136 -2.031,0.136"
     id="path1084" />
  <path
     style="fill:none;stroke:#231f20;stroke-width:0.565977;stroke-linecap:butt;stroke-linejoin:miter;stroke-miterlimit:4;stroke-dasharray:none;stroke-opacity:1"
     d="m 133.96793,75.105779 c -1.266,-0.297 -0.442,-2.161 -0.302,-2.682 0.14,-0.527 0.374,-2.068 0.396,-3.287 0.03,-1.229 0.582,-2.744 0.64,-5.068 0.026,-1.224 0.828,-2.395 2.604,-2.276 1.75,0.115 2.349,1.147 2.084,2.62 -0.251,1.475 -1.12,2.751 -1.479,4.213 -0.365,1.47 -0.6,3 -0.729,4.21 -0.142,1.369 -0.724,2 -1.183,2.134 -1.14,0.355 -2.031,0.136 -2.031,0.136 z"
     id="path1085" />
  <path
     style="fill:#231f20;fill-opacity:1;fill-rule:nonzero;stroke:none"
     d="m 169.37893,55.324779 c -0.328,2.2386 -0.088,2.7186 0.855,2.916 0.629,0.136 1.15,0.4746 1.525,0.5733 1.256,0.3337 3.511,0.3697 9.912,-1.1773 1.443,-0.3534 3.484,-0.8334 4.333,-0.9587 1.339,-0.2133 0.094,-2.3013 -0.442,-2.224 -1.694,0.2454 -2.88,0.2667 -3.5,0.272 -0.432,0 -1.183,0.1094 -2.839,-0.1 -2.505,-0.312 -3.959,-0.8746 -6.079,-0.8906 -0.984,-0.0094 -1.713,-0.64 -2.676,-0.156 -0.985,0.48 -1.089,1.7453 -1.089,1.7453"
     id="path1086" />
  <path
     style="fill:none;stroke:#231f20;stroke-width:0.565977;stroke-linecap:butt;stroke-linejoin:miter;stroke-miterlimit:4;stroke-dasharray:none;stroke-opacity:1"
     d="m 169.37893,55.324779 c -0.328,2.2386 -0.088,2.7186 0.855,2.916 0.629,0.136 1.15,0.4746 1.525,0.5733 1.256,0.3337 3.511,0.3697 9.912,-1.1773 1.443,-0.3534 3.484,-0.8334 4.333,-0.9587 1.339,-0.2133 0.094,-2.3013 -0.442,-2.224 -1.694,0.2454 -2.88,0.2667 -3.5,0.272 -0.432,0 -1.183,0.1094 -2.839,-0.1 -2.505,-0.312 -3.959,-0.8746 -6.079,-0.8906 -0.984,-0.0094 -1.713,-0.64 -2.676,-0.156 -0.985,0.48 -1.089,1.7453 -1.089,1.7453 z"
     id="path1087" />
  <path
     style="fill:#231f20;fill-opacity:1;fill-rule:nonzero;stroke:#231f20;stroke-width:0.565977;stroke-linecap:round;stroke-linejoin:round;stroke-miterlimit:4;stroke-dasharray:none;stroke-opacity:1"
     d="m 171.44693,53.918079 c -0.855,-1.1346 -2.959,-0.6773 -3.287,-0.76 -4.88,-1.156 -5.26,-1.12 -9.025,-1.7453 -5.459,-0.9053 -9.329,-0.6867 -10.781,2.328 -0.991,2.0573 -0.667,3.6573 0.228,4.6306 0.99,1.0734 3.974,2.1504 6.261,0.3747 l 1.703,-0.1773 c 1.166,0.0213 1.734,0.032 2.313,0.084 0.995,0.1093 2.067,0.1506 4.02,0.24 3.475,0.156 7.188,-0.808 7.188,-0.808 0.312,0.0053 0.572,-0.1094 0.776,-0.2814"
     id="path1088" />
  <path
     style="fill:#63c99d;fill-opacity:1;fill-rule:nonzero;stroke:none"
     d="m 154.21793,50.912779 c -0.074,-0.0253 -0.146,-0.052 -0.208,-0.088 -0.714,-0.38 -1.292,-0.1467 -2.23,0.296 -1.526,0.3293 -2.677,1.0573 -3.364,2.3653 -1.057,2.0053 -0.802,3.6253 0.052,4.6307 0.952,1.109 3.895,2.296 6.239,0.6146 l 1.365,-7.6986 c -0.656,-0.0787 -1.266,-0.1093 -1.854,-0.12"
     id="path1089" />
  <path
     style="fill:none;stroke:#231f20;stroke-width:0.565977;stroke-linecap:butt;stroke-linejoin:miter;stroke-miterlimit:4;stroke-dasharray:none;stroke-opacity:1"
     d="m 154.21793,50.912779 c -0.074,-0.0253 -0.146,-0.052 -0.208,-0.088 -0.714,-0.38 -1.292,-0.1467 -2.23,0.296 -1.526,0.3293 -2.677,1.0573 -3.364,2.3653 -1.057,2.0053 -0.802,3.6253 0.052,4.6307 0.952,1.109 3.895,2.296 6.239,0.6146 l 1.365,-7.6986 c -0.656,-0.0787 -1.266,-0.1093 -1.854,-0.12 z"
     id="path1090" />
  <path
     style="fill:#231f20;fill-opacity:1;fill-rule:nonzero;stroke:none"
     d="m 188.38993,56.772779 c -0.85,1.052 -1.792,0.744 -2.334,-0.136 -0.161,-0.2654 -0.578,-0.3227 -0.713,-0.5934 -0.317,-0.6253 0.276,-2.2599 1.765,-2.1199 0.11,0.016 0.912,-0.1507 1.531,-0.1827 1.215,-0.0573 3.667,0.4067 5.163,2.652 0.708,1.0613 -0.048,1.2853 -0.47,0.948 -1.322,-1.0894 -1.65,-0.928 -2.104,-1.084 -1.526,-0.5467 -2.838,0.516 -2.838,0.516"
     id="path1091" />
  <path
     style="fill:none;stroke:#231f20;stroke-width:0.332927;stroke-linecap:butt;stroke-linejoin:miter;stroke-miterlimit:4;stroke-dasharray:none;stroke-opacity:1"
     d="m 188.38993,56.772779 c -0.85,1.052 -1.792,0.744 -2.334,-0.136 -0.161,-0.2654 -0.578,-0.3227 -0.713,-0.5934 -0.317,-0.6253 0.276,-2.2599 1.765,-2.1199 0.11,0.016 0.912,-0.1507 1.531,-0.1827 1.215,-0.0573 3.667,0.4067 5.163,2.652 0.708,1.0613 -0.048,1.2853 -0.47,0.948 -1.322,-1.0894 -1.65,-0.928 -2.104,-1.084 -1.526,-0.5467 -2.838,0.516 -2.838,0.516 z"
     id="path1092" />
  <path
     style="fill:#231f20;fill-opacity:1;fill-rule:nonzero;stroke:none"
     d="m 136.52993,85.704779 c -0.02,1.177 -0.995,2.115 -2.171,2.088 -1.177,-0.02 -2.12,-0.995 -2.095,-2.172 0.022,-1.176 0.995,-2.113 2.172,-2.093 1.178,0.026 2.115,1 2.094,2.177"
     id="path1093" />
</svg>
