<?xml version="1.0" encoding="UTF-8" standalone="no"?>
<!-- Created with Inkscape (http://www.inkscape.org/) -->

<svg
   version="1.1"
   id="svg1"
   width="347.6723"
   height="141.14825"
   viewBox="0 0 347.67229 141.14825"
   sodipodi:docname="cell.svg"
   xmlns:inkscape="http://www.inkscape.org/namespaces/inkscape"
   xmlns:sodipodi="http://sodipodi.sourceforge.net/DTD/sodipodi-0.dtd"
   xmlns="http://www.w3.org/2000/svg"
   xmlns:svg="http://www.w3.org/2000/svg">
  <sodipodi:namedview
     id="namedview1"
     pagecolor="#ffffff"
     bordercolor="#000000"
     borderopacity="0.25"
     inkscape:showpageshadow="2"
     inkscape:pageopacity="0.0"
     inkscape:pagecheckerboard="0"
     inkscape:deskcolor="#d1d1d1">
    <inkscape:page
       x="0"
       y="0"
       inkscape:label="1"
       id="page1"
       width="347.6723"
       height="141.14825"
       margin="0"
       bleed="0" />
  </sodipodi:namedview>
  <defs
     id="defs1" />
  <path
     style="fill:#231f20;fill-opacity:1;fill-rule:nonzero;stroke:none"
     d="m 185.18585,83.754321 c 0.381,-0.62 1.01,-3.812 1.114,-4.546 0.106,-0.656 0.631,-1.688 -0.333,-2.334 -0.375,-0.265 -1.124,-0.38 -1.443,-0.338 -0.26,0.026 -0.405,0.317 -0.426,0.713 -0.042,0.667 0.208,0.875 0.197,2.152 0,0 0.048,0.307 0.167,0.837 0.333,1.595 0.333,0.866 0.308,3.287 -0.011,0.172 0.161,0.292 0.276,0.292 0.182,-0.016 0.14,-0.063 0.14,-0.063"
     id="path289" />
  <path
     style="fill:none;stroke:#231f20;stroke-width:0.565977;stroke-linecap:round;stroke-linejoin:round;stroke-miterlimit:4;stroke-dasharray:none;stroke-opacity:1"
     d="m 185.18585,83.754321 c 0.381,-0.62 1.01,-3.812 1.114,-4.546 0.106,-0.656 0.631,-1.688 -0.333,-2.334 -0.375,-0.265 -1.124,-0.38 -1.443,-0.338 -0.26,0.026 -0.405,0.317 -0.426,0.713 -0.042,0.667 0.208,0.875 0.197,2.152 0,0 0.048,0.307 0.167,0.837 0.333,1.595 0.333,0.866 0.308,3.287 -0.011,0.172 0.161,0.292 0.276,0.292 0.182,-0.016 0.14,-0.063 0.14,-0.063 z"
     id="path290" />
  <path
     style="fill:#231f20;fill-opacity:1;fill-rule:nonzero;stroke:none"
     d="m 186.17085,77.249321 c 0.281,-0.577 -0.235,-2.459 -0.037,-4.052 0.136,-1.077 -0.662,-3.703 -0.443,-4.765 0.188,-0.975 0.193,-1.438 -0.88,-1.855 -0.64,-0.249 -2.025,-0.312 -2.229,0.157 -0.484,1.088 -0.495,2.036 -0.287,3.083 0.235,1.193 1.167,4.369 1.391,4.943 0.568,1.412 0.354,2.12 0.469,2.505 0.213,0.735 0.547,0.833 1.047,0.797 0.958,-0.068 0.969,-0.813 0.969,-0.813"
     id="path291" />
  <path
     style="fill:none;stroke:#231f20;stroke-width:0.565977;stroke-linecap:butt;stroke-linejoin:miter;stroke-miterlimit:4;stroke-dasharray:none;stroke-opacity:1"
     d="m 186.17085,77.249321 c 0.281,-0.577 -0.235,-2.459 -0.037,-4.052 0.136,-1.077 -0.662,-3.703 -0.443,-4.765 0.188,-0.975 0.193,-1.438 -0.88,-1.855 -0.64,-0.249 -2.025,-0.312 -2.229,0.157 -0.484,1.088 -0.495,2.036 -0.287,3.083 0.235,1.193 1.167,4.369 1.391,4.943 0.568,1.412 0.354,2.12 0.469,2.505 0.213,0.735 0.547,0.833 1.047,0.797 0.958,-0.068 0.969,-0.813 0.969,-0.813 z"
     id="path292" />
  <path
     style="fill:#231f20;fill-opacity:1;fill-rule:nonzero;stroke:none"
     d="m 185.59185,67.973321 c 0.979,-0.853 -0.62,-2.115 -0.984,-2.511 -0.374,-0.394 -1.302,-1.645 -1.89,-2.718 -0.599,-1.067 -1.803,-2.146 -2.938,-4.176 -0.598,-1.068 -1.854,-1.73 -3.365,-0.798 -1.494,0.927 -1.536,2.115 -0.62,3.298 0.918,1.181 2.282,1.9 3.287,3.03 1.01,1.126 1.933,2.364 2.609,3.375 0.771,1.147 1.579,1.432 2.048,1.333 1.176,-0.218 1.853,-0.833 1.853,-0.833"
     id="path293" />
  <path
     style="fill:none;stroke:#231f20;stroke-width:0.565977;stroke-linecap:butt;stroke-linejoin:miter;stroke-miterlimit:4;stroke-dasharray:none;stroke-opacity:1"
     d="m 185.59185,67.973321 c 0.979,-0.853 -0.62,-2.115 -0.984,-2.511 -0.374,-0.394 -1.302,-1.645 -1.89,-2.718 -0.599,-1.067 -1.803,-2.146 -2.938,-4.176 -0.598,-1.068 -1.854,-1.73 -3.365,-0.798 -1.494,0.927 -1.536,2.115 -0.62,3.298 0.918,1.181 2.282,1.9 3.287,3.03 1.01,1.126 1.933,2.364 2.609,3.375 0.771,1.147 1.579,1.432 2.048,1.333 1.176,-0.218 1.853,-0.833 1.853,-0.833 z"
     id="path294" />
  <path
     style="fill:none;stroke:#231f20;stroke-width:0.399514;stroke-linecap:butt;stroke-linejoin:miter;stroke-miterlimit:4;stroke-dasharray:none;stroke-opacity:1"
     d="m 77.108355,118.74432 c 22.6565,13.724 48.088495,-9.354 51.432495,-15.802"
     id="path295" />
  <path
     style="fill:#231f20;fill-opacity:1;fill-rule:nonzero;stroke:none"
     d="m 129.09285,101.86932 c -0.074,0.599 -0.078,1.391 0.057,1.953 l -0.683,-0.745 -1.005,-0.129 c 0.543,-0.214 1.183,-0.672 1.631,-1.079"
     id="path296" />
  <path
     style="fill:#63c99d;fill-opacity:1;fill-rule:nonzero;stroke:none"
     d="m 87.895855,85.161321 c 1.691,2.629 2.347,3.016 3.109,3.531 4.786,3.245 3.103,5.537 0.437,6.625 -3.136,1.292 -4.24,1.817 -7.125,-3.771 -0.802,-1.562 -4.662,-7.125 -4.662,-7.125 -1.6558,-1.812 -2.3022,-4.453 -1.7288,-5.792 0.6038,-1.411 0.4694,-0.807 1.2648,-2.009 0.757,-1.152 2.719,-2.11 3.855,-1.62 1.088,0.478 1.297,2.129 1.912,4.473 0.484,1.849 2.938,5.688 2.938,5.688"
     id="path297" />
  <path
     style="fill:none;stroke:#231f20;stroke-width:0.565977;stroke-linecap:butt;stroke-linejoin:miter;stroke-miterlimit:4;stroke-dasharray:none;stroke-opacity:1"
     d="m 87.895855,85.161321 c 1.691,2.629 2.347,3.016 3.109,3.531 4.786,3.245 3.103,5.537 0.437,6.625 -3.136,1.292 -4.24,1.817 -7.125,-3.771 -0.802,-1.562 -4.662,-7.125 -4.662,-7.125 -1.6558,-1.812 -2.3022,-4.453 -1.7288,-5.792 0.6038,-1.411 0.4694,-0.807 1.2648,-2.009 0.757,-1.152 2.719,-2.11 3.855,-1.62 1.088,0.478 1.297,2.129 1.912,4.473 0.484,1.849 2.938,5.688 2.938,5.688 z"
     id="path298" />
  <path
     style="fill:#231f20;fill-opacity:1;fill-rule:nonzero;stroke:none"
     d="m 99.206855,108.33832 c 1.775995,-1.401 2.307995,-1.433 2.953995,-0.724 0.432,0.479 0.984,0.766 1.254,1.042 0.923,0.921 2.079,2.849 3.948,9.161 0.418,1.432 1.022,3.432 1.344,4.235 0.484,1.26 -1.948,1.229 -2.145,0.729 -0.642,-1.589 -1.213,-2.625 -1.521,-3.167 -0.214,-0.37 -0.495,-1.078 -1.511,-2.401 -1.52,-2.016 -2.739,-2.995 -3.811995,-4.817 -0.5,-0.85 -1.412,-1.162 -1.475,-2.246 -0.077,-1.082 0.964,-1.812 0.964,-1.812"
     id="path299" />
  <path
     style="fill:none;stroke:#231f20;stroke-width:0.565977;stroke-linecap:butt;stroke-linejoin:miter;stroke-miterlimit:4;stroke-dasharray:none;stroke-opacity:1"
     d="m 99.206855,108.33832 c 1.775995,-1.401 2.307995,-1.433 2.953995,-0.724 0.432,0.479 0.984,0.766 1.254,1.042 0.923,0.921 2.079,2.849 3.948,9.161 0.418,1.432 1.022,3.432 1.344,4.235 0.484,1.26 -1.948,1.229 -2.145,0.729 -0.642,-1.589 -1.213,-2.625 -1.521,-3.167 -0.214,-0.37 -0.495,-1.078 -1.511,-2.401 -1.52,-2.016 -2.739,-2.995 -3.811995,-4.817 -0.5,-0.85 -1.412,-1.162 -1.475,-2.246 -0.077,-1.082 0.964,-1.812 0.964,-1.812 z"
     id="path300" />
  <path
     style="fill:#231f20;fill-opacity:1;fill-rule:nonzero;stroke:#231f20;stroke-width:0.565977;stroke-linecap:round;stroke-linejoin:round;stroke-miterlimit:4;stroke-dasharray:none;stroke-opacity:1"
     d="m 99.024855,110.83832 c -1.411,-0.177 -2.067,-2.229 -2.301,-2.469 -3.449,-3.64 -3.605,-3.989 -6.033,-6.937 -3.514,-4.270999 -5.265,-7.734999 -3.379,-10.499999 1.281,-1.88 2.833,-2.407 4.114,-2.12 1.423,0.322 3.855,2.369 3.464,5.229 l 0.697,1.563 c 0.604,1 0.897,1.489 1.235,1.958 0.584,0.812 1.167,1.719 2.224,3.363999 1.868995,2.927 2.895995,6.631 2.895995,6.631 0.156,0.265 0.192,0.541 0.145,0.812"
     id="path301" />
  <path
     style="fill:#63c99d;fill-opacity:1;fill-rule:nonzero;stroke:#231f20;stroke-width:0.565977;stroke-linecap:butt;stroke-linejoin:miter;stroke-miterlimit:4;stroke-dasharray:none;stroke-opacity:1"
     d="m 94.805855,93.937321 c 0.287,-2.875 -2.224,-4.823 -3.656,-5.093 -1.297,-0.24 -2.823,0.348 -4.036,2.27 -0.782,1.25 -0.833,2.615 -0.36,4.099 0.089,1.031 0.177,1.651 0.865,2.073 0.058,0.042 0.12,0.088 0.177,0.14 0.302,0.506 0.635,1.011 1.026,1.542 z"
     id="path302" />
  <path
     style="fill:#ffffff;fill-opacity:1;fill-rule:nonzero;stroke:none"
     d="m 7.4674549,98.744321 c 0,0.682 0.5519998,1.24 1.2400998,1.24 H 287.62385 c 0.682,0 1.239,-0.558 1.239,-1.24 0,-0.687 -0.557,-1.239 -1.239,-1.239 H 8.7075547 c -0.6881,0 -1.2400998,0.552 -1.2400998,1.239"
     id="path303" />
  <path
     style="fill:none;stroke:#231f20;stroke-width:0.665856;stroke-linecap:butt;stroke-linejoin:miter;stroke-miterlimit:4;stroke-dasharray:none;stroke-opacity:1"
     d="m 7.4674549,98.744321 c 0,0.682 0.5519998,1.24 1.2400998,1.24 H 287.62385 c 0.682,0 1.239,-0.558 1.239,-1.24 0,-0.687 -0.557,-1.239 -1.239,-1.239 H 8.7075547 c -0.6881,0 -1.2400998,0.552 -1.2400998,1.239 z"
     id="path304" />
  <path
     style="fill:#231f20;fill-opacity:1;fill-rule:nonzero;stroke:none"
     d="m 310.56685,135.39632 c 1.249,-0.522 1.219,-1.511 0.525,-2.282 -0.208,-0.234 -0.145,-0.641 -0.364,-0.849 -0.516,-0.484 -2.25,-0.369 -2.532,1.109 -0.014,0.099 -0.401,0.823 -0.604,1.412 -0.396,1.146 -0.634,3.63 1.094,5.692 0.824,0.984 1.25,0.312 1.042,-0.182 -0.677,-1.572 -0.428,-1.843 -0.453,-2.323 -0.099,-1.62 1.292,-2.577 1.292,-2.577"
     id="path305" />
  <path
     style="fill:none;stroke:#231f20;stroke-width:0.332927;stroke-linecap:butt;stroke-linejoin:miter;stroke-miterlimit:4;stroke-dasharray:none;stroke-opacity:1"
     d="m 310.56685,135.39632 c 1.249,-0.522 1.219,-1.511 0.525,-2.282 -0.208,-0.234 -0.145,-0.641 -0.364,-0.849 -0.516,-0.484 -2.25,-0.369 -2.532,1.109 -0.014,0.099 -0.401,0.823 -0.604,1.412 -0.396,1.146 -0.634,3.63 1.094,5.692 0.824,0.984 1.25,0.312 1.042,-0.182 -0.677,-1.572 -0.428,-1.843 -0.453,-2.323 -0.099,-1.62 1.292,-2.577 1.292,-2.577 z"
     id="path306" />
  <path
     style="fill:#231f20;fill-opacity:1;fill-rule:nonzero;stroke:none"
     d="m 313.72285,116.91632 c 2.244,0.281 2.64,0.641 2.582,1.598 -0.036,0.636 0.152,1.24 0.147,1.631 -0.016,1.297 -0.573,3.469 -3.771,9.224 -0.729,1.308 -1.734,3.145 -2.083,3.932 -0.552,1.235 -2.235,-0.52 -2.022,-1.015 0.678,-1.573 1.027,-2.704 1.194,-3.308 0.114,-0.41 0.421,-1.109 0.656,-2.76 0.369,-2.5 0.213,-4.052 0.765,-6.098 0.251,-0.948 -0.161,-1.819 0.563,-2.62 0.723,-0.814 1.969,-0.584 1.969,-0.584"
     id="path307" />
  <path
     style="fill:none;stroke:#231f20;stroke-width:0.565977;stroke-linecap:butt;stroke-linejoin:miter;stroke-miterlimit:4;stroke-dasharray:none;stroke-opacity:1"
     d="m 313.72285,116.91632 c 2.244,0.281 2.64,0.641 2.582,1.598 -0.036,0.636 0.152,1.24 0.147,1.631 -0.016,1.297 -0.573,3.469 -3.771,9.224 -0.729,1.308 -1.734,3.145 -2.083,3.932 -0.552,1.235 -2.235,-0.52 -2.022,-1.015 0.678,-1.573 1.027,-2.704 1.194,-3.308 0.114,-0.41 0.421,-1.109 0.656,-2.76 0.369,-2.5 0.213,-4.052 0.765,-6.098 0.251,-0.948 -0.161,-1.819 0.563,-2.62 0.723,-0.814 1.969,-0.584 1.969,-0.584 z"
     id="path308" />
  <path
     style="fill:#63c99d;fill-opacity:1;fill-rule:nonzero;stroke:none"
     d="m 323.37885,92.672321 c -0.902,3 -0.76,3.744 -0.656,4.661 0.65,5.743999 -2.183,5.952999 -4.751,4.639999 -3.02,-1.536 -4.129,-2.030999 -1.771,-7.863999 0.662,-1.62 2.38,-8.172 2.38,-8.172 0.292,-2.432 1.88,-4.645 3.271,-5.084 1.464,-0.457 0.917,-0.167 2.349,-0.348 1.366,-0.172 3.37,0.692 3.735,1.875 0.349,1.134 -0.771,2.364 -2.151,4.358 -1.094,1.574 -2.406,5.934 -2.406,5.934"
     id="path309" />
  <path
     style="fill:none;stroke:#231f20;stroke-width:0.565977;stroke-linecap:butt;stroke-linejoin:miter;stroke-miterlimit:4;stroke-dasharray:none;stroke-opacity:1"
     d="m 323.37885,92.672321 c -0.902,3 -0.76,3.744 -0.656,4.661 0.65,5.743999 -2.183,5.952999 -4.751,4.639999 -3.02,-1.536 -4.129,-2.030999 -1.771,-7.863999 0.662,-1.62 2.38,-8.172 2.38,-8.172 0.292,-2.432 1.88,-4.645 3.271,-5.084 1.464,-0.457 0.917,-0.167 2.349,-0.348 1.366,-0.172 3.37,0.692 3.735,1.875 0.349,1.134 -0.771,2.364 -2.151,4.358 -1.094,1.574 -2.406,5.934 -2.406,5.934 z"
     id="path310" />
  <path
     style="fill:#ffffff;fill-opacity:1;fill-rule:nonzero;stroke:none"
     d="m 323.09185,74.462321 c 0.011,-0.249 -1.088,-0.598 -0.964,-1.104 0.125,-0.51 0.912,-0.525 2.157,-2.077 l 0.015,-0.016 c 0.871,-1.167 2.1,-1.823 3.339,-1.631 2.052,0.324 3.36,2.844 2.928,5.631 -0.439,2.792 -2.454,4.797 -4.506,4.479 -1.964,-0.307 -3.25,-2.635 -2.969,-5.282"
     id="path311" />
  <path
     style="fill:none;stroke:#231f20;stroke-width:0.565977;stroke-linecap:butt;stroke-linejoin:miter;stroke-miterlimit:4;stroke-dasharray:none;stroke-opacity:1"
     d="m 323.09185,74.462321 c 0.011,-0.249 -1.088,-0.598 -0.964,-1.104 0.125,-0.51 0.912,-0.525 2.157,-2.077 l 0.015,-0.016 c 0.871,-1.167 2.1,-1.823 3.339,-1.631 2.052,0.324 3.36,2.844 2.928,5.631 -0.439,2.792 -2.454,4.797 -4.506,4.479 -1.964,-0.307 -3.25,-2.635 -2.969,-5.282 z"
     id="path312" />
  <path
     style="fill:#231f20;fill-opacity:1;fill-rule:nonzero;stroke:none"
     d="m 313.97685,119.36932 c -4.005,-0.156 -2.036,-3.729 -2.016,-4.208 0.178,-5.005 0.314,-5.36 0.72,-9.167 0.578,-5.489 1.823,-9.171999 5.119,-9.764999 2.235,-0.407 3.704,0.333 4.396,1.448 0.765,1.244 1.016,4.410999 -1.307,6.139999 l -0.625,1.593 c -0.281,1.126 -0.432,1.678 -0.531,2.251 -0.166,0.989 -0.401,2.031 -0.844,3.937 -0.77,3.391 -2.693,6.719 -2.693,6.719 -0.307,1.203 -2.219,1.052 -2.219,1.052"
     id="path313" />
  <path
     style="fill:none;stroke:#231f20;stroke-width:0.565977;stroke-linecap:butt;stroke-linejoin:miter;stroke-miterlimit:4;stroke-dasharray:none;stroke-opacity:1"
     d="m 313.97685,119.36932 c -4.005,-0.156 -2.036,-3.729 -2.016,-4.208 0.178,-5.005 0.314,-5.36 0.72,-9.167 0.578,-5.489 1.823,-9.171999 5.119,-9.764999 2.235,-0.407 3.704,0.333 4.396,1.448 0.765,1.244 1.016,4.410999 -1.307,6.139999 l -0.625,1.593 c -0.281,1.126 -0.432,1.678 -0.531,2.251 -0.166,0.989 -0.401,2.031 -0.844,3.937 -0.77,3.391 -2.693,6.719 -2.693,6.719 -0.307,1.203 -2.219,1.052 -2.219,1.052 z"
     id="path314" />
  <path
     style="fill:#63c99d;fill-opacity:1;fill-rule:nonzero;stroke:none"
     d="m 322.51885,98.213321 c -0.495,-1.219 -1.818,-2.188 -4.088,-2.167 -1.474,0.022 -2.651,0.708 -3.636,1.912 -0.818,0.64 -1.302,1.047 -1.286,1.854 0,0.073 -0.005,0.146 -0.016,0.223999 -0.26,0.532 -0.505,1.084 -0.74,1.698 l 7.464,2.312 c 2.574,-1.317 2.859,-4.483999 2.302,-5.832999"
     id="path315" />
  <path
     style="fill:none;stroke:#231f20;stroke-width:0.565977;stroke-linecap:butt;stroke-linejoin:miter;stroke-miterlimit:4;stroke-dasharray:none;stroke-opacity:1"
     d="m 322.51885,98.213321 c -0.495,-1.219 -1.818,-2.188 -4.088,-2.167 -1.474,0.022 -2.651,0.708 -3.636,1.912 -0.818,0.64 -1.302,1.047 -1.286,1.854 0,0.073 -0.005,0.146 -0.016,0.223999 -0.26,0.532 -0.505,1.084 -0.74,1.698 l 7.464,2.312 c 2.574,-1.317 2.859,-4.483999 2.302,-5.832999 z"
     id="path316" />
  <path
     style="fill:#231f20;fill-opacity:1;fill-rule:nonzero;stroke:none"
     d="m 341.88385,73.306321 c -0.636,-0.098 -2.287,0.943 -3.865,1.214 -1.072,0.188 -3.348,1.724 -4.432,1.828 -0.984,0.094 -1.432,0.229 -1.515,1.381 -0.048,0.676 0.296,2.025 0.801,2.083 1.183,0.141 2.094,-0.12 3.031,-0.626 1.073,-0.577 3.844,-2.396 4.319,-2.776 1.192,-0.948 1.926,-0.953 2.265,-1.176 0.64,-0.417 0.631,-0.766 0.453,-1.24 -0.344,-0.89 -1.057,-0.688 -1.057,-0.688"
     id="path317" />
  <path
     style="fill:none;stroke:#231f20;stroke-width:0.565977;stroke-linecap:butt;stroke-linejoin:miter;stroke-miterlimit:4;stroke-dasharray:none;stroke-opacity:1"
     d="m 341.88385,73.306321 c -0.636,-0.098 -2.287,0.943 -3.865,1.214 -1.072,0.188 -3.348,1.724 -4.432,1.828 -0.984,0.094 -1.432,0.229 -1.515,1.381 -0.048,0.676 0.296,2.025 0.801,2.083 1.183,0.141 2.094,-0.12 3.031,-0.626 1.073,-0.577 3.844,-2.396 4.319,-2.776 1.192,-0.948 1.926,-0.953 2.265,-1.176 0.64,-0.417 0.631,-0.766 0.453,-1.24 -0.344,-0.89 -1.057,-0.688 -1.057,-0.688 z"
     id="path318" />
  <path
     style="fill:#231f20;fill-opacity:1;fill-rule:nonzero;stroke:none"
     d="m 333.61885,77.020321 c -0.658,-1.119 -2.194,0.218 -2.652,0.505 -0.458,0.292 -1.859,0.969 -3.015,1.36 -1.167,0.391 -2.448,1.369 -4.657,2.115 -1.156,0.385 -2.036,1.5 -1.395,3.156 0.635,1.64 1.791,1.901 3.119,1.218 1.333,-0.682 2.292,-1.89 3.589,-2.666 1.292,-0.787 2.683,-1.464 3.797,-1.943 1.271,-0.547 1.698,-1.287 1.692,-1.765 0,-1.199 -0.478,-1.98 -0.478,-1.98"
     id="path319" />
  <path
     style="fill:none;stroke:#231f20;stroke-width:0.565977;stroke-linecap:butt;stroke-linejoin:miter;stroke-miterlimit:4;stroke-dasharray:none;stroke-opacity:1"
     d="m 333.61885,77.020321 c -0.658,-1.119 -2.194,0.218 -2.652,0.505 -0.458,0.292 -1.859,0.969 -3.015,1.36 -1.167,0.391 -2.448,1.369 -4.657,2.115 -1.156,0.385 -2.036,1.5 -1.395,3.156 0.635,1.64 1.791,1.901 3.119,1.218 1.333,-0.682 2.292,-1.89 3.589,-2.666 1.292,-0.787 2.683,-1.464 3.797,-1.943 1.271,-0.547 1.698,-1.287 1.692,-1.765 0,-1.199 -0.478,-1.98 -0.478,-1.98 z"
     id="path320" />
  <path
     style="fill:#231f20;fill-opacity:1;fill-rule:nonzero;stroke:none"
     d="m 347.35685,71.348321 c -0.416,0.605 -3.052,2.5 -3.676,2.901 -0.553,0.371 -1.272,1.271 -2.261,0.677 -0.401,-0.245 -0.812,-0.88 -0.911,-1.182 -0.078,-0.255 0.124,-0.51 0.479,-0.692 0.588,-0.308 0.875,-0.172 2.036,-0.708 0,0 0.292,-0.079 0.833,-0.199 1.59,-0.364 0.928,-0.057 3.115,-1.083 0.147,-0.078 0.339,0.026 0.38,0.135 0.063,0.167 0.005,0.151 0.005,0.151"
     id="path321" />
  <path
     style="fill:none;stroke:#231f20;stroke-width:0.565977;stroke-linecap:round;stroke-linejoin:round;stroke-miterlimit:4;stroke-dasharray:none;stroke-opacity:1"
     d="m 347.35685,71.348321 c -0.416,0.605 -3.052,2.5 -3.676,2.901 -0.553,0.371 -1.272,1.271 -2.261,0.677 -0.401,-0.245 -0.812,-0.88 -0.911,-1.182 -0.078,-0.255 0.124,-0.51 0.479,-0.692 0.588,-0.308 0.875,-0.172 2.036,-0.708 0,0 0.292,-0.079 0.833,-0.199 1.59,-0.364 0.928,-0.057 3.115,-1.083 0.147,-0.078 0.339,0.026 0.38,0.135 0.063,0.167 0.005,0.151 0.005,0.151 z"
     id="path322" />
  <path
     style="fill:#231f20;fill-opacity:1;fill-rule:nonzero;stroke:none"
     d="m 226.23385,51.177321 c -3.262,1.536 -3.672,-0.094 -6.272,-3.24 -2.834,-3.442 -5.422,-7.333 -6.38,-10.494 -1.058,-3.532 -1.578,-3.558 -0.224,-4.918 1.36,-1.353 1.922,-0.817 3.198,-0.64 1.474,0.214 3.943,7.14 7.099,10.698 1.479,1.666 6.099,4.698 5.26,5.89 -0.833,1.188 -2.681,2.704 -2.681,2.704"
     id="path323" />
  <path
     style="fill:none;stroke:#231f20;stroke-width:0.565977;stroke-linecap:butt;stroke-linejoin:miter;stroke-miterlimit:4;stroke-dasharray:none;stroke-opacity:1"
     d="m 226.23385,51.177321 c -3.262,1.536 -3.672,-0.094 -6.272,-3.24 -2.834,-3.442 -5.422,-7.333 -6.38,-10.494 -1.058,-3.532 -1.578,-3.558 -0.224,-4.918 1.36,-1.353 1.922,-0.817 3.198,-0.64 1.474,0.214 3.943,7.14 7.099,10.698 1.479,1.666 6.099,4.698 5.26,5.89 -0.833,1.188 -2.681,2.704 -2.681,2.704 z"
     id="path324" />
  <path
     style="fill:#231f20;fill-opacity:1;fill-rule:nonzero;stroke:none"
     d="m 215.34285,33.604321 c -1.776,1.411 -2.271,1.844 -3.5,-0.339 -0.313,-0.552 -1.068,-2.156 -1.344,-2.432 -0.923,-0.917 -1.907,-2.057 -3.797,-8.365 -0.292,-0.979 -1.172,-2.749 -1.687,-4.052 -0.5,-1.265 1.932,-1.239 2.135,-0.744 0.645,1.583 1.406,2.463 1.718,3 0.219,0.375 0.5,1.129 1.656,2.323 2.986,3.068 2.73,4.849 3.298,5.546 1.636,2 3.442,3.375 3.114,3.954 -0.536,0.942 -1.593,1.109 -1.593,1.109"
     id="path325" />
  <path
     style="fill:none;stroke:#231f20;stroke-width:0.565977;stroke-linecap:butt;stroke-linejoin:miter;stroke-miterlimit:4;stroke-dasharray:none;stroke-opacity:1"
     d="m 215.34285,33.604321 c -1.776,1.411 -2.271,1.844 -3.5,-0.339 -0.313,-0.552 -1.068,-2.156 -1.344,-2.432 -0.923,-0.917 -1.907,-2.057 -3.797,-8.365 -0.292,-0.979 -1.172,-2.749 -1.687,-4.052 -0.5,-1.265 1.932,-1.239 2.135,-0.744 0.645,1.583 1.406,2.463 1.718,3 0.219,0.375 0.5,1.129 1.656,2.323 2.986,3.068 2.73,4.849 3.298,5.546 1.636,2 3.442,3.375 3.114,3.954 -0.536,0.942 -1.593,1.109 -1.593,1.109 z"
     id="path326" />
  <path
     style="fill:#231f20;fill-opacity:1;fill-rule:nonzero;stroke:none"
     d="m 231.45185,47.739321 c 2.73,-2.354 1.4,-3.386 -0.428,-7.036 -1.994,-3.99 -4.505,-7.932 -7.009,-10.083 -2.797,-2.401 -2.609,-2.885 -4.407,-2.199 -1.786,0.694 -1.526,1.427 -1.874,2.667 -0.407,1.437 4.926,6.495 6.905,10.823 0.923,2.026 1.828,7.48 3.256,7.198 1.427,-0.281 3.557,-1.37 3.557,-1.37"
     id="path327" />
  <path
     style="fill:none;stroke:#231f20;stroke-width:0.565977;stroke-linecap:butt;stroke-linejoin:miter;stroke-miterlimit:4;stroke-dasharray:none;stroke-opacity:1"
     d="m 231.45185,47.739321 c 2.73,-2.354 1.4,-3.386 -0.428,-7.036 -1.994,-3.99 -4.505,-7.932 -7.009,-10.083 -2.797,-2.401 -2.609,-2.885 -4.407,-2.199 -1.786,0.694 -1.526,1.427 -1.874,2.667 -0.407,1.437 4.926,6.495 6.905,10.823 0.923,2.026 1.828,7.48 3.256,7.198 1.427,-0.281 3.557,-1.37 3.557,-1.37 z"
     id="path328" />
  <path
     style="fill:#231f20;fill-opacity:1;fill-rule:nonzero;stroke:none"
     d="m 219.81585,30.672321 c 2.006,-1.063 2.604,-1.344 1.088,-3.344 -0.38,-0.505 -1.552,-1.844 -1.686,-2.208 -0.475,-1.209 -1.126,-2.568 -6.151,-6.824 -0.781,-0.656 -2.052,-2.172 -3.043,-3.167 -0.952,-0.962 -1.905,1.282 -1.536,1.658 1.194,1.233 1.698,2.285 2.068,2.785 0.25,0.344 0.834,0.907 1.463,2.443 1.62,3.964 3.355,4.438 3.772,5.24 1.176,2.292 1.713,4.5 2.375,4.432 1.077,-0.11 1.65,-1.015 1.65,-1.015"
     id="path329" />
  <path
     style="fill:none;stroke:#231f20;stroke-width:0.565977;stroke-linecap:butt;stroke-linejoin:miter;stroke-miterlimit:4;stroke-dasharray:none;stroke-opacity:1"
     d="m 219.81585,30.672321 c 2.006,-1.063 2.604,-1.344 1.088,-3.344 -0.38,-0.505 -1.552,-1.844 -1.686,-2.208 -0.475,-1.209 -1.126,-2.568 -6.151,-6.824 -0.781,-0.656 -2.052,-2.172 -3.043,-3.167 -0.952,-0.962 -1.905,1.282 -1.536,1.658 1.194,1.233 1.698,2.285 2.068,2.785 0.25,0.344 0.834,0.907 1.463,2.443 1.62,3.964 3.355,4.438 3.772,5.24 1.176,2.292 1.713,4.5 2.375,4.432 1.077,-0.11 1.65,-1.015 1.65,-1.015 z"
     id="path330" />
  <path
     style="fill:#231f20;fill-opacity:1;fill-rule:nonzero;stroke:none"
     d="m 208.48285,10.307321 c 0.568,0.349 0.271,2.13 1.308,3.802 0.213,0.339 0.219,0.719 0.291,1.083 0.281,1.48 -0.271,2.98 -3.058,0.349 -0.385,-0.364 -1.176,-2.306 -1.786,-2.802 -1.452,-1.167 -1.671,-4.4840002 -1.176,-4.6350002 1.072,-0.344 4.421,2.2030002 4.421,2.2030002"
     id="path331" />
  <path
     style="fill:none;stroke:#231f20;stroke-width:0.644548;stroke-linecap:round;stroke-linejoin:round;stroke-miterlimit:4;stroke-dasharray:none;stroke-opacity:1"
     d="m 208.48285,10.307321 c 0.568,0.349 0.271,2.13 1.308,3.802 0.213,0.339 0.219,0.719 0.291,1.083 0.281,1.48 -0.271,2.98 -3.058,0.349 -0.385,-0.364 -1.176,-2.306 -1.786,-2.802 -1.452,-1.167 -1.671,-4.4840002 -1.176,-4.6350002 1.072,-0.344 4.421,2.2030002 4.421,2.2030002 z"
     id="path332" />
  <path
     style="fill:#231f20;fill-opacity:1;fill-rule:nonzero;stroke:none"
     d="m 201.15485,14.729321 c 0.083,0.662 1.823,1.135 2.912,2.776 0.224,0.339 0.557,0.5 0.859,0.719 1.234,0.875 2.828,0.984 1.589,-2.636 -0.172,-0.5 -1.605,-2.031 -1.797,-2.792 -0.454,-1.807 -3.375,-3.3850002 -3.724,-3.0000002 -0.756,0.8240002 0.161,4.9330002 0.161,4.9330002"
     id="path333" />
  <path
     style="fill:none;stroke:#231f20;stroke-width:0.644548;stroke-linecap:round;stroke-linejoin:round;stroke-miterlimit:4;stroke-dasharray:none;stroke-opacity:1"
     d="m 201.15485,14.729321 c 0.083,0.662 1.823,1.135 2.912,2.776 0.224,0.339 0.557,0.5 0.859,0.719 1.234,0.875 2.828,0.984 1.589,-2.636 -0.172,-0.5 -1.605,-2.031 -1.797,-2.792 -0.454,-1.807 -3.375,-3.3850002 -3.724,-3.0000002 -0.756,0.8240002 0.161,4.9330002 0.161,4.9330002 z"
     id="path334" />
  <path
     style="fill:#231f20;fill-opacity:1;fill-rule:nonzero;stroke:#231f20;stroke-width:0.565977;stroke-linecap:round;stroke-linejoin:round;stroke-miterlimit:4;stroke-dasharray:none;stroke-opacity:1"
     d="m 234.38385,63.568321 c 0,0 -0.974,0.894 -2.098,1.186 -1.126,0.292 -2.47,0.11 -2.47,0.11 l -0.88,-3.178 4.615,-1.281 z"
     id="path335" />
  <path
     style="fill:#63c99d;fill-opacity:1;fill-rule:nonzero;stroke:none"
     d="m 225.37385,40.099321 c -0.474,0.13 -0.943,0.702 -0.943,0.702 0,0 0.864,5.782 -1.355,7.964 l -0.342,0.11 c -1.1,-0.588 0.708,1.005 0.89,1.724 0.812,3.15 0.843,8.254 0.52,9.551 -0.442,1.776 -2.786,2.954 -1.26,4.49 0,0 1.083,1.614 3.672,0.521 0.938,-0.396 3.26,-0.297 3.26,-0.297 -0.016,-0.036 -0.036,-0.074 -0.046,-0.11 -0.334,-1.213 0.505,-2.182 1.786,-2.562 l -0.073,0.021 c 1.297,-0.339 2.532,0.125 2.849,1.271 0.011,0.036 0.016,0.078 0.016,0.12 0,0 1.943,-1.282 2.947,-1.427 2.781,-0.401 2.751,-2.589 2.751,-2.589 0.516,-2.104 -1.974,-1.656 -3.271,-2.948 -0.943,-0.943 -3.552,-5.333 -4.484,-8.448 -0.209,-0.713 0.515,-3.011 -0.125,-1.937 l -0.35,0.078 c -3.025,-0.718 -5.265,-6.12 -5.265,-6.12 0,0 -0.699,-0.25 -1.177,-0.114"
     id="path336" />
  <path
     style="fill:none;stroke:#231f20;stroke-width:0.565977;stroke-linecap:round;stroke-linejoin:round;stroke-miterlimit:4;stroke-dasharray:none;stroke-opacity:1"
     d="m 225.37385,40.099321 c -0.474,0.13 -0.943,0.702 -0.943,0.702 0,0 0.864,5.782 -1.355,7.964 l -0.342,0.11 c -1.1,-0.588 0.708,1.005 0.89,1.724 0.812,3.15 0.843,8.254 0.52,9.551 -0.442,1.776 -2.786,2.954 -1.26,4.49 0,0 1.083,1.614 3.672,0.521 0.938,-0.396 3.26,-0.297 3.26,-0.297 -0.016,-0.036 -0.036,-0.074 -0.046,-0.11 -0.334,-1.213 0.505,-2.182 1.786,-2.562 l -0.073,0.021 c 1.297,-0.339 2.532,0.125 2.849,1.271 0.011,0.036 0.016,0.078 0.016,0.12 0,0 1.943,-1.282 2.947,-1.427 2.781,-0.401 2.751,-2.589 2.751,-2.589 0.516,-2.104 -1.974,-1.656 -3.271,-2.948 -0.943,-0.943 -3.552,-5.333 -4.484,-8.448 -0.209,-0.713 0.515,-3.011 -0.125,-1.937 l -0.35,0.078 c -3.025,-0.718 -5.265,-6.12 -5.265,-6.12 0,0 -0.699,-0.25 -1.177,-0.114 z"
     id="path337" />
  <path
     style="fill:#63c99d;fill-opacity:1;fill-rule:nonzero;stroke:none"
     d="m 232.99885,47.104321 c 0.025,-0.349 -0.073,-1.713 -0.161,-2.167 -0.552,-2.922 -2.751,-6.202 -3.188,-7.401 -0.443,-1.197 -5.968,2.391 -5.968,2.391 l 0.613,1.854 c -0.613,-0.125 -0.837,0.526 -0.837,0.526 l -1.439,-1.416 c 0,0 -5.583,3.249 -4.921,4.014 0.917,1.054 3.469,4.918 5.473,6.324 1.1,0.771 2.111,0.922 2.111,0.922 0,0 2.5,-2.87 3.697,-3.636 1.208,-0.766 4.62,-1.411 4.62,-1.411"
     id="path338" />
  <path
     style="fill:none;stroke:#231f20;stroke-width:0.565977;stroke-linecap:round;stroke-linejoin:round;stroke-miterlimit:4;stroke-dasharray:none;stroke-opacity:1"
     d="m 232.99885,47.104321 c 0.025,-0.349 -0.073,-1.713 -0.161,-2.167 -0.552,-2.922 -2.751,-6.202 -3.188,-7.401 -0.443,-1.197 -5.968,2.391 -5.968,2.391 l 0.613,1.854 c -0.613,-0.125 -0.837,0.526 -0.837,0.526 l -1.439,-1.416 c 0,0 -5.583,3.249 -4.921,4.014 0.917,1.054 3.469,4.918 5.473,6.324 1.1,0.771 2.111,0.922 2.111,0.922 0,0 2.5,-2.87 3.697,-3.636 1.208,-0.766 4.62,-1.411 4.62,-1.411 z"
     id="path339" />
  <path
     style="fill:#231f20;fill-opacity:1;fill-rule:nonzero;stroke:none"
     d="m 226.21785,75.077321 c -1.266,0.281 -1.344,-1.749 -1.448,-2.281 -0.104,-0.536 -0.568,-2.02 -1.079,-3.13 -0.509,-1.114 -0.676,-2.718 -1.645,-4.833 -0.511,-1.115 -0.298,-2.521 1.344,-3.188 1.625,-0.661 2.614,0.005 3.025,1.443 0.412,1.437 0.193,2.964 0.511,4.442 0.312,1.475 0.77,2.954 1.193,4.095 0.468,1.301 0.219,2.119 -0.131,2.443 -0.874,0.817 -1.77,1.009 -1.77,1.009"
     id="path340" />
  <path
     style="fill:none;stroke:#231f20;stroke-width:0.565977;stroke-linecap:butt;stroke-linejoin:miter;stroke-miterlimit:4;stroke-dasharray:none;stroke-opacity:1"
     d="m 226.21785,75.077321 c -1.266,0.281 -1.344,-1.749 -1.448,-2.281 -0.104,-0.536 -0.568,-2.02 -1.079,-3.13 -0.509,-1.114 -0.676,-2.718 -1.645,-4.833 -0.511,-1.115 -0.298,-2.521 1.344,-3.188 1.625,-0.661 2.614,0.005 3.025,1.443 0.412,1.437 0.193,2.964 0.511,4.442 0.312,1.475 0.77,2.954 1.193,4.095 0.468,1.301 0.219,2.119 -0.131,2.443 -0.874,0.817 -1.77,1.009 -1.77,1.009 z"
     id="path341" />
  <path
     style="fill:#231f20;fill-opacity:1;fill-rule:nonzero;stroke:none"
     d="m 236.32185,71.989321 c -0.568,-0.308 -2.47,0.109 -4.052,-0.177 -1.068,-0.192 -3.735,0.464 -4.782,0.193 -0.958,-0.251 -1.426,-0.267 -1.901,0.781 -0.276,0.619 -0.416,2 0.041,2.234 1.058,0.537 2.006,0.6 3.063,0.448 1.209,-0.172 4.428,-0.938 5.011,-1.13 1.437,-0.49 2.136,-0.245 2.532,-0.333 0.738,-0.177 0.853,-0.5 0.842,-1.005 -0.014,-0.964 -0.754,-1.011 -0.754,-1.011"
     id="path342" />
  <path
     style="fill:none;stroke:#231f20;stroke-width:0.565977;stroke-linecap:butt;stroke-linejoin:miter;stroke-miterlimit:4;stroke-dasharray:none;stroke-opacity:1"
     d="m 236.32185,71.989321 c -0.568,-0.308 -2.47,0.109 -4.052,-0.177 -1.068,-0.192 -3.735,0.464 -4.782,0.193 -0.958,-0.251 -1.426,-0.267 -1.901,0.781 -0.276,0.619 -0.416,2 0.041,2.234 1.058,0.537 2.006,0.6 3.063,0.448 1.209,-0.172 4.428,-0.938 5.011,-1.13 1.437,-0.49 2.136,-0.245 2.532,-0.333 0.738,-0.177 0.853,-0.5 0.842,-1.005 -0.014,-0.964 -0.754,-1.011 -0.754,-1.011 z"
     id="path343" />
  <path
     style="fill:#231f20;fill-opacity:1;fill-rule:nonzero;stroke:none"
     d="m 233.05085,49.281321 c -1.141,0.604 0.12,2.203 0.391,2.672 0.27,0.468 0.885,1.9 1.218,3.072 0.344,1.183 1.266,2.505 1.907,4.735 0.337,1.177 1.416,2.109 3.099,1.541 1.661,-0.557 1.978,-1.703 1.353,-3.063 -0.624,-1.358 -1.785,-2.374 -2.509,-3.702 -0.724,-1.328 -1.344,-2.74 -1.771,-3.88 -0.496,-1.292 -1.215,-1.751 -1.688,-1.771 -1.193,-0.046 -2,0.396 -2,0.396"
     id="path344" />
  <path
     style="fill:none;stroke:#231f20;stroke-width:0.565977;stroke-linecap:butt;stroke-linejoin:miter;stroke-miterlimit:4;stroke-dasharray:none;stroke-opacity:1"
     d="m 233.05085,49.281321 c -1.141,0.604 0.12,2.203 0.391,2.672 0.27,0.468 0.885,1.9 1.218,3.072 0.344,1.183 1.266,2.505 1.907,4.735 0.337,1.177 1.416,2.109 3.099,1.541 1.661,-0.557 1.978,-1.703 1.353,-3.063 -0.624,-1.358 -1.785,-2.374 -2.509,-3.702 -0.724,-1.328 -1.344,-2.74 -1.771,-3.88 -0.496,-1.292 -1.215,-1.751 -1.688,-1.771 -1.193,-0.046 -2,0.396 -2,0.396 z"
     id="path345" />
  <path
     style="fill:#231f20;fill-opacity:1;fill-rule:nonzero;stroke:none"
     d="m 224.61885,48.744321 c 0.547,-0.348 2.473,-0.072 4.036,-0.468 1.052,-0.271 3.755,0.192 4.781,-0.156 0.943,-0.313 1.402,-0.371 1.954,0.64 0.317,0.604 0.557,1.969 0.12,2.229 -1.016,0.615 -1.959,0.746 -3.027,0.672 -1.208,-0.089 -4.479,-0.614 -5.073,-0.765 -1.474,-0.381 -2.151,-0.084 -2.552,-0.147 -0.755,-0.12 -0.891,-0.442 -0.916,-0.948 -0.052,-0.953 0.677,-1.057 0.677,-1.057"
     id="path346" />
  <path
     style="fill:none;stroke:#231f20;stroke-width:0.565977;stroke-linecap:butt;stroke-linejoin:miter;stroke-miterlimit:4;stroke-dasharray:none;stroke-opacity:1"
     d="m 224.61885,48.744321 c 0.547,-0.348 2.473,-0.072 4.036,-0.468 1.052,-0.271 3.755,0.192 4.781,-0.156 0.943,-0.313 1.402,-0.371 1.954,0.64 0.317,0.604 0.557,1.969 0.12,2.229 -1.016,0.615 -1.959,0.746 -3.027,0.672 -1.208,-0.089 -4.479,-0.614 -5.073,-0.765 -1.474,-0.381 -2.151,-0.084 -2.552,-0.147 -0.755,-0.12 -0.891,-0.442 -0.916,-0.948 -0.052,-0.953 0.677,-1.057 0.677,-1.057 z"
     id="path347" />
  <path
     style="fill:#ffffff;fill-opacity:1;fill-rule:nonzero;stroke:none"
     d="m 235.81585,70.057321 c 0.23,-2.813 -1.254,-5.235 -3.328,-5.401 -2.068,-0.172 -3.937,1.969 -4.166,4.786 -0.235,2.812 1.254,5.235 3.328,5.402 2.068,0.176 3.932,-1.97 4.166,-4.787"
     id="path348" />
  <path
     style="fill:none;stroke:#231f20;stroke-width:0.565977;stroke-linecap:butt;stroke-linejoin:miter;stroke-miterlimit:4;stroke-dasharray:none;stroke-opacity:1"
     d="m 235.81585,70.057321 c 0.23,-2.813 -1.254,-5.235 -3.328,-5.401 -2.068,-0.172 -3.937,1.969 -4.166,4.786 -0.235,2.812 1.254,5.235 3.328,5.402 2.068,0.176 3.932,-1.97 4.166,-4.787 z"
     id="path349" />
  <path
     style="fill:#231f20;fill-opacity:1;fill-rule:nonzero;stroke:none"
     d="m 224.41985,56.177321 c 0.371,-0.636 0.98,-3.829 1.084,-4.557 0.099,-0.657 0.62,-1.688 -0.338,-2.339 -0.386,-0.261 -1.136,-0.37 -1.454,-0.328 -0.26,0.031 -0.406,0.323 -0.426,0.724 -0.038,0.671 0.208,0.87 0.213,2.151 0,0 0.047,0.296 0.172,0.833 0.344,1.594 0.339,0.859 0.317,3.281 0,0.167 0.172,0.296 0.292,0.292 0.178,-0.01 0.14,-0.057 0.14,-0.057"
     id="path350" />
  <path
     style="fill:none;stroke:#231f20;stroke-width:0.565977;stroke-linecap:round;stroke-linejoin:round;stroke-miterlimit:4;stroke-dasharray:none;stroke-opacity:1"
     d="m 224.41985,56.177321 c 0.371,-0.636 0.98,-3.829 1.084,-4.557 0.099,-0.657 0.62,-1.688 -0.338,-2.339 -0.386,-0.261 -1.136,-0.37 -1.454,-0.328 -0.26,0.031 -0.406,0.323 -0.426,0.724 -0.038,0.671 0.208,0.87 0.213,2.151 0,0 0.047,0.296 0.172,0.833 0.344,1.594 0.339,0.859 0.317,3.281 0,0.167 0.172,0.296 0.292,0.292 0.178,-0.01 0.14,-0.057 0.14,-0.057 z"
     id="path351" />
  <path
     style="fill:#231f20;fill-opacity:1;fill-rule:nonzero;stroke:none"
     d="m 237.09185,66.177321 c 0.298,0.667 0.558,3.911 0.584,4.64 0.026,0.672 0.432,1.755 -0.589,2.292 -0.411,0.219 -1.167,0.244 -1.484,0.167 -0.251,-0.058 -0.369,-0.366 -0.339,-0.762 0.036,-0.666 0.298,-0.837 0.443,-2.109 0,0 0.079,-0.291 0.26,-0.817 0.511,-1.552 0.428,-0.823 0.672,-3.224 0.016,-0.172 0.204,-0.282 0.313,-0.266 0.176,0.042 0.14,0.079 0.14,0.079"
     id="path352" />
  <path
     style="fill:none;stroke:#231f20;stroke-width:0.565977;stroke-linecap:round;stroke-linejoin:round;stroke-miterlimit:4;stroke-dasharray:none;stroke-opacity:1"
     d="m 237.09185,66.177321 c 0.298,0.667 0.558,3.911 0.584,4.64 0.026,0.672 0.432,1.755 -0.589,2.292 -0.411,0.219 -1.167,0.244 -1.484,0.167 -0.251,-0.058 -0.369,-0.366 -0.339,-0.762 0.036,-0.666 0.298,-0.837 0.443,-2.109 0,0 0.079,-0.291 0.26,-0.817 0.511,-1.552 0.428,-0.823 0.672,-3.224 0.016,-0.172 0.204,-0.282 0.313,-0.266 0.176,0.042 0.14,0.079 0.14,0.079 z"
     id="path353" />
  <path
     style="fill:#231f20;fill-opacity:1;fill-rule:nonzero;stroke:none"
     d="m 303.46685,75.801321 c 0.724,0.136 3.939,-0.344 4.657,-0.484 0.662,-0.131 1.807,0.021 2.099,-1.093 0.115,-0.454 -0.032,-1.194 -0.177,-1.486 -0.11,-0.228 -0.438,-0.281 -0.818,-0.156 -0.641,0.183 -0.75,0.48 -1.958,0.912 0,0 -0.266,0.14 -0.73,0.432 -1.396,0.85 -0.708,0.61 -2.989,1.391 -0.167,0.052 -0.229,0.26 -0.188,0.364 0.079,0.167 0.104,0.12 0.104,0.12"
     id="path354" />
  <path
     style="fill:none;stroke:#231f20;stroke-width:0.565977;stroke-linecap:round;stroke-linejoin:round;stroke-miterlimit:4;stroke-dasharray:none;stroke-opacity:1"
     d="m 303.46685,75.801321 c 0.724,0.136 3.939,-0.344 4.657,-0.484 0.662,-0.131 1.807,0.021 2.099,-1.093 0.115,-0.454 -0.032,-1.194 -0.177,-1.486 -0.11,-0.228 -0.438,-0.281 -0.818,-0.156 -0.641,0.183 -0.75,0.48 -1.958,0.912 0,0 -0.266,0.14 -0.73,0.432 -1.396,0.85 -0.708,0.61 -2.989,1.391 -0.167,0.052 -0.229,0.26 -0.188,0.364 0.079,0.167 0.104,0.12 0.104,0.12 z"
     id="path355" />
  <path
     style="fill:#63c99d;fill-opacity:1;fill-rule:nonzero;stroke:none"
     d="m 176.31085,50.197321 c 0.818,-3.02 0.667,-3.76 0.538,-4.677 -0.782,-5.729 2.041,-6.005 4.634,-4.749 3.063,1.458 4.188,1.926 1.964,7.812 -0.625,1.641 -2.177,8.229 -2.177,8.229 -0.24,2.437 -1.766,4.688 -3.145,5.161 -1.454,0.495 -0.918,0.193 -2.344,0.407 -1.366,0.208 -3.391,-0.61 -3.782,-1.782 -0.374,-1.13 0.719,-2.39 2.047,-4.412 1.052,-1.598 2.265,-5.989 2.265,-5.989"
     id="path356" />
  <path
     style="fill:none;stroke:#231f20;stroke-width:0.565977;stroke-linecap:butt;stroke-linejoin:miter;stroke-miterlimit:4;stroke-dasharray:none;stroke-opacity:1"
     d="m 176.31085,50.197321 c 0.818,-3.02 0.667,-3.76 0.538,-4.677 -0.782,-5.729 2.041,-6.005 4.634,-4.749 3.063,1.458 4.188,1.926 1.964,7.812 -0.625,1.641 -2.177,8.229 -2.177,8.229 -0.24,2.437 -1.766,4.688 -3.145,5.161 -1.454,0.495 -0.918,0.193 -2.344,0.407 -1.366,0.208 -3.391,-0.61 -3.782,-1.782 -0.374,-1.13 0.719,-2.39 2.047,-4.412 1.052,-1.598 2.265,-5.989 2.265,-5.989 z"
     id="path357" />
  <path
     style="fill:#ffffff;fill-opacity:1;fill-rule:nonzero;stroke:none"
     d="m 175.97785,69.484321 c -0.041,0.245 1.011,0.724 0.828,1.213 -0.181,0.489 -0.968,0.412 -2.385,1.808 l -0.015,0.02 c -1,1.047 -2.292,1.557 -3.501,1.219 -2.004,-0.552 -3.01,-3.208 -2.26,-5.927 0.761,-2.724 3.005,-4.473 5,-3.921 1.917,0.53 2.922,2.994 2.333,5.588"
     id="path358" />
  <path
     style="fill:none;stroke:#231f20;stroke-width:0.565977;stroke-linecap:butt;stroke-linejoin:miter;stroke-miterlimit:4;stroke-dasharray:none;stroke-opacity:1"
     d="m 175.97785,69.484321 c -0.041,0.245 1.011,0.724 0.828,1.213 -0.181,0.489 -0.968,0.412 -2.385,1.808 l -0.015,0.02 c -1,1.047 -2.292,1.557 -3.501,1.219 -2.004,-0.552 -3.01,-3.208 -2.26,-5.927 0.761,-2.724 3.005,-4.473 5,-3.921 1.917,0.53 2.922,2.994 2.333,5.588 z"
     id="path359" />
  <path
     style="fill:#ffffff;fill-opacity:1;fill-rule:nonzero;stroke:none"
     d="m 180.55085,24.911321 c -2.234,0.36 -2.718,0.125 -2.932,-0.807 -0.146,-0.625 -0.494,-1.151 -0.594,-1.527 -0.354,-1.244 -0.432,-3.5 1.01,-9.916 0.334,-1.453 0.776,-3.5000002 0.896,-4.3540002 0.188,-1.344 2.292,-0.126 2.224,0.406 -0.208,1.6980002 -0.219,2.8860002 -0.208,3.5110002 0.005,0.421 -0.089,1.177 0.145,2.833 0.35,2.5 0.932,3.943 0.984,6.063 0.027,0.984 0.667,1.703 0.199,2.676 -0.464,0.985 -1.724,1.115 -1.724,1.115"
     id="path360" />
  <path
     style="fill:none;stroke:#231f20;stroke-width:0.565977;stroke-linecap:butt;stroke-linejoin:miter;stroke-miterlimit:4;stroke-dasharray:none;stroke-opacity:1"
     d="m 180.55085,24.911321 c -2.234,0.36 -2.718,0.125 -2.932,-0.807 -0.146,-0.625 -0.494,-1.151 -0.594,-1.527 -0.354,-1.244 -0.432,-3.5 1.01,-9.916 0.334,-1.453 0.776,-3.5000002 0.896,-4.3540002 0.188,-1.344 2.292,-0.126 2.224,0.406 -0.208,1.6980002 -0.219,2.8860002 -0.208,3.5110002 0.005,0.421 -0.089,1.177 0.145,2.833 0.35,2.5 0.932,3.943 0.984,6.063 0.027,0.984 0.667,1.703 0.199,2.676 -0.464,0.985 -1.724,1.115 -1.724,1.115 z"
     id="path361" />
  <path
     style="fill:#ffffff;fill-opacity:1;fill-rule:nonzero;stroke:#231f20;stroke-width:0.565977;stroke-linecap:round;stroke-linejoin:round;stroke-miterlimit:4;stroke-dasharray:none;stroke-opacity:1"
     d="m 181.92585,22.817321 c 1.146,0.839 0.718,2.954 0.808,3.276 1.233,4.86 1.202,5.24 1.89,8.995 0.99,5.443 0.834,9.317 -2.162,10.823 -2.031,1.016 -3.64,0.718 -4.624,-0.156 -1.089,-0.974 -2.213,-3.948 -0.48,-6.255 l 0.152,-1.709 c -0.043,-1.162 -0.057,-1.739 -0.12,-2.307 -0.125,-0.995 -0.188,-2.068 -0.308,-4.021 -0.208,-3.468 0.699,-7.203 0.699,-7.203 -0.011,-0.307 0.098,-0.563 0.265,-0.776"
     id="path362" />
  <path
     style="fill:#231f20;fill-opacity:1;fill-rule:nonzero;stroke:none"
     d="m 178.79485,5.9213208 c -1.036,0.87 -0.713,1.808 0.177,2.339 0.266,0.156 0.328,0.573 0.599,0.703 0.636,0.313 2.261,-0.312 2.089,-1.807 -0.01,-0.104 0.14,-0.907 0.162,-1.531 0.041,-1.209 -0.47,-3.657 -2.73,-5.11399995 -1.077,-0.694 -1.286,0.066 -0.937,0.484 1.109,1.30099995 0.953,1.62999995 1.115,2.08199995 0.573,1.522 -0.475,2.844 -0.475,2.844"
     id="path363" />
  <path
     style="fill:none;stroke:#231f20;stroke-width:0.332927;stroke-linecap:butt;stroke-linejoin:miter;stroke-miterlimit:4;stroke-dasharray:none;stroke-opacity:1"
     d="m 178.79485,5.9213208 c -1.036,0.87 -0.713,1.808 0.177,2.339 0.266,0.156 0.328,0.573 0.599,0.703 0.636,0.313 2.261,-0.312 2.089,-1.807 -0.01,-0.104 0.14,-0.907 0.162,-1.531 0.041,-1.209 -0.47,-3.657 -2.73,-5.11399995 -1.077,-0.694 -1.286,0.066 -0.937,0.484 1.109,1.30099995 0.953,1.62999995 1.115,2.08199995 0.573,1.522 -0.475,2.844 -0.475,2.844 z"
     id="path364" />
  <path
     style="fill:#231f20;fill-opacity:1;fill-rule:nonzero;stroke:none"
     d="m 182.41485,24.937321 c -2.26,0.12 -2.719,-0.166 -2.828,-1.114 -0.077,-0.642 -0.364,-1.194 -0.427,-1.579 -0.218,-1.281 -0.046,-3.525 2.078,-9.755 0.49,-1.406 1.152,-3.3960002 1.354,-4.2290002 0.334,-1.312 2.298,0.12 2.172,0.641 -0.396,1.6670002 -0.53,2.8430002 -0.593,3.4680002 -0.037,0.422 -0.209,1.162 -0.156,2.828 0.077,2.527 0.504,4.027 0.323,6.136 -0.074,0.984 0.484,1.766 -0.09,2.682 -0.562,0.933 -1.833,0.922 -1.833,0.922"
     id="path365" />
  <path
     style="fill:none;stroke:#231f20;stroke-width:0.565977;stroke-linecap:butt;stroke-linejoin:miter;stroke-miterlimit:4;stroke-dasharray:none;stroke-opacity:1"
     d="m 182.41485,24.937321 c -2.26,0.12 -2.719,-0.166 -2.828,-1.114 -0.077,-0.642 -0.364,-1.194 -0.427,-1.579 -0.218,-1.281 -0.046,-3.525 2.078,-9.755 0.49,-1.406 1.152,-3.3960002 1.354,-4.2290002 0.334,-1.312 2.298,0.12 2.172,0.641 -0.396,1.6670002 -0.53,2.8430002 -0.593,3.4680002 -0.037,0.422 -0.209,1.162 -0.156,2.828 0.077,2.527 0.504,4.027 0.323,6.136 -0.074,0.984 0.484,1.766 -0.09,2.682 -0.562,0.933 -1.833,0.922 -1.833,0.922 z"
     id="path366" />
  <path
     style="fill:#231f20;fill-opacity:1;fill-rule:nonzero;stroke:#231f20;stroke-width:0.565977;stroke-linecap:round;stroke-linejoin:round;stroke-miterlimit:4;stroke-dasharray:none;stroke-opacity:1"
     d="m 184.00985,23.011321 c 1.046,0.952 0.396,3.004 0.448,3.342 0.708,4.959 0.634,5.339 0.91,9.142 0.396,5.52 -0.177,9.353 -3.317,10.525 -2.131,0.792 -3.698,0.328 -4.589,-0.651 -0.968,-1.082 -1.765,-4.161 0.209,-6.27 l 0.334,-1.683 c 0.082,-1.161 0.129,-1.729 0.129,-2.307 -0.02,-1 0.043,-2.073 0.131,-4.032 0.166,-3.473 1.463,-7.082 1.463,-7.082 0.02,-0.308 0.162,-0.552 0.354,-0.746"
     id="path367" />
  <path
     style="fill:#63c99d;fill-opacity:1;fill-rule:nonzero;stroke:none"
     d="m 185.47785,40.656321 c -0.026,-0.068 -0.047,-0.145 -0.068,-0.224 0.042,-0.584 0.068,-1.193 0.052,-1.849 l -7.785,0.646 c -1.896,2.182 -0.975,5.224 0.036,6.271 0.915,0.943 2.51,1.348 4.603,0.484 1.366,-0.568 2.194,-1.651 2.662,-3.131 0.526,-0.9 0.817,-1.452 0.5,-2.197"
     id="path368" />
  <path
     style="fill:none;stroke:#231f20;stroke-width:0.565977;stroke-linecap:butt;stroke-linejoin:miter;stroke-miterlimit:4;stroke-dasharray:none;stroke-opacity:1"
     d="m 185.47785,40.656321 c -0.026,-0.068 -0.047,-0.145 -0.068,-0.224 0.042,-0.584 0.068,-1.193 0.052,-1.849 l -7.785,0.646 c -1.896,2.182 -0.975,5.224 0.036,6.271 0.915,0.943 2.51,1.348 4.603,0.484 1.366,-0.568 2.194,-1.651 2.662,-3.131 0.526,-0.9 0.817,-1.452 0.5,-2.197 z"
     id="path369" />
  <path
     style="fill:#231f20;fill-opacity:1;fill-rule:nonzero;stroke:none"
     d="m 182.71785,5.8693208 c -1.126,0.756 -0.902,1.719 -0.079,2.344 0.251,0.188 0.265,0.604 0.527,0.766 0.593,0.38 2.281,-0.068 2.27,-1.574 -0.005,-0.104 0.24,-0.885 0.323,-1.504 0.167,-1.198 -0.068,-3.682 -2.167,-5.38099995 -0.994,-0.796 -1.286,-0.067 -0.984,0.381 0.968,1.41599995 0.771,1.72799995 0.886,2.19199995 0.406,1.574 -0.776,2.776 -0.776,2.776"
     id="path370" />
  <path
     style="fill:none;stroke:#231f20;stroke-width:0.332927;stroke-linecap:butt;stroke-linejoin:miter;stroke-miterlimit:4;stroke-dasharray:none;stroke-opacity:1"
     d="m 182.71785,5.8693208 c -1.126,0.756 -0.902,1.719 -0.079,2.344 0.251,0.188 0.265,0.604 0.527,0.766 0.593,0.38 2.281,-0.068 2.27,-1.574 -0.005,-0.104 0.24,-0.885 0.323,-1.504 0.167,-1.198 -0.068,-3.682 -2.167,-5.38099995 -0.994,-0.796 -1.286,-0.067 -0.984,0.381 0.968,1.41599995 0.771,1.72799995 0.886,2.19199995 0.406,1.574 -0.776,2.776 -0.776,2.776 z"
     id="path371" />
  <path
     style="fill:#231f20;fill-opacity:1;fill-rule:nonzero;stroke:none"
     d="m 176.80585,83.348321 c -0.077,-0.723 -1.525,-3.635 -1.891,-4.28 -0.317,-0.584 -0.53,-1.72 -1.686,-1.647 -0.464,0.021 -1.126,0.385 -1.355,0.609 -0.188,0.188 -0.125,0.506 0.104,0.828 0.365,0.558 0.699,0.568 1.464,1.584 0,0 0.229,0.214 0.645,0.563 1.235,1.063 0.792,0.484 2.246,2.421 0.098,0.136 0.312,0.131 0.401,0.063 0.135,-0.131 0.072,-0.141 0.072,-0.141"
     id="path372" />
  <path
     style="fill:none;stroke:#231f20;stroke-width:0.565977;stroke-linecap:round;stroke-linejoin:round;stroke-miterlimit:4;stroke-dasharray:none;stroke-opacity:1"
     d="m 176.80585,83.348321 c -0.077,-0.723 -1.525,-3.635 -1.891,-4.28 -0.317,-0.584 -0.53,-1.72 -1.686,-1.647 -0.464,0.021 -1.126,0.385 -1.355,0.609 -0.188,0.188 -0.125,0.506 0.104,0.828 0.365,0.558 0.699,0.568 1.464,1.584 0,0 0.229,0.214 0.645,0.563 1.235,1.063 0.792,0.484 2.246,2.421 0.098,0.136 0.312,0.131 0.401,0.063 0.135,-0.131 0.072,-0.141 0.072,-0.141 z"
     id="path373" />
  <path
     style="fill:#231f20;fill-opacity:1;fill-rule:nonzero;stroke:none"
     d="m 174.10285,78.869321 c 0.167,-0.62 -0.661,-2.391 -0.745,-3.989 -0.052,-1.09 -1.296,-3.532 -1.26,-4.615 0.021,-0.995 -0.063,-1.453 -1.188,-1.677 -0.672,-0.131 -2.047,0.041 -2.167,0.541 -0.285,1.157 -0.14,2.089 0.251,3.084 0.443,1.135 1.907,4.104 2.229,4.625 0.802,1.296 0.714,2.031 0.891,2.391 0.339,0.687 0.687,0.719 1.177,0.604 0.932,-0.235 0.812,-0.964 0.812,-0.964"
     id="path374" />
  <path
     style="fill:none;stroke:#231f20;stroke-width:0.565977;stroke-linecap:butt;stroke-linejoin:miter;stroke-miterlimit:4;stroke-dasharray:none;stroke-opacity:1"
     d="m 174.10285,78.869321 c 0.167,-0.62 -0.661,-2.391 -0.745,-3.989 -0.052,-1.09 -1.296,-3.532 -1.26,-4.615 0.021,-0.995 -0.063,-1.453 -1.188,-1.677 -0.672,-0.131 -2.047,0.041 -2.167,0.541 -0.285,1.157 -0.14,2.089 0.251,3.084 0.443,1.135 1.907,4.104 2.229,4.625 0.802,1.296 0.714,2.031 0.891,2.391 0.339,0.687 0.687,0.719 1.177,0.604 0.932,-0.235 0.812,-0.964 0.812,-0.964 z"
     id="path375" />
  <path
     style="fill:#231f20;fill-opacity:1;fill-rule:nonzero;stroke:none"
     d="m 168.97285,70.150321 c -1.167,-0.573 0.057,-2.202 0.313,-2.682 0.26,-0.479 0.828,-1.927 1.12,-3.115 0.312,-1.187 1.192,-2.536 1.771,-4.785 0.296,-1.188 1.348,-2.152 3.046,-1.636 1.678,0.51 2.031,1.645 1.443,3.026 -0.584,1.375 -1.713,2.422 -2.401,3.771 -0.678,1.343 -1.255,2.785 -1.646,3.932 -0.453,1.307 -1.157,1.792 -1.636,1.817 -1.192,0.09 -2.01,-0.328 -2.01,-0.328"
     id="path376" />
  <path
     style="fill:none;stroke:#231f20;stroke-width:0.565977;stroke-linecap:butt;stroke-linejoin:miter;stroke-miterlimit:4;stroke-dasharray:none;stroke-opacity:1"
     d="m 168.97285,70.150321 c -1.167,-0.573 0.057,-2.202 0.313,-2.682 0.26,-0.479 0.828,-1.927 1.12,-3.115 0.312,-1.187 1.192,-2.536 1.771,-4.785 0.296,-1.188 1.348,-2.152 3.046,-1.636 1.678,0.51 2.031,1.645 1.443,3.026 -0.584,1.375 -1.713,2.422 -2.401,3.771 -0.678,1.343 -1.255,2.785 -1.646,3.932 -0.453,1.307 -1.157,1.792 -1.636,1.817 -1.192,0.09 -2.01,-0.328 -2.01,-0.328 z"
     id="path377" />
  <path
     style="fill:#ffffff;fill-opacity:1;fill-rule:nonzero;stroke:none"
     d="m 75.024655,69.948321 c -0.0464,-0.24 -1.1923,-0.328 -1.1923,-0.85 0,-0.53 0.7656,-0.729 1.6151,-2.526 l 0.0052,-0.02 c 0.5772,-1.334 1.6146,-2.26 2.8641,-2.36 2.0731,-0.172 3.9371,1.98 4.1671,4.792 0.224,2.817 -1.271,5.234 -3.339,5.406 -1.9792,0.162 -3.776,-1.802 -4.1202,-4.442"
     id="path378" />
  <path
     style="fill:none;stroke:#231f20;stroke-width:0.565977;stroke-linecap:butt;stroke-linejoin:miter;stroke-miterlimit:4;stroke-dasharray:none;stroke-opacity:1"
     d="m 75.024655,69.948321 c -0.0464,-0.24 -1.1923,-0.328 -1.1923,-0.85 0,-0.53 0.7656,-0.729 1.6151,-2.526 l 0.0052,-0.02 c 0.5772,-1.334 1.6146,-2.26 2.8641,-2.36 2.0731,-0.172 3.9371,1.98 4.1671,4.792 0.224,2.817 -1.271,5.234 -3.339,5.406 -1.9792,0.162 -3.776,-1.802 -4.1202,-4.442 z"
     id="path379" />
  <path
     style="fill:#231f20;fill-opacity:1;fill-rule:nonzero;stroke:none"
     d="m 85.733855,97.468321 c 0.291,-0.572 -0.177,-2.468 0.057,-4.058 0.167,-1.072 -0.573,-3.713 -0.329,-4.77 0.215,-0.974 0.229,-1.438 -0.837,-1.875 -0.631,-0.265 -2.017,-0.36 -2.229,0.104 -0.511,1.073 -0.547,2.021 -0.36,3.073 0.207,1.198 1.062,4.396 1.27,4.974 0.532,1.428 0.302,2.13 0.407,2.516 0.197,0.74 0.53,0.844 1.03,0.822 0.965,-0.046 0.991,-0.786 0.991,-0.786"
     id="path380" />
  <path
     style="fill:none;stroke:#231f20;stroke-width:0.565977;stroke-linecap:butt;stroke-linejoin:miter;stroke-miterlimit:4;stroke-dasharray:none;stroke-opacity:1"
     d="m 85.733855,97.468321 c 0.291,-0.572 -0.177,-2.468 0.057,-4.058 0.167,-1.072 -0.573,-3.713 -0.329,-4.77 0.215,-0.974 0.229,-1.438 -0.837,-1.875 -0.631,-0.265 -2.017,-0.36 -2.229,0.104 -0.511,1.073 -0.547,2.021 -0.36,3.073 0.207,1.198 1.062,4.396 1.27,4.974 0.532,1.428 0.302,2.13 0.407,2.516 0.197,0.74 0.53,0.844 1.03,0.822 0.965,-0.046 0.991,-0.786 0.991,-0.786 z"
     id="path381" />
  <path
     style="fill:#231f20;fill-opacity:1;fill-rule:nonzero;stroke:none"
     d="m 84.811855,88.453321 c 1.27,-0.272 0.479,-2.152 0.354,-2.672 -0.136,-0.532 -0.339,-2.073 -0.339,-3.297 -0.005,-1.224 -0.531,-2.75 -0.541,-5.079 -0.005,-1.224 -0.787,-2.411 -2.557,-2.328 -1.762,0.089 -2.371,1.104 -2.142,2.584 0.23,1.479 1.074,2.771 1.407,4.244 0.338,1.469 0.542,3.005 0.645,4.219 0.121,1.376 0.688,2.016 1.142,2.157 1.134,0.375 2.031,0.172 2.031,0.172"
     id="path382" />
  <path
     style="fill:none;stroke:#231f20;stroke-width:0.565977;stroke-linecap:butt;stroke-linejoin:miter;stroke-miterlimit:4;stroke-dasharray:none;stroke-opacity:1"
     d="m 84.811855,88.453321 c 1.27,-0.272 0.479,-2.152 0.354,-2.672 -0.136,-0.532 -0.339,-2.073 -0.339,-3.297 -0.005,-1.224 -0.531,-2.75 -0.541,-5.079 -0.005,-1.224 -0.787,-2.411 -2.557,-2.328 -1.762,0.089 -2.371,1.104 -2.142,2.584 0.23,1.479 1.074,2.771 1.407,4.244 0.338,1.469 0.542,3.005 0.645,4.219 0.121,1.376 0.688,2.016 1.142,2.157 1.134,0.375 2.031,0.172 2.031,0.172 z"
     id="path383" />
  <path
     style="fill:#231f20;fill-opacity:1;fill-rule:nonzero;stroke:none"
     d="m 109.97785,124.07232 c 0.484,-1.266 -0.249,-1.927 -1.287,-1.958 -0.306,-0.01 -0.566,-0.333 -0.869,-0.318 -0.703,0.037 -1.823,1.376 -0.943,2.589 0.063,0.088 0.318,0.864 0.599,1.416 0.563,1.079 2.193,2.969 4.88,3.141 1.276,0.078 1.089,-0.688 0.584,-0.88 -1.604,-0.6 -1.625,-0.964 -1.989,-1.276 -1.24,-1.052 -0.975,-2.714 -0.975,-2.714"
     id="path384" />
  <path
     style="fill:none;stroke:#231f20;stroke-width:0.332927;stroke-linecap:butt;stroke-linejoin:miter;stroke-miterlimit:4;stroke-dasharray:none;stroke-opacity:1"
     d="m 109.97785,124.07232 c 0.484,-1.266 -0.249,-1.927 -1.287,-1.958 -0.306,-0.01 -0.566,-0.333 -0.869,-0.318 -0.703,0.037 -1.823,1.376 -0.943,2.589 0.063,0.088 0.318,0.864 0.599,1.416 0.563,1.079 2.193,2.969 4.88,3.141 1.276,0.078 1.089,-0.688 0.584,-0.88 -1.604,-0.6 -1.625,-0.964 -1.989,-1.276 -1.24,-1.052 -0.975,-2.714 -0.975,-2.714 z"
     id="path385" />
  <path
     style="fill:#231f20;fill-opacity:1;fill-rule:nonzero;stroke:none"
     d="m 82.045855,99.000321 c 0,1.176999 0.959,2.133999 2.136,2.133999 1.176,0 2.135,-0.957 2.135,-2.133999 0,-1.178 -0.959,-2.136 -2.135,-2.136 -1.177,0 -2.136,0.958 -2.136,2.136"
     id="path386" />
  <path
     style="fill:#63c99d;fill-opacity:1;fill-rule:nonzero;stroke:none"
     d="m 45.967355,78.156321 c -3.0932,-0.475 -3.812,-0.235 -4.7079,0 -5.5989,1.442 -6.2025,-1.334 -5.2546,-4.058 1.0984,-3.208 1.4369,-4.38 7.536,-2.849 1.7025,0.432 8.4265,1.213 8.4265,1.213 2.453,-0.046 4.8598,1.215 5.4906,2.532 0.6562,1.386 0.2958,0.886 0.6708,2.276 0.3651,1.328 -0.2136,3.438 -1.3333,3.964 -1.0776,0.5 -2.4573,-0.438 -4.6188,-1.526 -1.7093,-0.86 -6.2093,-1.552 -6.2093,-1.552"
     id="path387" />
  <path
     style="fill:none;stroke:#231f20;stroke-width:0.565977;stroke-linecap:butt;stroke-linejoin:miter;stroke-miterlimit:4;stroke-dasharray:none;stroke-opacity:1"
     d="m 45.967355,78.156321 c -3.0932,-0.475 -3.812,-0.235 -4.7079,0 -5.5989,1.442 -6.2025,-1.334 -5.2546,-4.058 1.0984,-3.208 1.4369,-4.38 7.536,-2.849 1.7025,0.432 8.4265,1.213 8.4265,1.213 2.453,-0.046 4.8598,1.215 5.4906,2.532 0.6562,1.386 0.2958,0.886 0.6708,2.276 0.3651,1.328 -0.2136,3.438 -1.3333,3.964 -1.0776,0.5 -2.4573,-0.438 -4.6188,-1.526 -1.7093,-0.86 -6.2093,-1.552 -6.2093,-1.552 z"
     id="path388" />
  <path
     style="fill:#ffffff;fill-opacity:1;fill-rule:nonzero;stroke:none"
     d="m 62.269855,72.650321 c 0.2136,-0.109 -0.0213,-1.234 0.4787,-1.38 0.5052,-0.15 0.912,0.531 2.8761,0.844 h 0.0202 c 1.4422,0.178 2.6198,0.916 3.073,2.088 0.7442,1.938 -0.7975,4.334 -3.4319,5.339 -2.641,1.011 -5.3812,0.249 -6.1254,-1.688 -0.7131,-1.848 0.6666,-4.129 3.1093,-5.203"
     id="path389" />
  <path
     style="fill:none;stroke:#231f20;stroke-width:0.565977;stroke-linecap:butt;stroke-linejoin:miter;stroke-miterlimit:4;stroke-dasharray:none;stroke-opacity:1"
     d="m 62.269855,72.650321 c 0.2136,-0.109 -0.0213,-1.234 0.4787,-1.38 0.5052,-0.15 0.912,0.531 2.8761,0.844 h 0.0202 c 1.4422,0.178 2.6198,0.916 3.073,2.088 0.7442,1.938 -0.7975,4.334 -3.4319,5.339 -2.641,1.011 -5.3812,0.249 -6.1254,-1.688 -0.7131,-1.848 0.6666,-4.129 3.1093,-5.203 z"
     id="path390" />
  <path
     style="fill:#231f20;fill-opacity:1;fill-rule:nonzero;stroke:none"
     d="m 58.936555,97.801321 c 0.2813,-0.577 -0.2239,-2.463 -0.0162,-4.057 0.1418,-1.072 -0.6453,-3.703 -0.4213,-4.766 0.1975,-0.973 0.2032,-1.437 -0.8703,-1.858 -0.6349,-0.251 -2.0204,-0.319 -2.2281,0.145 -0.4855,1.088 -0.5052,2.036 -0.3027,3.083 0.2344,1.193 1.1454,4.376 1.3642,4.948 0.5572,1.417 0.3437,2.12 0.4582,2.51 0.2084,0.735 0.5418,0.834 1.047,0.803 0.9588,-0.063 0.9692,-0.808 0.9692,-0.808"
     id="path391" />
  <path
     style="fill:none;stroke:#231f20;stroke-width:0.565977;stroke-linecap:butt;stroke-linejoin:miter;stroke-miterlimit:4;stroke-dasharray:none;stroke-opacity:1"
     d="m 58.936555,97.801321 c 0.2813,-0.577 -0.2239,-2.463 -0.0162,-4.057 0.1418,-1.072 -0.6453,-3.703 -0.4213,-4.766 0.1975,-0.973 0.2032,-1.437 -0.8703,-1.858 -0.6349,-0.251 -2.0204,-0.319 -2.2281,0.145 -0.4855,1.088 -0.5052,2.036 -0.3027,3.083 0.2344,1.193 1.1454,4.376 1.3642,4.948 0.5572,1.417 0.3437,2.12 0.4582,2.51 0.2084,0.735 0.5418,0.834 1.047,0.803 0.9588,-0.063 0.9692,-0.808 0.9692,-0.808 z"
     id="path392" />
  <path
     style="fill:#231f20;fill-opacity:1;fill-rule:nonzero;stroke:none"
     d="m 57.843355,88.806321 c 1.265,-0.296 0.448,-2.161 0.3068,-2.682 -0.1454,-0.526 -0.3751,-2.062 -0.3964,-3.286 -0.0302,-1.229 -0.588,-2.74 -0.6396,-5.068 -0.0323,-1.224 -0.8334,-2.39 -2.6042,-2.276 -1.7562,0.12 -2.3494,1.146 -2.0896,2.626 0.2563,1.468 1.1256,2.744 1.4844,4.213 0.3651,1.463 0.6,2.995 0.724,4.203 0.1463,1.374 0.7239,2.005 1.1828,2.136 1.1464,0.358 2.0318,0.134 2.0318,0.134"
     id="path393" />
  <path
     style="fill:none;stroke:#231f20;stroke-width:0.565977;stroke-linecap:butt;stroke-linejoin:miter;stroke-miterlimit:4;stroke-dasharray:none;stroke-opacity:1"
     d="m 57.843355,88.806321 c 1.265,-0.296 0.448,-2.161 0.3068,-2.682 -0.1454,-0.526 -0.3751,-2.062 -0.3964,-3.286 -0.0302,-1.229 -0.588,-2.74 -0.6396,-5.068 -0.0323,-1.224 -0.8334,-2.39 -2.6042,-2.276 -1.7562,0.12 -2.3494,1.146 -2.0896,2.626 0.2563,1.468 1.1256,2.744 1.4844,4.213 0.3651,1.463 0.6,2.995 0.724,4.203 0.1463,1.374 0.7239,2.005 1.1828,2.136 1.1464,0.358 2.0318,0.134 2.0318,0.134 z"
     id="path394" />
  <path
     style="fill:#231f20;fill-opacity:1;fill-rule:nonzero;stroke:none"
     d="m 26.384555,61.426321 c -1.3958,1.782 -1.9119,1.938 -2.7026,1.396 -0.5317,-0.365 -1.1359,-0.51 -1.4692,-0.713 -1.1043,-0.683 -2.6828,-2.292 -5.9693,-7.994 -0.7386,-1.292 -1.8016,-3.1 -2.2959,-3.803 -0.7656,-1.115 1.6037,-1.651 1.9157,-1.213 0.9948,1.401 1.7922,2.27 2.2187,2.724 0.2923,0.312 0.7297,0.932 2.0265,1.989 1.9538,1.598 3.3642,2.27 4.8334,3.792 0.687,0.708 1.6453,0.801 1.9589,1.838 0.3281,1.036 -0.5162,1.984 -0.5162,1.984"
     id="path395" />
  <path
     style="fill:none;stroke:#231f20;stroke-width:0.565977;stroke-linecap:butt;stroke-linejoin:miter;stroke-miterlimit:4;stroke-dasharray:none;stroke-opacity:1"
     d="m 26.384555,61.426321 c -1.3958,1.782 -1.9119,1.938 -2.7026,1.396 -0.5317,-0.365 -1.1359,-0.51 -1.4692,-0.713 -1.1043,-0.683 -2.6828,-2.292 -5.9693,-7.994 -0.7386,-1.292 -1.8016,-3.1 -2.2959,-3.803 -0.7656,-1.115 1.6037,-1.651 1.9157,-1.213 0.9948,1.401 1.7922,2.27 2.2187,2.724 0.2923,0.312 0.7297,0.932 2.0265,1.989 1.9538,1.598 3.3642,2.27 4.8334,3.792 0.687,0.708 1.6453,0.801 1.9589,1.838 0.3281,1.036 -0.5162,1.984 -0.5162,1.984 z"
     id="path396" />
  <path
     style="fill:#231f20;fill-opacity:1;fill-rule:nonzero;stroke:#231f20;stroke-width:0.565977;stroke-linecap:round;stroke-linejoin:round;stroke-miterlimit:4;stroke-dasharray:none;stroke-opacity:1"
     d="m 25.978355,58.958321 c 1.412,-0.162 2.5317,1.682 2.8172,1.859 4.2036,2.74 4.4333,3.041 7.4853,5.339 4.4105,3.333 6.9266,6.292 5.7385,9.421 -0.8067,2.131 -2.1921,3 -3.5093,3.021 -1.4588,0.022 -4.3025,-1.401 -4.5896,-4.276 l -1.0411,-1.36 c -0.8224,-0.828 -1.2188,-1.233 -1.6557,-1.614 -0.7615,-0.646 -1.5376,-1.395 -2.9485,-2.755 -2.5052,-2.407 -4.3651,-5.765 -4.3651,-5.765 -0.2186,-0.219 -0.3172,-0.484 -0.3333,-0.751"
     id="path397" />
  <path
     style="fill:#63c99d;fill-opacity:1;fill-rule:nonzero;stroke:none"
     d="m 41.562155,71.286321 c -0.3281,-0.985 -0.5573,-1.568 -1.3281,-1.818 -0.0626,-0.026 -0.136,-0.058 -0.2042,-0.094 -0.4157,-0.416 -0.8584,-0.838 -1.3584,-1.26 l -4.6467,6.291 c 0.3957,2.86 3.2921,4.177 4.7451,4.1 1.3172,-0.073 2.6667,-1.005 3.3959,-3.152 0.4683,-1.395 0.2032,-2.739 -0.6036,-4.067"
     id="path398" />
  <path
     style="fill:none;stroke:#231f20;stroke-width:0.565977;stroke-linecap:butt;stroke-linejoin:miter;stroke-miterlimit:4;stroke-dasharray:none;stroke-opacity:1"
     d="m 41.562155,71.286321 c -0.3281,-0.985 -0.5573,-1.568 -1.3281,-1.818 -0.0626,-0.026 -0.136,-0.058 -0.2042,-0.094 -0.4157,-0.416 -0.8584,-0.838 -1.3584,-1.26 l -4.6467,6.291 c 0.3957,2.86 3.2921,4.177 4.7451,4.1 1.3172,-0.073 2.6667,-1.005 3.3959,-3.152 0.4683,-1.395 0.2032,-2.739 -0.6036,-4.067 z"
     id="path399" />
  <path
     style="fill:#231f20;fill-opacity:1;fill-rule:nonzero;stroke:none"
     d="m 12.238255,48.651321 c -0.176,1.338 0.6932,1.812 1.7093,1.593 0.3011,-0.063 0.6292,0.204 0.9157,0.115 0.6776,-0.203 1.4536,-1.76 0.3187,-2.744 -0.0839,-0.068 -0.5161,-0.767 -0.9172,-1.235 -0.7973,-0.917 -2.8229,-2.375 -5.4786003,-1.912 -1.2561998,0.219 -0.9014998,0.923 -0.3599,0.989 1.6985003,0.21 1.8027003,0.558 2.2292003,0.778 1.453,0.733 1.5828,2.416 1.5828,2.416"
     id="path400" />
  <path
     style="fill:none;stroke:#231f20;stroke-width:0.332927;stroke-linecap:butt;stroke-linejoin:miter;stroke-miterlimit:4;stroke-dasharray:none;stroke-opacity:1"
     d="m 12.238255,48.651321 c -0.176,1.338 0.6932,1.812 1.7093,1.593 0.3011,-0.063 0.6292,0.204 0.9157,0.115 0.6776,-0.203 1.4536,-1.76 0.3187,-2.744 -0.0839,-0.068 -0.5161,-0.767 -0.9172,-1.235 -0.7973,-0.917 -2.8229,-2.375 -5.4786003,-1.912 -1.2561998,0.219 -0.9014998,0.923 -0.3599,0.989 1.6985003,0.21 1.8027003,0.558 2.2292003,0.778 1.453,0.733 1.5828,2.416 1.5828,2.416 z"
     id="path401" />
  <path
     style="fill:#231f20;fill-opacity:1;fill-rule:nonzero;stroke:none"
     d="m 55.285955,99.405321 c 0.0199,1.176999 0.9891,2.114999 2.172,2.094999 1.176,-0.027 2.1135,-0.995 2.0932,-2.177999 -0.0213,-1.177 -1,-2.114 -2.177,-2.088 -1.1776,0.02 -2.1147,0.995 -2.0882,2.171"
     id="path402" />
  <path
     style="fill:#63c99d;fill-opacity:1;fill-rule:nonzero;stroke:none"
     d="m 120.43685,73.150321 c 3.01,-0.849 3.573,-1.36 4.292,-1.942 4.505,-3.62 6.202,-1.339 6.457,1.53 0.319,3.382 0.496,4.584 -5.692,5.704 -1.729,0.307 -8.183,2.364 -8.183,2.364 -2.213,1.052 -4.926,0.896 -6.041,-0.041 -1.177,-1 -0.636,-0.688 -1.552,-1.803 -0.88,-1.061 -1.224,-3.218 -0.417,-4.156 0.776,-0.905 2.417,-0.62 4.838,-0.514 1.912,0.077 6.298,-1.142 6.298,-1.142"
     id="path403" />
  <path
     style="fill:none;stroke:#231f20;stroke-width:0.565977;stroke-linecap:butt;stroke-linejoin:miter;stroke-miterlimit:4;stroke-dasharray:none;stroke-opacity:1"
     d="m 120.43685,73.150321 c 3.01,-0.849 3.573,-1.36 4.292,-1.942 4.505,-3.62 6.202,-1.339 6.457,1.53 0.319,3.382 0.496,4.584 -5.692,5.704 -1.729,0.307 -8.183,2.364 -8.183,2.364 -2.213,1.052 -4.926,0.896 -6.041,-0.041 -1.177,-1 -0.636,-0.688 -1.552,-1.803 -0.88,-1.061 -1.224,-3.218 -0.417,-4.156 0.776,-0.905 2.417,-0.62 4.838,-0.514 1.912,0.077 6.298,-1.142 6.298,-1.142 z"
     id="path404" />
  <path
     style="fill:#ffffff;fill-opacity:1;fill-rule:nonzero;stroke:none"
     d="m 101.84885,77.848321 c -0.235,-0.072 -0.855,0.896 -1.313,0.652 -0.463,-0.246 -0.282,-1.016 -1.462995,-2.615 l -0.016,-0.016 c -0.907,-1.14 -1.24,-2.484 -0.74,-3.635 0.822,-1.912 3.592995,-2.548 6.181995,-1.428 2.599,1.131 4.031,3.584 3.208,5.49 -0.787,1.824 -3.369,2.49 -5.858,1.552"
     id="path405" />
  <path
     style="fill:none;stroke:#231f20;stroke-width:0.565977;stroke-linecap:butt;stroke-linejoin:miter;stroke-miterlimit:4;stroke-dasharray:none;stroke-opacity:1"
     d="m 101.84885,77.848321 c -0.235,-0.072 -0.855,0.896 -1.313,0.652 -0.463,-0.246 -0.282,-1.016 -1.462995,-2.615 l -0.016,-0.016 c -0.907,-1.14 -1.24,-2.484 -0.74,-3.635 0.822,-1.912 3.592995,-2.548 6.181995,-1.428 2.599,1.131 4.031,3.584 3.208,5.49 -0.787,1.824 -3.369,2.49 -5.858,1.552 z"
     id="path406" />
  <path
     style="fill:#231f20;fill-opacity:1;fill-rule:nonzero;stroke:none"
     d="m 110.00485,98.000321 c -0.355,-0.538 -0.085,-2.47 -0.48,-4.027 -0.276,-1.052 0.182,-3.755 -0.167,-4.781 -0.317,-0.943 -0.38,-1.406 0.636,-1.954 0.599,-0.328 1.968,-0.566 2.229,-0.124 0.62,1.015 0.755,1.954 0.678,3.015 -0.084,1.219 -0.6,4.485 -0.751,5.079 -0.38,1.478 -0.077,2.15 -0.145,2.552 -0.115,0.754 -0.434,0.89 -0.938,0.921 -0.959,0.057 -1.062,-0.681 -1.062,-0.681"
     id="path407" />
  <path
     style="fill:none;stroke:#231f20;stroke-width:0.565977;stroke-linecap:butt;stroke-linejoin:miter;stroke-miterlimit:4;stroke-dasharray:none;stroke-opacity:1"
     d="m 110.00485,98.000321 c -0.355,-0.538 -0.085,-2.47 -0.48,-4.027 -0.276,-1.052 0.182,-3.755 -0.167,-4.781 -0.317,-0.943 -0.38,-1.406 0.636,-1.954 0.599,-0.328 1.968,-0.566 2.229,-0.124 0.62,1.015 0.755,1.954 0.678,3.015 -0.084,1.219 -0.6,4.485 -0.751,5.079 -0.38,1.478 -0.077,2.15 -0.145,2.552 -0.115,0.754 -0.434,0.89 -0.938,0.921 -0.959,0.057 -1.062,-0.681 -1.062,-0.681 z"
     id="path408" />
  <path
     style="fill:#231f20;fill-opacity:1;fill-rule:nonzero;stroke:none"
     d="m 109.98285,88.942321 c -1.286,-0.141 -0.702,-2.094 -0.63,-2.625 0.078,-0.541 0.12,-2.099 -0.004,-3.312 -0.12,-1.224 0.244,-2.792 0.009,-5.109 -0.12,-1.215 0.532,-2.475 2.308,-2.579 1.755,-0.093 2.468,0.855 2.396,2.349 -0.073,1.49 -0.781,2.864 -0.959,4.364 -0.182,1.5 -0.229,3.047 -0.202,4.262 0.025,1.385 -0.475,2.077 -0.918,2.265 -1.088,0.495 -2,0.385 -2,0.385"
     id="path409" />
  <path
     style="fill:none;stroke:#231f20;stroke-width:0.565977;stroke-linecap:butt;stroke-linejoin:miter;stroke-miterlimit:4;stroke-dasharray:none;stroke-opacity:1"
     d="m 109.98285,88.942321 c -1.286,-0.141 -0.702,-2.094 -0.63,-2.625 0.078,-0.541 0.12,-2.099 -0.004,-3.312 -0.12,-1.224 0.244,-2.792 0.009,-5.109 -0.12,-1.215 0.532,-2.475 2.308,-2.579 1.755,-0.093 2.468,0.855 2.396,2.349 -0.073,1.49 -0.781,2.864 -0.959,4.364 -0.182,1.5 -0.229,3.047 -0.202,4.262 0.025,1.385 -0.475,2.077 -0.918,2.265 -1.088,0.495 -2,0.385 -2,0.385 z"
     id="path410" />
  <path
     style="fill:#231f20;fill-opacity:1;fill-rule:nonzero;stroke:none"
     d="m 142.04085,61.833321 c -1.735,-1.459 -1.875,-1.975 -1.307,-2.751 0.38,-0.52 0.552,-1.12 0.765,-1.442 0.714,-1.088 2.37,-2.609 8.183,-5.708 1.317,-0.697 3.156,-1.697 3.875,-2.167 1.14,-0.734 1.598,1.656 1.145,1.948 -1.427,0.954 -2.323,1.724 -2.792,2.131 -0.323,0.28 -0.952,0.703 -2.052,1.962 -1.667,1.896 -2.38,3.282 -3.948,4.704 -0.728,0.667 -0.853,1.619 -1.9,1.895 -1.052,0.297 -1.969,-0.572 -1.969,-0.572"
     id="path411" />
  <path
     style="fill:none;stroke:#231f20;stroke-width:0.565977;stroke-linecap:butt;stroke-linejoin:miter;stroke-miterlimit:4;stroke-dasharray:none;stroke-opacity:1"
     d="m 142.04085,61.833321 c -1.735,-1.459 -1.875,-1.975 -1.307,-2.751 0.38,-0.52 0.552,-1.12 0.765,-1.442 0.714,-1.088 2.37,-2.609 8.183,-5.708 1.317,-0.697 3.156,-1.697 3.875,-2.167 1.14,-0.734 1.598,1.656 1.145,1.948 -1.427,0.954 -2.323,1.724 -2.792,2.131 -0.323,0.28 -0.952,0.703 -2.052,1.962 -1.667,1.896 -2.38,3.282 -3.948,4.704 -0.728,0.667 -0.853,1.619 -1.9,1.895 -1.052,0.297 -1.969,-0.572 -1.969,-0.572 z"
     id="path412" />
  <path
     style="fill:#231f20;fill-opacity:1;fill-rule:nonzero;stroke:#231f20;stroke-width:0.565977;stroke-linecap:round;stroke-linejoin:round;stroke-miterlimit:4;stroke-dasharray:none;stroke-opacity:1"
     d="m 144.51885,61.510321 c 0.115,1.411 -1.76,2.468 -1.952,2.744 -2.87,4.115 -3.182,4.334 -5.578,7.308 -3.474,4.302 -6.511,6.719 -9.604,5.427 -2.104,-0.88 -2.927,-2.287 -2.907,-3.609 0.027,-1.459 1.541,-4.251 4.427,-4.443 l 1.39,-1 c 0.855,-0.792 1.276,-1.177 1.672,-1.599 0.667,-0.74 1.443,-1.485 2.85,-2.854 2.484,-2.427 5.901,-4.178 5.901,-4.178 0.229,-0.208 0.5,-0.296 0.765,-0.306"
     id="path413" />
  <path
     style="fill:#63c99d;fill-opacity:1;fill-rule:nonzero;stroke:none"
     d="m 134.95285,73.885321 -6.136,-4.849 c -2.87,0.302 -4.282,3.156 -4.25,4.609 0.031,1.323 0.916,2.699 3.036,3.5 1.38,0.516 2.73,0.292 4.083,-0.473 0.996,-0.292 1.584,-0.506 1.865,-1.267 0.026,-0.061 0.063,-0.135 0.099,-0.203 0.432,-0.401 0.865,-0.828 1.303,-1.317"
     id="path414" />
  <path
     style="fill:none;stroke:#231f20;stroke-width:0.565977;stroke-linecap:butt;stroke-linejoin:miter;stroke-miterlimit:4;stroke-dasharray:none;stroke-opacity:1"
     d="m 134.95285,73.885321 -6.136,-4.849 c -2.87,0.302 -4.282,3.156 -4.25,4.609 0.031,1.323 0.916,2.699 3.036,3.5 1.38,0.516 2.73,0.292 4.083,-0.473 0.996,-0.292 1.584,-0.506 1.865,-1.267 0.026,-0.061 0.063,-0.135 0.099,-0.203 0.432,-0.401 0.865,-0.828 1.303,-1.317 z"
     id="path415" />
  <path
     style="fill:#231f20;fill-opacity:1;fill-rule:nonzero;stroke:none"
     d="m 155.27485,48.109321 c -1.328,-0.218 -1.833,0.635 -1.65,1.651 0.052,0.308 -0.219,0.625 -0.142,0.921 0.178,0.678 1.708,1.506 2.73,0.402 0.073,-0.078 0.781,-0.484 1.265,-0.87 0.943,-0.77 2.464,-2.745 2.093,-5.417 -0.181,-1.265 -0.889,-0.927 -0.984,-0.395 -0.26,1.692 -0.609,1.791 -0.848,2.208 -0.781,1.422 -2.464,1.5 -2.464,1.5"
     id="path416" />
  <path
     style="fill:none;stroke:#231f20;stroke-width:0.332927;stroke-linecap:butt;stroke-linejoin:miter;stroke-miterlimit:4;stroke-dasharray:none;stroke-opacity:1"
     d="m 155.27485,48.109321 c -1.328,-0.218 -1.833,0.635 -1.65,1.651 0.052,0.308 -0.219,0.625 -0.142,0.921 0.178,0.678 1.708,1.506 2.73,0.402 0.073,-0.078 0.781,-0.484 1.265,-0.87 0.943,-0.77 2.464,-2.745 2.093,-5.417 -0.181,-1.265 -0.889,-0.927 -0.984,-0.395 -0.26,1.692 -0.609,1.791 -0.848,2.208 -0.781,1.422 -2.464,1.5 -2.464,1.5 z"
     id="path417" />
  <path
     style="fill:#231f20;fill-opacity:1;fill-rule:nonzero;stroke:none"
     d="m 113.82685,99.145321 c 0.126,1.171999 -0.729,2.218999 -1.901,2.338999 -1.172,0.125 -2.224,-0.724 -2.344,-1.895999 -0.12,-1.172 0.73,-2.224 1.901,-2.344 1.172,-0.124 2.219,0.729 2.344,1.901"
     id="path418" />
  <path
     style="fill:none;stroke:#231f20;stroke-width:0.399514;stroke-linecap:butt;stroke-linejoin:miter;stroke-miterlimit:4;stroke-dasharray:none;stroke-opacity:1"
     d="m 223.67085,15.515321 c -25.88,-5.6190002 -29.36,7.193 -22.709,12.349"
     id="path419" />
  <path
     style="fill:#231f20;fill-opacity:1;fill-rule:nonzero;stroke:none"
     d="m 201.91485,28.604321 c -0.577,-0.183 -1.353,-0.328 -1.932,-0.297 l 0.855,-0.542 0.306,-0.958 c 0.115,0.568 0.448,1.281 0.771,1.797"
     id="path420" />
  <path
     style="fill:none;stroke:#231f20;stroke-width:0.399514;stroke-linecap:butt;stroke-linejoin:miter;stroke-miterlimit:4;stroke-dasharray:none;stroke-opacity:1"
     d="m 273.17085,30.255321 c -22.652,13.745 -16.349,25.431 -7.98,24.593"
     id="path421" />
  <path
     style="fill:#231f20;fill-opacity:1;fill-rule:nonzero;stroke:none"
     d="m 266.38985,54.729321 c -0.542,0.266 -1.208,0.692 -1.599,1.115 l 0.244,-0.98 -0.437,-0.911 c 0.474,0.339 1.208,0.624 1.792,0.776"
     id="path422" />
  <path
     style="fill:#231f20;fill-opacity:1;fill-rule:nonzero;stroke:none"
     d="m 313.08085,64.681321 c 0.724,-1.072 -1.134,-1.895 -1.593,-2.181 -0.458,-0.287 -1.672,-1.271 -2.521,-2.152 -0.843,-0.886 -2.281,-1.624 -3.891,-3.302 -0.848,-0.88 -2.233,-1.198 -3.457,0.083 -1.213,1.272 -0.953,2.433 0.233,3.344 1.183,0.912 2.683,1.265 3.943,2.099 1.267,0.833 2.469,1.808 3.376,2.605 1.041,0.916 1.891,0.989 2.328,0.781 1.072,-0.516 1.582,-1.277 1.582,-1.277"
     id="path423" />
  <path
     style="fill:none;stroke:#231f20;stroke-width:0.565977;stroke-linecap:butt;stroke-linejoin:miter;stroke-miterlimit:4;stroke-dasharray:none;stroke-opacity:1"
     d="m 313.08085,64.681321 c 0.724,-1.072 -1.134,-1.895 -1.593,-2.181 -0.458,-0.287 -1.672,-1.271 -2.521,-2.152 -0.843,-0.886 -2.281,-1.624 -3.891,-3.302 -0.848,-0.88 -2.233,-1.198 -3.457,0.083 -1.213,1.272 -0.953,2.433 0.233,3.344 1.183,0.912 2.683,1.265 3.943,2.099 1.267,0.833 2.469,1.808 3.376,2.605 1.041,0.916 1.891,0.989 2.328,0.781 1.072,-0.516 1.582,-1.277 1.582,-1.277 z"
     id="path424" />
  <path
     style="fill:#231f20;fill-opacity:1;fill-rule:nonzero;stroke:none"
     d="m 309.11385,73.874321 c -0.235,-0.593 0.416,-2.426 0.338,-4.036 -0.057,-1.084 0.927,-3.646 0.791,-4.718 -0.119,-0.991 -0.088,-1.454 1.011,-1.792 0.655,-0.199 2.041,-0.156 2.213,0.322 0.396,1.126 0.338,2.068 0.057,3.104 -0.323,1.167 -1.484,4.266 -1.749,4.818 -0.667,1.37 -0.505,2.089 -0.647,2.474 -0.265,0.708 -0.609,0.787 -1.109,0.708 -0.943,-0.134 -0.905,-0.88 -0.905,-0.88"
     id="path425" />
  <path
     style="fill:none;stroke:#231f20;stroke-width:0.565977;stroke-linecap:butt;stroke-linejoin:miter;stroke-miterlimit:4;stroke-dasharray:none;stroke-opacity:1"
     d="m 309.11385,73.874321 c -0.235,-0.593 0.416,-2.426 0.338,-4.036 -0.057,-1.084 0.927,-3.646 0.791,-4.718 -0.119,-0.991 -0.088,-1.454 1.011,-1.792 0.655,-0.199 2.041,-0.156 2.213,0.322 0.396,1.126 0.338,2.068 0.057,3.104 -0.323,1.167 -1.484,4.266 -1.749,4.818 -0.667,1.37 -0.505,2.089 -0.647,2.474 -0.265,0.708 -0.609,0.787 -1.109,0.708 -0.943,-0.134 -0.905,-0.88 -0.905,-0.88 z"
     id="path426" />
  <path
     style="fill:#231f20;fill-opacity:1;fill-rule:nonzero;stroke:none"
     d="m 285.45785,62.572321 c -0.803,1.021 1,1.964 1.432,2.286 0.437,0.323 1.572,1.386 2.358,2.323 0.787,0.943 2.162,1.781 3.656,3.568 0.782,0.943 2.142,1.36 3.454,0.161 1.292,-1.176 1.12,-2.353 0,-3.348 -1.12,-0.994 -2.588,-1.453 -3.787,-2.376 -1.197,-0.921 -2.333,-1.968 -3.181,-2.838 -0.975,-0.984 -1.814,-1.114 -2.262,-0.943 -1.113,0.443 -1.67,1.167 -1.67,1.167"
     id="path427" />
  <path
     style="fill:none;stroke:#231f20;stroke-width:0.565977;stroke-linecap:butt;stroke-linejoin:miter;stroke-miterlimit:4;stroke-dasharray:none;stroke-opacity:1"
     d="m 285.45785,62.572321 c -0.803,1.021 1,1.964 1.432,2.286 0.437,0.323 1.572,1.386 2.358,2.323 0.787,0.943 2.162,1.781 3.656,3.568 0.782,0.943 2.142,1.36 3.454,0.161 1.292,-1.176 1.12,-2.353 0,-3.348 -1.12,-0.994 -2.588,-1.453 -3.787,-2.376 -1.197,-0.921 -2.333,-1.968 -3.181,-2.838 -0.975,-0.984 -1.814,-1.114 -2.262,-0.943 -1.113,0.443 -1.67,1.167 -1.67,1.167 z"
     id="path428" />
  <path
     style="fill:#231f20;fill-opacity:1;fill-rule:nonzero;stroke:none"
     d="m 280.55585,54.667321 c 0.63,0.14 1.782,1.713 3.156,2.546 0.927,0.563 2.49,2.823 3.454,3.312 0.885,0.453 1.249,0.745 0.91,1.844 -0.202,0.651 -1.014,1.776 -1.509,1.645 -1.152,-0.301 -1.901,-0.874 -2.595,-1.692 -0.786,-0.926 -2.697,-3.63 -3.005,-4.161 -0.755,-1.323 -1.437,-1.599 -1.676,-1.927 -0.439,-0.625 -0.308,-0.942 0.036,-1.318 0.645,-0.703 1.229,-0.249 1.229,-0.249"
     id="path429" />
  <path
     style="fill:none;stroke:#231f20;stroke-width:0.565977;stroke-linecap:butt;stroke-linejoin:miter;stroke-miterlimit:4;stroke-dasharray:none;stroke-opacity:1"
     d="m 280.55585,54.667321 c 0.63,0.14 1.782,1.713 3.156,2.546 0.927,0.563 2.49,2.823 3.454,3.312 0.885,0.453 1.249,0.745 0.91,1.844 -0.202,0.651 -1.014,1.776 -1.509,1.645 -1.152,-0.301 -1.901,-0.874 -2.595,-1.692 -0.786,-0.926 -2.697,-3.63 -3.005,-4.161 -0.755,-1.323 -1.437,-1.599 -1.676,-1.927 -0.439,-0.625 -0.308,-0.942 0.036,-1.318 0.645,-0.703 1.229,-0.249 1.229,-0.249 z"
     id="path430" />
  <path
     style="fill:#231f20;fill-opacity:1;fill-rule:nonzero;stroke:none"
     d="m 285.38385,58.749321 c -2.328,2.751 -3.38,1.432 -7.041,-0.353 -4.011,-1.959 -7.98,-4.428 -10.152,-6.912 -2.432,-2.776 -2.916,-2.583 -2.239,-4.38 0.672,-1.797 1.406,-1.541 2.64,-1.907 1.432,-0.421 6.552,4.866 10.891,6.798 2.041,0.901 7.495,1.754 7.235,3.182 -0.271,1.427 -1.334,3.572 -1.334,3.572"
     id="path431" />
  <path
     style="fill:none;stroke:#231f20;stroke-width:0.565977;stroke-linecap:butt;stroke-linejoin:miter;stroke-miterlimit:4;stroke-dasharray:none;stroke-opacity:1"
     d="m 285.38385,58.749321 c -2.328,2.751 -3.38,1.432 -7.041,-0.353 -4.011,-1.959 -7.98,-4.428 -10.152,-6.912 -2.432,-2.776 -2.916,-2.583 -2.239,-4.38 0.672,-1.797 1.406,-1.541 2.64,-1.907 1.432,-0.421 6.552,4.866 10.891,6.798 2.041,0.901 7.495,1.754 7.235,3.182 -0.271,1.427 -1.334,3.572 -1.334,3.572 z"
     id="path432" />
  <path
     style="fill:#231f20;fill-opacity:1;fill-rule:nonzero;stroke:none"
     d="m 268.20185,47.265321 c -1.031,2.016 -1.307,2.615 -3.323,1.136 -0.516,-0.376 -1.869,-1.516 -2.24,-1.657 -1.213,-0.452 -2.583,-1.083 -6.916,-6.041 -0.672,-0.771 -2.204,-2.016 -3.213,-2.99 -0.98,-0.942 1.249,-1.926 1.634,-1.562 1.251,1.172 2.308,1.661 2.814,2.021 0.348,0.249 0.916,0.823 2.468,1.427 3.984,1.557 4.489,3.286 5.297,3.682 2.312,1.146 4.531,1.651 4.468,2.312 -0.099,1.084 -0.989,1.672 -0.989,1.672"
     id="path433" />
  <path
     style="fill:none;stroke:#231f20;stroke-width:0.565977;stroke-linecap:butt;stroke-linejoin:miter;stroke-miterlimit:4;stroke-dasharray:none;stroke-opacity:1"
     d="m 268.20185,47.265321 c -1.031,2.016 -1.307,2.615 -3.323,1.136 -0.516,-0.376 -1.869,-1.516 -2.24,-1.657 -1.213,-0.452 -2.583,-1.083 -6.916,-6.041 -0.672,-0.771 -2.204,-2.016 -3.213,-2.99 -0.98,-0.942 1.249,-1.926 1.634,-1.562 1.251,1.172 2.308,1.661 2.814,2.021 0.348,0.249 0.916,0.823 2.468,1.427 3.984,1.557 4.489,3.286 5.297,3.682 2.312,1.146 4.531,1.651 4.468,2.312 -0.099,1.084 -0.989,1.672 -0.989,1.672 z"
     id="path434" />
  <path
     style="fill:#231f20;fill-opacity:1;fill-rule:nonzero;stroke:none"
     d="m 288.87385,53.531321 c 1.516,-3.271 -0.12,-3.667 -3.287,-6.239 -3.459,-2.813 -7.369,-5.376 -10.536,-6.303 -3.536,-1.036 -3.568,-1.557 -4.917,-0.193 -1.343,1.365 -0.807,1.933 -0.615,3.204 0.22,1.479 7.167,3.896 10.745,7.02 1.678,1.464 4.746,6.062 5.932,5.218 1.183,-0.842 2.678,-2.707 2.678,-2.707"
     id="path435" />
  <path
     style="fill:none;stroke:#231f20;stroke-width:0.565977;stroke-linecap:butt;stroke-linejoin:miter;stroke-miterlimit:4;stroke-dasharray:none;stroke-opacity:1"
     d="m 288.87385,53.531321 c 1.516,-3.271 -0.12,-3.667 -3.287,-6.239 -3.459,-2.813 -7.369,-5.376 -10.536,-6.303 -3.536,-1.036 -3.568,-1.557 -4.917,-0.193 -1.343,1.365 -0.807,1.933 -0.615,3.204 0.22,1.479 7.167,3.896 10.745,7.02 1.678,1.464 4.746,6.062 5.932,5.218 1.183,-0.842 2.678,-2.707 2.678,-2.707 z"
     id="path436" />
  <path
     style="fill:#63c99d;fill-opacity:1;fill-rule:nonzero;stroke:none"
     d="m 304.16585,57.036321 c -0.98,-1.927 -2.574,0.032 -4.402,-0.099 -1.333,-0.099 -6.172,-1.718 -8.906,-3.474 -0.63,-0.4 -1.583,-2.615 -1.364,-1.386 l -0.214,0.292 c -2.765,1.427 -7.98,-1.202 -7.98,-1.202 0,0 -0.697,0.265 -0.973,0.677 -0.271,0.416 -0.255,1.161 -0.255,1.161 0,0 4.432,3.807 4.176,6.905 l -0.186,0.308 c -1.219,0.276 1.186,0.307 1.801,0.73 2.672,1.853 6.021,5.702 6.625,6.89 0.823,1.64 -0.182,4.063 1.979,4.23 0,0 1.876,0.509 3.12,-2.006 0.453,-0.912 2.276,-2.354 2.276,-2.354 0,0 1.136,-0.735 1.803,-1.698 0.588,-0.849 0.77,-1.974 0.806,-2.214 0,0 0.636,-2.239 1.303,-3.006 1.844,-2.118 0.391,-3.754 0.391,-3.754"
     id="path437" />
  <path
     style="fill:none;stroke:#231f20;stroke-width:0.565977;stroke-linecap:round;stroke-linejoin:round;stroke-miterlimit:4;stroke-dasharray:none;stroke-opacity:1"
     d="m 304.16585,57.036321 c -0.98,-1.927 -2.574,0.032 -4.402,-0.099 -1.333,-0.099 -6.172,-1.718 -8.906,-3.474 -0.63,-0.4 -1.583,-2.615 -1.364,-1.386 l -0.214,0.292 c -2.765,1.427 -7.98,-1.202 -7.98,-1.202 0,0 -0.697,0.265 -0.973,0.677 -0.271,0.416 -0.255,1.161 -0.255,1.161 0,0 4.432,3.807 4.176,6.905 l -0.186,0.308 c -1.219,0.276 1.186,0.307 1.801,0.73 2.672,1.853 6.021,5.702 6.625,6.89 0.823,1.64 -0.182,4.063 1.979,4.23 0,0 1.876,0.509 3.12,-2.006 0.453,-0.912 2.276,-2.354 2.276,-2.354 0,0 1.136,-0.735 1.803,-1.698 0.588,-0.849 0.77,-1.974 0.806,-2.214 0,0 0.636,-2.239 1.303,-3.006 1.844,-2.118 0.391,-3.754 0.391,-3.754 z"
     id="path438" />
  <path
     style="fill:#231f20;fill-opacity:1;fill-rule:nonzero;stroke:none"
     d="m 307.81085,65.686321 c -2.349,-1.572 -5.187,-1.448 -6.344,0.276 -1.156,1.724 -0.187,4.396 2.157,5.97 2.343,1.573 5.182,1.448 6.338,-0.276 1.157,-1.724 0.193,-4.396 -2.151,-5.97"
     id="path439" />
  <path
     style="fill:none;stroke:#231f20;stroke-width:0.565977;stroke-linecap:butt;stroke-linejoin:miter;stroke-miterlimit:4;stroke-dasharray:none;stroke-opacity:1"
     d="m 307.81085,65.686321 c -2.349,-1.572 -5.187,-1.448 -6.344,0.276 -1.156,1.724 -0.187,4.396 2.157,5.97 2.343,1.573 5.182,1.448 6.338,-0.276 1.157,-1.724 0.193,-4.396 -2.151,-5.97 z"
     id="path440" />
  <path
     style="fill:#231f20;fill-opacity:1;fill-rule:nonzero;stroke:none"
     d="m 271.24785,42.760321 c 1.391,-1.792 1.814,-2.297 -0.38,-3.495 -0.562,-0.302 -2.177,-1.041 -2.453,-1.312 -0.927,-0.906 -2.083,-1.881 -8.416,-3.688 -0.984,-0.281 -2.761,-1.136 -4.073,-1.636 -1.266,-0.484 -1.208,1.948 -0.719,2.142 1.599,0.63 2.484,1.38 3.031,1.686 0.37,0.21 1.13,0.48 2.338,1.626 3.11,2.948 4.886,2.661 5.595,3.224 2.015,1.609 3.416,3.401 3.989,3.062 0.938,-0.552 1.088,-1.609 1.088,-1.609"
     id="path441" />
  <path
     style="fill:none;stroke:#231f20;stroke-width:0.565977;stroke-linecap:butt;stroke-linejoin:miter;stroke-miterlimit:4;stroke-dasharray:none;stroke-opacity:1"
     d="m 271.24785,42.760321 c 1.391,-1.792 1.814,-2.297 -0.38,-3.495 -0.562,-0.302 -2.177,-1.041 -2.453,-1.312 -0.927,-0.906 -2.083,-1.881 -8.416,-3.688 -0.984,-0.281 -2.761,-1.136 -4.073,-1.636 -1.266,-0.484 -1.208,1.948 -0.719,2.142 1.599,0.63 2.484,1.38 3.031,1.686 0.37,0.21 1.13,0.48 2.338,1.626 3.11,2.948 4.886,2.661 5.595,3.224 2.015,1.609 3.416,3.401 3.989,3.062 0.938,-0.552 1.088,-1.609 1.088,-1.609 z"
     id="path442" />
  <path
     style="fill:#63c99d;fill-opacity:1;fill-rule:nonzero;stroke:none"
     d="m 290.17085,52.557321 c -0.12,-0.328 -0.761,-1.537 -1.032,-1.917 -1.681,-2.443 -5.015,-4.568 -5.901,-5.484 -0.89,-0.912 -4.499,4.599 -4.499,4.599 l 0.593,1.344 c -0.609,0.136 -0.104,0.156 -0.104,0.156 l -1.614,0.052 c 0,0 -3.798,5.234 -2.886,5.661 1.266,0.6 5.156,3.1 7.558,3.578 1.322,0.26 2.312,-0.01 2.312,-0.01 0,0 1.12,-3.635 1.912,-4.818 0.79,-1.187 3.661,-3.161 3.661,-3.161"
     id="path443" />
  <path
     style="fill:none;stroke:#231f20;stroke-width:0.565977;stroke-linecap:round;stroke-linejoin:round;stroke-miterlimit:4;stroke-dasharray:none;stroke-opacity:1"
     d="m 290.17085,52.557321 c -0.12,-0.328 -0.761,-1.537 -1.032,-1.917 -1.681,-2.443 -5.015,-4.568 -5.901,-5.484 -0.89,-0.912 -4.499,4.599 -4.499,4.599 l 0.593,1.344 c -0.609,0.136 -0.104,0.156 -0.104,0.156 l -1.614,0.052 c 0,0 -3.798,5.234 -2.886,5.661 1.266,0.6 5.156,3.1 7.558,3.578 1.322,0.26 2.312,-0.01 2.312,-0.01 0,0 1.12,-3.635 1.912,-4.818 0.79,-1.187 3.661,-3.161 3.661,-3.161 z"
     id="path444" />
  <path
     style="fill:none;stroke:#231f20;stroke-width:0.565977;stroke-linecap:round;stroke-linejoin:round;stroke-miterlimit:4;stroke-dasharray:none;stroke-opacity:1"
     d="m 281.41985,48.755321 c -1.749,0.406 -2.036,2.552 -2.036,2.552 -1.494,1.073 -1.672,2.661 -1.672,2.661"
     id="path445" />
  <path
     style="fill:#231f20;fill-opacity:1;fill-rule:nonzero;stroke:none"
     d="m 252.53485,28.864321 c 0.661,0.089 1.125,1.828 2.756,2.927 0.337,0.224 0.5,0.562 0.713,0.87 0.87,1.23 0.979,2.828 -2.641,1.574 -0.5,-0.172 -2.025,-1.62 -2.781,-1.819 -1.807,-0.463 -3.37,-3.396 -2.979,-3.744 0.833,-0.751 4.932,0.192 4.932,0.192"
     id="path446" />
  <path
     style="fill:none;stroke:#231f20;stroke-width:0.644548;stroke-linecap:round;stroke-linejoin:round;stroke-miterlimit:4;stroke-dasharray:none;stroke-opacity:1"
     d="m 252.53485,28.864321 c 0.661,0.089 1.125,1.828 2.756,2.927 0.337,0.224 0.5,0.562 0.713,0.87 0.87,1.23 0.979,2.828 -2.641,1.574 -0.5,-0.172 -2.025,-1.62 -2.781,-1.819 -1.807,-0.463 -3.37,-3.396 -2.979,-3.744 0.833,-0.751 4.932,0.192 4.932,0.192 z"
     id="path447" />
  <path
     style="fill:#231f20;fill-opacity:1;fill-rule:nonzero;stroke:none"
     d="m 247.47185,35.953321 c 0.35,0.567 2.131,0.276 3.798,1.323 0.344,0.213 0.718,0.224 1.082,0.296 1.486,0.287 2.98,-0.265 0.36,-3.057 -0.364,-0.386 -2.306,-1.187 -2.797,-1.796 -1.161,-1.454 -4.473,-1.683 -4.629,-1.188 -0.344,1.062 2.186,4.422 2.186,4.422"
     id="path448" />
  <path
     style="fill:none;stroke:#231f20;stroke-width:0.644548;stroke-linecap:round;stroke-linejoin:round;stroke-miterlimit:4;stroke-dasharray:none;stroke-opacity:1"
     d="m 247.47185,35.953321 c 0.35,0.567 2.131,0.276 3.798,1.323 0.344,0.213 0.718,0.224 1.082,0.296 1.486,0.287 2.98,-0.265 0.36,-3.057 -0.364,-0.386 -2.306,-1.187 -2.797,-1.796 -1.161,-1.454 -4.473,-1.683 -4.629,-1.188 -0.344,1.062 2.186,4.422 2.186,4.422 z"
     id="path449" />
  <path
     style="fill:none;stroke:#231f20;stroke-width:1.33171;stroke-linecap:round;stroke-linejoin:round;stroke-miterlimit:4;stroke-dasharray:none;stroke-opacity:1"
     d="m 0.66585493,100.09332 c 5.06829997,1.219 7.44839977,2.047 9.06309977,2.787 1.6864003,0.781 3.1915003,2.442 3.5462003,3.801 0.4109,1.589 -0.2291,3.969 -1.8546,4.407 -3.0302003,0.817 -7.0104001,-3.302 -4.3276001,-7.468 4.1453001,-6.438999 12.8854001,-1.73 12.8854001,-1.73"
     id="path1555" />
</svg>
