<?xml version="1.0" encoding="UTF-8" standalone="no"?>
<!-- Created with Inkscape (http://www.inkscape.org/) -->

<svg
   version="1.1"
   id="svg1"
   width="158.16187"
   height="153.60573"
   viewBox="0 0 158.16186 153.60573"
   sodipodi:docname="cell.svg"
   xmlns:inkscape="http://www.inkscape.org/namespaces/inkscape"
   xmlns:sodipodi="http://sodipodi.sourceforge.net/DTD/sodipodi-0.dtd"
   xmlns="http://www.w3.org/2000/svg"
   xmlns:svg="http://www.w3.org/2000/svg">
  <sodipodi:namedview
     id="namedview1"
     pagecolor="#ffffff"
     bordercolor="#000000"
     borderopacity="0.25"
     inkscape:showpageshadow="2"
     inkscape:pageopacity="0.0"
     inkscape:pagecheckerboard="0"
     inkscape:deskcolor="#d1d1d1">
    <inkscape:page
       x="0"
       y="0"
       inkscape:label="1"
       id="page1"
       width="158.16187"
       height="153.60573"
       margin="0"
       bleed="0" />
  </sodipodi:namedview>
  <defs
     id="defs1" />
  <path
     style="fill:#ffffff;fill-opacity:1;fill-rule:nonzero;stroke:#231f20;stroke-width:0.665856;stroke-linecap:butt;stroke-linejoin:miter;stroke-miterlimit:4;stroke-dasharray:none;stroke-opacity:1"
     d="m 74.692938,32.010428 h 1.333 v -31.6775 h -1.333 z"
     id="path3" />
  <path
     style="fill:#ffffff;fill-opacity:1;fill-rule:nonzero;stroke:#231f20;stroke-width:0.665856;stroke-linecap:butt;stroke-linejoin:miter;stroke-miterlimit:4;stroke-dasharray:none;stroke-opacity:1"
     d="m 5.2659376,32.010428 h 1.334 v -31.6775 h -1.334 z"
     id="path4" />
  <path
     style="fill:#ffffff;fill-opacity:1;fill-rule:nonzero;stroke:none"
     d="m 1.6619376,36.942428 c 0,-2.3547 1.916,-4.272 4.271,-4.272 2.353,0 4.2710004,1.9173 4.2710004,4.272 0,2.3533 -1.9180004,4.2706 -4.2710004,4.2706 -2.355,0 -4.271,-1.9173 -4.271,-4.2706 m -1.32899999,0 c 0,3.088 2.51099999,5.604 5.59999999,5.604 3.088,0 5.5990004,-2.516 5.5990004,-5.604 0,-3.0894 -2.5110004,-5.6 -5.5990004,-5.6 -3.089,0 -5.59999999,2.5106 -5.59999999,5.6"
     id="path5" />
  <path
     style="fill:none;stroke:#231f20;stroke-width:0.665856;stroke-linecap:butt;stroke-linejoin:miter;stroke-miterlimit:4;stroke-dasharray:none;stroke-opacity:1"
     d="m 1.6619376,36.942428 c 0,-2.3547 1.916,-4.272 4.271,-4.272 2.353,0 4.2710004,1.9173 4.2710004,4.272 0,2.3533 -1.9180004,4.2706 -4.2710004,4.2706 -2.355,0 -4.271,-1.9173 -4.271,-4.2706 z m -1.32899999,0 c 0,3.088 2.51099999,5.604 5.59999999,5.604 3.088,0 5.5990004,-2.516 5.5990004,-5.604 0,-3.0894 -2.5110004,-5.6 -5.5990004,-5.6 -3.089,0 -5.59999999,2.5106 -5.59999999,5.6 z"
     id="path6" />
  <path
     style="fill:#ffffff;fill-opacity:1;fill-rule:nonzero;stroke:none"
     d="m 71.093938,36.942428 c 0,-2.3547 1.911,-4.272 4.265,-4.272 2.355,0 4.271,1.9173 4.271,4.272 0,2.3533 -1.916,4.2706 -4.271,4.2706 -2.354,0 -4.265,-1.9173 -4.265,-4.2706 m -1.333,0 c 0,3.088 2.511,5.604 5.598,5.604 3.088,0 5.599,-2.516 5.599,-5.604 0,-3.0894 -2.511,-5.6 -5.599,-5.6 -3.087,0 -5.598,2.5106 -5.598,5.6"
     id="path7" />
  <path
     style="fill:none;stroke:#231f20;stroke-width:0.665856;stroke-linecap:butt;stroke-linejoin:miter;stroke-miterlimit:4;stroke-dasharray:none;stroke-opacity:1"
     d="m 71.093938,36.942428 c 0,-2.3547 1.911,-4.272 4.265,-4.272 2.355,0 4.271,1.9173 4.271,4.272 0,2.3533 -1.916,4.2706 -4.271,4.2706 -2.354,0 -4.265,-1.9173 -4.265,-4.2706 z m -1.333,0 c 0,3.088 2.511,5.604 5.598,5.604 3.088,0 5.599,-2.516 5.599,-5.604 0,-3.0894 -2.511,-5.6 -5.599,-5.6 -3.087,0 -5.598,2.5106 -5.598,5.6 z"
     id="path8" />
  <path
     style="fill:#231f20;fill-opacity:1;fill-rule:nonzero;stroke:#231f20;stroke-width:0.565977;stroke-linecap:round;stroke-linejoin:round;stroke-miterlimit:4;stroke-dasharray:none;stroke-opacity:1"
     d="m 50.640938,93.093028 c 0,0 1.172,-0.599 2.339,-0.579 1.161,0.022 2.406,0.558 2.406,0.558 v 3.292 h -4.792 z"
     id="path9" />
  <path
     style="fill:#231f20;fill-opacity:1;fill-rule:nonzero;stroke:none"
     d="m 56.161938,110.02003 c 3.583,0.354 3.094,1.964 3.703,6 0.661,4.411 0.88,9.078 0.068,12.281 -0.907,3.573 -0.475,3.865 -2.339,4.328 -1.86,0.464 -2.068,-0.287 -3.068,-1.099 -1.161,-0.937 0.292,-8.151 -0.584,-12.822 -0.405,-2.188 -2.806,-7.167 -1.478,-7.762 1.328,-0.588 3.698,-0.926 3.698,-0.926"
     id="path10" />
  <path
     style="fill:none;stroke:#231f20;stroke-width:0.565977;stroke-linecap:butt;stroke-linejoin:miter;stroke-miterlimit:4;stroke-dasharray:none;stroke-opacity:1"
     d="m 56.161938,110.02003 c 3.583,0.354 3.094,1.964 3.703,6 0.661,4.411 0.88,9.078 0.068,12.281 -0.907,3.573 -0.475,3.865 -2.339,4.328 -1.86,0.464 -2.068,-0.287 -3.068,-1.099 -1.161,-0.937 0.292,-8.151 -0.584,-12.822 -0.405,-2.188 -2.806,-7.167 -1.478,-7.762 1.328,-0.588 3.698,-0.926 3.698,-0.926 z"
     id="path11" />
  <path
     style="fill:#231f20;fill-opacity:1;fill-rule:nonzero;stroke:none"
     d="m 57.984938,153.07703 c 1.077,-0.011 -0.537,-1.692 -0.204,-3.178 0.068,-0.301 -0.061,-0.593 -0.135,-0.89 -0.286,-1.192 -1.344,-2.244 -2.912,0.308 -0.218,0.353 -0.224,2 -0.598,2.494 -0.896,1.172 -0.662,1.536 0.588,1.448 0.39,-0.032 3.261,-0.182 3.261,-0.182"
     id="path12" />
  <path
     style="fill:none;stroke:#231f20;stroke-width:0.565977;stroke-linecap:round;stroke-linejoin:round;stroke-miterlimit:4;stroke-dasharray:none;stroke-opacity:1"
     d="m 57.984938,153.07703 c 1.077,-0.011 -0.537,-1.692 -0.204,-3.178 0.068,-0.301 -0.061,-0.593 -0.135,-0.89 -0.286,-1.192 -1.344,-2.244 -2.912,0.308 -0.218,0.353 -0.224,2 -0.598,2.494 -0.896,1.172 -0.662,1.536 0.588,1.448 0.39,-0.032 3.261,-0.182 3.261,-0.182 z"
     id="path14" />
  <path
     style="fill:#231f20;fill-opacity:1;fill-rule:nonzero;stroke:none"
     d="m 56.452938,130.68603 c 2.245,-0.296 2.896,-0.416 2.823,2.089 -0.02,0.635 -0.192,2.4 -0.099,2.78 0.319,1.262 0.579,2.746 -1.052,9.126 -0.255,0.989 -0.411,2.958 -0.64,4.344 -0.219,1.338 -2.292,0.068 -2.213,-0.459 0.26,-1.697 0.061,-2.843 0.066,-3.463 0.011,-0.433 0.158,-1.224 -0.224,-2.844 -0.973,-4.166 0.162,-5.562 0.032,-6.453 -0.37,-2.557 -1.213,-4.661 -0.636,-4.989 0.948,-0.538 1.943,-0.131 1.943,-0.131"
     id="path16" />
  <path
     style="fill:none;stroke:#231f20;stroke-width:0.565977;stroke-linecap:butt;stroke-linejoin:miter;stroke-miterlimit:4;stroke-dasharray:none;stroke-opacity:1"
     d="m 56.452938,130.68603 c 2.245,-0.296 2.896,-0.416 2.823,2.089 -0.02,0.635 -0.192,2.4 -0.099,2.78 0.319,1.262 0.579,2.746 -1.052,9.126 -0.255,0.989 -0.411,2.958 -0.64,4.344 -0.219,1.338 -2.292,0.068 -2.213,-0.459 0.26,-1.697 0.061,-2.843 0.066,-3.463 0.011,-0.433 0.158,-1.224 -0.224,-2.844 -0.973,-4.166 0.162,-5.562 0.032,-6.453 -0.37,-2.557 -1.213,-4.661 -0.636,-4.989 0.948,-0.538 1.943,-0.131 1.943,-0.131 z"
     id="path17" />
  <path
     style="fill:#231f20;fill-opacity:1;fill-rule:nonzero;stroke:none"
     d="m 50.061938,110.09303 c -3.588,0.359 -3.098,1.968 -3.708,6 -0.661,4.41 -0.88,9.082 -0.068,12.281 0.912,3.572 0.475,3.864 2.339,4.333 1.86,0.463 2.073,-0.286 3.068,-1.098 1.161,-0.943 -0.292,-8.152 0.583,-12.824 0.406,-2.192 2.808,-7.172 1.48,-7.76 -1.328,-0.593 -3.694,-0.932 -3.694,-0.932"
     id="path18" />
  <path
     style="fill:none;stroke:#231f20;stroke-width:0.565977;stroke-linecap:butt;stroke-linejoin:miter;stroke-miterlimit:4;stroke-dasharray:none;stroke-opacity:1"
     d="m 50.061938,110.09303 c -3.588,0.359 -3.098,1.968 -3.708,6 -0.661,4.41 -0.88,9.082 -0.068,12.281 0.912,3.572 0.475,3.864 2.339,4.333 1.86,0.463 2.073,-0.286 3.068,-1.098 1.161,-0.943 -0.292,-8.152 0.583,-12.824 0.406,-2.192 2.808,-7.172 1.48,-7.76 -1.328,-0.593 -3.694,-0.932 -3.694,-0.932 z"
     id="path19" />
  <path
     style="fill:#ffffff;fill-opacity:1;fill-rule:nonzero;stroke:none"
     d="m 53.036938,118.12403 c 0.495,0 1.099,-0.432 1.099,-0.432 0,0 0.708,-5.798 3.432,-7.307 l 0.36,-0.016 c 0.905,0.864 -0.412,-1.156 -0.396,-1.901 0.062,-3.25 1.396,-8.178 2.057,-9.339002 0.901,-1.593 3.479,-2.099 2.416,-3.989 0,0 -0.615,-1.844 -3.4,-1.484 -1.005,0.129 -3.219,-0.584 -3.219,-0.584 0.01,0.037 0.015,0.078 0.015,0.12 0,1.25 -1.068,1.964 -2.405,1.984 h 0.077 c -1.339,-0.02 -2.407,-0.796 -2.407,-1.984 0,-0.042 0.006,-0.083 0.016,-0.12 0,0 -2.213,0.713 -3.218,0.584 -2.787,-0.36 -3.344,1.76 -3.344,1.76 -1.058,1.885 1.458,2.12 2.36,3.713 0.661,1.161002 1.994,6.089002 2.057,9.339002 0.015,0.745 -1.303,2.765 -0.396,1.901 l 0.359,0.016 c 2.724,1.509 3.433,7.307 3.433,7.307 0,0 0.604,0.432 1.104,0.432"
     id="path20" />
  <path
     style="fill:none;stroke:#231f20;stroke-width:0.565977;stroke-linecap:round;stroke-linejoin:round;stroke-miterlimit:4;stroke-dasharray:none;stroke-opacity:1"
     d="m 53.036938,118.12403 c 0.495,0 1.099,-0.432 1.099,-0.432 0,0 0.708,-5.798 3.432,-7.307 l 0.36,-0.016 c 0.905,0.864 -0.412,-1.156 -0.396,-1.901 0.062,-3.25 1.396,-8.178 2.057,-9.339002 0.901,-1.593 3.479,-2.099 2.416,-3.989 0,0 -0.615,-1.844 -3.4,-1.484 -1.005,0.129 -3.219,-0.584 -3.219,-0.584 0.01,0.037 0.015,0.078 0.015,0.12 0,1.25 -1.068,1.964 -2.405,1.984 h 0.077 c -1.339,-0.02 -2.407,-0.796 -2.407,-1.984 0,-0.042 0.006,-0.083 0.016,-0.12 0,0 -2.213,0.713 -3.218,0.584 -2.787,-0.36 -3.344,1.76 -3.344,1.76 -1.058,1.885 1.458,2.12 2.36,3.713 0.661,1.161002 1.994,6.089002 2.057,9.339002 0.015,0.745 -1.303,2.765 -0.396,1.901 l 0.359,0.016 c 2.724,1.509 3.433,7.307 3.433,7.307 0,0 0.604,0.432 1.104,0.432 z"
     id="path21" />
  <path
     style="fill:#231f20;fill-opacity:1;fill-rule:nonzero;stroke:none"
     d="m 48.337938,153.14503 c -1.082,-0.006 0.527,-1.694 0.188,-3.178 -0.073,-0.301 0.058,-0.593 0.126,-0.89 0.281,-1.192 1.333,-2.255 2.916,0.286 0.218,0.36 0.234,2 0.614,2.495 0.902,1.167 0.667,1.536 -0.577,1.453 -0.396,-0.026 -3.267,-0.166 -3.267,-0.166"
     id="path22" />
  <path
     style="fill:none;stroke:#231f20;stroke-width:0.565977;stroke-linecap:round;stroke-linejoin:round;stroke-miterlimit:4;stroke-dasharray:none;stroke-opacity:1"
     d="m 48.337938,153.14503 c -1.082,-0.006 0.527,-1.694 0.188,-3.178 -0.073,-0.301 0.058,-0.593 0.126,-0.89 0.281,-1.192 1.333,-2.255 2.916,0.286 0.218,0.36 0.234,2 0.614,2.495 0.902,1.167 0.667,1.536 -0.577,1.453 -0.396,-0.026 -3.267,-0.166 -3.267,-0.166 z"
     id="path24" />
  <path
     style="fill:#ffffff;fill-opacity:1;fill-rule:nonzero;stroke:none"
     d="m 49.296938,87.582028 c -0.005,2.823 1.667,5.115 3.745,5.12 2.078,0.006 3.766,-2.281 3.771,-5.104 0.005,-2.822 -1.672,-5.12 -3.751,-5.12 -2.072,-0.005 -3.76,2.282 -3.765,5.104"
     id="path26" />
  <path
     style="fill:none;stroke:#231f20;stroke-width:0.565977;stroke-linecap:butt;stroke-linejoin:miter;stroke-miterlimit:4;stroke-dasharray:none;stroke-opacity:1"
     d="m 49.296938,87.582028 c -0.005,2.823 1.667,5.115 3.745,5.12 2.078,0.006 3.766,-2.281 3.771,-5.104 0.005,-2.822 -1.672,-5.12 -3.751,-5.12 -2.072,-0.005 -3.76,2.282 -3.765,5.104 z"
     id="path27" />
  <path
     style="fill:#231f20;fill-opacity:1;fill-rule:nonzero;stroke:none"
     d="m 49.744938,130.74303 c -2.245,-0.281 -2.896,-0.39 -2.812,2.11 0.02,0.636 0.208,2.401 0.115,2.781 -0.308,1.255 -0.558,2.745 1.104,9.12 0.26,0.989 0.426,2.953 0.661,4.339 0.229,1.338 2.296,0.052 2.213,-0.475 -0.27,-1.692 -0.078,-2.843 -0.088,-3.463 -0.01,-0.428 -0.162,-1.218 0.208,-2.844 0.959,-4.172 -0.193,-5.557 -0.068,-6.448 0.36,-2.562 1.188,-4.672 0.604,-5 -0.948,-0.526 -1.937,-0.12 -1.937,-0.12"
     id="path28" />
  <path
     style="fill:none;stroke:#231f20;stroke-width:0.565977;stroke-linecap:butt;stroke-linejoin:miter;stroke-miterlimit:4;stroke-dasharray:none;stroke-opacity:1"
     d="m 49.744938,130.74303 c -2.245,-0.281 -2.896,-0.39 -2.812,2.11 0.02,0.636 0.208,2.401 0.115,2.781 -0.308,1.255 -0.558,2.745 1.104,9.12 0.26,0.989 0.426,2.953 0.661,4.339 0.229,1.338 2.296,0.052 2.213,-0.475 -0.27,-1.692 -0.078,-2.843 -0.088,-3.463 -0.01,-0.428 -0.162,-1.218 0.208,-2.844 0.959,-4.172 -0.193,-5.557 -0.068,-6.448 0.36,-2.562 1.188,-4.672 0.604,-5 -0.948,-0.526 -1.937,-0.12 -1.937,-0.12 z"
     id="path29" />
  <path
     style="fill:#231f20;fill-opacity:1;fill-rule:nonzero;stroke:none"
     d="m 40.531938,84.921028 c 1.13,-0.636 1.786,1.292 2.036,1.776 0.25,0.479 1.12,1.771 1.932,2.688 0.808,0.921 1.428,2.411 2.958,4.161 0.803,0.916 1.006,2.328 -0.38,3.438 -1.364,1.098 -2.5,0.744 -3.306,-0.516 -0.808,-1.26 -1.038,-2.782 -1.762,-4.11 -0.724,-1.328 -1.588,-2.609 -2.306,-3.588 -0.828,-1.109 -0.823,-1.964 -0.584,-2.376 0.604,-1.03 1.412,-1.473 1.412,-1.473"
     id="path30" />
  <path
     style="fill:none;stroke:#231f20;stroke-width:0.565977;stroke-linecap:butt;stroke-linejoin:miter;stroke-miterlimit:4;stroke-dasharray:none;stroke-opacity:1"
     d="m 40.531938,84.921028 c 1.13,-0.636 1.786,1.292 2.036,1.776 0.25,0.479 1.12,1.771 1.932,2.688 0.808,0.921 1.428,2.411 2.958,4.161 0.803,0.916 1.006,2.328 -0.38,3.438 -1.364,1.098 -2.5,0.744 -3.306,-0.516 -0.808,-1.26 -1.038,-2.782 -1.762,-4.11 -0.724,-1.328 -1.588,-2.609 -2.306,-3.588 -0.828,-1.109 -0.823,-1.964 -0.584,-2.376 0.604,-1.03 1.412,-1.473 1.412,-1.473 z"
     id="path31" />
  <path
     style="fill:#231f20;fill-opacity:1;fill-rule:nonzero;stroke:none"
     d="m 47.291938,80.348028 c -0.64,0.052 -2.006,1.437 -3.484,2.068 -1.006,0.421 -2.932,2.078 -3.699,2.844 -0.072,0.082 -1.219,0.994 -1.067,1.953 0.104,0.672 0.448,1.577 0.954,1.52 1.186,-0.129 2.009,-0.593 2.817,-1.301 0.907,-0.803 3.187,-3.204 3.568,-3.683 0.943,-1.197 1.661,-1.369 1.937,-1.667 0.526,-0.546 0.443,-0.88 0.162,-1.302 -0.538,-0.791 -1.188,-0.432 -1.188,-0.432"
     id="path32" />
  <path
     style="fill:none;stroke:#231f20;stroke-width:0.565977;stroke-linecap:butt;stroke-linejoin:miter;stroke-miterlimit:4;stroke-dasharray:none;stroke-opacity:1"
     d="m 47.291938,80.348028 c -0.64,0.052 -2.006,1.437 -3.484,2.068 -1.006,0.421 -2.932,2.078 -3.699,2.844 -0.072,0.082 -1.219,0.994 -1.067,1.953 0.104,0.672 0.448,1.577 0.954,1.52 1.186,-0.129 2.009,-0.593 2.817,-1.301 0.907,-0.803 3.187,-3.204 3.568,-3.683 0.943,-1.197 1.661,-1.369 1.937,-1.667 0.526,-0.546 0.443,-0.88 0.162,-1.302 -0.538,-0.791 -1.188,-0.432 -1.188,-0.432 z"
     id="path33" />
  <path
     style="fill:#231f20;fill-opacity:1;fill-rule:nonzero;stroke:none"
     d="m 53.176938,76.473028 c -0.708,0.145 -3.489,1.833 -4.109,2.251 -0.558,0.364 -1.672,0.67 -1.506,1.817 0.068,0.459 0.491,1.088 0.73,1.296 0.198,0.172 0.51,0.084 0.822,-0.167 0.522,-0.421 0.506,-0.733 1.448,-1.604 0,0 0.194,-0.233 0.511,-0.676 0.953,-1.329 0.412,-0.834 2.219,-2.444 0.13,-0.113 0.109,-0.322 0.021,-0.405 -0.125,-0.125 -0.136,-0.068 -0.136,-0.068"
     id="path34" />
  <path
     style="fill:none;stroke:#231f20;stroke-width:0.565977;stroke-linecap:round;stroke-linejoin:round;stroke-miterlimit:4;stroke-dasharray:none;stroke-opacity:1"
     d="m 53.176938,76.473028 c -0.708,0.145 -3.489,1.833 -4.109,2.251 -0.558,0.364 -1.672,0.67 -1.506,1.817 0.068,0.459 0.491,1.088 0.73,1.296 0.198,0.172 0.51,0.084 0.822,-0.167 0.522,-0.421 0.506,-0.733 1.448,-1.604 0,0 0.194,-0.233 0.511,-0.676 0.953,-1.329 0.412,-0.834 2.219,-2.444 0.13,-0.113 0.109,-0.322 0.021,-0.405 -0.125,-0.125 -0.136,-0.068 -0.136,-0.068 z"
     id="path35" />
  <path
     style="fill:#231f20;fill-opacity:1;fill-rule:nonzero;stroke:none"
     d="m 65.181938,84.208028 c -1.15,-0.59 -1.734,1.364 -1.968,1.853 -0.229,0.491 -1.048,1.813 -1.818,2.767 -0.771,0.952 -1.328,2.468 -2.791,4.276 -0.767,0.953 -0.912,2.364 0.515,3.416 1.412,1.046 2.532,0.646 3.286,-0.646 0.756,-1.292 0.923,-2.822 1.594,-4.177 0.672,-1.355 1.48,-2.672 2.166,-3.677 0.782,-1.14 0.74,-1.995 0.486,-2.396 -0.647,-1.006 -1.47,-1.416 -1.47,-1.416"
     id="path36" />
  <path
     style="fill:none;stroke:#231f20;stroke-width:0.565977;stroke-linecap:butt;stroke-linejoin:miter;stroke-miterlimit:4;stroke-dasharray:none;stroke-opacity:1"
     d="m 65.181938,84.208028 c -1.15,-0.59 -1.734,1.364 -1.968,1.853 -0.229,0.491 -1.048,1.813 -1.818,2.767 -0.771,0.952 -1.328,2.468 -2.791,4.276 -0.767,0.953 -0.912,2.364 0.515,3.416 1.412,1.046 2.532,0.646 3.286,-0.646 0.756,-1.292 0.923,-2.822 1.594,-4.177 0.672,-1.355 1.48,-2.672 2.166,-3.677 0.782,-1.14 0.74,-1.995 0.486,-2.396 -0.647,-1.006 -1.47,-1.416 -1.47,-1.416 z"
     id="path37" />
  <path
     style="fill:#231f20;fill-opacity:1;fill-rule:nonzero;stroke:none"
     d="m 58.525938,79.733028 c 0.64,0.047 2.006,1.437 3.495,2.057 1,0.423 3.136,2.063 3.823,2.902 0.422,0.505 1.032,1.412 0.917,1.833 -0.177,0.656 -0.417,1.631 -0.923,1.579 -1.181,-0.131 -2.009,-0.59 -2.817,-1.298 -0.912,-0.802 -3.197,-3.197 -3.579,-3.672 -0.942,-1.202 -1.661,-1.369 -1.942,-1.661 -0.52,-0.552 -0.443,-0.891 -0.162,-1.307 0.543,-0.792 1.188,-0.433 1.188,-0.433"
     id="path38" />
  <path
     style="fill:none;stroke:#231f20;stroke-width:0.565977;stroke-linecap:butt;stroke-linejoin:miter;stroke-miterlimit:4;stroke-dasharray:none;stroke-opacity:1"
     d="m 58.525938,79.733028 c 0.64,0.047 2.006,1.437 3.495,2.057 1,0.423 3.136,2.063 3.823,2.902 0.422,0.505 1.032,1.412 0.917,1.833 -0.177,0.656 -0.417,1.631 -0.923,1.579 -1.181,-0.131 -2.009,-0.59 -2.817,-1.298 -0.912,-0.802 -3.197,-3.197 -3.579,-3.672 -0.942,-1.202 -1.661,-1.369 -1.942,-1.661 -0.52,-0.552 -0.443,-0.891 -0.162,-1.307 0.543,-0.792 1.188,-0.433 1.188,-0.433 z"
     id="path39" />
  <path
     style="fill:#231f20;fill-opacity:1;fill-rule:nonzero;stroke:none"
     d="m 52.635938,75.869028 c 0.708,0.14 3.494,1.823 4.114,2.235 0.552,0.369 1.667,0.676 1.506,1.817 -0.068,0.464 -0.484,1.093 -0.724,1.301 -0.199,0.168 -0.516,0.09 -0.828,-0.165 -0.516,-0.417 -0.5,-0.74 -1.448,-1.6 0,0 -0.194,-0.235 -0.516,-0.677 -0.954,-1.328 -0.407,-0.834 -2.219,-2.438 -0.131,-0.114 -0.109,-0.328 -0.025,-0.41 0.129,-0.12 0.14,-0.063 0.14,-0.063"
     id="path40" />
  <path
     style="fill:none;stroke:#231f20;stroke-width:0.565977;stroke-linecap:round;stroke-linejoin:round;stroke-miterlimit:4;stroke-dasharray:none;stroke-opacity:1"
     d="m 52.635938,75.869028 c 0.708,0.14 3.494,1.823 4.114,2.235 0.552,0.369 1.667,0.676 1.506,1.817 -0.068,0.464 -0.484,1.093 -0.724,1.301 -0.199,0.168 -0.516,0.09 -0.828,-0.165 -0.516,-0.417 -0.5,-0.74 -1.448,-1.6 0,0 -0.194,-0.235 -0.516,-0.677 -0.954,-1.328 -0.407,-0.834 -2.219,-2.438 -0.131,-0.114 -0.109,-0.328 -0.025,-0.41 0.129,-0.12 0.14,-0.063 0.14,-0.063 z"
     id="path41" />
  <path
     style="fill:#ffffff;fill-opacity:1;fill-rule:nonzero;stroke:none"
     d="m 48.165938,109.54103 c -0.208,0.281 -0.858,1.489 -1.025,1.921 -1.099,2.76 -1.011,6.708 -1.281,7.954 -0.276,1.245 6.317,1.187 6.317,1.187 l 0.48,-1.895 c 0.448,0.432 0.984,0.01 0.984,0.01 l 0.453,1.963 c 0,0 6.458,0.256 6.307,-0.744 -0.203,-1.381 -0.287,-6.011 -1.219,-8.271 -0.516,-1.245 -1.292,-1.917 -1.292,-1.917 0,0 -3.645,1.084 -5.066,1.084 -1.428,0 -4.658,-1.292 -4.658,-1.292"
     id="path42" />
  <path
     style="fill:none;stroke:#231f20;stroke-width:0.565977;stroke-linecap:round;stroke-linejoin:round;stroke-miterlimit:4;stroke-dasharray:none;stroke-opacity:1"
     d="m 48.165938,109.54103 c -0.208,0.281 -0.858,1.489 -1.025,1.921 -1.099,2.76 -1.011,6.708 -1.281,7.954 -0.276,1.245 6.317,1.187 6.317,1.187 l 0.48,-1.895 c 0.448,0.432 0.984,0.01 0.984,0.01 l 0.453,1.963 c 0,0 6.458,0.256 6.307,-0.744 -0.203,-1.381 -0.287,-6.011 -1.219,-8.271 -0.516,-1.245 -1.292,-1.917 -1.292,-1.917 0,0 -3.645,1.084 -5.066,1.084 -1.428,0 -4.658,-1.292 -4.658,-1.292 z"
     id="path43" />
  <path
     style="fill:#231f20;fill-opacity:1;fill-rule:nonzero;stroke:none"
     d="m 4.2179376,117.05203 c -1.041,-0.866 -0.713,-1.803 0.178,-2.334 0.261,-0.162 0.328,-0.573 0.6,-0.704 0.629,-0.312 2.259,0.314 2.082,1.803 -0.011,0.109 0.146,0.911 0.162,1.531 0.041,1.213 -0.468,3.655 -2.74,5.114 -1.072,0.693 -1.282,-0.072 -0.933,-0.484 1.11,-1.303 0.954,-1.636 1.121,-2.078 0.573,-1.52 -0.47,-2.848 -0.47,-2.848"
     id="path44" />
  <path
     style="fill:none;stroke:#231f20;stroke-width:0.332927;stroke-linecap:butt;stroke-linejoin:miter;stroke-miterlimit:4;stroke-dasharray:none;stroke-opacity:1"
     d="m 4.2179376,117.05203 c -1.041,-0.866 -0.713,-1.803 0.178,-2.334 0.261,-0.162 0.328,-0.573 0.6,-0.704 0.629,-0.312 2.259,0.314 2.082,1.803 -0.011,0.109 0.146,0.911 0.162,1.531 0.041,1.213 -0.468,3.655 -2.74,5.114 -1.072,0.693 -1.282,-0.072 -0.933,-0.484 1.11,-1.303 0.954,-1.636 1.121,-2.078 0.573,-1.52 -0.47,-2.848 -0.47,-2.848 z"
     id="path45" />
  <path
     style="fill:#231f20;fill-opacity:1;fill-rule:nonzero;stroke:none"
     d="m 6.6979376,98.468028 c -2.229,-0.396 -2.719,-0.172 -2.948,0.754 -0.156,0.62 -0.51,1.142002 -0.62,1.516002 -0.369,1.246 -0.484,3.484 0.86,9.932 0.307,1.459 0.719,3.516 0.823,4.366 0.161,1.349 2.287,0.166 2.229,-0.36 -0.182,-1.703 -0.171,-2.896 -0.157,-3.515 0.011,-0.428 -0.067,-1.188 0.193,-2.828 0.391,-2.5 0.995,-3.939 1.084,-6.048 0.042,-0.984 0.692,-1.697 0.239,-2.681002 -0.448,-0.986 -1.703,-1.136 -1.703,-1.136"
     id="path46" />
  <path
     style="fill:none;stroke:#231f20;stroke-width:0.565977;stroke-linecap:butt;stroke-linejoin:miter;stroke-miterlimit:4;stroke-dasharray:none;stroke-opacity:1"
     d="m 6.6979376,98.468028 c -2.229,-0.396 -2.719,-0.172 -2.948,0.754 -0.156,0.62 -0.51,1.142002 -0.62,1.516002 -0.369,1.246 -0.484,3.484 0.86,9.932 0.307,1.459 0.719,3.516 0.823,4.366 0.161,1.349 2.287,0.166 2.229,-0.36 -0.182,-1.703 -0.171,-2.896 -0.157,-3.515 0.011,-0.428 -0.067,-1.188 0.193,-2.828 0.391,-2.5 0.995,-3.939 1.084,-6.048 0.042,-0.984 0.692,-1.697 0.239,-2.681002 -0.448,-0.986 -1.703,-1.136 -1.703,-1.136 z"
     id="path47" />
  <path
     style="fill:#ca0369;fill-opacity:1;fill-rule:nonzero;stroke:none"
     d="m 4.7449376,72.546028 c -0.068,3.135 -0.432,3.796 -0.812,4.635 -2.385,5.265 0.244,6.339 3.093,5.88 3.3500004,-0.536 4.5580004,-0.661 4.0990004,-6.943 -0.129,-1.744 0.256,-8.509 0.256,-8.509 0.463,-2.401 -0.371,-4.9907 -1.5520004,-5.8334 -1.251,-0.8906 -0.824,-0.448 -2.131,-1.0626 -1.245,-0.584 -3.422,-0.376 -4.131,0.64 -0.682,0.9693 0.006,2.4893 0.709,4.813 0.553,1.828 0.469,6.38 0.469,6.38"
     id="path48" />
  <path
     style="fill:none;stroke:#231f20;stroke-width:0.565977;stroke-linecap:butt;stroke-linejoin:miter;stroke-miterlimit:4;stroke-dasharray:none;stroke-opacity:1"
     d="m 4.7449376,72.546028 c -0.068,3.135 -0.432,3.796 -0.812,4.635 -2.385,5.265 0.244,6.339 3.093,5.88 3.3500004,-0.536 4.5580004,-0.661 4.0990004,-6.943 -0.129,-1.744 0.256,-8.509 0.256,-8.509 0.463,-2.401 -0.371,-4.9907 -1.5520004,-5.8334 -1.251,-0.8906 -0.824,-0.448 -2.131,-1.0626 -1.245,-0.584 -3.422,-0.376 -4.131,0.64 -0.682,0.9693 0.006,2.4893 0.709,4.813 0.553,1.828 0.469,6.38 0.469,6.38 z"
     id="path49" />
  <path
     style="fill:#ffffff;fill-opacity:1;fill-rule:nonzero;stroke:none"
     d="m 10.113938,54.759728 c 0.052,-0.24 1.199,-0.328 1.199,-0.8494 0,-0.5253 -0.765,-0.724 -1.6150004,-2.5253 l -0.005,-0.0213 c -0.573,-1.3334 -1.615,-2.26 -2.864,-2.36 -2.068,-0.1707 -3.933,1.9693 -4.167,4.7813 -0.234,2.8187 1.255,5.24 3.328,5.4067 1.979,0.1666 3.776,-1.7974 4.1240004,-4.432"
     id="path50" />
  <path
     style="fill:none;stroke:#231f20;stroke-width:0.565977;stroke-linecap:butt;stroke-linejoin:miter;stroke-miterlimit:4;stroke-dasharray:none;stroke-opacity:1"
     d="m 10.113938,54.759728 c 0.052,-0.24 1.199,-0.328 1.199,-0.8494 0,-0.5253 -0.765,-0.724 -1.6150004,-2.5253 l -0.005,-0.0213 c -0.573,-1.3334 -1.615,-2.26 -2.864,-2.36 -2.068,-0.1707 -3.933,1.9693 -4.167,4.7813 -0.234,2.8187 1.255,5.24 3.328,5.4067 1.979,0.1666 3.776,-1.7974 4.1240004,-4.432 z"
     id="path51" />
  <path
     style="fill:#231f20;fill-opacity:1;fill-rule:nonzero;stroke:none"
     d="m 5.7199376,100.73803 c 3.874,1.038 3.052,-2.962002 3.176,-3.421002 1.3180004,-4.833 1.2920004,-5.213 2.0370004,-8.964 1.077,-5.421 0.984,-9.301 -1.9850004,-10.849 -2.015,-1.052 -3.63,-0.78 -4.63,0.078 -1.1,0.954 -2.276,3.907 -0.578,6.246 l 0.125,1.708 c -0.063,1.161 -0.089,1.74 -0.161,2.306 -0.137,0.995 -0.214,2.063 -0.366,4.016 -0.271,3.464 0.579,7.208 0.579,7.208 -0.063,1.246002 1.803,1.672002 1.803,1.672002"
     id="path52" />
  <path
     style="fill:none;stroke:#231f20;stroke-width:0.565977;stroke-linecap:butt;stroke-linejoin:miter;stroke-miterlimit:4;stroke-dasharray:none;stroke-opacity:1"
     d="m 5.7199376,100.73803 c 3.874,1.038 3.052,-2.962002 3.176,-3.421002 1.3180004,-4.833 1.2920004,-5.213 2.0370004,-8.964 1.077,-5.421 0.984,-9.301 -1.9850004,-10.849 -2.015,-1.052 -3.63,-0.78 -4.63,0.078 -1.1,0.954 -2.276,3.907 -0.578,6.246 l 0.125,1.708 c -0.063,1.161 -0.089,1.74 -0.161,2.306 -0.137,0.995 -0.214,2.063 -0.366,4.016 -0.271,3.464 0.579,7.208 0.579,7.208 -0.063,1.246002 1.803,1.672002 1.803,1.672002 z"
     id="path53" />
  <path
     style="fill:#ca0369;fill-opacity:1;fill-rule:nonzero;stroke:none"
     d="m 11.328938,80.853028 c -0.339,-1.52 -1.073,-2.667 -2.3810004,-3.349 -2.015,-1.052 -3.63,-0.786 -4.63,0.078 -1.104,0.954 -2.276,3.907 -0.578,6.246 l 7.7020004,1.312 c 0.068,-0.651 0.1,-1.26 0.106,-1.844 0.03,-0.078 0.057,-0.151 0.088,-0.214 0.374,-0.713 0.136,-1.292 -0.307,-2.229"
     id="path54" />
  <path
     style="fill:none;stroke:#231f20;stroke-width:0.565977;stroke-linecap:butt;stroke-linejoin:miter;stroke-miterlimit:4;stroke-dasharray:none;stroke-opacity:1"
     d="m 11.328938,80.853028 c -0.339,-1.52 -1.073,-2.667 -2.3810004,-3.349 -2.015,-1.052 -3.63,-0.786 -4.63,0.078 -1.104,0.954 -2.276,3.907 -0.578,6.246 l 7.7020004,1.312 c 0.068,-0.651 0.1,-1.26 0.106,-1.844 0.03,-0.078 0.057,-0.151 0.088,-0.214 0.374,-0.713 0.136,-1.292 -0.307,-2.229 z"
     id="path55" />
  <path
     style="fill:#231f20;fill-opacity:1;fill-rule:nonzero;stroke:none"
     d="m 6.8959376,42.675728 c 0.37,0.5267 0.177,2.464 0.636,4.0053 0.312,1.0373 -0.036,3.7613 0.349,4.776 0.353,0.928 0.432,1.3853 -0.563,1.9747 -0.584,0.348 -1.937,0.64 -2.218,0.2133 -0.658,-0.9947 -0.824,-1.9267 -0.798,-2.9947 0.042,-1.2133 0.432,-4.5053 0.558,-5.1039 0.323,-1.4854 0,-2.152 0.046,-2.552 0.09,-0.756 0.402,-0.9067 0.902,-0.9534 0.953,-0.0946 1.088,0.6347 1.088,0.6347"
     id="path56" />
  <path
     style="fill:none;stroke:#231f20;stroke-width:0.565977;stroke-linecap:butt;stroke-linejoin:miter;stroke-miterlimit:4;stroke-dasharray:none;stroke-opacity:1"
     d="m 6.8959376,42.675728 c 0.37,0.5267 0.177,2.464 0.636,4.0053 0.312,1.0373 -0.036,3.7613 0.349,4.776 0.353,0.928 0.432,1.3853 -0.563,1.9747 -0.584,0.348 -1.937,0.64 -2.218,0.2133 -0.658,-0.9947 -0.824,-1.9267 -0.798,-2.9947 0.042,-1.2133 0.432,-4.5053 0.558,-5.1039 0.323,-1.4854 0,-2.152 0.046,-2.552 0.09,-0.756 0.402,-0.9067 0.902,-0.9534 0.953,-0.0946 1.088,0.6347 1.088,0.6347 z"
     id="path57" />
  <path
     style="fill:#231f20;fill-opacity:1;fill-rule:nonzero;stroke:none"
     d="m 7.2659376,51.727728 c 1.291,0.0893 0.782,2.0626 0.73,2.6 -0.054,0.5413 -0.038,2.0986 0.134,3.3066 0.167,1.2134 -0.134,2.8027 0.183,5.104 0.172,1.2133 -0.432,2.4997 -2.204,2.6667 -1.744,0.167 -2.5,-0.755 -2.479,-2.2494 0.016,-1.4946 0.667,-2.896 0.787,-4.4013 0.125,-1.5053 0.109,-3.052 0.042,-4.2653 -0.078,-1.38 0.395,-2.0947 0.822,-2.308 1.068,-0.5253 1.985,-0.4533 1.985,-0.4533"
     id="path58" />
  <path
     style="fill:none;stroke:#231f20;stroke-width:0.565977;stroke-linecap:butt;stroke-linejoin:miter;stroke-miterlimit:4;stroke-dasharray:none;stroke-opacity:1"
     d="m 7.2659376,51.727728 c 1.291,0.0893 0.782,2.0626 0.73,2.6 -0.054,0.5413 -0.038,2.0986 0.134,3.3066 0.167,1.2134 -0.134,2.8027 0.183,5.104 0.172,1.2133 -0.432,2.4997 -2.204,2.6667 -1.744,0.167 -2.5,-0.755 -2.479,-2.2494 0.016,-1.4946 0.667,-2.896 0.787,-4.4013 0.125,-1.5053 0.109,-3.052 0.042,-4.2653 -0.078,-1.38 0.395,-2.0947 0.822,-2.308 1.068,-0.5253 1.985,-0.4533 1.985,-0.4533 z"
     id="path59" />
  <path
     style="fill:#231f20;fill-opacity:1;fill-rule:nonzero;stroke:none"
     d="m 5.0099376,42.666428 c -0.645,-0.272 -0.812,-2.5787 -0.52,-2.704 0.291,-0.1254 0.265,0.6413 0.599,0.516 0.333,-0.1254 0.276,-0.6254 0.505,-0.6414 0.25,-0.02 0.224,0.584 0.52,0.5 0.12,-0.036 0.355,-0.5826 0.538,-0.5413 0.166,0.0373 0.348,0.5267 0.478,0.5627 0.208,0.0573 0.287,-0.552 0.459,-0.5214 0.459,0.084 -0.24,2.704 -0.453,2.8134 -0.318,0.1613 -1.083,0.4533 -2.126,0.016"
     id="path60" />
  <path
     style="fill:none;stroke:#231f20;stroke-width:0.565977;stroke-linecap:round;stroke-linejoin:round;stroke-miterlimit:4;stroke-dasharray:none;stroke-opacity:1"
     d="m 5.0099376,42.666428 c -0.645,-0.272 -0.812,-2.5787 -0.52,-2.704 0.291,-0.1254 0.265,0.6413 0.599,0.516 0.333,-0.1254 0.276,-0.6254 0.505,-0.6414 0.25,-0.02 0.224,0.584 0.52,0.5 0.12,-0.036 0.355,-0.5826 0.538,-0.5413 0.166,0.0373 0.348,0.5267 0.478,0.5627 0.208,0.0573 0.287,-0.552 0.459,-0.5214 0.459,0.084 -0.24,2.704 -0.453,2.8134 -0.318,0.1613 -1.083,0.4533 -2.126,0.016 z"
     id="path61" />
  <path
     style="fill:#231f20;fill-opacity:1;fill-rule:nonzero;stroke:none"
     d="m 149.08894,74.186028 c -1.042,-0.869 -0.714,-1.806 0.177,-2.338 0.26,-0.156 0.328,-0.568 0.599,-0.703 0.63,-0.308 2.26,0.317 2.082,1.807 -0.009,0.109 0.142,0.912 0.162,1.532 0.042,1.208 -0.468,3.656 -2.739,5.114 -1.073,0.687 -1.281,-0.073 -0.932,-0.485 1.109,-1.301 0.952,-1.635 1.119,-2.083 0.573,-1.516 -0.468,-2.844 -0.468,-2.844"
     id="path62" />
  <path
     style="fill:none;stroke:#231f20;stroke-width:0.332927;stroke-linecap:butt;stroke-linejoin:miter;stroke-miterlimit:4;stroke-dasharray:none;stroke-opacity:1"
     d="m 149.08894,74.186028 c -1.042,-0.869 -0.714,-1.806 0.177,-2.338 0.26,-0.156 0.328,-0.568 0.599,-0.703 0.63,-0.308 2.26,0.317 2.082,1.807 -0.009,0.109 0.142,0.912 0.162,1.532 0.042,1.208 -0.468,3.656 -2.739,5.114 -1.073,0.687 -1.281,-0.073 -0.932,-0.485 1.109,-1.301 0.952,-1.635 1.119,-2.083 0.573,-1.516 -0.468,-2.844 -0.468,-2.844 z"
     id="path63" />
  <path
     style="fill:#231f20;fill-opacity:1;fill-rule:nonzero;stroke:none"
     d="m 151.56694,55.598328 c -2.229,-0.396 -2.718,-0.172 -2.948,0.76 -0.156,0.6147 -0.51,1.1414 -0.62,1.5107 -0.374,1.244 -0.484,3.484 0.86,9.932 0.307,1.464 0.719,3.516 0.823,4.369 0.161,1.35 2.292,0.167 2.235,-0.364 -0.188,-1.702 -0.178,-2.89 -0.162,-3.516 0.011,-0.426 -0.068,-1.181 0.187,-2.828 0.396,-2.4944 1,-3.9317 1.089,-6.0463 0.042,-0.9787 0.692,-1.692 0.24,-2.6774 -0.448,-0.9893 -1.704,-1.14 -1.704,-1.14"
     id="path64" />
  <path
     style="fill:none;stroke:#231f20;stroke-width:0.565977;stroke-linecap:butt;stroke-linejoin:miter;stroke-miterlimit:4;stroke-dasharray:none;stroke-opacity:1"
     d="m 151.56694,55.598328 c -2.229,-0.396 -2.718,-0.172 -2.948,0.76 -0.156,0.6147 -0.51,1.1414 -0.62,1.5107 -0.374,1.244 -0.484,3.484 0.86,9.932 0.307,1.464 0.719,3.516 0.823,4.369 0.161,1.35 2.292,0.167 2.235,-0.364 -0.188,-1.702 -0.178,-2.89 -0.162,-3.516 0.011,-0.426 -0.068,-1.181 0.187,-2.828 0.396,-2.4944 1,-3.9317 1.089,-6.0463 0.042,-0.9787 0.692,-1.692 0.24,-2.6774 -0.448,-0.9893 -1.704,-1.14 -1.704,-1.14 z"
     id="path65" />
  <path
     style="fill:#ca0369;fill-opacity:1;fill-rule:nonzero;stroke:none"
     d="m 149.60894,29.681128 c -0.067,3.1306 -0.427,3.7973 -0.802,4.6359 -2.39,5.2654 0.24,6.3334 3.088,5.8747 3.35,-0.536 4.558,-0.6613 4.1,-6.9373 -0.13,-1.7453 0.255,-8.5107 0.255,-8.5107 0.464,-2.4013 -0.365,-4.9946 -1.552,-5.8386 -1.251,-0.8907 -0.823,-0.4427 -2.131,-1.0573 -1.244,-0.5827 -3.421,-0.3747 -4.129,0.636 -0.683,0.9733 0.004,2.4946 0.708,4.8119 0.552,1.8334 0.463,6.3854 0.463,6.3854"
     id="path66" />
  <path
     style="fill:none;stroke:#231f20;stroke-width:0.565977;stroke-linecap:butt;stroke-linejoin:miter;stroke-miterlimit:4;stroke-dasharray:none;stroke-opacity:1"
     d="m 149.60894,29.681128 c -0.067,3.1306 -0.427,3.7973 -0.802,4.6359 -2.39,5.2654 0.24,6.3334 3.088,5.8747 3.35,-0.536 4.558,-0.6613 4.1,-6.9373 -0.13,-1.7453 0.255,-8.5107 0.255,-8.5107 0.464,-2.4013 -0.365,-4.9946 -1.552,-5.8386 -1.251,-0.8907 -0.823,-0.4427 -2.131,-1.0573 -1.244,-0.5827 -3.421,-0.3747 -4.129,0.636 -0.683,0.9733 0.004,2.4946 0.708,4.8119 0.552,1.8334 0.463,6.3854 0.463,6.3854 z"
     id="path67" />
  <path
     style="fill:#ffffff;fill-opacity:1;fill-rule:nonzero;stroke:none"
     d="m 154.98494,11.889128 c 0.046,-0.2387 1.192,-0.3227 1.192,-0.848 0,-0.5213 -0.76,-0.724 -1.61,-2.5267 l -0.005,-0.0146 c -0.577,-1.3387 -1.615,-2.2613 -2.864,-2.3653 -2.068,-0.172 -3.937,1.9746 -4.167,4.7866 -0.234,2.812 1.255,5.2347 3.323,5.4067 1.984,0.1613 3.781,-1.7974 4.131,-4.4387"
     id="path68" />
  <path
     style="fill:none;stroke:#231f20;stroke-width:0.565977;stroke-linecap:butt;stroke-linejoin:miter;stroke-miterlimit:4;stroke-dasharray:none;stroke-opacity:1"
     d="m 154.98494,11.889128 c 0.046,-0.2387 1.192,-0.3227 1.192,-0.848 0,-0.5213 -0.76,-0.724 -1.61,-2.5267 l -0.005,-0.0146 c -0.577,-1.3387 -1.615,-2.2613 -2.864,-2.3653 -2.068,-0.172 -3.937,1.9746 -4.167,4.7866 -0.234,2.812 1.255,5.2347 3.323,5.4067 1.984,0.1613 3.781,-1.7974 4.131,-4.4387 z"
     id="path69" />
  <path
     style="fill:#231f20;fill-opacity:1;fill-rule:nonzero;stroke:none"
     d="m 150.58894,57.869028 c 3.874,1.036 3.052,-2.9587 3.177,-3.4227 1.317,-4.8333 1.291,-5.2133 2.036,-8.9626 1.079,-5.4227 0.984,-9.2973 -1.984,-10.8493 -2.021,-1.0467 -3.631,-0.7814 -4.631,0.0786 -1.104,0.9574 -2.276,3.9107 -0.578,6.2494 l 0.125,1.704 c -0.063,1.1613 -0.088,1.7386 -0.161,2.3066 -0.135,0.9947 -0.214,2.068 -0.364,4.0213 -0.271,3.4574 0.577,7.208 0.577,7.208 -0.063,1.24 1.803,1.6667 1.803,1.6667"
     id="path70" />
  <path
     style="fill:none;stroke:#231f20;stroke-width:0.565977;stroke-linecap:butt;stroke-linejoin:miter;stroke-miterlimit:4;stroke-dasharray:none;stroke-opacity:1"
     d="m 150.58894,57.869028 c 3.874,1.036 3.052,-2.9587 3.177,-3.4227 1.317,-4.8333 1.291,-5.2133 2.036,-8.9626 1.079,-5.4227 0.984,-9.2973 -1.984,-10.8493 -2.021,-1.0467 -3.631,-0.7814 -4.631,0.0786 -1.104,0.9574 -2.276,3.9107 -0.578,6.2494 l 0.125,1.704 c -0.063,1.1613 -0.088,1.7386 -0.161,2.3066 -0.135,0.9947 -0.214,2.068 -0.364,4.0213 -0.271,3.4574 0.577,7.208 0.577,7.208 -0.063,1.24 1.803,1.6667 1.803,1.6667 z"
     id="path71" />
  <path
     style="fill:#ca0369;fill-opacity:1;fill-rule:nonzero;stroke:none"
     d="m 156.19794,37.983728 c -0.339,-1.516 -1.073,-2.6667 -2.38,-3.3493 -2.021,-1.0467 -3.631,-0.7814 -4.631,0.0786 -1.104,0.9574 -2.276,3.9107 -0.578,6.244 l 7.704,1.3187 c 0.068,-0.6573 0.098,-1.2613 0.104,-1.8493 0.03,-0.0734 0.057,-0.1507 0.088,-0.2134 0.376,-0.7093 0.136,-1.292 -0.307,-2.2293"
     id="path72" />
  <path
     style="fill:none;stroke:#231f20;stroke-width:0.565977;stroke-linecap:butt;stroke-linejoin:miter;stroke-miterlimit:4;stroke-dasharray:none;stroke-opacity:1"
     d="m 156.19794,37.983728 c -0.339,-1.516 -1.073,-2.6667 -2.38,-3.3493 -2.021,-1.0467 -3.631,-0.7814 -4.631,0.0786 -1.104,0.9574 -2.276,3.9107 -0.578,6.244 l 7.704,1.3187 c 0.068,-0.6573 0.098,-1.2613 0.104,-1.8493 0.03,-0.0734 0.057,-0.1507 0.088,-0.2134 0.376,-0.7093 0.136,-1.292 -0.307,-2.2293 z"
     id="path73" />
  <path
     style="fill:#231f20;fill-opacity:1;fill-rule:nonzero;stroke:none"
     d="m 150.86994,40.670428 c -0.38,-0.5147 -0.213,-2.4574 -0.704,-3.9894 -0.333,-1.0306 -0.031,-3.7599 -0.432,-4.7653 -0.375,-0.9266 -0.459,-1.38 0.527,-1.9893 0.577,-0.3547 1.926,-0.672 2.218,-0.2507 0.667,0.98 0.854,1.912 0.844,2.98 -0.016,1.2133 -0.349,4.5107 -0.469,5.1093 -0.292,1.4947 0.041,2.1507 0,2.5574 -0.073,0.7546 -0.38,0.9106 -0.885,0.968 -0.948,0.1093 -1.099,-0.62 -1.099,-0.62"
     id="path74" />
  <path
     style="fill:none;stroke:#231f20;stroke-width:0.565977;stroke-linecap:butt;stroke-linejoin:miter;stroke-miterlimit:4;stroke-dasharray:none;stroke-opacity:1"
     d="m 150.86994,40.670428 c -0.38,-0.5147 -0.213,-2.4574 -0.704,-3.9894 -0.333,-1.0306 -0.031,-3.7599 -0.432,-4.7653 -0.375,-0.9266 -0.459,-1.38 0.527,-1.9893 0.577,-0.3547 1.926,-0.672 2.218,-0.2507 0.667,0.98 0.854,1.912 0.844,2.98 -0.016,1.2133 -0.349,4.5107 -0.469,5.1093 -0.292,1.4947 0.041,2.1507 0,2.5574 -0.073,0.7546 -0.38,0.9106 -0.885,0.968 -0.948,0.1093 -1.099,-0.62 -1.099,-0.62 z"
     id="path75" />
  <path
     style="fill:#231f20;fill-opacity:1;fill-rule:nonzero;stroke:none"
     d="m 150.34294,31.629128 c -1.29,-0.068 -0.817,-2.0467 -0.776,-2.5827 0.047,-0.5467 0,-2.1 -0.192,-3.308 -0.188,-1.208 0.088,-2.8013 -0.276,-5.0987 -0.188,-1.2079 0.391,-2.5053 2.156,-2.7026 1.744,-0.1987 2.516,0.708 2.52,2.2027 0.011,1.4999 -0.613,2.9066 -0.708,4.4159 -0.098,1.5107 -0.057,3.0534 0.038,4.2667 0.098,1.38 -0.36,2.0987 -0.782,2.3173 -1.062,0.5467 -1.98,0.4894 -1.98,0.4894"
     id="path76" />
  <path
     style="fill:none;stroke:#231f20;stroke-width:0.565977;stroke-linecap:butt;stroke-linejoin:miter;stroke-miterlimit:4;stroke-dasharray:none;stroke-opacity:1"
     d="m 150.34294,31.629128 c -1.29,-0.068 -0.817,-2.0467 -0.776,-2.5827 0.047,-0.5467 0,-2.1 -0.192,-3.308 -0.188,-1.208 0.088,-2.8013 -0.276,-5.0987 -0.188,-1.2079 0.391,-2.5053 2.156,-2.7026 1.744,-0.1987 2.516,0.708 2.52,2.2027 0.011,1.4999 -0.613,2.9066 -0.708,4.4159 -0.098,1.5107 -0.057,3.0534 0.038,4.2667 0.098,1.38 -0.36,2.0987 -0.782,2.3173 -1.062,0.5467 -1.98,0.4894 -1.98,0.4894 z"
     id="path77" />
  <path
     style="fill:#231f20;fill-opacity:1;fill-rule:nonzero;stroke:none"
     d="m 51.151938,97.604028 c -1.038,-0.866 -0.714,-1.803 0.177,-2.334 0.265,-0.161 0.328,-0.568 0.604,-0.704 0.629,-0.312 2.26,0.319 2.077,1.803 -0.01,0.109 0.147,0.916 0.167,1.536 0.037,1.208 -0.473,3.656002 -2.744,5.109002 -1.073,0.694 -1.281,-0.068 -0.933,-0.484 1.109,-1.302 0.953,-1.63 1.12,-2.078 0.573,-1.520002 -0.468,-2.848002 -0.468,-2.848002"
     id="path78" />
  <path
     style="fill:none;stroke:#231f20;stroke-width:0.332927;stroke-linecap:butt;stroke-linejoin:miter;stroke-miterlimit:4;stroke-dasharray:none;stroke-opacity:1"
     d="m 51.151938,97.604028 c -1.038,-0.866 -0.714,-1.803 0.177,-2.334 0.265,-0.161 0.328,-0.568 0.604,-0.704 0.629,-0.312 2.26,0.319 2.077,1.803 -0.01,0.109 0.147,0.916 0.167,1.536 0.037,1.208 -0.473,3.656002 -2.744,5.109002 -1.073,0.694 -1.281,-0.068 -0.933,-0.484 1.109,-1.302 0.953,-1.63 1.12,-2.078 0.573,-1.520002 -0.468,-2.848002 -0.468,-2.848002 z"
     id="path79" />
  <path
     style="fill:#231f20;fill-opacity:1;fill-rule:nonzero;stroke:none"
     d="m 53.629938,79.020028 c -2.229,-0.396 -2.718,-0.172 -2.948,0.756 -0.156,0.618 -0.505,1.145 -0.62,1.514 -0.369,1.246 -0.484,3.486 0.86,9.932 0.307,1.464 0.724,3.516 0.823,4.366 0.161,1.349 2.292,0.172 2.235,-0.36 -0.188,-1.703 -0.178,-2.895 -0.162,-3.515 0.015,-0.428 -0.068,-1.188 0.192,-2.828 0.396,-2.495 1,-3.933 1.084,-6.048 0.042,-0.979 0.692,-1.692 0.244,-2.676 -0.453,-0.991 -1.708,-1.141 -1.708,-1.141"
     id="path80" />
  <path
     style="fill:none;stroke:#231f20;stroke-width:0.565977;stroke-linecap:butt;stroke-linejoin:miter;stroke-miterlimit:4;stroke-dasharray:none;stroke-opacity:1"
     d="m 53.629938,79.020028 c -2.229,-0.396 -2.718,-0.172 -2.948,0.756 -0.156,0.618 -0.505,1.145 -0.62,1.514 -0.369,1.246 -0.484,3.486 0.86,9.932 0.307,1.464 0.724,3.516 0.823,4.366 0.161,1.349 2.292,0.172 2.235,-0.36 -0.188,-1.703 -0.178,-2.895 -0.162,-3.515 0.015,-0.428 -0.068,-1.188 0.192,-2.828 0.396,-2.495 1,-3.933 1.084,-6.048 0.042,-0.979 0.692,-1.692 0.244,-2.676 -0.453,-0.991 -1.708,-1.141 -1.708,-1.141 z"
     id="path81" />
  <path
     style="fill:#ca0369;fill-opacity:1;fill-rule:nonzero;stroke:none"
     d="m 51.676938,53.098328 c -0.068,3.1347 -0.427,3.8014 -0.807,4.6347 -2.385,5.2666 0.239,6.3386 3.088,5.88 3.35,-0.536 4.558,-0.6614 4.099,-6.9427 -0.124,-1.744 0.256,-8.504 0.256,-8.504 0.463,-2.4066 -0.365,-4.9959 -1.552,-5.8386 -1.251,-0.8907 -0.819,-0.448 -2.131,-1.0573 -1.244,-0.584 -3.416,-0.3814 -4.13,0.6346 -0.682,0.9747 0.005,2.4894 0.709,4.8134 0.552,1.8279 0.468,6.3799 0.468,6.3799"
     id="path82" />
  <path
     style="fill:none;stroke:#231f20;stroke-width:0.565977;stroke-linecap:butt;stroke-linejoin:miter;stroke-miterlimit:4;stroke-dasharray:none;stroke-opacity:1"
     d="m 51.676938,53.098328 c -0.068,3.1347 -0.427,3.8014 -0.807,4.6347 -2.385,5.2666 0.239,6.3386 3.088,5.88 3.35,-0.536 4.558,-0.6614 4.099,-6.9427 -0.124,-1.744 0.256,-8.504 0.256,-8.504 0.463,-2.4066 -0.365,-4.9959 -1.552,-5.8386 -1.251,-0.8907 -0.819,-0.448 -2.131,-1.0573 -1.244,-0.584 -3.416,-0.3814 -4.13,0.6346 -0.682,0.9747 0.005,2.4894 0.709,4.8134 0.552,1.8279 0.468,6.3799 0.468,6.3799 z"
     id="path83" />
  <path
     style="fill:#ffffff;fill-opacity:1;fill-rule:nonzero;stroke:none"
     d="m 57.052938,35.311728 c 0.047,-0.24 1.192,-0.3227 1.192,-0.8493 0,-0.52 -0.76,-0.724 -1.609,-2.5253 l -0.011,-0.016 c -0.572,-1.3387 -1.609,-2.2654 -2.859,-2.3654 -2.068,-0.1706 -3.937,1.9694 -4.172,4.7813 -0.229,2.8187 1.255,5.24 3.328,5.412 1.979,0.1614 3.776,-1.7973 4.131,-4.4373"
     id="path84" />
  <path
     style="fill:none;stroke:#231f20;stroke-width:0.565977;stroke-linecap:butt;stroke-linejoin:miter;stroke-miterlimit:4;stroke-dasharray:none;stroke-opacity:1"
     d="m 57.052938,35.311728 c 0.047,-0.24 1.192,-0.3227 1.192,-0.8493 0,-0.52 -0.76,-0.724 -1.609,-2.5253 l -0.011,-0.016 c -0.572,-1.3387 -1.609,-2.2654 -2.859,-2.3654 -2.068,-0.1706 -3.937,1.9694 -4.172,4.7813 -0.229,2.8187 1.255,5.24 3.328,5.412 1.979,0.1614 3.776,-1.7973 4.131,-4.4373 z"
     id="path85" />
  <path
     style="fill:#231f20;fill-opacity:1;fill-rule:nonzero;stroke:none"
     d="m 52.651938,81.290028 c 3.874,1.038 3.052,-2.962 3.177,-3.421 1.323,-4.833 1.291,-5.213 2.041,-8.964 1.072,-5.4214 0.984,-9.296 -1.989,-10.848 -2.016,-1.048 -3.631,-0.7813 -4.625,0.0773 -1.104,0.9534 -2.282,3.912 -0.584,6.2457 l 0.13,1.708 c -0.068,1.161 -0.088,1.74 -0.166,2.306 -0.136,0.996 -0.214,2.068 -0.364,4.016 -0.272,3.464 0.577,7.214 0.577,7.214 -0.063,1.24 1.803,1.666 1.803,1.666"
     id="path86" />
  <path
     style="fill:none;stroke:#231f20;stroke-width:0.565977;stroke-linecap:butt;stroke-linejoin:miter;stroke-miterlimit:4;stroke-dasharray:none;stroke-opacity:1"
     d="m 52.651938,81.290028 c 3.874,1.038 3.052,-2.962 3.177,-3.421 1.323,-4.833 1.291,-5.213 2.041,-8.964 1.072,-5.4214 0.984,-9.296 -1.989,-10.848 -2.016,-1.048 -3.631,-0.7813 -4.625,0.0773 -1.104,0.9534 -2.282,3.912 -0.584,6.2457 l 0.13,1.708 c -0.068,1.161 -0.088,1.74 -0.166,2.306 -0.136,0.996 -0.214,2.068 -0.364,4.016 -0.272,3.464 0.577,7.214 0.577,7.214 -0.063,1.24 1.803,1.666 1.803,1.666 z"
     id="path87" />
  <path
     style="fill:#ca0369;fill-opacity:1;fill-rule:nonzero;stroke:none"
     d="m 58.260938,61.405028 c -0.339,-1.52 -1.073,-2.6667 -2.38,-3.348 -2.016,-1.048 -3.631,-0.7813 -4.625,0.0773 -1.104,0.9587 -2.282,3.912 -0.584,6.2457 l 7.704,1.312 c 0.072,-0.651 0.098,-1.26 0.109,-1.8444 0.025,-0.072 0.052,-0.1506 0.083,-0.2133 0.38,-0.7133 0.136,-1.292 -0.307,-2.2293"
     id="path88" />
  <path
     style="fill:none;stroke:#231f20;stroke-width:0.565977;stroke-linecap:butt;stroke-linejoin:miter;stroke-miterlimit:4;stroke-dasharray:none;stroke-opacity:1"
     d="m 58.260938,61.405028 c -0.339,-1.52 -1.073,-2.6667 -2.38,-3.348 -2.016,-1.048 -3.631,-0.7813 -4.625,0.0773 -1.104,0.9587 -2.282,3.912 -0.584,6.2457 l 7.704,1.312 c 0.072,-0.651 0.098,-1.26 0.109,-1.8444 0.025,-0.072 0.052,-0.1506 0.083,-0.2133 0.38,-0.7133 0.136,-1.292 -0.307,-2.2293 z"
     id="path89" />
  <path
     style="fill:#231f20;fill-opacity:1;fill-rule:nonzero;stroke:none"
     d="m 70.323938,40.577028 c -0.095,0.636 -1.568,1.9067 -2.292,3.344 -0.484,0.968 -2.615,2.7027 -3.032,3.7027 -0.38,0.9173 -0.64,1.3026 -1.766,1.0466 -0.661,-0.1453 -1.848,-0.8693 -1.76,-1.3746 0.208,-1.1667 0.73,-1.9587 1.484,-2.7187 0.86,-0.8533 3.407,-2.9733 3.912,-3.3173 1.26,-0.86 1.479,-1.5627 1.792,-1.8227 0.583,-0.4906 0.911,-0.38 1.312,-0.0733 0.755,0.588 0.35,1.2133 0.35,1.2133"
     id="path90" />
  <path
     style="fill:none;stroke:#231f20;stroke-width:0.565977;stroke-linecap:butt;stroke-linejoin:miter;stroke-miterlimit:4;stroke-dasharray:none;stroke-opacity:1"
     d="m 70.323938,40.577028 c -0.095,0.636 -1.568,1.9067 -2.292,3.344 -0.484,0.968 -2.615,2.7027 -3.032,3.7027 -0.38,0.9173 -0.64,1.3026 -1.766,1.0466 -0.661,-0.1453 -1.848,-0.8693 -1.76,-1.3746 0.208,-1.1667 0.73,-1.9587 1.484,-2.7187 0.86,-0.8533 3.407,-2.9733 3.912,-3.3173 1.26,-0.86 1.479,-1.5627 1.792,-1.8227 0.583,-0.4906 0.911,-0.38 1.312,-0.0733 0.755,0.588 0.35,1.2133 0.35,1.2133 z"
     id="path91" />
  <path
     style="fill:#231f20;fill-opacity:1;fill-rule:nonzero;stroke:none"
     d="m 63.963938,48.514328 c -0.432,1.2187 -2.192,0.1987 -2.703,0 -0.505,-0.1973 -2.005,-0.5933 -3.219,-0.7546 -1.213,-0.1614 -2.661,-0.88 -4.964,-1.1933 -1.213,-0.1614 -2.292,-1.088 -1.978,-2.8334 0.306,-1.7293 1.396,-2.208 2.833,-1.7906 1.437,0.4213 2.609,1.4213 4.025,1.9426 1.423,0.52 2.912,0.9214 4.099,1.176 1.355,0.2974 1.912,0.948 2,1.4174 0.224,1.1719 -0.093,2.0359 -0.093,2.0359"
     id="path92" />
  <path
     style="fill:none;stroke:#231f20;stroke-width:0.565977;stroke-linecap:butt;stroke-linejoin:miter;stroke-miterlimit:4;stroke-dasharray:none;stroke-opacity:1"
     d="m 63.963938,48.514328 c -0.432,1.2187 -2.192,0.1987 -2.703,0 -0.505,-0.1973 -2.005,-0.5933 -3.219,-0.7546 -1.213,-0.1614 -2.661,-0.88 -4.964,-1.1933 -1.213,-0.1614 -2.292,-1.088 -1.978,-2.8334 0.306,-1.7293 1.396,-2.208 2.833,-1.7906 1.437,0.4213 2.609,1.4213 4.025,1.9426 1.423,0.52 2.912,0.9214 4.099,1.176 1.355,0.2974 1.912,0.948 2,1.4174 0.224,1.1719 -0.093,2.0359 -0.093,2.0359 z"
     id="path93" />
  <path
     style="fill:#231f20;fill-opacity:1;fill-rule:nonzero;stroke:#231f20;stroke-width:0.565977;stroke-linecap:round;stroke-linejoin:round;stroke-miterlimit:4;stroke-dasharray:none;stroke-opacity:1"
     d="m 101.94194,93.093028 c 0,0 1.177,-0.599 2.344,-0.579 1.161,0.022 2.401,0.558 2.401,0.558 v 3.292 h -4.786 z"
     id="path94" />
  <path
     style="fill:#231f20;fill-opacity:1;fill-rule:nonzero;stroke:none"
     d="m 107.46294,110.02003 c 3.59,0.354 3.099,1.964 3.703,6 0.667,4.411 0.881,9.078 0.073,12.281 -0.91,3.573 -0.473,3.865 -2.338,4.328 -1.859,0.464 -2.072,-0.287 -3.072,-1.099 -1.158,-0.937 0.296,-8.151 -0.579,-12.822 -0.407,-2.188 -2.808,-7.167 -1.479,-7.762 1.328,-0.588 3.692,-0.926 3.692,-0.926"
     id="path95" />
  <path
     style="fill:none;stroke:#231f20;stroke-width:0.565977;stroke-linecap:butt;stroke-linejoin:miter;stroke-miterlimit:4;stroke-dasharray:none;stroke-opacity:1"
     d="m 107.46294,110.02003 c 3.59,0.354 3.099,1.964 3.703,6 0.667,4.411 0.881,9.078 0.073,12.281 -0.91,3.573 -0.473,3.865 -2.338,4.328 -1.859,0.464 -2.072,-0.287 -3.072,-1.099 -1.158,-0.937 0.296,-8.151 -0.579,-12.822 -0.407,-2.188 -2.808,-7.167 -1.479,-7.762 1.328,-0.588 3.692,-0.926 3.692,-0.926 z"
     id="path96" />
  <path
     style="fill:#231f20;fill-opacity:1;fill-rule:nonzero;stroke:none"
     d="m 109.28594,153.07703 c 1.084,-0.011 -0.531,-1.692 -0.197,-3.178 0.068,-0.301 -0.063,-0.593 -0.136,-0.89 -0.287,-1.192 -1.344,-2.244 -2.911,0.308 -0.219,0.353 -0.224,2 -0.604,2.494 -0.891,1.172 -0.657,1.536 0.588,1.448 0.396,-0.032 3.26,-0.182 3.26,-0.182"
     id="path97" />
  <path
     style="fill:none;stroke:#231f20;stroke-width:0.565977;stroke-linecap:round;stroke-linejoin:round;stroke-miterlimit:4;stroke-dasharray:none;stroke-opacity:1"
     d="m 109.28594,153.07703 c 1.084,-0.011 -0.531,-1.692 -0.197,-3.178 0.068,-0.301 -0.063,-0.593 -0.136,-0.89 -0.287,-1.192 -1.344,-2.244 -2.911,0.308 -0.219,0.353 -0.224,2 -0.604,2.494 -0.891,1.172 -0.657,1.536 0.588,1.448 0.396,-0.032 3.26,-0.182 3.26,-0.182 z"
     id="path99" />
  <path
     style="fill:#231f20;fill-opacity:1;fill-rule:nonzero;stroke:none"
     d="m 107.76094,130.68603 c 2.244,-0.296 2.89,-0.416 2.822,2.089 -0.021,0.635 -0.193,2.4 -0.098,2.78 0.317,1.262 0.572,2.746 -1.052,9.126 -0.256,0.989 -0.412,2.958 -0.642,4.344 -0.218,1.338 -2.292,0.068 -2.213,-0.459 0.26,-1.697 0.057,-2.843 0.068,-3.463 0.011,-0.433 0.156,-1.224 -0.224,-2.844 -0.98,-4.166 0.161,-5.562 0.031,-6.453 -0.37,-2.557 -1.214,-4.661 -0.635,-4.989 0.948,-0.538 1.943,-0.131 1.943,-0.131"
     id="path101" />
  <path
     style="fill:none;stroke:#231f20;stroke-width:0.565977;stroke-linecap:butt;stroke-linejoin:miter;stroke-miterlimit:4;stroke-dasharray:none;stroke-opacity:1"
     d="m 107.76094,130.68603 c 2.244,-0.296 2.89,-0.416 2.822,2.089 -0.021,0.635 -0.193,2.4 -0.098,2.78 0.317,1.262 0.572,2.746 -1.052,9.126 -0.256,0.989 -0.412,2.958 -0.642,4.344 -0.218,1.338 -2.292,0.068 -2.213,-0.459 0.26,-1.697 0.057,-2.843 0.068,-3.463 0.011,-0.433 0.156,-1.224 -0.224,-2.844 -0.98,-4.166 0.161,-5.562 0.031,-6.453 -0.37,-2.557 -1.214,-4.661 -0.635,-4.989 0.948,-0.538 1.943,-0.131 1.943,-0.131 z"
     id="path102" />
  <path
     style="fill:#231f20;fill-opacity:1;fill-rule:nonzero;stroke:none"
     d="m 101.36994,110.09303 c -3.589002,0.359 -3.099002,1.968 -3.708002,6 -0.663,4.41 -0.881,9.082 -0.068,12.281 0.911,3.572 0.473,3.864 2.339,4.333 1.858002,0.463 2.066002,-0.286 3.072002,-1.098 1.157,-0.943 -0.296,-8.152 0.573,-12.824 0.412,-2.192 2.812,-7.172 1.484,-7.76 -1.328,-0.593 -3.692,-0.932 -3.692,-0.932"
     id="path103" />
  <path
     style="fill:none;stroke:#231f20;stroke-width:0.565977;stroke-linecap:butt;stroke-linejoin:miter;stroke-miterlimit:4;stroke-dasharray:none;stroke-opacity:1"
     d="m 101.36994,110.09303 c -3.589002,0.359 -3.099002,1.968 -3.708002,6 -0.663,4.41 -0.881,9.082 -0.068,12.281 0.911,3.572 0.473,3.864 2.339,4.333 1.858002,0.463 2.066002,-0.286 3.072002,-1.098 1.157,-0.943 -0.296,-8.152 0.573,-12.824 0.412,-2.192 2.812,-7.172 1.484,-7.76 -1.328,-0.593 -3.692,-0.932 -3.692,-0.932 z"
     id="path104" />
  <path
     style="fill:#ffffff;fill-opacity:1;fill-rule:nonzero;stroke:none"
     d="m 104.33794,118.12403 c 0.495,0 1.104,-0.432 1.104,-0.432 0,0 0.709,-5.798 3.433,-7.307 l 0.359,-0.016 c 0.907,0.864 -0.411,-1.156 -0.396,-1.901 0.063,-3.25 1.396,-8.178 2.057,-9.339002 0.902,-1.593 3.48,-2.099 2.418,-3.989 0,0 -0.615,-1.844 -3.402,-1.484 -1.01,0.129 -3.218,-0.584 -3.218,-0.584 0.005,0.037 0.016,0.078 0.016,0.12 0,1.25 -1.068,1.964 -2.407,1.984 h 0.073 c -1.333,-0.02 -2.401,-0.796 -2.401,-1.984 0,-0.042 0.005,-0.083 0.016,-0.12 0,0 -2.215002,0.713 -3.224002,0.584 -2.781,-0.36 -3.339,1.76 -3.339,1.76 -1.062,1.885 1.454,2.12 2.359,3.713 0.656,1.161002 1.995,6.089002 2.057,9.339002 0.011,0.745 -1.301,2.765 -0.396,1.901 l 0.36,0.016 c 2.724002,1.509 3.432002,7.307 3.432002,7.307 0,0 0.604,0.432 1.099,0.432"
     id="path105" />
  <path
     style="fill:none;stroke:#231f20;stroke-width:0.565977;stroke-linecap:round;stroke-linejoin:round;stroke-miterlimit:4;stroke-dasharray:none;stroke-opacity:1"
     d="m 104.33794,118.12403 c 0.495,0 1.104,-0.432 1.104,-0.432 0,0 0.709,-5.798 3.433,-7.307 l 0.359,-0.016 c 0.907,0.864 -0.411,-1.156 -0.396,-1.901 0.063,-3.25 1.396,-8.178 2.057,-9.339002 0.902,-1.593 3.48,-2.099 2.418,-3.989 0,0 -0.615,-1.844 -3.402,-1.484 -1.01,0.129 -3.218,-0.584 -3.218,-0.584 0.005,0.037 0.016,0.078 0.016,0.12 0,1.25 -1.068,1.964 -2.407,1.984 h 0.073 c -1.333,-0.02 -2.401,-0.796 -2.401,-1.984 0,-0.042 0.005,-0.083 0.016,-0.12 0,0 -2.215002,0.713 -3.224002,0.584 -2.781,-0.36 -3.339,1.76 -3.339,1.76 -1.062,1.885 1.454,2.12 2.359,3.713 0.656,1.161002 1.995,6.089002 2.057,9.339002 0.011,0.745 -1.301,2.765 -0.396,1.901 l 0.36,0.016 c 2.724002,1.509 3.432002,7.307 3.432002,7.307 0,0 0.604,0.432 1.099,0.432 z"
     id="path106" />
  <path
     style="fill:#231f20;fill-opacity:1;fill-rule:nonzero;stroke:none"
     d="m 99.645938,153.14503 c -1.084,-0.006 0.525002,-1.694 0.183,-3.178 -0.068,-0.301 0.061,-0.593 0.129,-0.89 0.281002,-1.192 1.333002,-2.255 2.917002,0.286 0.219,0.36 0.234,2 0.61,2.495 0.905,1.167 0.672,1.536 -0.579,1.453 -0.391,-0.026 -3.260002,-0.166 -3.260002,-0.166"
     id="path107" />
  <path
     style="fill:none;stroke:#231f20;stroke-width:0.565977;stroke-linecap:round;stroke-linejoin:round;stroke-miterlimit:4;stroke-dasharray:none;stroke-opacity:1"
     d="m 99.645938,153.14503 c -1.084,-0.006 0.525002,-1.694 0.183,-3.178 -0.068,-0.301 0.061,-0.593 0.129,-0.89 0.281002,-1.192 1.333002,-2.255 2.917002,0.286 0.219,0.36 0.234,2 0.61,2.495 0.905,1.167 0.672,1.536 -0.579,1.453 -0.391,-0.026 -3.260002,-0.166 -3.260002,-0.166 z"
     id="path109" />
  <path
     style="fill:#ffffff;fill-opacity:1;fill-rule:nonzero;stroke:none"
     d="m 100.59894,87.582028 c -0.005,2.823 1.672,5.115 3.75,5.12 2.078,0.006 3.765,-2.281 3.77,-5.104 0.006,-2.822 -1.672,-5.12 -3.749,-5.12 -2.079,-0.005 -3.765,2.282 -3.771,5.104"
     id="path111" />
  <path
     style="fill:none;stroke:#231f20;stroke-width:0.565977;stroke-linecap:butt;stroke-linejoin:miter;stroke-miterlimit:4;stroke-dasharray:none;stroke-opacity:1"
     d="m 100.59894,87.582028 c -0.005,2.823 1.672,5.115 3.75,5.12 2.078,0.006 3.765,-2.281 3.77,-5.104 0.006,-2.822 -1.672,-5.12 -3.749,-5.12 -2.079,-0.005 -3.765,2.282 -3.771,5.104 z"
     id="path112" />
  <path
     style="fill:#231f20;fill-opacity:1;fill-rule:nonzero;stroke:none"
     d="m 101.05294,130.74303 c -2.251002,-0.281 -2.902002,-0.39 -2.814002,2.11 0.022,0.636 0.208,2.401 0.115,2.781 -0.312,1.255 -0.563,2.745 1.104,9.12 0.256,0.989 0.427,2.953 0.661002,4.339 0.23,1.338 2.292,0.052 2.21,-0.475 -0.267,-1.692 -0.074,-2.843 -0.084,-3.463 -0.011,-0.428 -0.167,-1.218 0.208,-2.844 0.953,-4.172 -0.192,-5.557 -0.067,-6.448 0.359,-2.562 1.187,-4.672 0.604,-5 -0.948,-0.526 -1.937,-0.12 -1.937,-0.12"
     id="path113" />
  <path
     style="fill:none;stroke:#231f20;stroke-width:0.565977;stroke-linecap:butt;stroke-linejoin:miter;stroke-miterlimit:4;stroke-dasharray:none;stroke-opacity:1"
     d="m 101.05294,130.74303 c -2.251002,-0.281 -2.902002,-0.39 -2.814002,2.11 0.022,0.636 0.208,2.401 0.115,2.781 -0.312,1.255 -0.563,2.745 1.104,9.12 0.256,0.989 0.427,2.953 0.661002,4.339 0.23,1.338 2.292,0.052 2.21,-0.475 -0.267,-1.692 -0.074,-2.843 -0.084,-3.463 -0.011,-0.428 -0.167,-1.218 0.208,-2.844 0.953,-4.172 -0.192,-5.557 -0.067,-6.448 0.359,-2.562 1.187,-4.672 0.604,-5 -0.948,-0.526 -1.937,-0.12 -1.937,-0.12 z"
     id="path114" />
  <path
     style="fill:#231f20;fill-opacity:1;fill-rule:nonzero;stroke:none"
     d="m 95.202938,83.812028 c 1.266,-0.26 1.312,1.776 1.402,2.306 0.098,0.538 0.536,2.032 1.03,3.152 0.49,1.12 0.631,2.73 1.558,4.859 0.489,1.12 0.26,2.521 -1.396,3.161 -1.635,0.636 -2.61,-0.046 -3,-1.489 -0.391,-1.448 -0.14,-2.968 -0.432,-4.453 -0.292,-1.484 -0.724,-2.968 -1.115,-4.115 -0.453,-1.307 -0.193,-2.12 0.161,-2.443 0.891,-0.801 1.792,-0.978 1.792,-0.978"
     id="path115" />
  <path
     style="fill:none;stroke:#231f20;stroke-width:0.565977;stroke-linecap:butt;stroke-linejoin:miter;stroke-miterlimit:4;stroke-dasharray:none;stroke-opacity:1"
     d="m 95.202938,83.812028 c 1.266,-0.26 1.312,1.776 1.402,2.306 0.098,0.538 0.536,2.032 1.03,3.152 0.49,1.12 0.631,2.73 1.558,4.859 0.489,1.12 0.26,2.521 -1.396,3.161 -1.635,0.636 -2.61,-0.046 -3,-1.489 -0.391,-1.448 -0.14,-2.968 -0.432,-4.453 -0.292,-1.484 -0.724,-2.968 -1.115,-4.115 -0.453,-1.307 -0.193,-2.12 0.161,-2.443 0.891,-0.801 1.792,-0.978 1.792,-0.978 z"
     id="path116" />
  <path
     style="fill:#231f20;fill-opacity:1;fill-rule:nonzero;stroke:none"
     d="m 99.052938,77.104028 c -0.59,0.249 -1.448,1.994 -2.658,3.057 -0.817,0.719 -2.213,2.968 -2.822,3.869 -0.307,0.454 -0.798,1.438 -0.271,2.459 0.312,0.609 1.005,1.083 1.469,0.869 1.083,-0.494 1.719,-1.197 2.26,-2.125 0.61,-1.047 2.022,-4.041 2.23,-4.615 0.514,-1.432 1.145002,-1.828 1.317002,-2.192 0.323,-0.688 0.136,-0.98 -0.26,-1.292 -0.761002,-0.578 -1.265002,-0.03 -1.265002,-0.03"
     id="path117" />
  <path
     style="fill:none;stroke:#231f20;stroke-width:0.565977;stroke-linecap:butt;stroke-linejoin:miter;stroke-miterlimit:4;stroke-dasharray:none;stroke-opacity:1"
     d="m 99.052938,77.104028 c -0.59,0.249 -1.448,1.994 -2.658,3.057 -0.817,0.719 -2.213,2.968 -2.822,3.869 -0.307,0.454 -0.798,1.438 -0.271,2.459 0.312,0.609 1.005,1.083 1.469,0.869 1.083,-0.494 1.719,-1.197 2.26,-2.125 0.61,-1.047 2.022,-4.041 2.23,-4.615 0.514,-1.432 1.145002,-1.828 1.317002,-2.192 0.323,-0.688 0.136,-0.98 -0.26,-1.292 -0.761002,-0.578 -1.265002,-0.03 -1.265002,-0.03 z"
     id="path118" />
  <path
     style="fill:#231f20;fill-opacity:1;fill-rule:nonzero;stroke:none"
     d="m 103.41694,71.572028 c -0.631,0.36 -2.735,2.838 -3.194,3.428 -0.410002,0.52 -1.369002,1.166 -0.848002,2.197 0.208,0.416 0.802002,0.88 1.094002,1.005 0.24,0.099 0.516,-0.084 0.729,-0.422 0.359,-0.562 0.249,-0.854 0.869,-1.974 0,0 0.11,-0.281 0.271,-0.806 0.491,-1.558 0.125,-0.918 1.339,-3.016 0.084,-0.151 0,-0.344 -0.11,-0.391 -0.161,-0.079 -0.15,-0.021 -0.15,-0.021"
     id="path119" />
  <path
     style="fill:none;stroke:#231f20;stroke-width:0.565977;stroke-linecap:round;stroke-linejoin:round;stroke-miterlimit:4;stroke-dasharray:none;stroke-opacity:1"
     d="m 103.41694,71.572028 c -0.631,0.36 -2.735,2.838 -3.194,3.428 -0.410002,0.52 -1.369002,1.166 -0.848002,2.197 0.208,0.416 0.802002,0.88 1.094002,1.005 0.24,0.099 0.516,-0.084 0.729,-0.422 0.359,-0.562 0.249,-0.854 0.869,-1.974 0,0 0.11,-0.281 0.271,-0.806 0.491,-1.558 0.125,-0.918 1.339,-3.016 0.084,-0.151 0,-0.344 -0.11,-0.391 -0.161,-0.079 -0.15,-0.021 -0.15,-0.021 z"
     id="path120" />
  <path
     style="fill:#231f20;fill-opacity:1;fill-rule:nonzero;stroke:none"
     d="m 113.40594,83.228028 c -1.276,-0.208 -1.235,1.829 -1.301,2.365 -0.068,0.536 -0.443,2.047 -0.887,3.187 -0.443,1.146 -0.504,2.761 -1.337,4.928 -0.439,1.14 -0.147,2.53 1.536,3.098 1.666,0.558 2.604,-0.166 2.926,-1.625 0.328,-1.463 0.016,-2.968 0.24,-4.463 0.219,-1.5 0.583,-3 0.927,-4.162 0.396,-1.328 0.095,-2.13 -0.271,-2.432 -0.926,-0.76 -1.833,-0.896 -1.833,-0.896"
     id="path121" />
  <path
     style="fill:none;stroke:#231f20;stroke-width:0.565977;stroke-linecap:butt;stroke-linejoin:miter;stroke-miterlimit:4;stroke-dasharray:none;stroke-opacity:1"
     d="m 113.40594,83.228028 c -1.276,-0.208 -1.235,1.829 -1.301,2.365 -0.068,0.536 -0.443,2.047 -0.887,3.187 -0.443,1.146 -0.504,2.761 -1.337,4.928 -0.439,1.14 -0.147,2.53 1.536,3.098 1.666,0.558 2.604,-0.166 2.926,-1.625 0.328,-1.463 0.016,-2.968 0.24,-4.463 0.219,-1.5 0.583,-3 0.927,-4.162 0.396,-1.328 0.095,-2.13 -0.271,-2.432 -0.926,-0.76 -1.833,-0.896 -1.833,-0.896 z"
     id="path122" />
  <path
     style="fill:#231f20;fill-opacity:1;fill-rule:nonzero;stroke:none"
     d="m 109.05694,76.312028 c 0.605,0.213 1.568,1.906 2.844,2.89 0.86,0.662 2.39,2.823 3.057,3.683 0.183,0.233 0.751,1.676 0.693,1.932 -0.152,0.667 -1.209,1.645 -1.688,1.463 -1.109,-0.427 -1.786,-1.083 -2.385,-1.974 -0.672,-1.01 -2.265,-3.916 -2.511,-4.473 -0.604,-1.401 -1.254,-1.751 -1.448,-2.105 -0.364,-0.667 -0.202,-0.974 0.178,-1.302 0.724,-0.63 1.26,-0.114 1.26,-0.114"
     id="path123" />
  <path
     style="fill:none;stroke:#231f20;stroke-width:0.565977;stroke-linecap:butt;stroke-linejoin:miter;stroke-miterlimit:4;stroke-dasharray:none;stroke-opacity:1"
     d="m 109.05694,76.312028 c 0.605,0.213 1.568,1.906 2.844,2.89 0.86,0.662 2.39,2.823 3.057,3.683 0.183,0.233 0.751,1.676 0.693,1.932 -0.152,0.667 -1.209,1.645 -1.688,1.463 -1.109,-0.427 -1.786,-1.083 -2.385,-1.974 -0.672,-1.01 -2.265,-3.916 -2.511,-4.473 -0.604,-1.401 -1.254,-1.751 -1.448,-2.105 -0.364,-0.667 -0.202,-0.974 0.178,-1.302 0.724,-0.63 1.26,-0.114 1.26,-0.114 z"
     id="path124" />
  <path
     style="fill:#231f20;fill-opacity:1;fill-rule:nonzero;stroke:none"
     d="m 103.93294,71.828028 c 0.692,0.202 3.322,2.114 3.905,2.577 0.521,0.412 1.6,0.813 1.344,1.943 -0.109,0.448 -0.577,1.042 -0.833,1.229 -0.214,0.151 -0.52,0.041 -0.807,-0.235 -0.48,-0.462 -0.443,-0.781 -1.308,-1.718 0,0 -0.172,-0.25 -0.459,-0.719 -0.833,-1.405 -0.333,-0.864 -2.004,-2.62 -0.114,-0.124 -0.078,-0.333 0.015,-0.405 0.141,-0.115 0.147,-0.052 0.147,-0.052"
     id="path125" />
  <path
     style="fill:none;stroke:#231f20;stroke-width:0.565977;stroke-linecap:round;stroke-linejoin:round;stroke-miterlimit:4;stroke-dasharray:none;stroke-opacity:1"
     d="m 103.93294,71.828028 c 0.692,0.202 3.322,2.114 3.905,2.577 0.521,0.412 1.6,0.813 1.344,1.943 -0.109,0.448 -0.577,1.042 -0.833,1.229 -0.214,0.151 -0.52,0.041 -0.807,-0.235 -0.48,-0.462 -0.443,-0.781 -1.308,-1.718 0,0 -0.172,-0.25 -0.459,-0.719 -0.833,-1.405 -0.333,-0.864 -2.004,-2.62 -0.114,-0.124 -0.078,-0.333 0.015,-0.405 0.141,-0.115 0.147,-0.052 0.147,-0.052 z"
     id="path126" />
  <path
     style="fill:#ffffff;fill-opacity:1;fill-rule:nonzero;stroke:none"
     d="m 99.468938,109.54103 c -0.203,0.281 -0.855,1.489 -1.027,1.921 -1.093,2.76 -1.009,6.708 -1.28,7.954 -0.272,1.245 6.323002,1.187 6.323002,1.187 l 0.478,-1.895 c 0.448,0.432 0.984,0.01 0.984,0.01 l 0.454,1.963 c 0,0 6.458,0.256 6.308,-0.744 -0.204,-1.381 -0.287,-6.011 -1.219,-8.271 -0.516,-1.245 -1.292,-1.917 -1.292,-1.917 0,0 -3.647,1.084 -5.068,1.084 -1.427,0 -4.661002,-1.292 -4.661002,-1.292"
     id="path127" />
  <path
     style="fill:none;stroke:#231f20;stroke-width:0.565977;stroke-linecap:round;stroke-linejoin:round;stroke-miterlimit:4;stroke-dasharray:none;stroke-opacity:1"
     d="m 99.468938,109.54103 c -0.203,0.281 -0.855,1.489 -1.027,1.921 -1.093,2.76 -1.009,6.708 -1.28,7.954 -0.272,1.245 6.323002,1.187 6.323002,1.187 l 0.478,-1.895 c 0.448,0.432 0.984,0.01 0.984,0.01 l 0.454,1.963 c 0,0 6.458,0.256 6.308,-0.744 -0.204,-1.381 -0.287,-6.011 -1.219,-8.271 -0.516,-1.245 -1.292,-1.917 -1.292,-1.917 0,0 -3.647,1.084 -5.068,1.084 -1.427,0 -4.661002,-1.292 -4.661002,-1.292 z"
     id="path128" />
  <path
     style="fill:#231f20;fill-opacity:1;fill-rule:nonzero;stroke:none"
     d="m 103.35894,78.390028 c -1.166,-0.682 -1,-1.662 -0.208,-2.329 0.235,-0.203 0.235,-0.619 0.479,-0.796 0.568,-0.412 2.281,-0.063 2.349,1.437 0.011,0.11 0.292,0.875 0.411,1.484 0.24,1.188 0.141,3.683 -1.853,5.495 -0.948,0.86 -1.282,0.141 -1,-0.323 0.874,-1.469 0.666,-1.77 0.76,-2.234 0.312,-1.594 -0.938,-2.734 -0.938,-2.734"
     id="path129" />
  <path
     style="fill:none;stroke:#231f20;stroke-width:0.332927;stroke-linecap:butt;stroke-linejoin:miter;stroke-miterlimit:4;stroke-dasharray:none;stroke-opacity:1"
     d="m 103.35894,78.390028 c -1.166,-0.682 -1,-1.662 -0.208,-2.329 0.235,-0.203 0.235,-0.619 0.479,-0.796 0.568,-0.412 2.281,-0.063 2.349,1.437 0.011,0.11 0.292,0.875 0.411,1.484 0.24,1.188 0.141,3.683 -1.853,5.495 -0.948,0.86 -1.282,0.141 -1,-0.323 0.874,-1.469 0.666,-1.77 0.76,-2.234 0.312,-1.594 -0.938,-2.734 -0.938,-2.734 z"
     id="path130" />
  <path
     style="fill:#231f20;fill-opacity:1;fill-rule:nonzero;stroke:none"
     d="m 102.73894,59.650328 c -2.26,-0.0213 -2.708,0.276 -2.781002,1.2347 -0.052,0.6346 -0.312,1.208 -0.359,1.5933 -0.161,1.292 0.094,3.5217 2.484002,9.6557 0.542,1.391 1.292,3.35 1.531,4.172 0.385,1.303 2.287,-0.213 2.147,-0.729 -0.464,-1.645 -0.652,-2.823 -0.74,-3.437 -0.058,-0.422 -0.26,-1.162 -0.282,-2.823 -0.02,-2.527 0.339,-4.047 0.079,-6.1467 -0.125,-0.968 0.4,-1.78 -0.209,-2.676 -0.604,-0.9013 -1.87,-0.844 -1.87,-0.844"
     id="path131" />
  <path
     style="fill:none;stroke:#231f20;stroke-width:0.565977;stroke-linecap:butt;stroke-linejoin:miter;stroke-miterlimit:4;stroke-dasharray:none;stroke-opacity:1"
     d="m 102.73894,59.650328 c -2.26,-0.0213 -2.708,0.276 -2.781002,1.2347 -0.052,0.6346 -0.312,1.208 -0.359,1.5933 -0.161,1.292 0.094,3.5217 2.484002,9.6557 0.542,1.391 1.292,3.35 1.531,4.172 0.385,1.303 2.287,-0.213 2.147,-0.729 -0.464,-1.645 -0.652,-2.823 -0.74,-3.437 -0.058,-0.422 -0.26,-1.162 -0.282,-2.823 -0.02,-2.527 0.339,-4.047 0.079,-6.1467 -0.125,-0.968 0.4,-1.78 -0.209,-2.676 -0.604,-0.9013 -1.87,-0.844 -1.87,-0.844 z"
     id="path132" />
  <path
     style="fill:#ca0369;fill-opacity:1;fill-rule:nonzero;stroke:none"
     d="m 100.09894,33.306428 c -1.032002,2.964 -1.578002,3.484 -2.193002,4.1666 -3.891,4.276 -1.719,6.104 1.136,6.5414 3.348002,0.516 4.541002,0.7706 6.031002,-5.348 0.417,-1.6987 2.854,-8.0213 2.854,-8.0213 1.182,-2.1414 1.187,-4.86 0.318,-6.0267 -0.916,-1.2333 -0.646,-0.676 -1.703,-1.6667 -1.005,-0.9373 -3.141,-1.4053 -4.125,-0.6613 -0.948,0.7187 -0.76,2.376 -0.803,4.7973 -0.036,1.916 -1.515,6.2187 -1.515,6.2187"
     id="path133" />
  <path
     style="fill:none;stroke:#231f20;stroke-width:0.565977;stroke-linecap:butt;stroke-linejoin:miter;stroke-miterlimit:4;stroke-dasharray:none;stroke-opacity:1"
     d="m 100.09894,33.306428 c -1.032002,2.964 -1.578002,3.484 -2.193002,4.1666 -3.891,4.276 -1.719,6.104 1.136,6.5414 3.348002,0.516 4.541002,0.7706 6.031002,-5.348 0.417,-1.6987 2.854,-8.0213 2.854,-8.0213 1.182,-2.1414 1.187,-4.86 0.318,-6.0267 -0.916,-1.2333 -0.646,-0.676 -1.703,-1.6667 -1.005,-0.9373 -3.141,-1.4053 -4.125,-0.6613 -0.948,0.7187 -0.76,2.376 -0.803,4.7973 -0.036,1.916 -1.515,6.2187 -1.515,6.2187 z"
     id="path134" />
  <path
     style="fill:#ffffff;fill-opacity:1;fill-rule:nonzero;stroke:none"
     d="m 110.94694,18.327828 c 0.12,-0.2094 1.235,0.0626 1.396,-0.4387 0.162,-0.4987 -0.5,-0.9213 -0.76,-2.9 v -0.016 c -0.136,-1.448 -0.838,-2.6507 -1.994,-3.1307 -1.918,-0.796 -4.355,0.6667 -5.438,3.276 -1.089,2.6054 -0.412,5.3653 1.506,6.1667 1.833,0.7613 4.145,-0.552 5.29,-2.9573"
     id="path135" />
  <path
     style="fill:none;stroke:#231f20;stroke-width:0.565977;stroke-linecap:butt;stroke-linejoin:miter;stroke-miterlimit:4;stroke-dasharray:none;stroke-opacity:1"
     d="m 110.94694,18.327828 c 0.12,-0.2094 1.235,0.0626 1.396,-0.4387 0.162,-0.4987 -0.5,-0.9213 -0.76,-2.9 v -0.016 c -0.136,-1.448 -0.838,-2.6507 -1.994,-3.1307 -1.918,-0.796 -4.355,0.6667 -5.438,3.276 -1.089,2.6054 -0.412,5.3653 1.506,6.1667 1.833,0.7613 4.145,-0.552 5.29,-2.9573 z"
     id="path136" />
  <path
     style="fill:#231f20;fill-opacity:1;fill-rule:nonzero;stroke:none"
     d="m 102.15094,62.051628 c 3.99,0.3854 2.52,-3.4226 2.568,-3.9013 0.504,-4.984 0.416,-5.3546 0.531,-9.1773 0.172,-5.5213 -0.563,-9.3333 -3.745,-10.3693 -2.162002,-0.704 -3.714002,-0.172 -4.552002,0.8387 -0.932,1.124 -1.604,4.2333 0.453,6.2546 l 0.412,1.6667 c 0.124,1.156 0.197,1.7293 0.219,2.3026 0.03,1.004 0.129,2.072 0.301,4.02 0.303,3.4587 1.761002,7.016 1.761002,7.016 0.14,1.24 2.052,1.3493 2.052,1.3493"
     id="path137" />
  <path
     style="fill:none;stroke:#231f20;stroke-width:0.565977;stroke-linecap:butt;stroke-linejoin:miter;stroke-miterlimit:4;stroke-dasharray:none;stroke-opacity:1"
     d="m 102.15094,62.051628 c 3.99,0.3854 2.52,-3.4226 2.568,-3.9013 0.504,-4.984 0.416,-5.3546 0.531,-9.1773 0.172,-5.5213 -0.563,-9.3333 -3.745,-10.3693 -2.162002,-0.704 -3.714002,-0.172 -4.552002,0.8387 -0.932,1.124 -1.604,4.2333 0.453,6.2546 l 0.412,1.6667 c 0.124,1.156 0.197,1.7293 0.219,2.3026 0.03,1.004 0.129,2.072 0.301,4.02 0.303,3.4587 1.761002,7.016 1.761002,7.016 0.14,1.24 2.052,1.3493 2.052,1.3493 z"
     id="path138" />
  <path
     style="fill:#ca0369;fill-opacity:1;fill-rule:nonzero;stroke:none"
     d="m 104.92694,43.613028 c 0.015,-0.0773 0.031,-0.156 0.052,-0.2226 0.25,-0.7667 -0.078,-1.2974 -0.672,-2.152 -0.584,-1.4374 -1.5,-2.448 -2.901,-2.9054 -2.161002,-0.704 -3.713002,-0.1773 -4.552002,0.8374 -0.932,1.12 -1.604,4.2293 0.459,6.256 l 7.812002,0.0253 c -0.036,-0.656 -0.11,-1.26 -0.198,-1.8387"
     id="path139" />
  <path
     style="fill:none;stroke:#231f20;stroke-width:0.565977;stroke-linecap:butt;stroke-linejoin:miter;stroke-miterlimit:4;stroke-dasharray:none;stroke-opacity:1"
     d="m 104.92694,43.613028 c 0.015,-0.0773 0.031,-0.156 0.052,-0.2226 0.25,-0.7667 -0.078,-1.2974 -0.672,-2.152 -0.584,-1.4374 -1.5,-2.448 -2.901,-2.9054 -2.161002,-0.704 -3.713002,-0.1773 -4.552002,0.8374 -0.932,1.12 -1.604,4.2293 0.459,6.256 l 7.812002,0.0253 c -0.036,-0.656 -0.11,-1.26 -0.198,-1.8387 z"
     id="path140" />
  <path
     style="fill:#231f20;fill-opacity:1;fill-rule:nonzero;stroke:none"
     d="m 98.572938,33.811728 c -1.135,-0.62 0.146,-2.1986 0.417,-2.6666 0.276,-0.4694 0.905,-1.8907 1.255002,-3.0627 0.349,-1.172 1.286,-2.4893 1.953,-4.7187 0.349,-1.172 1.432,-2.088 3.109,-1.5106 1.662,0.5786 1.964,1.724 1.328,3.0786 -0.64,1.3534 -1.812,2.3587 -2.552,3.6774 -0.74,1.3173 -1.369,2.7333 -1.808,3.8586 -0.504,1.292 -1.228,1.74 -1.708,1.7547 -1.192002,0.0373 -1.994002,-0.4107 -1.994002,-0.4107"
     id="path141" />
  <path
     style="fill:none;stroke:#231f20;stroke-width:0.565977;stroke-linecap:butt;stroke-linejoin:miter;stroke-miterlimit:4;stroke-dasharray:none;stroke-opacity:1"
     d="m 98.572938,33.811728 c -1.135,-0.62 0.146,-2.1986 0.417,-2.6666 0.276,-0.4694 0.905,-1.8907 1.255002,-3.0627 0.349,-1.172 1.286,-2.4893 1.953,-4.7187 0.349,-1.172 1.432,-2.088 3.109,-1.5106 1.662,0.5786 1.964,1.724 1.328,3.0786 -0.64,1.3534 -1.812,2.3587 -2.552,3.6774 -0.74,1.3173 -1.369,2.7333 -1.808,3.8586 -0.504,1.292 -1.228,1.74 -1.708,1.7547 -1.192002,0.0373 -1.994002,-0.4107 -1.994002,-0.4107 z"
     id="path142" />
  <path
     style="fill:#231f20;fill-opacity:1;fill-rule:nonzero;stroke:none"
     d="m 69.031938,38.483728 c 0.041,-0.6987 2.166,-1.62 2.38,-1.3907 0.213,0.2347 -0.522,0.4627 -0.292,0.74 0.229,0.2707 0.682,0.052 0.776,0.26 0.104,0.2294 -0.474,0.4107 -0.296,0.656 0.072,0.104 0.666,0.14 0.686,0.3334 0.022,0.1666 -0.38,0.5 -0.369,0.636 0.016,0.2133 0.615,0.0826 0.64,0.26 0.073,0.4586 -2.629,0.672 -2.801,0.5053 -0.26,-0.2453 -0.787,-0.8747 -0.724,-2"
     id="path143" />
  <path
     style="fill:none;stroke:#231f20;stroke-width:0.565977;stroke-linecap:round;stroke-linejoin:round;stroke-miterlimit:4;stroke-dasharray:none;stroke-opacity:1"
     d="m 69.031938,38.483728 c 0.041,-0.6987 2.166,-1.62 2.38,-1.3907 0.213,0.2347 -0.522,0.4627 -0.292,0.74 0.229,0.2707 0.682,0.052 0.776,0.26 0.104,0.2294 -0.474,0.4107 -0.296,0.656 0.072,0.104 0.666,0.14 0.686,0.3334 0.022,0.1666 -0.38,0.5 -0.369,0.636 0.016,0.2133 0.615,0.0826 0.64,0.26 0.073,0.4586 -2.629,0.672 -2.801,0.5053 -0.26,-0.2453 -0.787,-0.8747 -0.724,-2 z"
     id="path144" />
  <path
     style="fill:#ffffff;fill-opacity:1;fill-rule:nonzero;stroke:#231f20;stroke-width:0.665856;stroke-linecap:butt;stroke-linejoin:miter;stroke-miterlimit:4;stroke-dasharray:none;stroke-opacity:1"
     d="m 105.24494,32.010428 h 1.333 v -31.6775 h -1.333 z"
     id="path145" />
  <path
     style="fill:#231f20;fill-opacity:1;fill-rule:nonzero;stroke:none"
     d="m 105.31794,40.889028 c -0.62,-0.1813 -1.672,-1.812 -2.995,-2.728 -0.896,-0.62 -2.318,-2.964 -3.256002,-3.5106 -0.858,-0.5054 -1.197,-0.8174 -0.792,-1.896 0.24,-0.6413 1.115,-1.7133 1.606,-1.552 1.124002,0.3693 1.842002,0.9893 2.484002,1.844 0.729,0.968 2.478,3.7813 2.749,4.328 0.677,1.3693 1.344,1.6826 1.563,2.0253 0.401,0.6467 0.25,0.9587 -0.11,1.3133 -0.692,0.6667 -1.249,0.176 -1.249,0.176"
     id="path146" />
  <path
     style="fill:none;stroke:#231f20;stroke-width:0.565977;stroke-linecap:butt;stroke-linejoin:miter;stroke-miterlimit:4;stroke-dasharray:none;stroke-opacity:1"
     d="m 105.31794,40.889028 c -0.62,-0.1813 -1.672,-1.812 -2.995,-2.728 -0.896,-0.62 -2.318,-2.964 -3.256002,-3.5106 -0.858,-0.5054 -1.197,-0.8174 -0.792,-1.896 0.24,-0.6413 1.115,-1.7133 1.606,-1.552 1.124002,0.3693 1.842002,0.9893 2.484002,1.844 0.729,0.968 2.478,3.7813 2.749,4.328 0.677,1.3693 1.344,1.6826 1.563,2.0253 0.401,0.6467 0.25,0.9587 -0.11,1.3133 -0.692,0.6667 -1.249,0.176 -1.249,0.176 z"
     id="path147" />
  <path
     style="fill:#ffffff;fill-opacity:1;fill-rule:nonzero;stroke:none"
     d="m 102.05294,36.942428 c 0,-2.3547 1.916,-4.272 4.27,-4.272 2.354,0 4.266,1.9173 4.266,4.272 0,2.3533 -1.912,4.2706 -4.266,4.2706 -2.354,0 -4.27,-1.9173 -4.27,-4.2706 m -1.334,0 c 0,3.088 2.515,5.604 5.604,5.604 3.083,0 5.599,-2.516 5.599,-5.604 0,-3.0894 -2.516,-5.6 -5.599,-5.6 -3.089,0 -5.604,2.5106 -5.604,5.6"
     id="path148" />
  <path
     style="fill:none;stroke:#231f20;stroke-width:0.665856;stroke-linecap:butt;stroke-linejoin:miter;stroke-miterlimit:4;stroke-dasharray:none;stroke-opacity:1"
     d="m 102.05294,36.942428 c 0,-2.3547 1.916,-4.272 4.27,-4.272 2.354,0 4.266,1.9173 4.266,4.272 0,2.3533 -1.912,4.2706 -4.266,4.2706 -2.354,0 -4.27,-1.9173 -4.27,-4.2706 z m -1.334,0 c 0,3.088 2.515,5.604 5.604,5.604 3.083,0 5.599,-2.516 5.599,-5.604 0,-3.0894 -2.516,-5.6 -5.599,-5.6 -3.089,0 -5.604,2.5106 -5.604,5.6 z"
     id="path149" />
  <path
     style="fill:#ffffff;fill-opacity:1;fill-rule:nonzero;stroke:#231f20;stroke-width:0.665856;stroke-linecap:butt;stroke-linejoin:miter;stroke-miterlimit:4;stroke-dasharray:none;stroke-opacity:1"
     d="m 151.15094,32.010428 h 1.334 v -31.6775 h -1.334 z"
     id="path150" />
  <path
     style="fill:#ffffff;fill-opacity:1;fill-rule:nonzero;stroke:none"
     d="m 147.95794,36.942428 c 0,-2.3547 1.917,-4.272 4.271,-4.272 2.354,0 4.266,1.9173 4.266,4.272 0,2.3533 -1.912,4.2706 -4.266,4.2706 -2.354,0 -4.271,-1.9173 -4.271,-4.2706 m -1.333,0 c 0,3.088 2.516,5.604 5.604,5.604 3.089,0 5.6,-2.516 5.6,-5.604 0,-3.0894 -2.511,-5.6 -5.6,-5.6 -3.088,0 -5.604,2.5106 -5.604,5.6"
     id="path151" />
  <path
     style="fill:none;stroke:#231f20;stroke-width:0.665856;stroke-linecap:butt;stroke-linejoin:miter;stroke-miterlimit:4;stroke-dasharray:none;stroke-opacity:1"
     d="m 147.95794,36.942428 c 0,-2.3547 1.917,-4.272 4.271,-4.272 2.354,0 4.266,1.9173 4.266,4.272 0,2.3533 -1.912,4.2706 -4.266,4.2706 -2.354,0 -4.271,-1.9173 -4.271,-4.2706 z m -1.333,0 c 0,3.088 2.516,5.604 5.604,5.604 3.089,0 5.6,-2.516 5.6,-5.604 0,-3.0894 -2.511,-5.6 -5.6,-5.6 -3.088,0 -5.604,2.5106 -5.604,5.6 z"
     id="path152" />
  <path
     style="fill:#231f20;fill-opacity:1;fill-rule:nonzero;stroke:none"
     d="m 107.38094,40.077028 c 0.692,0.1307 1.338,2.3494 1.082,2.536 -0.26,0.1827 -0.396,-0.572 -0.697,-0.38 -0.303,0.1934 -0.136,0.6667 -0.36,0.7347 -0.24,0.0733 -0.339,-0.5213 -0.609,-0.38 -0.115,0.0627 -0.224,0.6453 -0.411,0.6453 -0.172,0 -0.459,-0.4426 -0.589,-0.448 -0.219,-0.0146 -0.162,0.6 -0.339,0.6054 -0.468,0.0146 -0.339,-2.6987 -0.151,-2.8494 0.276,-0.224 0.968,-0.6666 2.074,-0.464"
     id="path153" />
  <path
     style="fill:none;stroke:#231f20;stroke-width:0.565977;stroke-linecap:round;stroke-linejoin:round;stroke-miterlimit:4;stroke-dasharray:none;stroke-opacity:1"
     d="m 107.38094,40.077028 c 0.692,0.1307 1.338,2.3494 1.082,2.536 -0.26,0.1827 -0.396,-0.572 -0.697,-0.38 -0.303,0.1934 -0.136,0.6667 -0.36,0.7347 -0.24,0.0733 -0.339,-0.5213 -0.609,-0.38 -0.115,0.0627 -0.224,0.6453 -0.411,0.6453 -0.172,0 -0.459,-0.4426 -0.589,-0.448 -0.219,-0.0146 -0.162,0.6 -0.339,0.6054 -0.468,0.0146 -0.339,-2.6987 -0.151,-2.8494 0.276,-0.224 0.968,-0.6666 2.074,-0.464 z"
     id="path154" />
  <path
     style="fill:#231f20;fill-opacity:1;fill-rule:nonzero;stroke:none"
     d="m 152.76094,40.650428 c 0.645,0.26 0.853,2.568 0.568,2.6973 -0.292,0.1307 -0.276,-0.64 -0.61,-0.5107 -0.333,0.136 -0.266,0.6307 -0.496,0.652 -0.249,0.0254 -0.238,-0.5786 -0.525,-0.4893 -0.125,0.036 -0.344,0.588 -0.532,0.552 -0.167,-0.0373 -0.359,-0.5213 -0.489,-0.552 -0.208,-0.0573 -0.276,0.556 -0.448,0.5253 -0.463,-0.0733 0.188,-2.708 0.401,-2.8226 0.317,-0.1667 1.084,-0.4694 2.131,-0.052"
     id="path155" />
  <path
     style="fill:none;stroke:#231f20;stroke-width:0.565977;stroke-linecap:round;stroke-linejoin:round;stroke-miterlimit:4;stroke-dasharray:none;stroke-opacity:1"
     d="m 152.76094,40.650428 c 0.645,0.26 0.853,2.568 0.568,2.6973 -0.292,0.1307 -0.276,-0.64 -0.61,-0.5107 -0.333,0.136 -0.266,0.6307 -0.496,0.652 -0.249,0.0254 -0.238,-0.5786 -0.525,-0.4893 -0.125,0.036 -0.344,0.588 -0.532,0.552 -0.167,-0.0373 -0.359,-0.5213 -0.489,-0.552 -0.208,-0.0573 -0.276,0.556 -0.448,0.5253 -0.463,-0.0733 0.188,-2.708 0.401,-2.8226 0.317,-0.1667 1.084,-0.4694 2.131,-0.052 z"
     id="path156" />
</svg>
