<?xml version="1.0" encoding="UTF-8" standalone="no"?>
<!-- Created with Inkscape (http://www.inkscape.org/) -->

<svg
   version="1.1"
   id="svg1"
   width="360.46698"
   height="136.45576"
   viewBox="0 0 360.46697 136.45576"
   sodipodi:docname="cell.svg"
   xmlns:inkscape="http://www.inkscape.org/namespaces/inkscape"
   xmlns:sodipodi="http://sodipodi.sourceforge.net/DTD/sodipodi-0.dtd"
   xmlns="http://www.w3.org/2000/svg"
   xmlns:svg="http://www.w3.org/2000/svg">
  <sodipodi:namedview
     id="namedview1"
     pagecolor="#ffffff"
     bordercolor="#000000"
     borderopacity="0.25"
     inkscape:showpageshadow="2"
     inkscape:pageopacity="0.0"
     inkscape:pagecheckerboard="0"
     inkscape:deskcolor="#d1d1d1">
    <inkscape:page
       x="1.7388821e-14"
       y="8.5226151e-14"
       inkscape:label="1"
       id="page1"
       width="360.46698"
       height="136.45576"
       margin="0"
       bleed="0" />
  </sodipodi:namedview>
  <defs
     id="defs1" />
  <path
     style="fill:#ffffff;fill-opacity:1;fill-rule:nonzero;stroke:none"
     d="M 0,18.874 H 18.875 V 0 H 0 Z"
     id="path503" />
  <path
     style="fill:#ffffff;fill-opacity:1;fill-rule:nonzero;stroke:none"
     d="m 343.541,18.874 h 16.926 V 0 h -16.926 z"
     id="path504" />
  <path
     style="fill:#ffffff;fill-opacity:1;fill-rule:nonzero;stroke:#231f20;stroke-width:0.665856;stroke-linecap:butt;stroke-linejoin:miter;stroke-miterlimit:4;stroke-dasharray:none;stroke-opacity:1"
     d="m 102.828,16.297 -5.375,31.213 1.318,0.23 5.369,-31.219 z"
     id="path505" />
  <path
     style="fill:#ffffff;fill-opacity:1;fill-rule:nonzero;stroke:none"
     d="m 93.068,51.765 c 0.4,-2.323 2.609,-3.885 4.932,-3.484 2.317,0.401 3.88,2.615 3.484,4.932 -0.401,2.319 -2.615,3.88 -4.932,3.485 -2.323,-0.401 -3.88,-2.614 -3.484,-4.933 m -1.313,-0.229 c -0.52,3.048 1.526,5.948 4.568,6.469 3.046,0.527 5.948,-1.527 6.473,-4.568 0.521,-3.041 -1.531,-5.943 -4.572,-6.468 -3.041,-0.521 -5.943,1.525 -6.469,4.567"
     id="path506" />
  <path
     style="fill:none;stroke:#231f20;stroke-width:0.665856;stroke-linecap:butt;stroke-linejoin:miter;stroke-miterlimit:4;stroke-dasharray:none;stroke-opacity:1"
     d="m 93.068,51.765 c 0.4,-2.323 2.609,-3.885 4.932,-3.484 2.317,0.401 3.88,2.615 3.484,4.932 -0.401,2.319 -2.615,3.88 -4.932,3.485 -2.323,-0.401 -3.88,-2.614 -3.484,-4.933 z m -1.313,-0.229 c -0.52,3.048 1.526,5.948 4.568,6.469 3.046,0.527 5.948,-1.527 6.473,-4.568 0.521,-3.041 -1.531,-5.943 -4.572,-6.468 -3.041,-0.521 -5.943,1.525 -6.469,4.567 z"
     id="path507" />
  <path
     style="fill:#ffffff;fill-opacity:1;fill-rule:nonzero;stroke:#231f20;stroke-width:0.665856;stroke-linecap:butt;stroke-linejoin:miter;stroke-miterlimit:4;stroke-dasharray:none;stroke-opacity:1"
     d="m 72.334,16.521 3.145,31.52 1.328,-0.135 -3.151,-31.521 z"
     id="path508" />
  <path
     style="fill:#ffffff;fill-opacity:1;fill-rule:nonzero;stroke:none"
     d="m 76.14,48.36 c 2.35,-0.136 4.371,1.666 4.5,4.02 0.136,2.349 -1.672,4.37 -4.02,4.5 -2.349,0.136 -4.37,-1.672 -4.505,-4.02 -0.131,-2.35 1.672,-4.371 4.025,-4.5 m -0.077,-1.334 c -3.079,0.176 -5.448,2.823 -5.276,5.906 0.177,3.084 2.828,5.453 5.905,5.281 3.084,-0.177 5.454,-2.828 5.282,-5.911 -0.178,-3.084 -2.823,-5.448 -5.911,-5.276"
     id="path509" />
  <path
     style="fill:none;stroke:#231f20;stroke-width:0.665856;stroke-linecap:butt;stroke-linejoin:miter;stroke-miterlimit:4;stroke-dasharray:none;stroke-opacity:1"
     d="m 76.14,48.36 c 2.35,-0.136 4.371,1.666 4.5,4.02 0.136,2.349 -1.672,4.37 -4.02,4.5 -2.349,0.136 -4.37,-1.672 -4.505,-4.02 -0.131,-2.35 1.672,-4.371 4.025,-4.5 z m -0.077,-1.334 c -3.079,0.176 -5.448,2.823 -5.276,5.906 0.177,3.084 2.828,5.453 5.905,5.281 3.084,-0.177 5.454,-2.828 5.282,-5.911 -0.178,-3.084 -2.823,-5.448 -5.911,-5.276 z"
     id="path510" />
  <path
     style="fill:#ffffff;fill-opacity:1;fill-rule:nonzero;stroke:#231f20;stroke-width:0.665856;stroke-linecap:butt;stroke-linejoin:miter;stroke-miterlimit:4;stroke-dasharray:none;stroke-opacity:1"
     d="m 125.62,16.521 -3.147,31.52 -1.322,-0.135 3.146,-31.521 z"
     id="path511" />
  <path
     style="fill:#ffffff;fill-opacity:1;fill-rule:nonzero;stroke:none"
     d="m 125.109,55.062 c -1.328,1.943 -3.989,2.448 -5.932,1.12 -1.942,-1.322 -2.448,-3.989 -1.12,-5.932 1.323,-1.942 3.984,-2.448 5.927,-1.12 1.948,1.328 2.448,3.984 1.125,5.932 M 116.953,49.5 c -1.74,2.552 -1.078,6.041 1.474,7.781 2.546,1.745 6.041,1.084 7.781,-1.469 1.74,-2.552 1.084,-6.042 -1.468,-7.78 -2.553,-1.746 -6.043,-1.084 -7.787,1.468"
     id="path512" />
  <path
     style="fill:none;stroke:#231f20;stroke-width:0.665856;stroke-linecap:butt;stroke-linejoin:miter;stroke-miterlimit:4;stroke-dasharray:none;stroke-opacity:1"
     d="m 125.109,55.062 c -1.328,1.943 -3.989,2.448 -5.932,1.12 -1.942,-1.322 -2.448,-3.989 -1.12,-5.932 1.323,-1.942 3.984,-2.448 5.927,-1.12 1.948,1.328 2.448,3.984 1.125,5.932 z M 116.953,49.5 c -1.74,2.552 -1.078,6.041 1.474,7.781 2.546,1.745 6.041,1.084 7.781,-1.469 1.74,-2.552 1.084,-6.042 -1.468,-7.78 -2.553,-1.746 -6.043,-1.084 -7.787,1.468 z"
     id="path513" />
  <path
     style="fill:#231f20;fill-opacity:1;fill-rule:nonzero;stroke:none"
     d="m 351.249,76.021 c 0.229,-1.333 -0.624,-1.833 -1.645,-1.661 -0.307,0.052 -0.62,-0.219 -0.918,-0.152 -0.681,0.172 -1.52,1.709 -0.421,2.729 0.084,0.068 0.484,0.787 0.869,1.271 0.751,0.948 2.73,2.485 5.396,2.125 1.271,-0.167 0.937,-0.885 0.396,-0.973 -1.682,-0.271 -1.776,-0.626 -2.197,-0.86 -1.417,-0.792 -1.48,-2.479 -1.48,-2.479"
     id="path514" />
  <path
     style="fill:none;stroke:#231f20;stroke-width:0.332927;stroke-linecap:butt;stroke-linejoin:miter;stroke-miterlimit:4;stroke-dasharray:none;stroke-opacity:1"
     d="m 351.249,76.021 c 0.229,-1.333 -0.624,-1.833 -1.645,-1.661 -0.307,0.052 -0.62,-0.219 -0.918,-0.152 -0.681,0.172 -1.52,1.709 -0.421,2.729 0.084,0.068 0.484,0.787 0.869,1.271 0.751,0.948 2.73,2.485 5.396,2.125 1.271,-0.167 0.937,-0.885 0.396,-0.973 -1.682,-0.271 -1.776,-0.626 -2.197,-0.86 -1.417,-0.792 -1.48,-2.479 -1.48,-2.479 z"
     id="path515" />
  <path
     style="fill:#231f20;fill-opacity:1;fill-rule:nonzero;stroke:none"
     d="m 337.333,63.458 c 1.443,-1.745 1.959,-1.89 2.74,-1.328 0.509,0.364 1.124,0.542 1.447,0.75 1.094,0.708 2.625,2.344 5.772,8.13 0.713,1.312 1.728,3.146 2.197,3.859 0.751,1.136 -1.636,1.615 -1.932,1.172 -0.964,-1.421 -1.74,-2.323 -2.156,-2.781 -0.287,-0.318 -0.715,-0.948 -1.98,-2.036 -1.911,-1.646 -3.301,-2.355 -4.739,-3.912 -0.662,-0.719 -1.62,-0.838 -1.917,-1.886 -0.292,-1.041 0.568,-1.968 0.568,-1.968"
     id="path516" />
  <path
     style="fill:none;stroke:#231f20;stroke-width:0.565977;stroke-linecap:butt;stroke-linejoin:miter;stroke-miterlimit:4;stroke-dasharray:none;stroke-opacity:1"
     d="m 337.333,63.458 c 1.443,-1.745 1.959,-1.89 2.74,-1.328 0.509,0.364 1.124,0.542 1.447,0.75 1.094,0.708 2.625,2.344 5.772,8.13 0.713,1.312 1.728,3.146 2.197,3.859 0.751,1.136 -1.636,1.615 -1.932,1.172 -0.964,-1.421 -1.74,-2.323 -2.156,-2.781 -0.287,-0.318 -0.715,-0.948 -1.98,-2.036 -1.911,-1.646 -3.301,-2.355 -4.739,-3.912 -0.662,-0.719 -1.62,-0.838 -1.917,-1.886 -0.292,-1.041 0.568,-1.968 0.568,-1.968 z"
     id="path517" />
  <path
     style="fill:#ca0369;fill-opacity:1;fill-rule:nonzero;stroke:none"
     d="m 322.374,42.041 c 1.948,2.453 2.636,2.767 3.448,3.204 5.084,2.755 3.64,5.197 1.094,6.552 -2.995,1.599 -4.031,2.229 -7.463,-3.052 -0.953,-1.469 -5.344,-6.62 -5.344,-6.62 -1.823,-1.636 -2.729,-4.204 -2.292,-5.589 0.453,-1.468 0.38,-0.854 1.052,-2.135 0.641,-1.213 2.5,-2.365 3.677,-1.984 1.131,0.359 1.5,1.989 2.344,4.26 0.667,1.792 3.484,5.364 3.484,5.364"
     id="path518" />
  <path
     style="fill:none;stroke:#231f20;stroke-width:0.565977;stroke-linecap:butt;stroke-linejoin:miter;stroke-miterlimit:4;stroke-dasharray:none;stroke-opacity:1"
     d="m 322.374,42.041 c 1.948,2.453 2.636,2.767 3.448,3.204 5.084,2.755 3.64,5.197 1.094,6.552 -2.995,1.599 -4.031,2.229 -7.463,-3.052 -0.953,-1.469 -5.344,-6.62 -5.344,-6.62 -1.823,-1.636 -2.729,-4.204 -2.292,-5.589 0.453,-1.468 0.38,-0.854 1.052,-2.135 0.641,-1.213 2.5,-2.365 3.677,-1.984 1.131,0.359 1.5,1.989 2.344,4.26 0.667,1.792 3.484,5.364 3.484,5.364 z"
     id="path519" />
  <path
     style="fill:#231f20;fill-opacity:1;fill-rule:nonzero;stroke:none"
     d="m 339.546,64.557 c -2.286,3.297 -4.24,-0.287 -4.636,-0.557 -4.134,-2.834 -4.358,-3.135 -7.353,-5.516 -4.328,-3.438 -6.765,-6.452 -5.505,-9.558 0.858,-2.104 2.265,-2.942 3.582,-2.932 1.459,0.011 4.267,1.506 4.48,4.386 l 1.011,1.385 c 0.801,0.839 1.192,1.267 1.619,1.657 0.745,0.667 1.5,1.432 2.876,2.823 2.442,2.463 4.224,5.875 4.224,5.875 0.853,0.906 -0.298,2.437 -0.298,2.437"
     id="path520" />
  <path
     style="fill:none;stroke:#231f20;stroke-width:0.565977;stroke-linecap:butt;stroke-linejoin:miter;stroke-miterlimit:4;stroke-dasharray:none;stroke-opacity:1"
     d="m 339.546,64.557 c -2.286,3.297 -4.24,-0.287 -4.636,-0.557 -4.134,-2.834 -4.358,-3.135 -7.353,-5.516 -4.328,-3.438 -6.765,-6.452 -5.505,-9.558 0.858,-2.104 2.265,-2.942 3.582,-2.932 1.459,0.011 4.267,1.506 4.48,4.386 l 1.011,1.385 c 0.801,0.839 1.192,1.267 1.619,1.657 0.745,0.667 1.5,1.432 2.876,2.823 2.442,2.463 4.224,5.875 4.224,5.875 0.853,0.906 -0.298,2.437 -0.298,2.437 z"
     id="path521" />
  <path
     style="fill:#ca0369;fill-opacity:1;fill-rule:nonzero;stroke:#231f20;stroke-width:0.565977;stroke-linecap:butt;stroke-linejoin:miter;stroke-miterlimit:4;stroke-dasharray:none;stroke-opacity:1"
     d="m 330.114,50.38 c -0.213,-2.88 -3.021,-4.375 -4.48,-4.386 -1.317,-0.01 -2.724,0.828 -3.582,2.932 -0.558,1.371 -0.37,2.719 0.354,4.095 0.266,1 0.458,1.599 1.203,1.9 0.068,0.027 0.14,0.063 0.208,0.105 0.385,0.443 0.803,0.886 1.276,1.339 z"
     id="path522" />
  <path
     style="fill:#ffffff;fill-opacity:1;fill-rule:nonzero;stroke:none"
     d="m 308.953,26.984 c -0.037,-0.244 -1.172,-0.391 -1.147,-0.916 0.032,-0.522 0.803,-0.678 1.751,-2.427 l 0.005,-0.021 c 0.651,-1.303 1.739,-2.167 2.995,-2.198 2.073,-0.057 3.817,2.187 3.891,5.01 0.077,2.822 -1.547,5.156 -3.626,5.213 -1.984,0.053 -3.672,-2.004 -3.869,-4.661"
     id="path523" />
  <path
     style="fill:none;stroke:#231f20;stroke-width:0.565977;stroke-linecap:butt;stroke-linejoin:miter;stroke-miterlimit:4;stroke-dasharray:none;stroke-opacity:1"
     d="m 308.953,26.984 c -0.037,-0.244 -1.172,-0.391 -1.147,-0.916 0.032,-0.522 0.803,-0.678 1.751,-2.427 l 0.005,-0.021 c 0.651,-1.303 1.739,-2.167 2.995,-2.198 2.073,-0.057 3.817,2.187 3.891,5.01 0.077,2.822 -1.547,5.156 -3.626,5.213 -1.984,0.053 -3.672,-2.004 -3.869,-4.661 z"
     id="path524" />
  <path
     style="fill:#231f20;fill-opacity:1;fill-rule:nonzero;stroke:none"
     d="m 319.145,55.75 c 0.308,-0.573 -0.125,-2.469 0.152,-4.057 0.181,-1.068 -0.496,-3.724 -0.229,-4.781 0.238,-0.964 0.254,-1.428 -0.798,-1.891 -0.62,-0.276 -2,-0.401 -2.229,0.052 -0.531,1.068 -0.588,2.016 -0.427,3.072 0.182,1.199 0.963,4.417 1.167,5 0.5,1.439 0.255,2.131 0.348,2.527 0.183,0.74 0.511,0.854 1.011,0.838 0.958,-0.026 1.005,-0.76 1.005,-0.76"
     id="path525" />
  <path
     style="fill:none;stroke:#231f20;stroke-width:0.565977;stroke-linecap:butt;stroke-linejoin:miter;stroke-miterlimit:4;stroke-dasharray:none;stroke-opacity:1"
     d="m 319.145,55.75 c 0.308,-0.573 -0.125,-2.469 0.152,-4.057 0.181,-1.068 -0.496,-3.724 -0.229,-4.781 0.238,-0.964 0.254,-1.428 -0.798,-1.891 -0.62,-0.276 -2,-0.401 -2.229,0.052 -0.531,1.068 -0.588,2.016 -0.427,3.072 0.182,1.199 0.963,4.417 1.167,5 0.5,1.439 0.255,2.131 0.348,2.527 0.183,0.74 0.511,0.854 1.011,0.838 0.958,-0.026 1.005,-0.76 1.005,-0.76 z"
     id="path526" />
  <path
     style="fill:#231f20;fill-opacity:1;fill-rule:nonzero;stroke:none"
     d="m 318.421,46.713 c 1.271,-0.244 0.527,-2.135 0.412,-2.667 -0.12,-0.525 -0.287,-2.077 -0.265,-3.296 0.025,-1.229 -0.47,-2.766 -0.428,-5.089 0.021,-1.224 -0.734,-2.427 -2.51,-2.385 -1.756,0.046 -2.39,1.052 -2.193,2.536 0.197,1.485 1.011,2.792 1.312,4.277 0.308,1.479 0.475,3.015 0.552,4.223 0.089,1.386 0.647,2.032 1.095,2.188 1.129,0.401 2.025,0.213 2.025,0.213"
     id="path527" />
  <path
     style="fill:none;stroke:#231f20;stroke-width:0.565977;stroke-linecap:butt;stroke-linejoin:miter;stroke-miterlimit:4;stroke-dasharray:none;stroke-opacity:1"
     d="m 318.421,46.713 c 1.271,-0.244 0.527,-2.135 0.412,-2.667 -0.12,-0.525 -0.287,-2.077 -0.265,-3.296 0.025,-1.229 -0.47,-2.766 -0.428,-5.089 0.021,-1.224 -0.734,-2.427 -2.51,-2.385 -1.756,0.046 -2.39,1.052 -2.193,2.536 0.197,1.485 1.011,2.792 1.312,4.277 0.308,1.479 0.475,3.015 0.552,4.223 0.089,1.386 0.647,2.032 1.095,2.188 1.129,0.401 2.025,0.213 2.025,0.213 z"
     id="path528" />
  <path
     style="fill:#ffffff;fill-opacity:1;fill-rule:nonzero;stroke:#231f20;stroke-width:0.665856;stroke-linecap:butt;stroke-linejoin:miter;stroke-miterlimit:4;stroke-dasharray:none;stroke-opacity:1"
     d="m 318.344,16.276 0.057,31.677 h -1.333 L 317.01,16.276 Z"
     id="path529" />
  <path
     style="fill:#ffffff;fill-opacity:1;fill-rule:nonzero;stroke:none"
     d="m 321.817,53.532 c -0.525,2.29 -2.823,3.733 -5.12,3.208 -2.291,-0.527 -3.729,-2.823 -3.203,-5.12 0.526,-2.292 2.823,-3.73 5.115,-3.203 2.297,0.525 3.735,2.817 3.208,5.115 m -9.62,-2.21 c -0.687,3.011 1.193,6.022 4.204,6.714 3.009,0.688 6.02,-1.198 6.713,-4.208 0.687,-3.011 -1.198,-6.02 -4.208,-6.708 -3.01,-0.694 -6.021,1.192 -6.709,4.202"
     id="path530" />
  <path
     style="fill:none;stroke:#231f20;stroke-width:0.665856;stroke-linecap:butt;stroke-linejoin:miter;stroke-miterlimit:4;stroke-dasharray:none;stroke-opacity:1"
     d="m 321.817,53.532 c -0.525,2.29 -2.823,3.733 -5.12,3.208 -2.291,-0.527 -3.729,-2.823 -3.203,-5.12 0.526,-2.292 2.823,-3.73 5.115,-3.203 2.297,0.525 3.735,2.817 3.208,5.115 z m -9.62,-2.21 c -0.687,3.011 1.193,6.022 4.204,6.714 3.009,0.688 6.02,-1.198 6.713,-4.208 0.687,-3.011 -1.198,-6.02 -4.208,-6.708 -3.01,-0.694 -6.021,1.192 -6.709,4.202 z"
     id="path531" />
  <path
     style="fill:#231f20;fill-opacity:1;fill-rule:nonzero;stroke:none"
     d="m 80.802,130.619 c 1.188,-0.645 1.052,-1.63 0.286,-2.328 -0.229,-0.208 -0.213,-0.625 -0.453,-0.808 -0.557,-0.426 -2.281,-0.134 -2.4,1.36 -0.011,0.104 -0.319,0.864 -0.459,1.468 -0.276,1.183 -0.26,3.678 1.678,5.554 0.921,0.89 1.27,0.181 1.009,-0.287 -0.832,-1.495 -0.609,-1.792 -0.687,-2.261 -0.26,-1.604 1.026,-2.698 1.026,-2.698"
     id="path532" />
  <path
     style="fill:none;stroke:#231f20;stroke-width:0.332927;stroke-linecap:butt;stroke-linejoin:miter;stroke-miterlimit:4;stroke-dasharray:none;stroke-opacity:1"
     d="m 80.802,130.619 c 1.188,-0.645 1.052,-1.63 0.286,-2.328 -0.229,-0.208 -0.213,-0.625 -0.453,-0.808 -0.557,-0.426 -2.281,-0.134 -2.4,1.36 -0.011,0.104 -0.319,0.864 -0.459,1.468 -0.276,1.183 -0.26,3.678 1.678,5.554 0.921,0.89 1.27,0.181 1.009,-0.287 -0.832,-1.495 -0.609,-1.792 -0.687,-2.261 -0.26,-1.604 1.026,-2.698 1.026,-2.698 z"
     id="path533" />
  <path
     style="fill:#231f20;fill-opacity:1;fill-rule:nonzero;stroke:none"
     d="m 82.036,111.906 c 2.266,0.052 2.699,0.369 2.746,1.328 0.025,0.635 0.27,1.219 0.306,1.604 0.12,1.292 -0.213,3.516 -2.806,9.568 -0.59,1.369 -1.396,3.301 -1.667,4.12 -0.428,1.285 -2.276,-0.292 -2.115,-0.797 0.516,-1.636 0.74,-2.803 0.85,-3.418 0.072,-0.421 0.296,-1.145 0.369,-2.812 0.109,-2.521 -0.203,-4.052 0.131,-6.14 0.156,-0.969 -0.344,-1.797 0.29,-2.672 0.636,-0.88 1.896,-0.781 1.896,-0.781"
     id="path534" />
  <path
     style="fill:none;stroke:#231f20;stroke-width:0.565977;stroke-linecap:butt;stroke-linejoin:miter;stroke-miterlimit:4;stroke-dasharray:none;stroke-opacity:1"
     d="m 82.036,111.906 c 2.266,0.052 2.699,0.369 2.746,1.328 0.025,0.635 0.27,1.219 0.306,1.604 0.12,1.292 -0.213,3.516 -2.806,9.568 -0.59,1.369 -1.396,3.301 -1.667,4.12 -0.428,1.285 -2.276,-0.292 -2.115,-0.797 0.516,-1.636 0.74,-2.803 0.85,-3.418 0.072,-0.421 0.296,-1.145 0.369,-2.812 0.109,-2.521 -0.203,-4.052 0.131,-6.14 0.156,-0.969 -0.344,-1.797 0.29,-2.672 0.636,-0.88 1.896,-0.781 1.896,-0.781 z"
     id="path535" />
  <path
     style="fill:#ca0369;fill-opacity:1;fill-rule:nonzero;stroke:none"
     d="m 89.073,86.885 c -0.553,3.084 -0.333,3.808 -0.125,4.703 1.301,5.636 -1.489,6.168 -4.188,5.152 -3.177,-1.188 -4.338,-1.547 -2.65,-7.615 0.468,-1.683 1.432,-8.391 1.432,-8.391 0.016,-2.442 1.344,-4.822 2.672,-5.417 1.401,-0.619 0.89,-0.276 2.297,-0.615 1.333,-0.328 3.426,0.303 3.921,1.443 0.479,1.084 -0.495,2.439 -1.645,4.573 -0.902,1.688 -1.714,6.167 -1.714,6.167"
     id="path536" />
  <path
     style="fill:none;stroke:#231f20;stroke-width:0.565977;stroke-linecap:butt;stroke-linejoin:miter;stroke-miterlimit:4;stroke-dasharray:none;stroke-opacity:1"
     d="m 89.073,86.885 c -0.553,3.084 -0.333,3.808 -0.125,4.703 1.301,5.636 -1.489,6.168 -4.188,5.152 -3.177,-1.188 -4.338,-1.547 -2.65,-7.615 0.468,-1.683 1.432,-8.391 1.432,-8.391 0.016,-2.442 1.344,-4.822 2.672,-5.417 1.401,-0.619 0.89,-0.276 2.297,-0.615 1.333,-0.328 3.426,0.303 3.921,1.443 0.479,1.084 -0.495,2.439 -1.645,4.573 -0.902,1.688 -1.714,6.167 -1.714,6.167 z"
     id="path537" />
  <path
     style="fill:#ffffff;fill-opacity:1;fill-rule:nonzero;stroke:none"
     d="m 88.344,68.292 c 0.025,-0.246 -1.037,-0.672 -0.876,-1.172 0.163,-0.5 0.943,-0.459 2.303,-1.912 l 0.016,-0.015 c 0.953,-1.1 2.224,-1.661 3.448,-1.376 2.02,0.469 3.14,3.079 2.505,5.828 -0.641,2.756 -2.797,4.605 -4.819,4.131 -1.937,-0.448 -3.052,-2.864 -2.577,-5.484"
     id="path538" />
  <path
     style="fill:none;stroke:#231f20;stroke-width:0.565977;stroke-linecap:butt;stroke-linejoin:miter;stroke-miterlimit:4;stroke-dasharray:none;stroke-opacity:1"
     d="m 88.344,68.292 c 0.025,-0.246 -1.037,-0.672 -0.876,-1.172 0.163,-0.5 0.943,-0.459 2.303,-1.912 l 0.016,-0.015 c 0.953,-1.1 2.224,-1.661 3.448,-1.376 2.02,0.469 3.14,3.079 2.505,5.828 -0.641,2.756 -2.797,4.605 -4.819,4.131 -1.937,-0.448 -3.052,-2.864 -2.577,-5.484 z"
     id="path539" />
  <path
     style="fill:#231f20;fill-opacity:1;fill-rule:nonzero;stroke:none"
     d="m 82.552,114.327 c -4.005,0.251 -2.412,-3.51 -2.442,-3.978 -0.339,-5 -0.235,-5.371 -0.224,-9.194 0.01,-5.53 0.869,-9.311 4.088,-10.238 2.182,-0.636 3.713,-0.052 4.521,0.989 0.89,1.151 1.464,4.282 -0.667,6.235 l -0.459,1.651 c -0.166,1.15 -0.26,1.718 -0.296,2.291 -0.068,1 -0.198,2.067 -0.438,4.01 -0.416,3.448 -1.989,6.953 -1.989,6.953 -0.183,1.229 -2.094,1.281 -2.094,1.281"
     id="path540" />
  <path
     style="fill:none;stroke:#231f20;stroke-width:0.565977;stroke-linecap:butt;stroke-linejoin:miter;stroke-miterlimit:4;stroke-dasharray:none;stroke-opacity:1"
     d="m 82.552,114.327 c -4.005,0.251 -2.412,-3.51 -2.442,-3.978 -0.339,-5 -0.235,-5.371 -0.224,-9.194 0.01,-5.53 0.869,-9.311 4.088,-10.238 2.182,-0.636 3.713,-0.052 4.521,0.989 0.89,1.151 1.464,4.282 -0.667,6.235 l -0.459,1.651 c -0.166,1.15 -0.26,1.718 -0.296,2.291 -0.068,1 -0.198,2.067 -0.438,4.01 -0.416,3.448 -1.989,6.953 -1.989,6.953 -0.183,1.229 -2.094,1.281 -2.094,1.281 z"
     id="path541" />
  <path
     style="fill:#ca0369;fill-opacity:1;fill-rule:nonzero;stroke:none"
     d="m 88.495,91.901 c -0.808,-1.036 -2.339,-1.62 -4.527,-0.984 -1.41,0.405 -2.358,1.385 -2.989,2.801 -0.62,0.834 -0.973,1.36 -0.744,2.136 0.02,0.067 0.031,0.146 0.041,0.224 -0.104,0.578 -0.198,1.176 -0.256,1.834 l 7.808,0.229 c 2.131,-1.953 1.557,-5.084 0.667,-6.24"
     id="path542" />
  <path
     style="fill:none;stroke:#231f20;stroke-width:0.565977;stroke-linecap:butt;stroke-linejoin:miter;stroke-miterlimit:4;stroke-dasharray:none;stroke-opacity:1"
     d="m 88.495,91.901 c -0.808,-1.036 -2.339,-1.62 -4.527,-0.984 -1.41,0.405 -2.358,1.385 -2.989,2.801 -0.62,0.834 -0.973,1.36 -0.744,2.136 0.02,0.067 0.031,0.146 0.041,0.224 -0.104,0.578 -0.198,1.176 -0.256,1.834 l 7.808,0.229 c 2.131,-1.953 1.557,-5.084 0.667,-6.24 z"
     id="path543" />
  <path
     style="fill:#231f20;fill-opacity:1;fill-rule:nonzero;stroke:none"
     d="m 95.104,57.776 c -0.516,0.385 -0.917,2.292 -1.833,3.614 -0.61,0.896 -1.11,3.594 -1.792,4.443 -0.62,0.771 -0.834,1.188 -0.068,2.052 0.453,0.511 1.652,1.204 2.052,0.88 0.928,-0.744 1.376,-1.577 1.666,-2.609 0.339,-1.167 0.975,-4.416 1.038,-5.026 0.145,-1.516 0.656,-2.046 0.734,-2.442 0.146,-0.751 -0.105,-0.99 -0.568,-1.188 -0.874,-0.375 -1.229,0.276 -1.229,0.276"
     id="path544" />
  <path
     style="fill:none;stroke:#231f20;stroke-width:0.565977;stroke-linecap:butt;stroke-linejoin:miter;stroke-miterlimit:4;stroke-dasharray:none;stroke-opacity:1"
     d="m 95.104,57.776 c -0.516,0.385 -0.917,2.292 -1.833,3.614 -0.61,0.896 -1.11,3.594 -1.792,4.443 -0.62,0.771 -0.834,1.188 -0.068,2.052 0.453,0.511 1.652,1.204 2.052,0.88 0.928,-0.744 1.376,-1.577 1.666,-2.609 0.339,-1.167 0.975,-4.416 1.038,-5.026 0.145,-1.516 0.656,-2.046 0.734,-2.442 0.146,-0.751 -0.105,-0.99 -0.568,-1.188 -0.874,-0.375 -1.229,0.276 -1.229,0.276 z"
     id="path545" />
  <path
     style="fill:#231f20;fill-opacity:1;fill-rule:nonzero;stroke:none"
     d="m 91.984,66.281 c -1.255,-0.312 -1.375,1.724 -1.489,2.251 -0.115,0.53 -0.604,2.009 -1.142,3.109 -0.53,1.104 -0.722,2.708 -1.733,4.801 -0.532,1.104 -0.349,2.511 1.281,3.208 1.615,0.699 2.61,0.048 3.052,-1.38 0.443,-1.426 0.25,-2.958 0.594,-4.432 0.344,-1.473 0.833,-2.937 1.265,-4.073 0.5,-1.291 0.265,-2.115 -0.077,-2.443 -0.855,-0.833 -1.751,-1.041 -1.751,-1.041"
     id="path546" />
  <path
     style="fill:none;stroke:#231f20;stroke-width:0.565977;stroke-linecap:butt;stroke-linejoin:miter;stroke-miterlimit:4;stroke-dasharray:none;stroke-opacity:1"
     d="m 91.984,66.281 c -1.255,-0.312 -1.375,1.724 -1.489,2.251 -0.115,0.53 -0.604,2.009 -1.142,3.109 -0.53,1.104 -0.722,2.708 -1.733,4.801 -0.532,1.104 -0.349,2.511 1.281,3.208 1.615,0.699 2.61,0.048 3.052,-1.38 0.443,-1.426 0.25,-2.958 0.594,-4.432 0.344,-1.473 0.833,-2.937 1.265,-4.073 0.5,-1.291 0.265,-2.115 -0.077,-2.443 -0.855,-0.833 -1.751,-1.041 -1.751,-1.041 z"
     id="path547" />
  <path
     style="fill:#231f20;fill-opacity:1;fill-rule:nonzero;stroke:none"
     d="m 95.479,57.63 c -0.406,-0.573 0.661,-2.625 0.98,-2.578 0.312,0.046 -0.115,0.688 0.233,0.756 0.355,0.072 0.563,-0.386 0.771,-0.282 0.224,0.115 -0.114,0.615 0.177,0.698 0.125,0.036 0.609,-0.307 0.745,-0.172 0.12,0.114 0.022,0.625 0.115,0.729 0.14,0.156 0.525,-0.323 0.661,-0.203 0.344,0.312 -1.625,2.178 -1.869,2.156 -0.349,-0.032 -1.163,-0.188 -1.813,-1.104"
     id="path548" />
  <path
     style="fill:none;stroke:#231f20;stroke-width:0.565977;stroke-linecap:round;stroke-linejoin:round;stroke-miterlimit:4;stroke-dasharray:none;stroke-opacity:1"
     d="m 95.479,57.63 c -0.406,-0.573 0.661,-2.625 0.98,-2.578 0.312,0.046 -0.115,0.688 0.233,0.756 0.355,0.072 0.563,-0.386 0.771,-0.282 0.224,0.115 -0.114,0.615 0.177,0.698 0.125,0.036 0.609,-0.307 0.745,-0.172 0.12,0.114 0.022,0.625 0.115,0.729 0.14,0.156 0.525,-0.323 0.661,-0.203 0.344,0.312 -1.625,2.178 -1.869,2.156 -0.349,-0.032 -1.163,-0.188 -1.813,-1.104 z"
     id="path549" />
  <path
     style="fill:#231f20;fill-opacity:1;fill-rule:nonzero;stroke:none"
     d="m 10.626,22.661 c -0.386,1.292 0.405,1.891 1.437,1.844 0.312,-0.016 0.588,0.292 0.896,0.255 0.692,-0.094 1.703,-1.515 0.733,-2.656 C 13.626,22.021 13.307,21.265 12.979,20.74 12.344,19.708 10.563,17.953 7.864,17.994 6.588,18.01 6.839,18.76 7.359,18.912 9,19.385 9.052,19.75 9.443,20.026 c 1.317,0.948 1.183,2.635 1.183,2.635"
     id="path550" />
  <path
     style="fill:none;stroke:#231f20;stroke-width:0.332927;stroke-linecap:butt;stroke-linejoin:miter;stroke-miterlimit:4;stroke-dasharray:none;stroke-opacity:1"
     d="m 10.626,22.661 c -0.386,1.292 0.405,1.891 1.437,1.844 0.312,-0.016 0.588,0.292 0.896,0.255 0.692,-0.094 1.703,-1.515 0.733,-2.656 C 13.626,22.021 13.307,21.265 12.979,20.74 12.344,19.708 10.563,17.953 7.864,17.994 6.588,18.01 6.839,18.76 7.359,18.912 9,19.385 9.052,19.75 9.443,20.026 c 1.317,0.948 1.183,2.635 1.183,2.635 z"
     id="path551" />
  <path
     style="fill:#231f20;fill-opacity:1;fill-rule:nonzero;stroke:none"
     d="m 22.974,36.77 c -1.64,1.563 -2.172,1.652 -2.875,1 -0.473,-0.432 -1.057,-0.672 -1.355,-0.916 -1,-0.833 -2.333,-2.641 -4.78,-8.75 -0.553,-1.386 -1.344,-3.334 -1.729,-4.099 -0.609,-1.208 1.817,-1.401 2.063,-0.932 0.785,1.52 1.452,2.511 1.812,3.016 0.244,0.353 0.598,1.025 1.718,2.255 1.708,1.858 3.011,2.724 4.25,4.437 0.578,0.797 1.516,1.027 1.682,2.093 0.172,1.074 -0.786,1.896 -0.786,1.896"
     id="path552" />
  <path
     style="fill:none;stroke:#231f20;stroke-width:0.565977;stroke-linecap:butt;stroke-linejoin:miter;stroke-miterlimit:4;stroke-dasharray:none;stroke-opacity:1"
     d="m 22.974,36.77 c -1.64,1.563 -2.172,1.652 -2.875,1 -0.473,-0.432 -1.057,-0.672 -1.355,-0.916 -1,-0.833 -2.333,-2.641 -4.78,-8.75 -0.553,-1.386 -1.344,-3.334 -1.729,-4.099 -0.609,-1.208 1.817,-1.401 2.063,-0.932 0.785,1.52 1.452,2.511 1.812,3.016 0.244,0.353 0.598,1.025 1.718,2.255 1.708,1.858 3.011,2.724 4.25,4.437 0.578,0.797 1.516,1.027 1.682,2.093 0.172,1.074 -0.786,1.896 -0.786,1.896 z"
     id="path553" />
  <path
     style="fill:#ca0369;fill-opacity:1;fill-rule:nonzero;stroke:none"
     d="m 39.938,56.213 c -2.984,-0.953 -3.73,-0.828 -4.646,-0.739 -5.756,0.547 -5.917,-2.292 -4.557,-4.833 1.599,-2.996 2.109,-4.095 7.896,-1.625 1.609,0.692 8.129,2.525 8.129,2.525 2.423,0.339 4.604,1.969 5.016,3.36 0.438,1.473 0.156,0.921 0.307,2.359 0.152,1.37 -0.749,3.36 -1.943,3.704 -1.134,0.322 -2.353,-0.819 -4.317,-2.235 -1.552,-1.12 -5.885,-2.516 -5.885,-2.516"
     id="path554" />
  <path
     style="fill:none;stroke:#231f20;stroke-width:0.565977;stroke-linecap:butt;stroke-linejoin:miter;stroke-miterlimit:4;stroke-dasharray:none;stroke-opacity:1"
     d="m 39.938,56.213 c -2.984,-0.953 -3.73,-0.828 -4.646,-0.739 -5.756,0.547 -5.917,-2.292 -4.557,-4.833 1.599,-2.996 2.109,-4.095 7.896,-1.625 1.609,0.692 8.129,2.525 8.129,2.525 2.423,0.339 4.604,1.969 5.016,3.36 0.438,1.473 0.156,0.921 0.307,2.359 0.152,1.37 -0.749,3.36 -1.943,3.704 -1.134,0.322 -2.353,-0.819 -4.317,-2.235 -1.552,-1.12 -5.885,-2.516 -5.885,-2.516 z"
     id="path555" />
  <path
     style="fill:#ffffff;fill-opacity:1;fill-rule:nonzero;stroke:none"
     d="m 57.187,52.276 c 0.224,-0.094 0.073,-1.235 0.584,-1.344 0.511,-0.104 0.869,0.6 2.803,1.057 l 0.02,0.005 c 1.426,0.282 2.546,1.11 2.906,2.314 0.594,1.984 -1.12,4.26 -3.822,5.061 -2.71,0.813 -5.386,-0.145 -5.98,-2.135 -0.568,-1.906 0.98,-4.068 3.489,-4.958"
     id="path556" />
  <path
     style="fill:none;stroke:#231f20;stroke-width:0.565977;stroke-linecap:butt;stroke-linejoin:miter;stroke-miterlimit:4;stroke-dasharray:none;stroke-opacity:1"
     d="m 57.187,52.276 c 0.224,-0.094 0.073,-1.235 0.584,-1.344 0.511,-0.104 0.869,0.6 2.803,1.057 l 0.02,0.005 c 1.426,0.282 2.546,1.11 2.906,2.314 0.594,1.984 -1.12,4.26 -3.822,5.061 -2.71,0.813 -5.386,-0.145 -5.98,-2.135 -0.568,-1.906 0.98,-4.068 3.489,-4.958 z"
     id="path557" />
  <path
     style="fill:#231f20;fill-opacity:1;fill-rule:nonzero;stroke:none"
     d="m 20.902,35.422 c 2.65,-3.005 4.181,0.776 4.536,1.088 3.776,3.302 3.964,3.631 6.656,6.344 3.901,3.922 5.964,7.203 4.344,10.135 -1.094,1.989 -2.588,2.656 -3.896,2.495 -1.448,-0.187 -4.063,-2 -3.943,-4.88 l -0.833,-1.495 c -0.698,-0.927 -1.031,-1.401 -1.412,-1.833 -0.662,-0.75 -1.323,-1.599 -2.526,-3.14 -2.141,-2.735 -3.505,-6.328 -3.505,-6.328 -0.745,-1 0.579,-2.386 0.579,-2.386"
     id="path558" />
  <path
     style="fill:none;stroke:#231f20;stroke-width:0.565977;stroke-linecap:butt;stroke-linejoin:miter;stroke-miterlimit:4;stroke-dasharray:none;stroke-opacity:1"
     d="m 20.902,35.422 c 2.65,-3.005 4.181,0.776 4.536,1.088 3.776,3.302 3.964,3.631 6.656,6.344 3.901,3.922 5.964,7.203 4.344,10.135 -1.094,1.989 -2.588,2.656 -3.896,2.495 -1.448,-0.187 -4.063,-2 -3.943,-4.88 l -0.833,-1.495 c -0.698,-0.927 -1.031,-1.401 -1.412,-1.833 -0.662,-0.75 -1.323,-1.599 -2.526,-3.14 -2.141,-2.735 -3.505,-6.328 -3.505,-6.328 -0.745,-1 0.579,-2.386 0.579,-2.386 z"
     id="path559" />
  <path
     style="fill:#ca0369;fill-opacity:1;fill-rule:nonzero;stroke:none"
     d="M 36.574,48.885 C 36.422,47.86 36.302,47.24 35.594,46.854 35.536,46.822 35.468,46.776 35.407,46.724 35.078,46.245 34.714,45.75 34.298,45.245 l -5.699,5.359 c -0.12,2.885 2.495,4.698 3.943,4.88 1.308,0.166 2.802,-0.506 3.896,-2.495 0.713,-1.291 0.692,-2.651 0.136,-4.104"
     id="path560" />
  <path
     style="fill:none;stroke:#231f20;stroke-width:0.565977;stroke-linecap:butt;stroke-linejoin:miter;stroke-miterlimit:4;stroke-dasharray:none;stroke-opacity:1"
     d="M 36.574,48.885 C 36.422,47.86 36.302,47.24 35.594,46.854 35.536,46.822 35.468,46.776 35.407,46.724 35.078,46.245 34.714,45.75 34.298,45.245 l -5.699,5.359 c -0.12,2.885 2.495,4.698 3.943,4.88 1.308,0.166 2.802,-0.506 3.896,-2.495 0.713,-1.291 0.692,-2.651 0.136,-4.104 z"
     id="path561" />
  <path
     style="fill:#231f20;fill-opacity:1;fill-rule:nonzero;stroke:none"
     d="m 69.672,52.932 c -0.594,-0.255 -2.448,0.344 -4.052,0.204 -1.078,-0.09 -3.666,0.817 -4.74,0.645 -0.984,-0.151 -1.448,-0.131 -1.817,0.959 -0.224,0.645 -0.224,2.03 0.249,2.218 1.11,0.438 2.052,0.411 3.095,0.156 1.181,-0.286 4.317,-1.344 4.875,-1.593 1.39,-0.625 2.104,-0.443 2.489,-0.573 0.724,-0.246 0.807,-0.579 0.755,-1.083 -0.115,-0.948 -0.854,-0.933 -0.854,-0.933"
     id="path562" />
  <path
     style="fill:none;stroke:#231f20;stroke-width:0.565977;stroke-linecap:butt;stroke-linejoin:miter;stroke-miterlimit:4;stroke-dasharray:none;stroke-opacity:1"
     d="m 69.672,52.932 c -0.594,-0.255 -2.448,0.344 -4.052,0.204 -1.078,-0.09 -3.666,0.817 -4.74,0.645 -0.984,-0.151 -1.448,-0.131 -1.817,0.959 -0.224,0.645 -0.224,2.03 0.249,2.218 1.11,0.438 2.052,0.411 3.095,0.156 1.181,-0.286 4.317,-1.344 4.875,-1.593 1.39,-0.625 2.104,-0.443 2.489,-0.573 0.724,-0.246 0.807,-0.579 0.755,-1.083 -0.115,-0.948 -0.854,-0.933 -0.854,-0.933 z"
     id="path563" />
  <path
     style="fill:#231f20;fill-opacity:1;fill-rule:nonzero;stroke:none"
     d="m 60.74,54.442 c -0.354,-1.244 -2.177,-0.344 -2.693,-0.177 -0.521,0.167 -2.047,0.469 -3.265,0.552 -1.224,0.084 -2.714,0.709 -5.032,0.871 -1.219,0.088 -2.354,0.942 -2.151,2.708 0.193,1.74 1.251,2.292 2.708,1.964 1.464,-0.328 2.693,-1.251 4.147,-1.683 1.453,-0.432 2.968,-0.735 4.166,-0.917 1.37,-0.208 1.963,-0.818 2.083,-1.282 C 61,55.322 60.74,54.442 60.74,54.442"
     id="path564" />
  <path
     style="fill:none;stroke:#231f20;stroke-width:0.565977;stroke-linecap:butt;stroke-linejoin:miter;stroke-miterlimit:4;stroke-dasharray:none;stroke-opacity:1"
     d="m 60.74,54.442 c -0.354,-1.244 -2.177,-0.344 -2.693,-0.177 -0.521,0.167 -2.047,0.469 -3.265,0.552 -1.224,0.084 -2.714,0.709 -5.032,0.871 -1.219,0.088 -2.354,0.942 -2.151,2.708 0.193,1.74 1.251,2.292 2.708,1.964 1.464,-0.328 2.693,-1.251 4.147,-1.683 1.453,-0.432 2.968,-0.735 4.166,-0.917 1.37,-0.208 1.963,-0.818 2.083,-1.282 C 61,55.322 60.74,54.442 60.74,54.442 Z"
     id="path565" />
  <path
     style="fill:#231f20;fill-opacity:1;fill-rule:nonzero;stroke:none"
     d="m 70.074,54.776 c 0.394,0.578 2.692,0.265 2.754,-0.047 0.063,-0.312 -0.682,-0.125 -0.63,-0.479 0.052,-0.354 0.552,-0.396 0.521,-0.625 -0.027,-0.251 -0.615,-0.099 -0.593,-0.407 0.009,-0.129 0.494,-0.468 0.416,-0.645 -0.068,-0.147 -0.583,-0.229 -0.646,-0.349 -0.1,-0.188 0.479,-0.386 0.411,-0.552 -0.172,-0.432 -2.593,0.792 -2.656,1.021 -0.093,0.343 -0.219,1.156 0.423,2.083"
     id="path566" />
  <path
     style="fill:none;stroke:#231f20;stroke-width:0.565977;stroke-linecap:round;stroke-linejoin:round;stroke-miterlimit:4;stroke-dasharray:none;stroke-opacity:1"
     d="m 70.074,54.776 c 0.394,0.578 2.692,0.265 2.754,-0.047 0.063,-0.312 -0.682,-0.125 -0.63,-0.479 0.052,-0.354 0.552,-0.396 0.521,-0.625 -0.027,-0.251 -0.615,-0.099 -0.593,-0.407 0.009,-0.129 0.494,-0.468 0.416,-0.645 -0.068,-0.147 -0.583,-0.229 -0.646,-0.349 -0.1,-0.188 0.479,-0.386 0.411,-0.552 -0.172,-0.432 -2.593,0.792 -2.656,1.021 -0.093,0.343 -0.219,1.156 0.423,2.083 z"
     id="path567" />
  <path
     style="fill:#231f20;fill-opacity:1;fill-rule:nonzero;stroke:none"
     d="m 196.031,74.688 c -0.75,-1.126 -1.719,-0.902 -2.344,-0.074 -0.187,0.246 -0.599,0.271 -0.766,0.527 -0.374,0.588 0.074,2.281 1.574,2.265 0.109,-0.005 0.89,0.239 1.505,0.323 1.197,0.172 3.687,-0.073 5.38,-2.172 0.803,-0.995 0.068,-1.287 -0.385,-0.979 -1.412,0.963 -1.724,0.771 -2.183,0.891 -1.577,0.4 -2.781,-0.781 -2.781,-0.781"
     id="path568" />
  <path
     style="fill:none;stroke:#231f20;stroke-width:0.332927;stroke-linecap:butt;stroke-linejoin:miter;stroke-miterlimit:4;stroke-dasharray:none;stroke-opacity:1"
     d="m 196.031,74.688 c -0.75,-1.126 -1.719,-0.902 -2.344,-0.074 -0.187,0.246 -0.599,0.271 -0.766,0.527 -0.374,0.588 0.074,2.281 1.574,2.265 0.109,-0.005 0.89,0.239 1.505,0.323 1.197,0.172 3.687,-0.073 5.38,-2.172 0.803,-0.995 0.068,-1.287 -0.385,-0.979 -1.412,0.963 -1.724,0.771 -2.183,0.891 -1.577,0.4 -2.781,-0.781 -2.781,-0.781 z"
     id="path569" />
  <path
     style="fill:#231f20;fill-opacity:1;fill-rule:nonzero;stroke:none"
     d="m 177.287,75.156 c -0.158,-2.26 0.12,-2.724 1.066,-2.854 0.631,-0.084 1.194,-0.381 1.574,-0.448 1.276,-0.24 3.521,-0.109 9.781,1.922 1.421,0.464 3.417,1.098 4.256,1.292 1.323,0.306 -0.084,2.292 -0.605,2.177 -1.672,-0.365 -2.854,-0.485 -3.474,-0.532 -0.426,-0.036 -1.172,-0.197 -2.833,-0.12 -2.527,0.125 -4.021,0.568 -6.131,0.428 -0.978,-0.063 -1.754,0.505 -2.686,-0.047 -0.934,-0.557 -0.948,-1.818 -0.948,-1.818"
     id="path570" />
  <path
     style="fill:none;stroke:#231f20;stroke-width:0.565977;stroke-linecap:butt;stroke-linejoin:miter;stroke-miterlimit:4;stroke-dasharray:none;stroke-opacity:1"
     d="m 177.287,75.156 c -0.158,-2.26 0.12,-2.724 1.066,-2.854 0.631,-0.084 1.194,-0.381 1.574,-0.448 1.276,-0.24 3.521,-0.109 9.781,1.922 1.421,0.464 3.417,1.098 4.256,1.292 1.323,0.306 -0.084,2.292 -0.605,2.177 -1.672,-0.365 -2.854,-0.485 -3.474,-0.532 -0.426,-0.036 -1.172,-0.197 -2.833,-0.12 -2.527,0.125 -4.021,0.568 -6.131,0.428 -0.978,-0.063 -1.754,0.505 -2.686,-0.047 -0.934,-0.557 -0.948,-1.818 -0.948,-1.818 z"
     id="path571" />
  <path
     style="fill:#ca0369;fill-opacity:1;fill-rule:nonzero;stroke:none"
     d="m 153.411,67.765 c 2.886,1.209 3.641,1.152 4.562,1.147 5.782,-0.047 5.694,2.79 4.115,5.208 -1.848,2.844 -2.453,3.896 -8.005,0.926 -1.547,-0.822 -7.88,-3.218 -7.88,-3.218 -2.386,-0.552 -4.416,-2.364 -4.703,-3.787 -0.308,-1.509 -0.079,-0.932 -0.104,-2.38 -0.032,-1.375 1.047,-3.281 2.26,-3.516 1.161,-0.224 2.271,1.016 4.109,2.605 1.448,1.244 5.646,3.015 5.646,3.015"
     id="path572" />
  <path
     style="fill:none;stroke:#231f20;stroke-width:0.565977;stroke-linecap:butt;stroke-linejoin:miter;stroke-miterlimit:4;stroke-dasharray:none;stroke-opacity:1"
     d="m 153.411,67.765 c 2.886,1.209 3.641,1.152 4.562,1.147 5.782,-0.047 5.694,2.79 4.115,5.208 -1.848,2.844 -2.453,3.896 -8.005,0.926 -1.547,-0.822 -7.88,-3.218 -7.88,-3.218 -2.386,-0.552 -4.416,-2.364 -4.703,-3.787 -0.308,-1.509 -0.079,-0.932 -0.104,-2.38 -0.032,-1.375 1.047,-3.281 2.26,-3.516 1.161,-0.224 2.271,1.016 4.109,2.605 1.448,1.244 5.646,3.015 5.646,3.015 z"
     id="path573" />
  <path
     style="fill:#ffffff;fill-opacity:1;fill-rule:nonzero;stroke:none"
     d="m 135.192,64.838 c -0.233,-0.073 -0.859,0.891 -1.317,0.64 -0.459,-0.249 -0.271,-1.014 -1.443,-2.618 l -0.016,-0.016 c -0.9,-1.146 -1.213,-2.5 -0.703,-3.646 0.839,-1.901 3.615,-2.516 6.194,-1.37 2.582,1.141 3.994,3.604 3.156,5.505 -0.803,1.817 -3.386,2.459 -5.871,1.505"
     id="path574" />
  <path
     style="fill:none;stroke:#231f20;stroke-width:0.565977;stroke-linecap:butt;stroke-linejoin:miter;stroke-miterlimit:4;stroke-dasharray:none;stroke-opacity:1"
     d="m 135.192,64.838 c -0.233,-0.073 -0.859,0.891 -1.317,0.64 -0.459,-0.249 -0.271,-1.014 -1.443,-2.618 l -0.016,-0.016 c -0.9,-1.146 -1.213,-2.5 -0.703,-3.646 0.839,-1.901 3.615,-2.516 6.194,-1.37 2.582,1.141 3.994,3.604 3.156,5.505 -0.803,1.817 -3.386,2.459 -5.871,1.505 z"
     id="path575" />
  <path
     style="fill:#231f20;fill-opacity:1;fill-rule:nonzero;stroke:none"
     d="m 179.651,74.422 c 0.609,3.968 -3.276,2.719 -3.75,2.791 -4.942,0.792 -5.318,0.724 -9.13,1.063 -5.506,0.484 -9.35,-0.026 -10.568,-3.146 -0.828,-2.114 -0.386,-3.693 0.578,-4.594 1.063,-0.995 4.13,-1.843 6.266,0.1 l 1.688,0.312 c 1.161,0.057 1.733,0.098 2.306,0.084 1.006,-0.027 2.084,0.009 4.036,0.066 3.47,0.11 7.106,1.355 7.106,1.355 1.244,0.068 1.468,1.969 1.468,1.969"
     id="path576" />
  <path
     style="fill:none;stroke:#231f20;stroke-width:0.565977;stroke-linecap:butt;stroke-linejoin:miter;stroke-miterlimit:4;stroke-dasharray:none;stroke-opacity:1"
     d="m 179.651,74.422 c 0.609,3.968 -3.276,2.719 -3.75,2.791 -4.942,0.792 -5.318,0.724 -9.13,1.063 -5.506,0.484 -9.35,-0.026 -10.568,-3.146 -0.828,-2.114 -0.386,-3.693 0.578,-4.594 1.063,-0.995 4.13,-1.843 6.266,0.1 l 1.688,0.312 c 1.161,0.057 1.733,0.098 2.306,0.084 1.006,-0.027 2.084,0.009 4.036,0.066 3.47,0.11 7.106,1.355 7.106,1.355 1.244,0.068 1.468,1.969 1.468,1.969 z"
     id="path577" />
  <path
     style="fill:#ca0369;fill-opacity:1;fill-rule:nonzero;stroke:none"
     d="m 163.525,78.432 -0.473,-7.796 c -2.141,-1.943 -5.208,-1.095 -6.271,-0.1 -0.964,0.901 -1.406,2.48 -0.584,4.594 0.543,1.375 1.604,2.23 3.074,2.724 0.885,0.547 1.437,0.848 2.182,0.552 0.067,-0.026 0.151,-0.046 0.23,-0.068 0.582,0.058 1.186,0.094 1.842,0.094"
     id="path578" />
  <path
     style="fill:none;stroke:#231f20;stroke-width:0.565977;stroke-linecap:butt;stroke-linejoin:miter;stroke-miterlimit:4;stroke-dasharray:none;stroke-opacity:1"
     d="m 163.525,78.432 -0.473,-7.796 c -2.141,-1.943 -5.208,-1.095 -6.271,-0.1 -0.964,0.901 -1.406,2.48 -0.584,4.594 0.543,1.375 1.604,2.23 3.074,2.724 0.885,0.547 1.437,0.848 2.182,0.552 0.067,-0.026 0.151,-0.046 0.23,-0.068 0.582,0.058 1.186,0.094 1.842,0.094 z"
     id="path579" />
  <path
     style="fill:#231f20;fill-opacity:1;fill-rule:nonzero;stroke:none"
     d="m 126.125,56.229 c 0.286,0.579 2.078,1.328 3.214,2.473 0.76,0.772 3.317,1.767 4.025,2.595 0.641,0.755 1.011,1.041 2,0.453 0.589,-0.349 1.489,-1.401 1.251,-1.849 -0.558,-1.052 -1.292,-1.647 -2.251,-2.131 -1.083,-0.552 -4.156,-1.781 -4.744,-1.958 -1.464,-0.427 -1.885,-1.026 -2.261,-1.176 -0.708,-0.287 -0.99,-0.084 -1.271,0.333 -0.536,0.791 0.037,1.26 0.037,1.26"
     id="path580" />
  <path
     style="fill:none;stroke:#231f20;stroke-width:0.565977;stroke-linecap:butt;stroke-linejoin:miter;stroke-miterlimit:4;stroke-dasharray:none;stroke-opacity:1"
     d="m 126.125,56.229 c 0.286,0.579 2.078,1.328 3.214,2.473 0.76,0.772 3.317,1.767 4.025,2.595 0.641,0.755 1.011,1.041 2,0.453 0.589,-0.349 1.489,-1.401 1.251,-1.849 -0.558,-1.052 -1.292,-1.647 -2.251,-2.131 -1.083,-0.552 -4.156,-1.781 -4.744,-1.958 -1.464,-0.427 -1.885,-1.026 -2.261,-1.176 -0.708,-0.287 -0.99,-0.084 -1.271,0.333 -0.536,0.791 0.037,1.26 0.037,1.26 z"
     id="path581" />
  <path
     style="fill:#231f20;fill-opacity:1;fill-rule:nonzero;stroke:none"
     d="m 133.896,60.885 c -0.543,1.177 1.437,1.672 1.932,1.885 0.505,0.208 1.859,0.97 2.844,1.699 0.984,0.729 2.52,1.224 4.391,2.604 0.984,0.729 2.4,0.817 3.396,-0.656 0.978,-1.453 0.53,-2.557 -0.792,-3.256 -1.318,-0.703 -2.855,-0.801 -4.24,-1.416 -1.386,-0.609 -2.735,-1.365 -3.76,-2.005 -1.178,-0.73 -2.027,-0.656 -2.423,-0.38 -0.973,0.686 -1.348,1.525 -1.348,1.525"
     id="path582" />
  <path
     style="fill:none;stroke:#231f20;stroke-width:0.565977;stroke-linecap:butt;stroke-linejoin:miter;stroke-miterlimit:4;stroke-dasharray:none;stroke-opacity:1"
     d="m 133.896,60.885 c -0.543,1.177 1.437,1.672 1.932,1.885 0.505,0.208 1.859,0.97 2.844,1.699 0.984,0.729 2.52,1.224 4.391,2.604 0.984,0.729 2.4,0.817 3.396,-0.656 0.978,-1.453 0.53,-2.557 -0.792,-3.256 -1.318,-0.703 -2.855,-0.801 -4.24,-1.416 -1.386,-0.609 -2.735,-1.365 -3.76,-2.005 -1.178,-0.73 -2.027,-0.656 -2.423,-0.38 -0.973,0.686 -1.348,1.525 -1.348,1.525 z"
     id="path583" />
  <path
     style="fill:#231f20;fill-opacity:1;fill-rule:nonzero;stroke:none"
     d="m 127.077,54.74 c 0.194,-0.672 -1.5,-2.251 -1.78,-2.104 -0.281,0.15 0.334,0.609 0.026,0.79 -0.307,0.183 -0.656,-0.176 -0.818,-0.009 -0.172,0.181 0.312,0.541 0.063,0.719 -0.105,0.072 -0.677,-0.09 -0.761,0.082 -0.072,0.151 0.188,0.599 0.136,0.724 -0.084,0.199 -0.604,-0.125 -0.688,0.032 -0.224,0.406 2.256,1.51 2.474,1.411 0.323,-0.145 1.031,-0.563 1.348,-1.645"
     id="path584" />
  <path
     style="fill:none;stroke:#231f20;stroke-width:0.565977;stroke-linecap:round;stroke-linejoin:round;stroke-miterlimit:4;stroke-dasharray:none;stroke-opacity:1"
     d="m 127.077,54.74 c 0.194,-0.672 -1.5,-2.251 -1.78,-2.104 -0.281,0.15 0.334,0.609 0.026,0.79 -0.307,0.183 -0.656,-0.176 -0.818,-0.009 -0.172,0.181 0.312,0.541 0.063,0.719 -0.105,0.072 -0.677,-0.09 -0.761,0.082 -0.072,0.151 0.188,0.599 0.136,0.724 -0.084,0.199 -0.604,-0.125 -0.688,0.032 -0.224,0.406 2.256,1.51 2.474,1.411 0.323,-0.145 1.031,-0.563 1.348,-1.645 z"
     id="path585" />
  <path
     style="fill:#231f20;fill-opacity:1;fill-rule:nonzero;stroke:none"
     d="m 229.249,49.75 c -0.989,-0.928 -1.875,-0.49 -2.296,0.458 -0.125,0.281 -0.527,0.396 -0.625,0.682 -0.235,0.662 0.582,2.208 2.041,1.855 0.104,-0.032 0.923,0.025 1.537,-0.027 1.208,-0.104 3.578,-0.91 4.75,-3.333 0.557,-1.156 -0.224,-1.271 -0.599,-0.869 -1.151,1.254 -1.5,1.14 -1.928,1.358 -1.437,0.751 -2.88,-0.124 -2.88,-0.124"
     id="path586" />
  <path
     style="fill:none;stroke:#231f20;stroke-width:0.332927;stroke-linecap:butt;stroke-linejoin:miter;stroke-miterlimit:4;stroke-dasharray:none;stroke-opacity:1"
     d="m 229.249,49.75 c -0.989,-0.928 -1.875,-0.49 -2.296,0.458 -0.125,0.281 -0.527,0.396 -0.625,0.682 -0.235,0.662 0.582,2.208 2.041,1.855 0.104,-0.032 0.923,0.025 1.537,-0.027 1.208,-0.104 3.578,-0.91 4.75,-3.333 0.557,-1.156 -0.224,-1.271 -0.599,-0.869 -1.151,1.254 -1.5,1.14 -1.928,1.358 -1.437,0.751 -2.88,-0.124 -2.88,-0.124 z"
     id="path587" />
  <path
     style="fill:#231f20;fill-opacity:1;fill-rule:nonzero;stroke:none"
     d="m 211.099,54.453 c -0.662,-2.167 -0.5,-2.677 0.396,-3.021 0.593,-0.224 1.073,-0.64 1.426,-0.791 1.194,-0.527 3.402,-0.901 9.964,-0.344 1.489,0.125 3.577,0.291 4.432,0.287 1.36,0 0.448,2.254 -0.088,2.26 -1.713,0.025 -2.896,0.172 -3.505,0.265 -0.423,0.063 -1.188,0.073 -2.792,0.532 -2.427,0.692 -3.781,1.463 -5.869,1.807 -0.97,0.156 -1.595,0.89 -2.631,0.562 -1.031,-0.328 -1.333,-1.557 -1.333,-1.557"
     id="path588" />
  <path
     style="fill:none;stroke:#231f20;stroke-width:0.565977;stroke-linecap:butt;stroke-linejoin:miter;stroke-miterlimit:4;stroke-dasharray:none;stroke-opacity:1"
     d="m 211.099,54.453 c -0.662,-2.167 -0.5,-2.677 0.396,-3.021 0.593,-0.224 1.073,-0.64 1.426,-0.791 1.194,-0.527 3.402,-0.901 9.964,-0.344 1.489,0.125 3.577,0.291 4.432,0.287 1.36,0 0.448,2.254 -0.088,2.26 -1.713,0.025 -2.896,0.172 -3.505,0.265 -0.423,0.063 -1.188,0.073 -2.792,0.532 -2.427,0.692 -3.781,1.463 -5.869,1.807 -0.97,0.156 -1.595,0.89 -2.631,0.562 -1.031,-0.328 -1.333,-1.557 -1.333,-1.557 z"
     id="path589" />
  <path
     style="fill:#ca0369;fill-opacity:1;fill-rule:nonzero;stroke:none"
     d="m 184.989,55.15 c 3.12,-0.276 3.755,-0.676 4.574,-1.109 5.093,-2.729 6.338,-0.181 6.068,2.693 -0.314,3.38 -0.36,4.594 -6.658,4.552 -1.749,-0.016 -8.468,0.818 -8.468,0.818 -2.37,0.62 -5.01,-0.036 -5.928,-1.162 -0.973,-1.192 -0.5,-0.792 -1.202,-2.057 -0.662,-1.203 -0.599,-3.391 0.365,-4.161 0.927,-0.746 2.484,-0.162 4.848,0.385 1.86,0.432 6.401,0.041 6.401,0.041"
     id="path590" />
  <path
     style="fill:none;stroke:#231f20;stroke-width:0.565977;stroke-linecap:butt;stroke-linejoin:miter;stroke-miterlimit:4;stroke-dasharray:none;stroke-opacity:1"
     d="m 184.989,55.15 c 3.12,-0.276 3.755,-0.676 4.574,-1.109 5.093,-2.729 6.338,-0.181 6.068,2.693 -0.314,3.38 -0.36,4.594 -6.658,4.552 -1.749,-0.016 -8.468,0.818 -8.468,0.818 -2.37,0.62 -5.01,-0.036 -5.928,-1.162 -0.973,-1.192 -0.5,-0.792 -1.202,-2.057 -0.662,-1.203 -0.599,-3.391 0.365,-4.161 0.927,-0.746 2.484,-0.162 4.848,0.385 1.86,0.432 6.401,0.041 6.401,0.041 z"
     id="path591" />
  <path
     style="fill:#ffffff;fill-opacity:1;fill-rule:nonzero;stroke:none"
     d="m 167.505,61.046 c -0.245,0.043 -0.344,1.188 -0.87,1.183 -0.52,-0.011 -0.708,-0.776 -2.5,-1.651 l -0.02,-0.005 c -1.328,-0.595 -2.235,-1.647 -2.319,-2.901 -0.145,-2.068 2.027,-3.907 4.844,-4.094 2.819,-0.193 5.219,1.334 5.36,3.4 0.135,1.986 -1.855,3.756 -4.495,4.068"
     id="path592" />
  <path
     style="fill:none;stroke:#231f20;stroke-width:0.565977;stroke-linecap:butt;stroke-linejoin:miter;stroke-miterlimit:4;stroke-dasharray:none;stroke-opacity:1"
     d="m 167.505,61.046 c -0.245,0.043 -0.344,1.188 -0.87,1.183 -0.52,-0.011 -0.708,-0.776 -2.5,-1.651 l -0.02,-0.005 c -1.328,-0.595 -2.235,-1.647 -2.319,-2.901 -0.145,-2.068 2.027,-3.907 4.844,-4.094 2.819,-0.193 5.219,1.334 5.36,3.4 0.135,1.986 -1.855,3.756 -4.495,4.068 z"
     id="path593" />
  <path
     style="fill:#231f20;fill-opacity:1;fill-rule:nonzero;stroke:none"
     d="m 213.235,53.208 c 1.494,3.724 -2.574,3.385 -3.016,3.568 -4.642,1.89 -5.016,1.912 -8.651,3.098 -5.251,1.724 -9.115,2.1 -11.011,-0.661 -1.286,-1.875 -1.213,-3.511 -0.48,-4.604 0.814,-1.208 3.606,-2.735 6.131,-1.328 l 1.713,-0.079 c 1.142,-0.208 1.714,-0.301 2.266,-0.442 0.974,-0.255 2.026,-0.463 3.948,-0.848 3.401,-0.683 7.224,-0.292 7.224,-0.292 1.229,-0.214 1.876,1.588 1.876,1.588"
     id="path594" />
  <path
     style="fill:none;stroke:#231f20;stroke-width:0.565977;stroke-linecap:butt;stroke-linejoin:miter;stroke-miterlimit:4;stroke-dasharray:none;stroke-opacity:1"
     d="m 213.235,53.208 c 1.494,3.724 -2.574,3.385 -3.016,3.568 -4.642,1.89 -5.016,1.912 -8.651,3.098 -5.251,1.724 -9.115,2.1 -11.011,-0.661 -1.286,-1.875 -1.213,-3.511 -0.48,-4.604 0.814,-1.208 3.606,-2.735 6.131,-1.328 l 1.713,-0.079 c 1.142,-0.208 1.714,-0.301 2.266,-0.442 0.974,-0.255 2.026,-0.463 3.948,-0.848 3.401,-0.683 7.224,-0.292 7.224,-0.292 1.229,-0.214 1.876,1.588 1.876,1.588 z"
     id="path595" />
  <path
     style="fill:#ca0369;fill-opacity:1;fill-rule:nonzero;stroke:none"
     d="m 198.437,60.765 -2.229,-7.484 c -2.525,-1.407 -5.317,0.12 -6.131,1.328 -0.733,1.093 -0.806,2.729 0.48,4.604 0.834,1.213 2.063,1.808 3.61,1.959 0.984,0.328 1.588,0.5 2.249,0.041 0.063,-0.041 0.136,-0.083 0.209,-0.12 0.578,-0.077 1.176,-0.176 1.812,-0.328"
     id="path596" />
  <path
     style="fill:none;stroke:#231f20;stroke-width:0.565977;stroke-linecap:butt;stroke-linejoin:miter;stroke-miterlimit:4;stroke-dasharray:none;stroke-opacity:1"
     d="m 198.437,60.765 -2.229,-7.484 c -2.525,-1.407 -5.317,0.12 -6.131,1.328 -0.733,1.093 -0.806,2.729 0.48,4.604 0.834,1.213 2.063,1.808 3.61,1.959 0.984,0.328 1.588,0.5 2.249,0.041 0.063,-0.041 0.136,-0.083 0.209,-0.12 0.578,-0.077 1.176,-0.176 1.812,-0.328 z"
     id="path597" />
  <path
     style="fill:#231f20;fill-opacity:1;fill-rule:nonzero;stroke:none"
     d="m 155.468,57.65 c 0.527,0.376 2.464,0.21 4,0.694 1.032,0.328 3.761,0.016 4.767,0.416 0.921,0.37 1.38,0.453 1.984,-0.531 0.358,-0.579 0.666,-1.927 0.244,-2.219 -0.984,-0.666 -1.911,-0.854 -2.984,-0.833 -1.214,0.016 -4.506,0.359 -5.11,0.479 -1.489,0.302 -2.15,-0.036 -2.552,0.01 -0.76,0.074 -0.916,0.38 -0.968,0.886 -0.105,0.953 0.619,1.098 0.619,1.098"
     id="path598" />
  <path
     style="fill:none;stroke:#231f20;stroke-width:0.565977;stroke-linecap:butt;stroke-linejoin:miter;stroke-miterlimit:4;stroke-dasharray:none;stroke-opacity:1"
     d="m 155.468,57.65 c 0.527,0.376 2.464,0.21 4,0.694 1.032,0.328 3.761,0.016 4.767,0.416 0.921,0.37 1.38,0.453 1.984,-0.531 0.358,-0.579 0.666,-1.927 0.244,-2.219 -0.984,-0.666 -1.911,-0.854 -2.984,-0.833 -1.214,0.016 -4.506,0.359 -5.11,0.479 -1.489,0.302 -2.15,-0.036 -2.552,0.01 -0.76,0.074 -0.916,0.38 -0.968,0.886 -0.105,0.953 0.619,1.098 0.619,1.098 z"
     id="path599" />
  <path
     style="fill:#231f20;fill-opacity:1;fill-rule:nonzero;stroke:none"
     d="m 164.516,58.15 c 0.072,1.292 2.052,0.814 2.588,0.767 0.541,-0.048 2.099,-0.005 3.307,0.181 1.209,0.188 2.797,-0.093 5.1,0.262 1.208,0.186 2.505,-0.396 2.697,-2.162 0.193,-1.745 -0.719,-2.51 -2.213,-2.516 -1.495,-0.005 -2.907,0.626 -4.418,0.724 -1.504,0.104 -3.052,0.063 -4.26,-0.026 -1.38,-0.094 -2.098,0.365 -2.317,0.792 -0.547,1.062 -0.484,1.978 -0.484,1.978"
     id="path600" />
  <path
     style="fill:none;stroke:#231f20;stroke-width:0.565977;stroke-linecap:butt;stroke-linejoin:miter;stroke-miterlimit:4;stroke-dasharray:none;stroke-opacity:1"
     d="m 164.516,58.15 c 0.072,1.292 2.052,0.814 2.588,0.767 0.541,-0.048 2.099,-0.005 3.307,0.181 1.209,0.188 2.797,-0.093 5.1,0.262 1.208,0.186 2.505,-0.396 2.697,-2.162 0.193,-1.745 -0.719,-2.51 -2.213,-2.516 -1.495,-0.005 -2.907,0.626 -4.418,0.724 -1.504,0.104 -3.052,0.063 -4.26,-0.026 -1.38,-0.094 -2.098,0.365 -2.317,0.792 -0.547,1.062 -0.484,1.978 -0.484,1.978 z"
     id="path601" />
  <path
     style="fill:#231f20;fill-opacity:1;fill-rule:nonzero;stroke:none"
     d="m 299.776,41.032 c -0.875,-1.032 -1.808,-0.699 -2.334,0.197 -0.156,0.265 -0.568,0.339 -0.698,0.609 -0.307,0.636 0.338,2.26 1.829,2.068 0.104,-0.016 0.911,0.13 1.531,0.146 1.208,0.032 3.65,-0.506 5.082,-2.787 0.688,-1.083 -0.077,-1.287 -0.494,-0.927 -1.286,1.12 -1.619,0.964 -2.062,1.14 -1.516,0.579 -2.854,-0.446 -2.854,-0.446"
     id="path602" />
  <path
     style="fill:none;stroke:#231f20;stroke-width:0.332927;stroke-linecap:butt;stroke-linejoin:miter;stroke-miterlimit:4;stroke-dasharray:none;stroke-opacity:1"
     d="m 299.776,41.032 c -0.875,-1.032 -1.808,-0.699 -2.334,0.197 -0.156,0.265 -0.568,0.339 -0.698,0.609 -0.307,0.636 0.338,2.26 1.829,2.068 0.104,-0.016 0.911,0.13 1.531,0.146 1.208,0.032 3.65,-0.506 5.082,-2.787 0.688,-1.083 -0.077,-1.287 -0.494,-0.927 -1.286,1.12 -1.619,0.964 -2.062,1.14 -1.516,0.579 -2.854,-0.446 -2.854,-0.446 z"
     id="path603" />
  <path
     style="fill:#231f20;fill-opacity:1;fill-rule:nonzero;stroke:none"
     d="m 281.213,43.688 c -0.417,-2.224 -0.197,-2.714 0.729,-2.954 0.615,-0.161 1.14,-0.521 1.511,-0.636 1.239,-0.385 3.479,-0.514 9.937,0.767 1.468,0.291 3.526,0.687 4.375,0.78 1.349,0.152 0.193,2.292 -0.339,2.235 -1.702,-0.167 -2.896,-0.146 -3.516,-0.124 -0.426,0.014 -1.186,-0.058 -2.833,0.218 -2.484,0.416 -3.916,1.031 -6.031,1.14 -0.984,0.052 -1.688,0.708 -2.677,0.266 -0.989,-0.438 -1.156,-1.692 -1.156,-1.692"
     id="path604" />
  <path
     style="fill:none;stroke:#231f20;stroke-width:0.565977;stroke-linecap:butt;stroke-linejoin:miter;stroke-miterlimit:4;stroke-dasharray:none;stroke-opacity:1"
     d="m 281.213,43.688 c -0.417,-2.224 -0.197,-2.714 0.729,-2.954 0.615,-0.161 1.14,-0.521 1.511,-0.636 1.239,-0.385 3.479,-0.514 9.937,0.767 1.468,0.291 3.526,0.687 4.375,0.78 1.349,0.152 0.193,2.292 -0.339,2.235 -1.702,-0.167 -2.896,-0.146 -3.516,-0.124 -0.426,0.014 -1.186,-0.058 -2.833,0.218 -2.484,0.416 -3.916,1.031 -6.031,1.14 -0.984,0.052 -1.688,0.708 -2.677,0.266 -0.989,-0.438 -1.156,-1.692 -1.156,-1.692 z"
     id="path605" />
  <path
     style="fill:#ca0369;fill-opacity:1;fill-rule:nonzero;stroke:none"
     d="m 255.186,41.484 c 3.136,0.073 3.814,-0.255 4.672,-0.599 5.366,-2.145 6.319,0.527 5.73,3.355 -0.687,3.322 -0.864,4.52 -7.12,3.781 -1.739,-0.209 -8.51,-0.131 -8.51,-0.131 -2.417,0.36 -4.969,-0.588 -5.761,-1.806 -0.833,-1.292 -0.411,-0.844 -0.963,-2.178 -0.526,-1.27 -0.218,-3.437 0.823,-4.098 1.005,-0.636 2.489,0.118 4.776,0.926 1.801,0.631 6.353,0.75 6.353,0.75"
     id="path606" />
  <path
     style="fill:none;stroke:#231f20;stroke-width:0.565977;stroke-linecap:butt;stroke-linejoin:miter;stroke-miterlimit:4;stroke-dasharray:none;stroke-opacity:1"
     d="m 255.186,41.484 c 3.136,0.073 3.814,-0.255 4.672,-0.599 5.366,-2.145 6.319,0.527 5.73,3.355 -0.687,3.322 -0.864,4.52 -7.12,3.781 -1.739,-0.209 -8.51,-0.131 -8.51,-0.131 -2.417,0.36 -4.969,-0.588 -5.761,-1.806 -0.833,-1.292 -0.411,-0.844 -0.963,-2.178 -0.526,-1.27 -0.218,-3.437 0.823,-4.098 1.005,-0.636 2.489,0.118 4.776,0.926 1.801,0.631 6.353,0.75 6.353,0.75 z"
     id="path607" />
  <path
     style="fill:#ffffff;fill-opacity:1;fill-rule:nonzero;stroke:none"
     d="m 235.025,42.172 c -0.208,-0.126 -1.047,0.65 -1.437,0.297 -0.38,-0.36 -0.006,-1.052 -0.744,-2.901 l -0.011,-0.016 c -0.589,-1.334 -0.552,-2.724 0.224,-3.708 1.281,-1.631 4.125,-1.536 6.339,0.213 2.218,1.751 2.978,4.484 1.686,6.12 -1.229,1.563 -3.885,1.536 -6.057,-0.005"
     id="path608" />
  <path
     style="fill:none;stroke:#231f20;stroke-width:0.565977;stroke-linecap:butt;stroke-linejoin:miter;stroke-miterlimit:4;stroke-dasharray:none;stroke-opacity:1"
     d="m 235.025,42.172 c -0.208,-0.126 -1.047,0.65 -1.437,0.297 -0.38,-0.36 -0.006,-1.052 -0.744,-2.901 l -0.011,-0.016 c -0.589,-1.334 -0.552,-2.724 0.224,-3.708 1.281,-1.631 4.125,-1.536 6.339,0.213 2.218,1.751 2.978,4.484 1.686,6.12 -1.229,1.563 -3.885,1.536 -6.057,-0.005 z"
     id="path609" />
  <path
     style="fill:#231f20;fill-opacity:1;fill-rule:nonzero;stroke:none"
     d="m 283.478,42.688 c 1.068,3.864 -2.932,3.077 -3.396,3.208 -4.817,1.369 -5.197,1.344 -8.942,2.125 -5.411,1.129 -9.291,1.072 -10.87,-1.88 -1.068,-2.011 -0.812,-3.625 0.042,-4.636 0.937,-1.109 3.88,-2.312 6.234,-0.636 l 1.708,0.109 c 1.162,-0.077 1.74,-0.104 2.308,-0.181 0.99,-0.147 2.063,-0.235 4.011,-0.407 3.463,-0.301 7.219,0.511 7.219,0.511 1.244,-0.073 1.686,1.787 1.686,1.787"
     id="path610" />
  <path
     style="fill:none;stroke:#231f20;stroke-width:0.565977;stroke-linecap:butt;stroke-linejoin:miter;stroke-miterlimit:4;stroke-dasharray:none;stroke-opacity:1"
     d="m 283.478,42.688 c 1.068,3.864 -2.932,3.077 -3.396,3.208 -4.817,1.369 -5.197,1.344 -8.942,2.125 -5.411,1.129 -9.291,1.072 -10.87,-1.88 -1.068,-2.011 -0.812,-3.625 0.042,-4.636 0.937,-1.109 3.88,-2.312 6.234,-0.636 l 1.708,0.109 c 1.162,-0.077 1.74,-0.104 2.308,-0.181 0.99,-0.147 2.063,-0.235 4.011,-0.407 3.463,-0.301 7.219,0.511 7.219,0.511 1.244,-0.073 1.686,1.787 1.686,1.787 z"
     id="path611" />
  <path
     style="fill:#ca0369;fill-opacity:1;fill-rule:nonzero;stroke:none"
     d="m 267.932,48.557 -1.386,-7.688 c -2.354,-1.676 -5.297,-0.473 -6.24,0.636 -0.848,1.011 -1.104,2.625 -0.036,4.636 0.698,1.296 1.855,2.02 3.37,2.343 0.942,0.437 1.526,0.672 2.234,0.292 0.063,-0.036 0.142,-0.068 0.219,-0.094 0.584,-0.016 1.193,-0.046 1.839,-0.125"
     id="path612" />
  <path
     style="fill:none;stroke:#231f20;stroke-width:0.565977;stroke-linecap:butt;stroke-linejoin:miter;stroke-miterlimit:4;stroke-dasharray:none;stroke-opacity:1"
     d="m 267.932,48.557 -1.386,-7.688 c -2.354,-1.676 -5.297,-0.473 -6.24,0.636 -0.848,1.011 -1.104,2.625 -0.036,4.636 0.698,1.296 1.855,2.02 3.37,2.343 0.942,0.437 1.526,0.672 2.234,0.292 0.063,-0.036 0.142,-0.068 0.219,-0.094 0.584,-0.016 1.193,-0.046 1.839,-0.125 z"
     id="path613" />
  <path
     style="fill:#231f20;fill-opacity:1;fill-rule:nonzero;stroke:none"
     d="m 260.609,54.833 c -0.136,-0.631 -1.699,-1.792 -2.521,-3.177 -0.558,-0.927 -2.796,-2.511 -3.282,-3.479 -0.448,-0.891 -0.733,-1.256 -1.838,-0.923 -0.651,0.194 -1.782,0.996 -1.656,1.491 0.292,1.156 0.86,1.905 1.672,2.609 0.917,0.796 3.604,2.73 4.136,3.042 1.312,0.77 1.577,1.453 1.91,1.693 0.615,0.443 0.938,0.317 1.314,-0.021 0.708,-0.642 0.265,-1.235 0.265,-1.235"
     id="path614" />
  <path
     style="fill:none;stroke:#231f20;stroke-width:0.565977;stroke-linecap:butt;stroke-linejoin:miter;stroke-miterlimit:4;stroke-dasharray:none;stroke-opacity:1"
     d="m 260.609,54.833 c -0.136,-0.631 -1.699,-1.792 -2.521,-3.177 -0.558,-0.927 -2.796,-2.511 -3.282,-3.479 -0.448,-0.891 -0.733,-1.256 -1.838,-0.923 -0.651,0.194 -1.782,0.996 -1.656,1.491 0.292,1.156 0.86,1.905 1.672,2.609 0.917,0.796 3.604,2.73 4.136,3.042 1.312,0.77 1.577,1.453 1.91,1.693 0.615,0.443 0.938,0.317 1.314,-0.021 0.708,-0.642 0.265,-1.235 0.265,-1.235 z"
     id="path615" />
  <path
     style="fill:#231f20;fill-opacity:1;fill-rule:nonzero;stroke:none"
     d="m 254.186,48.442 c 0.808,-1.01 -0.989,-1.968 -1.421,-2.292 -0.437,-0.328 -1.568,-1.39 -2.349,-2.333 -0.782,-0.948 -2.151,-1.796 -3.635,-3.588 -0.776,-0.943 -2.131,-1.369 -3.453,-0.177 -1.303,1.172 -1.136,2.349 -0.016,3.349 1.109,1 2.578,1.464 3.776,2.396 1.193,0.927 2.322,1.984 3.166,2.848 0.964,0.996 1.808,1.125 2.256,0.953 1.115,-0.432 1.676,-1.156 1.676,-1.156"
     id="path616" />
  <path
     style="fill:none;stroke:#231f20;stroke-width:0.565977;stroke-linecap:butt;stroke-linejoin:miter;stroke-miterlimit:4;stroke-dasharray:none;stroke-opacity:1"
     d="m 254.186,48.442 c 0.808,-1.01 -0.989,-1.968 -1.421,-2.292 -0.437,-0.328 -1.568,-1.39 -2.349,-2.333 -0.782,-0.948 -2.151,-1.796 -3.635,-3.588 -0.776,-0.943 -2.131,-1.369 -3.453,-0.177 -1.303,1.172 -1.136,2.349 -0.016,3.349 1.109,1 2.578,1.464 3.776,2.396 1.193,0.927 2.322,1.984 3.166,2.848 0.964,0.996 1.808,1.125 2.256,0.953 1.115,-0.432 1.676,-1.156 1.676,-1.156 z"
     id="path617" />
  <path
     style="fill:#231f20;fill-opacity:1;fill-rule:nonzero;stroke:none"
     d="m 316.552,55.693 c -0.61,0.339 -0.536,2.651 -0.235,2.744 0.308,0.099 0.199,-0.667 0.541,-0.577 0.344,0.093 0.339,0.593 0.568,0.588 0.256,-0.006 0.167,-0.604 0.47,-0.552 0.124,0.021 0.41,0.541 0.593,0.484 0.156,-0.058 0.292,-0.558 0.417,-0.61 0.198,-0.077 0.338,0.516 0.51,0.47 0.442,-0.131 -0.52,-2.667 -0.744,-2.756 -0.334,-0.124 -1.131,-0.334 -2.12,0.209"
     id="path618" />
  <path
     style="fill:none;stroke:#231f20;stroke-width:0.565977;stroke-linecap:round;stroke-linejoin:round;stroke-miterlimit:4;stroke-dasharray:none;stroke-opacity:1"
     d="m 316.552,55.693 c -0.61,0.339 -0.536,2.651 -0.235,2.744 0.308,0.099 0.199,-0.667 0.541,-0.577 0.344,0.093 0.339,0.593 0.568,0.588 0.256,-0.006 0.167,-0.604 0.47,-0.552 0.124,0.021 0.41,0.541 0.593,0.484 0.156,-0.058 0.292,-0.558 0.417,-0.61 0.198,-0.077 0.338,0.516 0.51,0.47 0.442,-0.131 -0.52,-2.667 -0.744,-2.756 -0.334,-0.124 -1.131,-0.334 -2.12,0.209 z"
     id="path619" />
  <path
     style="fill:#ffffff;fill-opacity:1;fill-rule:nonzero;stroke:#231f20;stroke-width:0.665856;stroke-linecap:butt;stroke-linejoin:miter;stroke-miterlimit:4;stroke-dasharray:none;stroke-opacity:1"
     d="m 260.708,16.276 0.052,31.677 h -1.334 l -0.052,-31.677 z"
     id="path620" />
  <path
     style="fill:#ffffff;fill-opacity:1;fill-rule:nonzero;stroke:none"
     d="m 264.177,53.532 c -0.527,2.29 -2.824,3.733 -5.115,3.208 -2.292,-0.527 -3.734,-2.823 -3.209,-5.12 0.527,-2.292 2.824,-3.73 5.115,-3.203 2.297,0.525 3.734,2.817 3.209,5.115 m -9.62,-2.21 c -0.688,3.011 1.197,6.022 4.208,6.714 3.005,0.688 6.021,-1.198 6.708,-4.208 0.693,-3.011 -1.197,-6.02 -4.203,-6.708 -3.01,-0.694 -6.021,1.192 -6.713,4.202"
     id="path621" />
  <path
     style="fill:none;stroke:#231f20;stroke-width:0.665856;stroke-linecap:butt;stroke-linejoin:miter;stroke-miterlimit:4;stroke-dasharray:none;stroke-opacity:1"
     d="m 264.177,53.532 c -0.527,2.29 -2.824,3.733 -5.115,3.208 -2.292,-0.527 -3.734,-2.823 -3.209,-5.12 0.527,-2.292 2.824,-3.73 5.115,-3.203 2.297,0.525 3.734,2.817 3.209,5.115 z m -9.62,-2.21 c -0.688,3.011 1.197,6.022 4.208,6.714 3.005,0.688 6.021,-1.198 6.708,-4.208 0.693,-3.011 -1.197,-6.02 -4.203,-6.708 -3.01,-0.694 -6.021,1.192 -6.713,4.202 z"
     id="path622" />
  <path
     style="fill:#231f20;fill-opacity:1;fill-rule:nonzero;stroke:none"
     d="m 258.916,55.693 c -0.615,0.339 -0.542,2.651 -0.234,2.744 0.302,0.099 0.192,-0.667 0.536,-0.577 0.35,0.093 0.339,0.593 0.574,0.588 0.249,-0.006 0.161,-0.604 0.462,-0.552 0.126,0.021 0.418,0.541 0.595,0.484 0.156,-0.058 0.296,-0.558 0.416,-0.61 0.203,-0.077 0.339,0.516 0.511,0.47 0.448,-0.131 -0.516,-2.667 -0.74,-2.756 -0.339,-0.124 -1.135,-0.334 -2.12,0.209"
     id="path623" />
  <path
     style="fill:none;stroke:#231f20;stroke-width:0.565977;stroke-linecap:round;stroke-linejoin:round;stroke-miterlimit:4;stroke-dasharray:none;stroke-opacity:1"
     d="m 258.916,55.693 c -0.615,0.339 -0.542,2.651 -0.234,2.744 0.302,0.099 0.192,-0.667 0.536,-0.577 0.35,0.093 0.339,0.593 0.574,0.588 0.249,-0.006 0.161,-0.604 0.462,-0.552 0.126,0.021 0.418,0.541 0.595,0.484 0.156,-0.058 0.296,-0.558 0.416,-0.61 0.203,-0.077 0.339,0.516 0.511,0.47 0.448,-0.131 -0.516,-2.667 -0.74,-2.756 -0.339,-0.124 -1.135,-0.334 -2.12,0.209 z"
     id="path624" />
  <path
     style="fill:none;stroke:#231f20;stroke-width:0.399514;stroke-linecap:butt;stroke-linejoin:miter;stroke-miterlimit:4;stroke-dasharray:none;stroke-opacity:1"
     d="m 37.14,106.906 c 1.876,2.405 34.48,12.115 65.475,9.771 26.416,-2 39.858,-10.97 42.478,-17.308"
     id="path625" />
  <path
     style="fill:#231f20;fill-opacity:1;fill-rule:nonzero;stroke:none"
     d="m 145.557,98.26 c -0.021,0.605 0.042,1.39 0.224,1.938 l -0.745,-0.682 -1.011,-0.042 c 0.522,-0.261 1.12,-0.772 1.532,-1.214"
     id="path626" />
  <path
     style="fill:#ffffff;fill-opacity:1;fill-rule:nonzero;stroke:#231f20;stroke-width:0.665856;stroke-linecap:butt;stroke-linejoin:miter;stroke-miterlimit:4;stroke-dasharray:none;stroke-opacity:1"
     d="m 157.828,16.521 -3.151,31.52 -1.324,-0.135 3.147,-31.521 z"
     id="path627" />
  <path
     style="fill:#ffffff;fill-opacity:1;fill-rule:nonzero;stroke:none"
     d="m 158.099,53.532 c -0.526,2.29 -2.823,3.733 -5.115,3.208 -2.297,-0.527 -3.735,-2.823 -3.208,-5.12 0.525,-2.292 2.823,-3.73 5.115,-3.203 2.296,0.525 3.734,2.817 3.208,5.115 m -9.62,-2.21 c -0.687,3.011 1.198,6.022 4.208,6.714 3.005,0.688 6.016,-1.198 6.709,-4.208 0.692,-3.011 -1.199,-6.02 -4.204,-6.708 -3.009,-0.694 -6.025,1.192 -6.713,4.202"
     id="path628" />
  <path
     style="fill:none;stroke:#231f20;stroke-width:0.665856;stroke-linecap:butt;stroke-linejoin:miter;stroke-miterlimit:4;stroke-dasharray:none;stroke-opacity:1"
     d="m 158.099,53.532 c -0.526,2.29 -2.823,3.733 -5.115,3.208 -2.297,-0.527 -3.735,-2.823 -3.208,-5.12 0.525,-2.292 2.823,-3.73 5.115,-3.203 2.296,0.525 3.734,2.817 3.208,5.115 z m -9.62,-2.21 c -0.687,3.011 1.198,6.022 4.208,6.714 3.005,0.688 6.016,-1.198 6.709,-4.208 0.692,-3.011 -1.199,-6.02 -4.204,-6.708 -3.009,-0.694 -6.025,1.192 -6.713,4.202 z"
     id="path629" />
  <path
     style="fill:#231f20;fill-opacity:1;fill-rule:nonzero;stroke:none"
     d="m 152.995,55.86 c -0.646,0.265 -0.839,2.572 -0.547,2.702 0.292,0.131 0.271,-0.641 0.604,-0.51 0.333,0.125 0.265,0.625 0.495,0.646 0.254,0.026 0.234,-0.578 0.53,-0.496 0.12,0.038 0.344,0.59 0.532,0.548 0.167,-0.037 0.355,-0.521 0.484,-0.557 0.208,-0.057 0.276,0.557 0.454,0.525 0.458,-0.077 -0.208,-2.708 -0.422,-2.817 -0.318,-0.167 -1.084,-0.464 -2.13,-0.041"
     id="path630" />
  <path
     style="fill:none;stroke:#231f20;stroke-width:0.565977;stroke-linecap:round;stroke-linejoin:round;stroke-miterlimit:4;stroke-dasharray:none;stroke-opacity:1"
     d="m 152.995,55.86 c -0.646,0.265 -0.839,2.572 -0.547,2.702 0.292,0.131 0.271,-0.641 0.604,-0.51 0.333,0.125 0.265,0.625 0.495,0.646 0.254,0.026 0.234,-0.578 0.53,-0.496 0.12,0.038 0.344,0.59 0.532,0.548 0.167,-0.037 0.355,-0.521 0.484,-0.557 0.208,-0.057 0.276,0.557 0.454,0.525 0.458,-0.077 -0.208,-2.708 -0.422,-2.817 -0.318,-0.167 -1.084,-0.464 -2.13,-0.041 z"
     id="path631" />
</svg>
