<?xml version="1.0" encoding="UTF-8" standalone="no"?>
<!-- Created with Inkscape (http://www.inkscape.org/) -->

<svg
   version="1.1"
   id="svg1"
   width="294.76678"
   height="110.76922"
   viewBox="0 0 294.76677 110.76922"
   sodipodi:docname="cell.svg"
   xmlns:inkscape="http://www.inkscape.org/namespaces/inkscape"
   xmlns:sodipodi="http://sodipodi.sourceforge.net/DTD/sodipodi-0.dtd"
   xmlns="http://www.w3.org/2000/svg"
   xmlns:svg="http://www.w3.org/2000/svg">
  <sodipodi:namedview
     id="namedview1"
     pagecolor="#ffffff"
     bordercolor="#000000"
     borderopacity="0.25"
     inkscape:showpageshadow="2"
     inkscape:pageopacity="0.0"
     inkscape:pagecheckerboard="0"
     inkscape:deskcolor="#d1d1d1">
    <inkscape:page
       x="0"
       y="0"
       inkscape:label="1"
       id="page1"
       width="294.76678"
       height="110.76922"
       margin="0"
       bleed="0" />
  </sodipodi:namedview>
  <defs
     id="defs1" />
  <path
     style="fill:#ffffff;fill-opacity:1;fill-rule:nonzero;stroke:#231f20;stroke-width:0.665856;stroke-linecap:butt;stroke-linejoin:miter;stroke-miterlimit:4;stroke-dasharray:none;stroke-opacity:1"
     d="m 114.9437,0.88669862 -5.375,31.21300038 1.312,0.23 5.375,-31.2190004 z"
     id="path245" />
  <path
     style="fill:#ffffff;fill-opacity:1;fill-rule:nonzero;stroke:none"
     d="m 105.1827,36.354699 c 0.401,-2.323 2.609,-3.885 4.933,-3.484 2.317,0.401 3.88,2.615 3.484,4.932 -0.401,2.319 -2.615,3.88 -4.937,3.484 -2.318,-0.4 -3.88,-2.613 -3.48,-4.932 m -1.312,-0.229 c -0.526,3.048 1.526,5.948 4.568,6.469 3.046,0.527 5.948,-1.527 6.473,-4.568 0.521,-3.041 -1.531,-5.943 -4.572,-6.468 -3.043,-0.521 -5.948,1.525 -6.469,4.567"
     id="path246" />
  <path
     style="fill:none;stroke:#231f20;stroke-width:0.665856;stroke-linecap:butt;stroke-linejoin:miter;stroke-miterlimit:4;stroke-dasharray:none;stroke-opacity:1"
     d="m 105.1827,36.354699 c 0.401,-2.323 2.609,-3.885 4.933,-3.484 2.317,0.401 3.88,2.615 3.484,4.932 -0.401,2.319 -2.615,3.88 -4.937,3.484 -2.318,-0.4 -3.88,-2.613 -3.48,-4.932 z m -1.312,-0.229 c -0.526,3.048 1.526,5.948 4.568,6.469 3.046,0.527 5.948,-1.527 6.473,-4.568 0.521,-3.041 -1.531,-5.943 -4.572,-6.468 -3.043,-0.521 -5.948,1.525 -6.469,4.567 z"
     id="path247" />
  <path
     style="fill:#ffffff;fill-opacity:1;fill-rule:nonzero;stroke:#231f20;stroke-width:0.665856;stroke-linecap:butt;stroke-linejoin:miter;stroke-miterlimit:4;stroke-dasharray:none;stroke-opacity:1"
     d="m 128.4117,0.88669862 10.912,29.73300038 1.249,-0.457 -10.916,-29.73500038 z"
     id="path248" />
  <path
     style="fill:#ffffff;fill-opacity:1;fill-rule:nonzero;stroke:none"
     d="m 137.6407,36.495699 c -0.806,-2.213 0.328,-4.666 2.538,-5.48 2.208,-0.812 4.67,0.324 5.483,2.538 0.807,2.208 -0.333,4.666 -2.541,5.478 -2.209,0.812 -4.666,-0.328 -5.48,-2.536 m -1.244,0.458 c 1.062,2.896 4.286,4.39 7.182,3.329 2.901,-1.068 4.395,-4.292 3.327,-7.188 -1.061,-2.901 -4.285,-4.391 -7.186,-3.328 -2.896,1.063 -4.391,4.287 -3.323,7.187"
     id="path249" />
  <path
     style="fill:none;stroke:#231f20;stroke-width:0.665856;stroke-linecap:butt;stroke-linejoin:miter;stroke-miterlimit:4;stroke-dasharray:none;stroke-opacity:1"
     d="m 137.6407,36.495699 c -0.806,-2.213 0.328,-4.666 2.538,-5.48 2.208,-0.812 4.67,0.324 5.483,2.538 0.807,2.208 -0.333,4.666 -2.541,5.478 -2.209,0.812 -4.666,-0.328 -5.48,-2.536 z m -1.244,0.458 c 1.062,2.896 4.286,4.39 7.182,3.329 2.901,-1.068 4.395,-4.292 3.327,-7.188 -1.061,-2.901 -4.285,-4.391 -7.186,-3.328 -2.896,1.063 -4.391,4.287 -3.323,7.187 z"
     id="path250" />
  <path
     style="fill:#ffffff;fill-opacity:1;fill-rule:nonzero;stroke:#231f20;stroke-width:0.665856;stroke-linecap:butt;stroke-linejoin:miter;stroke-miterlimit:4;stroke-dasharray:none;stroke-opacity:1"
     d="m 81.698703,0.79169862 3.146,31.51600038 1.323,-0.13 -3.147,-31.52000038 z"
     id="path251" />
  <path
     style="fill:#ffffff;fill-opacity:1;fill-rule:nonzero;stroke:none"
     d="m 84.630703,32.682699 c 2.292,-0.525 4.589,0.912 5.114,3.209 0.527,2.291 -0.91,4.588 -3.202,5.115 -2.298,0.531 -4.594,-0.912 -5.12,-3.209 -0.526,-2.291 0.912,-4.583 3.208,-5.115 m -0.302,-1.296 c -3.005,0.692 -4.89,3.703 -4.204,6.713 0.694,3.011 3.704,4.896 6.715,4.208 3.009,-0.692 4.891,-3.702 4.203,-6.713 -0.688,-3.011 -3.698,-4.896 -6.714,-4.208"
     id="path252" />
  <path
     style="fill:none;stroke:#231f20;stroke-width:0.665856;stroke-linecap:butt;stroke-linejoin:miter;stroke-miterlimit:4;stroke-dasharray:none;stroke-opacity:1"
     d="m 84.630703,32.682699 c 2.292,-0.525 4.589,0.912 5.114,3.209 0.527,2.291 -0.91,4.588 -3.202,5.115 -2.298,0.531 -4.594,-0.912 -5.12,-3.209 -0.526,-2.291 0.912,-4.583 3.208,-5.115 z m -0.302,-1.296 c -3.005,0.692 -4.89,3.703 -4.204,6.713 0.694,3.011 3.704,4.896 6.715,4.208 3.009,-0.692 4.891,-3.702 4.203,-6.713 -0.688,-3.011 -3.698,-4.896 -6.714,-4.208 z"
     id="path253" />
  <path
     style="fill:#231f20;fill-opacity:1;fill-rule:nonzero;stroke:none"
     d="m 5.8545029,38.859699 c 0.876,-1.03 1.8078,-0.692 2.3334,0.199 0.1573,0.271 0.5625,0.339 0.6984,0.609 0.3016,0.635 -0.3386,2.26 -1.8276,2.067 -0.1042,-0.015 -0.912,0.136 -1.5323,0.147 -1.213,0.03 -3.6557,-0.506 -5.08800004,-2.787 -0.6822,-1.084 0.0828,-1.287 0.4948,-0.927 1.28640004,1.119 1.62550004,0.963 2.06820004,1.14 1.5146,0.579 2.8531,-0.448 2.8531,-0.448"
     id="path254" />
  <path
     style="fill:none;stroke:#231f20;stroke-width:0.332927;stroke-linecap:butt;stroke-linejoin:miter;stroke-miterlimit:4;stroke-dasharray:none;stroke-opacity:1"
     d="m 5.8545029,38.859699 c 0.876,-1.03 1.8078,-0.692 2.3334,0.199 0.1573,0.271 0.5625,0.339 0.6984,0.609 0.3016,0.635 -0.3386,2.26 -1.8276,2.067 -0.1042,-0.015 -0.912,0.136 -1.5323,0.147 -1.213,0.03 -3.6557,-0.506 -5.08800004,-2.787 -0.6822,-1.084 0.0828,-1.287 0.4948,-0.927 1.28640004,1.119 1.62550004,0.963 2.06820004,1.14 1.5146,0.579 2.8531,-0.448 2.8531,-0.448 z"
     id="path255" />
  <path
     style="fill:#231f20;fill-opacity:1;fill-rule:nonzero;stroke:none"
     d="m 24.411803,41.521699 c 0.4171,-2.23 0.2042,-2.719 -0.7292,-2.958 -0.6136,-0.162 -1.1349,-0.516 -1.5041,-0.63 -1.2401,-0.391 -3.4855,-0.522 -9.9428,0.76 -1.464,0.297 -3.5213001,0.688 -4.3760001,0.781 -1.3478,0.151 -0.1865,2.292 0.3443,2.235 1.7025,-0.167 2.8959001,-0.146 3.5156001,-0.126 0.4213,0.022 1.1828,-0.057 2.8281,0.219 2.4896,0.417 3.9213,1.037 6.036,1.147 0.9801,0.046 1.688,0.708 2.6776,0.265 0.9891,-0.443 1.1505,-1.693 1.1505,-1.693"
     id="path256" />
  <path
     style="fill:none;stroke:#231f20;stroke-width:0.565977;stroke-linecap:butt;stroke-linejoin:miter;stroke-miterlimit:4;stroke-dasharray:none;stroke-opacity:1"
     d="m 24.411803,41.521699 c 0.4171,-2.23 0.2042,-2.719 -0.7292,-2.958 -0.6136,-0.162 -1.1349,-0.516 -1.5041,-0.63 -1.2401,-0.391 -3.4855,-0.522 -9.9428,0.76 -1.464,0.297 -3.5213001,0.688 -4.3760001,0.781 -1.3478,0.151 -0.1865,2.292 0.3443,2.235 1.7025,-0.167 2.8959001,-0.146 3.5156001,-0.126 0.4213,0.022 1.1828,-0.057 2.8281,0.219 2.4896,0.417 3.9213,1.037 6.036,1.147 0.9801,0.046 1.688,0.708 2.6776,0.265 0.9891,-0.443 1.1505,-1.693 1.1505,-1.693 z"
     id="path257" />
  <path
     style="fill:#ca0369;fill-opacity:1;fill-rule:nonzero;stroke:none"
     d="m 50.438703,39.313699 c -3.131,0.073 -3.808,-0.255 -4.667,-0.599 -5.3652,-2.147 -6.3172,0.531 -5.7344,3.353 0.688,3.324 0.8692,4.527 7.1194,3.782 1.74,-0.208 8.511,-0.124 8.511,-0.124 2.422,0.353 4.973,-0.59 5.76,-1.814 0.839,-1.292 0.412,-0.844 0.964,-2.177 0.531,-1.271 0.224,-3.437 -0.819,-4.099 -1.004,-0.634 -2.489,0.12 -4.781,0.928 -1.796,0.63 -6.353,0.75 -6.353,0.75"
     id="path258" />
  <path
     style="fill:none;stroke:#231f20;stroke-width:0.565977;stroke-linecap:butt;stroke-linejoin:miter;stroke-miterlimit:4;stroke-dasharray:none;stroke-opacity:1"
     d="m 50.438703,39.313699 c -3.131,0.073 -3.808,-0.255 -4.667,-0.599 -5.3652,-2.147 -6.3172,0.531 -5.7344,3.353 0.688,3.324 0.8692,4.527 7.1194,3.782 1.74,-0.208 8.511,-0.124 8.511,-0.124 2.422,0.353 4.973,-0.59 5.76,-1.814 0.839,-1.292 0.412,-0.844 0.964,-2.177 0.531,-1.271 0.224,-3.437 -0.819,-4.099 -1.004,-0.634 -2.489,0.12 -4.781,0.928 -1.796,0.63 -6.353,0.75 -6.353,0.75 z"
     id="path259" />
  <path
     style="fill:#ffffff;fill-opacity:1;fill-rule:nonzero;stroke:none"
     d="m 68.468703,43.230699 c 0.246,0.015 0.475,1.14 0.995,1.077 0.521,-0.068 0.62,-0.849 2.303,-1.916 l 0.016,-0.01 c 1.254,-0.735 2.041,-1.886 1.989,-3.136 -0.093,-2.072 -2.453,-3.656 -5.271,-3.536 -2.828,0.125 -5.042,1.906 -4.948,3.978 0.083,1.986 2.255,3.522 4.916,3.543"
     id="path260" />
  <path
     style="fill:none;stroke:#231f20;stroke-width:0.565977;stroke-linecap:butt;stroke-linejoin:miter;stroke-miterlimit:4;stroke-dasharray:none;stroke-opacity:1"
     d="m 68.468703,43.230699 c 0.246,0.015 0.475,1.14 0.995,1.077 0.521,-0.068 0.62,-0.849 2.303,-1.916 l 0.016,-0.01 c 1.254,-0.735 2.041,-1.886 1.989,-3.136 -0.093,-2.072 -2.453,-3.656 -5.271,-3.536 -2.828,0.125 -5.042,1.906 -4.948,3.978 0.083,1.986 2.255,3.522 4.916,3.543 z"
     id="path261" />
  <path
     style="fill:#231f20;fill-opacity:1;fill-rule:nonzero;stroke:none"
     d="m 22.151803,40.515699 c -1.0733,3.866 2.9319,3.084 3.3959,3.215 4.8177,1.364 5.1975,1.337 8.9426,2.119 5.4068,1.13 9.2871,1.073 10.8644,-1.88 1.073,-2.006 0.818,-3.626 -0.036,-4.63 -0.9429,-1.114 -3.8856,-2.318 -6.235,-0.641 l -1.7131,0.115 c -1.1563,-0.079 -1.7349,-0.11 -2.3016,-0.188 -0.9959,-0.146 -2.0625,-0.234 -4.0161,-0.406 -3.4583,-0.297 -7.2131,0.511 -7.2131,0.511 -1.2452,-0.073 -1.688,1.785 -1.688,1.785"
     id="path262" />
  <path
     style="fill:none;stroke:#231f20;stroke-width:0.565977;stroke-linecap:butt;stroke-linejoin:miter;stroke-miterlimit:4;stroke-dasharray:none;stroke-opacity:1"
     d="m 22.151803,40.515699 c -1.0733,3.866 2.9319,3.084 3.3959,3.215 4.8177,1.364 5.1975,1.337 8.9426,2.119 5.4068,1.13 9.2871,1.073 10.8644,-1.88 1.073,-2.006 0.818,-3.626 -0.036,-4.63 -0.9429,-1.114 -3.8856,-2.318 -6.235,-0.641 l -1.7131,0.115 c -1.1563,-0.079 -1.7349,-0.11 -2.3016,-0.188 -0.9959,-0.146 -2.0625,-0.234 -4.0161,-0.406 -3.4583,-0.297 -7.2131,0.511 -7.2131,0.511 -1.2452,-0.073 -1.688,1.785 -1.688,1.785 z"
     id="path263" />
  <path
     style="fill:#ca0369;fill-opacity:1;fill-rule:nonzero;stroke:none"
     d="m 45.318703,39.339699 c -0.9377,-1.114 -3.8856,-2.318 -6.235,-0.641 l -1.3907,7.688 c 0.6521,0.077 1.2615,0.115 1.8443,0.124 0.0786,0.032 0.1505,0.057 0.213,0.095 0.7135,0.38 1.2974,0.145 2.2348,-0.292 1.5214,-0.323 2.6771,-1.042 3.3696,-2.344 1.068,-2.006 0.818,-3.626 -0.036,-4.63"
     id="path264" />
  <path
     style="fill:none;stroke:#231f20;stroke-width:0.565977;stroke-linecap:butt;stroke-linejoin:miter;stroke-miterlimit:4;stroke-dasharray:none;stroke-opacity:1"
     d="m 45.318703,39.339699 c -0.9377,-1.114 -3.8856,-2.318 -6.235,-0.641 l -1.3907,7.688 c 0.6521,0.077 1.2615,0.115 1.8443,0.124 0.0786,0.032 0.1505,0.057 0.213,0.095 0.7135,0.38 1.2974,0.145 2.2348,-0.292 1.5214,-0.323 2.6771,-1.042 3.3696,-2.344 1.068,-2.006 0.818,-3.626 -0.036,-4.63 z"
     id="path265" />
  <path
     style="fill:#231f20;fill-opacity:1;fill-rule:nonzero;stroke:none"
     d="m 80.052703,38.515699 c -0.48,0.434 -2.422,0.48 -3.896,1.136 -0.989,0.438 -3.734,0.432 -4.693,0.943 -0.874,0.469 -1.317,0.604 -2.025,-0.308 -0.423,-0.536 -0.88,-1.843 -0.495,-2.176 0.905,-0.776 1.807,-1.057 2.875,-1.161 1.208,-0.12 4.521,-0.147 5.13,-0.095 1.515,0.136 2.135,-0.271 2.536,-0.271 0.766,-0.01 0.954,0.282 1.063,0.771 0.208,0.937 -0.495,1.161 -0.495,1.161"
     id="path266" />
  <path
     style="fill:none;stroke:#231f20;stroke-width:0.565977;stroke-linecap:butt;stroke-linejoin:miter;stroke-miterlimit:4;stroke-dasharray:none;stroke-opacity:1"
     d="m 80.052703,38.515699 c -0.48,0.434 -2.422,0.48 -3.896,1.136 -0.989,0.438 -3.734,0.432 -4.693,0.943 -0.874,0.469 -1.317,0.604 -2.025,-0.308 -0.423,-0.536 -0.88,-1.843 -0.495,-2.176 0.905,-0.776 1.807,-1.057 2.875,-1.161 1.208,-0.12 4.521,-0.147 5.13,-0.095 1.515,0.136 2.135,-0.271 2.536,-0.271 0.766,-0.01 0.954,0.282 1.063,0.771 0.208,0.937 -0.495,1.161 -0.495,1.161 z"
     id="path267" />
  <path
     style="fill:#231f20;fill-opacity:1;fill-rule:nonzero;stroke:none"
     d="m 71.120703,40.021699 c 0.072,1.292 -1.948,1.037 -2.49,1.046 -0.541,0.016 -2.088,0.23 -3.265,0.548 -1.183,0.323 -2.793,0.219 -5.042,0.828 -1.177,0.318 -2.532,-0.12 -2.917,-1.849 -0.386,-1.713 0.433,-2.579 1.922,-2.745 1.485,-0.172 2.949,0.297 4.463,0.224 1.511,-0.063 3.043,-0.276 4.235,-0.495 1.359,-0.249 2.125,0.131 2.39,0.527 0.662,1 0.704,1.916 0.704,1.916"
     id="path268" />
  <path
     style="fill:none;stroke:#231f20;stroke-width:0.565977;stroke-linecap:butt;stroke-linejoin:miter;stroke-miterlimit:4;stroke-dasharray:none;stroke-opacity:1"
     d="m 71.120703,40.021699 c 0.072,1.292 -1.948,1.037 -2.49,1.046 -0.541,0.016 -2.088,0.23 -3.265,0.548 -1.183,0.323 -2.793,0.219 -5.042,0.828 -1.177,0.318 -2.532,-0.12 -2.917,-1.849 -0.386,-1.713 0.433,-2.579 1.922,-2.745 1.485,-0.172 2.949,0.297 4.463,0.224 1.511,-0.063 3.043,-0.276 4.235,-0.495 1.359,-0.249 2.125,0.131 2.39,0.527 0.662,1 0.704,1.916 0.704,1.916 z"
     id="path269" />
  <path
     style="fill:#231f20;fill-opacity:1;fill-rule:nonzero;stroke:none"
     d="m 79.823703,36.646699 c 0.192,-0.677 2.459,-1.136 2.62,-0.859 0.161,0.276 -0.604,0.343 -0.437,0.656 0.166,0.318 0.65,0.198 0.697,0.422 0.057,0.245 -0.547,0.297 -0.427,0.578 0.047,0.12 0.626,0.282 0.604,0.468 -0.016,0.167 -0.478,0.418 -0.5,0.547 -0.026,0.209 0.583,0.209 0.579,0.391 -0.027,0.464 -2.72,0.1 -2.855,-0.099 -0.198,-0.292 -0.584,-1.02 -0.281,-2.104"
     id="path270" />
  <path
     style="fill:none;stroke:#231f20;stroke-width:0.565977;stroke-linecap:round;stroke-linejoin:round;stroke-miterlimit:4;stroke-dasharray:none;stroke-opacity:1"
     d="m 79.823703,36.646699 c 0.192,-0.677 2.459,-1.136 2.62,-0.859 0.161,0.276 -0.604,0.343 -0.437,0.656 0.166,0.318 0.65,0.198 0.697,0.422 0.057,0.245 -0.547,0.297 -0.427,0.578 0.047,0.12 0.626,0.282 0.604,0.468 -0.016,0.167 -0.478,0.418 -0.5,0.547 -0.026,0.209 0.583,0.209 0.579,0.391 -0.027,0.464 -2.72,0.1 -2.855,-0.099 -0.198,-0.292 -0.584,-1.02 -0.281,-2.104 z"
     id="path271" />
  <path
     style="fill:#231f20;fill-opacity:1;fill-rule:nonzero;stroke:none"
     d="m 73.484703,106.1107 c -0.297,-1.323 0.527,-1.871 1.558,-1.756 0.306,0.037 0.609,-0.25 0.906,-0.192 0.687,0.134 1.61,1.62 0.563,2.697 -0.073,0.079 -0.439,0.808 -0.797,1.317 -0.703,0.986 -2.59,2.62 -5.282,2.407 -1.271,-0.099 -0.974,-0.833 -0.448,-0.948 1.672,-0.364 1.751,-0.724 2.151,-0.979 1.376,-0.865 1.349,-2.546 1.349,-2.546"
     id="path272" />
  <path
     style="fill:none;stroke:#231f20;stroke-width:0.332927;stroke-linecap:butt;stroke-linejoin:miter;stroke-miterlimit:4;stroke-dasharray:none;stroke-opacity:1"
     d="m 73.484703,106.1107 c -0.297,-1.323 0.527,-1.871 1.558,-1.756 0.306,0.037 0.609,-0.25 0.906,-0.192 0.687,0.134 1.61,1.62 0.563,2.697 -0.073,0.079 -0.439,0.808 -0.797,1.317 -0.703,0.986 -2.59,2.62 -5.282,2.407 -1.271,-0.099 -0.974,-0.833 -0.448,-0.948 1.672,-0.364 1.751,-0.724 2.151,-0.979 1.376,-0.865 1.349,-2.546 1.349,-2.546 z"
     id="path273" />
  <path
     style="fill:#231f20;fill-opacity:1;fill-rule:nonzero;stroke:none"
     d="m 86.719703,92.818699 c -1.537,-1.667 -2.057,-1.782 -2.808,-1.183 -0.495,0.401 -1.093,0.599 -1.411,0.828 -1.046,0.767 -2.494,2.485 -5.328,8.428001 -0.641,1.348 -1.557,3.233 -1.99,3.973 -0.687,1.167 1.72,1.516 1.996,1.063 0.885,-1.469 1.609,-2.407 2,-2.896 0.27,-0.328 0.666,-0.984 1.869,-2.135 1.823,-1.750001 3.177,-2.521001 4.521,-4.152001 0.63,-0.754 1.578,-0.926 1.818,-1.984 0.24,-1.057 -0.667,-1.942 -0.667,-1.942"
     id="path274" />
  <path
     style="fill:none;stroke:#231f20;stroke-width:0.565977;stroke-linecap:butt;stroke-linejoin:miter;stroke-miterlimit:4;stroke-dasharray:none;stroke-opacity:1"
     d="m 86.719703,92.818699 c -1.537,-1.667 -2.057,-1.782 -2.808,-1.183 -0.495,0.401 -1.093,0.599 -1.411,0.828 -1.046,0.767 -2.494,2.485 -5.328,8.428001 -0.641,1.348 -1.557,3.233 -1.99,3.973 -0.687,1.167 1.72,1.516 1.996,1.063 0.885,-1.469 1.609,-2.407 2,-2.896 0.27,-0.328 0.666,-0.984 1.869,-2.135 1.823,-1.750001 3.177,-2.521001 4.521,-4.152001 0.63,-0.754 1.578,-0.926 1.818,-1.984 0.24,-1.057 -0.667,-1.942 -0.667,-1.942 z"
     id="path275" />
  <path
     style="fill:#ca0369;fill-opacity:1;fill-rule:nonzero;stroke:none"
     d="m 99.563703,70.542699 c -1.516,2.744 -2.141,3.166 -2.865,3.729 -4.563,3.557 -2.735,5.729 0.005,6.64 3.213,1.084 4.338997,1.537 6.854997,-4.239 0.697,-1.609 4.177,-7.417 4.177,-7.417 1.525,-1.912 2,-4.588 1.337,-5.891 -0.692,-1.369 -0.514,-0.776 -1.39,-1.926 -0.834,-1.095 -2.859,-1.923 -3.958,-1.355 -1.052,0.547 -1.152,2.208 -1.604,4.589 -0.365,1.88 -2.556997,5.87 -2.556997,5.87"
     id="path276" />
  <path
     style="fill:none;stroke:#231f20;stroke-width:0.565977;stroke-linecap:butt;stroke-linejoin:miter;stroke-miterlimit:4;stroke-dasharray:none;stroke-opacity:1"
     d="m 99.563703,70.542699 c -1.516,2.744 -2.141,3.166 -2.865,3.729 -4.563,3.557 -2.735,5.729 0.005,6.64 3.213,1.084 4.338997,1.537 6.854997,-4.239 0.697,-1.609 4.177,-7.417 4.177,-7.417 1.525,-1.912 2,-4.588 1.337,-5.891 -0.692,-1.369 -0.514,-0.776 -1.39,-1.926 -0.834,-1.095 -2.859,-1.923 -3.958,-1.355 -1.052,0.547 -1.152,2.208 -1.604,4.589 -0.365,1.88 -2.556997,5.87 -2.556997,5.87 z"
     id="path277" />
  <path
     style="fill:#ffffff;fill-opacity:1;fill-rule:nonzero;stroke:none"
     d="m 111.8487,56.567699 c 0.136,-0.203 1.23,0.131 1.423,-0.359 0.187,-0.484 -0.448,-0.948 -0.584,-2.932 v -0.021 c -0.052,-1.459 -0.687,-2.692 -1.812,-3.245 -1.864,-0.906 -4.38,0.412 -5.62,2.948 -1.24,2.542 -0.729,5.333 1.136,6.245 1.787,0.875 4.177,-0.303 5.457,-2.636"
     id="path278" />
  <path
     style="fill:none;stroke:#231f20;stroke-width:0.565977;stroke-linecap:butt;stroke-linejoin:miter;stroke-miterlimit:4;stroke-dasharray:none;stroke-opacity:1"
     d="m 111.8487,56.567699 c 0.136,-0.203 1.23,0.131 1.423,-0.359 0.187,-0.484 -0.448,-0.948 -0.584,-2.932 v -0.021 c -0.052,-1.459 -0.687,-2.692 -1.812,-3.245 -1.864,-0.906 -4.38,0.412 -5.62,2.948 -1.24,2.542 -0.729,5.333 1.136,6.245 1.787,0.875 4.177,-0.303 5.457,-2.636 z"
     id="path279" />
  <path
     style="fill:#231f20;fill-opacity:1;fill-rule:nonzero;stroke:none"
     d="m 84.563703,94.031699 c 2.457,3.172 4.224,-0.505 4.604,-0.797 3.973,-3.047 4.181,-3.37 7.047,-5.9 4.139997,-3.658 6.415997,-6.803 4.988997,-9.834 -0.964,-2.057 -2.411997,-2.824 -3.728997,-2.74 -1.454,0.094 -4.182,1.73 -4.244,4.62 l -0.934,1.438 c -0.754,0.885 -1.118,1.328 -1.525,1.734 -0.708,0.708 -1.423,1.511 -2.724,2.974 -2.312,2.594 -3.907,6.089 -3.907,6.089 -0.806,0.948 0.423,2.416 0.423,2.416"
     id="path280" />
  <path
     style="fill:none;stroke:#231f20;stroke-width:0.565977;stroke-linecap:butt;stroke-linejoin:miter;stroke-miterlimit:4;stroke-dasharray:none;stroke-opacity:1"
     d="m 84.563703,94.031699 c 2.457,3.172 4.224,-0.505 4.604,-0.797 3.973,-3.047 4.181,-3.37 7.047,-5.9 4.139997,-3.658 6.415997,-6.803 4.988997,-9.834 -0.964,-2.057 -2.411997,-2.824 -3.728997,-2.74 -1.454,0.094 -4.182,1.73 -4.244,4.62 l -0.934,1.438 c -0.754,0.885 -1.118,1.328 -1.525,1.734 -0.708,0.708 -1.423,1.511 -2.724,2.974 -2.312,2.594 -3.907,6.089 -3.907,6.089 -0.806,0.948 0.423,2.416 0.423,2.416 z"
     id="path281" />
  <path
     style="fill:#ca0369;fill-opacity:1;fill-rule:nonzero;stroke:none"
     d="m 100.9847,76.886699 c -1.296997,-1.866 -2.853997,-2.38 -4.135997,-2.084 -1.421,0.333 -3.833,2.406 -3.416,5.265 l 6.208,4.74 c 0.370997,-0.547 0.677997,-1.068 0.953997,-1.583 0.062,-0.057 0.12,-0.109 0.177,-0.152 0.667,-0.453 0.724,-1.082 0.765,-2.12 0.407,-1.498 0.292,-2.858 -0.552,-4.066"
     id="path282" />
  <path
     style="fill:none;stroke:#231f20;stroke-width:0.565977;stroke-linecap:butt;stroke-linejoin:miter;stroke-miterlimit:4;stroke-dasharray:none;stroke-opacity:1"
     d="m 100.9847,76.886699 c -1.296997,-1.866 -2.853997,-2.38 -4.135997,-2.084 -1.421,0.333 -3.833,2.406 -3.416,5.265 l 6.208,4.74 c 0.370997,-0.547 0.677997,-1.068 0.953997,-1.583 0.062,-0.057 0.12,-0.109 0.177,-0.152 0.667,-0.453 0.724,-1.082 0.765,-2.12 0.407,-1.498 0.292,-2.858 -0.552,-4.066 z"
     id="path283" />
  <path
     style="fill:#231f20;fill-opacity:1;fill-rule:nonzero;stroke:none"
     d="m 109.3707,42.891699 c 0.276,0.583 -0.25,2.458 -0.052,4.058 0.13,1.071 -0.683,3.697 -0.47,4.759 0.194,0.979 0.188,1.443 -0.885,1.855 -0.64,0.244 -2.02,0.301 -2.228,-0.167 -0.475,-1.094 -0.485,-2.037 -0.272,-3.089 0.24,-1.187 1.183,-4.364 1.412,-4.932 0.568,-1.412 0.36,-2.12 0.479,-2.51 0.214,-0.724 0.548,-0.823 1.048,-0.787 0.957,0.073 0.968,0.813 0.968,0.813"
     id="path284" />
  <path
     style="fill:none;stroke:#231f20;stroke-width:0.565977;stroke-linecap:butt;stroke-linejoin:miter;stroke-miterlimit:4;stroke-dasharray:none;stroke-opacity:1"
     d="m 109.3707,42.891699 c 0.276,0.583 -0.25,2.458 -0.052,4.058 0.13,1.071 -0.683,3.697 -0.47,4.759 0.194,0.979 0.188,1.443 -0.885,1.855 -0.64,0.244 -2.02,0.301 -2.228,-0.167 -0.475,-1.094 -0.485,-2.037 -0.272,-3.089 0.24,-1.187 1.183,-4.364 1.412,-4.932 0.568,-1.412 0.36,-2.12 0.479,-2.51 0.214,-0.724 0.548,-0.823 1.048,-0.787 0.957,0.073 0.968,0.813 0.968,0.813 z"
     id="path285" />
  <path
     style="fill:#231f20;fill-opacity:1;fill-rule:nonzero;stroke:none"
     d="m 108.1987,51.875699 c 1.256,0.307 0.417,2.161 0.276,2.683 -0.146,0.525 -0.391,2.061 -0.427,3.285 -0.041,1.224 -0.609,2.735 -0.688,5.057 -0.036,1.224 -0.848,2.391 -2.62,2.256 -1.749,-0.13 -2.337,-1.166 -2.061,-2.636 0.265,-1.473 1.145,-2.738 1.52,-4.208 0.374,-1.464 0.625,-2.989 0.761,-4.197 0.156,-1.371 0.744,-1.991 1.203,-2.131 1.145,-0.338 2.036,-0.109 2.036,-0.109"
     id="path286" />
  <path
     style="fill:none;stroke:#231f20;stroke-width:0.565977;stroke-linecap:butt;stroke-linejoin:miter;stroke-miterlimit:4;stroke-dasharray:none;stroke-opacity:1"
     d="m 108.1987,51.875699 c 1.256,0.307 0.417,2.161 0.276,2.683 -0.146,0.525 -0.391,2.061 -0.427,3.285 -0.041,1.224 -0.609,2.735 -0.688,5.057 -0.036,1.224 -0.848,2.391 -2.62,2.256 -1.749,-0.13 -2.337,-1.166 -2.061,-2.636 0.265,-1.473 1.145,-2.738 1.52,-4.208 0.374,-1.464 0.625,-2.989 0.761,-4.197 0.156,-1.371 0.744,-1.991 1.203,-2.131 1.145,-0.338 2.036,-0.109 2.036,-0.109 z"
     id="path287" />
  <path
     style="fill:#231f20;fill-opacity:1;fill-rule:nonzero;stroke:none"
     d="m 107.5117,42.563699 c -0.589,-0.381 -0.365,-2.682 -0.053,-2.756 0.308,-0.073 0.152,0.678 0.501,0.61 0.353,-0.068 0.38,-0.568 0.609,-0.547 0.244,0.021 0.124,0.615 0.427,0.584 0.125,-0.016 0.443,-0.516 0.625,-0.444 0.151,0.063 0.25,0.579 0.375,0.636 0.192,0.093 0.369,-0.5 0.541,-0.437 0.438,0.161 -0.697,2.625 -0.926,2.697 -0.339,0.104 -1.147,0.261 -2.099,-0.343"
     id="path288" />
  <path
     style="fill:none;stroke:#231f20;stroke-width:0.565977;stroke-linecap:round;stroke-linejoin:round;stroke-miterlimit:4;stroke-dasharray:none;stroke-opacity:1"
     d="m 107.5117,42.563699 c -0.589,-0.381 -0.365,-2.682 -0.053,-2.756 0.308,-0.073 0.152,0.678 0.501,0.61 0.353,-0.068 0.38,-0.568 0.609,-0.547 0.244,0.021 0.124,0.615 0.427,0.584 0.125,-0.016 0.443,-0.516 0.625,-0.444 0.151,0.063 0.25,0.579 0.375,0.636 0.192,0.093 0.369,-0.5 0.541,-0.437 0.438,0.161 -0.697,2.625 -0.926,2.697 -0.339,0.104 -1.147,0.261 -2.099,-0.343 z"
     id="path289" />
  <path
     style="fill:none;stroke:#231f20;stroke-width:0.399514;stroke-linecap:butt;stroke-linejoin:miter;stroke-miterlimit:4;stroke-dasharray:none;stroke-opacity:1"
     d="m 70.730703,91.599699 c 1.874,2.401 34.477997,12.109001 65.472997,9.765001 26.417,-2.000001 39.86,-10.973001 42.478,-17.306001"
     id="path290" />
  <path
     style="fill:#231f20;fill-opacity:1;fill-rule:nonzero;stroke:none"
     d="m 179.1457,82.948699 c -0.021,0.604 0.042,1.391 0.224,1.938 l -0.744,-0.683 -1.01,-0.041 c 0.52,-0.262 1.12,-0.771 1.53,-1.214"
     id="path291" />
  <path
     style="fill:#231f20;fill-opacity:1;fill-rule:nonzero;stroke:none"
     d="m 180.0157,104.8187 c -1.354,-0.104 -1.63,-1.058 -1.214,-2.006 0.12,-0.286 -0.062,-0.656 0.079,-0.921 0.339,-0.62 2.025,-1.057 2.749,0.26 0.052,0.088 0.642,0.656 1.022,1.145 0.729,0.97 1.734,3.256 0.734,5.762 -0.474,1.181 -1.084,0.686 -1.041,0.15 0.151,-1.708 -0.172,-1.89 -0.297,-2.349 -0.418,-1.568 -2.032,-2.041 -2.032,-2.041"
     id="path292" />
  <path
     style="fill:none;stroke:#231f20;stroke-width:0.332927;stroke-linecap:butt;stroke-linejoin:miter;stroke-miterlimit:4;stroke-dasharray:none;stroke-opacity:1"
     d="m 180.0157,104.8187 c -1.354,-0.104 -1.63,-1.058 -1.214,-2.006 0.12,-0.286 -0.062,-0.656 0.079,-0.921 0.339,-0.62 2.025,-1.057 2.749,0.26 0.052,0.088 0.642,0.656 1.022,1.145 0.729,0.97 1.734,3.256 0.734,5.762 -0.474,1.181 -1.084,0.686 -1.041,0.15 0.151,-1.708 -0.172,-1.89 -0.297,-2.349 -0.418,-1.568 -2.032,-2.041 -2.032,-2.041 z"
     id="path293" />
  <path
     style="fill:#231f20;fill-opacity:1;fill-rule:nonzero;stroke:none"
     d="m 171.2447,88.244699 c -2.047,0.97 -2.317,1.432 -1.963,2.323 0.234,0.6 0.25,1.224 0.375,1.6 0.416,1.224 1.631,3.115 6.464,7.583 1.099,1.016001 2.629,2.442001 3.208,3.078001 0.911,1.006 1.959,-1.193 1.604,-1.594 -1.136,-1.276001 -1.817,-2.250001 -2.167,-2.766001 -0.24,-0.353 -0.745,-0.926 -1.489,-2.416 -1.131,-2.261 -1.469,-3.781 -2.625,-5.552 -0.536,-0.818 -0.422,-1.781 -1.359,-2.318 -0.944,-0.547 -2.048,0.062 -2.048,0.062"
     id="path294" />
  <path
     style="fill:none;stroke:#231f20;stroke-width:0.565977;stroke-linecap:butt;stroke-linejoin:miter;stroke-miterlimit:4;stroke-dasharray:none;stroke-opacity:1"
     d="m 171.2447,88.244699 c -2.047,0.97 -2.317,1.432 -1.963,2.323 0.234,0.6 0.25,1.224 0.375,1.6 0.416,1.224 1.631,3.115 6.464,7.583 1.099,1.016001 2.629,2.442001 3.208,3.078001 0.911,1.006 1.959,-1.193 1.604,-1.594 -1.136,-1.276001 -1.817,-2.250001 -2.167,-2.766001 -0.24,-0.353 -0.745,-0.926 -1.489,-2.416 -1.131,-2.261 -1.469,-3.781 -2.625,-5.552 -0.536,-0.818 -0.422,-1.781 -1.359,-2.318 -0.944,-0.547 -2.048,0.062 -2.048,0.062 z"
     id="path295" />
  <path
     style="fill:#ca0369;fill-opacity:1;fill-rule:nonzero;stroke:none"
     d="m 154.5837,68.115699 c 1.709,2.629 1.786,3.385 1.942,4.291 0.995,5.693 3.771,5.1 5.866,3.114 2.468,-2.328 3.396,-3.114 -0.516,-8.041 -1.094,-1.369 -4.583,-7.177 -4.583,-7.177 -0.969,-2.25 -3.115,-3.922 -4.568,-3.954 -1.537,-0.025 -0.933,0.095 -2.355,0.328 -1.358,0.22 -3.041,1.615 -3.057,2.85 -0.016,1.188 1.407,2.057 3.292,3.578 1.489,1.203 3.979,5.011 3.979,5.011"
     id="path296" />
  <path
     style="fill:none;stroke:#231f20;stroke-width:0.565977;stroke-linecap:butt;stroke-linejoin:miter;stroke-miterlimit:4;stroke-dasharray:none;stroke-opacity:1"
     d="m 154.5837,68.115699 c 1.709,2.629 1.786,3.385 1.942,4.291 0.995,5.693 3.771,5.1 5.866,3.114 2.468,-2.328 3.396,-3.114 -0.516,-8.041 -1.094,-1.369 -4.583,-7.177 -4.583,-7.177 -0.969,-2.25 -3.115,-3.922 -4.568,-3.954 -1.537,-0.025 -0.933,0.095 -2.355,0.328 -1.358,0.22 -3.041,1.615 -3.057,2.85 -0.016,1.188 1.407,2.057 3.292,3.578 1.489,1.203 3.979,5.011 3.979,5.011 z"
     id="path297" />
  <path
     style="fill:#ffffff;fill-opacity:1;fill-rule:nonzero;stroke:none"
     d="m 153.5057,50.687699 c 0.01,-0.244 1.13,-0.5 1.052,-1.015 -0.078,-0.521 -0.86,-0.605 -1.969,-2.255 l -0.011,-0.02 c -0.77,-1.235 -1.937,-1.991 -3.186,-1.907 -2.074,0.145 -3.595,2.541 -3.402,5.358 0.192,2.819 2.026,4.991 4.104,4.844 1.979,-0.134 3.464,-2.344 3.412,-5.005"
     id="path298" />
  <path
     style="fill:none;stroke:#231f20;stroke-width:0.565977;stroke-linecap:butt;stroke-linejoin:miter;stroke-miterlimit:4;stroke-dasharray:none;stroke-opacity:1"
     d="m 153.5057,50.687699 c 0.01,-0.244 1.13,-0.5 1.052,-1.015 -0.078,-0.521 -0.86,-0.605 -1.969,-2.255 l -0.011,-0.02 c -0.77,-1.235 -1.937,-1.991 -3.186,-1.907 -2.074,0.145 -3.595,2.541 -3.402,5.358 0.192,2.819 2.026,4.991 4.104,4.844 1.979,-0.134 3.464,-2.344 3.412,-5.005 z"
     id="path299" />
  <path
     style="fill:#231f20;fill-opacity:1;fill-rule:nonzero;stroke:none"
     d="m 171.7607,90.656699 c 3.76,-1.401 0.771,-4.182 0.604,-4.625 -1.735,-4.703 -1.979,-5 -3.547,-8.484 -2.27,-5.037 -4.598,-8.141 -7.916,-7.677 -2.25,0.312 -3.412,1.469 -3.724,2.749 -0.338,1.417 0.416,4.505 3.156,5.423 l 1.094,1.317 c 0.625,0.98 0.937,1.464 1.208,1.969 0.469,0.891 1.026,1.807 2.037,3.484 1.785,2.979 4.656,5.531 4.656,5.531 0.667,1.053 2.432,0.313 2.432,0.313"
     id="path300" />
  <path
     style="fill:none;stroke:#231f20;stroke-width:0.565977;stroke-linecap:butt;stroke-linejoin:miter;stroke-miterlimit:4;stroke-dasharray:none;stroke-opacity:1"
     d="m 171.7607,90.656699 c 3.76,-1.401 0.771,-4.182 0.604,-4.625 -1.735,-4.703 -1.979,-5 -3.547,-8.484 -2.27,-5.037 -4.598,-8.141 -7.916,-7.677 -2.25,0.312 -3.412,1.469 -3.724,2.749 -0.338,1.417 0.416,4.505 3.156,5.423 l 1.094,1.317 c 0.625,0.98 0.937,1.464 1.208,1.969 0.469,0.891 1.026,1.807 2.037,3.484 1.785,2.979 4.656,5.531 4.656,5.531 0.667,1.053 2.432,0.313 2.432,0.313 z"
     id="path301" />
  <path
     style="fill:#ca0369;fill-opacity:1;fill-rule:nonzero;stroke:none"
     d="m 166.2607,73.167699 c -0.021,-0.079 -0.036,-0.152 -0.047,-0.224 -0.089,-0.803 -0.614,-1.147 -1.51,-1.672 -1.135,-1.063 -2.386,-1.599 -3.855,-1.423 -2.255,0.267 -3.437,1.396 -3.776,2.667 -0.375,1.412 0.313,4.516 3.037,5.491 l 7.104,-3.251 c -0.312,-0.579 -0.63,-1.099 -0.953,-1.588"
     id="path302" />
  <path
     style="fill:none;stroke:#231f20;stroke-width:0.565977;stroke-linecap:butt;stroke-linejoin:miter;stroke-miterlimit:4;stroke-dasharray:none;stroke-opacity:1"
     d="m 166.2607,73.167699 c -0.021,-0.079 -0.036,-0.152 -0.047,-0.224 -0.089,-0.803 -0.614,-1.147 -1.51,-1.672 -1.135,-1.063 -2.386,-1.599 -3.855,-1.423 -2.255,0.267 -3.437,1.396 -3.776,2.667 -0.375,1.412 0.313,4.516 3.037,5.491 l 7.104,-3.251 c -0.312,-0.579 -0.63,-1.099 -0.953,-1.588 z"
     id="path303" />
  <path
     style="fill:#231f20;fill-opacity:1;fill-rule:nonzero;stroke:none"
     d="m 144.5317,40.073699 c 0.532,0.365 1.016,2.25 1.98,3.542 0.65,0.864 1.26,3.542 1.973,4.359 0.651,0.75 0.88,1.15 0.151,2.046 -0.432,0.532 -1.599,1.271 -2.015,0.97 -0.953,-0.708 -1.433,-1.522 -1.772,-2.542 -0.385,-1.151 -1.156,-4.375 -1.238,-4.979 -0.208,-1.511 -0.746,-2.015 -0.834,-2.411 -0.182,-0.74 0.063,-0.991 0.516,-1.209 0.864,-0.416 1.239,0.224 1.239,0.224"
     id="path304" />
  <path
     style="fill:none;stroke:#231f20;stroke-width:0.565977;stroke-linecap:butt;stroke-linejoin:miter;stroke-miterlimit:4;stroke-dasharray:none;stroke-opacity:1"
     d="m 144.5317,40.073699 c 0.532,0.365 1.016,2.25 1.98,3.542 0.65,0.864 1.26,3.542 1.973,4.359 0.651,0.75 0.88,1.15 0.151,2.046 -0.432,0.532 -1.599,1.271 -2.015,0.97 -0.953,-0.708 -1.433,-1.522 -1.772,-2.542 -0.385,-1.151 -1.156,-4.375 -1.238,-4.979 -0.208,-1.511 -0.746,-2.015 -0.834,-2.411 -0.182,-0.74 0.063,-0.991 0.516,-1.209 0.864,-0.416 1.239,0.224 1.239,0.224 z"
     id="path305" />
  <path
     style="fill:#231f20;fill-opacity:1;fill-rule:nonzero;stroke:none"
     d="m 147.9957,48.443699 c 1.249,-0.36 1.448,1.667 1.582,2.187 0.136,0.532 0.688,1.985 1.267,3.062 0.577,1.079 0.837,2.672 1.932,4.724 0.577,1.079 0.453,2.495 -1.151,3.26 -1.584,0.762 -2.605,0.158 -3.105,-1.254 -0.5,-1.412 -0.369,-2.948 -0.776,-4.402 -0.4,-1.457 -0.948,-2.905 -1.432,-4.02 -0.552,-1.27 -0.349,-2.1 -0.02,-2.448 0.823,-0.865 1.703,-1.109 1.703,-1.109"
     id="path306" />
  <path
     style="fill:none;stroke:#231f20;stroke-width:0.565977;stroke-linecap:butt;stroke-linejoin:miter;stroke-miterlimit:4;stroke-dasharray:none;stroke-opacity:1"
     d="m 147.9957,48.443699 c 1.249,-0.36 1.448,1.667 1.582,2.187 0.136,0.532 0.688,1.985 1.267,3.062 0.577,1.079 0.837,2.672 1.932,4.724 0.577,1.079 0.453,2.495 -1.151,3.26 -1.584,0.762 -2.605,0.158 -3.105,-1.254 -0.5,-1.412 -0.369,-2.948 -0.776,-4.402 -0.4,-1.457 -0.948,-2.905 -1.432,-4.02 -0.552,-1.27 -0.349,-2.1 -0.02,-2.448 0.823,-0.865 1.703,-1.109 1.703,-1.109 z"
     id="path307" />
  <path
     style="fill:#231f20;fill-opacity:1;fill-rule:nonzero;stroke:none"
     d="m 142.7557,40.714699 c -0.697,-0.032 -1.651,-2.141 -1.416,-2.36 0.229,-0.219 0.468,0.511 0.739,0.276 0.27,-0.233 0.042,-0.677 0.25,-0.776 0.23,-0.104 0.416,0.469 0.662,0.292 0.104,-0.079 0.13,-0.672 0.322,-0.692 0.162,-0.027 0.506,0.369 0.642,0.359 0.213,-0.016 0.072,-0.615 0.254,-0.646 0.459,-0.084 0.703,2.624 0.536,2.796 -0.238,0.262 -0.858,0.803 -1.989,0.751"
     id="path308" />
  <path
     style="fill:none;stroke:#231f20;stroke-width:0.565977;stroke-linecap:round;stroke-linejoin:round;stroke-miterlimit:4;stroke-dasharray:none;stroke-opacity:1"
     d="m 142.7557,40.714699 c -0.697,-0.032 -1.651,-2.141 -1.416,-2.36 0.229,-0.219 0.468,0.511 0.739,0.276 0.27,-0.233 0.042,-0.677 0.25,-0.776 0.23,-0.104 0.416,0.469 0.662,0.292 0.104,-0.079 0.13,-0.672 0.322,-0.692 0.162,-0.027 0.506,0.369 0.642,0.359 0.213,-0.016 0.072,-0.615 0.254,-0.646 0.459,-0.084 0.703,2.624 0.536,2.796 -0.238,0.262 -0.858,0.803 -1.989,0.751 z"
     id="path309" />
  <path
     style="fill:#231f20;fill-opacity:1;fill-rule:nonzero;stroke:none"
     d="m 260.2927,71.244699 c -1.355,-0.025 -1.688,-0.958 -1.324,-1.932 0.104,-0.286 -0.099,-0.65 0.027,-0.921 0.301,-0.636 1.964,-1.167 2.76,0.104 0.057,0.088 0.677,0.62 1.084,1.093 0.781,0.922 1.916,3.151 1.052,5.708 -0.407,1.21 -1.043,0.746 -1.027,0.204 0.052,-1.713 -0.281,-1.87 -0.432,-2.328 -0.505,-1.537 -2.14,-1.928 -2.14,-1.928"
     id="path310" />
  <path
     style="fill:none;stroke:#231f20;stroke-width:0.332927;stroke-linecap:butt;stroke-linejoin:miter;stroke-miterlimit:4;stroke-dasharray:none;stroke-opacity:1"
     d="m 260.2927,71.244699 c -1.355,-0.025 -1.688,-0.958 -1.324,-1.932 0.104,-0.286 -0.099,-0.65 0.027,-0.921 0.301,-0.636 1.964,-1.167 2.76,0.104 0.057,0.088 0.677,0.62 1.084,1.093 0.781,0.922 1.916,3.151 1.052,5.708 -0.407,1.21 -1.043,0.746 -1.027,0.204 0.052,-1.713 -0.281,-1.87 -0.432,-2.328 -0.505,-1.537 -2.14,-1.928 -2.14,-1.928 z"
     id="path311" />
  <path
     style="fill:#231f20;fill-opacity:1;fill-rule:nonzero;stroke:none"
     d="m 250.6097,55.187699 c -1.989,1.084 -2.229,1.568 -1.828,2.437 0.266,0.579 0.318,1.204 0.463,1.568 0.485,1.204 1.803,3.022 6.876,7.214 1.156,0.948 2.76,2.297 3.375,2.896 0.968,0.953 1.89,-1.302 1.516,-1.678 -1.215,-1.213 -1.943,-2.145 -2.324,-2.64 -0.255,-0.344 -0.791,-0.885 -1.615,-2.333 -1.26,-2.193 -1.681,-3.693 -2.937,-5.396 -0.578,-0.792 -0.515,-1.755 -1.484,-2.245 -0.97,-0.484 -2.042,0.177 -2.042,0.177"
     id="path312" />
  <path
     style="fill:none;stroke:#231f20;stroke-width:0.565977;stroke-linecap:butt;stroke-linejoin:miter;stroke-miterlimit:4;stroke-dasharray:none;stroke-opacity:1"
     d="m 250.6097,55.187699 c -1.989,1.084 -2.229,1.568 -1.828,2.437 0.266,0.579 0.318,1.204 0.463,1.568 0.485,1.204 1.803,3.022 6.876,7.214 1.156,0.948 2.76,2.297 3.375,2.896 0.968,0.953 1.89,-1.302 1.516,-1.678 -1.215,-1.213 -1.943,-2.145 -2.324,-2.64 -0.255,-0.344 -0.791,-0.885 -1.615,-2.333 -1.26,-2.193 -1.681,-3.693 -2.937,-5.396 -0.578,-0.792 -0.515,-1.755 -1.484,-2.245 -0.97,-0.484 -2.042,0.177 -2.042,0.177 z"
     id="path313" />
  <path
     style="fill:#ca0369;fill-opacity:1;fill-rule:nonzero;stroke:none"
     d="m 232.8537,36.021699 c 1.855,2.532 1.975,3.276 2.183,4.172 1.308,5.636 4.047,4.885 6.027,2.792 2.333,-2.464 3.218,-3.303 -0.964,-8.006 -1.167,-1.306 -4.975,-6.912 -4.975,-6.912 -1.093,-2.186 -3.328,-3.738 -4.785,-3.686 -1.532,0.057 -0.918,0.145 -2.328,0.453 -1.35,0.296 -2.948,1.781 -2.891,3.02 0.047,1.183 1.515,1.969 3.484,3.385 1.552,1.12 4.249,4.782 4.249,4.782"
     id="path314" />
  <path
     style="fill:none;stroke:#231f20;stroke-width:0.565977;stroke-linecap:butt;stroke-linejoin:miter;stroke-miterlimit:4;stroke-dasharray:none;stroke-opacity:1"
     d="m 232.8537,36.021699 c 1.855,2.532 1.975,3.276 2.183,4.172 1.308,5.636 4.047,4.885 6.027,2.792 2.333,-2.464 3.218,-3.303 -0.964,-8.006 -1.167,-1.306 -4.975,-6.912 -4.975,-6.912 -1.093,-2.186 -3.328,-3.738 -4.785,-3.686 -1.532,0.057 -0.918,0.145 -2.328,0.453 -1.35,0.296 -2.948,1.781 -2.891,3.02 0.047,1.183 1.515,1.969 3.484,3.385 1.552,1.12 4.249,4.782 4.249,4.782 z"
     id="path315" />
  <path
     style="fill:#ffffff;fill-opacity:1;fill-rule:nonzero;stroke:none"
     d="m 231.6567,19.865699 c 0.041,-0.24 1.183,-0.375 1.151,-0.902 -0.02,-0.52 -0.792,-0.686 -1.724,-2.448 l -0.011,-0.014 c -0.635,-1.314 -1.719,-2.183 -2.968,-2.23 -2.073,-0.073 -3.839,2.151 -3.937,4.974 -0.099,2.828 1.5,5.172 3.577,5.245 1.985,0.073 3.688,-1.969 3.912,-4.625"
     id="path316" />
  <path
     style="fill:none;stroke:#231f20;stroke-width:0.565977;stroke-linecap:butt;stroke-linejoin:miter;stroke-miterlimit:4;stroke-dasharray:none;stroke-opacity:1"
     d="m 231.6567,19.865699 c 0.041,-0.24 1.183,-0.375 1.151,-0.902 -0.02,-0.52 -0.792,-0.686 -1.724,-2.448 l -0.011,-0.014 c -0.635,-1.314 -1.719,-2.183 -2.968,-2.23 -2.073,-0.073 -3.839,2.151 -3.937,4.974 -0.099,2.828 1.5,5.172 3.577,5.245 1.985,0.073 3.688,-1.969 3.912,-4.625 z"
     id="path317" />
  <path
     style="fill:#231f20;fill-opacity:1;fill-rule:nonzero;stroke:none"
     d="m 251.2607,57.572699 c 3.677,-1.609 0.536,-4.218 0.344,-4.656 -1.989,-4.598 -2.256,-4.88 -4.011,-8.27 -2.546,-4.907 -5.046,-7.875 -8.333,-7.224 -2.229,0.437 -3.323,1.656 -3.563,2.953 -0.265,1.432 0.662,4.474 3.448,5.24 l 1.167,1.255 c 0.677,0.942 1.021,1.406 1.317,1.896 0.522,0.858 1.126,1.749 2.224,3.364 1.954,2.876 4.964,5.266 4.964,5.266 0.719,1.01 2.443,0.176 2.443,0.176"
     id="path318" />
  <path
     style="fill:none;stroke:#231f20;stroke-width:0.565977;stroke-linecap:butt;stroke-linejoin:miter;stroke-miterlimit:4;stroke-dasharray:none;stroke-opacity:1"
     d="m 251.2607,57.572699 c 3.677,-1.609 0.536,-4.218 0.344,-4.656 -1.989,-4.598 -2.256,-4.88 -4.011,-8.27 -2.546,-4.907 -5.046,-7.875 -8.333,-7.224 -2.229,0.437 -3.323,1.656 -3.563,2.953 -0.265,1.432 0.662,4.474 3.448,5.24 l 1.167,1.255 c 0.677,0.942 1.021,1.406 1.317,1.896 0.522,0.858 1.126,1.749 2.224,3.364 1.954,2.876 4.964,5.266 4.964,5.266 0.719,1.01 2.443,0.176 2.443,0.176 z"
     id="path319" />
  <path
     style="fill:#ca0369;fill-opacity:1;fill-rule:nonzero;stroke:none"
     d="m 244.7967,40.417699 c -0.025,-0.078 -0.052,-0.151 -0.061,-0.224 -0.136,-0.796 -0.678,-1.104 -1.6,-1.578 -1.192,-1.005 -2.474,-1.469 -3.927,-1.214 -2.24,0.39 -3.36,1.589 -3.625,2.876 -0.291,1.432 0.568,4.494 3.333,5.312 l 6.917,-3.64 c -0.338,-0.563 -0.688,-1.063 -1.037,-1.532"
     id="path320" />
  <path
     style="fill:none;stroke:#231f20;stroke-width:0.565977;stroke-linecap:butt;stroke-linejoin:miter;stroke-miterlimit:4;stroke-dasharray:none;stroke-opacity:1"
     d="m 244.7967,40.417699 c -0.025,-0.078 -0.052,-0.151 -0.061,-0.224 -0.136,-0.796 -0.678,-1.104 -1.6,-1.578 -1.192,-1.005 -2.474,-1.469 -3.927,-1.214 -2.24,0.39 -3.36,1.589 -3.625,2.876 -0.291,1.432 0.568,4.494 3.333,5.312 l 6.917,-3.64 c -0.338,-0.563 -0.688,-1.063 -1.037,-1.532 z"
     id="path321" />
  <path
     style="fill:#231f20;fill-opacity:1;fill-rule:nonzero;stroke:none"
     d="m 226.3537,40.901699 c -0.432,-0.244 -0.577,-1.364 -0.896,-2.348 -0.202,-0.615 -0.588,-3.052 -0.718,-3.828 -0.11,-0.652 -0.474,-0.522 0.584,-1.106 0.625,-0.348 2.12,-0.134 2.448,0.068 0.77,0.475 0.692,1.022 0.713,1.694 0.021,0.76 -0.349,2.541 -0.364,2.958 -0.043,1.146 0.167,1.739 0.135,2 -0.063,0.49 -0.131,0.578 -0.678,0.719 -1.036,0.265 -1.224,-0.157 -1.224,-0.157"
     id="path322" />
  <path
     style="fill:none;stroke:#231f20;stroke-width:0.471425;stroke-linecap:butt;stroke-linejoin:miter;stroke-miterlimit:4;stroke-dasharray:none;stroke-opacity:1"
     d="m 226.3537,40.901699 c -0.432,-0.244 -0.577,-1.364 -0.896,-2.348 -0.202,-0.615 -0.588,-3.052 -0.718,-3.828 -0.11,-0.652 -0.474,-0.522 0.584,-1.106 0.625,-0.348 2.12,-0.134 2.448,0.068 0.77,0.475 0.692,1.022 0.713,1.694 0.021,0.76 -0.349,2.541 -0.364,2.958 -0.043,1.146 0.167,1.739 0.135,2 -0.063,0.49 -0.131,0.578 -0.678,0.719 -1.036,0.265 -1.224,-0.157 -1.224,-0.157 z"
     id="path323" />
  <path
     style="fill:#231f20;fill-opacity:1;fill-rule:nonzero;stroke:none"
     d="m 225.2817,34.813699 c -1.406,-0.298 -0.505,-1.38 -0.349,-1.692 0.156,-0.314 0.407,-1.251 0.427,-2 0.026,-0.762 0.641,-1.658 0.693,-3.09 0.025,-0.754 0.077,-2.697 3.104,-2.322 1.025,0.13 2.213,0.634 1.776,1.754 -0.333,0.834 -0.355,2.814 -0.823,3.855 -0.401,0.875 -1.12,1.62 -1.25,2.359 -0.162,0.838 -0.807,1.177 -1.312,1.229 -1.276,0.115 -2.266,-0.093 -2.266,-0.093"
     id="path324" />
  <path
     style="fill:none;stroke:#231f20;stroke-width:0.471425;stroke-linecap:butt;stroke-linejoin:miter;stroke-miterlimit:4;stroke-dasharray:none;stroke-opacity:1"
     d="m 225.2817,34.813699 c -1.406,-0.298 -0.505,-1.38 -0.349,-1.692 0.156,-0.314 0.407,-1.251 0.427,-2 0.026,-0.762 0.641,-1.658 0.693,-3.09 0.025,-0.754 0.077,-2.697 3.104,-2.322 1.025,0.13 2.213,0.634 1.776,1.754 -0.333,0.834 -0.355,2.814 -0.823,3.855 -0.401,0.875 -1.12,1.62 -1.25,2.359 -0.162,0.838 -0.807,1.177 -1.312,1.229 -1.276,0.115 -2.266,-0.093 -2.266,-0.093 z"
     id="path325" />
  <path
     style="fill:#231f20;fill-opacity:1;fill-rule:nonzero;stroke:none"
     d="m 216.3017,70.510699 c -1.306,0.354 -1.89,-0.447 -1.812,-1.484 0.016,-0.307 -0.281,-0.594 -0.234,-0.896 0.109,-0.698 1.552,-1.672 2.672,-0.676 0.078,0.072 0.828,0.405 1.349,0.744 1.011,0.666 2.724,2.484 2.625,5.177 -0.053,1.276 -0.797,1.011 -0.933,0.489 -0.432,-1.656 -0.796,-1.718 -1.067,-2.109 -0.917,-1.339 -2.6,-1.245 -2.6,-1.245"
     id="path326" />
  <path
     style="fill:none;stroke:#231f20;stroke-width:0.332927;stroke-linecap:butt;stroke-linejoin:miter;stroke-miterlimit:4;stroke-dasharray:none;stroke-opacity:1"
     d="m 216.3017,70.510699 c -1.306,0.354 -1.89,-0.447 -1.812,-1.484 0.016,-0.307 -0.281,-0.594 -0.234,-0.896 0.109,-0.698 1.552,-1.672 2.672,-0.676 0.078,0.072 0.828,0.405 1.349,0.744 1.011,0.666 2.724,2.484 2.625,5.177 -0.053,1.276 -0.797,1.011 -0.933,0.489 -0.432,-1.656 -0.796,-1.718 -1.067,-2.109 -0.917,-1.339 -2.6,-1.245 -2.6,-1.245 z"
     id="path327" />
  <path
     style="fill:#231f20;fill-opacity:1;fill-rule:nonzero;stroke:none"
     d="m 202.4797,57.834699 c -1.599,1.604 -1.698,2.129 -1.068,2.853 0.422,0.48 0.646,1.068 0.885,1.376 0.813,1.015 2.584,2.391 8.641,4.979 1.37,0.582 3.292,1.421 4.052,1.822 1.198,0.642 1.448,-1.781 0.979,-2.036 -1.505,-0.822 -2.468,-1.51 -2.973,-1.88 -0.344,-0.256 -1.011,-0.62 -2.208,-1.781 -1.824,-1.745 -2.658,-3.068 -4.339,-4.344 -0.781,-0.593 -0.995,-1.541 -2.057,-1.735 -1.068,-0.192 -1.912,0.746 -1.912,0.746"
     id="path328" />
  <path
     style="fill:none;stroke:#231f20;stroke-width:0.565977;stroke-linecap:butt;stroke-linejoin:miter;stroke-miterlimit:4;stroke-dasharray:none;stroke-opacity:1"
     d="m 202.4797,57.834699 c -1.599,1.604 -1.698,2.129 -1.068,2.853 0.422,0.48 0.646,1.068 0.885,1.376 0.813,1.015 2.584,2.391 8.641,4.979 1.37,0.582 3.292,1.421 4.052,1.822 1.198,0.642 1.448,-1.781 0.979,-2.036 -1.505,-0.822 -2.468,-1.51 -2.973,-1.88 -0.344,-0.256 -1.011,-0.62 -2.208,-1.781 -1.824,-1.745 -2.658,-3.068 -4.339,-4.344 -0.781,-0.593 -0.995,-1.541 -2.057,-1.735 -1.068,-0.192 -1.912,0.746 -1.912,0.746 z"
     id="path329" />
  <path
     style="fill:#ca0369;fill-opacity:1;fill-rule:nonzero;stroke:none"
     d="m 180.0417,44.458699 c 2.49,1.907 2.812,2.589 3.266,3.385 2.849,5.032 5.261,3.548 6.573,0.975 1.541,-3.021 2.151,-4.073 -3.188,-7.407 -1.484,-0.921 -6.724,-5.224 -6.724,-5.224 -1.661,-1.79 -4.244,-2.65 -5.624,-2.192 -1.459,0.49 -0.844,0.402 -2.109,1.099 -1.21,0.661 -2.33,2.541 -1.923,3.708 0.38,1.125 2.011,1.469 4.303,2.271 1.801,0.63 5.426,3.385 5.426,3.385"
     id="path330" />
  <path
     style="fill:none;stroke:#231f20;stroke-width:0.565977;stroke-linecap:butt;stroke-linejoin:miter;stroke-miterlimit:4;stroke-dasharray:none;stroke-opacity:1"
     d="m 180.0417,44.458699 c 2.49,1.907 2.812,2.589 3.266,3.385 2.849,5.032 5.261,3.548 6.573,0.975 1.541,-3.021 2.151,-4.073 -3.188,-7.407 -1.484,-0.921 -6.724,-5.224 -6.724,-5.224 -1.661,-1.79 -4.244,-2.65 -5.624,-2.192 -1.459,0.49 -0.844,0.402 -2.109,1.099 -1.21,0.661 -2.33,2.541 -1.923,3.708 0.38,1.125 2.011,1.469 4.303,2.271 1.801,0.63 5.426,3.385 5.426,3.385 z"
     id="path331" />
  <path
     style="fill:#ffffff;fill-opacity:1;fill-rule:nonzero;stroke:none"
     d="m 173.1817,28.397699 c -0.072,-0.23 0.902,-0.844 0.652,-1.308 -0.245,-0.464 -1.016,-0.282 -2.614,-1.464 l -0.016,-0.015 c -1.14,-0.907 -2.49,-1.224 -3.64,-0.729 -1.907,0.833 -2.538,3.604 -1.407,6.186 1.125,2.595 3.583,4.022 5.484,3.194 1.828,-0.792 2.484,-3.37 1.541,-5.864"
     id="path332" />
  <path
     style="fill:none;stroke:#231f20;stroke-width:0.565977;stroke-linecap:butt;stroke-linejoin:miter;stroke-miterlimit:4;stroke-dasharray:none;stroke-opacity:1"
     d="m 173.1817,28.397699 c -0.072,-0.23 0.902,-0.844 0.652,-1.308 -0.245,-0.464 -1.016,-0.282 -2.614,-1.464 l -0.016,-0.015 c -1.14,-0.907 -2.49,-1.224 -3.64,-0.729 -1.907,0.833 -2.538,3.604 -1.407,6.186 1.125,2.595 3.583,4.022 5.484,3.194 1.828,-0.792 2.484,-3.37 1.541,-5.864 z"
     id="path333" />
  <path
     style="fill:#231f20;fill-opacity:1;fill-rule:nonzero;stroke:none"
     d="m 203.7817,59.938699 c 3.072,-2.584 -0.677,-4.199 -0.985,-4.563 -3.213,-3.849 -3.541,-4.047 -6.187,-6.803 -3.828,-3.989 -7.062,-6.129 -10.032,-4.582 -2.009,1.052 -2.718,2.531 -2.582,3.838 0.15,1.454 1.901,4.11 4.786,4.052 l 1.474,0.875 c 0.917,0.719 1.374,1.063 1.802,1.453 0.734,0.678 1.568,1.359 3.083,2.599 2.677,2.203 6.24,3.651 6.24,3.651 0.984,0.766 2.401,-0.52 2.401,-0.52"
     id="path334" />
  <path
     style="fill:none;stroke:#231f20;stroke-width:0.565977;stroke-linecap:butt;stroke-linejoin:miter;stroke-miterlimit:4;stroke-dasharray:none;stroke-opacity:1"
     d="m 203.7817,59.938699 c 3.072,-2.584 -0.677,-4.199 -0.985,-4.563 -3.213,-3.849 -3.541,-4.047 -6.187,-6.803 -3.828,-3.989 -7.062,-6.129 -10.032,-4.582 -2.009,1.052 -2.718,2.531 -2.582,3.838 0.15,1.454 1.901,4.11 4.786,4.052 l 1.474,0.875 c 0.917,0.719 1.374,1.063 1.802,1.453 0.734,0.678 1.568,1.359 3.083,2.599 2.677,2.203 6.24,3.651 6.24,3.651 0.984,0.766 2.401,-0.52 2.401,-0.52 z"
     id="path335" />
  <path
     style="fill:#ca0369;fill-opacity:1;fill-rule:nonzero;stroke:none"
     d="m 192.7357,45.302699 c -0.043,-0.063 -0.09,-0.129 -0.12,-0.192 -0.355,-0.729 -0.964,-0.876 -1.986,-1.068 -1.421,-0.625 -2.781,-0.708 -4.104,-0.052 -2.041,1.005 -2.776,2.468 -2.666,3.781 0.12,1.453 1.813,4.145 4.698,4.156 l 5.604,-5.448 c -0.484,-0.442 -0.958,-0.822 -1.426,-1.177"
     id="path336" />
  <path
     style="fill:none;stroke:#231f20;stroke-width:0.565977;stroke-linecap:butt;stroke-linejoin:miter;stroke-miterlimit:4;stroke-dasharray:none;stroke-opacity:1"
     d="m 192.7357,45.302699 c -0.043,-0.063 -0.09,-0.129 -0.12,-0.192 -0.355,-0.729 -0.964,-0.876 -1.986,-1.068 -1.421,-0.625 -2.781,-0.708 -4.104,-0.052 -2.041,1.005 -2.776,2.468 -2.666,3.781 0.12,1.453 1.813,4.145 4.698,4.156 l 5.604,-5.448 c -0.484,-0.442 -0.958,-0.822 -1.426,-1.177 z"
     id="path337" />
  <path
     style="fill:#231f20;fill-opacity:1;fill-rule:nonzero;stroke:none"
     d="m 172.3857,44.490699 c -1.297,-0.011 -0.912,-2.011 -0.89,-2.547 0.02,-0.542 0.14,-1.156 0.03,-2.37 -0.077,-0.9 -0.077,-1.672 -0.249,-2.416 -0.265,-1.194 0.276,-2.522 2.031,-2.798 1.734,-0.276 2.213,0.328 2.313,1.823 0.02,0.376 -0.251,1.48 -0.272,1.948 -0.072,1.511 -0.479,2.224 -0.333,3.428 0.166,1.375 -0.26,2.109 -0.676,2.353 -1.038,0.595 -1.954,0.579 -1.954,0.579"
     id="path338" />
  <path
     style="fill:none;stroke:#231f20;stroke-width:0.565977;stroke-linecap:butt;stroke-linejoin:miter;stroke-miterlimit:4;stroke-dasharray:none;stroke-opacity:1"
     d="m 172.3857,44.490699 c -1.297,-0.011 -0.912,-2.011 -0.89,-2.547 0.02,-0.542 0.14,-1.156 0.03,-2.37 -0.077,-0.9 -0.077,-1.672 -0.249,-2.416 -0.265,-1.194 0.276,-2.522 2.031,-2.798 1.734,-0.276 2.213,0.328 2.313,1.823 0.02,0.376 -0.251,1.48 -0.272,1.948 -0.072,1.511 -0.479,2.224 -0.333,3.428 0.166,1.375 -0.26,2.109 -0.676,2.353 -1.038,0.595 -1.954,0.579 -1.954,0.579 z"
     id="path339" />
  <path
     style="fill:#231f20;fill-opacity:1;fill-rule:nonzero;stroke:none"
     d="m 176.9797,38.651699 c 0.114,0.459 -0.782,1.328 -0.968,2.344 -0.126,0.682 -1.448,1.87 -1.5,2.578 -0.054,0.652 -0.158,0.922 -1.224,0.698 -0.631,-0.13 -1.886,-0.693 -1.97,-1.052 -0.182,-0.844 0.027,-1.396 0.459,-1.917 0.484,-0.593 2.057,-2.041 2.391,-2.276 0.833,-0.577 0.806,-1.077 1,-1.255 0.358,-0.333 0.681,-0.245 1.125,-0.005 0.848,0.448 0.687,0.885 0.687,0.885"
     id="path340" />
  <path
     style="fill:none;stroke:#231f20;stroke-width:0.447455;stroke-linecap:butt;stroke-linejoin:miter;stroke-miterlimit:4;stroke-dasharray:none;stroke-opacity:1"
     d="m 176.9797,38.651699 c 0.114,0.459 -0.782,1.328 -0.968,2.344 -0.126,0.682 -1.448,1.87 -1.5,2.578 -0.054,0.652 -0.158,0.922 -1.224,0.698 -0.631,-0.13 -1.886,-0.693 -1.97,-1.052 -0.182,-0.844 0.027,-1.396 0.459,-1.917 0.484,-0.593 2.057,-2.041 2.391,-2.276 0.833,-0.577 0.806,-1.077 1,-1.255 0.358,-0.333 0.681,-0.245 1.125,-0.005 0.848,0.448 0.687,0.885 0.687,0.885 z"
     id="path341" />
  <path
     style="fill:#ffffff;fill-opacity:1;fill-rule:nonzero;stroke:#231f20;stroke-width:0.665856;stroke-linecap:butt;stroke-linejoin:miter;stroke-miterlimit:4;stroke-dasharray:none;stroke-opacity:1"
     d="m 160.4957,0.88669862 10.91,29.73300038 1.256,-0.457 -10.917,-29.73500038 z"
     id="path342" />
  <path
     style="fill:#ffffff;fill-opacity:1;fill-rule:nonzero;stroke:none"
     d="m 169.7297,36.495699 c -0.813,-2.213 0.323,-4.666 2.531,-5.48 2.213,-0.812 4.672,0.324 5.484,2.538 0.808,2.208 -0.333,4.666 -2.541,5.478 -2.208,0.812 -4.667,-0.328 -5.474,-2.536 m -1.25,0.458 c 1.062,2.896 4.286,4.39 7.188,3.329 2.896,-1.068 4.39,-4.292 3.322,-7.188 -1.062,-2.901 -4.286,-4.391 -7.182,-3.328 -2.902,1.063 -4.396,4.287 -3.328,7.187"
     id="path343" />
  <path
     style="fill:none;stroke:#231f20;stroke-width:0.665856;stroke-linecap:butt;stroke-linejoin:miter;stroke-miterlimit:4;stroke-dasharray:none;stroke-opacity:1"
     d="m 169.7297,36.495699 c -0.813,-2.213 0.323,-4.666 2.531,-5.48 2.213,-0.812 4.672,0.324 5.484,2.538 0.808,2.208 -0.333,4.666 -2.541,5.478 -2.208,0.812 -4.667,-0.328 -5.474,-2.536 z m -1.25,0.458 c 1.062,2.896 4.286,4.39 7.188,3.329 2.896,-1.068 4.39,-4.292 3.322,-7.188 -1.062,-2.901 -4.286,-4.391 -7.182,-3.328 -2.902,1.063 -4.396,4.287 -3.328,7.187 z"
     id="path344" />
  <path
     style="fill:#231f20;fill-opacity:1;fill-rule:nonzero;stroke:none"
     d="m 176.7087,37.521699 c 0.661,-0.23 2.333,1.37 2.197,1.661 -0.134,0.287 -0.629,-0.296 -0.79,0.016 -0.162,0.317 0.213,0.645 0.052,0.817 -0.167,0.183 -0.552,-0.281 -0.719,-0.02 -0.068,0.104 0.124,0.667 -0.043,0.76 -0.14,0.084 -0.604,-0.156 -0.728,-0.093 -0.188,0.093 0.162,0.593 0.01,0.692 -0.395,0.245 -1.635,-2.172 -1.547,-2.396 0.125,-0.333 0.5,-1.061 1.568,-1.437"
     id="path345" />
  <path
     style="fill:none;stroke:#231f20;stroke-width:0.565977;stroke-linecap:round;stroke-linejoin:round;stroke-miterlimit:4;stroke-dasharray:none;stroke-opacity:1"
     d="m 176.7087,37.521699 c 0.661,-0.23 2.333,1.37 2.197,1.661 -0.134,0.287 -0.629,-0.296 -0.79,0.016 -0.162,0.317 0.213,0.645 0.052,0.817 -0.167,0.183 -0.552,-0.281 -0.719,-0.02 -0.068,0.104 0.124,0.667 -0.043,0.76 -0.14,0.084 -0.604,-0.156 -0.728,-0.093 -0.188,0.093 0.162,0.593 0.01,0.692 -0.395,0.245 -1.635,-2.172 -1.547,-2.396 0.125,-0.333 0.5,-1.061 1.568,-1.437 z"
     id="path346" />
  <path
     style="fill:#ffffff;fill-opacity:1;fill-rule:nonzero;stroke:#231f20;stroke-width:0.665856;stroke-linecap:butt;stroke-linejoin:miter;stroke-miterlimit:4;stroke-dasharray:none;stroke-opacity:1"
     d="m 226.9277,1.1576986 0.057,31.6770004 1.333,-0.005 -0.062,-31.6720004 z"
     id="path347" />
  <path
     style="fill:#ffffff;fill-opacity:1;fill-rule:nonzero;stroke:none"
     d="m 223.3917,37.771699 c -0.006,-2.354 1.905,-4.27 4.26,-4.276 2.354,-0.005 4.276,1.911 4.276,4.266 0.005,2.349 -1.907,4.27 -4.26,4.276 -2.355,0.005 -4.271,-1.912 -4.276,-4.266 m -1.334,0.006 c 0.011,3.088 2.526,5.593 5.615,5.588 3.088,-0.006 5.593,-2.522 5.588,-5.61 -0.005,-3.088 -2.521,-5.593 -5.609,-5.588 -3.088,0.006 -5.599,2.52 -5.594,5.61"
     id="path348" />
  <path
     style="fill:none;stroke:#231f20;stroke-width:0.665856;stroke-linecap:butt;stroke-linejoin:miter;stroke-miterlimit:4;stroke-dasharray:none;stroke-opacity:1"
     d="m 223.3917,37.771699 c -0.006,-2.354 1.905,-4.27 4.26,-4.276 2.354,-0.005 4.276,1.911 4.276,4.266 0.005,2.349 -1.907,4.27 -4.26,4.276 -2.355,0.005 -4.271,-1.912 -4.276,-4.266 z m -1.334,0.006 c 0.011,3.088 2.526,5.593 5.615,5.588 3.088,-0.006 5.593,-2.522 5.588,-5.61 -0.005,-3.088 -2.521,-5.593 -5.609,-5.588 -3.088,0.006 -5.599,2.52 -5.594,5.61 z"
     id="path349" />
  <path
     style="fill:#231f20;fill-opacity:1;fill-rule:nonzero;stroke:none"
     d="m 228.3177,40.558699 c 0.698,0.041 1.62,2.161 1.386,2.38 -0.235,0.213 -0.464,-0.521 -0.74,-0.292 -0.271,0.235 -0.052,0.677 -0.26,0.776 -0.23,0.099 -0.407,-0.479 -0.656,-0.301 -0.104,0.072 -0.142,0.666 -0.334,0.692 -0.161,0.016 -0.5,-0.38 -0.636,-0.375 -0.213,0.016 -0.082,0.615 -0.26,0.64 -0.464,0.079 -0.672,-2.629 -0.5,-2.801 0.24,-0.262 0.875,-0.787 2,-0.719"
     id="path350" />
  <path
     style="fill:none;stroke:#231f20;stroke-width:0.565977;stroke-linecap:round;stroke-linejoin:round;stroke-miterlimit:4;stroke-dasharray:none;stroke-opacity:1"
     d="m 228.3177,40.558699 c 0.698,0.041 1.62,2.161 1.386,2.38 -0.235,0.213 -0.464,-0.521 -0.74,-0.292 -0.271,0.235 -0.052,0.677 -0.26,0.776 -0.23,0.099 -0.407,-0.479 -0.656,-0.301 -0.104,0.072 -0.142,0.666 -0.334,0.692 -0.161,0.016 -0.5,-0.38 -0.636,-0.375 -0.213,0.016 -0.082,0.615 -0.26,0.64 -0.464,0.079 -0.672,-2.629 -0.5,-2.801 0.24,-0.262 0.875,-0.787 2,-0.719 z"
     id="path351" />
  <path
     style="fill:#231f20;fill-opacity:1;fill-rule:nonzero;stroke:none"
     d="m 290.4787,65.323699 c -1.354,0.099 -1.765,-0.803 -1.494,-1.803 0.073,-0.296 -0.162,-0.64 -0.063,-0.926 0.245,-0.662 1.844,-1.344 2.756,-0.151 0.067,0.083 0.733,0.557 1.181,0.989 0.866,0.844 2.199,2.954 1.584,5.578 -0.292,1.245 -0.969,0.844 -1.005,0.302 -0.104,-1.708 -0.453,-1.833 -0.647,-2.276 -0.645,-1.484 -2.312,-1.713 -2.312,-1.713"
     id="path352" />
  <path
     style="fill:none;stroke:#231f20;stroke-width:0.332927;stroke-linecap:butt;stroke-linejoin:miter;stroke-miterlimit:4;stroke-dasharray:none;stroke-opacity:1"
     d="m 290.4787,65.323699 c -1.354,0.099 -1.765,-0.803 -1.494,-1.803 0.073,-0.296 -0.162,-0.64 -0.063,-0.926 0.245,-0.662 1.844,-1.344 2.756,-0.151 0.067,0.083 0.733,0.557 1.181,0.989 0.866,0.844 2.199,2.954 1.584,5.578 -0.292,1.245 -0.969,0.844 -1.005,0.302 -0.104,-1.708 -0.453,-1.833 -0.647,-2.276 -0.645,-1.484 -2.312,-1.713 -2.312,-1.713 z"
     id="path353" />
  <path
     style="fill:#231f20;fill-opacity:1;fill-rule:nonzero;stroke:none"
     d="m 279.3387,50.239699 c -1.881,1.267 -2.078,1.767 -1.594,2.595 0.319,0.552 0.428,1.172 0.604,1.52 0.6,1.152 2.078,2.838 7.526,6.537 1.235,0.839 2.964,2.025 3.631,2.567 1.052,0.854 1.755,-1.468 1.348,-1.812 -1.317,-1.094 -2.135,-1.954 -2.557,-2.416 -0.286,-0.319 -0.875,-0.803 -1.828,-2.167 -1.458,-2.068 -2.015,-3.521 -3.427,-5.1 -0.651,-0.729 -0.683,-1.697 -1.688,-2.088 -1.009,-0.401 -2.015,0.364 -2.015,0.364"
     id="path354" />
  <path
     style="fill:none;stroke:#231f20;stroke-width:0.565977;stroke-linecap:butt;stroke-linejoin:miter;stroke-miterlimit:4;stroke-dasharray:none;stroke-opacity:1"
     d="m 279.3387,50.239699 c -1.881,1.267 -2.078,1.767 -1.594,2.595 0.319,0.552 0.428,1.172 0.604,1.52 0.6,1.152 2.078,2.838 7.526,6.537 1.235,0.839 2.964,2.025 3.631,2.567 1.052,0.854 1.755,-1.468 1.348,-1.812 -1.317,-1.094 -2.135,-1.954 -2.557,-2.416 -0.286,-0.319 -0.875,-0.803 -1.828,-2.167 -1.458,-2.068 -2.015,-3.521 -3.427,-5.1 -0.651,-0.729 -0.683,-1.697 -1.688,-2.088 -1.009,-0.401 -2.015,0.364 -2.015,0.364 z"
     id="path355" />
  <path
     style="fill:#ca0369;fill-opacity:1;fill-rule:nonzero;stroke:none"
     d="m 264.3077,29.339699 c -0.126,3.135 -0.5,3.791 -0.896,4.624 -2.484,5.219 0.125,6.339 2.98,5.934 3.358,-0.475 4.572,-0.574 4.229,-6.86 -0.095,-1.751 0.416,-8.506 0.416,-8.506 0.511,-2.39 -0.271,-5 -1.437,-5.864 -1.24,-0.912 -0.812,-0.458 -2.11,-1.1 -1.234,-0.604 -3.417,-0.442 -4.145,0.558 -0.699,0.964 -0.043,2.49 0.619,4.824 0.516,1.842 0.344,6.39 0.344,6.39"
     id="path356" />
  <path
     style="fill:none;stroke:#231f20;stroke-width:0.565977;stroke-linecap:butt;stroke-linejoin:miter;stroke-miterlimit:4;stroke-dasharray:none;stroke-opacity:1"
     d="m 264.3077,29.339699 c -0.126,3.135 -0.5,3.791 -0.896,4.624 -2.484,5.219 0.125,6.339 2.98,5.934 3.358,-0.475 4.572,-0.574 4.229,-6.86 -0.095,-1.751 0.416,-8.506 0.416,-8.506 0.511,-2.39 -0.271,-5 -1.437,-5.864 -1.24,-0.912 -0.812,-0.458 -2.11,-1.1 -1.234,-0.604 -3.417,-0.442 -4.145,0.558 -0.699,0.964 -0.043,2.49 0.619,4.824 0.516,1.842 0.344,6.39 0.344,6.39 z"
     id="path357" />
  <path
     style="fill:#ffffff;fill-opacity:1;fill-rule:nonzero;stroke:none"
     d="m 270.2557,11.193699 c 0.026,-0.244 1.166,-0.416 1.125,-0.938 -0.041,-0.5250004 -0.817,-0.6660004 -1.803,-2.3960004 l -0.009,-0.016 c -0.677,-1.29 -1.781,-2.129 -3.037,-2.14 -2.074,-0.01 -3.771,2.271 -3.787,5.0940004 -0.009,2.828 1.657,5.125 3.735,5.136 1.989,0.01 3.63,-2.084 3.776,-4.74"
     id="path358" />
  <path
     style="fill:none;stroke:#231f20;stroke-width:0.565977;stroke-linecap:butt;stroke-linejoin:miter;stroke-miterlimit:4;stroke-dasharray:none;stroke-opacity:1"
     d="m 270.2557,11.193699 c 0.026,-0.244 1.166,-0.416 1.125,-0.938 -0.041,-0.5250004 -0.817,-0.6660004 -1.803,-2.3960004 l -0.009,-0.016 c -0.677,-1.29 -1.781,-2.129 -3.037,-2.14 -2.074,-0.01 -3.771,2.271 -3.787,5.0940004 -0.009,2.828 1.657,5.125 3.735,5.136 1.989,0.01 3.63,-2.084 3.776,-4.74 z"
     id="path359" />
  <path
     style="fill:#231f20;fill-opacity:1;fill-rule:nonzero;stroke:none"
     d="m 280.2087,52.552699 c 3.51,-1.948 0.14,-4.256 -0.094,-4.672 -2.417,-4.39 -2.698,-4.641 -4.77,-7.854 -2.996,-4.645 -5.756,-7.369 -8.969,-6.416 -2.178,0.645 -3.156,1.963 -3.271,3.276 -0.125,1.453 1.083,4.391 3.927,4.891 l 1.276,1.14 c 0.761,0.874 1.146,1.308 1.489,1.765 0.6,0.813 1.281,1.641 2.527,3.146 2.213,2.678 5.432,4.776 5.432,4.776 0.817,0.943 2.453,-0.052 2.453,-0.052"
     id="path360" />
  <path
     style="fill:none;stroke:#231f20;stroke-width:0.565977;stroke-linecap:butt;stroke-linejoin:miter;stroke-miterlimit:4;stroke-dasharray:none;stroke-opacity:1"
     d="m 280.2087,52.552699 c 3.51,-1.948 0.14,-4.256 -0.094,-4.672 -2.417,-4.39 -2.698,-4.641 -4.77,-7.854 -2.996,-4.645 -5.756,-7.369 -8.969,-6.416 -2.178,0.645 -3.156,1.963 -3.271,3.276 -0.125,1.453 1.083,4.391 3.927,4.891 l 1.276,1.14 c 0.761,0.874 1.146,1.308 1.489,1.765 0.6,0.813 1.281,1.641 2.527,3.146 2.213,2.678 5.432,4.776 5.432,4.776 0.817,0.943 2.453,-0.052 2.453,-0.052 z"
     id="path361" />
  <path
     style="fill:#ca0369;fill-opacity:1;fill-rule:nonzero;stroke:none"
     d="m 271.2137,35.209699 c -0.052,-0.063 -0.098,-0.126 -0.13,-0.188 -0.396,-0.703 -1.011,-0.812 -2.042,-0.948 -1.458,-0.542 -2.822,-0.542 -4.104,0.188 -1.974,1.13 -2.625,2.63 -2.437,3.937 0.203,1.443 2.052,4.032 4.937,3.865 l 5.271,-5.766 c -0.511,-0.411 -1.011,-0.766 -1.495,-1.088"
     id="path362" />
  <path
     style="fill:none;stroke:#231f20;stroke-width:0.565977;stroke-linecap:butt;stroke-linejoin:miter;stroke-miterlimit:4;stroke-dasharray:none;stroke-opacity:1"
     d="m 271.2137,35.209699 c -0.052,-0.063 -0.098,-0.126 -0.13,-0.188 -0.396,-0.703 -1.011,-0.812 -2.042,-0.948 -1.458,-0.542 -2.822,-0.542 -4.104,0.188 -1.974,1.13 -2.625,2.63 -2.437,3.937 0.203,1.443 2.052,4.032 4.937,3.865 l 5.271,-5.766 c -0.511,-0.411 -1.011,-0.766 -1.495,-1.088 z"
     id="path363" />
  <path
     style="fill:#231f20;fill-opacity:1;fill-rule:nonzero;stroke:none"
     d="m 263.9897,40.687699 c -0.36,-0.536 -0.12,-2.468 -0.546,-4.014 -0.292,-1.048 0.12,-3.762 -0.251,-4.782 -0.328,-0.938 -0.396,-1.396 0.604,-1.964 0.6,-0.333 1.953,-0.598 2.229,-0.166 0.636,1.01 0.782,1.942 0.73,3.01 -0.063,1.214 -0.52,4.495 -0.667,5.088 -0.353,1.484 -0.041,2.151 -0.099,2.552 -0.104,0.756 -0.421,0.902 -0.921,0.938 -0.953,0.073 -1.079,-0.662 -1.079,-0.662"
     id="path364" />
  <path
     style="fill:none;stroke:#231f20;stroke-width:0.565977;stroke-linecap:butt;stroke-linejoin:miter;stroke-miterlimit:4;stroke-dasharray:none;stroke-opacity:1"
     d="m 263.9897,40.687699 c -0.36,-0.536 -0.12,-2.468 -0.546,-4.014 -0.292,-1.048 0.12,-3.762 -0.251,-4.782 -0.328,-0.938 -0.396,-1.396 0.604,-1.964 0.6,-0.333 1.953,-0.598 2.229,-0.166 0.636,1.01 0.782,1.942 0.73,3.01 -0.063,1.214 -0.52,4.495 -0.667,5.088 -0.353,1.484 -0.041,2.151 -0.099,2.552 -0.104,0.756 -0.421,0.902 -0.921,0.938 -0.953,0.073 -1.079,-0.662 -1.079,-0.662 z"
     id="path365" />
  <path
     style="fill:#231f20;fill-opacity:1;fill-rule:nonzero;stroke:none"
     d="m 263.8177,31.630699 c -1.292,-0.12 -0.74,-2.077 -0.672,-2.615 0.068,-0.541 0.084,-2.098 -0.068,-3.306 -0.14,-1.219 0.199,-2.798 -0.072,-5.11 -0.141,-1.213 0.484,-2.484 2.26,-2.614 1.75,-0.131 2.479,0.806 2.432,2.301 -0.046,1.496 -0.729,2.881 -0.88,4.381 -0.156,1.506 -0.177,3.052 -0.13,4.266 0.048,1.38 -0.443,2.082 -0.875,2.286 -1.083,0.506 -1.995,0.411 -1.995,0.411"
     id="path366" />
  <path
     style="fill:none;stroke:#231f20;stroke-width:0.565977;stroke-linecap:butt;stroke-linejoin:miter;stroke-miterlimit:4;stroke-dasharray:none;stroke-opacity:1"
     d="m 263.8177,31.630699 c -1.292,-0.12 -0.74,-2.077 -0.672,-2.615 0.068,-0.541 0.084,-2.098 -0.068,-3.306 -0.14,-1.219 0.199,-2.798 -0.072,-5.11 -0.141,-1.213 0.484,-2.484 2.26,-2.614 1.75,-0.131 2.479,0.806 2.432,2.301 -0.046,1.496 -0.729,2.881 -0.88,4.381 -0.156,1.506 -0.177,3.052 -0.13,4.266 0.048,1.38 -0.443,2.082 -0.875,2.286 -1.083,0.506 -1.995,0.411 -1.995,0.411 z"
     id="path367" />
  <path
     style="fill:#ffffff;fill-opacity:1;fill-rule:nonzero;stroke:#231f20;stroke-width:0.665856;stroke-linecap:butt;stroke-linejoin:miter;stroke-miterlimit:4;stroke-dasharray:none;stroke-opacity:1"
     d="m 265.5887,1.1576986 0.063,31.6770004 1.333,-0.005 -0.063,-31.6720004 z"
     id="path368" />
  <path
     style="fill:#ffffff;fill-opacity:1;fill-rule:nonzero;stroke:none"
     d="m 262.0577,37.771699 c -0.005,-2.354 1.906,-4.27 4.26,-4.276 2.355,-0.005 4.276,1.911 4.276,4.266 0.006,2.349 -1.906,4.27 -4.26,4.276 -2.354,0.005 -4.27,-1.912 -4.276,-4.266 m -1.333,0.006 c 0.011,3.088 2.525,5.593 5.615,5.588 3.088,-0.006 5.593,-2.522 5.588,-5.61 -0.006,-3.088 -2.522,-5.593 -5.615,-5.588 -3.083,0.006 -5.593,2.52 -5.588,5.61"
     id="path369" />
  <path
     style="fill:none;stroke:#231f20;stroke-width:0.665856;stroke-linecap:butt;stroke-linejoin:miter;stroke-miterlimit:4;stroke-dasharray:none;stroke-opacity:1"
     d="m 262.0577,37.771699 c -0.005,-2.354 1.906,-4.27 4.26,-4.276 2.355,-0.005 4.276,1.911 4.276,4.266 0.006,2.349 -1.906,4.27 -4.26,4.276 -2.354,0.005 -4.27,-1.912 -4.276,-4.266 z m -1.333,0.006 c 0.011,3.088 2.525,5.593 5.615,5.588 3.088,-0.006 5.593,-2.522 5.588,-5.61 -0.006,-3.088 -2.522,-5.593 -5.615,-5.588 -3.083,0.006 -5.593,2.52 -5.588,5.61 z"
     id="path370" />
  <path
     style="fill:#231f20;fill-opacity:1;fill-rule:nonzero;stroke:none"
     d="m 265.8807,40.739699 c 0.635,0.287 0.755,2.595 0.459,2.715 -0.292,0.119 -0.251,-0.647 -0.59,-0.527 -0.333,0.115 -0.286,0.615 -0.514,0.631 -0.251,0.015 -0.215,-0.589 -0.511,-0.511 -0.12,0.031 -0.365,0.572 -0.552,0.526 -0.161,-0.036 -0.339,-0.531 -0.464,-0.567 -0.208,-0.063 -0.297,0.541 -0.469,0.504 -0.458,-0.088 0.292,-2.697 0.516,-2.801 0.317,-0.156 1.093,-0.427 2.125,0.03"
     id="path371" />
  <path
     style="fill:none;stroke:#231f20;stroke-width:0.565977;stroke-linecap:round;stroke-linejoin:round;stroke-miterlimit:4;stroke-dasharray:none;stroke-opacity:1"
     d="m 265.8807,40.739699 c 0.635,0.287 0.755,2.595 0.459,2.715 -0.292,0.119 -0.251,-0.647 -0.59,-0.527 -0.333,0.115 -0.286,0.615 -0.514,0.631 -0.251,0.015 -0.215,-0.589 -0.511,-0.511 -0.12,0.031 -0.365,0.572 -0.552,0.526 -0.161,-0.036 -0.339,-0.531 -0.464,-0.567 -0.208,-0.063 -0.297,0.541 -0.469,0.504 -0.458,-0.088 0.292,-2.697 0.516,-2.801 0.317,-0.156 1.093,-0.427 2.125,0.03 z"
     id="path372" />
</svg>
