<?xml version="1.0" encoding="UTF-8" standalone="no"?>
<!-- Created with Inkscape (http://www.inkscape.org/) -->

<svg
   version="1.1"
   id="svg1"
   width="298.94806"
   height="78.072083"
   viewBox="0 0 298.94804 78.072084"
   sodipodi:docname="cell.svg"
   xmlns:inkscape="http://www.inkscape.org/namespaces/inkscape"
   xmlns:sodipodi="http://sodipodi.sourceforge.net/DTD/sodipodi-0.dtd"
   xmlns="http://www.w3.org/2000/svg"
   xmlns:svg="http://www.w3.org/2000/svg">
  <sodipodi:namedview
     id="namedview1"
     pagecolor="#ffffff"
     bordercolor="#000000"
     borderopacity="0.25"
     inkscape:showpageshadow="2"
     inkscape:pageopacity="0.0"
     inkscape:pagecheckerboard="0"
     inkscape:deskcolor="#d1d1d1">
    <inkscape:page
       x="2.8436867e-07"
       y="6.7973804e-14"
       inkscape:label="1"
       id="page1"
       width="298.94803"
       height="78.072083"
       margin="0"
       bleed="0" />
  </sodipodi:namedview>
  <defs
     id="defs1" />
  <path
     style="fill:#231f20;fill-opacity:1;fill-rule:nonzero;stroke:none"
     d="m 8.6876293,8.962925 c 1.0359,0.871 0.7078,1.808 -0.1828,2.333 -0.2652,0.161 -0.3333,0.573 -0.6094,0.704 -0.6292,0.307 -2.2547,-0.324 -2.0719,-1.813 0.0093,-0.109 -0.1411,-0.911 -0.1573,-1.531 -0.0359,-1.213 0.4906,-3.656 2.7614,-5.104 1.0772,-0.688 1.2814,0.072 0.9267,0.484 -1.1095,1.298 -0.9537,1.635 -1.1256,2.079 -0.5771,1.515 0.4589,2.848 0.4589,2.848"
     id="path375" />
  <path
     style="fill:none;stroke:#231f20;stroke-width:0.332927;stroke-linecap:butt;stroke-linejoin:miter;stroke-miterlimit:4;stroke-dasharray:none;stroke-opacity:1"
     d="m 8.6876293,8.962925 c 1.0359,0.871 0.7078,1.808 -0.1828,2.333 -0.2652,0.161 -0.3333,0.573 -0.6094,0.704 -0.6292,0.307 -2.2547,-0.324 -2.0719,-1.813 0.0093,-0.109 -0.1411,-0.911 -0.1573,-1.531 -0.0359,-1.213 0.4906,-3.656 2.7614,-5.104 1.0772,-0.688 1.2814,0.072 0.9267,0.484 -1.1095,1.298 -0.9537,1.635 -1.1256,2.079 -0.5771,1.515 0.4589,2.848 0.4589,2.848 z"
     id="path376" />
  <path
     style="fill:#231f20;fill-opacity:1;fill-rule:nonzero;stroke:none"
     d="m 6.1355293,27.540925 c 2.2292,0.407 2.7188,0.183 2.9531,-0.75 0.1562,-0.615 0.5109,-1.135 0.6256,-1.51 0.3743997,-1.24 0.4947997,-3.485 -0.824,-9.933 -0.2959,-1.463 -0.7078,-3.52 -0.8068,-4.369 -0.1558,-1.349 -2.2864,-0.177 -2.2291,0.349 0.1771,1.703 0.1615,2.896 0.1411,3.515 -0.0104,0.428 0.0614,1.188 -0.1984,2.828 -0.4068,2.501 -1.0162,3.933 -1.1094,6.048 -0.0469,0.978 -0.7026,1.686 -0.2547,2.676 0.4479,0.985 1.7026,1.146 1.7026,1.146"
     id="path377" />
  <path
     style="fill:none;stroke:#231f20;stroke-width:0.565977;stroke-linecap:butt;stroke-linejoin:miter;stroke-miterlimit:4;stroke-dasharray:none;stroke-opacity:1"
     d="m 6.1355293,27.540925 c 2.2292,0.407 2.7188,0.183 2.9531,-0.75 0.1562,-0.615 0.5109,-1.135 0.6256,-1.51 0.3743997,-1.24 0.4947997,-3.485 -0.824,-9.933 -0.2959,-1.463 -0.7078,-3.52 -0.8068,-4.369 -0.1558,-1.349 -2.2864,-0.177 -2.2291,0.349 0.1771,1.703 0.1615,2.896 0.1411,3.515 -0.0104,0.428 0.0614,1.188 -0.1984,2.828 -0.4068,2.501 -1.0162,3.933 -1.1094,6.048 -0.0469,0.978 -0.7026,1.686 -0.2547,2.676 0.4479,0.985 1.7026,1.146 1.7026,1.146 z"
     id="path378" />
  <path
     style="fill:#ca0369;fill-opacity:1;fill-rule:nonzero;stroke:none"
     d="m 7.9850293,53.467925 c 0.0822,-3.135 0.4478,-3.797 0.8276,-4.635 2.4108997,-5.256 -0.2131,-6.338 -3.0678,-5.89 -3.3494,0.525 -4.5571,0.645 -4.1254,6.926 0.1203,1.746 -0.2865,8.511 -0.2865,8.511 -0.47340005,2.396 0.3438,4.989 1.5266,5.839 1.2495,0.896 0.8172,0.448 2.1255,1.066 1.2437,0.59 3.4213,0.391 4.1344,-0.618 0.688,-0.97 0,-2.491 -0.6918,-4.819 -0.5426,-1.828 -0.4426,-6.38 -0.4426,-6.38"
     id="path379" />
  <path
     style="fill:none;stroke:#231f20;stroke-width:0.565977;stroke-linecap:butt;stroke-linejoin:miter;stroke-miterlimit:4;stroke-dasharray:none;stroke-opacity:1"
     d="m 7.9850293,53.467925 c 0.0822,-3.135 0.4478,-3.797 0.8276,-4.635 2.4108997,-5.256 -0.2131,-6.338 -3.0678,-5.89 -3.3494,0.525 -4.5571,0.645 -4.1254,6.926 0.1203,1.746 -0.2865,8.511 -0.2865,8.511 -0.47340005,2.396 0.3438,4.989 1.5266,5.839 1.2495,0.896 0.8172,0.448 2.1255,1.066 1.2437,0.59 3.4213,0.391 4.1344,-0.618 0.688,-0.97 0,-2.491 -0.6918,-4.819 -0.5426,-1.828 -0.4426,-6.38 -0.4426,-6.38 z"
     id="path380" />
  <path
     style="fill:#ffffff;fill-opacity:1;fill-rule:nonzero;stroke:none"
     d="m 3.6877293,71.702925 c 0,0.245 -1.0991,0.562 -0.9948,1.078 0.1093,0.51 0.8957,0.552 2.0931,2.14 l 0.011,0.016 c 0.8385,1.187 2.0412,1.88 3.2864,1.724 2.0624997,-0.256 3.4536997,-2.734 3.0989997,-5.537 -0.3496,-2.801 -2.3015997,-4.864 -4.3640997,-4.609 -1.9749,0.245 -3.3281,2.532 -3.1306,5.188"
     id="path381" />
  <path
     style="fill:none;stroke:#231f20;stroke-width:0.565977;stroke-linecap:butt;stroke-linejoin:miter;stroke-miterlimit:4;stroke-dasharray:none;stroke-opacity:1"
     d="m 3.6877293,71.702925 c 0,0.245 -1.0991,0.562 -0.9948,1.078 0.1093,0.51 0.8957,0.552 2.0931,2.14 l 0.011,0.016 c 0.8385,1.187 2.0412,1.88 3.2864,1.724 2.0624997,-0.256 3.4536997,-2.734 3.0989997,-5.537 -0.3496,-2.801 -2.3015997,-4.864 -4.3640997,-4.609 -1.9749,0.245 -3.3281,2.532 -3.1306,5.188 z"
     id="path382" />
  <path
     style="fill:#231f20;fill-opacity:1;fill-rule:nonzero;stroke:none"
     d="m 7.1251293,25.270925 c -3.8698,-1.052 -3.0682,2.953 -3.1922,3.41 -1.3386,4.828 -1.3135,5.21 -2.0734,8.954 -1.09850005,5.422 -1.02130005,9.297 1.9427,10.86 2.0104,1.057 3.6254,0.796 4.6306,-0.063 1.1043,-0.948 2.2906997,-3.901 0.6043,-6.24 l -0.1204,-1.708 c 0.0683,-1.161 0.0933,-1.74 0.1719,-2.308 0.1401,-0.995 0.2188,-2.067 0.3802,-4.015 0.2864,-3.458 -0.5521,-7.213 -0.5521,-7.213 0.0735,-1.24 -1.7916,-1.677 -1.7916,-1.677"
     id="path383" />
  <path
     style="fill:none;stroke:#231f20;stroke-width:0.565977;stroke-linecap:butt;stroke-linejoin:miter;stroke-miterlimit:4;stroke-dasharray:none;stroke-opacity:1"
     d="m 7.1251293,25.270925 c -3.8698,-1.052 -3.0682,2.953 -3.1922,3.41 -1.3386,4.828 -1.3135,5.21 -2.0734,8.954 -1.09850005,5.422 -1.02130005,9.297 1.9427,10.86 2.0104,1.057 3.6254,0.796 4.6306,-0.063 1.1043,-0.948 2.2906997,-3.901 0.6043,-6.24 l -0.1204,-1.708 c 0.0683,-1.161 0.0933,-1.74 0.1719,-2.308 0.1401,-0.995 0.2188,-2.067 0.3802,-4.015 0.2864,-3.458 -0.5521,-7.213 -0.5521,-7.213 0.0735,-1.24 -1.7916,-1.677 -1.7916,-1.677 z"
     id="path384" />
  <path
     style="fill:#ca0369;fill-opacity:1;fill-rule:nonzero;stroke:none"
     d="m 9.0371293,42.191925 -7.6989,-1.349 c -0.072,0.657 -0.1043,1.266 -0.1147,1.849 -0.0254,0.079 -0.0573,0.151 -0.088,0.213 -0.38020005,0.71 -0.14010005,1.292 0.2974,2.23 0.3333,1.521 1.0625,2.672 2.3693,3.36 2.0161,1.057 3.6306,0.796 4.6306,-0.063 1.1043,-0.948 2.2906997,-3.901 0.6043,-6.24"
     id="path385" />
  <path
     style="fill:none;stroke:#231f20;stroke-width:0.565977;stroke-linecap:butt;stroke-linejoin:miter;stroke-miterlimit:4;stroke-dasharray:none;stroke-opacity:1"
     d="m 9.0371293,42.191925 -7.6989,-1.349 c -0.072,0.657 -0.1043,1.266 -0.1147,1.849 -0.0254,0.079 -0.0573,0.151 -0.088,0.213 -0.38020005,0.71 -0.14010005,1.292 0.2974,2.23 0.3333,1.521 1.0625,2.672 2.3693,3.36 2.0161,1.057 3.6306,0.796 4.6306,-0.063 1.1043,-0.948 2.2906997,-3.901 0.6043,-6.24 z"
     id="path386" />
  <path
     style="fill:#231f20;fill-opacity:1;fill-rule:nonzero;stroke:none"
     d="m 6.7715293,42.467925 c 0.3801,0.521 0.2077,2.464 0.6921,3.995 0.3224,1.032 0.0104,3.761 0.412,4.77 0.3692,0.923 0.4531,1.382 -0.5322,1.98 -0.5824,0.359 -1.9319,0.667 -2.224,0.244 -0.6667,-0.984 -0.8437,-1.91 -0.8333,-2.984 0.0213,-1.213 0.3707,-4.505 0.4895,-5.104 0.3026,-1.494 -0.0308,-2.15 0.0104,-2.557 0.0787,-0.755 0.3855,-0.912 0.8907,-0.969 0.9536,-0.099 1.0948,0.625 1.0948,0.625"
     id="path387" />
  <path
     style="fill:none;stroke:#231f20;stroke-width:0.565977;stroke-linecap:butt;stroke-linejoin:miter;stroke-miterlimit:4;stroke-dasharray:none;stroke-opacity:1"
     d="m 6.7715293,42.467925 c 0.3801,0.521 0.2077,2.464 0.6921,3.995 0.3224,1.032 0.0104,3.761 0.412,4.77 0.3692,0.923 0.4531,1.382 -0.5322,1.98 -0.5824,0.359 -1.9319,0.667 -2.224,0.244 -0.6667,-0.984 -0.8437,-1.91 -0.8333,-2.984 0.0213,-1.213 0.3707,-4.505 0.4895,-5.104 0.3026,-1.494 -0.0308,-2.15 0.0104,-2.557 0.0787,-0.755 0.3855,-0.912 0.8907,-0.969 0.9536,-0.099 1.0948,0.625 1.0948,0.625 z"
     id="path388" />
  <path
     style="fill:#231f20;fill-opacity:1;fill-rule:nonzero;stroke:none"
     d="m 7.2662293,51.514925 c 1.2906,0.073 0.812,2.046 0.76,2.589 -0.047,0.541 -0.0052,2.099 0.1828,3.307 0.1864,1.208 -0.1,2.797 0.2546,5.098 0.1823,1.21 -0.4016,2.5 -2.1666,2.694 -1.7454,0.192 -2.5109,-0.719 -2.5109,-2.214 -0.0052,-1.494 0.6254,-2.901 0.7239,-4.417 0.1042,-1.5 0.0682,-3.052 -0.0146,-4.26 -0.1,-1.38 0.3641,-2.099 0.7854,-2.312 1.0683,-0.548 1.9854,-0.485 1.9854,-0.485"
     id="path389" />
  <path
     style="fill:none;stroke:#231f20;stroke-width:0.565977;stroke-linecap:butt;stroke-linejoin:miter;stroke-miterlimit:4;stroke-dasharray:none;stroke-opacity:1"
     d="m 7.2662293,51.514925 c 1.2906,0.073 0.812,2.046 0.76,2.589 -0.047,0.541 -0.0052,2.099 0.1828,3.307 0.1864,1.208 -0.1,2.797 0.2546,5.098 0.1823,1.21 -0.4016,2.5 -2.1666,2.694 -1.7454,0.192 -2.5109,-0.719 -2.5109,-2.214 -0.0052,-1.494 0.6254,-2.901 0.7239,-4.417 0.1042,-1.5 0.0682,-3.052 -0.0146,-4.26 -0.1,-1.38 0.3641,-2.099 0.7854,-2.312 1.0683,-0.548 1.9854,-0.485 1.9854,-0.485 z"
     id="path390" />
  <path
     style="fill:#ffffff;fill-opacity:1;fill-rule:nonzero;stroke:#231f20;stroke-width:0.665856;stroke-linecap:butt;stroke-linejoin:miter;stroke-miterlimit:4;stroke-dasharray:none;stroke-opacity:1"
     d="m 4.8595293,32.562925 h 1.3333 V 0.88592501 h -1.3333 z"
     id="path391" />
  <path
     style="fill:#ffffff;fill-opacity:1;fill-rule:nonzero;stroke:none"
     d="m 1.6662293,37.494925 c 0,-2.355 1.9172,-4.267 4.272,-4.267 2.3536,0 4.2655997,1.912 4.2655997,4.267 0,2.353 -1.9119997,4.27 -4.2655997,4.27 -2.3548,0 -4.272,-1.917 -4.272,-4.27 m -1.33330005,0 c 0,3.088 2.51620005,5.598 5.60530005,5.598 3.0828,0 5.5988997,-2.51 5.5988997,-5.598 0,-3.09 -2.5160997,-5.6 -5.5988997,-5.6 -3.0891,0 -5.60530005,2.51 -5.60530005,5.6"
     id="path392" />
  <path
     style="fill:none;stroke:#231f20;stroke-width:0.665856;stroke-linecap:butt;stroke-linejoin:miter;stroke-miterlimit:4;stroke-dasharray:none;stroke-opacity:1"
     d="m 1.6662293,37.494925 c 0,-2.355 1.9172,-4.267 4.272,-4.267 2.3536,0 4.2655997,1.912 4.2655997,4.267 0,2.353 -1.9119997,4.27 -4.2655997,4.27 -2.3548,0 -4.272,-1.917 -4.272,-4.27 z m -1.33330005,0 c 0,3.088 2.51620005,5.598 5.60530005,5.598 3.0828,0 5.5988997,-2.51 5.5988997,-5.598 0,-3.09 -2.5160997,-5.6 -5.5988997,-5.6 -3.0891,0 -5.60530005,2.51 -5.60530005,5.6 z"
     id="path393" />
  <path
     style="fill:#231f20;fill-opacity:1;fill-rule:nonzero;stroke:none"
     d="m 4.8850293,42.483925 c -0.6511,-0.26 -0.8479,-2.568 -0.5563,-2.699 0.2907,-0.129 0.2708,0.642 0.6041,0.506 0.3334,-0.124 0.2652,-0.624 0.4948,-0.646 0.2491,-0.021 0.2344,0.583 0.5251,0.495 0.1255,-0.041 0.3495,-0.588 0.5375,-0.552 0.1666,0.036 0.3532,0.521 0.4838,0.557 0.2084,0.052 0.276,-0.557 0.4536,-0.526 0.4574,0.073 -0.2041,2.709 -0.4176,2.824 -0.312,0.161 -1.0772,0.462 -2.125,0.041"
     id="path394" />
  <path
     style="fill:none;stroke:#231f20;stroke-width:0.565977;stroke-linecap:round;stroke-linejoin:round;stroke-miterlimit:4;stroke-dasharray:none;stroke-opacity:1"
     d="m 4.8850293,42.483925 c -0.6511,-0.26 -0.8479,-2.568 -0.5563,-2.699 0.2907,-0.129 0.2708,0.642 0.6041,0.506 0.3334,-0.124 0.2652,-0.624 0.4948,-0.646 0.2491,-0.021 0.2344,0.583 0.5251,0.495 0.1255,-0.041 0.3495,-0.588 0.5375,-0.552 0.1666,0.036 0.3532,0.521 0.4838,0.557 0.2084,0.052 0.276,-0.557 0.4536,-0.526 0.4574,0.073 -0.2041,2.709 -0.4176,2.824 -0.312,0.161 -1.0772,0.462 -2.125,0.041 z"
     id="path395" />
  <path
     style="fill:#231f20;fill-opacity:1;fill-rule:nonzero;stroke:none"
     d="m 279.40503,72.426925 c -0.828,-1.068 -0.312,-1.918 0.672,-2.246 0.292,-0.098 0.443,-0.484 0.74,-0.557 0.682,-0.167 2.14,0.792 1.646,2.209 -0.031,0.104 -0.058,0.922 -0.167,1.531 -0.219,1.193 -1.244,3.469 -3.771,4.407 -1.197,0.448 -1.239,-0.339 -0.806,-0.667 1.358,-1.037 1.276,-1.396 1.536,-1.797 0.885,-1.359 0.15,-2.88 0.15,-2.88"
     id="path396" />
  <path
     style="fill:none;stroke:#231f20;stroke-width:0.332927;stroke-linecap:butt;stroke-linejoin:miter;stroke-miterlimit:4;stroke-dasharray:none;stroke-opacity:1"
     d="m 279.40503,72.426925 c -0.828,-1.068 -0.312,-1.918 0.672,-2.246 0.292,-0.098 0.443,-0.484 0.74,-0.557 0.682,-0.167 2.14,0.792 1.646,2.209 -0.031,0.104 -0.058,0.922 -0.167,1.531 -0.219,1.193 -1.244,3.469 -3.771,4.407 -1.197,0.448 -1.239,-0.339 -0.806,-0.667 1.358,-1.037 1.276,-1.396 1.536,-1.797 0.885,-1.359 0.15,-2.88 0.15,-2.88 z"
     id="path397" />
  <path
     style="fill:#231f20;fill-opacity:1;fill-rule:nonzero;stroke:none"
     d="m 285.80103,54.800925 c -2.093,-0.864 -2.62,-0.749 -3.041,0.11 -0.281,0.568 -0.74,1.005 -0.928,1.344 -0.629,1.136 -1.219,3.302 -1.285,9.89 -0.016,1.49 -0.048,3.588 -0.131,4.438 -0.131,1.354 2.197,0.656 2.255,0.125 0.188,-1.704 0.453,-2.86 0.6,-3.464 0.104,-0.416 0.186,-1.177 0.79,-2.724 0.923,-2.359 1.819,-3.629 2.355,-5.677 0.249,-0.948 1.036,-1.506 0.807,-2.562 -0.228,-1.062 -1.422,-1.48 -1.422,-1.48"
     id="path398" />
  <path
     style="fill:none;stroke:#231f20;stroke-width:0.565977;stroke-linecap:butt;stroke-linejoin:miter;stroke-miterlimit:4;stroke-dasharray:none;stroke-opacity:1"
     d="m 285.80103,54.800925 c -2.093,-0.864 -2.62,-0.749 -3.041,0.11 -0.281,0.568 -0.74,1.005 -0.928,1.344 -0.629,1.136 -1.219,3.302 -1.285,9.89 -0.016,1.49 -0.048,3.588 -0.131,4.438 -0.131,1.354 2.197,0.656 2.255,0.125 0.188,-1.704 0.453,-2.86 0.6,-3.464 0.104,-0.416 0.186,-1.177 0.79,-2.724 0.923,-2.359 1.819,-3.629 2.355,-5.677 0.249,-0.948 1.036,-1.506 0.807,-2.562 -0.228,-1.062 -1.422,-1.48 -1.422,-1.48 z"
     id="path399" />
  <path
     style="fill:#ca0369;fill-opacity:1;fill-rule:nonzero;stroke:none"
     d="m 289.43703,29.060925 c -0.74,3.048 -1.229,3.62 -1.781,4.355 -3.459,4.636 -1.12,6.245 1.76,6.407 3.385,0.192 4.593,0.328 5.489,-5.907 0.251,-1.729 2.068,-8.255 2.068,-8.255 0.964,-2.25 0.708,-4.958 -0.27,-6.037 -1.032,-1.135 -0.704,-0.609 -1.855,-1.489 -1.088,-0.834 -3.26,-1.099 -4.167,-0.26 -0.874,0.806 -0.525,2.437 -0.338,4.853 0.152,1.907 -0.906,6.333 -0.906,6.333"
     id="path400" />
  <path
     style="fill:none;stroke:#231f20;stroke-width:0.565977;stroke-linecap:butt;stroke-linejoin:miter;stroke-miterlimit:4;stroke-dasharray:none;stroke-opacity:1"
     d="m 289.43703,29.060925 c -0.74,3.048 -1.229,3.62 -1.781,4.355 -3.459,4.636 -1.12,6.245 1.76,6.407 3.385,0.192 4.593,0.328 5.489,-5.907 0.251,-1.729 2.068,-8.255 2.068,-8.255 0.964,-2.25 0.708,-4.958 -0.27,-6.037 -1.032,-1.135 -0.704,-0.609 -1.855,-1.489 -1.088,-0.834 -3.26,-1.099 -4.167,-0.26 -0.874,0.806 -0.525,2.437 -0.338,4.853 0.152,1.907 -0.906,6.333 -0.906,6.333 z"
     id="path401" />
  <path
     style="fill:#ffffff;fill-opacity:1;fill-rule:nonzero;stroke:none"
     d="m 297.46803,12.134925 c 0.047,-0.24 1.193,-0.318 1.197,-0.844 0.006,-0.52 -0.76,-0.729 -1.598,-2.531 l -0.006,-0.021 c -0.566,-1.339 -1.604,-2.265 -2.848,-2.375 -2.068,-0.182 -3.948,1.954 -4.193,4.765 -0.245,2.814 1.229,5.24 3.297,5.423 1.979,0.172 3.787,-1.781 4.151,-4.417"
     id="path402" />
  <path
     style="fill:none;stroke:#231f20;stroke-width:0.565977;stroke-linecap:butt;stroke-linejoin:miter;stroke-miterlimit:4;stroke-dasharray:none;stroke-opacity:1"
     d="m 297.46803,12.134925 c 0.047,-0.24 1.193,-0.318 1.197,-0.844 0.006,-0.52 -0.76,-0.729 -1.598,-2.531 l -0.006,-0.021 c -0.566,-1.339 -1.604,-2.265 -2.848,-2.375 -2.068,-0.182 -3.948,1.954 -4.193,4.765 -0.245,2.814 1.229,5.24 3.297,5.423 1.979,0.172 3.787,-1.781 4.151,-4.417 z"
     id="path403" />
  <path
     style="fill:#231f20;fill-opacity:1;fill-rule:nonzero;stroke:none"
     d="m 284.35903,56.811925 c 3.562,1.839 3.614,-2.245 3.838,-2.667 2.323,-4.437 2.375,-4.817 3.907,-8.317 2.213,-5.068 2.948,-8.876 0.38,-11.021 -1.751,-1.459 -3.38,-1.547 -4.543,-0.916 -1.28,0.697 -3.057,3.333 -1.9,5.973 l -0.24,1.697 c -0.312,1.12 -0.458,1.683 -0.656,2.22 -0.344,0.943 -0.646,1.974 -1.213,3.848 -1.005,3.323 -0.975,7.167 -0.975,7.167 -0.328,1.199 1.402,2.016 1.402,2.016"
     id="path404" />
  <path
     style="fill:none;stroke:#231f20;stroke-width:0.565977;stroke-linecap:butt;stroke-linejoin:miter;stroke-miterlimit:4;stroke-dasharray:none;stroke-opacity:1"
     d="m 284.35903,56.811925 c 3.562,1.839 3.614,-2.245 3.838,-2.667 2.323,-4.437 2.375,-4.817 3.907,-8.317 2.213,-5.068 2.948,-8.876 0.38,-11.021 -1.751,-1.459 -3.38,-1.547 -4.543,-0.916 -1.28,0.697 -3.057,3.333 -1.9,5.973 l -0.24,1.697 c -0.312,1.12 -0.458,1.683 -0.656,2.22 -0.344,0.943 -0.646,1.974 -1.213,3.848 -1.005,3.323 -0.975,7.167 -0.975,7.167 -0.328,1.199 1.402,2.016 1.402,2.016 z"
     id="path405" />
  <path
     style="fill:#ca0369;fill-opacity:1;fill-rule:nonzero;stroke:none"
     d="m 294.09303,38.587925 c -0.005,-1.557 -0.48,-2.839 -1.609,-3.787 -1.751,-1.458 -3.38,-1.536 -4.543,-0.91 -1.28,0.697 -3.057,3.333 -1.9,5.978 l 7.244,2.927 c 0.21,-0.62 0.366,-1.208 0.5,-1.776 0.043,-0.068 0.084,-0.135 0.131,-0.192 0.521,-0.615 0.407,-1.235 0.177,-2.24"
     id="path406" />
  <path
     style="fill:none;stroke:#231f20;stroke-width:0.565977;stroke-linecap:butt;stroke-linejoin:miter;stroke-miterlimit:4;stroke-dasharray:none;stroke-opacity:1"
     d="m 294.09303,38.587925 c -0.005,-1.557 -0.48,-2.839 -1.609,-3.787 -1.751,-1.458 -3.38,-1.536 -4.543,-0.91 -1.28,0.697 -3.057,3.333 -1.9,5.978 l 7.244,2.927 c 0.21,-0.62 0.366,-1.208 0.5,-1.776 0.043,-0.068 0.084,-0.135 0.131,-0.192 0.521,-0.615 0.407,-1.235 0.177,-2.24 z"
     id="path407" />
  <path
     style="fill:#231f20;fill-opacity:1;fill-rule:nonzero;stroke:none"
     d="m 288.31203,40.071925 c -0.26,-0.588 0.317,-2.453 0.167,-4.052 -0.104,-1.077 0.776,-3.683 0.593,-4.749 -0.161,-0.98 -0.151,-1.443 0.943,-1.823 0.641,-0.229 2.026,-0.251 2.218,0.223 0.448,1.105 0.428,2.053 0.188,3.094 -0.27,1.183 -1.302,4.328 -1.546,4.891 -0.61,1.396 -0.423,2.109 -0.547,2.495 -0.235,0.724 -0.568,0.812 -1.073,0.76 -0.954,-0.099 -0.943,-0.839 -0.943,-0.839"
     id="path408" />
  <path
     style="fill:none;stroke:#231f20;stroke-width:0.565977;stroke-linecap:butt;stroke-linejoin:miter;stroke-miterlimit:4;stroke-dasharray:none;stroke-opacity:1"
     d="m 288.31203,40.071925 c -0.26,-0.588 0.317,-2.453 0.167,-4.052 -0.104,-1.077 0.776,-3.683 0.593,-4.749 -0.161,-0.98 -0.151,-1.443 0.943,-1.823 0.641,-0.229 2.026,-0.251 2.218,0.223 0.448,1.105 0.428,2.053 0.188,3.094 -0.27,1.183 -1.302,4.328 -1.546,4.891 -0.61,1.396 -0.423,2.109 -0.547,2.495 -0.235,0.724 -0.568,0.812 -1.073,0.76 -0.954,-0.099 -0.943,-0.839 -0.943,-0.839 z"
     id="path409" />
  <path
     style="fill:#231f20;fill-opacity:1;fill-rule:nonzero;stroke:none"
     d="m 289.72803,31.123925 c -1.244,-0.343 -0.359,-2.176 -0.197,-2.692 0.156,-0.521 0.442,-2.052 0.516,-3.271 0.072,-1.224 0.681,-2.718 0.822,-5.037 0.072,-1.224 0.916,-2.364 2.682,-2.181 1.745,0.176 2.308,1.229 1.996,2.692 -0.314,1.464 -1.224,2.708 -1.642,4.166 -0.416,1.448 -0.708,2.964 -0.874,4.172 -0.199,1.364 -0.803,1.975 -1.26,2.094 -1.158,0.308 -2.043,0.057 -2.043,0.057"
     id="path410" />
  <path
     style="fill:none;stroke:#231f20;stroke-width:0.565977;stroke-linecap:butt;stroke-linejoin:miter;stroke-miterlimit:4;stroke-dasharray:none;stroke-opacity:1"
     d="m 289.72803,31.123925 c -1.244,-0.343 -0.359,-2.176 -0.197,-2.692 0.156,-0.521 0.442,-2.052 0.516,-3.271 0.072,-1.224 0.681,-2.718 0.822,-5.037 0.072,-1.224 0.916,-2.364 2.682,-2.181 1.745,0.176 2.308,1.229 1.996,2.692 -0.314,1.464 -1.224,2.708 -1.642,4.166 -0.416,1.448 -0.708,2.964 -0.874,4.172 -0.199,1.364 -0.803,1.975 -1.26,2.094 -1.158,0.308 -2.043,0.057 -2.043,0.057 z"
     id="path411" />
  <path
     style="fill:#ffffff;fill-opacity:1;fill-rule:nonzero;stroke:#231f20;stroke-width:0.665856;stroke-linecap:butt;stroke-linejoin:miter;stroke-miterlimit:4;stroke-dasharray:none;stroke-opacity:1"
     d="m 288.55603,32.562925 h 1.333 V 0.88592501 h -1.333 z"
     id="path412" />
  <path
     style="fill:#ffffff;fill-opacity:1;fill-rule:nonzero;stroke:none"
     d="m 285.36403,37.494925 c 0,-2.355 1.916,-4.267 4.271,-4.267 2.354,0 4.265,1.912 4.265,4.267 0,2.353 -1.911,4.27 -4.265,4.27 -2.355,0 -4.271,-1.917 -4.271,-4.27 m -1.328,0 c 0,3.088 2.511,5.598 5.599,5.598 3.088,0 5.598,-2.51 5.598,-5.598 0,-3.09 -2.51,-5.6 -5.598,-5.6 -3.088,0 -5.599,2.51 -5.599,5.6"
     id="path413" />
  <path
     style="fill:none;stroke:#231f20;stroke-width:0.665856;stroke-linecap:butt;stroke-linejoin:miter;stroke-miterlimit:4;stroke-dasharray:none;stroke-opacity:1"
     d="m 285.36403,37.494925 c 0,-2.355 1.916,-4.267 4.271,-4.267 2.354,0 4.265,1.912 4.265,4.267 0,2.353 -1.911,4.27 -4.265,4.27 -2.355,0 -4.271,-1.917 -4.271,-4.27 z m -1.328,0 c 0,3.088 2.511,5.598 5.599,5.598 3.088,0 5.598,-2.51 5.598,-5.598 0,-3.09 -2.51,-5.6 -5.598,-5.6 -3.088,0 -5.599,2.51 -5.599,5.6 z"
     id="path414" />
  <path
     style="fill:#231f20;fill-opacity:1;fill-rule:nonzero;stroke:none"
     d="m 290.16103,40.451925 c 0.583,0.396 0.291,2.688 -0.021,2.756 -0.312,0.068 -0.131,-0.683 -0.484,-0.625 -0.355,0.057 -0.391,0.557 -0.62,0.532 -0.251,-0.032 -0.109,-0.62 -0.412,-0.595 -0.129,0.011 -0.463,0.505 -0.64,0.423 -0.152,-0.068 -0.235,-0.579 -0.355,-0.647 -0.192,-0.093 -0.385,0.489 -0.552,0.423 -0.437,-0.167 0.766,-2.604 0.995,-2.672 0.344,-0.095 1.156,-0.224 2.089,0.405"
     id="path415" />
  <path
     style="fill:none;stroke:#231f20;stroke-width:0.565977;stroke-linecap:round;stroke-linejoin:round;stroke-miterlimit:4;stroke-dasharray:none;stroke-opacity:1"
     d="m 290.16103,40.451925 c 0.583,0.396 0.291,2.688 -0.021,2.756 -0.312,0.068 -0.131,-0.683 -0.484,-0.625 -0.355,0.057 -0.391,0.557 -0.62,0.532 -0.251,-0.032 -0.109,-0.62 -0.412,-0.595 -0.129,0.011 -0.463,0.505 -0.64,0.423 -0.152,-0.068 -0.235,-0.579 -0.355,-0.647 -0.192,-0.093 -0.385,0.489 -0.552,0.423 -0.437,-0.167 0.766,-2.604 0.995,-2.672 0.344,-0.095 1.156,-0.224 2.089,0.405 z"
     id="path416" />
  <path
     style="fill:#231f20;fill-opacity:1;fill-rule:nonzero;stroke:none"
     d="m 213.78003,53.352925 c 0.131,-1.349 1.084,-1.609 2.027,-1.177 0.281,0.125 0.656,-0.052 0.921,0.095 0.61,0.344 1.022,2.046 -0.306,2.738 -0.094,0.052 -0.672,0.636 -1.172,1.006 -0.975,0.718 -3.282,1.682 -5.766,0.636 -1.177,-0.49 -0.666,-1.094 -0.13,-1.036 1.702,0.17 1.885,-0.147 2.349,-0.262 1.577,-0.39 2.077,-2 2.077,-2"
     id="path417" />
  <path
     style="fill:none;stroke:#231f20;stroke-width:0.332927;stroke-linecap:butt;stroke-linejoin:miter;stroke-miterlimit:4;stroke-dasharray:none;stroke-opacity:1"
     d="m 213.78003,53.352925 c 0.131,-1.349 1.084,-1.609 2.027,-1.177 0.281,0.125 0.656,-0.052 0.921,0.095 0.61,0.344 1.022,2.046 -0.306,2.738 -0.094,0.052 -0.672,0.636 -1.172,1.006 -0.975,0.718 -3.282,1.682 -5.766,0.636 -1.177,-0.49 -0.666,-1.094 -0.13,-1.036 1.702,0.17 1.885,-0.147 2.349,-0.262 1.577,-0.39 2.077,-2 2.077,-2 z"
     id="path418" />
  <path
     style="fill:#231f20;fill-opacity:1;fill-rule:nonzero;stroke:none"
     d="m 230.50403,44.863925 c -0.942,-2.063 -1.4,-2.339 -2.301,-2 -0.595,0.219 -1.224,0.229 -1.595,0.349 -1.238,0.396 -3.145,1.572 -7.697,6.334 -1.031,1.082 -2.489,2.588 -3.131,3.156 -1.02,0.896 1.158,1.978 1.563,1.63 1.297,-1.114 2.287,-1.781 2.808,-2.12 0.353,-0.234 0.937,-0.729 2.437,-1.448 2.282,-1.089 3.807,-1.406 5.599,-2.532 0.828,-0.525 1.787,-0.39 2.344,-1.317 0.557,-0.932 -0.027,-2.052 -0.027,-2.052"
     id="path419" />
  <path
     style="fill:none;stroke:#231f20;stroke-width:0.565977;stroke-linecap:butt;stroke-linejoin:miter;stroke-miterlimit:4;stroke-dasharray:none;stroke-opacity:1"
     d="m 230.50403,44.863925 c -0.942,-2.063 -1.4,-2.339 -2.301,-2 -0.595,0.219 -1.224,0.229 -1.595,0.349 -1.238,0.396 -3.145,1.572 -7.697,6.334 -1.031,1.082 -2.489,2.588 -3.131,3.156 -1.02,0.896 1.158,1.978 1.563,1.63 1.297,-1.114 2.287,-1.781 2.808,-2.12 0.353,-0.234 0.937,-0.729 2.437,-1.448 2.282,-1.089 3.807,-1.406 5.599,-2.532 0.828,-0.525 1.787,-0.39 2.344,-1.317 0.557,-0.932 -0.027,-2.052 -0.027,-2.052 z"
     id="path420" />
  <path
     style="fill:#ca0369;fill-opacity:1;fill-rule:nonzero;stroke:none"
     d="m 250.19803,27.951925 c -2.355,2.068 -3.09,2.251 -3.964,2.537 -5.49,1.802 -4.5,4.463 -2.239,6.255 2.661,2.099 3.567,2.907 7.885,-1.677 1.198,-1.271 6.443,-5.567 6.443,-5.567 2.083,-1.281 3.427,-3.647 3.249,-5.089 -0.192,-1.52 -0.229,-0.906 -0.661,-2.287 -0.412,-1.312 -2.036,-2.776 -3.26,-2.609 -1.183,0.152 -1.833,1.688 -3.068,3.776 -0.975,1.641 -4.385,4.661 -4.385,4.661"
     id="path421" />
  <path
     style="fill:none;stroke:#231f20;stroke-width:0.565977;stroke-linecap:butt;stroke-linejoin:miter;stroke-miterlimit:4;stroke-dasharray:none;stroke-opacity:1"
     d="m 250.19803,27.951925 c -2.355,2.068 -3.09,2.251 -3.964,2.537 -5.49,1.802 -4.5,4.463 -2.239,6.255 2.661,2.099 3.567,2.907 7.885,-1.677 1.198,-1.271 6.443,-5.567 6.443,-5.567 2.083,-1.281 3.427,-3.647 3.249,-5.089 -0.192,-1.52 -0.229,-0.906 -0.661,-2.287 -0.412,-1.312 -2.036,-2.776 -3.26,-2.609 -1.183,0.152 -1.833,1.688 -3.068,3.776 -0.975,1.641 -4.385,4.661 -4.385,4.661 z"
     id="path422" />
  <path
     style="fill:#ffffff;fill-opacity:1;fill-rule:nonzero;stroke:none"
     d="m 266.22803,18.467925 c 0.178,-0.167 1.158,0.427 1.464,0 0.303,-0.427 -0.202,-1.031 0.146,-2.989 l 0.01,-0.022 c 0.303,-1.421 -0.01,-2.776 -0.968,-3.582 -1.589,-1.339 -4.349,-0.672 -6.172,1.484 -1.818,2.161 -2.005,5 -0.417,6.333 1.521,1.281 4.12,0.724 5.937,-1.224"
     id="path423" />
  <path
     style="fill:none;stroke:#231f20;stroke-width:0.565977;stroke-linecap:butt;stroke-linejoin:miter;stroke-miterlimit:4;stroke-dasharray:none;stroke-opacity:1"
     d="m 266.22803,18.467925 c 0.178,-0.167 1.158,0.427 1.464,0 0.303,-0.427 -0.202,-1.031 0.146,-2.989 l 0.01,-0.022 c 0.303,-1.421 -0.01,-2.776 -0.968,-3.582 -1.589,-1.339 -4.349,-0.672 -6.172,1.484 -1.818,2.161 -2.005,5 -0.417,6.333 1.521,1.281 4.12,0.724 5.937,-1.224 z"
     id="path424" />
  <path
     style="fill:#231f20;fill-opacity:1;fill-rule:nonzero;stroke:none"
     d="m 228.07203,45.342925 c 1.344,3.781 4.172,0.838 4.626,0.677 4.729,-1.651 5.025,-1.891 8.536,-3.401 5.078,-2.187 8.218,-4.458 7.813,-7.786 -0.276,-2.256 -1.412,-3.433 -2.688,-3.766 -1.412,-0.37 -4.511,0.338 -5.475,3.062 l -1.333,1.068 c -0.995,0.61 -1.484,0.918 -1.995,1.178 -0.894,0.453 -1.822,0.994 -3.514,1.973 -3.006,1.74 -5.615,4.568 -5.615,4.568 -1.057,0.645 -0.355,2.427 -0.355,2.427"
     id="path425" />
  <path
     style="fill:none;stroke:#231f20;stroke-width:0.565977;stroke-linecap:butt;stroke-linejoin:miter;stroke-miterlimit:4;stroke-dasharray:none;stroke-opacity:1"
     d="m 228.07203,45.342925 c 1.344,3.781 4.172,0.838 4.626,0.677 4.729,-1.651 5.025,-1.891 8.536,-3.401 5.078,-2.187 8.218,-4.458 7.813,-7.786 -0.276,-2.256 -1.412,-3.433 -2.688,-3.766 -1.412,-0.37 -4.511,0.338 -5.475,3.062 l -1.333,1.068 c -0.995,0.61 -1.484,0.918 -1.995,1.178 -0.894,0.453 -1.822,0.994 -3.514,1.973 -3.006,1.74 -5.615,4.568 -5.615,4.568 -1.057,0.645 -0.355,2.427 -0.355,2.427 z"
     id="path426" />
  <path
     style="fill:#ca0369;fill-opacity:1;fill-rule:nonzero;stroke:none"
     d="m 249.04703,34.832925 c -0.276,-2.256 -1.417,-3.433 -2.688,-3.766 -1.412,-0.37 -4.511,0.338 -5.475,3.062 l 3.282,7.09 c 0.584,-0.314 1.1,-0.636 1.584,-0.959 0.078,-0.021 0.156,-0.041 0.224,-0.047 0.801,-0.094 1.14,-0.625 1.661,-1.516 1.063,-1.14 1.593,-2.396 1.412,-3.864"
     id="path427" />
  <path
     style="fill:none;stroke:#231f20;stroke-width:0.565977;stroke-linecap:butt;stroke-linejoin:miter;stroke-miterlimit:4;stroke-dasharray:none;stroke-opacity:1"
     d="m 249.04703,34.832925 c -0.276,-2.256 -1.417,-3.433 -2.688,-3.766 -1.412,-0.37 -4.511,0.338 -5.475,3.062 l 3.282,7.09 c 0.584,-0.314 1.1,-0.636 1.584,-0.959 0.078,-0.021 0.156,-0.041 0.224,-0.047 0.801,-0.094 1.14,-0.625 1.661,-1.516 1.063,-1.14 1.593,-2.396 1.412,-3.864 z"
     id="path428" />
  <path
     style="fill:#231f20;fill-opacity:1;fill-rule:nonzero;stroke:none"
     d="m 247.73903,40.623925 c -0.093,-0.64 0.959,-2.276 1.245,-3.859 0.192,-1.068 1.739,-3.333 1.854,-4.417 0.104,-0.984 0.24,-1.427 1.39,-1.505 0.683,-0.047 2.022,0.313 2.084,0.818 0.13,1.182 -0.141,2.088 -0.65,3.031 -0.584,1.063 -2.423,3.817 -2.808,4.297 -0.964,1.178 -0.974,1.916 -1.198,2.255 -0.422,0.631 -0.766,0.625 -1.24,0.443 -0.885,-0.354 -0.677,-1.063 -0.677,-1.063"
     id="path429" />
  <path
     style="fill:none;stroke:#231f20;stroke-width:0.565977;stroke-linecap:butt;stroke-linejoin:miter;stroke-miterlimit:4;stroke-dasharray:none;stroke-opacity:1"
     d="m 247.73903,40.623925 c -0.093,-0.64 0.959,-2.276 1.245,-3.859 0.192,-1.068 1.739,-3.333 1.854,-4.417 0.104,-0.984 0.24,-1.427 1.39,-1.505 0.683,-0.047 2.022,0.313 2.084,0.818 0.13,1.182 -0.141,2.088 -0.65,3.031 -0.584,1.063 -2.423,3.817 -2.808,4.297 -0.964,1.178 -0.974,1.916 -1.198,2.255 -0.422,0.631 -0.766,0.625 -1.24,0.443 -0.885,-0.354 -0.677,-1.063 -0.677,-1.063 z"
     id="path430" />
  <path
     style="fill:#231f20;fill-opacity:1;fill-rule:nonzero;stroke:none"
     d="m 251.51003,32.384925 c -1.11,-0.661 0.234,-2.193 0.526,-2.646 0.296,-0.458 0.984,-1.854 1.38,-3.011 0.396,-1.156 1.386,-2.432 2.146,-4.635 0.396,-1.156 1.521,-2.026 3.172,-1.374 1.63,0.64 1.885,1.801 1.193,3.129 -0.693,1.324 -1.907,2.276 -2.699,3.568 -0.79,1.281 -1.478,2.672 -1.962,3.781 -0.558,1.271 -1.303,1.688 -1.776,1.683 -1.199,-0.016 -1.98,-0.495 -1.98,-0.495"
     id="path431" />
  <path
     style="fill:none;stroke:#231f20;stroke-width:0.565977;stroke-linecap:butt;stroke-linejoin:miter;stroke-miterlimit:4;stroke-dasharray:none;stroke-opacity:1"
     d="m 251.51003,32.384925 c -1.11,-0.661 0.234,-2.193 0.526,-2.646 0.296,-0.458 0.984,-1.854 1.38,-3.011 0.396,-1.156 1.386,-2.432 2.146,-4.635 0.396,-1.156 1.521,-2.026 3.172,-1.374 1.63,0.64 1.885,1.801 1.193,3.129 -0.693,1.324 -1.907,2.276 -2.699,3.568 -0.79,1.281 -1.478,2.672 -1.962,3.781 -0.558,1.271 -1.303,1.688 -1.776,1.683 -1.199,-0.016 -1.98,-0.495 -1.98,-0.495 z"
     id="path432" />
  <path
     style="fill:#ffffff;fill-opacity:1;fill-rule:nonzero;stroke:#231f20;stroke-width:0.665856;stroke-linecap:butt;stroke-linejoin:miter;stroke-miterlimit:4;stroke-dasharray:none;stroke-opacity:1"
     d="m 246.63003,32.562925 h 1.333 V 0.88592501 h -1.333 z"
     id="path433" />
  <path
     style="fill:#ffffff;fill-opacity:1;fill-rule:nonzero;stroke:none"
     d="m 243.43803,37.494925 c 0,-2.355 1.916,-4.267 4.265,-4.267 2.359,0 4.271,1.912 4.271,4.267 0,2.353 -1.912,4.27 -4.271,4.27 -2.349,0 -4.265,-1.917 -4.265,-4.27 m -1.334,0 c 0,3.088 2.515,5.598 5.599,5.598 3.088,0 5.604,-2.51 5.604,-5.598 0,-3.09 -2.516,-5.6 -5.604,-5.6 -3.084,0 -5.599,2.51 -5.599,5.6"
     id="path434" />
  <path
     style="fill:none;stroke:#231f20;stroke-width:0.665856;stroke-linecap:butt;stroke-linejoin:miter;stroke-miterlimit:4;stroke-dasharray:none;stroke-opacity:1"
     d="m 243.43803,37.494925 c 0,-2.355 1.916,-4.267 4.265,-4.267 2.359,0 4.271,1.912 4.271,4.267 0,2.353 -1.912,4.27 -4.271,4.27 -2.349,0 -4.265,-1.917 -4.265,-4.27 z m -1.334,0 c 0,3.088 2.515,5.598 5.599,5.598 3.088,0 5.604,-2.51 5.604,-5.598 0,-3.09 -2.516,-5.6 -5.604,-5.6 -3.084,0 -5.599,2.51 -5.599,5.6 z"
     id="path435" />
  <path
     style="fill:#231f20;fill-opacity:1;fill-rule:nonzero;stroke:none"
     d="m 249.52003,40.931925 c 0.631,0.307 0.683,2.62 0.38,2.729 -0.296,0.115 -0.229,-0.657 -0.568,-0.542 -0.337,0.105 -0.306,0.605 -0.536,0.614 -0.254,0 -0.197,-0.598 -0.494,-0.53 -0.126,0.03 -0.386,0.568 -0.568,0.516 -0.162,-0.043 -0.318,-0.543 -0.448,-0.584 -0.203,-0.068 -0.307,0.536 -0.484,0.494 -0.454,-0.104 0.369,-2.686 0.588,-2.786 0.329,-0.146 1.109,-0.395 2.13,0.089"
     id="path436" />
  <path
     style="fill:none;stroke:#231f20;stroke-width:0.565977;stroke-linecap:round;stroke-linejoin:round;stroke-miterlimit:4;stroke-dasharray:none;stroke-opacity:1"
     d="m 249.52003,40.931925 c 0.631,0.307 0.683,2.62 0.38,2.729 -0.296,0.115 -0.229,-0.657 -0.568,-0.542 -0.337,0.105 -0.306,0.605 -0.536,0.614 -0.254,0 -0.197,-0.598 -0.494,-0.53 -0.126,0.03 -0.386,0.568 -0.568,0.516 -0.162,-0.043 -0.318,-0.543 -0.448,-0.584 -0.203,-0.068 -0.307,0.536 -0.484,0.494 -0.454,-0.104 0.369,-2.686 0.588,-2.786 0.329,-0.146 1.109,-0.395 2.13,0.089 z"
     id="path437" />
  <path
     style="fill:#231f20;fill-opacity:1;fill-rule:nonzero;stroke:none"
     d="m 84.849029,16.442925 c 1.313,-0.339 1.885,0.468 1.802,1.5 -0.026,0.306 0.271,0.598 0.219,0.9 -0.109,0.693 -1.568,1.662 -2.677,0.652 -0.079,-0.074 -0.823,-0.418 -1.339,-0.756 -1.011,-0.672 -2.703,-2.511 -2.573,-5.203 0.057,-1.276 0.802,-1.005 0.933,-0.479 0.416,1.656 0.781,1.724 1.047,2.119 0.901,1.349 2.588,1.267 2.588,1.267"
     id="path438" />
  <path
     style="fill:none;stroke:#231f20;stroke-width:0.332927;stroke-linecap:butt;stroke-linejoin:miter;stroke-miterlimit:4;stroke-dasharray:none;stroke-opacity:1"
     d="m 84.849029,16.442925 c 1.313,-0.339 1.885,0.468 1.802,1.5 -0.026,0.306 0.271,0.598 0.219,0.9 -0.109,0.693 -1.568,1.662 -2.677,0.652 -0.079,-0.074 -0.823,-0.418 -1.339,-0.756 -1.011,-0.672 -2.703,-2.511 -2.573,-5.203 0.057,-1.276 0.802,-1.005 0.933,-0.479 0.416,1.656 0.781,1.724 1.047,2.119 0.901,1.349 2.588,1.267 2.588,1.267 z"
     id="path439" />
  <path
     style="fill:#231f20;fill-opacity:1;fill-rule:nonzero;stroke:none"
     d="m 98.547029,29.254925 c 1.615001,-1.588 1.719001,-2.115 1.094,-2.844 -0.418,-0.484 -0.636,-1.078 -0.875,-1.386 -0.797,-1.021 -2.557,-2.41 -8.589,-5.062 -1.364,-0.599 -3.282,-1.448 -4.031,-1.859 -1.193,-0.656 -1.464,1.765 -1,2.02 1.495,0.839 2.453,1.543 2.953,1.912 0.339,0.26 1.006,0.635 2.192,1.803 1.808,1.77 2.626,3.093 4.298,4.389 0.77,0.605 0.973,1.548 2.041,1.751 1.063,0.208 1.917,-0.724 1.917,-0.724"
     id="path440" />
  <path
     style="fill:none;stroke:#231f20;stroke-width:0.565977;stroke-linecap:butt;stroke-linejoin:miter;stroke-miterlimit:4;stroke-dasharray:none;stroke-opacity:1"
     d="m 98.547029,29.254925 c 1.615001,-1.588 1.719001,-2.115 1.094,-2.844 -0.418,-0.484 -0.636,-1.078 -0.875,-1.386 -0.797,-1.021 -2.557,-2.41 -8.589,-5.062 -1.364,-0.599 -3.282,-1.448 -4.031,-1.859 -1.193,-0.656 -1.464,1.765 -1,2.02 1.495,0.839 2.453,1.543 2.953,1.912 0.339,0.26 1.006,0.635 2.192,1.803 1.808,1.77 2.626,3.093 4.298,4.389 0.77,0.605 0.973,1.548 2.041,1.751 1.063,0.208 1.917,-0.724 1.917,-0.724 z"
     id="path441" />
  <path
     style="fill:#ca0369;fill-opacity:1;fill-rule:nonzero;stroke:none"
     d="m 120.04203,44.171925 c -2.104,-2.324 -2.297,-3.053 -2.6,-3.923 -1.88,-5.464 -4.525,-4.437 -6.28,-2.15 -2.063,2.697 -2.855,3.614 1.791,7.864 1.292,1.177 5.661,6.36 5.661,6.36 1.313,2.062 3.699,3.369 5.136,3.172 1.521,-0.214 0.907,-0.24 2.281,-0.694 1.302,-0.432 2.74,-2.077 2.558,-3.301 -0.172,-1.177 -1.714,-1.808 -3.823,-3.011 -1.657,-0.948 -4.724,-4.317 -4.724,-4.317"
     id="path442" />
  <path
     style="fill:none;stroke:#231f20;stroke-width:0.565977;stroke-linecap:butt;stroke-linejoin:miter;stroke-miterlimit:4;stroke-dasharray:none;stroke-opacity:1"
     d="m 120.04203,44.171925 c -2.104,-2.324 -2.297,-3.053 -2.6,-3.923 -1.88,-5.464 -4.525,-4.437 -6.28,-2.15 -2.063,2.697 -2.855,3.614 1.791,7.864 1.292,1.177 5.661,6.36 5.661,6.36 1.313,2.062 3.699,3.369 5.136,3.172 1.521,-0.214 0.907,-0.24 2.281,-0.694 1.302,-0.432 2.74,-2.077 2.558,-3.301 -0.172,-1.177 -1.714,-1.808 -3.823,-3.011 -1.657,-0.948 -4.724,-4.317 -4.724,-4.317 z"
     id="path443" />
  <path
     style="fill:#ffffff;fill-opacity:1;fill-rule:nonzero;stroke:none"
     d="m 130.76603,59.639925 c 0.192,0.141 -0.224,1.213 0.249,1.437 0.47,0.23 0.984,-0.369 2.975,-0.358 l 0.02,0.005 c 1.448,0.057 2.735,-0.48 3.365,-1.557 1.052,-1.798 -0.073,-4.407 -2.51,-5.834 -2.438,-1.428 -5.26,-1.13 -6.314,0.662 -1.004,1.713 -0.014,4.181 2.215,5.645"
     id="path444" />
  <path
     style="fill:none;stroke:#231f20;stroke-width:0.565977;stroke-linecap:butt;stroke-linejoin:miter;stroke-miterlimit:4;stroke-dasharray:none;stroke-opacity:1"
     d="m 130.76603,59.639925 c 0.192,0.141 -0.224,1.213 0.249,1.437 0.47,0.23 0.984,-0.369 2.975,-0.358 l 0.02,0.005 c 1.448,0.057 2.735,-0.48 3.365,-1.557 1.052,-1.798 -0.073,-4.407 -2.51,-5.834 -2.438,-1.428 -5.26,-1.13 -6.314,0.662 -1.004,1.713 -0.014,4.181 2.215,5.645 z"
     id="path445" />
  <path
     style="fill:#231f20;fill-opacity:1;fill-rule:nonzero;stroke:none"
     d="m 97.266029,27.134925 c -3.095,2.557 0.635,4.208 0.943,4.578 3.166001,3.88 3.494001,4.078 6.114001,6.859 3.791,4.027 7,6.199 9.984,4.683 2.026,-1.036 2.746,-2.506 2.626,-3.818 -0.136,-1.453 -1.86,-4.12 -4.751,-4.1 l -1.463,-0.885 c -0.906,-0.728 -1.365,-1.077 -1.781,-1.473 -0.735,-0.688 -1.563,-1.37 -3.063,-2.626 -2.661,-2.229 -6.204001,-3.713 -6.204001,-3.713 -0.978,-0.776 -2.405,0.495 -2.405,0.495"
     id="path446" />
  <path
     style="fill:none;stroke:#231f20;stroke-width:0.565977;stroke-linecap:butt;stroke-linejoin:miter;stroke-miterlimit:4;stroke-dasharray:none;stroke-opacity:1"
     d="m 97.266029,27.134925 c -3.095,2.557 0.635,4.208 0.943,4.578 3.166001,3.88 3.494001,4.078 6.114001,6.859 3.791,4.027 7,6.199 9.984,4.683 2.026,-1.036 2.746,-2.506 2.626,-3.818 -0.136,-1.453 -1.86,-4.12 -4.751,-4.1 l -1.463,-0.885 c -0.906,-0.728 -1.365,-1.077 -1.781,-1.473 -0.735,-0.688 -1.563,-1.37 -3.063,-2.626 -2.661,-2.229 -6.204001,-3.713 -6.204001,-3.713 -0.978,-0.776 -2.405,0.495 -2.405,0.495 z"
     id="path447" />
  <path
     style="fill:#ca0369;fill-opacity:1;fill-rule:nonzero;stroke:none"
     d="m 116.93303,39.436925 c -0.136,-1.453 -1.86,-4.125 -4.746,-4.1 l -5.546,5.511 c 0.494,0.437 0.968,0.813 1.442,1.161 0.047,0.063 0.088,0.131 0.12,0.194 0.364,0.718 0.979,0.858 1.995,1.041 1.432,0.609 2.797,0.677 4.109,0.011 2.031,-1.031 2.746,-2.506 2.626,-3.818"
     id="path448" />
  <path
     style="fill:none;stroke:#231f20;stroke-width:0.565977;stroke-linecap:butt;stroke-linejoin:miter;stroke-miterlimit:4;stroke-dasharray:none;stroke-opacity:1"
     d="m 116.93303,39.436925 c -0.136,-1.453 -1.86,-4.125 -4.746,-4.1 l -5.546,5.511 c 0.494,0.437 0.968,0.813 1.442,1.161 0.047,0.063 0.088,0.131 0.12,0.194 0.364,0.718 0.979,0.858 1.995,1.041 1.432,0.609 2.797,0.677 4.109,0.011 2.031,-1.031 2.746,-2.506 2.626,-3.818 z"
     id="path449" />
  <path
     style="fill:#231f20;fill-opacity:1;fill-rule:nonzero;stroke:none"
     d="m 115.38603,41.186925 c 0.515,-0.386 2.457,-0.239 3.984,-0.75 1.025,-0.338 3.76,-0.068 4.76,-0.48 0.923,-0.38 1.375,-0.473 1.989,0.506 0.366,0.573 0.699,1.917 0.276,2.213 -0.973,0.683 -1.896,0.876 -2.968,0.876 -1.213,0 -4.51,-0.297 -5.114,-0.407 -1.5,-0.281 -2.151,0.058 -2.552,0.022 -0.762,-0.063 -0.923,-0.371 -0.986,-0.876 -0.118,-0.948 0.611,-1.104 0.611,-1.104"
     id="path450" />
  <path
     style="fill:none;stroke:#231f20;stroke-width:0.565977;stroke-linecap:butt;stroke-linejoin:miter;stroke-miterlimit:4;stroke-dasharray:none;stroke-opacity:1"
     d="m 115.38603,41.186925 c 0.515,-0.386 2.457,-0.239 3.984,-0.75 1.025,-0.338 3.76,-0.068 4.76,-0.48 0.923,-0.38 1.375,-0.473 1.989,0.506 0.366,0.573 0.699,1.917 0.276,2.213 -0.973,0.683 -1.896,0.876 -2.968,0.876 -1.213,0 -4.51,-0.297 -5.114,-0.407 -1.5,-0.281 -2.151,0.058 -2.552,0.022 -0.762,-0.063 -0.923,-0.371 -0.986,-0.876 -0.118,-0.948 0.611,-1.104 0.611,-1.104 z"
     id="path451" />
  <path
     style="fill:#231f20;fill-opacity:1;fill-rule:nonzero;stroke:none"
     d="m 125.46903,40.275925 c 1.292,-0.048 0.994,1.968 1,2.505 0.005,0.547 0.193,2.094 0.489,3.276 0.303,1.187 0.167,2.796 0.735,5.058 0.297,1.181 -0.167,2.52 -1.907,2.885 -1.713,0.348 -2.568,-0.485 -2.708,-1.975 -0.14,-1.489 0.355,-2.948 0.312,-4.458 -0.036,-1.51 -0.224,-3.047 -0.421,-4.244 -0.224,-1.366 0.172,-2.126 0.573,-2.375 1.005,-0.647 1.927,-0.672 1.927,-0.672"
     id="path452" />
  <path
     style="fill:none;stroke:#231f20;stroke-width:0.565977;stroke-linecap:butt;stroke-linejoin:miter;stroke-miterlimit:4;stroke-dasharray:none;stroke-opacity:1"
     d="m 125.46903,40.275925 c 1.292,-0.048 0.994,1.968 1,2.505 0.005,0.547 0.193,2.094 0.489,3.276 0.303,1.187 0.167,2.796 0.735,5.058 0.297,1.181 -0.167,2.52 -1.907,2.885 -1.713,0.348 -2.568,-0.485 -2.708,-1.975 -0.14,-1.489 0.355,-2.948 0.312,-4.458 -0.036,-1.51 -0.224,-3.047 -0.421,-4.244 -0.224,-1.366 0.172,-2.126 0.573,-2.375 1.005,-0.647 1.927,-0.672 1.927,-0.672 z"
     id="path453" />
  <path
     style="fill:#ffffff;fill-opacity:1;fill-rule:nonzero;stroke:#231f20;stroke-width:0.665856;stroke-linecap:butt;stroke-linejoin:miter;stroke-miterlimit:4;stroke-dasharray:none;stroke-opacity:1"
     d="m 114.20903,0.67592501 -2.959,31.54299999 1.328,0.118 2.953,-31.53499999 z"
     id="path454" />
  <path
     style="fill:#ffffff;fill-opacity:1;fill-rule:nonzero;stroke:none"
     d="m 107.60903,36.832925 c 0.22,-2.344 2.308,-4.073 4.652,-3.854 2.344,0.218 4.068,2.306 3.848,4.65 -0.219,2.344 -2.302,4.074 -4.646,3.85 -2.344,-0.219 -4.073,-2.303 -3.854,-4.646 m -1.328,-0.125 c -0.286,3.073 1.985,5.812 5.057,6.099 3.073,0.286 5.813,-1.979 6.1,-5.052 0.285,-3.079 -1.98,-5.812 -5.057,-6.099 -3.074,-0.287 -5.808,1.979 -6.1,5.052"
     id="path455" />
  <path
     style="fill:none;stroke:#231f20;stroke-width:0.665856;stroke-linecap:butt;stroke-linejoin:miter;stroke-miterlimit:4;stroke-dasharray:none;stroke-opacity:1"
     d="m 107.60903,36.832925 c 0.22,-2.344 2.308,-4.073 4.652,-3.854 2.344,0.218 4.068,2.306 3.848,4.65 -0.219,2.344 -2.302,4.074 -4.646,3.85 -2.344,-0.219 -4.073,-2.303 -3.854,-4.646 z m -1.328,-0.125 c -0.286,3.073 1.985,5.812 5.057,6.099 3.073,0.286 5.813,-1.979 6.1,-5.052 0.285,-3.079 -1.98,-5.812 -5.057,-6.099 -3.074,-0.287 -5.808,1.979 -6.1,5.052 z"
     id="path456" />
  <path
     style="fill:#231f20;fill-opacity:1;fill-rule:nonzero;stroke:none"
     d="m 114.81803,43.171925 c -0.688,0.14 -2.12,-1.677 -1.948,-1.944 0.172,-0.271 0.577,0.387 0.787,0.089 0.208,-0.286 -0.12,-0.666 0.057,-0.812 0.192,-0.157 0.515,0.354 0.713,0.124 0.078,-0.098 -0.037,-0.681 0.14,-0.754 0.156,-0.063 0.584,0.24 0.714,0.197 0.204,-0.072 -0.078,-0.615 0.089,-0.687 0.421,-0.193 1.317,2.375 1.203,2.588 -0.172,0.308 -0.651,0.979 -1.755,1.199"
     id="path457" />
  <path
     style="fill:none;stroke:#231f20;stroke-width:0.565977;stroke-linecap:round;stroke-linejoin:round;stroke-miterlimit:4;stroke-dasharray:none;stroke-opacity:1"
     d="m 114.81803,43.171925 c -0.688,0.14 -2.12,-1.677 -1.948,-1.944 0.172,-0.271 0.577,0.387 0.787,0.089 0.208,-0.286 -0.12,-0.666 0.057,-0.812 0.192,-0.157 0.515,0.354 0.713,0.124 0.078,-0.098 -0.037,-0.681 0.14,-0.754 0.156,-0.063 0.584,0.24 0.714,0.197 0.204,-0.072 -0.078,-0.615 0.089,-0.687 0.421,-0.193 1.317,2.375 1.203,2.588 -0.172,0.308 -0.651,0.979 -1.755,1.199 z"
     id="path458" />
  <path
     style="fill:#231f20;fill-opacity:1;fill-rule:nonzero;stroke:none"
     d="m 138.69303,28.644925 c 1.078,-0.822 1.916,-0.302 2.245,0.683 0.093,0.291 0.479,0.448 0.552,0.744 0.167,0.683 -0.808,2.136 -2.219,1.636 -0.105,-0.037 -0.917,-0.063 -1.532,-0.177 -1.188,-0.224 -3.458,-1.26 -4.385,-3.792 -0.437,-1.198 0.349,-1.234 0.672,-0.802 1.031,1.364 1.391,1.282 1.787,1.542 1.358,0.896 2.88,0.166 2.88,0.166"
     id="path459" />
  <path
     style="fill:none;stroke:#231f20;stroke-width:0.332927;stroke-linecap:butt;stroke-linejoin:miter;stroke-miterlimit:4;stroke-dasharray:none;stroke-opacity:1"
     d="m 138.69303,28.644925 c 1.078,-0.822 1.916,-0.302 2.245,0.683 0.093,0.291 0.479,0.448 0.552,0.744 0.167,0.683 -0.808,2.136 -2.219,1.636 -0.105,-0.037 -0.917,-0.063 -1.532,-0.177 -1.188,-0.224 -3.458,-1.26 -4.385,-3.792 -0.437,-1.198 0.349,-1.234 0.672,-0.802 1.031,1.364 1.391,1.282 1.787,1.542 1.358,0.896 2.88,0.166 2.88,0.166 z"
     id="path460" />
  <path
     style="fill:#231f20;fill-opacity:1;fill-rule:nonzero;stroke:none"
     d="m 156.29103,35.134925 c 0.871,-2.088 0.761,-2.615 -0.099,-3.042 -0.568,-0.286 -1.005,-0.75 -1.338,-0.937 -1.135,-0.636 -3.298,-1.235 -9.88,-1.333 -1.495,-0.027 -3.588,-0.068 -4.443,-0.152 -1.349,-0.14 -0.666,2.193 -0.136,2.256 1.704,0.188 2.86,0.464 3.464,0.609 0.416,0.109 1.172,0.197 2.719,0.807 2.349,0.933 3.62,1.838 5.661,2.385 0.948,0.251 1.505,1.048 2.563,0.819 1.062,-0.224 1.489,-1.412 1.489,-1.412"
     id="path461" />
  <path
     style="fill:none;stroke:#231f20;stroke-width:0.565977;stroke-linecap:butt;stroke-linejoin:miter;stroke-miterlimit:4;stroke-dasharray:none;stroke-opacity:1"
     d="m 156.29103,35.134925 c 0.871,-2.088 0.761,-2.615 -0.099,-3.042 -0.568,-0.286 -1.005,-0.75 -1.338,-0.937 -1.135,-0.636 -3.298,-1.235 -9.88,-1.333 -1.495,-0.027 -3.588,-0.068 -4.443,-0.152 -1.349,-0.14 -0.666,2.193 -0.136,2.256 1.704,0.188 2.86,0.464 3.464,0.609 0.416,0.109 1.172,0.197 2.719,0.807 2.349,0.933 3.62,1.838 5.661,2.385 0.948,0.251 1.505,1.048 2.563,0.819 1.062,-0.224 1.489,-1.412 1.489,-1.412 z"
     id="path462" />
  <path
     style="fill:#ca0369;fill-opacity:1;fill-rule:nonzero;stroke:none"
     d="m 181.89003,40.540925 c -2.843,-1.328 -3.302,-1.922 -3.916,-2.609 -3.855,-4.303 -5.896,-2.333 -6.626,0.459 -0.858,3.285 -1.229,4.442 4.699,6.552 1.651,0.582 7.687,3.661 7.687,3.661 2.01,1.391 4.718,1.677 5.964,0.927 1.322,-0.787 0.744,-0.568 1.833,-1.522 1.036,-0.9 1.719,-2.978 1.077,-4.036 -0.613,-1.016 -2.28,-0.994 -4.692,-1.292 -1.89,-0.229 -6.026,-2.14 -6.026,-2.14"
     id="path463" />
  <path
     style="fill:none;stroke:#231f20;stroke-width:0.565977;stroke-linecap:butt;stroke-linejoin:miter;stroke-miterlimit:4;stroke-dasharray:none;stroke-opacity:1"
     d="m 181.89003,40.540925 c -2.843,-1.328 -3.302,-1.922 -3.916,-2.609 -3.855,-4.303 -5.896,-2.333 -6.626,0.459 -0.858,3.285 -1.229,4.442 4.699,6.552 1.651,0.582 7.687,3.661 7.687,3.661 2.01,1.391 4.718,1.677 5.964,0.927 1.322,-0.787 0.744,-0.568 1.833,-1.522 1.036,-0.9 1.719,-2.978 1.077,-4.036 -0.613,-1.016 -2.28,-0.994 -4.692,-1.292 -1.89,-0.229 -6.026,-2.14 -6.026,-2.14 z"
     id="path464" />
  <path
     style="fill:#ffffff;fill-opacity:1;fill-rule:nonzero;stroke:none"
     d="m 197.77503,50.628925 c 0.235,0.058 0.267,1.21 0.787,1.23 0.521,0.032 0.766,-0.724 2.6,-1.484 h 0.02 c 1.365,-0.511 2.338,-1.506 2.5,-2.746 0.276,-2.062 -1.776,-4.03 -4.578,-4.396 -2.797,-0.369 -5.286,0.995 -5.557,3.058 -0.267,1.969 1.609,3.86 4.228,4.338"
     id="path465" />
  <path
     style="fill:none;stroke:#231f20;stroke-width:0.565977;stroke-linecap:butt;stroke-linejoin:miter;stroke-miterlimit:4;stroke-dasharray:none;stroke-opacity:1"
     d="m 197.77503,50.628925 c 0.235,0.058 0.267,1.21 0.787,1.23 0.521,0.032 0.766,-0.724 2.6,-1.484 h 0.02 c 1.365,-0.511 2.338,-1.506 2.5,-2.746 0.276,-2.062 -1.776,-4.03 -4.578,-4.396 -2.797,-0.369 -5.286,0.995 -5.557,3.058 -0.267,1.969 1.609,3.86 4.228,4.338 z"
     id="path466" />
  <path
     style="fill:#231f20;fill-opacity:1;fill-rule:nonzero;stroke:none"
     d="m 154.28603,33.680925 c -1.859,3.552 2.218,3.626 2.641,3.85 4.432,2.349 4.807,2.401 8.301,3.953 5.058,2.235 8.86,2.989 11.022,0.437 1.469,-1.74 1.557,-3.374 0.937,-4.536 -0.692,-1.286 -3.317,-3.078 -5.969,-1.933 l -1.692,-0.249 c -1.12,-0.318 -1.678,-0.464 -2.219,-0.667 -0.937,-0.349 -1.969,-0.661 -3.839,-1.235 -3.317,-1.02 -7.161,-1.016 -7.161,-1.016 -1.199,-0.333 -2.021,1.396 -2.021,1.396"
     id="path467" />
  <path
     style="fill:none;stroke:#231f20;stroke-width:0.565977;stroke-linecap:butt;stroke-linejoin:miter;stroke-miterlimit:4;stroke-dasharray:none;stroke-opacity:1"
     d="m 154.28603,33.680925 c -1.859,3.552 2.218,3.626 2.641,3.85 4.432,2.349 4.807,2.401 8.301,3.953 5.058,2.235 8.86,2.989 11.022,0.437 1.469,-1.74 1.557,-3.374 0.937,-4.536 -0.692,-1.286 -3.317,-3.078 -5.969,-1.933 l -1.692,-0.249 c -1.12,-0.318 -1.678,-0.464 -2.219,-0.667 -0.937,-0.349 -1.969,-0.661 -3.839,-1.235 -3.317,-1.02 -7.161,-1.016 -7.161,-1.016 -1.199,-0.333 -2.021,1.396 -2.021,1.396 z"
     id="path468" />
  <path
     style="fill:#ca0369;fill-opacity:1;fill-rule:nonzero;stroke:none"
     d="m 177.18703,37.384925 c -0.692,-1.286 -3.317,-3.078 -5.969,-1.933 l -2.968,7.224 c 0.62,0.215 1.208,0.376 1.776,0.511 0.068,0.041 0.136,0.089 0.192,0.136 0.61,0.52 1.229,0.41 2.234,0.186 1.558,0.006 2.844,-0.462 3.798,-1.593 1.464,-1.735 1.557,-3.369 0.937,-4.531"
     id="path469" />
  <path
     style="fill:none;stroke:#231f20;stroke-width:0.565977;stroke-linecap:butt;stroke-linejoin:miter;stroke-miterlimit:4;stroke-dasharray:none;stroke-opacity:1"
     d="m 177.18703,37.384925 c -0.692,-1.286 -3.317,-3.078 -5.969,-1.933 l -2.968,7.224 c 0.62,0.215 1.208,0.376 1.776,0.511 0.068,0.041 0.136,0.089 0.192,0.136 0.61,0.52 1.229,0.41 2.234,0.186 1.558,0.006 2.844,-0.462 3.798,-1.593 1.464,-1.735 1.557,-3.369 0.937,-4.531 z"
     id="path470" />
  <path
     style="fill:#231f20;fill-opacity:1;fill-rule:nonzero;stroke:none"
     d="m 171.71403,40.712925 c 0.462,-0.448 2.41,-0.537 3.864,-1.224 0.978,-0.464 3.724,-0.526 4.666,-1.052 0.87,-0.489 1.307,-0.636 2.036,0.255 0.434,0.527 0.928,1.823 0.543,2.167 -0.885,0.797 -1.776,1.098 -2.839,1.229 -1.209,0.145 -4.516,0.249 -5.13,0.213 -1.522,-0.098 -2.126,0.323 -2.526,0.334 -0.766,0.026 -0.964,-0.26 -1.084,-0.75 -0.229,-0.928 0.47,-1.172 0.47,-1.172"
     id="path471" />
  <path
     style="fill:none;stroke:#231f20;stroke-width:0.565977;stroke-linecap:butt;stroke-linejoin:miter;stroke-miterlimit:4;stroke-dasharray:none;stroke-opacity:1"
     d="m 171.71403,40.712925 c 0.462,-0.448 2.41,-0.537 3.864,-1.224 0.978,-0.464 3.724,-0.526 4.666,-1.052 0.87,-0.489 1.307,-0.636 2.036,0.255 0.434,0.527 0.928,1.823 0.543,2.167 -0.885,0.797 -1.776,1.098 -2.839,1.229 -1.209,0.145 -4.516,0.249 -5.13,0.213 -1.522,-0.098 -2.126,0.323 -2.526,0.334 -0.766,0.026 -0.964,-0.26 -1.084,-0.75 -0.229,-0.928 0.47,-1.172 0.47,-1.172 z"
     id="path472" />
  <path
     style="fill:#231f20;fill-opacity:1;fill-rule:nonzero;stroke:none"
     d="m 180.90603,38.390925 c 0.792,-1.032 2.15,0.484 2.568,0.822 0.421,0.348 1.734,1.192 2.833,1.719 1.109,0.525 2.26,1.656 4.359,2.667 1.105,0.525 1.838,1.738 1.005,3.306 -0.828,1.547 -2.009,1.667 -3.249,0.823 -1.235,-0.843 -2.042,-2.156 -3.235,-3.088 -1.183,-0.932 -2.484,-1.776 -3.531,-2.385 -1.193,-0.698 -1.526,-1.484 -1.464,-1.959 0.146,-1.187 0.714,-1.905 0.714,-1.905"
     id="path473" />
  <path
     style="fill:none;stroke:#231f20;stroke-width:0.565977;stroke-linecap:butt;stroke-linejoin:miter;stroke-miterlimit:4;stroke-dasharray:none;stroke-opacity:1"
     d="m 180.90603,38.390925 c 0.792,-1.032 2.15,0.484 2.568,0.822 0.421,0.348 1.734,1.192 2.833,1.719 1.109,0.525 2.26,1.656 4.359,2.667 1.105,0.525 1.838,1.738 1.005,3.306 -0.828,1.547 -2.009,1.667 -3.249,0.823 -1.235,-0.843 -2.042,-2.156 -3.235,-3.088 -1.183,-0.932 -2.484,-1.776 -3.531,-2.385 -1.193,-0.698 -1.526,-1.484 -1.464,-1.959 0.146,-1.187 0.714,-1.905 0.714,-1.905 z"
     id="path474" />
  <path
     style="fill:#ffffff;fill-opacity:1;fill-rule:nonzero;stroke:#231f20;stroke-width:0.665856;stroke-linecap:butt;stroke-linejoin:miter;stroke-miterlimit:4;stroke-dasharray:none;stroke-opacity:1"
     d="m 167.40003,0.33392501 -0.088,31.67499999 1.334,0.006 0.088,-31.67699999 z"
     id="path475" />
  <path
     style="fill:#ffffff;fill-opacity:1;fill-rule:nonzero;stroke:none"
     d="m 164.10403,36.936925 c 0.01,-2.354 1.927,-4.266 4.282,-4.261 2.353,0.011 4.265,1.933 4.26,4.287 -0.011,2.354 -1.927,4.261 -4.287,4.256 -2.349,-0.011 -4.26,-1.928 -4.255,-4.282 m -1.333,-0.005 c -0.005,3.088 2.5,5.609 5.588,5.615 3.088,0.01 5.604,-2.495 5.615,-5.584 0.01,-3.088 -2.495,-5.604 -5.584,-5.615 -3.088,-0.011 -5.61,2.495 -5.619,5.584"
     id="path476" />
  <path
     style="fill:none;stroke:#231f20;stroke-width:0.665856;stroke-linecap:butt;stroke-linejoin:miter;stroke-miterlimit:4;stroke-dasharray:none;stroke-opacity:1"
     d="m 164.10403,36.936925 c 0.01,-2.354 1.927,-4.266 4.282,-4.261 2.353,0.011 4.265,1.933 4.26,4.287 -0.011,2.354 -1.927,4.261 -4.287,4.256 -2.349,-0.011 -4.26,-1.928 -4.255,-4.282 z m -1.333,-0.005 c -0.005,3.088 2.5,5.609 5.588,5.615 3.088,0.01 5.604,-2.495 5.615,-5.584 0.01,-3.088 -2.495,-5.604 -5.584,-5.615 -3.088,-0.011 -5.61,2.495 -5.619,5.584 z"
     id="path477" />
  <path
     style="fill:#231f20;fill-opacity:1;fill-rule:nonzero;stroke:none"
     d="m 171.39003,42.754925 c -0.662,0.218 -2.307,-1.412 -2.167,-1.694 0.136,-0.29 0.62,0.308 0.787,-0.004 0.172,-0.318 -0.198,-0.652 -0.036,-0.818 0.172,-0.178 0.552,0.292 0.718,0.037 0.068,-0.109 -0.114,-0.672 0.052,-0.767 0.146,-0.077 0.61,0.167 0.73,0.115 0.192,-0.099 -0.151,-0.609 0.005,-0.697 0.401,-0.24 1.599,2.197 1.511,2.421 -0.136,0.328 -0.527,1.052 -1.6,1.407"
     id="path478" />
  <path
     style="fill:none;stroke:#231f20;stroke-width:0.565977;stroke-linecap:round;stroke-linejoin:round;stroke-miterlimit:4;stroke-dasharray:none;stroke-opacity:1"
     d="m 171.39003,42.754925 c -0.662,0.218 -2.307,-1.412 -2.167,-1.694 0.136,-0.29 0.62,0.308 0.787,-0.004 0.172,-0.318 -0.198,-0.652 -0.036,-0.818 0.172,-0.178 0.552,0.292 0.718,0.037 0.068,-0.109 -0.114,-0.672 0.052,-0.767 0.146,-0.077 0.61,0.167 0.73,0.115 0.192,-0.099 -0.151,-0.609 0.005,-0.697 0.401,-0.24 1.599,2.197 1.511,2.421 -0.136,0.328 -0.527,1.052 -1.6,1.407 z"
     id="path479" />
  <path
     style="fill:#ca0369;fill-opacity:1;fill-rule:nonzero;stroke:none"
     d="m 65.547029,64.207925 c 3.245,-1.344 4.058,-1.88 5.067,-2.407 5.12,-2.682 4.907,-3.953 3.891,-6.125 -1.443,-3.067 -2.526,-4.609 -7.943,-1.4 -4.109,2.437 -7.509,3.661 -7.509,3.661 -1.865,0.13 -5.063,1.776 -5.465,2.594 -0.682,1.374 -0.505,1.13 -0.479,2.578 0.043,2.676 1.109,3.224 2.281,3.432 1.172,0.203 2.193,0.031 4.907,-0.708 2.098,-0.573 5.25,-1.625 5.25,-1.625"
     id="path480" />
  <path
     style="fill:none;stroke:#231f20;stroke-width:0.565977;stroke-linecap:butt;stroke-linejoin:miter;stroke-miterlimit:4;stroke-dasharray:none;stroke-opacity:1"
     d="m 65.547029,64.207925 c 3.245,-1.344 4.058,-1.88 5.067,-2.407 5.12,-2.682 4.907,-3.953 3.891,-6.125 -1.443,-3.067 -2.526,-4.609 -7.943,-1.4 -4.109,2.437 -7.509,3.661 -7.509,3.661 -1.865,0.13 -5.063,1.776 -5.465,2.594 -0.682,1.374 -0.505,1.13 -0.479,2.578 0.043,2.676 1.109,3.224 2.281,3.432 1.172,0.203 2.193,0.031 4.907,-0.708 2.098,-0.573 5.25,-1.625 5.25,-1.625 z"
     id="path481" />
  <path
     style="fill:#231f20;fill-opacity:1;fill-rule:nonzero;stroke:none"
     d="m 35.145829,58.628925 c 0.7246,-1.14 1.6923,-0.937 2.3334,-0.124 0.1922,0.239 0.6093,0.25 0.776,0.504 0.3906,0.59 -0.0156,2.282 -1.5214,2.303 -0.1036,0.005 -0.8848,0.255 -1.4942,0.359 -1.1974,0.188 -3.688,0 -5.4271,-2.062 -0.8224,-0.98 -0.0932,-1.281 0.359,-0.99 1.4374,0.938 1.7451,0.734 2.2145,0.838 1.5776,0.376 2.7598,-0.828 2.7598,-0.828"
     id="path482" />
  <path
     style="fill:none;stroke:#231f20;stroke-width:0.332927;stroke-linecap:butt;stroke-linejoin:miter;stroke-miterlimit:4;stroke-dasharray:none;stroke-opacity:1"
     d="m 35.145829,58.628925 c 0.7246,-1.14 1.6923,-0.937 2.3334,-0.124 0.1922,0.239 0.6093,0.25 0.776,0.504 0.3906,0.59 -0.0156,2.282 -1.5214,2.303 -0.1036,0.005 -0.8848,0.255 -1.4942,0.359 -1.1974,0.188 -3.688,0 -5.4271,-2.062 -0.8224,-0.98 -0.0932,-1.281 0.359,-0.99 1.4374,0.938 1.7451,0.734 2.2145,0.838 1.5776,0.376 2.7598,-0.828 2.7598,-0.828 z"
     id="path483" />
  <path
     style="fill:#231f20;fill-opacity:1;fill-rule:nonzero;stroke:none"
     d="m 53.890029,58.691925 c 0.109,-2.265 -0.171,-2.719 -1.129,-2.828 -0.631,-0.073 -1.194,-0.355 -1.579,-0.421 -1.282,-0.21 -3.52,-0.027 -9.7398,2.134 -1.4052,0.495 -3.3896,1.172 -4.224,1.386 -1.3177,0.328 0.1308,2.286 0.6464,2.161 1.6667,-0.4 2.8443,-0.547 3.464,-0.609 0.4266,-0.042 1.1667,-0.224 2.8334,-0.178 2.526,0.068 4.031,0.486 6.135,0.298 0.979,-0.088 1.77,0.469 2.688,-0.11 0.921,-0.573 0.905,-1.833 0.905,-1.833"
     id="path484" />
  <path
     style="fill:none;stroke:#231f20;stroke-width:0.565977;stroke-linecap:butt;stroke-linejoin:miter;stroke-miterlimit:4;stroke-dasharray:none;stroke-opacity:1"
     d="m 53.890029,58.691925 c 0.109,-2.265 -0.171,-2.719 -1.129,-2.828 -0.631,-0.073 -1.194,-0.355 -1.579,-0.421 -1.282,-0.21 -3.52,-0.027 -9.7398,2.134 -1.4052,0.495 -3.3896,1.172 -4.224,1.386 -1.3177,0.328 0.1308,2.286 0.6464,2.161 1.6667,-0.4 2.8443,-0.547 3.464,-0.609 0.4266,-0.042 1.1667,-0.224 2.8334,-0.178 2.526,0.068 4.031,0.486 6.135,0.298 0.979,-0.088 1.77,0.469 2.688,-0.11 0.921,-0.573 0.905,-1.833 0.905,-1.833 z"
     id="path485" />
  <path
     style="fill:#ffffff;fill-opacity:1;fill-rule:nonzero;stroke:none"
     d="m 46.333029,62.868925 c -0.234,0.074 -0.859,-0.89 -1.317,-0.636 -0.464,0.256 -0.271,1.016 -1.4379,2.626 l -0.0161,0.016 c -0.8906,1.156 -1.1974,2.505 -0.6864,3.65 0.8478,1.896 3.6234,2.495 6.2024,1.344 2.579,-1.156 3.979,-3.625 3.131,-5.526 -0.814,-1.812 -3.397,-2.438 -5.876,-1.474"
     id="path486" />
  <path
     style="fill:none;stroke:#231f20;stroke-width:0.565977;stroke-linecap:butt;stroke-linejoin:miter;stroke-miterlimit:4;stroke-dasharray:none;stroke-opacity:1"
     d="m 46.333029,62.868925 c -0.234,0.074 -0.859,-0.89 -1.317,-0.636 -0.464,0.256 -0.271,1.016 -1.4379,2.626 l -0.0161,0.016 c -0.8906,1.156 -1.1974,2.505 -0.6864,3.65 0.8478,1.896 3.6234,2.495 6.2024,1.344 2.579,-1.156 3.979,-3.625 3.131,-5.526 -0.814,-1.812 -3.397,-2.438 -5.876,-1.474 z"
     id="path487" />
  <path
     style="fill:#231f20;fill-opacity:1;fill-rule:nonzero;stroke:none"
     d="m 51.521029,58.008925 c -0.531,3.98 3.328,2.647 3.797,2.715 4.968,0.676 5.344,0.604 9.156,0.859 5.511,0.369 9.349,-0.224 10.5,-3.37 0.776,-2.13 0.307,-3.704 -0.677,-4.578 -1.088,-0.968 -4.167,-1.755 -6.271,0.234 l -1.677,0.339 c -1.156,0.088 -1.73,0.145 -2.307,0.14 -1.005,0 -2.073,0.052 -4.026,0.157 -3.469,0.176 -7.078,1.504 -7.078,1.504 -1.24,0.095 -1.417,2 -1.417,2"
     id="path488" />
  <path
     style="fill:none;stroke:#231f20;stroke-width:0.565977;stroke-linecap:butt;stroke-linejoin:miter;stroke-miterlimit:4;stroke-dasharray:none;stroke-opacity:1"
     d="m 51.521029,58.008925 c -0.531,3.98 3.328,2.647 3.797,2.715 4.968,0.676 5.344,0.604 9.156,0.859 5.511,0.369 9.349,-0.224 10.5,-3.37 0.776,-2.13 0.307,-3.704 -0.677,-4.578 -1.088,-0.968 -4.167,-1.755 -6.271,0.234 l -1.677,0.339 c -1.156,0.088 -1.73,0.145 -2.307,0.14 -1.005,0 -2.073,0.052 -4.026,0.157 -3.469,0.176 -7.078,1.504 -7.078,1.504 -1.24,0.095 -1.417,2 -1.417,2 z"
     id="path489" />
  <path
     style="fill:#ca0369;fill-opacity:1;fill-rule:nonzero;stroke:none"
     d="m 73.573029,52.655925 c -1.287,-0.699 -4.464,-0.761 -6.052,1.651 l 1.478,7.677 c 0.344,-0.093 0.667,-0.193 0.991,-0.292 0.359,-0.057 0.739,-0.135 1.005,-0.255 0.162,-0.068 1.067,-0.333 1.89,-1.01 1.36,-0.86 2.209,-1.97 2.39,-3.47 0.272,-2.254 -0.546,-3.672 -1.702,-4.301"
     id="path490" />
  <path
     style="fill:none;stroke:#231f20;stroke-width:0.565977;stroke-linecap:butt;stroke-linejoin:miter;stroke-miterlimit:4;stroke-dasharray:none;stroke-opacity:1"
     d="m 73.573029,52.655925 c -1.287,-0.699 -4.464,-0.761 -6.052,1.651 l 1.478,7.677 c 0.344,-0.093 0.667,-0.193 0.991,-0.292 0.359,-0.057 0.739,-0.135 1.005,-0.255 0.162,-0.068 1.067,-0.333 1.89,-1.01 1.36,-0.86 2.209,-1.97 2.39,-3.47 0.272,-2.254 -0.546,-3.672 -1.702,-4.301 z"
     id="path491" />
  <path
     style="fill:#231f20;fill-opacity:1;fill-rule:nonzero;stroke:none"
     d="m 56.776029,43.259925 c 0.381,0.521 0.229,2.459 0.723,3.989 0.339,1.032 0.048,3.76 0.459,4.766 0.371,0.922 0.459,1.376 -0.52,1.985 -0.579,0.364 -1.922,0.681 -2.215,0.265 -0.676,-0.98 -0.869,-1.906 -0.858,-2.974 0.011,-1.219 0.323,-4.515 0.437,-5.115 0.292,-1.495 -0.047,-2.151 -0.01,-2.557 0.073,-0.755 0.385,-0.911 0.879,-0.974 0.954,-0.109 1.105,0.615 1.105,0.615"
     id="path492" />
  <path
     style="fill:none;stroke:#231f20;stroke-width:0.565977;stroke-linecap:butt;stroke-linejoin:miter;stroke-miterlimit:4;stroke-dasharray:none;stroke-opacity:1"
     d="m 56.776029,43.259925 c 0.381,0.521 0.229,2.459 0.723,3.989 0.339,1.032 0.048,3.76 0.459,4.766 0.371,0.922 0.459,1.376 -0.52,1.985 -0.579,0.364 -1.922,0.681 -2.215,0.265 -0.676,-0.98 -0.869,-1.906 -0.858,-2.974 0.011,-1.219 0.323,-4.515 0.437,-5.115 0.292,-1.495 -0.047,-2.151 -0.01,-2.557 0.073,-0.755 0.385,-0.911 0.879,-0.974 0.954,-0.109 1.105,0.615 1.105,0.615 z"
     id="path493" />
  <path
     style="fill:#231f20;fill-opacity:1;fill-rule:nonzero;stroke:none"
     d="m 57.349029,52.300925 c 1.292,0.063 0.822,2.042 0.786,2.584 -0.047,0.542 0.011,2.099 0.203,3.302 0.199,1.208 -0.072,2.802 0.303,5.098 0.192,1.21 -0.375,2.506 -2.142,2.715 -1.744,0.203 -2.514,-0.699 -2.53,-2.193 -0.022,-1.495 0.598,-2.912 0.688,-4.422 0.088,-1.505 0.041,-3.052 -0.058,-4.261 -0.109,-1.38 0.348,-2.099 0.777,-2.323 1.057,-0.552 1.973,-0.5 1.973,-0.5"
     id="path494" />
  <path
     style="fill:none;stroke:#231f20;stroke-width:0.565977;stroke-linecap:butt;stroke-linejoin:miter;stroke-miterlimit:4;stroke-dasharray:none;stroke-opacity:1"
     d="m 57.349029,52.300925 c 1.292,0.063 0.822,2.042 0.786,2.584 -0.047,0.542 0.011,2.099 0.203,3.302 0.199,1.208 -0.072,2.802 0.303,5.098 0.192,1.21 -0.375,2.506 -2.142,2.715 -1.744,0.203 -2.514,-0.699 -2.53,-2.193 -0.022,-1.495 0.598,-2.912 0.688,-4.422 0.088,-1.505 0.041,-3.052 -0.058,-4.261 -0.109,-1.38 0.348,-2.099 0.777,-2.323 1.057,-0.552 1.973,-0.5 1.973,-0.5 z"
     id="path495" />
  <path
     style="fill:#ffffff;fill-opacity:1;fill-rule:nonzero;stroke:#231f20;stroke-width:0.665856;stroke-linecap:butt;stroke-linejoin:miter;stroke-miterlimit:4;stroke-dasharray:none;stroke-opacity:1"
     d="m 55.588029,0.65092501 0.058,31.67699999 1.333,-0.005 -0.062,-31.67199999 z"
     id="path496" />
  <path
     style="fill:#ffffff;fill-opacity:1;fill-rule:nonzero;stroke:none"
     d="m 52.053029,37.270925 c 0,-2.355 1.905,-4.276 4.259,-4.276 2.354,-0.006 4.276,1.905 4.282,4.26 0.005,2.349 -1.912,4.27 -4.265,4.276 -2.35,0.005 -4.272,-1.907 -4.276,-4.26 m -1.33,0 c 0.006,3.088 2.522,5.598 5.61,5.588 3.089,-0.006 5.595,-2.522 5.589,-5.61 -0.005,-3.088 -2.522,-5.593 -5.61,-5.588 -3.089,0.006 -5.593,2.52 -5.589,5.61"
     id="path497" />
  <path
     style="fill:none;stroke:#231f20;stroke-width:0.665856;stroke-linecap:butt;stroke-linejoin:miter;stroke-miterlimit:4;stroke-dasharray:none;stroke-opacity:1"
     d="m 52.053029,37.270925 c 0,-2.355 1.905,-4.276 4.259,-4.276 2.354,-0.006 4.276,1.905 4.282,4.26 0.005,2.349 -1.912,4.27 -4.265,4.276 -2.35,0.005 -4.272,-1.907 -4.276,-4.26 z m -1.33,0 c 0.006,3.088 2.522,5.598 5.61,5.588 3.089,-0.006 5.595,-2.522 5.589,-5.61 -0.005,-3.088 -2.522,-5.593 -5.61,-5.588 -3.089,0.006 -5.593,2.52 -5.589,5.61 z"
     id="path498" />
  <path
     style="fill:#231f20;fill-opacity:1;fill-rule:nonzero;stroke:none"
     d="m 54.890029,43.290925 c -0.65,-0.255 -0.869,-2.558 -0.583,-2.692 0.292,-0.131 0.281,0.634 0.615,0.5 0.328,-0.131 0.26,-0.626 0.489,-0.647 0.246,-0.031 0.241,0.573 0.531,0.485 0.12,-0.037 0.339,-0.589 0.527,-0.552 0.161,0.031 0.36,0.515 0.489,0.547 0.208,0.057 0.271,-0.552 0.448,-0.527 0.464,0.074 -0.177,2.71 -0.39,2.823 -0.312,0.167 -1.078,0.475 -2.126,0.063"
     id="path499" />
  <path
     style="fill:none;stroke:#231f20;stroke-width:0.565977;stroke-linecap:round;stroke-linejoin:round;stroke-miterlimit:4;stroke-dasharray:none;stroke-opacity:1"
     d="m 54.890029,43.290925 c -0.65,-0.255 -0.869,-2.558 -0.583,-2.692 0.292,-0.131 0.281,0.634 0.615,0.5 0.328,-0.131 0.26,-0.626 0.489,-0.647 0.246,-0.031 0.241,0.573 0.531,0.485 0.12,-0.037 0.339,-0.589 0.527,-0.552 0.161,0.031 0.36,0.515 0.489,0.547 0.208,0.057 0.271,-0.552 0.448,-0.527 0.464,0.074 -0.177,2.71 -0.39,2.823 -0.312,0.167 -1.078,0.475 -2.126,0.063 z"
     id="path500" />
  <path
     style="fill:none;stroke:#231f20;stroke-width:0.399514;stroke-linecap:butt;stroke-linejoin:miter;stroke-miterlimit:4;stroke-dasharray:none;stroke-opacity:1"
     d="m 33.594229,42.180925 c 1.0719,4.052 -0.6358,11.912 -0.6358,11.912 6.4942,-7.13 8.5,-10.365 10.1718,-17.349"
     id="path501" />
  <path
     style="fill:#231f20;fill-opacity:1;fill-rule:nonzero;stroke:none"
     d="m 43.406229,35.571925 c 0.0787,0.604 0.2599,1.371 0.5319,1.885 l -0.8439,-0.557 -1.0057,0.115 c 0.4683,-0.339 0.9844,-0.938 1.3177,-1.443"
     id="path502" />
</svg>
