<?xml version="1.0" encoding="UTF-8" standalone="no"?>
<!-- Created with Inkscape (http://www.inkscape.org/) -->

<svg
   version="1.1"
   id="svg1"
   width="360.46698"
   height="166.90953"
   viewBox="0 0 360.46697 166.90953"
   sodipodi:docname="cell.svg"
   xmlns:inkscape="http://www.inkscape.org/namespaces/inkscape"
   xmlns:sodipodi="http://sodipodi.sourceforge.net/DTD/sodipodi-0.dtd"
   xmlns="http://www.w3.org/2000/svg"
   xmlns:svg="http://www.w3.org/2000/svg">
  <sodipodi:namedview
     id="namedview1"
     pagecolor="#ffffff"
     bordercolor="#000000"
     borderopacity="0.25"
     inkscape:showpageshadow="2"
     inkscape:pageopacity="0.0"
     inkscape:pagecheckerboard="0"
     inkscape:deskcolor="#d1d1d1">
    <inkscape:page
       x="1.7388821e-14"
       y="0"
       inkscape:label="1"
       id="page1"
       width="360.46698"
       height="166.90953"
       margin="0"
       bleed="0" />
  </sodipodi:namedview>
  <defs
     id="defs1" />
  <path
     style="fill:#ffffff;fill-opacity:1;fill-rule:nonzero;stroke:none"
     d="M 0,18.874 H 18.875 V 0 H 0 Z"
     id="path569" />
  <path
     style="fill:#ffffff;fill-opacity:1;fill-rule:nonzero;stroke:none"
     d="m 343.541,18.874 h 16.926 V 0 h -16.926 z"
     id="path570" />
  <path
     style="fill:#231f20;fill-opacity:1;fill-rule:nonzero;stroke:#231f20;stroke-width:0.565977;stroke-linecap:round;stroke-linejoin:round;stroke-miterlimit:4;stroke-dasharray:none;stroke-opacity:1"
     d="m 314.62,54.406 c 0,0 1.176,-0.598 2.338,-0.584 1.167,0.022 2.406,0.558 2.406,0.558 v 3.297 h -4.787 z"
     id="path571" />
  <path
     style="fill:#231f20;fill-opacity:1;fill-rule:nonzero;stroke:none"
     d="m 320.197,71.172 c 3.568,0.494 3.021,2.082 3.464,6.14 0.489,4.433 0.521,9.11 -0.417,12.276 -1.052,3.532 -0.63,3.838 -2.51,4.229 -1.876,0.396 -2.057,-0.364 -3.021,-1.213 -1.12,-0.99 0.615,-8.135 -0.073,-12.839 -0.323,-2.208 -2.52,-7.276 -1.172,-7.812 1.354,-0.536 3.729,-0.781 3.729,-0.781"
     id="path572" />
  <path
     style="fill:none;stroke:#231f20;stroke-width:0.565977;stroke-linecap:butt;stroke-linejoin:miter;stroke-miterlimit:4;stroke-dasharray:none;stroke-opacity:1"
     d="m 320.197,71.172 c 3.568,0.494 3.021,2.082 3.464,6.14 0.489,4.433 0.521,9.11 -0.417,12.276 -1.052,3.532 -0.63,3.838 -2.51,4.229 -1.876,0.396 -2.057,-0.364 -3.021,-1.213 -1.12,-0.99 0.615,-8.135 -0.073,-12.839 -0.323,-2.208 -2.52,-7.276 -1.172,-7.812 1.354,-0.536 3.729,-0.781 3.729,-0.781 z"
     id="path573" />
  <path
     style="fill:#231f20;fill-opacity:1;fill-rule:nonzero;stroke:none"
     d="m 319.672,91.833 c 2.254,-0.208 2.91,-0.301 2.738,2.199 -0.041,0.634 -0.29,2.39 -0.208,2.776 0.266,1.27 0.464,2.765 -1.416,9.071 -0.292,0.986 -0.526,2.943 -0.808,4.319 -0.276,1.328 -2.296,-0.027 -2.192,-0.553 0.323,-1.682 0.167,-2.834 0.203,-3.452 0.027,-0.428 0.203,-1.219 -0.109,-2.85 -0.812,-4.202 0.38,-5.546 0.281,-6.442 -0.265,-2.573 -1.027,-4.708 -0.432,-5.016 0.968,-0.495 1.943,-0.052 1.943,-0.052"
     id="path574" />
  <path
     style="fill:none;stroke:#231f20;stroke-width:0.565977;stroke-linecap:butt;stroke-linejoin:miter;stroke-miterlimit:4;stroke-dasharray:none;stroke-opacity:1"
     d="m 319.672,91.833 c 2.254,-0.208 2.91,-0.301 2.738,2.199 -0.041,0.634 -0.29,2.39 -0.208,2.776 0.266,1.27 0.464,2.765 -1.416,9.071 -0.292,0.986 -0.526,2.943 -0.808,4.319 -0.276,1.328 -2.296,-0.027 -2.192,-0.553 0.323,-1.682 0.167,-2.834 0.203,-3.452 0.027,-0.428 0.203,-1.219 -0.109,-2.85 -0.812,-4.202 0.38,-5.546 0.281,-6.442 -0.265,-2.573 -1.027,-4.708 -0.432,-5.016 0.968,-0.495 1.943,-0.052 1.943,-0.052 z"
     id="path575" />
  <path
     style="fill:#231f20;fill-opacity:1;fill-rule:nonzero;stroke:none"
     d="m 313.984,71.292 c -3.568,0.5 -3.016,2.088 -3.459,6.14 -0.489,4.433 -0.52,9.109 0.417,12.276 1.052,3.532 0.631,3.844 2.511,4.234 1.875,0.391 2.057,-0.369 3.02,-1.224 1.12,-0.984 -0.615,-8.13 0.073,-12.833 0.318,-2.203 2.516,-7.276 1.167,-7.812 -1.349,-0.537 -3.729,-0.781 -3.729,-0.781"
     id="path576" />
  <path
     style="fill:none;stroke:#231f20;stroke-width:0.565977;stroke-linecap:butt;stroke-linejoin:miter;stroke-miterlimit:4;stroke-dasharray:none;stroke-opacity:1"
     d="m 313.984,71.292 c -3.568,0.5 -3.016,2.088 -3.459,6.14 -0.489,4.433 -0.52,9.109 0.417,12.276 1.052,3.532 0.631,3.844 2.511,4.234 1.875,0.391 2.057,-0.369 3.02,-1.224 1.12,-0.984 -0.615,-8.13 0.073,-12.833 0.318,-2.203 2.516,-7.276 1.167,-7.812 -1.349,-0.537 -3.729,-0.781 -3.729,-0.781 z"
     id="path577" />
  <path
     style="fill:#ca0369;fill-opacity:1;fill-rule:nonzero;stroke:none"
     d="m 317.016,79.437 c 0.494,0 1.104,-0.432 1.104,-0.432 0,0 0.708,-5.803 3.432,-7.307 l 0.358,-0.016 c 0.902,0.864 -0.41,-1.156 -0.394,-1.901 0.057,-3.249 1.394,-8.177 2.057,-9.339 0.9,-1.593 3.473,-2.104 2.416,-3.989 0,0 -0.615,-1.844 -3.401,-1.484 -1.011,0.129 -3.224,-0.589 -3.224,-0.589 0.01,0.042 0.021,0.084 0.021,0.12 0,1.256 -1.068,1.969 -2.407,1.989 h 0.074 c -1.339,-0.02 -2.402,-0.796 -2.402,-1.989 0,-0.036 0.006,-0.078 0.016,-0.12 0,0 -2.213,0.718 -3.224,0.589 -2.786,-0.36 -3.338,1.755 -3.338,1.755 -1.063,1.89 1.453,2.125 2.358,3.718 0.658,1.162 1.996,6.09 2.054,9.339 0.014,0.745 -1.298,2.765 -0.391,1.901 l 0.359,0.016 c 2.718,1.504 3.426,7.307 3.426,7.307 0,0 0.61,0.432 1.106,0.432"
     id="path578" />
  <path
     style="fill:none;stroke:#231f20;stroke-width:0.565977;stroke-linecap:butt;stroke-linejoin:miter;stroke-miterlimit:4;stroke-dasharray:none;stroke-opacity:1"
     d="m 317.016,79.437 c 0.494,0 1.104,-0.432 1.104,-0.432 0,0 0.708,-5.803 3.432,-7.307 l 0.358,-0.016 c 0.902,0.864 -0.41,-1.156 -0.394,-1.901 0.057,-3.249 1.394,-8.177 2.057,-9.339 0.9,-1.593 3.473,-2.104 2.416,-3.989 0,0 -0.615,-1.844 -3.401,-1.484 -1.011,0.129 -3.224,-0.589 -3.224,-0.589 0.01,0.042 0.021,0.084 0.021,0.12 0,1.256 -1.068,1.969 -2.407,1.989 h 0.074 c -1.339,-0.02 -2.402,-0.796 -2.402,-1.989 0,-0.036 0.006,-0.078 0.016,-0.12 0,0 -2.213,0.718 -3.224,0.589 -2.786,-0.36 -3.338,1.755 -3.338,1.755 -1.063,1.89 1.453,2.125 2.358,3.718 0.658,1.162 1.996,6.09 2.054,9.339 0.014,0.745 -1.298,2.765 -0.391,1.901 l 0.359,0.016 c 2.718,1.504 3.426,7.307 3.426,7.307 0,0 0.61,0.432 1.106,0.432 z"
     id="path579" />
  <path
     style="fill:#ffffff;fill-opacity:1;fill-rule:nonzero;stroke:none"
     d="m 313.276,48.896 c -0.006,2.822 1.672,5.114 3.749,5.12 2.073,0.005 3.767,-2.282 3.771,-5.104 0.005,-2.828 -1.671,-5.12 -3.75,-5.126 -2.073,-0.005 -3.765,2.282 -3.77,5.11"
     id="path580" />
  <path
     style="fill:none;stroke:#231f20;stroke-width:0.565977;stroke-linecap:butt;stroke-linejoin:miter;stroke-miterlimit:4;stroke-dasharray:none;stroke-opacity:1"
     d="m 313.276,48.896 c -0.006,2.822 1.672,5.114 3.749,5.12 2.073,0.005 3.767,-2.282 3.771,-5.104 0.005,-2.828 -1.671,-5.12 -3.75,-5.126 -2.073,-0.005 -3.765,2.282 -3.77,5.11 z"
     id="path581" />
  <path
     style="fill:#231f20;fill-opacity:1;fill-rule:nonzero;stroke:none"
     d="m 314.494,91.937 c -2.254,-0.192 -2.912,-0.276 -2.729,2.219 0.047,0.636 0.308,2.39 0.224,2.77 -0.255,1.276 -0.448,2.772 1.469,9.068 0.296,0.98 0.542,2.943 0.834,4.313 0.281,1.328 2.29,-0.037 2.186,-0.562 -0.333,-1.678 -0.181,-2.834 -0.224,-3.454 -0.025,-0.426 -0.208,-1.213 0.095,-2.849 0.791,-4.208 -0.412,-5.546 -0.319,-6.442 0.256,-2.574 1,-4.719 0.407,-5.016 -0.975,-0.49 -1.943,-0.047 -1.943,-0.047"
     id="path582" />
  <path
     style="fill:none;stroke:#231f20;stroke-width:0.565977;stroke-linecap:butt;stroke-linejoin:miter;stroke-miterlimit:4;stroke-dasharray:none;stroke-opacity:1"
     d="m 314.494,91.937 c -2.254,-0.192 -2.912,-0.276 -2.729,2.219 0.047,0.636 0.308,2.39 0.224,2.77 -0.255,1.276 -0.448,2.772 1.469,9.068 0.296,0.98 0.542,2.943 0.834,4.313 0.281,1.328 2.29,-0.037 2.186,-0.562 -0.333,-1.678 -0.181,-2.834 -0.224,-3.454 -0.025,-0.426 -0.208,-1.213 0.095,-2.849 0.791,-4.208 -0.412,-5.546 -0.319,-6.442 0.256,-2.574 1,-4.719 0.407,-5.016 -0.975,-0.49 -1.943,-0.047 -1.943,-0.047 z"
     id="path583" />
  <path
     style="fill:#231f20;fill-opacity:1;fill-rule:nonzero;stroke:none"
     d="m 298.358,55.317 c 0.152,-1.281 2.095,-0.676 2.636,-0.593 0.531,0.078 2.088,0.141 3.307,0.032 1.219,-0.111 2.787,0.27 5.105,0.066 1.219,-0.104 2.474,0.563 2.552,2.334 0.078,1.756 -0.881,2.464 -2.37,2.37 -1.495,-0.094 -2.859,-0.813 -4.359,-1.01 -1.5,-0.199 -3.047,-0.262 -4.256,-0.256 -1.385,0.01 -2.072,-0.495 -2.26,-0.938 -0.473,-1.093 -0.355,-2.005 -0.355,-2.005"
     id="path584" />
  <path
     style="fill:none;stroke:#231f20;stroke-width:0.565977;stroke-linecap:butt;stroke-linejoin:miter;stroke-miterlimit:4;stroke-dasharray:none;stroke-opacity:1"
     d="m 298.358,55.317 c 0.152,-1.281 2.095,-0.676 2.636,-0.593 0.531,0.078 2.088,0.141 3.307,0.032 1.219,-0.111 2.787,0.27 5.105,0.066 1.219,-0.104 2.474,0.563 2.552,2.334 0.078,1.756 -0.881,2.464 -2.37,2.37 -1.495,-0.094 -2.859,-0.813 -4.359,-1.01 -1.5,-0.199 -3.047,-0.262 -4.256,-0.256 -1.385,0.01 -2.072,-0.495 -2.26,-0.938 -0.473,-1.093 -0.355,-2.005 -0.355,-2.005 z"
     id="path585" />
  <path
     style="fill:#231f20;fill-opacity:1;fill-rule:nonzero;stroke:none"
     d="m 289.301,57.426 c 0.543,0.35 2.464,0.052 4.027,0.439 1.057,0.26 3.754,-0.224 4.786,0.109 0.943,0.312 1.406,0.364 1.943,-0.657 0.323,-0.604 0.541,-1.968 0.104,-2.228 -1.027,-0.605 -1.959,-0.729 -3.032,-0.647 -1.208,0.099 -4.473,0.651 -5.067,0.808 -1.469,0.395 -2.146,0.104 -2.546,0.176 -0.751,0.126 -0.886,0.443 -0.912,0.948 -0.042,0.954 0.697,1.052 0.697,1.052"
     id="path586" />
  <path
     style="fill:none;stroke:#231f20;stroke-width:0.565977;stroke-linecap:butt;stroke-linejoin:miter;stroke-miterlimit:4;stroke-dasharray:none;stroke-opacity:1"
     d="m 289.301,57.426 c 0.543,0.35 2.464,0.052 4.027,0.439 1.057,0.26 3.754,-0.224 4.786,0.109 0.943,0.312 1.406,0.364 1.943,-0.657 0.323,-0.604 0.541,-1.968 0.104,-2.228 -1.027,-0.605 -1.959,-0.729 -3.032,-0.647 -1.208,0.099 -4.473,0.651 -5.067,0.808 -1.469,0.395 -2.146,0.104 -2.546,0.176 -0.751,0.126 -0.886,0.443 -0.912,0.948 -0.042,0.954 0.697,1.052 0.697,1.052 z"
     id="path587" />
  <path
     style="fill:#231f20;fill-opacity:1;fill-rule:nonzero;stroke:none"
     d="m 336.192,55.505 c -0.156,-1.287 -2.099,-0.677 -2.635,-0.588 -0.537,0.077 -2.089,0.145 -3.308,0.041 -1.224,-0.104 -2.787,0.282 -5.109,0.083 -1.214,-0.099 -2.468,0.573 -2.542,2.344 -0.073,1.756 0.886,2.459 2.38,2.36 1.495,-0.1 2.855,-0.819 4.355,-1.021 1.5,-0.208 3.041,-0.276 4.255,-0.271 1.385,0.005 2.068,-0.5 2.256,-0.943 0.473,-1.098 0.348,-2.005 0.348,-2.005"
     id="path588" />
  <path
     style="fill:none;stroke:#231f20;stroke-width:0.565977;stroke-linecap:butt;stroke-linejoin:miter;stroke-miterlimit:4;stroke-dasharray:none;stroke-opacity:1"
     d="m 336.192,55.505 c -0.156,-1.287 -2.099,-0.677 -2.635,-0.588 -0.537,0.077 -2.089,0.145 -3.308,0.041 -1.224,-0.104 -2.787,0.282 -5.109,0.083 -1.214,-0.099 -2.468,0.573 -2.542,2.344 -0.073,1.756 0.886,2.459 2.38,2.36 1.495,-0.1 2.855,-0.819 4.355,-1.021 1.5,-0.208 3.041,-0.276 4.255,-0.271 1.385,0.005 2.068,-0.5 2.256,-0.943 0.473,-1.098 0.348,-2.005 0.348,-2.005 z"
     id="path589" />
  <path
     style="fill:#231f20;fill-opacity:1;fill-rule:nonzero;stroke:none"
     d="m 345.26,57.584 c -0.547,0.342 -2.468,0.057 -4.031,0.448 -1.052,0.265 -3.756,-0.215 -4.787,0.129 -0.942,0.308 -1.401,0.36 -1.948,-0.656 -0.317,-0.599 -0.541,-1.969 -0.104,-2.229 1.02,-0.61 1.959,-0.735 3.026,-0.651 1.214,0.093 4.48,0.635 5.068,0.792 1.474,0.391 2.15,0.093 2.552,0.161 0.75,0.124 0.885,0.443 0.912,0.948 0.046,0.958 -0.688,1.058 -0.688,1.058"
     id="path590" />
  <path
     style="fill:none;stroke:#231f20;stroke-width:0.565977;stroke-linecap:butt;stroke-linejoin:miter;stroke-miterlimit:4;stroke-dasharray:none;stroke-opacity:1"
     d="m 345.26,57.584 c -0.547,0.342 -2.468,0.057 -4.031,0.448 -1.052,0.265 -3.756,-0.215 -4.787,0.129 -0.942,0.308 -1.401,0.36 -1.948,-0.656 -0.317,-0.599 -0.541,-1.969 -0.104,-2.229 1.02,-0.61 1.959,-0.735 3.026,-0.651 1.214,0.093 4.48,0.635 5.068,0.792 1.474,0.391 2.15,0.093 2.552,0.161 0.75,0.124 0.885,0.443 0.912,0.948 0.046,0.958 -0.688,1.058 -0.688,1.058 z"
     id="path591" />
  <path
     style="fill:#ca0369;fill-opacity:1;fill-rule:nonzero;stroke:none"
     d="m 312.145,70.854 c -0.208,0.282 -0.853,1.49 -1.025,1.916 -1.095,2.766 -1.011,6.714 -1.282,7.959 -0.27,1.245 6.323,1.188 6.323,1.188 l 0.473,-1.896 c 0.454,0.432 0.991,0.005 0.991,0.005 l 0.448,1.968 c 0,0 6.463,0.251 6.312,-0.744 -0.203,-1.381 -0.287,-6.01 -1.224,-8.272 -0.511,-1.244 -1.287,-1.916 -1.287,-1.916 0,0 -3.645,1.083 -5.073,1.083 -1.421,0 -4.656,-1.291 -4.656,-1.291"
     id="path592" />
  <path
     style="fill:none;stroke:#231f20;stroke-width:0.565977;stroke-linecap:butt;stroke-linejoin:miter;stroke-miterlimit:4;stroke-dasharray:none;stroke-opacity:1"
     d="m 312.145,70.854 c -0.208,0.282 -0.853,1.49 -1.025,1.916 -1.095,2.766 -1.011,6.714 -1.282,7.959 -0.27,1.245 6.323,1.188 6.323,1.188 l 0.473,-1.896 c 0.454,0.432 0.991,0.005 0.991,0.005 l 0.448,1.968 c 0,0 6.463,0.251 6.312,-0.744 -0.203,-1.381 -0.287,-6.01 -1.224,-8.272 -0.511,-1.244 -1.287,-1.916 -1.287,-1.916 0,0 -3.645,1.083 -5.073,1.083 -1.421,0 -4.656,-1.291 -4.656,-1.291 z"
     id="path593" />
  <path
     style="fill:#231f20;fill-opacity:1;fill-rule:nonzero;stroke:none"
     d="m 312.718,114.031 c -0.286,-0.594 0.927,-1.933 0.964,-3.901 0.004,-0.401 0.203,-0.724 0.343,-1.068 0.563,-1.401 1.844,-2.355 2.756,1.364 0.125,0.516 -0.265,2.579 -0.021,3.324 0.589,1.771 -1.026,4.672 -1.526,4.531 -1.084,-0.292 -2.516,-4.25 -2.516,-4.25"
     id="path594" />
  <path
     style="fill:none;stroke:#231f20;stroke-width:0.644548;stroke-linecap:round;stroke-linejoin:round;stroke-miterlimit:4;stroke-dasharray:none;stroke-opacity:1"
     d="m 312.718,114.031 c -0.286,-0.594 0.927,-1.933 0.964,-3.901 0.004,-0.401 0.203,-0.724 0.343,-1.068 0.563,-1.401 1.844,-2.355 2.756,1.364 0.125,0.516 -0.265,2.579 -0.021,3.324 0.589,1.771 -1.026,4.672 -1.526,4.531 -1.084,-0.292 -2.516,-4.25 -2.516,-4.25 z"
     id="path595" />
  <path
     style="fill:#ffffff;fill-opacity:1;fill-rule:nonzero;stroke:#231f20;stroke-width:0.665856;stroke-linecap:butt;stroke-linejoin:miter;stroke-miterlimit:4;stroke-dasharray:none;stroke-opacity:1"
     d="m 286.796,48.422 h 1.333 V 16.745 h -1.333 z"
     id="path596" />
  <path
     style="fill:#ffffff;fill-opacity:1;fill-rule:nonzero;stroke:none"
     d="m 287.462,48.026 c -1.921,0 -3.484,2.588 -3.484,5.782 0,3.192 1.563,5.78 3.484,5.78 1.928,0 3.486,-2.588 3.486,-5.78 0,-3.194 -1.558,-5.782 -3.486,-5.782 m 0,1.302 c 0.882,0 2.152,1.745 2.152,4.48 0,2.728 -1.27,4.478 -2.152,4.478 -0.874,0 -2.15,-1.75 -2.15,-4.478 0,-2.735 1.276,-4.48 2.15,-4.48"
     id="path597" />
  <path
     style="fill:none;stroke:#231f20;stroke-width:0.665856;stroke-linecap:butt;stroke-linejoin:miter;stroke-miterlimit:4;stroke-dasharray:none;stroke-opacity:1"
     d="m 287.462,48.026 c -1.921,0 -3.484,2.588 -3.484,5.782 0,3.192 1.563,5.78 3.484,5.78 1.928,0 3.486,-2.588 3.486,-5.78 0,-3.194 -1.558,-5.782 -3.486,-5.782 z m 0,1.302 c 0.882,0 2.152,1.745 2.152,4.48 0,2.728 -1.27,4.478 -2.152,4.478 -0.874,0 -2.15,-1.75 -2.15,-4.478 0,-2.735 1.276,-4.48 2.15,-4.48"
     id="path598" />
  <path
     style="fill:#ffffff;fill-opacity:1;fill-rule:nonzero;stroke:#231f20;stroke-width:0.665856;stroke-linecap:butt;stroke-linejoin:miter;stroke-miterlimit:4;stroke-dasharray:none;stroke-opacity:1"
     d="m 346.344,48.422 h 1.333 V 16.745 h -1.333 z"
     id="path599" />
  <path
     style="fill:#ffffff;fill-opacity:1;fill-rule:nonzero;stroke:none"
     d="m 347.01,48.026 c -1.928,0 -3.485,2.588 -3.485,5.782 0,3.192 1.557,5.78 3.485,5.78 1.922,0 3.484,-2.588 3.484,-5.78 0,-3.194 -1.562,-5.782 -3.484,-5.782 m 0,1.302 c 0.875,0 2.151,1.745 2.151,4.48 0,2.728 -1.276,4.478 -2.151,4.478 -0.881,0 -2.152,-1.75 -2.152,-4.478 0,-2.735 1.271,-4.48 2.152,-4.48"
     id="path600" />
  <path
     style="fill:none;stroke:#231f20;stroke-width:0.665856;stroke-linecap:butt;stroke-linejoin:miter;stroke-miterlimit:4;stroke-dasharray:none;stroke-opacity:1"
     d="m 347.01,48.026 c -1.928,0 -3.485,2.588 -3.485,5.782 0,3.192 1.557,5.78 3.485,5.78 1.922,0 3.484,-2.588 3.484,-5.78 0,-3.194 -1.562,-5.782 -3.484,-5.782 z m 0,1.302 c 0.875,0 2.151,1.745 2.151,4.48 0,2.728 -1.276,4.478 -2.151,4.478 -0.881,0 -2.152,-1.75 -2.152,-4.478 0,-2.735 1.271,-4.48 2.152,-4.48"
     id="path601" />
  <path
     style="fill:#ffffff;fill-opacity:1;fill-rule:nonzero;stroke:#231f20;stroke-width:0.665856;stroke-linecap:butt;stroke-linejoin:miter;stroke-miterlimit:4;stroke-dasharray:none;stroke-opacity:1"
     d="m 286.546,131.135 h 1.334 V 99.458 h -1.334 z"
     id="path602" />
  <path
     style="fill:#ffffff;fill-opacity:1;fill-rule:nonzero;stroke:#231f20;stroke-width:0.665856;stroke-linecap:butt;stroke-linejoin:miter;stroke-miterlimit:4;stroke-dasharray:none;stroke-opacity:1"
     d="m 346.338,131.135 h 1.334 V 99.458 h -1.334 z"
     id="path603" />
  <path
     style="fill:#231f20;fill-opacity:1;fill-rule:nonzero;stroke:none"
     d="m 321.254,113.802 c 0.314,-0.589 -0.833,-1.975 -0.776,-3.948 0.011,-0.401 -0.172,-0.729 -0.296,-1.079 -0.5,-1.426 -1.734,-2.442 -2.813,1.23 -0.151,0.51 0.141,2.588 -0.135,3.322 -0.672,1.74 0.807,4.714 1.312,4.599 1.094,-0.239 2.708,-4.124 2.708,-4.124"
     id="path604" />
  <path
     style="fill:none;stroke:#231f20;stroke-width:0.644548;stroke-linecap:round;stroke-linejoin:round;stroke-miterlimit:4;stroke-dasharray:none;stroke-opacity:1"
     d="m 321.254,113.802 c 0.314,-0.589 -0.833,-1.975 -0.776,-3.948 0.011,-0.401 -0.172,-0.729 -0.296,-1.079 -0.5,-1.426 -1.734,-2.442 -2.813,1.23 -0.151,0.51 0.141,2.588 -0.135,3.322 -0.672,1.74 0.807,4.714 1.312,4.599 1.094,-0.239 2.708,-4.124 2.708,-4.124 z"
     id="path605" />
  <path
     style="fill:#231f20;fill-opacity:1;fill-rule:nonzero;stroke:none"
     d="m 286.406,55.833 c -0.636,0.292 -0.745,2.599 -0.448,2.719 0.296,0.114 0.25,-0.651 0.583,-0.536 0.339,0.12 0.292,0.62 0.527,0.629 0.244,0.016 0.208,-0.583 0.505,-0.509 0.124,0.03 0.369,0.572 0.552,0.525 0.161,-0.041 0.333,-0.536 0.468,-0.572 0.203,-0.068 0.292,0.541 0.469,0.509 0.454,-0.098 -0.308,-2.702 -0.532,-2.806 -0.317,-0.151 -1.098,-0.423 -2.124,0.041"
     id="path606" />
  <path
     style="fill:none;stroke:#231f20;stroke-width:0.565977;stroke-linecap:round;stroke-linejoin:round;stroke-miterlimit:4;stroke-dasharray:none;stroke-opacity:1"
     d="m 286.406,55.833 c -0.636,0.292 -0.745,2.599 -0.448,2.719 0.296,0.114 0.25,-0.651 0.583,-0.536 0.339,0.12 0.292,0.62 0.527,0.629 0.244,0.016 0.208,-0.583 0.505,-0.509 0.124,0.03 0.369,0.572 0.552,0.525 0.161,-0.041 0.333,-0.536 0.468,-0.572 0.203,-0.068 0.292,0.541 0.469,0.509 0.454,-0.098 -0.308,-2.702 -0.532,-2.806 -0.317,-0.151 -1.098,-0.423 -2.124,0.041 z"
     id="path607" />
  <path
     style="fill:#231f20;fill-opacity:1;fill-rule:nonzero;stroke:none"
     d="m 345.573,56.141 c -0.641,0.265 -0.839,2.572 -0.548,2.703 0.292,0.125 0.276,-0.642 0.605,-0.516 0.338,0.13 0.271,0.63 0.504,0.65 0.246,0.022 0.23,-0.577 0.522,-0.494 0.12,0.037 0.349,0.584 0.536,0.548 0.161,-0.038 0.349,-0.527 0.485,-0.558 0.203,-0.057 0.276,0.552 0.452,0.526 0.459,-0.079 -0.213,-2.714 -0.432,-2.823 -0.307,-0.161 -1.077,-0.459 -2.124,-0.036"
     id="path608" />
  <path
     style="fill:none;stroke:#231f20;stroke-width:0.565977;stroke-linecap:round;stroke-linejoin:round;stroke-miterlimit:4;stroke-dasharray:none;stroke-opacity:1"
     d="m 345.573,56.141 c -0.641,0.265 -0.839,2.572 -0.548,2.703 0.292,0.125 0.276,-0.642 0.605,-0.516 0.338,0.13 0.271,0.63 0.504,0.65 0.246,0.022 0.23,-0.577 0.522,-0.494 0.12,0.037 0.349,0.584 0.536,0.548 0.161,-0.038 0.349,-0.527 0.485,-0.558 0.203,-0.057 0.276,0.552 0.452,0.526 0.459,-0.079 -0.213,-2.714 -0.432,-2.823 -0.307,-0.161 -1.077,-0.459 -2.124,-0.036 z"
     id="path609" />
  <path
     style="fill:#231f20;fill-opacity:1;fill-rule:nonzero;stroke:#231f20;stroke-width:0.565977;stroke-linecap:round;stroke-linejoin:round;stroke-miterlimit:4;stroke-dasharray:none;stroke-opacity:1"
     d="m 314.369,137.119 c 0,0 1.177,-0.598 2.344,-0.578 1.161,0.021 2.401,0.557 2.401,0.557 v 3.297 h -4.786 z"
     id="path610" />
  <path
     style="fill:#ca0369;fill-opacity:1;fill-rule:nonzero;stroke:none"
     d="m 316.177,156.578 c 0.495,0 1.104,-0.428 1.104,-0.428 0,0 1.296,-0.229 4.02,-1.739 l 0.36,-0.016 c 0.901,0.864 -0.412,-1.156 -0.396,-1.901 0.057,-3.249 1.396,-8.172 2.057,-9.339 0.902,-1.593 3.479,-2.098 2.418,-3.989 0,0 -0.615,-1.844 -3.402,-1.484 -1.01,0.129 -3.224,-0.584 -3.224,-0.584 0.011,0.037 0.02,0.079 0.02,0.12 0,1.251 -1.066,1.964 -2.405,1.984 h 0.072 c -1.333,-0.02 -2.4,-0.796 -2.4,-1.984 0,-0.041 0.005,-0.083 0.015,-0.12 0,0 -2.214,0.713 -3.219,0.584 -2.791,-0.36 -3.344,1.76 -3.344,1.76 -1.061,1.885 1.459,2.12 2.36,3.713 0.656,1.167 1.995,6.09 2.052,9.339 0.016,0.745 -1.297,2.765 -0.391,1.901 l 0.36,0.016 c 2.719,1.51 2.839,1.739 2.839,1.739 0,0 0.609,0.428 1.104,0.428"
     id="path611" />
  <path
     style="fill:none;stroke:#231f20;stroke-width:0.565977;stroke-linecap:butt;stroke-linejoin:miter;stroke-miterlimit:4;stroke-dasharray:none;stroke-opacity:1"
     d="m 316.177,156.578 c 0.495,0 1.104,-0.428 1.104,-0.428 0,0 1.296,-0.229 4.02,-1.739 l 0.36,-0.016 c 0.901,0.864 -0.412,-1.156 -0.396,-1.901 0.057,-3.249 1.396,-8.172 2.057,-9.339 0.902,-1.593 3.479,-2.098 2.418,-3.989 0,0 -0.615,-1.844 -3.402,-1.484 -1.01,0.129 -3.224,-0.584 -3.224,-0.584 0.011,0.037 0.02,0.079 0.02,0.12 0,1.251 -1.066,1.964 -2.405,1.984 h 0.072 c -1.333,-0.02 -2.4,-0.796 -2.4,-1.984 0,-0.041 0.005,-0.083 0.015,-0.12 0,0 -2.214,0.713 -3.219,0.584 -2.791,-0.36 -3.344,1.76 -3.344,1.76 -1.061,1.885 1.459,2.12 2.36,3.713 0.656,1.167 1.995,6.09 2.052,9.339 0.016,0.745 -1.297,2.765 -0.391,1.901 l 0.36,0.016 c 2.719,1.51 2.839,1.739 2.839,1.739 0,0 0.609,0.428 1.104,0.428 z"
     id="path612" />
  <path
     style="fill:#ffffff;fill-opacity:1;fill-rule:nonzero;stroke:none"
     d="m 313.025,131.609 c -0.005,2.822 1.672,5.114 3.751,5.12 2.077,0.005 3.765,-2.282 3.77,-5.104 0.006,-2.823 -1.672,-5.12 -3.75,-5.12 -2.072,-0.006 -3.766,2.281 -3.771,5.104"
     id="path613" />
  <path
     style="fill:none;stroke:#231f20;stroke-width:0.565977;stroke-linecap:butt;stroke-linejoin:miter;stroke-miterlimit:4;stroke-dasharray:none;stroke-opacity:1"
     d="m 313.025,131.609 c -0.005,2.822 1.672,5.114 3.751,5.12 2.077,0.005 3.765,-2.282 3.77,-5.104 0.006,-2.823 -1.672,-5.12 -3.75,-5.12 -2.072,-0.006 -3.766,2.281 -3.771,5.104 z"
     id="path614" />
  <path
     style="fill:#231f20;fill-opacity:1;fill-rule:nonzero;stroke:none"
     d="m 298.109,138.035 c 0.156,-1.285 2.099,-0.681 2.635,-0.598 0.532,0.084 2.089,0.141 3.308,0.032 1.218,-0.11 2.786,0.276 5.104,0.072 1.218,-0.11 2.474,0.557 2.552,2.333 0.078,1.751 -0.88,2.459 -2.37,2.365 -1.494,-0.094 -2.86,-0.808 -4.36,-1.01 -1.5,-0.198 -3.046,-0.26 -4.254,-0.255 -1.386,0.015 -2.074,-0.496 -2.262,-0.933 -0.473,-1.099 -0.353,-2.006 -0.353,-2.006"
     id="path615" />
  <path
     style="fill:none;stroke:#231f20;stroke-width:0.565977;stroke-linecap:butt;stroke-linejoin:miter;stroke-miterlimit:4;stroke-dasharray:none;stroke-opacity:1"
     d="m 298.109,138.035 c 0.156,-1.285 2.099,-0.681 2.635,-0.598 0.532,0.084 2.089,0.141 3.308,0.032 1.218,-0.11 2.786,0.276 5.104,0.072 1.218,-0.11 2.474,0.557 2.552,2.333 0.078,1.751 -0.88,2.459 -2.37,2.365 -1.494,-0.094 -2.86,-0.808 -4.36,-1.01 -1.5,-0.198 -3.046,-0.26 -4.254,-0.255 -1.386,0.015 -2.074,-0.496 -2.262,-0.933 -0.473,-1.099 -0.353,-2.006 -0.353,-2.006 z"
     id="path616" />
  <path
     style="fill:#231f20;fill-opacity:1;fill-rule:nonzero;stroke:none"
     d="m 289.052,140.145 c 0.541,0.344 2.468,0.048 4.025,0.433 1.057,0.26 3.756,-0.224 4.787,0.115 0.942,0.306 1.406,0.358 1.942,-0.662 0.323,-0.6 0.543,-1.969 0.104,-2.229 -1.025,-0.604 -1.957,-0.729 -3.03,-0.641 -1.208,0.093 -4.474,0.65 -5.063,0.808 -1.473,0.39 -2.151,0.098 -2.552,0.172 -0.749,0.124 -0.885,0.442 -0.907,0.948 -0.046,0.957 0.694,1.056 0.694,1.056"
     id="path617" />
  <path
     style="fill:none;stroke:#231f20;stroke-width:0.565977;stroke-linecap:butt;stroke-linejoin:miter;stroke-miterlimit:4;stroke-dasharray:none;stroke-opacity:1"
     d="m 289.052,140.145 c 0.541,0.344 2.468,0.048 4.025,0.433 1.057,0.26 3.756,-0.224 4.787,0.115 0.942,0.306 1.406,0.358 1.942,-0.662 0.323,-0.6 0.543,-1.969 0.104,-2.229 -1.025,-0.604 -1.957,-0.729 -3.03,-0.641 -1.208,0.093 -4.474,0.65 -5.063,0.808 -1.473,0.39 -2.151,0.098 -2.552,0.172 -0.749,0.124 -0.885,0.442 -0.907,0.948 -0.046,0.957 0.694,1.056 0.694,1.056 z"
     id="path618" />
  <path
     style="fill:#231f20;fill-opacity:1;fill-rule:nonzero;stroke:none"
     d="m 335.942,138.218 c -0.156,-1.287 -2.098,-0.672 -2.636,-0.588 -0.536,0.083 -2.088,0.145 -3.306,0.041 -1.224,-0.104 -2.787,0.287 -5.104,0.088 -1.219,-0.104 -2.475,0.568 -2.547,2.339 -0.073,1.756 0.885,2.459 2.38,2.365 1.495,-0.104 2.853,-0.822 4.353,-1.026 1.5,-0.203 3.043,-0.271 4.256,-0.266 1.386,0.006 2.068,-0.505 2.255,-0.942 0.475,-1.104 0.349,-2.011 0.349,-2.011"
     id="path619" />
  <path
     style="fill:none;stroke:#231f20;stroke-width:0.565977;stroke-linecap:butt;stroke-linejoin:miter;stroke-miterlimit:4;stroke-dasharray:none;stroke-opacity:1"
     d="m 335.942,138.218 c -0.156,-1.287 -2.098,-0.672 -2.636,-0.588 -0.536,0.083 -2.088,0.145 -3.306,0.041 -1.224,-0.104 -2.787,0.287 -5.104,0.088 -1.219,-0.104 -2.475,0.568 -2.547,2.339 -0.073,1.756 0.885,2.459 2.38,2.365 1.495,-0.104 2.853,-0.822 4.353,-1.026 1.5,-0.203 3.043,-0.271 4.256,-0.266 1.386,0.006 2.068,-0.505 2.255,-0.942 0.475,-1.104 0.349,-2.011 0.349,-2.011 z"
     id="path620" />
  <path
     style="fill:#231f20;fill-opacity:1;fill-rule:nonzero;stroke:none"
     d="m 345.01,140.297 c -0.542,0.348 -2.469,0.062 -4.032,0.448 -1.052,0.265 -3.754,-0.21 -4.786,0.129 -0.943,0.313 -1.4,0.365 -1.948,-0.656 -0.318,-0.599 -0.542,-1.964 -0.104,-2.224 1.021,-0.609 1.958,-0.735 3.026,-0.656 1.214,0.093 4.479,0.636 5.074,0.792 1.468,0.391 2.145,0.093 2.546,0.161 0.75,0.131 0.886,0.443 0.911,0.948 0.047,0.959 -0.687,1.058 -0.687,1.058"
     id="path621" />
  <path
     style="fill:none;stroke:#231f20;stroke-width:0.565977;stroke-linecap:butt;stroke-linejoin:miter;stroke-miterlimit:4;stroke-dasharray:none;stroke-opacity:1"
     d="m 345.01,140.297 c -0.542,0.348 -2.469,0.062 -4.032,0.448 -1.052,0.265 -3.754,-0.21 -4.786,0.129 -0.943,0.313 -1.4,0.365 -1.948,-0.656 -0.318,-0.599 -0.542,-1.964 -0.104,-2.224 1.021,-0.609 1.958,-0.735 3.026,-0.656 1.214,0.093 4.479,0.636 5.074,0.792 1.468,0.391 2.145,0.093 2.546,0.161 0.75,0.131 0.886,0.443 0.911,0.948 0.047,0.959 -0.687,1.058 -0.687,1.058 z"
     id="path622" />
  <path
     style="fill:#231f20;fill-opacity:1;fill-rule:nonzero;stroke:none"
     d="m 322.073,151.682 c 0.891,1.183 1.52,5.443 0.061,7.943 -1.457,2.5 -2.812,6.62 -3.942,6.489 -3.911,-0.453 -0.219,-6.76 -1.64,-7.943 -1.312,-1.093 0.208,-7.13 1.661,-7.36 1.453,-0.228 3.86,0.871 3.86,0.871"
     id="path623" />
  <path
     style="fill:none;stroke:#231f20;stroke-width:0.31961;stroke-linecap:butt;stroke-linejoin:miter;stroke-miterlimit:4;stroke-dasharray:none;stroke-opacity:1"
     d="m 322.073,151.682 c 0.891,1.183 1.52,5.443 0.061,7.943 -1.457,2.5 -2.812,6.62 -3.942,6.489 -3.911,-0.453 -0.219,-6.76 -1.64,-7.943 -1.312,-1.093 0.208,-7.13 1.661,-7.36 1.453,-0.228 3.86,0.871 3.86,0.871 z"
     id="path624" />
  <path
     style="fill:#231f20;fill-opacity:1;fill-rule:nonzero;stroke:none"
     d="m 310.812,151.499 c -0.906,1.167 -1.635,5.448 -0.276,8.022 1.36,2.568 2.578,6.776 3.688,6.681 3.844,-0.317 0.396,-6.817 1.812,-7.963 1.322,-1.057 -0.006,-7.204 -1.422,-7.484 -1.422,-0.281 -3.802,0.744 -3.802,0.744"
     id="path625" />
  <path
     style="fill:none;stroke:#231f20;stroke-width:0.318279;stroke-linecap:butt;stroke-linejoin:miter;stroke-miterlimit:4;stroke-dasharray:none;stroke-opacity:1"
     d="m 310.812,151.499 c -0.906,1.167 -1.635,5.448 -0.276,8.022 1.36,2.568 2.578,6.776 3.688,6.681 3.844,-0.317 0.396,-6.817 1.812,-7.963 1.322,-1.057 -0.006,-7.204 -1.422,-7.484 -1.422,-0.281 -3.802,0.744 -3.802,0.744 z"
     id="path626" />
  <path
     style="fill:#ca0369;fill-opacity:1;fill-rule:nonzero;stroke:none"
     d="m 310.338,152.739 c 0.422,-1.125 3.943,0.63 4.359,1.468 0.423,0.839 0.36,1.475 1.615,1.61 0.844,0.089 1.261,-1.52 1.656,-1.88 3.49,-3.198 3.87,-0.26 4.36,-0.891 0.489,-0.624 -1.495,-3.177 -1.495,-3.177 -3.641,0.354 -8.745,0.073 -8.745,0.073 -1.474,1.188 -1.75,2.797 -1.75,2.797"
     id="path627" />
  <path
     style="fill:none;stroke:#231f20;stroke-width:0.565977;stroke-linecap:round;stroke-linejoin:round;stroke-miterlimit:4;stroke-dasharray:none;stroke-opacity:1"
     d="m 310.338,152.739 c 0.422,-1.125 3.943,0.63 4.359,1.468 0.423,0.839 0.36,1.475 1.615,1.61 0.844,0.089 1.261,-1.52 1.656,-1.88 3.49,-3.198 3.87,-0.26 4.36,-0.891 0.489,-0.624 -1.495,-3.177 -1.495,-3.177 -3.641,0.354 -8.745,0.073 -8.745,0.073 -1.474,1.188 -1.75,2.797 -1.75,2.797 z"
     id="path628" />
  <path
     style="fill:#ffffff;fill-opacity:1;fill-rule:nonzero;stroke:none"
     d="m 320.692,160.374 c 0.286,0.6 -0.927,1.937 -0.963,3.907 -0.011,0.401 -0.204,0.718 -0.344,1.068 -0.568,1.396 -1.849,2.353 -2.76,-1.366 -0.125,-0.514 0.271,-2.577 0.025,-3.322 -0.588,-1.771 1.027,-4.678 1.527,-4.531 1.077,0.292 2.515,4.244 2.515,4.244"
     id="path629" />
  <path
     style="fill:none;stroke:#231f20;stroke-width:0.644548;stroke-linecap:round;stroke-linejoin:round;stroke-miterlimit:4;stroke-dasharray:none;stroke-opacity:1"
     d="m 320.692,160.374 c 0.286,0.6 -0.927,1.937 -0.963,3.907 -0.011,0.401 -0.204,0.718 -0.344,1.068 -0.568,1.396 -1.849,2.353 -2.76,-1.366 -0.125,-0.514 0.271,-2.577 0.025,-3.322 -0.588,-1.771 1.027,-4.678 1.527,-4.531 1.077,0.292 2.515,4.244 2.515,4.244 z"
     id="path630" />
  <path
     style="fill:#ffffff;fill-opacity:1;fill-rule:nonzero;stroke:none"
     d="m 311.91,160.182 c -0.312,0.588 0.834,1.973 0.776,3.948 -0.009,0.396 0.172,0.729 0.292,1.077 0.506,1.428 1.74,2.443 2.818,-1.229 0.146,-0.509 -0.146,-2.588 0.136,-3.323 0.672,-1.738 -0.807,-4.713 -1.318,-4.598 -1.089,0.24 -2.704,4.125 -2.704,4.125"
     id="path631" />
  <path
     style="fill:none;stroke:#231f20;stroke-width:0.644548;stroke-linecap:round;stroke-linejoin:round;stroke-miterlimit:4;stroke-dasharray:none;stroke-opacity:1"
     d="m 311.91,160.182 c -0.312,0.588 0.834,1.973 0.776,3.948 -0.009,0.396 0.172,0.729 0.292,1.077 0.506,1.428 1.74,2.443 2.818,-1.229 0.146,-0.509 -0.146,-2.588 0.136,-3.323 0.672,-1.738 -0.807,-4.713 -1.318,-4.598 -1.089,0.24 -2.704,4.125 -2.704,4.125 z"
     id="path632" />
  <path
     style="fill:#ffffff;fill-opacity:1;fill-rule:nonzero;stroke:none"
     d="m 347.005,130.739 c -1.923,0 -3.485,2.588 -3.485,5.782 0,3.192 1.562,5.781 3.485,5.781 1.927,0 3.484,-2.589 3.484,-5.781 0,-3.194 -1.557,-5.782 -3.484,-5.782 m 0,1.302 c 0.88,0 2.151,1.745 2.151,4.48 0,2.733 -1.271,4.478 -2.151,4.478 -0.876,0 -2.152,-1.745 -2.152,-4.478 0,-2.735 1.276,-4.48 2.152,-4.48"
     id="path633" />
  <path
     style="fill:none;stroke:#231f20;stroke-width:0.665856;stroke-linecap:butt;stroke-linejoin:miter;stroke-miterlimit:4;stroke-dasharray:none;stroke-opacity:1"
     d="m 347.005,130.739 c -1.923,0 -3.485,2.588 -3.485,5.782 0,3.192 1.562,5.781 3.485,5.781 1.927,0 3.484,-2.589 3.484,-5.781 0,-3.194 -1.557,-5.782 -3.484,-5.782 z m 0,1.302 c 0.88,0 2.151,1.745 2.151,4.48 0,2.733 -1.271,4.478 -2.151,4.478 -0.876,0 -2.152,-1.745 -2.152,-4.478 0,-2.735 1.276,-4.48 2.152,-4.48"
     id="path634" />
  <path
     style="fill:#231f20;fill-opacity:1;fill-rule:nonzero;stroke:none"
     d="m 345.322,138.859 c -0.64,0.266 -0.838,2.567 -0.546,2.703 0.292,0.12 0.276,-0.645 0.604,-0.521 0.338,0.136 0.27,0.63 0.505,0.652 0.244,0.025 0.229,-0.579 0.521,-0.495 0.119,0.036 0.348,0.588 0.536,0.547 0.162,-0.038 0.35,-0.527 0.484,-0.558 0.204,-0.057 0.276,0.552 0.454,0.526 0.458,-0.078 -0.214,-2.708 -0.432,-2.823 -0.308,-0.156 -1.079,-0.459 -2.126,-0.031"
     id="path635" />
  <path
     style="fill:none;stroke:#231f20;stroke-width:0.565977;stroke-linecap:round;stroke-linejoin:round;stroke-miterlimit:4;stroke-dasharray:none;stroke-opacity:1"
     d="m 345.322,138.859 c -0.64,0.266 -0.838,2.567 -0.546,2.703 0.292,0.12 0.276,-0.645 0.604,-0.521 0.338,0.136 0.27,0.63 0.505,0.652 0.244,0.025 0.229,-0.579 0.521,-0.495 0.119,0.036 0.348,0.588 0.536,0.547 0.162,-0.038 0.35,-0.527 0.484,-0.558 0.204,-0.057 0.276,0.552 0.454,0.526 0.458,-0.078 -0.214,-2.708 -0.432,-2.823 -0.308,-0.156 -1.079,-0.459 -2.126,-0.031 z"
     id="path636" />
  <path
     style="fill:#ffffff;fill-opacity:1;fill-rule:nonzero;stroke:none"
     d="m 287.213,130.739 c -1.921,0 -3.484,2.588 -3.484,5.782 0,3.192 1.563,5.781 3.484,5.781 1.927,0 3.484,-2.589 3.484,-5.781 0,-3.194 -1.557,-5.782 -3.484,-5.782 m 0,1.302 c 0.88,0 2.151,1.745 2.151,4.48 0,2.733 -1.271,4.478 -2.151,4.478 -0.875,0 -2.151,-1.745 -2.151,-4.478 0,-2.735 1.276,-4.48 2.151,-4.48"
     id="path637" />
  <path
     style="fill:none;stroke:#231f20;stroke-width:0.665856;stroke-linecap:butt;stroke-linejoin:miter;stroke-miterlimit:4;stroke-dasharray:none;stroke-opacity:1"
     d="m 287.213,130.739 c -1.921,0 -3.484,2.588 -3.484,5.782 0,3.192 1.563,5.781 3.484,5.781 1.927,0 3.484,-2.589 3.484,-5.781 0,-3.194 -1.557,-5.782 -3.484,-5.782 z m 0,1.302 c 0.88,0 2.151,1.745 2.151,4.48 0,2.733 -1.271,4.478 -2.151,4.478 -0.875,0 -2.151,-1.745 -2.151,-4.478 0,-2.735 1.276,-4.48 2.151,-4.48"
     id="path638" />
  <path
     style="fill:#231f20;fill-opacity:1;fill-rule:nonzero;stroke:none"
     d="m 286.156,138.546 c -0.636,0.292 -0.746,2.599 -0.448,2.724 0.297,0.109 0.25,-0.651 0.584,-0.536 0.338,0.12 0.29,0.615 0.525,0.625 0.251,0.02 0.208,-0.584 0.505,-0.51 0.126,0.03 0.37,0.573 0.552,0.525 0.162,-0.041 0.334,-0.536 0.47,-0.572 0.202,-0.063 0.29,0.541 0.468,0.509 0.453,-0.093 -0.307,-2.702 -0.531,-2.801 -0.317,-0.151 -1.095,-0.427 -2.125,0.036"
     id="path639" />
  <path
     style="fill:none;stroke:#231f20;stroke-width:0.565977;stroke-linecap:round;stroke-linejoin:round;stroke-miterlimit:4;stroke-dasharray:none;stroke-opacity:1"
     d="m 286.156,138.546 c -0.636,0.292 -0.746,2.599 -0.448,2.724 0.297,0.109 0.25,-0.651 0.584,-0.536 0.338,0.12 0.29,0.615 0.525,0.625 0.251,0.02 0.208,-0.584 0.505,-0.51 0.126,0.03 0.37,0.573 0.552,0.525 0.162,-0.041 0.334,-0.536 0.47,-0.572 0.202,-0.063 0.29,0.541 0.468,0.509 0.453,-0.093 -0.307,-2.702 -0.531,-2.801 -0.317,-0.151 -1.095,-0.427 -2.125,0.036 z"
     id="path640" />
  <path
     style="fill:#231f20;fill-opacity:1;fill-rule:nonzero;stroke:none"
     d="m 206.839,22.65 c 1.338,0.167 1.572,1.131 1.109,2.058 -0.136,0.281 0.031,0.661 -0.125,0.917 -0.364,0.604 -2.074,0.953 -2.73,-0.391 -0.046,-0.098 -0.614,-0.688 -0.964,-1.202 -0.692,-1 -1.577,-3.334 -0.452,-5.782 0.526,-1.161 1.119,-0.636 1.042,-0.1 -0.23,1.694 0.088,1.891 0.182,2.36 0.339,1.583 1.938,2.14 1.938,2.14"
     id="path641" />
  <path
     style="fill:none;stroke:#231f20;stroke-width:0.332927;stroke-linecap:butt;stroke-linejoin:miter;stroke-miterlimit:4;stroke-dasharray:none;stroke-opacity:1"
     d="m 206.839,22.65 c 1.338,0.167 1.572,1.131 1.109,2.058 -0.136,0.281 0.031,0.661 -0.125,0.917 -0.364,0.604 -2.074,0.953 -2.73,-0.391 -0.046,-0.098 -0.614,-0.688 -0.964,-1.202 -0.692,-1 -1.577,-3.334 -0.452,-5.782 0.526,-1.161 1.119,-0.636 1.042,-0.1 -0.23,1.694 0.088,1.891 0.182,2.36 0.339,1.583 1.938,2.14 1.938,2.14 z"
     id="path642" />
  <path
     style="fill:#231f20;fill-opacity:1;fill-rule:nonzero;stroke:none"
     d="m 214.781,39.636 c 2.094,-0.876 2.38,-1.324 2.072,-2.235 -0.202,-0.604 -0.186,-1.235 -0.296,-1.609 -0.36,-1.251 -1.469,-3.194 -6.084,-7.896 -1.046,-1.063 -2.505,-2.568 -3.046,-3.23 -0.864,-1.046 -2.02,1.094 -1.683,1.506 1.073,1.338 1.704,2.344 2.027,2.88 0.218,0.36 0.692,0.953 1.369,2.48 1.016,2.317 1.281,3.853 2.349,5.676 0.495,0.849 0.328,1.797 1.24,2.39 0.916,0.584 2.052,0.038 2.052,0.038"
     id="path643" />
  <path
     style="fill:none;stroke:#231f20;stroke-width:0.565977;stroke-linecap:butt;stroke-linejoin:miter;stroke-miterlimit:4;stroke-dasharray:none;stroke-opacity:1"
     d="m 214.781,39.636 c 2.094,-0.876 2.38,-1.324 2.072,-2.235 -0.202,-0.604 -0.186,-1.235 -0.296,-1.609 -0.36,-1.251 -1.469,-3.194 -6.084,-7.896 -1.046,-1.063 -2.505,-2.568 -3.046,-3.23 -0.864,-1.046 -2.02,1.094 -1.683,1.506 1.073,1.338 1.704,2.344 2.027,2.88 0.218,0.36 0.692,0.953 1.369,2.48 1.016,2.317 1.281,3.853 2.349,5.676 0.495,0.849 0.328,1.797 1.24,2.39 0.916,0.584 2.052,0.038 2.052,0.038 z"
     id="path644" />
  <path
     style="fill:#ca0369;fill-opacity:1;fill-rule:nonzero;stroke:none"
     d="m 231.052,59.865 c -1.995,-2.423 -2.151,-3.163 -2.412,-4.043 -1.62,-5.552 -4.312,-4.645 -6.178,-2.442 -2.186,2.594 -3.025,3.474 1.423,7.932 1.24,1.24 5.355,6.625 5.355,6.625 1.213,2.12 3.536,3.541 4.984,3.407 1.52,-0.142 0.91,-0.194 2.306,-0.584 1.319,-0.37 2.834,-1.948 2.714,-3.176 -0.119,-1.183 -1.63,-1.886 -3.671,-3.188 -1.62,-1.027 -4.521,-4.531 -4.521,-4.531"
     id="path645" />
  <path
     style="fill:none;stroke:#231f20;stroke-width:0.565977;stroke-linecap:butt;stroke-linejoin:miter;stroke-miterlimit:4;stroke-dasharray:none;stroke-opacity:1"
     d="m 231.052,59.865 c -1.995,-2.423 -2.151,-3.163 -2.412,-4.043 -1.62,-5.552 -4.312,-4.645 -6.178,-2.442 -2.186,2.594 -3.025,3.474 1.423,7.932 1.24,1.24 5.355,6.625 5.355,6.625 1.213,2.12 3.536,3.541 4.984,3.407 1.52,-0.142 0.91,-0.194 2.306,-0.584 1.319,-0.37 2.834,-1.948 2.714,-3.176 -0.119,-1.183 -1.63,-1.886 -3.671,-3.188 -1.62,-1.027 -4.521,-4.531 -4.521,-4.531 z"
     id="path646" />
  <path
     style="fill:#ffffff;fill-opacity:1;fill-rule:nonzero;stroke:none"
     d="m 243.077,74.682 c 0.24,0.068 0.235,1.214 0.756,1.255 0.52,0.037 0.781,-0.703 2.64,-1.411 l 0.021,-0.005 c 1.375,-0.469 2.38,-1.432 2.579,-2.667 0.328,-2.052 -1.663,-4.078 -4.448,-4.532 -2.792,-0.448 -5.319,0.85 -5.647,2.896 -0.317,1.964 1.495,3.907 4.099,4.464"
     id="path647" />
  <path
     style="fill:none;stroke:#231f20;stroke-width:0.565977;stroke-linecap:butt;stroke-linejoin:miter;stroke-miterlimit:4;stroke-dasharray:none;stroke-opacity:1"
     d="m 243.077,74.682 c 0.24,0.068 0.235,1.214 0.756,1.255 0.52,0.037 0.781,-0.703 2.64,-1.411 l 0.021,-0.005 c 1.375,-0.469 2.38,-1.432 2.579,-2.667 0.328,-2.052 -1.663,-4.078 -4.448,-4.532 -2.792,-0.448 -5.319,0.85 -5.647,2.896 -0.317,1.964 1.495,3.907 4.099,4.464 z"
     id="path648" />
  <path
     style="fill:#231f20;fill-opacity:1;fill-rule:nonzero;stroke:none"
     d="m 214.38,37.193 c -3.823,1.219 -0.964,4.14 -0.828,4.593 1.495,4.782 1.729,5.088 3.125,8.646 2.02,5.146 4.192,8.36 7.531,8.062 2.265,-0.208 3.478,-1.306 3.849,-2.568 0.416,-1.4 -0.193,-4.52 -2.88,-5.572 l -1.027,-1.37 c -0.573,-1.006 -0.869,-1.506 -1.114,-2.026 -0.416,-0.917 -0.932,-1.854 -1.859,-3.584 -1.641,-3.057 -4.381,-5.754 -4.381,-5.754 -0.613,-1.079 -2.416,-0.427 -2.416,-0.427"
     id="path649" />
  <path
     style="fill:none;stroke:#231f20;stroke-width:0.565977;stroke-linecap:butt;stroke-linejoin:miter;stroke-miterlimit:4;stroke-dasharray:none;stroke-opacity:1"
     d="m 214.38,37.193 c -3.823,1.219 -0.964,4.14 -0.828,4.593 1.495,4.782 1.729,5.088 3.125,8.646 2.02,5.146 4.192,8.36 7.531,8.062 2.265,-0.208 3.478,-1.306 3.849,-2.568 0.416,-1.4 -0.193,-4.52 -2.88,-5.572 l -1.027,-1.37 c -0.573,-1.006 -0.869,-1.506 -1.114,-2.026 -0.416,-0.917 -0.932,-1.854 -1.859,-3.584 -1.641,-3.057 -4.381,-5.754 -4.381,-5.754 -0.613,-1.079 -2.416,-0.427 -2.416,-0.427 z"
     id="path650" />
  <path
     style="fill:#ca0369;fill-opacity:1;fill-rule:nonzero;stroke:none"
     d="m 225.177,50.354 -7.193,3.052 c 0.292,0.594 0.599,1.12 0.907,1.62 0.02,0.078 0.036,0.151 0.041,0.224 0.063,0.802 0.584,1.156 1.458,1.708 1.104,1.094 2.344,1.667 3.812,1.531 2.271,-0.203 3.484,-1.301 3.855,-2.563 0.416,-1.4 -0.193,-4.52 -2.88,-5.572"
     id="path651" />
  <path
     style="fill:none;stroke:#231f20;stroke-width:0.565977;stroke-linecap:butt;stroke-linejoin:miter;stroke-miterlimit:4;stroke-dasharray:none;stroke-opacity:1"
     d="m 225.177,50.354 -7.193,3.052 c 0.292,0.594 0.599,1.12 0.907,1.62 0.02,0.078 0.036,0.151 0.041,0.224 0.063,0.802 0.584,1.156 1.458,1.708 1.104,1.094 2.344,1.667 3.812,1.531 2.271,-0.203 3.484,-1.301 3.855,-2.563 0.416,-1.4 -0.193,-4.52 -2.88,-5.572 z"
     id="path652" />
  <path
     style="fill:#231f20;fill-opacity:1;fill-rule:nonzero;stroke:none"
     d="m 216.801,59.484 c 0.626,-0.146 2.35,0.761 3.953,0.901 1.079,0.099 3.475,1.443 4.558,1.459 1,0.016 1.453,0.114 1.63,1.254 0.099,0.672 -0.13,2.038 -0.636,2.142 -1.166,0.238 -2.088,0.046 -3.072,-0.38 -1.114,-0.486 -4.021,-2.074 -4.526,-2.418 -1.26,-0.849 -2,-0.797 -2.355,-0.994 -0.67,-0.364 -0.692,-0.708 -0.552,-1.194 0.272,-0.916 1,-0.77 1,-0.77"
     id="path653" />
  <path
     style="fill:none;stroke:#231f20;stroke-width:0.565977;stroke-linecap:butt;stroke-linejoin:miter;stroke-miterlimit:4;stroke-dasharray:none;stroke-opacity:1"
     d="m 216.801,59.484 c 0.626,-0.146 2.35,0.761 3.953,0.901 1.079,0.099 3.475,1.443 4.558,1.459 1,0.016 1.453,0.114 1.63,1.254 0.099,0.672 -0.13,2.038 -0.636,2.142 -1.166,0.238 -2.088,0.046 -3.072,-0.38 -1.114,-0.486 -4.021,-2.074 -4.526,-2.418 -1.26,-0.849 -2,-0.797 -2.355,-0.994 -0.67,-0.364 -0.692,-0.708 -0.552,-1.194 0.272,-0.916 1,-0.77 1,-0.77 z"
     id="path654" />
  <path
     style="fill:#231f20;fill-opacity:1;fill-rule:nonzero;stroke:none"
     d="m 225.338,62.51 c 0.563,-1.161 2.203,0.047 2.687,0.298 0.48,0.254 1.928,0.812 3.115,1.109 1.193,0.291 2.546,1.167 4.808,1.724 1.186,0.296 2.15,1.337 1.65,3.041 -0.489,1.683 -1.63,2.036 -3.01,1.463 -1.386,-0.572 -2.438,-1.697 -3.792,-2.375 -1.354,-0.672 -2.791,-1.234 -3.943,-1.62 -1.312,-0.442 -1.796,-1.145 -1.833,-1.624 -0.094,-1.193 0.318,-2.016 0.318,-2.016"
     id="path655" />
  <path
     style="fill:none;stroke:#231f20;stroke-width:0.565977;stroke-linecap:butt;stroke-linejoin:miter;stroke-miterlimit:4;stroke-dasharray:none;stroke-opacity:1"
     d="m 225.338,62.51 c 0.563,-1.161 2.203,0.047 2.687,0.298 0.48,0.254 1.928,0.812 3.115,1.109 1.193,0.291 2.546,1.167 4.808,1.724 1.186,0.296 2.15,1.337 1.65,3.041 -0.489,1.683 -1.63,2.036 -3.01,1.463 -1.386,-0.572 -2.438,-1.697 -3.792,-2.375 -1.354,-0.672 -2.791,-1.234 -3.943,-1.62 -1.312,-0.442 -1.796,-1.145 -1.833,-1.624 -0.094,-1.193 0.318,-2.016 0.318,-2.016 z"
     id="path656" />
  <path
     style="fill:#ffffff;fill-opacity:1;fill-rule:nonzero;stroke:#231f20;stroke-width:0.665856;stroke-linecap:butt;stroke-linejoin:miter;stroke-miterlimit:4;stroke-dasharray:none;stroke-opacity:1"
     d="m 214.932,50.084 h 1.333 V 17.073 h -1.333 z"
     id="path657" />
  <path
     style="fill:#ffffff;fill-opacity:1;fill-rule:nonzero;stroke:none"
     d="m 211.74,55.016 c 0,-2.355 1.911,-4.271 4.265,-4.271 2.354,0 4.265,1.916 4.265,4.271 0,2.353 -1.911,4.27 -4.265,4.27 -2.354,0 -4.265,-1.917 -4.265,-4.27 m -1.333,0 c 0,3.088 2.509,5.604 5.598,5.604 3.088,0 5.599,-2.516 5.599,-5.604 0,-3.09 -2.511,-5.599 -5.599,-5.599 -3.089,0 -5.598,2.509 -5.598,5.599"
     id="path658" />
  <path
     style="fill:none;stroke:#231f20;stroke-width:0.665856;stroke-linecap:butt;stroke-linejoin:miter;stroke-miterlimit:4;stroke-dasharray:none;stroke-opacity:1"
     d="m 211.74,55.016 c 0,-2.355 1.911,-4.271 4.265,-4.271 2.354,0 4.265,1.916 4.265,4.271 0,2.353 -1.911,4.27 -4.265,4.27 -2.354,0 -4.265,-1.917 -4.265,-4.27 z m -1.333,0 c 0,3.088 2.509,5.604 5.598,5.604 3.088,0 5.599,-2.516 5.599,-5.604 0,-3.09 -2.511,-5.599 -5.599,-5.599 -3.089,0 -5.598,2.509 -5.598,5.599 z"
     id="path659" />
  <path
     style="fill:#231f20;fill-opacity:1;fill-rule:nonzero;stroke:none"
     d="m 215.588,61.021 c -0.645,-0.271 -0.812,-2.579 -0.52,-2.704 0.291,-0.124 0.265,0.641 0.599,0.516 0.333,-0.125 0.276,-0.62 0.505,-0.64 0.249,-0.016 0.224,0.583 0.515,0.5 0.125,-0.037 0.36,-0.584 0.548,-0.543 0.161,0.038 0.342,0.527 0.478,0.563 0.203,0.057 0.276,-0.552 0.459,-0.52 0.459,0.077 -0.24,2.703 -0.453,2.812 -0.318,0.161 -1.088,0.448 -2.131,0.016"
     id="path660" />
  <path
     style="fill:none;stroke:#231f20;stroke-width:0.565977;stroke-linecap:round;stroke-linejoin:round;stroke-miterlimit:4;stroke-dasharray:none;stroke-opacity:1"
     d="m 215.588,61.021 c -0.645,-0.271 -0.812,-2.579 -0.52,-2.704 0.291,-0.124 0.265,0.641 0.599,0.516 0.333,-0.125 0.276,-0.62 0.505,-0.64 0.249,-0.016 0.224,0.583 0.515,0.5 0.125,-0.037 0.36,-0.584 0.548,-0.543 0.161,0.038 0.342,0.527 0.478,0.563 0.203,0.057 0.276,-0.552 0.459,-0.52 0.459,0.077 -0.24,2.703 -0.453,2.812 -0.318,0.161 -1.088,0.448 -2.131,0.016 z"
     id="path661" />
  <path
     style="fill:#ffffff;fill-opacity:1;fill-rule:nonzero;stroke:#231f20;stroke-width:0.665856;stroke-linecap:butt;stroke-linejoin:miter;stroke-miterlimit:4;stroke-dasharray:none;stroke-opacity:1"
     d="m 111.749,17.229 -5.374,32.547 1.312,0.224 5.376,-32.547 z"
     id="path662" />
  <path
     style="fill:#ffffff;fill-opacity:1;fill-rule:nonzero;stroke:none"
     d="m 101.989,54.032 c 0.396,-2.324 2.61,-3.887 4.927,-3.486 2.324,0.402 3.885,2.61 3.485,4.932 -0.396,2.319 -2.614,3.882 -4.933,3.48 -2.317,-0.396 -3.88,-2.609 -3.479,-4.926 m -1.312,-0.23 c -0.526,3.042 1.526,5.948 4.567,6.468 3.043,0.527 5.943,-1.525 6.469,-4.568 0.527,-3.041 -1.526,-5.942 -4.568,-6.468 -3.046,-0.526 -5.948,1.526 -6.468,4.568"
     id="path663" />
  <path
     style="fill:none;stroke:#231f20;stroke-width:0.665856;stroke-linecap:butt;stroke-linejoin:miter;stroke-miterlimit:4;stroke-dasharray:none;stroke-opacity:1"
     d="m 101.989,54.032 c 0.396,-2.324 2.61,-3.887 4.927,-3.486 2.324,0.402 3.885,2.61 3.485,4.932 -0.396,2.319 -2.614,3.882 -4.933,3.48 -2.317,-0.396 -3.88,-2.609 -3.479,-4.926 z m -1.312,-0.23 c -0.526,3.042 1.526,5.948 4.567,6.468 3.043,0.527 5.943,-1.525 6.469,-4.568 0.527,-3.041 -1.526,-5.942 -4.568,-6.468 -3.046,-0.526 -5.948,1.526 -6.468,4.568 z"
     id="path664" />
  <path
     style="fill:#ffffff;fill-opacity:1;fill-rule:nonzero;stroke:#231f20;stroke-width:0.665856;stroke-linecap:butt;stroke-linejoin:miter;stroke-miterlimit:4;stroke-dasharray:none;stroke-opacity:1"
     d="M 83.26,17.136 86.411,49.989 87.735,49.854 84.588,17 Z"
     id="path665" />
  <path
     style="fill:#ffffff;fill-opacity:1;fill-rule:nonzero;stroke:none"
     d="m 86.198,50.36 c 2.291,-0.527 4.589,0.91 5.114,3.208 0.527,2.297 -0.911,4.588 -3.208,5.114 -2.292,0.526 -4.588,-0.912 -5.114,-3.208 -0.527,-2.292 0.912,-4.584 3.208,-5.114 m -0.302,-1.298 c -3.005,0.694 -4.896,3.703 -4.204,6.714 0.694,3.01 3.699,4.896 6.709,4.208 3.01,-0.692 4.896,-3.703 4.208,-6.714 -0.688,-3.01 -3.702,-4.896 -6.713,-4.208"
     id="path666" />
  <path
     style="fill:none;stroke:#231f20;stroke-width:0.665856;stroke-linecap:butt;stroke-linejoin:miter;stroke-miterlimit:4;stroke-dasharray:none;stroke-opacity:1"
     d="m 86.198,50.36 c 2.291,-0.527 4.589,0.91 5.114,3.208 0.527,2.297 -0.911,4.588 -3.208,5.114 -2.292,0.526 -4.588,-0.912 -5.114,-3.208 -0.527,-2.292 0.912,-4.584 3.208,-5.114 z m -0.302,-1.298 c -3.005,0.694 -4.896,3.703 -4.204,6.714 0.694,3.01 3.699,4.896 6.709,4.208 3.01,-0.692 4.896,-3.703 4.208,-6.714 -0.688,-3.01 -3.702,-4.896 -6.713,-4.208 z"
     id="path667" />
  <path
     style="fill:#231f20;fill-opacity:1;fill-rule:nonzero;stroke:none"
     d="m 16.011,36.614 c 1.312,-0.338 1.88,0.475 1.791,1.511 -0.026,0.307 0.266,0.599 0.214,0.901 -0.114,0.692 -1.578,1.646 -2.682,0.63 -0.079,-0.072 -0.823,-0.416 -1.334,-0.76 -1.005,-0.678 -2.693,-2.527 -2.546,-5.214 0.066,-1.281 0.806,-1.005 0.942,-0.474 0.4,1.657 0.766,1.724 1.026,2.125 0.901,1.349 2.589,1.281 2.589,1.281"
     id="path668" />
  <path
     style="fill:none;stroke:#231f20;stroke-width:0.332927;stroke-linecap:butt;stroke-linejoin:miter;stroke-miterlimit:4;stroke-dasharray:none;stroke-opacity:1"
     d="m 16.011,36.614 c 1.312,-0.338 1.88,0.475 1.791,1.511 -0.026,0.307 0.266,0.599 0.214,0.901 -0.114,0.692 -1.578,1.646 -2.682,0.63 -0.079,-0.072 -0.823,-0.416 -1.334,-0.76 -1.005,-0.678 -2.693,-2.527 -2.546,-5.214 0.066,-1.281 0.806,-1.005 0.942,-0.474 0.4,1.657 0.766,1.724 1.026,2.125 0.901,1.349 2.589,1.281 2.589,1.281 z"
     id="path669" />
  <path
     style="fill:#231f20;fill-opacity:1;fill-rule:nonzero;stroke:none"
     d="m 29.631,49.5 c 1.624,-1.579 1.728,-2.104 1.109,-2.834 -0.406,-0.484 -0.63,-1.082 -0.865,-1.39 -0.792,-1.031 -2.541,-2.432 -8.557,-5.11 -1.364,-0.609 -3.271,-1.473 -4.02,-1.89 -1.194,-0.656 -1.48,1.76 -1.016,2.021 1.489,0.848 2.453,1.552 2.942,1.927 0.339,0.26 1,0.641 2.187,1.812 1.792,1.776 2.605,3.109 4.267,4.417 0.776,0.609 0.968,1.552 2.03,1.765 1.068,0.208 1.923,-0.718 1.923,-0.718"
     id="path670" />
  <path
     style="fill:none;stroke:#231f20;stroke-width:0.565977;stroke-linecap:butt;stroke-linejoin:miter;stroke-miterlimit:4;stroke-dasharray:none;stroke-opacity:1"
     d="m 29.631,49.5 c 1.624,-1.579 1.728,-2.104 1.109,-2.834 -0.406,-0.484 -0.63,-1.082 -0.865,-1.39 -0.792,-1.031 -2.541,-2.432 -8.557,-5.11 -1.364,-0.609 -3.271,-1.473 -4.02,-1.89 -1.194,-0.656 -1.48,1.76 -1.016,2.021 1.489,0.848 2.453,1.552 2.942,1.927 0.339,0.26 1,0.641 2.187,1.812 1.792,1.776 2.605,3.109 4.267,4.417 0.776,0.609 0.968,1.552 2.03,1.765 1.068,0.208 1.923,-0.718 1.923,-0.718 z"
     id="path671" />
  <path
     style="fill:#ca0369;fill-opacity:1;fill-rule:nonzero;stroke:none"
     d="m 52.006,56.989 c -3.131,0.073 -3.808,-0.255 -4.667,-0.599 -5.365,-2.145 -6.323,0.527 -5.735,3.355 0.688,3.323 0.87,4.52 7.12,3.781 1.739,-0.209 8.511,-0.125 8.511,-0.125 2.421,0.355 4.973,-0.593 5.76,-1.813 0.839,-1.291 0.412,-0.843 0.964,-2.176 0.525,-1.271 0.224,-3.438 -0.824,-4.1 -1,-0.63 -2.489,0.12 -4.776,0.928 -1.801,0.629 -6.353,0.749 -6.353,0.749"
     id="path672" />
  <path
     style="fill:none;stroke:#231f20;stroke-width:0.565977;stroke-linecap:butt;stroke-linejoin:miter;stroke-miterlimit:4;stroke-dasharray:none;stroke-opacity:1"
     d="m 52.006,56.989 c -3.131,0.073 -3.808,-0.255 -4.667,-0.599 -5.365,-2.145 -6.323,0.527 -5.735,3.355 0.688,3.323 0.87,4.52 7.12,3.781 1.739,-0.209 8.511,-0.125 8.511,-0.125 2.421,0.355 4.973,-0.593 5.76,-1.813 0.839,-1.291 0.412,-0.843 0.964,-2.176 0.525,-1.271 0.224,-3.438 -0.824,-4.1 -1,-0.63 -2.489,0.12 -4.776,0.928 -1.801,0.629 -6.353,0.749 -6.353,0.749 z"
     id="path673" />
  <path
     style="fill:#ffffff;fill-opacity:1;fill-rule:nonzero;stroke:none"
     d="m 70.036,60.901 c 0.246,0.02 0.475,1.145 0.995,1.083 0.516,-0.067 0.62,-0.848 2.297,-1.916 l 0.022,-0.011 c 1.254,-0.74 2.041,-1.885 1.984,-3.136 -0.09,-2.072 -2.448,-3.656 -5.271,-3.536 -2.823,0.125 -5.037,1.907 -4.943,3.98 0.083,1.984 2.255,3.52 4.916,3.536"
     id="path674" />
  <path
     style="fill:none;stroke:#231f20;stroke-width:0.565977;stroke-linecap:butt;stroke-linejoin:miter;stroke-miterlimit:4;stroke-dasharray:none;stroke-opacity:1"
     d="m 70.036,60.901 c 0.246,0.02 0.475,1.145 0.995,1.083 0.516,-0.067 0.62,-0.848 2.297,-1.916 l 0.022,-0.011 c 1.254,-0.74 2.041,-1.885 1.984,-3.136 -0.09,-2.072 -2.448,-3.656 -5.271,-3.536 -2.823,0.125 -5.037,1.907 -4.943,3.98 0.083,1.984 2.255,3.52 4.916,3.536 z"
     id="path675" />
  <path
     style="fill:#231f20;fill-opacity:1;fill-rule:nonzero;stroke:none"
     d="m 28.364,47.374 c -3.109,2.538 0.61,4.21 0.918,4.584 3.145,3.896 3.468,4.094 6.072,6.896 3.766,4.042 6.969,6.239 9.964,4.734 2.026,-1.02 2.756,-2.49 2.641,-3.802 -0.125,-1.453 -1.833,-4.136 -4.724,-4.12 L 41.771,54.77 C 40.875,54.036 40.416,53.682 40,53.286 39.276,52.593 38.448,51.906 36.959,50.641 34.302,48.396 30.771,46.89 30.771,46.89 c -0.975,-0.781 -2.407,0.484 -2.407,0.484"
     id="path676" />
  <path
     style="fill:none;stroke:#231f20;stroke-width:0.565977;stroke-linecap:butt;stroke-linejoin:miter;stroke-miterlimit:4;stroke-dasharray:none;stroke-opacity:1"
     d="m 28.364,47.374 c -3.109,2.538 0.61,4.21 0.918,4.584 3.145,3.896 3.468,4.094 6.072,6.896 3.766,4.042 6.969,6.239 9.964,4.734 2.026,-1.02 2.756,-2.49 2.641,-3.802 -0.125,-1.453 -1.833,-4.136 -4.724,-4.12 L 41.771,54.77 C 40.875,54.036 40.416,53.682 40,53.286 39.276,52.593 38.448,51.906 36.959,50.641 34.302,48.396 30.771,46.89 30.771,46.89 c -0.975,-0.781 -2.407,0.484 -2.407,0.484 z"
     id="path677" />
  <path
     style="fill:#ca0369;fill-opacity:1;fill-rule:nonzero;stroke:none"
     d="m 47.959,59.786 c -0.125,-1.448 -1.833,-4.13 -4.724,-4.12 l -5.573,5.479 c 0.489,0.433 0.964,0.813 1.432,1.163 0.046,0.066 0.093,0.134 0.125,0.202 0.359,0.719 0.968,0.859 1.989,1.052 1.427,0.61 2.787,0.688 4.11,0.026 2.032,-1.02 2.756,-2.49 2.641,-3.802"
     id="path678" />
  <path
     style="fill:none;stroke:#231f20;stroke-width:0.565977;stroke-linecap:butt;stroke-linejoin:miter;stroke-miterlimit:4;stroke-dasharray:none;stroke-opacity:1"
     d="m 47.959,59.786 c -0.125,-1.448 -1.833,-4.13 -4.724,-4.12 l -5.573,5.479 c 0.489,0.433 0.964,0.813 1.432,1.163 0.046,0.066 0.093,0.134 0.125,0.202 0.359,0.719 0.968,0.859 1.989,1.052 1.427,0.61 2.787,0.688 4.11,0.026 2.032,-1.02 2.756,-2.49 2.641,-3.802 z"
     id="path679" />
  <path
     style="fill:#231f20;fill-opacity:1;fill-rule:nonzero;stroke:none"
     d="m 81.62,56.193 c -0.48,0.432 -2.422,0.479 -3.896,1.135 -0.989,0.437 -3.734,0.432 -4.693,0.942 -0.875,0.47 -1.323,0.604 -2.031,-0.306 -0.417,-0.538 -0.874,-1.844 -0.489,-2.178 0.905,-0.776 1.807,-1.062 2.869,-1.161 1.214,-0.12 4.522,-0.147 5.136,-0.093 1.515,0.134 2.13,-0.272 2.536,-0.272 0.76,-0.01 0.954,0.281 1.063,0.772 0.208,0.937 -0.495,1.161 -0.495,1.161"
     id="path680" />
  <path
     style="fill:none;stroke:#231f20;stroke-width:0.565977;stroke-linecap:butt;stroke-linejoin:miter;stroke-miterlimit:4;stroke-dasharray:none;stroke-opacity:1"
     d="m 81.62,56.193 c -0.48,0.432 -2.422,0.479 -3.896,1.135 -0.989,0.437 -3.734,0.432 -4.693,0.942 -0.875,0.47 -1.323,0.604 -2.031,-0.306 -0.417,-0.538 -0.874,-1.844 -0.489,-2.178 0.905,-0.776 1.807,-1.062 2.869,-1.161 1.214,-0.12 4.522,-0.147 5.136,-0.093 1.515,0.134 2.13,-0.272 2.536,-0.272 0.76,-0.01 0.954,0.281 1.063,0.772 0.208,0.937 -0.495,1.161 -0.495,1.161 z"
     id="path681" />
  <path
     style="fill:#231f20;fill-opacity:1;fill-rule:nonzero;stroke:none"
     d="m 72.683,57.698 c 0.077,1.291 -1.943,1.031 -2.485,1.047 -0.542,0.015 -2.088,0.229 -3.266,0.547 -1.182,0.322 -2.797,0.218 -5.041,0.828 -1.177,0.317 -2.532,-0.12 -2.917,-1.85 -0.386,-1.713 0.433,-2.577 1.917,-2.744 1.484,-0.172 2.953,0.296 4.468,0.224 1.511,-0.062 3.043,-0.276 4.235,-0.496 1.36,-0.249 2.125,0.131 2.39,0.527 0.662,1 0.699,1.917 0.699,1.917"
     id="path682" />
  <path
     style="fill:none;stroke:#231f20;stroke-width:0.565977;stroke-linecap:butt;stroke-linejoin:miter;stroke-miterlimit:4;stroke-dasharray:none;stroke-opacity:1"
     d="m 72.683,57.698 c 0.077,1.291 -1.943,1.031 -2.485,1.047 -0.542,0.015 -2.088,0.229 -3.266,0.547 -1.182,0.322 -2.797,0.218 -5.041,0.828 -1.177,0.317 -2.532,-0.12 -2.917,-1.85 -0.386,-1.713 0.433,-2.577 1.917,-2.744 1.484,-0.172 2.953,0.296 4.468,0.224 1.511,-0.062 3.043,-0.276 4.235,-0.496 1.36,-0.249 2.125,0.131 2.39,0.527 0.662,1 0.699,1.917 0.699,1.917 z"
     id="path683" />
  <path
     style="fill:#231f20;fill-opacity:1;fill-rule:nonzero;stroke:none"
     d="m 81.391,54.322 c 0.187,-0.677 2.459,-1.134 2.62,-0.858 0.161,0.276 -0.604,0.344 -0.437,0.656 0.166,0.317 0.65,0.197 0.697,0.421 0.052,0.251 -0.547,0.297 -0.427,0.579 0.047,0.12 0.619,0.281 0.604,0.468 -0.021,0.168 -0.48,0.412 -0.5,0.548 -0.032,0.208 0.583,0.208 0.572,0.385 -0.025,0.468 -2.713,0.104 -2.848,-0.095 -0.198,-0.296 -0.584,-1.02 -0.281,-2.104"
     id="path684" />
  <path
     style="fill:none;stroke:#231f20;stroke-width:0.565977;stroke-linecap:round;stroke-linejoin:round;stroke-miterlimit:4;stroke-dasharray:none;stroke-opacity:1"
     d="m 81.391,54.322 c 0.187,-0.677 2.459,-1.134 2.62,-0.858 0.161,0.276 -0.604,0.344 -0.437,0.656 0.166,0.317 0.65,0.197 0.697,0.421 0.052,0.251 -0.547,0.297 -0.427,0.579 0.047,0.12 0.619,0.281 0.604,0.468 -0.021,0.168 -0.48,0.412 -0.5,0.548 -0.032,0.208 0.583,0.208 0.572,0.385 -0.025,0.468 -2.713,0.104 -2.848,-0.095 -0.198,-0.296 -0.584,-1.02 -0.281,-2.104 z"
     id="path685" />
  <path
     style="fill:#231f20;fill-opacity:1;fill-rule:nonzero;stroke:none"
     d="m 74.187,127.422 c -0.504,-1.256 0.22,-1.933 1.256,-1.98 0.307,-0.025 0.557,-0.349 0.859,-0.344 0.704,0.021 1.854,1.339 0.996,2.573 -0.058,0.084 -0.303,0.87 -0.574,1.427 -0.537,1.089 -2.136,3.011 -4.822,3.235 -1.271,0.104 -1.1,-0.667 -0.595,-0.864 1.589,-0.636 1.609,-1 1.964,-1.319 1.219,-1.072 0.916,-2.728 0.916,-2.728"
     id="path686" />
  <path
     style="fill:none;stroke:#231f20;stroke-width:0.332927;stroke-linecap:butt;stroke-linejoin:miter;stroke-miterlimit:4;stroke-dasharray:none;stroke-opacity:1"
     d="m 74.187,127.422 c -0.504,-1.256 0.22,-1.933 1.256,-1.98 0.307,-0.025 0.557,-0.349 0.859,-0.344 0.704,0.021 1.854,1.339 0.996,2.573 -0.058,0.084 -0.303,0.87 -0.574,1.427 -0.537,1.089 -2.136,3.011 -4.822,3.235 -1.271,0.104 -1.1,-0.667 -0.595,-0.864 1.589,-0.636 1.609,-1 1.964,-1.319 1.219,-1.072 0.916,-2.728 0.916,-2.728 z"
     id="path687" />
  <path
     style="fill:#231f20;fill-opacity:1;fill-rule:nonzero;stroke:none"
     d="m 85.094,112.161 c -1.782,-1.396 -2.318,-1.422 -2.959,-0.714 -0.427,0.479 -0.984,0.771 -1.26,1.052 -0.907,0.923 -2.057,2.85 -3.891,9.172 -0.416,1.438 -1.016,3.448 -1.322,4.246 -0.49,1.265 1.942,1.218 2.14,0.724 0.636,-1.59 1.198,-2.636 1.505,-3.178 0.213,-0.37 0.495,-1.078 1.5,-2.412 1.516,-2.02 2.724,-3.005 3.792,-4.833 0.495,-0.844 1.407,-1.172 1.469,-2.249 0.062,-1.084 -0.974,-1.808 -0.974,-1.808"
     id="path688" />
  <path
     style="fill:none;stroke:#231f20;stroke-width:0.565977;stroke-linecap:butt;stroke-linejoin:miter;stroke-miterlimit:4;stroke-dasharray:none;stroke-opacity:1"
     d="m 85.094,112.161 c -1.782,-1.396 -2.318,-1.422 -2.959,-0.714 -0.427,0.479 -0.984,0.771 -1.26,1.052 -0.907,0.923 -2.057,2.85 -3.891,9.172 -0.416,1.438 -1.016,3.448 -1.322,4.246 -0.49,1.265 1.942,1.218 2.14,0.724 0.636,-1.59 1.198,-2.636 1.505,-3.178 0.213,-0.37 0.495,-1.078 1.5,-2.412 1.516,-2.02 2.724,-3.005 3.792,-4.833 0.495,-0.844 1.407,-1.172 1.469,-2.249 0.062,-1.084 -0.974,-1.808 -0.974,-1.808 z"
     id="path689" />
  <path
     style="fill:#ca0369;fill-opacity:1;fill-rule:nonzero;stroke:none"
     d="m 94.161,88.098 c -1.052,2.954 -1.604,3.47 -2.224,4.147 -3.926,4.244 -1.765,6.088 1.079,6.552 3.343,0.547 4.536,0.807 6.077,-5.297 0.427,-1.698 2.923,-7.995 2.923,-7.995 1.197,-2.136 1.224,-4.855 0.364,-6.031 -0.907,-1.234 -0.636,-0.677 -1.688,-1.672 -0.995,-0.948 -3.124,-1.437 -4.119,-0.698 -0.953,0.708 -0.777,2.365 -0.838,4.786 -0.058,1.912 -1.574,6.208 -1.574,6.208"
     id="path690" />
  <path
     style="fill:none;stroke:#231f20;stroke-width:0.565977;stroke-linecap:butt;stroke-linejoin:miter;stroke-miterlimit:4;stroke-dasharray:none;stroke-opacity:1"
     d="m 94.161,88.098 c -1.052,2.954 -1.604,3.47 -2.224,4.147 -3.926,4.244 -1.765,6.088 1.079,6.552 3.343,0.547 4.536,0.807 6.077,-5.297 0.427,-1.698 2.923,-7.995 2.923,-7.995 1.197,-2.136 1.224,-4.855 0.364,-6.031 -0.907,-1.234 -0.636,-0.677 -1.688,-1.672 -0.995,-0.948 -3.124,-1.437 -4.119,-0.698 -0.953,0.708 -0.777,2.365 -0.838,4.786 -0.058,1.912 -1.574,6.208 -1.574,6.208 z"
     id="path691" />
  <path
     style="fill:#ffffff;fill-opacity:1;fill-rule:nonzero;stroke:none"
     d="m 106.129,74.62 c 0.163,-0.183 1.188,0.344 1.459,-0.11 0.271,-0.448 -0.276,-1.016 -0.072,-2.994 v -0.022 c 0.203,-1.437 -0.209,-2.765 -1.229,-3.5 -1.683,-1.218 -4.386,-0.349 -6.043,1.943 -1.651,2.292 -1.629,5.131 0.057,6.344 1.61,1.167 4.162,0.417 5.828,-1.661"
     id="path692" />
  <path
     style="fill:none;stroke:#231f20;stroke-width:0.565977;stroke-linecap:butt;stroke-linejoin:miter;stroke-miterlimit:4;stroke-dasharray:none;stroke-opacity:1"
     d="m 106.129,74.62 c 0.163,-0.183 1.188,0.344 1.459,-0.11 0.271,-0.448 -0.276,-1.016 -0.072,-2.994 v -0.022 c 0.203,-1.437 -0.209,-2.765 -1.229,-3.5 -1.683,-1.218 -4.386,-0.349 -6.043,1.943 -1.651,2.292 -1.629,5.131 0.057,6.344 1.61,1.167 4.162,0.417 5.828,-1.661 z"
     id="path693" />
  <path
     style="fill:#231f20;fill-opacity:1;fill-rule:nonzero;stroke:none"
     d="m 83.162,113.707 c 2.937,2.735 4.087,-1.181 4.415,-1.53 3.428,-3.651 3.584,-4 6,-6.964 3.491,-4.282 5.23,-7.749 3.33,-10.511 -1.287,-1.874 -2.839,-2.394 -4.12,-2.104 -1.428,0.328 -3.85,2.386 -3.443,5.246 l -0.688,1.573 c -0.599,0.994 -0.891,1.489 -1.224,1.957 -0.588,0.819 -1.161,1.724 -2.208,3.376 -1.865,2.932 -2.865,6.64 -2.865,6.64 -0.645,1.068 0.803,2.317 0.803,2.317"
     id="path694" />
  <path
     style="fill:none;stroke:#231f20;stroke-width:0.565977;stroke-linecap:butt;stroke-linejoin:miter;stroke-miterlimit:4;stroke-dasharray:none;stroke-opacity:1"
     d="m 83.162,113.707 c 2.937,2.735 4.087,-1.181 4.415,-1.53 3.428,-3.651 3.584,-4 6,-6.964 3.491,-4.282 5.23,-7.749 3.33,-10.511 -1.287,-1.874 -2.839,-2.394 -4.12,-2.104 -1.428,0.328 -3.85,2.386 -3.443,5.246 l -0.688,1.573 c -0.599,0.994 -0.891,1.489 -1.224,1.957 -0.588,0.819 -1.161,1.724 -2.208,3.376 -1.865,2.932 -2.865,6.64 -2.865,6.64 -0.645,1.068 0.803,2.317 0.803,2.317 z"
     id="path695" />
  <path
     style="fill:#ca0369;fill-opacity:1;fill-rule:nonzero;stroke:none"
     d="m 96.604,94.317 c -1.453,-1.749 -3.047,-2.124 -4.303,-1.719 -1.385,0.459 -3.614,2.724 -2.948,5.538 l 6.595,4.186 c 0.317,-0.572 0.577,-1.12 0.812,-1.656 0.052,-0.063 0.109,-0.12 0.167,-0.167 0.625,-0.51 0.625,-1.139 0.578,-2.182 0.276,-1.525 0.042,-2.864 -0.901,-4"
     id="path696" />
  <path
     style="fill:none;stroke:#231f20;stroke-width:0.565977;stroke-linecap:butt;stroke-linejoin:miter;stroke-miterlimit:4;stroke-dasharray:none;stroke-opacity:1"
     d="m 96.604,94.317 c -1.453,-1.749 -3.047,-2.124 -4.303,-1.719 -1.385,0.459 -3.614,2.724 -2.948,5.538 l 6.595,4.186 c 0.317,-0.572 0.577,-1.12 0.812,-1.656 0.052,-0.063 0.109,-0.12 0.167,-0.167 0.625,-0.51 0.625,-1.139 0.578,-2.182 0.276,-1.525 0.042,-2.864 -0.901,-4 z"
     id="path697" />
  <path
     style="fill:#231f20;fill-opacity:1;fill-rule:nonzero;stroke:none"
     d="m 106.02,60.718 c 0.172,0.626 -0.661,2.38 -0.744,3.99 -0.052,1.084 -1.303,3.532 -1.271,4.614 0.02,0.99 -0.062,1.448 -1.193,1.672 -0.672,0.131 -2.041,-0.046 -2.167,-0.546 -0.281,-1.151 -0.129,-2.088 0.262,-3.088 0.437,-1.131 1.91,-4.1 2.228,-4.62 0.808,-1.292 0.718,-2.027 0.901,-2.386 0.339,-0.682 0.683,-0.724 1.172,-0.598 0.927,0.233 0.812,0.962 0.812,0.962"
     id="path698" />
  <path
     style="fill:none;stroke:#231f20;stroke-width:0.565977;stroke-linecap:butt;stroke-linejoin:miter;stroke-miterlimit:4;stroke-dasharray:none;stroke-opacity:1"
     d="m 106.02,60.718 c 0.172,0.626 -0.661,2.38 -0.744,3.99 -0.052,1.084 -1.303,3.532 -1.271,4.614 0.02,0.99 -0.062,1.448 -1.193,1.672 -0.672,0.131 -2.041,-0.046 -2.167,-0.546 -0.281,-1.151 -0.129,-2.088 0.262,-3.088 0.437,-1.131 1.91,-4.1 2.228,-4.62 0.808,-1.292 0.718,-2.027 0.901,-2.386 0.339,-0.682 0.683,-0.724 1.172,-0.598 0.927,0.233 0.812,0.962 0.812,0.962 z"
     id="path699" />
  <path
     style="fill:#231f20;fill-opacity:1;fill-rule:nonzero;stroke:none"
     d="m 103.328,69.369 c 1.192,0.521 0.047,2.204 -0.183,2.693 -0.234,0.495 -0.738,1.964 -0.984,3.162 -0.245,1.202 -1.068,2.593 -1.536,4.874 -0.25,1.194 -1.245,2.204 -2.969,1.771 -1.703,-0.432 -2.104,-1.547 -1.583,-2.952 0.515,-1.407 1.599,-2.505 2.219,-3.885 0.619,-1.376 1.124,-2.839 1.468,-4 0.385,-1.334 1.073,-1.844 1.547,-1.902 1.188,-0.136 2.021,0.239 2.021,0.239"
     id="path700" />
  <path
     style="fill:none;stroke:#231f20;stroke-width:0.565977;stroke-linecap:butt;stroke-linejoin:miter;stroke-miterlimit:4;stroke-dasharray:none;stroke-opacity:1"
     d="m 103.328,69.369 c 1.192,0.521 0.047,2.204 -0.183,2.693 -0.234,0.495 -0.738,1.964 -0.984,3.162 -0.245,1.202 -1.068,2.593 -1.536,4.874 -0.25,1.194 -1.245,2.204 -2.969,1.771 -1.703,-0.432 -2.104,-1.547 -1.583,-2.952 0.515,-1.407 1.599,-2.505 2.219,-3.885 0.619,-1.376 1.124,-2.839 1.468,-4 0.385,-1.334 1.073,-1.844 1.547,-1.902 1.188,-0.136 2.021,0.239 2.021,0.239 z"
     id="path701" />
  <path
     style="fill:#231f20;fill-opacity:1;fill-rule:nonzero;stroke:none"
     d="m 104.317,60.24 c -0.588,-0.38 -0.364,-2.683 -0.057,-2.756 0.308,-0.072 0.151,0.677 0.505,0.609 0.35,-0.067 0.375,-0.567 0.604,-0.547 0.251,0.022 0.126,0.615 0.427,0.584 0.125,-0.016 0.448,-0.516 0.625,-0.442 0.156,0.062 0.256,0.577 0.375,0.634 0.199,0.095 0.376,-0.494 0.543,-0.437 0.437,0.161 -0.694,2.631 -0.928,2.699 -0.338,0.104 -1.146,0.26 -2.094,-0.344"
     id="path702" />
  <path
     style="fill:none;stroke:#231f20;stroke-width:0.565977;stroke-linecap:round;stroke-linejoin:round;stroke-miterlimit:4;stroke-dasharray:none;stroke-opacity:1"
     d="m 104.317,60.24 c -0.588,-0.38 -0.364,-2.683 -0.057,-2.756 0.308,-0.072 0.151,0.677 0.505,0.609 0.35,-0.067 0.375,-0.567 0.604,-0.547 0.251,0.022 0.126,0.615 0.427,0.584 0.125,-0.016 0.448,-0.516 0.625,-0.442 0.156,0.062 0.256,0.577 0.375,0.634 0.199,0.095 0.376,-0.494 0.543,-0.437 0.437,0.161 -0.694,2.631 -0.928,2.699 -0.338,0.104 -1.146,0.26 -2.094,-0.344 z"
     id="path703" />
  <path
     style="fill:none;stroke:#231f20;stroke-width:0.399514;stroke-linecap:butt;stroke-linejoin:miter;stroke-miterlimit:4;stroke-dasharray:none;stroke-opacity:1"
     d="m 74.036,107.921 c 1.871,2.406 34.48,12.11 65.475,9.766 26.41,-2 39.858,-10.969 42.478,-17.302"
     id="path704" />
  <path
     style="fill:#231f20;fill-opacity:1;fill-rule:nonzero;stroke:none"
     d="m 182.453,99.27 c -0.026,0.604 0.036,1.391 0.224,1.943 l -0.745,-0.682 -1.011,-0.048 c 0.516,-0.26 1.12,-0.77 1.532,-1.213"
     id="path705" />
  <path
     style="fill:#ffffff;fill-opacity:1;fill-rule:nonzero;stroke:#231f20;stroke-width:0.665856;stroke-linecap:butt;stroke-linejoin:miter;stroke-miterlimit:4;stroke-dasharray:none;stroke-opacity:1"
     d="m 124.391,17.322 10.916,31.068 1.25,-0.458 -10.917,-31.067 z"
     id="path706" />
  <path
     style="fill:#ffffff;fill-opacity:1;fill-rule:nonzero;stroke:none"
     d="m 133.625,54.265 c -0.813,-2.208 0.323,-4.667 2.536,-5.479 2.208,-0.812 4.667,0.328 5.479,2.536 0.808,2.21 -0.328,4.667 -2.541,5.48 -2.208,0.812 -4.667,-0.328 -5.474,-2.537 m -1.25,0.459 c 1.062,2.896 4.286,4.39 7.188,3.328 2.896,-1.068 4.39,-4.292 3.328,-7.187 -1.068,-2.901 -4.292,-4.391 -7.188,-3.329 -2.902,1.062 -4.396,4.286 -3.328,7.188"
     id="path707" />
  <path
     style="fill:none;stroke:#231f20;stroke-width:0.665856;stroke-linecap:butt;stroke-linejoin:miter;stroke-miterlimit:4;stroke-dasharray:none;stroke-opacity:1"
     d="m 133.625,54.265 c -0.813,-2.208 0.323,-4.667 2.536,-5.479 2.208,-0.812 4.667,0.328 5.479,2.536 0.808,2.21 -0.328,4.667 -2.541,5.48 -2.208,0.812 -4.667,-0.328 -5.474,-2.537 z m -1.25,0.459 c 1.062,2.896 4.286,4.39 7.188,3.328 2.896,-1.068 4.39,-4.292 3.328,-7.187 -1.068,-2.901 -4.292,-4.391 -7.188,-3.329 -2.902,1.062 -4.396,4.286 -3.328,7.188 z"
     id="path708" />
  <path
     style="fill:#231f20;fill-opacity:1;fill-rule:nonzero;stroke:none"
     d="m 185.421,41.448 c 0.418,1.286 -0.358,1.906 -1.396,1.885 -0.301,-0.005 -0.577,0.308 -0.88,0.276 -0.702,-0.077 -1.749,-1.468 -0.801,-2.64 0.063,-0.079 0.359,-0.839 0.672,-1.381 0.615,-1.047 2.348,-2.843 5.041,-2.87 1.276,-0.016 1.052,0.74 0.531,0.896 -1.629,0.516 -1.672,0.891 -2.052,1.172 -1.292,0.984 -1.115,2.662 -1.115,2.662"
     id="path709" />
  <path
     style="fill:none;stroke:#231f20;stroke-width:0.332927;stroke-linecap:butt;stroke-linejoin:miter;stroke-miterlimit:4;stroke-dasharray:none;stroke-opacity:1"
     d="m 185.421,41.448 c 0.418,1.286 -0.358,1.906 -1.396,1.885 -0.301,-0.005 -0.577,0.308 -0.88,0.276 -0.702,-0.077 -1.749,-1.468 -0.801,-2.64 0.063,-0.079 0.359,-0.839 0.672,-1.381 0.615,-1.047 2.348,-2.843 5.041,-2.87 1.276,-0.016 1.052,0.74 0.531,0.896 -1.629,0.516 -1.672,0.891 -2.052,1.172 -1.292,0.984 -1.115,2.662 -1.115,2.662 z"
     id="path710" />
  <path
     style="fill:#231f20;fill-opacity:1;fill-rule:nonzero;stroke:none"
     d="m 173.443,55.874 c 1.677,1.522 2.208,1.59 2.896,0.928 0.462,-0.448 1.041,-0.698 1.333,-0.958 0.973,-0.85 2.26,-2.694 4.547,-8.87 0.521,-1.401 1.26,-3.36 1.625,-4.136 0.583,-1.229 -1.849,-1.36 -2.084,-0.874 -0.749,1.536 -1.385,2.541 -1.735,3.057 -0.233,0.353 -0.566,1.041 -1.666,2.291 -1.656,1.912 -2.938,2.802 -4.13,4.553 -0.552,0.807 -1.489,1.067 -1.625,2.14 -0.145,1.073 0.839,1.869 0.839,1.869"
     id="path711" />
  <path
     style="fill:none;stroke:#231f20;stroke-width:0.565977;stroke-linecap:butt;stroke-linejoin:miter;stroke-miterlimit:4;stroke-dasharray:none;stroke-opacity:1"
     d="m 173.443,55.874 c 1.677,1.522 2.208,1.59 2.896,0.928 0.462,-0.448 1.041,-0.698 1.333,-0.958 0.973,-0.85 2.26,-2.694 4.547,-8.87 0.521,-1.401 1.26,-3.36 1.625,-4.136 0.583,-1.229 -1.849,-1.36 -2.084,-0.874 -0.749,1.536 -1.385,2.541 -1.735,3.057 -0.233,0.353 -0.566,1.041 -1.666,2.291 -1.656,1.912 -2.938,2.802 -4.13,4.553 -0.552,0.807 -1.489,1.067 -1.625,2.14 -0.145,1.073 0.839,1.869 0.839,1.869 z"
     id="path712" />
  <path
     style="fill:#ca0369;fill-opacity:1;fill-rule:nonzero;stroke:none"
     d="m 156.489,75.412 c 3.036,-0.771 3.776,-0.604 4.683,-0.459 5.713,0.891 6.041,-1.927 4.839,-4.552 -1.412,-3.079 -1.86,-4.213 -7.782,-2.093 -1.652,0.593 -8.27,2.03 -8.27,2.03 -2.439,0.194 -4.715,1.683 -5.21,3.052 -0.52,1.443 -0.213,0.912 -0.448,2.334 -0.233,1.36 0.548,3.401 1.715,3.808 1.119,0.4 2.4,-0.667 4.447,-1.964 1.614,-1.022 6.026,-2.156 6.026,-2.156"
     id="path713" />
  <path
     style="fill:none;stroke:#231f20;stroke-width:0.565977;stroke-linecap:butt;stroke-linejoin:miter;stroke-miterlimit:4;stroke-dasharray:none;stroke-opacity:1"
     d="m 156.489,75.412 c 3.036,-0.771 3.776,-0.604 4.683,-0.459 5.713,0.891 6.041,-1.927 4.839,-4.552 -1.412,-3.079 -1.86,-4.213 -7.782,-2.093 -1.652,0.593 -8.27,2.03 -8.27,2.03 -2.439,0.194 -4.715,1.683 -5.21,3.052 -0.52,1.443 -0.213,0.912 -0.448,2.334 -0.233,1.36 0.548,3.401 1.715,3.808 1.119,0.4 2.4,-0.667 4.447,-1.964 1.614,-1.022 6.026,-2.156 6.026,-2.156 z"
     id="path714" />
  <path
     style="fill:#ffffff;fill-opacity:1;fill-rule:nonzero;stroke:none"
     d="m 136.817,76.464 c -0.224,0.088 -0.921,-0.819 -1.358,-0.532 -0.443,0.286 -0.188,1.037 -1.23,2.729 l -0.01,0.021 c -0.803,1.208 -1.011,2.583 -0.407,3.687 0.995,1.824 3.808,2.209 6.287,0.855 2.478,-1.35 3.688,-3.922 2.693,-5.746 -0.948,-1.744 -3.573,-2.17 -5.975,-1.014"
     id="path715" />
  <path
     style="fill:none;stroke:#231f20;stroke-width:0.565977;stroke-linecap:butt;stroke-linejoin:miter;stroke-miterlimit:4;stroke-dasharray:none;stroke-opacity:1"
     d="m 136.817,76.464 c -0.224,0.088 -0.921,-0.819 -1.358,-0.532 -0.443,0.286 -0.188,1.037 -1.23,2.729 l -0.01,0.021 c -0.803,1.208 -1.011,2.583 -0.407,3.687 0.995,1.824 3.808,2.209 6.287,0.855 2.478,-1.35 3.688,-3.922 2.693,-5.746 -0.948,-1.744 -3.573,-2.17 -5.975,-1.014 z"
     id="path716" />
  <path
     style="fill:#231f20;fill-opacity:1;fill-rule:nonzero;stroke:none"
     d="m 175.473,54.469 c -2.729,-2.933 -4.156,0.891 -4.505,1.213 -3.687,3.391 -3.864,3.73 -6.489,6.511 -3.796,4.02 -5.782,7.353 -4.083,10.244 1.145,1.959 2.661,2.595 3.957,2.391 1.443,-0.224 4.011,-2.099 3.819,-4.984 l 0.796,-1.511 c 0.672,-0.948 0.996,-1.421 1.36,-1.869 0.645,-0.771 1.287,-1.636 2.448,-3.204 2.073,-2.791 3.339,-6.416 3.339,-6.416 0.718,-1.016 -0.642,-2.375 -0.642,-2.375"
     id="path717" />
  <path
     style="fill:none;stroke:#231f20;stroke-width:0.565977;stroke-linecap:butt;stroke-linejoin:miter;stroke-miterlimit:4;stroke-dasharray:none;stroke-opacity:1"
     d="m 175.473,54.469 c -2.729,-2.933 -4.156,0.891 -4.505,1.213 -3.687,3.391 -3.864,3.73 -6.489,6.511 -3.796,4.02 -5.782,7.353 -4.083,10.244 1.145,1.959 2.661,2.595 3.957,2.391 1.443,-0.224 4.011,-2.099 3.819,-4.984 l 0.796,-1.511 c 0.672,-0.948 0.996,-1.421 1.36,-1.869 0.645,-0.771 1.287,-1.636 2.448,-3.204 2.073,-2.791 3.339,-6.416 3.339,-6.416 0.718,-1.016 -0.642,-2.375 -0.642,-2.375 z"
     id="path718" />
  <path
     style="fill:#ca0369;fill-opacity:1;fill-rule:nonzero;stroke:#231f20;stroke-width:0.565977;stroke-linecap:butt;stroke-linejoin:miter;stroke-miterlimit:4;stroke-dasharray:none;stroke-opacity:1"
     d="m 162.511,64.74 c -0.423,0.51 -0.782,1 -1.11,1.489 -0.062,0.047 -0.125,0.093 -0.188,0.125 -0.708,0.386 -0.822,1 -0.969,2.026 -0.552,1.453 -0.572,2.822 0.152,4.109 1.109,1.989 2.599,2.652 3.905,2.48 1.448,-0.193 4.058,-2.016 3.923,-4.901 z"
     id="path719" />
  <path
     style="fill:#231f20;fill-opacity:1;fill-rule:nonzero;stroke:none"
     d="m 140.516,57.844 c 0.525,0.364 1.009,2.249 1.973,3.541 0.651,0.865 1.26,3.541 1.974,4.36 0.652,0.749 0.881,1.151 0.152,2.047 -0.428,0.53 -1.599,1.27 -2.011,0.968 -0.959,-0.708 -1.437,-1.52 -1.776,-2.542 -0.385,-1.15 -1.151,-4.369 -1.24,-4.978 -0.208,-1.511 -0.739,-2.016 -0.833,-2.412 -0.178,-0.739 0.062,-0.99 0.516,-1.208 0.864,-0.418 1.245,0.224 1.245,0.224"
     id="path720" />
  <path
     style="fill:none;stroke:#231f20;stroke-width:0.565977;stroke-linecap:butt;stroke-linejoin:miter;stroke-miterlimit:4;stroke-dasharray:none;stroke-opacity:1"
     d="m 140.516,57.844 c 0.525,0.364 1.009,2.249 1.973,3.541 0.651,0.865 1.26,3.541 1.974,4.36 0.652,0.749 0.881,1.151 0.152,2.047 -0.428,0.53 -1.599,1.27 -2.011,0.968 -0.959,-0.708 -1.437,-1.52 -1.776,-2.542 -0.385,-1.15 -1.151,-4.369 -1.24,-4.978 -0.208,-1.511 -0.739,-2.016 -0.833,-2.412 -0.178,-0.739 0.062,-0.99 0.516,-1.208 0.864,-0.418 1.245,0.224 1.245,0.224 z"
     id="path721" />
  <path
     style="fill:#231f20;fill-opacity:1;fill-rule:nonzero;stroke:none"
     d="m 143.979,66.213 c 1.245,-0.359 1.442,1.667 1.578,2.188 0.135,0.531 0.692,1.984 1.266,3.057 0.578,1.083 0.838,2.678 1.932,4.73 0.578,1.082 0.453,2.494 -1.146,3.26 -1.584,0.76 -2.609,0.156 -3.104,-1.255 -0.5,-1.412 -0.376,-2.948 -0.776,-4.407 -0.406,-1.453 -0.953,-2.901 -1.437,-4.016 -0.548,-1.265 -0.349,-2.098 -0.021,-2.448 0.822,-0.864 1.708,-1.109 1.708,-1.109"
     id="path722" />
  <path
     style="fill:none;stroke:#231f20;stroke-width:0.565977;stroke-linecap:butt;stroke-linejoin:miter;stroke-miterlimit:4;stroke-dasharray:none;stroke-opacity:1"
     d="m 143.979,66.213 c 1.245,-0.359 1.442,1.667 1.578,2.188 0.135,0.531 0.692,1.984 1.266,3.057 0.578,1.083 0.838,2.678 1.932,4.73 0.578,1.082 0.453,2.494 -1.146,3.26 -1.584,0.76 -2.609,0.156 -3.104,-1.255 -0.5,-1.412 -0.376,-2.948 -0.776,-4.407 -0.406,-1.453 -0.953,-2.901 -1.437,-4.016 -0.548,-1.265 -0.349,-2.098 -0.021,-2.448 0.822,-0.864 1.708,-1.109 1.708,-1.109 z"
     id="path723" />
  <path
     style="fill:#231f20;fill-opacity:1;fill-rule:nonzero;stroke:none"
     d="m 138.74,58.484 c -0.699,-0.031 -1.652,-2.14 -1.423,-2.359 0.23,-0.219 0.47,0.511 0.74,0.276 0.271,-0.229 0.047,-0.677 0.255,-0.776 0.224,-0.104 0.412,0.468 0.661,0.292 0.1,-0.079 0.131,-0.672 0.319,-0.693 0.167,-0.026 0.509,0.369 0.64,0.36 0.219,-0.016 0.079,-0.615 0.255,-0.647 0.458,-0.077 0.709,2.625 0.542,2.797 -0.24,0.26 -0.865,0.802 -1.989,0.75"
     id="path724" />
  <path
     style="fill:none;stroke:#231f20;stroke-width:0.565977;stroke-linecap:round;stroke-linejoin:round;stroke-miterlimit:4;stroke-dasharray:none;stroke-opacity:1"
     d="m 138.74,58.484 c -0.699,-0.031 -1.652,-2.14 -1.423,-2.359 0.23,-0.219 0.47,0.511 0.74,0.276 0.271,-0.229 0.047,-0.677 0.255,-0.776 0.224,-0.104 0.412,0.468 0.661,0.292 0.1,-0.079 0.131,-0.672 0.319,-0.693 0.167,-0.026 0.509,0.369 0.64,0.36 0.219,-0.016 0.079,-0.615 0.255,-0.647 0.458,-0.077 0.709,2.625 0.542,2.797 -0.24,0.26 -0.865,0.802 -1.989,0.75 z"
     id="path725" />
  <path
     style="fill:none;stroke:#231f20;stroke-width:1.33171;stroke-linecap:butt;stroke-linejoin:bevel;stroke-miterlimit:4;stroke-dasharray:none;stroke-opacity:1"
     d="m 254.812,114.395 2.698,-2.426 V 87.568 l 1.75,-1.479"
     id="path726" />
  <path
     style="fill:none;stroke:#231f20;stroke-width:1.33171;stroke-linecap:butt;stroke-linejoin:bevel;stroke-miterlimit:4;stroke-dasharray:none;stroke-opacity:1"
     d="m 254.812,58.422 2.698,2.427 V 85.25 l 1.75,1.479"
     id="path727" />
</svg>
