<?xml version="1.0" encoding="UTF-8" standalone="no"?>
<!-- Created with Inkscape (http://www.inkscape.org/) -->

<svg
   version="1.1"
   id="svg1"
   width="360.46881"
   height="76.08345"
   viewBox="0 0 360.4688 76.083451"
   sodipodi:docname="cell.svg"
   xmlns:inkscape="http://www.inkscape.org/namespaces/inkscape"
   xmlns:sodipodi="http://sodipodi.sourceforge.net/DTD/sodipodi-0.dtd"
   xmlns="http://www.w3.org/2000/svg"
   xmlns:svg="http://www.w3.org/2000/svg">
  <sodipodi:namedview
     id="namedview1"
     pagecolor="#ffffff"
     bordercolor="#000000"
     borderopacity="0.25"
     inkscape:showpageshadow="2"
     inkscape:pageopacity="0.0"
     inkscape:pagecheckerboard="0"
     inkscape:deskcolor="#d1d1d1">
    <inkscape:page
       x="0"
       y="0"
       inkscape:label="1"
       id="page1"
       width="360.46881"
       height="76.08345"
       margin="0"
       bleed="0" />
  </sodipodi:namedview>
  <defs
     id="defs1" />
  <path
     style="fill:#ffffff;fill-opacity:1;fill-rule:nonzero;stroke:none"
     d="M -1.4269758e-8,18.874 H 18.875 V 0 H -1.4269758e-8 Z"
     id="path24" />
  <path
     style="fill:#ffffff;fill-opacity:1;fill-rule:nonzero;stroke:none"
     d="m 343.5418,18.874 h 16.927 V 0 h -16.927 z"
     id="path25" />
  <path
     style="fill:#231f20;fill-opacity:1;fill-rule:nonzero;stroke:none"
     d="m 197.6558,70.218 c -1.058,-0.838 -0.755,-1.786 0.114,-2.338 0.267,-0.167 0.319,-0.578 0.59,-0.719 0.62,-0.328 2.265,0.256 2.129,1.751 -0.009,0.109 0.163,0.905 0.199,1.525 0.073,1.208 -0.375,3.667 -2.604,5.183 -1.052,0.718 -1.282,-0.036 -0.943,-0.454 1.072,-1.333 0.905,-1.666 1.063,-2.114 0.53,-1.531 -0.548,-2.834 -0.548,-2.834"
     id="path26" />
  <path
     style="fill:none;stroke:#231f20;stroke-width:0.332927;stroke-linecap:butt;stroke-linejoin:miter;stroke-miterlimit:4;stroke-dasharray:none;stroke-opacity:1"
     d="m 197.6558,70.218 c -1.058,-0.838 -0.755,-1.786 0.114,-2.338 0.267,-0.167 0.319,-0.578 0.59,-0.719 0.62,-0.328 2.265,0.256 2.129,1.751 -0.009,0.109 0.163,0.905 0.199,1.525 0.073,1.208 -0.375,3.667 -2.604,5.183 -1.052,0.718 -1.282,-0.036 -0.943,-0.454 1.072,-1.333 0.905,-1.666 1.063,-2.114 0.53,-1.531 -0.548,-2.834 -0.548,-2.834 z"
     id="path27" />
  <path
     style="fill:#231f20;fill-opacity:1;fill-rule:nonzero;stroke:none"
     d="m 199.6458,51.573 c -2.24,-0.333 -2.724,-0.099 -2.928,0.839 -0.14,0.62 -0.478,1.15 -0.577,1.525 -0.339,1.256 -0.396,3.5 1.12,9.907 0.343,1.453 0.817,3.5 0.943,4.344 0.192,1.344 2.285,0.109 2.218,-0.418 -0.229,-1.702 -0.25,-2.89 -0.25,-3.51 0,-0.427 -0.104,-1.187 0.114,-2.838 0.328,-2.501 0.891,-3.953 0.927,-6.073 0.011,-0.98 0.647,-1.708 0.167,-2.683 -0.479,-0.973 -1.734,-1.093 -1.734,-1.093"
     id="path28" />
  <path
     style="fill:none;stroke:#231f20;stroke-width:0.565977;stroke-linecap:butt;stroke-linejoin:miter;stroke-miterlimit:4;stroke-dasharray:none;stroke-opacity:1"
     d="m 199.6458,51.573 c -2.24,-0.333 -2.724,-0.099 -2.928,0.839 -0.14,0.62 -0.478,1.15 -0.577,1.525 -0.339,1.256 -0.396,3.5 1.12,9.907 0.343,1.453 0.817,3.5 0.943,4.344 0.192,1.344 2.285,0.109 2.218,-0.418 -0.229,-1.702 -0.25,-2.89 -0.25,-3.51 0,-0.427 -0.104,-1.187 0.114,-2.838 0.328,-2.501 0.891,-3.953 0.927,-6.073 0.011,-0.98 0.647,-1.708 0.167,-2.683 -0.479,-0.973 -1.734,-1.093 -1.734,-1.093 z"
     id="path29" />
  <path
     style="fill:#ca0369;fill-opacity:1;fill-rule:nonzero;stroke:none"
     d="m 178.8548,45.854 c -0.068,3.13 -0.427,3.796 -0.808,4.635 -2.386,5.267 0.24,6.339 3.089,5.88 3.349,-0.541 4.557,-0.667 4.098,-6.943 -0.125,-1.744 0.255,-8.509 0.255,-8.509 0.464,-2.401 -0.364,-4.991 -1.552,-5.833 -1.249,-0.891 -0.817,-0.448 -2.129,-1.063 -1.246,-0.584 -3.423,-0.376 -4.131,0.64 -0.682,0.969 0.006,2.489 0.708,4.813 0.552,1.828 0.47,6.38 0.47,6.38"
     id="path30" />
  <path
     style="fill:none;stroke:#231f20;stroke-width:0.565977;stroke-linecap:butt;stroke-linejoin:miter;stroke-miterlimit:4;stroke-dasharray:none;stroke-opacity:1"
     d="m 178.8548,45.854 c -0.068,3.13 -0.427,3.796 -0.808,4.635 -2.386,5.267 0.24,6.339 3.089,5.88 3.349,-0.541 4.557,-0.667 4.098,-6.943 -0.125,-1.744 0.255,-8.509 0.255,-8.509 0.464,-2.401 -0.364,-4.991 -1.552,-5.833 -1.249,-0.891 -0.817,-0.448 -2.129,-1.063 -1.246,-0.584 -3.423,-0.376 -4.131,0.64 -0.682,0.969 0.006,2.489 0.708,4.813 0.552,1.828 0.47,6.38 0.47,6.38 z"
     id="path31" />
  <path
     style="fill:#ffffff;fill-opacity:1;fill-rule:nonzero;stroke:none"
     d="m 184.2288,28.062 c 0.047,-0.234 1.193,-0.322 1.193,-0.844 0,-0.525 -0.761,-0.729 -1.609,-2.525 l -0.011,-0.021 c -0.573,-1.339 -1.614,-2.26 -2.86,-2.364 -2.066,-0.172 -3.937,1.973 -4.171,4.785 -0.228,2.819 1.256,5.235 3.329,5.407 1.978,0.166 3.776,-1.798 4.129,-4.438"
     id="path32" />
  <path
     style="fill:none;stroke:#231f20;stroke-width:0.565977;stroke-linecap:butt;stroke-linejoin:miter;stroke-miterlimit:4;stroke-dasharray:none;stroke-opacity:1"
     d="m 184.2288,28.062 c 0.047,-0.234 1.193,-0.322 1.193,-0.844 0,-0.525 -0.761,-0.729 -1.609,-2.525 l -0.011,-0.021 c -0.573,-1.339 -1.614,-2.26 -2.86,-2.364 -2.066,-0.172 -3.937,1.973 -4.171,4.785 -0.228,2.819 1.256,5.235 3.329,5.407 1.978,0.166 3.776,-1.798 4.129,-4.438 z"
     id="path33" />
  <path
     style="fill:#231f20;fill-opacity:1;fill-rule:nonzero;stroke:none"
     d="m 201.4888,53.63 c 0.62,-3.969 -3.271,-2.724 -3.739,-2.797 -4.948,-0.797 -5.322,-0.724 -9.13,-1.063 -5.506,-0.494 -9.355,0.016 -10.573,3.131 -0.828,2.12 -0.391,3.697 0.573,4.593 1.068,1 4.13,1.85 6.27,-0.088 l 1.683,-0.313 c 1.161,-0.057 1.74,-0.099 2.312,-0.077 1.005,0.025 2.079,-0.016 4.037,-0.074 3.468,-0.098 7.104,-1.349 7.104,-1.349 1.239,-0.067 1.463,-1.963 1.463,-1.963"
     id="path34" />
  <path
     style="fill:none;stroke:#231f20;stroke-width:0.565977;stroke-linecap:butt;stroke-linejoin:miter;stroke-miterlimit:4;stroke-dasharray:none;stroke-opacity:1"
     d="m 201.4888,53.63 c 0.62,-3.969 -3.271,-2.724 -3.739,-2.797 -4.948,-0.797 -5.322,-0.724 -9.13,-1.063 -5.506,-0.494 -9.355,0.016 -10.573,3.131 -0.828,2.12 -0.391,3.697 0.573,4.593 1.068,1 4.13,1.85 6.27,-0.088 l 1.683,-0.313 c 1.161,-0.057 1.74,-0.099 2.312,-0.077 1.005,0.025 2.079,-0.016 4.037,-0.074 3.468,-0.098 7.104,-1.349 7.104,-1.349 1.239,-0.067 1.463,-1.963 1.463,-1.963 z"
     id="path35" />
  <path
     style="fill:#ca0369;fill-opacity:1;fill-rule:nonzero;stroke:none"
     d="m 178.0048,52.86 c -0.828,2.118 -0.39,3.692 0.574,4.593 1.068,0.995 4.13,1.849 6.27,-0.088 l 0.479,-7.803 c -3.76,0 -6.359,0.834 -7.323,3.298"
     id="path36" />
  <path
     style="fill:none;stroke:#231f20;stroke-width:0.565977;stroke-linecap:butt;stroke-linejoin:miter;stroke-miterlimit:4;stroke-dasharray:none;stroke-opacity:1"
     d="m 178.0048,52.86 c -0.828,2.118 -0.39,3.692 0.574,4.593 1.068,0.995 4.13,1.849 6.27,-0.088 l 0.479,-7.803 c -3.76,0 -6.359,0.834 -7.323,3.298 z"
     id="path37" />
  <path
     style="fill:#231f20;fill-opacity:1;fill-rule:nonzero;stroke:none"
     d="m 180.1088,56.849 c -0.374,-0.521 -0.213,-2.464 -0.702,-3.995 -0.334,-1.032 -0.027,-3.761 -0.432,-4.765 -0.371,-0.923 -0.459,-1.381 0.525,-1.985 0.579,-0.359 1.928,-0.678 2.218,-0.255 0.672,0.984 0.855,1.911 0.844,2.984 -0.016,1.213 -0.349,4.505 -0.462,5.109 -0.298,1.49 0.036,2.151 -0.006,2.552 -0.073,0.756 -0.381,0.918 -0.885,0.975 -0.948,0.104 -1.1,-0.62 -1.1,-0.62"
     id="path38" />
  <path
     style="fill:none;stroke:#231f20;stroke-width:0.565977;stroke-linecap:butt;stroke-linejoin:miter;stroke-miterlimit:4;stroke-dasharray:none;stroke-opacity:1"
     d="m 180.1088,56.849 c -0.374,-0.521 -0.213,-2.464 -0.702,-3.995 -0.334,-1.032 -0.027,-3.761 -0.432,-4.765 -0.371,-0.923 -0.459,-1.381 0.525,-1.985 0.579,-0.359 1.928,-0.678 2.218,-0.255 0.672,0.984 0.855,1.911 0.844,2.984 -0.016,1.213 -0.349,4.505 -0.462,5.109 -0.298,1.49 0.036,2.151 -0.006,2.552 -0.073,0.756 -0.381,0.918 -0.885,0.975 -0.948,0.104 -1.1,-0.62 -1.1,-0.62 z"
     id="path39" />
  <path
     style="fill:#231f20;fill-opacity:1;fill-rule:nonzero;stroke:none"
     d="m 179.5838,47.802 c -1.292,-0.068 -0.817,-2.046 -0.776,-2.584 0.047,-0.541 0,-2.098 -0.188,-3.306 -0.192,-1.21 0.084,-2.798 -0.276,-5.1 -0.192,-1.208 0.391,-2.504 2.156,-2.703 1.74,-0.197 2.51,0.708 2.521,2.208 0.005,1.495 -0.615,2.901 -0.713,4.412 -0.099,1.511 -0.052,3.057 0.036,4.265 0.104,1.38 -0.355,2.099 -0.782,2.318 -1.062,0.548 -1.978,0.49 -1.978,0.49"
     id="path40" />
  <path
     style="fill:none;stroke:#231f20;stroke-width:0.565977;stroke-linecap:butt;stroke-linejoin:miter;stroke-miterlimit:4;stroke-dasharray:none;stroke-opacity:1"
     d="m 179.5838,47.802 c -1.292,-0.068 -0.817,-2.046 -0.776,-2.584 0.047,-0.541 0,-2.098 -0.188,-3.306 -0.192,-1.21 0.084,-2.798 -0.276,-5.1 -0.192,-1.208 0.391,-2.504 2.156,-2.703 1.74,-0.197 2.51,0.708 2.521,2.208 0.005,1.495 -0.615,2.901 -0.713,4.412 -0.099,1.511 -0.052,3.057 0.036,4.265 0.104,1.38 -0.355,2.099 -0.782,2.318 -1.062,0.548 -1.978,0.49 -1.978,0.49 z"
     id="path41" />
  <path
     style="fill:#ffffff;fill-opacity:1;fill-rule:nonzero;stroke:#231f20;stroke-width:0.665856;stroke-linecap:butt;stroke-linejoin:miter;stroke-miterlimit:4;stroke-dasharray:none;stroke-opacity:1"
     d="m 180.3958,48.182 h 1.327 V 16.505 h -1.327 z"
     id="path42" />
  <path
     style="fill:#ffffff;fill-opacity:1;fill-rule:nonzero;stroke:none"
     d="m 177.1988,53.12 c 0,-2.36 1.916,-4.271 4.27,-4.271 2.353,0 4.271,1.911 4.271,4.271 0,2.354 -1.918,4.265 -4.271,4.265 -2.354,0 -4.27,-1.911 -4.27,-4.265 m -1.328,0 c 0,3.082 2.509,5.598 5.598,5.598 3.088,0 5.599,-2.516 5.599,-5.598 0,-3.088 -2.511,-5.604 -5.599,-5.604 -3.089,0 -5.598,2.516 -5.598,5.604"
     id="path43" />
  <path
     style="fill:none;stroke:#231f20;stroke-width:0.665856;stroke-linecap:butt;stroke-linejoin:miter;stroke-miterlimit:4;stroke-dasharray:none;stroke-opacity:1"
     d="m 177.1988,53.12 c 0,-2.36 1.916,-4.271 4.27,-4.271 2.353,0 4.271,1.911 4.271,4.271 0,2.354 -1.918,4.265 -4.271,4.265 -2.354,0 -4.27,-1.911 -4.27,-4.265 z m -1.328,0 c 0,3.082 2.509,5.598 5.598,5.598 3.088,0 5.599,-2.516 5.599,-5.598 0,-3.088 -2.511,-5.604 -5.599,-5.604 -3.089,0 -5.598,2.516 -5.598,5.604 z"
     id="path44" />
  <path
     style="fill:#231f20;fill-opacity:1;fill-rule:nonzero;stroke:none"
     d="m 181.9998,56.822 c 0.646,0.262 0.86,2.568 0.568,2.699 -0.292,0.129 -0.276,-0.641 -0.61,-0.505 -0.328,0.129 -0.265,0.625 -0.489,0.65 -0.251,0.022 -0.24,-0.582 -0.532,-0.489 -0.124,0.036 -0.343,0.588 -0.531,0.547 -0.166,-0.031 -0.359,-0.522 -0.489,-0.552 -0.208,-0.052 -0.27,0.557 -0.448,0.526 -0.458,-0.073 0.192,-2.709 0.402,-2.824 0.317,-0.161 1.082,-0.468 2.129,-0.052"
     id="path45" />
  <path
     style="fill:none;stroke:#231f20;stroke-width:0.565977;stroke-linecap:round;stroke-linejoin:round;stroke-miterlimit:4;stroke-dasharray:none;stroke-opacity:1"
     d="m 181.9998,56.822 c 0.646,0.262 0.86,2.568 0.568,2.699 -0.292,0.129 -0.276,-0.641 -0.61,-0.505 -0.328,0.129 -0.265,0.625 -0.489,0.65 -0.251,0.022 -0.24,-0.582 -0.532,-0.489 -0.124,0.036 -0.343,0.588 -0.531,0.547 -0.166,-0.031 -0.359,-0.522 -0.489,-0.552 -0.208,-0.052 -0.27,0.557 -0.448,0.526 -0.458,-0.073 0.192,-2.709 0.402,-2.824 0.317,-0.161 1.082,-0.468 2.129,-0.052 z"
     id="path46" />
</svg>
