<?xml version="1.0" encoding="UTF-8" standalone="no"?>
<!-- Created with Inkscape (http://www.inkscape.org/) -->

<svg
   version="1.1"
   id="svg1"
   width="47.90485"
   height="43.837498"
   viewBox="0 0 47.904848 43.837497"
   sodipodi:docname="cell.svg"
   xmlns:inkscape="http://www.inkscape.org/namespaces/inkscape"
   xmlns:sodipodi="http://sodipodi.sourceforge.net/DTD/sodipodi-0.dtd"
   xmlns="http://www.w3.org/2000/svg"
   xmlns:svg="http://www.w3.org/2000/svg">
  <sodipodi:namedview
     id="namedview1"
     pagecolor="#ffffff"
     bordercolor="#000000"
     borderopacity="0.25"
     inkscape:showpageshadow="2"
     inkscape:pageopacity="0.0"
     inkscape:pagecheckerboard="0"
     inkscape:deskcolor="#d1d1d1">
    <inkscape:page
       x="0"
       y="0"
       inkscape:label="1"
       id="page1"
       width="47.904846"
       height="43.837498"
       margin="0"
       bleed="0" />
  </sodipodi:namedview>
  <defs
     id="defs1" />
  <path
     style="fill:#231f20;fill-opacity:1;fill-rule:nonzero;stroke:none"
     d="m 42.04193,35.734928 c -0.713,1.15 -1.688,0.964 -2.339,0.156 -0.193,-0.239 -0.609,-0.244 -0.781,-0.5 -0.396,-0.578 -0.005,-2.282 1.489,-2.318 0.11,0 0.886,-0.265 1.5,-0.374 1.188,-0.21 3.683,-0.047 5.443,1.994 0.839,0.963 0.115,1.282 -0.344,0.99 -1.448,-0.912 -1.755,-0.708 -2.219,-0.812 -1.582,-0.355 -2.749,0.864 -2.749,0.864"
     id="path49" />
  <path
     style="fill:none;stroke:#231f20;stroke-width:0.332927;stroke-linecap:butt;stroke-linejoin:miter;stroke-miterlimit:4;stroke-dasharray:none;stroke-opacity:1"
     d="m 42.04193,35.734928 c -0.713,1.15 -1.688,0.964 -2.339,0.156 -0.193,-0.239 -0.609,-0.244 -0.781,-0.5 -0.396,-0.578 -0.005,-2.282 1.489,-2.318 0.11,0 0.886,-0.265 1.5,-0.374 1.188,-0.21 3.683,-0.047 5.443,1.994 0.839,0.963 0.115,1.282 -0.344,0.99 -1.448,-0.912 -1.755,-0.708 -2.219,-0.812 -1.582,-0.355 -2.749,0.864 -2.749,0.864 z"
     id="path50" />
  <path
     style="fill:#231f20;fill-opacity:1;fill-rule:nonzero;stroke:none"
     d="m 23.28593,35.900928 c -0.077,2.26 0.214,2.714 1.172,2.812 0.631,0.068 1.199,0.339 1.584,0.402 1.282,0.193 3.515,-0.016 9.713,-2.255 1.402,-0.505 3.38,-1.208 4.208,-1.428 1.308,-0.348 -0.156,-2.291 -0.677,-2.161 -1.656,0.422 -2.839,0.584 -3.453,0.657 -0.427,0.047 -1.167,0.233 -2.828,0.208 -2.531,-0.037 -4.036,-0.432 -6.14,-0.224 -0.979,0.099 -1.776,-0.443 -2.688,0.14 -0.911,0.589 -0.891,1.849 -0.891,1.849"
     id="path51" />
  <path
     style="fill:none;stroke:#231f20;stroke-width:0.565977;stroke-linecap:butt;stroke-linejoin:miter;stroke-miterlimit:4;stroke-dasharray:none;stroke-opacity:1"
     d="m 23.28593,35.900928 c -0.077,2.26 0.214,2.714 1.172,2.812 0.631,0.068 1.199,0.339 1.584,0.402 1.282,0.193 3.515,-0.016 9.713,-2.255 1.402,-0.505 3.38,-1.208 4.208,-1.428 1.308,-0.348 -0.156,-2.291 -0.677,-2.161 -1.656,0.422 -2.839,0.584 -3.453,0.657 -0.427,0.047 -1.167,0.233 -2.828,0.208 -2.531,-0.037 -4.036,-0.432 -6.14,-0.224 -0.979,0.099 -1.776,-0.443 -2.688,0.14 -0.911,0.589 -0.891,1.849 -0.891,1.849 z"
     id="path52" />
  <path
     style="fill:#ca0369;fill-opacity:1;fill-rule:nonzero;stroke:none"
     d="m 3.3179296,29.676928 c -0.068,3.136 -0.428,3.803 -0.808,4.636 -2.38499995,5.266 0.246,6.339 3.09,5.88 3.348,-0.537 4.5570004,-0.661 4.098,-6.937 -0.125,-1.751 0.26,-8.511 0.26,-8.511 0.4640004,-2.401 -0.369,-4.994 -1.557,-5.838 -1.249,-0.891 -0.817,-0.448 -2.129,-1.058 -1.246,-0.584 -3.423,-0.374 -4.131,0.636 -0.683,0.974 0.011,2.49 0.708,4.812 0.552,1.828 0.469,6.38 0.469,6.38"
     id="path53" />
  <path
     style="fill:none;stroke:#231f20;stroke-width:0.565977;stroke-linecap:butt;stroke-linejoin:miter;stroke-miterlimit:4;stroke-dasharray:none;stroke-opacity:1"
     d="m 3.3179296,29.676928 c -0.068,3.136 -0.428,3.803 -0.808,4.636 -2.38499995,5.266 0.246,6.339 3.09,5.88 3.348,-0.537 4.5570004,-0.661 4.098,-6.937 -0.125,-1.751 0.26,-8.511 0.26,-8.511 0.4640004,-2.401 -0.369,-4.994 -1.557,-5.838 -1.249,-0.891 -0.817,-0.448 -2.129,-1.058 -1.246,-0.584 -3.423,-0.374 -4.131,0.636 -0.683,0.974 0.011,2.49 0.708,4.812 0.552,1.828 0.469,6.38 0.469,6.38 z"
     id="path54" />
  <path
     style="fill:#ffffff;fill-opacity:1;fill-rule:nonzero;stroke:none"
     d="m 8.6929296,11.890928 c 0.047,-0.239 1.193,-0.323 1.193,-0.848 0,-0.522 -0.761,-0.724 -1.609,-2.527 l -0.011,-0.016 c -0.573,-1.339 -1.609,-2.26 -2.86,-2.364 -2.068,-0.172 -3.937,1.968 -4.172,4.787 -0.229,2.812 1.262,5.233 3.328,5.405 1.98,0.161 3.776,-1.796 4.131,-4.437"
     id="path55" />
  <path
     style="fill:none;stroke:#231f20;stroke-width:0.565977;stroke-linecap:butt;stroke-linejoin:miter;stroke-miterlimit:4;stroke-dasharray:none;stroke-opacity:1"
     d="m 8.6929296,11.890928 c 0.047,-0.239 1.193,-0.323 1.193,-0.848 0,-0.522 -0.761,-0.724 -1.609,-2.527 l -0.011,-0.016 c -0.573,-1.339 -1.609,-2.26 -2.86,-2.364 -2.068,-0.172 -3.937,1.968 -4.172,4.787 -0.229,2.812 1.262,5.233 3.328,5.405 1.98,0.161 3.776,-1.796 4.131,-4.437 z"
     id="path56" />
  <path
     style="fill:#231f20;fill-opacity:1;fill-rule:nonzero;stroke:none"
     d="m 25.67693,36.551928 c 0.48,-3.984 -3.364,-2.604 -3.839,-2.667 -4.968,-0.624 -5.342,-0.541 -9.161,-0.749 -5.5150004,-0.308 -9.3440004,0.333 -10.4570004,3.495 -0.756,2.145 -0.262,3.702 0.728,4.568 1.105,0.962 4.193,1.708 6.266,-0.303 l 1.6720004,-0.369 c 1.162,-0.099 1.734,-0.156 2.312,-0.162 1,-0.005 2.074,-0.078 4.026,-0.209 3.464,-0.219 7.057,-1.588 7.057,-1.588 1.235,-0.109 1.396,-2.016 1.396,-2.016"
     id="path57" />
  <path
     style="fill:none;stroke:#231f20;stroke-width:0.565977;stroke-linecap:butt;stroke-linejoin:miter;stroke-miterlimit:4;stroke-dasharray:none;stroke-opacity:1"
     d="m 25.67693,36.551928 c 0.48,-3.984 -3.364,-2.604 -3.839,-2.667 -4.968,-0.624 -5.342,-0.541 -9.161,-0.749 -5.5150004,-0.308 -9.3440004,0.333 -10.4570004,3.495 -0.756,2.145 -0.262,3.702 0.728,4.568 1.105,0.962 4.193,1.708 6.266,-0.303 l 1.6720004,-0.369 c 1.162,-0.099 1.734,-0.156 2.312,-0.162 1,-0.005 2.074,-0.078 4.026,-0.209 3.464,-0.219 7.057,-1.588 7.057,-1.588 1.235,-0.109 1.396,-2.016 1.396,-2.016 z"
     id="path58" />
  <path
     style="fill:#ca0369;fill-opacity:1;fill-rule:nonzero;stroke:none"
     d="m 7.5839296,33.239928 c -0.079,-0.016 -0.151,-0.036 -0.219,-0.057 -0.76,-0.271 -1.303,0.046 -2.161,0.614 -1.459,0.552 -2.49,1.443 -2.984,2.834 -0.756,2.145 -0.262,3.702 0.728,4.568 1.105,0.957 4.193,1.708 6.266,-0.303 l 0.214,-7.812 c -0.656,0.02 -1.262,0.077 -1.844,0.156"
     id="path59" />
  <path
     style="fill:none;stroke:#231f20;stroke-width:0.565977;stroke-linecap:butt;stroke-linejoin:miter;stroke-miterlimit:4;stroke-dasharray:none;stroke-opacity:1"
     d="m 7.5839296,33.239928 c -0.079,-0.016 -0.151,-0.036 -0.219,-0.057 -0.76,-0.271 -1.303,0.046 -2.161,0.614 -1.459,0.552 -2.49,1.443 -2.984,2.834 -0.756,2.145 -0.262,3.702 0.728,4.568 1.105,0.957 4.193,1.708 6.266,-0.303 l 0.214,-7.812 c -0.656,0.02 -1.262,0.077 -1.844,0.156 z"
     id="path60" />
  <path
     style="fill:#231f20;fill-opacity:1;fill-rule:nonzero;stroke:none"
     d="m 4.5779296,40.671928 c -0.38,-0.52 -0.218,-2.459 -0.708,-3.989 -0.328,-1.031 -0.026,-3.766 -0.432,-4.771 -0.37,-0.923 -0.453,-1.375 0.526,-1.984 0.578,-0.36 1.926,-0.672 2.218,-0.251 0.672,0.979 0.86,1.912 0.85,2.979 -0.016,1.215 -0.35,4.511 -0.47,5.109 -0.296,1.496 0.043,2.152 0,2.558 -0.072,0.756 -0.385,0.912 -0.885,0.969 -0.953,0.109 -1.099,-0.62 -1.099,-0.62"
     id="path61" />
  <path
     style="fill:none;stroke:#231f20;stroke-width:0.565977;stroke-linecap:butt;stroke-linejoin:miter;stroke-miterlimit:4;stroke-dasharray:none;stroke-opacity:1"
     d="m 4.5779296,40.671928 c -0.38,-0.52 -0.218,-2.459 -0.708,-3.989 -0.328,-1.031 -0.026,-3.766 -0.432,-4.771 -0.37,-0.923 -0.453,-1.375 0.526,-1.984 0.578,-0.36 1.926,-0.672 2.218,-0.251 0.672,0.979 0.86,1.912 0.85,2.979 -0.016,1.215 -0.35,4.511 -0.47,5.109 -0.296,1.496 0.043,2.152 0,2.558 -0.072,0.756 -0.385,0.912 -0.885,0.969 -0.953,0.109 -1.099,-0.62 -1.099,-0.62 z"
     id="path62" />
  <path
     style="fill:#231f20;fill-opacity:1;fill-rule:nonzero;stroke:none"
     d="m 4.0479296,31.630928 c -1.292,-0.068 -0.819,-2.047 -0.771,-2.588 0.041,-0.543 -0.005,-2.1 -0.193,-3.303 -0.194,-1.213 0.082,-2.803 -0.276,-5.099 -0.188,-1.209 0.39,-2.505 2.156,-2.704 1.745,-0.197 2.51,0.71 2.521,2.204 0.005,1.495 -0.615,2.906 -0.713,4.416 -0.095,1.506 -0.052,3.052 0.036,4.266 0.104,1.381 -0.355,2.1 -0.782,2.318 -1.062,0.547 -1.978,0.49 -1.978,0.49"
     id="path63" />
  <path
     style="fill:none;stroke:#231f20;stroke-width:0.565977;stroke-linecap:butt;stroke-linejoin:miter;stroke-miterlimit:4;stroke-dasharray:none;stroke-opacity:1"
     d="m 4.0479296,31.630928 c -1.292,-0.068 -0.819,-2.047 -0.771,-2.588 0.041,-0.543 -0.005,-2.1 -0.193,-3.303 -0.194,-1.213 0.082,-2.803 -0.276,-5.099 -0.188,-1.209 0.39,-2.505 2.156,-2.704 1.745,-0.197 2.51,0.71 2.521,2.204 0.005,1.495 -0.615,2.906 -0.713,4.416 -0.095,1.506 -0.052,3.052 0.036,4.266 0.104,1.381 -0.355,2.1 -0.782,2.318 -1.062,0.547 -1.978,0.49 -1.978,0.49 z"
     id="path64" />
  <path
     style="fill:#ffffff;fill-opacity:1;fill-rule:nonzero;stroke:#231f20;stroke-width:0.665856;stroke-linecap:butt;stroke-linejoin:miter;stroke-miterlimit:4;stroke-dasharray:none;stroke-opacity:1"
     d="m 4.8599296,32.010928 h 1.328 v -31.678 h -1.328 z"
     id="path65" />
  <path
     style="fill:#ffffff;fill-opacity:1;fill-rule:nonzero;stroke:none"
     d="m 1.6659296,36.942928 c 0,-2.354 1.912,-4.271 4.267,-4.271 2.353,0 4.2710004,1.917 4.2710004,4.271 0,2.354 -1.9180004,4.27 -4.2710004,4.27 -2.355,0 -4.267,-1.916 -4.267,-4.27 m -1.33299995,0 c 0,3.089 2.51099995,5.598 5.59999995,5.598 3.088,0 5.6040004,-2.509 5.6040004,-5.598 0,-3.088 -2.5160004,-5.599 -5.6040004,-5.599 -3.089,0 -5.59999995,2.511 -5.59999995,5.599"
     id="path66" />
  <path
     style="fill:none;stroke:#231f20;stroke-width:0.665856;stroke-linecap:butt;stroke-linejoin:miter;stroke-miterlimit:4;stroke-dasharray:none;stroke-opacity:1"
     d="m 1.6659296,36.942928 c 0,-2.354 1.912,-4.271 4.267,-4.271 2.353,0 4.2710004,1.917 4.2710004,4.271 0,2.354 -1.9180004,4.27 -4.2710004,4.27 -2.355,0 -4.267,-1.916 -4.267,-4.27 z m -1.33299995,0 c 0,3.089 2.51099995,5.598 5.59999995,5.598 3.088,0 5.6040004,-2.509 5.6040004,-5.598 0,-3.088 -2.5160004,-5.599 -5.6040004,-5.599 -3.089,0 -5.59999995,2.511 -5.59999995,5.599 z"
     id="path67" />
  <path
     style="fill:#231f20;fill-opacity:1;fill-rule:nonzero;stroke:none"
     d="m 6.4639296,40.651928 c 0.65,0.26 0.86,2.561 0.568,2.692 -0.292,0.136 -0.276,-0.635 -0.604,-0.505 -0.334,0.13 -0.266,0.63 -0.495,0.65 -0.251,0.027 -0.24,-0.577 -0.532,-0.489 -0.12,0.037 -0.344,0.589 -0.531,0.552 -0.161,-0.036 -0.354,-0.52 -0.484,-0.557 -0.209,-0.052 -0.277,0.562 -0.453,0.532 -0.459,-0.074 0.192,-2.708 0.405,-2.823 0.314,-0.167 1.079,-0.469 2.126,-0.052"
     id="path68" />
  <path
     style="fill:none;stroke:#231f20;stroke-width:0.565977;stroke-linecap:round;stroke-linejoin:round;stroke-miterlimit:4;stroke-dasharray:none;stroke-opacity:1"
     d="m 6.4639296,40.651928 c 0.65,0.26 0.86,2.561 0.568,2.692 -0.292,0.136 -0.276,-0.635 -0.604,-0.505 -0.334,0.13 -0.266,0.63 -0.495,0.65 -0.251,0.027 -0.24,-0.577 -0.532,-0.489 -0.12,0.037 -0.344,0.589 -0.531,0.552 -0.161,-0.036 -0.354,-0.52 -0.484,-0.557 -0.209,-0.052 -0.277,0.562 -0.453,0.532 -0.459,-0.074 0.192,-2.708 0.405,-2.823 0.314,-0.167 1.079,-0.469 2.126,-0.052 z"
     id="path69" />
</svg>
