<?xml version="1.0" encoding="UTF-8" standalone="no"?>
<!-- Created with Inkscape (http://www.inkscape.org/) -->

<svg
   version="1.1"
   id="svg1"
   width="329.69009"
   height="83.759567"
   viewBox="0 0 329.69008 83.75957"
   sodipodi:docname="cell.svg"
   xmlns:inkscape="http://www.inkscape.org/namespaces/inkscape"
   xmlns:sodipodi="http://sodipodi.sourceforge.net/DTD/sodipodi-0.dtd"
   xmlns="http://www.w3.org/2000/svg"
   xmlns:svg="http://www.w3.org/2000/svg">
  <sodipodi:namedview
     id="namedview1"
     pagecolor="#ffffff"
     bordercolor="#000000"
     borderopacity="0.25"
     inkscape:showpageshadow="2"
     inkscape:pageopacity="0.0"
     inkscape:pagecheckerboard="0"
     inkscape:deskcolor="#d1d1d1">
    <inkscape:page
       x="6.8565988e-08"
       y="2.547704e-15"
       inkscape:label="1"
       id="page1"
       width="329.69009"
       height="83.759567"
       margin="0"
       bleed="0" />
  </sodipodi:namedview>
  <defs
     id="defs1" />
  <path
     style="fill:#231f20;fill-opacity:1;fill-rule:nonzero;stroke:none"
     d="m 6.5853225,5.8690696 c 1.068,0.828 0.781,1.776 -0.088,2.338 -0.26,0.172 -0.307,0.584 -0.579,0.73 -0.613,0.333 -2.27,-0.235 -2.15,-1.73 0.01,-0.109 -0.172,-0.905 -0.214,-1.52 -0.088,-1.213 0.334,-3.677 2.547,-5.21299997 1.047,-0.735 1.281,0.02 0.948,0.447 -1.057,1.34399997 -0.891,1.67199997 -1.041,2.11999997 -0.516,1.542 0.577,2.828 0.577,2.828"
     id="path280" />
  <path
     style="fill:none;stroke:#231f20;stroke-width:0.332927;stroke-linecap:butt;stroke-linejoin:miter;stroke-miterlimit:4;stroke-dasharray:none;stroke-opacity:1"
     d="m 6.5853225,5.8690696 c 1.068,0.828 0.781,1.776 -0.088,2.338 -0.26,0.172 -0.307,0.584 -0.579,0.73 -0.613,0.333 -2.27,-0.235 -2.15,-1.73 0.01,-0.109 -0.172,-0.905 -0.214,-1.52 -0.088,-1.213 0.334,-3.677 2.547,-5.21299997 1.047,-0.735 1.281,0.02 0.948,0.447 -1.057,1.34399997 -0.891,1.67199997 -1.041,2.11999997 -0.516,1.542 0.577,2.828 0.577,2.828 z"
     id="path281" />
  <path
     style="fill:#231f20;fill-opacity:1;fill-rule:nonzero;stroke:none"
     d="m 4.8003225,24.53507 c 2.244,0.314 2.724,0.068 2.921,-0.869 0.131,-0.625 0.464,-1.161 0.563,-1.536 0.322,-1.256 0.354,-3.5 -1.235,-9.891 -0.359,-1.448 -0.849,-3.4890004 -0.984,-4.3330004 -0.213,-1.344 -2.292,-0.084 -2.213,0.448 0.244,1.6920004 0.281,2.8800004 0.285,3.5000004 0.005,0.432 0.115,1.187 -0.083,2.839 -0.302,2.505 -0.849,3.968 -0.86,6.082 0,0.979 -0.624,1.719 -0.14,2.683 0.49,0.968 1.746,1.077 1.746,1.077"
     id="path282" />
  <path
     style="fill:none;stroke:#231f20;stroke-width:0.565977;stroke-linecap:butt;stroke-linejoin:miter;stroke-miterlimit:4;stroke-dasharray:none;stroke-opacity:1"
     d="m 4.8003225,24.53507 c 2.244,0.314 2.724,0.068 2.921,-0.869 0.131,-0.625 0.464,-1.161 0.563,-1.536 0.322,-1.256 0.354,-3.5 -1.235,-9.891 -0.359,-1.448 -0.849,-3.4890004 -0.984,-4.3330004 -0.213,-1.344 -2.292,-0.084 -2.213,0.448 0.244,1.6920004 0.281,2.8800004 0.285,3.5000004 0.005,0.432 0.115,1.187 -0.083,2.839 -0.302,2.505 -0.849,3.968 -0.86,6.082 0,0.979 -0.624,1.719 -0.14,2.683 0.49,0.968 1.746,1.077 1.746,1.077 z"
     id="path283" />
  <path
     style="fill:#ca0369;fill-opacity:1;fill-rule:nonzero;stroke:none"
     d="m 7.7263225,50.36307 c -0.046,-3.134 0.287,-3.812 0.635,-4.661 2.1880005,-5.353 -0.479,-6.328 -3.312,-5.76 -3.323,0.661 -4.52499978,0.833 -3.833,7.088 0.193,1.74 0.062,8.51 0.062,8.51 -0.36899978,2.423 0.552,4.98 1.771,5.776 1.281,0.844 0.833,0.418 2.167,0.98 1.265,0.536 3.432,0.25 4.104,-0.792 0.646,-0.994 -0.099,-2.489 -0.891,-4.781 -0.62,-1.807 -0.703,-6.36 -0.703,-6.36"
     id="path284" />
  <path
     style="fill:none;stroke:#231f20;stroke-width:0.565977;stroke-linecap:butt;stroke-linejoin:miter;stroke-miterlimit:4;stroke-dasharray:none;stroke-opacity:1"
     d="m 7.7263225,50.36307 c -0.046,-3.134 0.287,-3.812 0.635,-4.661 2.1880005,-5.353 -0.479,-6.328 -3.312,-5.76 -3.323,0.661 -4.52499978,0.833 -3.833,7.088 0.193,1.74 0.062,8.51 0.062,8.51 -0.36899978,2.423 0.552,4.98 1.771,5.776 1.281,0.844 0.833,0.418 2.167,0.98 1.265,0.536 3.432,0.25 4.104,-0.792 0.646,-0.994 -0.099,-2.489 -0.891,-4.781 -0.62,-1.807 -0.703,-6.36 -0.703,-6.36 z"
     id="path285" />
  <path
     style="fill:#ffffff;fill-opacity:1;fill-rule:nonzero;stroke:none"
     d="m 3.0243225,67.01007 c -0.043,0.24 -1.183,0.364 -1.163,0.89 0.021,0.52 0.787,0.692 1.704,2.463 l 0.011,0.021 c 0.624,1.312 1.692,2.199 2.948,2.251 2.072,0.093 3.8580005,-2.115 3.9840005,-4.933 0.13,-2.823 -1.4480005,-5.187 -3.5270005,-5.282 -1.984,-0.088 -3.708,1.939 -3.957,4.59"
     id="path286" />
  <path
     style="fill:none;stroke:#231f20;stroke-width:0.565977;stroke-linecap:butt;stroke-linejoin:miter;stroke-miterlimit:4;stroke-dasharray:none;stroke-opacity:1"
     d="m 3.0243225,67.01007 c -0.043,0.24 -1.183,0.364 -1.163,0.89 0.021,0.52 0.787,0.692 1.704,2.463 l 0.011,0.021 c 0.624,1.312 1.692,2.199 2.948,2.251 2.072,0.093 3.8580005,-2.115 3.9840005,-4.933 0.13,-2.823 -1.4480005,-5.187 -3.5270005,-5.282 -1.984,-0.088 -3.708,1.939 -3.957,4.59 z"
     id="path287" />
  <path
     style="fill:#231f20;fill-opacity:1;fill-rule:nonzero;stroke:none"
     d="m 5.6943225,22.22907 c -3.91,-0.891 -2.937,3.073 -3.046,3.536 -1.14,4.88 -1.094,5.261 -1.69799978,9.037 -0.874,5.457 -0.641,9.328 2.39099978,10.765 2.052,0.974 3.656,0.646 4.62,-0.25 1.067,-0.995 2.1290005,-3.995 0.348,-6.266 l -0.192,-1.702 c 0.02,-1.162 0.02,-1.735 0.077,-2.314 0.1,-0.994 0.136,-2.066 0.215,-4.025 0.14,-3.469 -0.849,-7.183 -0.849,-7.183 0.016,-1.244 -1.866,-1.598 -1.866,-1.598"
     id="path288" />
  <path
     style="fill:none;stroke:#231f20;stroke-width:0.565977;stroke-linecap:butt;stroke-linejoin:miter;stroke-miterlimit:4;stroke-dasharray:none;stroke-opacity:1"
     d="m 5.6943225,22.22907 c -3.91,-0.891 -2.937,3.073 -3.046,3.536 -1.14,4.88 -1.094,5.261 -1.69799978,9.037 -0.874,5.457 -0.641,9.328 2.39099978,10.765 2.052,0.974 3.656,0.646 4.62,-0.25 1.067,-0.995 2.1290005,-3.995 0.348,-6.266 l -0.192,-1.702 c 0.02,-1.162 0.02,-1.735 0.077,-2.314 0.1,-0.994 0.136,-2.066 0.215,-4.025 0.14,-3.469 -0.849,-7.183 -0.849,-7.183 0.016,-1.244 -1.866,-1.598 -1.866,-1.598 z"
     id="path289" />
  <path
     style="fill:#ca0369;fill-opacity:1;fill-rule:nonzero;stroke:none"
     d="m 8.3093225,39.05107 -7.74899978,-1.025 c -0.047,0.656 -0.052,1.265 -0.036,1.848 -0.027,0.079 -0.054,0.156 -0.084,0.219 -0.35,0.724 -0.083,1.297 0.396,2.218 0.39599978,1.5 1.17199978,2.62 2.50499978,3.256 2.052,0.974 3.656,0.646 4.62,-0.25 1.067,-0.995 2.1290005,-3.995 0.348,-6.266"
     id="path290" />
  <path
     style="fill:none;stroke:#231f20;stroke-width:0.565977;stroke-linecap:butt;stroke-linejoin:miter;stroke-miterlimit:4;stroke-dasharray:none;stroke-opacity:1"
     d="m 8.3093225,39.05107 -7.74899978,-1.025 c -0.047,0.656 -0.052,1.265 -0.036,1.848 -0.027,0.079 -0.054,0.156 -0.084,0.219 -0.35,0.724 -0.083,1.297 0.396,2.218 0.39599978,1.5 1.17199978,2.62 2.50499978,3.256 2.052,0.974 3.656,0.646 4.62,-0.25 1.067,-0.995 2.1290005,-3.995 0.348,-6.266 z"
     id="path291" />
  <path
     style="fill:#231f20;fill-opacity:1;fill-rule:nonzero;stroke:none"
     d="m 5.2843225,80.58707 c -0.375,-0.525 -0.188,-2.457 -0.656,-4 -0.319,-1.036 0.014,-3.76 -0.38,-4.771 -0.36,-0.926 -0.439,-1.385 0.552,-1.978 0.582,-0.355 1.937,-0.651 2.224,-0.224 0.656,0.989 0.833,1.917 0.806,2.989 -0.026,1.213 -0.401,4.505 -0.525,5.104 -0.313,1.491 0.009,2.152 -0.032,2.557 -0.083,0.751 -0.396,0.907 -0.901,0.959 -0.948,0.093 -1.088,-0.636 -1.088,-0.636"
     id="path292" />
  <path
     style="fill:none;stroke:#231f20;stroke-width:0.565977;stroke-linecap:butt;stroke-linejoin:miter;stroke-miterlimit:4;stroke-dasharray:none;stroke-opacity:1"
     d="m 5.2843225,80.58707 c -0.375,-0.525 -0.188,-2.457 -0.656,-4 -0.319,-1.036 0.014,-3.76 -0.38,-4.771 -0.36,-0.926 -0.439,-1.385 0.552,-1.978 0.582,-0.355 1.937,-0.651 2.224,-0.224 0.656,0.989 0.833,1.917 0.806,2.989 -0.026,1.213 -0.401,4.505 -0.525,5.104 -0.313,1.491 0.009,2.152 -0.032,2.557 -0.083,0.751 -0.396,0.907 -0.901,0.959 -0.948,0.093 -1.088,-0.636 -1.088,-0.636 z"
     id="path293" />
  <path
     style="fill:#231f20;fill-opacity:1;fill-rule:nonzero;stroke:none"
     d="m 4.8613225,71.54007 c -1.291,-0.082 -0.796,-2.057 -0.744,-2.593 0.052,-0.541 0.025,-2.099 -0.151,-3.312 -0.177,-1.209 0.119,-2.797 -0.214,-5.1 -0.176,-1.208 0.422,-2.5 2.188,-2.676 1.745,-0.177 2.505,0.733 2.494,2.233 -0.01,1.495 -0.65,2.896 -0.765,4.407 -0.115,1.511 -0.088,3.057 -0.011,4.265 0.084,1.38 -0.385,2.095 -0.812,2.308 -1.068,0.536 -1.985,0.468 -1.985,0.468"
     id="path294" />
  <path
     style="fill:none;stroke:#231f20;stroke-width:0.565977;stroke-linecap:butt;stroke-linejoin:miter;stroke-miterlimit:4;stroke-dasharray:none;stroke-opacity:1"
     d="m 4.8613225,71.54007 c -1.291,-0.082 -0.796,-2.057 -0.744,-2.593 0.052,-0.541 0.025,-2.099 -0.151,-3.312 -0.177,-1.209 0.119,-2.797 -0.214,-5.1 -0.176,-1.208 0.422,-2.5 2.188,-2.676 1.745,-0.177 2.505,0.733 2.494,2.233 -0.01,1.495 -0.65,2.896 -0.765,4.407 -0.115,1.511 -0.088,3.057 -0.011,4.265 0.084,1.38 -0.385,2.095 -0.812,2.308 -1.068,0.536 -1.985,0.468 -1.985,0.468 z"
     id="path295" />
  <path
     style="fill:#ffffff;fill-opacity:1;fill-rule:nonzero;stroke:none"
     d="m 5.0543225,72.00407 h 1.328 V 3.0260696 h -1.328 z"
     id="path296" />
  <path
     style="fill:none;stroke:#231f20;stroke-width:0.665856;stroke-linecap:butt;stroke-linejoin:miter;stroke-miterlimit:4;stroke-dasharray:none;stroke-opacity:1"
     d="m 5.0543225,72.00407 h 1.334 V 3.0260696 h -1.334 z"
     id="path297" />
  <path
     style="fill:#ffffff;fill-opacity:1;fill-rule:nonzero;stroke:none"
     d="m 1.8613225,76.93607 c 0,-2.353 1.912,-4.265 4.267,-4.265 2.353,0 4.2700005,1.912 4.2700005,4.265 0,2.355 -1.9170005,4.271 -4.2700005,4.271 -2.355,0 -4.267,-1.916 -4.267,-4.271 m -1.33299978,0 c 0,3.09 2.50999978,5.599 5.59999978,5.599 3.088,0 5.6040005,-2.509 5.6040005,-5.599 0,-3.088 -2.5160005,-5.598 -5.6040005,-5.598 -3.09,0 -5.59999978,2.51 -5.59999978,5.598"
     id="path298" />
  <path
     style="fill:none;stroke:#231f20;stroke-width:0.665856;stroke-linecap:butt;stroke-linejoin:miter;stroke-miterlimit:4;stroke-dasharray:none;stroke-opacity:1"
     d="m 1.8613225,76.93607 c 0,-2.353 1.912,-4.265 4.267,-4.265 2.353,0 4.2700005,1.912 4.2700005,4.265 0,2.355 -1.9170005,4.271 -4.2700005,4.271 -2.355,0 -4.267,-1.916 -4.267,-4.271 z m -1.33299978,0 c 0,3.09 2.50999978,5.599 5.59999978,5.599 3.088,0 5.6040005,-2.509 5.6040005,-5.599 0,-3.088 -2.5160005,-5.598 -5.6040005,-5.598 -3.09,0 -5.59999978,2.51 -5.59999978,5.598 z"
     id="path299" />
  <path
     style="fill:#231f20;fill-opacity:1;fill-rule:nonzero;stroke:none"
     d="m 7.1743225,80.58707 c 0.64,0.267 0.828,2.579 0.531,2.704 -0.287,0.125 -0.265,-0.641 -0.599,-0.511 -0.333,0.126 -0.27,0.62 -0.5,0.64 -0.249,0.027 -0.234,-0.582 -0.521,-0.494 -0.124,0.037 -0.353,0.584 -0.541,0.548 -0.167,-0.038 -0.35,-0.527 -0.479,-0.563 -0.208,-0.057 -0.281,0.552 -0.459,0.525 -0.458,-0.082 0.224,-2.708 0.438,-2.817 0.317,-0.167 1.084,-0.459 2.13,-0.032"
     id="path300" />
  <path
     style="fill:none;stroke:#231f20;stroke-width:0.565977;stroke-linecap:round;stroke-linejoin:round;stroke-miterlimit:4;stroke-dasharray:none;stroke-opacity:1"
     d="m 7.1743225,80.58707 c 0.64,0.267 0.828,2.579 0.531,2.704 -0.287,0.125 -0.265,-0.641 -0.599,-0.511 -0.333,0.126 -0.27,0.62 -0.5,0.64 -0.249,0.027 -0.234,-0.582 -0.521,-0.494 -0.124,0.037 -0.353,0.584 -0.541,0.548 -0.167,-0.038 -0.35,-0.527 -0.479,-0.563 -0.208,-0.057 -0.281,0.552 -0.459,0.525 -0.458,-0.082 0.224,-2.708 0.438,-2.817 0.317,-0.167 1.084,-0.459 2.13,-0.032 z"
     id="path301" />
  <path
     style="fill:#231f20;fill-opacity:1;fill-rule:nonzero;stroke:none"
     d="m 27.278323,3.4110696 c 1.192,-0.641 1.943,0.01 2.104,1.036 0.047,0.307 0.402,0.522 0.422,0.823 0.053,0.699 -1.135,1.98 -2.452,1.261 -0.1,-0.053 -0.896,-0.214 -1.48,-0.428 -1.14,-0.41 -3.219,-1.801 -3.714,-4.453 -0.244,-1.24899997 0.536,-1.16699997 0.787,-0.68099997 0.797,1.51399997 1.167,1.49399997 1.516,1.81699997 1.192,1.093 2.817,0.625 2.817,0.625"
     id="path302" />
  <path
     style="fill:none;stroke:#231f20;stroke-width:0.332927;stroke-linecap:butt;stroke-linejoin:miter;stroke-miterlimit:4;stroke-dasharray:none;stroke-opacity:1"
     d="m 27.278323,3.4110696 c 1.192,-0.641 1.943,0.01 2.104,1.036 0.047,0.307 0.402,0.522 0.422,0.823 0.053,0.699 -1.135,1.98 -2.452,1.261 -0.1,-0.053 -0.896,-0.214 -1.48,-0.428 -1.14,-0.41 -3.219,-1.801 -3.714,-4.453 -0.244,-1.24899997 0.536,-1.16699997 0.787,-0.68099997 0.797,1.51399997 1.167,1.49399997 1.516,1.81699997 1.192,1.093 2.817,0.625 2.817,0.625 z"
     id="path303" />
  <path
     style="fill:#231f20;fill-opacity:1;fill-rule:nonzero;stroke:none"
     d="m 43.590323,12.66607 c 1.199,-1.927 1.172,-2.459 0.396,-3.0250004 -0.516,-0.371 -0.864,-0.896 -1.172,-1.136 -1.014,-0.812 -3.046,-1.755 -9.53,-2.918 -1.47,-0.265 -3.532,-0.65 -4.36,-0.869 -1.307,-0.355 -1.01,2.057 -0.495,2.203 1.647,0.469 2.745,0.922 3.313,1.166 0.395,0.167 1.124,0.387 2.558,1.235 2.166,1.3030004 3.27,2.4010004 5.202,3.2650004 0.896,0.407 1.307,1.278 2.396,1.23 1.083,-0.052 1.692,-1.151 1.692,-1.151"
     id="path304" />
  <path
     style="fill:none;stroke:#231f20;stroke-width:0.565977;stroke-linecap:butt;stroke-linejoin:miter;stroke-miterlimit:4;stroke-dasharray:none;stroke-opacity:1"
     d="m 43.590323,12.66607 c 1.199,-1.927 1.172,-2.459 0.396,-3.0250004 -0.516,-0.371 -0.864,-0.896 -1.172,-1.136 -1.014,-0.812 -3.046,-1.755 -9.53,-2.918 -1.47,-0.265 -3.532,-0.65 -4.36,-0.869 -1.307,-0.355 -1.01,2.057 -0.495,2.203 1.647,0.469 2.745,0.922 3.313,1.166 0.395,0.167 1.124,0.387 2.558,1.235 2.166,1.3030004 3.27,2.4010004 5.202,3.2650004 0.896,0.407 1.307,1.278 2.396,1.23 1.083,-0.052 1.692,-1.151 1.692,-1.151 z"
     id="path305" />
  <path
     style="fill:#ca0369;fill-opacity:1;fill-rule:nonzero;stroke:none"
     d="m 68.565323,19.73907 c -3.027,-0.818 -3.584,-1.328 -4.303,-1.896 -4.536,-3.589 -6.213,-1.297 -6.453,1.583 -0.285,3.381 -0.452,4.584 5.751,5.647 1.729,0.296 8.197,2.296 8.197,2.296 2.218,1.026 4.933,0.844 6.037,-0.099 1.167,-1 0.635,-0.687 1.547,-1.812 0.864,-1.068 1.182,-3.229 0.369,-4.161 -0.776,-0.902 -2.416,-0.595 -4.839,-0.475 -1.91,0.099 -6.306,-1.083 -6.306,-1.083"
     id="path306" />
  <path
     style="fill:none;stroke:#231f20;stroke-width:0.565977;stroke-linecap:butt;stroke-linejoin:miter;stroke-miterlimit:4;stroke-dasharray:none;stroke-opacity:1"
     d="m 68.565323,19.73907 c -3.027,-0.818 -3.584,-1.328 -4.303,-1.896 -4.536,-3.589 -6.213,-1.297 -6.453,1.583 -0.285,3.381 -0.452,4.584 5.751,5.647 1.729,0.296 8.197,2.296 8.197,2.296 2.218,1.026 4.933,0.844 6.037,-0.099 1.167,-1 0.635,-0.687 1.547,-1.812 0.864,-1.068 1.182,-3.229 0.369,-4.161 -0.776,-0.902 -2.416,-0.595 -4.839,-0.475 -1.91,0.099 -6.306,-1.083 -6.306,-1.083 z"
     id="path307" />
  <path
     style="fill:#ffffff;fill-opacity:1;fill-rule:nonzero;stroke:none"
     d="m 85.319323,27.86907 c 0.24,0.057 0.292,1.204 0.814,1.218 0.52,0.022 0.749,-0.733 2.572,-1.525 l 0.021,-0.005 c 1.355,-0.531 2.312,-1.542 2.453,-2.782 0.238998,-2.068 -1.838,-4.005 -4.646,-4.322 -2.807,-0.323 -5.271,1.082 -5.51,3.145 -0.229,1.969 1.671,3.833 4.296,4.271"
     id="path308" />
  <path
     style="fill:none;stroke:#231f20;stroke-width:0.565977;stroke-linecap:butt;stroke-linejoin:miter;stroke-miterlimit:4;stroke-dasharray:none;stroke-opacity:1"
     d="m 85.319323,27.86907 c 0.24,0.057 0.292,1.204 0.814,1.218 0.52,0.022 0.749,-0.733 2.572,-1.525 l 0.021,-0.005 c 1.355,-0.531 2.312,-1.542 2.453,-2.782 0.238998,-2.068 -1.838,-4.005 -4.646,-4.322 -2.807,-0.323 -5.271,1.082 -5.51,3.145 -0.229,1.969 1.671,3.833 4.296,4.271 z"
     id="path309" />
  <path
     style="fill:#231f20;fill-opacity:1;fill-rule:nonzero;stroke:none"
     d="m 41.852323,10.90107 c -2.418,3.208 1.604,3.942 1.978,4.229 3.99,3.031 4.36,3.145 7.552,5.239 4.626,3.026 8.26,4.39 10.808,2.218 1.728,-1.478 2.083,-3.077 1.656,-4.322 -0.474,-1.386 -2.776,-3.578 -5.573,-2.875 l -1.635,-0.521 c -1.048,-0.495 -1.578,-0.728 -2.078,-1.015 -0.87,-0.5 -1.834,-0.969 -3.588,-1.844 -3.111,-1.541 -6.902,-2.1560004 -6.902,-2.1560004 -1.13,-0.521 -2.218,1.0470004 -2.218,1.0470004"
     id="path310" />
  <path
     style="fill:none;stroke:#231f20;stroke-width:0.565977;stroke-linecap:butt;stroke-linejoin:miter;stroke-miterlimit:4;stroke-dasharray:none;stroke-opacity:1"
     d="m 41.852323,10.90107 c -2.418,3.208 1.604,3.942 1.978,4.229 3.99,3.031 4.36,3.145 7.552,5.239 4.626,3.026 8.26,4.39 10.808,2.218 1.728,-1.478 2.083,-3.077 1.656,-4.322 -0.474,-1.386 -2.776,-3.578 -5.573,-2.875 l -1.635,-0.521 c -1.048,-0.495 -1.578,-0.728 -2.078,-1.015 -0.87,-0.5 -1.834,-0.969 -3.588,-1.844 -3.111,-1.541 -6.902,-2.1560004 -6.902,-2.1560004 -1.13,-0.521 -2.218,1.0470004 -2.218,1.0470004 z"
     id="path311" />
  <path
     style="fill:#ca0369;fill-opacity:1;fill-rule:nonzero;stroke:none"
     d="m 63.846323,18.26507 c -0.474,-1.38 -2.77,-3.578 -5.573,-2.875 l -4.099,6.651 c 0.578,0.313 1.131,0.568 1.672,0.792 0.063,0.052 0.12,0.104 0.167,0.161 0.515,0.615 1.145,0.604 2.181,0.547 1.532,0.256 2.876,0.005 3.996,-0.954 1.728,-1.478 2.083,-3.077 1.656,-4.322"
     id="path312" />
  <path
     style="fill:none;stroke:#231f20;stroke-width:0.565977;stroke-linecap:butt;stroke-linejoin:miter;stroke-miterlimit:4;stroke-dasharray:none;stroke-opacity:1"
     d="m 63.846323,18.26507 c -0.474,-1.38 -2.77,-3.578 -5.573,-2.875 l -4.099,6.651 c 0.578,0.313 1.131,0.568 1.672,0.792 0.063,0.052 0.12,0.104 0.167,0.161 0.515,0.615 1.145,0.604 2.181,0.547 1.532,0.256 2.876,0.005 3.996,-0.954 1.728,-1.478 2.083,-3.077 1.656,-4.322 z"
     id="path313" />
  <path
     style="fill:#231f20;fill-opacity:1;fill-rule:nonzero;stroke:none"
     d="m 70.305323,42.89507 c -0.199,-0.609 0.572,-2.401 0.593,-4.01 0.011,-1.083 1.161,-3.574 1.093,-4.662 -0.062,-0.989 0,-1.448 1.126,-1.718 0.661,-0.151 2.041,-0.027 2.188,0.464 0.322,1.145 0.202,2.082 -0.142,3.093 -0.401,1.151 -1.754,4.172 -2.057,4.703 -0.749,1.322 -0.64,2.052 -0.807,2.422 -0.313,0.698 -0.657,0.75 -1.152,0.646 -0.932,-0.203 -0.842,-0.938 -0.842,-0.938"
     id="path314" />
  <path
     style="fill:none;stroke:#231f20;stroke-width:0.565977;stroke-linecap:butt;stroke-linejoin:miter;stroke-miterlimit:4;stroke-dasharray:none;stroke-opacity:1"
     d="m 70.305323,42.89507 c -0.199,-0.609 0.572,-2.401 0.593,-4.01 0.011,-1.083 1.161,-3.574 1.093,-4.662 -0.062,-0.989 0,-1.448 1.126,-1.718 0.661,-0.151 2.041,-0.027 2.188,0.464 0.322,1.145 0.202,2.082 -0.142,3.093 -0.401,1.151 -1.754,4.172 -2.057,4.703 -0.749,1.322 -0.64,2.052 -0.807,2.422 -0.313,0.698 -0.657,0.75 -1.152,0.646 -0.932,-0.203 -0.842,-0.938 -0.842,-0.938 z"
     id="path315" />
  <path
     style="fill:#231f20;fill-opacity:1;fill-rule:nonzero;stroke:none"
     d="m 72.658323,34.14507 c -1.203,-0.468 -0.131,-2.192 0.084,-2.698 0.213,-0.494 0.661,-1.989 0.859,-3.193 0.202,-1.208 0.964,-2.629 1.349,-4.927 0.203,-1.202 1.167,-2.249 2.901,-1.885 1.714,0.36 2.162,1.469 1.692,2.891 -0.462,1.426 -1.5,2.562 -2.068,3.969 -0.566,1.395 -1.014,2.875 -1.306,4.052 -0.344,1.343 -1.006,1.88 -1.479,1.953 -1.183,0.187 -2.032,-0.162 -2.032,-0.162"
     id="path316" />
  <path
     style="fill:none;stroke:#231f20;stroke-width:0.565977;stroke-linecap:butt;stroke-linejoin:miter;stroke-miterlimit:4;stroke-dasharray:none;stroke-opacity:1"
     d="m 72.658323,34.14507 c -1.203,-0.468 -0.131,-2.192 0.084,-2.698 0.213,-0.494 0.661,-1.989 0.859,-3.193 0.202,-1.208 0.964,-2.629 1.349,-4.927 0.203,-1.202 1.167,-2.249 2.901,-1.885 1.714,0.36 2.162,1.469 1.692,2.891 -0.462,1.426 -1.5,2.562 -2.068,3.969 -0.566,1.395 -1.014,2.875 -1.306,4.052 -0.344,1.343 -1.006,1.88 -1.479,1.953 -1.183,0.187 -2.032,-0.162 -2.032,-0.162 z"
     id="path317" />
  <path
     style="fill:#ffffff;fill-opacity:1;fill-rule:nonzero;stroke:#231f20;stroke-width:0.665856;stroke-linecap:butt;stroke-linejoin:miter;stroke-miterlimit:4;stroke-dasharray:none;stroke-opacity:1"
     d="m 69.585323,34.88507 h 1.333 V 3.2120696 h -1.333 z"
     id="path318" />
  <path
     style="fill:#ffffff;fill-opacity:1;fill-rule:nonzero;stroke:none"
     d="m 66.393323,39.82207 c 0,-2.353 1.916,-4.271 4.265,-4.271 2.355,0 4.271,1.918 4.271,4.271 0,2.355 -1.916,4.271 -4.271,4.271 -2.349,0 -4.265,-1.916 -4.265,-4.271 m -1.333,0 c 0,3.089 2.516,5.599 5.598,5.599 3.089,0 5.604,-2.51 5.604,-5.599 0,-3.088 -2.515,-5.599 -5.604,-5.599 -3.082,0 -5.598,2.511 -5.598,5.599"
     id="path319" />
  <path
     style="fill:none;stroke:#231f20;stroke-width:0.665856;stroke-linecap:butt;stroke-linejoin:miter;stroke-miterlimit:4;stroke-dasharray:none;stroke-opacity:1"
     d="m 66.393323,39.82207 c 0,-2.353 1.916,-4.271 4.265,-4.271 2.355,0 4.271,1.918 4.271,4.271 0,2.355 -1.916,4.271 -4.271,4.271 -2.349,0 -4.265,-1.916 -4.265,-4.271 z m -1.333,0 c 0,3.089 2.516,5.599 5.598,5.599 3.089,0 5.604,-2.51 5.604,-5.599 0,-3.088 -2.515,-5.599 -5.604,-5.599 -3.082,0 -5.598,2.511 -5.598,5.599 z"
     id="path320" />
  <path
     style="fill:#231f20;fill-opacity:1;fill-rule:nonzero;stroke:none"
     d="m 72.351323,43.20707 c 0.64,0.287 0.755,2.6 0.458,2.714 -0.291,0.12 -0.25,-0.646 -0.588,-0.526 -0.334,0.115 -0.287,0.615 -0.516,0.626 -0.255,0.014 -0.214,-0.59 -0.511,-0.511 -0.124,0.031 -0.369,0.577 -0.552,0.531 -0.161,-0.042 -0.333,-0.536 -0.468,-0.578 -0.203,-0.062 -0.292,0.547 -0.469,0.511 -0.457,-0.089 0.302,-2.699 0.516,-2.803 0.328,-0.15 1.104,-0.421 2.13,0.036"
     id="path321" />
  <path
     style="fill:none;stroke:#231f20;stroke-width:0.565977;stroke-linecap:round;stroke-linejoin:round;stroke-miterlimit:4;stroke-dasharray:none;stroke-opacity:1"
     d="m 72.351323,43.20707 c 0.64,0.287 0.755,2.6 0.458,2.714 -0.291,0.12 -0.25,-0.646 -0.588,-0.526 -0.334,0.115 -0.287,0.615 -0.516,0.626 -0.255,0.014 -0.214,-0.59 -0.511,-0.511 -0.124,0.031 -0.369,0.577 -0.552,0.531 -0.161,-0.042 -0.333,-0.536 -0.468,-0.578 -0.203,-0.062 -0.292,0.547 -0.469,0.511 -0.457,-0.089 0.302,-2.699 0.516,-2.803 0.328,-0.15 1.104,-0.421 2.13,0.036 z"
     id="path322" />
  <path
     style="fill:#231f20;fill-opacity:1;fill-rule:nonzero;stroke:none"
     d="m 104.29432,23.09307 c 0.916,-0.99 1.839,-0.619 2.323,0.292 0.145,0.276 0.552,0.36 0.672,0.641 0.276,0.64 -0.428,2.239 -1.902,1.989 -0.114,-0.016 -0.921,0.094 -1.541,0.088 -1.213,-0.02 -3.631,-0.65 -4.968999,-2.994 -0.64,-1.104 0.13,-1.276 0.521,-0.902 1.248999,1.167 1.592999,1.027 2.024999,1.219 1.491,0.647 2.871,-0.333 2.871,-0.333"
     id="path323" />
  <path
     style="fill:none;stroke:#231f20;stroke-width:0.332927;stroke-linecap:butt;stroke-linejoin:miter;stroke-miterlimit:4;stroke-dasharray:none;stroke-opacity:1"
     d="m 104.29432,23.09307 c 0.916,-0.99 1.839,-0.619 2.323,0.292 0.145,0.276 0.552,0.36 0.672,0.641 0.276,0.64 -0.428,2.239 -1.902,1.989 -0.114,-0.016 -0.921,0.094 -1.541,0.088 -1.213,-0.02 -3.631,-0.65 -4.968999,-2.994 -0.64,-1.104 0.13,-1.276 0.521,-0.902 1.248999,1.167 1.592999,1.027 2.024999,1.219 1.491,0.647 2.871,-0.333 2.871,-0.333 z"
     id="path324" />
  <path
     style="fill:#231f20;fill-opacity:1;fill-rule:nonzero;stroke:none"
     d="m 122.73132,26.49407 c 0.506,-2.208 0.307,-2.703 -0.609,-2.984 -0.609,-0.183 -1.115,-0.563 -1.484,-0.693 -1.224,-0.438 -3.453,-0.656 -9.959,0.365 -1.474,0.235 -3.552,0.547 -4.401,0.609 -1.355,0.094 -0.287,2.276 0.249,2.244 1.71,-0.098 2.896,-0.03 3.516,0.022 0.427,0.026 1.183,-0.011 2.818,0.322 2.474,0.522 3.881,1.199 5.985,1.386 0.979,0.089 1.656,0.776 2.667,0.376 1.005,-0.407 1.218,-1.647 1.218,-1.647"
     id="path325" />
  <path
     style="fill:none;stroke:#231f20;stroke-width:0.565977;stroke-linecap:butt;stroke-linejoin:miter;stroke-miterlimit:4;stroke-dasharray:none;stroke-opacity:1"
     d="m 122.73132,26.49407 c 0.506,-2.208 0.307,-2.703 -0.609,-2.984 -0.609,-0.183 -1.115,-0.563 -1.484,-0.693 -1.224,-0.438 -3.453,-0.656 -9.959,0.365 -1.474,0.235 -3.552,0.547 -4.401,0.609 -1.355,0.094 -0.287,2.276 0.249,2.244 1.71,-0.098 2.896,-0.03 3.516,0.022 0.427,0.026 1.183,-0.011 2.818,0.322 2.474,0.522 3.881,1.199 5.985,1.386 0.979,0.089 1.656,0.776 2.667,0.376 1.005,-0.407 1.218,-1.647 1.218,-1.647 z"
     id="path326" />
  <path
     style="fill:#ca0369;fill-opacity:1;fill-rule:nonzero;stroke:none"
     d="m 148.64732,25.00507 c -3.124,0.213 -3.817,-0.084 -4.686,-0.391 -5.459,-1.901 -6.292,0.812 -5.579,3.615 0.844,3.286 1.073,4.478 7.287,3.453 1.729,-0.287 8.5,-0.516 8.5,-0.516 2.432,0.245 4.937,-0.817 5.672,-2.073 0.77,-1.323 0.369,-0.859 0.864,-2.219 0.464,-1.287 0.062,-3.443 -1.011,-4.057 -1.031,-0.594 -2.484,0.234 -4.728,1.141 -1.776,0.719 -6.319,1.047 -6.319,1.047"
     id="path327" />
  <path
     style="fill:none;stroke:#231f20;stroke-width:0.565977;stroke-linecap:butt;stroke-linejoin:miter;stroke-miterlimit:4;stroke-dasharray:none;stroke-opacity:1"
     d="m 148.64732,25.00507 c -3.124,0.213 -3.817,-0.084 -4.686,-0.391 -5.459,-1.901 -6.292,0.812 -5.579,3.615 0.844,3.286 1.073,4.478 7.287,3.453 1.729,-0.287 8.5,-0.516 8.5,-0.516 2.432,0.245 4.937,-0.817 5.672,-2.073 0.77,-1.323 0.369,-0.859 0.864,-2.219 0.464,-1.287 0.062,-3.443 -1.011,-4.057 -1.031,-0.594 -2.484,0.234 -4.728,1.141 -1.776,0.719 -6.319,1.047 -6.319,1.047 z"
     id="path328" />
  <path
     style="fill:#ffffff;fill-opacity:1;fill-rule:nonzero;stroke:none"
     d="m 167.34132,24.69707 c 0.229,-0.094 0.932,0.813 1.369,0.526 0.437,-0.292 0.183,-1.036 1.213,-2.734 l 0.011,-0.015 c 0.797,-1.22 0.995,-2.595 0.391,-3.693 -0.995,-1.823 -3.812,-2.198 -6.292,-0.834 -2.474,1.36 -3.667,3.938 -2.667,5.755 0.953,1.745 3.579,2.163 5.975,0.995"
     id="path329" />
  <path
     style="fill:none;stroke:#231f20;stroke-width:0.565977;stroke-linecap:butt;stroke-linejoin:miter;stroke-miterlimit:4;stroke-dasharray:none;stroke-opacity:1"
     d="m 167.34132,24.69707 c 0.229,-0.094 0.932,0.813 1.369,0.526 0.437,-0.292 0.183,-1.036 1.213,-2.734 l 0.011,-0.015 c 0.797,-1.22 0.995,-2.595 0.391,-3.693 -0.995,-1.823 -3.812,-2.198 -6.292,-0.834 -2.474,1.36 -3.667,3.938 -2.667,5.755 0.953,1.745 3.579,2.163 5.975,0.995 z"
     id="path330" />
  <path
     style="fill:#231f20;fill-opacity:1;fill-rule:nonzero;stroke:none"
     d="m 120.51332,25.40107 c -1.23,3.822 2.806,3.197 3.26,3.344 4.76,1.562 5.145,1.546 8.849,2.478 5.364,1.35 9.239,1.443 10.937,-1.442 1.151,-1.97 0.959,-3.588 0.146,-4.631 -0.896,-1.151 -3.787,-2.468 -6.208,-0.885 l -1.708,0.042 c -1.156,-0.125 -1.735,-0.172 -2.303,-0.277 -0.984,-0.187 -2.047,-0.317 -3.989,-0.567 -3.443,-0.437 -7.23,0.224 -7.23,0.224 -1.24,-0.125 -1.754,1.714 -1.754,1.714"
     id="path331" />
  <path
     style="fill:none;stroke:#231f20;stroke-width:0.565977;stroke-linecap:butt;stroke-linejoin:miter;stroke-miterlimit:4;stroke-dasharray:none;stroke-opacity:1"
     d="m 120.51332,25.40107 c -1.23,3.822 2.806,3.197 3.26,3.344 4.76,1.562 5.145,1.546 8.849,2.478 5.364,1.35 9.239,1.443 10.937,-1.442 1.151,-1.97 0.959,-3.588 0.146,-4.631 -0.896,-1.151 -3.787,-2.468 -6.208,-0.885 l -1.708,0.042 c -1.156,-0.125 -1.735,-0.172 -2.303,-0.277 -0.984,-0.187 -2.047,-0.317 -3.989,-0.567 -3.443,-0.437 -7.23,0.224 -7.23,0.224 -1.24,-0.125 -1.754,1.714 -1.754,1.714 z"
     id="path332" />
  <path
     style="fill:#ca0369;fill-opacity:1;fill-rule:nonzero;stroke:none"
     d="m 143.70532,25.15007 c -0.896,-1.151 -3.787,-2.468 -6.208,-0.885 l -1.694,7.625 c 0.652,0.104 1.262,0.161 1.844,0.197 0.074,0.032 0.147,0.063 0.21,0.1 0.686,0.411 1.28,0.198 2.238,-0.198 1.532,-0.26 2.714,-0.938 3.464,-2.208 1.151,-1.97 0.959,-3.588 0.146,-4.631"
     id="path333" />
  <path
     style="fill:none;stroke:#231f20;stroke-width:0.565977;stroke-linecap:butt;stroke-linejoin:miter;stroke-miterlimit:4;stroke-dasharray:none;stroke-opacity:1"
     d="m 143.70532,25.15007 c -0.896,-1.151 -3.787,-2.468 -6.208,-0.885 l -1.694,7.625 c 0.652,0.104 1.262,0.161 1.844,0.197 0.074,0.032 0.147,0.063 0.21,0.1 0.686,0.411 1.28,0.198 2.238,-0.198 1.532,-0.26 2.714,-0.938 3.464,-2.208 1.151,-1.97 0.959,-3.588 0.146,-4.631 z"
     id="path334" />
  <path
     style="fill:#231f20;fill-opacity:1;fill-rule:nonzero;stroke:none"
     d="m 147.24232,42.73907 c -0.052,-0.636 1.104,-2.208 1.484,-3.765 0.26,-1.053 1.943,-3.22 2.125,-4.292 0.167,-0.98 0.334,-1.412 1.484,-1.423 0.683,0 1.995,0.438 2.026,0.954 0.057,1.182 -0.271,2.073 -0.838,2.98 -0.652,1.025 -2.657,3.661 -3.073,4.114 -1.027,1.119 -1.084,1.848 -1.333,2.171 -0.459,0.615 -0.808,0.584 -1.266,0.371 -0.86,-0.412 -0.609,-1.11 -0.609,-1.11"
     id="path335" />
  <path
     style="fill:none;stroke:#231f20;stroke-width:0.565977;stroke-linecap:butt;stroke-linejoin:miter;stroke-miterlimit:4;stroke-dasharray:none;stroke-opacity:1"
     d="m 147.24232,42.73907 c -0.052,-0.636 1.104,-2.208 1.484,-3.765 0.26,-1.053 1.943,-3.22 2.125,-4.292 0.167,-0.98 0.334,-1.412 1.484,-1.423 0.683,0 1.995,0.438 2.026,0.954 0.057,1.182 -0.271,2.073 -0.838,2.98 -0.652,1.025 -2.657,3.661 -3.073,4.114 -1.027,1.119 -1.084,1.848 -1.333,2.171 -0.459,0.615 -0.808,0.584 -1.266,0.371 -0.86,-0.412 -0.609,-1.11 -0.609,-1.11 z"
     id="path336" />
  <path
     style="fill:#231f20;fill-opacity:1;fill-rule:nonzero;stroke:none"
     d="m 151.51832,34.75907 c -1.068,-0.733 0.369,-2.172 0.692,-2.614 0.328,-0.432 1.099,-1.786 1.568,-2.911 0.469,-1.136 1.536,-2.344 2.427,-4.495 0.469,-1.13 1.646,-1.928 3.256,-1.177 1.588,0.74 1.77,1.916 0.994,3.197 -0.776,1.282 -2.041,2.158 -2.917,3.396 -0.869,1.235 -1.645,2.574 -2.192,3.652 -0.636,1.228 -1.407,1.604 -1.88,1.567 -1.199,-0.088 -1.948,-0.615 -1.948,-0.615"
     id="path337" />
  <path
     style="fill:none;stroke:#231f20;stroke-width:0.565977;stroke-linecap:butt;stroke-linejoin:miter;stroke-miterlimit:4;stroke-dasharray:none;stroke-opacity:1"
     d="m 151.51832,34.75907 c -1.068,-0.733 0.369,-2.172 0.692,-2.614 0.328,-0.432 1.099,-1.786 1.568,-2.911 0.469,-1.136 1.536,-2.344 2.427,-4.495 0.469,-1.13 1.646,-1.928 3.256,-1.177 1.588,0.74 1.77,1.916 0.994,3.197 -0.776,1.282 -2.041,2.158 -2.917,3.396 -0.869,1.235 -1.645,2.574 -2.192,3.652 -0.636,1.228 -1.407,1.604 -1.88,1.567 -1.199,-0.088 -1.948,-0.615 -1.948,-0.615 z"
     id="path338" />
  <path
     style="fill:#ffffff;fill-opacity:1;fill-rule:nonzero;stroke:#231f20;stroke-width:0.665856;stroke-linecap:butt;stroke-linejoin:miter;stroke-miterlimit:4;stroke-dasharray:none;stroke-opacity:1"
     d="m 146.41432,34.88507 h 1.333 V 3.2120696 h -1.333 z"
     id="path339" />
  <path
     style="fill:#ffffff;fill-opacity:1;fill-rule:nonzero;stroke:none"
     d="m 143.22132,39.82207 c 0,-2.353 1.916,-4.271 4.27,-4.271 2.355,0 4.266,1.918 4.266,4.271 0,2.355 -1.911,4.271 -4.266,4.271 -2.354,0 -4.27,-1.916 -4.27,-4.271 m -1.334,0 c 0,3.089 2.516,5.599 5.604,5.599 3.084,0 5.599,-2.51 5.599,-5.599 0,-3.088 -2.515,-5.599 -5.599,-5.599 -3.088,0 -5.604,2.511 -5.604,5.599"
     id="path340" />
  <path
     style="fill:none;stroke:#231f20;stroke-width:0.665856;stroke-linecap:butt;stroke-linejoin:miter;stroke-miterlimit:4;stroke-dasharray:none;stroke-opacity:1"
     d="m 143.22132,39.82207 c 0,-2.353 1.916,-4.271 4.27,-4.271 2.355,0 4.266,1.918 4.266,4.271 0,2.355 -1.911,4.271 -4.266,4.271 -2.354,0 -4.27,-1.916 -4.27,-4.271 z m -1.334,0 c 0,3.089 2.516,5.599 5.604,5.599 3.084,0 5.599,-2.51 5.599,-5.599 0,-3.088 -2.515,-5.599 -5.599,-5.599 -3.088,0 -5.604,2.511 -5.604,5.599 z"
     id="path341" />
  <path
     style="fill:#231f20;fill-opacity:1;fill-rule:nonzero;stroke:none"
     d="m 149.17932,43.20707 c 0.64,0.287 0.755,2.6 0.459,2.714 -0.292,0.12 -0.251,-0.646 -0.584,-0.526 -0.339,0.115 -0.292,0.615 -0.521,0.626 -0.255,0.014 -0.214,-0.59 -0.506,-0.511 -0.129,0.031 -0.369,0.577 -0.557,0.531 -0.161,-0.042 -0.333,-0.536 -0.463,-0.578 -0.204,-0.062 -0.297,0.547 -0.474,0.511 -0.458,-0.089 0.302,-2.699 0.521,-2.803 0.323,-0.15 1.099,-0.421 2.125,0.036"
     id="path342" />
  <path
     style="fill:none;stroke:#231f20;stroke-width:0.565977;stroke-linecap:round;stroke-linejoin:round;stroke-miterlimit:4;stroke-dasharray:none;stroke-opacity:1"
     d="m 149.17932,43.20707 c 0.64,0.287 0.755,2.6 0.459,2.714 -0.292,0.12 -0.251,-0.646 -0.584,-0.526 -0.339,0.115 -0.292,0.615 -0.521,0.626 -0.255,0.014 -0.214,-0.59 -0.506,-0.511 -0.129,0.031 -0.369,0.577 -0.557,0.531 -0.161,-0.042 -0.333,-0.536 -0.463,-0.578 -0.204,-0.062 -0.297,0.547 -0.474,0.511 -0.458,-0.089 0.302,-2.699 0.521,-2.803 0.323,-0.15 1.099,-0.421 2.125,0.036 z"
     id="path343" />
  <path
     style="fill:#231f20;fill-opacity:1;fill-rule:nonzero;stroke:none"
     d="m 180.66932,40.36907 c 0.916,-0.995 1.838,-0.63 2.322,0.286 0.146,0.276 0.558,0.36 0.672,0.636 0.282,0.646 -0.421,2.244 -1.896,1.995 -0.114,-0.016 -0.921,0.099 -1.541,0.088 -1.213,-0.015 -3.631,-0.645 -4.975,-2.979 -0.64,-1.109 0.131,-1.281 0.522,-0.912 1.245,1.167 1.588,1.032 2.03,1.224 1.486,0.642 2.866,-0.338 2.866,-0.338"
     id="path344" />
  <path
     style="fill:none;stroke:#231f20;stroke-width:0.332927;stroke-linecap:butt;stroke-linejoin:miter;stroke-miterlimit:4;stroke-dasharray:none;stroke-opacity:1"
     d="m 180.66932,40.36907 c 0.916,-0.995 1.838,-0.63 2.322,0.286 0.146,0.276 0.558,0.36 0.672,0.636 0.282,0.646 -0.421,2.244 -1.896,1.995 -0.114,-0.016 -0.921,0.099 -1.541,0.088 -1.213,-0.015 -3.631,-0.645 -4.975,-2.979 -0.64,-1.109 0.131,-1.281 0.522,-0.912 1.245,1.167 1.588,1.032 2.03,1.224 1.486,0.642 2.866,-0.338 2.866,-0.338 z"
     id="path345" />
  <path
     style="fill:#231f20;fill-opacity:1;fill-rule:nonzero;stroke:none"
     d="m 199.11732,43.73407 c 0.5,-2.208 0.297,-2.704 -0.62,-2.98 -0.615,-0.187 -1.12,-0.561 -1.484,-0.692 -1.224,-0.432 -3.459,-0.651 -9.959,0.385 -1.473,0.235 -3.547,0.552 -4.401,0.615 -1.354,0.093 -0.276,2.276 0.256,2.24 1.708,-0.1 2.894,-0.032 3.514,0.015 0.428,0.026 1.183,-0.01 2.819,0.324 2.473,0.509 3.885,1.186 5.989,1.374 0.974,0.083 1.656,0.771 2.662,0.37 1.01,-0.407 1.224,-1.651 1.224,-1.651"
     id="path346" />
  <path
     style="fill:none;stroke:#231f20;stroke-width:0.565977;stroke-linecap:butt;stroke-linejoin:miter;stroke-miterlimit:4;stroke-dasharray:none;stroke-opacity:1"
     d="m 199.11732,43.73407 c 0.5,-2.208 0.297,-2.704 -0.62,-2.98 -0.615,-0.187 -1.12,-0.561 -1.484,-0.692 -1.224,-0.432 -3.459,-0.651 -9.959,0.385 -1.473,0.235 -3.547,0.552 -4.401,0.615 -1.354,0.093 -0.276,2.276 0.256,2.24 1.708,-0.1 2.894,-0.032 3.514,0.015 0.428,0.026 1.183,-0.01 2.819,0.324 2.473,0.509 3.885,1.186 5.989,1.374 0.974,0.083 1.656,0.771 2.662,0.37 1.01,-0.407 1.224,-1.651 1.224,-1.651 z"
     id="path347" />
  <path
     style="fill:#ca0369;fill-opacity:1;fill-rule:nonzero;stroke:none"
     d="m 225.02732,42.20207 c -3.129,0.219 -3.823,-0.077 -4.687,-0.375 -5.464,-1.896 -6.292,0.823 -5.573,3.615 0.844,3.287 1.079,4.479 7.287,3.443 1.729,-0.292 8.5,-0.531 8.5,-0.531 2.432,0.244 4.937,-0.823 5.666,-2.084 0.771,-1.323 0.375,-0.853 0.864,-2.219 0.464,-1.292 0.058,-3.437 -1.014,-4.052 -1.038,-0.593 -2.486,0.235 -4.73,1.151 -1.77,0.719 -6.313,1.052 -6.313,1.052"
     id="path348" />
  <path
     style="fill:none;stroke:#231f20;stroke-width:0.565977;stroke-linecap:butt;stroke-linejoin:miter;stroke-miterlimit:4;stroke-dasharray:none;stroke-opacity:1"
     d="m 225.02732,42.20207 c -3.129,0.219 -3.823,-0.077 -4.687,-0.375 -5.464,-1.896 -6.292,0.823 -5.573,3.615 0.844,3.287 1.079,4.479 7.287,3.443 1.729,-0.292 8.5,-0.531 8.5,-0.531 2.432,0.244 4.937,-0.823 5.666,-2.084 0.771,-1.323 0.375,-0.853 0.864,-2.219 0.464,-1.292 0.058,-3.437 -1.014,-4.052 -1.038,-0.593 -2.486,0.235 -4.73,1.151 -1.77,0.719 -6.313,1.052 -6.313,1.052 z"
     id="path349" />
  <path
     style="fill:#ffffff;fill-opacity:1;fill-rule:nonzero;stroke:none"
     d="m 243.52332,44.36307 c 0.244,-0.025 0.671,1.038 1.171,0.887 0.496,-0.157 0.464,-0.943 1.928,-2.292 l 0.016,-0.011 c 1.104,-0.948 1.67,-2.213 1.4,-3.437 -0.454,-2.027 -3.052,-3.172 -5.807,-2.552 -2.761,0.62 -4.625,2.76 -4.172,4.787 0.432,1.937 2.839,3.066 5.464,2.618"
     id="path350" />
  <path
     style="fill:none;stroke:#231f20;stroke-width:0.565977;stroke-linecap:butt;stroke-linejoin:miter;stroke-miterlimit:4;stroke-dasharray:none;stroke-opacity:1"
     d="m 243.52332,44.36307 c 0.244,-0.025 0.671,1.038 1.171,0.887 0.496,-0.157 0.464,-0.943 1.928,-2.292 l 0.016,-0.011 c 1.104,-0.948 1.67,-2.213 1.4,-3.437 -0.454,-2.027 -3.052,-3.172 -5.807,-2.552 -2.761,0.62 -4.625,2.76 -4.172,4.787 0.432,1.937 2.839,3.066 5.464,2.618 z"
     id="path351" />
  <path
     style="fill:#231f20;fill-opacity:1;fill-rule:nonzero;stroke:none"
     d="m 196.89332,42.64507 c -1.224,3.824 2.806,3.193 3.26,3.344 4.765,1.546 5.151,1.537 8.859,2.464 5.364,1.333 9.239,1.426 10.932,-1.47 1.146,-1.962 0.954,-3.588 0.14,-4.624 -0.9,-1.146 -3.796,-2.464 -6.208,-0.881 l -1.713,0.048 c -1.151,-0.12 -1.729,-0.167 -2.297,-0.276 -0.99,-0.183 -2.052,-0.308 -3.995,-0.557 -3.442,-0.434 -7.229,0.238 -7.229,0.238 -1.239,-0.124 -1.749,1.714 -1.749,1.714"
     id="path352" />
  <path
     style="fill:none;stroke:#231f20;stroke-width:0.565977;stroke-linecap:butt;stroke-linejoin:miter;stroke-miterlimit:4;stroke-dasharray:none;stroke-opacity:1"
     d="m 196.89332,42.64507 c -1.224,3.824 2.806,3.193 3.26,3.344 4.765,1.546 5.151,1.537 8.859,2.464 5.364,1.333 9.239,1.426 10.932,-1.47 1.146,-1.962 0.954,-3.588 0.14,-4.624 -0.9,-1.146 -3.796,-2.464 -6.208,-0.881 l -1.713,0.048 c -1.151,-0.12 -1.729,-0.167 -2.297,-0.276 -0.99,-0.183 -2.052,-0.308 -3.995,-0.557 -3.442,-0.434 -7.229,0.238 -7.229,0.238 -1.239,-0.124 -1.749,1.714 -1.749,1.714 z"
     id="path353" />
  <path
     style="fill:#ca0369;fill-opacity:1;fill-rule:nonzero;stroke:none"
     d="m 220.08432,42.35907 c -0.9,-1.146 -3.796,-2.464 -6.208,-0.881 l -1.682,7.631 c 0.646,0.104 1.256,0.161 1.838,0.198 0.079,0.031 0.152,0.062 0.215,0.099 0.692,0.411 1.28,0.192 2.239,-0.204 1.532,-0.265 2.713,-0.943 3.458,-2.213 1.146,-1.968 0.954,-3.594 0.14,-4.63"
     id="path354" />
  <path
     style="fill:none;stroke:#231f20;stroke-width:0.565977;stroke-linecap:butt;stroke-linejoin:miter;stroke-miterlimit:4;stroke-dasharray:none;stroke-opacity:1"
     d="m 220.08432,42.35907 c -0.9,-1.146 -3.796,-2.464 -6.208,-0.881 l -1.682,7.631 c 0.646,0.104 1.256,0.161 1.838,0.198 0.079,0.031 0.152,0.062 0.215,0.099 0.692,0.411 1.28,0.192 2.239,-0.204 1.532,-0.265 2.713,-0.943 3.458,-2.213 1.146,-1.968 0.954,-3.594 0.14,-4.63 z"
     id="path355" />
  <path
     style="fill:#231f20;fill-opacity:1;fill-rule:nonzero;stroke:none"
     d="m 261.98632,53.51507 c 0.896,-1.016 1.828,-0.672 2.333,0.235 0.151,0.27 0.563,0.342 0.688,0.618 0.292,0.642 -0.375,2.251 -1.855,2.038 -0.109,-0.011 -0.916,0.12 -1.536,0.125 -1.218,0.009 -3.645,-0.563 -5.041,-2.871 -0.661,-1.088 0.099,-1.281 0.5,-0.916 1.276,1.135 1.615,0.99 2.057,1.172 1.5,0.61 2.854,-0.401 2.854,-0.401"
     id="path356" />
  <path
     style="fill:none;stroke:#231f20;stroke-width:0.332927;stroke-linecap:butt;stroke-linejoin:miter;stroke-miterlimit:4;stroke-dasharray:none;stroke-opacity:1"
     d="m 261.98632,53.51507 c 0.896,-1.016 1.828,-0.672 2.333,0.235 0.151,0.27 0.563,0.342 0.688,0.618 0.292,0.642 -0.375,2.251 -1.855,2.038 -0.109,-0.011 -0.916,0.12 -1.536,0.125 -1.218,0.009 -3.645,-0.563 -5.041,-2.871 -0.661,-1.088 0.099,-1.281 0.5,-0.916 1.276,1.135 1.615,0.99 2.057,1.172 1.5,0.61 2.854,-0.401 2.854,-0.401 z"
     id="path357" />
  <path
     style="fill:#231f20;fill-opacity:1;fill-rule:nonzero;stroke:none"
     d="m 280.50732,56.46307 c 0.453,-2.219 0.24,-2.709 -0.688,-2.969 -0.615,-0.172 -1.125,-0.536 -1.495,-0.656 -1.234,-0.407 -3.468,-0.574 -9.948,0.609 -1.468,0.265 -3.536,0.631 -4.385,0.713 -1.353,0.126 -0.229,2.282 0.303,2.235 1.702,-0.136 2.896,-0.099 3.514,-0.063 0.428,0.016 1.188,-0.036 2.83,0.255 2.484,0.459 3.905,1.105 6.014,1.24 0.98,0.063 1.678,0.735 2.672,0.313 1,-0.433 1.183,-1.677 1.183,-1.677"
     id="path358" />
  <path
     style="fill:none;stroke:#231f20;stroke-width:0.565977;stroke-linecap:butt;stroke-linejoin:miter;stroke-miterlimit:4;stroke-dasharray:none;stroke-opacity:1"
     d="m 280.50732,56.46307 c 0.453,-2.219 0.24,-2.709 -0.688,-2.969 -0.615,-0.172 -1.125,-0.536 -1.495,-0.656 -1.234,-0.407 -3.468,-0.574 -9.948,0.609 -1.468,0.265 -3.536,0.631 -4.385,0.713 -1.353,0.126 -0.229,2.282 0.303,2.235 1.702,-0.136 2.896,-0.099 3.514,-0.063 0.428,0.016 1.188,-0.036 2.83,0.255 2.484,0.459 3.905,1.105 6.014,1.24 0.98,0.063 1.678,0.735 2.672,0.313 1,-0.433 1.183,-1.677 1.183,-1.677 z"
     id="path359" />
  <path
     style="fill:#ca0369;fill-opacity:1;fill-rule:nonzero;stroke:none"
     d="m 306.37632,54.33807 c -3.12,0.292 -3.817,0.016 -4.692,-0.271 -5.505,-1.765 -6.27,0.968 -5.49,3.744 0.917,3.267 1.182,4.453 7.365,3.276 1.724,-0.333 8.489,-0.724 8.489,-0.724 2.432,0.188 4.912,-0.937 5.615,-2.208 0.74,-1.344 0.349,-0.864 0.812,-2.239 0.433,-1.302 -0.02,-3.438 -1.109,-4.032 -1.047,-0.568 -2.474,0.298 -4.698,1.256 -1.76,0.766 -6.292,1.198 -6.292,1.198"
     id="path360" />
  <path
     style="fill:none;stroke:#231f20;stroke-width:0.565977;stroke-linecap:butt;stroke-linejoin:miter;stroke-miterlimit:4;stroke-dasharray:none;stroke-opacity:1"
     d="m 306.37632,54.33807 c -3.12,0.292 -3.817,0.016 -4.692,-0.271 -5.505,-1.765 -6.27,0.968 -5.49,3.744 0.917,3.267 1.182,4.453 7.365,3.276 1.724,-0.333 8.489,-0.724 8.489,-0.724 2.432,0.188 4.912,-0.937 5.615,-2.208 0.74,-1.344 0.349,-0.864 0.812,-2.239 0.433,-1.302 -0.02,-3.438 -1.109,-4.032 -1.047,-0.568 -2.474,0.298 -4.698,1.256 -1.76,0.766 -6.292,1.198 -6.292,1.198 z"
     id="path361" />
  <path
     style="fill:#ffffff;fill-opacity:1;fill-rule:nonzero;stroke:none"
     d="m 324.91832,56.08307 c 0.245,-0.032 0.693,1.02 1.193,0.853 0.489,-0.166 0.443,-0.953 1.875,-2.328 l 0.016,-0.016 c 1.078,-0.973 1.625,-2.249 1.322,-3.468 -0.5,-2.015 -3.125,-3.098 -5.869,-2.417 -2.74,0.683 -4.557,2.865 -4.057,4.88 0.473,1.923 2.91,3.005 5.52,2.496"
     id="path362" />
  <path
     style="fill:none;stroke:#231f20;stroke-width:0.565977;stroke-linecap:butt;stroke-linejoin:miter;stroke-miterlimit:4;stroke-dasharray:none;stroke-opacity:1"
     d="m 324.91832,56.08307 c 0.245,-0.032 0.693,1.02 1.193,0.853 0.489,-0.166 0.443,-0.953 1.875,-2.328 l 0.016,-0.016 c 1.078,-0.973 1.625,-2.249 1.322,-3.468 -0.5,-2.015 -3.125,-3.098 -5.869,-2.417 -2.74,0.683 -4.557,2.865 -4.057,4.88 0.473,1.923 2.91,3.005 5.52,2.496 z"
     id="path363" />
  <path
     style="fill:#231f20;fill-opacity:1;fill-rule:nonzero;stroke:none"
     d="m 278.26232,55.42607 c -1.135,3.849 2.88,3.125 3.338,3.266 4.798,1.438 5.183,1.416 8.907,2.255 5.396,1.219 9.276,1.219 10.901,-1.708 1.099,-1.995 0.87,-3.615 0.036,-4.631 -0.926,-1.125 -3.849,-2.374 -6.229,-0.74 l -1.713,0.084 c -1.156,-0.093 -1.735,-0.125 -2.303,-0.218 -0.989,-0.162 -2.057,-0.266 -4.005,-0.47 -3.452,-0.353 -7.223,0.402 -7.223,0.402 -1.24,-0.099 -1.709,1.76 -1.709,1.76"
     id="path364" />
  <path
     style="fill:none;stroke:#231f20;stroke-width:0.565977;stroke-linecap:butt;stroke-linejoin:miter;stroke-miterlimit:4;stroke-dasharray:none;stroke-opacity:1"
     d="m 278.26232,55.42607 c -1.135,3.849 2.88,3.125 3.338,3.266 4.798,1.438 5.183,1.416 8.907,2.255 5.396,1.219 9.276,1.219 10.901,-1.708 1.099,-1.995 0.87,-3.615 0.036,-4.631 -0.926,-1.125 -3.849,-2.374 -6.229,-0.74 l -1.713,0.084 c -1.156,-0.093 -1.735,-0.125 -2.303,-0.218 -0.989,-0.162 -2.057,-0.266 -4.005,-0.47 -3.452,-0.353 -7.223,0.402 -7.223,0.402 -1.24,-0.099 -1.709,1.76 -1.709,1.76 z"
     id="path365" />
  <path
     style="fill:#ca0369;fill-opacity:1;fill-rule:nonzero;stroke:none"
     d="m 301.44432,54.60807 c -0.926,-1.13 -3.849,-2.374 -6.229,-0.74 l -1.511,7.667 c 0.656,0.089 1.262,0.131 1.85,0.157 0.073,0.026 0.145,0.058 0.208,0.094 0.704,0.396 1.286,0.166 2.234,-0.255 1.527,-0.297 2.694,-1 3.412,-2.292 1.099,-1.995 0.87,-3.615 0.036,-4.631"
     id="path366" />
  <path
     style="fill:none;stroke:#231f20;stroke-width:0.565977;stroke-linecap:butt;stroke-linejoin:miter;stroke-miterlimit:4;stroke-dasharray:none;stroke-opacity:1"
     d="m 301.44432,54.60807 c -0.926,-1.13 -3.849,-2.374 -6.229,-0.74 l -1.511,7.667 c 0.656,0.089 1.262,0.131 1.85,0.157 0.073,0.026 0.145,0.058 0.208,0.094 0.704,0.396 1.286,0.166 2.234,-0.255 1.527,-0.297 2.694,-1 3.412,-2.292 1.099,-1.995 0.87,-3.615 0.036,-4.631 z"
     id="path367" />
  <path
     style="fill:#231f20;fill-opacity:1;fill-rule:nonzero;stroke:none"
     d="m 297.69032,44.42107 c 0.634,-0.072 2.238,1.032 3.812,1.365 1.062,0.224 3.276,1.839 4.354,1.989 0.99,0.131 1.427,0.282 1.468,1.438 0.022,0.677 -0.374,2.01 -0.88,2.051 -1.188,0.095 -2.084,-0.202 -3.01,-0.744 -1.047,-0.614 -3.744,-2.537 -4.208,-2.937 -1.151,-0.99 -1.886,-1.026 -2.219,-1.266 -0.625,-0.438 -0.604,-0.782 -0.407,-1.25 0.38,-0.874 1.09,-0.646 1.09,-0.646"
     id="path368" />
  <path
     style="fill:none;stroke:#231f20;stroke-width:0.565977;stroke-linecap:butt;stroke-linejoin:miter;stroke-miterlimit:4;stroke-dasharray:none;stroke-opacity:1"
     d="m 297.69032,44.42107 c 0.634,-0.072 2.238,1.032 3.812,1.365 1.062,0.224 3.276,1.839 4.354,1.989 0.99,0.131 1.427,0.282 1.468,1.438 0.022,0.677 -0.374,2.01 -0.88,2.051 -1.188,0.095 -2.084,-0.202 -3.01,-0.744 -1.047,-0.614 -3.744,-2.537 -4.208,-2.937 -1.151,-0.99 -1.886,-1.026 -2.219,-1.266 -0.625,-0.438 -0.604,-0.782 -0.407,-1.25 0.38,-0.874 1.09,-0.646 1.09,-0.646 z"
     id="path369" />
  <path
     style="fill:#231f20;fill-opacity:1;fill-rule:nonzero;stroke:none"
     d="m 305.80332,48.44207 c 0.693,-1.088 2.183,0.303 2.631,0.609 0.448,0.308 1.822,1.036 2.964,1.469 1.15,0.432 2.39,1.463 4.568,2.287 1.145,0.432 1.978,1.583 1.281,3.213 -0.688,1.615 -1.865,1.834 -3.167,1.094 -1.302,-0.735 -2.22,-1.97 -3.485,-2.803 -1.26,-0.828 -2.624,-1.561 -3.719,-2.077 -1.249,-0.594 -1.645,-1.355 -1.625,-1.828 0.048,-1.199 0.552,-1.964 0.552,-1.964"
     id="path370" />
  <path
     style="fill:none;stroke:#231f20;stroke-width:0.565977;stroke-linecap:butt;stroke-linejoin:miter;stroke-miterlimit:4;stroke-dasharray:none;stroke-opacity:1"
     d="m 305.80332,48.44207 c 0.693,-1.088 2.183,0.303 2.631,0.609 0.448,0.308 1.822,1.036 2.964,1.469 1.15,0.432 2.39,1.463 4.568,2.287 1.145,0.432 1.978,1.583 1.281,3.213 -0.688,1.615 -1.865,1.834 -3.167,1.094 -1.302,-0.735 -2.22,-1.97 -3.485,-2.803 -1.26,-0.828 -2.624,-1.561 -3.719,-2.077 -1.249,-0.594 -1.645,-1.355 -1.625,-1.828 0.048,-1.199 0.552,-1.964 0.552,-1.964 z"
     id="path371" />
  <path
     style="fill:#ffffff;fill-opacity:1;fill-rule:nonzero;stroke:#231f20;stroke-width:0.665856;stroke-linecap:butt;stroke-linejoin:miter;stroke-miterlimit:4;stroke-dasharray:none;stroke-opacity:1"
     d="m 295.89832,34.88507 h 1.333 V 3.2120696 h -1.333 z"
     id="path372" />
  <path
     style="fill:#ffffff;fill-opacity:1;fill-rule:nonzero;stroke:none"
     d="m 292.70432,39.82207 c 0,-2.353 1.918,-4.271 4.267,-4.271 2.353,0 4.271,1.918 4.271,4.271 0,2.355 -1.918,4.271 -4.271,4.271 -2.349,0 -4.267,-1.916 -4.267,-4.271 m -1.333,0 c 0,3.089 2.516,5.599 5.6,5.599 3.088,0 5.599,-2.51 5.599,-5.599 0,-3.088 -2.511,-5.599 -5.599,-5.599 -3.084,0 -5.6,2.511 -5.6,5.599"
     id="path373" />
  <path
     style="fill:none;stroke:#231f20;stroke-width:0.665856;stroke-linecap:butt;stroke-linejoin:miter;stroke-miterlimit:4;stroke-dasharray:none;stroke-opacity:1"
     d="m 292.70432,39.82207 c 0,-2.353 1.918,-4.271 4.267,-4.271 2.353,0 4.271,1.918 4.271,4.271 0,2.355 -1.918,4.271 -4.271,4.271 -2.349,0 -4.267,-1.916 -4.267,-4.271 z m -1.333,0 c 0,3.089 2.516,5.599 5.6,5.599 3.088,0 5.599,-2.51 5.599,-5.599 0,-3.088 -2.511,-5.599 -5.599,-5.599 -3.084,0 -5.6,2.511 -5.6,5.599 z"
     id="path374" />
  <path
     style="fill:#231f20;fill-opacity:1;fill-rule:nonzero;stroke:none"
     d="m 296.55932,45.82707 c -0.645,-0.27 -0.812,-2.577 -0.527,-2.702 0.292,-0.126 0.272,0.64 0.6,0.516 0.334,-0.126 0.276,-0.62 0.504,-0.642 0.256,-0.021 0.23,0.584 0.522,0.5 0.125,-0.036 0.354,-0.588 0.541,-0.541 0.161,0.036 0.344,0.525 0.48,0.563 0.203,0.057 0.281,-0.558 0.457,-0.522 0.459,0.079 -0.238,2.703 -0.446,2.812 -0.324,0.163 -1.095,0.448 -2.131,0.016"
     id="path375" />
  <path
     style="fill:none;stroke:#231f20;stroke-width:0.565977;stroke-linecap:round;stroke-linejoin:round;stroke-miterlimit:4;stroke-dasharray:none;stroke-opacity:1"
     d="m 296.55932,45.82707 c -0.645,-0.27 -0.812,-2.577 -0.527,-2.702 0.292,-0.126 0.272,0.64 0.6,0.516 0.334,-0.126 0.276,-0.62 0.504,-0.642 0.256,-0.021 0.23,0.584 0.522,0.5 0.125,-0.036 0.354,-0.588 0.541,-0.541 0.161,0.036 0.344,0.525 0.48,0.563 0.203,0.057 0.281,-0.558 0.457,-0.522 0.459,0.079 -0.238,2.703 -0.446,2.812 -0.324,0.163 -1.095,0.448 -2.131,0.016 z"
     id="path376" />
  <path
     style="fill:#231f20;fill-opacity:1;fill-rule:nonzero;stroke:none"
     d="m 234.71032,46.21307 c -1.255,-0.063 -2.23,-1.099 -2.167,-2.307 0.063,-1.213 1.104,-3.099 2.36,-3.032 1.26,0.063 2.255,2.047 2.192,3.261 -0.063,1.214 -1.135,2.14 -2.385,2.078"
     id="path377" />
  <path
     style="fill:none;stroke:#231f20;stroke-width:0.237045;stroke-linecap:butt;stroke-linejoin:miter;stroke-miterlimit:4;stroke-dasharray:none;stroke-opacity:1"
     d="m 234.71032,46.21307 c -1.255,-0.063 -2.23,-1.099 -2.167,-2.307 0.063,-1.213 1.104,-3.099 2.36,-3.032 1.26,0.063 2.255,2.047 2.192,3.261 -0.063,1.214 -1.135,2.14 -2.385,2.078 z"
     id="path378" />
  <path
     style="fill:#ffffff;fill-opacity:1;fill-rule:nonzero;stroke:none"
     d="m 233.51832,34.88507 h 1.333 V 3.2120696 h -1.333 z"
     id="path379" />
  <path
     style="fill:none;stroke:#231f20;stroke-width:0.665856;stroke-linecap:butt;stroke-linejoin:miter;stroke-miterlimit:4;stroke-dasharray:none;stroke-opacity:1"
     d="m 233.52332,34.88507 h 1.328 V 3.2120696 h -1.328 z"
     id="path380" />
  <path
     style="fill:#ffffff;fill-opacity:1;fill-rule:nonzero;stroke:none"
     d="m 230.32432,39.82207 c 0,-2.353 1.918,-4.271 4.271,-4.271 2.355,0 4.265,1.918 4.265,4.271 0,2.355 -1.91,4.271 -4.265,4.271 -2.353,0 -4.271,-1.916 -4.271,-4.271 m -1.328,0 c 0,3.089 2.511,5.599 5.599,5.599 3.089,0 5.599,-2.51 5.599,-5.599 0,-3.088 -2.51,-5.599 -5.599,-5.599 -3.088,0 -5.599,2.511 -5.599,5.599"
     id="path381" />
  <path
     style="fill:none;stroke:#231f20;stroke-width:0.665856;stroke-linecap:butt;stroke-linejoin:miter;stroke-miterlimit:4;stroke-dasharray:none;stroke-opacity:1"
     d="m 230.32432,39.82207 c 0,-2.353 1.918,-4.271 4.271,-4.271 2.355,0 4.265,1.918 4.265,4.271 0,2.355 -1.91,4.271 -4.265,4.271 -2.353,0 -4.271,-1.916 -4.271,-4.271 z m -1.328,0 c 0,3.089 2.511,5.599 5.599,5.599 3.089,0 5.599,-2.51 5.599,-5.599 0,-3.088 -2.51,-5.599 -5.599,-5.599 -3.088,0 -5.599,2.511 -5.599,5.599 z"
     id="path382" />
  <path
     style="fill:#231f20;fill-opacity:1;fill-rule:nonzero;stroke:#231f20;stroke-width:0.332927;stroke-linecap:round;stroke-linejoin:round;stroke-miterlimit:4;stroke-dasharray:none;stroke-opacity:1"
     d="m 235.89832,43.68707 c 0.645,0.266 0.849,2.567 0.557,2.698 -0.292,0.136 -0.271,-0.635 -0.604,-0.506 -0.333,0.131 -0.271,0.626 -0.5,0.647 -0.251,0.025 -0.235,-0.579 -0.527,-0.491 -0.12,0.038 -0.344,0.59 -0.536,0.548 -0.161,-0.037 -0.354,-0.521 -0.48,-0.557 -0.213,-0.052 -0.276,0.557 -0.452,0.531 -0.458,-0.079 0.203,-2.708 0.411,-2.823"
     id="path383" />
</svg>
