<?xml version="1.0" encoding="UTF-8" standalone="no"?>
<!-- Created with Inkscape (http://www.inkscape.org/) -->

<svg
   version="1.1"
   id="svg1"
   width="72.811356"
   height="45.309116"
   viewBox="0 0 72.811352 45.309117"
   sodipodi:docname="cell.svg"
   xmlns:inkscape="http://www.inkscape.org/namespaces/inkscape"
   xmlns:sodipodi="http://sodipodi.sourceforge.net/DTD/sodipodi-0.dtd"
   xmlns="http://www.w3.org/2000/svg"
   xmlns:svg="http://www.w3.org/2000/svg">
  <sodipodi:namedview
     id="namedview1"
     pagecolor="#ffffff"
     bordercolor="#000000"
     borderopacity="0.25"
     inkscape:showpageshadow="2"
     inkscape:pageopacity="0.0"
     inkscape:pagecheckerboard="0"
     inkscape:deskcolor="#d1d1d1">
    <inkscape:page
       x="0"
       y="0"
       inkscape:label="1"
       id="page1"
       width="72.811356"
       height="45.309116"
       margin="0"
       bleed="0" />
  </sodipodi:namedview>
  <defs
     id="defs1" />
  <path
     style="fill:#231f20;fill-opacity:1;fill-rule:nonzero;stroke:none"
     d="m 5.8526145,37.420528 c 0.869,-1.036 1.808,-0.708 2.338,0.1774 0.162,0.2653 0.568,0.3333 0.703,0.604 0.313,0.6306 -0.317,2.26 -1.801,2.0826 -0.11,-0.0093 -0.918,0.1414 -1.536,0.1627 -1.21,0.0413 -3.658,-0.4747 -5.11100004,-2.74 -0.692,-1.0787 0.068,-1.2813 0.48,-0.932 1.30100004,1.1093 1.63500004,0.948 2.08300004,1.12 1.521,0.572 2.844,-0.4747 2.844,-0.4747"
     id="path3" />
  <path
     style="fill:none;stroke:#231f20;stroke-width:0.332927;stroke-linecap:butt;stroke-linejoin:miter;stroke-miterlimit:4;stroke-dasharray:none;stroke-opacity:1"
     d="m 5.8526145,37.420528 c 0.869,-1.036 1.808,-0.708 2.338,0.1774 0.162,0.2653 0.568,0.3333 0.703,0.604 0.313,0.6306 -0.317,2.26 -1.801,2.0826 -0.11,-0.0093 -0.918,0.1414 -1.536,0.1627 -1.21,0.0413 -3.658,-0.4747 -5.11100004,-2.74 -0.692,-1.0787 0.068,-1.2813 0.48,-0.932 1.30100004,1.1093 1.63500004,0.948 2.08300004,1.12 1.521,0.572 2.844,-0.4747 2.844,-0.4747 z"
     id="path4" />
  <path
     style="fill:#231f20;fill-opacity:1;fill-rule:nonzero;stroke:none"
     d="m 24.441614,39.904528 c 0.395,-2.2293 0.171,-2.7186 -0.756,-2.9533 -0.62,-0.1507 -1.145,-0.504 -1.516,-0.6133 -1.244,-0.376 -3.484,-0.4854 -9.932,0.8586 -1.463,0.3027 -3.5159995,0.7187 -4.3689995,0.8227 -1.35,0.1613 -0.167,2.2867 0.364,2.2293 1.704,-0.1826 2.8899995,-0.172 3.5159995,-0.156 0.426,0.0107 1.182,-0.068 2.828,0.188 2.494,0.3947 3.932,1 6.046,1.088 0.98,0.036 1.694,0.6934 2.678,0.24 0.989,-0.4533 1.141,-1.704 1.141,-1.704"
     id="path5" />
  <path
     style="fill:none;stroke:#231f20;stroke-width:0.565977;stroke-linecap:butt;stroke-linejoin:miter;stroke-miterlimit:4;stroke-dasharray:none;stroke-opacity:1"
     d="m 24.441614,39.904528 c 0.395,-2.2293 0.171,-2.7186 -0.756,-2.9533 -0.62,-0.1507 -1.145,-0.504 -1.516,-0.6133 -1.244,-0.376 -3.484,-0.4854 -9.932,0.8586 -1.463,0.3027 -3.5159995,0.7187 -4.3689995,0.8227 -1.35,0.1613 -0.167,2.2867 0.364,2.2293 1.704,-0.1826 2.8899995,-0.172 3.5159995,-0.156 0.426,0.0107 1.182,-0.068 2.828,0.188 2.494,0.3947 3.932,1 6.046,1.088 0.98,0.036 1.694,0.6934 2.678,0.24 0.989,-0.4533 1.141,-1.704 1.141,-1.704 z"
     id="path6" />
  <path
     style="fill:#ca0369;fill-opacity:1;fill-rule:nonzero;stroke:none"
     d="m 50.362614,37.951228 c -3.136,-0.072 -3.797,-0.432 -4.636,-0.8067 -5.265,-2.3906 -6.338,0.24 -5.88,3.088 0.538,3.3494 0.662,4.5574 6.943,4.1 1.745,-0.1306 8.505,0.2547 8.505,0.2547 2.407,0.464 4.995,-0.3693 5.839,-1.5573 0.89,-1.2494 0.448,-0.8174 1.062,-2.1254 0.579,-1.244 0.37,-3.4213 -0.64,-4.1346 -0.969,-0.6774 -2.49,0.0106 -4.813,0.7133 -1.828,0.552 -6.38,0.468 -6.38,0.468"
     id="path7" />
  <path
     style="fill:none;stroke:#231f20;stroke-width:0.565977;stroke-linecap:butt;stroke-linejoin:miter;stroke-miterlimit:4;stroke-dasharray:none;stroke-opacity:1"
     d="m 50.362614,37.951228 c -3.136,-0.072 -3.797,-0.432 -4.636,-0.8067 -5.265,-2.3906 -6.338,0.24 -5.88,3.088 0.538,3.3494 0.662,4.5574 6.943,4.1 1.745,-0.1306 8.505,0.2547 8.505,0.2547 2.407,0.464 4.995,-0.3693 5.839,-1.5573 0.89,-1.2494 0.448,-0.8174 1.062,-2.1254 0.579,-1.244 0.37,-3.4213 -0.64,-4.1346 -0.969,-0.6774 -2.49,0.0106 -4.813,0.7133 -1.828,0.552 -6.38,0.468 -6.38,0.468 z"
     id="path8" />
  <path
     style="fill:#ffffff;fill-opacity:1;fill-rule:nonzero;stroke:none"
     d="m 69.769614,39.409928 c 0.213,-0.12 1.025,0.6933 1.421,0.3493 0.396,-0.344 0.052,-1.0467 0.855,-2.8693 l 0.009,-0.016 c 0.636,-1.312 0.657,-2.7027 -0.083,-3.7133 -1.229,-1.6774 -4.068,-1.688 -6.349,-0.0214 -2.281,1.6667 -3.135,4.38 -1.911,6.052 1.172,1.6093 3.834,1.6827 6.058,0.2187"
     id="path9" />
  <path
     style="fill:none;stroke:#231f20;stroke-width:0.565977;stroke-linecap:butt;stroke-linejoin:miter;stroke-miterlimit:4;stroke-dasharray:none;stroke-opacity:1"
     d="m 69.769614,39.409928 c 0.213,-0.12 1.025,0.6933 1.421,0.3493 0.396,-0.344 0.052,-1.0467 0.855,-2.8693 l 0.009,-0.016 c 0.636,-1.312 0.657,-2.7027 -0.083,-3.7133 -1.229,-1.6774 -4.068,-1.688 -6.349,-0.0214 -2.281,1.6667 -3.135,4.38 -1.911,6.052 1.172,1.6093 3.834,1.6827 6.058,0.2187 z"
     id="path10" />
  <path
     style="fill:#231f20;fill-opacity:1;fill-rule:nonzero;stroke:none"
     d="m 22.169614,38.920528 c -1.036,3.88 2.964,3.0574 3.423,3.1827 4.833,1.3173 5.213,1.292 8.964,2.036 5.421,1.0787 9.296,0.984 10.848,-1.984 1.046,-2.016 0.781,-3.6307 -0.078,-4.6307 -0.953,-1.104 -3.912,-2.276 -6.245,-0.5773 l -1.708,0.124 c -1.161,-0.0627 -1.74,-0.088 -2.308,-0.1667 -0.995,-0.1293 -2.067,-0.208 -4.015,-0.3586 -3.464,-0.2707 -7.214,0.5773 -7.214,0.5773 -1.239,-0.0613 -1.667,1.7973 -1.667,1.7973"
     id="path11" />
  <path
     style="fill:none;stroke:#231f20;stroke-width:0.565977;stroke-linecap:butt;stroke-linejoin:miter;stroke-miterlimit:4;stroke-dasharray:none;stroke-opacity:1"
     d="m 22.169614,38.920528 c -1.036,3.88 2.964,3.0574 3.423,3.1827 4.833,1.3173 5.213,1.292 8.964,2.036 5.421,1.0787 9.296,0.984 10.848,-1.984 1.046,-2.016 0.781,-3.6307 -0.078,-4.6307 -0.953,-1.104 -3.912,-2.276 -6.245,-0.5773 l -1.708,0.124 c -1.161,-0.0627 -1.74,-0.088 -2.308,-0.1667 -0.995,-0.1293 -2.067,-0.208 -4.015,-0.3586 -3.464,-0.2707 -7.214,0.5773 -7.214,0.5773 -1.239,-0.0613 -1.667,1.7973 -1.667,1.7973 z"
     id="path12" />
  <path
     style="fill:#ca0369;fill-opacity:1;fill-rule:nonzero;stroke:none"
     d="m 45.326614,37.524528 c -0.953,-1.104 -3.912,-2.276 -6.245,-0.5826 l -1.317,7.708 c 0.656,0.068 1.265,0.0986 1.848,0.104 0.078,0.0266 0.152,0.0573 0.214,0.088 0.708,0.376 1.291,0.136 2.228,-0.3067 1.516,-0.3387 2.667,-1.0733 3.35,-2.38 1.046,-2.016 0.781,-3.6307 -0.078,-4.6307"
     id="path13" />
  <path
     style="fill:none;stroke:#231f20;stroke-width:0.565977;stroke-linecap:butt;stroke-linejoin:miter;stroke-miterlimit:4;stroke-dasharray:none;stroke-opacity:1"
     d="m 45.326614,37.524528 c -0.953,-1.104 -3.912,-2.276 -6.245,-0.5826 l -1.317,7.708 c 0.656,0.068 1.265,0.0986 1.848,0.104 0.078,0.0266 0.152,0.0573 0.214,0.088 0.708,0.376 1.291,0.136 2.228,-0.3067 1.516,-0.3387 2.667,-1.0733 3.35,-2.38 1.046,-2.016 0.781,-3.6307 -0.078,-4.6307 z"
     id="path14" />
  <path
     style="fill:#231f20;fill-opacity:1;fill-rule:nonzero;stroke:none"
     d="m 39.368614,39.207228 c 0.521,-0.38 2.458,-0.2133 3.994,-0.7027 1.026,-0.3333 3.76,-0.0266 4.765,-0.4333 0.923,-0.3747 1.38,-0.4573 1.984,0.5267 0.36,0.5773 0.672,1.9266 0.251,2.2186 -0.979,0.6667 -1.912,0.8547 -2.979,0.844 -1.214,-0.016 -4.51,-0.3493 -5.109,-0.4693 -1.496,-0.292 -2.152,0.0413 -2.553,0 -0.76,-0.072 -0.916,-0.38 -0.973,-0.8853 -0.11,-0.9534 0.62,-1.0987 0.62,-1.0987"
     id="path15" />
  <path
     style="fill:none;stroke:#231f20;stroke-width:0.565977;stroke-linecap:butt;stroke-linejoin:miter;stroke-miterlimit:4;stroke-dasharray:none;stroke-opacity:1"
     d="m 39.368614,39.207228 c 0.521,-0.38 2.458,-0.2133 3.994,-0.7027 1.026,-0.3333 3.76,-0.0266 4.765,-0.4333 0.923,-0.3747 1.38,-0.4573 1.984,0.5267 0.36,0.5773 0.672,1.9266 0.251,2.2186 -0.979,0.6667 -1.912,0.8547 -2.979,0.844 -1.214,-0.016 -4.51,-0.3493 -5.109,-0.4693 -1.496,-0.292 -2.152,0.0413 -2.553,0 -0.76,-0.072 -0.916,-0.38 -0.973,-0.8853 -0.11,-0.9534 0.62,-1.0987 0.62,-1.0987 z"
     id="path16" />
  <path
     style="fill:#231f20;fill-opacity:1;fill-rule:nonzero;stroke:none"
     d="m 48.409614,38.680528 c 0.068,-1.296 2.046,-0.8226 2.589,-0.776 0.541,0.0467 2.093,0 3.301,-0.192 1.214,-0.1933 2.803,0.088 5.099,-0.276 1.213,-0.188 2.505,0.3907 2.704,2.156 0.197,1.7454 -0.709,2.516 -2.204,2.5214 -1.5,0.0093 -2.905,-0.6147 -4.416,-0.7094 -1.511,-0.0986 -3.052,-0.0573 -4.26,0.0374 -1.381,0.0986 -2.105,-0.36 -2.324,-0.7814 -0.547,-1.068 -0.489,-1.98 -0.489,-1.98"
     id="path17" />
  <path
     style="fill:none;stroke:#231f20;stroke-width:0.565977;stroke-linecap:butt;stroke-linejoin:miter;stroke-miterlimit:4;stroke-dasharray:none;stroke-opacity:1"
     d="m 48.409614,38.680528 c 0.068,-1.296 2.046,-0.8226 2.589,-0.776 0.541,0.0467 2.093,0 3.301,-0.192 1.214,-0.1933 2.803,0.088 5.099,-0.276 1.213,-0.188 2.505,0.3907 2.704,2.156 0.197,1.7454 -0.709,2.516 -2.204,2.5214 -1.5,0.0093 -2.905,-0.6147 -4.416,-0.7094 -1.511,-0.0986 -3.052,-0.0573 -4.26,0.0374 -1.381,0.0986 -2.105,-0.36 -2.324,-0.7814 -0.547,-1.068 -0.489,-1.98 -0.489,-1.98 z"
     id="path18" />
  <path
     style="fill:#ffffff;fill-opacity:1;fill-rule:nonzero;stroke:none"
     d="m 37.112614,32.004628 h 1.328 v -31.6718 h -1.328 z"
     id="path19" />
  <path
     style="fill:none;stroke:#231f20;stroke-width:0.665856;stroke-linecap:butt;stroke-linejoin:miter;stroke-miterlimit:4;stroke-dasharray:none;stroke-opacity:1"
     d="m 37.112614,32.009928 h 1.328 v -31.677 h -1.328 z"
     id="path20" />
  <path
     style="fill:#ffffff;fill-opacity:1;fill-rule:nonzero;stroke:none"
     d="m 33.920614,36.941928 c 0,-2.3547 1.912,-4.2707 4.265,-4.2707 2.355,0 4.271,1.916 4.271,4.2707 0,2.3533 -1.916,4.2706 -4.271,4.2706 -2.353,0 -4.265,-1.9173 -4.265,-4.2706 m -1.334,0 c 0,3.088 2.511,5.5986 5.599,5.5986 3.089,0 5.599,-2.5106 5.599,-5.5986 0,-3.0893 -2.51,-5.6 -5.599,-5.6 -3.088,0 -5.599,2.5107 -5.599,5.6"
     id="path21" />
  <path
     style="fill:none;stroke:#231f20;stroke-width:0.665856;stroke-linecap:butt;stroke-linejoin:miter;stroke-miterlimit:4;stroke-dasharray:none;stroke-opacity:1"
     d="m 33.920614,36.941928 c 0,-2.3547 1.912,-4.2707 4.265,-4.2707 2.355,0 4.271,1.916 4.271,4.2707 0,2.3533 -1.916,4.2706 -4.271,4.2706 -2.353,0 -4.265,-1.9173 -4.265,-4.2706 z m -1.334,0 c 0,3.088 2.511,5.5986 5.599,5.5986 3.089,0 5.599,-2.5106 5.599,-5.5986 0,-3.0893 -2.51,-5.6 -5.599,-5.6 -3.088,0 -5.599,2.5107 -5.599,5.6 z"
     id="path22" />
  <path
     style="fill:#231f20;fill-opacity:1;fill-rule:nonzero;stroke:none"
     d="m 38.717614,40.649928 c 0.651,0.2546 0.859,2.568 0.567,2.692 -0.291,0.1306 -0.276,-0.6347 -0.604,-0.504 -0.334,0.1346 -0.266,0.6293 -0.495,0.6506 -0.249,0.0254 -0.24,-0.5786 -0.531,-0.4893 -0.12,0.036 -0.344,0.588 -0.532,0.552 -0.161,-0.0373 -0.353,-0.5213 -0.484,-0.552 -0.208,-0.0573 -0.276,0.552 -0.453,0.5253 -0.459,-0.072 0.193,-2.708 0.407,-2.8226 0.312,-0.1667 1.077,-0.4694 2.125,-0.052"
     id="path23" />
  <path
     style="fill:none;stroke:#231f20;stroke-width:0.565977;stroke-linecap:round;stroke-linejoin:round;stroke-miterlimit:4;stroke-dasharray:none;stroke-opacity:1"
     d="m 38.717614,40.649928 c 0.651,0.2546 0.859,2.568 0.567,2.692 -0.291,0.1306 -0.276,-0.6347 -0.604,-0.504 -0.334,0.1346 -0.266,0.6293 -0.495,0.6506 -0.249,0.0254 -0.24,-0.5786 -0.531,-0.4893 -0.12,0.036 -0.344,0.588 -0.532,0.552 -0.161,-0.0373 -0.353,-0.5213 -0.484,-0.552 -0.208,-0.0573 -0.276,0.552 -0.453,0.5253 -0.459,-0.072 0.193,-2.708 0.407,-2.8226 0.312,-0.1667 1.077,-0.4694 2.125,-0.052 z"
     id="path24" />
</svg>
