<?xml version="1.0" encoding="UTF-8" standalone="no"?>
<!-- Created with Inkscape (http://www.inkscape.org/) -->

<svg
   version="1.1"
   id="svg1"
   width="360.46698"
   height="139.18121"
   viewBox="0 0 360.46697 139.18122"
   sodipodi:docname="cell.svg"
   xmlns:inkscape="http://www.inkscape.org/namespaces/inkscape"
   xmlns:sodipodi="http://sodipodi.sourceforge.net/DTD/sodipodi-0.dtd"
   xmlns="http://www.w3.org/2000/svg"
   xmlns:svg="http://www.w3.org/2000/svg">
  <sodipodi:namedview
     id="namedview1"
     pagecolor="#ffffff"
     bordercolor="#000000"
     borderopacity="0.25"
     inkscape:showpageshadow="2"
     inkscape:pageopacity="0.0"
     inkscape:pagecheckerboard="0"
     inkscape:deskcolor="#d1d1d1">
    <inkscape:page
       x="0"
       y="0"
       inkscape:label="1"
       id="page1"
       width="360.46698"
       height="139.18121"
       margin="0"
       bleed="0" />
  </sodipodi:namedview>
  <defs
     id="defs1" />
  <path
     style="fill:#ffffff;fill-opacity:1;fill-rule:nonzero;stroke:none"
     d="M 0,18.874 H 18.875 V 0 H 0 Z"
     id="path352" />
  <path
     style="fill:#ffffff;fill-opacity:1;fill-rule:nonzero;stroke:none"
     d="m 343.541,18.874 h 16.926 V 0 h -16.926 z"
     id="path353" />
  <path
     style="fill:#231f20;fill-opacity:1;fill-rule:nonzero;stroke:none"
     d="m 33.323,133.311 c -1.068,-0.828 -0.776,-1.776 0.088,-2.337 0.261,-0.172 0.313,-0.584 0.579,-0.729 0.62,-0.334 2.27,0.233 2.15,1.729 -0.01,0.109 0.172,0.905 0.219,1.525 0.084,1.208 -0.339,3.672 -2.552,5.208 -1.047,0.735 -1.281,-0.02 -0.948,-0.442 1.057,-1.348 0.891,-1.678 1.043,-2.124 0.514,-1.543 -0.579,-2.83 -0.579,-2.83"
     id="path354" />
  <path
     style="fill:none;stroke:#231f20;stroke-width:0.332927;stroke-linecap:butt;stroke-linejoin:miter;stroke-miterlimit:4;stroke-dasharray:none;stroke-opacity:1"
     d="m 33.323,133.311 c -1.068,-0.828 -0.776,-1.776 0.088,-2.337 0.261,-0.172 0.313,-0.584 0.579,-0.729 0.62,-0.334 2.27,0.233 2.15,1.729 -0.01,0.109 0.172,0.905 0.219,1.525 0.084,1.208 -0.339,3.672 -2.552,5.208 -1.047,0.735 -1.281,-0.02 -0.948,-0.442 1.057,-1.348 0.891,-1.678 1.043,-2.124 0.514,-1.543 -0.579,-2.83 -0.579,-2.83 z"
     id="path355" />
  <path
     style="fill:#231f20;fill-opacity:1;fill-rule:nonzero;stroke:none"
     d="m 35.11,114.645 c -2.246,-0.307 -2.724,-0.067 -2.923,0.87 -0.129,0.626 -0.463,1.156 -0.561,1.536 -0.324,1.256 -0.35,3.5 1.233,9.891 0.36,1.448 0.849,3.489 0.985,4.333 0.214,1.344 2.291,0.084 2.219,-0.442 -0.251,-1.698 -0.287,-2.886 -0.292,-3.511 -0.005,-0.421 -0.115,-1.181 0.083,-2.833 0.302,-2.506 0.854,-3.968 0.86,-6.083 0,-0.98 0.63,-1.719 0.14,-2.683 -0.49,-0.973 -1.744,-1.078 -1.744,-1.078"
     id="path356" />
  <path
     style="fill:none;stroke:#231f20;stroke-width:0.565977;stroke-linecap:butt;stroke-linejoin:miter;stroke-miterlimit:4;stroke-dasharray:none;stroke-opacity:1"
     d="m 35.11,114.645 c -2.246,-0.307 -2.724,-0.067 -2.923,0.87 -0.129,0.626 -0.463,1.156 -0.561,1.536 -0.324,1.256 -0.35,3.5 1.233,9.891 0.36,1.448 0.849,3.489 0.985,4.333 0.214,1.344 2.291,0.084 2.219,-0.442 -0.251,-1.698 -0.287,-2.886 -0.292,-3.511 -0.005,-0.421 -0.115,-1.181 0.083,-2.833 0.302,-2.506 0.854,-3.968 0.86,-6.083 0,-0.98 0.63,-1.719 0.14,-2.683 -0.49,-0.973 -1.744,-1.078 -1.744,-1.078 z"
     id="path357" />
  <path
     style="fill:#ca0369;fill-opacity:1;fill-rule:nonzero;stroke:none"
     d="m 32.183,88.822 c 0.047,3.131 -0.287,3.808 -0.636,4.662 -2.188,5.349 0.484,6.324 3.312,5.756 3.324,-0.656 4.527,-0.828 3.833,-7.09 -0.192,-1.738 -0.061,-8.509 -0.061,-8.509 0.375,-2.417 -0.553,-4.975 -1.772,-5.776 -1.281,-0.839 -0.833,-0.417 -2.167,-0.98 -1.265,-0.536 -3.432,-0.244 -4.104,0.792 -0.645,1 0.099,2.489 0.891,4.781 0.62,1.807 0.704,6.364 0.704,6.364"
     id="path358" />
  <path
     style="fill:none;stroke:#231f20;stroke-width:0.565977;stroke-linecap:butt;stroke-linejoin:miter;stroke-miterlimit:4;stroke-dasharray:none;stroke-opacity:1"
     d="m 32.183,88.822 c 0.047,3.131 -0.287,3.808 -0.636,4.662 -2.188,5.349 0.484,6.324 3.312,5.756 3.324,-0.656 4.527,-0.828 3.833,-7.09 -0.192,-1.738 -0.061,-8.509 -0.061,-8.509 0.375,-2.417 -0.553,-4.975 -1.772,-5.776 -1.281,-0.839 -0.833,-0.417 -2.167,-0.98 -1.265,-0.536 -3.432,-0.244 -4.104,0.792 -0.645,1 0.099,2.489 0.891,4.781 0.62,1.807 0.704,6.364 0.704,6.364 z"
     id="path359" />
  <path
     style="fill:#ffffff;fill-opacity:1;fill-rule:nonzero;stroke:none"
     d="m 36.886,72.172 c 0.041,-0.24 1.182,-0.364 1.161,-0.891 -0.021,-0.521 -0.787,-0.693 -1.703,-2.464 l -0.01,-0.015 c -0.62,-1.318 -1.694,-2.198 -2.948,-2.256 -2.074,-0.093 -3.86,2.115 -3.984,4.938 -0.126,2.824 1.452,5.188 3.525,5.281 1.984,0.089 3.708,-1.937 3.959,-4.593"
     id="path360" />
  <path
     style="fill:none;stroke:#231f20;stroke-width:0.565977;stroke-linecap:butt;stroke-linejoin:miter;stroke-miterlimit:4;stroke-dasharray:none;stroke-opacity:1"
     d="m 36.886,72.172 c 0.041,-0.24 1.182,-0.364 1.161,-0.891 -0.021,-0.521 -0.787,-0.693 -1.703,-2.464 l -0.01,-0.015 c -0.62,-1.318 -1.694,-2.198 -2.948,-2.256 -2.074,-0.093 -3.86,2.115 -3.984,4.938 -0.126,2.824 1.452,5.188 3.525,5.281 1.984,0.089 3.708,-1.937 3.959,-4.593 z"
     id="path361" />
  <path
     style="fill:#231f20;fill-opacity:1;fill-rule:nonzero;stroke:none"
     d="m 34.214,116.953 c 3.912,0.89 2.937,-3.074 3.046,-3.536 1.142,-4.882 1.094,-5.262 1.699,-9.032 0.875,-5.464 0.64,-9.333 -2.385,-10.765 -2.058,-0.979 -3.663,-0.651 -4.626,0.249 -1.068,0.996 -2.13,3.991 -0.349,6.261 l 0.193,1.703 c -0.021,1.161 -0.021,1.74 -0.078,2.312 -0.094,0.996 -0.136,2.068 -0.214,4.026 -0.141,3.47 0.854,7.183 0.854,7.183 -0.02,1.239 1.86,1.599 1.86,1.599"
     id="path362" />
  <path
     style="fill:none;stroke:#231f20;stroke-width:0.565977;stroke-linecap:butt;stroke-linejoin:miter;stroke-miterlimit:4;stroke-dasharray:none;stroke-opacity:1"
     d="m 34.214,116.953 c 3.912,0.89 2.937,-3.074 3.046,-3.536 1.142,-4.882 1.094,-5.262 1.699,-9.032 0.875,-5.464 0.64,-9.333 -2.385,-10.765 -2.058,-0.979 -3.663,-0.651 -4.626,0.249 -1.068,0.996 -2.13,3.991 -0.349,6.261 l 0.193,1.703 c -0.021,1.161 -0.021,1.74 -0.078,2.312 -0.094,0.996 -0.136,2.068 -0.214,4.026 -0.141,3.47 0.854,7.183 0.854,7.183 -0.02,1.239 1.86,1.599 1.86,1.599 z"
     id="path363" />
  <path
     style="fill:#ca0369;fill-opacity:1;fill-rule:nonzero;stroke:none"
     d="m 39.074,96.874 c -0.391,-1.505 -1.167,-2.624 -2.5,-3.254 -2.058,-0.979 -3.663,-0.651 -4.626,0.249 -1.068,0.996 -2.13,3.991 -0.349,6.261 l 7.751,1.025 c 0.046,-0.656 0.052,-1.259 0.036,-1.847 0.025,-0.079 0.052,-0.152 0.082,-0.219 0.35,-0.724 0.084,-1.297 -0.394,-2.215"
     id="path364" />
  <path
     style="fill:none;stroke:#231f20;stroke-width:0.565977;stroke-linecap:butt;stroke-linejoin:miter;stroke-miterlimit:4;stroke-dasharray:none;stroke-opacity:1"
     d="m 39.074,96.874 c -0.391,-1.505 -1.167,-2.624 -2.5,-3.254 -2.058,-0.979 -3.663,-0.651 -4.626,0.249 -1.068,0.996 -2.13,3.991 -0.349,6.261 l 7.751,1.025 c 0.046,-0.656 0.052,-1.259 0.036,-1.847 0.025,-0.079 0.052,-0.152 0.082,-0.219 0.35,-0.724 0.084,-1.297 -0.394,-2.215 z"
     id="path365" />
  <path
     style="fill:#231f20;fill-opacity:1;fill-rule:nonzero;stroke:none"
     d="m 34.626,58.593 c 0.374,0.527 0.186,2.459 0.656,4 0.322,1.037 -0.016,3.761 0.38,4.772 0.358,0.927 0.437,1.385 -0.552,1.979 -0.584,0.354 -1.938,0.65 -2.224,0.229 -0.656,-0.989 -0.828,-1.923 -0.808,-2.989 0.032,-1.219 0.401,-4.506 0.526,-5.11 0.318,-1.49 -0.01,-2.152 0.031,-2.553 0.084,-0.755 0.396,-0.911 0.901,-0.963 0.948,-0.093 1.09,0.635 1.09,0.635"
     id="path366" />
  <path
     style="fill:none;stroke:#231f20;stroke-width:0.565977;stroke-linecap:butt;stroke-linejoin:miter;stroke-miterlimit:4;stroke-dasharray:none;stroke-opacity:1"
     d="m 34.626,58.593 c 0.374,0.527 0.186,2.459 0.656,4 0.322,1.037 -0.016,3.761 0.38,4.772 0.358,0.927 0.437,1.385 -0.552,1.979 -0.584,0.354 -1.938,0.65 -2.224,0.229 -0.656,-0.989 -0.828,-1.923 -0.808,-2.989 0.032,-1.219 0.401,-4.506 0.526,-5.11 0.318,-1.49 -0.01,-2.152 0.031,-2.553 0.084,-0.755 0.396,-0.911 0.901,-0.963 0.948,-0.093 1.09,0.635 1.09,0.635 z"
     id="path367" />
  <path
     style="fill:#231f20;fill-opacity:1;fill-rule:nonzero;stroke:none"
     d="m 35.047,67.641 c 1.292,0.083 0.797,2.057 0.745,2.599 -0.052,0.536 -0.026,2.093 0.151,3.306 0.177,1.214 -0.12,2.798 0.213,5.099 0.178,1.209 -0.421,2.5 -2.188,2.677 -1.744,0.178 -2.505,-0.734 -2.494,-2.229 0.01,-1.5 0.652,-2.9 0.766,-4.411 0.114,-1.51 0.088,-3.052 0.015,-4.26 -0.088,-1.386 0.38,-2.1 0.808,-2.313 1.067,-0.536 1.984,-0.468 1.984,-0.468"
     id="path368" />
  <path
     style="fill:none;stroke:#231f20;stroke-width:0.565977;stroke-linecap:butt;stroke-linejoin:miter;stroke-miterlimit:4;stroke-dasharray:none;stroke-opacity:1"
     d="m 35.047,67.641 c 1.292,0.083 0.797,2.057 0.745,2.599 -0.052,0.536 -0.026,2.093 0.151,3.306 0.177,1.214 -0.12,2.798 0.213,5.099 0.178,1.209 -0.421,2.5 -2.188,2.677 -1.744,0.178 -2.505,-0.734 -2.494,-2.229 0.01,-1.5 0.652,-2.9 0.766,-4.411 0.114,-1.51 0.088,-3.052 0.015,-4.26 -0.088,-1.386 0.38,-2.1 0.808,-2.313 1.067,-0.536 1.984,-0.468 1.984,-0.468 z"
     id="path369" />
  <path
     style="fill:#ffffff;fill-opacity:1;fill-rule:nonzero;stroke:#231f20;stroke-width:0.665856;stroke-linecap:butt;stroke-linejoin:miter;stroke-miterlimit:4;stroke-dasharray:none;stroke-opacity:1"
     d="m 32.443,47.896 h 1.333 V 16.219 h -1.333 z"
     id="path370" />
  <path
     style="fill:#ffffff;fill-opacity:1;fill-rule:nonzero;stroke:none"
     d="m 29.25,52.828 c 0,-2.354 1.917,-4.271 4.27,-4.271 2.355,0 4.267,1.917 4.267,4.271 0,2.36 -1.912,4.27 -4.267,4.27 -2.353,0 -4.27,-1.91 -4.27,-4.27 m -1.334,0 c 0,3.089 2.516,5.604 5.604,5.604 3.084,0 5.6,-2.515 5.6,-5.604 0,-3.088 -2.516,-5.599 -5.6,-5.599 -3.088,0 -5.604,2.511 -5.604,5.599"
     id="path371" />
  <path
     style="fill:none;stroke:#231f20;stroke-width:0.665856;stroke-linecap:butt;stroke-linejoin:miter;stroke-miterlimit:4;stroke-dasharray:none;stroke-opacity:1"
     d="m 29.25,52.828 c 0,-2.354 1.917,-4.271 4.27,-4.271 2.355,0 4.267,1.917 4.267,4.271 0,2.36 -1.912,4.27 -4.267,4.27 -2.353,0 -4.27,-1.91 -4.27,-4.27 z m -1.334,0 c 0,3.089 2.516,5.604 5.604,5.604 3.084,0 5.6,-2.515 5.6,-5.604 0,-3.088 -2.516,-5.599 -5.6,-5.599 -3.088,0 -5.604,2.511 -5.604,5.599 z"
     id="path372" />
  <path
     style="fill:#231f20;fill-opacity:1;fill-rule:nonzero;stroke:none"
     d="m 194.421,87.942 c 0.412,-1.292 1.402,-1.344 2.23,-0.724 0.245,0.188 0.65,0.094 0.874,0.292 0.527,0.468 0.563,2.214 -0.874,2.615 -0.11,0.031 -0.792,0.479 -1.359,0.729 -1.109,0.5 -3.563,0.954 -5.767,-0.6 -1.052,-0.728 -0.426,-1.213 0.09,-1.041 1.62,0.532 1.874,0.256 2.349,0.251 1.619,-0.047 2.457,-1.522 2.457,-1.522"
     id="path373" />
  <path
     style="fill:none;stroke:#231f20;stroke-width:0.332927;stroke-linecap:butt;stroke-linejoin:miter;stroke-miterlimit:4;stroke-dasharray:none;stroke-opacity:1"
     d="m 194.421,87.942 c 0.412,-1.292 1.402,-1.344 2.23,-0.724 0.245,0.188 0.65,0.094 0.874,0.292 0.527,0.468 0.563,2.214 -0.874,2.615 -0.11,0.031 -0.792,0.479 -1.359,0.729 -1.109,0.5 -3.563,0.954 -5.767,-0.6 -1.052,-0.728 -0.426,-1.213 0.09,-1.041 1.62,0.532 1.874,0.256 2.349,0.251 1.619,-0.047 2.457,-1.522 2.457,-1.522 z"
     id="path374" />
  <path
     style="fill:#231f20;fill-opacity:1;fill-rule:nonzero;stroke:none"
     d="m 212.563,83.193 c -0.486,-2.215 -0.876,-2.579 -1.823,-2.443 -0.631,0.094 -1.251,-0.037 -1.636,0.006 -1.292,0.124 -3.407,0.869 -8.864,4.556 -1.235,0.838 -2.98,2 -3.729,2.417 -1.183,0.661 0.713,2.183 1.176,1.927 1.51,-0.812 2.614,-1.255 3.193,-1.474 0.401,-0.156 1.073,-0.51 2.693,-0.901 2.463,-0.579 4.02,-0.568 6.01,-1.287 0.922,-0.333 1.828,0 2.568,-0.792 0.74,-0.796 0.412,-2.009 0.412,-2.009"
     id="path375" />
  <path
     style="fill:none;stroke:#231f20;stroke-width:0.565977;stroke-linecap:butt;stroke-linejoin:miter;stroke-miterlimit:4;stroke-dasharray:none;stroke-opacity:1"
     d="m 212.563,83.193 c -0.486,-2.215 -0.876,-2.579 -1.823,-2.443 -0.631,0.094 -1.251,-0.037 -1.636,0.006 -1.292,0.124 -3.407,0.869 -8.864,4.556 -1.235,0.838 -2.98,2 -3.729,2.417 -1.183,0.661 0.713,2.183 1.176,1.927 1.51,-0.812 2.614,-1.255 3.193,-1.474 0.401,-0.156 1.073,-0.51 2.693,-0.901 2.463,-0.579 4.02,-0.568 6.01,-1.287 0.922,-0.333 1.828,0 2.568,-0.792 0.74,-0.796 0.412,-2.009 0.412,-2.009 z"
     id="path376" />
  <path
     style="fill:#ca0369;fill-opacity:1;fill-rule:nonzero;stroke:none"
     d="m 235.39,70.844 c -2.74,1.521 -3.489,1.541 -4.406,1.64 -5.75,0.594 -5.35,3.401 -3.522,5.63 2.158,2.62 2.876,3.604 8.063,0.036 1.443,-0.994 7.48,-4.072 7.48,-4.072 2.301,-0.813 4.12,-2.838 4.255,-4.286 0.136,-1.527 -0.031,-0.932 -0.162,-2.375 -0.125,-1.365 -1.401,-3.141 -2.636,-3.245 -1.186,-0.094 -2.145,1.265 -3.796,3.041 -1.302,1.407 -5.276,3.631 -5.276,3.631"
     id="path377" />
  <path
     style="fill:none;stroke:#231f20;stroke-width:0.565977;stroke-linecap:butt;stroke-linejoin:miter;stroke-miterlimit:4;stroke-dasharray:none;stroke-opacity:1"
     d="m 235.39,70.844 c -2.74,1.521 -3.489,1.541 -4.406,1.64 -5.75,0.594 -5.35,3.401 -3.522,5.63 2.158,2.62 2.876,3.604 8.063,0.036 1.443,-0.994 7.48,-4.072 7.48,-4.072 2.301,-0.813 4.12,-2.838 4.255,-4.286 0.136,-1.527 -0.031,-0.932 -0.162,-2.375 -0.125,-1.365 -1.401,-3.141 -2.636,-3.245 -1.186,-0.094 -2.145,1.265 -3.796,3.041 -1.302,1.407 -5.276,3.631 -5.276,3.631 z"
     id="path378" />
  <path
     style="fill:#ffffff;fill-opacity:1;fill-rule:nonzero;stroke:none"
     d="m 253.068,64.974 c 0.213,-0.13 1.046,0.656 1.432,0.307 0.385,-0.349 0.02,-1.052 0.776,-2.891 l 0.016,-0.016 c 0.593,-1.328 0.577,-2.713 -0.188,-3.708 -1.266,-1.645 -4.11,-1.582 -6.344,0.146 -2.235,1.729 -3.02,4.453 -1.75,6.1 1.208,1.572 3.87,1.582 6.058,0.062"
     id="path379" />
  <path
     style="fill:none;stroke:#231f20;stroke-width:0.565977;stroke-linecap:butt;stroke-linejoin:miter;stroke-miterlimit:4;stroke-dasharray:none;stroke-opacity:1"
     d="m 253.068,64.974 c 0.213,-0.13 1.046,0.656 1.432,0.307 0.385,-0.349 0.02,-1.052 0.776,-2.891 l 0.016,-0.016 c 0.593,-1.328 0.577,-2.713 -0.188,-3.708 -1.266,-1.645 -4.11,-1.582 -6.344,0.146 -2.235,1.729 -3.02,4.453 -1.75,6.1 1.208,1.572 3.87,1.582 6.058,0.062 z"
     id="path380" />
  <path
     style="fill:#231f20;fill-opacity:1;fill-rule:nonzero;stroke:none"
     d="m 210.088,83.145 c 0.511,3.98 3.896,1.704 4.371,1.647 4.968,-0.61 5.317,-0.787 9.061,-1.516 5.428,-1.058 8.98,-2.615 9.292,-5.954 0.204,-2.265 -0.656,-3.656 -1.834,-4.249 -1.296,-0.661 -4.478,-0.625 -5.994,1.828 l -1.536,0.765 c -1.095,0.38 -1.642,0.584 -2.199,0.724 -0.973,0.251 -1.989,0.588 -3.853,1.188 -3.303,1.063 -6.448,3.271 -6.448,3.271 -1.177,0.411 -0.86,2.296 -0.86,2.296"
     id="path381" />
  <path
     style="fill:none;stroke:#231f20;stroke-width:0.565977;stroke-linecap:butt;stroke-linejoin:miter;stroke-miterlimit:4;stroke-dasharray:none;stroke-opacity:1"
     d="m 210.088,83.145 c 0.511,3.98 3.896,1.704 4.371,1.647 4.968,-0.61 5.317,-0.787 9.061,-1.516 5.428,-1.058 8.98,-2.615 9.292,-5.954 0.204,-2.265 -0.656,-3.656 -1.834,-4.249 -1.296,-0.661 -4.478,-0.625 -5.994,1.828 l -1.536,0.765 c -1.095,0.38 -1.642,0.584 -2.199,0.724 -0.973,0.251 -1.989,0.588 -3.853,1.188 -3.303,1.063 -6.448,3.271 -6.448,3.271 -1.177,0.411 -0.86,2.296 -0.86,2.296 z"
     id="path382" />
  <path
     style="fill:#ca0369;fill-opacity:1;fill-rule:nonzero;stroke:none"
     d="m 230.984,73.073 c -1.307,-0.661 -4.484,-0.625 -6,1.828 l 1.698,7.631 c 0.635,-0.188 1.208,-0.391 1.755,-0.606 0.079,-0.005 0.161,-0.005 0.229,0 0.802,0.084 1.244,-0.364 1.943,-1.129 1.281,-0.885 2.068,-2 2.203,-3.475 0.204,-2.265 -0.656,-3.656 -1.828,-4.249"
     id="path383" />
  <path
     style="fill:none;stroke:#231f20;stroke-width:0.565977;stroke-linecap:butt;stroke-linejoin:miter;stroke-miterlimit:4;stroke-dasharray:none;stroke-opacity:1"
     d="m 230.984,73.073 c -1.307,-0.661 -4.484,-0.625 -6,1.828 l 1.698,7.631 c 0.635,-0.188 1.208,-0.391 1.755,-0.606 0.079,-0.005 0.161,-0.005 0.229,0 0.802,0.084 1.244,-0.364 1.943,-1.129 1.281,-0.885 2.068,-2 2.203,-3.475 0.204,-2.265 -0.656,-3.656 -1.828,-4.249 z"
     id="path384" />
  <path
     style="fill:#231f20;fill-opacity:1;fill-rule:nonzero;stroke:none"
     d="m 226.333,57.578 c 0.635,-0.068 2.24,1.031 3.812,1.364 1.063,0.224 3.281,1.844 4.36,1.995 0.984,0.131 1.421,0.281 1.463,1.437 0.021,0.678 -0.37,2.006 -0.88,2.052 -1.187,0.095 -2.083,-0.202 -3.011,-0.744 -1.047,-0.614 -3.744,-2.537 -4.208,-2.937 -1.151,-0.995 -1.885,-1.027 -2.219,-1.267 -0.625,-0.442 -0.604,-0.785 -0.406,-1.249 0.381,-0.88 1.089,-0.651 1.089,-0.651"
     id="path385" />
  <path
     style="fill:none;stroke:#231f20;stroke-width:0.565977;stroke-linecap:butt;stroke-linejoin:miter;stroke-miterlimit:4;stroke-dasharray:none;stroke-opacity:1"
     d="m 226.333,57.578 c 0.635,-0.068 2.24,1.031 3.812,1.364 1.063,0.224 3.281,1.844 4.36,1.995 0.984,0.131 1.421,0.281 1.463,1.437 0.021,0.678 -0.37,2.006 -0.88,2.052 -1.187,0.095 -2.083,-0.202 -3.011,-0.744 -1.047,-0.614 -3.744,-2.537 -4.208,-2.937 -1.151,-0.995 -1.885,-1.027 -2.219,-1.267 -0.625,-0.442 -0.604,-0.785 -0.406,-1.249 0.381,-0.88 1.089,-0.651 1.089,-0.651 z"
     id="path386" />
  <path
     style="fill:#231f20;fill-opacity:1;fill-rule:nonzero;stroke:none"
     d="m 234.448,61.598 c 0.697,-1.082 2.182,0.308 2.629,0.615 0.448,0.308 1.824,1.037 2.964,1.469 1.151,0.432 2.391,1.459 4.568,2.287 1.145,0.432 1.979,1.577 1.287,3.208 -0.694,1.615 -1.866,1.833 -3.172,1.099 -1.308,-0.735 -2.219,-1.974 -3.484,-2.807 -1.262,-0.828 -2.626,-1.557 -3.72,-2.073 -1.25,-0.599 -1.646,-1.355 -1.624,-1.834 0.046,-1.193 0.552,-1.964 0.552,-1.964"
     id="path387" />
  <path
     style="fill:none;stroke:#231f20;stroke-width:0.565977;stroke-linecap:butt;stroke-linejoin:miter;stroke-miterlimit:4;stroke-dasharray:none;stroke-opacity:1"
     d="m 234.448,61.598 c 0.697,-1.082 2.182,0.308 2.629,0.615 0.448,0.308 1.824,1.037 2.964,1.469 1.151,0.432 2.391,1.459 4.568,2.287 1.145,0.432 1.979,1.577 1.287,3.208 -0.694,1.615 -1.866,1.833 -3.172,1.099 -1.308,-0.735 -2.219,-1.974 -3.484,-2.807 -1.262,-0.828 -2.626,-1.557 -3.72,-2.073 -1.25,-0.599 -1.646,-1.355 -1.624,-1.834 0.046,-1.193 0.552,-1.964 0.552,-1.964 z"
     id="path388" />
  <path
     style="fill:#ffffff;fill-opacity:1;fill-rule:nonzero;stroke:#231f20;stroke-width:0.665856;stroke-linecap:butt;stroke-linejoin:miter;stroke-miterlimit:4;stroke-dasharray:none;stroke-opacity:1"
     d="m 224.541,48.046 h 1.333 V 16.369 h -1.333 z"
     id="path389" />
  <path
     style="fill:#ffffff;fill-opacity:1;fill-rule:nonzero;stroke:none"
     d="m 221.349,52.984 c 0,-2.354 1.916,-4.271 4.271,-4.271 2.353,0 4.265,1.917 4.265,4.271 0,2.354 -1.912,4.266 -4.265,4.266 -2.355,0 -4.271,-1.912 -4.271,-4.266 m -1.333,0 c 0,3.089 2.514,5.6 5.604,5.6 3.082,0 5.598,-2.511 5.598,-5.6 0,-3.088 -2.516,-5.604 -5.598,-5.604 -3.09,0 -5.604,2.516 -5.604,5.604"
     id="path390" />
  <path
     style="fill:none;stroke:#231f20;stroke-width:0.665856;stroke-linecap:butt;stroke-linejoin:miter;stroke-miterlimit:4;stroke-dasharray:none;stroke-opacity:1"
     d="m 221.349,52.984 c 0,-2.354 1.916,-4.271 4.271,-4.271 2.353,0 4.265,1.917 4.265,4.271 0,2.354 -1.912,4.266 -4.265,4.266 -2.355,0 -4.271,-1.912 -4.271,-4.266 z m -1.333,0 c 0,3.089 2.514,5.6 5.604,5.6 3.082,0 5.598,-2.511 5.598,-5.6 0,-3.088 -2.516,-5.604 -5.598,-5.604 -3.09,0 -5.604,2.516 -5.604,5.604 z"
     id="path391" />
  <path
     style="fill:#231f20;fill-opacity:1;fill-rule:nonzero;stroke:none"
     d="m 225.202,58.989 c -0.645,-0.271 -0.812,-2.577 -0.52,-2.703 0.286,-0.13 0.266,0.64 0.599,0.511 0.333,-0.12 0.271,-0.62 0.505,-0.636 0.25,-0.02 0.224,0.579 0.515,0.495 0.125,-0.031 0.355,-0.583 0.543,-0.542 0.161,0.042 0.348,0.527 0.478,0.568 0.208,0.058 0.282,-0.557 0.459,-0.521 0.459,0.079 -0.235,2.699 -0.448,2.813 -0.323,0.162 -1.093,0.448 -2.131,0.015"
     id="path392" />
  <path
     style="fill:none;stroke:#231f20;stroke-width:0.565977;stroke-linecap:round;stroke-linejoin:round;stroke-miterlimit:4;stroke-dasharray:none;stroke-opacity:1"
     d="m 225.202,58.989 c -0.645,-0.271 -0.812,-2.577 -0.52,-2.703 0.286,-0.13 0.266,0.64 0.599,0.511 0.333,-0.12 0.271,-0.62 0.505,-0.636 0.25,-0.02 0.224,0.579 0.515,0.495 0.125,-0.031 0.355,-0.583 0.543,-0.542 0.161,0.042 0.348,0.527 0.478,0.568 0.208,0.058 0.282,-0.557 0.459,-0.521 0.459,0.079 -0.235,2.699 -0.448,2.813 -0.323,0.162 -1.093,0.448 -2.131,0.015 z"
     id="path393" />
  <path
     style="fill:#231f20;fill-opacity:1;fill-rule:nonzero;stroke:none"
     d="m 277.994,68.224 c 0.855,-1.047 1.792,-0.735 2.339,0.145 0.156,0.272 0.568,0.329 0.703,0.6 0.317,0.629 -0.292,2.265 -1.776,2.104 -0.115,-0.011 -0.916,0.151 -1.531,0.177 -1.219,0.052 -3.667,-0.433 -5.141,-2.688 -0.708,-1.062 0.046,-1.281 0.464,-0.932 1.312,1.088 1.65,0.932 2.098,1.094 1.516,0.557 2.844,-0.5 2.844,-0.5"
     id="path394" />
  <path
     style="fill:none;stroke:#231f20;stroke-width:0.332927;stroke-linecap:butt;stroke-linejoin:miter;stroke-miterlimit:4;stroke-dasharray:none;stroke-opacity:1"
     d="m 277.994,68.224 c 0.855,-1.047 1.792,-0.735 2.339,0.145 0.156,0.272 0.568,0.329 0.703,0.6 0.317,0.629 -0.292,2.265 -1.776,2.104 -0.115,-0.011 -0.916,0.151 -1.531,0.177 -1.219,0.052 -3.667,-0.433 -5.141,-2.688 -0.708,-1.062 0.046,-1.281 0.464,-0.932 1.312,1.088 1.65,0.932 2.098,1.094 1.516,0.557 2.844,-0.5 2.844,-0.5 z"
     id="path395" />
  <path
     style="fill:#231f20;fill-opacity:1;fill-rule:nonzero;stroke:none"
     d="m 296.604,70.505 c 0.369,-2.235 0.14,-2.719 -0.792,-2.943 -0.626,-0.145 -1.146,-0.494 -1.52,-0.598 -1.251,-0.366 -3.491,-0.448 -9.923,0.962 -1.459,0.324 -3.511,0.756 -4.359,0.871 -1.344,0.177 -0.141,2.292 0.386,2.224 1.702,-0.199 2.89,-0.204 3.514,-0.193 0.428,0.005 1.183,-0.078 2.834,0.156 2.5,0.37 3.942,0.964 6.057,1.026 0.98,0.026 1.699,0.672 2.683,0.214 0.978,-0.468 1.12,-1.719 1.12,-1.719"
     id="path396" />
  <path
     style="fill:none;stroke:#231f20;stroke-width:0.565977;stroke-linecap:butt;stroke-linejoin:miter;stroke-miterlimit:4;stroke-dasharray:none;stroke-opacity:1"
     d="m 296.604,70.505 c 0.369,-2.235 0.14,-2.719 -0.792,-2.943 -0.626,-0.145 -1.146,-0.494 -1.52,-0.598 -1.251,-0.366 -3.491,-0.448 -9.923,0.962 -1.459,0.324 -3.511,0.756 -4.359,0.871 -1.344,0.177 -0.141,2.292 0.386,2.224 1.702,-0.199 2.89,-0.204 3.514,-0.193 0.428,0.005 1.183,-0.078 2.834,0.156 2.5,0.37 3.942,0.964 6.057,1.026 0.98,0.026 1.699,0.672 2.683,0.214 0.978,-0.468 1.12,-1.719 1.12,-1.719 z"
     id="path397" />
  <path
     style="fill:#ca0369;fill-opacity:1;fill-rule:nonzero;stroke:none"
     d="m 322.634,68.208 c -3.129,0.1 -3.812,-0.224 -4.666,-0.558 -5.386,-2.109 -6.318,0.579 -5.708,3.396 0.713,3.319 0.901,4.516 7.146,3.724 1.744,-0.224 8.515,-0.197 8.515,-0.197 2.423,0.333 4.964,-0.636 5.74,-1.86 0.823,-1.296 0.407,-0.844 0.953,-2.187 0.515,-1.272 0.187,-3.437 -0.86,-4.089 -1.01,-0.629 -2.489,0.141 -4.765,0.964 -1.803,0.651 -6.355,0.807 -6.355,0.807"
     id="path398" />
  <path
     style="fill:none;stroke:#231f20;stroke-width:0.565977;stroke-linecap:butt;stroke-linejoin:miter;stroke-miterlimit:4;stroke-dasharray:none;stroke-opacity:1"
     d="m 322.634,68.208 c -3.129,0.1 -3.812,-0.224 -4.666,-0.558 -5.386,-2.109 -6.318,0.579 -5.708,3.396 0.713,3.319 0.901,4.516 7.146,3.724 1.744,-0.224 8.515,-0.197 8.515,-0.197 2.423,0.333 4.964,-0.636 5.74,-1.86 0.823,-1.296 0.407,-0.844 0.953,-2.187 0.515,-1.272 0.187,-3.437 -0.86,-4.089 -1.01,-0.629 -2.489,0.141 -4.765,0.964 -1.803,0.651 -6.355,0.807 -6.355,0.807 z"
     id="path399" />
  <path
     style="fill:#ffffff;fill-opacity:1;fill-rule:nonzero;stroke:none"
     d="m 341.156,68.937 c 0.24,-0.068 0.849,0.901 1.312,0.656 0.458,-0.244 0.281,-1.015 1.48,-2.604 l 0.016,-0.015 c 0.905,-1.136 1.238,-2.485 0.744,-3.636 -0.812,-1.906 -3.583,-2.557 -6.178,-1.448 -2.598,1.12 -4.041,3.563 -3.218,5.47 0.77,1.828 3.349,2.5 5.844,1.577"
     id="path400" />
  <path
     style="fill:none;stroke:#231f20;stroke-width:0.565977;stroke-linecap:butt;stroke-linejoin:miter;stroke-miterlimit:4;stroke-dasharray:none;stroke-opacity:1"
     d="m 341.156,68.937 c 0.24,-0.068 0.849,0.901 1.312,0.656 0.458,-0.244 0.281,-1.015 1.48,-2.604 l 0.016,-0.015 c 0.905,-1.136 1.238,-2.485 0.744,-3.636 -0.812,-1.906 -3.583,-2.557 -6.178,-1.448 -2.598,1.12 -4.041,3.563 -3.218,5.47 0.77,1.828 3.349,2.5 5.844,1.577 z"
     id="path401" />
  <path
     style="fill:#231f20;fill-opacity:1;fill-rule:nonzero;stroke:none"
     d="m 294.322,69.546 c -1,3.891 2.995,3.022 3.454,3.147 4.844,1.271 5.229,1.233 8.978,1.937 5.438,1.02 9.314,0.886 10.834,-2.104 1.026,-2.026 0.745,-3.641 -0.13,-4.625 -0.969,-1.093 -3.933,-2.235 -6.25,-0.516 l -1.708,0.147 c -1.162,-0.054 -1.74,-0.063 -2.308,-0.136 -1,-0.131 -2.067,-0.194 -4.02,-0.323 -3.464,-0.229 -7.204,0.656 -7.204,0.656 -1.244,-0.052 -1.646,1.817 -1.646,1.817"
     id="path402" />
  <path
     style="fill:none;stroke:#231f20;stroke-width:0.565977;stroke-linecap:butt;stroke-linejoin:miter;stroke-miterlimit:4;stroke-dasharray:none;stroke-opacity:1"
     d="m 294.322,69.546 c -1,3.891 2.995,3.022 3.454,3.147 4.844,1.271 5.229,1.233 8.978,1.937 5.438,1.02 9.314,0.886 10.834,-2.104 1.026,-2.026 0.745,-3.641 -0.13,-4.625 -0.969,-1.093 -3.933,-2.235 -6.25,-0.516 l -1.708,0.147 c -1.162,-0.054 -1.74,-0.063 -2.308,-0.136 -1,-0.131 -2.067,-0.194 -4.02,-0.323 -3.464,-0.229 -7.204,0.656 -7.204,0.656 -1.244,-0.052 -1.646,1.817 -1.646,1.817 z"
     id="path403" />
  <path
     style="fill:#ca0369;fill-opacity:1;fill-rule:nonzero;stroke:none"
     d="m 317.458,67.901 c -0.969,-1.093 -3.933,-2.235 -6.25,-0.516 l -1.23,7.719 c 0.652,0.062 1.262,0.084 1.85,0.089 0.073,0.025 0.15,0.052 0.213,0.083 0.713,0.369 1.292,0.12 2.224,-0.328 1.511,-0.355 2.656,-1.104 3.323,-2.422 1.026,-2.026 0.745,-3.641 -0.13,-4.625"
     id="path404" />
  <path
     style="fill:none;stroke:#231f20;stroke-width:0.565977;stroke-linecap:butt;stroke-linejoin:miter;stroke-miterlimit:4;stroke-dasharray:none;stroke-opacity:1"
     d="m 317.458,67.901 c -0.969,-1.093 -3.933,-2.235 -6.25,-0.516 l -1.23,7.719 c 0.652,0.062 1.262,0.084 1.85,0.089 0.073,0.025 0.15,0.052 0.213,0.083 0.713,0.369 1.292,0.12 2.224,-0.328 1.511,-0.355 2.656,-1.104 3.323,-2.422 1.026,-2.026 0.745,-3.641 -0.13,-4.625 z"
     id="path405" />
  <path
     style="fill:#231f20;fill-opacity:1;fill-rule:nonzero;stroke:none"
     d="m 313.718,57.578 c 0.64,-0.068 2.246,1.031 3.818,1.364 1.062,0.224 3.276,1.844 4.354,1.995 0.984,0.131 1.422,0.281 1.463,1.437 0.027,0.678 -0.369,2.006 -0.88,2.052 -1.181,0.095 -2.083,-0.202 -3.011,-0.744 -1.041,-0.614 -3.738,-2.537 -4.202,-2.937 -1.151,-0.995 -1.891,-1.027 -2.219,-1.267 -0.625,-0.442 -0.609,-0.785 -0.407,-1.249 0.382,-0.88 1.084,-0.651 1.084,-0.651"
     id="path406" />
  <path
     style="fill:none;stroke:#231f20;stroke-width:0.565977;stroke-linecap:butt;stroke-linejoin:miter;stroke-miterlimit:4;stroke-dasharray:none;stroke-opacity:1"
     d="m 313.718,57.578 c 0.64,-0.068 2.246,1.031 3.818,1.364 1.062,0.224 3.276,1.844 4.354,1.995 0.984,0.131 1.422,0.281 1.463,1.437 0.027,0.678 -0.369,2.006 -0.88,2.052 -1.181,0.095 -2.083,-0.202 -3.011,-0.744 -1.041,-0.614 -3.738,-2.537 -4.202,-2.937 -1.151,-0.995 -1.891,-1.027 -2.219,-1.267 -0.625,-0.442 -0.609,-0.785 -0.407,-1.249 0.382,-0.88 1.084,-0.651 1.084,-0.651 z"
     id="path407" />
  <path
     style="fill:#231f20;fill-opacity:1;fill-rule:nonzero;stroke:none"
     d="m 321.838,61.598 c 0.692,-1.082 2.178,0.308 2.63,0.615 0.442,0.308 1.818,1.037 2.964,1.469 1.145,0.432 2.39,1.459 4.562,2.287 1.146,0.432 1.984,1.577 1.287,3.208 -0.693,1.615 -1.865,1.833 -3.167,1.099 -1.308,-0.735 -2.224,-1.974 -3.484,-2.807 -1.261,-0.828 -2.625,-1.557 -3.724,-2.073 -1.25,-0.599 -1.646,-1.355 -1.625,-1.834 0.047,-1.193 0.557,-1.964 0.557,-1.964"
     id="path408" />
  <path
     style="fill:none;stroke:#231f20;stroke-width:0.565977;stroke-linecap:butt;stroke-linejoin:miter;stroke-miterlimit:4;stroke-dasharray:none;stroke-opacity:1"
     d="m 321.838,61.598 c 0.692,-1.082 2.178,0.308 2.63,0.615 0.442,0.308 1.818,1.037 2.964,1.469 1.145,0.432 2.39,1.459 4.562,2.287 1.146,0.432 1.984,1.577 1.287,3.208 -0.693,1.615 -1.865,1.833 -3.167,1.099 -1.308,-0.735 -2.224,-1.974 -3.484,-2.807 -1.261,-0.828 -2.625,-1.557 -3.724,-2.073 -1.25,-0.599 -1.646,-1.355 -1.625,-1.834 0.047,-1.193 0.557,-1.964 0.557,-1.964 z"
     id="path409" />
  <path
     style="fill:#ffffff;fill-opacity:1;fill-rule:nonzero;stroke:none"
     d="m 311.926,48.046 h 1.334 V 16.369 h -1.334 z"
     id="path410" />
  <path
     style="fill:none;stroke:#231f20;stroke-width:0.665856;stroke-linecap:butt;stroke-linejoin:miter;stroke-miterlimit:4;stroke-dasharray:none;stroke-opacity:1"
     d="m 311.932,48.046 h 1.328 V 16.369 h -1.328 z"
     id="path411" />
  <path
     style="fill:#ffffff;fill-opacity:1;fill-rule:nonzero;stroke:none"
     d="m 308.734,52.984 c 0,-2.354 1.916,-4.271 4.271,-4.271 2.353,0 4.265,1.917 4.265,4.271 0,2.354 -1.912,4.266 -4.265,4.266 -2.355,0 -4.271,-1.912 -4.271,-4.266 m -1.328,0 c 0,3.089 2.51,5.6 5.599,5.6 3.088,0 5.599,-2.511 5.599,-5.6 0,-3.088 -2.511,-5.604 -5.599,-5.604 -3.089,0 -5.599,2.516 -5.599,5.604"
     id="path412" />
  <path
     style="fill:none;stroke:#231f20;stroke-width:0.665856;stroke-linecap:butt;stroke-linejoin:miter;stroke-miterlimit:4;stroke-dasharray:none;stroke-opacity:1"
     d="m 308.734,52.984 c 0,-2.354 1.916,-4.271 4.271,-4.271 2.353,0 4.265,1.917 4.265,4.271 0,2.354 -1.912,4.266 -4.265,4.266 -2.355,0 -4.271,-1.912 -4.271,-4.266 z m -1.328,0 c 0,3.089 2.51,5.6 5.599,5.6 3.088,0 5.599,-2.511 5.599,-5.6 0,-3.088 -2.511,-5.604 -5.599,-5.604 -3.089,0 -5.599,2.516 -5.599,5.604 z"
     id="path413" />
  <path
     style="fill:#231f20;fill-opacity:1;fill-rule:nonzero;stroke:none"
     d="m 312.588,58.989 c -0.64,-0.271 -0.812,-2.577 -0.52,-2.703 0.29,-0.13 0.265,0.64 0.598,0.511 0.334,-0.12 0.276,-0.62 0.506,-0.636 0.249,-0.02 0.229,0.579 0.514,0.495 0.131,-0.031 0.36,-0.583 0.543,-0.542 0.167,0.042 0.348,0.527 0.484,0.568 0.203,0.058 0.276,-0.557 0.453,-0.521 0.464,0.079 -0.234,2.699 -0.448,2.813 -0.322,0.162 -1.088,0.448 -2.13,0.015"
     id="path414" />
  <path
     style="fill:none;stroke:#231f20;stroke-width:0.565977;stroke-linecap:round;stroke-linejoin:round;stroke-miterlimit:4;stroke-dasharray:none;stroke-opacity:1"
     d="m 312.588,58.989 c -0.64,-0.271 -0.812,-2.577 -0.52,-2.703 0.29,-0.13 0.265,0.64 0.598,0.511 0.334,-0.12 0.276,-0.62 0.506,-0.636 0.249,-0.02 0.229,0.579 0.514,0.495 0.131,-0.031 0.36,-0.583 0.543,-0.542 0.167,0.042 0.348,0.527 0.484,0.568 0.203,0.058 0.276,-0.557 0.453,-0.521 0.464,0.079 -0.234,2.699 -0.448,2.813 -0.322,0.162 -1.088,0.448 -2.13,0.015 z"
     id="path415" />
  <path
     style="fill:#231f20;fill-opacity:1;fill-rule:nonzero;stroke:none"
     d="m 32.74,58.593 c -0.646,-0.265 -0.829,-2.577 -0.537,-2.703 0.292,-0.125 0.265,0.642 0.599,0.516 0.338,-0.13 0.272,-0.625 0.5,-0.646 0.25,-0.026 0.234,0.584 0.521,0.494 0.125,-0.03 0.355,-0.582 0.541,-0.541 0.167,0.032 0.355,0.521 0.486,0.557 0.202,0.058 0.276,-0.552 0.452,-0.525 0.458,0.083 -0.224,2.713 -0.438,2.823 -0.317,0.161 -1.082,0.458 -2.124,0.025"
     id="path416" />
  <path
     style="fill:none;stroke:#231f20;stroke-width:0.565977;stroke-linecap:round;stroke-linejoin:round;stroke-miterlimit:4;stroke-dasharray:none;stroke-opacity:1"
     d="m 32.74,58.593 c -0.646,-0.265 -0.829,-2.577 -0.537,-2.703 0.292,-0.125 0.265,0.642 0.599,0.516 0.338,-0.13 0.272,-0.625 0.5,-0.646 0.25,-0.026 0.234,0.584 0.521,0.494 0.125,-0.03 0.355,-0.582 0.541,-0.541 0.167,0.032 0.355,0.521 0.486,0.557 0.202,0.058 0.276,-0.552 0.452,-0.525 0.458,0.083 -0.224,2.713 -0.438,2.823 -0.317,0.161 -1.082,0.458 -2.124,0.025 z"
     id="path417" />
  <path
     style="fill:#231f20;fill-opacity:1;fill-rule:nonzero;stroke:none"
     d="m 103.375,118.869 c -1.339,-0.171 -1.574,-1.135 -1.11,-2.062 0.136,-0.276 -0.03,-0.657 0.126,-0.917 0.364,-0.604 2.072,-0.959 2.729,0.391 0.052,0.098 0.609,0.693 0.963,1.202 0.688,1 1.578,3.334 0.458,5.782 -0.53,1.166 -1.12,0.636 -1.046,0.1 0.229,-1.699 -0.088,-1.891 -0.183,-2.355 -0.339,-1.588 -1.937,-2.141 -1.937,-2.141"
     id="path418" />
  <path
     style="fill:none;stroke:#231f20;stroke-width:0.332927;stroke-linecap:butt;stroke-linejoin:miter;stroke-miterlimit:4;stroke-dasharray:none;stroke-opacity:1"
     d="m 103.375,118.869 c -1.339,-0.171 -1.574,-1.135 -1.11,-2.062 0.136,-0.276 -0.03,-0.657 0.126,-0.917 0.364,-0.604 2.072,-0.959 2.729,0.391 0.052,0.098 0.609,0.693 0.963,1.202 0.688,1 1.578,3.334 0.458,5.782 -0.53,1.166 -1.12,0.636 -1.046,0.1 0.229,-1.699 -0.088,-1.891 -0.183,-2.355 -0.339,-1.588 -1.937,-2.141 -1.937,-2.141 z"
     id="path419" />
  <path
     style="fill:#231f20;fill-opacity:1;fill-rule:nonzero;stroke:none"
     d="m 95.421,101.885 c -2.088,0.87 -2.38,1.322 -2.068,2.234 0.204,0.604 0.188,1.235 0.298,1.604 0.36,1.251 1.474,3.198 6.089,7.896 1.047,1.063 2.504,2.574 3.052,3.23 0.864,1.052 2.015,-1.094 1.681,-1.511 -1.077,-1.333 -1.713,-2.339 -2.03,-2.869 -0.224,-0.371 -0.699,-0.964 -1.37,-2.486 -1.016,-2.312 -1.286,-3.848 -2.354,-5.681 -0.495,-0.839 -0.334,-1.792 -1.246,-2.376 -0.91,-0.588 -2.052,-0.041 -2.052,-0.041"
     id="path420" />
  <path
     style="fill:none;stroke:#231f20;stroke-width:0.565977;stroke-linecap:butt;stroke-linejoin:miter;stroke-miterlimit:4;stroke-dasharray:none;stroke-opacity:1"
     d="m 95.421,101.885 c -2.088,0.87 -2.38,1.322 -2.068,2.234 0.204,0.604 0.188,1.235 0.298,1.604 0.36,1.251 1.474,3.198 6.089,7.896 1.047,1.063 2.504,2.574 3.052,3.23 0.864,1.052 2.015,-1.094 1.681,-1.511 -1.077,-1.333 -1.713,-2.339 -2.03,-2.869 -0.224,-0.371 -0.699,-0.964 -1.37,-2.486 -1.016,-2.312 -1.286,-3.848 -2.354,-5.681 -0.495,-0.839 -0.334,-1.792 -1.246,-2.376 -0.91,-0.588 -2.052,-0.041 -2.052,-0.041 z"
     id="path421" />
  <path
     style="fill:#ca0369;fill-opacity:1;fill-rule:nonzero;stroke:none"
     d="m 82.662,79.36 c 0.406,3.109 0.156,3.822 -0.094,4.708 -1.557,5.568 1.208,6.224 3.952,5.338 3.224,-1.041 4.401,-1.349 2.991,-7.489 -0.391,-1.699 -1.048,-8.443 -1.048,-8.443 0.094,-2.448 -1.119,-4.881 -2.421,-5.532 -1.375,-0.688 -0.88,-0.317 -2.266,-0.724 -1.317,-0.39 -3.442,0.151 -3.984,1.26 -0.526,1.063 0.386,2.459 1.432,4.647 0.823,1.724 1.438,6.235 1.438,6.235"
     id="path422" />
  <path
     style="fill:none;stroke:#231f20;stroke-width:0.565977;stroke-linecap:butt;stroke-linejoin:miter;stroke-miterlimit:4;stroke-dasharray:none;stroke-opacity:1"
     d="m 82.662,79.36 c 0.406,3.109 0.156,3.822 -0.094,4.708 -1.557,5.568 1.208,6.224 3.952,5.338 3.224,-1.041 4.401,-1.349 2.991,-7.489 -0.391,-1.699 -1.048,-8.443 -1.048,-8.443 0.094,-2.448 -1.119,-4.881 -2.421,-5.532 -1.375,-0.688 -0.88,-0.317 -2.266,-0.724 -1.317,-0.39 -3.442,0.151 -3.984,1.26 -0.526,1.063 0.386,2.459 1.432,4.647 0.823,1.724 1.438,6.235 1.438,6.235 z"
     id="path423" />
  <path
     style="fill:#ffffff;fill-opacity:1;fill-rule:nonzero;stroke:none"
     d="m 85.094,61.062 c -0.02,-0.24 1.057,-0.64 0.912,-1.145 -0.147,-0.5 -0.932,-0.485 -2.251,-1.98 L 83.74,57.921 c -0.917,-1.124 -2.172,-1.719 -3.401,-1.473 -2.037,0.412 -3.235,2.989 -2.677,5.754 0.562,2.772 2.661,4.683 4.697,4.272 1.948,-0.396 3.131,-2.776 2.735,-5.412"
     id="path424" />
  <path
     style="fill:none;stroke:#231f20;stroke-width:0.565977;stroke-linecap:butt;stroke-linejoin:miter;stroke-miterlimit:4;stroke-dasharray:none;stroke-opacity:1"
     d="m 85.094,61.062 c -0.02,-0.24 1.057,-0.64 0.912,-1.145 -0.147,-0.5 -0.932,-0.485 -2.251,-1.98 L 83.74,57.921 c -0.917,-1.124 -2.172,-1.719 -3.401,-1.473 -2.037,0.412 -3.235,2.989 -2.677,5.754 0.562,2.772 2.661,4.683 4.697,4.272 1.948,-0.396 3.131,-2.776 2.735,-5.412 z"
     id="path425" />
  <path
     style="fill:#231f20;fill-opacity:1;fill-rule:nonzero;stroke:none"
     d="m 95.828,104.327 c 3.817,-1.224 0.968,-4.14 0.823,-4.598 -1.5,-4.781 -1.73,-5.084 -3.131,-8.64 -2.02,-5.147 -4.192,-8.36 -7.525,-8.057 -2.265,0.202 -3.479,1.301 -3.855,2.566 -0.416,1.402 0.194,4.522 2.886,5.568 l 1.026,1.366 c 0.579,1.014 0.869,1.509 1.109,2.03 0.422,0.912 0.938,1.86 1.864,3.579 1.642,3.057 4.386,5.754 4.386,5.754 0.614,1.079 2.417,0.432 2.417,0.432"
     id="path426" />
  <path
     style="fill:none;stroke:#231f20;stroke-width:0.565977;stroke-linecap:butt;stroke-linejoin:miter;stroke-miterlimit:4;stroke-dasharray:none;stroke-opacity:1"
     d="m 95.828,104.327 c 3.817,-1.224 0.968,-4.14 0.823,-4.598 -1.5,-4.781 -1.73,-5.084 -3.131,-8.64 -2.02,-5.147 -4.192,-8.36 -7.525,-8.057 -2.265,0.202 -3.479,1.301 -3.855,2.566 -0.416,1.402 0.194,4.522 2.886,5.568 l 1.026,1.366 c 0.579,1.014 0.869,1.509 1.109,2.03 0.422,0.912 0.938,1.86 1.864,3.579 1.642,3.057 4.386,5.754 4.386,5.754 0.614,1.079 2.417,0.432 2.417,0.432 z"
     id="path427" />
  <path
     style="fill:#ca0369;fill-opacity:1;fill-rule:nonzero;stroke:none"
     d="m 91.312,86.5 c -0.02,-0.078 -0.036,-0.156 -0.041,-0.23 -0.074,-0.801 -0.588,-1.156 -1.47,-1.713 -1.104,-1.088 -2.342,-1.661 -3.806,-1.525 -2.265,0.202 -3.479,1.301 -3.855,2.566 -0.416,1.402 0.194,4.522 2.886,5.568 l 7.193,-3.057 C 91.927,87.526 91.62,86.994 91.312,86.5"
     id="path428" />
  <path
     style="fill:none;stroke:#231f20;stroke-width:0.565977;stroke-linecap:butt;stroke-linejoin:miter;stroke-miterlimit:4;stroke-dasharray:none;stroke-opacity:1"
     d="m 91.312,86.5 c -0.02,-0.078 -0.036,-0.156 -0.041,-0.23 -0.074,-0.801 -0.588,-1.156 -1.47,-1.713 -1.104,-1.088 -2.342,-1.661 -3.806,-1.525 -2.265,0.202 -3.479,1.301 -3.855,2.566 -0.416,1.402 0.194,4.522 2.886,5.568 l 7.193,-3.057 C 91.927,87.526 91.62,86.994 91.312,86.5 Z"
     id="path429" />
  <path
     style="fill:#231f20;fill-opacity:1;fill-rule:nonzero;stroke:none"
     d="m 100.219,59.865 c -0.203,0.609 -1.88,1.599 -2.844,2.885 -0.656,0.864 -3.058,2.198 -3.64,3.11 -0.538,0.838 -0.86,1.172 -1.928,0.718 -0.624,-0.261 -1.662,-1.177 -1.484,-1.661 0.412,-1.115 1.062,-1.803 1.937,-2.417 1,-0.688 3.88,-2.323 4.437,-2.574 1.396,-0.624 1.735,-1.276 2.09,-1.478 0.656,-0.375 0.962,-0.214 1.301,0.161 0.641,0.713 0.131,1.256 0.131,1.256"
     id="path430" />
  <path
     style="fill:none;stroke:#231f20;stroke-width:0.565977;stroke-linecap:butt;stroke-linejoin:miter;stroke-miterlimit:4;stroke-dasharray:none;stroke-opacity:1"
     d="m 100.219,59.865 c -0.203,0.609 -1.88,1.599 -2.844,2.885 -0.656,0.864 -3.058,2.198 -3.64,3.11 -0.538,0.838 -0.86,1.172 -1.928,0.718 -0.624,-0.261 -1.662,-1.177 -1.484,-1.661 0.412,-1.115 1.062,-1.803 1.937,-2.417 1,-0.688 3.88,-2.323 4.437,-2.574 1.396,-0.624 1.735,-1.276 2.09,-1.478 0.656,-0.375 0.962,-0.214 1.301,0.161 0.641,0.713 0.131,1.256 0.131,1.256 z"
     id="path431" />
  <path
     style="fill:#231f20;fill-opacity:1;fill-rule:nonzero;stroke:none"
     d="m 93.683,64.942 c 0.656,1.115 -1.256,1.818 -1.73,2.079 -0.474,0.26 -1.745,1.161 -2.652,1.984 -0.9,0.828 -2.374,1.479 -4.093,3.047 -0.901,0.828 -2.301,1.062 -3.442,-0.302 -1.131,-1.344 -0.802,-2.485 0.442,-3.318 1.246,-0.834 2.76,-1.094 4.074,-1.848 1.311,-0.756 2.571,-1.642 3.53,-2.386 1.095,-0.849 1.953,-0.865 2.365,-0.63 1.047,0.582 1.506,1.374 1.506,1.374"
     id="path432" />
  <path
     style="fill:none;stroke:#231f20;stroke-width:0.565977;stroke-linecap:butt;stroke-linejoin:miter;stroke-miterlimit:4;stroke-dasharray:none;stroke-opacity:1"
     d="m 93.683,64.942 c 0.656,1.115 -1.256,1.818 -1.73,2.079 -0.474,0.26 -1.745,1.161 -2.652,1.984 -0.9,0.828 -2.374,1.479 -4.093,3.047 -0.901,0.828 -2.301,1.062 -3.442,-0.302 -1.131,-1.344 -0.802,-2.485 0.442,-3.318 1.246,-0.834 2.76,-1.094 4.074,-1.848 1.311,-0.756 2.571,-1.642 3.53,-2.386 1.095,-0.849 1.953,-0.865 2.365,-0.63 1.047,0.582 1.506,1.374 1.506,1.374 z"
     id="path433" />
  <path
     style="fill:#ffffff;fill-opacity:1;fill-rule:nonzero;stroke:#231f20;stroke-width:0.665856;stroke-linecap:butt;stroke-linejoin:miter;stroke-miterlimit:4;stroke-dasharray:none;stroke-opacity:1"
     d="m 98.432,48.193 h 1.333 V 16.515 h -1.333 z"
     id="path434" />
  <path
     style="fill:#ffffff;fill-opacity:1;fill-rule:nonzero;stroke:none"
     d="m 95.24,53.13 c 0,-2.354 1.916,-4.27 4.271,-4.27 2.353,0 4.265,1.916 4.265,4.27 0,2.354 -1.912,4.266 -4.265,4.266 -2.355,0 -4.271,-1.912 -4.271,-4.266 m -1.329,0 c 0,3.083 2.51,5.599 5.6,5.599 3.088,0 5.598,-2.516 5.598,-5.599 0,-3.089 -2.51,-5.604 -5.598,-5.604 -3.09,0 -5.6,2.515 -5.6,5.604"
     id="path435" />
  <path
     style="fill:none;stroke:#231f20;stroke-width:0.665856;stroke-linecap:butt;stroke-linejoin:miter;stroke-miterlimit:4;stroke-dasharray:none;stroke-opacity:1"
     d="m 95.24,53.13 c 0,-2.354 1.916,-4.27 4.271,-4.27 2.353,0 4.265,1.916 4.265,4.27 0,2.354 -1.912,4.266 -4.265,4.266 -2.355,0 -4.271,-1.912 -4.271,-4.266 z m -1.329,0 c 0,3.083 2.51,5.599 5.6,5.599 3.088,0 5.598,-2.516 5.598,-5.599 0,-3.089 -2.51,-5.604 -5.598,-5.604 -3.09,0 -5.6,2.515 -5.6,5.604 z"
     id="path436" />
  <path
     style="fill:#231f20;fill-opacity:1;fill-rule:nonzero;stroke:none"
     d="m 98.031,58.802 c -0.552,-0.422 -0.13,-2.704 0.188,-2.75 0.312,-0.047 0.093,0.693 0.448,0.656 0.353,-0.036 0.421,-0.536 0.65,-0.495 0.246,0.041 0.068,0.625 0.37,0.615 0.13,0 0.496,-0.474 0.666,-0.386 0.152,0.079 0.204,0.599 0.319,0.667 0.187,0.104 0.411,-0.464 0.577,-0.391 0.418,0.199 -0.921,2.558 -1.156,2.61 -0.349,0.073 -1.166,0.161 -2.062,-0.526"
     id="path437" />
  <path
     style="fill:none;stroke:#231f20;stroke-width:0.565977;stroke-linecap:round;stroke-linejoin:round;stroke-miterlimit:4;stroke-dasharray:none;stroke-opacity:1"
     d="m 98.031,58.802 c -0.552,-0.422 -0.13,-2.704 0.188,-2.75 0.312,-0.047 0.093,0.693 0.448,0.656 0.353,-0.036 0.421,-0.536 0.65,-0.495 0.246,0.041 0.068,0.625 0.37,0.615 0.13,0 0.496,-0.474 0.666,-0.386 0.152,0.079 0.204,0.599 0.319,0.667 0.187,0.104 0.411,-0.464 0.577,-0.391 0.418,0.199 -0.921,2.558 -1.156,2.61 -0.349,0.073 -1.166,0.161 -2.062,-0.526 z"
     id="path438" />
  <path
     style="fill:#ca0369;fill-opacity:1;fill-rule:nonzero;stroke:none"
     d="m 158.235,61.838 c -1.204,2.896 -1.782,3.386 -2.443,4.027 -4.136,4.036 -2.079,5.989 0.739,6.599 3.318,0.718 4.489,1.041 6.344,-4.975 0.516,-1.672 3.333,-7.833 3.333,-7.833 1.308,-2.068 1.475,-4.782 0.677,-6 -0.844,-1.287 -0.598,-0.719 -1.598,-1.766 -0.948,-0.994 -3.047,-1.593 -4.079,-0.906 -0.989,0.657 -0.896,2.324 -1.093,4.74 -0.147,1.906 -1.88,6.114 -1.88,6.114"
     id="path439" />
  <path
     style="fill:none;stroke:#231f20;stroke-width:0.565977;stroke-linecap:butt;stroke-linejoin:miter;stroke-miterlimit:4;stroke-dasharray:none;stroke-opacity:1"
     d="m 158.235,61.838 c -1.204,2.896 -1.782,3.386 -2.443,4.027 -4.136,4.036 -2.079,5.989 0.739,6.599 3.318,0.718 4.489,1.041 6.344,-4.975 0.516,-1.672 3.333,-7.833 3.333,-7.833 1.308,-2.068 1.475,-4.782 0.677,-6 -0.844,-1.287 -0.598,-0.719 -1.598,-1.766 -0.948,-0.994 -3.047,-1.593 -4.079,-0.906 -0.989,0.657 -0.896,2.324 -1.093,4.74 -0.147,1.906 -1.88,6.114 -1.88,6.114 z"
     id="path440" />
  <path
     style="fill:#231f20;fill-opacity:1;fill-rule:nonzero;stroke:none"
     d="m 163.577,52.145 c 1.256,0.073 2.215,1.115 2.142,2.329 -0.074,1.208 -1.131,3.083 -2.386,3.004 -1.256,-0.072 -2.234,-2.066 -2.161,-3.28 0.072,-1.209 1.151,-2.13 2.405,-2.053"
     id="path441" />
  <path
     style="fill:none;stroke:#231f20;stroke-width:0.237045;stroke-linecap:butt;stroke-linejoin:miter;stroke-miterlimit:4;stroke-dasharray:none;stroke-opacity:1"
     d="m 163.577,52.145 c 1.256,0.073 2.215,1.115 2.142,2.329 -0.074,1.208 -1.131,3.083 -2.386,3.004 -1.256,-0.072 -2.234,-2.066 -2.161,-3.28 0.072,-1.209 1.151,-2.13 2.405,-2.053 z"
     id="path442" />
  <path
     style="fill:#231f20;fill-opacity:1;fill-rule:nonzero;stroke:none"
     d="m 141.557,103.103 c -0.656,-1.182 -0.01,-1.937 1.011,-2.109 0.307,-0.047 0.515,-0.411 0.817,-0.432 0.703,-0.063 1.99,1.115 1.287,2.432 -0.052,0.099 -0.204,0.901 -0.412,1.489 -0.401,1.142 -1.765,3.23 -4.407,3.762 -1.254,0.26 -1.17,-0.527 -0.697,-0.782 1.505,-0.813 1.484,-1.182 1.797,-1.532 1.088,-1.208 0.604,-2.828 0.604,-2.828"
     id="path443" />
  <path
     style="fill:none;stroke:#231f20;stroke-width:0.332927;stroke-linecap:butt;stroke-linejoin:miter;stroke-miterlimit:4;stroke-dasharray:none;stroke-opacity:1"
     d="m 141.557,103.103 c -0.656,-1.182 -0.01,-1.937 1.011,-2.109 0.307,-0.047 0.515,-0.411 0.817,-0.432 0.703,-0.063 1.99,1.115 1.287,2.432 -0.052,0.099 -0.204,0.901 -0.412,1.489 -0.401,1.142 -1.765,3.23 -4.407,3.762 -1.254,0.26 -1.17,-0.527 -0.697,-0.782 1.505,-0.813 1.484,-1.182 1.797,-1.532 1.088,-1.208 0.604,-2.828 0.604,-2.828 z"
     id="path444" />
  <path
     style="fill:#231f20;fill-opacity:1;fill-rule:nonzero;stroke:none"
     d="m 150.625,86.698 c -1.933,-1.182 -2.469,-1.152 -3.021,-0.365 -0.364,0.516 -0.891,0.875 -1.125,1.183 -0.802,1.02 -1.724,3.068 -2.818,9.562 -0.245,1.474 -0.604,3.536 -0.817,4.364 -0.344,1.317 2.072,0.989 2.208,0.479 0.448,-1.656 0.891,-2.76 1.131,-3.333 0.166,-0.395 0.369,-1.13 1.208,-2.567 1.276,-2.183 2.358,-3.297 3.208,-5.235 0.396,-0.901 1.265,-1.328 1.202,-2.412 -0.061,-1.082 -1.176,-1.676 -1.176,-1.676"
     id="path445" />
  <path
     style="fill:none;stroke:#231f20;stroke-width:0.565977;stroke-linecap:butt;stroke-linejoin:miter;stroke-miterlimit:4;stroke-dasharray:none;stroke-opacity:1"
     d="m 150.625,86.698 c -1.933,-1.182 -2.469,-1.152 -3.021,-0.365 -0.364,0.516 -0.891,0.875 -1.125,1.183 -0.802,1.02 -1.724,3.068 -2.818,9.562 -0.245,1.474 -0.604,3.536 -0.817,4.364 -0.344,1.317 2.072,0.989 2.208,0.479 0.448,-1.656 0.891,-2.76 1.131,-3.333 0.166,-0.395 0.369,-1.13 1.208,-2.567 1.276,-2.183 2.358,-3.297 3.208,-5.235 0.396,-0.901 1.265,-1.328 1.202,-2.412 -0.061,-1.082 -1.176,-1.676 -1.176,-1.676 z"
     id="path446" />
  <path
     style="fill:#ffffff;fill-opacity:1;fill-rule:nonzero;stroke:none"
     d="m 168.812,46.369 c 0.084,-0.224 1.224,-0.124 1.313,-0.64 0.083,-0.516 -0.636,-0.839 -1.182,-2.755 l -0.006,-0.016 c -0.354,-1.412 -1.229,-2.494 -2.442,-2.792 -2.016,-0.505 -4.203,1.312 -4.886,4.052 -0.682,2.74 0.396,5.366 2.411,5.871 1.928,0.479 4.016,-1.168 4.792,-3.72"
     id="path447" />
  <path
     style="fill:none;stroke:#231f20;stroke-width:0.565977;stroke-linecap:butt;stroke-linejoin:miter;stroke-miterlimit:4;stroke-dasharray:none;stroke-opacity:1"
     d="m 168.812,46.369 c 0.084,-0.224 1.224,-0.124 1.313,-0.64 0.083,-0.516 -0.636,-0.839 -1.182,-2.755 l -0.006,-0.016 c -0.354,-1.412 -1.229,-2.494 -2.442,-2.792 -2.016,-0.505 -4.203,1.312 -4.886,4.052 -0.682,2.74 0.396,5.366 2.411,5.871 1.928,0.479 4.016,-1.168 4.792,-3.72 z"
     id="path448" />
  <path
     style="fill:#231f20;fill-opacity:1;fill-rule:nonzero;stroke:none"
     d="m 148.885,88.453 c 3.235,2.375 3.922,-1.645 4.208,-2.031 2.984,-4.021 3.099,-4.386 5.156,-7.61 2.98,-4.656 4.298,-8.302 2.1,-10.828 -1.5,-1.708 -3.105,-2.047 -4.344,-1.61 -1.374,0.491 -3.542,2.814 -2.813,5.604 l -0.5,1.642 c -0.479,1.057 -0.713,1.588 -0.995,2.088 -0.484,0.88 -0.948,1.849 -1.801,3.609 -1.505,3.125 -2.079,6.928 -2.079,6.928 -0.51,1.129 1.068,2.208 1.068,2.208"
     id="path449" />
  <path
     style="fill:none;stroke:#231f20;stroke-width:0.565977;stroke-linecap:butt;stroke-linejoin:miter;stroke-miterlimit:4;stroke-dasharray:none;stroke-opacity:1"
     d="m 148.885,88.453 c 3.235,2.375 3.922,-1.645 4.208,-2.031 2.984,-4.021 3.099,-4.386 5.156,-7.61 2.98,-4.656 4.298,-8.302 2.1,-10.828 -1.5,-1.708 -3.105,-2.047 -4.344,-1.61 -1.374,0.491 -3.542,2.814 -2.813,5.604 l -0.5,1.642 c -0.479,1.057 -0.713,1.588 -0.995,2.088 -0.484,0.88 -0.948,1.849 -1.801,3.609 -1.505,3.125 -2.079,6.928 -2.079,6.928 -0.51,1.129 1.068,2.208 1.068,2.208 z"
     id="path450" />
  <path
     style="fill:#ca0369;fill-opacity:1;fill-rule:nonzero;stroke:none"
     d="m 160.349,67.984 c -1.5,-1.708 -3.105,-2.047 -4.344,-1.61 -1.374,0.491 -3.546,2.814 -2.813,5.604 l 6.699,4.027 c 0.301,-0.579 0.552,-1.136 0.77,-1.677 0.052,-0.063 0.11,-0.12 0.162,-0.167 0.609,-0.525 0.593,-1.156 0.521,-2.187 0.239,-1.537 -0.027,-2.876 -0.995,-3.99"
     id="path451" />
  <path
     style="fill:none;stroke:#231f20;stroke-width:0.565977;stroke-linecap:butt;stroke-linejoin:miter;stroke-miterlimit:4;stroke-dasharray:none;stroke-opacity:1"
     d="m 160.349,67.984 c -1.5,-1.708 -3.105,-2.047 -4.344,-1.61 -1.374,0.491 -3.546,2.814 -2.813,5.604 l 6.699,4.027 c 0.301,-0.579 0.552,-1.136 0.77,-1.677 0.052,-0.063 0.11,-0.12 0.162,-0.167 0.609,-0.525 0.593,-1.156 0.521,-2.187 0.239,-1.537 -0.027,-2.876 -0.995,-3.99 z"
     id="path452" />
  <path
     style="fill:#ffffff;fill-opacity:1;fill-rule:nonzero;stroke:none"
     d="m 163.115,48.245 h 1.333 V 16.719 h -1.333 z"
     id="path453" />
  <path
     style="fill:none;stroke:#231f20;stroke-width:0.665856;stroke-linecap:butt;stroke-linejoin:miter;stroke-miterlimit:4;stroke-dasharray:none;stroke-opacity:1"
     d="m 163.12,48.245 h 1.328 V 16.719 h -1.328 z"
     id="path454" />
  <path
     style="fill:#ffffff;fill-opacity:1;fill-rule:nonzero;stroke:none"
     d="m 163.375,57.448 c -2.355,0 -4.271,-1.916 -4.271,-4.271 0,-2.355 1.916,-4.265 4.271,-4.265 2.354,0 4.265,1.91 4.265,4.265 0,2.355 -1.911,4.271 -4.265,4.271 m 0,-9.87 c -3.088,0 -5.599,2.511 -5.599,5.599 0,3.088 2.511,5.604 5.599,5.604 3.088,0 5.598,-2.516 5.598,-5.604 0,-3.088 -2.51,-5.599 -5.598,-5.599"
     id="path455" />
  <path
     style="fill:none;stroke:#231f20;stroke-width:0.665856;stroke-linecap:butt;stroke-linejoin:miter;stroke-miterlimit:4;stroke-dasharray:none;stroke-opacity:1"
     d="m 163.375,57.448 c -2.355,0 -4.271,-1.916 -4.271,-4.271 0,-2.355 1.916,-4.265 4.271,-4.265 2.354,0 4.265,1.91 4.265,4.265 0,2.355 -1.911,4.271 -4.265,4.271 z m 0,-9.87 c -3.088,0 -5.599,2.511 -5.599,5.599 0,3.088 2.511,5.604 5.599,5.604 3.088,0 5.598,-2.516 5.598,-5.604 0,-3.088 -2.51,-5.599 -5.598,-5.599 z"
     id="path456" />
  <path
     style="fill:#231f20;fill-opacity:1;fill-rule:nonzero;stroke:#231f20;stroke-width:0.332927;stroke-linecap:round;stroke-linejoin:round;stroke-miterlimit:4;stroke-dasharray:none;stroke-opacity:1"
     d="m 164.536,56.63 c 0.656,0.239 0.943,2.531 0.656,2.678 -0.285,0.14 -0.296,-0.631 -0.624,-0.486 -0.328,0.142 -0.24,0.631 -0.469,0.667 -0.25,0.032 -0.255,-0.572 -0.542,-0.473 -0.125,0.041 -0.322,0.598 -0.516,0.568 -0.166,-0.032 -0.374,-0.506 -0.505,-0.538 -0.208,-0.046 -0.255,0.563 -0.432,0.542 -0.459,-0.056 0.099,-2.714 0.307,-2.832"
     id="path457" />
</svg>
