<?xml version="1.0" encoding="UTF-8" standalone="no"?>
<!-- Created with Inkscape (http://www.inkscape.org/) -->

<svg
   version="1.1"
   id="svg1"
   width="360.46698"
   height="138.84448"
   viewBox="0 0 360.46697 138.84448"
   sodipodi:docname="cell.svg"
   xmlns:inkscape="http://www.inkscape.org/namespaces/inkscape"
   xmlns:sodipodi="http://sodipodi.sourceforge.net/DTD/sodipodi-0.dtd"
   xmlns="http://www.w3.org/2000/svg"
   xmlns:svg="http://www.w3.org/2000/svg">
  <sodipodi:namedview
     id="namedview1"
     pagecolor="#ffffff"
     bordercolor="#000000"
     borderopacity="0.25"
     inkscape:showpageshadow="2"
     inkscape:pageopacity="0.0"
     inkscape:pagecheckerboard="0"
     inkscape:deskcolor="#d1d1d1">
    <inkscape:page
       x="3.2260053e-14"
       y="7.6870361e-14"
       inkscape:label="1"
       id="page1"
       width="360.46698"
       height="138.84448"
       margin="0"
       bleed="0" />
  </sodipodi:namedview>
  <defs
     id="defs1" />
  <path
     style="fill:#ffffff;fill-opacity:1;fill-rule:nonzero;stroke:none"
     d="M 0,18.874 H 18.874 V 0 H 0 Z"
     id="path515" />
  <path
     style="fill:#ffffff;fill-opacity:1;fill-rule:nonzero;stroke:none"
     d="m 343.537,18.874 h 16.93 V 0 h -16.93 z"
     id="path516" />
  <path
     style="fill:#231f20;fill-opacity:1;fill-rule:nonzero;stroke:none"
     d="m 52.166,132.978 c -1.072,-0.828 -0.781,-1.776 0.09,-2.337 0.26,-0.172 0.306,-0.584 0.577,-0.73 0.615,-0.333 2.272,0.23 2.147,1.73 -0.006,0.104 0.177,0.9 0.218,1.52 0.088,1.208 -0.333,3.672 -2.546,5.213 -1.047,0.729 -1.282,-0.025 -0.948,-0.448 1.057,-1.343 0.885,-1.672 1.041,-2.119 0.511,-1.542 -0.579,-2.829 -0.579,-2.829"
     id="path517" />
  <path
     style="fill:none;stroke:#231f20;stroke-width:0.332927;stroke-linecap:butt;stroke-linejoin:miter;stroke-miterlimit:4;stroke-dasharray:none;stroke-opacity:1"
     d="m 52.166,132.978 c -1.072,-0.828 -0.781,-1.776 0.09,-2.337 0.26,-0.172 0.306,-0.584 0.577,-0.73 0.615,-0.333 2.272,0.23 2.147,1.73 -0.006,0.104 0.177,0.9 0.218,1.52 0.088,1.208 -0.333,3.672 -2.546,5.213 -1.047,0.729 -1.282,-0.025 -0.948,-0.448 1.057,-1.343 0.885,-1.672 1.041,-2.119 0.511,-1.542 -0.579,-2.829 -0.579,-2.829 z"
     id="path518" />
  <path
     style="fill:#231f20;fill-opacity:1;fill-rule:nonzero;stroke:none"
     d="m 53.948,114.311 c -2.239,-0.312 -2.724,-0.066 -2.916,0.866 -0.131,0.625 -0.464,1.161 -0.563,1.541 -0.323,1.256 -0.355,3.5 1.229,9.891 0.359,1.448 0.854,3.489 0.99,4.333 0.208,1.339 2.292,0.084 2.213,-0.448 -0.244,-1.692 -0.281,-2.885 -0.292,-3.505 0,-0.427 -0.109,-1.182 0.089,-2.834 0.296,-2.51 0.85,-3.968 0.859,-6.082 0,-0.98 0.625,-1.719 0.141,-2.688 -0.489,-0.968 -1.75,-1.074 -1.75,-1.074"
     id="path519" />
  <path
     style="fill:none;stroke:#231f20;stroke-width:0.565977;stroke-linecap:butt;stroke-linejoin:miter;stroke-miterlimit:4;stroke-dasharray:none;stroke-opacity:1"
     d="m 53.948,114.311 c -2.239,-0.312 -2.724,-0.066 -2.916,0.866 -0.131,0.625 -0.464,1.161 -0.563,1.541 -0.323,1.256 -0.355,3.5 1.229,9.891 0.359,1.448 0.854,3.489 0.99,4.333 0.208,1.339 2.292,0.084 2.213,-0.448 -0.244,-1.692 -0.281,-2.885 -0.292,-3.505 0,-0.427 -0.109,-1.182 0.089,-2.834 0.296,-2.51 0.85,-3.968 0.859,-6.082 0,-0.98 0.625,-1.719 0.141,-2.688 -0.489,-0.968 -1.75,-1.074 -1.75,-1.074 z"
     id="path520" />
  <path
     style="fill:#ca0369;fill-opacity:1;fill-rule:nonzero;stroke:none"
     d="m 51.026,88.484 c 0.047,3.136 -0.286,3.813 -0.636,4.661 -2.186,5.355 0.48,6.329 3.308,5.761 3.328,-0.661 4.531,-0.833 3.839,-7.089 -0.193,-1.739 -0.063,-8.515 -0.063,-8.515 0.37,-2.417 -0.557,-4.974 -1.77,-5.776 -1.287,-0.838 -0.839,-0.412 -2.167,-0.974 -1.265,-0.542 -3.432,-0.25 -4.109,0.792 -0.642,0.994 0.104,2.489 0.89,4.781 0.62,1.807 0.708,6.359 0.708,6.359"
     id="path521" />
  <path
     style="fill:none;stroke:#231f20;stroke-width:0.565977;stroke-linecap:butt;stroke-linejoin:miter;stroke-miterlimit:4;stroke-dasharray:none;stroke-opacity:1"
     d="m 51.026,88.484 c 0.047,3.136 -0.286,3.813 -0.636,4.661 -2.186,5.355 0.48,6.329 3.308,5.761 3.328,-0.661 4.531,-0.833 3.839,-7.089 -0.193,-1.739 -0.063,-8.515 -0.063,-8.515 0.37,-2.417 -0.557,-4.974 -1.77,-5.776 -1.287,-0.838 -0.839,-0.412 -2.167,-0.974 -1.265,-0.542 -3.432,-0.25 -4.109,0.792 -0.642,0.994 0.104,2.489 0.89,4.781 0.62,1.807 0.708,6.359 0.708,6.359 z"
     id="path522" />
  <path
     style="fill:#ffffff;fill-opacity:1;fill-rule:nonzero;stroke:none"
     d="m 56.704,72.854 c 0.114,-0.209 1.234,0.047 1.39,-0.453 0.156,-0.5 -0.516,-0.917 -0.792,-2.891 v -0.021 c -0.156,-1.448 -0.874,-2.635 -2.036,-3.099 -1.928,-0.781 -4.344,0.714 -5.396,3.334 -1.057,2.62 -0.349,5.374 1.578,6.15 1.838,0.74 4.136,-0.604 5.256,-3.02"
     id="path523" />
  <path
     style="fill:none;stroke:#231f20;stroke-width:0.565977;stroke-linecap:butt;stroke-linejoin:miter;stroke-miterlimit:4;stroke-dasharray:none;stroke-opacity:1"
     d="m 56.704,72.854 c 0.114,-0.209 1.234,0.047 1.39,-0.453 0.156,-0.5 -0.516,-0.917 -0.792,-2.891 v -0.021 c -0.156,-1.448 -0.874,-2.635 -2.036,-3.099 -1.928,-0.781 -4.344,0.714 -5.396,3.334 -1.057,2.62 -0.349,5.374 1.578,6.15 1.838,0.74 4.136,-0.604 5.256,-3.02 z"
     id="path524" />
  <path
     style="fill:#231f20;fill-opacity:1;fill-rule:nonzero;stroke:none"
     d="m 53.052,116.619 c 3.917,0.891 2.942,-3.078 3.053,-3.541 1.135,-4.876 1.093,-5.256 1.697,-9.032 0.875,-5.458 0.636,-9.328 -2.39,-10.765 -2.052,-0.973 -3.656,-0.645 -4.62,0.251 -1.068,0.994 -2.131,3.994 -0.35,6.26 l 0.194,1.702 c -0.022,1.161 -0.022,1.74 -0.079,2.313 -0.099,1 -0.135,2.072 -0.213,4.031 -0.14,3.464 0.849,7.183 0.849,7.183 -0.016,1.238 1.859,1.598 1.859,1.598"
     id="path525" />
  <path
     style="fill:none;stroke:#231f20;stroke-width:0.565977;stroke-linecap:butt;stroke-linejoin:miter;stroke-miterlimit:4;stroke-dasharray:none;stroke-opacity:1"
     d="m 53.052,116.619 c 3.917,0.891 2.942,-3.078 3.053,-3.541 1.135,-4.876 1.093,-5.256 1.697,-9.032 0.875,-5.458 0.636,-9.328 -2.39,-10.765 -2.052,-0.973 -3.656,-0.645 -4.62,0.251 -1.068,0.994 -2.131,3.994 -0.35,6.26 l 0.194,1.702 c -0.022,1.161 -0.022,1.74 -0.079,2.313 -0.099,1 -0.135,2.072 -0.213,4.031 -0.14,3.464 0.849,7.183 0.849,7.183 -0.016,1.238 1.859,1.598 1.859,1.598 z"
     id="path526" />
  <path
     style="fill:#ca0369;fill-opacity:1;fill-rule:nonzero;stroke:none"
     d="m 57.917,96.536 c -0.396,-1.504 -1.172,-2.624 -2.505,-3.255 -2.058,-0.973 -3.656,-0.645 -4.626,0.251 -1.062,0.994 -2.125,3.989 -0.344,6.265 l 7.751,1.02 c 0.047,-0.651 0.052,-1.26 0.036,-1.843 0.021,-0.078 0.047,-0.157 0.079,-0.218 0.349,-0.724 0.082,-1.298 -0.391,-2.22"
     id="path527" />
  <path
     style="fill:none;stroke:#231f20;stroke-width:0.565977;stroke-linecap:butt;stroke-linejoin:miter;stroke-miterlimit:4;stroke-dasharray:none;stroke-opacity:1"
     d="m 57.917,96.536 c -0.396,-1.504 -1.172,-2.624 -2.505,-3.255 -2.058,-0.973 -3.656,-0.645 -4.626,0.251 -1.062,0.994 -2.125,3.989 -0.344,6.265 l 7.751,1.02 c 0.047,-0.651 0.052,-1.26 0.036,-1.843 0.021,-0.078 0.047,-0.157 0.079,-0.218 0.349,-0.724 0.082,-1.298 -0.391,-2.22 z"
     id="path528" />
  <path
     style="fill:#231f20;fill-opacity:1;fill-rule:nonzero;stroke:none"
     d="m 53.469,58.254 c 0.375,0.527 0.188,2.464 0.656,4 0.317,1.043 -0.02,3.762 0.375,4.778 0.36,0.926 0.442,1.38 -0.547,1.978 -0.583,0.35 -1.937,0.651 -2.224,0.224 -0.656,-0.989 -0.833,-1.922 -0.807,-2.989 0.026,-1.213 0.402,-4.505 0.526,-5.104 0.313,-1.491 -0.015,-2.152 0.032,-2.557 0.082,-0.751 0.396,-0.907 0.896,-0.959 0.952,-0.099 1.093,0.629 1.093,0.629"
     id="path529" />
  <path
     style="fill:none;stroke:#231f20;stroke-width:0.565977;stroke-linecap:butt;stroke-linejoin:miter;stroke-miterlimit:4;stroke-dasharray:none;stroke-opacity:1"
     d="m 53.469,58.254 c 0.375,0.527 0.188,2.464 0.656,4 0.317,1.043 -0.02,3.762 0.375,4.778 0.36,0.926 0.442,1.38 -0.547,1.978 -0.583,0.35 -1.937,0.651 -2.224,0.224 -0.656,-0.989 -0.833,-1.922 -0.807,-2.989 0.026,-1.213 0.402,-4.505 0.526,-5.104 0.313,-1.491 -0.015,-2.152 0.032,-2.557 0.082,-0.751 0.396,-0.907 0.896,-0.959 0.952,-0.099 1.093,0.629 1.093,0.629 z"
     id="path530" />
  <path
     style="fill:#231f20;fill-opacity:1;fill-rule:nonzero;stroke:none"
     d="m 53.89,67.308 c 1.287,0.082 0.798,2.057 0.74,2.593 -0.046,0.541 -0.021,2.099 0.151,3.307 0.183,1.214 -0.115,2.802 0.219,5.104 0.177,1.209 -0.422,2.5 -2.187,2.672 -1.745,0.177 -2.505,-0.734 -2.495,-2.228 0.01,-1.502 0.651,-2.896 0.76,-4.407 0.12,-1.511 0.094,-3.057 0.016,-4.265 -0.084,-1.382 0.386,-2.095 0.807,-2.308 1.073,-0.536 1.989,-0.468 1.989,-0.468"
     id="path531" />
  <path
     style="fill:none;stroke:#231f20;stroke-width:0.565977;stroke-linecap:butt;stroke-linejoin:miter;stroke-miterlimit:4;stroke-dasharray:none;stroke-opacity:1"
     d="m 53.89,67.308 c 1.287,0.082 0.798,2.057 0.74,2.593 -0.046,0.541 -0.021,2.099 0.151,3.307 0.183,1.214 -0.115,2.802 0.219,5.104 0.177,1.209 -0.422,2.5 -2.187,2.672 -1.745,0.177 -2.505,-0.734 -2.495,-2.228 0.01,-1.502 0.651,-2.896 0.76,-4.407 0.12,-1.511 0.094,-3.057 0.016,-4.265 -0.084,-1.382 0.386,-2.095 0.807,-2.308 1.073,-0.536 1.989,-0.468 1.989,-0.468 z"
     id="path532" />
  <path
     style="fill:#ffffff;fill-opacity:1;fill-rule:nonzero;stroke:#231f20;stroke-width:0.665856;stroke-linecap:butt;stroke-linejoin:miter;stroke-miterlimit:4;stroke-dasharray:none;stroke-opacity:1"
     d="m 51.286,47.557 h 1.328 V 15.879 h -1.328 z"
     id="path533" />
  <path
     style="fill:#ffffff;fill-opacity:1;fill-rule:nonzero;stroke:none"
     d="m 48.089,52.494 c 0,-2.353 1.916,-4.27 4.271,-4.27 2.354,0 4.27,1.917 4.27,4.27 0,2.355 -1.916,4.266 -4.27,4.266 -2.355,0 -4.271,-1.911 -4.271,-4.266 m -1.328,0 c 0,3.09 2.511,5.599 5.599,5.599 3.088,0 5.598,-2.509 5.598,-5.599 0,-3.088 -2.51,-5.604 -5.598,-5.604 -3.088,0 -5.599,2.516 -5.599,5.604"
     id="path534" />
  <path
     style="fill:none;stroke:#231f20;stroke-width:0.665856;stroke-linecap:butt;stroke-linejoin:miter;stroke-miterlimit:4;stroke-dasharray:none;stroke-opacity:1"
     d="m 48.089,52.494 c 0,-2.353 1.916,-4.27 4.271,-4.27 2.354,0 4.27,1.917 4.27,4.27 0,2.355 -1.916,4.266 -4.27,4.266 -2.355,0 -4.271,-1.911 -4.271,-4.266 z m -1.328,0 c 0,3.09 2.511,5.599 5.599,5.599 3.088,0 5.598,-2.509 5.598,-5.599 0,-3.088 -2.51,-5.604 -5.598,-5.604 -3.088,0 -5.599,2.516 -5.599,5.604 z"
     id="path535" />
  <path
     style="fill:#231f20;fill-opacity:1;fill-rule:nonzero;stroke:none"
     d="m 205.651,62.464 c -0.568,1.229 -1.557,1.156 -2.302,0.432 -0.219,-0.214 -0.635,-0.172 -0.834,-0.396 -0.458,-0.531 -0.281,-2.266 1.203,-2.484 0.111,-0.016 0.844,-0.371 1.439,-0.547 1.161,-0.36 3.656,-0.495 5.645,1.323 0.948,0.853 0.271,1.254 -0.219,1.02 -1.541,-0.734 -1.828,-0.495 -2.302,-0.542 -1.615,-0.161 -2.63,1.194 -2.63,1.194"
     id="path536" />
  <path
     style="fill:none;stroke:#231f20;stroke-width:0.332927;stroke-linecap:butt;stroke-linejoin:miter;stroke-miterlimit:4;stroke-dasharray:none;stroke-opacity:1"
     d="m 205.651,62.464 c -0.568,1.229 -1.557,1.156 -2.302,0.432 -0.219,-0.214 -0.635,-0.172 -0.834,-0.396 -0.458,-0.531 -0.281,-2.266 1.203,-2.484 0.111,-0.016 0.844,-0.371 1.439,-0.547 1.161,-0.36 3.656,-0.495 5.645,1.323 0.948,0.853 0.271,1.254 -0.219,1.02 -1.541,-0.734 -1.828,-0.495 -2.302,-0.542 -1.615,-0.161 -2.63,1.194 -2.63,1.194 z"
     id="path537" />
  <path
     style="fill:#231f20;fill-opacity:1;fill-rule:nonzero;stroke:none"
     d="m 187.057,64.88 c 0.198,2.256 0.542,2.666 1.5,2.652 0.636,-0.011 1.229,0.197 1.62,0.202 1.297,0.042 3.489,-0.426 9.374,-3.401 1.33,-0.672 3.21,-1.604 4,-1.921 1.262,-0.506 -0.432,-2.256 -0.926,-2.058 -1.594,0.615 -2.75,0.911 -3.354,1.058 -0.412,0.098 -1.125,0.369 -2.781,0.552 -2.516,0.26 -4.063,0.052 -6.12,0.514 -0.959,0.215 -1.819,-0.233 -2.656,0.459 -0.833,0.693 -0.657,1.943 -0.657,1.943"
     id="path538" />
  <path
     style="fill:none;stroke:#231f20;stroke-width:0.565977;stroke-linecap:butt;stroke-linejoin:miter;stroke-miterlimit:4;stroke-dasharray:none;stroke-opacity:1"
     d="m 187.057,64.88 c 0.198,2.256 0.542,2.666 1.5,2.652 0.636,-0.011 1.229,0.197 1.62,0.202 1.297,0.042 3.489,-0.426 9.374,-3.401 1.33,-0.672 3.21,-1.604 4,-1.921 1.262,-0.506 -0.432,-2.256 -0.926,-2.058 -1.594,0.615 -2.75,0.911 -3.354,1.058 -0.412,0.098 -1.125,0.369 -2.781,0.552 -2.516,0.26 -4.063,0.052 -6.12,0.514 -0.959,0.215 -1.819,-0.233 -2.656,0.459 -0.833,0.693 -0.657,1.943 -0.657,1.943 z"
     id="path539" />
  <path
     style="fill:#ca0369;fill-opacity:1;fill-rule:nonzero;stroke:none"
     d="m 161.562,71.724 c 3.131,-0.115 3.813,0.202 4.672,0.53 5.396,2.074 6.313,-0.613 5.688,-3.432 -0.735,-3.306 -0.932,-4.51 -7.172,-3.677 -1.74,0.235 -8.516,0.251 -8.516,0.251 -2.416,-0.323 -4.959,0.661 -5.729,1.89 -0.812,1.302 -0.396,0.85 -0.938,2.192 -0.505,1.278 -0.166,3.439 0.886,4.084 1.016,0.626 2.485,-0.156 4.761,-0.989 1.796,-0.661 6.348,-0.849 6.348,-0.849"
     id="path540" />
  <path
     style="fill:none;stroke:#231f20;stroke-width:0.565977;stroke-linecap:butt;stroke-linejoin:miter;stroke-miterlimit:4;stroke-dasharray:none;stroke-opacity:1"
     d="m 161.562,71.724 c 3.131,-0.115 3.813,0.202 4.672,0.53 5.396,2.074 6.313,-0.613 5.688,-3.432 -0.735,-3.306 -0.932,-4.51 -7.172,-3.677 -1.74,0.235 -8.516,0.251 -8.516,0.251 -2.416,-0.323 -4.959,0.661 -5.729,1.89 -0.812,1.302 -0.396,0.85 -0.938,2.192 -0.505,1.278 -0.166,3.439 0.886,4.084 1.016,0.626 2.485,-0.156 4.761,-0.989 1.796,-0.661 6.348,-0.849 6.348,-0.849 z"
     id="path541" />
  <path
     style="fill:#ffffff;fill-opacity:1;fill-rule:nonzero;stroke:none"
     d="m 141.729,69.76 c -0.224,0.114 -1,-0.728 -1.411,-0.406 -0.407,0.328 -0.089,1.047 -0.975,2.834 l -0.01,0.014 c -0.687,1.282 -0.766,2.667 -0.072,3.71 1.15,1.729 3.994,1.864 6.344,0.29 2.342,-1.572 3.317,-4.238 2.161,-5.968 -1.1,-1.65 -3.756,-1.838 -6.037,-0.474"
     id="path542" />
  <path
     style="fill:none;stroke:#231f20;stroke-width:0.565977;stroke-linecap:butt;stroke-linejoin:miter;stroke-miterlimit:4;stroke-dasharray:none;stroke-opacity:1"
     d="m 141.729,69.76 c -0.224,0.114 -1,-0.728 -1.411,-0.406 -0.407,0.328 -0.089,1.047 -0.975,2.834 l -0.01,0.014 c -0.687,1.282 -0.766,2.667 -0.072,3.71 1.15,1.729 3.994,1.864 6.344,0.29 2.342,-1.572 3.317,-4.238 2.161,-5.968 -1.1,-1.65 -3.756,-1.838 -6.037,-0.474 z"
     id="path543" />
  <path
     style="fill:#231f20;fill-opacity:1;fill-rule:nonzero;stroke:none"
     d="m 189.505,65.24 c 0,-4.016 -3.646,-2.183 -4.124,-2.188 -5.011,-0.026 -5.376,0.104 -9.188,0.354 -5.516,0.364 -9.235,1.459 -9.964,4.73 -0.495,2.224 0.182,3.713 1.276,4.448 1.204,0.822 4.365,1.192 6.182,-1.052 l 1.615,-0.568 c 1.136,-0.24 1.703,-0.371 2.271,-0.438 1,-0.125 2.052,-0.333 3.978,-0.688 3.412,-0.636 6.814,-2.432 6.814,-2.432 1.213,-0.256 1.14,-2.166 1.14,-2.166"
     id="path544" />
  <path
     style="fill:none;stroke:#231f20;stroke-width:0.565977;stroke-linecap:butt;stroke-linejoin:miter;stroke-miterlimit:4;stroke-dasharray:none;stroke-opacity:1"
     d="m 189.505,65.24 c 0,-4.016 -3.646,-2.183 -4.124,-2.188 -5.011,-0.026 -5.376,0.104 -9.188,0.354 -5.516,0.364 -9.235,1.459 -9.964,4.73 -0.495,2.224 0.182,3.713 1.276,4.448 1.204,0.822 4.365,1.192 6.182,-1.052 l 1.615,-0.568 c 1.136,-0.24 1.703,-0.371 2.271,-0.438 1,-0.125 2.052,-0.333 3.978,-0.688 3.412,-0.636 6.814,-2.432 6.814,-2.432 1.213,-0.256 1.14,-2.166 1.14,-2.166 z"
     id="path545" />
  <path
     style="fill:#ca0369;fill-opacity:1;fill-rule:nonzero;stroke:none"
     d="m 167.505,72.584 c 1.204,0.822 4.365,1.192 6.182,-1.052 l -0.724,-7.782 c -0.65,0.099 -1.249,0.228 -1.817,0.375 -0.079,-0.005 -0.156,-0.016 -0.229,-0.032 -0.782,-0.181 -1.276,0.204 -2.068,0.876 -1.38,0.719 -2.302,1.724 -2.62,3.167 -0.495,2.218 0.182,3.713 1.276,4.448"
     id="path546" />
  <path
     style="fill:none;stroke:#231f20;stroke-width:0.565977;stroke-linecap:butt;stroke-linejoin:miter;stroke-miterlimit:4;stroke-dasharray:none;stroke-opacity:1"
     d="m 167.505,72.584 c 1.204,0.822 4.365,1.192 6.182,-1.052 l -0.724,-7.782 c -0.65,0.099 -1.249,0.228 -1.817,0.375 -0.079,-0.005 -0.156,-0.016 -0.229,-0.032 -0.782,-0.181 -1.276,0.204 -2.068,0.876 -1.38,0.719 -2.302,1.724 -2.62,3.167 -0.495,2.218 0.182,3.713 1.276,4.448 z"
     id="path547" />
  <path
     style="fill:#ffffff;fill-opacity:1;fill-rule:nonzero;stroke:none"
     d="m 170.401,47.708 h 1.333 V 16.036 h -1.333 z"
     id="path548" />
  <path
     style="fill:none;stroke:#231f20;stroke-width:0.665856;stroke-linecap:butt;stroke-linejoin:miter;stroke-miterlimit:4;stroke-dasharray:none;stroke-opacity:1"
     d="m 170.406,47.708 h 1.328 V 16.036 h -1.328 z"
     id="path549" />
  <path
     style="fill:#ffffff;fill-opacity:1;fill-rule:nonzero;stroke:none"
     d="m 167.209,52.645 c 0,-2.353 1.916,-4.271 4.27,-4.271 2.354,0 4.266,1.918 4.266,4.271 0,2.355 -1.912,4.272 -4.266,4.272 -2.354,0 -4.27,-1.917 -4.27,-4.272 m -1.328,0 c 0,3.089 2.509,5.6 5.598,5.6 3.088,0 5.599,-2.511 5.599,-5.6 0,-3.088 -2.511,-5.599 -5.599,-5.599 -3.089,0 -5.598,2.511 -5.598,5.599"
     id="path550" />
  <path
     style="fill:none;stroke:#231f20;stroke-width:0.665856;stroke-linecap:butt;stroke-linejoin:miter;stroke-miterlimit:4;stroke-dasharray:none;stroke-opacity:1"
     d="m 167.209,52.645 c 0,-2.353 1.916,-4.271 4.27,-4.271 2.354,0 4.266,1.918 4.266,4.271 0,2.355 -1.912,4.272 -4.266,4.272 -2.354,0 -4.27,-1.917 -4.27,-4.272 z m -1.328,0 c 0,3.089 2.509,5.6 5.598,5.6 3.088,0 5.599,-2.511 5.599,-5.6 0,-3.088 -2.511,-5.599 -5.599,-5.599 -3.089,0 -5.598,2.511 -5.598,5.599 z"
     id="path551" />
  <path
     style="fill:#231f20;fill-opacity:1;fill-rule:nonzero;stroke:none"
     d="m 168.042,57.578 c -0.412,-0.562 0.619,-2.63 0.937,-2.589 0.312,0.043 -0.104,0.688 0.25,0.751 0.349,0.062 0.552,-0.396 0.761,-0.292 0.228,0.114 -0.105,0.614 0.187,0.693 0.13,0.036 0.609,-0.324 0.75,-0.193 0.115,0.12 0.026,0.63 0.12,0.729 0.146,0.161 0.526,-0.333 0.662,-0.213 0.353,0.306 -1.584,2.208 -1.828,2.192 -0.355,-0.026 -1.167,-0.172 -1.839,-1.078"
     id="path552" />
  <path
     style="fill:none;stroke:#231f20;stroke-width:0.565977;stroke-linecap:round;stroke-linejoin:round;stroke-miterlimit:4;stroke-dasharray:none;stroke-opacity:1"
     d="m 168.042,57.578 c -0.412,-0.562 0.619,-2.63 0.937,-2.589 0.312,0.043 -0.104,0.688 0.25,0.751 0.349,0.062 0.552,-0.396 0.761,-0.292 0.228,0.114 -0.105,0.614 0.187,0.693 0.13,0.036 0.609,-0.324 0.75,-0.193 0.115,0.12 0.026,0.63 0.12,0.729 0.146,0.161 0.526,-0.333 0.662,-0.213 0.353,0.306 -1.584,2.208 -1.828,2.192 -0.355,-0.026 -1.167,-0.172 -1.839,-1.078 z"
     id="path553" />
  <path
     style="fill:#231f20;fill-opacity:1;fill-rule:nonzero;stroke:none"
     d="m 51.578,58.254 c -0.645,-0.265 -0.828,-2.572 -0.536,-2.697 0.291,-0.131 0.271,0.641 0.604,0.511 0.334,-0.126 0.271,-0.62 0.5,-0.646 0.25,-0.021 0.23,0.583 0.52,0.499 0.126,-0.036 0.35,-0.583 0.543,-0.547 0.161,0.038 0.348,0.527 0.479,0.558 0.208,0.057 0.281,-0.547 0.458,-0.52 0.459,0.082 -0.224,2.708 -0.437,2.817 -0.319,0.161 -1.089,0.459 -2.131,0.025"
     id="path554" />
  <path
     style="fill:none;stroke:#231f20;stroke-width:0.565977;stroke-linecap:round;stroke-linejoin:round;stroke-miterlimit:4;stroke-dasharray:none;stroke-opacity:1"
     d="m 51.578,58.254 c -0.645,-0.265 -0.828,-2.572 -0.536,-2.697 0.291,-0.131 0.271,0.641 0.604,0.511 0.334,-0.126 0.271,-0.62 0.5,-0.646 0.25,-0.021 0.23,0.583 0.52,0.499 0.126,-0.036 0.35,-0.583 0.543,-0.547 0.161,0.038 0.348,0.527 0.479,0.558 0.208,0.057 0.281,-0.547 0.458,-0.52 0.459,0.082 -0.224,2.708 -0.437,2.817 -0.319,0.161 -1.089,0.459 -2.131,0.025 z"
     id="path555" />
  <path
     style="fill:#231f20;fill-opacity:1;fill-rule:nonzero;stroke:none"
     d="m 107.761,121.718 c -1.256,-0.495 -1.251,-1.484 -0.579,-2.271 0.203,-0.234 0.136,-0.645 0.35,-0.86 0.5,-0.494 2.244,-0.421 2.552,1.048 0.021,0.11 0.421,0.818 0.64,1.4 0.422,1.136 0.718,3.615 -0.968,5.72 -0.798,1 -1.24,0.343 -1.038,-0.162 0.636,-1.588 0.376,-1.854 0.396,-2.328 0.063,-1.62 -1.353,-2.547 -1.353,-2.547"
     id="path556" />
  <path
     style="fill:none;stroke:#231f20;stroke-width:0.332927;stroke-linecap:butt;stroke-linejoin:miter;stroke-miterlimit:4;stroke-dasharray:none;stroke-opacity:1"
     d="m 107.761,121.718 c -1.256,-0.495 -1.251,-1.484 -0.579,-2.271 0.203,-0.234 0.136,-0.645 0.35,-0.86 0.5,-0.494 2.244,-0.421 2.552,1.048 0.021,0.11 0.421,0.818 0.64,1.4 0.422,1.136 0.718,3.615 -0.968,5.72 -0.798,1 -1.24,0.343 -1.038,-0.162 0.636,-1.588 0.376,-1.854 0.396,-2.328 0.063,-1.62 -1.353,-2.547 -1.353,-2.547 z"
     id="path557" />
  <path
     style="fill:#231f20;fill-opacity:1;fill-rule:nonzero;stroke:none"
     d="m 104.193,103.307 c -2.245,0.338 -2.636,0.703 -2.557,1.662 0.052,0.634 -0.12,1.244 -0.104,1.629 0.041,1.303 0.65,3.459 3.984,9.141 0.756,1.287 1.802,3.104 2.166,3.875 0.59,1.229 2.224,-0.568 2,-1.052 -0.713,-1.552 -1.088,-2.688 -1.27,-3.281 -0.12,-0.412 -0.438,-1.104 -0.719,-2.74 -0.421,-2.49 -0.308,-4.052 -0.896,-6.083 -0.276,-0.937 0.115,-1.823 -0.631,-2.609 -0.738,-0.798 -1.973,-0.542 -1.973,-0.542"
     id="path558" />
  <path
     style="fill:none;stroke:#231f20;stroke-width:0.565977;stroke-linecap:butt;stroke-linejoin:miter;stroke-miterlimit:4;stroke-dasharray:none;stroke-opacity:1"
     d="m 104.193,103.307 c -2.245,0.338 -2.636,0.703 -2.557,1.662 0.052,0.634 -0.12,1.244 -0.104,1.629 0.041,1.303 0.65,3.459 3.984,9.141 0.756,1.287 1.802,3.104 2.166,3.875 0.59,1.229 2.224,-0.568 2,-1.052 -0.713,-1.552 -1.088,-2.688 -1.27,-3.281 -0.12,-0.412 -0.438,-1.104 -0.719,-2.74 -0.421,-2.49 -0.308,-4.052 -0.896,-6.083 -0.276,-0.937 0.115,-1.823 -0.631,-2.609 -0.738,-0.798 -1.973,-0.542 -1.973,-0.542 z"
     id="path559" />
  <path
     style="fill:#ca0369;fill-opacity:1;fill-rule:nonzero;stroke:none"
     d="m 95.605,79.026 c 0.411,3.104 0.156,3.818 -0.089,4.703 -1.558,5.568 1.202,6.229 3.948,5.339 3.229,-1.036 4.406,-1.35 2.994,-7.484 -0.39,-1.704 -1.046,-8.448 -1.046,-8.448 0.088,-2.443 -1.126,-4.882 -2.427,-5.532 -1.371,-0.687 -0.876,-0.318 -2.267,-0.724 -1.317,-0.386 -3.437,0.152 -3.984,1.261 -0.525,1.067 0.391,2.463 1.438,4.645 0.822,1.73 1.433,6.24 1.433,6.24"
     id="path560" />
  <path
     style="fill:none;stroke:#231f20;stroke-width:0.565977;stroke-linecap:butt;stroke-linejoin:miter;stroke-miterlimit:4;stroke-dasharray:none;stroke-opacity:1"
     d="m 95.605,79.026 c 0.411,3.104 0.156,3.818 -0.089,4.703 -1.558,5.568 1.202,6.229 3.948,5.339 3.229,-1.036 4.406,-1.35 2.994,-7.484 -0.39,-1.704 -1.046,-8.448 -1.046,-8.448 0.088,-2.443 -1.126,-4.882 -2.427,-5.532 -1.371,-0.687 -0.876,-0.318 -2.267,-0.724 -1.317,-0.386 -3.437,0.152 -3.984,1.261 -0.525,1.067 0.391,2.463 1.438,4.645 0.822,1.73 1.433,6.24 1.433,6.24 z"
     id="path561" />
  <path
     style="fill:#ffffff;fill-opacity:1;fill-rule:nonzero;stroke:none"
     d="m 95.464,59.36 c -0.088,-0.224 0.817,-0.923 0.526,-1.366 -0.286,-0.432 -1.032,-0.182 -2.734,-1.218 L 93.24,56.765 c -1.214,-0.801 -2.588,-0.995 -3.688,-0.396 -1.823,1 -2.203,3.819 -0.843,6.292 1.359,2.475 3.937,3.677 5.755,2.677 1.745,-0.953 2.161,-3.578 1,-5.978"
     id="path562" />
  <path
     style="fill:none;stroke:#231f20;stroke-width:0.565977;stroke-linecap:butt;stroke-linejoin:miter;stroke-miterlimit:4;stroke-dasharray:none;stroke-opacity:1"
     d="m 95.464,59.36 c -0.088,-0.224 0.817,-0.923 0.526,-1.366 -0.286,-0.432 -1.032,-0.182 -2.734,-1.218 L 93.24,56.765 c -1.214,-0.801 -2.588,-0.995 -3.688,-0.396 -1.823,1 -2.203,3.819 -0.843,6.292 1.359,2.475 3.937,3.677 5.755,2.677 1.745,-0.953 2.161,-3.578 1,-5.978 z"
     id="path563" />
  <path
     style="fill:#231f20;fill-opacity:1;fill-rule:nonzero;stroke:none"
     d="m 103.985,105.775 c 4.005,-0.249 1.948,-3.781 1.921,-4.254 -0.286,-5.005 -0.437,-5.355 -0.926,-9.147 -0.708,-5.484 -2.027,-9.129 -5.339,-9.65 -2.245,-0.355 -3.693,0.417 -4.365,1.552 -0.739,1.256 -0.911,4.426 1.442,6.104 l 0.663,1.573 c 0.312,1.125 0.473,1.677 0.583,2.24 0.188,0.989 0.458,2.031 0.937,3.921 0.844,3.369 2.844,6.651 2.844,6.651 0.333,1.198 2.24,1.01 2.24,1.01"
     id="path564" />
  <path
     style="fill:none;stroke:#231f20;stroke-width:0.565977;stroke-linecap:butt;stroke-linejoin:miter;stroke-miterlimit:4;stroke-dasharray:none;stroke-opacity:1"
     d="m 103.985,105.775 c 4.005,-0.249 1.948,-3.781 1.921,-4.254 -0.286,-5.005 -0.437,-5.355 -0.926,-9.147 -0.708,-5.484 -2.027,-9.129 -5.339,-9.65 -2.245,-0.355 -3.693,0.417 -4.365,1.552 -0.739,1.256 -0.911,4.426 1.442,6.104 l 0.663,1.573 c 0.312,1.125 0.473,1.677 0.583,2.24 0.188,0.989 0.458,2.031 0.937,3.921 0.844,3.369 2.844,6.651 2.844,6.651 0.333,1.198 2.24,1.01 2.24,1.01 z"
     id="path565" />
  <path
     style="fill:#ca0369;fill-opacity:1;fill-rule:nonzero;stroke:none"
     d="m 103.953,87.385 c 0,-0.083 0.005,-0.161 0.016,-0.229 0.131,-0.796 -0.287,-1.271 -1.005,-2.02 -0.807,-1.328 -1.87,-2.183 -3.323,-2.412 -2.245,-0.355 -3.693,0.417 -4.365,1.552 -0.739,1.256 -0.911,4.426 1.442,6.104 l 7.724,-1.214 c -0.145,-0.64 -0.312,-1.224 -0.489,-1.781"
     id="path566" />
  <path
     style="fill:none;stroke:#231f20;stroke-width:0.565977;stroke-linecap:butt;stroke-linejoin:miter;stroke-miterlimit:4;stroke-dasharray:none;stroke-opacity:1"
     d="m 103.953,87.385 c 0,-0.083 0.005,-0.161 0.016,-0.229 0.131,-0.796 -0.287,-1.271 -1.005,-2.02 -0.807,-1.328 -1.87,-2.183 -3.323,-2.412 -2.245,-0.355 -3.693,0.417 -4.365,1.552 -0.739,1.256 -0.911,4.426 1.442,6.104 l 7.724,-1.214 c -0.145,-0.64 -0.312,-1.224 -0.489,-1.781 z"
     id="path567" />
  <path
     style="fill:#231f20;fill-opacity:1;fill-rule:nonzero;stroke:none"
     d="m 112.792,58.942 c -0.167,0.62 -1.776,1.714 -2.656,3.058 -0.599,0.906 -2.912,2.385 -3.438,3.333 -0.484,0.869 -0.781,1.224 -1.874,0.839 -0.642,-0.219 -1.735,-1.074 -1.59,-1.563 0.344,-1.14 0.943,-1.864 1.782,-2.531 0.958,-0.756 3.724,-2.568 4.265,-2.854 1.355,-0.708 1.652,-1.38 1.991,-1.604 0.634,-0.418 0.952,-0.276 1.312,0.078 0.682,0.671 0.208,1.244 0.208,1.244"
     id="path568" />
  <path
     style="fill:none;stroke:#231f20;stroke-width:0.565977;stroke-linecap:butt;stroke-linejoin:miter;stroke-miterlimit:4;stroke-dasharray:none;stroke-opacity:1"
     d="m 112.792,58.942 c -0.167,0.62 -1.776,1.714 -2.656,3.058 -0.599,0.906 -2.912,2.385 -3.438,3.333 -0.484,0.869 -0.781,1.224 -1.874,0.839 -0.642,-0.219 -1.735,-1.074 -1.59,-1.563 0.344,-1.14 0.943,-1.864 1.782,-2.531 0.958,-0.756 3.724,-2.568 4.265,-2.854 1.355,-0.708 1.652,-1.38 1.991,-1.604 0.634,-0.418 0.952,-0.276 1.312,0.078 0.682,0.671 0.208,1.244 0.208,1.244 z"
     id="path569" />
  <path
     style="fill:#231f20;fill-opacity:1;fill-rule:nonzero;stroke:none"
     d="m 106.589,64.426 c 0.729,1.068 -1.136,1.891 -1.595,2.178 -0.457,0.292 -1.67,1.27 -2.52,2.152 -0.844,0.885 -2.281,1.624 -3.896,3.296 -0.849,0.885 -2.229,1.202 -3.453,-0.083 -1.208,-1.271 -0.959,-2.433 0.229,-3.339 1.194,-0.912 2.688,-1.265 3.954,-2.104 1.26,-0.833 2.464,-1.802 3.374,-2.6 1.036,-0.921 1.891,-0.989 2.318,-0.785 1.084,0.52 1.589,1.285 1.589,1.285"
     id="path570" />
  <path
     style="fill:none;stroke:#231f20;stroke-width:0.565977;stroke-linecap:butt;stroke-linejoin:miter;stroke-miterlimit:4;stroke-dasharray:none;stroke-opacity:1"
     d="m 106.589,64.426 c 0.729,1.068 -1.136,1.891 -1.595,2.178 -0.457,0.292 -1.67,1.27 -2.52,2.152 -0.844,0.885 -2.281,1.624 -3.896,3.296 -0.849,0.885 -2.229,1.202 -3.453,-0.083 -1.208,-1.271 -0.959,-2.433 0.229,-3.339 1.194,-0.912 2.688,-1.265 3.954,-2.104 1.26,-0.833 2.464,-1.802 3.374,-2.6 1.036,-0.921 1.891,-0.989 2.318,-0.785 1.084,0.52 1.589,1.285 1.589,1.285 z"
     id="path571" />
  <path
     style="fill:#ffffff;fill-opacity:1;fill-rule:nonzero;stroke:#231f20;stroke-width:0.665856;stroke-linecap:butt;stroke-linejoin:miter;stroke-miterlimit:4;stroke-dasharray:none;stroke-opacity:1"
     d="m 111.381,47.854 h 1.333 V 16.182 h -1.333 z"
     id="path572" />
  <path
     style="fill:#ffffff;fill-opacity:1;fill-rule:nonzero;stroke:none"
     d="m 108.188,52.792 c 0,-2.355 1.917,-4.271 4.27,-4.271 2.35,0 4.266,1.916 4.266,4.271 0,2.353 -1.916,4.27 -4.266,4.27 -2.353,0 -4.27,-1.917 -4.27,-4.27 m -1.334,0 c 0,3.088 2.516,5.598 5.604,5.598 3.084,0 5.599,-2.51 5.599,-5.598 0,-3.09 -2.515,-5.599 -5.599,-5.599 -3.088,0 -5.604,2.509 -5.604,5.599"
     id="path573" />
  <path
     style="fill:none;stroke:#231f20;stroke-width:0.665856;stroke-linecap:butt;stroke-linejoin:miter;stroke-miterlimit:4;stroke-dasharray:none;stroke-opacity:1"
     d="m 108.188,52.792 c 0,-2.355 1.917,-4.271 4.27,-4.271 2.35,0 4.266,1.916 4.266,4.271 0,2.353 -1.916,4.27 -4.266,4.27 -2.353,0 -4.27,-1.917 -4.27,-4.27 z m -1.334,0 c 0,3.088 2.516,5.598 5.604,5.598 3.084,0 5.599,-2.51 5.599,-5.598 0,-3.09 -2.515,-5.599 -5.599,-5.599 -3.088,0 -5.604,2.509 -5.604,5.599 z"
     id="path574" />
  <path
     style="fill:#231f20;fill-opacity:1;fill-rule:nonzero;stroke:none"
     d="m 110.698,57.906 c -0.36,-0.598 0.87,-2.562 1.183,-2.489 0.307,0.072 -0.167,0.676 0.176,0.771 0.344,0.093 0.589,-0.339 0.787,-0.219 0.213,0.129 -0.167,0.604 0.12,0.708 0.12,0.047 0.63,-0.26 0.76,-0.12 0.109,0.131 -0.031,0.636 0.052,0.74 0.13,0.167 0.557,-0.276 0.677,-0.152 0.323,0.339 -1.792,2.043 -2.031,2.005 -0.349,-0.061 -1.141,-0.276 -1.724,-1.244"
     id="path575" />
  <path
     style="fill:none;stroke:#231f20;stroke-width:0.565977;stroke-linecap:round;stroke-linejoin:round;stroke-miterlimit:4;stroke-dasharray:none;stroke-opacity:1"
     d="m 110.698,57.906 c -0.36,-0.598 0.87,-2.562 1.183,-2.489 0.307,0.072 -0.167,0.676 0.176,0.771 0.344,0.093 0.589,-0.339 0.787,-0.219 0.213,0.129 -0.167,0.604 0.12,0.708 0.12,0.047 0.63,-0.26 0.76,-0.12 0.109,0.131 -0.031,0.636 0.052,0.74 0.13,0.167 0.557,-0.276 0.677,-0.152 0.323,0.339 -1.792,2.043 -2.031,2.005 -0.349,-0.061 -1.141,-0.276 -1.724,-1.244 z"
     id="path576" />
  <path
     style="fill:#ca0369;fill-opacity:1;fill-rule:nonzero;stroke:none"
     d="m 305.837,62.896 c -0.1,3.13 -0.47,3.792 -0.86,4.63 -2.44,5.234 0.18,6.334 3.03,5.906 3.36,-0.506 4.57,-0.615 4.17,-6.9 -0.1,-1.746 0.35,-8.506 0.35,-8.506 0.48,-2.396 -0.32,-4.994 -1.5,-5.854 -1.24,-0.902 -0.81,-0.454 -2.12,-1.079 -1.23,-0.599 -3.41,-0.411 -4.13,0.595 -0.69,0.968 -0.02,2.494 0.66,4.822 0.53,1.834 0.4,6.386 0.4,6.386"
     id="path577" />
  <path
     style="fill:none;stroke:#231f20;stroke-width:0.565977;stroke-linecap:butt;stroke-linejoin:miter;stroke-miterlimit:4;stroke-dasharray:none;stroke-opacity:1"
     d="m 305.837,62.896 c -0.1,3.13 -0.47,3.792 -0.86,4.63 -2.44,5.234 0.18,6.334 3.03,5.906 3.36,-0.506 4.57,-0.615 4.17,-6.9 -0.1,-1.746 0.35,-8.506 0.35,-8.506 0.48,-2.396 -0.32,-4.994 -1.5,-5.854 -1.24,-0.902 -0.81,-0.454 -2.12,-1.079 -1.23,-0.599 -3.41,-0.411 -4.13,0.595 -0.69,0.968 -0.02,2.494 0.66,4.822 0.53,1.834 0.4,6.386 0.4,6.386 z"
     id="path578" />
  <path
     style="fill:#231f20;fill-opacity:1;fill-rule:nonzero;stroke:none"
     d="m 308.357,51.808 c 1.25,0.072 2.22,1.118 2.14,2.328 -0.07,1.213 -1.13,3.082 -2.39,3.009 -1.25,-0.077 -2.23,-2.072 -2.16,-3.28 0.07,-1.215 1.15,-2.131 2.41,-2.057"
     id="path579" />
  <path
     style="fill:none;stroke:#231f20;stroke-width:0.237045;stroke-linecap:butt;stroke-linejoin:miter;stroke-miterlimit:4;stroke-dasharray:none;stroke-opacity:1"
     d="m 308.357,51.808 c 1.25,0.072 2.22,1.118 2.14,2.328 -0.07,1.213 -1.13,3.082 -2.39,3.009 -1.25,-0.077 -2.23,-2.072 -2.16,-3.28 0.07,-1.215 1.15,-2.131 2.41,-2.057 z"
     id="path580" />
  <path
     style="fill:#231f20;fill-opacity:1;fill-rule:nonzero;stroke:none"
     d="m 304.847,107.39 c -1.03,-0.875 -0.69,-1.812 0.2,-2.333 0.28,-0.156 0.34,-0.568 0.61,-0.692 0.64,-0.308 2.26,0.337 2.07,1.822 -0.01,0.11 0.13,0.911 0.14,1.536 0.03,1.208 -0.51,3.646 -2.79,5.079 -1.08,0.681 -1.28,-0.079 -0.93,-0.485 1.12,-1.296 0.97,-1.63 1.14,-2.072 0.59,-1.516 -0.44,-2.855 -0.44,-2.855"
     id="path581" />
  <path
     style="fill:none;stroke:#231f20;stroke-width:0.332927;stroke-linecap:butt;stroke-linejoin:miter;stroke-miterlimit:4;stroke-dasharray:none;stroke-opacity:1"
     d="m 304.847,107.39 c -1.03,-0.875 -0.69,-1.812 0.2,-2.333 0.28,-0.156 0.34,-0.568 0.61,-0.692 0.64,-0.308 2.26,0.337 2.07,1.822 -0.01,0.11 0.13,0.911 0.14,1.536 0.03,1.208 -0.51,3.646 -2.79,5.079 -1.08,0.681 -1.28,-0.079 -0.93,-0.485 1.12,-1.296 0.97,-1.63 1.14,-2.072 0.59,-1.516 -0.44,-2.855 -0.44,-2.855 z"
     id="path582" />
  <path
     style="fill:#231f20;fill-opacity:1;fill-rule:nonzero;stroke:none"
     d="m 307.527,88.833 c -2.23,-0.421 -2.72,-0.203 -2.96,0.729 -0.16,0.615 -0.52,1.136 -0.63,1.506 -0.39,1.24 -0.53,3.478 0.75,9.937 0.29,1.469 0.69,3.526 0.78,4.374 0.15,1.355 2.29,0.194 2.24,-0.338 -0.17,-1.703 -0.15,-2.891 -0.13,-3.51 0.02,-0.433 -0.05,-1.193 0.22,-2.833 0.42,-2.49 1.04,-3.922 1.15,-6.032 0.05,-0.984 0.71,-1.688 0.27,-2.677 -0.44,-0.989 -1.69,-1.156 -1.69,-1.156"
     id="path583" />
  <path
     style="fill:none;stroke:#231f20;stroke-width:0.565977;stroke-linecap:butt;stroke-linejoin:miter;stroke-miterlimit:4;stroke-dasharray:none;stroke-opacity:1"
     d="m 307.527,88.833 c -2.23,-0.421 -2.72,-0.203 -2.96,0.729 -0.16,0.615 -0.52,1.136 -0.63,1.506 -0.39,1.24 -0.53,3.478 0.75,9.937 0.29,1.469 0.69,3.526 0.78,4.374 0.15,1.355 2.29,0.194 2.24,-0.338 -0.17,-1.703 -0.15,-2.891 -0.13,-3.51 0.02,-0.433 -0.05,-1.193 0.22,-2.833 0.42,-2.49 1.04,-3.922 1.15,-6.032 0.05,-0.984 0.71,-1.688 0.27,-2.677 -0.44,-0.989 -1.69,-1.156 -1.69,-1.156 z"
     id="path584" />
  <path
     style="fill:#ffffff;fill-opacity:1;fill-rule:nonzero;stroke:none"
     d="m 312.407,44.88 c 0.02,-0.244 1.14,-0.454 1.09,-0.974 -0.06,-0.521 -0.84,-0.641 -1.88,-2.333 l -0.01,-0.016 c -0.73,-1.26 -1.86,-2.068 -3.11,-2.025 -2.08,0.056 -3.7,2.4 -3.61,5.224 0.09,2.817 1.84,5.056 3.91,4.994 1.98,-0.057 3.55,-2.209 3.61,-4.87"
     id="path585" />
  <path
     style="fill:none;stroke:#231f20;stroke-width:0.565977;stroke-linecap:butt;stroke-linejoin:miter;stroke-miterlimit:4;stroke-dasharray:none;stroke-opacity:1"
     d="m 312.407,44.88 c 0.02,-0.244 1.14,-0.454 1.09,-0.974 -0.06,-0.521 -0.84,-0.641 -1.88,-2.333 l -0.01,-0.016 c -0.73,-1.26 -1.86,-2.068 -3.11,-2.025 -2.08,0.056 -3.7,2.4 -3.61,5.224 0.09,2.817 1.84,5.056 3.91,4.994 1.98,-0.057 3.55,-2.209 3.61,-4.87 z"
     id="path586" />
  <path
     style="fill:#231f20;fill-opacity:1;fill-rule:nonzero;stroke:none"
     d="m 306.517,91.093 c 3.87,1.079 3.08,-2.927 3.22,-3.391 1.37,-4.817 1.34,-5.202 2.12,-8.942 1.14,-5.411 1.08,-9.286 -1.87,-10.864 -2,-1.074 -3.62,-0.823 -4.63,0.025 -1.11,0.944 -2.32,3.891 -0.64,6.24 l 0.11,1.708 c -0.08,1.163 -0.11,1.74 -0.19,2.313 -0.14,0.99 -0.23,2.058 -0.41,4.011 -0.3,3.452 0.51,7.213 0.51,7.213 -0.08,1.239 1.78,1.687 1.78,1.687"
     id="path587" />
  <path
     style="fill:none;stroke:#231f20;stroke-width:0.565977;stroke-linecap:butt;stroke-linejoin:miter;stroke-miterlimit:4;stroke-dasharray:none;stroke-opacity:1"
     d="m 306.517,91.093 c 3.87,1.079 3.08,-2.927 3.22,-3.391 1.37,-4.817 1.34,-5.202 2.12,-8.942 1.14,-5.411 1.08,-9.286 -1.87,-10.864 -2,-1.074 -3.62,-0.823 -4.63,0.025 -1.11,0.944 -2.32,3.891 -0.64,6.24 l 0.11,1.708 c -0.08,1.163 -0.11,1.74 -0.19,2.313 -0.14,0.99 -0.23,2.058 -0.41,4.011 -0.3,3.452 0.51,7.213 0.51,7.213 -0.08,1.239 1.78,1.687 1.78,1.687 z"
     id="path588" />
  <path
     style="fill:#ca0369;fill-opacity:1;fill-rule:nonzero;stroke:none"
     d="m 309.987,67.896 c -2,-1.074 -3.62,-0.823 -4.63,0.025 -1.11,0.944 -2.32,3.891 -0.64,6.24 l 7.69,1.396 c 0.08,-0.651 0.11,-1.26 0.12,-1.849 0.03,-0.072 0.06,-0.146 0.09,-0.208 0.39,-0.708 0.15,-1.292 -0.28,-2.23 -0.32,-1.52 -1.04,-2.682 -2.35,-3.374"
     id="path589" />
  <path
     style="fill:none;stroke:#231f20;stroke-width:0.565977;stroke-linecap:butt;stroke-linejoin:miter;stroke-miterlimit:4;stroke-dasharray:none;stroke-opacity:1"
     d="m 309.987,67.896 c -2,-1.074 -3.62,-0.823 -4.63,0.025 -1.11,0.944 -2.32,3.891 -0.64,6.24 l 7.69,1.396 c 0.08,-0.651 0.11,-1.26 0.12,-1.849 0.03,-0.072 0.06,-0.146 0.09,-0.208 0.39,-0.708 0.15,-1.292 -0.28,-2.23 -0.32,-1.52 -1.04,-2.682 -2.35,-3.374 z"
     id="path590" />
  <path
     style="fill:#ffffff;fill-opacity:1;fill-rule:nonzero;stroke:none"
     d="m 307.897,47.906 h 1.33 V 16.379 h -1.33 z"
     id="path591" />
  <path
     style="fill:none;stroke:#231f20;stroke-width:0.665856;stroke-linecap:butt;stroke-linejoin:miter;stroke-miterlimit:4;stroke-dasharray:none;stroke-opacity:1"
     d="m 307.897,47.906 h 1.33 V 16.379 h -1.33 z"
     id="path592" />
  <path
     style="fill:#ffffff;fill-opacity:1;fill-rule:nonzero;stroke:none"
     d="m 308.147,57.109 c -2.35,0 -4.26,-1.911 -4.26,-4.265 0,-2.355 1.91,-4.271 4.26,-4.271 2.36,0 4.27,1.916 4.27,4.271 0,2.354 -1.91,4.265 -4.27,4.265 m 0,-9.869 c -3.08,0 -5.6,2.516 -5.6,5.604 0,3.088 2.52,5.598 5.6,5.598 3.09,0 5.6,-2.51 5.6,-5.598 0,-3.088 -2.51,-5.604 -5.6,-5.604"
     id="path593" />
  <path
     style="fill:none;stroke:#231f20;stroke-width:0.665856;stroke-linecap:butt;stroke-linejoin:miter;stroke-miterlimit:4;stroke-dasharray:none;stroke-opacity:1"
     d="m 308.147,57.109 c -2.35,0 -4.26,-1.911 -4.26,-4.265 0,-2.355 1.91,-4.271 4.26,-4.271 2.36,0 4.27,1.916 4.27,4.271 0,2.354 -1.91,4.265 -4.27,4.265 z m 0,-9.869 c -3.08,0 -5.6,2.516 -5.6,5.604 0,3.088 2.52,5.598 5.6,5.598 3.09,0 5.6,-2.51 5.6,-5.598 0,-3.088 -2.51,-5.604 -5.6,-5.604 z"
     id="path594" />
  <path
     style="fill:#231f20;fill-opacity:1;fill-rule:nonzero;stroke:#231f20;stroke-width:0.332927;stroke-linecap:round;stroke-linejoin:round;stroke-miterlimit:4;stroke-dasharray:none;stroke-opacity:1"
     d="m 309.317,56.297 c 0.66,0.235 0.94,2.531 0.66,2.672 -0.29,0.14 -0.3,-0.625 -0.63,-0.485 -0.33,0.141 -0.24,0.636 -0.47,0.666 -0.25,0.032 -0.26,-0.572 -0.54,-0.473 -0.12,0.041 -0.33,0.599 -0.52,0.568 -0.17,-0.032 -0.37,-0.505 -0.5,-0.537 -0.21,-0.047 -0.26,0.568 -0.44,0.542 -0.46,-0.057 0.11,-2.709 0.32,-2.833"
     id="path595" />
  <path
     style="fill:#ca0369;fill-opacity:1;fill-rule:nonzero;stroke:none"
     d="m 237.067,64.734 c 1.079,2.943 0.984,3.692 0.938,4.615 -0.307,5.771 2.537,5.812 5.016,4.344 2.921,-1.719 4.005,-2.276 1.292,-7.959 -0.756,-1.578 -2.866,-8.016 -2.866,-8.016 -0.442,-2.406 -2.161,-4.516 -3.577,-4.869 -1.485,-0.371 -0.923,-0.115 -2.365,-0.208 -1.375,-0.095 -3.323,0.895 -3.62,2.099 -0.276,1.15 0.922,2.317 2.417,4.224 1.183,1.5 2.765,5.77 2.765,5.77"
     id="path596" />
  <path
     style="fill:none;stroke:#231f20;stroke-width:0.565977;stroke-linecap:butt;stroke-linejoin:miter;stroke-miterlimit:4;stroke-dasharray:none;stroke-opacity:1"
     d="m 237.067,64.734 c 1.079,2.943 0.984,3.692 0.938,4.615 -0.307,5.771 2.537,5.812 5.016,4.344 2.921,-1.719 4.005,-2.276 1.292,-7.959 -0.756,-1.578 -2.866,-8.016 -2.866,-8.016 -0.442,-2.406 -2.161,-4.516 -3.577,-4.869 -1.485,-0.371 -0.923,-0.115 -2.365,-0.208 -1.375,-0.095 -3.323,0.895 -3.62,2.099 -0.276,1.15 0.922,2.317 2.417,4.224 1.183,1.5 2.765,5.77 2.765,5.77 z"
     id="path597" />
  <path
     style="fill:#231f20;fill-opacity:1;fill-rule:nonzero;stroke:none"
     d="m 262.267,101.911 c -1.35,-0.046 -1.67,-0.99 -1.29,-1.953 0.11,-0.292 -0.09,-0.65 0.04,-0.922 0.31,-0.635 1.98,-1.146 2.75,0.136 0.06,0.093 0.67,0.636 1.07,1.114 0.78,0.927 1.88,3.172 0.99,5.713 -0.43,1.203 -1.06,0.74 -1.04,0.199 0.08,-1.715 -0.26,-1.881 -0.39,-2.333 -0.49,-1.554 -2.13,-1.954 -2.13,-1.954"
     id="path598" />
  <path
     style="fill:none;stroke:#231f20;stroke-width:0.332927;stroke-linecap:butt;stroke-linejoin:miter;stroke-miterlimit:4;stroke-dasharray:none;stroke-opacity:1"
     d="m 262.267,101.911 c -1.35,-0.046 -1.67,-0.99 -1.29,-1.953 0.11,-0.292 -0.09,-0.65 0.04,-0.922 0.31,-0.635 1.98,-1.146 2.75,0.136 0.06,0.093 0.67,0.636 1.07,1.114 0.78,0.927 1.88,3.172 0.99,5.713 -0.43,1.203 -1.06,0.74 -1.04,0.199 0.08,-1.715 -0.26,-1.881 -0.39,-2.333 -0.49,-1.554 -2.13,-1.954 -2.13,-1.954 z"
     id="path599" />
  <path
     style="fill:#231f20;fill-opacity:1;fill-rule:nonzero;stroke:none"
     d="m 252.802,85.724 c -2.005,1.057 -2.251,1.536 -1.86,2.412 0.261,0.577 0.303,1.213 0.443,1.572 0.469,1.213 1.761,3.048 6.781,7.308 1.151,0.962 2.731,2.328 3.331,2.937 0.97,0.964 1.91,-1.276 1.54,-1.656 -1.19,-1.229 -1.91,-2.172 -2.28,-2.672 -0.26,-0.349 -0.78,-0.901 -1.59,-2.355 -1.225,-2.208 -1.63,-3.713 -2.86,-5.437 -0.573,-0.797 -0.5,-1.76 -1.458,-2.26 -0.964,-0.5 -2.047,0.151 -2.047,0.151"
     id="path600" />
  <path
     style="fill:none;stroke:#231f20;stroke-width:0.565977;stroke-linecap:butt;stroke-linejoin:miter;stroke-miterlimit:4;stroke-dasharray:none;stroke-opacity:1"
     d="m 252.802,85.724 c -2.005,1.057 -2.251,1.536 -1.86,2.412 0.261,0.577 0.303,1.213 0.443,1.572 0.469,1.213 1.761,3.048 6.781,7.308 1.151,0.962 2.731,2.328 3.331,2.937 0.97,0.964 1.91,-1.276 1.54,-1.656 -1.19,-1.229 -1.91,-2.172 -2.28,-2.672 -0.26,-0.349 -0.78,-0.901 -1.59,-2.355 -1.225,-2.208 -1.63,-3.713 -2.86,-5.437 -0.573,-0.797 -0.5,-1.76 -1.458,-2.26 -0.964,-0.5 -2.047,0.151 -2.047,0.151 z"
     id="path601" />
  <path
     style="fill:#ffffff;fill-opacity:1;fill-rule:nonzero;stroke:none"
     d="m 236.417,45.568 c -0.074,-0.23 0.896,-0.85 0.645,-1.308 -0.249,-0.463 -1.015,-0.282 -2.615,-1.458 l -0.014,-0.01 c -1.142,-0.902 -2.5,-1.224 -3.642,-0.719 -1.906,0.833 -2.525,3.609 -1.39,6.192 1.13,2.584 3.593,4.005 5.494,3.172 1.819,-0.796 2.47,-3.375 1.522,-5.869"
     id="path602" />
  <path
     style="fill:none;stroke:#231f20;stroke-width:0.565977;stroke-linecap:butt;stroke-linejoin:miter;stroke-miterlimit:4;stroke-dasharray:none;stroke-opacity:1"
     d="m 236.417,45.568 c -0.074,-0.23 0.896,-0.85 0.645,-1.308 -0.249,-0.463 -1.015,-0.282 -2.615,-1.458 l -0.014,-0.01 c -1.142,-0.902 -2.5,-1.224 -3.642,-0.719 -1.906,0.833 -2.525,3.609 -1.39,6.192 1.13,2.584 3.593,4.005 5.494,3.172 1.819,-0.796 2.47,-3.375 1.522,-5.869 z"
     id="path603" />
  <path
     style="fill:#231f20;fill-opacity:1;fill-rule:nonzero;stroke:none"
     d="m 253.427,88.12 c 3.692,-1.568 0.583,-4.214 0.402,-4.656 -1.928,-4.626 -2.188,-4.907 -3.907,-8.319 -2.48,-4.943 -4.937,-7.943 -8.229,-7.337 -2.24,0.41 -3.35,1.618 -3.61,2.91 -0.281,1.427 0.61,4.484 3.386,5.282 l 1.15,1.265 c 0.667,0.953 1,1.428 1.292,1.923 0.506,0.869 1.104,1.754 2.178,3.39 1.916,2.896 4.89,5.328 4.89,5.328 0.714,1.02 2.448,0.214 2.448,0.214"
     id="path604" />
  <path
     style="fill:none;stroke:#231f20;stroke-width:0.565977;stroke-linecap:butt;stroke-linejoin:miter;stroke-miterlimit:4;stroke-dasharray:none;stroke-opacity:1"
     d="m 253.427,88.12 c 3.692,-1.568 0.583,-4.214 0.402,-4.656 -1.928,-4.626 -2.188,-4.907 -3.907,-8.319 -2.48,-4.943 -4.937,-7.943 -8.229,-7.337 -2.24,0.41 -3.35,1.618 -3.61,2.91 -0.281,1.427 0.61,4.484 3.386,5.282 l 1.15,1.265 c 0.667,0.953 1,1.428 1.292,1.923 0.506,0.869 1.104,1.754 2.178,3.39 1.916,2.896 4.89,5.328 4.89,5.328 0.714,1.02 2.448,0.214 2.448,0.214 z"
     id="path605" />
  <path
     style="fill:#ca0369;fill-opacity:1;fill-rule:nonzero;stroke:none"
     d="m 247.302,70.776 c -0.027,-0.078 -0.052,-0.151 -0.063,-0.224 -0.14,-0.792 -0.688,-1.099 -1.614,-1.563 -1.198,-0.995 -2.484,-1.448 -3.938,-1.181 -2.234,0.41 -3.344,1.614 -3.604,2.905 -0.281,1.432 0.61,4.489 3.386,5.281 l 6.885,-3.697 c -0.349,-0.557 -0.697,-1.057 -1.052,-1.521"
     id="path606" />
  <path
     style="fill:none;stroke:#231f20;stroke-width:0.565977;stroke-linecap:butt;stroke-linejoin:miter;stroke-miterlimit:4;stroke-dasharray:none;stroke-opacity:1"
     d="m 247.302,70.776 c -0.027,-0.078 -0.052,-0.151 -0.063,-0.224 -0.14,-0.792 -0.688,-1.099 -1.614,-1.563 -1.198,-0.995 -2.484,-1.448 -3.938,-1.181 -2.234,0.41 -3.344,1.614 -3.604,2.905 -0.281,1.432 0.61,4.489 3.386,5.281 l 6.885,-3.697 c -0.349,-0.557 -0.697,-1.057 -1.052,-1.521 z"
     id="path607" />
  <path
     style="fill:#ffffff;fill-opacity:1;fill-rule:nonzero;stroke:#231f20;stroke-width:0.665856;stroke-linecap:butt;stroke-linejoin:miter;stroke-miterlimit:4;stroke-dasharray:none;stroke-opacity:1"
     d="m 242.302,48.245 h 1.333 V 16.719 h -1.333 z"
     id="path608" />
  <path
     style="fill:#231f20;fill-opacity:1;fill-rule:nonzero;stroke:none"
     d="m 245.031,57.75 c -0.578,0.228 -2.417,-0.292 -3.994,-0.166 -1.068,0.088 -3.647,-0.71 -4.699,-0.552 -0.963,0.14 -1.421,0.129 -1.817,-0.844 -0.23,-0.568 -0.271,-1.798 0.197,-1.97 1.079,-0.385 2.011,-0.364 3.043,-0.15 1.177,0.249 4.29,1.182 4.853,1.401 1.385,0.547 2.084,0.385 2.469,0.495 0.714,0.213 0.807,0.51 0.76,0.957 -0.077,0.844 -0.812,0.829 -0.812,0.829"
     id="path609" />
  <path
     style="fill:none;stroke:#231f20;stroke-width:0.530021;stroke-linecap:butt;stroke-linejoin:miter;stroke-miterlimit:4;stroke-dasharray:none;stroke-opacity:1"
     d="m 245.031,57.75 c -0.578,0.228 -2.417,-0.292 -3.994,-0.166 -1.068,0.088 -3.647,-0.71 -4.699,-0.552 -0.963,0.14 -1.421,0.129 -1.817,-0.844 -0.23,-0.568 -0.271,-1.798 0.197,-1.97 1.079,-0.385 2.011,-0.364 3.043,-0.15 1.177,0.249 4.29,1.182 4.853,1.401 1.385,0.547 2.084,0.385 2.469,0.495 0.714,0.213 0.807,0.51 0.76,0.957 -0.077,0.844 -0.812,0.829 -0.812,0.829 z"
     id="path610" />
  <path
     style="fill:#231f20;fill-opacity:1;fill-rule:nonzero;stroke:none"
     d="m 240.947,57.141 c -0.03,1.14 -1.14,0.609 -1.448,0.536 -0.301,-0.073 -1.172,-0.12 -1.842,-0.027 -0.678,0.106 -1.568,-0.233 -2.855,-0.046 -0.672,0.098 -1.401,-0.495 -1.521,-2.072 -0.119,-1.563 0.38,-2.199 1.218,-2.115 0.839,0.077 1.631,0.713 2.48,0.891 0.844,0.17 1.703,0.224 2.38,0.213 0.776,-0.016 1.178,0.437 1.302,0.828 0.313,0.979 0.286,1.792 0.286,1.792"
     id="path611" />
  <path
     style="fill:none;stroke:#231f20;stroke-width:0.399514;stroke-linecap:butt;stroke-linejoin:miter;stroke-miterlimit:4;stroke-dasharray:none;stroke-opacity:1"
     d="m 240.947,57.141 c -0.03,1.14 -1.14,0.609 -1.448,0.536 -0.301,-0.073 -1.172,-0.12 -1.842,-0.027 -0.678,0.106 -1.568,-0.233 -2.855,-0.046 -0.672,0.098 -1.401,-0.495 -1.521,-2.072 -0.119,-1.563 0.38,-2.199 1.218,-2.115 0.839,0.077 1.631,0.713 2.48,0.891 0.844,0.17 1.703,0.224 2.38,0.213 0.776,-0.016 1.178,0.437 1.302,0.828 0.313,0.979 0.286,1.792 0.286,1.792 z"
     id="path612" />
  <path
     style="fill:#ffffff;fill-opacity:1;fill-rule:nonzero;stroke:none"
     d="m 246.234,56.808 c -2.183,0.88 -4.672,-0.178 -5.552,-2.36 -0.88,-2.183 0.177,-4.678 2.36,-5.558 2.181,-0.88 4.672,0.178 5.552,2.36 0.885,2.187 -0.177,4.676 -2.36,5.558 m -3.692,-9.152 c -2.86,1.156 -4.251,4.422 -3.095,7.286 1.158,2.866 4.423,4.256 7.287,3.099 2.865,-1.156 4.251,-4.421 3.095,-7.285 -1.152,-2.866 -4.423,-4.256 -7.287,-3.1"
     id="path613" />
  <path
     style="fill:none;stroke:#231f20;stroke-width:0.665856;stroke-linecap:butt;stroke-linejoin:miter;stroke-miterlimit:4;stroke-dasharray:none;stroke-opacity:1"
     d="m 246.234,56.808 c -2.183,0.88 -4.672,-0.178 -5.552,-2.36 -0.88,-2.183 0.177,-4.678 2.36,-5.558 2.181,-0.88 4.672,0.178 5.552,2.36 0.885,2.187 -0.177,4.676 -2.36,5.558 z m -3.692,-9.152 c -2.86,1.156 -4.251,4.422 -3.095,7.286 1.158,2.866 4.423,4.256 7.287,3.099 2.865,-1.156 4.251,-4.421 3.095,-7.285 -1.152,-2.866 -4.423,-4.256 -7.287,-3.1 z"
     id="path614" />
  <path
     style="fill:#231f20;fill-opacity:1;fill-rule:nonzero;stroke:none"
     d="m 169.687,59.036 c -0.202,0.609 -1.874,1.605 -2.838,2.89 -0.651,0.871 -3.047,2.204 -3.631,3.12 -0.536,0.839 -0.853,1.178 -1.921,0.73 -0.626,-0.266 -1.667,-1.183 -1.495,-1.662 0.412,-1.114 1.057,-1.806 1.937,-2.421 0.995,-0.693 3.87,-2.333 4.427,-2.589 1.385,-0.63 1.729,-1.282 2.084,-1.479 0.661,-0.385 0.968,-0.224 1.307,0.156 0.636,0.713 0.13,1.255 0.13,1.255"
     id="path615" />
  <path
     style="fill:none;stroke:#231f20;stroke-width:0.565977;stroke-linecap:butt;stroke-linejoin:miter;stroke-miterlimit:4;stroke-dasharray:none;stroke-opacity:1"
     d="m 169.687,59.036 c -0.202,0.609 -1.874,1.605 -2.838,2.89 -0.651,0.871 -3.047,2.204 -3.631,3.12 -0.536,0.839 -0.853,1.178 -1.921,0.73 -0.626,-0.266 -1.667,-1.183 -1.495,-1.662 0.412,-1.114 1.057,-1.806 1.937,-2.421 0.995,-0.693 3.87,-2.333 4.427,-2.589 1.385,-0.63 1.729,-1.282 2.084,-1.479 0.661,-0.385 0.968,-0.224 1.307,0.156 0.636,0.713 0.13,1.255 0.13,1.255 z"
     id="path616" />
  <path
     style="fill:#231f20;fill-opacity:1;fill-rule:nonzero;stroke:none"
     d="m 162.635,64.718 c 0.692,1.09 -1.193,1.855 -1.661,2.131 -0.469,0.276 -1.703,1.219 -2.579,2.077 -0.869,0.86 -2.328,1.558 -3.984,3.183 -0.874,0.86 -2.265,1.136 -3.458,-0.177 -1.172,-1.307 -0.88,-2.458 0.333,-3.339 1.213,-0.875 2.724,-1.187 4.011,-1.984 1.281,-0.797 2.516,-1.729 3.448,-2.511 1.062,-0.88 1.916,-0.926 2.338,-0.708 1.068,0.547 1.552,1.328 1.552,1.328"
     id="path617" />
  <path
     style="fill:none;stroke:#231f20;stroke-width:0.565977;stroke-linecap:butt;stroke-linejoin:miter;stroke-miterlimit:4;stroke-dasharray:none;stroke-opacity:1"
     d="m 162.635,64.718 c 0.692,1.09 -1.193,1.855 -1.661,2.131 -0.469,0.276 -1.703,1.219 -2.579,2.077 -0.869,0.86 -2.328,1.558 -3.984,3.183 -0.874,0.86 -2.265,1.136 -3.458,-0.177 -1.172,-1.307 -0.88,-2.458 0.333,-3.339 1.213,-0.875 2.724,-1.187 4.011,-1.984 1.281,-0.797 2.516,-1.729 3.448,-2.511 1.062,-0.88 1.916,-0.926 2.338,-0.708 1.068,0.547 1.552,1.328 1.552,1.328 z"
     id="path618" />
  <path
     style="fill:#231f20;fill-opacity:1;fill-rule:nonzero;stroke:none"
     d="m 246.229,56.046 c 0.693,0.058 1.573,2.199 1.333,2.412 -0.239,0.208 -0.453,-0.532 -0.729,-0.308 -0.282,0.224 -0.067,0.678 -0.282,0.767 -0.233,0.099 -0.394,-0.485 -0.645,-0.313 -0.109,0.073 -0.156,0.666 -0.349,0.682 -0.172,0.016 -0.495,-0.39 -0.63,-0.385 -0.213,0.011 -0.098,0.609 -0.27,0.635 -0.464,0.062 -0.615,-2.646 -0.448,-2.818 0.254,-0.249 0.896,-0.765 2.02,-0.672"
     id="path619" />
  <path
     style="fill:none;stroke:#231f20;stroke-width:0.565977;stroke-linecap:round;stroke-linejoin:round;stroke-miterlimit:4;stroke-dasharray:none;stroke-opacity:1"
     d="m 246.229,56.046 c 0.693,0.058 1.573,2.199 1.333,2.412 -0.239,0.208 -0.453,-0.532 -0.729,-0.308 -0.282,0.224 -0.067,0.678 -0.282,0.767 -0.233,0.099 -0.394,-0.485 -0.645,-0.313 -0.109,0.073 -0.156,0.666 -0.349,0.682 -0.172,0.016 -0.495,-0.39 -0.63,-0.385 -0.213,0.011 -0.098,0.609 -0.27,0.635 -0.464,0.062 -0.615,-2.646 -0.448,-2.818 0.254,-0.249 0.896,-0.765 2.02,-0.672 z"
     id="path620" />
</svg>
