<?xml version="1.0" encoding="UTF-8" standalone="no"?>
<!-- Created with Inkscape (http://www.inkscape.org/) -->

<svg
   version="1.1"
   id="svg1"
   width="328.03955"
   height="131.39505"
   viewBox="0 0 328.03953 131.39505"
   sodipodi:docname="cell.svg"
   xmlns:inkscape="http://www.inkscape.org/namespaces/inkscape"
   xmlns:sodipodi="http://sodipodi.sourceforge.net/DTD/sodipodi-0.dtd"
   xmlns="http://www.w3.org/2000/svg"
   xmlns:svg="http://www.w3.org/2000/svg">
  <sodipodi:namedview
     id="namedview1"
     pagecolor="#ffffff"
     bordercolor="#000000"
     borderopacity="0.25"
     inkscape:showpageshadow="2"
     inkscape:pageopacity="0.0"
     inkscape:pagecheckerboard="0"
     inkscape:deskcolor="#d1d1d1">
    <inkscape:page
       x="0"
       y="0"
       inkscape:label="1"
       id="page1"
       width="328.03952"
       height="131.39505"
       margin="0"
       bleed="0" />
  </sodipodi:namedview>
  <defs
     id="defs1" />
  <path
     style="fill:#231f20;fill-opacity:1;fill-rule:nonzero;stroke:none"
     d="m 4.9366004,26.60426 c 0.0161,-1.3534 0.9427,-1.692 1.9213,-1.3427 0.2871,0.0987 0.647,-0.1053 0.923,0.0147 0.6401,0.2973 1.1922,1.9426 -0.0735,2.756 -0.088,0.0626 -0.6093,0.6866 -1.0785,1.0986 -0.9106,0.7973 -3.124,1.9533 -5.69230001,1.1307 -1.2131,-0.396 -0.7609,-1.0427 -0.2183,-1.032 1.71310001,0.036 1.86940001,-0.3013 2.31720001,-0.4587 1.5412,-0.52 1.9011,-2.1666 1.9011,-2.1666"
     id="path735" />
  <path
     style="fill:none;stroke:#231f20;stroke-width:0.332927;stroke-linecap:butt;stroke-linejoin:miter;stroke-miterlimit:4;stroke-dasharray:none;stroke-opacity:1"
     d="m 4.9366004,26.60426 c 0.0161,-1.3534 0.9427,-1.692 1.9213,-1.3427 0.2871,0.0987 0.647,-0.1053 0.923,0.0147 0.6401,0.2973 1.1922,1.9426 -0.0735,2.756 -0.088,0.0626 -0.6093,0.6866 -1.0785,1.0986 -0.9106,0.7973 -3.124,1.9533 -5.69230001,1.1307 -1.2131,-0.396 -0.7609,-1.0427 -0.2183,-1.032 1.71310001,0.036 1.86940001,-0.3013 2.31720001,-0.4587 1.5412,-0.52 1.9011,-2.1666 1.9011,-2.1666 z"
     id="path736" />
  <path
     style="fill:#ffffff;fill-opacity:1;fill-rule:nonzero;stroke:none"
     d="m 45.363601,29.34426 c 0.0932,0.224 -0.812,0.9319 -0.5162,1.3653 0.2866,0.4373 1.0318,0.1813 2.7402,1.208 l 0.0213,0.0053 c 1.2188,0.7907 2.5932,0.984 3.6917,0.3747 1.8135,-1.0107 2.1724,-3.828 0.8025,-6.2973 -1.3797,-2.468 -3.9634,-3.6507 -5.7754,-2.64 -1.7349,0.968 -2.1417,3.5933 -0.9641,5.984"
     id="path739" />
  <path
     style="fill:none;stroke:#231f20;stroke-width:0.565977;stroke-linecap:butt;stroke-linejoin:miter;stroke-miterlimit:4;stroke-dasharray:none;stroke-opacity:1"
     d="m 45.363601,29.34426 c 0.0932,0.224 -0.812,0.9319 -0.5162,1.3653 0.2866,0.4373 1.0318,0.1813 2.7402,1.208 l 0.0213,0.0053 c 1.2188,0.7907 2.5932,0.984 3.6917,0.3747 1.8135,-1.0107 2.1724,-3.828 0.8025,-6.2973 -1.3797,-2.468 -3.9634,-3.6507 -5.7754,-2.64 -1.7349,0.968 -2.1417,3.5933 -0.9641,5.984 z"
     id="path740" />
  <path
     style="fill:#231f20;fill-opacity:1;fill-rule:nonzero;stroke:none"
     d="m 31.857901,20.57886 c 0.6365,0.2814 0.7709,2.5934 0.475,2.7134 -0.2974,0.12 -0.2562,-0.6454 -0.5896,-0.5267 -0.3385,0.12 -0.2865,0.6147 -0.5145,0.6307 -0.2557,0.016 -0.2188,-0.5827 -0.5105,-0.5107 -0.1307,0.0373 -0.3708,0.5787 -0.552,0.5373 -0.1615,-0.0426 -0.3386,-0.532 -0.4694,-0.5733 -0.2025,-0.0573 -0.2921,0.5467 -0.4681,0.516 -0.4589,-0.0947 0.2853,-2.704 0.5041,-2.808 0.3187,-0.156 1.0948,-0.432 2.125,0.0213"
     id="path752" />
  <path
     style="fill:none;stroke:#231f20;stroke-width:0.565977;stroke-linecap:round;stroke-linejoin:round;stroke-miterlimit:4;stroke-dasharray:none;stroke-opacity:1"
     d="m 31.857901,20.57886 c 0.6365,0.2814 0.7709,2.5934 0.475,2.7134 -0.2974,0.12 -0.2562,-0.6454 -0.5896,-0.5267 -0.3385,0.12 -0.2865,0.6147 -0.5145,0.6307 -0.2557,0.016 -0.2188,-0.5827 -0.5105,-0.5107 -0.1307,0.0373 -0.3708,0.5787 -0.552,0.5373 -0.1615,-0.0426 -0.3386,-0.532 -0.4694,-0.5733 -0.2025,-0.0573 -0.2921,0.5467 -0.4681,0.516 -0.4589,-0.0947 0.2853,-2.704 0.5041,-2.808 0.3187,-0.156 1.0948,-0.432 2.125,0.0213 z"
     id="path753" />
  <path
     style="fill:#231f20;fill-opacity:1;fill-rule:nonzero;stroke:none"
     d="m 71.811501,5.5522595 c 0.7599,-1.12 1.7239,-0.8907 2.3385,-0.052 0.188,0.24 0.599,0.2707 0.7596,0.5213 0.371,0.604 -0.088,2.2814 -1.5877,2.2547 -0.1095,0 -0.8907,0.2347 -1.5104,0.3133 -1.1975,0.1614 -3.6828,-0.1093 -5.3589,-2.2186 -0.7916,-1 -0.0572,-1.2867 0.3896,-0.98 1.401,0.98 1.7198,0.7866 2.1822,0.9066 1.5683,0.4214 2.7871,-0.7453 2.7871,-0.7453"
     id="path756" />
  <path
     style="fill:none;stroke:#231f20;stroke-width:0.332927;stroke-linecap:butt;stroke-linejoin:miter;stroke-miterlimit:4;stroke-dasharray:none;stroke-opacity:1"
     d="m 71.811501,5.5522595 c 0.7599,-1.12 1.7239,-0.8907 2.3385,-0.052 0.188,0.24 0.599,0.2707 0.7596,0.5213 0.371,0.604 -0.088,2.2814 -1.5877,2.2547 -0.1095,0 -0.8907,0.2347 -1.5104,0.3133 -1.1975,0.1614 -3.6828,-0.1093 -5.3589,-2.2186 -0.7916,-1 -0.0572,-1.2867 0.3896,-0.98 1.401,0.98 1.7198,0.7866 2.1822,0.9066 1.5683,0.4214 2.7871,-0.7453 2.7871,-0.7453 z"
     id="path757" />
  <path
     style="fill:#231f20;fill-opacity:1;fill-rule:nonzero;stroke:none"
     d="m 90.545601,6.1775595 c 0.178,-2.2546 -0.093,-2.724 -1.041,-2.8546 -0.631,-0.0987 -1.188,-0.3947 -1.573,-0.4733 -1.271,-0.2454 -3.511,-0.136 -9.787,1.8439 -1.432,0.448 -3.4322,1.0627 -4.2759,1.2494 -1.3172,0.2973 0.0677,2.2973 0.588,2.1826 1.6769,-0.3493 2.8599,-0.4586 3.4799,-0.5053 0.432,-0.0253 1.172,-0.1827 2.839,-0.0827 2.52,0.1347 4.01,0.604 6.12,0.4734 0.978,-0.0574 1.754,0.5266 2.692,-0.0254 0.937,-0.5426 0.958,-1.808 0.958,-1.808"
     id="path758" />
  <path
     style="fill:none;stroke:#231f20;stroke-width:0.565977;stroke-linecap:butt;stroke-linejoin:miter;stroke-miterlimit:4;stroke-dasharray:none;stroke-opacity:1"
     d="m 90.545601,6.1775595 c 0.178,-2.2546 -0.093,-2.724 -1.041,-2.8546 -0.631,-0.0987 -1.188,-0.3947 -1.573,-0.4733 -1.271,-0.2454 -3.511,-0.136 -9.787,1.8439 -1.432,0.448 -3.4322,1.0627 -4.2759,1.2494 -1.3172,0.2973 0.0677,2.2973 0.588,2.1826 1.6769,-0.3493 2.8599,-0.4586 3.4799,-0.5053 0.432,-0.0253 1.172,-0.1827 2.839,-0.0827 2.52,0.1347 4.01,0.604 6.12,0.4734 0.978,-0.0574 1.754,0.5266 2.692,-0.0254 0.937,-0.5426 0.958,-1.808 0.958,-1.808 z"
     id="path759" />
  <path
     style="fill:#ffffff;fill-opacity:1;fill-rule:nonzero;stroke:none"
     d="m 110.3576,31.19886 c 0.09,0.224 -0.833,0.9107 -0.546,1.3533 0.276,0.4427 1.026,0.204 2.708,1.2667 l 0.021,0.0147 c 1.203,0.8186 2.573,1.0413 3.683,0.4533 1.838,-0.964 2.26,-3.7707 0.952,-6.2706 -1.318,-2.5 -3.87,-3.7454 -5.708,-2.7814 -1.76,0.9267 -2.23,3.5414 -1.11,5.964"
     id="path760" />
  <path
     style="fill:none;stroke:#231f20;stroke-width:0.565977;stroke-linecap:butt;stroke-linejoin:miter;stroke-miterlimit:4;stroke-dasharray:none;stroke-opacity:1"
     d="m 110.3576,31.19886 c 0.09,0.224 -0.833,0.9107 -0.546,1.3533 0.276,0.4427 1.026,0.204 2.708,1.2667 l 0.021,0.0147 c 1.203,0.8186 2.573,1.0413 3.683,0.4533 1.838,-0.964 2.26,-3.7707 0.952,-6.2706 -1.318,-2.5 -3.87,-3.7454 -5.708,-2.7814 -1.76,0.9267 -2.23,3.5414 -1.11,5.964 z"
     id="path761" />
  <path
     style="fill:#231f20;fill-opacity:1;fill-rule:nonzero;stroke:none"
     d="m 99.717601,20.57886 c 0.639999,0.2814 0.770999,2.5934 0.472999,2.7134 -0.290999,0.12 -0.248999,-0.6454 -0.587999,-0.5267 -0.338,0.12 -0.286,0.6147 -0.51,0.6307 -0.255,0.016 -0.224,-0.5827 -0.516,-0.5107 -0.124,0.0373 -0.364,0.5787 -0.552,0.5373 -0.156,-0.0426 -0.339,-0.532 -0.468,-0.5733 -0.204,-0.0573 -0.287,0.5467 -0.469,0.516 -0.454,-0.0947 0.286,-2.704 0.505,-2.808 0.317,-0.156 1.093,-0.432 2.125,0.0213"
     id="path773" />
  <path
     style="fill:none;stroke:#231f20;stroke-width:0.565977;stroke-linecap:round;stroke-linejoin:round;stroke-miterlimit:4;stroke-dasharray:none;stroke-opacity:1"
     d="m 99.717601,20.57886 c 0.639999,0.2814 0.770999,2.5934 0.472999,2.7134 -0.290999,0.12 -0.248999,-0.6454 -0.587999,-0.5267 -0.338,0.12 -0.286,0.6147 -0.51,0.6307 -0.255,0.016 -0.224,-0.5827 -0.516,-0.5107 -0.124,0.0373 -0.364,0.5787 -0.552,0.5373 -0.156,-0.0426 -0.339,-0.532 -0.468,-0.5733 -0.204,-0.0573 -0.287,0.5467 -0.469,0.516 -0.454,-0.0947 0.286,-2.704 0.505,-2.808 0.317,-0.156 1.093,-0.432 2.125,0.0213 z"
     id="path774" />
  <path
     style="fill:#ffffff;fill-opacity:1;fill-rule:nonzero;stroke:none"
     d="m 171.9366,31.12016 c 0.047,0.24 -0.975,0.7547 -0.771,1.24 0.198,0.484 0.974,0.3747 2.458,1.7134 l 0.016,0.0106 c 1.041,1.0107 2.354,1.4627 3.551,1.0774 1.975,-0.64 2.871,-3.3334 2.006,-6.02 -0.875,-2.688 -3.178,-4.344 -5.156,-3.7093 -1.891,0.6146 -2.797,3.1093 -2.104,5.6879"
     id="path781" />
  <path
     style="fill:none;stroke:#231f20;stroke-width:0.565977;stroke-linecap:butt;stroke-linejoin:miter;stroke-miterlimit:4;stroke-dasharray:none;stroke-opacity:1"
     d="m 171.9366,31.12016 c 0.047,0.24 -0.975,0.7547 -0.771,1.24 0.198,0.484 0.974,0.3747 2.458,1.7134 l 0.016,0.0106 c 1.041,1.0107 2.354,1.4627 3.551,1.0774 1.975,-0.64 2.871,-3.3334 2.006,-6.02 -0.875,-2.688 -3.178,-4.344 -5.156,-3.7093 -1.891,0.6146 -2.797,3.1093 -2.104,5.6879 z"
     id="path782" />
  <path
     style="fill:none;stroke:#231f20;stroke-width:0.565977;stroke-linecap:butt;stroke-linejoin:miter;stroke-miterlimit:4;stroke-dasharray:none;stroke-opacity:1"
     d="m 174.0046,0.28695959 -5.792,5.25459991 c 2.697,2.62 5.145,3.8387 7.552,2.7507 2.073,-0.9427 2.854,-2.38 2.792,-3.6933 -0.074,-1.4574 -1.672,-4.20799991 -4.552,-4.31199991 z"
     id="path790" />
  <path
     style="fill:#231f20;fill-opacity:1;fill-rule:nonzero;stroke:none"
     d="m 165.8526,20.57886 c 0.641,0.2814 0.776,2.5934 0.475,2.7134 -0.292,0.12 -0.251,-0.6454 -0.59,-0.5267 -0.338,0.12 -0.285,0.6147 -0.509,0.6307 -0.256,0.016 -0.224,-0.5827 -0.516,-0.5107 -0.125,0.0373 -0.365,0.5787 -0.547,0.5373 -0.161,-0.0426 -0.344,-0.532 -0.474,-0.5733 -0.203,-0.0573 -0.287,0.5467 -0.468,0.516 -0.454,-0.0947 0.285,-2.704 0.505,-2.808 0.317,-0.156 1.093,-0.432 2.124,0.0213"
     id="path794" />
  <path
     style="fill:none;stroke:#231f20;stroke-width:0.565977;stroke-linecap:round;stroke-linejoin:round;stroke-miterlimit:4;stroke-dasharray:none;stroke-opacity:1"
     d="m 165.8526,20.57886 c 0.641,0.2814 0.776,2.5934 0.475,2.7134 -0.292,0.12 -0.251,-0.6454 -0.59,-0.5267 -0.338,0.12 -0.285,0.6147 -0.509,0.6307 -0.256,0.016 -0.224,-0.5827 -0.516,-0.5107 -0.125,0.0373 -0.365,0.5787 -0.547,0.5373 -0.161,-0.0426 -0.344,-0.532 -0.474,-0.5733 -0.203,-0.0573 -0.287,0.5467 -0.468,0.516 -0.454,-0.0947 0.285,-2.704 0.505,-2.808 0.317,-0.156 1.093,-0.432 2.124,0.0213 z"
     id="path795" />
  <path
     style="fill:#ca0369;fill-opacity:1;fill-rule:nonzero;stroke:none"
     d="m 228.2376,33.16686 c 0.084,-3.1347 0.443,-3.8013 0.828,-4.6346 2.407,-5.256 -0.219,-6.3387 -3.067,-5.8907 -3.349,0.52 -4.562,0.64 -4.125,6.9213 0.12,1.7453 -0.292,8.5107 -0.292,8.5107 -0.468,2.4013 0.349,4.9946 1.532,5.8386 1.249,0.896 0.817,0.4533 2.124,1.0733 1.245,0.588 3.417,0.3907 4.136,-0.6253 0.683,-0.9693 0,-2.4893 -0.693,-4.8133 -0.542,-1.828 -0.443,-6.38 -0.443,-6.38"
     id="path800" />
  <path
     style="fill:none;stroke:#231f20;stroke-width:0.565977;stroke-linecap:butt;stroke-linejoin:miter;stroke-miterlimit:4;stroke-dasharray:none;stroke-opacity:1"
     d="m 228.2376,33.16686 c 0.084,-3.1347 0.443,-3.8013 0.828,-4.6346 2.407,-5.256 -0.219,-6.3387 -3.067,-5.8907 -3.349,0.52 -4.562,0.64 -4.125,6.9213 0.12,1.7453 -0.292,8.5107 -0.292,8.5107 -0.468,2.4013 0.349,4.9946 1.532,5.8386 1.249,0.896 0.817,0.4533 2.124,1.0733 1.245,0.588 3.417,0.3907 4.136,-0.6253 0.683,-0.9693 0,-2.4893 -0.693,-4.8133 -0.542,-1.828 -0.443,-6.38 -0.443,-6.38 z"
     id="path801" />
  <path
     style="fill:#ffffff;fill-opacity:1;fill-rule:nonzero;stroke:none"
     d="m 223.9416,51.40146 c 0,0.2454 -1.104,0.5627 -0.995,1.0734 0.104,0.5106 0.895,0.552 2.094,2.14 l 0.01,0.0213 c 0.839,1.1867 2.042,1.88 3.287,1.724 2.061,-0.256 3.448,-2.74 3.099,-5.5413 -0.355,-2.7974 -2.308,-4.8654 -4.366,-4.6054 -1.973,0.24 -3.328,2.532 -3.129,5.188"
     id="path802" />
  <path
     style="fill:none;stroke:#231f20;stroke-width:0.565977;stroke-linecap:butt;stroke-linejoin:miter;stroke-miterlimit:4;stroke-dasharray:none;stroke-opacity:1"
     d="m 223.9416,51.40146 c 0,0.2454 -1.104,0.5627 -0.995,1.0734 0.104,0.5106 0.895,0.552 2.094,2.14 l 0.01,0.0213 c 0.839,1.1867 2.042,1.88 3.287,1.724 2.061,-0.256 3.448,-2.74 3.099,-5.5413 -0.355,-2.7974 -2.308,-4.8654 -4.366,-4.6054 -1.973,0.24 -3.328,2.532 -3.129,5.188 z"
     id="path803" />
  <path
     style="fill:#231f20;fill-opacity:1;fill-rule:nonzero;stroke:none"
     d="m 227.3736,4.9695595 c -3.869,-1.052 -3.063,2.948 -3.188,3.4067 -1.339,4.8320005 -1.317,5.2133005 -2.072,8.9573005 -1.104,5.4173 -1.021,9.2973 1.943,10.8547 2.009,1.0573 3.624,0.7973 4.624,-0.0574 1.109,-0.948 2.297,-3.9013 0.609,-6.2453 l -0.119,-1.7027 c 0.067,-1.1666 0.088,-1.7453 0.172,-2.312 0.135,-0.996 0.219,-2.0626 0.38,-4.0159 0.282,-3.4587 -0.552,-7.2080005 -0.552,-7.2080005 0.067,-1.2454 -1.797,-1.6774 -1.797,-1.6774"
     id="path804" />
  <path
     style="fill:none;stroke:#231f20;stroke-width:0.565977;stroke-linecap:butt;stroke-linejoin:miter;stroke-miterlimit:4;stroke-dasharray:none;stroke-opacity:1"
     d="m 227.3736,4.9695595 c -3.869,-1.052 -3.063,2.948 -3.188,3.4067 -1.339,4.8320005 -1.317,5.2133005 -2.072,8.9573005 -1.104,5.4173 -1.021,9.2973 1.943,10.8547 2.009,1.0573 3.624,0.7973 4.624,-0.0574 1.109,-0.948 2.297,-3.9013 0.609,-6.2453 l -0.119,-1.7027 c 0.067,-1.1666 0.088,-1.7453 0.172,-2.312 0.135,-0.996 0.219,-2.0626 0.38,-4.0159 0.282,-3.4587 -0.552,-7.2080005 -0.552,-7.2080005 0.067,-1.2454 -1.797,-1.6774 -1.797,-1.6774 z"
     id="path805" />
  <path
     style="fill:#ca0369;fill-opacity:1;fill-rule:nonzero;stroke:none"
     d="m 229.2896,21.88556 -7.697,-1.344 c -0.074,0.652 -0.104,1.2613 -0.115,1.8493 -0.031,0.0734 -0.057,0.1467 -0.088,0.208 -0.38,0.7147 -0.141,1.292 0.296,2.2294 0.333,1.5213 1.057,2.672 2.371,3.36 2.009,1.0573 3.624,0.8013 4.629,-0.0574 1.104,-0.948 2.292,-3.9013 0.604,-6.2453"
     id="path806" />
  <path
     style="fill:none;stroke:#231f20;stroke-width:0.565977;stroke-linecap:butt;stroke-linejoin:miter;stroke-miterlimit:4;stroke-dasharray:none;stroke-opacity:1"
     d="m 229.2896,21.88556 -7.697,-1.344 c -0.074,0.652 -0.104,1.2613 -0.115,1.8493 -0.031,0.0734 -0.057,0.1467 -0.088,0.208 -0.38,0.7147 -0.141,1.292 0.296,2.2294 0.333,1.5213 1.057,2.672 2.371,3.36 2.009,1.0573 3.624,0.8013 4.629,-0.0574 1.104,-0.948 2.292,-3.9013 0.604,-6.2453 z"
     id="path807" />
  <path
     style="fill:#231f20;fill-opacity:1;fill-rule:nonzero;stroke:none"
     d="m 227.0246,22.16686 c 0.38,0.5214 0.208,2.4587 0.688,3.9947 0.328,1.032 0.016,3.7613 0.416,4.7666 0.365,0.9267 0.453,1.38 -0.536,1.984 -0.579,0.3587 -1.927,0.6667 -2.219,0.244 -0.667,-0.984 -0.844,-1.916 -0.833,-2.984 0.021,-1.2133 0.364,-4.5053 0.484,-5.1093 0.302,-1.4946 -0.026,-2.1453 0.016,-2.552 0.073,-0.76 0.385,-0.916 0.89,-0.9693 0.948,-0.104 1.094,0.6253 1.094,0.6253"
     id="path808" />
  <path
     style="fill:none;stroke:#231f20;stroke-width:0.565977;stroke-linecap:butt;stroke-linejoin:miter;stroke-miterlimit:4;stroke-dasharray:none;stroke-opacity:1"
     d="m 227.0246,22.16686 c 0.38,0.5214 0.208,2.4587 0.688,3.9947 0.328,1.032 0.016,3.7613 0.416,4.7666 0.365,0.9267 0.453,1.38 -0.536,1.984 -0.579,0.3587 -1.927,0.6667 -2.219,0.244 -0.667,-0.984 -0.844,-1.916 -0.833,-2.984 0.021,-1.2133 0.364,-4.5053 0.484,-5.1093 0.302,-1.4946 -0.026,-2.1453 0.016,-2.552 0.073,-0.76 0.385,-0.916 0.89,-0.9693 0.948,-0.104 1.094,0.6253 1.094,0.6253 z"
     id="path809" />
  <path
     style="fill:#231f20;fill-opacity:1;fill-rule:nonzero;stroke:none"
     d="m 227.5186,31.21356 c 1.292,0.0733 0.808,2.048 0.762,2.584 -0.048,0.5466 -0.006,2.104 0.181,3.3066 0.188,1.2147 -0.099,2.8027 0.251,5.1 0.186,1.2133 -0.396,2.5053 -2.167,2.6973 -1.74,0.1934 -2.505,-0.724 -2.511,-2.2186 0,-1.4947 0.626,-2.9013 0.73,-4.412 0.104,-1.5053 0.068,-3.052 -0.016,-4.2653 -0.099,-1.3747 0.365,-2.0934 0.786,-2.312 1.068,-0.5414 1.984,-0.48 1.984,-0.48"
     id="path810" />
  <path
     style="fill:none;stroke:#231f20;stroke-width:0.565977;stroke-linecap:butt;stroke-linejoin:miter;stroke-miterlimit:4;stroke-dasharray:none;stroke-opacity:1"
     d="m 227.5186,31.21356 c 1.292,0.0733 0.808,2.048 0.762,2.584 -0.048,0.5466 -0.006,2.104 0.181,3.3066 0.188,1.2147 -0.099,2.8027 0.251,5.1 0.186,1.2133 -0.396,2.5053 -2.167,2.6973 -1.74,0.1934 -2.505,-0.724 -2.511,-2.2186 0,-1.4947 0.626,-2.9013 0.73,-4.412 0.104,-1.5053 0.068,-3.052 -0.016,-4.2653 -0.099,-1.3747 0.365,-2.0934 0.786,-2.312 1.068,-0.5414 1.984,-0.48 1.984,-0.48 z"
     id="path811" />
  <path
     style="fill:#231f20;fill-opacity:1;fill-rule:nonzero;stroke:none"
     d="m 225.1336,22.18286 c -0.645,-0.2653 -0.844,-2.568 -0.552,-2.6973 0.292,-0.136 0.271,0.6347 0.604,0.504 0.333,-0.1293 0.267,-0.624 0.495,-0.6453 0.25,-0.0254 0.234,0.5786 0.526,0.4893 0.12,-0.036 0.344,-0.588 0.536,-0.5467 0.162,0.036 0.355,0.5214 0.486,0.5574 0.208,0.052 0.276,-0.5574 0.452,-0.5307 0.458,0.0773 -0.203,2.708 -0.416,2.8227 -0.318,0.1666 -1.079,0.4626 -2.131,0.0466"
     id="path815" />
  <path
     style="fill:none;stroke:#231f20;stroke-width:0.565977;stroke-linecap:round;stroke-linejoin:round;stroke-miterlimit:4;stroke-dasharray:none;stroke-opacity:1"
     d="m 225.1336,22.18286 c -0.645,-0.2653 -0.844,-2.568 -0.552,-2.6973 0.292,-0.136 0.271,0.6347 0.604,0.504 0.333,-0.1293 0.267,-0.624 0.495,-0.6453 0.25,-0.0254 0.234,0.5786 0.526,0.4893 0.12,-0.036 0.344,-0.588 0.536,-0.5467 0.162,0.036 0.355,0.5214 0.486,0.5574 0.208,0.052 0.276,-0.5574 0.452,-0.5307 0.458,0.0773 -0.203,2.708 -0.416,2.8227 -0.318,0.1666 -1.079,0.4626 -2.131,0.0466 z"
     id="path816" />
  <path
     style="fill:#ffffff;fill-opacity:1;fill-rule:nonzero;stroke:none"
     d="m 55.587501,61.43746 h 18.8693 v -18.8745 h -18.8693 z"
     id="path817" />
  <path
     style="fill:#ca0369;fill-opacity:1;fill-rule:nonzero;stroke:none"
     d="m 144.3896,87.24576 c -0.74,3.046 -1.229,3.62 -1.781,4.353 -3.459,4.636 -1.12,6.245 1.76,6.407 3.385,0.188 4.599,0.328 5.489,-5.907 0.251,-1.728 2.068,-8.255 2.068,-8.255 0.97,-2.249 0.708,-4.958 -0.265,-6.036 -1.032,-1.136 -0.708,-0.609 -1.855,-1.489 -1.093,-0.839 -3.265,-1.1 -4.172,-0.261 -0.874,0.808 -0.525,2.437 -0.338,4.854 0.152,1.907 -0.906,6.334 -0.906,6.334"
     id="path823" />
  <path
     style="fill:none;stroke:#231f20;stroke-width:0.565977;stroke-linecap:butt;stroke-linejoin:miter;stroke-miterlimit:4;stroke-dasharray:none;stroke-opacity:1"
     d="m 144.3896,87.24576 c -0.74,3.046 -1.229,3.62 -1.781,4.353 -3.459,4.636 -1.12,6.245 1.76,6.407 3.385,0.188 4.599,0.328 5.489,-5.907 0.251,-1.728 2.068,-8.255 2.068,-8.255 0.97,-2.249 0.708,-4.958 -0.265,-6.036 -1.032,-1.136 -0.708,-0.609 -1.855,-1.489 -1.093,-0.839 -3.265,-1.1 -4.172,-0.261 -0.874,0.808 -0.525,2.437 -0.338,4.854 0.152,1.907 -0.906,6.334 -0.906,6.334 z"
     id="path824" />
  <path
     style="fill:#ffffff;fill-opacity:1;fill-rule:nonzero;stroke:none"
     d="m 152.4206,70.31876 c 0.052,-0.24 1.199,-0.3187 1.199,-0.844 0.004,-0.5213 -0.756,-0.7293 -1.6,-2.532 l -0.006,-0.02 c -0.566,-1.3386 -1.604,-2.2706 -2.848,-2.376 -2.068,-0.1813 -3.948,1.9534 -4.193,4.7667 -0.244,2.812 1.229,5.2383 3.297,5.4163 1.979,0.177 3.787,-1.7763 4.151,-4.411"
     id="path825" />
  <path
     style="fill:none;stroke:#231f20;stroke-width:0.565977;stroke-linecap:butt;stroke-linejoin:miter;stroke-miterlimit:4;stroke-dasharray:none;stroke-opacity:1"
     d="m 152.4206,70.31876 c 0.052,-0.24 1.199,-0.3187 1.199,-0.844 0.004,-0.5213 -0.756,-0.7293 -1.6,-2.532 l -0.006,-0.02 c -0.566,-1.3386 -1.604,-2.2706 -2.848,-2.376 -2.068,-0.1813 -3.948,1.9534 -4.193,4.7667 -0.244,2.812 1.229,5.2383 3.297,5.4163 1.979,0.177 3.787,-1.7763 4.151,-4.411 z"
     id="path826" />
  <path
     style="fill:#231f20;fill-opacity:1;fill-rule:nonzero;stroke:none"
     d="m 139.3116,114.98976 c 3.568,1.844 3.614,-2.239 3.838,-2.662 2.323,-4.437 2.375,-4.817 3.907,-8.317 2.213,-5.068 2.948,-8.875 0.38,-11.025 -1.745,-1.459 -3.38,-1.543 -4.537,-0.912 -1.286,0.697 -3.062,3.333 -1.906,5.973 l -0.24,1.699 c -0.312,1.12 -0.453,1.677 -0.656,2.218 -0.344,0.943 -0.645,1.974 -1.213,3.844 -1,3.328 -0.975,7.172 -0.975,7.172 -0.328,1.198 1.402,2.01 1.402,2.01"
     id="path827" />
  <path
     style="fill:none;stroke:#231f20;stroke-width:0.565977;stroke-linecap:butt;stroke-linejoin:miter;stroke-miterlimit:4;stroke-dasharray:none;stroke-opacity:1"
     d="m 139.3116,114.98976 c 3.568,1.844 3.614,-2.239 3.838,-2.662 2.323,-4.437 2.375,-4.817 3.907,-8.317 2.213,-5.068 2.948,-8.875 0.38,-11.025 -1.745,-1.459 -3.38,-1.543 -4.537,-0.912 -1.286,0.697 -3.062,3.333 -1.906,5.973 l -0.24,1.699 c -0.312,1.12 -0.453,1.677 -0.656,2.218 -0.344,0.943 -0.645,1.974 -1.213,3.844 -1,3.328 -0.975,7.172 -0.975,7.172 -0.328,1.198 1.402,2.01 1.402,2.01 z"
     id="path828" />
  <path
     style="fill:#ca0369;fill-opacity:1;fill-rule:nonzero;stroke:none"
     d="m 149.0456,96.77076 c -0.005,-1.557 -0.474,-2.839 -1.609,-3.785 -1.745,-1.459 -3.38,-1.543 -4.537,-0.912 -1.286,0.697 -3.062,3.333 -1.906,5.973 l 7.244,2.933 c 0.21,-0.62 0.371,-1.209 0.5,-1.781 0.043,-0.068 0.084,-0.131 0.131,-0.188 0.521,-0.615 0.407,-1.235 0.177,-2.24"
     id="path829" />
  <path
     style="fill:none;stroke:#231f20;stroke-width:0.565977;stroke-linecap:butt;stroke-linejoin:miter;stroke-miterlimit:4;stroke-dasharray:none;stroke-opacity:1"
     d="m 149.0456,96.77076 c -0.005,-1.557 -0.474,-2.839 -1.609,-3.785 -1.745,-1.459 -3.38,-1.543 -4.537,-0.912 -1.286,0.697 -3.062,3.333 -1.906,5.973 l 7.244,2.933 c 0.21,-0.62 0.371,-1.209 0.5,-1.781 0.043,-0.068 0.084,-0.131 0.131,-0.188 0.521,-0.615 0.407,-1.235 0.177,-2.24 z"
     id="path830" />
  <path
     style="fill:#231f20;fill-opacity:1;fill-rule:nonzero;stroke:none"
     d="m 143.2646,98.25576 c -0.26,-0.589 0.317,-2.453 0.167,-4.052 -0.104,-1.078 0.776,-3.682 0.598,-4.75 -0.166,-0.979 -0.156,-1.443 0.938,-1.828 0.641,-0.224 2.026,-0.246 2.218,0.229 0.448,1.104 0.428,2.047 0.188,3.093 -0.27,1.178 -1.302,4.328 -1.541,4.891 -0.615,1.396 -0.428,2.109 -0.552,2.495 -0.235,0.724 -0.568,0.813 -1.073,0.761 -0.948,-0.1 -0.943,-0.839 -0.943,-0.839"
     id="path831" />
  <path
     style="fill:none;stroke:#231f20;stroke-width:0.565977;stroke-linecap:butt;stroke-linejoin:miter;stroke-miterlimit:4;stroke-dasharray:none;stroke-opacity:1"
     d="m 143.2646,98.25576 c -0.26,-0.589 0.317,-2.453 0.167,-4.052 -0.104,-1.078 0.776,-3.682 0.598,-4.75 -0.166,-0.979 -0.156,-1.443 0.938,-1.828 0.641,-0.224 2.026,-0.246 2.218,0.229 0.448,1.104 0.428,2.047 0.188,3.093 -0.27,1.178 -1.302,4.328 -1.541,4.891 -0.615,1.396 -0.428,2.109 -0.552,2.495 -0.235,0.724 -0.568,0.813 -1.073,0.761 -0.948,-0.1 -0.943,-0.839 -0.943,-0.839 z"
     id="path832" />
  <path
     style="fill:#231f20;fill-opacity:1;fill-rule:nonzero;stroke:none"
     d="m 144.6856,89.30776 c -1.249,-0.344 -0.364,-2.177 -0.202,-2.693 0.156,-0.52 0.448,-2.052 0.521,-3.271 0.067,-1.224 0.676,-2.718 0.817,-5.041 0.074,-1.219 0.916,-2.36 2.687,-2.177 1.745,0.177 2.303,1.229 1.991,2.693 -0.314,1.463 -1.224,2.708 -1.642,4.161 -0.416,1.452 -0.708,2.968 -0.874,4.172 -0.198,1.37 -0.798,1.974 -1.26,2.099 -1.158,0.307 -2.038,0.057 -2.038,0.057"
     id="path833" />
  <path
     style="fill:none;stroke:#231f20;stroke-width:0.565977;stroke-linecap:butt;stroke-linejoin:miter;stroke-miterlimit:4;stroke-dasharray:none;stroke-opacity:1"
     d="m 144.6856,89.30776 c -1.249,-0.344 -0.364,-2.177 -0.202,-2.693 0.156,-0.52 0.448,-2.052 0.521,-3.271 0.067,-1.224 0.676,-2.718 0.817,-5.041 0.074,-1.219 0.916,-2.36 2.687,-2.177 1.745,0.177 2.303,1.229 1.991,2.693 -0.314,1.463 -1.224,2.708 -1.642,4.161 -0.416,1.452 -0.708,2.968 -0.874,4.172 -0.198,1.37 -0.798,1.974 -1.26,2.099 -1.158,0.307 -2.038,0.057 -2.038,0.057 z"
     id="path834" />
  <path
     style="fill:#ffffff;fill-opacity:1;fill-rule:nonzero;stroke:#231f20;stroke-width:0.665856;stroke-linecap:butt;stroke-linejoin:miter;stroke-miterlimit:4;stroke-dasharray:none;stroke-opacity:1"
     d="m 143.5136,90.74576 h 1.328 v -31.6774 h -1.328 z"
     id="path835" />
  <path
     style="fill:#ffffff;fill-opacity:1;fill-rule:nonzero;stroke:none"
     d="m 140.3166,95.67776 c 0,-2.355 1.916,-4.271 4.271,-4.271 2.354,0 4.27,1.916 4.27,4.271 0,2.354 -1.916,4.27 -4.27,4.27 -2.355,0 -4.271,-1.916 -4.271,-4.27 m -1.328,0 c 0,3.088 2.511,5.598 5.599,5.598 3.089,0 5.598,-2.51 5.598,-5.598 0,-3.088 -2.509,-5.599 -5.598,-5.599 -3.088,0 -5.599,2.511 -5.599,5.599"
     id="path836" />
  <path
     style="fill:none;stroke:#231f20;stroke-width:0.665856;stroke-linecap:butt;stroke-linejoin:miter;stroke-miterlimit:4;stroke-dasharray:none;stroke-opacity:1"
     d="m 140.3166,95.67776 c 0,-2.355 1.916,-4.271 4.271,-4.271 2.354,0 4.27,1.916 4.27,4.271 0,2.354 -1.916,4.27 -4.27,4.27 -2.355,0 -4.271,-1.916 -4.271,-4.27 z m -1.328,0 c 0,3.088 2.511,5.598 5.599,5.598 3.089,0 5.598,-2.51 5.598,-5.598 0,-3.088 -2.509,-5.599 -5.598,-5.599 -3.088,0 -5.599,2.511 -5.599,5.599 z"
     id="path837" />
  <path
     style="fill:#231f20;fill-opacity:1;fill-rule:nonzero;stroke:none"
     d="m 145.1136,98.63576 c 0.583,0.391 0.291,2.687 -0.021,2.755 -0.307,0.068 -0.131,-0.681 -0.484,-0.625 -0.349,0.057 -0.391,0.557 -0.62,0.532 -0.251,-0.032 -0.109,-0.62 -0.412,-0.594 -0.129,0.01 -0.463,0.5 -0.64,0.422 -0.151,-0.068 -0.235,-0.579 -0.355,-0.646 -0.192,-0.094 -0.385,0.49 -0.552,0.422 -0.432,-0.172 0.766,-2.604 0.995,-2.672 0.344,-0.094 1.156,-0.224 2.089,0.406"
     id="path838" />
  <path
     style="fill:none;stroke:#231f20;stroke-width:0.565977;stroke-linecap:round;stroke-linejoin:round;stroke-miterlimit:4;stroke-dasharray:none;stroke-opacity:1"
     d="m 145.1136,98.63576 c 0.583,0.391 0.291,2.687 -0.021,2.755 -0.307,0.068 -0.131,-0.681 -0.484,-0.625 -0.349,0.057 -0.391,0.557 -0.62,0.532 -0.251,-0.032 -0.109,-0.62 -0.412,-0.594 -0.129,0.01 -0.463,0.5 -0.64,0.422 -0.151,-0.068 -0.235,-0.579 -0.355,-0.646 -0.192,-0.094 -0.385,0.49 -0.552,0.422 -0.432,-0.172 0.766,-2.604 0.995,-2.672 0.344,-0.094 1.156,-0.224 2.089,0.406 z"
     id="path839" />
  <path
     style="fill:#ffffff;fill-opacity:1;fill-rule:nonzero;stroke:#231f20;stroke-width:0.665856;stroke-linecap:butt;stroke-linejoin:miter;stroke-miterlimit:4;stroke-dasharray:none;stroke-opacity:1"
     d="m 321.3676,59.95346 0.063,31.6773 1.328,-0.005 -0.063,-31.6723 z"
     id="path856" />
  <path
     style="fill:#ffffff;fill-opacity:1;fill-rule:nonzero;stroke:none"
     d="m 317.8316,96.57376 c 0,-2.355 1.906,-4.276 4.26,-4.276 2.355,-0.006 4.276,1.906 4.282,4.26 0.005,2.349 -1.912,4.27 -4.266,4.276 -2.349,0.005 -4.27,-1.906 -4.276,-4.26 m -1.328,0 c 0.004,3.088 2.52,5.598 5.61,5.593 3.088,-0.011 5.598,-2.525 5.593,-5.615 -0.011,-3.088 -2.527,-5.593 -5.615,-5.588 -3.088,0.006 -5.593,2.522 -5.588,5.61"
     id="path857" />
  <path
     style="fill:none;stroke:#231f20;stroke-width:0.665856;stroke-linecap:butt;stroke-linejoin:miter;stroke-miterlimit:4;stroke-dasharray:none;stroke-opacity:1"
     d="m 317.8316,96.57376 c 0,-2.355 1.906,-4.276 4.26,-4.276 2.355,-0.006 4.276,1.906 4.282,4.26 0.005,2.349 -1.912,4.27 -4.266,4.276 -2.349,0.005 -4.27,-1.906 -4.276,-4.26 z m -1.328,0 c 0.004,3.088 2.52,5.598 5.61,5.593 3.088,-0.011 5.598,-2.525 5.593,-5.615 -0.011,-3.088 -2.527,-5.593 -5.615,-5.588 -3.088,0.006 -5.593,2.522 -5.588,5.61 z"
     id="path858" />
  <path
     style="fill:#231f20;fill-opacity:1;fill-rule:nonzero;stroke:none"
     d="m 320.6706,102.59476 c -0.652,-0.256 -0.871,-2.557 -0.584,-2.693 0.292,-0.131 0.281,0.636 0.615,0.5 0.328,-0.131 0.26,-0.626 0.489,-0.646 0.245,-0.026 0.24,0.572 0.532,0.484 0.119,-0.036 0.339,-0.588 0.525,-0.552 0.167,0.031 0.36,0.516 0.495,0.547 0.204,0.057 0.267,-0.552 0.443,-0.525 0.464,0.072 -0.176,2.708 -0.391,2.822 -0.312,0.172 -1.077,0.479 -2.124,0.063"
     id="path859" />
  <path
     style="fill:none;stroke:#231f20;stroke-width:0.565977;stroke-linecap:round;stroke-linejoin:round;stroke-miterlimit:4;stroke-dasharray:none;stroke-opacity:1"
     d="m 320.6706,102.59476 c -0.652,-0.256 -0.871,-2.557 -0.584,-2.693 0.292,-0.131 0.281,0.636 0.615,0.5 0.328,-0.131 0.26,-0.626 0.489,-0.646 0.245,-0.026 0.24,0.572 0.532,0.484 0.119,-0.036 0.339,-0.588 0.525,-0.552 0.167,0.031 0.36,0.516 0.495,0.547 0.204,0.057 0.267,-0.552 0.443,-0.525 0.464,0.072 -0.176,2.708 -0.391,2.822 -0.312,0.172 -1.077,0.479 -2.124,0.063 z"
     id="path860" />
  <path
     style="fill:#231f20;fill-opacity:1;fill-rule:nonzero;stroke:none"
     d="m 249.0456,98.78176 c 1.208,-0.599 1.932,0.078 2.063,1.104 0.041,0.302 0.39,0.532 0.4,0.833 0.026,0.704 -1.198,1.943 -2.495,1.183 -0.093,-0.052 -0.891,-0.24 -1.463,-0.47 -1.125,-0.457 -3.152,-1.91 -3.573,-4.572 -0.203,-1.265 0.584,-1.146 0.817,-0.661 0.74,1.547 1.115,1.531 1.454,1.864 1.156,1.136 2.797,0.719 2.797,0.719"
     id="path863" />
  <path
     style="fill:none;stroke:#231f20;stroke-width:0.332927;stroke-linecap:butt;stroke-linejoin:miter;stroke-miterlimit:4;stroke-dasharray:none;stroke-opacity:1"
     d="m 249.0456,98.78176 c 1.208,-0.599 1.932,0.078 2.063,1.104 0.041,0.302 0.39,0.532 0.4,0.833 0.026,0.704 -1.198,1.943 -2.495,1.183 -0.093,-0.052 -0.891,-0.24 -1.463,-0.47 -1.125,-0.457 -3.152,-1.91 -3.573,-4.572 -0.203,-1.265 0.584,-1.146 0.817,-0.661 0.74,1.547 1.115,1.531 1.454,1.864 1.156,1.136 2.797,0.719 2.797,0.719 z"
     id="path864" />
  <path
     style="fill:none;stroke:#231f20;stroke-width:0.565977;stroke-linecap:butt;stroke-linejoin:miter;stroke-miterlimit:4;stroke-dasharray:none;stroke-opacity:1"
     d="m 265.0456,108.54176 c 1.265,-1.875 1.26,-2.411 0.5,-3 -0.505,-0.39 -0.839,-0.922 -1.136,-1.176 -0.989,-0.844 -2.995,-1.85 -9.432,-3.219 -1.464,-0.308 -3.511,-0.761 -4.333,-1.005 -1.298,-0.396 -1.074,2.02 -0.568,2.186 1.636,0.516 2.718,1.006 3.281,1.271 0.385,0.188 1.115,0.417 2.516,1.319 2.125,1.364 3.192,2.5 5.093,3.426 0.88,0.432 1.271,1.318 2.355,1.303 1.083,-0.016 1.724,-1.105 1.724,-1.105 z"
     id="path866" />
  <path
     style="fill:#ffffff;fill-opacity:1;fill-rule:nonzero;stroke:#231f20;stroke-width:0.665856;stroke-linecap:butt;stroke-linejoin:miter;stroke-miterlimit:4;stroke-dasharray:none;stroke-opacity:1"
     d="m 265.4046,59.95346 0.057,31.6773 1.333,-0.005 -0.057,-31.6723 z"
     id="path877" />
  <path
     style="fill:#ffffff;fill-opacity:1;fill-rule:nonzero;stroke:none"
     d="m 261.8686,96.57376 c 0,-2.355 1.906,-4.276 4.26,-4.276 2.354,-0.006 4.276,1.906 4.281,4.26 0.005,2.349 -1.911,4.27 -4.265,4.276 -2.35,0.005 -4.271,-1.906 -4.276,-4.26 m -1.328,0 c 0.005,3.088 2.521,5.598 5.609,5.593 3.088,-0.011 5.593,-2.525 5.588,-5.615 -0.005,-3.088 -2.52,-5.593 -5.609,-5.588 -3.088,0.006 -5.599,2.522 -5.588,5.61"
     id="path878" />
  <path
     style="fill:none;stroke:#231f20;stroke-width:0.665856;stroke-linecap:butt;stroke-linejoin:miter;stroke-miterlimit:4;stroke-dasharray:none;stroke-opacity:1"
     d="m 261.8686,96.57376 c 0,-2.355 1.906,-4.276 4.26,-4.276 2.354,-0.006 4.276,1.906 4.281,4.26 0.005,2.349 -1.911,4.27 -4.265,4.276 -2.35,0.005 -4.271,-1.906 -4.276,-4.26 z m -1.328,0 c 0.005,3.088 2.521,5.598 5.609,5.593 3.088,-0.011 5.593,-2.525 5.588,-5.615 -0.005,-3.088 -2.52,-5.593 -5.609,-5.588 -3.088,0.006 -5.599,2.522 -5.588,5.61 z"
     id="path879" />
  <path
     style="fill:#231f20;fill-opacity:1;fill-rule:nonzero;stroke:none"
     d="m 264.7066,102.59476 c -0.65,-0.256 -0.869,-2.557 -0.578,-2.693 0.286,-0.131 0.276,0.636 0.609,0.5 0.328,-0.131 0.261,-0.626 0.491,-0.646 0.244,-0.026 0.238,0.572 0.53,0.484 0.12,-0.036 0.339,-0.588 0.527,-0.552 0.167,0.031 0.364,0.516 0.495,0.547 0.202,0.057 0.265,-0.552 0.442,-0.525 0.463,0.072 -0.177,2.708 -0.39,2.822 -0.314,0.172 -1.079,0.479 -2.126,0.063"
     id="path880" />
  <path
     style="fill:none;stroke:#231f20;stroke-width:0.565977;stroke-linecap:round;stroke-linejoin:round;stroke-miterlimit:4;stroke-dasharray:none;stroke-opacity:1"
     d="m 264.7066,102.59476 c -0.65,-0.256 -0.869,-2.557 -0.578,-2.693 0.286,-0.131 0.276,0.636 0.609,0.5 0.328,-0.131 0.261,-0.626 0.491,-0.646 0.244,-0.026 0.238,0.572 0.53,0.484 0.12,-0.036 0.339,-0.588 0.527,-0.552 0.167,0.031 0.364,0.516 0.495,0.547 0.202,0.057 0.265,-0.552 0.442,-0.525 0.463,0.072 -0.177,2.708 -0.39,2.822 -0.314,0.172 -1.079,0.479 -2.126,0.063 z"
     id="path881" />
  <path
     style="fill:#231f20;fill-opacity:1;fill-rule:nonzero;stroke:none"
     d="m 224.7806,95.74576 c -0.715,1.15 -1.683,0.964 -2.334,0.156 -0.193,-0.24 -0.614,-0.246 -0.781,-0.5 -0.401,-0.579 -0.005,-2.282 1.489,-2.312 0.11,-0.006 0.886,-0.271 1.495,-0.38 1.192,-0.21 3.688,-0.048 5.443,1.994 0.838,0.968 0.114,1.282 -0.344,0.99 -1.443,-0.912 -1.75,-0.708 -2.219,-0.814 -1.583,-0.353 -2.749,0.866 -2.749,0.866"
     id="path882" />
  <path
     style="fill:none;stroke:#231f20;stroke-width:0.332927;stroke-linecap:butt;stroke-linejoin:miter;stroke-miterlimit:4;stroke-dasharray:none;stroke-opacity:1"
     d="m 224.7806,95.74576 c -0.715,1.15 -1.683,0.964 -2.334,0.156 -0.193,-0.24 -0.614,-0.246 -0.781,-0.5 -0.401,-0.579 -0.005,-2.282 1.489,-2.312 0.11,-0.006 0.886,-0.271 1.495,-0.38 1.192,-0.21 3.688,-0.048 5.443,1.994 0.838,0.968 0.114,1.282 -0.344,0.99 -1.443,-0.912 -1.75,-0.708 -2.219,-0.814 -1.583,-0.353 -2.749,0.866 -2.749,0.866 z"
     id="path883" />
  <path
     style="fill:#231f20;fill-opacity:1;fill-rule:nonzero;stroke:none"
     d="m 206.0346,95.91176 c -0.082,2.266 0.208,2.714 1.167,2.812 0.631,0.068 1.197,0.344 1.584,0.402 1.285,0.193 3.52,-0.016 9.713,-2.255 1.4,-0.505 3.375,-1.209 4.203,-1.428 1.312,-0.348 -0.156,-2.291 -0.672,-2.161 -1.661,0.422 -2.839,0.584 -3.453,0.656 -0.427,0.048 -1.167,0.234 -2.828,0.209 -2.531,-0.037 -4.036,-0.433 -6.14,-0.224 -0.98,0.104 -1.776,-0.443 -2.688,0.14 -0.911,0.589 -0.886,1.849 -0.886,1.849"
     id="path884" />
  <path
     style="fill:none;stroke:#231f20;stroke-width:0.565977;stroke-linecap:butt;stroke-linejoin:miter;stroke-miterlimit:4;stroke-dasharray:none;stroke-opacity:1"
     d="m 206.0346,95.91176 c -0.082,2.266 0.208,2.714 1.167,2.812 0.631,0.068 1.197,0.344 1.584,0.402 1.285,0.193 3.52,-0.016 9.713,-2.255 1.4,-0.505 3.375,-1.209 4.203,-1.428 1.312,-0.348 -0.156,-2.291 -0.672,-2.161 -1.661,0.422 -2.839,0.584 -3.453,0.656 -0.427,0.048 -1.167,0.234 -2.828,0.209 -2.531,-0.037 -4.036,-0.433 -6.14,-0.224 -0.98,0.104 -1.776,-0.443 -2.688,0.14 -0.911,0.589 -0.886,1.849 -0.886,1.849 z"
     id="path885" />
  <path
     style="fill:#ca0369;fill-opacity:1;fill-rule:nonzero;stroke:none"
     d="m 186.0616,89.69376 c -0.068,3.129 -0.428,3.796 -0.808,4.634 -2.385,5.267 0.245,6.334 3.089,5.88 3.348,-0.541 4.562,-0.666 4.104,-6.942 -0.13,-1.744 0.25,-8.51 0.25,-8.51 0.464,-2.401 -0.364,-4.994 -1.552,-5.838 -1.25,-0.886 -0.818,-0.443 -2.131,-1.058 -1.239,-0.584 -3.421,-0.374 -4.129,0.635 -0.683,0.975 0.01,2.495 0.708,4.813 0.552,1.834 0.469,6.386 0.469,6.386"
     id="path886" />
  <path
     style="fill:none;stroke:#231f20;stroke-width:0.565977;stroke-linecap:butt;stroke-linejoin:miter;stroke-miterlimit:4;stroke-dasharray:none;stroke-opacity:1"
     d="m 186.0616,89.69376 c -0.068,3.129 -0.428,3.796 -0.808,4.634 -2.385,5.267 0.245,6.334 3.089,5.88 3.348,-0.541 4.562,-0.666 4.104,-6.942 -0.13,-1.744 0.25,-8.51 0.25,-8.51 0.464,-2.401 -0.364,-4.994 -1.552,-5.838 -1.25,-0.886 -0.818,-0.443 -2.131,-1.058 -1.239,-0.584 -3.421,-0.374 -4.129,0.635 -0.683,0.975 0.01,2.495 0.708,4.813 0.552,1.834 0.469,6.386 0.469,6.386 z"
     id="path887" />
  <path
     style="fill:#ffffff;fill-opacity:1;fill-rule:nonzero;stroke:none"
     d="m 191.4366,71.90146 c 0.046,-0.24 1.192,-0.3227 1.192,-0.8494 0,-0.52 -0.76,-0.724 -1.61,-2.5199 l -0.009,-0.0214 c -0.573,-1.3386 -1.611,-2.26 -2.86,-2.364 -2.068,-0.172 -3.937,1.9734 -4.172,4.7853 -0.229,2.8134 1.26,5.2347 3.328,5.4067 1.98,0.161 3.776,-1.797 4.131,-4.4373"
     id="path888" />
  <path
     style="fill:none;stroke:#231f20;stroke-width:0.565977;stroke-linecap:butt;stroke-linejoin:miter;stroke-miterlimit:4;stroke-dasharray:none;stroke-opacity:1"
     d="m 191.4366,71.90146 c 0.046,-0.24 1.192,-0.3227 1.192,-0.8494 0,-0.52 -0.76,-0.724 -1.61,-2.5199 l -0.009,-0.0214 c -0.573,-1.3386 -1.611,-2.26 -2.86,-2.364 -2.068,-0.172 -3.937,1.9734 -4.172,4.7853 -0.229,2.8134 1.26,5.2347 3.328,5.4067 1.98,0.161 3.776,-1.797 4.131,-4.4373 z"
     id="path889" />
  <path
     style="fill:#231f20;fill-opacity:1;fill-rule:nonzero;stroke:none"
     d="m 208.4206,96.56276 c 0.478,-3.984 -3.364,-2.604 -3.839,-2.661 -4.968,-0.631 -5.344,-0.547 -9.161,-0.755 -5.516,-0.303 -9.344,0.339 -10.459,3.495 -0.755,2.145 -0.26,3.702 0.729,4.572 1.104,0.958 4.194,1.704 6.266,-0.307 l 1.677,-0.369 c 1.156,-0.095 1.729,-0.158 2.308,-0.162 1,-0.005 2.072,-0.078 4.025,-0.204 3.464,-0.224 7.058,-1.593 7.058,-1.593 1.24,-0.109 1.396,-2.016 1.396,-2.016"
     id="path890" />
  <path
     style="fill:none;stroke:#231f20;stroke-width:0.565977;stroke-linecap:butt;stroke-linejoin:miter;stroke-miterlimit:4;stroke-dasharray:none;stroke-opacity:1"
     d="m 208.4206,96.56276 c 0.478,-3.984 -3.364,-2.604 -3.839,-2.661 -4.968,-0.631 -5.344,-0.547 -9.161,-0.755 -5.516,-0.303 -9.344,0.339 -10.459,3.495 -0.755,2.145 -0.26,3.702 0.729,4.572 1.104,0.958 4.194,1.704 6.266,-0.307 l 1.677,-0.369 c 1.156,-0.095 1.729,-0.158 2.308,-0.162 1,-0.005 2.072,-0.078 4.025,-0.204 3.464,-0.224 7.058,-1.593 7.058,-1.593 1.24,-0.109 1.396,-2.016 1.396,-2.016 z"
     id="path891" />
  <path
     style="fill:#ca0369;fill-opacity:1;fill-rule:nonzero;stroke:none"
     d="m 190.3266,93.25076 c -0.078,-0.016 -0.152,-0.037 -0.218,-0.057 -0.762,-0.271 -1.298,0.046 -2.162,0.62 -1.458,0.546 -2.494,1.437 -2.985,2.828 -0.755,2.145 -0.26,3.702 0.729,4.572 1.104,0.958 4.194,1.704 6.266,-0.307 l 0.214,-7.812 c -0.657,0.02 -1.261,0.077 -1.844,0.156"
     id="path892" />
  <path
     style="fill:none;stroke:#231f20;stroke-width:0.565977;stroke-linecap:butt;stroke-linejoin:miter;stroke-miterlimit:4;stroke-dasharray:none;stroke-opacity:1"
     d="m 190.3266,93.25076 c -0.078,-0.016 -0.152,-0.037 -0.218,-0.057 -0.762,-0.271 -1.298,0.046 -2.162,0.62 -1.458,0.546 -2.494,1.437 -2.985,2.828 -0.755,2.145 -0.26,3.702 0.729,4.572 1.104,0.958 4.194,1.704 6.266,-0.307 l 0.214,-7.812 c -0.657,0.02 -1.261,0.077 -1.844,0.156 z"
     id="path893" />
  <path
     style="fill:#231f20;fill-opacity:1;fill-rule:nonzero;stroke:none"
     d="m 187.3216,100.68776 c -0.38,-0.521 -0.219,-2.464 -0.708,-3.994 -0.328,-1.032 -0.027,-3.762 -0.433,-4.766 -0.37,-0.928 -0.452,-1.381 0.526,-1.985 0.579,-0.359 1.927,-0.677 2.219,-0.255 0.672,0.979 0.86,1.911 0.849,2.979 -0.016,1.213 -0.349,4.511 -0.469,5.109 -0.296,1.495 0.041,2.152 0,2.558 -0.073,0.756 -0.385,0.912 -0.885,0.969 -0.954,0.109 -1.099,-0.615 -1.099,-0.615"
     id="path894" />
  <path
     style="fill:none;stroke:#231f20;stroke-width:0.565977;stroke-linecap:butt;stroke-linejoin:miter;stroke-miterlimit:4;stroke-dasharray:none;stroke-opacity:1"
     d="m 187.3216,100.68776 c -0.38,-0.521 -0.219,-2.464 -0.708,-3.994 -0.328,-1.032 -0.027,-3.762 -0.433,-4.766 -0.37,-0.928 -0.452,-1.381 0.526,-1.985 0.579,-0.359 1.927,-0.677 2.219,-0.255 0.672,0.979 0.86,1.911 0.849,2.979 -0.016,1.213 -0.349,4.511 -0.469,5.109 -0.296,1.495 0.041,2.152 0,2.558 -0.073,0.756 -0.385,0.912 -0.885,0.969 -0.954,0.109 -1.099,-0.615 -1.099,-0.615 z"
     id="path895" />
  <path
     style="fill:#231f20;fill-opacity:1;fill-rule:nonzero;stroke:none"
     d="m 186.7896,91.64176 c -1.291,-0.068 -0.817,-2.047 -0.771,-2.584 0.043,-0.547 0,-2.099 -0.192,-3.307 -0.193,-1.209 0.083,-2.803 -0.276,-5.099 -0.188,-1.209 0.391,-2.505 2.156,-2.704 1.746,-0.197 2.511,0.708 2.522,2.204 0.009,1.495 -0.615,2.906 -0.715,4.416 -0.093,1.506 -0.052,3.052 0.037,4.266 0.104,1.38 -0.354,2.098 -0.781,2.318 -1.063,0.547 -1.98,0.49 -1.98,0.49"
     id="path896" />
  <path
     style="fill:none;stroke:#231f20;stroke-width:0.565977;stroke-linecap:butt;stroke-linejoin:miter;stroke-miterlimit:4;stroke-dasharray:none;stroke-opacity:1"
     d="m 186.7896,91.64176 c -1.291,-0.068 -0.817,-2.047 -0.771,-2.584 0.043,-0.547 0,-2.099 -0.192,-3.307 -0.193,-1.209 0.083,-2.803 -0.276,-5.099 -0.188,-1.209 0.391,-2.505 2.156,-2.704 1.746,-0.197 2.511,0.708 2.522,2.204 0.009,1.495 -0.615,2.906 -0.715,4.416 -0.093,1.506 -0.052,3.052 0.037,4.266 0.104,1.38 -0.354,2.098 -0.781,2.318 -1.063,0.547 -1.98,0.49 -1.98,0.49 z"
     id="path897" />
  <path
     style="fill:#ffffff;fill-opacity:1;fill-rule:nonzero;stroke:#231f20;stroke-width:0.665856;stroke-linecap:butt;stroke-linejoin:miter;stroke-miterlimit:4;stroke-dasharray:none;stroke-opacity:1"
     d="m 187.6026,92.02176 h 1.329 v -31.6774 h -1.329 z"
     id="path898" />
  <path
     style="fill:#ffffff;fill-opacity:1;fill-rule:nonzero;stroke:none"
     d="m 184.4096,96.95376 c 0,-2.355 1.912,-4.266 4.267,-4.266 2.353,0 4.27,1.911 4.27,4.266 0,2.354 -1.917,4.27 -4.27,4.27 -2.355,0 -4.267,-1.916 -4.267,-4.27 m -1.333,0 c 0,3.089 2.51,5.604 5.6,5.604 3.088,0 5.604,-2.515 5.604,-5.604 0,-3.088 -2.516,-5.599 -5.604,-5.599 -3.09,0 -5.6,2.511 -5.6,5.599"
     id="path899" />
  <path
     style="fill:none;stroke:#231f20;stroke-width:0.665856;stroke-linecap:butt;stroke-linejoin:miter;stroke-miterlimit:4;stroke-dasharray:none;stroke-opacity:1"
     d="m 184.4096,96.95376 c 0,-2.355 1.912,-4.266 4.267,-4.266 2.353,0 4.27,1.911 4.27,4.266 0,2.354 -1.917,4.27 -4.27,4.27 -2.355,0 -4.267,-1.916 -4.267,-4.27 z m -1.333,0 c 0,3.089 2.51,5.604 5.6,5.604 3.088,0 5.604,-2.515 5.604,-5.604 0,-3.088 -2.516,-5.599 -5.604,-5.599 -3.09,0 -5.6,2.511 -5.6,5.599 z"
     id="path900" />
  <path
     style="fill:none;stroke:#231f20;stroke-width:0.399514;stroke-linecap:butt;stroke-linejoin:miter;stroke-miterlimit:4;stroke-dasharray:none;stroke-opacity:1"
     d="m 183.6336,95.48576 c -26.317,-2.97 -39.744,28.645 -40.082,35.9"
     id="path903" />
  <path
     style="fill:none;stroke:#231f20;stroke-width:0.399514;stroke-linecap:butt;stroke-linejoin:miter;stroke-miterlimit:4;stroke-dasharray:none;stroke-opacity:1"
     d="m 218.5246,127.73476 c 17.822,-19.599 0.057,-48.995 -5.62,-53.516"
     id="path905" />
  <path
     style="fill:#231f20;fill-opacity:1;fill-rule:nonzero;stroke:none"
     d="m 211.9566,73.46946 c 0.578,0.192 1.349,0.3443 1.928,0.3223 l -0.86,0.527 -0.323,0.957 c -0.104,-0.566 -0.432,-1.286 -0.745,-1.8063"
     id="path906" />
</svg>
