<?xml version="1.0" encoding="UTF-8" standalone="no"?>
<!-- Created with Inkscape (http://www.inkscape.org/) -->

<svg
   version="1.1"
   id="svg1"
   width="358.46402"
   height="139.02808"
   viewBox="0 0 358.464 139.02808"
   sodipodi:docname="cell.svg"
   xmlns:inkscape="http://www.inkscape.org/namespaces/inkscape"
   xmlns:sodipodi="http://sodipodi.sourceforge.net/DTD/sodipodi-0.dtd"
   xmlns="http://www.w3.org/2000/svg"
   xmlns:svg="http://www.w3.org/2000/svg">
  <sodipodi:namedview
     id="namedview1"
     pagecolor="#ffffff"
     bordercolor="#000000"
     borderopacity="0.25"
     inkscape:showpageshadow="2"
     inkscape:pageopacity="0.0"
     inkscape:pagecheckerboard="0"
     inkscape:deskcolor="#d1d1d1">
    <inkscape:page
       x="0"
       y="1.0000128e-12"
       inkscape:label="1"
       id="page1"
       width="358.46399"
       height="139.02808"
       margin="0"
       bleed="0" />
  </sodipodi:namedview>
  <defs
     id="defs1" />
  <path
     style="fill:#ffffff;fill-opacity:1;fill-rule:nonzero;stroke:none"
     d="M 0,18.874 H 14.948 V 0 H 0 Z"
     id="path867" />
  <path
     style="fill:#ffffff;fill-opacity:1;fill-rule:nonzero;stroke:none"
     d="m 339.614,18.874 h 18.85 V 0 h -18.85 z"
     id="path868" />
  <path
     style="fill:#ffffff;fill-opacity:1;fill-rule:nonzero;stroke:#231f20;stroke-width:0.665856;stroke-linecap:butt;stroke-linejoin:miter;stroke-miterlimit:4;stroke-dasharray:none;stroke-opacity:1"
     d="m 228.86,14.957 -4.194,33.99 1.298,0.296 4.193,-33.983 z"
     id="path869" />
  <path
     style="fill:#ffffff;fill-opacity:1;fill-rule:nonzero;stroke:none"
     d="m 220.048,52.953 c 0.525,-2.298 2.822,-3.735 5.118,-3.21 2.292,0.527 3.73,2.823 3.204,5.12 -0.526,2.292 -2.822,3.73 -5.12,3.203 -2.286,-0.525 -3.729,-2.823 -3.202,-5.113 M 218.75,52.65 c -0.688,3.011 1.198,6.027 4.208,6.713 3.011,0.694 6.022,-1.197 6.708,-4.202 0.694,-3.016 -1.192,-6.022 -4.208,-6.714 -3.005,-0.688 -6.02,1.198 -6.708,4.203"
     id="path870" />
  <path
     style="fill:none;stroke:#231f20;stroke-width:0.665856;stroke-linecap:butt;stroke-linejoin:miter;stroke-miterlimit:4;stroke-dasharray:none;stroke-opacity:1"
     d="m 220.048,52.953 c 0.525,-2.298 2.822,-3.735 5.118,-3.21 2.292,0.527 3.73,2.823 3.204,5.12 -0.526,2.292 -2.822,3.73 -5.12,3.203 -2.286,-0.525 -3.729,-2.823 -3.202,-5.113 z M 218.75,52.65 c -0.688,3.011 1.198,6.027 4.208,6.713 3.011,0.694 6.022,-1.197 6.708,-4.202 0.694,-3.016 -1.192,-6.022 -4.208,-6.714 -3.005,-0.688 -6.02,1.198 -6.708,4.203 z"
     id="path871" />
  <path
     style="fill:#231f20;fill-opacity:1;fill-rule:nonzero;stroke:none"
     d="m 115.141,90.343 c -1.036,-0.865 -0.713,-1.802 0.178,-2.333 0.265,-0.163 0.328,-0.573 0.604,-0.704 0.629,-0.312 2.26,0.313 2.082,1.803 -0.014,0.109 0.142,0.91 0.162,1.536 0.037,1.208 -0.474,3.65 -2.744,5.109 -1.074,0.693 -1.282,-0.073 -0.927,-0.484 1.104,-1.303 0.947,-1.636 1.113,-2.079 0.574,-1.52 -0.468,-2.848 -0.468,-2.848"
     id="path872" />
  <path
     style="fill:none;stroke:#231f20;stroke-width:0.332927;stroke-linecap:butt;stroke-linejoin:miter;stroke-miterlimit:4;stroke-dasharray:none;stroke-opacity:1"
     d="m 115.141,90.343 c -1.036,-0.865 -0.713,-1.802 0.178,-2.333 0.265,-0.163 0.328,-0.573 0.604,-0.704 0.629,-0.312 2.26,0.313 2.082,1.803 -0.014,0.109 0.142,0.91 0.162,1.536 0.037,1.208 -0.474,3.65 -2.744,5.109 -1.074,0.693 -1.282,-0.073 -0.927,-0.484 1.104,-1.303 0.947,-1.636 1.113,-2.079 0.574,-1.52 -0.468,-2.848 -0.468,-2.848 z"
     id="path873" />
  <path
     style="fill:#231f20;fill-opacity:1;fill-rule:nonzero;stroke:none"
     d="m 117.62,71.759 c -2.229,-0.396 -2.713,-0.172 -2.948,0.755 -0.151,0.62 -0.505,1.147 -0.62,1.516 -0.369,1.245 -0.484,3.484 0.865,9.932 0.302,1.459 0.719,3.516 0.818,4.365 0.161,1.35 2.292,0.172 2.234,-0.36 -0.182,-1.702 -0.177,-2.89 -0.161,-3.514 0.016,-0.428 -0.068,-1.188 0.192,-2.83 0.396,-2.5 1,-3.932 1.089,-6.046 0.036,-0.984 0.687,-1.698 0.239,-2.678 -0.452,-0.989 -1.708,-1.14 -1.708,-1.14"
     id="path874" />
  <path
     style="fill:none;stroke:#231f20;stroke-width:0.565977;stroke-linecap:butt;stroke-linejoin:miter;stroke-miterlimit:4;stroke-dasharray:none;stroke-opacity:1"
     d="m 117.62,71.759 c -2.229,-0.396 -2.713,-0.172 -2.948,0.755 -0.151,0.62 -0.505,1.147 -0.62,1.516 -0.369,1.245 -0.484,3.484 0.865,9.932 0.302,1.459 0.719,3.516 0.818,4.365 0.161,1.35 2.292,0.172 2.234,-0.36 -0.182,-1.702 -0.177,-2.89 -0.161,-3.514 0.016,-0.428 -0.068,-1.188 0.192,-2.83 0.396,-2.5 1,-3.932 1.089,-6.046 0.036,-0.984 0.687,-1.698 0.239,-2.678 -0.452,-0.989 -1.708,-1.14 -1.708,-1.14 z"
     id="path875" />
  <path
     style="fill:#ca0369;fill-opacity:1;fill-rule:nonzero;stroke:none"
     d="m 115.667,45.838 c -0.067,3.135 -0.427,3.796 -0.807,4.635 -2.385,5.265 0.24,6.338 3.088,5.88 3.349,-0.536 4.563,-0.662 4.1,-6.943 -0.125,-1.744 0.255,-8.505 0.255,-8.505 0.469,-2.406 -0.364,-4.995 -1.552,-5.839 -1.251,-0.891 -0.818,-0.447 -2.131,-1.061 -1.244,-0.584 -3.421,-0.376 -4.129,0.64 -0.683,0.974 0.009,2.489 0.708,4.812 0.552,1.829 0.468,6.381 0.468,6.381"
     id="path876" />
  <path
     style="fill:none;stroke:#231f20;stroke-width:0.565977;stroke-linecap:butt;stroke-linejoin:miter;stroke-miterlimit:4;stroke-dasharray:none;stroke-opacity:1"
     d="m 115.667,45.838 c -0.067,3.135 -0.427,3.796 -0.807,4.635 -2.385,5.265 0.24,6.338 3.088,5.88 3.349,-0.536 4.563,-0.662 4.1,-6.943 -0.125,-1.744 0.255,-8.505 0.255,-8.505 0.469,-2.406 -0.364,-4.995 -1.552,-5.839 -1.251,-0.891 -0.818,-0.447 -2.131,-1.061 -1.244,-0.584 -3.421,-0.376 -4.129,0.64 -0.683,0.974 0.009,2.489 0.708,4.812 0.552,1.829 0.468,6.381 0.468,6.381 z"
     id="path877" />
  <path
     style="fill:#ffffff;fill-opacity:1;fill-rule:nonzero;stroke:none"
     d="m 121.043,28.051 c 0.046,-0.24 1.192,-0.322 1.192,-0.849 0,-0.525 -0.76,-0.724 -1.61,-2.525 l -0.01,-0.021 c -0.572,-1.334 -1.61,-2.26 -2.859,-2.36 -2.068,-0.172 -3.937,1.969 -4.172,4.781 -0.229,2.818 1.26,5.24 3.328,5.406 1.979,0.167 3.776,-1.792 4.131,-4.432"
     id="path878" />
  <path
     style="fill:none;stroke:#231f20;stroke-width:0.565977;stroke-linecap:butt;stroke-linejoin:miter;stroke-miterlimit:4;stroke-dasharray:none;stroke-opacity:1"
     d="m 121.043,28.051 c 0.046,-0.24 1.192,-0.322 1.192,-0.849 0,-0.525 -0.76,-0.724 -1.61,-2.525 l -0.01,-0.021 c -0.572,-1.334 -1.61,-2.26 -2.859,-2.36 -2.068,-0.172 -3.937,1.969 -4.172,4.781 -0.229,2.818 1.26,5.24 3.328,5.406 1.979,0.167 3.776,-1.792 4.131,-4.432 z"
     id="path879" />
  <path
     style="fill:#231f20;fill-opacity:1;fill-rule:nonzero;stroke:none"
     d="m 116.641,74.03 c 3.875,1.036 3.052,-2.964 3.178,-3.421 1.322,-4.834 1.29,-5.214 2.036,-8.964 1.084,-5.422 0.989,-9.302 -1.984,-10.85 -2.016,-1.052 -3.631,-0.781 -4.626,0.079 -1.104,0.953 -2.281,3.912 -0.584,6.245 l 0.126,1.708 c -0.063,1.162 -0.083,1.739 -0.162,2.307 -0.134,0.995 -0.208,2.068 -0.364,4.016 -0.27,3.464 0.578,7.213 0.578,7.213 -0.063,1.24 1.802,1.667 1.802,1.667"
     id="path880" />
  <path
     style="fill:none;stroke:#231f20;stroke-width:0.565977;stroke-linecap:butt;stroke-linejoin:miter;stroke-miterlimit:4;stroke-dasharray:none;stroke-opacity:1"
     d="m 116.641,74.03 c 3.875,1.036 3.052,-2.964 3.178,-3.421 1.322,-4.834 1.29,-5.214 2.036,-8.964 1.084,-5.422 0.989,-9.302 -1.984,-10.85 -2.016,-1.052 -3.631,-0.781 -4.626,0.079 -1.104,0.953 -2.281,3.912 -0.584,6.245 l 0.126,1.708 c -0.063,1.162 -0.083,1.739 -0.162,2.307 -0.134,0.995 -0.208,2.068 -0.364,4.016 -0.27,3.464 0.578,7.213 0.578,7.213 -0.063,1.24 1.802,1.667 1.802,1.667 z"
     id="path881" />
  <path
     style="fill:#ca0369;fill-opacity:1;fill-rule:nonzero;stroke:none"
     d="m 122.256,54.145 c -0.339,-1.522 -1.079,-2.667 -2.385,-3.35 -2.016,-1.052 -3.631,-0.781 -4.626,0.079 -1.104,0.953 -2.281,3.907 -0.584,6.245 l 7.704,1.312 c 0.074,-0.65 0.099,-1.26 0.11,-1.844 0.025,-0.078 0.052,-0.15 0.088,-0.213 0.376,-0.713 0.136,-1.292 -0.307,-2.229"
     id="path882" />
  <path
     style="fill:none;stroke:#231f20;stroke-width:0.565977;stroke-linecap:butt;stroke-linejoin:miter;stroke-miterlimit:4;stroke-dasharray:none;stroke-opacity:1"
     d="m 122.256,54.145 c -0.339,-1.522 -1.079,-2.667 -2.385,-3.35 -2.016,-1.052 -3.631,-0.781 -4.626,0.079 -1.104,0.953 -2.281,3.907 -0.584,6.245 l 7.704,1.312 c 0.074,-0.65 0.099,-1.26 0.11,-1.844 0.025,-0.078 0.052,-0.15 0.088,-0.213 0.376,-0.713 0.136,-1.292 -0.307,-2.229 z"
     id="path883" />
  <path
     style="fill:#231f20;fill-opacity:1;fill-rule:nonzero;stroke:none"
     d="m 118.339,56.358 c -0.416,-0.495 -0.391,-2.443 -0.984,-3.937 -0.407,-1.006 -0.298,-3.75 -0.771,-4.724 -0.437,-0.891 -0.557,-1.344 0.385,-2.016 0.547,-0.4 1.875,-0.807 2.188,-0.411 0.739,0.932 0.995,1.849 1.058,2.916 0.072,1.209 -0.027,4.521 -0.1,5.131 -0.192,1.51 0.188,2.14 0.177,2.546 -0.02,0.76 -0.317,0.938 -0.817,1.032 -0.938,0.176 -1.136,-0.537 -1.136,-0.537"
     id="path884" />
  <path
     style="fill:none;stroke:#231f20;stroke-width:0.565977;stroke-linecap:butt;stroke-linejoin:miter;stroke-miterlimit:4;stroke-dasharray:none;stroke-opacity:1"
     d="m 118.339,56.358 c -0.416,-0.495 -0.391,-2.443 -0.984,-3.937 -0.407,-1.006 -0.298,-3.75 -0.771,-4.724 -0.437,-0.891 -0.557,-1.344 0.385,-2.016 0.547,-0.4 1.875,-0.807 2.188,-0.411 0.739,0.932 0.995,1.849 1.058,2.916 0.072,1.209 -0.027,4.521 -0.1,5.131 -0.192,1.51 0.188,2.14 0.177,2.546 -0.02,0.76 -0.317,0.938 -0.817,1.032 -0.938,0.176 -1.136,-0.537 -1.136,-0.537 z"
     id="path885" />
  <path
     style="fill:#231f20;fill-opacity:1;fill-rule:nonzero;stroke:none"
     d="m 117.167,47.374 c -1.291,0.021 -0.958,-1.984 -0.952,-2.527 0.004,-0.546 -0.152,-2.093 -0.428,-3.281 -0.276,-1.197 -0.11,-2.801 -0.635,-5.067 -0.276,-1.193 0.213,-2.526 1.957,-2.849 1.724,-0.323 2.558,0.525 2.672,2.021 0.115,1.49 -0.405,2.938 -0.396,4.452 0.011,1.511 0.163,3.052 0.339,4.251 0.199,1.369 -0.208,2.12 -0.615,2.369 -1.02,0.62 -1.942,0.631 -1.942,0.631"
     id="path886" />
  <path
     style="fill:none;stroke:#231f20;stroke-width:0.565977;stroke-linecap:butt;stroke-linejoin:miter;stroke-miterlimit:4;stroke-dasharray:none;stroke-opacity:1"
     d="m 117.167,47.374 c -1.291,0.021 -0.958,-1.984 -0.952,-2.527 0.004,-0.546 -0.152,-2.093 -0.428,-3.281 -0.276,-1.197 -0.11,-2.801 -0.635,-5.067 -0.276,-1.193 0.213,-2.526 1.957,-2.849 1.724,-0.323 2.558,0.525 2.672,2.021 0.115,1.49 -0.405,2.938 -0.396,4.452 0.011,1.511 0.163,3.052 0.339,4.251 0.199,1.369 -0.208,2.12 -0.615,2.369 -1.02,0.62 -1.942,0.631 -1.942,0.631 z"
     id="path887" />
  <path
     style="fill:#231f20;fill-opacity:1;fill-rule:nonzero;stroke:none"
     d="m 293.294,25.89 c 0.22,1.333 -0.64,1.833 -1.65,1.661 -0.32,-0.052 -0.63,0.208 -0.92,0.135 -0.68,-0.177 -1.51,-1.713 -0.41,-2.724 0.08,-0.072 0.49,-0.786 0.88,-1.265 0.76,-0.948 2.74,-2.468 5.41,-2.093 1.27,0.177 0.93,0.896 0.4,0.978 -1.7,0.26 -1.79,0.615 -2.21,0.85 -1.42,0.776 -1.5,2.458 -1.5,2.458"
     id="path888" />
  <path
     style="fill:none;stroke:#231f20;stroke-width:0.332927;stroke-linecap:butt;stroke-linejoin:miter;stroke-miterlimit:4;stroke-dasharray:none;stroke-opacity:1"
     d="m 293.294,25.89 c 0.22,1.333 -0.64,1.833 -1.65,1.661 -0.32,-0.052 -0.63,0.208 -0.92,0.135 -0.68,-0.177 -1.51,-1.713 -0.41,-2.724 0.08,-0.072 0.49,-0.786 0.88,-1.265 0.76,-0.948 2.74,-2.468 5.41,-2.093 1.27,0.177 0.93,0.896 0.4,0.978 -1.7,0.26 -1.79,0.615 -2.21,0.85 -1.42,0.776 -1.5,2.458 -1.5,2.458 z"
     id="path889" />
  <path
     style="fill:#231f20;fill-opacity:1;fill-rule:nonzero;stroke:none"
     d="m 279.294,38.369 c 1.42,1.75 1.95,1.906 2.73,1.349 0.52,-0.371 1.13,-0.537 1.46,-0.745 1.08,-0.703 2.64,-2.328 5.82,-8.094 0.72,-1.308 1.74,-3.136 2.22,-3.844 0.76,-1.125 -1.63,-1.619 -1.92,-1.188 -0.98,1.423 -1.76,2.314 -2.18,2.772 -0.28,0.312 -0.72,0.943 -1.99,2.02 -1.92,1.636 -3.32,2.328 -4.76,3.875 -0.67,0.719 -1.63,0.839 -1.93,1.881 -0.31,1.042 0.55,1.974 0.55,1.974"
     id="path890" />
  <path
     style="fill:none;stroke:#231f20;stroke-width:0.565977;stroke-linecap:butt;stroke-linejoin:miter;stroke-miterlimit:4;stroke-dasharray:none;stroke-opacity:1"
     d="m 279.294,38.369 c 1.42,1.75 1.95,1.906 2.73,1.349 0.52,-0.371 1.13,-0.537 1.46,-0.745 1.08,-0.703 2.64,-2.328 5.82,-8.094 0.72,-1.308 1.74,-3.136 2.22,-3.844 0.76,-1.125 -1.63,-1.619 -1.92,-1.188 -0.98,1.423 -1.76,2.314 -2.18,2.772 -0.28,0.312 -0.72,0.943 -1.99,2.02 -1.92,1.636 -3.32,2.328 -4.76,3.875 -0.67,0.719 -1.63,0.839 -1.93,1.881 -0.31,1.042 0.55,1.974 0.55,1.974 z"
     id="path891" />
  <path
     style="fill:#ca0369;fill-opacity:1;fill-rule:nonzero;stroke:none"
     d="m 260.294,56.509 c 2.98,-0.968 3.73,-0.848 4.64,-0.771 5.76,0.521 5.91,-2.312 4.54,-4.848 -1.61,-2.985 -2.13,-4.089 -7.91,-1.584 -1.6,0.699 -8.116,2.563 -8.116,2.563 -2.422,0.354 -4.594,1.989 -5,3.39 -0.427,1.47 -0.146,0.916 -0.296,2.355 -0.136,1.369 0.77,3.359 1.962,3.692 1.142,0.328 2.35,-0.828 4.308,-2.255 1.547,-1.125 5.872,-2.542 5.872,-2.542"
     id="path892" />
  <path
     style="fill:none;stroke:#231f20;stroke-width:0.565977;stroke-linecap:butt;stroke-linejoin:miter;stroke-miterlimit:4;stroke-dasharray:none;stroke-opacity:1"
     d="m 260.294,56.509 c 2.98,-0.968 3.73,-0.848 4.64,-0.771 5.76,0.521 5.91,-2.312 4.54,-4.848 -1.61,-2.985 -2.13,-4.089 -7.91,-1.584 -1.6,0.699 -8.116,2.563 -8.116,2.563 -2.422,0.354 -4.594,1.989 -5,3.39 -0.427,1.47 -0.146,0.916 -0.296,2.355 -0.136,1.369 0.77,3.359 1.962,3.692 1.142,0.328 2.35,-0.828 4.308,-2.255 1.547,-1.125 5.872,-2.542 5.872,-2.542 z"
     id="path893" />
  <path
     style="fill:#ffffff;fill-opacity:1;fill-rule:nonzero;stroke:none"
     d="m 244.406,51.671 c -0.208,-0.125 0.074,-1.234 -0.421,-1.401 -0.5,-0.167 -0.933,0.489 -2.907,0.724 h -0.021 c -1.452,0.125 -2.656,0.817 -3.151,1.968 -0.817,1.912 0.626,4.36 3.219,5.475 2.604,1.104 5.365,0.462 6.188,-1.448 0.781,-1.834 -0.505,-4.156 -2.907,-5.318"
     id="path894" />
  <path
     style="fill:none;stroke:#231f20;stroke-width:0.565977;stroke-linecap:butt;stroke-linejoin:miter;stroke-miterlimit:4;stroke-dasharray:none;stroke-opacity:1"
     d="m 244.406,51.671 c -0.208,-0.125 0.074,-1.234 -0.421,-1.401 -0.5,-0.167 -0.933,0.489 -2.907,0.724 h -0.021 c -1.452,0.125 -2.656,0.817 -3.151,1.968 -0.817,1.912 0.626,4.36 3.219,5.475 2.604,1.104 5.365,0.462 6.188,-1.448 0.781,-1.834 -0.505,-4.156 -2.907,-5.318 z"
     id="path895" />
  <path
     style="fill:#231f20;fill-opacity:1;fill-rule:nonzero;stroke:none"
     d="m 281.514,37.286 c -2.26,-3.319 -4.24,0.249 -4.63,0.52 -4.17,2.803 -4.39,3.109 -7.4,5.464 -4.35,3.411 -6.81,6.411 -5.57,9.52 0.85,2.109 2.25,2.969 3.56,2.959 1.46,-0.006 4.28,-1.474 4.52,-4.359 l 1.02,-1.371 c 0.8,-0.844 1.19,-1.26 1.62,-1.645 0.75,-0.672 1.51,-1.427 2.9,-2.803 2.46,-2.448 4.26,-5.848 4.26,-5.848 0.86,-0.896 -0.28,-2.437 -0.28,-2.437"
     id="path896" />
  <path
     style="fill:none;stroke:#231f20;stroke-width:0.565977;stroke-linecap:butt;stroke-linejoin:miter;stroke-miterlimit:4;stroke-dasharray:none;stroke-opacity:1"
     d="m 281.514,37.286 c -2.26,-3.319 -4.24,0.249 -4.63,0.52 -4.17,2.803 -4.39,3.109 -7.4,5.464 -4.35,3.411 -6.81,6.411 -5.57,9.52 0.85,2.109 2.25,2.969 3.56,2.959 1.46,-0.006 4.28,-1.474 4.52,-4.359 l 1.02,-1.371 c 0.8,-0.844 1.19,-1.26 1.62,-1.645 0.75,-0.672 1.51,-1.427 2.9,-2.803 2.46,-2.448 4.26,-5.848 4.26,-5.848 0.86,-0.896 -0.28,-2.437 -0.28,-2.437 z"
     id="path897" />
  <path
     style="fill:#231f20;fill-opacity:1;fill-rule:nonzero;stroke:none"
     d="m 229.98,55.114 c 0.609,-0.235 2.437,0.427 4.046,0.343 1.079,-0.047 3.64,0.948 4.714,0.818 0.989,-0.12 1.453,-0.089 1.781,1.015 0.197,0.657 0.156,2.043 -0.328,2.215 -1.12,0.394 -2.063,0.333 -3.093,0.046 -1.172,-0.328 -4.271,-1.5 -4.824,-1.77 -1.359,-0.672 -2.083,-0.516 -2.463,-0.658 -0.708,-0.27 -0.781,-0.609 -0.708,-1.109 0.135,-0.948 0.875,-0.9 0.875,-0.9"
     id="path898" />
  <path
     style="fill:none;stroke:#231f20;stroke-width:0.565977;stroke-linecap:butt;stroke-linejoin:miter;stroke-miterlimit:4;stroke-dasharray:none;stroke-opacity:1"
     d="m 229.98,55.114 c 0.609,-0.235 2.437,0.427 4.046,0.343 1.079,-0.047 3.64,0.948 4.714,0.818 0.989,-0.12 1.453,-0.089 1.781,1.015 0.197,0.657 0.156,2.043 -0.328,2.215 -1.12,0.394 -2.063,0.333 -3.093,0.046 -1.172,-0.328 -4.271,-1.5 -4.824,-1.77 -1.359,-0.672 -2.083,-0.516 -2.463,-0.658 -0.708,-0.27 -0.781,-0.609 -0.708,-1.109 0.135,-0.948 0.875,-0.9 0.875,-0.9 z"
     id="path899" />
  <path
     style="fill:#231f20;fill-opacity:1;fill-rule:nonzero;stroke:none"
     d="m 238.516,57.051 c 0.057,-1.292 2.041,-0.838 2.584,-0.802 0.541,0.041 2.098,-0.02 3.301,-0.224 1.208,-0.208 2.797,0.052 5.095,-0.334 1.208,-0.202 2.509,0.36 2.722,2.12 0.22,1.746 -0.676,2.522 -2.17,2.552 -1.496,0.022 -2.918,-0.588 -4.423,-0.661 -1.511,-0.083 -3.057,-0.025 -4.265,0.079 -1.38,0.118 -2.104,-0.334 -2.328,-0.756 -0.563,-1.052 -0.516,-1.974 -0.516,-1.974"
     id="path900" />
  <path
     style="fill:none;stroke:#231f20;stroke-width:0.565977;stroke-linecap:butt;stroke-linejoin:miter;stroke-miterlimit:4;stroke-dasharray:none;stroke-opacity:1"
     d="m 238.516,57.051 c 0.057,-1.292 2.041,-0.838 2.584,-0.802 0.541,0.041 2.098,-0.02 3.301,-0.224 1.208,-0.208 2.797,0.052 5.095,-0.334 1.208,-0.202 2.509,0.36 2.722,2.12 0.22,1.746 -0.676,2.522 -2.17,2.552 -1.496,0.022 -2.918,-0.588 -4.423,-0.661 -1.511,-0.083 -3.057,-0.025 -4.265,0.079 -1.38,0.118 -2.104,-0.334 -2.328,-0.756 -0.563,-1.052 -0.516,-1.974 -0.516,-1.974 z"
     id="path901" />
  <path
     style="fill:#231f20;fill-opacity:1;fill-rule:nonzero;stroke:none"
     d="m 229.016,57.39 c -0.558,0.421 -2.64,-0.589 -2.599,-0.907 0.036,-0.312 0.683,0.094 0.745,-0.254 0.056,-0.355 -0.401,-0.552 -0.302,-0.762 0.104,-0.229 0.62,0.099 0.692,-0.197 0.032,-0.125 -0.328,-0.604 -0.198,-0.74 0.11,-0.125 0.626,-0.041 0.724,-0.135 0.156,-0.152 -0.338,-0.521 -0.218,-0.657 0.302,-0.359 2.224,1.557 2.208,1.803 -0.02,0.354 -0.151,1.166 -1.052,1.849"
     id="path902" />
  <path
     style="fill:none;stroke:#231f20;stroke-width:0.565977;stroke-linecap:round;stroke-linejoin:round;stroke-miterlimit:4;stroke-dasharray:none;stroke-opacity:1"
     d="m 229.016,57.39 c -0.558,0.421 -2.64,-0.589 -2.599,-0.907 0.036,-0.312 0.683,0.094 0.745,-0.254 0.056,-0.355 -0.401,-0.552 -0.302,-0.762 0.104,-0.229 0.62,0.099 0.692,-0.197 0.032,-0.125 -0.328,-0.604 -0.198,-0.74 0.11,-0.125 0.626,-0.041 0.724,-0.135 0.156,-0.152 -0.338,-0.521 -0.218,-0.657 0.302,-0.359 2.224,1.557 2.208,1.803 -0.02,0.354 -0.151,1.166 -1.052,1.849 z"
     id="path903" />
  <path
     style="fill:#ca0369;fill-opacity:1;fill-rule:nonzero;stroke:#231f20;stroke-width:0.565977;stroke-linecap:butt;stroke-linejoin:miter;stroke-miterlimit:4;stroke-dasharray:none;stroke-opacity:1"
     d="m 267.144,45.181 c -2.77,2.532 -4.14,4.906 -3.19,7.381 0.83,2.119 2.21,2.984 3.53,3 1.46,0.009 4.3,-1.428 4.57,-4.297 z"
     id="path904" />
  <path
     style="fill:#ffffff;fill-opacity:1;fill-rule:nonzero;stroke:#231f20;stroke-width:0.665856;stroke-linecap:butt;stroke-linejoin:miter;stroke-miterlimit:4;stroke-dasharray:none;stroke-opacity:1"
     d="m 118.491,48.379 h 1.328 V 16.702 h -1.328 z"
     id="path905" />
  <path
     style="fill:#ffffff;fill-opacity:1;fill-rule:nonzero;stroke:none"
     d="m 114.885,53.317 c 0,-2.355 1.912,-4.271 4.272,-4.271 2.354,0 4.266,1.916 4.266,4.271 0,2.354 -1.912,4.265 -4.266,4.265 -2.36,0 -4.272,-1.911 -4.272,-4.265 m -1.333,0 c 0,3.082 2.511,5.598 5.605,5.598 3.083,0 5.599,-2.516 5.599,-5.598 0,-3.088 -2.516,-5.604 -5.599,-5.604 -3.094,0 -5.605,2.516 -5.605,5.604"
     id="path906" />
  <path
     style="fill:none;stroke:#231f20;stroke-width:0.665856;stroke-linecap:butt;stroke-linejoin:miter;stroke-miterlimit:4;stroke-dasharray:none;stroke-opacity:1"
     d="m 114.885,53.317 c 0,-2.355 1.912,-4.271 4.272,-4.271 2.354,0 4.266,1.916 4.266,4.271 0,2.354 -1.912,4.265 -4.266,4.265 -2.36,0 -4.272,-1.911 -4.272,-4.265 z m -1.333,0 c 0,3.082 2.511,5.598 5.605,5.598 3.083,0 5.599,-2.516 5.599,-5.598 0,-3.088 -2.516,-5.604 -5.599,-5.604 -3.094,0 -5.605,2.516 -5.605,5.604 z"
     id="path907" />
  <path
     style="fill:#231f20;fill-opacity:1;fill-rule:nonzero;stroke:none"
     d="m 120.319,56.405 c 0.645,0.276 0.786,2.584 0.494,2.709 -0.297,0.119 -0.261,-0.647 -0.594,-0.527 -0.338,0.126 -0.28,0.626 -0.51,0.642 -0.25,0.014 -0.224,-0.59 -0.516,-0.506 -0.125,0.031 -0.36,0.578 -0.546,0.536 -0.162,-0.041 -0.344,-0.53 -0.475,-0.568 -0.203,-0.062 -0.287,0.547 -0.463,0.516 -0.458,-0.088 0.266,-2.702 0.484,-2.812 0.318,-0.157 1.094,-0.438 2.126,0.01"
     id="path908" />
  <path
     style="fill:none;stroke:#231f20;stroke-width:0.565977;stroke-linecap:round;stroke-linejoin:round;stroke-miterlimit:4;stroke-dasharray:none;stroke-opacity:1"
     d="m 120.319,56.405 c 0.645,0.276 0.786,2.584 0.494,2.709 -0.297,0.119 -0.261,-0.647 -0.594,-0.527 -0.338,0.126 -0.28,0.626 -0.51,0.642 -0.25,0.014 -0.224,-0.59 -0.516,-0.506 -0.125,0.031 -0.36,0.578 -0.546,0.536 -0.162,-0.041 -0.344,-0.53 -0.475,-0.568 -0.203,-0.062 -0.287,0.547 -0.463,0.516 -0.458,-0.088 0.266,-2.702 0.484,-2.812 0.318,-0.157 1.094,-0.438 2.126,0.01 z"
     id="path909" />
  <path
     style="fill:#231f20;fill-opacity:1;fill-rule:nonzero;stroke:none"
     d="m 318.484,133.175 c -1.04,-0.869 -0.71,-1.806 0.17,-2.337 0.27,-0.157 0.34,-0.568 0.61,-0.704 0.63,-0.312 2.26,0.318 2.08,1.808 -0.01,0.104 0.14,0.91 0.16,1.53 0.04,1.209 -0.47,3.657 -2.74,5.11 -1.07,0.693 -1.28,-0.068 -0.93,-0.479 1.11,-1.303 0.95,-1.636 1.12,-2.084 0.57,-1.514 -0.47,-2.844 -0.47,-2.844"
     id="path910" />
  <path
     style="fill:none;stroke:#231f20;stroke-width:0.332927;stroke-linecap:butt;stroke-linejoin:miter;stroke-miterlimit:4;stroke-dasharray:none;stroke-opacity:1"
     d="m 318.484,133.175 c -1.04,-0.869 -0.71,-1.806 0.17,-2.337 0.27,-0.157 0.34,-0.568 0.61,-0.704 0.63,-0.312 2.26,0.318 2.08,1.808 -0.01,0.104 0.14,0.91 0.16,1.53 0.04,1.209 -0.47,3.657 -2.74,5.11 -1.07,0.693 -1.28,-0.068 -0.93,-0.479 1.11,-1.303 0.95,-1.636 1.12,-2.084 0.57,-1.514 -0.47,-2.844 -0.47,-2.844 z"
     id="path911" />
  <path
     style="fill:#231f20;fill-opacity:1;fill-rule:nonzero;stroke:none"
     d="m 320.964,114.587 c -2.23,-0.396 -2.72,-0.172 -2.95,0.76 -0.15,0.615 -0.51,1.141 -0.62,1.511 -0.37,1.245 -0.48,3.485 0.86,9.932 0.3,1.464 0.72,3.516 0.82,4.365 0.17,1.354 2.29,0.173 2.23,-0.36 -0.18,-1.702 -0.17,-2.89 -0.15,-3.514 0.01,-0.423 -0.07,-1.183 0.18,-2.829 0.4,-2.495 1.01,-3.933 1.09,-6.047 0.04,-0.979 0.7,-1.693 0.24,-2.676 -0.45,-0.991 -1.7,-1.142 -1.7,-1.142"
     id="path912" />
  <path
     style="fill:none;stroke:#231f20;stroke-width:0.565977;stroke-linecap:butt;stroke-linejoin:miter;stroke-miterlimit:4;stroke-dasharray:none;stroke-opacity:1"
     d="m 320.964,114.587 c -2.23,-0.396 -2.72,-0.172 -2.95,0.76 -0.15,0.615 -0.51,1.141 -0.62,1.511 -0.37,1.245 -0.48,3.485 0.86,9.932 0.3,1.464 0.72,3.516 0.82,4.365 0.17,1.354 2.29,0.173 2.23,-0.36 -0.18,-1.702 -0.17,-2.89 -0.15,-3.514 0.01,-0.423 -0.07,-1.183 0.18,-2.829 0.4,-2.495 1.01,-3.933 1.09,-6.047 0.04,-0.979 0.7,-1.693 0.24,-2.676 -0.45,-0.991 -1.7,-1.142 -1.7,-1.142 z"
     id="path913" />
  <path
     style="fill:#ca0369;fill-opacity:1;fill-rule:nonzero;stroke:none"
     d="m 319.004,88.671 c -0.07,3.13 -0.42,3.796 -0.8,4.635 -2.39,5.265 0.24,6.334 3.09,5.875 3.35,-0.536 4.55,-0.662 4.1,-6.938 -0.13,-1.744 0.25,-8.51 0.25,-8.51 0.46,-2.4 -0.37,-4.995 -1.55,-5.834 -1.26,-0.889 -0.82,-0.446 -2.13,-1.061 -1.25,-0.584 -3.42,-0.376 -4.13,0.635 -0.68,0.974 0,2.494 0.71,4.817 0.55,1.829 0.46,6.381 0.46,6.381"
     id="path914" />
  <path
     style="fill:none;stroke:#231f20;stroke-width:0.565977;stroke-linecap:butt;stroke-linejoin:miter;stroke-miterlimit:4;stroke-dasharray:none;stroke-opacity:1"
     d="m 319.004,88.671 c -0.07,3.13 -0.42,3.796 -0.8,4.635 -2.39,5.265 0.24,6.334 3.09,5.875 3.35,-0.536 4.55,-0.662 4.1,-6.938 -0.13,-1.744 0.25,-8.51 0.25,-8.51 0.46,-2.4 -0.37,-4.995 -1.55,-5.834 -1.26,-0.889 -0.82,-0.446 -2.13,-1.061 -1.25,-0.584 -3.42,-0.376 -4.13,0.635 -0.68,0.974 0,2.494 0.71,4.817 0.55,1.829 0.46,6.381 0.46,6.381 z"
     id="path915" />
  <path
     style="fill:#ffffff;fill-opacity:1;fill-rule:nonzero;stroke:none"
     d="m 324.384,70.879 c 0.05,-0.24 1.19,-0.322 1.19,-0.849 0,-0.521 -0.76,-0.724 -1.61,-2.521 l -0.01,-0.02 c -0.57,-1.339 -1.61,-2.26 -2.86,-2.366 -2.07,-0.17 -3.94,1.975 -4.17,4.787 -0.23,2.813 1.26,5.235 3.33,5.407 1.98,0.166 3.78,-1.798 4.13,-4.438"
     id="path916" />
  <path
     style="fill:none;stroke:#231f20;stroke-width:0.565977;stroke-linecap:butt;stroke-linejoin:miter;stroke-miterlimit:4;stroke-dasharray:none;stroke-opacity:1"
     d="m 324.384,70.879 c 0.05,-0.24 1.19,-0.322 1.19,-0.849 0,-0.521 -0.76,-0.724 -1.61,-2.521 l -0.01,-0.02 c -0.57,-1.339 -1.61,-2.26 -2.86,-2.366 -2.07,-0.17 -3.94,1.975 -4.17,4.787 -0.23,2.813 1.26,5.235 3.33,5.407 1.98,0.166 3.78,-1.798 4.13,-4.438 z"
     id="path917" />
  <path
     style="fill:#231f20;fill-opacity:1;fill-rule:nonzero;stroke:none"
     d="m 319.984,116.858 c 3.88,1.037 3.05,-2.963 3.18,-3.422 1.32,-4.833 1.29,-5.213 2.03,-8.963 1.08,-5.422 0.99,-9.298 -1.98,-10.85 -2.02,-1.046 -3.63,-0.781 -4.63,0.079 -1.1,0.958 -2.28,3.912 -0.58,6.245 l 0.13,1.708 c -0.07,1.162 -0.09,1.74 -0.17,2.312 -0.13,0.99 -0.21,2.063 -0.36,4.011 -0.27,3.464 0.58,7.213 0.58,7.213 -0.06,1.245 1.8,1.667 1.8,1.667"
     id="path918" />
  <path
     style="fill:none;stroke:#231f20;stroke-width:0.565977;stroke-linecap:butt;stroke-linejoin:miter;stroke-miterlimit:4;stroke-dasharray:none;stroke-opacity:1"
     d="m 319.984,116.858 c 3.88,1.037 3.05,-2.963 3.18,-3.422 1.32,-4.833 1.29,-5.213 2.03,-8.963 1.08,-5.422 0.99,-9.298 -1.98,-10.85 -2.02,-1.046 -3.63,-0.781 -4.63,0.079 -1.1,0.958 -2.28,3.912 -0.58,6.245 l 0.13,1.708 c -0.07,1.162 -0.09,1.74 -0.17,2.312 -0.13,0.99 -0.21,2.063 -0.36,4.011 -0.27,3.464 0.58,7.213 0.58,7.213 -0.06,1.245 1.8,1.667 1.8,1.667 z"
     id="path919" />
  <path
     style="fill:#ca0369;fill-opacity:1;fill-rule:nonzero;stroke:none"
     d="m 325.594,96.973 c -0.34,-1.516 -1.07,-2.667 -2.38,-3.35 -2.02,-1.046 -3.63,-0.781 -4.63,0.079 -1.1,0.958 -2.28,3.912 -0.58,6.245 l 7.7,1.318 c 0.07,-0.656 0.1,-1.26 0.11,-1.844 0.02,-0.078 0.06,-0.151 0.09,-0.214 0.38,-0.713 0.13,-1.297 -0.31,-2.234"
     id="path920" />
  <path
     style="fill:none;stroke:#231f20;stroke-width:0.565977;stroke-linecap:butt;stroke-linejoin:miter;stroke-miterlimit:4;stroke-dasharray:none;stroke-opacity:1"
     d="m 325.594,96.973 c -0.34,-1.516 -1.07,-2.667 -2.38,-3.35 -2.02,-1.046 -3.63,-0.781 -4.63,0.079 -1.1,0.958 -2.28,3.912 -0.58,6.245 l 7.7,1.318 c 0.07,-0.656 0.1,-1.26 0.11,-1.844 0.02,-0.078 0.06,-0.151 0.09,-0.214 0.38,-0.713 0.13,-1.297 -0.31,-2.234 z"
     id="path921" />
  <path
     style="fill:#231f20;fill-opacity:1;fill-rule:nonzero;stroke:none"
     d="m 321.634,59.197 c 0.39,0.51 0.27,2.453 0.79,3.974 0.35,1.026 0.11,3.766 0.53,4.76 0.39,0.911 0.49,1.37 -0.48,1.995 -0.57,0.369 -1.92,0.713 -2.21,0.297 -0.7,-0.964 -0.9,-1.89 -0.91,-2.964 -0.01,-1.213 0.25,-4.51 0.35,-5.114 0.28,-1.5 -0.08,-2.151 -0.05,-2.558 0.06,-0.754 0.37,-0.921 0.87,-0.984 0.95,-0.13 1.11,0.594 1.11,0.594"
     id="path922" />
  <path
     style="fill:none;stroke:#231f20;stroke-width:0.565977;stroke-linecap:butt;stroke-linejoin:miter;stroke-miterlimit:4;stroke-dasharray:none;stroke-opacity:1"
     d="m 321.634,59.197 c 0.39,0.51 0.27,2.453 0.79,3.974 0.35,1.026 0.11,3.766 0.53,4.76 0.39,0.911 0.49,1.37 -0.48,1.995 -0.57,0.369 -1.92,0.713 -2.21,0.297 -0.7,-0.964 -0.9,-1.89 -0.91,-2.964 -0.01,-1.213 0.25,-4.51 0.35,-5.114 0.28,-1.5 -0.08,-2.151 -0.05,-2.558 0.06,-0.754 0.37,-0.921 0.87,-0.984 0.95,-0.13 1.11,0.594 1.11,0.594 z"
     id="path923" />
  <path
     style="fill:#231f20;fill-opacity:1;fill-rule:nonzero;stroke:none"
     d="m 322.354,68.223 c 1.29,0.042 0.86,2.031 0.83,2.572 -0.04,0.543 0.04,2.1 0.26,3.303 0.21,1.203 -0.03,2.801 0.38,5.088 0.21,1.209 -0.34,2.516 -2.1,2.751 -1.73,0.234 -2.53,-0.656 -2.57,-2.151 -0.03,-1.496 0.56,-2.917 0.62,-4.433 0.07,-1.506 0,-3.052 -0.12,-4.26 -0.13,-1.38 0.31,-2.104 0.73,-2.334 1.05,-0.573 1.97,-0.536 1.97,-0.536"
     id="path924" />
  <path
     style="fill:none;stroke:#231f20;stroke-width:0.565977;stroke-linecap:butt;stroke-linejoin:miter;stroke-miterlimit:4;stroke-dasharray:none;stroke-opacity:1"
     d="m 322.354,68.223 c 1.29,0.042 0.86,2.031 0.83,2.572 -0.04,0.543 0.04,2.1 0.26,3.303 0.21,1.203 -0.03,2.801 0.38,5.088 0.21,1.209 -0.34,2.516 -2.1,2.751 -1.73,0.234 -2.53,-0.656 -2.57,-2.151 -0.03,-1.496 0.56,-2.917 0.62,-4.433 0.07,-1.506 0,-3.052 -0.12,-4.26 -0.13,-1.38 0.31,-2.104 0.73,-2.334 1.05,-0.573 1.97,-0.536 1.97,-0.536 z"
     id="path925" />
  <path
     style="fill:#ffffff;fill-opacity:1;fill-rule:nonzero;stroke:#231f20;stroke-width:0.665856;stroke-linecap:butt;stroke-linejoin:miter;stroke-miterlimit:4;stroke-dasharray:none;stroke-opacity:1"
     d="m 320.104,48.379 h 1.33 V 16.702 h -1.33 z"
     id="path926" />
  <path
     style="fill:#ffffff;fill-opacity:1;fill-rule:nonzero;stroke:none"
     d="m 316.504,53.317 c 0,-2.355 1.91,-4.271 4.27,-4.271 2.35,0 4.27,1.916 4.27,4.271 0,2.354 -1.92,4.265 -4.27,4.265 -2.36,0 -4.27,-1.911 -4.27,-4.265 m -1.33,0 c 0,3.082 2.51,5.598 5.6,5.598 3.09,0 5.6,-2.516 5.6,-5.598 0,-3.088 -2.51,-5.604 -5.6,-5.604 -3.09,0 -5.6,2.516 -5.6,5.604"
     id="path927" />
  <path
     style="fill:none;stroke:#231f20;stroke-width:0.665856;stroke-linecap:butt;stroke-linejoin:miter;stroke-miterlimit:4;stroke-dasharray:none;stroke-opacity:1"
     d="m 316.504,53.317 c 0,-2.355 1.91,-4.271 4.27,-4.271 2.35,0 4.27,1.916 4.27,4.271 0,2.354 -1.92,4.265 -4.27,4.265 -2.36,0 -4.27,-1.911 -4.27,-4.265 z m -1.33,0 c 0,3.082 2.51,5.598 5.6,5.598 3.09,0 5.6,-2.516 5.6,-5.598 0,-3.088 -2.51,-5.604 -5.6,-5.604 -3.09,0 -5.6,2.516 -5.6,5.604 z"
     id="path928" />
  <path
     style="fill:#231f20;fill-opacity:1;fill-rule:nonzero;stroke:none"
     d="m 319.664,59.051 c -0.63,-0.313 -0.66,-2.625 -0.36,-2.734 0.3,-0.104 0.23,0.656 0.57,0.552 0.34,-0.104 0.31,-0.604 0.54,-0.61 0.25,-0.005 0.19,0.594 0.49,0.531 0.12,-0.031 0.38,-0.561 0.57,-0.509 0.16,0.046 0.32,0.546 0.44,0.588 0.21,0.073 0.32,-0.531 0.49,-0.49 0.45,0.11 -0.4,2.687 -0.62,2.782 -0.33,0.14 -1.11,0.385 -2.12,-0.11"
     id="path929" />
  <path
     style="fill:none;stroke:#231f20;stroke-width:0.565977;stroke-linecap:round;stroke-linejoin:round;stroke-miterlimit:4;stroke-dasharray:none;stroke-opacity:1"
     d="m 319.664,59.051 c -0.63,-0.313 -0.66,-2.625 -0.36,-2.734 0.3,-0.104 0.23,0.656 0.57,0.552 0.34,-0.104 0.31,-0.604 0.54,-0.61 0.25,-0.005 0.19,0.594 0.49,0.531 0.12,-0.031 0.38,-0.561 0.57,-0.509 0.16,0.046 0.32,0.546 0.44,0.588 0.21,0.073 0.32,-0.531 0.49,-0.49 0.45,0.11 -0.4,2.687 -0.62,2.782 -0.33,0.14 -1.11,0.385 -2.12,-0.11 z"
     id="path930" />
  <path
     style="fill:none;stroke:#231f20;stroke-width:0.399514;stroke-linecap:butt;stroke-linejoin:miter;stroke-miterlimit:4;stroke-dasharray:none;stroke-opacity:1"
     d="m 351.164,115.024 c -19.23,18.224 -48.98,1.074 -53.62,-4.515"
     id="path931" />
  <path
     style="fill:#231f20;fill-opacity:1;fill-rule:nonzero;stroke:none"
     d="m 296.774,109.582 c 0.53,0.303 1.25,0.615 1.82,0.708 l -0.95,0.339 -0.51,0.876 c 0.01,-0.579 -0.16,-1.355 -0.36,-1.923"
     id="path932" />
  <path
     style="fill:#231f20;fill-opacity:1;fill-rule:nonzero;stroke:none"
     d="m 204.912,22.405 c -0.131,1.349 -1.083,1.609 -2.022,1.172 -0.281,-0.129 -0.661,0.047 -0.921,-0.099 -0.615,-0.344 -1.016,-2.046 0.312,-2.74 0.1,-0.052 0.672,-0.634 1.172,-1 0.98,-0.713 3.287,-1.666 5.765,-0.614 1.183,0.496 0.667,1.1 0.131,1.037 -1.703,-0.177 -1.885,0.14 -2.355,0.255 -1.572,0.38 -2.082,1.989 -2.082,1.989"
     id="path933" />
  <path
     style="fill:none;stroke:#231f20;stroke-width:0.332927;stroke-linecap:butt;stroke-linejoin:miter;stroke-miterlimit:4;stroke-dasharray:none;stroke-opacity:1"
     d="m 204.912,22.405 c -0.131,1.349 -1.083,1.609 -2.022,1.172 -0.281,-0.129 -0.661,0.047 -0.921,-0.099 -0.615,-0.344 -1.016,-2.046 0.312,-2.74 0.1,-0.052 0.672,-0.634 1.172,-1 0.98,-0.713 3.287,-1.666 5.765,-0.614 1.183,0.496 0.667,1.1 0.131,1.037 -1.703,-0.177 -1.885,0.14 -2.355,0.255 -1.572,0.38 -2.082,1.989 -2.082,1.989 z"
     id="path934" />
  <path
     style="fill:#231f20;fill-opacity:1;fill-rule:nonzero;stroke:none"
     d="m 188.166,30.838 c 0.934,2.061 1.396,2.343 2.292,2.004 0.599,-0.219 1.23,-0.223 1.599,-0.337 1.24,-0.396 3.152,-1.568 7.719,-6.314 1.032,-1.077 2.496,-2.577 3.141,-3.139 1.021,-0.891 -1.156,-1.986 -1.557,-1.642 -1.308,1.115 -2.292,1.776 -2.808,2.115 -0.364,0.229 -0.947,0.724 -2.447,1.437 -2.287,1.079 -3.813,1.391 -5.609,2.511 -0.83,0.521 -1.792,0.385 -2.344,1.313 -0.563,0.927 0.014,2.052 0.014,2.052"
     id="path935" />
  <path
     style="fill:none;stroke:#231f20;stroke-width:0.565977;stroke-linecap:butt;stroke-linejoin:miter;stroke-miterlimit:4;stroke-dasharray:none;stroke-opacity:1"
     d="m 188.166,30.838 c 0.934,2.061 1.396,2.343 2.292,2.004 0.599,-0.219 1.23,-0.223 1.599,-0.337 1.24,-0.396 3.152,-1.568 7.719,-6.314 1.032,-1.077 2.496,-2.577 3.141,-3.139 1.021,-0.891 -1.156,-1.986 -1.557,-1.642 -1.308,1.115 -2.292,1.776 -2.808,2.115 -0.364,0.229 -0.947,0.724 -2.447,1.437 -2.287,1.079 -3.813,1.391 -5.609,2.511 -0.83,0.521 -1.792,0.385 -2.344,1.313 -0.563,0.927 0.014,2.052 0.014,2.052 z"
     id="path936" />
  <path
     style="fill:#ca0369;fill-opacity:1;fill-rule:nonzero;stroke:none"
     d="m 165.218,41.123 c 3.032,0.772 3.6,1.272 4.334,1.834 4.589,3.51 6.224,1.193 6.422,-1.687 0.23,-3.38 0.38,-4.589 -5.838,-5.557 -1.73,-0.271 -8.235,-2.167 -8.235,-2.167 -2.235,-0.995 -4.943,-0.771 -6.036,0.197 -1.147,1.016 -0.615,0.694 -1.511,1.834 -0.849,1.078 -1.14,3.245 -0.312,4.166 0.796,0.886 2.432,0.558 4.848,0.396 1.912,-0.125 6.328,0.984 6.328,0.984"
     id="path937" />
  <path
     style="fill:none;stroke:#231f20;stroke-width:0.565977;stroke-linecap:butt;stroke-linejoin:miter;stroke-miterlimit:4;stroke-dasharray:none;stroke-opacity:1"
     d="m 165.218,41.123 c 3.032,0.772 3.6,1.272 4.334,1.834 4.589,3.51 6.224,1.193 6.422,-1.687 0.23,-3.38 0.38,-4.589 -5.838,-5.557 -1.73,-0.271 -8.235,-2.167 -8.235,-2.167 -2.235,-0.995 -4.943,-0.771 -6.036,0.197 -1.147,1.016 -0.615,0.694 -1.511,1.834 -0.849,1.078 -1.14,3.245 -0.312,4.166 0.796,0.886 2.432,0.558 4.848,0.396 1.912,-0.125 6.328,0.984 6.328,0.984 z"
     id="path938" />
  <path
     style="fill:#ffffff;fill-opacity:1;fill-rule:nonzero;stroke:none"
     d="m 149.1,31.874 c -0.224,-0.099 -0.048,-1.235 -0.558,-1.355 -0.516,-0.114 -0.881,0.579 -2.824,1 l -0.02,0.006 c -1.432,0.256 -2.568,1.062 -2.953,2.256 -0.631,1.973 1.036,4.281 3.724,5.14 2.693,0.86 5.385,-0.042 6.021,-2.026 0.604,-1.89 -0.901,-4.084 -3.39,-5.021"
     id="path939" />
  <path
     style="fill:none;stroke:#231f20;stroke-width:0.565977;stroke-linecap:butt;stroke-linejoin:miter;stroke-miterlimit:4;stroke-dasharray:none;stroke-opacity:1"
     d="m 149.1,31.874 c -0.224,-0.099 -0.048,-1.235 -0.558,-1.355 -0.516,-0.114 -0.881,0.579 -2.824,1 l -0.02,0.006 c -1.432,0.256 -2.568,1.062 -2.953,2.256 -0.631,1.973 1.036,4.281 3.724,5.14 2.693,0.86 5.385,-0.042 6.021,-2.026 0.604,-1.89 -0.901,-4.084 -3.39,-5.021 z"
     id="path940" />
  <path
     style="fill:#231f20;fill-opacity:1;fill-rule:nonzero;stroke:none"
     d="m 190.6,30.363 c -1.334,-3.786 -4.172,-0.849 -4.62,-0.692 -4.735,1.63 -5.038,1.87 -8.552,3.37 -5.084,2.166 -8.235,4.426 -7.839,7.754 0.271,2.262 1.401,3.443 2.677,3.782 1.406,0.37 4.51,-0.323 5.484,-3.042 l 1.339,-1.068 c 0.995,-0.598 1.484,-0.91 1.995,-1.166 0.901,-0.448 1.828,-0.99 3.525,-1.968 3.011,-1.724 5.625,-4.543 5.625,-4.543 1.063,-0.645 0.366,-2.427 0.366,-2.427"
     id="path941" />
  <path
     style="fill:none;stroke:#231f20;stroke-width:0.565977;stroke-linecap:butt;stroke-linejoin:miter;stroke-miterlimit:4;stroke-dasharray:none;stroke-opacity:1"
     d="m 190.6,30.363 c -1.334,-3.786 -4.172,-0.849 -4.62,-0.692 -4.735,1.63 -5.038,1.87 -8.552,3.37 -5.084,2.166 -8.235,4.426 -7.839,7.754 0.271,2.262 1.401,3.443 2.677,3.782 1.406,0.37 4.51,-0.323 5.484,-3.042 l 1.339,-1.068 c 0.995,-0.598 1.484,-0.91 1.995,-1.166 0.901,-0.448 1.828,-0.99 3.525,-1.968 3.011,-1.724 5.625,-4.543 5.625,-4.543 1.063,-0.645 0.366,-2.427 0.366,-2.427 z"
     id="path942" />
  <path
     style="fill:#ca0369;fill-opacity:1;fill-rule:nonzero;stroke:#231f20;stroke-width:0.565977;stroke-linecap:butt;stroke-linejoin:miter;stroke-miterlimit:4;stroke-dasharray:none;stroke-opacity:1"
     d="m 174.49,34.431 c -0.578,0.307 -1.1,0.631 -1.584,0.954 -0.077,0.02 -0.156,0.036 -0.224,0.046 -0.801,0.088 -1.145,0.62 -1.672,1.511 -1.062,1.135 -1.598,2.391 -1.421,3.853 0.271,2.262 1.401,3.443 2.677,3.782 1.406,0.37 4.51,-0.323 5.484,-3.042 z"
     id="path943" />
  <path
     style="fill:#231f20;fill-opacity:1;fill-rule:nonzero;stroke:none"
     d="m 158.229,57.551 c -0.443,-0.469 -0.525,-2.412 -1.203,-3.87 -0.458,-0.984 -0.5,-3.728 -1.032,-4.671 -0.484,-0.871 -0.629,-1.313 0.267,-2.037 0.531,-0.432 1.833,-0.911 2.172,-0.531 0.791,0.891 1.093,1.787 1.213,2.848 0.14,1.209 0.224,4.516 0.187,5.131 -0.104,1.516 0.313,2.125 0.319,2.532 0.025,0.76 -0.262,0.957 -0.751,1.072 -0.932,0.229 -1.172,-0.474 -1.172,-0.474"
     id="path944" />
  <path
     style="fill:none;stroke:#231f20;stroke-width:0.565977;stroke-linecap:butt;stroke-linejoin:miter;stroke-miterlimit:4;stroke-dasharray:none;stroke-opacity:1"
     d="m 158.229,57.551 c -0.443,-0.469 -0.525,-2.412 -1.203,-3.87 -0.458,-0.984 -0.5,-3.728 -1.032,-4.671 -0.484,-0.871 -0.629,-1.313 0.267,-2.037 0.531,-0.432 1.833,-0.911 2.172,-0.531 0.791,0.891 1.093,1.787 1.213,2.848 0.14,1.209 0.224,4.516 0.187,5.131 -0.104,1.516 0.313,2.125 0.319,2.532 0.025,0.76 -0.262,0.957 -0.751,1.072 -0.932,0.229 -1.172,-0.474 -1.172,-0.474 z"
     id="path945" />
  <path
     style="fill:#231f20;fill-opacity:1;fill-rule:nonzero;stroke:none"
     d="m 156.562,48.65 c -1.29,0.093 -1.072,-1.927 -1.093,-2.469 -0.027,-0.542 -0.265,-2.083 -0.609,-3.255 -0.344,-1.177 -0.271,-2.787 -0.918,-5.021 -0.342,-1.176 0.068,-2.536 1.798,-2.952 1.702,-0.423 2.578,0.385 2.776,1.864 0.198,1.484 -0.24,2.958 -0.146,4.473 0.094,1.505 0.334,3.037 0.578,4.224 0.276,1.355 -0.094,2.125 -0.484,2.396 -0.984,0.683 -1.902,0.74 -1.902,0.74"
     id="path946" />
  <path
     style="fill:none;stroke:#231f20;stroke-width:0.565977;stroke-linecap:butt;stroke-linejoin:miter;stroke-miterlimit:4;stroke-dasharray:none;stroke-opacity:1"
     d="m 156.562,48.65 c -1.29,0.093 -1.072,-1.927 -1.093,-2.469 -0.027,-0.542 -0.265,-2.083 -0.609,-3.255 -0.344,-1.177 -0.271,-2.787 -0.918,-5.021 -0.342,-1.176 0.068,-2.536 1.798,-2.952 1.702,-0.423 2.578,0.385 2.776,1.864 0.198,1.484 -0.24,2.958 -0.146,4.473 0.094,1.505 0.334,3.037 0.578,4.224 0.276,1.355 -0.094,2.125 -0.484,2.396 -0.984,0.683 -1.902,0.74 -1.902,0.74 z"
     id="path947" />
  <path
     style="fill:#ffffff;fill-opacity:1;fill-rule:nonzero;stroke:#231f20;stroke-width:0.665856;stroke-linecap:butt;stroke-linejoin:miter;stroke-miterlimit:4;stroke-dasharray:none;stroke-opacity:1"
     d="m 158.496,48.65 h 1.333 V 16.973 h -1.333 z"
     id="path948" />
  <path
     style="fill:#ffffff;fill-opacity:1;fill-rule:nonzero;stroke:none"
     d="m 155.302,53.587 c 0,-2.358 1.916,-4.27 4.266,-4.27 2.354,0 4.27,1.912 4.27,4.27 0,2.355 -1.916,4.266 -4.27,4.266 -2.35,0 -4.266,-1.911 -4.266,-4.266 m -1.333,0 c 0,3.084 2.516,5.599 5.599,5.599 3.089,0 5.598,-2.515 5.598,-5.599 0,-3.088 -2.509,-5.604 -5.598,-5.604 -3.083,0 -5.599,2.516 -5.599,5.604"
     id="path949" />
  <path
     style="fill:none;stroke:#231f20;stroke-width:0.665856;stroke-linecap:butt;stroke-linejoin:miter;stroke-miterlimit:4;stroke-dasharray:none;stroke-opacity:1"
     d="m 155.302,53.587 c 0,-2.358 1.916,-4.27 4.266,-4.27 2.354,0 4.27,1.912 4.27,4.27 0,2.355 -1.916,4.266 -4.27,4.266 -2.35,0 -4.266,-1.911 -4.266,-4.266 z m -1.333,0 c 0,3.084 2.516,5.599 5.599,5.599 3.089,0 5.598,-2.515 5.598,-5.599 0,-3.088 -2.509,-5.604 -5.598,-5.604 -3.083,0 -5.599,2.516 -5.599,5.604 z"
     id="path950" />
  <path
     style="fill:#231f20;fill-opacity:1;fill-rule:nonzero;stroke:none"
     d="m 160.1,57.29 c 0.65,0.261 0.858,2.568 0.566,2.699 -0.285,0.13 -0.276,-0.642 -0.604,-0.506 -0.333,0.131 -0.265,0.626 -0.494,0.651 -0.25,0.021 -0.24,-0.583 -0.531,-0.495 -0.12,0.042 -0.344,0.59 -0.532,0.552 -0.161,-0.036 -0.353,-0.52 -0.484,-0.552 -0.208,-0.057 -0.276,0.558 -0.453,0.527 -0.459,-0.073 0.193,-2.709 0.406,-2.823 0.312,-0.168 1.078,-0.469 2.126,-0.053"
     id="path951" />
  <path
     style="fill:none;stroke:#231f20;stroke-width:0.565977;stroke-linecap:round;stroke-linejoin:round;stroke-miterlimit:4;stroke-dasharray:none;stroke-opacity:1"
     d="m 160.1,57.29 c 0.65,0.261 0.858,2.568 0.566,2.699 -0.285,0.13 -0.276,-0.642 -0.604,-0.506 -0.333,0.131 -0.265,0.626 -0.494,0.651 -0.25,0.021 -0.24,-0.583 -0.531,-0.495 -0.12,0.042 -0.344,0.59 -0.532,0.552 -0.161,-0.036 -0.353,-0.52 -0.484,-0.552 -0.208,-0.057 -0.276,0.558 -0.453,0.527 -0.459,-0.073 0.193,-2.709 0.406,-2.823 0.312,-0.168 1.078,-0.469 2.126,-0.053 z"
     id="path952" />
  <path
     style="fill:#231f20;fill-opacity:1;fill-rule:nonzero;stroke:none"
     d="m 27.439,32.301 c 0.932,-0.979 1.842,-0.604 2.322,0.318 0.146,0.276 0.547,0.364 0.662,0.646 0.27,0.645 -0.448,2.234 -1.923,1.973 -0.109,-0.02 -0.921,0.084 -1.541,0.063 -1.214,-0.026 -3.62,-0.687 -4.932,-3.036 -0.631,-1.115 0.136,-1.282 0.525,-0.907 1.235,1.188 1.584,1.052 2.016,1.245 1.48,0.662 2.871,-0.302 2.871,-0.302"
     id="path953" />
  <path
     style="fill:none;stroke:#231f20;stroke-width:0.332927;stroke-linecap:butt;stroke-linejoin:miter;stroke-miterlimit:4;stroke-dasharray:none;stroke-opacity:1"
     d="m 27.439,32.301 c 0.932,-0.979 1.842,-0.604 2.322,0.318 0.146,0.276 0.547,0.364 0.662,0.646 0.27,0.645 -0.448,2.234 -1.923,1.973 -0.109,-0.02 -0.921,0.084 -1.541,0.063 -1.214,-0.026 -3.62,-0.687 -4.932,-3.036 -0.631,-1.115 0.136,-1.282 0.525,-0.907 1.235,1.188 1.584,1.052 2.016,1.245 1.48,0.662 2.871,-0.302 2.871,-0.302 z"
     id="path954" />
  <path
     style="fill:#231f20;fill-opacity:1;fill-rule:nonzero;stroke:none"
     d="m 45.844,35.895 c 0.527,-2.204 0.333,-2.704 -0.583,-2.99 -0.609,-0.192 -1.104,-0.578 -1.474,-0.708 -1.219,-0.448 -3.448,-0.692 -9.963,0.26 -1.48,0.214 -3.552,0.51 -4.407,0.557 -1.354,0.079 -0.308,2.281 0.224,2.251 1.708,-0.084 2.902,0 3.516,0.057 0.427,0.031 1.187,0.005 2.818,0.355 2.468,0.546 3.864,1.238 5.968,1.446 0.98,0.1 1.652,0.792 2.662,0.407 1.01,-0.396 1.239,-1.635 1.239,-1.635"
     id="path955" />
  <path
     style="fill:none;stroke:#231f20;stroke-width:0.565977;stroke-linecap:butt;stroke-linejoin:miter;stroke-miterlimit:4;stroke-dasharray:none;stroke-opacity:1"
     d="m 45.844,35.895 c 0.527,-2.204 0.333,-2.704 -0.583,-2.99 -0.609,-0.192 -1.104,-0.578 -1.474,-0.708 -1.219,-0.448 -3.448,-0.692 -9.963,0.26 -1.48,0.214 -3.552,0.51 -4.407,0.557 -1.354,0.079 -0.308,2.281 0.224,2.251 1.708,-0.084 2.902,0 3.516,0.057 0.427,0.031 1.187,0.005 2.818,0.355 2.468,0.546 3.864,1.238 5.968,1.446 0.98,0.1 1.652,0.792 2.662,0.407 1.01,-0.396 1.239,-1.635 1.239,-1.635 z"
     id="path956" />
  <path
     style="fill:#ca0369;fill-opacity:1;fill-rule:nonzero;stroke:none"
     d="m 71.772,34.677 c -3.125,0.181 -3.813,-0.126 -4.683,-0.439 -5.437,-1.957 -6.297,0.745 -5.614,3.548 0.806,3.301 1.025,4.495 7.249,3.531 1.729,-0.266 8.505,-0.422 8.505,-0.422 2.428,0.271 4.943,-0.766 5.688,-2.016 0.787,-1.313 0.38,-0.854 0.891,-2.208 0.479,-1.281 0.093,-3.438 -0.969,-4.068 -1.026,-0.598 -2.484,0.208 -4.739,1.094 -1.781,0.698 -6.328,0.98 -6.328,0.98"
     id="path957" />
  <path
     style="fill:none;stroke:#231f20;stroke-width:0.565977;stroke-linecap:butt;stroke-linejoin:miter;stroke-miterlimit:4;stroke-dasharray:none;stroke-opacity:1"
     d="m 71.772,34.677 c -3.125,0.181 -3.813,-0.126 -4.683,-0.439 -5.437,-1.957 -6.297,0.745 -5.614,3.548 0.806,3.301 1.025,4.495 7.249,3.531 1.729,-0.266 8.505,-0.422 8.505,-0.422 2.428,0.271 4.943,-0.766 5.688,-2.016 0.787,-1.313 0.38,-0.854 0.891,-2.208 0.479,-1.281 0.093,-3.438 -0.969,-4.068 -1.026,-0.598 -2.484,0.208 -4.739,1.094 -1.781,0.698 -6.328,0.98 -6.328,0.98 z"
     id="path958" />
  <path
     style="fill:#ffffff;fill-opacity:1;fill-rule:nonzero;stroke:none"
     d="m 90.245,37.062 c 0.246,-0.027 0.651,1.047 1.156,0.9 0.5,-0.156 0.48,-0.943 1.954,-2.271 l 0.021,-0.01 c 1.115,-0.932 1.697,-2.192 1.443,-3.416 -0.434,-2.036 -3.016,-3.208 -5.782,-2.626 -2.761,0.59 -4.652,2.704 -4.224,4.735 0.406,1.948 2.802,3.104 5.432,2.688"
     id="path959" />
  <path
     style="fill:none;stroke:#231f20;stroke-width:0.565977;stroke-linecap:butt;stroke-linejoin:miter;stroke-miterlimit:4;stroke-dasharray:none;stroke-opacity:1"
     d="m 90.245,37.062 c 0.246,-0.027 0.651,1.047 1.156,0.9 0.5,-0.156 0.48,-0.943 1.954,-2.271 l 0.021,-0.01 c 1.115,-0.932 1.697,-2.192 1.443,-3.416 -0.434,-2.036 -3.016,-3.208 -5.782,-2.626 -2.761,0.59 -4.652,2.704 -4.224,4.735 0.406,1.948 2.802,3.104 5.432,2.688 z"
     id="path960" />
  <path
     style="fill:#231f20;fill-opacity:1;fill-rule:nonzero;stroke:none"
     d="m 43.636,34.781 c -1.271,3.806 2.771,3.224 3.219,3.374 4.745,1.61 5.136,1.604 8.828,2.574 5.349,1.4 9.224,1.541 10.953,-1.33 1.167,-1.957 0.995,-3.582 0.197,-4.629 -0.89,-1.156 -3.765,-2.511 -6.202,-0.953 l -1.714,0.025 c -1.15,-0.135 -1.724,-0.192 -2.292,-0.301 -0.984,-0.198 -2.046,-0.339 -3.989,-0.61 -3.437,-0.474 -7.229,0.151 -7.229,0.151 -1.24,-0.14 -1.771,1.699 -1.771,1.699"
     id="path961" />
  <path
     style="fill:none;stroke:#231f20;stroke-width:0.565977;stroke-linecap:butt;stroke-linejoin:miter;stroke-miterlimit:4;stroke-dasharray:none;stroke-opacity:1"
     d="m 43.636,34.781 c -1.271,3.806 2.771,3.224 3.219,3.374 4.745,1.61 5.136,1.604 8.828,2.574 5.349,1.4 9.224,1.541 10.953,-1.33 1.167,-1.957 0.995,-3.582 0.197,-4.629 -0.89,-1.156 -3.765,-2.511 -6.202,-0.953 l -1.714,0.025 c -1.15,-0.135 -1.724,-0.192 -2.292,-0.301 -0.984,-0.198 -2.046,-0.339 -3.989,-0.61 -3.437,-0.474 -7.229,0.151 -7.229,0.151 -1.24,-0.14 -1.771,1.699 -1.771,1.699 z"
     id="path962" />
  <path
     style="fill:#ca0369;fill-opacity:1;fill-rule:nonzero;stroke:none"
     d="m 66.833,34.77 c -0.89,-1.156 -3.765,-2.511 -6.202,-0.953 l -1.771,7.609 c 0.645,0.109 1.249,0.172 1.833,0.219 0.079,0.032 0.151,0.062 0.214,0.098 0.682,0.423 1.281,0.214 2.245,-0.172 1.531,-0.244 2.724,-0.91 3.484,-2.172 1.167,-1.952 0.995,-3.577 0.197,-4.629"
     id="path963" />
  <path
     style="fill:none;stroke:#231f20;stroke-width:0.565977;stroke-linecap:butt;stroke-linejoin:miter;stroke-miterlimit:4;stroke-dasharray:none;stroke-opacity:1"
     d="m 66.833,34.77 c -0.89,-1.156 -3.765,-2.511 -6.202,-0.953 l -1.771,7.609 c 0.645,0.109 1.249,0.172 1.833,0.219 0.079,0.032 0.151,0.062 0.214,0.098 0.682,0.423 1.281,0.214 2.245,-0.172 1.531,-0.244 2.724,-0.91 3.484,-2.172 1.167,-1.952 0.995,-3.577 0.197,-4.629 z"
     id="path964" />
  <path
     style="fill:#231f20;fill-opacity:1;fill-rule:nonzero;stroke:none"
     d="m 78.229,56.415 c -0.333,-0.546 0.006,-2.468 -0.348,-4.036 -0.24,-1.057 0.307,-3.75 -0.005,-4.786 -0.292,-0.954 -0.339,-1.418 0.697,-1.938 0.61,-0.297 1.979,-0.494 2.235,-0.046 0.577,1.036 0.677,1.973 0.573,3.041 -0.12,1.208 -0.745,4.464 -0.917,5.047 -0.427,1.464 -0.151,2.145 -0.229,2.546 -0.14,0.751 -0.463,0.876 -0.968,0.891 -0.954,0.021 -1.038,-0.719 -1.038,-0.719"
     id="path965" />
  <path
     style="fill:none;stroke:#231f20;stroke-width:0.565977;stroke-linecap:butt;stroke-linejoin:miter;stroke-miterlimit:4;stroke-dasharray:none;stroke-opacity:1"
     d="m 78.229,56.415 c -0.333,-0.546 0.006,-2.468 -0.348,-4.036 -0.24,-1.057 0.307,-3.75 -0.005,-4.786 -0.292,-0.954 -0.339,-1.418 0.697,-1.938 0.61,-0.297 1.979,-0.494 2.235,-0.046 0.577,1.036 0.677,1.973 0.573,3.041 -0.12,1.208 -0.745,4.464 -0.917,5.047 -0.427,1.464 -0.151,2.145 -0.229,2.546 -0.14,0.751 -0.463,0.876 -0.968,0.891 -0.954,0.021 -1.038,-0.719 -1.038,-0.719 z"
     id="path966" />
  <path
     style="fill:#231f20;fill-opacity:1;fill-rule:nonzero;stroke:none"
     d="m 78.505,47.363 c -1.281,-0.182 -0.634,-2.109 -0.541,-2.645 0.093,-0.537 0.188,-2.089 0.099,-3.308 -0.083,-1.224 0.333,-2.781 0.177,-5.104 -0.077,-1.219 0.62,-2.459 2.391,-2.505 1.754,-0.042 2.442,0.932 2.312,2.428 -0.124,1.489 -0.864,2.833 -1.094,4.333 -0.234,1.489 -0.333,3.036 -0.344,4.244 -0.02,1.391 -0.541,2.063 -0.984,2.24 -1.109,0.459 -2.016,0.317 -2.016,0.317"
     id="path967" />
  <path
     style="fill:none;stroke:#231f20;stroke-width:0.565977;stroke-linecap:butt;stroke-linejoin:miter;stroke-miterlimit:4;stroke-dasharray:none;stroke-opacity:1"
     d="m 78.505,47.363 c -1.281,-0.182 -0.634,-2.109 -0.541,-2.645 0.093,-0.537 0.188,-2.089 0.099,-3.308 -0.083,-1.224 0.333,-2.781 0.177,-5.104 -0.077,-1.219 0.62,-2.459 2.391,-2.505 1.754,-0.042 2.442,0.932 2.312,2.428 -0.124,1.489 -0.864,2.833 -1.094,4.333 -0.234,1.489 -0.333,3.036 -0.344,4.244 -0.02,1.391 -0.541,2.063 -0.984,2.24 -1.109,0.459 -2.016,0.317 -2.016,0.317 z"
     id="path968" />
  <path
     style="fill:#ffffff;fill-opacity:1;fill-rule:nonzero;stroke:none"
     d="m 77.776,48.291 h 1.333 V 16.719 h -1.333 z"
     id="path969" />
  <path
     style="fill:none;stroke:#231f20;stroke-width:0.665856;stroke-linecap:butt;stroke-linejoin:miter;stroke-miterlimit:4;stroke-dasharray:none;stroke-opacity:1"
     d="m 77.776,48.297 h 1.333 V 16.718 h -1.333 z"
     id="path970" />
  <path
     style="fill:#ffffff;fill-opacity:1;fill-rule:nonzero;stroke:none"
     d="m 74.584,53.229 c 0,-2.355 1.912,-4.272 4.265,-4.272 2.355,0 4.271,1.917 4.271,4.272 0,2.358 -1.916,4.27 -4.271,4.27 -2.353,0 -4.265,-1.912 -4.265,-4.27 m -1.333,0 c 0,3.088 2.51,5.604 5.598,5.604 3.09,0 5.599,-2.516 5.599,-5.604 0,-3.09 -2.509,-5.6 -5.599,-5.6 -3.088,0 -5.598,2.51 -5.598,5.6"
     id="path971" />
  <path
     style="fill:none;stroke:#231f20;stroke-width:0.665856;stroke-linecap:butt;stroke-linejoin:miter;stroke-miterlimit:4;stroke-dasharray:none;stroke-opacity:1"
     d="m 74.584,53.229 c 0,-2.355 1.912,-4.272 4.265,-4.272 2.355,0 4.271,1.917 4.271,4.272 0,2.358 -1.916,4.27 -4.271,4.27 -2.353,0 -4.265,-1.912 -4.265,-4.27 z m -1.333,0 c 0,3.088 2.51,5.604 5.598,5.604 3.09,0 5.599,-2.516 5.599,-5.604 0,-3.09 -2.509,-5.6 -5.599,-5.6 -3.088,0 -5.598,2.51 -5.598,5.6 z"
     id="path972" />
  <path
     style="fill:#231f20;fill-opacity:1;fill-rule:nonzero;stroke:none"
     d="m 80.543,56.614 c 0.64,0.285 0.749,2.599 0.457,2.719 -0.296,0.12 -0.249,-0.652 -0.588,-0.532 -0.333,0.114 -0.287,0.614 -0.516,0.625 -0.255,0.016 -0.213,-0.584 -0.505,-0.511 -0.13,0.032 -0.375,0.579 -0.558,0.532 -0.161,-0.042 -0.333,-0.537 -0.468,-0.578 -0.202,-0.063 -0.292,0.546 -0.469,0.51 -0.457,-0.089 0.303,-2.693 0.516,-2.802 0.328,-0.151 1.104,-0.422 2.131,0.037"
     id="path973" />
  <path
     style="fill:none;stroke:#231f20;stroke-width:0.565977;stroke-linecap:round;stroke-linejoin:round;stroke-miterlimit:4;stroke-dasharray:none;stroke-opacity:1"
     d="m 80.543,56.614 c 0.64,0.285 0.749,2.599 0.457,2.719 -0.296,0.12 -0.249,-0.652 -0.588,-0.532 -0.333,0.114 -0.287,0.614 -0.516,0.625 -0.255,0.016 -0.213,-0.584 -0.505,-0.511 -0.13,0.032 -0.375,0.579 -0.558,0.532 -0.161,-0.042 -0.333,-0.537 -0.468,-0.578 -0.202,-0.063 -0.292,0.546 -0.469,0.51 -0.457,-0.089 0.303,-2.693 0.516,-2.802 0.328,-0.151 1.104,-0.422 2.131,0.037 z"
     id="path974" />
  <path
     style="fill:none;stroke:#231f20;stroke-width:0.399514;stroke-linecap:butt;stroke-linejoin:miter;stroke-miterlimit:4;stroke-dasharray:none;stroke-opacity:1"
     d="m 91.631,74.937 h 45.671"
     id="path975" />
  <path
     style="fill:#231f20;fill-opacity:1;fill-rule:nonzero;stroke:none"
     d="m 138.51,74.937 c -0.568,0.208 -1.276,0.568 -1.713,0.948 l 0.344,-0.948 -0.344,-0.954 c 0.437,0.38 1.145,0.74 1.713,0.954"
     id="path976" />
</svg>
