<?xml version="1.0" encoding="UTF-8" standalone="no"?>
<!-- Created with Inkscape (http://www.inkscape.org/) -->

<svg
   version="1.1"
   id="svg1"
   width="231.93327"
   height="121.30966"
   viewBox="0 0 231.93327 121.30966"
   sodipodi:docname="cell.svg"
   xmlns:inkscape="http://www.inkscape.org/namespaces/inkscape"
   xmlns:sodipodi="http://sodipodi.sourceforge.net/DTD/sodipodi-0.dtd"
   xmlns="http://www.w3.org/2000/svg"
   xmlns:svg="http://www.w3.org/2000/svg">
  <sodipodi:namedview
     id="namedview1"
     pagecolor="#ffffff"
     bordercolor="#000000"
     borderopacity="0.25"
     inkscape:showpageshadow="2"
     inkscape:pageopacity="0.0"
     inkscape:pagecheckerboard="0"
     inkscape:deskcolor="#d1d1d1">
    <inkscape:page
       x="0"
       y="0"
       inkscape:label="1"
       id="page1"
       width="231.93327"
       height="121.30966"
       margin="0"
       bleed="0" />
  </sodipodi:namedview>
  <defs
     id="defs1" />
  <path
     style="fill:#ffffff;fill-opacity:1;fill-rule:nonzero;stroke:#231f20;stroke-width:0.665856;stroke-linecap:butt;stroke-linejoin:miter;stroke-miterlimit:4;stroke-dasharray:none;stroke-opacity:1"
     d="m 112.62634,1.1502416 -5.369,31.2133004 1.312,0.2293 5.376,-31.2146004 z"
     id="path3" />
  <path
     style="fill:#ffffff;fill-opacity:1;fill-rule:nonzero;stroke:none"
     d="m 102.87134,36.618142 c 0.396,-2.3173 2.61,-3.8799 4.927,-3.4839 2.324,0.4013 3.885,2.6146 3.485,4.9319 -0.401,2.3174 -2.614,3.8854 -4.933,3.484 -2.317,-0.4 -3.88,-2.6146 -3.479,-4.932 m -1.312,-0.224 c -0.526,3.0414 1.526,5.9427 4.567,6.4694 3.043,0.52 5.948,-1.5267 6.469,-4.5734 0.527,-3.0413 -1.526,-5.9426 -4.568,-6.4693 -3.046,-0.52 -5.948,1.5267 -6.468,4.5733"
     id="path4" />
  <path
     style="fill:none;stroke:#231f20;stroke-width:0.665856;stroke-linecap:butt;stroke-linejoin:miter;stroke-miterlimit:4;stroke-dasharray:none;stroke-opacity:1"
     d="m 102.87134,36.618142 c 0.396,-2.3173 2.61,-3.8799 4.927,-3.4839 2.324,0.4013 3.885,2.6146 3.485,4.9319 -0.401,2.3174 -2.614,3.8854 -4.933,3.484 -2.317,-0.4 -3.88,-2.6146 -3.479,-4.932 z m -1.312,-0.224 c -0.526,3.0414 1.526,5.9427 4.567,6.4694 3.043,0.52 5.948,-1.5267 6.469,-4.5734 0.527,-3.0413 -1.526,-5.9426 -4.568,-6.4693 -3.046,-0.52 -5.948,1.5267 -6.468,4.5733 z"
     id="path5" />
  <path
     style="fill:#ffffff;fill-opacity:1;fill-rule:nonzero;stroke:#231f20;stroke-width:0.665856;stroke-linecap:butt;stroke-linejoin:miter;stroke-miterlimit:4;stroke-dasharray:none;stroke-opacity:1"
     d="m 71.683338,0.4929416 3.147,31.5213004 1.323,-0.136 -3.146,-31.5146004 z"
     id="path6" />
  <path
     style="fill:#ffffff;fill-opacity:1;fill-rule:nonzero;stroke:none"
     d="m 75.491338,32.331542 c 2.35,-0.1347 4.37,1.6667 4.5,4.0213 0.131,2.3493 -1.672,4.3693 -4.021,4.5 -2.349,0.1347 -4.369,-1.672 -4.505,-4.0213 -0.13,-2.348 1.672,-4.3693 4.026,-4.5 m -0.078,-1.3333 c -3.083,0.1773 -5.448,2.8226 -5.276,5.9066 0.172,3.0827 2.822,5.4533 5.906,5.276 3.083,-0.172 5.454,-2.8227 5.276,-5.9067 -0.172,-3.0826 -2.817,-5.4479 -5.906,-5.2759"
     id="path7" />
  <path
     style="fill:none;stroke:#231f20;stroke-width:0.665856;stroke-linecap:butt;stroke-linejoin:miter;stroke-miterlimit:4;stroke-dasharray:none;stroke-opacity:1"
     d="m 75.491338,32.331542 c 2.35,-0.1347 4.37,1.6667 4.5,4.0213 0.131,2.3493 -1.672,4.3693 -4.021,4.5 -2.349,0.1347 -4.369,-1.672 -4.505,-4.0213 -0.13,-2.348 1.672,-4.3693 4.026,-4.5 z m -0.078,-1.3333 c -3.083,0.1773 -5.448,2.8226 -5.276,5.9066 0.172,3.0827 2.822,5.4533 5.906,5.276 3.083,-0.172 5.454,-2.8227 5.276,-5.9067 -0.172,-3.0826 -2.817,-5.4479 -5.906,-5.2759 z"
     id="path8" />
  <path
     style="fill:#ffffff;fill-opacity:1;fill-rule:nonzero;stroke:#231f20;stroke-width:0.665856;stroke-linecap:butt;stroke-linejoin:miter;stroke-miterlimit:4;stroke-dasharray:none;stroke-opacity:1"
     d="m 154.15834,1.3942416 -15.86,27.4173004 -1.156,-0.6667 15.865,-27.4119004 z"
     id="path9" />
  <path
     style="fill:#ffffff;fill-opacity:1;fill-rule:nonzero;stroke:none"
     d="m 133.11134,36.446142 c -2.043,-1.1773 -2.74,-3.7959 -1.557,-5.8333 1.177,-2.036 3.79,-2.7346 5.833,-1.5573 2.036,1.1827 2.739,3.7973 1.557,5.8333 -1.182,2.0373 -3.797,2.74 -5.833,1.5573 m 4.943,-8.5413 c -2.678,-1.5466 -6.11,-0.6306 -7.656,2.0414 -1.548,2.672 -0.631,6.1039 2.041,7.6506 2.677,1.548 6.109,0.6307 7.656,-2.0413 1.547,-2.6773 0.631,-6.104 -2.041,-7.6507"
     id="path10" />
  <path
     style="fill:none;stroke:#231f20;stroke-width:0.665856;stroke-linecap:butt;stroke-linejoin:miter;stroke-miterlimit:4;stroke-dasharray:none;stroke-opacity:1"
     d="m 133.11134,36.446142 c -2.043,-1.1773 -2.74,-3.7959 -1.557,-5.8333 1.177,-2.036 3.79,-2.7346 5.833,-1.5573 2.036,1.1827 2.739,3.7973 1.557,5.8333 -1.182,2.0373 -3.797,2.74 -5.833,1.5573 z m 4.943,-8.5413 c -2.678,-1.5466 -6.11,-0.6306 -7.656,2.0414 -1.548,2.672 -0.631,6.1039 2.041,7.6506 2.677,1.548 6.109,0.6307 7.656,-2.0413 1.547,-2.6773 0.631,-6.104 -2.041,-7.6507 z"
     id="path11" />
  <path
     style="fill:#231f20;fill-opacity:1;fill-rule:nonzero;stroke:none"
     d="m 90.601338,115.47314 c 1.188,-0.647 1.057,-1.631 0.286,-2.328 -0.224,-0.204 -0.209,-0.62 -0.448,-0.808 -0.562,-0.427 -2.281,-0.135 -2.401,1.36 -0.011,0.109 -0.317,0.864 -0.464,1.468 -0.276,1.182 -0.255,3.677 1.677,5.552 0.923,0.89 1.276,0.188 1.011,-0.286 -0.828,-1.496 -0.609,-1.792 -0.683,-2.261 -0.26,-1.604 1.022,-2.697 1.022,-2.697"
     id="path12" />
  <path
     style="fill:none;stroke:#231f20;stroke-width:0.332927;stroke-linecap:butt;stroke-linejoin:miter;stroke-miterlimit:4;stroke-dasharray:none;stroke-opacity:1"
     d="m 90.601338,115.47314 c 1.188,-0.647 1.057,-1.631 0.286,-2.328 -0.224,-0.204 -0.209,-0.62 -0.448,-0.808 -0.562,-0.427 -2.281,-0.135 -2.401,1.36 -0.011,0.109 -0.317,0.864 -0.464,1.468 -0.276,1.182 -0.255,3.677 1.677,5.552 0.923,0.89 1.276,0.188 1.011,-0.286 -0.828,-1.496 -0.609,-1.792 -0.683,-2.261 -0.26,-1.604 1.022,-2.697 1.022,-2.697 z"
     id="path13" />
  <path
     style="fill:#231f20;fill-opacity:1;fill-rule:nonzero;stroke:none"
     d="m 91.841338,96.765142 c 2.26,0.052 2.697,0.364 2.738,1.322 0.032,0.635 0.271,1.214 0.308,1.604 0.12,1.291998 -0.213,3.515998 -2.802,9.567998 -0.588,1.37 -1.402,3.302 -1.667,4.119 -0.427,1.287 -2.281,-0.285 -2.12,-0.796 0.521,-1.636 0.745,-2.803 0.849,-3.412 0.074,-0.421 0.303,-1.151 0.375,-2.817 0.104,-2.522 -0.208,-4.052 0.131,-6.136 0.15,-0.973998 -0.35,-1.801998 0.292,-2.675998 0.634,-0.876 1.896,-0.776 1.896,-0.776"
     id="path14" />
  <path
     style="fill:none;stroke:#231f20;stroke-width:0.565977;stroke-linecap:butt;stroke-linejoin:miter;stroke-miterlimit:4;stroke-dasharray:none;stroke-opacity:1"
     d="m 91.841338,96.765142 c 2.26,0.052 2.697,0.364 2.738,1.322 0.032,0.635 0.271,1.214 0.308,1.604 0.12,1.291998 -0.213,3.515998 -2.802,9.567998 -0.588,1.37 -1.402,3.302 -1.667,4.119 -0.427,1.287 -2.281,-0.285 -2.12,-0.796 0.521,-1.636 0.745,-2.803 0.849,-3.412 0.074,-0.421 0.303,-1.151 0.375,-2.817 0.104,-2.522 -0.208,-4.052 0.131,-6.136 0.15,-0.973998 -0.35,-1.801998 0.292,-2.675998 0.634,-0.876 1.896,-0.776 1.896,-0.776 z"
     id="path15" />
  <path
     style="fill:#ca0369;fill-opacity:1;fill-rule:nonzero;stroke:none"
     d="m 98.871338,71.738142 c -0.552,3.083 -0.328,3.807 -0.125,4.703 1.303002,5.636 -1.489,6.166 -4.187,5.152 -3.177,-1.183 -4.338,-1.548 -2.652,-7.61 0.475,-1.688 1.434,-8.39 1.434,-8.39 0.02,-2.4484 1.342,-4.8243 2.676,-5.423 1.401,-0.62 0.89,-0.2707 2.292,-0.6147 1.338,-0.328 3.432002,0.308 3.926002,1.4427 0.475,1.084 -0.5,2.4373 -1.645,4.573 -0.907002,1.688 -1.719002,6.167 -1.719002,6.167"
     id="path16" />
  <path
     style="fill:none;stroke:#231f20;stroke-width:0.565977;stroke-linecap:butt;stroke-linejoin:miter;stroke-miterlimit:4;stroke-dasharray:none;stroke-opacity:1"
     d="m 98.871338,71.738142 c -0.552,3.083 -0.328,3.807 -0.125,4.703 1.303002,5.636 -1.489,6.166 -4.187,5.152 -3.177,-1.183 -4.338,-1.548 -2.652,-7.61 0.475,-1.688 1.434,-8.39 1.434,-8.39 0.02,-2.4484 1.342,-4.8243 2.676,-5.423 1.401,-0.62 0.89,-0.2707 2.292,-0.6147 1.338,-0.328 3.432002,0.308 3.926002,1.4427 0.475,1.084 -0.5,2.4373 -1.645,4.573 -0.907002,1.688 -1.719002,6.167 -1.719002,6.167 z"
     id="path17" />
  <path
     style="fill:#ffffff;fill-opacity:1;fill-rule:nonzero;stroke:none"
     d="m 98.142338,53.144842 c 0.032,-0.24 -1.036,-0.672 -0.875,-1.1667 0.162,-0.5053 0.948,-0.464 2.307,-1.9173 l 0.011,-0.016 c 0.958002,-1.0934 2.229002,-1.656 3.448002,-1.3747 2.026,0.4693 3.145,3.084 2.505,5.8333 -0.64,2.7507 -2.797,4.5987 -4.817,4.1307 -1.938002,-0.4533 -3.047002,-2.8653 -2.579002,-5.4893"
     id="path18" />
  <path
     style="fill:none;stroke:#231f20;stroke-width:0.565977;stroke-linecap:butt;stroke-linejoin:miter;stroke-miterlimit:4;stroke-dasharray:none;stroke-opacity:1"
     d="m 98.142338,53.144842 c 0.032,-0.24 -1.036,-0.672 -0.875,-1.1667 0.162,-0.5053 0.948,-0.464 2.307,-1.9173 l 0.011,-0.016 c 0.958002,-1.0934 2.229002,-1.656 3.448002,-1.3747 2.026,0.4693 3.145,3.084 2.505,5.8333 -0.64,2.7507 -2.797,4.5987 -4.817,4.1307 -1.938002,-0.4533 -3.047002,-2.8653 -2.579002,-5.4893 z"
     id="path19" />
  <path
     style="fill:#231f20;fill-opacity:1;fill-rule:nonzero;stroke:none"
     d="m 92.350338,99.181142 c -4.005,0.25 -2.411,-3.506 -2.443,-3.979 -0.338,-5 -0.233,-5.371 -0.224,-9.193 0.016,-5.526 0.871,-9.307 4.09,-10.24 2.181,-0.635 3.713,-0.052 4.52,0.99 0.896,1.156 1.464,4.282 -0.662,6.234 l -0.462,1.652 c -0.167,1.15 -0.256,1.718 -0.298,2.296 -0.062,1 -0.197,2.068 -0.432,4.005 -0.417,3.448 -1.994,6.953 -1.994,6.953 -0.178,1.235 -2.095,1.282 -2.095,1.282"
     id="path20" />
  <path
     style="fill:none;stroke:#231f20;stroke-width:0.565977;stroke-linecap:butt;stroke-linejoin:miter;stroke-miterlimit:4;stroke-dasharray:none;stroke-opacity:1"
     d="m 92.350338,99.181142 c -4.005,0.25 -2.411,-3.506 -2.443,-3.979 -0.338,-5 -0.233,-5.371 -0.224,-9.193 0.016,-5.526 0.871,-9.307 4.09,-10.24 2.181,-0.635 3.713,-0.052 4.52,0.99 0.896,1.156 1.464,4.282 -0.662,6.234 l -0.462,1.652 c -0.167,1.15 -0.256,1.718 -0.298,2.296 -0.062,1 -0.197,2.068 -0.432,4.005 -0.417,3.448 -1.994,6.953 -1.994,6.953 -0.178,1.235 -2.095,1.282 -2.095,1.282 z"
     id="path21" />
  <path
     style="fill:#ca0369;fill-opacity:1;fill-rule:nonzero;stroke:none"
     d="m 98.293338,76.759142 c -0.802,-1.042 -2.339,-1.625 -4.52,-0.99 -1.418,0.406 -2.36,1.385 -2.99,2.802 -0.625,0.839 -0.98,1.359 -0.75,2.136 0.021,0.067 0.036,0.146 0.046,0.228 -0.109,0.574 -0.197,1.178 -0.26,1.83 l 7.812,0.233 c 2.126,-1.957 1.558,-5.083 0.662,-6.239"
     id="path22" />
  <path
     style="fill:none;stroke:#231f20;stroke-width:0.565977;stroke-linecap:butt;stroke-linejoin:miter;stroke-miterlimit:4;stroke-dasharray:none;stroke-opacity:1"
     d="m 98.293338,76.759142 c -0.802,-1.042 -2.339,-1.625 -4.52,-0.99 -1.418,0.406 -2.36,1.385 -2.99,2.802 -0.625,0.839 -0.98,1.359 -0.75,2.136 0.021,0.067 0.036,0.146 0.046,0.228 -0.109,0.574 -0.197,1.178 -0.26,1.83 l 7.812,0.233 c 2.126,-1.957 1.558,-5.083 0.662,-6.239 z"
     id="path23" />
  <path
     style="fill:#231f20;fill-opacity:1;fill-rule:nonzero;stroke:none"
     d="m 104.90234,42.628842 c -0.515,0.3907 -0.916,2.292 -1.828,3.62 -0.615,0.8907 -1.115,3.5933 -1.791,4.4373 -0.62,0.776 -0.833,1.188 -0.073,2.052 0.453,0.5107 1.656,1.2027 2.052,0.88 0.927,-0.744 1.375,-1.5773 1.672,-2.6093 0.339,-1.1614 0.973,-4.412 1.031,-5.0253 0.146,-1.5107 0.661,-2.048 0.734,-2.4427 0.151,-0.7453 -0.104,-0.9907 -0.562,-1.188 -0.88,-0.3747 -1.235,0.276 -1.235,0.276"
     id="path24" />
  <path
     style="fill:none;stroke:#231f20;stroke-width:0.565977;stroke-linecap:butt;stroke-linejoin:miter;stroke-miterlimit:4;stroke-dasharray:none;stroke-opacity:1"
     d="m 104.90234,42.628842 c -0.515,0.3907 -0.916,2.292 -1.828,3.62 -0.615,0.8907 -1.115,3.5933 -1.791,4.4373 -0.62,0.776 -0.833,1.188 -0.073,2.052 0.453,0.5107 1.656,1.2027 2.052,0.88 0.927,-0.744 1.375,-1.5773 1.672,-2.6093 0.339,-1.1614 0.973,-4.412 1.031,-5.0253 0.146,-1.5107 0.661,-2.048 0.734,-2.4427 0.151,-0.7453 -0.104,-0.9907 -0.562,-1.188 -0.88,-0.3747 -1.235,0.276 -1.235,0.276 z"
     id="path25" />
  <path
     style="fill:#231f20;fill-opacity:1;fill-rule:nonzero;stroke:none"
     d="m 100.45034,51.134142 c -1.256002,-0.308 -1.371002,1.724 -1.485002,2.2493 -0.115,0.5374 -0.61,2.0107 -1.14,3.1094 -0.532,1.104 -0.73,2.7093 -1.735,4.8026 -0.536,1.104 -0.355,2.5107 1.281,3.2133 1.61,0.6934 2.61,0.0467 3.047002,-1.38 0.443,-1.432 0.256,-2.9639 0.599,-4.4373 0.344,-1.4746 0.828,-2.9373 1.266,-4.068 0.495,-1.292 0.26,-2.1146 -0.078,-2.448 -0.86,-0.8333 -1.755,-1.0413 -1.755,-1.0413"
     id="path26" />
  <path
     style="fill:none;stroke:#231f20;stroke-width:0.565977;stroke-linecap:butt;stroke-linejoin:miter;stroke-miterlimit:4;stroke-dasharray:none;stroke-opacity:1"
     d="m 100.45034,51.134142 c -1.256002,-0.308 -1.371002,1.724 -1.485002,2.2493 -0.115,0.5374 -0.61,2.0107 -1.14,3.1094 -0.532,1.104 -0.73,2.7093 -1.735,4.8026 -0.536,1.104 -0.355,2.5107 1.281,3.2133 1.61,0.6934 2.61,0.0467 3.047002,-1.38 0.443,-1.432 0.256,-2.9639 0.599,-4.4373 0.344,-1.4746 0.828,-2.9373 1.266,-4.068 0.495,-1.292 0.26,-2.1146 -0.078,-2.448 -0.86,-0.8333 -1.755,-1.0413 -1.755,-1.0413 z"
     id="path27" />
  <path
     style="fill:#231f20;fill-opacity:1;fill-rule:nonzero;stroke:none"
     d="m 105.27834,42.483542 c -0.407,-0.568 0.667,-2.6254 0.979,-2.5787 0.312,0.052 -0.115,0.688 0.24,0.76 0.348,0.068 0.562,-0.3853 0.765,-0.2867 0.224,0.1147 -0.115,0.62 0.183,0.704 0.12,0.0307 0.604,-0.3133 0.744,-0.1773 0.114,0.1147 0.016,0.6307 0.109,0.7293 0.141,0.156 0.527,-0.3226 0.661,-0.2026 0.35,0.312 -1.624,2.176 -1.864,2.156 -0.354,-0.0267 -1.161,-0.188 -1.817,-1.104"
     id="path28" />
  <path
     style="fill:none;stroke:#231f20;stroke-width:0.565977;stroke-linecap:round;stroke-linejoin:round;stroke-miterlimit:4;stroke-dasharray:none;stroke-opacity:1"
     d="m 105.27834,42.483542 c -0.407,-0.568 0.667,-2.6254 0.979,-2.5787 0.312,0.052 -0.115,0.688 0.24,0.76 0.348,0.068 0.562,-0.3853 0.765,-0.2867 0.224,0.1147 -0.115,0.62 0.183,0.704 0.12,0.0307 0.604,-0.3133 0.744,-0.1773 0.114,0.1147 0.016,0.6307 0.109,0.7293 0.141,0.156 0.527,-0.3226 0.661,-0.2026 0.35,0.312 -1.624,2.176 -1.864,2.156 -0.354,-0.0267 -1.161,-0.188 -1.817,-1.104 z"
     id="path29" />
  <path
     style="fill:#231f20;fill-opacity:1;fill-rule:nonzero;stroke:none"
     d="m 5.4597381,42.748842 c 0.2866,1.3227 1.2719,1.468 2.1522,0.9267 0.265,-0.1614 0.6557,-0.0307 0.9052,-0.208 0.5625,-0.4174 0.7708,-2.1507 -0.635,-2.6827 -0.0984,-0.036 -0.7396,-0.552 -1.2812,-0.8547 -1.0521,-0.5986 -3.4532,-1.28 -5.8026,0.0534 -1.1093,0.6293 -0.5307,1.1666 0,1.052 1.6666,-0.3814 1.8854,-0.084 2.3598,-0.0267 1.6095,0.1987 2.3016,1.74 2.3016,1.74"
     id="path30" />
  <path
     style="fill:none;stroke:#231f20;stroke-width:0.332927;stroke-linecap:butt;stroke-linejoin:miter;stroke-miterlimit:4;stroke-dasharray:none;stroke-opacity:1"
     d="m 5.4597381,42.748842 c 0.2866,1.3227 1.2719,1.468 2.1522,0.9267 0.265,-0.1614 0.6557,-0.0307 0.9052,-0.208 0.5625,-0.4174 0.7708,-2.1507 -0.635,-2.6827 -0.0984,-0.036 -0.7396,-0.552 -1.2812,-0.8547 -1.0521,-0.5986 -3.4532,-1.28 -5.8026,0.0534 -1.1093,0.6293 -0.5307,1.1666 0,1.052 1.6666,-0.3814 1.8854,-0.084 2.3598,-0.0267 1.6095,0.1987 2.3016,1.74 2.3016,1.74 z"
     id="path31" />
  <path
     style="fill:#231f20;fill-opacity:1;fill-rule:nonzero;stroke:none"
     d="m 23.074338,49.180842 c -0.686,2.1613 -1.109,2.4893 -2.041,2.26 -0.62,-0.1507 -1.244,-0.0827 -1.631,-0.156 -1.271,-0.244 -3.307,-1.1867 -8.3946,-5.3693 -1.1520999,-0.9534 -2.7812999,-2.276 -3.4853999,-2.7614 -1.1199,-0.7706 0.9177,-2.104 1.3546,-1.8066 1.4265999,0.9533 2.4843999,1.5 3.0417999,1.7706 0.3848,0.1934 1.0213,0.6094 2.5932,1.1507 2.3954,0.808 3.9474,0.9427 5.8594,1.8493 0.891,0.4174 1.823,0.1667 2.484,1.0267 0.667,0.8533 0.219,2.036 0.219,2.036"
     id="path32" />
  <path
     style="fill:none;stroke:#231f20;stroke-width:0.565977;stroke-linecap:butt;stroke-linejoin:miter;stroke-miterlimit:4;stroke-dasharray:none;stroke-opacity:1"
     d="m 23.074338,49.180842 c -0.686,2.1613 -1.109,2.4893 -2.041,2.26 -0.62,-0.1507 -1.244,-0.0827 -1.631,-0.156 -1.271,-0.244 -3.307,-1.1867 -8.3946,-5.3693 -1.1520999,-0.9534 -2.7812999,-2.276 -3.4853999,-2.7614 -1.1199,-0.7706 0.9177,-2.104 1.3546,-1.8066 1.4265999,0.9533 2.4843999,1.5 3.0417999,1.7706 0.3848,0.1934 1.0213,0.6094 2.5932,1.1507 2.3954,0.808 3.9474,0.9427 5.8594,1.8493 0.891,0.4174 1.823,0.1667 2.484,1.0267 0.667,0.8533 0.219,2.036 0.219,2.036 z"
     id="path33" />
  <path
     style="fill:#ca0369;fill-opacity:1;fill-rule:nonzero;stroke:none"
     d="m 47.298338,58.071442 c -3.072,0.5987 -3.667,1.068 -4.427,1.5827 -4.786,3.2506 -6.292,0.8387 -6.317,-2.0467 -0.043,-3.3906 -0.125,-4.5986 6.14,-5.2186 1.746,-0.172 8.339,-1.6974 8.339,-1.6974 2.286,-0.8653 4.984,-0.484 6.016,0.536 1.093,1.084 0.577,0.7347 1.406,1.9227 0.786,1.124 0.952,3.3067 0.078,4.176 -0.844,0.8333 -2.459,0.4173 -4.87,0.12 -1.89,-0.2347 -6.365,0.6253 -6.365,0.6253"
     id="path34" />
  <path
     style="fill:none;stroke:#231f20;stroke-width:0.565977;stroke-linecap:butt;stroke-linejoin:miter;stroke-miterlimit:4;stroke-dasharray:none;stroke-opacity:1"
     d="m 47.298338,58.071442 c -3.072,0.5987 -3.667,1.068 -4.427,1.5827 -4.786,3.2506 -6.292,0.8387 -6.317,-2.0467 -0.043,-3.3906 -0.125,-4.5986 6.14,-5.2186 1.746,-0.172 8.339,-1.6974 8.339,-1.6974 2.286,-0.8653 4.984,-0.484 6.016,0.536 1.093,1.084 0.577,0.7347 1.406,1.9227 0.786,1.124 0.952,3.3067 0.078,4.176 -0.844,0.8333 -2.459,0.4173 -4.87,0.12 -1.89,-0.2347 -6.365,0.6253 -6.365,0.6253 z"
     id="path35" />
  <path
     style="fill:#ffffff;fill-opacity:1;fill-rule:nonzero;stroke:none"
     d="m 60.533338,46.326142 c 0.145,-0.192 -0.531,-1.1186 -0.135,-1.4573 0.395,-0.344 1.047,0.104 2.963,-0.428 l 0.021,-0.0053 c 1.385,-0.432 2.765,-0.2494 3.656,0.636 1.479,1.4533 1.068,4.2706 -0.916,6.2759 -1.98,2.0107 -4.787,2.4587 -6.267,1 -1.416,-1.396 -1.098,-4.036 0.678,-6.0213"
     id="path36" />
  <path
     style="fill:none;stroke:#231f20;stroke-width:0.565977;stroke-linecap:butt;stroke-linejoin:miter;stroke-miterlimit:4;stroke-dasharray:none;stroke-opacity:1"
     d="m 60.533338,46.326142 c 0.145,-0.192 -0.531,-1.1186 -0.135,-1.4573 0.395,-0.344 1.047,0.104 2.963,-0.428 l 0.021,-0.0053 c 1.385,-0.432 2.765,-0.2494 3.656,0.636 1.479,1.4533 1.068,4.2706 -0.916,6.2759 -1.98,2.0107 -4.787,2.4587 -6.267,1 -1.416,-1.396 -1.098,-4.036 0.678,-6.0213 z"
     id="path37" />
  <path
     style="fill:#231f20;fill-opacity:1;fill-rule:nonzero;stroke:none"
     d="m 20.606338,48.992842 c 0.885,-3.9107 4.041,-1.328 4.506,-1.224 4.9,1.0786 5.223,1.2813 8.885,2.36 5.301,1.5626 8.692,3.448 8.686,6.7973 -0.009,2.2707 -0.994,3.5773 -2.218,4.0613 -1.354,0.5373 -4.52,0.204 -5.801,-2.3853 l -1.454,-0.9107 c -1.057,-0.4746 -1.579,-0.724 -2.12,-0.9226 -0.943,-0.3374 -1.926,-0.7707 -3.724,-1.5414 -3.192,-1.3693 -6.12,-3.864 -6.12,-3.864 -1.129,-0.516 -0.64,-2.3706 -0.64,-2.3706"
     id="path38" />
  <path
     style="fill:none;stroke:#231f20;stroke-width:0.565977;stroke-linecap:butt;stroke-linejoin:miter;stroke-miterlimit:4;stroke-dasharray:none;stroke-opacity:1"
     d="m 20.606338,48.992842 c 0.885,-3.9107 4.041,-1.328 4.506,-1.224 4.9,1.0786 5.223,1.2813 8.885,2.36 5.301,1.5626 8.692,3.448 8.686,6.7973 -0.009,2.2707 -0.994,3.5773 -2.218,4.0613 -1.354,0.5373 -4.52,0.204 -5.801,-2.3853 l -1.454,-0.9107 c -1.057,-0.4746 -1.579,-0.724 -2.12,-0.9226 -0.943,-0.3374 -1.926,-0.7707 -3.724,-1.5414 -3.192,-1.3693 -6.12,-3.864 -6.12,-3.864 -1.129,-0.516 -0.64,-2.3706 -0.64,-2.3706 z"
     id="path39" />
  <path
     style="fill:#ca0369;fill-opacity:1;fill-rule:nonzero;stroke:none"
     d="m 40.830338,53.263442 c -0.631,-0.828 -1.032,-1.312 -1.839,-1.3066 -0.073,0 -0.15,-0.0107 -0.229,-0.0267 -0.521,-0.26 -1.073,-0.52 -1.683,-0.76 l -2.415,7.432 c 1.281,2.5893 4.442,2.9226 5.801,2.3853 1.224,-0.484 2.213,-1.7906 2.218,-4.0613 0.006,-1.4747 -0.672,-2.6573 -1.853,-3.6627"
     id="path40" />
  <path
     style="fill:none;stroke:#231f20;stroke-width:0.565977;stroke-linecap:butt;stroke-linejoin:miter;stroke-miterlimit:4;stroke-dasharray:none;stroke-opacity:1"
     d="m 40.830338,53.263442 c -0.631,-0.828 -1.032,-1.312 -1.839,-1.3066 -0.073,0 -0.15,-0.0107 -0.229,-0.0267 -0.521,-0.26 -1.073,-0.52 -1.683,-0.76 l -2.415,7.432 c 1.281,2.5893 4.442,2.9226 5.801,2.3853 1.224,-0.484 2.213,-1.7906 2.218,-4.0613 0.006,-1.4747 -0.672,-2.6573 -1.853,-3.6627 z"
     id="path41" />
  <path
     style="fill:#231f20;fill-opacity:1;fill-rule:nonzero;stroke:none"
     d="m 71.793338,40.899542 c -0.64,0.0626 -1.979,1.4746 -3.452,2.1253 -0.991,0.4373 -2.83,2.4787 -3.85,2.844 -0.932,0.3387 -1.333,0.5773 -1.136,1.7133 0.12,0.672 0.782,1.8907 1.287,1.828 1.188,-0.1507 2,-0.6307 2.792,-1.3547 0.896,-0.8173 3.14,-3.2546 3.505,-3.7439 0.922,-1.2134 1.635,-1.396 1.911,-1.6987 0.516,-0.5573 0.428,-0.8907 0.136,-1.3067 -0.552,-0.7813 -1.193,-0.4066 -1.193,-0.4066"
     id="path42" />
  <path
     style="fill:none;stroke:#231f20;stroke-width:0.565977;stroke-linecap:butt;stroke-linejoin:miter;stroke-miterlimit:4;stroke-dasharray:none;stroke-opacity:1"
     d="m 71.793338,40.899542 c -0.64,0.0626 -1.979,1.4746 -3.452,2.1253 -0.991,0.4373 -2.83,2.4787 -3.85,2.844 -0.932,0.3387 -1.333,0.5773 -1.136,1.7133 0.12,0.672 0.782,1.8907 1.287,1.828 1.188,-0.1507 2,-0.6307 2.792,-1.3547 0.896,-0.8173 3.14,-3.2546 3.505,-3.7439 0.922,-1.2134 1.635,-1.396 1.911,-1.6987 0.516,-0.5573 0.428,-0.8907 0.136,-1.3067 -0.552,-0.7813 -1.193,-0.4066 -1.193,-0.4066 z"
     id="path43" />
  <path
     style="fill:#231f20;fill-opacity:1;fill-rule:nonzero;stroke:none"
     d="m 64.689338,46.514142 c -0.911,-0.9213 -2.078,0.7494 -2.454,1.14 -0.369,0.396 -1.561,1.396 -2.593,2.0533 -1.031,0.6614 -2.036,1.9267 -3.989,3.1814 -1.032,0.6666 -1.615,1.9586 -0.588,3.412 1.009,1.432 2.197,1.4066 3.322,0.416 1.124,-0.9894 1.76,-2.3907 2.828,-3.4627 1.063,-1.0787 2.244,-2.0733 3.208,-2.808 1.099,-0.844 1.328,-1.6667 1.208,-2.1293 -0.29,-1.1573 -0.942,-1.8027 -0.942,-1.8027"
     id="path44" />
  <path
     style="fill:none;stroke:#231f20;stroke-width:0.565977;stroke-linecap:butt;stroke-linejoin:miter;stroke-miterlimit:4;stroke-dasharray:none;stroke-opacity:1"
     d="m 64.689338,46.514142 c -0.911,-0.9213 -2.078,0.7494 -2.454,1.14 -0.369,0.396 -1.561,1.396 -2.593,2.0533 -1.031,0.6614 -2.036,1.9267 -3.989,3.1814 -1.032,0.6666 -1.615,1.9586 -0.588,3.412 1.009,1.432 2.197,1.4066 3.322,0.416 1.124,-0.9894 1.76,-2.3907 2.828,-3.4627 1.063,-1.0787 2.244,-2.0733 3.208,-2.808 1.099,-0.844 1.328,-1.6667 1.208,-2.1293 -0.29,-1.1573 -0.942,-1.8027 -0.942,-1.8027 z"
     id="path45" />
  <path
     style="fill:#231f20;fill-opacity:1;fill-rule:nonzero;stroke:none"
     d="m 73.027338,42.320842 c 0.631,0.3133 2.49,-1.0613 2.396,-1.3693 -0.093,-0.3014 -0.661,0.2186 -0.781,-0.1147 -0.125,-0.3333 0.292,-0.6147 0.156,-0.8013 -0.145,-0.204 -0.593,0.208 -0.719,-0.068 -0.052,-0.1147 0.214,-0.6467 0.058,-0.7654 -0.135,-0.0946 -0.626,0.0827 -0.735,0.0054 -0.176,-0.12 0.235,-0.5734 0.095,-0.688 -0.36,-0.292 -1.896,1.948 -1.839,2.1773 0.083,0.348 0.364,1.12 1.369,1.624"
     id="path46" />
  <path
     style="fill:none;stroke:#231f20;stroke-width:0.565977;stroke-linecap:round;stroke-linejoin:round;stroke-miterlimit:4;stroke-dasharray:none;stroke-opacity:1"
     d="m 73.027338,42.320842 c 0.631,0.3133 2.49,-1.0613 2.396,-1.3693 -0.093,-0.3014 -0.661,0.2186 -0.781,-0.1147 -0.125,-0.3333 0.292,-0.6147 0.156,-0.8013 -0.145,-0.204 -0.593,0.208 -0.719,-0.068 -0.052,-0.1147 0.214,-0.6467 0.058,-0.7654 -0.135,-0.0946 -0.626,0.0827 -0.735,0.0054 -0.176,-0.12 0.235,-0.5734 0.095,-0.688 -0.36,-0.292 -1.896,1.948 -1.839,2.1773 0.083,0.348 0.364,1.12 1.369,1.624 z"
     id="path47" />
  <path
     style="fill:none;stroke:#231f20;stroke-width:0.399514;stroke-linecap:butt;stroke-linejoin:miter;stroke-miterlimit:4;stroke-dasharray:none;stroke-opacity:1"
     d="m 77.997338,92.025142 c 0.426,3.016 3.801,5.88 4.91,6.38 7.418,3.311998 13.276,1.723998 18.704002,-2.475"
     id="path48" />
  <path
     style="fill:#231f20;fill-opacity:1;fill-rule:nonzero;stroke:none"
     d="m 102.56534,95.197142 c -0.324,0.51 -0.658,1.229 -0.772,1.796 l -0.307,-0.963 -0.855,-0.543 c 0.579,0.032 1.355,-0.109 1.934,-0.29"
     id="path49" />
  <path
     style="fill:#231f20;fill-opacity:1;fill-rule:nonzero;stroke:none"
     d="m 200.22634,13.806242 c -1.324,-0.276 -1.86,0.5573 -1.719,1.5827 0.036,0.308 -0.245,0.6146 -0.177,0.9066 0.145,0.692 1.645,1.5827 2.702,0.5214 0.074,-0.0734 0.803,-0.4587 1.303,-0.824 0.968,-0.7187 2.567,-2.6347 2.301,-5.3174 -0.125,-1.2760004 -0.848,-0.9640004 -0.958,-0.4373 -0.328,1.6773 -0.687,1.7653 -0.932,2.172 -0.839,1.3907 -2.52,1.396 -2.52,1.396"
     id="path50" />
  <path
     style="fill:none;stroke:#231f20;stroke-width:0.332927;stroke-linecap:butt;stroke-linejoin:miter;stroke-miterlimit:4;stroke-dasharray:none;stroke-opacity:1"
     d="m 200.22634,13.806242 c -1.324,-0.276 -1.86,0.5573 -1.719,1.5827 0.036,0.308 -0.245,0.6146 -0.177,0.9066 0.145,0.692 1.645,1.5827 2.702,0.5214 0.074,-0.0734 0.803,-0.4587 1.303,-0.824 0.968,-0.7187 2.567,-2.6347 2.301,-5.3174 -0.125,-1.2760004 -0.848,-0.9640004 -0.958,-0.4373 -0.328,1.6773 -0.687,1.7653 -0.932,2.172 -0.839,1.3907 -2.52,1.396 -2.52,1.396 z"
     id="path51" />
  <path
     style="fill:#231f20;fill-opacity:1;fill-rule:nonzero;stroke:none"
     d="m 187.19934,27.274242 c -1.692,-1.5054 -1.817,-2.0254 -1.235,-2.7814 0.391,-0.5053 0.579,-1.1093 0.803,-1.4266 0.744,-1.0627 2.432,-2.5413 8.312,-5.4787 1.339,-0.672 3.199,-1.6146 3.932,-2.0626 1.157,-0.7134 1.553,1.6866 1.1,1.9733 -1.448,0.9067 -2.371,1.652 -2.849,2.052 -0.328,0.276 -0.975,0.6827 -2.099,1.9066 -1.713,1.8547 -2.459,3.2187 -4.063,4.5987 -0.745,0.6413 -0.896,1.5947 -1.948,1.8493 -1.057,0.26 -1.953,-0.6306 -1.953,-0.6306"
     id="path52" />
  <path
     style="fill:none;stroke:#231f20;stroke-width:0.565977;stroke-linecap:butt;stroke-linejoin:miter;stroke-miterlimit:4;stroke-dasharray:none;stroke-opacity:1"
     d="m 187.19934,27.274242 c -1.692,-1.5054 -1.817,-2.0254 -1.235,-2.7814 0.391,-0.5053 0.579,-1.1093 0.803,-1.4266 0.744,-1.0627 2.432,-2.5413 8.312,-5.4787 1.339,-0.672 3.199,-1.6146 3.932,-2.0626 1.157,-0.7134 1.553,1.6866 1.1,1.9733 -1.448,0.9067 -2.371,1.652 -2.849,2.052 -0.328,0.276 -0.975,0.6827 -2.099,1.9066 -1.713,1.8547 -2.459,3.2187 -4.063,4.5987 -0.745,0.6413 -0.896,1.5947 -1.948,1.8493 -1.057,0.26 -1.953,-0.6306 -1.953,-0.6306 z"
     id="path53" />
  <path
     style="fill:#ca0369;fill-opacity:1;fill-rule:nonzero;stroke:none"
     d="m 165.16834,40.530142 c 2.714,-1.568 3.124,-2.1986 3.676,-2.9373 3.47,-4.6253 5.678,-2.8333 6.642,-0.12 1.14,3.192 1.614,4.312 -4.115,6.9373 -1.593,0.724 -7.339,4.312 -7.339,4.312 -1.88,1.5627 -4.552,2.084 -5.858,1.448 -1.382,-0.6667 -0.787,-0.5053 -1.954,-1.3533 -1.109,-0.8134 -1.98,-2.8187 -1.428,-3.928 0.522,-1.068 2.183,-1.192 4.558,-1.692 1.87,-0.4013 5.818,-2.6667 5.818,-2.6667"
     id="path54" />
  <path
     style="fill:none;stroke:#231f20;stroke-width:0.565977;stroke-linecap:butt;stroke-linejoin:miter;stroke-miterlimit:4;stroke-dasharray:none;stroke-opacity:1"
     d="m 165.16834,40.530142 c 2.714,-1.568 3.124,-2.1986 3.676,-2.9373 3.47,-4.6253 5.678,-2.8333 6.642,-0.12 1.14,3.192 1.614,4.312 -4.115,6.9373 -1.593,0.724 -7.339,4.312 -7.339,4.312 -1.88,1.5627 -4.552,2.084 -5.858,1.448 -1.382,-0.6667 -0.787,-0.5053 -1.954,-1.3533 -1.109,-0.8134 -1.98,-2.8187 -1.428,-3.928 0.522,-1.068 2.183,-1.192 4.558,-1.692 1.87,-0.4013 5.818,-2.6667 5.818,-2.6667 z"
     id="path55" />
  <path
     style="fill:#ffffff;fill-opacity:1;fill-rule:nonzero;stroke:none"
     d="m 152.62034,54.040842 c -0.186,0.156 0.298,1.1973 -0.161,1.452 -0.457,0.256 -1.004,-0.312 -2.989,-0.1814 l -0.02,0.0054 c -1.448,0.1453 -2.762,-0.3134 -3.459,-1.3547 -1.151,-1.7293 -0.183,-4.4013 2.161,-5.9693 2.35,-1.572 5.188,-1.4427 6.344,0.2813 1.104,1.652 0.26,4.1773 -1.876,5.7667"
     id="path56" />
  <path
     style="fill:none;stroke:#231f20;stroke-width:0.565977;stroke-linecap:butt;stroke-linejoin:miter;stroke-miterlimit:4;stroke-dasharray:none;stroke-opacity:1"
     d="m 152.62034,54.040842 c -0.186,0.156 0.298,1.1973 -0.161,1.452 -0.457,0.256 -1.004,-0.312 -2.989,-0.1814 l -0.02,0.0054 c -1.448,0.1453 -2.762,-0.3134 -3.459,-1.3547 -1.151,-1.7293 -0.183,-4.4013 2.161,-5.9693 2.35,-1.572 5.188,-1.4427 6.344,0.2813 1.104,1.652 0.26,4.1773 -1.876,5.7667 z"
     id="path57" />
  <path
     style="fill:#231f20;fill-opacity:1;fill-rule:nonzero;stroke:none"
     d="m 188.37134,25.098242 c 3.219,2.3946 -0.427,4.2333 -0.713,4.6133 -2.97,4.032 -3.287,4.2453 -5.76,7.1573 -3.579,4.208 -6.678,6.5413 -9.74,5.172 -2.074,-0.928 -2.866,-2.3653 -2.808,-3.6773 0.068,-1.4587 1.652,-4.2133 4.537,-4.328 l 1.416,-0.964 c 0.871,-0.7707 1.313,-1.1413 1.708,-1.5573 0.699,-0.724 1.485,-1.448 2.923,-2.7814 2.546,-2.3546 6.016,-4.0106 6.016,-4.0106 0.926,-0.828 2.421,0.376 2.421,0.376"
     id="path58" />
  <path
     style="fill:none;stroke:#231f20;stroke-width:0.565977;stroke-linecap:butt;stroke-linejoin:miter;stroke-miterlimit:4;stroke-dasharray:none;stroke-opacity:1"
     d="m 188.37134,25.098242 c 3.219,2.3946 -0.427,4.2333 -0.713,4.6133 -2.97,4.032 -3.287,4.2453 -5.76,7.1573 -3.579,4.208 -6.678,6.5413 -9.74,5.172 -2.074,-0.928 -2.866,-2.3653 -2.808,-3.6773 0.068,-1.4587 1.652,-4.2133 4.537,-4.328 l 1.416,-0.964 c 0.871,-0.7707 1.313,-1.1413 1.708,-1.5573 0.699,-0.724 1.485,-1.448 2.923,-2.7814 2.546,-2.3546 6.016,-4.0106 6.016,-4.0106 0.926,-0.828 2.421,0.376 2.421,0.376 z"
     id="path59" />
  <path
     style="fill:#ca0369;fill-opacity:1;fill-rule:nonzero;stroke:none"
     d="m 179.43434,40.342142 -4.855,-6.1199 c -2.869,-0.364 -4.896,2.0893 -5.203,3.5159 -0.276,1.2867 0.271,2.8334 2.162,4.0934 1.224,0.8186 2.584,0.912 4.078,0.48 1.031,-0.0627 1.662,-0.1307 2.104,-0.808 0.036,-0.0574 0.088,-0.1147 0.14,-0.1774 0.516,-0.2853 1.038,-0.604 1.574,-0.984"
     id="path60" />
  <path
     style="fill:none;stroke:#231f20;stroke-width:0.565977;stroke-linecap:butt;stroke-linejoin:miter;stroke-miterlimit:4;stroke-dasharray:none;stroke-opacity:1"
     d="m 179.43434,40.342142 -4.855,-6.1199 c -2.869,-0.364 -4.896,2.0893 -5.203,3.5159 -0.276,1.2867 0.271,2.8334 2.162,4.0934 1.224,0.8186 2.584,0.912 4.078,0.48 1.031,-0.0627 1.662,-0.1307 2.104,-0.808 0.036,-0.0574 0.088,-0.1147 0.14,-0.1774 0.516,-0.2853 1.038,-0.604 1.574,-0.984 z"
     id="path61" />
  <path
     style="fill:#231f20;fill-opacity:1;fill-rule:nonzero;stroke:none"
     d="m 139.22634,37.806142 c 0.29,0.572 2.098,1.296 3.244,2.4214 0.776,0.76 3.354,1.7133 4.068,2.532 0.656,0.7386 1.03,1.02 2.01,0.416 0.578,-0.3547 1.468,-1.416 1.224,-1.864 -0.578,-1.048 -1.322,-1.6307 -2.281,-2.0947 -1.093,-0.536 -4.188,-1.7187 -4.776,-1.8853 -1.469,-0.4014 -1.907,-1 -2.287,-1.14 -0.708,-0.276 -0.989,-0.068 -1.265,0.3533 -0.521,0.7973 0.063,1.2613 0.063,1.2613"
     id="path62" />
  <path
     style="fill:none;stroke:#231f20;stroke-width:0.565977;stroke-linecap:butt;stroke-linejoin:miter;stroke-miterlimit:4;stroke-dasharray:none;stroke-opacity:1"
     d="m 139.22634,37.806142 c 0.29,0.572 2.098,1.296 3.244,2.4214 0.776,0.76 3.354,1.7133 4.068,2.532 0.656,0.7386 1.03,1.02 2.01,0.416 0.578,-0.3547 1.468,-1.416 1.224,-1.864 -0.578,-1.048 -1.322,-1.6307 -2.281,-2.0947 -1.093,-0.536 -4.188,-1.7187 -4.776,-1.8853 -1.469,-0.4014 -1.907,-1 -2.287,-1.14 -0.708,-0.276 -0.989,-0.068 -1.265,0.3533 -0.521,0.7973 0.063,1.2613 0.063,1.2613 z"
     id="path63" />
  <path
     style="fill:#231f20;fill-opacity:1;fill-rule:nonzero;stroke:none"
     d="m 147.06834,42.336842 c -0.525,1.188 1.459,1.6507 1.959,1.8547 0.511,0.2026 1.875,0.9426 2.871,1.656 0.994,0.7133 2.536,1.1826 4.432,2.5359 0.994,0.7094 2.41,0.776 3.38,-0.7133 0.964,-1.468 0.494,-2.5626 -0.839,-3.2386 -1.328,-0.6827 -2.869,-0.756 -4.26,-1.3494 -1.391,-0.5893 -2.756,-1.3226 -3.797,-1.948 -1.183,-0.7133 -2.036,-0.6253 -2.422,-0.344 -0.964,0.7027 -1.324,1.5467 -1.324,1.5467"
     id="path64" />
  <path
     style="fill:none;stroke:#231f20;stroke-width:0.565977;stroke-linecap:butt;stroke-linejoin:miter;stroke-miterlimit:4;stroke-dasharray:none;stroke-opacity:1"
     d="m 147.06834,42.336842 c -0.525,1.188 1.459,1.6507 1.959,1.8547 0.511,0.2026 1.875,0.9426 2.871,1.656 0.994,0.7133 2.536,1.1826 4.432,2.5359 0.994,0.7094 2.41,0.776 3.38,-0.7133 0.964,-1.468 0.494,-2.5626 -0.839,-3.2386 -1.328,-0.6827 -2.869,-0.756 -4.26,-1.3494 -1.391,-0.5893 -2.756,-1.3226 -3.797,-1.948 -1.183,-0.7133 -2.036,-0.6253 -2.422,-0.344 -0.964,0.7027 -1.324,1.5467 -1.324,1.5467 z"
     id="path65" />
  <path
     style="fill:#231f20;fill-opacity:1;fill-rule:nonzero;stroke:none"
     d="m 140.16334,35.836842 c 0.031,-0.692 -1.98,-1.8386 -2.224,-1.6293 -0.235,0.2133 0.473,0.5146 0.213,0.7653 -0.254,0.244 -0.682,-0.0213 -0.792,0.1773 -0.129,0.2187 0.423,0.4574 0.224,0.6867 -0.082,0.0933 -0.677,0.068 -0.724,0.256 -0.03,0.1613 0.328,0.5413 0.303,0.676 -0.032,0.2093 -0.615,0.016 -0.667,0.188 -0.12,0.448 2.552,0.9427 2.744,0.7973 0.276,-0.2186 0.871,-0.7866 0.923,-1.9173"
     id="path66" />
  <path
     style="fill:none;stroke:#231f20;stroke-width:0.565977;stroke-linecap:round;stroke-linejoin:round;stroke-miterlimit:4;stroke-dasharray:none;stroke-opacity:1"
     d="m 140.16334,35.836842 c 0.031,-0.692 -1.98,-1.8386 -2.224,-1.6293 -0.235,0.2133 0.473,0.5146 0.213,0.7653 -0.254,0.244 -0.682,-0.0213 -0.792,0.1773 -0.129,0.2187 0.423,0.4574 0.224,0.6867 -0.082,0.0933 -0.677,0.068 -0.724,0.256 -0.03,0.1613 0.328,0.5413 0.303,0.676 -0.032,0.2093 -0.615,0.016 -0.667,0.188 -0.12,0.448 2.552,0.9427 2.744,0.7973 0.276,-0.2186 0.871,-0.7866 0.923,-1.9173 z"
     id="path67" />
  <path
     style="fill:#231f20;fill-opacity:1;fill-rule:nonzero;stroke:none"
     d="m 223.24634,8.7649416 c -1.031,0.8746 -0.703,1.8066004 0.188,2.3373004 0.265,0.1573 0.333,0.568 0.604,0.6987 0.63,0.3066 2.26,-0.3227 2.078,-1.8134004 -0.01,-0.1093 0.135,-0.9106 0.156,-1.5306 0.031,-1.2133 -0.489,-3.656 -2.761,-5.104 -1.077,-0.688 -1.285,0.0787 -0.932,0.484 1.115,1.3027 0.959,1.636 1.125,2.0787 0.583,1.516 -0.458,2.8493 -0.458,2.8493"
     id="path68" />
  <path
     style="fill:none;stroke:#231f20;stroke-width:0.332927;stroke-linecap:butt;stroke-linejoin:miter;stroke-miterlimit:4;stroke-dasharray:none;stroke-opacity:1"
     d="m 223.24634,8.7649416 c -1.031,0.8746 -0.703,1.8066004 0.188,2.3373004 0.265,0.1573 0.333,0.568 0.604,0.6987 0.63,0.3066 2.26,-0.3227 2.078,-1.8134004 -0.01,-0.1093 0.135,-0.9106 0.156,-1.5306 0.031,-1.2133 -0.489,-3.656 -2.761,-5.104 -1.077,-0.688 -1.285,0.0787 -0.932,0.484 1.115,1.3027 0.959,1.636 1.125,2.0787 0.583,1.516 -0.458,2.8493 -0.458,2.8493 z"
     id="path69" />
  <path
     style="fill:#231f20;fill-opacity:1;fill-rule:nonzero;stroke:none"
     d="m 225.80334,27.342242 c -2.229,0.4066 -2.719,0.1826 -2.953,-0.7494 -0.156,-0.6146 -0.51,-1.136 -0.624,-1.5053 -0.382,-1.2453 -0.5,-3.4907 0.822,-9.9373 0.296,-1.464 0.703,-3.5213 0.802,-4.3707 0.157,-1.3480004 2.286,-0.1773 2.234,0.3494 -0.177,1.7026 -0.161,2.896 -0.145,3.516 0.015,0.4266 -0.063,1.1866 0.203,2.8333 0.406,2.4947 1.016,3.9266 1.109,6.0413 0.041,0.9787 0.699,1.688 0.251,2.6773 -0.448,0.9894 -1.699,1.1454 -1.699,1.1454"
     id="path70" />
  <path
     style="fill:none;stroke:#231f20;stroke-width:0.565977;stroke-linecap:butt;stroke-linejoin:miter;stroke-miterlimit:4;stroke-dasharray:none;stroke-opacity:1"
     d="m 225.80334,27.342242 c -2.229,0.4066 -2.719,0.1826 -2.953,-0.7494 -0.156,-0.6146 -0.51,-1.136 -0.624,-1.5053 -0.382,-1.2453 -0.5,-3.4907 0.822,-9.9373 0.296,-1.464 0.703,-3.5213 0.802,-4.3707 0.157,-1.3480004 2.286,-0.1773 2.234,0.3494 -0.177,1.7026 -0.161,2.896 -0.145,3.516 0.015,0.4266 -0.063,1.1866 0.203,2.8333 0.406,2.4947 1.016,3.9266 1.109,6.0413 0.041,0.9787 0.699,1.688 0.251,2.6773 -0.448,0.9894 -1.699,1.1454 -1.699,1.1454 z"
     id="path71" />
  <path
     style="fill:#ca0369;fill-opacity:1;fill-rule:nonzero;stroke:none"
     d="m 223.95034,53.268842 c -0.084,-3.1347 -0.443,-3.796 -0.828,-4.6347 -2.407,-5.256 0.218,-6.3333 3.066,-5.8906 3.35,0.5253 4.563,0.6453 4.131,6.9266 -0.125,1.7453 0.287,8.5107 0.287,8.5107 0.473,2.396 -0.35,4.9893 -1.532,5.8386 -1.244,0.896 -0.818,0.4533 -2.124,1.068 -1.24,0.5877 -3.418,0.3907 -4.136,-0.62 -0.683,-0.9693 0,-2.4893 0.693,-4.8173 0.547,-1.8293 0.443,-6.3813 0.443,-6.3813"
     id="path72" />
  <path
     style="fill:none;stroke:#231f20;stroke-width:0.565977;stroke-linecap:butt;stroke-linejoin:miter;stroke-miterlimit:4;stroke-dasharray:none;stroke-opacity:1"
     d="m 223.95034,53.268842 c -0.084,-3.1347 -0.443,-3.796 -0.828,-4.6347 -2.407,-5.256 0.218,-6.3333 3.066,-5.8906 3.35,0.5253 4.563,0.6453 4.131,6.9266 -0.125,1.7453 0.287,8.5107 0.287,8.5107 0.473,2.396 -0.35,4.9893 -1.532,5.8386 -1.244,0.896 -0.818,0.4533 -2.124,1.068 -1.24,0.5877 -3.418,0.3907 -4.136,-0.62 -0.683,-0.9693 0,-2.4893 0.693,-4.8173 0.547,-1.8293 0.443,-6.3813 0.443,-6.3813 z"
     id="path73" />
  <path
     style="fill:#ffffff;fill-opacity:1;fill-rule:nonzero;stroke:none"
     d="m 228.25134,71.503142 c -0.005,0.246 1.099,0.563 0.989,1.079 -0.104,0.511 -0.89,0.552 -2.088,2.14 l -0.016,0.016 c -0.833,1.192 -2.041,1.885 -3.281,1.724 -2.063,-0.255 -3.453,-2.735 -3.104,-5.536 0.355,-2.803 2.308,-4.865 4.365,-4.609 1.974,0.244 3.334,2.536 3.135,5.186"
     id="path74" />
  <path
     style="fill:none;stroke:#231f20;stroke-width:0.565977;stroke-linecap:butt;stroke-linejoin:miter;stroke-miterlimit:4;stroke-dasharray:none;stroke-opacity:1"
     d="m 228.25134,71.503142 c -0.005,0.246 1.099,0.563 0.989,1.079 -0.104,0.511 -0.89,0.552 -2.088,2.14 l -0.016,0.016 c -0.833,1.192 -2.041,1.885 -3.281,1.724 -2.063,-0.255 -3.453,-2.735 -3.104,-5.536 0.355,-2.803 2.308,-4.865 4.365,-4.609 1.974,0.244 3.334,2.536 3.135,5.186 z"
     id="path75" />
  <path
     style="fill:#231f20;fill-opacity:1;fill-rule:nonzero;stroke:none"
     d="m 224.81434,25.076842 c 3.869,-1.052 3.062,2.948 3.193,3.4067 1.337,4.828 1.312,5.208 2.067,8.9573 1.104,5.4173 1.026,9.292 -1.938,10.8546 -2.014,1.0574 -3.629,0.7974 -4.629,-0.0626 -1.109,-0.948 -2.297,-3.896 -0.609,-6.24 l 0.124,-1.708 c -0.068,-1.1613 -0.094,-1.74 -0.178,-2.3067 -0.134,-0.9946 -0.218,-2.0626 -0.374,-4.0159 -0.287,-3.4587 0.546,-7.2134 0.546,-7.2134 -0.066,-1.24 1.798,-1.672 1.798,-1.672"
     id="path76" />
  <path
     style="fill:none;stroke:#231f20;stroke-width:0.565977;stroke-linecap:butt;stroke-linejoin:miter;stroke-miterlimit:4;stroke-dasharray:none;stroke-opacity:1"
     d="m 224.81434,25.076842 c 3.869,-1.052 3.062,2.948 3.193,3.4067 1.337,4.828 1.312,5.208 2.067,8.9573 1.104,5.4173 1.026,9.292 -1.938,10.8546 -2.014,1.0574 -3.629,0.7974 -4.629,-0.0626 -1.109,-0.948 -2.297,-3.896 -0.609,-6.24 l 0.124,-1.708 c -0.068,-1.1613 -0.094,-1.74 -0.178,-2.3067 -0.134,-0.9946 -0.218,-2.0626 -0.374,-4.0159 -0.287,-3.4587 0.546,-7.2134 0.546,-7.2134 -0.066,-1.24 1.798,-1.672 1.798,-1.672 z"
     id="path77" />
  <path
     style="fill:#ca0369;fill-opacity:1;fill-rule:nonzero;stroke:none"
     d="m 230.80334,42.707542 c -0.036,-0.0627 -0.063,-0.136 -0.088,-0.2147 -0.011,-0.5827 -0.041,-1.192 -0.115,-1.8427 l -7.702,1.3427 c -1.688,2.344 -0.5,5.292 0.609,6.24 1,0.86 2.615,1.12 4.629,0.0626 1.308,-0.6879 2.038,-1.8439 2.366,-3.3653 0.437,-0.932 0.676,-1.5146 0.301,-2.2226"
     id="path78" />
  <path
     style="fill:none;stroke:#231f20;stroke-width:0.565977;stroke-linecap:butt;stroke-linejoin:miter;stroke-miterlimit:4;stroke-dasharray:none;stroke-opacity:1"
     d="m 230.80334,42.707542 c -0.036,-0.0627 -0.063,-0.136 -0.088,-0.2147 -0.011,-0.5827 -0.041,-1.192 -0.115,-1.8427 l -7.702,1.3427 c -1.688,2.344 -0.5,5.292 0.609,6.24 1,0.86 2.615,1.12 4.629,0.0626 1.308,-0.6879 2.038,-1.8439 2.366,-3.3653 0.437,-0.932 0.676,-1.5146 0.301,-2.2226 z"
     id="path79" />
  <path
     style="fill:#231f20;fill-opacity:1;fill-rule:nonzero;stroke:none"
     d="m 225.16334,42.268842 c -0.375,0.5213 -0.204,2.464 -0.688,3.9947 -0.328,1.032 -0.011,3.7613 -0.416,4.7719 -0.365,0.9214 -0.448,1.38 0.536,1.9787 0.579,0.36 1.932,0.6667 2.219,0.2453 0.666,-0.9853 0.849,-1.912 0.833,-2.9853 -0.021,-1.208 -0.364,-4.5053 -0.484,-5.104 -0.303,-1.4946 0.031,-2.1506 -0.016,-2.5573 -0.073,-0.7547 -0.38,-0.9107 -0.885,-0.968 -0.954,-0.1 -1.099,0.624 -1.099,0.624"
     id="path80" />
  <path
     style="fill:none;stroke:#231f20;stroke-width:0.565977;stroke-linecap:butt;stroke-linejoin:miter;stroke-miterlimit:4;stroke-dasharray:none;stroke-opacity:1"
     d="m 225.16334,42.268842 c -0.375,0.5213 -0.204,2.464 -0.688,3.9947 -0.328,1.032 -0.011,3.7613 -0.416,4.7719 -0.365,0.9214 -0.448,1.38 0.536,1.9787 0.579,0.36 1.932,0.6667 2.219,0.2453 0.666,-0.9853 0.849,-1.912 0.833,-2.9853 -0.021,-1.208 -0.364,-4.5053 -0.484,-5.104 -0.303,-1.4946 0.031,-2.1506 -0.016,-2.5573 -0.073,-0.7547 -0.38,-0.9107 -0.885,-0.968 -0.954,-0.1 -1.099,0.624 -1.099,0.624 z"
     id="path81" />
  <path
     style="fill:#231f20;fill-opacity:1;fill-rule:nonzero;stroke:none"
     d="m 224.67434,51.316842 c -1.292,0.072 -0.814,2.0466 -0.767,2.588 0.047,0.5413 0.011,2.0986 -0.176,3.3066 -0.188,1.2094 0.093,2.7974 -0.256,5.1 -0.188,1.208 0.401,2.5053 2.167,2.692 1.74,0.1937 2.51,-0.7187 2.51,-2.2133 0,-1.4947 -0.625,-2.9013 -0.729,-4.412 -0.104,-1.504 -0.063,-3.0573 0.021,-4.2653 0.099,-1.38 -0.365,-2.0987 -0.792,-2.312 -1.068,-0.5467 -1.978,-0.484 -1.978,-0.484"
     id="path82" />
  <path
     style="fill:none;stroke:#231f20;stroke-width:0.565977;stroke-linecap:butt;stroke-linejoin:miter;stroke-miterlimit:4;stroke-dasharray:none;stroke-opacity:1"
     d="m 224.67434,51.316842 c -1.292,0.072 -0.814,2.0466 -0.767,2.588 0.047,0.5413 0.011,2.0986 -0.176,3.3066 -0.188,1.2094 0.093,2.7974 -0.256,5.1 -0.188,1.208 0.401,2.5053 2.167,2.692 1.74,0.1937 2.51,-0.7187 2.51,-2.2133 0,-1.4947 -0.625,-2.9013 -0.729,-4.412 -0.104,-1.504 -0.063,-3.0573 0.021,-4.2653 0.099,-1.38 -0.365,-2.0987 -0.792,-2.312 -1.068,-0.5467 -1.978,-0.484 -1.978,-0.484 z"
     id="path83" />
  <path
     style="fill:#ffffff;fill-opacity:1;fill-rule:nonzero;stroke:#231f20;stroke-width:0.665856;stroke-linecap:butt;stroke-linejoin:miter;stroke-miterlimit:4;stroke-dasharray:none;stroke-opacity:1"
     d="m 225.74634,32.363542 h 1.333 V 0.6860416 h -1.333 z"
     id="path84" />
  <path
     style="fill:#ffffff;fill-opacity:1;fill-rule:nonzero;stroke:none"
     d="m 226.00234,41.566142 c -2.355,0 -4.267,-1.916 -4.267,-4.2706 0,-2.3547 1.912,-4.2653 4.267,-4.2653 2.353,0 4.27,1.9106 4.27,4.2653 0,2.3546 -1.917,4.2706 -4.27,4.2706 m 0,-9.8693 c -3.09,0 -5.6,2.5107 -5.6,5.5987 0,3.088 2.51,5.604 5.6,5.604 3.088,0 5.598,-2.516 5.598,-5.604 0,-3.088 -2.51,-5.5987 -5.598,-5.5987"
     id="path85" />
  <path
     style="fill:none;stroke:#231f20;stroke-width:0.665856;stroke-linecap:butt;stroke-linejoin:miter;stroke-miterlimit:4;stroke-dasharray:none;stroke-opacity:1"
     d="m 226.00234,41.566142 c -2.355,0 -4.267,-1.916 -4.267,-4.2706 0,-2.3547 1.912,-4.2653 4.267,-4.2653 2.353,0 4.27,1.9106 4.27,4.2653 0,2.3546 -1.917,4.2706 -4.27,4.2706 z m 0,-9.8693 c -3.09,0 -5.6,2.5107 -5.6,5.5987 0,3.088 2.51,5.604 5.6,5.604 3.088,0 5.598,-2.516 5.598,-5.604 0,-3.088 -2.51,-5.5987 -5.598,-5.5987 z"
     id="path86" />
  <path
     style="fill:#231f20;fill-opacity:1;fill-rule:nonzero;stroke:none"
     d="m 227.05434,42.284842 c 0.645,-0.26 0.848,-2.568 0.557,-2.6973 -0.292,-0.1307 -0.276,0.64 -0.604,0.5053 -0.333,-0.1253 -0.272,-0.6253 -0.5,-0.6467 -0.251,-0.02 -0.235,0.584 -0.527,0.4947 -0.12,-0.036 -0.344,-0.588 -0.536,-0.552 -0.161,0.0373 -0.354,0.5213 -0.485,0.5573 -0.208,0.052 -0.271,-0.5573 -0.448,-0.5253 -0.457,0.0773 0.199,2.708 0.412,2.8227 0.317,0.1613 1.084,0.464 2.131,0.0413"
     id="path87" />
  <path
     style="fill:none;stroke:#231f20;stroke-width:0.565977;stroke-linecap:round;stroke-linejoin:round;stroke-miterlimit:4;stroke-dasharray:none;stroke-opacity:1"
     d="m 227.05434,42.284842 c 0.645,-0.26 0.848,-2.568 0.557,-2.6973 -0.292,-0.1307 -0.276,0.64 -0.604,0.5053 -0.333,-0.1253 -0.272,-0.6253 -0.5,-0.6467 -0.251,-0.02 -0.235,0.584 -0.527,0.4947 -0.12,-0.036 -0.344,-0.588 -0.536,-0.552 -0.161,0.0373 -0.354,0.5213 -0.485,0.5573 -0.208,0.052 -0.271,-0.5573 -0.448,-0.5253 -0.457,0.0773 0.199,2.708 0.412,2.8227 0.317,0.1613 1.084,0.464 2.131,0.0413 z"
     id="path88" />
</svg>
