<?xml version="1.0" encoding="UTF-8" standalone="no"?>
<!-- Created with Inkscape (http://www.inkscape.org/) -->

<svg
   version="1.1"
   id="svg1"
   width="264.83859"
   height="149.06952"
   viewBox="0 0 264.83858 149.06951"
   sodipodi:docname="cell.svg"
   xmlns:inkscape="http://www.inkscape.org/namespaces/inkscape"
   xmlns:sodipodi="http://sodipodi.sourceforge.net/DTD/sodipodi-0.dtd"
   xmlns="http://www.w3.org/2000/svg"
   xmlns:svg="http://www.w3.org/2000/svg">
  <sodipodi:namedview
     id="namedview1"
     pagecolor="#ffffff"
     bordercolor="#000000"
     borderopacity="0.25"
     inkscape:showpageshadow="2"
     inkscape:pageopacity="0.0"
     inkscape:pagecheckerboard="0"
     inkscape:deskcolor="#d1d1d1">
    <inkscape:page
       x="0"
       y="0"
       inkscape:label="1"
       id="page1"
       width="264.83859"
       height="149.0695"
       margin="0"
       bleed="0" />
  </sodipodi:namedview>
  <defs
     id="defs1" />
  <path
     style="fill:none;stroke:#231f20;stroke-width:0.399514;stroke-linecap:butt;stroke-linejoin:miter;stroke-miterlimit:4;stroke-dasharray:none;stroke-opacity:1"
     d="m 199.86562,118.73288 c 22.3,-14.296 12.781,-47.296001 8.469,-53.135001"
     id="path946" />
  <path
     style="fill:#231f20;fill-opacity:1;fill-rule:nonzero;stroke:none"
     d="m 207.61562,64.622879 c 0.511,0.334 1.214,0.688 1.782,0.808 l -0.97,0.292 -0.562,0.838 c 0.052,-0.572 -0.083,-1.354 -0.25,-1.938"
     id="path947" />
  <path
     style="fill:#ffffff;fill-opacity:1;fill-rule:nonzero;stroke:#231f20;stroke-width:0.665856;stroke-linecap:butt;stroke-linejoin:miter;stroke-miterlimit:4;stroke-dasharray:none;stroke-opacity:1"
     d="m 98.479616,5.0878793 0.063,66.3489997 -1.333,-0.006 -0.063,-66.3489997 z"
     id="path948" />
  <path
     style="fill:#ffffff;fill-opacity:1;fill-rule:nonzero;stroke:none"
     d="m 97.859616,80.638879 c -2.353,0 -4.265,-1.921 -4.265,-4.276 0.005,-2.354 1.927,-4.265 4.281,-4.26 2.355004,0.006 4.260004,1.922 4.260004,4.276 -0.005,2.354 -1.921,4.266 -4.276004,4.26 m 0.016,-9.864 c -3.088,-0.01 -5.604,2.5 -5.609,5.588 -0.005,3.083 2.5,5.604 5.588,5.61 3.089004,0 5.605004,-2.506 5.609004,-5.594 0.011,-3.089 -2.5,-5.604 -5.588004,-5.604"
     id="path949" />
  <path
     style="fill:none;stroke:#231f20;stroke-width:0.665856;stroke-linecap:butt;stroke-linejoin:miter;stroke-miterlimit:4;stroke-dasharray:none;stroke-opacity:1"
     d="m 97.859616,80.638879 c -2.353,0 -4.265,-1.921 -4.265,-4.276 0.005,-2.354 1.927,-4.265 4.281,-4.26 2.355004,0.006 4.260004,1.922 4.260004,4.276 -0.005,2.354 -1.921,4.266 -4.276004,4.26 z m 0.016,-9.864 c -3.088,-0.01 -5.604,2.5 -5.609,5.588 -0.005,3.083 2.5,5.604 5.588,5.61 3.089004,0 5.605004,-2.506 5.609004,-5.594 0.011,-3.089 -2.5,-5.604 -5.588004,-5.604 z"
     id="path950" />
  <path
     style="fill:#231f20;fill-opacity:1;fill-rule:nonzero;stroke:none"
     d="m 137.33462,144.40488 c 0.301,-1.318 -0.527,-1.87 -1.552,-1.755 -0.308,0.031 -0.609,-0.256 -0.907,-0.199 -0.688,0.142 -1.609,1.62 -0.568,2.704 0.068,0.072 0.438,0.807 0.798,1.312 0.702,0.99 2.582,2.626 5.27,2.418 1.276,-0.1 0.979,-0.834 0.454,-0.948 -1.672,-0.371 -1.751,-0.73 -2.151,-0.986 -1.376,-0.858 -1.344,-2.546 -1.344,-2.546"
     id="path951" />
  <path
     style="fill:none;stroke:#231f20;stroke-width:0.332927;stroke-linecap:butt;stroke-linejoin:miter;stroke-miterlimit:4;stroke-dasharray:none;stroke-opacity:1"
     d="m 137.33462,144.40488 c 0.301,-1.318 -0.527,-1.87 -1.552,-1.755 -0.308,0.031 -0.609,-0.256 -0.907,-0.199 -0.688,0.142 -1.609,1.62 -0.568,2.704 0.068,0.072 0.438,0.807 0.798,1.312 0.702,0.99 2.582,2.626 5.27,2.418 1.276,-0.1 0.979,-0.834 0.454,-0.948 -1.672,-0.371 -1.751,-0.73 -2.151,-0.986 -1.376,-0.858 -1.344,-2.546 -1.344,-2.546 z"
     id="path952" />
  <path
     style="fill:#231f20;fill-opacity:1;fill-rule:nonzero;stroke:none"
     d="m 124.12162,131.09788 c 1.536,-1.667 2.061,-1.781 2.806,-1.183 0.495,0.402 1.094,0.604 1.412,0.834 1.047,0.765 2.49,2.484 5.318,8.432 0.64,1.349 1.546,3.234 1.984,3.98 0.682,1.166 -1.724,1.509 -2,1.057 -0.88,-1.469 -1.604,-2.407 -2,-2.896 -0.266,-0.333 -0.656,-0.985 -1.859,-2.141 -1.823,-1.75 -3.172,-2.526 -4.521,-4.162 -0.626,-0.754 -1.578,-0.926 -1.807,-1.984 -0.24,-1.057 0.667,-1.937 0.667,-1.937"
     id="path953" />
  <path
     style="fill:none;stroke:#231f20;stroke-width:0.565977;stroke-linecap:butt;stroke-linejoin:miter;stroke-miterlimit:4;stroke-dasharray:none;stroke-opacity:1"
     d="m 124.12162,131.09788 c 1.536,-1.667 2.061,-1.781 2.806,-1.183 0.495,0.402 1.094,0.604 1.412,0.834 1.047,0.765 2.49,2.484 5.318,8.432 0.64,1.349 1.546,3.234 1.984,3.98 0.682,1.166 -1.724,1.509 -2,1.057 -0.88,-1.469 -1.604,-2.407 -2,-2.896 -0.266,-0.333 -0.656,-0.985 -1.859,-2.141 -1.823,-1.75 -3.172,-2.526 -4.521,-4.162 -0.626,-0.754 -1.578,-0.926 -1.807,-1.984 -0.24,-1.057 0.667,-1.937 0.667,-1.937 z"
     id="path954" />
  <path
     style="fill:#ca0369;fill-opacity:1;fill-rule:nonzero;stroke:none"
     d="m 111.30762,108.79488 c 1.516,2.746 2.142,3.172 2.866,3.74 4.552,3.558 2.718,5.73 -0.016,6.64 -3.214,1.074 -4.344,1.527 -6.85,-4.249 -0.692,-1.609 -4.166,-7.427 -4.166,-7.427 -1.526,-1.912 -1.99,-4.594 -1.328,-5.89 0.698,-1.371 0.521,-0.776 1.396,-1.923001 0.833,-1.099 2.854,-1.921 3.953,-1.349 1.057,0.542 1.151,2.209001 1.599,4.589001 0.36,1.875 2.546,5.869 2.546,5.869"
     id="path955" />
  <path
     style="fill:none;stroke:#231f20;stroke-width:0.565977;stroke-linecap:butt;stroke-linejoin:miter;stroke-miterlimit:4;stroke-dasharray:none;stroke-opacity:1"
     d="m 111.30762,108.79488 c 1.516,2.746 2.142,3.172 2.866,3.74 4.552,3.558 2.718,5.73 -0.016,6.64 -3.214,1.074 -4.344,1.527 -6.85,-4.249 -0.692,-1.609 -4.166,-7.427 -4.166,-7.427 -1.526,-1.912 -1.99,-4.594 -1.328,-5.89 0.698,-1.371 0.521,-0.776 1.396,-1.923001 0.833,-1.099 2.854,-1.921 3.953,-1.349 1.057,0.542 1.151,2.209001 1.599,4.589001 0.36,1.875 2.546,5.869 2.546,5.869 z"
     id="path956" />
  <path
     style="fill:#ffffff;fill-opacity:1;fill-rule:nonzero;stroke:none"
     d="m 98.121616,96.237879 c -0.167,-0.177 -1.188,0.36 -1.464,-0.083 -0.282,-0.448 0.26,-1.021 0.03,-3 l -0.004,-0.016 c -0.214,-1.442 0.171,-2.776 1.182,-3.521 1.666,-1.239 4.380004,-0.411 6.062004,1.855 1.694,2.265 1.708,5.109 0.042,6.349 -1.594,1.187 -4.156004,0.473 -5.848004,-1.584"
     id="path957" />
  <path
     style="fill:none;stroke:#231f20;stroke-width:0.565977;stroke-linecap:butt;stroke-linejoin:miter;stroke-miterlimit:4;stroke-dasharray:none;stroke-opacity:1"
     d="m 98.121616,96.237879 c -0.167,-0.177 -1.188,0.36 -1.464,-0.083 -0.282,-0.448 0.26,-1.021 0.03,-3 l -0.004,-0.016 c -0.214,-1.442 0.171,-2.776 1.182,-3.521 1.666,-1.239 4.380004,-0.411 6.062004,1.855 1.694,2.265 1.708,5.109 0.042,6.349 -1.594,1.187 -4.156004,0.473 -5.848004,-1.584 z"
     id="path958" />
  <path
     style="fill:#231f20;fill-opacity:1;fill-rule:nonzero;stroke:none"
     d="m 126.27162,132.31088 c -2.458,3.172 -4.218,-0.51 -4.598,-0.802 -3.97,-3.058 -4.178,-3.375 -7.038,-5.911 -4.14,-3.667 -6.41,-6.813 -4.978,-9.844 0.969,-2.052 2.421,-2.817 3.734,-2.735 1.458,0.094 4.178,1.735 4.239,4.631 l 0.933,1.432 c 0.75,0.885 1.115,1.333 1.52,1.74 0.71,0.708 1.423,1.515 2.719,2.979 2.313,2.593 3.896,6.093 3.896,6.093 0.808,0.948 -0.427,2.417 -0.427,2.417"
     id="path959" />
  <path
     style="fill:none;stroke:#231f20;stroke-width:0.565977;stroke-linecap:butt;stroke-linejoin:miter;stroke-miterlimit:4;stroke-dasharray:none;stroke-opacity:1"
     d="m 126.27162,132.31088 c -2.458,3.172 -4.218,-0.51 -4.598,-0.802 -3.97,-3.058 -4.178,-3.375 -7.038,-5.911 -4.14,-3.667 -6.41,-6.813 -4.978,-9.844 0.969,-2.052 2.421,-2.817 3.734,-2.735 1.458,0.094 4.178,1.735 4.239,4.631 l 0.933,1.432 c 0.75,0.885 1.115,1.333 1.52,1.74 0.71,0.708 1.423,1.515 2.719,2.979 2.313,2.593 3.896,6.093 3.896,6.093 0.808,0.948 -0.427,2.417 -0.427,2.417 z"
     id="path960" />
  <path
     style="fill:#ca0369;fill-opacity:1;fill-rule:nonzero;stroke:none"
     d="m 114.01762,113.06088 c -1.282,-0.302 -2.839,0.214 -4.136,2.078 -0.844,1.208 -0.964,2.568 -0.558,4.068 0.042,1.036 0.094,1.662 0.76,2.12 0.058,0.042 0.115,0.094 0.172,0.146 0.282,0.516 0.59,1.046 0.954,1.588 l 6.218,-4.728 c 0.422,-2.86 -1.989,-4.934 -3.41,-5.272"
     id="path961" />
  <path
     style="fill:none;stroke:#231f20;stroke-width:0.565977;stroke-linecap:butt;stroke-linejoin:miter;stroke-miterlimit:4;stroke-dasharray:none;stroke-opacity:1"
     d="m 114.01762,113.06088 c -1.282,-0.302 -2.839,0.214 -4.136,2.078 -0.844,1.208 -0.964,2.568 -0.558,4.068 0.042,1.036 0.094,1.662 0.76,2.12 0.058,0.042 0.115,0.094 0.172,0.146 0.282,0.516 0.59,1.046 0.954,1.588 l 6.218,-4.728 c 0.422,-2.86 -1.989,-4.934 -3.41,-5.272 z"
     id="path962" />
  <path
     style="fill:#231f20;fill-opacity:1;fill-rule:nonzero;stroke:none"
     d="m 98.026616,82.341879 c -0.161,0.62 0.699,2.371 0.803,3.975 0.068,1.082 1.353004,3.51 1.338004,4.598 -0.005,0.99 0.083,1.443 1.214,1.651 0.672,0.12 2.046,-0.077 2.161,-0.577 0.265,-1.156 0.099,-2.09 -0.303,-3.079 -0.462,-1.131 -1.973,-4.073 -2.296,-4.588 -0.828,-1.287 -0.75,-2.016 -0.937,-2.38 -0.349004,-0.677 -0.693004,-0.709 -1.177004,-0.579 -0.927,0.246 -0.803,0.979 -0.803,0.979"
     id="path963" />
  <path
     style="fill:none;stroke:#231f20;stroke-width:0.565977;stroke-linecap:butt;stroke-linejoin:miter;stroke-miterlimit:4;stroke-dasharray:none;stroke-opacity:1"
     d="m 98.026616,82.341879 c -0.161,0.62 0.699,2.371 0.803,3.975 0.068,1.082 1.353004,3.51 1.338004,4.598 -0.005,0.99 0.083,1.443 1.214,1.651 0.672,0.12 2.046,-0.077 2.161,-0.577 0.265,-1.156 0.099,-2.09 -0.303,-3.079 -0.462,-1.131 -1.973,-4.073 -2.296,-4.588 -0.828,-1.287 -0.75,-2.016 -0.937,-2.38 -0.349004,-0.677 -0.693004,-0.709 -1.177004,-0.579 -0.927,0.246 -0.803,0.979 -0.803,0.979 z"
     id="path964" />
  <path
     style="fill:#231f20;fill-opacity:1;fill-rule:nonzero;stroke:none"
     d="m 100.83962,90.950879 c -1.177004,0.538 -0.01,2.204 0.224,2.688 0.244,0.49 0.771,1.954 1.031,3.151 0.265,1.193 1.104,2.573 1.604,4.844001 0.271,1.199 1.281,2.193 2.995,1.729 1.698,-0.453 2.078,-1.578 1.542,-2.973 -0.537,-1.396001 -1.636,-2.480001 -2.272,-3.849001 -0.645,-1.371 -1.17,-2.823 -1.53,-3.986 -0.402,-1.317 -1.099,-1.822 -1.574,-1.869 -1.186,-0.125 -2.02,0.265 -2.02,0.265"
     id="path965" />
  <path
     style="fill:none;stroke:#231f20;stroke-width:0.565977;stroke-linecap:butt;stroke-linejoin:miter;stroke-miterlimit:4;stroke-dasharray:none;stroke-opacity:1"
     d="m 100.83962,90.950879 c -1.177004,0.538 -0.01,2.204 0.224,2.688 0.244,0.49 0.771,1.954 1.031,3.151 0.265,1.193 1.104,2.573 1.604,4.844001 0.271,1.199 1.281,2.193 2.995,1.729 1.698,-0.453 2.078,-1.578 1.542,-2.973 -0.537,-1.396001 -1.636,-2.480001 -2.272,-3.849001 -0.645,-1.371 -1.17,-2.823 -1.53,-3.986 -0.402,-1.317 -1.099,-1.822 -1.574,-1.869 -1.186,-0.125 -2.02,0.265 -2.02,0.265 z"
     id="path966" />
  <path
     style="fill:#231f20;fill-opacity:1;fill-rule:nonzero;stroke:none"
     d="m 100.04262,81.502879 c 0.489,-0.5 -0.245004,-2.692 -0.568004,-2.692 -0.317,-0.005 0.005,0.692 -0.348,0.708 -0.36,0.011 -0.5,-0.468 -0.72,-0.401 -0.233,0.079 0.016,0.625 -0.285,0.661 -0.126,0.022 -0.548,-0.4 -0.71,-0.29 -0.134,0.098 -0.114,0.624 -0.224,0.708 -0.166,0.13 -0.473,-0.402 -0.618,-0.308 -0.391,0.256 1.265,2.406 1.504,2.422 0.354,0.026 1.177,0 1.969004,-0.808"
     id="path967" />
  <path
     style="fill:none;stroke:#231f20;stroke-width:0.565977;stroke-linecap:round;stroke-linejoin:round;stroke-miterlimit:4;stroke-dasharray:none;stroke-opacity:1"
     d="m 100.04262,81.502879 c 0.489,-0.5 -0.245004,-2.692 -0.568004,-2.692 -0.317,-0.005 0.005,0.692 -0.348,0.708 -0.36,0.011 -0.5,-0.468 -0.72,-0.401 -0.233,0.079 0.016,0.625 -0.285,0.661 -0.126,0.022 -0.548,-0.4 -0.71,-0.29 -0.134,0.098 -0.114,0.624 -0.224,0.708 -0.166,0.13 -0.473,-0.402 -0.618,-0.308 -0.391,0.256 1.265,2.406 1.504,2.422 0.354,0.026 1.177,0 1.969004,-0.808 z"
     id="path968" />
  <path
     style="fill:#ffffff;fill-opacity:1;fill-rule:nonzero;stroke:#231f20;stroke-width:0.665856;stroke-linecap:butt;stroke-linejoin:miter;stroke-miterlimit:4;stroke-dasharray:none;stroke-opacity:1"
     d="m 168.01162,5.1608793 -6.505,66.5619997 -1.324,-0.13 6.501,-66.5679997 z"
     id="path969" />
  <path
     style="fill:#ffffff;fill-opacity:1;fill-rule:nonzero;stroke:none"
     d="m 164.14162,78.742879 c -1.328,1.948 -3.99,2.454 -5.932,1.126 -1.943,-1.328 -2.448,-3.99 -1.12,-5.932 1.322,-1.948 3.984,-2.448 5.932,-1.12 1.942,1.322 2.448,3.984 1.12,5.926 m -8.151,-5.557 c -1.74,2.552 -1.084,6.041 1.469,7.781 2.552,1.74 6.042,1.079 7.78,-1.473 1.74,-2.548 1.084,-6.043 -1.468,-7.781 -2.552,-1.74 -6.041,-1.079 -7.781,1.473"
     id="path970" />
  <path
     style="fill:none;stroke:#231f20;stroke-width:0.665856;stroke-linecap:butt;stroke-linejoin:miter;stroke-miterlimit:4;stroke-dasharray:none;stroke-opacity:1"
     d="m 164.14162,78.742879 c -1.328,1.948 -3.99,2.454 -5.932,1.126 -1.943,-1.328 -2.448,-3.99 -1.12,-5.932 1.322,-1.948 3.984,-2.448 5.932,-1.12 1.942,1.322 2.448,3.984 1.12,5.926 z m -8.151,-5.557 c -1.74,2.552 -1.084,6.041 1.469,7.781 2.552,1.74 6.042,1.079 7.78,-1.473 1.74,-2.548 1.084,-6.043 -1.468,-7.781 -2.552,-1.74 -6.041,-1.079 -7.781,1.473 z"
     id="path971" />
  <path
     style="fill:#231f20;fill-opacity:1;fill-rule:nonzero;stroke:none"
     d="m 224.49562,84.002879 c -1.1,-0.79 -1.92,-0.249 -2.22,0.746 -0.09,0.297 -0.47,0.464 -0.54,0.76 -0.14,0.688 0.86,2.114 2.27,1.573 0.1,-0.036 0.92,-0.083 1.52,-0.219 1.18,-0.26 3.43,-1.36 4.28,-3.912 0.41,-1.213 -0.38,-1.228 -0.7,-0.785 -0.98,1.395 -1.34,1.323 -1.74,1.593 -1.33,0.927 -2.87,0.244 -2.87,0.244"
     id="path972" />
  <path
     style="fill:none;stroke:#231f20;stroke-width:0.332927;stroke-linecap:butt;stroke-linejoin:miter;stroke-miterlimit:4;stroke-dasharray:none;stroke-opacity:1"
     d="m 224.49562,84.002879 c -1.1,-0.79 -1.92,-0.249 -2.22,0.746 -0.09,0.297 -0.47,0.464 -0.54,0.76 -0.14,0.688 0.86,2.114 2.27,1.573 0.1,-0.036 0.92,-0.083 1.52,-0.219 1.18,-0.26 3.43,-1.36 4.28,-3.912 0.41,-1.213 -0.38,-1.228 -0.7,-0.785 -0.98,1.395 -1.34,1.323 -1.74,1.593 -1.33,0.927 -2.87,0.244 -2.87,0.244 z"
     id="path973" />
  <path
     style="fill:#231f20;fill-opacity:1;fill-rule:nonzero;stroke:none"
     d="m 207.08962,90.982879 c -0.932,-2.068 -0.839,-2.593 0.01,-3.046 0.558,-0.303 0.984,-0.771 1.312,-0.975 1.115,-0.667 3.262,-1.323 9.844,-1.609 1.49,-0.058 3.58,-0.167 4.43,-0.276 1.35,-0.172 0.73,2.177 0.2,2.25 -1.7,0.244 -2.85,0.547 -3.44,0.714 -0.41,0.12 -1.17,0.224 -2.71,0.885 -2.313,0.989 -3.557,1.927 -5.589,2.536 -0.937,0.276 -1.468,1.084 -2.531,0.891 -1.068,-0.192 -1.526,-1.37 -1.526,-1.37"
     id="path974" />
  <path
     style="fill:none;stroke:#231f20;stroke-width:0.565977;stroke-linecap:butt;stroke-linejoin:miter;stroke-miterlimit:4;stroke-dasharray:none;stroke-opacity:1"
     d="m 207.08962,90.982879 c -0.932,-2.068 -0.839,-2.593 0.01,-3.046 0.558,-0.303 0.984,-0.771 1.312,-0.975 1.115,-0.667 3.262,-1.323 9.844,-1.609 1.49,-0.058 3.58,-0.167 4.43,-0.276 1.35,-0.172 0.73,2.177 0.2,2.25 -1.7,0.244 -2.85,0.547 -3.44,0.714 -0.41,0.12 -1.17,0.224 -2.71,0.885 -2.313,0.989 -3.557,1.927 -5.589,2.536 -0.937,0.276 -1.468,1.084 -2.531,0.891 -1.068,-0.192 -1.526,-1.37 -1.526,-1.37 z"
     id="path975" />
  <path
     style="fill:#ca0369;fill-opacity:1;fill-rule:nonzero;stroke:none"
     d="m 181.56962,94.977879 c 3.014,-0.833 3.572,-1.344 4.296,-1.921 4.516,-3.606 6.204,-1.319 6.453,1.556 0.308,3.376 0.479,4.578 -5.724,5.677001 -1.724,0.303 -8.183,2.333 -8.183,2.333 -2.213,1.043 -4.926,0.871 -6.036,-0.072 -1.172,-0.996 -0.636,-0.682 -1.552,-1.802 -0.874,-1.063001 -1.202,-3.230001 -0.396,-4.162001 0.776,-0.901 2.418,-0.604 4.839,-0.494 1.912,0.088 6.303,-1.115 6.303,-1.115"
     id="path976" />
  <path
     style="fill:none;stroke:#231f20;stroke-width:0.565977;stroke-linecap:butt;stroke-linejoin:miter;stroke-miterlimit:4;stroke-dasharray:none;stroke-opacity:1"
     d="m 181.56962,94.977879 c 3.014,-0.833 3.572,-1.344 4.296,-1.921 4.516,-3.606 6.204,-1.319 6.453,1.556 0.308,3.376 0.479,4.578 -5.724,5.677001 -1.724,0.303 -8.183,2.333 -8.183,2.333 -2.213,1.043 -4.926,0.871 -6.036,-0.072 -1.172,-0.996 -0.636,-0.682 -1.552,-1.802 -0.874,-1.063001 -1.202,-3.230001 -0.396,-4.162001 0.776,-0.901 2.418,-0.604 4.839,-0.494 1.912,0.088 6.303,-1.115 6.303,-1.115 z"
     id="path977" />
  <path
     style="fill:#ffffff;fill-opacity:1;fill-rule:nonzero;stroke:none"
     d="m 165.43862,103.93088 c -0.229,0.088 -0.125,1.235 -0.641,1.318 -0.515,0.088 -0.838,-0.631 -2.755,-1.167 l -0.021,-0.005 c -1.416,-0.339 -2.5,-1.214 -2.807,-2.427 -0.516,-2.011001 1.292,-4.213001 4.025,-4.907001 2.735,-0.697 5.371,0.366 5.882,2.38 0.494,1.928001 -1.142,4.022001 -3.683,4.808001"
     id="path978" />
  <path
     style="fill:none;stroke:#231f20;stroke-width:0.565977;stroke-linecap:butt;stroke-linejoin:miter;stroke-miterlimit:4;stroke-dasharray:none;stroke-opacity:1"
     d="m 165.43862,103.93088 c -0.229,0.088 -0.125,1.235 -0.641,1.318 -0.515,0.088 -0.838,-0.631 -2.755,-1.167 l -0.021,-0.005 c -1.416,-0.339 -2.5,-1.214 -2.807,-2.427 -0.516,-2.011001 1.292,-4.213001 4.025,-4.907001 2.735,-0.697 5.371,0.366 5.882,2.38 0.494,1.928001 -1.142,4.022001 -3.683,4.808001 z"
     id="path979" />
  <path
     style="fill:#231f20;fill-opacity:1;fill-rule:nonzero;stroke:none"
     d="m 209.04762,89.472879 c 1.959,3.5 -2.114,3.688 -2.536,3.921 -4.36,2.469 -4.734,2.537 -8.188,4.177 -4.984,2.38 -8.765,3.246001 -11,0.746 -1.516,-1.694 -1.65,-3.328 -1.062,-4.506 0.65,-1.308 3.229,-3.172 5.912,-2.098 l 1.686,-0.298 c 1.11,-0.349 1.662,-0.51 2.194,-0.724 0.932,-0.374 1.953,-0.718 3.806,-1.344 3.287,-1.109 7.131,-1.213 7.131,-1.213 1.188,-0.364 2.057,1.339 2.057,1.339"
     id="path980" />
  <path
     style="fill:none;stroke:#231f20;stroke-width:0.565977;stroke-linecap:butt;stroke-linejoin:miter;stroke-miterlimit:4;stroke-dasharray:none;stroke-opacity:1"
     d="m 209.04762,89.472879 c 1.959,3.5 -2.114,3.688 -2.536,3.921 -4.36,2.469 -4.734,2.537 -8.188,4.177 -4.984,2.38 -8.765,3.246001 -11,0.746 -1.516,-1.694 -1.65,-3.328 -1.062,-4.506 0.65,-1.308 3.229,-3.172 5.912,-2.098 l 1.686,-0.298 c 1.11,-0.349 1.662,-0.51 2.194,-0.724 0.932,-0.374 1.953,-0.718 3.806,-1.344 3.287,-1.109 7.131,-1.213 7.131,-1.213 1.188,-0.364 2.057,1.339 2.057,1.339 z"
     id="path981" />
  <path
     style="fill:#ca0369;fill-opacity:1;fill-rule:nonzero;stroke:none"
     d="m 195.33962,98.857879 -3.166,-7.145 c -2.683,-1.074 -5.262,0.79 -5.912,2.093 -0.588,1.183 -0.454,2.812 1.062,4.511 0.984,1.098 2.276,1.525 3.828,1.484 1.016,0.198 1.642,0.292001 2.24,-0.25 0.052,-0.048 0.12,-0.094 0.187,-0.141 0.563,-0.145 1.147,-0.328 1.761,-0.552"
     id="path982" />
  <path
     style="fill:none;stroke:#231f20;stroke-width:0.565977;stroke-linecap:butt;stroke-linejoin:miter;stroke-miterlimit:4;stroke-dasharray:none;stroke-opacity:1"
     d="m 195.33962,98.857879 -3.166,-7.145 c -2.683,-1.074 -5.262,0.79 -5.912,2.093 -0.588,1.183 -0.454,2.812 1.062,4.511 0.984,1.098 2.276,1.525 3.828,1.484 1.016,0.198 1.642,0.292001 2.24,-0.25 0.052,-0.048 0.12,-0.094 0.187,-0.141 0.563,-0.145 1.147,-0.328 1.761,-0.552 z"
     id="path983" />
  <path
     style="fill:#231f20;fill-opacity:1;fill-rule:nonzero;stroke:none"
     d="m 161.01162,82.217879 c -0.01,0.645 1.234,2.14 1.714,3.681 0.317,1.032 2.129,3.095 2.374,4.152 0.224,0.968 0.416,1.391 1.568,1.328 0.683,-0.037 1.963,-0.557 1.963,-1.062 -0.009,-1.194 -0.391,-2.063 -1.015,-2.932 -0.709,-0.986 -2.865,-3.496 -3.308,-3.923 -1.098,-1.052 -1.202,-1.781 -1.468,-2.088 -0.489,-0.579 -0.833,-0.532 -1.276,-0.292 -0.844,0.459 -0.552,1.136 -0.552,1.136"
     id="path984" />
  <path
     style="fill:none;stroke:#231f20;stroke-width:0.565977;stroke-linecap:butt;stroke-linejoin:miter;stroke-miterlimit:4;stroke-dasharray:none;stroke-opacity:1"
     d="m 161.01162,82.217879 c -0.01,0.645 1.234,2.14 1.714,3.681 0.317,1.032 2.129,3.095 2.374,4.152 0.224,0.968 0.416,1.391 1.568,1.328 0.683,-0.037 1.963,-0.557 1.963,-1.062 -0.009,-1.194 -0.391,-2.063 -1.015,-2.932 -0.709,-0.986 -2.865,-3.496 -3.308,-3.923 -1.098,-1.052 -1.202,-1.781 -1.468,-2.088 -0.489,-0.579 -0.833,-0.532 -1.276,-0.292 -0.844,0.459 -0.552,1.136 -0.552,1.136 z"
     id="path985" />
  <path
     style="fill:#231f20;fill-opacity:1;fill-rule:nonzero;stroke:none"
     d="m 165.76162,89.936879 c -1.022,0.796 0.5,2.145 0.849,2.562 0.344,0.416 1.203,1.719 1.735,2.818 0.536,1.104 1.676,2.249 2.697,4.338 0.536,1.099001 1.755,1.828001 3.312,0.979001 1.543,-0.839001 1.657,-2.021001 0.803,-3.249001 -0.85,-1.235 -2.167,-2.032 -3.11,-3.215 -0.942,-1.181 -1.797,-2.468 -2.412,-3.515 -0.708,-1.188 -1.5,-1.516 -1.973,-1.453 -1.183,0.161 -1.901,0.735 -1.901,0.735"
     id="path986" />
  <path
     style="fill:none;stroke:#231f20;stroke-width:0.565977;stroke-linecap:butt;stroke-linejoin:miter;stroke-miterlimit:4;stroke-dasharray:none;stroke-opacity:1"
     d="m 165.76162,89.936879 c -1.022,0.796 0.5,2.145 0.849,2.562 0.344,0.416 1.203,1.719 1.735,2.818 0.536,1.104 1.676,2.249 2.697,4.338 0.536,1.099001 1.755,1.828001 3.312,0.979001 1.543,-0.839001 1.657,-2.021001 0.803,-3.249001 -0.85,-1.235 -2.167,-2.032 -3.11,-3.215 -0.942,-1.181 -1.797,-2.468 -2.412,-3.515 -0.708,-1.188 -1.5,-1.516 -1.973,-1.453 -1.183,0.161 -1.901,0.735 -1.901,0.735 z"
     id="path987" />
  <path
     style="fill:#231f20;fill-opacity:1;fill-rule:nonzero;stroke:none"
     d="m 162.54262,81.336879 c 0.484,-0.504 -0.287,-2.687 -0.609,-2.687 -0.318,0 0.021,0.697 -0.339,0.713 -0.355,0.022 -0.505,-0.458 -0.719,-0.385 -0.24,0.083 0.027,0.625 -0.276,0.667 -0.13,0.016 -0.562,-0.391 -0.713,-0.276 -0.136,0.098 -0.109,0.62 -0.213,0.702 -0.167,0.136 -0.48,-0.39 -0.631,-0.292 -0.385,0.262 1.308,2.382 1.547,2.396 0.354,0.022 1.177,-0.02 1.953,-0.838"
     id="path988" />
  <path
     style="fill:none;stroke:#231f20;stroke-width:0.565977;stroke-linecap:round;stroke-linejoin:round;stroke-miterlimit:4;stroke-dasharray:none;stroke-opacity:1"
     d="m 162.54262,81.336879 c 0.484,-0.504 -0.287,-2.687 -0.609,-2.687 -0.318,0 0.021,0.697 -0.339,0.713 -0.355,0.022 -0.505,-0.458 -0.719,-0.385 -0.24,0.083 0.027,0.625 -0.276,0.667 -0.13,0.016 -0.562,-0.391 -0.713,-0.276 -0.136,0.098 -0.109,0.62 -0.213,0.702 -0.167,0.136 -0.48,-0.39 -0.631,-0.292 -0.385,0.262 1.308,2.382 1.547,2.396 0.354,0.022 1.177,-0.02 1.953,-0.838 z"
     id="path989" />
  <path
     style="fill:#ffffff;fill-opacity:1;fill-rule:nonzero;stroke:none"
     d="m 263.36562,67.914879 c 0.05,0.246 1.19,0.344 1.19,0.87 -0.01,0.521 -0.78,0.709 -1.65,2.5 l -0.01,0.021 c -0.59,1.328 -1.64,2.24 -2.89,2.323 -2.07,0.146 -3.91,-2.026 -4.1,-4.844 -0.2,-2.818 1.32,-5.214 3.4,-5.354 1.98,-0.141 3.75,1.844 4.06,4.484"
     id="path990" />
  <path
     style="fill:none;stroke:#231f20;stroke-width:0.565977;stroke-linecap:butt;stroke-linejoin:miter;stroke-miterlimit:4;stroke-dasharray:none;stroke-opacity:1"
     d="m 263.36562,67.914879 c 0.05,0.246 1.19,0.344 1.19,0.87 -0.01,0.521 -0.78,0.709 -1.65,2.5 l -0.01,0.021 c -0.59,1.328 -1.64,2.24 -2.89,2.323 -2.07,0.146 -3.91,-2.026 -4.1,-4.844 -0.2,-2.818 1.32,-5.214 3.4,-5.354 1.98,-0.141 3.75,1.844 4.06,4.484 z"
     id="path991" />
  <path
     style="fill:#231f20;fill-opacity:1;fill-rule:nonzero;stroke:none"
     d="m 259.10562,80.258879 c 0.38,-0.516 0.24,-2.458 0.75,-3.989 0.34,-1.027 0.06,-3.756 0.48,-4.756 0.38,-0.916 0.47,-1.375 -0.51,-1.989 -0.57,-0.37 -1.92,-0.692 -2.21,-0.276 -0.68,0.973 -0.88,1.901 -0.88,2.973 0,1.209 0.3,4.511 0.41,5.115 0.28,1.496 -0.06,2.146 -0.02,2.552 0.07,0.756 0.37,0.917 0.88,0.98 0.94,0.114 1.1,-0.61 1.1,-0.61"
     id="path992" />
  <path
     style="fill:none;stroke:#231f20;stroke-width:0.565977;stroke-linecap:butt;stroke-linejoin:miter;stroke-miterlimit:4;stroke-dasharray:none;stroke-opacity:1"
     d="m 259.10562,80.258879 c 0.38,-0.516 0.24,-2.458 0.75,-3.989 0.34,-1.027 0.06,-3.756 0.48,-4.756 0.38,-0.916 0.47,-1.375 -0.51,-1.989 -0.57,-0.37 -1.92,-0.692 -2.21,-0.276 -0.68,0.973 -0.88,1.901 -0.88,2.973 0,1.209 0.3,4.511 0.41,5.115 0.28,1.496 -0.06,2.146 -0.02,2.552 0.07,0.756 0.37,0.917 0.88,0.98 0.94,0.114 1.1,-0.61 1.1,-0.61 z"
     id="path993" />
  <path
     style="fill:#ffffff;fill-opacity:1;fill-rule:nonzero;stroke:none"
     d="m 262.08562,78.398879 c -1.13,2.068 -3.73,2.828 -5.79,1.699 -2.07,-1.125 -2.83,-3.729 -1.7,-5.792 1.12,-2.068 3.72,-2.828 5.79,-1.697 2.06,1.124 2.83,3.724 1.7,5.79 m -8.66,-4.729 c -1.48,2.709 -0.48,6.115 2.23,7.6 2.7,1.479 6.12,0.479 7.59,-2.229 1.49,-2.708 0.49,-6.12 -2.22,-7.604 -2.71,-1.48 -6.12,-0.48 -7.6,2.233"
     id="path994" />
  <path
     style="fill:none;stroke:#231f20;stroke-width:0.665856;stroke-linecap:butt;stroke-linejoin:miter;stroke-miterlimit:4;stroke-dasharray:none;stroke-opacity:1"
     d="m 262.08562,78.398879 c -1.13,2.068 -3.73,2.828 -5.79,1.699 -2.07,-1.125 -2.83,-3.729 -1.7,-5.792 1.12,-2.068 3.72,-2.828 5.79,-1.697 2.06,1.124 2.83,3.724 1.7,5.79 z m -8.66,-4.729 c -1.48,2.709 -0.48,6.115 2.23,7.6 2.7,1.479 6.12,0.479 7.59,-2.229 1.49,-2.708 0.49,-6.12 -2.22,-7.604 -2.71,-1.48 -6.12,-0.48 -7.6,2.233 z"
     id="path995" />
  <path
     style="fill:#231f20;fill-opacity:1;fill-rule:nonzero;stroke:none"
     d="m 254.77562,5.8528793 c -1.04,0.875 -0.7,1.808 0.19,2.333 0.27,0.156 0.34,0.563 0.61,0.699 0.63,0.301 2.26,-0.333 2.07,-1.828 -0.02,-0.105 0.13,-0.912 0.15,-1.527 0.03,-1.213 -0.5,-3.656 -2.78,-5.08799996 -1.09,-0.688 -1.29,0.078 -0.93,0.49 1.12,1.28999996 0.96,1.62399996 1.13,2.06799996 0.58,1.514 -0.44,2.853 -0.44,2.853"
     id="path996" />
  <path
     style="fill:none;stroke:#231f20;stroke-width:0.332927;stroke-linecap:butt;stroke-linejoin:miter;stroke-miterlimit:4;stroke-dasharray:none;stroke-opacity:1"
     d="m 254.77562,5.8528793 c -1.04,0.875 -0.7,1.808 0.19,2.333 0.27,0.156 0.34,0.563 0.61,0.699 0.63,0.301 2.26,-0.333 2.07,-1.828 -0.02,-0.105 0.13,-0.912 0.15,-1.527 0.03,-1.213 -0.5,-3.656 -2.78,-5.08799996 -1.09,-0.688 -1.29,0.078 -0.93,0.49 1.12,1.28999996 0.96,1.62399996 1.13,2.06799996 0.58,1.514 -0.44,2.853 -0.44,2.853 z"
     id="path997" />
  <path
     style="fill:#231f20;fill-opacity:1;fill-rule:nonzero;stroke:none"
     d="m 257.41562,24.415879 c -2.23,0.412 -2.72,0.197 -2.96,-0.73 -0.15,-0.62 -0.51,-1.14 -0.63,-1.51 -0.39,-1.244 -0.51,-3.484 0.77,-9.943 0.3,-1.457 0.69,-3.5199997 0.79,-4.3749997 0.15,-1.349 2.29,-0.188 2.24,0.344 -0.18,1.703 -0.16,2.9019997 -0.13,3.5159997 0.01,0.427 -0.06,1.187 0.22,2.834 0.41,2.489 1.02,3.921 1.13,6.036 0.05,0.973 0.71,1.682 0.27,2.677 -0.45,0.984 -1.7,1.151 -1.7,1.151"
     id="path998" />
  <path
     style="fill:none;stroke:#231f20;stroke-width:0.565977;stroke-linecap:butt;stroke-linejoin:miter;stroke-miterlimit:4;stroke-dasharray:none;stroke-opacity:1"
     d="m 257.41562,24.415879 c -2.23,0.412 -2.72,0.197 -2.96,-0.73 -0.15,-0.62 -0.51,-1.14 -0.63,-1.51 -0.39,-1.244 -0.51,-3.484 0.77,-9.943 0.3,-1.457 0.69,-3.5199997 0.79,-4.3749997 0.15,-1.349 2.29,-0.188 2.24,0.344 -0.18,1.703 -0.16,2.9019997 -0.13,3.5159997 0.01,0.427 -0.06,1.187 0.22,2.834 0.41,2.489 1.02,3.921 1.13,6.036 0.05,0.973 0.71,1.682 0.27,2.677 -0.45,0.984 -1.7,1.151 -1.7,1.151 z"
     id="path999" />
  <path
     style="fill:#ca0369;fill-opacity:1;fill-rule:nonzero;stroke:none"
     d="m 256.12562,50.436879 c -0.28,-3.115 -0.68,-3.756 -1.11,-4.573 -2.73,-5.088 -0.19,-6.334 2.69,-6.068 3.37,0.308 4.59,0.354 4.55,6.65 -0.01,1.751 0.83,8.475 0.83,8.475 0.62,2.364 -0.03,5.005 -1.16,5.921 -1.19,0.98 -0.79,0.505 -2.06,1.204 -1.2,0.667 -3.39,0.604 -4.16,-0.355 -0.74,-0.926 -0.16,-2.489 0.39,-4.854 0.43,-1.859 0.03,-6.4 0.03,-6.4"
     id="path1000" />
  <path
     style="fill:none;stroke:#231f20;stroke-width:0.565977;stroke-linecap:butt;stroke-linejoin:miter;stroke-miterlimit:4;stroke-dasharray:none;stroke-opacity:1"
     d="m 256.12562,50.436879 c -0.28,-3.115 -0.68,-3.756 -1.11,-4.573 -2.73,-5.088 -0.19,-6.334 2.69,-6.068 3.37,0.308 4.59,0.354 4.55,6.65 -0.01,1.751 0.83,8.475 0.83,8.475 0.62,2.364 -0.03,5.005 -1.16,5.921 -1.19,0.98 -0.79,0.505 -2.06,1.204 -1.2,0.667 -3.39,0.604 -4.16,-0.355 -0.74,-0.926 -0.16,-2.489 0.39,-4.854 0.43,-1.859 0.03,-6.4 0.03,-6.4 z"
     id="path1001" />
  <path
     style="fill:#231f20;fill-opacity:1;fill-rule:nonzero;stroke:none"
     d="m 256.41562,22.149879 c 3.86,-1.068 3.08,2.938 3.21,3.402 1.36,4.817 1.33,5.197 2.11,8.942 1.12,5.411 1.07,9.286 -1.89,10.864 -2.01,1.068 -3.62,0.812 -4.63,-0.036 -1.11,-0.948 -2.31,-3.89 -0.63,-6.24 l 0.11,-1.713 c -0.07,-1.161 -0.1,-1.735 -0.18,-2.303 -0.15,-0.994 -0.23,-2.066 -0.41,-4.014 -0.29,-3.459 0.52,-7.215 0.52,-7.215 -0.07,-1.239 1.79,-1.687 1.79,-1.687"
     id="path1002" />
  <path
     style="fill:none;stroke:#231f20;stroke-width:0.565977;stroke-linecap:butt;stroke-linejoin:miter;stroke-miterlimit:4;stroke-dasharray:none;stroke-opacity:1"
     d="m 256.41562,22.149879 c 3.86,-1.068 3.08,2.938 3.21,3.402 1.36,4.817 1.33,5.197 2.11,8.942 1.12,5.411 1.07,9.286 -1.89,10.864 -2.01,1.068 -3.62,0.812 -4.63,-0.036 -1.11,-0.948 -2.31,-3.89 -0.63,-6.24 l 0.11,-1.713 c -0.07,-1.161 -0.1,-1.735 -0.18,-2.303 -0.15,-0.994 -0.23,-2.066 -0.41,-4.014 -0.29,-3.459 0.52,-7.215 0.52,-7.215 -0.07,-1.239 1.79,-1.687 1.79,-1.687 z"
     id="path1003" />
  <path
     style="fill:#ca0369;fill-opacity:1;fill-rule:nonzero;stroke:none"
     d="m 262.48562,39.759879 c -0.03,-0.068 -0.06,-0.142 -0.09,-0.219 -0.01,-0.584 -0.05,-1.188 -0.12,-1.839 l -7.69,1.38 c -1.68,2.35 -0.48,5.292 0.63,6.24 1.01,0.848 2.62,1.104 4.63,0.036 1.3,-0.692 2.02,-1.849 2.35,-3.369 0.44,-0.937 0.67,-1.521 0.29,-2.229"
     id="path1004" />
  <path
     style="fill:none;stroke:#231f20;stroke-width:0.565977;stroke-linecap:butt;stroke-linejoin:miter;stroke-miterlimit:4;stroke-dasharray:none;stroke-opacity:1"
     d="m 262.48562,39.759879 c -0.03,-0.068 -0.06,-0.142 -0.09,-0.219 -0.01,-0.584 -0.05,-1.188 -0.12,-1.839 l -7.69,1.38 c -1.68,2.35 -0.48,5.292 0.63,6.24 1.01,0.848 2.62,1.104 4.63,0.036 1.3,-0.692 2.02,-1.849 2.35,-3.369 0.44,-0.937 0.67,-1.521 0.29,-2.229 z"
     id="path1005" />
  <path
     style="fill:#231f20;fill-opacity:1;fill-rule:nonzero;stroke:none"
     d="m 259.72562,71.221879 c 1.3,-0.052 0.84,-2.036 0.8,-2.583 -0.04,-0.536 0.03,-2.093 0.23,-3.297 0.2,-1.208 -0.06,-2.801 0.33,-5.093 0.2,-1.208 -0.37,-2.511 -2.13,-2.729 -1.74,-0.214 -2.52,0.682 -2.54,2.177 -0.03,1.5 0.58,2.912 0.66,4.426 0.08,1.511 0.02,3.052 -0.08,4.262 -0.11,1.38 0.34,2.104 0.76,2.328 1.05,0.557 1.97,0.509 1.97,0.509"
     id="path1006" />
  <path
     style="fill:none;stroke:#231f20;stroke-width:0.565977;stroke-linecap:butt;stroke-linejoin:miter;stroke-miterlimit:4;stroke-dasharray:none;stroke-opacity:1"
     d="m 259.72562,71.221879 c 1.3,-0.052 0.84,-2.036 0.8,-2.583 -0.04,-0.536 0.03,-2.093 0.23,-3.297 0.2,-1.208 -0.06,-2.801 0.33,-5.093 0.2,-1.208 -0.37,-2.511 -2.13,-2.729 -1.74,-0.214 -2.52,0.682 -2.54,2.177 -0.03,1.5 0.58,2.912 0.66,4.426 0.08,1.511 0.02,3.052 -0.08,4.262 -0.11,1.38 0.34,2.104 0.76,2.328 1.05,0.557 1.97,0.509 1.97,0.509 z"
     id="path1007" />
  <path
     style="fill:#231f20;fill-opacity:1;fill-rule:nonzero;stroke:none"
     d="m 257.15562,80.389879 c -0.61,0.353 -0.47,2.661 -0.17,2.749 0.31,0.088 0.18,-0.672 0.53,-0.593 0.35,0.083 0.35,0.583 0.58,0.572 0.25,-0.009 0.15,-0.604 0.46,-0.563 0.12,0.016 0.42,0.532 0.6,0.464 0.16,-0.057 0.28,-0.562 0.4,-0.62 0.2,-0.082 0.35,0.516 0.52,0.459 0.45,-0.145 -0.59,-2.651 -0.81,-2.735 -0.34,-0.114 -1.14,-0.301 -2.11,0.267"
     id="path1008" />
  <path
     style="fill:none;stroke:#231f20;stroke-width:0.565977;stroke-linecap:round;stroke-linejoin:round;stroke-miterlimit:4;stroke-dasharray:none;stroke-opacity:1"
     d="m 257.15562,80.389879 c -0.61,0.353 -0.47,2.661 -0.17,2.749 0.31,0.088 0.18,-0.672 0.53,-0.593 0.35,0.083 0.35,0.583 0.58,0.572 0.25,-0.009 0.15,-0.604 0.46,-0.563 0.12,0.016 0.42,0.532 0.6,0.464 0.16,-0.057 0.28,-0.562 0.4,-0.62 0.2,-0.082 0.35,0.516 0.52,0.459 0.45,-0.145 -0.59,-2.651 -0.81,-2.735 -0.34,-0.114 -1.14,-0.301 -2.11,0.267 z"
     id="path1009" />
  <path
     style="fill:#ffffff;fill-opacity:1;fill-rule:nonzero;stroke:#231f20;stroke-width:0.665856;stroke-linecap:butt;stroke-linejoin:miter;stroke-miterlimit:4;stroke-dasharray:none;stroke-opacity:1"
     d="m 258.70562,4.7848793 0.07,66.8849997 h -1.34 l -0.07,-66.8849997 z"
     id="path1010" />
  <path
     style="fill:#231f20;fill-opacity:1;fill-rule:nonzero;stroke:none"
     d="m 4.5786155,142.72288 c 1.328,0.255 1.855,-0.589 1.699,-1.614 -0.041,-0.303 0.235,-0.615 0.167,-0.912 -0.156,-0.683 -1.672,-1.552 -2.714,-0.474 -0.078,0.078 -0.797,0.468 -1.292,0.843 -0.964,0.735 -2.536,2.672 -2.234,5.355 0.141,1.27 0.865,0.948 0.964,0.416 0.306,-1.682 0.666,-1.771 0.905,-2.182 0.819,-1.406 2.505,-1.432 2.505,-1.432"
     id="path1011" />
  <path
     style="fill:none;stroke:#231f20;stroke-width:0.332927;stroke-linecap:butt;stroke-linejoin:miter;stroke-miterlimit:4;stroke-dasharray:none;stroke-opacity:1"
     d="m 4.5786155,142.72288 c 1.328,0.255 1.855,-0.589 1.699,-1.614 -0.041,-0.303 0.235,-0.615 0.167,-0.912 -0.156,-0.683 -1.672,-1.552 -2.714,-0.474 -0.078,0.078 -0.797,0.468 -1.292,0.843 -0.964,0.735 -2.536,2.672 -2.234,5.355 0.141,1.27 0.865,0.948 0.964,0.416 0.306,-1.682 0.666,-1.771 0.905,-2.182 0.819,-1.406 2.505,-1.432 2.505,-1.432 z"
     id="path1012" />
  <path
     style="fill:#231f20;fill-opacity:1;fill-rule:nonzero;stroke:none"
     d="m 17.428616,129.06088 c 1.713,1.48 1.849,2.005 1.27,2.772 -0.38,0.504 -0.562,1.109 -0.781,1.432 -0.729,1.077 -2.396,2.577 -8.2440005,5.604 -1.323,0.686 -3.188,1.661 -3.907,2.12 -1.145,0.724 -1.573,-1.672 -1.13,-1.959 1.437,-0.937 2.36,-1.693 2.828,-2.099 0.324,-0.276 0.964,-0.693 2.078,-1.932 1.6780005,-1.881 2.4180005,-3.261 4.0000005,-4.662 0.735,-0.646 0.875,-1.604 1.922,-1.875 1.052,-0.271 1.964,0.599 1.964,0.599"
     id="path1013" />
  <path
     style="fill:none;stroke:#231f20;stroke-width:0.565977;stroke-linecap:butt;stroke-linejoin:miter;stroke-miterlimit:4;stroke-dasharray:none;stroke-opacity:1"
     d="m 17.428616,129.06088 c 1.713,1.48 1.849,2.005 1.27,2.772 -0.38,0.504 -0.562,1.109 -0.781,1.432 -0.729,1.077 -2.396,2.577 -8.2440005,5.604 -1.323,0.686 -3.188,1.661 -3.907,2.12 -1.145,0.724 -1.573,-1.672 -1.13,-1.959 1.437,-0.937 2.36,-1.693 2.828,-2.099 0.324,-0.276 0.964,-0.693 2.078,-1.932 1.6780005,-1.881 2.4180005,-3.261 4.0000005,-4.662 0.735,-0.646 0.875,-1.604 1.922,-1.875 1.052,-0.271 1.964,0.599 1.964,0.599 z"
     id="path1014" />
  <path
     style="fill:#ca0369;fill-opacity:1;fill-rule:nonzero;stroke:none"
     d="m 36.636616,110.94188 c -1.11,2.927 -1.026,3.676 -0.99,4.599 0.251,5.776 -2.593,5.786 -5.062,4.292 -2.906,-1.751 -3.979,-2.319 -1.198,-7.97 0.766,-1.568 2.948,-7.984 2.948,-7.984 0.463,-2.401 2.208,-4.494001 3.626,-4.833001 1.489,-0.355 0.926,-0.109 2.369,-0.183 1.375,-0.078 3.312,0.932 3.593,2.136001 0.266,1.156 -0.942,2.312 -2.462,4.198 -1.194,1.489 -2.824,5.745 -2.824,5.745"
     id="path1015" />
  <path
     style="fill:none;stroke:#231f20;stroke-width:0.565977;stroke-linecap:butt;stroke-linejoin:miter;stroke-miterlimit:4;stroke-dasharray:none;stroke-opacity:1"
     d="m 36.636616,110.94188 c -1.11,2.927 -1.026,3.676 -0.99,4.599 0.251,5.776 -2.593,5.786 -5.062,4.292 -2.906,-1.751 -3.979,-2.319 -1.198,-7.97 0.766,-1.568 2.948,-7.984 2.948,-7.984 0.463,-2.401 2.208,-4.494001 3.626,-4.833001 1.489,-0.355 0.926,-0.109 2.369,-0.183 1.375,-0.078 3.312,0.932 3.593,2.136001 0.266,1.156 -0.942,2.312 -2.462,4.198 -1.194,1.489 -2.824,5.745 -2.824,5.745 z"
     id="path1016" />
  <path
     style="fill:#ffffff;fill-opacity:1;fill-rule:nonzero;stroke:none"
     d="m 37.865616,93.685879 c 0.041,-0.24 -0.989,-0.744 -0.792,-1.235 0.199,-0.484 0.98,-0.385 2.439,-1.733 l 0.014,-0.021 c 1.032,-1.022 2.344,-1.49 3.538,-1.115 1.984,0.615 2.916,3.297 2.077,5.995 -0.839,2.698 -3.129,4.385 -5.109,3.77 -1.896,-0.593 -2.834,-3.082 -2.167,-5.661"
     id="path1017" />
  <path
     style="fill:none;stroke:#231f20;stroke-width:0.565977;stroke-linecap:butt;stroke-linejoin:miter;stroke-miterlimit:4;stroke-dasharray:none;stroke-opacity:1"
     d="m 37.865616,93.685879 c 0.041,-0.24 -0.989,-0.744 -0.792,-1.235 0.199,-0.484 0.98,-0.385 2.439,-1.733 l 0.014,-0.021 c 1.032,-1.022 2.344,-1.49 3.538,-1.115 1.984,0.615 2.916,3.297 2.077,5.995 -0.839,2.698 -3.129,4.385 -5.109,3.77 -1.896,-0.593 -2.834,-3.082 -2.167,-5.661 z"
     id="path1018" />
  <path
     style="fill:#231f20;fill-opacity:1;fill-rule:nonzero;stroke:none"
     d="m 16.288616,131.25888 c -3.251,-2.349 0.369,-4.24 0.64,-4.625 2.917,-4.079 3.234,-4.297 5.672,-7.24 3.521,-4.26 6.588,-6.635 9.661,-5.307 2.089,0.902 2.901,2.323 2.865,3.636 -0.048,1.463 -1.594,4.234 -4.48,4.395 l -1.401,0.98 c -0.864,0.781 -1.296,1.161 -1.687,1.583 -0.688,0.729 -1.469,1.469 -2.885,2.818 -2.516,2.395 -5.959,4.104 -5.959,4.104 -0.921,0.834 -2.426,-0.344 -2.426,-0.344"
     id="path1019" />
  <path
     style="fill:none;stroke:#231f20;stroke-width:0.565977;stroke-linecap:butt;stroke-linejoin:miter;stroke-miterlimit:4;stroke-dasharray:none;stroke-opacity:1"
     d="m 16.288616,131.25888 c -3.251,-2.349 0.369,-4.24 0.64,-4.625 2.917,-4.079 3.234,-4.297 5.672,-7.24 3.521,-4.26 6.588,-6.635 9.661,-5.307 2.089,0.902 2.901,2.323 2.865,3.636 -0.048,1.463 -1.594,4.234 -4.48,4.395 l -1.401,0.98 c -0.864,0.781 -1.296,1.161 -1.687,1.583 -0.688,0.729 -1.469,1.469 -2.885,2.818 -2.516,2.395 -5.959,4.104 -5.959,4.104 -0.921,0.834 -2.426,-0.344 -2.426,-0.344 z"
     id="path1020" />
  <path
     style="fill:#ca0369;fill-opacity:1;fill-rule:nonzero;stroke:none"
     d="m 32.261616,114.08688 c -1.355,-0.584 -2.703,-0.432 -4.093,0.26 -1.011,0.256 -1.615,0.432 -1.928,1.172 -0.031,0.068 -0.072,0.136 -0.114,0.204 -0.448,0.38 -0.901,0.786 -1.36,1.25 l 5.88,5.145 c 2.886,-0.161 4.432,-2.932 4.475,-4.395 0.041,-1.313 -0.771,-2.734 -2.86,-3.636"
     id="path1021" />
  <path
     style="fill:none;stroke:#231f20;stroke-width:0.565977;stroke-linecap:butt;stroke-linejoin:miter;stroke-miterlimit:4;stroke-dasharray:none;stroke-opacity:1"
     d="m 32.261616,114.08688 c -1.355,-0.584 -2.703,-0.432 -4.093,0.26 -1.011,0.256 -1.615,0.432 -1.928,1.172 -0.031,0.068 -0.072,0.136 -0.114,0.204 -0.448,0.38 -0.901,0.786 -1.36,1.25 l 5.88,5.145 c 2.886,-0.161 4.432,-2.932 4.475,-4.395 0.041,-1.313 -0.771,-2.734 -2.86,-3.636 z"
     id="path1022" />
  <path
     style="fill:#231f20;fill-opacity:1;fill-rule:nonzero;stroke:none"
     d="m 44.600616,81.680879 c -0.531,0.365 -1.011,2.245 -1.979,3.537 -0.652,0.869 -1.261,3.541 -1.975,4.359 -0.65,0.75 -0.88,1.156 -0.15,2.052 0.426,0.526 1.598,1.27 2.016,0.964 0.952,-0.708 1.432,-1.527 1.776,-2.536 0.385,-1.158 1.145,-4.376 1.233,-4.98 0.209,-1.511 0.745,-2.02 0.839,-2.416 0.177,-0.735 -0.067,-0.986 -0.52,-1.21 -0.86,-0.41 -1.24,0.23 -1.24,0.23"
     id="path1023" />
  <path
     style="fill:none;stroke:#231f20;stroke-width:0.565977;stroke-linecap:butt;stroke-linejoin:miter;stroke-miterlimit:4;stroke-dasharray:none;stroke-opacity:1"
     d="m 44.600616,81.680879 c -0.531,0.365 -1.011,2.245 -1.979,3.537 -0.652,0.869 -1.261,3.541 -1.975,4.359 -0.65,0.75 -0.88,1.156 -0.15,2.052 0.426,0.526 1.598,1.27 2.016,0.964 0.952,-0.708 1.432,-1.527 1.776,-2.536 0.385,-1.158 1.145,-4.376 1.233,-4.98 0.209,-1.511 0.745,-2.02 0.839,-2.416 0.177,-0.735 -0.067,-0.986 -0.52,-1.21 -0.86,-0.41 -1.24,0.23 -1.24,0.23 z"
     id="path1024" />
  <path
     style="fill:#231f20;fill-opacity:1;fill-rule:nonzero;stroke:none"
     d="m 41.130616,90.050879 c -1.238,-0.365 -1.446,1.662 -1.577,2.187 -0.136,0.521 -0.693,1.975 -1.265,3.057 -0.579,1.084 -0.839,2.672 -1.938,4.724001 -0.573,1.079 -0.448,2.495 1.151,3.26 1.583,0.762 2.604,0.163 3.104,-1.249 0.5,-1.417 0.375,-2.948001 0.781,-4.407001 0.402,-1.457 0.948,-2.9 1.432,-4.014 0.547,-1.272 0.35,-2.106 0.022,-2.448 -0.823,-0.866 -1.71,-1.11 -1.71,-1.11"
     id="path1025" />
  <path
     style="fill:none;stroke:#231f20;stroke-width:0.565977;stroke-linecap:butt;stroke-linejoin:miter;stroke-miterlimit:4;stroke-dasharray:none;stroke-opacity:1"
     d="m 41.130616,90.050879 c -1.238,-0.365 -1.446,1.662 -1.577,2.187 -0.136,0.521 -0.693,1.975 -1.265,3.057 -0.579,1.084 -0.839,2.672 -1.938,4.724001 -0.573,1.079 -0.448,2.495 1.151,3.26 1.583,0.762 2.604,0.163 3.104,-1.249 0.5,-1.417 0.375,-2.948001 0.781,-4.407001 0.402,-1.457 0.948,-2.9 1.432,-4.014 0.547,-1.272 0.35,-2.106 0.022,-2.448 -0.823,-0.866 -1.71,-1.11 -1.71,-1.11 z"
     id="path1026" />
  <path
     style="fill:#ffffff;fill-opacity:1;fill-rule:nonzero;stroke:#231f20;stroke-width:0.665856;stroke-linecap:butt;stroke-linejoin:miter;stroke-miterlimit:4;stroke-dasharray:none;stroke-opacity:1"
     d="m 46.824616,5.0658793 -0.063,67.0569997 h -1.328 l 0.057,-67.0569997 z"
     id="path1027" />
  <path
     style="fill:#ffffff;fill-opacity:1;fill-rule:nonzero;stroke:none"
     d="m 45.678616,81.326879 c -2.354,-0.005 -4.266,-1.922 -4.261,-4.27 0,-2.36 1.917,-4.272 4.271,-4.267 2.354,0 4.266,1.917 4.266,4.271 -0.005,2.354 -1.922,4.266 -4.276,4.266 m 0.01,-9.87 c -3.088,-0.006 -5.604,2.505 -5.604,5.594 -0.006,3.088 2.505,5.604 5.594,5.61 3.088,0 5.604,-2.511 5.61,-5.6 0,-3.088 -2.511,-5.604 -5.6,-5.604"
     id="path1028" />
  <path
     style="fill:none;stroke:#231f20;stroke-width:0.665856;stroke-linecap:butt;stroke-linejoin:miter;stroke-miterlimit:4;stroke-dasharray:none;stroke-opacity:1"
     d="m 45.678616,81.326879 c -2.354,-0.005 -4.266,-1.922 -4.261,-4.27 0,-2.36 1.917,-4.272 4.271,-4.267 2.354,0 4.266,1.917 4.266,4.271 -0.005,2.354 -1.922,4.266 -4.276,4.266 z m 0.01,-9.87 c -3.088,-0.006 -5.604,2.505 -5.604,5.594 -0.006,3.088 2.505,5.604 5.594,5.61 3.088,0 5.604,-2.511 5.61,-5.6 0,-3.088 -2.511,-5.604 -5.6,-5.604 z"
     id="path1029" />
  <path
     style="fill:#231f20;fill-opacity:1;fill-rule:nonzero;stroke:none"
     d="m 45.750616,83.570879 c 0.699,-0.068 1.538,-2.224 1.298,-2.432 -0.24,-0.202 -0.443,0.536 -0.724,0.323 -0.282,-0.224 -0.079,-0.677 -0.292,-0.765 -0.235,-0.094 -0.391,0.489 -0.64,0.322 -0.11,-0.068 -0.167,-0.656 -0.366,-0.677 -0.166,-0.015 -0.484,0.401 -0.62,0.396 -0.213,-0.005 -0.109,-0.609 -0.285,-0.629 -0.459,-0.058 -0.568,2.656 -0.396,2.822 0.255,0.244 0.905,0.755 2.025,0.64"
     id="path1030" />
  <path
     style="fill:none;stroke:#231f20;stroke-width:0.565977;stroke-linecap:round;stroke-linejoin:round;stroke-miterlimit:4;stroke-dasharray:none;stroke-opacity:1"
     d="m 45.750616,83.570879 c 0.699,-0.068 1.538,-2.224 1.298,-2.432 -0.24,-0.202 -0.443,0.536 -0.724,0.323 -0.282,-0.224 -0.079,-0.677 -0.292,-0.765 -0.235,-0.094 -0.391,0.489 -0.64,0.322 -0.11,-0.068 -0.167,-0.656 -0.366,-0.677 -0.166,-0.015 -0.484,0.401 -0.62,0.396 -0.213,-0.005 -0.109,-0.609 -0.285,-0.629 -0.459,-0.058 -0.568,2.656 -0.396,2.822 0.255,0.244 0.905,0.755 2.025,0.64 z"
     id="path1031" />
</svg>
