<?xml version="1.0" encoding="UTF-8" standalone="no"?>
<!-- Created with Inkscape (http://www.inkscape.org/) -->

<svg
   version="1.1"
   id="svg1"
   width="324.49133"
   height="124.61777"
   viewBox="0 0 324.49132 124.61777"
   sodipodi:docname="cell.svg"
   xmlns:inkscape="http://www.inkscape.org/namespaces/inkscape"
   xmlns:sodipodi="http://sodipodi.sourceforge.net/DTD/sodipodi-0.dtd"
   xmlns="http://www.w3.org/2000/svg"
   xmlns:svg="http://www.w3.org/2000/svg">
  <sodipodi:namedview
     id="namedview1"
     pagecolor="#ffffff"
     bordercolor="#000000"
     borderopacity="0.25"
     inkscape:showpageshadow="2"
     inkscape:pageopacity="0.0"
     inkscape:pagecheckerboard="0"
     inkscape:deskcolor="#d1d1d1">
    <inkscape:page
       x="0"
       y="0"
       inkscape:label="1"
       id="page1"
       width="324.49133"
       height="124.61777"
       margin="0"
       bleed="0" />
  </sodipodi:namedview>
  <defs
     id="defs1" />
  <path
     style="fill:#231f20;fill-opacity:1;fill-rule:nonzero;stroke:none"
     d="m 285.64133,106.1 c 0.32,-0.615 -0.06,-2.693 0.26,-4.417 0.21,-1.156 -0.4,-4.078 -0.11,-5.219 0.27,-1.041 0.3,-1.547 -0.75,-2.088 -0.61,-0.324 -1.99,-0.5 -2.23,-0.011 -0.55,1.146 -0.64,2.178 -0.5,3.334 0.14,1.312 0.85,4.849 1.03,5.484 0.46,1.584 0.2,2.338 0.29,2.77 0.16,0.814 0.49,0.948 0.99,0.948 0.95,0 1.02,-0.801 1.02,-0.801"
     id="path95" />
  <path
     style="fill:none;stroke:#231f20;stroke-width:0.59128;stroke-linecap:butt;stroke-linejoin:miter;stroke-miterlimit:4;stroke-dasharray:none;stroke-opacity:1"
     d="m 285.64133,106.1 c 0.32,-0.615 -0.06,-2.693 0.26,-4.417 0.21,-1.156 -0.4,-4.078 -0.11,-5.219 0.27,-1.041 0.3,-1.547 -0.75,-2.088 -0.61,-0.324 -1.99,-0.5 -2.23,-0.011 -0.55,1.146 -0.64,2.178 -0.5,3.334 0.14,1.312 0.85,4.849 1.03,5.484 0.46,1.584 0.2,2.338 0.29,2.77 0.16,0.814 0.49,0.948 0.99,0.948 0.95,0 1.02,-0.801 1.02,-0.801 z"
     id="path96" />
  <path
     style="fill:#231f20;fill-opacity:1;fill-rule:nonzero;stroke:none"
     d="m 284.99133,97.292 c 1.28,-0.005 0.85,-1.859 0.82,-2.359 -0.03,-0.505 0.04,-1.937 0.26,-3.048 0.22,-1.109 -0.03,-2.593 0.38,-4.708 0.22,-1.109 -0.34,-2.333 -2.1,-2.582 -1.73,-0.256 -2.52,0.557 -2.56,1.937 -0.04,1.385 0.55,2.713 0.62,4.115 0.06,1.396 -0.01,2.828 -0.12,3.942 -0.13,1.271 0.31,1.954 0.73,2.172 1.05,0.552 1.97,0.531 1.97,0.531"
     id="path97" />
  <path
     style="fill:none;stroke:#231f20;stroke-width:0.544669;stroke-linecap:butt;stroke-linejoin:miter;stroke-miterlimit:4;stroke-dasharray:none;stroke-opacity:1"
     d="m 284.99133,97.292 c 1.28,-0.005 0.85,-1.859 0.82,-2.359 -0.03,-0.505 0.04,-1.937 0.26,-3.048 0.22,-1.109 -0.03,-2.593 0.38,-4.708 0.22,-1.109 -0.34,-2.333 -2.1,-2.582 -1.73,-0.256 -2.52,0.557 -2.56,1.937 -0.04,1.385 0.55,2.713 0.62,4.115 0.06,1.396 -0.01,2.828 -0.12,3.942 -0.13,1.271 0.31,1.954 0.73,2.172 1.05,0.552 1.97,0.531 1.97,0.531 z"
     id="path98" />
  <path
     style="fill:#ca0369;fill-opacity:1;fill-rule:nonzero;stroke:none"
     d="m 106.52833,76.787 c -0.219,-3.506 -0.463,-4.448 -0.64,-5.578 -0.876,-5.714 -2.152,-5.922 -4.532,-5.661 -3.368996,0.369 -5.180996,0.9 -3.895996,7.061 0.98,4.672 1.032,8.292 1.032,8.292 -0.475,1.803 0.052,5.366 0.692,6.011 1.083996,1.088 0.911996,0.839 2.286996,1.287 2.546,0.822 3.412,-0.011 3.985,-1.047 0.572,-1.043 0.739,-2.068 0.916,-4.876 0.136,-2.171 0.156,-5.489 0.156,-5.489"
     id="path99" />
  <path
     style="fill:none;stroke:#231f20;stroke-width:0.565977;stroke-linecap:butt;stroke-linejoin:miter;stroke-miterlimit:4;stroke-dasharray:none;stroke-opacity:1"
     d="m 106.52833,76.787 c -0.219,-3.506 -0.463,-4.448 -0.64,-5.578 -0.876,-5.714 -2.152,-5.922 -4.532,-5.661 -3.368996,0.369 -5.180996,0.9 -3.895996,7.061 0.98,4.672 1.032,8.292 1.032,8.292 -0.475,1.803 0.052,5.366 0.692,6.011 1.083996,1.088 0.911996,0.839 2.286996,1.287 2.546,0.822 3.412,-0.011 3.985,-1.047 0.572,-1.043 0.739,-2.068 0.916,-4.876 0.136,-2.171 0.156,-5.489 0.156,-5.489 z"
     id="path100" />
  <path
     style="fill:#231f20;fill-opacity:1;fill-rule:nonzero;stroke:none"
     d="m 66.622334,56.912 c 1.089,-0.797 1.922,-0.26 2.224,0.73 0.089,0.297 0.474,0.458 0.542,0.754 0.151,0.688 -0.849,2.12 -2.25,1.595 -0.104,-0.043 -0.922,-0.084 -1.526,-0.215 -1.188,-0.249 -3.437,-1.333 -4.307998,-3.88 -0.416,-1.208 0.370998,-1.229 0.693998,-0.79 1,1.389 1.353,1.312 1.749,1.588 1.339,0.916 2.875,0.218 2.875,0.218"
     id="path101" />
  <path
     style="fill:none;stroke:#231f20;stroke-width:0.332927;stroke-linecap:butt;stroke-linejoin:miter;stroke-miterlimit:4;stroke-dasharray:none;stroke-opacity:1"
     d="m 66.622334,56.912 c 1.089,-0.797 1.922,-0.26 2.224,0.73 0.089,0.297 0.474,0.458 0.542,0.754 0.151,0.688 -0.849,2.12 -2.25,1.595 -0.104,-0.043 -0.922,-0.084 -1.526,-0.215 -1.188,-0.249 -3.437,-1.333 -4.307998,-3.88 -0.416,-1.208 0.370998,-1.229 0.693998,-0.79 1,1.389 1.353,1.312 1.749,1.588 1.339,0.916 2.875,0.218 2.875,0.218 z"
     id="path102" />
  <path
     style="fill:#231f20;fill-opacity:1;fill-rule:nonzero;stroke:none"
     d="m 84.075334,63.767 c 0.917,-2.068 0.819,-2.6 -0.031,-3.048 -0.562,-0.296 -0.989,-0.76 -1.322,-0.957 -1.12,-0.662 -3.271,-1.308 -9.85,-1.543 -1.494,-0.057 -3.584,-0.14 -4.437,-0.249 -1.344,-0.162 -0.703,2.188 -0.177,2.254 1.697,0.23 2.844,0.527 3.442,0.688 0.412,0.115 1.172,0.219 2.703,0.864 2.333,0.98 3.584,1.912 5.609,2.5 0.943,0.272 1.486,1.079 2.543,0.871 1.072,-0.199 1.52,-1.38 1.52,-1.38"
     id="path103" />
  <path
     style="fill:none;stroke:#231f20;stroke-width:0.565977;stroke-linecap:butt;stroke-linejoin:miter;stroke-miterlimit:4;stroke-dasharray:none;stroke-opacity:1"
     d="m 84.075334,63.767 c 0.917,-2.068 0.819,-2.6 -0.031,-3.048 -0.562,-0.296 -0.989,-0.76 -1.322,-0.957 -1.12,-0.662 -3.271,-1.308 -9.85,-1.543 -1.494,-0.057 -3.584,-0.14 -4.437,-0.249 -1.344,-0.162 -0.703,2.188 -0.177,2.254 1.697,0.23 2.844,0.527 3.442,0.688 0.412,0.115 1.172,0.219 2.703,0.864 2.333,0.98 3.584,1.912 5.609,2.5 0.943,0.272 1.486,1.079 2.543,0.871 1.072,-0.199 1.52,-1.38 1.52,-1.38 z"
     id="path104" />
  <path
     style="fill:#231f20;fill-opacity:1;fill-rule:nonzero;stroke:none"
     d="m 82.102334,62.272 c -1.932,3.515 2.145,3.671 2.562,3.905 4.375,2.438 4.755,2.5 8.219,4.115 5.005,2.349 8.795996,3.188 11.004996,0.672 1.5,-1.703 1.629,-3.339 1.031,-4.511 -0.662,-1.301 -3.25,-3.15 -5.926996,-2.062 l -1.688,-0.282 c -1.109,-0.342 -1.661,-0.5 -2.203,-0.713 -0.932,-0.369 -1.953,-0.697 -3.813,-1.312 -3.291,-1.088 -7.134,-1.161 -7.134,-1.161 -1.194,-0.365 -2.052,1.349 -2.052,1.349"
     id="path105" />
  <path
     style="fill:none;stroke:#231f20;stroke-width:0.565977;stroke-linecap:butt;stroke-linejoin:miter;stroke-miterlimit:4;stroke-dasharray:none;stroke-opacity:1"
     d="m 82.102334,62.272 c -1.932,3.515 2.145,3.671 2.562,3.905 4.375,2.438 4.755,2.5 8.219,4.115 5.005,2.349 8.795996,3.188 11.004996,0.672 1.5,-1.703 1.629,-3.339 1.031,-4.511 -0.662,-1.301 -3.25,-3.15 -5.926996,-2.062 l -1.688,-0.282 c -1.109,-0.342 -1.661,-0.5 -2.203,-0.713 -0.932,-0.369 -1.953,-0.697 -3.813,-1.312 -3.291,-1.088 -7.134,-1.161 -7.134,-1.161 -1.194,-0.365 -2.052,1.349 -2.052,1.349 z"
     id="path106" />
  <path
     style="fill:#231f20;fill-opacity:1;fill-rule:nonzero;stroke:none"
     d="m 64.711334,70.365 c 0.719,-1.146 1.692,-0.953 2.339,-0.141 0.192,0.24 0.609,0.251 0.776,0.5 0.396,0.584 -0.006,2.281 -1.5,2.308 -0.115,0.005 -0.891,0.265 -1.495,0.369 -1.193,0.204 -3.687998,0.027 -5.436998,-2.02 -0.834,-0.969 -0.11,-1.281 0.353,-0.99 1.437,0.922 1.744998,0.718 2.212998,0.828 1.579,0.36 2.751,-0.854 2.751,-0.854"
     id="path107" />
  <path
     style="fill:none;stroke:#231f20;stroke-width:0.332927;stroke-linecap:butt;stroke-linejoin:miter;stroke-miterlimit:4;stroke-dasharray:none;stroke-opacity:1"
     d="m 64.711334,70.365 c 0.719,-1.146 1.692,-0.953 2.339,-0.141 0.192,0.24 0.609,0.251 0.776,0.5 0.396,0.584 -0.006,2.281 -1.5,2.308 -0.115,0.005 -0.891,0.265 -1.495,0.369 -1.193,0.204 -3.687998,0.027 -5.436998,-2.02 -0.834,-0.969 -0.11,-1.281 0.353,-0.99 1.437,0.922 1.744998,0.718 2.212998,0.828 1.579,0.36 2.751,-0.854 2.751,-0.854 z"
     id="path108" />
  <path
     style="fill:#231f20;fill-opacity:1;fill-rule:nonzero;stroke:none"
     d="m 83.460334,70.297 c 0.09,-2.26 -0.197,-2.718 -1.15,-2.817 -0.635,-0.068 -1.203,-0.349 -1.583,-0.407 -1.287,-0.202 -3.521,-0.005 -9.724,2.199 -1.412,0.5 -3.385,1.192 -4.213,1.405 -1.314,0.35 0.145,2.292 0.661,2.167 1.661,-0.411 2.837,-0.568 3.457,-0.635 0.423,-0.048 1.167,-0.229 2.828,-0.198 2.527,0.057 4.038,0.458 6.142,0.256 0.973,-0.095 1.77,0.457 2.682,-0.126 0.922,-0.578 0.9,-1.844 0.9,-1.844"
     id="path109" />
  <path
     style="fill:none;stroke:#231f20;stroke-width:0.565977;stroke-linecap:butt;stroke-linejoin:miter;stroke-miterlimit:4;stroke-dasharray:none;stroke-opacity:1"
     d="m 83.460334,70.297 c 0.09,-2.26 -0.197,-2.718 -1.15,-2.817 -0.635,-0.068 -1.203,-0.349 -1.583,-0.407 -1.287,-0.202 -3.521,-0.005 -9.724,2.199 -1.412,0.5 -3.385,1.192 -4.213,1.405 -1.314,0.35 0.145,2.292 0.661,2.167 1.661,-0.411 2.837,-0.568 3.457,-0.635 0.423,-0.048 1.167,-0.229 2.828,-0.198 2.527,0.057 4.038,0.458 6.142,0.256 0.973,-0.095 1.77,0.457 2.682,-0.126 0.922,-0.578 0.9,-1.844 0.9,-1.844 z"
     id="path110" />
  <path
     style="fill:#231f20;fill-opacity:1;fill-rule:nonzero;stroke:none"
     d="m 81.075334,69.636 c -0.5,3.979 3.349,2.62 3.824,2.683 4.962,0.65 5.342,0.572 9.156,0.801 5.52,0.333 9.347996,-0.292 10.477996,-3.443 0.766,-2.14 0.282,-3.702 -0.708,-4.572 -1.093,-0.964 -4.181996,-1.729 -6.264996,0.271 l -1.677,0.359 c -1.156,0.093 -1.73,0.15 -2.308,0.15 -1,0 -2.072,0.074 -4.026,0.188 -3.463,0.199 -7.067,1.552 -7.067,1.552 -1.24,0.099 -1.407,2.011 -1.407,2.011"
     id="path111" />
  <path
     style="fill:none;stroke:#231f20;stroke-width:0.565977;stroke-linecap:butt;stroke-linejoin:miter;stroke-miterlimit:4;stroke-dasharray:none;stroke-opacity:1"
     d="m 81.075334,69.636 c -0.5,3.979 3.349,2.62 3.824,2.683 4.962,0.65 5.342,0.572 9.156,0.801 5.52,0.333 9.347996,-0.292 10.477996,-3.443 0.766,-2.14 0.282,-3.702 -0.708,-4.572 -1.093,-0.964 -4.181996,-1.729 -6.264996,0.271 l -1.677,0.359 c -1.156,0.093 -1.73,0.15 -2.308,0.15 -1,0 -2.072,0.074 -4.026,0.188 -3.463,0.199 -7.067,1.552 -7.067,1.552 -1.24,0.099 -1.407,2.011 -1.407,2.011 z"
     id="path112" />
  <path
     style="fill:#ca0369;fill-opacity:1;fill-rule:nonzero;stroke:none"
     d="m 103.82533,65.105 c -1.093,-0.964 -4.181996,-1.724 -6.264996,0.271 l -0.256,7.812 c 3.760996,-0.109 6.338996,-1.016 7.228996,-3.511 0.766,-2.134 0.282,-3.702 -0.708,-4.572"
     id="path113" />
  <path
     style="fill:none;stroke:#231f20;stroke-width:0.565977;stroke-linecap:butt;stroke-linejoin:miter;stroke-miterlimit:4;stroke-dasharray:none;stroke-opacity:1"
     d="m 103.82533,65.105 c -1.093,-0.964 -4.181996,-1.724 -6.264996,0.271 l -0.256,7.812 c 3.760996,-0.109 6.338996,-1.016 7.228996,-3.511 0.766,-2.134 0.282,-3.702 -0.708,-4.572 z"
     id="path114" />
  <path
     style="fill:#ffffff;fill-opacity:1;fill-rule:nonzero;stroke:none"
     d="m 98.987334,93.552 c -0.006,0.245 -1.126,0.521 -1.036,1.037 0.088,0.516 0.869,0.588 2,2.224 l 0.009,0.02 c 0.786996,1.224 1.963996,1.964 3.208996,1.866 2.072,-0.172 3.563,-2.594 3.334,-5.407 -0.235,-2.812 -2.1,-4.959 -4.167,-4.787 -1.985,0.162 -3.436996,2.391 -3.348996,5.047"
     id="path115" />
  <path
     style="fill:none;stroke:#231f20;stroke-width:0.565977;stroke-linecap:butt;stroke-linejoin:miter;stroke-miterlimit:4;stroke-dasharray:none;stroke-opacity:1"
     d="m 98.987334,93.552 c -0.006,0.245 -1.126,0.521 -1.036,1.037 0.088,0.516 0.869,0.588 2,2.224 l 0.009,0.02 c 0.786996,1.224 1.963996,1.964 3.208996,1.866 2.072,-0.172 3.563,-2.594 3.334,-5.407 -0.235,-2.812 -2.1,-4.959 -4.167,-4.787 -1.985,0.162 -3.436996,2.391 -3.348996,5.047 z"
     id="path116" />
  <path
     style="fill:#ffffff;fill-opacity:1;fill-rule:nonzero;stroke:none"
     d="m 305.62133,18.875 h 18.87 V 0 h -18.87 z"
     id="path119" />
  <path
     style="fill:#ca0369;fill-opacity:1;fill-rule:nonzero;stroke:none"
     d="m 21.684336,80.595 c -3.317,-1.136 -4.285,-1.271 -5.396,-1.543 -5.613,-1.375 -6.2959995,-0.276 -6.9619995,2.021 -0.948,3.256 -1.156,5.131 5.0299995,6.298 4.694,0.885 8.052,2.224 8.052,2.224 1.491,1.129 4.98,2.005 5.819,1.661 1.421,-0.584 1.124,-0.516 2.061,-1.62 1.74,-2.036 1.303,-3.151 0.563,-4.079 -0.744,-0.926 -1.624,-1.473 -4.151,-2.713 -1.958,-0.959 -5.016,-2.249 -5.016,-2.249"
     id="path121" />
  <path
     style="fill:none;stroke:#231f20;stroke-width:0.565977;stroke-linecap:butt;stroke-linejoin:miter;stroke-miterlimit:4;stroke-dasharray:none;stroke-opacity:1"
     d="m 21.684336,80.595 c -3.317,-1.136 -4.285,-1.271 -5.396,-1.543 -5.613,-1.375 -6.2959995,-0.276 -6.9619995,2.021 -0.948,3.256 -1.156,5.131 5.0299995,6.298 4.694,0.885 8.052,2.224 8.052,2.224 1.491,1.129 4.98,2.005 5.819,1.661 1.421,-0.584 1.124,-0.516 2.061,-1.62 1.74,-2.036 1.303,-3.151 0.563,-4.079 -0.744,-0.926 -1.624,-1.473 -4.151,-2.713 -1.958,-0.959 -5.016,-2.249 -5.016,-2.249 z"
     id="path122" />
  <path
     style="fill:#231f20;fill-opacity:1;fill-rule:nonzero;stroke:none"
     d="m 2.0083365,117.396 c -0.844,-1.052 -0.349,-1.905 0.63,-2.249 0.292,-0.104 0.432,-0.5 0.729,-0.574 0.677,-0.188 2.156,0.751 1.693,2.172 -0.037,0.104 -0.048,0.927 -0.146,1.531 -0.192,1.199 -1.178,3.496 -3.682,4.48 -1.19300001,0.468 -1.25000001,-0.317 -0.82400001,-0.656 1.34400001,-1.057 1.25100001,-1.412 1.50600001,-1.819 0.86,-1.38 0.094,-2.885 0.094,-2.885"
     id="path123" />
  <path
     style="fill:none;stroke:#231f20;stroke-width:0.332927;stroke-linecap:butt;stroke-linejoin:miter;stroke-miterlimit:4;stroke-dasharray:none;stroke-opacity:1"
     d="m 2.0083365,117.396 c -0.844,-1.052 -0.349,-1.905 0.63,-2.249 0.292,-0.104 0.432,-0.5 0.729,-0.574 0.677,-0.188 2.156,0.751 1.693,2.172 -0.037,0.104 -0.048,0.927 -0.146,1.531 -0.192,1.199 -1.178,3.496 -3.682,4.48 -1.19300001,0.468 -1.25000001,-0.317 -0.82400001,-0.656 1.34400001,-1.057 1.25100001,-1.412 1.50600001,-1.819 0.86,-1.38 0.094,-2.885 0.094,-2.885 z"
     id="path124" />
  <path
     style="fill:#231f20;fill-opacity:1;fill-rule:nonzero;stroke:none"
     d="m 8.0703365,99.657 c -2.104,-0.824 -2.63,-0.698 -3.036,0.171 -0.271,0.573 -0.719,1.016 -0.907,1.36 -0.604,1.145 -1.151,3.323 -1.093,9.907 0.01,1.494 0.021,3.588 -0.047,4.448 -0.109,1.348 2.208,0.609 2.255,0.077 0.157,-1.703 0.396,-2.869 0.532,-3.473 0.098,-0.418 0.166,-1.178 0.738,-2.74 0.876,-2.37 1.751,-3.662 2.251,-5.719 0.229,-0.953 1.011,-1.527 0.76,-2.573 -0.249,-1.063 -1.453,-1.458 -1.453,-1.458"
     id="path125" />
  <path
     style="fill:none;stroke:#231f20;stroke-width:0.565977;stroke-linecap:butt;stroke-linejoin:miter;stroke-miterlimit:4;stroke-dasharray:none;stroke-opacity:1"
     d="m 8.0703365,99.657 c -2.104,-0.824 -2.63,-0.698 -3.036,0.171 -0.271,0.573 -0.719,1.016 -0.907,1.36 -0.604,1.145 -1.151,3.323 -1.093,9.907 0.01,1.494 0.021,3.588 -0.047,4.448 -0.109,1.348 2.208,0.609 2.255,0.077 0.157,-1.703 0.396,-2.869 0.532,-3.473 0.098,-0.418 0.166,-1.178 0.738,-2.74 0.876,-2.37 1.751,-3.662 2.251,-5.719 0.229,-0.953 1.011,-1.527 0.76,-2.573 -0.249,-1.063 -1.453,-1.458 -1.453,-1.458 z"
     id="path126" />
  <path
     style="fill:#231f20;fill-opacity:1;fill-rule:nonzero;stroke:none"
     d="m 6.6703365,101.693 c 3.5929995,1.776 3.5659995,-2.308 3.7859995,-2.734 2.234,-4.479 2.286,-4.859 3.744,-8.391 2.12,-5.104 2.787,-8.932 0.178,-11.025 -1.771,-1.428 -3.407,-1.48 -4.5519995,-0.828 -1.271,0.718 -3.006,3.39 -1.798,6.009 l -0.202,1.704 c -0.298,1.12 -0.427,1.681 -0.615,2.229 -0.328,0.943 -0.609,1.979 -1.141,3.864 -0.943,3.344 -0.843,7.188 -0.843,7.188 -0.308,1.203 1.443,1.984 1.443,1.984"
     id="path127" />
  <path
     style="fill:none;stroke:#231f20;stroke-width:0.565977;stroke-linecap:butt;stroke-linejoin:miter;stroke-miterlimit:4;stroke-dasharray:none;stroke-opacity:1"
     d="m 6.6703365,101.693 c 3.5929995,1.776 3.5659995,-2.308 3.7859995,-2.734 2.234,-4.479 2.286,-4.859 3.744,-8.391 2.12,-5.104 2.787,-8.932 0.178,-11.025 -1.771,-1.428 -3.407,-1.48 -4.5519995,-0.828 -1.271,0.718 -3.006,3.39 -1.798,6.009 l -0.202,1.704 c -0.298,1.12 -0.427,1.681 -0.615,2.229 -0.328,0.943 -0.609,1.979 -1.141,3.864 -0.943,3.344 -0.843,7.188 -0.843,7.188 -0.308,1.203 1.443,1.984 1.443,1.984 z"
     id="path128" />
  <path
     style="fill:#231f20;fill-opacity:1;fill-rule:nonzero;stroke:none"
     d="m 9.9513365,118.751 c -1.063,-0.839 -0.767,-1.782 0.1089995,-2.334 0.266,-0.166 0.318,-0.584 0.583,-0.724 0.625,-0.328 2.271,0.255 2.136,1.746 -0.011,0.109 0.161,0.91 0.203,1.525 0.073,1.208 -0.375,3.667 -2.599,5.188 -1.0519995,0.724 -1.2869995,-0.037 -0.9429995,-0.459 1.0679995,-1.333 0.9019995,-1.656 1.0629995,-2.109 0.531,-1.532 -0.5519995,-2.833 -0.5519995,-2.833"
     id="path129" />
  <path
     style="fill:none;stroke:#231f20;stroke-width:0.332927;stroke-linecap:butt;stroke-linejoin:miter;stroke-miterlimit:4;stroke-dasharray:none;stroke-opacity:1"
     d="m 9.9513365,118.751 c -1.063,-0.839 -0.767,-1.782 0.1089995,-2.334 0.266,-0.166 0.318,-0.584 0.583,-0.724 0.625,-0.328 2.271,0.255 2.136,1.746 -0.011,0.109 0.161,0.91 0.203,1.525 0.073,1.208 -0.375,3.667 -2.599,5.188 -1.0519995,0.724 -1.2869995,-0.037 -0.9429995,-0.459 1.0679995,-1.333 0.9019995,-1.656 1.0629995,-2.109 0.531,-1.532 -0.5519995,-2.833 -0.5519995,-2.833 z"
     id="path130" />
  <path
     style="fill:#231f20;fill-opacity:1;fill-rule:nonzero;stroke:none"
     d="m 11.914336,100.109 c -2.2389995,-0.337 -2.7189995,-0.098 -2.9269995,0.839 -0.136,0.62 -0.475,1.152 -0.579,1.527 -0.333,1.254 -0.385,3.5 1.136,9.906 0.35,1.452 0.8229995,3.495 0.9429995,4.343 0.197,1.339 2.292,0.1 2.224,-0.427 -0.229,-1.697 -0.255,-2.885 -0.26,-3.505 0.005,-0.427 -0.1,-1.183 0.115,-2.833 0.328,-2.506 0.89,-3.963 0.921,-6.074 0.011,-0.984 0.64,-1.713 0.167,-2.681 -0.479,-0.98 -1.74,-1.095 -1.74,-1.095"
     id="path131" />
  <path
     style="fill:none;stroke:#231f20;stroke-width:0.565977;stroke-linecap:butt;stroke-linejoin:miter;stroke-miterlimit:4;stroke-dasharray:none;stroke-opacity:1"
     d="m 11.914336,100.109 c -2.2389995,-0.337 -2.7189995,-0.098 -2.9269995,0.839 -0.136,0.62 -0.475,1.152 -0.579,1.527 -0.333,1.254 -0.385,3.5 1.136,9.906 0.35,1.452 0.8229995,3.495 0.9429995,4.343 0.197,1.339 2.292,0.1 2.224,-0.427 -0.229,-1.697 -0.255,-2.885 -0.26,-3.505 0.005,-0.427 -0.1,-1.183 0.115,-2.833 0.328,-2.506 0.89,-3.963 0.921,-6.074 0.011,-0.984 0.64,-1.713 0.167,-2.681 -0.479,-0.98 -1.74,-1.095 -1.74,-1.095 z"
     id="path132" />
  <path
     style="fill:#ffffff;fill-opacity:1;fill-rule:nonzero;stroke:none"
     d="m 36.159336,93.475 c 0.24,0.062 0.249,1.208 0.776,1.244 0.525,0.032 0.771,-0.719 2.62,-1.452 l 0.02,-0.011 c 1.365,-0.484 2.355,-1.469 2.537,-2.704 0.296,-2.057 -1.729,-4.052 -4.521,-4.457 -2.792,-0.407 -5.303,0.926 -5.599,2.984 -0.292,1.964 1.558,3.88 4.167,4.396"
     id="path133" />
  <path
     style="fill:none;stroke:#231f20;stroke-width:0.565977;stroke-linecap:butt;stroke-linejoin:miter;stroke-miterlimit:4;stroke-dasharray:none;stroke-opacity:1"
     d="m 36.159336,93.475 c 0.24,0.062 0.249,1.208 0.776,1.244 0.525,0.032 0.771,-0.719 2.62,-1.452 l 0.02,-0.011 c 1.365,-0.484 2.355,-1.469 2.537,-2.704 0.296,-2.057 -1.729,-4.052 -4.521,-4.457 -2.792,-0.407 -5.303,0.926 -5.599,2.984 -0.292,1.964 1.558,3.88 4.167,4.396 z"
     id="path134" />
  <path
     style="fill:#231f20;fill-opacity:1;fill-rule:nonzero;stroke:none"
     d="m 10.998336,102.407 c 3.905,0.926 2.968,-3.047 3.082,-3.511 1.188,-4.864 1.147,-5.249 1.787,-9.015 0.932,-5.448 0.729,-9.324 -2.281,-10.786 -2.047,-0.995 -3.6509995,-0.688 -4.6259995,0.202 -1.072,0.984 -2.17,3.97 -0.41,6.26 l 0.177,1.704 c -0.032,1.162 -0.037,1.739 -0.1,2.312 -0.109,0.995 -0.156,2.068 -0.249,4.027 -0.178,3.463 0.776,7.187 0.776,7.187 -0.031,1.245 1.8439995,1.62 1.8439995,1.62"
     id="path135" />
  <path
     style="fill:none;stroke:#231f20;stroke-width:0.565977;stroke-linecap:butt;stroke-linejoin:miter;stroke-miterlimit:4;stroke-dasharray:none;stroke-opacity:1"
     d="m 10.998336,102.407 c 3.905,0.926 2.968,-3.047 3.082,-3.511 1.188,-4.864 1.147,-5.249 1.787,-9.015 0.932,-5.448 0.729,-9.324 -2.281,-10.786 -2.047,-0.995 -3.6509995,-0.688 -4.6259995,0.202 -1.072,0.984 -2.17,3.97 -0.41,6.26 l 0.177,1.704 c -0.032,1.162 -0.037,1.739 -0.1,2.312 -0.109,0.995 -0.156,2.068 -0.249,4.027 -0.178,3.463 0.776,7.187 0.776,7.187 -0.031,1.245 1.8439995,1.62 1.8439995,1.62 z"
     id="path136" />
  <path
     style="fill:#ca0369;fill-opacity:1;fill-rule:nonzero;stroke:none"
     d="m 13.586336,79.095 c -2.042,-0.995 -3.6509995,-0.688 -4.6259995,0.202 -1.072,0.984 -2.17,3.975 -0.405,6.26 l 7.7329995,1.1 c 0.303,-3.75 -0.322,-6.406 -2.702,-7.562"
     id="path137" />
  <path
     style="fill:none;stroke:#231f20;stroke-width:0.565977;stroke-linecap:butt;stroke-linejoin:miter;stroke-miterlimit:4;stroke-dasharray:none;stroke-opacity:1"
     d="m 13.586336,79.095 c -2.042,-0.995 -3.6509995,-0.688 -4.6259995,0.202 -1.072,0.984 -2.17,3.975 -0.405,6.26 l 7.7329995,1.1 c 0.303,-3.75 -0.322,-6.406 -2.702,-7.562 z"
     id="path138" />
  <path
     style="fill:#231f20;fill-opacity:1;fill-rule:nonzero;stroke:none"
     d="m 25.998336,106.048 c -0.355,-0.532 -0.115,-2.464 -0.542,-4.016 -0.292,-1.047 0.119,-3.76 -0.245,-4.781 -0.333,-0.938 -0.401,-1.396 0.604,-1.964 0.593,-0.334 1.953,-0.594 2.229,-0.162 0.631,1.006 0.782,1.943 0.724,3.011 -0.062,1.213 -0.526,4.489 -0.666,5.088 -0.355,1.48 -0.047,2.152 -0.104,2.552 -0.104,0.751 -0.418,0.901 -0.923,0.933 -0.957,0.072 -1.077,-0.661 -1.077,-0.661"
     id="path139" />
  <path
     style="fill:none;stroke:#231f20;stroke-width:0.565977;stroke-linecap:butt;stroke-linejoin:miter;stroke-miterlimit:4;stroke-dasharray:none;stroke-opacity:1"
     d="m 25.998336,106.048 c -0.355,-0.532 -0.115,-2.464 -0.542,-4.016 -0.292,-1.047 0.119,-3.76 -0.245,-4.781 -0.333,-0.938 -0.401,-1.396 0.604,-1.964 0.593,-0.334 1.953,-0.594 2.229,-0.162 0.631,1.006 0.782,1.943 0.724,3.011 -0.062,1.213 -0.526,4.489 -0.666,5.088 -0.355,1.48 -0.047,2.152 -0.104,2.552 -0.104,0.751 -0.418,0.901 -0.923,0.933 -0.957,0.072 -1.077,-0.661 -1.077,-0.661 z"
     id="path140" />
  <path
     style="fill:#231f20;fill-opacity:1;fill-rule:nonzero;stroke:none"
     d="m 25.872336,97.36 c -1.286,-0.141 -0.677,-2.021 -0.598,-2.536 0.082,-0.516 0.14,-2.016 0.03,-3.188 -0.109,-1.177 0.276,-2.693 0.068,-4.921 -0.109,-1.178 0.558,-2.391 2.334,-2.475 1.75,-0.079 2.458,0.839 2.364,2.281 -0.094,1.438 -0.807,2.755 -1.004,4.203 -0.199,1.443 -0.262,2.933 -0.251,4.104 0.011,1.333 -0.495,2 -0.932,2.183 -1.099,0.464 -2.011,0.349 -2.011,0.349"
     id="path141" />
  <path
     style="fill:none;stroke:#231f20;stroke-width:0.555323;stroke-linecap:butt;stroke-linejoin:miter;stroke-miterlimit:4;stroke-dasharray:none;stroke-opacity:1"
     d="m 25.872336,97.36 c -1.286,-0.141 -0.677,-2.021 -0.598,-2.536 0.082,-0.516 0.14,-2.016 0.03,-3.188 -0.109,-1.177 0.276,-2.693 0.068,-4.921 -0.109,-1.178 0.558,-2.391 2.334,-2.475 1.75,-0.079 2.458,0.839 2.364,2.281 -0.094,1.438 -0.807,2.755 -1.004,4.203 -0.199,1.443 -0.262,2.933 -0.251,4.104 0.011,1.333 -0.495,2 -0.932,2.183 -1.099,0.464 -2.011,0.349 -2.011,0.349 z"
     id="path142" />
  <path
     style="fill:#ffffff;fill-opacity:1;fill-rule:nonzero;stroke:#231f20;stroke-width:0.665856;stroke-linecap:butt;stroke-linejoin:miter;stroke-miterlimit:4;stroke-dasharray:none;stroke-opacity:1"
     d="m 25.826336,97.88 h 1.333 V 55.552 h -1.333 z"
     id="path143" />
  <path
     style="fill:#ffffff;fill-opacity:1;fill-rule:nonzero;stroke:none"
     d="m 22.632336,102.819 c 0,-2.355 1.918,-4.271 4.271,-4.271 2.355,0 4.267,1.916 4.267,4.271 0,2.353 -1.912,4.265 -4.267,4.265 -2.353,0 -4.271,-1.912 -4.271,-4.265 m -1.333,0 c 0,3.082 2.516,5.598 5.604,5.598 3.089,0 5.6,-2.516 5.6,-5.598 0,-3.09 -2.511,-5.604 -5.6,-5.604 -3.088,0 -5.604,2.514 -5.604,5.604"
     id="path144" />
  <path
     style="fill:none;stroke:#231f20;stroke-width:0.665856;stroke-linecap:butt;stroke-linejoin:miter;stroke-miterlimit:4;stroke-dasharray:none;stroke-opacity:1"
     d="m 22.632336,102.819 c 0,-2.355 1.918,-4.271 4.271,-4.271 2.355,0 4.267,1.916 4.267,4.271 0,2.353 -1.912,4.265 -4.267,4.265 -2.353,0 -4.271,-1.912 -4.271,-4.265 z m -1.333,0 c 0,3.082 2.516,5.598 5.604,5.598 3.089,0 5.6,-2.516 5.6,-5.598 0,-3.09 -2.511,-5.604 -5.6,-5.604 -3.088,0 -5.604,2.514 -5.604,5.604 z"
     id="path145" />
  <path
     style="fill:#231f20;fill-opacity:1;fill-rule:nonzero;stroke:none"
     d="m 28.102336,105.907 c 0.645,0.27 0.817,2.578 0.525,2.708 -0.291,0.125 -0.265,-0.646 -0.599,-0.515 -0.333,0.124 -0.276,0.619 -0.505,0.64 -0.249,0.021 -0.229,-0.583 -0.515,-0.495 -0.125,0.031 -0.354,0.583 -0.548,0.536 -0.161,-0.03 -0.348,-0.52 -0.478,-0.557 -0.203,-0.057 -0.282,0.552 -0.459,0.521 -0.453,-0.082 0.235,-2.702 0.448,-2.812 0.317,-0.161 1.089,-0.458 2.131,-0.026"
     id="path146" />
  <path
     style="fill:none;stroke:#231f20;stroke-width:0.565977;stroke-linecap:round;stroke-linejoin:round;stroke-miterlimit:4;stroke-dasharray:none;stroke-opacity:1"
     d="m 28.102336,105.907 c 0.645,0.27 0.817,2.578 0.525,2.708 -0.291,0.125 -0.265,-0.646 -0.599,-0.515 -0.333,0.124 -0.276,0.619 -0.505,0.64 -0.249,0.021 -0.229,-0.583 -0.515,-0.495 -0.125,0.031 -0.354,0.583 -0.548,0.536 -0.161,-0.03 -0.348,-0.52 -0.478,-0.557 -0.203,-0.057 -0.282,0.552 -0.459,0.521 -0.453,-0.082 0.235,-2.702 0.448,-2.812 0.317,-0.161 1.089,-0.458 2.131,-0.026 z"
     id="path147" />
  <path
     style="fill:#231f20;fill-opacity:1;fill-rule:nonzero;stroke:none"
     d="m 100.96033,106.048 c -0.353,-0.532 -0.115,-2.464 -0.541,-4.016 -0.292,-1.047 0.12,-3.76 -0.244,-4.781 -0.333996,-0.938 -0.401996,-1.396 0.604,-1.964 0.593,-0.334 1.953,-0.594 2.229,-0.162 0.629,1.006 0.781,1.943 0.724,3.011 -0.063,1.213 -0.527,4.489 -0.667,5.088 -0.354,1.48 -0.048,2.152 -0.105,2.552 -0.104,0.751 -0.416,0.901 -0.921,0.933 -0.954,0.072 -1.079,-0.661 -1.079,-0.661"
     id="path148" />
  <path
     style="fill:none;stroke:#231f20;stroke-width:0.565977;stroke-linecap:butt;stroke-linejoin:miter;stroke-miterlimit:4;stroke-dasharray:none;stroke-opacity:1"
     d="m 100.96033,106.048 c -0.353,-0.532 -0.115,-2.464 -0.541,-4.016 -0.292,-1.047 0.12,-3.76 -0.244,-4.781 -0.333996,-0.938 -0.401996,-1.396 0.604,-1.964 0.593,-0.334 1.953,-0.594 2.229,-0.162 0.629,1.006 0.781,1.943 0.724,3.011 -0.063,1.213 -0.527,4.489 -0.667,5.088 -0.354,1.48 -0.048,2.152 -0.105,2.552 -0.104,0.751 -0.416,0.901 -0.921,0.933 -0.954,0.072 -1.079,-0.661 -1.079,-0.661 z"
     id="path149" />
  <path
     style="fill:#231f20;fill-opacity:1;fill-rule:nonzero;stroke:none"
     d="m 100.67533,96.027 c -1.286996,-0.142 -0.682996,-2.016 -0.606,-2.532 0.084,-0.52 0.142,-2.02 0.032,-3.192 -0.108996,-1.178 0.276,-2.688 0.068,-4.922 -0.109,-1.177 0.558,-2.385 2.334,-2.469 1.749,-0.084 2.457,0.833 2.369,2.276 -0.093,1.437 -0.812,2.755 -1.011,4.208 -0.197,1.443 -0.26,2.933 -0.249,4.099 0.009,1.333 -0.495,2 -0.933,2.182 -1.099,0.464 -2.004,0.35 -2.004,0.35"
     id="path150" />
  <path
     style="fill:none;stroke:#231f20;stroke-width:0.555323;stroke-linecap:butt;stroke-linejoin:miter;stroke-miterlimit:4;stroke-dasharray:none;stroke-opacity:1"
     d="m 100.67533,96.027 c -1.286996,-0.142 -0.682996,-2.016 -0.606,-2.532 0.084,-0.52 0.142,-2.02 0.032,-3.192 -0.108996,-1.178 0.276,-2.688 0.068,-4.922 -0.109,-1.177 0.558,-2.385 2.334,-2.469 1.749,-0.084 2.457,0.833 2.369,2.276 -0.093,1.437 -0.812,2.755 -1.011,4.208 -0.197,1.443 -0.26,2.933 -0.249,4.099 0.009,1.333 -0.495,2 -0.933,2.182 -1.099,0.464 -2.004,0.35 -2.004,0.35 z"
     id="path151" />
  <path
     style="fill:#ffffff;fill-opacity:1;fill-rule:nonzero;stroke:#231f20;stroke-width:0.665856;stroke-linecap:butt;stroke-linejoin:miter;stroke-miterlimit:4;stroke-dasharray:none;stroke-opacity:1"
     d="m 101.34533,97.88 h 1.329 V 55.552 h -1.329 z"
     id="path152" />
  <path
     style="fill:#ffffff;fill-opacity:1;fill-rule:nonzero;stroke:none"
     d="m 98.148334,102.819 c 0,-2.355 1.916996,-4.271 4.270996,-4.271 2.354,0 4.27,1.916 4.27,4.271 0,2.353 -1.916,4.265 -4.27,4.265 -2.354,0 -4.270996,-1.912 -4.270996,-4.265 m -1.328,0 c 0,3.082 2.511,5.598 5.598996,5.598 3.089,0 5.598,-2.516 5.598,-5.598 0,-3.09 -2.509,-5.604 -5.598,-5.604 -3.087996,0 -5.598996,2.514 -5.598996,5.604"
     id="path153" />
  <path
     style="fill:none;stroke:#231f20;stroke-width:0.665856;stroke-linecap:butt;stroke-linejoin:miter;stroke-miterlimit:4;stroke-dasharray:none;stroke-opacity:1"
     d="m 98.148334,102.819 c 0,-2.355 1.916996,-4.271 4.270996,-4.271 2.354,0 4.27,1.916 4.27,4.271 0,2.353 -1.916,4.265 -4.27,4.265 -2.354,0 -4.270996,-1.912 -4.270996,-4.265 z m -1.328,0 c 0,3.082 2.511,5.598 5.598996,5.598 3.089,0 5.598,-2.516 5.598,-5.598 0,-3.09 -2.509,-5.604 -5.598,-5.604 -3.087996,0 -5.598996,2.514 -5.598996,5.604 z"
     id="path154" />
  <path
     style="fill:#ca0369;fill-opacity:1;fill-rule:nonzero;stroke:none"
     d="m 173.10733,75.787 c -0.224,-3.5 -0.47,-4.448 -0.642,-5.578 -0.88,-5.714 -2.156,-5.922 -4.536,-5.657 -3.369,0.371 -5.182,0.896 -3.89,7.057 0.978,4.678 1.026,8.292 1.026,8.292 -0.474,1.808 0.052,5.366 0.692,6.011 1.084,1.088 0.912,0.839 2.287,1.287 2.547,0.822 3.412,-0.011 3.984,-1.047 0.573,-1.043 0.74,-2.068 0.917,-4.871 0.135,-2.176 0.162,-5.494 0.162,-5.494"
     id="path155" />
  <path
     style="fill:none;stroke:#231f20;stroke-width:0.565977;stroke-linecap:butt;stroke-linejoin:miter;stroke-miterlimit:4;stroke-dasharray:none;stroke-opacity:1"
     d="m 173.10733,75.787 c -0.224,-3.5 -0.47,-4.448 -0.642,-5.578 -0.88,-5.714 -2.156,-5.922 -4.536,-5.657 -3.369,0.371 -5.182,0.896 -3.89,7.057 0.978,4.678 1.026,8.292 1.026,8.292 -0.474,1.808 0.052,5.366 0.692,6.011 1.084,1.088 0.912,0.839 2.287,1.287 2.547,0.822 3.412,-0.011 3.984,-1.047 0.573,-1.043 0.74,-2.068 0.917,-4.871 0.135,-2.176 0.162,-5.494 0.162,-5.494 z"
     id="path156" />
  <path
     style="fill:#231f20;fill-opacity:1;fill-rule:nonzero;stroke:none"
     d="m 131.95133,58.506 c 1.025,-0.88 1.89,-0.406 2.27,0.557 0.11,0.292 0.506,0.423 0.594,0.709 0.208,0.676 -0.683,2.181 -2.12,1.76 -0.11,-0.032 -0.927,-0.01 -1.536,-0.093 -1.204,-0.157 -3.532,-1.068 -4.594,-3.543 -0.505,-1.177 0.28,-1.254 0.635,-0.838 1.099,1.308 1.448,1.204 1.865,1.442 1.4,0.819 2.886,0.006 2.886,0.006"
     id="path157" />
  <path
     style="fill:none;stroke:#231f20;stroke-width:0.332927;stroke-linecap:butt;stroke-linejoin:miter;stroke-miterlimit:4;stroke-dasharray:none;stroke-opacity:1"
     d="m 131.95133,58.506 c 1.025,-0.88 1.89,-0.406 2.27,0.557 0.11,0.292 0.506,0.423 0.594,0.709 0.208,0.676 -0.683,2.181 -2.12,1.76 -0.11,-0.032 -0.927,-0.01 -1.536,-0.093 -1.204,-0.157 -3.532,-1.068 -4.594,-3.543 -0.505,-1.177 0.28,-1.254 0.635,-0.838 1.099,1.308 1.448,1.204 1.865,1.442 1.4,0.819 2.886,0.006 2.886,0.006 z"
     id="path158" />
  <path
     style="fill:#231f20;fill-opacity:1;fill-rule:nonzero;stroke:none"
     d="m 149.86733,64.016 c 0.754,-2.135 0.625,-2.656 -0.26,-3.036 -0.584,-0.25 -1.042,-0.688 -1.391,-0.86 -1.167,-0.572 -3.36,-1.052 -9.937,-0.786 -1.495,0.057 -3.584,0.13 -4.443,0.089 -1.355,-0.063 -0.543,2.229 -0.011,2.26 1.714,0.104 2.88,0.308 3.495,0.422 0.412,0.088 1.177,0.13 2.755,0.656 2.396,0.802 3.718,1.635 5.786,2.067 0.959,0.199 1.558,0.964 2.599,0.677 1.052,-0.281 1.407,-1.489 1.407,-1.489"
     id="path159" />
  <path
     style="fill:none;stroke:#231f20;stroke-width:0.565977;stroke-linecap:butt;stroke-linejoin:miter;stroke-miterlimit:4;stroke-dasharray:none;stroke-opacity:1"
     d="m 149.86733,64.016 c 0.754,-2.135 0.625,-2.656 -0.26,-3.036 -0.584,-0.25 -1.042,-0.688 -1.391,-0.86 -1.167,-0.572 -3.36,-1.052 -9.937,-0.786 -1.495,0.057 -3.584,0.13 -4.443,0.089 -1.355,-0.063 -0.543,2.229 -0.011,2.26 1.714,0.104 2.88,0.308 3.495,0.422 0.412,0.088 1.177,0.13 2.755,0.656 2.396,0.802 3.718,1.635 5.786,2.067 0.959,0.199 1.558,0.964 2.599,0.677 1.052,-0.281 1.407,-1.489 1.407,-1.489 z"
     id="path160" />
  <path
     style="fill:#231f20;fill-opacity:1;fill-rule:nonzero;stroke:none"
     d="m 147.78933,62.672 c -1.657,3.652 2.416,3.5 2.848,3.699 4.552,2.098 4.932,2.134 8.511,3.484 5.167,1.964 9.011,2.505 11.027,-0.167 1.364,-1.817 1.369,-3.453 0.681,-4.579 -0.755,-1.244 -3.479,-2.89 -6.063,-1.604 l -1.708,-0.15 c -1.13,-0.26 -1.692,-0.375 -2.249,-0.542 -0.953,-0.302 -1.995,-0.552 -3.896,-1.021 -3.371,-0.838 -7.208,-0.62 -7.208,-0.62 -1.22,-0.27 -1.943,1.5 -1.943,1.5"
     id="path161" />
  <path
     style="fill:none;stroke:#231f20;stroke-width:0.565977;stroke-linecap:butt;stroke-linejoin:miter;stroke-miterlimit:4;stroke-dasharray:none;stroke-opacity:1"
     d="m 147.78933,62.672 c -1.657,3.652 2.416,3.5 2.848,3.699 4.552,2.098 4.932,2.134 8.511,3.484 5.167,1.964 9.011,2.505 11.027,-0.167 1.364,-1.817 1.369,-3.453 0.681,-4.579 -0.755,-1.244 -3.479,-2.89 -6.063,-1.604 l -1.708,-0.15 c -1.13,-0.26 -1.692,-0.375 -2.249,-0.542 -0.953,-0.302 -1.995,-0.552 -3.896,-1.021 -3.371,-0.838 -7.208,-0.62 -7.208,-0.62 -1.22,-0.27 -1.943,1.5 -1.943,1.5 z"
     id="path162" />
  <path
     style="fill:#231f20;fill-opacity:1;fill-rule:nonzero;stroke:none"
     d="m 138.51233,45.115 c 1.292,-0.391 1.901,0.391 1.855,1.428 -0.016,0.307 0.292,0.588 0.26,0.891 -0.083,0.697 -1.504,1.718 -2.651,0.754 -0.088,-0.073 -0.844,-0.385 -1.369,-0.702 -1.038,-0.631 -2.798,-2.402 -2.776,-5.1 0.01,-1.276 0.765,-1.031 0.916,-0.51 0.485,1.64 0.849,1.687 1.125,2.078 0.959,1.308 2.64,1.161 2.64,1.161"
     id="path163" />
  <path
     style="fill:none;stroke:#231f20;stroke-width:0.332927;stroke-linecap:butt;stroke-linejoin:miter;stroke-miterlimit:4;stroke-dasharray:none;stroke-opacity:1"
     d="m 138.51233,45.115 c 1.292,-0.391 1.901,0.391 1.855,1.428 -0.016,0.307 0.292,0.588 0.26,0.891 -0.083,0.697 -1.504,1.718 -2.651,0.754 -0.088,-0.073 -0.844,-0.385 -1.369,-0.702 -1.038,-0.631 -2.798,-2.402 -2.776,-5.1 0.01,-1.276 0.765,-1.031 0.916,-0.51 0.485,1.64 0.849,1.687 1.125,2.078 0.959,1.308 2.64,1.161 2.64,1.161 z"
     id="path164" />
  <path
     style="fill:#231f20;fill-opacity:1;fill-rule:nonzero;stroke:none"
     d="m 152.69533,57.376 c 1.552,-1.646 1.641,-2.177 0.98,-2.881 -0.428,-0.468 -0.672,-1.052 -0.923,-1.348 -0.839,-0.995 -2.651,-2.313 -8.776,-4.724 -1.396,-0.547 -3.339,-1.323 -4.104,-1.708 -1.213,-0.6 -1.391,1.828 -0.921,2.067 1.525,0.781 2.514,1.442 3.025,1.792 0.344,0.245 1.027,0.593 2.26,1.713 1.876,1.699 2.745,2.989 4.459,4.224 0.802,0.563 1.041,1.505 2.109,1.667 1.079,0.161 1.891,-0.802 1.891,-0.802"
     id="path165" />
  <path
     style="fill:none;stroke:#231f20;stroke-width:0.565977;stroke-linecap:butt;stroke-linejoin:miter;stroke-miterlimit:4;stroke-dasharray:none;stroke-opacity:1"
     d="m 152.69533,57.376 c 1.552,-1.646 1.641,-2.177 0.98,-2.881 -0.428,-0.468 -0.672,-1.052 -0.923,-1.348 -0.839,-0.995 -2.651,-2.313 -8.776,-4.724 -1.396,-0.547 -3.339,-1.323 -4.104,-1.708 -1.213,-0.6 -1.391,1.828 -0.921,2.067 1.525,0.781 2.514,1.442 3.025,1.792 0.344,0.245 1.027,0.593 2.26,1.713 1.876,1.699 2.745,2.989 4.459,4.224 0.802,0.563 1.041,1.505 2.109,1.667 1.079,0.161 1.891,-0.802 1.891,-0.802 z"
     id="path166" />
  <path
     style="fill:#ffffff;fill-opacity:1;fill-rule:nonzero;stroke:none"
     d="m 166.39333,92.729 c -0.01,0.246 -1.13,0.5 -1.048,1.016 0.079,0.522 0.86,0.604 1.964,2.26 l 0.011,0.016 c 0.765,1.235 1.932,1.995 3.183,1.912 2.072,-0.136 3.598,-2.537 3.41,-5.349 -0.186,-2.823 -2.02,-4.995 -4.093,-4.849 -1.984,0.13 -3.469,2.333 -3.427,4.994"
     id="path167" />
  <path
     style="fill:none;stroke:#231f20;stroke-width:0.565977;stroke-linecap:butt;stroke-linejoin:miter;stroke-miterlimit:4;stroke-dasharray:none;stroke-opacity:1"
     d="m 166.39333,92.729 c -0.01,0.246 -1.13,0.5 -1.048,1.016 0.079,0.522 0.86,0.604 1.964,2.26 l 0.011,0.016 c 0.765,1.235 1.932,1.995 3.183,1.912 2.072,-0.136 3.598,-2.537 3.41,-5.349 -0.186,-2.823 -2.02,-4.995 -4.093,-4.849 -1.984,0.13 -3.469,2.333 -3.427,4.994 z"
     id="path168" />
  <path
     style="fill:#231f20;fill-opacity:1;fill-rule:nonzero;stroke:none"
     d="m 151.33133,55.308 c -2.99,2.678 0.806,4.178 1.125,4.536 3.317,3.756 3.651,3.943 6.38,6.615 3.937,3.88 7.239,5.926 10.161,4.286 1.979,-1.109 2.64,-2.604 2.468,-3.912 -0.192,-1.448 -2.02,-4.052 -4.9,-3.91 l -1.505,-0.828 c -0.933,-0.693 -1.401,-1.027 -1.839,-1.401 -0.756,-0.662 -1.609,-1.308 -3.161,-2.506 -2.74,-2.125 -6.344,-3.469 -6.344,-3.469 -1.005,-0.739 -2.385,0.589 -2.385,0.589"
     id="path169" />
  <path
     style="fill:none;stroke:#231f20;stroke-width:0.565977;stroke-linecap:butt;stroke-linejoin:miter;stroke-miterlimit:4;stroke-dasharray:none;stroke-opacity:1"
     d="m 151.33133,55.308 c -2.99,2.678 0.806,4.178 1.125,4.536 3.317,3.756 3.651,3.943 6.38,6.615 3.937,3.88 7.239,5.926 10.161,4.286 1.979,-1.109 2.64,-2.604 2.468,-3.912 -0.192,-1.448 -2.02,-4.052 -4.9,-3.91 l -1.505,-0.828 c -0.933,-0.693 -1.401,-1.027 -1.839,-1.401 -0.756,-0.662 -1.609,-1.308 -3.161,-2.506 -2.74,-2.125 -6.344,-3.469 -6.344,-3.469 -1.005,-0.739 -2.385,0.589 -2.385,0.589 z"
     id="path170" />
  <path
     style="fill:#ca0369;fill-opacity:1;fill-rule:nonzero;stroke:none"
     d="m 171.46533,66.833 c -0.192,-1.448 -2.02,-4.052 -4.905,-3.91 l -5.319,5.724 c 2.907,2.39 5.443,3.396 7.756,2.098 1.979,-1.109 2.64,-2.604 2.468,-3.912"
     id="path171" />
  <path
     style="fill:none;stroke:#231f20;stroke-width:0.565977;stroke-linecap:butt;stroke-linejoin:miter;stroke-miterlimit:4;stroke-dasharray:none;stroke-opacity:1"
     d="m 171.46533,66.833 c -0.192,-1.448 -2.02,-4.052 -4.905,-3.91 l -5.319,5.724 c 2.907,2.39 5.443,3.396 7.756,2.098 1.979,-1.109 2.64,-2.604 2.468,-3.912 z"
     id="path172" />
  <path
     style="fill:#231f20;fill-opacity:1;fill-rule:nonzero;stroke:none"
     d="m 226.23133,31.568 c 1.08,0.828 0.79,1.776 -0.08,2.339 -0.26,0.172 -0.31,0.584 -0.58,0.729 -0.62,0.334 -2.27,-0.234 -2.15,-1.729 0.01,-0.109 -0.17,-0.907 -0.22,-1.521 -0.08,-1.214 0.34,-3.671 2.55,-5.214 1.05,-0.733 1.29,0.022 0.95,0.448 -1.06,1.344 -0.89,1.672 -1.04,2.12 -0.51,1.542 0.57,2.828 0.57,2.828"
     id="path173" />
  <path
     style="fill:none;stroke:#231f20;stroke-width:0.332927;stroke-linecap:butt;stroke-linejoin:miter;stroke-miterlimit:4;stroke-dasharray:none;stroke-opacity:1"
     d="m 226.23133,31.568 c 1.08,0.828 0.79,1.776 -0.08,2.339 -0.26,0.172 -0.31,0.584 -0.58,0.729 -0.62,0.334 -2.27,-0.234 -2.15,-1.729 0.01,-0.109 -0.17,-0.907 -0.22,-1.521 -0.08,-1.214 0.34,-3.671 2.55,-5.214 1.05,-0.733 1.29,0.022 0.95,0.448 -1.06,1.344 -0.89,1.672 -1.04,2.12 -0.51,1.542 0.57,2.828 0.57,2.828 z"
     id="path174" />
  <path
     style="fill:#231f20;fill-opacity:1;fill-rule:nonzero;stroke:none"
     d="m 224.45133,50.235 c 2.25,0.313 2.73,0.068 2.93,-0.869 0.13,-0.626 0.46,-1.156 0.55,-1.532 0.33,-1.26 0.36,-3.504 -1.23,-9.895 -0.36,-1.448 -0.85,-3.491 -0.99,-4.333 -0.2,-1.339 -2.28,-0.084 -2.21,0.446 0.25,1.694 0.28,2.882 0.29,3.506 0,0.428 0.11,1.182 -0.08,2.833 -0.3,2.505 -0.86,3.969 -0.86,6.084 -0.01,0.979 -0.63,1.719 -0.14,2.683 0.49,0.973 1.74,1.077 1.74,1.077"
     id="path175" />
  <path
     style="fill:none;stroke:#231f20;stroke-width:0.565977;stroke-linecap:butt;stroke-linejoin:miter;stroke-miterlimit:4;stroke-dasharray:none;stroke-opacity:1"
     d="m 224.45133,50.235 c 2.25,0.313 2.73,0.068 2.93,-0.869 0.13,-0.626 0.46,-1.156 0.55,-1.532 0.33,-1.26 0.36,-3.504 -1.23,-9.895 -0.36,-1.448 -0.85,-3.491 -0.99,-4.333 -0.2,-1.339 -2.28,-0.084 -2.21,0.446 0.25,1.694 0.28,2.882 0.29,3.506 0,0.428 0.11,1.182 -0.08,2.833 -0.3,2.505 -0.86,3.969 -0.86,6.084 -0.01,0.979 -0.63,1.719 -0.14,2.683 0.49,0.973 1.74,1.077 1.74,1.077 z"
     id="path176" />
  <path
     style="fill:#ca0369;fill-opacity:1;fill-rule:nonzero;stroke:none"
     d="m 227.38133,76.063 c -0.05,-3.13 0.28,-3.812 0.63,-4.667 2.19,-5.348 -0.48,-6.323 -3.31,-5.755 -3.32,0.662 -4.526,0.834 -3.83,7.094 0.19,1.734 0.06,8.51 0.06,8.51 -0.37,2.418 0.56,4.974 1.77,5.771 1.29,0.844 0.84,0.417 2.17,0.984 1.27,0.532 3.43,0.245 4.1,-0.796 0.65,-0.995 -0.1,-2.489 -0.89,-4.781 -0.62,-1.808 -0.7,-6.36 -0.7,-6.36"
     id="path177" />
  <path
     style="fill:none;stroke:#231f20;stroke-width:0.565977;stroke-linecap:butt;stroke-linejoin:miter;stroke-miterlimit:4;stroke-dasharray:none;stroke-opacity:1"
     d="m 227.38133,76.063 c -0.05,-3.13 0.28,-3.812 0.63,-4.667 2.19,-5.348 -0.48,-6.323 -3.31,-5.755 -3.32,0.662 -4.526,0.834 -3.83,7.094 0.19,1.734 0.06,8.51 0.06,8.51 -0.37,2.418 0.56,4.974 1.77,5.771 1.29,0.844 0.84,0.417 2.17,0.984 1.27,0.532 3.43,0.245 4.1,-0.796 0.65,-0.995 -0.1,-2.489 -0.89,-4.781 -0.62,-1.808 -0.7,-6.36 -0.7,-6.36 z"
     id="path178" />
  <path
     style="fill:#ffffff;fill-opacity:1;fill-rule:nonzero;stroke:none"
     d="m 222.67133,92.709 c -0.03,0.239 -1.17,0.364 -1.15,0.891 0.02,0.525 0.78,0.697 1.7,2.463 l 0.01,0.021 c 0.62,1.312 1.69,2.197 2.94,2.255 2.08,0.094 3.86,-2.12 3.99,-4.943 0.13,-2.823 -1.45,-5.181 -3.52,-5.276 -1.99,-0.088 -3.71,1.937 -3.97,4.589"
     id="path179" />
  <path
     style="fill:none;stroke:#231f20;stroke-width:0.565977;stroke-linecap:butt;stroke-linejoin:miter;stroke-miterlimit:4;stroke-dasharray:none;stroke-opacity:1"
     d="m 222.67133,92.709 c -0.03,0.239 -1.17,0.364 -1.15,0.891 0.02,0.525 0.78,0.697 1.7,2.463 l 0.01,0.021 c 0.62,1.312 1.69,2.197 2.94,2.255 2.08,0.094 3.86,-2.12 3.99,-4.943 0.13,-2.823 -1.45,-5.181 -3.52,-5.276 -1.99,-0.088 -3.71,1.937 -3.97,4.589 z"
     id="path180" />
  <path
     style="fill:#231f20;fill-opacity:1;fill-rule:nonzero;stroke:none"
     d="m 225.35133,47.928 c -3.91,-0.89 -2.94,3.072 -3.05,3.536 -1.14,4.88 -1.1,5.26 -1.7,9.036 -0.874,5.459 -0.636,9.328 2.39,10.767 2.06,0.973 3.66,0.645 4.62,-0.251 1.07,-0.995 2.14,-3.995 0.35,-6.265 l -0.19,-1.703 c 0.02,-1.163 0.02,-1.734 0.07,-2.308 0.1,-1 0.14,-2.073 0.22,-4.03 0.14,-3.464 -0.85,-7.183 -0.85,-7.183 0.02,-1.24 -1.86,-1.599 -1.86,-1.599"
     id="path181" />
  <path
     style="fill:none;stroke:#231f20;stroke-width:0.565977;stroke-linecap:butt;stroke-linejoin:miter;stroke-miterlimit:4;stroke-dasharray:none;stroke-opacity:1"
     d="m 225.35133,47.928 c -3.91,-0.89 -2.94,3.072 -3.05,3.536 -1.14,4.88 -1.1,5.26 -1.7,9.036 -0.874,5.459 -0.636,9.328 2.39,10.767 2.06,0.973 3.66,0.645 4.62,-0.251 1.07,-0.995 2.14,-3.995 0.35,-6.265 l -0.19,-1.703 c 0.02,-1.163 0.02,-1.734 0.07,-2.308 0.1,-1 0.14,-2.073 0.22,-4.03 0.14,-3.464 -0.85,-7.183 -0.85,-7.183 0.02,-1.24 -1.86,-1.599 -1.86,-1.599 z"
     id="path182" />
  <path
     style="fill:#ca0369;fill-opacity:1;fill-rule:nonzero;stroke:none"
     d="m 227.96133,64.756 -7.745,-1.032 c -0.047,0.657 -0.052,1.267 -0.041,1.855 -0.022,0.073 -0.048,0.15 -0.079,0.213 -0.349,0.729 -0.084,1.297 0.391,2.219 0.394,1.505 1.174,2.625 2.504,3.256 2.06,0.973 3.66,0.645 4.62,-0.251 1.07,-0.995 2.14,-3.995 0.35,-6.26"
     id="path183" />
  <path
     style="fill:none;stroke:#231f20;stroke-width:0.565977;stroke-linecap:butt;stroke-linejoin:miter;stroke-miterlimit:4;stroke-dasharray:none;stroke-opacity:1"
     d="m 227.96133,64.756 -7.745,-1.032 c -0.047,0.657 -0.052,1.267 -0.041,1.855 -0.022,0.073 -0.048,0.15 -0.079,0.213 -0.349,0.729 -0.084,1.297 0.391,2.219 0.394,1.505 1.174,2.625 2.504,3.256 2.06,0.973 3.66,0.645 4.62,-0.251 1.07,-0.995 2.14,-3.995 0.35,-6.26 z"
     id="path184" />
  <path
     style="fill:#231f20;fill-opacity:1;fill-rule:nonzero;stroke:none"
     d="m 224.94133,106.292 c -0.38,-0.531 -0.19,-2.464 -0.66,-4.005 -0.32,-1.031 0.02,-3.76 -0.38,-4.771 -0.36,-0.927 -0.44,-1.385 0.55,-1.979 0.58,-0.354 1.94,-0.652 2.22,-0.224 0.66,0.99 0.84,1.922 0.82,2.99 -0.04,1.213 -0.41,4.505 -0.53,5.104 -0.32,1.489 0.01,2.15 -0.03,2.557 -0.09,0.755 -0.4,0.907 -0.9,0.959 -0.95,0.093 -1.09,-0.631 -1.09,-0.631"
     id="path185" />
  <path
     style="fill:none;stroke:#231f20;stroke-width:0.565977;stroke-linecap:butt;stroke-linejoin:miter;stroke-miterlimit:4;stroke-dasharray:none;stroke-opacity:1"
     d="m 224.94133,106.292 c -0.38,-0.531 -0.19,-2.464 -0.66,-4.005 -0.32,-1.031 0.02,-3.76 -0.38,-4.771 -0.36,-0.927 -0.44,-1.385 0.55,-1.979 0.58,-0.354 1.94,-0.652 2.22,-0.224 0.66,0.99 0.84,1.922 0.82,2.99 -0.04,1.213 -0.41,4.505 -0.53,5.104 -0.32,1.489 0.01,2.15 -0.03,2.557 -0.09,0.755 -0.4,0.907 -0.9,0.959 -0.95,0.093 -1.09,-0.631 -1.09,-0.631 z"
     id="path186" />
  <path
     style="fill:#231f20;fill-opacity:1;fill-rule:nonzero;stroke:none"
     d="m 224.52133,97.24 c -1.29,-0.083 -0.8,-2.057 -0.75,-2.593 0.05,-0.542 0.02,-2.095 -0.15,-3.308 -0.18,-1.214 0.11,-2.796 -0.21,-5.104 -0.18,-1.208 0.41,-2.5 2.18,-2.678 1.75,-0.176 2.5,0.74 2.5,2.235 -0.01,1.5 -0.65,2.896 -0.77,4.412 -0.11,1.505 -0.09,3.052 -0.01,4.26 0.09,1.38 -0.38,2.093 -0.81,2.308 -1.07,0.536 -1.98,0.468 -1.98,0.468"
     id="path187" />
  <path
     style="fill:none;stroke:#231f20;stroke-width:0.565977;stroke-linecap:butt;stroke-linejoin:miter;stroke-miterlimit:4;stroke-dasharray:none;stroke-opacity:1"
     d="m 224.52133,97.24 c -1.29,-0.083 -0.8,-2.057 -0.75,-2.593 0.05,-0.542 0.02,-2.095 -0.15,-3.308 -0.18,-1.214 0.11,-2.796 -0.21,-5.104 -0.18,-1.208 0.41,-2.5 2.18,-2.678 1.75,-0.176 2.5,0.74 2.5,2.235 -0.01,1.5 -0.65,2.896 -0.77,4.412 -0.11,1.505 -0.09,3.052 -0.01,4.26 0.09,1.38 -0.38,2.093 -0.81,2.308 -1.07,0.536 -1.98,0.468 -1.98,0.468 z"
     id="path188" />
  <path
     style="fill:#ffffff;fill-opacity:1;fill-rule:nonzero;stroke:#231f20;stroke-width:0.665856;stroke-linecap:butt;stroke-linejoin:miter;stroke-miterlimit:4;stroke-dasharray:none;stroke-opacity:1"
     d="m 224.70133,97.704 h 1.34 V 16.74 h -1.34 z"
     id="path189" />
  <path
     style="fill:#ffffff;fill-opacity:1;fill-rule:nonzero;stroke:none"
     d="m 221.51133,102.636 c 0,-2.355 1.92,-4.265 4.27,-4.265 2.36,0 4.27,1.91 4.27,4.265 0,2.355 -1.91,4.271 -4.27,4.271 -2.35,0 -4.27,-1.916 -4.27,-4.271 m -1.332,0 c 0,3.088 2.512,5.604 5.602,5.604 3.09,0 5.6,-2.516 5.6,-5.604 0,-3.088 -2.51,-5.599 -5.6,-5.599 -3.09,0 -5.602,2.511 -5.602,5.599"
     id="path190" />
  <path
     style="fill:none;stroke:#231f20;stroke-width:0.665856;stroke-linecap:butt;stroke-linejoin:miter;stroke-miterlimit:4;stroke-dasharray:none;stroke-opacity:1"
     d="m 221.51133,102.636 c 0,-2.355 1.92,-4.265 4.27,-4.265 2.36,0 4.27,1.91 4.27,4.265 0,2.355 -1.91,4.271 -4.27,4.271 -2.35,0 -4.27,-1.916 -4.27,-4.271 z m -1.332,0 c 0,3.088 2.512,5.604 5.602,5.604 3.09,0 5.6,-2.516 5.6,-5.604 0,-3.088 -2.51,-5.599 -5.6,-5.599 -3.09,0 -5.602,2.511 -5.602,5.599 z"
     id="path191" />
  <path
     style="fill:#231f20;fill-opacity:1;fill-rule:nonzero;stroke:none"
     d="m 226.82133,106.292 c 0.65,0.26 0.83,2.573 0.54,2.699 -0.29,0.129 -0.27,-0.642 -0.6,-0.511 -0.34,0.125 -0.27,0.625 -0.5,0.645 -0.25,0.022 -0.23,-0.582 -0.52,-0.5 -0.12,0.038 -0.35,0.584 -0.54,0.547 -0.17,-0.036 -0.36,-0.525 -0.49,-0.557 -0.2,-0.058 -0.27,0.552 -0.45,0.521 -0.46,-0.084 0.23,-2.708 0.44,-2.817 0.31,-0.162 1.08,-0.459 2.12,-0.027"
     id="path192" />
  <path
     style="fill:none;stroke:#231f20;stroke-width:0.565977;stroke-linecap:round;stroke-linejoin:round;stroke-miterlimit:4;stroke-dasharray:none;stroke-opacity:1"
     d="m 226.82133,106.292 c 0.65,0.26 0.83,2.573 0.54,2.699 -0.29,0.129 -0.27,-0.642 -0.6,-0.511 -0.34,0.125 -0.27,0.625 -0.5,0.645 -0.25,0.022 -0.23,-0.582 -0.52,-0.5 -0.12,0.038 -0.35,0.584 -0.54,0.547 -0.17,-0.036 -0.36,-0.525 -0.49,-0.557 -0.2,-0.058 -0.27,0.552 -0.45,0.521 -0.46,-0.084 0.23,-2.708 0.44,-2.817 0.31,-0.162 1.08,-0.459 2.12,-0.027 z"
     id="path193" />
  <path
     style="fill:#231f20;fill-opacity:1;fill-rule:nonzero;stroke:none"
     d="m 267.44133,106.115 c -0.32,-0.615 0.02,-2.719 -0.31,-4.448 -0.24,-1.167 0.33,-4.119 0.02,-5.266 -0.27,-1.046 -0.32,-1.557 0.72,-2.114 0.6,-0.334 1.98,-0.536 2.23,-0.042 0.57,1.146 0.67,2.183 0.55,3.355 -0.13,1.323 -0.77,4.895 -0.95,5.541 -0.44,1.604 -0.17,2.364 -0.25,2.798 -0.15,0.822 -0.47,0.957 -0.98,0.968 -0.95,0.016 -1.03,-0.792 -1.03,-0.792"
     id="path194" />
  <path
     style="fill:none;stroke:#231f20;stroke-width:0.593943;stroke-linecap:butt;stroke-linejoin:miter;stroke-miterlimit:4;stroke-dasharray:none;stroke-opacity:1"
     d="m 267.44133,106.115 c -0.32,-0.615 0.02,-2.719 -0.31,-4.448 -0.24,-1.167 0.33,-4.119 0.02,-5.266 -0.27,-1.046 -0.32,-1.557 0.72,-2.114 0.6,-0.334 1.98,-0.536 2.23,-0.042 0.57,1.146 0.67,2.183 0.55,3.355 -0.13,1.323 -0.77,4.895 -0.95,5.541 -0.44,1.604 -0.17,2.364 -0.25,2.798 -0.15,0.822 -0.47,0.957 -0.98,0.968 -0.95,0.016 -1.03,-0.792 -1.03,-0.792 z"
     id="path195" />
  <path
     style="fill:#231f20;fill-opacity:1;fill-rule:nonzero;stroke:none"
     d="m 267.74133,97.24 c -1.29,-0.063 -0.78,-1.896 -0.72,-2.396 0.05,-0.5 0.04,-1.932 -0.13,-3.052 -0.17,-1.12 0.14,-2.588 -0.18,-4.719 -0.16,-1.12 0.45,-2.317 2.21,-2.494 1.75,-0.178 2.5,0.666 2.48,2.052 -0.02,1.385 -0.67,2.682 -0.8,4.084 -0.13,1.39 -0.11,2.822 -0.05,3.942 0.08,1.276 -0.39,1.938 -0.82,2.14 -1.07,0.5 -1.99,0.443 -1.99,0.443"
     id="path196" />
  <path
     style="fill:none;stroke:#231f20;stroke-width:0.544669;stroke-linecap:butt;stroke-linejoin:miter;stroke-miterlimit:4;stroke-dasharray:none;stroke-opacity:1"
     d="m 267.74133,97.24 c -1.29,-0.063 -0.78,-1.896 -0.72,-2.396 0.05,-0.5 0.04,-1.932 -0.13,-3.052 -0.17,-1.12 0.14,-2.588 -0.18,-4.719 -0.16,-1.12 0.45,-2.317 2.21,-2.494 1.75,-0.178 2.5,0.666 2.48,2.052 -0.02,1.385 -0.67,2.682 -0.8,4.084 -0.13,1.39 -0.11,2.822 -0.05,3.942 0.08,1.276 -0.39,1.938 -0.82,2.14 -1.07,0.5 -1.99,0.443 -1.99,0.443 z"
     id="path197" />
  <path
     style="fill:#231f20;fill-opacity:1;fill-rule:nonzero;stroke:none"
     d="m 103.06533,105.907 c 0.646,0.27 0.818,2.578 0.526,2.708 -0.292,0.125 -0.266,-0.646 -0.599,-0.515 -0.333,0.124 -0.276,0.619 -0.505,0.64 -0.251,0.021 -0.23,-0.583 -0.516,-0.495 -0.126,0.031 -0.354,0.583 -0.547,0.536 -0.161,-0.03 -0.349,-0.52 -0.479,-0.557 -0.204,-0.057 -0.276,0.552 -0.453,0.521 -0.459,-0.082 0.229,-2.702 0.443,-2.812 0.317,-0.161 1.088,-0.458 2.13,-0.026"
     id="path198" />
  <path
     style="fill:none;stroke:#231f20;stroke-width:0.565977;stroke-linecap:round;stroke-linejoin:round;stroke-miterlimit:4;stroke-dasharray:none;stroke-opacity:1"
     d="m 103.06533,105.907 c 0.646,0.27 0.818,2.578 0.526,2.708 -0.292,0.125 -0.266,-0.646 -0.599,-0.515 -0.333,0.124 -0.276,0.619 -0.505,0.64 -0.251,0.021 -0.23,-0.583 -0.516,-0.495 -0.126,0.031 -0.354,0.583 -0.547,0.536 -0.161,-0.03 -0.349,-0.52 -0.479,-0.557 -0.204,-0.057 -0.276,0.552 -0.453,0.521 -0.459,-0.082 0.229,-2.702 0.443,-2.812 0.317,-0.161 1.088,-0.458 2.13,-0.026 z"
     id="path199" />
  <path
     style="fill:#231f20;fill-opacity:1;fill-rule:nonzero;stroke:none"
     d="m 168.32533,106.048 c -0.36,-0.532 -0.12,-2.464 -0.541,-4.016 -0.292,-1.047 0.119,-3.76 -0.245,-4.781 -0.334,-0.938 -0.402,-1.396 0.604,-1.964 0.589,-0.334 1.953,-0.594 2.229,-0.162 0.625,1.006 0.776,1.943 0.724,3.011 -0.068,1.213 -0.527,4.489 -0.672,5.088 -0.355,1.48 -0.041,2.152 -0.104,2.552 -0.099,0.751 -0.417,0.901 -0.917,0.933 -0.958,0.072 -1.078,-0.661 -1.078,-0.661"
     id="path200" />
  <path
     style="fill:none;stroke:#231f20;stroke-width:0.565977;stroke-linecap:butt;stroke-linejoin:miter;stroke-miterlimit:4;stroke-dasharray:none;stroke-opacity:1"
     d="m 168.32533,106.048 c -0.36,-0.532 -0.12,-2.464 -0.541,-4.016 -0.292,-1.047 0.119,-3.76 -0.245,-4.781 -0.334,-0.938 -0.402,-1.396 0.604,-1.964 0.589,-0.334 1.953,-0.594 2.229,-0.162 0.625,1.006 0.776,1.943 0.724,3.011 -0.068,1.213 -0.527,4.489 -0.672,5.088 -0.355,1.48 -0.041,2.152 -0.104,2.552 -0.099,0.751 -0.417,0.901 -0.917,0.933 -0.958,0.072 -1.078,-0.661 -1.078,-0.661 z"
     id="path201" />
  <path
     style="fill:#231f20;fill-opacity:1;fill-rule:nonzero;stroke:none"
     d="m 168.03333,96.027 c -1.286,-0.142 -0.682,-2.016 -0.598,-2.532 0.082,-0.52 0.14,-2.02 0.03,-3.192 -0.109,-1.178 0.271,-2.688 0.068,-4.922 -0.109,-1.177 0.558,-2.385 2.328,-2.469 1.756,-0.084 2.459,0.833 2.371,2.276 -0.095,1.437 -0.813,2.755 -1.005,4.208 -0.199,1.443 -0.262,2.933 -0.251,4.099 0.011,1.333 -0.5,2 -0.932,2.182 -1.099,0.464 -2.011,0.35 -2.011,0.35"
     id="path202" />
  <path
     style="fill:none;stroke:#231f20;stroke-width:0.555323;stroke-linecap:butt;stroke-linejoin:miter;stroke-miterlimit:4;stroke-dasharray:none;stroke-opacity:1"
     d="m 168.03333,96.027 c -1.286,-0.142 -0.682,-2.016 -0.598,-2.532 0.082,-0.52 0.14,-2.02 0.03,-3.192 -0.109,-1.178 0.271,-2.688 0.068,-4.922 -0.109,-1.177 0.558,-2.385 2.328,-2.469 1.756,-0.084 2.459,0.833 2.371,2.276 -0.095,1.437 -0.813,2.755 -1.005,4.208 -0.199,1.443 -0.262,2.933 -0.251,4.099 0.011,1.333 -0.5,2 -0.932,2.182 -1.099,0.464 -2.011,0.35 -2.011,0.35 z"
     id="path203" />
  <path
     style="fill:#ffffff;fill-opacity:1;fill-rule:nonzero;stroke:#231f20;stroke-width:0.665856;stroke-linecap:butt;stroke-linejoin:miter;stroke-miterlimit:4;stroke-dasharray:none;stroke-opacity:1"
     d="m 168.69533,97.88 h 1.333 V 55.552 h -1.333 z"
     id="path204" />
  <path
     style="fill:#ffffff;fill-opacity:1;fill-rule:nonzero;stroke:none"
     d="m 165.50333,102.819 c 0,-2.355 1.916,-4.271 4.27,-4.271 2.354,0 4.266,1.916 4.266,4.271 0,2.353 -1.912,4.265 -4.266,4.265 -2.354,0 -4.27,-1.912 -4.27,-4.265 m -1.334,0 c 0,3.082 2.515,5.598 5.604,5.598 3.083,0 5.599,-2.516 5.599,-5.598 0,-3.09 -2.516,-5.604 -5.599,-5.604 -3.089,0 -5.604,2.514 -5.604,5.604"
     id="path205" />
  <path
     style="fill:none;stroke:#231f20;stroke-width:0.665856;stroke-linecap:butt;stroke-linejoin:miter;stroke-miterlimit:4;stroke-dasharray:none;stroke-opacity:1"
     d="m 165.50333,102.819 c 0,-2.355 1.916,-4.271 4.27,-4.271 2.354,0 4.266,1.916 4.266,4.271 0,2.353 -1.912,4.265 -4.266,4.265 -2.354,0 -4.27,-1.912 -4.27,-4.265 z m -1.334,0 c 0,3.082 2.515,5.598 5.604,5.598 3.083,0 5.599,-2.516 5.599,-5.598 0,-3.09 -2.516,-5.604 -5.599,-5.604 -3.089,0 -5.604,2.514 -5.604,5.604 z"
     id="path206" />
  <path
     style="fill:#231f20;fill-opacity:1;fill-rule:nonzero;stroke:none"
     d="m 170.42433,105.907 c 0.645,0.27 0.823,2.578 0.531,2.708 -0.296,0.125 -0.271,-0.646 -0.604,-0.515 -0.334,0.124 -0.271,0.619 -0.5,0.64 -0.25,0.021 -0.23,-0.583 -0.52,-0.495 -0.126,0.031 -0.355,0.583 -0.542,0.536 -0.168,-0.03 -0.349,-0.52 -0.48,-0.557 -0.208,-0.057 -0.281,0.552 -0.458,0.521 -0.458,-0.082 0.234,-2.702 0.448,-2.812 0.318,-0.161 1.084,-0.458 2.125,-0.026"
     id="path207" />
  <path
     style="fill:none;stroke:#231f20;stroke-width:0.565977;stroke-linecap:round;stroke-linejoin:round;stroke-miterlimit:4;stroke-dasharray:none;stroke-opacity:1"
     d="m 170.42433,105.907 c 0.645,0.27 0.823,2.578 0.531,2.708 -0.296,0.125 -0.271,-0.646 -0.604,-0.515 -0.334,0.124 -0.271,0.619 -0.5,0.64 -0.25,0.021 -0.23,-0.583 -0.52,-0.495 -0.126,0.031 -0.355,0.583 -0.542,0.536 -0.168,-0.03 -0.349,-0.52 -0.48,-0.557 -0.208,-0.057 -0.281,0.552 -0.458,0.521 -0.458,-0.082 0.234,-2.702 0.448,-2.812 0.318,-0.161 1.084,-0.458 2.125,-0.026 z"
     id="path208" />
  <path
     style="fill:#ffffff;fill-opacity:1;fill-rule:nonzero;stroke:none"
     d="m 265.39133,103.027 c 0,-2.355 1.18,-4.271 2.65,-4.271 1.46,0 2.65,1.916 2.65,4.271 0,2.354 -1.19,4.27 -2.65,4.27 -1.47,0 -2.65,-1.916 -2.65,-4.27 m -0.83,0 c 0,3.088 1.56,5.598 3.48,5.598 1.91,0 3.47,-2.51 3.47,-5.598 0,-3.088 -1.56,-5.599 -3.47,-5.599 -1.92,0 -3.48,2.511 -3.48,5.599"
     id="path209" />
  <path
     style="fill:none;stroke:#231f20;stroke-width:0.665856;stroke-linecap:butt;stroke-linejoin:miter;stroke-miterlimit:4;stroke-dasharray:none;stroke-opacity:1"
     d="m 265.39133,103.027 c 0,-2.355 1.18,-4.271 2.65,-4.271 1.46,0 2.65,1.916 2.65,4.271 0,2.354 -1.19,4.27 -2.65,4.27 -1.47,0 -2.65,-1.916 -2.65,-4.27 z m -0.83,0 c 0,3.088 1.56,5.598 3.48,5.598 1.91,0 3.47,-2.51 3.47,-5.598 0,-3.088 -1.56,-5.599 -3.47,-5.599 -1.92,0 -3.48,2.511 -3.48,5.599 z"
     id="path210" />
  <path
     style="fill:#ffffff;fill-opacity:1;fill-rule:nonzero;stroke:none"
     d="m 281.53133,103.027 c 0,-2.355 1.19,-4.271 2.65,-4.271 1.47,0 2.65,1.916 2.65,4.271 0,2.354 -1.18,4.27 -2.65,4.27 -1.46,0 -2.65,-1.916 -2.65,-4.27 m -0.82,0 c 0,3.088 1.56,5.598 3.47,5.598 1.92,0 3.48,-2.51 3.48,-5.598 0,-3.088 -1.56,-5.599 -3.48,-5.599 -1.91,0 -3.47,2.511 -3.47,5.599"
     id="path211" />
  <path
     style="fill:none;stroke:#231f20;stroke-width:0.665856;stroke-linecap:butt;stroke-linejoin:miter;stroke-miterlimit:4;stroke-dasharray:none;stroke-opacity:1"
     d="m 281.53133,103.027 c 0,-2.355 1.19,-4.271 2.65,-4.271 1.47,0 2.65,1.916 2.65,4.271 0,2.354 -1.18,4.27 -2.65,4.27 -1.46,0 -2.65,-1.916 -2.65,-4.27 z m -0.82,0 c 0,3.088 1.56,5.598 3.47,5.598 1.92,0 3.48,-2.51 3.48,-5.598 0,-3.088 -1.56,-5.599 -3.48,-5.599 -1.91,0 -3.47,2.511 -3.47,5.599 z"
     id="path212" />
  <path
     style="fill:#231f20;fill-opacity:1;fill-rule:nonzero;stroke:none"
     d="m 283.34133,29.787 c 0.26,0.615 -1.02,1.885 -1.17,3.844 -0.02,0.401 -0.24,0.713 -0.4,1.047 -0.64,1.37 -1.97,2.256 -2.68,-1.506 -0.09,-0.525 0.41,-2.562 0.2,-3.322 -0.49,-1.798 1.29,-4.61 1.77,-4.438 1.07,0.35 2.28,4.375 2.28,4.375"
     id="path213" />
  <path
     style="fill:none;stroke:#231f20;stroke-width:0.644548;stroke-linecap:round;stroke-linejoin:round;stroke-miterlimit:4;stroke-dasharray:none;stroke-opacity:1"
     d="m 283.34133,29.787 c 0.26,0.615 -1.02,1.885 -1.17,3.844 -0.02,0.401 -0.24,0.713 -0.4,1.047 -0.64,1.37 -1.97,2.256 -2.68,-1.506 -0.09,-0.525 0.41,-2.562 0.2,-3.322 -0.49,-1.798 1.29,-4.61 1.77,-4.438 1.07,0.35 2.28,4.375 2.28,4.375 z"
     id="path214" />
  <path
     style="fill:#231f20;fill-opacity:1;fill-rule:nonzero;stroke:none"
     d="m 269.47133,30.095 c -0.27,0.615 0.99,1.901 1.11,3.864 0.03,0.407 0.23,0.719 0.38,1.057 0.62,1.38 1.94,2.282 2.7,-1.468 0.11,-0.521 -0.36,-2.568 -0.14,-3.318 0.52,-1.791 -1.21,-4.63 -1.71,-4.474 -1.07,0.334 -2.34,4.339 -2.34,4.339"
     id="path215" />
  <path
     style="fill:none;stroke:#231f20;stroke-width:0.644548;stroke-linecap:round;stroke-linejoin:round;stroke-miterlimit:4;stroke-dasharray:none;stroke-opacity:1"
     d="m 269.47133,30.095 c -0.27,0.615 0.99,1.901 1.11,3.864 0.03,0.407 0.23,0.719 0.38,1.057 0.62,1.38 1.94,2.282 2.7,-1.468 0.11,-0.521 -0.36,-2.568 -0.14,-3.318 0.52,-1.791 -1.21,-4.63 -1.71,-4.474 -1.07,0.334 -2.34,4.339 -2.34,4.339 z"
     id="path216" />
  <path
     style="fill:#231f20;fill-opacity:1;fill-rule:nonzero;stroke:none"
     d="m 273.87133,72.709 c -3.6,-0.266 -3.14,-1.89 -3.85,-5.912 -0.77,-4.39 -1.1,-9.051 -0.36,-12.27 0.81,-3.593 0.38,-3.875 2.23,-4.385 1.84,-0.511 2.07,0.234 3.1,1.02 1.17,0.917 -0.1,8.157 0.88,12.807 0.46,2.183 2.98,7.099 1.66,7.724 -1.3,0.62 -3.66,1.016 -3.66,1.016"
     id="path217" />
  <path
     style="fill:none;stroke:#231f20;stroke-width:0.565977;stroke-linecap:butt;stroke-linejoin:miter;stroke-miterlimit:4;stroke-dasharray:none;stroke-opacity:1"
     d="m 273.87133,72.709 c -3.6,-0.266 -3.14,-1.89 -3.85,-5.912 -0.77,-4.39 -1.1,-9.051 -0.36,-12.27 0.81,-3.593 0.38,-3.875 2.23,-4.385 1.84,-0.511 2.07,0.234 3.1,1.02 1.17,0.917 -0.1,8.157 0.88,12.807 0.46,2.183 2.98,7.099 1.66,7.724 -1.3,0.62 -3.66,1.016 -3.66,1.016 z"
     id="path218" />
  <path
     style="fill:#231f20;fill-opacity:1;fill-rule:nonzero;stroke:none"
     d="m 273.08133,52.058 c -2.24,0.349 -2.89,0.48 -2.88,-2.026 0,-0.63 0.14,-2.406 0.03,-2.776 -0.34,-1.25 -0.64,-2.734 0.84,-9.15 0.23,-0.996 0.34,-2.97 0.53,-4.36 0.19,-1.344 2.29,-0.12 2.22,0.412 -0.21,1.697 0.01,2.838 0.02,3.462 0,0.428 -0.13,1.224 0.3,2.834 1.07,4.141 -0.03,5.562 0.12,6.453 0.43,2.547 1.32,4.631 0.75,4.975 -0.93,0.552 -1.93,0.176 -1.93,0.176"
     id="path219" />
  <path
     style="fill:none;stroke:#231f20;stroke-width:0.565977;stroke-linecap:butt;stroke-linejoin:miter;stroke-miterlimit:4;stroke-dasharray:none;stroke-opacity:1"
     d="m 273.08133,52.058 c -2.24,0.349 -2.89,0.48 -2.88,-2.026 0,-0.63 0.14,-2.406 0.03,-2.776 -0.34,-1.25 -0.64,-2.734 0.84,-9.15 0.23,-0.996 0.34,-2.97 0.53,-4.36 0.19,-1.344 2.29,-0.12 2.22,0.412 -0.21,1.697 0.01,2.838 0.02,3.462 0,0.428 -0.13,1.224 0.3,2.834 1.07,4.141 -0.03,5.562 0.12,6.453 0.43,2.547 1.32,4.631 0.75,4.975 -0.93,0.552 -1.93,0.176 -1.93,0.176 z"
     id="path220" />
  <path
     style="fill:#231f20;fill-opacity:1;fill-rule:nonzero;stroke:none"
     d="m 279.46133,72.647 c 3.59,-0.276 3.15,-1.891 3.84,-5.912 0.76,-4.396 1.08,-9.057 0.34,-12.276 -0.82,-3.593 -0.38,-3.875 -2.23,-4.38 -1.85,-0.511 -2.08,0.235 -3.1,1.027 -1.18,0.916 0.11,8.156 -0.87,12.806 -0.45,2.183 -2.97,7.104 -1.65,7.724 1.32,0.62 3.67,1.011 3.67,1.011"
     id="path221" />
  <path
     style="fill:none;stroke:#231f20;stroke-width:0.565977;stroke-linecap:butt;stroke-linejoin:miter;stroke-miterlimit:4;stroke-dasharray:none;stroke-opacity:1"
     d="m 279.46133,72.647 c 3.59,-0.276 3.15,-1.891 3.84,-5.912 0.76,-4.396 1.08,-9.057 0.34,-12.276 -0.82,-3.593 -0.38,-3.875 -2.23,-4.38 -1.85,-0.511 -2.08,0.235 -3.1,1.027 -1.18,0.916 0.11,8.156 -0.87,12.806 -0.45,2.183 -2.97,7.104 -1.65,7.724 1.32,0.62 3.67,1.011 3.67,1.011 z"
     id="path222" />
  <path
     style="fill:#ca0369;fill-opacity:1;fill-rule:nonzero;stroke:none"
     d="m 283.18133,83.48 c -0.66,-1.161 -1.99,-6.084 -2.05,-9.339 -0.02,-0.745 1.29,-2.765 0.39,-1.901 l -0.36,-0.016 c -2.72,-1.509 -3.43,-7.307 -3.43,-7.307 0,0 -0.61,-0.432 -1.1,-0.432 -0.5,0 -1.11,0.432 -1.11,0.432 0,0 -0.7,5.798 -3.43,7.307 l -0.36,0.016 c -0.9,-0.864 0.41,1.156 0.4,1.901 -0.06,3.255 -1.4,8.178 -2.06,9.339 -0.9,1.593 -3.48,2.104 -2.42,3.989 0,0 0.62,1.844 3.41,1.484 1,-0.129 3.22,0.59 3.22,0.59 0,0 1.24,0.53 2.4,0.557 1.03,0.015 2.08,-0.453 2.29,-0.563 l 0.01,0.006 c 0,0 2.21,-0.719 3.22,-0.59 2.79,0.36 3.34,-1.754 3.34,-1.754 1.06,-1.891 -1.46,-2.126 -2.36,-3.719"
     id="path223" />
  <path
     style="fill:none;stroke:#231f20;stroke-width:0.565977;stroke-linecap:butt;stroke-linejoin:miter;stroke-miterlimit:4;stroke-dasharray:none;stroke-opacity:1"
     d="m 283.18133,83.48 c -0.66,-1.161 -1.99,-6.084 -2.05,-9.339 -0.02,-0.745 1.29,-2.765 0.39,-1.901 l -0.36,-0.016 c -2.72,-1.509 -3.43,-7.307 -3.43,-7.307 0,0 -0.61,-0.432 -1.1,-0.432 -0.5,0 -1.11,0.432 -1.11,0.432 0,0 -0.7,5.798 -3.43,7.307 l -0.36,0.016 c -0.9,-0.864 0.41,1.156 0.4,1.901 -0.06,3.255 -1.4,8.178 -2.06,9.339 -0.9,1.593 -3.48,2.104 -2.42,3.989 0,0 0.62,1.844 3.41,1.484 1,-0.129 3.22,0.59 3.22,0.59 0,0 1.24,0.53 2.4,0.557 1.03,0.015 2.08,-0.453 2.29,-0.563 l 0.01,0.006 c 0,0 2.21,-0.719 3.22,-0.59 2.79,0.36 3.34,-1.754 3.34,-1.754 1.06,-1.891 -1.46,-2.126 -2.36,-3.719 z"
     id="path224" />
  <path
     style="fill:#231f20;fill-opacity:1;fill-rule:nonzero;stroke:none"
     d="m 280.37133,95.027 c 0,-2.823 -1.68,-5.115 -3.75,-5.12 -2.08,-0.006 -3.77,2.281 -3.77,5.104 -0.01,2.828 1.67,5.12 3.74,5.125 2.08,0.005 3.77,-2.281 3.78,-5.109"
     id="path225" />
  <path
     style="fill:none;stroke:#231f20;stroke-width:0.565977;stroke-linecap:butt;stroke-linejoin:miter;stroke-miterlimit:4;stroke-dasharray:none;stroke-opacity:1"
     d="m 280.37133,95.027 c 0,-2.823 -1.68,-5.115 -3.75,-5.12 -2.08,-0.006 -3.77,2.281 -3.77,5.104 -0.01,2.828 1.67,5.12 3.74,5.125 2.08,0.005 3.77,-2.281 3.78,-5.109 z"
     id="path226" />
  <path
     style="fill:#231f20;fill-opacity:1;fill-rule:nonzero;stroke:none"
     d="m 280.24133,52.011 c 2.24,0.333 2.89,0.459 2.86,-2.041 -0.01,-0.64 -0.16,-2.407 -0.05,-2.787 0.33,-1.249 0.62,-2.735 -0.9,-9.14 -0.24,-0.995 -0.36,-2.964 -0.57,-4.355 -0.19,-1.344 -2.29,-0.104 -2.21,0.422 0.22,1.698 0.01,2.844 0.01,3.464 0,0.432 0.13,1.229 -0.28,2.838 -1.05,4.151 0.07,5.563 -0.08,6.454 -0.41,2.546 -1.29,4.645 -0.72,4.978 0.94,0.552 1.94,0.167 1.94,0.167"
     id="path227" />
  <path
     style="fill:none;stroke:#231f20;stroke-width:0.565977;stroke-linecap:butt;stroke-linejoin:miter;stroke-miterlimit:4;stroke-dasharray:none;stroke-opacity:1"
     d="m 280.24133,52.011 c 2.24,0.333 2.89,0.459 2.86,-2.041 -0.01,-0.64 -0.16,-2.407 -0.05,-2.787 0.33,-1.249 0.62,-2.735 -0.9,-9.14 -0.24,-0.995 -0.36,-2.964 -0.57,-4.355 -0.19,-1.344 -2.29,-0.104 -2.21,0.422 0.22,1.698 0.01,2.844 0.01,3.464 0,0.432 0.13,1.229 -0.28,2.838 -1.05,4.151 0.07,5.563 -0.08,6.454 -0.41,2.546 -1.29,4.645 -0.72,4.978 0.94,0.552 1.94,0.167 1.94,0.167 z"
     id="path228" />
  <path
     style="fill:#ca0369;fill-opacity:1;fill-rule:nonzero;stroke:none"
     d="m 281.50133,73.068 c 0.2,-0.281 0.85,-1.489 1.02,-1.921 1.1,-2.762 1.01,-6.708 1.28,-7.954 0.27,-1.245 -6.32,-1.188 -6.32,-1.188 l -0.79,1.24 c -0.44,-0.432 -0.18,0 -0.18,0 l -0.94,-1.317 c 0,0 -6.46,-0.25 -6.31,0.744 0.2,1.38 0.28,6.011 1.22,8.271 0.51,1.245 1.29,1.917 1.29,1.917 0,0 3.64,-1.084 5.07,-1.084 1.43,0 4.66,1.292 4.66,1.292"
     id="path229" />
  <path
     style="fill:none;stroke:#231f20;stroke-width:0.565977;stroke-linecap:butt;stroke-linejoin:miter;stroke-miterlimit:4;stroke-dasharray:none;stroke-opacity:1"
     d="m 281.50133,73.068 c 0.2,-0.281 0.85,-1.489 1.02,-1.921 1.1,-2.762 1.01,-6.708 1.28,-7.954 0.27,-1.245 -6.32,-1.188 -6.32,-1.188 l -0.79,1.24 c -0.44,-0.432 -0.18,0 -0.18,0 l -0.94,-1.317 c 0,0 -6.46,-0.25 -6.31,0.744 0.2,1.38 0.28,6.011 1.22,8.271 0.51,1.245 1.29,1.917 1.29,1.917 0,0 3.64,-1.084 5.07,-1.084 1.43,0 4.66,1.292 4.66,1.292 z"
     id="path230" />
  <path
     style="fill:none;stroke:#231f20;stroke-width:0.565977;stroke-linecap:round;stroke-linejoin:round;stroke-miterlimit:4;stroke-dasharray:none;stroke-opacity:1"
     d="m 279.80133,63.683 c -1.31,-1.235 -3.25,-0.276 -3.25,-0.276 -1.72,-0.651 -3.14,0.084 -3.14,0.084"
     id="path231" />
  <path
     style="fill:#231f20;fill-opacity:1;fill-rule:nonzero;stroke:none"
     d="m 269.29133,106.037 c 0.6,0.348 0.45,2.662 0.14,2.744 -0.3,0.084 -0.17,-0.666 -0.52,-0.593 -0.35,0.084 -0.36,0.584 -0.59,0.573 -0.25,-0.016 -0.14,-0.614 -0.44,-0.568 -0.13,0.016 -0.43,0.526 -0.62,0.464 -0.15,-0.057 -0.27,-0.573 -0.39,-0.625 -0.2,-0.084 -0.35,0.511 -0.53,0.453 -0.44,-0.146 0.61,-2.646 0.83,-2.729 0.34,-0.115 1.14,-0.297 2.12,0.281"
     id="path232" />
  <path
     style="fill:none;stroke:#231f20;stroke-width:0.565977;stroke-linecap:round;stroke-linejoin:round;stroke-miterlimit:4;stroke-dasharray:none;stroke-opacity:1"
     d="m 269.29133,106.037 c 0.6,0.348 0.45,2.662 0.14,2.744 -0.3,0.084 -0.17,-0.666 -0.52,-0.593 -0.35,0.084 -0.36,0.584 -0.59,0.573 -0.25,-0.016 -0.14,-0.614 -0.44,-0.568 -0.13,0.016 -0.43,0.526 -0.62,0.464 -0.15,-0.057 -0.27,-0.573 -0.39,-0.625 -0.2,-0.084 -0.35,0.511 -0.53,0.453 -0.44,-0.146 0.61,-2.646 0.83,-2.729 0.34,-0.115 1.14,-0.297 2.12,0.281 z"
     id="path233" />
  <path
     style="fill:#231f20;fill-opacity:1;fill-rule:nonzero;stroke:none"
     d="m 283.71133,106.037 c -0.59,0.348 -0.45,2.662 -0.14,2.744 0.31,0.084 0.18,-0.666 0.52,-0.593 0.35,0.084 0.36,0.584 0.59,0.573 0.25,-0.016 0.15,-0.614 0.45,-0.568 0.12,0.016 0.43,0.526 0.61,0.464 0.16,-0.057 0.27,-0.573 0.4,-0.625 0.19,-0.084 0.35,0.511 0.52,0.453 0.44,-0.146 -0.61,-2.646 -0.83,-2.729 -0.34,-0.115 -1.14,-0.297 -2.12,0.281"
     id="path234" />
  <path
     style="fill:none;stroke:#231f20;stroke-width:0.565977;stroke-linecap:round;stroke-linejoin:round;stroke-miterlimit:4;stroke-dasharray:none;stroke-opacity:1"
     d="m 283.71133,106.037 c -0.59,0.348 -0.45,2.662 -0.14,2.744 0.31,0.084 0.18,-0.666 0.52,-0.593 0.35,0.084 0.36,0.584 0.59,0.573 0.25,-0.016 0.15,-0.614 0.45,-0.568 0.12,0.016 0.43,0.526 0.61,0.464 0.16,-0.057 0.27,-0.573 0.4,-0.625 0.19,-0.084 0.35,0.511 0.52,0.453 0.44,-0.146 -0.61,-2.646 -0.83,-2.729 -0.34,-0.115 -1.14,-0.297 -2.12,0.281 z"
     id="path235" />
  <path
     style="fill:#ffffff;fill-opacity:1;fill-rule:nonzero;stroke:none"
     d="m 267.55133,98.095 h 1.33 V 16.376 h -1.33 z"
     id="path236" />
  <path
     style="fill:none;stroke:#231f20;stroke-width:0.821665;stroke-linecap:butt;stroke-linejoin:miter;stroke-miterlimit:4;stroke-dasharray:none;stroke-opacity:1"
     d="m 267.55133,98.089 h 1.33 V 16.377 h -1.33 z"
     id="path237" />
  <path
     style="fill:#ffffff;fill-opacity:1;fill-rule:nonzero;stroke:none"
     d="m 283.70133,98.095 h 1.33 V 16.376 h -1.33 z"
     id="path238" />
  <path
     style="fill:none;stroke:#231f20;stroke-width:0.821665;stroke-linecap:butt;stroke-linejoin:miter;stroke-miterlimit:4;stroke-dasharray:none;stroke-opacity:1"
     d="m 283.70133,98.089 h 1.33 V 16.377 h -1.33 z"
     id="path239" />
  <path
     style="fill:none;stroke:#231f20;stroke-width:1.33171;stroke-linecap:butt;stroke-linejoin:miter;stroke-miterlimit:4;stroke-dasharray:none;stroke-opacity:1"
     d="m 244.13133,68.813 h 10.65"
     id="path240" />
  <path
     style="fill:none;stroke:#231f20;stroke-width:1.33171;stroke-linecap:butt;stroke-linejoin:miter;stroke-miterlimit:4;stroke-dasharray:none;stroke-opacity:1"
     d="m 244.13133,74.475 h 10.65"
     id="path241" />
</svg>
