<?xml version="1.0" encoding="UTF-8" standalone="no"?>
<!-- Created with Inkscape (http://www.inkscape.org/) -->

<svg
   version="1.1"
   id="svg1"
   width="293.52985"
   height="93.056923"
   viewBox="0 0 293.52984 93.056924"
   sodipodi:docname="cell.svg"
   xmlns:inkscape="http://www.inkscape.org/namespaces/inkscape"
   xmlns:sodipodi="http://sodipodi.sourceforge.net/DTD/sodipodi-0.dtd"
   xmlns="http://www.w3.org/2000/svg"
   xmlns:svg="http://www.w3.org/2000/svg">
  <sodipodi:namedview
     id="namedview1"
     pagecolor="#ffffff"
     bordercolor="#000000"
     borderopacity="0.25"
     inkscape:showpageshadow="2"
     inkscape:pageopacity="0.0"
     inkscape:pagecheckerboard="0"
     inkscape:deskcolor="#d1d1d1">
    <inkscape:page
       x="0"
       y="0"
       inkscape:label="1"
       id="page1"
       width="293.52985"
       height="93.056923"
       margin="0"
       bleed="0" />
  </sodipodi:namedview>
  <defs
     id="defs1" />
  <path
     style="fill:#231f20;fill-opacity:1;fill-rule:nonzero;stroke:none"
     d="m 288.05593,15.166228 c 1.068,0.8293 0.781,1.776 -0.088,2.3386 -0.26,0.172 -0.307,0.584 -0.579,0.7294 -0.618,0.3333 -2.27,-0.2347 -2.15,-1.7294 0.01,-0.1093 -0.172,-0.9053 -0.214,-1.52 -0.088,-1.2133 0.334,-3.6773 2.547,-5.2133 1.047,-0.7347 1.281,0.02 0.948,0.4467 -1.057,1.344 -0.891,1.672 -1.041,2.12 -0.516,1.5426 0.577,2.828 0.577,2.828"
     id="path766" />
  <path
     style="fill:none;stroke:#231f20;stroke-width:0.332927;stroke-linecap:butt;stroke-linejoin:miter;stroke-miterlimit:4;stroke-dasharray:none;stroke-opacity:1"
     d="m 288.05593,15.166228 c 1.068,0.8293 0.781,1.776 -0.088,2.3386 -0.26,0.172 -0.307,0.584 -0.579,0.7294 -0.618,0.3333 -2.27,-0.2347 -2.15,-1.7294 0.01,-0.1093 -0.172,-0.9053 -0.214,-1.52 -0.088,-1.2133 0.334,-3.6773 2.547,-5.2133 1.047,-0.7347 1.281,0.02 0.948,0.4467 -1.057,1.344 -0.891,1.672 -1.041,2.12 -0.516,1.5426 0.577,2.828 0.577,2.828 z"
     id="path767" />
  <path
     style="fill:#231f20;fill-opacity:1;fill-rule:nonzero;stroke:none"
     d="m 286.27093,33.832828 c 2.244,0.3133 2.724,0.068 2.921,-0.8693 0.131,-0.6254 0.464,-1.1614 0.563,-1.536 0.322,-1.256 0.354,-3.5 -1.235,-9.8907 -0.359,-1.448 -0.849,-3.4893 -0.984,-4.3333 -0.213,-1.344 -2.292,-0.084 -2.213,0.4427 0.244,1.6973 0.281,2.8853 0.286,3.5053 0.004,0.432 0.114,1.1866 -0.084,2.8386 -0.302,2.5054 -0.849,3.968 -0.86,6.0827 0,0.98 -0.624,1.7187 -0.14,2.6827 0.49,0.968 1.746,1.0773 1.746,1.0773"
     id="path768" />
  <path
     style="fill:none;stroke:#231f20;stroke-width:0.565977;stroke-linecap:butt;stroke-linejoin:miter;stroke-miterlimit:4;stroke-dasharray:none;stroke-opacity:1"
     d="m 286.27093,33.832828 c 2.244,0.3133 2.724,0.068 2.921,-0.8693 0.131,-0.6254 0.464,-1.1614 0.563,-1.536 0.322,-1.256 0.354,-3.5 -1.235,-9.8907 -0.359,-1.448 -0.849,-3.4893 -0.984,-4.3333 -0.213,-1.344 -2.292,-0.084 -2.213,0.4427 0.244,1.6973 0.281,2.8853 0.286,3.5053 0.004,0.432 0.114,1.1866 -0.084,2.8386 -0.302,2.5054 -0.849,3.968 -0.86,6.0827 0,0.98 -0.624,1.7187 -0.14,2.6827 0.49,0.968 1.746,1.0773 1.746,1.0773 z"
     id="path769" />
  <path
     style="fill:#ca0369;fill-opacity:1;fill-rule:nonzero;stroke:none"
     d="m 289.19693,59.662128 c -0.046,-3.136 0.287,-3.8134 0.636,-4.6667 2.187,-5.3493 -0.48,-6.324 -3.313,-5.756 -3.323,0.6613 -4.525,0.8333 -3.833,7.0893 0.193,1.7387 0.062,8.5097 0.062,8.5097 -0.369,2.422 0.552,4.98 1.771,5.776 1.281,0.844 0.833,0.417 2.167,0.98 1.265,0.536 3.432,0.249 4.104,-0.792 0.646,-0.995 -0.099,-2.49 -0.891,-4.782 -0.62,-1.8064 -0.703,-6.3583 -0.703,-6.3583"
     id="path770" />
  <path
     style="fill:none;stroke:#231f20;stroke-width:0.565977;stroke-linecap:butt;stroke-linejoin:miter;stroke-miterlimit:4;stroke-dasharray:none;stroke-opacity:1"
     d="m 289.19693,59.662128 c -0.046,-3.136 0.287,-3.8134 0.636,-4.6667 2.187,-5.3493 -0.48,-6.324 -3.313,-5.756 -3.323,0.6613 -4.525,0.8333 -3.833,7.0893 0.193,1.7387 0.062,8.5097 0.062,8.5097 -0.369,2.422 0.552,4.98 1.771,5.776 1.281,0.844 0.833,0.417 2.167,0.98 1.265,0.536 3.432,0.249 4.104,-0.792 0.646,-0.995 -0.099,-2.49 -0.891,-4.782 -0.62,-1.8064 -0.703,-6.3583 -0.703,-6.3583 z"
     id="path771" />
  <path
     style="fill:#ffffff;fill-opacity:1;fill-rule:nonzero;stroke:none"
     d="m 284.49493,76.307428 c -0.043,0.24 -1.183,0.364 -1.163,0.891 0.021,0.521 0.787,0.692 1.704,2.464 l 0.011,0.014 c 0.624,1.319 1.692,2.204 2.948,2.256 2.072,0.094 3.858,-2.114 3.984,-4.937 0.13,-2.824 -1.448,-5.183 -3.527,-5.276 -1.984,-0.095 -3.708,1.937 -3.957,4.588"
     id="path772" />
  <path
     style="fill:none;stroke:#231f20;stroke-width:0.565977;stroke-linecap:butt;stroke-linejoin:miter;stroke-miterlimit:4;stroke-dasharray:none;stroke-opacity:1"
     d="m 284.49493,76.307428 c -0.043,0.24 -1.183,0.364 -1.163,0.891 0.021,0.521 0.787,0.692 1.704,2.464 l 0.011,0.014 c 0.624,1.319 1.692,2.204 2.948,2.256 2.072,0.094 3.858,-2.114 3.984,-4.937 0.13,-2.824 -1.448,-5.183 -3.527,-5.276 -1.984,-0.095 -3.708,1.937 -3.957,4.588 z"
     id="path773" />
  <path
     style="fill:#231f20;fill-opacity:1;fill-rule:nonzero;stroke:none"
     d="m 287.16693,31.526128 c -3.912,-0.8906 -2.939,3.0733 -3.048,3.536 -1.14,4.88 -1.094,5.2613 -1.698,9.0373 -0.874,5.4573 -0.641,9.328 2.391,10.7653 2.052,0.9734 3.656,0.6454 4.62,-0.2506 1.068,-0.9947 2.129,-3.9947 0.348,-6.2654 l -0.192,-1.7026 c 0.021,-1.1613 0.021,-1.7347 0.077,-2.3133 0.1,-0.9947 0.136,-2.0667 0.215,-4.0254 0.14,-3.4693 -0.849,-7.1826 -0.849,-7.1826 0.016,-1.244 -1.864,-1.5987 -1.864,-1.5987"
     id="path774" />
  <path
     style="fill:none;stroke:#231f20;stroke-width:0.565977;stroke-linecap:butt;stroke-linejoin:miter;stroke-miterlimit:4;stroke-dasharray:none;stroke-opacity:1"
     d="m 287.16693,31.526128 c -3.912,-0.8906 -2.939,3.0733 -3.048,3.536 -1.14,4.88 -1.094,5.2613 -1.698,9.0373 -0.874,5.4573 -0.641,9.328 2.391,10.7653 2.052,0.9734 3.656,0.6454 4.62,-0.2506 1.068,-0.9947 2.129,-3.9947 0.348,-6.2654 l -0.192,-1.7026 c 0.021,-1.1613 0.021,-1.7347 0.077,-2.3133 0.1,-0.9947 0.136,-2.0667 0.215,-4.0254 0.14,-3.4693 -0.849,-7.1826 -0.849,-7.1826 0.016,-1.244 -1.864,-1.5987 -1.864,-1.5987 z"
     id="path775" />
  <path
     style="fill:#ca0369;fill-opacity:1;fill-rule:nonzero;stroke:none"
     d="m 289.77993,48.348728 -7.749,-1.0253 c -0.047,0.656 -0.052,1.2653 -0.036,1.848 -0.027,0.0787 -0.052,0.152 -0.084,0.2187 -0.35,0.724 -0.083,1.2973 0.396,2.2186 0.396,1.5 1.172,2.62 2.505,3.256 2.052,0.9734 3.656,0.6454 4.62,-0.2506 1.068,-1 2.129,-3.9947 0.348,-6.2654"
     id="path776" />
  <path
     style="fill:none;stroke:#231f20;stroke-width:0.565977;stroke-linecap:butt;stroke-linejoin:miter;stroke-miterlimit:4;stroke-dasharray:none;stroke-opacity:1"
     d="m 289.77993,48.348728 -7.749,-1.0253 c -0.047,0.656 -0.052,1.2653 -0.036,1.848 -0.027,0.0787 -0.052,0.152 -0.084,0.2187 -0.35,0.724 -0.083,1.2973 0.396,2.2186 0.396,1.5 1.172,2.62 2.505,3.256 2.052,0.9734 3.656,0.6454 4.62,-0.2506 1.068,-1 2.129,-3.9947 0.348,-6.2654 z"
     id="path777" />
  <path
     style="fill:#231f20;fill-opacity:1;fill-rule:nonzero;stroke:none"
     d="m 286.75493,89.884428 c -0.375,-0.525 -0.188,-2.457 -0.656,-4 -0.319,-1.036 0.014,-3.76 -0.38,-4.77 -0.36,-0.927 -0.439,-1.386 0.552,-1.979 0.582,-0.355 1.937,-0.651 2.224,-0.229 0.656,0.994 0.828,1.926 0.806,2.994 -0.025,1.214 -0.401,4.506 -0.525,5.104 -0.313,1.491 0.009,2.152 -0.032,2.552 -0.083,0.756 -0.396,0.912 -0.901,0.964 -0.948,0.094 -1.088,-0.636 -1.088,-0.636"
     id="path778" />
  <path
     style="fill:none;stroke:#231f20;stroke-width:0.565977;stroke-linecap:butt;stroke-linejoin:miter;stroke-miterlimit:4;stroke-dasharray:none;stroke-opacity:1"
     d="m 286.75493,89.884428 c -0.375,-0.525 -0.188,-2.457 -0.656,-4 -0.319,-1.036 0.014,-3.76 -0.38,-4.77 -0.36,-0.927 -0.439,-1.386 0.552,-1.979 0.582,-0.355 1.937,-0.651 2.224,-0.229 0.656,0.994 0.828,1.926 0.806,2.994 -0.025,1.214 -0.401,4.506 -0.525,5.104 -0.313,1.491 0.009,2.152 -0.032,2.552 -0.083,0.756 -0.396,0.912 -0.901,0.964 -0.948,0.094 -1.088,-0.636 -1.088,-0.636 z"
     id="path779" />
  <path
     style="fill:#231f20;fill-opacity:1;fill-rule:nonzero;stroke:none"
     d="m 286.33193,80.838428 c -1.291,-0.083 -0.796,-2.058 -0.744,-2.594 0.052,-0.541 0.025,-2.098 -0.151,-3.312 -0.177,-1.209 0.119,-2.797 -0.214,-5.1 -0.176,-1.208 0.422,-2.5 2.188,-2.676 1.745,-0.177 2.505,0.739 2.494,2.234 -0.01,1.494 -0.65,2.896 -0.765,4.406 -0.115,1.511 -0.088,3.058 -0.011,4.266 0.084,1.38 -0.385,2.094 -0.812,2.308 -1.068,0.536 -1.985,0.468 -1.985,0.468"
     id="path780" />
  <path
     style="fill:none;stroke:#231f20;stroke-width:0.565977;stroke-linecap:butt;stroke-linejoin:miter;stroke-miterlimit:4;stroke-dasharray:none;stroke-opacity:1"
     d="m 286.33193,80.838428 c -1.291,-0.083 -0.796,-2.058 -0.744,-2.594 0.052,-0.541 0.025,-2.098 -0.151,-3.312 -0.177,-1.209 0.119,-2.797 -0.214,-5.1 -0.176,-1.208 0.422,-2.5 2.188,-2.676 1.745,-0.177 2.505,0.739 2.494,2.234 -0.01,1.494 -0.65,2.896 -0.765,4.406 -0.115,1.511 -0.088,3.058 -0.011,4.266 0.084,1.38 -0.385,2.094 -0.812,2.308 -1.068,0.536 -1.985,0.468 -1.985,0.468 z"
     id="path781" />
  <path
     style="fill:#ffffff;fill-opacity:1;fill-rule:nonzero;stroke:#231f20;stroke-width:0.665856;stroke-linecap:butt;stroke-linejoin:miter;stroke-miterlimit:4;stroke-dasharray:none;stroke-opacity:1"
     d="m 286.52493,81.296428 h 1.334 v -80.9635 h -1.334 z"
     id="path782" />
  <path
     style="fill:#ffffff;fill-opacity:1;fill-rule:nonzero;stroke:none"
     d="m 283.33193,86.234428 c 0,-2.354 1.912,-4.271 4.267,-4.271 2.353,0 4.27,1.917 4.27,4.271 0,2.354 -1.917,4.27 -4.27,4.27 -2.355,0 -4.267,-1.916 -4.267,-4.27 m -1.333,0 c 0,3.089 2.51,5.604 5.6,5.604 3.088,0 5.598,-2.515 5.598,-5.604 0,-3.088 -2.51,-5.599 -5.598,-5.599 -3.09,0 -5.6,2.511 -5.6,5.599"
     id="path783" />
  <path
     style="fill:none;stroke:#231f20;stroke-width:0.665856;stroke-linecap:butt;stroke-linejoin:miter;stroke-miterlimit:4;stroke-dasharray:none;stroke-opacity:1"
     d="m 283.33193,86.234428 c 0,-2.354 1.912,-4.271 4.267,-4.271 2.353,0 4.27,1.917 4.27,4.271 0,2.354 -1.917,4.27 -4.27,4.27 -2.355,0 -4.267,-1.916 -4.267,-4.27 z m -1.333,0 c 0,3.089 2.51,5.604 5.6,5.604 3.088,0 5.598,-2.515 5.598,-5.604 0,-3.088 -2.51,-5.599 -5.598,-5.599 -3.09,0 -5.6,2.511 -5.6,5.599 z"
     id="path784" />
  <path
     style="fill:#231f20;fill-opacity:1;fill-rule:nonzero;stroke:none"
     d="m 288.64493,89.890428 c 0.64,0.261 0.828,2.573 0.531,2.698 -0.287,0.131 -0.265,-0.641 -0.599,-0.51 -0.333,0.125 -0.27,0.62 -0.5,0.645 -0.249,0.021 -0.234,-0.583 -0.521,-0.5 -0.124,0.037 -0.353,0.584 -0.541,0.548 -0.167,-0.037 -0.35,-0.527 -0.479,-0.563 -0.208,-0.057 -0.281,0.552 -0.459,0.526 -0.458,-0.083 0.224,-2.708 0.438,-2.818 0.318,-0.166 1.084,-0.458 2.13,-0.026"
     id="path785" />
  <path
     style="fill:none;stroke:#231f20;stroke-width:0.565977;stroke-linecap:round;stroke-linejoin:round;stroke-miterlimit:4;stroke-dasharray:none;stroke-opacity:1"
     d="m 288.64493,89.890428 c 0.64,0.261 0.828,2.573 0.531,2.698 -0.287,0.131 -0.265,-0.641 -0.599,-0.51 -0.333,0.125 -0.27,0.62 -0.5,0.645 -0.249,0.021 -0.234,-0.583 -0.521,-0.5 -0.124,0.037 -0.353,0.584 -0.541,0.548 -0.167,-0.037 -0.35,-0.527 -0.479,-0.563 -0.208,-0.057 -0.281,0.552 -0.459,0.526 -0.458,-0.083 0.224,-2.708 0.438,-2.818 0.318,-0.166 1.084,-0.458 2.13,-0.026 z"
     id="path786" />
  <path
     style="fill:#231f20;fill-opacity:1;fill-rule:nonzero;stroke:none"
     d="m 2.797029,86.864428 c -1.0417,-0.865 -0.7136,-1.808 0.1771,-2.333 0.2599,-0.161 0.3281,-0.573 0.5989,-0.708 0.6301,-0.308 2.2609,0.317 2.0839,1.807 -0.011,0.109 0.1401,0.912 0.1614,1.532 0.0411,1.213 -0.475,3.656 -2.7401,5.113 -1.0734,0.693 -1.2812,-0.072 -0.9322,-0.484 1.1093,-1.301 0.9536,-1.635 1.1202,-2.077 0.5719,-1.522 -0.4692,-2.85 -0.4692,-2.85"
     id="path787" />
  <path
     style="fill:none;stroke:#231f20;stroke-width:0.332927;stroke-linecap:butt;stroke-linejoin:miter;stroke-miterlimit:4;stroke-dasharray:none;stroke-opacity:1"
     d="m 2.797029,86.864428 c -1.0417,-0.865 -0.7136,-1.808 0.1771,-2.333 0.2599,-0.161 0.3281,-0.573 0.5989,-0.708 0.6301,-0.308 2.2609,0.317 2.0839,1.807 -0.011,0.109 0.1401,0.912 0.1614,1.532 0.0411,1.213 -0.475,3.656 -2.7401,5.113 -1.0734,0.693 -1.2812,-0.072 -0.9322,-0.484 1.1093,-1.301 0.9536,-1.635 1.1202,-2.077 0.5719,-1.522 -0.4692,-2.85 -0.4692,-2.85 z"
     id="path788" />
  <path
     style="fill:#231f20;fill-opacity:1;fill-rule:nonzero;stroke:none"
     d="m 5.276629,68.275428 c -2.2292,-0.395 -2.7197,-0.171 -2.9478,0.761 -0.1574,0.62 -0.5104,1.14 -0.6199,1.515 -0.376,1.24 -0.4853,3.485 0.8584,9.928 0.3025,1.463 0.724,3.52 0.8229,4.369 0.1626,1.35 2.2864,0.167 2.2292,-0.364 -0.1813,-1.704 -0.172,-2.89 -0.1557,-3.51 0.0104,-0.427 -0.0683,-1.188 0.188,-2.834 0.3957,-2.494 1,-3.932 1.088,-6.046 0.041,-0.98 0.6932,-1.694 0.2396,-2.678 -0.448,-0.984 -1.7027,-1.141 -1.7027,-1.141"
     id="path789" />
  <path
     style="fill:none;stroke:#231f20;stroke-width:0.565977;stroke-linecap:butt;stroke-linejoin:miter;stroke-miterlimit:4;stroke-dasharray:none;stroke-opacity:1"
     d="m 5.276629,68.275428 c -2.2292,-0.395 -2.7197,-0.171 -2.9478,0.761 -0.1574,0.62 -0.5104,1.14 -0.6199,1.515 -0.376,1.24 -0.4853,3.485 0.8584,9.928 0.3025,1.463 0.724,3.52 0.8229,4.369 0.1626,1.35 2.2864,0.167 2.2292,-0.364 -0.1813,-1.704 -0.172,-2.89 -0.1557,-3.51 0.0104,-0.427 -0.0683,-1.188 0.188,-2.834 0.3957,-2.494 1,-3.932 1.088,-6.046 0.041,-0.98 0.6932,-1.694 0.2396,-2.678 -0.448,-0.984 -1.7027,-1.141 -1.7027,-1.141 z"
     id="path790" />
  <path
     style="fill:#ca0369;fill-opacity:1;fill-rule:nonzero;stroke:none"
     d="m 3.323629,42.359428 c -0.0735,3.1307 -0.4282,3.7974 -0.8084,4.636 -2.39059996,5.2653 0.2401,6.3373 3.0895,5.88 3.348,-0.5427 4.5574,-0.6667 4.0984,-6.9426 -0.1301,-1.7454 0.2548,-8.5107 0.2548,-8.5107 0.464,-2.4013 -0.3693,-4.9893 -1.5516,-5.8386 -1.2494,-0.8854 -0.8229,-0.4427 -2.1297,-1.0574 -1.2453,-0.584 -3.4224,-0.3746 -4.1306,0.636 -0.6823,0.9734 0.0057,2.4947 0.7082,4.812 0.5522,1.8333 0.4694,6.3853 0.4694,6.3853"
     id="path791" />
  <path
     style="fill:none;stroke:#231f20;stroke-width:0.565977;stroke-linecap:butt;stroke-linejoin:miter;stroke-miterlimit:4;stroke-dasharray:none;stroke-opacity:1"
     d="m 3.323629,42.359428 c -0.0735,3.1307 -0.4282,3.7974 -0.8084,4.636 -2.39059996,5.2653 0.2401,6.3373 3.0895,5.88 3.348,-0.5427 4.5574,-0.6667 4.0984,-6.9426 -0.1301,-1.7454 0.2548,-8.5107 0.2548,-8.5107 0.464,-2.4013 -0.3693,-4.9893 -1.5516,-5.8386 -1.2494,-0.8854 -0.8229,-0.4427 -2.1297,-1.0574 -1.2453,-0.584 -3.4224,-0.3746 -4.1306,0.636 -0.6823,0.9734 0.0057,2.4947 0.7082,4.812 0.5522,1.8333 0.4694,6.3853 0.4694,6.3853 z"
     id="path792" />
  <path
     style="fill:#ffffff;fill-opacity:1;fill-rule:nonzero;stroke:none"
     d="m 8.692729,24.567528 c 0.0522,-0.2387 1.1975,-0.3227 1.1975,-0.844 0,-0.5254 -0.7656,-0.728 -1.6136,-2.5254 l -0.0052,-0.0213 c -0.5735,-1.3386 -1.6145,-2.26 -2.8651,-2.364 -2.0682,-0.172 -3.9374,1.9734 -4.1666,4.7867 -0.2297,2.8173 1.2557,5.2333 3.3276,5.4053 1.9801,0.1667 3.776,-1.796 4.1254,-4.4373"
     id="path793" />
  <path
     style="fill:none;stroke:#231f20;stroke-width:0.565977;stroke-linecap:butt;stroke-linejoin:miter;stroke-miterlimit:4;stroke-dasharray:none;stroke-opacity:1"
     d="m 8.692729,24.567528 c 0.0522,-0.2387 1.1975,-0.3227 1.1975,-0.844 0,-0.5254 -0.7656,-0.728 -1.6136,-2.5254 l -0.0052,-0.0213 c -0.5735,-1.3386 -1.6145,-2.26 -2.8651,-2.364 -2.0682,-0.172 -3.9374,1.9734 -4.1666,4.7867 -0.2297,2.8173 1.2557,5.2333 3.3276,5.4053 1.9801,0.1667 3.776,-1.796 4.1254,-4.4373 z"
     id="path794" />
  <path
     style="fill:#231f20;fill-opacity:1;fill-rule:nonzero;stroke:none"
     d="m 4.297029,70.551428 c 3.8744,1.032 3.0515,-2.963 3.1771,-3.427 1.3229,-4.8277 1.2921,-5.213 2.0358,-8.9623 1.0787,-5.4174 0.9855,-9.2974 -1.9838,-10.844 -2.0162,-1.052 -3.6307,-0.7867 -4.6307,0.0773 -1.1041,0.9533 -2.27599996,3.9067 -0.577,6.2453 l 0.1249,1.708 c -0.0625,1.156 -0.0839,1.7347 -0.1625,2.3027 -0.1348,0.9947 -0.2135,2.068 -0.364,4.02 -0.2708,3.459 0.5786,7.209 0.5786,7.209 -0.0625,1.244 1.8016,1.671 1.8016,1.671"
     id="path795" />
  <path
     style="fill:none;stroke:#231f20;stroke-width:0.565977;stroke-linecap:butt;stroke-linejoin:miter;stroke-miterlimit:4;stroke-dasharray:none;stroke-opacity:1"
     d="m 4.297029,70.551428 c 3.8744,1.032 3.0515,-2.963 3.1771,-3.427 1.3229,-4.8277 1.2921,-5.213 2.0358,-8.9623 1.0787,-5.4174 0.9855,-9.2974 -1.9838,-10.844 -2.0162,-1.052 -3.6307,-0.7867 -4.6307,0.0773 -1.1041,0.9533 -2.27599996,3.9067 -0.577,6.2453 l 0.1249,1.708 c -0.0625,1.156 -0.0839,1.7347 -0.1625,2.3027 -0.1348,0.9947 -0.2135,2.068 -0.364,4.02 -0.2708,3.459 0.5786,7.209 0.5786,7.209 -0.0625,1.244 1.8016,1.671 1.8016,1.671 z"
     id="path796" />
  <path
     style="fill:#ca0369;fill-opacity:1;fill-rule:nonzero;stroke:none"
     d="m 9.906329,50.662128 c -0.339,-1.516 -1.0724,-2.6627 -2.3802,-3.344 -2.0162,-1.052 -3.6307,-0.7867 -4.6307,0.072 -1.1041,0.9586 -2.27599996,3.912 -0.577,6.2453 l 7.7025,1.3173 c 0.0677,-0.6506 0.0985,-1.26 0.1037,-1.848 0.0323,-0.0733 0.0572,-0.1466 0.0895,-0.2093 0.3745,-0.7133 0.1344,-1.296 -0.3078,-2.2333"
     id="path797" />
  <path
     style="fill:none;stroke:#231f20;stroke-width:0.565977;stroke-linecap:butt;stroke-linejoin:miter;stroke-miterlimit:4;stroke-dasharray:none;stroke-opacity:1"
     d="m 9.906329,50.662128 c -0.339,-1.516 -1.0724,-2.6627 -2.3802,-3.344 -2.0162,-1.052 -3.6307,-0.7867 -4.6307,0.072 -1.1041,0.9586 -2.27599996,3.912 -0.577,6.2453 l 7.7025,1.3173 c 0.0677,-0.6506 0.0985,-1.26 0.1037,-1.848 0.0323,-0.0733 0.0572,-0.1466 0.0895,-0.2093 0.3745,-0.7133 0.1344,-1.296 -0.3078,-2.2333 z"
     id="path798" />
  <path
     style="fill:#231f20;fill-opacity:1;fill-rule:nonzero;stroke:none"
     d="m 4.578229,53.354128 c -0.3803,-0.5214 -0.2136,-2.4587 -0.7026,-3.9947 -0.3334,-1.0307 -0.0271,-3.76 -0.4323,-4.7653 -0.376,-0.9227 -0.4583,-1.38 0.5256,-1.9893 0.5785,-0.3547 1.9265,-0.672 2.2186,-0.2507 0.6719,0.984 0.8547,1.912 0.8438,2.984 -0.0162,1.2133 -0.3495,4.5053 -0.464,5.1093 -0.2959,1.4907 0.0374,2.152 -0.0052,2.552 -0.0719,0.7613 -0.3803,0.912 -0.8855,0.9747 -0.9479,0.104 -1.0984,-0.62 -1.0984,-0.62"
     id="path799" />
  <path
     style="fill:none;stroke:#231f20;stroke-width:0.565977;stroke-linecap:butt;stroke-linejoin:miter;stroke-miterlimit:4;stroke-dasharray:none;stroke-opacity:1"
     d="m 4.578229,53.354128 c -0.3803,-0.5214 -0.2136,-2.4587 -0.7026,-3.9947 -0.3334,-1.0307 -0.0271,-3.76 -0.4323,-4.7653 -0.376,-0.9227 -0.4583,-1.38 0.5256,-1.9893 0.5785,-0.3547 1.9265,-0.672 2.2186,-0.2507 0.6719,0.984 0.8547,1.912 0.8438,2.984 -0.0162,1.2133 -0.3495,4.5053 -0.464,5.1093 -0.2959,1.4907 0.0374,2.152 -0.0052,2.552 -0.0719,0.7613 -0.3803,0.912 -0.8855,0.9747 -0.9479,0.104 -1.0984,-0.62 -1.0984,-0.62 z"
     id="path800" />
  <path
     style="fill:#231f20;fill-opacity:1;fill-rule:nonzero;stroke:none"
     d="m 4.052729,44.307428 c -1.2922,-0.068 -0.8187,-2.0466 -0.7761,-2.584 0.047,-0.5466 0,-2.0986 -0.1932,-3.3066 -0.188,-1.208 0.088,-2.8027 -0.276,-5.0987 -0.188,-1.2093 0.3906,-2.5053 2.1615,-2.704 1.74,-0.1973 2.5104,0.7094 2.5161,2.204 0.0104,1.5 -0.6152,2.9053 -0.7084,4.416 -0.1,1.5107 -0.0572,3.0573 0.036,4.2653 0.1041,1.3814 -0.3599,2.1 -0.7813,2.3187 -1.0624,0.552 -1.9786,0.4893 -1.9786,0.4893"
     id="path801" />
  <path
     style="fill:none;stroke:#231f20;stroke-width:0.565977;stroke-linecap:butt;stroke-linejoin:miter;stroke-miterlimit:4;stroke-dasharray:none;stroke-opacity:1"
     d="m 4.052729,44.307428 c -1.2922,-0.068 -0.8187,-2.0466 -0.7761,-2.584 0.047,-0.5466 0,-2.0986 -0.1932,-3.3066 -0.188,-1.208 0.088,-2.8027 -0.276,-5.0987 -0.188,-1.2093 0.3906,-2.5053 2.1615,-2.704 1.74,-0.1973 2.5104,0.7094 2.5161,2.204 0.0104,1.5 -0.6152,2.9053 -0.7084,4.416 -0.1,1.5107 -0.0572,3.0573 0.036,4.2653 0.1041,1.3814 -0.3599,2.1 -0.7813,2.3187 -1.0624,0.552 -1.9786,0.4893 -1.9786,0.4893 z"
     id="path802" />
  <path
     style="fill:#ffffff;fill-opacity:1;fill-rule:nonzero;stroke:#231f20;stroke-width:0.665856;stroke-linecap:butt;stroke-linejoin:miter;stroke-miterlimit:4;stroke-dasharray:none;stroke-opacity:1"
     d="m 4.859429,44.687428 h 1.3333 v -43.6613 h -1.3333 z"
     id="path803" />
  <path
     style="fill:#ffffff;fill-opacity:1;fill-rule:nonzero;stroke:none"
     d="m 1.666229,49.619428 c 0,-2.3533 1.9172,-4.2653 4.2719,-4.2653 2.3532,0 4.265,1.912 4.265,4.2653 0,2.3547 -1.9118,4.2707 -4.265,4.2707 -2.3547,0 -4.2719,-1.916 -4.2719,-4.2707 m -1.33329996,0 c 0,3.0893 2.51559996,5.604 5.60519996,5.604 3.088,0 5.5984,-2.5147 5.5984,-5.604 0,-3.088 -2.5104,-5.5986 -5.5984,-5.5986 -3.0896,0 -5.60519996,2.5106 -5.60519996,5.5986"
     id="path804" />
  <path
     style="fill:none;stroke:#231f20;stroke-width:0.665856;stroke-linecap:butt;stroke-linejoin:miter;stroke-miterlimit:4;stroke-dasharray:none;stroke-opacity:1"
     d="m 1.666229,49.619428 c 0,-2.3533 1.9172,-4.2653 4.2719,-4.2653 2.3532,0 4.265,1.912 4.265,4.2653 0,2.3547 -1.9118,4.2707 -4.265,4.2707 -2.3547,0 -4.2719,-1.916 -4.2719,-4.2707 z m -1.33329996,0 c 0,3.0893 2.51559996,5.604 5.60519996,5.604 3.088,0 5.5984,-2.5147 5.5984,-5.604 0,-3.088 -2.5104,-5.5986 -5.5984,-5.5986 -3.0896,0 -5.60519996,2.5106 -5.60519996,5.5986 z"
     id="path805" />
  <path
     style="fill:#231f20;fill-opacity:1;fill-rule:nonzero;stroke:none"
     d="m 6.468929,53.332728 c 0.6452,0.256 0.8598,2.5627 0.5676,2.6934 -0.2916,0.1306 -0.276,-0.636 -0.6094,-0.5054 -0.3333,0.1307 -0.265,0.6254 -0.4942,0.6454 -0.2511,0.0266 -0.235,-0.5774 -0.5266,-0.484 -0.1256,0.032 -0.3442,0.584 -0.5308,0.5466 -0.1666,-0.0306 -0.3604,-0.52 -0.4894,-0.552 -0.2095,-0.052 -0.272,0.5574 -0.448,0.5267 -0.4588,-0.0733 0.1865,-2.708 0.4,-2.8173 0.3188,-0.168 1.0786,-0.4747 2.1308,-0.0534"
     id="path806" />
  <path
     style="fill:none;stroke:#231f20;stroke-width:0.565977;stroke-linecap:round;stroke-linejoin:round;stroke-miterlimit:4;stroke-dasharray:none;stroke-opacity:1"
     d="m 6.468929,53.332728 c 0.6452,0.256 0.8598,2.5627 0.5676,2.6934 -0.2916,0.1306 -0.276,-0.636 -0.6094,-0.5054 -0.3333,0.1307 -0.265,0.6254 -0.4942,0.6454 -0.2511,0.0266 -0.235,-0.5774 -0.5266,-0.484 -0.1256,0.032 -0.3442,0.584 -0.5308,0.5466 -0.1666,-0.0306 -0.3604,-0.52 -0.4894,-0.552 -0.2095,-0.052 -0.272,0.5574 -0.448,0.5267 -0.4588,-0.0733 0.1865,-2.708 0.4,-2.8173 0.3188,-0.168 1.0786,-0.4747 2.1308,-0.0534 z"
     id="path807" />
  <path
     style="fill:#ca0369;fill-opacity:1;fill-rule:nonzero;stroke:none"
     d="m 74.337929,38.214128 c -3.323,-1.1413 -4.291,-1.272 -5.4,-1.548 -5.614,-1.3693 -6.292,-0.276 -6.959,2.0267 -0.953,3.2546 -1.155,5.1306 5.031,6.2973 4.693,0.8853 8.052,2.224 8.052,2.224 1.485,1.1293 4.975,2.004 5.819,1.6613 1.421,-0.584 1.124,-0.516 2.062,-1.62 1.739,-2.0373 1.296,-3.156 0.558,-4.084 -0.746,-0.9266 -1.626,-1.468 -4.152,-2.708 -1.954,-0.9586 -5.011,-2.2493 -5.011,-2.2493"
     id="path808" />
  <path
     style="fill:none;stroke:#231f20;stroke-width:0.565977;stroke-linecap:butt;stroke-linejoin:miter;stroke-miterlimit:4;stroke-dasharray:none;stroke-opacity:1"
     d="m 74.337929,38.214128 c -3.323,-1.1413 -4.291,-1.272 -5.4,-1.548 -5.614,-1.3693 -6.292,-0.276 -6.959,2.0267 -0.953,3.2546 -1.155,5.1306 5.031,6.2973 4.693,0.8853 8.052,2.224 8.052,2.224 1.485,1.1293 4.975,2.004 5.819,1.6613 1.421,-0.584 1.124,-0.516 2.062,-1.62 1.739,-2.0373 1.296,-3.156 0.558,-4.084 -0.746,-0.9266 -1.626,-1.468 -4.152,-2.708 -1.954,-0.9586 -5.011,-2.2493 -5.011,-2.2493 z"
     id="path809" />
  <path
     style="fill:#231f20;fill-opacity:1;fill-rule:nonzero;stroke:none"
     d="m 62.599929,76.370428 c -1.058,-0.839 -0.762,-1.782 0.114,-2.339 0.26,-0.161 0.312,-0.579 0.583,-0.719 0.62,-0.328 2.27,0.255 2.13,1.744 -0.01,0.11 0.167,0.912 0.203,1.527 0.079,1.208 -0.37,3.667 -2.599,5.188 -1.052,0.719 -1.281,-0.037 -0.942,-0.459 1.073,-1.333 0.906,-1.661 1.063,-2.109 0.53,-1.537 -0.552,-2.833 -0.552,-2.833"
     id="path810" />
  <path
     style="fill:none;stroke:#231f20;stroke-width:0.332927;stroke-linecap:butt;stroke-linejoin:miter;stroke-miterlimit:4;stroke-dasharray:none;stroke-opacity:1"
     d="m 62.599929,76.370428 c -1.058,-0.839 -0.762,-1.782 0.114,-2.339 0.26,-0.161 0.312,-0.579 0.583,-0.719 0.62,-0.328 2.27,0.255 2.13,1.744 -0.01,0.11 0.167,0.912 0.203,1.527 0.079,1.208 -0.37,3.667 -2.599,5.188 -1.052,0.719 -1.281,-0.037 -0.942,-0.459 1.073,-1.333 0.906,-1.661 1.063,-2.109 0.53,-1.537 -0.552,-2.833 -0.552,-2.833 z"
     id="path811" />
  <path
     style="fill:#231f20;fill-opacity:1;fill-rule:nonzero;stroke:none"
     d="m 64.566929,57.723428 c -2.238,-0.3333 -2.724,-0.0933 -2.926,0.844 -0.136,0.62 -0.474,1.152 -0.579,1.5267 -0.338,1.2546 -0.385,3.4999 1.136,9.9053 0.344,1.453 0.817,3.491 0.943,4.344 0.197,1.339 2.292,0.099 2.218,-0.427 -0.229,-1.698 -0.249,-2.885 -0.254,-3.505 0,-0.427 -0.1,-1.188 0.109,-2.833 0.328,-2.511 0.896,-3.9644 0.921,-6.0737 0.011,-0.984 0.646,-1.7133 0.167,-2.6866 -0.479,-0.9747 -1.735,-1.0947 -1.735,-1.0947"
     id="path812" />
  <path
     style="fill:none;stroke:#231f20;stroke-width:0.565977;stroke-linecap:butt;stroke-linejoin:miter;stroke-miterlimit:4;stroke-dasharray:none;stroke-opacity:1"
     d="m 64.566929,57.723428 c -2.238,-0.3333 -2.724,-0.0933 -2.926,0.844 -0.136,0.62 -0.474,1.152 -0.579,1.5267 -0.338,1.2546 -0.385,3.4999 1.136,9.9053 0.344,1.453 0.817,3.491 0.943,4.344 0.197,1.339 2.292,0.099 2.218,-0.427 -0.229,-1.698 -0.249,-2.885 -0.254,-3.505 0,-0.427 -0.1,-1.188 0.109,-2.833 0.328,-2.511 0.896,-3.9644 0.921,-6.0737 0.011,-0.984 0.646,-1.7133 0.167,-2.6866 -0.479,-0.9747 -1.735,-1.0947 -1.735,-1.0947 z"
     id="path813" />
  <path
     style="fill:#ffffff;fill-opacity:1;fill-rule:nonzero;stroke:none"
     d="m 88.812929,51.094128 c 0.234,0.0626 0.249,1.208 0.77,1.2386 0.527,0.032 0.771,-0.7133 2.62,-1.448 l 0.02,-0.0093 c 1.371,-0.4893 2.36,-1.4693 2.538,-2.704 0.296,-2.0573 -1.724,-4.0573 -4.516,-4.4626 -2.798,-0.4067 -5.307,0.932 -5.604,2.9893 -0.287,1.964 1.557,3.88 4.172,4.396"
     id="path814" />
  <path
     style="fill:none;stroke:#231f20;stroke-width:0.565977;stroke-linecap:butt;stroke-linejoin:miter;stroke-miterlimit:4;stroke-dasharray:none;stroke-opacity:1"
     d="m 88.812929,51.094128 c 0.234,0.0626 0.249,1.208 0.77,1.2386 0.527,0.032 0.771,-0.7133 2.62,-1.448 l 0.02,-0.0093 c 1.371,-0.4893 2.36,-1.4693 2.538,-2.704 0.296,-2.0573 -1.724,-4.0573 -4.516,-4.4626 -2.798,-0.4067 -5.307,0.932 -5.604,2.9893 -0.287,1.964 1.557,3.88 4.172,4.396 z"
     id="path815" />
  <path
     style="fill:#231f20;fill-opacity:1;fill-rule:nonzero;stroke:none"
     d="m 63.651929,60.026128 c 3.901,0.9266 2.967,-3.0467 3.082,-3.5107 1.183,-4.8693 1.147,-5.2493 1.787,-9.016 0.926,-5.452 0.724,-9.3226 -2.287,-10.7906 -2.041,-0.9947 -3.645,-0.6827 -4.62,0.208 -1.078,0.984 -2.171,3.968 -0.411,6.26 l 0.178,1.704 c -0.038,1.1613 -0.043,1.7386 -0.1,2.312 -0.11,0.9946 -0.156,2.0679 -0.255,4.0253 -0.178,3.464 0.776,7.188 0.776,7.188 -0.031,1.2453 1.85,1.62 1.85,1.62"
     id="path816" />
  <path
     style="fill:none;stroke:#231f20;stroke-width:0.565977;stroke-linecap:butt;stroke-linejoin:miter;stroke-miterlimit:4;stroke-dasharray:none;stroke-opacity:1"
     d="m 63.651929,60.026128 c 3.901,0.9266 2.967,-3.0467 3.082,-3.5107 1.183,-4.8693 1.147,-5.2493 1.787,-9.016 0.926,-5.452 0.724,-9.3226 -2.287,-10.7906 -2.041,-0.9947 -3.645,-0.6827 -4.62,0.208 -1.078,0.984 -2.171,3.968 -0.411,6.26 l 0.178,1.704 c -0.038,1.1613 -0.043,1.7386 -0.1,2.312 -0.11,0.9946 -0.156,2.0679 -0.255,4.0253 -0.178,3.464 0.776,7.188 0.776,7.188 -0.031,1.2453 1.85,1.62 1.85,1.62 z"
     id="path817" />
  <path
     style="fill:#ca0369;fill-opacity:1;fill-rule:nonzero;stroke:none"
     d="m 66.233929,36.708828 c -2.041,-0.9947 -3.645,-0.6827 -4.62,0.208 -1.078,0.984 -2.171,3.968 -0.411,6.26 l 7.735,1.0986 c 0.302,-3.7493 -0.324,-6.4053 -2.704,-7.5666"
     id="path818" />
  <path
     style="fill:none;stroke:#231f20;stroke-width:0.565977;stroke-linecap:butt;stroke-linejoin:miter;stroke-miterlimit:4;stroke-dasharray:none;stroke-opacity:1"
     d="m 66.233929,36.708828 c -2.041,-0.9947 -3.645,-0.6827 -4.62,0.208 -1.078,0.984 -2.171,3.968 -0.411,6.26 l 7.735,1.0986 c 0.302,-3.7493 -0.324,-6.4053 -2.704,-7.5666 z"
     id="path819" />
  <path
     style="fill:#231f20;fill-opacity:1;fill-rule:nonzero;stroke:none"
     d="m 72.285929,52.572728 c -0.391,-0.516 -0.255,-2.4586 -0.765,-3.984 -0.35,-1.0266 -0.094,-3.7599 -0.511,-4.7559 -0.385,-0.9214 -0.479,-1.3747 0.495,-1.9947 0.568,-0.3693 1.917,-0.7027 2.214,-0.2867 0.682,0.9694 0.886,1.8907 0.891,2.964 0.004,1.2134 -0.277,4.516 -0.387,5.1147 -0.27,1.5 0.079,2.1506 0.043,2.5573 -0.063,0.7547 -0.371,0.9213 -0.871,0.984 -0.948,0.1253 -1.109,-0.5987 -1.109,-0.5987"
     id="path820" />
  <path
     style="fill:none;stroke:#231f20;stroke-width:0.565977;stroke-linecap:butt;stroke-linejoin:miter;stroke-miterlimit:4;stroke-dasharray:none;stroke-opacity:1"
     d="m 72.285929,52.572728 c -0.391,-0.516 -0.255,-2.4586 -0.765,-3.984 -0.35,-1.0266 -0.094,-3.7599 -0.511,-4.7559 -0.385,-0.9214 -0.479,-1.3747 0.495,-1.9947 0.568,-0.3693 1.917,-0.7027 2.214,-0.2867 0.682,0.9694 0.886,1.8907 0.891,2.964 0.004,1.2134 -0.277,4.516 -0.387,5.1147 -0.27,1.5 0.079,2.1506 0.043,2.5573 -0.063,0.7547 -0.371,0.9213 -0.871,0.984 -0.948,0.1253 -1.109,-0.5987 -1.109,-0.5987 z"
     id="path821" />
  <path
     style="fill:#231f20;fill-opacity:1;fill-rule:nonzero;stroke:none"
     d="m 70.968929,42.099428 c 0.229,-1.276 2.136,-0.5573 2.661,-0.4426 0.532,0.1146 2.084,0.2653 3.303,0.228 1.224,-0.036 2.77,0.444 5.093,0.376 1.224,-0.0374 2.437,0.7026 2.412,2.4786 -0.027,1.756 -1.027,2.4014 -2.511,2.224 -1.484,-0.1826 -2.802,-0.9786 -4.292,-1.2653 -1.478,-0.292 -3.021,-0.4427 -4.229,-0.5053 -1.385,-0.0734 -2.041,-0.62 -2.203,-1.068 -0.412,-1.1254 -0.234,-2.0254 -0.234,-2.0254"
     id="path822" />
  <path
     style="fill:none;stroke:#231f20;stroke-width:0.565977;stroke-linecap:butt;stroke-linejoin:miter;stroke-miterlimit:4;stroke-dasharray:none;stroke-opacity:1"
     d="m 70.968929,42.099428 c 0.229,-1.276 2.136,-0.5573 2.661,-0.4426 0.532,0.1146 2.084,0.2653 3.303,0.228 1.224,-0.036 2.77,0.444 5.093,0.376 1.224,-0.0374 2.437,0.7026 2.412,2.4786 -0.027,1.756 -1.027,2.4014 -2.511,2.224 -1.484,-0.1826 -2.802,-0.9786 -4.292,-1.2653 -1.478,-0.292 -3.021,-0.4427 -4.229,-0.5053 -1.385,-0.0734 -2.041,-0.62 -2.203,-1.068 -0.412,-1.1254 -0.234,-2.0254 -0.234,-2.0254 z"
     id="path823" />
  <path
     style="fill:#ffffff;fill-opacity:1;fill-rule:nonzero;stroke:#231f20;stroke-width:0.665856;stroke-linecap:butt;stroke-linejoin:miter;stroke-miterlimit:4;stroke-dasharray:none;stroke-opacity:1"
     d="m 73.151929,44.510128 h 1.333 v -43.6608 h -1.333 z"
     id="path824" />
  <path
     style="fill:#ffffff;fill-opacity:1;fill-rule:nonzero;stroke:none"
     d="m 69.957929,49.447428 c 0,-2.3533 1.917,-4.2706 4.271,-4.2706 2.354,0 4.266,1.9173 4.266,4.2706 0,2.3547 -1.912,4.2667 -4.266,4.2667 -2.354,0 -4.271,-1.912 -4.271,-4.2667 m -1.333,0 c 0,3.0893 2.516,5.6 5.604,5.6 3.084,0 5.6,-2.5107 5.6,-5.6 0,-3.088 -2.516,-5.5986 -5.6,-5.5986 -3.088,0 -5.604,2.5106 -5.604,5.5986"
     id="path825" />
  <path
     style="fill:none;stroke:#231f20;stroke-width:0.665856;stroke-linecap:butt;stroke-linejoin:miter;stroke-miterlimit:4;stroke-dasharray:none;stroke-opacity:1"
     d="m 69.957929,49.447428 c 0,-2.3533 1.917,-4.2706 4.271,-4.2706 2.354,0 4.266,1.9173 4.266,4.2706 0,2.3547 -1.912,4.2667 -4.266,4.2667 -2.354,0 -4.271,-1.912 -4.271,-4.2667 z m -1.333,0 c 0,3.0893 2.516,5.6 5.604,5.6 3.084,0 5.6,-2.5107 5.6,-5.6 0,-3.088 -2.516,-5.5986 -5.6,-5.5986 -3.088,0 -5.604,2.5106 -5.604,5.5986 z"
     id="path826" />
  <path
     style="fill:#231f20;fill-opacity:1;fill-rule:nonzero;stroke:none"
     d="m 74.593929,52.375428 c 0.646,0.2707 0.817,2.5773 0.525,2.7027 -0.29,0.1253 -0.265,-0.64 -0.598,-0.516 -0.334,0.1253 -0.276,0.6253 -0.506,0.6413 -0.249,0.0253 -0.229,-0.584 -0.514,-0.4947 -0.126,0.036 -0.355,0.5827 -0.548,0.5414 -0.162,-0.036 -0.348,-0.5214 -0.479,-0.5627 -0.203,-0.0573 -0.281,0.5573 -0.459,0.5267 -0.453,-0.084 0.235,-2.7094 0.449,-2.8187 0.317,-0.1613 1.089,-0.4533 2.13,-0.02"
     id="path827" />
  <path
     style="fill:none;stroke:#231f20;stroke-width:0.565977;stroke-linecap:round;stroke-linejoin:round;stroke-miterlimit:4;stroke-dasharray:none;stroke-opacity:1"
     d="m 74.593929,52.375428 c 0.646,0.2707 0.817,2.5773 0.525,2.7027 -0.29,0.1253 -0.265,-0.64 -0.598,-0.516 -0.334,0.1253 -0.276,0.6253 -0.506,0.6413 -0.249,0.0253 -0.229,-0.584 -0.514,-0.4947 -0.126,0.036 -0.355,0.5827 -0.548,0.5414 -0.162,-0.036 -0.348,-0.5214 -0.479,-0.5627 -0.203,-0.0573 -0.281,0.5573 -0.459,0.5267 -0.453,-0.084 0.235,-2.7094 0.449,-2.8187 0.317,-0.1613 1.089,-0.4533 2.13,-0.02 z"
     id="path828" />
  <path
     style="fill:#ca0369;fill-opacity:1;fill-rule:nonzero;stroke:none"
     d="m 168.61393,35.400828 c -0.219,-3.5 -0.468,-4.448 -0.64,-5.5773 -0.88,-5.7147 -2.156,-5.9174 -4.536,-5.6574 -3.371,0.3707 -5.178,0.896 -3.891,7.0627 0.979,4.672 1.031,8.2866 1.031,8.2866 -0.474,1.808 0.046,5.3654 0.693,6.0107 1.083,1.0933 0.905,0.844 2.281,1.2867 2.552,0.8226 3.416,-0.0054 3.984,-1.0467 0.574,-1.0427 0.74,-2.0627 0.916,-4.8707 0.142,-2.176 0.162,-5.4946 0.162,-5.4946"
     id="path829" />
  <path
     style="fill:none;stroke:#231f20;stroke-width:0.565977;stroke-linecap:butt;stroke-linejoin:miter;stroke-miterlimit:4;stroke-dasharray:none;stroke-opacity:1"
     d="m 168.61393,35.400828 c -0.219,-3.5 -0.468,-4.448 -0.64,-5.5773 -0.88,-5.7147 -2.156,-5.9174 -4.536,-5.6574 -3.371,0.3707 -5.178,0.896 -3.891,7.0627 0.979,4.672 1.031,8.2866 1.031,8.2866 -0.474,1.808 0.046,5.3654 0.693,6.0107 1.083,1.0933 0.905,0.844 2.281,1.2867 2.552,0.8226 3.416,-0.0054 3.984,-1.0467 0.574,-1.0427 0.74,-2.0627 0.916,-4.8707 0.142,-2.176 0.162,-5.4946 0.162,-5.4946 z"
     id="path830" />
  <path
     style="fill:#231f20;fill-opacity:1;fill-rule:nonzero;stroke:none"
     d="m 126.79693,28.984828 c 0.718,-1.1467 1.688,-0.9533 2.333,-0.1467 0.193,0.2454 0.609,0.2507 0.781,0.5 0.396,0.584 -0.005,2.2867 -1.5,2.3134 -0.114,0 -0.89,0.2653 -1.494,0.364 -1.198,0.208 -3.688,0.032 -5.443,-2.016 -0.828,-0.9734 -0.104,-1.28 0.36,-0.9894 1.437,0.9227 1.744,0.7187 2.208,0.828 1.583,0.36 2.755,-0.8533 2.755,-0.8533"
     id="path831" />
  <path
     style="fill:none;stroke:#231f20;stroke-width:0.332927;stroke-linecap:butt;stroke-linejoin:miter;stroke-miterlimit:4;stroke-dasharray:none;stroke-opacity:1"
     d="m 126.79693,28.984828 c 0.718,-1.1467 1.688,-0.9533 2.333,-0.1467 0.193,0.2454 0.609,0.2507 0.781,0.5 0.396,0.584 -0.005,2.2867 -1.5,2.3134 -0.114,0 -0.89,0.2653 -1.494,0.364 -1.198,0.208 -3.688,0.032 -5.443,-2.016 -0.828,-0.9734 -0.104,-1.28 0.36,-0.9894 1.437,0.9227 1.744,0.7187 2.208,0.828 1.583,0.36 2.755,-0.8533 2.755,-0.8533 z"
     id="path832" />
  <path
     style="fill:#231f20;fill-opacity:1;fill-rule:nonzero;stroke:none"
     d="m 145.54693,28.916828 c 0.088,-2.2653 -0.199,-2.7187 -1.157,-2.8227 -0.629,-0.068 -1.197,-0.344 -1.583,-0.4066 -1.281,-0.1974 -3.516,-0.0054 -9.718,2.2026 -1.412,0.5 -3.386,1.1934 -4.214,1.4067 -1.313,0.344 0.146,2.292 0.662,2.1613 1.661,-0.4106 2.838,-0.5626 3.458,-0.6346 0.422,-0.0427 1.162,-0.2294 2.828,-0.1934 2.526,0.052 4.036,0.4587 6.135,0.2547 0.98,-0.0933 1.776,0.4533 2.688,-0.124 0.916,-0.584 0.901,-1.844 0.901,-1.844"
     id="path833" />
  <path
     style="fill:none;stroke:#231f20;stroke-width:0.565977;stroke-linecap:butt;stroke-linejoin:miter;stroke-miterlimit:4;stroke-dasharray:none;stroke-opacity:1"
     d="m 145.54693,28.916828 c 0.088,-2.2653 -0.199,-2.7187 -1.157,-2.8227 -0.629,-0.068 -1.197,-0.344 -1.583,-0.4066 -1.281,-0.1974 -3.516,-0.0054 -9.718,2.2026 -1.412,0.5 -3.386,1.1934 -4.214,1.4067 -1.313,0.344 0.146,2.292 0.662,2.1613 1.661,-0.4106 2.838,-0.5626 3.458,-0.6346 0.422,-0.0427 1.162,-0.2294 2.828,-0.1934 2.526,0.052 4.036,0.4587 6.135,0.2547 0.98,-0.0933 1.776,0.4533 2.688,-0.124 0.916,-0.584 0.901,-1.844 0.901,-1.844 z"
     id="path834" />
  <path
     style="fill:#ffffff;fill-opacity:1;fill-rule:nonzero;stroke:none"
     d="m 162.25493,53.703428 c 0.036,0.244 -1.021,0.6973 -0.849,1.192 0.172,0.4947 0.953,0.4373 2.338,1.8653 l 0.022,0.0147 c 0.973,1.0733 2.254,1.6147 3.468,1.308 2.016,-0.516 3.084,-3.1453 2.39,-5.88 -0.692,-2.74 -2.89,-4.5467 -4.901,-4.032 -1.927,0.4853 -2.989,2.9227 -2.468,5.532"
     id="path835" />
  <path
     style="fill:none;stroke:#231f20;stroke-width:0.565977;stroke-linecap:butt;stroke-linejoin:miter;stroke-miterlimit:4;stroke-dasharray:none;stroke-opacity:1"
     d="m 162.25493,53.703428 c 0.036,0.244 -1.021,0.6973 -0.849,1.192 0.172,0.4947 0.953,0.4373 2.338,1.8653 l 0.022,0.0147 c 0.973,1.0733 2.254,1.6147 3.468,1.308 2.016,-0.516 3.084,-3.1453 2.39,-5.88 -0.692,-2.74 -2.89,-4.5467 -4.901,-4.032 -1.927,0.4853 -2.989,2.9227 -2.468,5.532 z"
     id="path836" />
  <path
     style="fill:#231f20;fill-opacity:1;fill-rule:nonzero;stroke:none"
     d="m 143.16193,28.250128 c -0.5,3.984 3.348,2.6254 3.822,2.688 4.963,0.6507 5.344,0.572 9.156,0.796 5.516,0.3334 9.35,-0.2866 10.479,-3.4373 0.767,-2.14 0.281,-3.7027 -0.708,-4.5733 -1.093,-0.968 -4.183,-1.728 -6.265,0.2666 l -1.678,0.364 c -1.156,0.088 -1.734,0.1454 -2.306,0.1507 -1.006,0 -2.074,0.068 -4.032,0.1827 -3.463,0.2026 -7.063,1.552 -7.063,1.552 -1.238,0.104 -1.405,2.0106 -1.405,2.0106"
     id="path837" />
  <path
     style="fill:none;stroke:#231f20;stroke-width:0.565977;stroke-linecap:butt;stroke-linejoin:miter;stroke-miterlimit:4;stroke-dasharray:none;stroke-opacity:1"
     d="m 143.16193,28.250128 c -0.5,3.984 3.348,2.6254 3.822,2.688 4.963,0.6507 5.344,0.572 9.156,0.796 5.516,0.3334 9.35,-0.2866 10.479,-3.4373 0.767,-2.14 0.281,-3.7027 -0.708,-4.5733 -1.093,-0.968 -4.183,-1.728 -6.265,0.2666 l -1.678,0.364 c -1.156,0.088 -1.734,0.1454 -2.306,0.1507 -1.006,0 -2.074,0.068 -4.032,0.1827 -3.463,0.2026 -7.063,1.552 -7.063,1.552 -1.238,0.104 -1.405,2.0106 -1.405,2.0106 z"
     id="path838" />
  <path
     style="fill:#ca0369;fill-opacity:1;fill-rule:nonzero;stroke:none"
     d="m 165.91093,23.719528 c -1.093,-0.9587 -4.183,-1.724 -6.265,0.276 l -0.256,7.8066 c 3.761,-0.104 6.333,-1.016 7.229,-3.5053 0.767,-2.14 0.281,-3.7027 -0.708,-4.5773"
     id="path839" />
  <path
     style="fill:none;stroke:#231f20;stroke-width:0.565977;stroke-linecap:butt;stroke-linejoin:miter;stroke-miterlimit:4;stroke-dasharray:none;stroke-opacity:1"
     d="m 165.91093,23.719528 c -1.093,-0.9587 -4.183,-1.724 -6.265,0.276 l -0.256,7.8066 c 3.761,-0.104 6.333,-1.016 7.229,-3.5053 0.767,-2.14 0.281,-3.7027 -0.708,-4.5773 z"
     id="path840" />
  <path
     style="fill:#231f20;fill-opacity:1;fill-rule:nonzero;stroke:none"
     d="m 155.79093,52.572728 c -0.385,-0.516 -0.249,-2.4586 -0.765,-3.984 -0.35,-1.0266 -0.088,-3.7599 -0.511,-4.7559 -0.385,-0.9214 -0.479,-1.3747 0.495,-1.9947 0.573,-0.3693 1.917,-0.7027 2.213,-0.2867 0.688,0.9694 0.891,1.8907 0.896,2.964 0,1.2134 -0.276,4.516 -0.385,5.1147 -0.271,1.5 0.073,2.1506 0.037,2.5573 -0.063,0.7547 -0.365,0.9213 -0.865,0.984 -0.954,0.1253 -1.115,-0.5987 -1.115,-0.5987"
     id="path841" />
  <path
     style="fill:none;stroke:#231f20;stroke-width:0.565977;stroke-linecap:butt;stroke-linejoin:miter;stroke-miterlimit:4;stroke-dasharray:none;stroke-opacity:1"
     d="m 155.79093,52.572728 c -0.385,-0.516 -0.249,-2.4586 -0.765,-3.984 -0.35,-1.0266 -0.088,-3.7599 -0.511,-4.7559 -0.385,-0.9214 -0.479,-1.3747 0.495,-1.9947 0.573,-0.3693 1.917,-0.7027 2.213,-0.2867 0.688,0.9694 0.891,1.8907 0.896,2.964 0,1.2134 -0.276,4.516 -0.385,5.1147 -0.271,1.5 0.073,2.1506 0.037,2.5573 -0.063,0.7547 -0.365,0.9213 -0.865,0.984 -0.954,0.1253 -1.115,-0.5987 -1.115,-0.5987 z"
     id="path842" />
  <path
     style="fill:#231f20;fill-opacity:1;fill-rule:nonzero;stroke:none"
     d="m 154.47393,42.099428 c 0.229,-1.276 2.136,-0.5573 2.666,-0.4426 0.531,0.1146 2.079,0.2653 3.303,0.228 1.223,-0.036 2.765,0.444 5.093,0.376 1.219,-0.0374 2.432,0.7026 2.407,2.4786 -0.027,1.756 -1.021,2.4014 -2.505,2.224 -1.486,-0.1826 -2.808,-0.9786 -4.292,-1.2653 -1.48,-0.292 -3.022,-0.4427 -4.235,-0.5053 -1.38,-0.0734 -2.036,-0.62 -2.197,-1.068 -0.412,-1.1254 -0.24,-2.0254 -0.24,-2.0254"
     id="path843" />
  <path
     style="fill:none;stroke:#231f20;stroke-width:0.565977;stroke-linecap:butt;stroke-linejoin:miter;stroke-miterlimit:4;stroke-dasharray:none;stroke-opacity:1"
     d="m 154.47393,42.099428 c 0.229,-1.276 2.136,-0.5573 2.666,-0.4426 0.531,0.1146 2.079,0.2653 3.303,0.228 1.223,-0.036 2.765,0.444 5.093,0.376 1.219,-0.0374 2.432,0.7026 2.407,2.4786 -0.027,1.756 -1.021,2.4014 -2.505,2.224 -1.486,-0.1826 -2.808,-0.9786 -4.292,-1.2653 -1.48,-0.292 -3.022,-0.4427 -4.235,-0.5053 -1.38,-0.0734 -2.036,-0.62 -2.197,-1.068 -0.412,-1.1254 -0.24,-2.0254 -0.24,-2.0254 z"
     id="path844" />
  <path
     style="fill:#ffffff;fill-opacity:1;fill-rule:nonzero;stroke:#231f20;stroke-width:0.665856;stroke-linecap:butt;stroke-linejoin:miter;stroke-miterlimit:4;stroke-dasharray:none;stroke-opacity:1"
     d="m 156.66193,44.510128 h 1.328 v -43.6608 h -1.328 z"
     id="path845" />
  <path
     style="fill:#ffffff;fill-opacity:1;fill-rule:nonzero;stroke:none"
     d="m 153.46293,49.447428 c 0,-2.3533 1.917,-4.2706 4.271,-4.2706 2.354,0 4.27,1.9173 4.27,4.2706 0,2.3547 -1.916,4.2667 -4.27,4.2667 -2.354,0 -4.271,-1.912 -4.271,-4.2667 m -1.328,0 c 0,3.0893 2.511,5.6 5.599,5.6 3.089,0 5.598,-2.5107 5.598,-5.6 0,-3.088 -2.509,-5.5986 -5.598,-5.5986 -3.088,0 -5.599,2.5106 -5.599,5.5986"
     id="path846" />
  <path
     style="fill:none;stroke:#231f20;stroke-width:0.665856;stroke-linecap:butt;stroke-linejoin:miter;stroke-miterlimit:4;stroke-dasharray:none;stroke-opacity:1"
     d="m 153.46293,49.447428 c 0,-2.3533 1.917,-4.2706 4.271,-4.2706 2.354,0 4.27,1.9173 4.27,4.2706 0,2.3547 -1.916,4.2667 -4.27,4.2667 -2.354,0 -4.271,-1.912 -4.271,-4.2667 z m -1.328,0 c 0,3.0893 2.511,5.6 5.599,5.6 3.089,0 5.598,-2.5107 5.598,-5.6 0,-3.088 -2.509,-5.5986 -5.598,-5.5986 -3.088,0 -5.599,2.5106 -5.599,5.5986 z"
     id="path847" />
  <path
     style="fill:#231f20;fill-opacity:1;fill-rule:nonzero;stroke:none"
     d="m 158.09893,52.375428 c 0.645,0.2707 0.823,2.5773 0.531,2.7027 -0.298,0.1253 -0.271,-0.64 -0.604,-0.516 -0.334,0.1253 -0.271,0.6253 -0.5,0.6413 -0.25,0.0253 -0.23,-0.584 -0.522,-0.4947 -0.124,0.036 -0.353,0.5827 -0.541,0.5414 -0.167,-0.036 -0.349,-0.5214 -0.479,-0.5627 -0.208,-0.0573 -0.281,0.5573 -0.458,0.5267 -0.459,-0.084 0.234,-2.7094 0.442,-2.8187 0.323,-0.1613 1.088,-0.4533 2.131,-0.02"
     id="path848" />
  <path
     style="fill:none;stroke:#231f20;stroke-width:0.565977;stroke-linecap:round;stroke-linejoin:round;stroke-miterlimit:4;stroke-dasharray:none;stroke-opacity:1"
     d="m 158.09893,52.375428 c 0.645,0.2707 0.823,2.5773 0.531,2.7027 -0.298,0.1253 -0.271,-0.64 -0.604,-0.516 -0.334,0.1253 -0.271,0.6253 -0.5,0.6413 -0.25,0.0253 -0.23,-0.584 -0.522,-0.4947 -0.124,0.036 -0.353,0.5827 -0.541,0.5414 -0.167,-0.036 -0.349,-0.5214 -0.479,-0.5627 -0.208,-0.0573 -0.281,0.5573 -0.458,0.5267 -0.459,-0.084 0.234,-2.7094 0.442,-2.8187 0.323,-0.1613 1.088,-0.4533 2.131,-0.02 z"
     id="path849" />
  <path
     style="fill:#ca0369;fill-opacity:1;fill-rule:nonzero;stroke:none"
     d="m 243.95793,35.400828 c -0.219,-3.5 -0.468,-4.448 -0.64,-5.5773 -0.88,-5.7147 -2.156,-5.9174 -4.538,-5.6574 -3.369,0.3707 -5.181,0.896 -3.89,7.0627 0.98,4.672 1.032,8.2866 1.032,8.2866 -0.479,1.808 0.046,5.3654 0.688,6.0107 1.088,1.0933 0.91,0.844 2.285,1.2867 2.548,0.8226 3.412,-0.0054 3.985,-1.0467 0.572,-1.0427 0.739,-2.0627 0.916,-4.8707 0.136,-2.176 0.162,-5.4946 0.162,-5.4946"
     id="path850" />
  <path
     style="fill:none;stroke:#231f20;stroke-width:0.565977;stroke-linecap:butt;stroke-linejoin:miter;stroke-miterlimit:4;stroke-dasharray:none;stroke-opacity:1"
     d="m 243.95793,35.400828 c -0.219,-3.5 -0.468,-4.448 -0.64,-5.5773 -0.88,-5.7147 -2.156,-5.9174 -4.538,-5.6574 -3.369,0.3707 -5.181,0.896 -3.89,7.0627 0.98,4.672 1.032,8.2866 1.032,8.2866 -0.479,1.808 0.046,5.3654 0.688,6.0107 1.088,1.0933 0.91,0.844 2.285,1.2867 2.548,0.8226 3.412,-0.0054 3.985,-1.0467 0.572,-1.0427 0.739,-2.0627 0.916,-4.8707 0.136,-2.176 0.162,-5.4946 0.162,-5.4946 z"
     id="path851" />
  <path
     style="fill:#231f20;fill-opacity:1;fill-rule:nonzero;stroke:none"
     d="m 209.36393,4.734228 c 1.292,-0.396 1.902,0.3853 1.855,1.4227 -0.016,0.312 0.296,0.5933 0.26,0.8906 -0.084,0.6973 -1.505,1.7187 -2.651,0.7547 -0.089,-0.0734 -0.844,-0.3853 -1.37,-0.7027 -1.036,-0.6306 -2.796,-2.4013 -2.776,-5.0946 0.01,-1.2814 0.765,-1.036 0.917,-0.5147 0.484,1.64 0.848,1.692 1.129,2.0773 0.954,1.3134 2.636,1.1667 2.636,1.1667"
     id="path852" />
  <path
     style="fill:none;stroke:#231f20;stroke-width:0.332927;stroke-linecap:butt;stroke-linejoin:miter;stroke-miterlimit:4;stroke-dasharray:none;stroke-opacity:1"
     d="m 209.36393,4.734228 c 1.292,-0.396 1.902,0.3853 1.855,1.4227 -0.016,0.312 0.296,0.5933 0.26,0.8906 -0.084,0.6973 -1.505,1.7187 -2.651,0.7547 -0.089,-0.0734 -0.844,-0.3853 -1.37,-0.7027 -1.036,-0.6306 -2.796,-2.4013 -2.776,-5.0946 0.01,-1.2814 0.765,-1.036 0.917,-0.5147 0.484,1.64 0.848,1.692 1.129,2.0773 0.954,1.3134 2.636,1.1667 2.636,1.1667 z"
     id="path853" />
  <path
     style="fill:#231f20;fill-opacity:1;fill-rule:nonzero;stroke:none"
     d="m 223.54693,16.990228 c 1.552,-1.6467 1.64,-2.1774 0.979,-2.8814 -0.427,-0.468 -0.672,-1.0466 -0.922,-1.348 -0.838,-0.9946 -2.652,-2.3133 -8.776,-4.724 -1.396,-0.5466 -3.338,-1.3173 -4.105,-1.7039 -1.213,-0.604 -1.391,1.8239 -0.916,2.0626 1.521,0.7867 2.511,1.4427 3.021,1.792 0.348,0.2507 1.031,0.5933 2.26,1.7133 1.875,1.6987 2.746,2.9947 4.464,4.224 0.796,0.568 1.036,1.5054 2.104,1.6667 1.078,0.1667 1.891,-0.8013 1.891,-0.8013"
     id="path854" />
  <path
     style="fill:none;stroke:#231f20;stroke-width:0.565977;stroke-linecap:butt;stroke-linejoin:miter;stroke-miterlimit:4;stroke-dasharray:none;stroke-opacity:1"
     d="m 223.54693,16.990228 c 1.552,-1.6467 1.64,-2.1774 0.979,-2.8814 -0.427,-0.468 -0.672,-1.0466 -0.922,-1.348 -0.838,-0.9946 -2.652,-2.3133 -8.776,-4.724 -1.396,-0.5466 -3.338,-1.3173 -4.105,-1.7039 -1.213,-0.604 -1.391,1.8239 -0.916,2.0626 1.521,0.7867 2.511,1.4427 3.021,1.792 0.348,0.2507 1.031,0.5933 2.26,1.7133 1.875,1.6987 2.746,2.9947 4.464,4.224 0.796,0.568 1.036,1.5054 2.104,1.6667 1.078,0.1667 1.891,-0.8013 1.891,-0.8013 z"
     id="path855" />
  <path
     style="fill:#ffffff;fill-opacity:1;fill-rule:nonzero;stroke:none"
     d="m 237.59893,53.703428 c 0.031,0.244 -1.021,0.6973 -0.849,1.192 0.166,0.4947 0.953,0.4373 2.338,1.8653 l 0.016,0.0147 c 0.974,1.0733 2.26,1.6147 3.468,1.308 2.016,-0.516 3.09,-3.1453 2.396,-5.88 -0.692,-2.74 -2.89,-4.5467 -4.901,-4.032 -1.927,0.4853 -2.995,2.9227 -2.468,5.532"
     id="path856" />
  <path
     style="fill:none;stroke:#231f20;stroke-width:0.565977;stroke-linecap:butt;stroke-linejoin:miter;stroke-miterlimit:4;stroke-dasharray:none;stroke-opacity:1"
     d="m 237.59893,53.703428 c 0.031,0.244 -1.021,0.6973 -0.849,1.192 0.166,0.4947 0.953,0.4373 2.338,1.8653 l 0.016,0.0147 c 0.974,1.0733 2.26,1.6147 3.468,1.308 2.016,-0.516 3.09,-3.1453 2.396,-5.88 -0.692,-2.74 -2.89,-4.5467 -4.901,-4.032 -1.927,0.4853 -2.995,2.9227 -2.468,5.532 z"
     id="path857" />
  <path
     style="fill:#231f20;fill-opacity:1;fill-rule:nonzero;stroke:none"
     d="m 222.18193,14.927528 c -2.99,2.672 0.808,4.1773 1.125,4.5307 3.317,3.7559 3.651,3.9426 6.38,6.6199 3.937,3.8747 7.24,5.9214 10.161,4.2867 1.98,-1.1147 2.642,-2.6093 2.47,-3.9173 -0.194,-1.4427 -2.022,-4.0467 -4.902,-3.9107 l -1.505,-0.828 c -0.932,-0.688 -1.401,-1.0266 -1.839,-1.4013 -0.754,-0.656 -1.609,-1.308 -3.161,-2.5053 -2.74,-2.1254 -6.344,-3.4694 -6.344,-3.4694 -1.005,-0.7333 -2.385,0.5947 -2.385,0.5947"
     id="path858" />
  <path
     style="fill:none;stroke:#231f20;stroke-width:0.565977;stroke-linecap:butt;stroke-linejoin:miter;stroke-miterlimit:4;stroke-dasharray:none;stroke-opacity:1"
     d="m 222.18193,14.927528 c -2.99,2.672 0.808,4.1773 1.125,4.5307 3.317,3.7559 3.651,3.9426 6.38,6.6199 3.937,3.8747 7.24,5.9214 10.161,4.2867 1.98,-1.1147 2.642,-2.6093 2.47,-3.9173 -0.194,-1.4427 -2.022,-4.0467 -4.902,-3.9107 l -1.505,-0.828 c -0.932,-0.688 -1.401,-1.0266 -1.839,-1.4013 -0.754,-0.656 -1.609,-1.308 -3.161,-2.5053 -2.74,-2.1254 -6.344,-3.4694 -6.344,-3.4694 -1.005,-0.7333 -2.385,0.5947 -2.385,0.5947 z"
     id="path859" />
  <path
     style="fill:#ca0369;fill-opacity:1;fill-rule:nonzero;stroke:none"
     d="m 242.31793,26.447528 c -0.194,-1.4427 -2.022,-4.0467 -4.907,-3.9107 l -5.317,5.724 c 2.905,2.3907 5.442,3.396 7.754,2.0987 1.98,-1.1094 2.642,-2.604 2.47,-3.912"
     id="path860" />
  <path
     style="fill:none;stroke:#231f20;stroke-width:0.565977;stroke-linecap:butt;stroke-linejoin:miter;stroke-miterlimit:4;stroke-dasharray:none;stroke-opacity:1"
     d="m 242.31793,26.447528 c -0.194,-1.4427 -2.022,-4.0467 -4.907,-3.9107 l -5.317,5.724 c 2.905,2.3907 5.442,3.396 7.754,2.0987 1.98,-1.1094 2.642,-2.604 2.47,-3.912 z"
     id="path861" />
  <path
     style="fill:#231f20;fill-opacity:1;fill-rule:nonzero;stroke:none"
     d="m 231.13493,52.572728 c -0.385,-0.516 -0.255,-2.4586 -0.765,-3.984 -0.35,-1.0266 -0.09,-3.7599 -0.511,-4.7559 -0.385,-0.9214 -0.479,-1.3747 0.495,-1.9947 0.573,-0.3693 1.917,-0.7027 2.213,-0.2867 0.688,0.9694 0.885,1.8907 0.891,2.964 0.005,1.2134 -0.271,4.516 -0.38,5.1147 -0.271,1.5 0.073,2.1506 0.036,2.5573 -0.062,0.7547 -0.364,0.9213 -0.87,0.984 -0.948,0.1253 -1.109,-0.5987 -1.109,-0.5987"
     id="path862" />
  <path
     style="fill:none;stroke:#231f20;stroke-width:0.565977;stroke-linecap:butt;stroke-linejoin:miter;stroke-miterlimit:4;stroke-dasharray:none;stroke-opacity:1"
     d="m 231.13493,52.572728 c -0.385,-0.516 -0.255,-2.4586 -0.765,-3.984 -0.35,-1.0266 -0.09,-3.7599 -0.511,-4.7559 -0.385,-0.9214 -0.479,-1.3747 0.495,-1.9947 0.573,-0.3693 1.917,-0.7027 2.213,-0.2867 0.688,0.9694 0.885,1.8907 0.891,2.964 0.005,1.2134 -0.271,4.516 -0.38,5.1147 -0.271,1.5 0.073,2.1506 0.036,2.5573 -0.062,0.7547 -0.364,0.9213 -0.87,0.984 -0.948,0.1253 -1.109,-0.5987 -1.109,-0.5987 z"
     id="path863" />
  <path
     style="fill:#231f20;fill-opacity:1;fill-rule:nonzero;stroke:none"
     d="m 229.81793,42.099428 c 0.229,-1.276 2.134,-0.5573 2.661,-0.4426 0.531,0.1146 2.083,0.2653 3.301,0.228 1.23,-0.036 2.772,0.444 5.095,0.376 1.224,-0.0374 2.437,0.7026 2.411,2.4786 -0.026,1.756 -1.026,2.4014 -2.51,2.224 -1.485,-0.1826 -2.802,-0.9786 -4.292,-1.2653 -1.48,-0.292 -3.021,-0.4427 -4.229,-0.5053 -1.38,-0.0734 -2.036,-0.62 -2.199,-1.068 -0.41,-1.1254 -0.238,-2.0254 -0.238,-2.0254"
     id="path864" />
  <path
     style="fill:none;stroke:#231f20;stroke-width:0.565977;stroke-linecap:butt;stroke-linejoin:miter;stroke-miterlimit:4;stroke-dasharray:none;stroke-opacity:1"
     d="m 229.81793,42.099428 c 0.229,-1.276 2.134,-0.5573 2.661,-0.4426 0.531,0.1146 2.083,0.2653 3.301,0.228 1.23,-0.036 2.772,0.444 5.095,0.376 1.224,-0.0374 2.437,0.7026 2.411,2.4786 -0.026,1.756 -1.026,2.4014 -2.51,2.224 -1.485,-0.1826 -2.802,-0.9786 -4.292,-1.2653 -1.48,-0.292 -3.021,-0.4427 -4.229,-0.5053 -1.38,-0.0734 -2.036,-0.62 -2.199,-1.068 -0.41,-1.1254 -0.238,-2.0254 -0.238,-2.0254 z"
     id="path865" />
  <path
     style="fill:#ffffff;fill-opacity:1;fill-rule:nonzero;stroke:#231f20;stroke-width:0.665856;stroke-linecap:butt;stroke-linejoin:miter;stroke-miterlimit:4;stroke-dasharray:none;stroke-opacity:1"
     d="m 231.99893,44.510128 h 1.333 v -43.6608 h -1.333 z"
     id="path866" />
  <path
     style="fill:#ffffff;fill-opacity:1;fill-rule:nonzero;stroke:none"
     d="m 228.80693,49.447428 c 0,-2.3533 1.916,-4.2706 4.271,-4.2706 2.354,0 4.265,1.9173 4.265,4.2706 0,2.3547 -1.911,4.2667 -4.265,4.2667 -2.355,0 -4.271,-1.912 -4.271,-4.2667 m -1.333,0 c 0,3.0893 2.516,5.6 5.604,5.6 3.084,0 5.598,-2.5107 5.598,-5.6 0,-3.088 -2.514,-5.5986 -5.598,-5.5986 -3.088,0 -5.604,2.5106 -5.604,5.5986"
     id="path867" />
  <path
     style="fill:none;stroke:#231f20;stroke-width:0.665856;stroke-linecap:butt;stroke-linejoin:miter;stroke-miterlimit:4;stroke-dasharray:none;stroke-opacity:1"
     d="m 228.80693,49.447428 c 0,-2.3533 1.916,-4.2706 4.271,-4.2706 2.354,0 4.265,1.9173 4.265,4.2706 0,2.3547 -1.911,4.2667 -4.265,4.2667 -2.355,0 -4.271,-1.912 -4.271,-4.2667 z m -1.333,0 c 0,3.0893 2.516,5.6 5.604,5.6 3.084,0 5.598,-2.5107 5.598,-5.6 0,-3.088 -2.514,-5.5986 -5.598,-5.5986 -3.088,0 -5.604,2.5106 -5.604,5.5986 z"
     id="path868" />
  <path
     style="fill:#231f20;fill-opacity:1;fill-rule:nonzero;stroke:none"
     d="m 233.44293,52.375428 c 0.645,0.2707 0.817,2.5773 0.525,2.7027 -0.292,0.1253 -0.265,-0.64 -0.598,-0.516 -0.334,0.1253 -0.276,0.6253 -0.506,0.6413 -0.25,0.0253 -0.229,-0.584 -0.516,-0.4947 -0.125,0.036 -0.353,0.5827 -0.546,0.5414 -0.162,-0.036 -0.35,-0.5214 -0.479,-0.5627 -0.204,-0.0573 -0.281,0.5573 -0.459,0.5267 -0.453,-0.084 0.235,-2.7094 0.448,-2.8187 0.318,-0.1613 1.088,-0.4533 2.131,-0.02"
     id="path869" />
  <path
     style="fill:none;stroke:#231f20;stroke-width:0.565977;stroke-linecap:round;stroke-linejoin:round;stroke-miterlimit:4;stroke-dasharray:none;stroke-opacity:1"
     d="m 233.44293,52.375428 c 0.645,0.2707 0.817,2.5773 0.525,2.7027 -0.292,0.1253 -0.265,-0.64 -0.598,-0.516 -0.334,0.1253 -0.276,0.6253 -0.506,0.6413 -0.25,0.0253 -0.229,-0.584 -0.516,-0.4947 -0.125,0.036 -0.353,0.5827 -0.546,0.5414 -0.162,-0.036 -0.35,-0.5214 -0.479,-0.5627 -0.204,-0.0573 -0.281,0.5573 -0.459,0.5267 -0.453,-0.084 0.235,-2.7094 0.448,-2.8187 0.318,-0.1613 1.088,-0.4533 2.131,-0.02 z"
     id="path870" />
</svg>
