<?xml version="1.0" encoding="UTF-8" standalone="no"?>
<!-- Created with Inkscape (http://www.inkscape.org/) -->

<svg
   version="1.1"
   id="svg1"
   width="297.52676"
   height="154.36499"
   viewBox="0 0 297.52675 154.36499"
   sodipodi:docname="cell.svg"
   xmlns:inkscape="http://www.inkscape.org/namespaces/inkscape"
   xmlns:sodipodi="http://sodipodi.sourceforge.net/DTD/sodipodi-0.dtd"
   xmlns="http://www.w3.org/2000/svg"
   xmlns:svg="http://www.w3.org/2000/svg">
  <sodipodi:namedview
     id="namedview1"
     pagecolor="#ffffff"
     bordercolor="#000000"
     borderopacity="0.25"
     inkscape:showpageshadow="2"
     inkscape:pageopacity="0.0"
     inkscape:pagecheckerboard="0"
     inkscape:deskcolor="#d1d1d1">
    <inkscape:page
       x="0"
       y="0"
       inkscape:label="1"
       id="page1"
       width="297.52676"
       height="154.36499"
       margin="0"
       bleed="0" />
  </sodipodi:namedview>
  <defs
     id="defs1" />
  <path
     style="fill:#ffffff;fill-opacity:1;fill-rule:nonzero;stroke:#231f20;stroke-width:0.665856;stroke-linecap:butt;stroke-linejoin:miter;stroke-miterlimit:4;stroke-dasharray:none;stroke-opacity:1"
     d="m 5.265128,32.326739 h 1.3334 V 0.64913869 h -1.3334 z"
     id="path3" />
  <path
     style="fill:#ffffff;fill-opacity:1;fill-rule:nonzero;stroke:none"
     d="m 1.660928,37.258639 c 0,-2.3546 1.9162,-4.2653 4.2709,-4.2653 2.353,0 4.265,1.9107 4.265,4.2653 0,2.3534 -1.912,4.2707 -4.265,4.2707 -2.3547,0 -4.2709,-1.9173 -4.2709,-4.2707 m -1.328,0 c 0,3.088 2.5093,5.604 5.5989,5.604 3.088,0 5.5984,-2.516 5.5984,-5.604 0,-3.0893 -2.5104,-5.5986 -5.5984,-5.5986 -3.0896,0 -5.5989,2.5093 -5.5989,5.5986"
     id="path4" />
  <path
     style="fill:none;stroke:#231f20;stroke-width:0.665856;stroke-linecap:butt;stroke-linejoin:miter;stroke-miterlimit:4;stroke-dasharray:none;stroke-opacity:1"
     d="m 1.660928,37.258639 c 0,-2.3546 1.9162,-4.2653 4.2709,-4.2653 2.353,0 4.265,1.9107 4.265,4.2653 0,2.3534 -1.912,4.2707 -4.265,4.2707 -2.3547,0 -4.2709,-1.9173 -4.2709,-4.2707 z m -1.328,0 c 0,3.088 2.5093,5.604 5.5989,5.604 3.088,0 5.5984,-2.516 5.5984,-5.604 0,-3.0893 -2.5104,-5.5986 -5.5984,-5.5986 -3.0896,0 -5.5989,2.5093 -5.5989,5.5986 z"
     id="path5" />
  <path
     style="fill:#ffffff;fill-opacity:1;fill-rule:nonzero;stroke:#231f20;stroke-width:0.665856;stroke-linecap:butt;stroke-linejoin:miter;stroke-miterlimit:4;stroke-dasharray:none;stroke-opacity:1"
     d="m 163.33203,0.38413869 -5.37,31.21320031 1.313,0.224 5.369,-31.21320031 z"
     id="path6" />
  <path
     style="fill:#ffffff;fill-opacity:1;fill-rule:nonzero;stroke:none"
     d="m 153.57103,35.846639 c 0.401,-2.3173 2.609,-3.8799 4.932,-3.4786 2.319,0.4013 3.881,2.6093 3.485,4.932 -0.401,2.3173 -2.614,3.88 -4.932,3.4786 -2.318,-0.3946 -3.881,-2.6093 -3.485,-4.932 m -1.312,-0.224 c -0.521,3.0414 1.525,5.948 4.573,6.4694 3.042,0.5253 5.943,-1.5267 6.468,-4.568 0.527,-3.0414 -1.525,-5.948 -4.573,-6.4693 -3.041,-0.5254 -5.943,1.5266 -6.468,4.5679"
     id="path7" />
  <path
     style="fill:none;stroke:#231f20;stroke-width:0.665856;stroke-linecap:butt;stroke-linejoin:miter;stroke-miterlimit:4;stroke-dasharray:none;stroke-opacity:1"
     d="m 153.57103,35.846639 c 0.401,-2.3173 2.609,-3.8799 4.932,-3.4786 2.319,0.4013 3.881,2.6093 3.485,4.932 -0.401,2.3173 -2.614,3.88 -4.932,3.4786 -2.318,-0.3946 -3.881,-2.6093 -3.485,-4.932 z m -1.312,-0.224 c -0.521,3.0414 1.525,5.948 4.573,6.4694 3.042,0.5253 5.943,-1.5267 6.468,-4.568 0.527,-3.0414 -1.525,-5.948 -4.573,-6.4693 -3.041,-0.5254 -5.943,1.5266 -6.468,4.5679 z"
     id="path8" />
  <path
     style="fill:#ffffff;fill-opacity:1;fill-rule:nonzero;stroke:#231f20;stroke-width:0.665856;stroke-linecap:butt;stroke-linejoin:miter;stroke-miterlimit:4;stroke-dasharray:none;stroke-opacity:1"
     d="m 239.65503,0.66943869 -5.371,31.21860031 1.314,0.224 5.369,-31.21330031 z"
     id="path9" />
  <path
     style="fill:#ffffff;fill-opacity:1;fill-rule:nonzero;stroke:none"
     d="m 229.89903,36.138639 c 0.396,-2.3173 2.609,-3.8799 4.928,-3.4786 2.317,0.3947 3.885,2.6093 3.484,4.9266 -0.401,2.3227 -2.615,3.8854 -4.932,3.484 -2.319,-0.396 -3.88,-2.6093 -3.48,-4.932 m -1.312,-0.224 c -0.527,3.0414 1.525,5.9427 4.568,6.4694 3.041,0.5253 5.943,-1.5267 6.468,-4.568 0.527,-3.0414 -1.525,-5.948 -4.572,-6.4693 -3.043,-0.5254 -5.943,1.5213 -6.464,4.5679"
     id="path10" />
  <path
     style="fill:none;stroke:#231f20;stroke-width:0.665856;stroke-linecap:butt;stroke-linejoin:miter;stroke-miterlimit:4;stroke-dasharray:none;stroke-opacity:1"
     d="m 229.89903,36.138639 c 0.396,-2.3173 2.609,-3.8799 4.928,-3.4786 2.317,0.3947 3.885,2.6093 3.484,4.9266 -0.401,2.3227 -2.615,3.8854 -4.932,3.484 -2.319,-0.396 -3.88,-2.6093 -3.48,-4.932 z m -1.312,-0.224 c -0.527,3.0414 1.525,5.9427 4.568,6.4694 3.041,0.5253 5.943,-1.5267 6.468,-4.568 0.527,-3.0414 -1.525,-5.948 -4.572,-6.4693 -3.043,-0.5254 -5.943,1.5213 -6.464,4.5679 z"
     id="path11" />
  <path
     style="fill:#ffffff;fill-opacity:1;fill-rule:nonzero;stroke:#231f20;stroke-width:0.665856;stroke-linecap:butt;stroke-linejoin:miter;stroke-miterlimit:4;stroke-dasharray:none;stroke-opacity:1"
     d="m 83.426028,0.66943869 -5.375,31.21860031 1.318,0.224 5.369,-31.21330031 z"
     id="path12" />
  <path
     style="fill:#ffffff;fill-opacity:1;fill-rule:nonzero;stroke:none"
     d="m 73.666028,36.138639 c 0.4,-2.3173 2.609,-3.8799 4.932,-3.4786 2.317,0.3947 3.88,2.6093 3.484,4.9266 -0.401,2.3227 -2.615,3.8854 -4.932,3.484 -2.323,-0.396 -3.885,-2.6093 -3.484,-4.932 m -1.313,-0.224 c -0.52,3.0414 1.526,5.9427 4.568,6.4694 3.046,0.5253 5.948,-1.5267 6.473,-4.568 0.521,-3.0414 -1.531,-5.948 -4.572,-6.4693 -3.043,-0.5254 -5.943,1.5213 -6.469,4.5679"
     id="path13" />
  <path
     style="fill:none;stroke:#231f20;stroke-width:0.665856;stroke-linecap:butt;stroke-linejoin:miter;stroke-miterlimit:4;stroke-dasharray:none;stroke-opacity:1"
     d="m 73.666028,36.138639 c 0.4,-2.3173 2.609,-3.8799 4.932,-3.4786 2.317,0.3947 3.88,2.6093 3.484,4.9266 -0.401,2.3227 -2.615,3.8854 -4.932,3.484 -2.323,-0.396 -3.885,-2.6093 -3.484,-4.932 z m -1.313,-0.224 c -0.52,3.0414 1.526,5.9427 4.568,6.4694 3.046,0.5253 5.948,-1.5267 6.473,-4.568 0.521,-3.0414 -1.531,-5.948 -4.572,-6.4693 -3.043,-0.5254 -5.943,1.5213 -6.469,4.5679 z"
     id="path14" />
  <path
     style="fill:#231f20;fill-opacity:1;fill-rule:nonzero;stroke:none"
     d="m 4.218228,117.36764 c -1.0427,-0.865 -0.7145,-1.802 0.176,-2.333 0.2615,-0.161 0.3292,-0.573 0.6,-0.704 0.6292,-0.312 2.26,0.313 2.0829,1.803 -0.0109,0.109 0.1411,0.912 0.161,1.53 0.0426,1.215 -0.4678,3.657 -2.7386,5.115 -1.0734,0.693 -1.2813,-0.067 -0.9333,-0.484 1.1093,-1.302 0.9536,-1.631 1.1203,-2.077 0.5729,-1.522 -0.4683,-2.85 -0.4683,-2.85"
     id="path15" />
  <path
     style="fill:none;stroke:#231f20;stroke-width:0.332927;stroke-linecap:butt;stroke-linejoin:miter;stroke-miterlimit:4;stroke-dasharray:none;stroke-opacity:1"
     d="m 4.218228,117.36764 c -1.0427,-0.865 -0.7145,-1.802 0.176,-2.333 0.2615,-0.161 0.3292,-0.573 0.6,-0.704 0.6292,-0.312 2.26,0.313 2.0829,1.803 -0.0109,0.109 0.1411,0.912 0.161,1.53 0.0426,1.215 -0.4678,3.657 -2.7386,5.115 -1.0734,0.693 -1.2813,-0.067 -0.9333,-0.484 1.1093,-1.302 0.9536,-1.631 1.1203,-2.077 0.5729,-1.522 -0.4683,-2.85 -0.4683,-2.85 z"
     id="path16" />
  <path
     style="fill:#231f20;fill-opacity:1;fill-rule:nonzero;stroke:none"
     d="m 6.696928,98.783638 c -2.2292,-0.396 -2.7188,-0.172 -2.9479,0.756 -0.1563,0.620002 -0.5109,1.140002 -0.6204,1.515002 -0.3692,1.245 -0.4839,3.485 0.8604,9.933 0.3063,1.458 0.7183,3.515 0.8224,4.364 0.1615,1.35 2.2871,0.167 2.2292,-0.358 -0.1823,-1.704 -0.1719,-2.896 -0.1557,-3.516 0.0093,-0.427 -0.0683,-1.188 0.1922,-2.828 0.3906,-2.5 1,-3.938 1.0837,-6.047 0.036,-0.985 0.6923,-1.699 0.2387,-2.683002 -0.448,-0.984 -1.7026,-1.136 -1.7026,-1.136"
     id="path17" />
  <path
     style="fill:none;stroke:#231f20;stroke-width:0.565977;stroke-linecap:butt;stroke-linejoin:miter;stroke-miterlimit:4;stroke-dasharray:none;stroke-opacity:1"
     d="m 6.696928,98.783638 c -2.2292,-0.396 -2.7188,-0.172 -2.9479,0.756 -0.1563,0.620002 -0.5109,1.140002 -0.6204,1.515002 -0.3692,1.245 -0.4839,3.485 0.8604,9.933 0.3063,1.458 0.7183,3.515 0.8224,4.364 0.1615,1.35 2.2871,0.167 2.2292,-0.358 -0.1823,-1.704 -0.1719,-2.896 -0.1557,-3.516 0.0093,-0.427 -0.0683,-1.188 0.1922,-2.828 0.3906,-2.5 1,-3.938 1.0837,-6.047 0.036,-0.985 0.6923,-1.699 0.2387,-2.683002 -0.448,-0.984 -1.7026,-1.136 -1.7026,-1.136 z"
     id="path18" />
  <path
     style="fill:#ca0369;fill-opacity:1;fill-rule:nonzero;stroke:none"
     d="m 4.743828,72.862639 c -0.0683,3.135 -0.4324,3.797 -0.812,4.636 -2.3855,5.265 0.2437,6.337 3.0932,5.88 3.3437,-0.537 4.5573,-0.661 4.0984,-6.943 -0.1292,-1.745 0.2562,-8.505 0.2562,-8.505 0.4626,-2.407 -0.3708,-4.9947 -1.5521,-5.8387 -1.2504,-0.8907 -0.8239,-0.448 -2.1306,-1.0627 -1.2454,-0.5839 -3.4214,-0.3746 -4.1307,0.64 -0.6813,0.9694 0.0052,2.4907 0.7093,4.8134 0.552,1.828 0.4683,6.38 0.4683,6.38"
     id="path19" />
  <path
     style="fill:none;stroke:#231f20;stroke-width:0.565977;stroke-linecap:butt;stroke-linejoin:miter;stroke-miterlimit:4;stroke-dasharray:none;stroke-opacity:1"
     d="m 4.743828,72.862639 c -0.0683,3.135 -0.4324,3.797 -0.812,4.636 -2.3855,5.265 0.2437,6.337 3.0932,5.88 3.3437,-0.537 4.5573,-0.661 4.0984,-6.943 -0.1292,-1.745 0.2562,-8.505 0.2562,-8.505 0.4626,-2.407 -0.3708,-4.9947 -1.5521,-5.8387 -1.2504,-0.8907 -0.8239,-0.448 -2.1306,-1.0627 -1.2454,-0.5839 -3.4214,-0.3746 -4.1307,0.64 -0.6813,0.9694 0.0052,2.4907 0.7093,4.8134 0.552,1.828 0.4683,6.38 0.4683,6.38 z"
     id="path20" />
  <path
     style="fill:#ffffff;fill-opacity:1;fill-rule:nonzero;stroke:none"
     d="m 10.113028,55.075939 c 0.0478,-0.24 1.1984,-0.3226 1.1984,-0.8493 0,-0.5253 -0.7651,-0.728 -1.6146,-2.5253 l -0.0052,-0.0214 c -0.5734,-1.3333 -1.6145,-2.26 -2.8641,-2.3586 -2.0681,-0.172 -3.9374,1.968 -4.1666,4.7813 -0.2348,2.8173 1.2548,5.2333 3.3224,5.4053 1.9843,0.1667 3.7761,-1.796 4.1297,-4.432"
     id="path21" />
  <path
     style="fill:none;stroke:#231f20;stroke-width:0.565977;stroke-linecap:butt;stroke-linejoin:miter;stroke-miterlimit:4;stroke-dasharray:none;stroke-opacity:1"
     d="m 10.113028,55.075939 c 0.0478,-0.24 1.1984,-0.3226 1.1984,-0.8493 0,-0.5253 -0.7651,-0.728 -1.6146,-2.5253 l -0.0052,-0.0214 c -0.5734,-1.3333 -1.6145,-2.26 -2.8641,-2.3586 -2.0681,-0.172 -3.9374,1.968 -4.1666,4.7813 -0.2348,2.8173 1.2548,5.2333 3.3224,5.4053 1.9843,0.1667 3.7761,-1.796 4.1297,-4.432 z"
     id="path22" />
  <path
     style="fill:#231f20;fill-opacity:1;fill-rule:nonzero;stroke:none"
     d="m 5.718228,101.05464 c 3.8745,1.037 3.0521,-2.963002 3.176,-3.421002 1.3188,-4.834 1.2922,-5.214 2.0376,-8.963999 1.077,-5.422 0.989,-9.302 -1.9844,-10.848 -2.0156,-1.052 -3.6308,-0.782 -4.6308,0.077 -1.1036,0.953 -2.276,3.912 -0.5785,6.245 l 0.1254,1.708 c -0.0625,1.162 -0.088,1.74 -0.1614,2.308 -0.1359,0.995 -0.2131,2.062 -0.3692,4.014999 -0.2667,3.464 0.5828,7.209 0.5828,7.209 -0.0683,1.244002 1.8025,1.671002 1.8025,1.671002"
     id="path23" />
  <path
     style="fill:none;stroke:#231f20;stroke-width:0.565977;stroke-linecap:butt;stroke-linejoin:miter;stroke-miterlimit:4;stroke-dasharray:none;stroke-opacity:1"
     d="m 5.718228,101.05464 c 3.8745,1.037 3.0521,-2.963002 3.176,-3.421002 1.3188,-4.834 1.2922,-5.214 2.0376,-8.963999 1.077,-5.422 0.989,-9.302 -1.9844,-10.848 -2.0156,-1.052 -3.6308,-0.782 -4.6308,0.077 -1.1036,0.953 -2.276,3.912 -0.5785,6.245 l 0.1254,1.708 c -0.0625,1.162 -0.088,1.74 -0.1614,2.308 -0.1359,0.995 -0.2131,2.062 -0.3692,4.014999 -0.2667,3.464 0.5828,7.209 0.5828,7.209 -0.0683,1.244002 1.8025,1.671002 1.8025,1.671002 z"
     id="path24" />
  <path
     style="fill:#ca0369;fill-opacity:1;fill-rule:nonzero;stroke:none"
     d="m 11.327528,81.169639 c -0.3385,-1.52 -1.0733,-2.667 -2.3801,-3.348 -2.0156,-1.052 -3.6308,-0.787 -4.6308,0.077 -1.1036,0.953 -2.276,3.907 -0.5785,6.245 l 7.7041,1.312 c 0.0666,-0.65 0.0984,-1.26 0.1041,-1.844 0.0308,-0.077 0.0573,-0.15 0.088,-0.213 0.3797,-0.713 0.136,-1.291 -0.3068,-2.229"
     id="path25" />
  <path
     style="fill:none;stroke:#231f20;stroke-width:0.565977;stroke-linecap:butt;stroke-linejoin:miter;stroke-miterlimit:4;stroke-dasharray:none;stroke-opacity:1"
     d="m 11.327528,81.169639 c -0.3385,-1.52 -1.0733,-2.667 -2.3801,-3.348 -2.0156,-1.052 -3.6308,-0.787 -4.6308,0.077 -1.1036,0.953 -2.276,3.907 -0.5785,6.245 l 7.7041,1.312 c 0.0666,-0.65 0.0984,-1.26 0.1041,-1.844 0.0308,-0.077 0.0573,-0.15 0.088,-0.213 0.3797,-0.713 0.136,-1.291 -0.3068,-2.229 z"
     id="path26" />
  <path
     style="fill:#231f20;fill-opacity:1;fill-rule:nonzero;stroke:none"
     d="m 6.894228,42.993339 c 0.3709,0.5253 0.172,2.4627 0.636,4.004 0.312,1.0373 -0.036,3.7613 0.3494,4.7773 0.3532,0.9267 0.4318,1.3853 -0.563,1.9733 -0.5837,0.3494 -1.9369,0.64 -2.2181,0.2134 -0.6563,-0.9947 -0.823,-1.9267 -0.7975,-2.9947 0.0412,-1.2133 0.4265,-4.5053 0.5573,-5.104 0.3224,-1.484 0,-2.1506 0.0464,-2.552 0.0895,-0.756 0.4015,-0.9066 0.9015,-0.9533 0.9532,-0.0933 1.088,0.636 1.088,0.636"
     id="path27" />
  <path
     style="fill:none;stroke:#231f20;stroke-width:0.565977;stroke-linecap:butt;stroke-linejoin:miter;stroke-miterlimit:4;stroke-dasharray:none;stroke-opacity:1"
     d="m 6.894228,42.993339 c 0.3709,0.5253 0.172,2.4627 0.636,4.004 0.312,1.0373 -0.036,3.7613 0.3494,4.7773 0.3532,0.9267 0.4318,1.3853 -0.563,1.9733 -0.5837,0.3494 -1.9369,0.64 -2.2181,0.2134 -0.6563,-0.9947 -0.823,-1.9267 -0.7975,-2.9947 0.0412,-1.2133 0.4265,-4.5053 0.5573,-5.104 0.3224,-1.484 0,-2.1506 0.0464,-2.552 0.0895,-0.756 0.4015,-0.9066 0.9015,-0.9533 0.9532,-0.0933 1.088,0.636 1.088,0.636 z"
     id="path28" />
  <path
     style="fill:#231f20;fill-opacity:1;fill-rule:nonzero;stroke:none"
     d="m 7.265128,52.045339 c 1.2916,0.088 0.7812,2.0626 0.7291,2.5986 -0.0572,0.5414 -0.0375,2.0987 0.1292,3.3067 0.1718,1.2147 -0.1292,2.8026 0.188,5.104 0.1666,1.2146 -0.4318,2.5 -2.2025,2.667 -1.7454,0.166 -2.5,-0.755 -2.4803,-2.2497 0.0161,-1.4947 0.6667,-2.896 0.7871,-4.4066 0.1249,-1.5 0.1093,-3.052 0.041,-4.26 -0.077,-1.38 0.3907,-2.0934 0.824,-2.3027 1.0667,-0.5307 1.9844,-0.4573 1.9844,-0.4573"
     id="path29" />
  <path
     style="fill:none;stroke:#231f20;stroke-width:0.565977;stroke-linecap:butt;stroke-linejoin:miter;stroke-miterlimit:4;stroke-dasharray:none;stroke-opacity:1"
     d="m 7.265128,52.045339 c 1.2916,0.088 0.7812,2.0626 0.7291,2.5986 -0.0572,0.5414 -0.0375,2.0987 0.1292,3.3067 0.1718,1.2147 -0.1292,2.8026 0.188,5.104 0.1666,1.2146 -0.4318,2.5 -2.2025,2.667 -1.7454,0.166 -2.5,-0.755 -2.4803,-2.2497 0.0161,-1.4947 0.6667,-2.896 0.7871,-4.4066 0.1249,-1.5 0.1093,-3.052 0.041,-4.26 -0.077,-1.38 0.3907,-2.0934 0.824,-2.3027 1.0667,-0.5307 1.9844,-0.4573 1.9844,-0.4573 z"
     id="path30" />
  <path
     style="fill:#231f20;fill-opacity:1;fill-rule:nonzero;stroke:none"
     d="m 5.008928,42.982639 c -0.6454,-0.2706 -0.812,-2.5786 -0.5199,-2.704 0.2907,-0.124 0.2652,0.6414 0.5985,0.516 0.3334,-0.1253 0.276,-0.62 0.5052,-0.64 0.2495,-0.0213 0.2239,0.5774 0.5203,0.5 0.1199,-0.0373 0.3547,-0.584 0.5369,-0.5426 0.1667,0.0373 0.3496,0.5266 0.4787,0.5626 0.2084,0.0574 0.2871,-0.552 0.4589,-0.52 0.4588,0.0827 -0.2401,2.7027 -0.4532,2.812 -0.3177,0.1614 -1.0828,0.4534 -2.1254,0.016"
     id="path31" />
  <path
     style="fill:none;stroke:#231f20;stroke-width:0.565977;stroke-linecap:round;stroke-linejoin:round;stroke-miterlimit:4;stroke-dasharray:none;stroke-opacity:1"
     d="m 5.008928,42.982639 c -0.6454,-0.2706 -0.812,-2.5786 -0.5199,-2.704 0.2907,-0.124 0.2652,0.6414 0.5985,0.516 0.3334,-0.1253 0.276,-0.62 0.5052,-0.64 0.2495,-0.0213 0.2239,0.5774 0.5203,0.5 0.1199,-0.0373 0.3547,-0.584 0.5369,-0.5426 0.1667,0.0373 0.3496,0.5266 0.4787,0.5626 0.2084,0.0574 0.2871,-0.552 0.4589,-0.52 0.4588,0.0827 -0.2401,2.7027 -0.4532,2.812 -0.3177,0.1614 -1.0828,0.4534 -2.1254,0.016 z"
     id="path32" />
  <path
     style="fill:#231f20;fill-opacity:1;fill-rule:nonzero;stroke:none"
     d="m 104.32203,92.143638 c -0.281,-1.321999 0.552,-1.859999 1.583,-1.728999 0.302,0.036 0.609,-0.245 0.906,-0.183 0.688,0.152 1.583,1.641999 0.526,2.709999 -0.072,0.072 -0.452,0.801 -0.823,1.301 -0.713,0.979 -2.624,2.589 -5.307,2.333 -1.270002,-0.12 -0.964,-0.849 -0.437,-0.958 1.676,-0.339 1.76,-0.698 2.167,-0.948 1.385,-0.838 1.385,-2.526 1.385,-2.526"
     id="path33" />
  <path
     style="fill:none;stroke:#231f20;stroke-width:0.332927;stroke-linecap:butt;stroke-linejoin:miter;stroke-miterlimit:4;stroke-dasharray:none;stroke-opacity:1"
     d="m 104.32203,92.143638 c -0.281,-1.321999 0.552,-1.859999 1.583,-1.728999 0.302,0.036 0.609,-0.245 0.906,-0.183 0.688,0.152 1.583,1.641999 0.526,2.709999 -0.072,0.072 -0.452,0.801 -0.823,1.301 -0.713,0.979 -2.624,2.589 -5.307,2.333 -1.270002,-0.12 -0.964,-0.849 -0.437,-0.958 1.676,-0.339 1.76,-0.698 2.167,-0.948 1.385,-0.838 1.385,-2.526 1.385,-2.526 z"
     id="path34" />
  <path
     style="fill:#231f20;fill-opacity:1;fill-rule:nonzero;stroke:none"
     d="m 117.73803,79.045639 c -1.511,-1.688 -2.025,-1.814 -2.787,-1.219 -0.5,0.391 -1.104,0.583 -1.421,0.807 -1.057,0.75 -2.531,2.442 -5.448,8.349 -0.661,1.339 -1.599,3.208 -2.047,3.943 -0.702,1.160999 1.698,1.540999 1.979,1.087999 0.907,-1.453999 1.647,-2.379999 2.043,-2.858999 0.276,-0.333 0.676,-0.98 1.9,-2.109 1.849,-1.73 3.209,-2.48 4.578,-4.09 0.64,-0.749 1.594,-0.905 1.844,-1.962 0.255,-1.052 -0.641,-1.948 -0.641,-1.948"
     id="path35" />
  <path
     style="fill:none;stroke:#231f20;stroke-width:0.565977;stroke-linecap:butt;stroke-linejoin:miter;stroke-miterlimit:4;stroke-dasharray:none;stroke-opacity:1"
     d="m 117.73803,79.045639 c -1.511,-1.688 -2.025,-1.814 -2.787,-1.219 -0.5,0.391 -1.104,0.583 -1.421,0.807 -1.057,0.75 -2.531,2.442 -5.448,8.349 -0.661,1.339 -1.599,3.208 -2.047,3.943 -0.702,1.160999 1.698,1.540999 1.979,1.087999 0.907,-1.453999 1.647,-2.379999 2.043,-2.858999 0.276,-0.333 0.676,-0.98 1.9,-2.109 1.849,-1.73 3.209,-2.48 4.578,-4.09 0.64,-0.749 1.594,-0.905 1.844,-1.962 0.255,-1.052 -0.641,-1.948 -0.641,-1.948 z"
     id="path36" />
  <path
     style="fill:#ca0369;fill-opacity:1;fill-rule:nonzero;stroke:none"
     d="m 130.89903,56.950639 c -1.552,2.724 -2.186,3.136 -2.916,3.6933 -4.609,3.4893 -2.813,5.6827 -0.089,6.6397 3.199,1.126 4.319,1.595 6.912,-4.145 0.724,-1.5987 4.287,-7.3547 4.287,-7.3547 1.552,-1.8906 2.062,-4.5666 1.421,-5.8746 -0.677,-1.3747 -0.511,-0.776 -1.364,-1.9427 -0.817,-1.1093 -2.828,-1.964 -3.937,-1.412 -1.063,0.532 -1.183,2.1933 -1.672,4.568 -0.391,1.8707 -2.642,5.828 -2.642,5.828"
     id="path37" />
  <path
     style="fill:none;stroke:#231f20;stroke-width:0.565977;stroke-linecap:butt;stroke-linejoin:miter;stroke-miterlimit:4;stroke-dasharray:none;stroke-opacity:1"
     d="m 130.89903,56.950639 c -1.552,2.724 -2.186,3.136 -2.916,3.6933 -4.609,3.4893 -2.813,5.6827 -0.089,6.6397 3.199,1.126 4.319,1.595 6.912,-4.145 0.724,-1.5987 4.287,-7.3547 4.287,-7.3547 1.552,-1.8906 2.062,-4.5666 1.421,-5.8746 -0.677,-1.3747 -0.511,-0.776 -1.364,-1.9427 -0.817,-1.1093 -2.828,-1.964 -3.937,-1.412 -1.063,0.532 -1.183,2.1933 -1.672,4.568 -0.391,1.8707 -2.642,5.828 -2.642,5.828 z"
     id="path38" />
  <path
     style="fill:#ffffff;fill-opacity:1;fill-rule:nonzero;stroke:none"
     d="m 144.29003,44.602639 c 0.172,-0.1773 1.177,0.38 1.464,-0.0626 0.287,-0.4427 -0.245,-1.0214 0.016,-2.9947 v -0.0213 c 0.244,-1.432 -0.125,-2.776 -1.12,-3.536 -1.647,-1.2667 -4.375,-0.48 -6.099,1.76 -1.718,2.24 -1.781,5.0786 -0.136,6.344 1.579,1.2133 4.151,0.5413 5.875,-1.4894"
     id="path39" />
  <path
     style="fill:none;stroke:#231f20;stroke-width:0.565977;stroke-linecap:butt;stroke-linejoin:miter;stroke-miterlimit:4;stroke-dasharray:none;stroke-opacity:1"
     d="m 144.29003,44.602639 c 0.172,-0.1773 1.177,0.38 1.464,-0.0626 0.287,-0.4427 -0.245,-1.0214 0.016,-2.9947 v -0.0213 c 0.244,-1.432 -0.125,-2.776 -1.12,-3.536 -1.647,-1.2667 -4.375,-0.48 -6.099,1.76 -1.718,2.24 -1.781,5.0786 -0.136,6.344 1.579,1.2133 4.151,0.5413 5.875,-1.4894 z"
     id="path40" />
  <path
     style="fill:#231f20;fill-opacity:1;fill-rule:nonzero;stroke:none"
     d="m 115.57103,80.226639 c 2.407,3.209 4.23,-0.443 4.61,-0.728 4.021,-2.996 4.234,-3.308 7.136,-5.797 4.186,-3.604 6.51,-6.714 5.125,-9.7657 -0.939,-2.0733 -2.371,-2.8547 -3.693,-2.792 -1.454,0.0733 -4.198,1.6667 -4.303,4.5577 l -0.957,1.421 c -0.766,0.875 -1.136,1.313 -1.547,1.713 -0.719,0.704 -1.448,1.495 -2.772,2.934 -2.348,2.561 -3.989,6.036 -3.989,6.036 -0.818,0.937 0.39,2.421 0.39,2.421"
     id="path41" />
  <path
     style="fill:none;stroke:#231f20;stroke-width:0.565977;stroke-linecap:butt;stroke-linejoin:miter;stroke-miterlimit:4;stroke-dasharray:none;stroke-opacity:1"
     d="m 115.57103,80.226639 c 2.407,3.209 4.23,-0.443 4.61,-0.728 4.021,-2.996 4.234,-3.308 7.136,-5.797 4.186,-3.604 6.51,-6.714 5.125,-9.7657 -0.939,-2.0733 -2.371,-2.8547 -3.693,-2.792 -1.454,0.0733 -4.198,1.6667 -4.303,4.5577 l -0.957,1.421 c -0.766,0.875 -1.136,1.313 -1.547,1.713 -0.719,0.704 -1.448,1.495 -2.772,2.934 -2.348,2.561 -3.989,6.036 -3.989,6.036 -0.818,0.937 0.39,2.421 0.39,2.421 z"
     id="path42" />
  <path
     style="fill:#ca0369;fill-opacity:1;fill-rule:nonzero;stroke:none"
     d="m 132.23303,63.315939 c -1.271,-1.8853 -2.818,-2.4227 -4.104,-2.1413 -1.427,0.3133 -3.87,2.3493 -3.495,5.213 l 6.145,4.83 c 0.371,-0.538 0.688,-1.058 0.975,-1.568 0.057,-0.058 0.12,-0.11 0.177,-0.147 0.678,-0.448 0.739,-1.072 0.796,-2.109 0.428,-1.495 0.334,-2.8537 -0.494,-4.0777"
     id="path43" />
  <path
     style="fill:none;stroke:#231f20;stroke-width:0.565977;stroke-linecap:butt;stroke-linejoin:miter;stroke-miterlimit:4;stroke-dasharray:none;stroke-opacity:1"
     d="m 132.23303,63.315939 c -1.271,-1.8853 -2.818,-2.4227 -4.104,-2.1413 -1.427,0.3133 -3.87,2.3493 -3.495,5.213 l 6.145,4.83 c 0.371,-0.538 0.688,-1.058 0.975,-1.568 0.057,-0.058 0.12,-0.11 0.177,-0.147 0.678,-0.448 0.739,-1.072 0.796,-2.109 0.428,-1.495 0.334,-2.8537 -0.494,-4.0777 z"
     id="path44" />
  <path
     style="fill:#231f20;fill-opacity:1;fill-rule:nonzero;stroke:none"
     d="m 156.39903,43.248039 c -0.359,0.536 -2.239,1.0466 -3.509,2.0266 -0.866,0.6667 -3.532,1.312 -4.334,2.036 -0.74,0.6613 -1.146,0.9013 -2.047,0.1827 -0.536,-0.4227 -1.291,-1.584 -0.995,-1.9947 0.693,-0.9693 1.5,-1.464 2.51,-1.8186 1.146,-0.396 4.36,-1.208 4.964,-1.3067 1.506,-0.2293 2.006,-0.7707 2.402,-0.8707 0.733,-0.1866 0.989,0.052 1.213,0.5 0.427,0.86 -0.204,1.2454 -0.204,1.2454"
     id="path45" />
  <path
     style="fill:none;stroke:#231f20;stroke-width:0.565977;stroke-linecap:butt;stroke-linejoin:miter;stroke-miterlimit:4;stroke-dasharray:none;stroke-opacity:1"
     d="m 156.39903,43.248039 c -0.359,0.536 -2.239,1.0466 -3.509,2.0266 -0.866,0.6667 -3.532,1.312 -4.334,2.036 -0.74,0.6613 -1.146,0.9013 -2.047,0.1827 -0.536,-0.4227 -1.291,-1.584 -0.995,-1.9947 0.693,-0.9693 1.5,-1.464 2.51,-1.8186 1.146,-0.396 4.36,-1.208 4.964,-1.3067 1.506,-0.2293 2.006,-0.7707 2.402,-0.8707 0.733,-0.1866 0.989,0.052 1.213,0.5 0.427,0.86 -0.204,1.2454 -0.204,1.2454 z"
     id="path46" />
  <path
     style="fill:#231f20;fill-opacity:1;fill-rule:nonzero;stroke:none"
     d="m 148.07603,46.836039 c 0.38,1.2399 -1.645,1.4639 -2.161,1.6093 -0.525,0.1413 -1.973,0.7146 -3.041,1.308 -1.073,0.5933 -2.667,0.8746 -4.704,2 -1.067,0.5933 -2.484,0.4893 -3.276,-1.0987 -0.781,-1.5733 -0.187,-2.604 1.215,-3.1253 1.4,-0.5213 2.937,-0.4173 4.39,-0.8387 1.452,-0.4266 2.891,-0.9946 4,-1.4893 1.26,-0.5733 2.094,-0.3853 2.443,-0.0573 0.88,0.8066 1.134,1.692 1.134,1.692"
     id="path47" />
  <path
     style="fill:none;stroke:#231f20;stroke-width:0.565977;stroke-linecap:butt;stroke-linejoin:miter;stroke-miterlimit:4;stroke-dasharray:none;stroke-opacity:1"
     d="m 148.07603,46.836039 c 0.38,1.2399 -1.645,1.4639 -2.161,1.6093 -0.525,0.1413 -1.973,0.7146 -3.041,1.308 -1.073,0.5933 -2.667,0.8746 -4.704,2 -1.067,0.5933 -2.484,0.4893 -3.276,-1.0987 -0.781,-1.5733 -0.187,-2.604 1.215,-3.1253 1.4,-0.5213 2.937,-0.4173 4.39,-0.8387 1.452,-0.4266 2.891,-0.9946 4,-1.4893 1.26,-0.5733 2.094,-0.3853 2.443,-0.0573 0.88,0.8066 1.134,1.692 1.134,1.692 z"
     id="path48" />
  <path
     style="fill:#231f20;fill-opacity:1;fill-rule:nonzero;stroke:none"
     d="m 155.67503,41.717339 c -0.489,-0.496 0.245,-2.6933 0.568,-2.6933 0.317,-0.0054 -0.005,0.6933 0.349,0.708 0.359,0.0106 0.495,-0.468 0.714,-0.396 0.24,0.0733 -0.011,0.62 0.286,0.6613 0.126,0.016 0.552,-0.4053 0.708,-0.2907 0.136,0.0987 0.12,0.62 0.23,0.7027 0.166,0.1307 0.469,-0.4013 0.62,-0.3013 0.39,0.2493 -1.266,2.4 -1.506,2.416 -0.354,0.0266 -1.177,0 -1.969,-0.8067"
     id="path49" />
  <path
     style="fill:none;stroke:#231f20;stroke-width:0.565977;stroke-linecap:round;stroke-linejoin:round;stroke-miterlimit:4;stroke-dasharray:none;stroke-opacity:1"
     d="m 155.67503,41.717339 c -0.489,-0.496 0.245,-2.6933 0.568,-2.6933 0.317,-0.0054 -0.005,0.6933 0.349,0.708 0.359,0.0106 0.495,-0.468 0.714,-0.396 0.24,0.0733 -0.011,0.62 0.286,0.6613 0.126,0.016 0.552,-0.4053 0.708,-0.2907 0.136,0.0987 0.12,0.62 0.23,0.7027 0.166,0.1307 0.469,-0.4013 0.62,-0.3013 0.39,0.2493 -1.266,2.4 -1.506,2.416 -0.354,0.0266 -1.177,0 -1.969,-0.8067 z"
     id="path50" />
  <path
     style="fill:#231f20;fill-opacity:1;fill-rule:nonzero;stroke:none"
     d="m 175.79503,114.65464 c -0.301,-1.319 0.527,-1.865 1.552,-1.751 0.308,0.027 0.609,-0.254 0.907,-0.197 0.693,0.135 1.609,1.62 0.568,2.697 -0.074,0.074 -0.438,0.808 -0.798,1.318 -0.702,0.985 -2.588,2.625 -5.27,2.412 -1.276,-0.094 -0.984,-0.828 -0.454,-0.948 1.672,-0.364 1.751,-0.724 2.146,-0.984 1.376,-0.86 1.349,-2.547 1.349,-2.547"
     id="path51" />
  <path
     style="fill:none;stroke:#231f20;stroke-width:0.332927;stroke-linecap:butt;stroke-linejoin:miter;stroke-miterlimit:4;stroke-dasharray:none;stroke-opacity:1"
     d="m 175.79503,114.65464 c -0.301,-1.319 0.527,-1.865 1.552,-1.751 0.308,0.027 0.609,-0.254 0.907,-0.197 0.693,0.135 1.609,1.62 0.568,2.697 -0.074,0.074 -0.438,0.808 -0.798,1.318 -0.702,0.985 -2.588,2.625 -5.27,2.412 -1.276,-0.094 -0.984,-0.828 -0.454,-0.948 1.672,-0.364 1.751,-0.724 2.146,-0.984 1.376,-0.86 1.349,-2.547 1.349,-2.547 z"
     id="path52" />
  <path
     style="fill:#231f20;fill-opacity:1;fill-rule:nonzero;stroke:none"
     d="m 189.00303,101.34664 c -1.531,-1.661002 -2.056,-1.781002 -2.807,-1.177 -0.494,0.401 -1.088,0.6 -1.406,0.833 -1.047,0.761 -2.49,2.485 -5.312,8.428 -0.646,1.348 -1.558,3.239 -1.99,3.979 -0.682,1.172 1.724,1.516 2,1.057 0.88,-1.469 1.604,-2.407 1.995,-2.896 0.265,-0.333 0.661,-0.984 1.864,-2.135 1.823,-1.756 3.172,-2.532 4.521,-4.161 0.62,-0.761 1.574,-0.933 1.807,-1.991 0.24,-1.057 -0.672,-1.937 -0.672,-1.937"
     id="path53" />
  <path
     style="fill:none;stroke:#231f20;stroke-width:0.565977;stroke-linecap:butt;stroke-linejoin:miter;stroke-miterlimit:4;stroke-dasharray:none;stroke-opacity:1"
     d="m 189.00303,101.34664 c -1.531,-1.661002 -2.056,-1.781002 -2.807,-1.177 -0.494,0.401 -1.088,0.6 -1.406,0.833 -1.047,0.761 -2.49,2.485 -5.312,8.428 -0.646,1.348 -1.558,3.239 -1.99,3.979 -0.682,1.172 1.724,1.516 2,1.057 0.88,-1.469 1.604,-2.407 1.995,-2.896 0.265,-0.333 0.661,-0.984 1.864,-2.135 1.823,-1.756 3.172,-2.532 4.521,-4.161 0.62,-0.761 1.574,-0.933 1.807,-1.991 0.24,-1.057 -0.672,-1.937 -0.672,-1.937 z"
     id="path54" />
  <path
     style="fill:#ca0369;fill-opacity:1;fill-rule:nonzero;stroke:none"
     d="m 201.81603,79.050639 c -1.51,2.744 -2.136,3.167 -2.86,3.733 -4.552,3.563 -2.718,5.73 0.016,6.642 3.214,1.077 4.344,1.525 6.85,-4.251 0.692,-1.609 4.166,-7.421 4.166,-7.421 1.52,-1.918 1.99,-4.599 1.328,-5.896 -0.698,-1.364 -0.521,-0.771 -1.396,-1.922 -0.833,-1.094 -2.86,-1.922 -3.958,-1.349 -1.052,0.547 -1.146,2.208 -1.594,4.588 -0.365,1.88 -2.552,5.876 -2.552,5.876"
     id="path55" />
  <path
     style="fill:none;stroke:#231f20;stroke-width:0.565977;stroke-linecap:butt;stroke-linejoin:miter;stroke-miterlimit:4;stroke-dasharray:none;stroke-opacity:1"
     d="m 201.81603,79.050639 c -1.51,2.744 -2.136,3.167 -2.86,3.733 -4.552,3.563 -2.718,5.73 0.016,6.642 3.214,1.077 4.344,1.525 6.85,-4.251 0.692,-1.609 4.166,-7.421 4.166,-7.421 1.52,-1.918 1.99,-4.599 1.328,-5.896 -0.698,-1.364 -0.521,-0.771 -1.396,-1.922 -0.833,-1.094 -2.86,-1.922 -3.958,-1.349 -1.052,0.547 -1.146,2.208 -1.594,4.588 -0.365,1.88 -2.552,5.876 -2.552,5.876 z"
     id="path56" />
  <path
     style="fill:#ffffff;fill-opacity:1;fill-rule:nonzero;stroke:none"
     d="m 215.00803,66.493639 c 0.167,-0.183 1.183,0.353 1.464,-0.09 0.276,-0.442 -0.265,-1.02 -0.03,-2.9944 v -0.0213 c 0.218,-1.4373 -0.172,-2.7707 -1.178,-3.52 -1.666,-1.24 -4.38,-0.4066 -6.068,1.8533 -1.688,2.272 -1.702,5.1104 -0.036,6.3544 1.594,1.188 4.156,0.47 5.848,-1.582"
     id="path57" />
  <path
     style="fill:none;stroke:#231f20;stroke-width:0.565977;stroke-linecap:butt;stroke-linejoin:miter;stroke-miterlimit:4;stroke-dasharray:none;stroke-opacity:1"
     d="m 215.00803,66.493639 c 0.167,-0.183 1.183,0.353 1.464,-0.09 0.276,-0.442 -0.265,-1.02 -0.03,-2.9944 v -0.0213 c 0.218,-1.4373 -0.172,-2.7707 -1.178,-3.52 -1.666,-1.24 -4.38,-0.4066 -6.068,1.8533 -1.688,2.272 -1.702,5.1104 -0.036,6.3544 1.594,1.188 4.156,0.47 5.848,-1.582 z"
     id="path58" />
  <path
     style="fill:#231f20;fill-opacity:1;fill-rule:nonzero;stroke:none"
     d="m 186.85203,102.56564 c 2.464,3.166 4.224,-0.515 4.599,-0.807 3.975,-3.052002 4.183,-3.375002 7.043,-5.912002 4.134,-3.661 6.405,-6.806999 4.973,-9.838999 -0.968,-2.057 -2.416,-2.822 -3.735,-2.738 -1.452,0.098 -4.176,1.738 -4.233,4.629 l -0.933,1.437 c -0.75,0.886 -1.115,1.328 -1.52,1.74 -0.71,0.707999 -1.423,1.510999 -2.724,2.974999 -2.308,2.599 -3.891,6.099002 -3.891,6.099002 -0.808,0.948 0.421,2.416 0.421,2.416"
     id="path59" />
  <path
     style="fill:none;stroke:#231f20;stroke-width:0.565977;stroke-linecap:butt;stroke-linejoin:miter;stroke-miterlimit:4;stroke-dasharray:none;stroke-opacity:1"
     d="m 186.85203,102.56564 c 2.464,3.166 4.224,-0.515 4.599,-0.807 3.975,-3.052002 4.183,-3.375002 7.043,-5.912002 4.134,-3.661 6.405,-6.806999 4.973,-9.838999 -0.968,-2.057 -2.416,-2.822 -3.735,-2.738 -1.452,0.098 -4.176,1.738 -4.233,4.629 l -0.933,1.437 c -0.75,0.886 -1.115,1.328 -1.52,1.74 -0.71,0.707999 -1.423,1.510999 -2.724,2.974999 -2.308,2.599 -3.891,6.099002 -3.891,6.099002 -0.808,0.948 0.421,2.416 0.421,2.416 z"
     id="path60" />
  <path
     style="fill:#ca0369;fill-opacity:1;fill-rule:nonzero;stroke:none"
     d="m 203.24803,85.387639 c -1.301,-1.864 -2.858,-2.374 -4.136,-2.072 -1.421,0.334 -3.832,2.406 -3.41,5.266 l 6.218,4.733999 c 0.364,-0.546 0.672,-1.073 0.954,-1.589 0.057,-0.052 0.114,-0.104 0.177,-0.151 0.661,-0.452999 0.719,-1.076999 0.755,-2.113999 0.406,-1.5 0.286,-2.859 -0.558,-4.074"
     id="path61" />
  <path
     style="fill:none;stroke:#231f20;stroke-width:0.565977;stroke-linecap:butt;stroke-linejoin:miter;stroke-miterlimit:4;stroke-dasharray:none;stroke-opacity:1"
     d="m 203.24803,85.387639 c -1.301,-1.864 -2.858,-2.374 -4.136,-2.072 -1.421,0.334 -3.832,2.406 -3.41,5.266 l 6.218,4.733999 c 0.364,-0.546 0.672,-1.073 0.954,-1.589 0.057,-0.052 0.114,-0.104 0.177,-0.151 0.661,-0.452999 0.719,-1.076999 0.755,-2.113999 0.406,-1.5 0.286,-2.859 -0.558,-4.074 z"
     id="path62" />
  <path
     style="fill:#231f20;fill-opacity:1;fill-rule:nonzero;stroke:none"
     d="m 215.10303,52.591939 c 0.161,0.6254 -0.699,2.3694 -0.803,3.9734 -0.073,1.084 -1.353,3.516 -1.338,4.5999 0.005,0.9894 -0.083,1.4467 -1.219,1.6507 -0.667,0.1253 -2.041,-0.0733 -2.156,-0.5733 -0.271,-1.1614 -0.104,-2.0933 0.303,-3.0827 0.457,-1.1253 1.968,-4.068 2.296,-4.5893 0.828,-1.2813 0.75,-2.016 0.937,-2.3747 0.344,-0.6773 0.693,-0.7133 1.177,-0.584 0.927,0.2507 0.803,0.98 0.803,0.98"
     id="path63" />
  <path
     style="fill:none;stroke:#231f20;stroke-width:0.565977;stroke-linecap:butt;stroke-linejoin:miter;stroke-miterlimit:4;stroke-dasharray:none;stroke-opacity:1"
     d="m 215.10303,52.591939 c 0.161,0.6254 -0.699,2.3694 -0.803,3.9734 -0.073,1.084 -1.353,3.516 -1.338,4.5999 0.005,0.9894 -0.083,1.4467 -1.219,1.6507 -0.667,0.1253 -2.041,-0.0733 -2.156,-0.5733 -0.271,-1.1614 -0.104,-2.0933 0.303,-3.0827 0.457,-1.1253 1.968,-4.068 2.296,-4.5893 0.828,-1.2813 0.75,-2.016 0.937,-2.3747 0.344,-0.6773 0.693,-0.7133 1.177,-0.584 0.927,0.2507 0.803,0.98 0.803,0.98 z"
     id="path64" />
  <path
     style="fill:#231f20;fill-opacity:1;fill-rule:nonzero;stroke:none"
     d="m 212.28403,61.206639 c 1.183,0.5306 0.016,2.2026 -0.224,2.6866 -0.238,0.4907 -0.765,1.9534 -1.025,3.1464 -0.265,1.198 -1.104,2.578 -1.609,4.848 -0.266,1.194 -1.276,2.188 -2.99,1.73 -1.698,-0.452 -2.084,-1.578 -1.546,-2.974 0.541,-1.396 1.634,-2.478 2.276,-3.854 0.64,-1.364 1.166,-2.823 1.525,-3.979 0.407,-1.3227 1.099,-1.8227 1.579,-1.8694 1.186,-0.1253 2.014,0.2654 2.014,0.2654"
     id="path65" />
  <path
     style="fill:none;stroke:#231f20;stroke-width:0.565977;stroke-linecap:butt;stroke-linejoin:miter;stroke-miterlimit:4;stroke-dasharray:none;stroke-opacity:1"
     d="m 212.28403,61.206639 c 1.183,0.5306 0.016,2.2026 -0.224,2.6866 -0.238,0.4907 -0.765,1.9534 -1.025,3.1464 -0.265,1.198 -1.104,2.578 -1.609,4.848 -0.266,1.194 -1.276,2.188 -2.99,1.73 -1.698,-0.452 -2.084,-1.578 -1.546,-2.974 0.541,-1.396 1.634,-2.478 2.276,-3.854 0.64,-1.364 1.166,-2.823 1.525,-3.979 0.407,-1.3227 1.099,-1.8227 1.579,-1.8694 1.186,-0.1253 2.014,0.2654 2.014,0.2654 z"
     id="path66" />
  <path
     style="fill:#231f20;fill-opacity:1;fill-rule:nonzero;stroke:none"
     d="m 38.478028,104.90964 c -0.3026,-1.323 0.5214,-1.87 1.5521,-1.755 0.3068,0.031 0.6041,-0.256 0.9016,-0.199 0.6916,0.142 1.6145,1.62 0.5719,2.704 -0.0719,0.072 -0.4428,0.807 -0.7964,1.312 -0.7036,0.99 -2.5891,2.626 -5.2755,2.416 -1.2709,-0.098 -0.9803,-0.833 -0.4537,-0.946 1.6718,-0.371 1.7494,-0.73 2.1505,-0.986 1.3751,-0.858 1.3495,-2.546 1.3495,-2.546"
     id="path67" />
  <path
     style="fill:none;stroke:#231f20;stroke-width:0.332927;stroke-linecap:butt;stroke-linejoin:miter;stroke-miterlimit:4;stroke-dasharray:none;stroke-opacity:1"
     d="m 38.478028,104.90964 c -0.3026,-1.323 0.5214,-1.87 1.5521,-1.755 0.3068,0.031 0.6041,-0.256 0.9016,-0.199 0.6916,0.142 1.6145,1.62 0.5719,2.704 -0.0719,0.072 -0.4428,0.807 -0.7964,1.312 -0.7036,0.99 -2.5891,2.626 -5.2755,2.416 -1.2709,-0.098 -0.9803,-0.833 -0.4537,-0.946 1.6718,-0.371 1.7494,-0.73 2.1505,-0.986 1.3751,-0.858 1.3495,-2.546 1.3495,-2.546 z"
     id="path68" />
  <path
     style="fill:#231f20;fill-opacity:1;fill-rule:nonzero;stroke:none"
     d="m 51.686028,91.602638 c -1.536,-1.666999 -2.058,-1.780999 -2.806,-1.182999 -0.495,0.402 -1.095,0.604 -1.4072,0.834 -1.0468,0.764999 -2.4948,2.483999 -5.3172,8.431999 -0.6416,1.349002 -1.552,3.234002 -1.9854,3.974002 -0.687,1.172 1.7198,1.515 1.9959,1.062 0.8853,-1.474 1.6093,-2.411 2,-2.895 0.2656,-0.333 0.6613,-0.985 1.864,-2.141002 1.8169,-1.75 3.1719,-2.526 4.5159,-4.162 0.624,-0.754 1.577,-0.926 1.812,-1.984 0.235,-1.062 -0.672,-1.937 -0.672,-1.937"
     id="path69" />
  <path
     style="fill:none;stroke:#231f20;stroke-width:0.565977;stroke-linecap:butt;stroke-linejoin:miter;stroke-miterlimit:4;stroke-dasharray:none;stroke-opacity:1"
     d="m 51.686028,91.602638 c -1.536,-1.666999 -2.058,-1.780999 -2.806,-1.182999 -0.495,0.402 -1.095,0.604 -1.4072,0.834 -1.0468,0.764999 -2.4948,2.483999 -5.3172,8.431999 -0.6416,1.349002 -1.552,3.234002 -1.9854,3.974002 -0.687,1.172 1.7198,1.515 1.9959,1.062 0.8853,-1.474 1.6093,-2.411 2,-2.895 0.2656,-0.333 0.6613,-0.985 1.864,-2.141002 1.8169,-1.75 3.1719,-2.526 4.5159,-4.162 0.624,-0.754 1.577,-0.926 1.812,-1.984 0.235,-1.062 -0.672,-1.937 -0.672,-1.937 z"
     id="path70" />
  <path
     style="fill:#ca0369;fill-opacity:1;fill-rule:nonzero;stroke:none"
     d="m 64.499028,69.299639 c -1.51,2.746 -2.136,3.172 -2.86,3.74 -4.557,3.558 -2.723,5.73 0.011,6.635 3.219,1.079 4.349,1.532 6.853,-4.244 0.694,-1.615 4.167,-7.428 4.167,-7.428 1.521,-1.911 1.991,-4.5934 1.329,-5.8907 -0.698,-1.3693 -0.521,-0.776 -1.396,-1.9266 -0.833,-1.0934 -2.859,-1.916 -3.958,-1.3494 -1.052,0.548 -1.146,2.2147 -1.599,4.5947 -0.36,1.875 -2.547,5.869 -2.547,5.869"
     id="path71" />
  <path
     style="fill:none;stroke:#231f20;stroke-width:0.565977;stroke-linecap:butt;stroke-linejoin:miter;stroke-miterlimit:4;stroke-dasharray:none;stroke-opacity:1"
     d="m 64.499028,69.299639 c -1.51,2.746 -2.136,3.172 -2.86,3.74 -4.557,3.558 -2.723,5.73 0.011,6.635 3.219,1.079 4.349,1.532 6.853,-4.244 0.694,-1.615 4.167,-7.428 4.167,-7.428 1.521,-1.911 1.991,-4.5934 1.329,-5.8907 -0.698,-1.3693 -0.521,-0.776 -1.396,-1.9266 -0.833,-1.0934 -2.859,-1.916 -3.958,-1.3494 -1.052,0.548 -1.146,2.2147 -1.599,4.5947 -0.36,1.875 -2.547,5.869 -2.547,5.869 z"
     id="path72" />
  <path
     style="fill:#ffffff;fill-opacity:1;fill-rule:nonzero;stroke:none"
     d="m 77.691028,56.742639 c 0.167,-0.1773 1.183,0.36 1.459,-0.088 0.282,-0.4427 -0.26,-1.016 -0.032,-2.9947 l 0.005,-0.016 c 0.219,-1.4426 -0.172,-2.776 -1.176,-3.5213 -1.666,-1.2387 -4.386,-0.4107 -6.068,1.8547 -1.688,2.2653 -1.704,5.1093 -0.037,6.3493 1.595,1.1867 4.157,0.4733 5.849,-1.584"
     id="path73" />
  <path
     style="fill:none;stroke:#231f20;stroke-width:0.565977;stroke-linecap:butt;stroke-linejoin:miter;stroke-miterlimit:4;stroke-dasharray:none;stroke-opacity:1"
     d="m 77.691028,56.742639 c 0.167,-0.1773 1.183,0.36 1.459,-0.088 0.282,-0.4427 -0.26,-1.016 -0.032,-2.9947 l 0.005,-0.016 c 0.219,-1.4426 -0.172,-2.776 -1.176,-3.5213 -1.666,-1.2387 -4.386,-0.4107 -6.068,1.8547 -1.688,2.2653 -1.704,5.1093 -0.037,6.3493 1.595,1.1867 4.157,0.4733 5.849,-1.584 z"
     id="path74" />
  <path
     style="fill:#231f20;fill-opacity:1;fill-rule:nonzero;stroke:none"
     d="m 49.535028,92.815638 c 2.459,3.172 4.224,-0.51 4.599,-0.802 3.975,-3.057999 4.182,-3.374999 7.041,-5.910999 4.136,-3.667 6.407,-6.813 4.975,-9.844 -0.969,-2.052 -2.423,-2.817 -3.734,-2.735 -1.454,0.094 -4.178,1.735 -4.241,4.631 l -0.926,1.432 c -0.75,0.885 -1.121,1.333 -1.526,1.74 -0.709,0.708 -1.417,1.515 -2.719,2.979 -2.307,2.593 -3.895,6.093 -3.895,6.093 -0.803,0.948 0.426,2.416999 0.426,2.416999"
     id="path75" />
  <path
     style="fill:none;stroke:#231f20;stroke-width:0.565977;stroke-linecap:butt;stroke-linejoin:miter;stroke-miterlimit:4;stroke-dasharray:none;stroke-opacity:1"
     d="m 49.535028,92.815638 c 2.459,3.172 4.224,-0.51 4.599,-0.802 3.975,-3.057999 4.182,-3.374999 7.041,-5.910999 4.136,-3.667 6.407,-6.813 4.975,-9.844 -0.969,-2.052 -2.423,-2.817 -3.734,-2.735 -1.454,0.094 -4.178,1.735 -4.241,4.631 l -0.926,1.432 c -0.75,0.885 -1.121,1.333 -1.526,1.74 -0.709,0.708 -1.417,1.515 -2.719,2.979 -2.307,2.593 -3.895,6.093 -3.895,6.093 -0.803,0.948 0.426,2.416999 0.426,2.416999 z"
     id="path76" />
  <path
     style="fill:#ca0369;fill-opacity:1;fill-rule:nonzero;stroke:none"
     d="m 65.932028,75.643639 c -1.304,-1.865 -2.861,-2.374 -4.137,-2.078 -1.426,0.338 -3.838,2.412 -3.415,5.27 l 6.224,4.73 c 0.364,-0.547 0.671,-1.067 0.947,-1.588 0.063,-0.052 0.119,-0.104 0.176,-0.146 0.667,-0.458 0.719,-1.084 0.762,-2.114 0.405,-1.506 0.286,-2.866 -0.557,-4.074"
     id="path77" />
  <path
     style="fill:none;stroke:#231f20;stroke-width:0.565977;stroke-linecap:butt;stroke-linejoin:miter;stroke-miterlimit:4;stroke-dasharray:none;stroke-opacity:1"
     d="m 65.932028,75.643639 c -1.304,-1.865 -2.861,-2.374 -4.137,-2.078 -1.426,0.338 -3.838,2.412 -3.415,5.27 l 6.224,4.73 c 0.364,-0.547 0.671,-1.067 0.947,-1.588 0.063,-0.052 0.119,-0.104 0.176,-0.146 0.667,-0.458 0.719,-1.084 0.762,-2.114 0.405,-1.506 0.286,-2.866 -0.557,-4.074 z"
     id="path78" />
  <path
     style="fill:#231f20;fill-opacity:1;fill-rule:nonzero;stroke:none"
     d="m 77.779028,42.846639 c 0.168,0.62 -0.692,2.3654 -0.796,3.9747 -0.073,1.0826 -1.355,3.5093 -1.338,4.5933 0.005,0.9947 -0.084,1.448 -1.219,1.656 -0.672,0.12 -2.041,-0.0773 -2.156,-0.5773 -0.271,-1.1574 -0.104,-2.0894 0.301,-3.0787 0.459,-1.1307 1.969,-4.0733 2.298,-4.588 0.822,-1.2866 0.749,-2.016 0.937,-2.3813 0.344,-0.676 0.693,-0.708 1.177,-0.5773 0.927,0.244 0.796,0.9786 0.796,0.9786"
     id="path79" />
  <path
     style="fill:none;stroke:#231f20;stroke-width:0.565977;stroke-linecap:butt;stroke-linejoin:miter;stroke-miterlimit:4;stroke-dasharray:none;stroke-opacity:1"
     d="m 77.779028,42.846639 c 0.168,0.62 -0.692,2.3654 -0.796,3.9747 -0.073,1.0826 -1.355,3.5093 -1.338,4.5933 0.005,0.9947 -0.084,1.448 -1.219,1.656 -0.672,0.12 -2.041,-0.0773 -2.156,-0.5773 -0.271,-1.1574 -0.104,-2.0894 0.301,-3.0787 0.459,-1.1307 1.969,-4.0733 2.298,-4.588 0.822,-1.2866 0.749,-2.016 0.937,-2.3813 0.344,-0.676 0.693,-0.708 1.177,-0.5773 0.927,0.244 0.796,0.9786 0.796,0.9786 z"
     id="path80" />
  <path
     style="fill:#231f20;fill-opacity:1;fill-rule:nonzero;stroke:none"
     d="m 74.967028,51.455939 c 1.183,0.5374 0.016,2.204 -0.223,2.688 -0.241,0.4894 -0.766,1.9534 -1.026,3.1454 -0.267,1.1986 -1.104,2.5786 -1.609,4.8493 -0.267,1.1973 -1.276,2.192 -2.996,1.7293 -1.692,-0.4533 -2.078,-1.5787 -1.542,-2.9747 0.542,-1.3946 1.636,-2.4786 2.276,-3.8479 0.642,-1.3707 1.167,-2.824 1.527,-3.9854 0.405,-1.3173 1.099,-1.8226 1.573,-1.8693 1.192,-0.1253 2.02,0.2653 2.02,0.2653"
     id="path81" />
  <path
     style="fill:none;stroke:#231f20;stroke-width:0.565977;stroke-linecap:butt;stroke-linejoin:miter;stroke-miterlimit:4;stroke-dasharray:none;stroke-opacity:1"
     d="m 74.967028,51.455939 c 1.183,0.5374 0.016,2.204 -0.223,2.688 -0.241,0.4894 -0.766,1.9534 -1.026,3.1454 -0.267,1.1986 -1.104,2.5786 -1.609,4.8493 -0.267,1.1973 -1.276,2.192 -2.996,1.7293 -1.692,-0.4533 -2.078,-1.5787 -1.542,-2.9747 0.542,-1.3946 1.636,-2.4786 2.276,-3.8479 0.642,-1.3707 1.167,-2.824 1.527,-3.9854 0.405,-1.3173 1.099,-1.8226 1.573,-1.8693 1.192,-0.1253 2.02,0.2653 2.02,0.2653 z"
     id="path82" />
  <path
     style="fill:#231f20;fill-opacity:1;fill-rule:nonzero;stroke:none"
     d="m 75.770028,42.008039 c -0.489,-0.5 0.244,-2.692 0.567,-2.692 0.313,-0.0054 -0.004,0.692 0.349,0.708 0.36,0.0106 0.495,-0.4694 0.713,-0.4014 0.24,0.0787 -0.014,0.6254 0.287,0.6614 0.13,0.016 0.552,-0.4 0.708,-0.2907 0.136,0.0987 0.12,0.624 0.224,0.708 0.167,0.1307 0.475,-0.4013 0.626,-0.308 0.39,0.256 -1.266,2.4067 -1.511,2.4227 -0.348,0.0253 -1.172,-0.0054 -1.963,-0.808"
     id="path83" />
  <path
     style="fill:none;stroke:#231f20;stroke-width:0.565977;stroke-linecap:round;stroke-linejoin:round;stroke-miterlimit:4;stroke-dasharray:none;stroke-opacity:1"
     d="m 75.770028,42.008039 c -0.489,-0.5 0.244,-2.692 0.567,-2.692 0.313,-0.0054 -0.004,0.692 0.349,0.708 0.36,0.0106 0.495,-0.4694 0.713,-0.4014 0.24,0.0787 -0.014,0.6254 0.287,0.6614 0.13,0.016 0.552,-0.4 0.708,-0.2907 0.136,0.0987 0.12,0.624 0.224,0.708 0.167,0.1307 0.475,-0.4013 0.626,-0.308 0.39,0.256 -1.266,2.4067 -1.511,2.4227 -0.348,0.0253 -1.172,-0.0054 -1.963,-0.808 z"
     id="path84" />
  <path
     style="fill:#231f20;fill-opacity:1;fill-rule:nonzero;stroke:none"
     d="m 243.87403,151.86764 c -1.027,-0.333 -0.464,-1.453 0.073,-2.552 0.135,-0.281 0.233,-0.552 0.389,-0.813 0.626,-1.052 1.584,-1.479 2.896,1.214 0.052,0.099 1.527,1.714 2.016,2.094 2.36,1.833 2.782,1.104 2.36,1.833 -0.286,0.479 -0.776,0.359 -1.385,0.197 -0.829,-0.224 -3.667,-1.254 -4.115,-1.38 -0.433,-0.125 -2.234,-0.593 -2.234,-0.593"
     id="path85" />
  <path
     style="fill:none;stroke:#231f20;stroke-width:0.565977;stroke-linecap:butt;stroke-linejoin:miter;stroke-miterlimit:4;stroke-dasharray:none;stroke-opacity:1"
     d="m 243.87403,151.86764 c -1.027,-0.333 -0.464,-1.453 0.073,-2.552 0.135,-0.281 0.233,-0.552 0.389,-0.813 0.626,-1.052 1.584,-1.479 2.896,1.214 0.052,0.099 1.527,1.714 2.016,2.094 2.36,1.833 2.782,1.104 2.36,1.833 -0.286,0.479 -0.776,0.359 -1.385,0.197 -0.829,-0.224 -3.667,-1.254 -4.115,-1.38 -0.433,-0.125 -2.234,-0.593 -2.234,-0.593 z"
     id="path87" />
  <path
     style="fill:#231f20;fill-opacity:1;fill-rule:nonzero;stroke:none"
     d="m 250.46203,133.12264 c -2.058,-0.954 -2.583,-0.859 -3.047,-0.02 -0.307,0.561 -0.781,0.978 -0.984,1.312 -0.672,1.109 -1.349,3.245 -1.688,9.822 -0.077,1.49 -0.197,3.584 -0.312,4.432 -0.188,1.344 2.172,0.746 2.249,0.219 0.256,-1.697 0.563,-2.843 0.74,-3.443 0.12,-0.41 0.235,-1.166 0.902,-2.686 1.014,-2.314 1.962,-3.552 2.582,-5.574 0.292,-0.937 1.099,-1.464 0.918,-2.53 -0.188,-1.068 -1.36,-1.532 -1.36,-1.532"
     id="path89" />
  <path
     style="fill:none;stroke:#231f20;stroke-width:0.565977;stroke-linecap:butt;stroke-linejoin:miter;stroke-miterlimit:4;stroke-dasharray:none;stroke-opacity:1"
     d="m 250.46203,133.12264 c -2.058,-0.954 -2.583,-0.859 -3.047,-0.02 -0.307,0.561 -0.781,0.978 -0.984,1.312 -0.672,1.109 -1.349,3.245 -1.688,9.822 -0.077,1.49 -0.197,3.584 -0.312,4.432 -0.188,1.344 2.172,0.746 2.249,0.219 0.256,-1.697 0.563,-2.843 0.74,-3.443 0.12,-0.41 0.235,-1.166 0.902,-2.686 1.014,-2.314 1.962,-3.552 2.582,-5.574 0.292,-0.937 1.099,-1.464 0.918,-2.53 -0.188,-1.068 -1.36,-1.532 -1.36,-1.532 z"
     id="path90" />
  <path
     style="fill:#ca0369;fill-opacity:1;fill-rule:nonzero;stroke:none"
     d="m 237.39403,110.69564 c -0.348,3.115 -0.766,3.746 -1.219,4.547 -2.848,5.032 -0.323,6.333 2.552,6.13 3.385,-0.234 4.605,-0.25 4.704,-6.546 0.031,-1.751 1.015,-8.453 1.015,-8.453 0.677,-2.35 0.084,-5.006 -1.026,-5.948 -1.166,-1.000002 -0.776,-0.522002 -2.026,-1.251002 -1.187,-0.692 -3.37,-0.676 -4.171,0.267 -0.767,0.910002 -0.215,2.484002 0.276,4.858002 0.391,1.87 -0.105,6.396 -0.105,6.396"
     id="path91" />
  <path
     style="fill:none;stroke:#231f20;stroke-width:0.565977;stroke-linecap:butt;stroke-linejoin:miter;stroke-miterlimit:4;stroke-dasharray:none;stroke-opacity:1"
     d="m 237.39403,110.69564 c -0.348,3.115 -0.766,3.746 -1.219,4.547 -2.848,5.032 -0.323,6.333 2.552,6.13 3.385,-0.234 4.605,-0.25 4.704,-6.546 0.031,-1.751 1.015,-8.453 1.015,-8.453 0.677,-2.35 0.084,-5.006 -1.026,-5.948 -1.166,-1.000002 -0.776,-0.522002 -2.026,-1.251002 -1.187,-0.692 -3.37,-0.676 -4.171,0.267 -0.767,0.910002 -0.215,2.484002 0.276,4.858002 0.391,1.87 -0.105,6.396 -0.105,6.396 z"
     id="path92" />
  <path
     style="fill:#231f20;fill-opacity:1;fill-rule:nonzero;stroke:none"
     d="m 259.68003,103.62264 c -0.552,0.328 -2.468,-0.011 -4.041,0.333 -1.057,0.235 -3.745,-0.322 -4.787,-0.01 -0.948,0.286 -1.41,0.329 -1.926,-0.708 -0.303,-0.61 -0.49,-1.979 -0.042,-2.23 1.036,-0.577 1.979,-0.677 3.047,-0.566 1.203,0.124 4.453,0.765 5.041,0.937 1.464,0.432 2.146,0.156 2.542,0.233 0.75,0.147 0.876,0.47 0.89,0.975 0.016,0.953 -0.724,1.036 -0.724,1.036"
     id="path93" />
  <path
     style="fill:none;stroke:#231f20;stroke-width:0.565977;stroke-linecap:butt;stroke-linejoin:miter;stroke-miterlimit:4;stroke-dasharray:none;stroke-opacity:1"
     d="m 259.68003,103.62264 c -0.552,0.328 -2.468,-0.011 -4.041,0.333 -1.057,0.235 -3.745,-0.322 -4.787,-0.01 -0.948,0.286 -1.41,0.329 -1.926,-0.708 -0.303,-0.61 -0.49,-1.979 -0.042,-2.23 1.036,-0.577 1.979,-0.677 3.047,-0.566 1.203,0.124 4.453,0.765 5.041,0.937 1.464,0.432 2.146,0.156 2.542,0.233 0.75,0.147 0.876,0.47 0.89,0.975 0.016,0.953 -0.724,1.036 -0.724,1.036 z"
     id="path94" />
  <path
     style="fill:#231f20;fill-opacity:1;fill-rule:nonzero;stroke:none"
     d="m 250.62803,103.31064 c -0.186,1.281 -2.114,0.631 -2.645,0.531 -0.537,-0.094 -2.089,-0.192 -3.308,-0.115 -1.224,0.084 -2.781,-0.339 -5.104,-0.192 -1.219,0.073 -2.459,-0.62 -2.495,-2.396 -0.03,-1.755002 0.938,-2.437002 2.427,-2.307002 1.496,0.124 2.839,0.88 4.333,1.114 1.496,0.234002 3.038,0.338002 4.251,0.360002 1.385,0.025 2.057,0.546 2.24,0.989 0.443,1.109 0.301,2.016 0.301,2.016"
     id="path95" />
  <path
     style="fill:none;stroke:#231f20;stroke-width:0.565977;stroke-linecap:butt;stroke-linejoin:miter;stroke-miterlimit:4;stroke-dasharray:none;stroke-opacity:1"
     d="m 250.62803,103.31064 c -0.186,1.281 -2.114,0.631 -2.645,0.531 -0.537,-0.094 -2.089,-0.192 -3.308,-0.115 -1.224,0.084 -2.781,-0.339 -5.104,-0.192 -1.219,0.073 -2.459,-0.62 -2.495,-2.396 -0.03,-1.755002 0.938,-2.437002 2.427,-2.307002 1.496,0.124 2.839,0.88 4.333,1.114 1.496,0.234002 3.038,0.338002 4.251,0.360002 1.385,0.025 2.057,0.546 2.24,0.989 0.443,1.109 0.301,2.016 0.301,2.016 z"
     id="path96" />
  <path
     style="fill:#231f20;fill-opacity:1;fill-rule:nonzero;stroke:none"
     d="m 266.62803,103.95564 c -0.692,0.214 -3.942,0.084 -4.681,0.022 -0.663,-0.052 -1.787,0.218 -2.199,-0.866 -0.161,-0.432 -0.098,-1.186 0.011,-1.489 0.088,-0.239 0.407,-0.323 0.797,-0.249 0.662,0.114 0.802,0.405 2.047,0.702 0,0 0.281,0.11 0.776,0.35 1.473,0.692 0.76,0.525 3.12,1.057 0.171,0.036 0.255,0.235 0.219,0.349 -0.052,0.166 -0.09,0.124 -0.09,0.124"
     id="path97" />
  <path
     style="fill:none;stroke:#231f20;stroke-width:0.565977;stroke-linecap:round;stroke-linejoin:round;stroke-miterlimit:4;stroke-dasharray:none;stroke-opacity:1"
     d="m 266.62803,103.95564 c -0.692,0.214 -3.942,0.084 -4.681,0.022 -0.663,-0.052 -1.787,0.218 -2.199,-0.866 -0.161,-0.432 -0.098,-1.186 0.011,-1.489 0.088,-0.239 0.407,-0.323 0.797,-0.249 0.662,0.114 0.802,0.405 2.047,0.702 0,0 0.281,0.11 0.776,0.35 1.473,0.692 0.76,0.525 3.12,1.057 0.171,0.036 0.255,0.235 0.219,0.349 -0.052,0.166 -0.09,0.124 -0.09,0.124 z"
     id="path98" />
  <path
     style="fill:#231f20;fill-opacity:1;fill-rule:nonzero;stroke:none"
     d="m 216.47803,45.300039 c -0.552,0.4746 -2.151,3.3026 -2.49,3.9693 -0.302,0.588 -1.125,1.4053 -0.422,2.3226 0.286,0.3694 0.958,0.708 1.276,0.776 0.25,0.052 0.485,-0.1773 0.636,-0.552 0.245,-0.62 0.073,-0.8906 0.478,-2.104 0,0 0.052,-0.2973 0.11,-0.844 0.182,-1.6199 -0.047,-0.9266 0.74,-3.2133 0.057,-0.1613 -0.063,-0.3386 -0.178,-0.3653 -0.177,-0.0467 -0.15,0.0107 -0.15,0.0107"
     id="path99" />
  <path
     style="fill:none;stroke:#231f20;stroke-width:0.565977;stroke-linecap:round;stroke-linejoin:round;stroke-miterlimit:4;stroke-dasharray:none;stroke-opacity:1"
     d="m 216.47803,45.300039 c -0.552,0.4746 -2.151,3.3026 -2.49,3.9693 -0.302,0.588 -1.125,1.4053 -0.422,2.3226 0.286,0.3694 0.958,0.708 1.276,0.776 0.25,0.052 0.485,-0.1773 0.636,-0.552 0.245,-0.62 0.073,-0.8906 0.478,-2.104 0,0 0.052,-0.2973 0.11,-0.844 0.182,-1.6199 -0.047,-0.9266 0.74,-3.2133 0.057,-0.1613 -0.063,-0.3386 -0.178,-0.3653 -0.177,-0.0467 -0.15,0.0107 -0.15,0.0107 z"
     id="path100" />
  <path
     style="fill:#ffffff;fill-opacity:1;fill-rule:nonzero;stroke:none"
     d="m 244.33603,93.461638 c 0.068,-0.235 1.22,-0.219 1.267,-0.74 0.047,-0.52 -0.693,-0.786 -1.38,-2.655999 l -0.005,-0.02 c -0.454,-1.386 -1.402,-2.396 -2.636,-2.61 -2.047,-0.36 -4.099,1.61 -4.583,4.390999 -0.485,2.781 0.78,5.328 2.828,5.681 1.957,0.344 3.927,-1.453 4.509,-4.046"
     id="path101" />
  <path
     style="fill:none;stroke:#231f20;stroke-width:0.565977;stroke-linecap:butt;stroke-linejoin:miter;stroke-miterlimit:4;stroke-dasharray:none;stroke-opacity:1"
     d="m 244.33603,93.461638 c 0.068,-0.235 1.22,-0.219 1.267,-0.74 0.047,-0.52 -0.693,-0.786 -1.38,-2.655999 l -0.005,-0.02 c -0.454,-1.386 -1.402,-2.396 -2.636,-2.61 -2.047,-0.36 -4.099,1.61 -4.583,4.390999 -0.485,2.781 0.78,5.328 2.828,5.681 1.957,0.344 3.927,-1.453 4.509,-4.046 z"
     id="path102" />
  <path
     style="fill:#231f20;fill-opacity:1;fill-rule:nonzero;stroke:none"
     d="m 249.39903,135.48764 c 3.756,-1.412 0.761,-4.183 0.595,-4.631 -1.735,-4.697 -1.986,-4.994 -3.558,-8.473 -2.276,-5.037 -4.609,-8.141 -7.928,-7.672 -2.249,0.323 -3.405,1.479 -3.718,2.755 -0.339,1.421 0.422,4.51 3.161,5.421 l 1.1,1.313 c 0.619,0.984 0.937,1.463 1.208,1.974 0.468,0.885 1.025,1.802 2.041,3.48 1.792,2.968 4.662,5.525 4.662,5.525 0.672,1.047 2.437,0.308 2.437,0.308"
     id="path103" />
  <path
     style="fill:none;stroke:#231f20;stroke-width:0.565977;stroke-linecap:butt;stroke-linejoin:miter;stroke-miterlimit:4;stroke-dasharray:none;stroke-opacity:1"
     d="m 249.39903,135.48764 c 3.756,-1.412 0.761,-4.183 0.595,-4.631 -1.735,-4.697 -1.986,-4.994 -3.558,-8.473 -2.276,-5.037 -4.609,-8.141 -7.928,-7.672 -2.249,0.323 -3.405,1.479 -3.718,2.755 -0.339,1.421 0.422,4.51 3.161,5.421 l 1.1,1.313 c 0.619,0.984 0.937,1.463 1.208,1.974 0.468,0.885 1.025,1.802 2.041,3.48 1.792,2.968 4.662,5.525 4.662,5.525 0.672,1.047 2.437,0.308 2.437,0.308 z"
     id="path104" />
  <path
     style="fill:#ca0369;fill-opacity:1;fill-rule:nonzero;stroke:none"
     d="m 243.99403,117.90964 c -0.022,-0.078 -0.043,-0.151 -0.052,-0.224 -0.106,-0.798 -0.642,-1.126 -1.543,-1.631 -1.161,-1.041 -2.427,-1.547 -3.891,-1.337 -2.249,0.317 -3.405,1.473 -3.718,2.749 -0.339,1.421 0.422,4.51 3.161,5.421 l 7.032,-3.416 c -0.323,-0.568 -0.651,-1.078 -0.989,-1.562"
     id="path105" />
  <path
     style="fill:none;stroke:#231f20;stroke-width:0.565977;stroke-linecap:butt;stroke-linejoin:miter;stroke-miterlimit:4;stroke-dasharray:none;stroke-opacity:1"
     d="m 243.99403,117.90964 c -0.022,-0.078 -0.043,-0.151 -0.052,-0.224 -0.106,-0.798 -0.642,-1.126 -1.543,-1.631 -1.161,-1.041 -2.427,-1.547 -3.891,-1.337 -2.249,0.317 -3.405,1.473 -3.718,2.749 -0.339,1.421 0.422,4.51 3.161,5.421 l 7.032,-3.416 c -0.323,-0.568 -0.651,-1.078 -0.989,-1.562 z"
     id="path106" />
  <path
     style="fill:#231f20;fill-opacity:1;fill-rule:nonzero;stroke:none"
     d="m 289.25303,153.78364 c -1.084,-0.057 -0.822,-1.285 -0.584,-2.489 0.063,-0.302 0.09,-0.588 0.172,-0.88 0.339,-1.183 1.162,-1.834 3.11,0.437 0.073,0.084 1.912,1.265 2.485,1.516 2.739,1.167 2.968,0.359 2.739,1.167 -0.146,0.541 -0.656,0.552 -1.282,0.546 -0.853,-0.005 -3.869,-0.276 -4.333,-0.292 -0.448,-0.01 -2.307,-0.005 -2.307,-0.005"
     id="path107" />
  <path
     style="fill:none;stroke:#231f20;stroke-width:0.565977;stroke-linecap:butt;stroke-linejoin:miter;stroke-miterlimit:4;stroke-dasharray:none;stroke-opacity:1"
     d="m 289.25303,153.78364 c -1.084,-0.057 -0.822,-1.285 -0.584,-2.489 0.063,-0.302 0.09,-0.588 0.172,-0.88 0.339,-1.183 1.162,-1.834 3.11,0.437 0.073,0.084 1.912,1.265 2.485,1.516 2.739,1.167 2.968,0.359 2.739,1.167 -0.146,0.541 -0.656,0.552 -1.282,0.546 -0.853,-0.005 -3.869,-0.276 -4.333,-0.292 -0.448,-0.01 -2.307,-0.005 -2.307,-0.005 z"
     id="path109" />
  <path
     style="fill:#231f20;fill-opacity:1;fill-rule:nonzero;stroke:none"
     d="m 290.85703,133.98264 c -2.229,-0.396 -2.713,-0.172 -2.948,0.754 -0.15,0.62 -0.505,1.142 -0.62,1.511 -0.369,1.251 -0.484,3.489 0.866,9.937 0.301,1.459 0.718,3.516 0.817,4.366 0.161,1.348 2.292,0.166 2.235,-0.36 -0.183,-1.703 -0.178,-2.896 -0.156,-3.516 0.009,-0.427 -0.074,-1.187 0.186,-2.834 0.396,-2.494 1,-3.932 1.09,-6.041 0.036,-0.984 0.686,-1.697 0.238,-2.683 -0.453,-0.984 -1.708,-1.134 -1.708,-1.134"
     id="path111" />
  <path
     style="fill:none;stroke:#231f20;stroke-width:0.565977;stroke-linecap:butt;stroke-linejoin:miter;stroke-miterlimit:4;stroke-dasharray:none;stroke-opacity:1"
     d="m 290.85703,133.98264 c -2.229,-0.396 -2.713,-0.172 -2.948,0.754 -0.15,0.62 -0.505,1.142 -0.62,1.511 -0.369,1.251 -0.484,3.489 0.866,9.937 0.301,1.459 0.718,3.516 0.817,4.366 0.161,1.348 2.292,0.166 2.235,-0.36 -0.183,-1.703 -0.178,-2.896 -0.156,-3.516 0.009,-0.427 -0.074,-1.187 0.186,-2.834 0.396,-2.494 1,-3.932 1.09,-6.041 0.036,-0.984 0.686,-1.697 0.238,-2.683 -0.453,-0.984 -1.708,-1.134 -1.708,-1.134 z"
     id="path112" />
  <path
     style="fill:#ca0369;fill-opacity:1;fill-rule:nonzero;stroke:none"
     d="m 288.90403,108.05964 c -0.068,3.136 -0.427,3.798 -0.807,4.636 -2.385,5.266 0.239,6.339 3.088,5.88 3.35,-0.536 4.563,-0.661 4.099,-6.942 -0.124,-1.746 0.256,-8.511 0.256,-8.511 0.463,-2.401 -0.365,-4.989002 -1.552,-5.833002 -1.251,-0.891 -0.819,-0.448 -2.131,-1.063 -1.244,-0.583 -3.421,-0.375 -4.13,0.641 -0.682,0.968 0.01,2.49 0.709,4.812002 0.552,1.828 0.468,6.38 0.468,6.38"
     id="path113" />
  <path
     style="fill:none;stroke:#231f20;stroke-width:0.565977;stroke-linecap:butt;stroke-linejoin:miter;stroke-miterlimit:4;stroke-dasharray:none;stroke-opacity:1"
     d="m 288.90403,108.05964 c -0.068,3.136 -0.427,3.798 -0.807,4.636 -2.385,5.266 0.239,6.339 3.088,5.88 3.35,-0.536 4.563,-0.661 4.099,-6.942 -0.124,-1.746 0.256,-8.511 0.256,-8.511 0.463,-2.401 -0.365,-4.989002 -1.552,-5.833002 -1.251,-0.891 -0.819,-0.448 -2.131,-1.063 -1.244,-0.583 -3.421,-0.375 -4.13,0.641 -0.682,0.968 0.01,2.49 0.709,4.812002 0.552,1.828 0.468,6.38 0.468,6.38 z"
     id="path114" />
  <path
     style="fill:#ffffff;fill-opacity:1;fill-rule:nonzero;stroke:none"
     d="m 294.28003,90.274639 c 0.047,-0.24 1.192,-0.329 1.192,-0.849 0,-0.527 -0.76,-0.724 -1.609,-2.527 l -0.011,-0.02 c -0.572,-1.333 -1.609,-2.261 -2.859,-2.36 -2.068,-0.172 -3.937,1.969 -4.172,4.781 -0.229,2.817999 1.26,5.234999 3.328,5.406999 1.979,0.167 3.776,-1.797 4.131,-4.431999"
     id="path115" />
  <path
     style="fill:none;stroke:#231f20;stroke-width:0.565977;stroke-linecap:butt;stroke-linejoin:miter;stroke-miterlimit:4;stroke-dasharray:none;stroke-opacity:1"
     d="m 294.28003,90.274639 c 0.047,-0.24 1.192,-0.329 1.192,-0.849 0,-0.527 -0.76,-0.724 -1.609,-2.527 l -0.011,-0.02 c -0.572,-1.333 -1.609,-2.261 -2.859,-2.36 -2.068,-0.172 -3.937,1.969 -4.172,4.781 -0.229,2.817999 1.26,5.234999 3.328,5.406999 1.979,0.167 3.776,-1.797 4.131,-4.431999 z"
     id="path116" />
  <path
     style="fill:#231f20;fill-opacity:1;fill-rule:nonzero;stroke:none"
     d="m 289.87903,136.25264 c 3.874,1.036 3.052,-2.964 3.177,-3.421 1.323,-4.835 1.296,-5.215 2.036,-8.969 1.083,-5.417 0.989,-9.297 -1.984,-10.844 -2.016,-1.052 -3.631,-0.781 -4.625,0.079 -1.104,0.953 -2.282,3.905 -0.584,6.244 l 0.125,1.709 c -0.063,1.161 -0.083,1.738 -0.161,2.306 -0.136,0.995 -0.214,2.068 -0.364,4.016 -0.272,3.459 0.577,7.208 0.577,7.208 -0.063,1.246 1.803,1.672 1.803,1.672"
     id="path117" />
  <path
     style="fill:none;stroke:#231f20;stroke-width:0.565977;stroke-linecap:butt;stroke-linejoin:miter;stroke-miterlimit:4;stroke-dasharray:none;stroke-opacity:1"
     d="m 289.87903,136.25264 c 3.874,1.036 3.052,-2.964 3.177,-3.421 1.323,-4.835 1.296,-5.215 2.036,-8.969 1.083,-5.417 0.989,-9.297 -1.984,-10.844 -2.016,-1.052 -3.631,-0.781 -4.625,0.079 -1.104,0.953 -2.282,3.905 -0.584,6.244 l 0.125,1.709 c -0.063,1.161 -0.083,1.738 -0.161,2.306 -0.136,0.995 -0.214,2.068 -0.364,4.016 -0.272,3.459 0.577,7.208 0.577,7.208 -0.063,1.246 1.803,1.672 1.803,1.672 z"
     id="path118" />
  <path
     style="fill:#ca0369;fill-opacity:1;fill-rule:nonzero;stroke:none"
     d="m 295.49303,116.36764 c -0.338,-1.521 -1.073,-2.666 -2.385,-3.349 -2.016,-1.052 -3.631,-0.781 -4.625,0.079 -1.104,0.953 -2.282,3.905 -0.584,6.244 l 7.704,1.313 c 0.072,-0.652 0.098,-1.261 0.109,-1.849 0.025,-0.074 0.052,-0.146 0.088,-0.208 0.375,-0.714 0.131,-1.292 -0.307,-2.23"
     id="path119" />
  <path
     style="fill:none;stroke:#231f20;stroke-width:0.565977;stroke-linecap:butt;stroke-linejoin:miter;stroke-miterlimit:4;stroke-dasharray:none;stroke-opacity:1"
     d="m 295.49303,116.36764 c -0.338,-1.521 -1.073,-2.666 -2.385,-3.349 -2.016,-1.052 -3.631,-0.781 -4.625,0.079 -1.104,0.953 -2.282,3.905 -0.584,6.244 l 7.704,1.313 c 0.072,-0.652 0.098,-1.261 0.109,-1.849 0.025,-0.074 0.052,-0.146 0.088,-0.208 0.375,-0.714 0.131,-1.292 -0.307,-2.23 z"
     id="path120" />
  <path
     style="fill:#231f20;fill-opacity:1;fill-rule:nonzero;stroke:none"
     d="m 291.36303,78.507639 c 0.385,0.516 0.229,2.459 0.724,3.991 0.333,1.031 0.041,3.76 0.448,4.765 0.374,0.922 0.464,1.375 -0.516,1.984 -0.578,0.364 -1.927,0.683 -2.219,0.266 -0.677,-0.984 -0.864,-1.911 -0.859,-2.979 0.01,-1.213 0.334,-4.511 0.448,-5.115 0.291,-1.494 -0.048,-2.15 -0.01,-2.552 0.072,-0.756 0.385,-0.917 0.885,-0.974 0.948,-0.11 1.099,0.614 1.099,0.614"
     id="path121" />
  <path
     style="fill:none;stroke:#231f20;stroke-width:0.565977;stroke-linecap:butt;stroke-linejoin:miter;stroke-miterlimit:4;stroke-dasharray:none;stroke-opacity:1"
     d="m 291.36303,78.507639 c 0.385,0.516 0.229,2.459 0.724,3.991 0.333,1.031 0.041,3.76 0.448,4.765 0.374,0.922 0.464,1.375 -0.516,1.984 -0.578,0.364 -1.927,0.683 -2.219,0.266 -0.677,-0.984 -0.864,-1.911 -0.859,-2.979 0.01,-1.213 0.334,-4.511 0.448,-5.115 0.291,-1.494 -0.048,-2.15 -0.01,-2.552 0.072,-0.756 0.385,-0.917 0.885,-0.974 0.948,-0.11 1.099,0.614 1.099,0.614 z"
     id="path122" />
  <path
     style="fill:#231f20;fill-opacity:1;fill-rule:nonzero;stroke:none"
     d="m 291.92503,87.550639 c 1.292,0.061 0.828,2.041 0.787,2.583 -0.043,0.541 0.011,2.097999 0.203,3.301999 0.193,1.214 -0.074,2.802 0.292,5.099 0.197,1.208 -0.38,2.505002 -2.142,2.713002 -1.744,0.203 -2.52,-0.702 -2.53,-2.197002 -0.016,-1.496 0.604,-2.907 0.692,-4.417 0.094,-1.511 0.048,-3.058 -0.052,-4.265999 -0.11,-1.38 0.349,-2.098 0.776,-2.322 1.057,-0.552 1.974,-0.495 1.974,-0.495"
     id="path123" />
  <path
     style="fill:none;stroke:#231f20;stroke-width:0.565977;stroke-linecap:butt;stroke-linejoin:miter;stroke-miterlimit:4;stroke-dasharray:none;stroke-opacity:1"
     d="m 291.92503,87.550639 c 1.292,0.061 0.828,2.041 0.787,2.583 -0.043,0.541 0.011,2.097999 0.203,3.301999 0.193,1.214 -0.074,2.802 0.292,5.099 0.197,1.208 -0.38,2.505002 -2.142,2.713002 -1.744,0.203 -2.52,-0.702 -2.53,-2.197002 -0.016,-1.496 0.604,-2.907 0.692,-4.417 0.094,-1.511 0.048,-3.058 -0.052,-4.265999 -0.11,-1.38 0.349,-2.098 0.776,-2.322 1.057,-0.552 1.974,-0.495 1.974,-0.495 z"
     id="path124" />
  <path
     style="fill:#231f20;fill-opacity:1;fill-rule:nonzero;stroke:none"
     d="m 291.02403,71.565639 c 0.287,0.666 0.469,3.912 0.479,4.656 0.01,0.662 0.386,1.761 -0.651,2.266 -0.416,0.208 -1.177,0.219 -1.484,0.14 -0.251,-0.068 -0.36,-0.38 -0.328,-0.776 0.052,-0.666 0.328,-0.833 0.505,-2.098 0,0 0.083,-0.292 0.271,-0.808 0.552,-1.536 0.453,-0.807 0.749,-3.208 0.027,-0.178 0.214,-0.276 0.328,-0.25 0.172,0.036 0.131,0.078 0.131,0.078"
     id="path125" />
  <path
     style="fill:none;stroke:#231f20;stroke-width:0.565977;stroke-linecap:round;stroke-linejoin:round;stroke-miterlimit:4;stroke-dasharray:none;stroke-opacity:1"
     d="m 291.02403,71.565639 c 0.287,0.666 0.469,3.912 0.479,4.656 0.01,0.662 0.386,1.761 -0.651,2.266 -0.416,0.208 -1.177,0.219 -1.484,0.14 -0.251,-0.068 -0.36,-0.38 -0.328,-0.776 0.052,-0.666 0.328,-0.833 0.505,-2.098 0,0 0.083,-0.292 0.271,-0.808 0.552,-1.536 0.453,-0.807 0.749,-3.208 0.027,-0.178 0.214,-0.276 0.328,-0.25 0.172,0.036 0.131,0.078 0.131,0.078 z"
     id="path126" />
</svg>
