<?xml version="1.0" encoding="UTF-8" standalone="no"?>
<!-- Created with Inkscape (http://www.inkscape.org/) -->

<svg
   version="1.1"
   id="svg1"
   width="246.9502"
   height="167.02853"
   viewBox="0 0 246.95019 167.02853"
   sodipodi:docname="cell.svg"
   xmlns:inkscape="http://www.inkscape.org/namespaces/inkscape"
   xmlns:sodipodi="http://sodipodi.sourceforge.net/DTD/sodipodi-0.dtd"
   xmlns="http://www.w3.org/2000/svg"
   xmlns:svg="http://www.w3.org/2000/svg">
  <sodipodi:namedview
     id="namedview1"
     pagecolor="#ffffff"
     bordercolor="#000000"
     borderopacity="0.25"
     inkscape:showpageshadow="2"
     inkscape:pageopacity="0.0"
     inkscape:pagecheckerboard="0"
     inkscape:deskcolor="#d1d1d1">
    <inkscape:page
       x="0"
       y="0"
       inkscape:label="1"
       id="page1"
       width="246.9502"
       height="167.02853"
       margin="0"
       bleed="0" />
  </sodipodi:namedview>
  <defs
     id="defs1" />
  <path
     style="fill:#ffffff;fill-opacity:1;fill-rule:nonzero;stroke:#231f20;stroke-width:0.665856;stroke-linecap:butt;stroke-linejoin:miter;stroke-miterlimit:4;stroke-dasharray:none;stroke-opacity:1"
     d="m 14.723629,13.624672 -8.3332995,35.271 1.2975,0.296 8.3384995,-35.266 z"
     id="path337" />
  <path
     style="fill:#ffffff;fill-opacity:1;fill-rule:nonzero;stroke:none"
     d="m 1.7716295,52.895672 c 0.5307,-2.292 2.8228,-3.73 5.1135,-3.204 2.2974,0.526 3.7343995,2.824 3.2092995,5.114 -0.5270995,2.292 -2.8185995,3.735 -5.1201995,3.21 -2.2864,-0.527 -3.7292,-2.824 -3.2026,-5.12 m -1.29740003,-0.298 c -0.688,3.011 1.19740003,6.022 4.20840003,6.714 3.0104,0.693 6.0212995,-1.198 6.7076995,-4.208 0.6932,-3.011 -1.1922,-6.016 -4.2076995,-6.708 -3.0058,-0.694 -6.0204,1.192 -6.70840003,4.202"
     id="path338" />
  <path
     style="fill:none;stroke:#231f20;stroke-width:0.665856;stroke-linecap:butt;stroke-linejoin:miter;stroke-miterlimit:4;stroke-dasharray:none;stroke-opacity:1"
     d="m 1.7716295,52.895672 c 0.5307,-2.292 2.8228,-3.73 5.1135,-3.204 2.2974,0.526 3.7343995,2.824 3.2092995,5.114 -0.5270995,2.292 -2.8185995,3.735 -5.1201995,3.21 -2.2864,-0.527 -3.7292,-2.824 -3.2026,-5.12 z m -1.29740003,-0.298 c -0.688,3.011 1.19740003,6.022 4.20840003,6.714 3.0104,0.693 6.0212995,-1.198 6.7076995,-4.208 0.6932,-3.011 -1.1922,-6.016 -4.2076995,-6.708 -3.0058,-0.694 -6.0204,1.192 -6.70840003,4.202 z"
     id="path339" />
  <path
     style="fill:#231f20;fill-opacity:1;fill-rule:nonzero;stroke:none"
     d="m 72.895529,24.873672 c 0.267,1.323 -0.577,1.855 -1.599,1.714 -0.312,-0.042 -0.614,0.234 -0.91,0.172 -0.683,-0.156 -1.568,-1.662 -0.496,-2.714 0.078,-0.077 0.458,-0.801 0.829,-1.297 0.733,-0.968 2.661,-2.557 5.343,-2.271 1.266,0.131 0.958,0.86 0.422,0.964 -1.682,0.318 -1.765,0.678 -2.172,0.922 -1.396,0.828 -1.417,2.51 -1.417,2.51"
     id="path340" />
  <path
     style="fill:none;stroke:#231f20;stroke-width:0.332927;stroke-linecap:butt;stroke-linejoin:miter;stroke-miterlimit:4;stroke-dasharray:none;stroke-opacity:1"
     d="m 72.895529,24.873672 c 0.267,1.323 -0.577,1.855 -1.599,1.714 -0.312,-0.042 -0.614,0.234 -0.91,0.172 -0.683,-0.156 -1.568,-1.662 -0.496,-2.714 0.078,-0.077 0.458,-0.801 0.829,-1.297 0.733,-0.968 2.661,-2.557 5.343,-2.271 1.266,0.131 0.958,0.86 0.422,0.964 -1.682,0.318 -1.765,0.678 -2.172,0.922 -1.396,0.828 -1.417,2.51 -1.417,2.51 z"
     id="path341" />
  <path
     style="fill:#231f20;fill-opacity:1;fill-rule:nonzero;stroke:none"
     d="m 59.328529,37.816672 c 1.49,1.704 2.01,1.844 2.776,1.261 0.504,-0.39 1.104,-0.578 1.432,-0.797 1.063,-0.74 2.552,-2.417 5.536,-8.287 0.683,-1.328 1.642,-3.193 2.094,-3.916 0.718,-1.152 -1.682,-1.562 -1.963,-1.114 -0.923,1.442 -1.672,2.364 -2.073,2.837 -0.282,0.324 -0.692,0.964 -1.922,2.089 -1.87,1.698 -3.245,2.438 -4.636,4.031 -0.64,0.745 -1.598,0.891 -1.858,1.943 -0.272,1.052 0.614,1.953 0.614,1.953"
     id="path342" />
  <path
     style="fill:none;stroke:#231f20;stroke-width:0.565977;stroke-linecap:butt;stroke-linejoin:miter;stroke-miterlimit:4;stroke-dasharray:none;stroke-opacity:1"
     d="m 59.328529,37.816672 c 1.49,1.704 2.01,1.844 2.776,1.261 0.504,-0.39 1.104,-0.578 1.432,-0.797 1.063,-0.74 2.552,-2.417 5.536,-8.287 0.683,-1.328 1.642,-3.193 2.094,-3.916 0.718,-1.152 -1.682,-1.562 -1.963,-1.114 -0.923,1.442 -1.672,2.364 -2.073,2.837 -0.282,0.324 -0.692,0.964 -1.922,2.089 -1.87,1.698 -3.245,2.438 -4.636,4.031 -0.64,0.745 -1.598,0.891 -1.858,1.943 -0.272,1.052 0.614,1.953 0.614,1.953 z"
     id="path343" />
  <path
     style="fill:#ca0369;fill-opacity:1;fill-rule:nonzero;stroke:none"
     d="m 40.963529,56.597672 c 2.943,-1.073 3.699,-0.973 4.609,-0.926 5.777,0.328 5.828,-2.516 4.366,-5.006 -1.71,-2.921 -2.267,-4.01 -7.948,-1.312 -1.584,0.755 -8.032,2.843 -8.032,2.843 -2.407,0.433 -4.52,2.141 -4.88,3.557 -0.375,1.486 -0.115,0.923 -0.214,2.366 -0.093,1.374 0.88,3.327 2.083,3.619 1.157,0.286 2.324,-0.906 4.229,-2.401 1.511,-1.177 5.787,-2.74 5.787,-2.74"
     id="path344" />
  <path
     style="fill:none;stroke:#231f20;stroke-width:0.565977;stroke-linecap:butt;stroke-linejoin:miter;stroke-miterlimit:4;stroke-dasharray:none;stroke-opacity:1"
     d="m 40.963529,56.597672 c 2.943,-1.073 3.699,-0.973 4.609,-0.926 5.777,0.328 5.828,-2.516 4.366,-5.006 -1.71,-2.921 -2.267,-4.01 -7.948,-1.312 -1.584,0.755 -8.032,2.843 -8.032,2.843 -2.407,0.433 -4.52,2.141 -4.88,3.557 -0.375,1.486 -0.115,0.923 -0.214,2.366 -0.093,1.374 0.88,3.327 2.083,3.619 1.157,0.286 2.324,-0.906 4.229,-2.401 1.511,-1.177 5.787,-2.74 5.787,-2.74 z"
     id="path345" />
  <path
     style="fill:#ffffff;fill-opacity:1;fill-rule:nonzero;stroke:none"
     d="m 24.916529,52.305672 c -0.213,-0.118 0.031,-1.238 -0.469,-1.39 -0.505,-0.146 -0.916,0.526 -2.8802,0.829 h -0.0197 c -1.448,0.171 -2.6308,0.905 -3.0839,2.072 -0.7494,1.937 0.776,4.333 3.4068,5.36 2.634,1.02 5.374,0.281 6.129,-1.656 0.72,-1.855 -0.645,-4.136 -3.083,-5.215"
     id="path346" />
  <path
     style="fill:none;stroke:#231f20;stroke-width:0.565977;stroke-linecap:butt;stroke-linejoin:miter;stroke-miterlimit:4;stroke-dasharray:none;stroke-opacity:1"
     d="m 24.916529,52.305672 c -0.213,-0.118 0.031,-1.238 -0.469,-1.39 -0.505,-0.146 -0.916,0.526 -2.8802,0.829 h -0.0197 c -1.448,0.171 -2.6308,0.905 -3.0839,2.072 -0.7494,1.937 0.776,4.333 3.4068,5.36 2.634,1.02 5.374,0.281 6.129,-1.656 0.72,-1.855 -0.645,-4.136 -3.083,-5.215 z"
     id="path347" />
  <path
     style="fill:#231f20;fill-opacity:1;fill-rule:nonzero;stroke:none"
     d="m 61.510529,36.660672 c -2.37,-3.235 -4.23,0.396 -4.615,0.683 -4.057,2.942 -4.27,3.254 -7.203,5.713 -4.234,3.552 -6.588,6.635 -5.24,9.703 0.912,2.078 2.339,2.89 3.656,2.833 1.459,-0.052 4.224,-1.62 4.36,-4.511 l 0.974,-1.405 c 0.776,-0.865 1.152,-1.297 1.568,-1.699 0.729,-0.692 1.464,-1.478 2.802,-2.9 2.38,-2.526 4.063,-5.99 4.063,-5.99 0.828,-0.922 -0.365,-2.427 -0.365,-2.427"
     id="path348" />
  <path
     style="fill:none;stroke:#231f20;stroke-width:0.565977;stroke-linecap:butt;stroke-linejoin:miter;stroke-miterlimit:4;stroke-dasharray:none;stroke-opacity:1"
     d="m 61.510529,36.660672 c -2.37,-3.235 -4.23,0.396 -4.615,0.683 -4.057,2.942 -4.27,3.254 -7.203,5.713 -4.234,3.552 -6.588,6.635 -5.24,9.703 0.912,2.078 2.339,2.89 3.656,2.833 1.459,-0.052 4.224,-1.62 4.36,-4.511 l 0.974,-1.405 c 0.776,-0.865 1.152,-1.297 1.568,-1.699 0.729,-0.692 1.464,-1.478 2.802,-2.9 2.38,-2.526 4.063,-5.99 4.063,-5.99 0.828,-0.922 -0.365,-2.427 -0.365,-2.427 z"
     id="path349" />
  <path
     style="fill:#231f20;fill-opacity:1;fill-rule:nonzero;stroke:none"
     d="m 10.619529,56.239672 c 0.5948,-0.256 2.4426,0.338 4.0521,0.208 1.0785,-0.09 3.6667,0.817 4.74,0.65 0.9787,-0.15 1.4428,-0.134 1.8172,0.959 0.2136,0.645 0.2188,2.031 -0.2547,2.219 -1.1093,0.432 -2.0521,0.406 -3.0932,0.15 -1.1828,-0.286 -4.3188,-1.348 -4.8813,-1.604 -1.3801,-0.625 -2.0989,-0.442 -2.4785,-0.573 -0.7239995,-0.244 -0.8067995,-0.583 -0.7547995,-1.083 0.1146,-0.948 0.8531995,-0.926 0.8531995,-0.926"
     id="path350" />
  <path
     style="fill:none;stroke:#231f20;stroke-width:0.565977;stroke-linecap:butt;stroke-linejoin:miter;stroke-miterlimit:4;stroke-dasharray:none;stroke-opacity:1"
     d="m 10.619529,56.239672 c 0.5948,-0.256 2.4426,0.338 4.0521,0.208 1.0785,-0.09 3.6667,0.817 4.74,0.65 0.9787,-0.15 1.4428,-0.134 1.8172,0.959 0.2136,0.645 0.2188,2.031 -0.2547,2.219 -1.1093,0.432 -2.0521,0.406 -3.0932,0.15 -1.1828,-0.286 -4.3188,-1.348 -4.8813,-1.604 -1.3801,-0.625 -2.0989,-0.442 -2.4785,-0.573 -0.7239995,-0.244 -0.8067995,-0.583 -0.7547995,-1.083 0.1146,-0.948 0.8531995,-0.926 0.8531995,-0.926 z"
     id="path351" />
  <path
     style="fill:#231f20;fill-opacity:1;fill-rule:nonzero;stroke:none"
     d="m 19.214329,57.884672 c 0.0145,-1.297 2.0145,-0.912 2.552,-0.891 0.5412,0.022 2.0982,-0.093 3.2902,-0.338 1.205,-0.25 2.803,-0.047 5.079,-0.506 1.203,-0.244 2.527,0.276 2.803,2.027 0.276,1.735 -0.595,2.541 -2.089,2.62 -1.495,0.077 -2.933,-0.485 -4.443,-0.505 -1.511,-0.032 -3.052,0.077 -4.261,0.224 -1.3698,0.161 -2.1083,-0.267 -2.3484,-0.678 -0.599,-1.037 -0.5828,-1.953 -0.5828,-1.953"
     id="path352" />
  <path
     style="fill:none;stroke:#231f20;stroke-width:0.565977;stroke-linecap:butt;stroke-linejoin:miter;stroke-miterlimit:4;stroke-dasharray:none;stroke-opacity:1"
     d="m 19.214329,57.884672 c 0.0145,-1.297 2.0145,-0.912 2.552,-0.891 0.5412,0.022 2.0982,-0.093 3.2902,-0.338 1.205,-0.25 2.803,-0.047 5.079,-0.506 1.203,-0.244 2.527,0.276 2.803,2.027 0.276,1.735 -0.595,2.541 -2.089,2.62 -1.495,0.077 -2.933,-0.485 -4.443,-0.505 -1.511,-0.032 -3.052,0.077 -4.261,0.224 -1.3698,0.161 -2.1083,-0.267 -2.3484,-0.678 -0.599,-1.037 -0.5828,-1.953 -0.5828,-1.953 z"
     id="path353" />
  <path
     style="fill:#231f20;fill-opacity:1;fill-rule:nonzero;stroke:none"
     d="m 10.318429,58.431672 c -0.3025,0.63 -2.6201995,0.677 -2.7296995,0.38 -0.1093,-0.302 0.6563,-0.234 0.5469,-0.572 -0.1093,-0.339 -0.6041,-0.308 -0.6145,-0.538 -0.0052,-0.249 0.5932,-0.192 0.5265,-0.494 -0.0265,-0.126 -0.5625,-0.386 -0.5104,-0.568 0.0411,-0.162 0.5411,-0.323 0.588,-0.448 0.0626,-0.203 -0.5417,-0.312 -0.5,-0.49 0.1036,-0.453 2.6931995,0.38 2.7863995,0.604 0.1453,0.324 0.3959,1.106 -0.0932,2.126"
     id="path354" />
  <path
     style="fill:none;stroke:#231f20;stroke-width:0.565977;stroke-linecap:round;stroke-linejoin:round;stroke-miterlimit:4;stroke-dasharray:none;stroke-opacity:1"
     d="m 10.318429,58.431672 c -0.3025,0.63 -2.6201995,0.677 -2.7296995,0.38 -0.1093,-0.302 0.6563,-0.234 0.5469,-0.572 -0.1093,-0.339 -0.6041,-0.308 -0.6145,-0.538 -0.0052,-0.249 0.5932,-0.192 0.5265,-0.494 -0.0265,-0.126 -0.5625,-0.386 -0.5104,-0.568 0.0411,-0.162 0.5411,-0.323 0.588,-0.448 0.0626,-0.203 -0.5417,-0.312 -0.5,-0.49 0.1036,-0.453 2.6931995,0.38 2.7863995,0.604 0.1453,0.324 0.3959,1.106 -0.0932,2.126 z"
     id="path355" />
  <path
     style="fill:#ca0369;fill-opacity:1;fill-rule:nonzero;stroke:#231f20;stroke-width:0.565977;stroke-linecap:butt;stroke-linejoin:miter;stroke-miterlimit:4;stroke-dasharray:none;stroke-opacity:1"
     d="m 47.421529,45.045672 c -2.688,2.626 -3.969,5.042 -2.931,7.479 0.89,2.095 2.306,2.912 3.618,2.881 1.464,-0.037 4.251,-1.568 4.423,-4.453 z"
     id="path356" />
  <path
     style="fill:#231f20;fill-opacity:1;fill-rule:nonzero;stroke:none"
     d="m 223.81253,164.62968 c -1.027,-0.333 -0.464,-1.448 0.072,-2.552 0.136,-0.281 0.235,-0.553 0.391,-0.808 0.625,-1.057 1.584,-1.484 2.896,1.208 0.052,0.1 1.526,1.713 2.016,2.1 2.36,1.828 2.781,1.099 2.36,1.828 -0.287,0.479 -0.776,0.359 -1.386,0.197 -0.829,-0.218 -3.666,-1.249 -4.114,-1.38 -0.434,-0.125 -2.235,-0.593 -2.235,-0.593"
     id="path357" />
  <path
     style="fill:none;stroke:#231f20;stroke-width:0.565977;stroke-linecap:butt;stroke-linejoin:miter;stroke-miterlimit:4;stroke-dasharray:none;stroke-opacity:1"
     d="m 223.81253,164.62968 c -1.027,-0.333 -0.464,-1.448 0.072,-2.552 0.136,-0.281 0.235,-0.553 0.391,-0.808 0.625,-1.057 1.584,-1.484 2.896,1.208 0.052,0.1 1.526,1.713 2.016,2.1 2.36,1.828 2.781,1.099 2.36,1.828 -0.287,0.479 -0.776,0.359 -1.386,0.197 -0.829,-0.218 -3.666,-1.249 -4.114,-1.38 -0.434,-0.125 -2.235,-0.593 -2.235,-0.593 z"
     id="path359" />
  <path
     style="fill:#231f20;fill-opacity:1;fill-rule:nonzero;stroke:none"
     d="m 230.40053,145.88468 c -2.057,-0.954 -2.588,-0.86 -3.047,-0.016 -0.306,0.557 -0.781,0.974 -0.984,1.308 -0.677,1.109 -1.349,3.244 -1.688,9.822 -0.077,1.49 -0.197,3.583 -0.312,4.432 -0.188,1.344 2.172,0.746 2.25,0.219 0.256,-1.697 0.562,-2.844 0.74,-3.437 0.12,-0.416 0.234,-1.172 0.901,-2.692 1.011,-2.314 1.963,-3.552 2.583,-5.574 0.286,-0.937 1.098,-1.464 0.917,-2.526 -0.188,-1.067 -1.36,-1.536 -1.36,-1.536"
     id="path361" />
  <path
     style="fill:none;stroke:#231f20;stroke-width:0.565977;stroke-linecap:butt;stroke-linejoin:miter;stroke-miterlimit:4;stroke-dasharray:none;stroke-opacity:1"
     d="m 230.40053,145.88468 c -2.057,-0.954 -2.588,-0.86 -3.047,-0.016 -0.306,0.557 -0.781,0.974 -0.984,1.308 -0.677,1.109 -1.349,3.244 -1.688,9.822 -0.077,1.49 -0.197,3.583 -0.312,4.432 -0.188,1.344 2.172,0.746 2.25,0.219 0.256,-1.697 0.562,-2.844 0.74,-3.437 0.12,-0.416 0.234,-1.172 0.901,-2.692 1.011,-2.314 1.963,-3.552 2.583,-5.574 0.286,-0.937 1.098,-1.464 0.917,-2.526 -0.188,-1.067 -1.36,-1.536 -1.36,-1.536 z"
     id="path362" />
  <path
     style="fill:#ca0369;fill-opacity:1;fill-rule:nonzero;stroke:none"
     d="m 217.33253,123.45768 c -0.348,3.12 -0.765,3.749 -1.219,4.547 -2.848,5.03 -0.322,6.333 2.552,6.129 3.387,-0.233 4.6,-0.249 4.704,-6.547 0.031,-1.749 1.016,-8.453 1.016,-8.453 0.676,-2.348 0.083,-5.004 -1.026,-5.947 -1.167,-1 -0.776,-0.521 -2.027,-1.245 -1.187,-0.693 -3.369,-0.683 -4.171,0.265 -0.766,0.907 -0.214,2.48 0.276,4.855 0.391,1.869 -0.105,6.396 -0.105,6.396"
     id="path363" />
  <path
     style="fill:none;stroke:#231f20;stroke-width:0.565977;stroke-linecap:butt;stroke-linejoin:miter;stroke-miterlimit:4;stroke-dasharray:none;stroke-opacity:1"
     d="m 217.33253,123.45768 c -0.348,3.12 -0.765,3.749 -1.219,4.547 -2.848,5.03 -0.322,6.333 2.552,6.129 3.387,-0.233 4.6,-0.249 4.704,-6.547 0.031,-1.749 1.016,-8.453 1.016,-8.453 0.676,-2.348 0.083,-5.004 -1.026,-5.947 -1.167,-1 -0.776,-0.521 -2.027,-1.245 -1.187,-0.693 -3.369,-0.683 -4.171,0.265 -0.766,0.907 -0.214,2.48 0.276,4.855 0.391,1.869 -0.105,6.396 -0.105,6.396 z"
     id="path364" />
  <path
     style="fill:#231f20;fill-opacity:1;fill-rule:nonzero;stroke:none"
     d="m 239.61953,116.38468 c -0.552,0.328 -2.468,-0.011 -4.042,0.333 -1.057,0.235 -3.745,-0.317 -4.786,-0.011 -0.948,0.287 -1.411,0.328 -1.927,-0.702 -0.303,-0.61 -0.489,-1.984 -0.041,-2.235 1.036,-0.579 1.978,-0.677 3.041,-0.568 1.208,0.131 4.459,0.767 5.047,0.937 1.464,0.434 2.145,0.163 2.541,0.235 0.751,0.151 0.876,0.469 0.885,0.975 0.022,0.953 -0.718,1.036 -0.718,1.036"
     id="path365" />
  <path
     style="fill:none;stroke:#231f20;stroke-width:0.565977;stroke-linecap:butt;stroke-linejoin:miter;stroke-miterlimit:4;stroke-dasharray:none;stroke-opacity:1"
     d="m 239.61953,116.38468 c -0.552,0.328 -2.468,-0.011 -4.042,0.333 -1.057,0.235 -3.745,-0.317 -4.786,-0.011 -0.948,0.287 -1.411,0.328 -1.927,-0.702 -0.303,-0.61 -0.489,-1.984 -0.041,-2.235 1.036,-0.579 1.978,-0.677 3.041,-0.568 1.208,0.131 4.459,0.767 5.047,0.937 1.464,0.434 2.145,0.163 2.541,0.235 0.751,0.151 0.876,0.469 0.885,0.975 0.022,0.953 -0.718,1.036 -0.718,1.036 z"
     id="path366" />
  <path
     style="fill:#231f20;fill-opacity:1;fill-rule:nonzero;stroke:none"
     d="m 230.56753,116.07768 c -0.187,1.28 -2.115,0.624 -2.646,0.525 -0.536,-0.093 -2.089,-0.192 -3.308,-0.109 -1.224,0.079 -2.781,-0.344 -5.104,-0.197 -1.218,0.077 -2.457,-0.62 -2.494,-2.396 -0.036,-1.756 0.937,-2.438 2.426,-2.308 1.496,0.125 2.839,0.88 4.334,1.114 1.496,0.24 3.037,0.339 4.25,0.36 1.386,0.026 2.058,0.552 2.235,0.99 0.448,1.114 0.307,2.021 0.307,2.021"
     id="path367" />
  <path
     style="fill:none;stroke:#231f20;stroke-width:0.565977;stroke-linecap:butt;stroke-linejoin:miter;stroke-miterlimit:4;stroke-dasharray:none;stroke-opacity:1"
     d="m 230.56753,116.07768 c -0.187,1.28 -2.115,0.624 -2.646,0.525 -0.536,-0.093 -2.089,-0.192 -3.308,-0.109 -1.224,0.079 -2.781,-0.344 -5.104,-0.197 -1.218,0.077 -2.457,-0.62 -2.494,-2.396 -0.036,-1.756 0.937,-2.438 2.426,-2.308 1.496,0.125 2.839,0.88 4.334,1.114 1.496,0.24 3.037,0.339 4.25,0.36 1.386,0.026 2.058,0.552 2.235,0.99 0.448,1.114 0.307,2.021 0.307,2.021 z"
     id="path368" />
  <path
     style="fill:#231f20;fill-opacity:1;fill-rule:nonzero;stroke:none"
     d="m 246.56153,116.71768 c -0.686,0.213 -3.937,0.083 -4.677,0.027 -0.661,-0.054 -1.785,0.213 -2.197,-0.871 -0.162,-0.432 -0.099,-1.187 0.01,-1.489 0.088,-0.24 0.407,-0.318 0.798,-0.251 0.661,0.115 0.801,0.407 2.046,0.704 0,0 0.282,0.109 0.776,0.349 1.474,0.698 0.76,0.526 3.12,1.058 0.171,0.041 0.255,0.233 0.219,0.348 -0.057,0.166 -0.095,0.125 -0.095,0.125"
     id="path369" />
  <path
     style="fill:none;stroke:#231f20;stroke-width:0.565977;stroke-linecap:round;stroke-linejoin:round;stroke-miterlimit:4;stroke-dasharray:none;stroke-opacity:1"
     d="m 246.56153,116.71768 c -0.686,0.213 -3.937,0.083 -4.677,0.027 -0.661,-0.054 -1.785,0.213 -2.197,-0.871 -0.162,-0.432 -0.099,-1.187 0.01,-1.489 0.088,-0.24 0.407,-0.318 0.798,-0.251 0.661,0.115 0.801,0.407 2.046,0.704 0,0 0.282,0.109 0.776,0.349 1.474,0.698 0.76,0.526 3.12,1.058 0.171,0.041 0.255,0.233 0.219,0.348 -0.057,0.166 -0.095,0.125 -0.095,0.125 z"
     id="path370" />
  <path
     style="fill:#ffffff;fill-opacity:1;fill-rule:nonzero;stroke:none"
     d="m 224.27553,106.22268 c 0.068,-0.234 1.22,-0.218 1.266,-0.74 0.047,-0.52 -0.693,-0.786 -1.38,-2.656 l -0.005,-0.021 c -0.453,-1.38 -1.407,-2.395 -2.641,-2.609 -2.042,-0.354008 -4.094,1.609 -4.578,4.39 -0.485,2.787 0.782,5.328 2.828,5.683 1.958,0.344 3.922,-1.448 4.51,-4.047"
     id="path371" />
  <path
     style="fill:none;stroke:#231f20;stroke-width:0.565977;stroke-linecap:butt;stroke-linejoin:miter;stroke-miterlimit:4;stroke-dasharray:none;stroke-opacity:1"
     d="m 224.27553,106.22268 c 0.068,-0.234 1.22,-0.218 1.266,-0.74 0.047,-0.52 -0.693,-0.786 -1.38,-2.656 l -0.005,-0.021 c -0.453,-1.38 -1.407,-2.395 -2.641,-2.609 -2.042,-0.354008 -4.094,1.609 -4.578,4.39 -0.485,2.787 0.782,5.328 2.828,5.683 1.958,0.344 3.922,-1.448 4.51,-4.047 z"
     id="path372" />
  <path
     style="fill:#231f20;fill-opacity:1;fill-rule:nonzero;stroke:none"
     d="m 229.33753,148.25368 c 3.756,-1.411 0.762,-4.187 0.595,-4.635 -1.735,-4.698 -1.985,-4.989 -3.557,-8.474 -2.276,-5.036 -4.61,-8.135 -7.928,-7.667 -2.25,0.319 -3.406,1.475 -3.719,2.756 -0.343,1.416 0.423,4.505 3.161,5.416 l 1.1,1.313 c 0.619,0.984 0.938,1.463 1.208,1.974 0.468,0.89 1.026,1.802 2.036,3.478 1.798,2.975 4.667,5.527 4.667,5.527 0.672,1.047 2.437,0.312 2.437,0.312"
     id="path373" />
  <path
     style="fill:none;stroke:#231f20;stroke-width:0.565977;stroke-linecap:butt;stroke-linejoin:miter;stroke-miterlimit:4;stroke-dasharray:none;stroke-opacity:1"
     d="m 229.33753,148.25368 c 3.756,-1.411 0.762,-4.187 0.595,-4.635 -1.735,-4.698 -1.985,-4.989 -3.557,-8.474 -2.276,-5.036 -4.61,-8.135 -7.928,-7.667 -2.25,0.319 -3.406,1.475 -3.719,2.756 -0.343,1.416 0.423,4.505 3.161,5.416 l 1.1,1.313 c 0.619,0.984 0.938,1.463 1.208,1.974 0.468,0.89 1.026,1.802 2.036,3.478 1.798,2.975 4.667,5.527 4.667,5.527 0.672,1.047 2.437,0.312 2.437,0.312 z"
     id="path374" />
  <path
     style="fill:#ca0369;fill-opacity:1;fill-rule:nonzero;stroke:none"
     d="m 223.93253,130.67668 c -0.021,-0.079 -0.043,-0.156 -0.052,-0.23 -0.105,-0.797 -0.641,-1.13 -1.548,-1.63 -1.156,-1.042 -2.421,-1.547 -3.885,-1.339 -2.25,0.319 -3.406,1.475 -3.719,2.756 -0.343,1.416 0.423,4.505 3.161,5.416 l 7.032,-3.411 c -0.322,-0.573 -0.656,-1.084 -0.989,-1.562"
     id="path375" />
  <path
     style="fill:none;stroke:#231f20;stroke-width:0.565977;stroke-linecap:butt;stroke-linejoin:miter;stroke-miterlimit:4;stroke-dasharray:none;stroke-opacity:1"
     d="m 223.93253,130.67668 c -0.021,-0.079 -0.043,-0.156 -0.052,-0.23 -0.105,-0.797 -0.641,-1.13 -1.548,-1.63 -1.156,-1.042 -2.421,-1.547 -3.885,-1.339 -2.25,0.319 -3.406,1.475 -3.719,2.756 -0.343,1.416 0.423,4.505 3.161,5.416 l 7.032,-3.411 c -0.322,-0.573 -0.656,-1.084 -0.989,-1.562 z"
     id="path376" />
  <path
     style="fill:#231f20;fill-opacity:1;fill-rule:nonzero;stroke:none"
     d="m 144.29153,79.561672 c 0.578,-1.224 1.568,-1.151 2.308,-0.432 0.224,0.224 0.634,0.181 0.833,0.405 0.463,0.532 0.276,2.271 -1.215,2.475 -0.104,0.015 -0.842,0.369 -1.437,0.552 -1.167,0.344 -3.661,0.473 -5.645,-1.349 -0.943,-0.855 -0.266,-1.26 0.229,-1.026 1.541,0.744 1.823,0.504 2.297,0.547 1.614,0.167 2.63,-1.172 2.63,-1.172"
     id="path377" />
  <path
     style="fill:none;stroke:#231f20;stroke-width:0.332927;stroke-linecap:butt;stroke-linejoin:miter;stroke-miterlimit:4;stroke-dasharray:none;stroke-opacity:1"
     d="m 144.29153,79.561672 c 0.578,-1.224 1.568,-1.151 2.308,-0.432 0.224,0.224 0.634,0.181 0.833,0.405 0.463,0.532 0.276,2.271 -1.215,2.475 -0.104,0.015 -0.842,0.369 -1.437,0.552 -1.167,0.344 -3.661,0.473 -5.645,-1.349 -0.943,-0.855 -0.266,-1.26 0.229,-1.026 1.541,0.744 1.823,0.504 2.297,0.547 1.614,0.167 2.63,-1.172 2.63,-1.172 z"
     id="path378" />
  <path
     style="fill:#231f20;fill-opacity:1;fill-rule:nonzero;stroke:none"
     d="m 164.30753,80.900672 c 0.396,-2.23 0.172,-2.719 -0.76,-2.948 -0.615,-0.156 -1.142,-0.511 -1.511,-0.62 -1.245,-0.37 -3.485,-0.484 -9.932,0.858 -1.464,0.308 -3.521,0.724 -4.371,0.824 -1.348,0.162 -0.166,2.291 0.36,2.234 1.708,-0.187 2.896,-0.176 3.515,-0.162 0.433,0.011 1.188,-0.066 2.833,0.188 2.496,0.396 3.934,1.006 6.048,1.088 0.979,0.043 1.692,0.694 2.676,0.24 0.991,-0.448 1.142,-1.702 1.142,-1.702"
     id="path379" />
  <path
     style="fill:none;stroke:#231f20;stroke-width:0.565977;stroke-linecap:butt;stroke-linejoin:miter;stroke-miterlimit:4;stroke-dasharray:none;stroke-opacity:1"
     d="m 164.30753,80.900672 c 0.396,-2.23 0.172,-2.719 -0.76,-2.948 -0.615,-0.156 -1.142,-0.511 -1.511,-0.62 -1.245,-0.37 -3.485,-0.484 -9.932,0.858 -1.464,0.308 -3.521,0.724 -4.371,0.824 -1.348,0.162 -0.166,2.291 0.36,2.234 1.708,-0.187 2.896,-0.176 3.515,-0.162 0.433,0.011 1.188,-0.066 2.833,0.188 2.496,0.396 3.934,1.006 6.048,1.088 0.979,0.043 1.692,0.694 2.676,0.24 0.991,-0.448 1.142,-1.702 1.142,-1.702 z"
     id="path380" />
  <path
     style="fill:#ca0369;fill-opacity:1;fill-rule:nonzero;stroke:none"
     d="m 190.22853,78.946672 c -3.135,-0.068 -3.801,-0.426 -4.635,-0.808 -5.265,-2.39 -6.338,0.24 -5.88,3.09 0.536,3.349 0.662,4.557 6.938,4.098 1.749,-0.125 8.51,0.255 8.51,0.255 2.4,0.464 4.995,-0.364 5.838,-1.552 0.89,-1.249 0.448,-0.817 1.057,-2.129 0.584,-1.246 0.381,-3.423 -0.635,-4.131 -0.974,-0.683 -2.489,0.005 -4.813,0.708 -1.828,0.552 -6.38,0.469 -6.38,0.469"
     id="path381" />
  <path
     style="fill:none;stroke:#231f20;stroke-width:0.565977;stroke-linecap:butt;stroke-linejoin:miter;stroke-miterlimit:4;stroke-dasharray:none;stroke-opacity:1"
     d="m 190.22853,78.946672 c -3.135,-0.068 -3.801,-0.426 -4.635,-0.808 -5.265,-2.39 -6.338,0.24 -5.88,3.09 0.536,3.349 0.662,4.557 6.938,4.098 1.749,-0.125 8.51,0.255 8.51,0.255 2.4,0.464 4.995,-0.364 5.838,-1.552 0.89,-1.249 0.448,-0.817 1.057,-2.129 0.584,-1.246 0.381,-3.423 -0.635,-4.131 -0.974,-0.683 -2.489,0.005 -4.813,0.708 -1.828,0.552 -6.38,0.469 -6.38,0.469 z"
     id="path382" />
  <path
     style="fill:#ffffff;fill-opacity:1;fill-rule:nonzero;stroke:none"
     d="m 208.01553,84.321672 c 0.24,0.047 0.322,1.193 0.849,1.193 0.521,0 0.724,-0.766 2.525,-1.609 l 0.016,-0.011 c 1.339,-0.573 2.26,-1.614 2.366,-2.86 0.17,-2.072 -1.97,-3.942 -4.787,-4.172 -2.813,-0.228 -5.235,1.256 -5.407,3.328 -0.161,1.98 1.798,3.778 4.438,4.131"
     id="path383" />
  <path
     style="fill:none;stroke:#231f20;stroke-width:0.565977;stroke-linecap:butt;stroke-linejoin:miter;stroke-miterlimit:4;stroke-dasharray:none;stroke-opacity:1"
     d="m 208.01553,84.321672 c 0.24,0.047 0.322,1.193 0.849,1.193 0.521,0 0.724,-0.766 2.525,-1.609 l 0.016,-0.011 c 1.339,-0.573 2.26,-1.614 2.366,-2.86 0.17,-2.072 -1.97,-3.942 -4.787,-4.172 -2.813,-0.228 -5.235,1.256 -5.407,3.328 -0.161,1.98 1.798,3.778 4.438,4.131 z"
     id="path384" />
  <path
     style="fill:#231f20;fill-opacity:1;fill-rule:nonzero;stroke:none"
     d="m 162.03653,79.920672 c -1.037,3.876 2.963,3.052 3.421,3.177 4.834,1.323 5.214,1.292 8.964,2.036 5.422,1.079 9.298,0.985 10.85,-1.984 1.046,-2.016 0.781,-3.629 -0.079,-4.629 -0.953,-1.106 -3.912,-2.276 -6.245,-0.579 l -1.708,0.125 c -1.162,-0.062 -1.74,-0.084 -2.307,-0.161 -0.995,-0.136 -2.068,-0.215 -4.016,-0.365 -3.464,-0.271 -7.213,0.578 -7.213,0.578 -1.24,-0.062 -1.667,1.802 -1.667,1.802"
     id="path385" />
  <path
     style="fill:none;stroke:#231f20;stroke-width:0.565977;stroke-linecap:butt;stroke-linejoin:miter;stroke-miterlimit:4;stroke-dasharray:none;stroke-opacity:1"
     d="m 162.03653,79.920672 c -1.037,3.876 2.963,3.052 3.421,3.177 4.834,1.323 5.214,1.292 8.964,2.036 5.422,1.079 9.298,0.985 10.85,-1.984 1.046,-2.016 0.781,-3.629 -0.079,-4.629 -0.953,-1.106 -3.912,-2.276 -6.245,-0.579 l -1.708,0.125 c -1.162,-0.062 -1.74,-0.084 -2.307,-0.161 -0.995,-0.136 -2.068,-0.215 -4.016,-0.365 -3.464,-0.271 -7.213,0.578 -7.213,0.578 -1.24,-0.062 -1.667,1.802 -1.667,1.802 z"
     id="path386" />
  <path
     style="fill:#ca0369;fill-opacity:1;fill-rule:nonzero;stroke:none"
     d="m 185.19253,78.520672 c -0.959,-1.106 -3.912,-2.276 -6.245,-0.579 l -1.318,7.703 c 0.656,0.068 1.266,0.1 1.85,0.109 0.077,0.027 0.15,0.052 0.213,0.084 0.708,0.38 1.292,0.135 2.229,-0.308 1.516,-0.339 2.667,-1.072 3.35,-2.38 1.046,-2.016 0.781,-3.629 -0.079,-4.629"
     id="path387" />
  <path
     style="fill:none;stroke:#231f20;stroke-width:0.565977;stroke-linecap:butt;stroke-linejoin:miter;stroke-miterlimit:4;stroke-dasharray:none;stroke-opacity:1"
     d="m 185.19253,78.520672 c -0.959,-1.106 -3.912,-2.276 -6.245,-0.579 l -1.318,7.703 c 0.656,0.068 1.266,0.1 1.85,0.109 0.077,0.027 0.15,0.052 0.213,0.084 0.708,0.38 1.292,0.135 2.229,-0.308 1.516,-0.339 2.667,-1.072 3.35,-2.38 1.046,-2.016 0.781,-3.629 -0.079,-4.629 z"
     id="path388" />
  <path
     style="fill:#231f20;fill-opacity:1;fill-rule:nonzero;stroke:none"
     d="m 219.78053,81.405672 c -0.52,0.38 -2.463,0.224 -3.995,0.719 -1.025,0.338 -3.76,0.041 -4.76,0.453 -0.921,0.375 -1.38,0.457 -1.989,-0.521 -0.36,-0.574 -0.683,-1.927 -0.261,-2.219 0.98,-0.672 1.906,-0.86 2.98,-0.855 1.213,0.011 4.505,0.334 5.109,0.448 1.495,0.292 2.151,-0.052 2.552,-0.01 0.76,0.073 0.916,0.38 0.979,0.885 0.109,0.948 -0.615,1.1 -0.615,1.1"
     id="path389" />
  <path
     style="fill:none;stroke:#231f20;stroke-width:0.565977;stroke-linecap:butt;stroke-linejoin:miter;stroke-miterlimit:4;stroke-dasharray:none;stroke-opacity:1"
     d="m 219.78053,81.405672 c -0.52,0.38 -2.463,0.224 -3.995,0.719 -1.025,0.338 -3.76,0.041 -4.76,0.453 -0.921,0.375 -1.38,0.457 -1.989,-0.521 -0.36,-0.574 -0.683,-1.927 -0.261,-2.219 0.98,-0.672 1.906,-0.86 2.98,-0.855 1.213,0.011 4.505,0.334 5.109,0.448 1.495,0.292 2.151,-0.052 2.552,-0.01 0.76,0.073 0.916,0.38 0.979,0.885 0.109,0.948 -0.615,1.1 -0.615,1.1 z"
     id="path390" />
  <path
     style="fill:#231f20;fill-opacity:1;fill-rule:nonzero;stroke:none"
     d="m 210.73953,81.968672 c -0.063,1.29 -2.047,0.828 -2.583,0.78 -0.548,-0.042 -2.1,0.01 -3.308,0.209 -1.208,0.192 -2.801,-0.079 -5.099,0.291 -1.202,0.193 -2.505,-0.38 -2.708,-2.146 -0.204,-1.74 0.698,-2.516 2.192,-2.525 1.5,-0.016 2.912,0.599 4.423,0.692 1.505,0.088 3.052,0.041 4.265,-0.052 1.375,-0.109 2.099,0.349 2.318,0.771 0.552,1.062 0.5,1.98 0.5,1.98"
     id="path391" />
  <path
     style="fill:none;stroke:#231f20;stroke-width:0.565977;stroke-linecap:butt;stroke-linejoin:miter;stroke-miterlimit:4;stroke-dasharray:none;stroke-opacity:1"
     d="m 210.73953,81.968672 c -0.063,1.29 -2.047,0.828 -2.583,0.78 -0.548,-0.042 -2.1,0.01 -3.308,0.209 -1.208,0.192 -2.801,-0.079 -5.099,0.291 -1.202,0.193 -2.505,-0.38 -2.708,-2.146 -0.204,-1.74 0.698,-2.516 2.192,-2.525 1.5,-0.016 2.912,0.599 4.423,0.692 1.505,0.088 3.052,0.041 4.265,-0.052 1.375,-0.109 2.099,0.349 2.318,0.771 0.552,1.062 0.5,1.98 0.5,1.98 z"
     id="path392" />
  <path
     style="fill:#231f20;fill-opacity:1;fill-rule:nonzero;stroke:none"
     d="m 226.72353,81.066672 c -0.667,0.287 -3.911,0.468 -4.656,0.474 -0.667,0.01 -1.76,0.385 -2.271,-0.646 -0.203,-0.422 -0.213,-1.177 -0.135,-1.489 0.067,-0.251 0.375,-0.355 0.776,-0.324 0.662,0.052 0.834,0.324 2.094,0.5 0,0 0.297,0.084 0.812,0.272 1.532,0.557 0.808,0.457 3.208,0.755 0.172,0.026 0.277,0.213 0.25,0.328 -0.036,0.172 -0.078,0.13 -0.078,0.13"
     id="path393" />
  <path
     style="fill:none;stroke:#231f20;stroke-width:0.565977;stroke-linecap:round;stroke-linejoin:round;stroke-miterlimit:4;stroke-dasharray:none;stroke-opacity:1"
     d="m 226.72353,81.066672 c -0.667,0.287 -3.911,0.468 -4.656,0.474 -0.667,0.01 -1.76,0.385 -2.271,-0.646 -0.203,-0.422 -0.213,-1.177 -0.135,-1.489 0.067,-0.251 0.375,-0.355 0.776,-0.324 0.662,0.052 0.834,0.324 2.094,0.5 0,0 0.297,0.084 0.812,0.272 1.532,0.557 0.808,0.457 3.208,0.755 0.172,0.026 0.277,0.213 0.25,0.328 -0.036,0.172 -0.078,0.13 -0.078,0.13 z"
     id="path394" />
  <path
     style="fill:#231f20;fill-opacity:1;fill-rule:nonzero;stroke:none"
     d="m 152.00453,5.8056721 c 0.964,0.943 0.563,1.855 -0.359,2.314 -0.281,0.145 -0.374,0.541 -0.656,0.65 -0.652,0.266 -2.234,-0.489 -1.937,-1.958 0.02,-0.11 -0.073,-0.922 -0.043,-1.536 0.058,-1.214 0.756,-3.615 3.131,-4.88599999 1.12,-0.604 1.276,0.167 0.891,0.552 -1.208,1.21399999 -1.074,1.55799999 -1.271,1.98999999 -0.693,1.469 0.244,2.874 0.244,2.874"
     id="path395" />
  <path
     style="fill:none;stroke:#231f20;stroke-width:0.332927;stroke-linecap:butt;stroke-linejoin:miter;stroke-miterlimit:4;stroke-dasharray:none;stroke-opacity:1"
     d="m 152.00453,5.8056721 c 0.964,0.943 0.563,1.855 -0.359,2.314 -0.281,0.145 -0.374,0.541 -0.656,0.65 -0.652,0.266 -2.234,-0.489 -1.937,-1.958 0.02,-0.11 -0.073,-0.922 -0.043,-1.536 0.058,-1.214 0.756,-3.615 3.131,-4.88599999 1.12,-0.604 1.276,0.167 0.891,0.552 -1.208,1.21399999 -1.074,1.55799999 -1.271,1.98999999 -0.693,1.469 0.244,2.874 0.244,2.874 z"
     id="path396" />
  <path
     style="fill:#231f20;fill-opacity:1;fill-rule:nonzero;stroke:none"
     d="m 143.18153,23.113672 c 1.918,1.203 2.459,1.183 3.022,0.407 0.374,-0.516 0.896,-0.871 1.145,-1.172 0.803,-1.016 1.751,-3.052 2.923,-9.532 0.265,-1.473 0.656,-3.5309999 0.88,-4.3589999 0.353,-1.302 -2.063,-1.005 -2.204,-0.5 -0.468,1.651 -0.922,2.7439999 -1.172,3.3119999 -0.176,0.396 -0.386,1.126 -1.239,2.558 -1.303,2.166 -2.407,3.265 -3.276,5.193 -0.407,0.895 -1.276,1.312 -1.229,2.4 0.046,1.084 1.15,1.693 1.15,1.693"
     id="path397" />
  <path
     style="fill:none;stroke:#231f20;stroke-width:0.565977;stroke-linecap:butt;stroke-linejoin:miter;stroke-miterlimit:4;stroke-dasharray:none;stroke-opacity:1"
     d="m 143.18153,23.113672 c 1.918,1.203 2.459,1.183 3.022,0.407 0.374,-0.516 0.896,-0.871 1.145,-1.172 0.803,-1.016 1.751,-3.052 2.923,-9.532 0.265,-1.473 0.656,-3.5309999 0.88,-4.3589999 0.353,-1.302 -2.063,-1.005 -2.204,-0.5 -0.468,1.651 -0.922,2.7439999 -1.172,3.3119999 -0.176,0.396 -0.386,1.126 -1.239,2.558 -1.303,2.166 -2.407,3.265 -3.276,5.193 -0.407,0.895 -1.276,1.312 -1.229,2.4 0.046,1.084 1.15,1.693 1.15,1.693 z"
     id="path398" />
  <path
     style="fill:#ca0369;fill-opacity:1;fill-rule:nonzero;stroke:none"
     d="m 135.38553,48.415672 c 1.192,-2.9 1.766,-3.395 2.416,-4.036 4.126,-4.058 2.058,-6.006 -0.77,-6.599 -3.318,-0.699 -4.495,-1.021 -6.318,5.005 -0.51,1.678 -3.297,7.85 -3.297,7.85 -1.297,2.077 -1.453,4.785 -0.651,6.009 0.848,1.276 0.604,0.704 1.604,1.745 0.959,0.995 3.063,1.588 4.088,0.896 0.99,-0.666 0.891,-2.328 1.068,-4.75 0.14,-1.906 1.86,-6.12 1.86,-6.12"
     id="path399" />
  <path
     style="fill:none;stroke:#231f20;stroke-width:0.565977;stroke-linecap:butt;stroke-linejoin:miter;stroke-miterlimit:4;stroke-dasharray:none;stroke-opacity:1"
     d="m 135.38553,48.415672 c 1.192,-2.9 1.766,-3.395 2.416,-4.036 4.126,-4.058 2.058,-6.006 -0.77,-6.599 -3.318,-0.699 -4.495,-1.021 -6.318,5.005 -0.51,1.678 -3.297,7.85 -3.297,7.85 -1.297,2.077 -1.453,4.785 -0.651,6.009 0.848,1.276 0.604,0.704 1.604,1.745 0.959,0.995 3.063,1.588 4.088,0.896 0.99,-0.666 0.891,-2.328 1.068,-4.75 0.14,-1.906 1.86,-6.12 1.86,-6.12 z"
     id="path400" />
  <path
     style="fill:#ffffff;fill-opacity:1;fill-rule:nonzero;stroke:none"
     d="m 121.41153,57.405672 c -0.229,0.078 -0.896,-0.854 -1.344,-0.584 -0.448,0.271 -0.229,1.027 -1.323,2.688 l -0.01,0.015 c -0.844,1.183 -1.099,2.553 -0.536,3.672 0.926,1.865 3.729,2.338 6.254,1.084 2.527,-1.266 3.823,-3.792 2.896,-5.651 -0.885,-1.781 -3.495,-2.302 -5.937,-1.224"
     id="path401" />
  <path
     style="fill:none;stroke:#231f20;stroke-width:0.565977;stroke-linecap:butt;stroke-linejoin:miter;stroke-miterlimit:4;stroke-dasharray:none;stroke-opacity:1"
     d="m 121.41153,57.405672 c -0.229,0.078 -0.896,-0.854 -1.344,-0.584 -0.448,0.271 -0.229,1.027 -1.323,2.688 l -0.01,0.015 c -0.844,1.183 -1.099,2.553 -0.536,3.672 0.926,1.865 3.729,2.338 6.254,1.084 2.527,-1.266 3.823,-3.792 2.896,-5.651 -0.885,-1.781 -3.495,-2.302 -5.937,-1.224 z"
     id="path402" />
  <path
     style="fill:#231f20;fill-opacity:1;fill-rule:nonzero;stroke:none"
     d="m 144.94153,21.379672 c -3.197,-2.422 -3.937,1.589 -4.228,1.974 -3.042,3.99 -3.152,4.348 -5.256,7.547 -3.025,4.62 -4.401,8.249 -2.229,10.801 1.475,1.73 3.079,2.099 4.323,1.667 1.381,-0.473 3.578,-2.765 2.876,-5.572 l 0.53,-1.631 c 0.495,-1.052 0.73,-1.573 1.016,-2.084 0.495,-0.869 0.974,-1.833 1.844,-3.577 1.552,-3.104 2.172,-6.907 2.172,-6.907 0.526,-1.125 -1.048,-2.218 -1.048,-2.218"
     id="path403" />
  <path
     style="fill:none;stroke:#231f20;stroke-width:0.565977;stroke-linecap:butt;stroke-linejoin:miter;stroke-miterlimit:4;stroke-dasharray:none;stroke-opacity:1"
     d="m 144.94153,21.379672 c -3.197,-2.422 -3.937,1.589 -4.228,1.974 -3.042,3.99 -3.152,4.348 -5.256,7.547 -3.025,4.62 -4.401,8.249 -2.229,10.801 1.475,1.73 3.079,2.099 4.323,1.667 1.381,-0.473 3.578,-2.765 2.876,-5.572 l 0.53,-1.631 c 0.495,-1.052 0.73,-1.573 1.016,-2.084 0.495,-0.869 0.974,-1.833 1.844,-3.577 1.552,-3.104 2.172,-6.907 2.172,-6.907 0.526,-1.125 -1.048,-2.218 -1.048,-2.218 z"
     id="path404" />
  <path
     style="fill:#231f20;fill-opacity:1;fill-rule:nonzero;stroke:none"
     d="m 114.70853,70.634672 c 0.214,-0.614 1.9,-1.584 2.88,-2.86 0.662,-0.86 3.078,-2.166 3.672,-3.073 0.547,-0.828 0.869,-1.161 1.932,-0.697 0.625,0.27 1.651,1.202 1.473,1.677 -0.426,1.115 -1.077,1.796 -1.968,2.396 -1.005,0.676 -3.906,2.285 -4.469,2.531 -1.396,0.604 -1.738,1.254 -2.093,1.453 -0.667,0.369 -0.973,0.203 -1.307,-0.172 -0.63,-0.724 -0.12,-1.255 -0.12,-1.255"
     id="path405" />
  <path
     style="fill:none;stroke:#231f20;stroke-width:0.565977;stroke-linecap:butt;stroke-linejoin:miter;stroke-miterlimit:4;stroke-dasharray:none;stroke-opacity:1"
     d="m 114.70853,70.634672 c 0.214,-0.614 1.9,-1.584 2.88,-2.86 0.662,-0.86 3.078,-2.166 3.672,-3.073 0.547,-0.828 0.869,-1.161 1.932,-0.697 0.625,0.27 1.651,1.202 1.473,1.677 -0.426,1.115 -1.077,1.796 -1.968,2.396 -1.005,0.676 -3.906,2.285 -4.469,2.531 -1.396,0.604 -1.738,1.254 -2.093,1.453 -0.667,0.369 -0.973,0.203 -1.307,-0.172 -0.63,-0.724 -0.12,-1.255 -0.12,-1.255 z"
     id="path406" />
  <path
     style="fill:#231f20;fill-opacity:1;fill-rule:nonzero;stroke:none"
     d="m 121.70853,65.378672 c -0.948,-0.88 0.681,-2.104 1.057,-2.489 0.38,-0.385 1.343,-1.615 1.963,-2.666 0.625,-1.052 1.849,-2.099 3.043,-4.099 0.624,-1.052 1.9,-1.683 3.39,-0.709 1.468,0.964 1.479,2.152 0.531,3.308 -0.948,1.161 -2.328,1.844 -3.364,2.947 -1.043,1.099 -1.996,2.312 -2.699,3.302 -0.801,1.13 -1.614,1.385 -2.082,1.286 -1.167,-0.254 -1.839,-0.88 -1.839,-0.88"
     id="path407" />
  <path
     style="fill:none;stroke:#231f20;stroke-width:0.565977;stroke-linecap:butt;stroke-linejoin:miter;stroke-miterlimit:4;stroke-dasharray:none;stroke-opacity:1"
     d="m 121.70853,65.378672 c -0.948,-0.88 0.681,-2.104 1.057,-2.489 0.38,-0.385 1.343,-1.615 1.963,-2.666 0.625,-1.052 1.849,-2.099 3.043,-4.099 0.624,-1.052 1.9,-1.683 3.39,-0.709 1.468,0.964 1.479,2.152 0.531,3.308 -0.948,1.161 -2.328,1.844 -3.364,2.947 -1.043,1.099 -1.996,2.312 -2.699,3.302 -0.801,1.13 -1.614,1.385 -2.082,1.286 -1.167,-0.254 -1.839,-0.88 -1.839,-0.88 z"
     id="path408" />
  <path
     style="fill:#ca0369;fill-opacity:1;fill-rule:nonzero;stroke:none"
     d="m 140.45253,37.655672 -6.593,-4.198 c -1.818,3.287 -2.355,5.974 -0.656,8.01 1.453,1.75 3.041,2.125 4.292,1.72 1.389,-0.459 3.618,-2.724 2.957,-5.532"
     id="path409" />
  <path
     style="fill:none;stroke:#231f20;stroke-width:0.565977;stroke-linecap:butt;stroke-linejoin:miter;stroke-miterlimit:4;stroke-dasharray:none;stroke-opacity:1"
     d="m 140.45253,37.655672 -6.593,-4.198 c -1.818,3.287 -2.355,5.974 -0.656,8.01 1.453,1.75 3.041,2.125 4.292,1.72 1.389,-0.459 3.618,-2.724 2.957,-5.532 z"
     id="path410" />
  <path
     style="fill:#231f20;fill-opacity:1;fill-rule:nonzero;stroke:none"
     d="m 110.60453,74.514672 c 0.244,-0.682 2.307,-3.193 2.802,-3.745 0.442,-0.5 0.906,-1.557 2.016,-1.235 0.448,0.136 1.01,0.642 1.182,0.912 0.14,0.214 0.01,0.516 -0.281,0.787 -0.491,0.453 -0.803,0.396 -1.792,1.203 0,0 -0.26,0.161 -0.751,0.417 -1.442,0.749 -0.88,0.28 -2.724,1.848 -0.134,0.109 -0.342,0.057 -0.41,-0.041 -0.099,-0.146 -0.042,-0.146 -0.042,-0.146"
     id="path411" />
  <path
     style="fill:none;stroke:#231f20;stroke-width:0.565977;stroke-linecap:round;stroke-linejoin:round;stroke-miterlimit:4;stroke-dasharray:none;stroke-opacity:1"
     d="m 110.60453,74.514672 c 0.244,-0.682 2.307,-3.193 2.802,-3.745 0.442,-0.5 0.906,-1.557 2.016,-1.235 0.448,0.136 1.01,0.642 1.182,0.912 0.14,0.214 0.01,0.516 -0.281,0.787 -0.491,0.453 -0.803,0.396 -1.792,1.203 0,0 -0.26,0.161 -0.751,0.417 -1.442,0.749 -0.88,0.28 -2.724,1.848 -0.134,0.109 -0.342,0.057 -0.41,-0.041 -0.099,-0.146 -0.042,-0.146 -0.042,-0.146 z"
     id="path412" />
  <path
     style="fill:#ffffff;fill-opacity:1;fill-rule:nonzero;stroke:#231f20;stroke-width:0.665856;stroke-linecap:butt;stroke-linejoin:miter;stroke-miterlimit:4;stroke-dasharray:none;stroke-opacity:1"
     d="m 101.68753,13.925672 6.765,24.486 1.282,-0.371 -6.766,-24.479 z"
     id="path413" />
  <path
     style="fill:#ffffff;fill-opacity:1;fill-rule:nonzero;stroke:none"
     d="m 106.34353,44.139672 c -0.645,-2.26 0.667,-4.624 2.932,-5.271 2.267,-0.651 4.631,0.667 5.276,2.928 0.652,2.265 -0.667,4.635 -2.932,5.281 -2.26,0.646 -4.629,-0.672 -5.276,-2.938 m -1.281,0.365 c 0.849,2.973 3.958,4.697 6.922,3.849 2.974,-0.844 4.698,-3.953 3.848,-6.922 -0.848,-2.968 -3.952,-4.692 -6.921,-3.844 -2.969,0.844 -4.697,3.948 -3.849,6.917"
     id="path414" />
  <path
     style="fill:none;stroke:#231f20;stroke-width:0.665856;stroke-linecap:butt;stroke-linejoin:miter;stroke-miterlimit:4;stroke-dasharray:none;stroke-opacity:1"
     d="m 106.34353,44.139672 c -0.645,-2.26 0.667,-4.624 2.932,-5.271 2.267,-0.651 4.631,0.667 5.276,2.928 0.652,2.265 -0.667,4.635 -2.932,5.281 -2.26,0.646 -4.629,-0.672 -5.276,-2.938 z m -1.281,0.365 c 0.849,2.973 3.958,4.697 6.922,3.849 2.974,-0.844 4.698,-3.953 3.848,-6.922 -0.848,-2.968 -3.952,-4.692 -6.921,-3.844 -2.969,0.844 -4.697,3.948 -3.849,6.917 z"
     id="path415" />
  <path
     style="fill:#ffffff;fill-opacity:1;fill-rule:nonzero;stroke:#231f20;stroke-width:0.665856;stroke-linecap:butt;stroke-linejoin:miter;stroke-miterlimit:4;stroke-dasharray:none;stroke-opacity:1"
     d="m 99.719529,13.920672 -0.053,35.267 h 1.333001 l 0.053,-35.262 z"
     id="path416" />
  <path
     style="fill:#ffffff;fill-opacity:1;fill-rule:nonzero;stroke:none"
     d="m 96.052529,54.108672 c 0.004,-2.349 1.922,-4.26 4.276001,-4.26 2.354,0.005 4.266,1.927 4.26,4.276 0,2.359 -1.922,4.271 -4.276,4.265 -2.349001,-0.005 -4.265001,-1.922 -4.260001,-4.281 m -1.329,0 c -0.004,3.088 2.505,5.604 5.589001,5.609 3.088,0.011 5.604,-2.5 5.61,-5.588 0.005,-3.089 -2.5,-5.605 -5.59,-5.609 -3.088001,-0.005 -5.609001,2.5 -5.609001,5.588"
     id="path417" />
  <path
     style="fill:none;stroke:#231f20;stroke-width:0.665856;stroke-linecap:butt;stroke-linejoin:miter;stroke-miterlimit:4;stroke-dasharray:none;stroke-opacity:1"
     d="m 96.052529,54.108672 c 0.004,-2.349 1.922,-4.26 4.276001,-4.26 2.354,0.005 4.266,1.927 4.26,4.276 0,2.359 -1.922,4.271 -4.276,4.265 -2.349001,-0.005 -4.265001,-1.922 -4.260001,-4.281 z m -1.329,0 c -0.004,3.088 2.505,5.604 5.589001,5.609 3.088,0.011 5.604,-2.5 5.61,-5.588 0.005,-3.089 -2.5,-5.605 -5.59,-5.609 -3.088001,-0.005 -5.609001,2.5 -5.609001,5.588 z"
     id="path418" />
</svg>
