<?xml version="1.0" encoding="UTF-8" standalone="no"?>
<!-- Created with Inkscape (http://www.inkscape.org/) -->

<svg
   version="1.1"
   id="svg1"
   width="36.84671"
   height="33.04071"
   viewBox="0 0 36.846709 33.040711"
   sodipodi:docname="cell.svg"
   xmlns:inkscape="http://www.inkscape.org/namespaces/inkscape"
   xmlns:sodipodi="http://sodipodi.sourceforge.net/DTD/sodipodi-0.dtd"
   xmlns="http://www.w3.org/2000/svg"
   xmlns:svg="http://www.w3.org/2000/svg">
  <sodipodi:namedview
     id="namedview1"
     pagecolor="#ffffff"
     bordercolor="#000000"
     borderopacity="0.25"
     inkscape:showpageshadow="2"
     inkscape:pageopacity="0.0"
     inkscape:pagecheckerboard="0"
     inkscape:deskcolor="#d1d1d1">
    <inkscape:page
       x="0"
       y="0"
       inkscape:label="1"
       id="page1"
       width="36.84671"
       height="33.04071"
       margin="0"
       bleed="0" />
  </sodipodi:namedview>
  <defs
     id="defs1" />
  <path
     style="fill:none;stroke:#231f20;stroke-width:1.33171;stroke-linecap:round;stroke-linejoin:round;stroke-miterlimit:4;stroke-dasharray:none;stroke-opacity:1"
     d="m 11.341855,0.66585547 c 5.215,2.46400003 6.688,9.52099953 2.85,13.95799953 -1.266,1.469 -3.49,2.156 -5.0679999,1.089 -1.5,-1.01 -0.182,-3.313 1.4329999,-3.734 1.337,-0.355 2.656,0.114 3.567,1.244 1.562,1.933 1.781,4.453 1.74,6.552 -0.063,3.474 -4.599,11.876 -15.19799994,12.6"
     id="path692" />
  <path
     style="fill:none;stroke:#231f20;stroke-width:1.33171;stroke-linecap:round;stroke-linejoin:round;stroke-miterlimit:4;stroke-dasharray:none;stroke-opacity:1"
     d="m 18.784855,25.540855 -12.1239999,-0.005"
     id="path693" />
  <path
     style="fill:#231f20;fill-opacity:1;fill-rule:nonzero;stroke:none"
     d="m 2.6448551,25.535855 c 1.891,-0.699 4.235,-1.896 5.693,-3.161 l -1.146,3.161 1.141,3.167 c -1.453,-1.267 -3.797,-2.464 -5.688,-3.167"
     id="path694" />
  <path
     style="fill:none;stroke:#231f20;stroke-width:1.33171;stroke-linecap:round;stroke-linejoin:round;stroke-miterlimit:4;stroke-dasharray:none;stroke-opacity:1"
     d="m 22.399855,13.910855 7.052,4.317 6.729,-7.391 v 21.35"
     id="path695" />
</svg>
