<?xml version="1.0" encoding="UTF-8" standalone="no"?>
<!-- Created with Inkscape (http://www.inkscape.org/) -->

<svg
   version="1.1"
   id="svg1"
   width="43.99271"
   height="23.373709"
   viewBox="0 0 43.992709 23.373708"
   sodipodi:docname="cell.svg"
   xmlns:inkscape="http://www.inkscape.org/namespaces/inkscape"
   xmlns:sodipodi="http://sodipodi.sourceforge.net/DTD/sodipodi-0.dtd"
   xmlns="http://www.w3.org/2000/svg"
   xmlns:svg="http://www.w3.org/2000/svg">
  <sodipodi:namedview
     id="namedview1"
     pagecolor="#ffffff"
     bordercolor="#000000"
     borderopacity="0.25"
     inkscape:showpageshadow="2"
     inkscape:pageopacity="0.0"
     inkscape:pagecheckerboard="0"
     inkscape:deskcolor="#d1d1d1">
    <inkscape:page
       x="0"
       y="0"
       inkscape:label="1"
       id="page1"
       width="43.99271"
       height="23.373709"
       margin="0"
       bleed="0" />
  </sodipodi:namedview>
  <defs
     id="defs1" />
  <path
     style="fill:none;stroke:#231f20;stroke-width:1.33171;stroke-linecap:round;stroke-linejoin:round;stroke-miterlimit:4;stroke-dasharray:none;stroke-opacity:1"
     d="m 0.66585518,11.050844 c 4.42800002,2.126 6.66099992,2.948 8.28699992,3.365 1.6979999,0.433 3.7859999,0.119 4.8599999,-0.662 1.249,-0.91 2.197,-3.041 1.276,-4.3279996 -1.735,-2.405 -7.0989999,-1.77 -7.6199999,2.8749996 -0.808,7.182 8.3849999,8.953 8.3849999,8.953"
     id="path1160" />
  <path
     style="fill:none;stroke:#231f20;stroke-width:1.33171;stroke-linecap:round;stroke-linejoin:round;stroke-miterlimit:4;stroke-dasharray:none;stroke-opacity:1"
     d="m 30.326855,5.0048444 6.652,4.072 6.348,-6.973 V 22.248844"
     id="path1161" />
  <path
     style="fill:none;stroke:#231f20;stroke-width:1.33171;stroke-linecap:round;stroke-linejoin:round;stroke-miterlimit:4;stroke-dasharray:none;stroke-opacity:1"
     d="m 27.790855,0.66584439 c -6.801,1.69700001 -8.994,6.88500001 -4.254,10.25999961 1.562,1.12 4.396,1.683 6.462,0.932 1.97,-0.713 0.376,-2.4479996 -1.681,-2.8009996 -1.699,-0.287 -3.412,0.02 -4.641,0.839 -2.088,1.3899996 -2.474,3.2489996 -2.511,4.8009996 -0.063,2.573 2.256,6.417 7.901,6.584"
     id="path1162" />
  <path
     style="fill:none;stroke:#231f20;stroke-width:1.33171;stroke-linecap:round;stroke-linejoin:round;stroke-miterlimit:4;stroke-dasharray:none;stroke-opacity:1"
     d="m 18.478855,22.707844 8.318,-6.995"
     id="path1163" />
</svg>
