<?xml version="1.0" encoding="UTF-8" standalone="no"?>
<!-- Created with Inkscape (http://www.inkscape.org/) -->

<svg
   version="1.1"
   id="svg1"
   width="36.68671"
   height="30.09771"
   viewBox="0 0 36.686709 30.09771"
   sodipodi:docname="cell.svg"
   xmlns:inkscape="http://www.inkscape.org/namespaces/inkscape"
   xmlns:sodipodi="http://sodipodi.sourceforge.net/DTD/sodipodi-0.dtd"
   xmlns="http://www.w3.org/2000/svg"
   xmlns:svg="http://www.w3.org/2000/svg">
  <sodipodi:namedview
     id="namedview1"
     pagecolor="#ffffff"
     bordercolor="#000000"
     borderopacity="0.25"
     inkscape:showpageshadow="2"
     inkscape:pageopacity="0.0"
     inkscape:pagecheckerboard="0"
     inkscape:deskcolor="#d1d1d1">
    <inkscape:page
       x="1.9286786e-09"
       y="5.2309844e-07"
       inkscape:label="1"
       id="page1"
       width="36.68671"
       height="30.09771"
       margin="0"
       bleed="0" />
  </sodipodi:namedview>
  <defs
     id="defs1" />
  <path
     style="fill:none;stroke:#231f20;stroke-width:1.33171;stroke-linecap:round;stroke-linejoin:round;stroke-miterlimit:4;stroke-dasharray:none;stroke-opacity:1"
     d="M 8.6558552,0.66584836 V 29.431848"
     id="path805" />
  <path
     style="fill:none;stroke:#231f20;stroke-width:1.33171;stroke-linecap:round;stroke-linejoin:round;stroke-miterlimit:4;stroke-dasharray:none;stroke-opacity:1"
     d="m 0.66585519,19.931848 c 0,2.182 1.76600001,3.948 3.94300001,3.948 2.183,0 3.948,-1.766 3.948,-3.948 0,-2.177 -1.765,-3.942 -3.948,-3.942 -2.177,0 -3.94300001,1.765 -3.94300001,3.942 z"
     id="path806" />
  <path
     style="fill:none;stroke:#231f20;stroke-width:1.33171;stroke-linecap:round;stroke-linejoin:round;stroke-miterlimit:4;stroke-dasharray:none;stroke-opacity:1"
     d="m 13.015855,10.274848 c 5.01,1.969 7.333,3.152 8.88,4.147 1.614,1.036 2.921,2.948 3.088,4.39 0.204,1.683 -0.796,4.026 -2.52,4.244 -3.224,0.412 -6.714,-4.369 -3.371,-8.254 5.157,-5.9999996 13.439,0.057 13.439,0.057"
     id="path807" />
  <path
     style="fill:none;stroke:#231f20;stroke-width:1.33171;stroke-linecap:round;stroke-linejoin:miter;stroke-miterlimit:4;stroke-dasharray:none;stroke-opacity:1"
     d="M 36.020855,8.2078484 V 26.931848"
     id="path808" />
</svg>
