<?xml version="1.0" encoding="UTF-8" standalone="no"?>
<!-- Created with Inkscape (http://www.inkscape.org/) -->

<svg
   version="1.1"
   id="svg1"
   width="36.143707"
   height="30.09671"
   viewBox="0 0 36.143706 30.096711"
   sodipodi:docname="cell.svg"
   xmlns:inkscape="http://www.inkscape.org/namespaces/inkscape"
   xmlns:sodipodi="http://sodipodi.sourceforge.net/DTD/sodipodi-0.dtd"
   xmlns="http://www.w3.org/2000/svg"
   xmlns:svg="http://www.w3.org/2000/svg">
  <sodipodi:namedview
     id="namedview1"
     pagecolor="#ffffff"
     bordercolor="#000000"
     borderopacity="0.25"
     inkscape:showpageshadow="2"
     inkscape:pageopacity="0.0"
     inkscape:pagecheckerboard="0"
     inkscape:deskcolor="#d1d1d1">
    <inkscape:page
       x="0"
       y="0"
       inkscape:label="1"
       id="page1"
       width="36.143707"
       height="30.09671"
       margin="0"
       bleed="0" />
  </sodipodi:namedview>
  <defs
     id="defs1" />
  <path
     style="fill:none;stroke:#231f20;stroke-width:1.33171;stroke-linecap:round;stroke-linejoin:round;stroke-miterlimit:4;stroke-dasharray:none;stroke-opacity:1"
     d="M 27.726855,0.66585456 V 29.430855"
     id="path1144" />
  <path
     style="fill:none;stroke:#231f20;stroke-width:1.33171;stroke-linecap:round;stroke-linejoin:round;stroke-miterlimit:4;stroke-dasharray:none;stroke-opacity:1"
     d="m 35.477855,20.175855 c 0,2.182 -1.765,3.948 -3.948,3.948 -2.183,0 -3.948,-1.766 -3.948,-3.948 0,-2.177 1.765,-3.948 3.948,-3.948 2.183,0 3.948,1.771 3.948,3.948 z"
     id="path1145" />
  <path
     style="fill:none;stroke:#231f20;stroke-width:1.33171;stroke-linecap:round;stroke-linejoin:round;stroke-miterlimit:4;stroke-dasharray:none;stroke-opacity:1"
     d="m 0.66585539,13.498855 c 5.17199981,0.631 7.69199981,0.692 9.46299961,0.557 1.854,-0.141 3.838,-1.172 4.652,-2.322 0.942,-1.339 1.17,-3.7980004 -0.194,-4.7760004 -2.557,-1.824 -7.7289998,0.64 -6.6659998,5.4840004 1.636,7.478 11.4639998,6.125 11.4639998,6.125"
     id="path1146" />
  <path
     style="fill:none;stroke:#231f20;stroke-width:1.33171;stroke-linecap:round;stroke-linejoin:round;stroke-miterlimit:4;stroke-dasharray:none;stroke-opacity:1"
     d="M 1.2648554,21.394855 H 19.742855"
     id="path1147" />
  <path
     style="fill:none;stroke:#231f20;stroke-width:1.33171;stroke-linecap:round;stroke-linejoin:round;stroke-miterlimit:4;stroke-dasharray:none;stroke-opacity:1"
     d="M 1.2648554,24.873855 H 19.742855"
     id="path1148" />
</svg>
