<?xml version="1.0" encoding="UTF-8" standalone="no"?>
<!-- Created with Inkscape (http://www.inkscape.org/) -->

<svg
   version="1.1"
   id="svg1"
   width="35.40971"
   height="33.35701"
   viewBox="0 0 35.409708 33.35701"
   sodipodi:docname="cell.svg"
   xmlns:inkscape="http://www.inkscape.org/namespaces/inkscape"
   xmlns:sodipodi="http://sodipodi.sourceforge.net/DTD/sodipodi-0.dtd"
   xmlns="http://www.w3.org/2000/svg"
   xmlns:svg="http://www.w3.org/2000/svg">
  <sodipodi:namedview
     id="namedview1"
     pagecolor="#ffffff"
     bordercolor="#000000"
     borderopacity="0.25"
     inkscape:showpageshadow="2"
     inkscape:pageopacity="0.0"
     inkscape:pagecheckerboard="0"
     inkscape:deskcolor="#d1d1d1">
    <inkscape:page
       x="2.9183253e-08"
       y="2.1438513e-08"
       inkscape:label="1"
       id="page1"
       width="35.40971"
       height="33.35701"
       margin="0"
       bleed="0" />
  </sodipodi:namedview>
  <defs
     id="defs1" />
  <path
     style="fill:none;stroke:#231f20;stroke-width:1.33171;stroke-linecap:round;stroke-linejoin:round;stroke-miterlimit:4;stroke-dasharray:none;stroke-opacity:1"
     d="m 13.332855,24.237855 5.359,3.2813 5.109,-5.6146 v 10.7866"
     id="path433" />
  <path
     style="fill:#231f20;fill-opacity:1;fill-rule:nonzero;stroke:none"
     d="m 18.061855,20.633855 c 0.448,0 0.703,-0.4213 0.703,-0.9947 0,-0.5306 -0.245,-0.9786 -0.703,-0.9786 -0.458,0 -0.713,0.4426 -0.713,0.9893 0,0.552 0.265,0.984 0.708,0.984 z m -0.032,0.5267 c -0.864,0 -1.374,-0.6614 -1.374,-1.4947 0,-0.876 0.562,-1.532 1.421,-1.532 0.901,0 1.391,0.672 1.391,1.48 0,0.9627 -0.578,1.5467 -1.432,1.5467 z"
     id="path434" />
  <path
     style="fill:#231f20;fill-opacity:1;fill-rule:nonzero;stroke:none"
     d="m 20.567855,18.180555 v 1.6826 c 0,0.5054 0.197,0.7654 0.53,0.7654 0.35,0 0.536,-0.244 0.536,-0.7654 v -1.6826 h 0.662 v 1.6413 c 0,0.9067 -0.452,1.3333 -1.219,1.3333 -0.739,0 -1.172,-0.412 -1.172,-1.3386 v -1.636 z"
     id="path435" />
  <path
     style="fill:none;stroke:#231f20;stroke-width:1.33171;stroke-linecap:round;stroke-linejoin:miter;stroke-miterlimit:4;stroke-dasharray:none;stroke-opacity:1"
     d="M 11.676855,9.269855 H 0.66585516"
     id="path436" />
  <path
     style="fill:none;stroke:#231f20;stroke-width:1.33171;stroke-linecap:round;stroke-linejoin:miter;stroke-miterlimit:4;stroke-dasharray:none;stroke-opacity:1"
     d="m 3.9208552,14.207155 v -9.5879"
     id="path437" />
  <path
     style="fill:none;stroke:#231f20;stroke-width:1.33171;stroke-linecap:round;stroke-linejoin:round;stroke-miterlimit:4;stroke-dasharray:none;stroke-opacity:1"
     d="m 18.467855,0.66585498 c -4.9,1.21870002 -6.484,4.95870002 -3.067,7.39600002 1.124,0.8014 3.167,1.208 4.656,0.6667 1.421,-0.516 0.271,-1.7667 -1.209,-2.016 -1.223,-0.208 -2.463,0.016 -3.343,0.5987 -1.505,1.0053 -1.781,2.344 -1.813,3.464 -0.047,1.8533 1.625,4.6253 5.693,4.7386"
     id="path438" />
  <path
     style="fill:none;stroke:#231f20;stroke-width:1.33171;stroke-linecap:round;stroke-linejoin:round;stroke-miterlimit:4;stroke-dasharray:none;stroke-opacity:1"
     d="m 11.753855,16.545855 6,-5.036"
     id="path439" />
  <path
     style="fill:none;stroke:#231f20;stroke-width:1.33171;stroke-linecap:round;stroke-linejoin:round;stroke-miterlimit:4;stroke-dasharray:none;stroke-opacity:1"
     d="m 22.524855,15.499155 4.604,-10.8079 4.605,10.8079"
     id="path440" />
  <path
     style="fill:none;stroke:#231f20;stroke-width:1.33171;stroke-linecap:round;stroke-linejoin:miter;stroke-miterlimit:4;stroke-dasharray:none;stroke-opacity:1"
     d="M 34.743855,15.676555 V 2.947255"
     id="path441" />
</svg>
