<?xml version="1.0" encoding="UTF-8" standalone="no"?>
<!-- Created with Inkscape (http://www.inkscape.org/) -->

<svg
   version="1.1"
   id="svg1"
   width="44.791355"
   height="29.867714"
   viewBox="0 0 44.791354 29.867713"
   sodipodi:docname="cell.svg"
   xmlns:inkscape="http://www.inkscape.org/namespaces/inkscape"
   xmlns:sodipodi="http://sodipodi.sourceforge.net/DTD/sodipodi-0.dtd"
   xmlns="http://www.w3.org/2000/svg"
   xmlns:svg="http://www.w3.org/2000/svg">
  <sodipodi:namedview
     id="namedview1"
     pagecolor="#ffffff"
     bordercolor="#000000"
     borderopacity="0.25"
     inkscape:showpageshadow="2"
     inkscape:pageopacity="0.0"
     inkscape:pagecheckerboard="0"
     inkscape:deskcolor="#d1d1d1">
    <inkscape:page
       x="0"
       y="0"
       inkscape:label="1"
       id="page1"
       width="44.791355"
       height="29.867714"
       margin="0"
       bleed="0" />
  </sodipodi:namedview>
  <defs
     id="defs1" />
  <path
     style="fill:none;stroke:#231f20;stroke-width:1.33171;stroke-linecap:round;stroke-linejoin:round;stroke-miterlimit:4;stroke-dasharray:none;stroke-opacity:1"
     d="m 33.842855,22.201856 8.0204,-7.558"
     id="path1205" />
  <path
     style="fill:#231f20;fill-opacity:1;fill-rule:nonzero;stroke:none"
     d="m 44.791355,11.889856 c -0.8964,1.806 -1.7819,4.285 -1.9751,6.202 l -1.3333,-3.088 -3.0052,-1.521 c 1.9281,-0.074 4.4532,-0.808 6.3136,-1.593"
     id="path1206" />
  <path
     style="fill:none;stroke:#231f20;stroke-width:1.33171;stroke-linecap:round;stroke-linejoin:miter;stroke-miterlimit:4;stroke-dasharray:none;stroke-opacity:1"
     d="M 18.931055,15.378856 H 0.66585501"
     id="path1207" />
  <path
     style="fill:none;stroke:#231f20;stroke-width:1.33171;stroke-linecap:round;stroke-linejoin:miter;stroke-miterlimit:4;stroke-dasharray:none;stroke-opacity:1"
     d="M 13.759155,22.493856 V 8.6798563"
     id="path1208" />
  <path
     style="fill:none;stroke:#231f20;stroke-width:1.33171;stroke-linecap:round;stroke-linejoin:round;stroke-miterlimit:4;stroke-dasharray:none;stroke-opacity:1"
     d="m 26.952355,0.66585628 c -4.6932,2.21800002 -6.0156,8.56600002 -2.5625,12.56599972 1.136,1.313 3.1401,1.939 4.5573,0.98 1.3546,-0.917 0.1666,-2.984 -1.2866,-3.365 -1.2025,-0.317 -2.3905,0.105 -3.2134,1.12 -1.4068,1.74 -1.6043,4.005 -1.5625,5.896 0.0573,3.131 4.1411,10.688003 13.677,11.339003"
     id="path1209" />
  <path
     style="fill:none;stroke:#231f20;stroke-width:1.33171;stroke-linecap:round;stroke-linejoin:round;stroke-miterlimit:4;stroke-dasharray:none;stroke-opacity:1"
     d="m 21.092455,24.117856 h 11.1667"
     id="path1210" />
</svg>
