<?xml version="1.0" encoding="UTF-8" standalone="no"?>
<!-- Created with Inkscape (http://www.inkscape.org/) -->

<svg
   version="1.1"
   id="svg1"
   width="42.687706"
   height="31.519703"
   viewBox="0 0 42.687704 31.519702"
   sodipodi:docname="cell.svg"
   xmlns:inkscape="http://www.inkscape.org/namespaces/inkscape"
   xmlns:sodipodi="http://sodipodi.sourceforge.net/DTD/sodipodi-0.dtd"
   xmlns="http://www.w3.org/2000/svg"
   xmlns:svg="http://www.w3.org/2000/svg">
  <sodipodi:namedview
     id="namedview1"
     pagecolor="#ffffff"
     bordercolor="#000000"
     borderopacity="0.25"
     inkscape:showpageshadow="2"
     inkscape:pageopacity="0.0"
     inkscape:pagecheckerboard="0"
     inkscape:deskcolor="#d1d1d1">
    <inkscape:page
       x="3.7450175e-08"
       y="1.1876223e-06"
       inkscape:label="1"
       id="page1"
       width="42.687706"
       height="31.519703"
       margin="0"
       bleed="0" />
  </sodipodi:namedview>
  <defs
     id="defs1" />
  <path
     style="fill:none;stroke:#231f20;stroke-width:1.33171;stroke-linecap:round;stroke-linejoin:round;stroke-miterlimit:4;stroke-dasharray:none;stroke-opacity:1"
     d="m 36.452363,14.749852 v 13.396"
     id="path778" />
  <path
     style="fill:none;stroke:#231f20;stroke-width:1.33171;stroke-linecap:round;stroke-linejoin:round;stroke-miterlimit:4;stroke-dasharray:none;stroke-opacity:1"
     d="m 40.061663,23.837852 c 0,1.011 -0.8229,1.833 -1.839,1.833 -1.0146,0 -1.8385,-0.822 -1.8385,-1.833 0,-1.02 0.8239,-1.839 1.8385,-1.839 1.0161,0 1.839,0.819 1.839,1.839 z"
     id="path779" />
  <path
     style="fill:none;stroke:#231f20;stroke-width:1.33171;stroke-linecap:round;stroke-linejoin:round;stroke-miterlimit:4;stroke-dasharray:none;stroke-opacity:1"
     d="m 15.441463,15.134852 c -2.4266,1.146 -3.1146,4.432 -1.3224,6.5 0.5891,0.683 1.625,1.006 2.3599,0.511 0.6973,-0.475 0.0828,-1.547 -0.6719,-1.745 -0.6204,-0.162 -1.2349,0.057 -1.6562,0.584 -0.7292,0.9 -0.8334,2.072 -0.8136,3.052 0.0322,1.614 2.1417,5.525 7.0786,5.864"
     id="path780" />
  <path
     style="fill:none;stroke:#231f20;stroke-width:1.33171;stroke-linecap:round;stroke-linejoin:round;stroke-miterlimit:4;stroke-dasharray:none;stroke-opacity:1"
     d="M 17.807063,6.8128519 V 0.66585186 c 0,0 4.8479,0.41200004 4.8479,3.91200004 0,5.276 -7.9844,4.984 -7.9844,4.984"
     id="path781" />
  <path
     style="fill:none;stroke:#231f20;stroke-width:1.33171;stroke-linecap:round;stroke-linejoin:round;stroke-miterlimit:4;stroke-dasharray:none;stroke-opacity:1"
     d="m 24.217463,5.6138519 h 4.464"
     id="path782" />
  <path
     style="fill:none;stroke:#231f20;stroke-width:1.33171;stroke-linecap:round;stroke-linejoin:round;stroke-miterlimit:4;stroke-dasharray:none;stroke-opacity:1"
     d="m 24.217463,8.0458519 h 4.464"
     id="path783" />
  <path
     style="fill:none;stroke:#231f20;stroke-width:1.33171;stroke-linecap:round;stroke-linejoin:round;stroke-miterlimit:4;stroke-dasharray:none;stroke-opacity:1"
     d="m 2.7227628,15.884852 c -4.5308,8.161 -0.224,14.969 -0.224,14.969"
     id="path784" />
  <path
     style="fill:none;stroke:#231f20;stroke-width:1.33171;stroke-linecap:round;stroke-linejoin:round;stroke-miterlimit:4;stroke-dasharray:none;stroke-opacity:1"
     d="m 39.962763,15.884852 c 4.5359,8.161 0.2239,14.969 0.2239,14.969"
     id="path785" />
  <path
     style="fill:none;stroke:#231f20;stroke-width:1.33171;stroke-linecap:round;stroke-linejoin:round;stroke-miterlimit:4;stroke-dasharray:none;stroke-opacity:1"
     d="m 20.774863,23.004852 h 5.7811"
     id="path786" />
  <path
     style="fill:none;stroke:#231f20;stroke-width:1.33171;stroke-linecap:round;stroke-linejoin:round;stroke-miterlimit:4;stroke-dasharray:none;stroke-opacity:1"
     d="m 25.874763,14.102852 c -2.548,1.1 -3.3651,4.464 -1.5948,6.663 0.5843,0.724 1.6468,1.088 2.4176,0.604 0.7386,-0.464 0.1396,-1.589 -0.6254,-1.819 -0.6402,-0.192 -1.2812,0.011 -1.735,0.543 -0.7812,0.9 -0.9265,2.109 -0.9421,3.115"
     id="path787" />
  <path
     style="fill:none;stroke:#231f20;stroke-width:1.33171;stroke-linecap:round;stroke-linejoin:round;stroke-miterlimit:4;stroke-dasharray:none;stroke-opacity:1"
     d="m 24.134663,20.566852 c -0.7027,1.006 -1.1557,3.418 -0.0052,5.479 0.4588,0.808 1.6453,1.089 2.4161,0.6 0.7402,-0.459 0.1411,-1.589 -0.624,-1.819 -0.6358,-0.186 -1.2812,0.016 -1.7401,0.543 -0.776,0.905 -1.2708,2.536 -0.7708,4.651"
     id="path788" />
  <path
     style="fill:none;stroke:#231f20;stroke-width:1.33171;stroke-linecap:round;stroke-linejoin:round;stroke-miterlimit:4;stroke-dasharray:none;stroke-opacity:1"
     d="M 1.6705628,23.088852 H 6.6601626"
     id="path789" />
  <path
     style="fill:#231f20;fill-opacity:1;fill-rule:nonzero;stroke:none"
     d="m 9.0721626,23.088852 c -1.136,0.421 -2.5412,1.14 -3.4171998,1.901 l 0.6879998,-1.901 -0.6879998,-1.902 c 0.8759998,0.766 2.2811998,1.479 3.4171998,1.902"
     id="path790" />
  <path
     style="fill:none;stroke:#231f20;stroke-width:1.33171;stroke-linecap:round;stroke-linejoin:round;stroke-miterlimit:4;stroke-dasharray:none;stroke-opacity:1"
     d="m 4.9055628,16.265852 7.6770002,12.113"
     id="path791" />
  <path
     style="fill:#231f20;fill-opacity:1;fill-rule:nonzero;stroke:none"
     d="m 18.473763,18.989852 c 0.2547,0 0.4011,-0.24 0.4011,-0.568 0,-0.303 -0.1412,-0.563 -0.4011,-0.563 -0.2656,0 -0.412,0.255 -0.412,0.568 0,0.318 0.1505,0.563 0.4063,0.563 z m -0.0213,0.301 c -0.4948,0 -0.7871,-0.374 -0.7871,-0.854 0,-0.504 0.3229,-0.88 0.8136,-0.88 0.5145,0 0.7959,0.385 0.7959,0.849 0,0.552 -0.3282,0.885 -0.8172,0.885 z"
     id="path792" />
  <path
     style="fill:#231f20;fill-opacity:1;fill-rule:nonzero;stroke:none"
     d="m 19.900263,17.588852 v 0.962 c 0,0.287 0.1094,0.439 0.3026,0.439 0.1974,0 0.3068,-0.141 0.3068,-0.439 v -0.962 h 0.3797 v 0.937 c 0,0.52 -0.2599,0.765 -0.7027,0.765 -0.4213,0 -0.6666,-0.234 -0.6666,-0.77 v -0.932 z"
     id="path793" />
  <path
     style="fill:none;stroke:#231f20;stroke-width:1.33171;stroke-linecap:round;stroke-linejoin:round;stroke-miterlimit:4;stroke-dasharray:none;stroke-opacity:1"
     d="m 34.708163,23.717852 c 0,1.729 -1.4011,3.131 -3.1308,3.131 -1.7292,0 -3.1307,-1.402 -3.1307,-3.131 0,-1.728 1.4015,-3.129 3.1307,-3.129 1.7297,0 3.1308,1.401 3.1308,3.129 z"
     id="path794" />
  <path
     style="fill:none;stroke:#231f20;stroke-width:1.33171;stroke-linecap:round;stroke-linejoin:round;stroke-miterlimit:4;stroke-dasharray:none;stroke-opacity:1"
     d="m 30.249163,23.332852 1.6094,-1.224 v 2.937"
     id="path795" />
</svg>
