<?xml version="1.0" encoding="UTF-8" standalone="no"?>
<!-- Created with Inkscape (http://www.inkscape.org/) -->

<svg
   version="1.1"
   id="svg1"
   width="42.741417"
   height="31.058998"
   viewBox="0 0 42.741415 31.058998"
   sodipodi:docname="cell.svg"
   xmlns:inkscape="http://www.inkscape.org/namespaces/inkscape"
   xmlns:sodipodi="http://sodipodi.sourceforge.net/DTD/sodipodi-0.dtd"
   xmlns="http://www.w3.org/2000/svg"
   xmlns:svg="http://www.w3.org/2000/svg">
  <sodipodi:namedview
     id="namedview1"
     pagecolor="#ffffff"
     bordercolor="#000000"
     borderopacity="0.25"
     inkscape:showpageshadow="2"
     inkscape:pageopacity="0.0"
     inkscape:pagecheckerboard="0"
     inkscape:deskcolor="#d1d1d1">
    <inkscape:page
       x="0"
       y="0"
       inkscape:label="1"
       id="page1"
       width="42.741413"
       height="31.058998"
       margin="0"
       bleed="0" />
  </sodipodi:namedview>
  <defs
     id="defs1" />
  <path
     style="fill:none;stroke:#231f20;stroke-width:1.33171;stroke-linecap:round;stroke-linejoin:round;stroke-miterlimit:4;stroke-dasharray:none;stroke-opacity:1"
     d="m 28.843355,25.581856 11.3172,-0.083"
     id="path1526" />
  <path
     style="fill:none;stroke:#231f20;stroke-width:1.33171;stroke-linecap:round;stroke-linejoin:round;stroke-miterlimit:4;stroke-dasharray:none;stroke-opacity:1"
     d="m 39.332355,11.029856 c -6.0051,1.5 -7.9478,6.078 -3.7598,9.068 1.3803,0.984 3.8854,1.478 5.7136,0.822 1.7385,-0.636 0.3281,-2.166 -1.4855,-2.478 -1.5,-0.256 -3.0197,0.02 -4.0984,0.738 -1.8494,1.23 -2.1869,2.871 -2.2188,4.246 -0.0572,2.27 1.9891,5.666 6.9797,5.812"
     id="path1527" />
  <path
     style="fill:#231f20;fill-opacity:1;fill-rule:nonzero;stroke:none"
     d="m 21.467355,11.179856 c 0.548,0 0.8599,-0.514 0.8599,-1.2179998 0,-0.64 -0.3025,-1.192 -0.8599,-1.192 -0.5573,0 -0.8744,0.541 -0.8744,1.213 0,0.6719998 0.3224,1.1969998 0.8703,1.1969998 z m -0.0358,0.647 c -1.0626,0 -1.6882,-0.803 -1.6882,-1.824 0,-1.0769998 0.6934,-1.8799998 1.7454,-1.8799998 1.0985,0 1.7026,0.823 1.7026,1.813 0,1.1819998 -0.7078,1.8909998 -1.7546,1.8909998 z"
     id="path1528" />
  <path
     style="fill:#231f20;fill-opacity:1;fill-rule:nonzero;stroke:none"
     d="m 24.535655,8.1798562 v 2.0629998 c 0,0.62 0.2396,0.932 0.6505,0.932 0.4281,0 0.6572,-0.296 0.6572,-0.932 V 8.1798562 h 0.812 v 2.0109998 c 0,1.109 -0.5624,1.636 -1.4948,1.636 -0.9067,0 -1.4374,-0.505 -1.4374,-1.647 V 8.1798562 Z"
     id="path1529" />
  <path
     style="fill:none;stroke:#231f20;stroke-width:1.33171;stroke-linecap:round;stroke-linejoin:round;stroke-miterlimit:4;stroke-dasharray:none;stroke-opacity:1"
     d="m 0.66585498,19.289856 c 5.06820002,1.218 7.44849982,2.046 9.06299982,2.786 1.6865002,0.782 3.1917002,2.443 3.5464002,3.803 0.4109,1.588 -0.2292,3.968 -1.8489,4.405 -3.0365002,0.819 -7.0163,-3.301 -4.3333002,-7.468 4.1503002,-6.437 12.8847002,-1.729 12.8847002,-1.729"
     id="path1530" />
  <path
     style="fill:none;stroke:#231f20;stroke-width:1.33171;stroke-linecap:round;stroke-linejoin:round;stroke-miterlimit:4;stroke-dasharray:none;stroke-opacity:1"
     d="M 14.452855,0.66585619 9.9476548,11.237856 5.441955,0.66585619"
     id="path1531" />
  <path
     style="fill:none;stroke:#231f20;stroke-width:1.33171;stroke-linecap:round;stroke-linejoin:round;stroke-miterlimit:4;stroke-dasharray:none;stroke-opacity:1"
     d="M 41.119455,8.0028562 V 0.69585619 h -14.0161"
     id="path1532" />
</svg>
